<?xml version="1.0" standalone="no"?>
<!DOCTYPE svg PUBLIC "-//W3C//DTD SVG 1.1//EN" "http://www.w3.org/Graphics/SVG/1.1/DTD/svg11.dtd" >
<svg xmlns="http://www.w3.org/2000/svg">
<metadata>Generated by IcoMoon</metadata>
<defs>
<font id="icomoon" horiz-adv-x="1024">
<font-face units-per-em="1024" ascent="960" descent="-64" />
<missing-glyph horiz-adv-x="1024" />
<glyph unicode="&#x20;" d="" horiz-adv-x="512" />
<glyph unicode="&#xe600;" d="M307.2 247.859v622.541l498.074-311.296-311.296-93.338zM764.109 251.341l-105.728-65.741-226.662 311.296 124.518 62.208z" />
<glyph unicode="&#xe601;" d="M256 358.4l153.6-153.6-256-102.4zM794.010 630.835l76.39 85.965-153.6 153.6-82.586-92.928zM600.166 739.174l-292.966-329.574 153.6-153.6 299.213 336.589z" />
<glyph unicode="&#xe602;" d="M153.776 693.591l70.21 74.615 596.549-561.328-70.21-74.615-596.549 561.328z" />
<glyph unicode="&#xe603;" d="M233.011 864.41l200.909-260.25c27.187 8.858 58.112 0.563 76.595-23.398 23.45-30.413 17.818-74.086-12.544-97.536-30.413-23.45-74.138-17.818-97.536 12.544-18.534 23.962-18.688 55.962-3.226 80.026l-200.909 260.25 99.789-508.672c0 0 166.758 11.622 251.75-98.458l183.501 141.619c0 0-76.595 175.155-31.539 268.493l-466.79 225.382zM576.163 192.237l183.56 141.705 85.010-110.12-183.56-141.705-85.010 110.12zM596.179 90.52l256.838 198.242 28.311-36.68-256.838-198.242-28.311 36.68z" />
<glyph unicode="&#xe604;" d="M84.48 821.76l66.509 66.56 235.571-235.52 71.629 71.629 125.491-56.32-258.56-261.12-74.24 112.64 69.12 69.171-235.52 232.96zM757.709 453.12l89.6-61.44c13.722 22.221 26.522 43.571 38.4 64l-245.709 125.44-220.211-220.16 163.891-238.080c13.619 10.24 27.29 20.48 40.909 30.771l-79.309 102.4c11.878 6.81 22.989 14.49 33.178 22.989l87.091-92.16c10.189 8.55 20.48 17.050 30.72 25.6 10.189 10.24 21.299 21.35 33.28 33.28l-99.891 94.72 43.622 38.4 92.109-92.16c17.101 18.79 34.202 39.27 51.2 61.44l-86.989 74.24c10.189 10.189 19.61 20.429 28.109 30.72zM972.8 486.4c-10.291-20.48-21.299-40.090-33.28-58.88-15.411-23.91-28.979-46.080-41.011-66.56-13.619-17.050-25.6-34.15-35.789-51.2-18.79-22.221-37.478-43.571-56.32-64 0-1.741-1.69-3.43-5.12-5.171-11.981-13.619-23.091-25.6-33.28-35.789-11.981-10.24-23.091-20.48-33.28-30.771-11.878-8.55-22.989-17.92-33.28-28.16-13.619-11.93-28.979-23.91-46.080-35.84-13.619-10.24-28.109-19.661-43.52-28.16-16.998-11.93-34.099-22.221-51.2-30.72l-207.36 314.88 279.040 279.091 340.48-158.72z" />
<glyph unicode="&#xe605;" d="M387.021 577.331l-318.822 169.779 53.504-336.998zM401.306 180.224c79.002-25.293 167.885-17.613 243.507 30.106 136.090 85.709 176.896 265.574 91.085 401.562-85.709 136.090-265.626 176.845-401.613 91.136-48.896-30.822-85.248-73.984-108.032-122.675l-24.627 39.014-73.728-46.49c26.317 82.33 79.872 156.262 158.618 205.875 177.869 112.128 413.082 58.829 525.21-119.091 112.179-177.971 58.778-413.082-119.091-525.21-105.677-66.611-231.219-74.291-339.302-32.717l47.974 78.49z" />
<glyph unicode="&#xe606;" d="M551.578 577.331l318.822 169.779-53.504-336.998zM537.293 180.224c-79.002-25.293-167.885-17.613-243.507 30.106-136.090 85.658-176.896 265.523-91.085 401.51 85.709 136.090 265.626 176.845 401.613 91.136 48.845-30.822 85.197-73.984 107.981-122.675l24.627 39.117 73.728-46.49c-26.317 82.33-79.923 156.262-158.669 205.875-177.766 112.077-412.979 58.778-525.056-119.142-112.23-177.92-58.829-413.082 119.091-525.21 105.677-66.611 231.219-74.291 339.302-32.717l-48.026 78.49z" />
<glyph unicode="&#xe607;" d="M921.6 921.6l-188.621-248.371v-148.992h-109.466v148.992l-198.656 248.371h99.328l169.011-173.824 129.075 173.824h99.328zM245.555 711.885l129.741-231.834h-116.019v-275.968h386.355v107.674l220.774-129.638-220.774-143.565v110.387h-441.498v331.11h-102.042l143.462 231.834z" />
<glyph unicode="&#xe608;" d="M232.858 772.403l141.466-252.826h-126.464v-300.954h421.325v117.35l240.794-141.363-240.794-156.57v120.422h-481.536v361.114h-111.309l156.518 252.826zM950.579 892.774l-147.507-210.637 158.003-210.637h-94.874l-110.694 121.19-105.37-121.19h-89.446l142.080 210.637-131.635 210.637h89.754l94.618-157.952 105.37 157.952h89.702z" />
<glyph unicode="&#xe609;" d="M0 972.8h204.8v-204.8h-204.8v204.8zM204.8 768h204.8v-204.8h-204.8v204.8zM409.6 563.2h204.8v-204.8h-204.8v204.8zM614.4 358.4h204.8v-204.8h-204.8v204.8zM819.2 153.6h204.8v-204.8h-204.8v204.8zM819.2 563.2h204.8v-204.8h-204.8v204.8zM614.4 768h204.8v-204.8h-204.8v204.8zM819.2 972.8h204.8v-204.8h-204.8v204.8zM204.8 358.4h204.8v-204.8h-204.8v204.8zM409.6 153.6h204.8v-204.8h-204.8v204.8zM0 153.6h204.8v-204.8h-204.8v204.8zM0 563.2h204.8v-204.8h-204.8v204.8zM409.6 972.8h204.8v-204.8h-204.8v204.8z" />
<glyph unicode="&#xe60a;" d="M545.28 885.248c24.678-39.885 47.411-78.797 68.096-116.736 89.498-161.536 144.589-305.869 165.376-432.845l4.813-51.149c0-77.824-28.314-144.23-85.094-199.424-23.501-23.501-49.101-42.138-76.595-55.962-38.554-19.405-81.152-29.133-127.693-29.133s-89.088 9.728-127.693 29.133c-27.546 13.824-53.094 32.461-76.595 55.962-56.73 55.142-85.094 121.6-85.094 199.424 0 32.461 4.045 63.283 12.134 92.467 38.144 132.25 90.010 262.81 155.648 391.526 19.814 39.117 40.909 77.978 63.334 116.736 17.203 29.235 34.97 58.47 53.504 87.552 19.661-29.696 38.298-58.829 55.859-87.552zM424.909 768.512c-72.858-130.97-128.41-263.885-166.605-398.848-6.451-24.371-9.728-50.227-9.728-77.824 0-66.458 23.501-122.419 70.502-167.834 48.691-48.589 107.008-72.96 175.104-72.96 66.509 0 124.109 24.371 172.698 72.96 48.589 45.466 73.011 101.376 73.011 167.834l-4.915 43.776c-20.122 124.416-79.309 268.698-177.51 432.845-21.094 34.765-43.776 70.451-68.096 107.008-22.579-35.482-44.186-71.168-64.461-106.957z" />
<glyph unicode="&#xe60b;" d="M424.909 768.512c20.275 35.789 41.882 71.475 64.512 107.008 24.32-36.557 47.002-72.243 68.096-107.008 98.202-164.147 157.389-308.429 177.51-432.845l4.915-43.776c0-66.458-24.422-122.419-73.011-167.834-48.589-48.589-106.189-72.96-172.698-72.96-68.096 0-126.413 24.371-175.104 72.96-47.002 45.466-70.502 101.376-70.502 167.834 0 27.546 3.277 53.453 9.728 77.824 38.144 134.861 93.645 267.827 166.554 398.797zM297.216 294.246c0-53.453 19.456-98.918 58.419-136.141 38.861-38.912 85.914-58.419 141.107-58.419 53.402 0 99.686 19.507 138.598 58.419 40.499 37.274 60.826 82.688 60.826 136.141l-4.966 34.048c-19.507 123.238-85.914 269.158-199.424 437.811-84.326-132.966-146.739-269.158-187.29-408.576-4.864-19.456-7.27-40.602-7.27-63.283z" />
<glyph unicode="&#xe60c;" d="M297.216 294.246c0 22.682 2.406 43.776 7.322 63.232 40.55 139.469 102.963 275.661 187.29 408.576 113.51-168.653 179.917-314.573 199.424-437.811l4.915-34.048c0-53.453-20.275-98.918-60.826-136.141-38.912-38.912-85.197-58.419-138.598-58.419-55.194 0-102.246 19.507-141.107 58.419-38.963 37.274-58.419 82.739-58.419 136.192z" />
<glyph unicode="&#xe60d;" d="M409.6 768l-256-204.8 256-179.2zM409.6 512c358.4 0 358.4-307.2 358.4-307.2h102.4c-51.2 460.8-460.8 409.6-460.8 409.6z" />
<glyph unicode="&#xe60e;" d="M614.4 768l256-204.8-256-179.2zM614.4 512c-358.4 0-358.4-307.2-358.4-307.2h-102.4c51.2 460.8 460.8 409.6 460.8 409.6z" />
<glyph unicode="&#xe60f;" d="M102.4 870.4h153.6v-153.6h-153.6v153.6zM768 204.8h153.6v-153.6h-153.6v153.6zM768 870.4h153.6v-153.6h-153.6v153.6zM102.4 204.8h153.6v-153.6h-153.6v153.6zM460.8 512v-409.6h409.6v409.6h-409.6zM819.2 153.6h-307.2v307.2h307.2v-307.2zM153.6 819.2v-409.6h307.2v51.2h-256v307.2h307.2v-256h51.2v307.2z" />
<glyph unicode="&#xe610;" d="M460.8 563.2v-460.8h409.6v460.8h-409.6zM819.2 153.6h-307.2v358.4h307.2v-358.4zM409.6 204.8h153.6v-153.6h-153.6v153.6zM768 204.8h153.6v-153.6h-153.6v153.6zM768 614.4h153.6v-153.6h-153.6v153.6zM409.6 614.4h153.6v-153.6h-153.6v153.6zM102.4 512h153.6v-153.6h-153.6v153.6zM460.8 921.6h153.6v-153.6h-153.6v153.6zM102.4 921.6h153.6v-153.6h-153.6v153.6zM204.8 460.8v358.4h307.2v-256h51.2v307.2h-409.6v-460.8h307.2v51.2z" />
<glyph unicode="&#xe611;" d="M102.4 563.2v-563.2h563.2v563.2h-563.2zM563.2 102.4h-358.4v358.4h358.4v-358.4zM358.4 870.4v-204.8h409.6v-358.4h204.8v563.2z" />
<glyph unicode="&#xe612;" d="M665.6 870.4h-307.2v-819.2h307.2v819.2zM563.2 768v-614.4h-102.4v614.4h102.4zM768 512h256v-102.4h-256v102.4zM0 512h256v-102.4h-256v102.4z" />
<glyph unicode="&#xe613;" d="M102.4 614.4v-307.2h819.2v307.2h-819.2zM819.2 409.6h-614.4v102.4h614.4v-102.4zM460.8 972.8h102.4v-256h-102.4v256zM460.8 204.8h102.4v-256h-102.4v256z" />
<glyph unicode="&#xe614;" d="M665.6 921.6v-870.4h358.4zM563.2 921.6h51.2v-153.6h-51.2v153.6zM563.2 716.8h51.2v-153.6h-51.2v153.6zM102.4 51.2h409.6v870.4l-409.6-870.4zM460.8 102.4h-256l256 563.2v-563.2zM563.2 460.8h51.2v-153.6h-51.2v153.6zM563.2 204.8h51.2v-153.6h-51.2v153.6z" />
<glyph unicode="&#xe615;" d="M0 409.6h870.4v-409.6zM51.2 512h153.6v-51.2h-153.6v51.2zM256 512h153.6v-51.2h-153.6v51.2zM460.8 512h153.6v-51.2h-153.6v51.2zM665.6 512h153.6v-51.2h-153.6v51.2zM0 563.2h870.4v409.6l-870.4-409.6zM819.2 614.4h-563.2l563.2 256v-256z" />
<glyph unicode="&#xe616;" d="M51.2 870.4h870.4v-102.4h-870.4v102.4zM307.2 972.8h358.4v-102.4h-358.4v102.4zM716.8 768v-614.4h-460.8v614.4h-102.4v-716.8h665.6v716.8zM358.4 665.6h51.2v-409.6h-51.2v409.6zM460.8 665.6h51.2v-409.6h-51.2v409.6zM563.2 665.6h51.2v-409.6h-51.2v409.6z" />
<glyph unicode="&#xe617;" d="M358.4 563.2v-256h358.4v102.4h-256v153.6zM409.6 665.6l307.2-204.8v-102.4l-307.2 204.8h-51.2v102.4zM614.4 51.2h-358.4v512h153.6v102.4h-256v-716.8h563.2v460.8h-102.4zM563.2 870.4v-256h358.4v102.4h-256v153.6zM614.4 972.8l307.2-204.8v-102.4l-307.2 204.8h-51.2v102.4zM460.8 563.2v307.2h153.6v102.4h-256v-409.6zM819.2 716.8v-358.4h-102.4v-102.4h204.8v460.8z" />
<glyph unicode="&#xe618;" d="M332.8 921.6c98.97 0 179.2-68.762 179.2-153.6h51.2c0 113.101-103.168 204.8-230.4 204.8s-230.4-91.699-230.4-204.8h51.2c0 84.838 80.23 153.6 179.2 153.6zM512 512v-563.2h512v563.2h-512zM921.6 51.2h-307.2v358.4h307.2v-358.4zM0 768v-614.4h563.2v307.2h102.4v307.2h-665.6zM563.2 563.2h-460.8v102.4h460.8v-102.4zM665.6 358.4h204.8v-51.2h-204.8v51.2zM665.6 256h204.8v-51.2h-204.8v51.2zM665.6 153.6h204.8v-51.2h-204.8v51.2z" />
<glyph unicode="&#xe619;" d="M307.2 819.2l419.789-391.885-202.906-17.459 115.405-255.437-76.954-34.97-111.872 258.918-143.462-136.448v577.28z" />
<glyph unicode="&#xe61a;" d="M584.755 789.555c0-40.182-32.574-72.755-72.755-72.755s-72.755 32.574-72.755 72.755c0 40.182 32.574 72.755 72.755 72.755s72.755-32.574 72.755-72.755zM584.755 123.955c0-40.182-32.574-72.755-72.755-72.755s-72.755 32.574-72.755 72.755c0 40.182 32.574 72.755 72.755 72.755s72.755-32.574 72.755-72.755zM247.91 482.355c0-40.182-32.574-72.755-72.755-72.755s-72.755 32.574-72.755 72.755c0 40.182 32.574 72.755 72.755 72.755s72.755-32.574 72.755-72.755zM913.51 482.355c0-40.182-32.574-72.755-72.755-72.755s-72.755 32.574-72.755 72.755c0 40.182 32.574 72.755 72.755 72.755s72.755-32.574 72.755-72.755zM350.31 695.296c0-40.182-32.574-72.755-72.755-72.755s-72.755 32.574-72.755 72.755c0 40.182 32.574 72.755 72.755 72.755s72.755-32.574 72.755-72.755zM841.882 226.355c0-40.182-32.574-72.755-72.755-72.755s-72.755 32.574-72.755 72.755c0 40.182 32.574 72.755 72.755 72.755s72.755-32.574 72.755-72.755zM350.31 241.613c0-40.182-32.574-72.755-72.755-72.755s-72.755 32.574-72.755 72.755c0 40.182 32.574 72.755 72.755 72.755s72.755-32.574 72.755-72.755zM820.89 712.243c0-40.153-32.551-72.704-72.704-72.704s-72.704 32.551-72.704 72.704c0 40.153 32.551 72.704 72.704 72.704s72.704-32.551 72.704-72.704z" />
<glyph unicode="&#xe61b;" d="M993.28 686.080c-25.6-22.17-56.32-40.96-92.16-56.32v-273.92l-40.96-12.8v276.48c-29.030-5.12-60.621-6.81-94.72-5.12v33.28c49.51-3.379 87.91-1.69 115.2 5.12 32.41 8.55 69.939 30.72 112.64 66.56v-33.28zM655.36 519.68c49.51-97.28 81.101-157.030 94.771-179.2l-46.080 7.629-38.451 76.851c-8.55 13.67-20.48 38.4-35.84 74.24h-2.56c-8.55-15.36-19.661-32.41-33.28-51.2l-35.84-53.76-46.080 20.48 94.72 117.76-92.16 189.44 46.080-17.92 69.12-151.040h2.56l69.12 104.96c20.48-5.12 35.84-7.68 46.080-7.68-17.050-27.29-47.77-70.81-92.16-130.56zM348.16 744.96v-97.28c30.72-6.81 70.81-19.61 120.32-38.4v-33.28c-49.51 18.79-89.6 31.59-120.32 38.4v-110.080c25.6-6.81 70.81-22.221 135.68-46.080v-33.28c-64.87 25.6-122.88 43.52-174.080 53.76v309.76c44.39-8.55 99.84-25.6 166.4-51.2v-33.28c-39.27 15.36-81.92 29.030-128 40.96zM273.92 757.76c-34.15 1.741-65.69 0-94.72-5.12v-276.48l-38.4-10.24v273.92c-30.72-10.24-62.31-28.16-94.72-53.76v33.28c44.39 35.84 82.79 58.010 115.2 66.56 27.29 6.81 64.87 8.55 112.64 5.12v-33.28zM512 204.8c-102.4 87.040-192 126.31-268.8 117.76-58.010-6.81-108.39-40.090-151.040-99.84l-40.96 40.96c54.63 78.49 117.76 121.139 189.44 128 88.73 10.189 191.13-33.28 307.2-130.611 95.539-81.92 178.33-124.57 248.32-128 56.371 0 103.27 27.341 140.8 81.971l43.571-43.571c-49.51-75.059-111.821-110.899-186.88-107.52-80.23 0.051-174.131 47.002-281.651 140.851z" />
<glyph unicode="&#xe61c;" d="M358.4 921.6h614.4v-614.4h-614.4v614.4zM563.2 204.8v-102.4h-409.6v409.6h102.4v102.4h-204.8v-614.4h614.4v204.8z" />
<glyph unicode="&#xe61d;" d="M806.298 605.901c0.051 33.485-11.315 62.003-34.048 85.555-22.016 23.091-48.179 34.765-78.746 35.021-27.085 0-50.432-9.421-69.99-28.16-5.581-5.018-12.032-8.243-19.456-9.728-6.912-1.69-13.773-1.382-20.429 0.973-6.963 2.611-12.8 6.81-17.51 12.646-9.216 11.264-19.61 21.965-31.078 32.102v0.922c-42.138 38.605-93.645 57.754-154.624 57.344-61.133 0.102-113.306-19.302-156.57-58.317v0.973c-40.704-37.632-61.133-83.354-61.235-137.062 0.051-14.694 1.69-28.314 4.864-40.858 1.843-7.936 1.178-15.718-1.946-23.347-2.918-7.68-7.782-13.875-14.592-18.483-9.626-6.4-18.688-13.824-27.238-22.374h1.024c-32.922-33.843-49.459-74.035-49.613-120.525-0.051-46.387 16.077-85.914 48.589-118.579 25.549-25.293 54.682-41.216 87.501-47.718h1.997c7.27-1.894 15.053-2.816 23.296-2.918l535.757 3.891c39.885 4.506 74.547 20.992 104.038 49.613l0.973 1.024c35.533 32.205 53.35 71.68 53.453 118.579 0 47.258-17.818 87.757-53.453 121.498-15.821 14.694-32.666 25.702-50.534 33.075-8.55 3.533-15.053 9.37-19.456 17.51-4.403 8.294-5.683 17.050-3.891 26.214 1.997 10.394 2.97 20.787 2.918 31.13zM828.672 745.933c36.915-38.656 55.347-85.35 55.45-139.981-0.051-5.53-0.41-11.008-1.024-16.538 16.282-9.472 31.846-21.146 46.643-35.021 52.48-49.254 78.797-108.595 78.746-177.92 0.102-69.376-25.805-128.102-77.824-176.026l-0.973-1.024c-42.189-40.192-91.802-63.488-148.736-69.99-10.906-1.382-22.528-2.099-35.021-1.894-10.035 0.102-19.098 0.717-27.187 1.894l-482.304-3.891c-15.053 0-29.338 1.587-42.752 4.915h1.946c-47.565 9.114-89.702 32.102-126.413 69.018-47.872 47.718-71.834 105.421-71.987 173.107-0.102 67.482 23.552 125.85 71.014 175.002h0.973c5.683 5.683 11.52 11.213 17.51 16.538-1.331 10.701-2.048 22.067-1.997 34.048-0.051 75.93 28.774 140.442 86.528 193.485v0.922c57.958 51.814 127.642 77.773 209.152 77.824 81.613-0.358 150.63-26.624 207.104-78.746v0.922c4.71-4.301 9.267-8.858 13.568-13.619 27.494 16.845 58.317 25.293 92.416 25.293 52.429 0.256 97.485-19.149 135.168-58.317zM394.035 596.224c-9.062-1.28-18.79-9.677-29.184-25.293-10.394-16.845-17.51-31.744-21.35-44.749h-17.562v91.392h313.088v-91.392h-17.459c-5.222 12.954-13.005 27.853-23.347 44.749-10.342 15.565-20.122 23.962-29.133 25.293-5.222 0-11.059 0.666-17.562 1.946-7.731 0-14.182 0-19.405 0h-9.728v-254.771c0-5.222 0.666-9.677 1.997-13.619 2.56-3.891 6.451-7.117 11.674-9.677 3.84-1.28 9.677-2.611 17.51-3.891 6.451-1.28 12.288-2.611 17.459-3.891v-17.51h-178.944v17.51c3.891 0 9.728 0.614 17.51 1.997 7.782 1.178 13.568 2.509 17.51 3.789 5.171 2.611 9.062 5.888 11.674 9.779 1.28 3.789 1.946 8.397 1.946 13.619v256.666h-9.728c-5.222 0-11.674 0-19.456 0-6.502-1.331-12.339-1.946-17.51-1.946z" />
<glyph unicode="&#xe61e;" d="M178.074 794.214h1.024c56.576 50.893 124.826 76.339 204.698 76.39 80.23 0 148.173-25.498 203.674-76.39h-1.024c9.165-8.243 17.664-16.742 25.446-25.446 29.030 21.555 62.362 32.41 99.789 32.563 48.947 0.154 91.085-18.125 126.259-54.989 35.123-36.506 52.787-80.64 52.992-132.403 0.051-9.626-0.614-19.098-2.099-28.467 20.173-9.984 39.168-23.245 57.037-39.731 50.381-47.718 75.52-105.062 75.315-172.134-0.051-66.611-25.19-122.982-75.315-169.011l-1.075-1.024c-41.011-39.322-89.19-62.003-144.589-68.198h-1.997c-9.677-1.382-20.224-2.099-31.59-2.099-11.981-0.102-22.528 0.614-31.539 2.099l-502.016-4.096c-13.978 0.102-27.238 1.792-39.68 5.018l1.024-0.922c-45.926 8.909-86.682 31.386-122.214 67.226-46.080 45.875-69.171 101.581-69.274 166.912 0.102 65.28 23.194 121.651 69.274 169.062 8.448 8.55 17.254 16.384 26.522 23.45-2.662 13.773-3.994 28.365-4.096 43.776-0.307 73.882 27.546 136.704 83.456 188.416zM205.568 763.648h1.024c-47.36-43.315-71.117-95.949-71.322-157.85-0.154-17.152 1.587-33.126 5.069-47.872 1.331-4.147 1.331-8.243 0-12.237-1.69-4.198-4.403-7.578-8.090-10.138-11.162-7.27-21.709-15.77-31.59-25.498-38.093-39.424-57.139-86.272-57.037-140.595 0-54.221 18.995-100.301 57.037-138.496 29.696-29.286 63.59-47.616 101.837-54.989l1.024-1.024c9.216-2.202 19.098-3.226 29.542-3.021l505.139 3.994c1.024 0.205 1.997 0.205 3.021 0h52.992c1.075 0.205 1.997 0.205 3.021 0 46.029 5.376 86.17 24.422 120.218 57.088l1.024 1.024c41.574 37.99 62.259 84.378 62.106 139.52-0.154 55.194-21.197 102.4-63.078 141.568-18.483 17.562-38.195 30.771-59.034 39.731-4.506 1.843-7.936 4.915-10.189 9.165-2.355 4.198-3.021 8.602-2.048 13.21 2.611 12.237 3.891 24.474 4.045 36.659 0.205 40.602-13.363 75.264-40.704 103.885-27.29 28.365-59.904 42.65-97.741 42.752-33.894 0.154-63.027-11.418-87.603-34.662-2.918-2.918-6.298-5.018-10.189-6.093-3.789-0.717-7.475-0.358-11.162 1.024-3.738 1.587-6.758 3.942-9.216 7.168-9.882 12.544-21.146 24.371-33.536 35.635h-1.075c-47.821 44.186-106.189 66.253-175.309 66.253-69.53 0-128.922-22.016-178.176-66.202zM377.6 571.187c-10.803-17.613-18.33-33.28-22.374-46.848h-18.33v95.744h327.885v-95.744h-18.278c-5.376 13.517-13.568 29.184-24.474 46.848-10.854 16.282-21.043 25.139-30.566 26.47-5.376 0-11.52 0.666-18.33 2.048-8.090 0-14.899 0-20.326 0h-10.189v-266.803c0-5.376 0.614-10.189 2.048-14.285 2.714-3.994 6.758-7.424 12.237-10.086 4.096-1.382 10.189-2.816 18.33-4.096 6.758-1.382 12.902-2.816 18.278-4.096v-18.381h-187.341v18.381c4.045 0 10.189 0.717 18.33 1.997 8.141 1.382 14.234 2.816 18.33 4.096 5.376 2.816 9.523 6.195 12.186 10.189 1.331 4.096 2.048 8.806 2.048 14.285v268.8h-10.189c-5.427 0-12.186 0-20.378 0-6.81-1.382-12.902-2.048-18.33-2.048-9.472-1.382-19.712-10.189-30.566-26.47z" />
<glyph unicode="&#xe61f;" d="M592.384 940.8c17.050 0 22.221-11.878 15.36-35.789l-81.92-256c1.69 0 5.939 0 12.8 0l204.8 43.52c18.022 5.99 26.112 0.922 24.32-15.36l-303.36-691.2c-3.891-3.379-7.322-5.222-10.24-5.222l-33.28 5.222c-3.379 1.69-5.12 3.379-5.12 5.12v2.509l104.96 460.8c0 5.171 0.87 9.421 2.56 12.8l-71.629-15.36c-3.43 0-6.861-0.87-10.24-2.56l-153.6-28.16c-17.101-1.69-23.91 5.939-20.48 23.040l107.571 460.8c6.861 23.91 20.429 35.789 40.96 35.789h176.538z" />
<glyph unicode="&#xe620;" d="M307.2 247.859v622.541l498.074-311.296-311.296-93.338zM764.109 251.341l-105.728-65.741-226.662 311.296 124.518 62.208z" />
<glyph unicode="&#xe621;" d="M360.202 265.955c0-68.829 23.644-126.798 70.929-174.144 47.287-47.227 105.315-70.929 174.144-70.929h58.028c68.77 0 126.798 23.703 174.024 70.929 47.347 47.347 71.051 105.315 71.051 174.144v428.819h-548.175v-428.819zM295.752 540.013h-148.401l80.593-122.537-80.593-119.237h148.401v241.773zM1221.082 604.523l-96.732-177.324 93.613-193.468h-245.074c-8.642-73.092-38.765-135.499-90.252-187.046-60.309-60.249-133.338-90.313-219.271-90.313h-58.089c-86.052 0-159.141 30.063-219.271 90.313-51.606 51.549-80.593 113.956-87.072 187.046h-274.057l125.778 180.566-122.537 190.228h267.637v154.701h677.134v-154.762h248.194zM1050.177 427.197l61.269 112.815h-138.618v-241.833h141.859l-64.509 129.019zM681.005 465.843l135.499-4.8-104.833-83.832 37.087-133.819-114.435 80.651-116.116-77.41 43.506 128.958-111.195 85.452 137.059 4.8 46.747 127.397 46.686-127.397zM658.503 433.618l-24.184 66.069-24.184-66.069-69.31-1.621 58.028-43.506-4.8-11.284-17.763-53.226 58.089 38.765 58.028-40.326-16.201 54.789-1.5 11.284 54.727 43.506-70.929 1.621zM1046.996 955.99v-64.509h-851.278v64.509h851.278z" horiz-adv-x="1264" />
<glyph unicode="&#xe622;" d="M358.4 665.6c-13.67 11.93-27.29 14.49-40.96 7.68-61.44-44.39-129.69-186.88-204.8-427.52l-97.28 30.72c85.35 274.79 168.090 435.2 248.32 481.28 56.32 39.27 110.95 34.15 163.84-15.36 37.53-32.41 73.37-95.59 107.52-189.44 54.579-150.17 118.579-247.45 192-291.84 68.25-35.789 146.739-24.678 235.52 33.28l56.32-84.48c-128-83.61-241.51-96.41-340.48-38.4-95.539 49.51-175.77 164.71-240.64 345.6-25.6 73.37-52.070 122.88-79.36 148.48z" />
<glyph unicode="&#xe623;" d="M873.318 775.885h-55.859v-61.542h-61.542v-55.859h61.542v-67.072h55.859v67.072h67.123v55.859h-67.123v61.542zM797.85 337.050l47.514-22.374c-9.37-18.637-20.48-37.274-33.536-55.91l-44.749 27.955c9.318 16.845 19.61 33.587 30.771 50.33zM873.318 370.586l-50.278 19.558c5.581 13.056 11.213 27.034 16.742 41.933l53.094-13.978c-5.581-14.899-12.134-30.72-19.558-47.514zM1018.675 851.302v-338.176h-338.227v338.176h338.227zM6.912 736.768v226.355h226.355v-226.355h-226.355zM107.52 636.109h55.91c0-128.563 24.218-250.675 72.653-366.131l-50.278-22.323c-52.224 122.931-78.285 252.467-78.285 388.454zM233.267-43.059v226.406h226.355v-226.406h-226.355zM767.027 197.325c-18.534-18.586-37.171-36.301-55.859-53.094l-36.301 41.882c16.742 16.794 32.563 32.666 47.462 47.565l44.698-36.352zM621.773 147.046l30.771-47.565c-14.899-11.264-30.771-21.453-47.462-30.771-9.37-3.738-18.688-8.448-28.006-13.926l-25.139 50.278c18.586 9.318 36.25 19.507 53.146 30.771 5.53 3.738 11.059 7.475 16.691 11.213z" />
<glyph unicode="&#xe624;" d="M906.24 496.64h51.2c-0.051-185.6-53.811-308.89-161.28-369.971l-25.6 43.571c90.47 55.040 135.731 163.84 135.68 326.4zM1024 545.28h-207.36v207.36h207.36v-207.36zM56.32 715.52l51.2 2.56c11.52-245.555 67.84-406.426 168.96-482.56l-30.72-40.96c-113.92 80.896-177.101 254.515-189.44 520.96zM0 750.080v207.36h207.36v-207.36h-207.36zM698.88 343.040v-373.76h-373.76v373.76h373.76zM427.52 240.64v-168.96h168.96v168.96h-168.96zM473.6 130.56v51.2h76.8v-51.2h-76.8z" />
<glyph unicode="&#xe625;" d="M7.936 604.16v182.17l300.749-361.421v-179.302l-300.749 358.554zM1020.006 786.33v-176.384l-294.963-370.125v185.037l292.045 364.339 2.918-2.867zM395.418 436.429h234.24v-234.189h-234.24v234.189z" />
<glyph unicode="&#xe626;" d="M412.16 504.32h207.36v-207.36h-207.36v207.36zM24.474 479.949v143.77c97.894-73.83 195.686-126.157 293.478-157.030v-121.805c-0.973-0.205-1.946-0.205-2.918 0-96.922 26.112-193.741 71.117-290.56 135.066zM998.81 628.122v-145.254c-100.71-67.021-201.472-112.947-302.285-137.933-2.918-0.717-5.837-1.178-8.755-1.434v121.754c103.578 29.235 207.258 83.507 311.040 162.867z" />
<glyph unicode="&#xe627;" d="M907.52 616.96c-6.81 6.861-14.49 11.93-22.989 15.36-10.24 3.43-22.221 5.171-35.84 5.171h-33.28v-151.091h33.28c13.67 0 25.6 1.69 35.84 5.12 8.499 3.43 16.179 8.55 22.989 15.411 5.171 6.81 8.55 14.49 10.24 22.989 1.69 10.24 2.56 21.35 2.56 33.28s-0.87 22.221-2.56 30.72c-1.69 8.55-5.12 16.23-10.24 23.040zM656.64 755.2c-3.379 1.69-8.55 3.379-15.36 5.12-5.12 1.741-11.059 2.56-17.92 2.56-8.499 0-17.050-1.741-25.6-5.171-6.81-3.379-13.67-8.499-20.429-15.36-5.171-5.12-9.421-12.8-12.8-23.040-1.741-10.24-2.611-22.221-2.611-35.84 0-11.93 0.87-22.989 2.611-33.229 3.379-10.24 7.629-18.79 12.8-25.6 6.81-6.861 13.67-11.93 20.429-15.36 8.55-3.43 17.101-5.171 25.6-5.171 13.67 0 24.73 3.379 33.28 10.24 10.24 8.55 16.179 18.739 17.92 30.72h43.571c-1.741-11.93-5.171-22.989-10.24-33.229-5.171-10.24-11.93-17.971-20.48-23.040-8.499-6.861-17.92-11.93-28.16-15.36s-22.272-5.12-35.891-5.12c-15.36 0-29.85 2.611-43.52 7.68s-24.73 12.8-33.28 23.040c-8.499 10.24-15.36 22.221-20.48 35.84-5.12 15.36-7.68 31.539-7.68 48.589 0 18.79 2.56 35.021 7.68 48.64 5.12 15.36 11.981 28.16 20.48 38.4 8.55 10.24 19.661 17.971 33.28 23.040s28.16 7.68 43.52 7.68c11.93 0 23.040-1.741 33.28-5.171s19.61-8.499 28.16-15.36 15.36-14.49 20.48-23.040c6.81-8.499 11.059-18.739 12.8-30.72h-43.571c-1.69 5.12-3.379 10.24-5.12 15.36-3.328 5.222-7.629 9.523-12.749 12.902zM848.64 675.84c76.8 0 115.2-37.53 115.2-112.64 0-76.8-38.4-115.2-115.2-115.2h-74.24v227.84h74.24zM441.6 770.56c6.81-5.12 12.8-11.11 17.92-17.92 3.379-8.55 5.12-17.101 5.12-25.6 0-10.24-1.741-18.79-5.12-25.6-3.43-6.861-9.37-12.8-17.92-17.92 5.12-3.379 10.24-6.81 15.36-10.189 3.43-3.482 6.81-7.731 10.24-12.851 1.69-5.12 3.43-10.24 5.12-15.36s2.56-10.189 2.56-15.36c0-22.221-7.68-39.27-23.040-51.2-13.67-11.93-35.021-17.92-64-17.92h-87.040v227.84h81.92c11.93 0 23.040-1.741 33.28-5.171 10.24-1.638 18.79-5.888 25.6-12.749zM400.64 747.52c-5.12 1.741-11.93 2.611-20.48 2.611h-38.4v-51.2h40.96c13.67 0 23.91 1.69 30.72 5.12 5.12 3.379 7.68 10.24 7.68 20.48 0 3.379-0.87 6.81-2.56 10.189 0 3.43-1.69 5.99-5.12 7.68s-7.68 3.379-12.8 5.12zM428.8 642.56c-1.69 3.379-4.25 6.861-7.68 10.24-3.43 1.69-8.55 3.379-15.36 5.12-5.12 1.741-12.8 2.56-23.040 2.56h-40.96v-61.44h46.080c28.979 0 43.52 10.24 43.52 30.72 0 5.12-0.87 9.37-2.56 12.8zM177.92 686.080l92.16-227.84h-46.080l-25.6 64h-79.36l-23.040-64h-46.080l89.6 227.84h38.4zM185.6 558.080l-28.16 74.24-25.6-74.24h53.76zM1004.8 148.48l-74.24-69.171c-148.429 158.771-291.84 238.95-430.080 240.64-138.24-1.69-272.179-81.050-401.92-238.080l-79.36 66.611c155.29 186.010 315.75 277.299 481.28 273.92 163.84 3.379 331.981-87.91 504.32-273.92z" />
<glyph unicode="&#xe628;" d="M619.52 829.44c11.93 0 23.040-1.69 33.28-5.171 2.304-0.768 4.403-1.587 6.4-2.56 7.834-3.226 15.104-7.475 21.76-12.749 8.499-6.81 15.36-14.49 20.429-23.040 6.861-8.499 11.11-18.739 12.8-30.72h-43.469c-1.69 5.12-3.379 10.24-5.12 15.36-3.43 5.171-7.68 9.421-12.8 12.8-3.43 1.69-8.55 3.379-15.411 5.171-5.12 1.69-11.059 2.56-17.92 2.56-8.55 0-17.050-1.69-25.6-5.171-6.861-3.379-13.67-8.499-20.48-15.36-5.12-5.12-9.37-12.8-12.8-23.040-1.69-10.189-2.56-22.17-2.56-35.789 0-11.93 0.87-23.040 2.56-33.28 0.614-1.741 1.075-3.43 1.28-5.12 3.43-7.987 7.322-14.848 11.52-20.48 6.861-6.861 13.67-11.93 20.48-15.36 8.55-3.379 17.050-5.171 25.6-5.171 13.67 0 24.73 3.43 33.28 10.24 10.189 8.55 16.179 18.79 17.92 30.771h43.52c-1.69-11.93-5.12-23.040-10.189-33.28-5.171-10.24-11.93-17.92-20.48-23.040-8.55-6.861-17.92-12.032-28.16-15.411s-22.221-5.12-35.84-5.12c-15.36 0-29.85 2.56-43.52 7.629-13.67 5.171-24.73 12.851-33.28 23.091s-15.36 22.221-20.48 35.84c-1.126 3.328-1.997 6.81-2.56 10.24-3.379 12.237-5.12 25.037-5.12 38.4 0 18.739 2.56 34.97 7.68 48.589 5.12 15.411 11.93 28.211 20.48 38.451s19.661 17.971 33.28 23.040c13.67 5.12 28.16 7.68 43.52 7.68zM471.040 750.080c0-10.24-1.69-18.79-5.12-25.6s-9.37-12.8-17.92-17.92c5.12-3.379 10.24-6.81 15.36-10.24 3.379-3.379 6.81-7.629 10.24-12.8 1.126-3.43 2.406-6.81 3.84-10.24 0.256-1.741 0.666-3.43 1.28-5.12 1.69-5.12 2.56-10.24 2.56-15.36 0-22.221-7.68-39.27-23.040-51.2-13.67-11.93-35.021-17.92-64-17.92h-87.040v227.84h81.92c11.93 0 23.040-1.69 33.28-5.12 10.24-1.69 18.79-5.939 25.6-12.8 6.81-5.12 12.8-11.11 17.92-17.92 3.43-8.55 5.12-17.101 5.12-25.6zM407.040 770.56c-5.12 1.69-11.981 2.56-20.48 2.56h-38.4v-51.2h40.96c13.67 0 23.91 1.741 30.72 5.171 5.12 3.379 7.68 10.189 7.68 20.429 0 3.43-0.87 6.861-2.56 10.24 0 3.379-1.741 5.99-5.12 7.68-3.43 1.69-7.68 3.43-12.8 5.12zM427.52 675.84c-3.43 1.69-8.55 3.379-15.36 5.12-5.12 1.69-12.8 2.56-23.040 2.56h-40.96v-61.44h46.080c28.979 0 43.52 10.189 43.52 30.72 0 5.12-0.87 9.421-2.56 12.8-1.28 2.56-2.97 5.12-5.12 7.68-0.87 0.87-1.741 1.741-2.56 2.56zM801.229 719.36v-151.040l33.28-12.8c13.67-6.81 25.651-10.24 35.891-10.24 8.499 0 16.179 1.69 22.989 5.12 5.171 5.12 8.55 11.93 10.24 20.48 1.69 8.499 2.56 18.739 2.56 30.72 0 5.12 0 9.421 0 12.8 0 6.861-0.87 13.67-2.56 20.48-1.69 8.499-5.12 17.050-10.24 25.6-6.81 10.24-14.49 18.79-22.989 25.6-10.24 6.81-22.221 13.67-35.84 20.429l-33.331 12.851zM834.56 744.96c71.629-30.72 110.029-80.179 115.2-148.429 0-3.43 0-7.68 0-12.8 0-76.8-38.4-99.021-115.2-66.611l-74.24 28.16v227.84l74.24-28.16zM1004.8 208.64l-74.24-69.171c-147.302 158.362-290.253 238.541-428.8 240.64-137.472-2.355-271.872-82.125-403.2-239.36l-79.36 66.56c155.802 185.907 316.672 277.658 482.56 275.251 163.891 2.15 331.571-89.19 503.040-273.92zM184.32 737.28l84.48-189.44v-2.56c-1.69 0-3.379-1.741-5.12-5.171-11.93-3.379-23.859-8.499-35.84-15.36l-23.040 51.251-79.36-15.36-33.28-98.56-51.2-23.040 104.96 288v2.56l38.4 7.68zM192 609.28l-28.16 69.12-25.6-79.36 53.76 10.24z" />
<glyph unicode="&#xe629;" d="M338.432 691.2l40.96 5.12c13.67 1.741 23.040 4.301 28.16 7.68 5.12 5.12 7.68 12.8 7.68 23.040 0 3.379-1.69 5.939-5.12 7.629-1.69 3.482-3.43 6.042-5.12 7.731-3.43 1.69-7.68 3.379-12.8 5.12-6.81-1.69-13.67-2.56-20.48-2.56l-38.4-5.12 5.12-48.64zM369.152 785.92c11.93 1.741 23.040 0.819 33.28-2.56 10.24-1.69 19.61-5.12 28.16-10.24 6.81-3.379 12.8-8.499 17.92-15.36 5.12-8.499 8.55-17.050 10.24-25.6 0-10.24-1.69-18.739-5.12-25.6-3.43-6.81-7.68-14.49-12.8-23.040 5.12 0 10.24-1.69 15.36-5.12 3.379-3.379 7.68-6.861 12.8-10.24 1.69-5.12 3.379-10.24 5.12-15.36 3.43-5.12 5.12-10.24 5.12-15.36 1.69-22.17-4.25-40.090-17.92-53.76-11.93-13.67-32.41-22.221-61.44-25.6l-87.040-10.24-25.6 227.84 81.92 10.24zM343.552 652.8l5.12-61.44 46.080 5.171c29.030 3.379 42.65 15.36 40.96 35.789 0 5.171-1.69 9.421-5.12 12.8-1.741 3.43-4.25 6.81-7.68 10.24-3.379 0-8.55 0.87-15.36 2.56-6.81 0-14.49 0-23.040 0l-40.96-5.12zM61.952 680.96l204.8-135.629-40.96-28.211-56.32 40.96-64-46.080 15.36-66.56-38.4-25.6-53.76 238.080 33.28 23.040zM95.232 550.4l43.52 30.72-64 43.52 20.48-74.24zM719.872 755.2c8.55-6.861 14.541-15.36 17.971-25.6s5.939-20.48 7.629-30.72l-43.52 5.12c0 5.12-1.69 10.24-5.12 15.36-1.741 3.379-4.301 7.68-7.68 12.8-5.12 3.379-10.24 5.99-15.36 7.68-5.171 3.379-11.11 5.12-17.971 5.12-8.499 1.69-17.050 0.87-25.6-2.56-8.499-1.69-16.179-5.939-22.989-12.8-5.12-5.12-10.24-12.8-15.36-23.040-3.379-8.499-5.939-19.61-7.629-33.229-1.69-11.93-1.69-23.040 0-33.28s5.12-19.661 10.24-28.16c3.379-6.861 9.37-12.8 17.92-17.971 6.861-3.379 15.36-5.939 25.6-7.629 13.67-1.69 24.73 0.87 33.28 7.629 10.189 6.861 17.92 16.23 22.989 28.211l43.52-5.171c-3.379-11.93-8.55-23.040-15.36-33.229-6.861-8.55-14.541-16.23-23.040-23.040-10.24-3.379-20.48-6.861-30.771-10.24-11.93-1.69-23.859-1.69-35.789 0-15.36 1.638-29.901 5.888-43.52 12.749-11.93 6.861-22.221 16.179-30.72 28.16-6.861 10.24-11.93 23.040-15.36 38.4-3.379 15.36-4.25 31.59-2.56 48.64 3.379 18.739 8.55 35.021 15.36 48.64 6.81 13.67 14.49 25.6 22.989 35.84 10.24 6.81 23.040 12.8 38.4 17.92 13.67 3.379 28.211 4.25 43.571 2.56 11.93-1.69 23.040-4.25 33.229-7.629 8.602-5.171 17.152-11.981 25.651-20.531zM906.752 517.12c6.861 1.741 14.49 6.861 23.040 15.411 6.81 6.81 12.8 15.36 17.92 25.6 6.861 10.189 11.11 20.429 12.8 30.669 1.69 6.861 2.56 14.49 2.56 23.040-1.69 10.24-5.939 17.92-12.8 23.040-6.81 8.499-16.179 16.179-28.16 22.989l-28.16 15.411-74.24-130.56 28.16-15.36c11.93-6.81 23.040-11.11 33.28-12.8 10.24 0 18.739 0.819 25.6 2.56zM760.832 532.48l112.589 197.12 66.611-38.4c66.56-37.53 81.050-88.73 43.52-153.6-37.53-66.56-89.6-81.050-156.16-43.52l-66.56 38.4zM1011.712 176.64l-74.24-69.12c-148.48 158.72-291.84 238.95-430.080 240.64-138.24-1.69-272.23-81.050-401.92-238.029l-79.36 66.56c155.341 186.010 315.75 277.299 481.28 273.92 163.84 3.328 331.981-87.962 504.32-273.971z" />
</font>
</defs>
</svg>
