<svg xmlns="http://www.w3.org/2000/svg" xmlns:xlink="http://www.w3.org/1999/xlink" version="1.1" id="Layer_1" x="0px" y="0px" viewBox="0 0 864 864" enable-background="new 0 0 864 864" xml:space="preserve" width="864" height="864">
<g>
	<path fill="#4EB76C" d="M645.8,144.6h-31.3l8.9-50.3h6.2l-8,45.6h25L645.8,144.6z"/>
	<path fill="#4EB76C" d="M690.6,144.6h-7l-3.1-16.2h-18l-8.6,16.2h-6.8l26.7-50.3h7.2L690.6,144.6z M679.9,123l-3.9-20.4L665.1,123   H679.9z"/>
	<path fill="#4EB76C" d="M717.1,144.6h-19.7l8.9-50.3H725c4.7,0,8.3,1,10.8,3.1c2.5,2.1,3.4,5.2,2.6,9.5c-0.8,4.3-3.2,7.5-7.4,9.6   c-0.1,0-0.1,0.1-0.1,0.1l0,0.1c2.4,1,4.2,2.5,5.5,4.6c1.3,2.1,1.7,4.9,1.1,8.3c-0.5,3-1.8,5.8-3.8,8.2   C730.2,142.4,724.6,144.6,717.1,144.6z M708.9,114.9H720c6.8,0,10.6-2.6,11.5-7.9c0.9-5.1-2.1-7.7-9-7.7h-11L708.9,114.9z    M704.5,139.8h12c3.9,0,7-0.7,9.4-2.2c2.4-1.5,4-4,4.6-7.5c0.6-3.5,0-6.1-1.9-7.7c-1.9-1.6-4.4-2.4-7.4-2.4H708L704.5,139.8z"/>
	<path fill="#4EB76C" d="M743.4,131.8l6.6-0.4c-0.1,2.4,0.9,4.5,3.1,6.3c2.2,1.8,5.3,2.7,9.3,2.7c4,0,7.5-0.8,10.4-2.3   c2.9-1.6,4.6-3.8,5.1-6.8c0.4-2.2-0.1-4.1-1.4-5.6c-1.3-1.6-3.2-2.7-5.4-3.6c-2.3-0.8-4.8-1.7-7.5-2.7c-2.7-1-5.2-1.9-7.4-2.8   c-2.3-0.9-4-2.3-5.3-4.1c-1.3-1.8-1.7-4-1.3-6.5c0.6-3.4,2.8-6.3,6.6-8.7c3.8-2.4,8.8-3.7,15.1-3.7c4.8,0,8.9,0.7,12.3,2.2   c0,0.1-0.9,1.7-2.8,4.9c-3.4-1.3-6.9-1.9-10.7-1.9c-3.8,0-6.9,0.7-9.5,2c-2.5,1.3-4,3.2-4.4,5.5c-0.5,2.8,1.3,5,5.5,6.6   c1.8,0.7,3.9,1.4,6.1,2.1c2.2,0.7,4.4,1.5,6.6,2.3c2.2,0.9,4.1,1.8,5.8,2.9c1.7,1.1,3.1,2.6,4,4.3c0.9,1.8,1.1,3.9,0.7,6.2   c-0.8,4.4-3.1,8-6.9,10.6c-3.9,2.7-9.1,4-15.8,4c-6.7,0-11.6-1.4-14.7-4.1C744.2,138.5,742.9,135.4,743.4,131.8z"/>
</g>
<g>
	<path fill="#4EB76C" d="M851.4,116c-1.5-10.5-11-20.2-21.4-22.4l-0.1-0.1l0-14.6c1.6,0.2,3.1-0.2,3.8-1.6c0.5-1.4,0.6-3.4-0.1-4.7   c-0.5-0.7-1.3-1.3-2.1-1.4l-17.3,0c-0.4,0.1-0.8,0.1-1.1,0.3c-0.9,0.5-1.6,1.4-1.7,2.5c0.1,1.4-0.3,2.9,0.8,4c0.8,1,2,1.2,3.3,1   l0.1,0.1v14.5l-0.1,0.1c-1.9,0.4-3.7,1.1-5.5,1.9c-10.1,4.6-17.2,15.1-16.4,26.4c0.3,10.8,8.6,20.6,18.3,24.3   c8,3.4,18.8,2.3,26-2.2C847.7,138,853.3,127.5,851.4,116z M848.4,128.7c-3.2,9.4-13,16.6-22.7,17.4c-11.5,1.3-22.6-4.8-27.7-14.9   c-3.7-6.8-3.2-17.2,1.1-23.7c4.2-6.6,10.9-11.1,18.4-12.4l0.1-0.1l-0.1-3.9l0-13.9l-3.3-0.1c-0.3-0.1-0.6-0.4-0.8-0.7   c0-1.2-0.6-2.7,0.8-3.3l0.3-0.1l16.8,0c0.4,0.1,0.7,0.4,0.9,0.8c0,1.1,0.6,2.7-0.7,3.2c-1,0.1-2.2,0.1-3.3,0.1v18   c8.6,1.7,17,8.2,20,16.5C850.3,116.6,850.4,123.4,848.4,128.7z"/>
	<path fill="#4EB76C" d="M824.6,103.6c-0.4-0.6-0.9-1-1.5-1.3c-1.2-0.6-2.8-0.4-3.8,0.3c-1.2,0.8-1.7,2.4-1.4,3.9   c0.3,1.3,1.5,2.4,2.8,2.6c1.5,0.2,3-0.3,3.9-1.6C825.3,106.3,825.3,104.7,824.6,103.6z M822.9,106.6c-0.5,0.7-1.3,0.8-2.1,0.6   c-0.6-0.2-1.1-0.8-1.2-1.4c-0.2-0.7,0.2-1.5,0.8-1.8c1-0.6,2.3-0.1,2.8,0.9C823.3,105.6,823.3,106.1,822.9,106.6z"/>
	<path fill="#4EB76C" d="M825.7,83.6c-1-1-2.4-1.5-3.8-1c-1.1,0.4-1.8,1.3-2.1,2.3c-0.3,1.5,0.3,2.8,1.5,3.6   c0.9,0.6,2.1,0.6,3.1,0.2c0.9-0.3,1.8-1.3,2-2.2C826.6,85.6,826.4,84.4,825.7,83.6z M824.4,86.5c-0.5,0.6-1.2,0.9-1.9,0.6   c-0.5-0.2-1-0.7-1-1.4c0-0.5,0.3-1,0.8-1.3c0.7-0.5,1.8-0.2,2.2,0.6C824.8,85.5,824.7,86.1,824.4,86.5z"/>
	<path fill="#4EB76C" d="M829.8,98.3c-0.6-0.9-1.6-1-2.4-1c-0.9,0.1-1.9,0.7-2.2,1.6c-0.4,0.7-0.2,1.8,0.2,2.5   c0.6,0.9,1.5,1.2,2.5,1.2c1,0,1.8-0.6,2.3-1.5C830.5,100.2,830.4,99,829.8,98.3z M828.3,100.5c-0.2,0.2-0.4,0.2-0.6,0.2   c-0.3,0-0.6-0.2-0.8-0.4c-0.2-0.3,0-0.6,0.1-0.8c0.2-0.2,0.4-0.3,0.6-0.3c0.4,0,0.7,0.2,0.9,0.5C828.5,100,828.5,100.3,828.3,100.5   z"/>
	<path fill="#4EB76C" d="M843.6,112.8l-41.7,0c-1.1,2.8-1.4,6.3-1.1,9c0.6,8.1,7.1,15.6,14.9,18c8.1,2.8,17.1,0.5,23-5.4   C844.4,128.9,846.4,120.2,843.6,112.8z M820.7,125.3c-0.8,1.2-2.2,1.6-3.6,1.4c-1.2-0.2-2.3-1.3-2.6-2.5c-0.2-1.2,0.1-2.5,1-3.3   c0.8-0.9,2-1,3.1-0.8c0.9,0.3,1.7,0.8,2.1,1.6C821.5,122.7,821.4,124.2,820.7,125.3z M834.3,118.6c-0.6,0.8-1.6,1-2.5,0.8   c-0.8-0.2-1.5-0.9-1.7-1.7c-0.1-0.7,0-1.5,0.6-2c0.6-0.6,1.5-0.7,2.4-0.5c0.5,0.2,1,0.4,1.3,0.9   C834.8,116.8,834.8,117.9,834.3,118.6z"/>
</g>
<g>
	<path fill="#333333" d="M28.9,129.3c-0.4,1.8-0.5,3-0.2,3.6c0.3,0.5,1.2,0.8,2.7,0.8h51.1c1,0,1.7,0.3,2.1,0.8   c0.5,0.5,0.6,1.2,0.3,2.1l-1.4,6.3c-0.3,1.7-1.5,2.6-3.7,2.6H28.1c-4.1,0-7.4-0.3-10-1c-2.6-0.6-4.6-1.7-5.9-3.2   c-1.4-1.5-2.2-3.5-2.5-6c-0.3-2.5,0-5.6,0.8-9.3l8.2-37.3c0.8-3.8,1.9-6.9,3.2-9.3c1.3-2.5,3-4.5,5-6c2-1.5,4.5-2.6,7.4-3.2   c2.9-0.6,6.3-1,10.4-1h51.3c0.8,0,1.5,0.3,2,0.8c0.5,0.5,0.7,1.2,0.6,1.9l-1.3,5.5c-0.2,1-0.8,2-1.6,2.7c0,0,0,0,0,0   C95,80.7,94.3,81,93.5,81H43c-1.5,0-2.5,0.3-3.1,0.8c-0.5,0.5-1,1.7-1.4,3.6L28.9,129.3z"/>
	<path fill="#4EB86D" d="M97.4,145.8c-1,0-1.7-0.3-2.1-0.9c-0.5-0.6-0.6-1.3-0.3-2l1.6-6.9c0.1-0.7,0.5-1.3,1.2-1.9   c0.7-0.5,1.4-0.8,2.2-0.8l60.5,0.1c1.5,0,2.5-0.3,3.1-0.8c0.5-0.5,1-1.7,1.4-3.6l8.2-37.1c0.3-0.7,0.7-1.4,1.4-1.9   c0.7-0.5,1.4-0.8,2.2-0.8h12.7c1,0,1.7,0.3,2.1,0.8c0.5,0.5,0.6,1.2,0.3,1.9l-7.4,33.8c-0.8,3.8-1.9,6.9-3.2,9.4   c-1.3,2.5-3,4.6-5,6.1c-2,1.6-4.5,2.7-7.4,3.3c-2.9,0.6-6.3,1-10.4,1L97.4,145.8z M109.3,79.2c1.2-2.5,2.9-4.5,4.9-6   c2-1.5,4.5-2.6,7.5-3.2c2.9-0.6,6.4-1,10.5-1l55.6,0.1c0.8,0,6.6,0,7.4,0.3c1.2,0.4,1.4,0.9,1.2,2.6l-1.7,7.8   c-0.1,1.2-1.4,0.9-5.6,0.9l-58.7,0.1c-1.5,0-2.5,0.3-3.1,0.8c-0.5,0.5-1,1.7-1.4,3.6l-8.2,37.6c-0.3,0.7-0.7,1.4-1.3,1.9   s-1.3,0.8-2.1,0.8h-12.9c-1,0-1.7-0.3-2.2-0.8c-0.5-0.5-0.7-1.2-0.4-1.9l7.6-34.3C107,84.8,108,81.7,109.3,79.2z"/>
	<path fill="#333333" d="M226.9,81.7c-0.5,0.5-1,1.7-1.4,3.6l-9.6,44.2c-0.4,1.8-0.5,3-0.2,3.6c0.3,0.5,1.2,0.8,2.7,0.8h84.5   c0.8,0,1.5,0.3,1.9,0.8c0.5,0.5,0.6,1.2,0.5,1.9l-1.4,6.3c-0.1,0.7-0.6,1.4-1.3,1.9c-0.8,0.5-1.5,0.8-2.4,0.8H215   c-4.1,0-7.4-0.3-10-1c-2.6-0.6-4.6-1.7-5.9-3.2c-1.4-1.5-2.2-3.5-2.5-6c-0.3-2.5,0-5.6,0.8-9.3l8.2-37.6c0.8-3.8,1.9-6.9,3.2-9.3   c1.3-2.5,3-4.5,5-6c2-1.5,4.5-2.6,7.5-3.2c2.9-0.6,6.4-1,10.5-1l27.6,0.1c1,0,1.7,0.3,2.2,0.8c0.5,0.5,0.7,1.2,0.4,1.9l-1.4,6.3   c-0.3,0.7-0.7,1.4-1.3,1.9c-0.6,0.5-1.4,0.8-2.4,0.8l-27-0.1C228.4,80.9,227.4,81.1,226.9,81.7z M285.2,31c0.1-0.7,0.5-1.4,1.2-2.1   c0.7-0.7,1.5-1,2.5-1h12.9c1,0,1.7,0.3,2.1,1c0.5,0.7,0.6,1.4,0.3,2.1l-19,87.9c-0.3,0.7-0.8,1.4-1.4,1.9c-0.7,0.5-1.4,0.8-2.2,0.8   h-13.1c-0.8,0-1.5-0.3-2-0.8c-0.5-0.5-0.7-1.2-0.4-1.9L285.2,31z"/>
	<path fill="#333333" d="M355.1,109.6c-1,0-1.7-0.3-2.1-0.8c-0.5-0.5-0.6-1.2-0.3-1.9l1.2-6.3c0.3-0.7,0.7-1.4,1.4-1.9   c0.7-0.5,1.4-0.8,2.2-0.8h36.2l2.7-12.4c0.4-1.8,0.4-3,0.1-3.6c-0.3-0.5-1.3-0.8-2.8-0.8h-84.2c-0.8,0-1.5-0.3-2-0.8   c-0.5-0.5-0.7-1.2-0.4-1.9l1.4-6.3c0.1-0.7,0.5-1.4,1.2-1.9c0.7-0.5,1.4-0.8,2.2-0.8H397c4.1,0,7.4,0.3,10,1c2.6,0.6,4.6,1.7,6,3.2   c1.4,1.5,2.2,3.5,2.5,6s-0.1,5.6-0.9,9.3l-3.9,18.1c-0.3,0.7-0.8,1.4-1.4,1.9c-0.7,0.5-1.4,0.8-2.2,0.8H355.1z M337.9,129.6   c-0.4,1.8-0.5,3-0.2,3.6c0.3,0.5,1.2,0.8,2.7,0.8h61.8c0.8,0,1.5,0.3,1.9,0.8c0.5,0.5,0.6,1.2,0.5,1.9l-1.4,6.3   c-0.1,0.7-0.6,1.4-1.3,1.9c-0.8,0.5-1.5,0.8-2.4,0.8h-62.4c-4.1,0-7.4-0.3-10-1c-2.6-0.6-4.6-1.7-6-3.2c-1.4-1.5-2.2-3.5-2.5-6   c-0.2-2.5,0.1-5.6,0.9-9.3l7.4-34c0.3-0.7,0.7-1.4,1.4-2.1c0.7-0.7,1.4-1,2.2-1h12.9c1,0,1.7,0.3,2.1,1c0.5,0.7,0.6,1.4,0.3,2.1   L337.9,129.6z"/>
	<path fill="#333333" d="M488.4,98.8c4,0,7.3,0.3,9.9,1c2.7,0.6,4.7,1.7,6.1,3.2c1.4,1.5,2.2,3.5,2.5,6c0.2,2.5-0.1,5.6-0.9,9.3   l-3.1,13.7c-1,4.5-3.2,7.9-6.6,10.2c-3.5,2.3-9,3.5-16.7,3.5H398c-0.8,0-1.5-0.3-2-0.8c-0.5-0.5-0.7-1.2-0.4-1.9l1.4-6.3   c0.1-0.7,0.5-1.4,1.2-1.9c0.7-0.5,1.5-0.8,2.5-0.8h80.6c1.5,0,2.5-0.3,3.1-0.8c0.5-0.5,1-1.7,1.4-3.6l2-9.6c0.4-1.8,0.5-3,0.2-3.6   c-0.3-0.5-1.2-0.8-2.7-0.8h-39.1c-4.1,0-7.4-0.3-10-1c-2.6-0.6-4.6-1.7-6-3.2c-1.4-1.5-2.2-3.5-2.5-6c-0.2-2.5,0.1-5.6,0.9-9.3   l1.6-7.6c0.8-3.8,1.9-6.9,3.2-9.3c1.3-2.5,3-4.5,5-6c2-1.5,4.5-2.6,7.5-3.2c2.9-0.6,6.4-1,10.5-1h82.2c0.8,0,1.5,0.3,1.9,0.8   c0.5,0.5,0.6,1.2,0.5,1.9l-1.4,6.2c-0.3,0.7-0.8,1.4-1.4,1.9c-0.7,0.5-1.4,0.8-2.2,0.8l-81.4,0.1c-1.5,0-2.5,0.3-3.1,0.8   c-0.5,0.5-1,1.7-1.4,3.6l-2,9.2c-0.4,1.8-0.5,3-0.2,3.6c0.3,0.5,1.2,0.8,2.7,0.8H488.4z"/>
	<path fill="#333333" d="M585.9,69.7c0.5,0.5,0.7,1.2,0.4,1.9l-1.4,6.5c-0.3,0.7-0.7,1.4-1.3,1.9c-0.6,0.5-1.4,0.8-2.4,0.8h-24.1   l-10.4,48.1c-0.4,1.8-0.5,3-0.2,3.6c0.3,0.5,1.2,0.8,2.7,0.8h44.2c0.8,0,1.5,0.3,2,0.8c0.5,0.5,0.7,1.2,0.6,1.9l-1.4,6.3   c-0.3,0.7-0.8,1.4-1.5,2.1c-0.8,0.7-1.5,1-2.4,1h-45c-5.6,0-9.8-0.4-12.6-1.1c-2.8-0.7-4.7-1.9-5.6-3.4c-1-1.6-1.3-3.6-0.9-6.2   c0.3-2.6,0.9-5.6,1.7-9.2l9.8-44.8h-12.9c-0.8,0-1.5-0.3-2-0.8c-0.5-0.5-0.7-1.2-0.4-1.9l1.4-6.5c0.1-0.7,0.5-1.4,1.2-1.9   c0.7-0.5,1.4-0.7,2.4-0.7l13,0.1l8.2-38.7c0.3-0.7,0.7-1.4,1.4-1.9c0.7-0.5,1.4-0.8,2.2-0.8h13.3c0.7,0,1.3,0.2,1.7,0.6   c0.5,0.4,0.7,0.8,0.7,1.3l-8.6,39.3h24.1C584.7,68.8,585.4,69.1,585.9,69.7z"/>
	<path fill="#333333" d="M614.3,80.5l-13.5,62.2c-0.1,0.7-0.5,1.4-1.2,1.9c-0.7,0.5-1.5,0.8-2.5,0.8h-12.9c-0.8,0-1.5-0.3-1.9-0.8   c-0.5-0.5-0.6-1.2-0.5-1.9l15.5-71.1c0.3-0.7,0.7-1.4,1.3-1.9s1.3-0.8,2.1-0.8h50.1c0.8,0,1.5,0.3,2,0.9c0.5,0.6,0.7,1.3,0.4,2   l-1.4,6.2c-0.3,0.7-0.8,1.4-1.4,1.9c-0.7,0.5-1.4,0.8-2.2,0.8H614.3z"/>
</g>
</svg>