<?xml version="1.0" encoding="utf-8"?>
<svg version="1.1" id="Layer_1" xmlns="http://www.w3.org/2000/svg" xmlns:xlink="http://www.w3.org/1999/xlink" x="0px" y="0px"
	 width="50px" height="50px" viewBox="0 0 50 50" enable-background="new 0 0 50 50" xml:space="preserve">
<path fill="#666" d="M13.835,40.01c-0.916,0-1.835-0.313-2.588-0.951c-1.684-1.43-1.889-3.955-0.459-5.638L17.939,25l-7.151-8.42
	c-1.43-1.684-1.225-4.208,0.459-5.638c1.684-1.429,4.209-1.224,5.639,0.459l9.35,11.01c1.27,1.493,1.27,3.686,0,5.179l-9.35,11.01
	C16.095,39.531,14.968,40.01,13.835,40.01z M29.86,38.6l9.352-11.01c1.269-1.493,1.269-3.687,0-5.179L29.86,11.4
	c-1.43-1.684-3.954-1.888-5.638-0.459c-1.684,1.43-1.889,3.955-0.459,5.638L30.914,25l-7.151,8.42
	c-1.43,1.684-1.225,4.208,0.459,5.638c0.753,0.64,1.671,0.951,2.587,0.951C27.942,40.01,29.069,39.531,29.86,38.6z"/>
</svg>
