<svg width="289.95px" height="214.95px" viewBox="0 0 289.95 214.95" xmlns="http://www.w3.org/2000/svg" xmlns:xlink="http://www.w3.org/1999/xlink">
  <defs/>
  <g>
    <path stroke="none" fill="#8cd3c2" d="M159.25 109.35 Q159.55 107 160.15 106.5 160.65 106 161.3 106.1 161.9 106.2 162.3 106.7 162.6 107.5 162.3 109.85 L159.25 109.35 M159.05 105 Q157.75 106 157.2 110.15 156.5 114.1 157.5 115.45 158.15 116.55 159.75 116.75 161.15 117.05 162.2 116.25 163.3 115.25 163.5 113.8 L161.6 113.5 Q161.5 114.5 161.05 114.8 160.65 115.25 159.95 115.05 159.25 114.95 158.95 114.4 158.55 113.8 158.95 110.85 L163.9 111.5 Q164.7 107.1 163.8 105.7 163.1 104.7 161.5 104.4 159.95 104.25 159.05 105 M153.95 105.4 Q154.3 105.9 154.1 106.9 L155.9 107.2 Q156.2 105.5 155.4 104.3 154.6 103.35 153.25 103.15 151.55 102.95 150.5 103.85 149.5 104.8 148.9 108.75 148.2 112.9 148.9 114 149.6 115.25 151.25 115.45 152.85 115.65 153.75 114.95 154.8 114.2 155.1 112.5 L153.25 112.1 Q153.25 113.1 152.65 113.5 L151.55 113.8 Q150.85 113.8 150.55 113.1 150.2 112.2 150.65 109.05 151.25 105.7 151.75 105.1 152.15 104.8 152.95 104.8 153.55 104.8 153.95 105.4 M174.85 92.3 L195.05 95.95 195.15 96.45 Q195.35 97.9 196.65 98.9 197.8 99.8 199.5 99.6 200.95 99.4 201.95 98.1 L202.35 97.3 217.85 100.2 216.55 110.75 Q213.4 113.8 208.35 114.2 L204.3 114.4 Q191.4 114.4 183.2 107.5 176.3 101.75 174.85 92.3 M178.5 113.3 Q183.4 117.45 190.2 119.7 196.8 122 204.3 122 L209.05 121.7 Q212.4 121.3 215.25 120.3 L213.4 133.9 202.65 139.55 158.95 133.7 158.95 130.55 Q158.95 130.05 158.55 129.85 158.05 129.55 157.65 129.85 L152.95 132.9 8.35 113.8 8.85 61.9 166.95 90.9 Q168.35 104.9 178.5 113.3 M56.2 94.95 L57.3 95.15 56.9 97.4 Q56.6 99.3 55.1 99 53.75 98.7 54.05 96.75 54.15 95.65 54.8 95.15 L56.2 94.95 M69.8 90.7 L67.95 90.4 66.05 102.15 67.95 102.45 69.8 90.7 M46.75 86.85 L44.85 86.65 43.4 95.45 Q43.2 97.05 43.8 98 44.45 99.1 45.75 99.2 L47.05 99.1 47.8 98.4 47.7 99.4 49.5 99.6 51.35 87.65 49.5 87.35 48.1 96.15 Q47.8 97.8 46.55 97.6 45.15 97.4 45.25 95.75 L46.75 86.85 M37.45 83.1 Q37.95 82.75 38.85 82.85 39.85 82.95 40.15 83.6 40.7 84.7 39.95 89.75 39.35 93.85 38.75 94.85 L37.85 93.95 36.85 94.85 37.75 95.95 36.85 96.05 Q36.1 95.95 35.6 95.25 35.1 94.15 35.9 89.15 36.7 84 37.45 83.1 M39.25 81.05 Q37.45 80.65 36.2 81.75 35.3 82.45 34.8 84.1 34.4 85.4 33.9 88.75 33.3 92.3 33.3 93.6 33.3 95.25 34 96.25 34.9 97.5 36.6 97.8 L39.05 97.5 40.25 98.7 41.4 97.7 40.25 96.45 Q41.1 95.25 41.9 90.05 L42.4 85.3 Q42.5 83.6 41.8 82.65 41.1 81.25 39.25 81.05 M65.2 85.2 L63.2 84.9 61.35 97.9 Q61.05 99.8 61.9 100.75 62.6 101.55 64.4 101.95 L64.7 100.3 Q62.9 100 63.1 98.1 L65.2 85.2 M70.6 86.2 L68.55 85.9 68.15 88.05 70.3 88.45 70.6 86.2 M56.9 88.35 Q55.5 88.05 54.45 88.85 53.35 89.65 53.15 91.2 L54.9 91.5 Q55 90.6 55.7 90.2 L56.7 89.95 Q58.1 90.2 57.8 91.9 L57.5 93.75 56.3 93.6 Q54.6 93.3 53.65 93.95 52.35 94.85 52.15 96.55 51.85 98.3 52.45 99.4 53.15 100.3 54.35 100.6 L55.9 100.3 56.7 99.6 56.5 100.7 58.25 100.95 59.55 92.3 Q59.95 90.6 59.05 89.45 58.45 88.55 56.9 88.35 M142.5 104.9 Q142.6 103.25 144.05 103.45 145.45 103.85 145.25 105.4 L143.85 114.1 145.75 114.5 147.1 105.7 Q147.4 104.05 146.85 103.05 146.25 102.05 144.85 101.85 L143.45 102.05 Q142.8 102.45 142.7 102.65 L142.8 101.75 141 101.45 139.15 113.4 141 113.8 142.5 104.9 M133.1 107.3 L134.5 107 135.6 107.2 135.3 109.35 Q135 111.25 133.5 111.15 132.05 110.85 132.35 108.85 132.55 107.8 133.1 107.3 M135.3 100.4 Q133.7 100.2 132.75 100.95 131.75 101.65 131.55 103.25 L133.4 103.65 Q133.5 102.65 134 102.25 L135 102.05 Q136.35 102.25 136.2 103.95 L135.9 105.8 134.6 105.7 Q133 105.4 131.95 106.1 130.75 106.8 130.45 108.55 130.15 110.35 130.85 111.4 131.45 112.5 132.75 112.6 L134.2 112.4 135 111.7 134.9 112.8 136.65 113 138.05 104.3 Q138.25 102.85 137.45 101.55 136.55 100.5 135.3 100.4 M127.9 100.75 L128.1 99.4 126.3 99.2 124.45 111.15 126.3 111.4 127.5 103.25 Q127.7 102.25 128.4 101.75 129 101.25 129.95 101.35 L130.65 101.45 130.85 99.7 Q129.65 99.5 128.9 100 128.1 100.3 127.9 100.75 M123.65 98.8 L121.8 98.4 120.4 107.3 Q120.1 108.95 118.7 108.75 117.25 108.45 117.55 106.8 L118.9 98 117.05 97.7 115.65 106.6 Q115.45 108.35 116.05 109.15 116.45 110.15 117.95 110.35 L119.2 110.15 120.1 109.55 120 110.45 121.8 110.75 123.65 98.8 M94.55 93 L94.85 100.75 91.8 100.3 94.55 93 M107.8 99.5 Q107.7 100.3 107.95 101.15 108.25 101.95 109.35 102.85 L110.85 103.85 111.7 104.8 111.8 106 Q111.8 106.7 111.25 107.2 L110.05 107.5 Q109.35 107.3 109.05 106.8 108.65 106.2 108.75 105.3 L106.9 105 Q106.6 106.6 107.5 107.8 108.25 108.85 109.75 109.05 111.25 109.25 112.3 108.45 113.5 107.6 113.7 106.2 113.9 104.8 113.6 104.15 113.1 103.25 112 102.55 L110.65 101.55 109.75 100.6 109.75 99.7 Q109.75 99.1 110.35 98.6 L111.45 98.4 Q112 98.5 112.4 99 112.7 99.6 112.6 100.5 L114.5 100.75 Q114.7 99 113.9 98 113.1 96.95 111.7 96.75 110.25 96.55 109.15 97.3 108.05 98.2 107.8 99.5 M104.05 97.6 Q104.4 98.2 104.35 99.2 L106.2 99.4 Q106.5 97.8 105.5 96.65 104.8 95.75 103.45 95.45 101.85 95.25 100.95 96.05 99.8 96.75 99.5 98.3 99.3 99.4 99.7 99.9 100 100.75 101.05 101.55 L102.55 102.55 Q103.25 103.05 103.45 103.65 103.65 103.95 103.65 104.8 103.45 105.6 102.85 105.8 102.35 106.2 101.75 106.1 101.05 106.1 100.8 105.6 100.2 104.9 100.4 103.95 L98.6 103.75 Q98.3 105.3 99.2 106.6 100 107.5 101.45 107.8 102.95 108.05 104.05 107.3 105.2 106.4 105.5 104.8 105.6 103.75 105.2 102.95 105 102.15 103.75 101.25 L102.35 100.3 101.45 99.4 101.35 98.4 Q101.55 97.6 101.95 97.4 102.55 97.05 103.15 97.15 103.75 97.3 104.05 97.6 M87.65 105.5 L89.85 105.8 91.1 102.05 94.95 102.65 95.15 106.6 97.3 107 95.95 89.95 94.05 89.65 87.65 105.5 M84.9 92.9 L82.95 92.5 79.65 101.15 79.4 92 77.2 91.6 78.3 104.05 77.7 105.4 Q77.2 106.7 75.35 106.5 L75.05 108.15 77.7 108.05 Q78.9 107.6 79.4 106.2 L84.9 92.9 M75.25 87.95 L73.35 87.65 72.95 91 71.5 90.7 71.3 92.2 72.65 92.4 71.6 99.5 Q71.3 101.35 72.2 102.35 72.95 103.25 74.85 103.55 L75.05 101.85 Q73.15 101.55 73.45 99.7 L74.55 92.7 76.4 93 76.6 91.5 74.85 91.2 75.25 87.95"/>
    <path stroke="none" fill="#424952" d="M167.15 84 L170.2 84.2 Q170 86.85 171.6 88.05 171.95 89.85 173.85 90.5 L174.65 90.7 174.85 92.3 Q176.3 101.75 183.2 107.5 191.4 114.4 204.3 114.4 L208.35 114.2 Q213.4 113.8 216.55 110.75 L217.45 109.65 Q219.4 107 220.2 102.95 220.7 99.7 220.2 96.55 219.7 93.5 217.05 90.4 213.7 86.65 209.45 86.95 205.7 87.25 204 89.45 202.15 91.7 202.55 95.35 202.75 96.45 202.35 97.3 L201.95 98.1 Q200.95 99.4 199.5 99.6 197.8 99.8 196.65 98.9 195.35 97.9 195.15 96.45 L195.05 95.95 Q194.95 94.85 195.15 92.3 195.75 87.75 198.2 84.7 201.85 80.05 208.75 79.45 216.25 78.9 221.85 84.5 226.6 89.35 227.6 95.25 228.4 99.9 227.5 104.7 226.5 110.25 223.35 114.3 220.2 118.35 215.25 120.3 212.4 121.3 209.05 121.7 L204.3 122 Q196.8 122 190.2 119.7 183.4 117.45 178.5 113.3 168.35 104.9 166.95 90.9 L166.95 90.8 Q166.75 87.35 167.15 84 M167.85 82.65 L168.15 82.35 170.2 82.05 170.6 81.95 170.4 83 167.85 82.65 M271.45 78 Q278.1 87.05 279.75 97.4 281.55 107.8 278.1 118.6 L277.4 119.9 Q284 129.25 280.55 141.3 278.65 148 274.65 153.25 L275 174.95 Q277.3 175.25 278.65 176.7 280.95 179.05 280.75 183 L280.65 183.5 263.6 205.3 262.9 205.7 234.2 205.7 Q233.3 205.7 233.3 204.9 233.3 197.3 239.5 194.05 L245.95 192.3 255.5 192.3 255.5 187.05 Q248.1 186.75 237.65 179.75 231.85 175.8 226.1 170.6 213.2 186.05 195.45 192.8 183.9 197.1 172.35 197.1 L168.4 196.9 168.4 205.8 Q168.4 206.6 167.55 206.6 L116.85 206.6 Q115.95 206.6 115.95 205.8 L115.95 203.55 Q115.95 197.2 121.5 194.25 L127 192.6 148.9 192.6 148.9 184.7 Q145.45 186.05 140.8 186.05 135.1 186.05 129.45 184.1 123.95 182.05 121 178.9 117.25 174.85 116.55 169.7 L116.65 165.05 Q116.65 164.75 116.95 164.6 120.3 161.9 120.5 161.05 122 153.85 124.25 151.05 127.2 147.3 136.85 142.4 142.9 139.25 152.95 132.9 L157.65 129.85 Q158.05 129.55 158.55 129.85 158.95 130.05 158.95 130.55 L158.95 144.15 163.4 155.5 Q181.15 149.1 195.75 142.7 L202.65 139.55 213.4 133.9 Q225.7 127 228.95 121.9 233.1 115.05 240 111.15 246.7 107.2 254.3 107.2 263.8 107.2 271.65 113.7 275.6 96.65 265.45 82.45 257 70.9 241.5 63.5 227.5 56.9 214.85 56.7 L213.7 56.6 Q207 56.6 200.75 58.35 L200.65 58.15 Q200.1 57.1 199 56.8 197.7 56.2 197 57.3 L194.95 60.55 Q190.8 62.3 187.45 64.8 183.5 64 178.5 69 173.35 74.05 171.1 80.35 L169.4 81.05 Q172.75 77.1 174.35 72.75 175.6 69.3 175.05 66.85 L174.95 66.45 176.7 64.3 Q183.4 57 193.2 53.15 203.05 49.1 214.1 49.1 L214.85 49.1 Q229.15 49.4 244.75 56.9 262.1 65.1 271.45 78"/>
    <path stroke="none" fill="#ffffff" d="M258.65 87.35 Q255.9 83.5 251.55 79.65 L236.85 103.35 Q245.35 98.9 254.3 98.9 259.15 98.9 264.2 100.4 263.3 93.75 258.65 87.35 M240 111.15 Q233.1 115.05 228.95 121.9 225.7 127 213.4 133.9 L215.25 120.3 Q220.2 118.35 223.35 114.3 226.5 110.25 227.5 104.7 228.4 99.9 227.6 95.25 226.6 89.35 221.85 84.5 216.25 78.9 208.75 79.45 201.85 80.05 198.2 84.7 195.75 87.75 195.15 92.3 194.95 94.85 195.05 95.95 L174.85 92.3 174.65 90.7 173.85 90.5 Q171.95 89.85 171.6 88.05 171.2 86.4 171.95 83.9 L171.5 84 170.2 84.2 167.15 84 Q166.75 87.35 166.95 90.8 L166.95 90.9 8.85 61.9 8.35 113.8 47.35 118.9 48.1 120.4 53.05 127.3 49.8 124.65 Q48.7 123.55 46.85 123.05 43.2 122.55 40.8 125.25 39.25 127.3 39.35 129.85 39.65 132.55 41.5 134.2 L47.35 139.25 44.85 138.35 Q42.6 138.05 40.6 139.15 38.75 140.1 37.85 142.2 36.85 144.75 37.95 147.3 39.15 149.8 41.4 150.55 45.05 151.75 55.6 156.3 L57.1 158.45 26.3 185.4 Q26.05 185.8 26.15 186.05 26.3 186.45 26.8 186.45 L34.5 186.75 36.3 195.05 Q36.3 195.55 36.8 195.55 37.15 195.75 37.35 195.25 L52.55 172.85 Q58.25 175.15 63 176 77.5 178.6 86.6 169.1 90.7 164.7 92.4 159.55 L94.65 158.65 108.75 162.1 Q109.15 162.3 109.45 161.8 109.65 161.5 109.45 161.15 L101.05 149.4 Q101.95 144.35 98.9 140.1 95.95 136 90.8 135 L85 135.4 Q82.15 136.2 80.05 138.15 L77.9 140 Q74.35 135.9 66.45 124.55 L64.1 121.1 152.95 132.9 Q142.9 139.25 136.85 142.4 127.2 147.3 124.25 151.05 122 153.85 120.5 161.05 120.3 161.9 116.95 164.6 116.65 164.75 116.65 165.05 L116.55 169.7 Q117.25 174.85 121 178.9 123.95 182.05 129.45 184.1 135.1 186.05 140.8 186.05 145.45 186.05 148.9 184.7 L148.9 192.6 127 192.6 121.5 194.25 Q115.95 197.2 115.95 203.55 L115.95 205.8 Q115.95 206.6 116.85 206.6 L167.55 206.6 Q168.4 206.6 168.4 205.8 L168.4 196.9 172.35 197.1 Q183.9 197.1 195.45 192.8 213.2 186.05 226.1 170.6 231.85 175.8 237.65 179.75 248.1 186.75 255.5 187.05 L255.5 192.3 245.95 192.3 239.5 194.05 Q233.3 197.3 233.3 204.9 233.3 205.7 234.2 205.7 L262.9 205.7 263.6 205.3 280.65 183.5 280.75 183 Q280.95 179.05 278.65 176.7 277.3 175.25 275 174.95 L274.65 153.25 Q278.65 148 280.55 141.3 284 129.25 277.4 119.9 L278.1 118.6 Q281.55 107.8 279.75 97.4 278.1 87.05 271.45 78 262.1 65.1 244.75 56.9 229.15 49.4 214.85 49.1 L214.1 49.1 Q203.05 49.1 193.2 53.15 183.4 57 176.7 64.3 L174.95 66.45 175.05 66.85 Q175.6 69.3 174.35 72.75 172.75 77.1 169.4 81.05 L168.15 82.35 167.85 82.65 170.4 83 172.35 82.25 Q174.65 76 179.65 71 185.2 65.45 189.35 66.85 L189.65 67.05 Q189.35 65.35 188.05 65 L187.45 64.8 Q190.8 62.3 194.95 60.55 L193.35 62.8 190.3 67.55 Q191.1 68.45 191.1 70.3 L198.3 59.25 Q198.9 58.25 200.35 58.65 L201.05 59.05 200.75 58.35 Q207 56.6 213.7 56.6 L214.85 56.7 Q227.5 56.9 241.5 63.5 257 70.9 265.45 82.45 275.6 96.65 271.65 113.7 263.8 107.2 254.3 107.2 246.7 107.2 240 111.15 M171.4 63 Q172.65 63.4 173.55 64.3 172.75 61.9 170.1 61.05 165.65 59.45 161.9 64.4 160.55 63.7 158.85 65.35 154.9 69.3 152.95 74.75 L152.55 75.9 150.65 76.8 149.3 78.2 151.35 77.8 152.25 77.6 152.05 78.7 Q152.95 78.6 153.85 78 L154.2 76.7 Q156.1 71.2 160.05 67.45 161.6 65.55 163.3 66.35 166.95 61.35 171.4 63 M278.2 73.15 Q285.65 83.4 287.85 95.15 289.9 106.8 286.55 119.2 291.1 128.2 289.6 138.75 288.25 147.7 282.9 155.8 L283.2 169.6 284.7 171 Q289.3 175.9 289.05 183.2 L289.05 183.5 Q288.95 186.15 287.15 188.55 L270.1 210.45 Q267.55 214 262.9 214 L234.2 214 Q230.35 214 227.7 211.3 225.05 208.65 225.05 204.9 225.05 193.25 234.3 187.45 230.65 185.1 226.8 182.15 214.65 194.25 199.3 200.3 188.15 204.5 176.7 205.2 L176.7 205.8 Q176.7 209.55 174.05 212.2 171.4 214.95 167.55 214.95 L116.85 214.95 Q113 214.95 110.35 212.2 107.7 209.55 107.7 205.8 L107.7 203.55 Q107.7 192.4 117.65 186.95 L115 184.5 Q109.35 178.6 108.25 170.4 L107.9 170.4 97.6 167.95 Q95.55 171.6 92.5 174.85 83.1 184.8 68.75 184.8 L61.45 184.1 55.9 182.8 44.25 200 Q41.5 203.9 36.85 203.9 L36 203.9 35.4 203.75 30.55 203.05 29.5 200 Q28.6 198.6 28.1 196.8 L27.8 194.85 26.2 194.75 Q23.55 194.65 21.5 193.1 19.4 191.5 18.45 188.95 17.45 186.25 18.15 183.6 18.85 180.95 20.9 179.15 L42.8 159.85 38.75 158.35 Q32.95 156.3 30.45 150.75 27.8 145.05 30.25 139.15 31.05 137.05 32.35 135.5 31.35 133 31.05 130.35 30.85 127.5 31.65 125.25 L0 121 0.8 52.05 32.15 57.8 42.3 0 197.2 43.1 Q204.4 41 212.6 40.8 L214.1 40.8 215.05 40.8 Q231.25 41.1 248.5 49.4 267.55 58.45 278.2 73.15 M169.9 64.7 Q169.9 65.95 169.2 67.85 167.35 73.15 163.4 78.6 163.7 79.65 164.5 80.55 168.6 75.15 170.5 69.9 171.95 65.35 170.4 64.8 L169.9 64.7 M151.05 60.55 L150.4 63.7 Q148.5 68.9 144.45 74.35 144.85 75.55 145.65 76.4 149.8 71 151.55 65.75 153.15 61.25 151.55 60.55 L151.05 60.55 M154.6 60.15 Q153.85 57.8 151.25 56.9 146.85 55.2 143.1 60.25 141.7 59.45 139.85 61.25 137.25 63.9 135.7 66.85 L130.95 65.1 130.15 66.15 137.05 68.8 Q138.75 65.65 141.2 63.2 142.9 61.45 144.35 62.2 148 57.2 152.55 58.75 153.85 59.25 154.6 60.15 M188.65 70 L188.65 70.2 184.7 76.5 Q179.15 84.9 176.3 85.7 175.9 87.25 176.5 87.55 L180.15 84.5 179.75 85.2 179.45 86.65 Q181.95 84.5 186 78.5 L189.9 72.2 Q190.4 70.5 189.05 70.1 L188.65 70 M179.25 88.55 L179.25 89.25 Q179.55 90.6 180.55 91.2 180.25 89.55 181.05 87.25 L181.45 86.5 179.25 88.55 M185 89.35 Q184.5 90.9 185.4 91.2 L185.6 91.2 Q186.75 90.6 187.95 89.65 L192.9 84.4 193.35 83.7 Q193.55 83.1 193.2 83.1 192.7 82.95 192.1 83.6 L187.85 87.55 Q186.1 89.05 185 89.35 M159.45 76.5 Q159.85 77.9 160.95 79.1 160.15 77.3 160.25 74.95 L159.45 76.5 M157.3 83.1 Q157.4 84.6 158.65 85 L159.15 85.1 Q160.55 85.4 163.4 82.15 L161.7 80.45 Q159.25 83.4 157.85 83.1 L157.3 83.1 M153.45 79.45 L152.55 79.75 152.05 79.95 152.15 81.15 Q152.55 83 153.75 84 L153.45 83.1 Q153.15 81.45 153.45 79.45 M155.4 104.3 Q156.2 105.5 155.9 107.2 L154.1 106.9 Q154.3 105.9 153.95 105.4 153.55 104.8 152.95 104.8 152.15 104.8 151.75 105.1 151.25 105.7 150.65 109.05 150.2 112.2 150.55 113.1 150.85 113.8 151.55 113.8 L152.65 113.5 Q153.25 113.1 153.25 112.1 L155.1 112.5 Q154.8 114.2 153.75 114.95 152.85 115.65 151.25 115.45 149.6 115.25 148.9 114 148.2 112.9 148.9 108.75 149.5 104.8 150.5 103.85 151.55 102.95 153.25 103.15 154.6 103.35 155.4 104.3 M159.05 105 Q159.95 104.25 161.5 104.4 163.1 104.7 163.8 105.7 164.7 107.1 163.9 111.5 L158.95 110.85 Q158.55 113.8 158.95 114.4 159.25 114.95 159.95 115.05 160.65 115.25 161.05 114.8 161.5 114.5 161.6 113.5 L163.5 113.8 Q163.3 115.25 162.2 116.25 161.15 117.05 159.75 116.75 158.15 116.55 157.5 115.45 156.5 114.1 157.2 110.15 157.75 106 159.05 105 M159.25 109.35 L162.3 109.85 Q162.6 107.5 162.3 106.7 161.9 106.2 161.3 106.1 160.65 106 160.15 106.5 159.55 107 159.25 109.35 M204 89.45 Q205.7 87.25 209.45 86.95 213.7 86.65 217.05 90.4 219.7 93.5 220.2 96.55 220.7 99.7 220.2 102.95 219.4 107 217.45 109.65 L216.55 110.75 217.85 100.2 202.35 97.3 Q202.75 96.45 202.55 95.35 202.15 91.7 204 89.45 M130.45 41.4 Q129.65 41.2 128.5 41.9 127.3 42.5 127.1 43.4 126.8 43.95 127.6 44.25 L128.8 44.65 129.75 43.9 Q130.85 43.3 131.75 43.4 L136.1 44.55 143.55 47.5 147.4 48.6 Q147.7 47.15 146.75 46.75 L142.3 45.45 134.8 42.6 Q132.55 41.7 130.45 41.4 M115.25 51.35 Q115.45 50.8 112.8 49.5 L112.1 50.6 114.6 51.65 115.25 51.35 M114.3 42.4 L113.9 41.4 Q113.5 40.5 112.4 40.15 110.75 39.55 109.95 40.6 L105.7 46.45 103.35 45.55 Q102.45 45.25 101.95 46.85 101.35 48 102.25 48.5 L103.15 48.9 103.15 48.8 Q103.75 47.25 104.6 47.5 L107 48.4 111.15 42.6 Q111.9 41.5 113.7 42.1 L114.3 42.4 M115.75 60.85 Q116.35 59.25 118.45 60.05 120.6 60.85 121.8 62.8 L125.55 64.4 Q129.25 57.9 134.3 50.9 135.3 49.5 137.65 49.7 L134.2 48 Q133.5 48.3 133 48.9 127.8 56.2 124.35 62.3 L120.5 60.85 Q119.2 58.75 117.25 58.1 115.05 57.3 114.6 58.85 114.1 60.25 115.75 61.15 L115.75 60.85 M119.6 64.1 Q120.3 66.65 119.7 69.3 L117.85 74.35 Q117.55 75.25 118.05 76 118.35 76.7 119.1 76.9 L119.1 76.3 Q120.5 73.15 120.9 71.3 121.8 67.75 120.1 64.3 L119.6 64.1 M85.4 35.9 L83.9 35.7 83.9 35.8 Q83.1 37.75 79.3 42 75.25 46.25 74.65 48.1 74.35 48.8 74.95 49.6 L75.85 50.3 75.85 50.1 Q76.5 48.2 80.45 43.95 84.5 39.75 85.2 37.75 85.5 36.7 85.4 35.9 M86 34.4 L85.2 33.2 Q84.9 32.15 83.1 31.55 77.6 29.6 70.2 36.5 63.1 43 60.15 51.45 58.35 56.4 59.15 59.95 59.55 62 60.95 63.4 L60.35 61.9 Q59.55 58.35 61.35 53.35 64.4 44.95 71.4 38.45 78.9 31.65 84.4 33.4 L86 34.4 M81.15 51.35 L81.05 51.45 80.25 52.55 Q77.9 55.8 76.6 59.45 L76.6 59.55 Q74.45 61.25 72.75 61.9 69.4 63.5 66.75 62.5 65.75 62.2 65 61.55 65.65 63.7 67.95 64.5 L72 64.6 72.75 64.1 75.85 62 75.75 62.9 77.8 61.45 Q80.15 55.1 85.2 50.1 90.7 44.55 94.75 46.05 L95.65 46.45 95.55 46.15 Q94.85 44.55 93.6 44.05 89.45 42.6 83.9 48.1 L81.15 51.35 M84.8 62.6 Q82.95 64.4 81.75 64.8 81.25 66.35 81.95 66.75 L85.2 63.9 84.8 64.9 84.6 65.95 86 64.7 Q88.45 62.2 91 58.25 L95.15 51.55 Q95.85 49.7 94.55 49.2 L94.05 49.1 93.85 49.6 89.75 56.2 Q87.25 60.25 84.8 62.6 M103.55 50.5 L103.25 50.2 Q97.3 59.25 95.15 64.3 92.4 66.95 90.9 67.85 L90.4 68.75 Q90.15 69.6 90.4 70.1 L94.15 67.35 Q93.95 67.95 94.05 68.55 L96.45 66.45 Q98.5 61.45 105.1 51.15 L103.55 50.5 M94.35 70.3 Q94.65 71.1 95.35 71.6 95.15 70.5 95.45 69.3 L94.35 70.3 M108.65 63.7 Q108.25 63.6 107.5 64.3 L103.05 68.05 99.6 70.1 Q99.2 71.6 100.1 72 103.55 70.6 108.25 65.1 L108.85 64.3 Q109.05 63.9 108.65 63.7 M97.05 49.8 L96.85 50.9 97.15 51 97.8 51.35 97.4 50.5 97.05 49.8 M75.25 87.95 L74.85 91.2 76.6 91.5 76.4 93 74.55 92.7 73.45 99.7 Q73.15 101.55 75.05 101.85 L74.85 103.55 Q72.95 103.25 72.2 102.35 71.3 101.35 71.6 99.5 L72.65 92.4 71.3 92.2 71.5 90.7 72.95 91 73.35 87.65 75.25 87.95 M75.85 65.1 Q76.1 66.35 77.1 67.05 76.8 65.85 77.1 64.1 L75.85 65.1 M84.3 67.75 Q84.4 69.3 85.7 70.2 85.4 68.75 86.1 66.85 L86.5 65.85 84.3 67.75 M84.9 92.9 L79.4 106.2 Q78.9 107.6 77.7 108.05 L75.05 108.15 75.35 106.5 Q77.2 106.7 77.7 105.4 L78.3 104.05 77.2 91.6 79.4 92 79.65 101.15 82.95 92.5 84.9 92.9 M87.65 105.5 L94.05 89.65 95.95 89.95 97.3 107 95.15 106.6 94.95 102.65 91.1 102.05 89.85 105.8 87.65 105.5 M101.45 99.4 L102.35 100.3 103.75 101.25 Q105 102.15 105.2 102.95 105.6 103.75 105.5 104.8 105.2 106.4 104.05 107.3 102.95 108.05 101.45 107.8 100 107.5 99.2 106.6 98.3 105.3 98.6 103.75 L100.4 103.95 Q100.2 104.9 100.8 105.6 101.05 106.1 101.75 106.1 102.35 106.2 102.85 105.8 103.45 105.6 103.65 104.8 103.65 103.95 103.45 103.65 103.25 103.05 102.55 102.55 L101.05 101.55 Q100 100.75 99.7 99.9 99.3 99.4 99.5 98.3 99.8 96.75 100.95 96.05 101.85 95.25 103.45 95.45 104.8 95.75 105.5 96.65 106.5 97.8 106.2 99.4 L104.35 99.2 Q104.4 98.2 104.05 97.6 103.75 97.3 103.15 97.15 102.55 97.05 101.95 97.4 101.55 97.6 101.35 98.4 L101.45 99.4 M107.8 99.5 Q108.05 98.2 109.15 97.3 110.25 96.55 111.7 96.75 113.1 96.95 113.9 98 114.7 99 114.5 100.75 L112.6 100.5 Q112.7 99.6 112.4 99 112 98.5 111.45 98.4 L110.35 98.6 Q109.75 99.1 109.75 99.7 L109.75 100.6 110.65 101.55 112 102.55 Q113.1 103.25 113.6 104.15 113.9 104.8 113.7 106.2 113.5 107.6 112.3 108.45 111.25 109.25 109.75 109.05 108.25 108.85 107.5 107.8 106.6 106.6 106.9 105 L108.75 105.3 Q108.65 106.2 109.05 106.8 109.35 107.3 110.05 107.5 L111.25 107.2 Q111.8 106.7 111.8 106 L111.7 104.8 110.85 103.85 109.35 102.85 Q108.25 101.95 107.95 101.15 107.7 100.3 107.8 99.5 M94.55 93 L91.8 100.3 94.85 100.75 94.55 93 M141.4 70.8 L140.6 72.3 Q141 73.65 142 74.95 141.3 73.15 141.4 70.8 M134.1 70.5 Q132.75 74.25 133.3 76.9 133.6 78.7 134.8 79.75 L134.5 78.9 Q134 76.2 135.4 72.45 L136.3 70.3 134.4 69.6 134.1 70.5 M138.55 78.9 L138.45 78.9 Q138.55 80.35 139.85 80.85 L140.2 80.95 Q141.7 81.25 144.35 77.9 L142.9 76.4 Q140.4 79.3 138.95 79 L138.55 78.9 M122.75 69.3 L124.55 65.95 122.65 65.25 Q123.05 67.55 122.75 69.3 M128.1 99.4 L127.9 100.75 Q128.1 100.3 128.9 100 129.65 99.5 130.85 99.7 L130.65 101.45 129.95 101.35 Q129 101.25 128.4 101.75 127.7 102.25 127.5 103.25 L126.3 111.4 124.45 111.15 126.3 99.2 128.1 99.4 M123.65 98.8 L121.8 110.75 120 110.45 120.1 109.55 119.2 110.15 117.95 110.35 Q116.45 110.15 116.05 109.15 115.45 108.35 115.65 106.6 L117.05 97.7 118.9 98 117.55 106.8 Q117.25 108.45 118.7 108.75 120.1 108.95 120.4 107.3 L121.8 98.4 123.65 98.8 M135.3 100.4 Q136.55 100.5 137.45 101.55 138.25 102.85 138.05 104.3 L136.65 113 134.9 112.8 135 111.7 134.2 112.4 132.75 112.6 Q131.45 112.5 130.85 111.4 130.15 110.35 130.45 108.55 130.75 106.8 131.95 106.1 133 105.4 134.6 105.7 L135.9 105.8 136.2 103.95 Q136.35 102.25 135 102.05 L134 102.25 Q133.5 102.65 133.4 103.65 L131.55 103.25 Q131.75 101.65 132.75 100.95 133.7 100.2 135.3 100.4 M134.5 107 L133.1 107.3 Q132.55 107.8 132.35 108.85 132.05 110.85 133.5 111.15 135 111.25 135.3 109.35 L135.6 107.2 134.5 107 M142.7 102.65 Q142.8 102.45 143.45 102.05 L144.85 101.85 Q146.25 102.05 146.85 103.05 147.4 104.05 147.1 105.7 L145.75 114.5 143.85 114.1 145.25 105.4 Q145.45 103.85 144.05 103.45 142.6 103.25 142.5 104.9 L141 113.8 139.15 113.4 141 101.45 142.8 101.75 142.7 102.65 M118.45 145.25 Q121.6 141.7 127.8 137.95 L105.3 135 Q109.45 140.4 109.55 147 L114 153.25 Q115.45 148.5 118.45 145.25 M195.75 142.7 Q181.15 149.1 163.4 155.5 L158.95 144.15 158.95 133.7 202.65 139.55 195.75 142.7 M167.55 143.2 L168.15 144.95 171.4 143.65 167.55 143.2 M56.9 88.35 Q58.45 88.55 59.05 89.45 59.95 90.6 59.55 92.3 L58.25 100.95 56.5 100.7 56.7 99.6 55.9 100.3 54.35 100.6 Q53.15 100.3 52.45 99.4 51.85 98.3 52.15 96.55 52.35 94.85 53.65 93.95 54.6 93.3 56.3 93.6 L57.5 93.75 57.8 91.9 Q58.1 90.2 56.7 89.95 L55.7 90.2 Q55 90.6 54.9 91.5 L53.15 91.2 Q53.35 89.65 54.45 88.85 55.5 88.05 56.9 88.35 M65.2 85.2 L63.1 98.1 Q62.9 100 64.7 100.3 L64.4 101.95 Q62.6 101.55 61.9 100.75 61.05 99.8 61.35 97.9 L63.2 84.9 65.2 85.2 M68.55 85.9 L70.6 86.2 70.3 88.45 68.15 88.05 68.55 85.9 M39.25 81.05 Q41.1 81.25 41.8 82.65 42.5 83.6 42.4 85.3 L41.9 90.05 Q41.1 95.25 40.25 96.45 L41.4 97.7 40.25 98.7 39.05 97.5 36.6 97.8 Q34.9 97.5 34 96.25 33.3 95.25 33.3 93.6 33.3 92.3 33.9 88.75 34.4 85.4 34.8 84.1 35.3 82.45 36.2 81.75 37.45 80.65 39.25 81.05 M37.45 83.1 Q36.7 84 35.9 89.15 35.1 94.15 35.6 95.25 36.1 95.95 36.85 96.05 L37.75 95.95 36.85 94.85 37.85 93.95 38.75 94.85 Q39.35 93.85 39.95 89.75 40.7 84.7 40.15 83.6 39.85 82.95 38.85 82.85 37.95 82.75 37.45 83.1 M46.75 86.85 L45.25 95.75 Q45.15 97.4 46.55 97.6 47.8 97.8 48.1 96.15 L49.5 87.35 51.35 87.65 49.5 99.6 47.7 99.4 47.8 98.4 47.05 99.1 45.75 99.2 Q44.45 99.1 43.8 98 43.2 97.05 43.4 95.45 L44.85 86.65 46.75 86.85 M69.8 90.7 L67.95 102.45 66.05 102.15 67.95 90.4 69.8 90.7 M56.2 94.95 L54.8 95.15 Q54.15 95.65 54.05 96.75 53.75 98.7 55.1 99 56.6 99.3 56.9 97.4 L57.3 95.15 56.2 94.95"/>
  </g>
</svg>