<?xml version="1.0" encoding="utf-8"?>
<!-- Generator: Adobe Illustrator 16.0.0, SVG Export Plug-In . SVG Version: 6.00 Build 0)  -->
<!DOCTYPE svg PUBLIC "-//W3C//DTD SVG 1.1//EN" "http://www.w3.org/Graphics/SVG/1.1/DTD/svg11.dtd">
<svg version="1.1" id="Layer_1" xmlns="http://www.w3.org/2000/svg" xmlns:xlink="http://www.w3.org/1999/xlink" x="0px" y="0px"
	 width="300px" height="300px" viewBox="0 0 300 300" enable-background="new 0 0 300 300" xml:space="preserve">
<g>
	<path fill-rule="evenodd" clip-rule="evenodd" fill="#292B3A" d="M81.078,137.074l-5.84,1.51L42.91,89.439l31.018-6.949
		c-2.014,3.424-3.189,7.587-3.525,12.488c-0.47,5.774,0.436,13.058,2.718,21.853C75.271,125.224,77.922,131.972,81.078,137.074z
		 M105.449,75.341l25.277-5.639c-1.343,3.021-2.148,6.478-2.417,10.373c-0.47,5.841,0.402,13.159,2.618,21.954
		c2.149,8.459,4.867,15.241,8.157,20.342l-14.703,3.727c0.403-5.842-0.503-13.058-2.719-21.651
		c-1.947-7.386-4.028-13.092-6.244-17.12c-2.215-4.096-4.699-7.386-7.452-9.87C107.161,76.717,106.321,76.013,105.449,75.341z
		 M230.625,56.71c-1.813-3.223-3.827-5.908-6.042-8.057l11.278-2.518L230.625,56.71z M202.024,113.911l-63.746,127.393
		l-31.521-52.166l36.254-61.53c0.94,1.007,1.947,1.914,3.021,2.718c5.438,4.164,11.749,5.305,18.932,3.424
		c5.438-1.41,9.567-4.028,12.387-7.856c2.82-3.826,4.432-8.625,4.835-14.399c0.403-5.842-0.504-13.16-2.721-21.955
		c-1.879-7.318-3.927-12.99-6.143-17.019c-2.282-4.095-4.767-7.386-7.451-9.869c-0.269-0.269-0.504-0.503-0.705-0.705l22.559-5.035
		c-0.874,2.551-1.41,5.337-1.611,8.358c-0.472,5.841,0.437,13.158,2.719,21.954C192.055,99.779,196.452,108.674,202.024,113.911z
		 M195.378,66.076c0-3.021,0.37-5.572,1.107-7.653c0.604-1.544,1.377-2.854,2.317-3.928l14.502-3.223
		c1.342,0.538,2.719,1.41,4.129,2.619c2.751,2.282,5.305,6.881,7.653,13.796l-18.831,37.664c-2.888-4.162-5.574-11.011-8.057-20.543
		c-0.403-1.679-0.773-3.324-1.109-4.935c1.746-0.067,3.224-0.738,4.432-2.014c1.343-1.342,2.014-2.988,2.014-4.935
		c0-1.946-0.671-3.592-2.014-4.934c-1.344-1.344-2.988-2.014-4.936-2.014C196.185,65.976,195.781,66.009,195.378,66.076z
		 M239.488,100.719c0.268-1.275,0.468-2.652,0.604-4.129c0.27-4.431-0.202-9.701-1.41-15.81l17.12-39.376l10.574-1.913
		L239.488,100.719z M221.965,119.148c0.27-0.067,0.537-0.135,0.805-0.202c5.169-1.343,9.166-3.76,11.984-7.251l-73.716,168.178
		l-5.338-8.66L221.965,119.148z M151.672,80.276c-1.343-1.343-2.986-2.014-4.934-2.014s-3.592,0.671-4.936,2.014
		c-1.342,1.342-2.014,2.987-2.014,4.934s0.672,3.591,2.014,4.935c1.344,1.342,2.988,2.014,4.936,2.014s3.591-0.671,4.934-2.014
		c1.344-1.344,2.014-2.988,2.014-4.935S153.016,81.618,151.672,80.276z M151.571,65.069c2.753,0.269,5.404,1.477,7.956,3.626
		c3.894,3.29,7.419,11.043,10.574,23.263c3.088,12.219,3.726,20.711,1.913,25.478c-1.813,4.833-4.834,7.788-9.063,8.862
		c-4.162,1.076-8.19-0.033-12.085-3.322c-3.894-3.357-7.385-11.145-10.473-23.365c-3.155-12.218-3.76-20.98-1.813-26.284
		c1.142-2.954,2.921-5.135,5.338-6.546L151.571,65.069z M101.823,103.337c1.343-1.342,2.014-2.988,2.014-4.934
		c0-1.947-0.671-3.593-2.014-4.935c-1.342-1.342-2.987-2.014-4.934-2.014s-3.591,0.672-4.935,2.014
		c-1.343,1.342-2.014,2.988-2.014,4.935c0,1.946,0.671,3.592,2.014,4.934c1.343,1.343,2.987,2.014,4.935,2.014
		S100.48,104.68,101.823,103.337z M115.116,128.514l-24.673,6.243c-2.887-4.162-5.539-10.944-7.955-20.342
		c-3.089-12.219-3.66-20.98-1.712-26.284c1.611-4.163,4.499-6.781,8.66-7.855c4.297-1.142,8.393-0.068,12.287,3.222
		c3.893,3.29,7.418,11.078,10.574,23.364C114.646,116.261,115.586,123.479,115.116,128.514z M227,107.667l3.726-8.56
		c-0.134,1.343-0.403,2.518-0.805,3.525C229.114,104.646,228.141,106.325,227,107.667z"/>
	<path fill-rule="evenodd" clip-rule="evenodd" fill="#FFCD34" d="M124.381,126.097c0,0.067,0,0.134,0,0.201
		c-0.47,5.773-2.081,10.607-4.833,14.502c-2.82,3.828-6.982,6.412-12.488,7.753c-7.183,1.88-13.46,0.773-18.832-3.322
		c-2.618-2.014-5.001-4.734-7.15-8.157c-3.156-5.103-5.807-11.851-7.956-20.243c-2.282-8.795-3.188-16.079-2.718-21.853
		c0.335-4.9,1.511-9.063,3.525-12.488c0.402-0.739,0.872-1.409,1.409-2.014c2.753-3.827,6.848-6.445,12.286-7.855
		c3.961-1.007,7.688-1.107,11.178-0.302c2.35,0.604,4.566,1.611,6.647,3.021c0.873,0.672,1.712,1.376,2.518,2.115
		c2.752,2.484,5.237,5.773,7.452,9.87c2.216,4.028,4.297,9.734,6.244,17.12C123.878,113.039,124.784,120.255,124.381,126.097z
		 M198.803,54.495c-0.94,1.074-1.713,2.384-2.317,3.928c-0.737,2.081-1.107,4.632-1.107,7.653
		c-0.066,3.827,0.504,8.426,1.712,13.797c0.336,1.611,0.706,3.256,1.109,4.935c2.482,9.533,5.169,16.381,8.057,20.543
		c0.804,1.142,1.644,2.047,2.518,2.719c3.825,3.29,7.854,4.397,12.084,3.323c2.416-0.604,4.465-1.846,6.143-3.726
		c1.141-1.342,2.114-3.021,2.921-5.035c0.401-1.007,0.671-2.182,0.805-3.525c0.604-5.035-0.336-12.353-2.818-21.954
		c-0.873-3.558-1.813-6.713-2.82-9.466c-2.349-6.916-4.902-11.514-7.653-13.796c-1.41-1.209-2.787-2.081-4.129-2.619
		c-2.687-1.208-5.405-1.443-8.158-0.704C202.528,51.238,200.414,52.547,198.803,54.495z M202.024,113.911
		c-5.572-5.237-9.97-14.132-13.191-26.687c-2.282-8.795-3.19-16.113-2.719-21.954c0.201-3.021,0.737-5.808,1.611-8.358
		c0.804-2.283,1.878-4.33,3.222-6.144c2.82-3.827,6.949-6.411,12.388-7.753c3.959-1.007,7.687-1.108,11.178-0.303
		c3.355,0.807,6.412,2.484,9.163,5.035c0.337,0.336,0.64,0.639,0.907,0.907c2.215,2.149,4.229,4.834,6.042,8.057
		c0.201,0.269,0.37,0.57,0.504,0.907c2.215,4.028,4.296,9.734,6.243,17.12c0.539,2.081,0.976,4.095,1.31,6.042
		c1.208,6.109,1.68,11.379,1.41,15.81c-0.136,1.477-0.336,2.854-0.604,4.129c-0.739,4.028-2.184,7.486-4.331,10.373
		c-0.134,0.202-0.268,0.403-0.403,0.604c-2.818,3.491-6.815,5.908-11.984,7.251c-0.268,0.067-0.535,0.135-0.805,0.202
		c-6.849,1.544-12.857,0.335-18.026-3.625C203.266,115.053,202.628,114.516,202.024,113.911z M139.084,122.37
		c-3.29-5.101-6.008-11.882-8.157-20.342c-2.216-8.795-3.088-16.113-2.618-21.954c0.269-3.895,1.074-7.351,2.417-10.373
		c0.672-1.477,1.477-2.854,2.417-4.129c2.819-3.76,6.915-6.344,12.286-7.754c4.028-1.007,7.754-1.107,11.178-0.302
		c3.156,0.805,6.01,2.282,8.561,4.431c0.201,0.202,0.437,0.437,0.705,0.705c2.685,2.483,5.169,5.774,7.451,9.869
		c2.216,4.028,4.264,9.701,6.143,17.019c2.217,8.795,3.124,16.113,2.721,21.955c-0.403,5.774-2.015,10.574-4.835,14.399
		c-2.819,3.828-6.948,6.446-12.387,7.856c-7.183,1.88-13.493,0.74-18.932-3.424c-1.074-0.805-2.081-1.711-3.021-2.718
		C141.602,126.063,140.292,124.317,139.084,122.37z M151.571,65.069c-1.41-0.134-2.819-0.034-4.229,0.302
		c-1.275,0.336-2.416,0.807-3.424,1.41c-2.417,1.411-4.196,3.592-5.338,6.546c-1.946,5.304-1.342,14.065,1.813,26.284
		c3.088,12.22,6.579,20.007,10.473,23.365c3.895,3.289,7.923,4.398,12.085,3.322c4.229-1.074,7.251-4.028,9.063-8.862
		c1.813-4.767,1.175-13.259-1.913-25.478c-3.155-12.22-6.681-19.973-10.574-23.263C156.976,66.546,154.324,65.337,151.571,65.069z
		 M90.443,134.757c0.873,1.208,1.746,2.215,2.619,3.021c3.894,3.289,7.922,4.398,12.085,3.324c4.229-1.074,7.25-4.028,9.063-8.863
		c0.402-1.074,0.704-2.317,0.906-3.725c0.47-5.035-0.471-12.253-2.819-21.653c-3.156-12.286-6.681-20.074-10.574-23.364
		c-3.894-3.29-7.99-4.363-12.287-3.222c-4.162,1.074-7.049,3.692-8.66,7.855c-1.947,5.304-1.377,14.065,1.712,26.284
		C84.904,123.813,87.557,130.595,90.443,134.757z"/>
	<path fill-rule="evenodd" clip-rule="evenodd" fill="#EBE6EC" d="M197.09,79.873c-1.208-5.371-1.778-9.97-1.712-13.797
		c0.403-0.067,0.807-0.1,1.208-0.1c1.947,0,3.592,0.67,4.936,2.014c1.343,1.342,2.014,2.988,2.014,4.934
		c0,1.947-0.671,3.592-2.014,4.935C200.313,79.134,198.836,79.806,197.09,79.873z M151.672,80.276
		c1.344,1.342,2.014,2.987,2.014,4.934s-0.67,3.591-2.014,4.935c-1.343,1.342-2.986,2.014-4.934,2.014s-3.592-0.671-4.936-2.014
		c-1.342-1.344-2.014-2.988-2.014-4.935s0.672-3.592,2.014-4.934c1.344-1.343,2.988-2.014,4.936-2.014
		S150.329,78.933,151.672,80.276z M101.823,103.337c-1.342,1.343-2.987,2.014-4.934,2.014s-3.591-0.671-4.935-2.014
		c-1.343-1.342-2.014-2.988-2.014-4.934c0-1.947,0.671-3.593,2.014-4.935c1.343-1.342,2.987-2.014,4.935-2.014
		s3.592,0.672,4.934,2.014c1.343,1.342,2.014,2.988,2.014,4.935C103.837,100.349,103.166,101.995,101.823,103.337z"/>
</g>
</svg>
