<?xml version="1.0" encoding="utf-8"?>
<!-- Generator: Adobe Illustrator 16.0.0, SVG Export Plug-In . SVG Version: 6.00 Build 0)  -->
<!DOCTYPE svg PUBLIC "-//W3C//DTD SVG 1.1//EN" "http://www.w3.org/Graphics/SVG/1.1/DTD/svg11.dtd">
<svg version="1.1" id="Layer_1" xmlns="http://www.w3.org/2000/svg" xmlns:xlink="http://www.w3.org/1999/xlink" x="0px" y="0px"
	 width="300px" height="300px" viewBox="0 0 300 300" enable-background="new 0 0 300 300" xml:space="preserve">
<g>
	<path fill-rule="evenodd" clip-rule="evenodd" fill="#660F17" d="M213.281,55.106c1.234,1.144,2.402,2.38,3.501,3.708
		c2.976-3.479,6.523-6.112,10.644-7.896c-9.979-6.684-21.789-8.012-35.431-3.983C199.96,46.707,207.056,49.429,213.281,55.106z
		 M218.018,60.119c-0.046,0.137-0.183,0.251-0.412,0.343c-0.091,0.228-0.229,0.412-0.411,0.548c-0.137,0.184-0.32,0.229-0.55,0.138
		c-0.319-0.092-0.549-0.207-0.687-0.343c-1.235-1.557-2.563-2.999-3.982-4.326c-6.088-5.677-13.184-8.24-21.285-7.69
		c-3.388,0.273-6.523,1.03-9.408,2.265c-0.228,0.091-0.365,0.138-0.412,0.138c-0.091,0.045-0.229,0.114-0.411,0.205
		c-0.183,0.138-0.412,0.275-0.687,0.412l-0.068,0.138c-3.526,1.694-6.592,4.143-9.201,7.347h-0.138
		c-0.045,0.229-0.206,0.504-0.48,0.825c-4.943,6.271-7.188,13.503-6.729,21.698c0,0.457,0.091,0.892,0.273,1.305v0.137
		c0.274,3.845,1.236,7.37,2.885,10.575l0.137,0.068c1.603,4.669,3.754,9.292,6.455,13.87c8.789,14.328,22.75,27.856,41.885,40.582
		l0.137,0.068c0,0.091,0.091,0.159,0.274,0.205c0.596-0.366,1.19-0.732,1.785-1.099c0.732-0.503,1.465-0.984,2.198-1.441
		c1.694-1.144,3.341-2.267,4.943-3.364c0.779-0.503,1.533-1.03,2.267-1.579c25.817-18.402,39.916-36.507,42.297-54.314
		c0.32-2.563,0.411-5.08,0.274-7.553v-0.137c0-0.458-0.047-1.007-0.138-1.648c0-0.732-0.091-1.419-0.273-2.06
		c-1.055-6.866-4.211-12.68-9.477-17.441c-3.342-3.158-6.981-5.332-10.918-6.523c-0.091,0-0.184,0-0.274,0
		c-0.273-0.137-0.549-0.205-0.824-0.205c-0.228-0.045-0.411-0.068-0.55-0.068c-0.091,0-0.159,0-0.205,0
		c-0.274-0.184-0.526-0.275-0.755-0.275h-0.069c-2.563-0.641-5.172-0.825-7.827-0.55c-2.563,0.229-4.922,0.709-7.072,1.441
		c-0.229,0.093-0.39,0.093-0.48,0c-0.229,0.184-0.413,0.275-0.55,0.275c-0.183,0-0.344,0-0.48,0
		c-0.091,0.138-0.206,0.298-0.343,0.481C224.61,54.076,221.039,56.593,218.018,60.119z M167.001,204.313
		c0-0.092,0.046-0.138,0.137-0.138c0.093-0.137,0.138-0.229,0.138-0.275v-0.616l11.467,3.706l0.344-25.817h-0.068l-11.742-2.403
		v-0.823h0.549l11.398,2.335c0.091,0,0.138,0.068,0.138,0.205l0.068-0.137l10.093-1.854l0.481,0.138v0.687l-9.956,1.992
		l-0.343,26.16l0.068-0.138l10.23-2.334c0,0.092,0.092,0.183,0.275,0.274c0.046,0.047,0.114,0.069,0.205,0.069
		c0.139,0,0.252-0.022,0.344-0.069c0.092-0.092,0.138-0.206,0.138-0.344v-0.137l7.896-1.854v-8.171c-0.55,0-1.1-0.023-1.648-0.068
		c-1.282,2.883-3.137,4.897-5.562,6.041c-0.229,0.092-0.458,0.139-0.687,0.139c-0.091,0-0.206,0-0.343,0h-0.07
		c-0.228-0.139-0.411-0.275-0.549-0.413c-0.047-0.092-0.113-0.183-0.206-0.273v-0.07c-0.184-0.32-0.205-0.664-0.068-1.03
		c0.046-0.182,0.137-0.343,0.274-0.479s0.297-0.252,0.48-0.344c0.139-0.091,0.298-0.184,0.481-0.274
		c0.869-0.596,1.671-1.328,2.403-2.197c-0.825,0.321-1.625,0.571-2.403,0.755c-0.321,0.046-0.641,0.092-0.962,0.138
		c-0.32,0-0.663,0.022-1.029,0.069h-0.068c-0.413,0-0.711-0.093-0.894-0.275c-0.366-0.32-0.55-0.663-0.55-1.029
		c0-0.505,0.139-0.802,0.413-0.894c0.183-0.366,0.503-0.549,0.96-0.549c0.368-0.047,0.757-0.092,1.168-0.138
		c0.321-0.046,0.641-0.114,0.962-0.205c1.006-0.275,1.969-0.687,2.884-1.236c-0.687-1.053-1.648-1.785-2.884-2.197
		c-0.321-0.138-0.641-0.229-0.962-0.274c-0.229-0.092-0.481-0.139-0.755-0.139c-0.413-0.091-0.711-0.273-0.893-0.548
		c-0.32-0.321-0.412-0.664-0.275-1.03c0.047-0.412,0.229-0.709,0.55-0.894c0.32-0.274,0.687-0.366,1.099-0.274
		c0.091,0,0.183,0.022,0.274,0.069c0.321,0.046,0.641,0.114,0.962,0.205c2.563,0.596,4.372,1.9,5.424,3.915v0.068
		c0,0.091,0.023,0.159,0.069,0.205c0.823,0.047,1.626,0.07,2.403,0.07V177.74l-7.896,1.511v-0.618c0-0.091,0-0.16,0-0.206v-0.137
		l5.837-1.168l-12.566-2.747c0.046-0.091,0.115-0.183,0.206-0.273c0-0.138,0-0.252,0-0.344c-0.091-0.138-0.206-0.206-0.343-0.206
		c-0.091-0.091-0.207-0.091-0.344,0l-1.1,0.48l-0.273-0.138c0.137-0.091,0.229-0.206,0.273-0.343
		c0.184-0.184,0.368-0.298,0.55-0.344l14.831,3.365c0.093,0.046,0.16,0.114,0.207,0.205l0.137,0.138l0.344-0.138
		c0.092,0,0.184,0.047,0.274,0.138c0.046-0.184,0.161-0.274,0.344-0.274c0.045,0,0.16,0.091,0.343,0.274c0,0.092,0,0.16,0,0.206
		v3.846c9.293-1.146,15.061-6.478,17.303-15.999v-14.626l-1.373,0.069c-0.183,0-0.344-0.047-0.48-0.138h-0.206
		c-0.229,0.091-0.48,0.091-0.755,0c-0.137-0.137-0.275-0.298-0.412-0.48c-19.408-12.818-33.53-26.551-42.365-41.198
		c-2.746-4.67-4.99-9.338-6.729-14.008c-1.693-3.388-2.724-7.096-3.09-11.123l0.068,0.068c-0.229-0.504-0.344-1.076-0.344-1.716
		c-0.457-8.606,1.924-16.182,7.142-22.728c0.183-0.413,0.412-0.734,0.687-0.962v-0.138c2.793-3.34,6.043-5.882,9.75-7.621
		c0.229-0.275,0.504-0.435,0.825-0.48c0.137-0.184,0.296-0.275,0.479-0.275c0.047-0.045,0.139-0.114,0.275-0.207
		c19.638-9.063,36.049-8.742,49.231,0.962c0.046-0.183,0.138-0.275,0.275-0.275c2.38-0.869,4.874-1.374,7.484-1.51h0.137
		c2.792-0.229,5.447-0.068,7.966,0.48c0.319,0,0.708,0.07,1.167,0.207c0.183,0,0.435,0.046,0.755,0.137
		c0.366,0.093,0.71,0.207,1.03,0.344h0.068l0.138,0.138c16.846,4.257,27.969,11.191,33.371,20.805
		c5.584,9.613,5.377,21.813-0.618,36.599c-0.046,0-0.068,0.022-0.068,0.068c-11.855,20.096-28.289,34.332-49.302,42.71
		c-0.137,0-0.252,0-0.344,0l-5.354,0.137v110.686c0,0.275-0.114,0.505-0.344,0.687c-0.229,0.229-0.503,0.344-0.824,0.344h-7.141
		c-0.274,0-0.526-0.114-0.756-0.344c-0.229-0.182-0.344-0.411-0.344-0.687v-72.37c-4.028,4.119-9.795,6.202-17.303,6.248v8.788
		c-0.091,0.047-0.206,0.115-0.343,0.206l-19.295,4.532c-0.184,0.091-0.274,0.091-0.274,0c-0.137-0.092-0.207-0.183-0.207-0.275
		c-0.137,0.093-0.252,0.138-0.343,0.138c-0.137,0-0.253-0.045-0.344-0.138v-0.068c-0.091,0-0.183,0-0.273,0L167.001,204.313z
		 M198.036,70.762c0.962-0.047,1.764,0.548,2.403,1.785c0.458,0.824,0.687,1.876,0.687,3.159c0,1.282-0.229,2.38-0.687,3.296
		c-0.64,1.189-1.441,1.739-2.403,1.646c-0.961,0.093-1.762-0.457-2.402-1.646c-0.458-0.916-0.688-2.015-0.688-3.296
		c0-1.282,0.229-2.335,0.688-3.159C196.274,71.311,197.075,70.715,198.036,70.762z M258.117,54.626
		c0.734,0.548,1.466,1.212,2.198,1.99c5.493,5.036,8.881,11.193,10.162,18.471c0.047,0.778,0.113,1.557,0.206,2.335
		c0.092,0.55,0.137,1.121,0.137,1.717c0.139,2.655,0.047,5.264-0.274,7.828v0.069c-2.38,18.584-17.097,37.399-44.15,56.441
		c-0.733,0.504-1.487,1.007-2.267,1.511c-1.603,1.099-3.249,2.22-4.943,3.365c-0.093,0.046-0.206,0.114-0.343,0.205l12.702-0.343
		c20.507-8.149,36.576-21.973,48.202-41.474c5.677-14.282,5.904-26,0.687-35.156C276.36,64.444,268.92,58.792,258.117,54.626z
		 M197.281,73.371c-0.32,0.641-0.479,1.419-0.479,2.335c0,0.916,0.159,1.739,0.479,2.471c0.275,0.366,0.526,0.573,0.755,0.619
		c0.229-0.046,0.458-0.252,0.688-0.619c0.365-0.732,0.55-1.556,0.55-2.471c0-0.916-0.185-1.694-0.55-2.335
		c-0.229-0.412-0.458-0.664-0.688-0.755C197.808,72.707,197.557,72.959,197.281,73.371z M237.587,73.096
		c0.962-0.046,1.74,0.55,2.335,1.786c0.457,0.824,0.687,1.876,0.687,3.158c0,1.282-0.229,2.38-0.687,3.295
		c-0.595,1.145-1.373,1.694-2.335,1.648c-1.006,0.046-1.808-0.503-2.403-1.648c-0.503-0.915-0.755-2.013-0.755-3.295
		c0-1.282,0.252-2.334,0.755-3.158C235.779,73.646,236.581,73.05,237.587,73.096z M237.587,74.95
		c-0.273,0.046-0.525,0.275-0.755,0.687c-0.366,0.687-0.549,1.487-0.549,2.403c0,0.915,0.183,1.74,0.549,2.472
		c0.229,0.366,0.481,0.573,0.755,0.618c0.229-0.045,0.459-0.252,0.687-0.618c0.367-0.732,0.55-1.557,0.55-2.472
		c0-0.916-0.183-1.716-0.55-2.403C238.046,75.225,237.816,74.996,237.587,74.95z M211.494,86.966c0,1.235,0.252,2.265,0.757,3.09
		c0.732,1.464,1.717,2.288,2.951,2.471c1.282,0.229,2.496-0.229,3.641-1.373c0.87-0.778,1.487-1.671,1.853-2.678
		c0-0.228,0.185-0.435,0.55-0.618c0.185-0.045,0.39-0.045,0.619,0c0.228,0.092,0.389,0.298,0.479,0.618
		c0.137,0.138,0.137,0.32,0,0.55c-0.411,1.464-1.19,2.678-2.335,3.639v-0.137c-1.464,1.465-3.135,2.037-5.012,1.717
		c-1.832-0.229-3.296-1.305-4.395-3.227c-0.55-1.237-0.894-2.564-1.03-3.983c0-0.229,0.114-0.412,0.344-0.55
		c0.137-0.32,0.32-0.434,0.549-0.343c0.229-0.091,0.458-0.022,0.687,0.207C211.335,86.485,211.449,86.691,211.494,86.966z
		 M196.115,192.435h-0.07c-0.137,0-0.228-0.023-0.273-0.068c-0.138-0.139-0.207-0.252-0.207-0.344c0-0.091,0-0.184,0-0.274
		c-0.961-1.694-2.494-2.838-4.6-3.434c-0.321-0.091-0.641-0.184-0.962-0.275c-0.138-0.045-0.297-0.068-0.481-0.068
		c-0.091,0-0.182,0.046-0.273,0.138h-0.069c-0.046,0.047-0.114,0.16-0.205,0.343c0,0.047,0.045,0.139,0.137,0.275
		c0.047,0.045,0.159,0.115,0.343,0.206c0.185,0,0.366,0.022,0.55,0.068c0.321,0.046,0.641,0.114,0.962,0.207
		c1.738,0.548,2.999,1.532,3.776,2.951l0.068,0.139c0.092,0.045,0.137,0.091,0.137,0.137c0,0.137,0,0.229,0,0.274
		c-0.091,0.092-0.159,0.16-0.205,0.205c-1.146,0.825-2.403,1.396-3.776,1.717c-0.321,0.047-0.641,0.115-0.962,0.207
		c-0.365,0.045-0.733,0.068-1.098,0.068h-0.07c-0.137,0-0.205,0.022-0.205,0.068c-0.047,0.092-0.114,0.161-0.206,0.206
		c-0.046,0.046-0.068,0.137-0.068,0.275c0,0.137,0.068,0.228,0.206,0.274l0.068,0.068h0.275c0.364,0,0.732-0.022,1.098-0.068
		c0.321-0.047,0.641-0.092,0.962-0.138c1.235-0.275,2.403-0.71,3.502-1.305c0.045-0.092,0.137-0.137,0.274-0.137
		c0.046,0,0.137,0.068,0.273,0.206c0.046,0.046,0.07,0.137,0.07,0.273c0,0.047,0,0.139,0,0.275c-1.055,1.877-2.428,3.273-4.12,4.188
		h-0.138c-0.137,0-0.205,0.07-0.205,0.207v0.068c-0.046,0.138-0.046,0.275,0,0.412c0,0.047,0.068,0.092,0.205,0.138
		c0.047,0.046,0.092,0.068,0.138,0.068c0.092,0,0.183-0.022,0.273-0.068c2.335-1.146,4.12-3.112,5.356-5.905
		c0-0.138,0.046-0.206,0.137-0.206c0.092-0.046,0.161-0.068,0.207-0.068h0.068c0.093,0,0.159,0.022,0.206,0.068
		c0.549,0.046,1.099,0.068,1.648,0.068c0.273,0,0.549,0,0.823,0c7.645-0.046,13.412-2.265,17.303-6.66
		c0.825-0.961,1.558-2.014,2.198-3.158c1.876-3.205,3.067-7.21,3.57-12.016c0-0.185,0.068-0.321,0.206-0.413
		c0.092-0.046,0.205-0.068,0.344-0.068c0.137,0,0.229,0.068,0.274,0.206c0.046,0.091,0.068,0.205,0.068,0.344
		c-0.595,5.584-2.082,10.139-4.463,13.664v74.02h4.943V150.206l-4.943,0.137v27.535c0.823-2.426,1.351-5.173,1.578-8.239
		c0-0.184,0.046-0.298,0.139-0.344c0.137-0.093,0.274-0.138,0.412-0.138c0.137,0,0.228,0.068,0.274,0.206
		c0.046,0.137,0.068,0.252,0.068,0.344c0,0.137,0,0.298,0,0.479c-0.366,3.938-1.19,7.371-2.472,10.3
		c-0.641,1.419-1.373,2.724-2.198,3.915c-3.706,5.127-9.475,7.826-17.303,8.102c-0.274,0-0.55,0-0.823,0
		C197.991,192.503,197.075,192.479,196.115,192.435z M216.987,172.453v-3.982c-2.792,7.919-8.559,12.382-17.303,13.389v1.512
		C207.97,182.638,213.738,178.999,216.987,172.453z M216.987,182.753v-8.446c-3.524,5.952-9.291,9.27-17.303,9.956v7.278
		C207.742,191.268,213.509,188.337,216.987,182.753z M172.15,173.208c0,0.046,0.023,0.068,0.068,0.068
		c0,0.185,0.092,0.298,0.275,0.344l0.687,0.412l-13.185,2.266l6.318,1.306c0,0.091,0.046,0.137,0.137,0.137
		c-0.091,0.091-0.137,0.16-0.137,0.206v0.549l-7.073-1.373v23.62l7.073,2.335v0.823l0.137,0.207l-7.828-2.54
		c-0.046-0.093-0.114-0.184-0.205-0.275c-0.093,0-0.139-0.068-0.139-0.206v-24.651c0-0.091,0.046-0.137,0.139-0.137
		c-0.093-0.045-0.139-0.113-0.139-0.206c0-0.137,0.046-0.251,0.139-0.344c0.091-0.182,0.159-0.273,0.205-0.273L172.15,173.208z
		 M173.729,172.865l4.326-0.755c0,0.182,0.046,0.343,0.137,0.479c0.046,0.184,0.115,0.298,0.206,0.344l-3.501,0.687
		C174.44,173.393,174.051,173.14,173.729,172.865z M179.086,172.35l-0.068-0.103v-0.068
		C179.019,172.223,179.041,172.28,179.086,172.35z M181.42,173.758l-1.373-0.481c-0.093-0.137-0.138-0.32-0.138-0.548v-0.275
		l2.198,0.412C181.786,173.14,181.558,173.438,181.42,173.758z M69.36,68.359h-0.069c1.511,2.426,2.586,5.172,3.227,8.24h-2.403
		c-0.549-2.655-1.487-4.99-2.815-7.005c-2.014-3.158-4.463-4.738-7.347-4.738c-2.838,0-5.264,1.58-7.278,4.738
		c-1.328,2.015-2.22,4.35-2.678,7.005h-2.472c0.549-3.067,1.602-5.814,3.158-8.24c2.563-3.938,5.653-5.883,9.27-5.836
		C63.662,62.476,66.797,64.421,69.36,68.359z M93.667,68.907c-1.326,2.105-2.244,4.44-2.747,7.005h-2.334
		c0.504-3.022,1.534-5.768,3.09-8.24c2.564-3.983,5.677-5.929,9.339-5.836c3.707-0.093,6.842,1.853,9.406,5.836h-0.137
		c1.556,2.472,2.631,5.218,3.227,8.24h-2.403c-0.55-2.564-1.488-4.899-2.815-7.005c-2.014-3.067-4.44-4.6-7.278-4.6
		C98.13,64.307,95.682,65.84,93.667,68.907z M91.814,91.018c-0.366,3.113-1.42,5.813-3.159,8.102
		c-2.06,2.885-4.601,4.326-7.623,4.326c-3.111,0-5.722-1.441-7.827-4.326c-1.694-2.288-2.724-4.989-3.09-8.102H91.814z
		 M117.013,63.757c-0.594-0.869-1.213-1.739-1.853-2.608c-2.015-2.976-4.372-5.813-7.073-8.515
		C97.603,42.105,84.9,36.842,69.978,36.842c-14.877,0-27.557,5.264-38.04,15.792C21.456,63.117,16.214,75.796,16.214,90.675
		c0,14.876,5.242,27.58,15.724,38.108c8.834,8.834,19.226,13.961,31.173,15.38c1.053,0.138,2.129,0.229,3.227,0.274
		c1.19,0.092,2.403,0.139,3.639,0.139c0.687,0,1.373-0.023,2.06-0.07c1.099-0.045,2.197-0.113,3.296-0.205
		c12.589-1.146,23.505-6.317,32.752-15.518c5.402-5.402,9.408-11.376,12.017-17.922c2.976-6.316,4.463-13.251,4.463-20.804
		C124.566,80.26,122.049,71.494,117.013,63.757z M109.735,50.986c10.986,10.986,16.479,24.216,16.479,39.688
		s-5.493,28.724-16.479,39.755c-9.75,9.66-21.218,15.06-34.4,16.206v26.709c3.981,5.632,10.596,8.24,19.844,7.828
		c0.045-0.091,0.068-0.159,0.068-0.205v-0.069c1.235-2.334,3.456-3.754,6.66-4.257c0.458-0.046,0.825,0.046,1.099,0.274
		c0.322,0.183,0.504,0.503,0.55,0.962c0.137,0.32,0.045,0.64-0.275,0.96c-0.184,0.321-0.48,0.505-0.892,0.55
		c-2.151,0.321-3.663,1.214-4.533,2.679c1.511,0.914,3.181,1.419,5.013,1.51c0.412,0,0.709,0.184,0.894,0.55
		c0.273,0.137,0.412,0.458,0.412,0.962c0,0.366-0.16,0.687-0.481,0.96c-0.183,0.184-0.503,0.275-0.96,0.275h-0.07
		c-1.51-0.046-2.974-0.344-4.393-0.893c0.641,0.778,1.349,1.442,2.128,1.99c0.502-0.137,1.007-0.25,1.51-0.343
		c0.458-0.092,0.825,0,1.099,0.274c0.322,0.185,0.504,0.481,0.55,0.894c0.137,0.366,0.045,0.709-0.275,1.03
		c-0.184,0.274-0.48,0.457-0.892,0.548c-0.229,0-0.435,0.023-0.618,0.07c-0.184,0.228-0.412,0.411-0.687,0.548h-0.068
		c-0.275,0.046-0.55,0.046-0.825,0c-1.007,0.459-1.785,1.121-2.335,1.992c1.511,0.916,3.181,1.441,5.013,1.579
		c0.412,0,0.709,0.183,0.894,0.549c0.273,0.092,0.412,0.389,0.412,0.894c0,0.366-0.16,0.709-0.481,1.029
		c-0.183,0.183-0.503,0.275-0.96,0.275h-0.07c-1.51-0.047-2.974-0.366-4.393-0.962c0.869,1.053,1.853,1.877,2.952,2.472
		c0.366,0.184,0.595,0.458,0.687,0.823c0.138,0.366,0.114,0.71-0.068,1.03v0.07c-0.182,0.273-0.435,0.503-0.755,0.687h-0.068
		c-0.368,0.045-0.711,0-1.03-0.139c-2.427-1.144-4.281-3.158-5.563-6.041c-8.286,0.457-14.647-1.374-19.088-5.493v74.98
		c0,0.32-0.16,0.596-0.481,0.823c-0.366,0.275-0.778,0.413-1.236,0.413h-8.926c-0.458,0-0.847-0.138-1.167-0.413
		c-0.366-0.228-0.503-0.503-0.412-0.823v-117.69c-12.543-1.419-23.483-6.775-32.821-16.068
		c-10.986-11.032-16.457-24.283-16.411-39.755c-0.046-15.472,5.424-28.702,16.411-39.688C41.276,40,54.506,34.53,69.978,34.575
		C85.496,34.53,98.749,40,109.735,50.986z M94.697,183.302c0.092,0,0.159,0.047,0.207,0.138c0.137,0,0.205,0.046,0.205,0.137
		c0.825,1.924,1.9,3.456,3.228,4.602c0.32-0.139,0.64-0.275,0.961-0.413c-1.054-0.823-1.969-1.899-2.747-3.227
		c0-0.137,0-0.229,0-0.275c0-0.137,0.021-0.228,0.068-0.274c0.137-0.137,0.229-0.205,0.275-0.205c0.137,0,0.228,0.022,0.274,0.068
		c1.695,0.916,3.548,1.441,5.563,1.579h0.274l0.138-0.069c0.091-0.091,0.137-0.183,0.137-0.273c0-0.139-0.023-0.229-0.068-0.275
		c-0.046-0.091-0.116-0.16-0.207-0.206c0-0.046-0.046-0.068-0.137-0.068h-0.137c-2.198-0.137-4.144-0.823-5.836-2.061
		c-0.045-0.045-0.115-0.091-0.207-0.137c0-0.092,0-0.184,0-0.274s0.046-0.161,0.137-0.207l0.07-0.068
		c1.006-1.83,2.792-2.93,5.355-3.296c0.138-0.092,0.252-0.16,0.343-0.205c0.047-0.139,0.068-0.229,0.068-0.275
		c-0.045-0.184-0.114-0.298-0.205-0.343h-0.068c-0.045-0.046-0.138-0.068-0.275-0.068c-2.839,0.457-4.854,1.693-6.043,3.708
		c0,0.137,0,0.228,0,0.273c0,0.138-0.068,0.252-0.205,0.343c-0.046,0.093-0.115,0.139-0.207,0.139h-0.137
		c-9.201,0.457-15.931-1.969-20.188-7.278v2.677c4.303,4.395,10.666,6.387,19.088,5.975c0.091-0.091,0.161-0.138,0.207-0.138H94.697
		z M95.522,192.435c-9.201,0.457-15.931-1.946-20.188-7.21c-1.328-1.648-2.427-3.57-3.296-5.769c-1.053-2.655-1.74-5.745-2.06-9.27
		c0-0.182,0-0.343,0-0.479c0-0.092,0.046-0.207,0.137-0.344c0.046-0.138,0.115-0.206,0.206-0.206c0.138,0,0.275,0.045,0.413,0.138
		c0.091,0.046,0.137,0.16,0.137,0.344c0.229,2.517,0.618,4.807,1.167,6.866v-29.664c-0.687,0-1.374,0-2.06,0
		c-1.236,0-2.449-0.022-3.639-0.068V263.09h5.699v-77.934c-2.151-3.434-3.502-7.782-4.051-13.046c0-0.139,0.022-0.253,0.068-0.344
		c0.092-0.138,0.183-0.206,0.275-0.206c0.137,0,0.274,0.022,0.412,0.068c0.092,0.092,0.138,0.229,0.138,0.413
		c0.458,4.44,1.511,8.217,3.158,11.329c0.916,1.694,2.014,3.204,3.296,4.531c4.303,4.396,10.666,6.362,19.088,5.905
		c0.091-0.046,0.161-0.068,0.207-0.068h0.068c0.092,0,0.159,0.022,0.207,0.068c0.137,0,0.205,0.068,0.205,0.206
		c1.191,2.793,2.953,4.76,5.288,5.905c0.184,0.091,0.32,0.091,0.412,0c0.137-0.046,0.207-0.091,0.207-0.138
		c0.045-0.137,0.045-0.274,0-0.412v-0.068c0-0.137-0.07-0.207-0.207-0.207h-0.068c-1.694-0.914-3.09-2.311-4.188-4.188
		c0-0.137,0-0.229,0-0.275c0-0.137,0.021-0.228,0.068-0.273c0.137-0.138,0.229-0.206,0.275-0.206c0.137,0,0.228,0.045,0.274,0.137
		c1.695,0.916,3.548,1.42,5.563,1.511h0.274l0.138-0.068c0.091-0.047,0.137-0.138,0.137-0.274c0-0.139-0.023-0.229-0.068-0.275
		c-0.046-0.045-0.116-0.114-0.207-0.206c0-0.046-0.046-0.068-0.137-0.068h-0.137c-2.198-0.137-4.144-0.801-5.836-1.992
		c-0.045-0.045-0.115-0.113-0.207-0.205c0-0.045,0-0.138,0-0.274c0-0.046,0.046-0.092,0.137-0.137l0.07-0.139
		c0.549-0.961,1.304-1.717,2.265-2.265c0.321-0.184,0.664-0.344,1.03-0.481c0.275-0.092,0.572-0.183,0.893-0.275
		c0.275-0.091,0.573-0.159,0.892-0.205c0.091,0,0.184,0,0.275,0c0.138-0.091,0.252-0.161,0.343-0.206
		c0.047-0.137,0.068-0.229,0.068-0.275c-0.045-0.183-0.114-0.296-0.205-0.343h-0.068c-0.045-0.092-0.138-0.138-0.275-0.138
		c-0.184,0.046-0.39,0.092-0.618,0.138c-0.412,0.092-0.823,0.206-1.236,0.343c-0.365,0.139-0.708,0.275-1.03,0.413
		c-0.319,0.137-0.617,0.297-0.892,0.48c-0.916,0.641-1.671,1.441-2.267,2.403c0,0.091,0,0.184,0,0.274
		c0,0.092-0.068,0.205-0.205,0.344c-0.046,0.045-0.115,0.068-0.207,0.068H95.522z M95.179,191.541
		c0.045-0.046,0.068-0.114,0.068-0.205v-0.068c0.548-1.053,1.305-1.9,2.265-2.541c-1.235-1.145-2.265-2.608-3.09-4.396
		c-8.286,0.413-14.647-1.441-19.088-5.562v4.945C79.316,189.39,85.93,192,95.179,191.541z"/>
	<path fill-rule="evenodd" clip-rule="evenodd" fill="#FFFFFF" fill-opacity="0.8784" d="M197.281,73.371
		c0.275-0.412,0.526-0.664,0.755-0.755c0.229,0.091,0.458,0.344,0.688,0.755c0.365,0.641,0.55,1.419,0.55,2.335
		c0,0.916-0.185,1.739-0.55,2.471c-0.229,0.366-0.458,0.573-0.688,0.619c-0.229-0.046-0.479-0.252-0.755-0.619
		c-0.32-0.732-0.479-1.556-0.479-2.471C196.802,74.79,196.961,74.012,197.281,73.371z M237.587,74.95
		c0.229,0.046,0.459,0.275,0.687,0.687c0.367,0.687,0.55,1.487,0.55,2.403c0,0.915-0.183,1.74-0.55,2.472
		c-0.228,0.366-0.457,0.573-0.687,0.618c-0.273-0.045-0.525-0.252-0.755-0.618c-0.366-0.732-0.549-1.557-0.549-2.472
		c0-0.916,0.183-1.716,0.549-2.403C237.062,75.225,237.313,74.996,237.587,74.95z M94.697,183.302c0-0.092,0.047-0.183,0.138-0.273
		c0.045-0.229,0.182-0.366,0.412-0.413h0.137c0-0.183,0.047-0.366,0.138-0.549h0.137c0.091,0,0.161-0.046,0.207-0.139
		c0.137-0.091,0.205-0.205,0.205-0.343c0-0.046,0-0.137,0-0.273c1.189-2.015,3.204-3.251,6.043-3.708
		c0.137,0,0.229,0.022,0.275,0.068h0.068c0.091,0.045,0.16,0.159,0.205,0.343c0,0.046-0.021,0.137-0.068,0.275
		c-0.091,0.045-0.205,0.113-0.343,0.205c-2.563,0.366-4.349,1.466-5.355,3.296l-0.07,0.068c-0.091,0.046-0.137,0.116-0.137,0.207
		s0,0.183,0,0.274c0.091,0.046,0.161,0.092,0.207,0.137c1.692,1.237,3.639,1.924,5.836,2.061h0.137c0.091,0,0.137,0.022,0.137,0.068
		c0.091,0.046,0.161,0.115,0.207,0.206c0.045,0.046,0.068,0.137,0.068,0.275c0,0.091-0.046,0.183-0.137,0.273l-0.138,0.069h-0.274
		c-2.014-0.138-3.868-0.663-5.563-1.579c-0.046-0.046-0.137-0.068-0.274-0.068c-0.045,0-0.138,0.068-0.275,0.205
		c-0.047,0.047-0.068,0.138-0.068,0.274c0,0.046,0,0.139,0,0.275c0.778,1.327,1.692,2.403,2.747,3.227
		c-0.322,0.138-0.641,0.274-0.961,0.413c-1.328-1.146-2.403-2.678-3.228-4.602c0-0.091-0.068-0.137-0.205-0.137
		C94.856,183.349,94.79,183.302,94.697,183.302z M94.697,193.739c0-0.139,0.047-0.229,0.138-0.275
		c0.045-0.229,0.182-0.389,0.412-0.479h0.137c0-0.184,0.047-0.366,0.138-0.55h0.137c0.091,0,0.161-0.023,0.207-0.068
		c0.137-0.139,0.205-0.252,0.205-0.344c0-0.091,0-0.184,0-0.274c0.596-0.962,1.351-1.763,2.267-2.403
		c0.275-0.184,0.573-0.344,0.892-0.48c0.322-0.138,0.666-0.274,1.03-0.413c0.413-0.137,0.825-0.251,1.236-0.343
		c0.228-0.046,0.435-0.092,0.618-0.138c0.137,0,0.229,0.046,0.275,0.138h0.068c0.091,0.047,0.16,0.16,0.205,0.343
		c0,0.047-0.021,0.139-0.068,0.275c-0.091,0.045-0.205,0.115-0.343,0.206c-0.091,0-0.184,0-0.275,0
		c-0.319,0.046-0.617,0.114-0.892,0.205c-0.321,0.093-0.618,0.184-0.893,0.275c-0.366,0.138-0.709,0.298-1.03,0.481
		c-0.961,0.548-1.716,1.304-2.265,2.265l-0.07,0.139c-0.091,0.045-0.137,0.091-0.137,0.137c0,0.137,0,0.229,0,0.274
		c0.091,0.092,0.161,0.16,0.207,0.205c1.692,1.191,3.639,1.855,5.836,1.992h0.137c0.091,0,0.137,0.022,0.137,0.068
		c0.091,0.092,0.161,0.161,0.207,0.206c0.045,0.046,0.068,0.137,0.068,0.275c0,0.137-0.046,0.228-0.137,0.274l-0.138,0.068h-0.274
		c-2.014-0.091-3.868-0.595-5.563-1.511c-0.046-0.092-0.137-0.137-0.274-0.137c-0.045,0-0.138,0.068-0.275,0.206
		c-0.047,0.046-0.068,0.137-0.068,0.273c0,0.047,0,0.139,0,0.275c1.099,1.877,2.495,3.273,4.188,4.188h0.068
		c0.137,0,0.207,0.07,0.207,0.207v0.068c0.045,0.138,0.045,0.275,0,0.412c0,0.047-0.07,0.092-0.207,0.138
		c-0.091,0.091-0.228,0.091-0.412,0c-2.335-1.146-4.097-3.112-5.288-5.905c0-0.138-0.068-0.206-0.205-0.206
		C94.856,193.762,94.79,193.739,94.697,193.739z M196.115,192.435c0.137,0.184,0.205,0.366,0.205,0.55h0.068
		c0.229,0.091,0.389,0.251,0.481,0.479c0.045,0.046,0.068,0.137,0.068,0.275c-0.046,0-0.115,0.022-0.207,0.068
		c-0.091,0-0.137,0.068-0.137,0.206c-1.236,2.793-3.021,4.76-5.356,5.905c-0.091,0.046-0.182,0.068-0.273,0.068
		c-0.046,0-0.091-0.022-0.138-0.068c-0.137-0.046-0.205-0.091-0.205-0.138c-0.046-0.137-0.046-0.274,0-0.412v-0.068
		c0-0.137,0.068-0.207,0.205-0.207h0.138c1.692-0.914,3.065-2.311,4.12-4.188c0-0.137,0-0.229,0-0.275
		c0-0.137-0.024-0.228-0.07-0.273c-0.137-0.138-0.228-0.206-0.273-0.206c-0.138,0-0.229,0.045-0.274,0.137
		c-1.099,0.595-2.267,1.029-3.502,1.305c-0.321,0.046-0.641,0.091-0.962,0.138c-0.365,0.046-0.733,0.068-1.098,0.068h-0.275
		l-0.068-0.068c-0.138-0.047-0.206-0.138-0.206-0.274c0-0.139,0.022-0.229,0.068-0.275c0.092-0.045,0.159-0.114,0.206-0.206
		c0-0.046,0.068-0.068,0.205-0.068h0.07c0.364,0,0.732-0.023,1.098-0.068c0.321-0.092,0.641-0.16,0.962-0.207
		c1.373-0.32,2.631-0.892,3.776-1.717c0.046-0.045,0.114-0.113,0.205-0.205c0-0.045,0-0.138,0-0.274
		c0-0.046-0.045-0.092-0.137-0.137l-0.068-0.139c-0.777-1.419-2.038-2.403-3.776-2.951c-0.321-0.093-0.641-0.161-0.962-0.207
		c-0.184-0.046-0.365-0.068-0.55-0.068c-0.184-0.091-0.296-0.161-0.343-0.206c-0.092-0.137-0.137-0.229-0.137-0.275
		c0.091-0.183,0.159-0.296,0.205-0.343h0.069c0.092-0.092,0.183-0.138,0.273-0.138c0.185,0,0.344,0.023,0.481,0.068
		c0.321,0.092,0.641,0.185,0.962,0.275c2.105,0.596,3.639,1.739,4.6,3.434c0,0.091,0,0.184,0,0.274c0,0.092,0.069,0.205,0.207,0.344
		c0.046,0.045,0.137,0.068,0.273,0.068H196.115z M69.978,170.187l-1.236,1.442c-0.138-0.046-0.274-0.068-0.412-0.068
		c-0.092,0-0.183,0.068-0.275,0.206c-0.046,0.091-0.068,0.205-0.068,0.344c0.549,5.264,1.899,9.612,4.051,13.046v77.934h-5.699
		V146.772c1.19,0.046,2.403,0.068,3.639,0.068c0.687,0,1.373,0,2.06,0v29.664c-0.549-2.06-0.938-4.35-1.167-6.866
		c0-0.184-0.046-0.298-0.137-0.344c-0.138-0.093-0.275-0.138-0.413-0.138c-0.091,0-0.16,0.068-0.206,0.206
		c-0.091,0.137-0.137,0.252-0.137,0.344C69.978,169.844,69.978,170.005,69.978,170.187z M95.522,192.435
		c-0.091,0.184-0.138,0.366-0.138,0.55h-0.137c-0.229,0.091-0.366,0.251-0.412,0.479c-0.091,0.046-0.138,0.137-0.138,0.275h-0.068
		c-0.046,0-0.116,0.022-0.207,0.068c-8.422,0.457-14.785-1.51-19.088-5.905c-1.282-1.327-2.38-2.837-3.296-4.531
		c-1.647-3.112-2.701-6.889-3.158-11.329c0-0.185-0.046-0.321-0.138-0.413l1.236-1.442c0.32,3.524,1.007,6.614,2.06,9.27
		c0.87,2.198,1.969,4.12,3.296,5.769C79.591,190.488,86.321,192.892,95.522,192.435z M94.697,183.302h-0.068
		c-0.046,0-0.116,0.047-0.207,0.138c-8.422,0.412-14.785-1.58-19.088-5.975v-2.677c4.256,5.31,10.986,7.735,20.188,7.278
		c-0.091,0.183-0.138,0.366-0.138,0.549h-0.137c-0.229,0.047-0.366,0.184-0.412,0.413C94.744,183.119,94.697,183.21,94.697,183.302z
		 M196.938,193.739c0-0.139-0.023-0.229-0.068-0.275c-0.093-0.229-0.253-0.389-0.481-0.479h-0.068c0-0.184-0.068-0.366-0.205-0.55
		c0.96,0.045,1.876,0.068,2.746,0.068c0.273,0,0.549,0,0.823,0c7.828-0.275,13.597-2.975,17.303-8.102
		c0.825-1.191,1.558-2.496,2.198-3.915c1.281-2.929,2.105-6.362,2.472-10.3c0-0.182,0-0.343,0-0.479
		c0-0.092-0.022-0.207-0.068-0.344c-0.047-0.138-0.138-0.206-0.274-0.206c-0.138,0-0.275,0.045-0.412,0.138
		c-0.093,0.046-0.139,0.16-0.139,0.344c-0.228,3.066-0.755,5.813-1.578,8.239v-27.535l4.943-0.137v109.588h-4.943v-74.02
		c2.381-3.525,3.868-8.08,4.463-13.664c0-0.139-0.022-0.253-0.068-0.344c-0.045-0.138-0.138-0.206-0.274-0.206
		c-0.139,0-0.252,0.022-0.344,0.068c-0.138,0.092-0.206,0.229-0.206,0.413c-0.503,4.806-1.694,8.811-3.57,12.016
		c-0.641,1.145-1.373,2.197-2.198,3.158c-3.891,4.396-9.658,6.614-17.303,6.66c-0.274,0-0.55,0-0.823,0
		c-0.55,0-1.1-0.022-1.648-0.068c-0.047-0.046-0.113-0.068-0.206-0.068H196.938z M216.987,172.453
		c-3.249,6.546-9.018,10.185-17.303,10.918v-1.512c8.744-1.007,14.511-5.47,17.303-13.389V172.453z"/>
	<path fill-rule="evenodd" clip-rule="evenodd" fill="#FEE291" d="M102.868,52.771c0.641,1.19,0.687,2.244,0.137,3.158
		c-0.458,0.87-1.395,1.305-2.815,1.305c-1.374-0.091-2.838-0.548-4.395-1.373c-1.419-0.869-2.472-1.899-3.158-3.09
		c-0.687-1.235-0.778-2.288-0.275-3.159c0.55-0.916,1.511-1.373,2.885-1.373c1.419,0,2.86,0.435,4.325,1.305
		C101.083,50.368,102.182,51.443,102.868,52.771z M79.729,42.472c1.052,0,1.922,0.252,2.608,0.755
		c0.687,0.504,1.03,1.123,1.03,1.855c0,0.732-0.343,1.328-1.03,1.785c-0.687,0.503-1.557,0.755-2.608,0.755
		c-1.008,0-1.877-0.252-2.61-0.755c-0.687-0.457-1.03-1.053-1.03-1.785c0-0.732,0.343-1.351,1.03-1.855
		C77.852,42.724,78.721,42.472,79.729,42.472z M79.729,42.472c-1.008,0-1.877,0.252-2.61,0.755c-0.687,0.504-1.03,1.123-1.03,1.855
		c0,0.732,0.343,1.328,1.03,1.785c0.732,0.503,1.602,0.755,2.61,0.755c1.052,0,1.922-0.252,2.608-0.755
		c0.687-0.457,1.03-1.053,1.03-1.785c0-0.732-0.343-1.351-1.03-1.855C81.651,42.724,80.781,42.472,79.729,42.472z M102.868,52.771
		c-0.687-1.328-1.785-2.403-3.296-3.227c-1.464-0.87-2.906-1.305-4.325-1.305c-1.374,0-2.335,0.457-2.885,1.373
		c-0.503,0.871-0.412,1.923,0.275,3.159c0.687,1.19,1.739,2.221,3.158,3.09c1.557,0.825,3.021,1.282,4.395,1.373
		c1.42,0,2.357-0.435,2.815-1.305C103.555,55.015,103.509,53.962,102.868,52.771z M93.667,68.907c2.015-3.067,4.463-4.6,7.348-4.6
		c2.837,0,5.264,1.533,7.278,4.6c1.327,2.105,2.265,4.44,2.815,7.005h2.403c-0.595-3.022-1.671-5.768-3.227-8.24h0.137
		c-2.564-3.983-5.7-5.929-9.406-5.836c-3.663-0.093-6.775,1.853-9.339,5.836c-1.556,2.472-2.586,5.218-3.09,8.24h2.334
		C91.423,73.348,92.341,71.013,93.667,68.907z M69.36,68.359c-2.563-3.938-5.699-5.883-9.407-5.836
		c-3.616-0.047-6.706,1.899-9.27,5.836c-1.556,2.426-2.609,5.172-3.158,8.24h2.472c0.458-2.655,1.351-4.99,2.678-7.005
		c2.014-3.158,4.439-4.738,7.278-4.738c2.884,0,5.333,1.58,7.347,4.738c1.328,2.015,2.266,4.35,2.815,7.005h2.403
		c-0.641-3.067-1.716-5.814-3.227-8.24H69.36z M91.814,91.018H70.115c0.366,3.113,1.396,5.813,3.09,8.102
		c2.105,2.885,4.716,4.326,7.827,4.326c3.021,0,5.563-1.441,7.623-4.326C90.394,96.832,91.448,94.131,91.814,91.018z
		 M117.013,63.757c5.036,7.737,7.553,16.502,7.553,26.299c0,7.553-1.487,14.488-4.463,20.804
		c-2.609,6.546-6.615,12.521-12.017,17.922c-9.247,9.2-20.163,14.372-32.752,15.518c-1.099,0.092-2.198,0.16-3.296,0.205
		c-0.687,0.047-1.374,0.07-2.06,0.07c-1.236,0-2.449-0.047-3.639-0.139c-1.098-0.045-2.174-0.137-3.227-0.274
		c-11.947-1.419-22.339-6.546-31.173-15.38c-10.482-10.529-15.724-23.232-15.724-38.108c0-14.878,5.242-27.558,15.724-38.041
		c10.483-10.529,23.163-15.792,38.04-15.792c14.922,0,27.625,5.264,38.108,15.792c2.701,2.701,5.059,5.539,7.073,8.515
		C115.799,62.018,116.419,62.889,117.013,63.757z M179.909,172.453v0.275c0,0.228,0.045,0.411,0.138,0.548c0,0.732,0,1.328,0,1.785
		c0.366-0.411,0.823-0.846,1.373-1.304c0.138-0.32,0.366-0.618,0.688-0.893c1.876-2.105,2.814-4.279,2.814-6.523
		c0-2.335-0.343-4.326-1.03-5.973c-0.823-1.374-1.647-2.107-2.472-2.198c-0.915,0.091-1.716,0.824-2.402,2.198
		c-0.825,1.646-1.237,3.638-1.237,5.973c0,0.366,0.047,0.778,0.139,1.236C178.879,168.813,179.544,170.439,179.909,172.453z
		 M167.001,204.313c-0.093,0-0.159,0-0.207,0c-0.184,0-0.274-0.047-0.274-0.138l-0.068-0.068l-0.137-0.207v-0.823v-24.582v-0.549
		c0-0.046,0.046-0.115,0.137-0.206c-0.091,0-0.137-0.046-0.137-0.137c0-0.139,0.046-0.253,0.137-0.344
		c0.047-0.091,0.114-0.138,0.206-0.138l9.545-1.717l-3.021-1.373l-0.687-0.412c-0.184-0.046-0.275-0.159-0.275-0.344
		c-0.045,0-0.068-0.022-0.068-0.068c0-0.091,0.023-0.184,0.068-0.274c0-0.046,0.046-0.068,0.137-0.068
		c-0.228-0.184-0.457-0.344-0.687-0.48c-1.646-1.42-2.768-2.885-3.363-4.395c-0.87-1.648-0.916-2.862-0.138-3.64
		c0.687-0.915,1.969-1.145,3.845-0.687c1.557,0.458,3.136,1.373,4.738,2.746h0.138v-0.068c0-2.426,0.435-4.509,1.304-6.248
		c0.825-1.969,1.9-2.907,3.228-2.814c1.235-0.093,2.312,0.846,3.228,2.814c0.778,1.739,1.168,3.822,1.168,6.248
		c0,2.381-0.871,4.67-2.61,6.866c-0.182,0.046-0.366,0.16-0.55,0.344c-0.045,0.137-0.137,0.252-0.273,0.343
		c0,0.092-0.046,0.16-0.138,0.207l0.411-0.069l1.1-0.48c0.137-0.091,0.253-0.091,0.344,0c0.137,0,0.252,0.068,0.343,0.206
		c0,0.092,0,0.206,0,0.344c-0.091,0.091-0.16,0.183-0.206,0.273h-0.137l-3.847,1.512l10.37,1.991c0.137,0,0.205,0.022,0.205,0.068
		c0.092,0.092,0.138,0.205,0.138,0.344v0.137c0,0.046,0,0.115,0,0.206v0.618v8.102c-0.321-0.091-0.641-0.159-0.962-0.205v-7.828
		v-0.687l-0.481-0.138l-10.779-2.061l-0.137,0.139h-0.069c-0.092,0-0.183,0-0.274,0l-0.481-0.275l-0.411-0.068l-9.545,1.717h-0.549
		v0.823v24.515v0.616c0,0.047-0.045,0.139-0.138,0.275C167.047,204.176,167.001,204.222,167.001,204.313z M190.003,205v-4.532
		c0.138,0.138,0.321,0.274,0.549,0.413h0.07c0.137,0,0.252,0,0.343,0v3.913v0.137c0,0.138-0.046,0.252-0.138,0.344
		c-0.092,0.047-0.205,0.069-0.344,0.069c-0.091,0-0.159-0.022-0.205-0.069C190.095,205.183,190.003,205.092,190.003,205z
		 M190.003,198.614v-1.923c0.321-0.046,0.641-0.092,0.962-0.138v1.442c-0.184,0.091-0.343,0.184-0.481,0.274
		C190.3,198.362,190.141,198.478,190.003,198.614z M190.965,190.237v3.434c-0.321,0.091-0.641,0.159-0.962,0.205v-3.913
		C190.324,190.008,190.644,190.1,190.965,190.237z M179.086,172.35c-0.045-0.069-0.067-0.127-0.068-0.171v0.068L179.086,172.35z
		 M173.729,172.865c0.321,0.274,0.711,0.527,1.168,0.755c0.732,0.32,1.396,0.596,1.991,0.825c0.915,0.228,1.647,0.503,2.197,0.823
		c-0.046-0.458-0.275-1.236-0.688-2.335c-0.091-0.046-0.16-0.16-0.206-0.344c-0.091-0.137-0.137-0.298-0.137-0.479
		c-0.55-1.282-0.894-2.747-1.03-4.396c-0.228-0.229-0.458-0.457-0.687-0.687c-1.648-1.236-3.205-2.128-4.67-2.678
		c-1.327-0.229-2.312-0.068-2.951,0.481c-0.458,0.594-0.412,1.51,0.137,2.746c0.687,1.556,1.809,2.952,3.364,4.188
		C172.678,172.224,173.181,172.59,173.729,172.865z"/>
	<path fill-rule="evenodd" clip-rule="evenodd" fill="#F7ABBC" fill-opacity="0.8196" d="M256.196,59.638
		c0.687,1.146,1.029,2.312,1.029,3.501c0.137,1.146-0.091,1.923-0.687,2.335c-0.732,0.366-1.557,0.207-2.473-0.48
		c-1.006-0.459-1.854-1.305-2.54-2.542c-0.778-1.281-1.213-2.495-1.305-3.638c0-1.053,0.32-1.762,0.961-2.128
		c0.596-0.459,1.373-0.366,2.335,0.273C254.479,57.509,255.371,58.402,256.196,59.638z M259.766,71.449
		c0.229-0.366,0.505-0.55,0.823-0.55c0.322,0,0.55,0.184,0.688,0.55c0.229,0.412,0.343,0.846,0.343,1.304
		c0,0.458-0.114,0.893-0.343,1.305c-0.138,0.366-0.365,0.55-0.688,0.55c-0.318,0-0.595-0.184-0.823-0.55
		c-0.137-0.412-0.206-0.846-0.206-1.305C259.56,72.295,259.629,71.86,259.766,71.449z M218.018,60.119
		c3.021-3.526,6.593-6.043,10.713-7.553c0.137-0.184,0.252-0.343,0.343-0.481c0.137,0,0.298,0,0.48,0c0.137,0,0.32-0.091,0.55-0.275
		c0.091,0.093,0.252,0.093,0.48,0c2.15-0.732,4.509-1.212,7.072-1.441c2.655-0.275,5.264-0.091,7.827,0.55h0.069
		c0.229,0,0.48,0.091,0.755,0.275c0.046,0,0.114,0,0.205,0c0.139,0,0.322,0.023,0.55,0.068c0.275,0,0.551,0.068,0.824,0.205
		c0.091,0,0.184,0,0.274,0c3.937,1.191,7.576,3.365,10.918,6.523c5.266,4.761,8.422,10.575,9.477,17.441
		c0.183,0.641,0.273,1.328,0.273,2.06c0.091,0.641,0.138,1.191,0.138,1.648v0.137c0.137,2.473,0.046,4.99-0.274,7.553
		c-2.381,17.807-16.479,35.912-42.297,54.314c-0.733,0.549-1.487,1.076-2.267,1.579c-1.603,1.098-3.249,2.221-4.943,3.364
		c-0.733,0.457-1.466,0.938-2.198,1.441c-0.595,0.366-1.189,0.732-1.785,1.099c-0.184-0.046-0.274-0.114-0.274-0.205l-0.137-0.068
		c-19.135-12.726-33.096-26.253-41.885-40.582c-2.701-4.577-4.853-9.2-6.455-13.87l-0.137-0.068
		c-1.648-3.205-2.61-6.729-2.885-10.575v-0.137c-0.183-0.413-0.273-0.848-0.273-1.305c-0.459-8.194,1.785-15.427,6.729-21.698
		c0.274-0.32,0.436-0.596,0.48-0.825h0.138c2.609-3.204,5.675-5.653,9.201-7.347l0.068-0.138c0.274-0.137,0.504-0.273,0.687-0.412
		c0.183-0.091,0.32-0.16,0.411-0.205c0.047,0,0.185-0.047,0.412-0.138c2.885-1.235,6.021-1.992,9.408-2.265
		c8.102-0.55,15.197,2.013,21.285,7.69c1.419,1.328,2.747,2.769,3.982,4.326c0.138,0.137,0.367,0.251,0.687,0.343
		c0.229,0.091,0.413,0.046,0.55-0.138c0.183-0.137,0.32-0.32,0.411-0.548C217.835,60.37,217.972,60.256,218.018,60.119z
		 M213.281,55.106c-6.226-5.677-13.321-8.399-21.286-8.171c13.642-4.028,25.451-2.701,35.431,3.983
		c-4.12,1.785-7.668,4.417-10.644,7.896C215.684,57.486,214.516,56.25,213.281,55.106z M256.196,59.638
		c-0.825-1.235-1.717-2.128-2.679-2.678c-0.962-0.64-1.739-0.732-2.335-0.273c-0.641,0.366-0.961,1.076-0.961,2.128
		c0.092,1.144,0.526,2.357,1.305,3.638c0.687,1.236,1.534,2.083,2.54,2.542c0.916,0.687,1.74,0.846,2.473,0.48
		c0.596-0.412,0.823-1.189,0.687-2.335C257.226,61.95,256.883,60.783,256.196,59.638z M258.117,54.626
		c10.803,4.166,18.243,9.818,22.316,16.959c5.218,9.156,4.99,20.874-0.687,35.156c-11.626,19.5-27.695,33.324-48.202,41.474
		l-12.702,0.343c0.137-0.091,0.25-0.159,0.343-0.205c1.694-1.146,3.341-2.267,4.943-3.365c0.779-0.504,1.533-1.007,2.267-1.511
		c27.054-19.042,41.771-37.857,44.15-56.441v-0.069c0.321-2.564,0.413-5.172,0.274-7.828c0-0.596-0.045-1.167-0.137-1.717
		c-0.093-0.778-0.159-1.557-0.206-2.335c-1.281-7.278-4.669-13.435-10.162-18.471C259.583,55.838,258.852,55.174,258.117,54.626z
		 M198.036,70.762c-0.961-0.047-1.762,0.548-2.402,1.785c-0.458,0.824-0.688,1.876-0.688,3.159c0,1.282,0.229,2.38,0.688,3.296
		c0.641,1.189,1.441,1.739,2.402,1.646c0.962,0.093,1.764-0.457,2.403-1.646c0.458-0.916,0.687-2.015,0.687-3.296
		c0-1.282-0.229-2.335-0.687-3.159C199.8,71.311,198.998,70.715,198.036,70.762z M259.766,71.449
		c-0.137,0.412-0.206,0.846-0.206,1.304c0,0.458,0.069,0.893,0.206,1.305c0.229,0.366,0.505,0.55,0.823,0.55
		c0.322,0,0.55-0.184,0.688-0.55c0.229-0.412,0.343-0.846,0.343-1.305c0-0.458-0.114-0.892-0.343-1.304
		c-0.138-0.366-0.365-0.55-0.688-0.55C260.271,70.899,259.994,71.083,259.766,71.449z M237.587,73.096
		c-1.006-0.046-1.808,0.55-2.403,1.786c-0.503,0.824-0.755,1.876-0.755,3.158c0,1.282,0.252,2.38,0.755,3.295
		c0.596,1.145,1.397,1.694,2.403,1.648c0.962,0.046,1.74-0.503,2.335-1.648c0.457-0.915,0.687-2.013,0.687-3.295
		c0-1.282-0.229-2.334-0.687-3.158C239.327,73.646,238.549,73.05,237.587,73.096z M211.494,86.966
		c-0.045-0.275-0.159-0.481-0.343-0.618c-0.229-0.229-0.458-0.297-0.687-0.207c-0.229-0.091-0.412,0.023-0.549,0.343
		c-0.229,0.138-0.344,0.321-0.344,0.55c0.137,1.418,0.48,2.746,1.03,3.983c1.099,1.922,2.563,2.997,4.395,3.227
		c1.877,0.32,3.548-0.252,5.012-1.717v0.137c1.145-0.96,1.924-2.174,2.335-3.639c0.137-0.229,0.137-0.412,0-0.55
		c-0.091-0.32-0.252-0.526-0.479-0.618c-0.229-0.045-0.435-0.045-0.619,0c-0.365,0.184-0.55,0.39-0.55,0.618
		c-0.365,1.007-0.982,1.9-1.853,2.678c-1.145,1.144-2.358,1.603-3.641,1.373c-1.234-0.184-2.219-1.007-2.951-2.471
		C211.746,89.231,211.494,88.202,211.494,86.966z M184.235,174.375l12.566,2.747l-5.837,1.168c0-0.139-0.046-0.252-0.138-0.344
		c0-0.046-0.068-0.068-0.205-0.068l-10.37-1.991l3.847-1.512H184.235z M182.655,174.032l-0.411,0.069
		c0.092-0.047,0.138-0.115,0.138-0.207L182.655,174.032z M190.003,205l-10.23,2.334l-0.068,0.138l0.343-26.16l9.956-1.992v7.828
		c-0.092-0.047-0.184-0.069-0.274-0.069c-0.412-0.092-0.778,0-1.099,0.274c-0.32,0.185-0.503,0.481-0.55,0.894
		c-0.137,0.366-0.045,0.709,0.275,1.03c0.182,0.274,0.479,0.457,0.893,0.548c0.273,0,0.526,0.047,0.755,0.139v3.913
		c-0.411,0.046-0.8,0.091-1.168,0.138c-0.457,0-0.777,0.183-0.96,0.549c-0.274,0.092-0.413,0.389-0.413,0.894
		c0,0.366,0.184,0.709,0.55,1.029c0.183,0.183,0.48,0.275,0.894,0.275h0.068c0.366-0.047,0.709-0.069,1.029-0.069v1.923
		c-0.138,0.137-0.229,0.298-0.274,0.479c-0.137,0.366-0.115,0.71,0.068,1.03v0.07c0.093,0.091,0.159,0.182,0.206,0.273V205z
		 M190.965,187.353v-8.102l7.896-1.511v13.871c-0.777,0-1.58-0.023-2.403-0.07c-0.046-0.046-0.069-0.114-0.069-0.205v-0.068
		C195.337,189.253,193.527,187.948,190.965,187.353z M190.965,193.671v-3.434c1.235,0.412,2.197,1.145,2.884,2.197
		C192.934,192.984,191.971,193.396,190.965,193.671z M190.965,196.554c0.778-0.184,1.578-0.434,2.403-0.755
		c-0.732,0.869-1.534,1.602-2.403,2.197V196.554z M190.965,204.794v-3.913c0.229,0,0.457-0.047,0.687-0.139
		c2.425-1.144,4.279-3.158,5.562-6.041c0.549,0.045,1.099,0.068,1.648,0.068v8.171L190.965,204.794z M167.275,203.284V178.77
		l11.742,2.403h0.068l-0.344,25.817L167.275,203.284z M167.824,177.946l9.545-1.717l0.411,0.068l0.481,0.275
		c0.092,0,0.183,0,0.274,0h0.069l0.137-0.139l10.779,2.061l-10.093,1.854l-0.068,0.137c0-0.137-0.047-0.205-0.138-0.205
		L167.824,177.946z M166.314,178.495v24.582l-7.073-2.335v-23.62L166.314,178.495z M166.314,177.604l-6.318-1.306l13.185-2.266
		l3.021,1.373l-9.545,1.717c-0.092,0-0.159,0.047-0.206,0.138C166.36,177.351,166.314,177.465,166.314,177.604z M180.047,173.276
		l1.373,0.481c-0.55,0.458-1.007,0.893-1.373,1.304C180.047,174.604,180.047,174.009,180.047,173.276z M174.897,173.62l3.501-0.687
		c0.412,1.099,0.642,1.877,0.688,2.335c-0.55-0.32-1.282-0.596-2.197-0.823C176.293,174.216,175.63,173.94,174.897,173.62z"/>
</g>
</svg>
