<?xml version="1.0" encoding="utf-8"?>
<!-- Generator: Adobe Illustrator 16.0.0, SVG Export Plug-In . SVG Version: 6.00 Build 0)  -->
<!DOCTYPE svg PUBLIC "-//W3C//DTD SVG 1.1//EN" "http://www.w3.org/Graphics/SVG/1.1/DTD/svg11.dtd">
<svg version="1.1" id="Layer_1" xmlns="http://www.w3.org/2000/svg" xmlns:xlink="http://www.w3.org/1999/xlink" x="0px" y="0px"
	 width="300px" height="300px" viewBox="0 0 300 300" enable-background="new 0 0 300 300" xml:space="preserve">
<g>
	<path fill-rule="evenodd" clip-rule="evenodd" fill="#010101" d="M284.604,113.911c-38.416,12.575-52.375,24.704-41.874,36.384
		c-27.234,1.65-38.521,7.59-33.856,17.816c-19.304,0.896-28.687,8.79-28.147,23.681c-7.75-0.86-14.929,0.037-21.529,2.691v-7.535
		c13.885-11.339,18.909-19.036,15.07-23.089c26.614-30.366,63.394-47.624,110.337-51.778c2.482-0.214,4.994-0.393,7.535-0.539
		C289.531,112.337,287.021,113.126,284.604,113.911z M103.597,168.111c4.665-10.227-6.62-16.166-33.854-17.816
		c11.16-12.414-5.311-25.332-49.409-38.753c50.557,2.908,89.848,20.345,117.873,52.317c-3.164,3.34-0.311,9.153,8.556,17.438
		c1.896,1.771,4.068,3.653,6.514,5.65v7.535c-2.112-0.849-4.284-1.521-6.514-2.018c-4.74-1.034-9.744-1.259-15.016-0.674
		C132.286,176.901,122.902,169.007,103.597,168.111z"/>
</g>
</svg>
