<?xml version="1.0" encoding="utf-8"?>
<!-- Generator: Adobe Illustrator 16.0.0, SVG Export Plug-In . SVG Version: 6.00 Build 0)  -->
<!DOCTYPE svg PUBLIC "-//W3C//DTD SVG 1.1//EN" "http://www.w3.org/Graphics/SVG/1.1/DTD/svg11.dtd">
<svg version="1.1" id="Layer_1" xmlns="http://www.w3.org/2000/svg" xmlns:xlink="http://www.w3.org/1999/xlink" x="0px" y="0px"
	 width="400px" height="400px" viewBox="0 0 400 400" enable-background="new 0 0 400 400" xml:space="preserve">
<g>
	<path fill-rule="evenodd" clip-rule="evenodd" fill="#24225D" d="M106.883,231.081c0.908,0.023,2.531-0.953,4.87-2.929
		c3.52-2.135,7.414-2.917,11.682-2.35c3.701,0.158,5.858,1.34,6.471,3.542c0.318,1.18,0.205,2.645-0.34,4.393
		c-0.386,1.817-1.067,3.315-2.044,4.496c0.727,0.568,1.34,0,1.839-1.702c0.228-2.476,1.169-3.747,2.827-3.815
		c1.953,0,3.599,0.942,4.938,2.827c1.407-2.043,3.008-3.099,4.802-3.168c0.59,3.611,2.418,5.37,5.483,5.279
		c1.113-0.499,2.327-0.76,3.645-0.783v85.624c-1.34-0.727-2.68-1.249-4.02-1.567l-2.895,4.905c-3.564-0.727-6.494-2.827-8.787-6.301
		l-4.938-10.797l-1.09,6.063l-10.626-8.14c-4.451-3.815-7.527-7.13-9.23-9.945c-1.317-3.951-2.043-7.731-2.18-11.342
		c-0.205,0.022-0.42,0.012-0.647-0.034c-0.363,4.292-1.056,7.539-2.077,9.741l-21.491-17.54c-4.246-1.999-7.664-5.03-10.252-9.095
		c-0.477-1.748-1.215-3.224-2.214-4.428l-9.502-5.143c-5.495-2.361-8.719-5.279-9.672-8.753c-0.522-2.157-0.806-3.996-0.852-5.518
		c0,3.838-5.427,1.806-16.28-6.097c-6.834-5.585-10.172-10.172-10.013-13.759c-0.727-4.928,5.143-4.928,17.608,0
		c4.087,0.294,7.209,2.372,9.366,6.232c6.199-3.747,12.012-4.928,17.438-3.543c1.34,1.612,4.042,1.397,8.106-0.646
		c3.065-1.044,5.949-1.169,8.65-0.375c1.362,1.067,2.611,1.578,3.747,1.532c4.814-4.2,10.047-4.756,15.701-1.668
		C106.134,226.938,106.792,228.538,106.883,231.081z M81.441,152.78l11.478-6.709c5.427-4.746,9.117-7.164,11.069-7.255
		c0.885,0.341,2.702,0.488,5.449,0.443c-0.045-3.179,1.339-5.541,4.155-7.084c6.29-6.313,11.875-5.96,16.757,1.056
		c0.091,0.25,0.182,0.5,0.272,0.75c0.84,2.179,2.225,3.871,4.155,5.074c-1.044-1.657-1.987-3.349-2.827-5.074
		c-1.294-2.725-2.327-5.552-3.099-8.481c0.636-0.999,1.782-1.896,3.44-2.69c5.54-4.087,10.581-4.995,15.122-2.725
		c0.159-3.315,1.374-5.325,3.645-6.028v84.125c-0.636-0.454-1.215-0.965-1.737-1.532c-0.432-0.454-0.817-0.954-1.158-1.499
		c-1.612-4.519-3.02-9.003-4.224-13.453c-0.045-0.159-0.091-0.318-0.136-0.477c-0.272-1.817-0.896-3.247-1.873-4.292l1.294,21.56
		c-7.925,0.817-14.282-0.92-19.073-5.211c-1.658-2.157-3.02-4.416-4.087-6.778c-0.272-2.521-2.441-5.028-6.505-7.526
		c2.043,3.451,3.758,7.163,5.143,11.137c2.611,4.474,1.544,7.8-3.202,9.979c-3.383,1.294-6.562,1.987-9.537,2.077
		c-3.133-0.726-6.607-2.055-10.422-3.984c2.339,3.655,0.397,5.744-5.824,6.267l-9.434,3.201c-2.361,1.749-5.813,0.421-10.354-3.984
		l-7.016-5.619c0.477,1.452,1.056,2.475,1.737,3.064c0.885-0.068,1.408,1.511,1.566,4.734l-20.23,1.635
		c-3.86,0.658-6.857,1.602-8.992,2.827c-0.772,1.566-4.655,2.498-11.648,2.793c-3.678-0.205-5.699-1.294-6.063-3.27l-0.034-1.431
		c2.429-6.131,4.904-10.218,7.425-12.261l5.824-4.53c1.59-1.453,3.61-3.065,6.063-4.836l6.846-3.406l5.041-5.96
		c1.566,1.771,3.326,0.124,5.279-4.939c0.5-1.703,2.792-2.611,6.88-2.725l3.133-5.348l1.976-2.248
		c-0.364-0.137,0.749-0.67,3.337-1.601C73.959,157.912,77.422,155.323,81.441,152.78z"/>
	<path fill-rule="evenodd" clip-rule="evenodd" fill="#D4DBCD" d="M102.728,139.123c0.182-0.068,0.363-0.125,0.545-0.17
		c0.023-0.023,0.057-0.034,0.102-0.034c0.205-0.068,0.409-0.103,0.613-0.103c0.022,0.023,0.057,0.034,0.102,0.034l-2.827,2.043
		l0.477-1.329c0.25-0.135,0.5-0.249,0.749-0.34L102.728,139.123z M78.512,154.721c0.318-0.227,0.636-0.442,0.954-0.646h0.068
		l0.034-0.068c0.113-0.091,0.239-0.17,0.375-0.238l1.839-1.192l0.511,1.499h4.257l-3.474,2.554l1.294,4.121l-3.474-2.554
		l-3.474,2.554l1.362-4.121l-1.464-1.09c0.091-0.068,0.193-0.137,0.306-0.205L78.512,154.721z M89.684,147.978l3.235-1.907
		c0.432-0.386,0.863-0.75,1.294-1.09c0.295-0.272,0.602-0.533,0.919-0.783h2.759l-3.474,2.486l1.294,4.087l-3.474-2.486
		l-3.508,2.486L89.684,147.978z M99.083,154.075h4.326l1.396-4.087l1.295,4.087h4.291l-3.44,2.554l1.26,4.121l-3.406-2.554
		l-3.542,2.554l1.362-4.121L99.083,154.075z M122.959,134.218h4.292l1.192-3.372c0.227,0.25,0.466,0.522,0.715,0.817l0.784,2.555
		h0.783c0.272,0.681,0.613,1.317,1.022,1.907l-0.954,0.715l1.294,4.053l-3.406-2.554l-3.542,2.554l1.362-4.053L122.959,134.218z
		 M119.587,130.949l-2.384-1.703c0.544-0.34,1.079-0.613,1.601-0.817L119.587,130.949z M106.508,139.225
		c0.364,0,0.761,0.012,1.192,0.035l0.511,1.634l-2.282-1.703C106.111,139.19,106.304,139.202,106.508,139.225z M110.391,144.198
		h4.359l1.362-4.189l1.294,4.189h4.326l-3.44,2.486l1.294,4.087l-3.474-2.486l-3.542,2.486l1.362-4.087L110.391,144.198z
		 M122.959,154.075h4.292l1.43-4.087l1.26,4.087h4.325l-3.474,2.554l1.294,4.121l-3.406-2.554l-3.542,2.554l1.362-4.121
		L122.959,154.075z M139.988,128.462l-3.542,2.487l1.362-4.121l-3.542-2.486h4.36l1.362-4.155l1.26,4.155h4.359l-3.542,2.486
		l1.362,4.121L139.988,128.462z M132.087,134.218h2.179l-1.566,1.192C132.473,135.024,132.268,134.626,132.087,134.218z
		 M137.809,146.684l-3.542-2.486h4.36l1.362-4.189l1.26,4.189h4.359l-3.542,2.486l1.362,4.087l-3.44-2.486l-3.542,2.486
		L137.809,146.684z M151.058,133.98h137.802c0.522,1.362,0.408,2.895-0.341,4.598c-3.201,4.087-4.099,7.516-2.69,10.285
		c0.885-0.068,1.839-0.896,2.86-2.486c1.453-6.085,4.405-9.161,8.855-9.23c0.817,1.408,2.452,2.577,4.905,3.508
		c1.656,1.067,2.985,2.225,3.984,3.474c0.159,1.339,2.293,2.509,6.403,3.508c1.521,0.363,2.951,0.817,4.291,1.362h-166.07V133.98z
		 M316.617,196.699v-0.051h0.103C316.685,196.667,316.651,196.684,316.617,196.699z M373.973,208.33
		c1.271,1.044,2.009,2.157,2.214,3.338h-18.563c0.908-0.5,2.634-1.203,5.177-2.112C365.685,205.605,369.408,205.197,373.973,208.33z
		 M372.917,197.771c-0.932-0.408-1.817-0.782-2.657-1.123h9.469C378.456,198.282,376.187,198.657,372.917,197.771z M367.876,179.414
		c1.612-0.363,3.439,0.397,5.483,2.282h-75.542c-0.092-0.977-0.148-1.987-0.171-3.031c-0.568,0.999-1.066,2.01-1.499,3.031h-13.793
		c0.771-2.747,0.204-4.769-1.703-6.063l-1.976,6.063h-50.237c-0.045-0.477-0.079-0.954-0.102-1.431l-0.647,0.136
		c0,0.432,0,0.863,0,1.295h-32.254c-0.318-0.545-0.829-1.056-1.533-1.532c-0.113,0.499-0.216,1.01-0.307,1.532h-28.405
		c-0.205-1.317-0.318-2.736-0.341-4.258l-0.545-0.068l0.272,4.326h-13.521v-15.02h197.745c0.932,1.363,2.327,3.088,4.189,5.177
		C355.172,175.713,360.133,178.233,367.876,179.414z M328.401,198.352c0.068-0.591,0.125-1.158,0.17-1.703h17.915
		c-0.727,0.386-1.589,0.737-2.588,1.056L328.401,198.352z M296.012,296.031c-5.653,3.429-10.275,7.016-13.862,10.763
		c-0.567,1.09-1.283,2.089-2.146,2.997h-34.297l-0.17-2.69c-0.454,0.454-0.761,1.351-0.92,2.69h-79.254
		c-0.023-0.09-0.034-0.182-0.034-0.272h-0.579c0,0.091,0,0.183,0,0.272h-13.691v-15.02H298.26
		C297.556,295.271,296.806,295.69,296.012,296.031z M193.972,240.481c-0.227,1.317-0.432,2.611-0.613,3.883h-14.032
		c0.409-0.772,0.863-1.385,1.362-1.839C181.302,241.436,185.729,240.754,193.972,240.481z M214.032,243.444
		c-0.34-4.745,1.441-7.05,5.347-6.913c4.881,0.454,8.548,2.554,11.001,6.301c0.091,0.521,0.193,1.033,0.306,1.532h-35.285
		c-0.681-7.152,3.52-8.878,12.602-5.177C208.98,241.345,210.99,242.764,214.032,243.444z M193.222,196.648
		c0.636,5.676,0.17,10.24-1.396,13.691c-4.223,1.044-7.675-0.647-10.354-5.075c-0.5-3.133-1.499-6.006-2.998-8.616H193.222z
		 M205.585,211.668h-6.574c-0.59-0.908-1.01-2.226-1.26-3.95c-0.477-3.043-0.749-6.256-0.817-9.64c0-0.477-0.011-0.954-0.034-1.43
		h29.053c-0.772,2.406-1.806,4.041-3.1,4.903c-3.655,0.25-7.503,1.874-11.545,4.871C209.15,208.784,207.243,210.532,205.585,211.668
		z M322.305,271.032c-2.77-0.749-5.029,0.012-6.777,2.282c-0.25,1.203-0.636,2.463-1.158,3.78H151.058v-15.02h41.177
		c0,0.045,0,0.079,0,0.102c0.295,1.044,0.908,1.862,1.839,2.453c0.045-0.863,0.102-1.715,0.17-2.555h137.019
		C328.628,266.685,325.643,269.67,322.305,271.032z M350.268,237.484l-3.883,0.613c-0.409-0.817-0.738,0.386-0.988,3.61
		c-0.727,0.907-1.441,1.794-2.146,2.656H233.616c-0.909-2.406-1.715-4.598-2.419-6.573c-3.655-4.382-0.068-7.198,10.763-8.446
		h48.057c0.204,0.931,1.861,1.362,4.973,1.294c-0.977-0.295-1.828-0.727-2.555-1.294h33.82c1.657,2.565,3.371,4.473,5.143,5.722
		c-1.021-2.111-1.646-4.019-1.873-5.722h28.474c-1.59,1.34-2.815,2.452-3.679,3.337
		C353.548,234.907,352.197,236.508,350.268,237.484z M143.428,170.627l-3.44-2.486l-3.542,2.486l1.362-4.087l-3.542-2.521h4.36
		l1.362-4.155l1.26,4.155h4.359l-3.542,2.521L143.428,170.627z M137.809,186.362l-3.542-2.486h4.36l1.362-4.155l1.26,4.155h1.09
		l0.136,2.214l-0.409,0.272l0.545,1.601l0.102,2.009l-2.725-1.975l-3.542,2.486L137.809,186.362z M144.654,184.217
		c-0.023-0.046-0.034-0.091-0.034-0.137c-0.022-0.068-0.045-0.136-0.068-0.204h1.056l-0.886,0.646
		C144.7,184.409,144.677,184.308,144.654,184.217z M158.244,223.009h0.137v0.273L158.244,223.009z M151.058,196.648h14.373
		l0.238,4.223c-6.448,0.545-11.319-0.352-14.611-2.69V196.648z M177.726,196.648c0.5,5.108-1.51,8.275-6.029,9.502
		c-2.521-1.294-4.03-4.121-4.53-8.48c-0.022-0.341-0.034-0.681-0.034-1.021H177.726z M121.733,164.02l-3.44,2.521l1.294,4.087
		l-3.474-2.486l-3.542,2.486l1.362-4.087l-3.542-2.521h4.359l1.362-4.155l1.294,4.155H121.733z M116.113,179.721l0.443,1.362
		c-0.227-0.182-0.465-0.363-0.715-0.545L116.113,179.721z M104.805,178.018l-3.542,2.555l1.362-4.087l-3.542-2.555h4.326
		l1.396-4.121l1.295,4.121h4.291l-3.44,2.555l1.26,4.087L104.805,178.018z M113.934,186.362l-3.542-2.486h4.359l0.579-1.703
		c1.226,2.407,2.316,4.938,3.27,7.595l-2.486-1.771l-3.542,2.486L113.934,186.362z M125.139,180.572l1.362-4.087l-3.542-2.555h4.292
		l1.43-4.121l1.26,4.121h4.325l-3.474,2.555l1.294,4.087l-3.406-2.555L125.139,180.572z M119.11,183.876h2.623l-1.941,1.431
		C119.632,184.829,119.405,184.353,119.11,183.876z M94.417,166.54l1.294,4.087l-3.474-2.486l-3.508,2.486l1.362-4.087l-3.542-2.521
		h4.36l1.328-4.155l1.294,4.155h4.359L94.417,166.54z M84.37,180.572l-3.474-2.555l-3.474,2.555l1.362-4.087l-3.474-2.555h4.224
		l1.362-4.121l1.396,4.121h4.257l-3.474,2.555L84.37,180.572z M92.238,187.997l-3.508,2.486l1.362-4.121l-3.542-2.486h4.36
		l1.328-4.155l1.294,4.155h4.359l-3.474,2.486l1.294,4.121L92.238,187.997z M97.278,192.118h4.36l1.328-4.155l1.294,4.155h4.359
		l-3.474,2.486l1.294,4.121l-3.474-2.486l-3.508,2.486l1.362-4.121L97.278,192.118z M83.076,196.342l1.294,4.087l-3.474-2.555
		l-3.474,2.555l1.362-4.087l-3.474-2.589h4.224l1.362-4.087l1.396,4.087h4.257L83.076,196.342z M126.365,194.979
		c-0.386-0.25-0.749-0.511-1.09-0.784c-0.045-0.022-0.08-0.045-0.102-0.067c-0.045-0.022-0.08-0.046-0.103-0.068
		c-0.068-0.046-0.125-0.091-0.17-0.136c-0.068-0.069-0.136-0.125-0.204-0.171h2.555l1.43-4.087l1.26,4.087h4.325l-3.474,2.589
		l0.341,1.021c-0.091-0.022-0.182-0.057-0.273-0.103c-0.704-0.249-1.374-0.533-2.009-0.852
		C127.965,196.001,127.137,195.524,126.365,194.979z M122.414,233.295l-3.44,2.486l1.294,4.122l-3.474-2.487l-3.542,2.487
		l1.362-4.122l-3.542-2.486h4.359l1.362-4.155l1.294,4.155H122.414z M108.893,249.848l-3.406-2.555l-3.542,2.555l1.362-4.053
		l-3.542-2.622h4.326l1.396-4.088l1.294,4.088h4.291l-3.44,2.622L108.893,249.848z M115.432,253.151l1.362-4.189l1.294,4.189h4.326
		l-3.44,2.486l1.294,4.087l-3.474-2.486l-3.542,2.486l1.362-4.087l-3.542-2.486H115.432z M127.182,245.795l-3.542-2.622h4.292
		l1.43-4.088l1.26,4.088h4.325l-3.474,2.622l1.294,4.053l-3.406-2.555l-3.542,2.555L127.182,245.795z M95.099,235.781l1.294,4.122
		l-3.474-2.487l-3.508,2.487l1.362-4.122l-3.542-2.486h4.359l1.328-4.155l1.294,4.155h4.359L95.099,235.781z M87.231,243.173
		l-3.474,2.622l1.294,4.053l-3.474-2.555l-3.474,2.555l1.362-4.053l-3.474-2.622h4.224l1.362-4.088l1.396,4.088H87.231z
		 M94.213,253.151h4.359l-3.474,2.486l1.294,4.087l-3.474-2.486l-3.508,2.486l1.362-4.087l-3.542-2.486h4.359l1.328-4.189
		L94.213,253.151z M98.573,272.974l-3.474,2.521l1.294,4.087l-3.474-2.486l-3.508,2.486l1.362-4.087l-3.542-2.521h4.359l1.328-4.155
		l1.294,4.155H98.573z M103.307,265.583l-3.542-2.555h4.326l1.396-4.087l1.294,4.087h4.291l-3.44,2.555l1.26,4.121l-3.406-2.555
		l-3.542,2.555L103.307,265.583z M83.757,265.583l1.294,4.121l-3.474-2.555l-3.474,2.555l1.362-4.121l-3.474-2.555h4.224
		l1.362-4.087l1.396,4.087h4.258L83.757,265.583z M99.765,282.885h4.326l1.396-4.121l1.294,4.121h4.291l-3.44,2.555l1.26,4.087
		l-3.406-2.555l-3.542,2.555l1.362-4.087L99.765,282.885z M122.414,272.974l-3.44,2.521l1.294,4.087l-3.474-2.486l-3.542,2.486
		l1.362-4.087l-3.542-2.521h4.359l1.362-4.155l1.294,4.155H122.414z M130.622,263.028h4.325l-3.474,2.555l1.294,4.121l-3.406-2.555
		l-3.542,2.555l1.362-4.121l-3.542-2.555h4.292l1.43-4.087L130.622,263.028z M125.82,289.526l1.362-4.087l-3.542-2.555h4.292
		l1.43-4.121l1.26,4.121h4.325l-3.474,2.555l1.294,4.087l-3.406-2.555L125.82,289.526z M159.572,240.277
		c1.793-2.43,4.575-3.724,8.344-3.883c6.017,0.567,9.06,1.885,9.128,3.951l-0.034,4.019h-25.953v-7.493
		c1.021-0.022,2.1,0.079,3.235,0.307L159.572,240.277z M142.134,233.295c0.205,0.886,0.511,1.646,0.92,2.282l-0.307,0.204
		l1.362,4.122l-3.44-2.487l-3.542,2.487l1.362-4.122l-1.022-0.715c0.568-0.749,1.169-1.34,1.805-1.771h0.034l0.034-0.033
		c0.726-0.5,1.499-0.784,2.316-0.852l0.272,0.885H142.134z M140.669,248.962l1.26,4.189h4.359l-3.542,2.486l1.362,4.087l-3.44-2.486
		l-3.542,2.486l1.362-4.087l-3.542-2.486h4.36L140.669,248.962z M140.669,268.818l1.26,4.155h4.359l-3.542,2.521l1.362,4.087
		l-3.44-2.486l-3.542,2.486l1.362-4.087l-3.542-2.521h4.36L140.669,268.818z M75.311,164.02l-3.542,2.521l1.362,4.087l-3.542-2.486
		l-3.44,2.486l1.26-4.087l-2.043-1.499l0.375-0.647l0.341-0.375h2.146l0.919-2.725c0.227-0.114,0.5-0.227,0.817-0.341l0.988,3.065
		H75.311z M73.199,166.097l-0.136-0.272h0.136V166.097z M56.749,176.11h4.359l-3.542,2.486l1.363,4.121l-3.44-2.486l-3.542,2.486
		l1.362-4.121l-0.954-0.646c0.545-0.296,1.101-0.908,1.669-1.84h0.102l0.136-0.408c0.454-0.817,0.931-1.851,1.431-3.1L56.749,176.11
		z M67.409,186.362l-3.439-2.486h4.257l1.362-4.155l1.362,4.155h4.359l-3.542,2.486l1.362,4.121l-3.542-2.486l-3.44,2.486
		L67.409,186.362z M40.128,185.987h2.623l0.545-1.566l1.464-0.715l0.681,2.281h4.326l-3.474,2.622l1.294,4.054l-3.406-2.555
		l-3.542,2.555l1.362-4.054l-2.861-2.111L40.128,185.987z M42.75,205.844l1.43-4.087l1.26,4.087h4.326l-1.976,1.498l-1.805,0.137
		c-0.228,0.046-0.443,0.091-0.647,0.137c-0.068,0-0.125,0.011-0.17,0.033l-2.077,0.409c-0.386,0.091-0.761,0.193-1.125,0.307
		l-3.508-2.521H42.75z M32.907,195.967h4.326l-3.44,2.486l1.294,4.087l-3.474-2.486l-3.542,2.486l1.363-4.087l-2.998-2.111
		c0.068-0.068,0.148-0.137,0.239-0.204l0.238-0.171h3.338l1.362-4.189L32.907,195.967z M25.892,205.844l-3.44,2.555l1.26,4.121
		l-3.406-2.555l-0.783,0.579c-0.091-0.182-0.159-0.363-0.205-0.545v-0.068c-0.022-0.046-0.034-0.079-0.034-0.102l-0.034-1.431
		l1.499-3.44c0.113-0.249,0.227-0.499,0.34-0.749l0.511,1.635H25.892z M28.514,221.068c0.409,0,0.852,0.033,1.329,0.103
		l-1.771,1.226L28.514,221.068z M34.985,222.328c0.023,0,0.057,0.012,0.103,0.034v0.034L34.985,222.328z M31.307,212.587
		l0.307-0.953l0.272,0.886C31.704,212.542,31.511,212.564,31.307,212.587z M63.969,203.732h2.077
		c0.023,0.158,0.046,0.329,0.068,0.511c0.022,0.34,0.045,0.703,0.068,1.09L63.969,203.732z M70.951,203.732h4.359l-2.963,2.077
		c-0.772-0.612-1.578-1.328-2.418-2.146l-1.328-1.056l0.988-3.065L70.951,203.732z M57.566,198.453l1.363,4.087l-3.44-2.486
		l-3.542,2.486l1.362-4.087l-3.542-2.486h4.359l1.362-4.189l1.26,4.189h4.359L57.566,198.453z M71.632,233.295h4.359l-3.542,2.486
		l1.362,4.122l-3.542-2.487l-3.44,2.487l1.26-4.122l-3.44-2.486h4.257l1.362-4.155L71.632,233.295z M55.488,231.49l1.26,4.155h4.359
		l-3.542,2.486l1.363,4.12l-3.44-2.485l-3.542,2.485l1.362-4.12l-3.542-2.486h4.359L55.488,231.49z M61.108,255.501l-2.827,2.01
		c-1.566-0.862-2.861-1.782-3.883-2.759l1.09-3.439l1.26,4.188H61.108z M49.767,245.522l-1.26,0.953
		c-0.794-0.09-1.805-0.408-3.031-0.953H49.767z M68.908,253.151l1.362-4.189l1.362,4.189h4.359l-3.542,2.486l1.362,4.087
		l-3.542-2.486l-3.44,2.486l1.26-4.087l-3.44-2.486H68.908z M47.996,227.028l-1.703,1.226l1.294,4.088l-3.406-2.555l-3.542,2.555
		l1.362-4.088l-3.542-2.554h4.292l0.307-0.817c0.817,0.136,1.601,0.353,2.35,0.646l0.034,0.171h0.375
		C46.588,226.04,47.314,226.483,47.996,227.028z M31.613,231.49l1.294,4.155h4.326l-3.406,2.486
		c-1.249-1.045-2.373-2.056-3.372-3.032L31.613,231.49z M25.892,225.7l-1.362,1.021c-0.091-0.341-0.159-0.682-0.205-1.021H25.892z
		 M43.159,244.364l1.021-2.929l1.26,4.087C44.76,245.204,43.999,244.818,43.159,244.364z M140.669,296.951l-3.542,2.486l1.362-4.121
		l-3.542-2.486h4.36l1.362-4.155l1.26,4.155h4.359l-3.542,2.486l1.362,4.121L140.669,296.951z M131.474,305.296l1.294,4.087
		l-3.406-2.555l-3.542,2.555l1.362-4.087l-3.542-2.589h4.292l1.43-4.087l1.26,4.087h4.325L131.474,305.296z M138.49,315.173
		l-3.542-2.486h4.36l1.362-4.189l1.26,4.189h4.359l-3.542,2.486l1.362,4.087l-3.44-2.486l-3.542,2.486L138.49,315.173z
		 M122.414,292.83l-3.44,2.486l1.294,4.121l-3.474-2.486l-3.542,2.486l1.362-4.121l-3.542-2.486h4.359l1.362-4.155l1.294,4.155
		H122.414z"/>
	<path fill-rule="evenodd" clip-rule="evenodd" fill="#BC2A26" d="M165.43,196.648h-14.373v-14.952h13.521L165.43,196.648z
		 M244.515,313.095c0.363,2.43,0.318,4.745-0.137,6.948c-0.364,2.202-1.056,3.894-2.077,5.075c-3.566,3.042-6.54,3.031-8.924-0.034
		c-2.384-4.609-4.053-7.437-5.006-8.481c3.224,9.151,0.931,13.851-6.88,14.101c-5.154-0.158-8.265-1.441-9.332-3.849
		c-0.136-2.815-1.158-5.643-3.065-8.48c3.02,7.266,0.521,11.183-7.493,11.75c-5.995,0.183-9.708-0.193-11.138-1.123
		c-0.363-1.227-1.703-1.931-4.019-2.112c-1.294,3.633-3.735,5.552-7.323,5.756h-2.793c-5.245-0.749-8.48-3.52-9.707-8.311
		c-0.704-5.607-1.124-10.456-1.26-14.543h79.254C244.503,310.699,244.47,311.801,244.515,313.095z M267.539,315.445
		c-2.952,1.135-5.586,2.646-7.902,4.529c-1.771,2.407-4.484,3.645-8.14,3.713c-2.884-0.728-4.655-2.872-5.314-6.438l-0.476-7.459
		h34.297C277.279,312.606,273.125,314.491,267.539,315.445z M269.65,229.038c-0.818-2.747,0.533-4.212,4.053-4.394
		c7.605-0.522,13.102,0.727,16.484,3.746c-0.182,0.363-0.238,0.682-0.17,0.954H241.96c0.204-0.022,0.409-0.046,0.613-0.068
		c6.29-0.886,9.956-1.726,11.001-2.521c-0.204-0.908,0.875-1.419,3.236-1.533c3.179,0.137,5.596,0.478,7.254,1.022
		C264.473,227.971,266.335,228.901,269.65,229.038z M193.358,244.364c-0.886,6.176-1.26,12.08-1.124,17.711h-41.177v-17.711h25.953
		l-0.068,2.861c-0.455,2.974-0.647,5.313-0.579,7.016l0.442-1.191c0.613-3.86,1.453-6.756,2.521-8.686H193.358z M193.018,195.013
		c0.068,0.545,0.136,1.09,0.205,1.636h-14.748c-0.295-0.546-0.625-1.079-0.988-1.602c0.091,0.545,0.17,1.078,0.239,1.602h-10.593
		c-0.227-4.905-0.567-8.651-1.021-11.239c-0.409-1.136-0.715-2.373-0.919-3.713h28.405
		C192.916,185.533,192.723,189.972,193.018,195.013z M205.585,211.668c-3.042,2.089-5.234,2.089-6.574,0H205.585z M195.606,183.91
		c0.272-0.772,0.215-1.51-0.17-2.214h32.254c-0.046,6.539-0.625,11.523-1.737,14.952H196.9
		C196.764,192.221,196.333,187.975,195.606,183.91z M281.469,184.047c0.386-0.841,0.681-1.624,0.886-2.351h13.793
		c-0.817,1.862-1.408,3.746-1.771,5.653c0.591,3.588-1.781,5.449-7.117,5.586C283.58,191.846,281.649,188.883,281.469,184.047z
		 M278.676,181.696l-0.17,0.477c-1.249,3.406-2.181,5.348-2.793,5.824c-4.904-0.727-10.774-1.011-17.609-0.852
		c-3.973,1.09-6.992,1.987-9.059,2.691c-2.816-1.454-5.608-2.146-8.378-2.078c-1.203,2.202-3.542,4.269-7.016,6.198
		c-3.065-3.792-4.802-7.879-5.211-12.261H278.676z M311.985,281.829c-1.727,4.904-4.166,4.802-7.322-0.307l-0.171-0.511
		c-0.817,6.698-2.895,11.284-6.232,13.76H151.058v-17.677h163.312C313.756,278.594,312.961,280.171,311.985,281.829z
		 M343.251,244.364c-3.52,4.405-6.642,8.492-9.366,12.262c-0.84,2.021-1.714,3.837-2.622,5.449H194.244
		c0.34-5.813,0.761-11.398,1.26-16.758c-0.046-0.317-0.08-0.635-0.103-0.953h35.285c1.204,5.403,3.383,8.48,6.54,9.229
		c-1.362-3.36-2.565-6.437-3.61-9.229H343.251z M325.302,227.812c0.318,0.545,0.637,1.057,0.954,1.533h-33.82
		c-1.703-1.34-2.714-3.452-3.031-6.336c5.132-0.521,9.888-0.374,14.271,0.443C314.028,222.34,321.237,223.793,325.302,227.812z
		 M357.624,211.668h18.563c0.249,1.635-0.522,3.406-2.316,5.313c-7.062,5.245-12.353,9.366-15.871,12.363h-28.474
		c-0.341-2.521,0.204-4.61,1.635-6.267c3.701-3.021,7.221-4.599,10.558-4.734c-0.045,0.817,0.988,1.214,3.101,1.191
		c2.814-2.61,5.698-4.371,8.65-5.279c2.021-0.59,3.213-1.181,3.576-1.771C356.659,212.372,356.852,212.099,357.624,211.668z
		 M373.359,181.696c0.181,0.182,0.374,0.374,0.579,0.579c4.45,4.608,6.721,8.605,6.812,11.988c-0.205,0.977-0.545,1.771-1.021,2.385
		h-9.469c-4.224-1.658-7.754-2.419-10.592-2.282c-0.522,0.817-2.124,1.271-4.803,1.362c-1.044-1.316-2.872-2.293-5.483-2.93
		c0.068,1.521-0.897,2.805-2.896,3.85h-17.915c0.273-4.224-0.294-7.663-1.702-10.32c-2.566,0.999-4.644,2.736-6.232,5.211
		c-0.75,2.362-2.056,4.064-3.917,5.109h-3.815c-0.681-0.682-1.203-1.761-1.566-3.235c-0.522,1.362-1.09,2.44-1.703,3.235h-6.675
		c-0.795-0.682-1.636-1.579-2.521-2.691c-1.385-3.246-2.26-7.334-2.622-12.261H373.359z M317.128,149
		c2.77,1.135,5.132,2.656,7.085,4.564c1.475,2.429,2.542,4.291,3.2,5.585c-0.029,0.13-0.023,0.255,0.018,0.375
		c0.275,0.894,2.404,1.541,6.386,1.941c5.518-0.137,10.139,0.977,13.862,3.338c0.25,0.522,0.624,1.146,1.124,1.873H151.058V149
		H317.128z M164.817,112.523l6.097,2.384c2.952-1.136,5.756-0.806,8.413,0.987c2.293,4.61,4.995,8.401,8.106,11.375
		c-0.431,0.341,0.17,0.715,1.805,1.124c0.34-2.316,1.237-3.632,2.691-3.951c1.521,0.727,3.247-0.795,5.176-4.564
		c-0.432-0.544,0.477-1.419,2.725-2.623c2.066,0.068,3.122,2.248,3.167,6.54c0.159-1.226,1.011-3.44,2.555-6.642
		c1.476-3.951,3.984-6.471,7.527-7.562l4.495-0.17c1,0.159,2.066,0.533,3.202,1.124l4.189,2.248
		c0.432-1.612,1.624-2.463,3.576-2.554c1.794,0.091,3.042,1.487,3.747,4.189c2.111-3.406,6.301-4.553,12.568-3.44
		c7.288,1.408,10.989,3.485,11.104,6.232c0.136,1.885,0.102,3.633-0.104,5.245c0.75-1.998,2.602-3.179,5.553-3.542l0.067,2.384
		c4.95,0.046,11.172,2.135,18.665,6.267l4.598,2.725c1.566,0.795,2.884,1.885,3.95,3.27c0.068,0.137,0.126,0.273,0.171,0.409
		H151.058v-19.924c0.5-0.159,1.044-0.25,1.635-0.273c2.952,2.271,5.438,4.859,7.458,7.766c2.793,2.907,3.679,2.793,2.657-0.34
		c-1.771,0.613-2.725-1.726-2.861-7.017C160.583,112.375,162.206,111.819,164.817,112.523z M151.058,309.791h13.691
		c-0.045,14.441-1.839,21.003-5.381,19.687c-2.77-3.179-5.54-5.507-8.31-6.982V309.791z"/>
</g>
</svg>
