<?xml version="1.0" encoding="utf-8"?>
<!-- Generator: Adobe Illustrator 16.0.0, SVG Export Plug-In . SVG Version: 6.00 Build 0)  -->
<!DOCTYPE svg PUBLIC "-//W3C//DTD SVG 1.1//EN" "http://www.w3.org/Graphics/SVG/1.1/DTD/svg11.dtd">
<svg version="1.1" id="Layer_1" xmlns="http://www.w3.org/2000/svg" xmlns:xlink="http://www.w3.org/1999/xlink" x="0px" y="0px"
	 width="300px" height="300px" viewBox="0 0 300 300" enable-background="new 0 0 300 300" xml:space="preserve">
<g>
	<path fill-rule="evenodd" clip-rule="evenodd" fill="#FFFFFF" d="M292.508,94.491c1.265,2.911,2.29,5.867,3.078,8.871
		c0.799,3.008,1.354,6.041,1.667,9.103c0.3,3.063,0.36,6.172,0.178,9.333c-0.178,3.152-0.597,6.333-1.256,9.537
		c-0.651,3.2-1.549,6.447-2.692,9.743c-1.146,3.308-2.532,6.641-4.152,10c-1.624,3.353-3.496,6.753-5.615,10.203
		c-2.116,3.453-4.466,6.932-7.051,10.435c-2.562,3.498-5.278,6.918-8.152,10.255c-2.873,3.352-5.88,6.6-9.024,9.743
		c-3.15,3.134-6.457,6.184-9.924,9.153c-3.463,2.974-7.062,5.847-10.793,8.614c-7.468,5.538-15.553,10.727-24.255,15.563
		c-8.7,4.829-17.955,9.273-27.766,13.331c-7.521,3.156-14.99,5.924-22.408,8.309c-7.419,2.384-14.735,4.366-21.947,5.947
		c-7.214,1.57-14.376,2.749-21.485,3.538c-7.11,0.799-14.118,1.2-21.024,1.205c-4.202,0.003-8.39-0.143-12.563-0.436
		c-4.171-0.3-8.299-0.744-12.383-1.333c-4.349-0.589-8.519-1.323-12.511-2.205c-4-0.877-7.795-1.894-11.383-3.052
		c-3.582-1.165-6.984-2.481-10.205-3.947c-3.22-1.46-6.237-3.059-9.05-4.794c-5.649-3.502-10.529-7.578-14.64-12.231
		c-4.11-4.652-7.452-9.884-10.024-15.689c-1.253-2.919-2.27-5.885-3.051-8.896c-0.788-3.008-1.335-6.043-1.641-9.103
		c-0.307-3.063-0.375-6.174-0.206-9.332c0.182-3.162,0.6-6.351,1.256-9.563c0.647-3.208,1.536-6.464,2.667-9.768
		c1.133-3.308,2.5-6.641,4.102-10c1.601-3.353,3.447-6.753,5.538-10.204c2.094-3.455,4.418-6.932,6.974-10.435
		c2.588-3.497,5.331-6.916,8.23-10.256c2.891-3.34,5.916-6.578,9.077-9.716c3.158-3.131,6.474-6.183,9.947-9.153
		c3.482-2.98,7.098-5.86,10.846-8.64c7.49-5.547,15.591-10.753,24.305-15.615c8.721-4.863,17.994-9.35,27.818-13.459
		c7.583-3.136,15.113-5.888,22.588-8.255c7.465-2.366,14.822-4.332,22.075-5.897c7.26-1.569,14.465-2.749,21.612-3.54
		c7.148-0.787,14.19-1.181,21.127-1.179c4.047-0.005,8.081,0.122,12.102,0.385c4.024,0.27,8.007,0.672,11.947,1.205
		c4.376,0.607,8.572,1.359,12.588,2.257c4.029,0.903,7.849,1.944,11.462,3.128c3.602,1.177,7.019,2.5,10.254,3.974
		c3.24,1.478,6.274,3.093,9.103,4.846c5.666,3.52,10.555,7.614,14.665,12.282C286.62,83.421,289.953,88.669,292.508,94.491z
		 M271.459,87.004c-5.538-9.823-13.675-17.352-24.408-22.588c-10.732-5.227-23.986-8.124-39.765-8.691l-2.589-0.051l-2.59-0.025
		c-14.996,0.004-30.285,2.193-45.866,6.563c-15.592,4.37-31.368,10.89-47.33,19.563c-16.799,9.216-31.456,19.54-43.97,30.971
		c-12.52,11.433-22.81,23.894-30.869,37.381c-8.016,13.462-12.665,26.067-13.948,37.817c-1.274,11.749,0.829,22.56,6.307,32.434
		c5.467,9.852,13.551,17.381,24.254,22.587c10.711,5.196,23.967,8.035,39.766,8.512l2.564,0.077l2.564,0.026
		c14.975-0.011,30.264-2.215,45.867-6.615c15.605-4.391,31.417-10.945,47.433-19.664c16.854-9.099,31.527-19.337,44.021-30.716
		c12.489-11.382,22.71-23.824,30.664-37.331c8.097-13.461,12.807-26.066,14.127-37.816
		C279.01,107.688,276.934,96.877,271.459,87.004z M207.619,147.998c1.452-4.934,4.537-9.42,9.257-13.46
		c0.676-0.612,1.556-1.329,2.639-2.154c1.095-0.823,2.386-1.746,3.872-2.769c1.496-1.107,2.794-2.082,3.897-2.923
		c1.109-0.839,2.016-1.54,2.718-2.101c0.12-0.013,0.257,0.048,0.41,0.179c0.16,0.143,0.351,0.355,0.565,0.641
		c0.139,0.188,0.275,0.283,0.41,0.281l0.152-0.025l0.59,0.513l-0.18,0.41c-0.451,0.244-0.904,0.516-1.357,0.82
		c-0.458,0.308-0.921,0.65-1.386,1.025c-0.132,0.089-0.568,0.465-1.307,1.129l-3.153,2.819c-0.455,0.405-1.02,0.943-1.692,1.616
		c-0.675,0.682-1.452,1.493-2.334,2.435c-0.071,0.099-0.312,0.321-0.718,0.667c-0.4,0.351-0.973,0.829-1.719,1.436
		c-0.472,0.409-0.873,0.785-1.205,1.128c-0.329,0.342-0.584,0.65-0.769,0.922c-0.152,0.188-0.332,0.461-0.538,0.822
		c-0.205,0.352-0.436,0.788-0.692,1.307l-0.794,1.769l-0.437,1.053c-0.325,0.536-0.699,1.229-1.128,2.076
		c-0.43,0.833-0.908,1.815-1.438,2.949c-0.082,0.208-0.348,0.729-0.793,1.563l-1.871,3.437c-0.031,0.099-0.084,0.201-0.154,0.307
		l-0.179,0.103l-0.77-7.819C207.586,148.102,207.619,148.051,207.619,147.998z M92.631,138.666c0.274,0.622,0.617,1.263,1.025,1.923
		c0.467,0.697,0.869,1.321,1.205,1.873c0.341,0.547,0.615,1.017,0.82,1.41c0.287,0.052,0.595,0.078,0.923,0.076
		c0.489-0.007,1.027-0.075,1.615-0.205c0.488-0.07,0.933-0.121,1.333-0.153c0.396-0.036,0.747-0.053,1.051-0.053h0.359
		c1.009,1.18,2.077,3.05,3.204,5.616c0.665,1.469,1.246,2.69,1.744,3.667c0.498,0.963,0.908,1.671,1.231,2.126l-0.667,1.18
		c-0.031,0.093-0.031,0.238,0,0.438c0.029,0.079,0.089,0.132,0.18,0.154c0.094,0.031,0.18,0.049,0.255,0.051
		c0.154,0.003,0.275-0.057,0.359-0.18l0.563-1.385h0.077l0.052,0.051c0.172-0.334,0.395-0.701,0.666-1.103
		c0.269-0.405,0.585-0.841,0.95-1.307l1.076-1.514c0.284-0.409,0.49-0.717,0.616-0.922c-0.085-0.351-0.12-0.76-0.104-1.231
		c0.018-0.456,0.086-0.967,0.206-1.539l0.461-1.666l0.359-1.18l0.334-1.769l0.23-1.205c0.106-0.576,0.243-1.072,0.411-1.488
		c0.158-0.425,0.346-0.766,0.564-1.025h0.077c1.194,2.506,1.913,5.471,2.154,8.896c0.134,1.951-0.276,4.275-1.231,6.975
		c-0.635,1.755-1.131,3.182-1.487,4.28c-0.347,1.098-0.552,1.857-0.615,2.282l-0.283,1.308l-0.384,1.667
		c-0.085,0.582-0.18,1.12-0.282,1.615c-0.103,0.484-0.214,0.92-0.333,1.307c-0.631,2.05-1.323,4.134-2.078,6.257
		c-0.755,2.114-1.567,4.25-2.436,6.409c-0.55,1.413-1.097,2.772-1.641,4.077c-0.537,1.303-1.066,2.542-1.59,3.718l-0.744,1.435
		l-0.641,1.385l-0.667,1.23l-0.128-0.204c-0.103-0.342-0.222-0.684-0.359-1.026l-0.974-2.871l-1.795-5.282
		c-1.264-4.066-2.152-7.706-2.666-10.921c-0.03-0.174-0.056-0.422-0.077-0.744l-0.077-1.154l-0.154-2.103
		c-0.17-1.127-0.495-2.621-0.974-4.485c-0.481-1.859-1.113-4.072-1.898-6.64c-1.364-4.611-2.15-8.167-2.358-10.667
		c-0.37-5.063,0.254-8.131,1.871-9.204l0.052,0.025C92.151,137.446,92.356,138.044,92.631,138.666z"/>
	<path fill-rule="evenodd" clip-rule="evenodd" fill="#CDCCCC" d="M280.959,107.645c2.801,4.613,4.817,9.613,6.051,14.998
		c0.619,2.694,1.021,5.394,1.205,8.103c0.183,2.704,0.149,5.395-0.103,8.076c-0.521,5.375-1.913,10.743-4.181,16.101
		c-2.279,5.366-5.433,10.726-9.46,16.075c-4.024,5.341-8.921,10.675-14.69,15.999c-5.73,5.331-11.934,10.279-18.614,14.845
		c-6.673,4.56-13.775,8.704-21.305,12.435c-7.535,3.738-15.552,7.088-24.05,10.049c-8.5,2.956-17.422,5.503-26.767,7.642
		c-9.038,2.081-17.893,3.646-26.562,4.691c-8.671,1.055-17.098,1.584-25.278,1.589c-8.729-0.001-17.241-0.6-25.537-1.794
		c-8.299-1.197-16.324-2.983-24.075-5.357c-3.739-1.13-7.294-2.36-10.666-3.692c-3.369-1.344-6.531-2.778-9.486-4.309
		c-5.934-3.048-11.087-6.482-15.461-10.307c-4.37-3.835-7.959-8.056-10.768-12.664c-2.798-4.613-4.815-9.613-6.051-15
		c-1.228-5.398-1.587-10.791-1.077-16.177c0.259-2.677,0.738-5.359,1.437-8.052c0.69-2.702,1.596-5.395,2.717-8.075
		c2.269-5.365,5.405-10.724,9.409-16.076c4.003-5.356,8.875-10.706,14.614-16.05c5.761-5.298,11.991-10.221,18.69-14.767
		c6.697-4.545,13.815-8.681,21.358-12.409c7.547-3.725,15.573-7.065,24.074-10.025c8.497-2.965,17.41-5.529,26.741-7.691
		c9.077-2.069,17.965-3.624,26.664-4.667c8.694-1.042,17.138-1.563,25.331-1.563c8.679-0.004,17.14,0.577,25.383,1.743
		c8.251,1.174,16.223,2.926,23.921,5.256c3.756,1.147,7.328,2.396,10.717,3.743c3.379,1.345,6.55,2.78,9.512,4.308
		c5.953,3.067,11.123,6.521,15.511,10.358C274.545,98.815,278.145,103.036,280.959,107.645z M269.805,113.182
		c-3.137-9.272-8.982-16.921-17.536-22.946c-8.548-6.024-19.741-10.382-33.587-13.076c-4.495-0.864-9.077-1.513-13.742-1.948
		c-4.665-0.43-9.382-0.645-14.152-0.641c-9.904,0.003-20.144,0.943-30.715,2.819c-10.577,1.873-21.414,4.667-32.509,8.384
		c-16.428,5.571-31.144,12.408-44.15,20.511c-13.006,8.107-24.21,17.421-33.612,27.945c-9.395,10.469-15.668,20.682-18.819,30.64
		c-3.144,9.955-3.144,19.586,0,28.894c3.108,9.26,8.928,16.899,17.46,22.921c8.526,6.011,19.705,10.361,33.536,13.051
		c4.496,0.874,9.077,1.531,13.742,1.974c4.665,0.432,9.382,0.646,14.153,0.642c9.911,0.002,20.158-0.938,30.74-2.82
		c10.575-1.891,21.411-4.712,32.511-8.461c16.414-5.537,31.123-12.349,44.124-20.435c13-8.08,24.206-17.379,33.611-27.895
		c9.391-10.485,15.672-20.706,18.845-30.664C272.868,132.112,272.902,122.481,269.805,113.182z"/>
	<path fill-rule="evenodd" clip-rule="evenodd" fill="#787676" d="M266.314,125.208c2.993,4.149,5.24,8.474,6.743,12.973
		c1.487,4.501,2.231,9.175,2.23,14.023c0.001,4.862-0.743,9.545-2.23,14.05c-1.503,4.494-3.75,8.811-6.743,12.948
		c-2.982,4.129-6.726,8.096-11.229,11.896c-4.501,3.797-9.732,7.404-15.69,10.819c-5.96,3.426-12.249,6.436-18.87,9.024
		c-6.611,2.582-13.51,4.727-20.689,6.436c-7.187,1.716-14.708,3.006-22.563,3.872c-7.856,0.856-15.991,1.284-24.407,1.281
		c-8.425,0.003-16.569-0.425-24.433-1.281c-7.864-0.866-15.393-2.156-22.588-3.872c-7.189-1.709-14.095-3.854-20.716-6.436
		c-6.629-2.589-12.928-5.599-18.896-9.024c-5.949-3.415-11.171-7.022-15.665-10.819c-4.502-3.801-8.246-7.768-11.23-11.896
		c-2.983-4.138-5.222-8.454-6.717-12.948c-1.486-4.505-2.23-9.188-2.23-14.05c0-4.849,0.744-9.522,2.23-14.023
		c1.496-4.5,3.734-8.824,6.717-12.973c2.984-4.127,6.728-8.092,11.23-11.896c4.494-3.812,9.715-7.435,15.665-10.871
		c5.969-3.417,12.268-6.417,18.896-9c6.621-2.579,13.526-4.724,20.716-6.434c7.195-1.706,14.724-2.988,22.588-3.846
		c7.864-0.857,16.008-1.284,24.433-1.283c8.416-0.001,16.551,0.426,24.407,1.283c7.855,0.858,15.377,2.141,22.563,3.846
		c7.18,1.708,14.078,3.854,20.689,6.434c6.621,2.582,12.91,5.583,18.87,9c5.958,3.436,11.189,7.059,15.69,10.871
		C259.589,117.116,263.332,121.082,266.314,125.208z M197.784,91.186c-9.914-1.929-20.367-2.895-31.357-2.897
		c-3.27,0.008-6.603,0.102-10,0.283c-3.404,0.163-6.848,0.41-10.331,0.742c-15.133,1.526-29.054,4.475-41.765,8.847
		c-12.717,4.358-24.135,10.111-34.253,17.253c-10.092,7.133-17.467,14.654-22.126,22.563c-4.655,7.914-6.561,16.16-5.717,24.74
		c0.86,8.543,4.347,16.228,10.461,23.051c6.115,6.821,14.814,12.735,26.1,17.74c8.691,3.843,17.981,6.731,27.87,8.666
		c9.888,1.934,20.305,2.898,31.253,2.897c3.312,0.003,6.688-0.082,10.127-0.256c3.448-0.178,6.933-0.443,10.459-0.795
		c15.137-1.505,29.058-4.437,41.766-8.794c12.704-4.356,24.104-10.106,34.202-17.255c10.109-7.116,17.5-14.619,22.177-22.511
		c4.673-7.896,6.596-16.126,5.77-24.69c-0.882-8.572-4.394-16.282-10.537-23.126c-6.137-6.851-14.863-12.791-26.178-17.819
		C217.003,95.997,207.695,93.116,197.784,91.186z"/>
	<path fill-rule="evenodd" clip-rule="evenodd" fill="#010101" d="M203.426,78.766c1.776,0.001,3.179,0.412,4.205,1.23
		c0.401-0.048,0.795-0.073,1.18-0.076c0.374,0.003,0.74,0.028,1.102,0.076c0.36,0.047,0.711,0.115,1.05,0.206l1.027,0.384
		l1.59,0.641c0.346-0.101,0.695-0.178,1.05-0.23c0.358-0.051,0.717-0.077,1.076-0.077c0.356,0,0.716,0.025,1.078,0.077
		c0.367,0.052,0.735,0.128,1.103,0.23c1.343,0.41,2.427,1.026,3.255,1.847v0.051l-0.051,0.025c0.139,0.098,0.346,0.209,0.617,0.333
		l0.922,0.513c0.203,0.101,0.356,0.238,0.461,0.411c2.289,1.517,4.186,4.021,5.693,7.512l3.538,9.897
		c0.138,0.253,0.172,0.441,0.102,0.563c-0.06,0.102-0.188,0.152-0.385,0.153h-0.283l-0.152,0.053l-0.052,0.051l-0.077,0.051
		l-0.025,0.102c1.161,3.833,2.102,8.311,2.821,13.436c-0.072,0.121-0.261,0.54-0.565,1.257c-0.119,0.496-0.41,0.744-0.872,0.742
		h-0.128c0.394,0.915,0.556,2.009,0.488,3.282c0,0.595-0.043,1.185-0.129,1.769s-0.214,1.156-0.386,1.718
		c0.002,0.246-0.015,0.426-0.051,0.539c-0.065,0.039-0.126,0.055-0.179,0.051c-0.158,0.001-0.303-0.119-0.436-0.359
		c-0.43-0.495-0.746-0.751-0.949-0.769l-2.69,2.077l-3.847,2.896c-1.496,1.041-2.786,1.971-3.871,2.795
		c-1.093,0.823-1.974,1.532-2.643,2.127c-4.742,4.063-7.836,8.549-9.28,13.46l-0.051,0.104c-0.002,0.078-0.035,0.172-0.104,0.281
		c-3.676-1.018-5.983-3.009-6.922-5.973c-2.034,0.423-3.751,0.738-5.153,0.947c-1.411,0.221-2.497,0.331-3.257,0.334h-0.436
		c-1.57-0.1-2.673-0.58-3.307-1.436c-0.689-0.949-0.809-2.35-0.359-4.204c-0.04-0.569-0.314-1.023-0.819-1.36
		c-0.614-0.375-1.042-0.665-1.283-0.872v-1.308c-0.03-0.422,0.013-0.694,0.129-0.82l0.103-0.076
		c-0.484-0.292-0.878-0.541-1.179-0.744c-0.309-0.208-0.521-0.37-0.642-0.486c-0.006-0.851-0.03-1.561-0.077-2.128
		c-0.054-0.563-0.13-0.992-0.231-1.283c-0.453,0.216-0.896,0.328-1.332,0.334c-0.454-0.009-0.899-0.127-1.333-0.36
		c-0.822-0.27-1.369-0.798-1.642-1.589l0.769-2.847l0.564-2c0.272-0.932,0.504-1.83,0.691-2.691c0.188-0.87,0.334-1.7,0.437-2.488
		c-0.209-0.401-0.533-0.803-0.974-1.205c-0.579-0.409-0.99-0.717-1.231-0.923c-0.207-0.559-0.361-1.19-0.461-1.898
		c-0.104-0.704-0.154-1.482-0.154-2.333c-0.004-0.524,0.021-1.165,0.077-1.922c0.056-0.753,0.142-1.616,0.256-2.59
		c-0.52,0.025-1.075,0.529-1.665,1.513c-0.171,0.252-0.368,0.577-0.591,0.975c-0.224,0.407-0.47,0.887-0.743,1.435
		c0.101,0.171,0.05,0.359-0.153,0.564l-0.051,0.078l-0.077,0.025c-0.078-0.003-0.172-0.07-0.282-0.205
		c-0.074-0.15-0.108-0.294-0.104-0.437l0.026-0.178h-0.154c-0.122,0-0.216,0.077-0.281,0.231v0.666l-0.052,0.025
		c-1.096-1.172-1.506-2.941-1.23-5.307c0.272-1.329,0.485-2.439,0.641-3.333c0.153-0.891,0.248-1.557,0.282-2
		c0.349-0.191,0.913-0.696,1.691-1.513c0.989-0.963,1.656-1.604,2.001-1.923c-0.295,0.077-0.603,0.309-0.923,0.693
		c-0.41,0.346-0.77,0.527-1.078,0.539l-0.256,0.332c-0.17,0.341-0.307,0.564-0.411,0.667c-0.059,0.039-0.118,0.056-0.179,0.051
		c-0.073,0.001-0.15-0.017-0.231-0.051c-0.066-0.053-0.101-0.113-0.102-0.179c-0.013-0.086,0.021-0.18,0.102-0.283l0.104-0.076
		l0.128-0.179l0.179-0.334c0.096-0.227,0.231-0.397,0.411-0.512l-0.204-0.078v-0.051l1.333-1.64l0.256-0.283l0.076-0.18v-0.077
		l-0.025-0.025h-0.077c-0.115-0.006-0.295,0.028-0.538,0.102c-0.375,0.477-0.666,0.819-0.871,1.026
		c-0.072,0.081-0.149,0.123-0.23,0.127c-0.092-0.006-0.187-0.048-0.282-0.127c-0.086-0.072-0.128-0.148-0.128-0.231
		c-0.009-0.092,0.034-0.186,0.128-0.282l0.128-0.104l0.205-0.255l0.334-0.514c1.365-2.288,2.631-3.996,3.793-5.127
		c0.273-0.273,0.547-0.53,0.821-0.769c1.395-1.225,2.992-2.079,4.794-2.564c-0.015-0.096,0.027-0.233,0.128-0.41
		c0.097-0.18,0.25-0.401,0.462-0.666c0.512-0.472,0.819-0.926,0.923-1.359c0.353-0.136,0.729-0.307,1.128-0.513
		c0.399-0.206,0.826-0.454,1.282-0.744c0.481-0.324,0.917-0.605,1.308-0.845c0.381-0.241,0.715-0.437,1-0.59
		c1.246-0.7,2.495-1.049,3.743-1.051c0.314-0.006,0.631,0.012,0.948,0.051c0.317,0.046,0.634,0.114,0.949,0.205
		c0.702-1.114,2.044-1.721,4.025-1.82H203.426z M221.885,84.714h0.282l-0.205-0.256L221.885,84.714z M230.27,128.146
		c0.459-0.362,0.911-0.696,1.358-1c0.447-0.295,0.882-0.561,1.307-0.794c0.43-0.239,0.858-0.444,1.282-0.615
		c0.426-0.172,0.844-0.308,1.258-0.41c2.104,1.447,3.478,3.849,4.126,7.204c0.091,0.25,0.26,0.55,0.514,0.898
		c0.244,0.347,0.569,0.739,0.974,1.179c0.404,0.43,0.737,0.832,1.001,1.205c0.27,0.364,0.465,0.697,0.589,1l3.437,2.487l2.358,1.717
		c1.052,0.823,2.035,1.643,2.948,2.462c0.921,0.81,1.768,1.613,2.538,2.41c2.528,2.681,4.802,6.364,6.82,11.051
		c-0.897,2.767-2.121,5.492-3.667,8.178c-1.551,2.684-3.414,5.316-5.59,7.897c-2.185,2.588-4.697,5.143-7.536,7.665
		c-2.829,2.521-5.966,4.99-9.41,7.41c-5.663,3.991-11.73,7.556-18.203,10.69c-6.469,3.125-13.297,5.801-20.485,8.026h-0.025
		c0.217-0.962,0.492-2.073,0.819-3.334l1.129-4.23c0.047-0.294,0.106-0.583,0.18-0.872c0.081-0.278,0.175-0.553,0.281-0.819
		c0.081-0.447,0.243-1.054,0.488-1.821c0.254-0.758,0.586-1.672,0.999-2.742c0.341-0.921,0.624-1.732,0.847-2.437
		c0.222-0.703,0.385-1.293,0.487-1.77l0.025-0.742l-0.025-0.948c-0.034-0.422-0.052-0.781-0.052-1.078
		c0-0.304,0.018-0.543,0.052-0.718c0.051-0.629,0.17-1.372,0.358-2.23c0.189-0.856,0.446-1.823,0.77-2.896l1.103-3.692l0.537-1.744
		l0.565-2.052l0.871-3.229l1.437-5.077c0.049-0.188,0.102-0.452,0.154-0.795l0.152-1.257c0.014-0.445,0.039-0.838,0.077-1.18
		c0.048-0.329,0.106-0.602,0.18-0.819c0.217-0.656,0.507-1.382,0.872-2.179c0.373-0.79,0.816-1.646,1.332-2.564l0.104-0.281
		l1.872-3.411c0.457-0.835,0.738-1.365,0.845-1.589c0.524-1.12,0.994-2.094,1.41-2.922c0.424-0.836,0.792-1.519,1.103-2.051
		l1.23-2.795l0.719-1.359c0.206-0.372,0.376-0.663,0.512-0.872c0.188-0.251,0.453-0.542,0.795-0.871
		c0.345-0.339,0.764-0.716,1.257-1.128l1.667-1.437c0.394-0.354,0.624-0.577,0.693-0.666c0.881-0.933,1.659-1.736,2.332-2.409
		c0.682-0.682,1.254-1.229,1.717-1.642l3.154-2.845C229.663,128.633,230.116,128.248,230.27,128.146z M133.355,91.021
		c0.582,0.967,0.854,2.172,0.821,3.616l-0.052,1.025l-0.308,0.744l-0.077,0.026c-0.066,0.003-0.126-0.057-0.179-0.18
		c-0.057-0.129-0.108-0.327-0.154-0.589c-0.131-0.36-0.199-0.694-0.205-1h-0.128l-0.103-0.051l-0.179-0.205l-0.283-0.462
		l-0.436-0.769c-0.225-0.46-0.472-0.69-0.743-0.691c-0.083,0.001-0.168,0.027-0.256,0.076l0.795,1.437
		c0.238,0.591,0.324,1.215,0.256,1.871c0.068,0.445,0.103,0.958,0.103,1.539c0.001,0.345-0.067,0.712-0.205,1.103
		c-0.137,0.391-0.342,0.801-0.615,1.23c-0.477,0.914-0.972,1.495-1.487,1.744c-0.712,3.27-0.763,6.201-0.154,8.794
		c0.345,1.562,1.114,2.938,2.307,4.127c0.34,0.259,0.631,0.498,0.872,0.717c0.24,0.21,0.428,0.398,0.564,0.564
		c0.294,0.242,0.525,0.48,0.692,0.718c0.159,0.235,0.252,0.465,0.282,0.693c-0.17,0.46-0.563,0.861-1.18,1.205l-1.538,0.615
		c-0.407,0.335-0.663,0.72-0.77,1.154l-0.077,0.282l-0.051,0.154l-0.026,0.077c-0.031,0.1-0.014,0.263,0.051,0.488
		c0.173,0.192,0.301,0.363,0.385,0.512c0.086,0.148,0.129,0.276,0.128,0.384v0.078l-0.077,0.23l-0.18,0.436
		c-0.098,0.289-0.961,0.502-2.589,0.642l-2.59,0.229l0.974,0.412l2,0.77c1.072,0.484,1.602,0.919,1.589,1.307
		c0.005,0.457-0.286,0.824-0.872,1.103c-0.608,0.336-0.915,0.687-0.923,1.05c0.057,0.631,0.082,1.178,0.077,1.64
		c-0.012,0.464-0.055,0.84-0.128,1.128c-0.204,0.796-0.614,1.403-1.231,1.822c-0.403,0.124-0.916,0.219-1.539,0.281
		c-0.618,0.057-1.344,0.082-2.179,0.078c-0.87,0.008-1.614,0.042-2.23,0.102c-0.618,0.042-1.105,0.11-1.461,0.205
		c-0.404,0.119-0.789,0.282-1.154,0.488c-0.364,0.205-0.707,0.454-1.025,0.742c-0.28,0.298-0.512,0.607-0.693,0.923
		c-0.187,0.327-0.323,0.661-0.41,1c2.314,2.288,4.545,5.151,6.691,8.589c0.523,0.319,1.131,0.635,1.82,0.949
		c0.699,0.321,1.478,0.638,2.333,0.949l4.589,1.539c3.765,1.401,6.371,3.126,7.819,5.179c0.991,1.274,1.692,3.043,2.103,5.307
		l0.436,2.615l0.59,3.795c0.378,2.258,1.148,4.924,2.307,8l1.23,3.204l1.692,4.384c0.363,0.982,0.927,2.257,1.692,3.82
		c0.761,1.566,1.718,3.413,2.872,5.538l0.104,0.205l0.641,1.257l0.59,1.205c0.584,1.175,1.105,2.268,1.564,3.282
		c0.45,1.019,0.834,1.951,1.153,2.793c0.103,0.238,0.172,0.46,0.205,0.667c0.392,1.175,0.717,2.285,0.975,3.333
		c0.257,1.046,0.445,2.021,0.563,2.922c0.179,1.569,1.495,4.057,3.948,7.462l-0.024,0.051l-2.026,0.257l-2.077,0.231
		c-2.137,0.199-4.255,0.368-6.358,0.513c-2.1,0.146-4.176,0.267-6.229,0.357c-2.055,0.089-4.08,0.148-6.077,0.18
		c-1.931-2.505-3.137-4.636-3.615-6.383c-0.583-2.215-1.421-4.376-2.512-6.486c-1.102-2.17-2.17-3.768-3.205-4.795
		c0.069,1.997-0.606,4.143-2.025,6.435l-0.923,1.59c-0.275,0.412-0.65,0.872-1.128,1.385c-1.185,1.247-1.663,2.119-1.436,2.614
		c0.213,0.498,0.093,0.976-0.359,1.437c-0.217,0.217-0.474,0.618-0.77,1.205c-0.304,0.598-0.646,1.375-1.025,2.333l-0.693-0.025
		c-5.916-0.366-11.684-1.136-17.305-2.308c-5.621-1.168-11.057-2.732-16.306-4.692l-12.358-5.025
		c-3.794-1.812-7.247-3.727-10.358-5.742l0.154-5.871c0.013-1.492,0.047-3.168,0.103-5.026c0.055-1.855,0.132-3.88,0.231-6.075
		c-1.378,0.952-2.788,2.217-4.23,3.795c-0.208,0.271-0.635,0.802-1.282,1.589l-2.564,3.128l-1.333,1.794h-0.051
		c-3.183-2.826-5.857-5.843-8.025-9.05c-2.172-3.207-3.822-6.583-4.948-10.127l3.076-4.051c0.822-1.093,1.438-1.93,1.846-2.513
		c2.697-3.649,4.697-7.042,5.999-10.179c0.139-0.243,0.361-0.875,0.667-1.897c0.081-0.413,0.174-0.771,0.282-1.076
		c0.115-0.304,0.244-0.553,0.384-0.744c0.719-1.401,1.915-2.974,3.589-4.717c1.776-1.776,3.229-2.888,4.358-3.333
		c0.554-0.188,1.229-0.359,2.025-0.513c0.791-0.154,1.696-0.292,2.718-0.41l2.82-0.334l2-0.23c0.561-0.089,1.236-0.217,2.024-0.384
		c0.79-0.158,1.688-0.355,2.693-0.59l2.691-0.564l1.77-0.307l0.051-0.052l0.051-0.18l0.026-0.358c0-0.322,0.179-0.536,0.538-0.641
		c0.638-0.307,1.373-0.726,2.205-1.257c0.84-0.532,1.771-1.174,2.794-1.923c1.057-0.823,1.988-1.514,2.795-2.076
		c0.806-0.553,1.481-0.972,2.025-1.257c0.135,0.106,0.34,0.345,0.615,0.719c0.263,0.297,0.656,0.468,1.179,0.512
		c0.537-1.67,0.691-3.944,0.461-6.819c-1.055-0.114-1.909-0.218-2.563-0.308c-0.64-0.099-1.076-0.184-1.307-0.256
		c-1.308-0.34-2.342-0.974-3.103-1.897c-0.137-0.174-0.265-0.421-0.384-0.744c-0.121-0.321-0.232-0.714-0.334-1.18
		c-0.169-0.796-0.485-1.377-0.949-1.743h-0.462c-0.461,0.007-1.035-0.044-1.717-0.153c-0.672-0.123-1.45-0.303-2.333-0.539
		c-0.659-0.125-1.274-0.22-1.846-0.282c-0.569-0.067-1.09-0.101-1.564-0.102c-0.549-0.001-1.036,0.041-1.462,0.129l-0.025-0.027
		c0.047-0.392-0.013-1.007-0.18-1.846c-0.159-0.841-0.424-1.901-0.794-3.179c-0.12-0.375-0.222-0.742-0.308-1.103
		c-0.085-0.359-0.154-0.709-0.205-1.05c-0.153-0.746-0.248-1.421-0.282-2.026c-0.034-0.612-0.008-1.151,0.077-1.615
		c0.013-0.13,0.082-0.291,0.205-0.486c0.131-0.187,0.319-0.408,0.564-0.667c0.371-0.468,0.56-0.905,0.563-1.307
		c0.179-0.16,0.401-0.304,0.667-0.437c0.27-0.123,0.586-0.243,0.948-0.357l0.82-0.334l0.512-0.205l0.256-0.104l0.103-0.051
		l-0.179-1.615c-0.039-0.458-0.056-0.826-0.052-1.103c-0.039-0.527-0.039-1.05,0-1.564c0.047-0.515,0.132-1.018,0.256-1.513
		c1.031-3.633,3.698-6.957,7.999-9.972c4.045-2.801,8.686-4.749,13.922-5.846c2.632-0.56,5.136-0.841,7.512-0.847
		c2.589,0.005,5.024,0.338,7.307,1c4.846,1.39,8.307,4.064,10.383,8.026c0.056-1.12,0.749-1.744,2.077-1.872
		C131.429,89.004,132.634,89.824,133.355,91.021z M128.382,92.559c-0.258,0.39-0.36,0.767-0.308,1.129
		c0.209-0.022,0.363-0.235,0.462-0.641c0.096-0.336,0.24-0.516,0.436-0.539l-0.051-0.154l-0.078-0.051
		C128.708,92.3,128.554,92.386,128.382,92.559z M131.253,96.507c-0.939,1.814-1.383,3.403-1.333,4.77
		c0.154-0.032,0.324-0.203,0.513-0.514c0.578-0.984,0.868-2.103,0.871-3.358L131.253,96.507z M113.921,141.658
		c-0.085,0.29-0.179,0.683-0.281,1.179l-0.333,1.794l-0.77,2.821c-0.115,0.566-0.183,1.078-0.205,1.538
		c-0.029,0.45-0.012,0.842,0.052,1.179c-0.122,0.24-0.318,0.563-0.591,0.975l-1.05,1.514c-0.387,0.476-0.721,0.92-1,1.332
		c-0.286,0.412-0.518,0.788-0.691,1.127h-0.052l-0.615,1.334c-0.093,0.12-0.213,0.18-0.359,0.18
		c-0.094-0.006-0.196-0.031-0.308-0.076c-0.104-0.033-0.19-0.101-0.256-0.205c-0.038-0.184-0.038-0.33,0-0.436l0.641-1.181
		c-0.308-0.467-0.709-1.186-1.206-2.152c-0.49-0.962-1.071-2.168-1.744-3.616c-1.093-2.556-2.153-4.401-3.178-5.538h-0.488
		c-0.276-0.003-0.593,0.016-0.949,0.051c-0.364,0.032-0.766,0.083-1.205,0.154c-0.569,0.099-1.09,0.15-1.564,0.154
		c-0.381-0.004-0.731-0.038-1.051-0.103c-0.208-0.385-0.482-0.846-0.82-1.384c-0.331-0.536-0.732-1.151-1.205-1.846
		c-0.404-0.673-0.745-1.322-1.025-1.949c-0.286-0.635-0.508-1.24-0.667-1.819c-1.527,1.091-2.108,4.151-1.744,9.177
		c0.174,2.5,0.942,6.04,2.307,10.614c1.604,5.156,2.561,8.865,2.872,11.128l0.103,0.897l0.052,1.205l0.153,1.897
		c0.272,1.612,0.631,3.33,1.077,5.153c0.447,1.831,0.976,3.754,1.589,5.768l0.82,2.411l1.025,2.87l0.436,1.412l0.487,1.512
		c0.135,0.34,0.255,0.683,0.359,1.025l0.051,0.077l0.616-1.128l1.384-2.82c0.528-1.171,1.067-2.411,1.616-3.718
		c0.548-1.308,1.104-2.675,1.667-4.102c0.847-2.169,1.642-4.313,2.384-6.437c0.75-2.113,1.442-4.189,2.077-6.229
		c0.115-0.373,0.226-0.802,0.333-1.281c0.116-0.481,0.227-1.012,0.334-1.59l0.358-1.692l0.257-1.281
		c0.082-0.446,0.294-1.225,0.641-2.335c0.357-1.103,0.845-2.529,1.462-4.279c0.988-2.7,1.397-5.008,1.23-6.924
		c-0.24-3.384-0.949-6.332-2.127-8.845c-0.211,0.269-0.391,0.611-0.539,1.026C114.127,140.612,114.008,141.1,113.921,141.658z"/>
</g>
</svg>
