<?xml version="1.0" encoding="utf-8"?>
<!-- Generator: Adobe Illustrator 16.0.0, SVG Export Plug-In . SVG Version: 6.00 Build 0)  -->
<!DOCTYPE svg PUBLIC "-//W3C//DTD SVG 1.1//EN" "http://www.w3.org/Graphics/SVG/1.1/DTD/svg11.dtd">
<svg version="1.1" id="Layer_1" xmlns="http://www.w3.org/2000/svg" xmlns:xlink="http://www.w3.org/1999/xlink" x="0px" y="0px"
	 width="300px" height="300px" viewBox="0 0 300 300" enable-background="new 0 0 300 300" xml:space="preserve">
<path fill-rule="evenodd" clip-rule="evenodd" fill="#EE203B" d="M266.333,32.394c6.539,5.318,12.075,11.341,16.618,18.063
	c0.968,1.377,1.875,2.785,2.723,4.224c0.825,1.423,1.582,2.869,2.277,4.335l4.003,9.337c0.443,1.386,0.851,2.776,1.222,4.168
	c0.373,1.375,0.708,2.747,1.001,4.112c1.402,6.523,1.999,13.229,1.778,20.121c-0.075,0.377-0.111,0.747-0.111,1.111
	c-0.55,6.917-1.81,13.771-3.78,20.565c-1.974,6.795-4.642,13.483-8.002,20.063l-1.11,2.446l-11.45,18.452L255.715,179.4
	c-1.662,1.912-3.384,3.82-5.168,5.725c-1.784,1.926-3.62,3.834-5.5,5.725l-6.337,6.227c-1.598,1.559-3.413,3.283-5.445,5.168
	c-2.021,1.869-4.242,3.889-6.67,6.059l-60.251,49.578c-11.627,10.225-21.817,20.602-30.569,31.123
	c-0.228,0.154-0.412,0.338-0.557,0.557h-0.053l-25.178-30.791v-0.113c8.108,6.287,13.204,9.771,15.283,10.451
	c0.763,1.629,1.93,3.777,3.503,6.445c1.571,2.674,3.556,5.859,5.946,9.561c-0.109-3.063-2.057-9.139-5.835-18.23l0.053-0.109
	l8.115,8.17c1.4-1.189,3.177-2.781,5.337-4.779c2.173-1.998,4.712-4.389,7.613-7.172h0.111c-6.387,8.209-10.313,13.768-11.78,16.674
	l16.45-16.674c3.952-2.809,7.971-5.717,12.063-8.725c4.089-3.014,8.22-6.107,12.39-9.281c3.62-2.779,7.397-5.762,11.342-8.949
	c3.941-3.172,8.018-6.523,12.226-10.061l11.116-9.561c2.002-1.818,3.947-3.615,5.835-5.391c1.869-1.758,3.666-3.479,5.394-5.168
	c7.032-6.965,12.885-13.449,17.563-19.453l0.22-0.223l1.001-1.445c0.374-0.447,0.708-0.893,1.001-1.332l6.446-8.672
	c0.519-0.814,1.037-1.555,1.559-2.223l7.058-9.949c1.922-2.711,3.384-4.805,4.391-6.281c0.519-0.742,1.001-1.482,1.446-2.221
	l8.002-13.231c5.845-10.646,9.773-20.113,11.783-28.399c1.478-6.077,2.105-12.007,1.891-17.786
	c-0.075-1.986-0.241-3.949-0.501-5.891c-0.259-1.96-0.612-3.888-1.058-5.781c-0.182-0.813-0.441-1.757-0.775-2.834
	c-0.335-1.078-0.744-2.282-1.222-3.612c-0.49-1.516-1.084-3.183-1.778-5.003c-0.683-1.805-1.46-3.75-2.337-5.836l-1.112-2.557
	c-3.946-7.789-9.319-15.108-16.118-21.954c-6.809-6.838-14.998-13.156-24.565-18.952l-0.39-0.112
	c-11.223-6.445-22.637-9.669-34.238-9.67h-2.222c-11.76,0.315-22.635,3.873-32.623,10.671c-9.921,6.756-17.887,15.872-23.902,27.345
	c-5.025,9.695-8.215,20.347-9.558,31.959L135,82.47c0.01-2.008,0.121-4.009,0.331-6.001c0.213-1.979,0.511-3.962,0.888-5.948
	c1.338-7.574,3.71-14.782,7.115-21.619l3.334-5.893c4.081-7.109,9.526-13.149,16.341-18.119c6.468-4.812,13.785-8.479,21.953-11.003
	c7.686-2.295,15.578-3.444,23.679-3.446h0.778c8.448,0.078,16.45,1.448,24.009,4.112c1.817,0.581,3.597,1.211,5.336,1.891
	c1.737,0.696,3.426,1.437,5.06,2.222C252.278,22.502,259.783,27.078,266.333,32.394z M289.009,83.193
	c1.385,6.62,1.628,13.438,0.721,20.454c-0.897,7.019-2.936,14.189-6.114,21.509c-2.832,6.609-6,13.058-9.501,19.342
	c-3.526,6.282-7.358,12.36-11.508,18.229c-3.431,4.859-6.949,9.658-10.559,14.396c-3.62,4.742-7.307,9.393-11.062,13.949
	c9.812-9.047,18.576-18.717,26.29-29.012c7.776-10.602,14.223-22.014,19.342-34.237c5.025-12.201,7.358-22.633,7.001-31.292
	c-0.223-4.206-0.479-7.837-0.775-10.893c-0.298-3.042-0.633-5.486-1.001-7.337L289.009,83.193z M265.721,88.418
	c0.348,6.431-0.34,13.211-2.056,20.341c-1.743,7.129-4.502,14.558-8.282,22.288c-3.646,7.449-7.723,14.453-12.229,21.009
	c-4.527,6.57-9.457,12.648-14.783,18.229c-7.875,7.379-15.654,14.086-23.345,20.121c-7.67,6.049-15.189,11.383-22.564,16.008
	c-8.394,5.209-15.62,9.266-21.678,12.17c-6.047,2.896-10.88,4.621-14.505,5.17c-0.848,0.137-1.587,0.211-2.223,0.223
	c-1.512-0.002-2.419-0.371-2.725-1.111c-0.644-1.461,1.211-4.387,5.559-8.781c1.051-1.092,2.868-2.795,5.445-5.113
	c2.602-2.303,5.954-5.211,10.062-8.729c4.092-3.533,8.925-7.664,14.505-12.393c15.794-11.475,28.188-23.406,37.184-35.793
	c8.998-12.395,14.539-25.16,16.619-38.294c0.138-1.069,0.288-2.607,0.446-4.614l0.555-7.391v-0.222
	c-0.089-10.873-2.647-20.969-7.67-30.292c-3.563-6.295-8.456-12-14.674-17.119c-5.023-4.512-10.414-7.551-16.173-9.115
	c-1.439-0.226-2.865-0.392-4.281-0.5c-1.426-0.115-2.837-0.171-4.224-0.167c-9.82,0.014-18.825,3.034-27.012,9.06
	c6.7-3.952,13.665-5.934,20.899-5.947c1.773-0.009,3.57,0.103,5.389,0.334c1.807,0.253,3.622,0.623,5.447,1.111
	c1.009,0.332,2.062,0.722,3.169,1.167c1.107,0.448,2.256,0.948,3.446,1.5c1.247,0.591,2.469,1.239,3.666,1.946
	c1.219,0.706,2.407,1.465,3.561,2.278c1.919,1.44,3.659,2.849,5.225,4.226c1.562,1.375,2.931,2.709,4.11,4.001
	c4.59,5.281,7.704,10.857,9.337,16.729c2.588,9.781,3.034,19.155,1.336,28.124c-2.583,8.516-6.122,16.277-10.616,23.288
	c-4.504,6.988-9.934,13.176-16.286,18.563c-8.008,6.815-17.272,12.891-27.787,18.231c-7.421,3.697-13.222,6.107-17.398,7.225
	c-1.076,0.268-2.06,0.471-2.943,0.611c-0.899,0.121-1.696,0.176-2.391,0.166c-1.854,0.01-3.021-0.434-3.503-1.332
	c-0.941-1.738,0.91-4.555,5.559-8.449c9.086-6.471,17.238-13.418,24.455-20.842c7.209-7.412,13.432-15.249,18.678-23.509
	l0.108-0.113c6.597-12.191,9.506-22.623,8.726-31.29c-0.816-8.667-5.318-15.577-13.507-20.732l-0.332-0.222
	c-6.57-3.809-12.482-5.716-17.73-5.724c-3.061-0.005-5.895,0.643-8.506,1.945c-8.652,3.428-14.577,9.246-17.782,17.451
	c-3.255,8.211-5.254,16.936-6.003,26.179l-0.111,0.056c-0.275-6.321-0.478-11.749-0.612-16.286
	c-0.15-4.531-0.238-8.163-0.274-10.893l0.443-1.446c1.045-4.917,3.674-12.422,7.891-22.508
	c4.309-10.226,12.166-19.006,23.564-26.345c7.566-4.876,16.256-7.321,26.07-7.337c4.938,0.009,10.159,0.639,15.672,1.889
	c8.168,1.88,15.82,5.011,22.954,9.393c7.128,4.393,13.686,10.005,19.676,16.842c4.444,5.119,7.872,10.583,10.281,16.396
	C263.976,75.886,265.365,82,265.721,88.418z M78.472,25.779c7.465,0.627,14.581,3.258,21.343,7.893
	c6.745,4.666,13.134,11.337,19.175,20.009c4.444,6.446,8.111,12.818,11.005,19.119v1.723c0.119,1.806,0.14,4.529,0.055,8.169
	c-0.102,3.646-0.304,8.186-0.609,13.617l-0.058,0.054c-0.116-0.18-0.171-0.347-0.166-0.499c-1.12-4.571-3.936-10.26-8.448-17.063
	c-4.434-6.875-9.086-11.1-13.95-12.672c-1.559-0.493-3.132-0.863-4.725-1.111c-1.569-0.236-3.143-0.348-4.725-0.334
	c-0.918-0.003-1.846,0.035-2.78,0.113c-0.925,0.071-1.851,0.183-2.777,0.333C78.97,67.305,71.098,75.4,68.193,89.418
	c-1.323,6.599-0.27,13.861,3.166,21.788c3.443,7.931,9.241,16.472,17.396,25.621c9.05,10.228,20.464,20.601,34.235,31.126
	c5.726,4.398,7.875,7.586,6.449,9.559c-0.698,0.961-1.994,1.443-3.89,1.445c-0.897-0.002-1.935-0.113-3.114-0.334
	c-1.185-0.227-2.497-0.561-3.944-1c-8.705-2.465-20.137-9.135-34.295-20.01c-8.93-6.875-16.305-13.86-22.118-20.954
	c-5.824-7.092-10.051-14.243-12.675-21.453c-2.204-6.887-3.648-13.277-4.335-19.175c-0.669-5.891-0.576-11.245,0.28-16.063
	c1.711-9.685,6.472-17.299,14.282-22.843c8.218-5.732,15.906-8.603,23.065-8.614c3.332,0,6.558,0.63,9.675,1.889
	c-4.626-2.218-9.33-3.33-14.122-3.334c-0.809-0.012-1.623,0.006-2.443,0.056c-5.186,0.448-9.967,1.449-14.339,3.001
	c-5.539,2.078-11.004,5.303-16.398,9.67c-6.208,5.032-10.323,11.942-12.337,20.731c-2.134,9.563-1.504,19.901,1.888,31.014
	c3.034,9.766,7.704,19.565,14.007,29.402c6.301,9.853,14.194,19.67,23.677,29.458c7.979,8.123,15.592,16.127,22.844,24.01
	c7.248,7.883,14.083,15.588,20.508,23.119c6.43,7.504,11.212,14.693,14.339,21.566c3.116,6.867,4.563,13.369,4.335,19.508
	l-0.113,0.055c-6.271-9.525-13.832-18.754-22.674-27.678c-8.855-8.922-18.934-17.48-30.234-25.678l-23.902-18.785l-0.332-0.168
	l-12.672-12.059c-9.478-9.119-17.484-19.125-24.009-30.013c-6.516-10.909-11.108-21.266-13.784-31.07
	c-1.971-6.713-3.122-13.16-3.446-19.342c-0.306-6.2,0.213-12.091,1.553-17.673c2.707-11.179,8.712-21.201,18.011-30.068
	c7.582-7.184,16.605-12.631,27.066-16.341c7.992-2.833,15.791-4.259,23.399-4.28L78.472,25.779z"/>
</svg>
