<?xml version="1.0" encoding="utf-8"?>
<!-- Generator: Adobe Illustrator 16.0.0, SVG Export Plug-In . SVG Version: 6.00 Build 0)  -->
<!DOCTYPE svg PUBLIC "-//W3C//DTD SVG 1.1//EN" "http://www.w3.org/Graphics/SVG/1.1/DTD/svg11.dtd">
<svg version="1.1" id="Layer_1" xmlns="http://www.w3.org/2000/svg" xmlns:xlink="http://www.w3.org/1999/xlink" x="0px" y="0px"
	 width="300px" height="300px" viewBox="0 0 300 300" enable-background="new 0 0 300 300" xml:space="preserve">
<path fill-rule="evenodd" clip-rule="evenodd" fill="#231F20" d="M188.554,38.481c2.879,5.046,4.783,9.519,5.712,13.419
	c0.464,1.981,1.052,4.303,1.763,6.965c2.074,8.204,3.468,14.611,4.18,19.224c0.093,0.619,0.186,1.253,0.279,1.903
	c0.99,7.336,1.33,15.013,1.021,23.031c-0.062,2.012-0.448,6.238-1.16,12.677c-1.238,12.754-1.935,20.091-2.09,22.009
	c-0.186,2.322-0.572,4.504-1.161,6.547c-0.401,1.269-1.037,2.987-1.903,5.154c-1.393,3.529-2.353,6.5-2.879,8.915
	c-0.898,4.179-1.346,9.24-1.346,15.184c0,0.774,0.016,1.548,0.046,2.322l-87.667,2.46c0-0.742-0.015-1.439-0.046-2.089
	c-0.464-13.807-1.919-24.315-4.365-31.528c-4.457-13.063-7.8-25.183-10.029-36.358c-1.331-6.717-2.523-14.952-3.575-24.702
	c-0.125-1.208-0.249-2.415-0.372-3.622c-0.681-7.77-0.758-15.478-0.232-23.124c0.62-8.792,2.012-16.686,4.179-23.681
	c2.631-8.544,6.269-15.323,10.912-20.338c4.643-5.108,10.138-8.25,16.484-9.426c4.674-1.021,9.426-1.532,14.254-1.532
	c17.274,0,32.427,6.671,45.459,20.013C180.877,26.858,185.056,32.383,188.554,38.481z M181.914,29.613
	c-5.975,2.043-12.274,3.684-18.899,4.922c-9.781,1.827-20.089,2.786-30.924,2.879c-13.869,0.124-28.016-1.207-42.44-3.993
	c-0.65,1.981-1.223,4.024-1.718,6.129c6.624,1.3,13.187,2.291,19.688,2.972c-1.083,5.665-1.857,12.104-2.322,19.316l-20.152-2.183
	c-0.125,2.074-0.186,4.21-0.186,6.408l20.105,2.136l-0.047,6.129c0.031,1.857,0.093,3.746,0.186,5.665
	c0.155,3.808,0.433,7.692,0.836,11.654L87.05,92.252c0.278,2.229,0.587,4.364,0.929,6.408l18.852-0.697
	c1.053,7.089,2.569,14.131,4.551,21.127l-17.738,6.083c0.527,2.011,1.099,4.07,1.718,6.175l17.831-6.083h0.092
	c2.848,8.668,6.331,16.855,10.448,24.563l-21.592,5.851c0.309,1.979,0.588,4.102,0.836,6.36l25.445-6.872l20.477,3.993l21.266-6.641
	l21.221,7.477c0.093-0.619,0.201-1.223,0.325-1.811c0.279-1.331,0.681-2.787,1.207-4.365l-17.181-6.129
	c1.579-6.161,2.74-12.182,3.482-18.063l18.945,1.857c0.186-2.136,0.372-4.256,0.558-6.362l-18.806-1.81
	c0.619-6.5,0.836-12.708,0.65-18.62l20.245-0.186c0.03-0.588,0.046-1.083,0.046-1.486c0.063-1.641,0.109-3.266,0.14-4.875
	l-20.617,0.186c-0.402-5.758-0.99-11.083-1.765-15.973l21.081-3.39c-0.062-0.278-0.107-0.558-0.139-0.835
	c-0.249-1.61-0.572-3.421-0.976-5.434l-21.034,3.39l-0.789-3.9c-0.681-3.498-1.626-7.306-2.833-11.423l20.524-5.525l-0.79-3.157
	c-0.247-0.991-0.541-1.997-0.883-3.018l-20.709,5.572c-1.764-5.386-3.59-10.154-5.479-14.302c6.934-1.424,13.311-3.188,19.13-5.293
	C184.515,33.188,183.245,31.377,181.914,29.613z M176.621,23.344c-4.985,1.548-10.03,2.771-15.138,3.669
	c-21.608,4.085-44.762,4.023-69.465-0.187c-0.464,1.053-0.898,2.152-1.3,3.297c12.908,2.229,25.508,3.343,37.797,3.343
	c11.918,0,23.169-1.021,33.757-3.064c5.819-1.053,11.453-2.445,16.901-4.179C178.338,25.232,177.486,24.273,176.621,23.344z
	 M174.253,105.857c0.093,5.85-0.171,11.933-0.79,18.248l-8.823,2.6c-2.166-5.974-4.102-11.809-5.804-17.505L174.253,105.857z
	 M118.765,3.564l27.302,0.882c-4.952-1.3-10.121-1.95-15.509-1.95C126.75,2.496,122.819,2.852,118.765,3.564z M101.445,12.015
	c8.884,1.146,17.908,1.718,27.071,1.718c11.36,0,22.304-0.944,32.827-2.833c-1.64-0.991-3.296-1.873-4.967-2.646
	c-16.221,2.507-33.34,2.74-51.356,0.696C103.751,9.848,102.559,10.87,101.445,12.015z M162.272,17.262
	c2.261-0.372,4.365-0.805,6.314-1.3c-1.176-0.96-2.383-1.857-3.621-2.693l-3.482,0.65c-19.41,3.684-40.243,3.962-62.5,0.836
	c-0.804,0.991-1.578,2.043-2.322,3.157c10.711,1.61,21.329,2.415,31.854,2.415C140.434,20.326,151.685,19.305,162.272,17.262z
	 M144.349,43.264c4.953-0.31,10.201-0.897,15.742-1.764c1.888,3.808,3.791,8.652,5.71,14.534l-18.759,3.39
	C145.897,53.231,144.999,47.846,144.349,43.264z M114.028,43.125l3.25,0.232c1.424,10.804,3.344,22.412,5.758,34.825l-11.562-12.49
	C111.846,57.488,112.697,49.966,114.028,43.125z M123.779,43.636l6.687,0.185c2.631,0,5.123-0.062,7.476-0.185
	c0.65,4.302,1.47,9.193,2.461,14.672l-7.755-3.528l-6.221,6.129C125.218,53.758,124.337,48,123.779,43.636z M161.483,20.512
	c-20.772,3.9-42.951,3.978-66.54,0.232c-0.587,1.021-1.145,2.105-1.671,3.25c12.01,1.95,23.758,2.925,35.243,2.925
	c11.577,0,22.829-1.021,33.757-3.065c4.023-0.773,8.048-1.703,12.073-2.786c-0.99-0.959-1.981-1.888-2.973-2.786
	C168.216,19.088,164.918,19.831,161.483,20.512z M151.5,81.2c-0.094-0.402-0.187-0.805-0.279-1.207
	c-1.176-5.262-2.167-10.03-2.971-14.301l19.456-3.483c1.114,3.932,2.074,7.786,2.879,11.562l0.696,3.39L151.5,81.2z M138.127,84.079
	l8.451,3.761c1.3,5.541,2.57,10.572,3.808,15.091l-8.543-3.623l-5.712,7.151c-1.299-5.077-2.569-10.324-3.807-15.741L138.127,84.079
	z M144.768,80.086l-8.358-3.761l-5.758,6.641c-0.217-0.991-0.434-1.981-0.65-2.972c-0.836-3.962-1.579-7.801-2.229-11.515
	l6.223-6.129l7.801,3.622c1.114,5.542,2.104,10.215,2.972,14.023C144.768,80.024,144.768,80.055,144.768,80.086z M103.58,214.558
	c8.203-1.486,16.113-2.616,23.728-3.391c1.641,8.39,1.951,16.407,0.929,24.054c-8.481,0.804-16.839,1.965-25.074,3.482
	c0,0.464,0,0.913,0,1.346c0.031,1.796,0.078,3.498,0.14,5.107c7.986-1.454,15.896-2.6,23.728-3.435
	c-2.508,10.74-7.817,20.166-15.926,28.276l0.185,0.14l-3.575,0.65c0.742,2.167,1.563,4.164,2.461,5.99
	c10.431-1.641,20.709-2.724,30.832-3.251l2.089-0.14l0.093,0.14l0.092-0.14l1.765-0.046c6.006-0.216,11.886-0.216,17.645,0
	l0.232,0.186l0.139-0.186h0.696c8.204,0.34,16.422,1.114,24.657,2.321c0.062-0.155,0.123-0.31,0.185-0.464
	c0.681-1.703,1.301-3.576,1.857-5.618c-7.119-1.146-14.44-1.919-21.963-2.321c5.913-7.584,9.953-16.067,12.119-25.446
	c4.953,0.557,9.41,1.223,13.373,1.997c0.063-1.92,0.139-4.056,0.232-6.408c-4.334-0.774-8.482-1.393-12.444-1.857
	c1.052-7.739,0.897-15.803-0.465-24.191c4.488,0.557,8.945,1.237,13.373,2.043l0.093-5.387c0-0.34,0-0.712,0-1.114
	c-5.263-0.897-10.958-1.688-17.087-2.369c-6.439-0.587-12.848-0.943-19.224-1.067l-3.111-0.046c-6.47,0-12.971,0.217-19.502,0.65
	c-10.742,0.743-21.437,2.058-32.085,3.946c-0.062,1.981-0.123,4.041-0.186,6.176C103.58,214.311,103.58,214.433,103.58,214.558z
	 M121.318,128.841l17.505,7.894c2.136,5.851,4.164,10.912,6.083,15.185l-14.349-2.786
	C127.029,142.787,123.949,136.023,121.318,128.841z M170.584,141.657c-1.486-3.499-2.724-6.5-3.715-9.008l5.758-1.625
	C172.008,134.894,171.326,138.438,170.584,141.657z M145.603,136.874l5.479-7.104l9.286,3.715c1.827,4.829,3.746,9.396,5.759,13.697
	l-14.349,4.411C149.735,147.198,147.677,142.292,145.603,136.874z M143.792,107.063l8.87,3.715
	c1.517,5.015,3.095,9.906,4.735,14.673l-8.358-3.436l-5.943,7.708c-1.764-5.169-3.389-10.401-4.875-15.694L143.792,107.063z
	 M118.485,120.623c-1.703-5.572-3.188-11.67-4.458-18.295l17.413,11.33c1.176,4.333,2.663,9.271,4.458,14.812L118.485,120.623z
	 M112.774,93.877c-0.619-4.798-1.038-9.426-1.254-13.884c-0.062-1.703-0.108-3.39-0.139-5.062l14.255,15.37
	c1.114,5.107,2.229,9.844,3.344,14.208L112.774,93.877z M152.985,87.422l19.409-3.947c0.806,5.262,1.346,10.587,1.626,15.973
	l-16.948,3.575C155.463,97.328,154.101,92.127,152.985,87.422z M103.394,191.479h88.875c0.402,2.477,1.006,5.293,1.811,8.452
	c0.897,3.497,1.332,6.189,1.301,8.078l-0.047,5.897c-0.217,16.747-0.589,28.572-1.114,35.476
	c-0.866,11.051-2.554,19.765-5.062,26.141c-2.972,7.492-7.538,12.972-13.697,16.438c-6.192,3.497-14.457,5.247-24.796,5.247
	c-16.593,0-28.743-4.38-36.45-13.141c-2.755-3.158-4.968-6.935-6.641-11.33c-0.928-2.539-1.827-5.82-2.692-9.844
	c-0.278-1.424-0.542-2.538-0.79-3.344c-0.929-4.302-1.455-10.771-1.578-19.409c-0.063-5.354,0.077-14.008,0.417-25.956
	C103.179,205.456,103.333,197.888,103.394,191.479z M154.843,209.821c1.95,10.122,2.074,19.548,0.372,28.277
	c-2.105,11.02-7.027,20.709-14.766,29.067c-6.346,0.342-12.94,0.913-19.781,1.719c7.182-8.947,11.686-19.021,13.512-30.229
	c1.548-8.977,1.377-18.326-0.511-28.046l2.6-0.186C142.492,210.021,148.684,209.821,154.843,209.821z M141.609,219.758
	c1.455,7.491,0.434,17.056-3.064,28.696c-0.031,0.123-1.176,3.621-3.437,10.493c-0.959,2.817-1.207,4.257-0.743,4.318
	c0.65,0.124,1.842-1.099,3.575-3.667c1.981-2.881,3.792-6.27,5.433-10.17c4.644-10.958,6.052-21.004,4.226-30.136
	c-0.125-0.772-1.192-1.068-3.205-0.882C142.383,218.535,141.455,218.983,141.609,219.758z M160.415,266.888
	c-5.015-0.093-8.808-0.093-11.376,0c6.037-7.77,10.092-16.576,12.166-26.421c4.117,0.094,8.467,0.342,13.049,0.742
	C171.868,250.868,167.257,259.428,160.415,266.888z M130.465,293.68c12.785-1.425,26.112-1.471,39.979-0.14
	c1.857-0.711,3.576-1.531,5.154-2.461c0.248-0.153,0.495-0.293,0.743-0.418c-18.295-2.228-35.738-2.12-52.331,0.325
	C125.993,292.039,128.144,292.937,130.465,293.68z M120.482,288.804c18.729-3.157,38.417-3.313,59.063-0.464
	c1.115-0.929,2.152-1.95,3.111-3.064c-23.279-3.437-45.133-3.22-65.564,0.65l-0.139,0.046
	C118.037,286.962,119.212,287.906,120.482,288.804z M117.604,283.047c8.977-1.703,18.449-2.663,28.417-2.88
	c12.506-0.309,25.353,0.589,38.54,2.694c0.681-0.99,1.331-2.043,1.95-3.158c-24.733-4.118-47.981-4.148-69.743-0.092l-4.411,0.975
	c0.743,1.083,1.516,2.104,2.322,3.063C116.38,283.278,117.355,283.078,117.604,283.047z M162.272,234.106
	c0.929-7.802,0.619-15.866-0.93-24.191c4.552,0.184,9.009,0.448,13.374,0.788c1.578,8.296,1.827,16.344,0.743,24.146
	C171.868,234.539,167.473,234.292,162.272,234.106z M193.475,251.007l-2.273,15.463
	C192.191,262.013,192.949,256.858,193.475,251.007z"/>
</svg>
