<?xml version="1.0" encoding="utf-8"?>
<!-- Generator: Adobe Illustrator 16.0.0, SVG Export Plug-In . SVG Version: 6.00 Build 0)  -->
<!DOCTYPE svg PUBLIC "-//W3C//DTD SVG 1.1//EN" "http://www.w3.org/Graphics/SVG/1.1/DTD/svg11.dtd">
<svg version="1.1" id="Layer_1" xmlns="http://www.w3.org/2000/svg" xmlns:xlink="http://www.w3.org/1999/xlink" x="0px" y="0px"
	 width="300px" height="300px" viewBox="0 0 300 300" enable-background="new 0 0 300 300" xml:space="preserve">
<g>
	<path fill="#75AADB" d="M214.669,215.136V87.3h63.881v127.836H214.669z M84.804,87.3v127.836H21.45V87.3H84.804z"/>
	<path fill="#FFFFFF" d="M84.804,215.136V87.3h129.865v127.836H84.804z M128.318,126.23c-0.101,0.751,0.074,1.578,0.525,2.48
		c0.251,0.4,0.502,0.776,0.751,1.127c0.301,0.351,0.729,0.727,1.278,1.127c0.852,0.751,1.528,1.478,2.029,2.179
		c0.5,0.751,0.978,1.754,1.428,3.006c0.552,1.453,1.001,2.506,1.354,3.157c0.399,0.652,1.001,1.428,1.803,2.33
		c0.751,0.801,1.354,1.553,1.804,2.254c0.45,0.701,0.477,0.901,0.075,0.602c-0.3-0.251-1.979-1.729-5.035-4.435
		c-6.012-5.461-9.444-8.542-10.295-9.244c-0.652-0.551-1.078-0.852-1.279-0.902c-0.1-0.05-0.251,0-0.45,0.15
		c-0.05,0.05-0.1,0.125-0.149,0.225c-0.101,0.101-0.151,0.175-0.151,0.226c0,0.2,0.275,0.602,0.826,1.203
		c0.552,0.651,1.403,1.578,2.556,2.781c2.705,2.806,5.313,5.511,7.816,8.117c2.556,2.604,3.832,3.933,3.832,3.983
		c0,0.101-0.627-0.101-1.879-0.601c-1.202-0.501-2.18-0.952-2.931-1.353c-0.802-0.402-1.879-1.253-3.231-2.556
		c-1.252-1.152-2.204-1.929-2.855-2.33c-0.65-0.401-1.628-0.802-2.932-1.203c-1.302-0.351-2.205-0.676-2.705-0.977
		c-0.501-0.25-1.003-0.651-1.503-1.202c-0.302-0.401-0.525-0.627-0.677-0.677c-0.15-0.101-0.276-0.101-0.376,0
		c-0.551,0.301-0.575,0.902-0.075,1.804c0.551,0.901,1.302,1.603,2.255,2.104c0.301,0.15,0.952,0.401,1.954,0.751
		c1.052,0.351,1.929,0.776,2.63,1.278c0.752,0.5,1.579,1.252,2.48,2.254c1.001,1.052,1.804,1.804,2.404,2.255
		c0.552,0.451,1.479,1.002,2.782,1.653c0.55,0.251,1.075,0.526,1.577,0.827c0.553,0.3,0.878,0.526,0.978,0.676l0.451,0.526
		l-9.019-3.231c-6.163-2.255-9.845-3.558-11.049-3.908c-0.801-0.2-1.302-0.275-1.503-0.225c-0.199,0.05-0.299,0.225-0.299,0.526
		c0,0.201,0.175,0.426,0.525,0.676c0.351,0.2,1.052,0.526,2.104,0.978c3.507,1.553,7.265,3.231,11.273,5.035
		c3.957,1.754,5.985,2.682,6.087,2.781c0.1,0.102-0.052,0.15-0.451,0.15c-0.401,0-1.104-0.025-2.104-0.075
		c-1.753-0.101-2.981-0.2-3.683-0.302c-0.752-0.149-1.754-0.477-3.006-0.977c-1.554-0.652-2.681-1.028-3.382-1.127
		c-0.7-0.15-1.828-0.125-3.383,0.075c-1.401,0.101-2.354,0.125-2.854,0.076c-0.552-0.101-1.204-0.351-1.955-0.751
		c-0.399-0.2-0.702-0.276-0.901-0.226c-0.25,0.051-0.376,0.226-0.376,0.526c0,0.351,0.227,0.728,0.677,1.127
		c0.451,0.399,0.977,0.701,1.578,0.901c0.4,0.149,0.826,0.25,1.277,0.302c0.502,0.05,1.278,0.073,2.33,0.073
		c1.504,0,2.604,0.076,3.306,0.227c0.702,0.15,1.755,0.551,3.157,1.203c1.152,0.602,2.104,0.977,2.855,1.127
		c0.701,0.199,1.654,0.352,2.856,0.449c0.852,0.052,1.753,0.152,2.705,0.303c0.953,0.148,1.354,0.273,1.202,0.375
		c0,0.05-1.127,0.125-3.382,0.227c-2.354,0.1-6.664,0.274-12.926,0.525c-2.205,0.05-3.782,0.1-4.735,0.148
		c-0.901,0.102-1.427,0.201-1.578,0.302c-0.301,0.149-0.45,0.325-0.45,0.526c0,0.199,0.126,0.351,0.376,0.45
		c0.149,0.101,1.527,0.226,4.133,0.375c2.655,0.101,5.887,0.201,9.695,0.302c5.661,0.15,8.417,0.326,8.267,0.525
		c-0.101,0.102-0.626,0.325-1.577,0.678c-0.953,0.351-1.855,0.676-2.707,0.977c-0.601,0.199-1.202,0.326-1.803,0.376
		c-0.552,0.101-1.629,0.175-3.232,0.226l-3.607,0.075l-2.555,1.276c-1.353,0.652-2.354,1.078-3.006,1.279
		c-0.602,0.199-1.227,0.225-1.879,0.073c-0.452-0.101-0.777-0.101-0.978,0c-0.149,0.15-0.176,0.376-0.074,0.677
		c0.2,0.701,1.151,1.053,2.854,1.053c0.702,0,1.228-0.051,1.579-0.15c0.35-0.1,0.951-0.325,1.803-0.676
		c0.502-0.251,1.027-0.477,1.579-0.678c0.501-0.199,0.852-0.325,1.052-0.375c0.201-0.051,0.728-0.101,1.579-0.15
		c0.901,0,1.853,0,2.854,0l3.758-0.074l1.954-0.677c1.354-0.501,2.281-0.728,2.781-0.677l0.451,0.074
		c0,0.051-0.352,0.252-1.053,0.603c-0.852,0.401-4.96,2.229-12.325,5.485c-4.157,1.854-6.313,2.832-6.463,2.932
		c-0.15,0.15-0.225,0.352-0.225,0.602c0,0.2,0.1,0.375,0.299,0.525c0.1,0.05,0.227,0.076,0.376,0.076
		c0.201,0,0.627-0.102,1.278-0.301c0.901-0.303,4.184-1.479,9.845-3.533c6.313-2.305,9.494-3.432,9.544-3.383
		c0.05,0.051-0.5,0.627-1.652,1.729c-1.202,1.103-2.028,1.829-2.48,2.181c-0.25,0.149-0.726,0.375-1.427,0.676
		c-0.652,0.352-1.304,0.652-1.955,0.902c-1.504,0.602-2.555,1.103-3.156,1.502c-0.552,0.401-1.178,1.027-1.879,1.879
		c-1.001,1.203-1.854,2.08-2.556,2.631c-0.7,0.502-1.401,0.752-2.104,0.752c-0.251,0-0.402,0.101-0.452,0.301
		c-0.05,0.201,0.026,0.426,0.227,0.677c0.199,0.251,0.575,0.376,1.127,0.376c0.552,0,1.178-0.15,1.879-0.451
		c0.4-0.149,0.802-0.351,1.202-0.602c0.351-0.301,0.876-0.801,1.578-1.503c1.002-1.002,1.829-1.703,2.48-2.104
		c0.702-0.4,1.854-0.878,3.457-1.429c1.252-0.45,2.18-0.853,2.781-1.202c0.551-0.351,1.277-0.902,2.179-1.652
		c0.552-0.502,1.203-1.002,1.955-1.504c0.751-0.451,1.127-0.602,1.127-0.451c0,0.051-2.18,2.354-6.539,6.914
		c-4.71,4.91-7.341,7.69-7.892,8.342c-0.45,0.503-0.7,0.852-0.751,1.053c0,0.052,0.075,0.15,0.226,0.301
		c0.201,0.25,0.352,0.376,0.451,0.376c0.149,0,0.476-0.198,0.978-0.602c0.701-0.552,3.282-2.854,7.74-6.913l4.133-3.684
		c0.4-0.451,1.127-1.127,2.18-2.028c1.053-0.901,1.578-1.327,1.578-1.277c0,0.2-0.324,1.002-0.977,2.405
		c-0.651,1.402-1.127,2.329-1.428,2.779c-0.102,0.25-0.427,0.651-0.978,1.203c-0.501,0.551-1.026,1.103-1.578,1.652
		c-1.103,1.053-1.854,1.93-2.255,2.631c-0.45,0.65-0.826,1.578-1.127,2.78c-0.301,1.002-0.625,1.804-0.978,2.405
		c-0.35,0.65-0.752,1.15-1.202,1.503c-0.852,0.551-1.103,0.977-0.752,1.276c0.352,0.301,1.003,0.227,1.954-0.227
		c0.552-0.249,1.077-0.701,1.579-1.352c0.501-0.651,0.877-1.379,1.128-2.181c0.399-1.202,0.901-2.205,1.503-3.006
		c0.55-0.752,1.829-2.028,3.832-3.833c0.401-0.352,0.752-0.751,1.053-1.202c0.3-0.45,0.651-1.077,1.051-1.879
		c0.502-0.952,1.003-1.754,1.503-2.405c0.452-0.701,0.729-1.002,0.828-0.9c0.05,0.05-0.978,2.779-3.082,8.191
		c-2.104,5.461-3.382,8.867-3.833,10.221c-0.5,1.303-0.7,2.08-0.601,2.33c0.101,0.199,0.2,0.324,0.3,0.375s0.276,0.024,0.527-0.074
		c0.201-0.102,0.6-0.727,1.202-1.879c0.602-1.202,2.055-4.258,4.359-9.17c2.454-5.41,3.758-8.166,3.907-8.267
		c0.149-0.149,0.176,0.802,0.075,2.855c-0.051,2.055-0.15,3.28-0.302,3.683c-0.199,0.602-0.6,1.578-1.202,2.932
		c-0.55,1.252-0.851,2.256-0.9,3.006c-0.102,0.752-0.075,2.13,0.074,4.135l0.149,1.953l-0.6,1.128
		c-0.351,0.7-0.527,1.151-0.527,1.353c0,0.2,0.201,0.301,0.602,0.301c0.352,0,0.702-0.176,1.053-0.525
		c0.301-0.251,0.627-0.727,0.977-1.428c0.201-0.401,0.325-0.777,0.375-1.129c0.051-0.399,0.077-1.252,0.077-2.556
		c0-1.553,0.074-2.604,0.225-3.155c0.101-0.5,0.576-1.653,1.428-3.457c0.602-1.304,0.978-2.205,1.127-2.705
		c0.101-0.502,0.2-1.479,0.302-2.932c0.05-0.602,0.124-1.178,0.225-1.729c0.1-0.553,0.2-0.928,0.301-1.129
		c0.101-0.301,0.174-0.399,0.226-0.301c0,0.102,0.05,0.627,0.149,1.58c0.052,1.303,0.151,3.808,0.302,7.514
		c0.199,6.013,0.325,9.596,0.375,10.748c0.101,1.103,0.227,1.752,0.376,1.953c0.2,0.302,0.426,0.4,0.677,0.302
		c0.149-0.101,0.251-0.2,0.301-0.302c0.101-0.201,0.175-0.677,0.226-1.429c0.102-1.001,0.275-4.858,0.526-11.571
		c0.101-3.76,0.199-6.139,0.3-7.142l0.076-1.577l0.525,1.053c0.301,0.802,0.677,1.754,1.127,2.854
		c0.301,0.853,0.502,1.528,0.602,2.028c0.051,0.451,0.1,1.529,0.15,3.231l0.148,3.532l0.828,1.578
		c0.951,1.855,1.504,2.956,1.652,3.307c0.1,0.352,0.148,0.953,0.148,1.805c0,0.4,0.026,0.775,0.076,1.127
		c0,0.302,0.024,0.477,0.075,0.525c0.149,0.151,0.376,0.151,0.677,0c0.301-0.15,0.525-0.398,0.676-0.752
		c0.15-0.199,0.252-0.449,0.302-0.751c0.051-0.3,0.073-0.702,0.073-1.202c0-0.601-0.049-1.076-0.148-1.429
		c-0.1-0.351-0.352-0.926-0.752-1.728c-0.552-1.203-0.9-2.205-1.052-3.006c-0.15-0.752-0.201-2.105-0.15-4.06l0.075-3.231
		l-0.826-2.254c-0.352-1.054-0.602-1.93-0.752-2.631c-0.15-0.752-0.125-1.003,0.075-0.752c0.101,0.1,1.228,2.455,3.382,7.064
		c2.655,5.611,4.311,9.093,4.96,10.445c0.651,1.354,1.077,2.078,1.278,2.18c0.3,0.101,0.551,0.051,0.752-0.15
		c0.199-0.148,0.275-0.376,0.225-0.675c-0.051-0.353-1.277-3.634-3.684-9.847c-2.454-6.313-3.707-9.594-3.758-9.846
		c-0.051-0.199,0.553,0.326,1.805,1.579c1.252,1.202,2.054,2.054,2.404,2.556c0.101,0.199,0.301,0.576,0.602,1.127
		c0.251,0.602,0.527,1.203,0.826,1.804c0.552,1.401,1.053,2.405,1.503,3.007c0.502,0.65,1.179,1.303,2.03,1.953
		c1.252,0.953,2.08,1.678,2.479,2.18c0.402,0.502,0.701,1.104,0.902,1.805c0.251,1.002,0.627,1.252,1.128,0.752
		c0.2-0.252,0.301-0.678,0.301-1.278c-0.05-0.651-0.228-1.252-0.526-1.804c-0.252-0.551-0.477-0.951-0.678-1.203
		c-0.199-0.25-0.725-0.752-1.578-1.504c-0.851-0.75-1.502-1.451-1.953-2.103c-0.4-0.651-0.852-1.653-1.354-3.007
		c-0.501-1.303-0.951-2.305-1.352-3.006c-0.451-0.752-1.078-1.579-1.879-2.48c-0.604-0.65-1.104-1.252-1.504-1.804
		c-0.451-0.601-0.627-0.951-0.526-1.052c0.1-0.051,3.407,2.881,9.921,8.793c4.059,3.707,6.287,5.66,6.689,5.861
		c0.148,0.051,0.274,0.076,0.375,0.076s0.199-0.053,0.299-0.152c0.201-0.199,0.302-0.398,0.302-0.601
		c-0.05-0.2-0.251-0.501-0.601-0.901c-0.302-0.351-1.828-1.955-4.586-4.811c-2.755-2.855-5.185-5.386-7.289-7.59
		c-1.604-1.604-2.431-2.48-2.48-2.631c-0.051-0.102,0.527,0.1,1.729,0.602c1.152,0.45,2.18,0.901,3.082,1.354
		c0.752,0.4,1.803,1.252,3.156,2.555c0.602,0.553,1.178,1.053,1.729,1.504c0.551,0.5,0.953,0.826,1.201,0.977
		c0.201,0.102,0.577,0.25,1.129,0.451c0.551,0.199,1.127,0.375,1.729,0.525c1.202,0.4,2.105,0.752,2.705,1.053
		c0.604,0.301,1.128,0.728,1.578,1.277c0.301,0.352,0.527,0.576,0.677,0.676c0.103,0.051,0.228,0.025,0.376-0.074
		c0.5-0.301,0.525-0.853,0.075-1.652c-0.351-0.803-1.002-1.504-1.954-2.104c-0.301-0.149-1.076-0.45-2.329-0.901
		c-1.053-0.4-1.929-0.826-2.631-1.277c-0.701-0.501-1.554-1.277-2.556-2.329c-1.002-1.053-1.777-1.805-2.33-2.255
		c-0.602-0.4-1.479-0.902-2.631-1.503c-1.752-0.853-2.756-1.429-3.006-1.729c-0.199-0.301,0.477-0.149,2.028,0.45l6.841,2.405
		c5.561,2.055,8.991,3.281,10.295,3.682c1.305,0.452,2.055,0.627,2.256,0.526c0.248-0.149,0.375-0.351,0.375-0.601
		c-0.049-0.25-0.199-0.451-0.451-0.603c-0.15-0.101-1.178-0.576-3.08-1.428c-2.006-0.902-4.284-1.929-6.84-3.081
		c-2.555-1.104-4.785-2.079-6.688-2.932c-1.854-0.901-2.808-1.377-2.856-1.428c-0.049-0.15,0.826-0.176,2.631-0.076
		c1.805,0.051,3.08,0.176,3.832,0.377c0.651,0.149,1.604,0.477,2.856,0.977c1.302,0.552,2.306,0.902,3.007,1.053
		c0.649,0.102,1.527,0.125,2.631,0.075c1.651-0.201,2.83-0.274,3.53-0.226c0.702,0.049,1.328,0.25,1.88,0.601
		c0.551,0.251,0.952,0.376,1.201,0.376c0.301-0.05,0.452-0.227,0.452-0.525c0-0.351-0.276-0.727-0.828-1.127
		c-0.5-0.451-1.051-0.777-1.651-0.978c-0.553-0.251-1.703-0.376-3.457-0.376c-1.453,0-2.53-0.051-3.232-0.149
		c-0.648-0.151-1.628-0.526-2.932-1.128c-1.353-0.65-2.379-1.053-3.08-1.203c-0.65-0.199-1.553-0.351-2.705-0.449
		c-1.002-0.051-1.954-0.15-2.856-0.302c-0.95-0.2-1.377-0.351-1.276-0.45c0.049-0.051,2.955-0.176,8.718-0.375
		c6.213-0.15,10.096-0.276,11.647-0.377c0.997-0.068,1.697-0.144,2.104-0.226c0.187-0.054,0.313-0.104,0.376-0.149
		c0.15-0.201,0.225-0.352,0.225-0.451c0-0.101-0.074-0.25-0.225-0.451c-0.051-0.051-0.176-0.102-0.376-0.15
		c-0.392-0.083-1.066-0.158-2.029-0.225c-1.403-0.051-5.336-0.176-11.799-0.377c-2.104-0.101-3.983-0.176-5.638-0.226l-2.403-0.149
		c-0.05-0.051-0.026-0.102,0.075-0.15c0.1-0.05,0.225-0.1,0.376-0.15c2.505-1.002,4.108-1.578,4.81-1.729
		c0.702-0.15,2.079-0.275,4.135-0.376l3.605-0.074l5.261-2.707l1.654,0.076c0.651,0,1.101-0.024,1.353-0.076
		c0.2,0,0.301-0.05,0.301-0.149c0-0.5-0.25-0.876-0.752-1.126c-0.551-0.251-1.303-0.376-2.254-0.376c-0.651,0-1.152,0.05-1.504,0.15
		c-0.351,0.101-0.951,0.326-1.804,0.677c-1.303,0.601-2.18,0.952-2.631,1.052c-0.399,0.1-1.854,0.148-4.356,0.148h-3.685
		l-2.104,0.752c-1.4,0.502-2.379,0.727-2.932,0.678c-0.35-0.051-0.426-0.127-0.225-0.227c0.201-0.15,1.025-0.525,2.479-1.127
		c11.273-5.011,17.01-7.591,17.21-7.741c0.201-0.15,0.302-0.351,0.302-0.602c-0.049-0.2-0.149-0.375-0.302-0.525
		c-0.1-0.101-0.2-0.125-0.301-0.076c-0.199,0-0.601,0.101-1.202,0.301c-0.852,0.3-4.232,1.503-10.146,3.607
		c-6.262,2.255-9.418,3.357-9.469,3.307c-0.05-0.051,0.525-0.627,1.729-1.729c1.203-1.102,2.028-1.828,2.479-2.179
		c0.25-0.15,0.701-0.375,1.354-0.677c0.602-0.3,1.229-0.576,1.879-0.826c1.302-0.551,2.329-1.078,3.081-1.579
		c0.751-0.451,1.354-0.977,1.804-1.578c0.953-1.152,1.754-2.029,2.404-2.63c0.702-0.551,1.379-0.877,2.029-0.977
		c1.002-0.15,1.252-0.501,0.752-1.053c-0.252-0.25-0.651-0.375-1.203-0.375c-0.551,0-1.15,0.15-1.803,0.451
		c-0.453,0.15-0.853,0.35-1.203,0.601c-0.35,0.3-0.853,0.776-1.504,1.428c-0.95,0.952-1.778,1.653-2.479,2.104
		c-0.752,0.451-1.931,0.952-3.533,1.503c-1.252,0.451-2.179,0.851-2.779,1.202c-0.603,0.301-1.305,0.826-2.104,1.578
		c-0.802,0.702-1.553,1.278-2.255,1.729c-0.701,0.45-1.001,0.525-0.9,0.225c0.049-0.15,3.731-4.009,11.047-11.574
		c1.453-1.503,2.479-2.605,3.082-3.307c0.651-0.702,0.977-1.127,0.977-1.278c0-0.15-0.074-0.301-0.225-0.451
		c-0.151-0.2-0.326-0.3-0.526-0.3c-0.15,0-0.877,0.576-2.181,1.729c-1.303,1.153-3.957,3.532-7.967,7.14
		c-4.158,3.808-6.263,5.661-6.313,5.562c-0.051-0.101,0.275-0.902,0.979-2.405c0.7-1.503,1.227-2.506,1.577-3.006
		c0.201-0.251,0.5-0.601,0.902-1.052c0.45-0.501,0.901-0.952,1.352-1.353c1.003-0.952,1.729-1.753,2.181-2.405
		c0.4-0.702,0.802-1.679,1.201-2.931c0.401-1.253,0.777-2.18,1.129-2.781c0.351-0.601,0.775-1.078,1.277-1.428
		c0.45-0.25,0.701-0.5,0.751-0.751c0.052-0.3-0.1-0.5-0.45-0.601c-0.502-0.101-1.078,0.05-1.729,0.451
		c-0.701,0.401-1.278,0.927-1.729,1.579c-0.1,0.15-0.25,0.451-0.451,0.902c-0.148,0.401-0.301,0.776-0.449,1.127
		c-0.352,1.102-0.727,1.904-1.127,2.404c-0.401,0.551-1.329,1.529-2.782,2.931c-1.353,1.353-2.204,2.255-2.554,2.705
		c-0.354,0.452-0.752,1.153-1.205,2.105c-0.248,0.551-0.524,1.077-0.825,1.578c-0.351,0.501-0.601,0.826-0.751,0.977
		c-0.251,0.201-0.401,0.326-0.451,0.376c-0.05,0-0.05-0.075,0-0.225l3.684-9.77c1.002-2.556,1.879-4.835,2.631-6.839
		c0.699-2.004,1.076-3.106,1.127-3.307c0.05-0.451,0.024-0.727-0.074-0.826c-0.151-0.15-0.376-0.175-0.678-0.076
		c-0.2,0.05-0.551,0.526-1.053,1.428c-0.449,0.952-1.753,3.758-3.906,8.417c-2.406,5.06-3.785,7.916-4.135,8.567l-0.525,1.127v-2.33
		c0-1.553,0.074-2.756,0.226-3.607c0.201-0.902,0.601-2.079,1.202-3.532l1.127-2.48l-0.074-2.105
		c-0.102-2.404-0.125-3.882-0.074-4.434c0-0.601,0.148-1.127,0.451-1.579c0.301-0.5,0.449-0.876,0.449-1.127
		c-0.05-0.25-0.227-0.376-0.525-0.376c-0.353,0-0.729,0.2-1.127,0.602c-0.353,0.35-0.651,0.801-0.902,1.353
		c-0.201,0.451-0.324,0.876-0.377,1.278c-0.049,0.4-0.1,1.227-0.148,2.479c0,1.503-0.052,2.53-0.15,3.081
		c-0.149,0.501-0.651,1.654-1.504,3.458c-0.551,1.252-0.9,2.129-1.051,2.63c-0.15,0.551-0.275,1.578-0.376,3.081
		c-0.05,0.601-0.126,1.152-0.226,1.654c-0.051,0.551-0.127,0.927-0.227,1.127c-0.15,0.3-0.226,0.401-0.226,0.3
		c-0.052-0.05-0.103-0.476-0.151-1.277c-0.1-1.153-0.199-3.658-0.299-7.516c-0.251-6.063-0.402-9.67-0.451-10.822
		c-0.051-1.202-0.15-1.904-0.301-2.104c-0.15-0.251-0.301-0.401-0.452-0.452c-0.199,0-0.376,0.101-0.525,0.301
		c-0.149,0.2-0.275,1.077-0.376,2.63c-0.1,1.553-0.226,4.91-0.375,10.071c-0.15,4.458-0.25,7.089-0.302,7.891l-0.149,1.202
		l-0.45-1.053c-0.353-0.801-0.729-1.753-1.128-2.855c-0.352-0.852-0.552-1.528-0.602-2.029c-0.1-0.451-0.176-1.528-0.226-3.231
		l-0.15-3.607l-0.751-1.578c-1.053-1.955-1.653-3.207-1.805-3.758c-0.2-0.501-0.225-1.178-0.074-2.029c0.1-0.451,0.1-0.727,0-0.827
		c-0.1-0.15-0.326-0.175-0.677-0.075c-0.4,0.05-0.7,0.326-0.901,0.826c-0.201,0.501-0.301,1.127-0.301,1.879
		c0,0.602,0.05,1.052,0.149,1.354c0.1,0.35,0.353,0.952,0.752,1.803c0.602,1.203,0.952,2.18,1.052,2.931
		c0.151,0.801,0.227,2.179,0.227,4.133l-0.075,3.157l0.826,2.33c0.352,1.052,0.577,1.929,0.677,2.63
		c0.2,0.751,0.175,1.001-0.076,0.751c-0.1-0.15-1.027-2.079-2.78-5.787c-3.006-6.413-4.835-10.321-5.486-11.724
		c-0.702-1.403-1.127-2.13-1.277-2.18c-0.199-0.1-0.4-0.1-0.602,0c-0.199,0.101-0.326,0.251-0.376,0.451
		c-0.05,0.1,0.276,1.102,0.978,3.006c0.702,1.904,1.604,4.309,2.705,7.214c2.556,6.613,3.81,9.945,3.758,9.995
		c-0.05,0.05-0.274-0.15-0.677-0.601c-0.45-0.4-0.951-0.877-1.503-1.428c-1.101-1.152-1.853-2.028-2.254-2.63
		c-0.399-0.601-0.901-1.652-1.504-3.156c-0.398-1.002-0.851-1.829-1.352-2.48c-0.551-0.701-1.278-1.403-2.18-2.104
		c-0.951-0.752-1.652-1.403-2.104-1.954c-0.501-0.551-0.802-1.052-0.901-1.503c-0.15-0.652-0.276-1.027-0.376-1.127
		c-0.05-0.15-0.149-0.225-0.301-0.225C128.644,125.103,128.368,125.479,128.318,126.23z"/>
	<path fill="#80341A" d="M128.318,126.23c0.05-0.751,0.325-1.127,0.826-1.127c0.151,0,0.251,0.075,0.301,0.225
		c0.1,0.1,0.226,0.476,0.376,1.127c0.1,0.451,0.4,0.952,0.901,1.503c0.452,0.551,1.153,1.202,2.104,1.954
		c0.901,0.701,1.629,1.403,2.18,2.104c0.501,0.652,0.953,1.478,1.352,2.48c0.603,1.503,1.104,2.555,1.504,3.156
		c0.401,0.602,1.153,1.479,2.254,2.63c0.552,0.551,1.053,1.028,1.503,1.428c0.402,0.451,0.627,0.651,0.677,0.601
		c0.052-0.05-1.202-3.382-3.758-9.995c-1.102-2.906-2.003-5.311-2.705-7.214c-0.701-1.904-1.027-2.906-0.978-3.006
		c0.05-0.2,0.177-0.351,0.376-0.451c0.201-0.1,0.402-0.1,0.602,0c0.15,0.05,0.575,0.776,1.277,2.18
		c0.651,1.403,2.48,5.311,5.486,11.724c1.753,3.708,2.681,5.637,2.78,5.787c0.251,0.25,0.276,0,0.076-0.751
		c-0.1-0.702-0.325-1.578-0.677-2.63l-0.826-2.33l0.075-3.157c0-1.954-0.075-3.332-0.227-4.133c-0.1-0.751-0.45-1.729-1.052-2.931
		c-0.399-0.852-0.652-1.453-0.752-1.803c-0.1-0.301-0.149-0.751-0.149-1.354c0-0.751,0.1-1.377,0.301-1.879
		c0.201-0.5,0.501-0.776,0.901-0.826c0.351-0.101,0.577-0.075,0.677,0.075c0.1,0.101,0.1,0.376,0,0.827
		c-0.15,0.852-0.126,1.528,0.074,2.029c0.151,0.551,0.752,1.803,1.805,3.758l0.751,1.578l0.15,3.607
		c0.05,1.703,0.126,2.781,0.226,3.231c0.05,0.501,0.25,1.178,0.602,2.029c0.399,1.102,0.775,2.054,1.128,2.855l0.45,1.053
		l0.149-1.202c0.052-0.802,0.151-3.433,0.302-7.891c0.149-5.161,0.275-8.518,0.375-10.071c0.101-1.553,0.227-2.43,0.376-2.63
		c0.149-0.201,0.326-0.301,0.526-0.301c0.15,0.051,0.301,0.201,0.451,0.452c0.148,0.2,0.25,0.902,0.301,2.104
		c0.049,1.152,0.2,4.759,0.451,10.822c0.1,3.857,0.199,6.362,0.299,7.516c0.051,0.801,0.102,1.227,0.151,1.277
		c0,0.101,0.075,0,0.226-0.3c0.1-0.2,0.176-0.576,0.227-1.127c0.1-0.501,0.176-1.053,0.226-1.654
		c0.101-1.503,0.226-2.53,0.376-3.081c0.149-0.501,0.5-1.378,1.051-2.63c0.853-1.804,1.354-2.956,1.504-3.458
		c0.1-0.551,0.15-1.578,0.15-3.081c0.051-1.252,0.1-2.079,0.149-2.479c0.052-0.402,0.175-0.827,0.376-1.278
		c0.251-0.551,0.551-1.002,0.902-1.353c0.398-0.402,0.774-0.602,1.127-0.602c0.299,0,0.477,0.125,0.525,0.376
		c0,0.251-0.148,0.626-0.449,1.127c-0.303,0.452-0.451,0.978-0.451,1.579c-0.051,0.551-0.026,2.029,0.074,4.434l0.074,2.105
		l-1.127,2.479c-0.602,1.453-1.001,2.63-1.202,3.532c-0.151,0.852-0.226,2.054-0.226,3.607v2.33l0.525-1.127
		c0.351-0.651,1.729-3.507,4.135-8.567c2.154-4.66,3.457-7.466,3.906-8.417c0.502-0.902,0.853-1.378,1.053-1.428
		c0.302-0.1,0.525-0.075,0.678,0.076c0.1,0.1,0.124,0.375,0.074,0.826c-0.051,0.201-0.428,1.303-1.127,3.307
		c-0.752,2.003-1.629,4.283-2.631,6.839l-3.684,9.77c-0.05,0.15-0.05,0.225,0,0.225c0.051-0.05,0.2-0.175,0.451-0.376
		c0.15-0.15,0.4-0.476,0.751-0.977c0.301-0.501,0.577-1.027,0.826-1.578c0.452-0.952,0.852-1.653,1.204-2.104
		c0.35-0.45,1.201-1.354,2.554-2.705c1.453-1.402,2.381-2.38,2.782-2.931c0.4-0.5,0.775-1.303,1.127-2.404
		c0.148-0.351,0.301-0.727,0.449-1.127c0.201-0.451,0.353-0.751,0.451-0.902c0.45-0.652,1.027-1.177,1.729-1.579
		c0.649-0.401,1.228-0.551,1.729-0.451c0.352,0.101,0.502,0.301,0.45,0.601c-0.05,0.251-0.301,0.501-0.751,0.751
		c-0.502,0.351-0.928,0.827-1.277,1.428c-0.351,0.601-0.728,1.528-1.129,2.781c-0.399,1.252-0.801,2.229-1.201,2.931
		c-0.45,0.652-1.178,1.453-2.18,2.405c-0.451,0.401-0.902,0.852-1.353,1.353c-0.402,0.451-0.701,0.801-0.902,1.052
		c-0.353,0.5-0.877,1.503-1.577,3.006c-0.703,1.503-1.027,2.304-0.979,2.405c0.05,0.1,2.154-1.754,6.313-5.562
		c4.01-3.607,6.664-5.987,7.967-7.14c1.304-1.153,2.029-1.729,2.181-1.729c0.2,0,0.375,0.1,0.526,0.3
		c0.149,0.15,0.225,0.301,0.225,0.451c0,0.151-0.324,0.576-0.977,1.278c-0.603,0.701-1.629,1.803-3.082,3.307
		c-7.314,7.565-10.998,11.423-11.047,11.574c-0.101,0.3,0.199,0.225,0.9-0.225c0.702-0.452,1.453-1.028,2.255-1.729
		c0.802-0.751,1.503-1.277,2.104-1.578c0.602-0.351,1.527-0.751,2.779-1.202c1.604-0.551,2.781-1.053,3.533-1.503
		c0.7-0.451,1.528-1.153,2.479-2.104c0.652-0.651,1.154-1.127,1.504-1.428c0.352-0.251,0.751-0.451,1.203-0.601
		c0.651-0.301,1.252-0.451,1.803-0.451c0.552,0,0.951,0.125,1.203,0.375c0.501,0.551,0.25,0.902-0.752,1.053
		c-0.65,0.1-1.327,0.425-2.029,0.977c-0.65,0.601-1.451,1.478-2.404,2.63c-0.449,0.601-1.053,1.127-1.804,1.578
		c-0.752,0.501-1.778,1.027-3.081,1.579c-0.65,0.25-1.277,0.526-1.879,0.826c-0.65,0.301-1.104,0.526-1.354,0.677
		c-0.451,0.351-1.276,1.078-2.479,2.179c-1.203,1.102-1.778,1.678-1.729,1.729c0.051,0.05,3.207-1.052,9.469-3.307
		c5.914-2.104,9.296-3.307,10.146-3.607c0.604-0.201,1.004-0.301,1.202-0.301c0.101-0.05,0.201-0.025,0.302,0.076
		c0.15,0.15,0.252,0.325,0.301,0.525c0,0.251-0.101,0.452-0.301,0.602c-0.201,0.15-5.938,2.73-17.211,7.741
		c-1.453,0.601-2.277,0.978-2.479,1.128c-0.201,0.1-0.124,0.176,0.225,0.225c0.553,0.051,1.53-0.176,2.932-0.676l2.104-0.752h3.685
		c2.504,0,3.957-0.051,4.356-0.149c0.451-0.101,1.328-0.451,2.631-1.052c0.853-0.351,1.453-0.576,1.804-0.677
		c0.352-0.1,0.853-0.15,1.504-0.15c0.951,0,1.703,0.125,2.254,0.376c0.502,0.25,0.752,0.626,0.752,1.127
		c0,0.1-0.101,0.148-0.301,0.148c-0.252,0.051-0.701,0.076-1.353,0.076l-1.653-0.076l-5.262,2.707l-3.605,0.074
		c-2.056,0.102-3.433,0.227-4.135,0.376c-0.701,0.15-2.305,0.728-4.81,1.729c-0.151,0.051-0.276,0.101-0.376,0.149
		c-0.102,0.05-0.125,0.101-0.075,0.15l2.403,0.149c1.654,0.051,3.533,0.125,5.638,0.227c6.463,0.199,10.396,0.324,11.799,0.376
		c0.963,0.065,1.638,0.142,2.029,0.226c0.2,0.049,0.325,0.101,0.376,0.149c0.15,0.201,0.225,0.353,0.225,0.451
		c0,0.101-0.074,0.251-0.225,0.45c-0.063,0.047-0.189,0.099-0.376,0.15c-0.407,0.082-1.106,0.156-2.104,0.227
		c-1.553,0.1-5.436,0.226-11.647,0.375c-5.763,0.201-8.668,0.326-8.718,0.375c-0.101,0.102,0.326,0.252,1.276,0.451
		c0.902,0.15,1.854,0.252,2.856,0.301c1.152,0.101,2.055,0.25,2.705,0.451c0.701,0.149,1.729,0.551,3.08,1.203
		c1.304,0.602,2.281,0.977,2.932,1.127c0.702,0.101,1.779,0.149,3.232,0.149c1.754,0,2.904,0.125,3.457,0.376
		c0.602,0.2,1.151,0.525,1.651,0.979c0.552,0.399,0.828,0.775,0.828,1.127c0,0.3-0.151,0.476-0.452,0.524
		c-0.249,0-0.65-0.125-1.201-0.376c-0.552-0.35-1.178-0.551-1.88-0.602c-0.7-0.049-1.879,0.024-3.53,0.227
		c-1.104,0.051-1.98,0.025-2.631-0.074c-0.701-0.15-1.705-0.502-3.007-1.054c-1.252-0.5-2.204-0.826-2.856-0.978
		c-0.752-0.199-2.027-0.325-3.832-0.375c-1.805-0.101-2.68-0.075-2.631,0.076c0.051,0.049,1.002,0.524,2.856,1.426
		c1.901,0.854,4.134,1.83,6.688,2.933c2.556,1.151,4.834,2.179,6.84,3.081c1.902,0.852,2.93,1.327,3.08,1.428
		c0.252,0.15,0.402,0.352,0.451,0.602c0,0.25-0.127,0.451-0.375,0.602c-0.201,0.102-0.951-0.074-2.256-0.525
		c-1.304-0.4-4.734-1.627-10.295-3.683l-6.841-2.405c-1.553-0.601-2.228-0.75-2.028-0.449c0.25,0.3,1.254,0.875,3.006,1.729
		c1.152,0.602,2.029,1.102,2.631,1.503c0.553,0.45,1.328,1.202,2.33,2.255c1.002,1.051,1.854,1.828,2.556,2.329
		c0.702,0.451,1.578,0.877,2.631,1.277c1.253,0.45,2.028,0.752,2.329,0.901c0.952,0.602,1.604,1.303,1.954,2.104
		c0.45,0.801,0.425,1.353-0.075,1.653c-0.148,0.1-0.273,0.125-0.376,0.074c-0.149-0.101-0.376-0.326-0.677-0.677
		c-0.45-0.551-0.977-0.978-1.578-1.276c-0.6-0.301-1.503-0.651-2.705-1.054c-0.602-0.149-1.178-0.325-1.729-0.526
		c-0.551-0.199-0.928-0.35-1.129-0.449c-0.248-0.15-0.65-0.477-1.201-0.977c-0.551-0.453-1.127-0.953-1.729-1.504
		c-1.354-1.304-2.404-2.154-3.156-2.556c-0.902-0.451-1.93-0.901-3.082-1.353c-1.201-0.502-1.779-0.703-1.729-0.603
		c0.051,0.149,0.878,1.026,2.48,2.631c2.104,2.204,4.534,4.734,7.289,7.591c2.758,2.854,4.284,4.459,4.586,4.81
		c0.35,0.401,0.551,0.7,0.601,0.901c0,0.201-0.101,0.4-0.302,0.602c-0.1,0.1-0.198,0.15-0.299,0.15s-0.227-0.024-0.375-0.074
		c-0.402-0.201-2.631-2.155-6.689-5.862c-6.514-5.912-9.821-8.844-9.921-8.793c-0.101,0.101,0.075,0.451,0.526,1.052
		c0.4,0.553,0.9,1.152,1.504,1.805c0.801,0.9,1.428,1.729,1.879,2.479c0.399,0.701,0.851,1.703,1.352,3.006
		c0.502,1.353,0.952,2.354,1.354,3.007c0.451,0.65,1.104,1.353,1.953,2.104c0.854,0.752,1.379,1.254,1.578,1.504
		c0.201,0.251,0.426,0.65,0.678,1.203c0.301,0.551,0.478,1.15,0.526,1.803c0,0.602-0.101,1.027-0.301,1.277
		c-0.501,0.502-0.877,0.252-1.128-0.752c-0.201-0.7-0.5-1.301-0.902-1.803c-0.398-0.502-1.228-1.228-2.479-2.181
		c-0.854-0.649-1.528-1.302-2.03-1.953c-0.45-0.602-0.951-1.604-1.503-3.007c-0.299-0.602-0.575-1.202-0.826-1.805
		c-0.301-0.551-0.501-0.926-0.602-1.127c-0.352-0.5-1.152-1.353-2.404-2.555c-1.252-1.252-1.854-1.779-1.805-1.578
		c0.051,0.25,1.304,3.531,3.758,9.846c2.406,6.213,3.633,9.492,3.684,9.846c0.051,0.299-0.025,0.525-0.225,0.675
		c-0.201,0.201-0.452,0.251-0.752,0.151c-0.201-0.102-0.627-0.826-1.278-2.18c-0.649-1.354-2.305-4.836-4.96-10.446
		c-2.154-4.609-3.281-6.966-3.382-7.063c-0.2-0.252-0.228,0-0.075,0.752c0.15,0.7,0.401,1.576,0.752,2.629l0.826,2.256l-0.075,3.23
		c-0.051,1.953,0,3.307,0.15,4.059c0.149,0.802,0.5,1.805,1.052,3.007c0.4,0.802,0.652,1.378,0.752,1.728
		c0.1,0.354,0.148,0.828,0.148,1.43c0,0.5-0.022,0.901-0.073,1.201c-0.05,0.301-0.149,0.553-0.302,0.752
		c-0.149,0.353-0.375,0.602-0.676,0.752s-0.526,0.15-0.677,0c-0.051-0.051-0.075-0.226-0.075-0.525
		c-0.05-0.352-0.076-0.727-0.076-1.128c0-0.851-0.049-1.453-0.148-1.804c-0.148-0.352-0.701-1.451-1.652-3.308l-0.828-1.578
		l-0.148-3.532c-0.051-1.703-0.102-2.779-0.15-3.23c-0.1-0.501-0.301-1.178-0.602-2.029c-0.45-1.102-0.826-2.054-1.127-2.855
		l-0.525-1.051l-0.076,1.576c-0.101,1.004-0.199,3.383-0.3,7.141c-0.251,6.715-0.426,10.572-0.526,11.572
		c-0.051,0.752-0.125,1.229-0.226,1.43c-0.05,0.101-0.151,0.201-0.301,0.301c-0.251,0.1-0.477,0-0.677-0.301
		c-0.149-0.201-0.275-0.853-0.376-1.954c-0.05-1.152-0.176-4.735-0.375-10.747c-0.15-3.707-0.25-6.212-0.302-7.516
		c-0.1-0.951-0.149-1.479-0.149-1.578c-0.052-0.101-0.125,0-0.226,0.301c-0.101,0.199-0.201,0.576-0.301,1.128
		c-0.101,0.551-0.175,1.127-0.225,1.729c-0.102,1.453-0.201,2.43-0.302,2.931c-0.149,0.501-0.525,1.401-1.127,2.706
		c-0.852,1.803-1.327,2.955-1.428,3.457c-0.15,0.55-0.225,1.603-0.225,3.154c0,1.303-0.026,2.155-0.077,2.557
		c-0.05,0.351-0.174,0.727-0.375,1.128c-0.35,0.7-0.676,1.177-0.977,1.428c-0.351,0.351-0.701,0.524-1.053,0.524
		c-0.4,0-0.602-0.1-0.602-0.301c0-0.199,0.177-0.65,0.527-1.352l0.6-1.128l-0.149-1.953c-0.149-2.005-0.176-3.382-0.074-4.134
		c0.05-0.751,0.351-1.754,0.9-3.006c0.603-1.354,1.003-2.33,1.202-2.932c0.151-0.402,0.251-1.629,0.302-3.684
		c0.101-2.055,0.074-3.006-0.075-2.855c-0.149,0.101-1.453,2.855-3.907,8.268c-2.305,4.91-3.758,7.967-4.359,9.169
		c-0.603,1.151-1.001,1.776-1.202,1.879c-0.251,0.101-0.428,0.125-0.527,0.075c-0.1-0.051-0.199-0.178-0.3-0.376
		c-0.1-0.25,0.101-1.027,0.601-2.33c0.451-1.353,1.729-4.761,3.833-10.222c2.104-5.41,3.132-8.142,3.082-8.19
		c-0.1-0.101-0.376,0.2-0.828,0.901c-0.5,0.65-1.001,1.453-1.503,2.404c-0.399,0.801-0.751,1.428-1.051,1.879
		c-0.301,0.451-0.651,0.853-1.053,1.202c-2.003,1.804-3.282,3.081-3.832,3.833c-0.602,0.801-1.104,1.805-1.503,3.006
		c-0.251,0.803-0.627,1.528-1.128,2.18c-0.502,0.65-1.027,1.104-1.579,1.353c-0.951,0.452-1.603,0.527-1.954,0.228
		c-0.351-0.301-0.1-0.728,0.752-1.277c0.45-0.352,0.853-0.852,1.202-1.503c0.353-0.603,0.677-1.403,0.978-2.405
		c0.301-1.201,0.677-2.13,1.127-2.779c0.401-0.703,1.152-1.58,2.255-2.631c0.552-0.552,1.077-1.104,1.578-1.654
		c0.551-0.551,0.876-0.951,0.978-1.202c0.301-0.45,0.776-1.378,1.428-2.779c0.652-1.403,0.977-2.205,0.977-2.405
		c0-0.05-0.525,0.377-1.578,1.277c-1.053,0.9-1.779,1.578-2.18,2.027l-4.133,3.685c-4.458,4.06-7.039,6.362-7.74,6.913
		c-0.502,0.402-0.828,0.602-0.978,0.602c-0.1,0-0.25-0.125-0.451-0.375c-0.15-0.149-0.226-0.25-0.226-0.302
		c0.051-0.2,0.301-0.55,0.751-1.052c0.551-0.65,3.182-3.432,7.892-8.342c4.359-4.561,6.539-6.864,6.539-6.914
		c0-0.15-0.376,0-1.127,0.451c-0.752,0.5-1.403,1.002-1.955,1.502c-0.901,0.752-1.628,1.304-2.179,1.654
		c-0.602,0.351-1.529,0.752-2.781,1.201c-1.604,0.551-2.755,1.027-3.457,1.43c-0.651,0.399-1.479,1.102-2.48,2.104
		c-0.702,0.702-1.228,1.202-1.578,1.503c-0.4,0.251-0.802,0.451-1.202,0.603c-0.701,0.301-1.327,0.451-1.879,0.451
		c-0.552,0-0.928-0.125-1.127-0.377c-0.2-0.25-0.276-0.476-0.227-0.677c0.05-0.2,0.201-0.301,0.452-0.301
		c0.702,0,1.403-0.25,2.104-0.751c0.702-0.553,1.555-1.428,2.556-2.631c0.701-0.853,1.327-1.479,1.879-1.879
		c0.602-0.4,1.652-0.901,3.156-1.504c0.651-0.25,1.303-0.551,1.955-0.9c0.701-0.301,1.177-0.526,1.427-0.678
		c0.452-0.351,1.278-1.076,2.48-2.18c1.152-1.102,1.702-1.679,1.652-1.729c-0.05-0.051-3.23,1.078-9.544,3.382
		c-5.661,2.056-8.943,3.231-9.845,3.533c-0.651,0.2-1.077,0.301-1.278,0.301c-0.149,0-0.276-0.026-0.376-0.076
		c-0.199-0.149-0.299-0.325-0.299-0.526c0-0.25,0.074-0.449,0.225-0.601c0.15-0.101,2.306-1.077,6.463-2.931
		c7.365-3.258,11.474-5.085,12.325-5.486c0.701-0.352,1.053-0.552,1.053-0.602l-0.451-0.075c-0.5-0.05-1.428,0.176-2.781,0.677
		l-1.954,0.678l-3.758,0.073c-1.002,0-1.953,0-2.854,0c-0.852,0.052-1.378,0.101-1.579,0.15c-0.2,0.05-0.551,0.176-1.052,0.376
		c-0.552,0.199-1.077,0.426-1.579,0.677c-0.852,0.351-1.453,0.576-1.803,0.676c-0.352,0.101-0.877,0.15-1.579,0.15
		c-1.703,0-2.654-0.351-2.854-1.052c-0.102-0.301-0.075-0.526,0.074-0.678c0.2-0.101,0.525-0.101,0.978,0
		c0.652,0.15,1.277,0.127,1.879-0.074c0.652-0.2,1.653-0.627,3.006-1.277l2.555-1.277l3.607-0.074
		c1.604-0.052,2.681-0.125,3.232-0.227c0.601-0.05,1.202-0.176,1.803-0.376c0.852-0.3,1.754-0.626,2.707-0.978
		c0.951-0.352,1.477-0.576,1.577-0.676c0.15-0.201-2.605-0.375-8.267-0.525c-3.809-0.102-7.04-0.201-9.695-0.303
		c-2.605-0.149-3.983-0.273-4.133-0.375c-0.25-0.101-0.376-0.25-0.376-0.451c0-0.199,0.149-0.375,0.45-0.525
		c0.151-0.102,0.677-0.2,1.578-0.301c0.953-0.051,2.53-0.1,4.735-0.149c6.262-0.251,10.571-0.427,12.926-0.526
		c2.255-0.101,3.382-0.176,3.382-0.226c0.151-0.101-0.249-0.226-1.202-0.375c-0.952-0.149-1.854-0.251-2.705-0.302
		c-1.202-0.1-2.155-0.25-2.856-0.45c-0.752-0.149-1.703-0.526-2.855-1.127c-1.402-0.651-2.455-1.053-3.157-1.203
		c-0.701-0.149-1.802-0.226-3.306-0.226c-1.052,0-1.828-0.024-2.33-0.074c-0.451-0.051-0.877-0.15-1.277-0.302
		c-0.602-0.2-1.127-0.501-1.578-0.901c-0.45-0.4-0.677-0.777-0.677-1.127c0-0.3,0.126-0.476,0.376-0.526
		c0.199-0.05,0.502,0.026,0.901,0.226c0.751,0.401,1.403,0.651,1.955,0.751c0.501,0.05,1.453,0.025,2.854-0.076
		c1.555-0.2,2.683-0.225,3.383-0.075c0.701,0.1,1.828,0.476,3.382,1.128c1.252,0.5,2.254,0.825,3.006,0.977
		c0.701,0.101,1.93,0.199,3.683,0.301c1.001,0.05,1.703,0.075,2.104,0.075c0.399,0,0.551-0.05,0.451-0.15
		c-0.102-0.1-2.13-1.026-6.087-2.781c-4.009-1.803-7.767-3.482-11.273-5.035c-1.053-0.452-1.754-0.777-2.104-0.978
		c-0.351-0.25-0.525-0.476-0.525-0.676c0-0.301,0.1-0.476,0.299-0.526c0.201-0.05,0.702,0.025,1.503,0.225
		c1.204,0.351,4.886,1.653,11.049,3.908l9.019,3.231l-0.451-0.526c-0.1-0.15-0.425-0.375-0.978-0.676
		c-0.502-0.301-1.027-0.576-1.577-0.827c-1.303-0.651-2.23-1.202-2.782-1.653c-0.601-0.451-1.403-1.203-2.404-2.255
		c-0.901-1.002-1.729-1.754-2.48-2.254c-0.701-0.501-1.578-0.927-2.63-1.278c-1.002-0.351-1.653-0.601-1.954-0.751
		c-0.953-0.501-1.704-1.203-2.255-2.104c-0.5-0.902-0.476-1.503,0.075-1.804c0.1-0.101,0.226-0.101,0.376,0
		c0.151,0.05,0.375,0.275,0.677,0.677c0.5,0.551,1.002,0.952,1.503,1.202c0.5,0.301,1.403,0.626,2.705,0.977
		c1.304,0.4,2.281,0.801,2.932,1.203c0.651,0.401,1.604,1.177,2.855,2.33c1.353,1.303,2.43,2.154,3.231,2.556
		c0.751,0.4,1.729,0.851,2.931,1.353c1.252,0.5,1.879,0.702,1.879,0.601c0-0.05-1.276-1.377-3.832-3.983
		c-2.504-2.605-5.111-5.311-7.816-8.117c-1.152-1.203-2.004-2.13-2.556-2.781c-0.551-0.601-0.826-1.002-0.826-1.203
		c0-0.05,0.051-0.125,0.151-0.226c0.05-0.1,0.1-0.175,0.149-0.225c0.199-0.15,0.351-0.201,0.45-0.15
		c0.201,0.05,0.627,0.351,1.279,0.902c0.851,0.702,4.283,3.783,10.295,9.244c3.057,2.706,4.735,4.183,5.035,4.435
		c0.401,0.3,0.375,0.1-0.075-0.602s-1.053-1.453-1.804-2.254c-0.802-0.902-1.403-1.678-1.803-2.33
		c-0.353-0.651-0.802-1.704-1.354-3.157c-0.45-1.252-0.928-2.254-1.428-3.006c-0.501-0.701-1.178-1.428-2.029-2.179
		c-0.55-0.401-0.978-0.776-1.278-1.127c-0.249-0.351-0.5-0.727-0.751-1.127C128.393,127.808,128.218,126.981,128.318,126.23z
		 M158.305,154.713c-0.301-0.201-0.551-0.326-0.752-0.376s-0.226,0.05-0.074,0.302c0.101,0.049,0.149,0.176,0.149,0.375
		c0.05,0.15,0.05,0.301,0,0.45v0.526c0.05,0.05,0.249-0.025,0.603-0.227c0.398-0.199,0.601-0.351,0.601-0.451
		C158.83,155.164,158.654,154.964,158.305,154.713z M148.384,165.311c-0.25-0.052-0.376-0.102-0.376-0.15
		c0-0.102,0.851-0.15,2.557-0.15c1.653,0,2.604,0.051,2.855,0.15c0.301,0.1-0.175,0.199-1.429,0.3c-1.202,0.051-2.128,0.051-2.78,0
		C148.858,165.409,148.584,165.359,148.384,165.311z M146.73,161.025c0-0.352,0.1-0.627,0.301-0.827
		c0.201-0.25,0.376-0.375,0.525-0.375c0.052,0,0.052,0.05,0,0.149c-0.05,0.102-0.124,0.2-0.225,0.301
		c-0.151,0.101-0.226,0.201-0.226,0.301c0,0.101,0.024,0.227,0.074,0.376c0.151,0.2,0.376,0.325,0.677,0.376
		c0.25,0.051,0.476-0.025,0.677-0.227c0.15-0.149,0.274-0.199,0.376-0.149c0.05,0,0.175,0.101,0.376,0.301
		c0.351,0.351,0.776,0.526,1.277,0.526c0.5,0,0.926-0.176,1.277-0.526c0.199-0.2,0.325-0.326,0.376-0.376
		c0.101,0,0.199,0.075,0.3,0.227c0.15,0.199,0.401,0.275,0.752,0.226c0.352-0.05,0.575-0.177,0.676-0.376
		c0.102-0.149,0.125-0.275,0.074-0.376c0-0.101-0.074-0.2-0.225-0.3c-0.201-0.252-0.251-0.401-0.15-0.451
		c0.101,0,0.252,0.125,0.451,0.375c0.25,0.199,0.377,0.477,0.377,0.826c-0.051,0.353-0.201,0.603-0.453,0.752
		c-0.299,0.201-1.477,0.301-3.531,0.301c-2.104,0-3.256-0.1-3.457-0.301C146.83,161.627,146.73,161.377,146.73,161.025z
		 M146.28,165.385l0.751-0.677c0.551-0.501,0.977-0.826,1.277-0.978c0.4-0.201,0.826-0.25,1.278-0.15
		c0.399,0.051,0.802,0.076,1.202,0.076c0.853-0.102,1.429-0.102,1.728,0c0.301,0.05,0.729,0.3,1.278,0.751
		c0.251,0.251,0.476,0.476,0.677,0.677c0.2,0.15,0.301,0.251,0.301,0.301c-0.051,0.051-0.25,0.125-0.602,0.225
		c-0.15,0.051-0.352,0.15-0.602,0.303c-0.252,0.15-0.477,0.3-0.678,0.449c-0.148,0.201-0.35,0.377-0.601,0.527
		c-0.251,0.149-0.427,0.25-0.526,0.301c-0.25,0.05-0.375,0.1-0.375,0.148c0.049,0.051,0.25,0.2,0.602,0.451
		c0.502,0.352,0.752,0.602,0.752,0.752c0.05,0.15-0.178,0.075-0.678-0.227c-0.551-0.4-1.151-0.575-1.805-0.525
		c-0.651,0.102-1.202,0.4-1.652,0.902l-0.45,0.524l0.301-0.601c0.1-0.15,0.225-0.326,0.375-0.526c0.2-0.2,0.376-0.351,0.526-0.45
		l0.602-0.375l-0.602-0.076c-0.15-0.051-0.326-0.149-0.526-0.301c-0.251-0.15-0.451-0.326-0.602-0.525
		c-0.45-0.45-0.727-0.676-0.826-0.676c-0.102,0-0.301-0.052-0.602-0.15L146.28,165.385z M146.581,165.385l0.6-0.15
		c0.151-0.051,0.276-0.074,0.376-0.074c0.052,0,0.075,0.023,0.075,0.074c-0.05,0.051,0.026,0.15,0.226,0.302
		c0.15,0.149,0.376,0.325,0.677,0.526c0.802,0.5,1.503,0.75,2.104,0.75c0.553,0,1.229-0.25,2.03-0.75
		c0.302-0.201,0.601-0.377,0.901-0.526c0.3-0.15,0.5-0.226,0.602-0.226h0.225c0-0.052-0.074-0.177-0.225-0.377
		c-0.102-0.101-0.251-0.226-0.449-0.375c-0.252-0.15-0.477-0.275-0.678-0.375c-0.4-0.201-0.702-0.302-0.902-0.302
		c-0.149,0-0.427,0.05-0.826,0.15c-0.301,0.1-0.551,0.149-0.752,0.149c-0.201,0-0.425-0.051-0.676-0.149
		c-0.399-0.15-0.626-0.226-0.676-0.226c-0.301,0.049-0.651,0.174-1.052,0.375c-0.302,0.149-0.603,0.351-0.903,0.602L146.581,165.385
		z M143.122,156.216c-0.701-0.2-1.177-0.401-1.426-0.602l-0.376-0.302l0.376-0.299c0.249-0.201,0.625-0.427,1.127-0.678
		c0.651-0.352,1.403-0.451,2.255-0.301c0.9,0.101,1.603,0.4,2.103,0.9c0.302,0.301,0.451,0.502,0.451,0.604
		c-0.05,0.1-0.276,0.25-0.675,0.45c-0.452,0.2-0.752,0.274-0.903,0.226c-0.1,0,0.025-0.125,0.376-0.376
		c0.351-0.2,0.527-0.376,0.527-0.526c-0.051-0.199-0.251-0.426-0.603-0.676c-0.351-0.199-0.575-0.301-0.677-0.301
		c-0.05,0.05-0.024,0.2,0.075,0.451c0.201,0.4,0.201,0.752,0,1.052c-0.25,0.351-0.575,0.526-0.977,0.526
		C144.376,156.416,143.824,156.366,143.122,156.216z M142.371,155.313c0,0.102,0.176,0.252,0.527,0.451
		c0.351,0.2,0.55,0.275,0.6,0.227c0.05,0,0.05-0.176,0-0.526c-0.05-0.149-0.05-0.3,0-0.45c0.05-0.199,0.101-0.326,0.151-0.375
		c0.201-0.252,0.201-0.352,0-0.302c-0.251,0.05-0.527,0.175-0.826,0.376C142.522,154.964,142.371,155.164,142.371,155.313z
		 M151.165,155.464c0-1.303,0.251-2.255,0.751-2.854c0.451-0.603,1.303-1.077,2.557-1.43c0.651-0.199,1.402-0.25,2.254-0.148
		c0.803,0.1,1.504,0.275,2.104,0.525c0.45,0.25,0.978,0.627,1.578,1.127c0.603,0.502,0.877,0.777,0.827,0.827
		c-0.051,0.05-0.452-0.149-1.203-0.602c-2.354-1.403-4.533-1.604-6.538-0.603c-0.802,0.401-1.327,0.853-1.578,1.354
		c-0.251,0.45-0.375,1.252-0.375,2.403c0,0.752,0.024,1.254,0.074,1.504c0.1,0.301,0.276,0.701,0.524,1.203
		c0.301,0.449,0.452,0.801,0.452,1.052s-0.126,0.274-0.375,0.075c-0.252-0.102-0.503-0.651-0.752-1.653
		C151.266,157.191,151.165,156.266,151.165,155.464z M154.246,155.54c0.148,0.101,0.324,0.2,0.525,0.3
		c0.451,0.301,0.677,0.477,0.677,0.526c0,0.049-0.302-0.025-0.901-0.226c-0.551-0.252-0.854-0.427-0.902-0.526
		c-0.101-0.101-0.023-0.302,0.227-0.601c0.301-0.252,0.65-0.478,1.053-0.678c0.6-0.301,1.227-0.426,1.879-0.376
		c0.649,0.05,1.276,0.226,1.879,0.526c0.252,0.149,0.477,0.301,0.676,0.449c0.25,0.15,0.377,0.252,0.377,0.301
		c0.05,0.201-0.252,0.427-0.902,0.678c-0.7,0.251-1.354,0.4-1.954,0.451l-1.202,0.074l-0.226-0.676
		c-0.101-0.252-0.15-0.451-0.15-0.602s0.025-0.301,0.075-0.451c0.05-0.102,0.1-0.176,0.148-0.227c0-0.101-0.022-0.149-0.073-0.149
		c-0.101,0-0.351,0.125-0.752,0.376c-0.4,0.301-0.601,0.501-0.601,0.602C154.096,155.364,154.146,155.439,154.246,155.54z
		 M153.795,156.592c-0.449-0.251-0.727-0.476-0.826-0.677c0-0.101,0.1-0.101,0.301,0c0.25,0.05,0.525,0.149,0.826,0.301
		c1.453,0.701,2.98,0.776,4.586,0.226c0.75-0.25,1.127-0.351,1.127-0.301c0,0.101-0.352,0.301-1.054,0.603
		c-0.651,0.301-1.276,0.476-1.879,0.524c-0.651,0.102-1.228,0.075-1.729-0.074C154.695,157.093,154.246,156.893,153.795,156.592z
		 M152.668,155.313c-0.251,0-0.352-0.074-0.301-0.226c0.05-0.151,0.199-0.274,0.449-0.375c0.302-0.101,0.826-0.376,1.578-0.827
		c0.453-0.301,0.803-0.476,1.054-0.525c0.301-0.101,0.677-0.15,1.127-0.15c0.301,0,0.627,0.025,0.978,0.076
		c0.401,0.05,0.7,0.125,0.901,0.227c0.501,0.149,1.026,0.449,1.578,0.9c0.552,0.4,0.776,0.676,0.677,0.826
		c-0.05,0-0.15-0.051-0.301-0.15c-0.2-0.1-0.376-0.225-0.525-0.375c-0.503-0.4-1.002-0.701-1.504-0.902
		c-0.449-0.148-1.027-0.226-1.729-0.226c-0.652,0-1.103,0.05-1.354,0.149c-0.199,0.051-0.602,0.275-1.201,0.678
		c-0.302,0.251-0.603,0.477-0.902,0.676C152.893,155.238,152.718,155.313,152.668,155.313z M148.159,155.766
		c0.1,0.101,0.024,0.25-0.227,0.45c-0.251,0.251-0.577,0.451-0.976,0.601c-0.652,0.401-1.53,0.553-2.631,0.451
		c-1.104-0.1-1.955-0.375-2.556-0.826c-0.251-0.2-0.326-0.301-0.226-0.301c0.051,0,0.325,0.101,0.826,0.301
		c1.704,0.552,3.232,0.502,4.586-0.149C147.708,155.891,148.107,155.715,148.159,155.766z M148.685,154.938
		c0.051,0.102,0.024,0.177-0.075,0.228c-0.1,0.05-0.25,0.05-0.45,0c-0.201-0.101-0.501-0.301-0.903-0.603
		c-0.651-0.451-1.227-0.752-1.728-0.9c-0.45-0.15-1.027-0.176-1.729-0.076c-0.6,0.102-1.075,0.227-1.428,0.376
		c-0.35,0.149-0.726,0.427-1.127,0.827c-0.15,0.148-0.3,0.275-0.451,0.376c-0.149,0.101-0.251,0.125-0.301,0.074
		c-0.1-0.101,0.1-0.375,0.602-0.826c0.552-0.451,1.053-0.751,1.503-0.901c0.2-0.05,0.502-0.126,0.901-0.226
		c0.353-0.052,0.702-0.076,1.053-0.076c0.501,0,0.876,0.051,1.127,0.151c0.251,0.05,0.627,0.25,1.128,0.601
		c0.751,0.451,1.278,0.728,1.578,0.827C148.534,154.838,148.635,154.889,148.685,154.938z M149.361,152.607
		c0.249,0.352,0.425,0.928,0.525,1.729c0.15,0.651,0.201,1.327,0.15,2.029c-0.101,0.649-0.275,1.401-0.526,2.255
		c-0.2,0.65-0.376,1.052-0.525,1.202c-0.1,0.2-0.25,0.226-0.451,0.075c-0.15-0.15-0.074-0.377,0.225-0.678
		c0.502-0.701,0.802-1.603,0.903-2.705c0.1-1.151-0.052-2.104-0.451-2.854c-0.151-0.302-0.325-0.552-0.526-0.752
		c-0.201-0.15-0.551-0.351-1.053-0.603c-1.954-1.052-4.134-0.852-6.538,0.603c-0.701,0.45-1.103,0.676-1.202,0.676
		c-0.051,0,0.1-0.2,0.451-0.601c0.351-0.352,0.801-0.702,1.354-1.053c0.55-0.301,1.101-0.552,1.652-0.752
		c0.602-0.201,1.327-0.25,2.18-0.149c0.852,0.05,1.628,0.25,2.329,0.602C148.609,151.982,149.111,152.309,149.361,152.607z
		 M136.06,151.331c-0.452,1.052-0.778,2.054-0.978,3.006s-0.301,2.054-0.301,3.308c0,2.555,0.602,4.959,1.804,7.215
		c1.253,2.203,3.006,4.033,5.261,5.486c1.354,0.9,2.73,1.553,4.133,1.953c1.354,0.4,2.856,0.602,4.51,0.602
		c2.055,0,3.957-0.325,5.711-0.978c1.805-0.651,3.507-1.653,5.11-3.006c0.953-0.802,1.828-1.854,2.631-3.157
		c0.852-1.303,1.504-2.605,1.953-3.906c0.25-0.953,0.4-2.181,0.451-3.684c0.102-1.503,0.024-2.756-0.225-3.758
		c-0.604-2.706-1.905-5.136-3.909-7.29c-2.004-2.104-4.407-3.557-7.215-4.358c-0.901-0.251-2.181-0.401-3.832-0.452
		c-1.654-0.1-2.956-0.05-3.909,0.151c-2.454,0.551-4.659,1.604-6.612,3.156C138.64,147.172,137.11,149.076,136.06,151.331z"/>
	<path fill="#FBBE4B" d="M129.37,126.379c0.05,0.201,0.125,0.452,0.225,0.751c0.1,0.251,0.201,0.427,0.301,0.526
		c0.451,0.702,1.379,1.604,2.782,2.706c0.901,0.651,1.577,1.303,2.028,1.954c0.45,0.702,1.001,1.804,1.652,3.307
		c0.603,1.252,1.053,2.104,1.354,2.555c0.301,0.451,1.178,1.453,2.631,3.006c0.651,0.651,1.202,1.228,1.652,1.728
		c0.452,0.501,0.677,0.802,0.677,0.902c0,0.05-0.024,0.125-0.075,0.225c-0.05,0.051-0.126,0.101-0.226,0.15s-0.199,0.05-0.3,0
		c-0.15-0.1-0.275-0.25-0.375-0.451c-0.252-0.351-1.104-1.252-2.556-2.706c-0.752-0.802-1.354-1.453-1.805-1.954
		c-0.351-0.501-0.651-0.977-0.9-1.428c-0.201-0.35-0.326-0.601-0.376-0.751c-0.1-0.1-0.127-0.075-0.076,0.076
		c0.251,1.202,1.104,2.581,2.555,4.133c0.752,0.802,1.379,1.603,1.879,2.405c0.551,0.851,0.776,1.353,0.677,1.503
		c-0.149,0.25-0.301,0.3-0.45,0.15c-0.201-0.2-0.451-0.551-0.752-1.052c-0.151-0.301-0.427-0.702-0.826-1.203
		c-0.353-0.5-0.701-0.927-1.053-1.277c-0.803-0.902-1.403-1.678-1.804-2.33c-0.4-0.702-0.878-1.729-1.428-3.081
		c-0.501-1.403-1.026-2.48-1.578-3.231c-0.502-0.802-1.228-1.628-2.18-2.48c-0.953-0.852-1.578-1.603-1.879-2.255
		c-0.251-0.5-0.401-1.002-0.451-1.503c-0.05-0.5,0.025-0.852,0.227-1.052c0.1-0.101,0.175-0.101,0.225,0
		S129.27,126.029,129.37,126.379z M136.886,124.426c2.556,5.311,4.609,9.645,6.162,13.001c1.555,3.407,2.306,5.161,2.255,5.261
		c-0.051,0.05-0.101,0.101-0.15,0.15c-0.051,0.05-0.101,0.075-0.151,0.075c-0.05,0-0.225-0.275-0.525-0.826
		c-0.301-0.601-0.651-1.303-1.052-2.104c-1.704-3.708-2.579-5.486-2.631-5.336c0,0.101,0.527,1.503,1.578,4.209
		c0.402,1.152,0.728,2.154,0.978,3.006c0.301,0.851,0.45,1.328,0.45,1.427c-0.1,0.15-0.2,0.226-0.301,0.226
		c-0.1,0-0.199-0.076-0.299-0.226c-0.251-0.651-1.329-3.482-3.232-8.492c-1.954-5.01-3.156-8.142-3.608-9.394
		c-0.55-1.503-0.876-2.455-0.976-2.856c-0.102-0.4,0-0.626,0.301-0.677C135.733,121.87,136.134,122.723,136.886,124.426z
		 M126.965,140.809c0.502,0.452,1.027,0.952,1.579,1.503c1.15,1.103,2.078,1.854,2.78,2.255c0.651,0.451,1.903,1.052,3.758,1.804
		c0.701,0.3,1.354,0.601,1.953,0.902c0.551,0.25,0.827,0.4,0.827,0.451c0.05,0.05,0.076,0.125,0.076,0.225
		c-0.05,0.101-0.101,0.175-0.151,0.225c-0.1,0.151-0.251,0.201-0.451,0.151c-0.149-0.05-0.476-0.226-0.978-0.526
		c-0.801-0.451-1.678-0.852-2.63-1.202c-1.101-0.451-1.979-0.852-2.631-1.202c-0.6-0.351-1.15-0.727-1.652-1.127
		c-0.25-0.251-0.426-0.426-0.525-0.526c-0.1-0.05-0.126-0.025-0.076,0.075c0.15,0.351,0.552,0.801,1.203,1.353
		c0.652,0.501,1.252,0.877,1.803,1.127c1.453,0.651,2.431,1.127,2.932,1.428c0.45,0.25,0.876,0.551,1.278,0.902
		c0.349,0.3,0.575,0.5,0.675,0.601c0.05,0.15,0.05,0.301,0,0.451c-0.1,0.15-0.225,0.2-0.376,0.15c-0.1-0.05-0.398-0.275-0.901-0.676
		c-0.249-0.251-0.701-0.551-1.353-0.902s-1.252-0.677-1.803-0.977c-1.053-0.501-1.804-0.927-2.255-1.278
		c-0.452-0.351-1.253-1.103-2.405-2.255c-1.303-1.252-2.255-2.104-2.855-2.555c-0.602-0.401-1.479-0.802-2.63-1.202
		c-0.852-0.301-1.554-0.601-2.105-0.902c-0.602-0.351-1.052-0.751-1.354-1.202c-0.55-0.702-0.826-1.252-0.826-1.653
		c0.052-0.351,0.351-0.2,0.903,0.451c0.149,0.2,0.375,0.426,0.675,0.677c0.301,0.25,0.552,0.425,0.752,0.526
		c0.251,0.15,0.651,0.325,1.203,0.526c0.551,0.2,1.101,0.375,1.653,0.526c0.602,0.201,1.177,0.401,1.729,0.601
		c0.551,0.201,0.901,0.351,1.051,0.452C126.038,140.083,126.414,140.358,126.965,140.809z M133.128,140.734
		c0.501,0.551,1.603,1.729,3.308,3.532c1.001,1.052,1.652,1.778,1.953,2.179c0.301,0.351,0.376,0.551,0.225,0.601
		c-0.149,0.101-0.775-0.401-1.879-1.503c-1.101-1.102-3.832-3.882-8.19-8.341c-2.906-3.006-4.66-4.86-5.261-5.562
		c-0.602-0.651-0.852-1.052-0.752-1.202c0.101-0.15,0.426,0,0.977,0.451c0.551,0.452,1.903,1.628,4.059,3.532l7.741,7.065
		c2.404,2.154,3.758,3.382,4.058,3.682c0.251,0.251,0.401,0.426,0.452,0.526c0,0.05,0,0.125,0,0.225
		c-0.051,0.15-0.101,0.226-0.151,0.226s-0.175-0.076-0.376-0.226c-0.251-0.2-1.252-1.077-3.006-2.63
		c-2.054-1.803-3.207-2.806-3.457-3.006C132.577,140.033,132.678,140.183,133.128,140.734z M113.889,142.989
		c0-0.15,0.051-0.225,0.15-0.225c0.1-0.051,0.351,0,0.751,0.149c0.652,0.151,2.681,0.852,6.088,2.105
		c9.921,3.558,14.955,5.411,15.105,5.561c0.1,0.101,0.1,0.226,0,0.376c-0.15,0.102-1.729-0.376-4.734-1.428
		c-3.006-1.103-4.534-1.628-4.584-1.579l3.531,1.653c2.405,1.103,3.935,1.779,4.585,2.03c0.2,0.1,0.375,0.176,0.526,0.225
		c0.149,0.102,0.225,0.177,0.225,0.227c0,0.15-0.1,0.251-0.301,0.301c-0.199,0-0.601-0.125-1.202-0.376
		c-1.053-0.351-3.959-1.578-8.718-3.682c-5.36-2.405-8.593-3.858-9.694-4.359C114.465,143.415,113.889,143.089,113.889,142.989z
		 M124.334,151.706c1.154,0.452,1.979,0.728,2.48,0.827s1.277,0.199,2.33,0.301c1.654,0.102,2.906,0.15,3.758,0.15
		c0.853,0,1.403,0.05,1.654,0.149c0.249,0.101,0.375,0.275,0.375,0.526c0,0.148-0.05,0.225-0.15,0.225
		c-0.051,0.051-0.274,0.051-0.677,0c-0.501-0.101-1.879-0.199-4.134-0.301c-1.352-0.05-2.305-0.1-2.854-0.15
		c-0.551-0.1-1.028-0.226-1.429-0.375c-0.502-0.201-0.776-0.301-0.826-0.301c-0.102,0-0.052,0.075,0.149,0.227
		c0.451,0.351,1.053,0.601,1.804,0.75c0.752,0.201,1.779,0.353,3.081,0.451c1.453,0.051,2.581,0.2,3.382,0.451
		c0.854,0.2,1.279,0.426,1.279,0.676c0,0.201-0.101,0.326-0.302,0.377c-0.15,0-0.5-0.101-1.052-0.301
		c-0.2-0.101-0.602-0.201-1.202-0.302c-0.602-0.101-1.202-0.175-1.805-0.226c-1.553-0.101-2.68-0.25-3.382-0.45
		c-0.651-0.15-1.652-0.526-3.006-1.127c-1.453-0.651-2.63-1.077-3.531-1.278c-0.903-0.199-1.979-0.275-3.232-0.225
		c-0.802,0.05-1.403,0.074-1.804,0.074c-0.351-0.051-0.727-0.125-1.128-0.226c-0.55-0.2-1.075-0.502-1.577-0.901
		c-0.502-0.352-0.752-0.651-0.752-0.902c0-0.15,0.05-0.226,0.149-0.226c0.101,0.05,0.376,0.201,0.828,0.451
		c0.601,0.351,1.228,0.551,1.879,0.602c0.601,0.051,1.578,0.025,2.93-0.075c1.403-0.15,2.456-0.175,3.157-0.075
		C121.428,150.604,122.632,151.005,124.334,151.706z M111.559,157.343c0.502-0.1,1.729-0.175,3.683-0.226l10.221-0.375
		c4.608-0.201,7.239-0.303,7.891-0.303c0.502,0,0.802,0.026,0.902,0.076c0.051,0.051,0.075,0.125,0.075,0.227
		c0,0.199-0.226,0.324-0.677,0.375c-0.45,0.051-1.804,0.101-4.059,0.15c-2.705,0.101-3.982,0.2-3.832,0.301
		c0.151,0.101,1.754,0.199,4.81,0.301c1.753,0.05,2.83,0.101,3.232,0.15c0.35,0.049,0.525,0.149,0.525,0.299c0,0.15,0,0.252,0,0.303
		c-0.1,0.05-0.4,0.074-0.901,0.074c-0.651,0-3.558-0.101-8.719-0.301c-5.66-0.149-9.368-0.275-11.122-0.375
		c-1.704-0.102-2.605-0.201-2.705-0.302C110.783,157.52,111.008,157.393,111.559,157.343z M112.762,164.708
		c0.651,0.051,1.252,0,1.803-0.149c0.552-0.15,1.579-0.603,3.082-1.354l2.33-1.202l3.683-0.075c1.702-0.051,2.805-0.126,3.306-0.227
		c0.502-0.051,1.127-0.2,1.879-0.45c2.405-0.901,3.908-1.428,4.509-1.578c0.602-0.251,0.953-0.351,1.053-0.301
		c0.051,0.05,0.102,0.101,0.151,0.149c0,0.101,0,0.201,0,0.302s-0.101,0.2-0.302,0.301c-0.15,0.101-0.477,0.226-0.978,0.375
		c-0.351,0.051-0.826,0.201-1.428,0.451c-0.651,0.2-1.228,0.401-1.728,0.602c-0.803,0.351-1.555,0.603-2.255,0.753
		c-0.701,0.199-1.555,0.35-2.556,0.449c-0.149,0-0.126,0.025,0.075,0.075c0.201,0,0.527,0,0.978,0c0.65,0,1.202-0.024,1.652-0.075
		c0.401-0.102,1.078-0.301,2.03-0.602c1.403-0.551,2.581-0.853,3.532-0.901c0.651-0.05,1.052-0.075,1.202-0.075
		c0.101,0.051,0.15,0.15,0.15,0.301c0,0.2-0.076,0.325-0.226,0.377c-0.149,0.049-0.525,0.1-1.127,0.149
		c-0.401,0.05-0.928,0.149-1.578,0.302c-0.652,0.148-1.252,0.324-1.805,0.524l-2.028,0.677l-3.758,0.074c-1.052,0-2.005,0-2.856,0
		c-0.9,0.051-1.428,0.102-1.577,0.15c-0.201,0-0.551,0.125-1.053,0.375c-0.502,0.15-1.027,0.352-1.578,0.603
		c-0.803,0.401-1.378,0.651-1.729,0.751c-0.401,0.102-0.877,0.15-1.429,0.15c-0.901,0-1.553-0.101-1.954-0.301
		c-0.5-0.301-0.7-0.5-0.6-0.602C111.734,164.607,112.11,164.607,112.762,164.708z M136.06,151.331
		c1.051-2.255,2.58-4.159,4.584-5.712c1.953-1.553,4.158-2.605,6.612-3.156c0.953-0.201,2.255-0.25,3.909-0.151
		c1.651,0.05,2.931,0.201,3.832,0.452c2.808,0.801,5.211,2.254,7.215,4.358c2.004,2.154,3.308,4.584,3.909,7.29
		c0.249,1.002,0.324,2.255,0.225,3.758c-0.051,1.503-0.201,2.73-0.451,3.684c-0.449,1.301-1.103,2.604-1.953,3.906
		c-0.803,1.303-1.678,2.355-2.631,3.157c-1.604,1.353-3.307,2.354-5.11,3.006c-1.755,0.651-3.656,0.978-5.711,0.978
		c-1.653,0-3.156-0.2-4.51-0.602c-1.402-0.4-2.779-1.053-4.133-1.954c-2.255-1.452-4.008-3.282-5.261-5.485
		c-1.202-2.256-1.804-4.66-1.804-7.215c0-1.254,0.101-2.354,0.301-3.308C135.281,153.385,135.607,152.383,136.06,151.331z
		 M128.619,166.211l-1.202,0.602c0.05,0.051,1.453-0.4,4.208-1.354c2.755-0.951,4.208-1.377,4.358-1.275
		c0.1,0.148,0.05,0.299-0.15,0.449c-0.199,0.15-0.751,0.376-1.652,0.678c-0.953,0.35-3.683,1.353-8.192,3.006
		c-5.312,1.953-8.667,3.131-10.07,3.531c-1.354,0.451-2.029,0.551-2.029,0.301c0-0.101,0.451-0.351,1.353-0.752
		c0.853-0.399,3.232-1.478,7.14-3.23l8.943-3.982c1.603-0.701,2.68-1.127,3.232-1.277c0.5-0.15,0.801-0.125,0.9,0.074
		c0,0.051-0.4,0.275-1.202,0.678c-0.803,0.4-1.754,0.826-2.855,1.277C130.297,165.436,129.37,165.859,128.619,166.211z
		 M136.734,165.686c0,0.051-0.1,0.176-0.299,0.377c-0.151,0.148-0.376,0.324-0.677,0.524c-0.603,0.501-1.453,1.277-2.556,2.33
		c-1.103,1.052-2.079,1.804-2.932,2.255c-0.852,0.4-1.103,0.575-0.751,0.525c1.151-0.2,2.53-1.027,4.133-2.48
		c0.854-0.751,1.678-1.377,2.48-1.879c0.852-0.449,1.379-0.602,1.578-0.449c0.2,0.149,0.227,0.301,0.075,0.449
		c-0.149,0.15-0.601,0.401-1.352,0.752c-0.302,0.2-0.729,0.477-1.279,0.827c-0.5,0.351-0.926,0.701-1.276,1.052
		c-0.854,0.752-1.604,1.303-2.255,1.653s-1.628,0.752-2.932,1.203c-1.453,0.5-2.555,0.977-3.307,1.427
		c-0.752,0.452-1.553,1.128-2.404,2.029c-0.902,0.951-1.704,1.629-2.406,2.029c-0.651,0.352-1.302,0.5-1.953,0.451
		c-0.451,0-0.752-0.101-0.901-0.302c-0.151-0.149-0.025-0.226,0.376-0.226c0.55,0,1.302-0.377,2.254-1.127
		c1.003-0.803,1.879-1.729,2.631-2.78c0.149-0.2,0.351-0.427,0.601-0.677c0.301-0.301,0.552-0.526,0.751-0.678
		c0.452-0.25,0.928-0.5,1.429-0.752c0.5-0.25,1.503-0.676,3.006-1.275c1.302-0.502,2.781-1.504,4.435-3.008
		c1.453-1.401,2.381-2.254,2.78-2.555c0.452-0.301,0.676-0.326,0.676-0.074L136.734,165.686z M172.658,126.305
		c-0.149,0.15-0.325,0.275-0.525,0.376c-0.502,0.351-0.928,0.826-1.277,1.428c-0.352,0.651-0.701,1.503-1.053,2.555
		c-0.4,1.353-0.775,2.33-1.128,2.931c-0.399,0.601-1.202,1.503-2.403,2.705c-1.203,1.203-2.006,2.104-2.404,2.706
		c-0.402,0.601-1.127,2.054-2.18,4.359c-0.352,0.851-0.652,1.402-0.903,1.653c-0.249,0.25-0.476,0.275-0.675,0.075
		c-0.101-0.151,0.074-0.576,0.524-1.278c0.4-0.702,0.929-1.778,1.578-3.231c0.351-0.802,0.651-1.428,0.901-1.879
		c0.301-0.451,0.677-0.927,1.129-1.428c0.6-0.651,0.851-0.977,0.751-0.977c-0.151,0-0.576,0.351-1.278,1.053
		c-0.601,0.601-1.252,1.603-1.953,3.006c-0.503,0.952-1.027,1.854-1.578,2.706c-0.603,0.801-0.978,1.203-1.127,1.203
		c-0.102,0-0.227-0.051-0.375-0.15c-0.103-0.05-0.125-0.175-0.076-0.376c0.101-0.15,0.326-0.425,0.676-0.827
		c0.201-0.25,0.502-0.676,0.902-1.277c0.352-0.551,0.65-1.077,0.901-1.579c0.651-1.252,1.179-2.129,1.577-2.63
		c0.354-0.451,1.104-1.152,2.255-2.104c1.104-1.002,1.905-1.854,2.406-2.556c0.5-0.751,0.976-1.704,1.428-2.855
		c0.399-1.052,0.802-1.829,1.202-2.33c0.352-0.551,0.802-0.977,1.352-1.278c0.452-0.2,0.828-0.326,1.129-0.376
		c0.301-0.05,0.451,0,0.451,0.151C172.885,126.129,172.809,126.204,172.658,126.305z M150.714,119.09
		c0.101,0.149,0.175,0.476,0.226,0.977c0.102,0.752,0.227,4.008,0.375,9.77c0.201,5.912,0.326,9.395,0.377,10.446
		c0.052,0.702,0.074,1.127,0.074,1.278c-0.051,0.15-0.149,0.226-0.3,0.226c-0.151,0-0.251-0.075-0.301-0.226
		c-0.052-0.2-0.103-0.626-0.151-1.278c-0.1-1.102-0.148-2.304-0.148-3.607c-0.051-1.353-0.102-2.354-0.15-3.006
		c-0.05-0.4-0.1-0.451-0.15-0.15c-0.051,0.301-0.101,1.103-0.149,2.405c-0.101,2.455-0.201,4.059-0.301,4.81
		c-0.05,0.702-0.149,1.052-0.301,1.052c-0.149,0-0.225-0.3-0.225-0.901c-0.05-0.602-0.026-2.079,0.075-4.435
		c0.1-4.008,0.225-7.891,0.375-11.648c0.15-3.657,0.251-5.562,0.302-5.711C150.488,118.89,150.613,118.89,150.714,119.09z
		 M143.349,119.992c0,0.101-0.025,0.326-0.075,0.676c-0.151,0.551-0.124,1.202,0.075,1.954c0.25,0.751,0.677,1.653,1.277,2.706
		c0.651,1.152,1.052,2.08,1.203,2.781c0.2,0.751,0.3,1.904,0.3,3.457c0,1.453,0.076,2.581,0.226,3.382
		c0.2,0.801,0.626,2.029,1.277,3.683c0.602,1.503,0.952,2.455,1.053,2.856c0.051,0.25,0.074,0.401,0.074,0.451
		c-0.05,0.05-0.175,0.05-0.375,0c-0.2,0-0.35-0.1-0.451-0.3c-0.1-0.15-0.225-0.501-0.376-1.052
		c-0.301-0.902-0.727-1.979-1.276-3.231c-0.302-0.802-0.527-1.428-0.677-1.879c-0.101-0.401-0.177-0.977-0.227-1.729l-0.149-1.653
		l-0.075,1.202c-0.101,0.751-0.074,1.453,0.075,2.104c0.1,0.652,0.326,1.428,0.677,2.33c0.301,0.751,0.55,1.478,0.751,2.179
		c0.15,0.702,0.225,1.303,0.225,1.804c0,0.301-0.023,0.477-0.074,0.526c-0.05,0.1-0.15,0.15-0.301,0.15
		c-0.2,0-0.35-0.15-0.451-0.451c-0.1-0.3-0.149-0.751-0.149-1.353c0-0.15-0.052-0.501-0.151-1.053
		c-0.199-0.551-0.399-1.127-0.601-1.728l-0.751-2.179l-0.075-7.967l-0.978-2.029c-0.45-0.901-0.727-1.553-0.826-1.954
		c-0.151-0.401-0.227-0.852-0.227-1.353c0-0.652,0.102-1.228,0.301-1.729c0.15-0.501,0.326-0.751,0.525-0.751
		C143.223,119.842,143.299,119.892,143.349,119.992z M157.777,122.848c-0.101,0.851-0.075,1.878,0.076,3.081
		c0.149,1.152,0.149,2.08,0,2.781c-0.151,0.701-0.526,1.778-1.127,3.231c-0.553,1.252-0.902,2.304-1.054,3.156
		c-0.151,0.802-0.274,2.305-0.376,4.509c-0.051,1.353-0.102,2.154-0.15,2.405c-0.049,0.25-0.174,0.375-0.375,0.375
		c-0.25-0.051-0.377-0.2-0.377-0.451c0.051-0.351,0.127-1.654,0.228-3.908c0.101-1.503,0.176-2.53,0.226-3.081
		c0.051-0.501,0.176-0.952,0.377-1.353c0.248-0.652,0.35-1.002,0.299-1.052c-0.051,0-0.125,0.1-0.226,0.301
		c-0.149,0.25-0.301,0.526-0.45,0.826c-0.25,0.551-0.426,1.053-0.527,1.503c-0.049,0.4-0.123,1.127-0.225,2.18
		c-0.1,1.402-0.25,2.53-0.451,3.382c-0.199,0.851-0.451,1.278-0.752,1.278c-0.199,0-0.3-0.101-0.3-0.301
		c0-0.15,0.125-0.601,0.376-1.353c0.1-0.351,0.176-0.727,0.225-1.127c0.103-0.452,0.152-0.777,0.152-0.977
		c0-1.153,0.1-2.18,0.299-3.082c0.252-0.952,0.651-2.029,1.203-3.231c0.803-1.704,1.277-2.906,1.428-3.607
		c0.201-0.751,0.275-1.854,0.226-3.307c0-0.952,0.024-1.653,0.075-2.104c0-0.401,0.074-0.751,0.227-1.053
		c0.201-0.45,0.477-0.876,0.826-1.277c0.352-0.401,0.625-0.602,0.826-0.602s0.301,0.05,0.301,0.15
		c-0.05,0.101-0.199,0.351-0.449,0.751C158.004,121.395,157.827,122.046,157.777,122.848z M165.818,122.322
		c0,0.1-0.274,0.977-0.825,2.63c-0.651,1.653-1.378,3.532-2.181,5.636l-3.982,10.446c-0.65,1.653-1.053,2.48-1.202,2.48
		c-0.2,0-0.228-0.301-0.075-0.902c0.149-0.652,0.602-1.929,1.352-3.833c1.054-2.806,1.58-4.233,1.58-4.283
		c-0.049-0.05-0.752,1.353-2.104,4.208c-0.751,1.503-1.303,2.581-1.651,3.231c-0.354,0.601-0.578,0.902-0.678,0.902
		c-0.052-0.05-0.102-0.101-0.15-0.15s-0.074-0.1-0.074-0.15c0-0.1,0.751-1.778,2.254-5.035l4.285-9.019
		c1.201-2.706,2.027-4.484,2.479-5.336c0.401-0.851,0.678-1.278,0.827-1.278c0.05,0,0.101,0.051,0.149,0.151
		C165.818,122.122,165.818,122.221,165.818,122.322z M161.234,145.619l5.486-4.96c6.362-5.812,10.021-9.118,10.973-9.919
		c0.301-0.251,0.525-0.376,0.677-0.376c0.2-0.051,0.301,0.025,0.301,0.225c0,0.1-0.401,0.601-1.202,1.503
		c-0.803,0.801-2.58,2.655-5.336,5.561c-4.26,4.41-6.915,7.115-7.968,8.117c-1.001,1.052-1.554,1.503-1.651,1.353
		c-0.051-0.15,0.148-0.501,0.602-1.052c0.451-0.5,1.277-1.402,2.479-2.705c2.154-2.255,3.081-3.282,2.781-3.082
		c-0.201,0.201-1.378,1.228-3.533,3.082c-1.302,1.152-2.18,1.904-2.63,2.254c-0.45,0.351-0.728,0.476-0.825,0.376
		c-0.102-0.101-0.15-0.175-0.15-0.226C161.186,145.719,161.186,145.669,161.234,145.619z M165.971,146.22
		c0.5-0.351,0.926-0.677,1.277-0.977c0.9-0.751,1.652-1.328,2.255-1.729c0.651-0.301,1.603-0.677,2.854-1.127
		c1.502-0.551,2.631-1.052,3.382-1.503c0.752-0.401,1.503-1.002,2.255-1.804c0.701-0.801,1.277-1.353,1.729-1.653
		c0.401-0.351,0.877-0.626,1.43-0.826c0.398-0.151,0.875-0.226,1.427-0.226c0.502,0,0.778,0.075,0.828,0.226
		c0.05,0.1,0,0.175-0.151,0.225c-0.1,0.05-0.251,0.101-0.451,0.15c-0.602,0.1-1.201,0.376-1.804,0.827
		c-0.55,0.451-1.276,1.228-2.181,2.33c-0.75,0.901-1.502,1.603-2.254,2.104c-0.752,0.451-1.778,0.952-3.082,1.503
		c-1.252,0.451-2.254,0.927-3.006,1.428c-0.699,0.451-1.603,1.203-2.705,2.254c-1.201,1.103-2.027,1.829-2.479,2.18
		c-0.399,0.301-0.676,0.351-0.825,0.151c-0.102-0.201-0.125-0.351-0.076-0.452c0.101-0.15,0.426-0.426,0.979-0.826
		c0.65-0.501,1.553-1.278,2.705-2.33c0.551-0.501,1.076-0.952,1.578-1.354c0.552-0.4,1.001-0.701,1.354-0.901
		c0.801-0.401,1.027-0.551,0.676-0.451c-1.102,0.2-2.531,1.053-4.283,2.556c-0.853,0.751-1.652,1.353-2.404,1.803
		c-0.751,0.501-1.227,0.702-1.428,0.602c-0.451-0.301-0.075-0.751,1.127-1.353C165.043,146.846,165.469,146.571,165.971,146.22z
		 M149.361,152.607c-0.25-0.301-0.752-0.625-1.504-0.977c-0.701-0.352-1.478-0.552-2.329-0.602c-0.853-0.102-1.578-0.051-2.18,0.148
		c-0.552,0.201-1.103,0.452-1.652,0.752c-0.553,0.352-1.003,0.702-1.354,1.053c-0.352,0.4-0.502,0.602-0.451,0.602
		c0.1,0,0.501-0.225,1.202-0.676c2.404-1.453,4.584-1.653,6.538-0.602c0.502,0.25,0.852,0.45,1.053,0.602
		c0.201,0.199,0.375,0.451,0.526,0.752c0.399,0.751,0.551,1.703,0.451,2.855c-0.102,1.103-0.401,2.004-0.903,2.704
		c-0.299,0.302-0.375,0.526-0.225,0.677c0.201,0.15,0.352,0.125,0.451-0.074c0.149-0.15,0.325-0.553,0.525-1.202
		c0.251-0.853,0.426-1.604,0.526-2.255c0.051-0.702,0-1.379-0.15-2.029C149.786,153.535,149.61,152.959,149.361,152.607z
		 M148.685,154.938c-0.05-0.049-0.15-0.1-0.301-0.148c-0.3-0.102-0.827-0.376-1.578-0.827c-0.501-0.351-0.877-0.551-1.128-0.601
		c-0.251-0.102-0.626-0.151-1.127-0.151c-0.351,0-0.7,0.024-1.053,0.076c-0.399,0.101-0.701,0.176-0.901,0.226
		c-0.45,0.15-0.951,0.45-1.503,0.901c-0.502,0.451-0.701,0.728-0.602,0.826c0.05,0.051,0.151,0.024,0.301-0.074
		c0.151-0.101,0.301-0.228,0.451-0.376c0.401-0.4,0.777-0.678,1.127-0.827c0.353-0.149,0.828-0.274,1.428-0.376
		c0.702-0.1,1.279-0.074,1.729,0.076c0.501,0.148,1.076,0.449,1.728,0.9c0.402,0.302,0.702,0.502,0.903,0.603
		c0.2,0.05,0.351,0.05,0.45,0C148.709,155.113,148.735,155.038,148.685,154.938z M148.159,155.766
		c-0.052-0.051-0.451,0.125-1.202,0.525c-1.354,0.65-2.882,0.701-4.586,0.148c-0.501-0.199-0.775-0.299-0.826-0.299
		c-0.101,0-0.025,0.1,0.226,0.299c0.601,0.453,1.452,0.729,2.556,0.828c1.101,0.101,1.979-0.051,2.631-0.451
		c0.398-0.149,0.725-0.351,0.976-0.602C148.184,156.016,148.259,155.865,148.159,155.766z M152.668,155.313
		c0.05,0,0.225-0.074,0.525-0.226c0.301-0.2,0.602-0.425,0.902-0.676c0.6-0.401,1.002-0.627,1.201-0.677
		c0.251-0.102,0.7-0.15,1.354-0.15c0.701,0,1.277,0.076,1.729,0.227c0.502,0.199,1.001,0.5,1.504,0.901
		c0.149,0.149,0.325,0.274,0.525,0.375c0.15,0.101,0.251,0.149,0.301,0.149c0.102-0.149-0.125-0.424-0.678-0.825
		c-0.551-0.451-1.076-0.751-1.577-0.901c-0.201-0.101-0.5-0.176-0.901-0.226c-0.351-0.052-0.677-0.076-0.978-0.076
		c-0.45,0-0.826,0.051-1.128,0.151c-0.25,0.05-0.6,0.225-1.053,0.524c-0.752,0.451-1.276,0.728-1.578,0.827
		c-0.25,0.102-0.399,0.225-0.449,0.375C152.316,155.236,152.417,155.313,152.668,155.313z M153.795,156.592
		c0.451,0.301,0.9,0.501,1.354,0.602c0.502,0.149,1.076,0.176,1.729,0.074c0.602-0.05,1.229-0.225,1.879-0.524
		c0.702-0.302,1.053-0.502,1.053-0.603c0-0.05-0.375,0.051-1.127,0.301c-1.604,0.552-3.132,0.477-4.584-0.226
		c-0.302-0.149-0.576-0.251-0.828-0.301c-0.199-0.101-0.299-0.101-0.299,0C153.068,156.116,153.346,156.341,153.795,156.592z
		 M154.246,155.54c-0.1-0.101-0.15-0.176-0.15-0.228c0-0.1,0.2-0.299,0.602-0.601c0.4-0.251,0.652-0.376,0.752-0.376
		c0.051,0,0.074,0.05,0.074,0.15c-0.051,0.05-0.101,0.125-0.149,0.226c-0.05,0.149-0.075,0.302-0.075,0.451s0.051,0.351,0.15,0.601
		l0.226,0.676l1.202-0.073c0.602-0.05,1.254-0.2,1.954-0.451c0.651-0.251,0.952-0.476,0.901-0.677c0-0.051-0.125-0.15-0.375-0.301
		c-0.2-0.149-0.426-0.301-0.676-0.451c-0.604-0.301-1.229-0.477-1.88-0.525c-0.651-0.05-1.278,0.075-1.879,0.376
		c-0.401,0.2-0.752,0.427-1.053,0.677c-0.25,0.301-0.326,0.5-0.228,0.602c0.051,0.101,0.354,0.275,0.903,0.525
		c0.601,0.2,0.901,0.275,0.901,0.227s-0.225-0.227-0.678-0.526C154.57,155.74,154.396,155.641,154.246,155.54z M151.165,155.464
		c0,0.802,0.101,1.729,0.301,2.781c0.249,1.002,0.5,1.553,0.752,1.653c0.249,0.199,0.375,0.176,0.375-0.075
		s-0.151-0.603-0.452-1.052c-0.248-0.502-0.426-0.902-0.524-1.203c-0.05-0.25-0.074-0.752-0.074-1.504
		c0-1.151,0.124-1.953,0.375-2.403c0.251-0.502,0.776-0.952,1.578-1.354c2.005-1.002,4.185-0.802,6.538,0.603
		c0.751,0.45,1.152,0.651,1.203,0.602c0.05-0.049-0.227-0.325-0.827-0.827c-0.601-0.5-1.128-0.877-1.578-1.127
		c-0.601-0.25-1.302-0.427-2.104-0.525c-0.852-0.102-1.603-0.051-2.254,0.148c-1.254,0.353-2.104,0.827-2.557,1.43
		C151.416,153.209,151.165,154.161,151.165,155.464z M142.371,155.313c0-0.148,0.151-0.35,0.452-0.601
		c0.299-0.201,0.575-0.326,0.826-0.376c0.201-0.05,0.201,0.05,0,0.301c-0.051,0.051-0.102,0.176-0.151,0.377
		c-0.05,0.149-0.05,0.299,0,0.449c0.05,0.352,0.05,0.526,0,0.526c-0.05,0.05-0.249-0.025-0.6-0.226
		C142.547,155.564,142.371,155.414,142.371,155.313z M143.122,156.216c0.702,0.15,1.254,0.2,1.654,0.15
		c0.401,0,0.727-0.177,0.977-0.526c0.201-0.3,0.201-0.65,0-1.052c-0.1-0.251-0.125-0.401-0.075-0.451
		c0.102,0,0.326,0.101,0.677,0.302c0.352,0.25,0.552,0.475,0.603,0.676c0,0.149-0.177,0.326-0.527,0.525
		c-0.351,0.251-0.476,0.376-0.376,0.376c0.151,0.05,0.451-0.024,0.903-0.226c0.398-0.2,0.625-0.352,0.675-0.45
		c0-0.101-0.149-0.302-0.451-0.603c-0.5-0.5-1.202-0.802-2.103-0.901c-0.852-0.15-1.604-0.05-2.255,0.301
		c-0.502,0.251-0.878,0.478-1.127,0.677l-0.376,0.301l0.376,0.301C141.945,155.814,142.421,156.016,143.122,156.216z
		 M146.581,165.385l0.675-0.602c0.301-0.251,0.602-0.451,0.903-0.602c0.4-0.201,0.751-0.326,1.052-0.375
		c0.05,0,0.276,0.074,0.676,0.226c0.251,0.1,0.476,0.149,0.677,0.149c0.199,0,0.449-0.051,0.75-0.149
		c0.4-0.101,0.678-0.15,0.826-0.15c0.201,0,0.502,0.101,0.903,0.302c0.201,0.1,0.427,0.225,0.677,0.375
		c0.199,0.149,0.35,0.274,0.45,0.375c0.149,0.2,0.226,0.325,0.226,0.377h-0.226c-0.103,0-0.301,0.074-0.603,0.226
		c-0.301,0.151-0.601,0.325-0.9,0.526c-0.803,0.5-1.479,0.75-2.029,0.75c-0.602,0-1.303-0.25-2.104-0.75
		c-0.301-0.201-0.526-0.377-0.677-0.526c-0.199-0.15-0.275-0.251-0.226-0.302c0-0.051-0.023-0.074-0.075-0.074
		c-0.1,0-0.225,0.023-0.376,0.074L146.581,165.385z M146.28,165.385l0.525,0.15c0.301,0.1,0.5,0.15,0.602,0.15
		c0.1,0,0.376,0.226,0.826,0.676c0.15,0.199,0.351,0.375,0.602,0.525c0.2,0.15,0.376,0.25,0.526,0.301l0.602,0.076l-0.602,0.375
		c-0.15,0.1-0.326,0.25-0.526,0.45c-0.15,0.2-0.275,0.376-0.375,0.526l-0.301,0.601l0.45-0.524c0.45-0.502,1.001-0.803,1.652-0.902
		c0.652-0.051,1.254,0.125,1.805,0.525c0.5,0.302,0.727,0.377,0.677,0.227c0-0.15-0.25-0.4-0.752-0.752
		c-0.351-0.251-0.552-0.4-0.603-0.451c0-0.05,0.127-0.1,0.377-0.148c0.1-0.051,0.274-0.15,0.525-0.301
		c0.251-0.152,0.451-0.326,0.602-0.527c0.2-0.149,0.426-0.299,0.676-0.449c0.252-0.151,0.451-0.252,0.603-0.303
		c0.351-0.1,0.552-0.174,0.601-0.225c0-0.05-0.1-0.15-0.299-0.301c-0.201-0.201-0.427-0.426-0.678-0.677
		c-0.55-0.451-0.979-0.701-1.277-0.751c-0.3-0.102-0.877-0.102-1.729,0c-0.4,0-0.803-0.025-1.202-0.076
		c-0.452-0.1-0.878-0.051-1.278,0.15c-0.301,0.15-0.727,0.477-1.277,0.978L146.28,165.385z M146.73,161.025
		c0,0.352,0.1,0.602,0.301,0.752c0.201,0.199,1.353,0.3,3.457,0.3c2.055,0,3.233-0.101,3.532-0.3c0.25-0.15,0.401-0.4,0.451-0.752
		c0-0.352-0.125-0.627-0.375-0.827c-0.201-0.25-0.353-0.375-0.453-0.375c-0.1,0.05-0.05,0.2,0.151,0.45
		c0.149,0.101,0.226,0.201,0.226,0.301c0.049,0.101,0.025,0.227-0.074,0.376c-0.102,0.2-0.325,0.325-0.678,0.376
		c-0.35,0.051-0.601-0.025-0.752-0.227c-0.1-0.149-0.199-0.226-0.299-0.226c-0.051,0.05-0.177,0.176-0.376,0.376
		c-0.353,0.352-0.778,0.525-1.278,0.525c-0.5,0-0.927-0.176-1.276-0.525c-0.201-0.2-0.326-0.301-0.376-0.301
		c-0.102-0.051-0.226,0-0.376,0.15c-0.201,0.199-0.427,0.275-0.677,0.226c-0.301-0.05-0.525-0.177-0.677-0.376
		c-0.05-0.149-0.074-0.275-0.074-0.376s0.074-0.2,0.226-0.3c0.101-0.102,0.175-0.2,0.225-0.301c0.052-0.102,0.052-0.15,0-0.15
		c-0.149,0-0.324,0.125-0.525,0.375C146.83,160.398,146.73,160.675,146.73,161.025z M148.384,165.311
		c0.2,0.049,0.475,0.1,0.827,0.148c0.652,0.051,1.578,0.051,2.78,0c1.254-0.1,1.729-0.2,1.429-0.3
		c-0.251-0.101-1.202-0.15-2.855-0.15c-1.706,0-2.557,0.05-2.557,0.15C148.008,165.209,148.134,165.259,148.384,165.311z
		 M165.669,152.082c0-0.1,1.429-0.751,4.284-1.954c2.805-1.253,4.208-1.904,4.208-1.955c-0.05-0.05-1.527,0.427-4.435,1.428
		c-2.904,1.002-4.408,1.454-4.51,1.353c-0.148-0.151-0.148-0.274,0-0.376c0.053-0.051,0.652-0.3,1.805-0.751
		c1.201-0.451,2.58-0.952,4.133-1.503c7.766-2.856,12.4-4.534,13.904-5.036c1-0.3,1.652-0.476,1.953-0.525
		c0.201,0,0.275,0.075,0.227,0.225c-0.051,0.1-1.202,0.676-3.457,1.729c-2.305,1.052-4.961,2.254-7.967,3.607l-3.23,1.353
		c-2.406,1.103-4.109,1.854-5.111,2.255c-1.053,0.4-1.603,0.551-1.652,0.45C165.719,152.232,165.669,152.132,165.669,152.082z
		 M167.698,153.135c0.45-0.05,0.977-0.15,1.577-0.301c0.602-0.15,1.203-0.326,1.805-0.525l1.879-0.677l3.833-0.075
		c2.556,0,4.033-0.051,4.435-0.149c0.45-0.101,1.252-0.401,2.404-0.902c0.45-0.201,0.902-0.401,1.354-0.601
		c0.451-0.201,0.776-0.301,0.977-0.301c0.402-0.101,0.878-0.125,1.428-0.075c0.604,0.05,1.078,0.15,1.43,0.3
		c0.148,0.05,0.275,0.125,0.375,0.225c0.149,0.101,0.227,0.175,0.227,0.226c0.051,0.1,0.023,0.175-0.076,0.226
		c-0.1,0-0.35-0.025-0.751-0.076c-0.702-0.05-1.377,0-2.028,0.15c-0.651,0.2-1.68,0.651-3.082,1.353l-2.328,1.203l-3.533,0.074
		c-1.903,0.051-3.207,0.15-3.907,0.303c-0.702,0.149-2.329,0.7-4.885,1.652c-0.501,0.2-0.953,0.35-1.354,0.45
		c-0.4,0.1-0.627,0.149-0.677,0.149c-0.05-0.05-0.101-0.101-0.149-0.149c0-0.101,0-0.2,0-0.302c0-0.1,0.074-0.199,0.227-0.299
		c0.148-0.102,0.426-0.201,0.826-0.302c0.699-0.149,1.755-0.501,3.156-1.052c0.951-0.352,1.779-0.627,2.479-0.827
		s1.528-0.353,2.479-0.451c0.15,0,0.15-0.024,0-0.075c-0.2,0-0.502,0-0.901,0c-0.702,0-1.254,0.025-1.653,0.075
		c-0.451,0.101-1.177,0.302-2.18,0.603c-0.65,0.25-1.303,0.449-1.953,0.601c-0.702,0.2-1.229,0.302-1.579,0.302
		c-0.601,0.049-0.977,0.074-1.128,0.074c-0.148-0.05-0.225-0.15-0.225-0.3c0-0.2,0.1-0.326,0.301-0.376
		C166.646,153.234,167.047,153.186,167.698,153.135z M166.796,156.742c0-0.15,0.151-0.251,0.452-0.303
		c0.249,0,1.127,0.026,2.63,0.076l11.649,0.377c2.453,0.1,4.509,0.199,6.162,0.299c1.651,0.102,2.504,0.177,2.555,0.228
		c0.066,0.065,0.066,0.142,0,0.226c-0.033,0.049-0.083,0.1-0.15,0.149c-0.199,0.101-0.476,0.149-0.826,0.149
		c-0.752,0-7.14,0.227-19.164,0.678c-1.604,0.05-2.556,0.074-2.854,0.074c-0.301-0.051-0.452-0.149-0.452-0.301
		c0-0.199,0.151-0.301,0.452-0.301c0.351-0.101,1.252-0.176,2.705-0.226c2.054-0.101,3.633-0.15,4.733-0.15c0.701,0,1.078,0,1.127,0
		c0.051-0.05-0.148-0.1-0.601-0.149c-0.251-0.051-0.825-0.101-1.729-0.149c-0.899-0.051-1.877-0.101-2.93-0.151
		c-1.754-0.05-2.83-0.1-3.23-0.149C166.973,157.066,166.796,156.941,166.796,156.742z M158.305,154.713
		c0.352,0.251,0.525,0.451,0.525,0.602c0,0.101-0.201,0.25-0.602,0.451c-0.353,0.199-0.552,0.274-0.602,0.226v-0.526
		c0.05-0.15,0.05-0.3,0-0.449c0-0.201-0.05-0.326-0.15-0.377c-0.149-0.25-0.125-0.351,0.075-0.301
		C157.753,154.389,158.004,154.512,158.305,154.713z M166.872,161.251c0.149,0.05,0.601,0.101,1.353,0.149
		c0.752,0.051,1.604,0.076,2.555,0.076c1.404,0.049,2.382,0.101,2.933,0.149c0.552,0.101,1.103,0.25,1.651,0.45
		c0.703,0.251,0.979,0.301,0.828,0.15c-0.15-0.201-0.627-0.427-1.428-0.677c-0.701-0.251-1.879-0.45-3.533-0.602
		c-1.451-0.101-2.578-0.25-3.381-0.451c-0.803-0.2-1.203-0.425-1.203-0.677c0-0.2,0.074-0.324,0.227-0.375
		c0.199,0,0.574,0.101,1.127,0.301c0.2,0.102,0.652,0.199,1.354,0.301c0.75,0.1,1.527,0.2,2.328,0.301l2.856,0.225l2.479,1.128
		c1.754,0.752,2.906,1.229,3.457,1.429c0.252,0.05,0.728,0.102,1.43,0.15c0.701,0.05,1.453,0.074,2.254,0.074
		c1.201,0,2.029,0.024,2.479,0.075c0.4,0.05,0.752,0.149,1.053,0.3c0.4,0.201,0.776,0.478,1.127,0.828
		c0.352,0.35,0.525,0.602,0.525,0.752c0,0.148-0.023,0.226-0.074,0.226c-0.101-0.05-0.4-0.2-0.9-0.451
		c-0.604-0.351-1.229-0.552-1.879-0.603c-0.702-0.049-1.704-0.024-3.008,0.076c-1.353,0.149-2.379,0.176-3.08,0.074
		c-0.752-0.15-1.979-0.551-3.684-1.202c-1.152-0.501-1.979-0.776-2.48-0.827c-0.449-0.149-1.352-0.25-2.704-0.3
		c-2.255-0.149-3.582-0.227-3.983-0.227c-0.551,0-0.9-0.05-1.052-0.149c-0.149-0.051-0.226-0.176-0.226-0.376
		c-0.051-0.2-0.051-0.325,0-0.376C166.32,161.176,166.52,161.201,166.872,161.251z M165.745,162.829
		c0.101-0.149,0.476-0.101,1.127,0.149c0.651,0.252,2.504,1.054,5.562,2.405l8.566,3.759c2.605,1.102,4.309,1.854,5.111,2.254
		c0.802,0.4,1.177,0.677,1.127,0.826c-0.051,0.051-0.103,0.101-0.151,0.15c-0.101,0.05-0.198,0.05-0.299,0
		c-0.302-0.051-3.935-1.328-10.897-3.833c-7.015-2.556-10.57-3.883-10.673-3.983c-0.05,0-0.073-0.05-0.073-0.149
		c0-0.05,0-0.101,0-0.15c0.1-0.101,0.574-0.024,1.428,0.226c0.802,0.201,2.255,0.701,4.357,1.504
		c2.006,0.701,3.006,1.027,3.006,0.977c0.051-0.05-1.302-0.676-4.058-1.878c-2.756-1.253-4.159-1.903-4.209-1.954L165.745,162.829z
		 M164.691,165.159c0.051,0,0.377,0.25,0.978,0.752c0.201,0.25,0.626,0.551,1.278,0.901c0.601,0.399,1.227,0.726,1.879,0.977
		c1.104,0.552,1.854,1.002,2.254,1.354c0.451,0.301,1.229,1.026,2.33,2.181c1.253,1.252,2.229,2.104,2.931,2.555
		c0.7,0.501,1.653,0.951,2.854,1.353c0.354,0.102,0.729,0.252,1.128,0.451c0.452,0.2,0.802,0.377,1.053,0.526
		c0.5,0.351,0.952,0.826,1.354,1.428c0.399,0.601,0.549,1.027,0.449,1.277c-0.05,0.149-0.1,0.2-0.148,0.149
		c-0.1-0.049-0.301-0.25-0.602-0.602c-0.451-0.551-0.979-0.979-1.578-1.277c-0.603-0.351-1.504-0.677-2.705-0.977
		c-0.553-0.15-1.078-0.326-1.58-0.525c-0.5-0.15-0.826-0.277-0.977-0.377c-0.201-0.05-0.602-0.351-1.201-0.9
		c-0.603-0.451-1.229-1.002-1.88-1.654c-1.153-1.053-1.954-1.729-2.405-2.029c-0.451-0.3-1.203-0.699-2.254-1.201
		c-2.256-0.951-3.584-1.554-3.982-1.805c-0.452-0.25-0.602-0.477-0.452-0.676c0.101-0.2,0.201-0.276,0.301-0.227
		c0.151,0,0.501,0.176,1.054,0.525c0.801,0.4,1.678,0.803,2.629,1.203c1.152,0.45,2.028,0.852,2.631,1.202
		c0.603,0.301,1.178,0.7,1.729,1.202c0.399,0.4,0.652,0.627,0.752,0.677l-0.151-0.376c-0.301-0.352-0.699-0.751-1.201-1.202
		c-0.502-0.399-0.951-0.701-1.354-0.901c-0.3-0.201-1.052-0.576-2.255-1.127c-0.95-0.451-1.729-0.928-2.329-1.429
		c-0.602-0.501-0.877-0.877-0.826-1.128C164.541,165.259,164.641,165.159,164.691,165.159z M178.671,184.698
		c-0.2,0.251-0.825-0.125-1.879-1.128l-13.002-11.799c-0.651-0.601-1.228-1.127-1.728-1.578c-0.451-0.45-0.703-0.7-0.752-0.75
		c-0.103-0.401,0.1-0.428,0.601-0.076c0.502,0.301,1.428,1.053,2.78,2.255l3.606,3.308c0.502,0.45,0.427,0.274-0.225-0.525
		c-0.701-0.752-1.779-1.904-3.232-3.457c-0.952-0.952-1.577-1.653-1.879-2.105c-0.351-0.4-0.5-0.65-0.45-0.751
		c0.1-0.2,0.625,0.175,1.578,1.127c1.002,0.952,3.809,3.833,8.418,8.644c2.956,3.057,4.733,4.936,5.336,5.637
		C178.443,184.146,178.721,184.549,178.671,184.698z M171.98,189.434c-0.049-0.05-0.1-0.25-0.148-0.602
		c-0.102-0.602-0.4-1.178-0.902-1.729c-0.5-0.603-1.253-1.328-2.255-2.181c-1.051-0.801-1.803-1.503-2.255-2.104
		c-0.449-0.651-1.001-1.729-1.652-3.23c-0.502-1.152-0.951-2.029-1.354-2.631c-0.398-0.602-1.303-1.628-2.705-3.081
		c-1.452-1.554-2.203-2.405-2.255-2.556c0-0.051,0.024-0.1,0.075-0.149c0.05-0.101,0.1-0.176,0.15-0.226c0.1,0,0.4,0.25,0.9,0.751
		c0.551,0.501,1.229,1.151,2.029,1.954c1.002,1.053,1.729,1.854,2.18,2.404c0.402,0.551,0.729,1.077,0.979,1.578
		c0.351,0.801,0.551,1.202,0.602,1.202c0.1,0-0.026-0.426-0.376-1.276c-0.302-0.803-0.576-1.379-0.828-1.729
		c-0.101-0.2-0.349-0.501-0.751-0.901c-0.35-0.451-0.727-0.878-1.127-1.277c-0.752-0.803-1.354-1.553-1.803-2.256
		c-0.402-0.75-0.502-1.201-0.301-1.353c0.2-0.101,0.351-0.125,0.449-0.075c0.1,0.102,0.301,0.451,0.602,1.053
		c0.201,0.302,0.477,0.701,0.828,1.201c0.399,0.502,0.775,0.952,1.127,1.354c0.802,0.901,1.4,1.653,1.804,2.255
		c0.35,0.602,0.774,1.527,1.276,2.779c0.553,1.404,1.027,2.48,1.428,3.232c0.402,0.7,0.878,1.303,1.43,1.805l1.729,1.578
		c0.65,0.6,1.127,1.377,1.428,2.328c0.302,0.951,0.275,1.578-0.074,1.879C172.105,189.482,172.033,189.482,171.98,189.434z
		 M157.777,171.697c0.1,0.15,0.275,0.501,0.527,1.052c0.2,0.502,1.252,3.231,3.154,8.192l3.607,9.47
		c0.451,1.149,0.701,1.901,0.752,2.255c0.101,0.398,0.024,0.55-0.227,0.45c-0.201-0.103-1.879-3.533-5.035-10.296
		c-3.207-6.764-4.76-10.223-4.66-10.371c0-0.102,0.026-0.176,0.076-0.227c0.051-0.051,0.102-0.074,0.15-0.074
		c0.1,0,0.525,0.775,1.275,2.328c0.752,1.555,1.504,3.157,2.256,4.812c0.502,1.151,0.677,1.453,0.527,0.901
		c-0.152-0.551-0.604-1.854-1.354-3.908c-0.451-1.151-0.802-2.153-1.054-3.006c-0.299-0.853-0.426-1.327-0.375-1.428
		C157.502,171.598,157.628,171.547,157.777,171.697z M155.072,173.352c0.102,0.4,0.15,0.801,0.15,1.203
		c0,0.149,0.074,0.5,0.226,1.051c0.151,0.552,0.325,1.127,0.526,1.729l0.752,2.104l0.148,7.967l0.979,2.104
		c0.398,0.952,0.676,1.604,0.826,1.953c0.1,0.354,0.149,0.803,0.149,1.354c0,0.651-0.075,1.229-0.226,1.729
		c-0.201,0.5-0.401,0.751-0.602,0.751c-0.15,0-0.227-0.025-0.227-0.076c-0.051-0.05-0.051-0.175,0-0.375
		c0.05-0.101,0.1-0.275,0.15-0.525c0-0.352,0-0.651,0-0.901c0-0.552-0.102-1.052-0.301-1.503c-0.2-0.452-0.775-1.579-1.729-3.382
		l-0.752-1.354l-0.149-3.606c-0.05-1.903-0.149-3.156-0.302-3.757c-0.148-0.652-0.524-1.756-1.127-3.309
		c-0.301-0.65-0.576-1.326-0.825-2.029c-0.25-0.649-0.376-1.052-0.376-1.201c0-0.102,0.148-0.125,0.449-0.074
		c0.151,0,0.276,0.1,0.377,0.3c0.102,0.149,0.25,0.501,0.449,1.054c0.303,0.95,0.627,1.854,0.979,2.704
		c0.45,1.003,0.751,1.829,0.899,2.479c0.201,0.652,0.303,1.354,0.303,2.105v1.275l0.226-1.127c0.101-0.701,0.101-1.354,0-1.954
		c-0.103-0.601-0.376-1.478-0.825-2.63c-0.502-1.402-0.803-2.53-0.904-3.383c-0.049-0.602-0.049-0.978,0-1.127
		c0-0.102,0.103-0.15,0.303-0.15c0.148,0,0.249,0.05,0.301,0.15C155.021,172.949,155.072,173.102,155.072,173.352z M150.037,173.576
		c0.051,0.199,0.101,0.626,0.15,1.277c0.051,1.002,0.101,2.205,0.151,3.606c0,1.304,0.05,2.33,0.149,3.081
		c0.05,0.502,0.1,0.602,0.15,0.302c0-0.302,0.025-1.103,0.075-2.405c0.149-2.756,0.25-4.459,0.3-5.109
		c0.1-0.702,0.252-1.053,0.452-1.053c0.149,0,0.249,0.074,0.3,0.226c0,0.149,0,0.501,0,1.054c-0.101,0.9-0.25,4.533-0.451,10.896
		c-0.148,4.71-0.273,7.666-0.375,8.868c-0.051,1.151-0.149,1.752-0.301,1.804c-0.2,0.05-0.351-0.55-0.451-1.804
		c-0.1-1.202-0.225-4.135-0.376-8.793c-0.149-6.264-0.274-9.871-0.376-10.821c-0.05-0.652-0.05-1.054,0-1.203
		c0-0.149,0.102-0.226,0.301-0.226C149.887,173.275,149.986,173.376,150.037,173.576z M148.609,173.352
		c-0.05,0.199-0.176,0.7-0.376,1.502c-0.1,0.401-0.199,0.953-0.301,1.653c-0.1,0.702-0.175,1.353-0.225,1.954
		c-0.1,1.104-0.226,1.854-0.376,2.255c-0.1,0.451-0.452,1.277-1.052,2.479c-0.804,1.754-1.279,2.981-1.429,3.683
		c-0.149,0.702-0.226,1.779-0.226,3.231c0.05,0.953,0.05,1.652,0,2.104c-0.05,0.402-0.15,0.751-0.3,1.052
		c-0.201,0.451-0.452,0.877-0.752,1.279c-0.352,0.398-0.626,0.6-0.827,0.6c-0.2,0-0.3-0.074-0.3-0.225c0.05-0.1,0.2-0.4,0.451-0.902
		c0.251-0.399,0.4-0.775,0.45-1.127c0.05-0.25,0.075-0.677,0.075-1.276c0-0.902-0.05-1.779-0.15-2.632
		c-0.151-0.901-0.124-1.754,0.075-2.555c0.149-0.802,0.502-1.854,1.053-3.156c0.55-1.203,0.901-2.254,1.052-3.156
		c0.2-0.901,0.326-2.43,0.376-4.584l0.149-2.781h0.451c0.251,0,0.4,0.025,0.45,0.076c0,0.05-0.023,0.225-0.074,0.525
		c-0.1,0.4-0.201,1.703-0.301,3.907c-0.051,1.453-0.101,2.431-0.15,2.931c-0.1,0.502-0.249,0.979-0.45,1.429
		c-0.301,0.752-0.401,1.103-0.301,1.053c0.1,0,0.325-0.376,0.677-1.128c0.251-0.602,0.426-1.127,0.525-1.577
		c0.101-0.401,0.175-1.202,0.226-2.405c0.251-2.955,0.65-4.435,1.202-4.435C148.483,173.125,148.609,173.201,148.609,173.352z
		 M140.944,170.495c-0.1,0.251-0.353,0.751-0.752,1.503c-0.651,1.303-1.153,2.404-1.503,3.307c-0.402,0.853-0.978,1.703-1.729,2.555
		c-0.652,0.652-0.928,0.979-0.827,0.979c0.15,0,0.577-0.352,1.277-1.052c0.651-0.651,1.302-1.654,1.954-3.007
		c0.452-0.901,0.978-1.778,1.579-2.631c0.601-0.901,0.977-1.328,1.127-1.277c0.101,0,0.25,0.05,0.451,0.15
		c0.1,0.101,0.125,0.201,0.074,0.302c-0.1,0.149-0.301,0.425-0.602,0.825c-0.199,0.201-0.525,0.627-0.976,1.277
		c-0.401,0.651-0.777,1.303-1.128,1.954c-0.55,1.052-0.978,1.779-1.278,2.181c-0.35,0.449-0.876,1.002-1.578,1.652
		c-1.503,1.354-2.556,2.38-3.155,3.081c-0.551,0.701-1.027,1.603-1.429,2.705c-0.351,1.053-0.701,1.854-1.052,2.405
		c-0.352,0.5-0.802,0.927-1.353,1.277c-0.452,0.25-0.852,0.426-1.203,0.524c-0.35,0.101-0.525,0.051-0.525-0.149
		c0-0.05,0.074-0.125,0.226-0.226c0.149-0.149,0.326-0.3,0.525-0.451c0.451-0.301,0.852-0.751,1.202-1.353
		c0.351-0.602,0.702-1.502,1.053-2.707c0.199-0.549,0.4-1.101,0.602-1.651c0.2-0.552,0.376-0.927,0.525-1.128
		c0.1-0.2,0.401-0.576,0.901-1.127c0.502-0.501,1.027-1.026,1.579-1.578c1.102-1.104,1.879-2.004,2.33-2.706
		c0.45-0.701,1.103-1.979,1.953-3.832c0.301-0.651,0.576-1.228,0.827-1.729c0.2-0.45,0.325-0.676,0.375-0.676
		c0.102,0,0.251,0.024,0.451,0.074C140.968,170.068,140.994,170.244,140.944,170.495z M139.817,169.217
		c0.05,0.2-0.077,0.451-0.376,0.752c-0.353,0.301-3.033,2.73-8.042,7.29c-4.358,3.958-6.889,6.212-7.591,6.765
		c-0.502,0.451-0.826,0.701-0.978,0.752c-0.1,0.05-0.199,0.022-0.3-0.076c-0.1-0.051-0.076-0.176,0.075-0.376
		c0.05-0.149,0.251-0.399,0.601-0.751c4.16-4.358,7.717-8.041,10.673-11.047c2.954-3.008,4.458-4.51,4.509-4.51
		c0.201,0,0.324,0.049,0.376,0.149c0.05,0-0.251,0.351-0.902,1.052c-0.601,0.752-1.377,1.604-2.33,2.557
		c-1.903,2.004-2.831,3.006-2.78,3.006c0.05,0.05,1.103-0.853,3.156-2.705c1.854-1.604,2.956-2.53,3.307-2.78
		c0.2-0.201,0.352-0.276,0.451-0.226C139.717,169.066,139.767,169.117,139.817,169.217z M144.927,172.374
		c0.351-0.353,0.376-0.075,0.074,0.827c-0.299,0.9-1.077,2.68-2.329,5.335c-3.457,7.315-5.535,11.674-6.236,13.077
		c-0.452,0.9-0.752,1.428-0.903,1.578c-0.149,0.1-0.225-0.025-0.225-0.377c0-0.148,1.027-2.98,3.081-8.492
		c2.104-5.512,3.656-9.494,4.659-11.948c0.151-0.401,0.275-0.651,0.376-0.752c0.15-0.05,0.275,0.024,0.375,0.226
		c0,0.102-0.149,0.576-0.45,1.428c-0.301,0.902-0.677,1.93-1.127,3.082c-1.053,2.806-1.554,4.233-1.504,4.283l1.954-3.982
		c0.551-1.152,1.053-2.154,1.503-3.006C144.626,172.85,144.877,172.424,144.927,172.374z"/>
</g>
</svg>
