<?xml version="1.0" encoding="utf-8"?>
<!-- Generator: Adobe Illustrator 16.0.0, SVG Export Plug-In . SVG Version: 6.00 Build 0)  -->
<!DOCTYPE svg PUBLIC "-//W3C//DTD SVG 1.1//EN" "http://www.w3.org/Graphics/SVG/1.1/DTD/svg11.dtd">
<svg version="1.1" id="Layer_1" xmlns="http://www.w3.org/2000/svg" xmlns:xlink="http://www.w3.org/1999/xlink" x="0px" y="0px"
	 width="300px" height="300px" viewBox="0 0 300 300" enable-background="new 0 0 300 300" xml:space="preserve">
<g>
	<path fill="#75AADB" d="M222.191,84.512H94.378c-2.849-3.799-5.671-7.515-8.464-11.147c-1.621-2.179-3.241-4.302-4.862-6.37
		c-6.202-8.102-12.348-15.924-18.438-23.467l71.658,0.335c1.509,0,2.99,0,4.442,0h0.418c0.447,0,0.922,0,1.425,0l49.03,0.251
		c1.34,0,2.709,0.028,4.104,0.084h12.49c0.055,0,0.139,0,0.252,0c0.444,0,0.92,0,1.424,0c1.172,0,2.347,0.028,3.521,0.084h2.262
		c0.112,0,0.226,0,0.336,0l20.869,0.083c1.508,0,2.987,0,4.441,0c0.111,0,0.223,0,0.335,0h2.179c0.112,0,0.225,0,0.336,0
		l10.057,0.084c-1.396,1.955-2.793,3.827-4.189,5.615l-0.083,0.083c-3.745,4.973-7.265,9.694-10.562,14.165
		c-0.948,1.229-1.871,2.43-2.766,3.604c-0.672,0.895-1.313,1.76-1.929,2.599c-0.726,0.95-1.452,1.899-2.179,2.849
		c-0.278,0.391-0.56,0.783-0.838,1.173c-1.621,2.125-3.156,4.163-4.609,6.119C224.091,81.997,223.143,83.283,222.191,84.512z
		 M180.872,125.999c-0.019-0.147-0.074-0.315-0.167-0.502v-0.043c0.547-1.123,1.049-2.296,1.508-3.519
		c0.063,0.011,0.121,0.025,0.167,0.042c-0.153,0.42-0.319,0.868-0.502,1.34C181.583,124.161,181.246,125.056,180.872,125.999z
		 M182.59,121.012c0.118-0.228,0.217-0.437,0.294-0.629c-0.043,0.21-0.098,0.434-0.167,0.67
		C182.684,121.038,182.641,121.024,182.59,121.012z M180.621,126.669c-0.021,0.079-0.049,0.163-0.084,0.251
		c-0.279,0.727-0.559,1.481-0.839,2.263c-0.056,0.112-0.083,0.224-0.083,0.336c-0.561,1.285-1.09,2.542-1.594,3.771
		c-0.78,1.732-1.537,3.437-2.263,5.112c-1.284,2.738-2.599,5.336-3.938,7.795h6.453c-2.234,3.575-4.162,6.761-5.782,9.555
		c0,0.335,0,0.698,0,1.089c0,1.229-0.111,2.403-0.335,3.521c-1.117,5.029-2.235,10.924-3.354,17.686
		c-2.122,13.689-3.184,25.506-3.184,35.451c0,2.57,0.083,5.085,0.25,7.544c0.95,12.907,2.403,22.043,4.358,27.405
		c2.123,5.42,5.476,8.968,10.058,10.644c3.019,1.175,7.292,2.293,12.821,3.354c-1.34-0.225-2.623-0.447-3.854-0.67
		c6.257,1.341,13.996,2.485,23.215,3.436c0.168,0,0.362,0.028,0.588,0.085l-0.168-0.085c1.788,0.279,2.262,0.643,1.424,1.09
		l0.42,3.102c-4.189,0.838-9.694,1.648-16.51,2.432c-11.455,1.116-24.529,1.704-39.225,1.759
		c-14.752,0.112-27.742-0.446-38.973-1.677c-6.706-0.725-12.097-1.563-16.176-2.514l0.503-3.018v-0.839l10.56-1.593
		c10.673-1.563,18.439-3.186,23.3-4.861c0.895-0.277,1.76-0.643,2.599-1.088c3.408-1.956,5.978-5.143,7.71-9.556
		c2.012-5.419,3.463-14.556,4.358-27.405c0.168-2.459,0.252-4.973,0.252-7.544c0-9.778-1.033-21.399-3.102-34.866
		c-0.838-5.195-1.592-9.525-2.263-12.99c-2.012-4.916-5.447-11.396-10.308-19.442h12.654c-1.284-2.012-2.876-4.61-4.777-7.795
		c-1.453-2.354-3.073-5.022-4.861-8.004c0.104-0.06,0.215-0.129,0.335-0.209c0.104-0.092,0.272-0.245,0.503-0.461
		c0.864,1.04,1.716,2.017,2.556,2.934c-0.32,0.282-0.39,0.492-0.21,0.628c0.204,0.162,0.498,0.19,0.881,0.083
		c1.507,1.565,3.001,2.934,4.484,4.107c0.447,0.335,0.893,0.643,1.34,0.922c7.151,5.085,13.886,5.085,20.2,0
		c0.392-0.279,0.78-0.587,1.172-0.922c2.459-2.234,4.693-4.89,6.705-7.961c0-0.056,0-0.112,0-0.168
		c0.058-0.055,0.112-0.112,0.168-0.167c0.535-0.876,1.053-1.77,1.551-2.682c0.076,0.08,0.146,0.135,0.211,0.167
		C180.426,126.724,180.51,126.724,180.621,126.669z M135.111,120.97l-0.042,0.042c-0.055-0.109-0.097-0.207-0.126-0.293
		C134.994,120.793,135.049,120.876,135.111,120.97z M138.63,126.166c0.699,0.942,1.383,1.85,2.054,2.724
		c-0.23,0.261-0.384,0.442-0.461,0.544c-0.072,0.073-0.142,0.143-0.209,0.21c-0.599-1.058-1.229-2.147-1.886-3.269
		C138.297,126.319,138.463,126.25,138.63,126.166z M135.656,121.849c0.655,0.988,1.312,1.952,1.969,2.892
		c0.116,0.162,0.229,0.33,0.335,0.502c-0.127,0.07-0.253,0.126-0.377,0.167c-0.665-1.134-1.35-2.307-2.053-3.52
		C135.564,121.882,135.605,121.869,135.656,121.849z M159.584,151.729c4.023,0,6.648,1.313,7.878,3.939
		c0.169,1.341,0.111,2.904-0.168,4.693c-1.452,5.811-2.792,12.711-4.022,20.701c-2.515,15.813-3.379,28.887-2.598,39.224
		c0.67,9.666,1.649,17.013,2.934,22.043c1.396,5.53,3.492,9.692,6.285,12.487c1.453,0.894,2.963,1.621,4.525,2.179
		c-3.799-2.459-6.592-6.563-8.381-12.319c-1.619-5.197-2.85-13.326-3.688-24.39c-0.781-10.337,0.084-23.411,2.598-39.224
		c1.285-7.99,2.626-14.892,4.023-20.701c0.838-4.582,0-7.879-2.515-9.89c-1.454-1.621-3.744-2.432-6.873-2.432
		c-5.478,0-8.354,2.403-8.633,7.209c-0.279,1.509-0.224,3.213,0.168,5.111c1.396,5.923,2.737,12.822,4.022,20.701
		c2.459,15.869,3.297,29.055,2.514,39.561c-0.78,11.063-1.981,19.248-3.604,24.557c-1.845,5.698-4.666,9.777-8.465,12.235
		c1.621-0.56,3.158-1.284,4.61-2.179c2.738-2.795,4.833-6.984,6.287-12.571c1.229-4.974,2.207-12.321,2.934-22.042
		c0.782-10.506-0.085-23.691-2.6-39.561c-1.284-7.879-2.625-14.778-4.022-20.701c-0.446-2.569-0.362-4.75,0.252-6.537
		C154.443,152.427,156.623,151.729,159.584,151.729z"/>
	<path fill="#80341A" d="M182.59,121.012c0.051,0.012,0.094,0.026,0.127,0.042c0.335,0.168,0.53,0.28,0.588,0.335
		c0.166,0.056,0.277,0.168,0.332,0.335c0,0.167-0.082,0.307-0.25,0.419c-0.13,0.043-0.466-0.013-1.007-0.167
		c-0.046-0.017-0.104-0.031-0.167-0.042c-0.097-0.042-0.207-0.083-0.335-0.126c-0.894-0.279-3.212-1.089-6.957-2.431l-4.524-1.676
		c-1.062-0.391-1.508-0.475-1.34-0.251c0.166,0.167,0.836,0.559,2.01,1.173c0.729,0.391,1.313,0.726,1.761,1.006
		c0.335,0.279,0.838,0.782,1.509,1.509c0.67,0.67,1.258,1.172,1.76,1.508c0.447,0.336,1.034,0.615,1.76,0.838
		c0.84,0.335,1.342,0.559,1.51,0.67c0.66,0.384,1.105,0.818,1.342,1.299v0.043c0.093,0.188,0.148,0.355,0.167,0.502
		c-0.078,0.222-0.162,0.446-0.251,0.67c-0.111,0.055-0.195,0.055-0.251,0c-0.063-0.032-0.136-0.088-0.21-0.167
		c-0.068-0.072-0.139-0.155-0.21-0.252c-0.335-0.391-0.699-0.67-1.091-0.838c-0.392-0.223-0.977-0.475-1.758-0.753
		c-0.447-0.112-0.84-0.224-1.176-0.336c-0.392-0.112-0.642-0.223-0.754-0.335c-0.168-0.056-0.447-0.251-0.838-0.586
		c-0.335-0.336-0.727-0.671-1.174-1.006c-0.893-0.895-1.592-1.481-2.096-1.761c-0.613-0.279-1.285-0.586-2.01-0.922
		c-0.84-0.335-1.229-0.446-1.176-0.335c0.057,0.057,0.615,0.643,1.678,1.761c1.396,1.453,3.017,3.129,4.859,5.028
		c1.846,1.9,2.852,2.989,3.02,3.268c0.277,0.224,0.418,0.419,0.418,0.587c0,0.112-0.057,0.251-0.168,0.418
		c-0.057,0.056-0.141,0.085-0.25,0.085c-0.058,0-0.141-0.029-0.252-0.085c-0.226-0.111-1.705-1.424-4.442-3.938
		c-4.358-3.911-6.565-5.867-6.62-5.867c-0.059,0.056,0.055,0.308,0.335,0.754c0.278,0.335,0.614,0.726,1.005,1.174
		c0.561,0.615,0.979,1.173,1.257,1.676c0.279,0.447,0.587,1.117,0.923,2.011s0.644,1.565,0.924,2.012
		c0.277,0.447,0.697,0.922,1.256,1.425c0.56,0.502,0.922,0.838,1.089,1.005c0.112,0.168,0.252,0.419,0.42,0.755
		c0.224,0.392,0.335,0.81,0.335,1.257c0,0.392-0.057,0.67-0.166,0.839c-0.337,0.335-0.589,0.167-0.756-0.503
		c-0.111-0.503-0.309-0.923-0.586-1.258c-0.279-0.335-0.84-0.81-1.678-1.425c-0.559-0.446-1.006-0.894-1.34-1.341
		c-0.337-0.391-0.672-1.062-1.007-2.011c-0.224-0.391-0.419-0.783-0.587-1.174c-0.167-0.391-0.279-0.642-0.335-0.753
		c-0.278-0.336-0.839-0.895-1.676-1.676c-0.839-0.838-1.229-1.202-1.175-1.091c0.058,0.168,0.896,2.375,2.516,6.622
		c1.62,4.135,2.43,6.314,2.43,6.537c0.057,0.224,0,0.363-0.166,0.419c-0.111,0.168-0.279,0.224-0.504,0.168
		c-0.111-0.111-0.392-0.614-0.838-1.508c-0.393-0.894-1.48-3.214-3.27-6.957c-1.452-3.074-2.205-4.638-2.264-4.694
		c-0.166-0.167-0.195,0-0.084,0.504c0.112,0.447,0.279,1.033,0.504,1.759l0.586,1.509l-0.082,2.095c0,1.341,0.026,2.263,0.082,2.765
		c0.111,0.504,0.364,1.174,0.756,2.013c0.279,0.502,0.445,0.894,0.502,1.173c0.057,0.224,0.084,0.531,0.084,0.922
		c0,0.335-0.027,0.587-0.084,0.755c0,0.224-0.057,0.39-0.168,0.502c-0.11,0.279-0.25,0.447-0.418,0.503
		c-0.225,0.112-0.393,0.112-0.502,0v-0.335c-0.059-0.224-0.086-0.475-0.086-0.755c0-0.558-0.026-0.949-0.084-1.172
		c-0.11-0.224-0.474-0.951-1.09-2.181l-0.586-1.089l-0.084-2.346c-0.056-1.174-0.085-1.9-0.085-2.18
		c-0.11-0.334-0.25-0.782-0.418-1.34c-0.335-0.726-0.587-1.37-0.754-1.928l-0.335-0.67l-0.085,1.004
		c-0.056,0.672-0.112,2.264-0.167,4.778c-0.168,4.471-0.309,7.041-0.42,7.71c0,0.503-0.027,0.839-0.083,1.006
		c-0.056,0.057-0.14,0.111-0.252,0.168c-0.168,0.056-0.306,0-0.418-0.168c-0.112-0.167-0.196-0.614-0.253-1.342
		c-0.055-0.781-0.139-3.156-0.25-7.124c-0.113-2.514-0.196-4.19-0.252-5.029c-0.057-0.67-0.084-1.033-0.084-1.089
		c0-0.055-0.057,0-0.168,0.168c-0.058,0.167-0.111,0.418-0.168,0.754c-0.056,0.39-0.111,0.781-0.168,1.172
		c-0.056,1.006-0.111,1.677-0.166,2.012c-0.111,0.335-0.363,0.922-0.756,1.76c-0.558,1.229-0.895,2.012-1.004,2.346
		c-0.058,0.336-0.086,1.034-0.086,2.096c0,0.838-0.027,1.397-0.082,1.676c-0.058,0.224-0.142,0.476-0.252,0.755
		c-0.224,0.502-0.445,0.838-0.671,1.006c-0.226,0.224-0.446,0.335-0.67,0.335c-0.28,0-0.42-0.084-0.42-0.251
		c0-0.111,0.11-0.392,0.336-0.839l0.418-0.753l-0.084-1.342c-0.11-1.341-0.14-2.264-0.084-2.766
		c0.058-0.502,0.252-1.174,0.587-2.012c0.447-0.894,0.727-1.536,0.84-1.927c0.11-0.28,0.168-1.118,0.168-2.515
		c0.109-1.341,0.109-1.956,0-1.844c-0.113,0.056-0.979,1.9-2.6,5.532c-1.564,3.24-2.542,5.279-2.934,6.118
		c-0.391,0.726-0.67,1.146-0.838,1.257c-0.168,0.056-0.279,0.056-0.335,0c-0.056,0-0.112-0.084-0.167-0.251
		c-0.112-0.168,0-0.67,0.334-1.509c0.336-0.895,1.202-3.186,2.598-6.873l2.097-5.447c-0.112-0.056-0.31,0.139-0.588,0.586
		c-0.336,0.447-0.67,0.977-1.006,1.592c-0.278,0.559-0.503,0.978-0.671,1.257c-0.223,0.336-0.473,0.615-0.754,0.838
		c-1.34,1.173-2.178,2.012-2.515,2.515c-0.446,0.559-0.781,1.229-1.004,2.012c-0.168,0.558-0.42,1.062-0.755,1.508
		c-0.336,0.447-0.699,0.755-1.09,0.922c-0.167,0.076-0.321,0.132-0.46,0.167c-0.383,0.107-0.677,0.079-0.881-0.083
		c-0.179-0.136-0.109-0.346,0.21-0.628c0.089-0.066,0.186-0.136,0.293-0.21c0.335-0.224,0.615-0.56,0.838-1.006
		c0.225-0.392,0.447-0.921,0.67-1.593c0.168-0.782,0.42-1.396,0.755-1.843c0.279-0.503,0.782-1.09,1.508-1.761
		c0.335-0.391,0.67-0.753,1.007-1.089c0.391-0.391,0.613-0.67,0.67-0.838c0.223-0.279,0.56-0.894,1.004-1.843
		c0.393-0.95,0.588-1.481,0.588-1.592c0-0.057-0.336,0.223-1.005,0.837c-0.726,0.615-1.229,1.062-1.51,1.341l-2.766,2.431
		c-2.268,2.097-3.805,3.508-4.609,4.232c-0.231,0.216-0.399,0.369-0.503,0.461c-0.121,0.08-0.231,0.15-0.335,0.209
		c-0.152,0.083-0.264,0.126-0.335,0.126c-0.056,0-0.168-0.085-0.335-0.252c-0.056-0.055-0.085-0.111-0.085-0.167
		c0-0.088,0.099-0.241,0.294-0.461c0.067-0.067,0.137-0.137,0.209-0.21c0.077-0.102,0.231-0.284,0.461-0.544
		c0.748-0.844,2.328-2.533,4.736-5.07l4.442-4.609c0-0.112-0.252-0.029-0.755,0.251c-0.503,0.334-0.949,0.67-1.341,1.006
		c-0.614,0.502-1.089,0.894-1.424,1.173c-0.447,0.224-1.09,0.475-1.928,0.755c-1.062,0.391-1.816,0.726-2.264,1.006
		c-0.446,0.223-1.005,0.67-1.675,1.34c-0.447,0.502-0.782,0.838-1.006,1.006c-0.279,0.168-0.558,0.307-0.838,0.419
		c-0.167,0.083-0.333,0.153-0.502,0.209c-0.258,0.083-0.509,0.126-0.755,0.126c-0.391,0-0.643-0.084-0.753-0.252
		c-0.112-0.167-0.168-0.334-0.168-0.502c0.056-0.112,0.168-0.167,0.336-0.167c0.257,0,0.521-0.056,0.795-0.168
		c0.124-0.042,0.25-0.097,0.377-0.167c0.086-0.057,0.171-0.113,0.251-0.167c0.447-0.392,1.005-0.978,1.677-1.761
		c0.446-0.558,0.866-0.977,1.257-1.257c0.391-0.279,1.09-0.615,2.095-1.006c0.447-0.167,0.894-0.363,1.341-0.586
		c0.447-0.224,0.754-0.391,0.922-0.503c0.279-0.223,0.838-0.698,1.675-1.425c0.782-0.726,1.146-1.117,1.09-1.173
		c-0.056,0-2.179,0.754-6.369,2.263c-3.233,1.188-5.314,1.928-6.245,2.22c-0.05,0.02-0.091,0.033-0.126,0.042
		c-0.104,0.04-0.188,0.068-0.251,0.085c-0.391,0.167-0.67,0.25-0.838,0.25c-0.111,0-0.194-0.028-0.25-0.083
		c-0.112-0.112-0.168-0.224-0.168-0.336c0-0.167,0.056-0.307,0.168-0.419c0.023-0.024,0.317-0.15,0.879-0.377l0.042-0.042
		c0.696-0.328,1.813-0.831,3.352-1.508c4.917-2.18,7.655-3.408,8.214-3.688c0.502-0.223,0.754-0.363,0.754-0.419h-0.335
		c-0.335-0.056-0.95,0.084-1.843,0.419l-1.34,0.419l-2.432,0.084c-0.67,0-1.313,0-1.927,0c-0.56,0.056-0.923,0.083-1.09,0.083
		c-0.112,0.056-0.335,0.14-0.67,0.251c-0.393,0.167-0.755,0.336-1.09,0.503c-0.56,0.224-0.949,0.362-1.174,0.419
		c-0.224,0.056-0.586,0.083-1.09,0.083c-1.117,0-1.76-0.224-1.927-0.67c-0.056-0.224-0.027-0.391,0.083-0.503
		c0.112-0.056,0.335-0.056,0.671,0c0.446,0.112,0.866,0.112,1.257,0c0.447-0.167,1.117-0.447,2.01-0.838l1.677-0.922h2.43
		c1.063-0.055,1.788-0.112,2.18-0.167c0.391-0.056,0.782-0.139,1.173-0.251c0.558-0.223,1.173-0.447,1.843-0.67
		c0.616-0.223,0.949-0.363,1.007-0.419c0.111-0.167-1.733-0.28-5.532-0.336c-2.515-0.111-4.666-0.195-6.454-0.251
		c-1.733-0.112-2.654-0.195-2.767-0.251c-0.167-0.056-0.25-0.14-0.25-0.251c0-0.167,0.111-0.308,0.335-0.419
		c0.056-0.056,0.391-0.112,1.005-0.168c0.671-0.056,1.733-0.084,3.185-0.084c4.19-0.167,7.068-0.28,8.632-0.335l2.264-0.167
		c0.111-0.056-0.168-0.14-0.838-0.251c-0.614-0.112-1.201-0.196-1.76-0.251c-0.838-0.057-1.481-0.14-1.928-0.252
		c-0.502-0.111-1.145-0.362-1.927-0.753c-0.895-0.447-1.593-0.727-2.095-0.838c-0.447-0.056-1.173-0.084-2.18-0.084
		c-0.726,0-1.257-0.028-1.592-0.083c-0.279-0.056-0.56-0.112-0.838-0.168c-0.391-0.167-0.753-0.391-1.089-0.67
		c-0.28-0.224-0.419-0.475-0.419-0.755c0-0.167,0.083-0.279,0.251-0.334c0.112,0,0.308,0.055,0.587,0.167
		c0.503,0.279,0.949,0.447,1.341,0.502c0.335,0.056,0.978,0.028,1.927-0.083c1.006-0.112,1.76-0.112,2.263,0
		c0.447,0.056,1.201,0.307,2.263,0.754c0.837,0.335,1.48,0.559,1.927,0.67c0.502,0.056,1.34,0.112,2.514,0.168
		c0.671,0.056,1.146,0.084,1.425,0.084c0.225,0,0.308-0.056,0.252-0.167c-0.056-0.056-1.398-0.67-4.022-1.844
		c-2.683-1.173-5.197-2.291-7.543-3.352c-0.726-0.279-1.201-0.503-1.425-0.671c-0.223-0.167-0.335-0.308-0.335-0.418
		c0-0.224,0.056-0.336,0.168-0.336c0.167-0.056,0.503-0.028,1.005,0.084c0.838,0.279,3.297,1.172,7.375,2.681l6.034,2.095
		l-0.25-0.334c-0.112-0.112-0.336-0.252-0.671-0.419c-0.335-0.224-0.699-0.419-1.09-0.586c-0.838-0.447-1.451-0.811-1.842-1.089
		c-0.393-0.28-0.923-0.783-1.593-1.509c-0.615-0.671-1.173-1.174-1.677-1.509c-0.447-0.335-1.034-0.615-1.76-0.838
		c-0.67-0.224-1.09-0.391-1.257-0.503c-0.67-0.335-1.173-0.81-1.508-1.425c-0.335-0.615-0.335-1.006,0-1.173
		c0.056-0.112,0.14-0.112,0.251,0c0.111,0,0.279,0.139,0.503,0.419c0.335,0.39,0.67,0.67,1.005,0.838
		c0.335,0.167,0.921,0.362,1.76,0.586c0.895,0.28,1.565,0.559,2.012,0.837c0.392,0.28,1.005,0.811,1.844,1.593
		c0.895,0.838,1.619,1.397,2.179,1.677c0.503,0.279,1.146,0.586,1.928,0.921c0.837,0.336,1.257,0.476,1.257,0.419
		c0-0.056-0.838-0.949-2.515-2.681c-1.675-1.733-3.408-3.548-5.195-5.448c-0.782-0.782-1.369-1.397-1.76-1.843
		c-0.335-0.391-0.503-0.671-0.503-0.838l0.085-0.167c0-0.056,0.027-0.083,0.083-0.083c0.112-0.112,0.224-0.168,0.335-0.168
		c0.111,0.056,0.391,0.279,0.838,0.67c0.56,0.447,2.85,2.487,6.872,6.119c2.012,1.843,3.128,2.849,3.353,3.018
		c0.279,0.167,0.251,0.027-0.084-0.419c-0.279-0.448-0.67-0.95-1.174-1.509c-0.558-0.615-0.95-1.146-1.173-1.592
		c-0.279-0.392-0.586-1.089-0.922-2.096c-0.335-0.837-0.67-1.508-1.005-2.012c-0.336-0.446-0.784-0.921-1.342-1.424
		c-0.335-0.28-0.614-0.531-0.837-0.754c-0.168-0.224-0.336-0.475-0.505-0.754c-0.279-0.615-0.391-1.174-0.333-1.677
		c0-0.503,0.167-0.754,0.502-0.754c0.112,0,0.195,0.056,0.251,0.167c0.056,0.057,0.14,0.308,0.252,0.755
		c0.056,0.279,0.251,0.615,0.586,1.006c0.279,0.334,0.753,0.754,1.425,1.257c0.614,0.503,1.088,0.978,1.425,1.425
		c0.334,0.447,0.642,1.005,0.92,1.676c0.391,1.005,0.728,1.704,1.007,2.096c0.279,0.39,0.783,0.977,1.508,1.759
		c0.392,0.391,0.727,0.726,1.006,1.006c0.278,0.279,0.42,0.391,0.42,0.334c0.056,0-0.783-2.206-2.515-6.621
		c-0.728-1.956-1.313-3.576-1.759-4.861c-0.503-1.286-0.728-1.956-0.671-2.012c0.056-0.112,0.139-0.224,0.251-0.335
		c0.112-0.056,0.251-0.056,0.42,0c0.111,0.057,0.391,0.559,0.837,1.509c0.447,0.95,1.677,3.548,3.689,7.794
		c1.173,2.514,1.787,3.827,1.843,3.939c0.17,0.167,0.196,0,0.084-0.503c-0.111-0.502-0.279-1.089-0.503-1.759l-0.502-1.593V95.24
		c0-1.341-0.057-2.263-0.169-2.766c-0.056-0.502-0.277-1.173-0.67-2.012c-0.279-0.558-0.445-0.949-0.503-1.173
		c-0.056-0.223-0.084-0.531-0.084-0.922c0-0.502,0.058-0.921,0.168-1.257c0.167-0.334,0.362-0.502,0.586-0.502
		c0.28-0.112,0.447-0.112,0.503,0c0.057,0.056,0.057,0.251,0,0.587c-0.111,0.558-0.111,1.006,0,1.34
		c0.112,0.391,0.53,1.229,1.26,2.515l0.502,1.089l0.084,2.347c0.055,1.173,0.11,1.9,0.166,2.179c0,0.336,0.141,0.783,0.42,1.341
		c0.225,0.782,0.476,1.425,0.754,1.929l0.252,0.753l0.084-0.838c0.056-0.559,0.139-2.319,0.252-5.28
		c0.111-3.464,0.195-5.699,0.25-6.705c0.057-1.062,0.141-1.648,0.253-1.759c0.112-0.168,0.223-0.252,0.335-0.252
		c0.109,0.056,0.223,0.167,0.335,0.336c0.056,0.112,0.112,0.586,0.167,1.425c0.058,0.726,0.168,3.128,0.336,7.208
		c0.055,2.569,0.111,4.246,0.167,5.028l0.085,0.838c0,0.056,0.055,0,0.167-0.167c0.056-0.167,0.112-0.419,0.168-0.754
		c0.058-0.335,0.11-0.699,0.167-1.089c0.057-1.007,0.141-1.706,0.252-2.096c0.057-0.335,0.278-0.922,0.67-1.76
		c0.561-1.229,0.895-2.011,1.008-2.347c0.055-0.335,0.082-1.006,0.082-2.012c0.057-0.838,0.084-1.396,0.084-1.676
		c0.057-0.279,0.139-0.559,0.252-0.838c0.168-0.391,0.392-0.698,0.672-0.922c0.223-0.279,0.475-0.419,0.752-0.419
		c0.168,0,0.279,0.084,0.336,0.251c0,0.167-0.11,0.419-0.336,0.755c-0.166,0.334-0.25,0.698-0.25,1.089
		c-0.058,0.335-0.058,1.313,0,2.933l0.084,1.425l-0.756,1.677c-0.391,0.949-0.67,1.731-0.838,2.346
		c-0.109,0.559-0.168,1.37-0.168,2.431v1.508l0.42-0.754c0.223-0.392,1.146-2.292,2.766-5.7c1.398-3.129,2.264-5,2.599-5.615
		c0.335-0.615,0.56-0.949,0.67-1.006c0.226-0.056,0.364-0.028,0.421,0.084c0.11,0.056,0.139,0.251,0.084,0.587
		c-0.058,0.111-0.309,0.838-0.756,2.179c-0.504,1.34-1.089,2.877-1.761,4.609l-2.431,6.537c-0.057,0.056-0.057,0.084,0,0.084
		l0.252-0.252c0.111-0.056,0.279-0.251,0.504-0.586s0.418-0.699,0.587-1.09c0.278-0.615,0.558-1.089,0.838-1.423
		c0.224-0.281,0.782-0.867,1.676-1.761c0.95-0.95,1.563-1.621,1.845-2.011c0.279-0.336,0.529-0.867,0.754-1.593
		c0.111-0.224,0.225-0.475,0.336-0.755c0.11-0.279,0.194-0.475,0.25-0.586c0.336-0.448,0.728-0.811,1.175-1.09
		c0.446-0.279,0.838-0.363,1.173-0.252c0.225,0.056,0.309,0.168,0.252,0.336c0,0.168-0.168,0.335-0.503,0.502
		c-0.335,0.28-0.614,0.615-0.839,1.006c-0.223,0.391-0.475,1.006-0.754,1.844c-0.278,0.838-0.531,1.48-0.754,1.928
		c-0.336,0.447-0.84,1.006-1.51,1.676c-0.279,0.223-0.587,0.502-0.922,0.838c-0.225,0.335-0.419,0.587-0.587,0.754
		c-0.224,0.335-0.56,1.005-1.005,2.011c-0.503,1.006-0.729,1.537-0.672,1.592c0.057,0.056,1.453-1.173,4.191-3.688
		c2.683-2.459,4.469-4.051,5.362-4.778c0.838-0.782,1.313-1.173,1.425-1.173c0.168,0,0.279,0.056,0.336,0.168
		c0.111,0.111,0.168,0.223,0.168,0.334s-0.225,0.391-0.67,0.838c-0.392,0.446-1.063,1.173-2.013,2.179
		c-4.916,5.084-7.375,7.683-7.375,7.794c-0.058,0.167,0.14,0.111,0.586-0.168c0.447-0.279,0.951-0.67,1.509-1.173
		c0.504-0.503,0.979-0.838,1.426-1.005c0.392-0.28,1.006-0.56,1.844-0.838c1.063-0.391,1.844-0.727,2.347-1.006
		c0.447-0.28,1.005-0.754,1.677-1.425c0.446-0.447,0.782-0.754,1.006-0.921c0.224-0.168,0.477-0.308,0.754-0.419
		c0.447-0.224,0.867-0.336,1.258-0.336c0.336,0,0.587,0.083,0.754,0.251c0.337,0.391,0.168,0.642-0.502,0.754
		c-0.391,0.056-0.838,0.279-1.34,0.67c-0.447,0.392-0.979,0.979-1.594,1.76c-0.278,0.391-0.67,0.727-1.174,1.006
		c-0.504,0.336-1.201,0.699-2.096,1.089c-0.447,0.167-0.865,0.336-1.258,0.503c-0.446,0.224-0.754,0.391-0.922,0.502
		c-0.277,0.224-0.838,0.699-1.676,1.425c-0.783,0.726-1.146,1.117-1.09,1.173c0,0.056,2.096-0.671,6.286-2.179
		c3.966-1.453,6.229-2.264,6.787-2.43c0.392-0.168,0.671-0.252,0.839-0.252c0.057,0,0.112,0.029,0.168,0.084
		c0.111,0.112,0.195,0.224,0.25,0.334c0,0.168-0.082,0.308-0.25,0.419c-0.111,0.112-3.939,1.844-11.482,5.196
		c-1.006,0.392-1.563,0.643-1.676,0.755c-0.11,0.055-0.057,0.111,0.168,0.167c0.334,0,0.979-0.167,1.928-0.503l1.425-0.502h2.433
		c1.674,0,2.652-0.027,2.934-0.084c0.332-0.055,0.92-0.279,1.759-0.67c0.56-0.279,0.978-0.447,1.258-0.502
		c0.224-0.056,0.558-0.084,1.005-0.084c0.614,0,1.118,0.084,1.51,0.252c0.334,0.167,0.502,0.419,0.502,0.754
		c0,0.055-0.084,0.084-0.25,0.084c-0.17,0.055-0.476,0.083-0.922,0.083l-1.091-0.083l-3.521,1.843h-2.432
		c-1.34,0.057-2.263,0.14-2.765,0.252c-0.446,0.111-1.509,0.502-3.187,1.172c-0.111,0.056-0.194,0.085-0.252,0.085l-0.082,0.083
		l1.676,0.167c1.063,0,2.318,0.028,3.771,0.083c4.304,0.168,6.929,0.251,7.88,0.251c0.948,0.112,1.479,0.196,1.592,0.252
		c0.111,0.167,0.168,0.279,0.168,0.335c0,0.055-0.057,0.167-0.168,0.335c-0.112,0.056-0.67,0.139-1.678,0.251
		c-1.005,0.056-3.604,0.14-7.794,0.251c-3.854,0.112-5.782,0.196-5.782,0.252c-0.111,0.057,0.168,0.14,0.838,0.252
		c0.615,0.111,1.258,0.196,1.929,0.251c0.726,0.056,1.313,0.14,1.76,0.252c0.503,0.111,1.201,0.391,2.095,0.837
		c0.84,0.391,1.48,0.643,1.928,0.755c0.504,0.056,1.229,0.083,2.181,0.083c1.173,0,1.956,0.083,2.347,0.251
		c0.393,0.112,0.756,0.336,1.09,0.671c0.336,0.28,0.502,0.531,0.502,0.754c0,0.168-0.082,0.279-0.252,0.335
		c-0.166,0-0.445-0.084-0.838-0.252c-0.334-0.224-0.754-0.363-1.257-0.419c-0.446,0-1.229,0.057-2.347,0.168
		c-0.727,0.055-1.313,0.027-1.76-0.083c-0.446-0.056-1.116-0.28-2.014-0.671c-0.837-0.335-1.479-0.559-1.927-0.671
		c-0.502-0.111-1.34-0.195-2.515-0.251c-1.229-0.056-1.814-0.027-1.76,0.084l1.844,0.921c1.285,0.559,2.795,1.229,4.525,2.012
		c1.678,0.726,3.186,1.396,4.526,2.011C181.794,120.638,182.254,120.848,182.59,121.012z M157.32,117.198l-0.25-0.083
		c0-0.112,0.558-0.167,1.675-0.167c1.118,0,1.762,0.055,1.929,0.167c0.225,0.055-0.084,0.111-0.922,0.167
		c-0.839,0.057-1.453,0.057-1.846,0C157.628,117.226,157.432,117.198,157.32,117.198z M157.152,116.444
		c-0.166,0.112-0.361,0.251-0.586,0.418l-0.418,0.336l0.334-0.083c0.113,0,0.195,0,0.252,0h0.084c-0.057,0.055,0,0.14,0.168,0.251
		c0.111,0.056,0.25,0.167,0.418,0.334c0.561,0.336,1.035,0.503,1.426,0.503s0.838-0.167,1.34-0.503
		c0.225-0.167,0.42-0.279,0.587-0.334c0.226-0.112,0.364-0.168,0.42-0.168h0.167c0-0.056-0.057-0.14-0.167-0.251
		c-0.056-0.056-0.141-0.14-0.252-0.252c-0.168-0.112-0.335-0.195-0.503-0.251c-0.279-0.167-0.475-0.251-0.587-0.251
		s-0.308,0.056-0.587,0.167c-0.166,0.056-0.335,0.084-0.503,0.084c-0.11,0-0.25-0.028-0.419-0.084l-0.42-0.167
		C157.684,116.192,157.432,116.276,157.152,116.444z M156.4,116.779c0.391-0.335,0.67-0.559,0.836-0.67
		c0.279-0.112,0.587-0.14,0.924-0.084c0.223,0.056,0.475,0.084,0.753,0.084c0.56-0.112,0.95-0.112,1.174,0
		c0.226,0,0.503,0.167,0.838,0.502c0.169,0.167,0.335,0.308,0.502,0.419l0.169,0.167c-0.057,0.056-0.195,0.112-0.419,0.168
		c-0.112,0.056-0.252,0.139-0.42,0.251c-0.167,0.056-0.308,0.14-0.418,0.251c-0.11,0.168-0.252,0.28-0.419,0.336
		c-0.168,0.111-0.279,0.195-0.336,0.251c-0.167,0-0.252,0.027-0.252,0.083c0.059,0.056,0.195,0.167,0.42,0.335
		c0.335,0.224,0.503,0.392,0.503,0.503c0,0.057-0.168,0-0.503-0.167c-0.335-0.28-0.727-0.391-1.174-0.336
		c-0.447,0.056-0.811,0.252-1.09,0.587l-0.336,0.334l0.252-0.419c0.057-0.111,0.141-0.223,0.252-0.334
		c0.111-0.112,0.223-0.224,0.336-0.336l0.42-0.251h-0.42c-0.113-0.056-0.225-0.14-0.336-0.251c-0.168-0.056-0.309-0.167-0.42-0.336
		c-0.334-0.279-0.529-0.418-0.586-0.418c-0.055,0-0.194-0.028-0.42-0.083l-0.334-0.168L156.4,116.779z M154.053,110.325l0.084-0.251
		c0.166-0.167,0.166-0.251,0-0.251c-0.166,0.056-0.336,0.139-0.504,0.251c-0.223,0.167-0.335,0.307-0.335,0.419
		c0,0.056,0.112,0.168,0.335,0.336c0.225,0.111,0.364,0.139,0.42,0.083c0.055,0,0.055-0.112,0-0.336
		C153.997,110.465,153.997,110.381,154.053,110.325z M160.925,113.846c-0.11-0.168-0.139-0.28-0.084-0.336
		c0.058,0,0.168,0.084,0.336,0.252c0.167,0.111,0.25,0.307,0.25,0.586c-0.055,0.224-0.167,0.392-0.333,0.504
		c-0.225,0.111-1.007,0.167-2.349,0.167c-1.396,0-2.179-0.057-2.345-0.167c-0.113-0.112-0.17-0.28-0.17-0.504
		c0-0.279,0.057-0.475,0.17-0.586c0.166-0.168,0.277-0.252,0.334-0.252s0.057,0.029,0,0.084c0,0.056-0.027,0.14-0.084,0.252
		c-0.111,0.055-0.168,0.111-0.168,0.167c0,0.055,0,0.139,0,0.251c0.113,0.112,0.279,0.195,0.504,0.251
		c0.166,0.056,0.308,0,0.418-0.168c0.111-0.111,0.195-0.139,0.252-0.083c0.057,0,0.14,0.056,0.25,0.168
		c0.225,0.279,0.506,0.419,0.839,0.419c0.337,0,0.646-0.14,0.923-0.419c0.111-0.112,0.196-0.195,0.252-0.251
		c0.055,0,0.109,0.056,0.167,0.167c0.112,0.168,0.279,0.224,0.503,0.168c0.225-0.056,0.362-0.139,0.419-0.251
		c0.112-0.112,0.14-0.196,0.085-0.251C161.094,113.958,161.036,113.901,160.925,113.846z M160.59,110.913
		c0.167,0,0.362,0.055,0.587,0.167c0.949,0.502,1.954,0.558,3.017,0.167c0.505-0.167,0.755-0.223,0.755-0.167
		c0,0.056-0.224,0.167-0.671,0.335c-0.445,0.223-0.865,0.363-1.256,0.418c-0.447,0.057-0.84,0.029-1.174-0.083
		c-0.279-0.055-0.588-0.195-0.923-0.418c-0.278-0.168-0.446-0.307-0.503-0.419C160.422,110.856,160.479,110.856,160.59,110.913z
		 M161.427,111.08c-0.333-0.167-0.528-0.308-0.586-0.419c-0.055-0.056,0-0.168,0.168-0.336c0.168-0.167,0.392-0.334,0.671-0.502
		c0.391-0.168,0.811-0.251,1.258-0.251c0.445,0.055,0.865,0.167,1.256,0.335c0.168,0.112,0.336,0.223,0.505,0.335l0.25,0.168
		c0,0.167-0.224,0.334-0.671,0.502c-0.445,0.167-0.865,0.251-1.256,0.251l-0.84,0.084l-0.166-0.418
		c-0.057-0.168-0.084-0.308-0.084-0.419c0-0.112,0.027-0.224,0.084-0.336c0-0.055,0.027-0.112,0.084-0.167
		c0-0.056-0.029-0.083-0.084-0.083c-0.057,0-0.225,0.083-0.504,0.251c-0.225,0.224-0.335,0.363-0.335,0.419
		c0,0.056,0.027,0.112,0.083,0.168c0.112,0.056,0.225,0.111,0.336,0.168l0.42,0.334C162.016,111.22,161.818,111.191,161.427,111.08z
		 M160.003,110.325c0-0.111,0.084-0.196,0.252-0.251c0.224-0.055,0.586-0.224,1.089-0.502c0.28-0.224,0.504-0.363,0.672-0.419
		c0.224-0.056,0.475-0.084,0.754-0.084c0.225,0,0.446,0.028,0.672,0.084c0.277,0,0.475,0.056,0.586,0.167
		c0.334,0.057,0.697,0.252,1.089,0.587c0.392,0.28,0.53,0.446,0.42,0.503l-0.168-0.085c-0.11-0.055-0.224-0.139-0.335-0.251
		c-0.335-0.279-0.672-0.475-1.006-0.587c-0.336-0.111-0.728-0.168-1.174-0.168s-0.754,0.029-0.922,0.085
		c-0.111,0.055-0.363,0.223-0.755,0.502c-0.225,0.167-0.446,0.308-0.67,0.418c-0.168,0.112-0.278,0.168-0.337,0.168
		C160.003,110.493,159.947,110.438,160.003,110.325z M152.879,111.248c-0.168-0.112-0.225-0.167-0.168-0.167
		s0.252,0.055,0.587,0.167c1.118,0.391,2.151,0.363,3.103-0.084c0.502-0.279,0.754-0.391,0.754-0.334
		c0.056,0.056,0,0.139-0.168,0.251c-0.168,0.167-0.362,0.307-0.586,0.419c-0.446,0.279-1.034,0.392-1.76,0.334
		C153.857,111.723,153.271,111.527,152.879,111.248z M152.628,110.493l0.251-0.168c0.168-0.167,0.419-0.334,0.754-0.502
		c0.393-0.224,0.895-0.28,1.51-0.168c0.56,0.056,1.006,0.251,1.342,0.586c0.224,0.224,0.334,0.364,0.334,0.419
		c-0.057,0.056-0.194,0.139-0.418,0.251c-0.336,0.167-0.561,0.223-0.672,0.167c-0.055,0,0.028-0.084,0.252-0.251
		c0.278-0.112,0.42-0.224,0.42-0.336c-0.057-0.112-0.196-0.251-0.42-0.419c-0.224-0.167-0.392-0.251-0.502-0.251
		c0,0.056,0.027,0.167,0.084,0.334c0.111,0.28,0.111,0.503,0,0.671c-0.17,0.223-0.393,0.334-0.672,0.334
		c-0.279,0.056-0.643,0.028-1.09-0.083c-0.447-0.112-0.754-0.251-0.922-0.419L152.628,110.493z M152.545,110.158
		c-0.113,0.112-0.225,0.195-0.337,0.252c-0.056,0.055-0.11,0.055-0.167,0c-0.057-0.057,0.084-0.224,0.418-0.503
		c0.336-0.335,0.672-0.531,1.008-0.587c0.111-0.056,0.307-0.111,0.586-0.167c0.223-0.056,0.445-0.084,0.67-0.084
		c0.336,0,0.588,0.028,0.756,0.084c0.166,0.056,0.418,0.196,0.754,0.419c0.502,0.335,0.865,0.53,1.09,0.586
		c0.109,0,0.166,0.029,0.166,0.084c0.058,0.056,0.058,0.111,0,0.168c-0.057,0-0.166,0-0.334,0c-0.112-0.057-0.309-0.196-0.588-0.419
		c-0.446-0.28-0.838-0.475-1.174-0.586c-0.277-0.112-0.67-0.141-1.173-0.085c-0.392,0.057-0.696,0.14-0.922,0.252
		C153.074,109.683,152.823,109.879,152.545,110.158z M159.165,101.776c-1.117-0.056-1.983,0-2.599,0.168
		c-1.621,0.336-3.101,1.034-4.441,2.095c-1.342,1.006-2.347,2.264-3.018,3.771c-0.335,0.727-0.558,1.397-0.67,2.012
		c-0.168,0.67-0.251,1.424-0.251,2.263c0,1.676,0.418,3.268,1.257,4.776c0.838,1.51,2.012,2.738,3.52,3.688
		c0.895,0.615,1.816,1.062,2.766,1.34c0.896,0.224,1.899,0.335,3.018,0.335c1.342,0,2.6-0.195,3.771-0.586
		c1.229-0.447,2.375-1.117,3.438-2.011c0.67-0.559,1.257-1.286,1.76-2.179c0.561-0.838,1.006-1.704,1.342-2.598
		c0.168-0.615,0.25-1.425,0.25-2.431c0.057-1.006,0-1.844-0.166-2.514c-0.392-1.788-1.259-3.408-2.599-4.861
		c-1.342-1.397-2.935-2.374-4.776-2.934C161.148,101.944,160.282,101.833,159.165,101.776z M159.668,108.733
		c0.335-0.447,0.922-0.782,1.759-1.006c0.394-0.112,0.896-0.14,1.511-0.084c0.504,0.057,0.949,0.168,1.34,0.336
		c0.336,0.167,0.699,0.419,1.091,0.754c0.391,0.335,0.587,0.53,0.587,0.586c-0.057,0-0.335-0.139-0.839-0.418
		c-1.564-0.95-3.017-1.09-4.358-0.419c-0.558,0.28-0.922,0.587-1.089,0.923c-0.168,0.279-0.251,0.81-0.251,1.592
		c0,0.503,0.027,0.837,0.083,1.006c0.058,0.224,0.168,0.503,0.335,0.837c0.225,0.281,0.335,0.504,0.335,0.671
		s-0.083,0.196-0.25,0.084c-0.168-0.112-0.336-0.503-0.503-1.173c-0.169-0.671-0.252-1.286-0.252-1.844
		C159.165,109.738,159.332,109.124,159.668,108.733z M155.393,107.643c0.562,0.057,1.092,0.196,1.594,0.419
		c0.502,0.224,0.838,0.448,1.007,0.671c0.168,0.224,0.278,0.586,0.334,1.09c0.112,0.447,0.14,0.894,0.086,1.34
		c-0.06,0.447-0.169,0.951-0.337,1.508c-0.11,0.448-0.225,0.727-0.335,0.838c-0.058,0.112-0.167,0.14-0.337,0.084
		c-0.109-0.112-0.055-0.279,0.17-0.503c0.333-0.447,0.529-1.034,0.587-1.76c0.056-0.783-0.029-1.425-0.254-1.927
		c-0.11-0.224-0.25-0.391-0.419-0.503c-0.11-0.111-0.334-0.251-0.67-0.419c-1.284-0.67-2.737-0.53-4.358,0.419
		c-0.502,0.28-0.78,0.418-0.838,0.418l0.336-0.334c0.224-0.28,0.528-0.531,0.922-0.755c0.336-0.167,0.699-0.334,1.091-0.502
		C154.361,107.615,154.835,107.588,155.393,107.643z M163.941,110.829c0.224-0.168,0.336-0.28,0.336-0.336
		c0-0.112-0.112-0.251-0.336-0.419c-0.168-0.112-0.334-0.195-0.502-0.251c-0.111,0-0.111,0.083,0,0.251
		c0.056,0,0.084,0.083,0.084,0.251c0,0.056,0,0.14,0,0.251v0.336C163.523,110.968,163.663,110.94,163.941,110.829z"/>
	<path fill="#FBBE4B" d="M164.027,86.858c0.166,0,0.25,0.028,0.25,0.084c-0.057,0.111-0.168,0.279-0.336,0.503
		c-0.168,0.335-0.278,0.782-0.334,1.341c-0.058,0.559-0.027,1.257,0.082,2.095c0.057,0.727,0.057,1.341,0,1.844
		c-0.109,0.446-0.361,1.173-0.754,2.179c-0.393,0.838-0.643,1.537-0.754,2.095c-0.111,0.502-0.195,1.508-0.25,3.017
		c0,0.894-0.029,1.425-0.086,1.593c-0.056,0.167-0.14,0.251-0.251,0.251c-0.169-0.056-0.252-0.168-0.252-0.335
		c0.056-0.224,0.112-1.089,0.168-2.598c0.058-1.006,0.112-1.676,0.167-2.012c0-0.335,0.086-0.643,0.254-0.921
		c0.166-0.447,0.223-0.699,0.166-0.754c-0.056,0-0.111,0.084-0.166,0.251c-0.113,0.167-0.195,0.336-0.254,0.503
		c-0.167,0.391-0.307,0.726-0.419,1.006c0,0.279-0.028,0.781-0.083,1.508c-0.111,0.95-0.225,1.704-0.336,2.264
		c-0.111,0.558-0.279,0.837-0.502,0.837c-0.111,0-0.169-0.056-0.169-0.167c0-0.112,0.085-0.419,0.252-0.922
		c0.056-0.224,0.085-0.475,0.085-0.754c0.11-0.335,0.167-0.559,0.167-0.67c0-0.782,0.056-1.48,0.167-2.095
		c0.168-0.615,0.446-1.313,0.838-2.095c0.504-1.173,0.811-1.984,0.924-2.431c0.11-0.502,0.166-1.257,0.166-2.263
		c0-0.615,0-1.062,0-1.341c0-0.28,0.058-0.531,0.168-0.755c0.168-0.279,0.363-0.558,0.588-0.838
		C163.746,86.999,163.915,86.858,164.027,86.858z M168.971,88.2c0,0.111,0,0.195,0,0.251c0,0.056-0.168,0.643-0.503,1.76
		c-0.446,1.118-0.948,2.375-1.508,3.771l-2.683,6.956c-0.393,1.118-0.643,1.676-0.754,1.676c-0.168,0-0.195-0.196-0.084-0.586
		c0.11-0.448,0.418-1.314,0.92-2.599c0.729-1.844,1.091-2.793,1.091-2.85c-0.056-0.056-0.53,0.894-1.423,2.85
		c-0.504,1.006-0.867,1.704-1.092,2.095c-0.279,0.447-0.447,0.67-0.502,0.67c0-0.055-0.027-0.111-0.084-0.167
		c-0.057,0-0.084-0.029-0.084-0.084c0-0.056,0.502-1.172,1.508-3.353l2.934-6.035c0.781-1.788,1.314-2.989,1.594-3.604
		c0.279-0.558,0.475-0.838,0.588-0.838L168.971,88.2z M168.384,97.167c0.728-0.67,1.257-1.257,1.595-1.759
		c0.334-0.502,0.642-1.146,0.92-1.928c0.279-0.67,0.56-1.173,0.838-1.508c0.225-0.391,0.533-0.671,0.924-0.838
		c0.279-0.168,0.529-0.252,0.754-0.252c0.168-0.056,0.251-0.028,0.251,0.084l-0.083,0.168c-0.111,0.056-0.252,0.139-0.42,0.251
		c-0.335,0.224-0.614,0.531-0.838,0.922c-0.225,0.447-0.446,1.006-0.672,1.676c-0.277,0.95-0.529,1.621-0.754,2.012
		c-0.278,0.391-0.811,0.977-1.592,1.76c-0.839,0.838-1.369,1.453-1.593,1.844c-0.278,0.391-0.782,1.37-1.509,2.934
		c-0.225,0.559-0.42,0.922-0.586,1.089c-0.169,0.168-0.309,0.195-0.42,0.084c-0.111-0.112,0-0.418,0.336-0.922
		c0.279-0.447,0.613-1.146,1.006-2.096c0.277-0.558,0.503-0.977,0.67-1.257c0.168-0.335,0.42-0.67,0.753-1.006
		c0.392-0.447,0.56-0.67,0.504-0.67c-0.112,0-0.419,0.251-0.922,0.754c-0.392,0.391-0.81,1.062-1.257,2.011
		c-0.335,0.615-0.699,1.201-1.09,1.761c-0.393,0.558-0.643,0.837-0.754,0.837c-0.057,0-0.141-0.027-0.252-0.084
		c-0.057-0.055-0.057-0.139,0-0.251c0.057-0.111,0.195-0.307,0.418-0.587c0.113-0.167,0.309-0.446,0.588-0.837
		c0.224-0.391,0.42-0.754,0.586-1.089c0.447-0.838,0.813-1.425,1.091-1.76C167.1,98.229,167.602,97.781,168.384,97.167z
		 M177.604,93.982c0,0.055-0.278,0.391-0.838,1.006c-0.559,0.502-1.761,1.732-3.604,3.688c-2.849,2.96-4.608,4.776-5.28,5.447
		c-0.67,0.727-1.031,1.034-1.089,0.922c-0.056-0.112,0.084-0.363,0.419-0.755c0.277-0.334,0.811-0.921,1.592-1.759
		c1.454-1.509,2.067-2.208,1.846-2.095c-0.112,0.167-0.896,0.866-2.348,2.095c-0.839,0.782-1.425,1.285-1.76,1.508
		c-0.281,0.224-0.447,0.308-0.504,0.251c-0.057-0.055-0.083-0.111-0.083-0.167c-0.058-0.056-0.058-0.084,0-0.084l3.604-3.353
		c4.246-3.854,6.705-6.062,7.375-6.621c0.168-0.167,0.309-0.251,0.418-0.251C177.52,93.759,177.604,93.815,177.604,93.982z
		 M180.621,98.172c-0.057,0-0.141,0.028-0.251,0.085c-0.447,0.056-0.866,0.223-1.257,0.502c-0.338,0.335-0.813,0.866-1.426,1.593
		c-0.504,0.615-1.006,1.089-1.508,1.424c-0.505,0.28-1.203,0.615-2.097,1.006c-0.838,0.28-1.51,0.587-2.013,0.922
		c-0.446,0.335-1.032,0.838-1.76,1.508c-0.838,0.727-1.396,1.229-1.677,1.509c-0.28,0.168-0.475,0.195-0.587,0.083
		c-0.056-0.167-0.056-0.279,0-0.334c0.057-0.112,0.252-0.28,0.587-0.503c0.447-0.335,1.062-0.866,1.845-1.592
		c0.391-0.336,0.754-0.643,1.09-0.922c0.334-0.279,0.613-0.475,0.838-0.586c0.559-0.28,0.727-0.391,0.502-0.335
		c-0.727,0.167-1.676,0.755-2.85,1.759c-0.613,0.504-1.146,0.895-1.593,1.174c-0.504,0.335-0.837,0.475-1.006,0.419
		c-0.278-0.224-0.026-0.531,0.755-0.922c0.225-0.112,0.502-0.279,0.84-0.503c0.334-0.279,0.611-0.503,0.836-0.67
		c0.614-0.502,1.117-0.894,1.51-1.174c0.447-0.224,1.09-0.475,1.928-0.754c1.006-0.391,1.761-0.727,2.264-1.006
		c0.502-0.279,1.006-0.67,1.51-1.174c0.502-0.558,0.893-0.949,1.172-1.173c0.279-0.224,0.586-0.391,0.922-0.503
		c0.279-0.111,0.615-0.167,1.006-0.167c0.336,0,0.504,0.055,0.504,0.167C180.762,98.062,180.732,98.117,180.621,98.172z
		 M144.582,91.133c0.056,0.167,0.111,0.334,0.168,0.502c0.055,0.168,0.111,0.28,0.167,0.336c0.335,0.502,0.978,1.117,1.928,1.844
		c0.558,0.447,1.004,0.894,1.34,1.341c0.279,0.447,0.643,1.173,1.088,2.179c0.391,0.837,0.699,1.397,0.923,1.676
		c0.167,0.336,0.753,1.006,1.759,2.012c0.447,0.447,0.811,0.838,1.09,1.173c0.278,0.336,0.42,0.531,0.42,0.587
		c0,0.056,0,0.112,0,0.167c-0.057,0.056-0.113,0.083-0.169,0.083c-0.056,0.057-0.112,0.057-0.167,0
		c-0.111-0.055-0.195-0.139-0.252-0.251c-0.168-0.224-0.754-0.838-1.76-1.844c-0.504-0.502-0.894-0.922-1.173-1.257
		c-0.224-0.334-0.419-0.67-0.586-1.004c-0.168-0.224-0.252-0.392-0.252-0.504c-0.112-0.055-0.139-0.027-0.083,0.085
		c0.167,0.782,0.726,1.704,1.675,2.765c0.503,0.503,0.921,1.034,1.257,1.592c0.393,0.559,0.559,0.894,0.502,1.006
		c-0.109,0.168-0.223,0.195-0.334,0.084c-0.111-0.112-0.279-0.335-0.504-0.671c-0.11-0.224-0.279-0.502-0.502-0.838
		c-0.279-0.334-0.53-0.615-0.755-0.837c-0.501-0.615-0.893-1.146-1.173-1.592c-0.279-0.447-0.614-1.118-1.005-2.012
		c-0.336-0.95-0.67-1.676-1.007-2.179c-0.333-0.559-0.837-1.118-1.508-1.676c-0.614-0.56-1.033-1.062-1.257-1.509
		c-0.168-0.335-0.251-0.67-0.251-1.006c-0.056-0.335,0-0.559,0.168-0.67c0.056-0.057,0.083-0.057,0.083,0
		C144.47,90.77,144.526,90.91,144.582,91.133z M137.96,98.508c0.224,0.168,0.391,0.279,0.503,0.335
		c0.167,0.112,0.447,0.223,0.838,0.335c0.335,0.168,0.699,0.279,1.09,0.335c0.391,0.167,0.781,0.307,1.172,0.419
		c0.336,0.167,0.559,0.279,0.671,0.335c0.167,0.055,0.418,0.223,0.753,0.503c0.336,0.334,0.699,0.67,1.09,1.004
		c0.726,0.783,1.341,1.286,1.843,1.51c0.447,0.334,1.286,0.753,2.515,1.257c0.446,0.167,0.866,0.362,1.257,0.586
		c0.391,0.168,0.587,0.28,0.587,0.336c0.056,0,0.083,0.028,0.083,0.083c-0.056,0.112-0.11,0.167-0.167,0.167
		c-0.056,0.112-0.14,0.14-0.252,0.084c-0.112,0-0.335-0.112-0.671-0.335c-0.558-0.279-1.145-0.531-1.759-0.755
		c-0.728-0.334-1.314-0.615-1.761-0.838c-0.391-0.224-0.754-0.475-1.089-0.754c-0.168-0.167-0.279-0.279-0.335-0.335h-0.085
		c0.112,0.28,0.393,0.587,0.838,0.922c0.391,0.335,0.782,0.586,1.173,0.754c0.951,0.446,1.592,0.782,1.929,1.006
		c0.335,0.167,0.643,0.363,0.921,0.586c0.225,0.167,0.364,0.307,0.419,0.419c0.056,0.055,0.056,0.139,0,0.251
		c-0.055,0.112-0.14,0.14-0.252,0.083c-0.055,0-0.25-0.139-0.586-0.419c-0.167-0.167-0.475-0.363-0.922-0.586
		c-0.446-0.224-0.837-0.448-1.173-0.671c-0.727-0.334-1.229-0.615-1.509-0.838c-0.333-0.223-0.893-0.726-1.675-1.508
		c-0.838-0.838-1.454-1.425-1.845-1.76c-0.391-0.223-0.977-0.474-1.759-0.754c-0.56-0.224-1.034-0.419-1.425-0.587
		c-0.391-0.279-0.699-0.558-0.921-0.838c-0.336-0.447-0.503-0.81-0.503-1.089c0-0.224,0.195-0.139,0.587,0.251
		C137.654,98.172,137.793,98.341,137.96,98.508z M143.409,96.497l5.196,4.778c1.566,1.452,2.459,2.263,2.683,2.43
		c0.168,0.167,0.278,0.28,0.334,0.335c0,0.056,0,0.112,0,0.167c-0.056,0.112-0.11,0.168-0.166,0.168l-0.252-0.168
		c-0.167-0.112-0.839-0.698-2.012-1.759c-1.341-1.173-2.095-1.844-2.262-2.012c-0.168-0.167-0.112-0.056,0.167,0.336
		c0.335,0.334,1.09,1.116,2.264,2.346c0.67,0.727,1.09,1.202,1.257,1.425c0.224,0.279,0.278,0.419,0.167,0.419
		c-0.111,0.056-0.529-0.279-1.257-1.006c-0.727-0.727-2.542-2.569-5.447-5.532c-1.956-2.011-3.129-3.269-3.521-3.772
		c-0.391-0.446-0.558-0.698-0.503-0.753c0.057-0.112,0.279-0.028,0.67,0.251C141.062,94.485,141.955,95.267,143.409,96.497z
		 M153.971,86.858c0,0.055-0.029,0.224-0.086,0.503c-0.111,0.335-0.084,0.753,0.086,1.257c0.166,0.502,0.445,1.117,0.838,1.843
		c0.445,0.782,0.726,1.397,0.836,1.844c0.112,0.503,0.168,1.285,0.168,2.346c0,0.951,0.058,1.706,0.168,2.263
		c0.111,0.503,0.392,1.313,0.838,2.431c0.392,1.006,0.613,1.648,0.671,1.928l0.085,0.251c-0.059,0.055-0.143,0.055-0.252,0
		c-0.112,0-0.225-0.056-0.336-0.167c-0.057-0.112-0.141-0.335-0.252-0.671c-0.168-0.615-0.446-1.34-0.838-2.179
		c-0.168-0.559-0.308-0.978-0.418-1.257c-0.059-0.28-0.112-0.671-0.168-1.174l-0.084-1.089l-0.084,0.755
		c-0.056,0.502-0.027,0.977,0.084,1.423c0.057,0.448,0.193,0.979,0.418,1.593c0.226,0.503,0.393,0.978,0.504,1.425
		c0.11,0.502,0.166,0.921,0.166,1.257c0,0.167-0.026,0.279-0.082,0.334c0,0.057-0.057,0.084-0.168,0.084
		c-0.11,0-0.225-0.112-0.336-0.335c-0.055-0.167-0.084-0.447-0.084-0.838c0-0.111-0.026-0.363-0.082-0.753
		c-0.112-0.336-0.252-0.727-0.42-1.174l-0.502-1.425v-5.364l-0.67-1.342c-0.338-0.614-0.533-1.033-0.588-1.257
		c-0.111-0.279-0.168-0.586-0.168-0.921c0-0.447,0.083-0.838,0.252-1.174c0.111-0.335,0.223-0.502,0.334-0.502
		C153.857,86.775,153.912,86.803,153.971,86.858z M158.913,86.271c0.058,0.112,0.085,0.335,0.085,0.671
		c0.111,0.503,0.193,2.681,0.25,6.537c0.169,3.968,0.252,6.286,0.252,6.957c0.057,0.502,0.084,0.782,0.084,0.838
		c-0.057,0.112-0.111,0.167-0.167,0.167c-0.112,0-0.196-0.055-0.252-0.167c0-0.112-0.028-0.392-0.083-0.838
		c-0.057-0.726-0.084-1.537-0.084-2.431c-0.059-0.894-0.085-1.563-0.085-2.011c-0.056-0.224-0.11-0.251-0.168-0.084
		c0,0.224-0.027,0.754-0.083,1.593c-0.055,1.676-0.111,2.766-0.167,3.27c-0.056,0.446-0.142,0.67-0.252,0.67
		c-0.056,0-0.083-0.196-0.083-0.587c-0.057-0.391-0.057-1.37,0-2.933c0.056-2.682,0.139-5.281,0.252-7.794
		c0.109-2.459,0.195-3.744,0.25-3.856C158.718,86.16,158.803,86.16,158.913,86.271z M149.274,90.462
		c-0.391-1.005-0.614-1.62-0.67-1.843c-0.055-0.28,0.029-0.448,0.251-0.504l0.755,1.761c1.731,3.52,3.1,6.397,4.106,8.632
		c1.063,2.291,1.565,3.464,1.511,3.521c0,0.056-0.027,0.111-0.086,0.167h-0.082c-0.058,0-0.168-0.167-0.336-0.502
		c-0.226-0.447-0.476-0.921-0.754-1.424c-1.119-2.515-1.703-3.717-1.762-3.604c0,0.056,0.363,1.006,1.09,2.85
		c0.28,0.782,0.503,1.453,0.672,2.011c0.168,0.559,0.25,0.866,0.25,0.922c-0.056,0.111-0.111,0.167-0.167,0.167
		s-0.11-0.056-0.168-0.167c-0.168-0.448-0.893-2.348-2.179-5.7C150.364,93.396,149.554,91.3,149.274,90.462z M155.393,107.643
		c-0.558-0.055-1.031-0.028-1.422,0.084c-0.393,0.168-0.756,0.335-1.092,0.502c-0.393,0.224-0.697,0.475-0.922,0.755l-0.336,0.334
		c0.059,0,0.336-0.139,0.838-0.418c1.621-0.95,3.074-1.09,4.359-0.419c0.334,0.168,0.559,0.308,0.67,0.419
		c0.168,0.112,0.308,0.28,0.418,0.503c0.225,0.502,0.31,1.145,0.254,1.927c-0.057,0.726-0.254,1.313-0.588,1.76
		c-0.225,0.224-0.278,0.391-0.168,0.503c0.168,0.056,0.279,0.028,0.336-0.084c0.111-0.111,0.225-0.39,0.335-0.838
		c0.168-0.558,0.278-1.061,0.337-1.508c0.054-0.447,0.027-0.894-0.086-1.34c-0.057-0.504-0.166-0.866-0.334-1.09
		c-0.17-0.223-0.504-0.447-1.006-0.671C156.482,107.839,155.953,107.7,155.393,107.643z M159.668,108.733
		c-0.336,0.39-0.503,1.005-0.503,1.843c0,0.559,0.083,1.173,0.252,1.844c0.167,0.67,0.335,1.062,0.503,1.173
		c0.167,0.112,0.25,0.083,0.25-0.084s-0.109-0.39-0.335-0.671c-0.167-0.334-0.278-0.614-0.335-0.837
		c-0.057-0.168-0.083-0.503-0.083-1.006c0-0.782,0.083-1.313,0.251-1.592c0.167-0.336,0.531-0.643,1.089-0.923
		c1.343-0.67,2.794-0.53,4.358,0.419c0.504,0.28,0.781,0.418,0.839,0.418c0-0.056-0.196-0.251-0.587-0.586
		c-0.393-0.335-0.756-0.587-1.09-0.754c-0.393-0.168-0.838-0.279-1.342-0.336c-0.612-0.055-1.117-0.028-1.51,0.084
		C160.59,107.951,160.003,108.286,159.668,108.733z M159.165,101.776c1.117,0.057,1.983,0.168,2.599,0.335
		c1.844,0.56,3.437,1.537,4.777,2.934c1.34,1.453,2.207,3.074,2.598,4.861c0.168,0.67,0.225,1.508,0.168,2.514
		c0,1.006-0.084,1.816-0.25,2.431c-0.338,0.894-0.783,1.759-1.343,2.598c-0.503,0.894-1.09,1.621-1.76,2.179
		c-1.062,0.894-2.208,1.564-3.438,2.011c-1.173,0.391-2.43,0.586-3.771,0.586c-1.117,0-2.122-0.112-3.017-0.335
		c-0.949-0.279-1.871-0.726-2.767-1.34c-1.508-0.951-2.682-2.179-3.52-3.688c-0.838-1.508-1.257-3.1-1.257-4.776
		c0-0.838,0.083-1.593,0.251-2.263c0.112-0.615,0.335-1.286,0.67-2.012c0.67-1.508,1.676-2.766,3.018-3.771
		c1.342-1.061,2.819-1.759,4.44-2.095C157.182,101.776,158.048,101.721,159.165,101.776z M148.521,108.566
		c-0.112,0-0.391-0.084-0.838-0.251c-0.67-0.224-2.599-1.062-5.782-2.515c-3.576-1.565-5.728-2.514-6.454-2.85
		c-0.782-0.391-1.174-0.615-1.174-0.67c0-0.112,0.029-0.168,0.083-0.168c0.056-0.055,0.225-0.027,0.503,0.083
		c0.446,0.112,1.816,0.587,4.107,1.425c6.593,2.403,9.945,3.632,10.058,3.688c0.055,0.111,0.055,0.195,0,0.251
		c-0.112,0.112-1.175-0.196-3.186-0.922l-3.017-1.09l2.347,1.173c1.619,0.726,2.626,1.174,3.017,1.341
		c0.168,0.057,0.308,0.112,0.418,0.167l0.083,0.085C148.688,108.426,148.633,108.51,148.521,108.566z M148.103,109.068
		c0.167,0.055,0.251,0.167,0.251,0.336c0,0.111-0.057,0.167-0.168,0.167h-0.42c-0.335-0.112-1.257-0.196-2.766-0.252
		c-0.894,0-1.536-0.027-1.927-0.083c-0.336-0.055-0.644-0.14-0.923-0.251c-0.333-0.112-0.529-0.167-0.586-0.167
		c-0.055,0,0,0.055,0.168,0.167c0.279,0.224,0.67,0.363,1.174,0.419c0.503,0.167,1.173,0.279,2.012,0.334
		c1.005,0.057,1.76,0.168,2.262,0.336c0.616,0.112,0.923,0.251,0.923,0.419c0,0.112-0.085,0.196-0.253,0.251
		c-0.111,0-0.334-0.055-0.67-0.167c-0.167-0.111-0.446-0.195-0.837-0.251c-0.393-0.055-0.782-0.111-1.173-0.167
		c-1.063-0.056-1.816-0.139-2.263-0.251c-0.447-0.111-1.118-0.364-2.012-0.754c-0.949-0.447-1.731-0.727-2.347-0.837
		c-0.614-0.168-1.34-0.224-2.179-0.168c-0.559,0.056-0.95,0.083-1.173,0.083c-0.279-0.055-0.53-0.111-0.755-0.167
		c-0.391-0.167-0.753-0.362-1.088-0.586c-0.335-0.28-0.503-0.503-0.503-0.671c0-0.056,0.029-0.083,0.083-0.083
		c0.057,0,0.251,0.083,0.586,0.251c0.391,0.224,0.811,0.363,1.258,0.419c0.391,0.055,1.033,0.027,1.927-0.083
		c0.95-0.056,1.648-0.056,2.095,0c0.503,0.055,1.314,0.306,2.431,0.753c0.781,0.336,1.34,0.531,1.676,0.587
		c0.335,0.056,0.838,0.112,1.508,0.168c1.117,0.112,1.956,0.167,2.515,0.167C147.543,108.985,147.934,109.013,148.103,109.068z
		 M152.545,110.158c0.278-0.279,0.529-0.475,0.753-0.586c0.226-0.112,0.53-0.196,0.923-0.252c0.502-0.056,0.895-0.027,1.172,0.085
		c0.336,0.111,0.728,0.307,1.174,0.586c0.279,0.224,0.476,0.362,0.588,0.419c0.168,0,0.277,0,0.335,0
		c0.057-0.057,0.057-0.112,0-0.168c0-0.055-0.058-0.084-0.167-0.084c-0.225-0.056-0.588-0.251-1.09-0.586
		c-0.336-0.224-0.588-0.363-0.754-0.419c-0.168-0.056-0.42-0.084-0.756-0.084c-0.225,0-0.447,0.028-0.67,0.084
		c-0.279,0.056-0.475,0.111-0.586,0.167c-0.336,0.057-0.672,0.252-1.008,0.587c-0.334,0.28-0.475,0.446-0.418,0.503
		c0.057,0.055,0.111,0.055,0.167,0C152.32,110.353,152.432,110.27,152.545,110.158z M152.628,110.493l0.251,0.168
		c0.168,0.168,0.475,0.307,0.922,0.419c0.447,0.111,0.811,0.14,1.09,0.083c0.279,0,0.502-0.111,0.672-0.334
		c0.111-0.168,0.111-0.392,0-0.671c-0.057-0.167-0.084-0.279-0.084-0.334c0.11,0,0.278,0.083,0.502,0.251
		c0.224,0.167,0.363,0.307,0.42,0.419c0,0.112-0.142,0.224-0.42,0.336c-0.224,0.167-0.307,0.251-0.252,0.251
		c0.111,0.055,0.336,0,0.672-0.167c0.224-0.112,0.361-0.196,0.418-0.251c0-0.056-0.11-0.196-0.334-0.419
		c-0.336-0.335-0.782-0.531-1.342-0.586c-0.615-0.112-1.117-0.056-1.51,0.168c-0.335,0.167-0.586,0.334-0.754,0.502L152.628,110.493
		z M152.879,111.248c0.393,0.28,0.979,0.475,1.762,0.586c0.726,0.057,1.313-0.055,1.76-0.334c0.224-0.112,0.418-0.251,0.586-0.419
		c0.168-0.112,0.224-0.195,0.168-0.251c0-0.057-0.252,0.056-0.754,0.334c-0.95,0.447-1.983,0.475-3.103,0.084
		c-0.335-0.112-0.53-0.167-0.587-0.167C152.654,111.08,152.711,111.135,152.879,111.248z M147.431,111.667
		c-0.279,0.056-1.174,0.111-2.681,0.167c-1.789,0.057-2.627,0.112-2.515,0.168c0.056,0.055,1.117,0.112,3.185,0.167
		c1.172,0.056,1.9,0.112,2.179,0.168c0.223,0,0.335,0.056,0.335,0.168v0.167c-0.056,0.057-0.251,0.084-0.586,0.084
		c-0.447,0-2.403-0.055-5.867-0.167c-3.799-0.112-6.286-0.195-7.459-0.251c-1.117-0.112-1.704-0.196-1.76-0.251
		c-0.056-0.112,0.083-0.195,0.418-0.252c0.336-0.055,1.175-0.111,2.515-0.167l6.789-0.252c3.073-0.111,4.833-0.167,5.28-0.167
		c0.335,0,0.531,0.028,0.585,0.084c0.057,0,0.084,0.027,0.084,0.083C147.934,111.583,147.766,111.667,147.431,111.667z
		 M147.934,113.175c0.056,0.056,0.112,0.111,0.168,0.168c0,0.056,0,0.111,0,0.167c0,0.056-0.085,0.112-0.253,0.167
		c-0.111,0.112-0.334,0.196-0.67,0.252c-0.223,0.056-0.529,0.167-0.922,0.335c-0.446,0.112-0.837,0.251-1.173,0.419
		c-0.502,0.224-1.005,0.391-1.508,0.503c-0.446,0.112-1.005,0.195-1.675,0.252c-0.112,0-0.083,0.027,0.083,0.083
		c0.112,0,0.308,0,0.586,0c0.447,0,0.81-0.028,1.089-0.083c0.28-0.057,0.755-0.168,1.425-0.335c0.895-0.391,1.677-0.615,2.347-0.67
		c0.447,0,0.699,0,0.755,0c0.111,0,0.168,0.056,0.168,0.167c0,0.167-0.057,0.252-0.168,0.252c-0.112,0.055-0.364,0.083-0.755,0.083
		c-0.279,0.055-0.643,0.139-1.089,0.251c-0.447,0.112-0.838,0.224-1.173,0.335l-1.342,0.419l-2.514,0.083c-0.726,0-1.369,0-1.928,0
		c-0.614,0.056-0.978,0.084-1.088,0.084c-0.112,0-0.336,0.083-0.672,0.251c-0.335,0.112-0.699,0.251-1.09,0.419
		c-0.502,0.279-0.866,0.447-1.088,0.503c-0.279,0.057-0.616,0.084-1.007,0.084c-0.614,0-1.032-0.056-1.257-0.168
		c-0.335-0.224-0.475-0.363-0.418-0.419c0.056-0.055,0.308-0.055,0.753,0c0.447,0.056,0.838,0.028,1.175-0.083
		c0.391-0.112,1.089-0.419,2.095-0.922l1.509-0.837h2.514c1.117-0.056,1.843-0.112,2.178-0.168c0.336-0.055,0.755-0.167,1.257-0.334
		c1.621-0.559,2.627-0.894,3.019-1.006C147.655,113.259,147.878,113.175,147.934,113.175z M148.688,115.605
		c0,0.057-0.279,0.224-0.838,0.503c-0.502,0.224-1.145,0.502-1.927,0.838c-0.726,0.334-1.34,0.615-1.843,0.837l-0.754,0.419
		l2.766-0.922c1.843-0.615,2.821-0.894,2.934-0.838c0.055,0.112,0.027,0.196-0.083,0.251c-0.168,0.112-0.532,0.279-1.091,0.503
		c-0.67,0.224-2.514,0.894-5.531,2.012c-3.52,1.285-5.755,2.066-6.706,2.347c-0.045,0.014-0.086,0.028-0.125,0.042
		c-0.045,0.014-0.086,0.028-0.125,0.042c-0.728,0.208-1.09,0.236-1.09,0.084c0-0.055,0.293-0.222,0.879-0.503h0.085
		c0.583-0.246,2.161-0.945,4.735-2.095l5.95-2.682c1.062-0.502,1.789-0.782,2.18-0.838
		C148.438,115.494,148.633,115.494,148.688,115.605z M150.868,119.126c0.056,0-0.14,0.223-0.586,0.67
		c-0.391,0.503-0.922,1.062-1.593,1.677l-1.842,2.012c0.055,0.055,0.753-0.531,2.095-1.76c1.284-1.061,2.039-1.676,2.262-1.843
		c0.11-0.168,0.194-0.224,0.252-0.168c0.056,0,0.11,0.028,0.166,0.083c0,0.112-0.083,0.28-0.252,0.503
		c-0.278,0.224-2.095,1.844-5.447,4.861c-2.522,2.328-4.114,3.767-4.777,4.317c-0.108,0.095-0.193,0.164-0.252,0.209
		c-0.247,0.247-0.428,0.401-0.544,0.461c-0.055,0.028-0.096,0.042-0.126,0.042c-0.056,0.056-0.111,0.056-0.168,0
		c-0.055-0.055-0.055-0.14,0-0.251c0.018-0.034,0.045-0.075,0.084-0.126c0.066-0.094,0.178-0.219,0.335-0.377
		c0.114-0.12,0.226-0.246,0.335-0.376c2.649-2.792,4.912-5.153,6.789-7.082l3.017-3.018
		C150.783,118.958,150.868,119.014,150.868,119.126z M149.526,117.45l-0.167,0.251c-0.112,0.112-0.28,0.224-0.503,0.336
		c-0.391,0.335-0.949,0.866-1.677,1.592c-0.725,0.67-1.396,1.173-2.01,1.509c-0.56,0.224-0.728,0.335-0.503,0.335
		c0.782-0.167,1.704-0.726,2.766-1.677c0.615-0.502,1.173-0.922,1.676-1.257c0.558-0.279,0.922-0.391,1.09-0.335
		c0.111,0.111,0.111,0.224,0,0.335c-0.056,0.112-0.335,0.28-0.838,0.503c-0.225,0.111-0.531,0.307-0.922,0.586
		c-0.335,0.224-0.615,0.447-0.838,0.67c-0.559,0.502-1.061,0.866-1.508,1.089c-0.447,0.224-1.09,0.502-1.928,0.838
		c-0.949,0.336-1.676,0.643-2.179,0.922c-0.503,0.336-1.063,0.782-1.677,1.342c-0.558,0.67-1.09,1.145-1.592,1.425
		c-0.066,0.032-0.136,0.061-0.209,0.083c-0.167,0.079-0.335,0.134-0.503,0.167c-0.186,0.025-0.366,0.025-0.544,0
		c-0.336,0-0.56-0.055-0.67-0.167c-0.057-0.112,0.027-0.168,0.25-0.168c0.198,0,0.421-0.07,0.671-0.209
		c0.119-0.054,0.246-0.124,0.376-0.21c0.146-0.092,0.301-0.204,0.461-0.334c0.67-0.56,1.258-1.174,1.76-1.844
		c0.112-0.168,0.251-0.336,0.418-0.503c0.224-0.167,0.393-0.307,0.504-0.419c0.334-0.167,0.67-0.334,1.005-0.502
		c0.335-0.167,0.978-0.446,1.927-0.838c0.894-0.335,1.899-1.006,3.017-2.012c0.951-0.95,1.566-1.536,1.845-1.76
		c0.279-0.167,0.418-0.167,0.418,0L149.526,117.45z M160.003,110.325c-0.056,0.112,0,0.168,0.167,0.168
		c0.059,0,0.169-0.056,0.337-0.168c0.224-0.111,0.445-0.251,0.671-0.418c0.391-0.28,0.643-0.447,0.754-0.502
		c0.168-0.056,0.476-0.085,0.922-0.085s0.838,0.057,1.174,0.168c0.334,0.112,0.671,0.308,1.006,0.587
		c0.111,0.112,0.225,0.196,0.335,0.251l0.168,0.085c0.11-0.057-0.028-0.224-0.42-0.503c-0.392-0.335-0.755-0.531-1.089-0.587
		c-0.111-0.111-0.309-0.167-0.586-0.167c-0.226-0.056-0.447-0.084-0.672-0.084c-0.279,0-0.53,0.028-0.754,0.084
		c-0.168,0.056-0.392,0.196-0.672,0.419c-0.503,0.279-0.865,0.447-1.089,0.502C160.087,110.129,160.003,110.214,160.003,110.325z
		 M161.427,111.08c0.394,0.111,0.589,0.14,0.589,0.083l-0.42-0.334c-0.111-0.057-0.224-0.112-0.336-0.168
		c-0.056-0.056-0.082-0.112-0.082-0.168c0-0.056,0.109-0.195,0.334-0.419c0.279-0.167,0.447-0.251,0.504-0.251
		c0.055,0,0.084,0.027,0.084,0.083c-0.057,0.055-0.084,0.112-0.084,0.167c-0.057,0.112-0.084,0.224-0.084,0.336
		c0,0.111,0.027,0.251,0.084,0.419l0.166,0.418l0.84-0.084c0.391,0,0.811-0.083,1.256-0.251c0.447-0.168,0.671-0.336,0.671-0.502
		l-0.25-0.168c-0.168-0.112-0.337-0.223-0.505-0.335c-0.391-0.168-0.811-0.28-1.256-0.335c-0.447,0-0.867,0.083-1.258,0.251
		c-0.279,0.167-0.502,0.334-0.671,0.502c-0.168,0.168-0.223,0.28-0.168,0.336C160.896,110.772,161.094,110.913,161.427,111.08z
		 M160.59,110.913c-0.111-0.056-0.168-0.056-0.168,0c0.057,0.112,0.225,0.251,0.503,0.419c0.335,0.223,0.644,0.363,0.923,0.418
		c0.334,0.112,0.727,0.141,1.174,0.083c0.391-0.055,0.811-0.195,1.256-0.418c0.447-0.167,0.671-0.28,0.671-0.335
		c0-0.055-0.25,0-0.755,0.167c-1.063,0.391-2.066,0.335-3.017-0.167C160.952,110.968,160.757,110.913,160.59,110.913z
		 M160.925,113.846c0.111,0.055,0.169,0.111,0.169,0.167c0.055,0.055,0.027,0.139-0.085,0.251c-0.057,0.112-0.194,0.195-0.419,0.251
		c-0.224,0.056-0.391,0-0.503-0.168c-0.058-0.111-0.112-0.167-0.167-0.167c-0.057,0.056-0.141,0.14-0.252,0.251
		c-0.277,0.279-0.586,0.419-0.923,0.419c-0.333,0-0.614-0.14-0.839-0.419c-0.11-0.112-0.193-0.168-0.25-0.168
		c-0.057-0.056-0.141-0.027-0.252,0.083c-0.11,0.168-0.252,0.224-0.418,0.168c-0.226-0.056-0.392-0.139-0.504-0.251
		c0-0.112,0-0.196,0-0.251c0-0.056,0.057-0.112,0.168-0.167c0.057-0.112,0.084-0.196,0.084-0.252c0.057-0.055,0.057-0.084,0-0.084
		s-0.168,0.084-0.334,0.252c-0.113,0.111-0.17,0.307-0.17,0.586c0,0.224,0.057,0.392,0.17,0.504
		c0.166,0.111,0.947,0.167,2.345,0.167c1.342,0,2.124-0.057,2.349-0.167c0.166-0.112,0.278-0.28,0.333-0.504
		c0-0.279-0.083-0.475-0.25-0.586c-0.168-0.168-0.278-0.252-0.336-0.252C160.786,113.566,160.813,113.678,160.925,113.846z
		 M154.053,110.325c-0.056,0.056-0.056,0.14,0,0.251c0.055,0.224,0.055,0.336,0,0.336c-0.056,0.055-0.195,0.027-0.42-0.083
		c-0.223-0.168-0.335-0.28-0.335-0.336c0-0.112,0.112-0.251,0.335-0.419c0.168-0.112,0.338-0.195,0.504-0.251
		c0.166,0,0.166,0.083,0,0.251L154.053,110.325z M156.4,116.779l-0.504,0.419l0.334,0.168c0.226,0.056,0.365,0.083,0.42,0.083
		c0.057,0,0.252,0.14,0.586,0.418c0.111,0.168,0.252,0.28,0.42,0.336c0.111,0.111,0.223,0.195,0.336,0.251h0.42l-0.42,0.251
		c-0.113,0.112-0.225,0.224-0.336,0.336c-0.111,0.111-0.195,0.224-0.252,0.334l-0.252,0.419l0.336-0.334
		c0.279-0.335,0.643-0.531,1.09-0.587c0.447-0.055,0.839,0.056,1.174,0.336c0.335,0.167,0.503,0.224,0.503,0.167
		c0-0.111-0.168-0.279-0.503-0.503c-0.225-0.167-0.361-0.279-0.42-0.335c0-0.056,0.085-0.083,0.252-0.083
		c0.057-0.056,0.168-0.14,0.336-0.251c0.167-0.056,0.309-0.167,0.419-0.336c0.11-0.111,0.251-0.195,0.418-0.251
		c0.168-0.112,0.308-0.195,0.42-0.251c0.224-0.056,0.362-0.112,0.419-0.168l-0.169-0.167c-0.167-0.112-0.333-0.252-0.502-0.419
		c-0.335-0.335-0.612-0.502-0.838-0.502c-0.224-0.112-0.614-0.112-1.174,0c-0.278,0-0.53-0.028-0.753-0.084
		c-0.337-0.056-0.645-0.028-0.924,0.084C157.07,116.22,156.791,116.444,156.4,116.779z M157.152,116.444
		c0.279-0.167,0.531-0.251,0.754-0.251l0.42,0.167c0.169,0.056,0.309,0.084,0.419,0.084c0.168,0,0.337-0.028,0.503-0.084
		c0.279-0.112,0.475-0.167,0.587-0.167s0.308,0.084,0.587,0.251c0.168,0.056,0.335,0.14,0.503,0.251
		c0.111,0.112,0.196,0.196,0.253,0.252c0.109,0.111,0.166,0.195,0.166,0.251h-0.166c-0.057,0-0.195,0.056-0.421,0.168
		c-0.167,0.056-0.362,0.167-0.587,0.334c-0.502,0.336-0.949,0.503-1.34,0.503s-0.865-0.167-1.426-0.503
		c-0.168-0.167-0.307-0.279-0.418-0.334c-0.168-0.112-0.225-0.196-0.168-0.251h-0.084c-0.057,0-0.139,0-0.252,0l-0.334,0.083
		l0.418-0.336C156.791,116.695,156.986,116.556,157.152,116.444z M157.32,117.198c0.111,0,0.308,0.028,0.586,0.083
		c0.393,0.057,1.007,0.057,1.846,0c0.838-0.056,1.146-0.112,0.922-0.167c-0.167-0.112-0.811-0.167-1.929-0.167
		c-1.117,0-1.675,0.055-1.675,0.167L157.32,117.198z M144.414,132.62c0.279-0.224,0.531-0.531,0.755-0.923
		c0.279-0.391,0.531-0.977,0.753-1.76c0.112-0.391,0.252-0.782,0.42-1.173c0.112-0.334,0.223-0.587,0.335-0.754
		c0.056-0.112,0.252-0.364,0.587-0.755c0.335-0.335,0.697-0.67,1.09-1.006c0.725-0.726,1.228-1.341,1.509-1.844
		c0.335-0.446,0.782-1.285,1.34-2.514c0.166-0.447,0.335-0.838,0.503-1.173l0.251-0.503c0.111,0,0.225,0.029,0.336,0.084
		c0.057,0.056,0.084,0.168,0.084,0.335c-0.111,0.167-0.279,0.503-0.502,1.006c-0.447,0.894-0.784,1.648-1.007,2.263
		c-0.279,0.559-0.67,1.117-1.173,1.677c-0.447,0.446-0.643,0.67-0.587,0.67c0.112,0,0.392-0.251,0.838-0.753
		c0.446-0.391,0.895-1.062,1.341-2.012c0.279-0.56,0.643-1.146,1.09-1.76c0.391-0.559,0.643-0.837,0.754-0.837
		c0.055,0,0.141,0.027,0.252,0.083c0.055,0.112,0.084,0.196,0.084,0.251c-0.057,0.112-0.195,0.28-0.42,0.503
		c-0.111,0.167-0.336,0.475-0.67,0.922c-0.279,0.391-0.531,0.81-0.756,1.257c-0.334,0.726-0.613,1.229-0.838,1.508
		c-0.223,0.28-0.585,0.643-1.089,1.09c-1.006,0.894-1.704,1.564-2.095,2.012c-0.335,0.502-0.643,1.117-0.922,1.843
		c-0.223,0.727-0.476,1.258-0.755,1.592c-0.223,0.336-0.502,0.615-0.838,0.839c-0.286,0.143-0.537,0.27-0.753,0.377l-0.085,0.042
		c-0.223,0.056-0.333,0-0.333-0.167l0.167-0.085l0.042-0.041C144.17,132.814,144.269,132.717,144.414,132.62z M158.495,123.568
		c0.056,0.671,0.112,1.48,0.167,2.431c0,0.838,0.027,1.509,0.083,2.012c0,0.334,0.028,0.419,0.085,0.251
		c0-0.224,0.027-0.754,0.083-1.592c0.058-1.844,0.112-2.989,0.169-3.436c0.055-0.503,0.166-0.754,0.335-0.754
		c0.056,0,0.11,0.055,0.167,0.167c0,0.112,0,0.363,0,0.755c-0.057,0.558-0.167,2.989-0.336,7.291
		c-0.057,3.129-0.139,5.085-0.25,5.866c0,0.783-0.059,1.202-0.168,1.258c-0.112,0-0.223-0.419-0.335-1.258
		c-0.056-0.781-0.142-2.737-0.252-5.866c-0.056-4.19-0.14-6.592-0.251-7.207c0-0.447,0-0.726,0-0.838s0.083-0.167,0.251-0.167
		c0.11,0,0.169,0.084,0.169,0.251C158.466,122.841,158.495,123.121,158.495,123.568z M161.512,122.144
		c0.112,0,0.168,0.028,0.168,0.083c0.057,0.056,0.084,0.168,0.084,0.336c0.11,0.279,0.168,0.558,0.168,0.838
		c0,0.055,0.027,0.279,0.084,0.67c0.11,0.391,0.25,0.783,0.418,1.173l0.504,1.425l0.084,5.279l0.67,1.425
		c0.225,0.615,0.392,1.063,0.502,1.342c0.058,0.224,0.084,0.503,0.084,0.839c0,0.446-0.026,0.838-0.084,1.173
		c-0.166,0.335-0.307,0.503-0.42,0.503c-0.109,0-0.166-0.028-0.166-0.084c-0.057,0-0.057-0.084,0-0.252
		c0.057-0.056,0.084-0.167,0.084-0.336c0-0.223,0-0.418,0-0.586c0-0.391-0.055-0.726-0.168-1.006
		c-0.168-0.279-0.56-1.033-1.172-2.263l-0.504-0.922l-0.084-2.347c-0.057-1.285-0.14-2.123-0.252-2.514
		c-0.056-0.447-0.308-1.201-0.755-2.262c-0.167-0.448-0.335-0.895-0.502-1.342c-0.168-0.446-0.252-0.725-0.252-0.837
		c0-0.056,0.084-0.056,0.252,0c0.111,0,0.194,0.055,0.252,0.167c0.11,0.112,0.224,0.363,0.334,0.755
		c0.224,0.614,0.446,1.2,0.671,1.759c0.279,0.67,0.475,1.229,0.588,1.676c0.111,0.447,0.166,0.922,0.166,1.425v0.838l0.168-0.755
		c0.057-0.446,0.057-0.894,0-1.34c-0.056-0.391-0.223-0.979-0.502-1.761c-0.336-0.894-0.56-1.647-0.672-2.262
		c0-0.391,0-0.643,0-0.755C161.26,122.171,161.344,122.144,161.512,122.144z M154.221,121.557c0,0.056-0.084,0.363-0.25,0.922
		c-0.226,0.614-0.477,1.312-0.756,2.095c-0.729,1.899-1.063,2.849-1.007,2.849l1.259-2.682c0.391-0.726,0.727-1.397,1.004-2.012
		c0.338-0.503,0.504-0.782,0.504-0.838c0.279-0.223,0.309-0.027,0.084,0.587c-0.224,0.614-0.756,1.788-1.592,3.52
		c-2.291,4.917-3.66,7.849-4.107,8.8c-0.335,0.559-0.56,0.894-0.671,1.006c-0.055,0.056-0.083-0.028-0.083-0.251
		c0-0.112,0.67-1.984,2.012-5.616c1.396-3.688,2.431-6.37,3.101-8.046c0.111-0.279,0.195-0.447,0.254-0.502
		C154.08,121.389,154.164,121.444,154.221,121.557z M156.23,122.563c-0.056,0.279-0.111,1.145-0.166,2.598
		c-0.058,1.006-0.084,1.676-0.084,2.012c-0.058,0.335-0.17,0.643-0.336,0.922c-0.166,0.503-0.226,0.726-0.166,0.67
		c0.055,0,0.194-0.251,0.418-0.754c0.168-0.391,0.278-0.727,0.334-1.006c0.112-0.28,0.17-0.81,0.17-1.593
		c0.166-2.01,0.445-3.016,0.836-3.016c0.168,0,0.252,0.055,0.252,0.167c-0.057,0.111-0.141,0.447-0.252,1.005
		c-0.055,0.28-0.139,0.642-0.25,1.09c-0.057,0.502-0.084,0.949-0.084,1.341c-0.111,0.726-0.195,1.229-0.252,1.509
		c-0.111,0.279-0.363,0.837-0.754,1.676c-0.504,1.173-0.811,1.984-0.922,2.431c-0.113,0.446-0.168,1.173-0.168,2.179
		c0.055,0.614,0.055,1.061,0,1.342c-0.058,0.278-0.111,0.529-0.168,0.753c-0.168,0.28-0.337,0.56-0.502,0.839
		c-0.279,0.279-0.476,0.419-0.588,0.419c-0.111,0-0.167-0.057-0.167-0.168c0-0.056,0.084-0.251,0.25-0.586
		c0.168-0.28,0.279-0.531,0.337-0.755c0-0.168,0-0.447,0-0.838c0-0.615-0.027-1.202-0.085-1.76c-0.11-0.614-0.084-1.201,0.085-1.761
		c0.11-0.502,0.333-1.202,0.67-2.095c0.393-0.782,0.644-1.48,0.754-2.095c0.112-0.615,0.195-1.648,0.252-3.101l0.084-1.843h0.252
		c0.168,0,0.277,0.028,0.334,0.083L156.23,122.563z M183.305,102.28c-0.059,0.055-0.84,0.446-2.35,1.173
		c-1.51,0.67-3.268,1.452-5.279,2.347l-2.178,0.921c-1.621,0.726-2.768,1.229-3.438,1.508c-0.672,0.28-1.033,0.391-1.09,0.336
		c-0.057-0.112-0.084-0.196-0.084-0.251c0-0.057,0.949-0.476,2.85-1.258c1.9-0.838,2.85-1.286,2.85-1.341
		c-0.057,0-1.061,0.335-3.018,1.006c-1.955,0.671-2.961,0.95-3.016,0.838c-0.058-0.056-0.058-0.14,0-0.251
		c0.055,0,0.475-0.168,1.256-0.504c0.782-0.279,1.705-0.614,2.766-1.005c5.197-1.899,8.298-3.018,9.304-3.353
		c0.671-0.167,1.089-0.28,1.257-0.336C183.305,102.112,183.357,102.168,183.305,102.28z M180.872,107.309
		c0.336-0.168,0.644-0.308,0.922-0.419c0.28-0.112,0.503-0.168,0.671-0.168c0.279-0.112,0.586-0.14,0.922-0.083
		c0.393,0.056,0.727,0.111,1.006,0.167c0.057,0.057,0.142,0.112,0.252,0.168c0.056,0.055,0.082,0.112,0.082,0.167
		c0.058,0.056,0.058,0.112,0,0.168c-0.056,0-0.223-0.028-0.5-0.085c-0.504,0-0.951,0.029-1.343,0.085
		c-0.446,0.167-1.146,0.475-2.096,0.921l-1.593,0.838h-2.346c-1.285,0.055-2.152,0.14-2.6,0.251
		c-0.447,0.057-1.537,0.419-3.27,1.091c-0.334,0.111-0.643,0.195-0.922,0.251l-0.42,0.168c-0.056-0.057-0.082-0.112-0.082-0.168
		c0-0.056,0-0.112,0-0.168c0-0.056,0.026-0.112,0.082-0.168c0.112-0.111,0.309-0.196,0.588-0.251
		c0.446-0.112,1.146-0.336,2.096-0.67c0.67-0.224,1.229-0.419,1.677-0.587c0.446-0.112,1.005-0.196,1.676-0.251
		c0.112,0,0.112-0.028,0-0.084c-0.168,0-0.362,0-0.586,0c-0.504,0-0.896,0.029-1.174,0.084s-0.755,0.195-1.425,0.419
		c-0.447,0.111-0.895,0.224-1.342,0.334c-0.446,0.168-0.781,0.252-1.006,0.252c-0.392,0-0.644,0-0.754,0
		c-0.111,0-0.168-0.056-0.168-0.167c0-0.168,0.057-0.252,0.168-0.252c0.11-0.056,0.391-0.084,0.838-0.084
		c0.278-0.055,0.643-0.139,1.09-0.251c0.392-0.056,0.781-0.168,1.174-0.336l1.257-0.419l2.599-0.083
		c1.676,0,2.654-0.028,2.934-0.083C179.559,107.839,180.09,107.643,180.872,107.309z M185.23,112.169
		c-0.168,0.056-0.364,0.083-0.588,0.083c-0.502,0-4.776,0.14-12.822,0.419c-1.062,0.057-1.703,0.084-1.928,0.084
		c-0.168-0.055-0.252-0.112-0.252-0.167c0-0.167,0.084-0.251,0.252-0.251c0.278-0.056,0.895-0.112,1.844-0.168
		c1.396-0.055,2.459-0.083,3.185-0.083c0.447,0,0.699,0,0.755,0l-0.42-0.084c-0.166-0.056-0.559-0.083-1.172-0.083
		c-0.615-0.056-1.258-0.085-1.928-0.085c-1.174-0.055-1.899-0.111-2.18-0.167c-0.225,0-0.336-0.084-0.336-0.252
		c0-0.056,0.084-0.111,0.252-0.167c0.168,0,0.754,0.028,1.76,0.084l7.793,0.251c1.678,0.056,3.076,0.112,4.19,0.167
		c1.063,0.056,1.622,0.112,1.677,0.168C185.371,111.974,185.343,112.057,185.23,112.169z M178.693,116.695
		c-0.504-0.056-1.313-0.308-2.432-0.754c-0.781-0.336-1.342-0.531-1.677-0.587c-0.278-0.111-0.864-0.167-1.76-0.167
		c-1.509-0.112-2.403-0.167-2.683-0.167c-0.392,0-0.644-0.029-0.754-0.084c-0.056-0.056-0.084-0.14-0.084-0.252
		c-0.057-0.167-0.057-0.251,0-0.251h0.334c0.112,0.056,0.42,0.111,0.924,0.167c0.502,0,1.088,0,1.76,0
		c0.894,0.056,1.537,0.083,1.928,0.083c0.393,0.112,0.754,0.224,1.09,0.336c0.502,0.167,0.698,0.195,0.586,0.083
		c-0.111-0.112-0.445-0.251-1.006-0.419c-0.445-0.167-1.229-0.307-2.348-0.419c-0.948-0.056-1.703-0.167-2.262-0.335
		c-0.502-0.112-0.754-0.252-0.754-0.419c0-0.111,0.026-0.195,0.082-0.251c0.17,0,0.42,0.056,0.756,0.168
		c0.168,0.112,0.475,0.196,0.922,0.251c0.504,0.056,1.033,0.112,1.592,0.168l1.929,0.167l1.593,0.753
		c1.174,0.503,1.955,0.811,2.346,0.922c0.168,0.056,0.476,0.112,0.922,0.168c0.504,0,1.008,0,1.511,0
		c0.837,0,1.396,0.027,1.676,0.083c0.278,0,0.53,0.055,0.753,0.167c0.225,0.167,0.477,0.363,0.756,0.586
		c0.225,0.224,0.334,0.391,0.334,0.503c0,0.112-0.026,0.168-0.082,0.168c-0.057-0.056-0.252-0.168-0.588-0.335
		c-0.391-0.224-0.811-0.364-1.257-0.419c-0.446,0-1.116,0.028-2.012,0.084C179.895,116.807,179.195,116.807,178.693,116.695z
		 M163.941,110.829c-0.278,0.111-0.418,0.139-0.418,0.083v-0.336c0-0.111,0-0.195,0-0.251c0-0.167-0.028-0.251-0.084-0.251
		c-0.111-0.167-0.111-0.251,0-0.251c0.168,0.056,0.334,0.139,0.502,0.251c0.224,0.167,0.336,0.307,0.336,0.419
		C164.277,110.549,164.165,110.661,163.941,110.829z M169.475,116.611c0.559,0.167,1.535,0.503,2.934,1.006
		c1.341,0.503,2.011,0.726,2.011,0.67c0-0.056-0.92-0.475-2.767-1.257c-1.842-0.838-2.764-1.285-2.764-1.341v-0.167
		c0.109-0.112,0.361-0.083,0.752,0.083c0.447,0.167,1.705,0.699,3.772,1.593l5.7,2.514c1.695,0.766,2.826,1.27,3.393,1.508h0.043
		l0.083,0.042c0.501,0.258,0.724,0.439,0.673,0.545l-0.086,0.083c-0.057,0.057-0.14,0.057-0.252,0c-0.037,0-0.205-0.042-0.502-0.125
		c-0.049-0.017-0.105-0.03-0.168-0.042c-1.02-0.353-3.227-1.134-6.621-2.347c-4.693-1.731-7.066-2.625-7.123-2.682v-0.084
		c0-0.055,0-0.111,0-0.167C168.607,116.388,168.915,116.444,169.475,116.611z M167.379,118.372c0.057-0.168,0.109-0.224,0.167-0.168
		c0.112,0,0.363,0.111,0.755,0.335c0.502,0.28,1.09,0.559,1.76,0.838c0.728,0.28,1.313,0.531,1.762,0.755
		c0.391,0.224,0.753,0.502,1.088,0.838c0.279,0.279,0.447,0.419,0.504,0.419l-0.084-0.251c-0.168-0.224-0.42-0.475-0.755-0.755
		c-0.335-0.279-0.644-0.502-0.923-0.67c-0.223-0.112-0.726-0.363-1.508-0.754c-0.67-0.279-1.201-0.586-1.592-0.921
		c-0.392-0.336-0.56-0.587-0.504-0.755l0.168-0.167c0.057,0,0.279,0.167,0.672,0.502c0.109,0.167,0.391,0.363,0.838,0.587
		c0.392,0.279,0.81,0.502,1.256,0.67c0.728,0.336,1.229,0.615,1.51,0.838c0.277,0.224,0.811,0.726,1.593,1.508
		c0.837,0.838,1.479,1.397,1.929,1.676c0.445,0.336,1.09,0.643,1.926,0.922c0.225,0.056,0.476,0.167,0.756,0.335
		c0.277,0.112,0.503,0.224,0.67,0.336c0.335,0.223,0.643,0.53,0.922,0.921c0.1,0.14,0.186,0.266,0.252,0.377
		c0.093,0.2,0.12,0.353,0.084,0.461c-0.057,0.112-0.111,0.167-0.168,0.167c-0.034-0.033-0.089-0.103-0.168-0.209
		c-0.044-0.049-0.1-0.12-0.168-0.209c-0.334-0.392-0.698-0.671-1.09-0.838c-0.391-0.279-1.006-0.502-1.844-0.67
		c-0.334-0.112-0.672-0.224-1.004-0.336c-0.338-0.111-0.561-0.195-0.673-0.251c-0.11-0.055-0.391-0.279-0.838-0.67
		c-0.392-0.28-0.81-0.642-1.257-1.089c-0.727-0.671-1.257-1.118-1.592-1.342c-0.279-0.223-0.782-0.502-1.51-0.838
		c-1.51-0.615-2.375-1.006-2.599-1.173C167.379,118.623,167.268,118.483,167.379,118.372z M170.479,123.233
		c-0.446-0.503-1.174-1.257-2.179-2.263c-0.614-0.67-1.034-1.145-1.257-1.425c-0.225-0.279-0.309-0.447-0.252-0.502
		c0.057-0.112,0.393,0.139,1.006,0.753c0.67,0.615,2.542,2.543,5.615,5.784c2.012,2.067,3.212,3.325,3.604,3.771
		c0.393,0.447,0.586,0.726,0.586,0.838c-0.166,0.167-0.586-0.083-1.256-0.755l-8.717-7.961c-0.447-0.391-0.839-0.726-1.174-1.005
		c-0.28-0.335-0.447-0.503-0.503-0.503c-0.058-0.279,0.083-0.307,0.418-0.083c0.335,0.223,0.95,0.725,1.845,1.508l2.432,2.263
		C170.982,123.931,170.927,123.791,170.479,123.233z M171.15,129.434l1.173,1.091c0.446,0.39,0.782,0.894,1.006,1.508
		c0.169,0.67,0.14,1.089-0.083,1.257c-0.059,0.056-0.112,0.056-0.168,0l-0.085-0.336c-0.056-0.446-0.251-0.838-0.586-1.173
		c-0.335-0.391-0.839-0.896-1.511-1.509c-0.726-0.502-1.229-0.949-1.508-1.341c-0.334-0.447-0.697-1.173-1.089-2.179
		c-0.337-0.782-0.643-1.369-0.922-1.76c-0.28-0.392-0.896-1.09-1.844-2.096c-0.95-1.006-1.453-1.564-1.509-1.676
		c0-0.055,0.027-0.083,0.084-0.083l0.082-0.168c0.058,0,0.252,0.168,0.588,0.503c0.392,0.335,0.865,0.754,1.425,1.257
		c0.671,0.727,1.146,1.286,1.426,1.676c0.278,0.336,0.502,0.672,0.67,1.006l0.335,0.838c0.112,0,0.057-0.279-0.168-0.838
		c-0.224-0.558-0.419-0.949-0.587-1.172c-0.055-0.168-0.223-0.363-0.502-0.587c-0.226-0.336-0.476-0.643-0.755-0.922
		c-0.502-0.503-0.895-1.005-1.174-1.509c-0.278-0.502-0.362-0.782-0.251-0.838c0.168-0.111,0.278-0.139,0.336-0.083
		c0.055,0.056,0.194,0.279,0.419,0.67c0.109,0.223,0.277,0.503,0.503,0.838c0.278,0.336,0.53,0.643,0.754,0.922
		c0.56,0.615,0.978,1.118,1.257,1.509c0.225,0.39,0.504,1.005,0.838,1.843c0.336,0.95,0.644,1.676,0.922,2.179
		C170.507,128.708,170.814,129.1,171.15,129.434z M163.607,121.473c0.056,0.112,0.166,0.335,0.334,0.671
		c0.168,0.335,0.865,2.178,2.096,5.531l2.431,6.285c0.28,0.783,0.447,1.286,0.503,1.509c0.057,0.28,0,0.392-0.168,0.336
		c-0.111-0.112-1.229-2.403-3.353-6.873c-2.122-4.526-3.156-6.845-3.101-6.956c0-0.056,0.027-0.112,0.084-0.168
		c0-0.055,0.026-0.083,0.082-0.083c0.058,0,0.336,0.531,0.84,1.592c0.502,1.062,1.004,2.124,1.508,3.186
		c0.336,0.782,0.447,1.006,0.336,0.67c-0.111-0.391-0.42-1.285-0.922-2.682c-0.279-0.727-0.504-1.398-0.67-2.012
		c-0.226-0.559-0.309-0.866-0.252-0.922C163.411,121.389,163.495,121.361,163.607,121.473z"/>
	<path fill="#FFFFFF" d="M144.54,133.373c0.139-0.035,0.294-0.091,0.46-0.167c0.391-0.167,0.754-0.475,1.09-0.922
		c0.335-0.446,0.586-0.95,0.755-1.508c0.223-0.782,0.558-1.453,1.004-2.012c0.336-0.503,1.175-1.341,2.515-2.515
		c0.281-0.224,0.531-0.502,0.755-0.838c0.168-0.279,0.393-0.698,0.67-1.257c0.336-0.615,0.67-1.145,1.006-1.592
		c0.279-0.448,0.477-0.643,0.588-0.586l-2.096,5.447c-1.397,3.688-2.263,5.979-2.599,6.873c-0.334,0.839-0.446,1.341-0.334,1.509
		c0.055,0.167,0.111,0.251,0.167,0.251c0.056,0.056,0.167,0.056,0.335,0c0.168-0.111,0.447-0.531,0.838-1.257
		c0.391-0.839,1.369-2.878,2.934-6.118c1.62-3.632,2.486-5.476,2.599-5.532c0.11-0.111,0.11,0.503,0,1.844
		c0,1.397-0.057,2.235-0.168,2.515c-0.113,0.391-0.392,1.033-0.838,1.927c-0.336,0.838-0.531,1.51-0.588,2.012
		c-0.055,0.502-0.027,1.425,0.084,2.766l0.084,1.342l-0.418,0.753c-0.225,0.447-0.336,0.728-0.336,0.839
		c0,0.167,0.139,0.251,0.42,0.251c0.223,0,0.445-0.111,0.67-0.335c0.225-0.168,0.447-0.504,0.672-1.006
		c0.109-0.279,0.193-0.531,0.25-0.755c0.057-0.278,0.084-0.838,0.084-1.676c0-1.062,0.027-1.76,0.084-2.096
		c0.11-0.334,0.447-1.117,1.006-2.346c0.392-0.838,0.644-1.425,0.754-1.76c0.056-0.335,0.111-1.006,0.168-2.012
		c0.056-0.391,0.111-0.782,0.168-1.172c0.056-0.336,0.109-0.587,0.167-0.754c0.112-0.168,0.168-0.224,0.168-0.168
		c0,0.056,0.026,0.419,0.084,1.089c0.056,0.838,0.139,2.515,0.252,5.029c0.11,3.967,0.194,6.342,0.251,7.124
		c0.056,0.728,0.141,1.175,0.252,1.342c0.111,0.168,0.25,0.224,0.418,0.168c0.111-0.057,0.195-0.111,0.252-0.168
		c0.057-0.167,0.083-0.503,0.083-1.006c0.112-0.67,0.252-3.239,0.42-7.71c0.056-2.514,0.111-4.106,0.167-4.778l0.085-1.004
		l0.335,0.67c0.167,0.558,0.42,1.202,0.754,1.928c0.168,0.559,0.309,1.006,0.418,1.34c0,0.28,0.029,1.006,0.086,2.18l0.084,2.346
		l0.586,1.089c0.615,1.229,0.979,1.957,1.09,2.181c0.057,0.223,0.084,0.614,0.084,1.172c0,0.28,0.027,0.531,0.084,0.755v0.335
		c0.111,0.112,0.279,0.112,0.502,0c0.169-0.056,0.309-0.224,0.419-0.503c0.112-0.112,0.169-0.278,0.169-0.502
		c0.056-0.168,0.083-0.42,0.083-0.755c0-0.391-0.027-0.698-0.083-0.922c-0.057-0.279-0.225-0.671-0.502-1.173
		c-0.393-0.839-0.645-1.509-0.756-2.013c-0.057-0.502-0.084-1.424-0.084-2.765l0.084-2.095l-0.586-1.509
		c-0.226-0.726-0.393-1.313-0.504-1.759c-0.111-0.504-0.084-0.671,0.084-0.504c0.058,0.056,0.811,1.621,2.264,4.694
		c1.787,3.743,2.877,6.063,3.27,6.957c0.445,0.894,0.725,1.396,0.838,1.508c0.225,0.056,0.392,0,0.502-0.168
		c0.168-0.056,0.225-0.195,0.168-0.419c0-0.223-0.811-2.402-2.431-6.537c-1.618-4.246-2.458-6.453-2.516-6.622
		c-0.056-0.111,0.337,0.252,1.175,1.091c0.837,0.782,1.396,1.34,1.676,1.676c0.057,0.111,0.168,0.362,0.335,0.753
		c0.169,0.391,0.363,0.783,0.587,1.174c0.336,0.949,0.67,1.621,1.006,2.011c0.336,0.447,0.782,0.895,1.342,1.341
		c0.838,0.615,1.396,1.09,1.677,1.425c0.278,0.335,0.476,0.755,0.586,1.258c0.167,0.67,0.419,0.838,0.756,0.503
		c0.11-0.169,0.166-0.447,0.166-0.839c0-0.447-0.11-0.865-0.335-1.257c-0.168-0.336-0.309-0.587-0.42-0.755
		c-0.167-0.167-0.529-0.502-1.088-1.005c-0.561-0.503-0.979-0.978-1.258-1.425c-0.279-0.446-0.586-1.118-0.924-2.012
		c-0.334-0.894-0.643-1.564-0.922-2.011c-0.277-0.503-0.697-1.062-1.257-1.676c-0.391-0.448-0.726-0.838-1.005-1.174
		c-0.279-0.447-0.393-0.698-0.335-0.754c0.056,0,2.263,1.957,6.62,5.867c2.738,2.514,4.218,3.828,4.441,3.938
		c0.112,0.056,0.195,0.085,0.252,0.085c0.11,0,0.194-0.029,0.252-0.085c0.111-0.167,0.166-0.306,0.166-0.418
		c0-0.168-0.139-0.364-0.418-0.587c-0.168-0.279-1.174-1.368-3.019-3.268c-1.844-1.899-3.463-3.575-4.86-5.028
		c-1.062-1.118-1.621-1.704-1.677-1.761c-0.055-0.111,0.337,0,1.175,0.335c0.726,0.336,1.396,0.643,2.012,0.922
		c0.503,0.28,1.201,0.866,2.095,1.761c0.446,0.334,0.839,0.67,1.174,1.006c0.392,0.334,0.67,0.53,0.839,0.586
		c0.111,0.112,0.361,0.223,0.754,0.335c0.336,0.112,0.728,0.224,1.174,0.336c0.783,0.279,1.367,0.531,1.76,0.753
		c0.391,0.168,0.755,0.447,1.09,0.838c0.072,0.097,0.143,0.18,0.21,0.252c-0.499,0.912-1.017,1.806-1.551,2.682
		c-0.056,0.056-0.111,0.112-0.168,0.167c0,0.056,0,0.112,0,0.168c-2.013,3.072-4.246,5.727-6.705,7.961
		c-0.392,0.335-0.781,0.643-1.173,0.922c-6.313,5.085-13.049,5.085-20.199,0c-0.447-0.279-0.893-0.587-1.34-0.922
		C147.542,136.307,146.047,134.938,144.54,133.373z M140.475,130.398c1.788,2.981,3.408,5.65,4.861,8.004
		c1.901,3.185,3.493,5.783,4.777,7.795h-12.654c-1.509-2.459-3.157-5.057-4.945-7.795c-3.354-5.196-7.18-10.895-11.482-17.097
		c-0.279-0.335-0.503-0.642-0.67-0.922c-2.403-3.464-4.973-7.068-7.71-10.811c-3.129-4.414-6.481-9.052-10.058-13.914
		c-0.056-0.111-0.139-0.223-0.251-0.334c-2.682-3.632-5.336-7.236-7.962-10.812h127.813c-0.278,0.391-0.56,0.783-0.838,1.174
		c-0.392,0.447-0.783,0.894-1.174,1.34c-0.279,0.447-0.558,0.838-0.837,1.174c-1.622,2.178-3.157,4.218-4.61,6.118
		c-0.334,0.447-0.698,0.894-1.09,1.34c-4.356,5.812-7.851,10.449-10.478,13.914c-1.451,1.787-2.624,3.296-3.519,4.525
		c-1.174,1.453-2.459,3.185-3.855,5.196c-0.225,0.335-0.477,0.698-0.755,1.089c-0.167,0.28-0.362,0.587-0.587,0.922
		c-1.676,2.402-3.521,5.14-5.532,8.214c-1.787,2.737-3.714,5.699-5.782,8.883c-0.67,1.118-1.367,2.235-2.095,3.353
		c-0.95,1.564-1.872,3.046-2.767,4.442h-6.453c1.341-2.459,2.654-5.057,3.938-7.795c0.726-1.676,1.481-3.38,2.263-5.112
		c0.504-1.229,1.033-2.486,1.594-3.771c0-0.112,0.027-0.224,0.083-0.336c0.28-0.782,0.56-1.537,0.839-2.263
		c0.035-0.088,0.063-0.172,0.084-0.251c0.089-0.225,0.173-0.448,0.251-0.67c0.374-0.943,0.711-1.838,1.006-2.683
		c0.183-0.472,0.349-0.919,0.502-1.34c0.541,0.154,0.877,0.21,1.007,0.167c0.168-0.112,0.25-0.252,0.25-0.419
		c-0.055-0.167-0.166-0.28-0.332-0.335c-0.058-0.056-0.252-0.167-0.588-0.335c0.069-0.236,0.124-0.46,0.167-0.67
		c-0.077,0.192-0.176,0.401-0.294,0.629c-0.336-0.164-0.796-0.374-1.382-0.629c-1.342-0.614-2.851-1.285-4.526-2.011
		c-1.73-0.783-3.24-1.453-4.524-2.012l-1.845-0.921c-0.056-0.112,0.53-0.14,1.761-0.084c1.174,0.056,2.012,0.14,2.514,0.251
		c0.447,0.112,1.09,0.336,1.927,0.671c0.896,0.391,1.566,0.615,2.014,0.671c0.445,0.111,1.033,0.139,1.76,0.083
		c1.117-0.112,1.898-0.168,2.347-0.168c0.503,0.057,0.923,0.196,1.257,0.419c0.393,0.168,0.672,0.252,0.838,0.252
		c0.17-0.057,0.252-0.167,0.252-0.335c0-0.224-0.166-0.475-0.502-0.754c-0.334-0.335-0.697-0.559-1.09-0.671
		c-0.391-0.167-1.174-0.251-2.347-0.251c-0.95,0-1.677-0.028-2.181-0.083c-0.446-0.112-1.088-0.364-1.928-0.755
		c-0.894-0.446-1.592-0.726-2.095-0.837c-0.446-0.112-1.034-0.196-1.76-0.252c-0.671-0.055-1.313-0.14-1.929-0.251
		c-0.67-0.112-0.949-0.195-0.838-0.252c0-0.056,1.928-0.14,5.783-0.252c4.189-0.111,6.788-0.195,7.793-0.251
		c1.008-0.112,1.564-0.195,1.678-0.251c0.111-0.168,0.168-0.28,0.168-0.335c0-0.056-0.057-0.168-0.168-0.335
		c-0.112-0.056-0.644-0.14-1.592-0.252c-0.951,0-3.576-0.083-7.879-0.251c-1.453-0.056-2.709-0.083-3.771-0.083l-1.676-0.167
		l0.082-0.083c0.058,0,0.141-0.029,0.252-0.085c1.678-0.67,2.738-1.061,3.187-1.172c0.502-0.112,1.425-0.196,2.765-0.252h2.432
		l3.521-1.843l1.09,0.083c0.446,0,0.752-0.028,0.922-0.083c0.166,0,0.25-0.029,0.25-0.084c0-0.335-0.168-0.587-0.502-0.754
		c-0.392-0.167-0.896-0.252-1.51-0.252c-0.447,0-0.781,0.029-1.005,0.084c-0.28,0.055-0.698,0.224-1.258,0.502
		c-0.839,0.391-1.426,0.615-1.759,0.67c-0.28,0.057-1.26,0.084-2.934,0.084h-2.433l-1.425,0.502
		c-0.949,0.336-1.594,0.503-1.928,0.503c-0.225-0.056-0.278-0.112-0.168-0.167c0.111-0.112,0.67-0.363,1.676-0.755
		c7.543-3.352,11.371-5.084,11.482-5.196c0.168-0.112,0.25-0.251,0.25-0.419c-0.055-0.111-0.139-0.223-0.25-0.334
		c-0.056-0.056-0.111-0.084-0.168-0.084c-0.168,0-0.447,0.084-0.839,0.252c-0.56,0.167-2.821,0.977-6.787,2.43
		c-4.19,1.508-6.286,2.235-6.286,2.179c-0.057-0.056,0.307-0.447,1.09-1.173c0.838-0.727,1.397-1.202,1.677-1.425
		c0.167-0.111,0.475-0.279,0.921-0.502c0.393-0.167,0.811-0.336,1.258-0.503c0.895-0.39,1.592-0.753,2.096-1.089
		c0.504-0.279,0.896-0.615,1.174-1.006c0.613-0.781,1.146-1.368,1.594-1.76c0.502-0.392,0.949-0.614,1.34-0.67
		c0.67-0.112,0.839-0.363,0.502-0.754c-0.167-0.168-0.418-0.251-0.754-0.251c-0.391,0-0.811,0.112-1.258,0.336
		c-0.277,0.111-0.53,0.251-0.754,0.419c-0.224,0.167-0.56,0.475-1.006,0.921c-0.672,0.67-1.229,1.145-1.677,1.425
		c-0.503,0.279-1.284,0.615-2.347,1.006c-0.838,0.279-1.452,0.559-1.844,0.838c-0.447,0.167-0.922,0.502-1.426,1.005
		c-0.558,0.503-1.062,0.894-1.509,1.173c-0.446,0.279-0.643,0.335-0.586,0.168c0-0.112,2.459-2.71,7.375-7.794
		c0.949-1.006,1.621-1.733,2.013-2.179c0.445-0.447,0.67-0.727,0.67-0.838c0-0.111-0.057-0.224-0.168-0.334
		c-0.057-0.112-0.168-0.168-0.336-0.168c-0.109,0-0.586,0.391-1.425,1.173c-0.894,0.727-2.681,2.319-5.362,4.778
		c-2.737,2.514-4.136,3.744-4.191,3.688c-0.057-0.055,0.169-0.586,0.672-1.592c0.445-1.006,0.782-1.676,1.005-2.011
		c0.168-0.167,0.362-0.419,0.587-0.754c0.336-0.335,0.643-0.615,0.922-0.838c0.67-0.67,1.174-1.229,1.51-1.676
		c0.223-0.447,0.476-1.09,0.754-1.928c0.279-0.838,0.531-1.453,0.754-1.844c0.225-0.391,0.504-0.726,0.839-1.006
		c0.335-0.167,0.503-0.334,0.503-0.502c0.057-0.167-0.027-0.28-0.252-0.336c-0.335-0.111-0.727-0.027-1.173,0.252
		c-0.447,0.279-0.839,0.642-1.175,1.09c-0.055,0.111-0.139,0.307-0.25,0.586c-0.111,0.28-0.225,0.531-0.336,0.755
		c-0.225,0.726-0.475,1.257-0.754,1.593c-0.279,0.39-0.895,1.061-1.845,2.011c-0.894,0.894-1.452,1.48-1.676,1.761
		c-0.28,0.334-0.56,0.809-0.838,1.423c-0.169,0.391-0.362,0.755-0.587,1.09s-0.393,0.53-0.504,0.586l-0.252,0.252
		c-0.057,0-0.057-0.029,0-0.084l2.431-6.537c0.672-1.732,1.257-3.269,1.761-4.609c0.447-1.341,0.698-2.068,0.756-2.179
		c0.055-0.336,0.026-0.531-0.084-0.587c-0.057-0.112-0.195-0.14-0.421-0.084c-0.11,0.057-0.335,0.391-0.67,1.006
		c-0.335,0.615-1.2,2.486-2.599,5.615c-1.619,3.408-2.542,5.308-2.766,5.7l-0.42,0.754v-1.508c0-1.061,0.059-1.872,0.168-2.431
		c0.168-0.615,0.447-1.397,0.838-2.346l0.756-1.677l-0.084-1.425c-0.058-1.62-0.058-2.598,0-2.933c0-0.391,0.084-0.755,0.25-1.089
		c0.226-0.336,0.336-0.587,0.336-0.755c-0.057-0.167-0.168-0.251-0.336-0.251c-0.277,0-0.529,0.14-0.752,0.419
		c-0.28,0.224-0.504,0.531-0.672,0.922c-0.113,0.28-0.195,0.559-0.252,0.838c0,0.28-0.027,0.837-0.084,1.676
		c0,1.006-0.026,1.676-0.082,2.012c-0.113,0.336-0.447,1.118-1.008,2.347c-0.392,0.837-0.613,1.425-0.67,1.76
		c-0.111,0.391-0.195,1.089-0.252,2.096c-0.056,0.39-0.109,0.753-0.167,1.089c-0.056,0.334-0.112,0.587-0.168,0.754
		c-0.112,0.167-0.167,0.224-0.167,0.167l-0.085-0.838c-0.056-0.783-0.112-2.459-0.167-5.028c-0.168-4.079-0.277-6.482-0.336-7.208
		c-0.055-0.838-0.111-1.313-0.167-1.425c-0.112-0.168-0.226-0.28-0.335-0.336c-0.112,0-0.223,0.084-0.335,0.252
		c-0.112,0.111-0.196,0.698-0.252,1.759c-0.056,1.006-0.14,3.241-0.251,6.705c-0.113,2.961-0.196,4.722-0.252,5.28l-0.084,0.838
		l-0.252-0.753c-0.278-0.503-0.529-1.146-0.754-1.929c-0.279-0.558-0.42-1.005-0.42-1.341c-0.056-0.279-0.111-1.006-0.166-2.179
		l-0.084-2.347l-0.502-1.089c-0.729-1.285-1.146-2.124-1.26-2.515c-0.111-0.334-0.111-0.782,0-1.34c0.057-0.336,0.057-0.532,0-0.587
		c-0.056-0.112-0.223-0.112-0.503,0c-0.224,0-0.419,0.168-0.586,0.502c-0.11,0.336-0.168,0.755-0.168,1.257
		c0,0.391,0.028,0.699,0.084,0.922c0.058,0.224,0.224,0.615,0.503,1.173c0.393,0.838,0.614,1.509,0.67,2.012
		c0.112,0.503,0.169,1.425,0.169,2.766v2.095l0.503,1.593c0.223,0.67,0.391,1.257,0.502,1.759c0.112,0.503,0.086,0.671-0.084,0.503
		c-0.056-0.112-0.67-1.425-1.843-3.939c-2.012-4.247-3.242-6.845-3.689-7.794c-0.446-0.95-0.726-1.453-0.837-1.509
		c-0.168-0.056-0.308-0.056-0.42,0c-0.112,0.112-0.196,0.224-0.251,0.335c-0.056,0.056,0.168,0.726,0.671,2.012
		c0.446,1.285,1.032,2.905,1.759,4.861c1.732,4.415,2.57,6.621,2.515,6.621c0,0.057-0.142-0.056-0.42-0.334
		c-0.278-0.28-0.614-0.615-1.006-1.006c-0.726-0.782-1.229-1.37-1.508-1.759c-0.279-0.392-0.616-1.091-1.007-2.096
		c-0.279-0.671-0.586-1.229-0.92-1.676c-0.336-0.448-0.811-0.922-1.425-1.425c-0.672-0.503-1.146-0.922-1.425-1.257
		c-0.335-0.391-0.531-0.727-0.586-1.006c-0.112-0.447-0.196-0.698-0.252-0.755c-0.056-0.111-0.139-0.167-0.251-0.167
		c-0.335,0-0.502,0.251-0.502,0.754c-0.058,0.503,0.055,1.062,0.333,1.677c0.168,0.279,0.336,0.53,0.505,0.754
		c0.223,0.224,0.502,0.475,0.837,0.754c0.558,0.503,1.005,0.978,1.342,1.424c0.335,0.504,0.67,1.174,1.005,2.012
		c0.335,1.007,0.643,1.704,0.922,2.096c0.223,0.447,0.616,0.978,1.173,1.592c0.502,0.559,0.895,1.061,1.174,1.509
		c0.335,0.447,0.363,0.586,0.084,0.419c-0.225-0.168-1.341-1.174-3.353-3.018c-4.022-3.632-6.313-5.671-6.872-6.119
		c-0.447-0.391-0.728-0.614-0.838-0.67c-0.111,0-0.223,0.056-0.335,0.168c-0.056,0-0.083,0.027-0.083,0.083l-0.085,0.167
		c0,0.167,0.168,0.447,0.503,0.838c0.391,0.446,0.978,1.061,1.76,1.843c1.787,1.9,3.52,3.715,5.195,5.448
		c1.677,1.732,2.515,2.625,2.515,2.681c0,0.057-0.42-0.083-1.257-0.419c-0.782-0.334-1.425-0.642-1.928-0.921
		c-0.56-0.279-1.284-0.838-2.179-1.677c-0.838-0.782-1.452-1.313-1.844-1.593c-0.447-0.279-1.117-0.558-2.012-0.837
		c-0.838-0.224-1.425-0.419-1.76-0.586c-0.335-0.168-0.67-0.448-1.005-0.838c-0.224-0.281-0.393-0.419-0.503-0.419
		c-0.112-0.112-0.195-0.112-0.251,0c-0.335,0.167-0.335,0.558,0,1.173c0.335,0.615,0.838,1.089,1.508,1.425
		c0.167,0.112,0.587,0.279,1.257,0.503c0.727,0.224,1.313,0.503,1.76,0.838c0.503,0.335,1.062,0.837,1.677,1.509
		c0.67,0.726,1.201,1.229,1.593,1.509c0.391,0.279,1.004,0.642,1.842,1.089c0.391,0.167,0.755,0.363,1.09,0.586
		c0.335,0.167,0.56,0.307,0.671,0.419l0.25,0.334l-6.034-2.095c-4.078-1.509-6.537-2.402-7.375-2.681
		c-0.502-0.112-0.838-0.141-1.005-0.084c-0.112,0-0.168,0.112-0.168,0.336c0,0.111,0.112,0.251,0.335,0.418
		c0.225,0.168,0.699,0.392,1.425,0.671c2.347,1.061,4.86,2.179,7.543,3.352c2.625,1.174,3.966,1.789,4.022,1.844
		c0.056,0.111-0.027,0.167-0.252,0.167c-0.279,0-0.753-0.028-1.425-0.084c-1.173-0.056-2.012-0.112-2.514-0.168
		c-0.447-0.111-1.09-0.335-1.927-0.67c-1.063-0.447-1.816-0.698-2.263-0.754c-0.503-0.112-1.257-0.112-2.263,0
		c-0.949,0.112-1.592,0.14-1.927,0.083c-0.393-0.055-0.838-0.224-1.341-0.502c-0.279-0.112-0.475-0.167-0.587-0.167
		c-0.168,0.055-0.251,0.167-0.251,0.334c0,0.28,0.139,0.531,0.419,0.755c0.335,0.279,0.698,0.502,1.089,0.67
		c0.279,0.056,0.56,0.112,0.838,0.168c0.335,0.055,0.866,0.083,1.592,0.083c1.007,0,1.733,0.029,2.18,0.084
		c0.502,0.111,1.201,0.391,2.095,0.838c0.782,0.391,1.425,0.642,1.927,0.753c0.447,0.112,1.09,0.195,1.928,0.252
		c0.56,0.055,1.146,0.139,1.76,0.251c0.67,0.111,0.949,0.195,0.838,0.251L145,111.08c-1.564,0.055-4.442,0.167-8.632,0.335
		c-1.452,0-2.514,0.028-3.185,0.084c-0.614,0.056-0.949,0.112-1.005,0.168c-0.225,0.111-0.335,0.251-0.335,0.419
		c0,0.111,0.083,0.196,0.25,0.251c0.112,0.056,1.034,0.139,2.767,0.251c1.788,0.056,3.939,0.14,6.454,0.251
		c3.799,0.056,5.643,0.168,5.532,0.336c-0.058,0.056-0.391,0.196-1.007,0.419c-0.67,0.224-1.285,0.447-1.843,0.67
		c-0.391,0.112-0.782,0.195-1.173,0.251c-0.393,0.056-1.118,0.112-2.18,0.167h-2.43l-1.677,0.922
		c-0.893,0.391-1.563,0.671-2.01,0.838c-0.391,0.112-0.811,0.112-1.257,0c-0.336-0.056-0.56-0.056-0.671,0
		c-0.111,0.112-0.14,0.28-0.083,0.503c0.167,0.446,0.81,0.67,1.927,0.67c0.503,0,0.866-0.028,1.09-0.083
		c0.225-0.057,0.614-0.195,1.174-0.419c0.335-0.167,0.697-0.336,1.09-0.503c0.335-0.111,0.558-0.195,0.67-0.251
		c0.167,0,0.531-0.027,1.09-0.083c0.614,0,1.257,0,1.927,0l2.432-0.084l1.34-0.419c0.893-0.334,1.508-0.475,1.843-0.419h0.335
		c0,0.056-0.252,0.196-0.754,0.419c-0.559,0.28-3.297,1.509-8.214,3.688c-1.539,0.677-2.656,1.18-3.352,1.508
		c-0.063-0.093-0.117-0.177-0.168-0.251c0.029,0.087,0.071,0.184,0.126,0.293c-0.563,0.227-0.856,0.353-0.879,0.377
		c-0.112,0.112-0.168,0.251-0.168,0.419c0,0.112,0.056,0.224,0.168,0.336c0.056,0.055,0.139,0.083,0.25,0.083
		c0.168,0,0.447-0.083,0.838-0.25c0.063-0.017,0.148-0.045,0.251-0.085c0.703,1.213,1.388,2.386,2.053,3.52
		c-0.274,0.112-0.538,0.168-0.795,0.168c-0.168,0-0.28,0.055-0.336,0.167c0,0.168,0.056,0.335,0.168,0.502
		c0.111,0.167,0.362,0.252,0.753,0.252c0.246,0,0.497-0.042,0.755-0.126c0.658,1.122,1.287,2.21,1.886,3.269
		c-0.196,0.22-0.294,0.374-0.294,0.461c0,0.056,0.029,0.112,0.085,0.167c0.167,0.167,0.279,0.252,0.335,0.252
		C140.211,130.525,140.323,130.481,140.475,130.398z M182.213,121.934c-0.459,1.223-0.961,2.396-1.508,3.519
		c-0.234-0.481-0.682-0.915-1.342-1.299c-0.168-0.111-0.67-0.335-1.51-0.67c-0.726-0.224-1.313-0.502-1.76-0.838
		c-0.502-0.336-1.09-0.838-1.76-1.508c-0.671-0.727-1.174-1.229-1.509-1.509c-0.446-0.28-1.032-0.615-1.761-1.006
		c-1.174-0.615-1.844-1.006-2.01-1.173c-0.168-0.224,0.278-0.14,1.34,0.251l4.524,1.676c3.745,1.341,6.063,2.152,6.957,2.431
		C182.006,121.851,182.116,121.893,182.213,121.934z M135.656,121.849c0.93-0.292,3.012-1.032,6.245-2.22
		c4.19-1.509,6.313-2.263,6.369-2.263c0.056,0.056-0.308,0.447-1.09,1.173c-0.837,0.727-1.396,1.202-1.675,1.425
		c-0.168,0.112-0.475,0.28-0.922,0.503c-0.447,0.223-0.894,0.419-1.341,0.586c-1.005,0.391-1.704,0.727-2.095,1.006
		c-0.391,0.28-0.811,0.699-1.257,1.257c-0.671,0.783-1.229,1.37-1.677,1.761c-0.081,0.054-0.166,0.109-0.251,0.167
		c-0.107-0.173-0.219-0.34-0.335-0.502C136.967,123.801,136.311,122.837,135.656,121.849z M140.685,128.89
		c-0.671-0.874-1.355-1.781-2.054-2.724c0.28-0.112,0.56-0.251,0.838-0.419c0.224-0.167,0.56-0.503,1.006-1.006
		c0.67-0.67,1.229-1.117,1.675-1.34c0.447-0.28,1.202-0.615,2.264-1.006c0.838-0.28,1.481-0.531,1.928-0.755
		c0.335-0.279,0.81-0.67,1.424-1.173c0.393-0.335,0.838-0.671,1.341-1.006c0.503-0.28,0.755-0.364,0.755-0.251l-4.442,4.609
		C143.012,126.356,141.433,128.046,140.685,128.89z M141.313,129.728c0.804-0.724,2.341-2.135,4.609-4.232l2.766-2.431
		c0.28-0.279,0.784-0.726,1.51-1.341c0.67-0.615,1.005-0.895,1.005-0.837c0,0.11-0.195,0.642-0.587,1.592
		c-0.446,0.95-0.782,1.564-1.005,1.843c-0.057,0.168-0.279,0.447-0.67,0.838c-0.336,0.336-0.671,0.698-1.007,1.089
		c-0.726,0.67-1.229,1.258-1.508,1.761c-0.335,0.447-0.587,1.062-0.755,1.843c-0.223,0.671-0.446,1.201-0.67,1.593
		c-0.223,0.446-0.503,0.782-0.838,1.006c-0.107,0.074-0.204,0.144-0.293,0.21C143.03,131.745,142.178,130.768,141.313,129.728z"/>
</g>
</svg>
