<?xml version="1.0" encoding="utf-8"?>
<!-- Generator: Adobe Illustrator 16.0.0, SVG Export Plug-In . SVG Version: 6.00 Build 0)  -->
<!DOCTYPE svg PUBLIC "-//W3C//DTD SVG 1.1//EN" "http://www.w3.org/Graphics/SVG/1.1/DTD/svg11.dtd">
<svg version="1.1" id="Layer_1" xmlns="http://www.w3.org/2000/svg" xmlns:xlink="http://www.w3.org/1999/xlink" x="0px" y="0px"
	 width="300px" height="300px" viewBox="0 0 300 300" enable-background="new 0 0 300 300" xml:space="preserve">
<g>
	<path fill-rule="evenodd" clip-rule="evenodd" fill="#010101" d="M145.206,90.165c0.746,1.322,1.432,2.646,2.064,3.968l-0.86,0.517
		c-10.834-15.347-22.786-27.332-35.856-35.954c-3.152-2.126-6.361-3.966-9.629-5.517c-16.681,52.477-17.455,111.222-2.321,176.23
		c15.133,10.117,31.584,18.969,49.353,26.557c12.555-6.553,27.802-16.468,45.744-29.746c3.323-2.472,6.763-5.059,10.318-7.76
		c20.807-16.784,37.46-32.331,49.956-46.644c7.738-8.853,14.272-17.934,19.604-27.245c6.247-10.98,10.088-21.01,11.521-30.091
		c1.836-10.979,0.401-21.009-4.299-30.091c-3.898-8.276-10.776-16.267-20.636-23.97c-10.948-6.552-21.839-10.086-32.674-10.604
		c-9.572-0.402-19.031,1.753-28.375,6.466c-1.662,0.805-3.323,1.725-4.986,2.758c-9,5.576-17.828,13.968-26.483,25.177
		c-4.7,5.862-9.171,12.53-13.413,20.002c-2.121,3.737-4.213,7.674-6.277,11.811l-1.031-0.343c1.605-4.656,3.525-9.37,5.76-14.141
		c3.098-6.668,6.765-13.393,11.007-20.175c7.91-11.957,16.682-21.412,26.311-28.366c3.612-2.587,7.366-4.799,11.264-6.639
		c2.121-1.035,4.271-1.955,6.449-2.76c6.707-2.241,13.357-3.361,19.949-3.361c12.382,0,25.163,3.678,38.348,11.035h0.172
		l0.344,0.345c11.178,7.875,19.463,16.956,24.85,27.245c3.096,6.036,5.045,12.185,5.848,18.451
		c1.089,5.979,1.031,12.359-0.173,19.14c-1.891,11.325-6.306,22.705-13.242,34.145c-6.019,9.944-13.211,19.457-21.581,28.538
		c-14.33,16.036-31.928,31.557-52.794,46.559c-4.356,3.161-9.143,6.467-14.358,9.915c-4.587,2.989-9.516,6.122-14.789,9.398
		c-11.522,6.955-21.869,12.442-31.041,16.468l-1.29,0.517l-1.031-0.517c-16.909-8.394-32.616-17.418-47.119-27.073
		c-14.273-9.542-27.342-19.716-39.208-30.521c-14.501-13.22-26.225-26.152-35.167-38.799
		c-11.636-16.497-19.002-32.649-22.097-48.455c-1.777-9.943-1.777-19.113,0-27.504C5.224,79.475,9.18,70.967,15.199,63.61
		c5.617-6.84,12.926-12.502,21.926-16.986c8.197-4.368,16.824-7.069,25.88-8.103c8.656-1.208,17.741-0.316,27.256,2.673
		c4.415,1.378,8.684,3.218,12.812,5.518c3.784,2.068,7.452,4.483,11.007,7.241c6.477,4.83,12.725,10.951,18.743,18.366
		C137.638,78.123,141.766,84.072,145.206,90.165z"/>
	<path fill-rule="evenodd" clip-rule="evenodd" fill="#ED2224" d="M193.7,226.219c-7.682-58.227-5.876-114.872,5.416-169.937
		c9.344-4.713,18.803-6.869,28.375-6.466c10.835,0.517,21.726,4.051,32.674,10.604c9.859,7.703,16.737,15.693,20.636,23.97
		c4.7,9.082,6.135,19.111,4.299,30.091c-1.433,9.082-5.273,19.111-11.521,30.091c-5.332,9.311-11.866,18.392-19.604,27.245
		c-12.496,14.313-29.149,29.859-49.956,46.644C200.463,221.16,197.023,223.747,193.7,226.219z"/>
	<path fill-rule="evenodd" clip-rule="evenodd" fill="#FEDA0A" d="M199.116,56.282c-11.292,55.065-13.098,111.71-5.416,169.937
		c-17.942,13.278-33.189,23.193-45.744,29.746c-17.769-7.588-34.22-16.439-49.353-26.557c-15.134-65.008-14.36-123.753,2.321-176.23
		c3.268,1.551,6.478,3.39,9.629,5.517c13.071,8.622,25.022,20.607,35.856,35.954l0.86-0.517c-0.632-1.322-1.318-2.646-2.064-3.968
		c2.636,3.909,5.13,7.702,7.479,11.382c-2.234,4.771-4.154,9.484-5.76,14.141l1.031,0.343c2.064-4.137,4.156-8.074,6.277-11.811
		c4.242-7.472,8.713-14.14,13.413-20.002c8.655-11.208,17.483-19.601,26.483-25.177C195.793,58.006,197.454,57.086,199.116,56.282z"
		/>
</g>
</svg>
