<?xml version="1.0" encoding="utf-8"?>
<!-- Generator: Adobe Illustrator 16.0.0, SVG Export Plug-In . SVG Version: 6.00 Build 0)  -->
<!DOCTYPE svg PUBLIC "-//W3C//DTD SVG 1.1//EN" "http://www.w3.org/Graphics/SVG/1.1/DTD/svg11.dtd">
<svg version="1.1" id="Layer_1" xmlns="http://www.w3.org/2000/svg" xmlns:xlink="http://www.w3.org/1999/xlink" x="0px" y="0px"
	 width="300px" height="300px" viewBox="0 0 300 300" enable-background="new 0 0 300 300" xml:space="preserve">
<g>
	<path fill-rule="evenodd" clip-rule="evenodd" fill="#010101" d="M127.132,79.212c-0.058-0.677-0.113-1.381-0.169-2.114
		c-0.057-0.225-0.085-0.423-0.085-0.592c-0.507-0.113-1.013-0.253-1.521-0.423c-2.028-0.733-4.114-1.776-6.255-3.128
		c-0.959-0.676-1.945-1.409-2.959-2.197c-1.747-1.41-3.578-3.072-5.495-4.988c-0.058-0.056-0.085-0.113-0.085-0.169
		c-0.057-0.113-0.112-0.197-0.169-0.254c-0.112-0.056-0.197-0.113-0.253-0.168c-0.112-0.113-0.169-0.198-0.169-0.254
		c-0.055-0.056-0.112-0.113-0.168-0.169c-2.368-2.592-4.283-5.156-5.749-7.693c-1.521-2.761-2.479-5.439-2.874-8.031
		c-0.225-1.409-0.282-2.819-0.169-4.227c-0.789,0.451-1.549,0.958-2.283,1.522v-0.084l-0.76,0.676
		c-0.733,0.62-1.465,1.324-2.199,2.114c0,0.056-0.027,0.112-0.084,0.169c-0.338,0.281-0.62,0.563-0.845,0.845
		c-0.113,0.168-0.198,0.31-0.254,0.423c-0.057,0-0.113,0.056-0.169,0.168c-0.056,0.057-0.113,0.113-0.169,0.169l-7.948,13.357
		c-0.168,0.395-0.365,0.79-0.591,1.184c-0.057,0.169-0.113,0.339-0.169,0.507l-1.86,4.313c-0.282,0.676-0.592,1.408-0.93,2.197
		c0,0.056,0,0.142,0,0.254l-0.507,0.93c-0.056,0.057-0.084,0.141-0.084,0.254c-0.113,0.338-0.253,0.704-0.422,1.099l-2.113,4.313
		c-0.339,0.563-0.677,1.127-1.015,1.69c-1.015,1.578-2.058,3.015-3.128,4.312c-3.719,4.058-8.003,6.087-12.851,6.087
		c0.113,0.169,0.169,0.367,0.169,0.592c0.338,0.788,0.648,1.578,0.931,2.367c0.676,1.521,1.268,3.043,1.774,4.564
		c0.057,0.169,0.141,0.311,0.253,0.423c0.226,0.564,0.423,1.1,0.592,1.606c0.057,0.169,0.142,0.367,0.254,0.592l0.676,2.198
		c0.62,1.521,1.156,3.015,1.606,4.48c0.056,0.169,0.113,0.338,0.169,0.508c0.395,1.521,0.789,2.958,1.183,4.311
		c0.282,0.845,0.507,1.719,0.677,2.621c2.254,9.074,2.451,15.837,0.591,20.29c-2.649,6.48-9.384,8.229-20.205,5.241
		c-0.113,0-0.225,0-0.338,0c-0.056-0.057-0.14-0.084-0.254-0.084c-0.113-0.057-0.253-0.114-0.422-0.17
		c-1.015-0.281-2.058-0.592-3.128-0.93c-3.157-1.128-6.51-2.508-10.06-4.143c-0.169-0.112-0.367-0.226-0.592-0.338
		c-0.395-0.226-0.846-0.451-1.353-0.677c-1.691-0.846-3.438-1.747-5.241-2.705c-0.113-0.113-0.254-0.197-0.422-0.254
		c2.536,3.833,4.875,7.355,7.017,10.567c0.563,0.789,1.099,1.551,1.606,2.283c5.524,8.397,9.722,14.71,12.596,18.937
		c0.169,0.339,0.367,0.649,0.592,0.931c0.056,0.169,0.169,0.339,0.338,0.508c0.563,0.845,1.127,1.662,1.69,2.45
		c0,0.058,0.029,0.086,0.085,0.086c2.536,3.607,5.523,7.186,8.961,10.735c0.901,1.017,1.832,2.03,2.79,3.044
		c2.875,2.875,5.975,5.749,9.299,8.624c0.338,0.282,0.677,0.563,1.015,0.845c0.901,0.788,1.776,1.521,2.621,2.199
		c0.056,0.28,0.112,0.564,0.168,0.845c0,0.168,0.029,0.366,0.085,0.591c0,1.522-0.451,3.157-1.353,4.904
		c-0.394,0.732-0.846,1.492-1.353,2.282c-0.056,0.056-0.113,0.112-0.169,0.17c-1.466,2.142-3.522,4.423-6.171,6.848
		c1.972,1.014,4.03,1.833,6.171,2.451c12.399,3.664,27.138-0.255,44.215-11.751h0.337c-3.1,5.354-5.861,10.511-8.285,15.471
		c-0.675,1.408-1.295,2.79-1.86,4.144c-2.649,5.58-4.791,10.905-6.424,15.978c-3.89,11.441-5.665,21.812-5.327,31.111
		c4.847-1.973,9.977-0.985,15.387,2.958c-2.649-11.103-3.27-22.459-1.86-34.069c0.62-5.299,1.662-10.624,3.127-15.978
		c0.339-1.354,0.733-2.735,1.184-4.144c1.522-4.96,3.438-9.976,5.75-15.048c0-0.056,0.028-0.085,0.084-0.085
		c1.184,0,1.776,0.029,1.776,0.085c3.945,5.523,7.496,10.54,10.652,15.048c0.395,0.62,0.79,1.183,1.184,1.692
		c0.394,0.675,0.846,1.353,1.352,2.027c0.114,0.111,0.226,0.255,0.339,0.424c1.015,1.466,1.973,2.845,2.874,4.143
		c3.326,4.902,5.946,8.849,7.863,11.835c0.731,1.128,1.324,2.142,1.774,3.043c0-1.127,0.113-2.139,0.339-3.043
		c0.958-5.015,4.789-6.903,11.498-5.664c4.732,0.62,9.101,2.509,13.103,5.664c1.804,1.464,3.581,3.214,5.327,5.241
		c6.876-3.381,17.472-3.606,31.787-0.675c12.737,3.946,19.106,5.662,19.106,5.155c-4.228-3.438-7.834-6.679-10.821-9.722
		c-5.919-6.031-9.581-11.354-10.991-15.978c-0.393-1.409-0.591-2.79-0.591-4.144c0-2.874,1.099-5.438,3.297-7.693
		c3.155-3.155,8.904-5.747,17.247-7.777c7.383-1.803,16.852-3.184,28.405-4.144c-2.31-1.295-4.285-2.648-5.918-4.057
		c-0.507-0.396-0.959-0.789-1.352-1.184c-2.593-2.536-4.228-5.242-4.905-8.116c-0.224-1.127-0.337-2.312-0.337-3.552
		c0.058-1.069,0.226-2.196,0.506-3.381c0.452-2.028,1.269-4.086,2.452-6.172c0.227-0.394,0.48-0.789,0.762-1.183v-0.086
		c3.945-6.198,10.257-12.145,18.938-17.837c1.184-0.79,2.396-1.551,3.634-2.282c1.298-0.733,2.622-1.467,3.975-2.198
		c-6.933,1.973-14.063,1.973-21.39,0c-1.859-0.677-3.55-1.438-5.072-2.283c-5.636-3.212-9.609-8.116-11.921-14.71
		c-23.163,15.725-34.745,16.683-34.745,2.875c0-2.818,0.365-5.664,1.098-8.539c0.282-0.902,0.564-1.803,0.845-2.705
		c0.958-2.819,2.284-5.636,3.975-8.454c0.113-0.169,0.197-0.311,0.253-0.423c0.453-0.789,0.931-1.55,1.438-2.282
		c2.197-3.212,4.876-6.482,8.031-9.808c2.142-2.311,4.565-4.621,7.271-6.931c0.507-0.395,0.987-0.845,1.437-1.354
		c-8.398,2.537-14.089-1.353-17.076-11.667c-0.113-0.451-0.225-0.901-0.339-1.352c-0.396-1.973-0.762-4.087-1.099-6.34
		c-0.282-11.836-0.479-19.022-0.592-21.559c0-0.169,0-0.31,0-0.422c0-0.339,0-0.536,0-0.592c-0.057,0.169-0.141,0.367-0.253,0.592
		c-4.003,6.988-10.315,12.173-18.938,15.555c-6.652,2.142-11.555,2.001-14.711-0.422c-1.296-0.958-2.281-2.283-2.959-3.974
		c-0.056,0.114-0.084,0.283-0.084,0.508l-1.353,4.987c-0.227,0.564-0.423,1.156-0.593,1.776l-3.043,6.594
		c-0.564,1.127-1.24,2.227-2.029,3.297c-0.396,0.563-0.788,1.126-1.185,1.691c-2.084,2.93-4.563,5.749-7.438,8.454
		c-0.114,0.056-0.197,0.112-0.255,0.168c-0.676,0.62-1.324,1.184-1.944,1.69c-0.958,0.79-1.916,1.579-2.874,2.368
		c-0.452,0.338-0.875,0.62-1.268,0.845c-0.396,0.281-0.762,0.563-1.101,0.845c-0.337,0.226-0.676,0.451-1.014,0.677
		c-6.595,4.396-11.526,4.396-14.794,0c-0.452-0.733-0.902-1.522-1.353-2.367c-0.282-0.564-0.536-1.156-0.761-1.776
		c-0.113-0.169-0.226-0.31-0.338-0.423l0.084-0.169l0.085,0.085C128.175,86.848,127.526,83.382,127.132,79.212z M132.626,72.871
		v7.354c1.014,6.313,2.621,10.202,4.818,11.667c1.298,0.788,2.875,0.788,4.736,0c1.464-0.79,3.127-2.114,4.986-3.974
		c1.635-1.691,3.382-3.86,5.242-6.51c0.62-0.902,1.269-1.832,1.944-2.79c0.058-0.169,0.141-0.311,0.255-0.423
		c0.168-0.283,0.309-0.508,0.423-0.676c4.621-7.102,9.918-16.74,15.892-28.914c3.608,6.369,6.85,10.285,9.723,11.75
		c3.89,1.466,9.525-0.535,16.908-6.001c3.946-2.931,6.651-6.594,8.117-10.99c1.972-5.411,3.239-9.328,3.804-11.752l2.198,16.993
		c1.296,13.808,2.733,23.447,4.312,28.914c0.733,2.479,1.467,4.114,2.197,4.903c2.875,1.972,12.455,0.986,28.745-2.959
		c-5.919,5.128-10.483,9.271-13.695,12.428c-3.833,3.55-5.891,5.58-6.173,6.086c-0.282,0.282-0.563,0.564-0.845,0.845
		c-3.324,3.27-6.313,6.539-8.961,9.808c-0.113,0.169-0.255,0.337-0.423,0.506c-0.508,0.733-0.958,1.466-1.353,2.199
		c-1.749,2.592-3.298,5.27-4.649,8.031l-1.354,5.157c-4.339,13.977,4.594,13.3,26.8-2.029c1.069-0.732,2.198-1.522,3.382-2.367
		c0.281,0.79,0.621,1.578,1.014,2.367c1.747,3.438,4.396,6.538,7.947,9.299c3.381,2.536,7.524,4.763,12.429,6.679
		c9.355,3.946,16.682,5.187,21.98,3.72l-33.058,26.546c-1.013,2.086-1.155,4.313-0.423,6.68c0.228,0.901,0.621,1.86,1.185,2.873
		c0.508,1.017,1.156,2.03,1.945,3.044c2.029,2.762,4.988,5.637,8.876,8.624c0.396,0.395,0.874,0.787,1.438,1.184
		c3.552,2.705,7.806,5.552,12.766,8.538l-22.065,2.198c-24.179,1.972-36.691,6.285-37.537,12.935
		c-0.056,0.113-0.084,0.226-0.084,0.337c0,1.129,0.311,2.397,0.93,3.807c1.69,4.059,5.777,9.384,12.259,15.978
		c4.17,4.17,9.33,8.878,15.472,14.119l-14.71,1.605c-20.12-9.918-37.282-11.216-51.486-3.889
		c-5.919-6.087-10.624-10.031-14.118-11.836c-2.312-1.185-4.059-1.381-5.241-0.591c-0.226,0.168-0.452,0.365-0.677,0.591
		c-1.972,2.48-3.183,10.145-3.636,22.996c-5.354-8.735-10.06-16.401-14.118-22.996c-3.945-6.257-7.327-11.583-10.145-15.978
		c-1.014-1.467-1.944-2.848-2.789-4.144c-1.579-2.312-2.932-4.256-4.058-5.832v-0.084c-0.508-0.621-0.958-1.213-1.354-1.777
		c-1.127,2.479-2.113,5.045-2.958,7.693c-0.45,1.354-0.874,2.734-1.269,4.144c-1.352,4.96-2.282,10.285-2.789,15.978
		c-0.169,2.197-0.31,4.482-0.423,6.847c0,13.698,1.972,25.224,5.918,34.579c-9.3-5.861-18.656-7.806-28.068-5.835
		c-0.281-10.877,1.691-22.741,5.918-35.591c1.691-5.186,3.748-10.511,6.172-15.978c0.62-1.354,1.268-2.735,1.945-4.144
		c0.732-1.579,1.494-3.184,2.282-4.818c-5.411,2.084-10.258,3.691-14.541,4.818c-3.72,1.015-6.989,1.637-9.807,1.86
		c-2.931,0-6.03-0.395-9.299-1.185c-0.79-0.227-1.606-0.45-2.451-0.676c-4.227-1.24-8.68-3.1-13.358-5.58
		c1.579-1.237,2.988-2.425,4.227-3.55c5.242-4.452,8.286-7.665,9.131-9.639c-2.255-1.917-4.453-3.944-6.595-6.086
		c-2.479-2.423-4.959-4.987-7.439-7.693c-1.127-1.298-2.254-2.622-3.382-3.975c-1.465-1.747-2.903-3.521-4.312-5.325
		c-1.409-1.803-2.79-3.607-4.143-5.41v-0.086c-0.79-1.015-1.522-2-2.198-2.958c-0.733-1.015-1.465-2.086-2.199-3.213
		c-3.719-5.522-7.017-10.483-9.891-14.879c-5.524-8.397-9.666-14.542-12.428-18.431c-1.747-2.592-2.902-4.255-3.466-4.987
		c1.184,0.338,2.339,0.648,3.466,0.93c7.891,2.311,14.823,4.932,20.797,7.862l4.396,1.522c1.917,0.563,3.691,1.043,5.326,1.437
		c0.113,0,0.225,0.028,0.338,0.085c10.089,2.142,15.33-0.563,15.725-8.116c0-3.664-1.465-9.694-4.396-18.091
		c-0.563-1.691-1.211-3.495-1.944-5.412c-0.563-1.465-1.127-2.987-1.69-4.564L54.51,86.06c8.341-1.466,13.273-3.185,14.795-5.157
		c2.255-3.72,4.312-7.129,6.171-10.23c1.071-1.86,2.114-3.606,3.128-5.241c1.747-2.93,3.325-5.58,4.733-7.947
		c6.313-10.371,14.175-16.824,23.587-19.36C101.515,53.455,110.083,65.037,132.626,72.871z M106.926,132.218
		c0.79-1.126,1.549-2.198,2.284-3.212c4.282-5.579,9.919-9.102,16.907-10.567c6.933-1.634,13.5-0.874,19.699,2.283
		c0.9,0.564,1.943,1.24,3.127,2.029c6.989,4.565,11.301,11.159,12.936,19.782c0.395,1.409,0.647,2.848,0.762,4.313
		c0.056,1.803,0.056,3.579,0,5.326c-0.058,0.394-0.114,0.846-0.171,1.353c-0.507,4.565-2.084,8.876-4.734,12.934
		c-4.564,7.384-10.961,12.007-19.19,13.866c-8.002,1.859-15.556,0.395-22.657-4.397c-3.945-2.592-7.017-5.889-9.215-9.892
		c-1.861-2.816-3.128-6.114-3.805-9.89c-0.733-2.763-0.958-5.439-0.676-8.031c0.056-1.691,0.226-3.411,0.507-5.158
		C103.431,139.349,104.84,135.77,106.926,132.218z M161.793,151.917c0.169-1.635,0.141-3.324-0.084-5.072v-0.085
		c-0.169-1.408-0.339-2.762-0.508-4.058c-1.804-8.341-6.086-14.767-12.85-19.275c-1.07-0.789-2.058-1.409-2.96-1.86
		c-6.03-3.156-12.371-4.001-19.021-2.536c-6.819,1.635-12.343,5.101-16.57,10.398c-0.789,1.015-1.522,2.058-2.198,3.128
		c-1.917,3.326-3.296,6.763-4.142,10.314c0,0.056,0,0.17,0,0.338c-0.395,1.635-0.592,3.241-0.592,4.818v0.17
		c-0.056,2.536,0.197,5.128,0.76,7.777c0.79,3.607,2.057,6.848,3.804,9.724c2.143,3.719,5.102,6.932,8.877,9.637
		c6.876,4.565,14.26,5.917,22.15,4.059c7.947-1.691,14.146-6.144,18.6-13.359c2.536-3.943,4.028-8.115,4.48-12.511
		c0.112-0.507,0.195-0.986,0.253-1.438V151.917z"/>
	<path fill-rule="evenodd" clip-rule="evenodd" fill="#159E49" d="M127.132,79.212c0.394,4.17,1.043,7.636,1.944,10.398
		l-0.085-0.085l-0.084,0.169c0.113,0.113,0.226,0.253,0.338,0.423c0.225,0.62,0.479,1.212,0.761,1.776
		c0.451,0.845,0.901,1.634,1.353,2.367c3.269,4.396,8.2,4.396,14.794,0c0.338-0.226,0.677-0.451,1.014-0.677
		c0.339-0.282,0.705-0.564,1.101-0.845c0.393-0.225,0.815-0.507,1.268-0.845c0.958-0.79,1.916-1.579,2.874-2.368
		c0.62-0.506,1.269-1.071,1.944-1.69c0.058-0.056,0.141-0.113,0.255-0.168c2.874-2.706,5.354-5.524,7.438-8.454
		c0.396-0.564,0.789-1.128,1.185-1.691c0.789-1.071,1.465-2.17,2.029-3.297l3.043-6.594c0.17-0.62,0.366-1.212,0.593-1.776
		l1.353-4.987c0-0.226,0.028-0.395,0.084-0.508c0.678,1.691,1.663,3.016,2.959,3.974c3.156,2.424,8.059,2.564,14.711,0.422
		c8.622-3.381,14.935-8.566,18.938-15.555c0.112-0.225,0.196-0.423,0.253-0.592c0,0.057,0,0.253,0,0.592c0,0.112,0,0.253,0,0.422
		c0.113,2.537,0.31,9.723,0.592,21.559c0.337,2.253,0.703,4.367,1.099,6.34c0.114,0.451,0.226,0.901,0.339,1.352
		c2.987,10.314,8.678,14.203,17.076,11.667c-0.449,0.508-0.93,0.959-1.437,1.354c-2.705,2.311-5.129,4.621-7.271,6.931
		c-3.155,3.326-5.834,6.596-8.031,9.808c-0.508,0.732-0.985,1.493-1.438,2.282c-0.056,0.112-0.14,0.253-0.253,0.423
		c-1.69,2.818-3.017,5.635-3.975,8.454c-0.28,0.902-0.563,1.803-0.845,2.705c-0.732,2.875-1.098,5.72-1.098,8.539
		c0,13.809,11.582,12.851,34.745-2.875c2.312,6.594,6.285,11.499,11.921,14.71c1.522,0.846,3.213,1.606,5.072,2.283
		c7.327,1.973,14.457,1.973,21.39,0c-1.353,0.731-2.677,1.465-3.975,2.198c-1.237,0.731-2.45,1.492-3.634,2.282
		c-8.681,5.692-14.992,11.639-18.938,17.837v0.086c-0.281,0.394-0.535,0.789-0.762,1.183c-1.184,2.086-2,4.144-2.452,6.172
		c-0.28,1.185-0.448,2.312-0.506,3.381c0,1.24,0.113,2.425,0.337,3.552c0.678,2.874,2.313,5.58,4.905,8.116
		c0.393,0.395,0.845,0.787,1.352,1.184c1.633,1.408,3.608,2.762,5.918,4.057c-11.554,0.96-21.022,2.341-28.405,4.144
		c-8.343,2.03-14.092,4.622-17.247,7.777c-2.198,2.255-3.297,4.819-3.297,7.693c0,1.354,0.198,2.734,0.591,4.144
		c1.41,4.623,5.072,9.946,10.991,15.978c2.987,3.043,6.594,6.284,10.821,9.722c0,0.507-6.369-1.209-19.106-5.155
		c-14.315-2.932-24.911-2.706-31.787,0.675c-1.746-2.027-3.523-3.777-5.327-5.241c-4.002-3.155-8.37-5.044-13.103-5.664
		c-6.709-1.239-10.54,0.649-11.498,5.664c-0.226,0.904-0.339,1.916-0.339,3.043c-0.45-0.901-1.043-1.915-1.774-3.043
		c-1.917-2.986-4.537-6.933-7.863-11.835c-0.901-1.298-1.859-2.677-2.874-4.143c-0.113-0.169-0.225-0.313-0.339-0.424
		c-0.506-0.675-0.958-1.353-1.352-2.027c-0.394-0.51-0.789-1.072-1.184-1.692c-3.156-4.508-6.707-9.524-10.652-15.048
		c0-0.056-0.592-0.085-1.776-0.085c-0.056,0-0.084,0.029-0.084,0.085c-2.312,5.072-4.227,10.088-5.75,15.048
		c-0.451,1.408-0.845,2.79-1.184,4.144c-1.466,5.354-2.508,10.679-3.127,15.978c-1.41,11.61-0.79,22.967,1.86,34.069
		c-5.411-3.943-10.54-4.931-15.387-2.958c-0.338-9.3,1.438-19.67,5.327-31.111c1.633-5.072,3.775-10.397,6.424-15.978
		c0.564-1.354,1.185-2.735,1.86-4.144c2.423-4.96,5.185-10.117,8.285-15.471h-0.337c-17.077,11.496-31.816,15.415-44.215,11.751
		c-2.142-0.618-4.199-1.438-6.171-2.451c2.649-2.425,4.706-4.706,6.171-6.848c0.056-0.058,0.113-0.114,0.169-0.17
		c0.507-0.79,0.958-1.55,1.353-2.282c0.902-1.747,1.353-3.382,1.353-4.904c-0.056-0.225-0.085-0.423-0.085-0.591
		c-0.056-0.28-0.112-0.564-0.168-0.845c-0.845-0.678-1.72-1.411-2.621-2.199c-0.338-0.281-0.676-0.563-1.015-0.845
		c-3.325-2.875-6.425-5.749-9.299-8.624c-0.958-1.014-1.889-2.027-2.79-3.044c-3.438-3.55-6.425-7.128-8.961-10.735
		c-0.057,0-0.085-0.028-0.085-0.086c-0.563-0.788-1.127-1.605-1.69-2.45c-0.169-0.169-0.282-0.339-0.338-0.508
		c-0.225-0.281-0.423-0.592-0.592-0.931c-2.875-4.227-7.072-10.539-12.596-18.937c-0.507-0.732-1.043-1.494-1.606-2.283
		c-2.142-3.212-4.481-6.734-7.017-10.567c0.168,0.057,0.309,0.141,0.422,0.254c1.803,0.958,3.55,1.859,5.241,2.705
		c0.507,0.226,0.958,0.451,1.353,0.677c0.225,0.112,0.423,0.226,0.592,0.338c3.55,1.635,6.903,3.015,10.06,4.143
		c1.07,0.338,2.113,0.648,3.128,0.93c0.169,0.056,0.31,0.113,0.422,0.17c0.114,0,0.198,0.027,0.254,0.084c0.113,0,0.225,0,0.338,0
		c10.821,2.987,17.556,1.239,20.205-5.241c1.86-4.453,1.663-11.216-0.591-20.29c-0.169-0.902-0.395-1.776-0.677-2.621
		c-0.394-1.353-0.789-2.79-1.183-4.311c-0.057-0.169-0.113-0.339-0.169-0.508c-0.451-1.466-0.986-2.959-1.606-4.48l-0.676-2.198
		c-0.112-0.226-0.197-0.423-0.254-0.592c-0.168-0.507-0.366-1.042-0.592-1.606c-0.112-0.113-0.197-0.254-0.253-0.423
		c-0.507-1.521-1.099-3.043-1.774-4.564c-0.283-0.79-0.593-1.579-0.931-2.367c0-0.225-0.057-0.423-0.169-0.592
		c4.847,0,9.131-2.029,12.851-6.087c1.071-1.296,2.114-2.734,3.128-4.312c0.338-0.563,0.676-1.127,1.015-1.69l2.113-4.313
		c0.169-0.395,0.31-0.76,0.422-1.099c0-0.113,0.028-0.197,0.084-0.254l0.507-0.93c0-0.112,0-0.198,0-0.254
		c0.338-0.789,0.648-1.521,0.93-2.197l1.86-4.313c0.056-0.168,0.112-0.338,0.169-0.507c0.226-0.394,0.422-0.789,0.591-1.184
		l7.948-13.357c0.056-0.056,0.113-0.112,0.169-0.169c0.056-0.112,0.112-0.168,0.169-0.168c0.056-0.113,0.141-0.254,0.254-0.423
		c0.225-0.282,0.507-0.564,0.845-0.845c0.057-0.057,0.084-0.113,0.084-0.169c0.733-0.79,1.465-1.494,2.199-2.114l0.76-0.676v0.084
		c0.733-0.564,1.494-1.071,2.283-1.522c-0.113,1.408-0.056,2.818,0.169,4.227c0.395,2.592,1.353,5.27,2.874,8.031
		c1.466,2.537,3.381,5.101,5.749,7.693c0.057,0.057,0.113,0.113,0.168,0.169c0,0.056,0.058,0.141,0.169,0.254
		c0.057,0.056,0.142,0.113,0.253,0.168c0.058,0.057,0.113,0.141,0.169,0.254c0,0.056,0.028,0.113,0.085,0.169
		c1.917,1.916,3.748,3.579,5.495,4.988c1.014,0.788,2,1.521,2.959,2.197c2.141,1.353,4.227,2.396,6.255,3.128
		c0.508,0.169,1.014,0.31,1.521,0.423c0,0.169,0.029,0.367,0.085,0.592C127.019,77.831,127.074,78.535,127.132,79.212z
		 M88.327,125.709l-0.338-0.254l-0.084,0.254H88.327z M107.856,143.041l0.254,0.676l0.253-0.17c0.281-0.056,0.507-0.112,0.677-0.169
		c0-0.112,0-0.253,0-0.423l-0.169-0.084c-0.057,0-0.31,0-0.761,0L107.856,143.041z M109.209,142.279
		c0.168,0.113,0.281,0.31,0.337,0.592c0.168,0.395,0.057,0.732-0.337,1.015c0.112,0,0.366,0.112,0.759,0.338l0.423,0.508
		l-0.761,0.338l-0.845-0.761c0-0.113-0.029-0.169-0.085-0.169c-0.226-0.113-0.394-0.142-0.507-0.085h-0.169l0.508,1.268
		l-0.677,0.085l-0.677-2.705l1.015-0.423C108.757,142.279,109.095,142.279,109.209,142.279z M111.661,141.856l-0.169,0.17
		l0.253,1.943l0.423-0.084c0.226-0.113,0.423-0.255,0.592-0.423c0-0.169-0.058-0.395-0.169-0.677c0.112-0.394,0.112-0.647,0-0.76
		l-0.253-0.254C112.224,141.772,111.998,141.801,111.661,141.856z M111.829,141.35c0.226,0,0.423,0,0.592,0
		c0.281,0,0.451,0.112,0.507,0.338c0.226,0.225,0.366,0.563,0.423,1.015c0.169,0.901-0.168,1.381-1.014,1.438l-1.014,0.338
		l-0.592-2.874L111.829,141.35z M105.827,143.631c0.282,0.283,0.451,0.621,0.507,1.016c0.169,0.338,0.141,0.676-0.084,1.015
		c-0.169,0.281-0.479,0.451-0.931,0.507c-0.394,0.112-0.704,0.085-0.93-0.084c-0.225-0.226-0.395-0.508-0.507-0.846
		c-0.057-0.451,0-0.846,0.168-1.184c0.113-0.282,0.367-0.479,0.761-0.592C105.263,143.294,105.602,143.351,105.827,143.631z
		 M104.306,145.154c0.168,0.168,0.281,0.338,0.338,0.507c0.225,0.113,0.422,0.113,0.592,0c0.225,0.056,0.423-0.057,0.592-0.339
		c0-0.168-0.028-0.365-0.085-0.591c-0.057-0.62-0.366-0.902-0.93-0.846C104.474,143.998,104.306,144.421,104.306,145.154z
		 M141.504,142.11c-0.113,0.169-0.141,0.395-0.085,0.676c0.113,0.169,0.253,0.255,0.423,0.255c0.226,0.056,0.451,0.027,0.676-0.086
		v-0.169l-0.507-0.254l0.084-0.338l1.268,0.254l-0.422,1.099c-0.282,0.226-0.648,0.282-1.099,0.17
		c-0.451-0.17-0.761-0.423-0.93-0.762c-0.056-0.281-0.084-0.647-0.084-1.099c0.057-0.45,0.253-0.732,0.591-0.845
		c0.396-0.226,0.762-0.31,1.099-0.254c0.563,0.281,0.874,0.704,0.931,1.269l-0.677-0.086c-0.057-0.337-0.197-0.534-0.422-0.591
		C141.841,141.35,141.56,141.604,141.504,142.11z M145.899,142.11l-0.677-0.084l-0.338,0.592l0.677,0.168
		c0.338,0.113,0.507,0.113,0.507,0c0.057,0,0.17-0.056,0.339-0.168l-0.169-0.339C146.182,142.223,146.068,142.166,145.899,142.11z
		 M145.139,142.955h-0.254l-0.507,1.185h-0.169l0.592-2.79l1.268,0.338c0.282,0.057,0.536,0.169,0.762,0.339
		c0.112,0.168,0.14,0.395,0.084,0.676c-0.169,0.45-0.451,0.648-0.846,0.592c0,0.169,0.113,0.479,0.339,0.93l0.17,0.508l-0.678-0.085
		l-0.254-1.184c-0.111-0.057-0.141-0.141-0.084-0.254C145.448,143.209,145.308,143.125,145.139,142.955z M134.571,140.842
		c0.337,0.056,0.536,0.085,0.592,0.085c0-0.113,0-0.225,0-0.339l0.084-0.253c-0.056,0-0.253-0.028-0.592-0.085l-0.337-0.084
		l-0.084,0.676H134.571z M135.67,139.912c0.281,0,0.395,0.254,0.339,0.761c-0.058,0.451-0.395,0.647-1.015,0.592
		c0.226,0.056,0.479,0.339,0.761,0.846l0.169,0.676l-0.761-0.084l-0.339-1.099c-0.113-0.057-0.225-0.085-0.337-0.085
		c0-0.112-0.084-0.198-0.254-0.254h-0.169l-0.168,1.268h-0.508l0.339-3.128l1.098,0.169
		C135.163,139.518,135.444,139.63,135.67,139.912z M132.035,140.419c0.056,0.226,0.028,0.395-0.085,0.508
		c-0.057,0.112-0.168,0.169-0.338,0.169c-0.113,0-0.339,0.057-0.676,0.169l-0.592-0.169l0.084,1.184h-0.675l0.338-3.043l0.846-0.085
		c0.394,0.169,0.647,0.253,0.761,0.253c0.113,0,0.169,0.169,0.169,0.508C132.035,139.912,132.091,140.081,132.035,140.419z
		 M139.559,140.758c0.169,0.226,0.226,0.563,0.169,1.015c-0.057,0.394-0.197,0.676-0.423,0.846c-0.337,0.45-0.647,0.591-0.929,0.423
		c-0.564-0.058-0.931-0.282-1.099-0.678c-0.169-0.169-0.226-0.451-0.169-0.845c0-0.451,0.197-0.761,0.592-0.931
		c0.056-0.45,0.394-0.647,1.014-0.592C139.108,140.053,139.39,140.307,139.559,140.758z M137.784,142.194
		c0.169,0.227,0.367,0.338,0.592,0.338c0.225,0,0.422-0.084,0.591-0.253c0.057-0.169,0.113-0.367,0.168-0.592
		c0.057-0.62-0.112-0.958-0.507-1.015c-0.563-0.057-0.929,0.254-1.098,0.931C137.53,141.716,137.614,141.912,137.784,142.194z
		 M148.268,144.899l1.352,0.508v0.423l-1.86-0.592l0.762-2.875l1.86,0.678v0.506l-1.606-0.506l-0.084,0.676l1.521,0.338
		l-0.509,0.592l-1.268-0.507L148.268,144.899z M126.117,139.912l-1.353,0.254v0.592l1.269-0.254l0.169,0.592h-1.438v0.761h1.522
		l0.084,0.338l-2.114,0.085v-2.536l1.608-0.17L126.117,139.912z M130.513,139.912l-0.085,0.676h0.253
		c0.339,0,0.565,0.028,0.678,0.085c0.168-0.112,0.253-0.197,0.253-0.254c0-0.226-0.056-0.338-0.169-0.338
		c-0.113-0.112-0.366-0.169-0.762-0.169H130.513z M115.127,141.096l0.084,0.677l1.438-0.254l0.084,0.422l-1.436,0.339v0.762
		l1.775-0.423v0.676l-2.114,0.423l-0.507-2.875l2.028-0.507l0.085,0.507L115.127,141.096z M117.916,140.166l0.93-0.254l0.678,1.86
		l0.168-1.86l0.845-0.085l0.423,2.705l-0.591,0.17l-0.169-2.283l-0.253,2.199l-0.507,0.168l-0.93-1.944l0.423,2.029l-0.676,0.084
		L117.916,140.166z M156.128,146.422c0.396,0.282,0.621,0.535,0.678,0.761c0,0.226-0.028,0.422-0.084,0.592
		c-0.114,0.677-0.537,0.845-1.269,0.507c-0.733-0.282-0.93-0.761-0.593-1.437l0.423,0.168c-0.057,0.396,0.056,0.678,0.338,0.846
		c0.339,0.114,0.563,0.03,0.678-0.254l-0.171-0.168c0-0.226-0.056-0.395-0.168-0.508c-0.564-0.395-0.79-0.789-0.677-1.184
		c0.112-0.281,0.282-0.423,0.508-0.423s0.424,0,0.592,0c0.732,0.339,1.014,0.733,0.846,1.184l-0.591-0.169
		c0-0.169-0.113-0.337-0.339-0.507c-0.282-0.113-0.508-0.085-0.678,0.084l0.255,0.17
		C155.876,146.196,155.96,146.309,156.128,146.422z M153.17,145.069c0-0.282-0.057-0.535-0.168-0.761
		c-0.452-0.169-0.705-0.057-0.762,0.338l0.677,0.508c0.395,0.226,0.649,0.45,0.761,0.676c0,0.112-0.085,0.282-0.255,0.507
		c-0.168,0.62-0.646,0.733-1.437,0.339c-0.563-0.17-0.761-0.592-0.593-1.269l0.509,0.085c-0.057,0.394,0.141,0.647,0.592,0.761
		c0.169,0.169,0.31,0.112,0.423-0.169l0.085-0.254c-0.113,0-0.255-0.141-0.424-0.423c-0.676-0.282-0.9-0.705-0.676-1.268
		c0.111-0.113,0.226-0.226,0.338-0.339c0.338-0.056,0.648-0.028,0.93,0.085c0.62,0.226,0.818,0.676,0.592,1.353L153.17,145.069z
		 M158.58,148.789c0.058,0.226,0.171,0.366,0.339,0.424c0.338,0.111,0.592,0.111,0.761,0c0.113-0.058,0.253-0.198,0.423-0.424
		c0.169-0.508,0.084-0.931-0.255-1.269c-0.506-0.168-0.9,0.057-1.183,0.677C158.665,148.366,158.638,148.563,158.58,148.789z
		 M160.103,147.183c0.339,0.283,0.507,0.592,0.507,0.931c0.057,0.281,0,0.591-0.168,0.929c-0.113,0.396-0.339,0.62-0.678,0.678
		c-0.224,0.112-0.591,0.084-1.099-0.085c-0.28-0.17-0.479-0.422-0.592-0.761c-0.111-0.281-0.057-0.563,0.168-0.847
		c0.283-0.507,0.565-0.816,0.847-0.929C159.483,147.042,159.82,147.07,160.103,147.183z M70.489,160.794l66.28,36.099l54.107-53.684
		l-67.38-37.536L70.489,160.794z M91.033,178.209v0.255l0.422-0.171L91.033,178.209z M195.439,119.2
		c-0.393-0.395-0.675-0.676-0.845-0.846l0.085,0.253L195.439,119.2z"/>
	<path fill-rule="evenodd" clip-rule="evenodd" fill="#F6EB16" d="M106.926,132.218c-2.085,3.551-3.495,7.13-4.227,10.737
		c-0.282,1.747-0.451,3.467-0.507,5.158c-0.282,2.592-0.057,5.269,0.676,8.031c0.676,3.775,1.944,7.073,3.805,9.89
		c2.198,4.003,5.27,7.3,9.215,9.892c7.101,4.792,14.654,6.257,22.657,4.397c8.229-1.859,14.625-6.482,19.19-13.866
		c2.65-4.058,4.228-8.368,4.734-12.934c0.057-0.507,0.113-0.959,0.171-1.353c0.056-1.747,0.056-3.523,0-5.326
		c-0.114-1.465-0.367-2.903-0.762-4.313c-1.635-8.623-5.946-15.217-12.936-19.782c-1.184-0.79-2.227-1.465-3.127-2.029
		c-6.199-3.156-12.766-3.917-19.699-2.283c-6.988,1.465-12.625,4.988-16.907,10.567
		C108.475,130.021,107.715,131.092,106.926,132.218z M70.489,160.794l53.007-55.121l67.38,37.536l-54.107,53.684L70.489,160.794z"/>
	<path fill-rule="evenodd" clip-rule="evenodd" fill="#292B77" d="M161.709,146.76c-7.608-3.833-15.189-6.368-22.742-7.608
		l0.591-0.846l0.677,0.423l-0.338-1.015l0.507-0.592l-0.846,0.338l-0.338-0.845l-0.169,0.93l-1.014,0.169l0.93,0.339v1.099
		c-11.835-1.917-23.671-0.677-35.507,3.72c0.845-3.551,2.225-6.988,4.142-10.314c0.676-1.071,1.409-2.114,2.198-3.128
		c4.227-5.298,9.751-8.764,16.57-10.398c6.65-1.465,12.991-0.62,19.021,2.536c0.902,0.451,1.89,1.071,2.96,1.86
		c6.764,4.508,11.046,10.935,12.85,19.275C161.37,143.998,161.54,145.352,161.709,146.76z M102.868,148.027
		c13.132-5.241,26.32-6.48,39.565-3.719c6.257,1.408,12.709,3.945,19.359,7.608v0.169c-0.058,0.451-0.141,0.931-0.253,1.438
		c-0.452,4.396-1.944,8.567-4.48,12.511c-4.453,7.216-10.652,11.668-18.6,13.359c-7.891,1.858-15.274,0.507-22.15-4.059
		c-3.775-2.705-6.734-5.918-8.877-9.637c-1.747-2.876-3.015-6.116-3.804-9.724c-0.563-2.649-0.816-5.241-0.76-7.777V148.027z
		 M113.521,161.048l-0.761,0.084l-0.423-0.676l-0.085,0.76l-1.098,0.169l1.014,0.423l-0.085,1.015l0.508-0.592l0.846,0.169
		l-0.508-0.761L113.521,161.048z M109.8,164.767l-0.423-0.845l-0.337,0.931l-0.762,0.084l0.762,0.423l-0.169,0.846l0.845-0.678
		l0.508,0.255l-0.423-0.423l0.677-0.677L109.8,164.767z M107.518,148.704l-0.592-0.761l-0.084,0.931l-0.846,0.507l0.761,0.254
		l0.085,0.93l0.507-0.677l0.93,0.507l-0.507-1.182l0.761-0.762L107.518,148.704z M133.473,153.945l-0.423-0.676l-0.085,0.846h-0.591
		l0.507,0.592l-0.085,0.422l0.508-0.252l0.676,0.252l-0.253-0.93l0.423-0.338L133.473,153.945z M139.136,146.084l0.423,0.169v0.676
		l0.508-0.507l0.507,0.254l-0.169-0.508l0.253-0.423l-0.507,0.085l-0.423-0.676l-0.084,0.76L139.136,146.084z M145.984,168.825
		l-0.254-0.931l0.338-0.337l-0.677,0.169l-0.169-0.761l-0.084,0.761h-0.93l0.846,0.676l-0.086,0.592l0.423-0.592L145.984,168.825z
		 M137.445,173.307l0.169-0.254l-0.337,0.084l-0.085-0.253l-0.084,0.423l-0.507-0.086l0.507,0.254l-0.423,0.169l0.507-0.169
		l0.339,0.169L137.445,173.307z M133.896,163.076l0.759,0.507l-0.168,0.762l0.676-0.762l0.846,0.508l-0.592-1.015l0.761-0.507
		l-0.93,0.084l-0.423-0.846l-0.337,1.185L133.896,163.076z M133.303,159.019l-0.423,0.169l-0.338-0.338l-0.084,0.591l-0.253,0.086
		l0.253,0.253l0.084,0.255l0.253-0.171h0.508l-0.254-0.252L133.303,159.019z M137.361,155.975l-0.339-0.507l-0.084,0.592
		l-0.675,0.085l0.591,0.253v0.76l0.423-0.59l0.591,0.506l-0.084-0.761l0.253-0.591L137.361,155.975z M146.914,164.599l-0.507,0.084
		l0.423,0.423v0.422l0.422-0.422l0.677,0.254l-0.423-0.593l0.339-0.422h-0.593l-0.254-0.423L146.914,164.599z M141.927,164.345
		l0.084,0.422l-0.676,0.086l0.676,0.253l-0.084,0.845l0.423-0.423l0.591,0.171l-0.423-0.677l0.508-0.423l-0.676,0.168
		L141.927,164.345z M124.003,167.811l-0.422-0.676v0.76l-1.015,0.423l0.93,0.423l-0.168,0.762l0.761-0.592l0.76,0.253l-0.592-0.676
		l0.592-0.845L124.003,167.811z M118.846,167.219l0.169-0.507l0.592,0.338l-0.253-0.507l0.422-0.509l-0.675,0.087l-0.255-0.339
		l-0.084,0.507l-0.676,0.168l0.676,0.086L118.846,167.219z M120.114,162.569l-0.676,0.084l-0.423-0.507l-0.084,0.846l-0.846,0.168
		l0.76,0.423l0.085,0.593l0.423-0.422l0.675,0.252l-0.506-0.675L120.114,162.569z M115.296,158.934l0.253-0.253l-0.508,0.169
		l-0.253-0.592l-0.084,0.676l-0.423-0.084l0.423,0.423v0.507l0.337-0.507l0.423,0.168L115.296,158.934z M131.612,157.496h-0.676
		l-0.255-0.423v0.423l-0.506,0.084l1.268,0.762l-0.338-0.507L131.612,157.496z M121.805,153.101l0.591-0.592l-0.845,0.253
		l-0.423-0.761l-0.084,0.845l-0.677,0.086l0.591,0.592l-0.084,0.592l0.507-0.423l0.845,0.253L121.805,153.101z M151.986,168.487
		l-0.423,0.169l-0.17-0.507l-0.168,0.761l-0.422,0.084l0.338,0.339l-0.085,0.506l0.423-0.422l0.761,0.169l-0.338-0.507
		L151.986,168.487z M151.816,165.359l-0.675,0.168l-0.338-0.591l-0.169,0.675l-0.677,0.087l0.761,0.336l-0.084,0.847l0.422-0.338
		l0.592,0.084l-0.255-0.761L151.816,165.359z M153.17,163.583l0.338-0.423l0.593,0.255l-0.254-0.677l0.423-0.423l-0.677,0.17
		l-0.338-0.508l-0.085,0.422l-0.761,0.339l0.761,0.254V163.583z M155.876,160.709l0.507-0.423l-0.93,0.085l-0.338-0.508
		l-0.084,0.677l-0.678,0.169l0.592,0.254v0.676l0.423-0.507l0.931,0.253L155.876,160.709z M149.873,163.922l0.339-0.591l0.592,0.252
		l-0.169-0.591l0.422-0.593l-0.761,0.086l-0.17-0.508l-0.084,0.845l-0.762,0.086l0.678,0.168L149.873,163.922z M156.383,158.85
		l0.507-0.592l0.677,0.254l-0.507-0.593l0.675-0.507l-1.013,0.255l-0.255-0.932l0.084,0.932l-1.014,0.084l0.93,0.338L156.383,158.85
		z M155.453,155.552l0.591-0.675l-0.845,0.168l-0.423-0.93l-0.168,1.185l-0.762,0.252l0.762,0.255l-0.171,0.929l0.678-0.761
		l0.761,0.423L155.453,155.552z M158.919,154.622h-0.678l0.594,0.507l-0.084,0.678l0.337-0.678l0.676,0.423l-0.168-0.845
		l0.084-0.508l-0.423,0.169l-0.254-0.337L158.919,154.622z"/>
	<path fill-rule="evenodd" clip-rule="evenodd" fill="#FFFCFD" d="M161.793,151.917c-6.65-3.663-13.103-6.2-19.359-7.608
		c-13.246-2.762-26.433-1.522-39.565,3.719c0-1.577,0.197-3.184,0.592-4.818c0-0.168,0-0.282,0-0.338
		c11.836-4.396,23.671-5.637,35.507-3.72c7.552,1.24,15.133,3.775,22.742,7.608v0.085
		C161.934,148.593,161.962,150.282,161.793,151.917z M111.829,141.35l-1.098,0.254l0.592,2.874l1.014-0.338
		c0.846-0.057,1.184-0.536,1.014-1.438c-0.057-0.451-0.197-0.79-0.423-1.015c-0.057-0.226-0.226-0.338-0.507-0.338
		C112.251,141.35,112.055,141.35,111.829,141.35z M111.661,141.856c0.337-0.056,0.563-0.084,0.676-0.084l0.253,0.254
		c0.112,0.112,0.112,0.366,0,0.76c0.112,0.282,0.169,0.508,0.169,0.677c-0.169,0.168-0.366,0.31-0.592,0.423l-0.423,0.084
		l-0.253-1.943L111.661,141.856z M109.209,142.279c-0.114,0-0.452,0-1.016,0l-1.015,0.423l0.677,2.705l0.677-0.085l-0.508-1.268
		h0.169c0.113-0.057,0.281-0.028,0.507,0.085c0.056,0,0.085,0.056,0.085,0.169l0.845,0.761l0.761-0.338l-0.423-0.508
		c-0.393-0.226-0.647-0.338-0.759-0.338c0.394-0.282,0.506-0.62,0.337-1.015C109.49,142.589,109.377,142.393,109.209,142.279z
		 M107.856,143.041l0.254-0.17c0.451,0,0.704,0,0.761,0l0.169,0.084c0,0.17,0,0.311,0,0.423c-0.169,0.057-0.396,0.113-0.677,0.169
		l-0.253,0.17L107.856,143.041z M104.306,145.154c0-0.733,0.168-1.156,0.506-1.269c0.564-0.057,0.874,0.226,0.93,0.846
		c0.057,0.226,0.085,0.423,0.085,0.591c-0.169,0.282-0.367,0.395-0.592,0.339c-0.169,0.113-0.367,0.113-0.592,0
		C104.587,145.492,104.474,145.322,104.306,145.154z M105.827,143.631c-0.226-0.28-0.564-0.337-1.015-0.168
		c-0.394,0.112-0.647,0.31-0.761,0.592c-0.168,0.338-0.226,0.732-0.168,1.184c0.112,0.338,0.282,0.62,0.507,0.846
		c0.226,0.169,0.536,0.196,0.93,0.084c0.452-0.056,0.761-0.226,0.931-0.507c0.225-0.339,0.253-0.677,0.084-1.015
		C106.278,144.252,106.109,143.914,105.827,143.631z M137.784,142.194c-0.169-0.282-0.253-0.479-0.253-0.591
		c0.169-0.677,0.535-0.987,1.098-0.931c0.396,0.057,0.564,0.395,0.507,1.015c-0.056,0.225-0.112,0.423-0.168,0.592
		c-0.169,0.169-0.367,0.253-0.591,0.253C138.15,142.532,137.953,142.421,137.784,142.194z M139.559,140.758
		c-0.168-0.451-0.451-0.705-0.845-0.762c-0.62-0.056-0.958,0.142-1.014,0.592c-0.396,0.17-0.592,0.479-0.592,0.931
		c-0.057,0.394,0,0.676,0.169,0.845c0.168,0.396,0.535,0.62,1.099,0.678c0.281,0.168,0.591,0.027,0.929-0.423
		c0.226-0.17,0.367-0.452,0.423-0.846C139.784,141.32,139.728,140.983,139.559,140.758z M132.035,140.419
		c0.056-0.338,0-0.507-0.169-0.507c0-0.339-0.057-0.508-0.169-0.508c-0.113,0-0.367-0.084-0.761-0.253l-0.846,0.085l-0.338,3.043
		h0.675l-0.084-1.184l0.592,0.169c0.337-0.112,0.563-0.169,0.676-0.169c0.169,0,0.281-0.057,0.338-0.169
		C132.063,140.813,132.091,140.645,132.035,140.419z M135.67,139.912c-0.226-0.282-0.507-0.395-0.846-0.339l-1.098-0.169
		l-0.339,3.128h0.508l0.168-1.268h0.169c0.169,0.056,0.254,0.142,0.254,0.254c0.113,0,0.225,0.028,0.337,0.085l0.339,1.099
		l0.761,0.084l-0.169-0.676c-0.281-0.507-0.535-0.79-0.761-0.846c0.62,0.056,0.958-0.141,1.015-0.592
		C136.064,140.166,135.951,139.912,135.67,139.912z M134.571,140.842h-0.338l0.084-0.676l0.337,0.084
		c0.339,0.057,0.536,0.085,0.592,0.085l-0.084,0.253c0,0.114,0,0.226,0,0.339C135.106,140.927,134.908,140.897,134.571,140.842z
		 M145.139,142.955c0.169,0.17,0.31,0.254,0.423,0.254c-0.057,0.113-0.027,0.197,0.084,0.254l0.254,1.184l0.678,0.085l-0.17-0.508
		c-0.226-0.451-0.339-0.761-0.339-0.93c0.395,0.057,0.677-0.142,0.846-0.592c0.056-0.281,0.028-0.508-0.084-0.676
		c-0.226-0.17-0.479-0.282-0.762-0.339l-1.268-0.338l-0.592,2.79h0.169l0.507-1.185H145.139z M145.899,142.11
		c0.169,0.056,0.282,0.112,0.339,0.169l0.169,0.339c-0.169,0.112-0.282,0.168-0.339,0.168c0,0.113-0.169,0.113-0.507,0l-0.677-0.168
		l0.338-0.592L145.899,142.11z M141.504,142.11c0.056-0.507,0.337-0.761,0.846-0.761c0.225,0.057,0.365,0.254,0.422,0.591
		l0.677,0.086c-0.057-0.564-0.367-0.987-0.931-1.269c-0.337-0.056-0.704,0.028-1.099,0.254c-0.338,0.112-0.535,0.395-0.591,0.845
		c0,0.451,0.029,0.817,0.084,1.099c0.169,0.339,0.479,0.592,0.93,0.762c0.451,0.112,0.817,0.056,1.099-0.17l0.422-1.099
		l-1.268-0.254l-0.084,0.338l0.507,0.254v0.169c-0.226,0.113-0.45,0.142-0.676,0.086c-0.169,0-0.31-0.086-0.423-0.255
		C141.363,142.505,141.391,142.279,141.504,142.11z M117.916,140.166l0.339,2.789l0.676-0.084l-0.423-2.029l0.93,1.944l0.507-0.168
		l0.253-2.199l0.169,2.283l0.591-0.17l-0.423-2.705l-0.845,0.085l-0.168,1.86l-0.678-1.86L117.916,140.166z M115.127,141.096
		l1.437-0.254l-0.085-0.507l-2.028,0.507l0.507,2.875l2.114-0.423v-0.676l-1.775,0.423v-0.762l1.436-0.339l-0.084-0.422
		l-1.438,0.254L115.127,141.096z M130.513,139.912h0.168c0.396,0,0.649,0.057,0.762,0.169c0.113,0,0.169,0.112,0.169,0.338
		c0,0.057-0.085,0.142-0.253,0.254c-0.113-0.057-0.339-0.085-0.678-0.085h-0.253L130.513,139.912z M126.117,139.912l-0.252-0.339
		l-1.608,0.17v2.536l2.114-0.085l-0.084-0.338h-1.522v-0.761h1.438l-0.169-0.592l-1.269,0.254v-0.592L126.117,139.912z
		 M148.268,144.899l0.168-0.76l1.268,0.507l0.509-0.592l-1.521-0.338l0.084-0.676l1.606,0.506v-0.506l-1.86-0.678l-0.762,2.875
		l1.86,0.592v-0.423L148.268,144.899z M153.17,145.069l0.592,0.169c0.227-0.677,0.028-1.127-0.592-1.353
		c-0.281-0.113-0.592-0.141-0.93-0.085c-0.112,0.113-0.227,0.226-0.338,0.339c-0.225,0.563,0,0.985,0.676,1.268
		c0.169,0.282,0.311,0.423,0.424,0.423l-0.085,0.254c-0.113,0.281-0.254,0.338-0.423,0.169c-0.451-0.113-0.648-0.367-0.592-0.761
		l-0.509-0.085c-0.168,0.677,0.03,1.099,0.593,1.269c0.79,0.395,1.269,0.281,1.437-0.339c0.17-0.225,0.255-0.395,0.255-0.507
		c-0.111-0.226-0.366-0.45-0.761-0.676l-0.677-0.508c0.057-0.395,0.31-0.507,0.762-0.338
		C153.113,144.534,153.17,144.787,153.17,145.069z M156.128,146.422c-0.168-0.113-0.252-0.226-0.252-0.338l-0.255-0.17
		c0.17-0.169,0.396-0.197,0.678-0.084c0.226,0.17,0.339,0.338,0.339,0.507l0.591,0.169c0.168-0.45-0.113-0.845-0.846-1.184
		c-0.168,0-0.366,0-0.592,0s-0.396,0.142-0.508,0.423c-0.113,0.395,0.112,0.789,0.677,1.184c0.112,0.113,0.168,0.282,0.168,0.508
		l0.171,0.168c-0.114,0.284-0.339,0.368-0.678,0.254c-0.282-0.168-0.395-0.45-0.338-0.846l-0.423-0.168
		c-0.337,0.676-0.141,1.154,0.593,1.437c0.731,0.338,1.154,0.17,1.269-0.507c0.056-0.17,0.084-0.366,0.084-0.592
		C156.749,146.957,156.524,146.704,156.128,146.422z M160.103,147.183c-0.282-0.112-0.619-0.141-1.015-0.084
		c-0.281,0.112-0.563,0.422-0.847,0.929c-0.225,0.283-0.279,0.565-0.168,0.847c0.113,0.339,0.312,0.591,0.592,0.761
		c0.508,0.169,0.875,0.197,1.099,0.085c0.339-0.058,0.564-0.282,0.678-0.678c0.168-0.338,0.225-0.647,0.168-0.929
		C160.609,147.774,160.441,147.466,160.103,147.183z M158.58,148.789c0.058-0.226,0.085-0.423,0.085-0.592
		c0.282-0.62,0.677-0.845,1.183-0.677c0.339,0.338,0.424,0.761,0.255,1.269c-0.17,0.226-0.31,0.366-0.423,0.424
		c-0.169,0.111-0.423,0.111-0.761,0C158.751,149.155,158.638,149.015,158.58,148.789z M138.967,139.151v-1.099l-0.93-0.339
		l1.014-0.169l0.169-0.93l0.338,0.845l0.846-0.338l-0.507,0.592l0.338,1.015l-0.677-0.423L138.967,139.151z M107.518,148.704
		l1.015-0.253l-0.761,0.762l0.507,1.182l-0.93-0.507l-0.507,0.677l-0.085-0.93l-0.761-0.254l0.846-0.507l0.084-0.931
		L107.518,148.704z M109.8,164.767l0.677-0.084l-0.677,0.677l0.423,0.423l-0.508-0.255l-0.845,0.678l0.169-0.846l-0.762-0.423
		l0.762-0.084l0.337-0.931L109.8,164.767z M113.521,161.048l-0.592,0.591l0.508,0.761l-0.846-0.169l-0.508,0.592l0.085-1.015
		l-1.014-0.423l1.098-0.169l0.085-0.76l0.423,0.676L113.521,161.048z M139.136,146.084l0.508-0.17l0.084-0.76l0.423,0.676
		l0.507-0.085l-0.253,0.423l0.169,0.508l-0.507-0.254l-0.508,0.507v-0.676L139.136,146.084z M133.473,153.945l0.676-0.084
		l-0.423,0.338l0.253,0.93l-0.676-0.252l-0.508,0.252l0.085-0.422l-0.507-0.592h0.591l0.085-0.846L133.473,153.945z
		 M121.805,153.101l0.422,0.845l-0.845-0.253l-0.507,0.423l0.084-0.592l-0.591-0.592l0.677-0.086l0.084-0.845l0.423,0.761
		l0.845-0.253L121.805,153.101z M131.612,157.496l-0.508,0.339l0.338,0.507l-1.268-0.762l0.506-0.084v-0.423l0.255,0.423H131.612z
		 M115.296,158.934l0.168,0.507l-0.423-0.168l-0.337,0.507v-0.507l-0.423-0.423l0.423,0.084l0.084-0.676l0.253,0.592l0.508-0.169
		L115.296,158.934z M120.114,162.569l-0.59,0.762l0.506,0.675l-0.675-0.252l-0.423,0.422l-0.085-0.593l-0.76-0.423l0.846-0.168
		l0.084-0.846l0.423,0.507L120.114,162.569z M118.846,167.219l-0.084-0.676l-0.676-0.086l0.676-0.168l0.084-0.507l0.255,0.339
		l0.675-0.087l-0.422,0.509l0.253,0.507l-0.592-0.338L118.846,167.219z M124.003,167.811l0.846-0.168l-0.592,0.845l0.592,0.676
		l-0.76-0.253l-0.761,0.592l0.168-0.762l-0.93-0.423l1.015-0.423v-0.76L124.003,167.811z M141.927,164.345l0.423,0.422l0.676-0.168
		l-0.508,0.423l0.423,0.677l-0.591-0.171l-0.423,0.423l0.084-0.845l-0.676-0.253l0.676-0.086L141.927,164.345z M146.914,164.599
		l0.084-0.677l0.254,0.423h0.593l-0.339,0.422l0.423,0.593l-0.677-0.254l-0.422,0.422v-0.422l-0.423-0.423L146.914,164.599z
		 M137.361,155.975l0.676-0.253l-0.253,0.591l0.084,0.761l-0.591-0.506l-0.423,0.59v-0.76l-0.591-0.253l0.675-0.085l0.084-0.592
		L137.361,155.975z M133.303,159.019l-0.254,0.593l0.254,0.252h-0.508l-0.253,0.171l-0.084-0.255l-0.253-0.253l0.253-0.086
		l0.084-0.591l0.338,0.338L133.303,159.019z M133.896,163.076l0.591-0.084l0.337-1.185l0.423,0.846l0.93-0.084l-0.761,0.507
		l0.592,1.015l-0.846-0.508l-0.676,0.762l0.168-0.762L133.896,163.076z M137.445,173.307l0.085,0.337l-0.339-0.169l-0.507,0.169
		l0.423-0.169l-0.507-0.254l0.507,0.086l0.084-0.423l0.085,0.253l0.337-0.084L137.445,173.307z M145.984,168.825l-0.593-0.423
		l-0.423,0.592l0.086-0.592l-0.846-0.676h0.93l0.084-0.761l0.169,0.761l0.677-0.169l-0.338,0.337L145.984,168.825z M158.919,154.622
		l0.084-0.591l0.254,0.337l0.423-0.169l-0.084,0.508l0.168,0.845l-0.676-0.423l-0.337,0.678l0.084-0.678l-0.594-0.507H158.919z
		 M155.453,155.552l0.423,0.846l-0.761-0.423l-0.678,0.761l0.171-0.929l-0.762-0.255l0.762-0.252l0.168-1.185l0.423,0.93
		l0.845-0.168L155.453,155.552z M156.383,158.85l0.084-0.761l-0.93-0.338l1.014-0.084l-0.084-0.932l0.255,0.932l1.013-0.255
		l-0.675,0.507l0.507,0.593l-0.677-0.254L156.383,158.85z M149.873,163.922l0.085-0.846l-0.678-0.168l0.762-0.086l0.084-0.845
		l0.17,0.508l0.761-0.086l-0.422,0.593l0.169,0.591l-0.592-0.252L149.873,163.922z M155.876,160.709l0.423,0.676l-0.931-0.253
		l-0.423,0.507v-0.676l-0.592-0.254l0.678-0.169l0.084-0.677l0.338,0.508l0.93-0.085L155.876,160.709z M153.17,163.583v-0.591
		l-0.761-0.254l0.761-0.339l0.085-0.422l0.338,0.508l0.677-0.17l-0.423,0.423l0.254,0.677l-0.593-0.255L153.17,163.583z
		 M151.816,165.359l-0.423,0.507l0.255,0.761l-0.592-0.084l-0.422,0.338l0.084-0.847l-0.761-0.336l0.677-0.087l0.169-0.675
		l0.338,0.591L151.816,165.359z M151.986,168.487l-0.084,0.592l0.338,0.507l-0.761-0.169l-0.423,0.422l0.085-0.506l-0.338-0.339
		l0.422-0.084l0.168-0.761l0.17,0.507L151.986,168.487z"/>
</g>
</svg>
