<?xml version="1.0" encoding="utf-8"?>
<!-- Generator: Adobe Illustrator 16.0.0, SVG Export Plug-In . SVG Version: 6.00 Build 0)  -->
<!DOCTYPE svg PUBLIC "-//W3C//DTD SVG 1.1//EN" "http://www.w3.org/Graphics/SVG/1.1/DTD/svg11.dtd">
<svg version="1.1" id="Layer_1" xmlns="http://www.w3.org/2000/svg" xmlns:xlink="http://www.w3.org/1999/xlink" x="0px" y="0px"
	 width="300px" height="300px" viewBox="0 0 300 300" enable-background="new 0 0 300 300" xml:space="preserve">
<g>
	<path fill-rule="evenodd" clip-rule="evenodd" fill="#333333" d="M291.051,120.43c-0.074,0.111-5.521-0.092-16.339-0.609
		c-4.506-0.222-9.583-0.406-15.231-0.554c-5.726-0.147-10.341-0.203-13.849-0.167c-2.918,0.037-5.373,0.037-7.367,0
		c-3.987-0.037-6.277-0.167-6.868-0.388c-0.332-0.185-1.145-0.831-2.438-1.938c-1.255-1.145-2.622-2.438-4.098-3.877
		c-3.323-3.324-6.13-5.668-8.42-7.035c-2.327-1.33-4.856-2.086-7.589-2.271c-2.547-0.148-4.486,0.222-5.815,1.108
		c-1.367,0.886-3.914,3.49-7.644,7.81c-4.32,4.985-6.998,8.124-8.031,9.416c-0.591,0.739-1.145,1.274-1.661,1.606
		c-0.48,0.333-1.053,0.554-1.718,0.665c-0.628,0.037-3.508,0.517-8.641,1.441l-10.413,1.827l0.442-1.496
		c0.333-1.218,1.017-2.418,2.05-3.6c0.96-1.182,2.899-3.028,5.815-5.539c3.25-2.88,6.204-5.391,8.863-7.533
		c2.585-2.105,5.446-4.302,8.585-6.591c3.213-2.4,5.594-4.043,7.146-4.93c1.439-0.886,2.954-1.587,4.541-2.104
		c1.662-0.517,3.305-0.794,4.931-0.831c1.624-0.037,3.636,0.185,6.037,0.665c2.511,0.479,6.203,1.053,11.078,1.717
		c4.984,0.628,9.6,1.385,13.847,2.271c2.844,0.59,5.539,1.218,8.087,1.882c6.278,1.7,12.703,4.007,19.275,6.924
		c3.913,1.661,9.176,4.099,15.786,7.311C287.948,118.713,291.162,120.319,291.051,120.43z M277.481,136.161
		c-0.037,0.185,0.128,0.388,0.498,0.609c0.553,0.296,1.847,0.425,3.877,0.388c2.031-0.037,3.637-0.203,4.818-0.499
		c1.256-0.333,2.29-0.775,3.103-1.33c0.774-0.517,0.997-0.941,0.664-1.274c-0.331-0.333-1.717-0.554-4.154-0.664
		c-2.474-0.075-4.19,0.018-5.151,0.276c-0.479,0.185-0.996,0.407-1.551,0.664c-0.59,0.333-1.016,0.628-1.272,0.887
		C277.796,135.699,277.518,136.013,277.481,136.161z M84.448,91.351c0.554-0.111,1.348-0.203,2.382-0.277
		c1.071-0.074,2.086-0.092,3.046-0.055c2.4,0.11,4.653,0.756,6.758,1.938c2.03,1.218,4.818,3.49,8.363,6.813
		c4.358,4.099,8.585,8.253,12.685,12.463c4.136,4.209,7.071,7.367,8.807,9.472c1.293,1.661,2.068,2.75,2.327,3.268
		c0.295,0.48,0.24,0.739-0.167,0.775c-0.628,0.111-3.84-0.406-9.638-1.551c-5.797-1.182-9.01-1.938-9.638-2.271
		c-0.222-0.147-0.554-0.48-0.997-0.997c-0.444-0.517-0.831-1.108-1.164-1.772c-0.849-1.44-2.456-3.729-4.819-6.869
		c-2.289-3.102-4.099-5.65-5.428-7.644c-1.551-2.252-2.788-3.675-3.711-4.265c-0.886-0.591-2.289-0.813-4.209-0.665
		c-1.292,0.074-2.345,0.222-3.157,0.444c-0.775,0.258-1.735,0.738-2.88,1.44c-1.403,0.849-3.176,2.252-5.317,4.209
		c-2.031,1.92-4.081,4.062-6.148,6.425c-0.997,1.145-1.828,1.902-2.492,2.271c-0.407,0.258-1.053,0.517-1.939,0.775
		c-0.591,0.221-1.292,0.443-2.105,0.665l-4.431,1.273l-26.476,0.333c-17.688,0.185-26.808,0.48-27.362,0.886
		c-0.37,0.185,1.458,0.314,5.483,0.387c4.173,0.111,11.337,0.167,21.491,0.167c13.663,0.037,22.636,0.092,26.92,0.166
		c1.957,0.073,4.118,0.184,6.48,0.332c2.88,0.111,6.074,0.313,9.583,0.61c8.936,0.701,18.74,1.919,29.412,3.655
		c10.635,1.735,19.867,3.6,27.694,5.594c3.028,0.812,5.428,1.348,7.201,1.606c1.736,0.332,3.786,0.536,6.149,0.609
		c2.659,0.111,4.745,0.092,6.26-0.055c1.551-0.184,4.245-0.665,8.086-1.44c14.918-2.991,27.584-5.133,37.997-6.425
		s22.616-2.179,36.612-2.659c0.739-0.037,1.459-0.055,2.16-0.055c8.566-0.258,18.445-0.222,29.634,0.11
		c12.076,0.333,21.011,0.886,26.808,1.662l1.719,0.222l-2.493-1.883l1.605,0.499c0.74,0.258,1.348,0.738,1.828,1.439
		c0.517,0.739,0.775,1.551,0.775,2.438c0,0.776-0.517,3.416-1.55,7.921c-1.034,4.467-1.718,7.089-2.05,7.865
		c-0.259,0.554-0.646,1.015-1.163,1.385c-0.518,0.369-1.349,0.775-2.493,1.219c-2.216,0.812-4.063,2.307-5.538,4.486
		c-0.513,0.787-1.057,1.784-1.635,2.991c-1.072,2.189-2.264,5.07-3.572,8.641c-0.222,0.554-0.443,1.126-0.666,1.718
		c-2.141,5.724-4.744,11.206-7.808,16.449c-1.045,1.823-2.088,3.522-3.131,5.097c-0.191,0.301-0.385,0.596-0.581,0.887
		c-2.065,3.039-4.114,5.588-6.148,7.644c-3.73,3.803-7.662,6.813-11.799,9.028c-3.064,1.625-6.979,3.23-11.742,4.818
		c-1.662,0.518-3.433,1.034-5.317,1.552c-4.468,1.292-9.785,1.921-15.952,1.884c-6.168-0.075-11.908-0.794-17.226-2.161
		c-10.782-2.806-18.906-7.219-24.371-13.237c-2.294-2.525-4.463-5.701-6.509-9.527c-0.155-0.291-0.313-0.587-0.471-0.887
		c-2.646-5.13-5.084-11.369-7.312-18.722c-0.332-1.034-0.628-1.976-0.886-2.824c-0.739-2.216-1.33-3.768-1.773-4.653
		c-0.664-1.219-1.587-2.161-2.769-2.825s-2.271-1.089-3.268-1.273c-1.034-0.222-2.549-0.351-4.542-0.388
		c-3.729,0-6.407,0.904-8.032,2.714c-1.108,1.182-2.215,3.323-3.323,6.426c-0.517,1.477-1.034,3.176-1.551,5.095
		c-1.702,6.268-3.826,11.752-6.37,16.451c-0.167,0.3-0.333,0.594-0.499,0.887c-2.907,5.112-6.341,9.257-10.302,12.435
		c-3.231,2.592-6.813,4.541-10.746,5.844c-2.437,0.813-5.668,1.644-9.693,2.492c-4.025,0.813-7.201,1.311-9.527,1.496
		c-3.915,0.331-9.269-0.129-16.063-1.385c-1.587-0.333-3.138-0.646-4.652-0.941c-3.979-0.895-7.469-1.9-10.469-3.02
		c-0.591-0.229-1.163-0.461-1.716-0.692c-5.613-2.362-10.857-6.037-15.731-11.022c-1.569-1.604-3.093-3.34-4.569-5.206
		c-0.23-0.292-0.461-0.587-0.692-0.887c-2.838-3.714-5.496-7.925-7.977-12.629c-0.664-1.255-1.624-3.212-2.879-5.871
		c-0.48-1.034-0.923-2.049-1.33-3.046c-0.776-1.625-1.496-3.214-2.161-4.765c-0.935-2.19-1.738-4.055-2.409-5.594
		c-1.179-2.714-1.945-4.413-2.299-5.096c-0.702-1.367-1.643-2.585-2.825-3.656c-1.219-1.145-2.456-1.92-3.711-2.326
		c-0.702-0.222-1.33-0.517-1.883-0.887c-0.591-0.332-0.96-0.664-1.108-0.997c-0.369-0.701-1.052-2.898-2.049-6.591
		c-1.292-5.022-1.717-8.475-1.273-10.358c0.479-1.883,2.068-3.083,4.763-3.6c0.849-0.148,1.883-0.443,3.102-0.887
		c1.182-0.443,2.308-0.978,3.378-1.606c3.287-1.883,7.496-4.099,12.629-6.647c5.133-2.511,9.269-4.431,12.408-5.761
		c6.056-2.511,11.761-4.523,17.115-6.037c3.545-0.959,7.44-1.828,11.687-2.604c2.216-0.443,4.542-0.831,6.979-1.163
		C79.851,92.181,83.304,91.609,84.448,91.351z M168.529,151.282c0.007,1.21,0.08,2.502,0.223,3.877
		c0.258,2.216,0.554,4.376,0.886,6.481c0.479,2.953,1.089,5.797,1.828,8.53c1.292,4.614,2.898,8.732,4.818,12.352
		c0.113,0.222,0.234,0.442,0.36,0.664c0.157,0.296,0.323,0.592,0.498,0.887c1.416,2.357,3.29,4.703,5.622,7.034
		c2.807,2.77,5.631,4.819,8.475,6.147c2.4,1.182,4.893,2.143,7.478,2.882c2.548,0.664,5.446,1.181,8.697,1.55
		c8.012,0.887,15.839,0.627,23.484-0.774c2.621-0.48,5.078-1.071,7.366-1.773c4.468-1.329,8.4-3.102,11.799-5.316
		c3.599-2.325,6.829-5.574,9.693-9.749c0.2-0.291,0.402-0.586,0.608-0.887c2.943-4.493,5.492-9.995,7.644-16.506
		c0.555-1.662,1.053-3.342,1.495-5.04c0.896-3.405,1.599-6.857,2.105-10.358c0.123-0.828,0.233-1.659,0.333-2.493
		c0.664-6.093,0.534-10.34-0.389-12.74c-1.513-3.804-6.592-6.204-15.231-7.2c-3.287-0.407-9.305-0.536-18.058-0.388
		c-0.369,0-0.738,0.019-1.107,0.055c-9.379,0.222-17.744,0.628-25.092,1.218c-9.083,0.813-17.114,2.068-24.094,3.767
		c-6.979,1.735-11.872,3.656-14.679,5.76c-1.957,1.551-3.323,3.582-4.099,6.093C168.737,147.041,168.516,149.016,168.529,151.282z
		 M215.832,123.864c1.034-0.147,1.552-0.258,1.552-0.333h-1.054c-3.249-0.11-10.45,0.647-21.602,2.271
		c-11.151,1.662-21.491,3.471-31.018,5.428c-6.352,1.33-11.576,1.939-15.676,1.828c-4.099-0.111-9.563-0.979-16.395-2.604
		c-11.41-2.695-21.787-4.781-31.128-6.259c-9.343-1.514-18.574-2.566-27.695-3.157c-1.957-0.11-3.859-0.203-5.706-0.277
		c-2.732-0.11-5.391-0.166-7.976-0.166c-2.954,0-4.561,0.037-4.819,0.111c-0.295,0.074,0.425,0.184,2.161,0.332
		c1.772,0.185,5.317,0.424,10.634,0.721c1.108,0.073,2.271,0.147,3.49,0.221c11.521,0.628,20.863,1.459,28.027,2.493
		c7.164,1.034,16.857,2.991,29.08,5.872c5.797,1.365,9.711,2.215,11.742,2.547c1.994,0.332,4.561,0.536,7.7,0.609
		c3.176,0.11,5.539,0.092,7.09-0.055c1.625-0.148,4.45-0.628,8.475-1.44c10.931-2.142,23.079-4.099,36.446-5.872
		C208.65,124.879,214.208,124.123,215.832,123.864z M28.449,151.282c0.554,2.571,1.256,5.248,2.105,8.031
		c0.222,0.775,0.461,1.551,0.721,2.327c1.587,4.8,3.434,9.249,5.538,13.348c1.477,2.844,2.973,5.263,4.487,7.256
		c0.236,0.313,0.484,0.627,0.748,0.942c0.227,0.294,0.467,0.589,0.72,0.887c1.18,1.386,2.538,2.808,4.071,4.264
		c2.068,1.848,4.191,3.343,6.37,4.487c0.976,0.538,2.121,1.074,3.434,1.606c1.569,0.633,3.378,1.261,5.428,1.883
		c1.847,0.555,3.526,1.035,5.041,1.441c2.326,0.553,4.339,0.958,6.037,1.219c2.917,0.368,7.256,0.553,13.017,0.553
		c4.616,0,7.718-0.073,9.305-0.221c1.625-0.111,3.305-0.405,5.041-0.887c7.271-2.031,13.031-5.686,17.281-10.967
		c0.542-0.678,1.058-1.379,1.551-2.106c0.275-0.41,0.543-0.835,0.803-1.272c0.176-0.29,0.351-0.585,0.526-0.887
		c3.07-5.392,5.415-12.574,7.035-21.546c0.258-1.625,0.517-3.324,0.775-5.097c0.258-1.842,0.388-3.596,0.388-5.262
		c-0.015-1.907-0.2-3.698-0.554-5.373c-0.665-3.065-1.883-5.373-3.656-6.923c-3.619-3.176-10.45-5.853-20.494-8.032
		c-3.471-0.665-6.72-1.2-9.749-1.606c-3.064-0.333-8.013-0.739-14.844-1.219c-2.77-0.221-6.24-0.424-10.414-0.609
		c-0.701-0.037-1.384-0.073-2.049-0.111c-3.286-0.147-6.167-0.239-8.641-0.277c-11.484-0.221-19.276,0.185-23.375,1.219
		c-2.252,0.591-3.97,1.422-5.151,2.493c-1.107,1.034-1.92,2.437-2.437,4.21c-0.332,1.181-0.517,2.252-0.554,3.212
		c-0.037,1.034,0.055,2.806,0.277,5.317C27.476,146.033,27.882,148.6,28.449,151.282z M17.482,130.954
		c-1.477-0.443-2.751-0.665-3.822-0.665c-1.071,0-2.197,0.203-3.379,0.609l-1.662,0.609l1.607,1.053
		c1.219,0.738,2.64,1.274,4.265,1.606c1.698,0.37,3.249,0.48,4.652,0.333c1.662-0.222,2.585-0.424,2.769-0.609
		c0.296-0.295-0.073-0.757-1.107-1.385C19.845,131.84,18.738,131.324,17.482,130.954z"/>
	<path fill-rule="evenodd" clip-rule="evenodd" fill="#FFFFFF" d="M260.365,183.187h-83.721c-0.126-0.222-0.247-0.442-0.36-0.664
		c-1.92-3.619-3.526-7.737-4.818-12.352c-0.739-2.733-1.349-5.577-1.828-8.53c-0.332-2.105-0.628-4.266-0.886-6.481
		c-0.143-1.375-0.216-2.667-0.223-3.877h103.08c-0.507,3.501-1.209,6.953-2.105,10.358c-0.442,1.698-0.94,3.378-1.495,5.04
		C265.857,173.191,263.309,178.693,260.365,183.187z M228.018,160.365c-0.109,0.111-0.332,0.352-0.664,0.722l-1.995,2.271
		c-0.11,0.11-0.184,0.184-0.221,0.221c-0.111,0.074-0.203,0.13-0.276,0.167c-0.148,0-0.26,0-0.333,0
		c-0.073-0.037-0.13-0.093-0.167-0.167c-0.037-0.073-0.074-0.147-0.11-0.221c0-0.037,0-0.111,0-0.222c0-0.111,0-0.185,0-0.222
		l1.275-6.813l-0.888,0.498c-0.591,0.295-0.922,0.462-0.996,0.499c-0.111,0.036-0.24,0.055-0.39,0.055
		c-0.11,0-0.202-0.019-0.276-0.055c-0.073,0-0.129-0.019-0.165-0.056c-0.037-0.074-0.075-0.13-0.111-0.167
		c-0.037-0.036-0.443-0.774-1.218-2.215l-1.108-2.16l-1.828,3.323c-0.332,0.664-0.518,1.016-0.555,1.052
		c0,0.037-0.017,0.093-0.054,0.167c-0.074,0.037-0.13,0.056-0.167,0.056c-0.073,0.036-0.146,0.055-0.221,0.055
		c-0.075,0-0.166,0-0.277,0c-0.074,0-0.148-0.019-0.223-0.055c-0.11-0.037-0.295-0.13-0.553-0.277
		c-0.221-0.147-0.498-0.295-0.831-0.443l-0.497-0.276l1.051,5.649c0.147,0.775,0.222,1.2,0.222,1.273
		c0.037,0.148,0.037,0.277,0,0.388c-0.036,0.111-0.074,0.186-0.111,0.222c-0.073,0.037-0.128,0.074-0.165,0.111
		c-0.038,0-0.075,0-0.112,0c-0.147,0-0.276-0.037-0.387-0.111c-0.037-0.036-0.092-0.093-0.167-0.166
		c-0.073-0.037-0.184-0.147-0.33-0.332l-0.334-0.443c-0.073-0.037-0.812-0.85-2.216-2.437c-0.036-0.038-0.073-0.056-0.11-0.056
		l-0.222,0.831c-0.185,0.554-0.277,0.849-0.277,0.886c-0.037,0.073-0.074,0.13-0.111,0.166c-0.037,0.037-0.091,0.074-0.165,0.111
		c-0.075,0-0.129,0-0.166,0h-0.166l-3.711-0.721l0.221,0.665c0.443,1.661,0.701,2.622,0.775,2.88
		c0.075,0.332,0.129,0.535,0.166,0.609c0.036,0.074,0.036,0.147,0,0.222c0,0.074,0,0.129,0,0.166
		c-0.074,0.074-0.185,0.147-0.331,0.222c-0.074,0.037-0.313,0.166-0.721,0.388l-0.609,0.277l0.111,0.11
		c4.136,3.361,6.221,5.077,6.258,5.152c0.111,0.073,0.186,0.165,0.223,0.276c0,0.073,0,0.148,0,0.222
		c0.037,0.073,0.037,0.147,0,0.221c0,0.036-0.093,0.351-0.276,0.942l-0.277,0.941l3.82-0.442c1.662-0.185,2.513-0.277,2.55-0.277
		c0.073,0,0.129,0.017,0.165,0.055c0.075,0.038,0.111,0.093,0.111,0.166c0,0.037-0.074,1.182-0.223,3.435l-0.165,3.379h1.716
		l-0.166-3.323c-0.11-2.216-0.166-3.342-0.166-3.379c0-0.074,0-0.128,0-0.166v-0.111c0.037,0,0.075-0.019,0.111-0.055
		c0.037,0,0.074,0,0.11,0c0.074-0.037,1.145,0.074,3.213,0.332l3.157,0.388l-0.277-0.997c-0.146-0.442-0.221-0.702-0.221-0.775
		c-0.037-0.111-0.056-0.185-0.056-0.222c0-0.259,0.092-0.479,0.276-0.664c0.037-0.036,1.108-0.904,3.213-2.604l3.157-2.603
		l-0.664-0.333c-0.407-0.185-0.646-0.295-0.721-0.332c-0.146-0.074-0.239-0.147-0.276-0.222l-0.057-0.056c0-0.036,0-0.092,0-0.165
		c0-0.038,0-0.093,0-0.167c0-0.037,0.02-0.074,0.057-0.11c0.037-0.111,0.221-0.813,0.554-2.105l0.554-1.938
		c-0.11,0-0.239,0.019-0.387,0.056c-0.48,0.074-0.905,0.166-1.275,0.277c-0.738,0.147-1.237,0.24-1.494,0.276
		c-0.371,0.074-0.574,0.111-0.61,0.111c-0.074,0-0.147,0-0.221,0c-0.074-0.037-0.13-0.074-0.167-0.111
		c-0.036,0-0.056-0.018-0.056-0.056l-0.11-0.11c0-0.037-0.092-0.332-0.277-0.886c-0.11-0.555-0.184-0.831-0.221-0.831
		L228.018,160.365z M28.449,151.282h100.422c0,1.666-0.13,3.42-0.388,5.262c-0.258,1.772-0.517,3.472-0.775,5.097
		c-1.62,8.972-3.964,16.154-7.035,21.546H42.048c-0.264-0.315-0.512-0.629-0.748-0.942c-1.514-1.993-3.01-4.412-4.487-7.256
		c-2.104-4.099-3.951-8.548-5.538-13.348c-0.259-0.776-0.499-1.552-0.721-2.327C29.705,156.53,29.003,153.854,28.449,151.282z
		 M80.626,156.933c-0.591,0.295-0.923,0.461-0.997,0.498c-0.111,0.036-0.24,0.056-0.388,0.056c-0.111,0-0.203-0.02-0.277-0.056
		c-0.074,0-0.13-0.019-0.167-0.056c-0.037-0.074-0.074-0.129-0.111-0.166c-0.037-0.037-0.443-0.775-1.218-2.216l-1.108-2.16
		l-1.827,3.323c-0.333,0.665-0.517,1.016-0.554,1.053c0,0.037-0.018,0.092-0.055,0.166c-0.074,0.037-0.129,0.056-0.166,0.056
		c-0.074,0.036-0.148,0.056-0.222,0.056c-0.074,0-0.166,0-0.277,0c-0.074,0-0.147-0.02-0.222-0.056
		c-0.11-0.037-0.295-0.13-0.554-0.277c-0.221-0.147-0.498-0.296-0.831-0.443l-0.498-0.276l1.052,5.649
		c0.148,0.775,0.222,1.2,0.222,1.274c0.037,0.147,0.037,0.276,0,0.388c-0.037,0.11-0.074,0.185-0.111,0.221
		c-0.03,0.016-0.058,0.034-0.083,0.056c-0.034,0.016-0.062,0.034-0.083,0.056c-0.037,0-0.074,0-0.111,0
		c-0.147,0-0.277-0.037-0.388-0.111c-0.037-0.036-0.092-0.092-0.166-0.166c-0.073-0.036-0.184-0.147-0.332-0.332l-0.333-0.443
		c-0.073-0.037-0.812-0.849-2.216-2.437c-0.037-0.037-0.073-0.056-0.11-0.056l-0.221,0.831c-0.185,0.554-0.277,0.85-0.277,0.886
		c-0.037,0.074-0.074,0.13-0.111,0.166c-0.037,0.037-0.092,0.074-0.166,0.111c-0.074,0-0.129,0-0.167,0h-0.166l-3.711-0.72
		l0.221,0.664c0.122,0.458,0.233,0.864,0.333,1.219c0.241,0.92,0.39,1.475,0.443,1.661c0.074,0.333,0.129,0.536,0.166,0.609
		c0.037,0.074,0.037,0.148,0,0.222c0,0.074,0,0.13,0,0.167c-0.074,0.073-0.185,0.147-0.333,0.221
		c-0.074,0.037-0.313,0.166-0.72,0.388l-0.609,0.277l0.111,0.111c0.43,0.349,0.836,0.682,1.218,0.997
		c3.328,2.703,5.007,4.088,5.041,4.154c0.111,0.073,0.185,0.166,0.222,0.276c0,0.073,0,0.146,0,0.222
		c0.037,0.073,0.037,0.148,0,0.223c0,0.036-0.093,0.35-0.277,0.941v0.055l-0.277,0.885l3.821-0.441
		c1.662-0.186,2.512-0.277,2.548-0.277c0.074,0,0.129,0.019,0.166,0.056c0.074,0.036,0.111,0.093,0.111,0.166
		c0,0.025-0.037,0.562-0.111,1.606c-0.026,0.497-0.063,1.106-0.111,1.827l-0.166,3.379h1.717l-0.166-3.324
		c-0.038-0.764-0.066-1.401-0.083-1.909c-0.056-0.955-0.083-1.445-0.083-1.469c0-0.073,0-0.13,0-0.166v-0.11
		c0.037,0,0.074-0.019,0.111-0.056c0.037,0,0.073,0,0.11,0c0.074-0.037,1.145,0.074,3.212,0.332l3.157,0.387l-0.276-0.996
		c-0.148-0.443-0.222-0.701-0.222-0.774c-0.037-0.11-0.055-0.185-0.055-0.222c0-0.26,0.092-0.48,0.277-0.665
		c0.037-0.038,1.107-0.905,3.212-2.604l3.157-2.603l-0.665-0.332c-0.406-0.185-0.646-0.296-0.72-0.333
		c-0.147-0.073-0.24-0.147-0.276-0.221l-0.056-0.056c0-0.037,0-0.092,0-0.167c0-0.036,0-0.092,0-0.166
		c0-0.036,0.018-0.073,0.056-0.11c0.037-0.11,0.221-0.813,0.554-2.104l0.554-1.938c-0.111,0-0.24,0.018-0.388,0.055
		c-0.48,0.074-0.905,0.166-1.274,0.277c-0.739,0.147-1.237,0.24-1.496,0.276c-0.37,0.074-0.572,0.111-0.609,0.111
		c-0.074,0-0.148,0-0.222,0c-0.074-0.037-0.129-0.074-0.166-0.111c-0.038,0-0.056-0.019-0.056-0.055l-0.111-0.111
		c0-0.036-0.092-0.332-0.277-0.886c-0.11-0.554-0.184-0.831-0.221-0.831l-0.166,0.166c-0.111,0.111-0.333,0.351-0.665,0.72
		l-1.994,2.271c-0.11,0.11-0.184,0.185-0.221,0.222c-0.111,0.074-0.204,0.129-0.277,0.166c-0.148,0-0.258,0-0.333,0
		c-0.034-0.018-0.062-0.035-0.083-0.056c-0.036-0.033-0.063-0.07-0.083-0.11c-0.037-0.074-0.073-0.147-0.111-0.222
		c0-0.037,0-0.111,0-0.222s0-0.185,0-0.222l1.275-6.813L80.626,156.933z"/>
	<path fill-rule="evenodd" clip-rule="evenodd" fill="#DD1F26" d="M271.609,151.282h-103.08c-0.014-2.266,0.208-4.242,0.665-5.927
		c0.775-2.511,2.142-4.542,4.099-6.093c2.807-2.104,7.699-4.025,14.679-5.76c6.979-1.699,15.011-2.954,24.094-3.767
		c7.348-0.59,15.713-0.996,25.092-1.218c0.369-0.037,0.738-0.055,1.107-0.055c8.753-0.147,14.771-0.019,18.058,0.388
		c8.64,0.997,13.719,3.396,15.231,7.2c0.923,2.4,1.053,6.647,0.389,12.74C271.843,149.623,271.732,150.454,271.609,151.282z
		 M176.645,183.187h83.721c-0.206,0.301-0.408,0.596-0.608,0.887c-2.864,4.175-6.095,7.424-9.693,9.749
		c-3.398,2.215-7.331,3.987-11.799,5.316c-2.288,0.702-4.745,1.293-7.366,1.773c-7.646,1.401-15.473,1.661-23.484,0.774
		c-3.251-0.369-6.149-0.886-8.697-1.55c-2.585-0.739-5.077-1.7-7.478-2.882c-2.844-1.328-5.668-3.378-8.475-6.147
		c-2.332-2.331-4.206-4.677-5.622-7.034C176.968,183.778,176.802,183.482,176.645,183.187z M128.871,151.282H28.449
		c-0.567-2.682-0.973-5.249-1.218-7.7c-0.222-2.511-0.314-4.283-0.277-5.317c0.037-0.96,0.222-2.031,0.554-3.212
		c0.517-1.773,1.33-3.176,2.437-4.21c1.182-1.071,2.899-1.902,5.151-2.493c4.099-1.034,11.89-1.44,23.375-1.219
		c2.474,0.038,5.354,0.129,8.641,0.277c0.665,0.038,1.348,0.074,2.049,0.111c4.174,0.186,7.645,0.388,10.414,0.609
		c6.831,0.48,11.78,0.886,14.844,1.219c3.028,0.406,6.277,0.942,9.749,1.606c10.044,2.179,16.875,4.855,20.494,8.032
		c1.772,1.551,2.991,3.858,3.656,6.923C128.671,147.584,128.856,149.375,128.871,151.282z M42.048,183.187h78.625
		c-0.175,0.302-0.35,0.597-0.526,0.887c-0.26,0.438-0.528,0.862-0.803,1.272c-0.493,0.728-1.009,1.429-1.551,2.106
		c-4.25,5.281-10.011,8.936-17.281,10.967c-1.736,0.481-3.416,0.775-5.041,0.887c-1.587,0.147-4.689,0.221-9.305,0.221
		c-5.761,0-10.1-0.185-13.017-0.553c-1.698-0.261-3.711-0.666-6.037-1.219c-1.514-0.406-3.194-0.887-5.041-1.441
		c-2.05-0.622-3.859-1.25-5.428-1.883c-1.313-0.532-2.458-1.068-3.434-1.606c-2.179-1.145-4.302-2.64-6.37-4.487
		c-1.534-1.456-2.891-2.878-4.071-4.264C42.515,183.775,42.275,183.48,42.048,183.187z M228.018,160.365l0.167-0.165
		c0.037,0,0.11,0.276,0.221,0.831c0.186,0.554,0.277,0.849,0.277,0.886l0.11,0.11c0,0.038,0.02,0.056,0.056,0.056
		c0.037,0.037,0.093,0.074,0.167,0.111c0.073,0,0.146,0,0.221,0c0.036,0,0.239-0.037,0.61-0.111
		c0.257-0.036,0.756-0.129,1.494-0.276c0.37-0.111,0.795-0.203,1.275-0.277c0.147-0.037,0.276-0.056,0.387-0.056l-0.554,1.938
		c-0.333,1.293-0.517,1.994-0.554,2.105c-0.037,0.036-0.057,0.073-0.057,0.11c0,0.074,0,0.129,0,0.167c0,0.073,0,0.129,0,0.165
		l0.057,0.056c0.037,0.074,0.13,0.147,0.276,0.222c0.074,0.037,0.313,0.147,0.721,0.332l0.664,0.333l-3.157,2.603
		c-2.104,1.7-3.176,2.568-3.213,2.604c-0.185,0.185-0.276,0.405-0.276,0.664c0,0.037,0.019,0.11,0.056,0.222
		c0,0.073,0.074,0.333,0.221,0.775l0.277,0.997l-3.157-0.388c-2.068-0.258-3.139-0.369-3.213-0.332c-0.036,0-0.073,0-0.11,0
		c-0.036,0.036-0.074,0.055-0.111,0.055v0.111c0,0.038,0,0.092,0,0.166c0,0.037,0.056,1.163,0.166,3.379l0.166,3.323h-1.716
		l0.165-3.379c0.148-2.253,0.223-3.397,0.223-3.435c0-0.073-0.036-0.128-0.111-0.166c-0.036-0.038-0.092-0.055-0.165-0.055
		c-0.037,0-0.888,0.093-2.55,0.277l-3.82,0.442l0.277-0.941c0.184-0.592,0.276-0.906,0.276-0.942c0.037-0.073,0.037-0.147,0-0.221
		c0-0.073,0-0.148,0-0.222c-0.037-0.111-0.111-0.203-0.223-0.276c-0.037-0.075-2.122-1.791-6.258-5.152l-0.111-0.11l0.609-0.277
		c0.407-0.222,0.646-0.351,0.721-0.388c0.146-0.074,0.257-0.147,0.331-0.222c0-0.037,0-0.092,0-0.166
		c0.036-0.074,0.036-0.147,0-0.222c-0.037-0.074-0.091-0.277-0.166-0.609c-0.074-0.258-0.332-1.219-0.775-2.88l-0.221-0.665
		l3.711,0.721h0.166c0.037,0,0.091,0,0.166,0c0.074-0.037,0.128-0.074,0.165-0.111c0.037-0.036,0.074-0.093,0.111-0.166
		c0-0.037,0.093-0.332,0.277-0.886l0.222-0.831c0.037,0,0.074,0.018,0.11,0.056c1.404,1.587,2.143,2.399,2.216,2.437l0.334,0.443
		c0.146,0.185,0.257,0.295,0.33,0.332c0.075,0.073,0.13,0.13,0.167,0.166c0.11,0.074,0.239,0.111,0.387,0.111
		c0.037,0,0.074,0,0.112,0c0.037-0.037,0.092-0.074,0.165-0.111c0.037-0.036,0.075-0.11,0.111-0.222c0.037-0.11,0.037-0.239,0-0.388
		c0-0.073-0.074-0.498-0.222-1.273l-1.051-5.649l0.497,0.276c0.333,0.148,0.61,0.296,0.831,0.443
		c0.258,0.147,0.442,0.24,0.553,0.277c0.074,0.036,0.148,0.055,0.223,0.055c0.111,0,0.202,0,0.277,0
		c0.074,0,0.147-0.019,0.221-0.055c0.037,0,0.093-0.019,0.167-0.056c0.037-0.074,0.054-0.13,0.054-0.167
		c0.037-0.036,0.223-0.388,0.555-1.052l1.828-3.323l1.108,2.16c0.774,1.44,1.181,2.179,1.218,2.215
		c0.036,0.037,0.074,0.093,0.111,0.167c0.036,0.037,0.092,0.056,0.165,0.056c0.074,0.036,0.166,0.055,0.276,0.055
		c0.149,0,0.278-0.019,0.39-0.055c0.074-0.037,0.405-0.204,0.996-0.499l0.888-0.498l-1.275,6.813c0,0.037,0,0.11,0,0.222
		c0,0.11,0,0.185,0,0.222c0.036,0.073,0.073,0.147,0.11,0.221c0.037,0.074,0.094,0.13,0.167,0.167c0.073,0,0.185,0,0.333,0
		c0.073-0.037,0.165-0.093,0.276-0.167c0.037-0.037,0.11-0.11,0.221-0.221l1.995-2.271
		C227.686,160.717,227.908,160.477,228.018,160.365z M80.626,156.933l0.887-0.499l-1.275,6.813c0,0.037,0,0.111,0,0.222
		s0,0.185,0,0.222c0.038,0.074,0.074,0.147,0.111,0.222c0.02,0.04,0.048,0.077,0.083,0.11c0.021,0.021,0.049,0.038,0.083,0.056
		c0.074,0,0.185,0,0.333,0c0.073-0.037,0.166-0.092,0.277-0.166c0.037-0.037,0.111-0.111,0.221-0.222l1.994-2.271
		c0.333-0.369,0.554-0.608,0.665-0.72l0.166-0.166c0.037,0,0.111,0.277,0.221,0.831c0.185,0.554,0.277,0.85,0.277,0.886l0.111,0.111
		c0,0.036,0.018,0.055,0.056,0.055c0.037,0.037,0.092,0.074,0.166,0.111c0.074,0,0.148,0,0.222,0c0.037,0,0.24-0.037,0.609-0.111
		c0.258-0.036,0.757-0.129,1.496-0.276c0.369-0.111,0.793-0.203,1.274-0.277c0.148-0.037,0.277-0.055,0.388-0.055l-0.554,1.938
		c-0.333,1.292-0.517,1.994-0.554,2.104c-0.038,0.037-0.056,0.074-0.056,0.11c0,0.074,0,0.13,0,0.166c0,0.075,0,0.13,0,0.167
		l0.056,0.056c0.037,0.073,0.129,0.147,0.276,0.221c0.074,0.037,0.314,0.148,0.72,0.333l0.665,0.332l-3.157,2.603
		c-2.105,1.699-3.176,2.566-3.212,2.604c-0.186,0.185-0.277,0.405-0.277,0.665c0,0.037,0.019,0.111,0.055,0.222
		c0,0.073,0.074,0.331,0.222,0.774l0.276,0.996l-3.157-0.387c-2.068-0.258-3.139-0.369-3.212-0.332c-0.037,0-0.074,0-0.11,0
		c-0.037,0.037-0.074,0.056-0.111,0.056v0.11c0,0.036,0,0.093,0,0.166c0,0.023,0.027,0.514,0.083,1.469
		c0.017,0.508,0.045,1.146,0.083,1.909l0.166,3.324h-1.717l0.166-3.379c0.048-0.721,0.084-1.33,0.111-1.827
		c0.074-1.045,0.111-1.581,0.111-1.606c0-0.073-0.037-0.13-0.111-0.166c-0.037-0.037-0.092-0.056-0.166-0.056
		c-0.037,0-0.887,0.092-2.548,0.277l-3.821,0.441l0.277-0.885v-0.055c0.184-0.592,0.277-0.905,0.277-0.941
		c0.037-0.074,0.037-0.149,0-0.223c0-0.075,0-0.148,0-0.222c-0.037-0.11-0.111-0.203-0.222-0.276
		c-0.033-0.066-1.713-1.451-5.041-4.154c-0.382-0.315-0.789-0.648-1.218-0.997l-0.111-0.111l0.609-0.277
		c0.406-0.222,0.646-0.351,0.72-0.388c0.148-0.073,0.259-0.147,0.333-0.221c0-0.037,0-0.093,0-0.167
		c0.037-0.073,0.037-0.147,0-0.222c-0.037-0.073-0.092-0.276-0.166-0.609c-0.053-0.187-0.202-0.741-0.443-1.661
		c-0.1-0.354-0.211-0.761-0.333-1.219l-0.221-0.664l3.711,0.72h0.166c0.037,0,0.092,0,0.167,0c0.074-0.037,0.129-0.074,0.166-0.111
		c0.037-0.036,0.074-0.092,0.111-0.166c0-0.036,0.092-0.332,0.277-0.886l0.221-0.831c0.037,0,0.074,0.019,0.11,0.056
		c1.404,1.588,2.143,2.399,2.216,2.437l0.333,0.443c0.148,0.185,0.259,0.296,0.332,0.332c0.074,0.074,0.129,0.13,0.166,0.166
		c0.111,0.074,0.241,0.111,0.388,0.111c0.037,0,0.074,0,0.111,0c0.021-0.021,0.049-0.04,0.083-0.056
		c0.025-0.021,0.053-0.04,0.083-0.056c0.037-0.036,0.074-0.11,0.111-0.221c0.037-0.111,0.037-0.24,0-0.388
		c0-0.074-0.074-0.499-0.222-1.274l-1.052-5.649l0.498,0.276c0.333,0.147,0.61,0.296,0.831,0.443
		c0.258,0.147,0.444,0.24,0.554,0.277c0.074,0.036,0.148,0.056,0.222,0.056c0.111,0,0.203,0,0.277,0c0.074,0,0.147-0.02,0.222-0.056
		c0.037,0,0.092-0.019,0.166-0.056c0.037-0.074,0.055-0.129,0.055-0.166c0.037-0.037,0.222-0.388,0.554-1.053l1.827-3.323
		l1.108,2.16c0.775,1.44,1.182,2.179,1.218,2.216c0.037,0.037,0.074,0.092,0.111,0.166c0.037,0.037,0.092,0.056,0.167,0.056
		c0.074,0.036,0.166,0.056,0.277,0.056c0.147,0,0.277-0.02,0.388-0.056C79.704,157.394,80.036,157.228,80.626,156.933z"/>
</g>
</svg>
