<?xml version="1.0" encoding="utf-8"?>
<!-- Generator: Adobe Illustrator 16.0.0, SVG Export Plug-In . SVG Version: 6.00 Build 0)  -->
<!DOCTYPE svg PUBLIC "-//W3C//DTD SVG 1.1//EN" "http://www.w3.org/Graphics/SVG/1.1/DTD/svg11.dtd">
<svg version="1.1" id="Layer_1" xmlns="http://www.w3.org/2000/svg" xmlns:xlink="http://www.w3.org/1999/xlink" x="0px" y="0px"
	 width="300px" height="300px" viewBox="0 0 300 300" enable-background="new 0 0 300 300" xml:space="preserve">
<g>
	<path fill-rule="evenodd" clip-rule="evenodd" fill="#FFFFFF" d="M40.628,69.929c3.503-2.815,7.638-4.661,12.406-5.534
		c4.476-0.744,9.017-0.533,13.622,0.63C74.7,67,82.435,71.692,89.862,79.103c7.362,7.347,13.395,16.246,18.098,26.698
		c4.314,9.515,7.346,19.903,9.098,31.166c2.206,14.53,2.222,29.126,0.048,43.785v0.049c-19.946-8.867-38.174-20.339-54.683-34.417
		c-6.649-5.696-12.13-11.148-16.444-16.359c-5.319-6.44-9.309-12.977-11.968-19.611c-3.016-7.573-4.103-14.725-3.259-21.457
		c0.421-3.753,1.476-7.249,3.163-10.484C35.634,75.042,37.872,72.194,40.628,69.929z M71.278,97.307
		c-0.097,0.033-0.243,0.049-0.438,0.049c-0.129,0-0.259,0-0.389,0c-0.162,0-0.34-0.033-0.535-0.097
		c-0.195-0.097-0.47-0.259-0.827-0.486c-0.389-0.227-0.909-0.485-1.557-0.776l-0.827-0.534l1.849,10
		c0.26,1.392,0.39,2.136,0.39,2.233c0.064,0.324,0.064,0.583,0,0.776c-0.065,0.163-0.13,0.259-0.195,0.292
		c-0.129,0.161-0.211,0.259-0.243,0.292c-0.162,0-0.259,0-0.292,0c-0.292,0-0.52-0.098-0.682-0.292
		c-0.097,0-0.195-0.082-0.292-0.243c-0.163-0.033-0.357-0.21-0.584-0.534l-0.584-0.825c-0.129-0.064-1.459-1.521-3.989-4.369
		c0-0.065-0.048-0.097-0.146-0.097c-0.032,0.064-0.162,0.55-0.389,1.457c-0.292,1.035-0.47,1.585-0.535,1.649
		c0,0.13-0.048,0.227-0.146,0.292c-0.097,0.128-0.194,0.193-0.292,0.193c-0.162,0.033-0.276,0.049-0.341,0.049H60.04l-6.665-1.36
		l0.486,1.311c0.746,2.88,1.167,4.563,1.265,5.048c0.195,0.55,0.292,0.906,0.292,1.069c0.033,0.129,0.033,0.242,0,0.339
		c0,0.129,0,0.227,0,0.291c-0.097,0.162-0.292,0.324-0.583,0.486c-0.13,0-0.552,0.194-1.265,0.583l-1.07,0.534l0.243,0.194
		c7.265,5.889,10.995,8.931,11.189,9.125c0.097,0.13,0.179,0.325,0.243,0.583c0,0.096,0,0.209,0,0.339
		c0.065,0.194,0.065,0.307,0,0.339c0,0.098-0.146,0.647-0.438,1.65l-0.486,1.7l6.665-0.777c2.951-0.323,4.459-0.486,4.524-0.486
		c0.162,0,0.308,0.065,0.438,0.194c0.065,0.033,0.097,0.129,0.097,0.292c0.065,0-0.064,1.974-0.389,5.922l-0.243,6.068h2.968
		l-0.244-5.922c-0.227-3.851-0.34-5.841-0.34-5.971c0-0.064,0-0.162,0-0.291l0.048-0.048c0.064-0.033,0.146-0.097,0.243-0.194
		c0.032-0.032,0.113-0.049,0.243-0.049c0.033,0,1.914,0.194,5.644,0.583l5.595,0.68l-0.487-1.7
		c-0.259-0.809-0.388-1.278-0.388-1.407c-0.098-0.193-0.146-0.324-0.146-0.388c0-0.421,0.163-0.826,0.486-1.213
		c0.032-0.032,1.914-1.57,5.644-4.612l5.741-4.611l-1.119-0.534c-0.811-0.388-1.297-0.583-1.459-0.583
		c-0.162-0.162-0.292-0.324-0.389-0.486c-0.065,0-0.098-0.032-0.098-0.097v-0.194c0-0.097,0-0.194,0-0.292
		c0-0.032,0.033-0.146,0.098-0.34c0-0.097,0.324-1.311,0.973-3.641l0.923-3.495c-0.162,0.064-0.373,0.097-0.632,0.097
		c-0.844,0.162-1.574,0.34-2.189,0.534c-1.427,0.259-2.335,0.436-2.724,0.534c-0.681,0.128-1.055,0.194-1.119,0.194
		c-0.13,0-0.259-0.016-0.39-0.049c-0.097,0-0.194-0.049-0.292-0.145c-0.033-0.032-0.065-0.082-0.097-0.146
		c-0.098-0.096-0.146-0.161-0.146-0.194c0-0.064-0.195-0.582-0.583-1.553c-0.195-0.971-0.292-1.489-0.292-1.553l-0.292,0.388
		c-0.194,0.194-0.6,0.647-1.216,1.359l-3.454,3.835c-0.195,0.259-0.34,0.404-0.438,0.436c-0.194,0.13-0.389,0.243-0.583,0.341
		c-0.259,0-0.454,0-0.583,0c-0.065-0.032-0.178-0.13-0.341-0.292c-0.032-0.162-0.049-0.292-0.049-0.388c0-0.065,0-0.194,0-0.389
		c0-0.194,0-0.308,0-0.34l2.189-12.184l-1.606,0.825c-1.038,0.647-1.637,0.971-1.799,0.971c-0.195,0.064-0.39,0.097-0.583,0.097
		c-0.227,0-0.422-0.016-0.584-0.049c0-0.032-0.064-0.097-0.195-0.193c-0.129-0.098-0.227-0.179-0.292-0.243
		c-0.033-0.065-0.73-1.344-2.092-3.835l-1.995-3.932l-3.211,6.019c-0.616,1.101-0.924,1.683-0.924,1.749
		c-0.065,0.064-0.162,0.145-0.292,0.243C71.44,97.209,71.375,97.274,71.278,97.307z"/>
	<path fill-rule="evenodd" clip-rule="evenodd" fill="#010101" d="M29.828,82.453c-1.362,4.693-1.8,9.79-1.313,15.291
		c0.486,4.952,1.816,10.162,3.989,15.631c1.784,4.401,4.2,9.109,7.249,14.125c6.194,10.13,13.573,19.077,22.136,26.844
		c7.232,6.603,15.017,12.104,23.352,16.504c7.752,4.143,15.763,7.347,24.033,9.612c1.946,0.55,4.2,1.133,6.762,1.747
		c1.59,0.421,2.368,0.777,2.335,1.068c-2.335,0.259-5.546,0.081-9.633-0.534c-8.108-1.197-16.573-3.867-25.395-8.01
		c-8.887-4.142-17.255-9.547-25.104-16.212c-9.243-7.865-17.238-17.056-23.985-27.573c-7.232-11.229-11.433-22.071-12.6-32.524
		c-0.648-6.246-0.162-12.216,1.459-17.913c0.843-3.009,1.995-5.841,3.454-8.495c1.557-2.783,3.406-5.275,5.546-7.476
		c0.421-0.485,0.989-1.051,1.703-1.699c2.141-1.942,4.508-3.625,7.103-5.048c2.498-1.359,5.141-2.427,7.93-3.205
		c3.114-0.906,6.341-1.423,9.682-1.553c3.178-0.129,6.357,0.097,9.535,0.68c6.26,1.132,12.276,3.479,18.049,7.039
		c5.158,3.203,9.796,7.167,13.915,11.893c7.913,9.029,14.043,20.517,18.389,34.465c1.784,5.793,3.454,12.622,5.011,20.485
		c0.746,3.852,1.735,9.514,2.967,16.99c1.395,8.543,2.335,14.644,2.822,18.301c0.583,4.369,0.713,6.585,0.389,6.65
		c-0.324,0.064-1.103-2.022-2.335-6.263c-1.266-4.434-2.773-10.421-4.524-17.96c-1.524-6.796-2.822-12.362-3.892-16.699
		c-1.946-7.96-3.844-14.563-5.692-19.805c-4.704-13.333-10.687-23.948-17.952-31.845c-3.859-4.208-8.076-7.702-12.649-10.486
		c-5.125-3.139-10.363-5.129-15.714-5.97c-2.692-0.453-5.368-0.615-8.027-0.485c-2.821,0.129-5.497,0.566-8.027,1.311
		c-2.27,0.647-4.427,1.538-6.47,2.669c-2.108,1.133-4.021,2.476-5.741,4.03c-0.292,0.323-0.746,0.776-1.362,1.359
		c-1.719,1.78-3.211,3.802-4.476,6.067C31.547,77.63,30.574,79.961,29.828,82.453z M103.533,201.771
		c0.778-0.776,1.556-1.57,2.335-2.379l-0.146,0.875c-0.39,2.328-1.021,4.643-1.897,6.94c-2.821,7.864-7.881,15.243-15.178,22.136
		c-6.065,5.729-13.152,10.161-21.26,13.301c-9.601,3.755-19.428,5.081-29.482,3.981c-4.378-0.454-8.514-1.408-12.406-2.864
		c-4.378-1.619-8.271-3.804-11.676-6.554c-3.632-2.978-6.486-6.44-8.562-10.388c-1.07-2.072-1.897-4.273-2.481-6.603
		C2.26,217.985,2,215.752,2,213.519c0.098-4.207,1.103-8.285,3.017-12.232c1.784-3.656,4.184-6.91,7.2-9.758
		c5.417-5.08,12.308-8.786,20.676-11.116c7.233-2.039,15.082-3.074,23.547-3.107c6.259,0,13.022,0.551,20.287,1.651
		c10.152,1.553,19.297,3.721,27.439,6.505c2.821,0.972,5.189,1.909,7.103,2.815c1.621,0.744,2.4,1.214,2.334,1.408
		c-0.097,0.259-1.021,0.242-2.772-0.049c-0.163-0.032-2.627-0.55-7.395-1.554c-9.536-1.942-18.649-3.333-27.342-4.175
		c-7.298-0.68-13.816-0.922-19.557-0.729c-8.076,0.292-15.325,1.44-21.747,3.446c-7.654,2.428-13.59,5.729-17.806,9.903
		c-2.368,2.331-4.249,4.937-5.644,7.815c-1.524,3.075-2.287,6.149-2.287,9.224c0,1.65,0.195,3.316,0.584,4.999
		c0.454,1.716,1.086,3.383,1.897,5.001c1.524,3.042,3.762,5.792,6.714,8.252c2.692,2.266,5.919,4.11,9.681,5.534
		c3.276,1.229,6.876,2.104,10.8,2.621c8.887,1.165,17.773,0.194,26.66-2.912c7.428-2.622,14.108-6.408,20.044-11.36
		c6.778-5.728,12.129-12.264,16.055-19.609C101.684,205.703,102.365,204.264,103.533,201.771z M180.254,62.453
		c2.304,0.55,4.509,1.408,6.617,2.572c2.011,1.133,3.876,2.493,5.595,4.078c3.34,3.075,5.919,6.796,7.735,11.165
		c1.718,4.142,2.69,8.577,2.919,13.301c0.193,4.207-0.211,8.462-1.217,12.767c-2.173,9.579-6.697,18.559-13.572,26.941
		c-4.898,5.986-10.688,11.359-17.369,16.117c-4.8,3.429-9.324,6.099-13.573,8.009c-1.524,0.712-2.821,1.229-3.893,1.553
		c-0.939,0.324-1.443,0.421-1.508,0.292c-0.129-0.259,1.314-1.473,4.33-3.641c4.638-3.27,8.709-6.392,12.211-9.369
		c6.13-5.243,11.304-10.663,15.52-16.262c6.098-8.188,9.941-16.504,11.53-24.951c0.713-3.851,0.973-7.556,0.779-11.117
		c-0.228-4.012-1.071-7.653-2.531-10.922c-1.523-3.495-3.566-6.408-6.129-8.738c-1.33-1.198-2.757-2.217-4.282-3.058
		c-1.556-0.874-3.178-1.504-4.864-1.893l-0.098-0.048c-3.113-0.776-6.389-0.76-9.827,0.048c-3.211,0.712-6.324,2.12-9.341,4.223
		c-5.157,3.528-9.698,9.062-13.623,16.602c-6.454,12.524-9.535,27.831-9.243,45.922c0.13,6.148,0.665,12.686,1.605,19.611
		c0.422,3.074,0.648,4.822,0.682,5.242c0.097,1.229,0.032,1.877-0.195,1.942c-0.163,0.065-0.503-0.486-1.021-1.649
		c-0.617-1.36-1.232-3.06-1.849-5.098c-1.719-5.76-2.935-12.362-3.649-19.806c-0.713-7.735-0.633-15.243,0.243-22.524
		c1.168-9.611,3.681-18.462,7.541-26.553c3.989-8.35,9.146-14.806,15.472-19.369c3.664-2.589,7.589-4.385,11.772-5.388
		c4.411-1.068,8.757-1.101,13.039-0.098L180.254,62.453z M110.879,214.004c0.422-1.067,1.038-2.395,1.849-3.979
		c1.297-2.59,2.513-4.742,3.649-6.457c1.492-2.266,3.016-4.158,4.573-5.68c2.367-2.298,4.994-3.997,7.881-5.098
		c0.356,5.05-0.243,10.033-1.8,14.952c-0.908,2.978-2.287,6.278-4.135,9.902c-0.713,1.327-1.33,2.396-1.849,3.204
		c-0.746,1.165-1.524,2.088-2.335,2.768c-0.94,0.873-1.913,1.44-2.919,1.698c-1.135,0.355-2.173,0.308-3.113-0.146
		c-1.104-0.55-1.897-1.505-2.384-2.864c-0.454-1.197-0.601-2.588-0.438-4.175C109.988,216.836,110.328,215.46,110.879,214.004z
		 M195.044,143.18c-1.687,0-2.546-0.081-2.578-0.243c0-0.129,0.827-0.339,2.481-0.63c2.724-0.485,5.011-0.955,6.859-1.408
		c8.303-1.941,15.99-4.984,23.06-9.126c4.703-2.686,9.064-5.825,13.088-9.417c4.54-4.045,8.497-8.511,11.87-13.399
		c1.199-1.715,2.254-3.382,3.162-4.999c2.79-4.984,4.428-9.741,4.914-14.272c0.42-3.657,0.145-7.071-0.828-10.243
		c-1.038-3.43-2.756-6.294-5.156-8.592c-2.238-2.201-4.93-3.705-8.076-4.514c-2.822-0.712-5.546-0.792-8.174-0.243
		c-0.681,0.129-1.36,0.291-2.043,0.485c0.973,0.421,1.8,1.02,2.482,1.796c0.744,0.776,1.296,1.651,1.653,2.621
		c0.356,1.003,0.519,2.055,0.486,3.156c-0.032,1.133-0.259,2.2-0.681,3.204c-0.39,1.003-0.94,1.942-1.655,2.816
		c-0.681,0.841-1.475,1.569-2.383,2.184c-1.653,1.1-3.341,1.667-5.06,1.699c-0.908,0.064-1.769-0.064-2.578-0.389
		c-0.876-0.323-1.623-0.792-2.239-1.408c-0.712-0.712-1.231-1.585-1.556-2.621c-0.261-0.906-0.405-1.877-0.438-2.912l-0.099,0.048
		c-0.064-0.032-0.016-0.324,0.146-0.874c0.064-1.424,0.34-2.75,0.826-3.98c0.519-1.328,1.233-2.443,2.142-3.35
		c0.745-0.776,2.043-1.65,3.893-2.622c0.39-0.194,0.745-0.388,1.069-0.582c0.194-0.098,0.552-0.243,1.07-0.437
		c0.715-0.356,1.427-0.583,2.142-0.68c1.264-0.259,2.026-0.404,2.286-0.437c3.016-0.777,6.129-0.809,9.341-0.097
		c3.632,0.777,6.811,2.411,9.536,4.903c2.887,2.654,4.962,5.939,6.226,9.855c1.169,3.656,1.541,7.508,1.119,11.553
		c-0.583,5.146-2.351,10.372-5.302,15.68c-0.908,1.683-2.028,3.446-3.358,5.291c-3.566,5.113-7.752,9.741-12.55,13.883
		c-4.249,3.657-8.856,6.829-13.818,9.514c-4.313,2.331-8.757,4.224-13.329,5.68c-3.634,1.165-7.25,2.006-10.85,2.524
		C199.455,142.986,197.088,143.18,195.044,143.18z M183.271,145.996c1.232,0.097,2.286,0.582,3.163,1.456
		c0.908,0.875,1.491,1.991,1.751,3.35c0.227,1.359,0.113,2.783-0.341,4.271c-0.389,1.328-1.038,2.605-1.945,3.836
		c-1.428,1.941-3.033,3.203-4.816,3.786c-0.974,0.291-1.914,0.355-2.822,0.194c-0.974-0.227-1.8-0.663-2.481-1.311
		c-0.291-0.292-0.534-0.614-0.729-0.972c-0.064,0.064-0.13,0.114-0.194,0.146c-1.882,1.812-3.601,3.818-5.157,6.02
		c-0.583,0.84-1.427,2.103-2.529,3.786c-1.071,1.392-2.076,2.459-3.017,3.202c-0.909,0.648-1.864,1.085-2.871,1.312
		c-1.037,0.26-2.026,0.243-2.967-0.048c-0.974-0.324-1.8-0.874-2.481-1.651c-0.682-0.842-1.119-1.813-1.313-2.912
		c-0.162-1.003-0.113-2.056,0.146-3.155c0.26-1.035,0.682-2.006,1.265-2.912c0.974-1.65,2.4-3.042,4.282-4.175
		c1.427-0.906,3.065-1.635,4.913-2.185c1.395-0.389,3.114-0.728,5.157-1.021c1.232-0.192,2.465-0.354,3.697-0.484
		c0-0.227,0.017-0.452,0.049-0.679c0.195-2.104,0.989-4.11,2.384-6.02c0.94-1.262,1.979-2.217,3.113-2.864
		C180.79,146.19,182.038,145.866,183.271,145.996z M135.594,181.141c0.973-0.55,1.93-0.792,2.871-0.729
		c0.939,0.097,1.751,0.47,2.432,1.116c0.681,0.68,1.119,1.537,1.313,2.573c0.195,1.035,0.113,2.12-0.243,3.252
		c-0.292,1.005-0.778,1.975-1.46,2.912c-1.103,1.49-2.352,2.444-3.746,2.865c-0.746,0.258-1.459,0.324-2.141,0.193
		c-0.746-0.161-1.379-0.501-1.897-1.019c-0.487-0.518-0.843-1.166-1.07-1.941c-0.26-0.744-0.341-1.539-0.244-2.38
		c0.129-1.65,0.746-3.187,1.848-4.61C133.939,182.435,134.717,181.691,135.594,181.141z M144.739,173.617
		c0.681-0.907,1.427-1.604,2.239-2.089c0.875-0.517,1.767-0.744,2.676-0.68c0.843,0.065,1.588,0.405,2.238,1.021
		c0.648,0.646,1.054,1.456,1.216,2.427c0.162,0.938,0.098,1.942-0.194,3.009c-0.324,0.972-0.794,1.878-1.411,2.719
		c-1.005,1.392-2.157,2.299-3.454,2.719c-0.681,0.227-1.347,0.276-1.995,0.146c-0.713-0.162-1.298-0.469-1.751-0.922
		c-0.487-0.485-0.844-1.101-1.071-1.845c-0.195-0.679-0.26-1.424-0.195-2.233C143.167,176.398,143.734,174.976,144.739,173.617z
		 M292.199,110.851c-1.201-2.071-2.774-3.852-4.721-5.34c-1.75-1.359-3.632-2.379-5.643-3.058c0.584,0.874,0.892,1.828,0.924,2.864
		c0.097,1.132-0.097,2.25-0.584,3.349c-0.876,1.975-2.481,3.576-4.815,4.806c-0.714,0.389-1.444,0.647-2.188,0.776
		c-0.586,0.13-1.363,0.194-2.336,0.194c-0.844,0.032-1.85-0.146-3.016-0.534c-1.137-0.388-2.045-0.842-2.726-1.359
		c-0.779-0.55-1.33-1.083-1.653-1.602c-0.357-0.519-0.617-1.229-0.779-2.136c-0.161-0.907-0.161-1.813,0-2.718
		c0.162-0.939,0.486-1.797,0.973-2.573c0.552-1.003,1.331-1.894,2.336-2.67c0.94-0.712,1.993-1.23,3.162-1.553
		c0.974-0.259,2.093-0.341,3.356-0.243c0.519,0.033,1.72,0.177,3.602,0.437c1.166,0.162,1.879,0.276,2.14,0.34l1.167,0.243
		c2.499,0.583,4.832,1.602,7.007,3.058c2.529,1.651,4.589,3.754,6.178,6.311c1.524,2.395,2.529,5.048,3.016,7.961
		c0.552,3.075,0.536,6.149-0.047,9.223c-0.586,2.784-1.591,5.486-3.019,8.107c-1.427,2.621-3.241,5.032-5.448,7.232
		c-3.341,3.398-7.427,6.214-12.259,8.446c-5.352,2.492-11.645,4.289-18.877,5.388c-8.011,1.263-16.087,1.667-24.229,1.213
		c-6.519-0.354-12.875-1.229-19.07-2.62c-4.572-1.036-8.628-2.233-12.162-3.592c-2.854-1.101-4.232-1.763-4.135-1.99
		c0.032-0.162,1.523,0.113,4.475,0.825c4.347,1.101,8.434,1.974,12.262,2.621c14.366,2.427,28.476,2.476,42.325,0.145
		c7.005-1.197,12.972-2.928,17.901-5.193c4.542-2.072,8.304-4.628,11.289-7.67c1.978-2.006,3.631-4.158,4.962-6.456
		c1.296-2.298,2.222-4.66,2.772-7.087c0.583-2.719,0.681-5.421,0.293-8.107C294.242,115.333,293.431,112.986,292.199,110.851z"/>
	<path fill-rule="evenodd" clip-rule="evenodd" fill="#ED2224" d="M105.869,199.393c-0.779,0.809-1.558,1.603-2.335,2.379
		c-8.53,8.77-17.984,16.505-28.364,23.203c-5.318,3.397-10.249,6.067-14.789,8.01c-5.546,2.331-10.897,3.722-16.055,4.175
		c-5.838,0.518-11.043-0.21-15.617-2.185c-2.498-1.1-4.687-2.557-6.567-4.368c-2.043-1.878-3.551-4.014-4.524-6.408
		c-1.265-2.978-1.703-6.229-1.314-9.757c0.389-3.204,1.476-6.295,3.26-9.271c3.049-5.146,7.914-9.531,14.595-13.155
		c6.616-3.561,14.043-5.891,22.282-6.99c7.492-1.004,15.341-0.939,23.546,0.194c10.638,1.488,20.79,4.497,30.455,9.028
		C108.949,195.994,107.425,197.709,105.869,199.393z M172.033,70.316c2.562-0.291,5.01-0.064,7.346,0.68
		c2.887,0.939,5.448,2.622,7.687,5.049c2.044,2.233,3.584,4.902,4.621,8.009c1.785,5.275,1.914,11.359,0.39,18.252
		c-1.491,6.893-4.362,13.592-8.61,20.097c-3.893,5.922-8.741,11.424-14.547,16.505c-7.492,6.602-15.812,11.941-24.958,16.019
		c-2.238-14.499-2.334-29.062-0.292-43.688c0.811-5.826,1.93-10.922,3.357-15.292c1.719-5.404,4.005-10.065,6.859-13.98
		c3.211-4.466,6.893-7.686,11.044-9.661C167.232,71.207,169.601,70.543,172.033,70.316z M71.278,97.307
		c0.098-0.032,0.162-0.097,0.194-0.193c0.13-0.098,0.228-0.179,0.292-0.243c0-0.065,0.308-0.647,0.924-1.749l3.211-6.019
		l1.995,3.932c1.362,2.492,2.059,3.77,2.092,3.835c0.064,0.064,0.162,0.145,0.292,0.243c0.13,0.096,0.195,0.161,0.195,0.193
		c0.163,0.033,0.357,0.049,0.584,0.049c0.194,0,0.389-0.033,0.583-0.097c0.162,0,0.762-0.324,1.799-0.971l1.606-0.825l-2.189,12.184
		c0,0.032,0,0.146,0,0.34c0,0.194,0,0.324,0,0.389c0,0.096,0.017,0.227,0.049,0.388c0.163,0.161,0.275,0.259,0.341,0.292
		c0.129,0,0.324,0,0.583,0c0.195-0.098,0.39-0.21,0.583-0.341c0.098-0.032,0.243-0.177,0.438-0.436l3.454-3.835
		c0.617-0.712,1.022-1.165,1.216-1.359l0.292-0.388c0,0.064,0.097,0.583,0.292,1.553c0.388,0.971,0.583,1.489,0.583,1.553
		c0,0.033,0.049,0.098,0.146,0.194c0.032,0.064,0.064,0.114,0.097,0.146c0.098,0.096,0.195,0.145,0.292,0.145
		c0.13,0.033,0.259,0.049,0.39,0.049c0.064,0,0.438-0.066,1.119-0.194c0.389-0.098,1.297-0.275,2.724-0.534
		c0.616-0.194,1.346-0.373,2.189-0.534c0.259,0,0.47-0.033,0.632-0.097l-0.923,3.495c-0.649,2.331-0.973,3.544-0.973,3.641
		c-0.065,0.194-0.098,0.308-0.098,0.34c0,0.097,0,0.194,0,0.292v0.194c0,0.064,0.033,0.097,0.098,0.097
		c0.097,0.162,0.227,0.324,0.389,0.486c0.163,0,0.649,0.194,1.459,0.583l1.119,0.534l-5.741,4.611
		c-3.73,3.042-5.611,4.58-5.644,4.612c-0.324,0.388-0.486,0.792-0.486,1.213c0,0.064,0.048,0.195,0.146,0.388
		c0,0.129,0.129,0.599,0.388,1.407l0.487,1.7l-5.595-0.68c-3.729-0.388-5.611-0.583-5.644-0.583c-0.13,0-0.211,0.017-0.243,0.049
		c-0.097,0.098-0.179,0.162-0.243,0.194l-0.048,0.048c0,0.129,0,0.227,0,0.291c0,0.13,0.113,2.12,0.34,5.971l0.244,5.922h-2.968
		l0.243-6.068c0.325-3.948,0.455-5.922,0.389-5.922c0-0.162-0.032-0.259-0.097-0.292c-0.13-0.129-0.275-0.194-0.438-0.194
		c-0.065,0-1.573,0.163-4.524,0.486l-6.665,0.777l0.486-1.7c0.292-1.003,0.438-1.553,0.438-1.65c0.065-0.032,0.065-0.145,0-0.339
		c0-0.13,0-0.243,0-0.339c-0.064-0.259-0.146-0.453-0.243-0.583c-0.194-0.194-3.924-3.236-11.189-9.125l-0.243-0.194l1.07-0.534
		c0.713-0.388,1.135-0.583,1.265-0.583c0.292-0.162,0.486-0.324,0.583-0.486c0-0.064,0-0.162,0-0.291
		c0.033-0.097,0.033-0.21,0-0.339c0-0.163-0.097-0.519-0.292-1.069c-0.097-0.485-0.519-2.168-1.265-5.048l-0.486-1.311l6.665,1.36
		h0.195c0.064,0,0.179-0.016,0.341-0.049c0.097,0,0.194-0.065,0.292-0.193c0.098-0.066,0.146-0.162,0.146-0.292
		c0.065-0.064,0.243-0.614,0.535-1.649c0.227-0.906,0.357-1.392,0.389-1.457c0.098,0,0.146,0.032,0.146,0.097
		c2.53,2.848,3.86,4.304,3.989,4.369l0.584,0.825c0.227,0.324,0.421,0.501,0.584,0.534c0.097,0.161,0.194,0.243,0.292,0.243
		c0.162,0.193,0.389,0.292,0.682,0.292c0.032,0,0.129,0,0.292,0c0.032-0.032,0.114-0.13,0.243-0.292
		c0.065-0.033,0.13-0.129,0.195-0.292c0.064-0.193,0.064-0.452,0-0.776c0-0.097-0.13-0.841-0.39-2.233l-1.849-10l0.827,0.534
		c0.648,0.291,1.168,0.549,1.557,0.776c0.357,0.227,0.632,0.389,0.827,0.486c0.194,0.064,0.373,0.097,0.535,0.097
		c0.13,0,0.26,0,0.389,0C71.035,97.355,71.181,97.34,71.278,97.307z"/>
</g>
</svg>
