<?xml version="1.0" encoding="utf-8"?>
<!-- Generator: Adobe Illustrator 16.0.0, SVG Export Plug-In . SVG Version: 6.00 Build 0)  -->
<!DOCTYPE svg PUBLIC "-//W3C//DTD SVG 1.1//EN" "http://www.w3.org/Graphics/SVG/1.1/DTD/svg11.dtd">
<svg version="1.1" id="Layer_1" xmlns="http://www.w3.org/2000/svg" xmlns:xlink="http://www.w3.org/1999/xlink" x="0px" y="0px"
	 width="300px" height="300px" viewBox="0 0 300 300" enable-background="new 0 0 300 300" xml:space="preserve">
<g>
	<path fill-rule="evenodd" clip-rule="evenodd" fill="#FE0101" d="M68.293,46.965l1.94-21.674l20.372,7.871l5.283-21.027
		l18.541,11.432l9.809-19.303l15.522,15.097L153.019,2l12.502,17.361l16.169-13.803l8.947,19.734L209.286,14.4l4.741,21.028
		l20.375-7.01l0.539,21.458l21.559-2.372l-3.668,20.92l21.669,1.939l-7.761,19.842l21.02,5.823l-11.428,18.007l19.188,10.137
		l-5.285,5.609c-3.305,3.306-6.539,6.685-9.701,10.134L298,152.965l-18.005,12.616l14.338,16.282l-19.832,8.95l10.779,18.547
		l-21.021,4.853l6.573,20.381l-21.449,0.646l3.02,21.459l-21.454-3.559l-1.292,21.676l-20.371-7.766l-5.39,20.92l-18.649-12.076
		l-9.592,19.732l-15.524-14.989L146.766,298l-12.396-17.901l-16.277,14.234l-8.946-19.517L90.605,285.6l-4.742-20.92l-20.48,6.47
		l-0.539-21.674l-21.667,2.911l3.666-21.46l-21.559-1.293l7.761-20.273l-20.912-5.392l11.318-18.654l-19.294-9.489l15.198-15.636
		L2,146.925l17.354-12.401L5.449,118.242l19.834-9.166L14.504,90.745l20.912-4.852l-7.115-21.028l21.559-0.539l-2.479-20.92
		L68.293,46.965z M62.903,116.085l-5.605-7.763l-1.617,8.195l-7.869,1.293l7.869,4.313l-0.862,8.736l6.143-6.47l7.978,3.018
		l-4.205-7.548l5.605-6.038L62.903,116.085z M75.299,76.187l-5.066-7.548l-1.94,8.087l-8.516,1.186l8.3,4.745l-0.971,8.844
		l6.252-6.58l7.545,2.805l-3.341-7.009l5.066-7.119L75.299,76.187z M147.305,150.809l26.409,10.244l-12.935-25.665l19.941-23.292
		l-27.058,7.009l-18.431-26.312l-6.899,28.468l-28.565,5.499l28.026,15.205l-2.695,31.81L147.305,150.809z M148.599,52.356
		l2.479-8.626l-7.438,3.235l-6.036-5.177l1.294,8.52l-7.438,5.392l9.27,0.539l2.372,7.873l3.018-7.009l8.517,0.107L148.599,52.356z
		 M107.206,44.701l-5.605,5.392l-7.653-2.913l3.989,7.657l-5.282,7.01l9.055-2.267l4.204,6.794l1.186-7.98l8.192-2.696l-7.545-2.372
		L107.206,44.701z"/>
	<path fill-rule="evenodd" clip-rule="evenodd" fill="#FECE00" d="M107.206,44.701l0.539,8.626l7.545,2.372l-8.192,2.696
		l-1.186,7.98l-4.204-6.794l-9.055,2.267l5.282-7.01l-3.989-7.657l7.653,2.913L107.206,44.701z M148.599,52.356l6.037,4.853
		l-8.517-0.107l-3.018,7.009l-2.372-7.873l-9.27-0.539l7.438-5.392l-1.294-8.52l6.036,5.177l7.438-3.235L148.599,52.356z
		 M147.305,150.809l-22.206,22.967l2.695-31.81l-28.026-15.205l28.565-5.499l6.899-28.468l18.431,26.312l27.058-7.009
		l-19.941,23.292l12.935,25.665L147.305,150.809z M75.299,76.187l7.33-2.588l-5.066,7.119l3.341,7.009l-7.545-2.805l-6.252,6.58
		l0.971-8.844l-8.3-4.745l8.516-1.186l1.94-8.087L75.299,76.187z M62.903,116.085l7.437-2.264l-5.605,6.038l4.205,7.548
		l-7.978-3.018l-6.143,6.47l0.862-8.736l-7.869-4.313l7.869-1.293l1.617-8.195L62.903,116.085z"/>
</g>
</svg>
