<?xml version="1.0" encoding="utf-8"?>
<!-- Generator: Adobe Illustrator 16.0.0, SVG Export Plug-In . SVG Version: 6.00 Build 0)  -->
<!DOCTYPE svg PUBLIC "-//W3C//DTD SVG 1.1//EN" "http://www.w3.org/Graphics/SVG/1.1/DTD/svg11.dtd">
<svg version="1.1" id="Layer_1" xmlns="http://www.w3.org/2000/svg" xmlns:xlink="http://www.w3.org/1999/xlink" x="0px" y="0px"
	 width="300px" height="300px" viewBox="0 0 300 300" enable-background="new 0 0 300 300" xml:space="preserve">
<g>
	<path fill-rule="evenodd" clip-rule="evenodd" fill="#F4F9F2" d="M58.368,104.002c-10.808,2.411-20.226,5.295-28.259,8.654
		c-15.846,6.718-20.411,13.729-13.692,21.032c2.19,2.409,3.504,3.759,3.942,4.052c1.46,1.096,3.615,1.936,6.463,2.521
		c3.504,0.729,12.049,0.911,25.632,0.547l2.957,0.109c-7.377-0.584-13.253-1.716-17.635-3.396c-4.529-1.607-7.667-2.85-9.421-3.725
		c-1.898-0.804-3.03-1.752-3.395-2.847c-0.439-0.877-0.292-2.009,0.438-3.397c0.658-1.459,2.958-3.138,6.902-5.039
		c10.076-5.111,19.06-9.274,26.945-12.487c7.74-3.211,18.257-5.804,31.547-7.777c6.718-1.022,11.356-1.277,13.911-0.766l-0.109-0.22
		c-6.134-2.264-12.817-3.211-20.046-2.848C77.246,98.855,68.519,100.717,58.368,104.002z M5.792,137.522
		c-6.792-7.449-2.958-15.189,11.501-23.223c11.391-6.499,25.705-11.61,42.938-15.334c4.234-1.096,9.784-2.593,16.649-4.491
		c5.477-1.314,10.772-2.191,15.882-2.629c2.703-0.291,5.952-0.182,9.749,0.33c-2.118-1.316-4.09-2.958-5.915-4.929
		c-1.898-2.119-2.445-3.58-1.643-4.382c1.022-0.95,5.077-2.335,12.158-4.163c3.652-0.364,8.508,0.62,14.569,2.959
		c1.68,0.729,4.417,0.802,8.215,0.218c4.6-0.802,7.631-1.095,9.092-0.877c1.532,0.075,4.125,0.511,7.776,1.315
		c3.504,0.875,5.804,1.314,6.9,1.314l-0.767-0.767c-2.117-2.335-6.571-3.942-13.362-4.819c-6.792-0.73-10.845-1.825-12.161-3.287
		c-3.722-4.088-2.518-8.945,3.616-14.569c1.973-1.825,3.979-3.396,6.025-4.708c-0.657-0.805-1.789-2.411-3.396-4.82
		c-2.702-3.797-7.997-11.647-15.883-23.55c-1.825-7.157-0.366-9.018,4.381-5.586c1.314,0.95,3.979,3.613,7.995,7.994
		c5.404,5.916,8.654,9.713,9.749,11.393c2.338,3.579,3.761,7.229,4.272,10.954c7.74-2.993,16.139-3.141,25.194-0.438
		c2.701,0.805,5.219,1.68,7.558,2.629c2.116-4.016,8.872-8.799,20.264-14.349c15.336-7.302,24.135-9.713,26.398-7.229
		c0.731,0.729,0.475,1.679-0.766,2.848c-2.337,2.118-7.12,5.477-14.352,10.076c-7.082,4.603-11.355,7.559-12.814,8.875l-6.024,5.586
		c0.731,0.291,1.24,0.62,1.534,0.986c0.438,0.218,1.715,1.458,3.833,3.722c5.478,5.988,5.695,12.962,0.657,20.923
		c-5.988,7.009-8.579,10.953-7.777,11.828c0.146,0.146,4.93-1.24,14.35-4.161c10.441-3.067,18.364-4.638,23.768-4.711
		c2.704-0.073,7.634,1.205,14.788,3.834c6.499,2.336,10.042,3.834,10.626,4.491c0.729,0.95,0.729,1.827,0,2.629l-6.463,5.915
		c-4.893,1.825-10.188,2.118-15.883,0.875c-5.988-1.313-11.138-1.422-15.444-0.327c20.592,8.252,34.759,14.933,42.499,20.044
		c6.28,4.236,14.972,12.415,26.07,24.536l7.119,7.888c0.732,0.729,2.409,1.897,5.039,3.505c1.534,1.972,0.108,4.965-4.272,8.98
		c-9.345,8.545-21.505,12.781-36.475,12.709c-9.857-0.075-17.271-1.244-22.236-3.507c-4.747-2.264-10.442-6.061-17.087-11.393
		c-8.473-6.79-13.729-10.842-15.773-12.157h-0.438c1.388,3.067,4.271,7.119,8.653,12.157c3.286,5.113,4.272,10.627,2.959,16.542
		c-5.332-3.87-9.531-6.572-12.598-8.106c5.987,20.739,10.262,36.22,12.816,46.443c4.454,18.547,3.102,31.034-4.052,37.461
		l-3.616,3.286l-2.082-0.329l-1.861-7.887c-1.533-5.694-3.286-10.188-5.259-13.474c-1.02-2.043-2.445-5.256-4.271-9.638
		c-2.118-5.186-3.468-8.436-4.052-9.749c-2.191-4.82-4.163-12.049-5.916-21.688c-1.168-5.914-2.009-10.697-2.518-14.35
		c-1.023,3.579-2.447,7.889-4.273,12.926c-6.206,16.942-14.861,30.487-25.96,40.638c-11.61,10.589-23.037,12.963-34.284,7.12
		c-3.797-1.973-9.202-6.79-16.212-14.457c-2.336-2.484-5.402-7.596-9.202-15.336l-0.327-0.33c-0.293,3.433-0.986,7.157-2.082,11.172
		c-2.118,7.668-5.331,13.474-9.64,17.418c-3.213,2.922-5.768,4.345-7.667,4.271c-1.386-0.511-2.118-0.841-2.191-0.986
		c-0.436-0.512-0.034-4.893,1.207-13.145c1.532-9.713,2.336-15.48,2.409-17.305c0.146-8.91,0.402-14.167,0.766-15.773
		c1.241-4.82,4.272-10.479,9.092-16.979c0.877-5.477,3.396-13.438,7.559-23.88c6.865-17.232,15.372-29.756,25.521-37.569
		c-12.413,4.746-23.695,9.858-33.845,15.335c-5.55,2.847-10.736,4.599-15.555,5.256c-5.55,0.146-10.186,0.402-13.911,0.768
		c-11.683,1.168-19.754,1.021-24.208-0.438c-4.6-1.389-7.777-2.448-9.53-3.177C10.246,141.136,7.544,139.42,5.792,137.522z
		 M141.178,50.551c-1.168-4.018-2.52-6.938-4.054-8.763c-1.897-2.63-4.854-6.134-8.872-10.516
		c-5.038-5.477-8.434-8.436-10.188-8.874c2.923,4.892,6.573,10.333,10.954,16.321c2.411,3.214,6.169,8.179,11.283,14.896
		c0.512-0.291,1.023-0.547,1.534-0.766C141.542,52.121,141.324,51.353,141.178,50.551z M167.029,54.055
		c-7.961-1.971-16.286-1.314-24.976,1.972c-3.652,1.825-6.79,3.943-9.419,6.352c-3.141,2.923-4.711,5.405-4.711,7.45
		c0,1.022,0.366,1.936,1.095,2.738c0.877,0.95,5.001,1.861,12.378,2.738c7.376,0.802,13.329,3.688,17.855,8.654
		c1.022,1.168,1.57,1.752,1.643,1.752c0.582,1.022,0.51,1.861-0.22,2.52c-15.701-3.286-25.741-4.602-30.122-3.945
		c-4.016,0.583-9.057,0.075-15.115-1.532c-5.477-1.607-10.663-1.718-15.555-0.33c-1.168,0.365-1.97,1.095-2.409,2.19
		c0.293,1.313,0.986,2.045,2.082,2.191c0.95,0.366,2.739,1.205,5.366,2.52c2.484,1.241,4.895,2.481,7.231,3.723
		c1.825,0.805,3.577,1.791,5.256,2.959c-2.043,2.774-3.286,6.536-3.725,11.281c-0.509,4.456,0,8.069,1.534,10.844
		c1.461,2.774,2.373,4.272,2.739,4.491c0.365,0.366,0.695,0.695,0.986,0.986c1.241,1.388,5.768,1.716,13.583,0.986
		c4.088-0.218,8.581-0.693,13.472-1.425c4.309,0.075,8.399,1.937,12.269,5.588c3.139,2.92,5.368,3.759,6.682,2.518
		c2.337-2.118,1.386-5.184-2.848-9.201c-5.697-5.401-8.47-11.208-8.324-17.415l4.49-4.054c3.066-2.191,6.646-3.871,10.733-5.039
		c5.113-1.607,8.399-2.774,9.857-3.504c4.309-2.629,7.486-5.551,9.531-8.763c2.775-4.602,4.016-8.436,3.726-11.501
		c-0.366-2.411-1.609-4.784-3.726-7.12c-0.583-0.658-2.666-2.302-6.244-4.929l-1.861-0.877c-1.023-0.657-2.007-1.168-2.957-1.534
		l-0.111,0.109C173.198,55.843,169.803,54.711,167.029,54.055z M203.941,39.488c-5.401,1.825-13.511,7.12-24.316,15.883
		c2.19,1.021,4.234,2.191,6.134,3.504c0.218,0.072,0.363,0.109,0.438,0.109l7.995-7.338c4.091-3.432,7.706-6.133,10.845-8.106
		c6.427-4.016,10.66-6.718,12.705-8.106l0.221-0.218C212.048,36.968,207.375,38.393,203.941,39.488z M106.016,109.371l-0.984-0.986
		c-1.9-2.116-7.852-1.679-17.855,1.316c-10.149,3.141-18.146,7.01-23.989,11.61l-0.547,0.657c0,0.293,0.182,0.62,0.547,0.986
		c0.439,0.511,3.468-0.402,9.092-2.739c7.813-3.213,11.868-4.856,12.158-4.929c2.045-0.657,6.208-1.57,12.487-2.739
		c5.402-1.168,8.252-1.897,8.543-2.19C105.982,109.918,106.161,109.591,106.016,109.371z M147.969,150.229
		c1.314,1.459,2.191,2.92,2.629,4.381c-0.366-0.365-0.656-0.475-0.877-0.329c-3.066-3.797-6.938-6.718-11.61-8.763
		c-8.908-4.089-17.598-2.264-26.07,5.477c-1.241,1.095-1.498,2.009-0.766,2.738c0.657,0.732,5.22,1.389,13.692,1.973
		c9.201,1.387,15.918,4.381,20.155,8.981c2.043,2.264,3.322,4.018,3.833,5.259c0.218,1.313-0.366,1.861-1.752,1.643
		c-8.472-2.995-15.081-4.93-19.828-5.807c-8.617-1.68-17.598,0.293-26.945,5.916l-3.395,3.176c-0.291,0.876-0.291,1.46,0,1.753
		c8.251-2.336,16.688-2.593,25.303-0.766c6.133,1.167,12.817,3.504,20.045,7.009c2.557,1.754,3.943,3.285,4.161,4.602
		c-0.363,0.729-0.875,1.422-1.532,2.081c-0.586,0.438-3.761,0.146-9.531-0.877c-6.133-1.095-9.71-1.716-10.733-1.861
		c-3.068-0.221-7.12,0.437-12.16,1.971c-4.745,1.389-9.31,3.214-13.691,5.477l-3.614,3.286c-0.147,0.293-0.293,0.548-0.439,0.768
		c-0.073,0.292,0.073,0.621,0.439,0.985l0.438,0.438c14.531-1.825,23.257-2.774,26.177-2.847c9.349-0.146,16.14,1.972,20.375,6.354
		c1.023,0.437,1.423,1.204,1.205,2.3c-0.657,0.875-1.316,1.606-1.973,2.19c0,0.073-2.591-0.22-7.776-0.877
		c-5.477-0.729-8.835-1.095-10.077-1.095c-5.113,0.365-8.545,0.692-10.297,0.985c-5.331,0.803-8.945,2.045-10.845,3.726
		c-1.24,1.095-0.257,3.395,2.957,6.899c3.8,4.235,5.733,7.155,5.806,8.763c-1.534-0.876-3.834-2.848-6.901-5.914
		c-2.409-2.411-5.952-4.235-10.625-5.477c-0.146,0.073-0.218,0.146-0.218,0.219c5.111,6.645,9.053,11.465,11.829,14.457
		c5.551,6.137,10.005,9.822,13.364,11.065c7.447,2.993,15.771,0.875,24.973-6.354c6.792-5.987,10.37-9.018,10.735-9.092
		c11.975-16.283,17.451-33.372,16.431-51.262c-0.95-14.532-5.368-26.106-13.254-34.724c-5.622-6.206-14.384-9.163-26.288-8.872
		c-4.527,0.073-7.96,0.769-10.297,2.082c-2.629,1.24-3.104,2.774-1.425,4.599c0.584,0.659,3.943,1.389,10.079,2.191
		C136.686,140.881,142.783,144.606,147.969,150.229z M179.625,166.002c-1.461-0.95-3.104-0.584-4.929,1.096
		c4.088,3.869,6.79,10.806,8.106,20.812c1.531,12.633,2.771,20.153,3.722,22.564c0.805,1.824,2.264,5.11,4.382,9.857
		c2.118,4.309,5.149,13.107,9.092,26.398c0.805,2.557,1.387,4.635,1.752,6.242l0.221-0.218c3.286-3.068,2.373-16.213-2.738-39.434
		c-5.258-23.44-10.662-38.192-16.212-44.253C181.341,167.243,180.209,166.22,179.625,166.002z M187.072,151.871
		c-1.753-1.899-4.563-3.725-8.433-5.477c-4.383-2.045-7.449-2.3-9.201-0.768c12.269,6.5,20.045,15.41,23.331,26.728l0.986-0.439
		c2.699-2.481,2.555-6.461-0.438-11.938C191.711,157.421,189.629,154.719,187.072,151.871z M190.47,106.305
		c-4.896-1.316-10.004-1.389-15.335-0.221c1.752-0.073,2.738-0.036,2.957,0.109c-4.019-0.363-5.478,1.28-4.382,4.929
		c1.387,4.456,7.338,11.029,17.855,19.717c4.89,4.09,9.127,7.485,12.705,10.188c-0.22-0.657-0.949-1.643-2.19-2.957l-11.174-10.735
		c-2.993-3.286-6.718-8.582-11.172-15.883l0.767-0.657c4.818,1.606,9.857,3.979,15.116,7.12c0.657,0.291,5.293,3.141,13.91,8.543
		c2.264,1.534,6.646,4.856,13.145,9.969c0.731,0.729,1.461,1.386,2.19,1.97c5.771,4.748,9.056,7.156,9.858,7.229
		c-4.31-7.302-8.07-12.706-11.281-16.21c-2.629-2.923-5.477-5.44-8.545-7.558c1.389,0.511,2.886,1.059,4.49,1.643
		c11.977,4.674,20.304,8.251,24.976,10.735c4.6,2.482,9.347,6.388,14.24,11.719c4.819,5.332,7.376,9.129,7.667,11.393
		c0.439,2.336-0.256,4.783-2.081,7.338l-3.178,2.959c-2.7,1.531-9.018,3.358-18.948,5.476c-2.774,0.585-5.11,1.06-7.01,1.424
		c9.566,1.827,23.147,0.145,40.745-5.038c2.337-1.097,3.873-2.521,4.602-4.272c0.294-4.161-3.908-10.442-12.596-18.84
		c-6.72-7.377-13.145-13.108-19.277-17.199c-6.137-4.161-11.94-7.301-17.418-9.419c-5.623-2.264-13.034-4.857-22.236-7.777
		C199.45,108.932,193.317,107.034,190.47,106.305z M181.377,64.133l3.616,5.586c1.677,4.236,1.276,7.522-1.207,9.858
		c-2.481,2.19-4.309,3.065-5.477,2.629l-2.079-2.191c-4.164-4.602-5.807-10.005-4.93-16.212
		C172.25,57.743,175.609,57.852,181.377,64.133z M202.628,100.169c-0.147,1.023,0.146,1.936,0.874,2.738
		c1.097,1.171,3.58,1.06,7.45-0.327c5.038-2.19,8.727-3.286,11.063-3.286c1.462-0.073,4.675,0.402,9.64,1.423
		c4.527,0.877,7.521,1.095,8.981,0.659c1.388-0.366,2.63-1.022,3.725-1.972l0.329-0.109c-14.093-3.579-21.615-5.404-22.565-5.477
		C215.845,93.745,209.346,95.863,202.628,100.169z M77.536,194.37c-3.504,3.286-4.963,10.845-4.381,22.676
		c0.293,12.121-1.386,20.19-5.038,24.206l6.682-6.133c2.336-4.82,3.906-10.736,4.711-17.746c0.073-3.359,0.218-6.135,0.438-8.325
		c0.218-4.381,0.803-7.011,1.752-7.885c1.022-0.95,1.241-2.228,0.657-3.835c-0.438-1.168-1.021-2.118-1.752-2.847
		c-0.214-0.217-0.252-0.398-0.109-0.548l-0.22,0.219c-0.073,0.072-0.582-0.037-1.532-0.33L77.536,194.37z M97.473,212.443
		c-0.656-0.146-1.35-0.036-2.082,0.33c-0.511,0.217-0.911,0.474-1.204,0.765c-0.075,0.075-0.037,0.148,0.109,0.221
		C96.851,213.393,97.912,212.954,97.473,212.443z"/>
	<path fill-rule="evenodd" clip-rule="evenodd" fill="#312821" d="M58.368,104.002c10.151-3.286,18.878-5.147,26.179-5.586
		c7.229-0.363,13.913,0.584,20.046,2.848l0.109,0.22c-2.555-0.512-7.193-0.257-13.911,0.766c-13.29,1.973-23.807,4.565-31.547,7.777
		c-7.886,3.213-16.869,7.376-26.945,12.487c-3.944,1.9-6.244,3.579-6.902,5.039c-0.73,1.389-0.876,2.521-0.438,3.397
		c0.365,1.095,1.497,2.043,3.395,2.847c1.753,0.875,4.892,2.118,9.421,3.725c4.381,1.68,10.258,2.812,17.635,3.396l-2.957-0.109
		c-13.583,0.364-22.128,0.182-25.632-0.547c-2.849-0.584-5.003-1.425-6.463-2.521c-0.438-0.293-1.752-1.643-3.942-4.052
		c-6.719-7.303-2.154-14.314,13.692-21.032C38.142,109.298,47.56,106.414,58.368,104.002z M203.941,39.488
		c3.434-1.095,8.106-2.52,14.021-4.272l-0.221,0.218c-2.045,1.389-6.278,4.091-12.705,8.106c-3.139,1.973-6.754,4.674-10.845,8.106
		l-7.995,7.338c-0.075,0-0.221-0.037-0.438-0.109c-1.899-1.313-3.943-2.484-6.134-3.504
		C190.431,46.608,198.54,41.313,203.941,39.488z M167.029,54.055c2.773,0.656,6.169,1.788,10.185,3.395l0.111-0.109
		c0.95,0.366,1.934,0.877,2.957,1.534l1.861,0.877c3.578,2.627,5.661,4.271,6.244,4.929c2.116,2.336,3.359,4.709,3.726,7.12
		c0.29,3.066-0.95,6.9-3.726,11.501c-2.045,3.211-5.223,6.134-9.531,8.763c-1.458,0.73-4.744,1.897-9.857,3.504
		c-4.088,1.168-7.667,2.847-10.733,5.039l-4.49,4.054c-0.146,6.206,2.627,12.013,8.324,17.415c4.233,4.018,5.185,7.083,2.848,9.201
		c-1.313,1.241-3.543,0.402-6.682-2.518c-3.87-3.652-7.96-5.513-12.269-5.588c-4.891,0.732-9.383,1.207-13.472,1.425
		c-7.815,0.73-12.342,0.402-13.583-0.986c-0.291-0.291-0.621-0.621-0.986-0.986c-0.366-0.218-1.277-1.716-2.739-4.491
		c-1.534-2.775-2.043-6.388-1.534-10.844c0.439-4.745,1.682-8.506,3.725-11.281c-1.679-1.168-3.432-2.154-5.256-2.959
		c-2.336-1.241-4.747-2.481-7.231-3.723c-2.627-1.315-4.416-2.154-5.366-2.52c-1.095-0.146-1.788-0.877-2.082-2.191
		c0.439-1.095,1.241-1.825,2.409-2.19c4.893-1.389,10.079-1.277,15.555,0.33c6.059,1.606,11.099,2.115,15.115,1.532
		c4.381-0.657,14.421,0.659,30.122,3.945c0.729-0.659,0.802-1.498,0.22-2.52c-0.072,0-0.62-0.584-1.643-1.752
		c-4.526-4.965-10.479-7.852-17.855-8.654c-7.377-0.877-11.501-1.788-12.378-2.738c-0.729-0.802-1.095-1.716-1.095-2.738
		c0-2.045,1.57-4.527,4.711-7.45c2.629-2.408,5.767-4.527,9.419-6.352C150.744,52.741,159.068,52.084,167.029,54.055z
		 M141.178,50.551c0.146,0.802,0.364,1.57,0.657,2.3c-0.511,0.218-1.022,0.475-1.534,0.766c-5.113-6.718-8.872-11.683-11.283-14.896
		c-4.381-5.988-8.031-11.429-10.954-16.321c1.754,0.438,5.15,3.397,10.188,8.874c4.018,4.381,6.975,7.886,8.872,10.516
		C138.658,43.613,140.01,46.533,141.178,50.551z M202.628,100.169c6.718-4.306,13.217-6.424,19.496-6.352
		c0.95,0.073,8.473,1.897,22.565,5.477l-0.329,0.109c-1.095,0.95-2.337,1.606-3.725,1.972c-1.461,0.437-4.454,0.219-8.981-0.659
		c-4.965-1.021-8.178-1.496-9.64-1.423c-2.336,0-6.024,1.096-11.063,3.286c-3.87,1.387-6.354,1.498-7.45,0.327
		C202.773,102.105,202.48,101.192,202.628,100.169z M181.377,64.133c-5.768-6.281-9.127-6.39-10.076-0.33
		c-0.877,6.207,0.766,11.611,4.93,16.212l2.079,2.191c1.168,0.436,2.995-0.439,5.477-2.629c2.483-2.336,2.884-5.623,1.207-9.858
		L181.377,64.133z M190.47,106.305c2.848,0.729,8.98,2.627,18.4,5.694c9.202,2.92,16.613,5.514,22.236,7.777
		c5.478,2.118,11.281,5.258,17.418,9.419c6.133,4.091,12.558,9.822,19.277,17.199c8.688,8.397,12.89,14.679,12.596,18.84
		c-0.729,1.752-2.265,3.176-4.602,4.272c-17.598,5.183-31.179,6.865-40.745,5.038c1.899-0.364,4.235-0.839,7.01-1.424
		c9.931-2.117,16.248-3.944,18.948-5.476l3.178-2.959c1.825-2.555,2.521-5.002,2.081-7.338c-0.291-2.264-2.848-6.062-7.667-11.393
		c-4.894-5.331-9.641-9.237-14.24-11.719c-4.672-2.484-12.999-6.061-24.976-10.735c-1.604-0.584-3.102-1.132-4.49-1.643
		c3.068,2.118,5.916,4.635,8.545,7.558c3.211,3.504,6.972,8.908,11.281,16.21c-0.803-0.073-4.088-2.481-9.858-7.229
		c-0.729-0.584-1.459-1.241-2.19-1.97c-6.499-5.113-10.881-8.436-13.145-9.969c-8.617-5.402-13.253-8.252-13.91-8.543
		c-5.259-3.141-10.298-5.513-15.116-7.12l-0.767,0.657c4.454,7.301,8.179,12.597,11.172,15.883l11.174,10.735
		c1.241,1.313,1.971,2.299,2.19,2.957c-3.578-2.702-7.815-6.097-12.705-10.188c-10.518-8.688-16.469-15.261-17.855-19.717
		c-1.096-3.649,0.363-5.292,4.382-4.929c-0.219-0.145-1.205-0.182-2.957-0.109C180.466,104.917,185.574,104.989,190.47,106.305z
		 M187.072,151.871c2.557,2.848,4.639,5.55,6.245,8.106c2.993,5.477,3.138,9.456,0.438,11.938l-0.986,0.439
		c-3.286-11.318-11.063-20.229-23.331-26.728c1.752-1.532,4.818-1.277,9.201,0.768C182.51,148.146,185.319,149.972,187.072,151.871z
		 M179.625,166.002c0.584,0.218,1.716,1.241,3.396,3.065c5.55,6.061,10.954,20.813,16.212,44.253
		c5.111,23.221,6.024,36.365,2.738,39.434l-0.221,0.218c-0.365-1.607-0.947-3.686-1.752-6.242
		c-3.942-13.291-6.974-22.09-9.092-26.398c-2.118-4.747-3.577-8.033-4.382-9.857c-0.95-2.411-2.19-9.932-3.722-22.564
		c-1.316-10.006-4.019-16.942-8.106-20.812C176.521,165.418,178.164,165.052,179.625,166.002z M147.969,150.229
		c-5.186-5.623-11.283-9.347-18.291-11.174c-6.136-0.802-9.495-1.532-10.079-2.191c-1.679-1.825-1.205-3.359,1.425-4.599
		c2.336-1.313,5.77-2.009,10.297-2.082c11.904-0.291,20.666,2.666,26.288,8.872c7.886,8.618,12.304,20.192,13.254,34.724
		c1.021,17.89-4.456,34.979-16.431,51.262c-0.365,0.074-3.942,3.104-10.735,9.092c-9.202,7.229-17.526,9.348-24.973,6.354
		c-3.359-1.243-7.813-4.929-13.364-11.065c-2.775-2.992-6.718-7.813-11.829-14.457c0-0.072,0.072-0.146,0.218-0.219
		c4.672,1.241,8.215,3.065,10.625,5.477c3.067,3.066,5.368,5.038,6.901,5.914c-0.073-1.607-2.006-4.527-5.806-8.763
		c-3.214-3.505-4.197-5.805-2.957-6.899c1.9-1.681,5.514-2.923,10.845-3.726c1.752-0.293,5.184-0.62,10.297-0.985
		c1.241,0,4.6,0.365,10.077,1.095c5.186,0.657,7.776,0.95,7.776,0.877c0.657-0.584,1.316-1.315,1.973-2.19
		c0.218-1.096-0.182-1.863-1.205-2.3c-4.236-4.382-11.026-6.499-20.375-6.354c-2.92,0.072-11.646,1.021-26.177,2.847l-0.438-0.438
		c-0.366-0.364-0.512-0.693-0.439-0.985c0.146-0.22,0.292-0.475,0.439-0.768l3.614-3.286c4.381-2.263,8.946-4.088,13.691-5.477
		c5.041-1.534,9.092-2.191,12.16-1.971c1.023,0.146,4.6,0.767,10.733,1.861c5.77,1.022,8.945,1.314,9.531,0.877
		c0.657-0.659,1.168-1.353,1.532-2.081c-0.218-1.316-1.604-2.848-4.161-4.602c-7.229-3.505-13.912-5.842-20.045-7.009
		c-8.615-1.827-17.051-1.57-25.303,0.766c-0.291-0.293-0.291-0.877,0-1.753l3.395-3.176c9.347-5.623,18.328-7.596,26.945-5.916
		c4.748,0.877,11.356,2.812,19.828,5.807c1.386,0.219,1.97-0.329,1.752-1.643c-0.511-1.241-1.791-2.995-3.833-5.259
		c-4.236-4.601-10.954-7.595-20.155-8.981c-8.472-0.584-13.036-1.24-13.692-1.973c-0.732-0.729-0.475-1.644,0.766-2.738
		c8.472-7.74,17.162-9.565,26.07-5.477c4.672,2.045,8.544,4.965,11.61,8.763c0.221-0.146,0.511-0.036,0.877,0.329
		C150.16,153.148,149.283,151.688,147.969,150.229z M106.016,109.371c0.146,0.22-0.034,0.547-0.547,0.986
		c-0.291,0.293-3.141,1.022-8.543,2.19c-6.279,1.168-10.442,2.082-12.487,2.739c-0.291,0.072-4.345,1.715-12.158,4.929
		c-5.624,2.336-8.653,3.25-9.092,2.739c-0.366-0.366-0.547-0.693-0.547-0.986l0.547-0.657c5.843-4.6,13.84-8.469,23.989-11.61
		c10.003-2.995,15.955-3.432,17.855-1.316L106.016,109.371z M77.536,194.37l1.207-0.548c0.95,0.293,1.459,0.402,1.532,0.33
		l0.22-0.219c-0.143,0.149-0.104,0.331,0.109,0.548c0.731,0.729,1.313,1.679,1.752,2.847c0.584,1.607,0.366,2.885-0.657,3.835
		c-0.95,0.874-1.534,3.504-1.752,7.885c-0.22,2.19-0.365,4.966-0.438,8.325c-0.805,7.01-2.375,12.926-4.711,17.746l-6.682,6.133
		c3.652-4.016,5.332-12.085,5.038-24.206C72.573,205.215,74.032,197.656,77.536,194.37z M97.473,212.443
		c0.439,0.511-0.623,0.949-3.177,1.315c-0.146-0.072-0.184-0.146-0.109-0.221c0.293-0.291,0.693-0.548,1.204-0.765
		C96.123,212.407,96.817,212.298,97.473,212.443z"/>
</g>
</svg>
