<?xml version="1.0" encoding="utf-8"?>
<!-- Generator: Adobe Illustrator 16.0.0, SVG Export Plug-In . SVG Version: 6.00 Build 0)  -->
<!DOCTYPE svg PUBLIC "-//W3C//DTD SVG 1.1//EN" "http://www.w3.org/Graphics/SVG/1.1/DTD/svg11.dtd">
<svg version="1.1" id="Layer_1" xmlns="http://www.w3.org/2000/svg" xmlns:xlink="http://www.w3.org/1999/xlink" x="0px" y="0px"
	 width="300px" height="300px" viewBox="0 0 300 300" enable-background="new 0 0 300 300" xml:space="preserve">
<g>
	<path fill-rule="evenodd" clip-rule="evenodd" fill="#DD1F26" d="M113.134,34.849l2.509-1.648l1.147,0.717h1.074l0.287,0.789
		l1.075,0.286l1.434,0.86l1.076,1.362l0.931-0.789l-0.645-1.146l3.584,2.437l4.517,4.444l3.512,1.362l2.51,5.161l6.882,4.732
		l6.667,6.666l2.867,5.521l8.028-0.287l1.721,1.935l1.721,2.796l3.942,1.219l1.218,1.075l1.362,0.144l2.008,1.863l4.588-0.789
		l4.086,1.505l2.293-1.434l10.682,2.15L196,73.99l1.723,0.144l1.935-3.656l2.006-0.789l0.79-1.935l2.364,0.286h3.657l-0.144,0.072
		h0.287c0.334-0.048,0.764-0.287,1.29-0.717c0.478-0.334,0.859-0.549,1.146-0.645c0.335-0.096,0.835-0.12,1.506-0.072
		c0.67,0.048,1.146,0.048,1.434,0c0.287-0.095,0.597-0.311,0.932-0.645c0.239-0.239,0.526-0.455,0.861-0.645
		c0.381-0.239,0.74-0.383,1.074-0.431l1.005-0.214l0.07-1.936c0.047-1.243,0.144-1.936,0.287-2.08
		c0.047-0.047,0.334-0.023,0.859,0.072c0.479,0.192,1.005,0.406,1.577,0.645c0.574,0.287,1.052,0.502,1.434,0.645
		c0.24,0.048,0.455,0.096,0.646,0.144c0.476,0.096,0.979,0.119,1.505,0.072l1.29-0.072v-1.29c0-0.382,0.049-0.668,0.144-0.86
		c0-0.047,0.023-0.095,0.072-0.143c0.047-0.192,0.238-0.383,0.574-0.574c0.476-0.239,1.027-0.358,1.647-0.358
		c0.574,0,1.529-0.573,2.867-1.721c1.337-1.194,2.079-2.104,2.222-2.724c0.192-0.908,1.529-1.649,4.016-2.222
		c0.812-0.191,1.577-0.311,2.293-0.358c1.48-0.048,2.724,0.382,3.729,1.29c0.287,0.286,0.525,0.453,0.716,0.501
		c0.191,0,0.527-0.072,1.003-0.215c0.766-0.191,1.292-0.358,1.579-0.501c0.285-0.096,0.453,0.191,0.501,0.86
		c0.047,0.622,0.096,2.437,0.144,5.448l0.071,6.595l1.075,2.867c0.574,1.625,1.076,2.628,1.506,3.011
		c0.478,0.334,1.697,0.741,3.655,1.218c0.526,0.096,1.435,0.501,2.725,1.219c1.004,0.525,1.815,0.692,2.438,0.501
		c0.047-0.047,0.215-0.12,0.501-0.215c0.192-0.144,0.311-0.167,0.358-0.072c0.287,0.24,0.455,1.601,0.502,4.086
		c0.097,3.297,0.263,5.329,0.503,6.093c0.19,0.86,0.931,2.03,2.222,3.512l1.434,1.721l-0.43,6.523l1.146,2.079
		c1.195,2.15,1.961,3.656,2.295,4.515c0.334,0.86,0.572,1.721,0.716,2.582c0.098,1.099,0.049,1.792-0.144,2.079
		c-0.189,0.286-0.572,0.382-1.145,0.286c-0.192-0.047-0.192,0.622,0,2.008c0.285,1.72,0.429,2.652,0.429,2.796
		c0,0.191-0.312,0.645-0.932,1.362c-0.336,0.478-0.597,0.932-0.789,1.362h-67.313v-0.287h-81.791v0.287H60.445l-0.501-1.792
		l-2.294-3.655l-4.229-2.222l-0.717-1.936l-1.721-0.573l-2.509-3.656l-0.43-1.72l-1.649,0.931l-2.294-1.935l-3.872-2.151
		l-1.434,0.144l-1.935,1.721l-1.075,5.878l-1.577,3.728l-0.645-0.645l-0.645,2.294l-0.502,0.215l-0.86,2.437l1.004,2.079
		l-0.358,0.86h-3.155v-0.287l-0.717-0.859l-0.215-2.939l-0.789,0.717l-0.072,2.079l0.646,1.29H16.215l-0.287-0.501h-0.574
		l-2.508-3.871l-1.004-0.574l-1.075-2.509l0.214-0.645l3.584-0.072l-0.358-0.859l-3.44-0.144l-0.574-1.505l0.072-3.584l-0.215-1.792
		l-0.358-1.003l0.573-0.717l-0.789-0.072l-0.789-1.147l0.215-1.72l-1.792-6.811l1.218-0.43L9.907,88.9l0.932-0.215v0.287
		l3.154,1.577l1.004-0.501l2.365-0.502l0.86-0.072l0.717,1.434l1.721,0.86l1.362-0.215l1.936-1.219l1.29,0.215l0.717-1.362
		l-0.859-0.932v-0.789h1.29l0.144-0.573l2.221,2.079l2.725,0.43l0.859-0.286l1.577,0.286l1.362-1.434l0.502,0.932l0.86-0.215
		l2.079,1.219l0.574-0.717l1.003-0.144l1.505-1.076l1.506-0.501l1.649-1.218l0.573-3.441l0.717-0.215l1.004-1.076l1.146-2.15
		l0.932,0.717l-0.287,1.505l2.724,2.438l0.717,0.932l-0.214,1.936h1.29l1.146,1.075l1.505,0.646l0.717,2.007l0.789,0.358l1.649-0.86
		l1.146,0.143l0.431-2.724l0.573-0.144l1.434,1.649h0.932l1.076,0.573l1.003-0.358l1.219,1.29l3.082,2.724l0.789-0.932l0.431,0.359
		h0.932l1.935-1.936l2.222,0.789l1.362-2.151l-1.434-1.075l-1.29-1.577l-0.072-1.863l-0.431-1.649l0.574-0.072l0.645-1.29
		l1.219-0.717l1.075,0.573l0.86-0.072l0.072-0.789l-0.932-1.362l-1.075,0.215l0.645-0.932l-0.287-1.075l-1.936,1.003l-2.007-1.792
		l1.29-1.076l3.656-2.007l3.225-0.501l0.144-1.362l0.645-0.359l1.219,0.359l2.007-1.578l2.508,1.506l0.645-0.717l1.649-0.86
		l-0.86-1.218l0.502-0.502l-0.502-1.003l1.362-2.294l-0.502-2.007l1.29-3.584l-2.365-1.434l-1.434-0.502l-0.932-1.434l0.144-1.075
		l-0.144-1.434l1.362-1.434l0.501-1.864l2.653-0.144l1.146,0.717l0.573,0.215l1.076-1.936l-0.431-0.789l2.079-0.358l1.721-1.147
		h1.577l1.648-1.362l0.788,0.072l0.933-0.286l0.645-0.932l1.362-1.004l-0.859-2.007h1.29l1.936-0.86l2.15,1.29l0.932-0.214
		l0.502,0.286l2.294-0.072l0.071-0.788l-0.932-0.932l-1.219-4.229l0.789-1.147L113.134,34.849z M141.736,85.459
		c1.242-0.048,2.891-0.072,4.945-0.072h0.072l0.502,5.233c-1.864,0-3.179,0.024-3.942,0.072c-1.577,0.047-3.417,0.215-5.521,0.501
		c-2.198,0.287-4.015,0.622-5.448,1.003c-1.146,0.335-2.509,0.789-4.085,1.363l-1.004-3.584c0-0.191-0.024-0.407-0.072-0.646
		l-0.144-0.501c3.154-1.529,6.38-2.533,9.678-3.011C138.247,85.626,139.92,85.507,141.736,85.459z M127.686,111.194
		c2.771-0.67,5.592-1.243,8.459-1.721c6.785-1.194,13.524-1.792,20.215-1.792c10.179-0.048,20.096,1.123,29.75,3.513
		c3.728,0.956,7.454,2.103,11.183,3.44l10.036-20.43l-7.025-12.402l-12.761,5.162c-0.144,0-3.155-3.226-9.031-9.678l-11.328,6.882
		l-10.68-8.244l-10.036,8.101l-11.756-6.81l-8.531,10.179l-12.76-5.448l-6.882,12.258l10.108,20.358
		C120.23,113.225,123.91,112.102,127.686,111.194z M130.983,103.667l-1.434-5.591c3.106-1.051,6.068-1.745,8.888-2.079
		c2.772-0.382,5.879-0.453,9.319-0.214h0.072l0.358,5.448c-3.44,0.191-6.333,0.454-8.674,0.789
		C136.407,102.401,133.563,102.951,130.983,103.667z M171.414,89.76c0.332,0.096,0.548,0.167,0.644,0.215
		c0.048,0.096,0.119,0.191,0.216,0.286c0-0.143-0.048-0.262-0.144-0.358c0-0.095-0.119-0.215-0.357-0.359L171.414,89.76z
		 M170.911,90.119c0.382-0.334,0.598-0.526,0.646-0.574c0.238-0.144,0.524-0.262,0.859-0.358c0.908-0.239,1.743-0.312,2.509-0.215
		c0.19,0,0.358,0.047,0.502,0.144c0.19,0.047,0.357,0.072,0.501,0.072s0.431,0.072,0.861,0.214c0.431,0.191,0.789,0.287,1.074,0.287
		c0.384,0.047,0.693,0.047,0.932,0c0.24-0.047,0.479-0.167,0.718-0.359h0.431v0.287c-0.192,0.192-0.359,0.334-0.503,0.431
		c-0.19,0.143-0.381,0.262-0.574,0.358c-0.332,0.047-0.597,0.096-0.787,0.144c-0.287,0-0.766,0-1.434,0l0.071,0.215
		c0.335,0.096,0.74,0.262,1.219,0.502c0.287,0.144,0.574,0.239,0.859,0.287c0.384,0.048,0.742,0.072,1.076,0.072l0.072,0.645
		l0.215-0.143l-0.071-0.502c0.382,0,0.763-0.072,1.146-0.215h0.501v0.215c-0.716,0.287-1.1,0.454-1.146,0.502
		c-0.431,0.19-0.838,0.31-1.22,0.358c-0.813,0.095-1.815-0.024-3.011-0.358c-0.191,0-0.431-0.097-0.716-0.287
		c-0.384-0.144-0.671-0.239-0.86-0.287c-0.767-0.239-1.291-0.215-1.578,0.072L170.911,90.119z M173.707,89.187
		c0.097,0.096,0.144,0.214,0.144,0.358c0.097,0.191,0.166,0.406,0.215,0.645c0-0.286,0-0.501,0-0.645
		c-0.144-0.239-0.215-0.406-0.215-0.501h-0.216C173.635,89.092,173.66,89.139,173.707,89.187z M149.119,150.837h15.627v16.774
		h-15.627V150.837z M149.119,134.062v16.775h-15.556v-16.775H149.119z M164.746,150.837v-16.775h15.557v16.775H164.746z
		 M149.119,117.288h-15.556v16.774h-15.556v16.775h15.556v16.774h15.556v16.701h15.627v-16.701h15.557v-16.774h15.626v-16.775
		h-15.626v-16.774h-15.557v16.774h-15.627V117.288z M172.13,104.743c0,0.047,0,0.12,0,0.215l-0.142,0.072
		c-0.049,0.143-0.099,0.215-0.144,0.215c-0.049,0.048-0.168,0.095-0.359,0.144l-1.076-0.072l0.071-0.501l0.503-0.43L172.13,104.743z
		 M167.613,103.524l0.646-0.717l1.218,0.286c0,0.048,0,0.144,0,0.287c0,0.096-0.024,0.191-0.071,0.287
		c-0.097,0.144-0.286,0.239-0.573,0.287l-1.147,0.072L167.613,103.524z M173.205,90.621c-0.144-0.144-0.287-0.215-0.43-0.215
		c0.143,0.096,0.238,0.239,0.286,0.43c0.144,0.287,0.215,0.478,0.215,0.574l0.072-0.144
		C173.349,90.979,173.301,90.764,173.205,90.621z M123.671,183.094c0.239,0.335,0.479,0.645,0.717,0.932l9.032,0.215v-16.558h-15.34
		c0.238,3.011,0.979,6.044,2.222,9.103C121.21,179.031,122.334,181.135,123.671,183.094z M121.95,181.015
		c-2.533-4.442-3.99-9.079-4.373-13.906l0.144-50.036h78.423v50.252c-0.476,4.729-1.935,9.271-4.371,13.619
		c-0.383,0.717-0.813,1.436-1.292,2.15c-2.103,3.202-4.635,6.092-7.597,8.674c-3.586,3.059-7.527,5.424-11.829,7.098
		c-4.301,1.719-8.602,2.555-12.903,2.508c-4.588,0.24-9.224-0.477-13.907-2.148c-4.683-1.674-8.937-4.063-12.76-7.171
		c-3.297-2.675-6.021-5.663-8.172-8.96C122.834,182.424,122.381,181.732,121.95,181.015z M133.635,184.385l0.072,8.961
		c2.485,1.719,5.209,3.199,8.173,4.443c2.532,1.1,4.921,1.889,7.168,2.365v-15.698L133.635,184.385z M175.571,90.19l0.142-1.003
		H175.5L175.571,90.19z M178.511,89.904v0.501c0.096-0.047,0.142-0.096,0.142-0.144v-0.358H178.511z M177.148,89.904
		c-0.049-0.095-0.096-0.144-0.144-0.144c0,0.096,0.023,0.287,0.072,0.573c0.047,0.144,0.095,0.192,0.144,0.144l-0.072-0.358V89.904z
		 M174.855,90.333c0.142,0.287,0.214,0.455,0.214,0.502c0,0.24-0.024,0.407-0.072,0.502c0.144-0.095,0.216-0.262,0.216-0.502
		C175.116,90.549,174.997,90.382,174.855,90.333z M178.652,91.911c0,0.095-0.046,0.262-0.142,0.501h0.214
		c0.098-0.191,0.12-0.358,0.071-0.501c0-0.144-0.071-0.263-0.215-0.359h-0.214l0.144,0.144
		C178.558,91.792,178.606,91.863,178.652,91.911z M176.574,91.911c0.058-0.054,0.153-0.126,0.287-0.215
		c0.095-0.047,0.144-0.096,0.144-0.144c0.048-0.096,0.048-0.215,0-0.358l-0.071-0.287v0.215c0,0.143-0.024,0.287-0.072,0.43
		C176.814,91.646,176.72,91.766,176.574,91.911z M187.542,98.147c2.198,0.573,4.206,1.147,6.021,1.721
		c2.82,0.956,5.641,2.007,8.459,3.153l-2.725,5.592c-2.485-1.004-5.138-1.983-7.956-2.939c-3.488-1.147-6.237-1.912-8.243-2.294
		l1.647-5.878L187.542,98.147z M42.523,111.481v-1.505l1.219-0.431v-0.931l0.932-0.359l0.573,0.359l0.645-0.144l0.287-3.154
		l0.86-2.796l0.932,0.431l1.218,2.509v0.717l-0.501,0.287l0.286,0.645l0.717-0.431l1.792,0.789l-0.215,1.004l-0.358,0.86
		l1.434,2.365l0.645,0.215l1.075,1.863l1.434,1.721h-5.734l0.071-0.144l-0.287-0.645l0.144-0.645l-0.358-0.645l-0.717,0.501h-3.298
		L42.523,111.481z M38.008,106.392l0.573-1.721l1.505-0.287l0.717,1.648l0.501,4.516l1.792,4.086l1.219,0.144l0.286,0.717h-3.369
		l-0.072-0.072l-1.218-2.366v-2.437h-1.29l-1.506-2.438l-0.287-0.789L38.008,106.392z M180.303,184.385l-15.485,0.071v15.698
		c2.294-0.477,4.708-1.266,7.24-2.365c3.012-1.244,5.735-2.725,8.174-4.443L180.303,184.385z M195.785,167.683h-15.41v16.558
		l9.031-0.215c1.672-2.293,3.058-4.707,4.157-7.24C194.807,173.727,195.547,170.693,195.785,167.683z M179.37,105.244l-1.219-0.144
		v-0.501l0.716-0.574l1.148,0.359c-0.049,0.143-0.071,0.262-0.071,0.358c0,0.047-0.024,0.096-0.072,0.144l-0.144,0.143
		C179.633,105.077,179.514,105.148,179.37,105.244z M175.069,104.025v-0.43l0.574-0.574l1.074,0.287c0,0.096,0,0.191,0,0.287
		c0,0.047-0.022,0.119-0.071,0.215c-0.049,0.095-0.095,0.143-0.144,0.143l-0.359,0.072H175.069z M187.686,99.509h-1.576
		c-0.096,0.144-0.239,0.287-0.431,0.431c-0.192,0.095-0.358,0.167-0.502,0.214c0,0.191,0,0.311,0,0.359
		c0.096,0.144,0.215,0.239,0.358,0.286c0.144,0,0.382,0.024,0.718,0.072c0.285,0,0.453,0.024,0.501,0.072
		c0.047,0,0.096,0.024,0.144,0.072c0,0.096,0.024,0.191,0.071,0.287l-0.071,0.43c-0.097,0.047-0.312,0.072-0.645,0.072
		c-0.431,0-0.767,0-1.005,0l-0.574-0.144l0.072,0.287c0,0.048,0.264,0.167,0.789,0.358c0.048,0,0.263,0,0.646,0
		c0.382,0,0.716,0,1.001,0c0.049,0,0.098,0.048,0.144,0.144c0.049,0.047,0.072,0.12,0.072,0.215
		c-0.238,0.096-0.43,0.167-0.573,0.215c-0.239,0.096-0.668,0.143-1.29,0.143l-0.071,0.215c0,0.048,0.047,0.096,0.144,0.144
		l0.358,0.072c0.191,0,0.598-0.096,1.217-0.287c0.336-0.095,0.79-0.144,1.363-0.144c0.525,0,1.004,0.025,1.435,0.072
		c0.621,0.192,1.171,0.406,1.648,0.646c0.431,0.096,0.932,0.167,1.504,0.215v0.574c-0.429,0-0.764-0.047-1.003-0.143l-0.572,0.071
		c0,0.048,0,0.096,0,0.144c0,0.047,0,0.096,0,0.144l1.504,0.287h0.717c0.24-0.048,0.431-0.215,0.574-0.502h0.287
		c0.477,0.335,0.979,0.549,1.504,0.645c0.144,0,0.287,0.048,0.431,0.144l0.287,0.359c0.144,0.478,0.119,0.859-0.071,1.146
		l0.287,0.215l0.358-0.287v-1.505c-0.336-0.144-0.623-0.334-0.861-0.573c-0.238-0.287-0.358-0.502-0.358-0.646
		c0.096-0.047,0.502,0.024,1.22,0.215c0.62,0.191,1.122,0.287,1.504,0.287c0.479,0,0.838-0.096,1.076-0.287
		c0.191-0.095,0.311-0.191,0.359-0.287c0.189-0.19,0.119-0.334-0.216-0.43c-1.005-0.048-1.768-0.095-2.295-0.144
		c-0.765-0.095-1.456-0.287-2.079-0.573c-0.238-0.335-0.501-0.622-0.788-0.86c-0.429-0.239-0.954-0.406-1.577-0.501l-3.37-0.287
		c-0.619-0.239-1.05-0.406-1.288-0.501c-0.478-0.287-0.813-0.478-1.005-0.573L187.686,99.509z"/>
	<path fill-rule="evenodd" clip-rule="evenodd" fill="#283883" d="M137.793,91.194c2.104-0.287,3.943-0.454,5.521-0.501
		c0.764-0.048,2.078-0.072,3.942-0.072l0.501,5.162c-3.44-0.239-6.547-0.168-9.319,0.214c-2.819,0.334-5.781,1.028-8.888,2.079
		l1.434,5.591c2.58-0.716,5.424-1.266,8.53-1.648c2.341-0.334,5.233-0.598,8.674-0.789l0.573,5.376
		c-2.867,0.24-5.52,0.526-7.957,0.86c-2.15,0.287-4.97,0.741-8.459,1.362L128.26,93.56c1.576-0.574,2.938-1.028,4.085-1.363
		C133.778,91.815,135.595,91.481,137.793,91.194z M141.736,85.459c-1.816,0.048-3.489,0.167-5.019,0.358
		c-3.298,0.478-6.523,1.482-9.678,3.011v-0.072l8.173-10.036l11.469,6.667C144.627,85.388,142.979,85.411,141.736,85.459z
		 M168.26,90.907c0.143,0.335,0.43,0.645,0.86,0.932c-0.049,0.239-0.144,0.573-0.287,1.004c-0.049,0.095-0.168,0.286-0.358,0.573
		c-0.097,0.239-0.144,0.382-0.144,0.43c-0.049,0.382,0,0.598,0.144,0.645c0.19,0.048,0.646,0.024,1.362-0.072
		c0,0.048-0.024,0.167-0.072,0.359c-0.047,0.095-0.047,0.167,0,0.215c0,0.095,0.119,0.167,0.357,0.214
		c-0.046,0.048-0.095,0.096-0.144,0.144c-0.046,0.096-0.046,0.168,0,0.215c0.098,0.047,0.287,0.072,0.574,0.072
		c-0.144,0.191-0.311,0.334-0.503,0.43l-0.716,0.717c-0.096,0.192-0.144,0.359-0.144,0.502c0.048,0.144,0.191,0.19,0.431,0.144
		c-0.239,0.24-0.358,0.406-0.358,0.501c0.047,0.239,0.19,0.312,0.431,0.215c-0.048,0.24-0.048,0.478,0,0.717v0.573
		c0,0.144-0.024,0.311-0.072,0.502c0,0.095,0,0.263,0,0.501c-0.144,0.096-0.263,0.215-0.358,0.358
		c-0.097,0.192-0.191,0.359-0.286,0.502l-0.358,0.501c-0.144,0.239-0.265,0.526-0.358,0.86l1.361,0.358
		c0-0.095,0.024-0.19,0.072-0.286c0.047-0.096,0.071-0.167,0.071-0.215c0.048-0.144,0.048-0.358,0-0.645
		c0.525-0.621,0.859-1.123,1.003-1.505c0.287-0.191,0.525-0.286,0.718-0.286c0.048,0,0.144,0.023,0.287,0.071
		c0.048,0.048,0.144,0.12,0.285,0.215l-0.213,0.573c-0.144,0.239-0.216,0.454-0.216,0.645v1.291c0,0.047-0.071,0.191-0.215,0.43
		c-0.192,0.239-0.311,0.55-0.359,0.932l1.146,0.287c0.048-0.143,0.168-0.263,0.359-0.358c0.144-0.096,0.239-0.144,0.285-0.144
		l0.072-1.434c0.049-0.144,0.239-0.43,0.574-0.86c0.286-0.382,0.43-0.717,0.43-1.003c0.382,0,0.598-0.024,0.646-0.072
		c0.046,0,0.166-0.096,0.357-0.287c0.047,0.191,0.168,0.287,0.358,0.287c0.144,0,0.312-0.119,0.501-0.359
		c0.096,0.191,0.192,0.287,0.287,0.287c0.192,0.047,0.502,0.023,0.933-0.072L176,102.09c0,0.047,0,0.143,0,0.286
		c0,0.048-0.022,0.096-0.071,0.144c0,0.048-0.048,0.096-0.144,0.144c-0.046,0.096-0.072,0.167-0.072,0.215l1.077,0.286l0.144-0.501
		c0.287-0.095,0.453-0.168,0.502-0.215c0.095-0.095,0.166-0.311,0.216-0.645c0.429-0.334,0.884-0.789,1.359-1.362
		c0.193,0.047,0.337,0.12,0.431,0.215c0.191,0.143,0.311,0.311,0.359,0.501c0.047,0.669,0.022,1.146-0.072,1.434l-0.718,1.147
		l-0.071,0.143l1.148,0.431l0.645-0.574v-0.717c0.19-0.333,0.405-0.597,0.646-0.789c0.096-0.047,0.334-0.238,0.716-0.573
		c0.049-0.573,0.049-0.86,0-0.86c-0.047-0.047-0.095-0.071-0.144-0.071c-0.047-0.048-0.071-0.096-0.071-0.144
		c-0.046-0.24-0.046-0.501,0-0.789l0.144-0.144c0.049-0.048,0.071-0.096,0.071-0.144c-0.144-0.144-0.166-0.525-0.071-1.146
		c0-0.192,0.12-0.431,0.358-0.717c0.287-0.382,0.431-0.598,0.431-0.645l0.072-0.502l-0.144-0.143
		c-0.05-0.048-0.072-0.095-0.072-0.144c0-0.048,0.072-0.191,0.216-0.43l0.144-0.215v-1.29c-0.097-0.144-0.193-0.24-0.287-0.287
		c-0.097,0-0.216,0.072-0.359,0.215l-0.646,0.43c-0.333,0.144-0.716,0.144-1.146,0h-0.861c-0.19,0.095-0.334,0.144-0.431,0.144
		c-0.19,0-0.381-0.048-0.573-0.144h-0.501l-0.431,0.287c-0.238,0.047-0.455,0.047-0.645,0c-0.478,0-0.813,0.047-1.005,0.143
		c-0.046,0.048-0.144,0.072-0.287,0.072c-0.095-0.047-0.188-0.072-0.285-0.072c-0.239-0.047-0.574-0.095-1.003-0.143l-0.431-0.072
		c-0.478-0.334-0.933-0.908-1.362-1.721c0.573-0.144,1.028-0.311,1.362-0.501c0.238-0.239,0.453-0.573,0.646-1.004l-1.65,0.144
		l-2.293-1.578c-0.238,0.096-0.431,0.192-0.574,0.287l-0.429,0.358l-1.362-0.646C168.236,90.382,168.163,90.621,168.26,90.907z
		 M170.911,90.119l2.294,1.505c0.287-0.287,0.812-0.311,1.578-0.072c0.189,0.048,0.477,0.144,0.86,0.287
		c0.285,0.19,0.524,0.287,0.716,0.287c1.195,0.333,2.198,0.453,3.011,0.358c0.382-0.048,0.789-0.167,1.22-0.358
		c0.046-0.048,0.43-0.215,1.146-0.502v-0.215h-0.501c-0.384,0.143-0.765,0.215-1.146,0.215c-0.049,0-0.121,0-0.216,0
		c-0.334,0-0.692-0.024-1.076-0.072c-0.285-0.047-0.572-0.143-0.859-0.287c-0.479-0.24-0.884-0.406-1.219-0.502l-0.071-0.215
		c0.668,0,1.146,0,1.434,0c0.19-0.047,0.455-0.096,0.787-0.144c0.193-0.096,0.384-0.215,0.574-0.358
		c0.144-0.096,0.311-0.239,0.503-0.431V89.33h-0.431c-0.238,0.192-0.478,0.312-0.718,0.359c-0.238,0.047-0.548,0.047-0.932,0
		c-0.285,0-0.644-0.096-1.074-0.287c-0.431-0.143-0.718-0.214-0.861-0.214s-0.311-0.024-0.501-0.072
		c-0.144-0.096-0.312-0.144-0.502-0.144c-0.766-0.096-1.601-0.023-2.509,0.215c-0.335,0.096-0.621,0.214-0.859,0.358
		C171.509,89.592,171.293,89.785,170.911,90.119z M161.02,90.119v0.143c0,0.097-0.048,0.144-0.144,0.144h-0.144
		c-0.048,0-0.072-0.047-0.072-0.144v-0.143c0-0.096,0.024-0.143,0.072-0.143h0.144C160.972,89.976,161.02,90.023,161.02,90.119z
		 M162.597,89.904c0.047,0,0.071,0.047,0.071,0.144v0.143c0,0.096-0.024,0.144-0.071,0.144h-0.144c-0.049,0-0.072-0.048-0.072-0.144
		v-0.143c0-0.096,0.023-0.144,0.072-0.144H162.597z M162.094,91.624l-0.358,0.072v0.501l0.933,0.072v0.215l-1.005-0.215
		l-0.429,0.359h-0.072l0.072-0.215l0.357-0.286v-0.502h-0.357l-0.144-0.143l0.357,0.071h0.574l0.215-0.143
		C162.19,91.552,162.143,91.624,162.094,91.624z M171.271,92.126c0.095,0.047,0.19,0.095,0.287,0.143l-0.646,0.359
		c-0.049,0-0.119-0.072-0.215-0.215l-0.431-0.144c0.049-0.047,0.168-0.096,0.358-0.143c0.144-0.048,0.263-0.072,0.359-0.072
		C171.079,92.055,171.174,92.078,171.271,92.126z M153.563,90.405c0,0.096-0.047,0.144-0.144,0.144h-0.143
		c-0.048,0-0.072-0.047-0.072-0.144v-0.072c0-0.095,0.024-0.144,0.072-0.144h0.143c0.097,0,0.144,0.048,0.144,0.144V90.405z
		 M151.484,90.405c0-0.047,0.024-0.072,0.072-0.072h0.144c0.096,0,0.144,0.025,0.144,0.072v0.072c0,0.096-0.048,0.144-0.144,0.144
		h-0.144c-0.048,0-0.072-0.048-0.072-0.144V90.405z M151.844,91.768l0.501,0.072l0.502-0.072l0.215-0.144
		c-0.096,0.144-0.167,0.215-0.215,0.215l-0.215,0.144v0.501l0.932,0.144c0,0.043,0,0.091,0,0.144h-0.071l-0.932-0.215l-0.503,0.287
		h-0.143l0.143-0.144l0.431-0.287v-0.43l-0.431-0.072L151.844,91.768z M156.217,98.363c0-0.096,0.047-0.144,0.143-0.144h0.071
		c0.096,0,0.144,0.048,0.144,0.144v0.144c0,0.095-0.048,0.143-0.144,0.143h-0.071c-0.096,0-0.143-0.048-0.143-0.143V98.363z
		 M157.077,99.796l0.502-0.072l0.214-0.072c-0.048,0.144-0.097,0.215-0.142,0.215l-0.287,0.144v0.358l0.931,0.144
		c0,0.048,0,0.095,0,0.144v0.072l-1.003-0.215l-0.646,0.358l0.144-0.214l0.431-0.287v-0.43l-0.431-0.072l-0.216-0.144
		L157.077,99.796z M157.937,98.435v-0.144c0-0.096,0.024-0.144,0.071-0.144h0.144c0.144,0,0.216,0.047,0.216,0.144v0.144
		c0,0.095-0.072,0.143-0.216,0.143h-0.144C157.961,98.578,157.937,98.53,157.937,98.435z M167.613,103.524l0.072,0.501l1.147-0.072
		c0.287-0.048,0.477-0.143,0.573-0.287c0.047-0.096,0.071-0.191,0.071-0.287c0-0.144,0-0.239,0-0.287l-1.218-0.286L167.613,103.524z
		 M172.13,104.743l-1.146-0.358l-0.503,0.43l-0.071,0.501l1.076,0.072c0.191-0.048,0.311-0.096,0.359-0.144
		c0.045,0,0.095-0.072,0.144-0.215l0.142-0.072C172.13,104.862,172.13,104.79,172.13,104.743z M167.255,85.388l11.256-6.523
		l8.672,9.391l-5.805,20.501c-2.915-0.573-5.378-1.003-7.384-1.29c-2.248-0.286-5.115-0.573-8.603-0.86L167.255,85.388z
		 M97.506,185.675l-0.43-1.29l-2.151-1.291h26.237c2.389,3.824,5.448,7.288,9.176,10.395c4.063,3.201,8.507,5.664,13.333,7.383
		c4.923,1.768,9.773,2.535,14.553,2.295c4.444,0.047,8.937-0.813,13.478-2.582c4.442-1.768,8.553-4.229,12.329-7.382
		c3.394-3.011,6.262-6.381,8.602-10.108h43.44l1.22,1.004l1.146,2.508l-0.501,1.006c-0.192,0.619-0.311,1.027-0.358,1.218
		c0,0.239,0.048,0.572,0.144,1.003l0.072,0.502v0.719c0.045,0.381,0.117,0.525,0.213,0.428c0.527-0.525,0.886-0.859,1.075-1.002
		c0.239-0.097,0.621-0.097,1.148,0c0.525,0.094,0.979,0.071,1.361-0.072c0.479-0.096,1.123-0.312,1.937-0.646
		c1.145-0.574,1.959-0.859,2.437-0.859h0.072c0.525,0.191,1.099,0.67,1.719,1.434c0.669,0.764,1.314,1.744,1.937,2.939
		c0.526,0.957,0.979,1.697,1.361,2.223c0.431,0.523,1.1,1.146,2.008,1.863c0.813,0.621,1.528,1.1,2.15,1.434
		c0.574,0.334,1.218,0.619,1.936,0.861c0.574,0.143,1.219,0.404,1.935,0.787c0.718,0.287,1.268,0.598,1.65,0.932
		c0.477,0.334,1.194,0.719,2.15,1.148c0.906,0.43,1.792,0.836,2.651,1.217c1.338,0.525,2.319,0.98,2.939,1.363
		c0.574,0.383,1.194,0.908,1.862,1.576c0.767,0.717,1.411,1.221,1.937,1.508c0.478,0.285,1.339,0.619,2.582,1
		c1.862,0.672,3.2,1.078,4.014,1.221c0.479,0,0.859,0.072,1.146,0.215c0.144,0.191,0.311,0.432,0.503,0.717
		c0.287,0.527,0.884,1.361,1.791,2.51c0.908,1.145,1.363,2.029,1.363,2.652c0,0.572,0.261,1.123,0.788,1.646
		c0.287,0.385,0.455,0.646,0.5,0.791c0.049,0.143,0,0.287-0.144,0.43c-0.144,0.145-0.381,0.287-0.716,0.43
		c-0.334,0.143-0.693,0.238-1.074,0.287c-0.574,0.096-0.934,0.189-1.077,0.287c-0.189,0.143-0.31,0.406-0.357,0.787
		c-0.096,0.43-0.215,0.693-0.358,0.789c-0.19,0.096-0.716,0.145-1.577,0.145c-1.003,0-1.602,0.021-1.791,0.07
		c-0.192,0.096-0.358,0.359-0.502,0.789s0.144,1.074,0.859,1.936c0.716,0.859,1.027,1.504,0.931,1.934
		c-0.047,0.383-0.524,0.813-1.432,1.293c-0.431,0.189-0.837,0.404-1.22,0.645c-0.333,0.287-0.573,0.525-0.716,0.715
		c-0.24,0.336-0.503,0.527-0.788,0.574c-0.287,0-0.79-0.07-1.507-0.215c-0.669-0.238-1.1-0.381-1.289-0.43
		c-0.431-0.096-0.694-0.023-0.789,0.215c-0.049,0.143-0.574,0.479-1.577,1.004c-0.431,0.238-0.766,0.453-1.004,0.645
		c-0.381,0.287-0.573,0.502-0.573,0.646l-0.287,1.219c-0.048,0.238-0.144,0.43-0.287,0.574c-0.189,0.143-0.454,0.26-0.788,0.357
		c-0.716,0.189-1.553,0.189-2.509,0c-0.956-0.24-1.672-0.551-2.151-0.932c-0.572-0.525-1.122-0.74-1.647-0.646
		c-0.526,0.096-1.123,0.502-1.792,1.221c-0.527,0.572-0.886,1.002-1.075,1.287c-0.144,0.287-0.215,0.742-0.215,1.363
		c0,0.861,0.215,1.697,0.644,2.51c0.335,0.766,0.742,1.219,1.219,1.361c0.287,0.047,0.574,0.215,0.861,0.502
		c0.238,0.336,0.502,0.859,0.788,1.578c0.573,1.242,0.859,2.055,0.859,2.438c0,0.43-0.238,0.717-0.717,0.859
		c-0.285,0-0.526,0.096-0.716,0.287c-0.239,0.189-0.453,0.406-0.646,0.645c-0.191,0.336-0.382,0.572-0.574,0.717
		c-0.19,0.096-0.525,0.143-1.003,0.143c-0.335,0-0.669,0.072-1.003,0.217c-0.336,0.094-0.598,0.238-0.79,0.43
		c-0.287,0.191-0.619,0.334-1.003,0.43c-0.383,0.047-0.884,0.072-1.506,0.072c-0.668,0-1.171-0.049-1.505-0.143
		c-0.285-0.098-0.645-0.287-1.075-0.574c-0.382-0.432-0.621-0.766-0.718-1.006c-0.095-0.332-0.144-0.979-0.144-1.934
		s-0.071-1.576-0.215-1.863c-0.095-0.385-0.404-0.861-0.932-1.436c-0.429-0.523-0.716-0.979-0.859-1.361
		c-0.192-0.479-0.334-0.98-0.431-1.506c-0.19-1.049-0.404-2.006-0.646-2.867c-0.238-0.955-0.357-3.248-0.357-6.881
		c0-1.529-0.048-2.914-0.144-4.158c-0.048-1.291-0.097-2.055-0.144-2.293c-0.144-0.287-0.334-0.646-0.572-1.076
		c-0.24-0.381-0.525-0.717-0.861-1.004c-0.764-0.715-1.338-1.314-1.721-1.791c-0.382-0.623-1.219-1.146-2.509-1.578
		c-1.434-0.479-2.39-0.908-2.867-1.289c-0.423-0.297-1.26-0.729-2.509-1.291c-0.161-0.066-0.328-0.139-0.502-0.215
		c-0.573-0.24-1.243-0.598-2.008-1.076c-0.813-0.43-1.457-0.861-1.935-1.289c-0.909-0.67-1.721-1.174-2.438-1.506
		c-0.765-0.334-2.223-0.789-4.374-1.361c-0.477-0.098-0.979-0.191-1.504-0.287c-1.1-0.191-1.674-0.24-1.721-0.145l-0.144,0.287
		l-0.572,0.145c-0.384,0.047-0.646,0.047-0.79,0c-0.134-0.09-0.432-0.305-0.896-0.646c-0.036-0.023-0.073-0.047-0.107-0.072
		l-0.501-0.285l-0.859-2.438l-0.503-0.502c-0.431-0.383-0.718-0.621-0.861-0.717c-0.188-0.096-0.31-0.238-0.356-0.432
		c-0.048-0.238-0.097-0.381-0.144-0.43c-0.048-0.045-0.168-0.045-0.359,0c-0.142,0.049-0.263,0.072-0.357,0.072
		c-0.049,0-0.12-0.049-0.215-0.145l-0.359-0.285l-0.071,0.717l-2.867,1.004l-3.657,2.652l-0.358,3.441l-0.858,1.359l-0.358,1.865
		c-0.192,1.434-0.287,2.199-0.287,2.295c0,0.094,0.047,0.215,0.144,0.359c0.095,0.141,0.261,0.357,0.502,0.645l0.788,0.787v0.574
		c0,0.191,0.024,0.381,0.07,0.574c0,0.238,0.098,0.619,0.287,1.145l0.574,1.221l-0.718,0.717l-3.941-0.287l-4.589,2.725
		l-0.072,3.941l-0.859,1.65l-0.214,5.447l2.149,2.652l1.29,0.287c0.86,0.143,1.34,0.287,1.435,0.43l3.656,2.221
		c1.051,0.623,1.815,1.123,2.293,1.506c0.477,0.24,0.86,0.527,1.147,0.859l0.716,0.646l0.502,1.578
		c0.144,0.621,0.287,1.098,0.431,1.434c0.144,0.238,0.311,0.477,0.503,0.717c0.332,0.477,0.597,0.885,0.787,1.217
		c0.144,0.432,0.335,1.076,0.573,1.936c0.096,0.717,0.144,1.244,0.144,1.578c0.049,0.381,0.071,1.266,0.071,2.652
		c-0.046,1.338-0.046,2.199,0,2.58c0,0.383,0.097,0.861,0.287,1.436c0.19,0.715,0.287,1.145,0.287,1.289c0,0.098-0.19,0.098-0.574,0
		c-0.382-0.145-0.645-0.189-0.788-0.145c-0.144,0-0.312,0.121-0.5,0.359l-0.287,0.287l-0.431-0.145
		c-0.191-0.047-0.359-0.166-0.503-0.357c-0.19-0.238-0.548-0.717-1.074-1.434c-0.527-0.813-0.86-1.336-1.004-1.578
		c-0.096-0.189-0.168-0.5-0.215-0.932l-0.144-0.787l-2.58-0.145c-1.817-0.096-2.75-0.166-2.796-0.215
		c-0.049-0.049-0.097-0.381-0.144-1.004c-0.144-0.574-0.192-0.885-0.144-0.93c0.048-0.1,0.216-0.1,0.502,0
		c0.189,0.045,0.598,0.213,1.217,0.5l1.292,0.645h2.652l0.071-1.074c0.048-0.383,0.072-0.67,0.072-0.861s-0.049-0.406-0.144-0.645
		c-0.144-0.432-0.215-0.717-0.215-0.859c0-0.098,0.12-0.119,0.358-0.072c0.19,0.096,0.502,0.311,0.932,0.645
		c0.383,0.383,0.621,0.574,0.716,0.574c0.144,0.049,0.358,0.07,0.646,0.07l0.503-0.07v-0.859c-0.049-0.385-0.097-0.672-0.144-0.861
		c-0.048-0.143-0.167-0.383-0.359-0.717c-0.19-0.381-0.358-0.646-0.502-0.789c-0.144-0.096-0.429-0.145-0.859-0.145
		c-0.144,0-0.286-0.021-0.43-0.07c-0.098-0.047-0.241-0.168-0.431-0.357l-0.43-0.574l-0.932,0.357
		c-0.335,0.145-0.55,0.264-0.646,0.359c-0.144,0.047-0.285,0.168-0.429,0.357c-0.144,0.287-0.287,0.48-0.431,0.574
		c-0.144,0.096-0.453,0.166-0.933,0.215c-0.238,0-0.382,0.025-0.431,0.072c-0.095,0.047-0.142,0.145-0.142,0.287
		c-0.097,0.477-0.119,0.74-0.072,0.787c0.048,0.098,0.31,0.191,0.788,0.287l0.933,0.357h-0.933c-1.481,0-2.675-0.213-3.584-0.645
		c-0.478-0.285-0.742-0.428-0.787-0.428c-0.049,0.047-0.098,0.357-0.144,0.932l-0.072,1.217l1.003,1.363l-0.358,0.859l-3.083-2.15
		l-0.859-0.359l-0.718-1.289l-6.881-4.875l-0.501-2.006l-5.807-2.939l0.144-0.934l-1.363-0.357l-0.431-0.574l-1.863-0.141
		l-0.431-0.719l-0.717-0.215l-2.938-2.438l-0.788-1.363l-1.292-1.217l-1.003,0.357l-0.716,0.43l-1.866-1.146l-0.429,0.072
		l1.361,2.006l-0.431,0.504h-0.716l-1.075-1.363l-10.609-3.512l-0.645-1.363l-0.071-0.932l-2.653-0.287l-4.087-2.295l-4.229-1.287
		l-0.859,0.143l-4.588-2.08v-1.146l-0.287-0.502l1.147-0.359l1.792,1.148l9.964,1.504l4.444,2.58l0.932,1.436l1.793,0.432
		l1.218-0.217l0.718,0.645l2.437,1.65l2.652,0.859l0.861,0.93l0.716-0.141l-1.792-1.648l-0.573-0.432l0.072-0.072l-2.511-1.432
		l-0.716-0.934h-0.071l-0.43-0.357l-2.938-0.859l-1.221-2.582l0.646-1.504l-0.574,0.287h-0.788l-1.146-1.006v0.287h-1.219
		l-1.291-1.648h-1.648l-0.072-2.08l-3.871-2.867h-0.859l-2.581-1.791v-0.072l-0.215,0.072l-9.176-10.18l-1.936-0.143l-2.58-1.004
		h-1.721l-1.146-1.436l-2.079-0.07l-3.083-1.434l-2.222-1.863l-1.004-0.072l-2.438,0.645l-1.147-0.645v-0.717l1.793-0.43v-0.43
		l-2.724-0.789l-6.452,1.793l-3.298-0.145l1.147,0.502l0.143,0.646l-2.222,0.5l-2.365-0.5l-0.86-1.148l-1.506-0.43v-1.219
		l-1.577-1.434l0.646-0.43l-0.932-1.936l0.573-1.22l-0.287-1.503l1.004,0.141v-1.721h-1.29l-0.431-0.572L97.506,185.675z
		 M96.144,186.247l0.574,0.861l0.072,0.718l-0.933,0.287l-1.147-1.508l0.287-0.715L96.144,186.247z M89.047,188.186l-1.505-0.861
		l-1.003-0.934l0.215-0.5l2.437,0.572l2.007,1.436l-0.072,0.5L89.047,188.186z M175.069,104.025h1.074l0.359-0.072
		c0.049,0,0.095-0.048,0.144-0.143c0.049-0.096,0.071-0.167,0.071-0.215c0-0.096,0-0.191,0-0.287l-1.074-0.287l-0.574,0.574V104.025
		z M179.37,105.244c0.144-0.096,0.263-0.167,0.358-0.215l0.144-0.143c0.048-0.047,0.072-0.097,0.072-0.144
		c0-0.097,0.022-0.215,0.071-0.358l-1.148-0.359l-0.716,0.574v0.501L179.37,105.244z M103.098,222.807l0.072,0.932l-0.503,0.861
		l-0.717-0.359l-0.43-0.07l-0.573-0.646l0.859-1.145L103.098,222.807z M103.17,218.865l1.29-0.646l4.587-0.502l0.144,0.43
		l-0.466,0.719l-0.035,0.072h0.43l1.075-0.287l1.29-0.072l-0.215,1.289l-1.146,2.008l-0.502-0.143l-0.932-0.646l-0.359,0.072
		l-0.143,0.574h-1.937l-0.286-0.574l-0.502,0.574l-0.859-0.072l-0.144-0.43l0.501-0.502l-0.573-0.645l-1.29-0.645L103.17,218.865z
		 M103.527,199.654v-0.359l1.29-0.287v0.859L103.527,199.654z M106.825,199.295h0.86l0.144,0.645l-0.358,0.432l-2.008,0.07
		l0.788-0.859L106.825,199.295z M112.273,195.998l0.501,0.43l2.939,0.645l0.216,0.287l-0.287,0.787l-5.305-0.07l-0.358-0.502
		l0.287-0.502h1.434l-0.216-0.859L112.273,195.998z M165.822,239.439l-1.363-0.574l-6.308-1.291l-1.146-0.07l-3.8-1.865l0.072-1.004
		l1.576-0.287l13.979,4.303l2.007,1.217l-0.216,0.932l-0.931-0.285h-1.649l-1.146-1.002L165.822,239.439z M135.786,235.209h1.505
		l1.29,1.219l-1.003,1.146l-1.004,0.072l-0.573-0.143l-1.362,0.285l-0.573-0.215l-0.717-1.002l0.86-1.293l0.788-0.215l0.646,0.502
		L135.786,235.209z M127.184,223.166l3.083,0.787l2.222,1.078l2.509,0.357l1.649-0.645l6.308,0.287l1.29,0.93l1.793,0.072
		l1.648,0.932l0.431,1.221l-1.793,0.285l-5.878-0.645l-1.648,0.572l-2.366,0.287l-5.878-0.787l-2.365-1.006l-0.932-0.287
		l-0.502-0.428l0.788-0.717l1.291-0.215v-0.215l-1.793-0.574l-1.075-0.934L127.184,223.166z M116.287,213.848l0.359,0.43
		l-0.216,0.645l-1.29-0.072l-1.146-0.285l-0.216-0.504l0.287-0.355h0.932L116.287,213.848z M115.857,202.807l1.792,1.076v0.789
		l-1.576-0.072l-2.939-1.434l-1.649-0.43l-1.361-1.148l-0.144-1.004l0.932-0.072l1.72,0.145l0.789,0.717l2.008,0.574
		L115.857,202.807z M132.918,205.818l2.295,0.215l0.932,0.215l0.071,1.506l-0.646,1.074l-3.44,0.072l-2.437,0.717l-7.527-0.287
		l-2.652-2.51l-1.147-0.143l-0.286-0.645l0.645-0.072v-0.715l-0.43-0.574l0.573-0.574l-0.788-1.291l0.071-0.645h0.717l2.15,0.932
		l7.455,0.859l4.229,1.148l-0.358,0.357L132.918,205.818z M147.614,216.285l-0.86,1.146l-1.793,0.072L143.026,217l-6.452,0.287
		L132.273,217l-0.287-0.357L131.484,217l-4.444,0.072l-0.071-0.033l-5.95-1.688l-1.219-0.859l-2.509-0.645l-1.577-1.004
		l-0.215-0.432l1.792,0.072l0.573,0.215l0.86-0.502l2.796-0.145l0.933,1.221l1.361,0.502l0.502-0.357l-1.219-1.221l-1.004-0.5
		l-0.215-0.717h1.362l0.646,0.357l2.724,0.932l2.939,2.295l1.361,0.428l9.319,0.145l4.229,0.861L147.614,216.285z M177.436,240.586
		v-0.359l0.357-0.428l0.502-0.145l0.859,0.787l-0.43,0.215L177.436,240.586z M173.994,236.428l0.932,0.215l2.008,1.576l0.144,1.076
		l-0.861,0.145l-0.859-0.646l-0.788-0.143l-0.359-1.291l-0.215-0.215V236.428z"/>
	<path fill-rule="evenodd" clip-rule="evenodd" fill="#0D7CA6" d="M115.93,88.828l-0.431,2.294l-2.438,0.932l0.072,0.072h-0.072
		l0.215,0.071l1.793,1.434l-0.431,2.725l2.581-1.076l2.007,1.505l0.287-2.437v-0.072l2.079-0.789l-1.722-1.649l0.359-2.438V89.33
		l-2.51,1.004c0-0.048-0.598-0.573-1.791-1.577V88.828z M122.381,103.021c-1.147,0.431-2.294,0.693-3.44,0.789
		c-1.004,0.095-2.271,0.071-3.8-0.072c0.956,1.386,2.366,2.222,4.229,2.509c1.721,0.334,3.345,0.095,4.874-0.717
		c1.53-0.909,2.51-1.936,2.939-3.083c0.287-1.003,0.263-2.174-0.071-3.512c-0.718,0.908-1.243,1.577-1.578,2.007
		C124.723,101.755,123.671,102.448,122.381,103.021z M123.456,111.194c-1.72,0.621-3.823,1.386-6.309,2.294L107.9,94.062
		l6.165-10.753l12.832,5.591l5.304,20c-2.819,0.622-5.28,1.243-7.384,1.864C124.388,110.907,123.934,111.051,123.456,111.194z
		 M163.6,86.462l-0.286,0.287l-0.573,0.072v0.215l0.144,0.501h-0.503l-0.071-0.072v-0.645l-0.861-0.359l-0.788,0.431v0.645
		l-0.429,0.144l-0.359-0.573l-0.718-0.287h-0.358v0.43l0.718,0.932l-0.072,0.501l-0.574,0.215v0.932l-0.572,0.144l-0.574,0.86
		l0.287,0.358c0.048,0-0.024,0.215-0.215,0.646l0.215,0.144v0.144l0.216,0.501l0.501,0.072l0.071,0.573l0.718,0.144l0.646,0.501
		v0.215l0.86,0.072l0.5,0.144l1.794-0.215l0.286-0.359v-0.501h1.003l0.071-0.86h0.503l-0.072-0.86h0.431l-0.071-0.43l-0.287-0.43
		l-0.072-0.502l-0.718-0.789l-0.213-1.003l-0.503-0.215v-0.645l0.503-0.789v-0.215L163.6,86.462z M159.801,94.778l-0.574-0.072
		l-0.431,0.358l-0.429,0.072v0.144l0.142,0.502h-0.645v-0.646l-0.787-0.501l-0.79,0.573v0.072l-0.07,0.502l-0.359,0.143l-0.43-0.645
		l-0.646-0.144h-0.358l-0.071,0.359l0.788,1.003l-0.071,0.431V97h-0.072l-0.501,0.072l0.071,1.003l-0.717,0.144l-0.502,0.86
		l0.286,0.358l-0.215,0.646l0.215,0.143l0.072,0.287l0.144,0.358l0.358,0.072l0.144,0.574l0.788,0.143l0.646,0.502v0.286
		l1.291,0.144l1.79-0.144l0.287-0.43v-0.501l1.005-0.072l0.072-0.789h0.572l-0.071-0.932l0.43,0.072l-0.143-0.431l-0.216-0.43
		l-0.071-0.501l-0.717-0.717l-0.215-1.076l-0.503-0.144l-0.071-0.716l0.646-0.718L159.801,94.778z M155.069,86.75h-0.573
		l-0.431,0.287l-0.431,0.072v0.286l0.072,0.431h-0.502l-0.071-0.072v-0.645l-0.789-0.359l-0.215,0.072l-0.646,0.43v0.645
		l-0.357,0.072l-0.431-0.573l-0.646-0.286h-0.357l-0.072,0.43l0.717,0.932l-0.071,0.573l-0.502,0.144v0.932l-0.717,0.215
		l-0.431,0.86l0.287,0.287l-0.215,0.646l0.215,0.143l0.144,0.574l0.43,0.072l0.144,0.645l0.717,0.143l0.717,0.431v0.286l0.717,0.072
		l0.573,0.144l1.793-0.215l0.286-0.358V93.56h1.004l0.072-0.86h0.573l-0.144-0.932l0.43,0.072l-0.072-0.43l-0.214-0.358
		l-0.144-0.646l-0.789-0.717l-0.071-1.004l-0.502-0.214l-0.071-0.645l0.573-0.789V86.75z M148.904,106.606l-2.007-21.146
		l9.893-7.886l10.321,7.814l-1.863,21.218c-2.771-0.143-5.376-0.214-7.813-0.214C155.093,106.392,152.249,106.463,148.904,106.606z
		 M200.016,90.835l-1.505-0.574l-0.431-2.294l0.071-0.072l-1.936,1.505l-2.438-0.717l0.072,0.144l0.071,0.431
		c0,0.096,0,0.191,0,0.286c0,0.096,0.023,0.215,0.072,0.359l0.215,1.219l-2.008,1.792l2.582,0.859l0.501,2.438l1.864-1.721
		l2.149,0.717v-0.072l-0.215-2.293l1.937-1.649l-0.645-0.287c-0.049,0-0.121-0.024-0.216-0.072
		C200.11,90.835,200.063,90.835,200.016,90.835z M184.746,97.502l2.58-9.176l12.475-5.018l6.452,10.968l-3.226,6.666
		c-3.25-1.386-6.094-2.485-8.531-3.297c-2.821-0.908-5.831-1.696-9.032-2.366L184.746,97.502z M182.524,105.459
		c4.062,1.243,6.668,2.054,7.813,2.438c4.016,1.29,6.668,2.198,7.958,2.724l-1.361,2.868c-2.438-0.908-4.541-1.673-6.31-2.294
		c-0.238-0.097-0.502-0.167-0.787-0.215c-2.103-0.669-4.852-1.386-8.245-2.151L182.524,105.459z"/>
	<path fill-rule="evenodd" clip-rule="evenodd" fill="#FFFFFF" d="M127.04,88.756v0.072l0.144,0.501
		c0.048,0.239,0.072,0.455,0.072,0.646l5.089,18.853c3.489-0.621,6.309-1.075,8.459-1.362c2.438-0.334,5.09-0.621,7.957-0.86
		l-0.932-10.824h-0.072l-1.003-10.395h-0.072l-11.469-6.667L127.04,88.756z M122.381,103.021c1.29-0.573,2.342-1.266,3.153-2.079
		c0.335-0.43,0.86-1.099,1.578-2.007c0.334,1.338,0.358,2.509,0.071,3.512c-0.43,1.147-1.409,2.174-2.939,3.083
		c-1.529,0.812-3.153,1.051-4.874,0.717c-1.863-0.287-3.273-1.123-4.229-2.509c1.529,0.143,2.796,0.167,3.8,0.072
		C120.087,103.715,121.233,103.452,122.381,103.021z M123.456,111.194c0.478-0.144,0.932-0.287,1.361-0.43
		c2.104-0.621,4.564-1.243,7.384-1.864l-5.304-20l-12.832-5.591L107.9,94.062l9.247,19.427
		C119.633,112.581,121.736,111.815,123.456,111.194z M116.073,115.208h81.791v0.287h66.953c-0.047,0.047-0.071,0.12-0.071,0.215
		c-0.429,0.717-1.027,1.218-1.791,1.505c-1.29,0.526-2.176,1.05-2.652,1.577c-0.478,0.526-0.718,1.314-0.718,2.366
		c0,0.334-0.047,0.692-0.144,1.076c-0.094,0.43-0.188,0.741-0.287,0.931c-0.188,0.335-0.286,0.622-0.286,0.86
		c-0.046,0.239,0,0.455,0.144,0.646c0.192,0.382,0.215,1.171,0.071,2.366c-0.047,0.812-0.166,1.386-0.357,1.721
		c-0.19,0.286-0.716,0.788-1.577,1.504c-1.193,0.908-2.055,1.625-2.58,2.151c-0.287,0.383-0.669,0.621-1.148,0.717
		c-0.429,0.096-0.597,0-0.501-0.286c0.048-0.144,0.191-0.311,0.43-0.502c0.239-0.238,0.551-0.454,0.933-0.645
		c0.287-0.143,0.55-0.31,0.788-0.501c0.19-0.191,0.263-0.334,0.215-0.43c-0.142-0.144-1.025-0.406-2.652-0.789
		c-0.716-0.191-1.409-0.431-2.079-0.717c-0.716-0.24-1.219-0.454-1.504-0.645c-0.287-0.191-0.742-0.406-1.363-0.645
		c-0.573-0.144-1.122-0.264-1.647-0.359c-0.909-0.191-1.508-0.358-1.793-0.501c-0.239-0.096-0.478-0.383-0.716-0.86
		c-0.192-0.478-0.265-0.884-0.215-1.219c0.047-0.335,0.358-1.123,0.931-2.366c0.859-1.721,1.29-2.724,1.29-3.011
		c0-0.286-0.597-0.621-1.792-1.003c-0.766-0.24-1.362-0.358-1.793-0.358c-0.463,0-1.085,0.048-1.862,0.144h-0.072
		c-1.673,0.334-2.867,0.501-3.585,0.501c-0.619,0-1.171-0.167-1.647-0.501c-0.479-0.239-0.789-0.359-0.933-0.359
		c-0.19,0-0.525,0.12-1.003,0.359c-0.24,0.19-0.574,0.358-1.003,0.501c-0.384,0.096-0.742,0.144-1.077,0.144
		c-0.716,0-1.171,0.167-1.361,0.501c-0.097,0.144-0.168,0.478-0.214,1.004c0,0.239,0,0.478,0,0.717l0.859,2.437l-2.295,8.746
		l-1.075,1.076c-0.429,0.43-0.765,0.789-1.003,1.075c-0.192,0.287-0.336,0.573-0.431,0.86c-0.144,0.431-0.287,0.717-0.431,0.86
		c-0.144,0.096-0.381,0.263-0.716,0.501c-0.431,0.287-0.669,0.526-0.716,0.717c-0.049,0.097,0.022,0.502,0.215,1.219
		c0.143,0.287,0.214,0.478,0.214,0.574c0,0.095-0.096,0.214-0.287,0.358c-0.238,0.191-0.382,0.287-0.429,0.287
		c-0.097,0.095-0.287,0.334-0.574,0.717s-0.431,0.645-0.431,0.789c0,0.286,0.144,0.717,0.431,1.29
		c0.335,0.573,0.453,1.051,0.359,1.434c-0.097,0.383-0.503,1.1-1.219,2.151c-0.718,1.147-1.075,1.816-1.075,2.007
		c0,0.144,0.286,0.669,0.859,1.577c0.573,0.956,1.124,1.817,1.649,2.581c0.477,0.574,0.859,0.932,1.146,1.076
		c0.191,0.238,0.669,0.548,1.434,0.932l1.647,0.931l0.574-0.431c0.334-0.189,0.574-0.31,0.718-0.359c0.144,0,0.406,0.05,0.788,0.145
		l0.861,0.215c0,0.049,0.069,0.431,0.213,1.148c0.192,0.668,0.312,1.146,0.359,1.432h0.144l0.502,1.866l0.718,0.214
		c0.429,0.096,0.669,0.168,0.716,0.215c0.048,0.048,0.263,0.313,0.645,0.788l0.431,0.646l0.933,0.145l0.501,1.146l1.864,1.434
		c1.29,0.955,2.056,1.458,2.293,1.506c0.287,0.096,0.454,0.189,0.503,0.287c0.047,0.096,0.119,0.262,0.215,0.5l0.216,0.431
		l-2.008,1.937c-0.859,0.813-1.362,1.218-1.506,1.218c-0.238,0-0.884-0.097-1.935-0.287c-1.052-0.19-1.911-0.358-2.582-0.503
		c-0.765-0.143-1.29-0.285-1.577-0.428c-0.332-0.097-0.906-0.359-1.719-0.788l-1.579-0.718l-0.357,0.359
		c-0.334,0.237-0.526,0.404-0.574,0.502c-0.096,0.189-0.144,0.357-0.144,0.5c0,0.191,0.119,0.717,0.359,1.578l0.572,1.289
		l4.59,5.592l0.501,1.936c0.047,0.238,0.383,0.621,1.003,1.147c0.479,0.429,0.765,0.716,0.861,0.859
		c0.144,0.144,0.31,0.384,0.502,0.718c0.144,0.191,0.286,0.502,0.43,0.932c0.096,0.143,0.19,0.287,0.287,0.43h-43.012
		c-2.34,3.728-5.208,7.098-8.602,10.108c-3.776,3.153-7.887,5.614-12.329,7.382c-4.541,1.77-9.033,2.629-13.478,2.582
		c-4.779,0.24-9.63-0.527-14.553-2.295c-4.826-1.719-9.271-4.182-13.333-7.383c-3.728-3.106-6.787-6.57-9.176-10.395H95.857
		l-1.362-0.43l-1.864-0.145l-0.789-0.428l-1.648-0.216l-0.144-0.79l-2.294-2.006l1.146-0.43l-4.802-2.868l-4.086-3.8l-3.083-5.161
		l-3.011-3.37h-0.859l-1.291-2.652l-1.648-2.436l-0.43-2.294l-1.147-2.079l1.649,0.143l0.789,1.649l0.86-0.646l0.144-1.648
		l1.076-0.215l1.075,1.647h1.218l0.072-0.788l0.359-1.074l-0.645-1.578l0.501-0.143l1.291,1.506l2.939,1.79l1.218-0.501l2.725,1.793
		v1.003l-1.362-0.285l-0.932,1.146l2.007,1.435l3.227,0.144l-0.144,1.36l1.003,1.148l0.789-0.431l-1.003-1.577l-0.431-1.505
		l-1.935-1.435l-0.215-1.505l-1.075-1.146l-9.462-5.448l-3.226-4.23l-2.509-2.151l-4.946-6.165l-3.154-5.878l0.215-1.075
		l-0.501-1.434l-0.144-4.946l1.146-4.803l-0.358-2.652h55.27V115.208z M167.255,85.388l-1.863,21.218
		c3.487,0.287,6.354,0.574,8.603,0.86c2.006,0.287,4.469,0.717,7.384,1.29l5.805-20.501l-8.672-9.391L167.255,85.388z
		 M148.904,106.606c3.345-0.143,6.188-0.214,8.531-0.214c2.437,0,5.042,0.072,7.813,0.214l1.863-21.218l-10.321-7.814l-9.893,7.886
		L148.904,106.606z M127.686,111.194c-3.775,0.907-7.455,2.03-11.039,3.369l-10.108-20.358l6.882-12.258l12.76,5.448l8.531-10.179
		l11.756,6.81l10.036-8.101l10.68,8.244l11.328-6.882c5.876,6.452,8.888,9.678,9.031,9.678l12.761-5.162l7.025,12.402l-10.036,20.43
		c-3.729-1.337-7.455-2.485-11.183-3.44c-9.654-2.39-19.571-3.561-29.75-3.513c-6.69,0-13.43,0.598-20.215,1.792
		C133.277,109.951,130.457,110.524,127.686,111.194z M149.119,117.288v16.774h15.627v-16.774h15.557v16.774h15.626v16.775h-15.626
		v16.774h-15.557v16.701h-15.627v-16.701h-15.556v-16.774h-15.556v-16.775h15.556v-16.774H149.119z M74.566,176.5l0.574,1.217h0.501
		l0.86,0.574l2.437,2.437l0.574,0.216l0.859,0.861v0.502h-0.788l-1.147-0.934l-1.29-0.646l-1.219-0.931l-3.37-3.799v-0.719
		l0.86,0.072L74.566,176.5z M75.141,174.205v0.287l1.218,0.572l0.287,1.436l1.147,1.145v0.574h-0.502l-1.649-1.361l-1.649-1.865
		l-0.072-0.859L75.141,174.205z M85.535,178.435l1.004,0.216l0.43,1.505l1.577,1.505v0.646h-0.358l-1.577-0.718l-0.072-0.574
		l-1.434-1.504L85.535,178.435z M66.968,165.388l0.072-1.721h0.789l0.287,1.147l1.29,0.645l0.789,1.649l0.071,0.861h-0.501
		L66.968,165.388z M64.818,160.871l-1.577-0.859l-0.932-1.361v-1.506l1.72,1.576l0.86,1.435L64.818,160.871z M58.939,158.65h0.431
		l1.72,2.148l0.573,0.145l0.646,1.576l1.72,1.219l1.505,1.793l0.932,2.939l2.294,1.505l2.868,3.298v0.859l-0.717-0.071l-1.577-0.859
		h-0.431l0.072,0.431l2.008,1.288l0.071,0.718l-0.932-0.144l-2.222-2.077l-1.29-2.08l-1.649-1.865l-0.573-2.938l-7.384-6.81
		l0.287-0.717h0.646l0.931,1.147l0.287-0.216l-0.215-0.716V158.65z M58.796,156.713h0.789l0.359,0.216l0.072,1.075l-0.573-0.072
		l-2.151-1.575l-0.287,0.071l0.358,0.501l-0.071,1.147h-0.358l-0.717-1.147l-0.573-1.937l0.43-0.358h0.717l0.573,0.358
		L58.796,156.713z M73.993,167.826l0.287-0.287h0.86l1.218,0.787l-0.072,0.574l2.007,1.721l0.144,0.645l1.004,0.788l0.072,0.718
		l0.788,0.215l0.502,0.789l-0.502,0.357l-1.362-0.071l-0.573-0.644l-1.075-0.287l-1.147-1.148l-1.72-3.153L73.993,167.826z
		 M72.703,165.174l1.004,1.145v0.503h-0.86l-0.43-0.859l-1.076,0.356l-0.86-0.715l-0.215-0.645l-1.72-1.65l-0.072-0.573l-1.434-1.29
		v-0.359l0.287-0.287l-0.215-0.143l-0.072-0.859l0.717,0.143l1.29,0.788l0.789,1.436l1.649,2.149L72.703,165.174z M66.323,152.27
		l1.505,0.789v1.146h-0.431l-0.143-0.215l-2.222-0.072l-0.359-0.5v-1.148H66.323z M65.249,140.585l0.645,0.932v1.075l-1.936-0.573
		l-1.147-1.434l-1.362-0.86l-0.215,0.359l2.796,2.867l0.072,0.358l0.86,1.147l0.645,0.072v-0.717l0.573-0.358l1.076,0.932v0.573
		l1.792,1.72l0.431,0.144l1.003,0.933l0.573,1.145l0.287,0.287l2.007,0.933v0.932h-0.86l-1.003-0.86l-0.86,0.215l1.863,1.074
		l0.072,0.717l-0.931,0.072l-1.792-0.645l-0.358,0.213l0.86,0.79v0.431l-0.645-0.072l-2.294-2.007l-0.358-2.652l-1.434-0.144
		l-1.076-2.079l-1.577-1.792l-1.505-0.359l-1.362-1.72l0.573-0.645l-1.505-1.291l-0.072-1.362l-1.721-1.72l-3.369-5.233
		l-0.286-0.932l0.931-0.072l2.581,3.799l0.072,0.501l1.648,1.219l0.431-0.717l1.075,0.214l0.359,0.86l1.648,1.076l0.43,1.936
		L65.249,140.585z M58.51,130.836l-0.717,0.071l-1.864-1.936l-1.505-0.789l-2.581-0.43l-0.645-1.29l-0.144-0.789l1.649-0.215
		l-0.287-1.864l0.645-0.431l1.505-0.143l0.072,0.716l0.932,2.653l3.226,3.656L58.51,130.836z M164.746,150.837h15.557v-16.775
		h-15.557V150.837z M149.119,134.062h-15.556v16.775h15.556V134.062z M149.119,150.837v16.774h15.627v-16.774H149.119z
		 M192.918,102.52c0.479,0.096,0.789,0.263,0.933,0.501c0.049,0.144,0.144,0.431,0.287,0.86l-1.005,0.072
		c-0.572-0.048-1.073-0.119-1.504-0.215c-0.478-0.239-1.027-0.454-1.648-0.646v-0.501L192.918,102.52z M182.524,105.459
		l-0.933,3.369c3.394,0.765,6.143,1.482,8.245,2.151c0.285,0.048,0.549,0.119,0.787,0.215c1.769,0.621,3.872,1.386,6.31,2.294
		l1.361-2.868c-1.29-0.526-3.942-1.434-7.958-2.724C189.192,107.514,186.586,106.702,182.524,105.459z M187.542,98.147l-2.796-0.645
		l0.718-2.223c3.201,0.669,6.211,1.458,9.032,2.366c2.438,0.813,5.281,1.912,8.531,3.297l3.226-6.666l-6.452-10.968l-12.475,5.018
		l-2.58,9.176l-1.647,5.878c2.006,0.383,4.755,1.147,8.243,2.294c2.818,0.956,5.471,1.935,7.956,2.939l2.725-5.592
		c-2.818-1.146-5.639-2.198-8.459-3.153C191.748,99.295,189.74,98.721,187.542,98.147z M133.635,184.385l15.413,0.071v15.698
		c-2.247-0.477-4.636-1.266-7.168-2.365c-2.964-1.244-5.688-2.725-8.173-4.443L133.635,184.385z M121.95,181.015
		c0.431,0.718,0.884,1.409,1.362,2.079c2.151,3.297,4.875,6.285,8.172,8.96c3.823,3.108,8.077,5.497,12.76,7.171
		c4.684,1.672,9.319,2.389,13.907,2.148c4.302,0.047,8.603-0.789,12.903-2.508c4.302-1.674,8.243-4.039,11.829-7.098
		c2.962-2.582,5.494-5.472,7.597-8.674c0.479-0.715,0.909-1.434,1.292-2.15c2.437-4.349,3.896-8.89,4.371-13.619v-50.252h-78.423
		l-0.144,50.036C117.96,171.936,119.417,176.572,121.95,181.015z M123.671,183.094c-1.337-1.959-2.461-4.063-3.369-6.309
		c-1.242-3.059-1.983-6.092-2.222-9.103h15.34v16.558l-9.032-0.215C124.149,183.738,123.91,183.429,123.671,183.094z
		 M193.563,176.785c-1.1,2.533-2.485,4.947-4.157,7.24l-9.031,0.215v-16.558h15.41C195.547,170.693,194.807,173.727,193.563,176.785
		z M180.303,184.385l-0.071,8.961c-2.438,1.719-5.162,3.199-8.174,4.443c-2.532,1.1-4.946,1.889-7.24,2.365v-15.698L180.303,184.385
		z M27.685,115.495l0.573,0.501l-0.573,0.86l-0.072,1.434l-1.577,1.864l-0.86-0.359l-0.501,0.144l0.717,1.649l-0.717,2.938
		l-1.505,0.072l-0.789-0.502l-0.143,2.438l-0.502-0.215l-1.434-1.721l-0.358-1.219l-2.294-2.079v-3.011l-1.004-2.796H27.685z
		 M31.986,115.495l-0.144,1.146h-1.577l-1.003,0.789l-0.502-0.358l0.215-1.147l0.215-0.43H31.986z M16,119.94v-1.147l-0.43-0.501
		l0.573-0.144l0.359,0.144v1.434L16,119.94z M54.28,152.844h0.501l0.789,0.574v1.146l-1.29,0.213l-0.431-1.002L54.28,152.844z
		 M51.198,145.531l0.789-0.215l0.645,0.574l0.072,0.859l0.789,0.646l0.358,0.931l-0.717,0.359l-1.003-0.574l-0.287-0.859
		l-0.645-0.86V145.531z M54.997,147.611l0.286-0.646l-0.214-0.573l-0.072-0.86l1.505-0.287l0.574,0.646l-0.359,0.645l0.502,1.004
		l0.072,1.146l-0.574,0.5h-1.075L54.997,147.611z M48.903,148.47h0.789l0.287,0.573l0.932,0.646v1.362h-0.86l-1.434-1.362
		l-0.072-0.859L48.903,148.47z M46.18,143.596l-0.215-0.932l1.219-0.358l0.717,0.214l0.43,1.076l-0.43,0.358l-0.645-0.214
		l-0.502,0.071L46.18,143.596z M39.584,129.115l1.577,0.789l0.43,3.584l0.718,2.366l3.871,3.226l-0.144,2.222h-1.075l-1.219-1.146
		l-0.215-0.717l-0.717-0.502l-0.287-1.362l-0.789-0.501l-0.645,0.144h-0.573l0.072-2.222l0.215-0.932l-1.505-2.15v-1.219
		l0.286-0.501V129.115z M34.925,134.062l-0.359-0.789l0.574-2.294l1.218-0.574l0.358,1.219l-0.645,0.43v0.86l0.573,0.573
		l-0.789,0.573l-0.358-0.215L34.925,134.062z M57.578,123.38l-0.501,1.004l-0.43-0.215l-0.144-1.362l0.789-0.072L57.578,123.38z
		 M54.495,121.302l1.076,0.645l0.072,0.789h-1.218l0.071-0.86l-0.286-0.144L54.495,121.302z M56.072,118.792l1.219,0.717v1.434
		l-0.789-0.143l-1.147-0.86l0.072-1.291L56.072,118.792z M49.549,116.068l0.287-0.573h4.946l1.434,0.932l-0.501,0.286l-0.573,0.431
		l-0.359,1.291l-2.222,0.144l-1.505-1.506l-1.003-0.144L49.549,116.068z M45.893,117.072l-0.214-1.218l1.003,0.43L46.896,117
		l-0.501,0.502L45.893,117.072z M38.653,116.284l0.43,0.215l1.218,1.792l1.004-0.072v-1.506l0.789,0.144l0.287-0.573l-0.646-0.789
		h2.51l0.501,0.501l-0.86,3.513l0.502,4.66l-0.287,1.792l0.645,1.434l-0.144,0.789l1.076,3.513l1.362,1.219l-0.86,1.218
		l-1.505,0.573l-1.72-2.437l-1.363-2.797l-0.358-1.935l-0.86-1.29l-0.286-1.864l-1.004-1.362v-1.864l-1.146-1.649l0.072-2.007
		L38.653,116.284z"/>
	<path fill-rule="evenodd" clip-rule="evenodd" fill="#CCA42C" d="M120.23,89.401l-2.796,3.442l4.158,0.645l-2.079,0.789v0.072
		l-2.079-1.505l1.792,3.798l-1.936-1.362l0.144-2.437l-2.725,3.44l0.431-2.653l-1.864-1.434l-0.215-0.071h0.072l4.301,0.717
		l-2.007-1.649l0.071-0.071l0.431-2.294l1.505,4.015l0.286-2.438L120.23,89.401z M173.707,89.187
		c-0.047-0.048-0.072-0.095-0.072-0.144h0.216c0,0.096,0.071,0.263,0.215,0.501c0,0.144,0,0.359,0,0.645
		c-0.049-0.239-0.118-0.454-0.215-0.645C173.851,89.401,173.804,89.283,173.707,89.187z M171.414,89.76l0.358-0.215
		c0.238,0.144,0.357,0.264,0.357,0.359c0.096,0.096,0.144,0.215,0.144,0.358c-0.097-0.095-0.168-0.19-0.216-0.286
		C171.962,89.928,171.746,89.856,171.414,89.76z M173.205,90.621c0.096,0.143,0.144,0.358,0.144,0.645l-0.072,0.144
		c0-0.096-0.071-0.287-0.215-0.574c-0.048-0.191-0.144-0.334-0.286-0.43C172.918,90.405,173.062,90.477,173.205,90.621z
		 M162.31,87.466l0.071,0.072h-1.721l0.072-0.144l0.573-0.072l0.07-0.286h0.144l0.144,0.286l0.646,0.072V87.466z M162.955,87.323
		l-0.144-0.43l0.502-0.072l0.357-0.287l0.287,0.072L162.955,87.323z M161.234,86.893l-0.574,0.072l0.646-0.359L161.234,86.893z
		 M161.592,86.606l0.718,0.215h-0.646L161.592,86.606z M160.088,87.61h-0.431l-0.646-0.717l0.861,0.215L160.088,87.61z
		 M159.514,88.685l0.502,0.072l-0.215,0.287v0.215l0.071,0.286l0.144,0.215l1.576,0.072l-0.072-0.717l-0.285-0.144l0.859-0.072
		l-0.358,0.215v0.645h1.363l0.501-0.144v-0.43l-0.572-0.789h0.572v-0.144l0.502,0.215l0.214,0.931l0.789,0.789v0.287l-0.789,0.144
		l-0.572,0.789v1.219l0.287,0.501h-0.216l-0.287-0.43l-0.787,0.286l0.144,0.789l0.358,0.287l-0.574,0.072l-0.287-0.502l-0.431,0.144
		l-0.144,0.359l-0.144-0.287h-0.429l-0.144,0.287h-0.788l-0.071-0.072l0.144-0.215l-0.072-1.003h-0.646l-0.072,0.573l-0.215-0.144
		l-0.072-1.29l-0.287-0.287l-0.144-0.645l-0.716,0.072l0.287,0.43l-0.358,0.717l-0.072-0.143v-0.144l-0.215-0.144
		c0.19-0.43,0.263-0.646,0.215-0.646l-0.287-0.358l0.574-0.86l0.572-0.144V88.9l0.574-0.215H159.514z M159.657,89.832v0.789
		l0.215,0.143l0.072,0.359l0.358,0.143v0.358l0.501,0.215l0.144,0.501l0.287,0.072l-0.072,0.215h0.072v0.287l0.357,0.43l0.646-0.072
		l0.287-0.43l0.144-0.359v-0.072c0.002-0.051,0.026-0.122,0.072-0.215l0.358-0.358l0.071-0.717l0.501-0.072l0.072-1.291
		l-0.144-0.144l-0.572,0.431l-0.359,0.573l-0.215,0.072l-0.503-0.717l-0.645,0.072l-0.286,0.788l-0.216-0.072l-0.645-0.645
		l-0.144-0.358L159.657,89.832z M162.597,89.904h-0.144c-0.049,0-0.072,0.047-0.072,0.144v0.143c0,0.096,0.023,0.144,0.072,0.144
		h0.144c0.047,0,0.071-0.048,0.071-0.144v-0.143C162.668,89.951,162.644,89.904,162.597,89.904z M161.02,90.119
		c0-0.096-0.048-0.143-0.144-0.143h-0.144c-0.048,0-0.072,0.047-0.072,0.143v0.143c0,0.097,0.024,0.144,0.072,0.144h0.144
		c0.096,0,0.144-0.047,0.144-0.144V90.119z M160.732,98.506v0.286l-0.788,0.144l-0.646,0.717v1.146l0.359,0.574h-0.287l-0.287-0.431
		l-0.716,0.359l0.142,0.645l0.287,0.358l-0.501,0.072l-0.358-0.501c0-0.047-0.119,0-0.357,0.144l-0.144,0.43l-0.144-0.358
		l-0.431,0.072l-0.215,0.286h-0.717l-0.072-0.144l0.216-0.143l-0.216-1.076l-0.573,0.072l-0.144,0.501l-0.144-0.143l-0.071-1.291
		l-0.287-0.214l-0.215-0.717h-0.646l0.144,0.501l-0.215,0.717l-0.072-0.287l-0.143-0.143l0.215-0.789l-0.287-0.215l0.502-0.789
		l0.646-0.144v-0.072l-0.071-1.003L154.997,97h0.072v-0.072L155.571,97h0.071l-0.358,0.287v0.287l0.072,0.215l0.215,0.215
		l1.577,0.072v-0.717l-0.358-0.215h0.789l-0.287,0.215v0.645h1.433l0.43-0.143h-0.071v-0.43l-0.431-0.789h0.431l0.144-0.144
		l0.502,0.215l0.216,1.004L160.732,98.506z M172.201,97.144l-0.285-1.577c0.382,0.621,0.525,1.29,0.429,2.007
		C172.298,97.574,172.249,97.431,172.201,97.144z M173.563,96.498l0.071,0.072c0.05,0.048,0.144,0.311,0.287,0.789
		c0,0.048,0.05,0.119,0.144,0.215l0.072,0.144c-0.049,0.047-0.166,0.072-0.359,0.072c-0.144-0.621-0.237-1.028-0.286-1.219
		C173.492,96.523,173.517,96.498,173.563,96.498z M170.983,97.717c-0.048-0.43-0.144-0.86-0.287-1.29
		c0.19,0.333,0.31,0.764,0.358,1.29C171.006,97.765,170.983,97.765,170.983,97.717z M154.065,87.037l0.431-0.287l0.357,0.072
		l-1.003,0.789l-0.216-0.359v-0.143L154.065,87.037z M154.496,88.542l0.501,0.214l0.144,1.004l0.789,0.717v0.358l-0.789,0.072
		l-0.573,0.717v1.219l0.358,0.573h-0.287l-0.286-0.501l-0.789,0.43l0.144,0.717l0.287,0.215l-0.502,0.143l-0.287-0.501l-0.431,0.144
		l-0.07,0.358l-0.144-0.286h-0.503l-0.143,0.286h-0.717l-0.071-0.143l0.144-0.144l-0.144-1.076l-0.646,0.072l-0.071,0.573
		l-0.144-0.143l-0.072-1.291l-0.287-0.286l-0.214-0.646l-0.646,0.072l0.143,0.43l-0.214,0.717l-0.072-0.287l-0.215-0.143
		l0.215-0.646l-0.287-0.287l0.431-0.86l0.717-0.215v-0.932l0.502-0.144h0.645l-0.358,0.286v0.215l0.071,0.287l0.216,0.215
		l-0.358,0.071v0.789l0.215,0.144v0.358l0.502,0.143v0.359l0.43,0.215l0.144,0.573l0.215,0.072l-0.071,0.072h0.143v0.43l0.431,0.358
		l0.573-0.071l0.358-0.431l0.144-0.358c0.003-0.099,0.026-0.17,0.071-0.215l0.287-0.43l0.072-0.717l0.573-0.072l0.071-1.29
		l-0.286-0.144l-0.86,1.003l-0.144,0.072l-0.574-0.646h-0.573l-0.357,0.789c0,0.047-0.072,0.047-0.216,0l-0.645-0.717l-0.144-0.287
		h1.577V89.33l-0.431-0.143h0.86l-0.286,0.143v0.718h1.361l0.431-0.144v-0.502l-0.431-0.717h0.431L154.496,88.542z M152.417,87.395
		l0.144,0.215l0.573,0.072v0.072l0.071,0.072l-1.721,0.071v-0.214l0.646-0.072l0.071-0.215H152.417z M152.488,86.821l0.573,0.287
		l-0.501,0.072L152.488,86.821z M153.563,90.405v-0.072c0-0.095-0.047-0.144-0.144-0.144h-0.143c-0.048,0-0.072,0.048-0.072,0.144
		v0.072c0,0.096,0.024,0.144,0.072,0.144h0.143C153.517,90.549,153.563,90.501,153.563,90.405z M151.484,87.251l0.646-0.43
		l-0.072,0.359L151.484,87.251z M150.481,87.896l-0.645-0.716l0.43,0.071l0.357,0.215l0.359,0.43H150.481z M149.907,92.055
		l-0.357,0.86l-0.359-0.144L149.907,92.055z M151.557,90.333c-0.048,0-0.072,0.025-0.072,0.072v0.072
		c0,0.096,0.024,0.144,0.072,0.144h0.144c0.096,0,0.144-0.048,0.144-0.144v-0.072c0-0.047-0.048-0.072-0.144-0.072H151.557z
		 M158.367,92.484l0.644-0.717l-0.286,0.932L158.367,92.484z M157.221,94.85l0.572,0.286h-0.501L157.221,94.85z M156.861,95.208
		l-0.574,0.072l0.574-0.43V95.208z M157.148,95.28l0.144,0.287l0.572,0.072v0.072l-1.577,0.072v-0.144l0.646-0.072V95.28H157.148z
		 M158.796,95.136l0.431-0.358l0.358,0.072l-1.004,0.717l-0.143-0.359L158.796,95.136z M155.428,95.352l0.286,0.501h-0.501
		l-0.574-0.645L155.428,95.352z M155.213,98.076v0.86l0.215,0.072l0.072,0.358l0.43,0.144v0.359l0.43,0.215l0.144,0.501l0.287,0.072
		l-0.144,0.214l0.144-0.072l0.071,0.431l0.359,0.287h0.572l0.358-0.359l0.144-0.43v-0.072l0.072-0.215l0.357-0.358l0.071-0.718
		l0.502-0.071l0.072-1.291l-0.216-0.143l-0.502,0.43l-0.357,0.645h-0.215l-0.501-0.717h-0.646l-0.359,0.86l-0.215-0.072
		l-0.646-0.645l-0.143-0.359L155.213,98.076z M153.922,100.729l0.717-0.645l-0.358,0.859L153.922,100.729z M158.008,98.147
		c-0.047,0-0.071,0.047-0.071,0.144v0.144c0,0.095,0.024,0.143,0.071,0.143h0.144c0.144,0,0.216-0.048,0.216-0.143v-0.144
		c0-0.096-0.072-0.144-0.216-0.144H158.008z M156.217,98.363v0.144c0,0.095,0.047,0.143,0.143,0.143h0.071
		c0.096,0,0.144-0.048,0.144-0.143v-0.144c0-0.096-0.048-0.144-0.144-0.144h-0.071C156.264,98.219,156.217,98.267,156.217,98.363z
		 M198.08,87.968l-1.434,3.943c1.193-1.051,1.792-1.602,1.792-1.649c0.048,0.047,0.406,0.167,1.075,0.359l0.502,0.215
		c0.048,0,0.095,0,0.144,0c0.095,0.048,0.167,0.072,0.216,0.072l0.645,0.287c-0.191,0-1.649,0.239-4.373,0.717v0.072l-0.431-2.582
		l1.936-1.505L198.08,87.968z M193.922,89.545c0-0.095,0-0.19,0-0.286l-0.071-0.431l5.447,6.308v0.072l-2.149-0.717v-0.072
		l-0.646-2.365l-1.146,4.085l-0.501-2.438l1.647-1.648l-4.229,0.86l2.008-1.792l-0.287-1.219
		C193.945,89.76,193.922,89.641,193.922,89.545z M175.571,90.19l-0.071-1.003h0.213L175.571,90.19z M174.855,90.333
		c0.142,0.048,0.261,0.215,0.357,0.502c0,0.24-0.072,0.407-0.216,0.502c0.048-0.095,0.072-0.262,0.072-0.502
		C175.069,90.788,174.997,90.621,174.855,90.333z M177.221,90.477c-0.049,0.048-0.097,0-0.144-0.144
		c-0.049-0.286-0.072-0.478-0.072-0.573c0.048,0,0.095,0.048,0.144,0.144v0.215L177.221,90.477z M178.511,89.904h0.142v0.358
		c0,0.047-0.046,0.097-0.142,0.144V89.904z M176.574,91.911c0.146-0.146,0.24-0.265,0.287-0.359c0.048-0.143,0.072-0.287,0.072-0.43
		v-0.215l0.071,0.287c0.048,0.144,0.048,0.263,0,0.358c0,0.048-0.049,0.096-0.144,0.144
		C176.728,91.785,176.632,91.857,176.574,91.911z M178.652,91.911c-0.046-0.048-0.095-0.119-0.142-0.215l-0.144-0.144h0.214
		c0.144,0.096,0.215,0.215,0.215,0.359c0.049,0.144,0.026,0.311-0.071,0.501h-0.214C178.606,92.173,178.652,92.006,178.652,91.911z
		 M179.872,91.624c0.095,0,0.167,0,0.216,0l0.071,0.502l-0.215,0.143L179.872,91.624z M176.861,95.925
		c0.048,0,0.144,0.119,0.287,0.359c0.189,0.191,0.287,0.334,0.287,0.43c0.095,0.097,0.119,0.191,0.072,0.287
		c-0.05,0-0.17-0.167-0.359-0.502L176.861,95.925z M175.284,97.646c-0.144-0.048-0.215-0.095-0.215-0.143
		c0-0.048-0.048-0.287-0.144-0.717c-0.097-0.287-0.143-0.454-0.143-0.501c0.095-0.047,0.214,0.119,0.357,0.501l0.072,0.359
		C175.26,97.335,175.284,97.502,175.284,97.646z M175.356,99.796c-0.191,0.095-0.287,0.095-0.287,0L176,98.004
		c0.049,0,0,0.311-0.144,0.932C175.571,99.414,175.403,99.701,175.356,99.796z M176.646,98.936l0.144-0.43
		c0.095-0.717,0.144-1.1,0.144-1.147c0.095,0.812,0,1.481-0.287,2.007C176.598,99.366,176.598,99.223,176.646,98.936z
		 M178.867,96.284c0.05,0.096,0.144,0.573,0.287,1.434c0,0.047-0.047,0.072-0.144,0.072c0-0.048-0.022-0.144-0.071-0.287
		c0-0.191-0.022-0.358-0.072-0.502l-0.143-0.502c-0.046-0.143-0.072-0.238-0.072-0.286c0-0.048,0.026-0.072,0.072-0.072
		C178.773,96.14,178.822,96.188,178.867,96.284z M180.519,98.578c-0.049-0.43-0.097-0.717-0.144-0.86l-0.287-0.932
		c0.238,0.622,0.404,1.004,0.502,1.147c0.095,0.144,0.404,0.455,0.93,0.932h-0.285c-0.24,0-0.384,0-0.431,0
		s-0.097,0.023-0.144,0.072h-0.07L180.519,98.578z M187.686,99.509l0.071,0.574c0.192,0.095,0.527,0.286,1.005,0.573
		c0.238,0.095,0.669,0.263,1.288,0.501l3.37,0.287c0.623,0.095,1.148,0.263,1.577,0.501c0.287,0.239,0.55,0.525,0.788,0.86
		c0.623,0.286,1.314,0.478,2.079,0.573c0.527,0.048,1.29,0.096,2.295,0.144c0.335,0.096,0.405,0.239,0.216,0.43
		c-0.049,0.096-0.168,0.192-0.359,0.287c-0.238,0.191-0.597,0.287-1.076,0.287c-0.382,0-0.884-0.096-1.504-0.287
		c-0.718-0.191-1.124-0.262-1.22-0.215c0,0.144,0.12,0.359,0.358,0.646c0.238,0.239,0.525,0.43,0.861,0.573v1.505l-0.358,0.287
		l-0.287-0.215c0.19-0.287,0.215-0.669,0.071-1.146l-0.287-0.359c-0.144-0.096-0.287-0.144-0.431-0.144
		c-0.525-0.096-1.027-0.31-1.504-0.645h-0.287c-0.144,0.287-0.334,0.454-0.574,0.502h-0.717l-1.504-0.287c0-0.047,0-0.097,0-0.144
		c0-0.047,0-0.096,0-0.144l0.572-0.071c0.239,0.096,0.574,0.143,1.003,0.143v-0.574l1.005-0.072c-0.144-0.43-0.238-0.717-0.287-0.86
		c-0.144-0.239-0.453-0.406-0.933-0.501l-2.938,0.072v0.501c-0.431-0.047-0.909-0.072-1.435-0.072c-0.573,0-1.027,0.048-1.363,0.144
		c-0.619,0.191-1.025,0.287-1.217,0.287l-0.358-0.072c-0.097-0.048-0.144-0.095-0.144-0.144l0.071-0.215
		c0.622,0,1.051-0.047,1.29-0.143c0.144-0.048,0.335-0.12,0.573-0.215c0-0.095-0.023-0.168-0.072-0.215
		c-0.046-0.095-0.095-0.144-0.144-0.144c-0.285,0-0.619,0-1.001,0c-0.384,0-0.599,0-0.646,0c-0.525-0.191-0.789-0.31-0.789-0.358
		l-0.072-0.287l0.574,0.144c0.238,0,0.574,0,1.005,0c0.333,0,0.548-0.024,0.645-0.072l0.071-0.43
		c-0.047-0.096-0.071-0.191-0.071-0.287c-0.048-0.047-0.097-0.072-0.144-0.072c-0.048-0.047-0.216-0.072-0.501-0.072
		c-0.336-0.047-0.574-0.072-0.718-0.072c-0.144-0.047-0.263-0.143-0.358-0.286c0-0.048,0-0.168,0-0.359
		c0.144-0.047,0.31-0.119,0.502-0.214c0.191-0.144,0.335-0.287,0.431-0.431H187.686z"/>
	<path fill-rule="evenodd" clip-rule="evenodd" fill="#F8EC24" d="M163.6,86.462l0.574,0.072v0.215l-0.503,0.789v0.645l0.503,0.215
		l0.213,1.003l0.718,0.789l-0.789-0.789l-0.214-0.931l-0.502-0.215v0.144h-0.572l0.572,0.789v0.43l-0.501,0.144h-1.363v-0.645
		l0.358-0.215l-0.859,0.072l0.285,0.144l0.072,0.717l-1.576-0.072l-0.144-0.215l-0.071-0.286v-0.215l0.215-0.287l-0.502-0.072
		h-0.072l0.072-0.501l-0.718-0.932v-0.43h0.358l0.718,0.287l-0.861-0.215l0.646,0.717h0.431l-0.216-0.501l0.359,0.573l0.429-0.144
		h2.224l-0.144-0.501v-0.215l0.573-0.072L163.6,86.462z M168.475,90.19l1.362,0.646l0.429-0.358
		c0.144-0.095,0.336-0.191,0.574-0.287l2.293,1.578l1.65-0.144c-0.192,0.431-0.407,0.765-0.646,1.004
		c-0.334,0.191-0.789,0.358-1.362,0.501c0.325,0.615,0.661,1.093,1.003,1.434c0.124,0.11,0.242,0.206,0.359,0.287l0.431,0.072
		c0.429,0.047,0.764,0.095,1.003,0.143c0.097,0,0.19,0.024,0.285,0.072c0.144,0,0.241-0.023,0.287-0.072
		c0.192-0.095,0.527-0.143,1.005-0.143c0.189,0.047,0.406,0.047,0.645,0l0.431-0.287h0.501c0.192,0.095,0.383,0.144,0.573,0.144
		c0.097,0,0.24-0.048,0.431-0.144h0.861c0.43,0.144,0.813,0.144,1.146,0l0.646-0.43c0.144-0.144,0.263-0.215,0.359-0.215
		c0.094,0.047,0.19,0.144,0.287,0.287v1.29l-0.144,0.215c-0.144,0.238-0.216,0.382-0.216,0.43c0,0.048,0.022,0.096,0.072,0.144
		l0.144,0.143L182.812,97c0,0.047-0.144,0.263-0.431,0.645c-0.238,0.287-0.358,0.525-0.358,0.717
		c-0.095,0.621-0.072,1.003,0.071,1.146c0,0.048-0.022,0.095-0.071,0.144l-0.144,0.144c-0.046,0.287-0.046,0.549,0,0.789
		c0,0.047,0.024,0.095,0.071,0.144c0.049,0,0.097,0.023,0.144,0.071c0.049,0,0.049,0.287,0,0.86
		c-0.382,0.335-0.62,0.526-0.716,0.573c-0.24,0.192-0.455,0.455-0.646,0.789v0.717l-0.645,0.574l-1.148-0.431l0.071-0.143
		l0.718-1.147c0.095-0.287,0.119-0.764,0.072-1.434c-0.049-0.191-0.168-0.359-0.359-0.501c-0.094-0.096-0.237-0.168-0.431-0.215
		c-0.476,0.573-0.931,1.027-1.359,1.362c-0.05,0.334-0.121,0.55-0.216,0.645c-0.049,0.047-0.215,0.12-0.502,0.215l-0.144,0.501
		l-1.077-0.286c0-0.048,0.026-0.12,0.072-0.215c0.096-0.048,0.144-0.095,0.144-0.144c0.049-0.048,0.071-0.095,0.071-0.144
		c0-0.144,0-0.239,0-0.286l1.005-1.577c-0.431,0.095-0.74,0.119-0.933,0.072c-0.095,0-0.191-0.096-0.287-0.287
		c-0.189,0.24-0.357,0.359-0.501,0.359c-0.19,0-0.312-0.096-0.358-0.287c-0.191,0.191-0.312,0.287-0.357,0.287
		c-0.049,0.047-0.265,0.072-0.646,0.072c0,0.286-0.144,0.621-0.43,1.003c-0.335,0.431-0.525,0.717-0.574,0.86l-0.072,1.434
		c-0.046,0-0.142,0.047-0.285,0.144c-0.191,0.096-0.312,0.215-0.359,0.358l-1.146-0.287c0.049-0.382,0.167-0.693,0.359-0.932
		c0.144-0.239,0.215-0.382,0.215-0.43v-1.291c0-0.191,0.072-0.406,0.216-0.645l0.213-0.573c-0.142-0.095-0.237-0.167-0.285-0.215
		c-0.144-0.047-0.239-0.071-0.287-0.071c-0.192,0-0.431,0.095-0.718,0.286c-0.144,0.382-0.478,0.885-1.003,1.505
		c0.048,0.287,0.048,0.501,0,0.645c0,0.048-0.024,0.119-0.071,0.215c-0.048,0.096-0.072,0.191-0.072,0.286l-1.361-0.358
		c0.094-0.334,0.215-0.621,0.358-0.86l0.358-0.501c0.095-0.144,0.189-0.311,0.286-0.502c0.096-0.143,0.215-0.262,0.358-0.358
		c0-0.239,0-0.406,0-0.501c0.048-0.192,0.072-0.359,0.072-0.502v-0.573c-0.048-0.239-0.048-0.477,0-0.717
		c-0.24,0.096-0.384,0.023-0.431-0.215c0-0.096,0.119-0.262,0.358-0.501c-0.239,0.047-0.383,0-0.431-0.144
		c0-0.143,0.048-0.31,0.144-0.502l0.716-0.717c0.192-0.095,0.359-0.239,0.503-0.43c-0.287,0-0.477-0.024-0.574-0.072
		c-0.046-0.047-0.046-0.12,0-0.215c0.049-0.048,0.098-0.095,0.144-0.144c-0.238-0.047-0.357-0.119-0.357-0.214
		c-0.047-0.048-0.047-0.12,0-0.215c0.048-0.191,0.072-0.311,0.072-0.359c-0.717,0.096-1.172,0.12-1.362,0.072
		c-0.144-0.047-0.192-0.263-0.144-0.645c0-0.047,0.047-0.191,0.144-0.43c0.19-0.287,0.31-0.478,0.358-0.573
		c0.144-0.431,0.238-0.765,0.287-1.004c-0.431-0.287-0.718-0.597-0.86-0.932C168.163,90.621,168.236,90.382,168.475,90.19z
		 M121.593,93.488l-4.158-0.645l2.796-3.442l-0.359,2.438L121.593,93.488z M117.435,92.843l2.079,1.505l-0.287,2.437l-2.007-1.505
		l-2.581,1.076l0.431-2.725l-1.793-1.434l1.864,1.434l-0.431,2.653L117.435,92.843l-0.144,2.437l1.936,1.362L117.435,92.843z
		 M120.23,89.401l-2.51,1.004l-0.286,2.438l-1.505-4.015v-0.072c1.193,1.004,1.791,1.529,1.791,1.577l2.51-1.004V89.401z
		 M162.955,87.323l1.003-0.717l-0.287-0.072l-0.357,0.287l-0.502,0.072L162.955,87.323z M159.657,89.832l0.358-0.072l0.144,0.358
		l0.645,0.645l0.216,0.072l0.286-0.788l0.645-0.072l0.503,0.717l0.215-0.072l0.359-0.573l0.572-0.431l0.144,0.144l-0.072,1.291
		l-0.501,0.072l-0.071,0.717l-0.358,0.358c-0.046,0.094-0.07,0.165-0.072,0.215v-0.144l-0.933-0.072v-0.501l0.358-0.072
		c0.049,0,0.097-0.072,0.144-0.215l-0.215,0.143h-0.574l-0.357-0.071l0.144,0.143h0.357v0.502l-0.357,0.286l-0.287-0.072
		l-0.144-0.501l-0.501-0.215v-0.358l-0.358-0.143l-0.072-0.359l-0.215-0.143V89.832z M162.31,86.821v0.573l-0.646-0.072
		l-0.144-0.286h-0.144l-0.07,0.286l-0.573,0.072l-0.072,0.144v-0.573l0.574-0.072l0.071-0.287l-0.646,0.359v-0.072l0.788-0.431
		L162.31,86.821l-0.718-0.215l0.071,0.215H162.31z M165.104,90.19l0.072,0.502l0.287,0.43l0.071,0.43h-0.431l0.072,0.86h-0.503
		l-0.071,0.86H163.6v0.501l-0.286,0.359l-1.794,0.215l-0.5-0.144l-0.86-0.072v-0.215l-0.646-0.501l-0.718-0.144l-0.071-0.573
		l-0.501-0.072l-0.216-0.501l0.072,0.143l0.358-0.717l-0.287-0.43l0.716-0.072l0.144,0.645l0.287,0.287l0.072,1.29l0.215,0.144
		l0.072-0.573h0.646l0.072,1.003l-0.144,0.215l0.071,0.072h0.788l0.144-0.287h0.429l0.144,0.287l0.144-0.359l0.431-0.144
		l0.287,0.502l0.574-0.072l-0.358-0.287l-0.144-0.789l0.787-0.286l0.287,0.43h0.216l-0.287-0.501v-1.219l0.572-0.789l0.789-0.144
		V90.19z M159.801,94.778l0.071,0.286l-0.646,0.718l0.071,0.716l0.503,0.144l0.215,1.076l0.717,0.717l0.071,0.501l0.216,0.43
		l0.143,0.431l-0.43-0.072l0.071,0.932h-0.572l-0.072,0.789l-1.005,0.072v0.501l-0.287,0.43l-1.79,0.144l-1.291-0.144v-0.286
		l-0.646-0.502l0.144-0.501l0.573-0.072l0.216,1.076l-0.216,0.143l0.072,0.144h0.717l0.215-0.286l0.431-0.072l0.144,0.358
		l0.144-0.43c0.238-0.144,0.357-0.191,0.357-0.144l0.358,0.501l0.501-0.072l-0.287-0.358l-0.142-0.645l0.716-0.359l0.287,0.431
		h0.287l-0.359-0.574v-1.146l0.646-0.717l0.788-0.144v-0.286l-0.788-0.789l-0.216-1.004l-0.502-0.215l-0.144,0.144h-0.431
		l0.431,0.789v0.43h0.071l-0.43,0.143h-1.433v-0.645l0.287-0.215h-0.789l0.358,0.215v0.717l-1.577-0.072l-0.215-0.215l-0.072-0.215
		v-0.287L155.643,97h-0.071l-0.502-0.072l0.071-0.431l-0.788-1.003l0.071-0.359h0.358l0.646,0.144l0.43,0.645l0.359-0.143
		l0.07-0.502l0.574-0.072V94.85l-0.574,0.43v-0.072l0.79-0.573l0.787,0.501v0.502l-0.572-0.072l-0.144-0.287h-0.215v0.287
		l-0.646,0.072v0.144l1.577-0.072v0.072h0.645l-0.142-0.502v-0.144l0.429-0.072l0.431-0.358L159.801,94.778z M161.234,92.915v-0.287
		l0.429-0.359l1.005,0.215l-0.144,0.359l-0.287,0.43l-0.646,0.072L161.234,92.915z M171.558,92.269
		c-0.097-0.047-0.192-0.096-0.287-0.143c-0.097-0.048-0.191-0.072-0.287-0.072c-0.097,0-0.216,0.023-0.359,0.072
		c-0.19,0.047-0.31,0.095-0.358,0.143l0.431,0.144c0.096,0.144,0.166,0.215,0.215,0.215L171.558,92.269z M172.201,97.144
		c0.048,0.287,0.097,0.43,0.144,0.43c0.097-0.717-0.047-1.386-0.429-2.007L172.201,97.144z M173.492,96.57
		c0.049,0.191,0.143,0.598,0.286,1.219c0.193,0,0.311-0.024,0.359-0.072l-0.072-0.144c-0.094-0.096-0.144-0.167-0.144-0.215
		c-0.144-0.478-0.237-0.741-0.287-0.789l-0.071-0.072C173.517,96.498,173.492,96.523,173.492,96.57z M150.481,87.896h0.502
		l-0.359-0.43l-0.357-0.215l-0.43-0.071L150.481,87.896z M153.134,87.108v0.573l-0.573-0.072l-0.144-0.215h-0.216l-0.071,0.215
		l-0.646,0.072v-0.431l0.573-0.071l0.072-0.359l0.215-0.072l0.144,0.072l0.072,0.359l0.501-0.072l-0.573-0.287L153.134,87.108z
		 M155.069,86.75v0.287l-0.573,0.789l0.071,0.645l0.502,0.214l0.071,1.004l0.789,0.717l0.144,0.646l0.214,0.358l0.072,0.43
		l-0.43-0.072l0.144,0.932H155.5l-0.072,0.86h-1.004v0.501l-0.286,0.358l-1.793,0.215l-0.573-0.144l-0.717-0.072v-0.286
		l-0.717-0.431l-0.717-0.143l-0.144-0.645l-0.43-0.072l-0.071-0.287l0.214-0.717l-0.143-0.43l0.646-0.072l0.214,0.646l0.287,0.286
		l0.072,1.291l0.144,0.143l0.071-0.573l0.646-0.072l0.144,1.076l-0.144,0.144l0.071,0.143h0.717l0.143-0.286h0.503l0.144,0.286
		l0.07-0.358l0.431-0.144l0.287,0.501l0.502-0.143l-0.287-0.215l-0.144-0.717l0.789-0.43l0.286,0.501h0.287l-0.358-0.573v-1.219
		l0.573-0.717l0.789-0.072v-0.358l-0.789-0.717l-0.144-1.004l-0.501-0.214l-0.144,0.143h-0.431l0.431,0.717v0.502l-0.431,0.144
		h-1.361V89.33l0.286-0.143h-0.86l0.431,0.143v0.789h-1.577l0.144,0.287l0.645,0.717c0.144,0.047,0.216,0.047,0.216,0l0.357-0.789
		h0.573l0.574,0.646l0.144-0.072l0.86-1.003l0.286,0.144l-0.071,1.29l-0.573,0.072l-0.072,0.717l-0.287,0.43
		c-0.045,0.045-0.068,0.117-0.071,0.215c0-0.052,0-0.101,0-0.144l-0.932-0.144v-0.501l0.215-0.144c0.048,0,0.119-0.072,0.215-0.215
		l-0.215,0.144l-0.502,0.072l-0.501-0.072l0.214,0.144l0.431,0.072v0.43l-0.431,0.287l-0.071,0.072l-0.215-0.072l-0.144-0.573
		l-0.43-0.215v-0.359l-0.502-0.143v-0.358l-0.215-0.144v-0.789l0.358-0.071l-0.216-0.215l-0.071-0.287V89.33l0.358-0.286h-0.645
		l0.071-0.573l-0.717-0.932l0.072-0.43h0.357l0.646,0.286l0.431,0.573l0.357-0.072l2.223-0.071l-0.072-0.431v-0.144l0.216,0.359
		l1.003-0.789l-0.357-0.072H155.069z M170.983,97.717c0,0.047,0.022,0.047,0.071,0c-0.049-0.526-0.168-0.957-0.358-1.29
		C170.84,96.857,170.936,97.287,170.983,97.717z M149.55,92.915l0.357-0.86l-0.717,0.717L149.55,92.915z M157.221,94.85l0.071,0.286
		h0.501L157.221,94.85z M158.725,92.7l0.286-0.932l-0.644,0.717L158.725,92.7z M152.058,93.273v-0.43l0.503-0.287l0.932,0.215h0.071
		l-0.144,0.358l-0.358,0.431l-0.573,0.071L152.058,93.273z M158.796,95.136l-0.357,0.072l0.143,0.359l1.004-0.717l-0.358-0.072
		L158.796,95.136z M155.428,95.352l-0.789-0.144l0.574,0.645h0.501L155.428,95.352z M153.707,99.295l-0.215,0.789l0.143,0.143
		l-0.215-0.143l0.215-0.646l-0.286-0.358l0.502-0.86l0.717-0.144v0.072l-0.646,0.144l-0.502,0.789L153.707,99.295z M155.428,99.008
		l-0.215-0.072v-0.86l0.358-0.072l0.143,0.359l0.646,0.645l0.215,0.072l0.359-0.86h0.646l0.501,0.717h0.215l0.357-0.645l0.502-0.43
		l0.216,0.143l-0.072,1.291l-0.502,0.071l-0.071,0.718l-0.357,0.358l-0.072,0.215c0-0.048,0-0.096,0-0.144l-0.931-0.144v-0.358
		l0.287-0.144c0.045,0,0.094-0.072,0.142-0.215l-0.214,0.072l-0.502,0.072l-0.503-0.072l0.216,0.144l0.431,0.072v0.43l-0.431,0.287
		l-0.287-0.072l-0.144-0.501l-0.43-0.215v-0.359l-0.43-0.144L155.428,99.008z M155.141,101.66l-0.788-0.143l-0.144-0.574
		l-0.358-0.072l-0.144-0.358l0.215-0.717l-0.144-0.501h0.646l0.215,0.717l0.287,0.214l0.071,1.291L155.141,101.66z M157.793,101.517
		h-0.572l-0.359-0.287l-0.071-0.431l0.502-0.286l1.003,0.215l-0.144,0.43L157.793,101.517z M154.28,100.943l0.358-0.859
		l-0.717,0.645L154.28,100.943z M115.499,91.123l-0.071,0.071l2.007,1.649l-4.301-0.717l-0.072-0.072L115.499,91.123z
		 M199.514,90.621c-0.669-0.191-1.027-0.312-1.075-0.359c0,0.047-0.599,0.598-1.792,1.649c2.724-0.478,4.182-0.717,4.373-0.717
		l-1.937,1.649l0.215,2.293l-5.447-6.308l-0.072-0.144l2.438,0.717l0.431,2.582v-0.072l1.434-3.943l0.431,2.294L199.514,90.621z
		 M194.783,93.774l-2.582-0.859l2.008-1.792l-0.215-1.219l0.287,1.219l-2.008,1.792l4.229-0.86l0.646,2.365v0.072l-1.792,1.649
		l-0.072,0.072L194.783,93.774z M175.141,96.785c-0.144-0.382-0.263-0.549-0.357-0.501c0,0.047,0.046,0.214,0.143,0.501
		c0.096,0.431,0.144,0.669,0.144,0.717c0,0.048,0.071,0.095,0.215,0.143c0-0.143-0.024-0.311-0.071-0.501L175.141,96.785z
		 M177.148,96.284c-0.144-0.24-0.239-0.359-0.287-0.359l0.287,0.573c0.189,0.335,0.31,0.502,0.359,0.502
		c0.047-0.096,0.022-0.19-0.072-0.287C177.436,96.618,177.338,96.475,177.148,96.284z M195.356,96.14l1.146-4.085l-1.647,1.648
		L195.356,96.14z M175.356,99.796c0.047-0.096,0.215-0.383,0.5-0.86c0.144-0.622,0.192-0.932,0.144-0.932l-0.931,1.792
		C175.069,99.892,175.165,99.892,175.356,99.796z M178.867,97c0.05,0.144,0.072,0.311,0.072,0.502
		c0.049,0.143,0.071,0.239,0.071,0.287c0.097,0,0.144-0.024,0.144-0.072c-0.144-0.86-0.237-1.338-0.287-1.434
		c-0.045-0.096-0.094-0.144-0.143-0.144c-0.046,0-0.072,0.024-0.072,0.072c0,0.048,0.026,0.144,0.072,0.286L178.867,97z
		 M176.646,98.936c-0.049,0.287-0.049,0.43,0,0.43c0.287-0.525,0.382-1.195,0.287-2.007c0,0.048-0.049,0.43-0.144,1.147
		L176.646,98.936z M180.66,98.936c0.047-0.048,0.097-0.072,0.144-0.072s0.19,0,0.431,0h0.285c-0.525-0.477-0.835-0.789-0.93-0.932
		c-0.098-0.143-0.264-0.525-0.502-1.147l0.287,0.932c0.047,0.144,0.095,0.43,0.144,0.86l0.071,0.358H180.66z"/>
</g>
</svg>
