<?xml version="1.0" encoding="utf-8"?>
<!-- Generator: Adobe Illustrator 16.0.0, SVG Export Plug-In . SVG Version: 6.00 Build 0)  -->
<!DOCTYPE svg PUBLIC "-//W3C//DTD SVG 1.1//EN" "http://www.w3.org/Graphics/SVG/1.1/DTD/svg11.dtd">
<svg version="1.1" id="Layer_1" xmlns="http://www.w3.org/2000/svg" xmlns:xlink="http://www.w3.org/1999/xlink" x="0px" y="0px"
	 width="300px" height="300px" viewBox="0 0 300 300" enable-background="new 0 0 300 300" xml:space="preserve">
<g>
	<path fill-rule="evenodd" clip-rule="evenodd" fill="#ED2C3A" d="M167.348,101.682c0.041,0,0.08-0.02,0.119-0.06
		c0.358-0.258,0.814-0.784,1.371-1.578l-1.49-0.715V75.683c0.041-0.298,0.08-0.606,0.119-0.924c0.18-1.509,0.467-2.422,0.864-2.739
		c0.337-0.338,1.231-0.507,2.681-0.507c1.39-0.02,3.375-0.198,5.956-0.536l0.179-1.102l-3.99-2.175l5.838-1.488l-0.09-0.774
		c-1.43-0.655-3.147-0.814-5.152-0.477c-2.344,0.437-4.1,0.765-5.271,0.982c-0.1-1.311-0.149-2.005-0.149-2.085
		c-0.219-4.626-0.347-8.11-0.388-10.453c-0.078-4.13-0.078-7.614,0-10.453c0.041-3.396,0.557-8.379,1.549-14.951
		c0.715-4.586,3.336-8.18,7.863-10.781c1.607-0.913,3.455-1.132,5.539-0.655c1.926,0.357,3.564,1.291,4.914,2.8
		c1.568,1.608,2.65,3.574,3.246,5.896c0.357,1.569,0.625,3.832,0.805,6.791c0.158,1.688,0.069,4.537-0.269,8.547
		c-0.1,1.092-0.427,1.965-0.982,2.621c-1.211,1.271-1.718,3.147-1.52,5.629l1.638,17.959c0.14,1.727-0.158,2.918-0.893,3.573
		c-0.755,0.655-2.016,0.784-3.783,0.388c-0.496-0.08-1.2-0.119-2.113-0.119c-1.092-0.04-1.768-0.06-2.025-0.06l-0.238,0.655
		l6.403,3.663l-0.358,0.834l-4.943-1.579l-0.387,0.745c0.436,0.337,1.082,0.834,1.936,1.489c0.715,0.516,1.291,1.012,1.727,1.488
		c1.172,1.151,1.797,2.154,1.877,3.008c0.258,3.972,0.258,7.258,0,9.858c-0.258,3.574-1.002,6.78-2.233,9.619
		c-0.417,0.953-0.874,1.559-1.37,1.817c-0.596,0.277-1.4,0.258-2.412-0.06c-1.609-0.477-4.199-0.844-7.773-1.103
		c-0.438-0.079-1.022,0.03-1.758,0.328c-0.694,0.298-1.279,0.477-1.757,0.536c0.339,0.734,0.536,1.102,0.596,1.102
		c1.291,0.338,2.751,1.211,4.378,2.621c2.025,1.727,3.376,2.789,4.051,3.187c0.992,0.576,1.777,1.32,2.354,2.233
		c0.039,0.119,0.099,0.288,0.178,0.506c0.109,0.221,0.199,0.438,0.269,0.656c0.247,0.727,0.286,1.441,0.119,2.144
		c0,0.317-0.06,0.566-0.179,0.745c-1.152,3.336-1.896,5.44-2.234,6.313c-0.913,2.323-1.787,4.328-2.62,6.016
		c-1.212,2.482-2.988,4.031-5.331,4.646c-1.668,0.437-3.286,0.348-4.855-0.269V101.682z M167.348,265.513v-72.638
		c1.49,0.118,2.88,0.228,4.17,0.327c1.152,0.119,2.611,0.506,4.379,1.161c0.912,0.397,2.293,0.982,4.139,1.757l2.919,1.132
		l0.596-0.536c-0.337-0.596-0.596-1.012-0.774-1.251c-0.317-0.476-0.645-0.813-0.982-1.013c-4.586-2.878-9.401-4.298-14.445-4.258
		v-5.867c0.318,0.219,0.686,0.367,1.104,0.446c0.694,0.179,1.657,0.07,2.888-0.327c8.876-2.562,15.716-4.239,20.521-5.033
		c4.686-0.834,8.577,0.238,11.674,3.216c1.311,1.212,2.115,2.571,2.413,4.08c0.317,1.311,0.347,2.859,0.089,4.646
		c-0.357,3.613-0.387,6.294-0.089,8.041c0.138,0.914,0.575,1.916,1.31,3.008c0.438,0.735,1.003,1.479,1.698,2.234
		c0.536,0.654,1.479,1.568,2.829,2.739c1.291,1.092,2.184,1.985,2.681,2.681c2.005,2.422,3.177,5.222,3.514,8.398
		c0.259,2.581-0.03,5.55-0.863,8.904c-0.338,1.172-0.924,2.69-1.757,4.558c-0.953,2.322-1.559,3.832-1.816,4.526
		c-0.834,2.422-2.035,6.017-3.604,10.781c-1.528,4.785-2.501,7.595-2.919,8.428c-2.58,6.274-6.721,10.385-12.419,12.33
		c-4.964,1.647-8.845,2.591-11.645,2.829C177.077,271.33,171.875,269.563,167.348,265.513z M167.348,180.782v-0.923
		c1.529-0.477,2.402-0.715,2.621-0.715c2.185-0.258,4.061-1.191,5.629-2.799c0.517-0.536,1.231-0.993,2.145-1.371
		c0.596-0.218,1.439-0.545,2.531-0.982c0.179-0.139,1.143-0.556,2.89-1.251c1.171-0.516,2.134-0.973,2.888-1.37
		c1.072-0.654,1.658-0.982,1.758-0.982c0.596-0.179,1.182,0.09,1.758,0.805c0.596,0.694,0.854,1.499,0.773,2.412
		c-0.079,0.953-0.406,1.599-0.982,1.936c-2.78,1.568-5.461,2.819-8.041,3.752c-0.914,0.339-2.234,0.775-3.961,1.311
		c-1.967,0.517-3.365,0.904-4.199,1.162c-1.43,0.516-2.621,0.646-3.574,0.388C168.788,181.974,168.043,181.518,167.348,180.782z
		 M167.348,172.027v-35.53c3.693,1.172,7,2.482,9.918,3.931c4.11,2.006,6.791,5.461,8.041,10.364
		c1.092,4.805,0.447,9.113-1.936,12.926c-0.873,1.351-2.035,2.81-3.484,4.378c-0.814,0.754-2.203,2.045-4.17,3.871
		c-0.396,0.358-0.982,0.616-1.757,0.774c-0.794,0.1-1.449,0.1-1.966,0C170.604,172.345,169.057,172.106,167.348,172.027z
		 M245.854,174.647c0.397-0.179,1.231,0.06,2.502,0.715l0.982-1.846c0.438-0.695,0.735-1.281,0.894-1.758
		c2.7-10.007,9.609-15.536,20.729-16.589c4.706-0.437,8.487,0.021,11.347,1.37c2.581,1.271,4.785,3.494,6.612,6.671
		c0.516,0.993,1.102,2.651,1.757,4.975v2.293c-1.172,4.745-2.958,8.349-5.36,10.811c-2.383,2.581-4.389,4.547-6.017,5.896
		c-2.303,1.926-4.666,3.425-7.088,4.498c-3.098,1.27-7.693,3.404-13.789,6.402c-0.755,0.298-1.648,0.805-2.681,1.52
		c-1.311,0.913-2.313,1.588-3.008,2.024l-3.991-9.56l-0.654,0.029c-0.08,0.259-0.189,0.666-0.328,1.222
		c-0.04,0.437-0.06,0.784-0.06,1.042c0.179,3.613-1.022,6.294-3.604,8.041h-0.119c-2.442,1.568-4.884,3.484-7.326,5.748
		c-2.482,2.343-4.726,4.735-6.731,7.178c-1.092,1.409-2.313,2.114-3.662,2.114c-1.431,0.079-2.661-0.556-3.693-1.906
		c-3.058-3.971-4.189-8.349-3.396-13.134c0.119-0.694,0.269-1.43,0.446-2.203c0.397-1.489,1.381-2.89,2.949-4.199
		c4.467-3.614,8.795-5.878,12.984-6.791c1.013-0.179,1.797-0.596,2.354-1.25c0.437-0.656,0.694-1.55,0.773-2.681
		c0.061-0.596,0.189-1.351,0.388-2.264c0.317-0.973,0.496-1.718,0.536-2.234l0.834,0.119l1.251,1.906
		c0.874-0.615,1.588-1.489,2.144-2.621c0.357-0.694,0.666-1.756,0.924-3.187C245.01,175.65,245.377,174.866,245.854,174.647z"/>
	<path fill-rule="evenodd" clip-rule="evenodd" fill="#FFFFFF" d="M106.028,188.109c0.376-0.1,0.744-0.189,1.102-0.269
		c1.688-0.357,3.425-0.646,5.212-0.863c0.913-0.04,1.876-0.298,2.889-0.774c9.629-4.13,21.76-7.684,36.393-10.662
		c1.549-0.258,3.872-0.516,6.97-0.774c1.171-0.119,2.442-0.208,3.812-0.268c0.596,0,1.33,0.05,2.204,0.148
		c0.477,0.139,1.222,0.269,2.233,0.388l0.119,0.833c-0.773,0.755-1.359,1.351-1.757,1.787c-0.695,0.655-1.33,1.191-1.906,1.608
		c-1.906,1.132-3.474,2.075-4.705,2.829c-1.906,1.132-3.058,1.787-3.455,1.966c-3.058,1.827-5.817,3.326-8.279,4.497
		c-1.231,0.576-2.909,1.033-5.033,1.37c-2.919,0.357-4.666,0.615-5.241,0.774c-2.443,0.655-6.423,1.707-11.943,3.157
		c-0.755,0.218-1.39,0.646-1.906,1.28l6.79-0.507l0.12,0.983c-2.998,1.906-6.473,3.077-10.424,3.515
		c-2.7,0.317-6.383,0.347-11.049,0.089c0.437,0.695,0.983,1.172,1.638,1.43c0.655,0.258,1.628,0.427,2.919,0.506
		c7.107,0.14,14.057-1.638,20.847-5.331c0.655-0.317,1.489-0.675,2.501-1.072c0.596-0.198,1.479-0.496,2.651-0.893l0.476,0.715
		c-3.435,4.269-5.479,6.75-6.135,7.445c-0.04,0.139-0.129,0.268-0.268,0.387c-4.269,4.925-7.366,9.938-9.292,15.04
		c-0.159,0.517-0.327,1.142-0.506,1.876l-0.388,1.906l0.596,0.269l0.953-1.519c3.395-6.791,7.366-12.647,11.913-17.572
		c0.556-0.516,1.053-1.022,1.489-1.519c2.601-2.601,5.371-4.1,8.309-4.497c0.913-0.179,1.737-0.725,2.472-1.639
		c1.271-1.688,2.918-2.491,4.943-2.412c1.351,0.04,3.117,0.09,5.302,0.149c1.171,0.039,2.442,0.079,3.812,0.119
		c1.768,0.079,3.415,0.169,4.943,0.269v72.638c-1.826-1.648-3.543-3.634-5.151-5.957c-1.569-2.342-2.771-4.734-3.604-7.177
		c-1.529-4.487-1.916-9.213-1.161-14.177c0.218-0.913,0.258-1.757,0.119-2.531c-0.08-0.179-0.169-0.427-0.269-0.744
		c-0.338-0.397-0.546-0.616-0.626-0.655c-0.654,0.694-1.031,1.111-1.131,1.251c-0.259,0.615-0.348,1.221-0.269,1.816
		c0.1,1.886,0.238,4.695,0.417,8.429c0.219,3.236,0.496,5.985,0.834,8.249c0.357,2.482,1.053,4.745,2.085,6.79
		c0.973,1.906,2.243,3.584,3.812,5.033l1.668,2.145h-14.086c0.079-0.119,0.506-0.705,1.28-1.757c0.397-0.616,0.686-1.092,0.864-1.43
		c0.099-0.317,0.149-0.695,0.149-1.132c0.158-0.655,0.238-1.063,0.238-1.221c-0.518,0-0.884,0-1.103,0
		c-0.437,0-0.784,0.079-1.042,0.237c-4.448,2.661-7.783,4.696-10.007,6.105c-0.377,0.298-0.813,0.814-1.311,1.549
		c-0.555,0.834-0.982,1.38-1.28,1.639c-1.569,1.489-2.77,2.402-3.604,2.739c-8.935,2.78-16.757,3.197-23.468,1.251
		c-1.25-0.357-2.442-0.774-3.574-1.251c-0.357-0.179-0.725-0.347-1.102-0.506V188.109z M167.348,101.682v30.109
		c-0.555-0.218-1.102-0.506-1.638-0.863c-2.203-1.549-3.306-4.11-3.306-7.684c0.041-2.581,0.209-5.55,0.507-8.905
		c0.079-0.684,0.163-1.398,0.253-2.144c0.043-0.38,0.088-0.767,0.134-1.162c0-0.218,0-0.417,0-0.596
		c0.04-0.654,0.259-1.42,0.655-2.293c0.396-1.171,0.655-1.956,0.774-2.353c0.06-0.397,0.089-0.894,0.089-1.489
		c-0.059-0.615-0.089-1.122-0.089-1.519c0.317-0.119,0.774-0.288,1.37-0.507C166.594,102.06,167.011,101.86,167.348,101.682z
		 M167.348,75.683v23.646l-0.387-0.208c-0.437-0.08-0.942-0.159-1.519-0.239c0.238-5.459,0.486-9.619,0.745-12.479
		C166.306,84.835,166.693,81.262,167.348,75.683z M126.011,10.608l2.621,1.072c3.117,1.291,4.924,3.177,5.42,5.659
		c1.429,6.195,2.64,12.072,3.633,17.631c0.357,2.224,0.774,5.599,1.251,10.126c0.576,3.931,1.34,7.207,2.293,9.828
		c0.655,1.688,0.07,2.701-1.757,3.038c-1.926,0.317-3.365,0.566-4.318,0.744c-1.747,0.298-3.146,0.705-4.199,1.222
		c-1.112,0.437-2.343,1.24-3.693,2.412c-1.529,1.311-2.69,2.233-3.484,2.77c-0.119,0.219-0.208,0.517-0.268,0.894
		c0,0.477,0.03,0.745,0.09,0.805c0.853,0.635,1.607,0.893,2.263,0.773c1.787-0.218,4.467-0.635,8.041-1.25
		c2.184-0.338,4.278-0.447,6.284-0.328c0.376,0.06,0.764,0.219,1.162,0.477c0.476,0.417,0.734,0.784,0.774,1.102
		c0.496,2.344,1.37,5.828,2.621,10.454c0.913,4.169,1.201,7.803,0.863,10.9c-0.179,2.264-0.506,4.328-0.982,6.194
		c-0.298,1.668-1.39,2.412-3.276,2.233c-0.437-0.079-1.023-0.079-1.757,0c-0.774,0.08-1.36,0.119-1.757,0.119l-0.149,0.923
		c0.357,0.14,0.864,0.298,1.519,0.477c0.596,0.219,1.093,0.349,1.489,0.388c1.867,0.337,3.127,0.834,3.783,1.489
		c0.695,0.655,1.151,1.826,1.37,3.515c0.278,2.581,0.457,4.834,0.537,6.76c0,0.405-0.005,0.792-0.015,1.162
		c-0.018,0.699-0.053,1.334-0.104,1.906c0,0.079,0,0.158,0,0.237c-0.357,3.495-1.34,6.592-2.948,9.293
		c-2.998,4.744-6.413,5.201-10.245,1.369c-3.355-3.236-5.619-6.79-6.79-10.662c-0.237-0.684-0.426-1.398-0.566-2.144
		c-0.073-0.38-0.132-0.767-0.179-1.162c-0.258-1.409-0.357-2.868-0.298-4.378c0.079-3.494,1.559-5.848,4.437-7.059
		c0.656-0.258,1.479-0.843,2.472-1.757l-0.476-0.685l-2.413,0.327l0.03-1.995l-1.013-0.09c-0.477,0-0.844,0.03-1.102,0.09
		c-0.119,0.079-1.251,0.506-3.396,1.28c-1.787,0.715-2.849,0.04-3.187-2.024l-3.723-22.248v-0.863
		c0.477-3.753,0.258-8.2-0.655-13.342c-1.271-5.778-2.144-10.126-2.621-13.045c-0.833-4.845-1.34-8.657-1.519-11.437
		c-0.337-4.189-0.248-8.041,0.269-11.555c0.834-4.964,3.911-8.577,9.232-10.841l1.697-0.804H126.011z M106.028,185.757v-39.015
		c0.376,0.039,0.744,0.089,1.102,0.148c2.958,0.298,5.529-0.298,7.713-1.786c5.957-3.911,9.55-6.255,10.781-7.028
		c1.291-0.755,2.918-1.52,4.884-2.294c1.171-0.477,2.065-0.546,2.68-0.208c2.006,0.734,5.142,1.32,9.411,1.757
		c4.169,0.396,7.257,1.012,9.262,1.847c1.093,0.377,2.572,0.894,4.438,1.548c0.179,0.061,0.467,0.09,0.864,0.09
		c0.14,0,0.397,0,0.774,0c0.06-0.913-0.029-1.528-0.269-1.847c-0.079-0.119-0.833-1.161-2.263-3.127
		c0.992-0.437,2.055-0.715,3.187-0.834c1.747-0.218,3.663-0.029,5.747,0.566c1.014,0.298,2.016,0.605,3.008,0.923v35.53
		c-1.171-0.04-2.393-0.021-3.662,0.06c-1.985,0.178-3.684,0.337-5.093,0.476c-1.251,0.08-2.313,0.14-3.187,0.179
		c-8.141,0.517-15.963,2.135-23.468,4.854l-13.194,5.093c-3.792,1.43-7.028,2.294-9.708,2.592c-0.576,0.039-1.211,0.128-1.906,0.268
		C106.772,185.627,106.404,185.696,106.028,185.757z M167.348,179.859v0.923c-0.218-0.258-0.416-0.516-0.596-0.773
		C166.971,179.949,167.17,179.899,167.348,179.859z M167.348,184.327v5.867c-0.178,0-0.377,0-0.596,0
		c-0.873,0-2.223,0.069-4.05,0.208c-1.826,0.119-3.196,0.179-4.109,0.179h-0.06c-0.08,0-1.38-0.198-3.902-0.596
		c0.338-0.377,0.596-0.794,0.775-1.251l7.684-5.808c1.23-1.032,2.264-0.943,3.098,0.269
		C166.564,183.711,166.951,184.089,167.348,184.327z"/>
	<path fill-rule="evenodd" clip-rule="evenodd" fill="#293789" d="M105.164,118.33c0.437,3.355,0.218,6.492-0.655,9.411
		c-0.992,3.256-3.038,5.212-6.135,5.867c-0.178,0.02-0.376,0.05-0.595,0.089c-3.216,0.557-5.788-0.625-7.714-3.544
		c-2.084-3.097-3.514-5.4-4.288-6.909c-1.41-2.7-2.323-5.252-2.74-7.654c-0.06-0.396-0.089-0.813-0.089-1.251
		c0-0.516,0.029-1.141,0.089-1.876c0.014-0.091,0.029-0.18,0.045-0.268c0.07-0.414,0.154-0.802,0.253-1.162
		c0.06-0.654,0.129-1.201,0.208-1.638c0-0.139,0.218-1.142,0.655-3.008c-1.529,0.596-2.83,0.486-3.901-0.327
		c-0.675-0.517-1.38-1.479-2.114-2.89c-5.44-11.437-9.252-19.616-11.437-24.54c-1.549-3.614-1.311-6.989,0.715-10.126
		c0.496-0.755,0.933-1.847,1.31-3.276c0.397-1.747,0.725-3.058,0.983-3.931l-4.646,1.311c-1.43,0.476-2.442,0-3.038-1.43
		c-5.182-12.985-7.892-19.905-8.13-20.758c-0.854-2.065-1.311-4.527-1.37-7.386c-0.199-4.844,2.223-8.14,7.267-9.887
		c1.688-0.596,3.693-0.566,6.016,0.089c2.342,0.655,4.06,1.698,5.152,3.127c6.195,7.743,9.918,17.264,11.168,28.561
		c0,0.557-0.04,1.251-0.119,2.085c-0.06,0.437-0.149,1.172-0.268,2.204c-2.522,0.139-4.368,0.377-5.54,0.715
		c-1.886,0.615-3.346,1.638-4.378,3.067l0.388,0.863l6.79-1.905l0.239,0.655c-2.204,1.052-3.464,1.667-3.782,1.846
		c-2.264,1.251-4.18,2.423-5.748,3.515c-0.179,0.179-0.347,0.526-0.506,1.042c-0.041,0.259-0.129,0.655-0.269,1.191l1.042-0.208
		c0.477-0.08,0.804-0.169,0.982-0.269c1.926-1.171,4.845-3.018,8.756-5.539c2.045-1.311,4.239-1.003,6.582,0.923
		c2.502,2.085,4.289,5.222,5.361,9.411c0.437,2.025,1.032,4.874,1.787,8.548c0.814,3.911,1.44,6.7,1.876,8.368
		c0.258,1.172,0.219,2.104-0.119,2.8c-0.357,0.655-1.062,1.182-2.114,1.578c-1.767,0.557-3.117,1.162-4.05,1.817
		c-1.251,0.913-2.165,2.084-2.74,3.515l-0.506,1.638c0.834-0.338,1.748-0.686,2.74-1.043c1.608-0.992,3.961-2.402,7.059-4.229
		c0.615-0.278,1.528-0.288,2.739-0.03c0.08,0,0.149,0,0.209,0c-0.06,0.02-0.129,0.05-0.209,0.09
		c-4.745,1.727-8.646,5.013-11.704,9.857c-0.16,0.14-0.239,0.438-0.239,0.894l-0.089,1.638c3.097-2.203,4.845-3.464,5.242-3.782
		c2.958-2.303,5.222-3.236,6.79-2.799c0.041,0,0.08,0,0.12,0c1.528,0.357,2.948,2.332,4.259,5.926
		c0.179,0.576,0.357,1.152,0.536,1.728c0.141,0.396,0.275,0.782,0.402,1.162c0.256,0.745,0.49,1.46,0.7,2.144
		C104.727,115.828,104.985,117.158,105.164,118.33z M13.584,71.751c1.926-0.734,3.891-0.734,5.896,0
		c2.025,0.695,3.673,1.985,4.944,3.871c1.827,2.602,3.782,5.798,5.867,9.59c3.097,5.58,6.413,9.759,9.947,12.539
		c5.361,4.269,9.172,8.696,11.436,13.282c0,0.119,0.04,0.249,0.119,0.388c0.139,0.257,0.284,0.515,0.433,0.774
		c0.405,0.703,0.846,1.418,1.325,2.144c0.496,0.755,1.112,1.539,1.847,2.354c0.774,0.873,2.233,2.353,4.377,4.438
		c5.222,5.182,9.332,11.545,12.33,19.09c1.27,3.355,1.32,6.234,0.149,8.637c-0.934,2.025-2.393,3.256-4.378,3.693
		c-1.846,0.396-3.543-0.188-5.093-1.758c-1.568-1.528-3.355-3.504-5.361-5.927c-2.322-2.7-4.07-4.755-5.241-6.164
		c-1.688-2.422-2.949-4.22-3.782-5.391c-0.695-1.093-1.003-1.986-0.924-2.681c0.041-0.655,0.546-1.489,1.52-2.502
		c0.396-0.476,1.201-1.588,2.412-3.336l-0.774-0.893l-1.459,0.893c-0.596,0.318-1.023,0.646-1.281,0.983
		c-1.449,1.311-2.74,2.025-3.872,2.145c-1.092,0.139-2.482-0.288-4.169-1.28c-3.931-2.104-7.118-5.044-9.56-8.815
		c-0.735-1.093-1.41-2.254-2.025-3.485c-0.368-0.684-0.711-1.398-1.027-2.144c-0.161-0.38-0.314-0.767-0.462-1.162
		c-0.655-1.667-1.241-3.454-1.757-5.36c-0.099-0.496-0.06-1.201,0.119-2.114c0.397-1.43,0.596-2.165,0.596-2.204
		c0.04-0.219,0-0.834-0.119-1.847c-0.317,0.179-0.566,0.298-0.745,0.357c-0.338,0.119-0.576,0.288-0.715,0.506
		c-0.953,1.271-1.628,1.906-2.025,1.906c-0.437-0.06-1.022-0.765-1.757-2.114c3.098-2.045,4.815-3.217,5.153-3.515
		c0.258-0.099,0.417-0.357,0.476-0.774c0.08-0.496,0.139-0.843,0.179-1.042c-0.436,0-0.754,0-0.953,0
		c-0.397-0.06-0.725-0.02-0.983,0.119c-0.396,0.119-1.012,0.407-1.846,0.863c-0.774,0.457-1.379,0.774-1.816,0.953
		c-1.41,0.477-2.521,0.586-3.336,0.328c-0.874-0.338-1.588-1.161-2.144-2.472c-0.615-1.43-2.422-5.867-5.42-13.313l-0.358-0.864
		v-3.187c0.656-1.568,1.162-2.621,1.519-3.157C11.579,72.972,12.493,72.188,13.584,71.751z M106.028,274.209
		c-2.84-1.351-5.391-3.117-7.655-5.302c-1.052-1.013-2.055-2.124-3.008-3.335c-2.402-2.919-4.537-6.691-6.403-11.317
		c-2.006-5.381-3.524-9.432-4.557-12.151l-13.014-33.444c-0.437-1.251-0.824-2.938-1.162-5.063c-0.06-0.396-0.129-0.794-0.208-1.191
		c-0.774-3.932-1.291-6.939-1.549-9.023c-0.576-3.951-0.774-7.406-0.596-10.364c0.159-2.264,0.268-3.426,0.328-3.484
		c0.119-1.351,0.377-2.482,0.774-3.396c1.568-3.613,4.249-9.312,8.042-17.095c0.437-0.755,1.151-1.459,2.144-2.114
		c1.489-0.993,3.752-2.512,6.791-4.557c2.661-1.747,4.993-3.137,6.999-4.17c1.708-0.873,3.514-1.449,5.42-1.728
		c2.264-0.377,4.657-0.327,7.178,0.149c0.179,0.039,0.338,0.079,0.477,0.119v39.015c-0.656,0.158-1.331,0.347-2.026,0.565
		c-2.263,0.755-3.941,1.33-5.033,1.728c-0.178,0.079-0.377,0.158-0.596,0.238c-4.487,1.409-9.143,2.979-13.968,4.705
		c-1.151,0.397-1.936,0.725-2.352,0.983c-0.755,0.516-1.132,1.26-1.132,2.233c0.059,0.953,0.437,1.757,1.132,2.412
		c0.734,0.517,1.578,0.774,2.531,0.774c5.023,0.258,9.619-0.308,13.789-1.697c2.661-0.913,5.143-2.154,7.446-3.723
		c-3.098,0.654-5.579,1.151-7.446,1.488c-0.357,0.06-0.685,0.109-0.982,0.149c-3.355,0.596-6.254,0.635-8.696,0.119
		c3.614-2.264,5.55-3.475,5.807-3.634c1.231-0.615,2.522-1.182,3.872-1.697c2.402-0.933,4.955-1.697,7.655-2.293V274.209z"/>
</g>
</svg>
