<?xml version="1.0" encoding="utf-8"?>
<!-- Generator: Adobe Illustrator 16.0.0, SVG Export Plug-In . SVG Version: 6.00 Build 0)  -->
<!DOCTYPE svg PUBLIC "-//W3C//DTD SVG 1.1//EN" "http://www.w3.org/Graphics/SVG/1.1/DTD/svg11.dtd">
<svg version="1.1" id="Layer_1" xmlns="http://www.w3.org/2000/svg" xmlns:xlink="http://www.w3.org/1999/xlink" x="0px" y="0px"
	 width="300px" height="300px" viewBox="0 0 300 300" enable-background="new 0 0 300 300" xml:space="preserve">
<g>
	<path fill="#ED2C3A" d="M99.809,61.518c9.576-9.569,21.132-14.354,34.667-14.354s25.086,4.785,34.655,14.354
		c9.577,9.576,14.365,21.132,14.365,34.667c0,6.555-1.123,12.646-3.367,18.27c-0.171,0.428-0.348,0.854-0.533,1.277
		c-2.391,5.491-5.879,10.528-10.465,15.109c-9.568,9.576-21.121,14.365-34.655,14.365c-13.534,0-25.09-4.789-34.667-14.365
		c-4.583-4.582-8.067-9.618-10.455-15.109c-0.184-0.423-0.361-0.849-0.532-1.277c-2.245-5.625-3.368-11.715-3.368-18.27
		C85.455,82.649,90.239,71.094,99.809,61.518z"/>
	<path fill="#010101" d="M99.085,211.771c0.019-0.037,0.046-0.064,0.083-0.082c0.074-0.02,0.12-0.037,0.139-0.057
		c0.019-0.035,0.019-0.064,0-0.083c-0.056-0.056-0.148-0.063-0.277-0.026c-0.111,0.056-0.175,0.156-0.194,0.304
		c0,0.13,0.055,0.194,0.166,0.194c0.037,0,0.065-0.01,0.083-0.027c0.019-0.037,0.019-0.074,0-0.111
		C99.049,211.864,99.049,211.827,99.085,211.771z M136.216,71.906c0.074-0.775,0.23-1.375,0.471-1.799
		c0.221-0.443,0.572-0.785,1.052-1.024c0.221-0.129,0.406-0.249,0.553-0.36c0.148-0.129,0.23-0.23,0.25-0.305
		c0.018-0.092,0.074-0.212,0.166-0.359c0.111-0.166,0.23-0.314,0.359-0.443l0.443-0.526l-0.083-2.076
		c-0.019-0.554-0.028-1.042-0.028-1.467c0-0.425,0.009-0.655,0.028-0.692c0.11-0.092,0.387-0.037,0.83,0.166
		c0.461,0.222,0.969,0.553,1.522,0.997c0.277,0.221,0.646,0.461,1.107,0.719c0.461,0.258,0.738,0.526,0.831,0.803
		c0.092,0.259,0.11,0.416,0.055,0.471c-0.074,0.055-0.24,0.028-0.498-0.083c-0.295-0.129-0.554-0.175-0.775-0.139
		c-0.203,0.019-0.683-0.138-1.439-0.47c-0.775-0.332-1.163-0.563-1.163-0.692c0-0.167,0.102-0.231,0.305-0.194
		c0.185,0.019,0.443,0.147,0.775,0.387c0.461,0.333,0.922,0.517,1.384,0.554c0.461,0.019,0.692,0,0.692-0.055
		c0-0.055-0.212-0.24-0.636-0.554l-1.218-0.803c-0.166-0.111-0.341-0.212-0.525-0.304c-0.222-0.074-0.388-0.111-0.499-0.111h-0.443
		l0.138,3.598l0.526,0.554c0.387,0.388,0.581,0.627,0.581,0.719c0,0.056,0.064,0.148,0.194,0.277
		c0.129,0.111,0.286,0.231,0.471,0.36c0.516,0.351,0.867,0.775,1.052,1.273c0.185,0.461,0.276,1.172,0.276,2.131
		c0,0.701,0.019,1.125,0.056,1.273c0.019,0.147,0.101,0.222,0.249,0.222c0.129,0,0.212-0.037,0.249-0.111
		c0.056-0.074,0.092-0.203,0.111-0.388c0.019-0.24,0.019-0.378,0-0.415c-0.019-0.019-0.083,0.019-0.194,0.111
		c-0.111,0.074-0.185,0.102-0.222,0.083c-0.018-0.019-0.018-0.129,0-0.332c0.037-0.24,0.139-0.369,0.305-0.388
		c0.147-0.019,0.387,0.074,0.72,0.277c0.147,0.092,0.24,0.194,0.277,0.305c0.037,0.11,0.037,0.313,0,0.609
		c-0.019,0.203-0.083,0.47-0.194,0.802c-0.111,0.333-0.231,0.637-0.36,0.914l-0.498,0.997l0.166,1.965
		c0.129,1.292,0.193,2.464,0.193,3.516c0,0.406,0.019,0.95,0.056,1.633s0.083,1.292,0.138,1.827
		c0.148,1.329,0.222,2.316,0.222,2.962s0.175,2.694,0.526,6.145c0.369,3.672,0.59,6.126,0.664,7.362
		c0.111,1.513,0.212,2.538,0.305,3.073c0.166,0.849,0.277,1.799,0.332,2.851c0.074,1.052,0.064,1.633-0.028,1.744
		c-0.11,0.129-0.212,0.194-0.304,0.194c-0.092,0-0.138-0.064-0.138-0.194c0-0.147-0.139-0.083-0.416,0.194
		c-0.129,0.129-0.23,0.259-0.305,0.388c-0.074,0.147-0.11,0.258-0.11,0.332c0.019,0.166,0.157,0.443,0.415,0.831
		c0.277,0.369,0.461,0.553,0.554,0.553c0.055,0,0.083-0.083,0.083-0.249c0.019-0.185,0.019-0.396,0-0.637
		c-0.037-0.332-0.037-0.572,0-0.719c0.019-0.148,0.074-0.259,0.166-0.333c0.147-0.129,0.24-0.11,0.277,0.056
		c0.055,0.147,0.129,0.673,0.222,1.578c0.074,0.793,0.359,3.22,0.858,7.279c0.258,2.177,0.461,3.709,0.609,4.595
		c0.129,0.867,0.24,1.329,0.332,1.384c0.074,0.037,0.111,0.074,0.111,0.111c0.019,0.037-0.009,0.074-0.083,0.111
		c-0.074,0.055-0.111,0.166-0.111,0.332s0.028,0.461,0.083,0.886l0.47,3.127c0.388,2.731,0.877,5.702,1.467,8.913
		c0.295,1.568,0.507,2.537,0.637,2.906c0.147,0.387,0.36,0.535,0.638,0.443c0.055-0.019,0.109,0.018,0.165,0.111
		c0.074,0.092,0.129,0.212,0.166,0.359c0.074,0.295,0.186,0.479,0.333,0.554c0.13,0.092,0.193,0.019,0.193-0.221
		c0-0.074,0.021-0.157,0.057-0.25c0.019-0.074,0.046-0.12,0.082-0.138c0.056-0.038,0.093-0.009,0.111,0.083
		c0.036,0.093,0.055,0.231,0.055,0.416c0,0.167,0.019,0.313,0.056,0.443c0.02,0.147,0.047,0.23,0.084,0.249
		c0.109,0.074,0.166-0.139,0.166-0.636c0-0.333,0.008-0.517,0.026-0.554c0.019-0.056,0.083-0.009,0.192,0.138
		c0.094,0.111,0.148,0.25,0.166,0.416c0.021,0.166,0.021,0.406,0,0.719c-0.055,0.499-0.035,1.089,0.058,1.771
		c0.093,0.683,0.212,1.163,0.358,1.439c0.148,0.314,0.222,0.553,0.222,0.719c-0.019,0.167-0.119,0.342-0.304,0.526
		c-0.11,0.129-0.186,0.305-0.223,0.526c-0.019,0.203-0.019,0.646,0,1.329c0.037,1.033,0.139,1.744,0.305,2.13
		c0.166,0.425,0.296,0.923,0.388,1.496c0.038,0.237,0.103,0.497,0.194,0.772c0.072,0.297,0.156,0.519,0.248,0.666
		c0.187,0.369,0.443,1.043,0.775,2.021c0.129,0.405,0.295,0.877,0.498,1.412c0.203,0.517,0.379,0.95,0.525,1.301
		c0.166,0.332,0.352,0.756,0.554,1.272c0.203,0.535,0.369,1.007,0.499,1.412c0.332,1.015,0.71,2.037,1.135,3.071
		c0.479,1.106,0.803,1.929,0.969,2.464c0.203,0.608,0.359,1.023,0.472,1.245c0.036,0.093,0.063,0.185,0.082,0.276
		c0,0.093-0.009,0.156-0.027,0.193c-0.037,0.057-0.047,0.094-0.026,0.11c0.018,0.019,0.055,0.027,0.11,0.027
		c0.056-0.019,0.138,0.073,0.248,0.276c0.111,0.223,0.229,0.508,0.358,0.857c0.277,0.813,0.5,1.385,0.666,1.717
		c0.109,0.221,0.212,0.352,0.304,0.389c0.073,0.035,0.224,0.035,0.442,0c0.203-0.037,0.332-0.047,0.389-0.028
		c0.092,0.019,0.138,0.073,0.138,0.166c0,0.073,0.011,0.129,0.028,0.166c0.037,0.056,0.072,0.083,0.109,0.083
		s0.074,0.019,0.111,0.056c0.018,0.019,0.027,0.056,0.027,0.111c0,0.036-0.01,0.055-0.027,0.055c-0.037,0.019-0.074,0.019-0.111,0
		s-0.072-0.019-0.109,0c-0.02,0.019-0.028,0.063-0.028,0.14c0,0.072-0.036,0.129-0.11,0.166c-0.056,0.056-0.138,0.082-0.248,0.082
		c-0.166,0-0.248,0.01-0.248,0.028s0.063,0.082,0.193,0.192c0.184,0.13,0.331,0.156,0.441,0.084
		c0.109-0.094,0.304-0.379,0.581-0.858c0.202-0.351,0.351-0.571,0.442-0.664c0.11-0.092,0.277-0.139,0.498-0.139
		c0.332,0,0.601,0.11,0.803,0.332c0.72,0.737,1.08,1.163,1.08,1.272c0,0.037,0.102,0.186,0.305,0.443
		c0.109,0.146,0.186,0.313,0.222,0.498c0.056,0.203,0.082,0.471,0.082,0.803c0,0.646,0.048,1.079,0.14,1.301
		c0.074,0.24,0.213,0.342,0.416,0.305c0.258-0.02,0.404,0.156,0.441,0.525c0.02,0.387-0.093,0.922-0.332,1.605
		c-0.146,0.461-0.24,0.857-0.275,1.189c-0.057,0.313-0.084,0.729-0.084,1.245c0.019,0.646,0.057,1.062,0.11,1.246
		c0.056,0.185,0.24,0.488,0.554,0.912c0.405,0.535,0.691,0.877,0.857,1.024c0.167,0.147,0.249,0.269,0.249,0.359
		c0,0.037,0.074,0.148,0.224,0.332c0.164,0.203,0.34,0.416,0.524,0.637c0.203,0.24,0.387,0.461,0.554,0.664
		c0.147,0.223,0.221,0.36,0.221,0.416c0,0.055,0,0.103,0,0.139c0.02,0.019,0.047,0.019,0.084,0c0.02-0.036,0.129,0.056,0.332,0.275
		c0.223,0.24,0.461,0.519,0.72,0.832c0.997,1.29,1.763,2.24,2.298,2.85c0.369,0.426,0.82,1.017,1.355,1.771
		c0.518,0.738,1.291,1.727,2.326,2.963c0.424,0.479,0.856,1.014,1.301,1.604c0.441,0.554,0.766,0.987,0.969,1.301
		c0.221,0.313,0.424,0.591,0.607,0.83c0.203,0.239,0.334,0.369,0.389,0.388c0.074,0.02,0.129,0.064,0.166,0.139
		c0.056,0.037,0.082,0.082,0.082,0.139c0,0.056,0.037,0.139,0.11,0.25c0.074,0.109,0.166,0.221,0.277,0.332
		c0.239,0.222,0.471,0.518,0.69,0.885c0.24,0.389,0.655,0.96,1.246,1.717c0.59,0.756,0.914,1.135,0.969,1.135
		c0.037,0,0.14,0.103,0.306,0.306c0.146,0.221,0.321,0.471,0.524,0.747c0.203,0.313,0.435,0.617,0.692,0.912
		c0.259,0.297,0.497,0.518,0.72,0.664c0.332,0.24,0.545,0.426,0.637,0.555c0.074,0.111,0.103,0.277,0.082,0.499
		c-0.018,0.313,0.048,0.554,0.195,0.719c0.129,0.166,0.351,0.25,0.664,0.25c0.275,0,0.553,0.12,0.829,0.359
		c0.276,0.258,0.435,0.534,0.472,0.829c0.019,0.26,0.295,0.555,0.83,0.887c0.96,0.628,1.237,0.997,0.831,1.107
		c-0.186,0.056-0.749,0.109-1.688,0.166c-1.348,0.093-2.538,0.185-3.57,0.275c-0.867,0.057-1.447,0.083-1.744,0.083
		c-0.313,0-0.517-0.036-0.607-0.11c-0.24-0.203-0.166-0.342,0.221-0.414c0.369-0.074,1.256-0.131,2.658-0.166
		c1.347-0.02,2.314-0.064,2.906-0.14c0.59-0.092,0.885-0.212,0.885-0.358c0-0.074-0.268-0.314-0.803-0.721
		c-0.461-0.351-0.857-0.545-1.189-0.582c-0.352-0.055-1.107-0.009-2.271,0.139c-0.517,0.057-0.875,0.074-1.078,0.057
		c-0.203,0-0.332-0.037-0.387-0.109c-0.074-0.131-0.111-0.14-0.111-0.029c0,0.111-0.416,0.203-1.246,0.277
		c-0.85,0.055-2.012,0.092-3.486,0.11c-1.385,0.019-2.242,0.092-2.574,0.222c-0.24,0.092-0.379,0.176-0.416,0.25
		c-0.037,0.092-0.027,0.285,0.027,0.58c0.057,0.426,0.139,0.738,0.25,0.941c0.055,0.129,0.102,0.193,0.139,0.193
		c0.019,0,0.064-0.057,0.139-0.166c0.056-0.094,0.203-0.166,0.441-0.222c0.24-0.019,0.721-0.028,1.439-0.028
		c0.498,0,1.016-0.019,1.551-0.056c0.534-0.019,0.941-0.036,1.218-0.055c0.462-0.056,0.757-0.074,0.886-0.056
		c0.129,0.018,0.23,0.082,0.305,0.193c0.037,0.092,0.064,0.176,0.083,0.248c0,0.074-0.009,0.13-0.027,0.167
		c-0.056,0.056-1.846,0.082-5.368,0.082c-2.455,0-4.41-0.046-5.869-0.138c-1.457-0.074-2.307-0.194-2.547-0.359
		c-0.072-0.056-0.462-0.104-1.162-0.139c-0.72-0.02-1.929-0.057-3.625-0.111c-1.312-0.02-2.123-0.046-2.437-0.083
		c-0.313-0.019-0.554-0.093-0.72-0.221c-0.131-0.093-0.203-0.167-0.223-0.222c0-0.037,0.047-0.092,0.139-0.166
		c0.093-0.037,0.14-0.064,0.14-0.084c0-0.037-0.037-0.056-0.11-0.056c-0.093,0-0.14-0.009-0.14-0.026
		c0-0.037,0.037-0.103,0.11-0.194c0.074-0.093,0.103-0.147,0.084-0.166c-0.036-0.036-0.157-0.056-0.36-0.056
		c-0.129,0-0.24,0.02-0.332,0.056c-0.092,0.037-0.14,0.073-0.14,0.11s0.021,0.074,0.057,0.11c0.02,0.019,0.057,0.027,0.109,0.027
		c0.037,0,0.064,0.019,0.084,0.056c0,0.02-0.01,0.047-0.027,0.083c-0.02,0.056-0.057,0.093-0.109,0.111
		c-0.037,0-0.074-0.011-0.111-0.028c-0.036-0.019-0.073-0.027-0.109-0.027c-0.02,0.02-0.027,0.047-0.027,0.084
		c0,0.055,0.019,0.101,0.056,0.138c0.036,0.019,0.081,0.028,0.138,0.028s0.073,0.019,0.057,0.055c0,0.02-0.037,0.056-0.111,0.111
		c-0.147,0.073-0.332,0.082-0.553,0.026c-0.223-0.037-0.332-0.11-0.332-0.222c0-0.11-0.396-0.129-1.19-0.057
		c-0.479,0.037-0.812,0.057-0.997,0.057c-0.184-0.02-0.322-0.073-0.415-0.165c-0.073-0.093-0.323-0.157-0.747-0.194
		c-0.388-0.056-1.098-0.102-2.131-0.139c-1.809-0.074-2.759-0.139-2.851-0.193c-0.037-0.019-0.379-0.046-1.024-0.083
		c-0.646-0.019-1.402-0.028-2.27-0.028c-1.661-0.018-2.731-0.045-3.211-0.082c-0.479-0.02-0.766-0.073-0.858-0.166
		c-0.055-0.074-0.406-0.11-1.052-0.11c-0.258,0-0.479-0.019-0.664-0.056c-0.185-0.02-0.277-0.047-0.277-0.084
		c0-0.055-0.129-0.092-0.388-0.109c-0.258-0.037-0.581-0.057-0.969-0.057c-0.609,0-0.987-0.019-1.135-0.055
		c-0.129-0.02-0.175-0.084-0.138-0.193c0.037-0.11,0.018-0.166-0.056-0.166c-0.055-0.037-0.221-0.037-0.498,0
		c-0.314,0.056-0.563,0.056-0.748,0c-0.185-0.057-0.286-0.147-0.304-0.276c-0.019-0.037-0.092-0.063-0.222-0.083
		c-0.129-0.02-0.277-0.02-0.443,0c-0.185,0-0.332-0.01-0.442-0.027c-0.129-0.037-0.194-0.064-0.194-0.084
		c0-0.056,0.074-0.092,0.221-0.109c0.129-0.037,0.304-0.057,0.526-0.057c0.295,0,0.489-0.018,0.582-0.056
		c0.111-0.036,0.166-0.101,0.166-0.192c0-0.129,0.009-0.194,0.028-0.194c0.037,0.019,0.102,0.093,0.194,0.222
		c0.111,0.148,0.185,0.223,0.222,0.223c0.037,0,0.092-0.057,0.166-0.166c0.092-0.186,0.305-0.277,0.636-0.277
		c0.148,0,0.286-0.018,0.416-0.055c0.111-0.02,0.185-0.056,0.222-0.11c0.055-0.111-0.019-0.13-0.222-0.056
		c-0.092,0.019-0.166,0.026-0.222,0.026c-0.055-0.019-0.083-0.055-0.083-0.11c0-0.037,0.037-0.073,0.111-0.11
		c0.092-0.019,0.203-0.027,0.332-0.027c0.295,0,0.443,0.074,0.443,0.222c0,0.057,0.028,0.111,0.083,0.166
		c0.037,0.037,0.083,0.056,0.139,0.056c0.055,0,0.111-0.019,0.166-0.056c0.037-0.055,0.055-0.109,0.055-0.166
		c0-0.073,0.019-0.129,0.056-0.166s0.074-0.056,0.111-0.056c0.11,0,0.138,0.027,0.083,0.083c-0.019,0.037-0.009,0.083,0.027,0.139
		c0.019,0.057,0.064,0.111,0.138,0.166c0.111,0.093,0.157,0.147,0.139,0.166c-0.037,0.02-0.166,0.027-0.387,0.027
		c-0.185,0-0.305,0.02-0.36,0.057c-0.074,0.037-0.092,0.102-0.055,0.192c0.037,0.056,0.037,0.111,0,0.166
		c-0.019,0.037-0.055,0.056-0.111,0.056c-0.074,0-0.129-0.019-0.166-0.056c-0.055-0.036-0.083-0.073-0.083-0.11
		c0-0.109-0.064-0.155-0.193-0.138c-0.148,0.019-0.25,0.082-0.305,0.193c-0.037,0.073-0.065,0.11-0.083,0.11
		c-0.037,0-0.065-0.037-0.083-0.11c-0.074-0.147-0.157-0.212-0.25-0.193c-0.074,0.036-0.11,0.138-0.11,0.304
		c0,0.147,0.027,0.24,0.083,0.277c0.055,0.02,0.203,0.01,0.443-0.027c0.295-0.056,0.526-0.064,0.692-0.027
		c0.185,0.056,0.249,0.138,0.194,0.249c-0.037,0.019-0.028,0.046,0.027,0.083c0.056,0.019,0.12,0.027,0.194,0.027
		c0.129,0,0.212-0.019,0.25-0.056c0.037-0.037,0.037-0.093,0-0.167c-0.074-0.184-0.074-0.313,0-0.387
		c0.074-0.074,0.203-0.074,0.387,0c0.222,0.092,0.396,0.064,0.526-0.083c0.074-0.056,0.166-0.103,0.277-0.14
		c0.111-0.037,0.221-0.045,0.332-0.026c0.166,0.019,0.277,0.055,0.333,0.11c0.055,0.073,0.092,0.211,0.11,0.416
		c0.019,0.164,0.019,0.295,0,0.387c-0.037,0.074-0.11,0.119-0.221,0.139c-0.166,0.057,0.12,0.073,0.858,0.057
		c0.461,0,0.756-0.021,0.886-0.057c0.147-0.037,0.212-0.102,0.194-0.193c-0.111-0.388-0.157-0.627-0.139-0.72
		c0.019-0.11,0.111-0.185,0.277-0.222c0.295-0.074,0.821-0.102,1.578-0.083c0.775,0,1.282,0.046,1.522,0.139
		c0.185,0.073,0.332,0.11,0.443,0.11c0.092,0,0.166-0.037,0.221-0.11c0.074-0.056,0.111-0.093,0.111-0.11
		c-0.019-0.037-0.064-0.057-0.138-0.057c-0.074,0-0.111-0.009-0.111-0.027c-0.019-0.037,0.009-0.092,0.083-0.166
		c0.037-0.055,0.092-0.185,0.166-0.388c0.074-0.221,0.139-0.452,0.194-0.69c0.258-1.053,0.489-1.578,0.692-1.578
		c0.037,0,0.074-0.037,0.111-0.11c0.019-0.073,0.028-0.166,0.028-0.276c-0.019-0.295,0.027-0.813,0.138-1.551
		c0.11-0.83,0.129-1.56,0.055-2.187c-0.074-0.608-0.258-1.365-0.553-2.271c-0.277-0.886-0.618-1.604-1.024-2.158
		c-0.388-0.555-1.042-1.256-1.965-2.104c-0.996-0.923-2.232-1.808-3.708-2.657c-1.476-0.867-2.639-1.375-3.488-1.521
		c-0.406-0.074-0.683-0.093-0.831-0.058c-0.147,0.037-0.452,0.203-0.913,0.5c-0.627,0.387-1.163,0.756-1.605,1.105
		c-0.461,0.352-1.181,1.07-2.159,2.159c-0.978,1.106-1.55,1.846-1.716,2.214c-0.092,0.167-0.185,0.333-0.277,0.499
		c-0.111,0.166-0.203,0.276-0.277,0.331c-0.111,0.094-0.424,0.638-0.941,1.634c-0.479,1.015-0.849,1.845-1.107,2.491
		c-0.166,0.461-0.304,0.812-0.415,1.052c-0.221,0.442-0.415,1.726-0.581,3.849c-0.203,2.104-0.221,3.274-0.056,3.515
		c0.019,0.056,0.074,0.102,0.167,0.139c0.074,0.037,0.147,0.063,0.221,0.083c0.129,0.02,0.222,0.102,0.277,0.249
		c0.037,0.13,0.074,0.442,0.111,0.94c0.037,0.461,0.092,0.822,0.166,1.08c0.074,0.222,0.23,0.535,0.471,0.94
		c0.387,0.608,0.581,0.96,0.581,1.052c0,0.129-0.517,0.223-1.55,0.276c-0.997,0.056-2.759,0.083-5.287,0.083
		c-2.989,0.02-4.714,0.047-5.176,0.084c-0.793,0.072-2.067,0.109-3.819,0.109c-1.771,0.019-2.842,0-3.211-0.056
		c-0.572-0.11-1.246-0.202-2.021-0.276c-0.351-0.036-0.849-0.11-1.495-0.221c-0.665-0.111-1.292-0.23-1.882-0.361
		c-2.952-0.627-4.678-0.939-5.176-0.939c-0.295,0.02-0.59-0.13-0.886-0.443l-0.443-0.441h0.471c0.147,0,0.268,0.02,0.36,0.055
		c0.074,0.02,0.11,0.047,0.11,0.084c0,0.036,0.139,0.064,0.416,0.082c0.276,0.038,0.6,0.057,0.969,0.057
		c0.572,0,0.959,0.019,1.162,0.056c0.185,0.019,0.305,0.083,0.36,0.192c0.056,0.094,0.129,0.148,0.222,0.168
		c0.092,0.035,0.222,0.035,0.387,0c0.314-0.057,1.172-0.037,2.574,0.055c0.923,0.055,1.513,0.072,1.771,0.055
		c0.277-0.018,0.48-0.072,0.609-0.165c0.111-0.13,0.185-0.185,0.222-0.166c0.018,0.019,0,0.119-0.056,0.304
		c-0.037,0.166-0.037,0.287,0,0.36c0.056,0.074,0.212,0.147,0.471,0.222c0.406,0.129,0.775,0.276,1.107,0.442
		c0.387,0.166,0.683,0.222,0.886,0.166c0.203-0.092,0.406-0.321,0.609-0.69c0.24-0.426,0.313-0.729,0.221-0.914
		c-0.092-0.186-0.415-0.416-0.969-0.691c-0.627-0.314-1.052-0.535-1.273-0.665c-0.184-0.11-0.434-0.185-0.747-0.222
		c-0.313-0.02-0.876-0.026-1.688-0.026c-0.535,0.019-1.015,0.036-1.439,0.056c-0.424,0.019-0.655,0.036-0.692,0.055
		c-0.037,0.037-0.341,0.064-0.913,0.084c-0.59,0-1.255,0-1.993,0l-2.795-0.028l-0.083-0.637c-0.074-0.442-0.064-0.72,0.028-0.83
		c0.111-0.093,0.369-0.11,0.775-0.056c0.351,0.037,0.581,0.027,0.692-0.027c0.129-0.057,0.36-0.286,0.692-0.691
		c0.203-0.222,0.378-0.443,0.526-0.664c0.147-0.24,0.24-0.416,0.277-0.525c0.037-0.129,0.102-0.249,0.194-0.36
		c0.11-0.11,0.24-0.202,0.387-0.276c0.314-0.146,0.757-0.524,1.329-1.135c0.553-0.591,1.005-1.172,1.356-1.742l1.246-2.021
		c0.443-0.738,1.199-1.909,2.27-3.516c0.59-0.922,0.922-1.457,0.997-1.604c0.074-0.204,0.304-0.581,0.692-1.135
		c0.351-0.517,0.932-1.468,1.744-2.851c0.332-0.592,0.637-1.08,0.914-1.468c0.277-0.389,0.452-0.591,0.526-0.608
		c0.203-0.057,0.268-0.176,0.194-0.359c-0.019-0.074,0-0.194,0.055-0.359c0.037-0.147,0.111-0.313,0.221-0.5
		c0.277-0.404,0.609-1.005,0.997-1.799c0.406-0.83,0.665-1.209,0.775-1.135c0.11,0.056,0.138,0.037,0.083-0.055
		c-0.037-0.058-0.009-0.186,0.083-0.389c0.092-0.203,0.222-0.414,0.388-0.638c0.923-1.365,1.384-2.224,1.384-2.573
		c0-0.093,0.018-0.176,0.055-0.249c0.037-0.092,0.092-0.147,0.166-0.166c0.129-0.056,0.203-0.313,0.221-0.774
		c0.019-0.442-0.037-0.979-0.166-1.605c-0.074-0.369-0.111-0.617-0.111-0.747c0.019-0.13,0.083-0.258,0.194-0.388
		c0.129-0.129,0.203-0.258,0.222-0.387c0-0.131-0.046-0.396-0.139-0.803c-0.092-0.461-0.12-0.775-0.083-0.941
		c0.037-0.186,0.139-0.24,0.305-0.166c0.147,0.055,0.249,0.019,0.305-0.111c0.055-0.146,0.018-0.268-0.111-0.359
		c-0.203-0.146-0.277-0.342-0.222-0.582c0.056-0.221,0.194-0.45,0.415-0.69c0.536-0.553,1.117-0.812,1.744-0.774
		c0.185,0.02,0.332-0.01,0.443-0.082c0.11-0.057,0.23-0.166,0.36-0.332c0.185-0.26,0.378-0.435,0.581-0.526
		c0.203-0.073,0.388-0.046,0.554,0.083c0.092,0.092,0.185,0.111,0.276,0.056c0.092-0.056,0.24-0.202,0.443-0.442
		c0.129-0.166,0.249-0.323,0.36-0.471c0.11-0.13,0.166-0.213,0.166-0.25s0.046-0.055,0.139-0.055c0.074-0.02,0.175-0.01,0.305,0.027
		c0.184,0.037,0.323,0.026,0.415-0.027c0.129-0.074,0.249-0.223,0.36-0.443c0.185-0.424,0.526-1.568,1.024-3.432
		c0.148-0.499,0.286-0.951,0.416-1.357c0.129-0.424,0.221-0.682,0.276-0.772c0.055-0.093,0.111-0.213,0.166-0.361
		c0.037-0.146,0.056-0.274,0.056-0.387s0.055-0.378,0.166-0.804c0.092-0.424,0.212-0.877,0.36-1.354
		c0.295-1.016,0.535-1.946,0.72-2.797c0.166-0.83,0.23-1.337,0.194-1.521c-0.037-0.057-0.037-0.223,0-0.498
		c0.055-0.26,0.11-0.545,0.166-0.858c0.203-0.738,0.276-1.394,0.221-1.966c-0.037-0.332-0.037-0.581,0-0.746
		c0.037-0.186,0.12-0.361,0.249-0.527c0.148-0.238,0.268-0.701,0.36-1.383c0.092-0.684,0.074-1.063-0.055-1.135
		c-0.037-0.02-0.056-0.102-0.056-0.25c-0.018-0.147-0.018-0.313,0-0.498c0.037-0.276,0.046-0.471,0.028-0.581
		c-0.037-0.11-0.12-0.229-0.249-0.358c-0.147-0.111-0.24-0.297-0.277-0.555c-0.019-0.258-0.028-0.923-0.028-1.993
		c0-0.978,0.009-1.605,0.028-1.882c0.037-0.277,0.102-0.416,0.194-0.416c0.055,0,0.111-0.019,0.166-0.056
		c0.037-0.055,0.055-0.12,0.055-0.193c0-0.203,0.037-0.332,0.111-0.388c0.074-0.055,0.166-0.027,0.277,0.083
		c0.056,0.037,0.12,0.064,0.194,0.083c0.055,0.019,0.092,0.019,0.11,0c0.074-0.073,0.148-0.313,0.222-0.719
		c0.092-0.406,0.138-0.748,0.138-1.024c0-0.148,0.019-0.259,0.056-0.333c0.019-0.074,0.046-0.092,0.083-0.055
		c0.037,0.018,0.064,0.092,0.083,0.222c0.019,0.147,0.009,0.304-0.028,0.47c-0.037,0.277-0.046,0.443-0.027,0.499
		c0.018,0.055,0.11,0.073,0.276,0.055c0.166-0.019,0.268-0.083,0.305-0.194c0.019-0.111,0.028-0.406,0.028-0.886
		c-0.037-0.665,0-0.997,0.11-0.997c0.111,0,0.139,0.175,0.083,0.526c-0.074,0.351-0.055,0.526,0.056,0.526
		c0.037,0,0.083-0.074,0.138-0.222c0.037-0.129,0.074-0.295,0.111-0.499c0.037-0.369,0.185-1.328,0.443-2.878
		c0.904-5.204,1.458-9.051,1.661-11.542c0.147-1.827,0.36-4.299,0.637-7.418c0.387-3.949,0.72-8.294,0.997-13.037l0.166-3.211
		c0.055-1.513,0.102-2.592,0.138-3.238c0.074-0.775,0.102-1.246,0.083-1.412c-0.019-0.941,0.028-2.519,0.138-4.733l0.25-4.539
		c0.018-0.443,0.055-0.84,0.111-1.19c0.037-0.314,0.074-0.471,0.11-0.471c0.037,0,0.056-0.027,0.056-0.083
		c0-0.055-0.019-0.12-0.056-0.193c-0.092-0.185-0.147-1.624-0.166-4.318c0-1.107-0.019-2.178-0.055-3.211
		c-0.019-1.015-0.046-1.688-0.083-2.021c-0.092-0.738-0.258-1.421-0.498-2.048c-0.24-0.627-0.471-0.96-0.692-0.997
		c-0.185-0.018-0.313-0.175-0.387-0.47c-0.074-0.277-0.083-0.59-0.028-0.941c0.037-0.148,0.12-0.369,0.249-0.665
		c0.147-0.295,0.314-0.6,0.498-0.913c0.277-0.461,0.461-0.812,0.554-1.052C136.114,72.737,136.179,72.368,136.216,71.906z"/>
	<path fill="#FFFFFF" d="M79.157,98.151c1.236-0.904,2.731-1.356,4.484-1.356c0.295,0,0.581,0.01,0.858,0.028
		c-0.037-0.406-0.056-0.821-0.056-1.245c0-3.174,1.153-5.877,3.46-8.11c2.325-2.251,5.13-3.377,8.415-3.377
		c1.439,0,2.795,0.23,4.069,0.692c2.399-2.03,5.259-3.044,8.58-3.044c3.506,0,6.486,1.116,8.94,3.349
		c1.55,1.402,2.62,2.98,3.21,4.733c1.402,0.313,2.648,0.978,3.737,1.993c1.476,1.402,2.251,3.082,2.325,5.038
		c1.181,0.147,2.214,0.627,3.1,1.439c0.48,0.424,0.849,0.895,1.107,1.411H77.773C78.086,99.148,78.548,98.631,79.157,98.151z
		 M205.039,93.308c1.697,1.605,2.594,3.534,2.686,5.785c1.365,0.166,2.557,0.719,3.57,1.661c0.535,0.498,0.959,1.042,1.273,1.633
		h-61.725c0.352-0.627,0.877-1.218,1.577-1.771c1.421-1.052,3.146-1.578,5.177-1.578c0.332,0,0.654,0.009,0.969,0.028
		c-0.037-0.461-0.055-0.941-0.055-1.439c0-3.653,1.327-6.763,3.984-9.328c2.676-2.583,5.896-3.875,9.66-3.875
		c1.679,0,3.248,0.258,4.705,0.775c2.748-2.343,6.043-3.515,9.882-3.515c4.041,0,7.481,1.292,10.323,3.875
		c1.771,1.605,2.99,3.423,3.652,5.453C202.346,91.361,203.784,92.127,205.039,93.308z"/>
	<path fill="#293789" d="M116.772,212.604c0.683,0.683,1.218,1.431,1.605,2.242c0.129-0.389,0.351-0.738,0.665-1.053
		c0.59-0.572,1.292-0.857,2.104-0.857c0.831,0,1.532,0.285,2.104,0.857c0.277,0.277,0.489,0.572,0.637,0.887
		c0.129-0.352,0.341-0.675,0.637-0.97c0.535-0.535,1.19-0.803,1.965-0.803c0.757,0,1.412,0.268,1.965,0.803
		c0.535,0.554,0.803,1.209,0.803,1.965c0,0.074,0,0.147,0,0.222H6.5c0.037-1.494,0.59-2.776,1.661-3.848
		c1.144-1.125,2.51-1.688,4.097-1.688c1.31,0,2.463,0.388,3.459,1.162v-0.027c1.347-1.328,2.962-1.992,4.844-1.992
		c0.794,0,1.532,0.12,2.214,0.359c0.424-1.219,1.126-2.315,2.104-3.295c1.753-1.752,3.866-2.629,6.338-2.629
		c0.738,0,1.449,0.084,2.131,0.25c0-3.358,1.181-6.229,3.543-8.608c2.38-2.38,5.25-3.57,8.608-3.57c0.24,0,0.479,0.011,0.719,0.027
		c0.185-0.203,0.378-0.405,0.581-0.608c3.58-3.58,7.907-5.369,12.981-5.369c5.056,0,9.374,1.789,12.954,5.369
		c1.809,1.809,3.165,3.803,4.069,5.979c0.757-0.185,1.55-0.276,2.38-0.276c2.639,0,4.899,0.939,6.781,2.822
		c1.458,1.439,2.343,3.119,2.657,5.038c0.59-0.111,1.208-0.166,1.854-0.166c2.344,0,4.345,0.829,6.006,2.491
		c0.664,0.664,1.199,1.384,1.605,2.158c0.904-0.555,1.91-0.83,3.017-0.83c1.661,0,3.073,0.582,4.235,1.744
		c0.499,0.516,0.895,1.069,1.19,1.659c1.365-1.125,2.971-1.688,4.816-1.688C113.469,210.359,115.277,211.107,116.772,212.604z
		 M176.502,210.582c1.311,0,2.464,0.389,3.461,1.163v-0.028c1.348-1.328,2.961-1.992,4.844-1.992c0.793,0,1.531,0.119,2.215,0.359
		c0.424-1.218,1.125-2.314,2.104-3.294c1.752-1.753,3.865-2.629,6.338-2.629c0.738,0,1.448,0.083,2.131,0.249
		c0-3.359,1.182-6.229,3.543-8.608c2.381-2.38,5.25-3.569,8.608-3.569c0.239,0,0.479,0.009,0.72,0.026
		c0.184-0.202,0.377-0.405,0.581-0.608c3.579-3.58,7.907-5.369,12.981-5.369c5.057,0,9.373,1.789,12.953,5.369
		c1.809,1.809,3.164,3.802,4.067,5.979c0.757-0.185,1.552-0.276,2.382-0.276c2.639,0,4.897,0.94,6.78,2.822
		c1.457,1.439,2.345,3.119,2.657,5.038c0.591-0.11,1.208-0.167,1.854-0.167c2.344,0,4.346,0.831,6.006,2.491
		c0.664,0.665,1.199,1.384,1.605,2.159c0.904-0.555,1.91-0.83,3.018-0.83c1.66,0,3.072,0.58,4.234,1.744
		c0.498,0.517,0.895,1.07,1.191,1.66c1.365-1.125,2.969-1.688,4.813-1.688c2.123,0,3.933,0.747,5.427,2.242
		c0.682,0.683,1.217,1.43,1.604,2.241c0.129-0.388,0.351-0.737,0.664-1.051c0.59-0.572,1.291-0.858,2.104-0.858
		c0.829,0,1.53,0.286,2.104,0.858c0.277,0.275,0.488,0.571,0.637,0.885c0.129-0.351,0.342-0.674,0.637-0.969
		c0.535-0.535,1.189-0.803,1.965-0.803c0.756,0,1.412,0.268,1.965,0.803c0.535,0.555,0.804,1.209,0.804,1.965
		c0,0.074,0,0.147,0,0.222H170.746c0.036-1.494,0.59-2.776,1.66-3.847C173.551,211.146,174.916,210.582,176.502,210.582z"/>
</g>
</svg>
