<?xml version="1.0" encoding="utf-8"?>
<!-- Generator: Adobe Illustrator 16.0.0, SVG Export Plug-In . SVG Version: 6.00 Build 0)  -->
<!DOCTYPE svg PUBLIC "-//W3C//DTD SVG 1.1//EN" "http://www.w3.org/Graphics/SVG/1.1/DTD/svg11.dtd">
<svg version="1.1" id="Layer_1" xmlns="http://www.w3.org/2000/svg" xmlns:xlink="http://www.w3.org/1999/xlink" x="0px" y="0px"
	 width="300px" height="300px" viewBox="0 0 300 300" enable-background="new 0 0 300 300" xml:space="preserve">
<g>
	<path fill-rule="evenodd" clip-rule="evenodd" fill="#E8112D" d="M225.067,73.326c0.159-1.072,0.508-1.501,1.045-1.287
		c0.695,0.323,3.135,0.992,7.315,2.011c4.289,1.125,6.648,1.688,7.078,1.688c0.322,0,0.082-1.876-0.723-5.629
		c-0.859-3.752-1.637-6.487-2.335-8.202l-0.964-2.573h20.425l-1.445,3.78c-0.859,2.305-1.584,4.985-2.172,8.042
		c-0.589,3.055-0.672,4.583-0.24,4.583c0.427,0,2.706-0.536,6.834-1.608c4.182-1.072,6.647-1.768,7.398-2.091
		c0.535-0.214,0.911,0.242,1.124,1.367c0.109,1.072,0.162,3.752,0.162,8.042v9.971l-2.492-1.045
		c-1.556-0.643-4.128-1.313-7.722-2.01c-3.536-0.75-5.44-0.992-5.708-0.723c-0.214,0.214,0.133,2.278,1.046,6.191
		c0.91,3.913,1.66,6.567,2.25,7.961c0.215,0.537-0.241,0.884-1.366,1.045c-1.125,0.161-3.725,0.241-7.8,0.241
		c-6.486,0-9.731-0.027-9.731-0.081l0.805-2.573c0.537-1.501,1.234-4.101,2.092-7.8l1.207-5.307l-3.702,0.482
		c-2.411,0.322-5.144,0.992-8.201,2.01l-4.422,1.528v-9.971C224.825,77.186,224.906,74.505,225.067,73.326z M128.973,3.366
		C135.781,2.456,142.776,2,149.961,2c7.506,0,14.795,0.509,21.873,1.527c0.59,0.161,1.179,0.349,1.77,0.563
		c0.105,0.912,0.186,2.251,0.24,4.02c0.161,3.539,0.268,24.419,0.32,62.642l0.161,58.379h122.389
		c0.858,6.809,1.286,13.777,1.286,20.907c0,7.185-0.454,14.182-1.365,20.987H174.084l-0.16,62.964
		c-0.055,36.99-0.188,57.763-0.403,62.32c-0.025-0.003-0.054-0.003-0.078,0c-7.614,1.125-15.441,1.689-23.481,1.689
		c-7.721,0-15.225-0.512-22.516-1.53c-0.215-0.053-0.402-0.106-0.563-0.159c-0.161-0.964-0.268-2.359-0.322-4.182
		c-0.107-3.539-0.215-24.419-0.321-62.644l-0.081-58.459H3.368C2.456,164.221,2,157.224,2,150.039
		c0-7.129,0.456-14.098,1.368-20.907h122.951l0.161-62.883c0.054-36.561,0.188-57.28,0.402-62.158
		C127.579,3.823,128.275,3.581,128.973,3.366z M246.377,197.161c3.751,0,6.271,0.081,7.558,0.242
		c1.287,0.106,1.85,0.373,1.689,0.803c-0.27,0.752-0.804,2.603-1.608,5.549c-0.805,3.003-1.396,5.255-1.769,6.757l-0.482,2.412
		l3.859-0.564c2.573-0.375,5.334-1.073,8.282-2.09l4.343-1.449v9.973c0,4.183-0.082,6.861-0.242,8.041
		c-0.161,1.125-0.51,1.581-1.046,1.367c-1.286-0.538-4.047-1.288-8.281-2.252c-4.183-1.018-6.354-1.447-6.514-1.289
		c-0.214,0.217,0.214,2.468,1.287,6.758c1.125,4.288,1.956,6.94,2.491,7.96c0.378,0.696,0.082,1.125-0.883,1.287
		c-0.913,0.106-3.78,0.161-8.605,0.161h-10.292l0.964-2.495c0.966-2.304,1.796-5.199,2.494-8.684
		c0.642-3.485,0.695-5.198,0.161-5.146c-0.591,0-2.843,0.51-6.757,1.527c-3.912,1.019-6.325,1.717-7.237,2.091
		c-0.536,0.269-0.883-0.161-1.044-1.286c-0.162-1.127-0.24-3.806-0.24-8.041v-9.89l4.422,1.526c3.055,1.018,5.789,1.689,8.201,2.01
		l3.7,0.484l-1.287-5.389c-0.804-3.699-1.476-6.271-2.01-7.719l-0.805-2.574C236.727,197.189,239.943,197.161,246.377,197.161z
		 M75.739,208.903v9.89c0,4.235-0.107,6.914-0.322,8.041c-0.108,1.125-0.429,1.555-0.965,1.286
		c-0.696-0.268-3.163-0.938-7.398-2.012c-4.235-1.069-6.594-1.606-7.077-1.606c-0.321-0.053-0.08,1.796,0.725,5.548
		c0.857,3.806,1.635,6.566,2.331,8.281l1.046,2.495H43.654l1.447-3.78c0.858-2.251,1.582-4.906,2.172-7.962
		c0.59-3.108,0.669-4.662,0.241-4.662s-2.707,0.563-6.835,1.687c-4.182,1.074-6.647,1.77-7.398,2.093
		c-0.536,0.214-0.911-0.242-1.126-1.367c-0.107-1.127-0.161-3.834-0.161-8.121v-9.972l2.493,1.045
		c1.555,0.697,4.128,1.394,7.72,2.091c3.539,0.752,5.468,0.966,5.79,0.646c0.16-0.163-0.214-2.2-1.126-6.114
		c-0.912-3.967-1.662-6.646-2.251-8.041c-0.214-0.536,0.241-0.857,1.367-0.964c1.126-0.161,3.726-0.242,7.799-0.242
		c6.487,0,9.73,0.028,9.73,0.081l-0.804,2.574c-0.536,1.448-1.232,4.02-2.091,7.719l-1.206,5.389l3.7-0.484
		c2.413-0.32,5.119-0.992,8.121-2.01L75.739,208.903z M75.819,81.367v9.971l-4.423-1.528c-3.056-1.018-5.79-1.688-8.202-2.01
		l-3.699-0.482l1.207,5.307c0.857,3.699,1.555,6.299,2.09,7.8l0.804,2.573c0,0.053-3.243,0.081-9.73,0.081
		c-3.753,0-6.272-0.081-7.559-0.241c-1.286-0.161-1.85-0.429-1.688-0.804c0.268-0.75,0.831-2.6,1.688-5.548
		c0.805-3.002,1.367-5.254,1.689-6.755l0.483-2.412l-3.86,0.563c-2.52,0.375-5.253,1.044-8.203,2.01l-4.422,1.447v-9.891
		c0-4.235,0.108-6.942,0.322-8.122c0.107-1.072,0.429-1.501,0.965-1.287c1.34,0.537,4.102,1.287,8.283,2.252
		c4.182,1.019,6.353,1.447,6.514,1.287c0.214-0.215-0.214-2.466-1.287-6.755c-1.072-4.288-1.876-6.942-2.412-7.961
		c-0.375-0.697-0.081-1.125,0.884-1.286c0.912-0.162,3.78-0.241,8.604-0.241H64.16l-0.965,2.573
		c-1.018,2.305-1.876,5.199-2.574,8.685c-0.643,3.431-0.696,5.146-0.16,5.146c0.644,0,2.922-0.536,6.835-1.608
		c3.913-0.964,6.326-1.662,7.237-2.091c0.535-0.214,0.884,0.215,1.045,1.287C75.739,74.451,75.819,77.132,75.819,81.367z"/>
	<path fill-rule="evenodd" clip-rule="evenodd" fill="#FFFFFF" d="M225.067,73.326c-0.161,1.18-0.242,3.86-0.242,8.041v9.971
		l4.422-1.528c3.058-1.018,5.79-1.688,8.201-2.01l3.702-0.482l-1.207,5.307c-0.857,3.699-1.555,6.299-2.092,7.8l-0.805,2.573
		c0,0.053,3.245,0.081,9.731,0.081c4.075,0,6.675-0.081,7.8-0.241c1.125-0.161,1.581-0.509,1.366-1.045
		c-0.59-1.394-1.34-4.048-2.25-7.961c-0.913-3.914-1.26-5.978-1.046-6.191c0.268-0.269,2.172-0.027,5.708,0.723
		c3.594,0.697,6.166,1.367,7.722,2.01l2.492,1.045v-9.971c0-4.289-0.053-6.969-0.162-8.042c-0.213-1.125-0.589-1.581-1.124-1.367
		c-0.751,0.323-3.217,1.019-7.398,2.091c-4.128,1.073-6.407,1.608-6.834,1.608c-0.432,0-0.349-1.527,0.24-4.583
		c0.588-3.057,1.313-5.737,2.172-8.042l1.445-3.78h-20.425l0.964,2.573c0.698,1.715,1.476,4.449,2.335,8.202
		c0.805,3.752,1.045,5.629,0.723,5.629c-0.43,0-2.789-0.563-7.078-1.688c-4.181-1.019-6.62-1.688-7.315-2.011
		C225.575,71.825,225.227,72.253,225.067,73.326z M171.834,3.527c31.629,4.289,59.234,18.228,82.825,41.814
		c23.854,23.856,37.874,51.786,42.055,83.791H174.325l-0.161-58.379c-0.053-38.223-0.159-59.104-0.32-62.642
		c-0.055-1.769-0.135-3.108-0.24-4.02C173.013,3.876,172.424,3.688,171.834,3.527z M128.973,3.366
		c-0.697,0.214-1.394,0.457-2.091,0.725c-0.214,4.878-0.349,25.598-0.402,62.158l-0.161,62.883H3.368
		c4.127-32.004,18.119-59.934,41.975-83.791C69.145,21.54,97.021,7.548,128.973,3.366z M75.819,81.367
		c0-4.235-0.08-6.916-0.241-8.041c-0.161-1.072-0.51-1.501-1.045-1.287c-0.912,0.429-3.324,1.127-7.237,2.091
		c-3.914,1.073-6.191,1.608-6.835,1.608c-0.536,0-0.483-1.715,0.16-5.146c0.698-3.485,1.556-6.38,2.574-8.685l0.965-2.573H53.867
		c-4.825,0-7.693,0.08-8.604,0.241c-0.965,0.161-1.259,0.589-0.884,1.286c0.535,1.019,1.339,3.673,2.412,7.961
		c1.073,4.289,1.501,6.541,1.287,6.755c-0.161,0.16-2.332-0.269-6.514-1.287c-4.181-0.965-6.943-1.715-8.283-2.252
		c-0.536-0.214-0.858,0.215-0.965,1.287c-0.214,1.18-0.322,3.887-0.322,8.122v9.891l4.422-1.447c2.95-0.966,5.683-1.635,8.203-2.01
		l3.86-0.563l-0.483,2.412c-0.322,1.501-0.884,3.752-1.689,6.755c-0.857,2.948-1.42,4.798-1.688,5.548
		c-0.161,0.375,0.402,0.643,1.688,0.804c1.287,0.161,3.806,0.241,7.559,0.241c6.487,0,9.73-0.027,9.73-0.081l-0.804-2.573
		c-0.536-1.501-1.233-4.101-2.09-7.8l-1.207-5.307l3.699,0.482c2.412,0.322,5.146,0.992,8.202,2.01l4.423,1.528V81.367z
		 M75.739,208.903l-4.504,1.526c-3.002,1.018-5.708,1.689-8.121,2.01l-3.7,0.484l1.206-5.389c0.859-3.699,1.556-6.271,2.091-7.719
		l0.804-2.574c0-0.053-3.243-0.081-9.73-0.081c-4.074,0-6.673,0.081-7.799,0.242c-1.126,0.106-1.581,0.428-1.367,0.964
		c0.59,1.396,1.34,4.074,2.251,8.041c0.912,3.914,1.286,5.951,1.126,6.114c-0.322,0.32-2.251,0.106-5.79-0.646
		c-3.591-0.697-6.165-1.394-7.72-2.091l-2.493-1.045v9.972c0,4.287,0.054,6.994,0.161,8.121c0.215,1.125,0.59,1.581,1.126,1.367
		c0.751-0.323,3.216-1.019,7.398-2.093c4.128-1.124,6.406-1.687,6.835-1.687s0.349,1.554-0.241,4.662
		c-0.59,3.056-1.314,5.711-2.172,7.962l-1.447,3.78h20.425l-1.046-2.495c-0.696-1.715-1.474-4.476-2.331-8.281
		c-0.804-3.752-1.045-5.601-0.725-5.548c0.483,0,2.842,0.537,7.077,1.606c4.235,1.074,6.702,1.744,7.398,2.012
		c0.537,0.269,0.857-0.161,0.965-1.286c0.214-1.127,0.322-3.806,0.322-8.041V208.903z M3.368,171.026h122.79l0.081,58.459
		c0.106,38.225,0.214,59.104,0.321,62.644c0.054,1.822,0.161,3.218,0.322,4.182c0.161,0.053,0.349,0.106,0.563,0.159
		c-31.308-4.448-58.675-18.388-82.103-41.814C21.54,230.854,7.548,202.979,3.368,171.026z M173.521,296.311
		c0.216-4.558,0.349-25.33,0.403-62.32l0.16-62.964h122.551c-4.182,31.952-18.175,59.828-41.976,83.629
		C231.466,277.848,204.42,291.734,173.521,296.311z M246.377,197.161c-6.434,0-9.65,0.028-9.65,0.081l0.805,2.574
		c0.534,1.448,1.206,4.02,2.01,7.719l1.287,5.389l-3.7-0.484c-2.412-0.32-5.146-0.992-8.201-2.01l-4.422-1.526v9.89
		c0,4.235,0.078,6.914,0.24,8.041c0.161,1.125,0.508,1.555,1.044,1.286c0.912-0.374,3.325-1.072,7.237-2.091
		c3.914-1.018,6.166-1.527,6.757-1.527c0.534-0.053,0.48,1.66-0.161,5.146c-0.698,3.484-1.528,6.38-2.494,8.684l-0.964,2.495h10.292
		c4.825,0,7.692-0.055,8.605-0.161c0.965-0.162,1.261-0.591,0.883-1.287c-0.535-1.02-1.366-3.672-2.491-7.96
		c-1.073-4.29-1.501-6.541-1.287-6.758c0.159-0.158,2.331,0.271,6.514,1.289c4.234,0.964,6.995,1.714,8.281,2.252
		c0.536,0.214,0.885-0.242,1.046-1.367c0.16-1.18,0.242-3.858,0.242-8.041v-9.973l-4.343,1.449c-2.948,1.017-5.709,1.715-8.282,2.09
		l-3.859,0.564l0.482-2.412c0.373-1.502,0.964-3.754,1.769-6.757c0.805-2.946,1.339-4.797,1.608-5.549
		c0.16-0.43-0.402-0.696-1.689-0.803C252.648,197.242,250.128,197.161,246.377,197.161z"/>
</g>
</svg>
