<?xml version="1.0" encoding="utf-8"?>
<!-- Generator: Adobe Illustrator 16.0.0, SVG Export Plug-In . SVG Version: 6.00 Build 0)  -->
<!DOCTYPE svg PUBLIC "-//W3C//DTD SVG 1.1//EN" "http://www.w3.org/Graphics/SVG/1.1/DTD/svg11.dtd">
<svg version="1.1" id="Layer_1" xmlns="http://www.w3.org/2000/svg" xmlns:xlink="http://www.w3.org/1999/xlink" x="0px" y="0px"
	 width="300px" height="300px" viewBox="0 0 300 300" enable-background="new 0 0 300 300" xml:space="preserve">
<g>
	<path fill-rule="evenodd" clip-rule="evenodd" fill="#333333" d="M281.289,115.612c6.53,3.102,9.739,4.708,9.629,4.819
		c-0.074,0.111-5.516-0.093-16.324-0.61c-4.502-0.221-9.574-0.406-15.218-0.554c-5.719-0.148-10.329-0.203-13.834-0.166
		c-2.916,0.037-5.368,0.037-7.36,0c-3.984-0.037-6.272-0.166-6.862-0.388c-0.332-0.185-1.144-0.831-2.435-1.939
		c-1.254-1.144-2.62-2.436-4.094-3.876c-0.186-0.185-0.369-0.369-0.554-0.554c-3.063-3.028-5.682-5.188-7.858-6.481
		c-2.324-1.33-4.852-2.086-7.582-2.271c-2.544-0.147-4.481,0.222-5.81,1.109c-1.365,0.885-3.91,3.489-7.637,7.809
		c-4.315,4.985-6.99,8.124-8.023,9.417c-0.59,0.739-1.145,1.274-1.66,1.606c-0.479,0.332-1.051,0.554-1.716,0.665
		c-0.627,0.037-3.505,0.517-8.632,1.44l-10.404,1.828l0.443-1.496c0.332-1.219,1.015-2.419,2.047-3.601
		c0.96-1.181,2.896-3.028,5.811-5.538c3.246-2.88,6.198-5.392,8.854-7.534c2.584-2.105,5.442-4.302,8.577-6.591
		c3.21-2.401,5.591-4.044,7.139-4.931c1.438-0.886,2.952-1.587,4.538-2.104c1.66-0.517,3.301-0.794,4.924-0.831
		c1.624-0.037,3.634,0.185,6.033,0.665c2.471,0.48,6.123,1.053,10.957,1.717c0.037,0,0.073,0,0.11,0
		c4.979,0.628,9.592,1.385,13.834,2.271c2.841,0.591,5.533,1.219,8.078,1.883c6.272,1.698,12.691,4.007,19.259,6.924
		C269.428,109.962,274.686,112.4,281.289,115.612z M297.227,122.979c0.517,0.738,0.773,1.551,0.773,2.437
		c0,0.775-0.517,3.416-1.549,7.921c-1.033,4.468-1.715,7.09-2.048,7.866c-0.11,0.221-0.24,0.443-0.387,0.664
		c-0.222,0.258-0.479,0.499-0.775,0.72c-0.517,0.369-1.346,0.775-2.489,1.219c-2.215,0.812-4.059,2.308-5.534,4.488
		c-0.517,0.774-1.052,1.771-1.605,2.989c-0.59,1.146-1.198,2.493-1.825,4.045c-0.591,1.366-1.182,2.899-1.771,4.598
		c-0.22,0.554-0.442,1.125-0.663,1.715c-1.697,4.544-3.689,8.938-5.977,13.185c-0.037,0.11-0.093,0.222-0.166,0.334
		c-0.554,0.995-1.106,1.975-1.66,2.935c-0.074,0.147-0.147,0.276-0.221,0.388c-0.96,1.662-1.919,3.23-2.878,4.709
		c-0.222,0.293-0.425,0.59-0.609,0.884c-2.065,3.03-4.114,5.576-6.143,7.645c-3.726,3.804-7.655,6.814-11.786,9.029
		c-3.063,1.625-6.973,3.23-11.731,4.818c-1.66,0.517-3.432,1.034-5.313,1.551c-2.582,0.738-5.46,1.275-8.632,1.606
		c-2.289,0.186-4.722,0.277-7.306,0.277c-6.16-0.075-11.897-0.795-17.21-2.159c-10.771-2.808-18.888-7.221-24.348-13.24
		c-2.287-2.51-4.445-5.687-6.474-9.527c-0.186-0.294-0.352-0.591-0.498-0.884c-0.776-1.479-1.514-3.047-2.214-4.709
		c-0.479-1.071-0.94-2.179-1.384-3.322c-0.036-0.112-0.073-0.224-0.11-0.334c-1.255-3.177-2.453-6.628-3.597-10.358
		c-0.333-1.034-0.628-1.975-0.887-2.826c-0.736-2.215-1.326-3.765-1.77-4.651c-0.333-0.627-0.738-1.181-1.217-1.661
		c-0.443-0.443-0.96-0.832-1.55-1.164c-1.181-0.664-2.27-1.088-3.266-1.273c-1.032-0.222-2.545-0.351-4.537-0.389
		c-3.727,0-6.4,0.905-8.024,2.716c-0.037,0.036-0.075,0.073-0.111,0.11c-1.07,1.217-2.139,3.323-3.209,6.313
		c-0.517,1.479-1.033,3.178-1.55,5.099c-0.775,2.879-1.624,5.574-2.545,8.086c-0.074,0.11-0.13,0.222-0.167,0.334
		c-0.442,1.144-0.885,2.251-1.327,3.322c-0.738,1.662-1.513,3.23-2.325,4.709c-0.185,0.293-0.35,0.59-0.499,0.884
		c-2.914,5.098-6.344,9.252-10.292,12.463c-3.208,2.586-6.788,4.524-10.735,5.816c-2.435,0.813-5.663,1.644-9.684,2.493
		c-4.021,0.813-7.194,1.31-9.518,1.496c-1.55,0.148-3.339,0.165-5.368,0.056c-3.025-0.223-6.585-0.702-10.68-1.441
		c-1.587-0.332-3.136-0.645-4.649-0.942c-3.984-0.886-7.47-1.882-10.458-2.989c-0.59-0.259-1.162-0.499-1.715-0.721
		c-5.607-2.363-10.846-6.036-15.716-11.022c-1.585-1.588-3.099-3.323-4.537-5.208c-0.258-0.294-0.498-0.591-0.72-0.884
		c-1.144-1.479-2.25-3.047-3.321-4.709c-0.7-1.071-1.383-2.179-2.046-3.322c-0.074-0.112-0.13-0.224-0.167-0.334
		c-0.849-1.366-1.66-2.787-2.434-4.265c-0.665-1.255-1.623-3.213-2.878-5.873c-0.479-1.033-0.922-2.049-1.328-3.047
		c-0.774-1.624-1.494-3.211-2.157-4.761c-0.222-0.555-0.443-1.071-0.665-1.552c-0.626-1.515-1.198-2.862-1.715-4.045
		c-1.181-2.695-1.956-4.394-2.324-5.095c-0.702-1.366-1.642-2.585-2.823-3.657c-0.257-0.22-0.497-0.442-0.719-0.664
		c-0.996-0.775-1.992-1.329-2.988-1.662c-0.701-0.222-1.329-0.517-1.882-0.886c-0.59-0.333-0.958-0.665-1.106-0.997
		c-0.369-0.702-1.052-2.899-2.047-6.592c-1.292-5.022-1.715-8.475-1.273-10.358c0.48-1.882,2.066-3.083,4.759-3.601
		c0.849-0.147,1.881-0.442,3.1-0.885c1.18-0.443,2.306-0.979,3.375-1.607c3.283-1.882,7.489-4.099,12.616-6.646
		c5.128-2.511,9.26-4.431,12.396-5.76c6.05-2.511,11.75-4.524,17.099-6.038c3.542-0.96,7.434-1.828,11.676-2.604
		c2.214-0.443,4.539-0.831,6.973-1.163c1.476-0.222,2.786-0.425,3.93-0.61c1.844-0.295,3.32-0.535,4.427-0.72
		c0.922-0.185,1.585-0.314,1.992-0.388c0.553-0.111,1.347-0.204,2.379-0.277c1.07-0.074,2.085-0.092,3.043-0.055
		c2.398,0.11,4.648,0.757,6.751,1.938c0.627,0.37,1.309,0.831,2.047,1.385c1.734,1.293,3.836,3.102,6.309,5.428
		c4.353,4.1,8.577,8.253,12.672,12.462c4.131,4.21,7.064,7.368,8.799,9.473c1.291,1.661,2.065,2.751,2.324,3.268
		c0.295,0.48,0.24,0.739-0.167,0.775c-0.627,0.111-3.837-0.406-9.628-1.551c-5.792-1.182-9.002-1.938-9.629-2.271
		c-0.222-0.148-0.553-0.48-0.996-0.997c-0.442-0.518-0.831-1.108-1.162-1.773c-0.848-1.439-2.453-3.729-4.814-6.868
		c-2.288-3.102-4.095-5.65-5.423-7.644c-1.55-2.252-2.785-3.674-3.708-4.265c-0.886-0.59-2.288-0.813-4.207-0.664
		c-1.29,0.074-2.341,0.222-3.154,0.442c-0.774,0.258-1.733,0.739-2.876,1.44c-0.185,0.111-0.37,0.24-0.554,0.387
		c-1.291,0.851-2.878,2.124-4.76,3.823c-2.028,1.92-4.076,4.062-6.142,6.424c-0.996,1.146-1.826,1.902-2.49,2.272
		c-0.405,0.258-1.051,0.517-1.937,0.775c-0.59,0.222-1.291,0.443-2.102,0.665l-4.427,1.273l-26.451,0.333
		c-17.671,0.184-26.784,0.48-27.337,0.886c-0.368,0.185,1.458,0.313,5.479,0.387c4.169,0.112,11.326,0.167,21.471,0.167
		c13.649,0.037,22.614,0.092,26.894,0.166c1.955,0.075,4.114,0.185,6.474,0.333c2.878,0.11,6.069,0.313,9.574,0.609
		c1.881,0.147,3.799,0.313,5.755,0.499c7.341,0.738,15.218,1.792,23.628,3.157c10.625,1.735,19.848,3.6,27.669,5.594
		c3.025,0.813,5.423,1.348,7.193,1.606c1.734,0.332,3.782,0.535,6.142,0.609c2.657,0.111,4.741,0.093,6.253-0.056
		c1.549-0.185,4.242-0.664,8.079-1.44c14.904-2.991,27.559-5.133,37.962-6.425c7.378-0.923,15.642-1.625,24.791-2.104
		c3.762-0.222,7.691-0.406,11.786-0.554c0.737-0.037,1.458-0.055,2.158-0.055c8.559-0.259,18.428-0.222,29.604,0.11
		c12.064,0.332,20.992,0.887,26.784,1.662l1.715,0.222l-2.49-1.884l1.604,0.499C296.139,121.796,296.747,122.277,297.227,122.979z
		 M279.462,134.334c-0.59,0.332-1.014,0.627-1.271,0.886c-0.517,0.48-0.794,0.794-0.83,0.942c-0.037,0.184,0.128,0.387,0.498,0.609
		c0.554,0.295,1.845,0.425,3.873,0.387c2.029-0.037,3.634-0.203,4.813-0.498c1.255-0.333,2.288-0.776,3.1-1.33
		c0.775-0.517,0.996-0.942,0.665-1.274c-0.333-0.333-1.717-0.554-4.15-0.665c-2.472-0.074-4.187,0.018-5.146,0.277
		C280.532,133.854,280.016,134.076,279.462,134.334z M271.827,148.791c0.294-2.66,0.442-4.965,0.442-6.924
		c-0.038-2.511-0.314-4.45-0.831-5.816c-1.512-3.803-6.585-6.203-15.218-7.2c-3.283-0.407-9.296-0.535-18.039-0.387
		c-0.369,0-0.738,0.019-1.106,0.055c-4.501,0.111-8.78,0.258-12.838,0.442c-4.354,0.222-8.431,0.48-12.23,0.776
		c-9.075,0.813-17.099,2.068-24.07,3.767c-6.974,1.736-11.861,3.656-14.665,5.761c-0.96,0.738-1.771,1.605-2.436,2.603
		c-0.701,1.034-1.254,2.197-1.659,3.49c-0.443,1.699-0.665,3.674-0.665,5.926c0,1.219,0.074,2.513,0.222,3.878
		c0,0.074,0.019,0.13,0.056,0.167c0.221,2.142,0.498,4.245,0.829,6.313c0.48,2.957,1.089,5.8,1.827,8.532
		c0.442,1.625,0.939,3.175,1.493,4.652c0.038,0.11,0.075,0.222,0.112,0.334c0.404,1.144,0.829,2.251,1.271,3.322
		c0.628,1.402,1.272,2.75,1.938,4.043c0.11,0.222,0.239,0.442,0.387,0.666c0.147,0.293,0.314,0.59,0.498,0.884
		c1.402,2.364,3.266,4.708,5.59,7.036c2.803,2.769,5.626,4.819,8.466,6.147c2.398,1.183,4.888,2.142,7.47,2.88
		c2.547,0.665,5.442,1.183,8.689,1.552c5.718,0.628,11.344,0.684,16.878,0.166c2.213-0.221,4.408-0.535,6.585-0.941
		c2.619-0.479,5.072-1.071,7.359-1.773c4.463-1.329,8.393-3.102,11.786-5.316c3.579-2.326,6.807-5.576,9.686-9.75
		c0.184-0.294,0.386-0.591,0.608-0.884c0.959-1.479,1.881-3.047,2.766-4.709c0.554-1.071,1.089-2.179,1.605-3.322
		c0.037-0.112,0.092-0.224,0.165-0.334c1.106-2.512,2.14-5.226,3.1-8.143c0.554-1.661,1.051-3.343,1.494-5.042
		c0.554-2.067,1.033-4.171,1.438-6.313c0.258-1.329,0.48-2.678,0.665-4.045C271.604,150.472,271.715,149.641,271.827,148.791z
		 M148.038,133.06c-4.094-0.111-9.555-0.979-16.379-2.604c-11.4-2.695-21.767-4.782-31.099-6.259
		c-6.05-0.997-12.064-1.772-18.04-2.326c-3.21-0.332-6.42-0.609-9.629-0.831c-1.955-0.11-3.855-0.203-5.7-0.277
		c-2.73-0.11-5.385-0.166-7.969-0.166c-2.95,0-4.555,0.037-4.813,0.111c-0.295,0.073,0.424,0.185,2.158,0.332
		c1.771,0.185,5.312,0.425,10.624,0.72c1.107,0.074,2.269,0.148,3.487,0.222c4.242,0.221,8.189,0.48,11.842,0.775
		c6.271,0.48,11.658,1.053,16.158,1.718c7.157,1.034,16.841,2.991,29.052,5.871c5.792,1.366,9.702,2.216,11.731,2.548
		c1.993,0.333,4.557,0.535,7.692,0.609c3.173,0.111,5.534,0.093,7.083-0.056c1.624-0.147,4.445-0.627,8.466-1.44
		c10.921-2.142,23.059-4.099,36.412-5.871c9.481-1.256,15.033-2.013,16.657-2.271c1.032-0.147,1.549-0.258,1.549-0.332h-1.052
		c-3.246-0.111-10.439,0.646-21.58,2.271c-11.142,1.663-21.472,3.472-30.989,5.429C157.353,132.562,152.133,133.171,148.038,133.06z
		 M83.459,128.407c-0.313-0.015-0.626-0.034-0.94-0.055c-0.923-0.074-1.882-0.147-2.878-0.222c-2.203-0.176-4.85-0.342-7.94-0.498
		c-0.791-0.036-1.613-0.073-2.462-0.111c-0.701-0.037-1.383-0.074-2.048-0.111c-3.283-0.148-6.16-0.24-8.632-0.277
		c-11.474-0.222-19.258,0.184-23.352,1.218c-2.25,0.59-3.967,1.421-5.146,2.493c-1.107,1.033-1.918,2.437-2.435,4.209
		c-0.332,1.182-0.517,2.252-0.553,3.213c-0.037,0.775,0.018,1.976,0.166,3.6c0.037,0.517,0.073,1.089,0.111,1.718
		c0.258,2.437,0.664,5.003,1.217,7.698c0.295,1.331,0.627,2.678,0.996,4.045c0.273,1.064,0.568,2.152,0.885,3.267
		c0.077,0.241,0.15,0.48,0.222,0.721c0.222,0.775,0.461,1.553,0.72,2.325c0.05,0.154,0.096,0.313,0.138,0.473
		c0.9,2.682,1.888,5.258,2.96,7.728c0.752,1.712,1.545,3.373,2.38,4.984c0,0.073,0.018,0.13,0.055,0.166
		c0.037,0.073,0.073,0.131,0.11,0.168c0.59,1.181,1.199,2.288,1.826,3.322c0.849,1.402,1.697,2.658,2.546,3.767
		c0.221,0.295,0.48,0.608,0.775,0.942c0.222,0.293,0.461,0.59,0.718,0.884c1.144,1.404,2.49,2.826,4.041,4.267
		c2.066,1.847,4.187,3.342,6.363,4.485c0.959,0.555,2.104,1.09,3.431,1.607c1.55,0.628,3.357,1.255,5.423,1.884
		c1.845,0.554,3.523,1.034,5.035,1.438c1.63,0.39,3.105,0.703,4.427,0.943c0.563,0.105,1.098,0.198,1.605,0.276
		c2.25,0.295,5.349,0.48,9.297,0.555c0.578,0,1.167,0,1.771,0c0.631,0,1.276,0,1.937,0c4.612,0,7.71-0.074,9.297-0.224
		c1.624-0.109,3.301-0.405,5.036-0.884c7.267-2.032,13.022-5.688,17.264-10.969c0.554-0.664,1.07-1.366,1.55-2.104
		c0.258-0.408,0.535-0.832,0.83-1.275c0.147-0.294,0.313-0.591,0.499-0.884c0.811-1.442,1.585-3.01,2.324-4.709
		c0.443-1.071,0.867-2.179,1.273-3.322c0.037-0.112,0.073-0.224,0.11-0.334c0.542-1.569,1.051-3.23,1.522-4.984
		c0.675-2.54,1.275-5.272,1.798-8.2c0.157-0.985,0.313-2.003,0.47-3.046c0.102-0.67,0.204-1.354,0.306-2.05
		c0.073-0.405,0.128-0.81,0.165-1.217c0.148-1.404,0.221-2.751,0.221-4.045c0-1.918-0.185-3.71-0.553-5.371
		c-0.332-1.552-0.793-2.9-1.383-4.044c-0.627-1.145-1.383-2.105-2.269-2.88c-3.616-3.175-10.44-5.853-20.475-8.031
		c-3.467-0.665-6.714-1.2-9.739-1.606C92.006,129.071,88.336,128.757,83.459,128.407z M10.359,132.562
		c1.217,0.739,2.637,1.273,4.261,1.606c1.697,0.368,3.247,0.48,4.648,0.332c1.66-0.221,2.583-0.424,2.767-0.609
		c0.296-0.295-0.073-0.757-1.106-1.385c-0.959-0.665-2.066-1.182-3.32-1.551c-1.476-0.443-2.749-0.665-3.819-0.665
		s-2.195,0.203-3.375,0.609l-1.66,0.609L10.359,132.562z"/>
	<path fill-rule="evenodd" clip-rule="evenodd" fill="#FFFFFF" d="M271.827,148.791c-0.112,0.851-0.223,1.681-0.332,2.492
		c-0.185,1.367-0.407,2.716-0.665,4.045c-0.405,2.142-0.885,4.245-1.438,6.313c-0.443,1.699-0.94,3.381-1.494,5.042
		c-0.96,2.917-1.993,5.631-3.1,8.143c-0.073,0.11-0.128,0.222-0.165,0.334c-0.517,1.144-1.052,2.251-1.605,3.322
		c-0.885,1.662-1.807,3.23-2.766,4.709c-0.223,0.293-0.425,0.59-0.608,0.884c-2.879,4.174-6.106,7.424-9.686,9.75
		c-3.394,2.215-7.323,3.987-11.786,5.316c-2.287,0.702-4.74,1.294-7.359,1.773c-2.177,0.406-4.372,0.721-6.585,0.941
		c-5.534,0.518-11.16,0.462-16.878-0.166c-3.247-0.369-6.143-0.887-8.689-1.552c-2.582-0.738-5.071-1.697-7.47-2.88
		c-2.84-1.328-5.663-3.379-8.466-6.147c-2.324-2.328-4.188-4.672-5.59-7.036c-0.184-0.294-0.351-0.591-0.498-0.884
		c-0.147-0.224-0.276-0.444-0.387-0.666c-0.665-1.293-1.31-2.641-1.938-4.043c-0.442-1.071-0.867-2.179-1.271-3.322
		c-0.037-0.112-0.074-0.224-0.112-0.334c-0.554-1.478-1.051-3.027-1.493-4.652c-0.738-2.732-1.347-5.575-1.827-8.532
		c-0.331-2.067-0.608-4.171-0.829-6.313c-0.037-0.037-0.056-0.093-0.056-0.167c-0.147-1.365-0.222-2.659-0.222-3.878
		c0-2.252,0.222-4.227,0.665-5.926c0.405-1.292,0.958-2.456,1.659-3.49c0.665-0.998,1.476-1.865,2.436-2.603
		c2.804-2.105,7.691-4.025,14.665-5.761c6.972-1.699,14.995-2.954,24.07-3.767c3.8-0.295,7.876-0.554,12.23-0.776
		c4.058-0.184,8.337-0.332,12.838-0.442c0.368-0.037,0.737-0.055,1.106-0.055c8.743-0.148,14.756-0.02,18.039,0.387
		c8.633,0.998,13.706,3.397,15.218,7.2c0.517,1.367,0.793,3.306,0.831,5.816C272.27,143.825,272.121,146.131,271.827,148.791z
		 M267.842,160.313h-41.115l-0.055-16.839c-0.037-6.684-0.074-11.392-0.111-14.125c-3.063,0.148-5.699,0.314-7.912,0.499
		c-0.997,0.073-1.957,0.147-2.878,0.221c-0.628,0.037-1.236,0.092-1.826,0.166c-0.037,2.622-0.056,7.441-0.056,14.458l-0.056,15.62
		h-43.771c0.185,1.033,0.351,2.048,0.499,3.046c0.517,2.917,1.106,5.649,1.77,8.198h41.559l0.056,16.895
		c0.037,5.686,0.055,9.951,0.055,12.794c0.59,0,1.181,0,1.771,0c3.947-0.073,7.046-0.259,9.296-0.555
		c0.517-0.073,1.052-0.165,1.605-0.276c0-2.807,0.019-7.2,0.055-13.183v-15.675h37.076c1.144-2.622,2.177-5.354,3.099-8.198
		c0.259-0.775,0.498-1.551,0.72-2.325C267.695,160.772,267.769,160.532,267.842,160.313z M128.199,158.594H84.456l-0.056-15.62
		c0-7.009-0.018-11.837-0.055-14.483c-0.294-0.025-0.589-0.053-0.885-0.084c4.877,0.351,8.547,0.664,11.012,0.942
		c3.025,0.406,6.272,0.941,9.739,1.606c10.034,2.179,16.859,4.856,20.475,8.031c0.885,0.775,1.642,1.736,2.269,2.88
		c0.59,1.145,1.052,2.493,1.383,4.044c0.369,1.661,0.553,3.453,0.553,5.371c0,1.294-0.073,2.641-0.221,4.045
		c-0.037,0.407-0.092,0.812-0.165,1.217C128.402,157.24,128.301,157.924,128.199,158.594z M101.334,140.592
		c0.183,0.444,0.405,1.183,0.663,2.216c0.185,0.998,0.24,1.496,0.167,1.496c-0.112,0-0.738-0.148-1.882-0.442
		c-1.144-0.296-1.808-0.48-1.992-0.554c-0.111-0.075-0.203,0.037-0.276,0.331c-0.037,0.333-0.056,1.054-0.056,2.162v2.658
		l1.218-0.388c0.812-0.257,1.53-0.443,2.158-0.554l0.996-0.11l-0.333,1.441c-0.222,0.959-0.406,1.642-0.553,2.049l-0.222,0.72h2.602
		c1.107,0,1.807-0.019,2.103-0.056c0.295-0.037,0.425-0.131,0.388-0.278c-0.148-0.367-0.352-1.087-0.61-2.159
		c-0.257-1.034-0.35-1.571-0.277-1.607c0.075-0.074,0.59-0.017,1.55,0.166c0.96,0.186,1.642,0.371,2.047,0.554l0.665,0.277v-2.659
		c0-1.182-0.019-1.902-0.055-2.159c-0.037-0.333-0.129-0.462-0.277-0.387c-0.222,0.073-0.886,0.257-1.993,0.554
		c-1.107,0.294-1.715,0.442-1.825,0.442c-0.112,0-0.092-0.406,0.055-1.219c0.147-0.811,0.35-1.532,0.608-2.159l0.388-0.998h-5.479
		L101.334,140.592z M97.902,179.977v2.658c0,1.145,0.019,1.864,0.055,2.159c0.037,0.297,0.129,0.408,0.276,0.333
		c0.222-0.074,0.867-0.26,1.937-0.554c1.033-0.259,1.642-0.388,1.826-0.388c0.111,0,0.092,0.462-0.055,1.384
		c-0.185,0.923-0.407,1.7-0.665,2.327L101,188.562h2.767c1.292,0,2.067-0.02,2.325-0.057c0.258-0.036,0.332-0.146,0.222-0.331
		c-0.148-0.26-0.37-0.979-0.665-2.161c-0.295-1.146-0.405-1.735-0.332-1.771c0.037-0.037,0.608,0.073,1.715,0.332
		c1.144,0.258,1.881,0.461,2.214,0.609c0.147,0.036,0.24-0.092,0.276-0.389c0.037-0.295,0.055-1.015,0.055-2.159v-2.658
		l-1.162,0.386c-0.775,0.259-1.512,0.443-2.214,0.554l-0.996,0.168l0.111-0.664c0.11-0.407,0.258-0.998,0.442-1.774
		c0.221-0.812,0.369-1.31,0.442-1.496c0.037-0.109-0.11-0.183-0.442-0.22s-0.996-0.056-1.993-0.056h-2.6l0.222,0.664
		c0.146,0.406,0.313,1.107,0.498,2.104l0.387,1.441l-0.996-0.11c-0.664-0.112-1.402-0.297-2.214-0.554L97.902,179.977z
		 M84.29,199.529c0.015-2.835,0.035-7.1,0.055-12.797L84.4,169.84h41.531c-0.471,1.754-0.979,3.415-1.522,4.984
		c-0.037,0.11-0.073,0.222-0.11,0.334c-0.407,1.144-0.83,2.251-1.273,3.322c-0.738,1.699-1.513,3.267-2.324,4.709
		c-0.185,0.293-0.351,0.59-0.499,0.884c-0.295,0.443-0.571,0.867-0.83,1.275c-0.48,0.738-0.997,1.44-1.55,2.104
		c-4.242,5.28-9.997,8.937-17.264,10.969c-1.735,0.479-3.412,0.774-5.036,0.884c-1.586,0.149-4.685,0.224-9.297,0.224
		C85.566,199.529,84.921,199.529,84.29,199.529z M30.446,158.594c-0.317-1.114-0.612-2.202-0.885-3.267
		c-0.368-1.367-0.7-2.714-0.996-4.045c-0.553-2.695-0.959-5.261-1.217-7.698c-0.038-0.628-0.074-1.201-0.111-1.718
		c-0.148-1.625-0.203-2.825-0.166-3.6c0.037-0.96,0.221-2.031,0.553-3.213c0.517-1.772,1.328-3.176,2.435-4.209
		c1.18-1.072,2.896-1.903,5.146-2.493c4.094-1.034,11.878-1.44,23.352-1.218c2.472,0.037,5.349,0.129,8.632,0.277
		c0.665,0.037,1.347,0.074,2.048,0.111c0.85,0.038,1.671,0.075,2.462,0.111c-0.031,2.743-0.059,7.452-0.083,14.125l-0.055,16.837
		H30.446z M50.589,180.974c-0.074,0.074-0.59,0.018-1.549-0.168c-0.96-0.185-1.642-0.369-2.048-0.553l-0.664-0.276v2.658
		c0,1.145,0.019,1.864,0.055,2.159c0.037,0.297,0.129,0.425,0.277,0.389c0.222-0.075,0.885-0.259,1.992-0.555
		c1.106-0.294,1.715-0.442,1.827-0.442c0.11,0,0.092,0.404-0.055,1.219c-0.148,0.812-0.351,1.531-0.609,2.159l-0.387,0.998h5.479
		l-0.276-0.665c-0.185-0.479-0.388-1.22-0.608-2.215c-0.222-0.998-0.297-1.496-0.222-1.496c0.146,0,0.793,0.148,1.937,0.442
		c1.107,0.296,1.752,0.463,1.937,0.499c0.147,0.075,0.24-0.036,0.277-0.333c0.074-0.295,0.11-1.015,0.11-2.159v-2.658l-1.217,0.443
		c-0.812,0.257-1.55,0.441-2.213,0.554l-0.942,0.11l0.277-1.441c0.258-0.997,0.461-1.698,0.61-2.104l0.165-0.664h-2.601
		c-1.07,0-1.751,0.019-2.047,0.056c-0.333,0.037-0.461,0.11-0.387,0.22c0.147,0.407,0.35,1.127,0.608,2.162
		C50.534,180.382,50.626,180.938,50.589,180.974z M34.486,169.84h37.076v15.675c0.021,5.984,0.04,10.379,0.055,13.184
		c-1.322-0.24-2.797-0.554-4.427-0.943c-1.512-0.404-3.19-0.885-5.035-1.438c-2.066-0.629-3.874-1.256-5.423-1.884
		c-1.327-0.518-2.471-1.053-3.431-1.607c-2.176-1.144-4.297-2.639-6.363-4.485c-1.55-1.44-2.897-2.862-4.041-4.267
		c-0.257-0.294-0.497-0.591-0.718-0.884c-0.295-0.334-0.554-0.647-0.775-0.942c-0.849-1.108-1.697-2.364-2.546-3.767
		c-0.627-1.034-1.236-2.142-1.826-3.322c-0.037-0.037-0.074-0.095-0.11-0.168c-0.037-0.036-0.055-0.093-0.055-0.166
		C36.032,173.213,35.238,171.552,34.486,169.84z M240.229,181.692v2.658c0,1.145,0.037,1.865,0.11,2.161
		c0.036,0.295,0.129,0.406,0.277,0.331c0.184-0.036,0.829-0.202,1.936-0.497c1.144-0.296,1.791-0.444,1.938-0.444
		c0.073,0,0,0.5-0.223,1.496c-0.221,0.998-0.423,1.736-0.608,2.215l-0.275,0.666h5.478l-0.388-0.997
		c-0.257-0.628-0.46-1.348-0.608-2.161c-0.146-0.811-0.165-1.219-0.056-1.219c0.11,0,0.721,0.148,1.827,0.444
		c1.107,0.295,1.771,0.48,1.991,0.554c0.148,0.036,0.241-0.093,0.277-0.388c0.037-0.296,0.055-1.017,0.055-2.161v-2.658
		l-0.663,0.277c-0.406,0.186-1.088,0.368-2.048,0.554c-0.959,0.185-1.476,0.24-1.549,0.165c-0.037-0.036,0.055-0.59,0.277-1.66
		c0.256-1.033,0.459-1.754,0.608-2.16c0.073-0.111-0.056-0.186-0.389-0.223c-0.296-0.036-0.978-0.055-2.047-0.055h-2.601
		l0.165,0.664c0.148,0.406,0.352,1.107,0.609,2.105l0.275,1.439l-0.94-0.111c-0.663-0.109-1.4-0.294-2.213-0.553L240.229,181.692z
		 M251.905,145.356c-0.036-0.296-0.129-0.406-0.277-0.333c-0.367,0.148-1.106,0.352-2.213,0.61
		c-1.144,0.257-1.734,0.369-1.771,0.332c-0.036-0.037,0.093-0.646,0.389-1.827c0.258-1.145,0.461-1.848,0.608-2.105
		c0.11-0.185,0.036-0.296-0.223-0.333c-0.258-0.038-1.032-0.055-2.323-0.055h-2.767l0.276,0.665c0.296,0.627,0.535,1.403,0.72,2.326
		c0.147,0.924,0.147,1.385,0,1.385c-0.148,0-0.757-0.147-1.826-0.444c-1.033-0.257-1.679-0.442-1.938-0.554
		c-0.147-0.073-0.239,0.037-0.276,0.333c-0.036,0.296-0.055,1.015-0.055,2.16v2.659l1.162-0.387
		c0.849-0.259,1.585-0.443,2.213-0.554l0.995-0.11l-0.332,1.439c-0.221,0.961-0.404,1.645-0.553,2.051l-0.222,0.718h2.602
		c1.032,0,1.715-0.017,2.048-0.054c0.331-0.036,0.479-0.111,0.443-0.222c-0.075-0.185-0.223-0.684-0.443-1.495
		c-0.223-0.775-0.369-1.366-0.442-1.772l-0.166-0.665l1.052,0.166c0.663,0.075,1.4,0.24,2.213,0.499l1.161,0.387v-2.603
		C251.96,146.428,251.942,145.689,251.905,145.356z M194.52,178.591c-0.995,0-1.659,0.019-1.99,0.055
		c-0.333,0.037-0.479,0.111-0.442,0.223c0.073,0.184,0.22,0.684,0.442,1.494c0.184,0.776,0.331,1.367,0.441,1.773l0.111,0.664
		l-0.995-0.165c-0.702-0.111-1.44-0.297-2.214-0.553l-1.163-0.39v2.658c0,1.145,0.019,1.865,0.056,2.161
		c0.037,0.295,0.13,0.424,0.277,0.388c0.332-0.146,1.07-0.351,2.213-0.609c1.106-0.258,1.679-0.369,1.715-0.332
		c0.074,0.037-0.036,0.627-0.331,1.771c-0.296,1.183-0.517,1.902-0.665,2.159c-0.11,0.188-0.037,0.298,0.222,0.334
		c0.258,0.037,1.033,0.056,2.323,0.056h2.769l-0.277-0.666c-0.257-0.627-0.479-1.401-0.664-2.325
		c-0.147-0.923-0.167-1.386-0.055-1.386c0.185,0,0.793,0.131,1.825,0.389c1.07,0.295,1.716,0.479,1.938,0.553
		c0.147,0.075,0.239-0.036,0.275-0.331c0.037-0.296,0.057-1.017,0.057-2.161v-2.658l-1.163,0.443
		c-0.81,0.259-1.549,0.443-2.213,0.553l-0.996,0.111l0.388-1.439c0.185-0.998,0.352-1.699,0.498-2.105l0.221-0.664H194.52z
		 M200.275,145.356c-0.073-0.296-0.165-0.406-0.276-0.333c-0.186,0.074-0.849,0.26-1.992,0.554c-1.144,0.296-1.77,0.444-1.882,0.444
		c-0.073,0-0.019-0.498,0.167-1.495c0.258-1.035,0.479-1.771,0.663-2.215l0.222-0.665h-5.479l0.389,0.997
		c0.257,0.629,0.46,1.348,0.608,2.161c0.146,0.811,0.165,1.218,0.055,1.218s-0.72-0.147-1.827-0.444
		c-1.106-0.294-1.77-0.479-1.991-0.554c-0.147-0.073-0.24,0.056-0.277,0.389c-0.036,0.258-0.055,0.979-0.055,2.16v2.659l0.663-0.277
		c0.407-0.186,1.089-0.37,2.049-0.554c0.958-0.187,1.476-0.24,1.549-0.167c0.074,0.037-0.019,0.573-0.276,1.606
		c-0.258,1.071-0.461,1.792-0.609,2.161c-0.037,0.147,0.093,0.24,0.388,0.276c0.296,0.037,0.996,0.054,2.103,0.054h2.602
		l-0.221-0.718c-0.149-0.406-0.332-1.09-0.554-2.051l-0.332-1.439l0.995,0.11c0.628,0.111,1.347,0.295,2.158,0.554l1.217,0.387
		v-2.659C200.33,146.408,200.312,145.689,200.275,145.356z M54.961,139.928h-2.767c-1.292,0-2.066,0.019-2.324,0.055
		c-0.258,0.037-0.333,0.148-0.222,0.333c0.147,0.259,0.35,0.96,0.608,2.104c0.295,1.182,0.424,1.792,0.387,1.829
		s-0.627-0.073-1.771-0.333c-1.107-0.257-1.845-0.461-2.213-0.607c-0.147-0.075-0.24,0.037-0.277,0.331
		c-0.037,0.333-0.055,1.071-0.055,2.216v2.604l1.162-0.388c0.812-0.257,1.55-0.425,2.213-0.498l1.051-0.167l-0.166,0.665
		c-0.074,0.406-0.222,0.997-0.442,1.773c-0.222,0.812-0.369,1.31-0.443,1.497c-0.037,0.109,0.11,0.184,0.443,0.221
		c0.332,0.037,1.014,0.056,2.047,0.056h2.601l-0.221-0.72c-0.148-0.407-0.333-1.09-0.553-2.049l-0.333-1.441l0.997,0.11
		c0.627,0.111,1.365,0.297,2.213,0.554l1.162,0.388V145.8c0-1.145-0.018-1.865-0.055-2.162c-0.037-0.294-0.13-0.406-0.277-0.331
		c-0.258,0.11-0.904,0.294-1.937,0.554c-1.07,0.294-1.678,0.442-1.827,0.442c-0.146,0-0.146-0.462,0-1.385
		c0.185-0.923,0.425-1.698,0.72-2.328L54.961,139.928z"/>
	<path fill-rule="evenodd" clip-rule="evenodd" fill="#E8112D" d="M267.842,160.313c-0.073,0.22-0.146,0.46-0.221,0.721
		c-0.222,0.774-0.461,1.55-0.72,2.325c-0.922,2.844-1.955,5.576-3.099,8.198h-37.076v15.675c-0.036,5.982-0.055,10.376-0.055,13.183
		c-0.554,0.111-1.089,0.203-1.605,0.276c-2.25,0.296-5.349,0.481-9.296,0.555c-0.591,0-1.182,0-1.771,0
		c0-2.843-0.018-7.108-0.055-12.794l-0.056-16.895H172.33c-0.663-2.549-1.253-5.281-1.77-8.198
		c-0.148-0.998-0.314-2.013-0.499-3.046h43.771l0.056-15.62c0-7.017,0.019-11.836,0.056-14.458c0.59-0.074,1.198-0.129,1.826-0.166
		c0.921-0.074,1.881-0.148,2.878-0.221c2.213-0.185,4.85-0.351,7.912-0.499c0.037,2.733,0.074,7.441,0.111,14.125l0.055,16.839
		H267.842z M84.29,199.529c-0.603,0-1.193,0-1.771,0c-3.948-0.074-7.046-0.26-9.297-0.555c-0.507-0.078-1.042-0.171-1.605-0.276
		c-0.015-2.805-0.034-7.199-0.055-13.184V169.84H34.486c-1.073-2.47-2.06-5.046-2.96-7.728c-0.042-0.16-0.088-0.318-0.138-0.473
		c-0.258-0.772-0.498-1.55-0.72-2.325c-0.071-0.24-0.145-0.479-0.222-0.721h41.116l0.055-16.837
		c0.025-6.673,0.053-11.382,0.083-14.125c3.091,0.156,5.738,0.322,7.94,0.498c0.996,0.075,1.955,0.148,2.878,0.222
		c0.314,0.021,0.627,0.04,0.94,0.055c0.296,0.031,0.591,0.059,0.885,0.084c0.037,2.646,0.055,7.475,0.055,14.483l0.056,15.62h43.743
		c-0.156,1.043-0.313,2.061-0.47,3.046c-0.523,2.928-1.123,5.66-1.798,8.2H84.4l-0.055,16.893
		C84.324,192.43,84.305,196.694,84.29,199.529z M50.589,180.974c0.037-0.036-0.056-0.592-0.277-1.662
		c-0.258-1.035-0.461-1.755-0.608-2.162c-0.074-0.109,0.055-0.183,0.387-0.22c0.296-0.037,0.978-0.056,2.047-0.056h2.601
		l-0.165,0.664c-0.148,0.406-0.352,1.107-0.61,2.104l-0.277,1.441l0.942-0.11c0.663-0.112,1.401-0.297,2.213-0.554l1.217-0.443
		v2.658c0,1.145-0.037,1.864-0.11,2.159c-0.037,0.297-0.129,0.408-0.277,0.333c-0.184-0.036-0.83-0.203-1.937-0.499
		c-1.143-0.294-1.79-0.442-1.937-0.442c-0.075,0,0,0.498,0.222,1.496c0.22,0.995,0.423,1.735,0.608,2.215l0.276,0.665h-5.479
		l0.387-0.998c0.258-0.628,0.461-1.348,0.609-2.159c0.147-0.814,0.166-1.219,0.055-1.219c-0.111,0-0.72,0.148-1.827,0.442
		c-1.107,0.296-1.77,0.479-1.992,0.555c-0.147,0.036-0.24-0.092-0.277-0.389c-0.037-0.295-0.055-1.015-0.055-2.159v-2.658
		l0.664,0.276c0.407,0.184,1.088,0.368,2.048,0.553C49.999,180.991,50.516,181.048,50.589,180.974z M97.902,179.977l1.162,0.443
		c0.812,0.257,1.55,0.441,2.214,0.554l0.996,0.11l-0.387-1.441c-0.185-0.997-0.352-1.698-0.498-2.104l-0.222-0.664h2.6
		c0.997,0,1.66,0.019,1.993,0.056s0.479,0.11,0.442,0.22c-0.073,0.187-0.222,0.685-0.442,1.496
		c-0.184,0.776-0.333,1.367-0.442,1.774l-0.111,0.664l0.996-0.168c0.702-0.11,1.439-0.295,2.214-0.554l1.162-0.386v2.658
		c0,1.145-0.019,1.864-0.055,2.159c-0.037,0.297-0.129,0.425-0.276,0.389c-0.333-0.148-1.07-0.352-2.214-0.609
		c-1.106-0.259-1.678-0.369-1.715-0.332c-0.074,0.036,0.037,0.626,0.332,1.771c0.295,1.182,0.517,1.901,0.665,2.161
		c0.11,0.185,0.037,0.295-0.222,0.331c-0.258,0.037-1.033,0.057-2.325,0.057H101l0.277-0.665c0.258-0.627,0.479-1.404,0.665-2.327
		c0.147-0.922,0.166-1.384,0.055-1.384c-0.184,0-0.793,0.129-1.826,0.388c-1.07,0.294-1.715,0.479-1.937,0.554
		c-0.147,0.075-0.24-0.036-0.276-0.333c-0.037-0.295-0.055-1.015-0.055-2.159V179.977z M101.334,140.592l-0.222-0.664h5.479
		l-0.388,0.998c-0.258,0.627-0.461,1.348-0.608,2.159c-0.147,0.813-0.167,1.219-0.055,1.219c0.11,0,0.718-0.148,1.825-0.442
		c1.107-0.296,1.771-0.48,1.993-0.554c0.147-0.075,0.24,0.054,0.277,0.387c0.037,0.257,0.055,0.978,0.055,2.159v2.659l-0.665-0.277
		c-0.406-0.184-1.087-0.369-2.047-0.554c-0.96-0.183-1.475-0.24-1.55-0.166c-0.073,0.037,0.02,0.573,0.277,1.607
		c0.258,1.071,0.461,1.792,0.61,2.159c0.037,0.147-0.093,0.241-0.388,0.278c-0.295,0.037-0.996,0.056-2.103,0.056h-2.602l0.222-0.72
		c0.147-0.407,0.332-1.09,0.553-2.049l0.333-1.441l-0.996,0.11c-0.628,0.111-1.347,0.297-2.158,0.554l-1.218,0.388V145.8
		c0-1.107,0.019-1.829,0.056-2.162c0.073-0.294,0.166-0.406,0.276-0.331c0.184,0.073,0.849,0.257,1.992,0.554
		c1.144,0.294,1.77,0.442,1.882,0.442c0.073,0,0.018-0.499-0.167-1.496C101.739,141.775,101.517,141.036,101.334,140.592z
		 M200.275,145.356c0.036,0.333,0.055,1.052,0.055,2.16v2.659l-1.217-0.387c-0.812-0.259-1.53-0.443-2.158-0.554l-0.995-0.11
		l0.332,1.439c0.222,0.961,0.404,1.645,0.554,2.051l0.221,0.718h-2.602c-1.106,0-1.807-0.017-2.103-0.054
		c-0.295-0.036-0.425-0.129-0.388-0.276c0.148-0.369,0.352-1.09,0.609-2.161c0.258-1.033,0.351-1.569,0.276-1.606
		c-0.073-0.073-0.591-0.02-1.549,0.167c-0.96,0.184-1.642,0.368-2.049,0.554l-0.663,0.277v-2.659c0-1.181,0.019-1.902,0.055-2.16
		c0.037-0.333,0.13-0.462,0.277-0.389c0.222,0.074,0.885,0.26,1.991,0.554c1.107,0.296,1.717,0.444,1.827,0.444
		s0.092-0.407-0.055-1.218c-0.148-0.813-0.352-1.531-0.608-2.161l-0.389-0.997h5.479l-0.222,0.665
		c-0.185,0.444-0.405,1.181-0.663,2.215c-0.186,0.998-0.24,1.495-0.167,1.495c0.112,0,0.738-0.147,1.882-0.444
		c1.144-0.294,1.807-0.479,1.992-0.554C200.11,144.95,200.202,145.06,200.275,145.356z M194.52,178.591h2.602l-0.221,0.664
		c-0.146,0.406-0.313,1.107-0.498,2.105l-0.388,1.439l0.996-0.111c0.664-0.109,1.403-0.294,2.213-0.553l1.163-0.443v2.658
		c0,1.145-0.02,1.865-0.057,2.161c-0.036,0.295-0.128,0.406-0.275,0.331c-0.222-0.073-0.867-0.258-1.938-0.553
		c-1.032-0.258-1.641-0.389-1.825-0.389c-0.112,0-0.093,0.463,0.055,1.386c0.185,0.924,0.407,1.698,0.664,2.325l0.277,0.666h-2.769
		c-1.29,0-2.065-0.019-2.323-0.056c-0.259-0.036-0.332-0.146-0.222-0.334c0.148-0.257,0.369-0.977,0.665-2.159
		c0.295-1.145,0.405-1.734,0.331-1.771c-0.036-0.037-0.608,0.074-1.715,0.332c-1.143,0.259-1.881,0.463-2.213,0.609
		c-0.147,0.036-0.24-0.093-0.277-0.388c-0.037-0.296-0.056-1.017-0.056-2.161v-2.658l1.163,0.39
		c0.773,0.256,1.512,0.441,2.214,0.553l0.995,0.165l-0.111-0.664c-0.11-0.406-0.258-0.997-0.441-1.773
		c-0.223-0.811-0.369-1.311-0.442-1.494c-0.037-0.111,0.109-0.186,0.442-0.223C192.86,178.609,193.524,178.591,194.52,178.591z
		 M251.905,145.356c0.037,0.333,0.055,1.071,0.055,2.216v2.603l-1.161-0.387c-0.813-0.259-1.55-0.424-2.213-0.499l-1.052-0.166
		l0.166,0.665c0.073,0.407,0.22,0.997,0.442,1.772c0.221,0.812,0.368,1.311,0.443,1.495c0.036,0.11-0.112,0.186-0.443,0.222
		c-0.333,0.037-1.016,0.054-2.048,0.054h-2.602l0.222-0.718c0.148-0.406,0.332-1.09,0.553-2.051l0.332-1.439l-0.995,0.11
		c-0.628,0.111-1.364,0.295-2.213,0.554l-1.162,0.387v-2.659c0-1.145,0.019-1.864,0.055-2.16c0.037-0.296,0.129-0.406,0.276-0.333
		c0.259,0.111,0.904,0.296,1.938,0.554c1.069,0.296,1.678,0.444,1.826,0.444c0.147,0,0.147-0.461,0-1.385
		c-0.185-0.923-0.424-1.699-0.72-2.326l-0.276-0.665h2.767c1.291,0,2.065,0.018,2.323,0.055c0.259,0.037,0.333,0.147,0.223,0.333
		c-0.147,0.258-0.351,0.961-0.608,2.105c-0.296,1.181-0.425,1.791-0.389,1.827c0.037,0.037,0.628-0.075,1.771-0.332
		c1.106-0.259,1.846-0.462,2.213-0.61C251.776,144.95,251.869,145.06,251.905,145.356z M240.229,181.692l1.217,0.443
		c0.813,0.259,1.55,0.443,2.213,0.553l0.94,0.111l-0.275-1.439c-0.258-0.998-0.461-1.699-0.609-2.105l-0.165-0.664h2.601
		c1.069,0,1.751,0.019,2.047,0.055c0.333,0.037,0.462,0.111,0.389,0.223c-0.149,0.406-0.353,1.127-0.608,2.16
		c-0.223,1.07-0.314,1.624-0.277,1.66c0.073,0.075,0.59,0.02,1.549-0.165c0.96-0.186,1.642-0.368,2.048-0.554l0.663-0.277v2.658
		c0,1.145-0.018,1.865-0.055,2.161c-0.036,0.295-0.129,0.424-0.277,0.388c-0.221-0.073-0.884-0.259-1.991-0.554
		c-1.106-0.296-1.717-0.444-1.827-0.444c-0.109,0-0.091,0.408,0.056,1.219c0.148,0.813,0.352,1.533,0.608,2.161l0.388,0.997h-5.478
		l0.275-0.666c0.186-0.479,0.388-1.217,0.608-2.215c0.223-0.996,0.296-1.496,0.223-1.496c-0.146,0-0.794,0.148-1.938,0.444
		c-1.106,0.295-1.752,0.461-1.936,0.497c-0.148,0.075-0.241-0.036-0.277-0.331c-0.073-0.296-0.11-1.017-0.11-2.161V181.692z
		 M54.961,139.928l-0.277,0.664c-0.295,0.629-0.535,1.405-0.72,2.328c-0.146,0.923-0.146,1.385,0,1.385
		c0.148,0,0.757-0.148,1.827-0.442c1.033-0.26,1.679-0.444,1.937-0.554c0.147-0.075,0.24,0.037,0.277,0.331
		c0.037,0.296,0.055,1.017,0.055,2.162v2.658l-1.162-0.388c-0.848-0.257-1.586-0.443-2.213-0.554l-0.997-0.11l0.333,1.441
		c0.22,0.959,0.405,1.642,0.553,2.049l0.221,0.72h-2.601c-1.033,0-1.715-0.019-2.047-0.056c-0.333-0.037-0.48-0.111-0.443-0.221
		c0.074-0.187,0.221-0.685,0.443-1.497c0.221-0.776,0.369-1.367,0.442-1.773l0.166-0.665l-1.051,0.167
		c-0.664,0.073-1.402,0.241-2.213,0.498l-1.162,0.388v-2.604c0-1.145,0.019-1.883,0.055-2.216c0.037-0.294,0.129-0.406,0.277-0.331
		c0.368,0.146,1.106,0.35,2.213,0.607c1.143,0.26,1.734,0.37,1.771,0.333s-0.092-0.647-0.387-1.829
		c-0.258-1.144-0.461-1.846-0.608-2.104c-0.111-0.184-0.037-0.295,0.222-0.333c0.257-0.037,1.032-0.055,2.324-0.055H54.961z"/>
</g>
</svg>
