<?xml version="1.0" encoding="utf-8"?>
<!-- Generator: Adobe Illustrator 16.0.0, SVG Export Plug-In . SVG Version: 6.00 Build 0)  -->
<!DOCTYPE svg PUBLIC "-//W3C//DTD SVG 1.1//EN" "http://www.w3.org/Graphics/SVG/1.1/DTD/svg11.dtd">
<svg version="1.1" id="Layer_1" xmlns="http://www.w3.org/2000/svg" xmlns:xlink="http://www.w3.org/1999/xlink" x="0px" y="0px"
	 width="300px" height="300px" viewBox="0 0 300 300" enable-background="new 0 0 300 300" xml:space="preserve">
<g>
	<path fill-rule="evenodd" clip-rule="evenodd" fill="#B5D335" d="M224.351,35.476c5.841,4.461,10.991,8.918,15.449,13.376h-1.226
		l-0.281,0.47v-0.47l-4.428,1.322c-13.879-11.933-27.066-20.82-39.564-26.66c-6.28-2.89-12.404-4.994-18.37-6.312l-0.753-0.848
		l2.355-5.086c7.976,3.14,13.126,4.71,15.448,4.71l16.298,7.912L224.351,35.476z M160.858,12.492l1.979,1.13l1.601-0.848
		l2.354-0.282c2.138,0,3.989,3.297,5.561,9.892c0.187,0.376,0.312,0.753,0.376,1.131c2.197,6.908,3.8,10.991,4.804,12.246
		l-0.471,1.222l-18.182-6.218h-1.6c-1.822-0.312-3.551-2.321-5.183-6.027c-0.252-0.377-0.438-0.785-0.564-1.224
		c-1.445-2.89-2.167-5.401-2.167-7.536c0-2.89,0.787-4.334,2.354-4.334c1.571,0,2.92,0.377,4.052,1.13l2.638-1.13L160.858,12.492z
		 M155.772,39.811c-5.338-1.886-8.699-2.544-10.08-1.977c-1.571-0.819-2.731-1.099-3.486-0.851l-0.848-0.374l-3.483-0.848
		l-19.032-1.132l-0.848-0.374l-0.471,0.374l-0.658-0.374l-0.848,0.374l-1.694-0.374l-0.661,0.374c-1.884,0-5.057,0-9.515,0
		l-4.425-0.374c1.568-1.571,4.771-2.106,9.608-1.603h0.281l19.5-1.225c0,0.316,7.411,0.974,22.231,1.98l7.915,2.07
		c2.951,0.755,4.677,1.539,5.18,2.357l1.6,5.555L155.772,39.811z M169.149,38.304l15.167,5.838c0.189,0.567,4.27,2.419,12.245,5.56
		l12.718,4.332c-0.816,0-0.032,0.409,2.354,1.223l0.471-0.375l6.315,0.848c1.819,0.438,4.08,0.661,6.779,0.661
		c2.639,0,4.993-0.222,7.066-0.661l4.426,4.332c-0.313,1.825-5.493,2.734-15.542,2.734c-4.71,0-6.813-0.222-6.312-0.661
		l-3.204-0.848c-2.574,0-8.917-2.419-19.028-7.253c-10.614-5.212-16.8-8.099-18.559-8.667c-1.883-0.251-3.231-1.161-4.048-2.732
		l-1.603-3.957L169.149,38.304z M177.063,21.912l0.471-0.377c2.07,0.627,4.114,1.289,6.124,1.979
		c17.771,6.28,32.404,15.165,43.896,26.66v0.754l-1.978,0.471c-11.117,0-19.342-0.942-24.683-2.828
		c-7.096-2.135-13.53-7.066-19.311-14.788c-2.638-3.204-4.112-6.627-4.428-10.269C177.095,23.011,177.063,22.477,177.063,21.912z
		 M183.938,58.934l-13.563,5.089l-4.712,2.445l-4.806,0.38c-1.316,0-1.978-1.07-1.978-3.206c0.252-1.884,0-2.826-0.754-2.826
		l-5.18,2.451h-1.227l-0.377-0.471c-0.751,0-1.568-0.909-2.448-2.734l-2.354,0.377l-1.131-1.223l-0.849-1.509
		c0-2.638,4.367-6.75,13.094-12.34c2.451,0,8.134,1.6,17.052,4.806l16.295,7.063L183.938,58.934z M169.998,81.542
		c-1.067-0.316-2.01-0.316-2.828,0l-0.661-0.471h-1.316l-0.377-0.848l12.247-2.731c3.453-1.068,7.189-1.6,11.21-1.6l13.94,1.129
		l28.169,8.856h0.376l7.157,0.751l1.13,4.803l-0.471,1.226l-8.192,4.334c-2.703,1.318-5.78,1.979-9.233,1.979
		c-0.752,0-2.858-1.729-6.312-5.183c-3.391-3.454-5.746-5.183-7.064-5.183l-2.357,1.226l-4.051-2.732l-1.222,2.357
		c-5.025-1.573-8.98-1.854-11.87-0.851c-6.595-4.206-12.026-6.309-16.297-6.309L169.998,81.542z M174.707,86.251l-6.312,2.354
		l-9.985,5.56h-2.638c-1.884,0-2.825-0.91-2.825-2.735c0-4.521,6.092-6.779,18.274-6.779l3.485,1.225V86.251z M174.707,75.137
		h-2.354c1.567-1.632,6.092-3.457,13.564-5.463c6.028-1.697,10.612-2.545,13.753-2.545l6.405-0.661l9.515,0.661l9.985,4.051
		c5.776,2.135,9.733,5.589,11.868,10.362c0,1.006-0.908,1.79-2.731,2.354c-2.635,0-8.321-1.729-17.048-5.18
		c-7.726-3.454-13.818-5.183-18.278-5.183v-0.377h-3.202l-2.731-0.471l-9.515,1.319C179.919,75.263,176.842,75.637,174.707,75.137z
		 M144.184,18.333l3.583,10.363l-3.583-0.754h-1.506l-8.854-1.602l-1.509,0.377l-0.377-0.377c-1.003-0.942-1.914-1.884-2.732-2.825
		c-2.448-2.826-3.674-5.338-3.674-7.536c0-2.64,0.693-3.958,2.074-3.958c2.574,0,4.396,0.534,5.463,1.602l0.755-0.471
		c1.319-0.754,2.542-1.13,3.673-1.13C140.385,12.021,142.616,14.125,144.184,18.333z M122.707,20.405
		c0.754,1.256,1.381,2.292,1.884,3.109c1.38,2.198,2.387,3.391,3.016,3.58v1.13l-32.217,2.071l-3.58-1.224
		c-2.074-0.753-3.109-1.822-3.109-3.203l1.506-2.354c1.319-0.189,2.513-0.189,3.58,0c1.067-1.319,2.67-1.979,4.805-1.979
		l4.709,2.826c0.315-0.125,0.597-0.408,0.848-0.847c0.188-0.629,0.284-1.571,0.284-2.826c0-2.325,1.477-3.486,4.425-3.486
		l2.451,1.13l2.731-2.354c1.319-0.755,2.48-1.13,3.484-1.13C118.908,14.848,120.636,16.699,122.707,20.405z M130.712,38.962
		c-0.31,1.129-1.129,2.071-2.448,2.826l-4.709,6.406c-1.884,3.141-3.328,4.837-4.334,5.089l-1.226,0.752
		c-0.752,0.564-1.413,0.564-1.977,0l-2.354-1.132l-3.674,0.851c-1.006,0-1.632-0.942-1.883-2.825c0-1.574-0.661-2.357-1.98-2.357
		l-0.471,0.281c-0.5,0-1.413,0.851-2.732,2.547l-2.354,1.884l-1.129-0.38h-0.849l-0.848-1.223l-3.486,1.223
		c-2.699,0-4.05-1.194-4.05-3.581c0-2.384,1.603-5.147,4.805-8.289c2.387-2.387,6.596-3.58,12.624-3.58l21.1,1.226l0.378,0.283
		H130.712z M147.389,42.166l3.203,1.223c-1.383,0.754-3.896,3.018-7.538,6.786c-2.699,4.709-5.118,7.347-7.253,7.912h-2.732
		c-0.754,0-1.696-0.564-2.828-1.694l-2.635,0.846c-1.132,0-2.355-1.162-3.674-3.484l3.674-6.405l4.332-3.96l4.711-3.2l9.043,1.977
		H147.389z M88.7,35.099l0.284,0.377h3.203l0.845,0.755c-2.132,1.822-4.928,5.654-8.382,11.492
		c-2.322,4.019-5.119,6.031-8.383,6.031l-4.334-2.825c-2.387,1.316-4.741,1.852-7.063,1.6l-2.825-0.848
		c-1.573-1.004-2.357-2.448-2.357-4.332c0-3.141,1.854-5.528,5.557-7.16c3.644-1.571,5.59-3.142,5.841-4.712
		c1.132-2.135,3.267-3.202,6.406-3.202c1.319,0,4.899,1.067,10.74,3.202L88.7,35.099z M79.469,160.483
		c0.564,1.255,2.165,2.451,4.803,3.58c2.638,1.319,3.957,2.762,3.957,4.332c0,0.255-0.535,1.163-1.6,2.731l1.6,3.676
		c0.503,2.574-1.067,3.642-4.711,3.203c-3.452,0-7.157-1.635-11.115-4.899c-3.767-3.702-6.06-7.127-6.876-10.269l-3.109-12.998
		c-1.255-4.021-1.884-8.166-1.884-12.436l4.993,4.05l10.739,4.334c5.022,2.384,7.535,4.522,7.535,6.406l-0.755,1.507l1.98,3.957
		c-0.503,1.067-0.913,1.758-1.225,2.07c-1.004,0-2.042-0.154-3.109-0.471L79.469,160.483z M147.767,166.041
		c0,1.821-1.07,3.673-3.206,5.558l-2.731,0.38l-1.6,0.471v-0.851l2.448-4.333c1.255-2.448,2.167-3.673,2.732-3.673
		C146.98,163.593,147.767,164.409,147.767,166.041z M150.592,171.127c0.751-1.568,2.48-3.642,5.18-6.215h1.129
		c1.006,0,1.509,0.625,1.509,1.883l-3.486,4.804h-3.58L150.592,171.127z M139.475,182.716h0.377
		c-6.092,11.368-18.4,17.051-36.929,17.051l-6.028-3.958v-1.225l2.074-1.129c2.071,0.752,5.525,1.129,10.362,1.129
		c5.776,0,11.711-2.135,17.804-6.405c6.092-4.46,8.979-6.689,8.666-6.689L139.475,182.716z M149.367,181.112
		c1.319,0,1.977,1.193,1.977,3.579h0.377c0,2.326-2.637,5.905-7.914,10.741c-5.335,5.276-9.073,8.446-11.208,9.515l-0.284,0.376
		l-4.428-2.824l11.588-9.422c4.458-3.705,7.379-7.694,8.762-11.965H149.367z M187.141,146.635l-3.673-3.674
		c0.567-3.703,2.577-5.557,6.028-5.557v3.202L187.141,146.635z M174.046,151.724l0.661,1.6v3.58l-1.978,0.755
		c-2.072,0.813-3.108,1.506-3.108,2.07c-2.951-1.567-4.429-3.045-4.429-4.425l8.383-3.96L174.046,151.724z M183.938,154.833
		l-1.694,8.005c-1.572,3.957-2.733,5.935-3.489,5.935l-0.374-1.223l1.13-4.712l-2.448-12.715c0-3.457,1.067-5.183,3.202-5.183
		c1.318,0,2.135,0.658,2.45,1.978l1.224,3.58V154.833z M188.272,155.304l0.753,9.889c0,8.73-3.706,20.538-11.115,35.42
		c-7.912,15.891-15.7,23.834-23.363,23.834c-2.887,0-4.332-3.454-4.332-10.362c0-9.293,2.732-16.987,8.195-23.08l16.768-15.071
		c6.596-6.342,10.676-13.378,12.246-21.1L188.272,155.304z M191.476,171.127c0.251-0.438,0.374,0.787,0.374,3.676v10.741
		c0,8.914-2.416,17.08-7.25,24.491c-4.713,7.722-11.024,13.688-18.936,17.897h-1.226l-1.129-0.848l-1.226-1.51l3.58-3.67
		c7.598-8.166,12.62-14.353,15.071-18.56c2.387-3.959,4.521-8.855,6.405-14.696c2.325-9.795,3.36-15.64,3.109-17.522H191.476z
		 M221.618,148.989c1.571,1.573,4.084,3.141,7.538,4.712l7.063,3.957c-6.592,10.863-13.971,19.593-22.138,26.188l0.378-1.509v-1.978
		c0-2.138-0.784-5.212-2.355-9.233c-1.567-4.145-2.354-7.063-2.354-8.76c0-2.89,1.164-4.554,3.485-4.993l2.072-2.541l3.485-1.132
		l2.355,1.132v-0.661c0-0.816-0.127-2.416-0.376-4.803L221.618,148.989z M204.099,168.396l1.6,0.848
		c2.136,0,3.203,4.87,3.203,14.604v4.803c-0.313,2.136-5.463,7.034-15.448,14.696l-0.849-1.225
		c1.822-7.914,2.734-15.165,2.734-21.761c0-6.408,1.349-9.607,4.048-9.607l1.132,0.374L204.099,168.396z M37.832,73.534
		c1.067,0,2.135,0.787,3.203,2.357c-4.021,8.225-7.066,15.54-9.137,21.948l-3.58-1.697h-0.471l-1.226-0.377v-1.129
		c0-1.319,1.477-4.902,4.428-10.74c3.454-6.908,5.337-10.489,5.651-10.74h0.661L37.832,73.534z M53.281,132.317
		c0,2.951-1.445,7.44-4.334,13.471c-3.139,6.909-5.525,10.489-7.157,10.738c-2.638,3.141-4.493,4.866-5.561,5.183
		c-1.319-1.129-2.606-5.935-3.861-14.414l-1.319-16.581l1.319-14.791c1.255-7.912,2.259-12.495,3.013-13.752
		c1.319,0.754,2.387,1.129,3.206,1.129c4.519,1.638,8.383,5.748,11.585,12.343C52.245,121.168,53.281,126.728,53.281,132.317z
		 M31.52,101.701c-1.132,1.57-2.074,5.811-2.825,12.719l-1.603,13.94l1.226,14.601c0,3.455,0.658,7.192,1.977,11.211l2.354,10.74
		l-5.18,4.331c-1.571-3.202-2.89-8.005-3.958-14.41c-1.571-7.035-2.354-12.279-2.354-15.733v-16.296
		c0-8.228,1.6-16.174,4.806-23.832h1.128l4.428,1.975V101.701z M33.874,176.31c0-3.454,2.103-6.876,6.312-10.269
		c5.589-4.773,8.637-7.661,9.137-8.667l6.312,21.762c-3.142,10.549-6.563,15.826-10.27,15.826c-2.635,0-4.238-1.978-4.803-5.936
		c-2.89-0.754-4.334-2.982-4.334-6.688l-1.225-2.355C34.251,178.854,33.874,177.629,33.874,176.31z M56.483,142.209l3.203,13.94
		c5.779,26.756,17.554,51.339,35.326,73.761h-0.755c-11.178-8.477-20.189-20.629-27.034-36.455
		c-3.706-8.543-8.353-23.08-13.942-43.615L56.483,142.209z M71.932,178.664c1.571,1.318,4.648,2.138,9.231,2.448
		c6.031,0,9.42,1.851,10.175,5.56c2.448,1.316,3.673,2.762,3.673,4.332c0,1.384-0.816,2.199-2.451,2.451
		c-1.819,0.5-2.729,1.003-2.729,1.507c1.003,1.318,2.07,1.979,3.2,1.979c2.893,0,4.334,1.726,4.334,5.18
		c1.384,1.319,2.074,2.387,2.074,3.202c0,2.133-2.418,3.204-7.253,3.204c-0.252-0.567-2.106-1.1-5.557-1.601
		c-4.209-4.773-7.382-9.173-9.515-13.19l-6.031-14.601L71.932,178.664z M57.99,184.691l8.385,17.43
		c2.387,5.025,5.841,10.614,10.363,16.768c0,5.273-1.445,7.912-4.334,7.912l-1.98-1.696h-1.694c-1.57,0-2.638-1.567-3.202-4.709
		c-2.325-0.251-3.484-1.318-3.484-3.203l1.129-3.956l-0.755-1.227l-1.6,1.227c-0.755,0.754-1.793,1.132-3.112,1.132
		c-1.064-1.005-2.007-2.294-2.825-3.861c-1.819-1.134-2.858-1.793-3.106-1.979c-1.635-3.142-2.451-5.4-2.451-6.783L57.99,184.691z
		 M221.996,196.562l-2.825-0.753c3.767-2.638,6.847-5.556,9.23-8.762c3.139-3.703,5.369-5.684,6.689-5.935
		c1.318-0.752,4.331-1.13,9.043-1.13c5.59,0,8.383,1.29,8.383,3.864l-1.978,4.051l0.471,2.355c0,1.318-1.351,2.76-4.05,4.331
		c-0.249,3.454-1.978,5.183-5.181,5.183l-13.85-3.205H221.996z M226.705,202.121l8.008,3.58l-10.739,10.737
		c-8.729,8.666-21.855,16.206-39.374,22.609l-4.335,1.602l-1.226-0.47v-1.98c0-24.303,14.604-36.455,43.806-36.455
		c2.321,0,3.234,0.126,2.731,0.377H226.705z M204.944,197.786c9.233-7.157,20.851-19.842,34.855-38.058l3.956,1.51v0.471
		c-3.453,5.024-8.854,12.121-16.202,21.286c-8.98,10.618-14.789,15.547-17.427,14.791l-5.557,0.851L204.944,197.786z
		 M161.329,230.287l-0.471,2.828c0,5.525,2.513,8.729,7.537,9.606l0.754,0.283c-0.189,0.818-2.008,1.225-5.466,1.225h-2.825
		c-1.316,0-2.636-1.069-3.957-3.202c-1.568-2.325-2.354-4.052-2.354-5.183l0.755-4.334c0.313-1.819,0.974-2.729,1.979-2.729
		C158.849,228.781,160.2,229.284,161.329,230.287z M179.887,245.075c17.207-7.473,27.793-12.527,31.746-15.165
		c8.792-5.335,17.682-13.156,26.66-23.455l5.463,3.201l-14.223,14.319c-8.166,7.473-13.064,11.211-14.696,11.211
		c-15.324,9.734-26.564,14.759-33.725,15.071L179.887,245.075z M175.556,251.391l-13.472,3.199h-13.847l-16.299-5.181v-1.225
		l0.377-1.6l-0.848-3.58l0.471-0.755c8.73,3.644,14.255,5.463,16.581,5.463l4.709,0.852c7.16-0.567,12.218-1.07,15.168-1.509h0.754
		l5.182-1.316L175.556,251.391z M125.532,205.701c0.816,0,1.729,0.813,2.732,2.45c-5.022,4.143-7.535,9.67-7.535,16.578h-0.661
		l-5.745-0.754l-0.284-2.07l0.755-3.017c2.387-6.408,5.715-10.929,9.985-13.565L125.532,205.701z M121.955,230.759
		c1.884,1.57,2.826,3.267,2.826,5.086l-0.848,3.203c2.887,2.892,4.332,5.557,4.332,8.008c0,3.141-2.229,4.709-6.687,4.709
		l-6.782-3.2c-0.503,0.562-1.665,1.13-3.486,1.693l-0.471,0.284h-0.848l-0.377-0.284c-3.139,0-5.525-2.416-7.16-7.253l-3.861-10.74
		l0.378-1.13c2.638,0,5.683-0.566,9.137-1.696l8.289-1.128C118.279,228.311,120.133,229.123,121.955,230.759z M80.315,223.602
		c7.35,7.722,11.433,11.585,12.246,11.585c1.132,0,2.732,1.445,4.806,4.332l-0.751,1.509l-1.603,0.374h-1.225l-3.203-1.506
		l-0.751,0.284h-0.848c-1.006,0-2.826-1.29-5.466-3.864h-0.471c-1.065,0-2.103-0.941-3.106-2.825l-1.319-5.18
		c0-1.573,0.281-3.017,0.848-4.335L80.315,223.602z M88.7,211.352h6.312l3.109-0.471c0,0.315,0.439,0.471,1.319,0.471l2.354,1.129
		c0.754,0.504,1.539,0.756,2.354,0.756c2.638,0,3.58,1.886,2.826,5.652c1.571,0.442,2.357,1.604,2.357,3.487
		c0,2.386-1.067,3.579-3.205,3.579c-4.271,0-8.131-1.444-11.585-4.334c-1.006-1.068-3.642-4.489-7.912-10.27l0.848-0.845
		L88.7,211.352z M243.005,52.903c1.064,0,3.735,3.299,8.005,9.894c4.209,6.908,6.313,11.021,6.313,12.34v4.426
		c0,1.571-0.942,3.267-2.825,5.089c-1.319,1.883-2.891,3.2-4.712,3.954l-6.78,1.226c-1.067-2.136-1.477-4.271-1.226-6.406h1.226
		c5.335,0,8.005-2.638,8.005-7.914c0-2.887-4.521-9.766-13.565-20.629C239.583,53.563,241.432,52.903,243.005,52.903z
		 M268.439,131.563l-6.031-8.383c0-2.135,0.942-3.203,2.828-3.203c1.567,0,2.761,1.726,3.58,5.183c1.064,0,1.601,1.19,1.601,3.577
		c0,1.883-0.536,2.826-1.601,2.826H268.439z M267.214,106.883c0,5.022-2.513,9.26-7.537,12.717
		c-2.071-0.315-4.741-2.322-8.008-6.031c-3.14-3.452-4.709-6.341-4.709-8.664l2.825-2.734l2.354-8.005
		c1.383-2.577,3.519-3.864,6.407-3.864c2.891,0,4.836,3.548,5.839,10.644c0.567,0,1.132,0.913,1.696,2.735L267.214,106.883z
		 M237.444,177.535v-0.755l9.893-14.413c1.319,0,3.045,1.07,5.18,3.202c2.451,2.139,3.677,3.768,3.677,4.899
		c0,0.755-0.442,1.255-1.319,1.51l-0.377,3.199c-1.007,1.07-2.574,1.603-4.712,1.603h-1.129l-0.471,0.378h-0.849l-0.755-0.378
		l-8.008,1.226l-0.281-0.471H237.444z"/>
	<path fill-rule="evenodd" clip-rule="evenodd" fill="#C22347" d="M155.772,66.468l0.658,2.735
		c-7.157,3.2-14.695,4.803-22.606,4.803l-2.734-0.471h-0.377c-1.065,0-2.542-0.5-4.425-1.506c-2.071-1.129-3.109-1.916-3.109-2.354
		l2.354-2.545c2.954,1.887,5.589,2.828,7.915,2.828h7.911c1.319,0,3.706-0.661,7.16-1.98c2.951-1.006,5.212-1.509,6.783-1.509
		H155.772z M102.453,66.848c0,1.316-0.91,3.045-2.729,5.18c-1.884,2.574-3.206,3.864-3.96,3.864h-1.507l-0.47-0.38
		c-1.067,0-2.261-0.782-3.58-2.354c-1.317-2.136-1.978-3.861-1.978-5.18c0-1.884,0.942-3.612,2.826-5.18
		c2.135-1.322,4.238-1.98,6.312-1.98c1.571,0.565,2.48,1.1,2.732,1.6C101.668,62.417,102.453,63.894,102.453,66.848z
		 M110.838,60.817l-1.225-1.883c0-1.696,0.784-2.542,2.357-2.542c1.127,0,1.691,0.564,1.694,1.694
		C113.647,57.54,112.706,58.452,110.838,60.817z M88.229,64.494l-2.354,2.635c-1.067-0.19-1.603-0.848-1.603-1.978
		c0-1.57,0.912-2.354,2.734-2.354C87.571,62.797,87.978,63.362,88.229,64.494z M114.041,73.157l10.74,0.848l5.46,1.506v0.851
		c-3.264,0.375-4.677,0.594-4.238,0.659l-9.608-0.284l-2.731-0.375l-1.694-0.471c-4.712,0-8.259-1.196-10.646-3.58
		c0.754-1.006,1.568-1.509,2.448-1.509l5.56,1.509C112.219,73.125,113.789,73.408,114.041,73.157z M114.041,86.628
		c3.454,0.752,5.18,1.978,5.18,3.674c0,1.006-0.784,2.042-2.354,3.109c-1.38,1.258-2.732,1.884-4.051,1.884h-2.826
		c-3.392-0.752-5.086-2.702-5.086-5.838c0-4.021,1.854-6.031,5.558-6.031L114.041,86.628z M115.17,80.694l3.203-1.978
		c2.386,0,3.738,0.284,4.054,0.846l-1.226,0.284l-1.132,1.225l-1.226,0.848l-3.673,3.203h-0.375c-1.319,0-1.98-0.567-1.98-1.696
		L115.17,80.694z M111.97,64.494c0-4.837,3.075-7.256,9.231-7.256c0.816,0,1.883,0.661,3.203,1.98l1.506,3.58
		c0,1.568-1.161,2.51-3.483,2.826l-3.583,4.051h-2.825l-1.978-1.319C112.658,68.354,111.97,67.067,111.97,64.494z"/>
	<path fill-rule="evenodd" clip-rule="evenodd" fill="#211348" d="M84.272,88.231l19.5,10.267l-2.448,1.977
		c-1.822,0-2.732,1.477-2.732,4.431c-3.202,2.322-4.396,5.116-3.58,8.38l-6.028,4.334l-2.826-9.231
		c-1.257-4.145-3.612-9.546-7.066-16.203c0-0.813,0.69-1.6,2.071-2.354L84.272,88.231z M77.489,89.832l-6.783-4.709
		c-2.071-1.57-4.583-2.764-7.534-3.58l-3.109-0.848c-2.387-1.067-6.876-6.092-13.472-15.072c-6.344-9.043-9.921-15.01-10.74-17.9
		l0.377-5.935c2.89-1.568,4.744-2.354,5.561-2.354c4.208,0,11.333,6.593,21.383,19.784l18.651,26.186
		C80.566,85.968,79.124,87.445,77.489,89.832z M148.519,98.12c1.883,0,4.019,0.536,6.405,1.603c3.139,1.319,5.276,1.978,6.405,1.978
		l5.464,10.739l-1.978,1.98c0.252,0.249-0.66,0.533-2.731,0.846c-3.203-3.2-7.82-5.871-13.847-8.005
		c-6.408-2.638-11.714-3.96-15.922-3.96l-4.708,0.754l-0.471,0.471l-0.848-0.471c-2.574,0-7.066,1.354-13.472,4.051
		c-6.596,2.89-10.676,4.334-12.247,4.334h-1.978v-0.375c0-2.138,0.378-3.582,1.132-4.334l3.2-2.354
		c5.59-6.154,16.551-9.234,32.878-9.234L148.519,98.12z M133.069,106.883c3.706,0,9.137,1.57,16.297,4.711
		c7.976,3.2,11.962,6.528,11.962,9.982c0,3.958-2.419,5.938-7.253,5.938l-10.27-0.851c-0.5,0-1.319-0.5-2.448-1.504
		c-1.254-0.819-2.416-1.102-3.483-0.851l-3.203-1.978h-2.357l-3.58-1.509c-1.318-1.129-2.635-1.694-3.954-1.694
		c-1.383,0-4.302-2.638-8.763-7.914l0.848-0.755l7.915-1.6C128.735,107.542,131.499,106.883,133.069,106.883z M127.887,125.16h4.428
		l2.828,2.354h2.354l4.709,3.577l3.203-1.6c0.19,0.564,2.167,1.506,5.934,2.825l0.377-0.754l1.227,1.506
		c0,2.638-1.352,5.15-4.052,7.537c-2.889,2.89-5.399,4.334-7.537,4.334c-1.003,0-2.009,0.565-3.013,1.694
		c-0.88,1.006-2.387,1.509-4.521,1.509l-3.583-1.98c-1.003,1.068-2.574,1.884-4.709,2.451c-1.316,0-2.635-0.658-3.955-1.979
		l-4.053,0.661c-0.751,0-1.819-0.629-3.2-1.884h-0.661c-0.816,0-1.6,0.249-2.354,0.752c-8.228-0.249-12.34-2.51-12.34-6.78v-0.754
		l-4.428-4.712c-1.822-1.57-2.732-2.764-2.732-3.577l1.223-1.603l-2.448-3.577c0-0.819,0.535-1.76,1.603-2.828l-0.377-1.226
		c0-2.071,2.919-4.176,8.76-6.312l11.872-3.2c0.249,1.316,1.442,3.045,3.577,5.18c1.319,4.271,3.296,6.406,5.937,6.406l2.826-0.848
		L127.887,125.16z M88.7,132.317c1.003,3.39,1.635,5.745,1.883,7.066c-9.734-5.779-17.02-14.384-21.854-25.814
		C62.385,99.629,57.77,91.18,54.88,88.231l1.603-3.958l5.56-0.377c2.132,0,4.519,1.067,7.157,3.203
		c4.521,0,8.888,6.596,13.095,19.784L88.7,132.317z M111.97,148.614c2.951,2.071,5.651,2.574,8.099,1.509v1.221l-8.099,2.357
		c-4.209,1.634-7.098,2.448-8.669,2.448l-1.977,0.377l-1.884,0.848l-3.203,0.658c-3.267,0-4.744-1.284-4.428-3.86
		c0-1.132,2.103-2.197,6.312-3.203c3.454-1.068,6.248-1.6,8.382-1.6l1.603-0.755l1.883-0.471l0.848,0.471H111.97z M108.483,156.903
		l19.123-6.405l3.86,0.471l0.848,0.375l2.357-0.375c3.203-0.567,6.78-1.916,10.737-4.051l0.283,0.377
		c0,0.877-1.161,1.822-3.486,2.828l-16.297,7.535c-7.915,3.454-12.937,5.18-15.072,5.18c-2.89,0-4.334-1.038-4.334-3.109
		C106.503,158.6,107.162,157.658,108.483,156.903z M95.764,142.961c-0.249,0,1.477,1.445,5.183,4.334
		c-1.57,1.694-3.957,2.544-7.16,2.544c-3.203,0-4.803-0.851-4.803-2.544c0-0.754,0.941-2.042,2.825-3.864l1.978-0.471H95.764z
		 M143.055,156.903c-2.135,2.89-4.554,7.411-7.253,13.565c-1.319,6.03-3.957,9.043-7.915,9.043c-1.316,0-2.258-1.193-2.825-3.579
		c-0.188-1.884-0.69-2.67-1.506-2.354l-0.848-0.472l-0.281-4.711h-0.471l-1.603,0.377v-1.223c0-0.503,0.126-2.229,0.377-5.183
		l21.1-7.818L143.055,156.903z M145.41,151.724c3.203-2.638,5.431-5.121,6.689-7.444l4.332-9.23l7.253-9.889
		c2.073-5.592,3.645-8.23,4.712-7.915v2.732c0,3.203-1.193,6.782-3.58,10.737c-2.135,3.457-3.202,6.469-3.202,9.043v2.828
		l0.471,2.826c0,5.841-5.183,10.457-15.543,13.846v-3.954L145.41,151.724z M150.215,167.266c-0.88-2.448-2.231-4.176-4.051-5.183
		c2.387-2.387,5.809-3.579,10.267-3.579c5.592,0,8.385,1.854,8.385,5.56c0,3.454-1.319,5.18-3.957,5.18l0.471-2.448
		c0-2.638-1.223-3.957-3.674-3.957h-1.883l-2.074,0.377l-1.978,1.978C151.156,166.576,150.653,167.266,150.215,167.266z
		 M137.027,175.178l6.78-1.226c9.736,0,14.604,2.515,14.604,7.537c0,2.7-1.035,4.712-3.108,6.028l-1.604,0.38v-0.851l0.849-4.331
		c0-2.952-1.727-4.429-5.18-4.429c-1.319,0-2.387,0.69-3.203,2.073l-1.98,4.331h-0.848l-1.978-5.556l-4.709-0.472l-1.225-0.658
		L137.027,175.178z M212.952,101.701l-1.319,3.205l-6.218-2.076h-4.051l-11.114,5.56c-6.908,1.884-11.023,4.554-12.34,8.008
		l-7.063,3.203l-0.849-0.471l1.224-5.088c0-1.317-0.942-3.297-2.826-5.935c-1.819-3.2-2.731-5.463-2.731-6.779
		c0-2.638,4.458-4.742,13.375-6.312c7.16-1.571,13.001-2.357,17.522-2.357l2.825,0.283l2.826,0.848c0.754,0,1.132-0.377,1.132-1.131
		l3.579,3.108l0.378-1.977c1.318,0.565,2.51,1.758,3.58,3.58L212.952,101.701z M219.642,105.751c0,2.074-0.941,5.089-2.825,9.043
		c-1.571,4.019-3.142,6.029-4.713,6.029l-3.202-1.694v-1.509c3.706-2.889,5.936-8.444,6.689-16.674
		C218.29,100.946,219.642,102.551,219.642,105.751z M223.974,104.526c14.006,6.595,26.817,14.54,38.435,23.834l-0.658,1.132
		c-2.451,0-4.46,1.351-6.027,4.048c-1.32,2.89-1.729,5.528-1.226,7.914c-7.348-4.521-20.035-11.021-38.059-19.5
		c2.891-7.347,5.025-13.159,6.406-17.429H223.974z M208.056,111.595l-1.508,0.471c-1.634,0-2.701-0.284-3.203-0.851
		c-1.633,0-2.451-0.787-2.451-2.354s1.509-2.354,4.521-2.354l1.509,0.754l1.132,0.845l0.846,1.132v1.978L208.056,111.595z
		 M207.302,121.106c2.07,0,3.109,1.475,3.109,4.428l-0.284,9.515l0.755,3.58l-0.755,0.754l-2.071-0.754
		c-0.754,0-2.325-1.98-4.711-5.935v-5.18l1.6-4.051C206.012,121.704,206.799,120.919,207.302,121.106z M193.453,134.672
		l-5.651-1.603c-1.821,1.883-9.075,7.317-21.764,16.3l-0.846-1.226v-3.58c-0.251-5.776,0.564-9.734,2.449-11.869l3.58-5.56
		c0.754-2.638,2.856-4.742,6.312-6.312c3.454-1.884,5.589-3.516,6.405-4.899c0-0.439,1.286-1.316,3.863-2.638
		c2.135-1.38,3.738-2.071,4.803-2.071c2.135,0,3.989,1.193,5.561,3.58c1.818,2.451,3.67,3.77,5.554,3.958
		c-2.384,4.021-3.576,7.505-3.576,10.457l0.751,4.993L193.453,134.672z M213.61,124.78l14.791,8.29
		c3.139,0.567,9.043,5.747,17.71,15.545c9.296,9.482,13.942,16.203,13.942,20.158v0.849c-3.893-5.274-11.146-10.708-21.761-16.298
		c-12.749-6.028-20.818-10.392-24.212-13.094l-1.129-9.514C212.952,127.825,213.172,125.848,213.61,124.78z M32.368,46.498
		c1.255,3.708,3.203,7.569,5.841,11.588C47.25,71.589,52.81,78.465,54.88,78.717v1.129c-5.838-2.89-11.272-6.844-16.294-11.869
		c-6.031-6.031-9.043-11.714-9.043-17.049c0-1.07,0.503-2.547,1.506-4.431H32.368z M46.969,78.717c1.067,0,2.229,0.503,3.486,1.506
		l2.826,2.826c0,1.067-1.036,2.416-3.109,4.051h-0.375l-2.077,0.377c-0.31-1.57-1.252-2.354-2.825-2.354
		c-1.758,0-3.328,0.375-4.709,1.129l3.203-7.16L46.969,78.717z M51.303,89.832c3.706,1.57,7.002,6.753,9.892,15.545
		c4.016,12.056,11.553,23.299,22.606,33.723c-7.599-1.883-15.511-7.724-23.738-17.522c-7.585-9.902-11.417-18.678-11.492-26.328
		c0.011,0.481,0.265-1.324,0.752-5.418H51.303z M262.88,132.317c3.453,0,6.092,2.764,7.914,8.289
		c1.883,4.022,2.825,8.134,2.825,12.342c0,1.253-0.532,2.949-1.603,5.084l-2.354-4.331c-0.816-1.822-3.232-4.332-7.254-7.538
		c-3.141-2.387-4.709-4.645-4.709-6.78c0-1.574,0.504-3.018,1.507-4.334C260.338,133.229,261.56,132.317,262.88,132.317z"/>
</g>
</svg>
