<?xml version="1.0" encoding="utf-8"?>
<!-- Generator: Adobe Illustrator 16.0.0, SVG Export Plug-In . SVG Version: 6.00 Build 0)  -->
<!DOCTYPE svg PUBLIC "-//W3C//DTD SVG 1.1//EN" "http://www.w3.org/Graphics/SVG/1.1/DTD/svg11.dtd">
<svg version="1.1" id="Layer_1" xmlns="http://www.w3.org/2000/svg" xmlns:xlink="http://www.w3.org/1999/xlink" x="0px" y="0px"
	 width="300px" height="300px" viewBox="0 0 300 300" enable-background="new 0 0 300 300" xml:space="preserve">
<g>
	<path fill-rule="evenodd" clip-rule="evenodd" fill="#1A191D" d="M197.7,72.563c-6.506,5.921-16.777,14.254-30.811,24.999
		c-28.653,21.345-44.736,33.332-48.244,35.963c-5.482,4.167-17.435,17.47-35.855,39.912c-16.959,20.611-26.754,31.248-29.384,31.906
		c-2.413,0.512-4.131-0.073-5.154-1.753c-0.658-1.831-0.987-2.779-0.987-2.853c-0.073-0.365-0.109-0.731-0.109-1.095
		c-0.512-3.583,0.769-8.299,3.838-14.145c2.632-5.119,6.067-10.235,10.307-15.351l-0.549-0.33c-2.705,2.192-4.97,4.022-6.797,5.482
		c-3.583,2.851-6.069,4.459-7.457,4.824c-2.12,0.439-3.692,0.036-4.716-1.205c-0.51-0.658-0.876-1.463-1.096-2.413
		c-0.364-1.534,0.366-3.546,2.193-6.032c3.656-4.676,5.812-7.601,6.469-8.771v-0.658c-1.536,1.318-7.163,8.445-16.886,21.382
		c-8.405,11.257-14.108,17.216-17.104,17.872c-2.045,0.512-3.617,0.073-4.713-1.316c-0.514-0.585-0.878-1.352-1.097-2.303
		c-1.463-6.14,5.885-17.214,22.038-33.22c-2.777,2.119-5.921,3.579-9.429,4.386c-2.338,0.583-4.058,0.217-5.154-1.097
		c-0.439-0.515-0.803-1.316-1.097-2.413c-0.145-0.513,4.277-6.25,13.267-17.214c9.065-11.186,14.768-17.689,17.106-19.518
		c4.531-3.435,14.508-10.854,29.932-22.257C91.71,93.87,99.86,87.95,100.664,87.583c11.913-7.089,22.586-14.071,32.015-20.941
		c8.554-6.359,17.652-12.245,27.302-17.652c2.705-1.536,10.417-7.53,23.135-17.982c11.623-8.406,18.129-9.612,19.519-3.618
		c2.267,9.502-12.791,23.976-45.176,43.419l-0.437,0.548c0.437-0.219,3.435-1.973,8.99-5.263c4.897-2.924,8.004-4.532,9.32-4.825
		c2.119-0.511,3.801-0.109,5.042,1.207c0.585,0.658,0.988,1.425,1.205,2.302c0.515,2.193-0.108,4.166-1.861,5.921
		c-5.191,5.189-7.82,7.785-7.894,7.785l-1.646,1.425c3.801-2.046,9.54-6.212,17.214-12.499c6.87-5.629,11.073-8.626,12.609-8.991
		c1.903-0.438,3.435,0.073,4.604,1.536c0.66,0.804,1.097,1.607,1.316,2.411C206.217,63.753,203.476,67.153,197.7,72.563z
		 M140.575,101.837c-0.44,0.073-2.231,1.06-5.374,2.96c1.315-0.292,3.035-1.205,5.153-2.741L140.575,101.837z M119.303,108.964
		c-5.41,2.924-10.491,6.506-15.241,10.746c-7.894,7.163-12.061,10.927-12.5,11.293l0.109,0.219
		c8.114-5.19,12.866-8.297,14.254-9.319c3.362-2.56,7.787-6.762,13.269-12.609L119.303,108.964z M118.425,87.803
		c-6.872,3.801-11.879,6.616-15.021,8.443c-10.525,6.213-22.698,15.131-36.513,26.753c-8.114,6.944-16.702,16.775-25.767,29.496
		c-1.899,2.629-3.616,4.822-5.152,6.577c8.844-8.551,19.917-18.384,33.221-29.494c21.42-17.763,44.627-35.818,69.625-54.165
		C132.021,79.798,125.225,83.929,118.425,87.803z M87.506,134.622c-3.583,1.534-6.251,2.85-8.005,3.946
		c-4.092,2.486-6.542,5.116-7.345,7.895l-0.548,0.875c1.242-0.292,3.729-1.788,7.455-4.495c4.167-3.143,6.908-5.811,8.223-8.004
		L87.506,134.622z"/>
	<path fill-rule="evenodd" clip-rule="evenodd" fill="#EA1D25" d="M223.466,107.867c13.888-5.992,27.631-10.598,41.227-13.814
		c0.146,0,0.292-0.037,0.438-0.11c2.34-0.511,4.166-0.146,5.482,1.097c0.585,0.657,0.988,1.425,1.205,2.302c0,0.072,0,0.183,0,0.328
		c-1.313,2.56-18.822,13.268-52.519,32.126c-39.985,22.076-64.361,35.524-73.134,40.351c-9.283,7.235-21.271,16.374-35.964,27.41
		c-9.065,6.726-14.436,11.658-16.117,14.803c0,0.363-0.109,0.803-0.33,1.314c-0.439,0.879-1.169,2.229-2.193,4.06
		c-1.536,2.557-2.85,4.236-3.947,5.043c-0.364,0.364-0.732,0.583-1.096,0.656c-2.12,0.512-3.692,0.11-4.715-1.205
		c-0.51-0.658-0.876-1.463-1.097-2.413c-0.437-1.609-0.145-4.275,0.878-8.003c0-0.221,0.037-0.403,0.11-0.549
		c1.171-4.239,1.865-6.872,2.083-7.896c-1.169,0.294-4.313,2.998-9.429,8.114l-7.784,7.675c-2.632,0.658-4.532,0.33-5.703-0.986
		c-0.439-0.437-0.803-1.206-1.096-2.303c-0.146-0.731,0.696-3.508,2.522-8.332l3.289-8.773c-2.559,1.316-6.433,5.922-11.622,13.817
		c-5.045,7.601-8.407,11.585-10.089,11.95c-2.118,0.512-3.728-0.035-4.825-1.645c-0.437-0.657-0.803-1.572-1.096-2.74
		c-1.024-4.459,2.047-11.295,9.21-20.503c0,0.363,0.036,0.729,0.109,1.095c0,0.073,0.33,1.021,0.987,2.853
		c1.023,1.68,2.741,2.265,5.154,1.753c2.63-0.658,12.425-11.295,29.384-31.906c18.421-22.441,30.373-35.744,35.855-39.912
		c3.508-2.631,19.59-14.619,48.244-35.963c14.033-10.745,24.305-19.078,30.811-24.999c24.194-14.839,36.912-19.554,38.155-14.145
		c1.095,4.605-4.421,11.221-16.556,19.846c-14.768,9.502-24.596,16.301-29.497,20.394c5.556-1.096,14.183-5.336,25.878-12.719
		c11.916-7.602,21.965-12.354,30.153-14.254c2.923-0.73,5.079-0.474,6.469,0.768c0.585,0.512,1.023,1.28,1.316,2.303
		c0.512,2.338-1.206,4.934-5.155,7.784c-2.995,1.974-8.004,4.569-15.02,7.785c-11.477,5.117-17.544,7.895-18.202,8.333
		c-6.872,3.29-11.915,6.323-15.131,9.101c-3.363,2.85-11.038,9.831-23.026,20.941c-7.894,7.31-14.473,13.233-19.735,17.764
		c10.38-8.188,22.88-16.336,37.499-24.452C204.424,116.677,213.964,111.961,223.466,107.867z M97.813,158.525
		c-1.902,1.387-4.204,3.543-6.909,6.466c-2.557,2.779-4.604,5.301-6.139,7.567l-0.109,0.548c1.679-1.241,4.274-3.765,7.784-7.565
		c2.559-2.703,4.679-5.116,6.358-7.237L97.813,158.525z M73.032,186.484c-0.291,0.585-0.803,1.46-1.533,2.63
		c0.73-0.146,1.388-0.767,1.972-1.863c0.73-1.241,1.278-2.121,1.645-2.633c-0.073-0.07-0.146-0.108-0.219-0.108
		c-0.148,0.073-0.33,0.146-0.548,0.22C74.128,184.805,73.691,185.388,73.032,186.484z M89.26,184.51
		c-0.658,0.951-3.071,3.326-7.236,7.127l-0.33,0.549c2.268-1.023,4.13-2.267,5.591-3.729c1.536-1.535,2.339-2.958,2.414-4.276
		L89.26,184.51z M67.44,195.255c0.439-0.365,0.915-0.95,1.427-1.755c0.512-0.802,0.803-1.387,0.876-1.753
		c-0.146,0-0.438,0.293-0.876,0.878c-0.584,0.655-0.987,1.387-1.206,2.191L67.44,195.255z M123.359,155.236
		c-8.771,7.235-13.742,12.753-14.912,16.556l-0.33,0.986c12.648-9.868,19.333-15.168,20.066-15.897
		c7.457-6.506,12.754-12.683,15.898-18.531C140.575,141.639,133.666,147.268,123.359,155.236z"/>
	<path fill-rule="evenodd" clip-rule="evenodd" fill="#FAE602" d="M264.692,94.053c-13.596,3.216-27.339,7.822-41.227,13.814
		c0.658-0.511,1.352-1.058,2.083-1.644c7.676-5.92,13.779-10.453,18.311-13.595c14.839-10.38,22.916-12.83,24.231-7.347
		c0.513,2.34-0.438,5.043-2.85,8.115C265.022,93.614,264.838,93.833,264.692,94.053z M93.755,213.675
		c0.221-0.512,0.33-0.951,0.33-1.314c1.681-3.145,7.052-8.077,16.117-14.803c14.693-11.036,26.682-20.175,35.964-27.41
		c8.772-4.826,33.148-18.274,73.134-40.351c33.696-18.858,51.205-29.567,52.519-32.126c6.141-2.997,10.233-4.714,12.281-5.153
		c2.191-0.511,3.909-0.145,5.154,1.097c0.583,0.658,0.986,1.462,1.205,2.412c0.513,2.047-0.11,3.801-1.863,5.263
		c-1.316,1.096-3.948,2.485-7.896,4.167c-13.229,5.336-23.062,10.051-29.495,14.144c0.145,2.485-2.375,6.177-7.563,11.076
		c-4.532,4.31-10.639,9.099-18.313,14.363l-0.549,0.767c0.44-0.293,7.456-5.226,21.054-14.802
		c12.208-8.626,20.212-13.414,24.011-14.364c2.632-0.585,4.642-0.218,6.031,1.097c0.658,0.512,1.095,1.243,1.316,2.192
		c0.585,2.705-5.482,8.406-18.2,17.104c-2.632,1.756-10.235,6.506-22.807,14.252c-2.927,1.685-9.32,7.094-19.188,16.23
		c-9.797,8.844-15.68,14.619-17.652,17.324c-2.269,2.996-28.912,25.912-79.932,68.747c-2.632,0.585-4.57,0.108-5.812-1.428
		c-0.73-1.68-1.097-2.593-1.097-2.741c-1.097-4.458,2.377-12.278,10.416-23.46c9.65-12.21,15.826-20.321,18.531-24.343l0.22-0.55
		c-10.527,7.313-21.783,14.949-33.771,22.918c-12.866,8.551-19.772,12.938-20.723,13.156c-1.973,0.512-3.617,0.108-4.934-1.206
		c-0.73-0.804-1.242-1.79-1.536-2.96l-0.548-0.328c-2.266,4.971-5.08,9.759-8.442,14.361c-3.874,5.41-7.018,8.405-9.429,8.991
		c-2.12,0.438-3.691,0.037-4.715-1.206c-0.512-0.585-0.876-1.388-1.096-2.411c-0.294-1.243,3.364-7.896,10.964-19.957
		c5.63-9.063,10.344-15.935,14.145-20.611c-1.023,3.728-1.314,6.394-0.878,8.003c0.221,0.95,0.587,1.755,1.097,2.413
		c1.023,1.315,2.595,1.717,4.715,1.205c0.364-0.073,0.732-0.292,1.096-0.656v0.218l0.109,0.222
		c1.244-1.536,4.568-5.154,9.978-10.856c5.627-5.848,8.844-9.247,9.649-10.198C101.651,206.258,97.119,210.096,93.755,213.675z
		 M125.552,199.313c5.337-3.508,12.792-8.188,22.368-14.036c7.53-5.188,12.939-10.743,16.229-16.664
		c-14.327,10.818-27.12,20.977-38.376,30.48L125.552,199.313z M153.733,205.673c9.573-7.311,18.091-15.789,25.546-25.439
		c-5.336,3.361-10.418,7.456-15.242,12.282c-4.678,4.677-7.966,8.845-9.867,12.497L153.733,205.673z"/>
</g>
</svg>
