<?xml version="1.0" encoding="utf-8"?>
<!-- Generator: Adobe Illustrator 16.0.0, SVG Export Plug-In . SVG Version: 6.00 Build 0)  -->
<!DOCTYPE svg PUBLIC "-//W3C//DTD SVG 1.1//EN" "http://www.w3.org/Graphics/SVG/1.1/DTD/svg11.dtd">
<svg version="1.1" id="Layer_1" xmlns="http://www.w3.org/2000/svg" xmlns:xlink="http://www.w3.org/1999/xlink" x="0px" y="0px"
	 width="300px" height="300px" viewBox="0 0 300 300" enable-background="new 0 0 300 300" xml:space="preserve">
<g>
	<polygon fill-rule="evenodd" clip-rule="evenodd" fill="#020202" points="194.338,102.528 95.237,102.528 76.677,70.206 
		212.793,70.418 	"/>
	<polygon fill-rule="evenodd" clip-rule="evenodd" fill="#E22229" points="95.237,102.528 194.338,102.528 173.536,138.263 
		115.826,138.263 	"/>
	<path fill-rule="evenodd" clip-rule="evenodd" fill="#1A1A1A" d="M275.837,63.698l7.574-2.667c0.144,3.627-0.711,6.507-2.562,8.641
		c-1.208,1.422-2.844,2.489-4.906,3.2c-1.776,0.64-3.519,0.995-5.228,1.067c-0.07,1.351-0.247,2.63-0.532,3.84
		c-0.426-1.209-0.818-2.489-1.175-3.84c-0.354,0-0.709-0.037-1.065-0.107c0-0.069,0.035-0.104,0.105-0.106
		c-1.991-0.001-3.983-0.392-5.973-1.174c-4.624-1.849-7.005-5.334-7.146-10.454c0-0.569,0-1.103,0-1.6l7.573,2.774
		c3.271,1.849,5.476,3.983,6.613,6.4C270.397,67.255,272.637,65.263,275.837,63.698z M265.276,77.993
		c2.56,2.134,4.302,4.338,5.228,6.614c1.636-1.849,4.017-3.272,7.146-4.267l8.001-1.067c-0.283,1.564-0.71,3.022-1.279,4.374
		c-1.564,3.271-4.338,5.227-8.321,5.867c-1.634,0.355-3.2,0.462-4.692,0.32c-0.214,1.351-0.57,2.845-1.066,4.48
		c-0.428-1.636-0.675-3.2-0.748-4.694c-2.061-0.426-4.09-1.244-6.08-2.454c-4.266-2.488-6.081-6.257-5.439-11.307
		c0.07-0.569,0.178-1.174,0.319-1.814L265.276,77.993z M254.715,107.009c0.215-0.925,0.5-1.849,0.854-2.774l6.4,5.014
		c2.561,2.773,3.984,5.512,4.267,8.214c1.921-1.92,4.729-3.129,8.428-3.627h8.107c-1.851,5.761-5.513,8.677-10.988,8.748
		c-1.92,0.071-3.768-0.178-5.547-0.747c-0.568,1.423-1.35,2.774-2.346,4.054c-0.071-1.493,0.106-3.093,0.534-4.8
		c-2.063-0.64-3.984-1.671-5.762-3.093C255.178,115.009,253.862,111.346,254.715,107.009z M252.581,135.596
		c2.063,2.489,3.271,4.942,3.627,7.36c0-0.07,0-0.177,0-0.318l0.428,1.707c1.992-1.992,5.013-3.129,9.067-3.415l8.107,0.533
		c-2.205,5.69-6.08,8.392-11.629,8.109c-1.491-0.071-2.95-0.321-4.373-0.748c-0.568-0.213-1.137-0.427-1.706-0.64
		c-0.283,0.498-0.533,1.067-0.746,1.707c-0.427,0.782-1.387,1.777-2.881,2.988c0.71-2.419,1.243-4.161,1.6-5.228
		c-1.848-0.854-3.627-2.063-5.333-3.627c-3.982-3.769-4.728-8.39-2.24-13.868L252.581,135.596z M259.197,154.264
		c0.285,0,0.639,0,1.065,0l7.786,1.388c-1.706,3.342-3.98,5.476-6.824,6.4c-1.639,0.498-3.487,0.64-5.549,0.428
		c-2.204-0.428-4.194-1.14-5.974-2.134c-0.854,1.208-1.884,2.522-3.095,3.946c0.286-1.707,0.782-3.342,1.495-4.907
		c-1.993-1.066-3.841-2.524-5.547-4.373c-3.556-4.196-3.771-8.89-0.642-14.082l5.442,6.082c2.559,3.911,3.377,7.394,2.451,10.453
		C251.801,155.331,254.93,154.264,259.197,154.264z M285.332,96.661c-0.286,0.996-0.533,1.92-0.748,2.773
		c-1.849,4.196-5.013,6.507-9.493,6.934c-1.92,0.143-3.733,0.071-5.441-0.214c-0.495,1.637-1.066,3.272-1.706,4.908l-0.107,0.106
		c0-1.85,0.071-3.663,0.213-5.44c-0.213-0.071-0.462-0.143-0.745-0.213c-0.854-0.355-1.706-0.711-2.561-1.067
		c-0.853-0.498-1.742-1.031-2.667-1.6c-4.479-3.2-5.868-7.716-4.161-13.548l6.721,4.48c2.633,2.489,4.232,4.979,4.801,7.467
		c1.779-1.849,4.374-3.165,7.789-3.947L285.332,96.661z M254.182,130.904c-0.496-0.285-0.888-0.675-1.174-1.174
		c-1.065-1.281-1.776-2.667-2.133-4.161c-0.64-2.56-0.247-5.405,1.173-8.534l5.976,5.547c2.629,3.129,3.91,6.187,3.84,9.173
		c1.989-2.275,5.086-3.555,9.28-3.839l8.106,0.427c-2.134,5.689-5.974,8.39-11.52,8.106c-2.277-0.071-4.373-0.462-6.295-1.173
		c-0.639,1.067-1.528,2.275-2.666,3.627c0.212-1.494,0.533-2.917,0.96-4.267C257.809,133.854,255.961,132.61,254.182,130.904z
		 M241.168,159.385c1.636,3.13,2.275,5.974,1.921,8.534l0.426,1.279c2.348-1.491,5.548-1.991,9.601-1.491l7.788,2.346
		c-3.343,4.979-7.681,6.792-13.014,5.439c-1.353-0.355-2.667-0.853-3.948-1.493c-0.64-0.425-1.243-0.853-1.813-1.279
		c-1.067,1.066-2.169,2.133-3.307,3.2c0.566-1.422,1.173-2.773,1.813-4.055c-1.635-0.925-3.021-2.24-4.16-3.946
		c-0.286-0.212-0.569-0.533-0.853-0.961c-3.059-4.552-2.737-9.243,0.958-14.079L241.168,159.385z M229.222,164.186l4.585,6.612
		c1.353,2.776,2.027,5.371,2.027,7.788c0.071-0.212,0.143-0.32,0.213-0.32l0.533,1.709c2.275-1.138,5.192-1.424,8.749-0.854
		l7.679,2.24c-1.705,2.631-3.66,4.339-5.866,5.12c-2.134,0.853-4.479,0.924-7.04,0.213c-2.205-0.569-4.16-1.494-5.867-2.773
		c-1.067,1.138-2.24,2.275-3.521,3.413l2.241-4.267l-0.215-0.106l-1.173,1.388c0.283-0.498,0.676-0.996,1.173-1.494
		c-1.706-1.138-3.2-2.702-4.479-4.693c-1.706-2.491-2.348-5.049-1.921-7.681c0.215-1.921,1.066-3.877,2.562-5.867
		C229.043,164.54,229.15,164.397,229.222,164.186z M219.833,189.147c-3.271-4.41-3.094-9.103,0.533-14.082l4.694,6.295
		c2.061,3.98,2.738,7.432,2.027,10.348c2.346-1.85,5.688-2.596,10.026-2.241l7.894,2.026c-3.271,5.193-7.537,7.148-12.801,5.868
		c-2.275-0.428-4.303-1.244-6.079-2.453c-0.215,0.213-0.463,0.463-0.749,0.746c-0.07,0-0.07,0.036,0,0.106l-3.625,1.706l2.773-3.84
		c-0.073,0.073-0.106,0.073-0.106,0C222.712,192.419,221.183,190.925,219.833,189.147z M234.34,204.401
		c-3.697,4.908-8.141,6.471-13.334,4.693c-2.418-0.78-4.443-1.956-6.08-3.519c-0.144-0.142-0.247-0.215-0.32-0.215l-4.694,3.628
		l1.814-2.668l1.813-1.705c-1.636-1.282-2.986-2.882-4.052-4.801c-2.918-4.694-2.384-9.353,1.6-13.975l4.267,6.826
		c1.777,4.125,2.063,7.646,0.853,10.561c2.702-1.919,6.224-2.419,10.561-1.493L234.34,204.401z M6.805,63.165l7.68,2.134
		c3.342,1.494,5.688,3.378,7.041,5.653c0.996-2.417,3.094-4.622,6.294-6.613l7.467-3.094c0.071,0.427,0.071,0.889,0,1.387
		c0.142,5.263-2.063,8.926-6.613,10.987c-1.921,0.854-3.913,1.351-5.976,1.494c0.071,0,0.108,0.036,0.108,0.106
		c-0.356,0.143-0.675,0.178-0.96,0.107c-0.214,1.351-0.534,2.667-0.96,3.947c-0.354-1.28-0.604-2.56-0.746-3.841
		c-1.779,0-3.521-0.284-5.228-0.853c-2.206-0.64-3.91-1.636-5.121-2.987C7.873,69.601,6.876,66.792,6.805,63.165z M5.418,81.407
		l8.107,0.746c3.2,0.783,5.619,2.098,7.255,3.947c0.781-2.347,2.452-4.658,5.013-6.934l6.721-4.267
		c0.071,0.641,0.177,1.209,0.319,1.708c0.925,4.978-0.675,8.854-4.8,11.627c-1.992,1.351-3.981,2.276-5.974,2.774
		c0,1.493-0.177,3.058-0.533,4.693c-0.569-1.635-0.994-3.093-1.279-4.373c-1.494,0.142-3.059,0.106-4.694-0.107
		c-4.055-0.426-6.934-2.275-8.641-5.546C6.272,84.393,5.772,82.97,5.418,81.407z M24.298,107.009
		c0.285,1.706,0.462,3.52,0.534,5.439l-0.106-0.106c-0.781-1.708-1.457-3.308-2.027-4.8c-1.633,0.355-3.413,0.497-5.333,0.426
		c-4.55-0.213-7.821-2.382-9.813-6.506c-0.354-0.783-0.675-1.671-0.961-2.667l8.107,0.214c3.557,0.64,6.224,1.849,8,3.626
		c0.427-2.56,1.921-5.12,4.482-7.681l6.506-4.8c1.992,5.689,0.817,10.241-3.521,13.655c-0.852,0.64-1.742,1.209-2.667,1.707
		c-0.71,0.427-1.529,0.818-2.452,1.173C24.832,106.76,24.583,106.866,24.298,107.009z M37.633,107.648
		c1.137,4.338,0.071,8.072-3.2,11.201c-1.848,1.494-3.767,2.632-5.759,3.414c0.496,1.635,0.746,3.2,0.746,4.693
		c-0.925-1.279-1.741-2.56-2.454-3.839c-1.777,0.568-3.625,0.888-5.546,0.96c-5.475,0.142-9.28-2.596-11.414-8.214l8.107-0.427
		c3.77,0.285,6.648,1.386,8.641,3.308c0.142-2.845,1.458-5.69,3.946-8.534l6.082-5.228C37.137,105.834,37.42,106.724,37.633,107.648
		z M34.008,135.49c0.496,1.281,0.887,2.667,1.173,4.161c-1.14-1.279-2.098-2.454-2.882-3.521c-1.777,0.854-3.839,1.388-6.186,1.6
		c-5.478,0.571-9.424-1.955-11.84-7.574l8-0.853c4.196,0.143,7.359,1.245,9.492,3.308c-0.212-2.916,0.925-6.01,3.415-9.281
		l5.652-5.761c1.638,3.058,2.171,5.867,1.6,8.427c-0.283,1.493-0.925,2.916-1.919,4.266c-0.356,0.427-0.748,0.854-1.173,1.282
		C37.774,133.25,36,134.567,34.008,135.49z M66.01,163.546c0.071,0.143,0.177,0.286,0.319,0.428
		c1.636,1.848,2.561,3.767,2.773,5.758c0.571,2.561,0.071,5.121-1.492,7.682c-1.067,2.062-2.49,3.698-4.267,4.907
		c0.496,0.498,0.925,0.996,1.279,1.493l-1.279-1.388l-0.108,0.107l2.348,4.266c-1.353-1.207-2.561-2.31-3.627-3.306
		c-1.636,1.353-3.555,2.348-5.761,2.987c-2.56,0.853-4.942,0.924-7.146,0.213c-2.207-0.781-4.196-2.382-5.974-4.801l7.467-2.667
		c3.554-0.71,6.542-0.568,8.959,0.428l0.321-1.813c0.142,0.071,0.25,0.213,0.321,0.426c-0.214-2.346,0.319-4.977,1.6-7.892
		L66.01,163.546z M41.366,136.129l5.655-5.759c2.773,5.405,2.275,10.063-1.494,13.975c-1.636,1.635-3.413,2.915-5.334,3.839
		c0.498,1.138,1.14,2.879,1.921,5.227c-1.494-1.21-2.49-2.206-2.988-2.987c-0.212-0.499-0.46-0.994-0.746-1.494
		c-0.569,0.286-1.173,0.5-1.815,0.642c-1.35,0.496-2.773,0.781-4.267,0.852c-5.546,0.639-9.53-1.849-11.946-7.468l8.107-0.852
		c3.981,0.071,7.006,1.029,9.067,2.879l0.321-1.6c0.071,0.071,0.106,0.142,0.106,0.213C38.166,141.18,39.304,138.69,41.366,136.129z
		 M45.314,160.665c-1.777,1.065-3.733,1.85-5.867,2.348c-2.063,0.427-3.911,0.427-5.548,0c-2.915-0.781-5.296-2.811-7.146-6.082
		l7.68-1.919c0.427,0,0.783,0,1.067,0c4.267-0.144,7.434,0.819,9.494,2.88c-0.994-3.128-0.356-6.687,1.921-10.667l5.228-6.294
		c3.342,4.979,3.342,9.638,0,13.977c-1.567,1.918-3.309,3.519-5.228,4.8c0.71,1.491,1.244,3.059,1.6,4.691
		C47.304,163.047,46.238,161.803,45.314,160.665z M53.849,159.279l4.267-6.722c3.911,4.694,4.444,9.389,1.6,14.082
		c-0.285,0.354-0.568,0.711-0.854,1.067c-1.067,1.633-2.381,2.985-3.946,4.052c0.71,1.281,1.386,2.596,2.027,3.948
		c-1.208-0.996-2.348-1.991-3.415-2.987c-0.569,0.427-1.208,0.888-1.919,1.388c-1.067,0.64-2.313,1.173-3.734,1.6
		c-5.333,1.634-9.742,0-13.228-4.909l7.574-2.667c3.984-0.639,7.217-0.282,9.707,1.067l0.214-1.279
		C51.786,165.358,52.355,162.479,53.849,159.279z M70.916,180.508l4.479-6.509c3.84,4.693,4.232,9.353,1.173,13.976
		c-1.208,1.848-2.667,3.413-4.374,4.692c-0.071,0.07-0.141,0.108-0.212,0.108l2.985,3.624l-3.625-1.6
		c0-0.07-0.037-0.105-0.108-0.105c-0.213-0.213-0.425-0.428-0.64-0.641c-1.706,1.28-3.733,2.24-6.08,2.88
		c-5.192,1.423-9.529-0.354-13.015-5.334l7.682-2.452c4.338-0.568,7.753,0,10.24,1.706
		C68.498,187.938,68.995,184.489,70.916,180.508z M82.65,203.976c-0.073,0-0.177,0.071-0.321,0.213
		c-1.636,1.635-3.627,2.879-5.973,3.733c-5.121,1.992-9.636,0.64-13.547-4.055l7.467-2.985c4.267-1.066,7.786-0.748,10.559,0.961
		c-1.35-2.847-1.279-6.367,0.214-10.562l4.052-7.04c4.125,4.408,4.909,9.029,2.348,13.867c-1.066,1.992-2.348,3.663-3.839,5.013
		l1.812,1.706l2.027,2.455L82.65,203.976z"/>
	<path fill-rule="evenodd" clip-rule="evenodd" fill="#FFFFFF" d="M216.312,68.499L73.263,68.285l71.365,123.849L216.312,68.499z
		 M144.201,211.443L57.261,60.498l174.2,0.107L144.201,211.443z"/>
	<polygon fill-rule="evenodd" clip-rule="evenodd" fill="#FAE602" points="115.826,138.263 173.536,138.263 144.627,188.294 	"/>
</g>
</svg>
