<?xml version="1.0" encoding="utf-8"?>
<!-- Generator: Adobe Illustrator 16.0.0, SVG Export Plug-In . SVG Version: 6.00 Build 0)  -->
<!DOCTYPE svg PUBLIC "-//W3C//DTD SVG 1.1//EN" "http://www.w3.org/Graphics/SVG/1.1/DTD/svg11.dtd">
<svg version="1.1" id="Layer_1" xmlns="http://www.w3.org/2000/svg" xmlns:xlink="http://www.w3.org/1999/xlink" x="0px" y="0px"
	 width="300px" height="300px" viewBox="0 0 300 300" enable-background="new 0 0 300 300" xml:space="preserve">
<g>
	<path fill-rule="evenodd" clip-rule="evenodd" fill="#1A1A1A" d="M247.441,123.581H51.244c2.45-3.013,5.181-6.449,8.193-10.31
		c-3.012,0.66-7.25,2.022-12.712,4.095c-5.744,2.165-9.934,3.531-12.572,4.097C24.55,123.628,16.45,120.475,9.859,112l40.116-15.537
		l-0.284-2.119c-9.416,0.847-16.809,0.234-22.175-1.837c-2.637-1.035-5.084-2.494-7.346-4.379
		c-3.576-3.106-6.544-7.391-8.897-12.853h34.606l0.706-2.544c-9.606-0.375-16.95-2.447-22.034-6.216
		c-5.934-4.331-9.275-11.109-10.031-20.337l33.337,8.756l0.988-2.119c-8.944-4.897-15.113-9.463-18.503-13.7
		c-4.991-6.215-6.685-13.562-5.084-22.037l29.519,19.918c1.6-6.028,2.919-9.935,3.956-11.725c1.881-3.484,4.803-5.791,8.756-6.922
		l-1.694,5.369c-2.072,7.722,0.375,13.513,7.344,17.372l5.65,3.25c3.296,2.166,5.321,3.719,6.075,4.663
		c1.881,2.072,2.306,4.331,1.271,6.778c-0.565,1.412-1.978,2.825-4.237,4.237c-0.284,0.188-2.353,1.178-6.215,2.966
		c-2.919,4.991-2.307,12.053,1.837,21.187c0.563,1.413,1.225,2.731,1.975,3.956c3.862,7.063,8.759,12.007,14.69,14.832
		c3.016,1.412,6.641,2.59,10.878,3.531c1.694,0.472,5.556,1.178,11.582,2.118c0.943,0.188,2.119-0.188,3.531-1.131
		c1.412-1.035,2.212-1.976,2.4-2.825c1.038-4.896,3.063-9.841,6.075-14.831c0.375-0.469,0.753-1.034,1.131-1.694
		c1.975-2.919,4.756-6.638,8.332-11.159c0.756-0.94,1.462-2.259,2.119-3.953c0.565-2.072,1.038-3.628,1.413-4.662h-8.616
		c-1.128,0-2.635-0.047-4.519-0.141c-2.259-0.188-3.766-0.284-4.521-0.284l-0.141-2.4l18.222-6.356l-4.662-2.119
		c-4.144-2.918-7.582-4.756-10.31-5.509c-3.957-1.035-7.816-0.375-11.584,1.978c-1.128-4.331-0.75-7.862,1.131-10.594
		c1.788-2.543,5.038-4.19,9.747-4.944c1.128-0.281,2.778-0.847,4.944-1.694c2.166-1.037,3.766-1.649,4.803-1.837
		c3.672-0.659,6.875-0.612,9.603,0.141c7.816,2.166,12.904,3.296,15.255,3.39c2.541,0.094,7.486-0.706,14.832-2.4l-4.521,6.356
		l5.088,2.4l-4.098,3.531l3.672,4.237l-0.988,0.988c-2.543-0.375-4.287,0.047-5.227,1.272c-0.941,1.037-1.178,2.684-0.707,4.944
		c1.035,4.991,2.777,11.583,5.229,19.775c0.469,1.79,1.174,3.909,2.119,6.356c0.281,0.753,0.611,1.649,0.986,2.684
		c0.469,1.035,0.943,2.26,1.412,3.672l-2.258-0.847c-0.66,1.035-1.838,2.544-3.531,4.519c-1.414,1.697-2.217,3.25-2.404,4.663
		c-0.846,4.425,1.932,7.203,8.334,8.334c12.055,2.26,23.213-1.649,33.479-11.725c2.826-2.731,5.131-5.604,6.92-8.616
		c1.225-1.978,2.307-4.05,3.25-6.215c2.258-5.744,2.824-11.301,1.693-16.666c-3.576-2.356-6.072-4.003-7.484-4.944
		c-2.545-1.697-4.051-3.25-4.521-4.663c-0.941-2.918-0.281-5.462,1.977-7.628c0.848-0.753,3.297-2.353,7.348-4.803
		c6.119-3.578,9.793-6.826,11.016-9.744c1.131-2.922,0.613-7.722-1.553-14.409c3.578,0.847,6.168,2.306,7.768,4.378
		c1.508,2.072,2.826,5.84,3.957,11.3c5.65-1.035,11.063-3.294,16.244-6.778c4.049-2.919,8.381-6.922,12.994-12.006
		c2.258,6.875,2.023,12.9-0.707,18.078c-3.201,6.216-10.264,12.525-21.188,18.928l0.426,1.837l32.627-8.475
		c0.566,7.628-1.459,13.419-6.074,17.373c-4.709,3.956-13.42,7.205-26.131,9.746c5.178,1.979,11.111,3.063,17.797,3.25
		c3.861,0,9.605-0.188,17.234-0.565c-1.604,5.178-3.957,9.182-7.063,12.006c-1.133,1.035-2.404,1.932-3.816,2.685
		c-5.084,2.731-13.98,4.612-26.693,5.65l39.125,15.253c-1.883,4.334-4.803,7.394-8.758,9.182c-4.049,1.696-8.805,1.884-14.268,0.565
		c-4.049-1.035-8.332-2.354-12.854-3.953c-5.178-2.072-9.182-3.484-12.006-4.238C242.496,117.132,245.088,120.568,247.441,123.581z
		 M99.553,67.647c-1.131-1.413-1.319-3.578-0.565-6.498c3.106,3.201,6.638,4.519,10.594,3.954c1.225-0.188,4.756-1.316,10.594-3.388
		c2.259-0.85,5.131-1.697,8.616-2.544c1.978-0.472,4.85-1.178,8.616-2.119c-10.638,4.709-16.856,7.391-18.644,8.05
		c-3.956,1.603-6.263,2.497-6.922,2.685c-2.635,0.943-4.991,1.506-7.063,1.696C102.332,69.766,100.588,69.153,99.553,67.647z"/>
	<path fill-rule="evenodd" clip-rule="evenodd" fill="#DC1F26" d="M82.319,203.388H68.479c5.744-7.531,10.688-16.666,14.831-27.403
		c4.897-15.253,8.663-26.6,11.3-34.04c-2.825,3.202-7.016,8.006-12.572,14.409c-5.084,5.649-9.512,10.262-13.278,13.84
		c-5.272,4.804-12.1,8.807-20.481,12.007c-1.791,0.847-4.141,0.99-7.063,0.425c-1.128-0.188-3.766-0.8-7.909-1.838
		c8.1-5.556,15.678-13.134,22.741-22.74c3.296-4.519,8.947-13.419,16.95-26.696c-2.825,2.165-7.063,5.415-12.712,9.746
		c-4.897,3.859-9.134,7.063-12.712,9.606c-4.709,3.484-9.604,5.178-14.69,5.084c-4.988-0.094-10.406-1.884-16.244-5.368
		c8.759-3.013,16.856-8.144,24.296-15.396c2.541-2.447,5.979-6.26,10.31-11.441h196.197c3.859,4.804,7.158,8.569,9.887,11.301
		c7.063,7.063,14.738,12.1,23.025,15.115c-3.859,3.484-8.193,5.459-12.998,5.931c-4.893,0.473-9.555-0.8-13.98-3.813
		c-3.582-2.262-8.334-5.603-14.27-10.03c-6.684-5.085-11.393-8.569-14.125-10.45c10.926,16.665,16.717,25.425,17.375,26.271
		c7.156,9.51,14.973,16.81,23.447,21.894c-3.578,2.354-7.156,3.578-10.734,3.672c-3.484,0.188-6.781-0.659-9.887-2.543
		c-7.344-4.142-14.125-9.275-20.342-15.395c-2.729-2.638-6.309-6.5-10.734-11.584c-5.084-5.744-8.711-9.747-10.875-12.006
		c2.826,7.347,6.779,18.646,11.863,33.899c4.145,10.831,9.182,20.013,15.115,27.544h-14.266c-2.262-1.225-4.236-2.685-5.934-4.378
		c-6.217-5.838-11.865-13.419-16.951-22.741c-2.164-3.956-6.258-12.524-12.287-25.709c-0.377-0.753-0.189-2.022,0.566-3.813
		c0.939-2.072,1.6-3.578,1.975-4.519l-8.475-4.098c1.979,3.767,1.6,8.476-1.129,14.125c-2.922,6.025-3.955,10.547-3.109,13.56
		l4.238-7.769c4.521,7.722,8.053,15.112,10.594,22.175c2.73,7.723,4.426,15.444,5.088,23.166h-24.863
		c-2.354-2.919-4.236-5.319-5.65-7.203c-0.563,2.447-0.986,4.85-1.268,7.203h-19.354c-0.282-3.106-0.8-6.31-1.553-9.604
		c-1.413,3.294-3.063,6.497-4.944,9.604h-24.859c0.472-7.531,2.072-15.159,4.803-22.882c2.447-6.969,5.979-14.456,10.594-22.459
		l4.378,8.05l1.272-0.422c-2.919-8.662-4.709-14.125-5.369-16.384c-0.375-1.319-0.66-3.016-0.847-5.088
		c-0.472-3.294-0.706-5.084-0.706-5.365l-8.053,3.813c2.356,1.884,3.625,4.003,3.815,6.356c0,1.884-0.803,4.19-2.403,6.921
		c-0.75,1.413-4,7.298-9.744,17.656c-3.956,7.25-7.346,13.091-10.171,17.516C92.3,196.466,87.875,200.563,82.319,203.388z"/>
	<path fill-rule="evenodd" clip-rule="evenodd" fill="#FDCD08" d="M215.943,203.388h14.266c1.223,1.6,2.447,3.109,3.672,4.521
		C226.912,207.719,220.932,206.213,215.943,203.388z M108.028,203.388h24.859c-3.672,5.934-8.144,11.584-13.419,16.95
		c-2.731,2.73-7.581,7.016-14.55,12.853c-2.731,2.263-5.791,4.757-9.181,7.487l19.069,5.791c2.731,1.6,4.144,3.484,4.237,5.65
		c0.094,1.978-0.987,4.331-3.247,7.063l-3.672-8.757c-1.131,0.753-1.744,1.128-1.837,1.128c-0.753,0.473-1.881,1.226-3.391,2.263
		c-1.316,0.753-2.259,1.034-2.825,0.847c-0.847-0.378-1.647-1.271-2.4-2.684c-0.847-1.791-1.553-3.153-2.119-4.098
		c-3.297-0.659-5.84-0.659-7.628,0c-2.544,0.848-4,2.872-4.378,6.075c0.566,1.128,1.553,2.872,2.966,5.226
		c0.943,1.79,1.272,2.918,0.988,3.39c-1.506,2.072-3.482,2.966-5.932,2.685c-0.659,0-3.013-0.612-7.063-1.837l5.509-16.525
		c-2.825,0.469-4.803,0.894-5.934,1.271c-1.788,0.66-2.919,2.307-3.388,4.944c-0.472,2.825-1.65,4.047-3.531,3.672
		c-1.319-0.188-3.063-1.225-5.228-3.109l-4.378,7.912l-1.978-0.144c0-2.071,0-3.625,0-4.659c0-1.791,0.096-3.297,0.284-4.521
		c0-0.281,0.612-0.47,1.834-0.563c1.884-0.19,2.921-0.284,3.109-0.284l0.988-2.824c0.469-1.129,0.988-1.835,1.553-2.119
		c1.791-0.94,4.05-1.932,6.781-2.966c1.6-0.659,4.097-1.693,7.484-3.106l-6.638-7.487l-9.181,1.271l0.988-9.746v-0.141l4.381-3.815
		l16.1,18.222c1.413-2.072,2.731-3.906,3.956-5.51c2.638-3.859,4.707-6.872,6.216-9.037c3.859-5.463,7.063-10.078,9.603-13.844
		c0.378-0.659,0.613-1.601,0.707-2.825c0.094-1.506,0.144-2.591,0.144-3.25C107.888,203.953,107.932,203.672,108.028,203.388z
		 M139.385,203.388h19.354c-0.566,6.027-0.051,12.006,1.553,17.94c0.939,3.859,2.4,7.815,4.377,11.862
		c1.883,4.05,4.285,8.147,7.203,12.291l-8.189-1.979c0.094,5.179,1.6,9.841,4.518,13.984c2.92,4.144,8.945,9.981,18.082,17.516
		l-10.594-1.271l2.824,4.659c-1.131,0.19-1.836,0.284-2.117,0.284l-15.682-1.554l-11.441,15.395l-11.581-15.112H131.9v-1.694
		l-12.572,3.672l3.391-5.649l-9.181,1.128c6.497-5.46,11.112-9.981,13.841-13.56c4.428-5.556,7.159-11.628,8.193-18.222
		l-9.181,2.969c2.919-4.428,5.366-8.713,7.344-12.856c1.791-4.047,3.153-7.956,4.097-11.722
		C139.338,215.631,139.856,209.604,139.385,203.388z M158.313,250.565l-1.553-1.131l-7.347,9.465l-8.05-9.04l-1.413,0.847
		l9.181,14.266L158.313,250.565z M165.656,203.388h24.863c0.281,3.862,1.506,7.534,3.672,11.019c2.07,3.2,4.803,7.203,8.189,12.006
		c1.225,1.601,2.826,3.859,4.803,6.778c1.414,1.791,2.967,3.909,4.664,6.356c2.258-2.635,4.096-4.753,5.508-6.356
		c0.469-0.563,0.895-1.081,1.27-1.553c2.543-3.013,4.709-5.413,6.5-7.203c0.469-0.565,1.412-0.941,2.824-1.132
		c0.752-0.094,1.932-0.234,3.531-0.422c1.508-2.259,2.354-3.344,2.541-3.25c1.697,0.66,4.473,2.119,8.334,4.379l-0.986,2.402
		l-10.172-2.118l0.424,1.128c0.188,0.378,0.328,0.659,0.422,0.85c0.189,1.601,0.426,3.906,0.707,6.919c0,0.284,0,0.565,0,0.85
		l-9.463-0.99l-0.141,0.141c-0.471,0.565-2.543,2.969-6.215,7.206c1.693,0.659,4.096,1.647,7.203,2.966
		c2.637,1.034,4.85,2.072,6.641,3.106c0.563,0.284,1.08,0.943,1.553,1.979c0.281,0.565,0.66,1.412,1.129,2.543l-6.357,5.65
		c-0.75-1.413-1.318-2.497-1.693-3.25c-0.754-1.412-1.459-2.4-2.119-2.966c-0.846-0.659-2.119-1.365-3.813-2.119
		c-2.168-0.943-3.955-1.743-5.369-2.402l5.791,17.375c-3.859,1.225-6.215,1.884-7.063,1.978c-2.447,0.281-4.424-0.565-5.932-2.543
		c-0.658-0.941,0.566-3.391,3.672-7.345c-0.188-3.484-1.412-5.79-3.672-6.921c-2.07-1.132-4.896-1.272-8.475-0.426
		c-1.225,4.429-2.447,6.734-3.672,6.922c-1.318,0.094-4.568-1.693-9.746-5.365l-1.838,9.888c-2.635-3.391-3.908-5.981-3.813-7.77
		c0.188-1.696,1.834-3.344,4.943-4.943l10.453-3.675c1.035-0.375,2.307-0.706,3.813-0.987c0.848-0.094,2.307-0.328,4.379-0.706
		c-3.953-3.391-7.203-6.122-9.748-8.194c-0.939-0.753-1.74-1.459-2.398-2.118c-4.707-4.048-8.523-7.579-11.441-10.594
		c-2.824-3.013-6.121-6.966-9.887-11.863C168.059,206.731,166.787,204.987,165.656,203.388z M97.575,204.94l1.272,0.707
		l-12.854,18.081l-6.356-7.91L97.575,204.94z M68.479,203.388h13.841c-4.988,2.638-10.875,4.19-17.656,4.662
		C65.888,206.638,67.16,205.084,68.479,203.388z M78.506,266.244h6.216l2.259,7.628l-1.694,1.693l-7.912-7.909L78.506,266.244z
		 M233.457,251.131l0.283-0.284v0.284C233.645,251.131,233.551,251.131,233.457,251.131z M238.824,252.825
		c0.188,1.131,0.238,2.543,0.141,4.237c0,0.943-0.094,2.403-0.281,4.378l-2.824,0.144l-2.119-10.453
		c0.66,0.188,1.693,0.422,3.107,0.706C238.072,252.119,238.73,252.45,238.824,252.825z M213.119,275.565l-1.697-1.693l2.402-7.628
		h5.932l1.131,1.412L213.119,275.565z M199.84,205.932l0.988-0.848l18.928,11.3l-7.908,6.638L199.84,205.932z"/>
</g>
</svg>
