<?xml version="1.0" encoding="utf-8"?>
<!-- Generator: Adobe Illustrator 16.0.0, SVG Export Plug-In . SVG Version: 6.00 Build 0)  -->
<!DOCTYPE svg PUBLIC "-//W3C//DTD SVG 1.1//EN" "http://www.w3.org/Graphics/SVG/1.1/DTD/svg11.dtd">
<svg version="1.1" id="Layer_1" xmlns="http://www.w3.org/2000/svg" xmlns:xlink="http://www.w3.org/1999/xlink" x="0px" y="0px"
	 width="300px" height="300px" viewBox="0 0 300 300" enable-background="new 0 0 300 300" xml:space="preserve">
<g>
	<path fill-rule="evenodd" clip-rule="evenodd" fill="#1E3B6F" d="M242.467,80.87c-0.468,0.415-0.886,0.831-1.248,1.247
		c-3.432,3.222-5.278,5.092-5.539,5.611c-3.64,3.326-6.837,6.728-9.593,10.209c-0.624,0.728-1.222,1.481-1.794,2.26
		c-2.704,3.689-4.94,7.456-6.708,11.301l-1.638,5.689c-0.313,1.195-0.572,2.287-0.78,3.273c-1.976,10.547,5.486,10.547,22.385,0
		c3.588-2.286,7.593-5.014,12.012-8.183c1.145,2.91,2.782,5.637,4.915,8.183c4.263,4.936,10.581,9.041,18.952,12.314
		c10.4,4.366,18.59,5.714,24.569,4.052l-36.892,29.54c-1.561,3.117-1.327,6.598,0.7,10.442c0.573,1.195,1.354,2.39,2.34,3.586
		c4.473,5.922,12.844,12.598,25.116,20.029c0.155,0.104,0.339,0.207,0.546,0.311l-24.569,2.418
		c-25.271,2.078-39.076,6.441-41.416,13.093c-0.261,0.57-0.391,1.142-0.391,1.715c0,4.624,4.497,11.56,13.494,20.808
		c4.836,4.936,10.972,10.574,18.407,16.912l-16.457,1.56c-22.36-10.912-41.47-12.261-57.328-4.053
		c-8.58-8.987-14.794-13.794-18.642-14.419c-0.573-0.052-1.093-0.052-1.56,0c-0.416,0.104-0.807,0.259-1.17,0.47
		c-2.652,1.662-4.265,10.418-4.837,26.264c-6.24-10.235-11.726-19.146-16.458-26.733c-5.979-9.559-10.79-17.066-14.429-22.522
		c-1.352-1.976-2.547-3.689-3.588-5.145c0,0.137,0,0.229,0,0.273c-0.003-0.137-0.029-0.253-0.078-0.354
		c-0.573-0.778-1.092-1.451-1.56-2.023c-1.041,2.338-2.001,4.752-2.887,7.248c-2.34,6.856-3.926,14.367-4.757,22.522
		c-0.261,2.808-0.442,5.69-0.545,8.652c0,15.273,2.183,28.134,6.552,38.579c-10.348-6.549-20.721-8.731-31.121-6.549
		c-0.364-12.47,1.924-26.029,6.863-40.683c2.392-7.221,5.46-14.729,9.205-22.522c0.625-1.352,1.273-2.703,1.95-4.055
		c-4.212,1.613-8.06,2.962-11.544,4.055c-6.188,1.87-11.362,2.987-15.521,3.35c-3.277,0-6.735-0.441-10.374-1.324
		c-2.185-0.518-4.394-1.193-6.63-2.025c-3.484-1.248-7.124-2.857-10.92-4.834c1.767-1.4,3.354-2.729,4.758-3.974
		c3.225-2.755,5.694-5.093,7.41-7.014c1.405-1.559,2.288-2.807,2.652-3.741c-6.552-5.663-13.025-12.287-19.422-19.874
		c-1.82-2.184-3.613-4.418-5.382-6.702c-2.808-3.585-5.589-7.353-8.345-11.301c-0.155-0.209-0.313-0.443-0.468-0.702
		c-2.549-3.845-4.94-7.431-7.177-10.756c-1.299-2.024-2.547-3.949-3.743-5.766c-0.209-0.313-0.39-0.599-0.547-0.859
		C13.31,131.84,8.864,125.268,5.9,121.007c-1.976-2.858-3.275-4.676-3.9-5.456c1.299,0.364,2.601,0.727,3.9,1.091
		c3.952,1.091,7.696,2.286,11.232,3.585c0.155,0.104,0.312,0.182,0.468,0.233c2.027,0.78,4.005,1.585,5.927,2.416
		c1.924,0.832,3.771,1.663,5.539,2.494l4.913,1.637c14.871,4.78,22.776,2.597,23.711-6.547c0.052-0.259,0.078-0.52,0.078-0.779
		c0-1.039-0.104-2.286-0.312-3.741c-0.729-4.313-2.444-10.313-5.148-18.004c-0.623-1.766-1.299-3.636-2.027-5.611
		c-0.52-1.195-1.041-2.442-1.56-3.741l-4.835-14.029c9.254-1.662,14.688-3.559,16.3-5.689c2.236-3.689,4.317-7.144,6.24-10.365
		c0.209-0.416,0.417-0.779,0.625-1.092c3.432-5.766,6.343-10.677,8.735-14.729c0.469-0.728,0.937-1.481,1.405-2.261
		c1.924-2.857,3.978-5.404,6.162-7.637c5.511-5.768,11.751-9.586,18.719-11.457c-2.549,7.119-2.34,13.482,0.623,19.094
		c0.312,0.572,0.625,1.144,0.937,1.715c4.107,6.442,11.881,11.898,23.321,16.367c0.832,0.312,1.715,0.624,2.651,0.935
		c0.364,0.156,0.728,0.286,1.092,0.39v8.261c1.041,6.962,2.835,11.224,5.382,12.782c1.405,0.936,3.12,0.936,5.147,0
		c0.625-0.312,1.275-0.676,1.95-1.091c4.368-3.169,9.828-10.262,16.38-21.277c3.068-5.196,6.369-11.223,9.906-18.082
		c1.248-2.39,2.521-4.936,3.821-7.637c1.665,3.065,3.303,5.611,4.914,7.637c2.027,2.702,3.978,4.546,5.85,5.534
		c4.107,1.506,9.854-0.338,17.237-5.534c0.52-0.311,1.041-0.675,1.56-1.091c4.368-3.222,7.384-7.326,9.048-12.314
		c2.185-5.975,3.537-10.314,4.057-13.015l2.495,18.783c0.261,2.701,0.52,5.247,0.78,7.637c0.832,7.378,1.689,13.405,2.574,18.082
		c1.3,6.65,2.625,10.652,3.978,12.003c3.275,2.129,13.962,1.039,32.057-3.274C251.228,72.998,246.105,77.544,242.467,80.87z
		 M234.899,79.544c-9.359,2.754-15.703-1.61-19.029-13.093c-0.625-2.391-1.145-5.04-1.561-7.95c0-0.208,0-0.39,0-0.545
		c-0.261-7.482-0.441-13.327-0.547-17.536c-0.155-4.78-0.233-7.326-0.233-7.637c-1.508,2.805-3.328,5.351-5.459,7.637
		c-4.109,4.417-9.412,7.872-15.912,10.366c-10.349,3.326-16.899,1.714-19.656-4.832c-0.832,4.364-2.183,8.547-4.056,12.547
		c-4.055,8.365-10.399,15.821-19.031,22.368c-0.468,0.415-0.961,0.779-1.482,1.09c0,0.053-0.025,0.104-0.077,0.156
		c-1.664,1.248-3.224,2.26-4.681,3.04c-5.823,3.118-10.346,2.702-13.571-1.248c-0.416-0.519-0.832-1.116-1.248-1.792
		c-0.208-0.416-0.416-0.832-0.624-1.247c-1.82-3.845-2.99-9.483-3.51-16.913c-3.432-0.936-6.968-2.754-10.609-5.456
		c-2.702-2.026-5.485-4.599-8.345-7.716c-0.52-0.571-1.066-1.169-1.638-1.792c-2.445-2.858-4.342-5.715-5.695-8.573
		c-1.924-3.948-2.755-7.845-2.495-11.69c-3.745,2.027-7.436,5.924-11.077,11.69c-0.311,0.52-0.649,1.092-1.013,1.715
		c-2.652,4.417-5.253,9.872-7.8,16.367c-0.209,0.416-0.39,0.857-0.547,1.325c-2.288,5.767-4.939,10.313-7.955,13.639
		c-4.056,4.572-8.787,6.858-14.195,6.858c0.104,0.208,0.182,0.39,0.233,0.546c0.157,0.415,0.312,0.831,0.468,1.247
		c1.508,3.585,2.835,6.988,3.979,10.21c0.675,1.923,1.299,3.793,1.871,5.611c2.236,6.963,3.693,12.964,4.369,18.004
		c0.155,1.611,0.259,3.117,0.311,4.52c0.052,3.793-0.416,6.911-1.403,9.353c-2.964,7.274-10.659,9.171-23.087,5.689
		c-4.732-1.351-10.088-3.429-16.069-6.235c-2.443-1.195-4.965-2.494-7.565-3.897c2.704,4.053,5.225,7.846,7.565,11.38
		c0.676,0.987,1.327,1.948,1.95,2.883c0.26,0.415,0.521,0.779,0.78,1.09c5.044,7.639,9.049,13.667,12.012,18.083
		c0.832,1.298,1.586,2.441,2.263,3.429c1.82,2.648,3.796,5.273,5.927,7.872c1.82,2.284,3.771,4.519,5.85,6.702
		c4.368,4.676,9.282,9.378,14.742,14.107c0.987,0.779,2.001,1.583,3.042,2.415c0.468,2.079,0,4.441-1.405,7.093
		c-0.416,0.831-0.961,1.714-1.637,2.648v0.08c-1.664,2.286-3.952,4.779-6.865,7.479c2.236,1.145,4.524,2.055,6.865,2.729
		c13.832,4.105,30.132-0.208,48.903-12.937c0.261-0.155,0.521-0.313,0.78-0.469c-0.052,0.155-0.129,0.313-0.233,0.469
		c-3.12,5.456-5.955,10.729-8.502,15.821c-3.848,7.897-6.994,15.405-9.437,22.522c-4.524,13.198-6.656,25.123-6.397,35.772
		c5.46-2.231,11.206-1.169,17.239,3.196c-3.016-12.677-3.667-25.667-1.95-38.969c0.936-7.428,2.651-14.938,5.148-22.522
		c1.664-5.093,3.639-10.235,5.927-15.432c0-0.052,0.026-0.104,0.078-0.155c1.299,0.052,1.95,0.128,1.95,0.231
		c4.005,5.666,7.644,10.783,10.919,15.355c0.728,1.09,1.482,2.156,2.262,3.194c0.52,0.779,1.041,1.534,1.56,2.262
		c1.248,1.817,2.417,3.531,3.51,5.143c3.275,4.779,5.928,8.755,7.955,11.924c1.145,1.767,2.081,3.301,2.81,4.598
		c0-1.766,0.207-3.298,0.623-4.598c1.456-4.779,5.643-6.521,12.557-5.22c4.628,0.623,8.944,2.362,12.949,5.22
		c2.599,1.87,5.096,4.208,7.487,7.015c7.643-3.793,19.395-4.052,35.254-0.779c14.196,4.366,21.294,6.262,21.294,5.69
		c-5.199-4.211-9.594-8.185-13.182-11.926c-8.424-8.832-12.297-16.339-11.622-22.522c0.313-2.703,1.482-5.117,3.51-7.248
		c3.433-3.431,9.698-6.287,18.798-8.573c8.32-2.028,18.979-3.559,31.979-4.6c-7.643-4.312-12.115-9.273-13.415-14.885
		c-0.261-1.352-0.39-2.728-0.39-4.131c0.104-3.273,1.17-6.756,3.197-10.442c1.56-2.601,3.433-5.119,5.617-7.561
		c5.615-6.289,13.492-12.313,23.632-18.083c0.364-0.207,0.754-0.414,1.17-0.622c-0.832,0.26-1.689,0.467-2.573,0.622
		c-5.98,1.352-12.141,1.352-18.486,0c-0.936-0.155-1.845-0.362-2.729-0.622c-9.359-3.274-15.651-9.535-18.875-18.783
		c-25.739,17.405-38.608,18.471-38.608,3.196c0-1.299,0.077-2.65,0.232-4.053c0.677-5.975,2.782-11.95,6.319-17.925
		c0.936-1.507,1.976-3.041,3.12-4.599c3.743-5.247,8.552-10.521,14.43-15.821c0.416-0.416,0.884-0.832,1.402-1.247
		C233.781,80.454,234.328,80.011,234.899,79.544z"/>
	<path fill-rule="evenodd" clip-rule="evenodd" fill="#FFFFFF" d="M231.859,82.116h-84.004c0.052-0.052,0.077-0.104,0.077-0.156
		c0.521-0.311,1.015-0.675,1.482-1.09c8.632-6.547,14.977-14.003,19.031-22.368h45.863c0.416,2.91,0.936,5.559,1.561,7.95
		c3.119,12.002,9.463,16.367,19.029,13.093c-0.571,0.467-1.118,0.91-1.638,1.325C232.743,81.285,232.275,81.701,231.859,82.116z
		 M217.43,97.937c-1.145,1.559-2.185,3.092-3.12,4.599c-3.537,5.975-5.643,11.95-6.319,17.925h-78.387v-3.273
		c2.185-0.364,4.576-0.779,7.177-1.247h-33.149v24.783h164.339c6.346,1.352,12.506,1.352,18.486,0h1.403
		c-10.14,5.77-18.017,11.794-23.632,18.083H38.269c-2.963-4.416-6.968-10.444-12.012-18.083h57.095v-24.783H63.775
		c-0.676-5.04-2.133-11.041-4.369-18.004c-0.571-1.818-1.196-3.688-1.871-5.611h25.817V42.135c0.364-0.623,0.702-1.195,1.013-1.715
		c3.641-5.767,7.332-9.664,11.077-11.69c-0.26,3.845,0.571,7.742,2.495,11.69c1.353,2.858,3.25,5.715,5.695,8.573v43.333h25.972
		v5.611H217.43z M226.555,238.769h-50.854c-4.005-2.857-8.321-4.597-12.949-5.22c-6.914-1.301-11.101,0.44-12.557,5.22h-3.433
		c-2.027-3.169-4.68-7.145-7.955-11.924c-1.092-1.611-2.262-3.325-3.51-5.143c-0.52-0.728-1.041-1.482-1.56-2.262
		c-0.78-1.038-1.534-2.104-2.262-3.194h83.457C214.258,222.43,218.131,229.937,226.555,238.769z M107.453,238.769h-8.892
		c2.443-7.117,5.589-14.625,9.437-22.522h4.603C110.104,223.83,108.389,231.341,107.453,238.769z M115.954,200.425H75.005h-6.318
		c1.405-2.651,1.873-5.014,1.405-7.093c-1.041-0.832-2.055-1.636-3.042-2.415c-5.46-4.729-10.375-9.432-14.742-14.107h203.106
		c0,1.403,0.129,2.779,0.39,4.131c1.3,5.611,5.772,10.573,13.415,14.885c-12.999,1.041-23.658,2.571-31.979,4.6H116.501
		c0.104-0.155,0.181-0.313,0.233-0.469C116.475,200.111,116.214,200.27,115.954,200.425z M213.763,40.42h-5.692
		c2.131-2.286,3.951-4.832,5.459-7.637C213.529,33.094,213.607,35.64,213.763,40.42z"/>
	<path fill-rule="evenodd" clip-rule="evenodd" fill="#2560AD" d="M107.999,216.246c2.547-5.093,5.382-10.365,8.502-15.821H237.24
		c-9.1,2.286-15.365,5.143-18.798,8.573c-2.027,2.131-3.197,4.545-3.51,7.248h-83.457c-3.275-4.572-6.915-9.689-10.919-15.355
		c0-0.104-0.651-0.18-1.95-0.231c-0.052,0.052-0.078,0.104-0.078,0.155c-2.288,5.196-4.264,10.339-5.927,15.432H107.999z
		 M217.43,97.937h-87.826v-5.611h-25.972V48.993c0.571,0.623,1.118,1.222,1.638,1.792c2.859,3.117,5.643,5.69,8.345,7.716
		c3.641,2.702,7.177,4.52,10.609,5.456c0.52,7.43,1.689,13.067,3.51,16.913c0.208,0.415,0.416,0.831,0.624,1.247
		c0.416,0.676,0.832,1.273,1.248,1.792c3.225,3.95,7.748,4.365,13.571,1.248c1.457-0.779,3.017-1.792,4.681-3.04h84.004
		C225.981,87.416,221.173,92.69,217.43,97.937z M267.971,140.724H103.631v-24.783h33.149c-2.601,0.467-4.992,0.883-7.177,1.247
		v3.273h78.387c-0.155,1.403-0.232,2.754-0.232,4.053c0,15.275,12.869,14.209,38.608-3.196c3.224,9.249,9.516,15.509,18.875,18.783
		C266.126,140.361,267.035,140.569,267.971,140.724z M115.954,200.425c-18.771,12.729-35.071,17.042-48.903,12.937
		c-2.34-0.674-4.628-1.584-6.865-2.729c2.913-2.7,5.201-5.193,6.865-7.479c2.808-0.987,5.459-1.897,7.955-2.729H115.954z
		 M98.562,238.769h8.892c-1.717,13.302-1.066,26.292,1.95,38.969c-6.033-4.365-11.779-5.428-17.239-3.196
		C91.906,263.892,94.037,251.967,98.562,238.769z M175.701,238.769h50.854c3.588,3.741,7.982,7.715,13.182,11.926
		c0,0.571-7.098-1.324-21.294-5.69c-15.859-3.272-27.611-3.014-35.254,0.779C180.797,242.977,178.3,240.639,175.701,238.769z
		 M38.269,158.807h225.96c-2.185,2.441-4.058,4.96-5.617,7.561c-2.027,3.687-3.094,7.169-3.197,10.442H52.308
		c-2.079-2.184-4.029-4.418-5.85-6.702c-2.131-2.599-4.107-5.224-5.927-7.872C39.854,161.248,39.101,160.104,38.269,158.807z
		 M146.763,238.769h3.433c-0.416,1.3-0.623,2.832-0.623,4.598C148.844,242.069,147.907,240.535,146.763,238.769z M63.775,115.941
		h19.577v24.783H26.257c-0.259-0.311-0.52-0.675-0.78-1.09c-0.623-0.935-1.274-1.896-1.95-2.883
		c-2.34-3.534-4.861-7.327-7.565-11.38c2.6,1.403,5.122,2.702,7.565,3.897c5.981,2.806,11.337,4.884,16.069,6.235
		c12.428,3.481,20.123,1.584,23.087-5.689c0.987-2.441,1.455-5.559,1.403-9.353C64.034,119.058,63.93,117.552,63.775,115.941z
		 M83.352,42.135v50.191H57.535c-1.144-3.222-2.471-6.625-3.979-10.21c-0.156-0.416-0.311-0.832-0.468-1.247
		c-0.052-0.156-0.129-0.338-0.233-0.546c5.408,0,10.14-2.286,14.195-6.858c3.016-3.325,5.667-7.872,7.955-13.639
		c0.157-0.468,0.338-0.91,0.547-1.325C78.099,52.007,80.7,46.552,83.352,42.135z M214.31,58.501h-45.863
		c1.873-4,3.224-8.183,4.056-12.547c2.757,6.546,9.308,8.158,19.656,4.832c6.5-2.494,11.803-5.949,15.912-10.366h5.692
		c0.105,4.209,0.286,10.054,0.547,17.536C214.31,58.112,214.31,58.293,214.31,58.501z"/>
</g>
</svg>
