<?xml version="1.0" encoding="utf-8"?>
<!-- Generator: Adobe Illustrator 16.0.0, SVG Export Plug-In . SVG Version: 6.00 Build 0)  -->
<!DOCTYPE svg PUBLIC "-//W3C//DTD SVG 1.1//EN" "http://www.w3.org/Graphics/SVG/1.1/DTD/svg11.dtd">
<svg version="1.1" id="Layer_1" xmlns="http://www.w3.org/2000/svg" xmlns:xlink="http://www.w3.org/1999/xlink" x="0px" y="0px"
	 width="300px" height="300px" viewBox="0 0 300 300" enable-background="new 0 0 300 300" xml:space="preserve">
<g>
	<path fill-rule="evenodd" clip-rule="evenodd" fill="#DE1414" d="M294.194,196.754c0.898,0.366,1.774,1.141,2.633,2.323
		c1.101,1.468,1.427,2.385,0.978,2.751c-0.407,0.368-1.529,0.122-3.365-0.733c-1.387-0.611-2.264-1.305-2.632-2.078
		c-0.447-0.734-0.346-1.427,0.307-2.079C292.686,196.408,293.379,196.347,294.194,196.754z M258.581,191.862
		c-0.57-1.508,0.244-1.772,2.448-0.794c2.283,1.06,4.262,2.587,5.935,4.585c1.184,1.426,1.816,2.772,1.897,4.035
		c0.081,1.346-0.429,2.12-1.53,2.322c-0.611,0.165-2.061-1.119-4.345-3.85C260.62,195.469,259.151,193.37,258.581,191.862z
		 M258.029,176.455c-0.162-1.387-0.081-2.16,0.246-2.323c0.365-0.203,1.326,0.061,2.875,0.795c2.489,1.1,2.633,2.364,0.429,3.79
		c-1.103,0.692-1.917,0.876-2.448,0.551C258.641,178.941,258.275,178.005,258.029,176.455z M271.86,176.089
		c-0.694-1.062-1.062-1.712-1.103-1.957c-0.041-0.897,0.306-1.143,1.04-0.733c0.735,0.366,2.021,1.487,3.854,3.362
		c1.347,1.346,2.246,2.405,2.694,3.18c0.447,0.814,0.57,1.487,0.366,2.018c-0.243,0.652-0.632,0.835-1.162,0.551
		c-0.53-0.368-1.57-1.428-3.121-3.182C273.45,178.146,272.594,177.066,271.86,176.089z M280.183,100.458
		c-0.082-0.123,0.183-0.407,0.794-0.856c0.653-0.489,1.471-1.039,2.447-1.65c1.878-1.101,3.143-1.773,3.795-2.019
		c0.652-0.163,0.979,0.021,0.979,0.551c0,0.367-1.265,1.203-3.794,2.506C281.875,100.254,280.468,100.743,280.183,100.458z
		 M243.161,42.985c0.692,1.509,0.998,2.771,0.917,3.792c-0.081,1.018-0.488,1.528-1.225,1.528c-0.692,0-1.324-0.632-1.896-1.896
		c-0.652-1.264-0.979-2.567-0.979-3.912c0-1.142,0.388-1.651,1.164-1.529C241.916,41.049,242.589,41.722,243.161,42.985z
		 M223.334,54.296c0.53,0,0.795,0.51,0.795,1.529c0,1.061-0.326,2.283-0.979,3.668c-0.612,1.468-1.162,2.201-1.651,2.201
		c-0.49,0-0.714-0.733-0.673-2.201c0-1.508,0.285-2.751,0.856-3.729C222.253,54.745,222.804,54.255,223.334,54.296z M185.394,43.414
		c-0.448,1.792-1.161,2.975-2.142,3.545c-1.755,1.101-2.978,0.612-3.672-1.467c-0.692-2.078-0.266-3.892,1.286-5.441
		c0.979-0.979,1.754-1.488,2.325-1.528c0.53-0.083,1.143,0.306,1.836,1.161C185.679,40.499,185.804,41.742,185.394,43.414z
		 M212.318,36.565c-0.285,1.509-0.774,2.263-1.467,2.263c-0.859,0-1.593-0.673-2.204-2.018c-0.531-1.345-0.694-2.751-0.491-4.219
		c0.206-1.589,0.817-2.445,1.836-2.567c1.063-0.164,1.776,0.508,2.143,2.017C212.503,33.589,212.564,35.098,212.318,36.565z
		 M210.299,45.248c0.899-0.693,1.347-0.021,1.347,2.017c0,0.693-0.123,1.488-0.366,2.385c-0.245,0.896-0.551,1.692-0.918,2.385
		c-0.327,0.611-0.592,1.303-0.796,2.079c-0.244,0.774-0.367,1.345-0.367,1.711c0,0.816-0.51,1.733-1.53,2.751
		c-1.019,0.978-1.734,1.284-2.142,0.917c-0.488-0.53-0.632-1.488-0.429-2.873c0.287-1.387,0.979-3.444,2.082-6.175
		C208.279,47.673,209.321,45.94,210.299,45.248z M86.874,58.331c-0.57,0-0.979-0.326-1.224-0.978
		c-0.285-0.652-0.57-2.201-0.856-4.646c-0.367-2.324-0.285-3.77,0.245-4.34c0.49-0.53,1.103,0.183,1.836,2.14
		c0.49,1.345,0.734,2.997,0.734,4.953C87.608,57.373,87.364,58.331,86.874,58.331z M106.027,36.871
		c0.326,0.409,0.551,1.122,0.673,2.14c0.122,1.793-0.184,2.691-0.918,2.691c-0.857,0-1.591-0.387-2.203-1.162
		c-0.612-0.774-0.918-1.691-0.918-2.752c0-0.814,0.122-1.344,0.367-1.589c0.245-0.205,0.755-0.265,1.53-0.185
		C105.252,36.138,105.742,36.423,106.027,36.871z M123.162,43.23c0.856-0.978,1.692-1.448,2.508-1.407
		c0.816,0.042,1.856,0.612,3.121,1.713c0.897,0.816,1.449,1.488,1.652,2.018c0.163,0.529,0.102,1.324-0.183,2.384
		c-0.449,1.672-1.285,2.589-2.509,2.751c-0.448,0.083-0.877,0.306-1.285,0.673c-0.53,0.367-0.856,0.774-0.979,1.224
		c-0.367,1.14-0.755,1.67-1.163,1.589c-0.49-0.041-0.572-0.611-0.244-1.712c0.285-1.183-0.021-2.038-0.918-2.568
		c-0.898-0.489-1.347-1.467-1.347-2.935C121.815,45.451,122.264,44.208,123.162,43.23z M65.578,76.612
		c1.388-0.53,2.02-1.202,1.897-2.017c-0.122-0.856-1.163-2.568-3.121-5.136c-1.753-2.324-2.773-3.792-3.06-4.403
		c-0.286-0.611-0.102-0.917,0.551-0.917c0.244,0,0.591,0.306,1.041,0.917c0.448,0.611,0.918,1.346,1.407,2.202
		c1.551,3.138,3.427,5.197,5.63,6.175c2.203,0.938,4.304,0.632,6.303-0.917c0.653-0.489,1.183-1.02,1.59-1.589
		c0.49-0.612,0.734-1.081,0.734-1.408c0-0.856,0.245-1.732,0.735-2.629c0.489-0.855,0.918-2.12,1.285-3.791
		c0.326-1.59,0.938-2.304,1.836-2.14c0.857,0.204,1.775,1.263,2.754,3.178c0.816,1.632,1.652,2.671,2.509,3.12
		c0.856,0.447,1.55,0.223,2.08-0.674c0.163-0.243,0.531-0.407,1.102-0.488c0.531-0.041,1.143,0.021,1.836,0.183
		c1.102,0.204,1.836,0.204,2.203,0c0.367-0.203,0.755-0.814,1.162-1.834c0.409-1.141,0.714-1.731,0.918-1.772
		c0.204-0.083,0.592,0.264,1.163,1.039c0.815,1.101,1.224,1.874,1.224,2.323c0,0.611,0.612,0.754,1.836,0.427
		c1.265-0.366,2.121-0.917,2.57-1.65c0.367-0.53,0.53-1.04,0.489-1.528c-0.041-0.449-0.245-1-0.612-1.651
		c-0.734-1.183-0.918-2.588-0.551-4.22c0.368-1.67,0.062-3.015-0.918-4.035c-0.367-0.447-0.611-0.896-0.733-1.344
		c-0.205-0.49-0.225-0.857-0.062-1.102c0.735-1.182,1.693-1.202,2.876-0.061c1.142,1.142,1.713,2.67,1.713,4.586
		c0,2.853,1.163,4.484,3.488,4.891c2.326,0.327,3.611-0.917,3.855-3.729c0.163-1.793,0.673-3.2,1.53-4.219
		c0.856-1.06,1.672-1.264,2.448-0.612c0.367,0.285,0.592,0.693,0.673,1.223c0.163,0.531,0.163,1.059,0,1.59
		c-0.327,1.304,0.102,2.527,1.285,3.668c1.387,1.468,2.611,1.978,3.672,1.529c0.979-0.367,2.529-1.977,4.65-4.831
		c1.061-1.385,1.775-1.834,2.142-1.344c0.408,0.53,0.143,1.569-0.795,3.118c-0.652,1.142-0.979,1.896-0.979,2.263
		c-0.082,0.448,0.123,0.794,0.612,1.04c0.734,0.489,1.325,0.733,1.774,0.733c0.53,0.042,0.713,0.57,0.55,1.591
		c-0.163,0.978-0.591,2.017-1.285,3.117c-0.653,0.938-0.979,1.59-0.979,1.957c-0.041,0.367,0.225,0.836,0.796,1.407
		c0.571,0.57,1.061,0.856,1.468,0.856c0.409,0,1.142-0.286,2.203-0.856c1.51-0.815,2.815-1.386,3.917-1.712
		c0.979-0.245,1.448-1.1,1.408-2.568c-0.041-1.427-0.572-2.445-1.591-3.057c-2.447-1.508-2.101-2.18,1.041-2.018
		c1.346,0.081,2.101-0.061,2.264-0.428c0.286-0.326,0.449-1.406,0.49-3.241c0.081-2.487,0.326-4.421,0.734-5.809
		c0.408-1.059,0.714-2.12,0.917-3.179c0.164-0.938,0.49-1.407,0.979-1.407c0.53-0.041,1.795,0.387,3.794,1.284
		c1.469,0.654,2.489,1.223,3.06,1.713c0.571,0.53,0.856,1.142,0.856,1.833c0,1.713,0.368,2.813,1.102,3.302
		c0.692,0.488,2.081,0.571,4.161,0.245c2.162-0.285,3.551-0.979,4.162-2.079c0.57-1.02,0.631-2.833,0.183-5.441
		c-0.164-0.816-0.224-1.509-0.183-2.08c0.081-0.571,0.203-0.856,0.365-0.856c0.613,0,1.225,0.979,1.836,2.936
		c0.571,1.955,0.858,3.933,0.858,5.929c0,2.405,0.366,3.608,1.101,3.608c0.652,0,2.081,0.53,4.283,1.589
		c1.796,0.856,3.692,1.244,5.69,1.163c2.04-0.082,3.632-0.612,4.773-1.59c1.143-0.937,1.795-1.263,1.958-0.978
		c0.123,0.326-0.244,1.223-1.101,2.69c-1.102,1.711-1.653,3.057-1.653,4.035c0,0.937,0.53,1.67,1.593,2.201
		c0.407,0.285,0.795,0.672,1.161,1.162c0.327,0.53,0.49,0.999,0.49,1.406c0,1.02,0.49,1.793,1.469,2.324
		c0.938,0.53,1.978,0.591,3.121,0.184c0.449-0.204,1.02-0.327,1.714-0.368c0.692-0.041,1.284,0,1.772,0.124
		c2.082,0.447,2.367-0.999,0.858-4.341c-0.367-0.897-0.53-1.548-0.489-1.957c0.041-0.488,0.366-1.019,0.979-1.589
		c0.611-0.652,1.122-0.917,1.53-0.795c0.366,0.123,1.142,0.714,2.324,1.773c0.693,0.692,1.327,1.548,1.897,2.568
		c0.612,1.019,0.958,1.895,1.039,2.629c0.165,0.775,0.41,1.447,0.735,2.018c0.246,0.571,0.51,0.857,0.795,0.857
		c1.877,0.162,3.53-0.369,4.959-1.591c0.651-0.569,1.181-0.875,1.588-0.917c0.369-0.041,0.899,0.164,1.593,0.611
		c0.734,0.449,1.265,0.673,1.591,0.673c0.285,0,0.591-0.225,0.917-0.673c0.287-0.448,0.512-0.672,0.674-0.672
		c0.204,0,0.449,0.225,0.733,0.672c0.49,0.694,1.755,0.876,3.795,0.55c2.04-0.366,3.285-1.019,3.732-1.956
		c0.245-0.408,0.49-0.672,0.733-0.795c0.287-0.163,0.511-0.142,0.674,0.061c0.164,0.123,0.164,0.469,0,1.04
		c-0.163,0.488-0.449,1.039-0.856,1.65c-0.815,1.305-1.082,2.243-0.794,2.813c0.325,0.571,1.283,0.856,2.875,0.856
		c1.265,0,2.08-0.306,2.447-0.917c0.407-0.652,0.755-2.262,1.041-4.83c0.081-0.814,0.285-1.345,0.611-1.59
		c0.245-0.245,0.733-0.306,1.469-0.182c0.735,0.082,1.244,0,1.53-0.246c0.245-0.244,0.367-0.734,0.367-1.467
		c0-1.834,0.611-3.139,1.836-3.914c1.183-0.733,2.468-0.591,3.854,0.429c0.653,0.488,1.103,1.06,1.346,1.711
		c0.286,0.693,0.428,1.631,0.428,2.812c0,1.917,0.225,2.956,0.675,3.119c0.49,0.203,1.203-0.449,2.142-1.957
		c1.509-2.282,2.754-2.874,3.733-1.773c0.978,1.101,0.876,2.976-0.308,5.625c-0.692,1.508-1.04,2.507-1.04,2.997
		c-0.041,0.488,0.225,1.019,0.796,1.589c0.897,0.897,1.897,1.142,2.999,0.733c1.142-0.366,1.856-1.202,2.142-2.506
		c0.163-0.571,0.387-1.059,0.673-1.468c0.244-0.407,0.469-0.611,0.673-0.611c0.653,0,0.897,0.611,0.735,1.833
		c-0.082,1.182-0.511,2.466-1.287,3.853c-0.611,1.059-0.937,1.814-0.977,2.262c-0.042,0.449,0.183,0.958,0.671,1.528
		c0.611,0.775,1.408,1.203,2.388,1.284c0.938,0.042,1.754-0.285,2.447-0.978c0.694-0.693,1-1.385,0.919-2.08
		c-0.042-0.733-0.429-1.1-1.165-1.1c-0.773,0-1.16-0.346-1.16-1.04c0-0.733,0.346-1.61,1.039-2.628
		c0.408-0.53,0.756-0.835,1.04-0.917c0.287-0.081,0.53,0.041,0.734,0.367c0.407,0.693,1,0.713,1.775,0.061
		c0.814-0.652,1.225-1.489,1.225-2.507c0-0.856,0.489-1.387,1.467-1.589c1.021-0.164,1.754,0.122,2.203,0.856
		c0.532,0.814,1.387,1.018,2.571,0.611c0.774-0.285,1.65-0.855,2.631-1.712c0.49-0.408,0.999-0.876,1.53-1.407
		c0.855-0.938,1.691-1.731,2.509-2.384c0.896-0.653,1.489-0.979,1.774-0.979c1.06,0,1.325,0.368,0.796,1.102
		c-0.53,0.733-1.776,1.733-3.734,2.996c-1.06,0.652-2.02,1.365-2.875,2.141c-1.999,1.67-3.529,3.545-4.589,5.625
		c-1.47,2.935-1.389,5.095,0.243,6.48c0.53,0.408,1.021,0.611,1.47,0.611c0.449,0.042,1.081-0.142,1.896-0.55
		c0.328-0.163,0.654-0.305,0.98-0.428c1.877-0.733,2.997-0.794,3.366-0.183c0.448,0.692-0.348,1.895-2.388,3.606
		c-0.367,0.326-0.693,0.632-0.979,0.917c-0.489,0.53-0.837,0.979-1.04,1.346c-0.204,0.571-0.225,1.386-0.063,2.446
		c0.245,1.223,0.613,2.241,1.103,3.057c0.652,1.1,1.53,1.813,2.632,2.14c1.917,0.57,3.936-0.165,6.057-2.202
		c1.47-1.386,2.51-2.16,3.123-2.324c0.611-0.164,0.917,0.205,0.917,1.101c0,0.408-0.164,0.794-0.49,1.161
		c-0.408,0.368-0.857,0.653-1.346,0.856c-2.447,0.938-3.896,2.365-4.346,4.28c-0.489,1.916,0.266,3.282,2.264,4.097
		c0.899,0.326,1.327,0.57,1.286,0.733c-0.04,0.081-0.633,0.367-1.774,0.856c-0.326,0.122-0.632,0.286-0.919,0.488
		c-0.245,0.164-0.47,0.368-0.672,0.611c-0.326,0.326-0.531,0.674-0.612,1.04c-0.04,0.041-0.062,0.122-0.062,0.245v0.061
		c0,0.081,0,0.143,0,0.183c0,0.285-0.061,0.53-0.184,0.734c1.469,0.245,2.325,0.428,2.571,0.551
		c1.713,0.693,2.569,2.058,2.569,4.096c0,0.652-0.286,1.203-0.856,1.65c-1.102,0.816-1.796,1.367-2.081,1.652
		c0.692,0.897,1.795,1.304,3.304,1.223c1.184-0.081,1.775,0.489,1.775,1.711c0,0.326-0.103,0.632-0.306,0.917
		c-0.122,0.245-0.449,0.631-0.979,1.162c0.774,0.489,2.082,0.938,3.918,1.346c2.243,0.327,3.873,0.652,4.895,0.978
		c3.956,0.897,5.731,2.751,5.324,5.564c-0.246,0-0.694,0.061-1.347,0.184c-0.694,0.162-1.225,0.243-1.592,0.243
		c-0.693,0-1.449-0.346-2.264-1.039c-0.775-0.693-1.674-1.039-2.692-1.039c-1.388,0-2.346,0.122-2.878,0.366
		c0.042,0.53,0.246,1.08,0.613,1.65c0.408,0.612,0.898,1.06,1.469,1.346c-0.163,0.326-0.633,0.875-1.407,1.65
		c-0.204,0.286-0.45,0.551-0.734,0.796c-1.102,1.059-1.653,1.895-1.653,2.506c2.368,1.549,5.569,3.199,9.608,4.953
		c3.061,1.303,4.59,2.16,4.59,2.567c0,1.142-1,1.671-3,1.59c-0.979,0-2.223-0.143-3.731-0.428c-0.368,0-0.979,0.224-1.836,0.672
		c-0.857,0.409-1.427,0.611-1.714,0.611c-0.326,0-0.674-0.122-1.039-0.366c-0.327-0.327-0.674-0.489-1.042-0.489
		c-0.53,0-1.019,0.306-1.468,0.917c-0.449,0.488-0.694,1.039-0.734,1.65c-0.326,0-0.755-0.306-1.285-0.917h-2.08
		c-0.163,0.978,0.225,1.692,1.161,2.14c0.571,0.326,1.693,0.611,3.366,0.856v0.794c0,0.326-0.041,0.632-0.122,0.917
		c-0.162,0.245-0.243,0.488-0.243,0.734h-2.511c-0.652-0.775-0.999-1.162-1.04-1.162c-0.081-0.081-0.367-0.122-0.856-0.122
		c-1.061,0-1.55,0.326-1.469,0.977c0.041,1.712,0.041,2.649,0,2.813h-2.876c0,0.081-0.063,0.347-0.185,0.795
		c-0.162,0.447-0.243,0.875-0.243,1.284c0,0.326,0.142,0.712,0.428,1.161c0.286,0.368,0.429,0.673,0.429,0.917
		c-0.287,0-0.572,0.062-0.856,0.184c-0.327,0.123-0.674,0.184-1.041,0.184c-0.285,0-0.489-0.061-0.612-0.184l-0.429-1.04h-1.224
		c0,1.915-0.04,2.977-0.121,3.18c-0.041,0.081-0.083,0.163-0.123,0.244c-0.205,0.407-0.612,0.651-1.224,0.732
		c-0.122,0-0.265,0-0.428,0c-0.369-0.161-0.715-0.345-1.041-0.548l-0.429,1.834c-0.244,1.06-0.244,1.772,0,2.14
		c0.163,0.407,0.673,0.754,1.529,1.04c0.123,0.04,0.246,0.101,0.368,0.184c1.836,0.854,2.753,2.383,2.753,4.585
		c0,0.081-0.02,0.183-0.062,0.306c-0.203,0.529-0.814,0.793-1.836,0.793c-0.978,0-2.019-0.264-3.119-0.793
		c-0.246-0.123-0.53-0.266-0.858-0.429c-1.508-0.897-3.119-1.283-4.833-1.162c-1.714,0.082-2.713,0.592-2.998,1.528v0.063
		c-0.205,0.448-0.449,0.854-0.736,1.224c-0.324,0.407-0.651,0.651-0.977,0.732c-0.776,0.326-1.165,0.999-1.165,2.019
		c0,1.101,0.389,2.16,1.165,3.179c0.325,0.447,0.611,0.998,0.855,1.649c0.204,0.612,0.306,1.142,0.306,1.591
		c0,0.815-0.041,1.224-0.122,1.224s-0.449-0.408-1.102-1.224c-0.856-1.1-1.51-1.264-1.957-0.489
		c-0.491,0.775-0.593,2.222-0.307,4.341c0.203,1.508,0.244,2.426,0.122,2.751c-0.162,0.286-0.714,0.388-1.651,0.307
		c-0.776-0.082-1.266-0.041-1.47,0.123c-0.245,0.203-0.306,0.631-0.183,1.283c0.203,1.019,0.387,9.049,0.55,24.09
		c0.163,11.208,0.428,19.136,0.797,23.783c0.325,4.647,1.039,8.864,2.142,12.656c0.447,1.55,0.692,2.914,0.733,4.097
		c0,1.101-0.203,2.629-0.612,4.585c-0.734,3.425-1.773,5.564-3.121,6.42c-1.304,0.815-2.998,0.326-5.077-1.469
		c-1.471-1.303-2.347-3.402-2.633-6.296c-0.368-2.976-0.021-5.993,1.04-9.049c0.571-1.754,0.918-4.137,1.039-7.154
		c0.165-3.016,0.165-8.905,0-17.669c-0.121-10.354-0.509-18.831-1.161-25.436c-0.651-6.644-1.428-9.821-2.325-9.536
		c-0.203,0.081-0.428,0.325-0.674,0.732c-0.204,0.407-0.366,0.856-0.488,1.346c-0.123,0.979-0.857,1.896-2.204,2.75
		c-1.306,0.817-3.038,1.488-5.2,2.019c-1.225,0.203-1.958,0.51-2.203,0.918c-0.327,0.366-0.489,1.283-0.489,2.75
		c0,0.897-0.123,1.733-0.368,2.507c-0.203,0.816-0.489,1.366-0.855,1.652c-0.163,0.121-0.286,0.243-0.369,0.366
		c-0.814,0.487-1.61,0.57-2.385,0.244c-1.021-0.325-1.571-1.08-1.652-2.263c-0.082-0.57-0.184-1.038-0.307-1.405
		c-0.286-0.938-0.632-1.548-1.041-1.834c-0.692-0.409-1.794-0.286-3.304,0.367c-1.142,0.487-2.02,0.732-2.631,0.732
		c-0.612,0-1.409-0.286-2.386-0.855c-2-0.979-3.55-1.265-4.651-0.855c-1.061,0.487-1.021,1.425,0.122,2.813
		c0.327,0.366,0.57,0.814,0.734,1.344c0.123,0.572,0.143,1.081,0.061,1.529c-0.04,0.569,0.063,0.957,0.307,1.162
		c0.244,0.204,0.755,0.305,1.529,0.305c1.389,0,2.407,0.448,3.06,1.345c0.612,0.896,0.837,2.181,0.675,3.853
		c-0.123,1.224-0.348,2.018-0.675,2.385c-0.367,0.286-1.203,0.468-2.509,0.551c-1.959,0.203-3.651,1.18-5.077,2.934
		c-1.267,1.508-2.326,2.181-3.184,2.019c-0.856-0.205-0.734-1.121,0.366-2.752c0.694-1.102,0.858-1.834,0.491-2.2
		c-0.327-0.285-1.592-0.551-3.793-0.796c-1.103-0.122-1.796-0.326-2.082-0.61c-0.326-0.326-0.49-1.039-0.49-2.141
		c0-1.59-0.225-2.73-0.673-3.425c-0.489-0.773-1.244-1.161-2.263-1.161c-1.021,0-1.715,0.448-2.082,1.345
		c-0.366,0.896-0.284,1.938,0.246,3.12c0.243,0.487,0.428,1.018,0.549,1.589c0.041,0.571,0.021,0.978-0.061,1.223
		c-0.285,0.814-0.816,1.162-1.59,1.039c-0.734-0.162-1.245-0.673-1.53-1.528c-0.571-1.875-1.57-2.873-2.999-2.996
		c-1.428-0.162-2.407,0.611-2.937,2.323c-0.123,0.531-0.408,1.162-0.858,1.896c-0.448,0.692-0.896,1.283-1.345,1.773
		c-0.898,0.978-1.286,1.793-1.163,2.446c0.122,0.65,0.632,0.529,1.53-0.367c1.143-1.183,1.877-1.387,2.202-0.611
		c0.327,0.773-0.082,1.793-1.225,3.057c-0.652,0.692-0.958,1.405-0.918,2.14c0.042,0.732,0.49,2.426,1.348,5.074
		c1.183,3.872,1.694,6.053,1.529,6.542c-0.041,0.204,0.04,0.673,0.246,1.406c0.243,0.735,0.549,1.487,0.917,2.263
		c1.144,2.282,1.979,5.218,2.509,8.806c0.488,3.625,0.469,6.378-0.062,8.254c-0.57,2.077-0.856,3.83-0.856,5.257
		c-0.04,1.345-0.979,3.322-2.815,5.93c-1.753,2.65-3.283,4.3-4.589,4.952c-1.264,0.571-2.692,0.571-4.283,0
		c-1.551-0.569-2.773-1.527-3.672-2.873c-1.345-2.079-2.121-4.32-2.325-6.725c-0.286-2.445-0.102-5.769,0.55-9.967
		c0.368-2.119,0.674-4.522,0.919-7.215c0.245-2.689,0.366-4.789,0.366-6.297c0-2.526-0.162-4.342-0.489-5.441
		c-0.284-1.101-1.081-2.649-2.386-4.647c-1.143-1.629-1.917-3.057-2.326-4.279c-0.407-1.1-0.612-2.323-0.612-3.669
		c0-2.201-0.346-3.688-1.039-4.463c-0.693-0.774-1.53-0.61-2.511,0.49c-0.692,0.774-1.242,1.894-1.65,3.361
		c-0.408,1.428-0.856,3.954-1.347,7.582c-0.204,1.264-0.448,2.547-0.733,3.853c-0.409,1.223-0.756,2.078-1.041,2.567
		c-0.529,0.732-0.795,1.366-0.795,1.896c0,0.489,0.203,1.102,0.612,1.834c0.57,1.303,1.019,3.404,1.346,6.298l1.039,8.621
		c0.163,1.712,0.163,2.936,0,3.668c-0.081,0.775-0.428,1.488-1.039,2.14c-1.876,2.08-3.876,2.1-5.997,0.061
		c-2.12-2.037-2.733-4.564-1.836-7.581c0.652-2.241,0.917-5.481,0.795-9.721c-0.121-4.239-0.53-7.521-1.223-9.844
		c-1.306-3.872-2.285-6.236-2.938-7.093c-0.693-0.773-1.917-1.12-3.671-1.039c-1.958,0.122-3.324-0.081-4.099-0.611
		c-0.735-0.571-0.959-1.528-0.674-2.874c0.204-1.386-0.143-2.241-1.041-2.567c-0.326-0.163-0.632-0.447-0.918-0.857
		c-0.244-0.366-0.367-0.772-0.367-1.222c0-1.183-0.346-1.854-1.04-2.017c-0.735-0.164-1.734,0.224-2.999,1.16
		c-1.591,1.102-3.182,1.957-4.773,2.569c-1.55,0.61-2.671,0.773-3.366,0.487c-0.53-0.203-0.775-0.527-0.734-0.979
		c0.041-0.407,0.327-1.263,0.856-2.567c1.428-3.341,2.244-5.788,2.448-7.335c0.204-1.59-0.062-3.567-0.795-5.932
		c-0.49-1.672-1.081-2.956-1.775-3.852c-0.612-0.897-1.508-1.713-2.692-2.446c-2.162-1.345-3.406-2.038-3.733-2.078
		c-0.367,0-0.551,0.591-0.551,1.772c0,0.897-0.143,1.468-0.428,1.711c-0.327,0.285-0.979,0.429-1.958,0.429
		c-1.101,0-2.488,0.489-4.161,1.469c-1.713,1.019-2.917,2.037-3.611,3.057c-0.367,0.569-1,1.405-1.897,2.507
		c-2.366,3.016-4.039,5.236-5.018,6.664c-0.978,1.509-1.59,2.752-1.835,3.729c-0.368,1.508-0.531,5.157-0.49,10.944
		c0,5.828,0.204,11.147,0.612,15.957c0.449,4.812,0.326,7.908-0.367,9.294c-0.653,1.386-2.366,2.078-5.141,2.078
		c-1.468,0-2.447-0.163-2.937-0.489c-0.49-0.286-1-1.1-1.53-2.445c-0.571-1.345-0.857-2.567-0.857-3.669
		c0-1.141,0.307-3.32,0.918-6.541c1.143-5.993,1.571-13.654,1.286-22.989c-0.368-9.294-1.245-14.796-2.632-16.508
		c-0.612-0.691-1.061-1.102-1.346-1.224c-0.367-0.123-0.754,0.041-1.163,0.49c-0.286,0.244-0.693,0.488-1.224,0.733
		c-0.489,0.203-0.958,0.306-1.407,0.306c-0.531,0-0.918-0.225-1.163-0.673c-0.164-0.366-0.245-1.142-0.245-2.323
		c0-1.345-0.143-2.14-0.428-2.385c-0.245-0.326-0.979-0.488-2.203-0.488c-1.346,0-2.08-0.225-2.203-0.673
		c-0.123-0.488,0.224-1.712,1.041-3.669c0.53-1.223,0.244-1.896-0.857-2.017c-1.061-0.123-2.202,0.365-3.427,1.467l-2.142,1.957
		l0.429-2.997c0.163-0.855,0.184-1.649,0.061-2.385c-0.082-0.773-0.245-1.263-0.49-1.466c-0.612-0.612-1.428-0.632-2.448-0.063
		c-1.02,0.571-1.529,1.325-1.529,2.264c0,0.855-0.286,1.608-0.857,2.262c-0.653,0.651-1.469,1.101-2.448,1.345
		c-0.53,0.081-0.856-0.184-0.979-0.795c-0.163-0.61-0.245-1.936-0.245-3.974v-5.013l-2.508,0.243
		c-0.694,0.042-1.367,0.225-2.02,0.55c-0.694,0.285-1.143,0.632-1.347,1.039c-0.774,1.346-1.855,2.549-3.243,3.607
		c-1.346,1.142-2.488,1.713-3.427,1.713c-1.387,0-2.223-0.367-2.509-1.102c-0.245-0.692,0.164-1.425,1.224-2.2
		c1.876-1.304,3.467-2.752,4.772-4.342c0.327-0.406,0.612-0.774,0.857-1.101c0.775-1.141,1.163-2.119,1.163-2.934
		c0-1.264-0.856-2.609-2.57-4.036c-1.713-1.426-3.509-2.304-5.385-2.628c-1.55-0.245-2.773-1.102-3.671-2.567
		c-0.572-0.897-0.836-1.733-0.795-2.508c0-0.368,0.061-0.714,0.183-1.04c0.082-0.121,0.143-0.225,0.184-0.306
		c0.327-0.406,0.755-0.856,1.286-1.345c0.244-0.203,0.469-0.388,0.672-0.55c-0.285-0.123-0.611-0.266-0.979-0.429
		c-1.02-0.447-2.366-1.121-4.039-2.017c0.286,1.018,0.164,1.671-0.367,1.955c-0.163,0.082-0.592,0.123-1.285,0.123
		c-0.285,0-0.694-0.225-1.224-0.674c-0.571-0.407-1-0.611-1.286-0.611c-0.856,0-1.672,0.49-2.448,1.469
		c-0.448,0.57-1.02,1.325-1.713,2.263H29.78v-1.224c4.407-2.079,7.324-3.465,8.751-4.158c0-1.1,0.143-1.854,0.428-2.261
		c0.246-0.205,0.429-0.389,0.551-0.551c0.041-0.041,0.102-0.081,0.183-0.123v-0.366c-0.041,0.123-0.102,0.285-0.183,0.489
		c-0.816,0.162-1.53,0.021-2.142-0.428c-0.612-0.489-0.918-0.999-0.918-1.529c0-0.326,0.265-0.876,0.795-1.65
		c0.734-1.059,1.163-1.67,1.285-1.834h-2.998c0-1.713-0.123-2.833-0.367-3.363c-1.306,0.164-2.427,0.591-3.366,1.284
		c-1.509,1.142-2.468,1.833-2.875,2.079h-2.51v-2.079l10.036-5.074v-1.162c-0.205-0.205-0.51-0.409-0.918-0.611
		c-0.281-0.201-0.526-0.302-0.735-0.306c0.49-0.006,0.735-0.476,0.735-1.407c0-0.897-0.388-1.65-1.163-2.262
		c-0.204-0.123-1.04-0.551-2.508-1.283c0.286-0.245,0.428-1.061,0.428-2.446h-2.51c-0.815,0.693-1.366,1.059-1.652,1.1
		c-0.163,0.041-0.734,0.061-1.713,0.061c-0.326,0-0.755,0-1.285,0c-0.245-0.081-0.367-0.549-0.367-1.405
		c0-1.061,0.795-1.548,2.387-1.467c1.754,0.122,2.774-0.571,3.06-2.079c0.204,0.244,0.469,0.366,0.795,0.366
		c0.367,0,0.652-0.122,0.857-0.366c-0.409-0.857-0.816-1.774-1.224-2.752c-0.368-1.1-0.652-1.854-0.857-2.262
		c-1.387,0-2.651-0.143-3.793-0.429c-0.571-0.082-1.04-0.203-1.408-0.367c-1.142,0-2.733,0.958-4.772,2.875H16.44v-3.302
		c1.551-1.223,3.284-2.141,5.202-2.751c1.999-0.612,3.854-0.795,5.568-0.551c1.143,0.081,2.836-0.448,5.08-1.589
		c0.367-0.205,0.714-0.387,1.04-0.551c1.673-0.857,2.835-1.264,3.488-1.223v-1.223c-0.449-0.285-0.713-0.49-0.795-0.611
		c0-0.041,0-0.387,0-1.039c0-0.734,0.306-1.427,0.917-2.079c0.775-0.611,1.306-1.041,1.591-1.284h4.283
		c-0.081-0.123-0.143-0.245-0.183-0.368c-0.041-0.082-0.082-0.163-0.123-0.244c-0.041-0.123-0.061-0.204-0.061-0.245
		c-0.082-0.325-0.02-0.652,0.184-0.978c0.123-0.245,0.408-0.469,0.857-0.674c0.081-0.041,0.143-0.102,0.184-0.183
		c0.571-0.285,1.163-0.51,1.775-0.672c1.508-0.327,2.549-1.448,3.121-3.363c0.245-0.775,0.632-1.468,1.163-2.08
		c0.407-0.611,0.816-0.998,1.224-1.162c0.082-0.041,0.143-0.061,0.184-0.061c1.061-0.326,1.468-0.815,1.224-1.467
		c-0.164-0.49-0.632-0.877-1.408-1.162c-0.245-0.123-0.53-0.225-0.857-0.307c-0.856-0.203-1.306-0.386-1.346-0.55
		c-0.041-0.122,0.245-0.326,0.857-0.612c0.367-0.162,0.714-0.508,1.041-1.039c0.163-0.285,0.265-0.591,0.306-0.917
		c0.041-0.204,0.061-0.427,0.061-0.672c0-0.816,0.184-1.346,0.551-1.589c0.326-0.245,1.081-0.368,2.264-0.368
		c1.102,0,1.999-0.223,2.693-0.672c0.652-0.489,1.55-1.529,2.692-3.118c0.693-1.019,1.387-1.896,2.08-2.63
		c0.694-0.733,1.143-1.1,1.347-1.1c0.245,0,0.469-0.164,0.672-0.49c0.123-0.326,0.184-0.712,0.184-1.162
		C63.498,77.979,64.191,77.143,65.578,76.612z M52.912,75.207c1.102,0.286,1.469,0.733,1.102,1.345
		c-0.327,0.571-1.346,1.182-3.06,1.834c-0.285,0.121-0.611,0.244-0.979,0.366c-2.243,0.856-3.671,1.162-4.283,0.917
		c-0.449-0.162-0.775-0.468-0.979-0.917c-0.163-0.407-0.204-0.897-0.123-1.467c0.082-0.774,0.388-1.324,0.918-1.651
		c0.489-0.285,1.509-0.51,3.06-0.672c0.857-0.081,1.652-0.103,2.386-0.061C51.688,74.902,52.341,75.003,52.912,75.207z
		 M66.068,46.532c0-0.856,0.327-1.326,0.979-1.407c0.693-0.122,1.407,0.204,2.142,0.978c0.49,0.49,0.816,1.407,0.979,2.751
		c0.123,1.305-0.061,1.957-0.551,1.957c-0.611,0-1.346-0.51-2.203-1.529C66.517,48.182,66.068,47.265,66.068,46.532z
		 M182.213,118.372v-2.506l1.528,2.14l2.571-1.101l-1.592,2.018l1.592,2.078l-2.571-0.489l-1.039,1.957l-0.489-2.506l-2.021-0.49
		L182.213,118.372z M205.098,126.565c-4.079-13.208-12.197-19.463-24.354-18.771c-11.218,0.367-18.989,7.112-23.313,20.237
		c2.65-4.035,5.527-6.726,8.628-8.07c5.384-2.365,9.608-3.017,12.667-1.956c-9.873-0.369-16.318,3.158-19.337,10.576
		c5.751-5.054,11.504-4.891,17.255,0.49c5.101,4.076,10.526,3.423,16.278-1.957C196.267,123.324,200.326,123.141,205.098,126.565z
		 M168.565,84.5c-13.503-0.693-22.151,4.565-25.945,15.775c-3.712,10.761,0.021,20.359,11.199,28.797
		c-3.061-3.668-4.773-7.051-5.141-10.149c-0.245-6.073,0.775-10.272,3.06-12.596c-3.712,8.764-2.835,16,2.631,21.705
		c-2.366-7.418-0.021-12.797,7.038-16.14c5.466-3.425,6.649-8.663,3.549-15.714C162.59,91.776,163.793,87.883,168.565,84.5z
		 M157.43,99.173l-1.04,2.019l1.407,2.14l-2.509-0.55l-0.919,1.957l-0.55-2.507l-2.509-1.039l2.509-0.55v-2.507l1.469,2.141
		L157.43,99.173z M130.932,126.565l-1.958-1.04l-1.469,1.957v-1.957l-2.631-1.468l2.08-0.489l0.551-2.568l0.918,2.019l2.508-1.039
		l-0.918,2.078L130.932,126.565z M142.192,135.736c-5.752-1.672-9.505-4.057-11.26-7.154c7.507,6.44,14.789,7.989,21.845,4.647
		c-7.424,0-11.667-3.75-12.727-11.249c-1.672-6.44-6.385-9.315-14.136-8.622c-5.017,0.368-8.241-2.14-9.668-7.52
		c-5.018,12.758-2.815,22.541,6.609,29.347c9.179,7.052,19.5,6.868,30.964-0.55C149.086,135.979,145.211,136.348,142.192,135.736z
		 M159.938,130.172c4.69,0.979,8.036,2.649,10.036,5.014c3.793,4.402,5.691,8.458,5.691,12.167
		c-2.735-9.782-7.977-15.021-15.728-15.714c6.445,4.035,7.955,9.62,4.528,16.753c-2.041,5.992,0.326,10.904,7.099,14.734
		c4.446,2.284,5.813,6.154,4.101,11.616c11.503-8.109,14.868-17.771,10.096-28.98C182.416,135.002,173.809,129.805,159.938,130.172z
		 M172.116,151.876l2.508-0.427l-0.488-2.629l1.958,1.59l2.631-0.55l-1.592,2.016l1.592,1.591l-2.631-0.552l-0.919,1.957
		l-0.551-2.507L172.116,151.876z M141.151,154.872v-1.957l1.469,1.469l2.08-0.429l-1.04,2.019l1.59,1.956l-2.631-0.55l-0.979,2.14
		l-0.49-2.508l-2.508-0.551L141.151,154.872z M130.565,155.423c-0.734,5.136-4.141,7.825-10.219,8.07
		c11.463,8.112,21.785,8.296,30.964,0.551c9.097-6.726,11.441-16.691,7.036-29.897c0.367,4.769-0.285,8.642-1.957,11.616
		c-3.1,4.771-6.161,7.643-9.18,8.622c7.791-5.38,11.016-11.78,9.668-19.198c-1.671,7.052-6.568,10.088-14.686,9.11
		C135.747,143.97,131.871,147.679,130.565,155.423z M81.979,227.324c0.408,0.692,0.367,1.447-0.123,2.263
		c-0.49,0.773-1.163,0.957-2.02,0.549c-0.855-0.447-1.285-1.16-1.285-2.14c0-1.14,0.49-1.711,1.469-1.711
		C80.959,226.285,81.611,226.631,81.979,227.324z M119.245,221.516c1.346-2.16,2.366-3.078,3.06-2.751
		c0.694,0.285,0.652,1.631-0.123,4.035c-0.693,2.079-1.653,3.2-2.876,3.362c-1.061,0.164-1.611-0.143-1.652-0.917
		C117.654,224.511,118.184,223.269,119.245,221.516z M2,244.321h0.918c1.55,1.63,1.55,3.037,0,4.219
		c-0.327,0-0.632,0.021-0.918,0.061V244.321z M81.672,199.017c0.694-0.367,1.041-0.265,1.041,0.306c0,0.774-0.53,2.486-1.59,5.136
		c-1.02,2.608-1.775,4.076-2.265,4.402c-1.387,1.182-1.999,0.631-1.835-1.652c0.123-2.281,0.938-4.36,2.447-6.235
		C80.245,199.993,80.979,199.343,81.672,199.017z M69.924,196.388c1.836,0.244,2.753,1.242,2.753,2.995
		c0,1.386-0.816,2.935-2.448,4.646c-1.714,1.631-3.182,2.365-4.406,2.202c-0.775-0.123-1.265-0.368-1.469-0.734
		c-0.244-0.408-0.346-1.161-0.306-2.263c0.041-0.733,0.204-1.59,0.489-2.567c0.327-0.938,0.653-1.692,0.979-2.262
		C66.578,196.814,68.047,196.143,69.924,196.388z M57.073,189.968c0.775-0.816,1.631-1.163,2.57-1.04
		c0.939,0.122,1.408,0.652,1.408,1.591c0,0.896-0.53,1.711-1.592,2.445c-1.061,0.772-1.937,0.937-2.631,0.487
		c-0.53-0.326-0.775-0.854-0.734-1.589C56.094,191.169,56.42,190.538,57.073,189.968z M49.056,174.01
		c-1.305,0.488-2.691,0.732-4.161,0.732c-1.469,0-2.55-0.264-3.243-0.793c-0.734-0.531-0.714-1.041,0.061-1.529
		c0.612-0.407,2.325-0.591,5.14-0.55c2.774,0.041,4.161,0.225,4.161,0.55C51.015,172.989,50.362,173.521,49.056,174.01z
		 M31.984,169.117c1.59-1.752,3.202-2.282,4.833-1.588c1.673,0.692,1.979,1.997,0.918,3.911c-0.775,1.387-2.203,2.183-4.284,2.386
		c-2.162,0.123-3.243-0.469-3.243-1.773c0-0.326,0.183-0.775,0.55-1.345C31.086,170.137,31.494,169.607,31.984,169.117z
		 M32.596,92.57c0.49,0,1.897,0.408,4.222,1.223c3.06,1.02,5.222,1.917,6.487,2.69c1.345,0.815,1.712,1.407,1.101,1.773
		c-0.49,0.327-1.143,0.367-1.958,0.122c-0.897-0.203-2.591-0.814-5.079-1.833c-1.102-0.448-2.203-0.774-3.305-0.978
		c-0.49-0.041-0.918-0.245-1.285-0.612c-0.367-0.326-0.591-0.693-0.673-1.1C31.943,93.039,32.106,92.612,32.596,92.57z
		 M274.43,233.194c0.856,1.263,1.285,2.201,1.285,2.813c0,0.692-0.47,1.182-1.407,1.467c-0.98,0.245-1.795,0.103-2.447-0.428
		c-0.572-0.49-0.919-1.365-1.04-2.63c-0.164-1.263,0-2.12,0.488-2.567c0.326-0.366,0.714-0.551,1.163-0.551
		C272.92,231.298,273.573,231.93,274.43,233.194z M258.458,213.445c-0.856-2.404-1.041-3.975-0.55-4.708
		c0.53-0.855,1.427-0.979,2.691-0.366c1.225,0.611,2.306,1.731,3.243,3.361c2.204,3.873,2.429,6.502,0.674,7.888
		c-0.449,0.407-0.917,0.551-1.408,0.428c-0.407-0.122-1.019-0.61-1.836-1.466C260.213,217.48,259.274,215.769,258.458,213.445z
		 M213.299,230.075c1.225,1.468,1.713,3.547,1.468,6.237c-0.203,2.771-0.999,4.156-2.387,4.156c-1.265,0-2.224-1.242-2.876-3.729
		c-0.652-2.445-0.591-4.646,0.183-6.604c0.327-0.813,0.838-1.242,1.53-1.283C211.951,228.853,212.646,229.261,213.299,230.075z
		 M194.695,219.01c-0.082-0.775-0.122-1.388-0.122-1.834c0.04-0.448,0.144-0.612,0.306-0.49c0.571,0.326,1.184,1.346,1.836,3.057
		c0.652,1.713,0.815,2.71,0.489,2.997c-0.448,0.407-0.917,0.265-1.408-0.429C195.349,221.618,194.981,220.518,194.695,219.01z
		 M226.698,213.69c-0.57-1.02-0.713-1.917-0.428-2.69c0.122-0.245,0.266-0.449,0.428-0.611c0.369-0.49,0.939-0.715,1.714-0.673
		c1.021,0.081,1.816,0.612,2.386,1.59c0.736,1.304,1.001,2.465,0.797,3.485c-0.162,1.019-0.713,1.527-1.652,1.527
		c-0.979,0-1.938-0.651-2.875-1.956C226.904,214.117,226.781,213.893,226.698,213.69z"/>
	<path fill-rule="evenodd" clip-rule="evenodd" fill="#FFFFFF" d="M142.192,135.736c3.019,0.612,6.895,0.243,11.627-1.101
		c-11.464,7.417-21.785,7.602-30.964,0.55c-9.424-6.806-11.626-16.589-6.609-29.347c1.428,5.38,4.651,7.888,9.668,7.52
		c7.751-0.693,12.463,2.182,14.136,8.622c1.061,7.499,5.303,11.249,12.727,11.249c-7.057,3.342-14.338,1.793-21.845-4.647
		C132.687,131.68,136.44,134.064,142.192,135.736z M130.932,126.565l-0.918-2.508l0.918-2.078l-2.508,1.039L127.506,121
		l-0.551,2.568l-2.08,0.489l2.631,1.468v1.957l1.469-1.957L130.932,126.565z M157.43,99.173l-2.142,1.102l-1.469-2.141v2.507
		l-2.509,0.55l2.509,1.039l0.55,2.507l0.919-1.957l2.509,0.55l-1.407-2.14L157.43,99.173z M168.565,84.5
		c-4.772,3.383-5.976,7.276-3.609,11.678c3.101,7.051,1.917,12.289-3.549,15.714c-7.06,3.343-9.404,8.722-7.038,16.14
		c-5.466-5.706-6.343-12.941-2.631-21.705c-2.285,2.324-3.305,6.523-3.06,12.596c0.368,3.098,2.081,6.48,5.141,10.149
		c-11.178-8.438-14.911-18.036-11.199-28.797C146.415,89.065,155.063,83.807,168.565,84.5z M205.098,126.565
		c-4.771-3.425-8.831-3.241-12.177,0.549c-5.752,5.38-11.178,6.033-16.278,1.957c-5.751-5.381-11.504-5.543-17.255-0.49
		c3.019-7.418,9.464-10.945,19.337-10.576c-3.059-1.061-7.283-0.409-12.667,1.956c-3.101,1.344-5.978,4.035-8.628,8.07
		c4.324-13.125,12.096-19.871,23.313-20.237C192.9,107.102,201.019,113.358,205.098,126.565z M182.213,118.372l-2.021,1.1
		l2.021,0.49l0.489,2.506l1.039-1.957l2.571,0.489l-1.592-2.078l1.592-2.018l-2.571,1.101l-1.528-2.14V118.372z M159.938,130.172
		c13.87-0.367,22.478,4.83,25.823,15.59c4.772,11.208,1.407,20.871-10.096,28.98c1.712-5.462,0.346-9.332-4.101-11.616
		c-6.772-3.83-9.14-8.742-7.099-14.734c3.427-7.133,1.917-12.718-4.528-16.753c7.751,0.693,12.992,5.932,15.728,15.714
		c0-3.71-1.898-7.766-5.691-12.167C167.975,132.821,164.629,131.151,159.938,130.172z M130.565,155.423
		c1.306-7.744,5.181-11.453,11.626-11.127c8.118,0.978,13.015-2.059,14.686-9.11c1.348,7.418-1.877,13.818-9.668,19.198
		c3.019-0.979,6.08-3.851,9.18-8.622c1.672-2.974,2.324-6.847,1.957-11.616c4.405,13.207,2.061,23.172-7.036,29.897
		c-9.18,7.745-19.501,7.562-30.964-0.551C126.425,163.248,129.831,160.559,130.565,155.423z M141.151,154.872l-2.508,1.589
		l2.508,0.551l0.49,2.508l0.979-2.14l2.631,0.55l-1.59-1.956l1.04-2.019l-2.08,0.429l-1.469-1.469V154.872z M172.116,151.876
		l2.508,0.489l0.551,2.507l0.919-1.957l2.631,0.552l-1.592-1.591l1.592-2.016l-2.631,0.55l-1.958-1.59l0.488,2.629L172.116,151.876z
		"/>
</g>
</svg>
