<?xml version="1.0" encoding="utf-8"?>
<!-- Generator: Adobe Illustrator 16.0.0, SVG Export Plug-In . SVG Version: 6.00 Build 0)  -->
<!DOCTYPE svg PUBLIC "-//W3C//DTD SVG 1.1//EN" "http://www.w3.org/Graphics/SVG/1.1/DTD/svg11.dtd">
<svg version="1.1" id="Layer_1" xmlns="http://www.w3.org/2000/svg" xmlns:xlink="http://www.w3.org/1999/xlink" x="0px" y="0px"
	 width="300px" height="300px" viewBox="0 0 300 300" enable-background="new 0 0 300 300" xml:space="preserve">
<g>
	<path fill-rule="evenodd" clip-rule="evenodd" fill="#010101" d="M92,32.85c-17.033,7.9-29.9,17.4-38.6,28.5
		C44.6,72.316,38.483,86.717,35.05,104.55c-1.933,10.533-1.767,24.4,0.5,41.601c2.2,17.133,5.233,27.649,9.101,31.55
		c3.199,3.2,11.732,4.8,25.6,4.8c10.033,0,15.867-0.35,17.5-1.05c1.833-0.667,2.167-2.9,1-6.7C79.816,144.217,76.5,117.9,78.8,95.8
		c2.267-21.934,10.217-40.917,23.851-56.95c7-8.1,9.866-12.517,8.6-13.25C110.083,24.934,103.667,27.35,92,32.85z M94.2,60.65
		c-4.101,7.767-6.65,14.517-7.65,20.25c-0.933,5.466-1.35,16.449-1.25,32.949c0.267,21.967,1.934,38.101,5,48.4
		c3.067,10.2,7.767,14.95,14.101,14.25c2.267-0.233,5.732-1.5,10.399-3.8c4.733-2.3,9.2-4.917,13.4-7.851L143.85,154.2l-1.6-28.351
		c-0.533-12.566-0.4-21.55,0.4-26.949c0.899-5.367,3.35-12.517,7.35-21.45c2.533-5.467,6.2-11.75,11-18.85
		c4.8-7,9.383-12.717,13.75-17.15c7.533-7.567,11.633-12.217,12.3-13.95c0.7-1.7-0.899-3.017-4.8-3.95
		c-6.833-1.566-15.85-2.75-27.05-3.55c-11.101-0.8-18.434-0.75-22,0.15c-5.367,1.367-11.95,6.1-19.75,14.2
		C105.684,42.517,99.267,51.283,94.2,60.65z M18.05,175.95l2.25,9.3c1.467,6.167,4.617,14,9.45,23.5
		c4.667,9.366,9.45,17.417,14.35,24.15c3.233,4.267,6.5,7.316,9.801,9.149c3.333,1.7,8.25,2.95,14.75,3.75
		c18.199,2.5,37.267,0.05,57.199-7.35c19.867-7.467,37.768-18.8,53.7-34c11.434-10.9,17.083-18.05,16.95-21.45
		c-0.1-3.434-6.267-8.7-18.5-15.8c-11.2-6.4-19.1-9.816-23.7-10.25c-4.467-0.467-9.616,1.75-15.45,6.649
		C120.184,179.4,97.7,187.116,71.4,186.75c-6.634-0.1-13.733-0.667-21.301-1.7c-7.633-1-13.467-2.267-17.5-3.8L18.05,175.95z
		 M21.65,172.35c5.399,3.467,9,4.434,10.8,2.9c1.733-1.566,1.866-5.733,0.399-12.5c-1.732-8.8-2.6-23.1-2.6-42.9
		c0.2-20.033,0.083-30.05-0.35-30.05c-0.367,0-2.601,6.533-6.7,19.601c-4,12.566-6.117,25.649-6.351,39.25
		C16.517,162.283,18.117,170.184,21.65,172.35z M11.35,151.6c0-30.399,9.167-57.616,27.5-81.649
		c18.4-24.034,42.983-40.917,73.75-50.65c16.601-5.366,35.717-6.167,57.351-2.4c21.7,3.633,40.333,10.85,55.899,21.65
		c31.467,21.7,50.567,52.017,57.301,90.95c6.767,38.866-1.233,73.116-24,102.75c-14.667,19.333-30.851,33.333-48.551,42
		c-17.866,8.733-39.1,13.05-63.699,12.95c-13.733,0-23.567-0.584-29.5-1.75c-6.033-1.267-14.101-4.3-24.2-9.101
		C67.566,264.217,47.5,247.167,33,225.2C18.566,203.134,11.35,178.6,11.35,151.6z M215.55,38.15
		c-10.066-5.833-16.183-8.966-18.35-9.4c-2.167-0.367-4.634,1.117-7.4,4.45c-1.833,2.2-2.35,3.8-1.55,4.8
		c0.566,1.033,2.934,2.35,7.1,3.95c13.033,4.933,27.533,13.433,43.5,25.5c15.667,11.833,23.601,18.934,23.801,21.3
		c2.699,1.366,2.217-0.85-1.45-6.65c-3.767-6.066-9.017-12.8-15.75-20.2c-3.434-3.8-8.067-7.983-13.9-12.55
		C225.717,44.65,220.383,40.917,215.55,38.15z M151,94.3c-1.566,0.8-2.934,3.834-4.1,9.101c-0.667,2.933-1,7.166-1,12.699
		c0,5.367,0.333,10.384,1,15.051c1.166,8.267,2.666,13.533,4.5,15.8c1.833,2.3,7.199,5.45,16.1,9.45
		c16.833,7.767,31.583,19.05,44.25,33.85c12.633,14.833,20.717,30.366,24.25,46.6c1.233,5.634,2.25,8.684,3.05,9.15
		c0.833,0.434,2.967-0.884,6.4-3.95c4.767-4.366,10.417-12.333,16.95-23.899c6.399-11.667,9.6-19.667,9.6-24
		c0.133-6.167-4.333-17.384-13.4-33.65c-8.899-16.233-16.683-27.267-23.35-33.1c-3.5-3.067-8.517-6.551-15.05-10.45
		c-6.533-4.134-12.667-7.517-18.4-10.15c-5.566-2.633-11.95-5.083-19.149-7.35c-7.233-2.434-13.018-3.934-17.351-4.5
		C157.4,93.85,152.633,93.634,151,94.3z M258.6,88.2c-0.732-0.566-1.55-1.3-2.449-2.2c-4.301-4.1-8.4-7.75-12.301-10.95
		c-14.732-11.866-31.666-21.25-50.8-28.15c-6.033-2.033-10.033-2.883-12-2.55c-1.933,0.233-4.5,2.066-7.7,5.5
		c-4.333,4.667-8.967,11.133-13.899,19.4c-4.934,8.1-7.4,13.4-7.4,15.9c0,1.066,1.733,2.166,5.2,3.3
		c3.4,1.133,7.566,1.983,12.5,2.55c23,2.733,43.6,11.967,61.8,27.7c18.033,15.666,32.15,36.35,42.351,62.05
		c2.267,5.967,4.166,1.85,5.699-12.35c1.367-14.167,1.134-26.45-0.699-36.851c-0.9-5.166-2.5-10.666-4.801-16.5
		c-2.433-5.833-4.783-10.3-7.05-13.399c-4.566-5.934-7.3-10.117-8.2-12.551C258.717,88.767,258.633,88.467,258.6,88.2z
		 M226.05,228.8c1.033-2.166,0.45-6-1.75-11.5c-3.3-7.633-7.066-14.1-11.3-19.399c-4.467-5.7-7.5-8.551-9.1-8.551
		c-1.4,0-7.75,5.667-19.051,17c-14.1,14.301-30.166,25.334-48.199,33.101c-18.2,7.8-37.084,11.75-56.65,11.85
		c-8.934,0.101-13.967,0.45-15.1,1.05c-1.233,0.467-0.2,1.95,3.1,4.45c3.767,2.967,11.767,7.7,24,14.2
		c17.5,9.167,36.783,11.35,57.85,6.55c21.033-4.833,41.667-16.217,61.9-34.149C220.217,235.967,224.983,231.1,226.05,228.8z
		 M227.75,257.45c3.633-2.934,4.767-7.8,3.4-14.601c-0.768-4.433-1.551-6.883-2.351-7.35c-0.7-0.467-2.149,0.616-4.35,3.25
		c-4.567,5.366-12.95,12.184-25.15,20.45c-12.267,8.133-23.267,14.2-33,18.2c-10.866,4.433-15.783,6.933-14.75,7.5
		c1.067,0.699,8.333-0.384,21.8-3.25c8.934-1.834,18.95-5.25,30.051-10.25C214.367,266.467,222.483,261.816,227.75,257.45z"/>
	<path fill-rule="evenodd" clip-rule="evenodd" fill="#00A162" d="M94.2,60.65c5.066-9.367,11.483-18.133,19.25-26.3
		c7.8-8.1,14.383-12.833,19.75-14.2c3.566-0.9,10.899-0.95,22-0.15c11.2,0.8,20.217,1.983,27.05,3.55c3.9,0.934,5.5,2.25,4.8,3.95
		c-0.667,1.733-4.767,6.383-12.3,13.95C170.383,45.883,165.8,51.6,161,58.6c-4.8,7.1-8.467,13.383-11,18.85
		c-4,8.934-6.45,16.083-7.35,21.45c-0.801,5.399-0.934,14.383-0.4,26.949l1.6,28.351L128.2,164.85
		c-4.2,2.934-8.667,5.551-13.4,7.851c-4.667,2.3-8.133,3.566-10.399,3.8c-6.334,0.7-11.033-4.05-14.101-14.25
		c-3.066-10.3-4.733-26.434-5-48.4c-0.1-16.5,0.317-27.483,1.25-32.949C87.55,75.167,90.1,68.417,94.2,60.65z M92,32.85
		c11.667-5.5,18.083-7.917,19.25-7.25c1.267,0.733-1.6,5.15-8.6,13.25C89.017,54.883,81.066,73.866,78.8,95.8
		c-2.3,22.101,1.017,48.417,9.95,78.95c1.167,3.8,0.833,6.033-1,6.7c-1.633,0.7-7.467,1.05-17.5,1.05c-13.867,0-22.4-1.6-25.6-4.8
		c-3.867-3.9-6.9-14.417-9.101-31.55c-2.267-17.2-2.433-31.067-0.5-41.601c3.434-17.833,9.55-32.233,18.351-43.2
		C62.1,50.25,74.967,40.75,92,32.85z M227.75,257.45c-5.267,4.366-13.383,9.017-24.35,13.95c-11.101,5-21.117,8.416-30.051,10.25
		c-13.467,2.866-20.732,3.949-21.8,3.25c-1.033-0.567,3.884-3.067,14.75-7.5c9.733-4,20.733-10.067,33-18.2
		c12.2-8.267,20.583-15.084,25.15-20.45c2.2-2.634,3.649-3.717,4.35-3.25c0.8,0.467,1.583,2.917,2.351,7.35
		C232.517,249.65,231.383,254.517,227.75,257.45z"/>
	<path fill-rule="evenodd" clip-rule="evenodd" fill="#FFFFFF" d="M18.05,175.95l14.55,5.3c4.033,1.533,9.867,2.8,17.5,3.8
		c7.567,1.033,14.667,1.601,21.301,1.7c26.3,0.366,48.783-7.35,67.449-23.15c5.834-4.899,10.983-7.116,15.45-6.649
		c4.601,0.434,12.5,3.85,23.7,10.25c12.233,7.1,18.4,12.366,18.5,15.8c0.133,3.4-5.517,10.55-16.95,21.45
		c-15.933,15.2-33.833,26.533-53.7,34c-19.933,7.399-39,9.85-57.199,7.35c-6.5-0.8-11.417-2.05-14.75-3.75
		c-3.301-1.833-6.567-4.883-9.801-9.149c-4.899-6.733-9.683-14.784-14.35-24.15c-4.833-9.5-7.983-17.333-9.45-23.5L18.05,175.95z
		 M215.55,38.15c4.833,2.767,10.167,6.5,16,11.2c5.833,4.566,10.467,8.75,13.9,12.55c6.733,7.4,11.983,14.133,15.75,20.2
		c3.667,5.801,4.149,8.017,1.45,6.65c-0.2-2.366-8.134-9.467-23.801-21.3c-15.967-12.067-30.467-20.567-43.5-25.5
		c-4.166-1.6-6.533-2.917-7.1-3.95c-0.8-1-0.283-2.6,1.55-4.8c2.767-3.333,5.233-4.817,7.4-4.45
		C199.367,29.184,205.483,32.316,215.55,38.15z M226.05,228.8c-1.066,2.3-5.833,7.167-14.3,14.601
		c-20.233,17.933-40.867,29.316-61.9,34.149c-21.066,4.8-40.35,2.617-57.85-6.55c-12.233-6.5-20.233-11.233-24-14.2
		c-3.3-2.5-4.333-3.983-3.1-4.45c1.133-0.6,6.166-0.949,15.1-1.05c19.566-0.1,38.45-4.05,56.65-11.85
		c18.033-7.767,34.1-18.8,48.199-33.101c11.301-11.333,17.65-17,19.051-17c1.6,0,4.633,2.851,9.1,8.551
		c4.233,5.3,8,11.767,11.3,19.399C226.5,222.8,227.083,226.634,226.05,228.8z"/>
	<path fill-rule="evenodd" clip-rule="evenodd" fill="#EF9D21" d="M21.65,172.35c-3.533-2.166-5.134-10.066-4.801-23.699
		c0.233-13.601,2.351-26.684,6.351-39.25C27.3,96.333,29.533,89.8,29.9,89.8c0.433,0,0.55,10.017,0.35,30.05
		c0,19.801,0.867,34.101,2.6,42.9c1.467,6.767,1.334,10.934-0.399,12.5C30.65,176.783,27.05,175.816,21.65,172.35z M258.6,88.2
		c0.033,0.267,0.117,0.566,0.25,0.899c0.9,2.434,3.634,6.617,8.2,12.551c2.267,3.1,4.617,7.566,7.05,13.399
		c2.301,5.834,3.9,11.334,4.801,16.5c1.833,10.4,2.066,22.684,0.699,36.851c-1.533,14.199-3.433,18.316-5.699,12.35
		c-10.2-25.7-24.317-46.384-42.351-62.05c-18.2-15.733-38.8-24.967-61.8-27.7c-4.934-0.566-9.1-1.417-12.5-2.55
		c-3.467-1.134-5.2-2.233-5.2-3.3c0-2.5,2.467-7.801,7.4-15.9c4.933-8.267,9.566-14.733,13.899-19.4c3.2-3.434,5.768-5.267,7.7-5.5
		c1.967-0.333,5.967,0.517,12,2.55c19.134,6.9,36.067,16.284,50.8,28.15c3.9,3.2,8,6.851,12.301,10.95
		C257.05,86.9,257.867,87.634,258.6,88.2z M151,94.3c1.633-0.666,6.4-0.45,14.3,0.65c4.333,0.566,10.117,2.066,17.351,4.5
		c7.199,2.267,13.583,4.717,19.149,7.35c5.733,2.634,11.867,6.017,18.4,10.15c6.533,3.899,11.55,7.383,15.05,10.45
		c6.667,5.833,14.45,16.866,23.35,33.1c9.067,16.267,13.533,27.483,13.4,33.65c0,4.333-3.2,12.333-9.6,24
		c-6.533,11.566-12.184,19.533-16.95,23.899c-3.434,3.066-5.567,4.384-6.4,3.95c-0.8-0.467-1.816-3.517-3.05-9.15
		c-3.533-16.233-11.617-31.767-24.25-46.6c-12.667-14.8-27.417-26.083-44.25-33.85c-8.9-4-14.267-7.15-16.1-9.45
		c-1.834-2.267-3.334-7.533-4.5-15.8c-0.667-4.667-1-9.684-1-15.051c0-5.533,0.333-9.767,1-12.699
		C148.066,98.134,149.434,95.1,151,94.3z"/>
</g>
</svg>
