<?xml version="1.0" encoding="utf-8"?>
<!-- Generator: Adobe Illustrator 16.0.0, SVG Export Plug-In . SVG Version: 6.00 Build 0)  -->
<!DOCTYPE svg PUBLIC "-//W3C//DTD SVG 1.1//EN" "http://www.w3.org/Graphics/SVG/1.1/DTD/svg11.dtd">
<svg version="1.1" id="Layer_1" xmlns="http://www.w3.org/2000/svg" xmlns:xlink="http://www.w3.org/1999/xlink" x="0px" y="0px"
	 width="300px" height="300px" viewBox="0 0 300 300" enable-background="new 0 0 300 300" xml:space="preserve">
<g>
	<path fill-rule="evenodd" clip-rule="evenodd" fill="#00A162" d="M63.65,87.05c2,3.101,4.866,6.5,8.6,10.2
		c3.767,3.667,6.2,5.5,7.3,5.5c0.467,0,1.05,0.35,1.75,1.05c0.667,0.7,1.233,1.533,1.7,2.5c1.2,2.367,2.184,3.134,2.95,2.3
		c0.667-0.633,1.6,0.034,2.8,2c1.233,1.967,1.867,3.834,1.9,5.601c0,0.833,0.116,1.2,0.35,1.1c0.267-0.066,0.816-0.649,1.65-1.75
		l2.05-2.649l1.8,2.6c0.533,0.733,0.967,1.667,1.3,2.8c0.367,1.167,0.55,2.2,0.55,3.101c0.033,1.6,0.117,2.449,0.25,2.55
		c0.134,0.1,0.601-0.316,1.4-1.25c2.1-2.867,4.066-1.2,5.9,5c0.6,1.934,1.05,3.066,1.35,3.399c0.3,0.367,0.684,0.134,1.15-0.699
		c0.433-0.733,0.833-1.167,1.199-1.301c0.367-0.066,0.834,0.167,1.4,0.7c0.467,0.367,0.867,0.867,1.2,1.5
		c0.267,0.634,0.399,1.25,0.399,1.851c0,0.566,0.117,1.033,0.351,1.399c0.233,0.4,0.483,0.601,0.75,0.601c0.3,0,0.566,0.199,0.8,0.6
		c0.2,0.4,0.3,0.884,0.3,1.45c0,1.366,0.267,2.267,0.8,2.7c0.5,0.433,1.15,0.316,1.95-0.351c0.533-0.399,1-0.434,1.4-0.1
		c0.366,0.366,0.767,1.184,1.2,2.45c0.833,2.3,1.25,4.366,1.25,6.199c0,1.733,0.399,2.351,1.199,1.851
		c0.768-0.467,1.483-0.2,2.15,0.8s1,2.35,1,4.05c0,0.7,0.117,1.233,0.35,1.601c0.167,0.399,0.4,0.5,0.7,0.3
		c0.3-0.167,0.467-0.55,0.5-1.15c0.067-0.566,0.017-1.184-0.149-1.85c-0.268-0.934-0.317-1.517-0.15-1.75
		c0.2-0.233,0.65-0.217,1.35,0.05c1.268,0.5,1.817,0.366,1.65-0.4c-0.2-0.8-1.233-2.616-3.1-5.449c-2.134-3.233-3.2-5.334-3.2-6.301
		c0-1.033,1.066-1.316,3.2-0.85c1.933,0.434,2.967,0.45,3.1,0.05c0.1-0.399-0.566-1.767-2-4.1c-1.033-1.667-1.75-3.684-2.15-6.05
		c-0.399-2.434-0.232-3.65,0.5-3.65c0.334,0,1.601,0.55,3.801,1.65l3.149,1.649l-2.6-4.649c-0.7-1.301-1.384-2.801-2.05-4.5
		c-0.634-1.767-1.067-3.217-1.301-4.351l-0.75-4.25l3.4,1.8c2.267,1.134,3.55,1.7,3.85,1.7c0.268,0-0.449-1.717-2.149-5.149
		c-1.233-2.334-2.067-4.634-2.5-6.9c-0.4-2.233-0.233-3.35,0.5-3.35c0.333,0,1.3,0.416,2.899,1.25
		c1.033,0.566,1.634,0.783,1.801,0.649c0.166-0.066,0.05-0.55-0.351-1.45c-0.8-1.833-1.517-4.399-2.149-7.699
		c-0.567-3.267-0.667-5.101-0.301-5.5c0.2-0.2,0.533-0.233,1-0.101c0.5,0.134,0.983,0.384,1.45,0.75
		c1.267,1.066,2.033,1.217,2.3,0.45c0.268-0.8,0.101-2.816-0.5-6.05c-0.732-3.934-0.933-6.167-0.6-6.7
		c0.167-0.233,0.583-0.366,1.25-0.4c0.667-0.033,1.434,0.034,2.3,0.2c1.467,0.3,2.3,0.283,2.5-0.05c0.267-0.366,0.283-1.6,0.05-3.7
		c-0.232-2.7,0.051-4.899,0.851-6.6c0.767-1.767,1.683-2.233,2.75-1.4c0.566,0.5,1,0.5,1.3,0c0.267-0.467,0.517-1.616,0.75-3.45
		c0.167-1.233,0.434-2.366,0.8-3.399c0.367-1,0.7-1.55,1-1.65c0.333-0.1,0.617-0.3,0.851-0.6c0.232-0.3,0.35-0.617,0.35-0.95
		c0-0.866,0.75-3.816,2.25-8.85c1.434-4.767,2.55-6.934,3.35-6.5c0.801,0.5,1.051,3.449,0.75,8.85c-0.166,5.267-0.083,7.9,0.25,7.9
		c0.434,0,0.483,1.25,0.15,3.75c-0.133,1.433-0.117,2.483,0.05,3.149c0.233,0.667,0.7,1.15,1.4,1.45
		c0.733,0.267,1.167,0.733,1.3,1.4c0.133,0.666,0.066,1.866-0.2,3.6c-0.333,1.9-0.433,3.066-0.3,3.5
		c0.133,0.467,0.633,0.634,1.5,0.5c0.8-0.167,1.333,0.05,1.6,0.65c0.268,0.6,0.45,1.899,0.551,3.899c0.066,1.4,0.017,2.75-0.15,4.05
		c-0.167,1.367-0.383,2.317-0.65,2.851c-0.5,1.033-0.482,1.666,0.051,1.899c0.6,0.267,1.217-0.1,1.85-1.1
		c0.167-0.3,0.467-0.55,0.9-0.75c0.533-0.233,1.017-0.35,1.449-0.35c1.033,0,1.417,1.033,1.15,3.1c-0.3,2.066-1.133,4.467-2.5,7.2
		c-1,2.066-1.483,3.25-1.45,3.55s0.684,0.1,1.95-0.6c1.467-0.767,2.517-1.15,3.15-1.15c0.767,0,0.816,1.517,0.149,4.55
		c-0.6,3.033-1.467,5.417-2.6,7.15c-0.7,1.066-1.101,1.767-1.2,2.1c-0.066,0.367,0.184,0.45,0.75,0.25l3.45-1.399
		c1.3-0.567,1.95-0.217,1.95,1.05c0,1.1-0.601,2.833-1.801,5.2c-1.166,2.366-2.366,4.267-3.6,5.699c-0.833,1-1.184,1.551-1.05,1.65
		c0.167,0.167,1.116,0.05,2.85-0.35c1.5-0.301,2.467-0.384,2.9-0.25c0.467,0.166,0.7,0.666,0.7,1.5c0,1.233-0.733,3.283-2.2,6.149
		c-1.367,2.533-2.067,4.033-2.101,4.5c0,0.467,0.65,0.334,1.95-0.399c3.467-1.767,4.75-1.317,3.851,1.35
		c-0.301,1.066-0.934,2.767-1.9,5.1c-1,2.301-1.917,4.301-2.75,6c-0.233,0.567,0.383,0.467,1.85-0.3c1.067-0.566,1.733-0.75,2-0.55
		c0.233,0.2,0.351,1,0.351,2.4c0,0.833-0.217,1.966-0.65,3.399c-0.433,1.334-0.933,2.601-1.5,3.8c-1.467,2.733-2.2,4.25-2.2,4.551
		c0,0.3,0.733,0.25,2.2-0.15c0.601-0.167,1.117-0.2,1.55-0.1c0.4,0.166,0.601,0.433,0.601,0.8c0,0.933-0.65,2.616-1.95,5.05
		c-1.3,2.467-2.583,4.367-3.85,5.7c-0.967,1.033-1.483,1.717-1.551,2.05c-0.033,0.3,0.317,0.45,1.051,0.45
		c0.5,0,1.033-0.184,1.6-0.55c0.6-0.367,1.033-0.834,1.3-1.4c0.533-0.833,0.917-1.25,1.15-1.25c0.267-0.033,0.633,0.3,1.1,1
		c0.5,0.7,0.8,1.05,0.9,1.05c0.133-0.033,0.2-0.483,0.2-1.35c0-1.267,0.566-3.233,1.699-5.9c0.834-1.967,1.417-3.033,1.75-3.2
		c0.367-0.166,1.067,0.233,2.101,1.2s1.667,1.434,1.899,1.4c0.2-0.101,0.301-0.733,0.301-1.9c0-1.033,0.316-2.366,0.949-4
		c0.601-1.666,1.25-2.899,1.95-3.7c0.267-0.3,1.083,0.184,2.45,1.45c0.967,0.867,1.533,1.283,1.7,1.25
		c0.133-0.066,0.1-0.7-0.101-1.899c-0.1-0.7,0.033-1.684,0.4-2.95c0.367-1.233,0.867-2.367,1.5-3.4l2.4-3.8l2.75,5.2l0.649-2.75
		c0.4-1.5,1.351-3.316,2.851-5.45c1.533-2.1,2.666-3.15,3.399-3.15c0.267,0,0.567,0.217,0.9,0.65c0.333,0.5,0.583,1.033,0.75,1.6
		c0.3,1,0.633,1.351,1,1.051c0.333-0.233,1.033-1.384,2.1-3.45c1.367-2.7,2.5-4.3,3.4-4.8c0.899-0.434,1.7,0.183,2.399,1.85
		c0.533,1.167,0.95,1.65,1.25,1.45c0.334-0.134,1.067-1.167,2.2-3.101c1.267-2.1,2.601-3.616,4-4.55
		c1.367-0.866,2.233-0.767,2.601,0.3c0.3,0.834,1.783,0.467,4.449-1.1c3.834-2.2,9.768-3.75,17.801-4.65
		c0.8-0.133,2.3-0.666,4.5-1.6c2.267-1.033,4.55-2.167,6.85-3.4c2.333-1.267,4.4-2.316,6.2-3.149c1.767-0.8,2.717-1.134,2.85-1
		c0.167,0.133-0.433,0.983-1.8,2.55c-1.333,1.5-3,3.25-5,5.25c-2,2.066-3.55,3.816-4.65,5.25c-1.166,1.4-1.533,2.1-1.1,2.1
		c0.934,0.101,0.517,0.9-1.25,2.4c-0.767,0.6-1.383,1.233-1.85,1.9c-0.467,0.666-0.667,1.149-0.601,1.449
		c0.067,0.301-0.1,0.733-0.5,1.301c-0.433,0.6-1,1.166-1.7,1.699l-2.5,2.101l2.551,0.95c1.467,0.533,1.982,1.083,1.55,1.649
		c-0.434,0.566-2.517,2.101-6.25,4.601c-2,1.366-3.101,2.233-3.3,2.6c-0.2,0.366,0.25,0.684,1.35,0.95
		c0.7,0.166,1.283,0.416,1.75,0.75c0.5,0.3,0.75,0.566,0.75,0.8c0,0.634-1.467,1.7-4.4,3.2c-2.933,1.467-5.05,2.217-6.35,2.25
		c-0.8,0-1.167,0.133-1.1,0.399c0.066,0.233,0.649,0.784,1.75,1.65l2.649,2l-2.649,1.85c-0.733,0.5-1.75,0.983-3.051,1.45
		c-1.366,0.533-2.633,0.884-3.8,1.05l-4.3,0.65l5.3,4l-4.149,1.7c-2.733,1.133-4.867,1.7-6.4,1.7c-1.033,0-1.6,0.1-1.7,0.3
		c-0.133,0.233,0.101,0.7,0.7,1.399c1.967,2.4-0.033,3.934-6,4.601c-2.633,0.3-4.2,0.717-4.7,1.25
		c-0.566,0.533-0.017,1.149,1.65,1.85c0.8,0.333,1.1,0.617,0.899,0.851c-0.133,0.3-0.899,0.767-2.3,1.399
		c-2.167,0.934-4.55,1.45-7.149,1.55c-1.567,0.033-2.483,0.117-2.75,0.25c-0.268,0.134,0.017,0.45,0.85,0.95
		c0.5,0.3,0.95,0.65,1.35,1.05c0.367,0.434,0.551,0.783,0.551,1.051c0,0.533-1.518,1.116-4.551,1.75c-3.033,0.566-5.366,0.75-7,0.55
		c-0.899-0.167-1.383-0.15-1.449,0.05c-0.101,0.167,0.166,0.617,0.8,1.35c0.633,0.733,0.833,1.283,0.6,1.65
		c-0.167,0.367-0.933,0.816-2.3,1.35c-2.2,0.834-4.633,1.434-7.3,1.801c-1.667,0.267-2.7,0.517-3.101,0.75
		c-0.366,0.3-0.283,0.75,0.25,1.35c0.434,0.533,0.634,0.95,0.601,1.25s-0.333,0.517-0.9,0.65c-7.233,2.133-10.667,3.383-10.3,3.75
		c0.133,0.133-0.35,0.649-1.45,1.55c-1.1,0.866-2.45,1.833-4.05,2.899c-1.633,1.067-3,2.033-4.1,2.9
		c-1.067,0.833-1.518,1.333-1.351,1.5c0.3,0.367,3.033-0.767,8.2-3.4c2.1-1.066,3.9-1.899,5.4-2.5
		c1.566-0.533,2.35-0.683,2.35-0.449c0,0.3,0.45,0.217,1.35-0.25c0.934-0.467,2.033-1.167,3.301-2.101
		c1.933-1.433,3.217-2.233,3.85-2.399c0.633-0.2,1.017,0.066,1.15,0.8c0.199,0.8,0.399,1.233,0.6,1.3c0.267,0,0.8-0.367,1.6-1.1
		c1.334-1.134,2.967-2.067,4.9-2.801c1.2-0.5,2-0.717,2.4-0.649c0.399,0.1,0.6,0.5,0.6,1.2c0,0.6,0.15,0.933,0.45,1
		c0.3,0.133,0.8,0.017,1.5-0.351c1.2-0.633,2.883-1.217,5.05-1.75c1.267-0.3,2.066-0.399,2.4-0.3c0.333,0.1,0.366,0.5,0.1,1.2
		c-0.367,0.967-0.316,1.517,0.15,1.649c0.467,0.2,1.1-0.083,1.899-0.85c0.733-0.633,2.134-1.2,4.2-1.7
		c1.367-0.333,2.184-0.417,2.45-0.25s0.233,0.767-0.101,1.8c-0.366,1.167-0.416,1.783-0.149,1.851c0.233,0.033,1.167-0.367,2.8-1.2
		c0.9-0.5,1.9-0.917,3-1.25c1.133-0.367,2.017-0.55,2.65-0.55c0.899,0,1.467,0.167,1.699,0.5c0.233,0.3,0.2,0.917-0.1,1.85
		c-0.333,1-0.417,1.567-0.25,1.7c0.167,0.1,0.733-0.1,1.7-0.6c1.566-0.834,3.3-1.25,5.2-1.25c1.199,0,1.933,0.149,2.199,0.449
		c0.233,0.301,0.217,0.917-0.05,1.851c-0.333,1.033-0.417,1.616-0.25,1.75c0.167,0.1,0.733-0.117,1.7-0.65
		c0.633-0.3,1.45-0.566,2.45-0.8c0.933-0.267,1.767-0.4,2.5-0.4c1.033,0,1.717,0.15,2.05,0.45s0.4,0.817,0.2,1.55
		c-0.2,0.834-0.033,1.334,0.5,1.5c0.566,0.167,1.95,0.167,4.149,0c2.2-0.166,3.567-0.166,4.101,0c0.566,0.167,0.7,0.617,0.399,1.351
		c-0.267,0.633-0.25,1.1,0.051,1.399c0.267,0.233,0.833,0.334,1.699,0.301c1.601-0.033,3.75,0.3,6.45,1
		c2.634,0.699,4.783,1.517,6.45,2.449c1.333,0.733,1.816,1.217,1.45,1.45c-0.367,0.233-2.134,0.583-5.3,1.05
		c-4.4,0.667-7.233,1.033-8.5,1.101c-1.334,0.033-1.75,0.767-1.25,2.2c0.3,0.899,0.232,1.449-0.2,1.649
		c-0.367,0.167-1.4,0.167-3.101,0c-1.467-0.167-2.5-0.167-3.1,0c-0.566,0.134-0.85,0.5-0.85,1.101c0,0.533-0.233,0.866-0.7,1
		c-0.434,0.133-1.184,0.066-2.25-0.2c-1.134-0.3-1.867-0.384-2.2-0.25c-0.267,0.133-0.283,0.533-0.05,1.2
		c0.399,1.033-0.233,1.616-1.9,1.75c-1.7,0.133-3.399-0.268-5.1-1.2c-1-0.467-1.567-0.634-1.7-0.5c-0.167,0.167-0.1,0.883,0.2,2.149
		c0.267,1.101,0.316,1.851,0.149,2.25c-0.133,0.367-0.55,0.551-1.25,0.551c-1.3,0-3.283-0.584-5.949-1.75
		c-2.7-1.134-4.334-2.117-4.9-2.95c-0.233-0.333-0.35-0.25-0.35,0.25c-0.033,0.533,0.033,1.366,0.199,2.5
		c0.4,2.467,0.317,3.783-0.25,3.95c-0.633,0.166-2.283-0.667-4.949-2.5c-1.834-1.233-2.934-1.867-3.301-1.9
		c-0.333-0.1-0.383,0.35-0.149,1.35c0.433,1.467,0.233,2.15-0.601,2.051c-0.8-0.134-2.467-1.051-5-2.75
		c-1.967-1.367-3.116-2.067-3.449-2.101c-0.367-0.033-0.367,0.483,0,1.55c0.433,1.467,0.333,2.2-0.301,2.2
		c-0.633,0.033-2.232-0.649-4.8-2.05c-1.167-0.633-2.183-1.05-3.05-1.25c-0.8-0.2-1.25-0.133-1.35,0.2
		c-0.101,0.333-0.601,0.333-1.5,0c-0.867-0.333-1.884-0.884-3.051-1.65c-2.199-1.5-3.649-2.399-4.35-2.7
		c-0.7-0.232-0.783,0.084-0.25,0.95c0.667,1.067,0.467,1.384-0.6,0.95c-1.033-0.434-2.567-1.483-4.601-3.15l-4-3.3l0.101,3.3
		c0.033,0.934,0.166,1.7,0.399,2.301c0.167,0.666,0.384,1,0.65,1c0.733,0,1.983,0.616,3.75,1.85c1.066,0.7,1.7,1.25,1.899,1.65
		c0.2,0.366,0.018,0.732-0.55,1.1c-0.566,0.367-0.816,0.7-0.75,1c0.067,0.267,0.467,0.617,1.2,1.05c1.6,0.967,2.883,2.033,3.85,3.2
		c0.934,1.133,1.101,1.8,0.5,2c-0.8,0.3-0.35,1.783,1.351,4.45c1.633,2.5,2.717,4.616,3.25,6.35c0.6,1.767,0.5,2.65-0.3,2.65
		c-0.733,0-0.768,0.95-0.101,2.85c0.601,1.567,0.95,3.617,1.05,6.15c0.067,2.5-0.149,4.017-0.649,4.55c-0.2,0.2-0.634-0.15-1.3-1.05
		c-0.634-0.867-1.317-2.017-2.051-3.45c-1.5-3.033-3.217-5.917-5.149-8.65c-1.9-2.732-2.851-3.649-2.851-2.75
		c0,2.101-0.916,1.884-2.75-0.649c-1.833-2.533-2.8-4.9-2.899-7.101l-0.05-2.55l-1.2,2.45c-0.833,1.833-1.583,2.566-2.25,2.2
		c-0.634-0.333-1.5-1.917-2.601-4.75c-0.732-2-1.283-3.217-1.649-3.65c-0.4-0.433-0.717-0.267-0.95,0.5
		c-0.3,0.9-0.583,1.317-0.85,1.25c-0.301-0.066-0.867-0.7-1.7-1.899l-1.8-2.601v4.7c0,3.633-0.351,4.934-1.051,3.9
		c-0.699-1.067-1.25-3.768-1.649-8.101c-0.4-4.1-0.884-6.5-1.45-7.2c-0.5-0.732-1.267,0-2.3,2.2c-0.333,0.767-0.767,1.434-1.3,2
		c-0.567,0.5-1.051,0.75-1.45,0.75c-0.4,0-0.95,0.217-1.65,0.65c-0.7,0.433-1.3,0.95-1.8,1.55c-0.533,0.633-1.133,1.15-1.8,1.55
		c-0.634,0.434-1.134,0.65-1.5,0.65c-0.367,0-0.917,0.267-1.65,0.8c-0.767,0.566-1.5,1.217-2.2,1.95
		c-1.267,1.366-2.333,2.25-3.199,2.649c-0.867,0.367-1.233,0.117-1.101-0.75c0.267-1.566,0.2-2.467-0.2-2.699
		c-0.366-0.2-0.916,0.333-1.649,1.6c-1.067,1.967-2.317,3.367-3.75,4.2c-1.467,0.866-2.2,0.649-2.2-0.65
		c0-1.167-2.217,0.367-6.65,4.601c-4.366,4.267-6.933,6.533-7.699,6.8c-0.268,0.133-0.334-0.233-0.2-1.101
		c0.1-0.866,0.399-1.967,0.899-3.3c1.033-2.833,1.717-5.3,2.051-7.399c0.1-0.733,0.399-1.533,0.899-2.4
		c0.5-0.934,1.067-1.65,1.7-2.15c1.5-1.232,1.883-2.217,1.15-2.949c-0.667-0.634-0.084-1.768,1.75-3.4
		c1.833-1.566,3.449-2.367,4.85-2.4c0.8-0.033,1.184-0.133,1.15-0.3s-0.467-0.583-1.301-1.25c-0.8-0.566-1.25-1.033-1.35-1.399
		c-0.033-0.334,0.283-0.783,0.95-1.351c0.433-0.366,1.2-0.733,2.3-1.1c1.066-0.4,2.15-0.667,3.25-0.8
		c1.6-0.301,2.566-0.584,2.9-0.851c0.366-0.3,0.3-0.733-0.2-1.3c-0.533-0.633-0.583-1.033-0.15-1.2c0.4-0.233,1.45-0.366,3.15-0.399
		c2.967-0.134,5.316-0.483,7.05-1.051c2.2-0.699,1.3-1.033-2.7-1c-4.033,0.033-7.316,0.4-9.85,1.101c-2.833,0.833-4.5,0.833-5,0
		c-0.5-0.767-2-0.783-4.5-0.05c-2.601,0.732-4.167,1.066-4.7,1c-0.6-0.101-0.7-0.667-0.3-1.7c0.267-0.667,0.3-1.067,0.1-1.2
		c-0.167-0.167-0.616-0.083-1.35,0.25c-1.7,0.667-3.733,1.25-6.101,1.75c-2.433,0.5-3.767,0.6-4,0.3c-0.166-0.133-0.166-0.467,0-1
		c0.134-0.5,0.384-1.05,0.75-1.649c0.967-1.5,1.384-2.4,1.25-2.7c-0.1-0.333-0.767-0.167-2,0.5c-1.199,0.633-3.1,1-5.699,1.1
		c-2.533,0.101-4.084-0.133-4.65-0.7c-0.233-0.199-0.25-0.55-0.05-1.05c0.167-0.5,0.5-1.017,1-1.55c0.733-0.833,0.883-1.3,0.45-1.4
		c-0.467-0.166-2.084-0.133-4.851,0.101c-3.267,0.3-5.233,0.133-5.899-0.5c-0.667-0.667-0.167-1.9,1.5-3.7
		c0.767-0.833,0.967-1.316,0.6-1.45c-0.367-0.167-1.767-0.149-4.2,0.05c-1.399,0.134-2.783,0.117-4.149-0.05
		c-1.367-0.167-2.268-0.417-2.7-0.75c-0.733-0.5-1.05-0.917-0.95-1.25c0.133-0.366,0.717-0.917,1.75-1.649
		c1.633-1.134,2.434-1.95,2.4-2.45c-0.033-0.567-0.884-0.7-2.551-0.4c-0.732,0.134-1.75,0.067-3.05-0.2
		c-1.333-0.3-2.583-0.717-3.75-1.25c-1.733-0.8-2.75-1.399-3.05-1.8c-0.267-0.399-0.033-0.816,0.7-1.25
		c0.667-0.5,0.85-0.933,0.55-1.3c-0.333-0.4-1.417-1-3.25-1.8c-1.233-0.533-2.233-1.134-3-1.8c-0.767-0.634-1.083-1.15-0.95-1.551
		c0.134-0.366-0.149-0.967-0.85-1.8c-0.667-0.833-1.55-1.683-2.65-2.55c-3.3-2.467-5.983-4.717-8.05-6.75
		c-2.1-2-2.633-2.833-1.6-2.5c3.033,0.967,6.433,1.883,10.199,2.75c3.667,0.767,5.783,1.05,6.351,0.85
		c0.366-0.1,0.967-0.05,1.8,0.15c0.867,0.233,1.75,0.566,2.65,1c1.3,0.667,2.217,1.017,2.75,1.05c0.533,0,0.982-0.316,1.35-0.95
		c0.4-0.566,0.934-0.783,1.6-0.649c0.7,0.1,1.95,0.633,3.75,1.6c2.134,1.134,3.417,1.717,3.851,1.75c0.399,0.033,0.6-0.45,0.6-1.45
		c0-1.399,0.384-2.066,1.15-2c0.733,0.067,2.333,0.934,4.8,2.601c2.333,1.6,3.75,2.45,4.25,2.55c0.533,0.133,0.8-0.35,0.8-1.45
		c0-1.267,0.567-1.783,1.7-1.55c1.133,0.2,2.533,1.083,4.2,2.65c1.7,1.6,2.783,2.467,3.25,2.6c0.5,0.133,0.75-0.367,0.75-1.5
		c0-1.267,0.483-1.767,1.45-1.5c0.967,0.3,2.333,1.316,4.1,3.05c2.1,2.134,3.4,2.817,3.9,2.05c0.199-0.333,0.017-0.916-0.551-1.75
		c-0.6-0.8-1.416-1.616-2.449-2.449c-1.801-1.467-2.783-2.434-2.95-2.9c-0.134-0.434,0.283-1.017,1.25-1.75
		c1-0.733,1.45-1.2,1.35-1.4c-0.133-0.232-0.95-0.5-2.45-0.8c-0.866-0.133-1.933-0.517-3.199-1.149
		c-1.233-0.634-2.283-1.283-3.15-1.95l-3.15-2.5l2.65-1c1.267-0.467,1.85-0.817,1.75-1.05c-0.1-0.2-1.083-0.7-2.95-1.5
		c-2.033-0.867-3.816-1.9-5.35-3.101c-1.567-1.2-2.351-2.167-2.351-2.899c0-0.268,0.233-0.5,0.7-0.7
		c0.467-0.267,1.05-0.434,1.75-0.5c1.033-0.167,1.384-0.467,1.05-0.9c-0.333-0.399-1.633-1.267-3.899-2.6
		c-2.767-1.634-4.3-2.95-4.601-3.95c-0.267-0.967,0.684-1.75,2.851-2.35c1.233-0.334,1.883-0.567,1.95-0.7
		c0.066-0.2-0.417-0.5-1.45-0.9c-1.533-0.566-3.483-1.75-5.851-3.55c-2.333-1.767-3.5-2.934-3.5-3.5c0-0.233,0.25-0.517,0.75-0.85
		c0.533-0.301,1.15-0.534,1.851-0.7c1.267-0.334,1.783-0.767,1.55-1.3c-0.233-0.534-1.583-2.067-4.05-4.601l-5.05-5.149l3.85-0.65
		c2.566-0.333,3.35-0.833,2.35-1.5c-0.866-0.6-1.683-1.684-2.449-3.25c-0.667-1.566-1.601-3.2-2.801-4.9
		c-0.866-1.133-1.283-1.833-1.25-2.1c0.101-0.233,0.7-0.35,1.801-0.35c1.166,0,1.732-0.184,1.699-0.551c0-0.366-0.699-1.633-2.1-3.8
		c-1.6-2.533-2.467-4.1-2.6-4.7c-0.101-0.566,0.399-0.85,1.5-0.85c0.699,0,1.083-0.15,1.149-0.45c0.033-0.3-0.2-0.916-0.7-1.85
		c-0.866-1.667-2.116-4.884-3.75-9.65l-3.35-9.2c-0.733-1.833-0.55-2.433,0.55-1.8C60.9,83.25,62.184,84.75,63.65,87.05z"/>
</g>
</svg>
