<?xml version="1.0" encoding="utf-8"?>
<!-- Generator: Adobe Illustrator 16.0.0, SVG Export Plug-In . SVG Version: 6.00 Build 0)  -->
<!DOCTYPE svg PUBLIC "-//W3C//DTD SVG 1.1//EN" "http://www.w3.org/Graphics/SVG/1.1/DTD/svg11.dtd">
<svg version="1.1" id="Layer_1" xmlns="http://www.w3.org/2000/svg" xmlns:xlink="http://www.w3.org/1999/xlink" x="0px" y="0px"
	 width="300px" height="300px" viewBox="0 0 300 300" enable-background="new 0 0 300 300" xml:space="preserve">
<g>
	<path fill-rule="evenodd" clip-rule="evenodd" fill="#FFFFFF" d="M243.595,104.164c-3.591-7.504-12.538-16.71-26.851-27.619
		c20.021,1.795,36.787,7.614,50.297,17.462c12.665,9.262,20.208,20.225,22.623,32.889c2.487,12.961-1.01,24.787-10.49,35.475
		c-10.502,11.858-26.866,20.351-49.089,25.478c-3.805,10.029-9.151,19.417-16.03,28.168c-4.54,5.747-10.766,12.318-18.671,19.714
		c-8.234,7.724-13.433,12.884-15.596,15.486c-4.354,5.303-6.571,10.392-6.643,15.262l-50.296,22.842l-63.752-28.881l20.866-14.883
		c2.635-17.314-3.42-33.86-18.176-49.638c-8.345-8.854-21.031-18.484-38.055-28.882L48.446,149.3
		c-21.382-17.133-33.97-34.684-37.78-52.657C8.98,88.551,9.223,80.827,11.38,73.471c2.086-7.104,5.875-13.488,11.369-19.165
		c5.38-5.638,12.078-10.232,20.093-13.779c8.201-3.629,17.243-5.967,27.13-7.032c21.816-2.267,44.456,1.702,67.918,11.918
		C104.14,51.49,85.453,59.34,81.83,68.969c-4.282,11.458,11.786,26.23,48.21,44.313c14.312,7.098,27.641,12.994,39.976,17.677
		c6.149,2.344,10.87,3.975,14.164,4.892c15.377-2.164,26.487-4.046,33.333-5.66c11.018-2.525,18.704-5.633,23.063-9.333
		C245.808,116.428,246.817,110.866,243.595,104.164z M229.042,134.203c-8.895,3.146-19.62,5.413-32.175,6.807
		c5.637,23.903,1.207,48.777-13.292,74.622c-11.199,19.95-28.843,40.998-52.931,63.148l37.065-16.804
		c0.582-4.65,3.162-9.574,7.741-14.772c1.498-1.757,6.736-6.863,15.706-15.316c7.646-7.252,13.818-13.983,18.506-20.208
		c6.846-9.042,12.259-18.852,16.25-29.43c19.916-4.47,34.997-11.294,45.246-20.483c9.261-8.349,13.707-17.792,13.345-28.337
		c-0.406-10.101-5.089-19.62-14.059-28.552c-9.223-9.223-21.487-16.271-36.793-21.141c9.739,7.614,15.8,14.79,18.177,21.525
		c2.235,6.226,1.229,11.863-3.019,16.914C244.858,126.896,238.27,130.904,229.042,134.203z M76.34,80.113
		c-3.7-8.273-1.614-15.464,6.258-21.58c7.834-6.077,20.959-10.743,39.372-13.999c-22.222-6.044-42.227-7.065-60.019-3.074
		c-16.804,3.804-28.716,11.292-35.743,22.459c-7.214,11.418-7.708,24.413-1.483,38.982c6.846,15.997,21.086,31.554,42.721,46.673
		l-24.33,17.463c16.074,10.728,27.789,21.707,35.145,32.944c10.068,15.338,13.011,32.087,8.838,50.246l-12.297,8.675l47.222,21.415
		c23.173-25.444,39.169-49.144,47.991-71.108c9.739-24.309,11.057-47.354,3.953-69.132c-28.662-11.056-51.356-21.8-68.089-32.235
		C90.031,97.922,80.182,88.683,76.34,80.113z M130.645,154.405l5.159,22.514l24.051,10.766l-20.751,3.128l5.27,22.404
		l-18.121-20.593l-20.757,3.131l9.607-15.872l-18.061-20.477l23.996,10.814L130.645,154.405z"/>
	<path fill-rule="evenodd" clip-rule="evenodd" fill="#B21F36" d="M229.042,134.203c9.228-3.299,15.816-7.307,19.769-12.028
		c4.248-5.051,5.254-10.688,3.019-16.914c-2.377-6.736-8.438-13.911-18.177-21.525c15.306,4.87,27.57,11.918,36.793,21.141
		c8.97,8.932,13.652,18.451,14.059,28.552c0.362,10.546-4.084,19.989-13.345,28.337c-10.249,9.189-25.33,16.014-45.246,20.483
		c-3.991,10.578-9.404,20.388-16.25,29.43c-4.688,6.225-10.859,12.956-18.506,20.208c-8.97,8.453-14.208,13.56-15.706,15.316
		c-4.579,5.198-7.159,10.122-7.741,14.772l-37.065,16.804c24.088-22.15,41.731-43.198,52.931-63.148
		c14.499-25.845,18.929-50.719,13.292-74.622C209.422,139.616,220.147,137.349,229.042,134.203z"/>
	<path fill-rule="evenodd" clip-rule="evenodd" fill="#0A1A2E" d="M130.645,154.405l-9.607,15.815l-23.996-10.814l18.061,20.477
		l-9.607,15.872l20.757-3.131l18.121,20.593l-5.27-22.404l20.751-3.128l-24.051-10.766L130.645,154.405z M76.34,80.113
		c3.842,8.569,13.691,17.809,29.54,27.729c16.732,10.436,39.427,21.179,68.089,32.235c7.104,21.777,5.786,44.823-3.953,69.132
		c-8.821,21.965-24.818,45.664-47.991,71.108l-47.222-21.415l12.297-8.675c4.172-18.159,1.229-34.908-8.838-50.246
		c-7.356-11.237-19.071-22.217-35.145-32.944l24.33-17.463c-21.635-15.119-35.875-30.676-42.721-46.673
		c-6.225-14.57-5.731-27.564,1.483-38.982c7.027-11.167,18.939-18.655,35.743-22.459c17.792-3.991,37.797-2.97,60.019,3.074
		c-18.413,3.256-31.538,7.922-39.372,13.999C74.726,64.649,72.64,71.84,76.34,80.113z"/>
</g>
</svg>
