<?xml version="1.0" encoding="utf-8"?>
<!-- Generator: Adobe Illustrator 16.0.0, SVG Export Plug-In . SVG Version: 6.00 Build 0)  -->
<!DOCTYPE svg PUBLIC "-//W3C//DTD SVG 1.1//EN" "http://www.w3.org/Graphics/SVG/1.1/DTD/svg11.dtd">
<svg version="1.1" id="Layer_1" xmlns="http://www.w3.org/2000/svg" xmlns:xlink="http://www.w3.org/1999/xlink" x="0px" y="0px"
	 width="300px" height="300px" viewBox="0 0 300 300" enable-background="new 0 0 300 300" xml:space="preserve">
<g>
	<path fill-rule="evenodd" clip-rule="evenodd" fill="#3D9348" d="M108.346,21.437v274.846c-2.64-0.439-5.278-0.928-7.917-1.465
		c2.395-39.183,2.688-65.264,0.879-78.243c-6.207-8.979-11.143-24.13-14.81-45.455h0.293c-0.195-0.78-0.367-1.537-0.514-2.269
		c-0.439-1.854-0.781-3.732-1.026-5.635c-0.097-0.587-0.195-1.147-0.293-1.685c-0.293-2.195-0.514-4.416-0.66-6.661
		c-0.782-6.588-1.784-13.029-3.006-19.324c-0.685-3.367-1.442-6.708-2.273-10.026c-4.056-9.028-8.089-17.348-12.097-24.96
		c-3.911-7.271-7.772-13.882-11.584-19.836c-8.457-11.661-9.604-18.859-3.446-21.593c6.305-1.609,11.755,2.221,16.349,11.493
		c4.546,7.271,9.532,14.712,14.957,22.324c3.177,4.489,6.549,9.026,10.117,13.614c1.076,0.928,2.347,1.416,3.813,1.464
		c3.274-0.586,4.252-4.855,2.932-12.809L91.923,29.27c-1.758-8.198-0.634-12.932,3.373-14.2
		C101.064,13.851,105.415,15.972,108.346,21.437z"/>
	<path fill-rule="evenodd" clip-rule="evenodd" fill="#FFFFFF" d="M108.346,296.283V21.437c1.809,3.368,3.055,8.003,3.739,13.907
		l8.945,41.941c3.764,16.054,6.402,19.445,7.918,10.174l5.646-67.998c0.439-12.199,3.789-18.006,10.044-17.421
		c8.407-0.243,12.022,10.053,10.851,30.889c-0.244,9.857-0.537,18.835-0.879,26.935c-0.148,4.539-0.318,8.784-0.516,12.737
		c-0.633,9.418,0.492,15.395,3.375,17.933c2.688,1.073,5.131-0.83,7.332-5.709c2.639-5.123,5.961-14.103,9.969-26.936
		c0.1-0.292,0.197-0.586,0.295-0.877c0.928-2.734,1.809-5.32,2.639-7.76c0.881-2.635,1.736-5.074,2.566-7.32v168.201
		c-0.049,0.391-0.049,0.807,0,1.245c0,0.195,0.023,0.39,0.074,0.585c-0.051,0.635-0.074,1.269-0.074,1.904
		c-0.049,1.464-0.049,2.951,0,4.464v72.243c-1.76,0.535-3.496,1.025-5.205,1.465c-20.92,5.465-40.96,7.172-60.12,5.123
		c-0.489-0.049-0.978-0.098-1.466-0.146C111.768,296.771,110.057,296.527,108.346,296.283z"/>
	<path fill-rule="evenodd" clip-rule="evenodd" fill="#C60A09" d="M180.27,218.331c0.148,5.661,0.855,11.613,2.125,17.859
		c1.174,5.71,2.811,11.639,4.912,17.787c1.564,4.536,4.475,15.005,8.725,31.399c-4.596,1.707-9.139,3.244-13.637,4.611
		c-0.732,0.195-1.441,0.391-2.125,0.586V218.331z M180.27,210.133V41.932c0.734-2.097,1.443-4.05,2.125-5.855
		c3.277-8.685,5.574-13.687,6.891-15.005c1.566-1.414,3.766-2.024,6.6-1.83c7.381,0.586,10.242,4.831,8.578,12.736
		c-0.342,1.512-0.732,3.293-1.172,5.344c-1.809,7.855-4.938,19.055-9.385,33.596c-1.32,4.831-2.492,9.54-3.52,14.126
		c-1.955,8.637-3.445,16.958-4.471,24.959c-0.539,5.124,1.855,12.395,7.184,21.813c1.516,4.147,3.42,4.319,5.719,0.512
		c0.488-0.926,1.148-1.952,1.979-3.074c2.836-3.757,7.334-8.247,13.492-13.468c0.732-0.683,1.49-1.341,2.271-1.976l0.367-0.293
		c0.146-0.097,0.27-0.17,0.367-0.22c11.193-8.88,21.211-12.126,30.059-9.734c4.352,1.512,5.646,4.417,3.887,8.71
		c-0.881,1.024-2.369,2.221-4.473,3.585l-2.346,1.977c-7.232,6.881-13.318,13.711-18.258,20.494
		c-3.225,4.489-5.961,8.93-8.209,13.322c-0.49,0.976-0.955,1.927-1.395,2.854c-2.785,5.417-5.717,10.566-8.799,15.444
		c-2.002,3.124-4.057,6.148-6.158,9.076c-3.371,4.49-6.891,8.687-10.557,12.589c-4.01,4.54-6.893,8.541-8.652,12.004
		C181.125,206.06,180.418,208.23,180.27,210.133z"/>
</g>
</svg>
