<?xml version="1.0" encoding="utf-8"?>
<!-- Generator: Adobe Illustrator 16.0.0, SVG Export Plug-In . SVG Version: 6.00 Build 0)  -->
<!DOCTYPE svg PUBLIC "-//W3C//DTD SVG 1.1//EN" "http://www.w3.org/Graphics/SVG/1.1/DTD/svg11.dtd">
<svg version="1.1" id="Layer_1" xmlns="http://www.w3.org/2000/svg" xmlns:xlink="http://www.w3.org/1999/xlink" x="0px" y="0px"
	 width="300px" height="300px" viewBox="0 0 300 300" enable-background="new 0 0 300 300" xml:space="preserve">
<g>
	<path fill-rule="evenodd" clip-rule="evenodd" fill="#333333" d="M236.023,120.984c0.735-0.036,1.456-0.056,2.156-0.056
		c8.559-0.258,18.429-0.221,29.604,0.112c12.064,0.332,20.991,0.887,26.782,1.662l1.718,0.222l-2.492-1.883l1.605,0.498
		c0.739,0.257,1.348,0.739,1.825,1.441c0.518,0.738,0.777,1.551,0.777,2.437c0,0.776-0.518,3.417-1.551,7.921
		c-1.032,4.469-1.716,7.09-2.047,7.865c-0.259,0.554-0.646,1.017-1.164,1.385c-0.515,0.369-1.346,0.776-2.488,1.218
		c-2.215,0.813-4.057,2.309-5.532,4.487c-0.518,0.776-1.052,1.772-1.605,2.991c-1.107,2.18-2.307,5.06-3.597,8.642
		c-0.224,0.554-0.443,1.126-0.667,1.716c-2.137,5.725-4.739,11.208-7.802,16.452c-1.031,1.812-2.066,3.509-3.098,5.097
		c-0.221,0.296-0.426,0.591-0.608,0.886c-2.068,3.028-4.114,5.575-6.145,7.644c-3.727,3.804-7.652,6.814-11.785,9.028
		c-3.062,1.628-6.973,3.231-11.731,4.819c-1.661,0.518-3.431,1.035-5.312,1.552c-2.591,0.749-5.471,1.276-8.633,1.578
		c-2.284,0.218-4.723,0.319-7.303,0.303c-6.164-0.072-11.9-0.794-17.212-2.159c-10.771-2.805-18.888-7.219-24.347-13.237
		c-2.287-2.51-4.448-5.688-6.477-9.527c-0.184-0.295-0.349-0.59-0.497-0.886c-2.656-5.134-5.092-11.376-7.307-18.722
		c-0.33-1.035-0.626-1.976-0.884-2.827c-0.736-2.214-1.326-3.766-1.771-4.651c-0.662-1.219-1.583-2.159-2.765-2.826
		c-1.181-0.664-2.27-1.087-3.267-1.272c-1.032-0.223-2.545-0.352-4.537-0.388c-3.726,0-6.4,0.904-8.023,2.714
		c-1.108,1.183-2.214,3.322-3.32,6.424c-0.518,1.479-1.032,3.178-1.549,5.098c-1.697,6.276-3.818,11.76-6.364,16.451
		c-0.185,0.296-0.351,0.591-0.498,0.886c-2.916,5.096-6.346,9.251-10.294,12.463c-3.209,2.585-6.788,4.522-10.734,5.814
		c-2.436,0.813-5.664,1.647-9.684,2.493c-4.022,0.813-7.193,1.311-9.519,1.496c-1.56,0.134-3.349,0.143-5.367,0.027
		c-3.041-0.185-6.6-0.658-10.682-1.412c-1.584-0.332-3.134-0.646-4.646-0.941c-3.984-0.887-7.47-1.884-10.458-2.991
		c-0.59-0.257-1.162-0.496-1.716-0.718c-5.608-2.364-10.846-6.039-15.716-11.025c-1.586-1.588-3.098-3.323-4.538-5.206
		c-0.258-0.295-0.498-0.59-0.719-0.886c-2.841-3.729-5.496-7.94-7.968-12.63c-0.664-1.254-1.624-3.211-2.877-5.871
		c-0.479-1.034-0.923-2.049-1.328-3.048c-0.776-1.623-1.495-3.212-2.159-4.762c-0.922-2.179-1.715-4.044-2.38-5.596
		c-1.18-2.695-1.955-4.394-2.324-5.095c-0.7-1.367-1.642-2.585-2.821-3.656c-1.219-1.146-2.454-1.92-3.709-2.326
		c-0.701-0.222-1.327-0.517-1.88-0.886c-0.59-0.333-0.96-0.666-1.107-0.998c-0.369-0.702-1.052-2.899-2.047-6.591
		c-1.292-5.022-1.716-8.475-1.273-10.358c0.479-1.884,2.067-3.083,4.759-3.6c0.848-0.147,1.881-0.443,3.099-0.886
		c1.18-0.444,2.305-0.979,3.375-1.607c3.284-1.882,7.489-4.099,12.617-6.646c5.127-2.512,9.259-4.431,12.396-5.761
		c6.05-2.512,11.75-4.524,17.099-6.037c3.542-0.961,7.434-1.829,11.676-2.604c2.214-0.444,4.537-0.832,6.972-1.163
		c1.458-0.225,2.767-0.429,3.929-0.61c1.852-0.295,3.327-0.534,4.427-0.719c0.937-0.17,1.599-0.3,1.992-0.389
		c0.553-0.11,1.346-0.204,2.379-0.277c1.071-0.073,2.085-0.092,3.044-0.055c2.398,0.111,4.649,0.756,6.75,1.939
		c0.611,0.366,1.293,0.828,2.048,1.385c1.729,1.293,3.832,3.104,6.308,5.428c4.353,4.099,8.576,8.252,12.673,12.461
		c4.131,4.21,7.065,7.367,8.798,9.473c1.291,1.662,2.067,2.751,2.324,3.268c0.296,0.479,0.239,0.738-0.167,0.775
		c-0.627,0.11-3.835-0.406-9.628-1.551c-5.792-1.181-9-1.94-9.629-2.27c-0.22-0.148-0.554-0.481-0.995-0.999
		c-0.444-0.517-0.829-1.106-1.164-1.771c-0.848-1.44-2.454-3.729-4.813-6.87c-2.287-3.1-4.095-5.649-5.423-7.643
		c-1.548-2.252-2.785-3.674-3.706-4.266c-0.886-0.592-2.288-0.811-4.206-0.664c-1.292,0.072-2.344,0.222-3.155,0.443
		c-0.774,0.257-1.734,0.738-2.877,1.44c-0.178,0.108-0.364,0.228-0.554,0.36c-1.306,0.859-2.893,2.142-4.759,3.85
		c-2.029,1.919-4.077,4.06-6.142,6.423c-0.997,1.146-1.827,1.902-2.491,2.272c-0.406,0.258-1.052,0.517-1.937,0.775
		c-0.59,0.223-1.292,0.443-2.102,0.666l-4.428,1.274l-26.451,0.332c-17.67,0.185-26.781,0.48-27.334,0.886
		c-0.37,0.184,1.457,0.314,5.477,0.388c4.17,0.11,11.325,0.167,21.471,0.167c13.649,0.036,22.614,0.09,26.893,0.166
		c1.956,0.074,4.114,0.184,6.475,0.332c2.877,0.11,6.068,0.314,9.573,0.61c1.88,0.148,3.799,0.313,5.755,0.499
		c7.337,0.735,15.212,1.788,23.629,3.157c10.625,1.737,19.847,3.601,27.667,5.596c3.025,0.812,5.424,1.347,7.194,1.604
		c1.735,0.334,3.782,0.537,6.143,0.611c2.656,0.11,4.743,0.092,6.253-0.056c1.55-0.185,4.239-0.664,8.079-1.44
		c14.902-2.991,27.558-5.133,37.961-6.426c7.364-0.914,15.629-1.625,24.791-2.132C228.013,121.3,231.938,121.125,236.023,120.984z
		 M238.18,99.493c2.841,0.591,5.533,1.218,8.08,1.884c6.271,1.699,12.691,4.006,19.256,6.924c3.91,1.662,9.166,4.098,15.771,7.311
		c6.531,3.103,9.741,4.708,9.628,4.819c-0.072,0.111-5.516-0.092-16.321-0.609c-4.503-0.223-9.574-0.407-15.22-0.554
		c-5.718-0.148-10.329-0.204-13.834-0.167c-2.914,0.036-5.365,0.036-7.359,0c-3.985-0.038-6.271-0.167-6.861-0.388
		c-0.334-0.185-1.144-0.831-2.435-1.939c-1.255-1.145-2.621-2.437-4.095-3.876c-0.187-0.188-0.373-0.373-0.554-0.556
		c-3.08-3.029-5.7-5.191-7.855-6.479c-2.327-1.33-4.854-2.086-7.586-2.272c-2.543-0.147-4.479,0.221-5.811,1.109
		c-1.361,0.885-3.908,3.488-7.632,7.809c-4.317,4.985-6.993,8.124-8.025,9.417c-0.591,0.737-1.144,1.273-1.661,1.606
		c-0.477,0.332-1.051,0.554-1.717,0.664c-0.625,0.038-3.502,0.517-8.63,1.441l-10.402,1.828l0.439-1.496
		c0.333-1.218,1.018-2.418,2.05-3.601c0.958-1.181,2.894-3.028,5.81-5.538c3.244-2.881,6.199-5.392,8.854-7.533
		c2.582-2.105,5.442-4.302,8.578-6.592c3.207-2.4,5.586-4.043,7.135-4.929c1.441-0.886,2.952-1.587,4.539-2.104
		c1.661-0.517,3.302-0.794,4.926-0.831s3.636,0.185,6.032,0.665c2.488,0.476,6.14,1.04,10.956,1.688
		c0.037,0.015,0.074,0.024,0.11,0.03C229.324,97.85,233.937,98.607,238.18,99.493z M224.235,128.961
		c-4.348,0.209-8.425,0.469-12.231,0.774c-9.073,0.813-17.098,2.068-24.07,3.768c-6.972,1.735-11.861,3.654-14.666,5.76
		c-1.952,1.551-3.318,3.583-4.093,6.092c-0.442,1.699-0.663,3.675-0.663,5.927c0,1.22,0.073,2.512,0.221,3.879
		c0.258,2.214,0.554,4.376,0.886,6.479c0.478,2.956,1.088,5.799,1.825,8.531c1.294,4.616,2.896,8.734,4.816,12.352
		c0.108,0.223,0.24,0.443,0.386,0.666c0.149,0.296,0.313,0.591,0.497,0.886c1.403,2.363,3.266,4.709,5.59,7.035
		c2.804,2.77,5.626,4.82,8.468,6.147c2.397,1.182,4.886,2.143,7.47,2.88c2.545,0.664,5.439,1.181,8.686,1.554
		c5.722,0.632,11.35,0.678,16.88,0.137c2.208-0.209,4.405-0.515,6.585-0.914c2.62-0.48,5.072-1.068,7.359-1.771
		c4.462-1.332,8.394-3.101,11.788-5.319c3.577-2.327,6.806-5.575,9.683-9.748c0.185-0.295,0.387-0.59,0.607-0.886
		c2.953-4.507,5.496-10.008,7.638-16.505c0.554-1.663,1.051-3.345,1.494-5.044c0.884-3.396,1.585-6.849,2.103-10.357
		c0.11-0.812,0.223-1.642,0.331-2.492c0.666-6.093,0.534-10.34-0.386-12.74c-1.512-3.803-6.587-6.204-15.218-7.201
		c-3.282-0.406-9.298-0.536-18.04-0.388c-0.369,0-0.739,0.018-1.107,0.056C232.558,128.625,228.281,128.771,224.235,128.961z
		 M277.855,136.771c0.554,0.296,1.847,0.425,3.873,0.387c2.031-0.037,3.634-0.201,4.813-0.499c1.257-0.332,2.29-0.774,3.1-1.328
		c0.777-0.518,0.996-0.942,0.664-1.274c-0.331-0.333-1.715-0.553-4.148-0.665c-2.473-0.074-4.188,0.019-5.148,0.277
		c-0.478,0.184-0.993,0.407-1.546,0.665c-0.591,0.332-1.018,0.627-1.276,0.885c-0.516,0.48-0.79,0.794-0.827,0.942
		C277.32,136.346,277.488,136.55,277.855,136.771z M13.791,130.291c-1.07,0-2.196,0.202-3.377,0.608l-1.659,0.61l1.604,1.053
		c1.218,0.739,2.639,1.274,4.261,1.606c1.697,0.37,3.246,0.48,4.648,0.333c1.659-0.221,2.583-0.424,2.767-0.609
		c0.296-0.295-0.074-0.757-1.107-1.385c-0.958-0.664-2.065-1.182-3.32-1.552C16.133,130.512,14.86,130.291,13.791,130.291z
		 M82.518,199.502c1.163,0.017,2.398,0.026,3.708,0.026c4.612,0,7.71-0.074,9.296-0.223c1.623-0.109,3.302-0.406,5.036-0.887
		c7.268-2.028,13.022-5.686,17.265-10.966c0.554-0.665,1.071-1.367,1.549-2.105c0.259-0.406,0.535-0.829,0.83-1.273
		c0.149-0.295,0.313-0.59,0.498-0.886c3.063-5.392,5.405-12.574,7.028-21.549c0.259-1.623,0.517-3.322,0.774-5.094
		c0.259-1.847,0.389-3.601,0.389-5.264c0-1.919-0.185-3.71-0.554-5.372c-0.664-3.065-1.881-5.374-3.653-6.925
		c-3.615-3.175-10.439-5.853-20.475-8.032c-3.467-0.663-6.714-1.199-9.738-1.604c-2.614-0.284-6.598-0.625-11.953-1.026
		c-0.918-0.058-1.877-0.123-2.877-0.194c-2.767-0.22-6.235-0.423-10.403-0.608c-0.701-0.038-1.384-0.074-2.048-0.111
		c-3.284-0.148-6.162-0.24-8.633-0.277c-11.473-0.222-19.257,0.184-23.352,1.218c-2.25,0.591-3.965,1.422-5.147,2.494
		c-1.105,1.033-1.917,2.437-2.434,4.21c-0.333,1.181-0.516,2.251-0.553,3.211c-0.037,1.034,0.054,2.806,0.276,5.318
		c0.258,2.437,0.664,5.003,1.217,7.698c0.554,2.586,1.254,5.264,2.104,8.032c0.22,0.776,0.46,1.552,0.718,2.325
		c1.587,4.803,3.432,9.25,5.535,13.351c1.475,2.845,2.97,5.264,4.482,7.256c0.221,0.294,0.479,0.608,0.774,0.942
		c0.222,0.296,0.462,0.591,0.72,0.886c1.144,1.404,2.489,2.824,4.039,4.264c2.066,1.849,4.187,3.344,6.363,4.488
		c0.961,0.554,2.104,1.089,3.433,1.606c1.548,0.628,3.356,1.257,5.422,1.884c1.845,0.555,3.524,1.033,5.036,1.439
		c2.324,0.554,4.334,0.959,6.031,1.218C75.473,199.261,78.573,199.435,82.518,199.502z M139.459,132.893
		c1.992,0.333,4.556,0.536,7.691,0.61c3.173,0.11,5.534,0.091,7.084-0.056c1.621-0.148,4.443-0.628,8.466-1.44
		c10.92-2.143,23.058-4.099,36.41-5.872c9.484-1.256,15.033-2.012,16.656-2.271c1.033-0.147,1.551-0.258,1.551-0.332h-1.054
		c-3.244-0.11-10.437,0.646-21.578,2.271c-11.144,1.662-21.472,3.471-30.992,5.428c-6.344,1.33-11.563,1.939-15.658,1.828
		c-4.095-0.11-9.555-0.979-16.379-2.603c-11.401-2.697-21.766-4.783-31.1-6.26c-6.06-0.982-12.073-1.769-18.04-2.354
		c-3.222-0.328-6.433-0.596-9.628-0.803c-1.956-0.112-3.855-0.203-5.7-0.276c-2.731-0.111-5.386-0.167-7.968-0.167
		c-2.951,0-4.557,0.037-4.815,0.111c-0.295,0.074,0.426,0.186,2.159,0.333c1.771,0.185,5.311,0.425,10.624,0.72
		c1.107,0.073,2.269,0.147,3.485,0.221c4.244,0.231,8.192,0.49,11.843,0.776c6.253,0.492,11.641,1.064,16.158,1.717
		c7.156,1.034,16.84,2.991,29.052,5.871C133.52,131.712,137.431,132.561,139.459,132.893z"/>
	<path fill-rule="evenodd" clip-rule="evenodd" fill="#DE1818" d="M271.438,136.051c-1.512-3.803-6.587-6.204-15.218-7.201
		c-3.282-0.406-9.298-0.536-18.04-0.388c-0.369,0-0.739,0.018-1.107,0.056c-4.515,0.106-8.791,0.253-12.837,0.443v72.866
		c2.208-0.209,4.405-0.515,6.585-0.914c2.62-0.48,5.072-1.068,7.359-1.771c4.462-1.332,8.394-3.101,11.788-5.319
		c3.577-2.327,6.806-5.575,9.683-9.748c0.185-0.295,0.387-0.59,0.607-0.886c2.953-4.507,5.496-10.008,7.638-16.505
		c0.554-1.663,1.051-3.345,1.494-5.044c0.884-3.396,1.585-6.849,2.103-10.357c0.11-0.812,0.223-1.642,0.331-2.492
		C272.489,142.697,272.357,138.451,271.438,136.051z"/>
	<path fill-rule="evenodd" clip-rule="evenodd" fill="#3D9348" d="M82.518,128.323v71.179c-3.945-0.067-7.045-0.241-9.297-0.528
		c-1.697-0.259-3.708-0.664-6.031-1.218c-1.512-0.406-3.191-0.885-5.036-1.439c-2.065-0.627-3.874-1.256-5.422-1.884
		c-1.328-0.518-2.472-1.053-3.433-1.606c-2.176-1.145-4.296-2.64-6.363-4.488c-1.55-1.439-2.896-2.859-4.039-4.264
		c-0.258-0.295-0.498-0.59-0.72-0.886c-0.295-0.334-0.553-0.648-0.774-0.942c-1.512-1.992-3.007-4.411-4.482-7.256
		c-2.103-4.101-3.948-8.548-5.535-13.351c-0.257-0.773-0.498-1.549-0.718-2.325c-0.849-2.769-1.55-5.446-2.104-8.032
		c-0.554-2.695-0.959-5.261-1.217-7.698c-0.222-2.512-0.313-4.284-0.276-5.318c0.037-0.96,0.22-2.031,0.553-3.211
		c0.517-1.773,1.328-3.177,2.434-4.21c1.182-1.071,2.897-1.903,5.147-2.494c4.094-1.034,11.878-1.439,23.352-1.218
		c2.471,0.037,5.349,0.129,8.633,0.277c0.664,0.037,1.347,0.073,2.048,0.111c4.167,0.185,7.636,0.388,10.403,0.608
		C80.641,128.2,81.6,128.265,82.518,128.323z"/>
	<path fill-rule="evenodd" clip-rule="evenodd" fill="#FFFFFF" d="M224.235,201.827c-5.53,0.541-11.158,0.495-16.88-0.137
		c-3.246-0.373-6.141-0.89-8.686-1.554c-2.584-0.737-5.072-1.698-7.47-2.88c-2.842-1.327-5.664-3.378-8.468-6.147
		c-2.324-2.326-4.187-4.672-5.59-7.035c-0.185-0.295-0.348-0.59-0.497-0.886c-0.146-0.223-0.277-0.443-0.386-0.666
		c-1.921-3.617-3.522-7.735-4.816-12.352c-0.737-2.732-1.348-5.575-1.825-8.531c-0.332-2.103-0.628-4.265-0.886-6.479
		c-0.147-1.367-0.221-2.659-0.221-3.879c0-2.252,0.221-4.228,0.663-5.927c0.774-2.51,2.141-4.541,4.093-6.092
		c2.805-2.105,7.694-4.025,14.666-5.76c6.973-1.7,14.997-2.955,24.07-3.768c3.807-0.306,7.884-0.565,12.231-0.774v27.805v5.844
		v0.858v10.912V201.827z M82.518,199.502v-71.179c5.355,0.4,9.339,0.742,11.953,1.026c3.024,0.406,6.271,0.941,9.738,1.604
		c10.036,2.179,16.859,4.857,20.475,8.032c1.771,1.551,2.989,3.86,3.653,6.925c0.369,1.661,0.554,3.453,0.554,5.372
		c0,1.663-0.13,3.417-0.389,5.264c-0.257,1.771-0.515,3.471-0.774,5.094c-1.623,8.975-3.966,16.157-7.028,21.549
		c-0.185,0.296-0.349,0.591-0.498,0.886c-0.295,0.444-0.571,0.867-0.83,1.273c-0.478,0.738-0.996,1.44-1.549,2.105
		c-4.243,5.28-9.997,8.938-17.265,10.966c-1.734,0.48-3.413,0.777-5.036,0.887c-1.586,0.148-4.685,0.223-9.296,0.223
		C84.917,199.528,83.681,199.519,82.518,199.502z"/>
</g>
</svg>
