<?xml version="1.0" encoding="utf-8"?>
<!-- Generator: Adobe Illustrator 16.0.0, SVG Export Plug-In . SVG Version: 6.00 Build 0)  -->
<!DOCTYPE svg PUBLIC "-//W3C//DTD SVG 1.1//EN" "http://www.w3.org/Graphics/SVG/1.1/DTD/svg11.dtd">
<svg version="1.1" id="Layer_1" xmlns="http://www.w3.org/2000/svg" xmlns:xlink="http://www.w3.org/1999/xlink" x="0px" y="0px"
	 width="300px" height="300px" viewBox="0 0 300 300" enable-background="new 0 0 300 300" xml:space="preserve">
<g>
	<path fill-rule="evenodd" clip-rule="evenodd" fill="#C60A09" d="M278.931,88.558c-1.043,4.138-2.117,8.217-3.221,12.231
		c-0.796,2.966-1.624,5.932-2.482,8.897c-6.682,23.168-14.192,44.422-22.532,63.76c-3.188,7.289-6.496,14.333-9.929,21.129
		c-1.718,3.398-3.465,6.734-5.243,10.009c-4.722,8.464-9.596,16.497-14.62,24.095c-2.455,3.521-4.905,6.982-7.358,10.38
		c-3.556,4.694-7.143,9.176-10.759,13.438c-8.891,10.442-18.331,19.678-28.325,27.709c-5.763,4.634-11.74,8.865-17.931,12.695
		c-2.946,1.793-5.917,3.492-8.922,5.099c3.066-7.043,6.041-14.181,8.922-21.408c6.436-15.94,12.414-32.064,17.931-48.376
		c1.963-5.869,3.864-11.77,5.703-17.699c0.612-1.979,1.256-3.954,1.93-5.933c1.962-6.488,3.892-13.036,5.795-19.646
		c0.673-2.471,1.35-4.913,2.022-7.318c0.366-1.363,0.767-2.753,1.194-4.173c5.642-20.883,10.638-42.136,14.988-63.76
		c0.554-2.965,1.137-5.931,1.749-8.897c0.797-4.202,1.565-8.402,2.299-12.603c1.165-6.301,2.269-12.634,3.311-18.999
		c0.676-4.386,1.317-8.743,1.934-13.067c0.856-6.054,1.716-12.079,2.571-18.071c0.247-1.977,0.491-3.923,0.737-5.839
		c0.368-3.151,0.768-6.302,1.194-9.452L285,62.423c-0.491,2.287-0.981,4.541-1.472,6.765
		C282.058,75.737,280.523,82.193,278.931,88.558z"/>
	<path fill-rule="evenodd" clip-rule="evenodd" fill="#FFFFFF" d="M201.314,32.211c-0.306,1.173-0.645,2.349-1.013,3.522
		c-0.121,0.495-0.275,0.958-0.46,1.391c-0.92,2.655-2.176,5.282-3.77,7.876l-38.899-13.715c-2.022,1.668-4.321,2.471-6.897,2.409
		c-2.208,0-4.139-0.618-5.793-1.854l-40.188,12.326c-1.594-2.78-2.912-5.499-3.954-8.155c-0.245-0.619-0.46-1.236-0.644-1.854
		C96.018,22.913,97.765,12.194,104.938,2l39.82,12.975c1.716-1.236,3.617-1.793,5.701-1.669c2.881,0.124,5.181,1.05,6.897,2.78
		l39.177-13.251C201.804,13.028,203.396,22.821,201.314,32.211z"/>
	<path fill-rule="evenodd" clip-rule="evenodd" fill="#3D9348" d="M81.396,34.25c2.575,21.068,5.854,41.734,9.84,62
		c0.062,0.432,0.123,0.895,0.184,1.39c0.245,1.05,0.46,2.101,0.644,3.15c0.613,2.966,1.257,5.932,1.931,8.897
		c0.306,1.669,0.644,3.336,1.012,5.005c4.353,19.956,9.38,39.54,15.082,58.755c0.123,0.309,0.215,0.618,0.276,0.927
		c3.004,10.196,6.223,20.263,9.656,30.211c4.537,13.346,9.442,26.474,14.714,39.385c3.924,9.64,8.032,19.216,12.323,28.729
		c-4.23-2.099-8.337-4.385-12.323-6.855c-24.216-14.704-45.245-35.123-63.085-61.258c-5.089-7.415-9.932-15.32-14.53-23.723
		c-1.349-2.474-2.637-4.942-3.863-7.415c-0.614-1.174-1.227-2.349-1.839-3.521c-3.556-7.23-6.958-14.768-10.207-22.614
		c-4.905-11.8-9.35-24.28-13.334-37.439c0-0.062,0-0.124,0-0.186c-0.919-2.904-1.809-5.87-2.667-8.897
		C21.407,87.754,18.004,74.038,15,59.644l64.925-38.274C80.415,25.693,80.905,29.988,81.396,34.25z"/>
</g>
</svg>
