<?xml version="1.0" encoding="utf-8"?>
<!-- Generator: Adobe Illustrator 16.0.0, SVG Export Plug-In . SVG Version: 6.00 Build 0)  -->
<!DOCTYPE svg PUBLIC "-//W3C//DTD SVG 1.1//EN" "http://www.w3.org/Graphics/SVG/1.1/DTD/svg11.dtd">
<svg version="1.1" id="Layer_1" xmlns="http://www.w3.org/2000/svg" xmlns:xlink="http://www.w3.org/1999/xlink" x="0px" y="0px"
	 width="300px" height="300px" viewBox="0 0 300 300" enable-background="new 0 0 300 300" xml:space="preserve">
<g>
	<path fill-rule="evenodd" clip-rule="evenodd" fill="#FFFFFF" d="M274.637,87.957c-3.237-0.604-6.491-1.156-9.764-1.654
		c-10.494-1.707-21.096-2.881-31.803-3.521c-23.799-1.459-48.023-0.356-72.675,3.308v-14.46c1.244-0.143,2.205-0.284,2.881-0.427
		c0.392,0,0.748-0.035,1.066-0.106c1.104-0.214,2.563-0.391,4.376-0.534c1.671-0.106,3.664-0.178,5.978-0.214
		c4.729-0.035,8.59,0.143,11.578,0.534c1.103,0.143,2.08,0.214,2.936,0.214c0.888,0,1.334-0.071,1.334-0.214
		c0.035-0.213-0.196-0.391-0.694-0.534c-0.64-0.249-1.334-0.426-2.08-0.533c-0.145-0.036-0.321-0.053-0.534-0.053
		c-1.674-0.106-5.817-0.196-12.433-0.267c-2.135-0.035-4.127-0.053-5.976-0.053c-2.1-0.035-3.844-0.071-5.23-0.107
		c-1.246,0.107-2.313,0.178-3.201,0.213c-0.18,0-0.338,0-0.481,0c-0.711,0.036-1.084,0.036-1.119,0
		c-0.106-0.106,0.106-0.213,0.64-0.32c0.498-0.214,0.746-0.355,0.746-0.427c-0.106-0.106-0.479-0.267-1.119-0.479
		c-0.356-0.107,0.088-0.231,1.334-0.374c0.213,0,0.463-0.018,0.746-0.053c0.784-0.036,1.655-0.124,2.616-0.267
		c1.351-0.071,2.935-0.178,4.748-0.32c0.213,0,0.427,0,0.64,0c5.728-0.249,10.743-0.302,15.047-0.16
		c4.555,0.107,6.563,0.374,6.03,0.8c-0.248,0.284,3.61,0.89,11.578,1.814c1.139,0.143,2.385,0.302,3.735,0.48
		c10.424,1.138,17.094,1.689,20.01,1.654c1.459-0.036,2.26-0.053,2.401-0.053c0.144-0.071-0.283-0.178-1.28-0.32
		c-0.568-0.107-1.404-0.339-2.507-0.694c-0.926-0.284-1.832-0.604-2.723-0.961c-0.07-0.035-0.142-0.071-0.212-0.106
		c-0.678-0.32-1.495-0.569-2.456-0.748c-0.996-0.249-1.832-0.391-2.507-0.426c-1.067,0.036-1.69-0.018-1.868-0.16
		c-0.25-0.143-0.195-0.48,0.161-1.014c0.283-0.426,0.354-0.711,0.212-0.854c-0.07-0.143-0.604-0.214-1.601-0.214l-1.174,0.053
		c-0.177-0.177,0.055-0.337,0.694-0.479c0.534-0.213,0.782-0.356,0.746-0.427c0.036-0.071-0.283-0.16-0.961-0.267
		c-0.425-0.036-0.816,0-1.173,0.106c-0.284,0.107-0.444,0.267-0.479,0.48c-0.106,0.533-1.975,0.729-5.603,0.586
		c-3.7-0.212-5.622-0.551-5.764-1.013c-0.071-0.214-0.479-0.41-1.228-0.588c-0.676-0.285-1.476-0.479-2.401-0.587
		c-1.992-0.285-3.218-0.604-3.681-0.96c-0.463-0.427,0.318-0.533,2.347-0.321c1.353,0.178,5.513,0.551,12.487,1.122
		c4.054,0.426,6.562,0.622,7.522,0.586c0.961,0.036,0.996-0.143,0.106-0.534c-0.959-0.462-1.138-0.694-0.534-0.694
		c0.678-0.071,2.546,0,5.604,0.213c4.377,0.428,8.84,1.067,13.394,1.921c0.534,0.071,1.049,0.178,1.547,0.32
		c0.926,0.143,1.851,0.321,2.776,0.534c5.976,1.352,13.231,3.38,21.769,6.083c2.028,0.676,3.932,1.333,5.711,1.975
		c2.062,0.711,4.002,1.44,5.815,2.188c3.485,1.423,3.877,1.814,1.174,1.173c-1.813-0.533-2.739-0.551-2.774-0.053
		c-0.177,0.462,0.604,1.156,2.347,2.081c1.032,0.604,2.118,1.227,3.256,1.868c2.276,1.281,4.713,2.668,7.311,4.161
		c3.877,2.242,5.744,3.397,5.603,3.469c-0.142,0.107-1.69-0.462-4.642-1.708c-2.846-1.103-4.606-1.707-5.282-1.814
		c-0.642-0.071-0.517,0.32,0.373,1.175c0.64,0.675,0.729,0.942,0.267,0.8c-0.356-0.072-1.565-0.498-3.629-1.281
		c-0.356-0.107-0.729-0.249-1.121-0.427c-1.565-0.604-3.058-1.138-4.481-1.601c-1.317-0.498-2.188-0.729-2.613-0.693
		c-0.393-0.037-0.125,0.213,0.8,0.746c0.853,0.463,2.151,1.05,3.894,1.761C272.271,86.801,273.428,87.353,274.637,87.957z
		 M240.274,82.568c-1.707-0.178-2.081-0.124-1.122,0.161c0.926,0.355,1.745,0.479,2.456,0.373
		C242.318,82.958,241.875,82.781,240.274,82.568z M219.357,65.599c-1.707-0.142-2.099-0.071-1.174,0.214
		c1.067,0.32,1.938,0.427,2.614,0.32C221.474,66.026,220.994,65.848,219.357,65.599z M206.497,67.094
		c0.321-0.036,0.961,0.018,1.922,0.16c0.996,0.106,1.688,0.23,2.08,0.373c0.321,0.071,0.267,0.143-0.16,0.214
		c-1.032,0.036-2.205-0.143-3.521-0.534C206.32,67.2,206.214,67.129,206.497,67.094z M241.396,100.176
		c14.69,3.806,21.164,5.799,19.422,5.976c-0.498,0-0.765,0.054-0.801,0.16c-0.035,0.071,0.125,0.231,0.479,0.48
		c0.678,0.391,0.071,0.729-1.813,1.014c-1.244,0.142-2.562,0.142-3.947,0c-1.389-0.213-3.825-0.8-7.313-1.761
		c-5.121-1.316-8.855-2.134-11.205-2.454c-1.279-0.214-2.33-0.285-3.147-0.214c-0.64,0.036-1.156,0.161-1.547,0.373
		c-0.356,0.249-0.818,0.427-1.388,0.534c-0.676,0.072-1.317,0.072-1.922,0c-0.498-0.071-1.031-0.071-1.601,0
		c-0.39,0-0.711,0.107-0.959,0.321c-0.179,0.142-0.054,0.302,0.373,0.479c0.463,0.178,1.174,0.321,2.135,0.427
		c1.386,0.214,3.022,0.587,4.908,1.121c0.711,0.143,1.476,0.356,2.295,0.641l4.054,1.28l-4.427-0.159
		c-0.571-0.036-1.211-0.071-1.922-0.107c-2.738-0.212-6.653-0.64-11.739-1.28c-5.193-0.641-7.701-0.8-7.524-0.48
		c0.286,0.426,3.256,1.263,8.913,2.507c2.025,0.463,3.771,0.926,5.228,1.387c1.636,0.427,2.597,0.765,2.883,1.014
		c0.283,0.178,1.031,0.463,2.24,0.854c1.067,0.285,2.508,0.623,4.323,1.014c1.636,0.32,3.591,0.8,5.869,1.441
		c2.418,0.71,4.588,1.387,6.51,2.027c2.17,0.818,4.002,1.53,5.496,2.134c-4.269-0.569-8.537-1.032-12.806-1.387l-2.401-0.64
		l0.64,0.426c-2.562-0.214-5.104-0.391-7.631-0.534c-23.905-1.53-48.13-0.658-72.675,2.615v-18.089
		c24.225-2.384,48.45-2.935,72.675-1.654C235.845,99.786,238.619,99.963,241.396,100.176z M234.992,133.473
		c9.461,2.348,14.887,4.144,16.274,5.389l0.053,0.053c0.462,0.356,0.978,0.694,1.548,1.014c0.604,0.32,1.084,0.498,1.44,0.534
		c0.782,0.106,2.562,0.871,5.336,2.294c2.881,1.423,3.787,1.957,2.721,1.601c-1.067-0.392-2.846-0.837-5.336-1.334l-3.469-0.908
		l4.535,2.508c3.167,1.813,4.857,2.881,5.069,3.202c0.215,0.32-0.959,0.071-3.521-0.747l-4.322-1.441l1.121,1.708
		c0.427,0.463,0.853,0.854,1.279,1.173c0.499,0.356,0.907,0.552,1.229,0.587c0.746,0.107,1.654,0.57,2.722,1.389
		c0.283,0.426,0.994,0.959,2.135,1.601c0.64,0.319,1.279,0.64,1.919,0.96h-3.787c-0.961-0.392-1.867-0.748-2.722-1.067
		c-2.526-0.96-5.976-1.921-10.352-2.882c-4.197-0.96-6.315-1.262-6.351-0.907c-0.071,0.355,0.16,0.569,0.694,0.64
		c0.463,0.107,2.507,0.979,6.136,2.614l3.414,1.602h-4.002l-7.255-1.067c-3.522-0.569-6.528-1.015-9.02-1.334
		c-2.347-0.32-3.359-0.373-3.041-0.159c0.215,0.07,0.373,0.229,0.481,0.479c0.106,0.214,0.071,0.41-0.108,0.588
		c-0.318,0.462,0.125,0.96,1.334,1.494h-70.753V134.54c26.751-1.744,50.975-2.134,72.675-1.175
		C233.71,133.365,234.351,133.402,234.992,133.473z M279.6,194.729c-3.096-1.956-4.625-3.13-4.588-3.521
		c0.035-0.319,1.688,0.445,4.961,2.295c0.854,0.427,1.655,0.836,2.401,1.227H279.6z M267.221,175.841h2.774
		c3.841,1.991,7.168,3.823,9.978,5.495c3.237,1.957,4.002,2.633,2.295,2.028c-1.424-0.499-4.928-2.206-10.512-5.123
		C270.19,177.387,268.68,176.587,267.221,175.841z M258.043,175.841c2.774,1.244,6.207,2.862,10.299,4.855
		c8.323,4.161,13.035,6.758,14.141,7.79c0.283,0.284,0.158,0.319-0.376,0.106c-0.462-0.213-1.263-0.604-2.4-1.174
		c-1.103-0.64-2.08-1.174-2.936-1.601c-0.958-0.355-1.476-0.48-1.546-0.373c-0.213,0.106-0.588,0.07-1.122-0.107
		c-0.425-0.178-0.871-0.427-1.334-0.747c-1.208-0.711-4.32-2.045-9.338-4.002c-1.99-0.854-4.124-1.743-6.402-2.668
		c-1.885-0.89-3.325-1.583-4.321-2.08H258.043z M274.637,194.729h-4.16c-0.749-0.284-1.584-0.604-2.51-0.96
		c-0.924-0.355-0.551-0.035,1.121,0.96h-5.869c-1.637-0.604-2.954-0.96-3.948-1.067c-2.172-0.177-3.256-0.23-3.256-0.159
		c0,0.035,0.782,0.445,2.348,1.227h-15.954c-0.427-0.391-0.533-0.781-0.321-1.173c0.18-0.25,0.286-0.517,0.321-0.801
		c0-0.249-0.09-0.373-0.267-0.373c-0.498-0.036-4.43-0.979-11.793-2.828c-6.616-1.53-12.344-2.739-17.182-3.629
		c-4.731-0.854-8.181-1.263-10.351-1.227c-1.282-0.036-1.975,0-2.083,0.105c-0.142,0.071,0.231,0.161,1.122,0.268
		c1.388,0.249,2.455,0.604,3.201,1.066c0.676,0.428,0.588,0.677-0.267,0.748c-0.926,0.178-2.26,0.16-4.002-0.054
		c-0.533-0.107-1.228-0.143-2.08-0.107c-0.678,0.037-1.211,0.09-1.601,0.161c-0.891,0.319,1.759,0.906,7.949,1.761
		c9.319,1.244,17.573,3.272,24.758,6.082h-13.979c-4.41-0.818-8.608-1.493-12.592-2.026l-9.071-1.067l9.605,2.188
		c1.351,0.284,2.63,0.587,3.841,0.906c-44.432-3.806-94.037-3.806-148.819,0c0.25-0.07,0.302-0.159,0.16-0.267
		c-0.285-0.142-1.049-0.391-2.294-0.746l-3.255-0.801l3.042-1.494c0.818-0.463,1.423-0.854,1.814-1.174
		c0.427-0.32,0.498-0.498,0.213-0.533c-0.142-0.036-0.302-0.16-0.48-0.374c-0.213-0.214-0.302-0.427-0.267-0.64
		c0.071-0.604-0.694-1.032-2.294-1.281c-1.174-0.179-1.761-0.303-1.761-0.373c0.142-0.143,0.961-0.321,2.455-0.533
		c0.996-0.179,1.654-0.339,1.975-0.48c0.534-0.179,0.622-0.375,0.267-0.587c-0.32-0.179,0.302-0.393,1.868-0.642
		c1.601-0.249,3.646-0.498,6.136-0.747c5.976-0.497,8.982-0.854,9.018-1.067c0.036-0.07-0.693-0.212-2.188-0.426
		c-1.53-0.179-3.361-0.392-5.496-0.641c-3.806-0.32-7.612-0.517-11.419-0.587c-3.877-0.071-11.988-0.106-24.332-0.106
		c-7.826,0-13.464-0.09-16.915-0.267c-3.451-0.179-5.283-0.463-5.496-0.854c-0.142-0.179,0.409-0.304,1.654-0.374
		c1.245-0.106,2.757-0.16,4.535-0.16c4.589,0.142,7.826,0.106,9.712-0.107l2.828-0.319l-3.521-0.907
		c-1.565-0.32-2.241-0.498-2.028-0.533c0.391-0.072,2.152-0.055,5.283,0.053l12.272,0.16c3.628,0.107,7.488,0,11.579-0.32
		c4.126-0.355,6.901-0.801,8.324-1.334c0.321-0.106,1.05-0.249,2.188-0.426l0.267-0.027c65.464-5.382,126.988-5.373,184.57,0.027
		c1.173,0.817,3.966,2.347,8.377,4.588c5.799,2.668,8.556,4.091,8.271,4.27c-0.106,0.142-1.192-0.268-3.254-1.229
		c-2.063-0.817-3.113-1.12-3.149-0.906c0,0.142,1.016,0.747,3.041,1.814c2.385,1.279,3.149,1.778,2.295,1.493
		c-0.925-0.319-3.236-1.334-6.937-3.041c-1.92-0.818-3.699-1.529-5.336-2.134c-1.778-0.712-2.899-1.104-3.362-1.175
		c-1.565-0.178-1.955,0-1.173,0.533c0.783,0.498,2.543,1.228,5.283,2.188c4.517,1.707,9.853,4.305,16.008,7.791
		C271.01,192.168,273.463,193.733,274.637,194.729z M188.249,62.985c-0.819,0.071-1.585-0.037-2.295-0.321
		c-0.534-0.25-0.142-0.285,1.173-0.106C188.551,62.771,188.924,62.914,188.249,62.985z"/>
	<path fill-rule="evenodd" clip-rule="evenodd" fill="#CD2027" d="M160.396,101.297V86.089c24.651-3.665,48.876-4.767,72.675-3.308
		c10.707,0.64,21.309,1.814,31.803,3.521c3.272,0.499,6.526,1.05,9.764,1.654l0.054,0.053c0.569,0.284,1.157,0.587,1.762,0.908
		c1.884,1.032,3.324,1.903,4.32,2.615c2.35,1.813,3.504,2.774,3.469,2.88c0.108,0.143-0.853-0.32-2.881-1.387
		c-2.918-1.458-4.429-2.027-4.535-1.707c-0.071,0.214,1.334,1.103,4.215,2.668c3.166,1.743,5.515,3.166,7.045,4.269
		c0.106,0.106,0.229,0.213,0.373,0.32c1.174,0.818,1.369,1.138,0.586,0.961c-0.106-0.037-0.303-0.09-0.586-0.161
		c-0.569-0.178-1.565-0.534-2.989-1.067c-2.099-0.854-4.394-1.832-6.882-2.935c-1.282-0.604-2.581-1.156-3.896-1.654
		c-3.13-1.352-6.402-2.65-9.817-3.896c-2.242-0.818-4.535-1.601-6.884-2.348c-7.506-2.561-11.952-3.735-13.34-3.521
		c-0.284,0.035-0.409,0.107-0.373,0.213c0.142,0.036,0.408,0.124,0.8,0.267c0.428,0.071,0.801,0.143,1.121,0.213
		c0.248,0.177,0.354,0.355,0.319,0.534c-0.035,0.285,2.045,1.352,6.242,3.202c4.128,1.885,8.112,3.486,11.954,4.802
		c0.071,0,0.123,0.018,0.16,0.053c1.528,0.569,3.006,1.245,4.428,2.028c1.459,0.675,2.49,1.262,3.095,1.76
		c0.569,0.569,1.334,1.192,2.295,1.868c0.926,0.676,2.028,1.387,3.309,2.134c2.988,1.672,3.859,2.366,2.615,2.082
		c-1.067-0.178-3.043-0.907-5.924-2.188c-0.746-0.356-1.546-0.729-2.4-1.121c-3.842-1.779-6.313-2.881-7.417-3.309
		c-0.072-0.035-0.144-0.071-0.214-0.106c-0.926-0.356-0.853-0.09,0.214,0.8c0,0.036,0.018,0.053,0.053,0.053
		c1.173,0.889,1.317,1.191,0.427,0.907c-0.177-0.036-0.337-0.053-0.479-0.053c-0.818-0.106-1.601-0.106-2.349,0
		c-0.319,0.035-1.494-0.196-3.521-0.693c-2.028-0.57-4.252-1.281-6.67-2.135c-5.088-1.743-8.733-2.793-10.938-3.148
		c-1.709-0.356-4.483-0.659-8.325-0.908c-1.244-0.106-2.613-0.195-4.108-0.267c-4.838-0.212-7.043-0.142-6.617,0.213
		c0.463,0.32,3.683,1.067,9.658,2.242c0.356,0.071,0.711,0.159,1.067,0.267c1.459,0.32,2.81,0.64,4.057,0.96
		c1.457,0.427,2.275,0.765,2.453,1.014c0.177,0.214,0.675,0.552,1.494,1.014c0.961,0.534,1.993,1.032,3.096,1.494
		c2.668,1.067,3.877,1.672,3.629,1.814c-0.25,0.107-2.829-0.391-7.737-1.494c-2.883-0.641-5.213-1.157-6.991-1.547
		c-2.738-0.534-4.072-0.694-4.002-0.48c0,0.284,1.334,0.8,4.002,1.547c1.885,0.498,4.394,1.156,7.524,1.974
		c0.284,0.035,0.551,0.107,0.801,0.213c-2.776-0.213-5.551-0.391-8.325-0.534C208.846,98.362,184.62,98.913,160.396,101.297z
		 M160.396,134.54v-15.154c24.545-3.272,48.77-4.145,72.675-2.615c2.526,0.143,5.069,0.32,7.631,0.534l1.334,1.067
		c0.534,0.463,1.264,0.908,2.187,1.334c0.926,0.463,1.726,0.783,2.401,0.961l2.616,0.854l-3.523-0.213
		c-0.996-0.071-1.957-0.089-2.88-0.053c-0.891,0.106-1.514,0.196-1.868,0.267c-0.32,0.106-1.156,0.178-2.507,0.214
		c-1.141,0-2.475-0.053-4.002-0.161c-0.463-0.036-0.926-0.053-1.389-0.053c-0.89-0.035-1.726-0.053-2.507-0.053
		c-1.174-0.035-1.816,0.036-1.922,0.214c-0.534,0.426-0.178,1.227,1.066,2.401c0.997,0.995,2.118,1.76,3.362,2.293
		c0.213,0.071,0.444,0.143,0.694,0.214c1.884,0.64,4.5,1.21,7.844,1.707c1.314,0.178,2.828,0.463,4.535,0.854
		c1.636,0.426,2.989,0.836,4.056,1.227c1.885,0.676,2.596,1.014,2.135,1.014c-0.427-0.036-2.668-0.41-6.724-1.12
		c-4.944-0.89-7.773-1.192-8.483-0.908c-0.749,0.285,1.048,0.979,5.388,2.082c4.34,1.21,6.03,1.761,5.069,1.654
		c-1.067,0-4.092-0.604-9.071-1.813c-2.17-0.533-3.983-0.943-5.442-1.228c-2.385-0.534-3.681-0.783-3.896-0.747
		c-0.356,0.178,0.588,0.533,2.828,1.067c0.393,0.107,0.746,0.214,1.067,0.32c3.807,0.961,5.619,1.53,5.442,1.708
		c-0.142,0.106-1.957-0.107-5.442-0.641c-0.783-0.106-1.655-0.23-2.613-0.373l-10.833-1.814l8.432,2.134
		c1.777,0.427,3.449,0.854,5.015,1.281c0.356,0.071,0.711,0.161,1.067,0.267c0.321,0.035,0.604,0.106,0.854,0.213
		c-0.642-0.071-1.282-0.107-1.922-0.107C211.37,132.406,187.146,132.796,160.396,134.54z M242.463,117.518
		c4.269,0.355,8.537,0.818,12.806,1.387c0.676,0.249,1.297,0.498,1.868,0.747c1.707,0.818,2.097,1.191,1.173,1.121
		c-0.179-0.036-0.16,0.071,0.053,0.32c0.215,0.285,0.604,0.623,1.175,1.014c0.924,0.569,1.12,0.818,0.586,0.747
		c-0.533-0.035-2.365-0.604-5.496-1.707c-4.767-1.601-8.323-2.705-10.672-3.309L242.463,117.518z M279.6,194.729h2.774
		c2.17,1.14,3.789,2.153,4.856,3.042c1.494,1.067,1.777,1.548,0.854,1.44c-0.784-0.035-3.202-1.28-7.258-3.735
		C280.436,195.227,280.026,194.978,279.6,194.729z M265.726,153.056c0.604,0.319,1.209,0.604,1.815,0.854
		c0.995,0.462,1.991,0.979,2.987,1.547c1.992,1.067,4.002,2.277,6.03,3.629c3.236,1.992,5.976,3.913,8.216,5.763l3.684,3.042
		l-4.75-2.295c-1.315-0.604-2.453-1.244-3.414-1.921c-1.067-0.64-1.602-1.103-1.602-1.387c-0.177-0.604-2.651-2.17-7.416-4.696
		c-1.459-0.782-2.847-1.493-4.162-2.135c-1.887-0.924-3.612-1.725-5.176-2.4H265.726z M252.759,153.056l1.868,0.907l-5.87-0.907
		H252.759z M231.148,153.056c0.18,0.07,0.356,0.16,0.534,0.267c1.103,0.463,1.601,0.712,1.494,0.747
		c-0.142,0.071-1.084-0.035-2.828-0.32c-1.637-0.107-2.614-0.16-2.936-0.16c-0.318,0.107-0.248,0.338,0.215,0.694
		c0.284,0.319,0.924,0.675,1.92,1.067c0.071,0.035,0.144,0.07,0.215,0.105c0.853,0.356,1.761,0.624,2.72,0.801
		c2.598,0.677,4.465,1.263,5.603,1.762c0.784,0.319,1.122,0.516,1.016,0.586c0,0.036-0.446,0-1.334-0.105
		c-1.707-0.214-2.545-0.09-2.508,0.373c0.178,0.391,1.226,0.835,3.147,1.334c0.996,0.178,2.723,0.854,5.176,2.027
		c2.349,1.103,4.767,2.312,7.258,3.628c6.58,3.629,12.289,6.617,17.127,8.965c0.713,0.355,1.388,0.693,2.028,1.015h-2.774
		c-2.668-1.281-5.124-2.419-7.364-3.416c-3.449-1.459-7.808-3.005-13.073-4.643c-2.951-0.925-5.069-1.511-6.349-1.76
		c-1.389-0.214-3.308-0.303-5.764-0.268l-5.656,0.054l3.789,1.067c1.53,0.391,2.455,0.676,2.774,0.854
		c0.215,0.107,0,0.195-0.64,0.267c-1.245,0.178,0.302,0.8,4.642,1.867c3.699,0.891,7.701,2.011,12.006,3.362
		c1.424,0.463,3.574,1.334,6.457,2.615h-5.336c-0.07-0.037-0.144-0.055-0.215-0.055c-1.636-1.03-4.783-2.276-9.444-3.735
		c-4.66-1.528-7.255-2.152-7.789-1.867c-0.179,0.036-0.179,0.107,0,0.214c0.213,0.107,0.515,0.178,0.907,0.213
		c0.961,0.144,2.488,0.801,4.587,1.975c0.784,0.427,1.62,0.817,2.51,1.174c0.782,0.32,1.315,0.498,1.601,0.534
		c0.319,0.07,0.622,0.195,0.907,0.373c0.39,0.214,0.656,0.427,0.801,0.641c0.07,0.142,0.283,0.32,0.64,0.534
		c-57.582-5.4-119.105-5.409-184.57-0.027c0.662-0.071,1.445-0.169,2.348-0.294c2.597-0.427,5.407-0.783,8.431-1.067
		c3.13-0.249,5.869-0.497,8.217-0.746c2.312-0.321,3.558-0.57,3.735-0.747c0.462-0.463,0.125-0.569-1.014-0.32
		c-2.526,0.355-9.533,0.925-21.023,1.707c-11.348,0.854-19.174,1.334-23.478,1.44c-3.664,0.072-7.879,0-12.646-0.213
		c-4.696-0.107-7.168-0.267-7.417-0.48c-0.249-0.319,1.921-0.498,6.51-0.533c10.28-0.071,17.501-0.214,21.664-0.428
		c4.197-0.213,6.901-0.551,8.11-1.014c1.281-0.569,3.379-1.013,6.296-1.334c3.06-0.462,5.247-0.604,6.563-0.426
		c0.783,0.105,2.561-0.285,5.336-1.175c2.774-0.818,3.966-1.369,3.575-1.654c-0.107-0.177-1.779-0.302-5.016-0.373
		c-3.202-0.035-4.874-0.143-5.016-0.319c-0.178-0.179,1.316-1.032,4.482-2.563c2.241-1.103,4.109-1.902,5.603-2.4
		c0.569-0.214,1.05-0.392,1.441-0.534c2.846-0.712,5.034-1.601,6.563-2.668c1.565-1.031,1.316-1.423-0.747-1.173
		c-0.427,0.07-0.676,0.105-0.747,0.105c-0.178-0.07-0.178-0.143,0-0.213c0.569-0.355,0.213-0.854-1.067-1.494
		c-1.352-0.641-2.686-0.925-4.002-0.854c-1.992,0-2.437-0.194-1.334-0.587c0.036,0,0.071,0,0.107,0
		c1.067-0.391,3.095-0.747,6.083-1.066c1.388-0.214,2.437-0.392,3.148-0.534h73.049v-0.8H231.148z M58.799,194.729
		c54.783-3.806,104.388-3.806,148.819,0c4.731,1.14,8.217,2.206,10.457,3.202c2.813,1.174,2.919,1.85,0.321,2.027
		c-0.533,0.071-1.173,0.196-1.922,0.373c-0.604,0.249-1.138,0.48-1.601,0.694c-0.959,0.428-2.916,0.729-5.869,0.907
		c-2.881,0.178-5.353,0.107-7.416-0.213c-0.641-0.072-1.139-0.09-1.495-0.055c-0.356,0-0.463,0.055-0.318,0.161
		c0.354,0.284,3.964,1.067,10.83,2.348c6.653,1.281,10.922,2.241,12.806,2.882c0.961,0.391,1.282,0.604,0.961,0.64
		c-0.318,0-1.546-0.214-3.681-0.64c-2.349-0.428-3.397-0.588-3.149-0.48c0.321,0.178,2.33,0.801,6.03,1.867
		c2.205,0.676,4.873,1.37,8.004,2.082c2.989,0.675,5.513,1.208,7.576,1.601c4.696,0.746,8.022,1.404,9.98,1.974
		c2.205,0.64,4.925,1.689,8.162,3.148c3.31,1.528,4.946,2.437,4.91,2.721c-0.037,0.179-0.019,0.303,0.053,0.373
		c0.07,0.072,0.195,0.055,0.373-0.053c0.215-0.035,0.552,0.072,1.015,0.32c0.428,0.249,0.907,0.568,1.44,0.961
		c1.315,0.996,1.868,1.547,1.655,1.653c-0.073,0.072-2.562-0.8-7.471-2.614c-1.992-0.818-4.074-1.565-6.244-2.241
		c-2.348-0.712-4.125-1.155-5.336-1.334c-1.28-0.178-2.293-0.373-3.041-0.587c-0.853-0.213-1.229-0.355-1.12-0.427
		c0.178-0.179-1.263-0.516-4.322-1.015c-3.024-0.461-5.034-0.675-6.03-0.64c-1.209,0.071,1.051,1.281,6.776,3.629
		c4.946,2.063,10.121,4.446,15.528,7.149c5.407,2.775,7.933,4.304,7.576,4.59c-0.212,0.213,0.659,1.209,2.616,2.988
		c1.92,1.778,3.858,3.29,5.815,4.535c0.533,0.355,0.444,0.391-0.267,0.106c-0.569-0.214-1.62-0.64-3.147-1.281
		c-8.042-3.771-14.622-6.563-19.743-8.377c-5.088-1.814-11.278-3.574-18.569-5.282c-6.474-1.458-9.819-2.17-10.032-2.135
		c-0.25,0.143,3.807,1.477,12.167,4.002c8.964,2.597,15.295,4.589,18.994,5.977c3.735,1.315,7.274,2.846,10.62,4.589
		c3.771,1.921,5.14,2.703,4.108,2.348l-14.195-5.068c-3.021-0.997-5.316-1.602-6.882-1.814c-0.711-0.107-2.437-0.517-5.176-1.228
		c-2.812-0.712-5.763-1.529-8.858-2.455c-3.131-0.961-6.438-1.902-9.924-2.828c-3.416-0.925-5.942-1.529-7.578-1.813
		c-2.241-0.498-3.787-0.907-4.643-1.228c-0.816-0.284-1.103-0.533-0.853-0.747c0.106-0.249,0.391-0.409,0.853-0.48
		c0.463-0.106,0.978-0.178,1.549-0.213c0.534,0-0.108-0.125-1.922-0.374c-1.957-0.249-4.464-0.552-7.524-0.906
		c-3.166-0.32-5.94-0.569-8.322-0.748c-2.385-0.249-3.684-0.284-3.896-0.105c-0.251,0.105,0.55,0.354,2.4,0.746
		c1.885,0.498,4.233,1.049,7.043,1.654c6.76,1.423,12.913,2.936,18.464,4.536c2.986,0.781,4.731,1.298,5.229,1.546
		c0.496,0.179-0.09,0.125-1.762-0.159c-3.416-0.782-10.549-2.01-21.397-3.682c-6.58-0.996-11.543-1.707-14.887-2.135
		c-3.381-0.392-6.67-0.604-9.871-0.64c-8.325-0.107-18.161-0.055-29.508,0.159c-11.456,0.179-20.543,0.516-27.268,1.015
		l-21.023,1.439c-1.992,0.107-3.788,0.179-5.389,0.214c-1.565,0.035-2.49,0-2.775-0.106c-0.676-0.284,1.423-0.836,6.296-1.653
		c4.837-0.961,9.48-1.62,13.927-1.976c5.158-0.533,11.597-0.995,19.316-1.387l11.099-0.587l-4.216-0.961
		c-2.774-0.782-5.496-1.12-8.164-1.014c-2.668,0.071-4.108,0.019-4.322-0.159c-0.249-0.25,2.829-0.623,9.232-1.121
		c6.403-0.463,11.49-0.658,15.26-0.588c5.229,0,10.565-0.124,16.008-0.373c5.976-0.319,11.81-0.337,17.502-0.053
		c5.764,0.249,7.772,0.64,6.03,1.174c-0.498,0.178-0.604,0.338-0.321,0.48c0.321,0.07,1.086,0.195,2.295,0.373
		c1.032,0.107,1.778,0.143,2.24,0.107c0.534,0.035,0.749-0.054,0.641-0.268c-0.142-0.213,0.054-0.374,0.588-0.48
		c0.568-0.142,1.314-0.195,2.24-0.16c1.389,0,2.188-0.053,2.401-0.159c0.215-0.072,0.035-0.285-0.534-0.642
		c-0.533-0.248-1.601-0.498-3.201-0.746c-1.494-0.213-3.343-0.444-5.549-0.693c-2.027-0.106-3.966-0.32-5.817-0.641
		c-1.99-0.356-3.343-0.605-4.054-0.747c-3.629-1.316-11.651-1.726-24.065-1.228c-12.415,0.498-29.863,1.85-52.345,4.055
		c-11.668,1.14-19.139,1.762-22.411,1.868c-1.53,0.143-2.775,0.285-3.735,0.427c-1.067,0.142-1.53,0.303-1.388,0.48
		c0.391,0.534-1.833,0.854-6.67,0.96c-4.696,0.249-8.929,0.161-12.7-0.267c-4.98-0.533-9.036-0.604-12.166-0.213
		c-3.06,0.391-5.123,0.515-6.19,0.373c-1.067-0.105-3.521-0.319-7.364-0.64l-5.656-0.427l4.855-0.428
		c1.423-0.177,2.455-0.338,3.095-0.479c0.712-0.143,0.907-0.321,0.587-0.533c-0.392-0.107-0.036-0.231,1.067-0.374
		c1.032-0.106,2.49-0.195,4.375-0.268c1.85-0.07,3.54-0.159,5.069-0.267c1.601-0.214,2.65-0.391,3.148-0.533
		c0.641-0.391,0.872-0.622,0.693-0.693c-0.142-0.072-0.782-0.09-1.92-0.054c-3.237-0.036-6.208-0.106-8.911-0.213
		c-5.158-0.107-9.231-0.16-12.219-0.16c-3.308,0.035-6.741-0.161-10.299-0.587c-3.557-0.393-4.766-0.729-3.628-1.015
		c1.067-0.213,4.411-0.462,10.031-0.747c7.613-0.498,12.486-0.818,14.621-0.96c2.206-0.249,3.326-0.516,3.362-0.8
		c0-0.144-0.445-0.286-1.334-0.428s-1.975-0.284-3.255-0.427l-4.643-0.213l5.87-0.428c4.411-0.355,6.759-0.64,7.043-0.854
		c0.462-0.178-0.605-0.551-3.202-1.12l-4.802-1.014l10.138-1.868l-4.002-0.267c-2.881-0.071-3.931-0.231-3.148-0.48
		c0.782-0.284,3.077-0.516,6.883-0.694c10.245-0.426,14.745-1.066,13.5-1.92c-0.392-0.179-0.516-0.303-0.374-0.373
		c0.249-0.036,0.765-0.019,1.547,0.053c0.641,0.106,1.28,0.125,1.921,0.053c0.569-0.035,0.925-0.105,1.067-0.213
		c0.107-0.178,0.125-0.303,0.054-0.373c-0.142-0.071-0.445-0.089-0.907-0.054c-0.96,0.142-1.369-0.035-1.227-0.533
		c0.071-0.498,0.622-0.783,1.654-0.854C58.568,194.783,58.692,194.765,58.799,194.729z M260.284,201.025
		c0.392,0.214,0.587,0.409,0.587,0.587c0.071,0.107-0.019,0.143-0.267,0.107c-0.606-0.035-1.298-0.339-2.082-0.908
		c-0.319-0.213-0.533-0.373-0.64-0.48c-0.036-0.142,0.035-0.194,0.212-0.159C258.664,200.243,259.394,200.527,260.284,201.025z
		 M229.814,194.729c0.036,0.036,0.071,0.055,0.108,0.055c2.489,0.995,5.815,1.725,9.979,2.188c1.601,0.214,3.361,0.462,5.281,0.747
		c1.815,0.32,3.237,0.604,4.269,0.854c1.317,0.355,1.832,0.426,1.549,0.214c-0.321-0.144-1.584-0.694-3.789-1.655
		c-2.456-1.067-3.985-1.813-4.59-2.24c-0.106-0.036-0.178-0.089-0.213-0.161h15.954c0.996,0.498,2.295,1.157,3.896,1.976
		c3.451,1.671,6.155,3.112,8.11,4.321c2.063,1.209,3.06,2.028,2.988,2.454c0,0.107-0.177,0.179-0.533,0.214
		c-0.356,0-0.694-0.07-1.013-0.214c-0.854-0.355-0.463,0.036,1.173,1.175c2.348,1.529,3.112,2.17,2.295,1.921
		c-0.89-0.214-3.735-1.441-8.537-3.682c-1.282-0.604-2.651-1.192-4.11-1.762c-1.422-0.462-2.437-0.729-3.041-0.801
		c-3.379-0.426-5.086-0.533-5.121-0.319c-0.038,0.178,1.527,0.996,4.693,2.454c1.745,0.926,4.057,2.153,6.937,3.682
		c2.954,1.602,5.567,3.131,7.846,4.589c4.196,2.562,6.828,4.251,7.896,5.069c1.139,0.819,0.393,0.533-2.24-0.854
		c-0.782-0.426-1.762-0.836-2.935-1.227c-1.28-0.428-2.437-0.747-3.469-0.961c-1.067-0.179-2.613-0.622-4.642-1.334
		c-2.063-0.747-4.057-1.548-5.976-2.401c-4.198-1.885-7.917-3.521-11.154-4.908c-3.271-1.246-5.371-1.939-6.294-2.081
		c-0.784-0.107-1.051,0.178-0.801,0.854c0.071,0.319,0.071,0.516,0,0.586c-0.037,0.144-0.125,0.144-0.267,0
		c-0.498-0.284-3.647-1.014-9.446-2.188c-2.347-0.462-4.588-0.961-6.722-1.494c-2.028-0.569-3.346-0.96-3.95-1.174
		c-0.711-0.427-0.836-0.604-0.373-0.533c0.392,0,1.707,0.214,3.949,0.64c3.877,0.819,5.993,1.299,6.35,1.441
		c0.781,0.214,0.925,0.195,0.427-0.053c-0.179-0.036-0.302-0.144-0.373-0.321c0.036-0.177,0.123-0.338,0.267-0.479
		c0.534-0.427-2.918-1.441-10.353-3.042c-2.739-0.533-5.407-1.05-8.004-1.548H229.814z M242.035,201.025
		c-1.211-0.498-2.205-0.8-2.989-0.906c-0.392-0.072-0.585-0.072-0.585,0c0.106,0.177,0.425,0.355,0.958,0.533
		c0.997,0.534,1.993,0.871,2.989,1.013c0.392,0,0.569-0.035,0.534-0.105C242.8,201.453,242.498,201.274,242.035,201.025z
		 M274.637,194.729c0.748,0.605,0.944,0.996,0.588,1.175c-0.392,0.178-1.974-0.214-4.748-1.175H274.637z M269.088,194.729
		c0.248,0.143,0.534,0.321,0.854,0.534c2.489,1.529,4.606,2.935,6.35,4.215c1.742,1.246,2.562,1.921,2.455,2.028
		c-0.286,0.106-3.06-1.103-8.325-3.629c-2.845-1.423-5.246-2.472-7.203-3.148H269.088z M48.18,215.539
		c0.107-0.035,0.392-0.018,0.854,0.054c0.498,0,0.872,0.071,1.121,0.213c0.213,0.107,0.231,0.196,0.053,0.267
		c-0.178,0.035-0.427,0.035-0.747,0s-0.623-0.106-0.907-0.212C48.163,215.717,48.038,215.61,48.18,215.539z M52.77,197.344
		c-0.213,0.107-0.48,0.143-0.8,0.107c-0.32-0.036-0.605-0.125-0.854-0.267c-0.427-0.144-0.551-0.268-0.374-0.375
		c0.106,0,0.391,0,0.854,0c0.498,0.072,0.871,0.179,1.12,0.32C52.93,197.202,52.947,197.272,52.77,197.344z M181.1,200.545
		c0.711-0.106,0.229-0.284-1.442-0.533c-1.637-0.142-2.01-0.071-1.119,0.214C179.569,200.545,180.422,200.652,181.1,200.545z
		 M20.967,215.593c0.178-0.107,0.178-0.089,0,0.054c-0.071,0.106-0.213,0.194-0.427,0.267c-0.32,0.142-1.05,0.267-2.188,0.373
		c-1.138-0.035-2.383-0.089-3.735-0.159l-4.749-0.321L20.967,215.593z M18.246,221.089c0.462-0.106,0.195-0.231-0.8-0.373
		c-0.712-0.214-1.565-0.339-2.562-0.375c-1.032-0.035-1.921-0.035-2.668,0c-1.779,0.249-3.379,0.268-4.802,0.055
		c-0.961-0.143-1.495-0.321-1.601-0.533c0-0.144,0.337-0.463,1.013-0.961c0.463-0.428,1.05-0.766,1.761-1.015
		c0.819-0.249,1.565-0.338,2.241-0.267c30.06-0.426,45.178-0.498,45.355-0.214c0.356,0.249-7.399,0.659-23.264,1.228
		c-6.475,0.214-9.587,0.445-9.338,0.694c0.178,0.178,2.597,0.159,7.256-0.054c5.977-0.213,10.85-0.285,14.621-0.213
		c3.877,0.035,6.19,0.177,6.937,0.426c0.64,0.214,0.996,0.303,1.067,0.268c0-0.071-0.249-0.285-0.747-0.641
		c-0.534-0.355-0.765-0.551-0.693-0.586c0.142-0.036,0.586,0.053,1.334,0.267c0.996,0.319,2.686,0.391,5.069,0.212
		c2.206-0.142,7.204-0.586,14.994-1.334c5.123-0.568,8.875-0.8,11.259-0.692c2.312,0.035,4.34,0.426,6.083,1.173
		c0.711,0.32,0.854,0.569,0.427,0.748c-0.392,0.213-1.655,0.462-3.789,0.747c-5.727,0.96-15.457,2.026-29.188,3.201
		c-13.837,1.138-23.745,1.761-29.721,1.868c-4.482,0.07-10.05-0.375-16.702-1.334c-4.766-0.642-7.417-1.05-7.95-1.229
		c-0.605-0.142-0.035-0.319,1.708-0.533c2.028-0.179,5.016-0.32,8.964-0.426C16.574,221.124,17.819,221.089,18.246,221.089z"/>
	<path fill-rule="evenodd" clip-rule="evenodd" fill="#242E69" d="M160.396,119.386v15.154v18.516v0.8H87.346
		c0.32-0.07,0.551-0.142,0.694-0.214c0.569-0.142,0.516-0.354-0.16-0.64c-0.818-0.355-1.192-0.569-1.121-0.64
		c0.036,0,0.462,0,1.281,0c0.462,0.07,0.8,0.089,1.014,0.053c0.106-0.035,0.018-0.143-0.267-0.319
		c-0.391-0.072-1.174-0.125-2.348-0.161c-1.174-0.035-2.49-0.018-3.949,0.054l-8.697,0.533l1.868-0.8
		c0.711-0.249,1.121-0.444,1.227-0.587c0.107-0.071-0.089-0.179-0.587-0.32c-0.427-0.07-0.427-0.178,0-0.319
		c0.285-0.179,0.89-0.375,1.814-0.588c0.854-0.25,1.476-0.462,1.868-0.64c0.355-0.178,0.355-0.302,0-0.373
		c-0.32-0.107-0.32-0.196,0-0.267c0.285-0.213,0.8-0.41,1.547-0.588c0.96-0.212,1.565-0.408,1.814-0.586
		c0.285-0.142,0.195-0.302-0.267-0.48c-0.427-0.106-0.8-0.32-1.121-0.64c-0.355-0.213-0.604-0.462-0.747-0.747
		c-0.534-0.675-1.779-1.085-3.735-1.227c-2.063-0.107-5.691,0.071-10.885,0.534c-6.368,0.461-10.743,0.675-13.126,0.64
		c-2.774-0.071-3.7-0.373-2.774-0.907c0.96-0.534,3.451-1.067,7.47-1.601c9.143-1.388,13.678-2.188,13.606-2.401
		c0-0.284-4.536,0.018-13.606,0.907c-7.897,0.783-15.403,1.423-22.518,1.921c-4.34,0.249-7.311,0.356-8.911,0.32
		c-1.672-0.071-3.433-0.355-5.282-0.854c-2.668-0.711-3.433-1.032-2.294-0.96c1.352,0.142,8.484-0.054,21.397-0.588
		c13.09-0.569,21.023-1.013,23.798-1.334c1.352-0.106,2.348-0.267,2.988-0.479c0.641-0.107,0.694-0.231,0.16-0.375
		c-0.783-0.142-1.174-0.249-1.174-0.32c0.035-0.035,0.445-0.231,1.227-0.586c0.498-0.143,1.388-0.356,2.668-0.641
		c1.174-0.177,2.419-0.32,3.735-0.426c3.06-0.285,4.803-0.551,5.23-0.8c0.355-0.214-0.676-0.41-3.095-0.587
		c-1.708-0.072-2.774-0.161-3.202-0.267c-0.462-0.178-0.534-0.427-0.213-0.748c0.32-0.498,1.885-1.085,4.696-1.761
		c2.774-0.675,6.208-1.281,10.298-1.814c1.53-0.249,2.811-0.461,3.842-0.64c1.174,2.134,2.65,4.055,4.429,5.763
		c1.779,1.743,3.789,3.165,6.029,4.269c2.17,1.067,4.482,1.796,6.937,2.188c2.419,0.391,4.839,0.444,7.256,0.16
		c2.491-0.355,4.857-1.085,7.097-2.188c0.428-0.214,0.961-0.463,1.601-0.748c0.604-0.391,0.907-0.604,0.907-0.64l-0.32,0.053
		c-1.138,0.392-2.472,0.694-4.002,0.908c-1.564,0.142-3.005,0.159-4.322,0.053c-3.771-0.285-7.204-1.512-10.298-3.682
		c-3.166-2.134-5.567-4.873-7.203-8.218c-0.783-1.53-1.352-3.059-1.708-4.588c-0.391-1.601-0.586-3.255-0.586-4.963
		c0-1.245,0.106-2.419,0.32-3.521c0.142-1.067,0.427-2.188,0.854-3.361c0.925-2.668,2.313-5.052,4.163-7.15
		c3.877-0.214,6.794-0.267,8.751-0.161c1.53,0.107,4.802-0.018,9.817-0.373c4.447-0.32,6.991-0.587,7.631-0.8l0.694,2.561
		c0.96,3.522,1.44,5.318,1.44,5.39c0,0.035-0.018,0.053-0.053,0.053c-0.037,0-0.107-0.036-0.213-0.107
		c-0.177-0.142-1.868-1.031-5.069-2.668c-3.131-1.601-4.713-2.401-4.749-2.401l3.362,3.79c2.241,2.596,3.521,4.037,3.841,4.322
		c0.072,0.106,0.124,0.177,0.161,0.214c0.036,0.035,0.036,0.053,0,0.053c-0.037,0.036-0.979,0.018-2.829-0.053
		c-2.348-0.107-4.357-0.178-6.029-0.214l-2.455-0.107l5.229,2.242c1.423,0.604,2.65,1.121,3.682,1.548l1.493,0.693
		c-0.035,0.036-1.53,0.694-4.481,1.975c-2.953,1.244-4.749,1.991-5.39,2.241c-0.355,0.106-0.533,0.196-0.533,0.267l4.162-0.161
		c2.953-0.106,4.892-0.177,5.816-0.212l1.387-0.107c0,0.071-1.244,1.477-3.735,4.216c-0.996,1.173-1.867,2.169-2.615,2.988
		l-1.067,1.281c0.036,0,1.708-0.871,5.016-2.615c1.387-0.711,2.579-1.299,3.575-1.76c0.961-0.534,1.459-0.8,1.495-0.8
		c0,0.035-0.961,3.486-2.882,10.351l-0.106,0.427l0.213-0.267c0.213-0.249,1.334-1.725,3.361-4.429
		c1.779-2.419,2.775-3.735,2.988-3.948l0.267-0.321v0.055l1.067,5.336c0.641,3.557,0.961,5.371,0.961,5.442
		c0.035,0.178,0.125-0.088,0.267-0.8c0.106-0.712,0.409-2.277,0.907-4.696c0.286-1.352,0.517-2.578,0.694-3.681l0.373-1.548
		c0.035-0.035,0.374,0.391,1.014,1.281c0.641,0.854,1.423,1.885,2.348,3.094c2.241,2.953,3.378,4.43,3.416,4.43
		c0-0.036-0.48-1.797-1.441-5.283c-0.427-1.422-0.765-2.686-1.013-3.788l-0.48-1.495c0-0.071,0.516,0.161,1.547,0.694
		c0.96,0.462,2.135,1.049,3.521,1.76c3.345,1.743,5.017,2.597,5.017,2.562c0.035,0-1.21-1.387-3.735-4.163
		c-2.455-2.774-3.682-4.179-3.682-4.214h0.319c0.249,0,0.534,0,0.854,0c2.206,0.106,4.447,0.195,6.723,0.267l3.469,0.106
		l-5.709-2.454c-1.885-0.783-3.148-1.316-3.788-1.601c-0.641-0.285-0.908-0.445-0.801-0.48c0.071-0.035,1.814-0.765,5.229-2.188
		c3.381-1.423,5.053-2.152,5.017-2.188c-0.035,0-1.478,0.071-4.322,0.213l-5.655,0.16c-0.677,0-1.05,0-1.121,0
		c-0.143,0-0.178-0.035-0.107-0.106c0.107-0.107,1.868-2.099,5.283-5.977c0.569-0.604,1.05-1.138,1.44-1.601
		c0.392-0.426,0.588-0.657,0.588-0.693l-1.548,0.746c-0.961,0.499-2.116,1.122-3.469,1.868c-3.38,1.744-5.069,2.58-5.069,2.509
		l1.281-4.696c0.854-3.094,1.423-5.087,1.707-5.976c0-0.036-0.338,0.373-1.014,1.227c-0.64,0.854-1.44,1.904-2.401,3.148
		c-0.924,1.245-1.725,2.33-2.401,3.254l-0.959,1.281c-0.036-0.035-0.392-1.85-1.067-5.442c-0.676-3.558-1.014-5.389-1.014-5.497
		c-0.072-0.035-0.124,0.053-0.16,0.267l-1.014,5.389c-0.675,3.451-1.032,5.194-1.067,5.23l-1.013-1.281
		c-0.641-0.854-1.424-1.92-2.348-3.201c-2.242-2.953-3.362-4.411-3.362-4.375l0.694,2.454c-0.605-0.178-2.525-0.355-5.763-0.534
		c-2.846-0.249-4.499-0.41-4.962-0.48c-0.356-0.142-0.178-0.426,0.534-0.854c0.355-0.213,1.227-0.551,2.614-1.014
		c1.353-0.426,2.811-0.747,4.376-0.959c3.521-0.676,5.175-1.014,4.962-1.014c-0.32-0.071-1.903-0.09-4.748-0.053h-0.054
		c-0.142-0.107-0.32-0.213-0.534-0.321c-1.636-0.996-3.326-1.778-5.069-2.347c-1.742-0.534-3.61-0.872-5.603-1.014
		c-3.379-0.249-6.705,0.196-9.978,1.334c-0.818,0.285-1.618,0.604-2.401,0.96c-7.933,0.854-13.482,1.406-16.648,1.655
		c-3.023,0.106-4.891,0-5.603-0.321c-0.854-0.249-0.818-0.551,0.107-0.907c0.889-0.32,2.703-0.622,5.442-0.907
		c1.281-0.143,2.313-0.267,3.095-0.374c0.676-0.142,0.818-0.249,0.427-0.32c-1.103-0.178,2.294-0.676,10.192-1.495
		c7.826-0.818,12.699-1.156,14.621-1.013c1.351,0.071,2.134,0.142,2.347,0.212c0.25,0.072,0.071,0.178-0.533,0.321
		c-1.458,0.285-1.582,0.462-0.374,0.534c1.103,0,2.543-0.089,4.322-0.267c1.494-0.249,2.258-0.375,2.295-0.375
		c0.143-0.106-0.375-0.249-1.548-0.426c-0.604-0.072-1.157-0.214-1.654-0.428c-0.57-0.213-0.908-0.355-1.014-0.427
		c-0.142-0.355,0.694-0.764,2.507-1.227c1.958-0.392,3.416-0.534,4.376-0.427c0.284,0.036,0.533,0,0.747-0.106
		c0.035,0,0.017-0.071-0.054-0.213c-0.32-0.285-2.916-0.285-7.791,0c-4.802,0.285-10.014,0.694-15.634,1.228
		c-5.194,0.569-8.538,0.8-10.032,0.693c-1.529-0.106-0.48-0.498,3.148-1.173c1.458-0.249,2.543-0.48,3.255-0.694
		c0.747-0.32,0.978-0.534,0.693-0.64c-0.498-0.249-0.747-0.41-0.747-0.48s0.285-0.196,0.854-0.373l0.8-0.267
		c0.036-0.072-0.213-0.09-0.747-0.054c-7.114,0.462-14.122,1.032-21.023,1.708c-6.937,0.604-10.494,0.978-10.672,1.12
		c-0.356,0.214-0.445,0.285-0.267,0.214c0.32,0,0.765,0.267,1.334,0.8c0.391,0.355,0.107,0.64-0.854,0.854
		c-0.996,0.178-3.077,0.391-6.243,0.64c-2.313,0.178-4.589,0.284-6.831,0.321c-2.312-0.037-3.877-0.125-4.695-0.267
		c-2.099-0.285-7.523-0.48-16.275-0.588c-8.573-0.142-13.66-0.32-15.26-0.534l-2.348-0.32l7.311-1.121
		c3.166-0.498,6.208-0.835,9.124-1.014c3.059-0.249,7.648-0.409,13.767-0.48c8.893-0.213,14.14-0.479,15.741-0.8
		c1.707-0.285,2.027-0.391,0.96-0.32c-1.672,0.071-6.545,0.036-14.621-0.106c-7.932-0.107-13.144-0.267-15.634-0.48
		c-2.633-0.143-4.038-0.267-4.216-0.373c-0.213-0.037,0.391-0.196,1.814-0.48c0.783-0.143,2.312-0.267,4.589-0.375
		c2.276-0.142,4.554-0.212,6.83-0.212c2.419-0.037,4.82-0.107,7.204-0.214c2.419-0.213,4.18-0.409,5.282-0.586
		c2.455-0.463,3.006-0.676,1.654-0.641c-1.601,0.036-5.087-0.124-10.458-0.48c-5.372-0.355-8.84-0.675-10.405-0.96
		c-0.996-0.107-1.103-0.213-0.32-0.32c0.534-0.178,2.099-0.392,4.696-0.641c1.92-0.213,3.54-0.408,4.855-0.586
		c1.352-0.143,1.939-0.267,1.761-0.373c-0.143-0.107-0.748-0.267-1.814-0.48c-1.032-0.178-2.259-0.356-3.682-0.534
		c-2.419-0.285-3.433-0.48-3.041-0.587c0.32-0.072,2.846-0.196,7.577-0.374c2.455-0.106,4.802-0.267,7.043-0.48
		c2.17-0.212,3.433-0.391,3.789-0.534c0.889-0.355,2.686-0.533,5.389-0.533c8.894-0.32,16.097-0.658,21.611-1.013
		c5.585-0.321,11.614-0.89,18.089-1.708c4.02-0.463,9.748-0.997,17.181-1.601c7.328-0.569,14.052-0.996,20.17-1.281
		c1.992-0.106,3.949-0.249,5.869-0.426c4.021-0.213,7.72-0.445,11.098-0.694c2.1-0.142,3.86-0.249,5.284-0.32v14.46v15.208V119.386z
		 M94.016,87.743c0,0.072,0.338,0.161,1.014,0.267c1.139,0.143,2.295,0.125,3.468-0.053c1.209-0.177,1.405-0.32,0.587-0.426
		c-0.818-0.107-2.046-0.107-3.682,0C94.514,87.637,94.052,87.708,94.016,87.743z M105.648,87.904c0.285-0.071,0.285-0.124,0-0.161
		c-0.569-0.071-1.601,0.107-3.095,0.534c-0.676,0.072-1.139,0.196-1.388,0.374c-0.285,0.142-0.285,0.214,0,0.214
		c0.57,0.106,1.637-0.018,3.202-0.375C104.937,88.277,105.364,88.082,105.648,87.904z M97.645,99.963
		c-1.601,0.071-3.291,0.178-5.069,0.32c-10.173,0.818-14.122,0.908-11.846,0.267c2.206-0.604,8.822-1.476,19.85-2.614
		C99.583,98.54,98.605,99.215,97.645,99.963z M104.688,102.844c0.285,0,0.622,0,1.014,0c3.415-0.035,2.953,0.161-1.387,0.587
		c-0.107,0-0.213,0.018-0.32,0.053C104.208,103.235,104.439,103.022,104.688,102.844z M92.309,105.832
		c-1.103,1.744-1.975,3.594-2.615,5.55c-0.925,2.882-1.298,5.816-1.121,8.804c0.107,2.811,0.711,5.514,1.814,8.11
		c-0.427-0.036-0.872-0.071-1.334-0.106c-1.352-0.143-4.447-0.053-9.285,0.267c-4.731,0.355-9.889,0.8-15.474,1.334
		c-13.162,1.316-19.814,1.885-19.957,1.707c-0.071-0.071,1.014-0.302,3.255-0.693c2.347-0.356,5.122-0.765,8.324-1.228
		c3.237-0.426,5.923-0.854,8.058-1.281c2.383-0.391,3.468-0.675,3.254-0.854c-0.106-0.249-0.053-0.391,0.16-0.426
		c0.285-0.107,0.641-0.125,1.067-0.054c1.103,0.107,0.8-0.195-0.907-0.907c-0.925-0.355-2.01-0.569-3.255-0.64
		c-1.352-0.107-3.379-0.072-6.083,0.106c-1.921,0.214-3.717,0.302-5.389,0.267c-1.601,0-2.526-0.089-2.775-0.267
		c-0.249-0.071,0.178-0.196,1.281-0.373c1.174-0.213,2.721-0.392,4.643-0.534c1.849-0.072,3.432-0.196,4.749-0.374
		c1.352-0.177,1.939-0.302,1.761-0.373c-0.249-0.249-5.051-0.214-14.407,0.106c-9.285,0.213-14.069,0.196-14.354-0.053
		c-0.32-0.32,0.071-0.41,1.174-0.267c0.889,0.106,1.334,0.143,1.334,0.106c0-0.071-0.409-0.267-1.228-0.587
		c-0.782-0.284-1.031-0.48-0.747-0.586c0.213-0.106,1.049-0.161,2.508-0.161c2.49,0,5.389-0.106,8.697-0.32
		c3.344-0.426,7.239-0.765,11.686-1.014c1.886-0.142,3.344-0.302,4.375-0.479c0.925-0.213,1.192-0.356,0.801-0.427
		c-0.676-0.249-4.002-0.231-9.979,0.053c-5.94,0.143-10.974,0.374-15.101,0.694c-1.352,0.142-2.846,0.231-4.482,0.267
		c-1.565,0-2.722-0.071-3.468-0.214c-1.423-0.143-2.117-0.267-2.081-0.373c-0.178-0.072,0.16-0.231,1.014-0.48
		c2.099-0.711,9.765-1.263,22.998-1.654c4.34-0.178,10.405-0.551,18.195-1.121c0.96-0.106,1.85-0.195,2.668-0.267
		c5.941-0.569,8.804-0.942,8.591-1.12c-0.213-0.177-4.714-0.036-13.5,0.427c-8.858,0.462-13.625,0.551-14.301,0.267
		c-0.249-0.071-0.125-0.178,0.374-0.32c0.534-0.143,1.298-0.249,2.294-0.321c1.708-0.106,3.291-0.302,4.749-0.587
		c0.747-0.071,1.441-0.142,2.081-0.214c1.886-0.32,2.757-0.551,2.615-0.693c-0.178-0.178-1.957-0.196-5.336-0.053
		c-3.272,0.177-5.247,0.16-5.923-0.054c-0.818-0.142-0.089-0.409,2.188-0.8c2.383-0.462,3.415-0.729,3.095-0.8
		c-0.249-0.036-4.09-0.071-11.525-0.106c-3.024,0.036-5.621,0.036-7.791,0c-3.201-0.106-5.496-0.267-6.883-0.48
		c-1.672-0.249-2.366-0.426-2.081-0.534c0.106,0,0.445-0.018,1.014-0.053c0.783-0.106,2.117-0.249,4.002-0.427
		c4.198-0.391,7.506-0.854,9.925-1.387c1.032-0.142,2.971-0.355,5.816-0.64c3.024-0.249,6.012-0.427,8.964-0.534
		c3.13-0.035,6.972-0.267,11.526-0.694c4.482-0.32,8.306-0.693,11.472-1.121C86.582,106.456,89.534,106.117,92.309,105.832z
		 M39.109,97.295c0.64,0.071,0.676,0.196,0.107,0.374c-1.174,0.534-4.055,0.8-8.645,0.8c-4.731,0-7.061-0.267-6.99-0.8
		c0.035-0.107,0.818-0.231,2.347-0.374c1.423-0.106,3.184-0.142,5.283-0.106C35.801,97.259,38.434,97.295,39.109,97.295z
		 M108.156,100.337c0.498,0,0.96-0.018,1.388-0.054c2.063-0.285,3.397-0.391,4.002-0.32c0.463,0,0.801,0.196,1.013,0.586
		c0.178,0.214-0.267,0.427-1.334,0.641s-2.418,0.409-4.055,0.587c-1.494,0.106-2.721,0.231-3.682,0.373
		C106.342,101.51,107.231,100.906,108.156,100.337z M125.285,98.469c-1.067-0.037-2.295-0.037-3.682,0
		c-4.731,0.142-8.128,0.249-10.191,0.32c0.248-0.071,0.479-0.143,0.693-0.213c2.099-0.712,4.287-1.067,6.564-1.067
		c2.277-0.035,4.463,0.267,6.563,0.907L125.285,98.469z M19.259,145.959c-0.996-0.284-0.658-0.338,1.014-0.16
		c1.672,0.249,2.206,0.427,1.601,0.533C21.092,146.403,20.22,146.279,19.259,145.959z M26.196,146.332
		c-0.747,0.071-1.458,0-2.134-0.213c-0.711-0.391-0.338-0.498,1.121-0.32C26.534,146.012,26.872,146.189,26.196,146.332z"/>
	<path fill-rule="evenodd" clip-rule="evenodd" fill="#FBD118" d="M125.285,98.469l-0.054-0.054
		c-2.099-0.64-4.286-0.942-6.563-0.907c-2.277,0-4.465,0.355-6.564,1.067c-0.213,0.071-0.445,0.143-0.693,0.213
		c-0.286,0.036-0.534,0.053-0.747,0.053c-0.889,0.071-1.689,0.161-2.401,0.267c-0.605,0.178-0.925,0.32-0.961,0.427
		c-0.035,0.177-0.23,0.302-0.586,0.373c-0.499,0.035-0.996,0-1.494-0.106c-0.498-0.072-1.992-0.054-4.482,0.053
		c-0.996,0.036-2.027,0.071-3.095,0.106c0.96-0.748,1.939-1.423,2.935-2.027h0.053c0.321-0.036,0.658-0.072,1.014-0.107l13.02-1.173
		c0.391-0.071,0.658-0.161,0.8-0.267c0.178-0.071,0.23-0.178,0.16-0.32c-0.284-0.214-4.767,0.124-13.446,1.013
		c0.783-0.355,1.583-0.675,2.401-0.96c3.273-1.138,6.599-1.583,9.978-1.334c1.993,0.142,3.86,0.48,5.603,1.014
		c1.744,0.569,3.433,1.352,5.069,2.347c0.213,0.107,0.392,0.213,0.534,0.321h0.054c0.248,0.142,0.373,0.23,0.373,0.267
		L125.285,98.469z M128.86,103.592l-0.053-0.214l-0.694-2.454c0-0.036,1.121,1.422,3.362,4.375c0.924,1.281,1.707,2.348,2.348,3.201
		l1.013,1.281c0.036-0.036,0.392-1.779,1.067-5.23l1.014-5.389c0.036-0.213,0.088-0.302,0.16-0.267c0,0.107,0.338,1.938,1.014,5.497
		c0.675,3.592,1.032,5.407,1.067,5.442l0.959-1.281c0.677-0.924,1.477-2.009,2.401-3.254c0.961-1.245,1.762-2.294,2.401-3.148
		c0.676-0.854,1.014-1.262,1.014-1.227c-0.284,0.889-0.854,2.881-1.707,5.976l-1.281,4.696c0,0.071,1.689-0.765,5.069-2.509
		c1.353-0.746,2.508-1.369,3.469-1.868l1.548-0.746c0,0.036-0.196,0.267-0.588,0.693c-0.391,0.463-0.871,0.997-1.44,1.601
		c-3.415,3.878-5.176,5.87-5.283,5.977c-0.07,0.071-0.035,0.106,0.107,0.106c0.071,0,0.444,0,1.121,0l5.655-0.16
		c2.845-0.142,4.287-0.213,4.322-0.213c0.036,0.036-1.636,0.764-5.017,2.188c-3.414,1.423-5.157,2.152-5.229,2.188
		c-0.107,0.036,0.16,0.196,0.801,0.48c0.64,0.285,1.903,0.818,3.788,1.601l5.709,2.454l-3.469-0.106
		c-2.275-0.072-4.517-0.16-6.723-0.267c-0.319,0-0.604,0-0.854,0h-0.319c0,0.035,1.227,1.44,3.682,4.214
		c2.525,2.775,3.771,4.163,3.735,4.163c0,0.036-1.672-0.818-5.017-2.562c-1.387-0.711-2.562-1.298-3.521-1.76
		c-1.031-0.534-1.547-0.765-1.547-0.694l0.48,1.495c0.248,1.103,0.586,2.366,1.013,3.788c0.961,3.486,1.441,5.248,1.441,5.283
		c-0.037,0-1.175-1.477-3.416-4.43c-0.925-1.208-1.707-2.24-2.348-3.094c-0.64-0.89-0.979-1.316-1.014-1.281l-0.373,1.548
		c-0.177,1.103-0.409,2.329-0.694,3.681c-0.498,2.419-0.8,3.984-0.907,4.696c-0.142,0.712-0.231,0.979-0.267,0.8
		c0-0.071-0.32-1.885-0.961-5.442l-1.067-5.336v-0.055l-0.267,0.321c-0.212,0.212-1.209,1.529-2.988,3.948
		c-2.027,2.705-3.148,4.18-3.361,4.429l-0.213,0.267l0.106-0.427c1.921-6.865,2.882-10.315,2.882-10.351
		c-0.036,0-0.534,0.267-1.495,0.8c-0.996,0.461-2.188,1.049-3.575,1.76c-3.308,1.744-4.979,2.615-5.016,2.615l1.067-1.281
		c0.748-0.818,1.619-1.814,2.615-2.988c2.491-2.739,3.735-4.145,3.735-4.216l-1.387,0.107c-0.924,0.035-2.864,0.106-5.816,0.212
		l-4.162,0.161c0-0.071,0.178-0.161,0.533-0.267c0.641-0.25,2.437-0.997,5.39-2.241c2.952-1.281,4.446-1.939,4.481-1.975
		l-1.493-0.693c-1.032-0.427-2.259-0.943-3.682-1.548l-5.229-2.242l2.455,0.107c1.672,0.036,3.681,0.106,6.029,0.214
		c1.85,0.071,2.792,0.088,2.829,0.053c0.036,0,0.036-0.018,0-0.053c-0.037-0.037-0.088-0.107-0.161-0.214
		c-0.32-0.285-1.601-1.726-3.841-4.322l-3.362-3.79c0.036,0,1.618,0.8,4.749,2.401c3.202,1.637,4.892,2.526,5.069,2.668
		c0.106,0.072,0.177,0.107,0.213,0.107c0.036,0,0.053-0.018,0.053-0.053c0-0.072-0.48-1.868-1.44-5.39L128.86,103.592z
		 M91.508,130.591c-0.32-0.604-0.623-1.191-0.907-1.761c-0.107-0.213-0.178-0.391-0.213-0.534c-1.103-2.596-1.708-5.299-1.814-8.11
		c-0.177-2.988,0.196-5.922,1.121-8.804c0.64-1.956,1.512-3.806,2.615-5.55c2.882-0.32,5.585-0.586,8.111-0.8
		c0.747-0.035,1.494-0.071,2.241-0.106c-1.85,2.099-3.238,4.482-4.163,7.15c-0.427,1.173-0.711,2.293-0.854,3.361
		c-0.213,1.103-0.32,2.277-0.32,3.521c0,1.708,0.195,3.362,0.586,4.963c0.356,1.53,0.925,3.059,1.708,4.588
		c1.636,3.345,4.037,6.083,7.203,8.218c3.095,2.17,6.528,3.397,10.298,3.682c1.316,0.106,2.758,0.088,4.322-0.053
		c1.53-0.214,2.864-0.516,4.002-0.908l0.32-0.053c0,0.036-0.302,0.249-0.907,0.64c-0.64,0.285-1.173,0.534-1.601,0.748
		c-2.24,1.103-4.606,1.832-7.097,2.188c-2.417,0.285-4.837,0.231-7.256-0.16c-2.455-0.392-4.767-1.12-6.937-2.188
		c-2.241-1.104-4.25-2.526-6.029-4.269C94.159,134.646,92.682,132.726,91.508,130.591z M95.03,102.444
		c0.018-0.018,0.035-0.027,0.054-0.027c0.213-0.035,0.409-0.053,0.586-0.053C95.469,102.386,95.255,102.412,95.03,102.444z"/>
</g>
</svg>
