<?xml version="1.0" encoding="utf-8"?>
<!-- Generator: Adobe Illustrator 16.0.0, SVG Export Plug-In . SVG Version: 6.00 Build 0)  -->
<!DOCTYPE svg PUBLIC "-//W3C//DTD SVG 1.1//EN" "http://www.w3.org/Graphics/SVG/1.1/DTD/svg11.dtd">
<svg version="1.1" id="Layer_1" xmlns="http://www.w3.org/2000/svg" xmlns:xlink="http://www.w3.org/1999/xlink" x="0px" y="0px"
	 width="300px" height="300px" viewBox="0 0 300 300" enable-background="new 0 0 300 300" xml:space="preserve">
<g>
	<path fill-rule="evenodd" clip-rule="evenodd" fill="#D7127C" d="M173.767,47.246c1.338,0,2.007,0.422,2.007,1.264v2.008
		c0,1.288-2.403,2.377-7.21,3.271c-12.637,16.106-22.451,34.84-29.438,56.199c2.628,4.807,3.94,8.724,3.94,11.745l-1.933,7.88
		l2.603,13.01l-0.669,0.669l0.669,3.271c0,12.635-1.958,25.052-5.873,37.243h-0.671c-3.022-1.737-5.204-14.15-6.541-37.243
		c0-4.758,0.867-10.854,2.603-18.288l-1.932-5.205v-2.602c0-3.519,1.509-7.013,4.533-10.481
		c-10.011-27.01-20.467-45.966-31.37-56.868l-1.263,0.669c-3.073-0.446-4.609-1.313-4.609-2.602v-3.271h3.27
		c5.7,3.468,13.109,13.479,22.228,30.032l12.416,28.768h1.337c10.457-27.455,22.003-47.278,34.64-59.47H173.767z M241.784,28.959
		h-0.667c-12.191,6.095-35.063,25.695-68.615,58.801l-20.292,24.16c-3.023,5.7-4.982,8.548-5.873,8.548l-0.67-1.337
		C174.461,72.05,210.638,35.874,254.2,10.598h0.67c1.286,0,1.931,0.446,1.931,1.338c0,18.287-9.813,41.158-29.438,68.613
		c-14.373,13.976-24.829,21.607-31.37,22.896v-0.669c20.914-15.66,35.311-36.127,43.191-61.403L241.784,28.959z M32.601,28.959
		c0,15.214,8.945,34.368,26.835,57.463l18.956,16.354v0.669h-1.335c-4.398-2.279-8.56-4.818-12.49-7.62
		C46.704,83.156,33.671,65.205,25.464,41.969c-4.806-10.012-7.211-20.245-7.211-30.703l1.337-0.669h0.596
		c15.811,9.308,30.604,19.913,44.379,31.816c24.95,21.543,46.558,47.339,64.822,77.385l-2.008,0.669
		c-2.628-7.433-20.493-27.48-53.597-60.139c-3.146-2.704-6.219-5.294-9.218-7.768C53.058,43.037,42.625,35.17,33.27,28.959H32.601z
		 M129.388,138.086c-5.255,10.904-15.932,19.624-32.041,26.167l-17.022,1.934h-6.542c-3.165,0-6.237-0.323-9.218-0.967
		c-13.396-2.926-24.919-12.417-34.569-28.471c-3.468-6.542-5.203-15.239-5.203-26.093c0-17.444,3.495-29.66,10.481-36.648h0.597
		c-3.917,8.723-5.875,17.445-5.875,26.167c0,26.166,9.591,43.81,28.77,52.928c2.014,0.667,3.947,1.274,5.799,1.821
		c7.764,2.255,14.107,3.382,19.029,3.382c16.554,0,31.371-7.186,44.456-21.557h1.338V138.086z M48.954,164.849l-0.669,3.938v2.601
		c0,8.091,5.427,17.272,16.281,27.543c4.373,4.15,9.625,8.477,15.759,12.973c0.721,0.795,1.416,1.565,2.081,2.305
		c7.336,8.186,11.003,12.867,11.003,14.048c2.732-5.103,5.358-9.786,7.879-14.048c12.739-21.559,22.751-32.336,30.034-32.336v1.933
		c-4.637,0-11.896,10.135-21.783,30.403c-0.369,0.753-0.74,1.521-1.114,2.304c-5.104,23.797-10.009,41.24-14.72,52.332
		c-2.092,4.966-4.147,8.658-6.17,11.077l-7.209,7.138h-1.263v-1.265c3.826-5.648,6.663-11.298,8.509-16.95
		c1.712-5.252,2.566-10.504,2.566-15.757v-2.603c0-11.112-6.654-23.206-19.96-36.276c-1.762-1.719-3.633-3.454-5.612-5.203
		c-1.833-1.62-3.766-3.256-5.799-4.906c-9.168-10.458-13.753-20.271-13.753-29.439v-6.54c1.339-2.576,2.43-3.866,3.271-3.866
		L48.954,164.849z M238.514,74.007h0.671c7.384,8.277,11.075,20.914,11.075,37.913c0,25.721-13.061,43.361-39.175,52.929
		c-3.52,0.892-7.236,1.338-11.152,1.338h-3.939c-23.094,0-39.645-8.92-49.656-26.762l-0.67-2.676h0.67
		c11.794,14.372,27.255,21.557,46.387,21.557h0.668c13.976,0,26.391-5.427,37.243-16.28c9.167-10.456,13.753-24.405,13.753-41.851
		C244.388,94.079,242.432,85.356,238.514,74.007z M148.938,187.075c-1.289,0-3.247-1.513-5.873-4.535v-0.668
		c9.531,3.161,19.616,13.938,30.256,32.336c1.035,1.787,2.077,3.645,3.122,5.575c1.734,5.649,3.468,8.473,5.203,8.473
		c0-2.596,3.63-7.28,10.892-14.048c4.934-4.591,11.537-10.142,19.81-16.652c8.277-10.455,12.86-19.377,13.752-26.761l-0.668-5.946
		h2.601l1.338,6.539c0,15.049-8.126,29.321-24.381,42.82c-1.192,0.996-2.432,1.986-3.718,2.973
		c-10.904,11.745-16.353,22.625-16.353,32.635v6.541c0,3.76,0.717,7.922,2.155,12.487c1.28,4.046,3.128,8.408,5.537,13.086
		c0.854,1.67,1.783,3.379,2.786,5.129h-0.668c-1.938-1.31-3.81-3.021-5.61-5.129c-2.889-3.352-5.614-7.713-8.177-13.086
		c-3.839-8.01-7.321-18.269-10.447-30.773c-1.589-8.672-3.72-16.627-6.393-23.862C160.202,203.626,155.15,194.581,148.938,187.075z"
		/>
	<path fill-rule="evenodd" clip-rule="evenodd" fill="#DF63A5" d="M222.159,58.323c0-1.289-0.443-1.933-1.339-1.933h-1.261
		c-6.097,0-11.103,5.873-15.016,17.617v2.602l0.593,1.339C216.486,73.14,222.159,66.599,222.159,58.323z M166.445,135.558
		c-1.714-1.479-3.73-3.562-6.059-6.245c-3.354-3.891-5.497-7.088-6.43-9.588c1.314-3.274,3.782-7.512,7.394-12.712
		c5.204-7.483,11.772-15.488,19.7-24.011c18.882-20.418,31.966-30.627,39.249-30.627c2.282,0,3.769,0.595,4.463,1.784
		c0.396,0.743,0.594,2.131,0.594,4.163c0,5.848-5.427,15.462-16.277,28.843c-8.916,10.962-15.418,17.888-19.515,20.777
		c5.074-1.698,13.288-6.492,24.643-14.385c11.596-8.028,17.69-12.042,18.287-12.042c5.551,0,8.324,6.641,8.324,19.923
		c0,14.124-3.964,24.928-11.893,32.412c-7.584,7.136-18.189,10.705-31.815,10.705c-1.876,0-3.536-0.015-4.982-0.04v-3.158
		c-0.893-1.734-2.206-2.825-3.939-3.27c-2.179,0.445-3.717,1.536-4.609,3.27v2.304c-2.235-0.874-6.745-2.759-13.529-5.648
		c-0.05-0.021-0.099-0.045-0.148-0.075v-1.188l-1.338-1.263h-1.932L166.445,135.558z M203.204,135.486v3.938l3.271,3.197h2.604
		l3.269-3.197v-1.338c0-3.074-0.866-4.807-2.601-5.204h-3.94L203.204,135.486z M218.22,118.46v0.67
		c3.074,6.541,4.609,11.125,4.609,13.752v3.27h1.934c2.626-5.698,3.94-9.862,3.94-12.488c0-5.649-2.404-8.474-7.212-8.474
		C219.311,116.529,218.22,117.62,218.22,118.46z M90.807,141.356l-2.601-3.27c-3.073,0-5.254,1.511-6.542,4.535
		c0,1.784,1.09,3.097,3.271,3.94h3.271c1.734-0.447,2.601-1.091,2.601-1.934V141.356z M54.159,56.39l-1.934,0.668
		c0,8.484,4.113,14.927,12.341,19.328c1.048,0.548,2.163,1.068,3.344,1.562c1.735,0,2.603-0.446,2.603-1.339v-0.594
		c-1.727-5.771-3.71-10.268-5.947-13.492c-2.835-4.089-6.083-6.132-9.738-6.132H54.159z M109.539,140.502
		c0.149-0.288,0.223-0.647,0.223-1.078v-2.676c0-0.843-0.669-1.263-2.008-1.263h-1.263c-0.892,0-1.76,1.09-2.601,3.27
		c0.841,1.736,1.709,2.601,2.601,2.601h1.263c0.202,0,0.387-0.011,0.558-0.037c-0.062,0.037-0.125,0.073-0.185,0.113
		c-8.326,5.252-17.817,7.878-28.471,7.878c-5.394,0-10.425-0.854-15.09-2.564c-6.098-2.245-11.574-5.948-16.428-11.114
		c-8.725-9.267-13.084-20.865-13.084-34.79c0.005-9.717,2.768-14.486,8.288-14.31c4.996,0.165,12.07,3.807,21.225,10.927
		c0.944,0.729,1.91,1.497,2.899,2.304c7.915,6.464,12.623,7.789,14.124,3.978c-2.643-2.503-6.259-6.232-10.853-11.188
		c-2.195-2.366-4.251-4.633-6.17-6.802C51.718,71.324,45.053,61.585,44.568,56.539c-1.512-2.181-2.306-6.047-2.377-11.597
		l5.947,5.055c5.109,2.696,10.584,6.375,16.428,11.04c6.397,5.102,13.238,11.383,20.515,18.844
		c13.282,13.628,23.171,26.068,29.662,37.317l6.43,8.809C119.31,131.589,115.431,136.421,109.539,140.502z M64.566,132.883
		c-0.82,0.102-1.661,1.836-2.528,5.204v1.933c0.437,1.701,1.281,2.569,2.528,2.602h3.344l3.271-3.197v-3.938
		c-0.446-1.738-1.314-2.603-2.602-2.603H64.566z M56.165,119.799c0-2.179-1.314-3.716-3.94-4.608c-3.915,0-6.096,2.403-6.541,7.209
		c0,6.542,1.759,11.126,5.275,13.752h0.596l-0.596-3.27C51.358,129.365,53.092,125.002,56.165,119.799z M45.685,91.031
		c-5.204,0-7.806,3.27-7.806,9.812l0.596,9.813h2.675v-3.271l6.541-11.82v-1.932L45.685,91.031z M57.058,174.288
		c1.999-0.274,4.5-0.632,7.508-1.077c2.946-0.427,6.379-0.935,10.294-1.524c7.92-1.196,14.055-2.334,18.4-3.419
		c4.334-1.085,9.229-2.757,14.682-5.019c5.463-2.254,9.277-4.012,11.447-5.277c0.433,1.621,1.164,3.791,2.192,6.504
		c1.785,4.659,2.678,7.83,2.678,9.515c-2.678,1.734-5.899,4.685-9.664,8.849c-7.07,7.956-13.079,18.413-18.027,31.369
		c-0.288,0.76-0.573,1.526-0.854,2.304c-0.239-0.782-0.488-1.548-0.743-2.304c-3.529-10.781-7.841-18.833-12.935-24.16
		c-3.719-3.871-9.542-7.886-17.469-12.043C62.243,176.775,59.74,175.535,57.058,174.288z M237.177,102.776
		c0-5.649-2.179-9.564-6.542-11.745c-0.396,0-1.908,0.866-4.535,2.602c0,3.071,2.604,7.433,7.808,13.083v3.94h2.006L237.177,102.776
		z M116.973,168.119c-1.338-2.18-3.098-3.271-5.276-3.271c-2.628,0-5.229,1.98-7.806,5.946
		c-4.362,13.479-8.724,22.178-13.083,26.092v1.338h0.668C108.474,189.947,116.973,179.914,116.973,168.119z M189.564,107.943
		c-0.38,0.131-0.738,0.243-1.08,0.334h0.596C189.235,108.175,189.396,108.063,189.564,107.943z M157.487,168.119v2.676
		c0,10.012,8.475,19.152,25.423,27.43h0.669v-1.338l-6.541-7.806c-4.362-16.156-8.92-24.232-13.678-24.232
		C160.732,164.849,158.774,165.939,157.487,168.119z M150.424,178.451c0.792-3.964,1.189-6.74,1.189-8.324
		c-0.542-3.846-0.991-7.007-1.336-9.48c5.563,0.629,13.393,3.047,23.489,7.248c9.367,3.866,18.237,5.799,26.613,5.799
		c1.19,0,3.396-0.197,6.616-0.593c3.222-0.396,5.078-0.597,5.575-0.597h0.892c-0.051,4.561-1.265,8.501-3.642,11.82
		c-0.101,0.148-3.444,3.939-10.035,11.374c-2.432,2.773-5.181,6.914-8.252,12.414c-1.226,2.369-2.277,4.4-3.159,6.096
		c-1.319,2.486-2.273,4.246-2.863,5.277c0-0.247-0.099-0.422-0.297-0.52l-0.296-0.074c-0.958-1.623-1.899-3.183-2.826-4.684
		c-4.213-6.896-8.03-12.52-11.449-16.873C164.252,189.155,157.512,182.864,150.424,178.451z"/>
	<path fill-rule="evenodd" clip-rule="evenodd" fill="#EA9DC4" d="M222.159,58.323c0,8.276-5.673,14.817-17.022,19.625l-0.593-1.339
		v-2.602c3.913-11.745,8.919-17.617,15.016-17.617h1.261C221.716,56.39,222.159,57.034,222.159,58.323z M218.22,118.46
		c0-0.84,1.091-1.931,3.271-3.269c4.808,0,7.212,2.825,7.212,8.474c0,2.626-1.314,6.79-3.94,12.488h-1.934v-3.27
		c0-2.628-1.535-7.211-4.609-13.752V118.46z M203.204,135.486l2.603-2.603h3.94c1.734,0.396,2.601,2.13,2.601,5.204v1.338
		l-3.269,3.197h-2.604l-3.271-3.197V135.486z M166.445,135.558l0.187-0.072h1.932l1.338,1.263v1.188v1.487
		c0,1.288-0.446,1.932-1.338,1.932h-1.932c-1.341,0-2.207-1.536-2.604-4.608L166.445,135.558z M183.579,143.661v-2.304
		c0.893-1.734,2.431-2.825,4.609-3.27c1.733,0.445,3.047,1.536,3.939,3.27v3.158v0.781c0,0.843-0.671,1.266-2.006,1.266h-4.535
		c-1.339,0-2.008-0.422-2.008-1.266V143.661z M109.539,140.502c-0.231,0.443-0.64,0.715-1.227,0.817
		c-0.171,0.026-0.355,0.037-0.558,0.037h-1.263c-0.892,0-1.76-0.865-2.601-2.601c0.841-2.179,1.709-3.27,2.601-3.27h1.263
		c1.339,0,2.008,0.42,2.008,1.263v2.676C109.762,139.855,109.688,140.214,109.539,140.502z M54.159,56.39h0.668
		c3.655,0,6.903,2.043,9.738,6.132c2.237,3.225,4.22,7.722,5.947,13.492v0.594c0,0.893-0.867,1.339-2.603,1.339
		c-1.181-0.494-2.296-1.013-3.344-1.562c-8.228-4.401-12.341-10.844-12.341-19.328L54.159,56.39z M90.807,141.356v3.271
		c0,0.843-0.867,1.486-2.601,1.934h-3.271c-2.181-0.843-3.271-2.156-3.271-3.94c1.288-3.024,3.469-4.535,6.542-4.535L90.807,141.356
		z M45.685,91.031l2.006,2.602v1.932l-6.541,11.82v3.271h-2.675l-0.596-9.813C37.878,94.301,40.48,91.031,45.685,91.031z
		 M56.165,119.799c-3.073,5.204-4.807,9.566-5.205,13.084l0.596,3.27H50.96c-3.517-2.626-5.275-7.21-5.275-13.752
		c0.445-4.806,2.626-7.209,6.541-7.209C54.851,116.083,56.165,117.62,56.165,119.799z M64.566,132.883h4.014
		c1.287,0,2.156,0.865,2.602,2.603v3.938l-3.271,3.197h-3.344c-1.247-0.033-2.092-0.901-2.528-2.602v-1.933
		C62.905,134.719,63.746,132.985,64.566,132.883z M116.973,168.119c0,11.795-8.499,21.828-25.498,30.105h-0.668v-1.338
		c4.36-3.914,8.722-12.612,13.083-26.092c2.577-3.966,5.178-5.946,7.806-5.946C113.875,164.849,115.635,165.939,116.973,168.119z
		 M237.177,102.776l-1.264,7.88h-2.006v-3.94c-5.204-5.649-7.808-10.011-7.808-13.083c2.627-1.736,4.139-2.602,4.535-2.602
		C234.998,93.211,237.177,97.126,237.177,102.776z M157.487,168.119c1.287-2.18,3.245-3.271,5.873-3.271
		c4.758,0,9.315,8.076,13.678,24.232l6.541,7.806v1.338h-0.669c-16.948-8.277-25.423-17.418-25.423-27.43V168.119z"/>
</g>
</svg>
