<?xml version="1.0" encoding="utf-8"?>
<!-- Generator: Adobe Illustrator 16.0.0, SVG Export Plug-In . SVG Version: 6.00 Build 0)  -->
<!DOCTYPE svg PUBLIC "-//W3C//DTD SVG 1.1//EN" "http://www.w3.org/Graphics/SVG/1.1/DTD/svg11.dtd">
<svg version="1.1" id="Layer_1" xmlns="http://www.w3.org/2000/svg" xmlns:xlink="http://www.w3.org/1999/xlink" x="0px" y="0px"
	 width="300px" height="300px" viewBox="0 0 300 300" enable-background="new 0 0 300 300" xml:space="preserve">
<g>
	<path fill-rule="evenodd" clip-rule="evenodd" fill="#100A12" d="M114.385,43.84c0-1.244,0.639-1.865,1.918-1.865l2.523,2.523
		l-0.604,7.02v0.604c0,6.361,8.061,17.184,24.186,32.465c1.682,1.683,3.583,3.382,5.702,5.101h2.524l20.4-19.743
		c6.362-6.361,9.542-15.684,9.542-27.969h3.181l0.604,2.523c0,12.284-10.183,27.348-30.548,45.189v1.919l4.497,6.964
		c-0.878,2.561-2.157,4.261-3.838,5.101l0.438,5.484l3.4-2.961c25.849-23.326,54.477-40.929,85.881-52.811
		c11.445-3.803,22.686-5.704,33.729-5.704c11.441,2.121,17.164,9.122,17.164,21.004c0,27.567-8.702,54.933-26.105,82.098
		c-5.081,5.081-10.804,7.823-17.165,8.226h-5.704c-0.877,0-1.753-0.018-2.632-0.054c2.999,7.97,4.498,14.147,4.498,18.535
		c0,21.643-12.084,37.128-36.25,46.45h-12.066c-16.562,0-29.283-18.464-38.168-55.39c-1.646-4.095-4.223-13.82-7.733-29.176
		c-2.048,15.648-3.711,23.472-4.991,23.472c-0.548-1.061-1.408-9.047-2.577-23.965l-1.919,2.961
		c-7.642,33.087-15.483,55.792-23.526,68.113c-5.521,9.322-13.783,13.984-24.789,13.984H90.2c-10.165,0-21.407-7.421-33.728-22.267
		c-3.802-8.92-5.704-15.081-5.704-18.479v-10.805c0.695-3.181,2.267-7.658,4.717-13.435c-0.951,0.036-1.883,0.054-2.797,0.054
		h-4.497c-20.364,0-35.208-26.926-44.531-80.781c0-4.241-0.42-6.783-1.262-7.623C4.52,55.32,11.101,47.678,22.141,47.678h3.784
		c24.605,0,60.234,16.965,106.886,50.892l10.968,6.801c-0.038-0.365-0.073-0.712-0.11-1.042c-0.841-0.438-1.901-1.719-3.18-3.839
		v-0.658c0-2.121,0.84-4.241,2.523-6.362c0-0.073,0-0.128,0-0.165c0.219-0.146,0.437-0.292,0.657-0.438
		c0-0.439,0.421-1.079,1.262-1.919c0-0.439-0.64-1.5-1.918-3.181c-2.963-2.962-8.045-7.623-15.246-13.985
		c-8.921-10.2-13.381-19.541-13.381-28.023V43.84z M22.745,66.105c-1.682,0-3.163,4.04-4.442,12.12v5.101
		c0,16.124,5.942,35.427,17.823,57.912c6.362,6.361,12.303,9.543,17.823,9.543h5.704c13.418,0,41.643-12.376,84.674-37.129
		c-0.109-1.646-0.218-3.327-0.328-5.045l-5.431-1.097c-42.007-27.604-71.275-41.405-87.8-41.405
		c-11.041,3.839-16.563,11.7-16.563,23.582c0,16.124,8.702,29.048,26.105,38.772l14.643,5.758c-2.961,0.694-4.881,1.116-5.759,1.263
		c-14.003,0-27.146-8.702-39.431-26.104c-5.082-10.603-7.623-21.206-7.623-31.808L22.745,66.105z M69.853,164.765
		c0,16.525,8.062,27.768,24.185,33.726h5.101c9.726,0,20.328-10.821,31.808-32.466c4.643-12.283,8.666-20.546,12.066-24.787
		l3.07-3.674c-0.475-6.178-1.006-13.474-1.59-21.881c-30.163,21.021-54.585,34.404-73.268,40.144L69.853,164.765z M56.308,158.896
		l-2.358,10.968c0,22.485,9.762,36.908,29.284,43.271h5.047l7.019-1.316v-1.864c-12.723,0-22.064-8.922-28.023-26.762l-1.262-7.624
		c0-6.509,1.408-12.996,4.223-19.469C65.155,157.599,60.512,158.531,56.308,158.896z M155.022,110.197l0.273,4.716
		c40.691,23.911,69.044,35.867,85.059,35.867h4.441c16.124,0,28.006-22.284,35.646-66.852v-1.866
		c-0.402-9.761-1.883-14.861-4.441-15.3l0.657,12.724c0,19.523-8.919,35.848-26.762,48.973c-8.043,4.68-16.105,7.021-24.185,7.021
		c-1.243,0-1.865-0.842-1.865-2.523c14.844-2.998,25.228-8.94,31.149-17.823c5.521-8.481,8.28-16.964,8.28-25.446v-2.577
		c-2.559-14.002-8.28-21.004-17.165-21.004c-15.281,0-44.128,13.801-86.538,41.405L155.022,110.197z M154.253,135.644
		c3.07,5.74,9.287,19.468,18.646,41.185c10.2,14.44,19.543,21.662,28.025,21.662c14.403,0,23.727-10.821,27.968-32.466l0.274-9.762
		c-18.427-5.337-43.013-18.334-73.763-38.991l0.329,5.484C155.223,127.472,154.728,131.769,154.253,135.644z M229.77,156.428
		l1.701,13.436v10.805c0,8.92-5.723,17.822-17.166,26.707l-11.462,4.442l6.966,1.316h0.656c18.244,0,29.908-13.163,34.99-39.485
		l-2.414-14.753c-3.765-0.256-7.896-0.986-12.395-2.193C230.355,156.592,230.063,156.502,229.77,156.428z"/>
	<path fill-rule="evenodd" clip-rule="evenodd" fill="#F47B20" d="M64.095,111.951c7.239,0,11.7-5.52,13.381-16.561
		c-1.279-10.603-6.361-15.904-15.246-15.904h-1.919c-8.921,0-14.021,6.16-15.3,18.481c0,7.605,5.1,12.266,15.3,13.984H64.095z
		 M90.2,89.687v5.101l1.261,5.045c-5.082,14.002-11.225,21.004-18.427,21.004c0,1.279,1.262,2.139,3.784,2.577
		c11.883,0,18.683-6.581,20.4-19.743c0-5.923-1.918-10.585-5.757-13.984H90.2z M155.022,110.197l4.551-2.688
		c42.41-27.604,71.257-41.405,86.538-41.405c8.885,0,14.606,7.002,17.165,21.004v2.577c0,8.482-2.759,16.965-8.28,25.446
		c-5.922,8.883-16.306,14.826-31.149,17.823c0,1.682,0.622,2.523,1.865,2.523c8.079,0,16.142-2.341,24.185-7.021
		c17.843-13.125,26.762-29.449,26.762-48.973l-0.657-12.724c2.559,0.439,4.039,5.54,4.441,15.3v1.866
		c-7.641,44.568-19.522,66.852-35.646,66.852h-4.441c-16.015,0-44.367-11.957-85.059-35.867L155.022,110.197z M56.308,158.896
		c4.205-0.364,8.848-1.297,13.93-2.797c-2.815,6.473-4.223,12.96-4.223,19.469l1.262,7.624c5.959,17.84,15.301,26.762,28.023,26.762
		v1.864l-7.019,1.316h-5.047c-19.522-6.362-29.284-20.785-29.284-43.271L56.308,158.896z M69.853,164.765l1.371-8.939
		c18.683-5.74,43.105-19.123,73.268-40.144c0.584,8.408,1.116,15.703,1.59,21.881l-3.07,3.674
		c-3.4,4.241-7.423,12.504-12.066,24.787c-11.48,21.645-22.082,32.466-31.808,32.466h-5.101
		C77.915,192.532,69.853,181.29,69.853,164.765z M22.745,66.105l-0.604,11.462c0,10.602,2.542,21.205,7.623,31.808
		c12.286,17.403,25.428,26.104,39.431,26.104c0.877-0.147,2.797-0.568,5.759-1.263l-14.643-5.758
		c-17.403-9.725-26.105-22.649-26.105-38.772c0-11.881,5.522-19.743,16.563-23.582c16.525,0,45.793,13.801,87.8,41.405l5.431,1.097
		c0.109,1.718,0.219,3.399,0.328,5.045c-43.032,24.753-71.256,37.129-84.674,37.129h-5.704c-5.521,0-11.461-3.182-17.823-9.543
		c-11.881-22.485-17.823-41.788-17.823-57.912v-5.101C19.583,70.145,21.063,66.105,22.745,66.105z M177.999,139.921
		c0-0.841-1.698-1.682-5.1-2.522c-4.24,0.438-6.361,1.717-6.361,3.839v5.704l1.316,2.522h1.261c0-4.643,2.963-7.385,8.884-8.226
		V139.921z M167.196,131.036l-1.919-1.918h-1.92l-3.784,3.838v3.181l0.604,1.918l5.1-7.019l1.919,1.26V131.036z M114.385,167.944
		c0-5.959-4.461-10.201-13.381-12.723c-8.884,0-13.747,4.881-14.588,14.642c2.12,8.886,5.923,13.328,11.407,13.328h3.84
		C108.462,183.191,112.702,178.108,114.385,167.944z M103.58,148.859v1.921c11.006,0.84,16.507,5.922,16.507,15.244
		c2.56-1.278,3.84-3.619,3.84-7.019v-5.704c-1.682-5.082-5.503-7.622-11.463-7.622L103.58,148.859z M126.449,137.398l-6.362,1.918
		v1.92c6.362,0.84,9.544,3.583,9.544,8.226c2.12-0.84,3.18-3.381,3.18-7.623C131.568,139.317,129.447,137.836,126.449,137.398z
		 M135.388,129.118h-4.442v1.918c2.12,0,4.021,0.641,5.704,1.92l-1.262,5.099h3.181l0.603-2.576
		C139.172,132.517,137.912,130.397,135.388,129.118z M124.584,111.951v-5.758h-2.577l0.659,3.182
		c-0.439,6.361-2.358,9.543-5.759,9.543l1.316,1.919C122.464,119.154,124.584,116.193,124.584,111.951z M114.385,109.375
		c-1.281-4.644-2.981-8.446-5.101-11.408l-1.918,0.603l1.315,7.021v1.919c0,8.043-3.619,13.126-10.859,15.246v1.92h3.84
		C108.462,124.675,112.702,119.575,114.385,109.375z M176.08,106.193h-1.262l-1.919,1.316c0,5.083,1.919,9.524,5.759,13.327
		l1.919-1.262c-2.998-2.962-4.497-5.723-4.497-8.281V106.193z M154.253,135.644c0.475-3.875,0.97-8.171,1.48-12.888l-0.329-5.484
		c30.75,20.657,55.336,33.654,73.763,38.991l-0.274,9.762c-4.241,21.645-13.564,32.466-27.968,32.466
		c-8.482,0-17.825-7.222-28.025-21.662C163.54,155.111,157.323,141.383,154.253,135.644z M200.925,155.222
		c-11.044,1.28-16.563,5.101-16.563,11.462v3.18c0,7.605,4.46,12.047,13.38,13.328h1.919c6.766,0,10.787-4.442,12.066-13.328v-1.315
		C211.728,161.783,208.127,157.343,200.925,155.222z M207.943,89.687c-4.278,2.523-6.416,6.544-6.416,12.065v3.838
		c0,9.762,6.58,15.702,19.742,17.824l3.838-0.659v-3.18c-9.322,0-15.045-7.642-17.164-22.924l0.603-5.703L207.943,89.687z
		 M189.461,106.193l1.919-7.624l-1.26-0.603c-3.839,2.121-5.758,5.923-5.758,11.408c1.279,10.602,6.38,15.904,15.299,15.904
		l1.264-0.604C193.281,119.594,189.461,113.433,189.461,106.193z M253.078,98.57v-5.099c-2.523-9.323-7.186-13.984-13.985-13.984
		h-2.521c-10.201,1.279-15.302,5.94-15.302,13.984c1.279,13.162,5.941,19.744,13.984,19.744
		C247.136,110.653,253.078,105.773,253.078,98.57z M176.739,166.024l1.919-1.26c0-8.482,5.082-13.145,15.245-13.984v-1.317
		c0-1.243-2.759-2.503-8.28-3.783h-1.261c-5.521,0-8.903,3.82-10.146,11.461C174.216,159.664,175.057,162.626,176.739,166.024z
		 M229.77,156.428c0.293,0.074,0.586,0.164,0.877,0.274c4.498,1.207,8.63,1.938,12.395,2.193l2.414,14.753
		c-5.082,26.322-16.746,39.485-34.99,39.485h-0.656l-6.966-1.316l11.462-4.442c11.443-8.885,17.166-17.787,17.166-26.707v-10.805
		L229.77,156.428z"/>
	<path fill-rule="evenodd" clip-rule="evenodd" fill="#F8E465" d="M90.2,89.687h1.261c3.838,3.399,5.757,8.061,5.757,13.984
		c-1.717,13.162-8.517,19.743-20.4,19.743c-2.522-0.438-3.784-1.298-3.784-2.577c7.202,0,13.345-7.002,18.427-21.004L90.2,94.787
		V89.687z M64.095,111.951h-3.784c-10.201-1.718-15.3-6.379-15.3-13.984c1.28-12.321,6.379-18.481,15.3-18.481h1.919
		c8.884,0,13.967,5.301,15.246,15.904C75.794,106.431,71.334,111.951,64.095,111.951z M176.08,106.193v5.101
		c0,2.558,1.499,5.319,4.497,8.281l-1.919,1.262c-3.84-3.803-5.759-8.245-5.759-13.327l1.919-1.316H176.08z M114.385,109.375
		c-1.683,10.2-5.922,15.3-12.723,15.3h-3.84v-1.92c7.24-2.12,10.859-7.203,10.859-15.246v-1.919l-1.315-7.021l1.918-0.603
		C111.404,100.929,113.104,104.731,114.385,109.375z M124.584,111.951c0,4.242-2.12,7.203-6.361,8.886l-1.316-1.919
		c3.4,0,5.32-3.182,5.759-9.543l-0.659-3.182h2.577V111.951z M135.388,129.118c2.523,1.279,3.784,3.399,3.784,6.362l-0.603,2.576
		h-3.181l1.262-5.099c-1.683-1.279-3.584-1.92-5.704-1.92v-1.918H135.388z M126.449,137.398c2.998,0.438,5.119,1.918,6.362,4.442
		c0,4.241-1.061,6.782-3.18,7.623c0-4.643-3.182-7.385-9.544-8.226v-1.92L126.449,137.398z M103.58,148.859l8.884-3.18
		c5.96,0,9.781,2.54,11.463,7.622v5.704c0,3.399-1.281,5.74-3.84,7.019c0-9.322-5.501-14.404-16.507-15.244V148.859z
		 M114.385,167.944c-1.683,10.164-5.922,15.247-12.723,15.247h-3.84c-5.484,0-9.287-4.442-11.407-13.328
		c0.841-9.761,5.704-14.642,14.588-14.642C109.924,157.743,114.385,161.985,114.385,167.944z M167.196,131.036v1.26l-1.919-1.26
		l-5.1,7.019l-0.604-1.918v-3.181l3.784-3.838h1.92L167.196,131.036z M177.999,139.921v1.316c-5.921,0.84-8.884,3.583-8.884,8.226
		h-1.261l-1.316-2.522v-5.704c0-2.122,2.121-3.401,6.361-3.839C176.301,138.239,177.999,139.08,177.999,139.921z M176.739,166.024
		c-1.683-3.398-2.523-6.36-2.523-8.884c1.243-7.641,4.625-11.461,10.146-11.461h1.261c5.521,1.28,8.28,2.54,8.28,3.783v1.317
		c-10.163,0.84-15.245,5.502-15.245,13.984L176.739,166.024z M253.078,98.57c0,7.204-5.942,12.083-17.824,14.645
		c-8.043,0-12.705-6.582-13.984-19.744c0-8.044,5.101-12.706,15.302-13.984h2.521c6.8,0,11.462,4.661,13.985,13.984V98.57z
		 M189.461,106.193c0,7.24,3.82,13.401,11.464,18.482l-1.264,0.604c-8.919,0-14.02-5.302-15.299-15.904
		c0-5.484,1.919-9.287,5.758-11.408l1.26,0.603L189.461,106.193z M207.943,89.687l0.603,1.262l-0.603,5.703
		c2.119,15.283,7.842,22.924,17.164,22.924v3.18l-3.838,0.659c-13.162-2.122-19.742-8.062-19.742-17.824v-3.838
		C201.527,96.231,203.665,92.209,207.943,89.687z M200.925,155.222c7.202,2.121,10.803,6.562,10.803,13.326v1.315
		c-1.279,8.886-5.301,13.328-12.066,13.328h-1.919c-8.92-1.281-13.38-5.723-13.38-13.328v-3.18
		C184.362,160.322,189.881,156.502,200.925,155.222z"/>
	<path fill-rule="evenodd" clip-rule="evenodd" fill="#38459C" d="M243.034,101.446c-1.534,1.389-3.399,2.084-5.593,2.084
		c-2.194,0-4.059-0.695-5.594-2.084c-1.536-1.353-2.305-2.999-2.305-4.936c0-1.938,0.769-3.602,2.305-4.991
		c1.535-1.353,3.399-2.029,5.594-2.029c2.193,0,4.059,0.676,5.593,2.029c1.536,1.389,2.303,3.052,2.303,4.991
		C245.337,98.448,244.57,100.093,243.034,101.446z M205.003,175.175c-1.536,1.39-3.4,2.085-5.594,2.085
		c-2.194,0-4.057-0.695-5.594-2.085c-1.534-1.354-2.304-2.998-2.304-4.937c0-1.938,0.77-3.6,2.304-4.99
		c1.537-1.353,3.399-2.028,5.594-2.028c2.193,0,4.058,0.676,5.594,2.028c1.536,1.391,2.304,3.053,2.304,4.99
		C207.307,172.177,206.539,173.821,205.003,175.175z M105.392,174.145c-1.534,1.391-3.398,2.085-5.592,2.085
		c-2.193,0-4.059-0.694-5.594-2.085c-1.535-1.354-2.303-2.998-2.303-4.936c0-1.937,0.768-3.601,2.303-4.99
		c1.535-1.354,3.401-2.028,5.594-2.028c2.194,0,4.059,0.675,5.592,2.028c1.537,1.39,2.304,3.054,2.304,4.99
		C107.695,171.146,106.928,172.791,105.392,174.145z M67.361,101.446c-1.535,1.389-3.399,2.084-5.593,2.084
		c-2.194,0-4.059-0.695-5.594-2.084c-1.535-1.353-2.304-2.999-2.304-4.936c0-1.938,0.769-3.602,2.304-4.991
		c1.535-1.353,3.4-2.029,5.594-2.029c2.193,0,4.058,0.676,5.593,2.029c1.536,1.389,2.304,3.052,2.304,4.991
		C69.665,98.448,68.897,100.093,67.361,101.446z"/>
</g>
</svg>
