<?xml version="1.0" encoding="utf-8"?>
<!-- Generator: Adobe Illustrator 16.0.0, SVG Export Plug-In . SVG Version: 6.00 Build 0)  -->
<!DOCTYPE svg PUBLIC "-//W3C//DTD SVG 1.1//EN" "http://www.w3.org/Graphics/SVG/1.1/DTD/svg11.dtd">
<svg version="1.1" id="Layer_1" xmlns="http://www.w3.org/2000/svg" xmlns:xlink="http://www.w3.org/1999/xlink" x="0px" y="0px"
	 width="300px" height="300px" viewBox="0 0 300 300" enable-background="new 0 0 300 300" xml:space="preserve">
<g>
	<path fill-rule="evenodd" clip-rule="evenodd" fill="#52C8EB" d="M176.684,57.884c-8.494,16.823-10.607,32.976-6.339,48.459
		c2.071,7.843,7.517,18.429,16.335,31.758c9.265,14.426,15.117,32.102,17.556,53.031c0.487,3.941,0.833,7.681,1.036,11.215
		c-1.016-6.177-2.723-12.352-5.121-18.53c-8.167-21.212-23.446-34.379-45.837-39.498c0.689-2.601,1.097-4.369,1.22-5.304
		c0.284-2.561-0.53-3.799-2.438-3.717c-5.283,0.975-9.063,0.325-11.338-1.953c-2.683-2.599-2.012-6.745,2.012-12.435
		c4.308-6.136,7.477-12.109,9.508-17.919c2.033-5.73,2.357-9.632,0.976-11.706c-8.452-9.752-8.026-24.321,1.281-43.704
		c2.925-6.055,6.542-12.23,10.849-18.53l5.669-7.681C170.627,33.198,172.172,45.368,176.684,57.884z M168.697,66.355
		c-0.161-2.031-0.872-3.759-2.133-5.18c-1.259-1.381-2.703-1.991-4.327-1.829c-1.666,0.082-3.008,0.914-4.021,2.5
		c-1.059,1.585-1.504,3.414-1.343,5.486c0.163,2.071,0.874,3.779,2.133,5.121c1.261,1.381,2.702,2.012,4.328,1.889
		c1.626-0.122,2.946-0.955,3.961-2.5C168.354,70.257,168.82,68.428,168.697,66.355z M189.788,83.485
		c2.153,3.291,4.512,6.643,7.071,10.058c2.601,3.495,5.648,7.456,9.144,11.886c18.774,23.529,24.099,49.637,15.971,78.328
		c-3.656,12.922-8.859,23.953-15.604,33.097c0-0.974,0-1.929,0-2.864c4.308-17.188,4.531-34.5,0.671-51.934
		c-2.521-11.013-7.742-24.707-15.668-41.083c-4.427-9.267-5.951-18.511-4.57-27.734c0.447-2.846,1.158-5.529,2.133-8.048
		L189.788,83.485z M166.564,92.75c-0.039-1.464-0.528-2.702-1.462-3.718c-0.895-1.017-1.949-1.482-3.17-1.402
		c-1.138,0.122-2.094,0.752-2.865,1.89c-0.732,1.139-1.057,2.459-0.976,3.962c0.082,1.462,0.569,2.702,1.464,3.718
		c0.934,1.017,2.012,1.462,3.23,1.341c1.137-0.122,2.071-0.71,2.805-1.769C166.361,95.635,166.686,94.294,166.564,92.75z
		 M170.953,173.82c0-2.643-0.538-5.721-1.615-9.235c-1.075-3.514-2.629-6.349-4.662-8.502c0.404,2.478,1.2,5.507,2.377,9.082
		C168.514,169.024,169.817,171.911,170.953,173.82z M168.577,136.882c-0.692-0.854-1.524-1.24-2.501-1.158
		c-0.974,0.041-1.746,0.527-2.313,1.462c-0.652,0.936-0.916,2.012-0.793,3.231c0.122,1.219,0.527,2.214,1.219,2.986
		c0.731,0.773,1.584,1.139,2.56,1.099c0.895-0.042,1.646-0.529,2.256-1.464c0.609-0.894,0.873-1.951,0.793-3.169
		C169.674,138.69,169.267,137.694,168.577,136.882z M198.322,132.736c2.81,0.131,5.919-0.569,9.327-2.101
		c3.408-1.534,5.703-3.82,6.887-6.858c-2.275,0.65-5.14,1.89-8.595,3.718C202.773,129.363,200.232,131.111,198.322,132.736z
		 M211.001,137.736c-2.193,3.168-3.881,6.054-5.06,8.654c2.154-2.071,4.35-4.246,6.584-6.521c3.609-3.617,5.215-6.888,4.815-9.815
		C215.553,131.842,213.439,134.404,211.001,137.736z M199.48,106.71c3.293,2.204,6.096,3.22,8.413,3.047
		c-1.992-1.544-4.531-3.068-7.62-4.572s-5.872-2.561-8.352-3.17C193.913,103.559,196.434,105.124,199.48,106.71z M202.864,118.9
		c3.764,0.105,6.803-0.28,9.113-1.158c-2.438-0.609-5.608-1.057-9.51-1.341c-3.738-0.285-6.949-0.244-9.632,0.122
		C195.757,118.001,199.098,118.794,202.864,118.9z M214.171,155.412c2.671-2.561,4.672-5.861,6.003-9.904
		c1.332-4.044,1.606-7.225,0.824-9.541c-1.462,2.723-2.845,5.893-4.145,9.51C215.553,149.053,214.658,152.365,214.171,155.412z
		 M82.751,141.271c3.414,17.473,11.46,29.481,24.138,36.023c6.38,3.292,17.026,5.711,31.941,7.256
		c15.97,1.868,31.208,8.512,45.716,19.932c7.194,5.729,12.84,11.256,16.946,16.579c-6.829-16.214-17.576-28.648-32.245-37.304
		c-8.493-5.08-20.807-9.713-36.938-13.897c-9.104-2.276-15.869-6.93-20.3-13.96c-1.339-2.153-2.377-4.429-3.108-6.827l-0.365-1.768
		c3.657,0.405,7.538,0.69,11.642,0.854c4.145,0.162,8.959,0.285,14.445,0.365c28.894,0.041,48.744,12.415,59.555,37.122
		c5.363,12.394,7.843,24.77,7.435,37.122c-13.328-1.017-23.873-0.387-31.636,1.89c-3.128,1.097-5.302,1.788-6.521,2.073
		c-1.99,0.486-3.961,0.446-5.913-0.123c-5.241-2.153-10.078-2.906-14.506-2.255c-1.667,0.202-6.177,1.523-13.533,3.961
		c-3.778,1.22-7.456-2.376-11.033-10.789c-1.788-4.145-3.027-6.705-3.717-7.68c-1.383-1.828-2.765-1.971-4.146-0.426
		c-3.535,4.754-6.907,7.313-10.119,7.68c-3.697,0.446-5.687-2.723-5.972-9.508c-0.204-7.314-1.24-13.635-3.11-18.957
		c-1.869-5.285-3.963-8.027-6.277-8.229c-12.599,0.487-21.029-9.143-25.298-28.894c-1.341-6.135-2.193-12.943-2.561-20.42
		l-0.061-9.266C63.185,130.4,71.7,136.882,82.751,141.271z M157.056,113.353c-1.787,0.123-3.23,1.017-4.326,2.681
		c-1.139,1.668-1.628,3.617-1.464,5.853c0.162,2.275,0.913,4.145,2.256,5.608c1.341,1.503,2.905,2.174,4.694,2.012
		c1.786-0.082,3.208-0.955,4.266-2.621c1.138-1.708,1.625-3.698,1.462-5.975c-0.122-2.234-0.872-4.103-2.254-5.607
		C160.349,113.841,158.804,113.191,157.056,113.353z M81.533,153.096c-1.382-1.138-2.987-1.707-4.815-1.707
		c-1.789,0.122-3.292,0.895-4.511,2.317c-1.219,1.382-1.787,2.966-1.706,4.754c0.122,1.828,0.875,3.354,2.254,4.572
		c1.343,1.137,2.947,1.664,4.816,1.584c1.829-0.04,3.352-0.771,4.571-2.193c1.139-1.384,1.666-2.987,1.584-4.817
		C83.605,155.818,82.874,154.315,81.533,153.096z M89.03,171.992c-0.893,0.974-1.301,2.113-1.219,3.412
		c0.122,1.343,0.651,2.438,1.585,3.292c0.975,0.935,2.153,1.342,3.534,1.219c1.303-0.04,2.398-0.588,3.292-1.645
		c0.895-0.977,1.281-2.113,1.16-3.414c-0.042-1.3-0.569-2.397-1.585-3.29c-1.016-0.854-2.194-1.241-3.535-1.159
		C90.96,170.528,89.882,171.057,89.03,171.992z M139.195,216.55c1.018-1.057,1.464-2.295,1.343-3.719
		c-0.043-1.381-0.61-2.539-1.707-3.474c-1.016-0.934-2.235-1.362-3.657-1.281c-1.424,0.124-2.603,0.692-3.537,1.707
		c-0.934,1.016-1.359,2.234-1.28,3.657c0.123,1.384,0.691,2.54,1.709,3.475c1.055,0.977,2.273,1.423,3.657,1.343
		C137.144,218.216,138.302,217.648,139.195,216.55z M144.742,171.931c2.104-2.138,3.851-5.003,5.244-8.595
		c1.392-3.592,2.103-6.884,2.134-9.875c-1.504,2.438-2.968,5.425-4.391,8.962C146.226,166.242,145.23,169.412,144.742,171.931z
		 M159.006,174.552c1.116-2.533,1.554-5.734,1.313-9.6c-0.243-3.866-0.925-7.129-2.043-9.784c-0.407,2.967-0.55,6.217-0.427,9.754
		C158.092,168.943,158.478,172.156,159.006,174.552z M121.337,157.483c2.538-0.472,5.585-1.143,9.143-2.011
		c3.559-0.867,6.261-2.798,8.106-5.791c-2.397,0.569-5.383,1.605-8.96,3.109C126.415,154.254,123.652,155.818,121.337,157.483z
		 M139.684,160.441c3.199-3.326,5.518-6.282,6.949-8.869c-2.602,1.666-5.425,3.88-8.473,6.643c-3.008,2.561-5.466,5.121-7.375,7.682
		C133.519,165.585,136.483,163.767,139.684,160.441z M127.798,201.615c0-1.015-0.427-1.868-1.279-2.559
		c-0.773-0.691-1.687-1.037-2.744-1.037c-1.097,0.123-1.972,0.569-2.621,1.342c-0.69,0.813-1.016,1.747-0.975,2.803
		c0.121,1.057,0.568,1.951,1.341,2.683c0.772,0.691,1.686,0.975,2.742,0.854c1.017-0.043,1.909-0.469,2.683-1.282
		C127.634,203.648,127.919,202.714,127.798,201.615z M153.155,211.003c-0.691,0.732-0.995,1.604-0.915,2.621
		c0.122,1.018,0.529,1.85,1.22,2.499c0.771,0.65,1.645,0.956,2.621,0.914c1.057-0.08,1.89-0.487,2.499-1.219
		c0.649-0.772,0.956-1.646,0.915-2.622c-0.082-1.015-0.489-1.848-1.22-2.498c-0.772-0.691-1.646-0.994-2.622-0.915
		C154.639,209.905,153.806,210.313,153.155,211.003z M112.924,196.495c-0.121-1.949-0.893-3.575-2.316-4.876
		c-1.503-1.3-3.209-1.89-5.119-1.767c-2.033,0.12-3.678,0.893-4.939,2.314c-1.259,1.504-1.848,3.253-1.766,5.243
		c0.121,1.951,0.914,3.575,2.375,4.877c1.464,1.301,3.171,1.91,5.121,1.828c1.993-0.122,3.638-0.956,4.938-2.5
		C112.478,200.152,113.046,198.447,112.924,196.495z M158.854,249.16c-2.031-2.661-4.134-4.814-6.309-6.461
		c1.137,2.073,2.804,4.573,4.997,7.498c2.357,3.17,4.227,5.485,5.61,6.948C162.318,254.485,160.886,251.823,158.854,249.16z
		 M148.095,269.58c-3.291,2.562-7.11,4.085-11.459,4.572c-3.535,0.365-5.465-1.564-5.789-5.791
		c-0.408-4.348,1.278-9.021,5.057-14.02c6.381-8.411,15.789-14.365,28.224-17.86c8.209-2.274,17.717-3.493,28.527-3.656
		l-6.096,6.279c-4.187,4.673-6.704,8.352-7.559,11.032c-1.016,3.291-2.012,5.505-2.986,6.644c-1.099,1.139-2.763,1.808-4.998,2.012
		c-0.163,0.04-0.304,0.062-0.429,0.062c-1.095,0.04-1.848,0.487-2.254,1.34c-0.203,0.528-0.448,1.423-0.732,2.683
		c-0.935,2.52-3.798,3.696-8.595,3.536C154.658,266.248,151.021,267.307,148.095,269.58z M175.646,243.858
		c0.246-3.183-0.018-6.089-0.793-8.718c-0.485,2.276-0.852,5.081-1.095,8.413c-0.245,3.778-0.348,6.602-0.306,8.473
		C174.669,249.764,175.4,247.041,175.646,243.858z M167.053,245.077c-0.625-3.25-1.54-5.851-2.742-7.803
		c0.202,1.909,0.69,4.755,1.462,8.534c0.732,3.21,1.482,6.034,2.256,8.472C168.002,251.397,167.677,248.327,167.053,245.077z
		 M171.016,219.353c0.689-0.69,0.974-1.522,0.853-2.499c-0.081-0.892-0.468-1.664-1.156-2.313c-0.734-0.609-1.546-0.895-2.44-0.854
		c-0.977,0.081-1.767,0.466-2.377,1.158c-0.569,0.691-0.833,1.524-0.792,2.498c0.039,0.936,0.406,1.727,1.098,2.378
		c0.73,0.609,1.563,0.873,2.497,0.793C169.674,220.471,170.446,220.087,171.016,219.353z M150.047,255.988
		c4.307,2.113,7.212,3.454,8.716,4.022c-1.914-2.5-4.333-4.653-7.252-6.46c-2.922-1.81-6.173-2.602-9.754-2.379
		C143.343,252.269,146.104,253.875,150.047,255.988z M152.24,263.485c-1.755-1.206-4.225-2.244-7.406-3.108
		c-3.181-0.865-6.3-0.745-9.356,0.366c2.438,0.649,5.201,1.238,8.291,1.767C147.425,263.04,150.249,263.364,152.24,263.485z"/>
	<path fill-rule="evenodd" clip-rule="evenodd" fill="#192615" d="M176.684,57.884c-4.512-12.517-6.057-24.686-4.633-36.513
		l-5.669,7.681c-4.307,6.299-7.924,12.475-10.849,18.53c-9.308,19.383-9.733,33.952-1.281,43.704
		c1.382,2.074,1.058,5.975-0.976,11.706c-2.031,5.81-5.2,11.783-9.508,17.919c-4.023,5.689-4.694,9.835-2.012,12.435
		c2.274,2.277,6.055,2.927,11.338,1.953c1.908-0.082,2.723,1.156,2.438,3.717c-0.123,0.936-0.53,2.703-1.22,5.304
		c22.391,5.119,37.67,18.286,45.837,39.498c2.398,6.179,4.105,12.354,5.121,18.53c0.324,2.195,0.59,4.369,0.793,6.523
		c0.041,0.405,0.082,0.793,0.122,1.158c0.364-4.471,0.609-9.368,0.729-14.689c0.245-17.436-1.909-31.657-6.46-42.669
		c-2.398-5.771-6.096-13.696-11.094-23.773c-4.064-8.208-6.766-14.324-8.107-18.349c-3.738-11.214-2.763-23.324,2.928-36.328
		c-0.733-1.302-1.424-2.601-2.073-3.902l-5.366-12.557C176.704,57.803,176.684,57.843,176.684,57.884z M178.878,5.036
		c-2.479,20.887,0.346,40.575,8.473,59.064c3.536,8.331,10.058,19.018,19.565,32.062c23.652,28.975,30.377,59.31,20.179,91.008
		c-4.878,15.156-11.949,27.653-21.214,37.486c-0.079,0.517-0.141,1.055-0.184,1.615c2.605-2.862,5.185-5.432,7.742-7.711
		c4.796-4.227,8.594-6.643,11.398-7.253c-0.65-1.911-0.63-3.8,0.061-5.67c0.773-1.91,2.053-3.312,3.842-4.205
		c1.991-1.058,4.042-1.239,6.154-0.548c2.073,0.649,3.638,1.97,4.695,3.961c1.056,1.991,1.239,4.043,0.548,6.156
		c-0.649,2.113-1.97,3.678-3.962,4.693c-1.261,0.65-2.602,0.957-4.022,0.915c-1.302-0.04-2.581-0.407-3.84-1.098
		c-0.652,1.585-2.785,4.531-6.4,8.839c-8.575,10.198-13.31,15.869-14.204,17.006c-0.69,0.772-5.709,7.601-15.055,20.48
		c-4.064,5.648-6.868,7.885-8.412,6.706c-1.992-1.504-1.563-5.566,1.28-12.191c2.845-6.664,7.254-13.917,13.227-21.761
		c2.187-2.815,4.36-5.427,6.522-7.833l-8.229,8.503c-5.933,6.663-9.488,11.928-10.668,15.787c-1.503,4.715-2.967,7.844-4.388,9.387
		c-1.627,1.627-4.186,2.562-7.682,2.804c-1.504,0.124-2.539,0.773-3.108,1.953c-0.04,0.12-0.102,0.284-0.182,0.485
		c-0.285,0.773-0.569,1.912-0.854,3.416c-1.3,3.575-5.405,5.241-12.313,4.996c-6.097-0.244-11.235,1.24-15.421,4.45
		c-3.982,3.09-8.494,5.1-13.534,6.034c-0.894,0.163-1.828,0.285-2.803,0.367c-4.957,0.567-7.701-2.134-8.229-8.108
		c-0.486-6.137,1.931-12.759,7.255-19.87c1.178-1.544,2.438-3.027,3.777-4.45c6.056-6.421,13.98-11.765,23.773-16.032
		c0.042-0.041,0.103-0.06,0.183-0.06c14.623-6.418,32.229-9.791,52.817-10.12c-15.707-0.16-27.849,1.181-36.419,4.023
		c-3.252,1.302-5.527,2.093-6.829,2.378c-2.031,0.487-4.266,0.386-6.705-0.306c-5.443-2.274-10.483-2.702-15.116-1.279
		c-6.826,2.031-11.704,3.049-14.628,3.049c-4.756,0-8.373-3.008-10.851-9.022c-1.057-2.601-1.869-4.145-2.438-4.632
		c-0.976-0.854-2.357-0.468-4.144,1.157c-4.187,3.577-8.982,5.039-14.388,4.389c-6.38-0.812-9.71-5.222-9.995-13.228
		c-0.325-8.817-1.097-14.995-2.316-18.53c-1.219-3.494-3.211-5.384-5.975-5.667c-15.238,0.568-23.67-13.024-25.296-40.78
		c-0.447-8.655-0.202-18.225,0.732-28.709l1.525-13.105c10.646,15.238,24.686,25.539,42.12,30.904
		c7.802,2.438,19.384,4.063,34.743,4.876c3.252-0.041,6.381,0.041,9.388,0.244c-2.681-1.342-4.999-3.537-6.949-6.584
		c-3.616-5.811-3.108-12.049,1.524-18.713c5.283-7.477,8.595-13.125,9.936-16.946c1.382-3.778,1.239-6.887-0.426-9.325
		c-10.24-11.906-7.375-29.706,8.593-53.397c5-7.437,11.015-14.995,18.045-22.674L178.878,5.036z M189.788,83.485l-0.854,1.706
		c-0.975,2.519-1.686,5.202-2.133,8.048c-1.381,9.224,0.144,18.468,4.57,27.734c7.926,16.375,13.147,30.07,15.668,41.083
		c3.86,17.434,3.637,34.745-0.671,51.934c0,0.936,0,1.891,0,2.864c6.745-9.144,11.948-20.175,15.604-33.097
		c8.128-28.69,2.804-54.798-15.971-78.328c-3.495-4.431-6.543-8.392-9.144-11.886C194.3,90.128,191.941,86.776,189.788,83.485z
		 M241.905,155.229c-1.909-0.771-4.104-1.097-6.583-0.975c2.479-0.529,4.755-0.447,6.827,0.244c2.438,0.73,4.187,2.314,5.241,4.755
		c0.773,1.666,1.099,4.001,0.977,7.009c-0.122,1.868-0.527,4.105-1.22,6.704c-1.097,3.984-2.783,8.25-5.059,12.803l-3.23,5.973
		c-2.154,3.332-3.394,5.242-3.719,5.73l5.853-12.254c2.031-4.795,3.555-8.999,4.57-12.616c0.731-2.479,1.139-4.652,1.219-6.522
		c0.285-2.397,0.062-4.511-0.671-6.339C245.421,157.586,244.019,156.083,241.905,155.229z M249.829,156.874
		c2.438,0.284,4.226,1.402,5.365,3.354c0.934,1.788,1.259,3.921,0.974,6.399c-0.324,3.374-1.604,7.438-3.84,12.192
		c-1.868,3.778-3.981,7.477-6.338,11.094c-2.846,4.266-5.405,7.641-7.681,10.118l6.644-10.851c2.397-4.063,4.37-7.721,5.913-10.972
		c2.235-4.634,3.597-8.555,4.083-11.764c0.366-2.276,0.205-4.206-0.486-5.79C253.812,158.907,252.268,157.647,249.829,156.874z
		 M94.517,144.928l-11.766-3.657C71.7,136.882,63.185,130.4,57.211,121.825l0.061,9.266c0.367,7.477,1.22,14.285,2.561,20.42
		c4.269,19.751,12.699,29.381,25.298,28.894c2.314,0.202,4.408,2.944,6.277,8.229c1.87,5.322,2.906,11.643,3.11,18.957
		c0.285,6.785,2.274,9.954,5.972,9.508c3.212-0.366,6.584-2.926,10.119-7.68c1.382-1.545,2.763-1.402,4.146,0.426
		c0.69,0.975,1.929,3.535,3.717,7.68c3.577,8.413,7.255,12.009,11.033,10.789c7.356-2.438,11.866-3.759,13.533-3.961
		c4.428-0.651,9.265,0.102,14.506,2.255c1.952,0.569,3.923,0.609,5.913,0.123c1.22-0.285,3.394-0.977,6.521-2.073
		c7.763-2.276,18.308-2.906,31.636-1.89c0.408-12.353-2.071-24.729-7.435-37.122c-10.811-24.707-30.661-37.081-59.555-37.122
		c-5.486-0.08-10.301-0.204-14.445-0.365c-4.104-0.164-7.985-0.449-11.642-0.854l0.365,1.768c0.731,2.398,1.769,4.673,3.108,6.827
		c4.431,7.03,11.195,11.684,20.3,13.96c16.132,4.185,28.445,8.817,36.938,13.897c14.669,8.655,25.416,21.09,32.245,37.304
		c-3.089-4.958-7.215-10.302-12.373-16.032c-10.242-11.296-20.482-18.65-30.724-22.064c-5.323-1.83-12.983-3.962-22.979-6.4
		c-8.127-1.992-13.939-3.718-17.432-5.181c-9.712-4.187-16.216-12.721-19.507-25.603C97.137,145.538,95.817,145.253,94.517,144.928z
		 M148.095,269.58c2.927-2.273,6.563-3.332,10.911-3.168c4.797,0.16,7.66-1.017,8.595-3.536c0.284-1.26,0.529-2.154,0.732-2.683
		c0.406-0.853,1.159-1.3,2.254-1.34c0.125,0,0.266-0.021,0.429-0.062c2.235-0.204,3.899-0.873,4.998-2.012
		c0.975-1.139,1.971-3.353,2.986-6.644c0.854-2.681,3.372-6.359,7.559-11.032l6.096-6.279c-10.811,0.163-20.318,1.382-28.527,3.656
		c-12.435,3.495-21.843,9.449-28.224,17.86c-3.778,4.999-5.465,9.672-5.057,14.02c0.324,4.227,2.254,6.156,5.789,5.791
		C140.984,273.665,144.804,272.142,148.095,269.58z"/>
	<path fill-rule="evenodd" clip-rule="evenodd" fill="#FFFFFF" d="M206.064,208.87c1.544-19.911,0-36.979-4.635-51.203
		c-2.031-6.095-4.956-12.76-8.775-19.994c-4.592-8.126-8.026-14.365-10.302-18.712c-5.729-10.891-7.499-22.27-5.304-34.135
		c0.732-3.698,1.808-7.254,3.231-10.667l1.829-3.84c0.649,1.301,1.34,2.6,2.073,3.902c-5.69,13.004-6.666,25.114-2.928,36.328
		c1.342,4.024,4.043,10.14,8.107,18.349c4.998,10.077,8.695,18.002,11.094,23.773c4.551,11.012,6.705,25.233,6.46,42.669
		c-0.12,5.321-0.365,10.219-0.729,14.689C206.146,209.663,206.105,209.275,206.064,208.87z M168.697,66.355
		c0.123,2.073-0.344,3.902-1.402,5.486c-1.015,1.545-2.335,2.379-3.961,2.5c-1.626,0.123-3.067-0.508-4.328-1.889
		c-1.259-1.341-1.97-3.05-2.133-5.121c-0.161-2.072,0.284-3.9,1.343-5.486c1.014-1.586,2.355-2.417,4.021-2.5
		c1.624-0.162,3.068,0.447,4.327,1.829C167.825,62.597,168.536,64.324,168.697,66.355z M157.056,113.353
		c1.748-0.162,3.293,0.488,4.634,1.951c1.382,1.504,2.132,3.373,2.254,5.607c0.163,2.277-0.324,4.267-1.462,5.975
		c-1.058,1.666-2.479,2.539-4.266,2.621c-1.789,0.163-3.354-0.508-4.694-2.012c-1.343-1.463-2.094-3.333-2.256-5.608
		c-0.164-2.235,0.325-4.185,1.464-5.853C153.825,114.37,155.269,113.476,157.056,113.353z M94.517,144.928
		c1.3,0.325,2.62,0.609,3.961,0.852c3.291,12.882,9.794,21.416,19.507,25.603c3.492,1.463,9.305,3.188,17.432,5.181
		c9.996,2.438,17.656,4.57,22.979,6.4c10.241,3.414,20.481,10.769,30.724,22.064c5.158,5.73,9.284,11.074,12.373,16.032
		c-12.15-17.555-25.256-29.463-39.316-35.719c-5.202-2.276-11.501-4.208-18.896-5.791c-8.453-1.544-14.895-2.804-19.323-3.78
		c-11.094-2.396-19.323-8.25-24.688-17.556c-1.665-2.965-2.966-6.053-3.9-9.265L94.517,144.928z M89.03,171.992
		c0.852-0.936,1.93-1.464,3.23-1.585c1.341-0.082,2.519,0.305,3.535,1.159c1.017,0.893,1.544,1.99,1.585,3.29
		c0.121,1.301-0.265,2.438-1.16,3.414c-0.894,1.057-1.989,1.604-3.292,1.645c-1.38,0.123-2.559-0.284-3.534-1.219
		c-0.935-0.854-1.463-1.949-1.585-3.292C87.729,174.105,88.138,172.966,89.03,171.992z M153.155,211.003
		c0.65-0.689,1.483-1.098,2.498-1.22c0.977-0.079,1.85,0.224,2.622,0.915c0.73,0.65,1.138,1.483,1.22,2.498
		c0.041,0.977-0.266,1.85-0.915,2.622c-0.609,0.731-1.442,1.139-2.499,1.219c-0.977,0.042-1.85-0.264-2.621-0.914
		c-0.69-0.649-1.098-1.481-1.22-2.499C152.16,212.607,152.464,211.735,153.155,211.003z M127.798,201.615
		c0.121,1.099-0.164,2.033-0.854,2.804c-0.773,0.813-1.666,1.239-2.683,1.282c-1.057,0.12-1.97-0.163-2.742-0.854
		c-0.772-0.731-1.22-1.626-1.341-2.683c-0.041-1.056,0.284-1.99,0.975-2.803c0.649-0.772,1.524-1.219,2.621-1.342
		c1.058,0,1.971,0.346,2.744,1.037C127.371,199.747,127.798,200.601,127.798,201.615z"/>
	<path fill-rule="evenodd" clip-rule="evenodd" fill="#7DC242" d="M205.271,202.347c-0.203-3.534-0.549-7.273-1.036-11.215
		c-2.438-20.929-8.291-38.604-17.556-53.031c-8.818-13.329-14.264-23.915-16.335-31.758c-4.269-15.483-2.155-31.636,6.339-48.459
		c0-0.042,0.021-0.082,0.06-0.123l5.366,12.557l-1.829,3.84c-1.424,3.413-2.499,6.97-3.231,10.667
		c-2.195,11.866-0.426,23.244,5.304,34.135c2.275,4.347,5.71,10.585,10.302,18.712c3.819,7.234,6.744,13.899,8.775,19.994
		c4.635,14.224,6.179,31.292,4.635,51.203C205.861,206.716,205.596,204.542,205.271,202.347z M82.751,141.271l11.766,3.657
		l0.853,4.022c0.934,3.212,2.236,6.3,3.9,9.265c5.365,9.306,13.594,15.16,24.688,17.556c4.429,0.977,10.87,2.236,19.323,3.78
		c7.395,1.583,13.693,3.515,18.896,5.791c14.061,6.256,27.166,18.164,39.316,35.719c-4.106-5.323-9.752-10.851-16.946-16.579
		c-14.508-11.42-29.746-18.063-45.716-19.932c-14.915-1.545-25.562-3.964-31.941-7.256
		C94.212,170.752,86.166,158.744,82.751,141.271z"/>
	<path fill-rule="evenodd" clip-rule="evenodd" fill="#F3E85C" d="M166.564,92.75c0.121,1.544-0.203,2.885-0.974,4.022
		c-0.733,1.059-1.668,1.647-2.805,1.769c-1.219,0.121-2.297-0.324-3.23-1.341c-0.895-1.016-1.382-2.256-1.464-3.718
		c-0.081-1.503,0.243-2.824,0.976-3.962c0.771-1.137,1.728-1.768,2.865-1.89c1.221-0.08,2.275,0.386,3.17,1.402
		C166.036,90.048,166.525,91.286,166.564,92.75z M202.864,118.9c-3.767-0.106-7.107-0.899-10.028-2.377
		c2.683-0.366,5.894-0.407,9.632-0.122c3.901,0.285,7.071,0.732,9.51,1.341C209.667,118.62,206.628,119.006,202.864,118.9z
		 M199.48,106.71c-3.047-1.586-5.567-3.151-7.559-4.695c2.479,0.609,5.263,1.666,8.352,3.17s5.628,3.028,7.62,4.572
		C205.576,109.93,202.773,108.914,199.48,106.71z M211.001,137.736c2.438-3.332,4.552-5.894,6.34-7.683
		c0.399,2.927-1.206,6.198-4.815,9.815c-2.234,2.275-4.43,4.45-6.584,6.521C207.12,143.79,208.808,140.904,211.001,137.736z
		 M198.322,132.736c1.91-1.625,4.451-3.373,7.619-5.241c3.455-1.829,6.319-3.068,8.595-3.718c-1.184,3.039-3.479,5.325-6.887,6.858
		C204.241,132.167,201.132,132.867,198.322,132.736z M168.577,136.882c0.689,0.813,1.097,1.808,1.22,2.987
		c0.08,1.219-0.184,2.275-0.793,3.169c-0.61,0.935-1.361,1.422-2.256,1.464c-0.976,0.04-1.828-0.325-2.56-1.099
		c-0.691-0.772-1.097-1.768-1.219-2.986c-0.123-1.219,0.141-2.295,0.793-3.231c0.567-0.935,1.34-1.421,2.313-1.462
		C167.053,135.642,167.885,136.028,168.577,136.882z M170.953,173.82c-1.136-1.909-2.439-4.796-3.9-8.655
		c-1.177-3.575-1.973-6.604-2.377-9.082c2.033,2.153,3.587,4.988,4.662,8.502C170.415,168.1,170.953,171.178,170.953,173.82z
		 M214.171,155.412c0.487-3.047,1.382-6.359,2.683-9.936c1.3-3.617,2.683-6.787,4.145-9.51c0.782,2.316,0.508,5.497-0.824,9.541
		C218.843,149.551,216.842,152.852,214.171,155.412z M81.533,153.096c1.341,1.22,2.073,2.723,2.193,4.51
		c0.082,1.83-0.445,3.434-1.584,4.817c-1.219,1.422-2.742,2.153-4.571,2.193c-1.87,0.08-3.473-0.447-4.816-1.584
		c-1.379-1.219-2.132-2.744-2.254-4.572c-0.081-1.788,0.487-3.372,1.706-4.754c1.219-1.423,2.723-2.195,4.511-2.317
		C78.545,151.389,80.151,151.958,81.533,153.096z M139.684,160.441c-3.2,3.325-6.165,5.144-8.898,5.455
		c1.909-2.561,4.367-5.121,7.375-7.682c3.048-2.763,5.871-4.977,8.473-6.643C145.201,154.159,142.883,157.115,139.684,160.441z
		 M121.337,157.483c2.315-1.665,5.078-3.229,8.289-4.692c3.577-1.504,6.563-2.54,8.96-3.109c-1.846,2.993-4.548,4.923-8.106,5.791
		C126.922,156.341,123.875,157.012,121.337,157.483z M159.006,174.552c-0.528-2.396-0.914-5.608-1.157-9.63
		c-0.123-3.537,0.02-6.787,0.427-9.754c1.118,2.655,1.8,5.918,2.043,9.784C160.56,168.817,160.122,172.019,159.006,174.552z
		 M144.742,171.931c0.488-2.519,1.483-5.688,2.987-9.508c1.423-3.537,2.887-6.523,4.391-8.962c-0.031,2.991-0.742,6.283-2.134,9.875
		C148.593,166.928,146.846,169.793,144.742,171.931z M139.195,216.55c-0.894,1.099-2.052,1.666-3.473,1.708
		c-1.384,0.08-2.603-0.366-3.657-1.343c-1.018-0.935-1.586-2.091-1.709-3.475c-0.079-1.423,0.347-2.642,1.28-3.657
		c0.935-1.015,2.113-1.583,3.537-1.707c1.422-0.081,2.642,0.348,3.657,1.281c1.097,0.935,1.664,2.093,1.707,3.474
		C140.659,214.255,140.213,215.493,139.195,216.55z M158.854,249.16c2.031,2.663,3.464,5.325,4.299,7.985
		c-1.384-1.463-3.253-3.778-5.61-6.948c-2.193-2.925-3.86-5.425-4.997-7.498C154.721,244.346,156.823,246.499,158.854,249.16z
		 M112.924,196.495c0.122,1.952-0.446,3.657-1.706,5.12c-1.3,1.544-2.945,2.378-4.938,2.5c-1.949,0.082-3.657-0.527-5.121-1.828
		c-1.462-1.302-2.254-2.926-2.375-4.877c-0.082-1.99,0.507-3.739,1.766-5.243c1.261-1.422,2.906-2.194,4.939-2.314
		c1.909-0.123,3.615,0.467,5.119,1.767C112.031,192.92,112.803,194.546,112.924,196.495z M152.24,263.485
		c-1.991-0.121-4.815-0.445-8.472-0.976c-3.09-0.528-5.853-1.117-8.291-1.767c3.057-1.111,6.176-1.231,9.356-0.366
		C148.016,261.241,150.485,262.279,152.24,263.485z M150.047,255.988c-3.942-2.113-6.704-3.72-8.29-4.816
		c3.581-0.223,6.832,0.569,9.754,2.379c2.919,1.807,5.338,3.96,7.252,6.46C157.259,259.442,154.354,258.102,150.047,255.988z
		 M171.016,219.353c-0.569,0.734-1.342,1.118-2.318,1.16c-0.934,0.08-1.767-0.184-2.497-0.793c-0.691-0.651-1.059-1.442-1.098-2.378
		c-0.041-0.974,0.223-1.807,0.792-2.498c0.61-0.692,1.4-1.077,2.377-1.158c0.895-0.04,1.706,0.245,2.44,0.854
		c0.688,0.649,1.075,1.422,1.156,2.313C171.989,217.83,171.705,218.662,171.016,219.353z M167.053,245.077
		c0.624,3.25,0.949,6.32,0.976,9.203c-0.773-2.438-1.523-5.262-2.256-8.472c-0.771-3.779-1.26-6.625-1.462-8.534
		C165.513,239.227,166.428,241.827,167.053,245.077z M175.646,243.858c-0.246,3.183-0.978,5.905-2.193,8.168
		c-0.042-1.871,0.061-4.694,0.306-8.473c0.243-3.332,0.609-6.137,1.095-8.413C175.629,237.77,175.893,240.676,175.646,243.858z"/>
</g>
</svg>
