<?xml version="1.0" encoding="utf-8"?>
<!-- Generator: Adobe Illustrator 16.0.0, SVG Export Plug-In . SVG Version: 6.00 Build 0)  -->
<!DOCTYPE svg PUBLIC "-//W3C//DTD SVG 1.1//EN" "http://www.w3.org/Graphics/SVG/1.1/DTD/svg11.dtd">
<svg version="1.1" id="Layer_1" xmlns="http://www.w3.org/2000/svg" xmlns:xlink="http://www.w3.org/1999/xlink" x="0px" y="0px"
	 width="300px" height="300px" viewBox="0 0 300 300" enable-background="new 0 0 300 300" xml:space="preserve">
<g>
	<path fill-rule="evenodd" clip-rule="evenodd" fill="#1A1A1A" d="M192.5,36.5l2.55,6.6l46.75,34.35l5.45-0.3
		c-3.3-4.3-6.934-8.433-10.9-12.4C223.283,51.683,208.667,42.267,192.5,36.5z M150.55,22.85c14.033,0,27.15,2.033,39.351,6.1
		c18.866,5.767,35.85,16.2,50.949,31.3c5.233,5.033,9.884,10.45,13.95,16.25c15.767,21.533,23.65,46.267,23.65,74.2
		c0,2.033-0.067,4.183-0.2,6.45c-0.833,20.866-6.283,39.916-16.35,57.149c-3.334,5.467-7.033,10.784-11.101,15.95v0.15
		c-0.1,0-0.149,0.05-0.149,0.149c-3.101,3.534-6.367,7.017-9.801,10.45c-15.1,15.1-32.017,25.7-50.75,31.8
		c-12.333,3.866-25.517,5.8-39.55,5.8c-6.1,0-11.883-0.333-17.35-1c-4.601-0.633-8.934-1.383-13-2.25c-0.101,0-0.2-0.05-0.3-0.149
		C97.4,269.733,77.467,258.334,60.1,241c-3.533-3.434-6.732-7.017-9.6-10.75h-0.2C38,215.017,29.816,198.2,25.75,179.8
		c-1.066-4.833-1.867-9.866-2.4-15.1c-0.433-4.5-0.649-9.167-0.649-14c0-23.867,5.733-45.284,17.2-64.25
		c5.333-9.3,12.066-18.034,20.199-26.2C75.533,44.85,92.883,34.3,112.15,28.6C124.15,24.767,136.95,22.85,150.55,22.85z M105.9,42.1
		l2.899-5.6c-16.267,5.667-31,15.083-44.2,28.25c-6.3,6.333-11.75,13.133-16.35,20.4L54,83.7L105.9,42.1z M191.7,46.6L151.85,68.15
		v36.8l41.45,29.7l34.851-8.2l10.449-45.3L191.7,46.6z M68.95,136.75c-0.101,0-0.2,0-0.3,0L39.25,170v0.15l17.8,45.149
		c0.134,0,0.25,0,0.351,0l48,0.8l18-30.199c-0.101-0.101-0.15-0.217-0.15-0.351l-15.6-44.15L68.95,136.75z M107.35,136.4l0.15-0.15
		l40.8-31.8c0.101-0.1,0.217-0.15,0.351-0.15V67.8L108.8,45.65l-51.55,41.6l13.65,44.8L107.35,136.4z M34.75,172.4l-4.35-3.2
		c0.533,3.1,1.116,6.2,1.75,9.3c3.433,15.533,9.916,29.834,19.449,42.9l0.15-4.2c0-0.434,0.167-0.75,0.5-0.95L34.75,172.4z
		 M271.7,161l-4.351,2.55l-17.5,49.65c0,0.1,0,0.267,0,0.5v7.2c2.334-3.301,4.518-6.566,6.551-9.801
		c3.533-6.1,6.482-12.467,8.85-19.1c1.3-3.633,2.434-7.383,3.4-11.25C270.15,174.316,271.167,167.733,271.7,161z M190.9,136.9
		l-41-29.55l-39.801,31l16.051,45.45H175.6v-0.149L190.9,136.9z M193.6,139.6c-0.1,0-0.199,0-0.3,0l-14.8,45.65
		c-0.1,0.2-0.25,0.416-0.45,0.65L197,215.6l48.2-3.55l17.649-49.95L229.9,130.95L193.6,139.6z M194.25,217.35L175,187h-48.55
		l-18,30.2l20.899,44.5c0.101,0.1,0.15,0.267,0.15,0.5h46.3c0-0.233,0.05-0.45,0.15-0.65L194.25,217.35z M245.65,226.2
		c0.333-0.434,0.649-0.8,0.949-1.101v-9.8l-49.6,3.5l-17.85,43.25v0.8l8.05,4c0.3-0.1,0.667-0.199,1.1-0.3l-0.149,0.15
		c17.899-5.9,33.967-15.967,48.199-30.2c3.2-3.233,6.2-6.45,9-9.65C245.45,226.65,245.55,226.434,245.65,226.2z M196.2,218.8H196
		l-0.15,0.2L196.2,218.8z M125.35,269.75c2.768,0.434,5.717,0.916,8.851,1.45c5.233,0.634,10.683,0.95,16.35,0.95
		c11.267,0,21.983-1.283,32.15-3.851l-2.4-1.3H128.4c-0.233,0-0.45-0.05-0.65-0.15L125.35,269.75z M56.25,225.4
		c0,0.434-0.15,0.816-0.45,1.149c2.667,3.3,5.601,6.616,8.8,9.95c16.167,16.166,34.65,26.983,55.45,32.45
		c0.101-0.333,0.25-0.601,0.45-0.8l4.2-4.851L104.95,220.9l-46.9-0.801c-0.233,0.101-0.45,0.15-0.649,0.15l-0.351-0.15
		c-0.2,0-0.35-0.05-0.45-0.149L56.25,225.4z"/>
	<path fill-rule="evenodd" clip-rule="evenodd" fill="#CE2028" d="M192.5,36.5c16.167,5.767,30.783,15.183,43.85,28.25
		c3.967,3.967,7.601,8.1,10.9,12.4l-5.45,0.3L195.05,43.1L192.5,36.5z M191.7,46.6L238.6,81.15l-10.449,45.3l-34.851,8.2
		l-41.45-29.7v-36.8L191.7,46.6z M105.9,42.1L54,83.7l-5.75,1.45c4.6-7.267,10.05-14.066,16.35-20.4
		c13.2-13.167,27.934-22.583,44.2-28.25L105.9,42.1z M107.35,136.4L70.9,132.05l-13.65-44.8l51.55-41.6L148.65,67.8v36.5
		c-0.134,0-0.25,0.05-0.351,0.15l-40.8,31.8L107.35,136.4z"/>
	<path fill-rule="evenodd" clip-rule="evenodd" fill="#FFFFFF" d="M68.95,136.75l38.7,4.65l15.6,44.15c0,0.134,0.05,0.25,0.15,0.351
		l-18,30.199l-48-0.8c-0.101,0-0.217,0-0.351,0l-17.8-45.149V170l29.4-33.25C68.75,136.75,68.85,136.75,68.95,136.75z M193.6,139.6
		l36.301-8.65L262.85,162.1L245.2,212.05L197,215.6L178.05,185.9c0.2-0.234,0.351-0.45,0.45-0.65l14.8-45.65
		C193.4,139.6,193.5,139.6,193.6,139.6z M190.9,136.9L175.6,183.65v0.149H126.15L110.1,138.35l39.801-31L190.9,136.9z M271.7,161
		c-0.533,6.733-1.55,13.316-3.05,19.75c-0.967,3.867-2.101,7.617-3.4,11.25c-2.367,6.633-5.316,13-8.85,19.1
		c-2.033,3.234-4.217,6.5-6.551,9.801v-7.2c0-0.233,0-0.4,0-0.5l17.5-49.65L271.7,161z M34.75,172.4l17.5,43.85
		c-0.333,0.2-0.5,0.517-0.5,0.95l-0.15,4.2c-9.533-13.066-16.017-27.367-19.449-42.9c-0.634-3.1-1.217-6.2-1.75-9.3L34.75,172.4z"/>
	<path fill-rule="evenodd" clip-rule="evenodd" fill="#21478B" d="M245.65,226.2c-0.101,0.233-0.2,0.45-0.301,0.649
		c-2.8,3.2-5.8,6.417-9,9.65c-14.232,14.233-30.3,24.3-48.199,30.2l0.149-0.15c-0.433,0.101-0.8,0.2-1.1,0.3l-8.05-4v-0.8L197,218.8
		l49.6-3.5v9.8C246.3,225.4,245.983,225.767,245.65,226.2z M194.25,217.35l-18.3,44.2c-0.101,0.2-0.15,0.417-0.15,0.65h-46.3
		c0-0.233-0.05-0.4-0.15-0.5l-20.899-44.5l18-30.2H175L194.25,217.35z M125.35,269.75l2.4-2.9c0.2,0.101,0.417,0.15,0.65,0.15H180.3
		l2.4,1.3c-10.167,2.567-20.884,3.851-32.15,3.851c-5.667,0-11.116-0.316-16.35-0.95C131.066,270.666,128.117,270.184,125.35,269.75
		z M56.25,225.4l0.35-5.45c0.101,0.1,0.25,0.149,0.45,0.149l0.351,0.15c0.199,0,0.416-0.05,0.649-0.15l46.9,0.801L124.7,263.3
		l-4.2,4.851c-0.2,0.199-0.35,0.467-0.45,0.8c-20.8-5.467-39.283-16.284-55.45-32.45c-3.199-3.334-6.133-6.65-8.8-9.95
		C56.1,226.217,56.25,225.834,56.25,225.4z"/>
</g>
</svg>
