<?xml version="1.0" encoding="utf-8"?>
<!-- Generator: Adobe Illustrator 16.0.0, SVG Export Plug-In . SVG Version: 6.00 Build 0)  -->
<!DOCTYPE svg PUBLIC "-//W3C//DTD SVG 1.1//EN" "http://www.w3.org/Graphics/SVG/1.1/DTD/svg11.dtd">
<svg version="1.1" id="Layer_1" xmlns="http://www.w3.org/2000/svg" xmlns:xlink="http://www.w3.org/1999/xlink" x="0px" y="0px"
	 width="300px" height="300px" viewBox="0 0 300 300" enable-background="new 0 0 300 300" xml:space="preserve">
<g>
	<path fill-rule="evenodd" clip-rule="evenodd" fill="#030204" d="M286.304,44.884c-4.24-2.685-9.044-4.025-14.411-4.025
		l-8.132,1.126v1.208c9.661,3.435,14.49,9.794,14.49,19.08h1.129C283.995,53.792,286.304,47.996,286.304,44.884z M294.997,46.655
		c-12.345,25.814-18.515,41.619-18.515,47.415c-3.061,9.609-9.796,19.805-20.206,30.592c4.613,6.548,6.923,13.685,6.923,21.414
		c0,8.479-4.242,16.743-12.722,24.796c-6.922,3.863-13.281,5.794-19.078,5.794v0.563c1.193,2.599,2.227,5.041,3.101,7.328
		c2.547,6.554,3.822,11.841,3.822,15.857c-1.501,23.078-8.05,36.361-19.643,39.851h-1.69c-22.005-8.104-37.997-22.355-47.979-42.748
		c-2.386-4.203-4.452-8.523-6.2-12.96c-4.19-10.63-6.552-21.928-7.083-33.893h-1.207l-4.025,21.977h-1.771v-0.563l-2.819-21.414
		h-1.208c0,11.306-2.374,22.603-7.123,33.893c-4.82,11.438-12.081,22.871-21.776,34.294c-14.537,13.473-25.297,20.585-32.283,21.334
		c-0.415,0.053-0.816,0.08-1.207,0.08h-1.208c-11.538-3.061-17.871-16.556-18.997-40.494c0-4.991,2.307-12.693,6.922-23.104h-1.208
		c-15.025,0-24.847-8.265-29.462-24.794l-1.127-5.796c0-7.352,2.309-14.866,6.924-22.542c-9.66-6.17-17.765-20.635-24.313-43.39
		L5.427,46.092c1.128-8.48,7.487-12.721,19.08-12.721h4.025c17.551,0,35.879,4.857,54.982,14.571
		c1.712,0.877,3.431,1.79,5.153,2.738c12.397,6.842,25.116,15.698,38.16,26.566c9.983,12.345,14.972,19.857,14.972,22.54h2.336
		l1.769-5.716c-3.111,0-4.668-2.334-4.668-7.004v-2.897l1.772-2.817v-1.208c-10.037-31.611-25.467-53.374-46.291-65.288
		c-3.127-1.054-5.813-1.817-8.05-2.294c-1.866-0.403-3.423-0.604-4.669-0.604c-0.163,0-0.322,0-0.484,0
		c-7.743,0.211-12.01,5.415-12.797,15.618c2.681,4.99,6.144,7.486,10.382,7.486c0.89,0,1.695-0.081,2.415-0.241
		c3.061-0.647,4.59-2.687,4.59-6.119v-1.126l-1.771,1.126h-4.025c-0.375,0-1.342-1.342-2.899-4.025
		c0.88-2.386,2.25-3.835,4.105-4.346c0.525-0.162,1.088-0.242,1.692-0.242c1.412,0.411,2.565,1.055,3.461,1.932
		c1.556,1.525,2.334,3.753,2.334,6.681c0,2.814-0.778,4.948-2.334,6.401c-1.23,1.141-2.949,1.852-5.153,2.133
		c-0.748,0.107-1.553,0.161-2.415,0.161c-6.922,0-11.351-4.241-13.283-12.72c2.738-9.661,6.979-14.491,12.72-14.491h3.462
		c1.567,0,3.124,0.109,4.669,0.323c16.357,2.284,31.572,16.64,45.646,43.07c4.613,8.103,8.078,16.396,10.382,24.875l5.233-1.208
		h5.797c3.811-16.53,14.598-34.643,32.363-54.339c8.855-7.675,17.119-11.916,24.795-12.721h5.231
		c7.729,0,12.156,4.831,13.283,14.491v1.772c0,5.366-3.837,9.016-11.512,10.948h-1.208c-6.171,0-9.259-3.865-9.259-11.593
		c0.432-2.682,1.986-4.588,4.671-5.715c3.863,0,5.796,0.938,5.796,2.817v3.542c0,1.503-0.591,2.253-1.771,2.253h-4.024l-2.897-2.253
		v2.253c0,3.489,3.273,5.608,9.819,6.36c5.796-2.309,8.695-5.394,8.695-9.258c-1.557-9.231-6.199-13.846-13.927-13.846
		c-21.2,0-40.252,21.574-57.157,64.725c-0.805,0.805-1.208,1.958-1.208,3.461l1.771,6.922v1.772l-4.669,5.794
		c0.806,3.437,1.77,5.153,2.897,5.153h1.208c8.05-20.77,31.933-40.036,71.647-57.8c15.778-5.743,29.249-8.614,40.412-8.614h4.107
		C288.263,33.371,294.997,37.799,294.997,46.655z M269.558,82.478c-2.683,2.309-6.145,3.462-10.385,3.462
		c-11.593-1.556-17.389-6.951-17.389-16.182c0-4.992,3.275-9.822,9.822-14.491h4.105c7.298,0.429,10.946,3.73,10.946,9.903v1.126
		c0,4.991-2.493,7.486-7.485,7.486h-2.896l-4.67-4.588v-2.898c0-1.181,1.367-2.522,4.105-4.025h1.69c1.181,0,1.771,0.563,1.771,1.69
		v1.771c0,1.503-1.557,2.254-4.67,2.254l1.773,3.542h1.688c4.669,0,7.005-2.119,7.005-6.359c0-5.046-3.487-7.568-10.467-7.568
		h-2.252c-5.422,2.684-8.132,7.325-8.132,13.927c2.685,7.675,7.701,11.511,15.054,11.511h2.897c8.105,0,12.907-7.326,14.412-21.976
		c0-8.855-6.736-14.813-20.206-17.872c-12.345,0-19.67,9.822-21.979,29.465c-1.127,19.267-5.554,28.899-13.283,28.899v1.126h3.464
		c8.855,0,18.861-3.834,30.025-11.51v0.563c-8.05,8.479-18.245,12.72-30.59,12.72h-1.128c-12.343,0-21.038-4.241-26.083-12.72
		c-2.306-1.181-5.769-1.77-10.384-1.77c-4.239,0-11.351,3.485-21.334,10.465v1.125h1.69c1.558,0,2.335-0.375,2.335-1.125
		c13.095,0,32.926,5.769,59.492,17.308c1.556,1.126,5.795,2.093,12.72,2.897c11.593,0,21.412-12.718,29.463-38.159H269.558z
		 M241.222,46.655c-38.536,16.154-63.571,32.899-75.109,50.233v0.644c8.479-6.171,15.214-9.258,20.206-9.258l11.593,0.565
		c0-8.48,4.052-14.25,12.156-17.309c8.479,2.309,12.718,5.582,12.718,9.822c-0.43,6.922-3.327,10.384-8.693,10.384h-1.207
		c-3.437,0-5.932-1.932-7.488-5.795c0-4.241,2.308-6.36,6.924-6.36l1.771,2.897v0.563c0,1.557-1.343,2.524-4.024,2.899l-2.897-0.564
		c1.93,3.06,4.237,4.59,6.922,4.59c4.615-1.128,6.922-3.999,6.922-8.615c-1.931-4.24-4.829-6.361-8.693-6.361h-4.025
		c-3.487,0-5.983,3.649-7.486,10.95v2.333c0,8.107,5.769,12.158,17.308,12.158c8.855,0,13.873-12.158,15.054-36.469
		c0-4.991,2.871-10.761,8.614-17.308H241.222z M29.66,40.859h-5.153c-2.685,0-6.145,1.744-10.386,5.233
		c0,1.501,2.309,6.896,6.924,16.181h0.564c0-9.285,4.803-15.645,14.408-19.08v-1.208L29.66,40.859z M43.022,43.193
		c-12.721,3.06-19.081,9.794-19.081,20.206c0,10.787,4.805,17.335,14.412,19.642h2.897c9.661-1.126,14.49-4.775,14.49-10.948h1.693
		v0.565c0,8.855-6.361,13.283-19.08,13.283c-1.933,0-4.615-1.154-8.052-3.462H29.66v0.563c8.103,25.064,17.95,37.596,29.543,37.596
		c6.932-1.602,15.037-3.964,24.311-7.085c1.679-0.565,3.399-1.153,5.153-1.77c7.396-2.592,15.474-5.623,24.23-9.099l16.826-2.252
		c0.752,0.75,2.281,1.125,4.59,1.125c-7.729-7.727-15.055-11.59-21.979-11.59c-5.794,0-11.969,3.863-18.515,11.59
		c-1.805,0.534-3.521,0.988-5.152,1.37c-1.827,0.435-3.543,0.784-5.153,1.045c-2.157,0.323-4.115,0.484-5.875,0.484h-1.128
		c-13.096,0-23.319-4.241-30.67-12.72v-0.563c10.036,7.675,20.635,11.51,31.798,11.51h0.644
		c-8.105-4.614-12.156-15.59-12.156-32.924c-3.488-15.404-7.729-23.104-12.718-23.104C49.543,44.346,46.081,43.193,43.022,43.193z
		 M83.514,57.482C74,52.194,65.897,48.772,59.203,47.217c6.548,6.173,9.821,19.08,9.821,38.723
		c3.81,9.661,8.615,14.491,14.411,14.491h0.563c1.689,0,3.246-0.134,4.669-0.402c6.04-1.208,9.689-4.938,10.949-11.191V85.94
		c0-3.865-2.496-7.729-7.487-11.593h-4.025c-1.813,0.37-3.342,0.906-4.59,1.61c-2.736,1.551-4.105,3.913-4.105,7.083
		c0.756,3.091,2.125,5.145,4.105,6.158c0.978,0.51,2.106,0.767,3.384,0.767c0.649-0.236,1.24-0.479,1.77-0.726
		c2.011-0.97,3.165-2.069,3.462-3.3v-0.564l-2.335,0.564h-0.563c-0.199,0-0.386-0.014-0.564-0.041
		c-1.229-0.219-2.006-1.171-2.334-2.859v-1.689c0-1.182,0.59-1.771,1.771-1.771c0.193,0,0.38,0,0.563,0
		c4.241,0.161,6.361,2.093,6.361,5.795c-1.521,3.338-3.643,5.365-6.361,6.08c-0.734,0.185-1.512,0.28-2.334,0.28
		c-1.029,0-1.968-0.106-2.819-0.322c-3.57-0.97-5.528-3.948-5.875-8.936c0-4.093,1.958-7.085,5.875-8.976
		c1.451-0.682,3.167-1.219,5.153-1.61c0.74-0.139,1.519-0.26,2.334-0.362c7.676,4.616,11.514,10.762,11.514,18.437
		c2.307-1.128,4.803-1.693,7.485-1.693h4.106c4.991,0,11.728,3.087,20.208,9.258v-1.769c-1.557,0-4.454-3.275-8.695-9.822
		c-13.929-10.633-26.246-19.125-36.951-25.479C86.906,59.414,85.189,58.42,83.514,57.482z M98.491,125.79
		c8.479,0,19.078-5.181,31.798-15.537c2.307-1.181,5.58-1.771,9.819-1.771c0-1.557-0.588-2.334-1.769-2.334h-2.9
		c-14.098,0-29.688,4.694-46.772,14.089c-1.701,0.943-3.419,1.937-5.153,2.976c-0.801,0.468-1.606,0.953-2.415,1.451h13.929
		L98.491,125.79z M83.514,126.431c-16.681,0.108-27.307,5.69-31.879,16.746l-1.688,9.259v4.026
		c1.931,8.479,9.257,12.718,21.977,12.718c7.674-3.486,11.512-8.694,11.512-15.616v-1.128c-1.128-8.855-4.777-13.282-10.949-13.282
		c-4.616,0-8.078,2.307-10.385,6.922v2.897c0,3.061,1.529,5.556,4.588,7.489h2.899l4.024-1.772v-2.254l-1.69,1.128h-1.206
		c-0.752,0-1.721-0.967-2.901-2.899v-1.126l2.901-2.899h1.77c1.127,0,2.092,0.966,2.896,2.899v4.025
		c0,1.181-1.556,2.735-4.666,4.668h-4.59c-3.863-2.361-5.796-5.261-5.796-8.693v-1.771c0-5.744,4.053-9.206,12.156-10.386h1.127
		c4.431,0,7.731,1.958,9.9,5.879c1.431,2.582,2.372,6.019,2.819,10.304c-0.211,2.592-1.15,5.249-2.819,7.97
		c-1.299,2.135-3.043,4.311-5.231,6.521h1.125c1.259-0.149,2.629-0.565,4.105-1.249c1.593-0.711,3.311-1.73,5.153-3.062
		c10.089-7.246,23.962-23.547,41.622-48.906l6.922-3.46v-1.126h-1.772c-8.855,3.435-21.762,13.632-38.722,30.59
		c-2.683,7.353-4.025,11.969-4.025,13.847h-1.69v-4.025c0-6.172,6.145-14.465,18.437-24.875l-10.947,1.771l-10.387-1.13h-4.106
		C83.837,126.431,83.677,126.431,83.514,126.431z M51.635,127.561c-3.861,3.488-5.794,9.66-5.794,18.515v4.588h1.77
		c0-7.676,4.428-15,13.283-21.977C54.723,128.687,51.635,128.313,51.635,127.561z M70.717,204.44
		c2.417,9.885,6.684,15.922,12.797,18.112c1.754,0.646,3.659,0.967,5.718,0.967h3.46c9.66,0,16.397-5.796,20.206-17.389v-3.461
		c0-8.05-5.393-13.256-16.181-15.617c-6.826,1.104-11.225,3.56-13.203,7.367c-0.805,1.563-1.207,3.345-1.207,5.351v0.644
		c0,2.562,0.401,4.668,1.207,6.32c1.492,3.086,4.364,4.629,8.615,4.629c5.796-1.557,8.693-4.454,8.693-8.693l-4.105-5.153h-1.126
		c0,4.616-1.153,6.924-3.462,6.924c-1.181,0-2.147-0.966-2.897-2.897v-2.897c0.75-2.686,3.649-4.025,8.694-4.025
		c3.059,3.059,4.589,5.955,4.589,8.693c0,5.368-3.462,8.642-10.386,9.822c-3.811,0-6.683-0.941-8.615-2.817
		c-1.986-1.932-2.978-4.858-2.978-8.775v-1.129c0.658-3.414,1.652-6.245,2.978-8.492c2.579-4.373,6.415-6.56,11.514-6.56h4.588
		c3.112,0,6.574,1.93,10.384,5.796h1.208v-1.208l2.897-20.207c-5.796,4.616-12.56,6.923-20.287,6.923l-1.128-2.254v-0.643h4.025
		c10.036,0,16.799-4.241,20.288-12.722c2.307-11.163,9.418-23.667,21.334-37.514v-7.566c-4.618,1.181-15.217,15.053-31.799,41.62
		c-5.167,4.951-11.125,9.539-17.873,13.766c-1.667,1.039-3.388,2.059-5.153,3.059c-1.696,0.959-3.442,1.897-5.231,2.816
		c-5.045,8.912-7.566,17.016-7.566,24.314V204.44z M131.415,155.332c-3.059,0-4.588,0.967-4.588,2.899h-2.336v-0.644
		c1.933-3.437,4.617-5.152,8.052-5.152c1.931,0.752,4.05,2.468,6.359,5.152c1.557-3.811,2.334-9.018,2.334-15.618v-4.025
		l-2.334-10.384h-0.563c-11.916,12.345-18.462,24.473-19.643,36.384v1.208c1.181,6.925,4.855,10.387,11.028,10.387
		c5.741-2.683,8.615-6.548,8.615-11.595c0-3.809-1.718-6.68-5.153-8.613H131.415z M114.226,184.557
		c-0.078,1.289-0.12,2.523-0.12,3.702c0,6.172,0.564,10.975,1.69,14.411l-0.563,3.461v1.208c5.209-4.313,10.31-11.908,15.294-22.782
		c1.262-2.791,2.524-5.794,3.785-9.017h-1.128l-4.67,1.688c-6.922-0.376-10.384-3.836-10.384-10.382h-1.126
		C115.466,173.602,114.539,179.505,114.226,184.557z M73.614,218.851v1.209c3.325,6.598,6.625,10.046,9.9,10.343
		c0.163,0.027,0.323,0.041,0.484,0.041h2.335c3.114,0,6.2-1.529,9.258-4.59h-6.359c-1.814,0-3.72-0.362-5.718-1.087
		C80.432,223.657,77.132,221.686,73.614,218.851z M218.68,124.662v-1.128c-20.393-10.786-35.796-16.179-46.21-16.179
		c0-0.807-3.085-1.208-9.256-1.208h-2.899v2.334h1.772c4.99,0,13.068,4.429,24.231,13.284c7.728,2.307,13.523,3.649,17.389,4.025
		l1.689-1.127H218.68z M202.499,127.561l-11.512-1.771h-1.209v0.642c13.097,8.052,19.643,17.472,19.643,28.258h-2.251
		c0-12.29-14.062-27.103-42.186-44.437h-2.897v1.126c4.99,0,16.529,13.096,34.615,39.286c7.729,8.854,15.833,14.651,24.312,17.391
		v-1.208c-4.614-4.618-6.922-9.42-6.922-14.411c0.376-10.036,4.805-15.055,13.283-15.055h1.127
		c7.729,1.933,11.592,5.395,11.592,10.386v1.206c0,3.812-1.931,6.897-5.797,9.258h-2.897c-4.99-0.431-7.486-2.549-7.486-6.359
		c1.128-2.735,2.281-4.483,3.462-5.233h2.334l2.897,2.899v1.126c0,0.805-0.966,1.771-2.897,2.899l-2.899-1.691v1.691
		c0.753,1.931,2.686,2.898,5.797,2.898h0.563c3.437-1.559,5.152-4.831,5.152-9.823c-1.501-4.992-5.742-7.485-12.719-7.485
		c-5.743,2.307-8.614,6.546-8.614,12.718v1.691c1.127,10.409,5.932,15.616,14.41,15.616c10.412,0,16.771-4.238,19.078-12.718v-4.026
		c0-11.593-7.325-20.261-21.976-26.004l-1.127,1.13l-4.59-1.13L202.499,127.561z M248.789,127.561c0,0.751-3.489,1.126-10.467,1.126
		v0.644c9.66,5.367,14.492,12.88,14.492,22.542h0.563l1.126-8.132C254.503,136.817,252.598,131.425,248.789,127.561z
		 M161.442,115.968l0.645,1.771v2.334l-1.208,4.588c6.925,3.114,15.403,17.172,25.439,42.185c4.239,4.613,10.035,6.923,17.389,6.923
		h3.463v1.208c0,1.126-0.593,1.688-1.773,1.688c-7.675,0-14.409-2.494-20.206-7.486v0.563c0.63,1.304,1.677,6.242,3.141,14.813
		c0.276,1.661,0.572,3.46,0.885,5.394l-1.126,1.208h1.126c4.241-3.866,7.701-5.796,10.386-5.796h5.795
		c9.661,2.306,14.491,7.11,14.491,14.408v2.899c-0.43,6.171-3.328,9.259-8.693,9.259v-1.692c4.613,0,6.922-3.273,6.922-9.822v-0.644
		c0-5.366-4.615-9.604-13.846-12.718h-0.563c-11.217,2.361-16.826,7.191-16.826,14.49v4.024c0,8.854,6.763,14.841,20.289,17.952
		h5.15c9.284,0,15.081-7.325,17.389-21.977c-1.094-7.076-2.488-12.737-4.186-16.986c-2.563-6.387-5.809-9.579-9.741-9.579
		c-13.097-6.978-26.19-21.255-39.285-42.831c-4.615-6.922-9.42-12.315-14.41-16.179H161.442z M158.625,139.154l1.689,19.078h0.564
		c0-2.737,2.71-4.668,8.131-5.796c3.434,0,5.556,2.683,6.36,8.05v1.771c0,1.126-1.154,2.469-3.463,4.025
		c-2.736-1.181-4.104-2.148-4.104-2.899v-2.335c0-1.126,0.588-1.688,1.769-1.688h2.335l1.69,1.126v-1.126
		c-1.128-2.685-2.093-4.027-2.897-4.027h-4.025c-3.061,1.934-4.588,4.805-4.588,8.613c1.932,7.731,5.207,11.595,9.82,11.595
		c5.743,0,8.614-3.462,8.614-10.387v-5.794c-4.239-13.097-10.788-24.071-19.643-32.928c0,2.685-0.966,6.924-2.899,12.723H158.625z
		 M183.421,168.055h-1.128c0,4.237-3.272,7.511-9.823,9.82l-6.357-2.335v1.126c1.185,2.77,2.38,5.398,3.583,7.891
		c4.66,9.682,9.422,17.275,14.289,22.782l2.334-17.389c-0.083-1.855-0.191-3.653-0.323-5.394
		C185.493,178.335,184.635,172.833,183.421,168.055z M224.478,220.06c-4.617,3.861-9.046,5.794-13.283,5.794h-6.924
		c0,1.128,3.648,3.033,10.948,5.716c6.923-2.683,10.385-6.521,10.385-11.51H224.478z M286.304,44.884
		c0,3.112-2.309,8.908-6.924,17.388h-1.129c0-9.285-4.829-15.645-14.49-19.08v-1.208l8.132-1.126
		C277.26,40.859,282.063,42.199,286.304,44.884z M29.66,40.859l6.357,1.126v1.208c-9.605,3.435-14.408,9.794-14.408,19.08h-0.564
		c-4.616-9.285-6.924-14.679-6.924-16.181c4.241-3.489,7.701-5.233,10.386-5.233H29.66z M241.222,46.655h0.563
		c-5.743,6.547-8.614,12.317-8.614,17.308c-1.181,24.311-6.198,36.469-15.054,36.469c-11.539,0-17.308-4.051-17.308-12.158V85.94
		c1.503-7.3,3.999-10.95,7.486-10.95h4.025c3.864,0,6.763,2.121,8.693,6.361c0,4.616-2.307,7.487-6.922,8.615
		c-2.685,0-4.992-1.531-6.922-4.59l2.897,0.564c2.682-0.375,4.024-1.343,4.024-2.899v-0.563l-1.771-2.897
		c-4.616,0-6.924,2.119-6.924,6.36c1.557,3.863,4.052,5.795,7.488,5.795h1.207c5.366,0,8.264-3.462,8.693-10.384
		c0-4.24-4.239-7.513-12.718-9.822c-8.104,3.059-12.156,8.829-12.156,17.309l-11.593-0.565c-4.992,0-11.727,3.087-20.206,9.258
		v-0.644C177.65,79.554,202.686,62.809,241.222,46.655z M269.558,82.478h1.127c-8.051,25.44-17.87,38.159-29.463,38.159
		c-6.925-0.805-11.164-1.771-12.72-2.897c-26.566-11.539-46.397-17.308-59.492-17.308c0,0.75-0.777,1.125-2.335,1.125h-1.69v-1.125
		c9.983-6.979,17.095-10.465,21.334-10.465c4.615,0,8.078,0.589,10.384,1.77c5.045,8.479,13.74,12.72,26.083,12.72h1.128
		c12.345,0,22.54-4.241,30.59-12.72v-0.563c-11.164,7.675-21.17,11.51-30.025,11.51h-3.464v-1.126
		c7.729,0,12.156-9.632,13.283-28.899c2.31-19.643,9.635-29.465,21.979-29.465c13.47,3.06,20.206,9.017,20.206,17.872
		c-1.505,14.65-6.307,21.976-14.412,21.976h-2.897c-7.353,0-12.369-3.836-15.054-11.511c0-6.603,2.71-11.243,8.132-13.927h2.252
		c6.979,0,10.467,2.522,10.467,7.568c0,4.24-2.336,6.359-7.005,6.359h-1.688l-1.773-3.542c3.113,0,4.67-0.751,4.67-2.254v-1.771
		c0-1.127-0.59-1.69-1.771-1.69h-1.69c-2.738,1.502-4.105,2.844-4.105,4.025v2.898l4.67,4.588h2.896
		c4.992,0,7.485-2.495,7.485-7.486v-1.126c0-6.173-3.648-9.474-10.946-9.903h-4.105c-6.547,4.669-9.822,9.5-9.822,14.491
		c0,9.23,5.796,14.625,17.389,16.182C263.413,85.94,266.875,84.787,269.558,82.478z M35.454,65.171v-1.772
		c1.557-3.864,5.02-5.796,10.387-5.796c6.6,1.182,9.9,5.233,9.9,12.156h1.693v-1.771c-2.309-8.48-6.174-12.72-11.593-12.72h-2.818
		c-5.421,0-8.694,3.302-9.822,9.903v3.462c1.878,3.434,4.563,5.15,8.05,5.15h2.899c1.555-0.75,3.084-2.682,4.588-5.795
		c-1.127-3.81-2.468-5.715-4.025-5.715h-1.69c-1.181,0-1.772,0.563-1.772,1.69v1.771c0,1.932,1.529,2.899,4.59,2.899
		c0,1.501-1.343,2.468-4.025,2.897C37.574,71.53,35.454,69.411,35.454,65.171z M83.514,57.482c1.675,0.938,3.392,1.932,5.153,2.979
		c10.705,6.354,23.022,14.846,36.951,25.479c4.241,6.547,7.138,9.822,8.695,9.822v1.769c-8.479-6.171-15.216-9.258-20.208-9.258H110
		c-2.683,0-5.178,0.565-7.485,1.693c0-7.675-3.838-13.821-11.514-18.437c-0.815,0.103-1.594,0.224-2.334,0.362
		c-1.986,0.392-3.703,0.929-5.153,1.61c-3.917,1.891-5.875,4.883-5.875,8.976c0.347,4.987,2.305,7.965,5.875,8.936
		c0.851,0.216,1.79,0.322,2.819,0.322c0.822,0,1.6-0.095,2.334-0.28c2.718-0.715,4.839-2.742,6.361-6.08
		c0-3.703-2.12-5.635-6.361-5.795c-0.184,0-0.37,0-0.563,0c-1.181,0-1.771,0.589-1.771,1.771v1.689
		c0.329,1.688,1.106,2.64,2.334,2.859c0.179,0.026,0.366,0.041,0.564,0.041h0.563l2.335-0.564v0.564
		c-0.297,1.231-1.451,2.33-3.462,3.3c-0.53,0.247-1.12,0.489-1.77,0.726c-1.278,0-2.406-0.257-3.384-0.767
		c-1.98-1.013-3.35-3.067-4.105-6.158c0-3.171,1.37-5.533,4.105-7.083c1.248-0.704,2.777-1.24,4.59-1.61h4.025
		c4.991,3.863,7.487,7.728,7.487,11.593v2.898c-1.26,6.253-4.909,9.983-10.949,11.191c-1.423,0.268-2.98,0.402-4.669,0.402h-0.563
		c-5.796,0-10.601-4.83-14.411-14.491c0-19.643-3.273-32.55-9.821-38.723C65.897,48.772,74,52.194,83.514,57.482z M43.022,43.193
		c3.059,0,6.521,1.153,10.386,3.462c4.989,0,9.23,7.7,12.718,23.104c0,17.334,4.051,28.311,12.156,32.924h-0.644
		c-11.164,0-21.762-3.834-31.798-11.51v0.563c7.351,8.479,17.574,12.72,30.67,12.72h1.128c1.76,0,3.718-0.161,5.875-0.484
		c1.61-0.262,3.327-0.61,5.153-1.045c1.631-0.382,3.347-0.836,5.152-1.37c6.546-7.727,12.721-11.59,18.515-11.59
		c6.924,0,14.25,3.863,21.979,11.59c-2.309,0-3.838-0.375-4.59-1.125l-16.826,2.252c-8.756,3.476-16.834,6.506-24.23,9.099
		c-1.754,0.616-3.474,1.205-5.153,1.77c-9.274,3.122-17.379,5.483-24.311,7.085c-11.593,0-21.44-12.532-29.543-37.596v-0.563h0.642
		c3.437,2.309,6.119,3.462,8.052,3.462c12.719,0,19.08-4.428,19.08-13.283v-0.565h-1.693c0,6.173-4.83,9.822-14.49,10.948h-2.897
		c-9.607-2.307-14.412-8.855-14.412-19.642C23.942,52.987,30.302,46.252,43.022,43.193z"/>
	<path fill-rule="evenodd" clip-rule="evenodd" fill="#0D0D12" d="M35.454,65.171c0,4.24,2.12,6.359,6.362,6.359
		c2.682-0.429,4.025-1.396,4.025-2.897c-3.061,0-4.59-0.968-4.59-2.899v-1.771c0-1.127,0.591-1.69,1.772-1.69h1.69
		c1.557,0,2.897,1.905,4.025,5.715c-1.503,3.113-3.033,5.045-4.588,5.795H41.25c-3.487,0-6.172-1.717-8.05-5.15v-3.462
		c1.128-6.602,4.401-9.903,9.822-9.903h2.818c5.418,0,9.284,4.24,11.593,12.72v1.771h-1.693c0-6.923-3.3-10.975-9.9-12.156
		c-5.367,0-8.83,1.932-10.387,5.796V65.171z M124.491,159.359l2.336,1.126c0.751-0.752,1.905-1.126,3.462-1.126l2.254,2.897v1.126
		l-4.027,2.899c-2.681-1.181-4.025-2.148-4.025-2.899V159.359z M199.602,202.67c0,4.669,3.273,7.566,9.819,8.693v1.772h-1.126
		c-5.42,0-9.286-3.49-11.593-10.466c1.934-5.367,4.456-8.05,7.568-8.05c4.615,1.126,6.924,2.469,6.924,4.025v2.897
		c0,0.751-0.966,1.718-2.899,2.897c-2.683,0-4.024-2.308-4.024-6.924h-0.563c-0.805,0-2.173,1.341-4.105,4.026V202.67z"/>
	<path fill-rule="evenodd" clip-rule="evenodd" fill="#183C5D" d="M51.635,127.561c0,0.751,3.088,1.126,9.259,1.126
		c-8.855,6.977-13.283,14.301-13.283,21.977h-1.77v-4.588C45.841,137.221,47.773,131.049,51.635,127.561z M83.514,126.431
		c0.163,0,0.323,0,0.484,0h4.106l10.387,1.13l10.947-1.771c-12.292,10.41-18.437,18.702-18.437,24.875v4.025h1.69
		c0-1.878,1.343-6.494,4.025-13.847c16.96-16.958,29.867-27.156,38.722-30.59h1.772v1.126l-6.922,3.46
		c-17.659,25.358-31.533,41.66-41.622,48.906c-1.842,1.331-3.561,2.351-5.153,3.062c-1.476,0.684-2.846,1.1-4.105,1.249h-1.125
		c2.188-2.211,3.932-4.387,5.231-6.521c1.669-2.721,2.608-5.378,2.819-7.97c-0.447-4.285-1.388-7.722-2.819-10.304
		c-2.169-3.921-5.469-5.879-9.9-5.879h-1.127c-8.104,1.181-12.156,4.643-12.156,10.386v1.771c0,3.433,1.933,6.332,5.796,8.693h4.59
		c3.11-1.933,4.666-3.487,4.666-4.668v-4.025c-0.805-1.933-1.77-2.899-2.896-2.899h-1.77l-2.901,2.899v1.126
		c1.181,1.933,2.149,2.899,2.901,2.899h1.206l1.69-1.128v2.254l-4.024,1.772H66.69c-3.059-1.933-4.588-4.428-4.588-7.489v-2.897
		c2.307-4.616,5.769-6.922,10.385-6.922c6.172,0,9.821,4.427,10.949,13.282v1.128c0,6.922-3.838,12.13-11.512,15.616
		c-12.72,0-20.046-4.238-21.977-12.718v-4.026l1.688-9.259C56.207,132.121,66.833,126.54,83.514,126.431z M98.491,125.79
		l-3.462-1.127H81.099c0.809-0.498,1.614-0.982,2.415-1.451c1.734-1.04,3.452-2.033,5.153-2.976
		c17.084-9.395,32.674-14.089,46.772-14.089h2.9c1.181,0,1.769,0.778,1.769,2.334c-4.24,0-7.513,0.591-9.819,1.771
		C117.568,120.609,106.97,125.79,98.491,125.79z M248.789,127.561c3.809,3.864,5.714,9.256,5.714,16.179l-1.126,8.132h-0.563
		c0-9.662-4.832-17.174-14.492-22.542v-0.644C245.3,128.687,248.789,128.313,248.789,127.561z M202.499,127.561l20.286-1.13
		l4.59,1.13l1.127-1.13c14.65,5.744,21.976,14.412,21.976,26.004v4.026c-2.307,8.479-8.666,12.718-19.078,12.718
		c-8.479,0-13.283-5.207-14.41-15.616v-1.691c0-6.172,2.871-10.412,8.614-12.718c6.977,0,11.218,2.494,12.719,7.485
		c0,4.992-1.716,8.264-5.152,9.823h-0.563c-3.111,0-5.044-0.968-5.797-2.898v-1.691l2.899,1.691
		c1.932-1.128,2.897-2.095,2.897-2.899v-1.126l-2.897-2.899h-2.334c-1.181,0.75-2.334,2.498-3.462,5.233
		c0,3.811,2.496,5.929,7.486,6.359h2.897c3.866-2.361,5.797-5.446,5.797-9.258v-1.206c0-4.992-3.863-8.454-11.592-10.386h-1.127
		c-8.479,0-12.907,5.019-13.283,15.055c0,4.991,2.308,9.793,6.922,14.411v1.208c-8.479-2.739-16.582-8.536-24.312-17.391
		c-18.086-26.189-29.625-39.286-34.615-39.286v-1.126h2.897c28.124,17.334,42.186,32.147,42.186,44.437h2.251
		c0-10.787-6.546-20.206-19.643-28.258v-0.642h1.209L202.499,127.561z M218.68,124.662h-13.283l-1.689,1.127
		c-3.865-0.376-9.661-1.718-17.389-4.025c-11.163-8.855-19.241-13.284-24.231-13.284h-1.772v-2.334h2.899
		c6.171,0,9.256,0.402,9.256,1.208c10.414,0,25.817,5.393,46.21,16.179V124.662z"/>
	<path fill-rule="evenodd" clip-rule="evenodd" fill="#538CA0" d="M131.415,155.332h1.771c3.435,1.934,5.153,4.805,5.153,8.613
		c0,5.047-2.874,8.912-8.615,11.595c-6.172,0-9.847-3.462-11.028-10.387v-1.208c1.181-11.911,7.727-24.04,19.643-36.384h0.563
		l2.334,10.384v4.025c0,6.6-0.777,11.807-2.334,15.618c-2.309-2.685-4.428-4.4-6.359-5.152c-3.435,0-6.12,1.716-8.052,5.152v0.644
		h2.336C126.827,156.299,128.356,155.332,131.415,155.332z M70.717,204.44v-2.897c0-7.299,2.521-15.402,7.566-24.314
		c1.789-0.919,3.535-1.857,5.231-2.816c1.766-1,3.486-2.02,5.153-3.059c6.749-4.227,12.706-8.814,17.873-13.766
		c16.582-26.567,27.181-40.439,31.799-41.62v7.566c-11.916,13.847-19.027,26.351-21.334,37.514
		c-3.489,8.48-10.252,12.722-20.288,12.722h-4.025v0.643l1.128,2.254c7.727,0,14.49-2.307,20.287-6.923l-2.897,20.207v1.208H110
		c-3.81-3.866-7.272-5.796-10.384-5.796h-4.588c-5.1,0-8.936,2.187-11.514,6.56c-1.326,2.247-2.32,5.078-2.978,8.492v1.129
		c0,3.917,0.992,6.844,2.978,8.775c1.933,1.876,4.805,2.817,8.615,2.817c6.924-1.181,10.386-4.454,10.386-9.822
		c0-2.738-1.531-5.635-4.589-8.693c-5.045,0-7.944,1.34-8.694,4.025v2.897c0.75,1.932,1.716,2.897,2.897,2.897
		c2.309,0,3.462-2.308,3.462-6.924h1.126l4.105,5.153c0,4.239-2.897,7.137-8.693,8.693c-4.251,0-7.123-1.543-8.615-4.629
		c-0.805-1.652-1.207-3.759-1.207-6.32v-0.644c0-2.006,0.401-3.788,1.207-5.351c1.979-3.808,6.377-6.263,13.203-7.367
		c10.788,2.361,16.181,7.567,16.181,15.617v3.461c-3.809,11.593-10.546,17.389-20.206,17.389h-3.46c-2.059,0-3.964-0.32-5.718-0.967
		C77.401,220.362,73.134,214.325,70.717,204.44z M124.491,159.359v4.023c0,0.751,1.344,1.719,4.025,2.899l4.027-2.899v-1.126
		l-2.254-2.897c-1.557,0-2.71,0.374-3.462,1.126L124.491,159.359z M73.614,218.851c3.518,2.835,6.818,4.807,9.9,5.916
		c1.998,0.725,3.903,1.087,5.718,1.087h6.359c-3.059,3.061-6.145,4.59-9.258,4.59h-2.335c-0.161,0-0.321-0.014-0.484-0.041
		c-3.275-0.297-6.576-3.745-9.9-10.343V218.851z M114.226,184.557c0.313-5.052,1.24-10.955,2.779-17.71h1.126
		c0,6.546,3.462,10.006,10.384,10.382l4.67-1.688h1.128c-1.261,3.223-2.523,6.226-3.785,9.017
		c-4.985,10.874-10.085,18.469-15.294,22.782v-1.208l0.563-3.461c-1.126-3.437-1.69-8.239-1.69-14.411
		C114.106,187.08,114.148,185.846,114.226,184.557z M183.421,168.055c1.214,4.778,2.072,10.28,2.574,16.502
		c0.132,1.74,0.24,3.538,0.323,5.394l-2.334,17.389c-4.867-5.507-9.629-13.101-14.289-22.782c-1.203-2.492-2.398-5.121-3.583-7.891
		v-1.126l6.357,2.335c6.551-2.31,9.823-5.583,9.823-9.82H183.421z M158.625,139.154h-0.646c1.934-5.798,2.899-10.038,2.899-12.723
		c8.854,8.857,15.403,19.832,19.643,32.928v5.794c0,6.925-2.871,10.387-8.614,10.387c-4.613,0-7.889-3.863-9.82-11.595
		c0-3.809,1.527-6.68,4.588-8.613h4.025c0.805,0,1.77,1.343,2.897,4.027v1.126l-1.69-1.126h-2.335c-1.181,0-1.769,0.563-1.769,1.688
		v2.335c0,0.751,1.367,1.719,4.104,2.899c2.309-1.557,3.463-2.899,3.463-4.025v-1.771c-0.805-5.367-2.927-8.05-6.36-8.05
		c-5.421,1.128-8.131,3.059-8.131,5.796h-0.564L158.625,139.154z M161.442,115.968h0.645c4.99,3.864,9.795,9.256,14.41,16.179
		c13.095,21.576,26.188,35.853,39.285,42.831c3.933,0,7.179,3.192,9.741,9.579c1.697,4.249,3.092,9.91,4.186,16.986
		c-2.308,14.651-8.104,21.977-17.389,21.977h-5.15c-13.526-3.111-20.289-9.098-20.289-17.952v-4.024
		c0-7.299,5.609-12.129,16.826-14.49h0.563c9.23,3.113,13.846,7.352,13.846,12.718v0.644c0,6.549-2.309,9.822-6.922,9.822v1.692
		c5.365,0,8.264-3.088,8.693-9.259v-2.899c0-7.298-4.83-12.103-14.491-14.408h-5.795c-2.685,0-6.145,1.93-10.386,5.796h-1.126
		l1.126-1.208c-0.313-1.934-0.608-3.732-0.885-5.394c-1.464-8.571-2.511-13.51-3.141-14.813v-0.563
		c5.797,4.992,12.531,7.486,20.206,7.486c1.181,0,1.773-0.563,1.773-1.688v-1.208h-3.463c-7.354,0-13.149-2.31-17.389-6.923
		c-10.036-25.012-18.515-39.071-25.439-42.185l1.208-4.588v-2.334L161.442,115.968z M199.602,202.67v-1.127
		c1.933-2.686,3.301-4.026,4.105-4.026h0.563c0,4.616,1.342,6.924,4.024,6.924c1.934-1.18,2.899-2.146,2.899-2.897v-2.897
		c0-1.557-2.309-2.899-6.924-4.025c-3.112,0-5.635,2.683-7.568,8.05c2.307,6.976,6.173,10.466,11.593,10.466h1.126v-1.772
		C202.875,210.236,199.602,207.339,199.602,202.67z M224.478,220.06h1.126c0,4.989-3.462,8.827-10.385,11.51
		c-7.3-2.683-10.948-4.588-10.948-5.716h6.924C215.432,225.854,219.86,223.921,224.478,220.06z"/>
</g>
</svg>
