<?xml version="1.0" encoding="utf-8"?>
<!-- Generator: Adobe Illustrator 16.0.0, SVG Export Plug-In . SVG Version: 6.00 Build 0)  -->
<!DOCTYPE svg PUBLIC "-//W3C//DTD SVG 1.1//EN" "http://www.w3.org/Graphics/SVG/1.1/DTD/svg11.dtd">
<svg version="1.1" id="Layer_1" xmlns="http://www.w3.org/2000/svg" xmlns:xlink="http://www.w3.org/1999/xlink" x="0px" y="0px"
	 width="300px" height="300px" viewBox="0 0 300 300" enable-background="new 0 0 300 300" xml:space="preserve">
<g>
	<path fill-rule="evenodd" clip-rule="evenodd" fill="#FE0101" d="M230.525,52.942c10.268-0.782,20.006,0.446,29.215,3.684
		c8.427,3.014,14.958,7.087,19.59,12.222c1.843,2.009,3.517,4.046,5.022,6.111c1.117,1.451,2.177,2.958,3.183,4.521
		c8.203,12.613,11.803,26.203,10.799,40.77c-0.112,1.897-0.307,3.823-0.587,5.776c-1.506,9.488-4.91,19.031-10.212,28.631
		c-1.006,1.841-2.065,3.684-3.183,5.524c-2.455,3.851-5.245,7.786-8.371,11.804c-2.567,3.237-5.245,6.363-8.036,9.377
		c-11.609,12.669-25.785,24.22-42.528,34.658c-20.76,13.06-42.694,22.604-65.8,28.63c18.251-5.469,35.552-14.148,51.903-26.035
		c15.293-11.051,27.906-23.468,37.841-37.253c0.558-0.895,1.17-1.787,1.841-2.68c10.771-15.57,16.882-31.029,18.334-46.378
		c0.223-2.065,0.335-4.158,0.335-6.278c0.278-14.064-3.768-26.984-12.139-38.76c-8.427-11.776-21.208-17.804-38.342-18.083
		c-19.144-0.279-36.974,7.701-53.494,23.942C183.365,68.123,204.907,54.729,230.525,52.942z M257.815,111.71
		c1.117,4.8,1.758,9.571,1.925,14.315c0.335,16.241-4.91,32.788-15.737,49.643c-1.228,2.01-2.512,3.906-3.851,5.693
		c-16.632,23.105-41.83,41.83-75.596,56.173c23.72-13.506,42.054-30.36,55.001-50.564c1.116-1.841,2.205-3.71,3.265-5.608
		c9.377-16.13,13.785-31.84,13.228-47.132c-0.112-2.901-0.418-5.637-0.92-8.204c-2.179-12.502-8.344-21.458-18.503-26.872
		c-13.339-7.144-30.694-6.279-52.07,2.595c21.32-20.594,41.467-28.938,60.442-25.03c8.204,1.562,15.209,5.553,21.014,11.971
		C251.76,94.772,255.695,102.446,257.815,111.71z M204.155,115.059c-6.811-7.981-15.739-11.943-26.789-11.888
		c14.789-4.744,27.066-3.684,36.835,3.181c6.752,4.744,11.16,11.302,13.226,19.673c0.781,3.46,1.2,7.255,1.256,11.386
		c0.224,13.952-4.577,28.602-14.398,43.95c-0.671,1.228-1.424,2.428-2.262,3.599c-12.724,18.977-31.56,36.501-56.507,52.574
		c19.533-14.847,34.408-30.778,44.62-47.802c1.619-2.791,3.126-5.58,4.521-8.371c6.026-11.889,9.125-23.523,9.292-34.909
		c0.166-7.702-0.921-14.511-3.266-20.427C209.122,121.952,206.944,118.295,204.155,115.059z"/>
	<path fill-rule="evenodd" clip-rule="evenodd" fill="#FFFFFF" d="M137.015,110.371c0.502,0,1.033,0.14,1.591,0.418
		c4.856,1.172,9.292,3.153,13.311,5.944c6.529-4.632,14.315-7.061,23.357-7.284c11.775-0.279,20.48,4.298,26.118,13.73
		c0.502,0.948,0.977,1.897,1.423,2.846c3.293,6.92,4.157,15.543,2.596,25.867c-1.396,9.712-4.604,19.534-9.627,29.469
		c-0.559,1.228-1.145,2.372-1.759,3.432c-5.86,10.994-12.808,19.98-20.844,26.956c-8.372,7.534-16.325,11.302-23.859,11.302
		c-3.404,0-6.977-0.921-10.716-2.762c-0.558-0.335-1.089-0.643-1.591-0.921c-3.236-1.785-6.642-4.326-10.213-7.619
		c-7.534-7.087-14.231-16.128-20.091-27.122c-0.67-1.006-1.2-2.093-1.591-3.266c-5.134-10.103-8.371-19.925-9.71-29.469
		c-1.507-11.719,0.056-21.179,4.688-28.379c6.53-9.822,15.822-14.566,27.877-14.231
		C131.099,109.338,134.112,109.701,137.015,110.371z M148.316,135.15l1.591,7.284c-0.167,0-0.363,0.055-0.585,0.167l-2.01-6.529
		l-0.837,1.423l2.176,5.274c-0.335,0.223-0.67,0.391-1.004,0.503c-0.224,0.167-0.475,0.334-0.754,0.502l-3.517-4.521h-1.589
		l4.52,5.023c-0.111,0.112-0.278,0.28-0.502,0.503l-5.19-5.358l-2.595,0.251l0.418,2.595l6.279,3.935
		c-0.113,0.167-0.196,0.334-0.252,0.502l-6.027-3.181l0.419,1.507l5.273,2.344c-0.056,0.056-0.083,0.14-0.083,0.251
		c-0.111,0.167-0.196,0.391-0.252,0.67l0.085,0.083c-0.113,0.279-0.224,0.586-0.335,0.92l-5.777-0.837l-1.004,1.255l6.697,0.252
		c0.056,0.167,0.083,0.39,0.083,0.669l-7.534,0.083l-1.843,2.009l2.178,1.425l7.366-1.675c0,0.225,0.027,0.419,0.083,0.586
		l-6.445,2.009l1.256,0.921l5.441-2.177c0.167,0.336,0.335,0.671,0.502,1.004c0.113,0.225,0.252,0.475,0.418,0.754l-4.521,3.518
		v1.589l5.023-4.604c0.224,0.169,0.363,0.336,0.418,0.504l-5.273,5.273l0.25,2.68l2.68-0.504l3.851-6.362
		c0.167,0.225,0.335,0.363,0.502,0.419l-3.18,5.943l1.589-0.333l2.261-5.358c0.279,0.111,0.558,0.224,0.837,0.335h0.167
		c0.28,0.056,0.587,0.111,0.92,0.167l-0.752,5.86l1.087,1.172l0.419-6.949c0.224,0.058,0.446,0.058,0.67,0v7.534l2.094,1.758
		l1.339-2.176l-1.675-7.282c0.223,0,0.475-0.058,0.754-0.169l1.758,6.53l0.921-1.339l-2.093-5.441h0.168l0.585-0.335
		c0.111-0.056,0.196-0.111,0.252-0.167c0.223-0.169,0.446-0.308,0.669-0.419l3.601,4.604h1.591l-4.521-5.022
		c0.167-0.111,0.363-0.28,0.586-0.504l5.191,5.274l2.595-0.167l-0.419-2.511l-6.361-4.103c0.11-0.113,0.222-0.279,0.333-0.502
		l6.028,3.264l-0.502-1.675l-5.191-2.26c0.113-0.335,0.196-0.614,0.252-0.837c0.167-0.335,0.25-0.67,0.25-1.004l5.693,0.752
		l1.173-1.255l-6.781-0.167c0.056-0.279,0.084-0.531,0.084-0.754h7.451l1.674-2.009l-2.093-1.507l-7.284,1.758
		c-0.056-0.279-0.111-0.502-0.167-0.669l6.529-2.01l-1.423-0.837l-5.358,2.177c-0.111-0.335-0.25-0.614-0.418-0.837
		c0-0.056-0.028-0.084-0.084-0.084c-0.111-0.223-0.222-0.474-0.335-0.753l-0.083-0.084l4.521-3.516l0.084-1.59l-5.19,4.604
		c-0.056-0.223-0.196-0.363-0.418-0.418l5.356-5.441l-0.25-2.679l-2.512,0.502l-4.02,6.363c-0.11-0.112-0.25-0.195-0.418-0.251
		l-0.084-0.084l3.183-6.111l-1.508,0.502l-2.428,5.275l-0.084-0.084c-0.167-0.055-0.308-0.083-0.418-0.083
		c-0.056-0.056-0.14-0.084-0.252-0.084c-0.056,0-0.056-0.028,0-0.083c-0.39-0.055-0.725-0.112-1.004-0.167l0.754-5.776l-1.173-1.089
		l-0.419,6.697c-0.166,0-0.362,0-0.585,0l-0.085-7.45l-1.841-1.758L148.316,135.15z M181.635,132.053l1.592,3.432l0.92-3.683
		l3.768-0.502l-3.266-2.009l0.586-3.852l-2.846,2.596l-3.434-1.842l1.591,3.6l-2.847,2.679L181.635,132.053z M110.813,134.313
		l1.589,3.516l-2.762,2.678l3.768-0.334l1.757,3.432l0.837-3.767l3.767-0.502l-3.265-2.01l0.587-3.851l-2.847,2.595L110.813,134.313
		z M152.754,187.053l-2.764,2.764l3.936-0.419l1.675,3.601l0.837-3.936l3.767-0.502l-3.265-1.926l0.669-3.851l-2.846,2.595
		l-3.517-1.675L152.754,187.053z"/>
	<path fill-rule="evenodd" clip-rule="evenodd" fill="#FCD116" d="M181.635,132.053l-3.936,0.419l2.847-2.679l-1.591-3.6
		l3.434,1.842l2.846-2.596l-0.586,3.852l3.266,2.009l-3.768,0.502l-0.92,3.683L181.635,132.053z M148.316,135.15l1.591-2.177
		l1.841,1.758l0.085,7.45c0.223,0,0.419,0,0.585,0l0.419-6.697l1.173,1.089l-0.754,5.776c0.279,0.056,0.614,0.112,1.004,0.167
		c-0.056,0.056-0.056,0.083,0,0.083c0.112,0,0.196,0.029,0.252,0.084c0.11,0,0.251,0.028,0.418,0.083l0.084,0.084l2.428-5.275
		l1.508-0.502l-3.183,6.111l0.084,0.084c0.168,0.056,0.308,0.139,0.418,0.251l4.02-6.363l2.512-0.502l0.25,2.679l-5.356,5.441
		c0.222,0.056,0.362,0.195,0.418,0.418l5.19-4.604l-0.084,1.59l-4.521,3.516l0.083,0.084c0.113,0.279,0.224,0.53,0.335,0.753
		c0.056,0,0.084,0.028,0.084,0.084c0.168,0.223,0.307,0.502,0.418,0.837l5.358-2.177l1.423,0.837l-6.529,2.01
		c0.056,0.167,0.111,0.391,0.167,0.669l7.284-1.758l2.093,1.507l-1.674,2.009h-7.451c0,0.223-0.028,0.475-0.084,0.754l6.781,0.167
		l-1.173,1.255l-5.693-0.752c0,0.334-0.083,0.669-0.25,1.004c-0.056,0.223-0.139,0.502-0.252,0.837l5.191,2.26l0.502,1.675
		l-6.028-3.264c-0.111,0.223-0.223,0.389-0.333,0.502l6.361,4.103l0.419,2.511l-2.595,0.167l-5.191-5.274
		c-0.223,0.224-0.419,0.393-0.586,0.504l4.521,5.022h-1.591l-3.601-4.604c-0.223,0.111-0.446,0.25-0.669,0.419
		c-0.056,0.056-0.141,0.111-0.252,0.167l-0.585,0.335h-0.168l2.093,5.441l-0.921,1.339l-1.758-6.53
		c-0.279,0.111-0.531,0.169-0.754,0.169l1.675,7.282l-1.339,2.176l-2.094-1.758v-7.534c-0.224,0.058-0.446,0.058-0.67,0
		l-0.419,6.949l-1.087-1.172l0.752-5.86c-0.333-0.056-0.641-0.111-0.92-0.167h-0.167c-0.279-0.111-0.558-0.224-0.837-0.335
		l-2.261,5.358l-1.589,0.333l3.18-5.943c-0.167-0.056-0.335-0.194-0.502-0.419l-3.851,6.362l-2.68,0.504l-0.25-2.68l5.273-5.273
		c-0.055-0.168-0.194-0.335-0.418-0.504l-5.023,4.604v-1.589l4.521-3.518c-0.167-0.279-0.306-0.529-0.418-0.754
		c-0.167-0.333-0.335-0.668-0.502-1.004l-5.441,2.177l-1.256-0.921l6.445-2.009c-0.056-0.167-0.083-0.361-0.083-0.586l-7.366,1.675
		l-2.178-1.425l1.843-2.009l7.534-0.083c0-0.279-0.028-0.502-0.083-0.669l-6.697-0.252l1.004-1.255l5.777,0.837
		c0.111-0.334,0.222-0.642,0.335-0.92l-0.085-0.083c0.056-0.28,0.141-0.503,0.252-0.67c0-0.111,0.028-0.195,0.083-0.251
		l-5.273-2.344l-0.419-1.507l6.027,3.181c0.056-0.167,0.139-0.335,0.252-0.502l-6.279-3.935l-0.418-2.595l2.595-0.251l5.19,5.358
		c0.224-0.223,0.391-0.391,0.502-0.503l-4.52-5.023h1.589l3.517,4.521c0.279-0.167,0.53-0.335,0.754-0.502
		c0.333-0.112,0.668-0.28,1.004-0.503l-2.176-5.274l0.837-1.423l2.01,6.529c0.222-0.111,0.418-0.167,0.585-0.167L148.316,135.15z
		 M152.754,187.053l-1.508-3.349l3.517,1.675l2.846-2.595l-0.669,3.851l3.265,1.926l-3.767,0.502l-0.837,3.936l-1.675-3.601
		l-3.936,0.419L152.754,187.053z M110.813,134.313l3.432,1.758l2.847-2.595l-0.587,3.851l3.265,2.01l-3.767,0.502l-0.837,3.767
		l-1.757-3.432l-3.768,0.334l2.762-2.678L110.813,134.313z"/>
	<path fill-rule="evenodd" clip-rule="evenodd" fill="#1543A5" d="M123.704,103.171c-10.994-0.056-19.923,3.907-26.789,11.888
		c-6.808,8.092-10.074,18.556-9.794,31.393c0.28,13.953,4.912,28.379,13.896,43.28c8.595,14.456,20.593,28.101,35.998,40.938
		c0.502,0.502,1.033,0.976,1.591,1.423c2.232,1.785,4.521,3.6,6.864,5.441c-2.343-1.508-4.632-3.071-6.864-4.688
		c-0.558-0.391-1.089-0.753-1.591-1.089c-20.705-14.511-36.696-30.109-47.968-46.797c-11.218-16.632-16.799-32.48-16.743-47.549
		c0.111-14.008,4.994-24.362,14.65-31.059C96.72,99.487,108.97,98.427,123.704,103.171z M43.254,111.71
		c2.176-9.264,6.112-16.938,11.803-23.022c5.749-6.418,12.781-10.409,21.097-11.971c18.975-3.907,39.15,4.437,60.525,25.03
		c-21.431-8.874-38.787-9.739-52.07-2.595c-12.278,6.529-18.78,18.222-19.506,35.076c-0.613,17.023,4.884,34.603,16.493,52.741
		c12.948,20.204,31.31,37.059,55.083,50.564c-36.61-15.571-63.092-36.194-79.444-61.866C43.17,153.735,38.51,132.416,43.254,111.71z
		 M21.99,68.848c4.689-5.135,11.246-9.208,19.673-12.222c9.153-3.237,18.866-4.465,29.134-3.684
		c25.672,1.786,47.243,15.181,64.712,40.183c-16.521-16.241-34.353-24.222-53.495-23.942c-17.189,0.279-29.97,6.307-38.342,18.083
		c-9.6,13.506-13.562,28.519-11.887,45.038c1.562,15.349,7.701,30.808,18.417,46.378c10.268,14.847,23.468,28.155,39.596,39.933
		c15.013,10.771,30.752,18.947,47.216,24.527c0.502,0.169,1.033,0.336,1.591,0.504c1.004,0.39,2.037,0.727,3.097,1.004
		c-1.06-0.223-2.093-0.474-3.097-0.754c-0.558-0.224-1.089-0.391-1.591-0.502c-21.32-6.138-41.662-15.265-61.029-27.374
		c-20.929-13.005-37.783-27.682-50.563-44.035C11.86,154.572,4.465,137.327,3.239,120.25C1.731,101.553,7.982,84.419,21.99,68.848z"
		/>
</g>
</svg>
