<?xml version="1.0" encoding="utf-8"?>
<!-- Generator: Adobe Illustrator 16.0.0, SVG Export Plug-In . SVG Version: 6.00 Build 0)  -->
<!DOCTYPE svg PUBLIC "-//W3C//DTD SVG 1.1//EN" "http://www.w3.org/Graphics/SVG/1.1/DTD/svg11.dtd">
<svg version="1.1" id="Layer_1" xmlns="http://www.w3.org/2000/svg" xmlns:xlink="http://www.w3.org/1999/xlink" x="0px" y="0px"
	 width="300px" height="300px" viewBox="0 0 300 300" enable-background="new 0 0 300 300" xml:space="preserve">
<g>
	<path fill-rule="evenodd" clip-rule="evenodd" fill="#FFFFFF" d="M121.95,13.805c8.508-7.307,19.47-10.544,32.885-9.709
		c-5.637,0.888-11.458,3.263-17.46,7.126c-11.536,7.673-17.305,18.583-17.305,32.729l1.096,9.788
		c2.662,7.725,8.065,14.798,16.208,21.219c8.456,6.317,15.373,12.293,20.749,17.931c13.781,14.616,16.991,26.909,9.63,36.879
		c-2.244,3.289-4.618,6.186-7.124,8.692c-0.626,0.625-1.278,1.2-1.958,1.722c-2.61,2.246-5.403,4.02-8.377,5.325
		c-0.21,0.104-0.366,0.182-0.471,0.234c-0.104,0.054-0.183,0.08-0.235,0.08l-8.299,2.583l14.72-12.919
		c8.144-10.283,8.144-19.105,0-26.465c-7.151-6.211-13.232-11.588-18.243-16.129c-9.814-8.822-15.713-14.381-17.696-16.678
		c-12.111-16.234-14.459-33.174-7.047-50.817L121.95,13.805z M100.025,265.228c-3.132-2.402-6.342-5.272-9.63-8.613
		c-2.088-2.142-3.994-4.28-5.717-6.422c-0.261-0.207-0.496-0.442-0.704-0.704c-0.105-0.052-0.183-0.156-0.235-0.312
		c-4.542-5.588-8.3-11.59-11.275-18.01c-2.454-5.115-4.358-10.519-5.716-16.209c-0.104-0.104-0.157-0.182-0.157-0.233
		c-1.305-5.587-2.323-10.729-3.054-15.426c-1.357-8.613-1.852-15.895-1.487-21.847c0.521-7.413,2.401-12.813,5.638-16.208
		l116.509,49.252l0.392,0.077L100.025,265.228z M147.632,207.206l-3.758-0.939l2.427,3.211l-1.878,3.367l3.679-1.488l2.663,2.976
		l-0.314-3.994l3.68-1.565l-3.915-1.096l-0.392-3.837L147.632,207.206z M118.583,200.395l-1.723,0.392l-2.506,5.325
		c-0.313-0.158-0.601-0.262-0.861-0.313c-0.313-0.053-0.679-0.158-1.097-0.313l0.94-5.951l-1.097-1.019l-0.704,6.892
		c-0.157,0-0.339,0-0.548,0l0.157-7.752l-1.958-1.88l-1.566,2.271l1.487,7.518h-0.078c-0.209,0.051-0.418,0.104-0.626,0.157
		l-1.645-6.734l-0.94,1.409l1.879,5.559c-0.313,0.158-0.626,0.313-0.939,0.47c-0.209,0.105-0.392,0.235-0.548,0.392
		c-0.052,0-0.104,0.026-0.156,0.08l-3.603-4.856h-1.566l4.463,5.325c-0.208,0.104-0.365,0.209-0.469,0.313l-5.325-5.402l-2.74,0.155
		l0.392,2.663l6.421,4.149c-0.104,0.209-0.209,0.392-0.313,0.549l-6.029-3.446l0.392,1.644l5.246,2.508
		c-0.104,0.26-0.183,0.521-0.235,0.782c-0.104,0.418-0.208,0.81-0.313,1.175l-5.872-1.019l-1.175,1.174l7.047,0.55
		c-0.052,0.26-0.079,0.521-0.079,0.782l-7.594-0.235l-1.88,1.958l2.036,1.644l7.595-1.565c0.052,0.209,0.105,0.418,0.157,0.627
		l-6.812,1.879l1.331,0.783l5.794-1.957c0.052,0.312,0.183,0.651,0.392,1.017c0-0.052,0.026-0.052,0.078,0
		c0,0.104,0.026,0.21,0.078,0.313c0.052,0.053,0.104,0.156,0.157,0.313c0.104,0,0.157,0.026,0.157,0.079l-4.776,3.522l-0.157,1.723
		l5.48-4.541c0,0.052,0.026,0.104,0.078,0.156c0.052,0.157,0.157,0.313,0.313,0.469l-5.56,5.17l0.079,2.582l2.662-0.313l4.229-6.421
		c0.209,0.156,0.417,0.288,0.626,0.392l-3.523,6.029l1.645-0.313l2.583-5.403c0,0.104,0.052,0.156,0.157,0.156
		c0.209,0.053,0.418,0.104,0.627,0.157h0.078c0,0.052,0.026,0.052,0.079,0c0.313,0.156,0.626,0.234,0.938,0.234l-0.938,5.951
		l1.018,1.174l0.626-6.968c0.209,0,0.443,0,0.705,0l-0.157,7.751l1.958,1.801l1.644-2.192l-1.644-7.439
		c0.261-0.051,0.521-0.129,0.783-0.233l1.722,6.812l0.861-1.487l-1.958-5.56c0.366-0.104,0.678-0.233,0.939-0.392
		c0.313-0.156,0.601-0.339,0.861-0.547l3.523,4.854h1.566l-4.463-5.245c0.157-0.21,0.313-0.366,0.471-0.47l5.324,5.481l2.662-0.158
		l-0.391-2.583l-6.421-4.229c0.157-0.261,0.313-0.47,0.47-0.627l5.951,3.523l-0.392-1.565l-5.246-2.663
		c0.052-0.208,0.13-0.47,0.234-0.783c0.052-0.052,0.078-0.129,0.078-0.233l0.235-0.705v-0.078l5.794,0.938l1.331-1.174l-6.969-0.547
		c0-0.263,0-0.496,0-0.705l7.595,0.155l1.879-1.958l-2.192-1.644l-7.517,1.565c0-0.155-0.052-0.364-0.157-0.625l6.734-1.879
		l-1.332-0.861l-5.638,1.958c-0.104-0.263-0.26-0.55-0.469-0.863v-0.077c-0.104-0.314-0.261-0.574-0.47-0.783l4.777-3.446
		l0.078-1.722l-5.246,4.542c-0.156-0.158-0.339-0.287-0.547-0.392l5.481-5.403l0.078-2.662l-2.819,0.313l-4.15,6.42
		c-0.156-0.104-0.365-0.182-0.626-0.233L118.583,200.395z M92.117,177.766l-0.469-3.993l-2.035,3.368l-3.916-0.784l2.505,2.975
		l-1.958,3.446l3.68-1.488l2.74,2.976l-0.313-3.993l3.602-1.646L92.117,177.766z M92.273,246.514l2.428,2.975l-1.88,3.367
		l3.602-1.488l2.663,2.977l-0.234-3.915l3.601-1.724l-3.836-0.938l-0.47-3.915l-2.114,3.366L92.273,246.514z"/>
	<path fill-rule="evenodd" clip-rule="evenodd" fill="#1543A5" d="M111.066,77.541l12.762,13.625
		c0.522,0.574,1.071,1.148,1.645,1.723c8.248,8.404,14.563,13.78,18.949,16.129c7.256,3.968,10.492,9.161,9.708,15.582
		c-0.313,2.975-1.593,5.846-3.836,8.612c-1.462,1.776-3.368,3.523-5.717,5.247c-0.887,0.573-1.801,1.148-2.741,1.722
		c-3.184,1.88-6.968,3.733-11.354,5.559l-0.156,0.08l12.292-9.084c5.377-5.741,5.769-11.196,1.175-16.364
		c-0.939-0.939-2.035-1.904-3.288-2.897c-10.283-7.882-17.983-16.078-23.099-24.586C114.432,87.825,112.319,82.709,111.066,77.541z
		 M234.937,210.496h-50.739L67.688,161.244c1.722-1.88,3.915-3.158,6.577-3.837h151.98c4.281,1.045,7.517,4.125,9.71,9.24
		c0.364,1.097,0.783,2.297,1.253,3.602c12.007-4.229,22.706-3.394,32.103,2.505c2.191,1.41,4.124,2.977,5.795,4.698
		c1.198,1.2,2.244,2.48,3.132,3.837c2.14,3.08,3.548,6.629,4.227,10.648c0.262,1.619,0.42,3.342,0.471,5.169
		c0,0.678,0,1.408,0,2.192c-0.051,2.452-0.313,5.01-0.782,7.673c-0.104,1.097-0.287,2.14-0.55,3.133c0,0.155,0,0.287,0,0.392
		h-14.641c0.052-0.158,0.078-0.288,0.078-0.392c0.782-3.863,0.835-7.466,0.155-10.806c-0.26-0.784-0.47-1.515-0.625-2.192
		c-0.627-1.879-1.514-3.604-2.663-5.169c-0.104-0.209-0.234-0.392-0.392-0.547c-4.646-5.899-10.204-8.64-16.678-8.223l-8.378,2.506
		c-0.104,2.088-0.287,4.176-0.547,6.264c-0.262,1.724-0.496,3.445-0.705,5.169c-0.106,0.678-0.183,1.408-0.235,2.192
		c-0.627,3.653-1.279,7.256-1.959,10.806C235.014,210.26,234.989,210.392,234.937,210.496z"/>
	<path fill-rule="evenodd" clip-rule="evenodd" fill="#CB0914" d="M175.976,21.557c8.197,5.168,11.015,12.894,8.458,23.177
		c-2.663,10.283-8.222,15.216-16.68,14.798c-7.829,0-12.369-2.792-13.623-8.377c-2.192-6.891,0.156-11.198,7.048-12.92l-1.88,3.21
		c-0.889,3.028-0.261,5.377,1.88,7.047c3.028,2.61,6.68,2.427,10.962-0.548c4.279-3.863,5.559-8.143,3.835-12.841
		c-1.67-5.585-6.159-8.378-13.467-8.378c-7.255,0.365-12.214,3.158-14.877,8.378c-2.923,6.42-2.923,12.841,0,19.262
		c3.915,7.726,11.457,12.215,22.63,13.468c11.171,1.357,18.869-3.784,23.099-15.425c2.662-6.42,3.992-11.98,3.992-16.678
		l1.88,12.215c-0.47,14.616-6.917,24.481-19.342,29.597c-14.198,6.003-26.882,4.281-38.053-5.167
		c-9.396-8.561-13.649-18.035-12.763-28.423c1.67-15.347,10.022-24.326,25.056-26.936C161.857,15.71,169.139,17.225,175.976,21.557z
		 M234.937,210.496c-0.26,1.407-0.575,2.817-0.938,4.229l-5.795,16.051c0.156,0.104,0.338,0.234,0.547,0.392
		c3.498,2.295,9.762,3.262,18.793,2.896c2.559-0.209,5.037-1.175,7.438-2.896c3.341-2.506,6.446-6.709,9.317-12.607
		c0.47-1.148,0.939-2.35,1.411-3.602c0.521-1.514,0.938-3.001,1.252-4.462h14.641c-0.417,1.514-0.809,3-1.174,4.462
		c-0.625,2.035-1.356,3.993-2.191,5.872c-1.566,3.76-3.524,7.205-5.873,10.337c-2.715,3.497-5.848,6.55-9.396,9.16
		c-7.727,5.221-14.382,7.62-19.967,7.204l-27.641,3.211c-4.75,5.585-9.71,10.517-14.877,14.797l-7.124,4.464h103.747
		c1.722,1.774,1.722,3.314,0,4.62c-6.578,0.209-12.868,0.47-18.87,0.783c-22.396,1.305-40.3,3.836-53.716,7.595
		c-0.679,0.156-1.356,0.34-2.035,0.547l-15.581,7.753H92.979c-0.939-1.305-2.74-2.583-5.403-3.837
		c-2.506-1.305-5.873-2.608-10.1-3.916c-9.971-3.077-22.916-5.375-38.837-6.889c-10.648-1.097-22.603-1.775-35.861-2.036
		c-0.365-0.471-0.548-0.914-0.548-1.331c-0.417-0.888-0.235-1.983,0.548-3.289H107.15c-0.574-0.261-1.095-0.549-1.565-0.86
		c-1.827-1.148-3.681-2.454-5.56-3.915l84.563-54.654l-0.392-0.077H234.937z"/>
	<path fill-rule="evenodd" clip-rule="evenodd" fill="#FCD116" d="M147.632,207.206l2.192-3.366l0.392,3.837l3.915,1.096
		l-3.68,1.565l0.314,3.994l-2.663-2.976l-3.679,1.488l1.878-3.367l-2.427-3.211L147.632,207.206z M92.117,177.766l3.837,0.86
		l-3.602,1.646l0.313,3.993l-2.74-2.976l-3.68,1.488l1.958-3.446l-2.505-2.975l3.916,0.784l2.035-3.368L92.117,177.766z
		 M118.583,200.395l-3.602,6.108c0.261,0.052,0.47,0.129,0.626,0.233l4.15-6.42l2.819-0.313l-0.078,2.662l-5.481,5.403
		c0.208,0.104,0.391,0.233,0.547,0.392l5.246-4.542l-0.078,1.722l-4.777,3.446c0.209,0.209,0.366,0.469,0.47,0.783v0.077
		c0.209,0.313,0.366,0.601,0.469,0.863l5.638-1.958l1.332,0.861l-6.734,1.879c0.105,0.261,0.157,0.47,0.157,0.625l7.517-1.565
		l2.192,1.644l-1.879,1.958l-7.595-0.155c0,0.209,0,0.442,0,0.705l6.969,0.547l-1.331,1.174l-5.794-0.938v0.078l-0.235,0.705
		c0,0.104-0.026,0.182-0.078,0.233c-0.104,0.313-0.183,0.575-0.234,0.783l5.246,2.663l0.392,1.565l-5.951-3.523
		c-0.157,0.157-0.313,0.366-0.47,0.627l6.421,4.229l0.391,2.583l-2.662,0.158l-5.324-5.481c-0.157,0.104-0.314,0.26-0.471,0.47
		l4.463,5.245h-1.566l-3.523-4.854c-0.261,0.208-0.548,0.391-0.861,0.547c-0.261,0.158-0.574,0.287-0.939,0.392l1.958,5.56
		l-0.861,1.487l-1.722-6.812c-0.262,0.104-0.522,0.183-0.783,0.233l1.644,7.439l-1.644,2.192l-1.958-1.801l0.157-7.751
		c-0.262,0-0.496,0-0.705,0l-0.626,6.968l-1.018-1.174l0.938-5.951c-0.313,0-0.626-0.078-0.938-0.234
		c-0.053,0.052-0.079,0.052-0.079,0h-0.078c-0.209-0.054-0.418-0.104-0.627-0.157c-0.104,0-0.157-0.052-0.157-0.156l-2.583,5.403
		l-1.645,0.313l3.523-6.029c-0.209-0.104-0.417-0.235-0.626-0.392l-4.229,6.421l-2.662,0.313l-0.079-2.582l5.56-5.17
		c-0.157-0.155-0.261-0.312-0.313-0.469c-0.052-0.053-0.078-0.104-0.078-0.156l-5.48,4.541l0.157-1.723l4.776-3.522
		c0-0.053-0.052-0.079-0.157-0.079c-0.052-0.157-0.104-0.261-0.157-0.313c-0.052-0.104-0.078-0.21-0.078-0.313
		c-0.052-0.052-0.078-0.052-0.078,0c-0.208-0.365-0.339-0.705-0.392-1.017l-5.794,1.957l-1.331-0.783l6.812-1.879
		c-0.052-0.209-0.105-0.418-0.157-0.627l-7.595,1.565l-2.036-1.644l1.88-1.958l7.594,0.235c0-0.261,0.027-0.522,0.079-0.782
		l-7.047-0.55l1.175-1.174l5.872,1.019c0.104-0.365,0.209-0.757,0.313-1.175c0.053-0.262,0.131-0.522,0.235-0.782l-5.246-2.508
		l-0.392-1.644l6.029,3.446c0.104-0.157,0.208-0.34,0.313-0.549l-6.421-4.149l-0.392-2.663l2.74-0.155l5.325,5.402
		c0.104-0.104,0.261-0.209,0.469-0.313l-4.463-5.325h1.566l3.603,4.856c0.052-0.054,0.104-0.08,0.156-0.08
		c0.157-0.156,0.339-0.286,0.548-0.392c0.313-0.156,0.626-0.312,0.939-0.47l-1.879-5.559l0.94-1.409l1.645,6.734
		c0.208-0.054,0.417-0.106,0.626-0.157h0.078l-1.487-7.518l1.566-2.271l1.958,1.88l-0.157,7.752c0.209,0,0.392,0,0.548,0
		l0.704-6.892l1.097,1.019l-0.94,5.951c0.417,0.155,0.783,0.261,1.097,0.313c0.26,0.052,0.547,0.155,0.861,0.313l2.506-5.325
		L118.583,200.395z M92.273,246.514l3.759,0.704l2.114-3.366l0.47,3.915l3.836,0.938l-3.601,1.724l0.234,3.915l-2.663-2.977
		l-3.602,1.488l1.88-3.367L92.273,246.514z"/>
</g>
</svg>
