<?xml version="1.0" encoding="utf-8"?>
<!-- Generator: Adobe Illustrator 16.0.0, SVG Export Plug-In . SVG Version: 6.00 Build 0)  -->
<!DOCTYPE svg PUBLIC "-//W3C//DTD SVG 1.1//EN" "http://www.w3.org/Graphics/SVG/1.1/DTD/svg11.dtd">
<svg version="1.1" id="Layer_1" xmlns="http://www.w3.org/2000/svg" xmlns:xlink="http://www.w3.org/1999/xlink" x="0px" y="0px"
	 width="300px" height="300px" viewBox="0 0 300 300" enable-background="new 0 0 300 300" xml:space="preserve">
<g>
	<path fill-rule="evenodd" clip-rule="evenodd" fill="#FFFFFF" d="M233.72,9.221l-83.654,130.973l-0.376-0.282L86.879,97.005
		c2.066-0.752,4.007-1.408,5.822-1.971c2.127-0.627,4.005-1.128,5.633-1.504c2.378-0.625,4.318-1.001,5.82-1.126
		c1.564-0.187,4.977-1.063,10.234-2.629c5.257-1.689,7.887-2.69,7.887-3.003c0-0.251-2.098-0.188-6.292,0.187
		c-3.003,0.251-4.756,0.345-5.257,0.282c-0.438-0.125-0.313-0.563,0.376-1.315c0.376-0.438,1.252-1.126,2.63-2.064
		c1.375-0.877,2.848-1.66,4.412-2.348c3.568-1.69,5.226-2.535,4.977-2.535c-0.438-0.125-3.538,0.501-9.295,1.877
		c-5.633,1.252-9.42,2.16-11.36,2.723c-0.876,0.251-1.691,0.563-2.443,0.939c-0.625,0.313-0.938,0.594-0.938,0.845
		c0,0.187-0.218,0.376-0.657,0.563l-0.093,0.094c-0.438,0.064-0.908,0.095-1.409,0.095c-0.563,0-2.098,0.312-4.601,0.939
		c-2.567,0.625-5.384,1.439-8.45,2.44c-2.064,0.625-3.88,1.188-5.446,1.689l-1.783-1.219c3.693-1.502,9.138-3.537,16.335-6.103
		l13.427-4.508c0.376-0.125,0.594-0.313,0.657-0.563c0.251-0.125,0.313-0.282,0.188-0.47c-0.251-0.188-3.224,0.688-8.919,2.63
		c-1.439,0.5-3.068,1.063-4.883,1.688c-8.199,2.879-13.895,4.788-17.087,5.727c-0.5,0.189-0.97,0.345-1.408,0.469l-2.817-1.971
		c1.001-0.5,2.254-1.001,3.756-1.502c1.377-0.5,2.44-0.939,3.192-1.314c0.688-0.312,0.813-0.47,0.376-0.47
		c-1.128-0.062,2.347-1.533,10.421-4.412c3.38-1.126,6.196-2.065,8.45-2.816c3.255-1.002,5.506-1.565,6.759-1.691
		c1.315-0.187,2.129-0.218,2.441-0.093c0.313,0,0.126,0.188-0.563,0.563c-1.502,0.688-1.626,0.97-0.376,0.845
		c1.19-0.188,2.692-0.626,4.507-1.315c1.502-0.563,2.285-0.875,2.347-0.938c0.187-0.187-0.345-0.282-1.595-0.282
		c-0.689,0-1.315-0.125-1.878-0.375c-0.564-0.188-0.939-0.345-1.127-0.469c-0.187-0.501,0.658-1.315,2.536-2.442
		c1.878-1.001,3.38-1.501,4.506-1.501c0.251,0,0.5-0.095,0.752-0.282c0.062-0.063,0-0.125-0.189-0.188
		c-0.312-0.438-3.004,0.063-8.074,1.502c-3.192,0.876-6.541,1.878-10.045,3.004c-1.94,0.626-3.944,1.284-6.009,1.971
		c-5.384,1.941-8.857,3.005-10.421,3.193c-1.628,0.125-0.563-0.688,3.193-2.441c1.439-0.688,2.534-1.252,3.286-1.69
		c0.688-0.625,0.843-1.001,0.469-1.126c-0.502-0.188-0.752-0.376-0.752-0.564c0-0.125,0.25-0.406,0.752-0.844
		c0.563-0.314,0.843-0.533,0.843-0.658l-0.843,0.188c-7.262,2.253-14.459,4.538-21.594,6.854c-2.316,0.751-4.225,1.439-5.729,2.066
		L41.343,65.74c0.565-0.25,0.939-0.438,1.128-0.563c0.813-0.688,2.661-1.377,5.54-2.066c9.2-2.252,16.649-4.194,22.344-5.821
		c5.76-1.689,11.925-3.787,18.497-6.29c4.192-1.565,10.107-3.537,17.743-5.916c7.573-2.378,14.553-4.443,20.938-6.196
		c2.065-0.5,4.069-1.063,6.009-1.69c4.194-1.189,8.012-2.285,11.454-3.286c4.194-1.251,7.042-2.19,8.543-2.816
		c0.376-0.125,0.689-0.25,0.938-0.376c1.128-0.626,2.661-1.189,4.602-1.69c1.69-0.626,3.724-1.189,6.103-1.689
		c5.008-1.002,9.046-1.503,12.111-1.503c1.188,0,2.254-0.063,3.193-0.187c0.938-0.188,1.408-0.407,1.408-0.657
		c0-0.313-0.313-0.533-0.939-0.658c-0.625-0.25-1.377-0.376-2.254-0.376c-1.314,0-5.82,0.721-13.52,2.16
		c-2.254,0.438-4.287,0.813-6.103,1.126c-2.191,0.438-4.036,0.783-5.54,1.033c-1.627,0.375-2.941,0.658-3.942,0.845
		c-0.625,0.251-1.001,0.345-1.126,0.282c-0.063-0.125,0.156-0.313,0.656-0.564c0.5-0.375,0.752-0.657,0.752-0.844
		c-0.189-0.063-0.596-0.219-1.221-0.469c-0.5-0.126,0.187-0.47,2.065-1.034c0.813-0.25,1.753-0.532,2.816-0.844
		c1.314-0.438,2.912-0.908,4.79-1.408c0.312-0.188,0.563-0.283,0.75-0.283c5.884-1.564,11.11-2.691,15.68-3.379
		c4.757-0.751,6.884-0.751,6.384,0c-0.25,0.5,5.133,0.626,16.149,0.376c11.14-0.438,18.213-0.97,21.219-1.596
		c1.501-0.313,2.347-0.533,2.534-0.658l-1.409-0.093c-0.688-0.125-1.595-0.313-2.723-0.564c-1.063-0.313-2.033-0.626-2.91-0.939
		h-0.094c-0.813-0.375-1.784-0.626-2.91-0.751c-1.128-0.125-2.004-0.125-2.629,0c-1.126,0.25-1.815,0.25-2.065,0
		c-0.251-0.125-0.251-0.594,0-1.408c0.313-0.814,0.376-1.284,0.188-1.408c-0.188-0.25-0.75-0.25-1.689,0
		c-0.813,0.125-1.252,0.188-1.314,0.188c-0.188-0.125,0.063-0.376,0.75-0.751c0.502-0.376,0.721-0.626,0.658-0.752
		c0-0.187-0.345-0.281-1.032-0.281c-0.438,0-0.814,0.157-1.128,0.469c-0.376,0.188-0.563,0.438-0.563,0.751
		c0,0.876-1.909,1.565-5.728,2.066c-3.882,0.438-5.946,0.313-6.195-0.375c-0.063-0.251-0.503-0.501-1.315-0.752
		c-0.752-0.25-1.597-0.375-2.536-0.375c-2.189,0-3.504-0.219-3.942-0.658c-0.563-0.5,0.22-0.782,2.348-0.845
		c1.439,0,5.853-0.313,13.237-0.939c4.194-0.125,6.823-0.344,7.887-0.656c0.939-0.125,0.939-0.407,0-0.845
		c-1.063-0.501-1.252-0.782-0.563-0.846c0.625-0.25,2.534-0.5,5.727-0.751c0.877-0.062,1.815-0.125,2.816-0.188
		c5.195-0.187,10.548,0.031,16.055,0.658C231.154,8.845,232.404,9.033,233.72,9.221z M175.979,13.539
		c-0.688-0.313-0.313-0.47,1.128-0.47c1.502,0,1.909,0.157,1.22,0.47C177.514,13.789,176.73,13.789,175.979,13.539z M199.92,15.886
		c1.065,0,1.784,0.031,2.16,0.093c0.376,0.063,0.376,0.188,0,0.376c-1.065,0.25-2.316,0.25-3.756,0
		c-0.563-0.125-0.689-0.25-0.376-0.376C198.262,15.917,198.919,15.886,199.92,15.886z M108.755,31.377
		c0.313,0,0.376,0.125,0.187,0.376c0,0.063-0.063,0.156-0.187,0.282V31.377z M209.967,11.661c1.063,0.25,2.003,0.25,2.816,0
		c0.626-0.313,0.063-0.469-1.69-0.469C209.277,11.254,208.901,11.411,209.967,11.661z M85.19,95.784l-2.91-2.065
		c3.442-1.252,5.727-2.066,6.853-2.441c1.69-0.876,2.316-1.69,1.877-2.442c-0.187-0.312-0.218-0.469-0.093-0.469
		c0-0.063,0.156-0.031,0.469,0.095c0.752,0.438,1.909,0.438,3.473,0c0.939-0.126,1.503-0.313,1.691-0.565
		c0.187-0.249,0.031-0.532-0.47-0.843c-0.438-0.313-0.625-0.5-0.563-0.565c0-0.062,0.343,0,1.033,0.189
		c0.375,0.125,0.97,0.125,1.784,0c0.062-0.063,0.125-0.094,0.187-0.094c1.001-0.126,2.004-0.345,3.005-0.658
		c2.127-0.876,3.504-1.314,4.129-1.314c0.502-0.063,0.876,0.188,1.128,0.751c0.187,0.251-0.251,0.657-1.315,1.221
		c-1.001,0.501-2.378,1.064-4.131,1.689c-1.188,0.376-2.191,0.721-3.003,1.033c-1.377,0.564-2.316,1.003-2.817,1.314
		c-0.814,0.438-0.063,0.438,2.254,0c0.249-0.062,0.437-0.093,0.563-0.093c2.503-0.563,2.503-0.345,0,0.656
		c-0.438,0.126-1.001,0.345-1.691,0.658C93.954,92.78,90.134,94.095,85.19,95.784z M95.798,68.182c0.251-0.25,0.251-0.376,0-0.376
		c-0.625,0-1.72,0.438-3.286,1.315c-0.625,0.375-1.095,0.688-1.408,0.939c-0.25,0.313-0.25,0.469,0,0.469
		c0.627,0,1.722-0.469,3.286-1.408C95.08,68.745,95.549,68.432,95.798,68.182z M88.383,69.59c1.188-0.5,1.313-0.751,0.374-0.751
		c-0.813,0-2.034,0.25-3.66,0.751c-1.001,0.313-1.535,0.501-1.597,0.563c0,0.063,0.375,0.095,1.127,0.095
		C85.878,70.248,87.13,70.028,88.383,69.59z"/>
	<path fill-rule="evenodd" clip-rule="evenodd" fill="#1543A5" d="M163.492,239.714l-13.802-99.803l0.376,0.282L233.72,9.221
		c5.695,0.938,12.299,2.316,19.81,4.13c4.757,1.251,8.981,2.566,12.675,3.943c3.817,1.439,4.287,1.909,1.408,1.408
		c-2.002-0.375-3.004-0.188-3.004,0.563c-0.124,0.752,0.783,1.66,2.724,2.723c3.693,2.002,7.667,4.288,11.923,6.854
		c4.445,2.629,6.541,4.006,6.291,4.132c-0.126,0.188-1.815-0.345-5.07-1.597c-3.067-1.126-4.977-1.689-5.727-1.689
		c-0.689,0-0.531,0.563,0.47,1.689c0.75,0.939,0.906,1.377,0.47,1.315c-0.503,0-2.191-0.595-5.07-1.784
		c-1.753-0.626-3.442-1.127-5.07-1.502c-1.439-0.438-2.348-0.626-2.724-0.564c-0.438,0.126-0.155,0.438,0.846,0.939
		c1.001,0.626,2.472,1.315,4.412,2.066c1.815,0.688,3.788,1.627,5.915,2.816c2.065,1.189,3.662,2.19,4.788,3.005
		c2.63,2.252,3.944,3.474,3.944,3.661c0.188,0.251-0.845-0.218-3.099-1.408c-3.255-1.689-4.915-2.284-4.977-1.783
		c-0.063,0.375,1.503,1.439,4.694,3.191c3.631,2.003,6.291,3.662,7.98,4.977c1.69,1.251,2.098,1.847,1.221,1.783
		c-0.313,0-1.628-0.375-3.942-1.127c-2.254-0.875-4.757-1.877-7.511-3.003c-7.011-3.005-14.553-5.602-22.629-7.793
		c-8.136-2.253-12.924-3.098-14.363-2.534c-0.313,0.187-0.438,0.313-0.376,0.375c0.125,0.063,0.407,0.157,0.846,0.281
		c0.438,0,0.845,0.031,1.219,0.095c0.313,0.25,0.47,0.469,0.47,0.657c0,0.5,2.285,1.721,6.854,3.661
		c4.632,2.003,9.013,3.599,13.145,4.789c1.69,0.563,3.379,1.283,5.07,2.16c1.688,0.75,2.848,1.439,3.473,2.065
		c1.253,1.377,3.413,3.004,6.479,4.881c3.317,1.941,4.318,2.817,3.004,2.63c-1.439-0.126-4.475-1.222-9.106-3.286
		c-4.694-2.066-7.511-3.224-8.45-3.474c-1.063-0.376-0.938,0,0.376,1.127c1.315,1.001,1.502,1.408,0.563,1.22
		c-1.063-0.063-2.034,0.125-2.91,0.563c-0.376,0.125-1.66,0-3.85-0.375c-2.19-0.438-4.632-1.033-7.323-1.784
		c-5.509-1.627-9.451-2.504-11.83-2.629c-2.378-0.188-6.728,0.094-13.051,0.845c-5.07,0.688-7.354,1.252-6.854,1.69
		c0.503,0.375,3.944,0.813,10.328,1.314c2.066,0.25,3.913,0.564,5.54,0.939c1.563,0.313,2.474,0.626,2.723,0.939
		c0.188,0.25,0.783,0.626,1.784,1.127c1.001,0.626,2.127,1.158,3.38,1.596c2.941,1.126,4.287,1.846,4.038,2.159
		c-0.252,0.188-3.006,0-8.264-0.563c-8.073-1.127-11.985-1.439-11.735-0.939c0.125,0.688,4.287,1.659,12.487,2.91
		c5.32,0.939,9.701,1.753,13.145,2.441c7.135,1.439,10.045,2.347,8.73,2.723c-0.501,0.188-0.783,0.345-0.846,0.47
		c0,0.188,0.221,0.407,0.658,0.657c0.75,0.438,0.156,1.063-1.784,1.878c-1.252,0.563-2.629,0.813-4.131,0.751
		c-1.439,0-4.036-0.345-7.792-1.033c-5.57-1.002-9.577-1.502-12.018-1.502c-2.504-0.063-4.132,0.376-4.882,1.314
		c-0.376,0.375-0.846,0.689-1.408,0.939c-0.689,0.313-1.346,0.47-1.974,0.47c-0.563,0-1.126,0.093-1.688,0.281
		c-0.501,0.188-0.783,0.407-0.846,0.658c-0.249,0.25-0.124,0.5,0.376,0.75c0.563,0.125,1.315,0.188,2.254,0.188
		c2.064,0,4.661,0.375,7.792,1.127l4.413,1.126l-4.694,0.752c-2.816,0.313-7.638,0.532-14.459,0.656
		c-5.509,0.125-8.106,0.407-7.793,0.846c0.251,0.5,3.441,1.126,9.577,1.877c2.127,0.25,4.005,0.563,5.634,0.939
		c1.815,0.376,2.879,0.72,3.19,1.032c0.627,0.438,2.975,0.908,7.042,1.408c1.753,0.251,3.882,0.595,6.385,1.034
		c2.63,0.626,4.977,1.22,7.041,1.783c3.38,1.128,6.041,2.066,7.98,2.816c1.94,0.814,2.441,1.284,1.502,1.409
		c-0.249,0-0.218,0.158,0.094,0.469c0.251,0.313,0.689,0.721,1.314,1.221c1.065,0.75,1.315,1.126,0.752,1.126
		c-0.563,0-2.567-0.5-6.009-1.502c-5.195-1.439-9.044-2.347-11.549-2.723l-4.225-0.656l2.347,1.784
		c0.564,0.563,1.377,1.095,2.442,1.595c1.001,0.438,1.878,0.783,2.628,1.033l2.816,0.751l-3.755,0.376
		c-1.002,0.063-1.972,0.218-2.91,0.47c-0.939,0.249-1.596,0.5-1.972,0.75c-0.251,0.251-1.095,0.5-2.536,0.751
		c-1.188,0.376-2.565,0.594-4.13,0.657c-1.503,0.189-2.879,0.407-4.131,0.658c-1.19,0.25-1.878,0.5-2.066,0.75
		c-0.437,0.752,0.062,1.878,1.503,3.38c1.439,1.503,3.004,2.505,4.694,3.005c2.003,0.5,4.757,0.781,8.262,0.845
		c1.439,0,3.067,0.156,4.883,0.47c1.751,0.312,3.224,0.625,4.412,0.938c2.064,0.563,2.848,0.908,2.347,1.033
		c-0.5,0.062-2.91,0-7.229-0.189c-5.259-0.374-8.231-0.281-8.919,0.282c-0.689,0.563,1.313,1.284,6.008,2.16
		c4.632,0.875,6.447,1.377,5.445,1.502c-1.126,0.125-4.35-0.22-9.671-1.032c-6.383-0.939-9.731-1.284-10.045-1.034
		c-0.376,0.313,0.656,0.658,3.099,1.034c4.882,0.812,7.26,1.377,7.136,1.688c-0.252,0.314-3.1,0.345-8.544,0.094l-11.643-0.374
		l9.2,1.408c2.316,0.374,4.477,0.719,6.479,1.032c10.766,1.689,16.993,3.38,18.684,5.07c0.563,0.501,1.159,0.908,1.785,1.22
		c0.688,0.376,1.188,0.563,1.501,0.563c0.939,0,2.941,0.783,6.01,2.347c3.192,1.566,4.193,2.191,3.004,1.877
		c-1.188-0.374-3.066-0.75-5.634-1.126l-3.849-0.469l5.163,2.91c3.507,2.066,5.385,3.286,5.634,3.662
		c0.313,0.5-0.908,0.407-3.662-0.283l-4.788-1.313l1.502,2.252c0.438,0.627,0.908,1.128,1.408,1.504
		c0.563,0.438,1.001,0.656,1.315,0.656c0.876,0,1.877,0.532,3.003,1.596c0.376,0.5,1.222,1.127,2.536,1.877
		c1.377,0.752,2.755,1.439,4.132,2.067c3.253,1.501,6.665,3.473,10.232,5.914c3.568,2.316,6.667,4.694,9.295,7.137l4.318,3.755
		l-5.351-2.442c-1.439-0.688-2.724-1.439-3.85-2.251c-1.127-0.814-1.722-1.409-1.784-1.784c-0.313-0.877-3.13-2.723-8.449-5.54
		c-5.258-2.879-9.733-4.881-13.427-6.009c-2.69-0.876-6.353-1.658-10.984-2.347c-4.632-0.5-6.948-0.5-6.948,0
		c0,0.627,0.252,0.939,0.752,0.939c0.563,0,2.848,0.876,6.853,2.63l5.822,2.723l-13.896-0.375c-3.756-0.063-6.948-0.094-9.576-0.094
		c-2.503,0-3.6,0.094-3.286,0.281c0.249,0.125,0.47,0.345,0.656,0.658c0.127,0.374,0.127,0.719,0,1.032
		c-0.313,0.876,0.407,1.596,2.16,2.158c1.253,0.501,1.784,0.783,1.596,0.846c-0.063,0.125-1.063,0.189-3.004,0.189
		c-1.69,0.062-2.691,0.187-3.005,0.374c-0.313,0.126-0.219,0.438,0.282,0.939c0.313,0.375,1.032,0.751,2.16,1.127
		c1.063,0.438,2.158,0.75,3.286,0.939c2.754,0.438,4.726,0.939,5.913,1.502c0.939,0.313,1.378,0.5,1.315,0.563
		c0,0.125-0.47,0.189-1.408,0.189c-1.878,0.062-2.724,0.374-2.534,0.938c0.187,0.625,1.313,1.095,3.379,1.408
		c1.063,0.125,2.973,0.813,5.727,2.065c2.567,1.126,5.227,2.44,7.98,3.942c7.449,4.131,13.863,7.511,19.247,10.141
		c5.195,2.629,9.639,5.07,13.332,7.323c3.63,2.252,4.538,3.098,2.723,2.535c-1.502-0.376-5.413-2.254-11.736-5.634
		c-5.008-2.63-9.42-4.694-13.237-6.196c-3.756-1.502-8.481-2.975-14.177-4.414c-3.255-0.812-5.571-1.25-6.948-1.313
		c-1.439-0.127-3.441,0.125-6.009,0.75l-5.914,1.221l4.13,0.75c1.628,0.376,2.599,0.628,2.912,0.752
		c0.312,0.188,0.124,0.407-0.565,0.657c-1.25,0.5,0.438,1.127,5.07,1.877c4.007,0.565,8.356,1.409,13.051,2.536
		c3.004,0.814,9.202,3.442,18.591,7.888c9.262,4.567,14.52,7.479,15.771,8.73c0.376,0.438,0.252,0.563-0.376,0.375
		c-0.563-0.313-1.439-0.751-2.627-1.314c-1.253-0.688-2.379-1.283-3.38-1.784c-1.001-0.312-1.566-0.405-1.69-0.28
		c-0.125,0.187-0.47,0.187-1.033,0c-0.5-0.063-1.001-0.313-1.501-0.752c-1.441-0.814-4.884-2.223-10.328-4.225
		c-2.191-0.814-4.538-1.689-7.041-2.628c-2.254-1.003-3.914-1.815-4.978-2.442c-1.877-1.126-5.351-2.316-10.421-3.567
		c-5.133-1.314-7.98-1.753-8.543-1.314c-0.063,0.188-0.033,0.345,0.093,0.47c0.25,0.063,0.595,0.093,1.033,0.093
		c1.001,0,2.66,0.659,4.977,1.972c0.938,0.501,1.878,0.908,2.816,1.222c0.877,0.376,1.471,0.563,1.782,0.563
		c0.313,0,0.627,0.125,0.939,0.376c0.438,0.251,0.782,0.532,1.034,0.846c0.374,0.75,3.755,2.658,10.139,5.727
		c6.385,2.941,9.451,4.538,9.201,4.788c-0.188,0.251-1.408-0.125-3.662-1.126c-2.253-0.814-3.379-1.063-3.379-0.752
		c0.063,0.251,1.219,0.97,3.473,2.16c2.63,1.439,3.506,2.033,2.63,1.784c-1.065-0.251-3.631-1.314-7.7-3.192
		c-2.127-0.814-4.099-1.566-5.914-2.254c-1.939-0.563-3.161-0.846-3.661-0.846c-1.564,0-1.94,0.283-1.126,0.846
		c0.938,0.688,2.879,1.439,5.82,2.254c4.943,1.688,10.859,4.569,17.745,8.637c6.947,3.944,10.014,6.354,9.199,7.23
		c-0.5,0.501-3.128-0.096-7.885-1.784c-1.19-0.438-0.438,0.187,2.252,1.878c2.816,1.753,5.226,3.379,7.23,4.881
		c2.002,1.502,2.941,2.379,2.816,2.63c-0.313,0.249-3.38-1.001-9.202-3.756c-5.758-2.754-9.826-4.1-12.205-4.037
		c-2.315,0.188-3.473,0.313-3.473,0.375c0,0.063,2.347,1.253,7.041,3.569c3.818,1.813,6.853,3.441,9.106,4.881s3.38,2.472,3.38,3.1
		c0,0.187-0.156,0.312-0.47,0.374c-0.312,0.126-0.688,0.095-1.126-0.094c-0.938-0.25-0.438,0.251,1.502,1.502
		c2.567,1.941,3.413,2.723,2.536,2.347c-0.938-0.063-4.069-1.313-9.389-3.755c-1.441-0.626-2.943-1.157-4.508-1.596
		c-1.628-0.501-2.723-0.752-3.285-0.752c-3.631,0.064-5.446,0.282-5.446,0.658c0,0.25,1.753,1.157,5.259,2.724
		c1.94,1.001,4.537,2.378,7.792,4.129c3.255,1.753,6.165,3.507,8.731,5.26c4.757,3.003,7.761,5.006,9.014,6.007
		c1.314,1.003,0.469,0.752-2.534-0.75c-0.814-0.5-1.878-0.907-3.193-1.221c-1.377-0.438-2.598-0.688-3.662-0.75
		c-1.125-0.064-2.816-0.438-5.07-1.128c-2.253-0.688-4.474-1.533-6.665-2.534c-4.569-1.878-8.637-3.506-12.205-4.884
		c-3.631-1.313-5.883-1.971-6.76-1.971c-0.876,0-1.159,0.531-0.845,1.597c0.187,0.438,0.218,0.688,0.093,0.75
		c0,0.252-0.124,0.282-0.376,0.094c-0.438-0.312-3.786-0.75-10.045-1.313c-2.567-0.252-4.977-0.597-7.23-1.034
		c-2.189-0.438-3.629-0.72-4.318-0.844c-0.813-0.438-0.97-0.689-0.47-0.752c0.438-0.125,1.815-0.063,4.132,0.187
		c4.256,0.438,6.572,0.689,6.948,0.752c0.812,0.252,0.97,0.219,0.469-0.093c-0.251,0-0.407-0.158-0.469-0.47
		c0-0.189,0.062-0.407,0.187-0.658c0.501-0.75-3.224-1.533-11.173-2.348c-7.885-0.938-15.209-1.377-21.968-1.313l-9.578,0.187
		l10.234,1.315c7.197,0.938,12.393,2.033,15.585,3.286c3.067,1.188,3.255,2.189,0.563,3.003c-0.563,0.252-1.219,0.595-1.971,1.032
		c-0.626,0.438-1.157,0.846-1.596,1.222c-0.938,0.938-2.91,1.815-5.916,2.63c-3.003,0.813-5.602,1.219-7.791,1.219
		c-0.752,0-1.284,0.063-1.598,0.189c-0.313,0.063-0.406,0.218-0.28,0.47c0.437,0.374,4.287,0.812,11.547,1.313
		c7.136,0.564,11.736,1.097,13.803,1.598c1.063,0.438,1.439,0.688,1.126,0.75c-0.313,0.063-1.596,0-3.849-0.188
		c-2.63-0.125-3.756-0.125-3.38,0c0.312,0.125,2.472,0.656,6.477,1.596c2.442,0.5,5.29,0.97,8.545,1.408
		c3.254,0.376,5.977,0.658,8.168,0.845c5.008,0.189,8.574,0.532,10.703,1.033c2.379,0.438,5.383,1.472,9.014,3.099
		c3.568,1.564,5.351,2.565,5.351,3.004c0,0.313,0.063,0.5,0.188,0.564c0.125,0.063,0.28,0.031,0.47-0.096
		c0.187-0.124,0.563-0.062,1.126,0.189c0.438,0.312,0.97,0.688,1.597,1.126c1.502,1.314,2.128,2.066,1.878,2.254
		c-0.063,0.124-2.754-0.688-8.075-2.441c-2.189-0.876-4.506-1.597-6.946-2.16c-2.442-0.563-4.32-0.876-5.634-0.938
		c-1.377,0-2.474-0.094-3.286-0.28c-0.938-0.064-1.346-0.189-1.221-0.376c0.249-0.313-1.315-0.501-4.694-0.563
		c-3.193-0.126-5.32-0.031-6.386,0.28c-1.188,0.376,1.315,1.723,7.512,4.038c5.508,2.127,11.235,4.663,17.182,7.604
		c6.134,3.068,9.044,4.851,8.732,5.352c-0.188,0.438,0.844,1.784,3.097,4.037c2.254,2.254,4.477,4.101,6.666,5.54
		c0.627,0.501,0.564,0.625-0.187,0.376c-0.689-0.251-1.847-0.721-3.474-1.408c-8.952-4.007-16.212-6.854-21.783-8.545
		c-5.57-1.689-12.268-3.098-20.092-4.226c-6.946-0.874-10.546-1.25-10.797-1.126c-0.188,0.313,4.225,1.471,13.239,3.474
		c9.7,2.191,16.586,3.913,20.655,5.163c4.13,1.253,8.043,2.849,11.736,4.79c4.191,2.127,5.758,3.035,4.694,2.722l-15.587-4.694
		c-3.317-0.875-5.789-1.313-7.416-1.313c-0.752,0-2.63-0.282-5.633-0.845c-3.006-0.563-6.198-1.222-9.578-1.972
		c-3.38-0.752-6.915-1.473-10.608-2.16c-3.755-0.688-6.51-1.095-8.263-1.222c-2.44-0.312-4.1-0.594-4.977-0.843
		c-0.877-0.252-1.22-0.597-1.032-1.034c0.126-0.313,0.407-0.626,0.845-0.939c0.501-0.249,1.002-0.438,1.502-0.563
		c0.626-0.125,0-0.188-1.877-0.188c-2.191,0.063-4.882,0.125-8.074,0.188c-3.38,0.124-6.29,0.313-8.732,0.563
		c-2.628,0.127-4.005,0.313-4.13,0.565c-0.251,0.249,0.626,0.5,2.628,0.75c2.004,0.375,4.508,0.721,7.511,1.032
		c7.262,0.752,13.896,1.753,19.905,3.005c3.191,0.688,5.068,1.095,5.634,1.22c0.563,0.251-0.063,0.313-1.878,0.188
		c-3.568-0.438-11.173-0.813-22.815-1.127c-6.948-0.188-12.205-0.25-15.773-0.188c-3.567,0.125-7.009,0.47-10.328,1.032
		c-5.758,1.063-12.172,2.348-19.247,3.85l-1.408-10.232c2.505-0.564,5.039-1.19,7.606-1.878c6.196-1.753,12.268-3.006,18.213-3.756
		c6.009-0.751,8.169-0.596,6.479,0.47c-0.501,0.374-0.594,0.656-0.28,0.844c0.374,0.126,1.188,0.188,2.44,0.188
		c1.001,0,1.815-0.093,2.44-0.282c0.563-0.125,0.752-0.345,0.563-0.656c-0.188-0.251,0-0.501,0.563-0.752
		c0.565-0.376,1.315-0.625,2.254-0.75c1.502-0.251,2.316-0.501,2.44-0.752c0.251-0.125,0.063-0.407-0.563-0.846
		c-0.626-0.312-1.752-0.469-3.38-0.469c-1.69-0.063-3.662,0-5.916,0.188c-2.127,0.188-4.191,0.25-6.195,0.188
		c-2.128-0.125-3.567-0.282-4.319-0.47C182.927,235.865,175.195,236.773,163.492,239.714z M234.188,32.974
		c1.002,0.313,1.878,0.313,2.63,0c0.688-0.313,0.188-0.47-1.502-0.47C233.501,32.629,233.125,32.786,234.188,32.974z
		 M188.747,222.156c-1.815,0.064-2.189,0.22-1.126,0.47c1.126,0.313,2.064,0.313,2.816,0
		C191.063,222.314,190.5,222.156,188.747,222.156z M206.774,198.121c-0.814,0.189-1.377,0.407-1.69,0.658
		c-0.939,0.626,1.877,0.939,8.449,0.939c10.015,0,18.967,1.408,26.852,4.225c2.755,1.001,6.292,1.439,10.61,1.313
		c1.753-0.063,3.693-0.063,5.82,0c1.878,0.126,3.381,0.282,4.507,0.469c1.378,0.252,1.909,0.252,1.596,0
		c-0.312-0.249-1.72-0.843-4.225-1.782c-2.69-1.128-4.381-1.973-5.068-2.536c-0.689-0.438-0.939-1.063-0.752-1.878
		c0.187-0.375,0.282-0.75,0.282-1.125c-0.063-0.376-0.189-0.563-0.376-0.563c-0.501,0-4.726-0.596-12.675-1.784
		c-7.135-1.128-13.271-1.847-18.401-2.16c-5.07-0.249-8.732-0.125-10.986,0.376c-1.314,0.187-2.064,0.345-2.254,0.47
		c-0.063,0.124,0.376,0.187,1.315,0.187c1.502,0.127,2.66,0.438,3.475,0.939c0.75,0.564,0.656,1.034-0.282,1.408
		c-0.814,0.376-2.16,0.564-4.038,0.564C208.308,197.841,207.587,197.935,206.774,198.121z M250.056,210.327
		c0.125,0.124,0.438,0.282,0.939,0.469c1.188,0.563,2.315,0.846,3.38,0.846c0.438,0,0.625-0.063,0.563-0.188
		c-0.188-0.188-0.532-0.406-1.032-0.658c-1.315-0.5-2.41-0.75-3.286-0.75C250.243,210.046,250.056,210.14,250.056,210.327z
		 M270.618,206.291c0.563,0,1.314,0.312,2.253,0.938c0.437,0.25,0.688,0.438,0.75,0.563c0.063,0.249,0,0.376-0.187,0.376
		c-0.689,0-1.471-0.314-2.348-0.939c-0.438-0.251-0.689-0.47-0.751-0.658C270.273,206.385,270.366,206.291,270.618,206.291z"/>
	<path fill-rule="evenodd" clip-rule="evenodd" fill="#CB0914" d="M41.343,65.74l20.186,13.896
		c-3.379,1.126-5.102,1.753-5.164,1.877c-0.374,0.376-0.436,0.532-0.187,0.47c0.25-0.125,0.69,0.156,1.315,0.845
		c0.5,0.438,0.25,0.939-0.752,1.502c-1.001,0.438-3.13,1.188-6.383,2.253c-2.316,0.688-4.663,1.282-7.042,1.783
		c-2.38,0.438-4.006,0.658-4.883,0.658c-2.253,0-7.98,0.781-17.18,2.347c-8.888,1.564-14.209,2.316-15.961,2.254H2.85l7.417-3.006
		c3.317-1.501,6.447-2.692,9.389-3.566c3.255-0.939,8.012-2.098,14.272-3.475c9.2-2.127,14.646-3.599,16.335-4.412
		c1.753-0.751,2.098-1.002,1.034-0.751c-1.815,0.5-6.886,1.502-15.211,3.005c-8.387,1.377-13.927,2.189-16.617,2.441
		c-2.692,0.312-4.1,0.375-4.225,0.187c-0.251,0,0.343-0.376,1.785-1.126c0.812-0.314,2.378-0.783,4.694-1.409
		c2.314-0.689,4.661-1.283,7.042-1.784c2.503-0.5,5.006-1.096,7.511-1.784c2.503-0.751,4.318-1.377,5.444-1.877
		c2.441-1.189,2.973-1.659,1.597-1.409c-1.628,0.376-5.29,0.877-10.986,1.503c-5.633,0.5-9.295,0.751-10.984,0.751
		c-1.001,0-1.128-0.188-0.376-0.563c0.563-0.376,2.16-0.97,4.788-1.784c2.004-0.751,3.693-1.377,5.07-1.878
		c1.315-0.563,1.878-0.908,1.691-1.032c-0.126-0.188-0.783-0.313-1.973-0.376c-1.063-0.125-2.314-0.157-3.755-0.093
		c-2.628,0.062-3.723,0-3.286-0.188c0.313-0.188,2.912-0.908,7.793-2.16c2.567-0.688,5.008-1.408,7.324-2.16
		C39.748,66.304,40.656,65.991,41.343,65.74z M16.559,173.43c-0.752,0.25-1.66,0.25-2.723,0c-1.065-0.251-0.721-0.406,1.033-0.469
		C16.684,172.961,17.246,173.116,16.559,173.43z M20.032,171.927c1.502,0,1.878,0.188,1.126,0.564c-0.75,0.312-1.502,0.312-2.252,0
		C18.154,172.115,18.53,171.927,20.032,171.927z M27.636,95.877c0.689-0.062,0.783,0.096,0.282,0.47
		c-1.127,1.127-4.131,2.129-9.013,3.005c-4.883,0.939-7.324,1.001-7.324,0.187c0-0.187,0.814-0.532,2.44-1.032
		c1.377-0.438,3.162-0.846,5.353-1.221C24.194,96.347,26.949,95.877,27.636,95.877z M78.429,91.183
		c-6.446,1.878-8.762,2.223-6.946,1.034c0.939-0.564,2.659-1.314,5.164-2.253L78.429,91.183z M85.19,95.784
		c-3.13,1.001-6.666,2.16-10.61,3.475c-11.267,3.629-19.465,6.165-24.598,7.604c-5.008,1.377-7.731,1.909-8.169,1.596
		c-0.437-0.438,9.765-4.256,30.609-11.454c3.942-1.315,7.229-2.41,9.858-3.286L85.19,95.784z M74.956,88.836
		c-2.378,0.565-3.912,0.689-4.601,0.376c-0.876-0.25-0.876-0.719,0-1.408c0.438-0.312,1.033-0.625,1.784-0.939L74.956,88.836z
		 M149.69,139.911l13.802,99.803c-0.689,0.125-1.377,0.281-2.066,0.47c-12.831,3.255-30.827,8.857-53.985,16.807
		c-3.379,1.126-6.416,2.158-9.106,3.097c-6.886,2.254-11.549,3.693-13.99,4.318c-1.564,0.501-2.848,0.971-3.849,1.408
		c-1.065,0.438-1.535,0.752-1.408,0.939c0.5,0.752-1.753,1.722-6.761,2.912c-4.881,1.25-9.326,1.971-13.331,2.158
		c-5.257,0.188-9.482,0.907-12.675,2.16c-3.13,1.25-5.289,1.878-6.479,1.878c-0.813,0-2.285,0.093-4.412,0.28
		c-1.001,0-2.098,0.064-3.286,0.188l-6.009,0.47l5.07-1.597c1.377-0.501,2.441-0.939,3.193-1.313
		c0.75-0.376,0.938-0.658,0.563-0.846c-0.376-0.124-0.22-0.313,0.469-0.563c0.125-0.127,0.281-0.22,0.469-0.282
		c1.126-0.438,2.661-0.877,4.601-1.315c1.878-0.375,3.629-0.907,5.257-1.595c1.626-0.563,2.661-1.032,3.097-1.408
		c0.689-0.627,0.908-1.002,0.658-1.128c-0.126-0.063-0.814,0.031-2.066,0.282c-3.317,0.688-6.415,1.222-9.293,1.596
		c-0.939,0.126-1.847,0.282-2.723,0.469c-4.131,0.689-7.48,1.315-10.047,1.878c-3.442,0.689-7.009,1.097-10.702,1.222
		c-3.755,0.063-5.07-0.188-3.944-0.752c1.065-0.563,4.477-1.658,10.234-3.286c0.5-0.188,0.97-0.343,1.408-0.47
		c7.073-2.002,11.674-3.348,13.801-4.036c2.253-0.751,3.381-1.377,3.381-1.877c0-0.189-0.502-0.314-1.503-0.376
		c-0.939-0.063-2.065-0.031-3.38,0.093l-4.881,0.563l6.009-1.878c4.505-1.377,6.946-2.252,7.322-2.628
		c0.375-0.376-0.813-0.721-3.567-1.032l-5.164-0.564l10.328-4.976l-4.225,0.47c-2.943,0.438-4.038,0.407-3.286-0.094
		c0.75-0.564,3.097-1.346,7.042-2.347c10.577-2.881,15.178-4.79,13.801-5.729c-0.438-0.188-0.625-0.343-0.563-0.47
		c0.25-0.188,0.813-0.28,1.689-0.28c0.752,0,1.408-0.094,1.973-0.282c0.625-0.188,1.001-0.407,1.126-0.657
		c0.187-0.251,0.187-0.407,0-0.469c-0.125-0.063-0.407-0.031-0.846,0.093c-1.001,0.438-1.47,0.252-1.408-0.563
		c0-0.752,0.5-1.314,1.502-1.69c0.689-0.188,0.876-0.376,0.565-0.563c-0.376-0.187-1.19-0.376-2.443-0.563l-3.473-0.563l3.004-3.005
		c0.752-0.814,1.315-1.471,1.691-1.972c0.375-0.688,0.407-1.032,0.093-1.032c-0.187,0-0.376-0.125-0.563-0.376
		c-0.25-0.251-0.376-0.532-0.376-0.846c0-1.001-0.845-1.533-2.534-1.595c-1.252,0-1.878-0.063-1.878-0.189
		c0.063-0.187,0.877-0.594,2.441-1.22c1.001-0.438,1.658-0.813,1.971-1.127c0.5-0.374,0.596-0.719,0.283-1.033
		c-0.376-0.187,0.218-0.594,1.784-1.219c1.564-0.689,3.66-1.504,6.29-2.442c6.196-2.003,9.295-3.16,9.295-3.474
		c0-0.187-0.783-0.282-2.347-0.282c-1.564,0-3.506,0.096-5.822,0.282c-4.067,0.251-8.074,0.688-12.017,1.314
		c-4.069,0.688-12.519,2.285-25.35,4.788c-8.2,1.627-14.114,2.692-17.745,3.192c-3.568,0.376-5.54,0.313-5.916-0.188
		c-0.125-0.249,0.469-0.531,1.784-0.844c1.252-0.438,2.816-0.813,4.694-1.128c4.757-0.75,8.107-1.501,10.047-2.253l3.004-1.032
		l-3.849-0.563c-1.69-0.187-2.41-0.376-2.16-0.563c0.313-0.189,2.16-0.501,5.54-0.939l12.768-2.16
		c3.755-0.688,7.793-1.657,12.112-2.91c4.131-1.439,6.917-2.691,8.356-3.755c0.5-0.438,2.127-1.157,4.881-2.16
		c2.629-1.063,5.509-2.158,8.639-3.286c3.253-1.063,6.103-2.003,8.543-2.817c2.378-1.001,3.629-1.626,3.755-1.877
		c0.438-0.75,0.063-0.875-1.127-0.374c-2.565,1.126-9.796,3.473-21.688,7.041c-11.705,3.566-19.779,5.852-24.222,6.853
		c-3.818,0.939-8.201,1.691-13.144,2.254c-5.008,0.752-7.638,1.001-7.887,0.752c-0.251-0.313,1.971-0.97,6.666-1.974
		c10.766-2.315,18.277-4.035,22.533-5.163c4.445-1.188,7.262-2.221,8.45-3.098c1.188-1.128,3.317-2.284,6.385-3.475
		c3.066-1.251,5.289-1.878,6.666-1.878c0.876,0,2.69-0.938,5.444-2.816c2.754-1.878,3.945-2.973,3.569-3.286
		c-0.187-0.312-1.94-0.188-5.257,0.376c-3.442,0.689-5.227,0.938-5.353,0.752c-0.249-0.252,1.159-1.878,4.225-4.884
		c2.253-2.127,4.069-3.724,5.446-4.788c0.625-0.438,1.159-0.813,1.595-1.125c2.817-1.566,4.946-3.317,6.385-5.258
		c1.501-1.942,1.188-2.505-0.939-1.69c-0.376,0.187-0.657,0.282-0.845,0.282c-0.187-0.064-0.187-0.189,0-0.376
		c0.563-0.627,0.126-1.283-1.315-1.972c-1.502-0.689-2.91-0.845-4.225-0.469c-2.127,0.374-2.627,0.187-1.501-0.565
		c1.001-0.75,3.099-1.72,6.292-2.91c2.189-0.876,3.535-1.532,4.036-1.971c0.501-0.313,0.376-0.595-0.375-0.846
		c-0.877-0.376-1.313-0.625-1.313-0.75c0-0.126,0.469-0.188,1.408-0.188c0.5,0,0.843-0.063,1.032-0.188
		c0.063-0.124-0.031-0.251-0.282-0.376c-0.438-0.124-1.282-0.094-2.534,0.094c-1.252,0.251-2.63,0.594-4.131,1.032l-8.919,2.442
		l1.784-1.503c0.75-0.563,1.157-0.939,1.219-1.126c0.063-0.252-0.187-0.376-0.75-0.376c-0.375,0-0.375-0.188,0-0.563
		c0.25-0.376,0.877-0.783,1.878-1.221c0.876-0.563,1.502-1.002,1.878-1.313c0.376-0.376,0.376-0.564,0-0.564
		c-0.438-0.063-0.47-0.219-0.094-0.47c0.25-0.312,0.75-0.688,1.502-1.126c0.939-0.5,1.533-0.907,1.784-1.221
		c0.25-0.374,0.125-0.626-0.376-0.75c-0.438-0.063-0.814-0.313-1.127-0.752c-0.437-0.25-0.781-0.595-1.033-1.032
		c-0.563-0.877-1.94-1.222-4.131-1.033c-2.065,0.25-5.789,1.251-11.171,3.004c-6.51,2.066-11.048,3.286-13.614,3.662
		c-2.879,0.438-3.851,0.188-2.912-0.752c0.814-1.001,3.319-2.347,7.511-4.036c9.264-3.817,13.865-5.946,13.803-6.385
		c0-0.376-4.694,1.032-14.083,4.225c-7.324,2.63-14.366,4.946-21.125,6.948c-0.69,0.188-1.377,0.376-2.067,0.563
		c-4.443,1.315-7.542,2.067-9.293,2.254c-1.69,0.252-3.537,0.188-5.54-0.187c-2.879-0.565-3.755-0.877-2.63-0.939
		c1.377-0.063,7.887-1.597,19.53-4.601c0.876-0.251,1.846-0.501,2.91-0.752c13.458-3.504,21.625-5.758,24.504-6.759
		c1.377-0.501,2.378-0.939,3.006-1.315c0.688-0.376,0.75-0.594,0.187-0.656c-0.877,0-1.315-0.095-1.315-0.282
		c0-0.063,0.407-0.438,1.221-1.126c0.438-0.313,1.315-0.783,2.628-1.408c1.252-0.565,2.536-1.034,3.851-1.408
		c3.128-1.128,4.913-1.909,5.351-2.347c0.313-0.438-0.783-0.501-3.286-0.189c-1.753,0.251-2.879,0.282-3.38,0.093
		c-0.5-0.062-0.625-0.405-0.375-1.032c0.313-0.814,1.877-2.002,4.694-3.566c2.816-1.566,6.323-3.193,10.515-4.883
		c2.816-1.126,4.79-2.096,5.916-2.91c1.063-0.876,1.595-1.753,1.595-2.63c0-0.438-0.249-0.532-0.75-0.28
		c-0.5,0.312-2.474,0.625-5.916,0.939c-1.315,0.062-4.474,0.845-9.482,2.347c-4.881,1.501-10.171,3.224-15.867,5.164
		c-13.645,4.632-20.529,6.884-20.655,6.759c-0.125-0.187,1.001-0.781,3.379-1.784c2.316-1.063,5.102-2.221,8.356-3.473
		c3.38-1.439,6.165-2.661,8.356-3.662c2.316-1.188,3.379-1.878,3.192-2.065c-0.126-0.313-0.062-0.5,0.187-0.563
		c0.251-0.251,0.625-0.375,1.128-0.375c1.063,0,0.688-0.376-1.128-1.128c-1.125-0.374-2.316-0.469-3.566-0.281
		c-1.377,0.125-3.475,0.594-6.292,1.409c-2.002,0.625-3.88,1.063-5.633,1.314c-1.564,0.374-2.503,0.501-2.816,0.374
		c-0.376-0.062,0.031-0.374,1.221-0.938c1.188-0.501,2.785-1.064,4.788-1.689c1.878-0.563,3.506-1.063,4.881-1.502
		c1.315-0.565,1.911-0.876,1.785-0.939c-0.25-0.251-5.227,0.75-14.929,3.004c-9.638,2.253-14.677,3.224-15.116,2.91
		c-0.313-0.376,0.127-0.594,1.315-0.657c0.876,0,1.315-0.031,1.315-0.093c0-0.064-0.438-0.283-1.315-0.659
		c-0.876-0.249-1.159-0.469-0.845-0.656c0.189-0.251,1.032-0.5,2.536-0.752c2.627-0.5,5.633-1.284,9.013-2.347
		c3.442-1.25,7.48-2.534,12.112-3.849c1.878-0.625,3.349-1.19,4.412-1.69c1.001-0.438,1.284-0.688,0.845-0.75
		c-0.752-0.251-4.225,0.407-10.421,1.971c-6.198,1.502-11.393,2.941-15.587,4.318c-1.439,0.5-2.973,0.939-4.599,1.315
		c-1.691,0.251-2.943,0.376-3.755,0.376c-1.441,0-2.191-0.063-2.254-0.189c-0.126-0.063,0.187-0.374,0.939-0.939
		c2.191-1.377,10.139-3.787,23.848-7.229c4.443-1.063,10.702-2.879,18.778-5.446c0.939-0.312,1.877-0.594,2.816-0.843
		c6.134-2.067,9.044-3.224,8.73-3.475c-0.187-0.187-4.85,0.97-13.99,3.475c-9.137,2.44-14.083,3.566-14.833,3.379
		c-0.313-0.189-0.22-0.407,0.281-0.658c0.564-0.312,1.346-0.625,2.347-0.939c1.753-0.625,3.413-1.22,4.977-1.782
		c0.689-0.314,1.377-0.596,2.065-0.846c1.94-0.876,2.785-1.377,2.536-1.501c-0.189-0.251-2.004,0.062-5.446,0.938
		c-3.379,0.939-5.444,1.313-6.196,1.126c-0.876-0.062-0.187-0.594,2.065-1.595c2.442-1.19,3.506-1.815,3.192-1.878
		c-0.25,0-4.256,0.719-12.017,2.159c-3.192,0.627-5.916,1.159-8.169,1.597c-3.38,0.5-5.79,0.719-7.229,0.656
		c-1.753,0-2.503-0.094-2.253-0.282c0.125-0.063,0.469-0.187,1.032-0.374c0.814-0.314,2.191-0.783,4.131-1.409
		c4.381-1.439,7.761-2.816,10.141-4.131c1.063-0.5,3.066-1.221,6.007-2.16c3.13-0.939,6.229-1.784,9.295-2.534
		c3.192-0.814,7.135-1.971,11.83-3.475c4.632-1.377,8.607-2.753,11.925-4.13c4.131-1.566,7.98-2.943,11.547-4.131L149.69,139.911z
		 M164.336,245.724l1.408,10.232c-3.693,0.752-7.511,1.565-11.453,2.442c-11.956,2.628-21.374,5.006-28.26,7.135l-21.783,6.479
		c-2.065,0.563-3.911,1.002-5.538,1.313c-1.69,0.438-2.661,0.596-2.912,0.469c-0.75-0.312,1.346-1.595,6.292-3.849
		c2.879-1.439,5.695-2.691,8.45-3.756c1.94-0.75,3.849-1.439,5.727-2.064c5.319-1.815,11.956-3.786,19.903-5.916l11.549-3.192
		l-4.507-0.656c-3.004-0.563-5.883-0.47-8.637,0.282c-2.754,0.563-4.256,0.813-4.507,0.75c-0.312-0.438,2.816-1.688,9.389-3.755
		c6.634-2.003,11.894-3.349,15.773-4.036C158.233,247.101,161.271,246.474,164.336,245.724z M25.478,278.02
		c0.187-0.125,0.187-0.094,0,0.095c-0.063,0.25-0.22,0.438-0.47,0.563c-0.251,0.312-0.972,0.625-2.16,0.938
		c-1.125,0.25-2.44,0.438-3.942,0.563l-4.883,0.376L25.478,278.02z M99.18,268.726c-0.438,0.374-1.722,1.033-3.851,1.972
		c-5.82,2.503-15.834,6.103-30.044,10.797c-13.645,4.318-23.597,7.229-29.855,8.73c-0.251,0.064-0.532,0.127-0.845,0.189
		c-4.694,0.938-10.515,1.377-17.463,1.314c-5.133,0-8.012-0.064-8.639-0.189c-0.625-0.187-0.031-0.563,1.784-1.125
		c2.066-0.69,5.133-1.533,9.202-2.536c2.191-0.501,3.536-0.781,4.036-0.844c0.376-0.313,0.033-0.501-1.032-0.565
		c-0.75-0.124-1.627-0.124-2.628,0c-1.065,0.127-1.973,0.345-2.723,0.659c-1.878,0.688-3.6,1.032-5.164,1.032
		c-1.001,0-1.564-0.156-1.691-0.47c0-0.187,0.313-0.783,0.939-1.784c0.438-0.688,1.032-1.283,1.784-1.784
		c0.814-0.563,1.564-0.908,2.253-1.032c7.636-1.627,14.364-3.035,20.186-4.226c17.838-3.755,26.883-5.508,27.134-5.257
		c0.312,0.313-7.731,2.534-24.13,6.666c-1.125,0.313-2.127,0.563-3.003,0.751c-4.694,1.188-6.948,1.878-6.761,2.065
		c0.251,0.313,2.505-0.094,6.761-1.22c0.25-0.064,0.532-0.157,0.845-0.282c6.196-1.502,11.298-2.599,15.303-3.286
		c3.944-0.752,6.354-1.032,7.23-0.846c0.625,0.252,1.001,0.345,1.126,0.282c0-0.124-0.25-0.438-0.752-0.938
		c-0.688-0.376-1.001-0.594-0.939-0.658c0.189-0.063,0.689-0.031,1.504,0.096c1.126,0.312,2.879,0.093,5.257-0.659
		c2.316-0.688,7.479-2.409,15.491-5.163c5.257-1.878,9.106-3.004,11.547-3.38c2.505-0.376,4.663-0.187,6.479,0.563
		C99.398,267.974,99.616,268.35,99.18,268.726z"/>
	<path fill-rule="evenodd" clip-rule="evenodd" fill="#FCD116" d="M88.194,52.126l4.038,1.502l3.097-3.192l-0.28,4.413l3.849,1.689
		l-4.132,1.221l-0.469,4.319l-2.441-3.755l-4.318,0.938l2.91-3.38L88.194,52.126z M122.838,54.287l4.601,4.788
		c0-0.062,0.063-0.125,0.187-0.188c0.063,0,0.156-0.063,0.282-0.188c0-0.125,0.094-0.187,0.281-0.187v-0.095
		c0.313-0.25,0.658-0.438,1.034-0.563l-3.005-5.915l0.751-1.691l3.004,7.229c0.251-0.125,0.469-0.25,0.658-0.375l-2.723-7.98
		l1.409-2.535l2.44,1.69l1.032,8.45c0.189-0.062,0.438-0.093,0.752-0.093l-0.469-7.699l1.408,1.127l-0.189,6.478
		c0.376,0.126,0.783,0.188,1.221,0.188c0.376,0.063,0.689,0.125,0.939,0.188l2.16-6.197l1.595-0.563l-2.91,7.135
		c0.187,0,0.375,0.095,0.563,0.283l3.756-7.793l2.91-0.751l0.563,3.004l-5.351,6.666c0.187,0.125,0.376,0.251,0.563,0.375
		l5.164-5.727l0.189,1.878l-4.79,4.506c0.063,0.062,0.158,0.125,0.282,0.188c0.125,0.187,0.283,0.375,0.47,0.563v0.093
		c0.249,0.313,0.469,0.626,0.656,0.939l5.822-3.098l1.689,0.939l-7.135,2.911c0.063,0.187,0.094,0.406,0.094,0.656l8.169-2.722
		l2.628,1.408l-1.688,2.347l-8.544,1.127c0.063,0.25,0.094,0.47,0.094,0.657l7.698-0.375l-1.033,1.408l-6.666-0.188
		c0,0.438-0.031,0.845-0.094,1.22c-0.062,0.376-0.126,0.688-0.189,0.939l6.196,2.159l0.659,1.691l-7.135-3.005
		c-0.126,0.25-0.22,0.501-0.283,0.751l7.698,3.568l0.752,3.004l-3.004,0.376l-6.667-5.258c-0.125,0.313-0.249,0.533-0.374,0.657
		l5.727,5.164l-1.878,0.281l-4.507-4.976c-0.25,0.25-0.469,0.5-0.657,0.751h-0.188c-0.312,0.25-0.625,0.469-0.939,0.657l2.912,5.821
		l-0.659,1.783l-3.097-7.323c-0.188,0.188-0.407,0.313-0.658,0.376l2.91,7.979l-1.502,2.63l-2.44-1.691l-0.939-8.449
		c-0.25,0.062-0.532,0.093-0.845,0.093l0.563,7.699l-1.596-1.126l0.283-6.573h-0.189l-0.845-0.093c-0.063,0-0.156-0.031-0.281-0.095
		c-0.251-0.062-0.532-0.125-0.845-0.187l-2.065,6.29l-1.784,0.563l3.003-7.135c-0.187-0.063-0.469-0.187-0.845-0.375l-3.473,7.792
		l-3.003,0.752l-0.47-2.911l5.351-6.76c-0.25-0.125-0.438-0.25-0.563-0.376l-5.257,5.821l-0.189-1.971l4.788-4.413
		c-0.25-0.313-0.47-0.594-0.657-0.845c-0.25-0.313-0.469-0.656-0.656-1.032l-5.729,3.004l-1.783-0.845l7.135-2.817
		c-0.126-0.313-0.22-0.563-0.282-0.751l-7.98,2.817l-2.723-1.502l1.784-2.441l8.45-0.939c-0.063-0.25-0.063-0.5,0-0.751
		l-7.887,0.376l1.127-1.408l6.759,0.187c-0.063-0.375-0.031-0.751,0.094-1.126V64.52c0-0.25,0.033-0.5,0.095-0.751
		c0-0.062,0-0.125,0-0.188l-6.198-2.066l-0.563-1.69l7.23,3.005c0-0.25,0.094-0.532,0.281-0.846l-7.792-3.567l-0.752-2.91
		l2.91-0.469l6.666,5.257c0.063-0.125,0.189-0.282,0.376-0.47h0.094l-5.82-5.352L122.838,54.287z M166.684,38.231l-2.158-3.756
		l4.131,1.503l2.816-3.192l-0.188,4.413l4.038,1.69l-4.318,1.127l-0.47,4.413l-2.348-3.755l-4.32,0.939L166.684,38.231z
		 M146.593,108.648l-0.376,4.505l-2.536-3.849l-4.129,0.939l2.721-3.38l-2.158-3.849l4.036,1.689l3.099-3.193l-0.376,4.131
		l3.944,1.878L146.593,108.648z"/>
</g>
</svg>
