<?xml version="1.0" encoding="utf-8"?>
<!-- Generator: Adobe Illustrator 16.0.0, SVG Export Plug-In . SVG Version: 6.00 Build 0)  -->
<!DOCTYPE svg PUBLIC "-//W3C//DTD SVG 1.1//EN" "http://www.w3.org/Graphics/SVG/1.1/DTD/svg11.dtd">
<svg version="1.1" id="Layer_1" xmlns="http://www.w3.org/2000/svg" xmlns:xlink="http://www.w3.org/1999/xlink" x="0px" y="0px"
	 width="300px" height="300px" viewBox="0 0 300 300" enable-background="new 0 0 300 300" xml:space="preserve">
<g>
	<path fill-rule="evenodd" clip-rule="evenodd" fill="#FFFFFF" d="M290.889,158.006H16.44L2,146.913l17.37-12.346L5.454,118.246
		l19.775-9.104L14.452,90.728l20.926-4.813l-7.114-21.03l21.554-0.523l-2.407-20.927l20.926,3.557l1.884-21.658l20.403,7.848
		l5.231-21.03l18.624,11.405l9.731-19.253l15.589,15.067L152.984,2l12.555,17.37l16.219-13.813l8.893,19.775l18.625-10.882
		l4.811,21.03l20.301-7.01l0.627,21.449l21.555-2.407l-3.662,20.927l21.658,1.988l-7.742,19.775l20.926,5.858l-11.406,17.998
		l19.254,10.148l-5.338,5.546c-3.277,3.348-6.521,6.729-9.73,10.148L298,152.982L290.889,158.006z"/>
	<polygon fill-rule="evenodd" clip-rule="evenodd" fill="#ED2224" points="16.44,158.006 290.889,158.006 280.004,165.538 
		294.338,181.859 274.564,190.857 285.342,209.378 264.309,214.191 270.902,234.594 249.453,235.222 252.383,256.671 
		230.934,253.112 229.68,274.772 209.275,267.029 203.938,287.955 185.313,275.923 175.688,295.594 160.1,280.631 146.808,298 
		134.359,280.108 118.141,294.338 109.142,274.772 90.624,285.548 85.916,264.622 65.408,271.11 64.885,249.45 43.225,252.381 
		46.887,230.932 25.229,229.677 33.077,209.378 12.151,203.937 23.45,185.313 4.199,175.793 19.371,160.202 	"/>
</g>
</svg>
