<?xml version="1.0" encoding="utf-8"?>
<!-- Generator: Adobe Illustrator 16.0.0, SVG Export Plug-In . SVG Version: 6.00 Build 0)  -->
<!DOCTYPE svg PUBLIC "-//W3C//DTD SVG 1.1//EN" "http://www.w3.org/Graphics/SVG/1.1/DTD/svg11.dtd">
<svg version="1.1" id="Layer_1" xmlns="http://www.w3.org/2000/svg" xmlns:xlink="http://www.w3.org/1999/xlink" x="0px" y="0px"
	 width="300px" height="300px" viewBox="0 0 300 300" enable-background="new 0 0 300 300" xml:space="preserve">
<g>
	<path fill-rule="evenodd" clip-rule="evenodd" fill="#1A1A1A" d="M248.538,50.472c-13.743-13.859-28.846-24.047-45.311-30.561
		c-1.423-0.473-2.842-1.008-4.261-1.6l0.173,0.355l2.665,7.108l52.776,39.091l6.396-0.355c-0.354-0.474-0.771-1.007-1.242-1.6
		C256.181,58.528,252.446,54.381,248.538,50.472z M193.809,17.067c-30.442-9.24-58.873-9.358-85.29-0.356l-3.197,8.175
		l44.953,25.232l46.734-23.811L193.809,17.067z M195.943,9.782c21.322,6.634,40.573,18.539,57.748,35.714
		c5.925,5.568,11.193,11.668,15.815,18.301c17.887,24.403,26.83,52.479,26.83,84.225c0,2.25-0.059,4.619-0.177,7.107
		c-1.068,23.694-7.288,45.311-18.658,64.855c-3.671,6.161-7.817,12.145-12.438,17.947v0.354c-0.236,0-0.354,0.063-0.354,0.181
		c-3.553,3.907-7.225,7.814-11.019,11.726c-17.175,17.176-36.426,29.202-57.748,36.069c-13.74,4.504-28.607,6.754-44.599,6.754
		c-6.872,0-13.445-0.354-19.726-1.065c-5.213-0.948-10.127-1.835-14.747-2.665c-0.239,0-0.356-0.118-0.356-0.357
		c-25.466-6.157-48.094-19.069-67.876-38.735c-3.908-3.911-7.579-7.995-11.015-12.26c-13.979-17.176-23.28-36.19-27.896-57.038
		c-1.187-5.448-2.134-11.192-2.846-17.236c-0.354-4.974-0.535-10.187-0.535-15.635c0-27.127,6.459-51.53,19.372-73.208
		c6.039-10.424,13.681-20.196,22.919-29.319C66.172,27.966,85.895,15.883,107.811,9.25c13.622-4.265,28.131-6.398,43.534-6.398
		C167.336,2.852,182.203,5.161,195.943,9.782z M199.675,129.543l39.625-9.239l11.903-51.175l-53.307-39.445l-45.31,24.521v41.757
		L199.675,129.543z M200.028,135.229h-0.354l-16.7,51.708c-0.24,0.354-0.417,0.652-0.535,0.889l21.5,33.76l54.726-4.088
		l19.903-56.86l-37.138-35.182L200.028,135.229z M244.631,121.37l37.849,35.537l6.75-3.196c1.537-31.275-6.278-58.935-23.457-82.982
		h-8.703L244.631,121.37z M288.698,159.573l-5.157,3.022l-19.545,56.326v8.53c2.609-3.793,5.095-7.467,7.465-11.02
		c3.911-6.869,7.166-14.097,9.772-21.679c1.538-4.146,2.843-8.41,3.911-12.793c0.944-3.907,1.777-7.878,2.485-11.904
		c0.118-1.776,0.298-3.494,0.534-5.154L288.698,159.573z M260.269,221.052l-56.329,4.265l-20.257,48.865v0.712l9.064,4.796
		c0.354-0.235,0.826-0.417,1.42-0.534l-0.358,0.181c20.379-6.637,38.619-18.006,54.729-34.116c3.79-3.793,7.17-7.464,10.127-11.018
		c0.118-0.357,0.299-0.594,0.534-0.712c0.354-0.59,0.712-1.065,1.069-1.423V221.052z M58.593,132.031h-0.18l-33.581,37.671v0.354
		l20.253,50.995c0.236,0,0.417,0,0.535,0l54.549,1.069l20.434-34.295l-0.354-0.354l-17.592-50.11L58.593,132.031z M102.126,131.675
		l0.354-0.177l46.199-36.07l0.354-0.356V53.848l-45.311-25.232L45.439,75.883L60.724,126.7L102.126,131.675z M102.657,18.843
		l-1.6,0.533c-17.297,6.398-33.049,16.762-47.265,31.095c-5.57,5.451-10.602,11.491-15.104,18.125
		c-1.183,1.541-2.308,3.198-3.376,4.975h0.18l6.219-1.598l58.991-47.266l3.019-6.396C103.369,18.548,103.015,18.726,102.657,18.843z
		 M150.633,98.803l-45.311,35.005l18.127,51.529h56.325v-0.177l17.234-52.952L150.633,98.803z M40.109,76.948l-8.35,2.489
		c-15.398,25.823-21.205,53.957-17.415,84.402l7.107,3.553l34.83-38.914L40.109,76.948z M15.948,173.431
		c0.354,2.016,0.708,3.97,1.062,5.865c3.911,17.65,11.258,33.941,22.037,48.864l0.174-4.797c0-0.472,0.18-0.829,0.534-1.069
		l-19.899-49.926l-4.796-3.38C15.295,170.41,15.59,171.893,15.948,173.431z M45.085,226.563c-0.118,0-0.295-0.063-0.534-0.181
		l-0.174,6.22c0,0.354-0.18,0.712-0.534,1.069c2.96,3.907,6.278,7.756,9.95,11.549c18.244,18.359,39.15,30.62,62.722,36.78
		c0.239-0.472,0.416-0.83,0.534-1.069l4.797-5.15l-22.211-48.328l-53.126-0.89c-0.354,0.236-0.652,0.354-0.889,0.354L45.085,226.563
		z M122.733,282.889c3.083,0.473,6.4,1.007,9.954,1.597c5.921,0.714,12.14,1.068,18.658,1.068c12.792,0,24.936-1.422,36.426-4.266
		l-2.666-1.599h-58.99c-0.118,0-0.357,0-0.715,0L122.733,282.889z M178.887,189.068H123.98l-20.434,34.295l23.63,50.461
		c0.118,0,0.18,0.181,0.18,0.535h52.418c0-0.354,0.059-0.591,0.177-0.708l20.792-50.288L178.887,189.068z"/>
	<path fill-rule="evenodd" clip-rule="evenodd" fill="#FBFBEA" d="M248.538,50.472c3.908,3.91,7.643,8.057,11.196,12.438
		c0.472,0.593,0.888,1.126,1.242,1.6l-6.396,0.355l-52.776-39.091l-2.665-7.108l-0.173-0.355c1.419,0.591,2.838,1.126,4.261,1.6
		C219.692,26.425,234.795,36.612,248.538,50.472z M200.028,135.229l41.402-9.773l37.138,35.182l-19.903,56.86l-54.726,4.088
		l-21.5-33.76c0.118-0.236,0.295-0.535,0.535-0.889l16.7-51.708H200.028z M199.675,129.543l-47.088-33.582V54.204l45.31-24.521
		l53.307,39.445L239.3,120.304L199.675,129.543z M288.698,159.573l-0.534,5.329c-0.236,1.66-0.416,3.378-0.534,5.154
		c-0.708,4.026-1.541,7.997-2.485,11.904c-1.068,4.383-2.373,8.647-3.911,12.793c-2.606,7.582-5.861,14.81-9.772,21.679
		c-2.37,3.553-4.855,7.227-7.465,11.02v-8.53l19.545-56.326L288.698,159.573z M102.657,18.843c0.357-0.118,0.711-0.295,1.065-0.532
		l-3.019,6.396L41.712,71.973l-6.219,1.598h-0.18c1.069-1.777,2.193-3.434,3.376-4.975c4.501-6.634,9.534-12.674,15.104-18.125
		c14.215-14.333,29.968-24.697,47.265-31.095L102.657,18.843z M102.126,131.675L60.724,126.7L45.439,75.883l58.283-47.267
		l45.311,25.232v41.224l-0.354,0.356l-46.199,36.07L102.126,131.675z M58.593,132.031l44.064,5.331l17.592,50.11l0.354,0.354
		l-20.434,34.295l-54.549-1.069c-0.118,0-0.298,0-0.535,0l-20.253-50.995v-0.354l33.581-37.671H58.593z M15.948,173.431
		c-0.357-1.538-0.652-3.021-0.888-4.442l4.796,3.38l19.899,49.926c-0.354,0.24-0.534,0.598-0.534,1.069l-0.174,4.797
		c-10.779-14.923-18.126-31.214-22.037-48.864C16.656,177.4,16.302,175.446,15.948,173.431z M178.887,189.068l21.856,34.295
		l-20.792,50.288c-0.118,0.117-0.177,0.354-0.177,0.708h-52.418c0-0.354-0.062-0.535-0.18-0.535l-23.63-50.461l20.434-34.295
		H178.887z M122.733,282.889l2.666-3.199c0.358,0,0.598,0,0.715,0h58.99l2.666,1.599c-11.49,2.844-23.634,4.266-36.426,4.266
		c-6.518,0-12.737-0.354-18.658-1.068C129.134,283.896,125.816,283.361,122.733,282.889z"/>
	<path fill-rule="evenodd" clip-rule="evenodd" fill="#C52126" d="M193.809,17.067l3.2,9.24l-46.734,23.811l-44.953-25.232
		l3.197-8.175C134.936,7.708,163.366,7.827,193.809,17.067z M244.631,121.37l12.438-50.641h8.703
		c17.179,24.047,24.994,51.707,23.457,82.982l-6.75,3.196L244.631,121.37z M260.269,221.052v11.016
		c-0.357,0.357-0.715,0.833-1.069,1.423c-0.235,0.118-0.416,0.354-0.534,0.712c-2.957,3.554-6.337,7.225-10.127,11.018
		c-16.11,16.11-34.351,27.479-54.729,34.116l0.358-0.181c-0.594,0.117-1.066,0.299-1.42,0.534l-9.064-4.796v-0.712l20.257-48.865
		L260.269,221.052z M40.109,76.948l16.172,51.53l-34.83,38.914l-7.107-3.553c-3.79-30.446,2.017-58.579,17.415-84.402L40.109,76.948
		z M45.085,226.563l0.535,0.354c0.236,0,0.535-0.118,0.889-0.354l53.126,0.89l22.211,48.328l-4.797,5.15
		c-0.118,0.239-0.295,0.598-0.534,1.069c-23.572-6.16-44.478-18.421-62.722-36.78c-3.672-3.793-6.989-7.642-9.95-11.549
		c0.354-0.357,0.534-0.715,0.534-1.069l0.174-6.22C44.791,226.5,44.968,226.563,45.085,226.563z"/>
	<polygon fill-rule="evenodd" clip-rule="evenodd" fill="#FDCD08" points="150.633,98.803 197.009,132.208 179.774,185.16 
		179.774,185.337 123.449,185.337 105.322,133.808 	"/>
</g>
</svg>
