<?xml version="1.0" encoding="utf-8"?>
<!-- Generator: Adobe Illustrator 16.0.0, SVG Export Plug-In . SVG Version: 6.00 Build 0)  -->
<!DOCTYPE svg PUBLIC "-//W3C//DTD SVG 1.1//EN" "http://www.w3.org/Graphics/SVG/1.1/DTD/svg11.dtd">
<svg version="1.1" id="Layer_1" xmlns="http://www.w3.org/2000/svg" xmlns:xlink="http://www.w3.org/1999/xlink" x="0px" y="0px"
	 width="300px" height="300px" viewBox="0 0 300 300" enable-background="new 0 0 300 300" xml:space="preserve">
<g>
	<path fill-rule="evenodd" clip-rule="evenodd" fill="#201F1E" d="M242.341,193.439c7.694,2.36,14.572,2.666,20.637,0.916
		c3.459,3.704,4.354,7.001,2.687,9.891c-1.303,1.628-3.053,2.503-5.25,2.626c-2.565,0.204-4.498,0.773-5.801,1.708
		c-3.135,0-6.35-1.525-9.646-4.578c-3.012,1.465-5.616,2.401-7.815,2.809c-3.053,0.53-5.697,0.102-7.937-1.282
		c-6.513,2.36-14.633,3.073-24.36,2.137c-10.908-1.546-19.028-2.442-24.36-2.686c-2.85,1.302-5.027,2.156-6.533,2.563
		c-2.645,0.732-4.762,0.265-6.349-1.404c-0.448-0.977-0.673-2.056-0.673-3.235c0.041-1.221,0.326-2.3,0.855-3.236
		c2.564-1.262,3.826-1.16,3.785,0.306c-0.041,2.116,0.021,3.216,0.184,3.297c0.814-0.326,1.445-0.956,1.892-1.893
		c0.245-0.529,0.509-1.404,0.794-2.626c-1.384-3.907-5.555-11.172-12.516-21.796c-5.984-9.076-9.361-16.566-10.135-22.468
		c-0.123-1.099-0.02-2.463,0.305-4.09c0.447-1.874,0.753-3.277,0.916-4.214c0.57-2.93,0.611-4.313,0.122-4.151
		c-0.487,0.163-1.14,1.648-1.953,4.457c-1.75,5.983-0.326,13.329,4.274,22.04c0.446,0.855,2.502,4.396,6.166,10.624
		c2.441,4.152,4.13,7.51,5.067,10.073c-2.401-0.448-5.129-0.386-8.182,0.184c-2.401-7.896-6.329-15.244-11.784-22.041
		c-5.495-6.878-11.865-12.292-19.109-16.24c-0.042-0.406-0.042-0.712,0-0.915c0-0.407,0.122-0.732,0.366-0.978
		c4.07,0.163,7.693-1.872,10.867-6.104c1.669-2.442,2.931-4.254,3.786-5.435c1.465-2.157,2.828-3.744,4.09-4.762
		c1.017-3.379,0.896-8.385-0.366-15.019c-1.261-6.635-1.384-11.56-0.366-14.775c2.93,0.326,5.942,0.204,9.035-0.366
		s5.964-1.506,8.609-2.809c1.139,5.861,3.134,12.679,5.982,20.453c1.669,4.477,4.254,11.152,7.755,20.025
		c6.105,16.404,8.73,30.446,7.875,42.128l2.076,10.257c3.459,2.036,8.038,3.358,13.737,3.969c3.256,0.366,8.161,0.691,14.713,0.977
		c6.105-0.244,10.645-0.57,13.616-0.977C234.404,196.146,238.719,195.027,242.341,193.439z M139.649,71.027
		c-1.832-0.204-5.881-1.547-12.15-4.03l-8.914-3.48c0.285,1.628,1.221,5.414,2.808,11.356
		C128.232,73.612,134.316,72.329,139.649,71.027z M157.844,79.88c-0.204-0.122-0.348-0.184-0.428-0.184
		c-3.867,1.262-8.324,1.791-13.372,1.588c-0.162,0.488-0.162,0.854,0,1.099l1.221,0.611c0.978-0.123,2.137,0.508,3.48,1.892
		c0.122,0.082,0.203,0.163,0.245,0.245c1.139,1.099,2.238,1.465,3.296,1.099l1.1-0.732c0-0.285,0.061-0.59,0.184-0.916
		c0.283-0.732,0.873-1.424,1.77-2.076c1.546-1.099,2.462-1.852,2.747-2.259C158.047,80.165,157.965,80.042,157.844,79.88z
		 M127.927,52.772c5.778-2.035,11.946-3.44,18.499-4.213c6.554-0.773,12.882-0.814,18.987-0.122
		c5.862,0.611,11.093,1.811,15.692,3.602c1.546-3.704,3.012-9.178,4.395-16.423c0.611-3.623,1.1-6.919,1.466-9.891
		c3.541,12.455,6.105,22.916,7.692,31.381c0.814,4.192,1.262,7.184,1.344,8.975l-0.062-0.061l0.244,1.282
		c0.651,5.536-2.056,10.868-8.12,15.997c-5.861,4.966-13.595,8.75-23.199,11.355c-0.408,0.082-0.814,0.184-1.222,0.306l-0.245-1.221
		l-2.32,0.184c-1.057,0.773-2.422,1.038-4.09,0.793c-1.832-0.529-3.236-0.855-4.213-0.977c-1.262,1.14-2.238,1.913-2.931,2.32
		c-1.262,0.773-2.463,1.038-3.602,0.793c-1.506-0.082-2.401,0.123-2.687,0.611c0.041,0.203,0.081,0.407,0.122,0.61
		c-9.28,0.448-17.196-0.834-23.75-3.846c-11.03-5.047-16.871-10.338-17.522-15.874l-0.122-1.221c-0.327-1.75-0.59-4.763-0.794-9.036
		c-0.406-8.629-0.346-19.395,0.184-32.297l3.846,9.219c2.931,6.756,5.556,11.763,7.876,15.02
		C117.466,57.229,122.31,54.807,127.927,52.772z M161.75,68.401h5.373c4.436-0.081,8.854-0.224,13.248-0.427
		c0.164-6.187,0.164-10.095,0-11.723c-2.401,1.75-4.965,3.562-7.692,5.434C167.104,65.553,163.46,67.791,161.75,68.401z
		 M65.774,28.473c0.407-0.651,1.058-1.079,1.953-1.283c0.53-0.081,1.283-0.163,2.26-0.244c1.872,0.244,3.012,1.384,3.419,3.418
		c0.366,1.547,0.285,3.317-0.245,5.312c-1.058,2.89-3.154,7.204-6.288,12.943c-2.321,5.21-2.81,9.87-1.466,13.981
		c1.262,2.402,3.012,4.478,5.25,6.228c1.058,0.814,3.378,2.3,6.96,4.457c7.042,4.233,12.698,9.504,16.972,15.813
		c1.059-1.628,2.28-2.788,3.663-3.48c1.75-0.936,3.317-0.834,4.702,0.305c-0.041,0.855-0.855,1.689-2.442,2.503
		c-1.587,0.814-2.422,1.75-2.503,2.809c0.366,6.594-1.873,13.229-6.716,19.903c-1.75,2.442-6.818,8.039-15.203,16.79
		c-6.431,6.716-10.604,12.496-12.516,17.34c-2.727,6.878-2.3,14.083,1.282,21.613c1.994,1.425,3.012,2.137,3.053,2.137
		c1.262,0.651,2.381,0.568,3.358-0.244c0.732-1.222,1.445-3.236,2.137-6.045c0.651-2.687,1.405-4.66,2.258-5.922
		c9.892-8.507,20.271-12.231,31.138-11.173c9.525,0.936,18.866,5.434,28.024,13.492c8.222,7.245,15.284,16.444,21.186,27.597
		c5.697,10.664,9.26,21.044,10.685,31.138c0.977,2.279,2.4,6.004,4.274,11.172c1.668,4.479,3.153,8.121,4.455,10.93
		c-3.5,0.325-6.654-0.957-9.463-3.846c-2.93-3.745-5.291-6.411-7.082-7.999c-7.285-0.773-13.838-4.863-19.659-12.272
		c-1.71-2.156-4.051-5.535-7.021-10.134c-2.971-4.641-5.251-7.978-6.838-10.014c0.081-0.61,0.671-1.647,1.771-3.113
		c0.936-1.302,1.343-2.422,1.221-3.358c-2.28,2.483-4.803,4.254-7.571,5.312c-6.675,3.134-13.818,3.501-21.43,1.1
		c-7.164-2.239-13.167-6.33-18.011-12.271c-0.326-0.366-0.671-0.388-1.038-0.061c-0.327,0.283-0.489,0.691-0.489,1.221
		c5.657,5.861,12.333,9.81,20.026,11.844c7.814,2.117,15.609,1.954,23.383-0.488c1.792,1.262,2.829,2.768,3.114,4.519
		c0.326,1.913-0.57,3.317-2.686,4.212c7-0.162,8.894,2.076,5.677,6.716c-2.563,3.786-6.431,7.164-11.6,10.136
		c3.134,1.099,7.367,1.933,12.7,2.503c2.97,0.285,7.428,0.732,13.371,1.343c10.541,1.547,17.664,5.76,21.369,12.639
		c0.568,0.61,2.055,1.567,4.456,2.869c1.954,1.059,3.176,2.198,3.663,3.419c-0.244,1.425-0.996,2.707-2.258,3.847
		c-1.141,1.099-2.463,1.832-3.969,2.198c-0.285,2.279-1.73,3.847-4.334,4.7c-2.321,0.773-4.865,0.814-7.633,0.123
		c-2.85-0.693-4.762-1.893-5.739-3.603c-1.1-1.953-0.57-4.131,1.587-6.532c-0.285-1.466-1.302-3.034-3.053-4.702
		c-0.691-0.773-1.465-0.671-2.32,0.306c-1.017,1.181-1.953,1.587-2.808,1.221c-7.612-5.331-15.813-9.179-24.604-11.539
		c-9.118-2.442-18.296-3.154-27.536-2.137c-3.296-0.243-5.169-1.24-5.617-2.991c-0.366-1.385,0.184-2.87,1.648-4.457
		c1.384-1.506,2.667-2.157,3.847-1.953c1.343,0.283,1.71,1.831,1.1,4.64c-2.076,1.262-1.568,1.668,1.526,1.221
		c3.053-0.406,5.881-1.181,8.485-2.32c5.252-2.849,9.463-5.412,12.639-7.692c2.523-1.791,4.07-2.972,4.64-3.542
		c1.302-1.302,1.933-2.788,1.893-4.456c-5.576,4.396-11.783,6.857-18.622,7.388c-6.35,0.488-12.393-0.714-18.132-3.603
		c-5.699-2.809-10.074-6.757-13.126-11.845c-3.257-5.372-4.458-11.172-3.603-17.4c-8.711-4.966-13.371-12.067-13.981-21.307
		c-0.488-7.938,1.933-16.403,7.266-25.399c1.302-2.238,6.085-7.672,14.348-16.301c6.675-7.041,10.399-12.841,11.173-17.4
		c0.772-4.152,0.203-7.693-1.71-10.624c-1.385-2.075-3.928-4.334-7.632-6.776c-5.169-3.378-8.344-5.556-9.524-6.533
		c-3.501-2.93-5.943-6.268-7.326-10.012c-1.71-5.455-1.629-11.947,0.244-19.477C62.925,38.811,64.797,32.542,65.774,28.473z
		 M162.3,94.96l0.184,1.343c-1.872,2.564-4.498,4.151-7.876,4.762c-3.419,0.692-6.492,0.204-9.219-1.465
		c-0.204-0.285-0.346-0.712-0.428-1.282c0.204-0.448,0.957-0.671,2.26-0.671c0.977,0.285,2.035,0.082,3.174-0.611
		c0.611-0.407,1.486-1.099,2.625-2.076c0.773,0.163,1.994,0.448,3.664,0.855c1.465,0.244,2.664,0.02,3.602-0.671L162.3,94.96z
		 M198.261,179.824c1.017-0.04,3.257-0.325,6.716-0.854c5.576-0.895,9.483,0.184,11.722,3.236c0.937,1.953,0.814,3.988-0.366,6.105
		c-1.262,2.197-2.972,2.891-5.129,2.076l0.795-2.688l-0.795-1.892c-0.446,4.15-2.849,6.471-7.203,6.96
		c-4.192,0.487-7.652-0.691-10.379-3.542c-1.385,0.122-2.422,0.203-3.114,0.245c-1.303,0.081-2.3-0.184-2.991-0.794
		c-0.449-2.646-0.713-4.681-0.795-6.105c-0.162-2.523,0.611-4.029,2.321-4.519l2.869,0.184
		C193.661,179.377,195.778,179.907,198.261,179.824z M201.74,258.828c-0.243,0.896-0.813,1.629-1.709,2.198
		c-0.123,0.041-0.998,0.447-2.626,1.221c-1.302-0.528-5.677-2.544-13.126-6.045c-5.414-2.522-9.891-4.313-13.432-5.372
		c-0.122-0.896,0.65-2.015,2.32-3.357c1.465-1.221,1.893-2.361,1.281-3.419l0.732-0.794c1.75,0.202,7.326,1.465,16.729,3.785
		c6.716,1.669,12.455,2.177,17.218,1.525c3.663,2.118,7.529,3.439,11.6,3.969c0.977,1.262,3.154,3.094,6.532,5.495
		c3.013,2.158,5.007,4.132,5.984,5.923c-0.204,1.018-0.733,1.872-1.589,2.563c-0.813,0.693-1.749,1.039-2.808,1.039
		c0,2.401-1.648,4.09-4.945,5.066c-3.216,0.977-5.8,0.672-7.754-0.916c-0.773,1.71-1.894,2.565-3.357,2.565
		c-1.344,0-2.646-0.61-3.908-1.832c-1.261-1.261-2.015-2.687-2.259-4.273c-0.244-1.75,0.284-3.276,1.588-4.579l-3.969-3.847
		C202.941,259.134,202.107,258.828,201.74,258.828z"/>
	<path fill-rule="evenodd" clip-rule="evenodd" fill="#FFF18D" d="M139.649,71.027c-5.333,1.302-11.417,2.584-18.255,3.846
		c-1.587-5.943-2.523-9.728-2.808-11.356l8.914,3.48C133.768,69.48,137.817,70.823,139.649,71.027z M161.75,68.401
		c1.71-0.61,5.354-2.849,10.929-6.716c2.728-1.872,5.291-3.684,7.692-5.434c0.164,1.628,0.164,5.536,0,11.723
		c-4.395,0.203-8.813,0.346-13.248,0.427H161.75z"/>
	<path fill-rule="evenodd" clip-rule="evenodd" fill="#FFFFFF" d="M157.844,79.88c0.121,0.163,0.203,0.285,0.243,0.366
		c-0.285,0.407-1.201,1.16-2.747,2.259c-0.896,0.651-1.486,1.344-1.77,2.076c-0.123,0.326-0.184,0.631-0.184,0.916l-1.1,0.732
		c-1.059,0.367-2.158,0-3.296-1.099c-0.042-0.082-0.123-0.163-0.245-0.245c-1.344-1.384-2.503-2.015-3.48-1.892l-1.221-0.611
		c-0.162-0.244-0.162-0.61,0-1.099c5.048,0.203,9.504-0.326,13.372-1.588C157.496,79.696,157.64,79.758,157.844,79.88z"/>
</g>
</svg>
