<?xml version="1.0" encoding="utf-8"?>
<!-- Generator: Adobe Illustrator 16.0.0, SVG Export Plug-In . SVG Version: 6.00 Build 0)  -->
<!DOCTYPE svg PUBLIC "-//W3C//DTD SVG 1.1//EN" "http://www.w3.org/Graphics/SVG/1.1/DTD/svg11.dtd">
<svg version="1.1" id="Layer_1" xmlns="http://www.w3.org/2000/svg" xmlns:xlink="http://www.w3.org/1999/xlink" x="0px" y="0px"
	 width="300px" height="300px" viewBox="0 0 300 300" enable-background="new 0 0 300 300" xml:space="preserve">
<g>
	<path fill-rule="evenodd" clip-rule="evenodd" fill="#010101" d="M198.021,27.134c-0.743,0.528-1.959,1.904-3.65,4.125
		c-1.692,2.117-2.697,3.649-3.017,4.603c-0.74,0.211-2.696,0.952-5.87,2.221c-0.741,0.212-1.376,0.478-1.906,0.793
		c-0.633,0.212-1.057,0.371-1.268,0.478l-0.319,0.158c-2.114,1.059-3.596,2.115-4.441,3.174c-0.847,2.539-1.163,4.603-0.952,6.19
		c0.211,1.164,0.952,2.486,2.22,3.967c0.954,0.21,2.117,0.263,3.493,0.158c1.373,0,2.696,0.105,3.967,0.317
		c1.798,0.846,2.592,2.01,2.381,3.492c-0.108,1.269-0.636,2.01-1.587,2.221c0.105-1.057,0-1.85-0.319-2.38
		c-0.211-0.634-0.632-1.004-1.268-1.111c-1.376,0-2.489,0.212-3.332,0.636c-0.636,0.317-1.798,0.37-3.493,0.158
		c-0.951-0.21-1.64-0.105-2.062,0.318c-0.425,0.318-0.688,0.953-0.793,1.905c0,0.528,0.632,1.429,1.903,2.698
		c2.327,2.115,4.55,4.601,6.663,7.459c0.955,1.164,1.692,2.539,2.223,4.125c0.319,0.846,0.688,2.063,1.113,3.649
		c0.843,2.433,2.43,3.704,4.761,3.81c1.162-0.53,2.485-1.747,3.967-3.65c1.481-1.905,2.907-3.228,4.284-3.967
		c1.692-0.53,3.49,0.158,5.396,2.063c1.058,1.164,1.745,1.851,2.062,2.063c0.744,0.528,1.429,0.741,2.064,0.635
		c1.271-0.317,2.064-1.534,2.381-3.651c0.21-1.692,0.104-3.49-0.316-5.395c-1.061-1.376-2.223-2.328-3.493-2.856
		c-1.057-0.423-2.062-0.583-3.016-0.478c-0.738-0.423-1.321-0.899-1.745-1.427c-0.636-0.846-1.058-1.905-1.268-3.174
		c0.526-2.963,1.587-5.079,3.174-6.348c2.008-1.481,5.976-2.75,11.901-3.809c1.058-0.211,2.009-0.688,2.855-1.427
		c0.635-0.53,1.112-1.111,1.429-1.747c0.316-0.529,0.478-1.375,0.478-2.539c-0.105-1.376-0.478-2.063-1.113-2.063
		c-0.53,0.105-0.898,0.264-1.109,0.476c-0.108,0.105-0.369,0.528-0.794,1.269c-0.108-1.059-0.108-1.692,0-1.905
		c0.211-0.634,0.952-1.111,2.223-1.427c1.481-0.107,2.43,0.211,2.854,0.952c0,0.105,0.158,0.846,0.478,2.222
		c2.644-1.587,5.186-5.661,7.615-12.22c1.377-3.492,2.331-6.03,2.858-7.617c1.06-2.751,1.959-4.708,2.696-5.872
		c2.963,3.808,4.497,8.305,4.603,13.489c0.214,4.125-0.529,9.574-2.222,16.345c3.174-2.222,5.765-5.449,7.776-9.68
		c0.741-1.587,1.695-4.338,2.857-8.252c0.105,2.221-0.582,5.66-2.064,10.315c-1.691,5.184-3.858,9.733-6.506,13.647
		c3.49-1.164,7.777-3.915,12.854-8.252c2.749-2.326,6.242-5.554,10.473-9.68c0.85,5.396-0.737,11.267-4.761,17.614
		c-1.162,1.905-2.907,4.391-5.235,7.459c-2.433,3.069-4.02,5.184-4.761,6.348l8.409-4.443c6.032-3.597,10.371-6.771,13.015-9.521
		c-2.749,3.491-6.667,7.194-11.744,11.108l-6.663,4.761c4.866,0.105,8.777,0.105,11.74,0c4.551-0.317,8.412-1.005,11.586-2.063
		c-2.646,6.982-7.035,12.008-13.173,15.076c-1.376,0.634-3.806,1.587-7.299,2.856c-2.96,1.164-5.186,2.168-6.664,3.016
		c3.81,0.634,8.515,0.634,14.124,0c5.818-0.741,11.741-2.01,17.773-3.81c-1.482,1.587-5.555,3.016-12.219,4.285
		c-4.866,1.057-10.315,1.851-16.347,2.38c4.866,1.692,10.687,3.069,17.456,4.125c5.502,0.846,11.162,1.429,16.979,1.747
		c-3.385,3.597-8.462,6.348-15.234,8.251c-3.914,1.059-9.521,2.01-16.821,2.858c11.636,1.48,20.525,1.903,26.662,1.269
		c2.22-0.317,4.442-0.793,6.664-1.429c1.271-0.423,3.121-1.004,5.555-1.745c-4.021,2.962-10.157,4.866-18.408,5.712
		c-7.3,0.636-15.34,0.371-24.124-0.793c4.762,3.174,12.591,6.03,23.488,8.57c9.522,2.221,16.663,3.227,21.425,3.014
		c-4.445,3.915-11.426,6.771-20.947,8.57c-3.493,0.635-11.214,1.481-23.172,2.539c9.732,3.492,16.399,5.661,19.998,6.507
		c5.394,1.164,10.421,1.217,15.076,0.158c-3.599,2.54-9.311,2.911-17.141,1.111c-2.222-0.529-5.712-1.482-10.473-2.856
		c-4.976-1.481-8.676-2.54-11.109-3.174c3.599,4.02,9.47,8.569,17.615,13.647c6.031,3.704,12.748,7.406,20.152,11.107
		c-11.319,2.012-22.267,1.481-32.849-1.587c-3.809-1.056-7.829-2.537-12.06-4.441c-4.445-2.115-7.619-3.65-9.522-4.603
		c5.713,7.301,11.372,12.962,16.979,16.979c8.781,6.348,17.986,9.367,27.613,9.048c-7.618,1.481-16.241-0.214-25.868-5.08
		c-6.559-3.385-13.489-8.195-20.789-14.439c2.645,4.868,6.19,9.945,10.635,15.232c4.336,5.294,8.834,9.999,13.489,14.128
		c-13.861,0.105-25.816-4.501-35.868-13.809c-3.806-3.493-7.51-7.776-11.108-12.854c-1.798-2.751-4.494-7.036-8.093-12.855
		c0.214,0.423,1.008,2.593,2.381,6.508c1.057,3.174,2.222,5.976,3.493,8.412c4.23,7.615,11.583,15.55,22.056,23.804
		c-9.627-5.926-16.874-12.115-21.74-18.568c-3.809-5.186-7.513-12.802-11.108-22.854c-0.741,2.01-1.06,4.55-0.951,7.619
		c3.279,2.433,5.186,5.925,5.712,10.473c0.527,4.126-0.105,8.255-1.903,12.377c-0.105,0-0.21,0-0.319,0
		c-0.529-0.316-1.004-0.633-1.429-0.948c-3.7,0.843-6.187,1.636-7.457,2.38c-1.481,0.738-3.49,2.431-6.032,5.077
		c0.211,0.105,0.478,0.264,0.794,0.478c-0.211,0.105-0.369,0.211-0.475,0.316c-5.712-2.328-9.891-4.709-12.537-7.142
		c-2.647-2.437-4.284-5.555-4.919-9.363c-1.587,1.481-2.434,2.96-2.539,4.441c-0.105,1.376,0.475,3.918,1.745,7.618
		c0.952,2.437,2.062,4.234,3.332,5.396c0.741,0.741,1.745,1.268,3.016,1.587c2.434-0.636,3.065-1.64,1.903-3.016
		c-0.211-0.211-0.635-0.583-1.268-1.109c-0.319-0.316-0.319-0.422,0-0.316c2.114,0.737,3.596,2.166,4.441,4.283
		c0.741,2.114,0.478,4.021-0.793,5.713c-1.268,1.481-2.806,2.538-4.603,3.174c-2.114,0.846-4.126,0.898-6.029,0.158
		c-1.162-0.422-2.488-1.377-3.967-2.858l-1.906-2.061v2.538c0.105,2.009,0.425,3.862,0.954,5.555
		c1.798,5.396,5.766,8.146,11.902,8.251c6.559-0.422,10.315-2.697,11.267-6.822c0.105-1.587-0.214-2.7-0.951-3.332
		c-0.53-0.53-1.481-0.898-2.857-1.109c-1.692,0.737-2.647,1.692-2.858,2.854c-0.105,0.53,0,1.007,0.319,1.429
		c-0.846-0.422-1.429-1.06-1.745-1.903c-0.53-1.481,0.369-3.124,2.697-4.922c3.174-0.737,5.606-0.688,7.299,0.161
		c1.801,0.948,3.332,2.907,4.603,5.871c0.527,4.125-0.267,8.04-2.38,11.74c-2.434,4.34-5.977,6.51-10.632,6.51
		c-4.128-0.316-7.776-1.11-10.95-2.381c-2.539-0.955-5.186-2.381-7.935-4.283c4.441,4.866,8.04,8.195,10.789,9.996
		c3.704,2.222,8.146,3.388,13.331,3.493c4.975,0,9.206-1.271,12.695-3.813c3.174-2.114,5.186-4.761,6.032-7.936
		c-0.53-3.595-2.012-5.554-4.445-5.87c-1.479,0.955-2.166,1.692-2.061,2.223c0.105,0.425,0.688,0.793,1.745,1.112
		c0,0.527-0.369,0.948-1.113,1.268l-0.951,0.319c-0.425-0.105-0.847-0.319-1.268-0.639c-0.85-0.526-1.271-1.32-1.271-2.38
		c0-1.268,0.741-2.535,2.223-3.807c1.692-1.271,3.81-2.008,6.348-2.222c3.385,0.104,6.135,0.74,8.251,1.905
		c2.539,1.374,3.968,3.329,4.287,5.871c0.105,1.903-0.056,3.651-0.478,5.238c-0.527,1.798-1.429,3.068-2.696,3.806
		c4.017-0.421,7.724,0.057,11.108,1.43c3.279,1.481,6.242,3.753,8.887,6.821c3.385,3.918,4.972,7.991,4.761,12.222
		c-0.108,3.599-1.745,8.04-4.919,13.331c-2.223,2.644-4.445,4.445-6.667,5.394c-1.479,0.533-3.332,0.793-5.555,0.793
		c-3.279-0.632-5.607-1.741-6.983-3.329c-1.057-1.165-1.745-2.963-2.061-5.398c-0.319-2.009,0.263-3.754,1.744-5.235
		c1.271-1.373,2.753-2.062,4.445-2.062c1.481,0,2.591,0.211,3.332,0.633c0.846,0.421,1.534,1.323,2.061,2.696
		c0.105,0.744-0.049,1.432-0.474,2.064l-0.636,0.635c0-0.529-0.105-1.057-0.316-1.587c-0.424-1.057-1.06-1.64-1.905-1.745
		c-1.163-0.21-2.117,0-2.855,0.633c-0.954,0.744-1.429,2.012-1.429,3.813c0,1.373,0.636,2.324,1.903,2.854
		c1.057,0.425,2.538,0.58,4.444,0.475c3.599-1.055,5.66-4.123,6.19-9.203c0.105-4.975-1.271-8.465-4.129-10.473
		c-4.017-2.542-8.939-3.017-14.757-1.43c1.057,4.762,0.58,8.676-1.429,11.744c-1.798,2.858-4.389,4.495-7.777,4.919
		c-3.174,0-5.445-0.263-6.821-0.793c-1.587-0.53-2.592-1.534-3.017-3.016c-0.108-1.377,0.211-2.539,0.952-3.49
		c0.635-0.85,1.429-1.215,2.38-1.109c0.527-0.105,0.952,0.104,1.271,0.632c0.211,0.211,0.315,0.478,0.315,0.794
		c-0.315-0.211-0.688-0.316-1.109-0.316c-0.849,0-1.271,0.526-1.271,1.587c0,0.951,0.793,1.426,2.38,1.426
		c1.587-0.316,2.753-0.948,3.49-1.903c0.636-0.951,0.955-2.275,0.955-3.968c0-1.587-0.688-2.802-2.064-3.65
		c-1.165-0.633-2.381-0.949-3.651-0.949c-8.04,0.211-14.016-0.372-17.931-1.748c-3.388-1.165-8.198-4.072-14.44-8.728l-0.161,1.902
		c0.105,1.587,0.319,3.02,0.635,4.287c0.952,4.336,2.964,6.717,6.032,7.142c1.903-0.105,3.121-0.53,3.647-1.269
		c0.425-0.638,0.372-1.692-0.157-3.174c1.481,0.633,2.538,1.426,3.174,2.381c0.635,0.737,1.007,1.798,1.112,3.174
		c0,2.114-0.793,4.017-2.38,5.709c-1.377,1.481-2.858,2.331-4.445,2.542c-1.481,0-3.121-0.478-4.919-1.429
		c-1.587-1.058-2.699-1.745-3.332-2.062c0.316,2.749,0.794,4.655,1.426,5.709c1.061,1.482,2.963,2.381,5.716,2.7
		c1.692,0.105,4.23-0.319,7.615-1.268c3.174-0.85,6.348-1.008,9.522-0.478c5.923,1.165,10.209,3.279,12.854,6.348
		c1.481,1.692,2.274,3.546,2.38,5.555c0.319,2.433-0.315,5.077-1.902,7.935c-1.903,3.701-4.656,5.871-8.251,6.506
		c-1.798,0.214-3.546-0.319-5.238-1.587c-1.798-1.268-2.647-2.644-2.539-4.125c-0.108-1.692,0.264-2.964,1.109-3.81
		c0.847-0.741,1.906-1.113,3.175-1.113c1.057,0,1.801,0.319,2.222,0.955c0.316,0.422,0.422,1.057,0.316,1.903
		c-0.737-0.847-1.376-1.32-1.903-1.426c-0.211,0-0.526,0.05-0.951,0.155c-0.636,0.318-1.008,0.793-1.113,1.432
		c-0.105,0.632,0.056,1.215,0.478,1.742c0.636,0.743,1.215,1.165,1.745,1.271c0.425,0.105,1.218,0.105,2.381,0
		c1.376-0.316,2.433-1.109,3.174-2.381c0.635-1.271,0.846-2.857,0.635-4.761c-0.21-1.587-0.951-2.802-2.222-3.651
		c-1.058-0.632-2.434-0.948-4.126-0.948c-1.587-0.105-3.651,0.316-6.189,1.268c-2.539,0.952-4.497,1.429-5.871,1.429
		c-2.433,0-5.129-0.529-8.093-1.587l-3.65-1.587l0.477,2.858c0.211,2.324,0.105,4.336-0.319,6.028
		c-0.74,2.644-2.38,5.659-4.919,9.048l-3.651,4.122c-1.057-1.162-2.22-2.535-3.49-4.122c-2.433-3.389-4.073-6.404-4.919-9.048
		c-0.423-1.692-0.53-3.704-0.317-6.028l0.476-2.858c-0.952,0.527-2.168,1.058-3.65,1.587c-2.963,1.058-5.66,1.587-8.094,1.587
		c-1.375,0-3.332-0.477-5.871-1.429c-2.54-0.951-4.603-1.373-6.189-1.268c-1.692,0-3.069,0.316-4.125,0.948
		c-1.271,0.85-2.01,2.064-2.223,3.651c-0.212,1.903,0,3.49,0.636,4.761c0.739,1.271,1.745,2.064,3.014,2.381
		c1.269,0.105,2.117,0.105,2.54,0c0.528-0.105,1.109-0.527,1.745-1.271c0.423-0.527,0.581-1.11,0.476-1.742
		c-0.211-0.639-0.581-1.113-1.111-1.432c-0.423-0.105-0.739-0.155-0.951-0.155c-0.529,0.105-1.164,0.579-1.905,1.426
		c-0.105-0.847,0-1.481,0.318-1.903c0.423-0.636,1.164-0.955,2.222-0.955c1.269,0,2.273,0.372,3.014,1.113
		c0.953,0.846,1.376,2.117,1.27,3.81c0.107,1.481-0.687,2.857-2.38,4.125c-1.798,1.268-3.597,1.801-5.395,1.587
		c-3.597-0.635-6.348-2.805-8.252-6.506c-1.587-2.857-2.222-5.502-1.905-7.935c0.212-2.009,1.006-3.862,2.38-5.555
		c2.646-3.068,6.931-5.183,12.855-6.348c3.174-0.53,6.348-0.372,9.522,0.478c3.384,0.948,5.977,1.373,7.775,1.268
		c2.751-0.319,4.603-1.218,5.554-2.7c0.636-1.054,1.111-2.96,1.429-5.709c-1.376,0.843-2.54,1.531-3.492,2.062
		c-1.692,0.951-3.279,1.429-4.761,1.429c-1.692-0.211-3.174-1.061-4.443-2.542c-1.587-1.692-2.38-3.595-2.38-5.709
		c0.105-1.376,0.476-2.437,1.111-3.174c0.634-0.955,1.692-1.748,3.174-2.381c-0.53,1.481-0.583,2.536-0.16,3.174
		c0.53,0.738,1.692,1.163,3.492,1.269c3.174-0.425,5.236-2.806,6.189-7.142c0.316-1.268,0.476-2.7,0.476-4.287v-1.902
		c-6.243,4.655-11.056,7.563-14.442,8.728c-3.913,1.376-9.892,1.959-17.932,1.748c-1.375,0-2.539,0.316-3.492,0.949
		c-1.48,0.849-2.221,2.063-2.221,3.65c0,1.692,0.317,3.017,0.951,3.968c0.741,0.955,1.852,1.587,3.333,1.903
		c1.692,0,2.539-0.475,2.539-1.426c0-1.061-0.423-1.587-1.269-1.587l-1.27,0.316l0.476-0.794c0.317-0.527,0.793-0.737,1.427-0.632
		c0.848-0.105,1.641,0.26,2.38,1.109c0.635,0.951,0.9,2.113,0.793,3.49c-0.423,1.481-1.427,2.485-3.014,3.016
		c-1.376,0.53-3.65,0.793-6.824,0.793c-3.386-0.424-5.978-2.061-7.777-4.919c-2.01-3.068-2.486-6.982-1.429-11.744
		c-5.818-1.587-10.738-1.112-14.758,1.43c-2.856,1.902-4.231,5.393-4.125,10.473c0.528,5.08,2.539,8.148,6.03,9.203
		c2.01,0.105,3.544-0.05,4.603-0.475c1.164-0.53,1.798-1.481,1.903-2.854c0-1.801-0.476-3.068-1.427-3.813
		c-0.741-0.633-1.692-0.843-2.856-0.633c-0.848,0.105-1.481,0.688-1.905,1.745c-0.212,0.53-0.317,1.058-0.317,1.587
		c-0.212-0.105-0.423-0.319-0.636-0.635c-0.423-0.633-0.581-1.32-0.476-2.064c0.53-1.373,1.216-2.275,2.063-2.696
		c0.741-0.422,1.852-0.633,3.334-0.633c1.692,0,3.174,0.688,4.443,2.062c1.375,1.481,1.958,3.227,1.745,5.235
		c-0.316,2.436-1.004,4.233-2.063,5.398c-1.375,1.588-3.702,2.697-6.981,3.329c-2.222,0-4.074-0.26-5.554-0.793
		c-2.223-0.948-4.445-2.75-6.666-5.394c-3.174-5.291-4.814-9.732-4.921-13.331c-0.21-4.23,1.376-8.304,4.761-12.222
		c2.646-3.068,5.608-5.34,8.888-6.821c3.492-1.373,7.194-1.851,11.109-1.43c-1.27-0.737-2.17-2.008-2.698-3.806
		c-0.423-1.587-0.581-3.335-0.476-5.238c0.317-2.542,1.745-4.497,4.285-5.871c2.116-1.165,4.867-1.801,8.251-1.905
		c2.54,0.214,4.656,0.951,6.348,2.222c1.481,1.271,2.222,2.539,2.222,3.807c0.105,1.06-0.317,1.854-1.269,2.38l-1.27,0.639
		c-0.317-0.105-0.635-0.214-0.953-0.319c-0.741-0.319-1.111-0.74-1.111-1.268c1.058-0.319,1.641-0.688,1.747-1.112
		c0.105-0.53-0.583-1.268-2.063-2.223c-2.435,0.316-3.915,2.275-4.445,5.87c0.848,3.175,2.858,5.821,6.032,7.936
		c3.49,2.541,7.723,3.813,12.696,3.813c5.184-0.105,9.627-1.271,13.33-3.493c2.751-1.801,6.348-5.13,10.791-9.996
		c-2.644,1.902-5.29,3.328-7.935,4.283c-3.174,1.271-6.823,2.064-10.949,2.381c-4.656,0-8.2-2.17-10.633-6.51
		c-2.115-3.7-2.909-7.615-2.38-11.74c1.27-2.964,2.804-4.923,4.603-5.871c1.692-0.85,4.125-0.898,7.299-0.161
		c2.328,1.798,3.227,3.44,2.698,4.922c-0.318,0.844-0.846,1.481-1.587,1.903c0.21-0.422,0.263-0.898,0.158-1.429
		c-0.21-1.162-1.164-2.117-2.856-2.854c-1.27,0.211-2.223,0.579-2.856,1.109c-0.741,0.632-1.058,1.745-0.953,3.332
		c0.953,4.125,4.708,6.4,11.269,6.822c6.135-0.105,10.103-2.854,11.902-8.251c0.528-1.692,0.846-3.546,0.951-5.555l-0.158-2.538
		c-0.423,0.635-1.006,1.323-1.747,2.061c-1.48,1.481-2.804,2.437-3.968,2.858c-1.903,0.74-3.913,0.688-6.03-0.158
		c-1.798-0.636-3.332-1.692-4.602-3.174c-1.271-1.692-1.534-3.599-0.793-5.713c0.846-2.117,2.326-3.546,4.443-4.283
		c0.634-0.105,0.211,0.369-1.269,1.426c-1.059,1.376-0.423,2.38,1.903,3.016c1.271-0.319,2.275-0.846,3.016-1.587
		c1.269-1.162,2.433-2.96,3.491-5.396c1.164-3.7,1.692-6.242,1.587-7.618c-0.105-1.481-0.953-2.96-2.54-4.441
		c-0.634,3.809-2.273,6.927-4.919,9.363c-2.646,2.433-6.823,4.813-12.538,7.142c-0.21-0.105-0.37-0.211-0.476-0.316
		c0.318-0.214,0.583-0.372,0.793-0.478c-2.539-2.646-4.548-4.339-6.03-5.077c-1.269-0.744-3.702-1.537-7.299-2.38
		c-0.53,0.315-1.059,0.632-1.587,0.948c-0.107,0-0.212,0-0.318,0c-1.799-4.122-2.433-8.251-1.904-12.377
		c0.528-4.548,2.433-8.04,5.712-10.473c0.107-2.963-0.211-5.502-0.952-7.619c-3.492,10.052-7.194,17.668-11.109,22.854
		c-4.866,6.453-12.114,12.643-21.742,18.568c10.475-8.254,17.827-16.188,22.06-23.804c1.269-2.437,2.433-5.238,3.492-8.412
		c1.375-4.022,2.168-6.19,2.38-6.508c-3.492,5.819-6.19,10.104-8.094,12.855c-3.597,5.077-7.3,9.36-11.109,12.854
		c-10.05,9.308-22.005,13.914-35.865,13.809c4.656-4.129,9.151-8.834,13.489-14.128c4.338-5.287,7.83-10.364,10.473-15.232
		c-7.088,6.244-13.965,11.055-20.63,14.439c-9.522,4.866-18.145,6.562-25.867,5.08c9.627,0.319,18.831-2.7,27.614-9.048
		c5.712-4.017,11.372-9.678,16.979-16.979c-4.02,2.01-7.194,3.544-9.521,4.603c-4.231,1.904-8.251,3.386-12.06,4.441
		c-10.581,3.068-21.477,3.599-32.691,1.587c7.299-3.701,13.965-7.403,19.995-11.107c8.147-5.078,14.018-9.627,17.615-13.647
		c-2.434,0.634-6.083,1.692-10.949,3.174c-4.866,1.375-8.411,2.328-10.633,2.856c-7.723,1.799-13.437,1.429-17.139-1.111
		c4.656,1.059,9.68,1.006,15.076-0.158c3.597-0.846,10.263-3.016,19.995-6.507c-11.955-1.057-19.625-1.903-23.011-2.539
		c-9.627-1.799-16.663-4.655-21.106-8.57c4.761,0.212,11.955-0.793,21.582-3.014c10.792-2.54,18.568-5.396,23.329-8.57
		c-8.781,1.164-16.821,1.429-24.122,0.793c-8.251-0.846-14.388-2.75-18.408-5.712c1.27,0.318,3.121,0.899,5.554,1.745
		c2.223,0.635,4.443,1.111,6.666,1.429c6.136,0.634,15.023,0.211,26.661-1.269c-7.299-0.848-12.908-1.799-16.821-2.858
		c-6.771-1.903-11.85-4.654-15.236-8.251c5.925-0.317,11.584-0.9,16.981-1.747c6.876-1.057,12.748-2.433,17.614-4.125
		c-6.135-0.53-11.584-1.323-16.345-2.38c-6.771-1.269-10.896-2.698-12.378-4.285c6.03,1.799,12.007,3.069,17.932,3.81
		c5.607,0.634,10.263,0.634,13.965,0c-1.375-0.848-3.544-1.852-6.506-3.016c-3.597-1.269-6.083-2.222-7.459-2.856
		c-6.135-3.068-10.526-8.094-13.171-15.076c3.174,1.057,7.036,1.745,11.584,2.063c2.963,0.105,6.931,0.105,11.902,0
		c-2.01-1.164-4.285-2.75-6.824-4.761c-5.079-3.915-8.993-7.617-11.744-11.108c2.646,2.75,6.983,5.924,13.014,9.521
		c3.068,1.799,5.872,3.279,8.41,4.443c-0.739-1.164-2.326-3.279-4.761-6.348c-2.326-3.068-4.073-5.554-5.237-7.459
		c-4.02-6.348-5.607-12.218-4.761-17.614c1.799,1.587,5.291,4.813,10.475,9.68c5.077,4.338,9.362,7.088,12.854,8.252
		c-2.646-3.915-4.813-8.463-6.506-13.647c-1.481-4.655-2.169-8.094-2.064-10.315c1.164,3.915,2.17,6.666,3.016,8.252
		c1.905,4.231,4.443,7.458,7.617,9.68c-1.692-6.771-2.433-12.22-2.221-16.345c0.211-5.184,1.745-9.682,4.602-13.489
		c0.741,1.164,1.64,3.121,2.698,5.872c0.635,1.587,1.587,4.125,2.856,7.617c2.433,6.559,4.973,10.633,7.617,12.22
		c0.318-1.376,0.478-2.117,0.478-2.222c0.528-0.741,1.48-1.059,2.856-0.952c1.269,0.316,2.063,0.793,2.38,1.427
		c0,0.212-0.053,0.846-0.16,1.905c-0.423-0.741-0.687-1.164-0.793-1.269c-0.21-0.212-0.581-0.371-1.109-0.476
		c-0.636,0-1.006,0.687-1.111,2.063c0,1.164,0.158,2.01,0.476,2.539c0.318,0.635,0.793,1.216,1.429,1.747
		c0.846,0.739,1.797,1.216,2.856,1.427c5.925,1.059,9.892,2.328,11.902,3.809c1.587,1.27,2.644,3.385,3.174,6.348
		c-0.212,1.269-0.635,2.328-1.269,3.174c-0.423,0.528-1.006,1.004-1.747,1.427c-0.952-0.105-1.958,0.054-3.015,0.478
		c-1.271,0.528-2.435,1.48-3.491,2.856c-0.423,1.905-0.53,3.703-0.318,5.395c0.318,2.117,1.111,3.334,2.38,3.651
		c0.635,0.105,1.375-0.107,2.222-0.635c0.211-0.212,0.846-0.899,1.903-2.063c1.905-1.904,3.704-2.593,5.396-2.063
		c1.375,0.739,2.803,2.063,4.285,3.967c1.481,1.903,2.803,3.12,3.967,3.65c1.375-0.105,2.433-0.476,3.174-1.111
		c0.634-0.635,1.164-1.534,1.587-2.698c0.423-1.587,0.793-2.803,1.111-3.649c0.528-1.587,1.216-2.962,2.063-4.125
		c2.221-2.858,4.496-5.344,6.824-7.459c1.269-1.27,1.905-2.17,1.905-2.698c-0.212-0.952-0.476-1.587-0.793-1.905
		c-0.423-0.423-1.111-0.528-2.063-0.318c-1.587,0.212-2.751,0.16-3.492-0.158c-0.953-0.423-2.063-0.636-3.333-0.636
		c-0.634,0.107-1.057,0.478-1.269,1.111c-0.211,0.53-0.318,1.324-0.318,2.38c-0.952-0.21-1.48-0.952-1.587-2.221
		c-0.211-1.481,0.583-2.646,2.38-3.492c1.271-0.212,2.593-0.317,3.967-0.317c1.376,0.105,2.54,0.052,3.492-0.158
		c1.27-1.481,2.01-2.804,2.223-3.967c0.21-1.587-0.105-3.651-0.953-6.19c-0.846-1.059-2.38-2.115-4.602-3.174h0.158
		c-0.211-0.105-0.688-0.318-1.427-0.636c-0.635-0.316-1.324-0.581-2.064-0.793c-3.279-1.269-5.236-2.063-5.871-2.38
		c-0.317-0.846-1.323-2.326-3.016-4.443c-1.692-2.221-2.909-3.597-3.65-4.125c-0.105-0.105-0.212-0.212-0.317-0.318
		c1.587-1.587,3.016-3.279,4.285-5.079c1.057-0.952,2.909-1.375,5.554-1.269c9.31,0.528,15.604,0.423,18.884-0.318
		c2.858-0.528,4.973-1.905,6.348-4.125c-0.316,1.481-0.687,2.804-1.11,3.967c-0.212,0.423-0.741,1.534-1.587,3.332
		c1.798-0.846,3.174-1.745,4.125-2.698c0.105,1.376-0.158,2.54-0.793,3.492c-0.635,0.953-1.852,2.063-3.65,3.333
		c1.482,0.316,2.751,0.371,3.808,0.158c0.953-0.318,2.064-0.952,3.333-1.905c-0.105,1.482-0.423,2.698-0.953,3.65
		c-0.316,0.635-0.952,1.429-1.903,2.38c1.27,0.318,2.221,0.423,2.856,0.318c0.528,0,1.375-0.264,2.539-0.793
		c-0.211,1.164-1.057,2.117-2.539,2.856l-2.223,0.793c1.799,1.694,3.65,4.445,5.555,8.252c3.021,5.938,4.555,12.073,4.601,18.41
		c0.155-6.337,1.742-12.472,4.762-18.41c1.906-3.915,3.756-6.666,5.554-8.252c-0.737-0.21-1.481-0.476-2.219-0.793
		c-1.481-0.739-2.331-1.692-2.542-2.856c1.166,0.53,1.959,0.793,2.381,0.793c0.743,0.105,1.748,0,3.016-0.318
		c-0.951-0.952-1.587-1.745-1.903-2.38c-0.53-0.952-0.846-2.168-0.951-3.65c1.268,0.953,2.38,1.587,3.332,1.905
		c1.057,0.212,2.327,0.158,3.809-0.158c-1.691-1.271-2.857-2.38-3.493-3.333c-0.74-0.952-1.057-2.115-0.951-3.492
		c0.951,1.059,2.328,1.958,4.126,2.698c-0.952-1.905-1.479-3.014-1.587-3.332c-0.425-1.164-0.794-2.486-1.11-3.967
		c1.373,2.221,3.438,3.597,6.19,4.125c3.384,0.741,9.785,0.846,19.201,0.318c2.538-0.105,4.336,0.317,5.396,1.269
		c0.316,0.318,0.898,1.006,1.745,2.063c0.846,1.164,1.692,2.169,2.538,3.016C198.231,26.921,198.126,27.028,198.021,27.134z
		 M188.021,27.292c0-0.21-0.053-0.37-0.158-0.476c-0.108-0.105-0.263-0.158-0.477-0.158c-0.211,0-0.369,0.053-0.475,0.158
		c-0.211,0.105-0.319,0.265-0.319,0.476c0,0.212,0.108,0.371,0.319,0.476c0.105,0.212,0.264,0.317,0.475,0.317
		c0.214,0,0.368-0.105,0.477-0.317C187.969,27.662,188.021,27.504,188.021,27.292z M188.815,26.498
		c0.316,0.318,0.478,0.741,0.478,1.27c0,0.423-0.105,0.793-0.319,1.111c0.319-0.21,0.582-0.476,0.793-0.793
		c0.53-0.634,0.688-1.269,0.478-1.904c-0.951-0.316-1.587-0.529-1.906-0.634c-0.632-0.212-1.215-0.318-1.745-0.318
		c-0.425,0-1.323-0.105-2.696-0.318c-1.695-0.423-2.857-0.688-3.493-0.793c0,1.376,0.849,2.646,2.541,3.81
		c1.377,1.057,2.697,1.587,3.968,1.587c-0.211-0.105-0.372-0.265-0.478-0.476c-0.315-0.317-0.478-0.741-0.478-1.271
		c0-0.529,0.162-0.952,0.478-1.27c0.316-0.317,0.688-0.476,1.11-0.476C188.074,26.022,188.499,26.181,188.815,26.498z
		 M121.845,24.118c-3.385,0.741-5.449,1.111-6.188,1.111c-0.53,0-1.111,0.105-1.747,0.318c-0.318,0.105-0.952,0.317-1.905,0.634
		c-0.211,0.635-0.053,1.271,0.478,1.904c0.21,0.318,0.476,0.583,0.793,0.793c-0.212-0.317-0.318-0.688-0.318-1.111
		c0-0.529,0.158-0.952,0.476-1.27c0.318-0.317,0.741-0.476,1.27-0.476c0.423,0,0.793,0.158,1.111,0.476
		c0.318,0.318,0.476,0.741,0.476,1.27c0,0.53-0.158,0.953-0.476,1.271c-0.105,0.211-0.265,0.371-0.476,0.476
		c1.27,0,2.591-0.53,3.967-1.587C120.999,26.763,121.845,25.494,121.845,24.118z M115.339,27.768
		c0.211-0.105,0.318-0.264,0.318-0.476c0-0.21-0.107-0.37-0.318-0.476c-0.105-0.105-0.265-0.158-0.476-0.158
		c-0.212,0-0.371,0.053-0.478,0.158c-0.105,0.105-0.158,0.265-0.158,0.476c0,0.212,0.053,0.371,0.158,0.476
		c0.107,0.212,0.265,0.317,0.478,0.317C115.074,28.085,115.234,27.98,115.339,27.768z"/>
	<path fill-rule="evenodd" clip-rule="evenodd" fill="#F7C322" d="M104.23,27.134c0.741,0.528,1.958,1.904,3.65,4.125
		c1.692,2.117,2.698,3.597,3.016,4.443c0,0.107,0,0.212,0,0.318c0.846,0.318,2.591,0.953,5.237,1.905
		c1.057,0.317,1.958,0.635,2.698,0.951c0.739,0.318,1.216,0.53,1.427,0.636H120.1c-0.953-0.105-2.117,0.265-3.491,1.111
		c-0.318,0.105-1.905,1.057-4.761,2.856c-1.481,0.846-2.803,1.059-3.967,0.635c-1.375-0.317-2.01-0.848-1.905-1.587
		c0.741,0.634,1.64,0.846,2.698,0.634c0.741-0.105,1.745-0.528,3.016-1.269c0.423-0.212,0.952-0.635,1.587-1.27
		c0.634-0.53,1.322-0.953,2.063-1.269c0.846,0,1.745,0,2.698,0l-2.698-1.111c-0.741,0.105-1.429,0.211-2.063,0.318
		c-0.848-0.107-1.852-0.16-3.016-0.16c-1.059,0-2.115-0.158-3.174-0.476c-1.059-0.212-1.692-0.318-1.905-0.318
		c-0.952,0.105-2.433,1.692-4.443,4.761c-1.587-4.443-1.692-8.198-0.318-11.267C101.375,28.984,102.644,27.662,104.23,27.134z
		 M104.548,174.084c0.528-0.316,1.057-0.633,1.587-0.948c3.597,0.843,6.03,1.636,7.299,2.38c1.482,0.738,3.492,2.431,6.03,5.077
		c-0.211,0.105-0.476,0.264-0.793,0.478c-2.856,1.587-10.473,5.288-22.851,11.108c-15.13,6.875-24.122,10.947-26.979,12.219
		c0.528,0.421,1.057,0.737,1.587,0.951c0.316,0.214,1.057,0.58,2.221,1.113c1.692-0.85,2.804-1.113,3.333-0.794
		c0.423,0.211,1.217,1.004,2.381,2.381c1.057,0.948,0.898,2.43-0.478,4.441c-0.316-0.741-0.793-1.373-1.427-1.906
		c-0.636,0-1.27,0.161-1.905,0.478c-1.375,0.529-2.328,1.481-2.856,2.857c1.164,0.951,1.904,1.745,2.221,2.381
		c-0.634,0.315-1.217,0.477-1.745,0.477c-1.164,0-2.433-0.582-3.81-1.748c-0.846-0.846-1.427-1.531-1.745-2.063
		c-0.318-0.527-0.476-1.216-0.476-2.062c-1.164-0.952-1.957-1.534-2.38-1.745c-0.741-0.211-1.747-0.583-3.016-1.109
		c-2.539,0.737-4.761,2.113-6.666,4.122c-1.903,2.331-3.385,4.023-4.443,5.08c1.376,1.057,1.852,2.538,1.429,4.441
		c-0.317,1.376-0.953,2.226-1.904,2.542c-1.059,0.422-2.593,0.316-4.603-0.316c0.318-0.533,0.793-1.06,1.429-1.587
		c-0.528-1.376-1.429-2.331-2.698-2.857l-1.905-0.316c-0.634,0.527-1.11,1.109-1.427,1.742c-0.105,0-0.16-0.05-0.16-0.155
		c-1.057-1.376-1.27-2.752-0.634-4.129c0.423-0.951,1.057-1.587,1.904-1.902c0.846-0.422,1.851-0.53,3.015-0.316
		c1.376-1.376,2.169-2.275,2.38-2.7c0.105-0.319,0.583-0.898,1.429-1.745c-2.646-0.421-4.391-0.74-5.237-0.954
		c-1.376-0.211-2.803-0.261-4.285-0.155c-0.53,1.054-1.217,1.742-2.063,2.062c-0.53,0.319-1.587,0.53-3.174,0.636
		c-1.481,0.104-2.698-0.422-3.651-1.588c-0.105-0.104-0.21-0.21-0.316-0.315c0.316-0.214,0.739-0.319,1.269-0.319
		c0.741-1.162,0.846-2.486,0.318-3.968l-0.793-2.061c-0.741,0.21-1.429,0.526-2.064,0.948c0.107-0.738,0.371-1.373,0.793-1.903
		c0.635-1.057,1.799-1.692,3.492-1.903c1.799-0.316,3.121-0.211,3.967,0.316c0.318,0.211,1.059,1.004,2.223,2.38
		c2.433-0.21,5.66-0.526,9.68-0.951c-0.741-0.951-1.322-1.745-1.745-2.38c-0.741-1.482-1.216-2.381-1.429-2.7
		c-1.798-0.105-2.962-0.155-3.492-0.155c-0.952-0.214-1.903-0.688-2.856-1.432c-0.741-0.632-1.216-1.215-1.427-1.742
		c-0.107-0.425-0.054-0.954,0.158-1.587c0.318,0.211,0.635,0.422,0.952,0.633c1.799-0.316,3.016-1.166,3.651-2.539l0.316-1.906
		c-0.423-0.315-0.899-0.526-1.427-0.632c0.846-0.422,1.85-0.583,3.014-0.478c1.481,0.105,2.646,0.53,3.492,1.271
		c0.953,0.633,1.376,1.531,1.269,2.697c-0.21,1.587-0.105,2.802,0.318,3.651c1.164,0.737,2.593,1.64,4.285,2.696
		c1.481,0.954,2.909,1.959,4.285,3.016c4.972-0.846,14.07-5.341,27.296-13.489C91.588,182.868,98.201,178.528,104.548,174.084z
		 M257.848,223.918c-2.113,0.633-3.7,0.738-4.761,0.316c-0.846-0.316-1.481-1.166-1.903-2.542c-0.424-1.903,0.05-3.385,1.426-4.441
		c-1.797-2.223-3.279-3.915-4.441-5.08c-1.906-2.009-4.125-3.385-6.667-4.122c-1.587,0.632-2.591,1.004-3.013,1.109
		c-0.425,0.211-1.165,0.793-2.223,1.745c-0.108,0.846-0.319,1.534-0.635,2.062c-0.316,0.532-0.899,1.218-1.745,2.063
		c-1.376,1.166-2.645,1.748-3.81,1.748c-0.527,0-1.109-0.161-1.745-0.477c0.316-0.636,1.057-1.43,2.223-2.381
		c-0.53-1.376-1.481-2.328-2.858-2.857l-1.902-0.478c-0.636,0.533-1.113,1.165-1.429,1.906c-1.377-2.012-1.535-3.493-0.478-4.441
		c0.846-0.744,1.64-1.538,2.38-2.381c0.53-0.319,1.64-0.056,3.332,0.794c0.744-0.319,1.481-0.688,2.223-1.113
		c0.425-0.214,0.951-0.53,1.587-0.951c-10.579-4.761-19.573-8.834-26.979-12.219c-12.376-5.82-19.995-9.521-22.853-11.108
		c-0.316-0.214-0.583-0.372-0.794-0.478c2.542-2.646,4.551-4.339,6.032-5.077c1.271-0.744,3.757-1.537,7.457-2.38
		c0.425,0.315,0.899,0.632,1.429,0.948c6.349,4.444,12.96,8.784,19.838,13.015c13.226,8.148,22.375,12.644,27.455,13.489
		c1.268-1.057,2.644-2.062,4.126-3.016c0.846-0.527,2.274-1.426,4.283-2.696c0.425-0.85,0.583-2.064,0.478-3.651
		c-0.105-1.166,0.267-2.064,1.109-2.697c0.955-0.74,2.117-1.165,3.493-1.271c1.162-0.105,2.167,0.056,3.016,0.478
		c-0.53,0.105-1.004,0.316-1.429,0.632l0.316,1.906c0.635,1.373,1.851,2.223,3.651,2.539c0.315-0.211,0.635-0.422,0.951-0.633
		c0.211,0.633,0.267,1.162,0.158,1.587c-0.211,0.527-0.685,1.11-1.429,1.742c-0.952,0.744-1.851,1.218-2.697,1.432
		c-1.271,0-2.485,0.05-3.65,0.155c-0.105,0.319-0.583,1.218-1.426,2.7c-0.425,0.635-1.005,1.429-1.749,2.38
		c4.129,0.425,7.353,0.741,9.684,0.951c1.162-1.376,1.903-2.169,2.219-2.38c0.85-0.527,2.223-0.633,4.129-0.316
		c1.587,0.211,2.749,0.847,3.49,1.903c0.316,0.53,0.526,1.165,0.635,1.903c-0.635-0.422-1.323-0.738-2.063-0.948l-0.794,2.061
		c-0.53,1.481-0.425,2.806,0.319,3.968c0.527,0,0.951,0.105,1.268,0.319c-0.105,0.105-0.211,0.211-0.316,0.315
		c-0.951,1.166-2.116,1.692-3.493,1.588c-1.587-0.105-2.696-0.316-3.332-0.636c-0.74-0.319-1.429-1.008-2.061-2.062
		c-1.376-0.105-2.753-0.056-4.129,0.155c-2.009,0.425-3.806,0.744-5.393,0.954c0.843,0.847,1.376,1.426,1.587,1.745
		c0.21,0.425,0.951,1.324,2.219,2.7c1.166-0.214,2.17-0.105,3.016,0.316c0.847,0.315,1.481,0.951,1.906,1.902
		c0.633,1.377,0.422,2.753-0.635,4.129v0.155c-0.425-0.633-0.952-1.215-1.587-1.742c-0.53,0-1.113,0.105-1.745,0.316
		c-1.377,0.526-2.331,1.481-2.858,2.857C256.896,222.858,257.427,223.385,257.848,223.918z M188.815,38.56
		c-0.636-0.107-1.271-0.212-1.903-0.318l-2.699,1.111c0.951,0,1.85,0,2.699,0c0.737,0.316,1.376,0.739,1.903,1.269
		c1.06,0.846,1.64,1.27,1.745,1.27c1.162,0.741,2.17,1.164,3.016,1.269c1.06,0.212,1.959,0,2.696-0.634
		c0.105,0.739-0.526,1.27-1.902,1.587c-1.166,0.423-2.486,0.211-3.968-0.635c-2.857-1.799-4.445-2.751-4.761-2.856
		c-1.271-0.846-2.381-1.269-3.332-1.269c0.211-0.107,0.635-0.265,1.268-0.478c0.636-0.316,1.481-0.634,2.542-0.951
		c2.644-0.952,4.389-1.587,5.234-1.905v-0.158c0.319-0.953,1.324-2.486,3.017-4.603c1.691-2.221,2.907-3.597,3.65-4.125
		c1.587,0.528,2.855,1.85,3.807,3.967c1.376,3.068,1.271,6.824-0.316,11.267c-2.008-3.068-3.44-4.655-4.283-4.761
		c-0.319,0-1.004,0.105-2.064,0.318c-1.06,0.317-2.17,0.476-3.332,0.476C190.774,38.4,189.767,38.453,188.815,38.56z"/>
	<path fill-rule="evenodd" clip-rule="evenodd" fill="#EC2227" d="M186.912,39.354c-0.85,0-1.748,0-2.699,0l2.699-1.111
		c0.633,0.105,1.268,0.211,1.903,0.318c1.376,0.211,2.802,0.371,4.283,0.476c1.376,0.318,2.542,0.688,3.493,1.111
		c1.373,0.739,2.854,1.745,4.441,3.014c1.271,0.741,3.017,1.111,5.238,1.111c0.952,0,1.798-0.476,2.539-1.429
		c0.635-0.952,1.112-2.221,1.429-3.808c0.741,1.482,1.06,2.962,0.951,4.443c-0.21,2.01-1.373,3.279-3.489,3.809
		c-1.163,0.316-2.595,0.105-4.287-0.635c-1.798-0.846-3.543-2.063-5.235-3.649c-1.587-1.376-3.282-2.328-5.08-2.856
		C191.831,39.829,189.767,39.564,186.912,39.354z M224.364,212.49c0.315-0.741,0.793-1.373,1.429-1.906l1.902,0.478
		c1.377,0.529,2.328,1.481,2.858,2.857c-1.166,0.951-1.906,1.745-2.223,2.381c0,0.105,0,0.21,0,0.315
		c-0.425,1.061-0.108,2.223,0.952,3.49c-1.166,0.425-2.275,0.372-3.332-0.154c-0.847-0.533-1.482-1.377-1.906-2.542
		c-0.422-1.165-0.475-2.325-0.158-3.49C223.995,213.389,224.15,212.915,224.364,212.49z M261.499,187.734
		c0.738-0.316,1.587-0.478,2.539-0.478c1.373,0.105,2.644,0.478,3.809,1.109c1.163,0.639,1.956,1.433,2.381,2.381
		c0.422,1.06,0.211,2.12-0.636,3.174c-0.951-1.373-1.85-2.114-2.699-2.22c-0.422-0.104-1.057,0.053-1.903,0.478
		c-0.316,0.211-0.636,0.422-0.951,0.633c-1.801-0.316-3.017-1.166-3.651-2.539l-0.316-1.906
		C260.495,188.051,260.969,187.84,261.499,187.734z M273.082,209.636c-0.316-0.214-0.74-0.319-1.268-0.319
		c-0.744-1.162-0.85-2.486-0.319-3.968l0.794-2.061c0.74,0.21,1.429,0.526,2.063,0.948c0.53,0.319,1.005,0.688,1.43,1.112
		c0.951,1.057,1.587,2.223,1.902,3.493c0.422,1.373,0.422,2.535,0,3.49c-0.526,0.951-1.429,1.531-2.696,1.745
		c0.316-1.692,0.211-2.854-0.319-3.493C274.458,210.162,273.929,209.847,273.082,209.636z M257.848,223.918
		c-0.421-0.533-0.951-1.06-1.587-1.587c0.527-1.376,1.481-2.331,2.858-2.857c0.632-0.211,1.215-0.316,1.745-0.316
		c0.635,0.527,1.162,1.109,1.587,1.742c0.21,0.533,0.368,1.06,0.474,1.587c0.319,1.165,0.267,2.331-0.158,3.493
		c-0.424,1.162-1.109,2.012-2.061,2.538c-0.955,0.53-2.064,0.583-3.335,0.161c1.165-1.271,1.537-2.436,1.112-3.493
		C258.375,224.761,258.164,224.34,257.848,223.918z M113.277,38.56c0.634-0.107,1.322-0.212,2.063-0.318l2.698,1.111
		c-0.953,0-1.852,0-2.698,0c-2.856,0.211-4.92,0.476-6.19,0.793c-1.797,0.528-3.491,1.48-5.078,2.856
		c-1.798,1.587-3.544,2.803-5.237,3.649c-1.692,0.741-3.069,0.952-4.125,0.635c-2.223-0.53-3.439-1.799-3.65-3.809
		c-0.107-1.481,0.211-2.961,0.952-4.443c0.318,1.587,0.793,2.856,1.429,3.808c0.739,0.953,1.587,1.429,2.539,1.429
		c2.223,0,3.968-0.371,5.237-1.111c0.846-0.528,2.328-1.534,4.443-3.014c0.953-0.423,2.117-0.793,3.491-1.111
		C109.891,39.036,111.267,38.876,113.277,38.56z M37.261,192.179c-0.846-0.425-1.481-0.582-1.905-0.478
		c-0.846,0.105-1.745,0.847-2.698,2.22c-0.846-1.054-1.057-2.114-0.634-3.174c0.423-0.948,1.217-1.742,2.38-2.381
		c1.164-0.632,2.433-1.004,3.808-1.109c0.953,0,1.799,0.161,2.54,0.478c0.528,0.105,1.004,0.316,1.427,0.632l-0.316,1.906
		c-0.635,1.373-1.852,2.223-3.651,2.539C37.896,192.601,37.579,192.39,37.261,192.179z M29.168,209.636
		c-0.848,0.211-1.376,0.526-1.587,0.948c-0.53,0.639-0.636,1.801-0.318,3.493c-1.269-0.214-2.17-0.794-2.698-1.745
		c-0.423-0.955-0.423-2.117,0-3.49c0.318-1.271,0.952-2.437,1.905-3.493c0.423-0.425,0.899-0.793,1.427-1.112
		c0.635-0.422,1.324-0.738,2.064-0.948l0.793,2.061c0.528,1.481,0.423,2.806-0.318,3.968
		C29.907,209.316,29.484,209.422,29.168,209.636z M39.959,220.899c0.317-0.633,0.793-1.215,1.427-1.742l1.905,0.316
		c1.269,0.526,2.169,1.481,2.698,2.857c-0.635,0.527-1.111,1.054-1.429,1.587c-0.423,0.422-0.687,0.843-0.793,1.268
		c-0.316,1.058,0.054,2.223,1.111,3.493c-1.27,0.422-2.38,0.369-3.332-0.161c-0.953-0.526-1.64-1.376-2.063-2.538
		c-0.317-1.162-0.37-2.328-0.16-3.493C39.429,221.959,39.641,221.433,39.959,220.899z M73.919,216.3
		c-0.316-0.636-1.057-1.43-2.221-2.381c0.528-1.376,1.481-2.328,2.856-2.857c0.635-0.316,1.269-0.478,1.905-0.478
		c0.634,0.533,1.111,1.165,1.427,1.906c0.212,0.425,0.371,0.898,0.478,1.429c0.316,1.165,0.263,2.325-0.16,3.49
		c-0.423,1.165-1.057,2.009-1.905,2.542c-0.952,0.526-2.063,0.579-3.332,0.154c1.059-1.268,1.429-2.43,1.111-3.49
		C73.973,216.51,73.919,216.405,73.919,216.3z"/>
	<path fill-rule="evenodd" clip-rule="evenodd" fill="#FFFFFF" d="M188.021,27.292c0,0.212-0.053,0.371-0.158,0.476
		c-0.108,0.212-0.263,0.317-0.477,0.317c-0.211,0-0.369-0.105-0.475-0.317c-0.211-0.105-0.319-0.264-0.319-0.476
		c0-0.21,0.108-0.37,0.319-0.476c0.105-0.105,0.264-0.158,0.475-0.158c0.214,0,0.368,0.053,0.477,0.158
		C187.969,26.921,188.021,27.081,188.021,27.292z M188.815,26.498c-0.316-0.317-0.741-0.476-1.271-0.476
		c-0.422,0-0.794,0.158-1.11,0.476c-0.315,0.318-0.478,0.741-0.478,1.27c0,0.53,0.162,0.953,0.478,1.271
		c0.105,0.211,0.267,0.371,0.478,0.476c-1.271,0-2.591-0.53-3.968-1.587c-1.692-1.164-2.541-2.433-2.541-3.81
		c0.636,0.105,1.798,0.371,3.493,0.793c1.373,0.212,2.271,0.318,2.696,0.318c0.53,0,1.113,0.105,1.745,0.318
		c0.319,0.105,0.955,0.317,1.906,0.634c0.211,0.635,0.053,1.271-0.478,1.904c-0.211,0.318-0.474,0.583-0.793,0.793
		c0.214-0.317,0.319-0.688,0.319-1.111C189.293,27.239,189.132,26.816,188.815,26.498z M121.845,24.118
		c0,1.376-0.846,2.646-2.539,3.81c-1.376,1.057-2.698,1.587-3.967,1.587c0.211-0.105,0.371-0.265,0.476-0.476
		c0.318-0.317,0.476-0.741,0.476-1.271c0-0.529-0.158-0.952-0.476-1.27c-0.317-0.317-0.688-0.476-1.111-0.476
		c-0.529,0-0.952,0.158-1.27,0.476c-0.317,0.318-0.476,0.741-0.476,1.27c0,0.423,0.105,0.793,0.318,1.111
		c-0.318-0.21-0.583-0.476-0.793-0.793c-0.53-0.634-0.688-1.269-0.478-1.904c0.953-0.316,1.587-0.529,1.905-0.634
		c0.635-0.212,1.216-0.318,1.747-0.318C116.396,25.229,118.46,24.858,121.845,24.118z M115.339,27.768
		c-0.105,0.212-0.265,0.317-0.476,0.317c-0.212,0-0.371-0.105-0.478-0.317c-0.105-0.105-0.158-0.264-0.158-0.476
		c0-0.21,0.053-0.37,0.158-0.476c0.107-0.105,0.265-0.158,0.478-0.158c0.21,0,0.37,0.053,0.476,0.158
		c0.211,0.105,0.318,0.265,0.318,0.476C115.657,27.504,115.55,27.662,115.339,27.768z"/>
</g>
</svg>
