<?xml version="1.0" encoding="utf-8"?>
<!-- Generator: Adobe Illustrator 16.0.0, SVG Export Plug-In . SVG Version: 6.00 Build 0)  -->
<!DOCTYPE svg PUBLIC "-//W3C//DTD SVG 1.1//EN" "http://www.w3.org/Graphics/SVG/1.1/DTD/svg11.dtd">
<svg version="1.1" id="Layer_1" xmlns="http://www.w3.org/2000/svg" xmlns:xlink="http://www.w3.org/1999/xlink" x="0px" y="0px"
	 width="300px" height="300px" viewBox="0 0 300 300" enable-background="new 0 0 300 300" xml:space="preserve">
<g>
	<path fill-rule="evenodd" clip-rule="evenodd" fill="#DE1414" d="M258.577,59.562c8.477,3.014,15.031,7.082,19.665,12.206
		c1.809,2.072,3.484,4.125,5.03,6.159c1.054,1.356,2.108,2.807,3.164,4.351c8.25,12.658,11.848,26.239,10.793,40.743
		c-0.188,1.959-0.396,3.88-0.621,5.764c-1.546,9.532-4.937,19.1-10.172,28.707c-1.056,1.809-2.11,3.598-3.164,5.368
		c-2.524,3.918-5.331,7.911-8.42,11.98c-2.524,3.126-5.219,6.233-8.081,9.324c-11.566,12.619-25.749,24.147-42.551,34.583
		c-20.721,12.959-42.57,22.49-65.55,28.593c18.195-5.537,35.468-14.202,51.817-25.994c15.258-11.038,27.822-23.433,37.691-37.182
		c0.641-0.905,1.3-1.81,1.978-2.713c10.736-15.559,16.803-31.005,18.196-46.337c0.227-2.109,0.396-4.219,0.509-6.329
		c0.226-14.014-3.861-26.897-12.263-38.651c-8.4-11.754-21.153-17.744-38.256-17.97c-19.138-0.263-36.957,7.686-53.457,23.847
		c17.441-24.938,38.972-38.313,64.589-40.121C239.723,55.06,249.423,56.285,258.577,59.562z M258.577,128.785
		c0.302,16.2-4.916,32.738-15.652,49.615c-1.319,1.959-2.619,3.881-3.899,5.765c-16.576,23.055-41.723,41.722-75.438,56
		c23.695-13.45,41.986-30.251,54.869-50.407c1.13-1.845,2.241-3.71,3.334-5.593c9.343-16.162,13.732-31.89,13.167-47.186
		c-0.151-2.863-0.434-5.594-0.848-8.194c-2.26-12.469-8.457-21.397-18.591-26.785c-13.261-7.083-30.571-6.197-51.932,2.656
		c21.247-20.531,41.363-28.914,60.352-25.146c8.174,1.695,15.199,5.689,21.077,11.98c5.688,6.178,9.587,13.882,11.697,23.112
		C257.881,119.311,258.502,124.039,258.577,128.785z M176.413,106.012c14.655-4.709,26.918-3.636,36.788,3.221
		c6.705,4.709,11.076,11.227,13.11,19.552c0.791,3.504,1.224,7.29,1.3,11.359c0.188,14.014-4.578,28.688-14.297,44.021
		c-0.717,1.13-1.488,2.316-2.317,3.56c-12.809,18.911-31.626,36.392-56.452,52.44c19.552-14.844,34.377-30.741,44.472-47.694
		c1.62-2.787,3.127-5.556,4.521-8.306c6.028-11.904,9.136-23.526,9.323-34.867c0.227-7.723-0.848-14.561-3.221-20.513
		c-1.62-3.993-3.804-7.628-6.555-10.906C196.306,109.892,187.414,105.937,176.413,106.012z M200.373,126.073
		c0.49,0.904,0.98,1.808,1.47,2.712c3.165,6.932,4.013,15.559,2.543,25.881c-1.355,9.645-4.577,19.477-9.663,29.498
		c-0.565,1.13-1.13,2.26-1.695,3.391c-5.952,10.924-12.884,19.891-20.795,26.897c-8.476,7.497-16.463,11.245-23.959,11.245
		c-3.353,0-6.895-0.885-10.624-2.656c-0.565-0.339-1.093-0.659-1.582-0.96c-3.278-1.81-6.668-4.352-10.171-7.629
		c-7.573-7.082-14.297-16.124-20.174-27.124c-0.565-1.055-1.093-2.109-1.582-3.164c-5.048-10.097-8.232-19.93-9.55-29.498
		c-1.62-11.716-0.056-21.172,4.689-28.367c6.517-9.757,15.766-14.485,27.747-14.184c3.165,0,6.177,0.377,9.042,1.13
		c0.489,0,1.017,0.113,1.582,0.339c4.898,1.167,9.343,3.164,13.335,5.99c6.518-4.634,14.298-7.063,23.339-7.29
		C185.964,112.021,194.647,116.617,200.373,126.073z M159.857,197.669V174.67h22.716v-19.213h-22.716v-21.982h-19.213v21.982
		h-21.982v19.213h21.982v22.999H159.857z M69.895,55.889c25.692,1.809,47.261,15.183,64.702,40.121
		C118.06,79.849,100.241,71.9,81.14,72.163c-17.179,0.227-29.931,6.216-38.256,17.97c-9.606,13.449-13.562,28.442-11.867,44.98
		c1.544,15.333,7.666,30.779,18.365,46.337c10.172,14.842,23.376,28.142,39.612,39.895c14.918,10.736,30.608,18.874,47.072,24.412
		c0.489,0.188,1.017,0.358,1.582,0.508c0.904,0.34,1.846,0.66,2.825,0.962c-0.979-0.227-1.921-0.472-2.825-0.735
		c-0.565-0.151-1.093-0.302-1.582-0.451c-21.286-6.142-41.629-15.24-61.029-27.294c-20.795-13.035-37.617-27.671-50.462-43.907
		C11.013,157.397,3.63,140.124,2.424,123.021c-1.469-18.648,4.803-35.732,18.817-51.253c4.634-5.124,11.189-9.192,19.666-12.206
		C50.061,56.285,59.723,55.06,69.895,55.889z M75.263,79.509c18.912-3.767,39.048,4.615,60.408,25.146
		c-21.436-8.853-38.746-9.738-51.932-2.656c-12.318,6.518-18.798,18.177-19.438,34.979c-0.679,17.028,4.785,34.621,16.388,52.778
		c12.958,20.156,31.286,36.957,54.982,50.407c-36.504-15.484-62.912-36.072-79.225-61.765c-14.089-21.85-18.78-43.116-14.071-63.798
		c2.223-9.23,6.179-16.934,11.867-23.112C59.968,85.198,66.976,81.205,75.263,79.509z M71.478,140.144
		c0.113-13.939,4.973-24.243,14.58-30.911c9.794-6.856,22.02-7.93,36.673-3.221c-11-0.076-19.928,3.88-26.784,11.867
		c-6.744,8.062-10.003,18.535-9.776,31.418c0.339,13.938,4.992,28.331,13.957,43.172c8.552,14.429,20.532,28.085,35.94,40.969
		c0.489,0.415,1.017,0.867,1.582,1.356c2.185,1.771,4.464,3.56,6.837,5.369c-2.373-1.47-4.652-3.015-6.837-4.635
		c-0.565-0.414-1.093-0.79-1.582-1.13c-20.645-14.504-36.618-30.063-47.92-46.676C76.958,171.072,71.402,155.212,71.478,140.144z"/>
	<polygon fill-rule="evenodd" clip-rule="evenodd" fill="#FFFFFF" points="159.857,197.669 140.645,197.669 140.645,174.67 
		118.662,174.67 118.662,155.457 140.645,155.457 140.645,133.475 159.857,133.475 159.857,155.457 182.573,155.457 182.573,174.67 
		159.857,174.67 	"/>
</g>
</svg>
