<?xml version="1.0" encoding="utf-8"?>
<!-- Generator: Adobe Illustrator 16.0.0, SVG Export Plug-In . SVG Version: 6.00 Build 0)  -->
<!DOCTYPE svg PUBLIC "-//W3C//DTD SVG 1.1//EN" "http://www.w3.org/Graphics/SVG/1.1/DTD/svg11.dtd">
<svg version="1.1" id="Layer_1" xmlns="http://www.w3.org/2000/svg" xmlns:xlink="http://www.w3.org/1999/xlink" x="0px" y="0px"
	 width="300px" height="300px" viewBox="0 0 300 300" enable-background="new 0 0 300 300" xml:space="preserve">
<g>
	<path fill-rule="evenodd" clip-rule="evenodd" fill="#D62226" d="M283.733,62.366c-0.485,2.246-0.974,4.462-1.457,6.647
		c-1.338,5.827-2.704,11.563-4.1,17.208c-0.121,0.608-0.273,1.215-0.456,1.821c-0.243,0.971-0.486,1.913-0.729,2.824
		c-0.609,2.306-1.214,4.583-1.823,6.829c-0.181,0.789-0.395,1.578-0.636,2.367c-0.487,1.699-0.944,3.4-1.367,5.099
		c-0.364,1.214-0.729,2.429-1.095,3.642c-1.031,3.582-2.093,7.133-3.188,10.653c-1.518,4.796-3.037,9.5-4.555,14.113
		c-0.061,0.183-0.092,0.334-0.092,0.456c-2.003,5.646-4.009,11.139-6.012,16.481c-0.243,0.668-0.486,1.335-0.729,2.002
		c-2.489,6.496-5.07,12.81-7.744,18.94v0.091c-2.307,5.281-4.676,10.411-7.104,15.388c-0.729,1.396-1.458,2.793-2.187,4.188
		c-0.183,0.365-0.364,0.73-0.546,1.093c-1.641,3.279-3.341,6.494-5.104,9.652c0,0.061-0.027,0.122-0.09,0.183
		c-1.518,2.731-3.065,5.402-4.646,8.013c-3.219,5.403-6.499,10.622-9.84,15.661c-2.429,3.46-4.857,6.858-7.288,10.197
		c-3.522,4.612-7.074,9.015-10.657,13.202c-8.808,10.26-18.16,19.334-28.059,27.225c-5.708,4.553-11.63,8.713-17.764,12.476
		c-2.916,1.761-5.861,3.429-8.837,5.008c3.037-6.921,5.982-13.932,8.837-21.034c6.376-15.661,12.298-31.504,17.764-47.529
		c1.7-5.037,3.371-10.106,5.011-15.205c0.182-0.729,0.395-1.458,0.638-2.186c0.606-1.944,1.245-3.885,1.912-5.827
		c0.061-0.183,0.121-0.335,0.183-0.456c1.033-3.521,2.065-7.01,3.098-10.472c0.425-1.456,0.881-2.912,1.366-4.37
		c0.364-1.334,0.729-2.671,1.094-4.005c0.667-2.43,1.335-4.827,2.004-7.193c0.364-1.336,0.758-2.701,1.185-4.098
		c0.062-0.243,0.122-0.455,0.182-0.64c1.641-6.068,3.249-12.17,4.829-18.301c0.182-0.667,0.363-1.334,0.547-2.002
		c1.274-5.463,2.549-10.957,3.824-16.481c0-0.122,0.031-0.273,0.091-0.456c1.095-4.673,2.157-9.377,3.189-14.113
		c0.729-3.521,1.458-7.072,2.187-10.653c0.243-1.213,0.485-2.428,0.729-3.642c0.306-1.699,0.638-3.399,1.003-5.099
		c0.12-0.789,0.273-1.578,0.455-2.367c0.425-2.186,0.82-4.34,1.185-6.465c0.242-1.214,0.455-2.397,0.638-3.551
		c0.061-0.486,0.152-0.972,0.274-1.458c1.031-5.706,2.032-11.442,3.004-17.208c0.668-4.31,1.307-8.589,1.913-12.839
		c0.851-5.949,1.701-11.867,2.551-17.755c0.243-1.942,0.486-3.854,0.73-5.736c0.363-3.096,0.758-6.191,1.184-9.288L283.733,62.366z
		 M199.377,37.509c-7.653-1.032-15.488-2.823-23.505-5.372c-10.871-4.249-16.55-6.374-17.036-6.374l-7.288,3.278
		c-1.942,0-3.734-0.304-5.374-0.911c-1.701-0.607-2.764-0.911-3.188-0.911c-0.062,0-4.647,1.579-13.757,4.735
		c-9.048,3.157-16.731,4.735-23.047,4.735c-0.486-0.062-0.941-0.091-1.366-0.091c-1.519-0.121-2.854-0.183-4.009-0.183
		c-0.243-0.606-0.456-1.213-0.637-1.821c-2.977-9.044-2.338-17.755,1.913-26.132c0.912-1.821,2.005-3.642,3.279-5.463l39.446,12.748
		c1.7-1.215,3.583-1.761,5.647-1.64c2.855,0.122,5.133,1.032,6.833,2.731l38.808-13.021c5.224,10.016,6.804,19.637,4.738,28.864
		c-0.305,1.153-0.64,2.307-1.002,3.459C199.711,36.628,199.558,37.083,199.377,37.509z M37.493,133.752h62.767
		c0,0.122,0,0.213,0,0.273c1.396,5.524,2.824,11.018,4.282,16.481c0.182,0.668,0.363,1.335,0.546,2.002
		c1.519,5.768,3.128,11.504,4.828,17.21c0.182,0.546,0.365,1.124,0.547,1.73c0.121,0.305,0.212,0.605,0.273,0.91
		c1.396,4.797,2.885,9.561,4.464,14.295c0.486,1.456,0.972,2.943,1.458,4.461c1.093,3.401,2.217,6.8,3.371,10.197
		c0.121,0.245,0.213,0.488,0.273,0.73c0.911,2.671,1.852,5.342,2.823,8.013c3.706,10.379,7.623,20.608,11.752,30.685
		c3.887,9.47,7.957,18.879,12.208,28.226h-0.092c-4.19-2.063-8.229-4.311-12.116-6.738c-14.029-8.438-26.964-18.786-38.808-31.049
		c-5.587-5.765-10.932-11.957-16.034-18.575c-0.668-0.848-1.305-1.697-1.913-2.548c-1.944-2.61-3.856-5.281-5.739-8.013
		c-0.244-0.303-0.456-0.637-0.638-1.002c-3.219-4.676-6.316-9.529-9.292-14.568c-1.519-2.55-3.006-5.13-4.465-7.739
		c-1.336-2.428-2.611-4.856-3.825-7.284c-0.425-0.851-0.851-1.7-1.275-2.551c-0.183-0.303-0.365-0.606-0.546-0.91
		c-2.794-5.645-5.496-11.473-8.108-17.481c-0.668-1.578-1.336-3.157-2.005-4.735c-1.639-3.824-3.188-7.74-4.646-11.746
		C37.524,133.965,37.493,133.874,37.493,133.752z"/>
	<path fill-rule="evenodd" clip-rule="evenodd" fill="#FFFFFF" d="M199.377,37.509c-0.911,2.611-2.157,5.19-3.737,7.739
		l-38.533-13.476c-2.004,1.639-4.282,2.429-6.833,2.367c-2.187,0-4.1-0.606-5.74-1.822l-39.718,12.111h-0.091
		c-1.579-2.731-2.885-5.402-3.918-8.013c1.154,0,2.49,0.062,4.009,0.183c0.425,0,0.88,0.03,1.366,0.091
		c6.316,0,14-1.578,23.047-4.735c9.11-3.156,13.696-4.735,13.757-4.735c0.424,0,1.487,0.303,3.188,0.911
		c1.639,0.607,3.431,0.911,5.374,0.911l7.288-3.278c0.486,0,6.165,2.125,17.036,6.374C183.889,34.686,191.724,36.477,199.377,37.509
		z M45.236,65.917c0.851,0.911,1.883,1.974,3.098,3.188c3.037,2.974,4.555,4.492,4.555,4.552s-0.243,0.182-0.729,0.365
		c-0.729,0.243-1.489,0.606-2.278,1.092c-0.729,0.425-1.397,0.88-2.004,1.366l-0.638,0.547l-0.183-0.547
		c-0.121-0.424-0.667-2.427-1.64-6.009l-1.457-5.646L45.236,65.917z M60.45,75.113c0.607,0.122,1.246,0.274,1.913,0.455
		c0.607,0.243,1.154,0.456,1.64,0.638c0.972,0.547,1.942,1.215,2.915,2.003C67.95,79.12,68.74,80,69.287,80.85
		c1.094,1.578,1.853,3.338,2.277,5.281c0.303,1.821,0.273,3.642-0.09,5.463c-0.365,1.821-1.093,3.49-2.187,5.008
		c-1.032,1.578-2.398,2.882-4.1,3.915c-1.214,0.789-2.49,1.365-3.826,1.73c-1.275,0.304-2.672,0.424-4.19,0.364
		c-1.822-0.06-3.492-0.425-5.01-1.093c-1.58-0.728-3.006-1.729-4.282-3.004c-1.762-1.821-2.945-3.915-3.553-6.282
		c-0.606-2.429-0.576-4.917,0.091-7.466c0.183-0.485,0.456-1.153,0.82-2.003c0.425-0.85,0.82-1.518,1.185-2.003
		c1.154-1.578,2.581-2.883,4.281-3.915c1.701-1.032,3.523-1.669,5.466-1.912c0.547-0.122,1.276-0.152,2.187-0.091
		C59.266,74.9,59.964,74.992,60.45,75.113z M57.809,73.019c-1.094,0-1.884,0.03-2.37,0.092c-0.546,0.121-0.819,0.151-0.819,0.091
		c0-0.122,0.516-2.186,1.548-6.192l1.641-5.918c0.06,0,0.606,2.003,1.639,6.01c1.093,3.946,1.639,5.979,1.639,6.101
		c0,0.061-0.273,0.03-0.82-0.091C59.721,73.049,58.901,73.019,57.809,73.019z M63.456,74.021c-0.425-0.183-0.667-0.274-0.729-0.274
		c0-0.061,1.488-1.578,4.464-4.553l4.555-4.553c0,0.061-0.517,2.063-1.549,6.01c-1.093,3.945-1.67,5.979-1.731,6.101
		c0,0.121-0.061,0.181-0.182,0.181c0-0.06-0.152-0.212-0.455-0.455c-0.668-0.485-1.367-0.94-2.096-1.366
		C65.005,74.689,64.246,74.325,63.456,74.021z M34.123,74.932c0.181,0.061,2.216,0.607,6.103,1.639
		c3.827,1.031,5.771,1.548,5.831,1.548L45.966,78.3c-0.062,0.122-0.182,0.273-0.365,0.455c-0.486,0.547-0.972,1.245-1.458,2.095
		c-0.486,0.911-0.85,1.699-1.093,2.368c-0.062,0.182-0.122,0.333-0.183,0.455l-0.09,0.183c-0.062,0-1.579-1.518-4.555-4.553
		c-1.762-1.761-2.915-2.914-3.462-3.459C34.214,75.235,34.001,74.932,34.123,74.932z M36.036,87.132
		c4.008-1.093,6.042-1.639,6.104-1.639c0.121,0,0.182,0.031,0.182,0.091c0,0.061,0,0.152,0,0.274
		c-0.182,0.971-0.274,1.941-0.274,2.913c0,0.972,0.092,1.943,0.274,2.914v0.365l-12.208-3.279
		C30.114,88.711,32.088,88.165,36.036,87.132z M45.784,98.969c0.182,0.243,0.243,0.364,0.182,0.364c0,0.061-1.974,0.607-5.922,1.639
		l-6.103,1.639l1.093-1.274c0.849-0.85,1.912-1.913,3.188-3.187c1.214-1.275,2.278-2.337,3.189-3.187
		c0.911-0.85,1.366-1.245,1.366-1.184c0.061,0,0.211,0.304,0.456,0.91C43.779,96.087,44.629,97.513,45.784,98.969z M47.333,100.518
		l0.456,0.455c0.546,0.425,1.245,0.91,2.095,1.457c0.911,0.487,1.67,0.85,2.278,1.093c0.425,0.122,0.638,0.213,0.638,0.273
		c0.06,0-0.334,0.455-1.185,1.366c-0.911,0.911-2.003,1.973-3.279,3.187c-2.976,3.036-4.434,4.492-4.373,4.371
		c0-0.122,0.516-2.125,1.549-6.009c0.85-3.158,1.367-4.978,1.548-5.464C47.18,100.76,47.271,100.518,47.333,100.518z
		 M56.442,104.524c0.546,0,1.002,0,1.367,0c0.363,0,0.819,0,1.366,0c0.911-0.122,1.487-0.213,1.73-0.274h0.273l-1.64,6.101
		c-0.425,1.639-0.819,3.066-1.184,4.279l-0.546,1.822l-0.456-1.822c-0.365-1.274-0.76-2.7-1.186-4.279l-1.639-6.101h0.273
		C54.984,104.311,55.531,104.402,56.442,104.524z M63.456,103.522c0.668-0.243,1.428-0.606,2.278-1.093
		c0.85-0.546,1.549-1.032,2.096-1.457c0.181-0.122,0.303-0.212,0.364-0.273l0.273-0.092c0,0.062,0.456,1.73,1.367,5.008l1.914,7.285
		l-4.464-4.553c-1.275-1.214-2.338-2.276-3.189-3.187l-1.275-1.366C62.879,103.735,63.092,103.644,63.456,103.522z M81.676,74.932
		c0.062,0-0.334,0.424-1.184,1.274c-0.789,0.911-1.822,1.973-3.097,3.187c-2.977,2.974-4.495,4.462-4.555,4.462l-0.091-0.456
		c-0.183-0.547-0.546-1.305-1.093-2.276c-0.547-0.91-1.063-1.7-1.548-2.368l-0.547-0.636l8.746-2.276
		C80.492,75.235,81.615,74.932,81.676,74.932z M73.386,85.858c-0.061-0.062-0.091-0.122-0.091-0.183l0.091-0.183
		c0.061,0,2.064,0.516,6.012,1.548c3.948,1.032,5.983,1.609,6.104,1.729l-2.186,0.547c-1.397,0.425-4.191,1.184-8.381,2.276
		l-1.64,0.456l0.091-0.365c0.121-0.911,0.182-1.882,0.182-2.914C73.568,87.74,73.507,86.769,73.386,85.858z M72.84,93.779
		c0-0.061,0.303,0.182,0.911,0.729c0.546,0.546,1.761,1.729,3.644,3.551l4.555,4.553c-0.062,0.06-2.126-0.455-6.195-1.548
		l-6.103-1.73c0-0.06,0.181-0.334,0.546-0.819c0.546-0.606,1.032-1.336,1.458-2.185C72.141,95.479,72.536,94.629,72.84,93.779z"/>
	<path fill-rule="evenodd" clip-rule="evenodd" fill="#2B3085" d="M100.26,133.752H37.493c-3.037-8.013-5.86-16.268-8.472-24.768
		c0-0.06,0-0.12,0-0.182c-0.911-2.852-1.792-5.766-2.642-8.741c-0.243-0.789-0.456-1.578-0.638-2.367
		c-3.523-12.08-6.681-24.767-9.475-38.061l64.316-37.605c0.486,4.25,0.972,8.468,1.458,12.657
		c2.125,17.483,4.768,34.661,7.926,51.536c0.607,3.157,1.214,6.283,1.822,9.378c0.06,0.425,0.121,0.88,0.182,1.366
		c0.061,0.243,0.122,0.487,0.182,0.729c0.183,0.789,0.335,1.578,0.456,2.367c0.365,1.699,0.73,3.4,1.093,5.099
		c0.243,1.214,0.517,2.429,0.82,3.642c0.304,1.64,0.638,3.278,1.002,4.917c1.458,6.677,3.005,13.293,4.646,19.849
		C100.169,133.63,100.2,133.692,100.26,133.752z M72.84,93.779c-0.304,0.85-0.699,1.7-1.185,2.55
		c-0.426,0.849-0.912,1.579-1.458,2.185c-0.365,0.485-0.546,0.759-0.546,0.819l6.103,1.73c4.069,1.093,6.134,1.608,6.195,1.548
		l-4.555-4.553c-1.883-1.821-3.098-3.004-3.644-3.551C73.143,93.961,72.84,93.718,72.84,93.779z M73.386,85.858
		c0.121,0.91,0.182,1.881,0.182,2.913c0,1.032-0.061,2.003-0.182,2.914l-0.091,0.365l1.64-0.456c4.19-1.093,6.984-1.851,8.381-2.276
		l2.186-0.547c-0.121-0.121-2.156-0.698-6.104-1.729c-3.948-1.032-5.952-1.548-6.012-1.548l-0.091,0.183
		C73.295,85.736,73.326,85.797,73.386,85.858z M81.676,74.932c-0.061,0-1.184,0.303-3.37,0.911l-8.746,2.276l0.547,0.636
		c0.485,0.668,1.001,1.458,1.548,2.368c0.547,0.971,0.911,1.729,1.093,2.276l0.091,0.456c0.061,0,1.578-1.488,4.555-4.462
		c1.275-1.214,2.308-2.276,3.097-3.187C81.342,75.356,81.737,74.932,81.676,74.932z M63.456,103.522
		c-0.364,0.122-0.577,0.213-0.637,0.273l1.275,1.366c0.851,0.911,1.914,1.973,3.189,3.187l4.464,4.553l-1.914-7.285
		c-0.911-3.277-1.367-4.946-1.367-5.008l-0.273,0.092c-0.061,0.061-0.183,0.151-0.364,0.273c-0.547,0.425-1.246,0.91-2.096,1.457
		C64.884,102.916,64.124,103.279,63.456,103.522z M56.442,104.524c-0.911-0.122-1.458-0.213-1.64-0.274h-0.273l1.639,6.101
		c0.425,1.579,0.82,3.004,1.186,4.279l0.456,1.822l0.546-1.822c0.365-1.213,0.759-2.64,1.184-4.279l1.64-6.101h-0.273
		c-0.243,0.061-0.82,0.152-1.73,0.274c-0.547,0-1.003,0-1.366,0C57.444,104.524,56.988,104.524,56.442,104.524z M47.333,100.518
		c-0.062,0-0.152,0.243-0.274,0.728c-0.181,0.486-0.698,2.306-1.548,5.464c-1.033,3.884-1.549,5.888-1.549,6.009
		c-0.061,0.121,1.396-1.335,4.373-4.371c1.276-1.214,2.368-2.276,3.279-3.187c0.851-0.911,1.245-1.366,1.185-1.366
		c0-0.06-0.213-0.151-0.638-0.273c-0.608-0.243-1.367-0.606-2.278-1.093c-0.85-0.546-1.549-1.032-2.095-1.457L47.333,100.518z
		 M45.784,98.969c-1.154-1.457-2.004-2.882-2.551-4.28c-0.244-0.606-0.395-0.91-0.456-0.91c0-0.061-0.456,0.334-1.366,1.184
		c-0.911,0.85-1.975,1.912-3.189,3.187c-1.276,1.274-2.339,2.337-3.188,3.187l-1.093,1.274l6.103-1.639
		c3.948-1.032,5.922-1.578,5.922-1.639C46.026,99.333,45.966,99.212,45.784,98.969z M36.036,87.132
		c-3.947,1.033-5.921,1.579-5.921,1.639l12.208,3.279v-0.365c-0.182-0.971-0.274-1.942-0.274-2.914c0-0.971,0.092-1.941,0.274-2.913
		c0-0.122,0-0.213,0-0.274c0-0.061-0.062-0.091-0.182-0.091C42.078,85.493,40.044,86.04,36.036,87.132z M34.123,74.932
		c-0.122,0,0.091,0.303,0.637,0.911c0.547,0.545,1.701,1.699,3.462,3.459c2.976,3.035,4.494,4.553,4.555,4.553l0.09-0.183
		c0.061-0.122,0.121-0.273,0.183-0.455c0.243-0.668,0.607-1.457,1.093-2.368c0.486-0.85,0.972-1.548,1.458-2.095
		c0.183-0.182,0.303-0.333,0.365-0.455l0.091-0.181c-0.061,0-2.004-0.517-5.831-1.548C36.339,75.539,34.304,74.992,34.123,74.932z
		 M63.456,74.021c0.79,0.303,1.549,0.667,2.278,1.092c0.729,0.425,1.428,0.88,2.096,1.366c0.303,0.243,0.455,0.395,0.455,0.455
		c0.121,0,0.182-0.06,0.182-0.181c0.062-0.122,0.638-2.155,1.731-6.101c1.032-3.947,1.549-5.949,1.549-6.01l-4.555,4.553
		c-2.976,2.975-4.464,4.492-4.464,4.553C62.789,73.748,63.031,73.839,63.456,74.021z M57.809,73.019c1.092,0,1.912,0.03,2.458,0.092
		c0.547,0.121,0.82,0.151,0.82,0.091c0-0.122-0.546-2.155-1.639-6.101c-1.033-4.006-1.579-6.01-1.639-6.01l-1.641,5.918
		c-1.032,4.006-1.548,6.07-1.548,6.192c0,0.061,0.273,0.03,0.819-0.091C55.925,73.049,56.715,73.019,57.809,73.019z M60.45,75.113
		c-0.486-0.121-1.185-0.213-2.095-0.273c-0.911-0.061-1.64-0.03-2.187,0.091c-1.942,0.243-3.765,0.88-5.466,1.912
		c-1.7,1.032-3.127,2.337-4.281,3.915c-0.365,0.485-0.76,1.153-1.185,2.003c-0.364,0.85-0.637,1.518-0.82,2.003
		c-0.667,2.549-0.698,5.038-0.091,7.466c0.608,2.367,1.792,4.461,3.553,6.282c1.276,1.275,2.703,2.276,4.282,3.004
		c1.518,0.667,3.188,1.033,5.01,1.093c1.519,0.06,2.915-0.06,4.19-0.364c1.336-0.365,2.612-0.941,3.826-1.73
		c1.701-1.033,3.068-2.337,4.1-3.915c1.094-1.518,1.822-3.187,2.187-5.008c0.363-1.821,0.394-3.642,0.09-5.463
		c-0.425-1.943-1.184-3.703-2.277-5.281c-0.546-0.85-1.336-1.73-2.368-2.641c-0.973-0.789-1.943-1.457-2.915-2.003
		c-0.486-0.182-1.033-0.395-1.64-0.638C61.696,75.387,61.058,75.235,60.45,75.113z M45.236,65.917l-1.275-1.093l1.457,5.646
		c0.973,3.582,1.519,5.585,1.64,6.009l0.183,0.547l0.638-0.547c0.607-0.485,1.276-0.94,2.004-1.366
		c0.789-0.486,1.549-0.849,2.278-1.092c0.486-0.183,0.729-0.304,0.729-0.365s-1.519-1.579-4.555-4.552
		C47.12,67.891,46.087,66.828,45.236,65.917z"/>
</g>
</svg>
