<?xml version="1.0" encoding="utf-8"?>
<!-- Generator: Adobe Illustrator 16.0.0, SVG Export Plug-In . SVG Version: 6.00 Build 0)  -->
<!DOCTYPE svg PUBLIC "-//W3C//DTD SVG 1.1//EN" "http://www.w3.org/Graphics/SVG/1.1/DTD/svg11.dtd">
<svg version="1.1" id="Layer_1" xmlns="http://www.w3.org/2000/svg" xmlns:xlink="http://www.w3.org/1999/xlink" x="0px" y="0px"
	 width="300px" height="300px" viewBox="0 0 300 300" enable-background="new 0 0 300 300" xml:space="preserve">
<g>
	<path fill-rule="evenodd" clip-rule="evenodd" fill="#ED2224" d="M101.362,19.603c1.678,0.544,3.377,1.086,5.098,1.63
		c23.081,7.568,42.488,18.439,58.226,32.614c11.288,10.203,20.688,22.078,28.2,35.625c3.189,5.686,6.021,11.686,8.498,18
		c2.854,7.15,5.267,14.697,7.238,22.641c1.512,6.188,2.791,12.607,3.84,19.256c-3.945,3.846-10.092,7.254-18.443,10.223
		l-5.351,3.324c-2.769,1.506-6.609,3.408-11.519,5.707c-12.673,6.146-19.262,9.221-19.766,9.221c-0.461,0-4.658,1.839-12.589,5.519
		c-7.471,3.512-13.177,6.084-17.123,7.715l-5.351,2.195l4.156-8.029c3.483-6.772,5.896-13.4,7.239-19.881
		c0.712-3.555,1.237-7.757,1.573-12.606c0.25-3.973,0.377-8.384,0.377-13.234c-0.041-10.453-1.07-21.136-3.084-32.049
		c-0.839-4.725-1.888-9.512-3.147-14.363c-4.07-15.972-10.47-33.575-19.198-52.809l-8.813-19.443
		C101.173,20.23,101.151,19.812,101.362,19.603z M116.217,35.471c-0.966-2.007-1.657-3.094-2.078-3.262
		c-0.419-0.083-0.356,0.857,0.189,2.822s1.428,4.432,2.644,7.401c2.938,7.15,4.554,10.536,4.848,10.16
		c0.294-0.208-0.65-3.574-2.833-10.097C118.021,39.777,117.098,37.436,116.217,35.471z M124.651,59.868
		c0.294,0.126,0.442,0,0.442-0.376c0-0.878-0.442-2.069-1.323-3.575c-0.42-0.544-0.755-0.899-1.007-1.067
		c-0.294-0.125-0.442,0-0.442,0.377c0,0.961,0.483,2.152,1.449,3.574C124.105,59.387,124.399,59.743,124.651,59.868z
		 M126.667,66.579c0,0.501,0.084,1.086,0.251,1.755c4.28,14.844,7.218,27.889,8.812,39.137c0.042,0.168,0.064,0.334,0.064,0.502
		c1.635,11.331,2.265,23.038,1.888,35.122l-0.629,18.439l2.644-12.731c0.713-3.471,1.322-7.736,1.825-12.795
		c0.546-4.892,0.86-9.136,0.943-12.731c0.084-5.938-0.23-10.662-0.943-14.176c-0.085-0.459-0.21-1.003-0.377-1.63
		c-0.925-3.846-2.875-10.286-5.854-19.316c-5.036-14.886-7.806-22.329-8.309-22.329C126.771,65.826,126.667,66.077,126.667,66.579z
		 M152.537,60.245c-3.232-3.22-5.854-5.666-7.869-7.338l-7.427-5.958l8.687,9.094c5.286,5.562,9.799,10.265,13.534,14.112
		c6.042,6.188,9.966,10.056,11.771,11.603c2.812,2.467-0.566-1.735-10.135-12.606c-0.546-0.585-1.092-1.192-1.636-1.819
		C157.362,65.115,155.056,62.753,152.537,60.245z M176.016,111.234c0.462,0.126,1.027,0.251,1.701,0.376l2.518,0.377l2.328,7.589
		l0.567-3.387c0.377-1.881,0.691-2.947,0.943-3.198c0.209-0.168,1.153-0.105,2.833,0.188c1.049,0.167,1.637,0.188,1.762,0.063
		c0.042-0.043-0.042-0.209-0.251-0.502c-0.336-0.334-0.693-0.71-1.071-1.129c-1.049-1.086-1.782-1.902-2.203-2.445
		c-0.335-0.544-0.503-1.046-0.503-1.505c0-0.042,0-0.105,0-0.189c0.042-0.585,0.23-1.798,0.565-3.637
		c0.294-1.381,0.421-2.133,0.38-2.259c-0.043-0.083-0.253,0.042-0.631,0.377c-0.42,0.334-0.901,0.752-1.447,1.254l-1.889,1.882
		l-4.847-5.458l2.267,7.777l-1.952,1.63c-0.504,0.461-0.943,0.878-1.322,1.254c-0.336,0.334-0.502,0.544-0.502,0.627
		C175.262,110.962,175.513,111.068,176.016,111.234z M148.382,107.471c0,0.461-0.021,0.92-0.063,1.381
		c-0.084,3.512,0.42,6.961,1.511,10.349c1.091,3.386,2.707,6.438,4.847,9.156c0.924,1.296,2.14,2.509,3.651,3.637
		c1.511,1.171,2.896,1.987,4.154,2.446c3.357,1.254,6.273,1.191,8.75-0.188c1.595-0.878,2.938-2.259,4.029-4.141
		c0.629-1.086,1.175-2.341,1.636-3.763c0.336-0.92,0.566-1.61,0.691-2.069c0.169-0.544,0.169-0.71,0-0.502
		c-1.175,2.049-2.14,3.429-2.896,4.139c-0.798,0.795-1.804,1.38-3.021,1.756c-1.595,0.459-3.21,0.418-4.847-0.125
		c-1.678-0.543-3.315-1.526-4.91-2.948c-0.923-0.835-1.74-1.734-2.453-2.696c-0.505-0.67-0.966-1.38-1.386-2.133
		c-1.049-1.798-1.867-3.952-2.455-6.46c-0.378-1.421-0.608-2.488-0.692-3.198c-0.042-0.752-0.063-1.777-0.063-3.074
		c0.041-0.543,0.104-1.065,0.189-1.568c0.167-1.798,0.608-3.47,1.321-5.018c0.797-1.84,1.825-3.24,3.085-4.202
		c0.126-0.083,0.251-0.167,0.377-0.251c1.468-1.003,3.147-1.443,5.036-1.317c1.847,0.125,3.566,0.794,5.161,2.007
		c0.21,0.167,0.421,0.292,0.63,0.376c0.168,0.043,0.251,0.021,0.251-0.063c0.084-0.251-0.671-0.962-2.266-2.133
		c-1.553-1.17-2.853-1.965-3.903-2.382c-0.587-0.251-1.321-0.481-2.203-0.69c-0.796-0.209-1.488-0.334-2.076-0.377
		c-0.335-0.042-0.672-0.042-1.007,0c-0.252,0-0.505,0-0.757,0c-0.629,0-1.049,0.064-1.258,0.189
		c-2.728,0.878-4.89,2.676-6.483,5.394C149.536,101.388,148.676,104.21,148.382,107.471z"/>
	<path fill-rule="evenodd" clip-rule="evenodd" fill="#010101" d="M88.583,4.174c-0.252-0.753-0.378-1.337-0.378-1.756
		C88.164,2,88.269,1.896,88.521,2.104c1.007,0.92,3.168,6.355,6.484,16.307c3.314,9.993,6.253,19.903,8.813,29.729
		c5.33,20.572,9.273,40.35,11.834,59.332c0,0.168,0.02,0.334,0.062,0.502c1.721,13.296,3.001,28.224,3.84,44.781
		c0.378,7.024,0.651,14.32,0.819,21.888c0.42,16.978,0.565,26.928,0.44,29.855c-0.169,3.01-0.966,4.516-2.393,4.516
		c-1.343,0-2.12-0.92-2.329-2.761c-0.209-1.881-0.146-7.777,0.189-17.686c0.377-11.081,0.209-23.019-0.504-35.813
		c-0.798-14.049-2.224-29.143-4.281-45.284c-0.083-0.208-0.125-0.438-0.125-0.689c-4.028-31.15-9.462-58.14-16.303-80.97
		L88.583,4.174z M188.668,162.915l5.351-3.324c-0.462,0.377-0.986,0.753-1.574,1.129
		C191.564,161.264,190.305,161.995,188.668,162.915z M101.362,19.603c0.168-0.251,0.692-0.23,1.573,0.063
		c0.588,0.251,1.762,0.774,3.525,1.568C104.739,20.689,103.04,20.146,101.362,19.603z M98.151,211.898
		c-1.469,0.92-2.665,1.38-3.587,1.38c-0.378,0-0.504-0.146-0.378-0.439c0.125-0.251,0.504-0.564,1.133-0.94
		c1.384-0.92,2.56-1.38,3.525-1.38c0.377,0,0.503,0.146,0.377,0.438C99.054,211.208,98.697,211.521,98.151,211.898z M92.172,125.033
		c2.434-2.55,4.657-4.746,6.672-6.585c1.93-1.755,2.979-2.571,3.147-2.446c0.42,0.419-0.419,5.374-2.518,14.865
		c-0.839,4.014-1.657,8.864-2.455,14.55c-0.377,2.635-0.692,5.08-0.944,7.339c-0.336,2.802-0.566,5.352-0.693,7.651l-1.196,15.304
		l-0.063-15.555c-0.042-2.383-0.021-4.85,0.063-7.4c0.083-2.133,0.21-4.307,0.378-6.522c0.334-5.018,0.755-8.887,1.259-11.604
		c1.3-6.648,1.824-10.077,1.573-10.286c-0.672-0.71-3.882,2.613-9.631,9.973c-4.029,5.185-7.239,9.68-9.631,13.484
		c-1.007,1.589-1.868,3.053-2.581,4.391c-3.986,7.651-6.693,14.299-8.121,19.943c-1.384,5.688-2.056,12.649-2.013,20.886
		c0,6.857,0.608,12.669,1.825,17.437c1.259,4.767,2.917,7.797,4.973,9.095c0.419,0.25,1.657,0.125,3.713-0.378
		c2.015-0.542,4.239-1.296,6.673-2.257c2.392-1.004,4.532-1.799,6.42-2.383c1.846-0.586,2.833-0.816,2.958-0.691
		c0.293,0.293-2.623,1.694-8.749,4.203c-6.043,2.467-9.589,3.701-10.638,3.701c-1.427,0-3.504-2.301-6.231-6.899
		c-2.77-4.684-4.553-8.865-5.351-12.544c-2.182-10.747-0.336-23.415,5.539-38.009c3.105-7.734,6.966-15.031,11.582-21.888
		C82.205,136.26,86.884,130.469,92.172,125.033z M106.334,221.055c3.609-1.296,7.513-2.278,11.709-2.947
		c6.84-1.045,11.393-1.609,13.659-1.693c2.266-0.084,3.398,0.229,3.398,0.941c0,0.376-1.195,0.856-3.587,1.441
		c-2.477,0.586-5.415,1.108-8.813,1.568c-5.161,0.71-9.191,1.547-12.086,2.509c-2.854,0.961-6.294,2.635-10.324,5.018
		c-5.749,3.304-11.142,6.544-16.177,9.721c-2.056,1.255-4.049,2.509-5.98,3.764c-6.588,4.349-9.714,6.669-9.379,6.961
		c0.587,0.628,4.805,0,12.652-1.881c0.923-0.209,1.826-0.418,2.707-0.627c6.672-1.673,12.61-3.45,17.814-5.332
		c3.105-1.128,7.175-2.801,12.21-5.017c4.953-2.258,9.4-4.37,13.346-6.335c6.756-3.47,10.533-5.311,11.331-5.519
		c0.755-0.251-0.169,0.794-2.771,3.136c-6.084,5.268-15.401,10.495-27.947,15.68c-8.268,3.429-16.262,6.125-23.983,8.09
		c-4.112,1.088-8.141,1.945-12.085,2.572l-11.016,1.882l0.944,4.327c0.209,1.213,1.133,3.68,2.769,7.401
		c1.553,3.805,3.294,7.735,5.225,11.791c4.952,10.243,7.47,16.118,7.554,17.624c0,1.087-0.566,1.693-1.7,1.819
		c-0.713,0.125-2.434,0.021-5.162-0.313c-7.134-0.879-14.855-2.05-23.164-3.514c-3.148-0.543-6.085-1.087-8.813-1.631
		c-4.49-0.92-8.372-1.818-11.645-2.695c-3.86-0.92-6.126-1.548-6.798-1.882c-0.671-0.293,0.168-0.313,2.518-0.063
		c5.834,0.711,11.142,1.317,15.926,1.818c10.533,1.13,18.611,1.882,24.235,2.258l12.463,0.941l-5.602-8.655
		c-3.105-4.766-6.274-10.788-9.505-18.063c-3.189-7.358-4.784-12.124-4.784-14.299c0-2.843,9.547-9.429,28.641-19.757
		c2.393-1.297,4.931-2.655,7.617-4.076C97.858,224.756,102.725,222.436,106.334,221.055z M254.385,184.428
		c-1.973-0.795-4.093-1.547-6.358-2.259c-2.476-0.835-4.153-1.483-5.036-1.944c-0.881-0.459-0.798-0.689,0.253-0.689
		c0.965,0,2.497,0.23,4.594,0.689c2.099,0.544,4.113,1.15,6.045,1.819c3.355,1.171,5.351,2.133,5.979,2.885
		c0.671,0.711,0.965,2.175,0.88,4.391c-0.209,4.098-1.972,10.642-5.286,19.632c-3.316,8.905-7.618,18.794-12.904,29.665
		l-10.323,20.886l12.212,1.692c5.707,0.754,13.219,2.384,22.533,4.893c9.276,2.509,13.598,4.035,12.967,4.579
		c-0.335,0.335-3.587-0.188-9.756-1.567c-2.518-0.586-6.903-1.172-13.155-1.757c-6.169-0.502-12.422-0.878-18.758-1.13
		c-14.101-0.459-25.451,0.021-34.054,1.443c-8.604,1.379-21.885,5.018-39.847,10.913c-12.295,4.015-24.442,7.631-36.444,10.85
		c-11.96,3.136-19.031,4.662-21.214,4.579c-0.63,0,0.799-0.586,4.28-1.757c3.567-1.211,8.057-2.654,13.471-4.326
		c12.337-3.764,27.612-8.677,45.825-14.739c26.061-8.738,44.167-13.108,54.322-13.108h5.352l7.932-16.683
		c7.006-14.594,12.42-27.409,16.239-38.447c3.819-11.121,5.034-17.394,3.65-18.815C257.406,185.745,256.272,185.18,254.385,184.428z
		 M217.623,181.668c4.994-0.795,7.387-0.92,7.176-0.376c-0.335,0.584-3.188,1.756-8.561,3.512
		c-8.393,2.718-18.38,6.982-29.962,12.795c-11.583,5.77-21.234,11.353-28.955,16.746l-12.968,8.969l7.112-6.774
		c5.33-5.018,9.611-8.801,12.842-11.352c5.12-4.098,13.555-8.739,25.305-13.924C201.488,185.996,210.825,182.796,217.623,181.668z"
		/>
	<path fill-rule="evenodd" clip-rule="evenodd" fill="#FFFFFF" d="M148.382,107.471c0.294-3.261,1.154-6.083,2.582-8.467
		c1.594-2.717,3.756-4.515,6.483-5.394c0.209-0.125,0.629-0.189,1.258-0.189c0.252,0,0.505,0,0.757,0
		c0.335-0.042,0.672-0.042,1.007,0c0.588,0.043,1.28,0.168,2.076,0.377c0.882,0.208,1.616,0.438,2.203,0.69
		c1.051,0.417,2.351,1.212,3.903,2.382c1.595,1.171,2.35,1.881,2.266,2.133c0,0.083-0.083,0.105-0.251,0.063
		c-0.209-0.083-0.42-0.208-0.63-0.376c-1.595-1.213-3.314-1.882-5.161-2.007c-1.889-0.126-3.568,0.313-5.036,1.317
		c-0.126,0.083-0.251,0.168-0.377,0.251c-1.26,0.962-2.288,2.362-3.085,4.202c-0.713,1.547-1.154,3.219-1.321,5.018
		c-0.086,0.502-0.148,1.024-0.189,1.568c0,1.296,0.021,2.322,0.063,3.074c0.084,0.71,0.314,1.777,0.692,3.198
		c0.588,2.509,1.406,4.663,2.455,6.46c0.42,0.752,0.881,1.463,1.386,2.133c0.713,0.962,1.53,1.861,2.453,2.696
		c1.595,1.422,3.232,2.405,4.91,2.948c1.637,0.543,3.252,0.584,4.847,0.125c1.218-0.376,2.224-0.961,3.021-1.756
		c0.756-0.71,1.721-2.09,2.896-4.139c0.169-0.208,0.169-0.042,0,0.502c-0.125,0.459-0.355,1.149-0.691,2.069
		c-0.461,1.422-1.007,2.676-1.636,3.763c-1.092,1.882-2.435,3.263-4.029,4.141c-2.477,1.379-5.393,1.441-8.75,0.188
		c-1.259-0.459-2.644-1.275-4.154-2.446c-1.512-1.128-2.728-2.341-3.651-3.637c-2.14-2.718-3.756-5.771-4.847-9.156
		c-1.091-3.387-1.595-6.837-1.511-10.349C148.361,108.391,148.382,107.932,148.382,107.471z M176.016,111.234
		c-0.503-0.167-0.754-0.272-0.754-0.313c0-0.083,0.166-0.293,0.502-0.627c0.379-0.376,0.818-0.793,1.322-1.254l1.952-1.63
		l-2.267-7.777l4.847,5.458l1.889-1.882c0.546-0.502,1.027-0.92,1.447-1.254c0.378-0.334,0.588-0.46,0.631-0.377
		c0.041,0.126-0.086,0.878-0.38,2.259c-0.335,1.838-0.523,3.051-0.565,3.637c0,0.083,0,0.147,0,0.189
		c0,0.459,0.168,0.961,0.503,1.505c0.421,0.542,1.154,1.358,2.203,2.445c0.378,0.419,0.735,0.795,1.071,1.129
		c0.209,0.293,0.293,0.459,0.251,0.502c-0.125,0.125-0.713,0.104-1.762-0.063c-1.68-0.293-2.624-0.355-2.833-0.188
		c-0.252,0.251-0.566,1.317-0.943,3.198l-0.567,3.387l-2.328-7.589l-2.518-0.377C177.043,111.485,176.478,111.361,176.016,111.234z"
		/>
</g>
</svg>
