<?xml version="1.0" encoding="utf-8"?>
<!-- Generator: Adobe Illustrator 16.0.0, SVG Export Plug-In . SVG Version: 6.00 Build 0)  -->
<!DOCTYPE svg PUBLIC "-//W3C//DTD SVG 1.1//EN" "http://www.w3.org/Graphics/SVG/1.1/DTD/svg11.dtd">
<svg version="1.1" id="Layer_1" xmlns="http://www.w3.org/2000/svg" xmlns:xlink="http://www.w3.org/1999/xlink" x="0px" y="0px"
	 width="300px" height="300px" viewBox="0 0 300 300" enable-background="new 0 0 300 300" xml:space="preserve">
<g>
	<path fill-rule="evenodd" clip-rule="evenodd" fill="#ED2224" d="M200.553,32.387c3.848-1.131,10.279,0.219,19.299,4.055
		c8.956,3.833,17.756,8.957,26.396,15.367c13.119,9.868,25.04,22.439,35.763,37.713C292.669,104.797,298,116.832,298,125.634
		c0,2.704-1.515,6.066-4.542,10.088c-2.838,4.021-8.546,10.528-17.124,19.515c-15.642,16.342-29.203,30.956-40.682,43.842
		c-19.112,21.185-36.709,37.964-52.793,50.346C166.776,261.81,154.477,268,145.962,268c-2.585,0-5.582-0.912-8.987-2.736
		c-3.469-1.885-7.948-5.09-13.435-9.616c-10.597-8.673-33.05-30.799-67.362-66.373c-34.437-35.514-52.224-55-53.358-58.455
		c-1.892-5.657-0.506-13.391,4.162-23.194c4.354-9.241,10.88-19.046,19.585-29.417c19.805-23.381,39.135-37.995,57.995-43.842
		c6.56-1.948,10.849-2.607,12.868-1.979c1.829,0.565,3.625,0.849,5.392,0.849c1.388,0,9.682,7.574,24.883,22.722l22.421,22.534
		l22.801-22.346c6.181-6.097,12.017-11.502,17.503-16.216C195.854,35.278,199.228,32.765,200.553,32.387z M124.202,154.106
		c-0.379,0.188-0.157,2.044,0.663,5.562c0.63,2.828,0.662,4.968,0.095,6.412c-0.505,1.51-1.83,2.986-3.975,4.43l-5.298,3.68h7.663
		c2.966,0,5.108,0.346,6.434,1.035c1.325,0.692,2.208,1.886,2.65,3.583c0.883,3.142,1.954,4.685,3.215,4.618
		c1.262-0.125,2.114-1.853,2.556-5.185c0.379-1.886,1.103-3.268,2.175-4.147c1.199-0.942,2.997-1.54,5.394-1.79l6.717-0.851
		l-5.203-3.488c-1.893-1.318-3.09-2.703-3.596-4.146c-0.631-1.447-0.693-3.175-0.188-5.186c0.883-3.208,0.724-4.998-0.474-5.378
		c-1.262-0.375-2.995,0.756-5.203,3.396c-1.325,1.572-2.491,2.357-3.5,2.357c-0.883,0-2.649-0.848-5.3-2.545
		C126.188,154.516,124.581,153.728,124.202,154.106z M142.084,104.891c-5.235-5.782-9.684-9.618-13.34-11.503
		c-3.596-1.821-9.335-3.235-17.22-4.243c-8.009-0.943-14.159-0.974-18.449-0.094c-4.352,0.818-9.838,3.709-16.46,8.675
		c-6.56,4.965-11.259,9.71-14.097,14.236c-3.217,5.028-5.298,11.849-6.244,20.459c-1.009,8.674-0.536,15.903,1.419,21.686
		c1.765,5.152,5.013,10.622,9.744,16.403c4.73,5.657,9.43,9.683,14.097,12.069c5.298,2.767,8.326,3.771,9.082,3.017
		c0.695-0.689-1.135-2.954-5.486-6.788C73.586,168.75,68.477,156.43,69.802,141.85c1.325-14.521,8.546-25.677,21.666-33.471
		c3.596-2.074,6.907-3.394,9.934-3.959c3.027-0.565,7.569-0.629,13.624-0.189c8.325,0.503,15.264,2.294,20.814,5.375
		c5.549,3.016,10.217,7.635,14.001,13.859c2.398,3.834,3.847,5.374,4.354,4.618c0.439-0.88-0.222-3.771-1.988-8.673
		C150.63,115.512,147.256,110.673,142.084,104.891z"/>
	<path fill-rule="evenodd" clip-rule="evenodd" fill="#FFFFFF" d="M142.084,104.891c5.172,5.782,8.546,10.622,10.122,14.519
		c1.767,4.902,2.428,7.793,1.988,8.673c-0.507,0.755-1.955-0.784-4.354-4.618c-3.784-6.224-8.452-10.843-14.001-13.859
		c-5.551-3.081-12.489-4.873-20.814-5.375c-6.055-0.44-10.597-0.376-13.624,0.189c-3.026,0.565-6.338,1.886-9.934,3.959
		c-13.12,7.794-20.341,18.95-21.666,33.471c-1.325,14.58,3.784,26.9,15.328,36.958c4.352,3.834,6.181,6.099,5.486,6.788
		c-0.756,0.755-3.784-0.25-9.082-3.017c-4.667-2.387-9.367-6.412-14.097-12.069c-4.73-5.781-7.979-11.251-9.744-16.403
		c-1.955-5.782-2.428-13.012-1.419-21.686c0.946-8.61,3.027-15.431,6.244-20.459c2.838-4.526,7.537-9.271,14.097-14.236
		c6.623-4.966,12.109-7.857,16.46-8.675c4.291-0.88,10.44-0.849,18.449,0.094c7.885,1.007,13.624,2.421,17.22,4.243
		C132.4,95.272,136.849,99.108,142.084,104.891z M124.202,154.106c0.379-0.379,1.986,0.409,4.824,2.357
		c2.65,1.697,4.417,2.545,5.3,2.545c1.009,0,2.175-0.785,3.5-2.357c2.208-2.641,3.941-3.771,5.203-3.396
		c1.197,0.38,1.356,2.17,0.474,5.378c-0.505,2.011-0.442,3.738,0.188,5.186c0.506,1.443,1.703,2.828,3.596,4.146l5.203,3.488
		l-6.717,0.851c-2.396,0.25-4.194,0.848-5.394,1.79c-1.072,0.88-1.796,2.262-2.175,4.147c-0.441,3.332-1.294,5.06-2.556,5.185
		c-1.261,0.066-2.332-1.477-3.215-4.618c-0.442-1.697-1.325-2.891-2.65-3.583c-1.325-0.689-3.468-1.035-6.434-1.035h-7.663
		l5.298-3.68c2.145-1.443,3.47-2.92,3.975-4.43c0.567-1.444,0.535-3.584-0.095-6.412
		C124.045,156.15,123.823,154.295,124.202,154.106z"/>
</g>
</svg>
