<?xml version="1.0" encoding="utf-8"?>
<!-- Generator: Adobe Illustrator 16.0.0, SVG Export Plug-In . SVG Version: 6.00 Build 0)  -->
<!DOCTYPE svg PUBLIC "-//W3C//DTD SVG 1.1//EN" "http://www.w3.org/Graphics/SVG/1.1/DTD/svg11.dtd">
<svg version="1.1" id="Layer_1" xmlns="http://www.w3.org/2000/svg" xmlns:xlink="http://www.w3.org/1999/xlink" x="0px" y="0px"
	 width="300px" height="300px" viewBox="0 0 300 300" enable-background="new 0 0 300 300" xml:space="preserve">
<g>
	<path fill-rule="evenodd" clip-rule="evenodd" fill="#E42526" d="M114.791,114.689c-2.466,2.582-4.992,5.078-7.572,7.488
		c-5.589,5.249-11.361,10.042-17.318,14.382l13.531,5.19c-0.029-0.028-0.042-0.057-0.042-0.085c3.346-0.823,5.375-1.376,6.083-1.66
		c0.114-0.057,0.185-0.113,0.213-0.17c0.852-0.709,1.106-2.227,0.767-4.552c-0.058-0.682-0.185-1.419-0.384-2.212
		c0.312-0.086,0.61-0.186,0.894-0.299c3.971-1.333,6.084-2.07,6.339-2.212c1.22-0.794,2.142-2.879,2.766-6.255
		c5.077-0.34,7.957-0.652,8.637-0.935c1.616-0.625,3.475-2.596,5.574-5.915c0.794,0.141,1.545,0.284,2.254,0.425l-0.127-1.489
		c-1.133-0.114-2.084-0.525-2.851-1.235c-0.793-0.794-1.162-1.758-1.105-2.893c0.141-1.078,0.624-1.971,1.447-2.68
		c0.878-0.794,1.928-1.149,3.148-1.063c1.219,0.057,2.226,0.482,3.021,1.276c0.88,0.822,1.249,1.772,1.106,2.851
		c-0.056,1.134-0.51,2.099-1.361,2.893c-0.369,0.284-0.738,0.497-1.106,0.638c0.057,0.681,0.114,1.334,0.169,1.957
		c0,0.029,0,0.057,0,0.086c0.341,0.056,0.682,0.099,1.022,0.127c1.644,0.198,2.722,0.27,3.233,0.212
		c1.787-0.255,4.17-1.9,7.148-4.936c3.659,2.694,5.744,4.099,6.255,4.212c1.701,0.34,5.021-0.482,9.955-2.468
		c2.78,2.581,4.682,4.255,5.702,5.021c0.113-0.709,0.242-1.404,0.384-2.085c-0.396-0.199-0.753-0.454-1.064-0.766
		c-0.766-0.794-1.121-1.759-1.063-2.893c0.057-1.135,0.511-2.1,1.36-2.894c0.938-0.653,2.015-0.937,3.234-0.852
		c1.191,0.085,2.186,0.525,2.979,1.32c0.822,0.737,1.191,1.702,1.106,2.893c-0.058,1.105-0.511,2.042-1.361,2.808
		c-0.907,0.709-1.901,1.021-2.979,0.937l-0.426,1.958c1.391-0.198,3.56-0.653,6.511-1.362c1.785,3.971,2.907,6.142,3.361,6.51
		c0.964,0.794,3.247,1.007,6.85,0.639c0.312,1.021,0.596,1.942,0.851,2.766c0.823,2.467,1.504,3.985,2.042,4.552
		c0.908,0.965,3.264,1.588,7.064,1.872c0.142,4.312,0.298,6.708,0.467,7.19c0.313,0.738,1.264,1.575,2.851,2.511l17.744-10.766
		c-13.956-6.75-27.359-15.53-40.209-26.336c-4.114-0.284-8.296-1.66-12.551-4.128c-5.476-3.149-7.816-7.078-7.021-11.786
		l-0.043-0.084l0.043,0.042c0-0.113,0.015-0.213,0.042-0.298c0.057,0.114,0.143,0.227,0.256,0.34h0.043
		c0.227,0.34,0.482,0.639,0.766,0.894c0.538,0.567,1.049,1.049,1.532,1.447c0.312,0.227,0.665,0.425,1.063,0.596
		c0.142,0.113,0.369,0.212,0.68,0.298l1.916,0.425c0.595,0.142,1.262,0.269,1.999,0.383c0.738,0.17,4.864,0.709,12.383,1.616
		c0.056-0.765,0.51-1.205,1.361-1.318c1.021-0.369,1.715-0.057,2.085,0.936c0.026-0.028,0.056-0.057,0.084-0.085
		c0.426-0.625,0.992-1.036,1.702-1.234c0.653-0.199,1.291-0.1,1.914,0.298c0.597,0.369,0.993,0.894,1.192,1.575
		c0-0.029,0.014-0.072,0.042-0.128c0.568-0.937,1.347-1.475,2.34-1.617c0.908-0.227,1.844-0.07,2.808,0.468
		c0.738,0.368,1.249,0.964,1.532,1.787l0.512-0.724c-0.738-0.539-1.447-1.063-2.127-1.574c-0.568-0.369-1.122-0.738-1.66-1.106
		c-8.964-6.07-16.707-8.127-23.232-6.17c-0.481,0.142-0.936,0.313-1.36,0.511c-1.248,0.51-2.099,1.021-2.553,1.531
		c-0.453,0.426-0.979,1.277-1.575,2.553l-0.212,0.468c0-2.099,0.439-3.83,1.318-5.19c3.546-5.134,9.274-7.744,17.19-7.829
		c6.495,0,13.218,1.56,20.166,4.68l3.533-1.106l3.275,2.085l0.341-0.809c8.057,5.418,13.97,9.97,17.743,13.658
		c5.105,4.993,9.218,10.836,12.339,17.531l0.809-0.171l2.212,4.382c1.475,5.049,2.298,9.148,2.468,12.297
		c0.056,1.617-0.041,2.979-0.298,4.084c-0.228,0.936-0.624,1.873-1.191,2.809c-1.759,2.865-5.077,5.305-9.956,7.318
		c0.652,0.765,1.305,1.56,1.957,2.382c-4.822,3.603-9.871,6.424-15.147,8.466c-2.638,0.937-7.205,2.284-13.7,4.043
		c-1.787,3.063-3.985,6.042-6.595,8.936l31.868-2l-0.169,1.574l31.315-15.998l0.551,1.659l24.34-22.508l-1.787,3.446l-20.296,26.039
		l0.639,1.831l-35.656,13.785l-0.341,2.852l-38.719-2.937c-0.255,0.228-0.525,0.469-0.809,0.723l34.592,3.064l0.086,2.936
		l38.889-2.596l-0.085,2.213l24.083-1.446l3.275,0.681l-27.528,6.255l-0.085,1.276l-38.465-0.936l0.044,1.232l-41.783-7.7
		c-0.085,0.058-0.171,0.113-0.255,0.171l32.038,8.806l-1.021,2.511l30.21,20.637l-1.574,1.063l1.744,23.913l-0.595,2.766
		l-6.596-22.807l-1.063,0.724l-24.295-21.062l-0.511,1.191l-35.146-13.743c-9.218,4.737-17.516,6.298-24.891,4.681
		c-7.658,0.795-15.984-1.844-24.976-7.913L91.56,196.383l-0.384-1.192l-26.506,18.298l-0.937-0.895l-9.062,22.125l-0.299-2.979
		l4.382-23.615l-1.361-1.19l32.252-17.233l-0.723-2.509l34.294-5.403c-0.029-0.057-0.059-0.101-0.087-0.128l-44.122,3.19
		l0.171-1.233l-38.336-3.319l0.085-1.233l-26.678-9.233l3.233-0.382l23.955,4.084l0.127-2.297l38.337,6.85l0.382-2.852l36.379,0.725
		c-0.227-0.228-0.468-0.454-0.723-0.682l-40.506-1.446l0.042-2.851l-33.912-17.573l0.852-1.872l-17.444-27.954l-1.277-3.787
		l21.615,25.104l0.766-1.616l29.444,19.444v-1.616l32.718,5.701c-1.219-1.504-2.382-3.05-3.488-4.638
		c-0.112-0.17-0.227-0.341-0.34-0.512c-2.07-0.198-3.886-0.382-5.446-0.552c-2.241-0.256-3.957-0.497-5.147-0.724
		c-5.674-1.049-11.148-2.951-16.425-5.702c0.483-0.907,0.965-1.786,1.447-2.638c-6.779-1.418-11.02-4.056-12.723-7.914
		c-1.445-3.12-1.687-8.652-0.723-16.594l1.405-4.681h0.766c1.815-7.261,4.822-13.758,9.02-19.487c2.836-4,7.261-8.893,13.275-14.679
		c0.595-0.596,1.22-1.191,1.872-1.788l0.51,0.766l1.873-1.957l1.064-0.723l3.616,0.425c6.24-4.312,12.566-7.02,18.977-8.127
		c7.772-1.304,13.857,0.256,18.253,4.681c1.049,1.106,1.802,2.709,2.256,4.808l-0.255-0.297h-0.085
		c-0.879-1.277-1.532-2.085-1.957-2.426c-0.568-0.368-1.561-0.695-2.979-0.979c-0.397-0.085-0.766-0.156-1.106-0.213l-1.191-0.127
		c-6.438-0.312-13.361,3.092-20.764,10.211c-0.879,0.879-1.773,1.801-2.68,2.766c-0.086,0.056-0.156,0.127-0.213,0.212
		c-0.114,0.114-0.228,0.227-0.342,0.341c-0.027-0.029-0.055-0.029-0.083,0l0.808,0.808c0.057-0.851,0.454-1.616,1.191-2.297
		c0.737-0.596,1.631-0.865,2.68-0.809c0.652,0,1.249,0.185,1.787,0.553c0.255,0.17,0.496,0.369,0.724,0.596
		c0,0.029,0.029,0.071,0.085,0.127c0.056-0.68,0.34-1.276,0.851-1.787c0.538-0.396,1.163-0.609,1.872-0.639
		c0.68,0.057,1.277,0.355,1.787,0.894c0.085,0.056,0.156,0.142,0.212,0.255c0.057-0.368,0.255-0.695,0.595-0.978
		c0.342-0.369,0.768-0.539,1.277-0.511c0.851,0.057,1.389,0.44,1.617,1.149c7.034-2.127,10.976-3.361,11.828-3.702l2.723-1.106
		c0.738-0.34,1.276-0.624,1.617-0.851c0.539-0.369,1.048-0.851,1.531-1.447l1.319-2c0.085-0.142,0.155-0.284,0.212-0.426
		c0,0.085,0.029,0.17,0.084,0.255v0.085c1.589,4.453-0.027,8.708-4.85,12.765c-3.659,3.176-7.56,5.29-11.7,6.339
		c-2.867,3.376-5.788,6.638-8.767,9.786l-0.978-0.213L114.791,114.689z M122.791,146.729c0.709-0.454,0.85-0.979,0.426-1.575
		c-0.454-0.737-1.022-0.907-1.703-0.51c-0.709,0.454-0.823,1.035-0.341,1.745C121.599,147.098,122.138,147.21,122.791,146.729z
		 M128.79,146.856c-0.511,0.312-0.652,0.752-0.425,1.319c0.425,0.625,0.878,0.723,1.361,0.298c0.54-0.34,0.682-0.781,0.426-1.319
		C129.839,146.644,129.385,146.544,128.79,146.856z M135.597,153.238c-0.481-0.709-1.078-0.865-1.787-0.468
		c-0.68,0.482-0.808,1.078-0.382,1.787c0.481,0.681,1.049,0.794,1.701,0.34C135.838,154.415,135.994,153.862,135.597,153.238z
		 M135.768,151.025c0.539,0.908,1.248,1.064,2.127,0.469c0.935-0.567,1.148-1.263,0.638-2.085c-0.625-0.908-1.391-1.106-2.297-0.596
		C135.328,149.409,135.172,150.146,135.768,151.025z M130.662,151.706c-0.171-0.396-0.468-0.638-0.894-0.723
		c-0.397-0.084-0.81,0-1.234,0.256c-0.937,0.623-1.134,1.376-0.596,2.255c0.596,0.907,1.348,1.063,2.256,0.468
		C131.018,153.451,131.172,152.699,130.662,151.706z M132.15,150.813c-0.511,0.255-0.652,0.666-0.425,1.233
		c0.312,0.652,0.781,0.795,1.405,0.426c0.595-0.397,0.737-0.851,0.424-1.362C133.215,150.628,132.747,150.53,132.15,150.813z
		 M132.534,147.877c-0.313-0.652-0.852-0.808-1.617-0.467c-0.737,0.454-0.865,1.049-0.383,1.787
		c0.397,0.653,0.951,0.766,1.659,0.341C132.902,149.14,133.016,148.586,132.534,147.877z M137.427,144.601
		c0.596-0.34,0.694-0.794,0.297-1.361c-0.312-0.539-0.779-0.639-1.404-0.297c-0.51,0.396-0.611,0.851-0.297,1.361
		C136.448,144.927,136.916,145.026,137.427,144.601z M137.683,147.792c0.651-0.312,0.807-0.851,0.467-1.616
		c-0.481-0.738-1.078-0.865-1.787-0.383c-0.624,0.482-0.737,1.035-0.34,1.66C136.477,148.161,137.03,148.274,137.683,147.792z
		 M134.065,147.325c0.625-0.34,0.724-0.809,0.298-1.405c-0.312-0.51-0.767-0.609-1.361-0.297c-0.511,0.426-0.61,0.894-0.298,1.404
		C132.931,147.565,133.385,147.665,134.065,147.325z M134.193,144.856c0.54-0.34,0.638-0.809,0.297-1.404
		c-0.312-0.51-0.779-0.609-1.404-0.297c-0.481,0.425-0.58,0.893-0.296,1.403C133.244,145.183,133.711,145.282,134.193,144.856z
		 M169.296,183.789c-0.229-0.229-0.44-0.186-0.639,0.126c-0.255,0.199-0.227,0.427,0.085,0.681c0.227,0.2,0.468,0.157,0.723-0.126
		C169.778,184.101,169.72,183.872,169.296,183.789z M169.891,184.725c-0.198-0.255-0.426-0.228-0.681,0.084
		c-0.227,0.228-0.184,0.456,0.129,0.683c0.227,0.226,0.453,0.183,0.681-0.128C170.358,185.021,170.316,184.809,169.891,184.725z
		 M167.593,181.447c-0.226,0.199-0.196,0.426,0.086,0.681c0.228,0.229,0.469,0.186,0.724-0.126c0.198-0.228,0.155-0.441-0.128-0.639
		C167.878,181.079,167.651,181.106,167.593,181.447z M167.083,185.021c-0.227-0.226-0.454-0.184-0.681,0.128
		c-0.199,0.198-0.156,0.427,0.128,0.681c0.368,0.341,0.595,0.298,0.68-0.127C167.408,185.476,167.367,185.249,167.083,185.021z
		 M148.149,177.577c-0.084-0.342-0.284-0.412-0.596-0.213c-0.311,0.169-0.368,0.411-0.17,0.723c0.199,0.312,0.413,0.354,0.639,0.128
		c0.169-0.057,0.256-0.128,0.256-0.213C148.333,177.832,148.291,177.689,148.149,177.577z M149.127,179.916
		c-0.198-0.313-0.441-0.411-0.724-0.298c-0.142,0.228-0.198,0.469-0.169,0.723c0.227,0.256,0.482,0.313,0.766,0.171
		C149.255,180.427,149.297,180.228,149.127,179.916z M143.597,178.215c0.197,0.198,0.439,0.256,0.723,0.171
		c0.284-0.115,0.326-0.327,0.127-0.64c-0.085-0.397-0.27-0.482-0.552-0.256C143.553,177.689,143.455,177.931,143.597,178.215z
		 M146.702,180.044c-0.284,0.199-0.383,0.439-0.297,0.724c0.227,0.227,0.481,0.283,0.765,0.17c0.256-0.284,0.313-0.539,0.171-0.766
		C147.198,180.002,146.986,179.959,146.702,180.044z M146.489,177.49c-0.312,0.199-0.367,0.456-0.169,0.768
		c0.198,0.311,0.396,0.354,0.596,0.128c0.313-0.2,0.368-0.455,0.171-0.767C146.972,177.421,146.772,177.378,146.489,177.49z
		 M144.447,172.343c-0.34-0.511-0.807-0.609-1.404-0.298c-0.538,0.34-0.638,0.794-0.296,1.361c0.226,0.597,0.651,0.681,1.275,0.256
		C144.674,173.406,144.816,172.967,144.447,172.343z M141.682,168.981c-0.313-0.482-0.767-0.581-1.362-0.298
		c-0.34,0.228-0.496,0.524-0.469,0.894c-0.226-0.085-0.481-0.028-0.766,0.17c-0.539,0.341-0.681,0.794-0.426,1.361
		c0.313,0.511,0.752,0.653,1.321,0.426c0.51-0.227,0.709-0.567,0.595-1.021c0.228,0.057,0.496,0.014,0.809-0.127
		C142.008,170.102,142.107,169.634,141.682,168.981z M141.17,165.236c-0.51-0.822-1.219-0.978-2.127-0.467
		c-0.992,0.481-1.177,1.19-0.553,2.126c0.654,0.994,1.391,1.192,2.212,0.597C141.639,166.896,141.795,166.145,141.17,165.236z
		 M138.575,159.748c0.681-0.255,0.795-0.681,0.341-1.275c-0.283-0.54-0.724-0.695-1.32-0.47c-0.538,0.427-0.639,0.894-0.297,1.405
		C137.498,160.089,137.923,160.202,138.575,159.748z M139.171,155.366c0.596-0.228,0.752-0.682,0.469-1.362
		c-0.371-0.51-0.838-0.609-1.405-0.297c-0.482,0.312-0.624,0.766-0.425,1.36C138.235,155.664,138.688,155.763,139.171,155.366z
		 M140.789,161.578c-0.341-0.482-0.795-0.609-1.362-0.384c-0.539,0.397-0.639,0.852-0.298,1.361
		c0.398,0.625,0.852,0.767,1.362,0.427C141.086,162.669,141.185,162.202,140.789,161.578z M132.831,141.495
		c-0.595-0.908-1.346-1.063-2.254-0.468c-0.397,0.17-0.639,0.468-0.724,0.894c-0.084,0.426,0,0.851,0.256,1.277
		c0.482,0.936,1.19,1.12,2.127,0.553C133.2,143.183,133.399,142.431,132.831,141.495z M134.235,139.878
		c0.881-0.453,1.064-1.177,0.554-2.17c-0.568-0.908-1.291-1.106-2.17-0.596c-0.936,0.624-1.164,1.376-0.681,2.255
		C132.563,140.275,133.327,140.445,134.235,139.878z M126.237,142.899c-0.341-0.511-0.81-0.61-1.404-0.298
		c-0.511,0.397-0.61,0.851-0.298,1.362c0.397,0.624,0.865,0.723,1.404,0.298C126.534,143.92,126.634,143.467,126.237,142.899z
		 M128.322,140.304c0.084-0.426-0.07-0.682-0.467-0.766c-0.454,0.084-0.724,0.297-0.81,0.639c-0.085,0.396,0.085,0.638,0.51,0.722
		C127.953,140.984,128.208,140.786,128.322,140.304z M128.364,142.687c-0.284-0.652-0.751-0.794-1.405-0.425
		c-0.482,0.425-0.567,0.894-0.255,1.404c0.255,0.369,0.709,0.497,1.362,0.383C128.661,143.765,128.761,143.311,128.364,142.687z
		 M122.449,141.538c0.397,0.085,0.639-0.085,0.724-0.511c0.085-0.425-0.071-0.68-0.468-0.766c-0.454-0.084-0.724,0.085-0.808,0.51
		C121.812,141.197,121.996,141.453,122.449,141.538z M124.321,138.133c-0.084,0.426,0.085,0.681,0.511,0.767
		c0.397,0.084,0.638-0.085,0.724-0.511c0.113-0.511-0.028-0.809-0.425-0.894C124.677,137.581,124.407,137.793,124.321,138.133z
		 M125.641,137.624c0.397,0.084,0.638-0.071,0.724-0.469c0.085-0.425-0.072-0.68-0.469-0.766c-0.425-0.113-0.681,0.043-0.765,0.468
		C125.045,137.254,125.215,137.509,125.641,137.624z M129.47,137.836c-0.085-0.228-0.255-0.369-0.511-0.425
		c-0.453,0.085-0.708,0.297-0.766,0.638c-0.084,0.397,0.114,0.653,0.596,0.766c0.142,0.029,0.24,0.029,0.297,0
		c0.028,0.114,0.072,0.227,0.128,0.34c0.425,0.625,0.894,0.723,1.403,0.298c0.595-0.313,0.695-0.766,0.298-1.362
		c-0.34-0.51-0.808-0.61-1.404-0.298L129.47,137.836z M120.875,142.814c-0.34-0.539-0.808-0.639-1.403-0.297
		c-0.511,0.396-0.61,0.851-0.298,1.361c0.397,0.625,0.865,0.724,1.403,0.298C121.173,143.863,121.273,143.41,120.875,142.814z
		 M117.173,142.771c-0.482-0.709-1.064-0.865-1.745-0.468c-0.709,0.425-0.823,1.007-0.34,1.744c0.426,0.71,0.965,0.823,1.618,0.34
		C117.415,143.906,117.571,143.367,117.173,142.771z M173.21,179.447c0.085-0.197,0.114-0.41,0.085-0.638
		c-0.113,0.03-0.226,0.071-0.34,0.128c-0.313-0.085-0.512-0.326-0.595-0.723c-0.087,0.085-0.185,0.127-0.299,0.127
		c-0.114-0.027-0.198-0.057-0.257-0.084c-0.112,0.084-0.227,0.198-0.338,0.339c-0.229,0.256-0.285,0.512-0.172,0.768
		c0.028-0.03,0.07-0.03,0.128,0c0.312,0.057,0.44,0.212,0.382,0.467l0.044,0.043c0.113-0.141,0.298-0.241,0.553-0.298
		c0.142,0.027,0.255,0.057,0.341,0.085C172.771,179.49,172.926,179.421,173.21,179.447z M177.252,173.406
		c-0.027-0.028-0.043-0.057-0.043-0.085c-0.027,0-0.042,0.015-0.042,0.042c0,0.028,0,0.07,0,0.128
		C177.169,173.462,177.196,173.434,177.252,173.406z M181.081,171.491c-0.028,0-0.042-0.014-0.042-0.042
		c-0.595-0.113-0.937-0.44-1.021-0.979c-0.113,0.057-0.227,0.142-0.341,0.255c0,0.028-0.027,0.058-0.084,0.085
		c0.48,0.029,0.737,0.342,0.765,0.937C180.527,171.606,180.77,171.52,181.081,171.491z M174.699,174.384
		c-0.369-0.254-0.738-0.254-1.105,0c-0.029-0.197-0.185-0.424-0.469-0.68c-0.623-0.341-1.063-0.255-1.32,0.256
		c-0.481,0.596-0.41,1.05,0.213,1.361c0.426,0.313,0.781,0.382,1.064,0.213c0.028,0.169,0.198,0.339,0.512,0.511
		c0.454,0.313,0.808,0.369,1.063,0.17c-0.256-0.086-0.398-0.326-0.425-0.724v-0.042c-0.114,0.057-0.214,0.098-0.299,0.128
		c-0.34-0.086-0.482-0.256-0.425-0.511c0.056-0.257,0.226-0.439,0.51-0.554c0.312,0.084,0.454,0.27,0.426,0.554
		c0.141-0.17,0.34-0.284,0.595-0.341c0.058,0.028,0.1,0.042,0.128,0.042C175.082,174.627,174.927,174.498,174.699,174.384z
		 M176.571,171.364c-0.567,0.085-0.923,0.282-1.063,0.595c-0.341,0.483-0.454,0.937-0.341,1.362c0.085-0.142,0.185-0.199,0.297-0.17
		c0.229-0.085,0.369-0.071,0.427,0.042c0.113-0.113,0.284-0.156,0.511-0.127h0.041c0-0.029,0-0.072,0-0.128
		c0.058-0.255,0.229-0.44,0.512-0.554c0.312,0.085,0.453,0.271,0.426,0.554c0.17-0.17,0.369-0.283,0.595-0.341
		c0.255,0.058,0.439,0.171,0.554,0.341c0-0.143-0.014-0.255-0.042-0.341c-0.028-0.142-0.072-0.269-0.128-0.383
		c-0.057-0.084-0.129-0.17-0.213-0.256c-0.085,0.029-0.185,0.029-0.298,0c-0.368-0.084-0.582-0.313-0.639-0.68
		C176.981,171.251,176.77,171.279,176.571,171.364z M176.061,168.768c-0.567-0.254-1.049-0.112-1.446,0.427
		c-0.341,0.425-0.256,0.865,0.255,1.319c0.653,0.312,1.121,0.199,1.404-0.341C176.614,169.69,176.543,169.223,176.061,168.768z
		 M178.655,164.685c-0.112-0.113-0.241-0.214-0.382-0.299c-0.823-0.482-1.518-0.354-2.086,0.384
		c-0.142-0.171-0.311-0.341-0.511-0.511c-0.339-0.172-0.638-0.242-0.893-0.212c-0.34,0.085-0.596,0.283-0.766,0.595
		c-0.482,0.624-0.383,1.177,0.297,1.659c0.539,0.369,1.022,0.34,1.447-0.085c0.114,0.341,0.369,0.623,0.766,0.851
		c0.397,0.256,0.808,0.341,1.234,0.256c0.511-0.086,0.836-0.326,0.979-0.724c0.142-0.198,0.255-0.383,0.341-0.553
		c-0.086-0.029-0.157-0.044-0.214-0.044c-0.368-0.027-0.595-0.254-0.68-0.68C178.245,165.038,178.4,164.825,178.655,164.685z
		 M181.507,168.258l-0.042,0.043c0.028-0.027,0.058-0.043,0.084-0.043H181.507z M183.038,168.344
		c-0.085,0.027-0.17,0.042-0.255,0.042c0.144,0.17,0.228,0.412,0.255,0.724l0.043-0.043c0.085-0.113,0.185-0.213,0.298-0.299
		C183.208,168.712,183.094,168.57,183.038,168.344z M186.23,167.789c0.056,0,0.099,0.015,0.127,0.045
		c-0.199-0.229-0.326-0.484-0.384-0.768c-0.085,0-0.141,0.043-0.169,0.128C185.86,167.393,186.003,167.591,186.23,167.789z
		 M189.847,162.089c0,0.113,0,0.255,0,0.426c0,0.709-0.326,1.12-0.979,1.233c0.256,0.142,0.397,0.384,0.426,0.723
		c0.256-0.198,0.639-0.283,1.149-0.255c0.368,0,0.666,0.127,0.894,0.383c0-0.058,0.027-0.113,0.084-0.17
		c0.54-0.88,0.384-1.602-0.468-2.169C190.583,161.976,190.215,161.918,189.847,162.089z M186.698,163.195h0.042
		c0.142-0.313,0.156-0.61,0.043-0.894c-0.028,0-0.071,0.028-0.129,0.085c0.028,0.198,0.044,0.411,0.044,0.638
		C186.698,163.11,186.698,163.166,186.698,163.195z M186.571,159.195c-0.058,0-0.114,0.028-0.172,0.085
		c0.058,0.085,0.086,0.213,0.086,0.383c0.057-0.085,0.113-0.127,0.169-0.127C186.571,159.451,186.542,159.338,186.571,159.195z
		 M183.548,162.982c-0.111,0-0.24-0.015-0.382-0.043c-0.028,0-0.057,0.015-0.085,0.043c-0.227,0.027-0.439,0.184-0.639,0.467
		c-0.113,0.229-0.154,0.44-0.126,0.638c0.112-0.056,0.283-0.056,0.51,0c0.255-0.056,0.496,0.016,0.722,0.214
		c0.029,0.057,0.059,0.1,0.086,0.128c0.058-0.057,0.156-0.071,0.298-0.043c0.086,0.028,0.17,0.058,0.255,0.085
		c0.029-0.113,0.072-0.198,0.128-0.255c-0.312-0.227-0.468-0.596-0.468-1.105C183.762,163.053,183.662,163.01,183.548,162.982z
		 M185.337,161.493c-0.113,0-0.185,0.028-0.213,0.085c0.028-0.028,0.084-0.044,0.17-0.044h0.043
		C185.31,161.534,185.31,161.521,185.337,161.493z M184.527,160.131c-0.028-0.027-0.056-0.056-0.084-0.085
		c-0.539-0.283-0.993-0.155-1.362,0.384c-0.084,0.17-0.128,0.339-0.128,0.51c0.058-0.027,0.141-0.057,0.255-0.085
		c0.625,0.142,0.979,0.469,1.064,0.979c0.143-0.085,0.283-0.155,0.426-0.213c0.057-0.028,0.084-0.056,0.084-0.086
		c0-0.055,0.015-0.084,0.043-0.084l-0.043-0.043c-0.339-0.056-0.538-0.297-0.596-0.724
		C184.244,160.43,184.358,160.244,184.527,160.131z M189.847,156.897c-0.652-0.511-1.234-0.426-1.745,0.256
		c-0.112,0.255-0.17,0.496-0.17,0.723c0.481,0.057,0.681,0.355,0.595,0.894c0.257-0.255,0.639-0.383,1.148-0.383
		c0.172,0.028,0.356,0.056,0.555,0.086C190.598,157.791,190.471,157.267,189.847,156.897z M186.145,157.536c0.028,0,0.058,0,0.086,0
		c0.027-0.512-0.257-0.964-0.852-1.361c-0.369-0.228-0.751-0.271-1.148-0.127c-0.511,0.085-0.866,0.282-1.064,0.595
		c-0.512,0.709-0.439,1.404,0.213,2.085c0.113-0.199,0.326-0.298,0.639-0.298c0.397,0.085,0.61,0.256,0.639,0.51
		c0.169-0.141,0.453-0.212,0.85-0.212c0.058-0.029,0.114-0.029,0.17,0c-0.17-0.143-0.269-0.326-0.297-0.554
		C185.491,157.664,185.748,157.451,186.145,157.536z M189.549,154.558c-0.653-0.312-1.107-0.185-1.362,0.382
		c-0.367,0.455-0.297,0.909,0.213,1.362c0.568,0.313,1.035,0.198,1.404-0.341C190.144,155.479,190.059,155.012,189.549,154.558z
		 M181.166,161.067c-0.481-0.171-0.851-0.027-1.105,0.426c-0.34,0.453-0.255,0.907,0.255,1.361c0.624,0.312,1.093,0.198,1.404-0.34
		c0.143-0.171,0.213-0.355,0.213-0.554c-0.058,0.028-0.128,0.028-0.213,0c-0.369,0.028-0.596-0.198-0.681-0.681
		C181.068,161.167,181.109,161.096,181.166,161.067z M176.826,160.684c-0.368,0.454-0.283,0.895,0.255,1.32
		c0.598,0.481,1.037,0.411,1.319-0.214c0.482-0.596,0.397-1.034-0.255-1.318C177.578,159.989,177.139,160.061,176.826,160.684z
		 M180.699,154.43c-0.369,0.427-0.299,0.865,0.212,1.319c0.624,0.339,1.078,0.255,1.361-0.255c0.454-0.511,0.382-0.993-0.213-1.447
		C181.408,153.734,180.954,153.862,180.699,154.43z M177.465,157.664c0.085-0.113,0.155-0.242,0.214-0.384
		c0.339,0.113,0.68-0.014,1.021-0.383c0.481-0.624,0.397-1.078-0.256-1.361c-0.596-0.482-1.049-0.411-1.362,0.213
		c-0.056,0.057-0.084,0.128-0.084,0.212c-0.625-0.312-1.12-0.198-1.489,0.341c-0.397,0.624-0.411,1.134-0.044,1.532
		c-0.141,0.084-0.255,0.213-0.339,0.383c-0.37,0.425-0.283,0.879,0.255,1.361c0.511,0.313,0.965,0.198,1.361-0.34
		c0.256-0.342,0.27-0.667,0.044-0.979C177.096,158.174,177.323,157.976,177.465,157.664z M186.272,153.494
		c0.426,0.255,0.864,0.169,1.319-0.256c0.312-0.623,0.198-1.135-0.341-1.532c-0.568-0.283-1.036-0.155-1.404,0.384
		C185.592,152.657,185.733,153.125,186.272,153.494z M184.74,152.643c-0.737-0.425-1.29-0.326-1.659,0.298
		c-0.171,0.313-0.242,0.652-0.213,1.021c0.114,0.284,0.298,0.496,0.553,0.638c0.738,0.512,1.319,0.412,1.745-0.298
		C185.563,153.707,185.421,153.153,184.74,152.643z M183.465,151.834c0.283-0.652,0.155-1.12-0.384-1.404
		c-0.454-0.369-0.922-0.284-1.403,0.255c-0.257,0.567-0.129,1.035,0.382,1.404C182.513,152.431,182.982,152.345,183.465,151.834z
		 M184.995,147.537c-0.595-0.482-1.049-0.397-1.361,0.255c-0.482,0.624-0.396,1.093,0.256,1.404
		c0.596,0.454,1.035,0.369,1.318-0.255C185.69,148.346,185.62,147.877,184.995,147.537z M188.145,144.644
		c-0.369,0.454-0.298,0.922,0.213,1.405c0.596,0.482,1.05,0.397,1.361-0.256c0.482-0.596,0.397-1.064-0.255-1.404
		C188.867,143.935,188.429,144.02,188.145,144.644z M188.357,147.112c-0.625-0.397-1.163-0.27-1.617,0.382
		c-0.426,0.737-0.341,1.306,0.256,1.702c0.709,0.397,1.261,0.284,1.658-0.34C189.165,148.204,189.067,147.622,188.357,147.112z
		 M196.525,161.194c0.342-0.624,0.285-1.078-0.17-1.361c-0.622-0.454-1.091-0.396-1.403,0.171c-0.453,0.624-0.369,1.092,0.255,1.403
		C195.661,161.777,196.1,161.705,196.525,161.194z M193.718,161.067c-0.624-0.454-1.177-0.341-1.659,0.34
		c-0.397,0.624-0.298,1.164,0.299,1.617c0.765,0.511,1.347,0.425,1.744-0.255C194.499,162.145,194.37,161.578,193.718,161.067z
		 M192.399,157.961c-0.426-0.368-0.879-0.283-1.362,0.256c-0.312,0.596-0.184,1.049,0.383,1.361c0.397,0.454,0.836,0.369,1.32-0.255
		C193.051,158.671,192.938,158.217,192.399,157.961z M197.591,154.302c-0.567,1.021-0.412,1.773,0.467,2.256
		c0.993,0.623,1.745,0.467,2.255-0.47c0.568-0.85,0.412-1.602-0.468-2.254C198.995,153.323,198.243,153.479,197.591,154.302z
		 M194.91,158.345c0.367-0.454,0.297-0.909-0.213-1.361c-0.54-0.284-1.021-0.157-1.447,0.382c-0.255,0.539-0.171,0.993,0.255,1.362
		C194.157,159.012,194.626,158.884,194.91,158.345z M195.974,155.92c0.624-0.823,0.469-1.547-0.468-2.171
		c-0.88-0.539-1.617-0.383-2.213,0.469c-0.568,0.992-0.411,1.716,0.467,2.169C194.754,157.012,195.49,156.854,195.974,155.92z
		 M195.632,150.601c-0.083-0.34-0.367-0.482-0.85-0.425c-0.142,0.056-0.283,0.156-0.426,0.297c-0.057,0.255-0.043,0.44,0.042,0.553
		c0.058,0.454,0.341,0.597,0.852,0.426C195.619,151.339,195.746,151.055,195.632,150.601z M198.016,150.686
		c-0.113-0.34-0.397-0.482-0.852-0.425c-0.396,0.283-0.537,0.567-0.426,0.85c0.057,0.114,0.129,0.229,0.214,0.341
		c-0.113,0.085-0.185,0.185-0.214,0.298c-0.367,0.482-0.296,0.95,0.214,1.404c0.539,0.255,0.991,0.113,1.362-0.426
		c0.367-0.425,0.311-0.865-0.172-1.318c-0.057-0.029-0.111-0.043-0.17-0.043C198.086,151.196,198.102,150.969,198.016,150.686z
		 M191.42,151.281c-0.312,0.624-0.185,1.092,0.384,1.404c0.426,0.368,0.879,0.284,1.361-0.255c0.312-0.625,0.228-1.064-0.255-1.32
		C192.399,150.628,191.903,150.686,191.42,151.281z M191.719,149.282c-0.624-0.341-1.063-0.27-1.32,0.212
		c-0.452,0.511-0.396,0.993,0.17,1.447c0.568,0.34,1.036,0.241,1.405-0.298C192.344,150.189,192.256,149.735,191.719,149.282z
		 M192.44,147.154c0.427-0.255,0.568-0.51,0.427-0.765c-0.143-0.511-0.411-0.71-0.809-0.596c-0.482,0.227-0.623,0.497-0.426,0.808
		C191.719,147.055,191.988,147.239,192.44,147.154z M194.952,147.707c0.283,0.397,0.554,0.539,0.809,0.426
		c0.539-0.057,0.723-0.326,0.553-0.808c-0.228-0.454-0.51-0.582-0.851-0.384C195.037,146.998,194.867,147.253,194.952,147.707z
		 M197.292,148.346c0.396-0.114,0.555-0.397,0.467-0.852c-0.197-0.368-0.48-0.51-0.85-0.425c-0.426,0.084-0.554,0.354-0.384,0.808
		C196.583,148.274,196.839,148.43,197.292,148.346z M186.571,142.644c0.709,0.397,1.26,0.283,1.658-0.34
		c0.396-0.681,0.284-1.22-0.34-1.617c-0.681-0.397-1.221-0.298-1.617,0.297C185.875,141.693,185.974,142.247,186.571,142.644z
		 M123.129,152.558c0.058-0.028,0.1-0.057,0.129-0.085c0.595-0.284,0.694-0.738,0.297-1.362c-0.339-0.51-0.793-0.609-1.361-0.297
		c-0.142,0.113-0.24,0.227-0.297,0.341c0.029-0.029,0.099-0.058,0.213-0.086c0.426,0.113,0.666,0.397,0.723,0.851
		c-0.028,0.199-0.1,0.341-0.213,0.426C122.846,152.402,123.017,152.473,123.129,152.558z M126.321,157.876
		c-0.056-0.085-0.113-0.198-0.169-0.34c-0.312-0.482-0.78-0.61-1.404-0.383c-0.312,0.255-0.453,0.538-0.426,0.85
		c0.114-0.056,0.256-0.085,0.426-0.085c0.313,0.058,0.538,0.199,0.68,0.427c0.114-0.397,0.369-0.554,0.766-0.469
		C126.222,157.876,126.265,157.876,126.321,157.876z M126.619,147.962c-0.34-0.539-0.808-0.638-1.404-0.297
		c-0.538,0.397-0.637,0.865-0.297,1.404c0.397,0.567,0.865,0.666,1.403,0.298C126.889,148.998,126.988,148.53,126.619,147.962z
		 M121.514,149.622c0.568-0.313,0.667-0.78,0.298-1.405c-0.312-0.482-0.781-0.581-1.404-0.297c-0.566,0.227-0.666,0.653-0.298,1.276
		C120.451,149.877,120.918,150.019,121.514,149.622z M126.406,153.707c-0.312-0.511-0.766-0.61-1.361-0.299
		c-0.511,0.397-0.595,0.852-0.255,1.362c0,0.028,0.014,0.07,0.042,0.127c0.198,0.029,0.355,0.114,0.469,0.255
		c0.027,0.029,0.07,0.058,0.126,0.086c-0.028-0.341,0.199-0.525,0.681-0.554c0.114,0.028,0.242,0.086,0.384,0.172
		C126.747,154.543,126.718,154.16,126.406,153.707z M124.917,150.218c-0.709,0.482-0.823,1.063-0.34,1.744
		c0.369,0.709,0.92,0.822,1.659,0.341c0.652-0.256,0.794-0.78,0.426-1.575C126.18,149.991,125.598,149.821,124.917,150.218z
		 M129.087,159.748c-0.028,0.284-0.17,0.482-0.426,0.597c0,0.169,0.071,0.339,0.213,0.51c0.397,0.652,0.851,0.752,1.362,0.298
		c0.595-0.283,0.681-0.723,0.255-1.319c-0.284-0.539-0.738-0.638-1.361-0.297C129.13,159.592,129.115,159.663,129.087,159.748z
		 M126.832,161.152c-0.255,0.028-0.482-0.028-0.681-0.17v0.042c0,0.256-0.028,0.482-0.085,0.681
		c0.142,0.143,0.284,0.228,0.426,0.256c0.227,0.057,0.468-0.028,0.724-0.256c0.397-0.171,0.567-0.411,0.51-0.723
		C127.555,161.181,127.258,161.238,126.832,161.152z M125.682,159.067c0,0.256-0.042,0.469-0.126,0.639
		c0.142,0,0.255,0.07,0.339,0.212c0.142-0.425,0.37-0.666,0.682-0.723l-0.043-0.043c-0.057,0.058-0.17,0.1-0.341,0.128
		C125.996,159.224,125.825,159.152,125.682,159.067z M168.231,186.426c-0.227-0.197-0.454-0.142-0.681,0.171
		c-0.255,0.199-0.227,0.41,0.086,0.637c0.227,0.256,0.467,0.228,0.722-0.084C168.558,186.922,168.517,186.683,168.231,186.426z
		 M136.916,166.812c0.595-0.341,0.695-0.81,0.298-1.404c-0.369-0.482-0.837-0.582-1.404-0.298c-0.568,0.228-0.652,0.651-0.255,1.276
		C135.867,167.066,136.32,167.209,136.916,166.812z M132.278,163.28c-0.226,0-0.467,0.057-0.722,0.169
		c-0.681,0.483-0.81,1.064-0.384,1.746c0.483,0.708,1.049,0.821,1.701,0.34c0.568-0.313,0.724-0.766,0.468-1.361
		c0.37,0.085,0.768,0,1.193-0.255c0.878-0.568,1.063-1.306,0.553-2.214c-0.568-0.937-1.306-1.092-2.214-0.467
		C132.023,161.635,131.824,162.316,132.278,163.28z M132.661,155.366c0.484-0.313,0.61-0.752,0.384-1.319
		c-0.341-0.511-0.795-0.596-1.362-0.256c-0.682,0.256-0.823,0.682-0.425,1.276C131.655,155.721,132.122,155.819,132.661,155.366z
		 M132.236,158.601c0.651-0.313,0.794-0.767,0.424-1.363c-0.339-0.481-0.808-0.58-1.403-0.297c-0.511,0.425-0.61,0.894-0.298,1.404
		C131.186,158.884,131.611,158.969,132.236,158.601z M135.427,155.877c-0.339-0.539-0.793-0.639-1.362-0.299
		c-0.539,0.426-0.637,0.88-0.298,1.362c0.397,0.596,0.852,0.694,1.362,0.297C135.724,156.926,135.823,156.472,135.427,155.877z"/>
	<path fill-rule="evenodd" clip-rule="evenodd" fill="#4E1414" d="M116.109,113.328c-0.425,0.426-0.865,0.879-1.319,1.362
		l0.341-1.575L116.109,113.328z M186.571,142.644c-0.598-0.397-0.696-0.951-0.299-1.66c0.396-0.595,0.937-0.695,1.617-0.297
		c0.624,0.397,0.736,0.936,0.34,1.617C187.831,142.927,187.28,143.041,186.571,142.644z M197.292,148.346
		c-0.453,0.084-0.709-0.071-0.767-0.469c-0.17-0.453-0.042-0.723,0.384-0.808c0.369-0.085,0.652,0.057,0.85,0.425
		C197.847,147.948,197.688,148.231,197.292,148.346z M194.952,147.707c-0.085-0.454,0.085-0.709,0.511-0.766
		c0.341-0.198,0.623-0.07,0.851,0.384c0.17,0.482-0.014,0.751-0.553,0.808C195.506,148.246,195.235,148.104,194.952,147.707z
		 M192.44,147.154c-0.452,0.085-0.722-0.099-0.808-0.553c-0.197-0.312-0.057-0.581,0.426-0.808c0.397-0.114,0.666,0.085,0.809,0.596
		C193.009,146.644,192.867,146.899,192.44,147.154z M191.719,149.282c0.537,0.453,0.625,0.907,0.255,1.361
		c-0.369,0.539-0.837,0.638-1.405,0.298c-0.566-0.454-0.622-0.936-0.17-1.447C190.655,149.012,191.095,148.941,191.719,149.282z
		 M191.42,151.281c0.483-0.596,0.979-0.653,1.49-0.171c0.482,0.256,0.566,0.695,0.255,1.32c-0.482,0.539-0.936,0.623-1.361,0.255
		C191.235,152.373,191.108,151.905,191.42,151.281z M198.016,150.686c0.086,0.284,0.07,0.511-0.043,0.681
		c0.059,0,0.113,0.014,0.17,0.043c0.482,0.453,0.539,0.894,0.172,1.318c-0.371,0.539-0.823,0.681-1.362,0.426
		c-0.51-0.454-0.581-0.922-0.214-1.404c0.029-0.113,0.101-0.213,0.214-0.298c-0.085-0.112-0.157-0.227-0.214-0.341
		c-0.111-0.283,0.029-0.567,0.426-0.85C197.618,150.204,197.902,150.345,198.016,150.686z M195.632,150.601
		c0.114,0.454-0.013,0.738-0.382,0.851c-0.511,0.171-0.794,0.028-0.852-0.426c-0.085-0.113-0.099-0.297-0.042-0.553
		c0.143-0.142,0.284-0.241,0.426-0.297C195.265,150.118,195.549,150.26,195.632,150.601z M195.974,155.92
		c-0.483,0.935-1.22,1.092-2.214,0.467c-0.878-0.453-1.035-1.177-0.467-2.169c0.596-0.852,1.333-1.008,2.213-0.469
		C196.442,154.373,196.598,155.097,195.974,155.92z M194.91,158.345c-0.284,0.539-0.753,0.667-1.405,0.383
		c-0.426-0.369-0.51-0.823-0.255-1.362c0.427-0.539,0.907-0.666,1.447-0.382C195.207,157.436,195.277,157.891,194.91,158.345z
		 M197.591,154.302c0.652-0.822,1.404-0.979,2.254-0.468c0.88,0.652,1.036,1.404,0.468,2.254c-0.51,0.937-1.262,1.093-2.255,0.47
		C197.179,156.075,197.023,155.323,197.591,154.302z M192.399,157.961c0.538,0.256,0.651,0.71,0.341,1.362
		c-0.484,0.624-0.923,0.709-1.32,0.255c-0.566-0.313-0.694-0.766-0.383-1.361C191.521,157.678,191.974,157.593,192.399,157.961z
		 M193.718,161.067c0.652,0.511,0.781,1.077,0.384,1.702c-0.397,0.68-0.979,0.766-1.744,0.255c-0.597-0.453-0.696-0.993-0.299-1.617
		C192.541,160.727,193.094,160.613,193.718,161.067z M196.525,161.194c-0.426,0.511-0.864,0.583-1.318,0.213
		c-0.624-0.312-0.708-0.779-0.255-1.403c0.313-0.567,0.781-0.625,1.403-0.171C196.811,160.116,196.867,160.57,196.525,161.194z
		 M188.357,147.112c0.71,0.51,0.808,1.092,0.297,1.744c-0.397,0.624-0.949,0.738-1.658,0.34c-0.597-0.396-0.682-0.965-0.256-1.702
		C187.194,146.842,187.732,146.715,188.357,147.112z M188.145,144.644c0.284-0.624,0.723-0.709,1.319-0.255
		c0.652,0.34,0.737,0.809,0.255,1.404c-0.312,0.653-0.766,0.738-1.361,0.256C187.847,145.565,187.775,145.098,188.145,144.644z
		 M184.995,147.537c0.625,0.34,0.695,0.809,0.213,1.404c-0.283,0.624-0.723,0.709-1.318,0.255c-0.652-0.312-0.738-0.78-0.256-1.404
		C183.946,147.14,184.4,147.055,184.995,147.537z M183.465,151.834c-0.482,0.511-0.952,0.597-1.405,0.256
		c-0.511-0.369-0.639-0.837-0.382-1.404c0.481-0.539,0.949-0.624,1.403-0.255C183.62,150.714,183.748,151.182,183.465,151.834z
		 M184.74,152.643c0.681,0.511,0.823,1.064,0.426,1.659c-0.426,0.71-1.007,0.81-1.745,0.298c-0.255-0.142-0.438-0.354-0.553-0.638
		c-0.029-0.369,0.042-0.709,0.213-1.021C183.45,152.316,184.003,152.218,184.74,152.643z M186.272,153.494
		c-0.539-0.369-0.681-0.837-0.426-1.404c0.368-0.539,0.836-0.667,1.404-0.384c0.539,0.397,0.652,0.909,0.341,1.532
		C187.137,153.663,186.698,153.749,186.272,153.494z M177.465,157.664c-0.142,0.312-0.369,0.51-0.68,0.595
		c0.226,0.313,0.212,0.638-0.044,0.979c-0.396,0.538-0.851,0.652-1.361,0.34c-0.538-0.482-0.625-0.937-0.255-1.361
		c0.084-0.17,0.198-0.299,0.339-0.383c-0.367-0.398-0.354-0.908,0.044-1.532c0.369-0.539,0.864-0.652,1.489-0.341
		c0-0.084,0.028-0.155,0.084-0.212c0.313-0.624,0.767-0.695,1.362-0.213c0.653,0.283,0.737,0.737,0.256,1.361
		c-0.341,0.369-0.682,0.496-1.021,0.383C177.62,157.422,177.55,157.551,177.465,157.664z M180.699,154.43
		c0.255-0.567,0.709-0.695,1.36-0.383c0.595,0.454,0.667,0.937,0.213,1.447c-0.283,0.51-0.737,0.594-1.361,0.255
		C180.4,155.295,180.33,154.856,180.699,154.43z M176.826,160.684c0.313-0.623,0.752-0.694,1.319-0.212
		c0.652,0.284,0.737,0.723,0.255,1.318c-0.282,0.625-0.722,0.695-1.319,0.214C176.543,161.578,176.458,161.138,176.826,160.684z
		 M181.166,161.067c-0.057,0.028-0.098,0.1-0.127,0.213c0.085,0.482,0.312,0.709,0.681,0.681c0.085,0.028,0.155,0.028,0.213,0
		c0,0.198-0.07,0.383-0.213,0.554c-0.312,0.538-0.78,0.651-1.404,0.34c-0.51-0.454-0.595-0.908-0.255-1.361
		C180.315,161.04,180.685,160.896,181.166,161.067z M189.549,154.558c0.51,0.454,0.595,0.922,0.255,1.403
		c-0.369,0.539-0.836,0.654-1.404,0.341c-0.51-0.453-0.58-0.907-0.213-1.362C188.441,154.373,188.896,154.246,189.549,154.558z
		 M186.145,157.536c-0.396-0.085-0.653,0.128-0.766,0.638c0.028,0.228,0.127,0.411,0.297,0.554c-0.056-0.029-0.112-0.029-0.17,0
		c-0.396,0-0.681,0.071-0.85,0.212c-0.028-0.254-0.241-0.425-0.639-0.51c-0.313,0-0.525,0.099-0.639,0.298
		c-0.652-0.681-0.725-1.376-0.213-2.085c0.198-0.313,0.554-0.51,1.064-0.595c0.397-0.144,0.779-0.101,1.148,0.127
		c0.595,0.397,0.879,0.85,0.852,1.361C186.202,157.536,186.173,157.536,186.145,157.536z M189.847,156.897
		c0.624,0.369,0.751,0.894,0.383,1.575c-0.198-0.03-0.383-0.058-0.555-0.086c-0.51,0-0.892,0.128-1.148,0.383
		c0.086-0.538-0.113-0.837-0.595-0.894c0-0.227,0.058-0.468,0.17-0.723C188.612,156.472,189.194,156.387,189.847,156.897z
		 M184.527,160.131c-0.169,0.113-0.283,0.299-0.341,0.553c0.058,0.427,0.257,0.668,0.596,0.724l0.043,0.043
		c-0.028,0-0.043,0.029-0.043,0.084c0,0.03-0.027,0.058-0.084,0.086c-0.143,0.058-0.283,0.128-0.426,0.213
		c-0.086-0.51-0.439-0.837-1.064-0.979c-0.114,0.028-0.197,0.058-0.255,0.085c0-0.171,0.044-0.34,0.128-0.51
		c0.369-0.539,0.823-0.667,1.362-0.384C184.472,160.075,184.499,160.104,184.527,160.131z M185.337,161.493
		c-0.027,0.027-0.027,0.041,0,0.041h-0.043c-0.086,0-0.142,0.016-0.17,0.044C185.152,161.521,185.224,161.493,185.337,161.493z
		 M183.548,162.982c0.114,0.027,0.214,0.07,0.299,0.128c0,0.51,0.156,0.879,0.468,1.105c-0.056,0.057-0.099,0.142-0.128,0.255
		c-0.085-0.027-0.169-0.057-0.255-0.085c-0.142-0.028-0.24-0.014-0.298,0.043c-0.027-0.028-0.057-0.071-0.086-0.128
		c-0.226-0.198-0.467-0.27-0.722-0.214c-0.227-0.056-0.397-0.056-0.51,0c-0.028-0.197,0.013-0.409,0.126-0.638
		c0.199-0.283,0.412-0.439,0.639-0.467c0.028-0.028,0.057-0.043,0.085-0.043C183.308,162.968,183.437,162.982,183.548,162.982z
		 M186.571,159.195c-0.029,0.143,0,0.256,0.083,0.341c-0.056,0-0.112,0.042-0.169,0.127c0-0.17-0.028-0.298-0.086-0.383
		C186.457,159.224,186.514,159.195,186.571,159.195z M186.698,163.195c0-0.029,0-0.085,0-0.171c0-0.227-0.016-0.439-0.044-0.638
		c0.058-0.057,0.101-0.085,0.129-0.085c0.113,0.283,0.099,0.58-0.043,0.894H186.698z M189.847,162.089
		c0.368-0.171,0.736-0.113,1.105,0.171c0.852,0.567,1.008,1.289,0.468,2.169c-0.057,0.057-0.084,0.112-0.084,0.17
		c-0.228-0.256-0.525-0.383-0.894-0.383c-0.511-0.028-0.894,0.057-1.149,0.255c-0.028-0.339-0.17-0.581-0.426-0.723
		c0.653-0.113,0.979-0.524,0.979-1.233C189.847,162.344,189.847,162.202,189.847,162.089z M186.23,167.789
		c-0.228-0.198-0.37-0.396-0.426-0.595c0.028-0.085,0.084-0.128,0.169-0.128c0.058,0.283,0.185,0.539,0.384,0.768
		C186.329,167.804,186.286,167.789,186.23,167.789z M183.038,168.344c0.056,0.227,0.17,0.368,0.341,0.424
		c-0.113,0.086-0.213,0.186-0.298,0.299l-0.043,0.043c-0.027-0.312-0.111-0.554-0.255-0.724
		C182.868,168.386,182.953,168.371,183.038,168.344z M181.507,168.258h0.042c-0.026,0-0.056,0.016-0.084,0.043L181.507,168.258z
		 M178.655,164.685c-0.255,0.141-0.41,0.354-0.467,0.638c0.085,0.426,0.312,0.652,0.68,0.68c0.057,0,0.128,0.015,0.214,0.044
		c-0.086,0.17-0.199,0.354-0.341,0.553c-0.143,0.397-0.468,0.638-0.979,0.724c-0.427,0.085-0.837,0-1.234-0.256
		c-0.396-0.228-0.651-0.51-0.766-0.851c-0.425,0.425-0.908,0.454-1.447,0.085c-0.68-0.482-0.779-1.035-0.297-1.659
		c0.17-0.312,0.426-0.51,0.766-0.595c0.255-0.03,0.554,0.04,0.893,0.212c0.2,0.17,0.369,0.34,0.511,0.511
		c0.568-0.738,1.263-0.866,2.086-0.384C178.414,164.471,178.543,164.571,178.655,164.685z M176.061,168.768
		c0.482,0.455,0.554,0.923,0.213,1.405c-0.283,0.54-0.751,0.652-1.404,0.341c-0.511-0.454-0.596-0.895-0.255-1.319
		C175.012,168.655,175.493,168.514,176.061,168.768z M176.571,171.364c0.198-0.085,0.41-0.113,0.638-0.085
		c0.057,0.367,0.271,0.596,0.639,0.68c0.113,0.029,0.213,0.029,0.298,0c0.084,0.086,0.156,0.172,0.213,0.256
		c0.056,0.114,0.1,0.241,0.128,0.383c0.028,0.086,0.042,0.198,0.042,0.341c-0.114-0.17-0.299-0.283-0.554-0.341
		c-0.226,0.058-0.425,0.171-0.595,0.341c0.027-0.283-0.114-0.469-0.426-0.554c-0.283,0.113-0.454,0.299-0.512,0.554
		c0,0.056,0,0.099,0,0.128h-0.041c-0.227-0.029-0.397,0.014-0.511,0.127c-0.058-0.113-0.198-0.127-0.427-0.042
		c-0.112-0.029-0.212,0.028-0.297,0.17c-0.113-0.426,0-0.879,0.341-1.362C175.648,171.646,176.004,171.449,176.571,171.364z
		 M174.699,174.384c0.228,0.114,0.383,0.243,0.468,0.384c-0.028,0-0.07-0.014-0.128-0.042c-0.255,0.057-0.454,0.171-0.595,0.341
		c0.028-0.284-0.114-0.47-0.426-0.554c-0.284,0.114-0.454,0.297-0.51,0.554c-0.058,0.255,0.085,0.425,0.425,0.511
		c0.085-0.03,0.185-0.071,0.299-0.128v0.042c0.026,0.397,0.169,0.638,0.425,0.724c-0.256,0.199-0.609,0.143-1.063-0.17
		c-0.313-0.172-0.483-0.342-0.512-0.511c-0.283,0.169-0.639,0.101-1.064-0.213c-0.623-0.312-0.694-0.766-0.213-1.361
		c0.257-0.511,0.697-0.597,1.32-0.256c0.284,0.256,0.439,0.482,0.469,0.68C173.961,174.13,174.33,174.13,174.699,174.384z
		 M181.081,171.491c-0.312,0.028-0.554,0.115-0.724,0.256c-0.027-0.595-0.284-0.907-0.765-0.937
		c0.057-0.027,0.084-0.057,0.084-0.085c0.114-0.113,0.228-0.198,0.341-0.255c0.085,0.538,0.427,0.865,1.021,0.979
		C181.039,171.478,181.053,171.491,181.081,171.491z M177.252,173.406c-0.056,0.027-0.083,0.056-0.085,0.085c0-0.058,0-0.1,0-0.128
		c0-0.027,0.015-0.042,0.042-0.042C177.209,173.35,177.225,173.378,177.252,173.406z M173.21,179.447
		c-0.284-0.026-0.439,0.043-0.468,0.214c-0.086-0.028-0.199-0.058-0.341-0.085c-0.255,0.057-0.439,0.157-0.553,0.298l-0.044-0.043
		c0.059-0.255-0.07-0.41-0.382-0.467c-0.058-0.03-0.1-0.03-0.128,0c-0.113-0.256-0.057-0.512,0.172-0.768
		c0.111-0.141,0.226-0.255,0.338-0.339c0.059,0.027,0.143,0.057,0.257,0.084c0.114,0,0.212-0.042,0.299-0.127
		c0.083,0.396,0.282,0.638,0.595,0.723c0.114-0.057,0.227-0.098,0.34-0.128C173.324,179.037,173.295,179.25,173.21,179.447z
		 M117.173,142.771c0.398,0.596,0.242,1.135-0.467,1.617c-0.652,0.482-1.192,0.37-1.618-0.34c-0.482-0.737-0.369-1.319,0.34-1.744
		C116.109,141.907,116.691,142.063,117.173,142.771z M120.875,142.814c0.398,0.596,0.298,1.049-0.298,1.362
		c-0.538,0.425-1.006,0.326-1.403-0.298c-0.312-0.51-0.213-0.964,0.298-1.361C120.067,142.175,120.535,142.275,120.875,142.814z
		 M129.47,137.836l0.042-0.043c0.596-0.312,1.064-0.212,1.404,0.298c0.397,0.596,0.297,1.05-0.298,1.362
		c-0.51,0.425-0.979,0.326-1.403-0.298c-0.057-0.113-0.1-0.227-0.128-0.34c-0.057,0.029-0.155,0.029-0.297,0
		c-0.482-0.113-0.68-0.369-0.596-0.766c0.058-0.34,0.313-0.553,0.766-0.638C129.215,137.467,129.385,137.608,129.47,137.836z
		 M125.641,137.624c-0.426-0.114-0.596-0.37-0.51-0.767c0.084-0.425,0.34-0.581,0.765-0.468c0.397,0.085,0.554,0.34,0.469,0.766
		C126.279,137.553,126.038,137.708,125.641,137.624z M124.321,138.133c0.085-0.34,0.355-0.553,0.81-0.638
		c0.397,0.085,0.538,0.383,0.425,0.894c-0.085,0.425-0.327,0.595-0.724,0.511C124.407,138.814,124.237,138.559,124.321,138.133z
		 M122.449,141.538c-0.453-0.085-0.637-0.34-0.552-0.766c0.084-0.425,0.354-0.595,0.808-0.51c0.397,0.085,0.553,0.34,0.468,0.766
		C123.087,141.453,122.846,141.623,122.449,141.538z M128.364,142.687c0.397,0.624,0.297,1.078-0.297,1.361
		c-0.653,0.114-1.107-0.014-1.362-0.383c-0.312-0.51-0.228-0.979,0.255-1.404C127.613,141.892,128.081,142.034,128.364,142.687z
		 M128.322,140.304c-0.114,0.482-0.369,0.68-0.767,0.595c-0.424-0.084-0.595-0.326-0.51-0.722c0.085-0.341,0.355-0.554,0.81-0.639
		C128.251,139.623,128.406,139.878,128.322,140.304z M126.237,142.899c0.397,0.567,0.297,1.021-0.298,1.361
		c-0.54,0.425-1.007,0.326-1.404-0.298c-0.312-0.511-0.213-0.964,0.298-1.362C125.427,142.29,125.896,142.389,126.237,142.899z
		 M134.235,139.878c-0.908,0.567-1.672,0.397-2.297-0.51c-0.483-0.879-0.255-1.631,0.681-2.255c0.88-0.51,1.602-0.312,2.17,0.596
		C135.299,138.701,135.116,139.425,134.235,139.878z M132.831,141.495c0.568,0.936,0.369,1.688-0.595,2.255
		c-0.937,0.567-1.645,0.383-2.127-0.553c-0.256-0.426-0.34-0.851-0.256-1.277c0.085-0.425,0.327-0.723,0.724-0.894
		C131.485,140.432,132.236,140.587,132.831,141.495z M140.789,161.578c0.396,0.624,0.297,1.091-0.298,1.404
		c-0.51,0.34-0.964,0.198-1.362-0.427c-0.34-0.51-0.241-0.964,0.298-1.361C139.993,160.969,140.447,161.096,140.789,161.578z
		 M139.171,155.366c-0.483,0.396-0.936,0.298-1.361-0.299c-0.198-0.595-0.057-1.049,0.425-1.36c0.567-0.313,1.035-0.213,1.405,0.297
		C139.923,154.685,139.767,155.139,139.171,155.366z M138.575,159.748c-0.652,0.454-1.077,0.341-1.276-0.34
		c-0.341-0.512-0.24-0.979,0.297-1.405c0.596-0.226,1.037-0.07,1.32,0.47C139.371,159.067,139.256,159.493,138.575,159.748z
		 M141.17,165.236c0.625,0.908,0.468,1.659-0.468,2.256c-0.822,0.596-1.559,0.397-2.212-0.597c-0.624-0.936-0.439-1.645,0.553-2.126
		C139.952,164.259,140.661,164.414,141.17,165.236z M141.682,168.981c0.425,0.652,0.326,1.12-0.298,1.405
		c-0.313,0.141-0.581,0.184-0.809,0.127c0.114,0.453-0.085,0.794-0.595,1.021c-0.568,0.228-1.008,0.085-1.321-0.426
		c-0.255-0.567-0.112-1.021,0.426-1.361c0.285-0.198,0.54-0.255,0.766-0.17c-0.027-0.369,0.129-0.666,0.469-0.894
		C140.916,168.4,141.37,168.499,141.682,168.981z M144.447,172.343c0.369,0.624,0.227,1.063-0.425,1.319
		c-0.624,0.425-1.049,0.341-1.275-0.256c-0.342-0.567-0.242-1.021,0.296-1.361C143.64,171.733,144.107,171.832,144.447,172.343z
		 M146.489,177.49c0.284-0.112,0.483-0.069,0.597,0.129c0.197,0.312,0.142,0.566-0.171,0.767c-0.199,0.226-0.397,0.183-0.596-0.128
		C146.122,177.946,146.177,177.689,146.489,177.49z M146.702,180.044c0.284-0.085,0.496-0.042,0.639,0.128
		c0.142,0.227,0.085,0.481-0.171,0.766c-0.283,0.113-0.538,0.057-0.765-0.17C146.319,180.483,146.418,180.243,146.702,180.044z
		 M143.597,178.215c-0.142-0.284-0.044-0.525,0.297-0.725c0.283-0.227,0.467-0.142,0.552,0.256c0.199,0.313,0.157,0.524-0.127,0.64
		C144.036,178.471,143.794,178.413,143.597,178.215z M149.127,179.916c0.17,0.312,0.127,0.511-0.127,0.596
		c-0.284,0.142-0.539,0.085-0.766-0.171c-0.029-0.254,0.027-0.495,0.169-0.723C148.687,179.505,148.929,179.604,149.127,179.916z
		 M148.149,177.577c0.142,0.112,0.185,0.255,0.128,0.425c0,0.085-0.086,0.156-0.256,0.213c-0.226,0.227-0.439,0.184-0.639-0.128
		c-0.197-0.312-0.141-0.554,0.17-0.723C147.865,177.165,148.064,177.235,148.149,177.577z M167.083,185.021
		c0.284,0.228,0.325,0.454,0.127,0.682c-0.085,0.425-0.312,0.468-0.68,0.127c-0.284-0.254-0.327-0.482-0.128-0.681
		C166.629,184.838,166.856,184.796,167.083,185.021z M167.593,181.447c0.059-0.341,0.285-0.368,0.682-0.084
		c0.283,0.197,0.326,0.411,0.128,0.639c-0.255,0.312-0.496,0.354-0.724,0.126C167.396,181.873,167.367,181.646,167.593,181.447z
		 M169.891,184.725c0.426,0.084,0.468,0.297,0.129,0.639c-0.228,0.311-0.454,0.354-0.681,0.128
		c-0.313-0.227-0.355-0.455-0.129-0.683C169.465,184.497,169.692,184.47,169.891,184.725z M169.296,183.789
		c0.424,0.083,0.482,0.312,0.169,0.681c-0.255,0.283-0.496,0.326-0.723,0.126c-0.312-0.254-0.34-0.481-0.085-0.681
		C168.855,183.604,169.067,183.561,169.296,183.789z M134.193,144.856c-0.482,0.426-0.949,0.326-1.403-0.298
		c-0.284-0.511-0.185-0.979,0.296-1.403c0.625-0.313,1.093-0.213,1.404,0.297C134.831,144.048,134.732,144.516,134.193,144.856z
		 M134.065,147.325c-0.68,0.34-1.134,0.24-1.361-0.298c-0.312-0.51-0.212-0.978,0.298-1.404c0.595-0.312,1.049-0.213,1.361,0.297
		C134.789,146.516,134.689,146.984,134.065,147.325z M137.683,147.792c-0.652,0.482-1.206,0.369-1.66-0.34
		c-0.396-0.625-0.284-1.178,0.34-1.66c0.709-0.482,1.306-0.354,1.787,0.383C138.49,146.941,138.334,147.48,137.683,147.792z
		 M137.427,144.601c-0.511,0.425-0.979,0.326-1.404-0.297c-0.313-0.511-0.212-0.965,0.297-1.361
		c0.625-0.341,1.092-0.242,1.404,0.297C138.121,143.807,138.023,144.261,137.427,144.601z M132.534,147.877
		c0.481,0.709,0.368,1.263-0.341,1.66c-0.708,0.425-1.262,0.312-1.659-0.341c-0.481-0.738-0.354-1.333,0.383-1.787
		C131.683,147.069,132.221,147.225,132.534,147.877z M132.15,150.813c0.597-0.284,1.064-0.185,1.404,0.297
		c0.313,0.512,0.17,0.965-0.424,1.362c-0.624,0.369-1.093,0.227-1.405-0.426C131.499,151.479,131.64,151.068,132.15,150.813z
		 M130.662,151.706c0.51,0.993,0.355,1.745-0.468,2.256c-0.908,0.596-1.66,0.439-2.256-0.468c-0.538-0.879-0.34-1.632,0.596-2.255
		c0.424-0.256,0.836-0.341,1.234-0.256C130.194,151.068,130.491,151.31,130.662,151.706z M135.768,151.025
		c-0.596-0.879-0.439-1.616,0.468-2.212c0.906-0.51,1.673-0.312,2.297,0.596c0.51,0.822,0.297,1.518-0.638,2.085
		C137.015,152.09,136.306,151.934,135.768,151.025z M135.597,153.238c0.396,0.624,0.241,1.177-0.468,1.659
		c-0.651,0.454-1.22,0.341-1.701-0.34c-0.426-0.709-0.298-1.305,0.382-1.787C134.519,152.373,135.116,152.529,135.597,153.238z
		 M128.79,146.856c0.596-0.312,1.05-0.212,1.361,0.298c0.256,0.539,0.114,0.979-0.426,1.319c-0.483,0.425-0.936,0.327-1.361-0.298
		C128.138,147.608,128.278,147.168,128.79,146.856z M122.791,146.729c-0.652,0.482-1.192,0.369-1.618-0.34
		c-0.482-0.71-0.368-1.291,0.341-1.745c0.68-0.397,1.249-0.227,1.703,0.51C123.641,145.75,123.5,146.274,122.791,146.729z
		 M123.129,152.558c-0.112-0.085-0.283-0.155-0.51-0.213c0.113-0.085,0.185-0.227,0.213-0.426c-0.057-0.453-0.297-0.737-0.723-0.851
		c-0.114,0.028-0.184,0.057-0.213,0.086c0.057-0.114,0.155-0.228,0.297-0.341c0.568-0.313,1.022-0.213,1.361,0.297
		c0.397,0.624,0.298,1.078-0.297,1.362C123.229,152.501,123.188,152.529,123.129,152.558z M124.917,150.218
		c0.681-0.397,1.263-0.227,1.745,0.51c0.369,0.794,0.227,1.319-0.426,1.575c-0.739,0.481-1.291,0.368-1.659-0.341
		C124.095,151.281,124.208,150.7,124.917,150.218z M126.406,153.707c0.312,0.453,0.34,0.836,0.085,1.149
		c-0.142-0.086-0.27-0.144-0.384-0.172c-0.481,0.028-0.709,0.213-0.681,0.554c-0.056-0.028-0.099-0.057-0.126-0.086
		c-0.114-0.141-0.271-0.226-0.469-0.255c-0.028-0.057-0.042-0.099-0.042-0.127c-0.34-0.511-0.256-0.965,0.255-1.362
		C125.641,153.097,126.095,153.196,126.406,153.707z M121.514,149.622c-0.596,0.397-1.063,0.255-1.405-0.426
		c-0.368-0.624-0.268-1.049,0.298-1.276c0.624-0.283,1.092-0.185,1.404,0.297C122.181,148.842,122.082,149.31,121.514,149.622z
		 M126.619,147.962c0.369,0.568,0.27,1.036-0.298,1.404c-0.538,0.368-1.006,0.27-1.403-0.298c-0.34-0.539-0.241-1.007,0.297-1.404
		C125.811,147.325,126.279,147.424,126.619,147.962z M126.321,157.876c-0.056,0-0.099,0-0.127,0
		c-0.397-0.085-0.652,0.071-0.766,0.469c-0.142-0.228-0.367-0.369-0.68-0.427c-0.169,0-0.312,0.029-0.426,0.085
		c-0.027-0.312,0.114-0.595,0.426-0.85c0.625-0.228,1.093-0.1,1.404,0.383C126.208,157.678,126.265,157.791,126.321,157.876z
		 M129.087,159.748c0.028-0.085,0.043-0.156,0.043-0.212c0.623-0.341,1.077-0.242,1.361,0.297c0.426,0.597,0.34,1.036-0.255,1.319
		c-0.511,0.454-0.965,0.354-1.362-0.298c-0.142-0.171-0.213-0.341-0.213-0.51C128.917,160.23,129.059,160.032,129.087,159.748z
		 M126.832,161.152c0.426,0.086,0.723,0.028,0.894-0.17c0.057,0.312-0.113,0.552-0.51,0.723c-0.256,0.228-0.498,0.313-0.724,0.256
		c-0.142-0.028-0.284-0.113-0.426-0.256c0.057-0.198,0.085-0.425,0.085-0.681v-0.042
		C126.35,161.124,126.577,161.181,126.832,161.152z M125.682,159.067c0.143,0.085,0.313,0.156,0.511,0.213
		c0.171-0.028,0.284-0.07,0.341-0.128l0.043,0.043c-0.312,0.057-0.54,0.298-0.682,0.723c-0.084-0.142-0.197-0.212-0.339-0.212
		C125.641,159.536,125.682,159.323,125.682,159.067z M135.427,155.877c0.396,0.595,0.297,1.049-0.298,1.36
		c-0.511,0.397-0.965,0.299-1.362-0.297c-0.338-0.482-0.24-0.937,0.298-1.362C134.633,155.238,135.087,155.338,135.427,155.877z
		 M132.236,158.601c-0.625,0.368-1.051,0.283-1.277-0.256c-0.312-0.511-0.213-0.979,0.298-1.404
		c0.595-0.283,1.064-0.185,1.403,0.297C133.031,157.834,132.888,158.288,132.236,158.601z M132.661,155.366
		c-0.539,0.453-1.006,0.354-1.403-0.299c-0.397-0.595-0.256-1.021,0.425-1.276c0.567-0.34,1.021-0.255,1.362,0.256
		C133.271,154.614,133.145,155.054,132.661,155.366z M132.278,163.28c-0.454-0.964-0.255-1.646,0.595-2.042
		c0.908-0.625,1.646-0.47,2.214,0.467c0.51,0.908,0.325,1.646-0.553,2.214c-0.426,0.255-0.823,0.34-1.193,0.255
		c0.256,0.596,0.101,1.049-0.468,1.361c-0.652,0.481-1.218,0.368-1.701-0.34c-0.426-0.682-0.297-1.263,0.384-1.746
		C131.811,163.337,132.052,163.28,132.278,163.28z M136.916,166.812c-0.596,0.397-1.049,0.255-1.361-0.426
		c-0.397-0.625-0.313-1.049,0.255-1.276c0.567-0.284,1.036-0.185,1.404,0.298C137.611,166.002,137.511,166.471,136.916,166.812z
		 M168.231,186.426c0.285,0.257,0.326,0.496,0.127,0.724c-0.255,0.312-0.495,0.34-0.722,0.084c-0.313-0.227-0.341-0.438-0.086-0.637
		C167.777,186.284,168.005,186.229,168.231,186.426z"/>
</g>
</svg>
