<?xml version="1.0" encoding="utf-8"?>
<!-- Generator: Adobe Illustrator 16.0.0, SVG Export Plug-In . SVG Version: 6.00 Build 0)  -->
<!DOCTYPE svg PUBLIC "-//W3C//DTD SVG 1.1//EN" "http://www.w3.org/Graphics/SVG/1.1/DTD/svg11.dtd">
<svg version="1.1" id="Layer_1" xmlns="http://www.w3.org/2000/svg" xmlns:xlink="http://www.w3.org/1999/xlink" x="0px" y="0px"
	 width="300px" height="300px" viewBox="0 0 300 300" enable-background="new 0 0 300 300" xml:space="preserve">
<g>
	<path fill-rule="evenodd" clip-rule="evenodd" fill="#9A1C1F" d="M55.171,49.355l5.085,3.588
		c3.389,2.392,10.051,7.173,19.984,14.343c9.992,7.232,15.719,11.401,17.178,12.511c0.761,0.583,1.404,1.515,1.93,2.796
		c0.524,1.285,1.081,3.326,1.665,6.125c0.467,2.099,0.789,3.879,0.964,5.336c0.233,1.458,0.262,2.187,0.087,2.187
		c-0.408,0-6.194-4.141-17.354-12.42c-3.683-2.797-6.689-5.015-9.028-6.647c-2.337-1.749-3.974-2.916-4.908-3.5l-6.486-4.724
		c-0.644-0.582-1.404-1.195-2.28-1.835c-1.928-1.515-3.39-2.507-4.382-2.975l-10.079-7.436c-1.229-1.226-3.448-2.914-6.661-5.073
		c-0.586-0.408-1.111-0.758-1.58-1.051l-8.414-6.122c0.117-0.408-0.028-0.729-0.439-0.962c-0.292-0.234-0.702-0.352-1.228-0.352
		l-1.665-1.225c0-0.057-0.03-0.116-0.088-0.173c-0.116-0.292-0.672-0.817-1.665-1.576c-1.578-1.284-2.279-2.449-2.104-3.499
		c0.233-1.108,1.198-1.43,2.892-0.961c0.76,0.174,1.372,0.174,1.842,0c0.408-0.176,0.787-0.584,1.14-1.227
		c0.641-1.164,1.374-1.691,2.191-1.573c0.76,0.175,2.337,1.106,4.733,2.8c1.636,1.225,2.775,2.242,3.418,3.06
		c0.584,0.876,0.994,1.984,1.227,3.326c0.233,1.457,0.555,2.447,0.964,2.974c0.411,0.525,1.226,0.992,2.453,1.4
		c1.229,0.349,2.076,0.786,2.543,1.312c0.409,0.524,0.73,1.456,0.963,2.797c0.352,1.809,0.849,3.004,1.491,3.585
		c0.526,0.526,1.43,0.817,2.718,0.875c0.174,0,0.379,0,0.612,0c1.053,0,1.636-0.143,1.753-0.437
		c0.233-0.349,0.265-1.254,0.088-2.712l-0.35-3.147L55.171,49.355z M59.73,115.136c0,0.232,0.38,0.64,1.139,1.226
		c0.759,0.641,1.666,1.25,2.718,1.835c1.053,0.641,2.015,1.342,2.893,2.102c0.815,0.756,1.313,1.368,1.489,1.836
		c0.176,0.582,0.467,0.96,0.878,1.136c0.348,0.232,0.875,0.232,1.577,0c1.52-0.348,2.776,0.232,3.768,1.749
		c0.175,0.291,0.351,0.643,0.526,1.051c0.76,1.574,1.404,3.876,1.928,6.91c0.06,0.524,0.147,0.99,0.264,1.398l-48.033,9.448
		c-0.35,0-0.848,0.058-1.489,0.174c-1.52,0.352-4.5,0.875-8.941,1.575c-2.98,0.463-4.791,0.874-5.434,1.221
		c-0.176,0.062-0.321,0.149-0.438,0.267l-9.38,1.836c-0.057-0.237-0.116-0.468-0.173-0.7c-0.937-3.791-1.227-6.153-0.877-7.087
		c0.351-0.99,1.87-1.953,4.558-2.884c1.053-0.411,1.724-0.819,2.017-1.226c0.174-0.35,0.174-1.079,0-2.187
		c-0.233-1.05-0.264-1.719-0.088-2.013c0.177-0.292,0.673-0.439,1.491-0.439c2.454-0.057,4.79-1.105,7.012-3.147
		c0.935-0.932,1.811-1.983,2.63-3.147c0.935-1.46,1.693-3.122,2.276-4.988c0.119-0.232,1.843-0.699,5.172-1.401
		c3.272-0.757,7.247-1.513,11.921-2.273c2.921-0.524,5.492-0.962,7.714-1.312c4.908-0.815,8.122-1.313,9.642-1.485
		C58.591,114.378,59.672,114.552,59.73,115.136z M77.436,111.724l6.397-1.311c0.176,0.173,0.439,0.173,0.79,0
		c0.934-0.352,6.573-1.373,16.917-3.063c0.525-0.116,1.052-0.201,1.577-0.264c9.231-1.515,14.2-2.388,14.9-2.624
		c0.584-0.233,0.293-2.97-0.876-8.221c-0.06-0.175-0.116-0.348-0.176-0.525c-0.993-4.139-3.447-14.987-7.361-32.538
		c-1.462-6.589-2.777-12.276-3.945-17.056c-1.169-4.784-1.87-7.263-2.103-7.436c-0.702-0.41-1.375-3.733-2.016-9.973
		c-0.234-2.333-0.673-4.724-1.315-7.173c-0.525-1.924-0.7-3.353-0.525-4.285c0-0.115,0.03-0.235,0.087-0.351
		c0.117-0.351,0.262-0.612,0.438-0.788c0.467-0.407,1.111-0.609,1.93-0.609c0.934,0,1.547-0.323,1.839-0.964
		c0.292-0.583,0.613-2.332,0.964-5.249c0.41-2.972,0.79-4.78,1.14-5.424c0.291-0.64,1.051-1.077,2.278-1.311
		c2.164-0.467,3.478-0.64,3.944-0.523c0.526,0.056,0.79,0.551,0.79,1.487c0,0.64,0.174,1.077,0.523,1.31
		c0.294,0.234,0.819,0.351,1.577,0.351c1.346,0,2.223,0.407,2.632,1.226c0.409,0.815,0.816,3.002,1.227,6.56
		c0.116,1.225,0.205,2.273,0.264,3.147c0,0.702,0,1.255,0,1.664c-0.059,0.875-0.322,1.398-0.789,1.574
		c-0.292,0.116-0.556,0.411-0.789,0.875c-0.234,0.409-0.352,0.848-0.352,1.312c0,0.583-0.086,0.991-0.262,1.226
		c-0.116,0.175-0.32,0.201-0.614,0.086c-0.7-0.464-0.818,0.582-0.351,3.149c0.234,1.575,0.263,2.742,0.088,3.499
		c-0.176,0.76-0.644,1.633-1.401,2.625c-0.527,0.639-1.082,1.167-1.667,1.574c-0.642,0.467-1.11,0.698-1.4,0.698
		c-0.293,0-0.614,0.118-0.966,0.351c-0.409,0.173-0.671,0.41-0.788,0.7c-0.409,0.584-0.292,0.7,0.35,0.35
		c0.585-0.35,2.719-0.64,6.399-0.877c2.571-0.115,5.377-0.347,8.415-0.698c1.518-0.175,3.098-0.377,4.733-0.613l9.29-1.137
		c1.344-0.175,2.688,2.161,4.031,7c1.344,4.838,2.045,9.94,2.104,15.308c0,3.907-0.087,6.444-0.262,7.608
		c-0.235,1.226-0.762,2.273-1.579,3.149c-1.17,1.284-2.046,2.859-2.629,4.724c-0.702,1.866-0.731,3.005-0.088,3.411
		c0.526,0.352,2.658,0.673,6.398,0.963c1.461,0.115,2.833,0.291,4.12,0.523c1.167,0.294,1.868,0.585,2.103,0.874
		c0.526,0.586,1.783,4.171,3.769,10.762l2.981,9.885h2.892c2.046-0.062,4.997-0.323,8.854-0.787l5.871-0.702l4.47,4.725
		c2.28,2.331,3.857,3.733,4.733,4.201c0.936,0.464,3.013,0.845,6.224,1.133c3.974,0.352,7.276,0.847,9.905,1.49
		c1.752,0.465,3.74,1.427,5.96,2.885c0.468,0.29,0.877,0.553,1.227,0.788c0.936,0.759,1.461,1.311,1.578,1.663
		c0,0.116-0.028,0.232-0.088,0.35c-0.292,0.233-7.685,1.602-22.175,4.109c-5.843,0.992-10.957,1.896-15.341,2.711
		c-4.322,0.818-6.544,1.285-6.658,1.401c-0.118,0.174,0.963,4.314,3.24,12.42c2.396,8.282,5.113,17.347,8.153,27.203
		c2.22,7.291,4.179,13.881,5.872,19.771l10.518,35.251c2.514,8.396,4.296,14.724,5.347,18.982c1.053,4.257,1.666,7.727,1.841,10.409
		c0.233,3.323,0.176,5.48-0.175,6.472c-0.058,0.176-0.118,0.321-0.176,0.438c-0.585,0.697-2.513,1.049-5.786,1.049
		c-2.102,0-3.445,0.467-4.031,1.398c-0.351,0.643-0.759,0.965-1.228,0.965c-0.525,0-1.753-0.322-3.682-0.965
		c-1.108-0.405-2.335-0.728-3.68-0.96c-1.344-0.293-2.395-0.438-3.155-0.438c-1.754,0-4.617,0.875-8.59,2.625
		c-4.031,1.806-6.808,3.438-8.327,4.897c-1.052,0.934-1.666,1.78-1.84,2.537c-0.177,0.7-0.177,2.07,0,4.111
		c0.234,2.04,0.261,3.354,0.086,3.936c-0.174,0.64-0.669,1.167-1.489,1.575c-0.524,0.289-0.964,0.729-1.314,1.312
		c-0.291,0.523-0.439,1.137-0.439,1.836c0,0.06,0,0.118,0,0.175c-0.057,0.76-0.232,1.255-0.523,1.488
		c-0.294,0.29-0.966,0.437-2.017,0.437c-1.111,0-1.813-0.202-2.104-0.611c-0.233-0.292-0.41-0.816-0.526-1.575
		c-0.176-0.468-0.292-1.078-0.351-1.835c-0.408-2.918-0.555-5.278-0.439-7.088c0.059-1.747,0.323-2.623,0.79-2.623
		c0.233,0,0.438-0.144,0.614-0.437c0.174-0.233,0.263-0.554,0.263-0.962c0-1.283-1.373-7.609-4.12-18.981
		c-1.929-8.281-3.272-13.618-4.032-16.009c-0.234-0.7-0.379-1.138-0.438-1.311c-0.06-0.06-0.089-0.119-0.089-0.177
		c-0.234-0.116-0.467-0.729-0.699-1.838c-0.118-0.462-0.205-0.931-0.264-1.398c-0.177-0.757-0.292-1.517-0.353-2.274
		c-0.35-3.381-2.073-11.867-5.17-25.453l-2.28-10.061l-4.028-18.278c-1.113-5.309-1.843-8.43-2.193-9.362
		c-0.175-0.524,0.029-0.991,0.613-1.398c0.644-0.41,1.842-0.933,3.594-1.575c1.344-0.468,2.601-0.99,3.769-1.573
		c1.229-0.643,2.017-1.198,2.368-1.664c0.467-0.407,0.993-0.759,1.576-1.047c0.584-0.352,1.081-0.527,1.49-0.527
		c0.701,0,1.14-0.232,1.315-0.699c0.176-0.408,0.233-1.37,0.176-2.888c-0.06-2.446-0.294-4.4-0.701-5.859l-0.615-2.1l-0.613,1.925
		c-0.409,1.224-1.052,2.275-1.928,3.151c-0.525,0.524-1.14,0.581-1.84,0.173c-0.76-0.407-2.191-1.664-4.297-3.76
		c-3.447-3.382-5.667-5.308-6.659-5.775c-0.644-0.349-1.17-0.99-1.58-1.921c-0.35-0.992-0.671-2.595-0.963-4.812
		c-0.352-2.799-0.672-4.459-0.963-4.986c-0.06-0.116-0.176-0.233-0.352-0.349c-0.353-0.178-0.877-0.178-1.578,0
		c-0.584,0.174-1.403,0.552-2.455,1.135c-1.11,0.643-2.104,1.312-2.979,2.014c-0.643,0.523-1.2,0.962-1.667,1.313
		c-0.935,0.523-1.725,0.843-2.367,0.962c-0.934,0.058-2.861-0.263-5.784-0.962c-0.292-0.06-0.555-0.117-0.789-0.175
		c-0.875-0.233-1.431-0.292-1.664-0.175c-0.117,0.058-0.175,0.175-0.175,0.351c0,0.174,0.028,0.377,0.087,0.61
		c1.109,2.857-0.087,3.908-3.595,3.15c-2.161-0.466-4.353-0.875-6.573-1.224l-3.154-0.615v3.062c0,0.818-0.09,1.547-0.264,2.187
		c-0.118,0.585-0.263,0.875-0.439,0.875c-0.525,0-1.928-1.225-4.208-3.673c-1.634-1.692-2.687-3.091-3.154-4.199
		c-0.058-0.058-0.087-0.117-0.087-0.174c-0.467-1.166-0.937-3.297-1.403-6.389c-0.468-3.204-0.848-5.188-1.14-5.944
		c-0.351-0.761-0.964-1.14-1.84-1.14C78.925,112.598,78.078,112.307,77.436,111.724z M297.438,199.983l0.526,0.438
		c-0.059,1.225-0.146,2.652-0.262,4.287l-0.526,9.008l-3.594,1.313c-1.637,0.582-2.66,1.107-3.069,1.573
		c-0.35,0.468-0.612,1.399-0.788,2.8c-0.118,1.342-0.293,2.216-0.526,2.625c-0.293,0.347-0.876,0.523-1.752,0.523
		c-1.229,0-3.215,0.699-5.96,2.102c-1.753,0.873-3.244,1.749-4.472,2.623c-0.7,0.523-1.313,1.018-1.84,1.487l-1.928,1.835v-2.011
		v-4.986c0-3.438,0.088-5.454,0.263-6.036c0.234-0.643,0.935-1.019,2.104-1.136c1.578-0.175,2.278-0.7,2.103-1.575
		c-0.115-0.352-0.115-0.582,0-0.699c0.061-0.116,0.176-0.089,0.353,0.087c0.174,0.235,0.35,0.758,0.526,1.574
		c0.175,0.759,0.262,1.607,0.262,2.537c0.059,2.216-0.06,3.207-0.35,2.976c-0.118-0.119-0.323-0.146-0.615-0.09
		c-0.291,0.117-0.613,0.321-0.964,0.613c-0.41,0.351-0.7,0.522-0.877,0.522c-0.116,0-0.175-0.172-0.175-0.522
		c0-0.292,0.088-0.523,0.264-0.698c0.232-0.234,0.495-0.352,0.788-0.352c0.701,0,0.614-0.291-0.263-0.875
		c-0.525-0.407-0.789-0.64-0.789-0.701c0.059-0.056,0.409,0.031,1.052,0.264c0.875,0.291,1.344,0.205,1.401-0.264
		c0.06-0.521-0.351-0.93-1.226-1.224c-0.76-0.292-1.197-0.232-1.313,0.176c-0.118,0.35-0.265,1.895-0.44,4.636
		c-0.059,1.106-0.028,2.042,0.089,2.8c0.058,0.816,0.203,1.225,0.438,1.225s0.409-0.089,0.525-0.262
		c0.176-0.175,0.264-0.379,0.264-0.614c0-0.231,0.146-0.407,0.438-0.524c0.232-0.174,0.525-0.263,0.875-0.263
		c0.818,0,1.025-0.494,0.616-1.488c-0.294-0.873-0.149-1.136,0.438-0.785c0.584,0.349,0.847-1.515,0.789-5.6l-0.088-6.21
		l-63.022-45.486c-3.155-2.214-6.776-4.781-10.865-7.694c-4.21-3.034-6.431-4.668-6.664-4.9c-0.234-0.348-1.725-1.459-4.471-3.324
		c-1.869-1.283-3.126-2.451-3.769-3.499c-0.645-1.051-1.606-3.615-2.893-7.698c-1.754-5.657-2.629-8.688-2.629-9.097
		c0-0.349,1.812,0.729,5.435,3.237l16.565,11.723c4.09,2.856,10.108,7.114,18.056,12.769c4.616,3.324,8.619,6.184,12.007,8.572
		l53.293,37.612L297.438,199.983z M107.676,163.158c0.058-0.466,0.176-0.701,0.35-0.701c0.703,0,1.432,0.555,2.192,1.664
		c0.818,1.106,1.227,2.157,1.227,3.147c0,0.875-0.117,1.397-0.351,1.577c-0.175,0.114-0.613-0.06-1.315-0.528
		c-0.467-0.289-0.904-0.757-1.314-1.399c-0.41-0.697-0.643-1.37-0.701-2.009C107.645,164.207,107.616,163.624,107.676,163.158z
		 M115.476,162.021c0.233,0.409,0.613,1.836,1.141,4.287c0.643,3.147,1.344,4.725,2.103,4.725c0.586,0,1.024,0.553,1.314,1.66
		c0.293,0.99,0.645,2.915,1.052,5.775c0.06,0.466,0.117,0.93,0.176,1.397l0.525,4.111l-3.854,1.66
		c-0.177,0.061-0.323,0.116-0.439,0.177c-0.876,0.408-1.665,0.845-2.366,1.312c-0.761,0.583-1.138,1.08-1.138,1.488
		c0,0.35-0.149,0.64-0.44,0.874c-0.292,0.174-0.645,0.262-1.052,0.262c-1.11-0.06-2.25,0.118-3.42,0.527
		c-1.284,0.466-1.928,0.493-1.928,0.085c0-0.291-0.321-2.421-0.964-6.385c-0.466-2.857-0.614-4.724-0.437-5.599
		c0.115-0.815,0.815-2.157,2.104-4.024c0.642-0.988,1.401-2.039,2.278-3.148c0.875-1.049,1.576-1.807,2.103-2.272
		c0.468-0.468,0.878-1.052,1.227-1.751c0.352-0.816,0.529-1.517,0.529-2.1c0-1.634,0.203-2.595,0.611-2.886
		C115.01,161.67,115.302,161.613,115.476,162.021z M99.525,205.146l1.752-0.964c0.526-0.06,0.963,0.089,1.315,0.437
		c0.584,0.643,1.693,0.205,3.331-1.312c1.693-1.458,2.6-2.186,2.716-2.186c0.176,0-1.052,2.478-3.681,7.436
		c-1.696,3.031-2.747,5.131-3.155,6.297c-0.409,1.166-0.409,2.13,0,2.888c0,0.056,0.03,0.117,0.087,0.175l-4.295,8.746
		c-0.352-0.816-0.7-1.339-1.05-1.573c-0.235-0.177-0.527-0.965-0.878-2.363c-0.35-1.457-0.643-3.091-0.876-4.897l-0.964-6.648
		l2.718-2.361c0.818-0.583,1.489-1.198,2.014-1.838c0.527-0.642,0.791-1.078,0.791-1.312S99.407,205.261,99.525,205.146z
		 M140.544,225c-0.175,0.643-0.555,0.962-1.139,0.962c-0.176,0-0.352-0.028-0.525-0.088L140.544,225z M290.777,206.368
		c-0.117,0.409-0.146,1.079-0.087,2.013c0,0.989,0.028,1.632,0.087,1.925c0.059,0.291,0.146,0.146,0.263-0.439
		c0.235-1.341,0.235-2.477,0-3.409C290.923,206.051,290.836,206.02,290.777,206.368z"/>
	<path fill-rule="evenodd" clip-rule="evenodd" fill="#151344" d="M86.026,19.965c0.875-0.175,1.314-0.146,1.314,0.087
		c4.442,22.625,6.865,34.785,7.273,36.479c0.06,0.289-0.029,0.438-0.262,0.438c-0.41,0-1.255-0.381-2.543-1.141
		c-2.102-1.163-6.077-3.79-11.919-7.872c-4.09-2.856-7.771-5.307-11.043-7.347c-3.216-1.982-4.968-2.944-5.26-2.887
		c-0.702,0.117-1.111-0.146-1.227-0.786c-0.059-0.411,0-1.196,0.175-2.362c0.058-0.583,0.175-1.283,0.35-2.102
		c0.235-1.339,0.526-2.212,0.878-2.624c0.292-0.406,0.847-0.612,1.665-0.612c0.761,0,1.285-0.116,1.577-0.349
		c0.353-0.234,0.526-0.699,0.526-1.4c0-1.164,0.468-2.77,1.402-4.812c0.701-1.457,1.315-2.303,1.842-2.535
		c0.467-0.292,1.693-0.322,3.68-0.089c1.112,0.118,2.191,0.148,3.244,0.089c1.051-0.058,1.723-0.205,2.016-0.437
		c0.758-0.467,1.46-0.701,2.103-0.701c0.761,0,1.257,0.263,1.489,0.786c0.059,0.059,0.117,0.117,0.177,0.175
		c0.174,0.118,0.409,0.206,0.701,0.263c0.467,0.058,0.935,0,1.403-0.175C85.705,20.053,85.85,20.022,86.026,19.965z M65.691,113.998
		l6.397-1.225c-0.175,0.873-0.263,1.604-0.263,2.188c0,1.339-0.73,2.333-2.191,2.973c-1.345,0.642-2.221,0.732-2.63,0.264
		C66.596,117.79,66.158,116.389,65.691,113.998z M65.866,105.865c0.021-0.023,0.053-0.052,0.088-0.091l2.015-0.783h-1.928
		c-0.937-0.063-1.462-0.293-1.578-0.702c-0.175-0.468-0.146-1.633,0.088-3.499l0.524-4.111l-2.367,3.937
		c-1.519,2.447-2.689,4.168-3.505,5.158c-0.293,0.411-0.558,0.905-0.79,1.49l-4.382,0.787l-1.665,1.923
		c-0.235-0.116-0.439-0.201-0.615-0.264c-0.818-0.232-1.256-0.437-1.314-0.609c-0.118-0.235-0.322-0.291-0.613-0.173
		c-0.292,0.112-0.614,0.346-0.965,0.697c-0.351,0.349-0.73,0.614-1.139,0.788c-0.35,0.173-0.643,0.203-0.876,0.085
		c-0.176-0.116-0.439-0.961-0.79-2.537c-0.349-1.516-0.7-3.263-1.051-5.248c-0.352-2.797-0.555-4.868-0.614-6.211
		c0-1.283,0.174-2.216,0.526-2.796c0.409-0.702,0.555-2.16,0.438-4.375c-0.119-2.215-0.379-3.326-0.791-3.326
		c-0.291,0-1.255,0.438-2.892,1.313l-2.542,1.226l-1.753-9.708c-0.349-1.46-0.438-2.508-0.263-3.151
		c0.176-0.643,0.702-1.401,1.58-2.276c0.583-0.58,1.167-1.018,1.751-1.311c0.644-0.29,1.082-0.376,1.315-0.259
		c0.526,0.347,0.73-0.031,0.613-1.138c-0.174-1.109-0.817-4.024-1.928-8.748c-0.058-0.351-0.115-0.671-0.175-0.962l0.964,0.699
		c0.059,0.06,0.117,0.116,0.177,0.175c0.115,0.174,0.29,0.292,0.524,0.352l4.646,3.411c0.351,1.806,0.613,2.828,0.79,3.06
		c0.233,0.175,0.35-0.437,0.35-1.838c0-0.117,0-0.233,0-0.349l35.323,25.805c0.058,0.699,0.118,1.69,0.175,2.972
		c0.059,2.159,0.087,4.464,0.087,6.911c0,0.116,0,0.264,0,0.437L65.866,105.865z M85.5,94.143l1.228,0.875
		c0.059,0.348,0.116,0.698,0.175,1.048c0.234,1.983,0.498,3.88,0.789,5.687c0.058,0.349,0.116,0.671,0.175,0.961
		c0.174,0.702,0.233,1.254,0.174,1.664c-0.057,0.408-0.174,0.524-0.35,0.349c-0.174-0.172-0.439-0.934-0.789-2.273
		c0-0.178-0.031-0.352-0.087-0.524c-0.292-1.168-0.555-2.452-0.788-3.849C85.792,96.563,85.616,95.25,85.5,94.143z M94.176,100.527
		c-0.408,0.062-0.876,0.146-1.4,0.264c-2.105,0.35-3.333,0.377-3.683,0.086c-0.235-0.173,0.146-0.99,1.139-2.449
		c0.118-0.175,0.234-0.348,0.352-0.527c0.525-0.696,0.904-1.077,1.139-1.133c0.351-0.061,1.022,0.259,2.016,0.96
		c1.461,0.932,2.19,1.604,2.19,2.014C95.929,99.974,95.347,100.237,94.176,100.527z M30.806,54.081l8.326,6.036
		c0.526,2.741,0.965,4.84,1.315,6.296c0.175,0.584,0.147,0.994-0.086,1.225c-0.235,0.176-0.76,0.265-1.577,0.265
		c-1.344,0-2.34-0.41-2.982-1.226c-0.585-0.875-1.051-2.537-1.4-4.986c-0.41-2.74-0.965-4.112-1.667-4.112
		C32.033,57.578,31.389,56.415,30.806,54.081z M42.99,74.636c-0.06,0.234-0.029,0.7,0.088,1.397c0.232,1.812,0.35,2.976,0.35,3.5
		c0,0.757,0.555,0.994,1.666,0.702c1.11-0.292,1.665-0.846,1.665-1.663c0.057-0.877-0.467-1.458-1.577-1.751
		c-0.467-0.116-0.906-0.349-1.316-0.698c-0.408-0.41-0.671-0.816-0.787-1.224C43.019,74.489,42.99,74.403,42.99,74.636z
		 M34.486,76.649c0.292-0.058,0.614,0.378,0.965,1.311c0.408,0.934,0.759,2.1,1.052,3.5c0.701,3.556,1.168,5.684,1.402,6.382
		c0.234,0.819-0.497,1.898-2.191,3.24c-1.636,1.338-2.63,1.689-2.98,1.048c-0.235-0.408-0.818-2.655-1.752-6.734
		c-0.877-4.084-1.315-6.445-1.315-7.086c0-0.232,0.174-0.465,0.525-0.699c0.352-0.234,0.819-0.38,1.403-0.438L34.486,76.649z
		 M25.546,50.144l3.504,2.625c0.235,1.167,0.439,2.302,0.616,3.411c0.292,2.1,0.321,3.148,0.086,3.148
		c-0.934,0-1.898-1.342-2.893-4.023C26.16,53.496,25.722,51.777,25.546,50.144z M17.92,50.144c2.514-0.935,4.063-1.048,4.648-0.352
		c0.583,0.644,1.372,3.527,2.364,8.662c0.819,4.256,0.936,6.735,0.351,7.436c-0.233,0.29-0.467,1.048-0.701,2.271
		c-0.177,1.285-0.262,2.654-0.262,4.114c-0.06,2.564-0.175,4.053-0.351,4.461c-0.235,0.466-0.848,0.609-1.84,0.437
		c-0.818-0.176-1.316-0.176-1.492,0c-0.234,0.116-0.234,0.495,0,1.137c0.234,0.99-0.262,1.954-1.489,2.886
		c-0.994,0.701-1.608,0.934-1.84,0.701c-0.235-0.233-0.585-1.369-1.053-3.411c-1.051-4.665-1.606-7.495-1.666-8.484
		c-0.058-1.052,0.381-2.013,1.315-2.887c0.467-0.467,0.79-0.904,0.965-1.313s0.175-0.672,0-0.789
		c-0.467-0.288-1.052-2.476-1.752-6.559c-0.76-4.083-0.936-6.297-0.528-6.647C14.942,51.396,16.051,50.844,17.92,50.144z
		 M271.582,229.11l-0.262,2.887h-6.224c-3.331,0-7.013,0.526-11.044,1.577c-4.09,0.989-7.393,2.244-9.903,3.76
		c-0.819,0.408-1.813,0.759-2.981,1.051c-1.17,0.348-2.193,0.496-3.068,0.437c-3.271-0.118-6.398,0.088-9.378,0.613
		c-3.04,0.522-5.347,1.313-6.925,2.36c-2.222,1.401-4.149,2.274-5.786,2.623c-4.676,1.11-7.362,1.869-8.063,2.275
		c-0.76,0.35-1.022,1.224-0.789,2.624c0.058,0.349,0.088,0.7,0.088,1.052c0,0.407-0.03,0.699-0.088,0.875
		c-0.175,0.349-0.555,0.522-1.141,0.522c-0.584,0-0.993-0.319-1.227-0.961c-0.059-0.06-0.088-0.116-0.088-0.177
		c-0.174-0.698-0.35-2.332-0.526-4.899c-0.174-3.497-0.145-5.652,0.087-6.47c0.177-0.816,0.761-1.227,1.754-1.227
		c0.586,0,0.966-0.175,1.141-0.523c0.117-0.352,0.117-1.021,0-2.013c-0.175-1.109-0.117-1.836,0.175-2.188
		c0.351-0.408,1.257-0.813,2.718-1.224c2.045-0.526,3.447-0.845,4.206-0.963c0.936,0,1.551-0.206,1.841-0.609
		c0.351-0.47,0.381-1.487,0.089-3.063c-0.411-2.39-2.57-9.621-6.486-21.694l-8.327-25.977c-0.292-0.992,2.073,0.32,7.101,3.938
		c5.082,3.614,17.414,12.77,36.987,27.464l9.642,7.348l8.239,0.177c5.494,0.173,8.385,0.404,8.678,0.698
		c0.352,0.292,0.321,2.479-0.087,6.56L271.582,229.11z M137.125,226.838l-2.979,1.749c-0.353,0.116-0.762,0.264-1.229,0.438
		c-2.454,0.814-4.061,1.108-4.821,0.874c-0.816-0.232-1.226-1.137-1.226-2.714c0-1.047-0.116-1.631-0.351-1.748
		c-0.292-0.174-1.053-0.144-2.279,0.088c-1.695,0.291-3.156,0.437-4.382,0.437c-0.409,0-1.052,0.264-1.928,0.787
		c-0.819,0.526-1.607,1.14-2.367,1.838c-2.223,2.099-3.741,2.916-4.56,2.45c-0.759-0.467-1.372-2.539-1.838-6.212l13.232-29.827
		c0.469,1.748,1.083,4.781,1.842,9.098c1.402,7.173,2.309,11.077,2.718,11.72c0.233,0.293,0.699,0.468,1.4,0.525
		c0.704,0,1.754-0.146,3.157-0.438c2.22-0.465,3.506-0.496,3.855-0.088c0.409,0.409,0.848,2.451,1.316,6.122
		c0.292,2.161,0.087,3.266-0.614,3.326c-0.702,0.06-0.673,0.201,0.088,0.438C136.98,226.05,137.301,226.43,137.125,226.838z
		 M106.447,230.774l1.491-3.325c0.235,2.156,0.351,3.442,0.351,3.848c0,0.177,0,0.322,0,0.438c-0.115,0.234-0.351,0.408-0.702,0.525
		c-0.233,0.062-0.467-0.117-0.701-0.525C106.712,231.503,106.563,231.182,106.447,230.774z M122.752,240.747l6.397-3.589
		c0.644,0,0.994,0.03,1.053,0.09c0.35,0.116,0.672,0.61,0.964,1.484c0.351,0.994,1.462,6.182,3.33,15.572l1.666,8.221l12.972-0.612
		l0.438,2.888c0.234,1.34,0.556,3.615,0.966,6.822l0.349,3.675v0.348l-8.15,0.527c-2.279,0.173-4.529,0.437-6.749,0.786
		c-2.221,0.35-3.739,0.699-4.558,1.05c-0.818,0.35-1.783,0.642-2.894,0.874c-1.052,0.234-1.929,0.351-2.629,0.351
		c-0.935,0-1.607,0.173-2.017,0.523c-0.407,0.291-0.729,0.847-0.963,1.664c-0.293,1.106-1.462,2.595-3.507,4.461
		c-2.103,1.867-3.652,2.798-4.646,2.798c-0.701,0-0.877,0.818-0.526,2.449c0.235,0.993,0.205,1.808-0.088,2.45
		c-0.232,0.641-0.847,1.429-1.84,2.361c-1.169,1.11-1.929,1.692-2.278,1.749c-0.292,0.061-0.73-0.318-1.313-1.138
		c-0.818-1.166-2.72-1.924-5.697-2.273c-1.929-0.234-3.158-0.291-3.682-0.174c-0.585,0.115-0.994,0.552-1.228,1.312
		c-0.234,0.759-0.963,1.458-2.192,2.1c-1.225,0.582-2.045,0.64-2.453,0.174c-0.235-0.174-0.789-3.033-1.666-8.571l-1.401-8.399
		l2.892-2.449c0.818-0.643,1.666-1.222,2.542-1.748c0.935-0.464,1.607-0.701,2.016-0.701c0.468,0,1.345-0.495,2.63-1.486
		c1.286-0.932,2.629-2.099,4.031-3.5c2.045-2.097,3.42-3.674,4.12-4.721c0.702-1.05,1.082-2.275,1.14-3.674
		c0.176-1.518,0.468-2.537,0.878-3.062c0.467-0.583,1.518-1.282,3.154-2.102c1.111-0.464,2.192-1.165,3.243-2.097
		c1.052-0.875,1.84-1.75,2.366-2.624c0.468-0.76,0.994-1.517,1.578-2.276c0.585-0.698,1.024-1.138,1.315-1.312
		c0.408-0.293,0.672-0.816,0.787-1.575c0.117-0.699,0.06-1.778-0.174-3.235C122.692,242.582,122.634,241.445,122.752,240.747z
		 M207.597,240.396c-0.116-0.524-0.206-0.614-0.263-0.263c-0.117,0.407-0.175,1.136-0.175,2.188c0,1.105,0.058,1.836,0.175,2.187
		c0.057,0.349,0.146,0.261,0.263-0.263C207.771,242.961,207.771,241.679,207.597,240.396z M283.941,189.924
		c-0.235,0.292-0.498,0.555-0.789,0.789l-2.103,2.012l-0.615-2.623c-0.409-1.403-2.745-3.676-7.013-6.824
		c-4.147-3.092-18.874-13.412-44.175-30.965l-38.917-27.204l29.362-5.075h0.089l-0.526-2.448c-0.293-1.634-0.117-2.449,0.526-2.449
		c0.232,0,0.467,0.289,0.7,0.875c0.176,0.64,0.264,1.343,0.264,2.102c0,1.398,0.262,2.388,0.787,2.971
		c0.527,0.643,2.019,1.604,4.472,2.886c3.506,1.866,5.581,3.529,6.222,4.987c0.176,0.582,0.732,1.372,1.666,2.363
		c0.878,0.989,1.87,1.922,2.981,2.797c2.57,1.926,4.295,3.646,5.17,5.161c0.819,1.457,1.346,3.645,1.579,6.559
		c0.234,3.265,0.467,5.015,0.701,5.249c0.467,0.466,1.459,0.146,2.979-0.961c1.578-1.109,2.454-2.13,2.63-3.061
		c0.232-0.818,0.671-1.46,1.314-1.927c0.642-0.466,1.812-0.904,3.507-1.31c2.979-0.76,6.573-1.109,10.779-1.052
		c4.149,0.06,8.094,0.498,11.833,1.313c2.514,0.64,4.325,1.225,5.436,1.748c1.052,0.524,1.985,1.312,2.804,2.364
		c1.812,2.39,2.981,5.364,3.507,8.921c0.584,3.559,0.789,9.388,0.613,17.495c-0.059,2.391-0.233,4.112-0.526,5.161
		c-0.293,1.048-0.876,2.1-1.752,3.147c-0.586,0.699-1.081,1.461-1.49,2.274c-0.409,0.817-0.613,1.458-0.613,1.925
		c0,0.468-0.205,1.05-0.615,1.749C284.496,189.282,284.232,189.634,283.941,189.924z M297.965,200.335l-8.853-6.562
		c-0.701-0.643-0.992-1.049-0.877-1.226c0.291-0.406,1.229-0.786,2.805-1.136c1.461-0.293,2.775-0.643,3.944-1.051
		c0.586-0.234,0.992-0.26,1.229-0.085c0.176,0.23,0.263,0.755,0.263,1.572c0,0.581,0.086,1.167,0.263,1.75
		c0.175,0.523,0.409,0.932,0.7,1.224C297.906,195.289,298.082,197.125,297.965,200.335z"/>
	<path fill-rule="evenodd" clip-rule="evenodd" fill="#FFFBFD" d="M27.562,41.92l1.665,1.225l1.667,1.313l8.414,6.122l8.241,6.124
		l10.079,7.436l6.662,4.81l6.486,4.724c0.934,0.584,2.571,1.751,4.908,3.5c2.338,1.633,5.345,3.85,9.028,6.647
		c11.16,8.279,16.946,12.42,17.354,12.42c0.175,0,0.146-0.729-0.087-2.187c-0.175-1.458-0.497-3.237-0.964-5.336
		c-0.584-2.798-1.141-4.839-1.665-6.125c-0.526-1.281-1.169-2.212-1.93-2.796c-1.459-1.11-7.187-5.278-17.178-12.511
		c-9.933-7.17-16.595-11.952-19.984-14.343l-5.085-3.588l7.364-14.78c-0.175,1.166-0.233,1.951-0.175,2.362
		c0.116,0.64,0.525,0.903,1.227,0.786c0.292-0.057,2.044,0.905,5.26,2.887c3.272,2.04,6.953,4.49,11.043,7.347
		c5.843,4.083,9.817,6.709,11.919,7.872c1.288,0.76,2.133,1.141,2.543,1.141c0.232,0,0.322-0.149,0.262-0.438
		c-0.408-1.693-2.832-13.854-7.273-36.479c0-0.233-0.439-0.263-1.314-0.087l-0.089-0.437l13.762-2.273
		c-0.174,0.932,0,2.361,0.525,4.285c0.643,2.449,1.081,4.839,1.315,7.173c0.642,6.239,1.314,9.563,2.016,9.973
		c0.233,0.173,0.934,2.651,2.103,7.436c1.168,4.78,2.483,10.467,3.945,17.056c3.914,17.551,6.368,28.399,7.361,32.538
		c0.06,0.178,0.116,0.351,0.176,0.525c1.169,5.251,1.46,7.988,0.876,8.221c-0.7,0.236-5.669,1.109-14.9,2.624l-0.614-0.523
		l-18.669,3.85l-6.397,1.311c-0.057-0.059-0.147-0.146-0.263-0.265c-0.643-0.755-1.199-2.094-1.665-4.021l-0.79-2.975l-1.489,4.201
		c-0.526,1.576-0.906,2.944-1.141,4.111l-6.397,1.225l-5.96,1.138c-0.059-0.584-1.14-0.758-3.243-0.524
		c-1.52,0.173-4.733,0.67-9.642,1.485l5.523-6.124l1.665-1.923l4.382-0.787l7.363-1.399h0.087l17.441-3.239l3.507-0.697
		c0.057,0.173,0.087,0.347,0.087,0.524c0.35,1.339,0.615,2.101,0.789,2.273c0.175,0.175,0.293,0.059,0.35-0.349
		c0.059-0.409,0-0.962-0.174-1.664c-0.06-0.29-0.117-0.612-0.175-0.961l6.574-1.226h-0.089c1.17-0.29,1.752-0.553,1.752-0.785
		c0-0.411-0.729-1.083-2.19-2.014c-0.994-0.701-1.665-1.021-2.016-0.96c-0.235,0.057-0.614,0.438-1.139,1.133l-3.857-2.883
		L85.5,94.143l-2.455-1.837L47.722,66.501l-1.14-0.873l-4.646-3.411l-0.701-0.527l-0.964-0.699l-1.14-0.875l-8.326-6.036
		l-1.755-1.312l-3.504-2.625l-7.799-5.686l0.962-8.923L27.562,41.92z M3.194,148.9l9.38-1.836c-0.466,0.35-0.73,0.903-0.789,1.664
		l-0.174,2.097l0.876-2.012c1.401-3.382,2.862-1.603,4.382,5.336c0.641,3.148,0.963,5.013,0.963,5.598
		c0,0.642-0.379,0.963-1.138,0.963c-0.585,0-2.572-0.788-5.959-2.361c-3.332-1.575-5.289-2.625-5.874-3.151
		C4.686,155.021,4.131,152.922,3.194,148.9z M76.91,134.379c0.584,3.907,0.555,7.319-0.088,10.233
		c-0.583,3.267-1.724,4.899-3.417,4.899c-0.467,0-0.847,0.089-1.141,0.262c-0.234,0.117-0.292,0.265-0.176,0.438
		c0.118,0.234,0,0.408-0.35,0.523c-0.351,0.117-0.848,0.149-1.49,0.09c-1.11-0.059-1.812-0.411-2.104-1.051
		c-0.351-0.582-0.731-2.331-1.141-5.248c-0.641-4.083-1.079-6.269-1.313-6.561c-0.117-0.115-1.139-0.029-3.069,0.265
		c-1.987,0.232-4.236,0.581-6.748,1.048l-12.359,2.187c-1.462,0.234-2.279,0.523-2.456,0.874c-0.232,0.351-0.232,1.428,0,3.238
		c0.469,2.914,0.849,5.072,1.141,6.472l0.614,2.973l-2.63-1.834c-0.702-0.524-1.461-0.962-2.279-1.313
		c-0.701-0.407-1.228-0.613-1.578-0.613c-0.876,0.061-1.784,0.497-2.717,1.313c-0.936,0.815-1.402,1.632-1.402,2.447
		c0,0.352-0.06,0.701-0.175,1.052c-0.176,0.348-0.381,0.582-0.616,0.699c-0.173,0.175-0.289-0.029-0.35-0.611
		c-0.115-0.525-0.115-1.225,0-2.101c0.117-1.225,0.117-1.984,0-2.273c-0.058-0.235-0.262-0.116-0.613,0.35
		c-0.642,0.934-0.758,0.205-0.351-2.188c0.176-1.221,0.234-2.011,0.176-2.361c-0.06-0.292-0.262-0.204-0.613,0.264
		c-0.351,0.463-0.556,0.609-0.616,0.437c-0.057-0.234,0.031-0.904,0.265-2.013c0.233-1.342,0.263-2.102,0.087-2.274
		c-0.058-0.116-0.233-0.174-0.526-0.174L76.91,134.379z M137.125,226.838c0.176-0.408-0.145-0.788-0.963-1.136
		c-0.761-0.237-0.79-0.379-0.088-0.438c0.701-0.061,0.906-1.165,0.614-3.326c-0.469-3.671-0.907-5.713-1.316-6.122
		c-0.35-0.408-1.636-0.377-3.855,0.088c-1.403,0.292-2.453,0.438-3.157,0.438c-0.701-0.058-1.167-0.232-1.4-0.525
		c-0.409-0.643-1.315-4.547-2.718-11.72c-0.759-4.316-1.373-7.35-1.842-9.098l-13.232,29.827l-1.229,2.624l-1.491,3.325l-0.35,0.961
		l-10.87-0.177l2.367-4.896l4.295-8.746l9.204-18.982l25.943-13.996l2.28,10.061c3.097,13.586,4.82,22.072,5.17,25.453
		c0.061,0.758,0.176,1.518,0.353,2.274L140.544,225l-1.664,0.874L137.125,226.838z M146.329,227.449
		c0.76,2.391,2.104,7.728,4.032,16.009c2.747,11.372,4.12,17.698,4.12,18.981c0,0.408-0.089,0.729-0.263,0.962
		c-0.176,0.293-0.381,0.437-0.614,0.437c-0.467,0-0.731,0.876-0.79,2.623c-0.115,1.81,0.031,4.17,0.439,7.088
		c0.059,0.757,0.175,1.367,0.351,1.835l-2.719-0.086l-0.349-3.675c-0.41-3.207-0.731-5.482-0.966-6.822l-0.438-2.888l-12.972,0.612
		l-1.666-8.221c-1.868-9.391-2.979-14.578-3.33-15.572c-0.292-0.874-0.614-1.368-0.964-1.484c-0.059-0.06-0.409-0.09-1.053-0.09
		L146.329,227.449z M17.57,149.249c0-0.116,0.234-0.264,0.701-0.437c0.468-0.116,1.022-0.234,1.667-0.351
		c3.038-0.466,4.821-0.495,5.345-0.085c0.526,0.407,1.081,2.244,1.666,5.51c0.76,4.081,0.993,6.269,0.701,6.561
		c-0.351,0.29-1.666,0.584-3.944,0.875l-3.331,0.437l-1.403-6.035C18.037,151.64,17.57,149.482,17.57,149.249z M65.428,149.075
		c0.642,3.089,0.905,5.248,0.79,6.471c-0.059,1.169-0.497,1.751-1.316,1.751c-0.583,0-0.846-2.36-0.789-7.085l0.089-7.083
		L65.428,149.075z M61.133,154.061l0.612-2.36l0.353,2.448c0.173,1.225,0.145,2.13-0.089,2.711
		c-0.233,0.641-0.583,0.701-1.051,0.177c-0.176-0.118-0.235-0.467-0.176-1.053C60.782,155.402,60.898,154.76,61.133,154.061z
		 M54.646,143.828c0.468-0.234,1.987-0.09,4.559,0.437c0.934,0.231,1.605,0.525,2.016,0.873c0.408,0.409,0.613,0.935,0.613,1.575
		c0.058,0.817-0.029,1.312-0.263,1.488c-0.233,0.175-0.905,0.145-2.018-0.09c-1.344-0.29-2.104-0.232-2.279,0.178
		c-0.232,0.29,0.176,0.845,1.229,1.66c0.525,0.409,0.846,0.846,0.964,1.312c0.058,0.585-0.059,1.43-0.35,2.536
		c-0.526,2.043-1.081,3.091-1.667,3.15c-0.642,0-1.255-0.964-1.84-2.887l-0.964-3.236l0.265,3.588
		c0.173,1.515,0.145,2.535-0.089,3.061c-0.233,0.524-0.788,0.992-1.666,1.399c-1.577,0.758-3.039,1.077-4.382,0.96
		c-1.401-0.114-2.248-0.609-2.542-1.484c-0.409-0.993-0.935-1.778-1.578-2.364c-0.701-0.523-1.402-2.594-2.102-6.21
		c-0.643-3.615-0.73-5.772-0.263-6.472c0.176-0.292,0.379-0.261,0.614,0.088c0.292,0.407,0.555,1.105,0.788,2.097
		c0.175,0.875,0.41,1.633,0.702,2.275c0.292,0.583,0.526,0.876,0.702,0.876s0.263,0.32,0.263,0.963c0,0.64-0.088,1.399-0.263,2.273
		c-0.293,1.516-0.41,2.36-0.351,2.538c0.058,0.116,0.351-0.206,0.877-0.963c0.7-0.936,1.11-1.897,1.226-2.887
		c0.059-0.991-0.233-1.779-0.877-2.362c-0.641-0.642,0.235-1.313,2.63-2.013c2.338-0.702,3.595-0.96,3.771-0.788
		c0.116,0.116,0.524,1.077,1.226,2.889c0.526,1.223,0.818,1.807,0.878,1.75c0-0.119-0.06-1.081-0.176-2.89
		C54.062,145.166,54.179,144.058,54.646,143.828z M204.792,250.806l-2.366,0.349c0.351-0.991,0.408-3.148,0.175-6.472
		c-0.175-2.683-0.788-6.152-1.841-10.409c-1.051-4.259-2.833-10.587-5.347-18.982l-10.518-35.251
		c-1.693-5.89-3.652-12.479-5.872-19.771c-3.04-9.856-5.757-18.921-8.153-27.203c-2.277-8.106-3.358-12.247-3.24-12.42
		c0.114-0.116,2.336-0.583,6.658-1.401c4.384-0.815,9.498-1.719,15.341-2.711c14.49-2.507,21.883-3.876,22.175-4.109
		c0.06-0.118,0.088-0.234,0.088-0.35l7.801,7.958l-29.362,5.075l38.917,27.204c25.301,17.553,40.027,27.873,44.175,30.965
		c4.268,3.148,6.604,5.421,7.013,6.824l0.615,2.623l2.103-2.012c0.291-0.234,0.554-0.497,0.789-0.789l5.171,3.85
		c0.116,0.116,0.204,0.203,0.263,0.262c0.876,0.817,1.985,1.691,3.33,2.625l4.733,3.323l-6.661,3.323l-53.293-37.612
		c-3.388-2.389-7.391-5.248-12.007-8.572c-7.947-5.655-13.966-9.913-18.056-12.769l-16.565-11.723
		c-3.623-2.508-5.435-3.586-5.435-3.237c0,0.408,0.875,3.44,2.629,9.097c1.286,4.083,2.248,6.647,2.893,7.698
		c0.643,1.048,1.899,2.216,3.769,3.499c2.746,1.865,4.236,2.976,4.471,3.324c0.233,0.232,2.454,1.866,6.664,4.9
		c4.089,2.913,7.71,5.48,10.865,7.694l63.022,45.486l0.088,6.21c0.058,4.085-0.205,5.948-0.789,5.6
		c-0.587-0.351-0.731-0.088-0.438,0.785c0.409,0.994,0.202,1.488-0.616,1.488c-0.35,0-0.643,0.089-0.875,0.263
		c-0.293,0.117-0.438,0.293-0.438,0.524c0,0.235-0.088,0.439-0.264,0.614c-0.116,0.173-0.291,0.262-0.525,0.262
		s-0.38-0.408-0.438-1.225c-0.117-0.758-0.147-1.693-0.089-2.8c0.176-2.741,0.322-4.286,0.44-4.636
		c0.116-0.408,0.554-0.468,1.313-0.176c0.875,0.294,1.285,0.702,1.226,1.224c-0.058,0.469-0.526,0.555-1.401,0.264
		c-0.643-0.232-0.993-0.319-1.052-0.264c0,0.062,0.264,0.294,0.789,0.701c0.877,0.584,0.964,0.875,0.263,0.875
		c-0.293,0-0.556,0.117-0.788,0.352c-0.176,0.175-0.264,0.406-0.264,0.698c0,0.351,0.059,0.522,0.175,0.522
		c0.177,0,0.467-0.172,0.877-0.522c0.351-0.292,0.673-0.496,0.964-0.613c0.292-0.057,0.497-0.029,0.615,0.09
		c0.29,0.231,0.408-0.76,0.35-2.976c0-0.93-0.087-1.778-0.262-2.537c-0.177-0.816-0.353-1.339-0.526-1.574
		c-0.177-0.176-0.292-0.203-0.353-0.087c-0.115,0.117-0.115,0.348,0,0.699c0.176,0.875-0.524,1.4-2.103,1.575
		c-1.169,0.117-1.869,0.493-2.104,1.136c-0.175,0.582-0.263,2.598-0.263,6.036v4.986l-1.666,0.523l0.352-3.148
		c0.408-4.081,0.438-6.268,0.087-6.56c-0.293-0.294-3.184-0.525-8.678-0.698l-8.239-0.177l-9.642-7.348
		c-19.573-14.694-31.905-23.85-36.987-27.464c-5.027-3.617-7.393-4.93-7.101-3.938l8.327,25.977
		c3.916,12.073,6.075,19.305,6.486,21.694c0.292,1.576,0.262,2.594-0.089,3.063c-0.29,0.403-0.905,0.609-1.841,0.609
		c-0.759,0.118-2.161,0.437-4.206,0.963c-1.461,0.41-2.367,0.815-2.718,1.224c-0.292,0.353-0.35,1.079-0.175,2.188
		c0.117,0.991,0.117,1.661,0,2.013c-0.175,0.349-0.555,0.523-1.141,0.523c-0.993,0-1.577,0.41-1.754,1.227
		c-0.231,0.817-0.261,2.973-0.087,6.47c0.177,2.567,0.353,4.201,0.526,4.899C204.704,250.689,204.733,250.746,204.792,250.806z
		 M123.804,180.916c0.233,3.204,0.175,4.313-0.176,3.323c-0.41-0.932-0.876-3.296-1.403-7.085c-0.057-0.291-0.087-0.586-0.087-0.874
		c-0.058-0.758-0.087-1.342-0.087-1.749c0.057-0.526,0.203-0.672,0.438-0.438c0.116,0.115,0.232,0.378,0.349,0.787
		c0.117,0.35,0.234,0.873,0.352,1.572C123.482,177.794,123.687,179.283,123.804,180.916z"/>
</g>
</svg>
