<?xml version="1.0" encoding="utf-8"?>
<!-- Generator: Adobe Illustrator 16.0.0, SVG Export Plug-In . SVG Version: 6.00 Build 0)  -->
<!DOCTYPE svg PUBLIC "-//W3C//DTD SVG 1.1//EN" "http://www.w3.org/Graphics/SVG/1.1/DTD/svg11.dtd">
<svg version="1.1" id="Layer_1" xmlns="http://www.w3.org/2000/svg" xmlns:xlink="http://www.w3.org/1999/xlink" x="0px" y="0px"
	 width="300px" height="300px" viewBox="0 0 300 300" enable-background="new 0 0 300 300" xml:space="preserve">
<g>
	<path fill-rule="evenodd" clip-rule="evenodd" fill="#971F27" d="M261.313,65.52c9.808-7.306,14.83-10.959,15.069-10.959
		c0.595,0,2.978,1.41,7.146,4.228l6.253,4.289l-98.865,65.632h-13.698l49.075-36.985C240.189,81.243,251.864,72.507,261.313,65.52z
		 M278.764,147.231l10.303,0.417l-0.417,20.964l-63.547,1.072c-42.445,0.715-63.748,1.172-63.906,1.369
		c-0.158,0.16-0.754,12.625-1.787,37.402c-0.991,24.775-1.488,38.475-1.488,41.094l0.06,1.969h-20.129l-0.298-2.324
		c-0.239-1.469-0.597-13.639-1.074-36.51c-0.516-22.828-0.912-35.496-1.189-37.998l-0.358-3.691l-6.67,0.357
		c-4.525,0.197-24.577,0.557-60.154,1.072c-35.575,0.475-54.554,0.814-56.937,1.012l-3.692,0.297v-33.232l8.815,0.358
		c5.083,0.238,24.1,0.715,57.056,1.429c32.121,0.634,50.327,1.092,54.613,1.37l6.433,0.358l-0.06-5.361
		c0-2.223-0.336-14.79-1.012-37.7c-0.676-22.155-1.013-33.869-1.013-35.138v-2.979h32.577v3.691c0,1.908-0.455,14.315-1.369,37.225
		c-0.952,22.474-1.43,34.881-1.43,37.223v3.455l53.245,1.191C251.107,146.458,272.251,146.993,278.764,147.231z M3.55,77.015
		L2,76.06l2.561-6.253c0.714-1.706,1.37-3.155,1.966-4.346c0.635-1.232,1.032-1.847,1.191-1.847
		c0.237,0,16.317,10.581,48.242,31.743c31.923,21.202,48.242,32.142,48.955,32.816c0.398,0.357-1.925,0.536-6.966,0.536h-7.625
		L47.68,103.338C18.617,86.026,3.905,77.252,3.55,77.015z M282.636,229.956C292.877,236.587,298,240.04,298,240.319
		c-0.039,0.238-2.005,1.469-5.895,3.693c-3.932,2.184-6.136,3.273-6.612,3.273c-0.237,0-15.624-10.082-46.157-30.252
		c-30.571-20.211-46.116-30.574-46.634-31.09c-0.157-0.199,3.375-0.299,10.602-0.299h11.078L282.636,229.956z M101.698,188.208
		l3.754-2.563h14.532l-94.875,70.576l-17.928-4.527l50.504-33.828C85.401,199.284,100.072,189.397,101.698,188.208z"/>
	<path fill-rule="evenodd" clip-rule="evenodd" fill="#262B64" d="M257.025,126.386c1.31,7.823,1.944,11.733,1.904,11.733
		l-19.117-1.37c-12.783-0.953-19.078-1.667-18.88-2.144c0.08-0.16,1.726-1.469,4.943-3.931c3.335-2.501,7.126-5.281,11.374-8.337
		c10.683-7.665,16.182-11.516,16.5-11.555c0.158-0.04,0.297,0.139,0.415,0.536c0.239,0.358,0.397,0.793,0.478,1.31
		C254.959,114.02,255.754,118.604,257.025,126.386z M267.507,187.132l3.456,20.191c1.229,7.227,1.586,10.662,1.068,10.307
		c-2.301-1.393-10.799-7.031-25.488-16.916c-14.652-9.846-21.976-14.852-21.976-15.01c0-0.156,1.904-0.613,5.717-1.369
		c3.892-0.834,8.496-1.727,13.815-2.68c13.104-2.344,20.015-3.555,20.728-3.633c0.477,0,0.894,0.594,1.25,1.787
		C266.355,181.04,266.832,183.481,267.507,187.132z M126.118,198.093c0.158,0,0.316,0.438,0.478,1.311
		c0.197,0.875,0.336,1.867,0.416,2.977c0.237,2.463,0.715,9.232,1.428,20.311c0.637,11.078,0.913,16.637,0.835,16.678
		c-0.081,0.117-9.947,0.533-29.601,1.248c-16.238,0.676-28.726,1.211-37.461,1.609l-7.921,0.357l35.675-22.217
		C113.749,205.558,125.801,198.134,126.118,198.093z M170.071,217.63c1.19-13.066,1.787-19.795,1.787-20.191
		c0-0.438,0.971-0.059,2.918,1.133c1.707,1.07,9.391,5.992,23.049,14.768c13.737,8.777,22.573,14.414,26.503,16.916
		c4.287,2.738,6.432,4.246,6.432,4.525s-10.283,0.854-30.851,1.727c-20.646,0.834-31.067,1.131-31.267,0.893
		C168.442,237.204,168.921,230.612,170.071,217.63z M219.623,83.149c4.606,0.078,6.81,0.218,6.61,0.417
		c-0.556,0.476-8.854,6.055-24.896,16.735c-16.039,10.602-24.14,15.901-24.298,15.901c-0.279,0-0.398-5.38-0.357-16.139
		c0-10.838,0.157-16.378,0.476-16.617c0.08-0.158,2.6-0.258,7.564-0.297c4.844-0.119,10.681-0.178,17.508-0.178
		C209.259,82.971,215.058,83.03,219.623,83.149z M113.014,83.149c5.481,0.078,8.221,0.197,8.221,0.357l1.311,22.692
		c0.952,14.69,1.349,22.115,1.191,22.273c-0.081,0.12-3.933-2.838-11.555-8.874L65.428,82.971H93.36
		C100.945,82.971,107.496,83.03,113.014,83.149z M49.586,128.709H26.18V98.098l24.242,15.723
		c13.936,9.053,21.222,13.837,21.855,14.354c0.16,0.159-1.963,0.277-6.371,0.357C61.578,128.65,56.137,128.709,49.586,128.709z
		 M66.977,186.896l3.752,0.418l-21.083,14.055c-5.558,3.734-10.561,7.029-15.007,9.885c-4.209,2.781-6.393,4.17-6.551,4.17
		c-0.12,0-0.218-1.445-0.297-4.346c-0.12-2.938-0.181-6.412-0.181-10.422v-14.83l17.868,0.357
		C57.667,186.38,64.832,186.618,66.977,186.896z"/>
</g>
</svg>
