<?xml version="1.0" encoding="utf-8"?>
<!-- Generator: Adobe Illustrator 16.0.0, SVG Export Plug-In . SVG Version: 6.00 Build 0)  -->
<!DOCTYPE svg PUBLIC "-//W3C//DTD SVG 1.1//EN" "http://www.w3.org/Graphics/SVG/1.1/DTD/svg11.dtd">
<svg version="1.1" id="Layer_1" xmlns="http://www.w3.org/2000/svg" xmlns:xlink="http://www.w3.org/1999/xlink" x="0px" y="0px"
	 width="300px" height="300px" viewBox="0 0 300 300" enable-background="new 0 0 300 300" xml:space="preserve">
<g>
	<path fill-rule="evenodd" clip-rule="evenodd" fill="#0044D2" d="M214.094,93.346c1.168,0.764,2.166,1.369,3.006,1.814
		c0.84,0.382,1.259,0.51,1.259,0.382c0-0.127-1.259-1.464-3.779-4.01c-2.518-2.483-5.551-5.443-9.104-8.881
		c-9.169-8.913-16.918-15.756-23.248-20.531c-6.461-4.838-13.336-9.04-20.638-12.604c-4.517-2.164-8.489-3.82-11.915-4.966
		c-3.357-1.146-7.168-2.132-11.429-2.96c-1.615-0.382-3.617-0.701-6.006-0.955c-2.455-0.318-4.553-0.541-6.297-0.667l-6.49-0.383
		l-2.229,4.584c-0.646,1.209-1.163,2.324-1.55,3.342c-0.452,0.955-0.677,1.496-0.677,1.623c0,0.128,0.935,0.224,2.807,0.287
		c1.938,0.063,4.231,0.128,6.88,0.191c4.52,0.064,7.652,0.16,9.396,0.287c1.745,0.191,4.199,0.732,7.362,1.624
		c8.915,2.355,17.277,5.698,25.091,10.027c7.813,4.265,14.886,9.39,21.212,15.374c3.037,2.93,5.267,4.902,6.687,5.921
		c1.42,0.955,3.972,2.324,7.654,4.106c2.129,1.019,4.357,2.165,6.682,3.438C211.16,91.596,212.934,92.582,214.094,93.346z
		 M213.709,64.316c0.648,0.828,0.934,0.987,0.87,0.478c0-0.574-0.352-2.165-1.063-4.775c-0.582-2.228-1.194-3.788-1.843-4.68
		c-0.707-0.955-2.645-3.024-5.812-6.207c-20.082-19.926-42.428-31.641-67.033-35.141c-4.909-0.637-7.912-0.891-9.011-0.764
		c-1.161,0.126-2.098,0.89-2.81,2.291c-0.646,1.146-1.001,1.91-1.064,2.292c-0.13,0.509,0,0.924,0.387,1.241
		c0.517,0.446,3.002,0.923,7.458,1.433c12.659,1.655,24.478,4.87,35.458,9.645c11.041,4.775,20.891,10.918,29.545,18.431
		c2.323,2.037,4.974,4.647,7.944,7.83C209.833,59.637,212.158,62.279,213.709,64.316z M216.906,83.224
		c-0.257-1.21-0.483-1.974-0.676-2.292c-0.905-1.336-4.103-4.712-9.594-10.122c-5.485-5.476-9.589-9.327-12.302-11.556
		c-8.2-6.748-16.952-12.414-26.256-16.998c-9.297-4.52-18.824-7.798-28.575-9.836c-5.101-1.018-8.944-1.624-11.528-1.814
		l-4.261-0.381l-2.617,7.066c-0.064,0.255,0.195,0.446,0.776,0.573c0.58,0.127,1.709,0.191,3.39,0.191
		c6.522,0,13.886,1.241,22.086,3.724c8.201,2.483,15.886,5.858,23.058,10.123c6.004,3.5,11.753,7.48,17.244,11.937
		c5.485,4.392,12.269,10.504,20.344,18.334l9.88,9.454l-0.485-4.774C217.262,85.579,217.1,84.37,216.906,83.224z M216.13,74.343
		c-0.256-2.292-0.775-4.074-1.551-5.348c-0.708-1.272-2.773-3.82-6.196-7.639c-9.105-10.568-19.699-19.067-31.777-25.498
		c-12.009-6.429-25.344-10.727-40.006-12.892c-6.006-0.827-9.429-1.241-10.269-1.241c-0.58,0.063-1.001,0.254-1.261,0.574
		c-0.063,0.126-0.159,0.604-0.289,1.432c-0.195,1.273-0.388,2.323-0.581,3.151c-0.13,0.382-0.034,0.7,0.29,0.955
		c0.388,0.127,1.164,0.254,2.325,0.381c8.847,1.21,16.597,2.802,23.249,4.774c6.59,1.91,13.307,4.584,20.152,8.022
		c6.846,3.438,13.013,7.226,18.5,11.364c5.557,4.075,11.657,9.422,18.31,16.042l9.49,9.358L216.13,74.343z M222.72,99.267
		l4.068,4.105c3.682,3.629,6.458,7.194,8.333,10.696c1.873,3.438,3.129,7.354,3.774,11.746c0.452,2.929,0.387,6.239-0.192,9.932
		c-0.519,3.628-1.487,6.875-2.907,9.74c-1.031,2.165-2.55,4.392-4.551,6.685c-2.069,2.292-3.812,3.725-5.232,4.297
		c-0.452,0.19-0.872,0.412-1.261,0.668c-0.26,0.191-0.386,0.351-0.386,0.478c0,0.445,0.805,1.591,2.422,3.437
		c1.615,1.847,3.163,3.343,4.649,4.49c1.484,1.273,3.035,2.355,4.651,3.247c1.611,0.828,3.582,1.686,5.907,2.577L245,172.51
		l-5.136-0.285c-3.424-0.129-6.068-0.606-7.942-1.433c-0.776-0.319-1.452-0.573-2.035-0.765c-0.514-0.127-0.777-0.127-0.777,0
		c0,0.318,0.485,1.654,1.454,4.012c1.745,4.264,2.777,8.561,3.104,12.892c0.256,4.327-0.227,8.181-1.454,11.555
		c-0.325,0.954-0.646,2.1-0.968,3.438c-0.326,1.4-0.52,2.641-0.582,3.726c-0.386,4.454-1.583,8.021-3.586,10.694
		c-1.937,2.736-5.198,5.22-9.783,7.448c-1.483,0.763-2.845,1.464-4.068,2.101c-1.228,0.698-1.905,1.112-2.035,1.241
		c-0.26,0.511-0.708,1.781-1.357,3.82c-0.516,1.527-0.775,2.483-0.775,2.864c0.066,0.319,0.421,0.668,1.067,1.051
		c1.873,1.271,3.776,2.196,5.715,2.77c1.809,0.572,3.845,0.859,6.104,0.859c2.194,0,3.616-0.097,4.262-0.287
		c0.646-0.127,1.386-0.604,2.228-1.433c0.518-0.509,1.032-1.179,1.551-2.005c0.449-0.764,0.775-1.498,0.968-2.196
		c0.452-1.655,0.842-2.865,1.163-3.628l0.387-0.766c0.064,0,0.13,0.318,0.196,0.955c0.063,2.929-0.648,5.506-2.135,7.736
		c-1.418,2.291-3.356,3.818-5.812,4.583c-2.066,0.572-4.939,0.986-8.622,1.241c-3.68,0.191-6.23,0.096-7.65-0.285
		c-1.102-0.319-1.743-0.447-1.937-0.384c-0.133,0.127-0.1,0.51,0.094,1.146c1.16,3.693,3.682,7.226,7.558,10.602
		c3.875,3.438,7.328,5.155,10.364,5.155c2.263,0,4.458-0.7,6.587-2.1c2.066-1.338,3.619-3.119,4.65-5.348
		c0.581-1.337,0.935-1.846,1.064-1.528c0.134,0.317-0.13,1.177-0.771,2.579c-1.034,2.354-2.585,4.297-4.651,5.823
		c-2.131,1.527-4.486,2.419-7.071,2.675c-2.002,0.256-4.554,0-7.651-0.764c-3.04-0.7-6.011-1.718-8.918-3.056
		c-3.227-1.591-4.906-2.324-5.036-2.197c-0.063,0.066,0.842,1.975,2.715,5.729c1.161,2.292,2.229,4.106,3.197,5.444
		c1.097,1.336,2.68,3.056,4.746,5.156c3.36,3.312,6.62,5.855,9.785,7.639c3.035,1.782,5.905,2.738,8.62,2.864
		c2.777,0.193,5.006-0.222,6.686-1.24c1.614-1.084,2.679-2.833,3.193-5.251l0.485-1.911l0.097,1.815
		c0,1.018-0.419,2.227-1.258,3.627c-0.841,1.339-1.875,2.453-3.1,3.344c-1.81,1.272-4.81,1.751-9.012,1.431
		c-4.324-0.318-8.425-1.365-12.301-3.148c-3.488-1.594-7.231-4.012-11.239-7.261c-4.067-3.309-7.328-6.586-9.78-9.834l-2.521-3.535
		v4.68c0,4.648,0.938,9.582,2.812,14.803s4.197,9.358,6.976,12.414l2.515,2.864l-3.193-1.717c-0.905-0.449-2.036-1.243-3.391-2.389
		c-1.356-1.081-2.521-2.164-3.488-3.247c-3.228-3.31-5.778-7.29-7.651-11.936c-1.81-4.586-3.038-10.06-3.683-16.427
		c-0.326-3.056-0.611-5.061-0.875-6.016c-0.256-0.954-0.805-1.877-1.646-2.769c-4.776-5.476-7.457-17.507-8.039-36.098
		c-0.13-3.119-0.257-5.696-0.387-7.735c-0.192-2.036-0.386-3.055-0.582-3.055c-0.322,0-1.676,0.636-4.068,1.91
		c-3.486,1.78-6.619,4.679-9.396,8.689c-2.712,4.01-4.744,8.595-6.104,13.752c-1.873,7.257-2.647,16.074-2.322,26.45
		c0.323,10.377,1.776,21.773,4.358,34.188c0.451,2.037,0.778,3.916,0.972,5.636c0.255,1.718,0.318,2.736,0.191,3.054
		c-0.321,1.082-1.197,1.337-2.614,0.765c-1.359-0.574-2.328-1.624-2.907-3.152c-0.325-0.765-1.16-3.659-2.52-8.689
		c-2.324-8.529-4.746-14.545-7.266-18.048c-0.775-1.019-1.388-1.686-1.84-2.005c-0.452-0.255-1.097-0.383-1.938-0.383
		c-2.907,0-8.558,3.118-16.953,9.36c-2.065,1.526-3.875,2.8-5.423,3.818c-1.487,1.083-2.294,1.591-2.423,1.527
		c-0.13-0.191-2.196-5.795-6.2-16.807l-6.394-17.475c-0.131-0.447-0.388-0.639-0.776-0.573c-0.452,0-1.452,0.256-3.002,0.763
		c-1.68,0.574-3.423,0.859-5.23,0.859s-3.52-0.319-5.134-0.955c-0.583-0.19-0.71-0.411-0.387-0.667
		c0.324-0.192,1.259-0.572,2.81-1.146c1.937-0.637,4.036-1.911,6.296-3.821c2.26-1.782,3.391-3.117,3.391-4.009
		c0-0.191-0.291-0.51-0.873-0.956c-0.517-0.382-1.13-0.764-1.84-1.145c-1.745-0.828-3.553-2.07-5.426-3.725
		c-1.808-1.72-3.262-3.407-4.359-5.063c-1.1-1.781-1.938-2.514-2.518-2.195c-0.647,0.19-2.875,0.414-6.685,0.669
		c-3.037,0.126-5.716-0.031-8.042-0.479c-2.325-0.445-4.131-1.115-5.424-2.005c-0.518-0.318-0.645-0.478-0.388-0.478
		c0.323,0,1.259,0.19,2.81,0.573c2.066,0.509,4.359,0.604,6.877,0.287c2.391-0.256,4.683-0.892,6.877-1.91l2.714-1.337l-1.453-3.726
		c-2.195-5.665-4.199-13.751-6.006-24.255c-0.969-5.856-1.551-8.88-1.745-9.072c-0.645-0.572-1.161,1.688-1.549,6.779
		c-0.323,5.03-0.258,9.042,0.194,12.034l0.484,2.673l-1.259-2.005c-2.132-3.183-3.455-7.479-3.973-12.892
		c-0.516-5.348-0.225-10.95,0.873-16.807c0.645-3.311,1.969-8.116,3.971-14.42c2.001-6.24,3.842-11.396,5.522-15.471l1.743-4.106
		l-6.394-6.207c-5.681-5.602-9.944-11.045-12.786-16.329c-2.842-5.412-4.134-10.346-3.875-14.801
		c0.193-2.929,0.873-5.571,2.034-7.926c1.162-2.292,2.907-4.584,5.231-6.876c3.099-2.865,6.813-5.411,11.141-7.64
		c4.327-2.228,9.139-3.979,14.434-5.251l5.714-1.433l1.552-5.252c1.032-3.502,2.258-6.685,3.679-9.549
		c1.422-2.865,3.779-6.813,7.073-11.842c3.486-5.411,6.004-9.708,7.555-12.892c1.552-3.056,2.746-6.302,3.586-9.74
		c0.903-3.374,1.806-6.016,2.711-7.926c0.968-1.91,2.229-3.661,3.779-5.252c1.356-1.336,2.68-2.387,3.971-3.151
		c1.292-0.701,3.133-1.433,5.523-2.196c2.454-0.828,5.909-1.146,10.365-0.955c4.457,0.192,8.267,0.795,11.43,1.814
		c4.521,1.528,10.143,4.139,16.859,7.831c6.716,3.693,12.594,7.417,17.63,11.173c3.356,2.547,7.038,5.793,11.041,9.741
		c4.005,3.946,6.91,7.226,8.718,9.835c2.843,4.137,5.073,8.372,6.687,12.701s2.646,9.008,3.1,14.038
		c0.58,5.347,1.354,11.459,2.324,18.335L222.72,99.267z M87.581,179.386c0.581,0.383,1.485,0.383,2.713,0
		c1.227-0.382,5.586-2.005,13.078-4.869c3.746-1.402,6.005-2.451,6.781-3.152c0.839-0.638,0.774-1.4-0.195-2.292
		c-0.388-0.51-0.709-0.763-0.968-0.763c-0.193,0-3.779,1.369-10.752,4.105c-5.424,2.038-8.815,3.5-10.172,4.392
		S86.548,178.558,87.581,179.386z M116.546,127.915c1.098,0.509,2.971,1.75,5.618,3.725c2.456,1.846,4.294,2.928,5.522,3.246
		c1.227,0.383,1.937,0,2.13-1.146c0.259-0.954-1.356-2.8-4.844-5.538c-3.422-2.737-6.813-4.871-10.171-6.398
		c-1.743-0.764-2.874-1.21-3.391-1.336c-0.517-0.063-1.258,0.095-2.227,0.478c-1.357,0.509-2.906,2.165-4.65,4.966
		c-1.745,2.801-2.81,5.347-3.198,7.64c-0.128,0.891-0.128,1.496,0,1.814c0.131,0.191,0.549,0.351,1.26,0.477
		c0.712,0.191,1.163,0.16,1.357-0.095c0.257-0.191,0.516-0.828,0.773-1.91c0.647-2.229,1.648-3.438,3.005-3.628
		c1.485-0.128,2.421,0.859,2.809,2.96c0.194,1.273,0.483,2.101,0.871,2.482c0.388,0.446,1.066,0.668,2.034,0.668
		c1.165,0,1.906-0.223,2.229-0.668c0.323-0.381,0.228-0.987-0.291-1.814c-0.581-0.892-1.001-1.941-1.259-3.151
		c-0.259-1.209-0.226-2.069,0.097-2.579C114.673,127.532,115.448,127.469,116.546,127.915z M165.854,142.525
		c-1.807-0.572-4.844-0.955-9.108-1.146c-4.261-0.19-7.458-0.095-9.588,0.287c-2.002,0.382-4.457,1.082-7.363,2.1
		c-2.132,0.765-3.778,1.21-4.939,1.337c-1.164,0.128-3.65,0.095-7.461-0.095l-7.846-0.287l-2.615,1.72
		c-1.617,1.145-3.554,2.799-5.813,4.965c-2.261,2.102-3.391,3.374-3.391,3.819s0.613,0.67,1.839,0.67
		c1.228-0.063,2.842-0.383,4.843-0.955c1.681-0.512,2.777-0.701,3.295-0.574c0.58,0,1.68,0.414,3.293,1.242
		c3.747,1.846,7.878,4.36,12.4,7.545c4.521,3.119,6.781,5.059,6.781,5.823c0,0.255-0.098,0.604-0.291,1.051
		c-0.193,0.445-0.452,0.859-0.775,1.242c-0.518,0.572-1.259,0.986-2.227,1.24c-1.033,0.193-3.295,0.414-6.781,0.669
		c-4.199,0.256-8.042,0.637-11.529,1.146c-3.551,0.509-6.004,1.05-7.361,1.625c-1.099,0.443-1.648,1.082-1.648,1.909
		c0,0.828,0.776,1.527,2.325,2.101c1.486,0.572,3.908,1.116,7.267,1.622c2.906,0.448,4.908,0.956,6.006,1.53
		c1.098,0.636,1.808,1.654,2.13,3.055c0.453,1.848,0.356,3.215-0.291,4.106c-0.646,0.892-2.227,1.877-4.745,2.961
		c-1.292,0.573-2.616,1.303-3.974,2.194c-1.354,0.828-2.453,1.593-3.292,2.293c-1.229,1.146-1.938,1.975-2.132,2.482
		c-0.257,0.447-0.289,1.21-0.097,2.293c0.581,2.992,2.39,5.538,5.424,7.639c3.038,2.166,6.621,3.374,10.753,3.63
		c1.873,0.126,3.326,0.126,4.359,0c0.968-0.192,2.357-0.637,4.167-1.338c5.683-2.227,12.303-5.477,19.859-9.739
		c7.556-4.202,12.559-7.449,15.014-9.741c2.972-2.929,5.199-6.686,6.684-11.268c1.486-4.585,2.102-9.773,1.843-15.566
		c-0.063-2.419-0.227-4.329-0.482-5.729c-0.197-1.401-0.549-2.738-1.068-4.01c-1.486-3.693-3.355-6.685-5.618-8.977
		C171.442,145.04,168.825,143.416,165.854,142.525z M150.356,90.481c-2.199-0.127-4.458-0.127-6.782,0
		c-2.325,0.063-4.005,0.159-5.04,0.287l-3.777,0.668v29.508l4.359,2.101c4.843,2.229,9.525,3.501,14.047,3.82
		c4.521,0.254,8.619-0.478,12.301-2.197c2.521-1.145,4.554-2.387,6.104-3.724c1.486-1.337,2.807-3.087,3.975-5.252l1.937-3.534
		l24.605,14.229c3.681,2.165-0.356-1.019-12.112-9.549c-5.94-4.203-9.493-6.844-10.654-7.927c-1.291-1.082-1.937-2.069-1.937-2.96
		c0-1.464-0.615-3.183-1.839-5.158c-1.231-1.973-2.684-3.596-4.361-4.869c-0.967-0.637-2.163-1.337-3.586-2.102
		c-1.42-0.7-2.841-1.241-4.261-1.623c-2.002-0.636-3.812-1.082-5.426-1.336C156.234,90.672,153.713,90.544,150.356,90.481z
		 M88.646,74.724c-4.584,1.274-8.234,2.515-10.945,3.725c-3.037,1.527-4.135,2.165-3.294,1.909
		c7.686-2.228,16.274-3.851,25.768-4.871c9.493-1.018,20.634-1.559,33.42-1.623c8.331,0,13.109-0.032,14.34-0.096
		c1.161-0.063,0.386-0.286-2.326-0.668c-3.683-0.445-11.109-0.764-22.282-0.956c-11.108-0.189-18.437-0.095-21.991,0.287
		C97.525,72.815,93.297,73.578,88.646,74.724z M112.768,55.339c-0.257,0.318-0.549,1.815-0.873,4.489
		c-0.323,2.61-0.419,4.424-0.289,5.444l0.386,2.005l9.399-0.192c5.295-0.063,10.011,0.16,14.142,0.669
		c4.198,0.446,9.236,1.368,15.11,2.77l16.276,3.915c3.552,0.892,7.721,2.069,12.499,3.534c4.712,1.464,8.749,2.864,12.109,4.201
		c2.003,0.765,0.676-0.764-3.975-4.583c-4.65-3.756-9.038-6.876-13.177-9.358c-5.291-3.247-11.203-6.144-17.723-8.69
		c-6.59-2.483-12.66-4.202-18.215-5.157c-3.358-0.573-7.33-0.86-11.915-0.86c-4.648-0.063-8.072,0.191-10.269,0.765
		C114.189,54.798,113.025,55.148,112.768,55.339z M131.271,9.884l-1.357,1.337l5.328,0.382c11.433,0.827,23.185,4.106,35.259,9.836
		c12.146,5.793,23.093,13.274,32.845,22.441c1.548,1.4,2.775,2.451,3.68,3.15c0.905,0.701,1.257,0.86,1.064,0.478
		c-0.968-1.783-2.614-4.074-4.939-6.876c-2.325-2.737-4.877-5.442-7.654-8.117c-6.197-5.856-13.592-11.077-22.181-15.66
		c-8.655-4.584-16.889-7.671-24.702-9.263C140.216,5.81,134.436,6.574,131.271,9.884z M216.322,217.392
		c0.648-1.909,0.939-4.456,0.876-7.64c0-4.901-0.905-10.344-2.713-16.329c-1.745-6.049-5.298-15.661-10.657-28.838
		c-4.067-9.995-6.267-15.152-6.586-15.471c-0.387-0.381-1.197,0.063-2.422,1.337c-1.163,1.337-1.746,2.419-1.746,3.247
		c0,0.445,0.326,1.656,0.969,3.629c0.648,1.974,1.39,4.105,2.228,6.397c4.651,12.098,8.271,23.109,10.852,33.041
		c2.647,9.995,3.972,17.795,3.972,23.396v4.013l1.84-1.72C214.55,220.99,215.681,219.302,216.322,217.392z M223.88,185.783
		c-0.519-1.464-1.839-4.392-3.971-8.784c-2.003-4.329-4.199-8.85-6.587-13.562c-5.682-11.332-8.622-16.997-8.815-16.997
		c-0.776,0.19-1.68,0.413-2.714,0.667c-1.098,0.255-1.71,0.446-1.84,0.574c-0.127,0.127,1.391,4.042,4.554,11.746
		c5.427,13.115,9.268,23.172,11.526,30.176c2.262,7.003,3.553,12.923,3.876,17.761c0.13,2.229,0.13,3.98,0,5.254
		c-0.066,1.272-0.29,2.579-0.679,3.915c-0.257,0.956-0.484,1.783-0.679,2.482c-0.127,0.764-0.161,1.178-0.097,1.241
		c0.26,0.191,1.229-0.381,2.905-1.718c1.682-1.337,2.813-2.452,3.392-3.342c2.262-3.058,3.326-7.067,3.197-12.033
		C227.756,198.197,226.401,192.404,223.88,185.783z M215.064,160.765c3.81,7.511,6.751,13.654,8.815,18.43
		c2.066,4.775,3.684,9.042,4.845,12.796c0.519,1.91,0.903,3.121,1.162,3.63c0.257,0.445,0.454,0.412,0.583-0.094
		c0.449-1.468,0.579-3.885,0.386-7.261c-0.192-3.309-0.578-6.109-1.164-8.402c-0.582-2.292-2.291-6.429-5.133-12.414
		c-2.907-6.111-5.777-11.715-8.621-16.807l-2.519-4.202h-2.615c-0.776,0-1.42,0-1.939,0c-0.519,0.063-0.774,0.159-0.774,0.286
		C208.09,146.918,210.418,151.598,215.064,160.765z M217.391,148.063c0.386,0.382,0.841-0.318,1.355-2.1
		c0.518-1.72,0.776-3.407,0.776-5.062c0-3.374-0.776-6.748-2.324-10.122c-1.55-3.311-3.939-6.748-7.171-10.313
		c-1.611-1.846-3.357-3.565-5.23-5.157c-1.808-1.528-2.711-2.068-2.711-1.624c0,0.954,0.481,2.642,1.452,5.062
		c1.032,2.419,2.13,4.615,3.292,6.589c2.068,3.374,3.715,6.303,4.942,8.786c1.227,2.61,2.388,5.411,3.489,8.403
		C216.485,146.026,217.198,147.873,217.391,148.063z M232.115,130.971c-0.903-4.52-3.164-9.263-6.781-14.229
		c-3.619-4.966-7.943-9.39-12.979-13.273c-2.971-2.165-5.426-3.82-7.365-4.966c-2-1.21-3.067-1.592-3.196-1.146
		c-0.516,1.337-0.516,2.418,0,3.247c0.583,0.7,2.422,2.196,5.521,4.487c6.395,4.839,11.432,9.868,15.112,15.089
		c3.748,5.284,5.94,10.504,6.59,15.66c0.192,1.847,0.192,3.82,0,5.921c-0.065,2.101-0.326,3.82-0.775,5.157
		c-0.387,1.082-0.322,1.4,0.192,0.955c0.583-0.445,1.324-1.432,2.229-2.96c0.968-1.655,1.58-3.788,1.839-6.399
		C232.762,135.968,232.632,133.453,232.115,130.971z M225.626,130.207c-1.423-3.82-3.781-7.735-7.074-11.747
		c-3.29-4.074-7.199-7.766-11.722-11.077c-3.292-2.482-5.13-3.788-5.521-3.915c-0.387-0.064-0.483,0.891-0.291,2.865
		c0.063,1.527,0.291,2.61,0.683,3.246c0.319,0.574,1.254,1.529,2.807,2.866c3.939,3.438,7.166,6.716,9.688,9.835
		c2.521,3.119,4.487,6.303,5.91,9.549c1.032,2.547,1.547,5.443,1.547,8.69c0,3.183-0.483,5.698-1.453,7.543
		c-0.643,1.21-0.968,2.005-0.968,2.388c-0.063,0.445,0.13,1.083,0.582,1.909l0.968,1.815l1.747-1.527
		c0.448-0.51,0.968-1.178,1.546-2.006c0.648-0.954,1.161-1.847,1.553-2.674c0.902-2.038,1.354-4.87,1.354-8.499
		C227.044,135.84,226.595,132.753,225.626,130.207z M229.017,118.365c1.483,2.419,2.743,5.061,3.775,7.926
		c1.097,2.802,1.646,4.902,1.646,6.303c0.063,1.209,0.291,1.846,0.683,1.91c0.386,0.063,0.612-0.478,0.675-1.624
		c0.192-2.802-0.063-5.603-0.774-8.404c-0.713-2.738-1.937-5.793-3.683-9.167c-1.744-3.311-4.454-6.78-8.135-10.408
		c-3.682-3.63-7.2-6.304-10.562-8.022c-2.971-1.464-4.909-2.355-5.813-2.673c-0.969-0.319-1.806-0.286-2.516,0.095
		c-0.456,0.254-0.423,0.637,0.093,1.146c0.582,0.51,2.069,1.528,4.457,3.057c3.554,2.418,7.396,5.633,11.526,9.644
		C224.463,112.158,227.337,115.564,229.017,118.365z M83.222,194.666l-1.356-1.72l0.195,6.779c0.128,3.184,0.517,6.558,1.161,10.123
		c0.711,3.501,1.261,5.253,1.646,5.253c0.388,0,1.292-0.828,2.713-2.483c1.485-1.655,2.486-2.961,3.003-3.916
		c0.388-0.89,0.484-1.654,0.291-2.292c-0.195-0.573-1.129-2.164-2.81-4.775C85.74,198.071,84.126,195.747,83.222,194.666z
		 M73.244,116.264c5.038,6.748,13.142,8.085,24.316,4.011V94.492C72.954,99.521,64.848,106.778,73.244,116.264z M123.812,163.343
		c-0.387-0.826-1.001-1.274-1.841-1.338c-0.904-0.127-3.55,0-7.943,0.383c-2,0.129-3.196,0.287-3.584,0.479
		c-0.389,0.191-0.646,0.698-0.775,1.526c-0.129,0.765-0.063,1.21,0.194,1.337c0.129,0.129,0.741,0.065,1.841-0.189
		c0.645-0.129,1.711-0.223,3.196-0.288c1.487-0.063,2.939-0.095,4.359-0.095c3.553,0.063,5.327,0.032,5.327-0.095
		C124.585,164.934,124.328,164.362,123.812,163.343z M97.172,219.684c-0.324-0.89-0.615-1.688-0.873-2.387
		c-0.257-0.636-0.419-0.954-0.484-0.954c-0.257,0-1,0.477-2.228,1.431c-1.163,0.955-2.487,1.784-3.972,2.483l-2.227,1.146
		l2.227,3.725c1.357,2.354,3.038,4.583,5.039,6.685c1.938,2.037,3.131,2.831,3.584,2.388c0.452-0.448,0.58-2.483,0.388-6.112
		C98.302,224.459,97.818,221.659,97.172,219.684z"/>
	<path fill-rule="evenodd" clip-rule="evenodd" fill="#FFFFFF" d="M216.13,74.343l0.386,3.438l-9.49-9.358
		c-6.652-6.621-12.753-11.968-18.31-16.042c-5.487-4.138-11.654-7.926-18.5-11.364c-6.846-3.438-13.563-6.112-20.152-8.022
		c-6.652-1.973-14.402-3.564-23.249-4.774c-1.161-0.127-1.938-0.254-2.325-0.381c-0.323-0.255-0.42-0.573-0.29-0.955
		c0.193-0.828,0.386-1.878,0.581-3.151c0.13-0.828,0.226-1.306,0.289-1.432c0.26-0.319,0.681-0.51,1.261-0.574
		c0.84,0,4.263,0.414,10.269,1.241c14.663,2.165,27.998,6.462,40.006,12.892c12.078,6.431,22.672,14.929,31.777,25.498
		c3.423,3.819,5.488,6.367,6.196,7.639C215.354,70.269,215.874,72.051,216.13,74.343z M216.906,83.224
		c0.193,1.146,0.355,2.355,0.484,3.628l0.485,4.774l-9.88-9.454c-8.075-7.83-14.858-13.942-20.344-18.334
		c-5.491-4.457-11.24-8.437-17.244-11.937c-7.172-4.265-14.856-7.64-23.058-10.123c-8.2-2.482-15.563-3.724-22.086-3.724
		c-1.68,0-2.81-0.064-3.39-0.191c-0.581-0.127-0.84-0.318-0.776-0.573l2.617-7.066l4.261,0.381
		c2.584,0.191,6.427,0.796,11.528,1.814c9.75,2.038,19.278,5.316,28.575,9.836c9.304,4.583,18.056,10.25,26.256,16.998
		c2.713,2.229,6.816,6.08,12.302,11.556c5.491,5.41,8.688,8.786,9.594,10.122C216.423,81.25,216.649,82.014,216.906,83.224z
		 M213.709,64.316c-1.551-2.037-3.876-4.679-6.973-7.927c-2.971-3.183-5.621-5.793-7.944-7.83
		c-8.654-7.513-18.504-13.656-29.545-18.431c-10.98-4.775-22.799-7.989-35.458-9.645c-4.456-0.509-6.942-0.987-7.458-1.433
		c-0.387-0.317-0.517-0.732-0.387-1.241c0.063-0.382,0.419-1.146,1.064-2.292c0.712-1.401,1.648-2.165,2.81-2.291
		c1.099-0.127,4.103,0.126,9.011,0.764c24.605,3.5,46.951,15.215,67.033,35.141c3.167,3.183,5.104,5.252,5.812,6.207
		c0.648,0.892,1.261,2.452,1.843,4.68c0.712,2.61,1.063,4.201,1.063,4.775C214.643,65.303,214.357,65.144,213.709,64.316z
		 M214.094,93.346c-1.16-0.764-2.934-1.75-5.326-2.96c-2.324-1.273-4.553-2.418-6.682-3.438c-3.683-1.783-6.234-3.151-7.654-4.106
		c-1.42-1.019-3.649-2.991-6.687-5.921c-6.326-5.984-13.398-11.109-21.212-15.374c-7.814-4.329-16.177-7.671-25.091-10.027
		c-3.163-0.892-5.618-1.433-7.362-1.624c-1.744-0.127-4.875-0.223-9.396-0.287c-2.648-0.063-4.942-0.127-6.88-0.191
		c-1.873-0.063-2.807-0.158-2.807-0.287c0-0.127,0.225-0.668,0.677-1.623c0.388-1.018,0.905-2.133,1.55-3.342l2.229-4.584
		l6.49,0.383c1.744,0.126,3.842,0.35,6.297,0.667c2.389,0.254,4.391,0.573,6.006,0.955c4.261,0.828,8.072,1.814,11.429,2.96
		c3.426,1.146,7.398,2.802,11.915,4.966c7.302,3.565,14.177,7.766,20.638,12.604c6.33,4.775,14.079,11.618,23.248,20.531
		c3.553,3.438,6.586,6.398,9.104,8.881c2.521,2.546,3.779,3.883,3.779,4.01c0,0.128-0.419,0-1.259-0.382
		C216.26,94.714,215.262,94.109,214.094,93.346z M229.017,118.365c-1.68-2.801-4.554-6.207-8.626-10.218
		c-4.131-4.011-7.973-7.226-11.526-9.644c-2.388-1.528-3.875-2.547-4.457-3.057c-0.516-0.509-0.549-0.892-0.093-1.146
		c0.71-0.381,1.547-0.414,2.516-0.095c0.903,0.318,2.842,1.209,5.813,2.673c3.361,1.719,6.88,4.393,10.562,8.022
		c3.681,3.628,6.391,7.098,8.135,10.408c1.746,3.374,2.97,6.429,3.683,9.167c0.712,2.801,0.967,5.602,0.774,8.404
		c-0.063,1.146-0.289,1.687-0.675,1.624c-0.392-0.064-0.62-0.701-0.683-1.91c0-1.401-0.55-3.501-1.646-6.303
		C231.76,123.426,230.5,120.784,229.017,118.365z M225.626,130.207c0.969,2.546,1.418,5.633,1.354,9.262
		c0,3.629-0.452,6.461-1.354,8.499c-0.392,0.827-0.904,1.72-1.553,2.674c-0.578,0.828-1.098,1.496-1.546,2.006l-1.747,1.527
		l-0.968-1.815c-0.452-0.826-0.646-1.464-0.582-1.909c0-0.383,0.325-1.177,0.968-2.388c0.97-1.846,1.453-4.36,1.453-7.543
		c0-3.247-0.515-6.144-1.547-8.69c-1.423-3.246-3.39-6.43-5.91-9.549c-2.521-3.12-5.748-6.397-9.688-9.835
		c-1.553-1.336-2.487-2.292-2.807-2.866c-0.392-0.635-0.619-1.718-0.683-3.246c-0.192-1.974-0.096-2.929,0.291-2.865
		c0.392,0.127,2.229,1.433,5.521,3.915c4.522,3.311,8.432,7.002,11.722,11.077C221.845,122.472,224.203,126.387,225.626,130.207z
		 M232.115,130.971c0.517,2.482,0.646,4.998,0.387,7.543c-0.259,2.611-0.871,4.744-1.839,6.399c-0.905,1.528-1.646,2.515-2.229,2.96
		c-0.515,0.445-0.579,0.127-0.192-0.955c0.449-1.337,0.71-3.056,0.775-5.157c0.192-2.101,0.192-4.074,0-5.921
		c-0.649-5.156-2.842-10.376-6.59-15.66c-3.681-5.221-8.718-10.25-15.112-15.089c-3.1-2.292-4.938-3.787-5.521-4.487
		c-0.516-0.829-0.516-1.91,0-3.247c0.129-0.446,1.196-0.064,3.196,1.146c1.939,1.146,4.395,2.801,7.365,4.966
		c5.036,3.883,9.36,8.307,12.979,13.273C228.951,121.708,231.212,126.451,232.115,130.971z M217.391,148.063
		c-0.192-0.19-0.905-2.037-2.129-5.539c-1.102-2.992-2.263-5.793-3.489-8.403c-1.228-2.483-2.874-5.412-4.942-8.786
		c-1.162-1.974-2.26-4.17-3.292-6.589c-0.971-2.42-1.452-4.107-1.452-5.062c0-0.445,0.903,0.095,2.711,1.624
		c1.873,1.592,3.619,3.311,5.23,5.157c3.231,3.565,5.621,7.002,7.171,10.313c1.548,3.374,2.324,6.748,2.324,10.122
		c0,1.655-0.259,3.342-0.776,5.062C218.231,147.746,217.776,148.446,217.391,148.063z M215.064,160.765
		c-4.646-9.167-6.975-13.846-6.975-14.038c0-0.127,0.256-0.223,0.774-0.286c0.52,0,1.163,0,1.939,0h2.615l2.519,4.202
		c2.844,5.092,5.714,10.695,8.621,16.807c2.842,5.985,4.551,10.122,5.133,12.414c0.586,2.293,0.972,5.094,1.164,8.402
		c0.193,3.376,0.063,5.793-0.386,7.261c-0.129,0.506-0.326,0.539-0.583,0.094c-0.259-0.509-0.644-1.72-1.162-3.63
		c-1.161-3.754-2.778-8.021-4.845-12.796C221.815,174.419,218.874,168.275,215.064,160.765z M223.88,185.783
		c2.521,6.621,3.876,12.414,4.069,17.381c0.129,4.966-0.936,8.976-3.197,12.033c-0.579,0.89-1.71,2.005-3.392,3.342
		c-1.676,1.337-2.646,1.909-2.905,1.718c-0.064-0.063-0.03-0.478,0.097-1.241c0.194-0.699,0.422-1.526,0.679-2.482
		c0.389-1.336,0.612-2.643,0.679-3.915c0.13-1.273,0.13-3.024,0-5.254c-0.323-4.838-1.614-10.758-3.876-17.761
		c-2.259-7.004-6.1-17.061-11.526-30.176c-3.163-7.703-4.681-11.619-4.554-11.746c0.13-0.128,0.742-0.319,1.84-0.574
		c1.034-0.254,1.938-0.477,2.714-0.667c0.193,0,3.134,5.665,8.815,16.997c2.388,4.712,4.584,9.232,6.587,13.562
		C222.041,181.392,223.361,184.319,223.88,185.783z M216.322,217.392c-0.642,1.91-1.772,3.599-3.389,5.063l-1.84,1.72v-4.013
		c0-5.601-1.324-13.4-3.972-23.396c-2.581-9.932-6.2-20.943-10.852-33.041c-0.838-2.292-1.579-4.424-2.228-6.397
		c-0.643-1.973-0.969-3.184-0.969-3.629c0-0.828,0.583-1.91,1.746-3.247c1.225-1.274,2.035-1.719,2.422-1.337
		c0.319,0.319,2.519,5.476,6.586,15.471c5.359,13.177,8.912,22.789,10.657,28.838c1.808,5.985,2.713,11.428,2.713,16.329
		C217.262,212.936,216.971,215.482,216.322,217.392z M131.271,9.884c3.165-3.311,8.946-4.074,17.343-2.292
		c7.813,1.592,16.047,4.679,24.702,9.263c8.589,4.583,15.983,9.803,22.181,15.66c2.777,2.675,5.329,5.38,7.654,8.117
		c2.325,2.802,3.972,5.093,4.939,6.876c0.192,0.382-0.159,0.223-1.064-0.478c-0.904-0.7-2.132-1.75-3.68-3.15
		c-9.752-9.167-20.699-16.648-32.845-22.441c-12.074-5.729-23.827-9.009-35.259-9.836l-5.328-0.382L131.271,9.884z M112.768,55.339
		c0.257-0.19,1.421-0.541,3.486-1.049c2.197-0.574,5.621-0.829,10.269-0.765c4.585,0,8.557,0.287,11.915,0.86
		c5.555,0.955,11.625,2.674,18.215,5.157c6.52,2.546,12.432,5.443,17.723,8.69c4.139,2.482,8.526,5.602,13.177,9.358
		c4.65,3.819,5.978,5.348,3.975,4.583c-3.36-1.337-7.397-2.737-12.109-4.201c-4.778-1.464-8.947-2.642-12.499-3.534l-16.276-3.915
		c-5.874-1.401-10.912-2.324-15.11-2.77c-4.131-0.51-8.847-0.732-14.142-0.669l-9.399,0.192l-0.386-2.005
		c-0.13-1.02-0.034-2.834,0.289-5.444C112.219,57.154,112.511,55.657,112.768,55.339z M88.646,74.724
		c4.65-1.146,8.879-1.909,12.689-2.292c3.554-0.382,10.883-0.477,21.991-0.287c11.173,0.192,18.599,0.511,22.282,0.956
		c2.712,0.382,3.487,0.605,2.326,0.668c-1.231,0.064-6.009,0.096-14.34,0.096c-12.787,0.064-23.927,0.604-33.42,1.623
		c-9.494,1.02-18.083,2.643-25.768,4.871c-0.84,0.255,0.257-0.382,3.294-1.909C80.412,77.239,84.062,75.999,88.646,74.724z
		 M150.356,90.481c3.356,0.063,5.878,0.191,7.554,0.382c1.614,0.255,3.424,0.701,5.426,1.336c1.42,0.382,2.841,0.923,4.261,1.623
		c1.423,0.764,2.619,1.464,3.586,2.102c1.678,1.273,3.13,2.896,4.361,4.869c1.224,1.975,1.839,3.694,1.839,5.158
		c0,0.891,0.646,1.878,1.937,2.96c1.161,1.083,4.714,3.724,10.654,7.927c11.756,8.53,15.793,11.714,12.112,9.549l-24.605-14.229
		l-1.937,3.534c-1.168,2.165-2.488,3.915-3.975,5.252c-1.551,1.336-3.583,2.579-6.104,3.724c-3.682,1.72-7.78,2.452-12.301,2.197
		c-4.521-0.319-9.204-1.592-14.047-3.82l-4.359-2.101V91.436l3.777-0.668c1.035-0.127,2.715-0.223,5.04-0.287
		C145.898,90.354,148.157,90.354,150.356,90.481z M165.854,142.525c2.971,0.891,5.588,2.515,7.847,4.871
		c2.263,2.292,4.132,5.284,5.618,8.977c0.52,1.271,0.871,2.608,1.068,4.01c0.256,1.4,0.419,3.311,0.482,5.729
		c0.259,5.793-0.356,10.981-1.843,15.566c-1.484,4.582-3.712,8.339-6.684,11.268c-2.455,2.292-7.458,5.539-15.014,9.741
		c-7.557,4.263-14.176,7.513-19.859,9.739c-1.81,0.701-3.198,1.146-4.167,1.338c-1.033,0.126-2.486,0.126-4.359,0
		c-4.132-0.256-7.715-1.464-10.753-3.63c-3.034-2.101-4.843-4.646-5.424-7.639c-0.192-1.083-0.161-1.846,0.097-2.293
		c0.195-0.508,0.904-1.336,2.132-2.482c0.838-0.7,1.938-1.465,3.292-2.293c1.357-0.892,2.681-1.621,3.974-2.194
		c2.518-1.084,4.1-2.069,4.745-2.961c0.647-0.892,0.744-2.259,0.291-4.106c-0.323-1.4-1.033-2.419-2.13-3.055
		c-1.099-0.574-3.101-1.082-6.006-1.53c-3.359-0.506-5.781-1.05-7.267-1.622c-1.548-0.573-2.325-1.272-2.325-2.101
		c0-0.827,0.549-1.466,1.648-1.909c1.357-0.575,3.811-1.116,7.361-1.625c3.488-0.509,7.33-0.89,11.529-1.146
		c3.486-0.255,5.749-0.476,6.781-0.669c0.968-0.254,1.709-0.668,2.227-1.24c0.323-0.383,0.582-0.797,0.775-1.242
		c0.193-0.446,0.291-0.796,0.291-1.051c0-0.765-2.26-2.704-6.781-5.823c-4.522-3.185-8.654-5.699-12.4-7.545
		c-1.614-0.828-2.713-1.242-3.293-1.242c-0.518-0.127-1.614,0.063-3.295,0.574c-2.001,0.572-3.615,0.892-4.843,0.955
		c-1.226,0-1.839-0.225-1.839-0.67s1.13-1.718,3.391-3.819c2.259-2.166,4.196-3.82,5.813-4.965l2.615-1.72l7.846,0.287
		c3.811,0.19,6.297,0.223,7.461,0.095c1.161-0.127,2.807-0.572,4.939-1.337c2.906-1.018,5.361-1.718,7.363-2.1
		c2.13-0.382,5.327-0.477,9.588-0.287C161.011,141.57,164.048,141.953,165.854,142.525z M116.546,127.915
		c-1.098-0.446-1.873-0.382-2.325,0.191c-0.323,0.51-0.355,1.37-0.097,2.579c0.257,1.209,0.678,2.259,1.259,3.151
		c0.519,0.827,0.614,1.433,0.291,1.814c-0.323,0.446-1.064,0.668-2.229,0.668c-0.968,0-1.646-0.223-2.034-0.668
		c-0.388-0.381-0.677-1.209-0.871-2.482c-0.387-2.101-1.323-3.088-2.809-2.96c-1.356,0.19-2.357,1.4-3.005,3.628
		c-0.257,1.082-0.516,1.719-0.773,1.91c-0.195,0.254-0.646,0.286-1.357,0.095c-0.711-0.126-1.129-0.286-1.26-0.477
		c-0.128-0.318-0.128-0.923,0-1.814c0.389-2.292,1.453-4.839,3.198-7.64c1.744-2.801,3.293-4.457,4.65-4.966
		c0.968-0.382,1.71-0.541,2.227-0.478c0.517,0.126,1.648,0.573,3.391,1.336c3.358,1.528,6.749,3.661,10.171,6.398
		c3.488,2.738,5.103,4.583,4.844,5.538c-0.193,1.146-0.904,1.529-2.13,1.146c-1.228-0.318-3.067-1.4-5.522-3.246
		C119.517,129.665,117.644,128.424,116.546,127.915z M87.581,179.386c-1.033-0.828-0.872-1.688,0.484-2.579
		s4.748-2.354,10.172-4.392c6.974-2.736,10.56-4.105,10.752-4.105c0.259,0,0.581,0.253,0.968,0.763
		c0.969,0.892,1.034,1.654,0.195,2.292c-0.776,0.701-3.036,1.75-6.781,3.152c-7.492,2.864-11.851,4.487-13.078,4.869
		C89.066,179.769,88.162,179.769,87.581,179.386z M123.812,163.343c0.516,1.02,0.773,1.591,0.773,1.72
		c0,0.127-1.774,0.158-5.327,0.095c-1.42,0-2.872,0.032-4.359,0.095c-1.485,0.065-2.551,0.159-3.196,0.288
		c-1.1,0.255-1.712,0.318-1.841,0.189c-0.256-0.127-0.323-0.572-0.194-1.337c0.13-0.828,0.387-1.335,0.775-1.526
		c0.388-0.191,1.583-0.35,3.584-0.479c4.393-0.383,7.039-0.51,7.943-0.383C122.811,162.068,123.425,162.517,123.812,163.343z
		 M73.244,116.264c-8.396-9.486-0.29-16.743,24.316-21.772v25.783C86.385,124.349,78.282,123.012,73.244,116.264z"/>
</g>
</svg>
