<?xml version="1.0" encoding="utf-8"?>
<!-- Generator: Adobe Illustrator 16.0.0, SVG Export Plug-In . SVG Version: 6.00 Build 0)  -->
<!DOCTYPE svg PUBLIC "-//W3C//DTD SVG 1.1//EN" "http://www.w3.org/Graphics/SVG/1.1/DTD/svg11.dtd">
<svg version="1.1" id="Layer_1" xmlns="http://www.w3.org/2000/svg" xmlns:xlink="http://www.w3.org/1999/xlink" x="0px" y="0px"
	 width="300px" height="300px" viewBox="0 0 300 300" enable-background="new 0 0 300 300" xml:space="preserve">
<g>
	<path fill-rule="evenodd" clip-rule="evenodd" fill="#FFFFFF" d="M193.631,149.573h72.825c-0.255,0.307-0.507,0.613-0.758,0.919
		c1.8,6.607,3.052,13.479,3.754,20.611H124.461v26.781h145.354c-0.307,4.642-0.801,9.368-1.482,14.179
		c-0.176,1.399-0.373,2.8-0.593,4.199H47.651c-0.22-1.399-0.395-2.8-0.527-4.199c-0.834-6.872-1.274-13.544-1.318-20.021
		c-0.088-5.383,0.088-10.612,0.527-15.688c0.132-1.75,0.308-3.501,0.527-5.251c0.22-1.706,0.461-3.391,0.725-5.056
		c-0.044-0.043-0.088-0.108-0.132-0.195c-1.713-1.575-3.36-3.217-4.94-4.923c-6.676-6.871-12.561-14.069-17.654-21.596
		c-4.656-6.871-8.63-14.003-11.924-21.398C7.357,105.463,3.712,92.27,2,78.354c2.503,10.59,6.148,20.743,10.935,30.458
		c3.425,6.827,7.4,13.434,11.924,19.823c4.435,6.214,9.398,12.23,14.887,18.051c3.25,3.326,6.522,6.476,9.816,9.453h0.065
		c0.308-1.444,0.681-2.889,1.12-4.333l0.395-1.51c1.8-6.17,4.041-12.078,6.719-17.722c0.219-0.525,0.461-1.072,0.725-1.641
		c1.362-2.845,2.701-4.748,4.019-5.71l39.393,13.981c3.03,1.094,6.039,2.341,9.025,3.742c4.137,1.938,8.145,4.147,12.022,6.629
		c0.475,0.302,0.947,0.609,1.416,0.919c5.245,3.477,10.251,7.459,15.02,11.945c0.834-3.062,2.437-5.731,4.809-8.007
		c0.922-0.874,1.888-1.641,2.898-2.298c8.521,4.246,15.789,4.246,21.805,0c1.229,0.743,2.416,1.663,3.558,2.757
		c2.021,2.057,3.426,4.354,4.216,6.893v0.197C182.107,157.217,187.729,153.082,193.631,149.573z M51.868,238.844h68.708
		c-3.154,1.758-6.536,3.398-10.145,4.923c-2.284,0.876-4.677,1.773-7.18,2.691c-18.314,5.689-31.862,10.656-40.645,14.9
		c-3.162-0.875-5.402-3.348-6.719-7.418C54.381,248.816,53.042,243.783,51.868,238.844z M262.865,238.844
		c-1.47,5.563-3.16,11.23-5.072,17.001c-1.492,3.982-3.777,6.367-6.852,7.155c-8.827-4.465-22.244-9.912-40.249-16.345
		c-0.834-0.307-1.625-0.613-2.371-0.92c-5.106-2.088-9.785-4.386-14.032-6.892H262.865z"/>
	<path fill-rule="evenodd" clip-rule="evenodd" fill="#0044D2" d="M267.74,216.263c-1.199,7.328-2.824,14.854-4.875,22.581h-68.576
		c-7.584-4.476-13.799-9.617-18.642-15.426c-0.044,0-0.067-0.043-0.067-0.131c-0.921,2.363-2.349,4.507-4.281,6.433
		c-1.098,1.051-2.262,1.948-3.491,2.692c-5.752-4.158-12.891-4.29-21.41-0.395c-1.23-0.788-2.35-1.685-3.36-2.692
		c-1.844-1.837-3.162-3.85-3.953-6.038v1.115c-4.022,4.487-8.897,8.535-14.624,12.145c-1.255,0.786-2.55,1.552-3.886,2.297H51.868
		c-1.818-7.755-3.224-15.282-4.216-22.581H267.74z M269.452,171.104c0.177,1.75,0.33,3.501,0.462,5.251
		c0.175,3.15,0.264,6.345,0.264,9.583c0,1.227,0,2.408,0,3.545c-0.05,2.77-0.171,5.571-0.362,8.402H124.461v-26.781H269.452z
		 M193.631,149.573c4.715-2.809,9.612-5.216,14.69-7.221c2.459-1.05,4.919-1.969,7.377-2.756l39.987-12.603
		c0.131,0.043,0.219,0.152,0.263,0.328c1.099,1.444,2.131,3.041,3.097,4.792c0.131,0.263,0.219,0.482,0.264,0.657
		c0.175,0.35,0.329,0.678,0.461,0.984c0.746,1.663,1.427,3.348,2.042,5.055c0.043-0.088,0.087-0.153,0.132-0.197
		c8.476-10.065,15.393-20.764,20.751-32.098c1.405-2.976,2.7-5.974,3.886-8.993c6.412-16.41,9.794-34.155,10.145-53.234
		c0.044-2.494,0.044-4.923,0-7.287c0.967,7.702,1.384,15.601,1.252,23.696c-0.22,12.909-1.889,25.184-5.006,36.825
		c-0.791,3.019-1.69,6.017-2.701,8.993c-5.236,15.523-13.173,29.877-23.813,43.06H193.631z"/>
	<path fill-rule="evenodd" clip-rule="evenodd" d="M106.478,156.138l0.132-0.264l0.065,0.132l0.528-0.394l-7.378,11.421
		c0.614-0.043,1.208-0.109,1.779-0.196c0.176-0.045,0.352-0.088,0.527-0.132c1.142-0.262,2.35-0.787,3.623-1.574
		c1.318-0.789,2.24-1.226,2.767-1.313c1.098-0.219,2.371,0.044,3.821,0.787l0.659,0.328h-0.856c-1.23,0-2.174,0.198-2.833,0.592
		c-0.395,0.263-0.9,0.832-1.515,1.706c-0.703,1.006-1.383,1.815-2.042,2.429c-1.098,1.007-2.547,1.903-4.348,2.691l13.9,2.494
		l-13.175,2.625c0.571,0.525,1.142,0.985,1.712,1.378c0.044,0.044,0.088,0.088,0.132,0.133c1.01,0.656,2.24,1.181,3.689,1.575
		c0.835,0.218,1.362,0.372,1.581,0.459c0.483,0.175,0.923,0.394,1.318,0.657c0.878,0.612,1.581,1.685,2.108,3.216v0.065l0.198,0.787
		l-0.461-0.59c-0.922-0.964-1.757-1.531-2.503-1.708c-0.483-0.13-1.208-0.108-2.174,0.067c-1.23,0.218-2.284,0.284-3.162,0.195
		c-1.494-0.13-3.141-0.566-4.94-1.313l7.444,10.963c0,0.044,0.021,0.065,0.065,0.065l0.659,0.984l-11.132-7.876
		c0,0.131,0.022,0.283,0.065,0.458c0.044,0.702,0.132,1.358,0.264,1.97c0.22,1.226,0.725,2.495,1.515,3.808
		c0.791,1.313,1.229,2.275,1.317,2.889c0.087,0.569,0.066,1.202-0.066,1.902c-0.088,0.613-0.308,1.292-0.659,2.036l-0.329,0.722
		v-0.788c0-0.131,0-0.262,0-0.394c-0.044-0.612-0.109-1.138-0.198-1.576c-0.087-0.438-0.219-0.809-0.395-1.115
		c-0.264-0.438-0.813-0.963-1.646-1.575c-1.01-0.744-1.801-1.466-2.372-2.165c-0.922-1.183-1.778-2.67-2.569-4.465l-2.174,12.8
		v0.263l-0.198,1.313l-0.198-1.05v-0.066l-2.371-12.537c-0.571,0.613-1.055,1.248-1.45,1.903c-0.615,1.05-1.098,2.32-1.449,3.808
		c-0.351,1.488-0.703,2.45-1.054,2.888v0.067c-0.527,0.83-1.493,1.53-2.899,2.1l-0.132,0.065c-0.043,0-0.109,0-0.197,0l-0.725,0.327
		l0.659-0.59v-0.065c0.044-0.044,0.088-0.088,0.132-0.132v-0.064c0.57-0.396,0.988-0.964,1.251-1.708v-0.065
		c0.088-0.219,0.154-0.394,0.198-0.524c0.088-0.525,0.044-1.292-0.131-2.298c-0.176-1.313-0.22-2.407-0.132-3.281
		c0.043-1.356,0.351-2.823,0.922-4.399c0.044-0.219,0.132-0.458,0.264-0.722l-10.804,7.942l-0.066,0.066h-0.065l-0.527,0.46
		l0.396-0.656l-0.066-0.065l0.198-0.198l6.917-10.633c-0.835,0.043-1.603,0.152-2.306,0.328c-1.187,0.262-2.416,0.787-3.689,1.574
		c-1.273,0.789-2.174,1.248-2.701,1.379c-1.054,0.176-2.328-0.109-3.821-0.853l-0.593-0.395h0.791c1.229,0,2.174-0.196,2.833-0.591
		c0.439-0.263,0.944-0.811,1.515-1.641c0.703-1.05,1.384-1.859,2.042-2.429c1.097-1.007,2.547-1.903,4.347-2.691l-13.899-2.56
		l13.175-2.56c-0.571-0.569-1.165-1.05-1.779-1.445l-0.132-0.065c-0.219-0.176-0.439-0.329-0.659-0.459
		c-0.878-0.48-1.866-0.854-2.964-1.116c-1.493-0.395-2.459-0.766-2.899-1.116c-0.703-0.481-1.273-1.247-1.712-2.298
		c-0.132-0.263-0.264-0.568-0.395-0.918v-0.132l-0.198-0.655l0.461,0.458c0.396,0.395,0.747,0.745,1.054,1.05
		c0.527,0.352,1.01,0.592,1.449,0.725c0.483,0.086,1.23,0.064,2.24-0.067c1.186-0.175,2.218-0.241,3.096-0.196
		c1.449,0.087,3.096,0.524,4.94,1.313l-8.168-12.013l11.067,7.876c0-0.876-0.088-1.685-0.263-2.428
		c-0.176-0.745-0.417-1.511-0.725-2.298c-0.263-0.48-0.527-0.984-0.79-1.51c-0.747-1.356-1.186-2.319-1.317-2.889
		c-0.22-1.05,0-2.317,0.659-3.807c0-0.045,0.022-0.088,0.065-0.132l0.33-0.59v0.657c0,1.357,0.197,2.385,0.593,3.085
		c0.307,0.438,0.856,0.963,1.646,1.575c0.966,0.744,1.756,1.466,2.372,2.165c0.307,0.396,0.615,0.811,0.922,1.248v0.065
		c0.614,0.919,1.186,1.992,1.712,3.217l2.306-14.441l0.198,1.182v0.065l2.372,12.407c0.527-0.613,0.988-1.248,1.383-1.904
		c0.659-1.007,1.186-2.275,1.581-3.807c0.352-1.532,0.681-2.516,0.988-2.955c0.571-0.874,1.625-1.598,3.162-2.165v-0.064l0.791-0.33
		l-0.593,0.59c-0.922,0.964-1.471,1.839-1.647,2.626c-0.087,0.481-0.043,1.247,0.132,2.298c0.176,1.269,0.219,2.363,0.132,3.281
		c-0.088,1.532-0.483,3.262-1.186,5.187L106.478,156.138z M95.147,168.543c0.747,0.831,1.339,1.707,1.779,2.626l8.563-13.521
		l-10.474,10.83C95.06,168.521,95.103,168.543,95.147,168.543z M92.71,166.705c0.703,0.352,1.383,0.854,2.042,1.51l10.342-10.567
		L92.71,166.705z M92.051,166.902l-0.132,0.131v-0.131c-0.044,0-0.088-0.021-0.132-0.065c-0.966-0.35-1.955-0.525-2.964-0.525
		c-0.044,0-0.087,0-0.132,0c-1.142,0-2.174,0.219-3.097,0.656h-0.065v0.197l-0.065-0.132c-0.966,0.438-1.823,1.052-2.569,1.839
		c-0.044,0-0.066,0.021-0.066,0.065l-1.647,2.429c-0.044,0.131-0.11,0.241-0.198,0.329l0.132,0.064h-0.132c0,0.044,0,0.088,0,0.131
		c-0.395,1.007-0.593,2.102-0.593,3.282c0.044,1.182,0.263,2.275,0.659,3.282l0.066,0.132c0.396,1.006,1.01,1.946,1.844,2.821
		c0.835,0.789,1.735,1.401,2.701,1.839c0.044,0,0.087,0.021,0.132,0.065c1.01,0.393,2.064,0.591,3.162,0.591
		c1.142,0,2.174-0.219,3.096-0.656c0.043,0,0.087-0.022,0.131-0.065h0.132l2.306-1.576c0.044-0.131,0.132-0.24,0.264-0.328
		l0.065-0.064h0.066c0-0.088,0.022-0.133,0.065-0.133l1.582-2.625v-0.065l0.065-0.065c0.395-1.007,0.571-2.102,0.527-3.282
		c0-1.226-0.197-2.342-0.592-3.347l-0.066-0.133c-0.439-1.006-1.076-1.903-1.91-2.69c-0.791-0.875-1.668-1.511-2.635-1.904V166.902z
		 M90.799,161.586v-0.065l-2.108-10.766l0.264,15.293c1.01,0,1.976,0.155,2.898,0.461l-0.988-4.529v0.065L90.799,161.586z
		 M102.196,167.033c-0.176,0.087-0.352,0.132-0.527,0.132c-0.659,0.088-1.339,0.153-2.042,0.196l-2.372,3.938
		c2.986-0.831,5.709-2.341,8.169-4.527c1.844-1.708,3.579-2.539,5.204-2.495c-0.746-0.219-1.427-0.285-2.042-0.198
		c-0.527,0.132-1.405,0.591-2.635,1.379C104.633,166.245,103.381,166.772,102.196,167.033z M95.345,152.79
		c-0.352,0.438-0.704,1.4-1.055,2.888c-0.351,1.533-0.856,2.822-1.515,3.873c-0.439,0.7-0.988,1.422-1.646,2.166l1.054,4.595
		c1.494-1.794,2.306-4.529,2.438-8.205c0.088-3.02,0.922-5.339,2.503-6.958C96.333,151.587,95.74,152.133,95.345,152.79z
		 M96.663,158.763c0.087-0.876,0.022-1.924-0.198-3.15c-0.176-1.095-0.198-1.903-0.065-2.43c0.087-0.393,0.242-0.787,0.461-1.18
		c-1.186,1.486-1.8,3.522-1.844,6.104c-0.132,3.238-0.813,5.799-2.042,7.681l2.438-1.772
		C96.157,162.09,96.574,160.338,96.663,158.763z M80.984,155.612c-0.878-0.656-1.449-1.226-1.713-1.707
		c-0.264-0.438-0.461-1.05-0.593-1.838c-0.131,2.232,0.835,4.354,2.898,6.367c2.108,2.232,3.381,4.616,3.821,7.155l0.461-3.217
		c-0.483-1.269-1.032-2.385-1.647-3.348l-0.066-0.065c-0.264-0.437-0.549-0.854-0.856-1.247
		C82.719,157.057,81.95,156.356,80.984,155.612z M78.283,152.396c-0.132,0.787-0.154,1.489-0.066,2.101
		c0.088,0.568,0.505,1.488,1.251,2.757c0.264,0.524,0.549,1.051,0.856,1.575c0.308,0.789,0.55,1.576,0.725,2.364
		c0.176,0.831,0.285,1.729,0.33,2.69l3.82,2.561c-0.307-2.758-1.603-5.318-3.887-7.681
		C79.293,156.706,78.283,154.584,78.283,152.396z M94.159,171.563c-0.571-0.351-1.186-0.524-1.844-0.524
		c-0.791,0.044-1.405,0.241-1.845,0.59c-0.219,0.176-0.373,0.285-0.461,0.329c-0.132,0.131-0.219,0.153-0.263,0.065
		c-0.132-0.087,0.131-0.395,0.79-0.919c0.615-0.525,1.098-0.809,1.449-0.854c0.308-0.044,0.813,0.065,1.515,0.328
		c0.703,0.263,1.208,0.591,1.516,0.984c-0.088,0.089-0.198,0.133-0.33,0.133C94.598,171.695,94.422,171.651,94.159,171.563z
		 M92.38,171.891c0.483,0,0.944,0.152,1.383,0.46c0.439,0.35,0.725,0.59,0.856,0.722c-0.132,0-0.417-0.152-0.856-0.46
		c-0.043,0-0.11-0.021-0.197-0.065c0.043,0.089,0.087,0.176,0.132,0.263c0.043,0.175,0.022,0.328-0.066,0.46
		c0.088-0.044,0.197-0.109,0.33-0.197c0.088-0.132,0.11-0.132,0.066,0c-0.088,0.088-0.22,0.197-0.396,0.328
		c-0.527,0.438-0.966,0.657-1.317,0.657c-0.439,0-0.878-0.089-1.318-0.263c-0.439-0.218-0.592-0.416-0.461-0.592
		c0.088-0.131,0.286-0.109,0.593,0.066c0.351,0.308,0.659,0.46,0.922,0.46c-0.176-0.089-0.374-0.263-0.593-0.526
		c-0.264-0.263-0.351-0.547-0.264-0.853c-0.176,0.088-0.482,0.329-0.922,0.722v-0.064c0.044-0.483,0.241-0.788,0.592-0.92
		C91.172,171.957,91.677,171.891,92.38,171.891z M97.716,171.563l3.359,0.591c1.845-0.83,3.315-1.751,4.414-2.756
		c0.659-0.569,1.339-1.356,2.042-2.364c0.571-0.918,1.098-1.509,1.581-1.771c0.483-0.307,1.098-0.503,1.845-0.592
		c-1.625-0.175-3.381,0.613-5.27,2.363C103.272,169.178,100.615,170.687,97.716,171.563z M97.255,171.957
		c0.308,0.874,0.483,1.815,0.527,2.822l14.559-0.066L97.255,171.957z M93.369,172.482c-0.176-0.088-0.329-0.154-0.461-0.198
		c0.176,0.22,0.22,0.525,0.132,0.919c-0.088,0.22-0.176,0.351-0.264,0.395c0.132,0,0.242-0.021,0.33-0.065
		c0.132-0.044,0.264-0.088,0.395-0.132c0.044-0.219,0.044-0.416,0-0.591C93.456,172.68,93.413,172.568,93.369,172.482z
		 M88.625,166.048l-0.264-15.686l-2.569,16.212c0.482-0.175,0.988-0.307,1.515-0.394l0.988-0.133
		C88.384,166.048,88.494,166.048,88.625,166.048z M85.266,171.891c0.659,0,1.142,0.066,1.449,0.197
		c0.396,0.176,0.615,0.504,0.659,0.984c-0.439-0.393-0.746-0.612-0.922-0.655c0.088,0.263,0,0.547-0.264,0.853
		c-0.219,0.219-0.417,0.394-0.593,0.525c0.308-0.044,0.615-0.218,0.923-0.525c0.307-0.132,0.505-0.132,0.593,0
		c0.131,0.175-0.021,0.351-0.461,0.525c-0.396,0.218-0.813,0.328-1.252,0.328c-0.351,0-0.813-0.219-1.383-0.656
		c-0.175-0.131-0.307-0.241-0.396-0.329c-0.044-0.086-0.022-0.086,0.066,0c0.132,0.044,0.241,0.088,0.329,0.132
		c-0.044-0.088-0.066-0.218-0.066-0.395c0.044-0.086,0.088-0.175,0.132-0.263c-0.087,0.044-0.154,0.088-0.198,0.133
		c-0.439,0.263-0.724,0.393-0.856,0.393c0.132-0.086,0.395-0.307,0.791-0.655C84.255,172.088,84.739,171.891,85.266,171.891z
		 M79.996,174.713c0-0.874,0.132-1.815,0.396-2.822l-4.479,1.117v0.064l-10.738,2.035L79.996,174.713z M80.786,171.169
		c0.396-0.874,0.922-1.685,1.582-2.429l-10.672-10.897L80.786,171.169z M82.96,171.825c-0.131,0-0.263-0.065-0.395-0.197
		c0.308-0.349,0.834-0.677,1.581-0.985c0.659-0.261,1.142-0.371,1.449-0.327c0.308,0.043,0.813,0.327,1.516,0.854
		c0.659,0.482,0.922,0.767,0.79,0.854c-0.087,0.088-0.175,0.065-0.263-0.065c-0.088,0-0.22-0.088-0.396-0.262
		c-0.527-0.396-1.186-0.592-1.976-0.592c-0.614,0.044-1.229,0.22-1.844,0.524C83.158,171.76,83.004,171.825,82.96,171.825z
		 M80.325,163.62c-0.087,0-0.131-0.044-0.131-0.13l-7.971-5.58l10.408,10.633c0.703-0.743,1.472-1.334,2.306-1.771l-3.557-2.495
		v0.064L80.325,163.62z M84.146,172.875c-0.044,0.219-0.021,0.417,0.066,0.592c0.132,0.043,0.242,0.087,0.329,0.131
		c0.132,0.087,0.242,0.132,0.33,0.132c-0.087-0.132-0.176-0.285-0.264-0.46c-0.087-0.35-0.044-0.634,0.132-0.853
		c-0.132,0.043-0.285,0.087-0.461,0.13C84.234,172.636,84.19,172.745,84.146,172.875z M87.308,176.42
		c0,0.175,0.132,0.263,0.395,0.263c0.219,0,0.396-0.088,0.527-0.263c-0.087,0.263-0.065,0.439,0.066,0.525
		c0.087,0.088,0.285,0.132,0.592,0.132c0.264-0.044,0.439-0.088,0.527-0.132c0.176-0.131,0.22-0.328,0.131-0.591
		c0.088,0.22,0.242,0.328,0.461,0.328c0.308,0,0.461-0.108,0.461-0.328c-0.087-0.132-0.153-0.263-0.197-0.394
		c-0.088-0.087-0.132-0.197-0.132-0.328c0.219,0.044,0.395,0.285,0.527,0.722c0.132,0.394,0.308,0.591,0.527,0.591
		c0.264,0,0.483,0.132,0.659,0.395l0.198,0.328c-0.176-0.177-0.461-0.307-0.857-0.394c-0.351-0.132-0.681-0.197-0.988-0.197
		c-0.219,0-0.438,0.065-0.659,0.197c-0.263,0.174-0.482,0.261-0.659,0.261c-0.176,0-0.373-0.065-0.592-0.195
		c-0.264-0.177-0.505-0.263-0.725-0.263c-0.308,0.043-0.659,0.109-1.054,0.197c-0.352,0.131-0.615,0.261-0.791,0.394l0.132-0.263
		c0.219-0.263,0.439-0.416,0.659-0.46c0.219,0,0.395-0.197,0.527-0.591c0.175-0.437,0.374-0.656,0.593-0.656
		c0,0.088-0.044,0.176-0.132,0.263C87.418,176.092,87.352,176.246,87.308,176.42z M79.996,170.972l-1.844-2.757
		c-1.888-0.787-3.557-1.247-5.006-1.378c-0.834-0.045-1.866,0.021-3.096,0.196c-1.054,0.176-1.845,0.22-2.372,0.132
		c-0.439-0.175-0.944-0.46-1.516-0.854c-0.087-0.087-0.219-0.196-0.395-0.329c1.23,1.707,3.931,2.672,8.103,2.89
		C76.373,169.222,78.415,169.922,79.996,170.972z M90.141,178.39c0.087,0,0.549,0.13,1.383,0.394
		c0.483,0.132,0.878,0.197,1.186,0.197c-0.351,0.088-0.769,0.196-1.252,0.328c0.351,0.043,0.856-0.065,1.515-0.328
		c-0.085,0-0.151,0-0.198,0c0.046-0.001,0.113-0.024,0.198-0.065c-0.132-0.088-0.285-0.263-0.461-0.525
		c0.308,0.263,0.528,0.458,0.659,0.591c0.132,0.13,0.198,0.351,0.198,0.656c-0.132-0.263-0.22-0.438-0.264-0.526
		c-0.044-0.042-0.087-0.086-0.132-0.13c-1.142,0.612-1.866,0.984-2.174,1.115c-0.439,0.263-1.054,0.394-1.844,0.394
		s-1.428-0.108-1.911-0.328c-0.308-0.175-1.032-0.546-2.174-1.115l-0.132,0.131c-0.087,0.087-0.176,0.263-0.263,0.525
		c0-0.307,0.065-0.525,0.197-0.656c0.088-0.175,0.285-0.372,0.593-0.591c-0.219,0.263-0.351,0.437-0.395,0.525
		c0.615,0.307,1.12,0.437,1.515,0.394c-0.527-0.131-0.944-0.241-1.251-0.328c0.308,0,0.681-0.065,1.12-0.198
		c0.835-0.261,1.295-0.393,1.384-0.393c0.263,0,0.483,0,0.659,0c0.263,0.088,0.483,0.132,0.659,0.132
		c0.087,0,0.263-0.044,0.527-0.132C89.701,178.411,89.921,178.39,90.141,178.39z M91.458,179.309
		c-1.449-0.089-2.284-0.132-2.503-0.132h-0.066c-0.308,0-1.141,0.066-2.503,0.197c0.132,0.043,0.264,0.087,0.396,0.131
		c0.614,0.175,1.251,0.284,1.91,0.328h0.264c0.043,0,0.087,0,0.132,0h0.131c0.615-0.044,1.208-0.175,1.778-0.394
		C91.172,179.396,91.326,179.352,91.458,179.309z M76.636,178.127c-1.844,0.744-3.337,1.641-4.479,2.69
		c-0.615,0.569-1.273,1.356-1.976,2.364c-0.615,0.918-1.142,1.509-1.582,1.771c-0.395,0.218-0.856,0.394-1.383,0.526
		c1.844-0.044,3.535-0.964,5.072-2.758c1.977-2.146,4.458-3.502,7.444-4.069L76.636,178.127z M66.162,166.968
		c0.352,0.569,0.747,0.984,1.187,1.247c0.438,0.351,1.361,0.723,2.766,1.115c1.142,0.308,2.13,0.701,2.964,1.183
		c0.264,0.13,0.527,0.284,0.791,0.459c0.088,0,0.132,0.022,0.132,0.066c0.659,0.437,1.296,0.961,1.911,1.574l4.413-1.05
		c-1.581-1.181-3.754-1.991-6.521-2.428C70.159,169.046,67.611,168.325,66.162,166.968z M80.457,178.258
		c-0.308-1.051-0.461-2.101-0.461-3.15l-14.822,0.328L80.457,178.258z M91.985,183.838c-0.878,0.306-1.822,0.459-2.833,0.459
		l0.198,15.163L91.985,183.838z M91.788,187.842c0.791,1.924,1.668,3.479,2.635,4.66c0.571,0.656,1.339,1.356,2.306,2.101
		c0.878,0.612,1.449,1.159,1.712,1.641c0.088,0.22,0.198,0.46,0.33,0.723c-0.395-1.708-1.537-3.829-3.425-6.368
		c-1.45-1.924-2.459-3.893-3.031-5.907L91.788,187.842z M96.926,179.046c-0.395,0.787-0.9,1.554-1.515,2.297l10.342,10.567
		L96.926,179.046z M95.213,181.605h-0.066c-0.747,0.787-1.559,1.422-2.437,1.904l3.623,2.428v-0.064l9.552,6.694L95.213,181.605z
		 M92.446,183.903c0,0.087,0.022,0.196,0.065,0.329c0.615,2.1,1.647,4.156,3.096,6.17c2.503,3.282,3.711,5.907,3.624,7.876
		c0.088-0.263,0.175-0.525,0.264-0.788c0.132-0.656,0.132-1.247,0-1.771c-0.088-0.569-0.505-1.488-1.252-2.758
		c-0.791-1.355-1.317-2.67-1.581-3.938c-0.132-0.656-0.242-1.313-0.33-1.97c0-0.261,0-0.502,0-0.721l-3.887-2.627V183.903z
		 M97.716,179.243L99.561,182c1.844,0.787,3.513,1.225,5.007,1.313c0.878,0.088,1.91,0.044,3.096-0.131
		c1.054-0.176,1.823-0.197,2.306-0.066c0.308,0.044,0.637,0.176,0.988,0.395c-1.098-0.919-2.393-1.424-3.886-1.51h-0.066
		C102.569,181.343,99.473,180.425,97.716,179.243z M101.734,177.274v-0.067h0.198l10.737-2.165l-14.888,0.065
		c0,1.095-0.176,2.144-0.527,3.15L101.734,177.274z M101.801,177.603c-0.044,0-0.066-0.023-0.066-0.067l-4.413,1.052
		c1.625,1.27,4.875,2.298,9.75,3.085c1.932,0.13,3.535,0.897,4.809,2.298c-0.395-0.92-0.901-1.599-1.515-2.035
		c-0.351-0.22-0.791-0.438-1.317-0.657c-0.132-0.044-0.615-0.175-1.449-0.393c-1.493-0.396-2.745-0.941-3.755-1.642
		c-0.087-0.044-0.154-0.066-0.197-0.066C103.03,178.739,102.415,178.216,101.801,177.603z M85.068,183.51
		c-0.834-0.438-1.646-1.028-2.438-1.772L72.354,192.83L85.068,183.51z M84.936,190.663c0.439-0.699,0.966-1.422,1.582-2.165
		l-0.923-4.595c-1.756,2.494-2.613,5.491-2.568,8.992v0.065c-0.044,2.538-0.747,4.485-2.108,5.842
		c0.659-0.393,1.164-0.853,1.515-1.378c0.308-0.525,0.615-1.486,0.922-2.888C83.75,193.004,84.277,191.715,84.936,190.663z
		 M81.972,187.053c-0.57,1.576-0.9,3.021-0.988,4.334c0,0.874,0.088,1.946,0.264,3.216c0.132,1.095,0.154,1.903,0.065,2.43
		c-0.043,0.175-0.109,0.349-0.197,0.523v0.067c-0.132,0.348-0.263,0.655-0.395,0.917c1.273-1.313,1.954-3.194,2.042-5.645
		c-0.087-3.325,0.637-6.214,2.174-8.663l-2.635,1.968C82.17,186.507,82.06,186.792,81.972,187.053z M78.085,182.854l2.438-4.006
		c-3.25,0.483-5.929,1.86-8.037,4.137c-1.713,2.057-3.645,2.997-5.797,2.823c0.878,0.305,1.668,0.393,2.371,0.262
		c0.571-0.088,1.471-0.524,2.701-1.313c1.274-0.786,2.525-1.313,3.755-1.574C76.307,183.006,77.163,182.896,78.085,182.854z
		 M78.48,182.854h0.066l-6.127,9.451l10.013-10.83c-0.703-0.745-1.251-1.555-1.647-2.429L78.48,182.854z M88.823,184.297
		c-1.01,0-1.999-0.153-2.964-0.459l3.162,15.688L88.823,184.297z M88.955,181.475c-0.615,0-0.834-0.044-0.659-0.132
		c0.132-0.087,0.351-0.13,0.659-0.13c0.263,0,0.483,0.021,0.659,0.064C89.79,181.365,89.569,181.431,88.955,181.475z"/>
	<path fill-rule="evenodd" clip-rule="evenodd" fill="#FCD116" d="M78.283,152.396c0,2.188,1.01,4.311,3.03,6.367
		c2.284,2.362,3.58,4.923,3.887,7.681l-3.82-2.561c-0.044-0.962-0.154-1.859-0.33-2.69c-0.175-0.788-0.417-1.575-0.725-2.364
		c-0.307-0.524-0.592-1.051-0.856-1.575c-0.746-1.269-1.164-2.188-1.251-2.757C78.129,153.885,78.151,153.183,78.283,152.396z
		 M80.984,155.612c0.966,0.744,1.735,1.444,2.306,2.101c0.307,0.394,0.593,0.811,0.856,1.247l0.066,0.065
		c0.615,0.963,1.164,2.079,1.647,3.348l-0.461,3.217c-0.439-2.539-1.712-4.923-3.821-7.155c-2.063-2.014-3.03-4.135-2.898-6.367
		c0.132,0.788,0.329,1.4,0.593,1.838C79.535,154.387,80.105,154.956,80.984,155.612z M96.663,158.763
		c-0.088,1.575-0.506,3.327-1.252,5.252l-2.438,1.772c1.23-1.882,1.911-4.442,2.042-7.681c0.044-2.581,0.659-4.617,1.844-6.104
		c-0.219,0.393-0.374,0.787-0.461,1.18c-0.132,0.526-0.11,1.335,0.065,2.43C96.685,156.839,96.75,157.887,96.663,158.763z
		 M95.345,152.79c0.395-0.657,0.988-1.203,1.778-1.642c-1.581,1.619-2.415,3.938-2.503,6.958c-0.132,3.676-0.944,6.411-2.438,8.205
		l-1.054-4.595c0.659-0.744,1.208-1.466,1.646-2.166c0.659-1.051,1.164-2.34,1.515-3.873
		C94.642,154.19,94.994,153.228,95.345,152.79z M102.196,167.033c1.186-0.261,2.438-0.788,3.755-1.575
		c1.23-0.788,2.108-1.247,2.635-1.379c0.615-0.087,1.296-0.021,2.042,0.198c-1.625-0.044-3.359,0.787-5.204,2.495
		c-2.459,2.187-5.183,3.696-8.169,4.527l2.372-3.938c0.703-0.043,1.383-0.108,2.042-0.196
		C101.844,167.165,102.02,167.12,102.196,167.033z M90.799,161.586l0.065,0.459v-0.065l0.988,4.529
		c-0.922-0.306-1.888-0.461-2.898-0.461l-0.264-15.293l2.108,10.766V161.586z M92.051,166.902v0.065
		c0.966,0.394,1.844,1.029,2.635,1.904c0.834,0.787,1.471,1.685,1.91,2.69l0.066,0.133c0.395,1.005,0.592,2.121,0.592,3.347
		c0.044,1.181-0.132,2.275-0.527,3.282l-0.065,0.065v0.065l-1.582,2.625c-0.043,0-0.065,0.045-0.065,0.133h-0.066l-0.065,0.064
		c-0.132,0.088-0.219,0.197-0.264,0.328l-2.306,1.576h-0.132c-0.044,0.043-0.088,0.065-0.131,0.065
		c-0.922,0.438-1.955,0.656-3.096,0.656c-1.098,0-2.152-0.198-3.162-0.591c-0.044-0.044-0.088-0.065-0.132-0.065
		c-0.966-0.438-1.866-1.05-2.701-1.839c-0.834-0.875-1.449-1.815-1.844-2.821l-0.066-0.132c-0.396-1.007-0.615-2.101-0.659-3.282
		c0-1.181,0.198-2.275,0.593-3.282c0-0.043,0-0.087,0-0.131h0.132l-0.132-0.064c0.088-0.088,0.153-0.198,0.198-0.329l1.647-2.429
		c0-0.044,0.022-0.065,0.066-0.065c0.746-0.787,1.603-1.4,2.569-1.839l0.065,0.132v-0.197h0.065
		c0.923-0.438,1.955-0.656,3.097-0.656c0.044,0,0.088,0,0.132,0c1.01,0,1.998,0.176,2.964,0.525
		c0.043,0.044,0.087,0.065,0.132,0.065v0.131L92.051,166.902z M92.71,166.705l12.384-9.058l-10.342,10.567
		C94.093,167.559,93.413,167.057,92.71,166.705z M95.147,168.543c-0.044,0-0.087-0.021-0.131-0.065l10.474-10.83l-8.563,13.521
		C96.486,170.25,95.894,169.374,95.147,168.543z M92.38,171.891c-0.703,0-1.208,0.066-1.516,0.197
		c-0.351,0.132-0.548,0.437-0.592,0.92v0.064c0.439-0.393,0.746-0.634,0.922-0.722c-0.087,0.306,0,0.59,0.264,0.853
		c0.219,0.264,0.417,0.438,0.593,0.526c-0.264,0-0.571-0.152-0.922-0.46c-0.308-0.176-0.505-0.197-0.593-0.066
		c-0.131,0.176,0.022,0.374,0.461,0.592c0.439,0.174,0.878,0.263,1.318,0.263c0.351,0,0.791-0.219,1.317-0.657
		c0.176-0.131,0.308-0.24,0.396-0.328c0.044-0.132,0.022-0.132-0.066,0c-0.132,0.088-0.241,0.153-0.33,0.197
		c0.088-0.132,0.11-0.285,0.066-0.46c-0.044-0.087-0.088-0.174-0.132-0.263c0.087,0.045,0.154,0.065,0.197,0.065
		c0.439,0.308,0.725,0.46,0.856,0.46c-0.132-0.132-0.417-0.372-0.856-0.722C93.324,172.043,92.863,171.891,92.38,171.891z
		 M94.159,171.563c0.264,0.089,0.439,0.133,0.527,0.133c0.131,0,0.241-0.044,0.33-0.133c-0.308-0.394-0.813-0.722-1.516-0.984
		c-0.703-0.263-1.208-0.372-1.515-0.328c-0.351,0.045-0.834,0.328-1.449,0.854c-0.659,0.524-0.922,0.832-0.79,0.919
		c0.044,0.088,0.131,0.065,0.263-0.065c0.088-0.044,0.242-0.153,0.461-0.329c0.439-0.349,1.054-0.546,1.845-0.59
		C92.973,171.038,93.588,171.212,94.159,171.563z M93.369,172.482c0.044,0.086,0.087,0.197,0.131,0.327
		c0.044,0.175,0.044,0.372,0,0.591c-0.131,0.044-0.263,0.088-0.395,0.132c-0.087,0.045-0.198,0.065-0.33,0.065
		c0.088-0.044,0.176-0.175,0.264-0.395c0.087-0.394,0.043-0.699-0.132-0.919C93.04,172.328,93.192,172.395,93.369,172.482z
		 M97.255,171.957l15.086,2.756l-14.559,0.066C97.738,173.772,97.563,172.831,97.255,171.957z M97.716,171.563
		c2.898-0.876,5.556-2.385,7.971-4.529c1.889-1.75,3.645-2.538,5.27-2.363c-0.747,0.089-1.361,0.285-1.845,0.592
		c-0.483,0.263-1.01,0.854-1.581,1.771c-0.703,1.008-1.384,1.795-2.042,2.364c-1.098,1.005-2.569,1.926-4.414,2.756L97.716,171.563z
		 M88.625,166.048c-0.132,0-0.242,0-0.329,0l-0.988,0.133c-0.527,0.087-1.033,0.219-1.515,0.394l2.569-16.212L88.625,166.048z
		 M80.325,163.62l1.055,0.722v-0.064l3.557,2.495c-0.834,0.437-1.603,1.027-2.306,1.771L72.223,157.91l7.971,5.58
		C80.194,163.576,80.237,163.62,80.325,163.62z M82.96,171.825c0.044,0,0.198-0.065,0.461-0.197c0.615-0.305,1.23-0.48,1.844-0.524
		c0.791,0,1.449,0.196,1.976,0.592c0.176,0.174,0.308,0.262,0.396,0.262c0.087,0.131,0.175,0.153,0.263,0.065
		c0.132-0.087-0.131-0.371-0.79-0.854c-0.703-0.526-1.208-0.811-1.516-0.854c-0.307-0.044-0.79,0.066-1.449,0.327
		c-0.747,0.309-1.273,0.637-1.581,0.985C82.697,171.76,82.829,171.825,82.96,171.825z M80.786,171.169l-9.09-13.326l10.672,10.897
		C81.708,169.484,81.182,170.295,80.786,171.169z M79.996,174.713l-14.822,0.395l10.738-2.035v-0.064l4.479-1.117
		C80.127,172.897,79.996,173.839,79.996,174.713z M85.266,171.891c-0.527,0-1.01,0.197-1.449,0.592
		c-0.396,0.349-0.659,0.569-0.791,0.655c0.132,0,0.417-0.13,0.856-0.393c0.044-0.045,0.11-0.089,0.198-0.133
		c-0.044,0.088-0.087,0.177-0.132,0.263c0,0.177,0.021,0.307,0.066,0.395c-0.088-0.044-0.197-0.088-0.329-0.132
		c-0.088-0.086-0.11-0.086-0.066,0c0.088,0.088,0.22,0.198,0.396,0.329c0.571,0.438,1.032,0.656,1.383,0.656
		c0.439,0,0.856-0.11,1.252-0.328c0.439-0.175,0.592-0.351,0.461-0.525c-0.088-0.132-0.286-0.132-0.593,0
		c-0.308,0.308-0.615,0.481-0.923,0.525c0.176-0.132,0.374-0.307,0.593-0.525c0.264-0.306,0.352-0.59,0.264-0.853
		c0.176,0.043,0.482,0.263,0.922,0.655c-0.043-0.48-0.263-0.809-0.659-0.984C86.407,171.957,85.924,171.891,85.266,171.891z
		 M87.308,176.42c0.044-0.174,0.11-0.328,0.197-0.459c0.088-0.087,0.132-0.175,0.132-0.263c-0.22,0-0.418,0.22-0.593,0.656
		c-0.132,0.394-0.308,0.591-0.527,0.591c-0.22,0.044-0.439,0.197-0.659,0.46l-0.132,0.263c0.175-0.133,0.439-0.263,0.791-0.394
		c0.395-0.088,0.746-0.154,1.054-0.197c0.22,0,0.461,0.086,0.725,0.263c0.219,0.13,0.417,0.195,0.592,0.195
		c0.176,0,0.396-0.087,0.659-0.261c0.22-0.132,0.439-0.197,0.659-0.197c0.308,0,0.637,0.065,0.988,0.197
		c0.396,0.087,0.681,0.217,0.857,0.394l-0.198-0.328c-0.176-0.263-0.395-0.395-0.659-0.395c-0.219,0-0.395-0.197-0.527-0.591
		c-0.132-0.437-0.308-0.678-0.527-0.722c0,0.131,0.043,0.241,0.132,0.328c0.044,0.131,0.11,0.262,0.197,0.394
		c0,0.22-0.153,0.328-0.461,0.328c-0.219,0-0.373-0.108-0.461-0.328c0.088,0.263,0.044,0.46-0.131,0.591
		c-0.088,0.044-0.264,0.088-0.527,0.132c-0.308,0-0.505-0.044-0.592-0.132c-0.132-0.086-0.154-0.263-0.066-0.525
		c-0.131,0.175-0.308,0.263-0.527,0.263C87.44,176.683,87.308,176.595,87.308,176.42z M84.146,172.875
		c0.044-0.13,0.088-0.239,0.131-0.328c0.176-0.043,0.33-0.087,0.461-0.13c-0.176,0.219-0.219,0.503-0.132,0.853
		c0.088,0.175,0.176,0.328,0.264,0.46c-0.087,0-0.198-0.045-0.33-0.132c-0.087-0.044-0.197-0.088-0.329-0.131
		C84.125,173.292,84.102,173.094,84.146,172.875z M79.996,170.972c-1.581-1.05-3.623-1.75-6.126-2.1
		c-4.172-0.218-6.873-1.183-8.103-2.89c0.176,0.133,0.308,0.242,0.395,0.329c0.571,0.394,1.077,0.679,1.516,0.854
		c0.527,0.088,1.318,0.044,2.372-0.132c1.23-0.175,2.262-0.241,3.096-0.196c1.449,0.131,3.118,0.591,5.006,1.378L79.996,170.972z
		 M90.141,178.39c-0.219,0-0.439,0.021-0.659,0.065c-0.264,0.088-0.439,0.132-0.527,0.132c-0.176,0-0.396-0.044-0.659-0.132
		c-0.176,0-0.396,0-0.659,0c-0.088,0-0.549,0.132-1.384,0.393c-0.439,0.133-0.812,0.198-1.12,0.198
		c0.308,0.087,0.725,0.197,1.251,0.328c-0.395,0.043-0.9-0.087-1.515-0.394c0.044-0.089,0.176-0.263,0.395-0.525
		c-0.308,0.219-0.505,0.416-0.593,0.591c-0.132,0.131-0.197,0.35-0.197,0.656c0.087-0.263,0.176-0.438,0.263-0.525l0.132-0.131
		c1.142,0.569,1.866,0.94,2.174,1.115c0.483,0.22,1.12,0.328,1.911,0.328s1.405-0.131,1.844-0.394
		c0.308-0.131,1.032-0.503,2.174-1.115c0.044,0.044,0.088,0.088,0.132,0.13c0.044,0.089,0.132,0.264,0.264,0.526
		c0-0.306-0.066-0.526-0.198-0.656c-0.131-0.133-0.351-0.328-0.659-0.591c0.176,0.263,0.33,0.438,0.461,0.525
		c-0.085,0.041-0.151,0.064-0.198,0.065c0.046,0,0.113,0,0.198,0c-0.659,0.263-1.164,0.371-1.515,0.328
		c0.483-0.132,0.901-0.24,1.252-0.328c-0.308,0-0.703-0.065-1.186-0.197C90.689,178.52,90.228,178.39,90.141,178.39z
		 M86.386,179.374c1.362-0.131,2.195-0.197,2.503-0.197h0.066c0.219,0,1.054,0.043,2.503,0.132
		c-0.132,0.043-0.286,0.087-0.461,0.131c-0.57,0.219-1.164,0.35-1.778,0.394h-0.131c-0.044,0-0.088,0-0.132,0h-0.264
		c-0.659-0.044-1.296-0.153-1.91-0.328C86.649,179.461,86.518,179.417,86.386,179.374z M88.955,181.475
		c0.614-0.044,0.834-0.109,0.659-0.197c-0.176-0.044-0.396-0.064-0.659-0.064c-0.308,0-0.527,0.043-0.659,0.13
		C88.121,181.431,88.34,181.475,88.955,181.475z M88.823,184.297l0.197,15.229l-3.162-15.688
		C86.825,184.144,87.813,184.297,88.823,184.297z M78.48,182.854l2.306-3.808c0.396,0.874,0.944,1.684,1.647,2.429l-10.013,10.83
		l6.127-9.451H78.48z M78.085,182.854c-0.922,0.043-1.779,0.152-2.569,0.328c-1.229,0.261-2.481,0.788-3.755,1.574
		c-1.229,0.789-2.129,1.226-2.701,1.313c-0.703,0.131-1.493,0.043-2.371-0.262c2.152,0.174,4.083-0.767,5.797-2.823
		c2.108-2.276,4.787-3.653,8.037-4.137L78.085,182.854z M81.972,187.053c0.088-0.261,0.198-0.546,0.33-0.853l2.635-1.968
		c-1.537,2.449-2.261,5.338-2.174,8.663c-0.087,2.45-0.769,4.332-2.042,5.645c0.132-0.262,0.263-0.569,0.395-0.917v-0.067
		c0.088-0.175,0.154-0.349,0.197-0.523c0.088-0.526,0.066-1.335-0.065-2.43c-0.176-1.27-0.264-2.342-0.264-3.216
		C81.072,190.073,81.401,188.629,81.972,187.053z M84.936,190.663c-0.659,1.052-1.186,2.341-1.581,3.874
		c-0.308,1.401-0.615,2.362-0.922,2.888c-0.351,0.525-0.856,0.985-1.515,1.378c1.361-1.356,2.064-3.304,2.108-5.842v-0.065
		c-0.044-3.501,0.813-6.498,2.568-8.992l0.923,4.595C85.902,189.241,85.375,189.964,84.936,190.663z M85.068,183.51l-12.713,9.32
		l10.276-11.093C83.421,182.481,84.234,183.071,85.068,183.51z M101.801,177.603c0.614,0.613,1.229,1.137,1.844,1.574
		c0.043,0,0.11,0.022,0.197,0.066c1.01,0.7,2.262,1.246,3.755,1.642c0.834,0.218,1.317,0.349,1.449,0.393
		c0.527,0.22,0.966,0.438,1.317,0.657c0.614,0.437,1.12,1.115,1.515,2.035c-1.274-1.4-2.877-2.168-4.809-2.298
		c-4.875-0.787-8.125-1.815-9.75-3.085l4.413-1.052C101.734,177.579,101.756,177.603,101.801,177.603z M101.734,177.274
		l-4.479,0.983c0.351-1.007,0.527-2.056,0.527-3.15l14.888-0.065l-10.737,2.165h-0.198V177.274z M97.716,179.243
		c1.757,1.182,4.853,2.1,9.288,2.757h0.066c1.493,0.086,2.789,0.591,3.886,1.51c-0.352-0.219-0.681-0.351-0.988-0.395
		c-0.482-0.131-1.251-0.109-2.306,0.066c-1.186,0.175-2.217,0.219-3.096,0.131c-1.494-0.088-3.163-0.525-5.007-1.313L97.716,179.243
		z M92.446,183.903v-0.198l3.887,2.627c0,0.219,0,0.46,0,0.721c0.087,0.657,0.198,1.313,0.33,1.97
		c0.263,1.269,0.79,2.583,1.581,3.938c0.747,1.27,1.164,2.188,1.252,2.758c0.132,0.524,0.132,1.115,0,1.771
		c-0.088,0.263-0.176,0.525-0.264,0.788c0.088-1.969-1.12-4.594-3.624-7.876c-1.449-2.014-2.481-4.07-3.096-6.17
		C92.468,184.1,92.446,183.99,92.446,183.903z M95.213,181.605l10.672,10.962l-9.552-6.694v0.064l-3.623-2.428
		c0.878-0.482,1.69-1.117,2.437-1.904H95.213z M96.926,179.046l8.827,12.864l-10.342-10.567
		C96.025,180.6,96.531,179.833,96.926,179.046z M91.788,187.842l0.527-3.151c0.571,2.015,1.581,3.983,3.031,5.907
		c1.888,2.539,3.03,4.66,3.425,6.368c-0.131-0.263-0.241-0.503-0.33-0.723c-0.263-0.481-0.834-1.028-1.712-1.641
		c-0.966-0.744-1.734-1.444-2.306-2.101C93.456,191.32,92.578,189.766,91.788,187.842z M91.985,183.838L89.35,199.46l-0.198-15.163
		C90.163,184.297,91.107,184.144,91.985,183.838z M80.457,178.258l-15.283-2.822l14.822-0.328
		C79.996,176.157,80.149,177.207,80.457,178.258z M66.162,166.968c1.45,1.357,3.997,2.078,7.642,2.167
		c2.767,0.437,4.94,1.247,6.521,2.428l-4.413,1.05c-0.615-0.613-1.251-1.138-1.911-1.574c0-0.044-0.043-0.066-0.132-0.066
		c-0.263-0.175-0.527-0.329-0.791-0.459c-0.834-0.481-1.822-0.875-2.964-1.183c-1.405-0.393-2.328-0.765-2.766-1.115
		C66.909,167.952,66.513,167.537,66.162,166.968z M76.636,178.127l3.096,0.525c-2.986,0.567-5.467,1.924-7.444,4.069
		c-1.538,1.794-3.228,2.714-5.072,2.758c0.527-0.133,0.988-0.309,1.383-0.526c0.439-0.263,0.966-0.854,1.582-1.771
		c0.703-1.008,1.361-1.795,1.976-2.364C73.299,179.768,74.792,178.871,76.636,178.127z"/>
</g>
</svg>
