<?xml version="1.0" encoding="utf-8"?>
<!-- Generator: Adobe Illustrator 16.0.0, SVG Export Plug-In . SVG Version: 6.00 Build 0)  -->
<!DOCTYPE svg PUBLIC "-//W3C//DTD SVG 1.1//EN" "http://www.w3.org/Graphics/SVG/1.1/DTD/svg11.dtd">
<svg version="1.1" id="Layer_1" xmlns="http://www.w3.org/2000/svg" xmlns:xlink="http://www.w3.org/1999/xlink" x="0px" y="0px"
	 width="300px" height="300px" viewBox="0 0 300 300" enable-background="new 0 0 300 300" xml:space="preserve">
<g>
	<path fill-rule="evenodd" clip-rule="evenodd" fill="#333333" d="M88.087,126.155c-2.925-7.926-5.388-16.14-7.388-24.641
		c-2.15-11.226-2.8-23.34-1.95-36.341C66.998,99.103,70.11,119.43,88.087,126.155z M185.037,6.028
		c12.076,8.426,22.503,26.891,31.278,55.395c8.876-6.776,16.452-21.453,22.729-44.031c-0.45,25.178-6.526,47.381-18.228,66.608
		c-3,12.176-3.676,26.015-2.025,41.517l-0.45,0.638v0.563h1.2c23.902-5.9,28.291-23.478,13.164-52.731
		c5.025,2.5,10.052,8.139,15.077,16.915c2.2-10.426,0.112-22.34-6.264-35.742c18.427,30.104,16.753,55.02-5.025,74.747
		c-6.776,5.876-15.364,11.339-25.766,16.39h-0.75c-1.15,0.825-2.35,2.063-3.601,3.713c-12.201,8.776-19.553,18.827-22.053,30.153
		c10.076-4.2,22.24-14.251,36.492-30.153c5.525,31.003-5.389,52.394-32.742,64.17c-6.15,14.952-12.901,30.892-20.252,47.818
		c-1.024,15.052-7.576,22.803-19.652,23.253c-11.751-1.25-18.252-9.264-19.503-24.04c0,0.274,0,0.537,0,0.787
		c-4.95-15.052-10.675-30.991-17.176-47.818c-30.254-7.126-44.73-30.153-43.431-69.083c22.178,7.926,39.993,19.614,53.444,35.066
		c-1.275-15.052-12.589-28.666-33.941-40.843c-2.1-0.399-3.963-1.024-5.588-1.875c-5.526-2.125-10.164-4.638-13.915-7.538
		c-15.952-13.853-14.902-37.33,3.15-70.434c0-0.4,0-0.825,0-1.275l0.713-0.6c-5.951-13.402-2.188-26.178,11.289-38.33
		c-5.876,9.626-7.988,19.29-6.338,28.991C84.8,35.207,94.851,20.706,107.027,4.753c-9.676,17.652-17.452,33.154-23.328,46.506
		c8.451,0.45,16.227-2.025,23.328-7.426c-5.451,8.776-12.364,14.189-20.74,16.239c-2.875,20.178,8.626,28.379,34.504,24.604
		c-5.851,8.025-14.651,13.239-26.403,15.639c2.625,12.202,5.963,22.065,10.014,29.591c4.726,7.976,10.427,13.039,17.102,15.189
		c0.35-7.227,1.801-12.289,4.351-15.189l0.675-1.2c0,0.3,0,0.7,0,1.2c0.8,23.027,5.425,40.442,13.876,52.243
		c8.751,0.801,17.515,0.138,26.291-1.987v-0.601c2.125-14.227,8.426-26.79,18.902-37.691c5.025-3.751,9.426-7.738,13.201-11.964
		c8.427-9.677,12.64-19.54,12.64-29.591C210.165,71.011,201.364,39.583,185.037,6.028z"/>
</g>
</svg>
