<?xml version="1.0" encoding="utf-8"?>
<!-- Generator: Adobe Illustrator 16.0.0, SVG Export Plug-In . SVG Version: 6.00 Build 0)  -->
<!DOCTYPE svg PUBLIC "-//W3C//DTD SVG 1.1//EN" "http://www.w3.org/Graphics/SVG/1.1/DTD/svg11.dtd">
<svg version="1.1" id="Layer_1" xmlns="http://www.w3.org/2000/svg" xmlns:xlink="http://www.w3.org/1999/xlink" x="0px" y="0px"
	 width="300px" height="300px" viewBox="0 0 300 300" enable-background="new 0 0 300 300" xml:space="preserve">
<g>
	<path fill-rule="evenodd" clip-rule="evenodd" fill="#FEF7E7" d="M235.025,56.32c-0.195,0.123-0.463,0.231-0.807,0.33
		c-0.048,0.807-0.342,1.527-0.879,2.163c0.049,0,0.184,0,0.402,0c0.099-0.097,0.208-0.22,0.33-0.366
		c0.221-0.391,0.465-0.587,0.734-0.587c0.269-0.049,0.269,0.11,0,0.477c0.269-0.097,0.5-0.28,0.695-0.549
		c0.343-0.366,0.477-0.855,0.404-1.466c-0.049-0.465-0.231-0.673-0.551-0.624l-0.256,0.147
		C235.392,55.965,235.367,56.124,235.025,56.32z M52.311,121.948l-5.225,0.477c-1.466,0.221-2.994,0.464-4.583,0.734l-4.913,0.953
		c-0.123-0.05-0.318-0.135-0.587-0.257c-0.171-0.048-0.598,0.012-1.283,0.183c-1.075,0.147-1.747,0.233-2.016,0.257
		c-0.856,0-1.504-0.171-1.944-0.513l-0.403,0.183c-0.195,0.219-0.623,0.452-1.283,0.696c-0.758,0.171-1.319,0.281-1.687,0.33
		c-1.001,0.368-1.369,0.88-1.1,1.54c-0.293-0.171-0.646-0.257-1.062-0.257c-0.49,0-0.965-0.073-1.431-0.22
		c0.367-0.269,0.625-0.428,0.771-0.477c0.169-0.269,0.256-0.624,0.256-1.063c-0.097-0.171-0.574-0.684-1.43-1.539h-0.036
		c2.542-10.56,6.733-20.837,12.576-30.835c2.078-3.543,4.35-7.077,6.819-10.596C63.793,53.68,91.229,36.228,126.06,29.188
		c28.427-5.719,55.008-3.141,79.746,7.737c-0.416,0.073-0.795,0.183-1.137,0.33l-0.294,0.219c0,0.27,0.098,0.38,0.294,0.33
		c0.17,0.05,0.391,0.024,0.66-0.073c0.169,0,0.255,0.135,0.255,0.402c0.147,0.392,0.147,0.587,0,0.587
		c-0.342-0.024-0.61-0.024-0.806,0c-0.269,0.098-0.427,0.195-0.477,0.293v0.073c-0.074,0.979,0,1.918,0.221,2.823l0.072,0.183
		l14.116,1.43c1.173,0.709,2.321,1.381,3.445,2.017c5.623,3.373,10.779,7.077,15.472,11.109c-0.072,0.049-0.133,0.097-0.183,0.147
		l0.183,0.439c0.147,0.146,0.306,0.172,0.479,0.074c0-0.05,0.072-0.111,0.22-0.183c0.39,0.342,0.794,0.696,1.21,1.063
		c-0.196,0-0.355,0-0.477,0c-0.27-0.098-0.563-0.208-0.881-0.331l-0.33-0.073c0.099,0.171-0.194,0.39-0.879,0.66
		c-0.099,0.318,0.013,0.452,0.33,0.404c0.586,0,0.903,0.048,0.953,0.146c0.123,0.05,0.171,0.135,0.146,0.257
		c-0.05,0-0.073,0.048-0.073,0.146v0.147c0.05,0,0.158,0,0.329,0c-0.097-0.195,0.013-0.465,0.33-0.807h0.074
		c0.22,0.073,0.488,0.342,0.807,0.807c0.366,0.366,0.684,0.549,0.953,0.549l0.072,0.038c0-0.171,0.037-0.368,0.11-0.587
		c0.538,0.44,1.076,0.905,1.613,1.394h-0.11c-0.636,0.146-0.928,0.439-0.879,0.879c0.048,0.489-0.135,0.783-0.551,0.881
		c0.171,0,0.33,0.048,0.477,0.146c0.27,0,0.428,0.085,0.477,0.256c0.489-0.39,0.929-0.61,1.321-0.66
		c0.243,0,0.451-0.073,0.622-0.219c0.318-0.049,0.611-0.183,0.88-0.404l0.073,0.074c0.05,0.097,0.355,0.574,0.917,1.43
		c0.537,0.708,0.94,1.112,1.21,1.209c0.831,0.44,1.82,0.526,2.971,0.257l0.477-0.146l-0.404,0.624
		c-0.636,0.66-1.014,1.332-1.136,2.017c-0.049,0.22-0.123,0.465-0.222,0.732c-0.488,0.099-0.928,0.147-1.319,0.147
		c-0.807,0-1.479,0.048-2.016,0.147c-0.146,0-0.416,0-0.808,0c0,0.269,0.11,0.464,0.33,0.587c0.05,0.048,0.209,0.048,0.478,0
		c0.658,0,1.063,0.159,1.209,0.477c0.024,0.219-0.098,0.537-0.367,0.953c-0.292,0.586-0.487,0.916-0.586,0.99
		c0,0.22,0,0.378,0,0.477c0.22,0.147,0.55,0.22,0.99,0.22l-0.807,0.587c-0.66,0.489-1.368,0.893-2.126,1.21
		c-0.366,0.195-0.905,0.439-1.613,0.732l-2.383,1.174c-0.44,0.292-0.795,0.573-1.064,0.843c0.27,0.318,0.674,0.452,1.211,0.402
		c0.171,0,0.488-0.012,0.953-0.036l0.402-0.22c0.221,0.366,0.258,0.794,0.11,1.283c-0.024,0.147-0.171,0.465-0.44,0.954
		c-0.416,0.758-0.488,1.332-0.219,1.723h-0.551c-1.344-0.074-2.212-0.11-2.603-0.11c-0.416-0.048-0.917-0.048-1.503,0l-1.394,0.11
		l-2.017,0.624l-0.477,0.66c-0.538,0.586-1.076,1.088-1.613,1.502l-0.807,0.587c-0.317,0.219-0.771,0.452-1.357,0.696
		c-0.636,0.221-1.357,0.392-2.162,0.515l-1.762,0.292l-0.438-0.147c-0.195,0.171-0.245,0.38-0.146,0.624
		c0,0.221,0.05,0.465,0.146,0.734c-0.686,0.22-1.295,0.354-1.834,0.404c-0.22,0.049-0.488,0.073-0.805,0.073
		c-0.905,0-1.664-0.135-2.274-0.404c0.122-0.316,0.427-0.525,0.917-0.624c0.27,0,0.672-0.024,1.209-0.073
		c0.416-0.048,0.71-0.134,0.881-0.256c0.219-0.269,0.379-0.611,0.477-1.027c-0.171-0.317-0.392-0.513-0.66-0.587
		c-0.27-0.195-0.563-0.244-0.881-0.146c-0.317,0-0.83,0.11-1.54,0.331c-0.684,0.195-1.16,0.33-1.429,0.402h-0.623
		c-0.074,0.099-0.074,0.233,0,0.404c0,0.097,0.121,0.256,0.366,0.477l0.402,0.475c0.024,0.172,0.038,0.38,0.038,0.624h-0.33
		c-0.27,0-0.563,0.012-0.881,0.038c-0.488,0.097-0.929,0.256-1.319,0.477l-0.403,0.147l-3.227,2.345h-0.072
		c-0.27,0-0.611-0.134-1.027-0.402c-0.22,0-0.465-0.061-0.734-0.183c-0.317-0.27-0.525-0.428-0.622-0.477
		c0.146,0.048,0.329,0.024,0.55-0.074c0.221-0.097,0.488-0.171,0.807-0.219c0.269,0,0.427,0.048,0.477,0.146l0.257-0.477
		c0.27-0.44,0.27-0.794,0-1.063c-0.172-0.22-0.502-0.465-0.989-0.732c-0.49-0.221-0.869-0.453-1.138-0.698
		c-0.195,0.147-0.244,0.378-0.146,0.698c0.048,0.342,0,0.585-0.148,0.732l-7.259,0.404c-3.104,1.247-4.767,1.895-4.985,1.943
		l-10.156,1.907c17.354,1.417,38.473,1.882,63.354,1.392c-0.635,0.098-1.307,0.196-2.017,0.295c1.784,0.169,4.56,0.475,8.324,0.916
		l0.145,2.494c-1.196,1.49-2.749,2.957-4.655,4.4c-1.662,1.099-3.472,2.15-5.427,3.152c-0.317,0.098-0.684,0.208-1.1,0.33
		c-0.66,0.27-1.355,0.587-2.09,0.953c-4.619,1.663-7.896,2.922-9.826,3.777l0.074,0.513c5.744,0.416,11.108,0.844,16.095,1.283
		c0.318,0.269,0.588,0.539,0.807,0.806c0.22-0.072,0.415-0.244,0.587-0.513c0.244-0.147,0.391-0.195,0.44-0.147
		c0.831-0.489,1.612-0.598,2.346-0.33c0.391,0.123,0.721,0.317,0.989,0.587c0.416,0.048,0.894,0.073,1.432,0.073
		c1.395,0.148,2.745,0.283,4.05,0.404c-0.224,0.789-0.522,1.57-0.897,2.347c-0.343,0.731-0.764,1.472-1.266,2.218
		c-1.072,0.25-2.153,0.453-3.244,0.604l0.074,0.147c-0.099,0-0.257,0-0.478,0h-0.037l-0.366-4.216
		c-0.366,0.048-0.611,0.231-0.733,0.549l-0.11,1.027c-0.049,0.415-0.049,0.77,0,1.063c0.044,0.467,0.051,0.944,0.019,1.43
		c-0.299,0.021-0.609,0.071-0.935,0.147v0.404c0.119,0.619,0.297,1.168,0.532,1.649c-0.051,0.185-0.105,0.368-0.166,0.551
		c-0.122,0.415-0.647,1.698-1.576,3.849c-0.146,0.366-0.465,0.708-0.953,1.026c-2.029,1.467-4.362,2.592-7.003,3.374
		c-2.102,0.635-4.644,1.099-7.626,1.392c-1.222,0.123-1.577-0.452-1.063-1.723c0.414-1.417,0.744-2.48,0.989-3.188
		c0.024-0.563-0.196-0.929-0.659-1.1c-0.099,0.244-0.71,1.918-1.834,5.022c-0.147,0.44-0.343,0.746-0.587,0.917
		c-0.22,0.195-0.55,0.306-0.99,0.33c-0.978,0.098-1.979,0.33-3.007,0.696c-1.394,0.539-2.785,0.539-4.179,0
		c-1.784-0.756-3.252-2.114-4.4-4.069c-1.245-2.053-1.625-4.01-1.137-5.866c0.074-0.245,0.037-0.489-0.108-0.734
		c-1.126,1.516-1.504,3.178-1.138,4.987c0.733,3.274,1.956,5.682,3.666,7.222c0.245,0.22,0.452,0.501,0.623,0.843
		c0.171,0.368,0.208,0.611,0.11,0.734c-0.171,0.244-0.427,0.464-0.77,0.66c-0.342,0.195-0.647,0.282-0.916,0.257
		c-1.54-0.123-2.799-0.33-3.776-0.624c-1.346-0.342-2.506-0.905-3.483-1.687c-1.442-1.124-2.359-1.834-2.751-2.126
		c-1.099-0.782-2.09-1.369-2.969-1.76c-2.688-1.15-4.718-2.884-6.086-5.207c-1.149-1.979-1.858-4.497-2.127-7.552
		c-0.123-0.856-0.037-1.419,0.257-1.687c0.244-0.245,0.782-0.33,1.613-0.257c1.271,0.123,2.749-0.378,4.437-1.502
		c1.979-1.37,3.983-3.142,6.012-5.317c1.174-1.295,2.861-3.349,5.06-6.158c0.318-0.392,0.49-0.881,0.515-1.466
		c-0.905,0.708-2.763,2.432-5.574,5.169c-2.249,2.151-4.228,3.69-5.939,4.62c-1.025,0.366-1.735,0.623-2.126,0.77
		c-0.881,0.293-1.601,0.219-2.163-0.22c-0.562-0.44-0.807-1.112-0.734-2.017c0.074-0.686-0.036-1.088-0.328-1.21
		c-0.66-0.293-1.076-0.746-1.247-1.356c-0.099-0.318-0.135-0.893-0.11-1.724l0.33-6.526c0-0.489-0.159-0.954-0.477-1.394
		c-0.514,0.587-0.831,1.039-0.954,1.355c-1.588,4.131-2.675,7.053-3.264,8.764c-0.195,0.636-0.45,0.99-0.769,1.063
		c-0.27,0.074-0.659-0.049-1.174-0.366c-1.417-0.905-2.175-2.408-2.272-4.509c-0.049-0.782-0.024-1.748,0.073-2.896
		c0.147-1.735,0.22-2.714,0.22-2.934c0.024-0.513,0.024-0.893,0-1.136c-0.097-0.44-0.342-0.869-0.733-1.283l-0.294,1.026
		c-1.221,2.86-1.746,5.439-1.575,7.736c0.195,2.615,1.283,5.024,3.263,7.223c0.611,0.733,1.223,1.675,1.834,2.823
		c0.292,0.537,0.77,1.577,1.428,3.117c0.466,1.1,0.991,2.48,1.577,4.143c0.319,0.953,0.794,2.371,1.432,4.252
		c0.39,1.124,0.048,1.602-1.027,1.431c-6.674-1.394-10.67-4.754-11.989-10.083c-0.122-0.416-0.183-0.941-0.183-1.577
		c0.023-0.708,0.036-1.235,0.036-1.577c-0.049-0.978-0.135-1.625-0.257-1.943c-1.589,2.908-1.895,5.585-0.916,8.03
		c0.342,0.806,0.646,1.368,0.916,1.686l7.662,9.863c0.563,0.684,1.088,1.1,1.576,1.247c0.954,0.27,1.798,0.77,2.53,1.503
		c0.294,0.317,0.893,1.112,1.798,2.383c1.295,1.858,2.919,3.667,4.875,5.428c0.44,0.366,1.063,0.72,1.87,1.062
		c0.465,0.195,1.161,0.489,2.09,0.881c0.245,0.097,0.771,0.231,1.577,0.402c-1.247,0.782-1.577,1.772-0.99,2.97
		c0.073,0.171,0.11,0.378,0.11,0.624c-0.05,0.27-0.122,0.428-0.221,0.477c-0.392,0.268-1.185,1.064-2.383,2.383
		c-0.929,1.052-1.895,1.698-2.896,1.943c-1.271,0.317-1.967,1.038-2.09,2.163c-0.098,1.051,0.281,2.162,1.137,3.335
		c0.636,0.832,1.418,1.456,2.347,1.87c0.465,0.197,1.368,0.44,2.713,0.734c1.026,0.195,2.371,1.05,4.033,2.566
		c0.219,0.245,0.306,1.002,0.256,2.272c-0.121,0.881-0.329,1.627-0.622,2.238c-0.49,0.756-0.966,1.136-1.431,1.136
		c-5.964,0.366-10.18,0.501-12.649,0.402c-5.01-0.122-9.141,1.211-12.392,3.997c-0.855,0.758-2.103,1.735-3.74,2.934
		c-1.271,1.124-2.176,2.48-2.714,4.068c-0.439,1.321-0.843,3.031-1.209,5.135c-0.489,2.785-0.574,4.692-0.258,5.718
		c0.734,2.421,1.675,6.466,2.823,12.137l0.917,4.252c0.514,3.496,0.538,6.796,0.073,9.9c-0.61,4.375-2.175,8.091-4.692,11.146
		c-1.467,1.76-1.234,7.748,0.696,17.965c0.954,5.084,2.041,10.01,3.264,14.776l0.44,0.292c0.342,0.44,0.622,1.247,0.843,2.421h5.39
		c-1.076-1.517-2.347-2.836-3.813-3.96c-0.685-3.423-1.174-7.149-1.466-11.184c-0.539-8.041,0.231-13.626,2.309-16.755
		c0.563-0.807,1.076-1.772,1.541-2.896l0.072,0.513c-0.903,3.227-0.085,10.756,2.457,22.586l0.073,0.77l0.036-0.036
		c0.733,3.153,1.394,5.902,1.98,8.25l0.439,0.292c0.343,0.44,0.612,1.247,0.808,2.421h5.426c-1.075-1.517-2.347-2.836-3.813-3.96
		c-1.101-5.354-1.649-10.633-1.649-15.84l0.513-2.162c0.366-1.932,1.526-4.095,3.481-6.49c0.074-0.122,1.786-1.992,5.135-5.608
		c0.488-0.515,1.062-1.26,1.723-2.238c0.831-1.245,1.381-2.027,1.649-2.346c0.098-0.122,0.404-0.366,0.917-0.733
		c0.44,0.563,0.66,0.881,0.66,0.953c0.757,3.129,1.283,5.488,1.576,7.075c0.464,2.665,0.685,5.098,0.66,7.297
		c-0.072,2.812,0.171,5.512,0.733,8.104l-0.073-0.038l0.366,2.641h-0.109l0.109,0.072c0.317,2.884,0.551,6.147,0.697,9.79
		c0.203,0.365,0.381,0.744,0.53,1.137c-3.369,1.612-6.835,3.091-10.394,4.437c-7.406,2.834-15.203,5.06-23.392,6.671
		c-28.353,5.794-54.922,3.203-79.707-7.771c0.439-0.072,0.818-0.159,1.136-0.257l0.293-0.257c0.024-0.195-0.05-0.293-0.221-0.293
		c-0.22,0-0.439,0.024-0.66,0.073c-0.195,0-0.293-0.11-0.293-0.33c-0.123-0.391-0.123-0.587,0-0.587c0.367,0.025,0.661,0.025,0.88,0
		c0.195-0.097,0.354-0.195,0.477-0.294v-0.072c0.097-1.026-0.012-1.968-0.33-2.822v-0.11l-8.03-0.898
		c0.288-4.828,0.692-8.575,1.21-11.237l0.11-0.808c0.073-0.537,0.306-1.625,0.696-3.263c0.317-1.345,0.489-2.433,0.513-3.264
		c0.05-2.053,0.074-4.607,0.074-7.662l-0.074-7.699c0-0.416,0.024-0.966,0.074-1.65c0.097-0.855,0.159-1.404,0.183-1.649
		c0.074-1.052,0.477-2.054,1.21-3.007c1.1-1.418,2.761-2.212,4.986-2.383c1.026-0.22,2.017-0.013,2.969,0.623
		c0.953,0.611,1.492,1.418,1.614,2.42c0.342,3.056,0.598,6.429,0.769,10.119c0.025,0.66-0.024,1.467-0.147,2.42
		c-0.073,0.538-0.195,1.357-0.366,2.457c-0.097,0.684-0.293,1.723-0.587,3.116c-0.146,1.174,0.014,2.199,0.478,3.08
		c0.658,1.222,0.99,2.822,0.99,4.803c0.024,3.299,0.036,4.962,0.036,4.986c-0.269,5.621-0.464,8.799-0.587,9.532l-0.917,1.211
		c-0.61,0.953-0.916,1.82-0.916,2.603h3.592c0.124-1.271,0.477-2.444,1.063-3.52c0.147-3.618,0.392-6.882,0.734-9.79l0.073-0.036
		l-0.073-0.037l0.33-2.603h-0.038c0.539-2.763,0.783-5.451,0.733-8.066c-0.048-2.225,0.171-4.644,0.66-7.26
		c0.269-1.686,0.794-4.057,1.577-7.113c0.05-0.121,0.134-0.28,0.257-0.476c0.22-0.295,0.342-0.452,0.366-0.478
		c0.539,0.367,0.843,0.611,0.917,0.733c0.147,0.171,0.698,0.953,1.649,2.347c0.66,0.954,1.235,1.698,1.724,2.237
		c1.027,1.124,2.737,2.994,5.132,5.608c1.981,2.371,3.142,4.521,3.483,6.454c0.05,0.391,0.219,1.124,0.514,2.198
		c0,3.252-0.269,6.856-0.806,10.817c-0.27,1.979-0.539,3.629-0.808,4.949c-1.49,1.148-2.773,2.494-3.85,4.033h5.426
		c0.197-1.223,0.453-2.029,0.77-2.42l0.477-0.293c0.611-2.371,1.259-5.133,1.943-8.286l0.074,0.072l0.109-0.807
		c2.542-11.806,3.336-19.333,2.383-22.585l0.111-0.477c0.416,1.027,0.929,1.993,1.54,2.896c2.078,3.104,2.848,8.689,2.309,16.756
		c-0.269,4.009-0.756,7.711-1.466,11.109c-1.49,1.148-2.761,2.494-3.813,4.033h5.428c0.195-1.223,0.451-2.029,0.769-2.42l0.44-0.293
		c1.271-4.767,2.383-9.704,3.336-14.813c1.882-10.192,2.102-16.169,0.66-17.929c-2.518-3.031-4.094-6.746-4.73-11.146
		c-0.464-3.153-0.427-6.441,0.11-9.862l0.881-4.217v-0.037c0.708-3.324,1.148-5.352,1.319-6.086
		c0.513-2.297,1.038-4.325,1.577-6.085c0.293-1.004,0.195-2.896-0.293-5.684c-0.391-2.225-0.794-3.924-1.21-5.097
		c-0.537-1.612-1.454-2.982-2.75-4.106c-1.589-1.197-2.824-2.175-3.703-2.933c-3.252-2.787-7.371-4.106-12.356-3.96
		c-1.808,0.073-3.923,0.049-6.343-0.074c-2.836-0.145-4.95-0.268-6.343-0.366c-0.244,0-0.501-0.122-0.77-0.366
		c-0.292-0.245-0.501-0.488-0.622-0.733c-0.343-0.66-0.551-1.418-0.625-2.272c-0.097-1.247-0.012-1.993,0.257-2.236
		c0.831-0.734,1.456-1.26,1.87-1.577c0.758-0.563,1.466-0.905,2.127-1.026c1.344-0.293,2.259-0.538,2.75-0.733
		c0.903-0.392,1.673-1.014,2.309-1.87c0.831-1.173,1.198-2.272,1.1-3.3c-0.097-1.148-0.77-1.869-2.017-2.163
		c-1.001-0.269-1.967-0.917-2.896-1.942c-1.197-1.321-1.993-2.115-2.383-2.383c-0.097-0.074-0.159-0.245-0.183-0.515
		c-0.048-0.268-0.036-0.477,0.036-0.623c0.611-1.173,0.282-2.138-0.989-2.896c0.978-0.268,1.516-0.427,1.613-0.477
		c0.464-0.195,1.161-0.477,2.09-0.843c0.807-0.342,1.417-0.709,1.834-1.1c1.856-1.637,3.483-3.435,4.875-5.39
		c0.905-1.247,1.504-2.029,1.798-2.347c0.733-0.783,1.577-1.308,2.53-1.576c0.513-0.123,1.05-0.526,1.613-1.21
		c2.202-2.816,4.207-5.39,6.013-7.718c1.528,0.081,3.007,0.198,4.436,0.349c2.884,0.22,5.537,0.598,7.958,1.137h16.682v-0.953
		h-9.276c0-0.099,0.086-0.257,0.257-0.477c0.146-0.123,0.22-0.257,0.22-0.404c-0.464,0.147-1.553,0.281-3.264,0.404
		c-1.686,0.22-2.762,0.378-3.226,0.477h-2.75v-0.477c0.171,0,1.136-0.354,2.896-1.063c1.834-0.734,2.86-1.136,3.08-1.21
		c0-0.195-0.061-0.33-0.183-0.403l-0.256-0.074h-14.574c0.167-0.298,0.331-0.665,0.494-1.099c0.539-1.345,0.709-2.714,0.514-4.107
		c-0.197-1.223-0.661-2.542-1.394-3.96c-0.171,0.44-0.257,1.1-0.257,1.979c0,0.342,0.012,0.869,0.037,1.577
		c0,0.636-0.049,1.148-0.147,1.541c-0.386,1.521-0.979,2.878-1.777,4.069h-9.679c0.513-1.521,0.995-2.792,1.447-3.813
		c1.174-2.786,2.262-4.742,3.264-5.865c1.931-2.249,2.993-4.682,3.19-7.296c0.171-2.274-0.342-4.84-1.541-7.7
		c-0.024-0.048-0.123-0.391-0.292-1.026c-0.392,0.39-0.624,0.831-0.698,1.319c-0.048,0.195-0.061,0.563-0.036,1.1
		c0,0.171,0.073,1.148,0.219,2.934c0.074,1.173,0.11,2.15,0.11,2.933c-0.098,2.078-0.867,3.568-2.309,4.473
		c-0.514,0.317-0.905,0.452-1.174,0.404c-0.318-0.098-0.575-0.453-0.771-1.063c-0.611-1.882-1.698-4.815-3.264-8.801
		c-0.073-0.195-0.207-0.427-0.402-0.696c-0.244-0.292-0.415-0.513-0.513-0.66c-0.366,0.489-0.526,0.953-0.477,1.394l0.293,6.526
		c0.048,0.782,0.024,1.37-0.074,1.76c-0.195,0.587-0.622,1.026-1.283,1.32c-0.097,0.048-0.183,0.221-0.256,0.513
		c-0.099,0.221-0.135,0.44-0.11,0.661c0.123,0.904-0.097,1.589-0.66,2.053c-0.587,0.463-1.309,0.538-2.162,0.22
		c-1.052-0.366-1.773-0.636-2.164-0.807c-1.736-0.929-3.716-2.469-5.941-4.62c-2.834-2.787-4.68-4.497-5.536-5.132
		c0.025,0.585,0.184,1.074,0.478,1.466c2.2,2.761,3.91,4.814,5.132,6.158c1.979,2.176,3.972,3.948,5.976,5.317
		c0.808,0.537,1.492,0.917,2.055,1.136c0.757,0.293,1.539,0.404,2.345,0.33c0.855-0.074,1.406,0.012,1.649,0.257
		c0.27,0.268,0.354,0.843,0.257,1.724c-0.12,1.255-0.315,2.416-0.587,3.482h-1.87l0.146,0.074l-4.288-0.074l0.438-0.22
		l-14.116-0.843c-0.855,0-1.625,0.012-2.309,0.037c0.318,0,0.66,0,1.026,0l-25.188,2.419c0,0.098-0.427,0.257-1.283,0.477
		c-0.538,0.195-0.757,0.404-0.66,0.624l-4.272,0.274c-0.415-0.991-0.677-1.645-0.788-1.96c-0.465-1.492-0.636-2.873-0.513-4.144
		c0.024-0.292,0.012-0.636-0.036-1.026c-0.074-0.489-0.111-0.855-0.111-1.1c-0.097-0.244-0.207-0.403-0.33-0.477
		c-0.048-0.024-0.171-0.048-0.368-0.072l-0.658,7.039l-0.515,0.036c-1.906-1.979-3.299-3.91-4.179-5.792
		c-1.076-2.274-1.515-4.631-1.319-7.077c0.123-1.392,0.33-3.116,0.623-5.169c0.366-2.298,0.624-4.022,0.769-5.17l0.551-3.226
		l-0.587-0.219l-1.871,4.435c-0.123,0.293-0.439,1.088-0.952,2.383c-0.368,0.979-0.686,1.76-0.954,2.347
		c-0.122,0.195-0.331,0.38-0.625,0.551c-0.316,0.171-0.562,0.219-0.732,0.146c-1.516-0.538-2.652-1.173-3.409-1.907
		c-0.955-0.952-1.454-2.187-1.504-3.703c-0.024-0.44-0.012-1.161,0.036-2.163c0.026-0.88,0.014-1.613-0.036-2.2
		c-0.073-0.368-0.22-0.672-0.44-0.917c-0.146-0.147-0.28-0.244-0.402-0.293c-0.465,1.564-0.686,2.554-0.661,2.97
		c0.05,1.931,0.233,4.35,0.551,7.26c0.05,0.292,0.134,1.295,0.257,3.007c0.121,1.392,0.244,2.37,0.366,2.932
		c-1.663-0.758-2.957-2.322-3.887-4.693c-1.172-3.005-1.979-4.767-2.419-5.279c-0.171,2.494-0.061,4.338,0.33,5.536
		c1.174,3.544,3.276,6.331,6.307,8.359c0.318,0.221,0.746,0.661,1.283,1.321c0.146,0.171,0.477,0.587,0.989,1.247
		c0.392,0.513,0.722,0.903,0.99,1.172c0.637,0.587,1.749,1.553,3.336,2.896c1.468,1.247,2.566,2.236,3.3,2.97
		C52.055,121.707,52.183,121.828,52.311,121.948z M238.839,168.457l-2.236-10.064c-0.024-0.172-0.586-2.225-1.686-6.159
		l-1.981-6.966c-0.122-0.489-0.061-0.893,0.184-1.21c0.733-1.125,1.137-2.407,1.21-3.85c0.024-1.051-0.146-2.371-0.513-3.96
		c-0.293-1.319-0.317-2.188-0.074-2.603c0.294-0.392,1.088-0.66,2.384-0.807c8.995-1.051,16.829-4.803,23.502-11.256
		c0.195-0.183,0.416-0.385,0.659-0.604c1.645,0.051,2.72,0.205,3.227,0.458c-0.27,0.708-0.93,1.381-1.979,2.017
		c-0.807,0.268-1.503,0.549-2.09,0.843c0.146,0.147,0.244,0.27,0.294,0.366c0.854,0.611,1.283,1.1,1.283,1.468v0.146
		c0.537,0.44,1.185,0.794,1.942,1.063h13.272c0.023,0.22,0.061,0.44,0.11,0.66c0,0.147,0.024,0.245,0.072,0.293
		c0.221-0.048,0.454-0.072,0.697-0.072c0.22,1.661,0.415,3.324,0.586,4.986c-0.121,0.098-0.231,0.159-0.33,0.183v0.074
		c1.346,8.701,1.725,17.256,1.137,25.665c-0.17,2.566-0.439,5.084-0.807,7.552h-1.869c-0.856,0-1.735,0.063-2.64,0.185
		c-0.44,0.049-1.197,0.184-2.273,0.402l-2.163,0.624l-19.615-1.503c-0.22,0-0.354,0.109-0.404,0.33
		c-0.121,0.268-0.269,0.451-0.438,0.549h-1.504c-2.2-0.098-3.922-0.098-5.169,0c-0.368,0-0.867,0-1.504,0
		c-0.171,0.172-0.366,0.38-0.586,0.624C239.504,167.97,239.272,168.158,238.839,168.457z M238.985,169.116
		c0.234-0.014,0.479-0.044,0.734-0.091c0.194-0.049,0.537-0.256,1.025-0.624c0.758-0.391,1.211-0.659,1.357-0.807l0.109,0.477
		c-0.073,0.366-0.538,0.636-1.393,0.807l-1.1,0.33c-0.301,0.135-0.497,0.299-0.588,0.495L238.985,169.116z M239.262,172.728
		c0.004-0.164,0.011-0.323,0.018-0.477c0.074-0.879,0.061-1.551-0.037-2.016l-0.037-0.183l0.515,0.108
		c0.366,0.171,0.756,0.258,1.172,0.258c0.44,0.048,0.978,0.048,1.613,0c0.27-0.024,0.71-0.111,1.321-0.258
		c0.513-0.121,1.038-0.256,1.576-0.402c0.269-0.27,1.137-0.539,2.603-0.807c-0.072,0.049-0.11,0.135-0.11,0.256
		c-0.097,0.367-0.281,0.71-0.549,1.027c-0.197,0.44-0.171,0.867,0.072,1.283c-0.636,0.317-1.025,0.721-1.174,1.209H239.262z
		 M226.703,248.366l-0.036-2.272c0.146-0.93,0.244-1.614,0.292-2.054c0.295-2.176,0.454-3.483,0.479-3.924
		c0.072-2.639,0.133-4.619,0.183-5.938c0.049-2.371,0.184-4.352,0.402-5.94c0.123-1.051,0.453-2.42,0.99-4.105
		c0.709-2.249,1.124-3.618,1.246-4.106c0.391-1.564,0.611-2.407,0.66-2.53c0.196-1.027,0.281-1.895,0.257-2.604
		c-0.171-3.056,0.819-5.634,2.97-7.735c1.003-1.026,1.797-2.261,2.383-3.704c0.392-1.026,0.747-2.407,1.063-4.144
		c0.392-2.395,0.625-4.558,0.697-6.488c0.123-5.354,0.244-9.35,0.366-11.99c0.065-0.778,0.127-1.517,0.184-2.217l3.702-0.238
		c2.2-0.099,3.888-0.233,5.061-0.404l5.316-0.33c0.685-0.097,1.406-0.207,2.164-0.33c0.757-0.146,1.539-0.306,2.346-0.477
		l4.913-0.953c0.243,0.049,0.501,0.146,0.769,0.294c0.173,0.023,0.575-0.049,1.211-0.22c1.075-0.146,1.747-0.233,2.017-0.257
		c0.807,0,1.454,0.171,1.943,0.513l0.329-0.184c0.27-0.195,0.722-0.378,1.357-0.549c0.758-0.221,1.319-0.38,1.688-0.477
		c0.978-0.318,1.307-0.831,0.988-1.541c0.367,0.172,0.758,0.282,1.174,0.33c0.488,0,0.953,0.049,1.394,0.147
		c-0.367,0.269-0.587,0.428-0.66,0.477c-0.269,0.269-0.378,0.647-0.329,1.136c0.023,0.171,0.488,0.686,1.394,1.541h0.072
		c-1.076,4.399-2.42,8.738-4.032,13.016c-2.47,6.403-5.549,12.71-9.239,18.919c-1.884,3.178-3.948,6.342-6.196,9.495
		C247.72,230.36,237.882,240.308,226.703,248.366z M80.377,213.719c-0.112,0.055-0.247,0.104-0.404,0.146
		c-0.244-0.049-0.67-0.024-1.283,0.074c-0.317,0.072-0.55,0.157-0.696,0.256c-0.27,0.221-0.44,0.538-0.513,0.953
		c0.171,0.342,0.391,0.587,0.66,0.733c0.221,0.121,0.489,0.121,0.807,0c0.369,0,0.846-0.073,1.43-0.221
		c0.031,0.528,0.117,1.103,0.257,1.724c0.073,0.342,0.293,1.198,0.66,2.566c0.097,0.416,0.513,1.773,1.245,4.07
		c0.539,1.661,0.881,3.03,1.027,4.106c0.195,1.564,0.318,3.544,0.368,5.939c0.097,3.715,0.159,5.695,0.183,5.94
		c0.024,0.854,0.183,2.162,0.477,3.922c0,0.024,0.061,0.354,0.183,0.989c0.073,0.417,0.109,0.759,0.109,1.027l-0.037,2.494
		c-0.211,3.997-0.384,6.784-0.513,8.358l-3.042-0.33c-1.174-0.611-2.311-1.283-3.411-2.017c-4.228-2.517-8.188-5.183-11.878-7.992
		c-1.247-1.052-2.481-2.065-3.703-3.043c0.097-0.05,0.171-0.074,0.219-0.074l-0.146-0.513c-0.123-0.195-0.293-0.269-0.513-0.22
		c0.024,0.146-0.024,0.256-0.146,0.33c-0.416-0.342-0.819-0.696-1.21-1.063c0.171,0,0.33,0,0.477,0
		c0.269,0.048,0.563,0.134,0.88,0.257l0.33,0.146c-0.147-0.27,0.146-0.502,0.879-0.697c0.024-0.073,0.036-0.135,0.036-0.184
		c0-0.171-0.146-0.256-0.439-0.256c-0.587,0-0.88-0.025-0.88-0.073c-0.147-0.049-0.195-0.159-0.147-0.33
		c0.05,0,0.074-0.05,0.074-0.146c0.048-0.049,0.048-0.099,0-0.147h-0.293c0.098,0.195-0.049,0.489-0.44,0.881h-0.074
		c-0.219-0.122-0.463-0.392-0.732-0.808c-0.366-0.366-0.684-0.55-0.953-0.55l-0.073-0.036c0,0.171-0.05,0.366-0.147,0.586
		c-0.563-0.439-1.1-0.928-1.614-1.467h0.148c0.636-0.146,0.879-0.414,0.733-0.807c0-0.537,0.231-0.854,0.697-0.953
		c-0.197,0-0.38-0.024-0.551-0.072c-0.269-0.05-0.402-0.185-0.402-0.404c-0.539,0.489-0.991,0.758-1.357,0.808
		c-0.219-0.05-0.416,0-0.587,0.146c-0.27,0.074-0.562,0.233-0.879,0.477l-0.074-0.219c-0.097,0-0.44-0.453-1.026-1.357
		c-0.49-0.66-0.917-1.038-1.283-1.137c-0.758-0.438-1.699-0.524-2.823-0.256l-0.477,0.073l0.402-0.55
		c0.588-0.686,0.955-1.357,1.1-2.017c0.123-0.27,0.208-0.513,0.257-0.734c0.464-0.097,0.867-0.146,1.21-0.146
		c0.903,0,1.601-0.049,2.089-0.146c0.147,0,0.439,0,0.881,0c0-0.269-0.11-0.489-0.332-0.66c-0.048,0-0.231,0-0.549,0
		c-0.635,0-0.991-0.158-1.063-0.477c-0.048-0.22,0.036-0.513,0.257-0.879c0.317-0.611,0.477-0.941,0.477-0.991
		c0-0.268,0-0.427,0-0.476c-0.171-0.146-0.465-0.221-0.881-0.221l0.734-0.659c0.732-0.489,1.479-0.917,2.236-1.283
		c0.366-0.049,0.904-0.27,1.613-0.66l2.347-1.137c0.463-0.317,0.843-0.587,1.137-0.806c-0.342-0.318-0.758-0.465-1.247-0.44
		c-0.195,0-0.513,0.024-0.953,0.072l-0.403,0.221c-0.221-0.464-0.269-0.893-0.146-1.283c0.097-0.146,0.256-0.488,0.477-1.027
		c0.415-0.758,0.489-1.331,0.219-1.723h0.513c1.394,0.073,2.249,0.11,2.566,0.11c0.49,0.048,1.003,0.048,1.54,0h1.43l2.017-0.587
		l0.477-0.733c0.587-0.635,1.148-1.136,1.686-1.504l0.66-0.585c0.368-0.245,0.844-0.503,1.43-0.771
		c0.611-0.122,1.321-0.27,2.127-0.44l1.686-0.402l0.478,0.109c0.219-0.172,0.292-0.306,0.219-0.403c0-0.269-0.05-0.538-0.146-0.807
		c0.684-0.221,1.295-0.379,1.833-0.477c0.221,0,0.464,0,0.734,0c0.646,0,1.221,0.066,1.723,0.201
		C80.362,213.265,80.374,213.491,80.377,213.719z M210.168,258.431l-0.184-0.238c-0.122-0.733-0.33-3.899-0.623-9.496
		c0.05-2.225,0.074-3.898,0.074-5.022c0-1.956,0.328-3.558,0.989-4.804c0.463-0.855,0.622-1.895,0.477-3.116
		c-0.293-1.369-0.502-2.408-0.623-3.116c-0.368-2.273-0.526-3.899-0.477-4.876c0.097-3.203,0.342-6.576,0.732-10.12
		c0.122-1.003,0.672-1.808,1.65-2.419c0.929-0.636,1.906-0.832,2.933-0.587c2.249,0.171,3.924,0.965,5.023,2.383
		c0.708,0.903,1.112,1.895,1.211,2.971c0.048,0.756,0.133,1.868,0.256,3.335l-0.037,7.7c-0.023,3.079-0.012,5.646,0.037,7.7
		c0.023,0.829,0.195,1.917,0.513,3.263c0.416,1.637,0.647,2.725,0.697,3.262l0.073,0.771c0.257,1.265,0.483,2.773,0.678,4.528
		C219.291,253.442,214.825,256.069,210.168,258.431z M59.332,127.338c4.892,2.988,10.257,4.81,16.095,5.464
		c1.295,0.146,2.078,0.427,2.347,0.843c0.268,0.391,0.257,1.246-0.038,2.566c-0.342,1.613-0.5,2.945-0.475,3.996
		c0.048,1.418,0.451,2.689,1.209,3.813c0.22,0.366,0.27,0.77,0.147,1.21l-1.981,7.003c-0.976,3.397-1.551,5.426-1.722,6.086
		c-0.587,2.641-1.442,6.587-2.566,11.842c-0.123,0.539-0.159,1.223-0.11,2.054c0.098,0.953,0.233,2.371,0.402,4.253
		c0.147,1.712,0.245,3.129,0.293,4.254c0.099,2.664,0.197,6.673,0.293,12.024c0.099,2.005,0.343,4.168,0.734,6.49
		c0.318,1.735,0.672,3.117,1.063,4.143c0.563,1.442,1.357,2.665,2.383,3.667c0.889,0.889,1.581,1.854,2.072,2.896
		c-7.544-0.57-17.462-1.462-29.753-2.675c0.686-0.099,1.357-0.173,2.017-0.221c-1.76-0.171-4.521-0.477-8.286-0.916l-0.146-2.493
		c1.174-1.541,2.701-3.02,4.583-4.437c1.711-1.101,3.58-2.14,5.609-3.117c0.318-0.097,0.636-0.231,0.953-0.402
		c0.709-0.27,1.418-0.563,2.127-0.881c4.594-1.711,7.858-2.969,9.789-3.776l-0.073-0.514c-5.744-0.464-11.085-0.917-16.022-1.355
		c-0.368-0.221-0.636-0.465-0.807-0.734c-0.269,0.123-0.501,0.294-0.697,0.514c-0.123,0.098-0.231,0.122-0.33,0.074
		c-0.903,0.537-1.734,0.672-2.492,0.402c-0.269-0.171-0.563-0.391-0.88-0.66c-0.439-0.048-0.929-0.072-1.466-0.072
		c-4.571-0.489-8.652-0.782-12.246-0.881c4.399-2.468,8.946-4.032,13.64-4.692h-0.11c0.123-0.05,0.318-0.099,0.587-0.146
		c0.27,0.048,0.501,0.097,0.696,0.146c0.073,0.024,0.134,0.036,0.183,0.036c0.416,0,0.844-0.062,1.283-0.183v-0.146
		c0-0.049-0.024-0.111-0.073-0.184c-0.221-1.394-0.782-2.457-1.687-3.189c-0.122-0.074-0.256-0.245-0.403-0.515
		c-0.318,0-0.647,0.038-0.99,0.11c-1.223,0.049-2.347,0.074-3.374,0.074c-2.419,0-3.972-0.16-4.656-0.477
		c0.366-0.758,1.014-1.43,1.943-2.017c0.806-0.294,1.528-0.6,2.164-0.917c-0.074-0.099-0.159-0.171-0.257-0.22
		c-0.903-0.71-1.356-1.223-1.356-1.54l0.073-0.22c-0.635-0.392-1.259-0.722-1.869-0.991h-13.42c0-0.268-0.048-0.513-0.147-0.732
		c0-0.099,0-0.195,0-0.294c-0.219,0.049-0.44,0.099-0.66,0.147c-0.219-1.662-0.416-3.324-0.587-4.986
		c0.074-0.098,0.183-0.158,0.33-0.185c-1.808-11.365-1.918-22.462-0.33-33.29h1.797c0.953,0,1.833-0.085,2.639-0.256
		c0.44-0.05,1.223-0.185,2.347-0.404l2.164-0.549l19.579,1.429c0.22,0,0.354-0.085,0.403-0.256c0.098-0.269,0.233-0.428,0.404-0.477
		l1.613-0.073c2.2,0.097,3.91,0.097,5.132,0c0.368,0,0.856-0.025,1.466-0.074c0.147-0.123,0.355-0.306,0.624-0.549
		c0.05-0.172,0.563-0.526,1.54-1.063l0.147-0.074h-0.147c-0.537-0.171-1.1-0.171-1.687,0c-0.219,0.05-0.549,0.233-0.99,0.551
		c-0.806,0.44-1.307,0.732-1.502,0.879l-0.147-0.549c0.147-0.318,0.646-0.538,1.503-0.66l1.136-0.477
		c0.366-0.146,0.575-0.392,0.624-0.734l-0.769-0.219c-0.293-0.171-0.649-0.257-1.063-0.257c-0.44-0.097-0.978-0.097-1.613,0
		c-0.269,0.074-0.722,0.159-1.357,0.257c-0.537,0.147-1.05,0.354-1.541,0.624c-0.268,0.171-1.124,0.39-2.566,0.66
		c0-0.048,0-0.159,0-0.33c0.098-0.221,0.281-0.587,0.55-1.1c0.171-0.392,0.147-0.794-0.074-1.21c0.684-0.317,1.088-0.696,1.21-1.136
		H59.332z M216.621,85.651c-0.343,0.245-0.428,0.428-0.257,0.549c0.146,0,0.366,0.05,0.659,0.148c0.366,0,0.6-0.05,0.698-0.148
		c0.048-0.097-0.159-0.231-0.625-0.402h-0.256v-0.147C216.792,85.578,216.718,85.578,216.621,85.651z M205.071,120.556
		c0.114-0.047,0.219-0.047,0.312,0c-0.093-0.05-0.197-0.074-0.312-0.074V120.556z M205.878,120.556v-0.074l-0.072,0.074H205.878z
		 M214.896,119.858c0.172-0.123,0.331-0.231,0.478-0.33c-0.146,0-0.269,0.048-0.367,0.146L214.896,119.858z M191.506,126.348
		l7.735,2.42c-1.295,0.635-2.822,0.709-4.582,0.219C192.825,128.474,191.774,127.595,191.506,126.348z M93.943,121.71
		c0.794,0.067,2.103,0.123,3.922,0.166c-1.931,0,0.159,0.073,6.269,0.219c0-0.048,0-0.097,0-0.146
		c0.587-0.048,1.259-0.073,2.017-0.073c1.375-0.069,2.971-0.153,4.786-0.257c-0.194,0.44-0.408,0.856-0.643,1.247
		c-1.344,2.297-3.349,4.032-6.013,5.207c-0.903,0.391-1.893,0.965-2.969,1.724c-0.416,0.268-1.345,0.977-2.787,2.126
		c-0.978,0.758-2.126,1.319-3.445,1.686c-0.954,0.295-2.225,0.502-3.813,0.624c-0.269,0.024-0.575-0.061-0.917-0.256
		c-0.317-0.171-0.575-0.392-0.77-0.66c-0.074-0.099-0.012-0.33,0.183-0.698c0.171-0.366,0.354-0.647,0.551-0.843
		c1.758-1.613,2.981-4.033,3.667-7.26C94.192,123.543,94.181,122.608,93.943,121.71z M92.916,121.563
		c0.077,1.495-0.351,3.041-1.283,4.639c-1.148,1.906-2.615,3.238-4.4,3.996c-1.394,0.563-2.786,0.575-4.179,0.036
		c-0.929-0.366-1.943-0.598-3.043-0.696c-0.416-0.05-0.734-0.171-0.954-0.366c-0.221-0.197-0.404-0.501-0.551-0.917
		c-0.366-1.076-0.66-1.918-0.879-2.53c-0.092-0.237-0.178-0.465-0.257-0.679c0.327-0.05,0.633-0.117,0.917-0.201l0.843-0.185
		c0.318-0.146,0.734-0.378,1.247-0.696c-0.27-0.049-0.746-0.111-1.43-0.183h-0.732c-0.63-0.081-1.136-0.197-1.523-0.349
		c-0.029-0.068-0.061-0.136-0.091-0.202c-0.061,0.031-0.116,0.062-0.165,0.091c-0.392-0.199-0.605-0.45-0.642-0.751
		c0.807-0.195,1.541-0.33,2.2-0.403l2.311-0.221c0.537,0.05,1.074,0.146,1.613,0.293l0.513,0.036
		c0.269,0.197,0.452,0.38,0.551,0.551c0.171,0.097,0.28,0.208,0.33,0.33c0.463-0.27,1.026-0.428,1.686-0.477l0.953-0.11
		c0.758,0,1.968-0.208,3.63-0.624c0.097-0.048,0.171-0.109,0.22-0.183l0.038,0.11c0.513-0.123,0.99-0.257,1.43-0.404
		c-0.44,0.269-0.844,0.5-1.21,0.697c0.171,0.171,0.416,0.28,0.732,0.33c0.416-0.05,1.003-0.293,1.761-0.734L92.916,121.563z
		 M76.234,125.157c0.191,0.625,0.435,1.426,0.734,2.401c0.489,1.222,0.134,1.785-1.064,1.687c-2.934-0.293-5.476-0.758-7.626-1.394
		c-1.017-0.292-1.989-0.633-2.915-1.026c-0.028-0.027-0.06-0.051-0.092-0.073c-0.366-0.148-0.549-0.307-0.549-0.478
		c1.05-0.636,2.273-1.063,3.667-1.283c0.708-0.049,1.418-0.049,2.126,0l4.326,0.146C75.338,125.165,75.803,125.17,76.234,125.157z
		 M114.823,121.417c0.297-0.019,0.596-0.038,0.898-0.054c2.57-0.071,5.027-0.071,7.371,0c-0.165,0.138-0.337,0.272-0.515,0.403
		c-1.882,1.394-4.35,2.395-7.405,3.006c-1.076,0.245-1.418-0.219-1.026-1.394L114.823,121.417z M116.895,128.951
		c-1.786,0.464-3.325,0.392-4.62-0.22l7.699-2.383C119.729,127.545,118.703,128.414,116.895,128.951z M110.001,132.507l-8.322,2.604
		c0.366-1.223,1.528-2.14,3.483-2.75C107.143,131.774,108.754,131.823,110.001,132.507z M206.354,132.434
		c1.956,0.611,3.117,1.516,3.483,2.713l-8.323-2.641C202.785,131.823,204.399,131.799,206.354,132.434z M61.385,108.823
		c-0.098-0.099-0.098-0.159,0-0.183l-0.551,0.036c0.049,0.097,0.11,0.147,0.183,0.147C61.116,108.823,61.239,108.823,61.385,108.823
		z M36.747,111.06c-0.587,0.048-1.064,0.208-1.43,0.477c0.123,0,0.306,0,0.549,0c0.27-0.098,0.563-0.221,0.881-0.366V111.06z
		 M26.848,149.482l-1.357-0.072c-0.537-0.074-0.941-0.049-1.209,0.072l-0.221,0.147l0.221,0.146
		c0.487,0.221,0.916,0.306,1.283,0.257C26.175,150.132,26.603,149.947,26.848,149.482z M23.254,162.205
		c0.537-0.122,0.672-0.342,0.402-0.659l-0.33,0.221c-0.439,0.171-0.622,0.316-0.549,0.438c0.196-0.122,0.293-0.097,0.293,0.074
		L23.254,162.205z M245.107,65.523c-0.121,0-0.256,0-0.402,0c-0.171-0.074-0.33-0.025-0.477,0.146
		c-0.024,0.171,0.05,0.355,0.221,0.551c0.22,0.024,0.487,0.024,0.807,0c0.366,0,0.684-0.074,0.952-0.22
		c0.171-0.122,0.171-0.319,0-0.587C245.842,65.583,245.476,65.62,245.107,65.523z M239.866,62.919l0.659-0.402l-0.11-0.368
		l-0.77,0.221L239.866,62.919z M237.189,76.156v0.146c-0.049,0.171-0.207,0.355-0.477,0.551l0.108,0.402
		c0.197-0.048,0.332-0.072,0.404-0.072c0.195,0.048,0.33,0.072,0.402,0.072l0.074-0.549
		C237.799,76.265,237.628,76.082,237.189,76.156z M276.676,137.713c-0.488,0.221-0.599,0.515-0.329,0.881l0.329-0.293
		c0.416-0.171,0.574-0.366,0.478-0.587c-0.172,0.171-0.256,0.171-0.256,0H276.676z M275.942,150.363l-0.183-0.183
		c-0.538-0.197-0.966-0.245-1.283-0.147c-0.685-0.146-1.112,0.036-1.283,0.55h1.356c0.538,0.074,0.941,0.074,1.21,0
		C275.882,150.484,275.942,150.412,275.942,150.363z M238.729,191.427l0.477-0.11c-0.097-0.049-0.195-0.072-0.294-0.072h-0.183
		C238.778,191.292,238.778,191.353,238.729,191.427z M264.101,188.604c-0.22,0-0.465,0.099-0.732,0.293v0.037
		c0.586,0,1.038-0.135,1.355-0.403C264.577,188.53,264.37,188.555,264.101,188.604z"/>
	<path fill-rule="evenodd" clip-rule="evenodd" fill="#755C71" d="M210.168,258.431l0.733,0.971c0.586,0.979,0.88,1.847,0.88,2.604
		h-3.593c-0.079-0.831-0.257-1.612-0.533-2.347c-0.149-0.393-0.327-0.771-0.53-1.137c-0.146-3.643-0.38-6.906-0.697-9.79
		l-0.109-0.072h0.109l-0.366-2.641l0.073,0.038c-0.563-2.593-0.806-5.293-0.733-8.104c0.024-2.199-0.196-4.632-0.66-7.297
		c-0.293-1.587-0.819-3.946-1.576-7.075c0-0.072-0.22-0.391-0.66-0.953c-0.513,0.367-0.819,0.611-0.917,0.733
		c-0.269,0.318-0.818,1.101-1.649,2.346c-0.661,0.979-1.234,1.724-1.723,2.238c-3.349,3.616-5.061,5.486-5.135,5.608
		c-1.955,2.396-3.115,4.559-3.481,6.49l-0.513,2.162c0,5.207,0.549,10.486,1.649,15.84c1.466,1.124,2.737,2.443,3.813,3.96h-5.426
		c-0.195-1.174-0.465-1.98-0.808-2.421l-0.439-0.292c-0.587-2.348-1.247-5.097-1.98-8.25l-0.036,0.036l-0.073-0.77
		c-2.542-11.83-3.36-19.359-2.457-22.586l-0.072-0.513c-0.465,1.124-0.978,2.09-1.541,2.896c-2.077,3.129-2.848,8.714-2.309,16.755
		c0.292,4.034,0.781,7.761,1.466,11.184c1.467,1.124,2.737,2.443,3.813,3.96h-5.39c-0.221-1.174-0.501-1.98-0.843-2.421l-0.44-0.292
		c-1.223-4.767-2.31-9.692-3.264-14.776c-1.931-10.217-2.163-16.205-0.696-17.965c2.518-3.056,4.082-6.771,4.692-11.146
		c0.465-3.104,0.44-6.404-0.073-9.9l-0.917-4.252c-1.148-5.671-2.089-9.716-2.823-12.137c-0.316-1.025-0.231-2.933,0.258-5.718
		c0.366-2.104,0.77-3.813,1.209-5.135c0.538-1.588,1.443-2.944,2.714-4.068c1.638-1.198,2.885-2.176,3.74-2.934
		c3.251-2.786,7.382-4.119,12.392-3.997c2.47,0.099,6.686-0.036,12.649-0.402c0.465,0,0.94-0.38,1.431-1.136
		c0.293-0.611,0.501-1.357,0.622-2.238c0.05-1.271-0.037-2.027-0.256-2.272c-1.662-1.517-3.007-2.371-4.033-2.566
		c-1.345-0.294-2.248-0.537-2.713-0.734c-0.929-0.414-1.711-1.038-2.347-1.87c-0.855-1.173-1.234-2.284-1.137-3.335
		c0.123-1.125,0.819-1.846,2.09-2.163c1.002-0.245,1.968-0.892,2.896-1.943c1.198-1.319,1.991-2.115,2.383-2.383
		c0.099-0.048,0.171-0.207,0.221-0.477c0-0.245-0.037-0.452-0.11-0.624c-0.587-1.198-0.257-2.188,0.99-2.97
		c-0.807-0.171-1.332-0.306-1.577-0.402c-0.929-0.392-1.625-0.686-2.09-0.881c-0.807-0.342-1.43-0.696-1.87-1.062
		c-1.956-1.761-3.58-3.569-4.875-5.428c-0.905-1.271-1.504-2.065-1.798-2.383c-0.732-0.733-1.576-1.233-2.53-1.503
		c-0.488-0.146-1.014-0.563-1.576-1.247l-7.662-9.863c-0.27-0.318-0.574-0.879-0.916-1.686c-0.979-2.445-0.673-5.122,0.916-8.03
		c0.122,0.318,0.208,0.965,0.257,1.943c0,0.342-0.013,0.869-0.036,1.577c0,0.636,0.061,1.161,0.183,1.577
		c1.319,5.329,5.315,8.69,11.989,10.083c1.075,0.171,1.417-0.307,1.027-1.431c-0.638-1.881-1.112-3.299-1.432-4.252
		c-0.586-1.663-1.111-3.043-1.577-4.143c-0.658-1.541-1.136-2.58-1.428-3.117c-0.611-1.148-1.223-2.09-1.834-2.823
		c-1.979-2.199-3.067-4.607-3.263-7.223c-0.171-2.297,0.354-4.876,1.575-7.736l0.294-1.026c0.392,0.415,0.637,0.843,0.733,1.283
		c0.024,0.244,0.024,0.623,0,1.136c0,0.219-0.072,1.198-0.22,2.934c-0.098,1.149-0.122,2.114-0.073,2.896
		c0.098,2.102,0.855,3.604,2.272,4.509c0.515,0.317,0.904,0.44,1.174,0.366c0.318-0.073,0.573-0.427,0.769-1.063
		c0.589-1.711,1.676-4.633,3.264-8.764c0.123-0.316,0.44-0.769,0.954-1.355c0.317,0.44,0.477,0.905,0.477,1.394l-0.33,6.526
		c-0.024,0.831,0.012,1.406,0.11,1.724c0.171,0.61,0.587,1.063,1.247,1.356c0.292,0.123,0.402,0.525,0.328,1.21
		c-0.072,0.905,0.173,1.577,0.734,2.017c0.563,0.439,1.282,0.513,2.163,0.22c0.391-0.147,1.101-0.404,2.126-0.77
		c1.712-0.929,3.69-2.468,5.939-4.62c2.812-2.737,4.669-4.461,5.574-5.169c-0.024,0.585-0.196,1.074-0.515,1.466
		c-2.198,2.81-3.886,4.863-5.06,6.158c-2.028,2.176-4.032,3.948-6.012,5.317c-1.688,1.124-3.166,1.625-4.437,1.502
		c-0.831-0.073-1.369,0.012-1.613,0.257c-0.294,0.268-0.38,0.831-0.257,1.687c0.269,3.055,0.978,5.573,2.127,7.552
		c1.368,2.322,3.397,4.057,6.086,5.207c0.879,0.391,1.87,0.978,2.969,1.76c0.392,0.292,1.309,1.002,2.751,2.126
		c0.978,0.782,2.138,1.345,3.483,1.687c0.978,0.293,2.236,0.501,3.776,0.624c0.269,0.024,0.574-0.062,0.916-0.257
		c0.343-0.195,0.599-0.416,0.77-0.66c0.098-0.123,0.061-0.366-0.11-0.734c-0.171-0.342-0.378-0.623-0.623-0.843
		c-1.71-1.541-2.933-3.948-3.666-7.222c-0.366-1.81,0.012-3.471,1.138-4.987c0.146,0.245,0.183,0.489,0.108,0.734
		c-0.488,1.856-0.108,3.813,1.137,5.866c1.148,1.955,2.616,3.313,4.4,4.069c1.394,0.539,2.785,0.539,4.179,0
		c1.027-0.366,2.029-0.598,3.007-0.696c0.44-0.024,0.771-0.135,0.99-0.33c0.244-0.171,0.439-0.477,0.587-0.917
		c1.124-3.104,1.735-4.778,1.834-5.022c0.463,0.171,0.684,0.537,0.659,1.1c-0.245,0.708-0.575,1.772-0.989,3.188
		c-0.515,1.271-0.159,1.846,1.063,1.723c2.982-0.293,5.524-0.757,7.626-1.392c2.641-0.782,4.974-1.907,7.003-3.374
		c0.488-0.318,0.807-0.66,0.953-1.026c0.929-2.151,1.454-3.435,1.576-3.849c0.061-0.183,0.115-0.366,0.166-0.551
		c0.214-0.755,0.349-1.489,0.402-2.2c0.032-0.486,0.025-0.962-0.019-1.43c-0.049-0.292-0.049-0.648,0-1.063l0.11-1.027
		c0.122-0.318,0.367-0.501,0.733-0.549l0.366,4.216l0.258,2.823l0.513,0.037c1.165-1.224,2.137-2.428,2.914-3.611
		c0.502-0.746,0.923-1.486,1.266-2.218c0.375-0.777,0.674-1.558,0.897-2.347c0.436-1.535,0.587-3.1,0.459-4.694
		c-0.122-1.416-0.331-3.152-0.623-5.205c-0.342-2.298-0.599-4.022-0.771-5.17l-0.549-3.262l0.586-0.147l1.87,4.437
		c0.44,1.026,1.075,2.579,1.906,4.656c0.099,0.219,0.306,0.416,0.623,0.587c0.318,0.171,0.55,0.219,0.696,0.146
		c1.541-0.538,2.677-1.185,3.411-1.943c1.001-0.954,1.516-2.175,1.54-3.667c-0.099-1.833-0.099-3.287,0-4.362
		c0.072-0.684,0.353-1.088,0.843-1.21c0.465,1.639,0.684,2.628,0.66,2.97c-0.05,2.029-0.233,4.448-0.551,7.26
		c-0.073,0.391-0.159,1.392-0.258,3.007c-0.121,1.44-0.243,2.419-0.366,2.932c1.638-0.782,2.935-2.359,3.888-4.73
		c1.148-2.957,1.955-4.692,2.419-5.207c0.172,2.445,0.061,4.29-0.329,5.537c-1.148,3.471-3.252,6.246-6.306,8.322
		c-0.294,0.221-0.734,0.673-1.321,1.357c-0.806,1.148-1.466,1.956-1.979,2.419c-0.638,0.563-1.748,1.528-3.338,2.896
		c-1.068,0.925-1.948,1.701-2.64,2.33c-0.243,0.219-0.464,0.421-0.659,0.604c-6.673,6.453-14.507,10.205-23.502,11.256
		c-1.296,0.147-2.09,0.415-2.384,0.807c-0.243,0.415-0.219,1.283,0.074,2.603c0.366,1.589,0.537,2.909,0.513,3.96
		c-0.073,1.442-0.477,2.725-1.21,3.85c-0.244,0.318-0.306,0.722-0.184,1.21l1.981,6.966c1.1,3.935,1.661,5.987,1.686,6.159
		l2.236,10.064l0.146,0.659l0.146,0.587l0.073,0.35l0.037,0.183c0.098,0.465,0.111,1.137,0.037,2.016
		c-0.007,0.153-0.014,0.313-0.018,0.477c-0.088,1.475-0.228,3.437-0.423,5.886c-0.057,0.7-0.118,1.438-0.184,2.217
		c-0.122,2.641-0.243,6.637-0.366,11.99c-0.072,1.931-0.306,4.094-0.697,6.488c-0.316,1.736-0.672,3.117-1.063,4.144
		c-0.586,1.443-1.38,2.678-2.383,3.704c-2.15,2.102-3.141,4.68-2.97,7.735c0.024,0.709-0.061,1.576-0.257,2.604
		c-0.049,0.123-0.27,0.966-0.66,2.53c-0.122,0.488-0.537,1.857-1.246,4.106c-0.537,1.686-0.867,3.055-0.99,4.105
		c-0.219,1.589-0.354,3.569-0.402,5.94c-0.05,1.319-0.11,3.3-0.183,5.938c-0.024,0.44-0.184,1.748-0.479,3.924
		c-0.048,0.439-0.146,1.124-0.292,2.054l0.036,2.272v0.184c0.292,5.695,0.513,8.909,0.66,9.643l1.027,1.209
		c0.684,0.979,1.025,1.847,1.025,2.604h-4.032c-0.122-1.271-0.513-2.434-1.174-3.483c-0.164-3.063-0.379-5.721-0.642-7.975
		c-0.194-1.755-0.421-3.264-0.678-4.528l-0.073-0.771c-0.05-0.537-0.281-1.625-0.697-3.262c-0.317-1.346-0.489-2.434-0.513-3.263
		c-0.049-2.055-0.061-4.621-0.037-7.7l0.037-7.7c-0.123-1.467-0.208-2.579-0.256-3.335c-0.099-1.076-0.503-2.067-1.211-2.971
		c-1.1-1.418-2.774-2.212-5.023-2.383c-1.026-0.245-2.004-0.049-2.933,0.587c-0.979,0.611-1.528,1.416-1.65,2.419
		c-0.391,3.544-0.636,6.917-0.732,10.12c-0.05,0.977,0.108,2.603,0.477,4.876c0.121,0.708,0.33,1.747,0.623,3.116
		c0.146,1.222-0.014,2.261-0.477,3.116c-0.661,1.246-0.989,2.848-0.989,4.804c0,1.124-0.024,2.798-0.074,5.022
		c0.293,5.597,0.501,8.763,0.623,9.496L210.168,258.431z M80.377,213.719c-0.003-0.228-0.015-0.454-0.037-0.679
		c-0.12-1.098-0.405-2.13-0.862-3.099c-0.491-1.042-1.183-2.007-2.072-2.896c-1.026-1.002-1.821-2.225-2.383-3.667
		c-0.391-1.025-0.745-2.407-1.063-4.143c-0.391-2.322-0.635-4.485-0.734-6.49c-0.097-5.352-0.195-9.36-0.293-12.024
		c-0.048-1.125-0.146-2.542-0.293-4.254c-0.169-1.882-0.304-3.3-0.402-4.253c-0.049-0.831-0.012-1.515,0.11-2.054
		c1.124-5.255,1.979-9.201,2.566-11.842c0.171-0.66,0.746-2.688,1.722-6.086l1.981-7.003c0.123-0.44,0.073-0.844-0.147-1.21
		c-0.758-1.125-1.161-2.396-1.209-3.813c-0.024-1.051,0.133-2.383,0.475-3.996c0.295-1.321,0.306-2.176,0.038-2.566
		c-0.269-0.416-1.051-0.697-2.347-0.843c-5.838-0.654-11.204-2.476-16.095-5.464c-2.461-1.501-4.801-3.297-7.021-5.39
		c-0.128-0.12-0.256-0.241-0.385-0.366c-0.734-0.734-1.833-1.724-3.3-2.97c-1.587-1.344-2.699-2.309-3.336-2.896
		c-0.268-0.269-0.598-0.66-0.99-1.172c-0.513-0.66-0.843-1.076-0.989-1.247c-0.538-0.66-0.965-1.1-1.283-1.321
		c-3.031-2.028-5.133-4.815-6.307-8.359c-0.391-1.198-0.501-3.042-0.33-5.536c0.44,0.513,1.247,2.274,2.419,5.279
		c0.931,2.371,2.225,3.936,3.887,4.693c-0.123-0.563-0.245-1.54-0.366-2.932c-0.123-1.711-0.207-2.714-0.257-3.007
		c-0.318-2.91-0.501-5.329-0.551-7.26c-0.024-0.416,0.196-1.406,0.661-2.97c0.123,0.05,0.256,0.146,0.402,0.293
		c0.221,0.245,0.368,0.549,0.44,0.917c0.05,0.587,0.062,1.319,0.036,2.2c-0.048,1.002-0.061,1.722-0.036,2.163
		c0.05,1.516,0.549,2.75,1.504,3.703c0.757,0.734,1.893,1.369,3.409,1.907c0.171,0.074,0.416,0.025,0.732-0.146
		c0.293-0.171,0.502-0.355,0.625-0.551c0.268-0.587,0.586-1.368,0.954-2.347c0.513-1.295,0.829-2.09,0.952-2.383l1.871-4.435
		l0.587,0.219l-0.551,3.226c-0.146,1.148-0.403,2.872-0.769,5.17c-0.293,2.053-0.5,3.777-0.623,5.169
		c-0.195,2.445,0.244,4.803,1.319,7.077c0.88,1.882,2.273,3.813,4.179,5.792l0.515-0.036l0.658-7.039
		c0.197,0.024,0.319,0.048,0.368,0.072c0.123,0.074,0.233,0.233,0.33,0.477c0,0.245,0.037,0.611,0.111,1.1
		c0.048,0.391,0.061,0.734,0.036,1.026c-0.123,1.271,0.048,2.652,0.513,4.144c0.11,0.315,0.373,0.97,0.788,1.96
		c0.231,0.54,0.506,1.181,0.825,1.925c0.147,0.318,0.453,0.66,0.917,1.026c1.247,0.902,2.609,1.672,4.088,2.311
		c0.926,0.393,1.898,0.733,2.915,1.026c2.15,0.635,4.692,1.1,7.626,1.394c1.198,0.098,1.553-0.465,1.064-1.687
		c-0.299-0.975-0.543-1.776-0.734-2.401c-0.083-0.304-0.156-0.567-0.22-0.788c-0.024-0.392,0.049-0.686,0.22-0.881
		c0.034-0.05,0.101-0.105,0.202-0.166c0.049-0.029,0.104-0.061,0.165-0.091c0.031,0.066,0.062,0.133,0.091,0.202
		c0.191,0.431,0.417,0.968,0.679,1.613c0.08,0.214,0.166,0.441,0.257,0.679c0.219,0.611,0.513,1.454,0.879,2.53
		c0.147,0.416,0.33,0.72,0.551,0.917c0.22,0.195,0.538,0.316,0.954,0.366c1.1,0.098,2.114,0.33,3.043,0.696
		c1.394,0.539,2.786,0.527,4.179-0.036c1.785-0.758,3.251-2.09,4.4-3.996c0.932-1.598,1.36-3.144,1.283-4.639
		c-0.019-0.425-0.081-0.847-0.183-1.264c-0.048-0.27,0-0.526,0.147-0.77c0.512,0.701,0.866,1.428,1.063,2.181
		c0.237,0.898,0.249,1.833,0.037,2.805c-0.686,3.227-1.908,5.647-3.667,7.26c-0.197,0.195-0.38,0.477-0.551,0.843
		c-0.195,0.368-0.257,0.599-0.183,0.698c0.195,0.268,0.453,0.489,0.77,0.66c0.342,0.195,0.648,0.28,0.917,0.256
		c1.589-0.121,2.86-0.329,3.813-0.624c1.319-0.366,2.468-0.928,3.445-1.686c1.442-1.149,2.371-1.858,2.787-2.126
		c1.076-0.758,2.065-1.333,2.969-1.724c2.665-1.174,4.669-2.91,6.013-5.207c0.234-0.391,0.449-0.807,0.643-1.247
		c0.395-0.854,0.717-1.795,0.971-2.823c0.272-1.066,0.467-2.227,0.587-3.482c0.097-0.881,0.012-1.456-0.257-1.724
		c-0.244-0.245-0.794-0.331-1.649-0.257c-0.806,0.074-1.588-0.037-2.345-0.33c-0.563-0.219-1.247-0.599-2.055-1.136
		c-2.003-1.37-3.996-3.142-5.976-5.317c-1.223-1.344-2.933-3.397-5.132-6.158c-0.294-0.392-0.453-0.881-0.478-1.466
		c0.856,0.635,2.702,2.345,5.536,5.132c2.225,2.15,4.205,3.69,5.941,4.62c0.39,0.171,1.112,0.44,2.164,0.807
		c0.854,0.318,1.575,0.244,2.162-0.22c0.563-0.464,0.783-1.149,0.66-2.053c-0.024-0.221,0.012-0.44,0.11-0.661
		c0.073-0.292,0.159-0.464,0.256-0.513c0.661-0.293,1.088-0.732,1.283-1.32c0.098-0.39,0.122-0.978,0.074-1.76l-0.293-6.526
		c-0.05-0.44,0.11-0.905,0.477-1.394c0.098,0.146,0.27,0.367,0.513,0.66c0.195,0.269,0.33,0.501,0.402,0.696
		c1.566,3.986,2.653,6.918,3.264,8.801c0.195,0.611,0.453,0.965,0.771,1.063c0.269,0.048,0.66-0.086,1.174-0.404
		c1.442-0.905,2.211-2.396,2.309-4.473c0-0.782-0.036-1.76-0.11-2.933c-0.146-1.785-0.219-2.763-0.219-2.934
		c-0.024-0.537-0.012-0.905,0.036-1.1c0.074-0.489,0.306-0.929,0.698-1.319c0.169,0.635,0.268,0.978,0.292,1.026
		c1.198,2.86,1.711,5.426,1.541,7.7c-0.197,2.615-1.259,5.048-3.19,7.296c-1.001,1.123-2.09,3.079-3.264,5.865
		c-0.453,1.021-0.935,2.292-1.447,3.813c-0.044,0.121-0.088,0.244-0.128,0.368l-0.789,2.254l-0.677,1.961
		c-0.392,1.174-0.05,1.639,1.026,1.394c3.055-0.611,5.523-1.613,7.405-3.006c0.178-0.131,0.35-0.265,0.515-0.403
		c0.911-0.747,1.688-1.604,2.328-2.567c0.798-1.19,1.391-2.547,1.777-4.069c0.098-0.392,0.147-0.905,0.147-1.541
		c-0.024-0.708-0.037-1.235-0.037-1.577c0-0.879,0.086-1.539,0.257-1.979c0.732,1.418,1.197,2.737,1.394,3.96
		c0.195,1.393,0.024,2.762-0.514,4.107c-0.163,0.434-0.327,0.801-0.494,1.099c-0.127,0.24-0.256,0.435-0.385,0.587
		c-0.521,0.677-1.058,1.38-1.613,2.108c-1.807,2.328-3.812,4.901-6.013,7.718c-0.563,0.684-1.1,1.088-1.613,1.21
		c-0.953,0.268-1.796,0.793-2.53,1.576c-0.293,0.317-0.893,1.1-1.798,2.347c-1.392,1.955-3.019,3.752-4.875,5.39
		c-0.417,0.391-1.027,0.758-1.834,1.1c-0.929,0.366-1.625,0.647-2.09,0.843c-0.097,0.05-0.635,0.209-1.613,0.477
		c1.271,0.758,1.601,1.724,0.989,2.896c-0.072,0.146-0.084,0.355-0.036,0.623c0.024,0.27,0.086,0.44,0.183,0.515
		c0.391,0.268,1.186,1.062,2.383,2.383c0.929,1.025,1.895,1.674,2.896,1.942c1.247,0.294,1.92,1.015,2.017,2.163
		c0.098,1.027-0.27,2.127-1.1,3.3c-0.636,0.856-1.406,1.479-2.309,1.87c-0.49,0.195-1.406,0.44-2.75,0.733
		c-0.661,0.121-1.369,0.464-2.127,1.026c-0.415,0.317-1.04,0.843-1.87,1.577c-0.269,0.243-0.354,0.989-0.257,2.236
		c0.074,0.854,0.282,1.612,0.625,2.272c0.121,0.245,0.33,0.488,0.622,0.733c0.269,0.244,0.526,0.366,0.77,0.366
		c1.394,0.099,3.507,0.222,6.343,0.366c2.419,0.123,4.535,0.147,6.343,0.074c4.986-0.146,9.104,1.173,12.356,3.96
		c0.879,0.758,2.114,1.735,3.703,2.933c1.295,1.124,2.212,2.494,2.75,4.106c0.416,1.173,0.82,2.872,1.21,5.097
		c0.489,2.787,0.587,4.68,0.293,5.684c-0.539,1.76-1.064,3.788-1.577,6.085c-0.171,0.734-0.611,2.762-1.319,6.086v0.037
		l-0.881,4.217c-0.537,3.421-0.575,6.709-0.11,9.862c0.636,4.4,2.212,8.115,4.73,11.146c1.442,1.76,1.223,7.736-0.66,17.929
		c-0.953,5.108-2.065,10.046-3.336,14.813l-0.44,0.293c-0.318,0.391-0.574,1.197-0.769,2.42h-5.428
		c1.052-1.539,2.323-2.885,3.813-4.033c0.71-3.398,1.197-7.101,1.466-11.109c0.539-8.066-0.231-13.651-2.309-16.756
		c-0.611-0.903-1.124-1.869-1.54-2.896l-0.111,0.477c0.954,3.252,0.159,10.779-2.383,22.585l-0.109,0.807l-0.074-0.072
		c-0.684,3.153-1.332,5.915-1.943,8.286l-0.477,0.293c-0.317,0.391-0.573,1.197-0.77,2.42h-5.426
		c1.076-1.539,2.359-2.885,3.85-4.033c0.27-1.32,0.539-2.97,0.808-4.949c0.537-3.961,0.806-7.565,0.806-10.817
		c-0.295-1.074-0.464-1.808-0.514-2.198c-0.342-1.933-1.502-4.083-3.483-6.454c-2.395-2.614-4.105-4.484-5.132-5.608
		c-0.489-0.539-1.064-1.283-1.724-2.237c-0.952-1.394-1.502-2.176-1.649-2.347c-0.074-0.122-0.378-0.366-0.917-0.733
		c-0.024,0.025-0.146,0.183-0.366,0.478c-0.123,0.195-0.207,0.354-0.257,0.476c-0.782,3.057-1.308,5.428-1.577,7.113
		c-0.489,2.616-0.708,5.035-0.66,7.26c0.05,2.615-0.195,5.304-0.733,8.066h0.038l-0.33,2.603l0.073,0.037l-0.073,0.036
		c-0.342,2.908-0.587,6.172-0.734,9.79c-0.587,1.075-0.939,2.248-1.063,3.52h-3.592c0-0.782,0.306-1.649,0.916-2.603l0.917-1.211
		c0.123-0.733,0.318-3.911,0.587-9.532c0-0.024-0.012-1.688-0.036-4.986c0-1.98-0.332-3.581-0.99-4.803
		c-0.464-0.881-0.625-1.906-0.478-3.08c0.293-1.394,0.49-2.433,0.587-3.116c0.171-1.1,0.293-1.919,0.366-2.457
		c0.123-0.953,0.172-1.76,0.147-2.42c-0.171-3.69-0.427-7.063-0.769-10.119c-0.123-1.002-0.661-1.809-1.614-2.42
		c-0.952-0.636-1.943-0.843-2.969-0.623c-2.225,0.171-3.886,0.965-4.986,2.383c-0.734,0.953-1.136,1.955-1.21,3.007
		c-0.024,0.245-0.086,0.794-0.183,1.649c-0.05,0.685-0.074,1.234-0.074,1.65l0.074,7.699c0,3.055-0.024,5.609-0.074,7.662
		c-0.024,0.831-0.195,1.919-0.513,3.264c-0.391,1.638-0.624,2.726-0.696,3.263l-0.11,0.808c-0.519,2.662-0.922,6.409-1.21,11.237
		c-0.026,0.403-0.05,0.813-0.073,1.229c-0.66,1.075-1.063,2.248-1.21,3.52H82.1c0-0.782,0.354-1.649,1.064-2.603l1.026-1.211
		c0.041-0.249,0.089-0.677,0.146-1.283c0.129-1.574,0.302-4.361,0.513-8.358l0.037-2.494c0-0.269-0.037-0.61-0.109-1.027
		c-0.123-0.635-0.183-0.965-0.183-0.989c-0.293-1.76-0.452-3.067-0.477-3.922c-0.024-0.245-0.086-2.226-0.183-5.94
		c-0.05-2.396-0.172-4.375-0.368-5.939c-0.146-1.076-0.489-2.445-1.027-4.106c-0.732-2.297-1.148-3.654-1.245-4.07
		c-0.367-1.368-0.587-2.225-0.66-2.566c-0.14-0.621-0.226-1.195-0.257-1.724c-0.018-0.31-0.018-0.603,0-0.879
		C80.395,214.423,80.395,214.068,80.377,213.719z M191.506,126.348c0.269,1.247,1.319,2.126,3.153,2.639
		c1.76,0.49,3.287,0.416,4.582-0.219L191.506,126.348z M206.354,132.434c-1.955-0.635-3.569-0.611-4.84,0.073l8.323,2.641
		C209.472,133.95,208.311,133.045,206.354,132.434z M110.001,132.507c-1.247-0.684-2.858-0.732-4.839-0.146
		c-1.955,0.61-3.117,1.527-3.483,2.75L110.001,132.507z M116.895,128.951c1.808-0.538,2.834-1.406,3.079-2.603l-7.699,2.383
		C113.57,129.343,115.109,129.416,116.895,128.951z"/>
</g>
</svg>
