<?xml version="1.0" encoding="utf-8"?>
<!-- Generator: Adobe Illustrator 16.0.0, SVG Export Plug-In . SVG Version: 6.00 Build 0)  -->
<!DOCTYPE svg PUBLIC "-//W3C//DTD SVG 1.1//EN" "http://www.w3.org/Graphics/SVG/1.1/DTD/svg11.dtd">
<svg version="1.1" id="Layer_1" xmlns="http://www.w3.org/2000/svg" xmlns:xlink="http://www.w3.org/1999/xlink" x="0px" y="0px"
	 width="316.667px" height="310.667px" viewBox="0 0 316.667 310.667" enable-background="new 0 0 316.667 310.667"
	 xml:space="preserve">
<g>
	<path fill="#010101" d="M234.251,35.554c7.961,4.473,14.314,11.003,19.056,19.592c2.862,4.742,4.875,10.423,6.039,17.043
		c2.772-0.448,5.635-0.224,8.589,0.671L298.8,83.193c3.4,1.163,6.173,3.175,8.32,6.039c2.238,2.951,3.488,6.217,3.758,9.796
		c0.088,3.578-0.76,6.932-2.551,10.064c-3.847,6.353-7.47,12.436-10.869,18.25c-3.399,5.816-6.799,11.9-10.199,18.251l-0.137,0.134
		c-3.576,6.352-7.379,13.733-11.406,22.144c-4.204,8.408-8.99,18.385-14.358,29.926c-1.342,3.041-3.354,5.457-6.039,7.246
		c1.343,5.638,0.671,11.631-2.013,17.981c-0.09,0.181-0.178,0.403-0.268,0.671c-2.595,5.637-6.802,10.155-12.615,13.555
		c-4.563,2.594-9.571,4.205-15.031,4.83c-0.178,0-0.355,0-0.535,0c-5.637,0.448-10.961-0.357-15.97-2.414
		c-0.359-0.179-0.671-0.313-0.94-0.402c-8.768-4.385-13.82-10.154-15.162-17.313c-0.09-0.179-0.134-0.313-0.134-0.402
		c-1.342-5.368-1.12-10.691,0.67-15.971l-18.116,2.014c-0.271,0.091-0.582,0.18-0.94,0.269c-1.968,3.49-4.249,6.666-6.845,9.529
		c-7.873,9.394-18.832,14.18-32.877,14.358c-0.178,0-0.359,0-0.538,0c-5.635-0.09-10.824-0.938-15.566-2.549
		c-0.894,2.416-1.969,4.652-3.222,6.709v0.27c-5.368,9.395-12.434,16.595-21.202,21.605l-0.404,0.133
		c-7.962,4.563-16.73,7.472-26.302,8.724c-8.589,1.342-17.268,1.655-26.035,0.938c-8.409-0.625-16.192-1.744-23.351-3.354
		c-4.026-0.984-7.335-3.087-9.93-6.309c-2.506-3.221-3.757-6.889-3.757-11.002c0-0.181,0.133-4.295,0.402-12.348v-0.135
		c0.447-7.426,0.894-17.355,1.342-29.791v-0.135c0.357-12.437,0.536-26.391,0.536-41.871c0-15.386-0.089-29.166-0.268-41.333
		C6.068,109.313,5.89,99.83,5.71,92.852v-0.134C5.531,85.382,5.441,81.669,5.441,81.58c0-4.294,1.431-8.096,4.295-11.407
		c2.773-3.311,6.307-5.323,10.602-6.039c16.998-2.863,31-3.132,42.003-0.806l0.136,0.135c12.882,2.595,22.903,7.157,30.058,13.688
		l0.137,0.134c3.399,2.952,6.351,6.128,8.856,9.528c7.782-9.037,18.609-13.688,32.475-13.956c0.179,0,0.404,0,0.671,0
		c8.052,0.089,15.077,1.745,21.071,4.965c-0.27-8.409-0.538-15.21-0.807-20.398c-0.357-6.621-0.535-10.02-0.535-10.199
		c0-4.116,1.298-7.784,3.89-11.003c2.595-3.222,5.906-5.324,9.931-6.308c6.084-1.341,12.749-2.326,19.997-2.953h0.134
		c7.514-0.447,14.986-0.179,22.412,0.805c8.498,1.164,16.283,3.759,23.35,7.785h0.135V35.554z M257.466,106.813l9.262,3.086
		c0-0.178,0.044-0.313,0.133-0.402l0.133-0.134c1.879-3.132,3.805-6.396,5.772-9.797l-15.03,6.577
		C257.646,106.411,257.557,106.633,257.466,106.813z M227.14,212.964l-0.135-0.402c-2.953-2.863-4.519-4.605-4.696-5.232
		c-0.271,0.356-0.716,0.805-1.343,1.34v0.269c0.447-0.981,0.447,0.582,0,4.696v0.27c0-0.447,1.117,0.807,3.355,3.758l0.537,0.135
		c0.626-0.09,1.072-0.09,1.342,0l0.268-0.269l0.268-0.538C226.201,217.974,226.333,216.632,227.14,212.964z M222.576,207.193
		c0.09,0,0.271,0.045,0.537,0.137l-0.404-0.27L222.576,207.193z M214.39,160.224v0.135c1.609-4.652,3.533-9.931,5.771-15.836
		c-2.328,0.716-4.652,1.387-6.979,2.013c0.089,4.652,0.178,8.992,0.271,13.016c0,1.164,0.045,2.283,0.133,3.355
		C213.853,162.014,214.123,161.119,214.39,160.224z"/>
	<path fill="#204181" d="M223.517,189.345c-0.809-0.178-1.523-0.582-2.15-1.208c-0.533-0.625-0.893-1.343-1.07-2.146
		c-0.18-0.806-0.135-1.611,0.133-2.416c1.431-4.385,3.621-10.691,6.576-18.923c2.772-8.319,6.666-18.833,11.674-31.537
		c5.012-12.703,11.496-27.778,19.458-45.224c0.536-1.075,1.298-1.835,2.282-2.282c1.072-0.448,2.191-0.493,3.355-0.135l30.729,10.2
		c0.808,0.358,1.522,0.894,2.149,1.611c0.535,0.716,0.849,1.565,0.938,2.549c0.089,0.896-0.09,1.7-0.539,2.415
		c-3.936,6.443-7.604,12.571-11.002,18.386c-3.399,5.905-6.887,12.122-10.469,18.654v0.133c-3.578,6.441-7.47,13.958-11.674,22.545
		c-4.296,8.59-9.127,18.699-14.494,30.33c-0.537,0.984-1.299,1.699-2.281,2.146c-0.896,0.448-1.879,0.537-2.953,0.27
		L223.517,189.345z M221.367,205.583h-0.133c-2.861,1.074-5.054,3.043-6.576,5.906c-0.625,1.52-0.76,3.086-0.4,4.696
		c0.537,1.164,1.609,2.147,3.221,2.953c1.697,0.715,3.578,1.028,5.635,0.938c2.235-0.269,4.293-0.938,6.172-2.013
		c1.612-0.983,2.818-2.192,3.625-3.624c0.805-1.969,0.938-3.757,0.401-5.369c-0.716-1.521-1.788-2.639-3.222-3.354
		C227.228,204.464,224.321,204.419,221.367,205.583z M206.472,207.865c0.089-0.09,0.134-0.179,0.134-0.269
		c2.505-5.101,6.354-8.589,11.543-10.468c5.187-2.058,10.332-1.969,15.433,0.269c0.09,0,0.18,0.044,0.269,0.133
		c3.487,1.61,6.083,4.294,7.784,8.052v0.137c1.521,3.756,1.343,7.828-0.537,12.211v0.135c-1.52,3.221-3.938,5.814-7.247,7.783
		c-2.952,1.699-6.218,2.729-9.798,3.086h-0.133c-3.578,0.268-6.889-0.225-9.932-1.477c-0.178,0-0.268-0.045-0.268-0.136
		c-4.652-2.235-7.381-5.188-8.186-8.856v-0.133C204.637,214.843,204.953,211.354,206.472,207.865z M235.458,167.471v0.133
		c-2.058,5.726-3.711,10.468-4.965,14.228l12.346,3.354c4.742-10.378,9.082-19.415,13.02-27.108h-0.133
		c4.293-8.679,8.275-16.374,11.941-23.083c3.58-6.531,7.113-12.838,10.602-18.921c2.684-4.384,5.413-8.902,8.186-13.555
		l-21.74-7.246c-7.157,15.746-13.016,29.478-17.578,41.198C242.125,148.997,238.234,159.33,235.458,167.471z M62.879,180.085h-0.133
		c-3.043-1.342-6.398-2.236-10.065-2.685c-0.179,7.785-0.357,15.3-0.537,22.546c-0.178,6.979-0.357,13.196-0.536,18.653
		c3.757,0.269,7.334,0,10.734-0.806c4.118-0.983,7.473-2.907,10.064-5.77c2.328-2.684,3.581-6.219,3.759-10.604v-0.133
		c-0.178-5.101-1.431-9.438-3.759-13.018v-0.135C70.083,184.648,66.906,181.964,62.879,180.085z M43.689,172.705
		c0.089-1.343,0.582-2.416,1.477-3.221c0.805-0.895,1.833-1.341,3.086-1.341c6.8,0,12.884,1.297,18.252,3.892h0.133
		c5.635,2.506,10.065,6.262,13.286,11.272c3.311,4.829,5.054,10.823,5.232,17.983v0.133c-0.178,6.89-2.191,12.436-6.039,16.642
		c-3.756,4.204-8.678,7.022-14.762,8.454h0.137c-5.549,1.432-11.631,1.611-18.251,0.536c-1.164-0.179-2.102-0.716-2.819-1.61
		c-0.715-0.895-1.029-1.923-0.938-3.087c0.178-6.351,0.447-13.912,0.804-22.678C43.467,191.001,43.6,182.009,43.689,172.705z
		 M95.087,165.861v0.133c0.896,0.807,1.746,1.701,2.55,2.684c-0.448-5.188-0.626-10.6-0.538-16.237v-0.133
		c-0.089-3.848,0-7.561,0.27-11.14c-0.626,1.968-1.386,3.848-2.283,5.637c-2.773,5.368-5.68,9.349-8.723,11.944
		C88.87,160.449,91.777,162.818,95.087,165.861z M139.506,122.246v-0.133c-1.25-1.879-2.951-2.908-5.098-3.088
		c-0.089,0-0.179,0-0.27,0c-2.147,0.18-3.846,1.208-5.098,3.088l-0.134,0.133c-1.879,2.953-3.177,6.89-3.892,11.809
		c-0.896,5.368-1.342,11.452-1.342,18.252v0.133c0,6.71,0.446,12.794,1.342,18.25c0.715,4.921,2.013,8.813,3.892,11.677v0.135
		c1.342,1.877,3.085,2.906,5.232,3.086h0.27c2.146-0.18,3.848-1.209,5.098-3.086l0.136-0.135c1.788-2.863,3.041-6.755,3.756-11.677
		c0.985-5.457,1.431-11.541,1.342-18.25v-0.133c0.089-6.8-0.357-12.884-1.342-18.252
		C142.684,129.136,141.386,125.199,139.506,122.246z M116.158,132.58c0.983-6.352,2.729-11.452,5.232-15.299
		c3.132-4.741,7.381-7.112,12.749-7.112c0.091,0,0.181,0,0.27,0c5.368,0,9.572,2.371,12.615,7.112
		c2.592,3.848,4.338,8.947,5.231,15.299c1.075,5.904,1.568,12.48,1.479,19.728v0.133c0.089,7.247-0.404,13.823-1.479,19.729
		c-0.893,6.353-2.639,11.406-5.231,15.164c-3.043,4.742-7.247,7.112-12.615,7.112c-0.089,0-0.179,0-0.27,0
		c-5.458-0.09-9.706-2.46-12.749-7.112h0.137c-2.595-3.758-4.385-8.813-5.369-15.164c-0.985-5.905-1.434-12.48-1.342-19.729v-0.133
		C114.724,145.06,115.172,138.484,116.158,132.58z M64.087,140.094h-0.133c3.756-3.489,5.725-8.634,5.906-15.433v-0.133
		c-0.181-4.921-2.058-8.813-5.638-11.676c-3.129-2.327-7.066-3.801-11.809-4.428c0,4.562,0.089,9.707,0.268,15.432
		c0.089,6.621,0.134,13.285,0.134,19.995C57.2,143.852,60.956,142.6,64.087,140.094z M69.723,105.605v0.135
		c5.905,4.473,8.948,10.736,9.126,18.788v0.133c-0.178,9.842-3.132,17.268-8.856,22.278H69.86
		c-5.638,5.01-13.063,6.844-22.278,5.501c-1.073-0.18-1.968-0.715-2.684-1.61c-0.806-0.805-1.208-1.744-1.208-2.817
		c0-8.052,0-16.015,0-23.887c-0.178-7.963-0.313-14.808-0.402-20.534c0-0.894,0.225-1.655,0.671-2.28
		c0.357-0.717,0.939-1.253,1.744-1.61c0.626-0.448,1.342-0.671,2.148-0.671C56.975,99.299,64.267,101.49,69.723,105.605z
		 M78.045,93.93h-0.133c-4.833-4.116-11.452-7.023-19.862-8.723c-8.141-1.61-18.25-1.521-30.329,0.268c0,1.7,0.045,3.937,0.133,6.71
		c0.269,6.979,0.447,16.597,0.538,28.853c0.267,12.168,0.402,26.035,0.402,41.601c0,15.745-0.224,29.972-0.671,42.676
		c-0.357,12.705-0.76,22.858-1.208,30.463c-0.178,3.132-0.313,5.638-0.402,7.515c5.099,0.896,10.556,1.611,16.373,2.147
		c7.156,0.538,14.27,0.269,21.336-0.806c6.799-0.895,13.019-2.907,18.654-6.038c5.368-3.132,9.706-7.604,13.016-13.419h-0.133
		c3.399-6.084,5.145-14.002,5.234-23.754c-0.179-6.621-1.432-12.346-3.759-17.178h0.136c-2.506-4.832-5.368-8.768-8.589-11.809
		c-3.221-3.132-6.039-5.459-8.456-6.979c-2.235-1.342-3.399-2.059-3.488-2.148c-0.983-0.268-1.746-0.85-2.28-1.745
		c-0.626-0.715-0.941-1.563-0.941-2.548c0.089-1.075,0.448-1.969,1.074-2.684c0.538-0.807,1.297-1.342,2.28-1.611
		c0.359-0.268,1.521-1.164,3.489-2.684c2.238-2.058,4.429-5.189,6.576-9.394v0.134c2.238-4.653,3.443-10.736,3.625-18.25
		c0.089-5.547-0.852-11.049-2.82-16.506C85.963,102.743,82.698,98.046,78.045,93.93z M159.772,122.113v-0.136
		c-1.701-8.32-4.697-14.985-8.993-19.994c-4.026-4.475-9.483-6.801-16.371-6.979c-0.089,0-0.179,0-0.27,0
		c-6.888,0.178-12.346,2.504-16.371,6.979c-4.205,4.919-7.203,11.585-8.991,19.994v0.136c-1.879,8.945-2.775,19.01-2.684,30.194
		v0.133c-0.091,11.004,0.805,21.024,2.684,30.062c1.788,8.41,4.786,15.164,8.991,20.264c4.025,4.384,9.483,6.666,16.371,6.844
		c0.091,0,0.181,0,0.27,0c6.888-0.178,12.345-2.46,16.371-6.844v-0.135c4.296-5.01,7.292-11.719,8.993-20.129
		c1.97-9.037,2.907-19.058,2.817-30.062v-0.133C162.679,141.123,161.742,131.058,159.772,122.113z M197.75,71.788
		c0,0.537-0.045,1.163-0.133,1.878c-0.09,3.668-0.09,8.454,0,14.359v0.133c0,4.743,0.133,9.752,0.402,15.031
		c3.218-0.357,6.352-1.028,9.395-2.013c4.114-1.521,7.514-3.668,10.197-6.441c2.236-2.416,3.4-5.369,3.489-8.857v-0.135
		c-0.089-3.399-1.298-6.172-3.623-8.32c-2.595-2.415-5.95-4.026-10.065-4.831C204.281,71.877,201.06,71.608,197.75,71.788z
		 M209.291,63.736c5.727,1.162,10.513,3.533,14.359,7.113c4.204,3.668,6.352,8.633,6.439,14.895v0.135
		c-0.088,5.993-2.102,11.003-6.039,15.03c-3.576,3.847-8.096,6.755-13.553,8.723c-5.367,1.79-10.914,2.684-16.641,2.684
		c-1.161,0-2.191-0.357-3.085-1.073c-0.896-0.894-1.386-1.924-1.476-3.086c-0.448-7.157-0.672-13.778-0.672-19.861V88.16
		c-0.09-6.083-0.043-11.003,0.133-14.762v-0.133c0.091-3.489,0.135-5.323,0.135-5.501c0-1.164,0.404-2.148,1.208-2.953
		c0.716-0.806,1.608-1.298,2.685-1.477C198.419,62.438,203.921,62.572,209.291,63.736z M233.849,65.883
		c-2.596-4.831-6.128-8.499-10.604-11.004c-4.74-2.595-9.931-4.295-15.565-5.1c-5.905-0.805-11.812-0.984-17.714-0.537
		c-4.651,0.269-9.037,0.806-13.152,1.61c0.089,1.342,0.178,3.132,0.268,5.368c0.359,5.995,0.672,14.18,0.941,24.559
		c0.445,10.378,0.671,22.188,0.671,35.429c0,9.931-0.089,19.325-0.271,28.182c0,8.857-0.088,16.686-0.266,23.484
		c-0.09,6.891-0.224,12.303-0.404,16.238c0,0.359,0,0.67,0,0.939l14.494-1.61c-0.088-0.894-0.178-1.923-0.268-3.086
		c-0.182-4.831-0.447-11.541-0.807-20.13c-0.269-8.41-0.49-18.206-0.672-29.389c-0.088-0.895,0.092-1.7,0.539-2.417
		c0.358-0.715,0.896-1.251,1.611-1.609c0.715-0.358,1.52-0.537,2.414-0.537c7.785,0,14.988-1.387,21.605-4.16
		c6.354-2.684,11.498-6.979,15.433-12.884c3.937-5.994,5.95-13.778,6.039-23.35v-0.135
		C238.053,77.603,236.623,70.982,233.849,65.883z M227.675,46.961v0.133c5.906,3.312,10.604,8.141,14.092,14.493
		c3.488,6.174,5.279,14.226,5.367,24.156v0.135c-0.178,11.721-2.729,21.159-7.65,28.316c-4.831,7.425-11.271,12.838-19.322,16.238
		c-6.354,2.684-13.242,4.205-20.668,4.563c0.178,9.394,0.445,17.759,0.805,25.096c0.268,8.498,0.492,15.119,0.67,19.861l0.404,7.379
		c0,1.164-0.359,2.193-1.074,3.086c-0.805,0.807-1.746,1.297-2.818,1.478l-23.754,2.685c-0.895,0.088-1.699-0.09-2.414-0.537
		c-0.805-0.358-1.432-0.851-1.879-1.477c-0.538-0.807-0.805-1.609-0.805-2.416c0-0.179,0.088-2.236,0.267-6.173
		c0-0.269,0-0.491,0-0.67c-0.16,0.321-0.249,0.678-0.267,1.073c-2.059,10.199-5.772,18.295-11.141,24.291
		c-5.635,6.44-13.33,9.707-23.081,9.795c-0.089,0-0.179,0-0.27,0c-9.84-0.088-17.535-3.354-23.082-9.795
		c-0.448-0.537-0.894-1.028-1.341-1.478c-0.626,8.858-2.64,16.329-6.039,22.412c-4.205,7.247-9.662,12.839-16.371,16.774
		c-6.621,3.668-13.913,6.084-21.876,7.248c-7.693,1.072-15.433,1.342-23.216,0.805c-7.694-0.626-14.807-1.655-21.338-3.086
		c-1.074-0.27-1.878-0.807-2.416-1.611c-0.715-0.805-1.073-1.744-1.073-2.816c0-0.18,0.178-4.07,0.536-11.676v-0.136
		c0.448-7.425,0.851-17.446,1.208-30.06c0.357-12.615,0.538-26.75,0.538-42.408c0-15.477-0.046-29.3-0.135-41.466
		c-0.178-12.167-0.402-21.741-0.67-28.719c-0.179-7.157-0.269-10.781-0.269-10.87c0-1.073,0.357-2.013,1.075-2.818
		c0.715-0.894,1.655-1.432,2.817-1.61c15.12-2.506,27.555-2.774,37.308-0.806c10.288,2.058,18.34,5.682,24.156,10.871
		c5.902,5.188,10.02,11.138,12.345,17.848c1.969,5.637,3.087,11.228,3.355,16.775c0.089-0.538,0.178-1.073,0.268-1.61
		c2.058-10.199,5.771-18.25,11.139-24.156c5.546-6.53,13.242-9.885,23.082-10.064c0.091,0,0.181,0,0.27,0
		c9.75,0.18,17.445,3.535,23.081,10.064v-0.133c5.368,5.993,9.082,14.091,11.139,24.29v-0.134c0.356,1.878,0.716,3.713,1.072,5.502
		c0-3.042,0-6.172,0-9.394c0-13.062-0.224-24.782-0.671-35.16c-0.268-10.288-0.579-18.43-0.938-24.425
		c-0.358-6.083-0.536-9.214-0.536-9.393c0-1.074,0.358-2.014,1.075-2.818c0.625-0.805,1.475-1.341,2.55-1.61
		c5.547-1.253,11.585-2.146,18.116-2.684c6.619-0.447,13.195-0.178,19.727,0.806C215.821,41.816,222.039,43.829,227.675,46.961z"/>
	<path fill="#5690CC" d="M245.255,190.417l-20.533-5.367c1.434-4.385,3.581-10.735,6.443-19.057
		c2.772-8.141,6.666-18.563,11.674-31.268c5.012-12.614,11.498-27.6,19.457-44.957l30.867,10.333
		c-3.846,6.352-7.471,12.436-10.869,18.25c-3.489,5.994-7.066,12.257-10.736,18.788c-3.577,6.621-7.514,14.27-11.809,22.949
		C255.544,168.589,250.712,178.699,245.255,190.417z M231.835,201.557c2.595,1.164,4.475,3.087,5.636,5.771
		c1.075,2.685,0.896,5.635-0.535,8.856c-1.075,2.415-2.865,4.339-5.368,5.771c-2.417,1.342-5.102,2.192-8.052,2.549
		c-2.776,0.179-5.368-0.223-7.785-1.207c-3.222-1.61-5.19-3.668-5.905-6.172c-0.625-2.506-0.355-5.01,0.805-7.517
		c1.969-3.937,4.968-6.71,8.994-8.319C223.83,199.679,227.899,199.768,231.835,201.557z M80.596,201.423
		c-0.092-6.172-1.568-11.407-4.43-15.701c-2.772-4.205-6.621-7.426-11.54-9.662c-4.831-2.236-10.29-3.355-16.373-3.355
		c-0.18,9.305-0.357,18.342-0.538,27.108c-0.269,8.856-0.536,16.462-0.805,22.813c5.994,0.896,11.498,0.715,16.506-0.537
		c5.101-1.164,9.215-3.533,12.345-7.113C78.894,211.488,80.503,206.971,80.596,201.423z M143.265,119.695
		c-2.147-3.309-5.145-5.01-8.99-5.099c-3.848,0.088-6.891,1.79-9.127,5.099c-2.146,3.401-3.667,7.918-4.563,13.555
		c-0.983,5.726-1.431,12.078-1.342,19.057c-0.089,7.067,0.359,13.419,1.342,19.055c0.896,5.728,2.417,10.245,4.563,13.556
		c2.236,3.311,5.279,5.01,9.127,5.099c3.845-0.089,6.843-1.789,8.99-5.099c2.236-3.311,3.803-7.828,4.697-13.556
		c0.894-5.635,1.297-11.987,1.208-19.055c0.089-6.979-0.314-13.331-1.208-19.057C147.068,127.614,145.501,123.097,143.265,119.695z
		 M67.039,109.229c-4.83-3.668-11.226-5.546-19.188-5.637c0,5.637,0.089,12.391,0.267,20.265c0.09,7.963,0.135,16.015,0.135,24.156
		c7.694,1.073,13.956-0.448,18.786-4.563c4.741-4.204,7.203-10.512,7.381-18.921C74.242,117.996,71.78,112.896,67.039,109.229z
		 M58.854,80.778c9.393,1.879,16.774,5.1,22.143,9.662c5.279,4.742,8.993,10.11,11.139,16.104
		c2.058,5.994,3.041,11.988,2.952,17.983c-0.178,8.409-1.521,15.12-4.026,20.13c-2.506,5.01-5.143,8.633-7.918,10.87
		c-2.684,2.146-4.337,3.311-4.964,3.49c0.267,0.089,1.7,0.938,4.293,2.548c2.775,1.61,5.905,4.161,9.394,7.649
		c3.58,3.312,6.709,7.65,9.394,13.019c2.595,5.368,3.981,11.765,4.162,19.188c0,10.647-1.879,19.281-5.638,25.9
		c-3.756,6.621-8.633,11.676-14.627,15.165c-6.172,3.401-12.972,5.638-20.397,6.71c-7.336,1.075-14.717,1.299-22.143,0.672
		c-7.515-0.537-14.404-1.521-20.667-2.953c0-0.18,0.135-3.98,0.404-11.406c0.447-7.605,0.893-17.715,1.342-30.33
		c0.357-12.614,0.536-26.795,0.536-42.541c0-15.566-0.089-29.433-0.269-41.601c-0.178-12.078-0.357-21.65-0.536-28.718
		c-0.18-7.068-0.269-10.646-0.269-10.736C37.65,79.169,49.55,78.9,58.854,80.778z M154.001,99.03
		c4.918,5.457,8.319,12.838,10.2,22.143c1.967,9.214,2.953,19.592,2.953,31.134c0,11.452-0.986,21.829-2.953,31.133
		c-1.88,9.306-5.279,16.687-10.2,22.144c-4.742,5.547-11.317,8.365-19.726,8.455c-8.5-0.09-15.121-2.908-19.862-8.455
		c-4.742-5.457-8.097-12.838-10.065-22.144c-1.878-9.304-2.817-19.681-2.817-31.133c0-11.542,0.939-21.92,2.817-31.134
		c1.969-9.305,5.324-16.686,10.065-22.143c4.741-5.547,11.362-8.41,19.862-8.59C142.684,90.62,149.259,93.483,154.001,99.03z
		 M220.563,74.068c-3.222-2.951-7.292-4.919-12.212-5.903c-4.831-1.073-9.797-1.209-14.895-0.402c0,0.178-0.09,2.102-0.271,5.77
		c-0.088,3.757-0.133,8.634-0.133,14.626c0,6.085,0.27,12.66,0.805,19.728c5.189,0,10.201-0.849,15.031-2.549
		c4.83-1.699,8.813-4.205,11.945-7.516c3.039-3.312,4.651-7.336,4.83-12.078C225.485,80.913,223.785,77.021,220.563,74.068z
		 M208.351,45.351c6.262,0.894,11.945,2.773,17.042,5.636c5.19,2.952,9.306,7.202,12.349,12.749
		c3.221,5.636,4.875,12.972,4.963,22.008c-0.178,10.736-2.457,19.414-6.844,26.035c-4.385,6.621-10.197,11.452-17.445,14.494
		c-7.158,3.042-14.984,4.517-23.484,4.428c0.268,11.184,0.537,20.98,0.805,29.39c0.27,8.588,0.537,15.254,0.805,19.994l0.403,7.248
		l-23.751,2.817c0-0.179,0.044-2.235,0.133-6.173c0.09-3.938,0.178-9.35,0.268-16.236c0.179-6.802,0.271-14.63,0.271-23.486
		c0.179-8.769,0.269-18.117,0.269-28.048c0-13.24-0.178-25.006-0.537-35.294c-0.357-10.378-0.717-18.565-1.072-24.558
		c-0.27-5.906-0.404-8.947-0.404-9.126c5.368-1.252,11.185-2.103,17.446-2.549C195.826,44.231,202.089,44.456,208.351,45.351z"/>
</g>
</svg>
