<?xml version="1.0" encoding="utf-8"?>
<!-- Generator: Adobe Illustrator 16.0.0, SVG Export Plug-In . SVG Version: 6.00 Build 0)  -->
<!DOCTYPE svg PUBLIC "-//W3C//DTD SVG 1.1//EN" "http://www.w3.org/Graphics/SVG/1.1/DTD/svg11.dtd">
<svg version="1.1" id="Layer_1" xmlns="http://www.w3.org/2000/svg" xmlns:xlink="http://www.w3.org/1999/xlink" x="0px" y="0px"
	 width="316.667px" height="310.667px" viewBox="0 0 316.667 310.667" enable-background="new 0 0 316.667 310.667"
	 xml:space="preserve">
<g>
	<path fill="#010101" d="M282.351,136.537v0.282c0.243-0.182,0.464-0.308,0.661-0.376
		C282.815,136.506,282.593,136.537,282.351,136.537z M288.662,135.125c0.563,2.636-3.107,6.245-11.018,10.828l-1.977-15.442
		C283.701,130.95,288.033,132.489,288.662,135.125z M303.537,126.085c-6.654-10.419-17.545-14.343-32.672-11.77
		c-5.021,0.817-10.482,2.323-16.383,4.521l11.676,80.689l17.699-2.354l-4.236-32.672c17.323-8.223,26.459-16.947,27.398-26.174
		c0.125-1.38,0.064-2.761-0.188-4.142C306.455,131.547,305.356,128.848,303.537,126.085z M308.433,122.885h0.094
		c2.195,3.578,3.576,7.03,4.143,10.357c2.762,12.554-6.119,24.103-26.646,34.648l3.672,28.529c0.188,1.568-0.221,3.014-1.224,4.332
		c-0.941,1.254-2.229,1.977-3.86,2.164l-17.702,2.354c-1.568,0.188-2.98-0.188-4.236-1.13c-1.129-0.879-1.852-1.977-2.164-3.295
		c-0.315,1.381-1.066,2.511-2.26,3.389c-1.256,0.879-2.668,1.225-4.238,1.036l-24.573-3.295c-0.817-0.126-1.603-0.408-2.354-0.849
		c-0.69-0.438-1.287-1.035-1.789-1.789l-6.873-10.639l-0.752,5.648c-0.125,1.066-0.502,2.009-1.131,2.824
		c-0.689,0.879-1.537,1.506-2.543,1.883c-1.065,0.377-2.102,0.471-3.107,0.283l-20.146-3.672c-1.193-0.252-2.199-0.815-3.015-1.695
		c-5.335,10.922-13.433,16.32-24.291,16.195c-3.642,0-7.597-0.66-11.865-1.979h-0.094c-9.917-2.825-17.356-8.977-22.313-18.454
		l-2.354,14.688c-0.252,1.507-0.973,2.729-2.167,3.672c-1.254,0.941-2.635,1.35-4.143,1.224l-44.534-4.802
		c-1.571-0.188-2.856-0.878-3.86-2.071c-1.068-1.256-1.508-2.668-1.319-4.237l1.977-19.961c-1.004,1.256-2.039,2.512-3.107,3.767
		c-3.954,4.521-10.199,7.344-18.735,8.474c-9.792,1.443-23.068,0.377-39.828-3.201c-1.129-0.252-2.071-0.754-2.825-1.507
		c-0.753-0.753-1.287-1.663-1.6-2.731c-0.314-1.065-0.314-2.103,0-3.106l6.402-21.938c0.314-1.129,0.941-2.071,1.883-2.825
		c0.879-0.753,1.883-1.192,3.014-1.318c1.129-0.188,2.195-0.031,3.2,0.471c11.111,5.335,19.46,7.751,25.046,7.25
		c1.129-0.188,2.165-0.69,3.106-1.506c0.063-0.063,0.125-0.095,0.189-0.095c0.313-0.25,0.534-0.502,0.659-0.752
		c-0.754-0.313-3.673-0.753-8.757-1.317c-15.001-1.822-25.766-8.129-32.294-18.927c-2.323-3.829-3.704-7.533-4.143-11.11
		c-1.443-9.666,2.385-17.638,11.486-23.916c6.088-4.205,13.716-6.967,22.88-8.285c7.47-1.066,16.415-1.287,26.834-0.66
		c1.129,0.126,2.166,0.503,3.108,1.13c0.877,0.69,1.537,1.538,1.976,2.542c0.377,1.067,0.471,2.165,0.282,3.295l-3.86,20.526
		c-0.25,1.13-0.752,2.103-1.506,2.919c-0.754,0.816-1.664,1.381-2.731,1.695c-1.066,0.251-2.133,0.22-3.201-0.095
		c-6.778-2.008-12.145-2.792-16.1-2.354h-0.094c-1.066,0.125-2.135,0.534-3.201,1.224c0.439,0.125,0.973,0.345,1.601,0.659h0.094
		c2.26,1.068,6.528,2.354,12.805,3.861h0.094c6.653,1.694,11.488,3.546,14.5,5.554h0.094c2.512,1.695,4.583,3.798,6.213,6.309
		l2.731-27.587c0.062-1.13,0.439-2.134,1.13-3.013c0.69-0.879,1.569-1.506,2.636-1.883c1.004-0.439,2.041-0.533,3.108-0.282
		l20.901,3.86c1.506,0.315,2.73,1.161,3.672,2.542c0.879,1.319,1.16,2.762,0.848,4.332c-2.575,12.867-4.552,24.542-5.933,35.025
		c-1.066,7.973-1.758,15.223-2.071,21.75l21.091,0.188c0.063,0,0.125,0,0.188,0c-1.381-5.272-2.26-11.172-2.637-17.701
		l-2.825-46.794c-0.062-1.631,0.439-3.044,1.508-4.236c1.067-1.256,2.417-1.916,4.048-1.979l22.974-1.317
		c1.066-0.063,2.071,0.156,3.012,0.658c1.006,0.503,1.758,1.256,2.26,2.261c0.564,0.941,0.848,1.945,0.848,3.013l-0.942,51.597
		c3.139,4.519,5.461,7.093,6.968,7.721c2.195-0.502,3.296-12.491,3.296-35.967c0-7.344-0.222-15.755-0.661-25.233
		c-0.063-1.13,0.189-2.134,0.754-3.013c0.502-1.004,1.225-1.79,2.167-2.354c1.003-0.502,2.039-0.753,3.104-0.753l22.222,0.753
		c1.508,0.063,2.824,0.66,3.956,1.79c1.066,1.129,1.6,2.479,1.6,4.048c0,1.255,0.031,2.542,0.094,3.86l1.412-10.828
		c0.252-1.506,0.974-2.762,2.166-3.766c1.129-0.941,2.449-1.381,3.955-1.318c2.071,0.125,4.11,0.313,6.119,0.565
		c17.827,2.134,30.821,8.411,38.981,18.831c0.125-0.377,0.313-0.722,0.563-1.035c0.691-1.256,1.664-2.103,2.92-2.542
		c6.276-2.385,12.113-4.017,17.512-4.896C287.813,105.56,300.649,110.33,308.433,122.885z M203.544,103.488l-11.77,86.34
		l20.148,3.766l2.637-21.465l15.629,24.009l24.669,3.389l-25.142-38.319c7.158-4.834,12.398-9.604,15.726-14.313
		c0.125-0.188,0.281-0.409,0.472-0.659c0.564-0.879,1.098-1.727,1.6-2.543c0.879-1.82,1.537-3.609,1.977-5.367
		c0.064-0.627,0.158-1.224,0.283-1.789c0.502-4.332-0.626-8.631-3.389-12.899c-7.155-10.922-19.555-17.45-37.191-19.583
		C207.311,103.803,205.428,103.614,203.544,103.488z M225.201,133.054l-0.377,3.295c0.563-0.564,0.973-1.13,1.225-1.694
		C225.921,134.088,225.64,133.555,225.201,133.054z M231.884,135.407c0,0.125-0.031,0.22-0.094,0.282
		c-0.69,3.893-4.99,7.25-12.899,10.075c-0.438,0.126-0.847,0.251-1.224,0.377l2.73-21.938
		C228.683,126.588,232.512,130.322,231.884,135.407z M97.244,182.862c0.125-8.286,0.879-17.733,2.26-28.342
		c0.816-6.213,1.883-12.899,3.201-20.054c0.815-4.896,1.788-10.013,2.918-15.347l-20.903-3.955l-8.097,83.61l44.442,4.708
		l3.2-20.525L97.244,182.862z M10.715,127.027c0.377,2.888,1.506,5.837,3.389,8.851c1.759,2.825,3.862,5.305,6.31,7.439
		c0.377,0.313,0.783,0.658,1.223,1.035c5.337,4.144,12.115,6.717,20.338,7.721c3.452,0.376,6.277,0.941,8.474,1.694
		c1.946,0.628,3.389,1.412,4.331,2.354c0.689,0.691,1.066,1.476,1.129,2.354c0.315,2.134-0.596,4.11-2.731,5.933
		c-1.818,1.631-3.891,2.604-6.214,2.918c-6.338,0.879-15.754-1.695-28.246-7.721l-6.401,21.938
		c15.942,3.39,28.528,4.457,37.756,3.203c6.968-0.941,12.05-3.17,15.252-6.687c7.47-8.16,10.419-16.571,8.85-25.233
		c-0.816-4.394-2.667-7.91-5.555-10.545c-0.627-0.502-1.254-0.973-1.883-1.413c-2.635-1.694-6.903-3.295-12.805-4.801
		c-6.843-1.632-11.487-3.044-13.936-4.237c-3.576-1.632-5.522-3.39-5.837-5.273c-0.252-2.008,0.786-3.766,3.108-5.272
		c1.946-1.319,3.954-2.134,6.025-2.448c4.645-0.566,10.859,0.313,18.644,2.636l3.86-20.621c-9.917-0.564-18.486-0.376-25.704,0.565
		c-8.099,1.129-14.909,3.578-20.433,7.344C12.692,113.594,9.711,119.684,10.715,127.027z M189.893,148.307
		c0.125-2.7,0.25-5.493,0.376-8.38c0.25-9.038,0.281-19.113,0.094-30.223l-22.126-0.753c0.376,9.603,0.563,18.109,0.563,25.516
		c0,24.792-2.385,38.572-7.155,41.333c-0.563,0.314-1.192,0.472-1.883,0.472c-3.327,0-7.626-3.955-12.9-11.864l1.037-53.386
		l-22.974,1.318l2.824,46.794c1.506,24.166,10.012,38.666,25.516,43.5c3.641,1.13,7.029,1.695,10.169,1.695
		c8.662,0,15.096-4.457,19.302-13.369c3.639-7.783,5.993-21.625,7.063-41.522C189.798,149.06,189.83,148.683,189.893,148.307z
		 M252.599,146.612c-2.887,5.335-7.848,10.671-14.877,16.007l22.033,33.707c0,0.063,0.031,0.156,0.093,0.282L252.599,146.612z"/>
	<path fill="#F8B2B3" d="M264.274,129.475c1.506,4.457,2.386,10.828,2.636,19.114c0.941,5.962,4.143,8.946,9.604,8.946
		c2.7,0,4.802-1.1,6.308-3.297c0.59-0.766,1.596-2.946,3.014-6.544c0.093-0.223,0.187-0.458,0.283-0.706
		c1.317-3.327,2.824-5.744,4.52-7.25c1.156-1.011,2.507-1.797,4.048-2.354c1.837-0.627,3.938-0.941,6.31-0.941
		c0.072,0,0.149,0,0.236,0c2.039,0.042,3.971,0.67,5.791,1.883c-0.941,9.228-10.076,17.953-27.4,26.175l4.237,32.67l-17.7,2.354
		l-10.076-70.051c1.463-2.832,3.299-3.6,5.51-2.306C262.439,127.646,263.333,128.416,264.274,129.475z M205.994,127.122
		c0.053,0.125,0.1,0.266,0.141,0.424c0.717,2.227,1.046,7.766,0.986,16.618c-0.125,8.474,0.377,13.81,1.508,16.007
		c2.511,3.703,4.74,3.201,6.685-1.506c0.64-2.474,1.237-4.702,1.79-6.687c0.551-2.123,1.055-3.975,1.506-5.555l-0.941-0.282
		c0.377-0.126,0.783-0.251,1.224-0.377c7.909-2.825,12.209-6.182,12.899-10.075c1.381,0.69,2.543,2.103,3.483,4.237
		c0.218,0.459,0.438,1.008,0.66,1.648c0.489,1.361,0.991,3.135,1.506,5.32c0.026,0.126,0.058,0.253,0.095,0.376
		c1.108,4.832,3.743,4.706,7.908-0.376c-3.326,4.708-8.568,9.478-15.725,14.312l25.141,38.32l-24.669-3.389l-15.629-24.01
		l-2.636,21.467l-20.149-3.766l8.567-62.708C201.472,122.728,203.355,122.728,205.994,127.122z M220.208,164.972
		c0.439-0.314,0.691-0.689,0.754-1.131c0-0.125,0-0.596,0-1.411c0-2.134-0.723-3.327-2.166-3.578c-1.506-0.251-2.26,0.878-2.26,3.39
		c0,0.689,0.064,1.129,0.189,1.317c0.188,0.502,0.689,0.974,1.506,1.412L220.208,164.972L220.208,164.972z M185.089,150.189
		c0,0.941-0.063,1.821-0.188,2.636c-0.425,0.236-0.815,0.519-1.177,0.848c-0.604,0.582-1.122,1.304-1.555,2.165
		c-0.752,1.57-1.129,3.233-1.129,4.992v1.412c0.227,0.793,0.838,1.233,1.836,1.317c0.105,0,0.217,0,0.33,0
		c1.316,0,2.228-3.201,2.729-9.604c1.633-1.255,2.92-2.762,3.86-4.519c-1.067,19.897-3.422,33.739-7.062,41.522
		c-4.206,8.912-10.64,13.369-19.302,13.369c-3.139,0-6.528-0.564-10.169-1.695c-15.504-4.832-24.01-19.332-25.516-43.5
		l-2.072-34.271c2.135,1.192,3.704,3.264,4.708,6.215c1.131,3.451,1.571,8.944,1.319,16.477c-0.25,9.164-0.282,14.656-0.094,16.477
		c0.432,3.798,1.625,6.138,3.579,7.015c0.583,0.283,1.241,0.422,1.977,0.422c2.338,0,3.972-1.254,4.895-3.766
		c0.629-1.641,0.942-3.837,0.942-6.59c-0.752-8.035-1.129-13.15-1.129-15.347c0-4.645,0.156-7.438,0.471-8.38
		c0.752-2.071,2.479-3.201,5.178-3.389l-0.66,30.413c5.274,7.908,9.573,11.863,12.9,11.863c0.688,0,1.319-0.157,1.883-0.471
		c1.004,1.004,1.978,1.506,2.918,1.506c1.582,0,2.946-0.346,4.097-1.036c1.563-0.944,2.709-2.545,3.437-4.804
		c0.913-2.688,1.308-6.705,1.177-12.051c-0.01-0.52-0.025-1.053-0.048-1.602c-0.502-7.03-0.752-12.114-0.752-15.253
		c-0.063-5.335,0.596-8.945,1.978-10.828c0.061-0.117,0.123-0.227,0.188-0.329c2.337-4.37,5.005-4.26,8.003,0.329
		c0.71,4.103,1.26,7.571,1.647,10.405C184.859,146.047,185.125,148.73,185.089,150.189z M273.596,177.964l0.094-0.752
		c-0.125-0.25-0.347-0.439-0.661-0.565c-0.25,0.062-0.406,0.095-0.471,0.095c-0.188,0.063-0.281,0.25-0.281,0.564
		c0,0.313,0.063,0.533,0.188,0.658c0.063,0,0.252,0.031,0.564,0.095C273.218,178.059,273.408,178.028,273.596,177.964z
		 M266.628,156.5c-0.24,0.24-0.459,0.459-0.66,0.658c-1.025,1.057-1.59,1.715-1.694,1.977c-0.125,0.189-0.188,0.912-0.188,2.166
		l0.283,2.261c0.377,1.506,1.129,2.259,2.26,2.259c0.209,0,0.414-0.016,0.611-0.046c0.961-0.099,1.571-0.491,1.836-1.177
		c0-0.063,0-0.659,0-1.789c0-1.129-0.219-2.166-0.658-3.107C268.103,159.072,267.507,158.003,266.628,156.5z M289.602,150.66
		c0.375-0.126,0.627-0.346,0.752-0.659c0-0.251-0.125-0.471-0.377-0.659c-0.375-0.125-0.752-0.032-1.129,0.283
		C288.848,150.127,289.1,150.472,289.602,150.66z M182.455,168.925l0.094,1.226l1.412,0.093c0.629,0,1.035-0.063,1.225-0.188
		c0.125-0.125,0.188-0.471,0.188-1.036c0-0.752-0.471-1.192-1.412-1.317C182.957,167.578,182.455,167.984,182.455,168.925z
		 M25.499,141.81c0.275-0.423,0.496-0.909,0.658-1.459c0.592-1.795,0.625-4.258,0.094-7.391c-0.239-2.788,0.529-4.247,2.308-4.378
		c1.914-0.132,5.039,1.327,9.368,4.378c1.363,1.363,2.729,3.325,4.095,5.885c0.202,0.372,0.407,0.765,0.612,1.177
		c0.714,1.482,1.734,3.68,3.06,6.591c0.204,0.432,0.408,0.871,0.613,1.318c1.191,2.448,2.573,4.394,4.143,5.837
		c-2.197-0.753-5.022-1.318-8.474-1.694c-8.223-1.004-15.001-3.578-20.338-7.721C23.395,143.975,24.682,143.128,25.499,141.81z
		 M18.718,159.605c12.492,6.025,21.908,8.6,28.246,7.721c2.323-0.314,4.396-1.287,6.214-2.918c2.135-1.822,3.046-3.799,2.731-5.933
		c-0.063-0.88-0.439-1.663-1.129-2.354c1.004,0.252,2.04,0.346,3.106,0.282c0.305-1.914,0.62-3.577,0.941-4.99
		c0.396-1.809,0.804-3.221,1.225-4.237c0.386-0.967,0.874-1.783,1.46-2.448c1.306-1.546,3.112-2.361,5.414-2.449
		c0.125,0,0.219,0,0.282,0c0.502,0,0.973,0,1.412,0c2.888,2.636,4.739,6.151,5.555,10.545c1.569,8.663-1.38,17.074-8.85,25.233
		c-3.202,3.515-8.285,5.743-15.252,6.687c-9.228,1.254-21.814,0.186-37.756-3.203L18.718,159.605z M102.705,134.466
		c-1.318,7.155-2.385,13.841-3.201,20.054c-1.381,10.608-2.135,20.056-2.26,28.342l27.021,0.093l-3.2,20.526l-44.442-4.708
		l4.237-43.312c0.252,1.192,0.596,2.762,1.036,4.708c0.753,3.453,1.695,6.058,2.824,7.813c0.221,0.202,0.44,0.39,0.661,0.565
		c2.03,1.556,3.756,1.367,5.178-0.565c0.377-1.694,0.471-4.457,0.281-8.284c-0.375-6.09-0.565-9.386-0.565-9.888
		c-0.125-8.097,1.915-12.553,6.121-13.37C98.908,135.94,101.01,135.281,102.705,134.466z M142.815,174.481
		c0-0.69-0.596-1.162-1.789-1.412c-1.129-0.313-1.696,0.188-1.696,1.507c0,0.689,0,1.066,0,1.129
		c0.189,0.629,0.691,0.942,1.508,0.942c0.69,0,1.223-0.282,1.6-0.847C142.69,175.36,142.815,174.921,142.815,174.481z
		 M167.482,180.979c0.063,0,0.252,0,0.564,0c0.502,0,0.66-0.032,0.471-0.095c0.127-0.252,0.189-0.502,0.189-0.754
		c0-0.125-0.221-0.313-0.66-0.563c-0.188,0.063-0.344,0.095-0.471,0.095c-0.188,0.063-0.281,0.25-0.281,0.564
		c0,0.503,0.031,0.658,0.094,0.471C167.451,180.821,167.482,180.916,167.482,180.979z M59.488,160.923
		c0-1.633-0.471-2.479-1.413-2.543c-1.003-0.125-1.505,0.627-1.505,2.26v0.941c0.187,0.502,0.689,0.752,1.505,0.752
		c0.816,0,1.288-0.125,1.413-0.375V160.923z M90.275,171.938c-0.25,0.063-0.439,0.126-0.564,0.188
		c-0.188,0.063-0.284,0.22-0.284,0.472c0,0.501,0.031,0.69,0.096,0.563c0.125,0.127,0.375,0.221,0.752,0.283
		c0.44-0.188,0.661-0.471,0.661-0.847C90.872,172.41,90.653,172.19,90.275,171.938z"/>
	<path fill="#FEF0F0" d="M206.134,127.545c-0.04-0.158-0.088-0.299-0.141-0.424c-2.639-4.394-4.521-4.394-5.65,0l3.201-23.633
		c1.884,0.126,3.767,0.314,5.649,0.566c17.638,2.133,30.036,8.662,37.19,19.583c2.763,4.268,3.892,8.567,3.39,12.899
		c-0.125,0.565-0.219,1.161-0.282,1.789c-0.439,1.758-1.099,3.546-1.978,5.367c-0.502,0.816-1.035,1.664-1.601,2.543
		c-0.188,0.25-0.346,0.471-0.471,0.659c-4.166,5.082-6.8,5.208-7.908,0.376c-0.037-0.123-0.068-0.25-0.095-0.376
		c-0.515-2.185-1.017-3.959-1.506-5.32c-0.222-0.64-0.44-1.189-0.66-1.648c-0.942-2.134-2.103-3.546-3.483-4.237
		c0.063-0.063,0.094-0.157,0.094-0.282c0.627-5.085-3.201-8.819-11.486-11.205l-2.73,21.938l0.941,0.282
		c-0.451,1.58-0.955,3.432-1.506,5.555c-0.553,1.984-1.15,4.213-1.79,6.687c-1.944,4.707-4.174,5.209-6.685,1.506
		c-1.131-2.197-1.633-7.534-1.508-16.007C207.18,135.312,206.851,129.772,206.134,127.545z M288.662,135.125
		c-0.629-2.636-4.959-4.175-12.994-4.614l1.977,15.442C285.553,141.37,289.225,137.761,288.662,135.125z M303.537,126.085
		c1.819,2.762,2.918,5.462,3.295,8.098c0.252,1.381,0.313,2.762,0.188,4.142c-1.82-1.213-3.75-1.841-5.79-1.883
		c-0.087,0-0.164,0-0.235,0c-2.371,0-4.474,0.314-6.311,0.941c-1.541,0.557-2.891,1.342-4.048,2.354
		c-1.695,1.507-3.201,3.923-4.521,7.25c-0.096,0.247-0.188,0.482-0.281,0.706c-1.42,3.598-2.426,5.778-3.015,6.544
		c-1.506,2.197-3.608,3.296-6.308,3.296c-5.461,0-8.663-2.982-9.604-8.945c-0.25-8.286-1.13-14.657-2.637-19.114
		c-0.939-1.06-1.835-1.83-2.684-2.306c-2.211-1.294-4.047-0.525-5.51,2.306l-1.6-10.639c5.9-2.198,11.361-3.704,16.383-4.521
		C285.992,111.742,296.882,115.666,303.537,126.085z M220.208,164.972h-1.977c-0.816-0.439-1.318-0.91-1.506-1.412
		c-0.125-0.188-0.189-0.628-0.189-1.318c0-2.511,0.754-3.64,2.26-3.389c1.443,0.25,2.166,1.443,2.166,3.578c0,0.814,0,1.287,0,1.412
		C220.9,164.283,220.648,164.658,220.208,164.972z M189.893,148.307c-0.063,0.376-0.095,0.753-0.095,1.13
		c-0.94,1.757-2.229,3.264-3.86,4.519c-0.503,6.403-1.413,9.604-2.729,9.604c-0.113,0-0.225,0-0.33,0
		c-0.998-0.084-1.609-0.523-1.836-1.318v-1.412c0-1.756,0.377-3.42,1.129-4.99c0.433-0.861,0.949-1.583,1.555-2.166
		c0.361-0.329,0.752-0.611,1.177-0.848c0.125-0.815,0.188-1.695,0.188-2.636c0.035-1.459-0.23-4.142-0.801-8.05
		c-0.388-2.834-0.938-6.302-1.647-10.405c-2.998-4.589-5.666-4.699-8.003-0.329c-0.064,0.102-0.127,0.211-0.188,0.329
		c-1.382,1.883-2.039,5.493-1.978,10.828c0,3.139,0.25,8.223,0.752,15.253c0.022,0.549,0.038,1.082,0.048,1.602
		c0.13,5.347-0.263,9.363-1.177,12.051c-0.728,2.259-1.874,3.859-3.437,4.804c-1.149,0.69-2.515,1.036-4.097,1.036
		c-0.94,0-1.914-0.502-2.918-1.506c4.771-2.762,7.156-16.541,7.156-41.334c0-7.406-0.188-15.913-0.563-25.516l22.125,0.753
		c0.188,11.11,0.156,21.185-0.094,30.223C190.143,142.813,190.018,145.607,189.893,148.307z M182.455,168.925
		c0-0.94,0.502-1.348,1.506-1.223c0.94,0.125,1.412,0.565,1.412,1.317c0,0.565-0.063,0.911-0.188,1.036
		c-0.188,0.126-0.597,0.188-1.224,0.188l-1.414-0.093L182.455,168.925z M290.354,150.001c-0.125,0.313-0.377,0.533-0.752,0.659
		c-0.502-0.188-0.754-0.533-0.754-1.036c0.377-0.314,0.754-0.408,1.129-0.283C290.229,149.53,290.354,149.75,290.354,150.001z
		 M266.628,156.5c0.879,1.506,1.475,2.572,1.789,3.201c0.44,0.94,0.658,1.977,0.658,3.106s0,1.728,0,1.789
		c-0.265,0.687-0.875,1.077-1.834,1.177c-0.199,0.031-0.402,0.046-0.613,0.046c-1.129,0-1.883-0.753-2.26-2.259l-0.283-2.26
		c0-1.256,0.064-1.977,0.189-2.166c0.105-0.262,0.669-0.922,1.693-1.979C266.167,156.958,266.388,156.738,266.628,156.5z
		 M273.596,177.964c-0.188,0.063-0.376,0.095-0.566,0.095c-0.312-0.063-0.501-0.095-0.563-0.095
		c-0.125-0.125-0.188-0.346-0.188-0.658s0.095-0.502,0.281-0.564c0.065,0,0.222-0.033,0.472-0.095
		c0.314,0.125,0.535,0.313,0.66,0.565L273.596,177.964z M10.715,127.027c-1.004-7.343,1.977-13.433,8.945-18.265
		c5.524-3.766,12.334-6.215,20.433-7.344c7.218-0.941,15.786-1.13,25.704-0.565l-3.86,20.621
		c-7.785-2.323-13.999-3.202-18.644-2.636c-2.071,0.313-4.079,1.129-6.025,2.448c-2.322,1.506-3.36,3.264-3.108,5.272
		c0.314,1.883,2.261,3.641,5.837,5.273c2.449,1.192,7.093,2.604,13.936,4.237c5.901,1.506,10.169,3.107,12.805,4.801
		c0.628,0.44,1.255,0.911,1.883,1.413c-0.439,0-0.91,0-1.412,0c-0.063,0-0.157,0-0.282,0c-2.302,0.087-4.108,0.903-5.414,2.449
		c-0.586,0.665-1.074,1.481-1.46,2.448c-0.421,1.016-0.829,2.428-1.225,4.237c-0.322,1.413-0.636,3.076-0.941,4.99
		c-1.066,0.063-2.102-0.031-3.106-0.281c-0.942-0.942-2.385-1.727-4.331-2.354c-1.57-1.443-2.951-3.389-4.143-5.837
		c-0.205-0.447-0.409-0.886-0.613-1.318c-1.326-2.911-2.346-5.109-3.06-6.591c-0.206-0.412-0.41-0.805-0.612-1.177
		c-1.366-2.56-2.732-4.521-4.095-5.885c-4.329-3.051-7.454-4.51-9.368-4.378c-1.778,0.132-2.547,1.59-2.308,4.378
		c0.531,3.133,0.498,5.596-0.094,7.391c-0.162,0.55-0.383,1.036-0.658,1.459c-0.816,1.318-2.104,2.165-3.862,2.542
		c-0.44-0.377-0.846-0.721-1.223-1.035c-2.448-2.134-4.551-4.614-6.31-7.439C12.221,132.864,11.092,129.915,10.715,127.027z
		 M102.705,134.466c-1.695,0.815-3.797,1.475-6.309,1.977c-4.206,0.816-6.246,5.272-6.121,13.37c0,0.502,0.19,3.797,0.565,9.888
		c0.189,3.827,0.096,6.59-0.281,8.284c-1.422,1.933-3.148,2.121-5.178,0.565c-0.221-0.176-0.44-0.363-0.661-0.565
		c-1.129-1.757-2.071-4.362-2.824-7.813c-0.44-1.946-0.784-3.516-1.036-4.708l3.86-40.298l20.903,3.955
		C104.493,124.453,103.52,129.569,102.705,134.466z M147.9,111.021l-0.377,22.974c-2.7,0.188-4.426,1.318-5.178,3.389
		c-0.315,0.941-0.471,3.735-0.471,8.38c0,2.197,0.376,7.313,1.129,15.347c0,2.754-0.313,4.949-0.942,6.59
		c-0.923,2.512-2.556,3.766-4.895,3.766c-0.736,0-1.395-0.141-1.977-0.422c-1.953-0.877-3.147-3.217-3.579-7.014
		c-0.188-1.82-0.156-7.314,0.094-16.478c0.252-7.533-0.188-13.026-1.319-16.477c-1.004-2.951-2.573-5.022-4.708-6.215l-0.752-12.522
		L147.9,111.021z M90.275,171.938c0.377,0.251,0.597,0.472,0.661,0.66c0,0.376-0.221,0.659-0.661,0.847
		c-0.377-0.063-0.627-0.156-0.752-0.283c-0.064,0.127-0.096-0.063-0.096-0.563c0-0.251,0.096-0.409,0.284-0.472
		C89.836,172.065,90.025,172.001,90.275,171.938z M59.488,160.923v1.035c-0.125,0.252-0.597,0.377-1.413,0.377
		c-0.816,0-1.318-0.252-1.505-0.754v-0.94c0-1.632,0.502-2.386,1.505-2.259C59.018,158.443,59.488,159.291,59.488,160.923z
		 M167.482,180.979c0-0.063-0.031-0.157-0.093-0.283c-0.063,0.188-0.095,0.032-0.095-0.471c0-0.313,0.095-0.502,0.281-0.565
		c0.127,0,0.284-0.031,0.471-0.094c0.44,0.251,0.662,0.439,0.662,0.564c0,0.25-0.063,0.502-0.19,0.752
		c0.19,0.064,0.032,0.096-0.472,0.096C167.735,180.979,167.544,180.979,167.482,180.979z M142.815,174.481
		c0,0.438-0.125,0.879-0.377,1.317c-0.377,0.564-0.91,0.848-1.6,0.848c-0.816,0-1.318-0.313-1.508-0.941c0-0.063,0-0.439,0-1.131
		c0-1.316,0.566-1.818,1.696-1.506C142.219,173.32,142.815,173.791,142.815,174.481z"/>
</g>
</svg>
