<?xml version="1.0" encoding="utf-8"?>
<!-- Generator: Adobe Illustrator 16.0.0, SVG Export Plug-In . SVG Version: 6.00 Build 0)  -->
<!DOCTYPE svg PUBLIC "-//W3C//DTD SVG 1.1//EN" "http://www.w3.org/Graphics/SVG/1.1/DTD/svg11.dtd">
<svg version="1.1" id="Layer_1" xmlns="http://www.w3.org/2000/svg" xmlns:xlink="http://www.w3.org/1999/xlink" x="0px" y="0px"
	 width="300px" height="300px" viewBox="0 0 300 300" enable-background="new 0 0 300 300" xml:space="preserve">
<g>
	<path fill-rule="evenodd" clip-rule="evenodd" fill="#0C6CA1" d="M75.52,58.309c1.439-0.719,2.286-1.544,2.541-2.474
		c2.983-3.853,5.217-6.679,6.701-8.478c2.309-2.563,4.857-5.569,7.646-9.018l-0.247-0.067c-3.028,2.249-5.929,4.992-8.703,8.23
		c-1.439,1.859-3.673,4.82-6.701,8.883c-0.255,0.45-0.697,0.809-1.327,1.08c-1.739,0.719-3.223,2.204-4.452,4.452
		C72.416,59.793,73.93,58.923,75.52,58.309z M164.637,148.978c-2.47-11.654-6.446-21.811-11.93-30.47
		c0.183-0.666,0.328-1.564,0.438-2.699c-0.158-4.944-0.477-9.058-0.956-12.345c0.83-0.498,1.688-0.981,2.575-1.451
		c4.728,5.005,9.862,11.403,15.403,19.193l-0.539,7.398l-0.697,1.395l3.935,4.767c7.452,8.68,12.691,15.644,15.72,20.891
		c2.683,4.107,4.438,7.324,5.262,9.647c0.659,0.81,1.117,1.35,1.371,1.619c0.57,0.51,1.109,0.892,1.619,1.147
		c0.615,0.719,1.207,0.666,1.777-0.158c0.72-0.765,1.184-1.918,1.394-3.463c1.635-10.689-0.937-22.922-7.713-36.7
		c-5.757-11.663-14.932-25.148-27.524-40.454c6.581,5.037,13.755,12.69,21.521,22.959c1.529,1.499,2.811,2.091,3.846,1.776
		c1.079-0.255,1.363-1.312,0.854-3.17c-3.343-11.499-9.767-21.618-19.271-30.358c-9.773-8.89-21.213-15.007-34.315-18.35
		c3.599,3.193,8.096,7.848,13.492,13.965c-13.822-7.556-24.173-12.518-31.055-14.887c-7.766-2.773-11.851-2.616-12.255,0.472
		c0.405,0.15,0.787,0.585,1.147,1.304c0,0.15,0,0.3,0,0.45c-0.105,0.36-0.308,0.645-0.607,0.855
		c-0.615,1.394-1.852,1.754-3.71,1.079c-1.589-0.509-2.024-1.536-1.304-3.081l0.315-0.697c-2.983-1.29-5.532-1.439-7.646-0.45
		c-2.054,1.079-3.98,3.313-5.779,6.701c-5.037-1.439-9.07-1.162-12.098,0.832c-0.57,0.525-0.697,1.117-0.382,1.776
		c0.254,0.615,0.817,1.027,1.686,1.237l10.502,2.698c16.376,5.166,30.69,12.531,42.939,22.094c-0.64,0.106-1.282,0.222-1.923,0.349
		c-2.728,0.314-5.389,0.083-7.983-0.697c-0.229-0.055-0.544-0.148-0.944-0.281l0.427-4.801l-4.002-2.563
		C105.48,79.222,89.679,73.623,70.82,69.71l-0.697-0.314l-2.384-0.225c-2.009-0.105-3.53-1.26-4.564-3.463
		c-0.15-1.29,0.135-2.549,0.854-3.778c0.675-0.975,2.039-2.361,4.093-4.16c1.649-1.035,2.878-1.807,3.688-2.316
		c1.604-1.035,2.812-2.062,3.621-3.081c11.469-18.814,28.199-26.858,50.192-24.129c18.604,2.414,36.407,11.199,53.407,26.355
		c4.482,4.317,7.361,6.941,8.636,7.871c3.343,2.519,7.016,4.265,11.019,5.24c7.196,1.229,13.882,3.261,20.059,6.094
		c6.836,3.238,12.413,7.376,16.73,12.413c0.914,0.72,1.372,1.566,1.372,2.541s-0.487,1.484-1.462,1.529
		c-7.706,0.57-14.64,1.881-20.801,3.936c-0.524,0.255-0.99,0.794-1.395,1.619c-0.209,0.87-0.24,1.537-0.09,2.001
		c9.52,26.52,9.085,57.561-1.304,93.12c-2.669,10.435-4.078,16.063-4.229,16.888c-1.244,6.477-1.094,11.461,0.45,14.954
		c4.632,10.374,7.076,18.957,7.331,25.748c0.359,8.979-2.751,16.888-9.332,23.724c1.589-2.878,2.159-5.802,1.709-8.77
		c-0.465-2.519-1.649-4.857-3.554-7.016c-5.547-7.406-8.912-13.553-10.097-18.439c-2.113,1.708-4.865,2.33-8.252,1.866
		c-1.8-0.36-4.468-1.237-8.006-2.632c-4.228-1.799-7.879-2.721-10.951-2.766c-3.494-0.104-6.837,0.742-10.029,2.541
		c1.693-6.73,5.861-11.356,12.502-13.875c3.898-1.394,11.034-2.474,21.408-3.237c1.244-0.465,2.017-1.005,2.316-1.619
		c5.352-7.451,7.001-18.987,4.947-34.608c-0.675-5.188-2.706-11.071-6.094-17.652c-2.114-4.828-3.86-8.043-5.24-9.646
		c-3.493-5.952-8.508-12.758-15.044-20.419l-2.766-3.554l-0.54,3.082C167.205,141.263,165.976,145.746,164.637,148.978z
		 M113.838,32.089c-0.524-0.195-4.482,0.937-11.874,3.396c7.496-1.274,11.604-2.069,12.324-2.383
		c6.686-1.125,11.258-1.484,13.717-1.08C124.257,31.197,119.535,31.219,113.838,32.089z M154.136,41.961l-0.383,0.697
		c6.94,4.167,14.549,9.587,22.824,16.258l-2.159-1.844c-0.209-1.185-0.337-1.799-0.382-1.844c-0.105-0.105-0.188-0.188-0.247-0.248
		c-3.283-3.433-9.475-7.922-18.574-13.469C154.66,41.346,154.3,41.496,154.136,41.961z M142.734,93.861
		c0.063-0.637,0.476-0.982,1.237-1.034c0.764-0.045,1.305,0.217,1.62,0.787c0.014,0.154,0.029,0.308,0.045,0.461
		c-0.417-0.048-0.836-0.088-1.26-0.124C143.831,93.913,143.284,93.883,142.734,93.861z M215.885,129.909
		c0.15-0.465-0.008-0.795-0.472-0.99c0,0.045-0.202,0.247-0.607,0.607c-0.149,0.21-0.098,0.495,0.157,0.855l0.697,10.412
		l-0.314,0.607l0.697,0.225c0.149-0.045,0.247-0.12,0.292-0.225c0.314-0.21,0.314-0.368,0-0.472
		C217.055,137.494,216.904,133.822,215.885,129.909z M210.713,103.554l-0.292,0.607c2.203,7.001,3.306,11.963,3.306,14.887
		l0.314,0.922l0.292-0.697c0.36,0.15,0.623,0.202,0.787,0.158c0.046-0.045,0.12-0.248,0.226-0.607
		c-0.57-4.677-1.597-9.564-3.081-14.662c-0.21-0.555-0.39-0.884-0.539-0.989C211.561,103.216,211.223,103.344,210.713,103.554z
		 M146.805,107.208c0.032,0.42,0.062,0.82,0.089,1.203l0.731,3.013c-0.395-0.484-0.796-0.963-1.203-1.438
		c-0.181-0.27-0.315-0.698-0.405-1.283c0.045-0.599,0.202-1.012,0.472-1.236C146.593,107.381,146.698,107.294,146.805,107.208z"/>
	<path fill-rule="evenodd" clip-rule="evenodd" fill="#FFFFFF" d="M75.52,58.309c-1.589,0.614-3.104,1.484-4.542,2.608
		c1.229-2.249,2.713-3.733,4.452-4.452c0.63-0.271,1.072-0.63,1.327-1.08c3.028-4.063,5.262-7.023,6.701-8.883
		c2.773-3.238,5.674-5.981,8.703-8.23l0.247,0.067c-2.788,3.449-5.336,6.455-7.646,9.018c-1.484,1.799-3.718,4.625-6.701,8.478
		C77.806,56.765,76.958,57.59,75.52,58.309z M154.765,102.013c1.158-0.62,2.365-1.215,3.621-1.788
		c0.539-0.27,0.696-0.72,0.472-1.349c-0.225-0.555-0.682-0.945-1.372-1.17c-3.493-1.917-7.443-3.128-11.85-3.631
		c-0.016-0.153-0.031-0.307-0.045-0.461c-0.315-0.57-0.855-0.832-1.62-0.787c-0.761,0.052-1.173,0.397-1.237,1.034
		c-3.309-0.121-6.67,0.093-10.085,0.641c-12.25-9.563-26.563-16.928-42.939-22.094L79.207,69.71
		c-0.869-0.209-1.432-0.622-1.686-1.237c-0.315-0.659-0.188-1.251,0.382-1.776c3.028-1.994,7.061-2.271,12.098-0.832
		c1.799-3.388,3.725-5.622,5.779-6.701c2.114-0.989,4.662-0.84,7.646,0.45l-0.315,0.697c-0.72,1.544-0.285,2.571,1.304,3.081
		c1.859,0.675,3.096,0.315,3.71-1.079c0.3-0.21,0.502-0.495,0.607-0.855c0-0.149,0-0.3,0-0.45c-0.36-0.719-0.742-1.154-1.147-1.304
		c0.405-3.088,4.49-3.245,12.255-0.472c6.881,2.369,17.233,7.331,31.055,14.887c-5.396-6.117-9.894-10.771-13.492-13.965
		c13.103,3.343,24.542,9.46,34.315,18.35c9.505,8.74,15.929,18.859,19.271,30.358c0.51,1.858,0.226,2.916-0.854,3.17
		c-1.035,0.315-2.316-0.278-3.846-1.776c-7.766-10.269-14.939-17.922-21.521-22.959c12.593,15.306,21.768,28.792,27.524,40.454
		c6.776,13.778,9.348,26.01,7.713,36.7c-0.21,1.545-0.674,2.698-1.394,3.463c-0.57,0.824-1.162,0.877-1.777,0.158
		c-0.51-0.256-1.049-0.638-1.619-1.147c-0.254-0.27-0.712-0.81-1.371-1.619c-0.824-2.323-2.579-5.54-5.262-9.647
		c-3.028-5.247-8.268-12.21-15.72-20.891l-3.935-4.767l0.697-1.395l0.539-7.398C164.627,113.417,159.492,107.019,154.765,102.013z
		 M146.219,114.572l0.068-0.562c0.285-0.225,0.472-0.382,0.562-0.473c0.09,0.045,0.27,0.203,0.54,0.473
		c0.562,0.734,1.102,1.469,1.619,2.203c0.836,1.197,1.611,2.396,2.327,3.598c0.489,0.823,0.95,1.648,1.383,2.474
		c0,0.225-0.021,0.337-0.066,0.337c-0.09,0.089-0.255,0.157-0.495,0.202v0.404l-0.405-0.472c-0.622-1.748-2.429-4.431-5.419-8.05
		C146.293,114.661,146.256,114.617,146.219,114.572z M135.718,123.904c-0.409,0.353-1.042,0.397-1.9,0.135
		c-0.273-0.081-0.569-0.193-0.888-0.337c-3.552-2.234-6.858-4.097-9.917-5.589c-3.093-1.517-5.934-2.652-8.522-3.406
		c3.164,1.812,6.132,3.6,8.905,5.363c3.254,2.074,6.238,4.117,8.95,6.127c3.147,2.33,5.928,4.616,8.343,6.859
		c7.286,6.866,11.679,13.74,13.178,20.621c0.18,1.05,0.135,1.866-0.135,2.451c-0.09,0.63-0.428,0.809-1.013,0.539
		c-0.374-0.045-0.786-0.156-1.236-0.337c-0.181-0.134-0.592-0.359-1.237-0.675c-1.079-1.229-2.871-2.758-5.374-4.587
		c-3.103-2.549-7.909-5.615-14.415-9.198l-3.553-2.046l0.067-1.034l-1.349-4.565c-6.596-4.468-12.263-7.676-17-9.625
		c1.544,1.994,3.32,5.382,5.33,10.164c0.449,1.68,0.472,2.638,0.067,2.879c-0.404,0.27-1.319-0.345-2.743-1.844l-0.473-0.562
		l-2.384-3.553c-1.004-2.084-2.414-5.015-4.227-8.793c-0.36-0.225-0.75-0.247-1.17-0.067c-0.494,0.27-0.674,0.629-0.54,1.079
		c1.589,2.744,2.886,4.82,3.891,6.229l-3.014-1.102c-11.543-4.917-24.278-6.964-38.206-6.139l-7.106,0.674
		c-0.585,0.09-1.012,0-1.282-0.27c-0.33-0.315-0.405-0.697-0.225-1.147c1.424-1.918,3.838-3.013,7.241-3.283
		c0.315-2.549,0.952-4.37,1.912-5.464c1.094-1.094,2.713-1.574,4.857-1.439l-0.067,0.495c-0.105,1.079,0.39,1.575,1.484,1.484
		c1.274,0,1.957-0.472,2.046-1.417c0.09-0.24,0.157-0.472,0.203-0.697c-0.045-0.09-0.067-0.203-0.067-0.337
		c-0.45-0.315-0.81-0.495-1.08-0.54c-0.405-1.963,2.054-2.991,7.376-3.081c4.812-0.135,12.315,0.502,22.51,1.911
		c-4.723-2.503-8.545-4.272-11.469-5.307c8.74-1.005,17.135,0.06,25.186,3.193c1.825,0.741,3.564,1.563,5.216,2.462
		c5.308,2.9,9.734,6.637,13.279,11.21c0.118,0.149,0.235,0.299,0.349,0.45C136.28,122.84,136.348,123.544,135.718,123.904z
		 M154.9,128.964c0.089-0.314,0.134-0.495,0.134-0.539c0.36,0.044,0.54,0.202,0.54,0.472c1.544,2.189,2.503,4.416,2.879,6.679
		c0.18,0.06,0.202,0.157,0.066,0.292c0,0.09-0.044,0.18-0.134,0.27l-0.495-0.067l0.067-0.405l-2.856-6.296
		C154.878,129.279,154.81,129.144,154.9,128.964z M152.707,118.507c-1.568-2.485-3.263-4.846-5.082-7.083l-0.731-3.013
		c-0.028-0.383-0.058-0.783-0.089-1.203c1.644-1.322,3.439-2.569,5.385-3.744c0.479,3.287,0.798,7.401,0.956,12.345
		C153.035,116.943,152.89,117.842,152.707,118.507z M58.879,101.395c-0.87,2.773-1.739,5.231-2.608,7.375
		c-0.495,1.409-1.2,3.635-2.114,6.678c0.044,0.645-0.292,1.35-1.012,2.115c-0.824,0.779-1.551,1.671-2.181,2.676
		c0.27-1.649,0.854-2.901,1.754-3.755c0.33-0.331,0.517-0.675,0.562-1.035c0.855-3.133,1.514-5.449,1.979-6.948
		c1.005-2.594,2.167-4.94,3.486-7.039L58.879,101.395z M79.14,89.319c-1.544,0.314-4.272,1.589-8.186,3.822
		c-0.27,0.36-2.594,1.814-6.971,4.363c4.003-3.223,6.191-4.834,6.566-4.834C73.818,90.796,76.681,89.679,79.14,89.319z
		 M97.489,89.319c0-0.271,0.188-0.428,0.563-0.473c6.821,1.274,11.619,2.571,14.392,3.891c0.089,0.045,0.157,0.09,0.202,0.135
		c0.045,0.045,0.27,0.405,0.674,1.079l0.203,0.068c-5.98-1.847-11.325-3.233-16.034-4.16V89.319z M154.136,41.961
		c0.164-0.465,0.524-0.615,1.079-0.45c9.1,5.547,15.291,10.037,18.574,13.469c0.06,0.061,0.142,0.143,0.247,0.248
		c0.045,0.045,0.173,0.659,0.382,1.844l2.159,1.844c-8.275-6.671-15.884-12.09-22.824-16.258L154.136,41.961z M113.838,32.089
		c5.697-0.87,10.419-0.892,14.167-0.067c-2.458-0.405-7.031-0.045-13.717,1.08c-0.72,0.314-4.828,1.109-12.324,2.383
		C109.355,33.026,113.313,31.894,113.838,32.089z M210.713,103.554c0.51-0.209,0.848-0.338,1.013-0.382
		c0.149,0.105,0.329,0.435,0.539,0.989c1.484,5.097,2.511,9.984,3.081,14.662c-0.105,0.36-0.18,0.563-0.226,0.607
		c-0.164,0.044-0.427-0.007-0.787-0.158l-0.292,0.697l-0.314-0.922c0-2.923-1.103-7.886-3.306-14.887L210.713,103.554z
		 M215.885,129.909c1.02,3.913,1.17,7.585,0.45,11.019c0.314,0.104,0.314,0.262,0,0.472c-0.045,0.105-0.143,0.18-0.292,0.225
		l-0.697-0.225l0.314-0.607l-0.697-10.412c-0.255-0.36-0.307-0.645-0.157-0.855c0.405-0.36,0.607-0.562,0.607-0.607
		C215.877,129.114,216.035,129.444,215.885,129.909z"/>
	<path fill-rule="evenodd" clip-rule="evenodd" fill="#238CC5" d="M152.707,118.507c5.483,8.66,9.46,18.816,11.93,30.47
		c1.209,5.733,2.057,11.827,2.541,18.282c0.779,6.957,1.237,10.727,1.372,11.313c0.675,4.287,1.904,7.27,3.688,8.949
		c5.232,5.322,8.71,10.029,10.434,14.121c2.234,5.412,2.145,10.989-0.27,16.731c0.315-2.189-0.008-4.123-0.967-5.803
		c-0.854-1.408-2.129-2.57-3.823-3.485c-5.097-3.268-8.553-6.251-10.366-8.949c-0.914,1.559-2.481,2.563-4.7,3.013
		c-1.139,0.181-2.961,0.271-5.465,0.271c-2.998-0.09-5.456,0.187-7.375,0.832c-2.143,0.719-3.987,2.016-5.531,3.891
		c-0.495-4.514,0.989-8.313,4.452-11.402c2.039-1.738,6.154-4.063,12.346-6.971c0.629-0.539,0.989-1.02,1.079-1.439
		c1.559-5.816-0.098-13.252-4.971-22.307c-1.588-2.998-4.204-6.162-7.847-9.489c-2.414-2.459-4.212-3.981-5.397-4.565
		c-3.508-2.864-8.148-5.87-13.92-9.018l-2.519-1.574l0.405,2.046c0.629,3.778,0.9,6.784,0.81,9.018
		c-0.045,1.873-0.405,3.058-1.08,3.553c-0.87,0.629-1.896,0.428-3.081-0.607c-0.585-0.045-0.899-0.39-0.944-1.034
		c-5.367-5.637-10.764-13.005-16.191-22.105l-4.025-2.114v4.902c0.24,2.144,0.518,3.875,0.832,5.195
		c0.135,1.993,0.022,3.771-0.337,5.329c-0.195,0.584-0.652,1.807-1.372,3.666c0.044,0.555-0.345,0.719-1.169,0.494
		c-0.81-0.09-1.424-0.592-1.844-1.506c-3.493-4.692-6.379-10.037-8.657-16.034l-1.912-6.633l-3.081-0.607
		c-9.459-1.544-20.418-1.341-32.876,0.607H52.38l-1.484,0.427c-1.229,0.45-2.414,0.083-3.553-1.102
		c-0.465-0.734-0.6-1.551-0.405-2.451c0.18-0.779,0.697-1.918,1.552-3.417c0.779-1.005,1.372-1.776,1.776-2.316
		c0.689-1.004,1.192-1.941,1.507-2.811c2.639-14.137,11.011-22.892,25.119-26.265c11.963-2.818,24.863-1.544,38.7,3.823
		c2.895,1.203,4.963,2.017,6.207,2.439c0.4,0.133,0.715,0.227,0.944,0.281c2.594,0.78,5.255,1.012,7.983,0.697
		c0.641-0.126,1.283-0.243,1.923-0.349c3.415-0.548,6.777-0.762,10.085-0.641c0.55,0.021,1.097,0.052,1.642,0.09
		c0.424,0.036,0.843,0.076,1.26,0.124c4.407,0.503,8.357,1.714,11.85,3.631c0.69,0.225,1.147,0.615,1.372,1.17
		c0.225,0.629,0.067,1.079-0.472,1.349c-1.256,0.572-2.463,1.168-3.621,1.788c-0.887,0.47-1.745,0.953-2.575,1.451
		c-1.945,1.175-3.741,2.422-5.385,3.744c-0.106,0.087-0.211,0.174-0.315,0.259c-0.27,0.225-0.427,0.637-0.472,1.236
		c0.089,0.585,0.224,1.013,0.405,1.283c0.407,0.475,0.808,0.955,1.203,1.438C149.444,113.661,151.139,116.022,152.707,118.507z
		 M154.9,128.964c-0.091,0.18-0.022,0.315,0.201,0.405l2.856,6.296l-0.067,0.405l0.495,0.067c0.09-0.09,0.134-0.18,0.134-0.27
		c0.136-0.135,0.113-0.232-0.066-0.292c-0.376-2.264-1.335-4.49-2.879-6.679c0-0.27-0.18-0.427-0.54-0.472
		C155.034,128.469,154.989,128.649,154.9,128.964z M135.718,123.904c0.63-0.36,0.563-1.064-0.202-2.113
		c-0.114-0.151-0.23-0.301-0.349-0.45c-3.545-4.573-7.972-8.31-13.279-11.21c-1.652-0.9-3.391-1.721-5.216-2.462
		c-8.051-3.133-16.446-4.198-25.186-3.193c2.923,1.034,6.746,2.804,11.469,5.307c-10.194-1.409-17.698-2.046-22.51-1.911
		c-5.322,0.09-7.781,1.117-7.376,3.081c0.27,0.045,0.629,0.225,1.08,0.54c0,0.135,0.022,0.247,0.067,0.337
		c-0.045,0.225-0.113,0.457-0.203,0.697c-0.09,0.945-0.772,1.417-2.046,1.417c-1.094,0.09-1.589-0.405-1.484-1.484l0.067-0.495
		c-2.144-0.134-3.763,0.345-4.857,1.439c-0.959,1.095-1.597,2.916-1.912,5.464c-3.403,0.27-5.816,1.365-7.241,3.283
		c-0.18,0.45-0.105,0.832,0.225,1.147c0.27,0.27,0.697,0.36,1.282,0.27l7.106-0.674c13.927-0.825,26.662,1.222,38.206,6.139
		l3.014,1.102c-1.004-1.41-2.301-3.485-3.891-6.229c-0.135-0.45,0.045-0.81,0.54-1.079c0.42-0.18,0.81-0.157,1.17,0.067
		c1.813,3.778,3.223,6.708,4.227,8.793l2.384,3.553l0.473,0.562c1.424,1.499,2.339,2.114,2.743,1.844
		c0.405-0.241,0.382-1.199-0.067-2.879c-2.01-4.782-3.786-8.17-5.33-10.164c4.738,1.949,10.404,5.157,17,9.625l1.349,4.565
		l-0.067,1.034l3.553,2.046c6.506,3.583,11.312,6.649,14.415,9.198c2.503,1.829,4.295,3.358,5.374,4.587
		c0.645,0.315,1.056,0.541,1.237,0.675c0.45,0.181,0.862,0.292,1.236,0.337c0.585,0.27,0.923,0.091,1.013-0.539
		c0.27-0.585,0.314-1.401,0.135-2.451c-1.499-6.881-5.892-13.755-13.178-20.621c-2.416-2.243-5.196-4.529-8.343-6.859
		c-2.712-2.01-5.695-4.053-8.95-6.127c-2.772-1.764-5.741-3.551-8.905-5.363c2.588,0.754,5.43,1.89,8.522,3.406
		c3.06,1.492,6.366,3.354,9.917,5.589c0.318,0.144,0.615,0.256,0.888,0.337C134.675,124.302,135.309,124.257,135.718,123.904z
		 M146.219,114.572c0.037,0.044,0.074,0.089,0.113,0.135c2.99,3.619,4.797,6.302,5.419,8.05l0.405,0.472v-0.404
		c0.24-0.045,0.405-0.113,0.495-0.202c0.045,0,0.066-0.113,0.066-0.337c-0.433-0.826-0.894-1.651-1.383-2.474
		c-0.716-1.202-1.491-2.401-2.327-3.598c-0.517-0.734-1.057-1.469-1.619-2.203c-0.27-0.27-0.45-0.427-0.54-0.473
		c-0.09,0.09-0.277,0.248-0.562,0.473L146.219,114.572z M97.489,89.319v0.54c4.708,0.927,10.053,2.313,16.034,4.16l-0.203-0.068
		c-0.405-0.674-0.629-1.034-0.674-1.079c-0.045-0.045-0.113-0.09-0.202-0.135c-2.773-1.32-7.571-2.616-14.392-3.891
		C97.677,88.892,97.489,89.049,97.489,89.319z M79.14,89.319c-2.459,0.359-5.322,1.477-8.59,3.351c-0.375,0-2.563,1.611-6.566,4.834
		c4.377-2.548,6.701-4.002,6.971-4.363C74.868,90.908,77.596,89.634,79.14,89.319z M58.879,101.395l-0.135,0.067
		c-1.319,2.099-2.481,4.445-3.486,7.039c-0.465,1.5-1.124,3.815-1.979,6.948c-0.045,0.36-0.232,0.705-0.562,1.035
		c-0.899,0.854-1.484,2.106-1.754,3.755c0.63-1.004,1.357-1.896,2.181-2.676c0.72-0.765,1.057-1.47,1.012-2.115
		c0.914-3.043,1.619-5.27,2.114-6.678C57.14,106.626,58.009,104.168,58.879,101.395z"/>
</g>
</svg>
