<?xml version="1.0" encoding="utf-8"?>
<!-- Generator: Adobe Illustrator 16.0.0, SVG Export Plug-In . SVG Version: 6.00 Build 0)  -->
<!DOCTYPE svg PUBLIC "-//W3C//DTD SVG 1.1//EN" "http://www.w3.org/Graphics/SVG/1.1/DTD/svg11.dtd">
<svg version="1.1" id="Layer_1" xmlns="http://www.w3.org/2000/svg" xmlns:xlink="http://www.w3.org/1999/xlink" x="0px" y="0px"
	 width="300px" height="300px" viewBox="0 0 300 300" enable-background="new 0 0 300 300" xml:space="preserve">
<g>
	<path fill-rule="evenodd" clip-rule="evenodd" fill="#38352E" d="M281.544,133.435c-0.272,3.685-0.604,7.033-0.998,10.044
		l-0.203,1.383c-0.188,1.36-0.396,2.649-0.62,3.864c2.549,2.099,4.654,4.255,6.313,6.471c0.629-0.891,1.17-1.796,1.626-2.718
		c0.921-1.869,1.486-3.791,1.696-5.765c0.157-1.518,0.102-3.065-0.165-4.641C288.303,137.313,285.754,134.434,281.544,133.435z
		 M295.343,129.115c2.765,5.424,3.371,11.351,1.822,17.78c-1.325,4.869-3.872,9.188-7.642,12.958
		c4.434,6.863,6.652,14.007,6.652,21.431c0,15.614-8.752,28.956-26.254,40.029c-17.503,10.969-38.655,16.453-63.456,16.453
		c-24.696,0-45.796-5.484-63.299-16.453c-17.492-11.073-26.238-24.415-26.238-40.029c0-12.182,5.534-23.091,16.602-32.724
		l0.165-0.173c-1.764-9.188-2.372-18.769-1.822-28.743c0-10.293,6.312-19.32,18.936-27.079c12.628-7.639,28.245-12.065,46.853-13.28
		c-4.545-11.739-6.871-17.829-6.981-18.275c-1.221-7.094,1.159-15.016,7.139-23.764c-2.105,6.759-1.607,14.125,1.492,22.099
		c1.665,4.43,4.269,10.961,7.813,19.595l5.819,0.172c-0.78-4.095-2.442-8.967-4.987-14.615c-3.098-6.649-4.979-11.081-5.638-13.296
		c-3.221-10.408-0.618-21.759,7.807-34.052c-2.886,9.188-1.562,20.097,3.973,32.726c6.32,14.178,9.255,24.201,8.805,30.07
		c16.507,1.885,30.243,6.371,41.206,13.46c11.073,7.2,16.885,15.506,17.435,24.918C287.858,119.649,292.458,123.246,295.343,129.115
		z M278.064,155.031c0,0.005,0,0.011,0,0.017c-0.34,1.554-1.06,3.876-2.16,6.965c1.995-0.33,3.876-1.107,5.64-2.332
		c-0.006-0.017-0.015-0.031-0.031-0.048c-0.88-1.424-2.026-2.955-3.439-4.594L278.064,155.031z M283.876,163.999
		c-3.318,1.995-6.696,3.048-10.13,3.158c-0.539,1.172-1.101,2.316-1.681,3.431l-0.024,0.056c-0.025,0.048-0.052,0.097-0.078,0.149
		c-12.067,22.826-33.845,34.24-65.332,34.24c-20.928,0-37.649-5.204-50.168-15.612c-10.193-8.418-17.282-19.992-21.267-34.721
		l-0.165,0.174c-5.759,6.974-8.639,14.335-8.639,22.084c0,13.513,7.807,25.033,23.419,34.563
		c15.617,9.517,34.502,14.275,56.654,14.275c22.146,0,41.083-4.759,56.811-14.275c15.618-9.53,23.427-21.051,23.427-34.563
		C286.703,172.638,285.761,168.319,283.876,163.999z M98.128,178.771c0.286,0.139,0.568,0.283,0.848,0.433
		c2.219,1.182,4.237,2.678,6.056,4.492c4.743,4.89,8.829,10.69,12.258,17.403c1.964,4.234,3.131,8.688,3.503,13.358
		c0.507,5.471-0.953,9.997-4.382,13.577c-1.822,1.823-4.014,3.174-6.573,4.054c-2.697,0.801-5.323,0.944-7.877,0.432
		c-1.002-0.194-1.997-0.472-2.984-0.832c-3.472-1.273-6.856-3.584-10.154-6.936c-7.66-8.397-12.367-17.083-14.12-26.057
		c-0.948-5.985,0-10.946,2.843-14.883c1.099-1.393,2.414-2.309,3.942-2.749c1.68-0.508,3.251-0.361,4.711,0.44
		c3.649,1.974,7.115,5.439,10.398,10.397c0.469,0.709,1.263,2.056,2.379,4.041c1.313,2.333,3.071,5.55,5.277,9.647
		c3.069,5.69,4.969,10.361,5.702,14.011c0.582,2.774,0.472,4.232-0.33,4.374c-0.581,0.146-1.532-0.873-2.851-3.063
		c-1.021-1.681-3.282-5.765-6.785-12.251c-0.337-0.616-0.675-1.227-1.013-1.83c-3.556-6.347-7.231-12.051-11.026-17.112
		c-1.827-2.268-3.104-3.654-3.832-4.162c-0.66-0.362-1.207-0.508-1.641-0.44c-0.44,0.152-0.951,0.552-1.532,1.201
		c-2.267,2.849-3.033,6.721-2.301,11.615c1.461,8.241,5.694,16.302,12.699,24.182c2.546,2.699,5.09,4.661,7.634,5.886
		c1.176,0.568,2.352,0.977,3.526,1.229c2.047,0.445,4.131,0.374,6.251-0.212c2.11-0.582,3.896-1.603,5.356-3.063
		c2.848-2.775,4.162-6.498,3.942-11.168c-0.146-3.723-1.169-7.628-3.07-11.718c-3.283-6.926-7.11-12.8-11.482-17.622
		c-1.514-1.622-3.021-2.973-4.523-4.049c-2.414-1.729-4.811-2.751-7.193-3.066c-1.314-0.22-2.592-0.293-3.833-0.22l-1.429,0.118
		c0-0.152,0.44-0.411,1.319-0.777c1.094-0.361,2.409-0.507,3.943-0.433C93.751,177.167,95.866,177.752,98.128,178.771z
		 M81.487,129.625c0.298-0.879,0.919-0.701,1.861,0.534c1.021,1.173,1.314,2.891,0.88,5.152c-0.806,4.744-3.325,9.743-7.556,15
		c-4.304,5.325-9.23,9.338-14.78,12.04c-5.251,2.628-10.869,4.013-16.854,4.154l1.641,0.55c4.523,1.46,10.145,1.134,16.862-0.981
		c7.293-2.408,12.801-6.131,16.523-11.168c3.362-4.382,5.226-9.49,5.592-15.321c-0.367-4.891-0.406-7.302-0.119-7.234
		c0.079-0.22,0.663,2.154,1.751,7.124c0.367,6.125-1.238,11.816-4.813,17.073c-3.943,5.984-9.817,10.363-17.624,13.138
		c-7.371,2.629-13.832,3.104-19.382,1.422c-2.55-0.801-4.225-1.824-5.027-3.07c-0.732-1.021-0.771-1.712-0.117-2.073l0.117-0.11
		c0.362-0.22,0.907-0.291,1.634-0.211c7.225-0.733,13.429-2.6,18.613-5.601c4.889-2.623,9.34-6.526,13.35-11.709
		c3.796-4.959,6.023-9.446,6.684-13.461c0.146-1.021,0.256-2.259,0.329-3.715C81.054,130.57,81.199,130.06,81.487,129.625z
		 M79.084,127.976l-1.751-0.439c-1.534-0.362-3.105-0.508-4.712-0.44c-4.304,0.22-9.191,1.938-14.662,5.152
		c-5.623,3.21-10.44,7.333-14.45,12.369c-4.382,5.471-6.137,10.141-5.263,14.011l0.221,0.77l0.66-1.319
		c1.968-3.282,5.07-6.82,9.306-10.609c4.01-3.655,8.243-6.831,12.699-9.527c3.938-2.487,7.806-4.495,11.607-6.023
		c3.282-1.387,5.034-1.898,5.254-1.532c0.141,0.288-1.246,1.453-4.163,3.495c-4.816,3.362-8.246,5.846-10.288,7.453
		c-3.943,2.989-7.702,6.309-11.278,9.958c-3.722,3.802-6.423,7.087-8.104,9.856c-1.387,2.329-2.775,3.316-4.162,2.96l-0.103,0.212
		c-0.293,0.44-0.914,0.33-1.861-0.33c-1.167-0.729-2.115-2.259-2.843-4.594c-0.953-5.402,0.798-10.986,5.253-16.752
		c4.011-5.256,9.082-9.309,15.212-12.157c6.933-3.282,12.587-4.814,16.964-4.594C75.542,125.968,77.696,126.662,79.084,127.976z
		 M146.497,133.771c0.052-0.068,0.103-0.133,0.149-0.196c2.833,4.063,8.124,7.699,15.873,10.909
		c12.209,5.063,26.952,7.594,44.229,7.594c17.272,0,32.014-2.531,44.223-7.594c7.718-3.204,12.998-6.825,15.841-10.862
		c0.042,0.047,0.081,0.097,0.117,0.149c3.544-4.653,5.316-9.363,5.316-14.127c0-8.304-4.762-15.668-14.284-22.092
		c-9.415-6.423-21.375-10.575-35.883-12.455c-1.194,4.864-3.833,9.958-7.916,15.283c-1.221,1.586-2.566,3.191-4.036,4.813
		c0.597-1.654,1.122-3.29,1.577-4.908c1.524-5.54,2.158-10.88,1.901-16.021l-5.481-0.165c0.376,5.277-1.092,10.659-4.406,16.146
		c-1.56,2.565-3.525,5.158-5.897,7.775c0.937-2.634,1.636-5.191,2.097-7.674c1.067-5.764,0.866-11.125-0.604-16.083
		c-16.388,0.999-30.115,4.877-41.184,11.63c-11.304,6.754-16.955,14.67-16.955,23.749
		C141.173,124.408,142.947,129.118,146.497,133.771z M151.146,172.646c12.623,14.393,31.117,21.588,55.484,21.588
		c24.476,0,43.025-7.195,55.648-21.588c9.744-10.97,15.616-25.644,17.615-44.026c-3.77,9.194-12.411,16.78-25.924,22.76
		c-13.728,6.088-29.507,9.133-47.34,9.133c-17.723,0-33.45-3.045-47.184-9.133c-13.508-5.979-22.146-13.566-25.916-22.76
		C135.526,147.002,141.397,161.677,151.146,172.646z M15.086,192.056c2.752-1.941,5.875-3.633,9.37-5.077
		c6.717-2.701,13.178-3.833,19.381-3.393c6.131,0.513,10.619,2.447,13.462,5.803c0.58,0.588,0.361,1.134-0.66,1.642
		c-9.854,4.085-18.209,7.588-25.068,10.509c-7.994,3.422-13.489,5.964-16.484,7.625c-1.927,1.068-2.819,1.772-2.678,2.113
		c0.104,0.254,0.996,0.148,2.678-0.314c3.207-0.887,9.283-3.077,18.229-6.574c7.083-2.7,15.478-5.983,25.185-9.848
		c0.514-0.22,0.877-0.148,1.092,0.212l0.228,0.762c0.362,4.383-1.466,8.872-5.481,13.469c-4.152,4.749-9.587,8.469-16.304,11.159
		c-7.67,3.143-14.858,4.202-21.565,3.181c-0.472-0.07-0.934-0.15-1.382-0.239c-5.996-1.182-9.841-3.91-11.537-8.187
		c-1.827-4.523-0.696-9.523,3.393-15C9.148,196.943,11.863,194.329,15.086,192.056z"/>
	<path fill-rule="evenodd" clip-rule="evenodd" fill="#F7F1D8" d="M283.876,163.999c1.885,4.32,2.827,8.639,2.827,12.959
		c0,13.513-7.809,25.033-23.427,34.563c-15.728,9.517-34.664,14.275-56.811,14.275c-22.152,0-41.037-4.759-56.654-14.275
		c-15.613-9.53-23.419-21.051-23.419-34.563c0-7.749,2.88-15.11,8.639-22.084l0.165-0.174c3.984,14.729,11.073,26.303,21.267,34.721
		c12.519,10.408,29.24,15.612,50.168,15.612c31.487,0,53.265-11.414,65.332-34.24c0.026-0.053,0.053-0.102,0.078-0.149l0.024-0.056
		c0.58-1.114,1.142-2.259,1.681-3.431C277.18,167.047,280.558,165.994,283.876,163.999z M278.064,155.031l0.009,0.008
		c1.413,1.639,2.56,3.17,3.439,4.594c0.017,0.017,0.025,0.031,0.031,0.048c-1.764,1.225-3.645,2.002-5.64,2.332
		c1.101-3.089,1.82-5.411,2.16-6.965C278.064,155.042,278.064,155.036,278.064,155.031z M146.497,133.771
		c-3.55-4.653-5.324-9.363-5.324-14.127c0-9.079,5.651-16.995,16.955-23.749c11.068-6.753,24.796-10.631,41.184-11.63
		c1.471,4.958,1.672,10.319,0.604,16.083c-0.461,2.482-1.16,5.04-2.097,7.674c2.372-2.618,4.338-5.21,5.897-7.775
		c3.314-5.487,4.782-10.869,4.406-16.146l5.481,0.165c0.257,5.141-0.377,10.481-1.901,16.021c-0.455,1.618-0.98,3.254-1.577,4.908
		c1.47-1.623,2.815-3.228,4.036-4.813c4.083-5.325,6.722-10.419,7.916-15.283c14.508,1.88,26.468,6.031,35.883,12.455
		c9.522,6.424,14.284,13.788,14.284,22.092c0,4.765-1.772,9.474-5.316,14.127c-0.036-0.052-0.075-0.102-0.117-0.149
		c-5.105-6.355-12.985-11.455-23.64-15.299c-11.072-3.994-23.253-5.992-36.541-5.992s-25.417,1.998-36.385,5.992
		c-10.634,3.834-18.5,8.917-23.6,15.252C146.6,133.638,146.549,133.703,146.497,133.771z M151.146,172.646
		c-9.749-10.97-15.621-25.644-17.615-44.026c3.77,9.194,12.408,16.78,25.916,22.76c13.733,6.088,29.461,9.133,47.184,9.133
		c17.833,0,33.612-3.045,47.34-9.133c13.513-5.979,22.154-13.566,25.924-22.76c-1.999,18.382-7.871,33.057-17.615,44.026
		c-12.623,14.393-31.173,21.588-55.648,21.588C182.264,194.234,163.77,187.039,151.146,172.646z"/>
	<path fill-rule="evenodd" clip-rule="evenodd" fill="#571B19" d="M170.246,118.323c10.968-3.994,23.097-5.992,36.385-5.992
		s25.469,1.998,36.541,5.992c10.654,3.844,18.534,8.943,23.64,15.299c-2.843,4.037-8.123,7.658-15.841,10.862
		c-12.209,5.063-26.95,7.594-44.223,7.594c-17.277,0-32.021-2.531-44.229-7.594c-7.749-3.21-13.04-6.847-15.873-10.909
		C151.746,127.24,159.612,122.157,170.246,118.323z"/>
</g>
</svg>
