<?xml version="1.0" encoding="utf-8"?>
<!-- Generator: Adobe Illustrator 16.0.0, SVG Export Plug-In . SVG Version: 6.00 Build 0)  -->
<!DOCTYPE svg PUBLIC "-//W3C//DTD SVG 1.1//EN" "http://www.w3.org/Graphics/SVG/1.1/DTD/svg11.dtd">
<svg version="1.1" id="Layer_1" xmlns="http://www.w3.org/2000/svg" xmlns:xlink="http://www.w3.org/1999/xlink" x="0px" y="0px"
	 width="300px" height="300px" viewBox="0 0 300 300" enable-background="new 0 0 300 300" xml:space="preserve">
<g>
	<path fill-rule="evenodd" clip-rule="evenodd" fill="#AA1D47" d="M190.618,109.285c-0.069,0.438-0.179,0.865-0.329,1.282
		c-0.978,2.646-3.695,4.953-8.153,6.922c-2.673,1.422-6.146,2.708-10.42,3.856c-8.006,2.038-17.284,3.056-27.834,3.056
		c-12.347,0-23.071-1.416-32.172-4.246c-7.986-2.749-12.662-5.944-14.03-9.589c-0.164-0.424-0.28-0.852-0.349-1.282
		c0,0.411-0.01,0.837-0.031,1.282c-0.062,1.203-0.205,2.526-0.431,3.969c-0.369,2.03-0.95,4.273-1.744,6.728
		c-0.615,2.646-2.369,7.901-5.261,15.764c-8.048,21.448-7.956,39.639,0.277,54.572c1.846,3.5,4.088,6.634,6.728,9.403
		c8.978,9.771,22.251,15.271,39.824,16.502v-0.103c1.415,0.103,4.003,0.226,7.763,0.369l-0.021,0.01
		c25.01-0.185,42.402-8.234,52.172-24.152c9.407-15.302,9.9-34.169,1.477-56.602c-4.745-12.43-7.231-21.25-7.456-26.46
		C190.608,110.109,190.604,109.683,190.618,109.285z M219.375,120.802c2.646,3.138,4.983,6.581,7.016,10.328
		c1.654,3.255,3.097,6.755,4.327,10.502c-1.477,0.123-2.919,0.215-4.327,0.277c-8.301,0.308-15.401-0.828-21.302-3.405
		l-3.866-10.604C207.861,126.915,213.912,124.55,219.375,120.802z M208.688,54.899l1.753-3.693
		c7.74,2.77,13.944,7.532,18.615,14.287c4.793,6.824,7.188,14.382,7.188,22.676c0,8.533-2.187,16-6.563,22.399
		c-0.991,1.436-2.089,2.82-3.291,4.154c-1.415,1.415-2.955,2.796-4.615,4.144c1.722-1.778,3.262-3.621,4.615-5.529
		c0.601-0.909,1.162-1.832,1.682-2.769c3.18-5.757,4.769-12.146,4.769-19.168c0-8.054-2.241-15.459-6.728-22.214
		C221.744,62.731,215.937,57.968,208.688,54.899z M269.896,5.394c0.8,2.093,0.615,3.597-0.554,4.513l-55.126,24.153l-21.384,54.663
		l13.733-29.034c3.193,1.169,5.99,2.612,8.39,4.329c2.461,1.968,3.384,3.537,2.769,4.707L203.438,82.64l15.661-13.271
		c4.491,5.347,7.227,11.398,8.203,18.153c0,0.308-0.396,0.708-1.188,1.2c-0.801,0.616-1.538,1.046-2.216,1.292
		c2.456,0.923,3.683,1.6,3.683,2.031c0,5.408-1.135,10.386-3.406,14.933c-0.648,1.23-1.384,2.427-2.204,3.589
		c-0.73,1.039-1.535,2.054-2.41,3.046c-5.162,5.777-11.675,9.22-19.538,10.327c-1.354-4.533-2.402-8.99-3.147-13.373
		c-0.205-1.204-0.387-2.4-0.544-3.589c-0.122-1.231-0.277-2.431-0.462-3.601c-0.424-6.57-0.27-10.84,0.462-12.809h-4.513
		c-2.885,3.316-8.478,6.02-16.778,8.112c-8.171,2.031-17.571,3.046-28.203,3.046h-4.154c-14.563-1.108-25.072-2.769-31.526-4.984
		c8.669-3.132,19.578-4.697,32.726-4.697c5.778,0,11.217,0.338,16.318,1.015h0.646l-0.185-4.522c0-4.116,0.708-8.078,2.123-11.887
		c0.8-0.861,2.09-0.8,3.867,0.185c10.509,5.039,15.855,7.282,16.039,6.728l-8.758-4.697c-6.264-3.262-9.486-5.046-9.671-5.354
		l2.943-4.604c1.229-1.6,3.381-3.72,6.45-6.359c1.477-1.108,3.108-0.77,4.893,1.015c-0.984-2.277-1.077-3.569-0.277-3.877
		c4.671-2.393,9.985-3.439,15.948-3.138l3.128,0.277l1.938-4.605l-6.082-0.461c-9.77,0-18.22,3.043-25.352,9.128
		c-5.777,5.839-9.312,12.936-10.604,21.291c-3.5-2.208-6.478-4.789-8.933-7.743l-1.476-2.215h-2.955
		c-13.147,0-24.483,1.539-34.008,4.615c-9.469,3.07-14.205,6.693-14.205,10.871c0,2.154,1.601,4.338,4.8,6.554
		c5.163,3.87,14.164,6.42,27.004,7.65c9.585,0.978,18.436,1.251,26.552,0.821c9.216-0.178,17.544-1.22,24.982-3.128
		c7.248-1.908,12.472-4.243,15.672-7.005c-0.493,4.485-0.431,9.278,0.184,14.379c0.144,1.183,0.321,2.379,0.533,3.589
		c0.902,5.36,2.383,11.045,4.44,17.055c1.108,3.077,2.675,7.504,4.698,13.281c1.783,4.978,3.169,9.432,4.153,13.364
		c2.639,10.263,3.377,19.418,2.216,27.465c-1.601,9.832-6.058,18.775-13.374,26.829c-8.663,9.463-20.337,15.76-35.024,18.892
		c0,4.424-3.688,7.62-11.065,9.589l-0.276,7.559c0,3.254,0.522,6.635,1.569,10.144c0.677,2.454,1.6,4.942,2.769,7.467
		c2.454,5.469,4.235,8.204,5.343,8.204c-3.008-5.102-5.097-10.324-6.267-15.671c-0.123-0.308-0.184-0.647-0.184-1.016h0.184
		l0.738,0.277h1.201l2.204,0.461h1.2l2.861,0.738h1.2l6.82,1.754l0.738,0.452l2.574,0.646l0.738,0.554l1.662,0.461l2.491,1.2
		l0.738,0.277l0.461,0.461l0.729,0.277l0.738,0.462l0.739,0.276l0.461,0.461l0.647,0.462l0.554,0.185l1.938,1.929l0.461,0.276
		l1.016,0.923l0.186,0.555l0.543,0.461l1.662,3.416v0.553l0.276,0.462v5.066c0,5.47-4.547,10.139-13.64,14.009
		c-8.972,3.81-19.849,5.713-32.635,5.713c-12.655,0-23.564-1.903-32.726-5.713c-9.094-3.87-13.64-8.539-13.64-14.009v-2.308
		c1.292,4.915,6.3,9.035,15.025,12.357c8.669,3.255,18.901,4.882,30.695,4.882c9.832,0,18.713-1.199,26.644-3.6
		c7.741-2.332,13.18-5.401,16.317-9.209c-3.691,3.192-9.131,5.773-16.317,7.742c-7.623,2.086-15.858,3.128-24.706,3.128
		c-12.779,0-23.595-1.873-32.449-5.62c-8.971-3.807-13.456-8.385-13.456-13.731c0-2.77,2.089-5.566,6.266-8.39l0.739-0.276
		l0.461-0.462l0.738-0.277l0.738-0.461l0.739-0.277l2.205-1.2l1.569-0.461l0.831-0.554l2.584-0.646l1.016-0.452l6.728-1.754h1.015
		l3.128-0.738h0.923l2.215-0.461h1.2l1.2-0.277h1.928c0.492-1.907,0.892-4.95,1.2-9.128c0-2.496-0.223-4.67-0.667-6.523
		c-0.109-0.423-0.226-0.829-0.349-1.22c-6.447-1.969-9.886-4.888-10.318-8.759c4.055,0.985,8.878,1.632,14.472,1.938
		c6.023,0.246,9.892-0.122,11.609-1.107c-8.048,0.985-16.741,0.493-26.081-1.477c-11.308-2.332-20.805-6.54-28.49-12.625
		c-2.455-1.908-4.697-3.996-6.728-6.267c-9.709-10.632-14.256-23.106-13.64-37.423c0.369-9.162,3.535-21.914,9.497-38.255
		c3.794-10.651,6.18-18.091,7.158-22.316c0.082-0.356,0.154-0.69,0.215-1.005c1.169-6.639,0.493-12.847-2.031-18.624l-0.277-0.37
		v-0.37l-0.277-0.184v-0.37l-0.184-0.184V89l-0.277-0.461v-1.016c0-5.162,5.224-9.586,15.671-13.271
		c10.508-3.686,23.137-5.528,37.884-5.528h1.016c-1.293-2.954-2.489-7.254-3.59-12.901c-1.292-6.578-2.338-11.098-3.138-13.559
		c5.961,1.293,10.632,2.769,14.009,4.431c4.547,2.208,8.816,5.495,12.81,9.856c-0.301-1.286-1.528-2.974-3.682-5.066
		c-1.723-2.086-3.474-3.682-5.251-4.79c1.593-14.317,8.259-28.576,19.999-42.777c0.186,4.301,3.258,11.401,9.22,21.302
		c6.085,10.139,9.405,17.94,9.959,23.403h1.097c1.969,0,3.354,0.062,4.153,0.185l7.744-20.46l58.16-25.445
		C267.741,2.594,268.911,3.425,269.896,5.394z"/>
	<path fill-rule="evenodd" clip-rule="evenodd" fill="#DB285B" d="M189.89,135.458c0.861,2.387,1.873,4.998,3.036,7.835
		c7.986,18.871,7.524,34.757-1.385,47.659c-0.526,0.773-1.077,1.525-1.651,2.256c-0.603,0.76-1.228,1.494-1.877,2.206
		c-8.661,9.466-21.913,14.631-39.751,15.496l-1.794,0.133c-0.923,0-1.846,0-2.77,0l-5.743-0.276h-1.446
		c-0.841-0.055-1.672-0.116-2.492-0.185l-0.062-0.01h0.031c-16.833-1.512-29.205-7.128-37.116-16.851
		c-1.162-1.415-2.236-2.923-3.22-4.523c-7.562-12.532-7.716-27.834-0.462-45.905c1.593-3.623,2.82-6.512,3.682-8.666
		c0.739-1.901,1.23-3.252,1.477-4.051c1.415-4.116,2.061-7.59,1.938-10.42c0.616,3.508,5.039,6.581,13.271,9.22
		c5.114,1.443,10.83,2.441,17.147,2.995c3.945,0.342,8.123,0.512,12.533,0.512c10.044,0,18.608-0.844,25.69-2.533l11.118-3.928
		l-1.313,0.646c4.547-2.085,7.035-4.389,7.466-6.913c-0.061,2.038,0.44,4.913,1.509,8.625
		C188.272,130.764,189.001,132.99,189.89,135.458z"/>
</g>
</svg>
