<?xml version="1.0" encoding="utf-8"?>
<!-- Generator: Adobe Illustrator 16.0.0, SVG Export Plug-In . SVG Version: 6.00 Build 0)  -->
<!DOCTYPE svg PUBLIC "-//W3C//DTD SVG 1.1//EN" "http://www.w3.org/Graphics/SVG/1.1/DTD/svg11.dtd">
<svg version="1.1" id="Layer_1" xmlns="http://www.w3.org/2000/svg" xmlns:xlink="http://www.w3.org/1999/xlink" x="0px" y="0px"
	 width="300px" height="300px" viewBox="0 0 300 300" enable-background="new 0 0 300 300" xml:space="preserve">
<g>
	<path fill-rule="evenodd" clip-rule="evenodd" fill="#FFF3A5" d="M93.995,144.953c0.875-0.883,1.907-1.324,3.096-1.324
		c1.189,0,2.195,0.441,3.016,1.324c0.875,0.807,1.312,1.807,1.312,3.005c0,1.189-0.437,2.221-1.312,3.096
		c-0.821,0.882-1.827,1.325-3.016,1.325c-1.189,0-2.221-0.443-3.096-1.325c-0.882-0.813-1.324-1.846-1.324-3.096
		C92.671,146.76,93.113,145.76,93.995,144.953z M76.682,159.618c1.627,0,3.005,0.563,4.134,1.692
		c0.675,0.714,1.15,1.489,1.426,2.325c0.184,0.575,0.277,1.183,0.277,1.818c0,1.627-0.568,3.008-1.703,4.145
		c-1.129,1.119-2.506,1.68-4.134,1.68c-1.634,0-3.012-0.561-4.132-1.68c-1.128-1.137-1.692-2.518-1.692-4.145
		c0-0.438,0.042-0.855,0.126-1.255c0.215-1.098,0.737-2.061,1.566-2.889C73.67,160.182,75.048,159.618,76.682,159.618z
		 M103.583,168.367c1.006,0,1.885,0.379,2.636,1.139c0.69,0.684,1.036,1.527,1.036,2.532c0,0.998-0.346,1.846-1.036,2.544
		c-0.751,0.744-1.63,1.117-2.636,1.117c-0.998,0-1.845-0.373-2.544-1.117c-0.683-0.698-1.024-1.546-1.024-2.544
		c0-1.005,0.342-1.849,1.024-2.532C101.738,168.746,102.586,168.367,103.583,168.367z M193.703,10.148
		c-0.876-0.943-1.313-2.041-1.313-3.292s0.437-2.348,1.313-3.292c0.944-0.875,2.041-1.313,3.291-1.313
		c1.251,0,2.351,0.438,3.293,1.313c0.883,0.943,1.324,2.041,1.324,3.292s-0.441,2.349-1.324,3.292
		c-0.942,0.882-2.042,1.324-3.293,1.324C195.744,11.472,194.647,11.031,193.703,10.148z M191.539,21.716
		c2.387,2.387,3.58,5.273,3.58,8.658c0,3.383-1.193,6.269-3.58,8.656c-2.379,2.378-5.264,3.568-8.656,3.568
		c-3.385,0-6.266-1.189-8.645-3.568c-2.388-2.387-3.58-5.272-3.58-8.656c0-3.385,1.192-6.271,3.58-8.658
		c2.379-2.378,5.26-3.568,8.645-3.568C186.275,18.148,189.16,19.338,191.539,21.716z M219.281,18.425
		c1.504,1.443,2.255,3.231,2.255,5.364c0,2.134-0.751,3.917-2.255,5.353c-1.443,1.512-3.228,2.267-5.354,2.267
		c-2.133,0-3.921-0.755-5.363-2.267c-1.505-1.436-2.257-3.219-2.257-5.353c0-2.133,0.752-3.921,2.257-5.364
		c1.442-1.504,3.23-2.256,5.363-2.256C216.054,16.169,217.838,16.92,219.281,18.425z M209.968,52.106
		c0-1.565,0.568-2.947,1.703-4.145c1.189-1.128,2.567-1.692,4.132-1.692c1.636,0,3.048,0.564,4.236,1.692
		c1.128,1.136,1.693,2.517,1.693,4.145c0,1.626-0.565,3.034-1.693,4.224c-1.188,1.128-2.601,1.692-4.236,1.692
		c-1.627,0-3.003-0.564-4.132-1.692C210.536,55.141,209.968,53.732,209.968,52.106z M193.795,77.131
		c-0.936,0.875-2.064,1.311-3.385,1.311c-1.259,0-2.354-0.437-3.292-1.311c-0.943-0.945-1.416-2.077-1.416-3.396
		c0-1.251,0.473-2.348,1.416-3.292c0.938-0.937,2.033-1.405,3.292-1.405c1.32,0,2.449,0.468,3.385,1.405
		c0.882,0.943,1.324,2.04,1.324,3.292C195.119,75.055,194.677,76.187,193.795,77.131z M208.092,98.944
		c1.066-1.121,2.383-1.681,3.948-1.681c1.564,0,2.886,0.56,3.959,1.681c1.129,1.067,1.692,2.387,1.692,3.96
		c0,1.565-0.563,2.882-1.692,3.948c-1.073,1.128-2.395,1.692-3.959,1.692c-1.565,0-2.882-0.564-3.948-1.692
		c-1.128-1.066-1.692-2.382-1.692-3.948C206.399,101.331,206.964,100.011,208.092,98.944z M180.432,120.205
		c1.442-1.504,3.198-2.256,5.271-2.256s3.861,0.752,5.365,2.256c0.859,0.859,1.465,1.835,1.818,2.923
		c0.229,0.73,0.346,1.512,0.346,2.349c0,2.064-0.723,3.85-2.164,5.354c-1.504,1.441-3.293,2.164-5.365,2.164
		s-3.828-0.722-5.271-2.164c-1.506-1.503-2.257-3.29-2.257-5.354c0-0.566,0.057-1.108,0.173-1.623
		C178.646,122.473,179.341,121.256,180.432,120.205z M225.208,133.936c0,1.321-0.438,2.449-1.312,3.385
		c-0.945,0.883-2.072,1.325-3.386,1.325c-1.259,0-2.354-0.442-3.291-1.325c-0.944-0.936-1.417-2.064-1.417-3.385
		c0-1.25,0.473-2.347,1.417-3.291c0.937-0.937,2.032-1.405,3.291-1.405c1.313,0,2.44,0.468,3.386,1.405
		C224.771,131.589,225.208,132.687,225.208,133.936z"/>
	<path fill-rule="evenodd" clip-rule="evenodd" fill="#BCE0C5" d="M93.995,144.953c-0.882,0.807-1.324,1.807-1.324,3.005
		c0,1.25,0.441,2.282,1.324,3.096c0.875,0.882,1.907,1.325,3.096,1.325c1.189,0,2.195-0.443,3.016-1.325
		c0.875-0.875,1.312-1.907,1.312-3.096c0-1.198-0.437-2.198-1.312-3.005c-0.821-0.883-1.827-1.324-3.016-1.324
		C95.902,143.629,94.87,144.07,93.995,144.953z M127.389,105.782c0-3.384,7.336-6.266,22.01-8.646
		c14.672-2.385,32.418-3.58,53.236-3.58c20.819,0,38.57,1.194,53.249,3.58c14.665,2.38,21.998,5.261,21.998,8.646
		c0,3.392-7.333,6.277-21.998,8.656c-14.679,2.387-32.43,3.58-53.249,3.58c-20.818,0-38.564-1.193-53.236-3.58
		C134.725,112.059,127.389,109.173,127.389,105.782z M131.049,143.607c11.349,1.818,17.024,4.044,17.024,6.676
		c0,2.57-5.675,4.796-17.024,6.676c-11.413,1.819-25.175,2.729-41.291,2.729c-16.053,0-29.786-0.909-41.197-2.729
		c-11.419-1.88-17.128-4.105-17.128-6.676c0-2.632,5.709-4.858,17.128-6.676c11.342-1.881,25.075-2.82,41.197-2.82
		C105.875,140.787,119.637,141.726,131.049,143.607z M111.676,282.163c0-1.381-2.134-2.571-6.4-3.567
		c-4.267-1.005-9.439-1.51-15.517-1.51c-6.023,0-11.169,0.505-15.436,1.51c-4.26,0.996-6.39,2.187-6.39,3.567
		c0,1.443,2.13,2.668,6.39,3.672c4.266,1.006,9.412,1.508,15.436,1.508c6.016,0,11.189-0.502,15.517-1.508
		C109.542,284.831,111.676,283.606,111.676,282.163z M202.635,282.637c7.835,0,14.485-0.628,19.949-1.878
		c5.517-1.319,8.275-2.89,8.275-4.709c0-1.825-2.759-3.36-8.275-4.603c-5.526-1.32-12.175-1.98-19.949-1.98
		c-7.712,0-14.361,0.66-19.948,1.98c-5.51,1.242-8.264,2.777-8.264,4.603c0,1.819,2.754,3.39,8.264,4.709
		C188.212,282.009,194.862,282.637,202.635,282.637z M202.635,188.845c0.69,0,1.32-0.009,1.889-0.023v79.713
		c14.802,0.092,27.499,1.374,38.09,3.845c10.974,2.571,16.46,5.676,16.46,9.312c0,3.639-5.486,6.742-16.46,9.313
		c-11.036,2.569-24.361,3.855-39.979,3.855c-15.608,0-28.903-1.286-39.886-3.855c-11.034-2.571-16.552-5.675-16.552-9.313
		c0-3.636,5.518-6.74,16.552-9.312c10.138-2.363,22.179-3.64,36.123-3.833v-79.862C199.792,188.79,201.047,188.845,202.635,188.845z
		 M208.092,98.944c-1.128,1.067-1.692,2.387-1.692,3.96c0,1.565,0.564,2.882,1.692,3.948c1.066,1.128,2.383,1.692,3.948,1.692
		c1.564,0,2.886-0.564,3.959-1.692c1.129-1.066,1.692-2.382,1.692-3.948c0-1.573-0.563-2.893-1.692-3.96
		c-1.073-1.121-2.395-1.681-3.959-1.681C210.475,97.263,209.158,97.823,208.092,98.944z M86.847,214.41
		c0.699,0.077,1.669,0.115,2.912,0.115c0.553,0,1.055-0.004,1.508-0.011v61.824c11.457,0.084,21.272,1.086,29.445,3.005
		c8.518,2.002,12.777,4.416,12.777,7.24c0,2.823-4.259,5.236-12.777,7.239c-8.533,1.949-18.851,2.925-30.953,2.925
		c-12.102,0-22.419-0.976-30.953-2.925c-8.526-2.003-12.789-4.416-12.789-7.239c0-2.824,4.263-5.238,12.789-7.24
		c7.835-1.842,17.182-2.836,28.041-2.981V214.41z"/>
	<path fill-rule="evenodd" clip-rule="evenodd" fill="#E1D352" d="M148.212,134.674c2.509,1.489,7.355,2.805,14.537,3.948
		c11.044,1.819,24.339,2.729,39.886,2.729c15.617,0,28.942-0.91,39.979-2.729c7.129-1.143,11.945-2.456,14.445-3.938
		c-0.168,0.708-0.791,1.383-1.865,2.027c-0.113,0.759-0.771,1.484-1.967,2.176c-0.132,0.721-0.791,1.416-1.98,2.083
		c-0.139,0.713-0.791,1.396-1.957,2.049c-0.084,0.729-0.71,1.419-1.876,2.072c-0.039,0.75-0.698,1.465-1.98,2.141
		c-0.022,0.752-0.679,1.458-1.968,2.117c0,0.737-0.66,1.435-1.981,2.095c-0.014,0.699-0.644,1.361-1.886,1.992
		c0,0.045,0,0.092,0,0.138c0,0.698-0.661,1.358-1.98,1.979c0.009,0.062,0.011,0.123,0.011,0.185c0,0.69-0.666,1.335-2.002,1.934
		c0.023,0.069,0.033,0.146,0.033,0.229c0,0.661-0.674,1.282-2.025,1.866c0.03,0.093,0.046,0.191,0.046,0.3
		c0,0.643-0.671,1.245-2.013,1.805c0.021,0.086,0.033,0.169,0.033,0.255c0,0.637-0.656,1.232-1.968,1.784
		c0.061,0.123,0.091,0.248,0.091,0.379c0,0.653-0.693,1.244-2.082,1.771c0.069,0.133,0.103,0.263,0.103,0.393
		c0,0.614-0.709,1.183-2.129,1.704c0.1,0.145,0.149,0.3,0.149,0.461c0,0.606-0.709,1.15-2.13,1.634
		c0.108,0.139,0.162,0.284,0.162,0.438c0,0.599-0.723,1.129-2.164,1.589c0.191,0.185,0.288,0.376,0.288,0.576
		c0,0.566-0.78,1.082-2.338,1.542c0.239,0.19,0.356,0.398,0.356,0.621c0,0.568-0.836,1.066-2.508,1.496
		c0.353,0.208,0.528,0.431,0.528,0.669c0,0.529-0.886,1.004-2.659,1.428c0.461,0.229,0.691,0.475,0.691,0.734
		c0,0.477-0.959,0.914-2.879,1.314c0.66,0.236,0.991,0.49,0.991,0.758c0,0.5-1.128,0.937-3.385,1.313
		c-0.047,0.008-0.092,0.015-0.138,0.022c1.027,0.224,1.542,0.499,1.542,0.829c0,0.438-0.94,0.813-2.82,1.128
		c-0.437,0.068-0.894,0.135-1.369,0.195c1.479,0.246,2.221,0.526,2.221,0.841c0,0.315-0.751,0.595-2.255,0.84
		c-1.266,0.223-2.794,0.349-4.582,0.381c3.246,0.045,4.869,0.359,4.869,0.943c0,0.516-1.254,0.817-3.764,0.909
		c-0.568,0.015-1.198,0.023-1.889,0.023c-1.588,0-2.843-0.055-3.763-0.161c-1.251-0.154-1.878-0.411-1.878-0.771
		c0-0.584,1.627-0.898,4.881-0.943c-1.749-0.032-3.28-0.158-4.593-0.381c-1.511-0.245-2.268-0.524-2.268-0.84
		c0-0.314,0.753-0.599,2.257-0.853c-0.46-0.053-0.898-0.115-1.313-0.184c-1.88-0.315-2.818-0.69-2.818-1.128
		c0-0.33,0.518-0.605,1.553-0.829c-0.045-0.008-0.097-0.015-0.149-0.022c-2.257-0.377-3.384-0.813-3.384-1.313
		c0-0.268,0.318-0.518,0.955-0.747c-1.956-0.398-2.936-0.84-2.936-1.325c0-0.26,0.23-0.505,0.69-0.734
		c-1.772-0.424-2.658-0.898-2.658-1.428c0-0.245,0.188-0.477,0.563-0.691c-1.635-0.414-2.452-0.905-2.452-1.474
		c0-0.223,0.123-0.431,0.369-0.621c-1.558-0.46-2.337-0.976-2.337-1.542c0-0.192,0.092-0.377,0.275-0.552
		c-1.494-0.47-2.244-1.006-2.244-1.613c0-0.153,0.053-0.303,0.162-0.449c-1.428-0.483-2.142-1.024-2.142-1.622
		c0-0.17,0.066-0.33,0.196-0.483c-1.389-0.514-2.084-1.074-2.084-1.682c0-0.13,0.038-0.26,0.114-0.393
		c-1.388-0.535-2.083-1.126-2.083-1.771c0-0.114,0.028-0.229,0.081-0.345c-1.374-0.561-2.061-1.167-2.061-1.818
		c0-0.086,0.015-0.169,0.046-0.255c-1.351-0.56-2.026-1.162-2.026-1.805c0-0.108,0.021-0.207,0.058-0.3
		c-1.357-0.584-2.037-1.205-2.037-1.866c0-0.091,0.016-0.184,0.046-0.275c-1.273-0.584-1.91-1.213-1.91-1.888
		c0-0.062,0.004-0.123,0.011-0.185c-1.328-0.621-1.99-1.281-1.99-1.979c0-0.03,0.003-0.062,0.01-0.093
		c-1.311-0.637-1.975-1.315-1.991-2.037c-1.311-0.66-1.968-1.358-1.968-2.095c0-0.023,0-0.039,0-0.045
		c-1.228-0.645-1.856-1.336-1.888-2.072c-1.251-0.662-1.907-1.355-1.969-2.084c-1.234-0.676-1.896-1.389-1.979-2.141
		c-1.189-0.66-1.842-1.355-1.957-2.084c-1.128-0.652-1.753-1.331-1.877-2.037c-1.173-0.675-1.829-1.385-1.968-2.131
		C149.044,136.098,148.388,135.402,148.212,134.674z M55.157,180.718c-0.967-0.521-1.469-1.074-1.508-1.658
		c-0.906-0.499-1.408-1.024-1.508-1.576c-0.898-0.499-1.393-1.029-1.485-1.59c-0.981-0.543-1.52-1.116-1.611-1.714
		c-0.852-0.499-1.347-1.018-1.485-1.554c1.934,1.136,5.683,2.151,11.246,3.049c8.595,1.382,18.912,2.072,30.953,2.072
		s22.358-0.69,30.953-2.072c5.563-0.897,9.313-1.913,11.247-3.049c-0.139,0.545-0.633,1.066-1.485,1.565
		c-0.1,0.567-0.603,1.116-1.508,1.646c-0.077,0.585-0.579,1.132-1.508,1.646c-0.093,0.545-0.587,1.066-1.485,1.565
		c-0.039,0.59-0.544,1.147-1.52,1.669c-0.068,0.545-0.563,1.066-1.484,1.564c-0.016,0.607-0.548,1.179-1.601,1.716
		c-0.022,0.568-0.526,1.097-1.507,1.588c-0.023,0.561-0.526,1.088-1.509,1.577c0,0.032,0,0.059,0,0.082
		c0,0.537-0.507,1.047-1.52,1.531c0.008,0.053,0.012,0.11,0.012,0.172c0,0.545-0.503,1.051-1.509,1.519c0,0.023,0,0.05,0,0.081
		c0,0.539-0.506,1.036-1.519,1.496c0.015,0.062,0.023,0.127,0.023,0.194c0,0.501-0.518,0.977-1.554,1.429
		c0.03,0.085,0.046,0.173,0.046,0.266c0,0.484-0.518,0.933-1.554,1.347c0.03,0.085,0.045,0.17,0.045,0.254
		c0,0.505-0.525,0.966-1.577,1.38c0.054,0.107,0.081,0.212,0.081,0.312c0,0.469-0.549,0.901-1.646,1.3
		c0.092,0.123,0.139,0.25,0.139,0.382c0,0.468-0.576,0.893-1.727,1.276c0.083,0.115,0.126,0.228,0.126,0.333
		c0,0.455-0.572,0.867-1.715,1.245c0.138,0.144,0.207,0.294,0.207,0.447c0,0.445-0.606,0.841-1.819,1.188
		c0.208,0.16,0.311,0.329,0.311,0.505c0,0.431-0.63,0.803-1.888,1.118c0.253,0.152,0.38,0.313,0.38,0.481
		c0,0.438-0.691,0.817-2.072,1.141c0.383,0.177,0.575,0.361,0.575,0.553c0,0.422-0.748,0.782-2.245,1.081
		c0.492,0.177,0.737,0.38,0.737,0.61c0,0.353-0.775,0.679-2.325,0.979c0.545,0.169,0.817,0.377,0.817,0.622
		c0,0.314-0.721,0.599-2.164,0.852c-0.276,0.046-0.564,0.088-0.863,0.126c1.021,0.154,1.531,0.392,1.531,0.715
		c0,0.598-1.799,0.913-5.398,0.942c2.594,0.032,3.891,0.281,3.891,0.75c0,0.359-0.971,0.574-2.912,0.645
		c-0.453,0.007-0.956,0.011-1.508,0.011c-1.243,0-2.213-0.038-2.912-0.115c-0.944-0.107-1.416-0.287-1.416-0.54
		c0-0.469,1.27-0.718,3.81-0.75c-3.537-0.029-5.306-0.345-5.306-0.942c0-0.284,0.399-0.503,1.197-0.656
		c-1.803-0.192-2.706-0.537-2.706-1.036c0-0.245,0.257-0.449,0.771-0.609c-1.588-0.3-2.382-0.631-2.382-0.991
		c0-0.23,0.249-0.434,0.747-0.61c-1.496-0.299-2.245-0.659-2.245-1.081c0-0.191,0.192-0.376,0.576-0.553
		c-1.39-0.323-2.084-0.702-2.084-1.141c0-0.168,0.127-0.329,0.38-0.481c-1.258-0.315-1.888-0.688-1.888-1.118
		c0-0.185,0.112-0.356,0.334-0.518c-1.22-0.338-1.831-0.729-1.831-1.175c0-0.153,0.073-0.299,0.219-0.437
		c-1.151-0.385-1.727-0.801-1.727-1.256c0-0.123,0.046-0.241,0.138-0.355c-1.097-0.377-1.646-0.796-1.646-1.254
		c0-0.132,0.046-0.259,0.139-0.382c-1.09-0.398-1.635-0.831-1.635-1.3c0-0.1,0.027-0.204,0.081-0.312
		c-1.059-0.414-1.589-0.875-1.589-1.38c0-0.084,0.016-0.169,0.046-0.254c-1.036-0.414-1.554-0.862-1.554-1.347
		c0-0.084,0.011-0.162,0.035-0.23c-1.09-0.46-1.635-0.948-1.635-1.464c0-0.067,0.008-0.133,0.023-0.194
		c-1.021-0.46-1.531-0.957-1.531-1.496c0-0.031,0.003-0.058,0.011-0.081c-1.013-0.468-1.52-0.974-1.52-1.519
		c0-0.062,0.008-0.119,0.023-0.172c-1.021-0.484-1.531-0.994-1.531-1.531c0-0.023,0.004-0.054,0.012-0.093
		c-1.005-0.491-1.508-1.021-1.508-1.588v-0.022c-1.006-0.501-1.508-1.025-1.508-1.578c0-0.009,0-0.016,0-0.023
		c-0.998-0.522-1.501-1.074-1.508-1.658C55.721,181.784,55.226,181.263,55.157,180.718z M204.523,180.097l30.09-33.866L220,147.333
		L204.523,180.097z M114.588,181.604l-13.376,0.954l-9.944,25.29L114.588,181.604z"/>
	<path fill-rule="evenodd" clip-rule="evenodd" fill="#CE9F34" d="M146.197,132.131c0-2.51,5.518-4.674,16.552-6.493
		c4.768-0.76,9.965-1.353,15.599-1.784c-0.116,0.515-0.173,1.056-0.173,1.623c0,2.064,0.751,3.85,2.257,5.354
		c1.442,1.441,3.198,2.164,5.271,2.164s3.861-0.722,5.365-2.164c1.441-1.503,2.164-3.29,2.164-5.354
		c0-0.836-0.116-1.618-0.346-2.349c3.139-0.083,6.388-0.126,9.749-0.126c15.617,0,28.942,0.879,39.979,2.636
		c10.974,1.819,16.46,3.983,16.46,6.493c0,0.905-0.67,1.756-2.015,2.553c-2.5,1.482-7.316,2.794-14.445,3.938
		c-11.036,1.819-24.361,2.729-39.979,2.729c-15.547,0-28.842-0.91-39.886-2.729c-7.182-1.143-12.028-2.458-14.537-3.948
		C146.869,133.876,146.197,133.028,146.197,132.131z M70.858,165.454c0,1.627,0.564,3.008,1.692,4.145
		c1.12,1.119,2.498,1.68,4.132,1.68c1.627,0,3.005-0.561,4.134-1.68c1.135-1.137,1.703-2.518,1.703-4.145
		c0-0.636-0.093-1.243-0.277-1.818c2.425-0.063,4.931-0.093,7.517-0.093c12.102,0,22.42,0.69,30.953,2.072
		c8.518,1.443,12.777,3.135,12.777,5.076c0,0.009,0,0.016,0,0.022c-0.008,0.669-0.519,1.307-1.531,1.912
		c-1.934,1.136-5.683,2.151-11.247,3.049c-8.595,1.382-18.913,2.072-30.953,2.072s-22.358-0.69-30.953-2.072
		c-5.563-0.897-9.313-1.913-11.246-3.049c-0.875-0.522-1.377-1.063-1.508-1.623c0-0.016-0.004-0.036-0.012-0.059
		c-0.015-0.083-0.023-0.167-0.023-0.253c0-1.941,4.263-3.633,12.789-5.076c3.722-0.599,7.781-1.07,12.178-1.416
		C70.9,164.599,70.858,165.017,70.858,165.454z M225.208,133.936c0-1.25-0.438-2.347-1.312-3.291
		c-0.945-0.937-2.072-1.405-3.386-1.405c-1.259,0-2.354,0.468-3.291,1.405c-0.944,0.944-1.417,2.041-1.417,3.291
		c0,1.321,0.473,2.449,1.417,3.385c0.937,0.883,2.032,1.325,3.291,1.325c1.313,0,2.44-0.442,3.386-1.325
		C224.771,136.385,225.208,135.257,225.208,133.936z M103.583,168.367c-0.998,0-1.845,0.379-2.544,1.139
		c-0.683,0.684-1.024,1.527-1.024,2.532c0,0.998,0.342,1.846,1.024,2.544c0.699,0.744,1.546,1.117,2.544,1.117
		c1.006,0,1.885-0.373,2.636-1.117c0.69-0.698,1.036-1.546,1.036-2.544c0-1.005-0.346-1.849-1.036-2.532
		C105.468,168.746,104.589,168.367,103.583,168.367z"/>
</g>
</svg>
