<?xml version="1.0" encoding="utf-8"?>
<!-- Generator: Adobe Illustrator 16.0.0, SVG Export Plug-In . SVG Version: 6.00 Build 0)  -->
<!DOCTYPE svg PUBLIC "-//W3C//DTD SVG 1.1//EN" "http://www.w3.org/Graphics/SVG/1.1/DTD/svg11.dtd">
<svg version="1.1" id="Layer_1" xmlns="http://www.w3.org/2000/svg" xmlns:xlink="http://www.w3.org/1999/xlink" x="0px" y="0px"
	 width="300px" height="300px" viewBox="0 0 300 300" enable-background="new 0 0 300 300" xml:space="preserve">
<path fill-rule="evenodd" clip-rule="evenodd" fill="#203062" d="M248.103,28.521c3.395,3.351,6.826,7.507,10.297,12.469
	c0.923,2.016,1.779,3.996,2.566,5.942c4.422,10.875,6.634,20.37,6.634,28.483v5.739c-1.149,0-4.976-2.102-11.479-6.304
	l-12.629-5.739v-1.15c1.207-2.414,2.145-4.71,2.813-6.889c0.802-2.662,1.203-5.146,1.203-7.453c0-10.712-6.124-18.364-18.369-22.958
	l-2.3-0.586l-0.573,1.736v15.482c0,5.735-0.957,8.604-2.865,8.604h-1.715c-0.816-10.095-2.022-19.219-3.621-27.376
	c-0.156-0.781-0.314-1.554-0.479-2.321c-0.511-2.428-1.058-4.767-1.64-7.018c3.053-0.767,6.878-1.149,11.479-1.149
	c5.927,0,11.992,2.721,18.196,8.167C246.445,26.917,247.272,27.691,248.103,28.521z M212.146,55.131
	c4.401,1.646,8.76,3.627,13.075,5.941c0.348,0.185,0.694,0.373,1.045,0.564c0.771,0,1.347,0.766,1.724,2.3v0.564
	c-4.479-1.3-8.698-2.443-12.659-3.429c-1.081-0.27-2.142-0.529-3.185-0.777c-10.77-2.542-19.451-3.812-26.046-3.812
	c-19.896,1.916-41.513,10.907-64.845,26.971c-17.981,14.538-26.971,26.396-26.971,35.575v0.585c0,3.436,2.296,5.732,6.889,6.889
	c1.519,0,15.096-4.405,40.729-13.213l20.092-3.44l1.149,1.15v1.161c0,1.143-5.738,3.056-17.217,5.739
	c-21.807,9.172-39.596,19.88-53.368,32.125c-1.271,1.37-2.488,2.716-3.652,4.035c-12.195,13.855-18.826,25.328-19.891,34.415
	c-1.519,2.683-2.474,6.509-2.864,11.478l0.585,2.29l-0.585,1.735l0.585,2.875l-1.15,1.129c-3.059-2.294-4.589-10.133-4.589-23.521
	c0-10.55,0.94-20.683,2.821-30.401c5.885-30.474,21.009-56.877,45.371-79.21c24.866-17.214,48.018-25.821,69.456-25.821
	C190.09,49.03,201.256,51.063,212.146,55.131z M192.403,65.098l2.876-0.596c15.688,0,32.33,6.509,49.928,19.528l5.174,5.74v1.149
	L226.266,79.44c-9.563-2.307-18.938-3.46-28.123-3.46h-2.278c-12.244,1.157-18.367,4.224-18.367,9.2
	c0,3.436,13.771,5.349,41.313,5.739c18.741,4.594,28.11,9.375,28.11,14.343c1.541,0,2.312,2.3,2.312,6.9
	c0,8.028-9.379,15.297-28.132,21.807c-16.447,5.736-32.512,8.604-48.192,8.604l-0.586-1.149c0-1.541,8.419-3.642,25.256-6.304
	c21.807-6.9,32.711-13.409,32.711-19.528v-1.714c-4.593-6.51-17.222-9.765-37.886-9.765l-0.563-0.564l-1.15,0.564l-3.438-0.564
	l-5.165,0.564l-0.575-0.564l-3.45,0.564h-5.152c-16.846,0-38.656,4.21-65.433,12.629h-0.565c-1.142,0-2.296-1.15-3.459-3.45
	c4.592-11.479,19.322-24.104,44.189-37.875c13.785-6.879,28.518-10.318,44.199-10.318H192.403z M175.187,108.136
	c0.773,0.767,1.16,1.338,1.16,1.714V111c0,9.945-6.126,23.141-18.379,39.589v0.584h3.46c17.216,0,33.093-3.25,47.63-9.752
	l0.564,1.149v1.15c0,2.335-5.123,5.783-15.365,10.339c-3.181,1.42-6.854,2.942-11.021,4.568
	c-10.334,2.293-18.946,3.439-25.831,3.439l-25.822-0.565v-2.311c2.514-1.667,4.923-3.379,7.23-5.132
	c15.666-11.882,26.836-25.661,33.509-41.335c0.766-3.06,1.533-4.589,2.299-4.589H175.187z M178.061,129.379v-4.025
	c1.534-2.683,3.643-7.467,6.326-14.353l14.342-0.575c12.621,0.767,19.504,2.871,20.647,6.314v1.16
	c0,4.969-13.389,9.366-40.166,13.192L178.061,129.379z M163.143,121.329c-3.825,8.426-10.52,16.267-20.082,23.521l-18.378,6.324
	c-2.15,0.874-4.269,1.837-6.356,2.887c-11.663,5.849-22.357,14.453-32.082,25.811c-1.15,0-2.68,2.869-4.589,8.604v7.464
	c0,7.652,5.353,14.346,16.058,20.081v0.564c0,1.165-0.572,1.746-1.715,1.746c-9.563-3.073-16.447-8.625-20.657-16.653l-2.3-10.329
	c0-12.429,6.705-24.857,20.114-37.288c7.226-6.695,16.397-13.391,27.515-20.093c20.663-9.958,34.25-14.938,40.758-14.938
	C162.573,119.029,163.143,119.795,163.143,121.329z M255.535,77.715c4.982,1.917,12.447,7.848,22.394,17.793
	C291.309,112.345,298,128.605,298,144.287c0,13.763-4.594,30.023-13.779,48.778l-1.715,6.303v12.064
	c0,12.629-3.25,18.942-9.753,18.942c-4.969,0-8.029-5.738-9.179-17.218c0-3.45-4.209-10.913-12.628-22.393l-3.438-14.918h-0.587
	l-0.563,1.151l0.563,1.725l-0.563,3.429c0,3.074,3.254,10.35,9.764,21.828c1.909,2.293,3.439,7.453,4.59,15.481
	c-1.15,8.811-2.491,13.214-4.024,13.214c-1.145,0-2.862-6.506-5.155-19.518c-8.659-21.054-24.891-38.974-48.692-53.761
	c-0.411-0.256-0.824-0.511-1.235-0.767v-0.565c0-0.979,0.411-1.543,1.235-1.692c0.148-0.029,0.31-0.043,0.479-0.043
	c11.096,3.067,19.891,4.6,26.386,4.6h5.176c16.447,0,27.542-6.118,33.285-18.356c1.917-3.825,2.875-7.081,2.875-9.764v-9.167
	c0-6.899-4.784-16.465-14.353-28.697l-0.565-2.875l1.714-1.15c7.276,3.827,14.545,15.688,21.807,35.586
	c1.909,8.029,2.864,14.91,2.864,20.646l-1.149,19.518c4.216-6.126,6.324-14.158,6.324-24.097c0-23.723-11.478-45.15-34.436-64.281
	L255.535,77.715z M257.835,106.422c3.826,4.578,5.739,9.547,5.739,14.907v2.875c0,15.674-10.136,25.236-30.409,28.686h-2.876
	c-10.335-0.376-15.502-1.52-15.502-3.429l17.791-4.611c11.104-6.878,17.993-13.76,20.667-20.646
	c1.526-4.976,2.484-10.715,2.876-17.218L257.835,106.422z M263.574,167.243c-1.909,0.375-2.863,2.098-2.863,5.163
	c0,1.527,0.954,3.439,2.863,5.74c1.918,0,3.447-1.722,4.59-5.165c0-2.683-1.146-4.595-3.44-5.738H263.574z M193.554,164.933
	l-1.714-0.565c-8.42,0-15.496,2.681-21.232,8.039v0.575c0,1.145,1.722,1.909,5.165,2.301c6.452,0,15.475-2.871,27.066-8.614
	c1.463-0.725,2.96-1.49,4.493-2.301l0.564,1.15v1.15c-1.661,1.604-3.348,3.081-5.058,4.43c-8.866,6.991-18.271,10.488-28.218,10.488
	h-5.174c-6.879-0.377-10.318-2.861-10.318-7.453c0-4.978,7.266-9.187,21.797-12.63l5.738-0.575c6.134,0,9.2,0.96,9.2,2.876
	L193.554,164.933z M11.634,254.47H11.07c-3.06,0-5.931-5.352-8.615-16.056c0-21.814,13.58-38.656,40.739-50.525l12.628-9.742h1.15
	l1.15,1.139c-2.301,5.359-12.061,14.548-29.283,27.568c-5.735,5.346-8.603,10.314-8.603,14.907
	c10.329-1.144,19.131-5.157,26.407-12.043c1.917-3.074,4.405-10.155,7.464-21.242l1.15-0.587c1.143,0,1.714,0.578,1.714,1.736
	l-1.15,4.589c0,8.428,2.871,17.421,8.614,26.981v1.13c0,3.449-10.711,7.087-32.135,10.914c-7.652,0-14.347,4.969-20.082,14.906
	l0.565,5.74L11.634,254.47z M86.819,188.476c0-0.767,0.575-1.151,1.725-1.151l32.71,21.243c4.969,3.825,8.795,13.392,11.479,28.695
	c-0.766,5.346-1.15,11.657-1.15,18.933l-2.311,1.15h-1.128c-6.9-10.335-16.462-17.416-28.686-21.242
	c-14.162-6.112-23.727-14.527-28.696-25.247h0.563v-0.574c0-1.143,0.384-1.715,1.15-1.715c9.945,10.336,20.465,15.504,31.561,15.504
	l8.614,1.714h0.564c0-5.742-6.885-14.925-20.657-27.546l-5.739-8.614V188.476z"/>
</svg>
