<?xml version="1.0" encoding="utf-8"?>
<!-- Generator: Adobe Illustrator 16.0.0, SVG Export Plug-In . SVG Version: 6.00 Build 0)  -->
<!DOCTYPE svg PUBLIC "-//W3C//DTD SVG 1.1//EN" "http://www.w3.org/Graphics/SVG/1.1/DTD/svg11.dtd">
<svg version="1.1" id="Layer_1" xmlns="http://www.w3.org/2000/svg" xmlns:xlink="http://www.w3.org/1999/xlink" x="0px" y="0px"
	 width="300px" height="300px" viewBox="0 0 300 300" enable-background="new 0 0 300 300" xml:space="preserve">
<g>
	<path fill-rule="evenodd" clip-rule="evenodd" fill="#9A3D64" d="M112.867,123.527c0.294,0.573,0.573,1.176,0.838,1.809
		c-0.868,3.661-0.691,7.396,0.529,11.204c0.06,0.221,0.125,0.441,0.199,0.662c-0.368,1.279-0.889,2.551-1.566,3.815
		c-1.691,3.059-3.978,5.447-6.859,7.168c-1.235,0.72-2.573,1.314-4.014,1.786c-2.058,0.646-4.087,0.934-6.087,0.859
		c-0.294-0.015-0.588-0.036-0.882-0.066c-0.207-0.117-0.412-0.234-0.618-0.353c-0.177-0.088-0.346-0.177-0.508-0.264
		c-2.515-1.324-5.057-2.198-7.63-2.625c-0.03-0.029-0.06-0.052-0.088-0.066c-1.589-1.087-2.948-2.36-4.081-3.814
		c-0.352-0.456-0.677-0.92-0.971-1.391c-0.852-1.367-1.537-2.874-2.051-4.521c-0.161-0.529-0.301-1.051-0.419-1.567
		c-0.646-2.925-0.565-5.784,0.243-8.578c0.353-1.206,0.837-2.397,1.457-3.573c0.028-0.074,0.065-0.148,0.109-0.221
		c0.456-0.883,0.955-1.698,1.5-2.448c1.25-1.78,2.765-3.243,4.544-4.39c1.381-0.897,2.925-1.61,4.631-2.14
		c4.94-1.485,9.653-1.021,14.137,1.39C108.646,117.926,111.176,120.367,112.867,123.527z M62.957,176.503
		c-0.191-0.587-0.345-1.169-0.463-1.742c-1.117-4.882-0.47-9.578,1.941-14.092c0.485-0.898,1.021-1.742,1.609-2.537
		c1.206-1.706,2.596-3.176,4.169-4.41c2.029-1.574,4.352-2.766,6.969-3.573c1.426-0.44,2.845-0.735,4.256-0.883
		c1.412-0.146,2.809-0.146,4.191,0c2.646,0.266,5.234,1.074,7.763,2.427c0.293,0.146,0.588,0.309,0.882,0.485
		c0.44,0.248,0.868,0.514,1.279,0.793c2.632,1.75,4.727,3.94,6.287,6.572c0.838,1.441,1.522,3.021,2.051,4.741
		c0.015,0.046,0.029,0.096,0.044,0.155c1.676,5.558,1.147,10.961-1.588,16.21c-2.22,4.176-5.389,7.234-9.505,9.175
		c-0.559,0.133-1.125,0.288-1.699,0.463c-1.088,0.339-2.139,0.728-3.153,1.169c-5.103,1.118-9.962,0.441-14.578-2.028
		c-5.176-2.75-8.624-6.94-10.344-12.571C63.023,176.739,62.986,176.62,62.957,176.503z M128.702,108.971
		c0.177-0.059,0.353-0.118,0.53-0.176c3.867-1.163,7.594-1.309,11.182-0.441c0.867,0.205,1.728,0.47,2.581,0.793
		c-0.662,1.324-1.199,2.662-1.61,4.015c-0.294,0.956-0.521,1.911-0.684,2.867c-0.573-0.104-1.169-0.126-1.787-0.066
		c-0.455,0.03-0.926,0.11-1.411,0.242c-1.603,0.574-2.809,1.603-3.618,3.088c-0.25,0.455-0.434,0.919-0.551,1.389
		c-0.309,1.06-0.301,2.147,0.022,3.265c0.073,0.235,0.162,0.462,0.265,0.684c0.603,1.382,1.551,2.419,2.845,3.109
		c0.132,0.074,0.264,0.148,0.397,0.221c1.47,0.735,2.948,0.838,4.433,0.309c0.132-0.043,0.265-0.088,0.397-0.132
		c1.927,6.233,5.668,10.998,11.226,14.291c-2.691,3.647-6.337,6.162-10.94,7.544c-5.631,1.837-11.085,1.382-16.364-1.369
		c-3.69-1.925-6.536-4.572-8.535-7.938c-0.56-0.927-1.051-1.911-1.478-2.957c-0.221-0.543-0.426-1.103-0.617-1.675
		c-0.03-0.074-0.052-0.141-0.066-0.2c-1.72-5.616-1.199-11.071,1.566-16.364c1.632-3,3.705-5.44,6.22-7.322
		C124.482,110.809,126.481,109.75,128.702,108.971z M102.347,121.035c-1.485-0.807-3.095-0.984-4.831-0.528
		c-1.234,0.353-2.227,1.043-2.977,2.072c-0.235,0.31-0.449,0.655-0.64,1.037c-0.661,1.22-0.889,2.492-0.684,3.815
		c0.029,0.221,0.074,0.441,0.132,0.662c0.015,0.059,0.03,0.118,0.044,0.176c0.235,0.661,0.552,1.25,0.948,1.764
		c0.543,0.765,1.257,1.382,2.139,1.854c1.617,0.91,3.228,1.08,4.83,0.506c0.029,0,0.059-0.007,0.088-0.021
		c0.926-0.281,1.72-0.75,2.381-1.412c0.442-0.457,0.825-1.007,1.147-1.654c0.074-0.117,0.14-0.229,0.199-0.331
		c0.441-0.823,0.662-1.662,0.662-2.515c0-0.588-0.111-1.191-0.332-1.808C104.882,123.034,103.846,121.829,102.347,121.035z
		 M120.74,150.743c1.809-0.367,3.602-0.537,5.382-0.508c3.014,1.397,6.109,2.073,9.284,2.03c0.574,0.249,1.155,0.521,1.743,0.815
		c3.514,1.897,6.352,4.359,8.514,7.388c1.514,2.133,2.698,4.552,3.55,7.257c1.956,6.542,1.323,12.858-1.896,18.944
		c-3.206,6.088-8.029,10.109-14.469,12.064c-3.323,0.986-6.58,1.33-9.771,1.037c-2.426-3.088-5.542-5.617-9.351-7.587
		c-2.882-1.559-5.808-2.589-8.779-3.087c-0.602-0.912-1.139-1.861-1.609-2.845c0.309-0.529,0.609-1.074,0.904-1.633
		c3.337-6.206,3.97-12.646,1.897-19.32c-0.104-0.309-0.206-0.618-0.309-0.926c-0.264-0.854-0.566-1.677-0.905-2.47
		c-0.073-0.164-0.139-0.317-0.198-0.464c0.28-0.442,0.567-0.868,0.86-1.28c3.117-4.292,7.322-7.226,12.615-8.8
		C119.057,151.111,119.903,150.905,120.74,150.743z M84.592,156.697c-1.941,0.573-3.375,1.78-4.301,3.617
		c-0.911,1.838-1.08,3.677-0.507,5.515c0.456,1.544,1.301,2.765,2.536,3.661c0.339,0.235,0.699,0.448,1.081,0.64
		c0.235,0.117,0.47,0.229,0.706,0.331c1.514,0.631,3.117,0.697,4.808,0.198c1.955-0.574,3.389-1.779,4.3-3.617
		c0.926-1.838,1.095-3.676,0.507-5.514c-0.074-0.236-0.147-0.463-0.221-0.684c-0.309-0.766-0.72-1.435-1.235-2.007
		c-0.588-0.662-1.309-1.206-2.161-1.633C88.268,156.293,86.43,156.126,84.592,156.697z M84.284,198.095
		c2.764-2.749,6.146-4.72,10.145-5.91c1.707-0.544,3.397-0.897,5.074-1.059c1.779-0.205,3.543-0.198,5.293,0.021
		c0.662,0.089,1.323,0.198,1.984,0.331c2.22,0.471,4.418,1.279,6.595,2.426c2.705,1.456,5.014,3.265,6.925,5.426
		c0.471,0.515,0.912,1.06,1.324,1.633c0.926,1.249,1.735,2.609,2.426,4.08c-2.941,2.176-5.352,5.014-7.234,8.513
		c-3.205,6.087-3.778,12.52-1.72,19.298c0.338,1.087,0.735,2.133,1.19,3.133c-2.131,1.527-4.535,2.728-7.211,3.595
		c-6.558,1.955-12.88,1.323-18.967-1.898c-6.087-3.219-10.108-8.042-12.064-14.467c-2.059-6.558-1.478-12.881,1.742-18.967
		C81.034,201.881,82.534,199.83,84.284,198.095z M126.475,173.063c1.72,0.926,3.559,1.103,5.514,0.529
		c1.956-0.59,3.389-1.742,4.301-3.463c0.926-1.838,1.102-3.734,0.529-5.69c-0.574-1.94-1.728-3.315-3.463-4.125
		c-1.838-0.926-3.727-1.102-5.668-0.527c-1.838,0.47-3.22,1.623-4.146,3.461c-1.03,1.721-1.258,3.558-0.685,5.514
		C123.431,170.719,124.637,172.15,126.475,173.063z M103.03,199.771c-2.294,0.69-3.955,2.073-4.985,4.146
		c-1.146,2.059-1.374,4.183-0.683,6.373c0.676,2.177,2.051,3.838,4.125,4.984c2.072,1.045,4.256,1.221,6.55,0.53
		c2.176-0.69,3.786-2.073,4.83-4.147c1.146-2.059,1.375-4.183,0.684-6.374c-0.692-2.175-2.073-3.837-4.147-4.983
		C107.464,199.257,105.339,199.08,103.03,199.771z M161.63,97.083c0.883-0.279,1.757-0.5,2.625-0.662
		c0.309-0.073,0.618-0.132,0.926-0.176c0.177-0.029,0.354-0.051,0.53-0.066c0.072-0.014,0.154-0.029,0.241-0.044
		c0.045,0,0.089,0,0.133,0c0.309-0.044,0.625-0.073,0.949-0.088c3.925-0.25,7.748,0.61,11.468,2.581
		c5.294,2.866,8.859,7.175,10.697,12.924c1.837,5.734,1.323,11.307-1.545,16.717c-2.881,5.396-7.247,9.014-13.101,10.852
		c-5.748,1.719-11.321,1.205-16.717-1.544c-5.293-2.883-8.859-7.25-10.697-13.102c-0.383-1.19-0.661-2.381-0.838-3.572
		c-0.265-1.75-0.301-3.493-0.11-5.227c0.293-2.677,1.132-5.316,2.514-7.918c1.221-2.294,2.698-4.257,4.435-5.889
		c1.277-1.191,2.696-2.205,4.256-3.043c0.234-0.133,0.478-0.259,0.728-0.376c0.485-0.249,0.999-0.477,1.543-0.683
		C160.299,97.518,160.953,97.29,161.63,97.083z M164.388,113.096c0.572,1.955,1.778,3.447,3.616,4.477
		c1.839,0.927,3.735,1.103,5.69,0.529c1.94-0.573,3.434-1.778,4.478-3.617c0.91-1.956,1.08-3.911,0.507-5.867
		c-0.574-1.837-1.779-3.272-3.617-4.3c-1.838-0.926-3.734-1.103-5.69-0.53c-1.94,0.574-3.433,1.779-4.477,3.618
		C163.983,109.243,163.814,111.14,164.388,113.096z M179.627,150.522c-0.293-0.206-0.61-0.389-0.948-0.551
		c-1.838-0.912-3.676-1.081-5.514-0.508c-1.955,0.574-3.39,1.779-4.3,3.618c-0.927,1.838-1.104,3.676-0.529,5.515
		c0.587,1.955,1.8,3.388,3.638,4.3c1.839,0.926,3.677,1.104,5.514,0.529c0.779-0.235,1.47-0.565,2.073-0.992
		c0.147,0.617,0.317,1.235,0.508,1.852c1.603,5.206,4.477,9.389,8.623,12.55c-2.323,2.911-5.285,5.051-8.887,6.419
		c-5.427-2.294-11.028-2.529-16.807-0.707c-0.03,0.016-0.059,0.03-0.089,0.044l-0.022-0.021c-0.249-0.117-0.499-0.242-0.749-0.375
		c-5.278-2.749-8.778-6.939-10.499-12.571c-1.734-5.631-1.22-11.034,1.544-16.211c1.721-3.322,4.022-5.932,6.904-7.828
		c4.558,1.249,9.263,1.103,14.114-0.441c1.765-0.53,3.412-1.191,4.941-1.986c0.984,0.354,1.97,0.787,2.954,1.301
		c-0.102,0.177-0.206,0.354-0.308,0.529C180.832,146.795,180.112,148.641,179.627,150.522z M186.509,145.516
		c0.132-0.293,0.279-0.587,0.44-0.882c2.765-5.278,6.962-8.785,12.594-10.52c5.616-1.721,11.012-1.199,16.188,1.565
		c5.277,2.75,8.785,6.94,10.52,12.572c1.721,5.75,1.199,11.205-1.565,16.365c-2.749,5.176-6.94,8.624-12.571,10.343
		c-5.632,1.721-11.028,1.207-16.188-1.544c-0.354-0.19-0.699-0.382-1.037-0.573c-1.014-0.603-1.948-1.249-2.801-1.94
		c-3.19-2.588-5.418-5.948-6.682-10.079c-1.471-4.778-1.317-9.403,0.464-13.873C186.06,146.464,186.274,145.987,186.509,145.516z
		 M202.124,149.794c0.572,1.956,1.778,3.397,3.616,4.324c1.838,0.912,3.675,1.08,5.514,0.507c1.955-0.573,3.389-1.779,4.3-3.618
		c0.926-1.837,1.104-3.674,0.529-5.513c-0.572-1.956-1.778-3.389-3.615-4.3c-1.839-0.928-3.677-1.103-5.515-0.529
		c-1.955,0.574-3.396,1.779-4.322,3.617C201.719,146.12,201.55,147.956,202.124,149.794z M167.827,199.947
		c0.574,1.957,1.779,3.39,3.617,4.302c1.721,0.926,3.559,1.103,5.515,0.529c1.955-0.574,3.388-1.779,4.301-3.617
		c0.926-1.838,1.103-3.677,0.529-5.515c-0.574-1.956-1.779-3.396-3.617-4.321c-1.838-0.913-3.677-1.082-5.515-0.509
		c-1.955,0.574-3.396,1.78-4.321,3.617C167.423,196.154,167.255,197.993,167.827,199.947z M165.247,184.267
		c0.382-0.118,0.766-0.22,1.146-0.309c3.705-0.941,7.301-0.904,10.785,0.109c1.441,0.412,2.86,0.994,4.257,1.743
		c5.293,2.765,8.8,6.962,10.521,12.593c1.72,5.617,1.205,11.073-1.544,16.365c-2.764,5.16-6.962,8.608-12.594,10.345
		c-4.543,1.366-8.902,1.322-13.078-0.133c-0.073-2.324-0.479-4.698-1.213-7.124c-0.104-0.309-0.206-0.617-0.311-0.927
		c-1.999-6.337-5.976-11.078-11.931-14.225c-0.382-0.206-0.764-0.396-1.147-0.574c0.295-2.499,1.082-4.954,2.36-7.366
		C155.366,189.485,159.616,185.987,165.247,184.267z M189.199,189.914c1.911-1.222,4.035-2.185,6.373-2.89
		c0.147-0.044,0.288-0.089,0.419-0.133c5.249-1.572,10.351-1.434,15.307,0.418c-0.028,0.045-0.052,0.096-0.065,0.154
		c-1.133,2.53-1.83,5.11-2.096,7.742c-1.31-0.353-2.617-0.324-3.926,0.088c-1.94,0.573-3.374,1.778-4.301,3.617
		c-0.911,1.721-1.081,3.558-0.507,5.513c0.573,1.958,1.778,3.39,3.616,4.303c1.721,0.926,3.559,1.103,5.514,0.529
		c0.647-0.206,1.243-0.485,1.787-0.84c2.293,5.191,6.065,9.146,11.313,11.866c0.868,0.471,1.75,0.89,2.646,1.257
		c-0.133,0.265-0.271,0.537-0.418,0.816c-2.132,3.955-4.985,7.05-8.558,9.285c0.367,0.103,0.734,0.221,1.103,0.354
		c1.234,0.411,2.455,0.926,3.662,1.542c2.072,1.118,3.91,2.441,5.513,3.972c-0.015,2.587,0.391,5.226,1.213,7.917
		c0.676,2.19,1.58,4.198,2.713,6.021c-3.205,2.234-5.778,5.228-7.72,8.977c-3.015,5.616-3.815,11.423-2.403,17.423
		c-1.147,0.529-2.353,0.986-3.617,1.367c-6.543,2.06-12.865,1.484-18.967-1.72c-3.838-2.029-6.852-4.721-9.044-8.072
		c0.266-0.456,0.521-0.926,0.773-1.411c3.175-5.896,3.902-11.998,2.184-18.306c-0.133-0.56-0.28-1.118-0.442-1.677
		c-0.646-2.176-1.521-4.169-2.624-5.977c1.677-2.632,3.72-4.823,6.131-6.572c0.456-0.339,0.92-0.654,1.39-0.949
		c1.617-0.999,3.382-1.83,5.294-2.491c-1.985,0.632-3.816,1.44-5.492,2.426c-1.588-0.472-3.154-1.117-4.698-1.942
		c-2.853-1.499-5.241-3.366-7.167-5.6c3.411-2.221,6.139-5.243,8.183-9.065c3.102-6.087,3.683-12.402,1.741-18.945
		C193,195.441,191.389,192.441,189.199,189.914z M215.488,189.493c0.412-1.308,0.956-2.596,1.633-3.859
		c2.749-5.16,6.939-8.602,12.57-10.322c5.632-1.734,11.028-1.22,16.188,1.545c5.294,2.749,8.8,6.94,10.52,12.571
		c1.722,5.632,1.206,11.034-1.543,16.211c-1.441,2.763-3.279,5.042-5.515,6.835c-1.425,0.178-2.866,0.479-4.321,0.905
		c-0.31,0.103-0.611,0.206-0.904,0.31c-2.529,0.822-4.816,1.956-6.859,3.396c-3.264,0.222-6.471-0.331-9.616-1.653
		c-0.588-0.25-1.169-0.529-1.742-0.839c-5.176-2.764-8.624-6.954-10.345-12.571C214.261,197.685,214.238,193.508,215.488,189.493z
		 M235.889,195.294c1.839,0.912,3.677,1.081,5.515,0.508c1.955-0.573,3.389-1.78,4.301-3.617c0.926-1.838,1.102-3.676,0.529-5.515
		c-0.573-1.955-1.78-3.388-3.617-4.3c-1.838-0.927-3.677-1.096-5.514-0.507c-1.955,0.573-3.396,1.779-4.323,3.616
		c-0.911,1.72-1.081,3.559-0.507,5.515C232.846,192.934,234.051,194.368,235.889,195.294z M247.27,215.275
		c2.25-0.69,4.456-1.021,6.617-0.992c3.278,0.044,6.47,0.897,9.571,2.559c5.292,2.748,8.801,6.939,10.52,12.571
		c1.721,5.631,1.199,11.028-1.565,16.188c-2.073,3.984-4.954,6.955-8.646,8.91c1.148,1.234,2.162,2.596,3.044,4.08
		c1.029,1.706,1.868,3.58,2.516,5.624c0.117,0.396,0.227,0.801,0.331,1.213c1.543,6.102,0.801,12.02-2.229,17.755
		c-3.22,6.086-8.1,10.101-14.643,12.042c-6.441,2.073-12.705,1.499-18.791-1.721c-6.088-3.205-10.109-8.086-12.064-14.646
		c-2.059-6.543-1.485-12.8,1.72-18.767c3.221-6.089,8.109-10.17,14.667-12.243c0.374-0.109,0.75-0.211,1.125-0.308
		c-0.61,0.141-1.222,0.303-1.831,0.485c-0.44,0.133-0.868,0.279-1.279,0.44c-1.396-1.896-2.463-4.058-3.197-6.483
		c-1.839-5.632-1.375-11.086,1.39-16.364c0.425-0.81,0.896-1.573,1.411-2.295C238.639,219.415,242.417,216.731,247.27,215.275z
		 M258.98,235.787c1.955-0.574,3.39-1.779,4.301-3.617c0.926-1.839,1.104-3.675,0.529-5.514c-0.572-1.955-1.779-3.39-3.616-4.301
		c-1.721-0.927-3.559-1.103-5.515-0.529c-1.955,0.573-3.396,1.779-4.323,3.617c-0.91,1.72-1.08,3.558-0.506,5.514
		c0.572,1.956,1.778,3.396,3.615,4.323C255.188,236.19,257.024,236.36,258.98,235.787z M217.274,240.793
		c-1.721-0.926-3.558-1.103-5.513-0.529c-1.955,0.574-3.39,1.779-4.302,3.617c-0.926,1.721-1.095,3.559-0.507,5.514
		c0.574,1.838,1.72,3.279,3.441,4.322c1.72,0.912,3.558,1.08,5.513,0.508c1.956-0.573,3.389-1.778,4.301-3.616
		c0.927-1.721,1.104-3.559,0.53-5.515C220.267,243.139,219.113,241.704,217.274,240.793z M243.476,259.915
		c-0.926,1.722-1.103,3.558-0.529,5.514c0.588,1.838,1.801,3.272,3.64,4.3c1.721,0.926,3.559,1.104,5.514,0.529
		c1.941-0.587,3.375-1.801,4.3-3.638c0.913-1.721,1.081-3.559,0.509-5.514c-0.574-1.941-1.721-3.376-3.442-4.301
		c-1.837-0.911-3.733-1.081-5.688-0.507C245.821,256.872,244.388,258.077,243.476,259.915z M175.414,240.616
		c-1.72-0.926-3.558-1.102-5.514-0.528c-1.955,0.572-3.396,1.778-4.322,3.617c-0.911,1.735-1.081,3.572-0.507,5.514
		c0.573,1.956,1.779,3.338,3.616,4.146c1.722,0.91,3.559,1.08,5.514,0.507c1.955-0.455,3.39-1.603,4.301-3.44
		c0.927-1.721,1.103-3.559,0.528-5.514C178.458,242.962,177.252,241.528,175.414,240.616z M144.736,208.945
		c-0.926-0.073-1.845,0.03-2.758,0.311c-1.954,0.573-3.388,1.778-4.3,3.616c-0.926,1.839-1.103,3.675-0.529,5.515
		c0.574,1.954,1.78,3.389,3.618,4.3c1.734,0.925,3.572,1.103,5.513,0.529c1.191-0.354,2.19-0.911,3.001-1.677
		c0.513-0.499,0.955-1.095,1.322-1.786c0.911-1.837,1.081-3.728,0.506-5.668c-0.573-1.956-1.778-3.396-3.617-4.322
		C146.567,209.308,145.647,209.034,144.736,208.945z M149.743,243.881c0.338-0.632,0.699-1.235,1.081-1.808
		c1.985-3.029,4.588-5.359,7.806-6.992c1.191-0.617,2.478-1.133,3.859-1.545c0.339-0.102,0.677-0.197,1.016-0.284
		c5.264-1.486,10.321-0.928,15.174,1.675c5.293,2.867,8.8,7.116,10.521,12.748c1.72,5.631,1.206,11.027-1.545,16.188
		c-2.764,5.294-6.962,8.8-12.593,10.52c-5.631,1.721-11.086,1.205-16.364-1.543c-5.176-2.765-8.624-6.963-10.344-12.594
		c-1.22-3.735-1.426-7.396-0.617-10.984C148.147,247.454,148.817,245.661,149.743,243.881z M145.045,202.131
		c1.941,0.412,3.853,1.117,5.734,2.118c5.278,2.764,8.777,6.962,10.498,12.593c1.441,4.705,1.315,9.292-0.375,13.763
		c-0.117,0.322-0.242,0.647-0.374,0.97c-0.104,0.014-0.198,0.037-0.288,0.066c-0.309,0.103-0.61,0.206-0.903,0.309
		c-6.454,2.104-11.315,6.182-14.579,12.241c-4.778,1.014-9.44,0.337-13.983-2.029c-5.161-2.749-8.608-6.999-10.344-12.748
		c-1.72-5.632-1.198-11.035,1.567-16.211c2.749-5.277,6.939-8.778,12.571-10.497C138.142,201.616,141.634,201.426,145.045,202.131z"
		/>
	<path fill-rule="evenodd" clip-rule="evenodd" fill="#863557" d="M89.422,113.272h0.022c5.617-1.72,11.013-1.206,16.188,1.543
		c2.117,1.132,3.956,2.514,5.513,4.146c1.221,1.294,2.265,2.749,3.132,4.367c0.397-1.176,0.904-2.345,1.522-3.505
		c1.764-3.324,4.072-5.971,6.925-7.94c1.779-1.236,3.771-2.206,5.977-2.912c-2.221,0.779-4.22,1.838-5.999,3.176
		c-2.515,1.882-4.588,4.322-6.22,7.322c-2.765,5.293-3.286,10.748-1.566,16.364c0.015,0.06,0.037,0.126,0.066,0.2
		c0.191,0.572,0.396,1.132,0.617,1.675c0.426,1.045,0.918,2.03,1.478,2.957c2,3.367,4.845,6.014,8.535,7.938
		c5.279,2.75,10.733,3.206,16.364,1.369c4.604-1.382,8.25-3.897,10.94-7.544c-5.558-3.292-9.299-8.058-11.226-14.291
		c-0.015-0.074-0.037-0.147-0.067-0.22c-0.278-0.883-0.507-1.757-0.684-2.625c-0.367-1.72-0.558-3.412-0.573-5.073
		c-0.015-1.412,0.096-2.809,0.331-4.19c0.162-0.957,0.39-1.912,0.684-2.867c0.411-1.353,0.948-2.691,1.61-4.015
		c0.162-0.352,0.339-0.698,0.529-1.037c0.912-1.72,1.956-3.286,3.132-4.697c1.484-1.809,3.197-3.367,5.139-4.676
		c0.544-0.382,1.117-0.735,1.72-1.058c0.706-0.413,1.441-0.787,2.206-1.125c1-0.456,2.05-0.86,3.153-1.213
		c0.088-0.03,0.177-0.051,0.266-0.066l0.242-0.088l9.946-1.015c3.25,0.28,6.425,1.25,9.528,2.911
		c6.205,3.323,10.344,8.314,12.416,14.976c0.06,0.176,0.111,0.353,0.155,0.529c2.19,6.896,1.558,13.557-1.896,19.981
		c-2.147,4.074-5.029,7.264-8.646,9.572c0.529,0.236,1.06,0.493,1.589,0.773c0.133,0.073,0.265,0.147,0.396,0.22
		c2.706-4.264,6.33-7.396,10.874-9.396l2.558-1.014c0.323-0.118,0.653-0.228,0.991-0.332c6.544-2.058,12.858-1.484,18.946,1.721
		c6.028,3.189,10.028,7.998,11.998,14.423c0.088,0.25,0.169,0.5,0.241,0.75c2.073,6.779,1.501,13.211-1.719,19.298
		c-3.338,6.204-8.337,10.336-14.997,12.395c-6.779,2.073-13.212,1.499-19.299-1.721c-0.146-0.071-0.287-0.146-0.419-0.22
		c-1.853,2.94-4.124,5.358-6.815,7.257c1.441,1.043,2.735,2.22,3.882,3.527c1.823-1.102,3.816-1.993,5.977-2.669
		c0.31-0.089,0.611-0.175,0.904-0.264c-0.131,0.044-0.271,0.089-0.419,0.133c-2.338,0.705-4.462,1.668-6.373,2.89
		c2.189,2.527,3.801,5.527,4.829,8.997c1.941,6.543,1.36,12.858-1.741,18.945c-2.044,3.822-4.771,6.845-8.183,9.065
		c1.926,2.233,4.314,4.101,7.167,5.6c1.544,0.825,3.11,1.471,4.698,1.942c1.676-0.985,3.507-1.794,5.492-2.426
		c-1.912,0.661-3.677,1.492-5.294,2.491c-0.47,0.295-0.934,0.61-1.39,0.949c-2.411,1.749-4.454,3.94-6.131,6.572
		c1.103,1.808,1.978,3.801,2.624,5.977c0.162,0.559,0.31,1.117,0.442,1.677c1.719,6.308,0.991,12.409-2.184,18.306
		c-0.252,0.485-0.508,0.955-0.773,1.411c2.192,3.352,5.206,6.043,9.044,8.072c6.102,3.204,12.424,3.779,18.967,1.72
		c1.265-0.381,2.47-0.838,3.617-1.367c-1.412-6-0.611-11.807,2.403-17.423c1.941-3.749,4.515-6.742,7.72-8.977
		c-1.133-1.823-2.037-3.831-2.713-6.021c-0.822-2.691-1.228-5.33-1.213-7.917c0.015-3.956,0.993-7.8,2.934-11.535
		c0.529-1,1.109-1.941,1.742-2.823c-1.896-0.25-3.764-0.735-5.602-1.455c-0.235,0.485-0.485,0.978-0.751,1.477
		c-1.896,3.662-4.396,6.603-7.498,8.823c-0.368-0.133-0.735-0.251-1.103-0.354c3.572-2.235,6.426-5.33,8.558-9.285
		c0.146-0.279,0.285-0.552,0.418-0.816c-0.896-0.367-1.778-0.786-2.646-1.257c-5.248-2.721-9.021-6.675-11.313-11.866
		c-0.412-0.94-0.78-1.925-1.104-2.955c-1.072-3.499-1.432-6.918-1.079-10.255c0.266-2.632,0.963-5.212,2.096-7.742
		c0.014-0.059,0.037-0.109,0.065-0.154c0.206-0.441,0.419-0.882,0.64-1.322c3.265-6.072,8.116-10.152,14.556-12.241l0.177-0.065
		c0.251-0.088,0.507-0.177,0.772-0.266c6.559-1.954,12.88-1.322,18.967,1.896c6.088,3.206,10.109,8.028,12.064,14.469
		c0.279,0.897,0.515,1.795,0.705,2.69c1.382,5.94,0.625,11.705-2.271,17.292c-0.5,0.94-1.045,1.837-1.633,2.69
		c2.955,0.367,5.858,1.309,8.712,2.822c6.086,3.22,10.108,8.05,12.063,14.49c0.162,0.559,0.309,1.117,0.441,1.677
		c1.721,6.308,0.992,12.409-2.184,18.306c-1.896,3.661-4.396,6.608-7.499,8.844c-0.882-1.484-1.896-2.846-3.044-4.08
		c3.692-1.955,6.573-4.926,8.646-8.91c2.765-5.16,3.286-10.558,1.565-16.188c-1.719-5.632-5.228-9.823-10.52-12.571
		c-3.102-1.661-6.293-2.515-9.571-2.559c-2.161-0.028-4.367,0.302-6.617,0.992c-4.853,1.456-8.631,4.14-11.336,8.05
		c-0.516,0.722-0.986,1.485-1.411,2.295c-2.765,5.278-3.229,10.732-1.39,16.364c0.734,2.426,1.801,4.588,3.197,6.483
		c0.411-0.161,0.839-0.308,1.279-0.44c0.609-0.183,1.221-0.345,1.831-0.485c-0.375,0.097-0.751,0.198-1.125,0.308
		c-6.558,2.073-11.446,6.154-14.667,12.243c-3.205,5.967-3.778,12.224-1.72,18.767c1.955,6.56,5.977,11.44,12.064,14.646
		c6.086,3.22,12.35,3.794,18.791,1.721c6.543-1.941,11.423-5.956,14.643-12.042c3.03-5.735,3.772-11.653,2.229-17.755
		c1.867,6.484,1.184,12.741-2.053,18.769c-3.337,6.205-8.337,10.344-14.997,12.417s-13.093,1.441-19.299-1.896
		c-6.204-3.22-10.343-8.219-12.416-14.997c-0.088-0.279-0.169-0.559-0.242-0.838c-1.323,0.677-2.734,1.242-4.235,1.697
		c-6.66,2.073-13.093,1.441-19.297-1.896c-3.824-2.043-6.859-4.728-9.108-8.05c-3.177,4.764-7.602,8.028-13.277,9.792
		c-6.677,2.06-13.115,1.426-19.319-1.896c-6.191-3.221-10.322-8.219-12.397-14.997c-1.381-4.426-1.587-8.749-0.616-12.969
		c-5.176,0.706-10.139-0.198-14.888-2.714c-3.426-1.852-6.227-4.203-8.402-7.057c-2.97,2.529-6.492,4.418-10.564,5.668
		c-7.69,2.411-15.152,1.728-22.386-2.051c-7.249-3.794-12.02-9.594-14.314-17.401c-2.412-7.704-1.72-15.174,2.073-22.408
		c1.324-2.498,2.889-4.704,4.698-6.615c-2.882-0.412-5.712-1.367-8.492-2.868c-6.205-3.22-10.336-8.16-12.395-14.82
		c-0.293-0.985-0.537-1.964-0.728-2.934c-0.396-1.969-0.551-3.91-0.463-5.822c0.088-2.397,0.544-4.749,1.367-7.058
		c0.427-1.176,0.941-2.339,1.544-3.485c0.221-0.41,0.448-0.815,0.683-1.211c1.015-1.692,2.161-3.207,3.44-4.545
		c1.691-1.778,3.617-3.257,5.779-4.434l4.587-2.05c0.324-0.118,0.662-0.229,1.015-0.331c1.029-0.323,2.059-0.581,3.088-0.771
		c-0.75-0.97-1.412-2.008-1.985-3.11c-0.646-1.206-1.191-2.5-1.632-3.882c-0.778-2.618-1.095-5.189-0.948-7.719
		c0.162-2.751,0.875-5.433,2.139-8.051c0.118-0.264,0.242-0.522,0.375-0.771c0.324-0.589,0.662-1.147,1.015-1.677
		c0.691-1.074,1.456-2.066,2.293-2.978c1.853-2.014,4.051-3.617,6.595-4.807l2.381-0.994
		C88.644,113.522,89.026,113.39,89.422,113.272z M62.957,176.503c0.029,0.117,0.066,0.236,0.11,0.354
		c1.72,5.631,5.168,9.821,10.344,12.571c4.616,2.47,9.475,3.146,14.578,2.028c1.014-0.441,2.065-0.83,3.153-1.169
		c0.574-0.175,1.14-0.33,1.699-0.463c4.117-1.94,7.286-4.999,9.505-9.175c2.735-5.249,3.264-10.652,1.588-16.21
		c-0.015-0.06-0.029-0.109-0.044-0.155c-0.529-1.72-1.213-3.3-2.051-4.741c-1.56-2.632-3.654-4.822-6.287-6.572
		c-0.411-0.279-0.838-0.545-1.279-0.793c-0.294-0.177-0.588-0.339-0.882-0.485c-2.529-1.354-5.117-2.162-7.763-2.427
		c-1.382-0.146-2.779-0.146-4.191,0c-1.412,0.148-2.83,0.443-4.256,0.883c-2.617,0.808-4.94,1.999-6.969,3.573
		c-1.573,1.234-2.963,2.704-4.169,4.41c-0.588,0.795-1.124,1.639-1.609,2.537c-2.412,4.514-3.059,9.21-1.941,14.092
		C62.611,175.334,62.765,175.916,62.957,176.503z M112.867,123.527c-1.691-3.161-4.221-5.602-7.587-7.322
		c-4.484-2.411-9.197-2.875-14.137-1.39c-1.706,0.53-3.25,1.243-4.631,2.14c-1.779,1.146-3.294,2.609-4.544,4.39
		c-0.544,0.75-1.044,1.565-1.5,2.448c-0.044,0.073-0.082,0.147-0.109,0.221c-0.619,1.176-1.104,2.367-1.457,3.573
		c-0.809,2.794-0.89,5.653-0.243,8.578c0.119,0.516,0.258,1.038,0.419,1.567c0.514,1.647,1.199,3.154,2.051,4.521
		c0.294,0.471,0.619,0.935,0.971,1.391c1.133,1.454,2.492,2.727,4.081,3.814c0.028,0.015,0.058,0.038,0.088,0.066
		c2.573,0.428,5.116,1.301,7.63,2.625c0.162,0.087,0.331,0.176,0.508,0.264c0.206,0.118,0.411,0.235,0.618,0.353
		c0.293,0.03,0.588,0.052,0.882,0.066c2,0.074,4.029-0.213,6.087-0.859c1.441-0.472,2.779-1.066,4.014-1.786
		c2.881-1.721,5.168-4.11,6.859-7.168c0.677-1.265,1.198-2.536,1.566-3.815c-0.074-0.221-0.14-0.441-0.199-0.662
		c-1.22-3.808-1.396-7.542-0.529-11.204C113.44,124.704,113.161,124.1,112.867,123.527z M116.065,141.017
		c-0.397,1.147-0.89,2.292-1.479,3.44c-1.47,2.706-3.309,4.963-5.513,6.771c-1.588,1.28-3.375,2.339-5.36,3.176
		c-0.662,0.279-1.345,0.53-2.051,0.749c-0.294,0.089-0.588,0.178-0.883,0.266c0.633,0.691,1.221,1.427,1.765,2.204
		c0.72,1.03,1.368,2.141,1.94,3.332c0.5-0.735,1.036-1.434,1.61-2.096c2.97-3.455,6.778-5.903,11.424-7.344
		c1.073-0.339,2.147-0.597,3.22-0.772c-0.837,0.162-1.683,0.368-2.536,0.617c-5.293,1.574-9.498,4.508-12.615,8.8
		c-0.293,0.412-0.58,0.838-0.86,1.28c0.059,0.146,0.125,0.3,0.198,0.464c0.338,0.793,0.641,1.615,0.905,2.47
		c0.103,0.308,0.206,0.617,0.309,0.926c2.073,6.675,1.44,13.114-1.897,19.32c-0.295,0.559-0.596,1.104-0.904,1.633
		c0.47,0.983,1.007,1.933,1.609,2.845c2.971,0.498,5.896,1.528,8.779,3.087c3.808,1.97,6.924,4.499,9.351,7.587
		c3.191,0.293,6.448-0.051,9.771-1.037c6.44-1.955,11.263-5.977,14.469-12.064c3.219-6.086,3.852-12.402,1.896-18.944
		c-0.853-2.705-2.037-5.124-3.55-7.257c0.5-2.265,1.337-4.499,2.514-6.704c2.088-4.014,4.889-7.16,8.403-9.439
		c-0.735-0.323-1.463-0.683-2.185-1.082c-0.366-0.19-0.72-0.381-1.058-0.574c-2.809,4.118-6.654,6.955-11.534,8.514
		c-2.162,0.676-4.294,1.035-6.397,1.081c-3.175,0.043-6.27-0.633-9.284-2.03c-0.397-0.19-0.794-0.389-1.19-0.595
		C121.005,147.553,118.05,144.678,116.065,141.017z M84.284,198.095c-1.75,1.735-3.25,3.786-4.499,6.154
		c-3.22,6.086-3.801,12.409-1.742,18.967c1.956,6.425,5.977,11.248,12.064,14.467c6.087,3.222,12.409,3.854,18.967,1.898
		c2.676-0.867,5.08-2.067,7.211-3.595c-0.455-1-0.852-2.046-1.19-3.133c-2.058-6.778-1.484-13.211,1.72-19.298
		c1.882-3.499,4.293-6.337,7.234-8.513c-0.691-1.471-1.5-2.831-2.426-4.08c-0.412-0.573-0.853-1.118-1.324-1.633
		c-1.911-2.161-4.22-3.97-6.925-5.426c-2.177-1.146-4.375-1.955-6.595-2.426c-0.662-0.133-1.323-0.242-1.984-0.331
		c-1.75-0.22-3.514-0.227-5.293-0.021c-1.676,0.161-3.367,0.515-5.074,1.059C90.43,193.375,87.048,195.346,84.284,198.095z
		 M132.495,199.947c-2.837,0.883-5.63,1.287-8.38,1.214c0.587,0.867,1.131,1.778,1.632,2.733c1.147-0.72,2.382-1.345,3.705-1.874
		l1.831-0.684c0.354-0.132,0.706-0.25,1.058-0.353c4.47-1.411,8.83-1.596,13.079-0.551c0.485-1.81,1.191-3.588,2.118-5.338
		c2.03-3.778,4.683-6.793,7.961-9.042c-2.117-1.529-3.917-3.309-5.403-5.338c-0.5,2.367-1.367,4.697-2.603,6.992
		C144.17,193.912,139.171,197.993,132.495,199.947z M101.619,188.743c0.544,0.016,1.095,0.053,1.654,0.111
		c-0.264-0.442-0.514-0.891-0.749-1.347C102.229,187.921,101.927,188.332,101.619,188.743z M165.952,96.135
		c-0.087,0.015-0.169,0.03-0.241,0.044c-0.177,0.015-0.354,0.037-0.53,0.066c-0.308,0.044-0.617,0.103-0.926,0.176
		c-0.868,0.162-1.742,0.382-2.625,0.662c-0.677,0.206-1.331,0.434-1.963,0.684c-0.544,0.206-1.058,0.434-1.543,0.683
		c-0.25,0.118-0.493,0.244-0.728,0.376c-1.56,0.838-2.979,1.852-4.256,3.043c-1.736,1.632-3.214,3.595-4.435,5.889
		c-1.382,2.602-2.22,5.241-2.514,7.918c-0.191,1.734-0.155,3.477,0.11,5.227c0.177,1.191,0.455,2.382,0.838,3.572
		c1.837,5.852,5.404,10.219,10.697,13.102c5.396,2.749,10.969,3.263,16.717,1.544c5.854-1.838,10.22-5.456,13.101-10.852
		c2.868-5.41,3.382-10.983,1.545-16.717c-1.838-5.749-5.403-10.058-10.697-12.924c-3.72-1.97-7.543-2.831-11.468-2.581
		c-0.324,0.015-0.641,0.044-0.949,0.088C166.041,96.135,165.997,96.135,165.952,96.135z M179.627,150.522
		c0.485-1.882,1.205-3.727,2.162-5.536c0.102-0.175,0.206-0.353,0.308-0.529c-0.984-0.514-1.97-0.947-2.954-1.301
		c-1.529,0.794-3.177,1.456-4.941,1.986c-4.852,1.544-9.557,1.69-14.114,0.441c-2.882,1.896-5.184,4.506-6.904,7.828
		c-2.764,5.177-3.278,10.58-1.544,16.211c1.721,5.632,5.221,9.822,10.499,12.571c0.25,0.133,0.5,0.258,0.749,0.375l0.022,0.021
		c0.03-0.014,0.059-0.028,0.089-0.044c5.778-1.822,11.38-1.587,16.807,0.707c3.602-1.368,6.563-3.508,8.887-6.419
		c-4.146-3.161-7.021-7.344-8.623-12.55c-0.19-0.616-0.36-1.234-0.508-1.852C178.591,158.331,178.613,154.36,179.627,150.522z
		 M186.509,145.516c-0.234,0.472-0.449,0.949-0.639,1.434c-1.781,4.469-1.935,9.094-0.464,13.873
		c1.264,4.131,3.491,7.491,6.682,10.079c0.853,0.691,1.787,1.338,2.801,1.94c0.338,0.191,0.684,0.383,1.037,0.573
		c5.16,2.751,10.557,3.265,16.188,1.544c5.631-1.719,9.822-5.167,12.571-10.343c2.765-5.16,3.286-10.615,1.565-16.365
		c-1.734-5.631-5.242-9.821-10.52-12.572c-5.177-2.764-10.572-3.286-16.188-1.565c-5.632,1.734-9.829,5.242-12.594,10.52
		C186.788,144.928,186.641,145.223,186.509,145.516z M165.247,184.267c-5.631,1.721-9.881,5.219-12.748,10.498
		c-1.278,2.412-2.065,4.867-2.36,7.366c0.383,0.178,0.765,0.368,1.147,0.574c5.955,3.146,9.932,7.888,11.931,14.225
		c0.104,0.31,0.207,0.618,0.311,0.927c0.734,2.426,1.14,4.8,1.213,7.124c4.176,1.455,8.535,1.499,13.078,0.133
		c5.632-1.736,9.83-5.185,12.594-10.345c2.749-5.292,3.264-10.748,1.544-16.365c-1.721-5.631-5.228-9.828-10.521-12.593
		c-1.396-0.749-2.815-1.331-4.257-1.743c-3.484-1.014-7.08-1.051-10.785-0.109C166.013,184.047,165.629,184.148,165.247,184.267z
		 M215.488,189.493c-1.25,4.015-1.228,8.191,0.065,12.527c1.721,5.617,5.169,9.808,10.345,12.571
		c0.573,0.31,1.154,0.589,1.742,0.839c3.146,1.322,6.353,1.875,9.616,1.653c2.043-1.439,4.33-2.573,6.859-3.396
		c0.293-0.104,0.595-0.207,0.904-0.31c1.455-0.426,2.896-0.728,4.321-0.905c2.235-1.793,4.073-4.072,5.515-6.835
		c2.749-5.177,3.265-10.579,1.543-16.211c-1.72-5.631-5.226-9.822-10.52-12.571c-5.16-2.765-10.557-3.279-16.188-1.545
		c-5.631,1.721-9.821,5.162-12.57,10.322C216.444,186.897,215.9,188.186,215.488,189.493z M175.171,231.708
		c1.354,0.44,2.699,0.999,4.038,1.675c3.895,2.044,6.946,4.779,9.151,8.204c1.721-2.483,3.779-4.55,6.176-6.197
		c-1.309-0.456-2.61-1.029-3.904-1.721c-2.778-1.425-5.123-3.205-7.035-5.336c-1.839,1.146-3.866,2.065-6.087,2.757
		C176.73,231.324,175.951,231.53,175.171,231.708z M145.045,202.131c-3.411-0.705-6.903-0.515-10.476,0.574
		c-5.631,1.719-9.822,5.22-12.571,10.497c-2.765,5.176-3.287,10.579-1.567,16.211c1.736,5.749,5.183,9.999,10.344,12.748
		c4.543,2.366,9.205,3.043,13.983,2.029c3.264-6.06,8.125-10.138,14.579-12.241c0.293-0.103,0.595-0.206,0.903-0.309
		c0.09-0.029,0.184-0.053,0.288-0.066c0.132-0.322,0.257-0.647,0.374-0.97c1.69-4.471,1.816-9.058,0.375-13.763
		c-1.721-5.631-5.22-9.829-10.498-12.593C148.898,203.248,146.986,202.543,145.045,202.131z M149.743,243.881
		c-0.926,1.78-1.596,3.573-2.006,5.381c-0.81,3.588-0.604,7.249,0.617,10.984c1.721,5.631,5.168,9.829,10.344,12.594
		c5.278,2.748,10.733,3.264,16.364,1.543c5.631-1.72,9.829-5.226,12.593-10.52c2.751-5.161,3.265-10.558,1.545-16.188
		c-1.721-5.632-5.228-9.881-10.521-12.748c-4.853-2.603-9.91-3.161-15.174-1.675c-0.339,0.087-0.677,0.183-1.016,0.284
		c-1.382,0.412-2.668,0.928-3.859,1.545c-3.218,1.633-5.821,3.963-7.806,6.992C150.441,242.646,150.081,243.249,149.743,243.881z"/>
	<path fill-rule="evenodd" clip-rule="evenodd" fill="#58A445" d="M140.436,16.958l1.542,3.44c1.029,2.867,1.832,5.625,2.405,8.271
		c0.573,2.22,0.698,5.58,0.375,10.079c0.353-0.25,0.691-0.566,1.014-0.948c1.03-1.029,2.066-2.925,3.11-5.689l5.844,16.541
		c0.721,3.191,1.029,7.352,0.927,12.483l5.446-5.58v0.022l0.861,4.102c0.5,2.794,0.787,5.162,0.859,7.102
		c2.662-1.426,5.346-3.396,8.051-5.91c6.205-5.617,10.285-11.814,12.24-18.593c2.412-9.189,0.169-15.857-6.727-20.003
		c-1.955-1.147-3.734-1.434-5.337-0.86c-1.382,0.455-2.529,1.375-3.439,2.757c-0.692,1.264-1.038,2.47-1.038,3.617
		c0,1.264,0.456,2.241,1.368,2.933c1.264,0.927,2.933,1.044,5.006,0.353c0.573-0.118,0.919-0.294,1.036-0.529l2.758-0.331
		c0.117,1.146-0.457,2.176-1.722,3.088c-1.265,0.69-2.704,1.037-4.322,1.037c-1.72,0-3.212-0.397-4.477-1.191
		c-1.484-1.043-2.345-2.544-2.58-4.499c-0.118-2.059,0.396-4.007,1.543-5.845c1.265-2.074,2.992-3.397,5.184-3.97
		c2.411-0.809,4.882-0.463,7.41,1.037c4.015,2.294,6.713,5.454,8.096,9.483c1.38,4.014,1.322,8.55-0.178,13.608
		c-2.176,7.469-6.544,14.248-13.101,20.334c-3.294,2.97-6.595,5.219-9.903,6.749c-0.191,2.573-0.551,5.609-1.08,9.109l4.323-2.581
		c0,0.014,0,0.037,0,0.066c-1.485,6.16-2.691,10.27-3.617,12.328l-3.132,6.286l-0.044,0.022c-0.089,0.015-0.178,0.036-0.266,0.066
		c-1.104,0.353-2.153,0.757-3.153,1.213c2.059-3.97,3.455-6.844,4.19-8.623l1.896-5.845l-5.867,3.97l1.037-6.22
		c0.793-4.94,1.249-8.962,1.367-12.064l-0.176-5.338l-7.389,7.41l0.33-6.726c0.236-5.735-0.051-10.211-0.86-13.432l-2.756-9.814
		c-1.484,1.485-2.918,2.228-4.3,2.228l-3.11,0.354l0.177-3.11c0.69-3.897,0.69-7.228,0-9.991c-0.118-0.911-0.633-2.75-1.544-5.514
		l-1.037,1.39c-2.529,2.059-3.853,3.146-3.97,3.264l-3.264,1.896l-0.706-3.617c-0.794-5.058-1.596-8.91-2.404-11.556
		c-0.456-1.603-1.544-4.184-3.265-7.742l-2.426-4.653l2.934,3.97c2.073,3.102,3.507,5.572,4.301,7.411
		c1.382,3.087,2.536,7.101,3.462,12.042l0.684-0.529c-0.926-4.926-2.074-8.881-3.441-11.866c-0.808-1.838-2.249-4.309-4.322-7.41
		l-2.934-3.97c-0.103,0.132-0.206,0.272-0.309,0.419c0.103-0.25,0.206-0.5,0.309-0.75l3.463,4.124
		c2.411,3.221,4.014,5.808,4.808,7.763c1.294,2.78,2.434,6.411,3.418,10.895l1.765-1.434
		C136.693,22.457,138.245,20.281,140.436,16.958z M98.245,25.582l2.889,3.771c0.527,0.775,0.997,1.404,1.412,1.886
		c0.02-0.083,0.042-0.168,0.065-0.254l2.846-8.867l3.044-7.608l0.573-2.206l2.934,4.124c0.69,0.78,1.359,1.324,2.006,1.632
		c0.294-0.868,0.596-1.868,0.905-3c0.015-0.03,0.022-0.051,0.022-0.065l0.331-0.816c0.735-1.867,1.44-3.39,2.116-4.566l0.067-0.132
		c0.029-0.03,0.051-0.067,0.066-0.11l4.124-5.867c-0.117,0.456-0.977,2.066-2.581,4.831c-1.499,2.984-2.418,5.049-2.756,6.197
		c-0.575,2.191-0.861,4.146-0.861,5.866c-1.955,0.809-3.911,0.235-5.867-1.72l-1.72,4.301c-0.912,2.411-1.948,5.631-3.11,9.659
		l-0.86,3.617l-3.088-2.073l-2.249-2.426l-2.58,7.255c-0.809,2.633-1.5,5.963-2.074,9.991l-0.684,4.478l-3.44-2.757
		c-0.456,0-1.603-0.919-3.441-2.757l-1.038-1.037c-0.926,2.412-1.447,4.308-1.565,5.69c-0.22,2.412-0.162,5.456,0.176,9.131
		l0.176,1.368l-1.037,0.859c-1.264,1.265-2.984,1.382-5.161,0.353c-0.471,2.294-0.706,4.074-0.706,5.338
		c0,2.764,0.581,5.756,1.742,8.977l0.86,2.051l-1.897,1.037c-1.382,0.69-2.646,0.977-3.793,0.86l1.72,5.007
		c0.911,2.058,2.176,4.183,3.794,6.373l1.543,2.074l-2.228,1.544c-0.588,0.573-1.625,0.918-3.11,1.037
		c1.382,2.984,3.044,5.396,4.985,7.234c3,3.102,6.219,5.108,9.66,6.021c-0.353,0.5-0.691,0.962-1.015,1.389h-0.022
		c-0.396,0.118-0.778,0.25-1.147,0.396l-2.381,0.994c-2.544,1.19-4.742,2.793-6.595,4.807c-0.279-0.191-0.559-0.375-0.838-0.552
		c-0.779-0.382-1.602-0.771-2.47-1.168c-2.984-1.485-5.859-2.69-8.623-3.617l0.353,0.508l1.037,3.109l-3.11-0.508
		c-0.118-0.117-1.095-0.352-2.933-0.706c-2.059-0.338-3.61-0.565-4.654-0.684l-4.3-0.175c0.117,0.234,0.287,0.353,0.507,0.353
		l3.287,2.756l-4.324,0.507c-3.439,0.47-6.197,0.992-8.27,1.566l-3.617,1.19l6.374,3.462l-4.654,1.191
		c-3.778,0.926-6.704,1.963-8.777,3.111l-6.022,3.792c1.603,0.81,2.404,1.61,2.404,2.404l0.86,2.073l-2.25,0.508
		c-2.75,0.47-4.926,1.103-6.529,1.896l-3.286,2.249l1.036,0.353c1.03,0.457,2.007,1.14,2.934,2.052l1.896,1.742l-2.249,1.189
		c-3.22,1.618-5.633,2.941-7.234,3.971c-1.03,0.691-2.521,1.956-4.478,3.794l-2.227,2.248c4.926,1.03,7.733,1.486,8.425,1.369
		c1.617,0,2.999-0.178,4.146-0.529c0.913,1.16,0.913,2.602,0,4.321l3.264,0.331c1.72,0.118,4.072,0.118,7.057,0h2.603l-0.86,2.425
		c0,0.222-0.404,0.905-1.213,2.053c2.646,0.235,4.485,0.293,5.514,0.177l7.057-0.508l3.11-0.529l-2.25,5.689l-0.507,1.038
		c1.956,0,3.279-0.058,3.97-0.178c1.72-0.219,3.786-0.853,6.197-1.896l0.86-0.331l0.022,0.021c-0.088,1.912,0.067,3.854,0.463,5.822
		h-1.345c0.085-0.098,0.167-0.201,0.243-0.309l0.442-2.602c0.058-0.311,0.073-0.582,0.044-0.816l-0.044-0.044
		c-2.529,1.029-4.713,1.713-6.551,2.051c-1.147,0.117-2.757,0.117-4.83,0l-2.911-0.177l2.051-3.947l0.75-1.984
		c-0.059,0-0.11,0.006-0.155,0.021c-2.455,0.368-4.565,0.56-6.33,0.574h-0.286l-9.484-0.684l1.896-2.757
		c0.471-0.472,0.824-0.884,1.059-1.235l-12.946-0.618c-0.147,0-0.287-0.008-0.419-0.021l-0.793-0.022l2.249-2.757
		c0.368-0.573,0.596-1.088,0.684-1.544c-2.676-0.016-4.801-0.25-6.374-0.704l-4.809-1.7l-0.088,0.089l0.199,0.065l-0.243-0.022
		l-0.22,0.199l0.177-0.221l-0.883-0.131l2.074-3.265c1.72-2.293,3.103-3.904,4.146-4.83c1.602-1.382,3.859-2.824,6.771-4.323
		c-0.47-0.308-0.948-0.588-1.434-0.837l-5.161-1.897l1.875-1.72c1.735-1.265,3.404-2.36,5.006-3.287
		c1.44-0.765,3.654-1.529,6.639-2.293c-0.221-0.162-0.478-0.316-0.772-0.463c-0.47-0.221-1.39-0.45-2.756-0.685l-1.721-0.176
		l9.991-7.234c2-1.162,4.831-2.176,8.492-3.043l-5.051-2.647l2.426-1.279c-2.322-0.441-3.749-2.146-4.278-5.117
		c-0.911-5.984,1.846-10.41,8.271-13.277c4.602-1.956,9.719-2.529,15.35-1.721c2.265,0.309,4.309,0.817,6.132,1.521
		c-1.294-1.867-2.324-3.624-3.088-5.271c-1.838-3.456-2.926-7.08-3.264-10.873c-0.235-4.25-0.64-7.983-1.213-11.204
		c-0.573-3.103-1.668-6.778-3.287-11.027l-2.755-4.985c-1.368-2.073-2.516-3.565-3.441-4.478c-1.382-1.381-2.815-2.418-4.3-3.11
		c-1.618-0.691-3.286-0.977-5.007-0.86c-1.484,0.118-3.094,0.75-4.83,1.897c-1.367,0.912-2.683,2.058-3.947,3.44l-0.86,1.037
		l-0.354,0.353v0.176l-0.507,0.508l-0.86,1.212l-1.896,3.264l-0.861,2.581c-0.574,1.382-0.978,3.05-1.213,5.006
		c-0.234,2.295-0.293,4.015-0.176,5.162c0,1.837,0.176,3.507,0.529,5.006l1.544,4.83c0.573,1.367,1.316,2.743,2.228,4.125
		c0.574,1.147,1.492,2.352,2.757,3.617c2.309,2.072,4.779,3.109,7.411,3.109c0.926,0,2.19-0.345,3.793-1.037l0.861-0.353
		l0.353-0.331l0.507-0.176l1.566-1.39c2.059-1.485,3.551-3.492,4.478-6.021c1.03-2.191,1.544-4.433,1.544-6.728
		c0.117-4.249-0.801-7.983-2.757-11.203c-0.221-0.574-0.676-0.97-1.367-1.191c-0.691-0.352-1.213-0.64-1.566-0.86
		c-0.338-0.353-1.022-0.353-2.051,0c-1.044,0.338-1.677,0.508-1.897,0.508c-0.69-0.118-1.154-0.574-1.39-1.368
		c0-0.809,0-1.271,0-1.389l-0.176-0.353l2.933-0.508c1.03,0,2.125,0.345,3.287,1.037c1.028,0.573,2.235,1.661,3.617,3.264
		c2.41,3.102,3.675,7.124,3.793,12.063c0.22,2.647-0.185,5.293-1.214,7.94c-1.265,3.206-2.933,5.675-5.006,7.411L44.1,95.871
		l-0.331,0.353h-0.176l-0.176,0.155l-1.368,0.705c-1.5,0.911-3.228,1.426-5.183,1.544c-3.559,0.338-6.947-0.986-10.167-3.971
		c-2.632-2.293-4.697-5.337-6.198-9.131c-1.264-3.22-2.014-6.896-2.249-11.027l0.353-5.867c0.456-2.176,0.971-4.065,1.544-5.668
		l1.212-2.934l1.036-1.896l2.581-3.617v-0.176h0.176l0.177-0.177l0.176-0.331l1.015-1.037c1.265-1.264,2.874-2.588,4.83-3.97
		c2.073-1.147,4.139-1.779,6.198-1.897c1.955-0.118,4.029,0.397,6.219,1.544c1.603,0.691,3.206,1.956,4.808,3.794
		c0.926,1.043,2.081,2.712,3.462,5.006l2.404,5.337c1.382,3.559,2.418,7.292,3.11,11.204l1.543,11.358
		c0.353,3.455,1.559,6.793,3.617,10.014c1.617,2.867,3.741,5.623,6.373,8.27l7.234,7.058c1.705,1.47,3.404,2.889,5.095,4.256
		l3.021-0.993c1.044-0.367,1.779-0.668,2.206-0.903c-2.412-1.015-5.22-3.125-8.425-6.331c-2.176-2.177-3.897-4.756-5.162-7.741
		l-1.389-3.97l0.066,0.022l1.323,0.331c1.147,0.337,2.066,0.448,2.757,0.331c0.353,0,0.78-0.125,1.28-0.375
		c-1.485-2.176-2.713-4.345-3.683-6.506c-0.25-0.5-0.5-1.11-0.75-1.831c-0.412-1.191-0.793-2.653-1.146-4.389l-0.706-3.771
		l3.286,1.191l-3.97-2.404l4.83,2.493l0.066,0.044c0.485-0.029,0.978-0.184,1.479-0.463c-0.074-0.191-0.147-0.375-0.221-0.551
		c-1.03-2.721-1.625-5.323-1.788-7.808c-0.014-0.044-0.022-0.096-0.022-0.155c-0.029-0.338-0.044-0.676-0.044-1.015
		c0-0.103,0-0.205,0-0.308c0-1.956,0.346-4.191,1.037-6.705l0.86-3.287l0.044,0.044c0.03,0.03,0.059,0.06,0.087,0.089l0.289,0.243
		l3.374,1.697c0.426,0.221,0.815,0.339,1.168,0.354c0.015,0,0.03,0,0.044,0v-0.022c-0.456-3.896-0.515-7.168-0.177-9.814
		c0.235-1.604,0.867-3.896,1.896-6.882l1.39-3.793l6.992,6.375c0.544-3.823,1.198-7.043,1.963-9.66l4.83-12.748L98.245,25.582z
		 M108.037,52.797c2.75,4.587,4.874,7.801,6.374,9.638c1.603,1.838,3.154,3.22,4.653,4.146c-2.528-5.41-2.992-14.945-1.389-28.604
		c1.956-16.438,2.874-25.577,2.756-27.415c1.736,8.969,2.772,20.975,3.111,36.016c0.234,11.028,1.381,17.747,3.439,20.159
		c-0.103,1.382,0.707,1.903,2.426,1.565c1.721-0.353,3.441-1.331,5.161-2.933c2.191-1.956,4.837-4.713,7.94-8.271
		c3.088-3.677,4.977-6.264,5.668-7.764c-0.573,2.882-1.604,6.675-3.086,11.381c-2.075,6.087-3.854,10.05-5.339,11.888
		c-2.426,2.984-5.3,5.454-8.623,7.41c-2.985,1.838-4.882,3.448-5.69,4.83c-2.176,3.441-3.381,5.683-3.617,6.728
		c-0.338,1.94,0.64,3.778,2.934,5.513c2.059,0.456,3.322,0.684,3.794,0.684c1.485,0,3.088-0.691,4.808-2.073
		c2.426-1.721,6.161-5.911,11.204-12.571c4.484-5.866,7.358-9.947,8.623-12.241c-0.572,1.956-2.756,6.322-6.549,13.101
		c-4.014,6.999-6.89,11.307-8.624,12.924c-1.485,1.383-3.72,2.933-6.704,4.655c-3.338,1.837-5.522,3.153-6.551,3.947
		c-0.574,0.471-1.095,1.794-1.566,3.97c-0.25,0.603-0.404,1.404-0.463,2.404c-2.853,1.969-5.161,4.616-6.925,7.94
		c-0.619,1.161-1.125,2.329-1.522,3.505c-0.867-1.618-1.912-3.072-3.132-4.367c-1.22-1.881-2.83-3.433-4.83-4.653
		c-4.029-2.294-6.727-4.132-8.094-5.514c-1.381-1.382-3.456-5.235-6.219-11.558c-2.529-5.734-4.081-9.755-4.654-12.064
		c1.382,2.309,3.506,5.47,6.374,9.483c3.676,4.94,6.668,8.389,8.977,10.344c3.103,2.75,6.432,4.36,9.99,4.831
		c0.913,0.117,1.427-0.169,1.544-0.861c0.117-1.147,0.236-2.184,0.353-3.109c0.22-1.5,0.162-2.537-0.176-3.11
		c-0.573-0.677-1.147-1.595-1.721-2.756c-0.925-1.603-2.418-3.264-4.476-4.985c-2.308-1.955-4.551-4.543-6.727-7.763
		c-1.603-2.294-3.61-6.603-6.021-12.924c-2.19-5.97-3.455-9.992-3.793-12.063c0.573,1.381,2.926,4.946,7.058,10.696
		c3.337,4.587,5.808,7.918,7.411,9.991c6.322,7.352,10.115,9.932,11.38,7.741c0.338-0.677,0.625-3.434,0.86-8.271
		c0.795-1.368,1.309-2.286,1.543-2.757c0.456-0.794,0.456-1.595,0-2.403c-0.808-1.604-2.014-3.095-3.616-4.478
		c-2.53-2.191-3.912-3.397-4.147-3.618c-1.25-1.499-3.087-5.984-5.513-13.453c-1.838-6.308-2.985-10.153-3.441-11.535
		C103.779,45.673,105.39,48.548,108.037,52.797z M66.397,104.604c-2.309-1.5-5.242-2.47-8.8-2.911
		c-5.396-0.691-10.168-0.118-14.313,1.72c-2.059,0.793-3.779,2-5.161,3.617c-1.838,2.176-2.47,4.764-1.896,7.764
		c0.47,2.632,1.962,3.831,4.476,3.595c2.176-0.457,3.213-1.434,3.11-2.934c0-0.912-0.625-1.771-1.874-2.58l-0.706-0.331l-1.39-1.213
		c0.574-0.573,1.323-0.684,2.25-0.331c0.794,0.221,1.602,0.793,2.426,1.72c0.676,0.794,1.073,1.654,1.19,2.58
		c0.089,0.794-0.073,1.559-0.484,2.294c1.882-0.412,4.102-0.787,6.661-1.125l0.661,0.596l-3.264-3.11h8.955l7.763,1.39
		c-0.353-1.044-0.933-1.963-1.743-2.757l-2.403-2.25l0.948,0.375l-1.456-0.706l1.411,0.53l-1.411-1.411l12.549,4.763
		c-0.043-0.044-0.08-0.095-0.109-0.154l-2.625-3.97l-4.146-4.411C66.809,105.104,66.604,104.854,66.397,104.604z M52.546,117.065
		c-3.557,0.456-6.425,0.97-8.601,1.544l-7.764,2.757l8.271-2.228c2.176-0.69,5.05-1.212,8.624-1.566L52.546,117.065z
		 M57.884,127.057c-4.705-1.839-8.035-2.985-9.991-3.441c1.618,0,5.006,0.632,10.167,1.896c5.396,1.265,8.844,2.353,10.344,3.264
		c1.147,0.691,2.64,1.897,4.478,3.617c0.205,0.192,0.404,0.375,0.595,0.553c-0.147,2.529,0.169,5.101,0.948,7.719
		c0.441,1.382,0.986,2.676,1.632,3.882c-0.132,0.146-0.272,0.293-0.419,0.44c-0.912,1.031-1.771,2.346-2.581,3.948
		c-0.029,0.075-0.058,0.148-0.087,0.221l-3.617,1.653c-2.162,1.177-4.088,2.655-5.779,4.434c0.81-1.116,1.382-1.956,1.721-2.514
		c1.044-1.265,2.022-2.816,2.934-4.655c1.382-2.647,1.441-4.139,0.176-4.476c-0.573-0.119-2.528,0.285-5.867,1.213
		c-1.146-0.354-1.889-0.529-2.227-0.529c-0.573-0.222-1.095-0.104-1.566,0.352c-0.911,0.913-1.654,2.059-2.228,3.44
		c-0.926,2.075-1.441,3.22-1.543,3.442c-0.691,1.161-3.337,3.293-7.94,6.396c-3.896,2.631-6.366,4.175-7.41,4.631
		c0.809-0.456,2.537-2.118,5.183-4.985c2.514-2.764,4.234-4.829,5.161-6.197c0.809-1.264,1.441-2.588,1.897-3.97
		c-3.22,2.75-9.542,4.934-18.968,6.55c-11.365,1.956-17.622,3.161-18.769,3.617c5.631-2.984,13.438-6.087,23.423-9.307
		c7.352-2.294,11.608-4.36,12.77-6.196c0.911-0.119,1.08-0.751,0.507-1.898c-0.456-1.043-1.375-2.021-2.757-2.934
		c-1.72-1.028-4.132-2.234-7.233-3.617c-2.985-1.382-5.051-2.131-6.198-2.248c1.603-0.222,4.301-0.273,8.095-0.154
		c4.484,0.102,7.469,0.499,8.954,1.189c2.529,1.044,4.83,2.485,6.903,4.324c1.72,1.604,3.154,2.521,4.3,2.756
		c2.867,0.793,4.588,1.191,5.161,1.191c1.382-0.117,2.418-1.147,3.109-3.087c-0.117-1.618-0.235-2.485-0.353-2.604
		c-0.338-1.029-1.081-1.999-2.227-2.911C66.86,130.798,63.295,129.129,57.884,127.057z M42.181,124.521
		c-4.029,0.896-7.124,2.029-9.286,3.396l-8.954,5.689h0.022l9.461-5.337c2.176-1.265,5.279-2.418,9.308-3.462L42.181,124.521z
		 M28.595,136.363c-3.323,0.574-5.676,1.265-7.058,2.074l-5.337,3.55l5.668-3.043c1.5-0.809,3.859-1.552,7.08-2.227
		c-0.104-0.28-0.287-0.537-0.552-0.772C28.485,136.077,28.551,136.216,28.595,136.363z M8.988,158.153l1.852-2.491
		c1.618-2.073,2.941-3.566,3.97-4.478c1.838-1.5,4.309-3.051,7.411-4.655c-0.191-0.161-0.39-0.322-0.595-0.485
		c-3.059,1.721-5.44,3.316-7.146,4.786c-1.044,0.927-2.426,2.368-4.146,4.322l-2.073,2.759L8.988,158.153z M109.074,151.229
		l-2.978,7.631c-0.574,0.662-1.111,1.36-1.61,2.096c-0.411-0.854-1.529-2.492-3.352-4.919c-0.088-0.043-0.228-0.14-0.42-0.287
		v-0.483c0.03,0.028,0.06,0.058,0.088,0.087c0,0.015,0.008,0.022,0.022,0.022l2.889-0.971
		C105.699,153.567,107.485,152.509,109.074,151.229z M144.428,38.947l-0.729,0.221c0.455-4.823,0.455-8.382,0-10.675l-2.647-8.491
		l1.787,8.844c0.573,2.411,0.631,5.969,0.175,10.674l0.86-0.352C144.067,39.109,144.251,39.035,144.428,38.947z M74.094,121.19
		c1.044,0.44,2.015,0.86,2.911,1.257c-0.353,0.53-0.69,1.087-1.015,1.677c-0.132,0.249-0.256,0.507-0.375,0.771
		c-1.118-0.853-2.375-1.742-3.771-2.668c-3.323-2.176-5.734-3.609-7.234-4.3C65.993,118.161,69.154,119.25,74.094,121.19z
		 M161.1,55.576l-0.152,12.197c0,3.337-0.464,7.535-1.391,12.593l0.706-0.397c0.911-5.043,1.367-9.219,1.367-12.527L161.1,55.576z
		 M154.418,62.392c0.309-5.779,0.016-10.359-0.882-13.741l-3.969-13.586l3.263,13.939c0.926,3.559,1.213,8.264,0.86,14.116
		L154.418,62.392z"/>
	<path fill="#BF5783" d="M204.02,208.727c-1.838-0.913-3.043-2.345-3.616-4.303c-0.574-1.955-0.404-3.792,0.507-5.513
		c0.927-1.839,2.36-3.044,4.301-3.617c1.309-0.412,2.616-0.44,3.926-0.088c-0.353,3.337,0.007,6.756,1.079,10.255
		c0.324,1.03,0.692,2.015,1.104,2.955c-0.161,0.118-0.33,0.222-0.508,0.311c-0.411,0.219-0.838,0.396-1.279,0.529
		C207.578,209.829,205.74,209.652,204.02,208.727z M101.31,132.393c0.029,0,0.059-0.007,0.088-0.021
		c0.926-0.281,1.72-0.75,2.381-1.412c0.442-0.457,0.825-1.007,1.147-1.654c0.074-0.117,0.14-0.229,0.199-0.331
		c0.441-0.823,0.662-1.662,0.662-2.515c0-0.588-0.111-1.191-0.332-1.808c-0.574-1.618-1.611-2.823-3.11-3.618
		c-1.485-0.807-3.095-0.984-4.831-0.528c-1.234,0.353-2.227,1.043-2.977,2.072c-0.235,0.31-0.449,0.655-0.64,1.037
		c-0.661,1.22-0.889,2.492-0.684,3.815c0.029,0.221,0.074,0.441,0.132,0.662c0.015,0.059,0.03,0.118,0.044,0.176
		c0.235,0.661,0.552,1.25,0.948,1.764c0.543,0.765,1.257,1.382,2.139,1.854C98.097,132.797,99.708,132.967,101.31,132.393z
		 M109.404,200.301c-1.94-1.044-4.065-1.221-6.374-0.529c-2.294,0.69-3.955,2.073-4.985,4.146c-0.866,1.559-1.205,3.16-1.014,4.809
		c0.058,0.514,0.169,1.036,0.331,1.564c0.676,2.177,2.051,3.838,4.125,4.984c2.072,1.045,4.256,1.221,6.55,0.53
		c2.176-0.69,3.786-2.073,4.83-4.147c0.544-0.97,0.882-1.946,1.014-2.932c0.147-1.133,0.037-2.279-0.331-3.442
		C112.859,203.109,111.478,201.447,109.404,200.301z M136.819,164.439c-0.574-1.94-1.728-3.315-3.463-4.125
		c-1.838-0.926-3.727-1.102-5.668-0.527c-1.838,0.47-3.22,1.623-4.146,3.461c-1.03,1.721-1.258,3.558-0.685,5.514
		c0.574,1.957,1.78,3.389,3.617,4.302c1.72,0.926,3.559,1.103,5.514,0.529c1.956-0.59,3.389-1.742,4.301-3.463
		C137.216,168.292,137.392,166.396,136.819,164.439z M205.74,154.118c1.838,0.912,3.675,1.08,5.514,0.507
		c1.955-0.573,3.389-1.779,4.3-3.618c0.926-1.837,1.104-3.674,0.529-5.513c-0.572-1.956-1.778-3.389-3.615-4.3
		c-1.839-0.928-3.677-1.103-5.515-0.529c-1.955,0.574-3.396,1.779-4.322,3.617c-0.912,1.838-1.081,3.674-0.507,5.513
		C202.696,151.75,203.902,153.191,205.74,154.118z M178.679,149.972c-1.838-0.912-3.676-1.081-5.514-0.508
		c-1.955,0.574-3.39,1.779-4.3,3.618c-0.927,1.838-1.104,3.676-0.529,5.515c0.587,1.955,1.8,3.388,3.638,4.3
		c1.839,0.926,3.677,1.104,5.514,0.529c0.779-0.235,1.47-0.565,2.073-0.992c-0.97-4.102-0.947-8.072,0.066-11.91
		C179.334,150.316,179.017,150.134,178.679,149.972z M93.502,160.845c-0.309-0.766-0.72-1.435-1.235-2.007
		c-0.588-0.662-1.309-1.206-2.161-1.633c-1.838-0.912-3.676-1.079-5.514-0.508c-1.941,0.573-3.375,1.78-4.301,3.617
		c-0.911,1.838-1.08,3.677-0.507,5.515c0.456,1.544,1.301,2.765,2.536,3.661c0.339,0.235,0.699,0.448,1.081,0.64
		c0.235,0.117,0.47,0.229,0.706,0.331c1.514,0.631,3.117,0.697,4.808,0.198c1.955-0.574,3.389-1.779,4.3-3.617
		c0.926-1.838,1.095-3.676,0.507-5.514C93.649,161.292,93.576,161.065,93.502,160.845z M133.621,124.63
		c0.603,1.382,1.551,2.419,2.845,3.109c0.132,0.074,0.264,0.148,0.397,0.221c1.47,0.735,2.948,0.838,4.433,0.309
		c0.132-0.043,0.265-0.088,0.397-0.132c-0.015-0.074-0.037-0.147-0.067-0.22c-0.278-0.883-0.507-1.757-0.684-2.625
		c-0.367-1.72-0.558-3.412-0.573-5.073c-0.015-1.412,0.096-2.809,0.331-4.19c-0.573-0.104-1.169-0.126-1.787-0.066
		c-0.455,0.03-0.926,0.11-1.411,0.242c-1.603,0.574-2.809,1.603-3.618,3.088c-0.25,0.455-0.434,0.919-0.551,1.389
		c-0.309,1.06-0.301,2.147,0.022,3.265C133.429,124.182,133.518,124.409,133.621,124.63z M175.414,240.616
		c-1.72-0.926-3.558-1.102-5.514-0.528c-1.955,0.572-3.396,1.778-4.322,3.617c-0.911,1.735-1.081,3.572-0.507,5.514
		c0.573,1.956,1.779,3.338,3.616,4.146c1.722,0.91,3.559,1.08,5.514,0.507c1.955-0.455,3.39-1.603,4.301-3.44
		c0.927-1.721,1.103-3.559,0.528-5.514C178.458,242.962,177.252,241.528,175.414,240.616z M253.466,256.806
		c-1.837-0.911-3.733-1.081-5.688-0.507c-1.956,0.573-3.39,1.778-4.302,3.616c-0.926,1.722-1.103,3.558-0.529,5.514
		c0.588,1.838,1.801,3.272,3.64,4.3c1.721,0.926,3.559,1.104,5.514,0.529c1.941-0.587,3.375-1.801,4.3-3.638
		c0.913-1.721,1.081-3.559,0.509-5.514C256.334,259.165,255.188,257.73,253.466,256.806z M147.493,209.763
		c-0.926-0.455-1.845-0.729-2.756-0.817c-0.926-0.073-1.845,0.03-2.758,0.311c-1.954,0.573-3.388,1.778-4.3,3.616
		c-0.926,1.839-1.103,3.675-0.529,5.515c0.574,1.954,1.78,3.389,3.618,4.3c1.734,0.925,3.572,1.103,5.513,0.529
		c1.191-0.354,2.19-0.911,3.001-1.677c0.513-0.499,0.955-1.095,1.322-1.786c0.911-1.837,1.081-3.728,0.506-5.668
		C150.536,212.129,149.331,210.688,147.493,209.763z M263.811,226.656c-0.572-1.955-1.779-3.39-3.616-4.301
		c-1.721-0.927-3.559-1.103-5.515-0.529c-1.955,0.573-3.396,1.779-4.323,3.617c-0.91,1.72-1.08,3.558-0.506,5.514
		c0.572,1.956,1.778,3.396,3.615,4.323c1.722,0.91,3.559,1.08,5.515,0.507c1.955-0.574,3.39-1.779,4.301-3.617
		C264.207,230.331,264.385,228.495,263.811,226.656z M245.704,192.185c0.926-1.838,1.102-3.676,0.529-5.515
		c-0.573-1.955-1.78-3.388-3.617-4.3c-1.838-0.927-3.677-1.096-5.514-0.507c-1.955,0.573-3.396,1.779-4.323,3.616
		c-0.911,1.72-1.081,3.559-0.507,5.515c0.573,1.939,1.778,3.374,3.616,4.3c1.839,0.912,3.677,1.081,5.515,0.508
		C243.358,195.229,244.792,194.021,245.704,192.185z M168.004,117.572c1.839,0.927,3.735,1.103,5.69,0.529
		c1.94-0.573,3.434-1.778,4.478-3.617c0.91-1.956,1.08-3.911,0.507-5.867c-0.574-1.837-1.779-3.272-3.617-4.3
		c-1.838-0.926-3.734-1.103-5.69-0.53c-1.94,0.574-3.433,1.779-4.477,3.618c-0.911,1.837-1.08,3.734-0.507,5.69
		C164.96,115.051,166.166,116.543,168.004,117.572z M217.274,240.793c-1.721-0.926-3.558-1.103-5.513-0.529
		c-1.955,0.574-3.39,1.779-4.302,3.617c-0.926,1.721-1.095,3.559-0.507,5.514c0.574,1.838,1.72,3.279,3.441,4.322
		c1.72,0.912,3.558,1.08,5.513,0.508c1.956-0.573,3.389-1.778,4.301-3.616c0.927-1.721,1.104-3.559,0.53-5.515
		C220.267,243.139,219.113,241.704,217.274,240.793z M178.172,191.325c-1.838-0.913-3.677-1.082-5.515-0.509
		c-1.955,0.574-3.396,1.78-4.321,3.617c-0.913,1.721-1.081,3.56-0.509,5.514c0.574,1.957,1.779,3.39,3.617,4.302
		c1.721,0.926,3.559,1.103,5.515,0.529c1.955-0.574,3.388-1.779,4.301-3.617c0.926-1.838,1.103-3.677,0.529-5.515
		C181.215,193.69,180.01,192.251,178.172,191.325z"/>
	<path fill-rule="evenodd" clip-rule="evenodd" fill="#74C15A" d="M98.266,25.626l-0.021-0.044v-0.044L98.266,25.626z
		 M137.678,25.229l1.037-1.39c0.912,2.764,1.427,4.603,1.544,5.514c0.69,2.764,0.69,6.094,0,9.991l-0.177,3.11l3.11-0.354
		c1.382,0,2.816-0.743,4.3-2.228l2.756,9.814c0.81,3.221,1.097,7.697,0.86,13.432l-0.33,6.726l7.389-7.41l0.176,5.338
		c-0.118,3.102-0.574,7.124-1.367,12.064l-1.037,6.22l5.867-3.97l-1.896,5.845c-0.735,1.779-2.132,4.653-4.19,8.623
		c-0.765,0.338-1.5,0.712-2.206,1.125c-0.603,0.323-1.176,0.676-1.72,1.058c-1.941,1.309-3.655,2.867-5.139,4.676
		c-1.176,1.411-2.22,2.977-3.132,4.697c-0.19,0.338-0.368,0.685-0.529,1.037c-0.853-0.323-1.713-0.588-2.581-0.793
		c-3.588-0.868-7.315-0.721-11.182,0.441c-0.177,0.058-0.353,0.117-0.53,0.176c-2.206,0.706-4.198,1.676-5.977,2.912
		c0.059-1,0.213-1.802,0.463-2.404c0.471-2.176,0.992-3.499,1.566-3.97c1.029-0.793,3.213-2.11,6.551-3.947
		c2.983-1.722,5.219-3.272,6.704-4.655c1.734-1.617,4.61-5.925,8.624-12.924c3.793-6.778,5.977-11.145,6.549-13.101
		c-1.265,2.294-4.139,6.375-8.623,12.241c-5.043,6.661-8.778,10.851-11.204,12.571c-1.72,1.382-3.323,2.073-4.808,2.073
		c-0.472,0-1.735-0.228-3.794-0.684c-2.293-1.735-3.272-3.573-2.934-5.513c0.236-1.044,1.441-3.286,3.617-6.728
		c0.809-1.381,2.705-2.992,5.69-4.83c3.323-1.956,6.197-4.426,8.623-7.41c1.485-1.837,3.264-5.8,5.339-11.888
		c1.483-4.706,2.513-8.499,3.086-11.381c-0.691,1.5-2.58,4.087-5.668,7.764c-3.103,3.558-5.749,6.314-7.94,8.271
		c-1.72,1.602-3.44,2.58-5.161,2.933c-1.72,0.338-2.529-0.184-2.426-1.565c-2.058-2.412-3.205-9.131-3.439-20.159
		c-0.338-15.041-1.375-27.046-3.111-36.016c0.118,1.838-0.8,10.977-2.756,27.415c-1.603,13.66-1.139,23.195,1.389,28.604
		c-1.499-0.926-3.051-2.308-4.653-4.146c-1.5-1.837-3.624-5.05-6.374-9.638c-2.647-4.25-4.258-7.124-4.831-8.623
		c0.456,1.382,1.603,5.227,3.441,11.535c2.426,7.469,4.263,11.954,5.513,13.453c0.235,0.221,1.617,1.427,4.147,3.618
		c1.602,1.382,2.808,2.874,3.616,4.478c0.456,0.809,0.456,1.609,0,2.403c-0.235,0.471-0.749,1.389-1.543,2.757
		c-0.235,4.837-0.522,7.594-0.86,8.271c-1.265,2.191-5.058-0.389-11.38-7.741c-1.603-2.073-4.074-5.403-7.411-9.991
		c-4.132-5.75-6.484-9.314-7.058-10.696c0.338,2.072,1.603,6.093,3.793,12.063c2.412,6.322,4.418,10.63,6.021,12.924
		c2.176,3.219,4.418,5.808,6.727,7.763c2.058,1.721,3.551,3.382,4.476,4.985c0.574,1.161,1.148,2.08,1.721,2.756
		c0.338,0.573,0.396,1.61,0.176,3.11c-0.117,0.925-0.236,1.962-0.353,3.109c-0.118,0.692-0.632,0.978-1.544,0.861
		c-3.558-0.471-6.887-2.082-9.99-4.831c-2.309-1.955-5.301-5.403-8.977-10.344c-2.868-4.014-4.992-7.175-6.374-9.483
		c0.573,2.309,2.125,6.33,4.654,12.064c2.763,6.323,4.837,10.175,6.219,11.558c1.368,1.381,4.065,3.219,8.094,5.514
		c2,1.22,3.61,2.771,4.83,4.653c-1.558-1.632-3.396-3.015-5.513-4.146c-5.175-2.75-10.572-3.264-16.188-1.543
		c0.324-0.427,0.662-0.89,1.015-1.389c-3.441-0.912-6.66-2.919-9.66-6.021c-1.941-1.839-3.603-4.25-4.985-7.234
		c1.485-0.118,2.521-0.464,3.11-1.037l2.228-1.544l-1.543-2.074c-1.618-2.19-2.883-4.315-3.794-6.373l-1.72-5.007
		c1.147,0.117,2.411-0.17,3.793-0.86l1.897-1.037l-0.86-2.051c-1.161-3.22-1.742-6.212-1.742-8.977c0-1.264,0.235-3.043,0.706-5.338
		c2.176,1.03,3.896,0.912,5.161-0.353l1.037-0.859l-0.176-1.368c-0.338-3.675-0.396-6.719-0.176-9.131
		c0.118-1.382,0.639-3.278,1.565-5.69l1.038,1.037c1.838,1.837,2.985,2.757,3.441,2.757l3.44,2.757l0.684-4.478
		c0.574-4.028,1.265-7.358,2.074-9.991l2.58-7.255l2.249,2.426l3.088,2.073l0.86-3.617c1.162-4.028,2.198-7.248,3.11-9.659
		l1.72-4.301c1.956,1.955,3.912,2.528,5.867,1.72c0-1.72,0.286-3.675,0.861-5.866c0.337-1.147,1.257-3.213,2.756-6.197
		c1.604-2.765,2.463-4.375,2.581-4.831l-4.124,5.867c-0.015,0.043-0.037,0.081-0.066,0.11c0.029-0.06,0.059-0.11,0.088-0.155
		c0.043-0.073,0.088-0.14,0.132-0.198l3.198-4.697c0.309-0.427,0.625-0.853,0.948-1.278l2.25,4.322
		c1.721,3.558,2.809,6.139,3.265,7.742c0.808,2.646,1.61,6.499,2.404,11.556l0.706,3.617l3.264-1.896
		C133.826,28.375,135.149,27.288,137.678,25.229z M122.02,2.887c0.103-0.147,0.206-0.287,0.309-0.419l2.934,3.97
		c2.073,3.102,3.514,5.572,4.322,7.41c1.367,2.984,2.515,6.939,3.441,11.866l-0.684,0.529c-0.926-4.94-2.08-8.955-3.462-12.042
		c-0.794-1.838-2.228-4.309-4.301-7.411l-2.712-3.683C121.909,3.019,121.961,2.946,122.02,2.887z M84.747,41.88l-0.287-0.265
		l0.022-0.066L84.747,41.88z M76.366,59.722l0.022-0.088l0.596,0.552l-0.242-0.132l-0.289-0.243
		C76.425,59.782,76.396,59.752,76.366,59.722z M81.329,62.105c-0.015,0-0.03,0-0.044,0c0.015-0.015,0.03-0.022,0.044-0.022V62.105z
		 M76.123,79.693c-0.371,0.163-0.738,0.255-1.103,0.276l-0.066-0.044C75.344,79.925,75.733,79.848,76.123,79.693z M70.213,77.477
		l-0.022-0.088l0.795,0.485L70.213,77.477z M71.161,81.734l-1.036-4.301l3.97,2.404l-3.286-1.191l0.706,3.771
		c0.353,1.735,0.735,3.198,1.146,4.389C72.176,85.483,71.676,83.792,71.161,81.734z M64.257,112.588
		c0.81,0.794,1.39,1.713,1.743,2.757l-7.763-1.39h-8.955l3.264,3.11l0.53,0.507c-3.574,0.354-6.448,0.875-8.624,1.566l-8.271,2.228
		l7.764-2.757c2.176-0.574,5.044-1.088,8.601-1.544l-3.793-3.44l3.11-0.353c2.412-0.338,4.418-0.456,6.021-0.353
		c1.558,0.118,3.977,0.5,7.256,1.147c-0.265-0.588-0.603-1.125-1.015-1.61L64.257,112.588z M9.054,158.176l0.088-0.089l4.809,1.7
		c-1.368-0.456-2.728-0.905-4.081-1.348L9.054,158.176z M8.988,158.153l-0.728-0.241l2.073-2.759
		c1.721-1.954,3.102-3.396,4.146-4.322c1.706-1.47,4.087-3.065,7.146-4.786c0.206,0.163,0.404,0.324,0.595,0.485
		c-3.102,1.604-5.572,3.155-7.411,4.655c-1.029,0.911-2.352,2.404-3.97,4.478L8.988,158.153z M28.595,136.363
		c-0.044-0.147-0.11-0.287-0.199-0.418c0.265,0.235,0.448,0.492,0.552,0.772c-3.22,0.675-5.58,1.418-7.08,2.227l-5.668,3.043
		l5.337-3.55C22.919,137.628,25.272,136.937,28.595,136.363z M42.181,124.521l0.551,0.286c-4.029,1.044-7.131,2.198-9.308,3.462
		l-9.461,5.337h-0.022l8.954-5.689C35.058,126.549,38.152,125.417,42.181,124.521z M47.893,123.616
		c1.956,0.456,5.286,1.602,9.991,3.441c5.411,2.072,8.976,3.742,10.697,5.006c1.146,0.912,1.889,1.882,2.227,2.911
		c0.118,0.118,0.235,0.985,0.353,2.604c-0.691,1.94-1.728,2.97-3.109,3.087c-0.573,0-2.294-0.398-5.161-1.191
		c-1.146-0.235-2.58-1.153-4.3-2.756c-2.074-1.838-4.375-3.279-6.903-4.324c-1.485-0.691-4.47-1.087-8.954-1.189
		c-3.794-0.119-6.492-0.067-8.095,0.154c1.147,0.117,3.213,0.866,6.198,2.248c3.102,1.383,5.514,2.589,7.233,3.617
		c1.382,0.912,2.302,1.89,2.757,2.934c0.573,1.147,0.403,1.779-0.507,1.898c-1.162,1.836-5.418,3.902-12.77,6.196
		c-9.984,3.22-17.792,6.322-23.423,9.307c1.146-0.456,7.403-1.661,18.769-3.617c9.425-1.616,15.748-3.8,18.968-6.55
		c-0.456,1.382-1.088,2.707-1.897,3.97c-0.926,1.368-2.646,3.434-5.161,6.197c-2.646,2.867-4.375,4.529-5.183,4.985
		c1.044-0.456,3.514-2,7.41-4.631c4.603-3.104,7.249-5.235,7.94-6.396c0.103-0.222,0.617-1.367,1.543-3.442
		c0.573-1.381,1.316-2.527,2.228-3.44c0.472-0.456,0.993-0.574,1.566-0.352c0.338,0,1.081,0.175,2.227,0.529
		c3.339-0.928,5.293-1.332,5.867-1.213c1.265,0.337,1.206,1.829-0.176,4.476c-0.912,1.838-1.889,3.39-2.934,4.655
		c-0.339,0.558-0.911,1.397-1.721,2.514c-1.279,1.338-2.426,2.853-3.44,4.545c-0.235,0.396-0.462,0.801-0.683,1.211
		c-0.603,1.146-1.118,2.31-1.544,3.485c-0.823,2.309-1.279,4.66-1.367,7.058l-0.022-0.021l-0.86,0.331
		c-2.411,1.043-4.477,1.677-6.197,1.896c-0.691,0.12-2.014,0.178-3.97,0.178l0.507-1.038l2.25-5.689l-3.11,0.529l-7.057,0.508
		c-1.029,0.116-2.868,0.059-5.514-0.177c0.809-1.147,1.213-1.831,1.213-2.053l0.86-2.425h-2.603c-2.985,0.118-5.337,0.118-7.057,0
		l-3.264-0.331c0.913-1.72,0.913-3.161,0-4.321c-1.147,0.352-2.529,0.529-4.146,0.529c-0.691,0.117-3.499-0.339-8.425-1.369
		l2.227-2.248c1.957-1.838,3.448-3.103,4.478-3.794c1.602-1.03,4.014-2.354,7.234-3.971l2.249-1.189l-1.896-1.742
		c-0.927-0.913-1.904-1.596-2.934-2.052l-1.036-0.353l3.286-2.249c1.603-0.793,3.779-1.427,6.529-1.896l2.25-0.508l-0.86-2.073
		c0-0.794-0.802-1.595-2.404-2.404l6.022-3.792c2.073-1.148,4.999-2.185,8.777-3.111l4.654-1.191l-6.374-3.462l3.617-1.19
		c2.073-0.574,4.83-1.096,8.27-1.566l4.324-0.507l-3.287-2.756c-0.221,0-0.39-0.118-0.507-0.353l4.3,0.175
		c1.044,0.118,2.596,0.346,4.654,0.684c1.837,0.354,2.815,0.588,2.933,0.706l3.11,0.508l-1.037-3.109l-0.353-0.508
		c2.763,0.927,5.638,2.132,8.623,3.617c0.868,0.397,1.691,0.787,2.47,1.168c0.279,0.177,0.559,0.361,0.838,0.552
		c-0.838,0.912-1.602,1.904-2.293,2.978c-0.896-0.397-1.867-0.816-2.911-1.257c-4.94-1.94-8.102-3.029-9.483-3.264
		c1.5,0.691,3.911,2.125,7.234,4.3c1.397,0.926,2.654,1.815,3.771,2.668c-1.264,2.618-1.978,5.3-2.139,8.051
		c-0.191-0.177-0.39-0.361-0.595-0.553c-1.838-1.72-3.331-2.926-4.478-3.617c-1.5-0.912-4.947-2-10.344-3.264
		C52.899,124.248,49.511,123.616,47.893,123.616z M61.347,110.007l1.456,0.706l-0.948-0.375l1.234,1.148L61.347,110.007z
		 M71.889,94.9l-0.154-0.044l-0.022-0.066L71.889,94.9z M76.057,144.546c0.574,1.102,1.235,2.14,1.985,3.11
		c-1.029,0.19-2.059,0.448-3.088,0.771c-0.353,0.102-0.691,0.213-1.015,0.331l-0.97,0.396c0.029-0.073,0.059-0.146,0.087-0.221
		c0.809-1.602,1.669-2.917,2.581-3.948C75.785,144.84,75.925,144.692,76.057,144.546z M143.875,39.168l-0.86,0.352
		c0.456-4.705,0.397-8.263-0.175-10.674l-1.787-8.844l2.647,8.491c0.455,2.293,0.455,5.852,0,10.675l0.729-0.221
		C144.251,39.035,144.067,39.109,143.875,39.168z M161.63,67.442c0,3.308-0.456,7.484-1.367,12.527l-0.706,0.397
		c0.927-5.058,1.391-9.256,1.391-12.593l0.152-12.197l0.067-0.066l0.022,0.485l-0.09-0.419L161.63,67.442z M154.418,62.392
		l-0.728,0.728c0.353-5.852,0.065-10.557-0.86-14.116l-3.263-13.939l3.969,13.586C154.434,52.033,154.727,56.613,154.418,62.392z
		 M165.932,80.697c-0.574,3.338-1.265,6.095-2.073,8.271c-0.559,1.456-1.486,3.469-2.779,6.043l-1.698,0.177l-0.198,0.066
		l3.132-6.286c0.926-2.058,2.132-6.168,3.617-12.328l0.728-0.464l-0.089,0.309L165.932,80.697z"/>
</g>
</svg>
