<?xml version="1.0" encoding="utf-8"?>
<!-- Generator: Adobe Illustrator 16.0.0, SVG Export Plug-In . SVG Version: 6.00 Build 0)  -->
<!DOCTYPE svg PUBLIC "-//W3C//DTD SVG 1.1//EN" "http://www.w3.org/Graphics/SVG/1.1/DTD/svg11.dtd">
<svg version="1.1" id="Layer_1" xmlns="http://www.w3.org/2000/svg" xmlns:xlink="http://www.w3.org/1999/xlink" x="0px" y="0px"
	 width="300px" height="300px" viewBox="0 0 300 300" enable-background="new 0 0 300 300" xml:space="preserve">
<g>
	<path fill-rule="evenodd" clip-rule="evenodd" fill="#F0B81C" d="M173.437,232.022c-0.229-0.449-0.372-0.872-0.434-1.271
		c0.039,0.01,0.077,0.022,0.117,0.034c5.702,1.736,11.47,2.799,17.304,3.186c-0.221,0.578-0.724,1.063-1.51,1.456
		c-1.657,0.934-4.084,1.039-7.278,0.316c-3.095-0.724-5.21-1.341-6.346-1.854C174.355,233.367,173.738,232.745,173.437,232.022z
		 M46.36,28.34l-0.151,0.151c-4.642,1.446-9.751,4.286-15.327,8.515c-8.169,6.228-14.707,13.978-19.611,23.25
		c0.195,4.393,0.337,9.438,0.425,15.134c0,13.725,4.436,29.976,13.308,48.755c12.69,26.935,30.439,43.036,53.245,48.3
		c8.048,1.85,16.353,2.774,24.913,2.774c7.736-0.101,13.98-0.875,18.732-2.321c0.079-0.402,0.164-0.799,0.254-1.188
		c0.704,2.631,1.498,5.233,2.382,7.808c-13.109,3.625-26.733,4.256-40.871,1.896c-13.926-2.271-26.103-6.912-36.532-13.927
		c-14.959-10.007-26.358-24.398-34.196-43.178C5.187,105.632,3.223,88.09,7.041,71.684c0.303-1.353,0.564-2.692,0.783-4.017
		c0.264-1.588,0.467-3.155,0.611-4.705c0.354-3.765,0.356-7.414,0.007-10.945c-0.101-0.824-0.875-4.899-2.321-12.223
		c-0.522-2.472-0.366-4.744,0.467-6.813c1.959,5.164,3.145,9.449,3.557,12.855c0.333,2.503,0.617,5.607,0.852,9.311
		c1.077-2.917,2.291-5.816,3.639-8.692c1.931-4.019,3.837-7.386,5.72-10.102c1.211-1.298,2.037-2.216,2.479-2.752
		c0.303-0.417,0.502-0.793,0.598-1.126c0.89-0.96,1.776-1.771,2.657-2.431c2.884,0.622,6.185,0.729,9.901,0.316
		c1.523-0.195,4.59-0.784,9.202-1.765C45.571,28.512,45.959,28.427,46.36,28.34z"/>
	<path fill-rule="evenodd" clip-rule="evenodd" fill="#F4CF18" d="M48.063,28.038c13.624-2.792,26.831-2.33,39.621,1.389
		c21.049,6.298,38.075,19.61,51.076,39.936c2.689,4.221,5.116,8.559,7.278,13.013c-2.079,0.833-4.094,1.755-6.042,2.767
		c-3.503,1.797-6.483,3.813-8.941,6.049c3.036-3.885,3.695-9.72,1.979-17.503c-2.061-9.594-7.32-17.949-15.78-25.063
		c-6.912-5.787-14.036-9.76-21.369-11.92c-6.702-2.069-12.892-2.431-18.568-1.085c-10.629,2.582-16.1,8.876-16.412,18.883
		c-0.302,10.419,5.736,20.12,18.115,29.102c13.312,9.595,24.042,14.855,32.191,15.78c6.293,0.786,12.167-1.196,17.62-5.947
		c-2.883,3.239-4.804,6.888-5.761,10.946c-0.541,2.278-0.776,4.686-0.708,7.224c0.413,10.94,6.446,23.118,18.101,36.531
		c5.888,6.812,15.332,13.724,28.333,20.737c13.615,7.225,27.751,12.694,42.408,16.411c37.347,9.495,63.194,4.336,77.54-15.477
		c3.025-4.182,5.138-8.396,6.338-12.648c-1.352,6.9-4.806,14.886-10.361,23.951c-11.143,17.954-27.188,32.141-48.136,42.56
		c-15.816,7.866-31.202,11.298-46.159,10.3c-5.834-0.387-11.602-1.449-17.304-3.186c-0.04-0.012-0.078-0.024-0.117-0.034
		c-17.171-5.264-29.822-14.798-37.952-28.601c-4.167-7.01-7.568-14.248-10.204-21.719c-6.671,2.271-13.899,3.322-21.685,3.151
		c-12.177-0.21-22.239-1.241-30.186-3.09c-9.073-2.07-17.79-5.631-26.148-10.685c-15.482-9.494-27.143-23.836-34.979-43.027
		c-7.846-18.989-9.756-36.894-5.727-53.711c0.167-0.724,0.323-1.446,0.467-2.163c0.394-1.097,0.806-2.178,1.236-3.241
		c-0.219,1.325-0.48,2.665-0.783,4.017c-3.817,16.406-1.854,33.948,5.892,52.625c7.837,18.78,19.236,33.171,34.196,43.178
		c10.429,7.015,22.606,11.656,36.532,13.927c14.138,2.36,27.761,1.729,40.871-1.896c-0.885-2.574-1.679-5.177-2.382-7.808
		c-0.091,0.39-0.175,0.786-0.254,1.188c-4.752,1.446-10.996,2.221-18.732,2.321c-8.56,0-16.864-0.925-24.913-2.774
		c-22.806-5.265-40.555-21.365-53.245-48.3c-8.872-18.779-13.308-35.03-13.308-48.755c-0.088-5.696-0.23-10.741-0.425-15.134
		c4.904-9.272,11.441-17.023,19.611-23.25c5.576-4.229,10.685-7.069,15.327-8.515l0.11-0.11
		C46.892,28.272,47.474,28.158,48.063,28.038z M20.665,30.662c-2.994-1.859-4.953-2.426-5.878-1.703
		c-0.824,0.723-1.135,1.396-0.934,2.02c0.11,0.412,0.521,1.134,1.236,2.17c1.446,2.06,2.637,2.416,3.57,1.07
		c0.925-0.924,1.543-1.593,1.854-2.004C21.026,31.49,21.076,30.972,20.665,30.662z M23.432,32.475
		c-0.096,0.333-0.294,0.709-0.598,1.126c-0.442,0.537-1.268,1.454-2.479,2.752c-1.883,2.716-3.79,6.083-5.72,10.102
		c-1.348,2.876-2.562,5.775-3.639,8.692c-0.235-3.704-0.518-6.807-0.852-9.311c-0.412-3.406-1.598-7.691-3.557-12.855
		c-0.833,2.069-0.989,4.341-0.467,6.813c1.446,7.324,2.22,11.399,2.321,12.223c0.349,3.531,0.347,7.18-0.007,10.945
		c-0.526,1.853-1,3.713-1.421,5.583c0.898-5.468,1.063-10.717,0.494-15.746c0-0.723-0.773-4.852-2.321-12.387
		c-1.034-4.954,0.207-8.717,3.722-11.289c3.507-2.582,7.631-2.792,12.374-0.632c4.765,2.096,12.735,2.13,23.91,0.104
		c-4.612,0.981-7.679,1.57-9.202,1.765c-3.716,0.412-7.017,0.306-9.901-0.316C25.208,30.703,24.322,31.514,23.432,32.475z
		 M138.292,117.649c-1.135-6.812-0.462-12.021,2.019-15.629c1.035-1.445,2.583-2.069,4.642-1.867c1.96,0.21,5.104,1.245,9.435,3.103
		l36.58,14.957c2.265,0.93,4.707,1.943,7.327,3.042c0.672,0.281,1.354,0.567,2.046,0.858l7.292,2.967l-52.31,3.556
		c-0.813,0.052-1.623,0.048-2.431-0.013c-2.494-0.188-4.985-0.906-7.472-2.156C141.291,124.406,138.915,121.467,138.292,117.649z
		 M190.15,84.524c2.471-0.512,5.36-0.562,8.665-0.15c3.607,0.411,6.239,1.029,7.896,1.854c1.96,1.034,3.145,2.637,3.557,4.807
		c0.024,0.138,0.044,0.292,0.063,0.46c0.402,3.633-0.136,14.517-1.613,32.651c-0.012-0.018-0.021-0.034-0.035-0.049l-1.511-2.382
		c-0.467-0.747-0.927-1.486-1.379-2.218c-2.995-4.81-5.749-9.247-8.262-13.308c-0.903-1.46-1.767-2.856-2.589-4.188l-2.622-4.168
		c-0.111-0.201-1.713-2.522-4.807-6.962c-0.398-0.639-0.702-1.254-0.914-1.847c-0.339-0.938-0.446-1.82-0.322-2.645
		C186.487,85.554,187.778,84.936,190.15,84.524z M181.787,89.482c1.232,1.791,4.356,6.02,9.372,12.689
		c0.238,0.203,0.615,0.707,1.133,1.511l0.014,0.021c0.006,0.007,0.011,0.015,0.015,0.021c2.645,3.62,7.805,10.427,15.478,20.422
		l-47.519-22.743c-1.563-0.793-2.929-1.556-4.101-2.288c-4.161-2.589-5.839-4.771-5.032-6.543c0.723-1.859,2.578-3.355,5.562-4.491
		c1.557-0.614,4.189-1.387,7.897-2.321c3.204-0.613,6.148-0.764,8.831-0.453c3.168,0.332,5.594,1.305,7.278,2.918
		C181.114,88.609,181.471,89.028,181.787,89.482z M238.121,96.445c1.135,1.236,1.652,2.783,1.551,4.642
		c-0.142,1.085-1.494,2.765-4.057,5.04c-3.034,2.693-7.771,6.223-14.208,10.588l-11.604,7.746l4.49-26.931
		c0.513-2.994,0.976-4.953,1.388-5.878c0.723-2.169,1.914-3.204,3.57-3.104c4.019,0,8.712,1.497,14.077,4.491
		C235.809,94.485,237.406,95.621,238.121,96.445z M208.868,126.316l-4.477,34.361c-0.055,0.692-0.179,1.333-0.371,1.923
		c-0.55,1.693-1.666,2.961-3.352,3.804c-2.782,1.447-6.238,1.291-10.368-0.467c-5.987-2.472-10.063-4.638-12.223-6.496
		c-3.405-2.783-3.923-5.621-1.552-8.515c1.858-2.169,7.791-6.917,17.799-14.242c5.046-3.71,9.887-7.163,14.522-10.354
		C208.854,126.324,208.861,126.321,208.868,126.316z M210.393,125.065c19.426-11.76,29.804-17.943,31.135-18.553
		c6.088-3.516,12.538-2.487,19.351,3.09c4.439,3.606,6.761,6.339,6.963,8.197c0.109,1.348-1.026,2.381-3.406,3.104
		c-0.544,0.188-1.492,0.381-2.843,0.583c-6.832,1.036-23.989,2.282-51.474,3.743C210.21,125.175,210.301,125.121,210.393,125.065z
		 M207.798,125.849c-20.125,13.111-31.428,20.54-33.908,22.289c-0.495,0.331-1.021,0.613-1.58,0.844
		c-1.887,0.79-4.146,1.026-6.771,0.708c-3.919-0.623-7.219-2.431-9.901-5.425c-2.894-3.194-4.857-6.028-5.892-8.5
		c-1.025-2.482-0.87-3.822,0.467-4.024c4.939-0.931,24.045-2.885,57.316-5.864C207.618,125.866,207.707,125.856,207.798,125.849z
		 M276.204,127.717c4.541,3.295,6.707,8.967,6.496,17.015c-0.102,3.507-2.372,5.521-6.813,6.043c-3.635,0.42-7.724-0.2-12.264-1.86
		c-0.994-0.366-2.011-0.78-3.049-1.244l-48.302-21.657l45.515-0.467c6.6-0.109,10.007-0.165,10.217-0.165
		C271.512,125.492,274.244,126.269,276.204,127.717z M271.095,164.385c-1.547,3.103-4.692,5.53-9.435,7.278
		c-4.54,1.759-8.928,2.326-13.156,1.703c-2.919-0.388-6.701-3.423-11.344-9.105c-0.295-0.36-0.592-0.731-0.893-1.112
		c-0.733-0.929-1.872-2.513-3.413-4.752c-1.598-2.257-3.597-5.122-5.995-8.597c-0.06-0.086-0.117-0.174-0.179-0.262
		c-0.206-0.305-0.417-0.619-0.633-0.934l-16.094-22.591l52.777,25.998c3.405,1.749,5.831,3.346,7.279,4.793
		C272.069,159.175,272.432,161.702,271.095,164.385z M208.566,143.18l0.934-15.779l21.204,34.828
		c1.549,2.371,2.321,4.642,2.321,6.812c0,2.23-0.97,3.689-2.911,4.382c-0.297,0.104-0.617,0.19-0.962,0.26
		c-0.105,0.024-0.21,0.048-0.316,0.069c-0.602,0.124-1.22,0.215-1.854,0.274c-0.33,0.031-0.667,0.055-1.01,0.069
		c-1.035,0.042-2.112,0.003-3.233-0.117c-0.396-0.043-0.797-0.095-1.201-0.158c-0.933-0.144-1.893-0.341-2.878-0.591
		c-0.359-0.091-0.721-0.189-1.085-0.295c-0.367-0.105-0.739-0.217-1.112-0.336c-3.186-1.003-5.461-2.248-6.833-3.736
		c-0.063-0.041-0.121-0.108-0.178-0.199c-0.787-0.92-1.237-1.929-1.353-3.028c-0.069-0.818-0.116-1.818-0.145-3l0.453-16.11
		C208.449,145.45,208.503,144.335,208.566,143.18z"/>
	<path fill-rule="evenodd" clip-rule="evenodd" fill="#F9EF5F" d="M20.665,30.662c0.412,0.311,0.362,0.829-0.151,1.552
		c-0.312,0.412-0.93,1.081-1.854,2.004c-0.934,1.346-2.124,0.99-3.57-1.07c-0.714-1.036-1.126-1.758-1.236-2.17
		c-0.202-0.624,0.11-1.296,0.934-2.02C15.712,28.235,17.67,28.803,20.665,30.662z M111.36,70.131
		c-2.161,2.06-4.531,2.939-7.114,2.637c-2.994-0.311-7.018-2.326-12.072-6.042c-4.752-3.406-7.072-7.069-6.963-10.987
		c0.101-3.717,2.166-6.089,6.194-7.114c4.844-1.135,9.898,0.462,15.162,4.793c3.195,2.782,5.209,5.983,6.042,9.6
		C113.325,66.313,112.908,68.685,111.36,70.131z M146.037,82.375c20.815-8.361,48.159-7.85,82.031,1.531
		c4.229,1.236,10.474,4.125,18.732,8.666c10.831,5.887,20.113,12.232,27.852,19.035c17.78,15.62,24.589,30.804,20.428,45.554
		c-1.2,4.252-3.313,8.467-6.338,12.648c-14.346,19.813-40.193,24.972-77.54,15.477c-14.657-3.717-28.793-9.187-42.408-16.411
		c-13.001-7.014-22.445-13.926-28.333-20.737c-4.067-4.681-7.451-9.21-10.148-13.589c-5.034-8.172-7.684-15.82-7.952-22.942
		c-0.069-2.538,0.167-4.946,0.708-7.224c0.958-4.058,2.878-7.707,5.761-10.946c0.469-0.525,0.963-1.041,1.483-1.545
		c0.242-0.236,0.489-0.469,0.741-0.701c2.458-2.237,5.438-4.252,8.941-6.049C141.943,84.131,143.958,83.208,146.037,82.375z
		 M208.566,143.18c-0.063,1.155-0.117,2.27-0.158,3.344l-0.453,16.11c0.028,1.182,0.075,2.182,0.145,3
		c0.115,1.1,0.565,2.108,1.353,3.028c0.057,0.091,0.115,0.158,0.178,0.199c1.372,1.488,3.647,2.733,6.833,3.736
		c0.373,0.119,0.745,0.23,1.112,0.336c0.364,0.105,0.726,0.204,1.085,0.295c0.985,0.25,1.945,0.447,2.878,0.591
		c0.404,0.063,0.806,0.115,1.201,0.158c1.121,0.12,2.198,0.159,3.233,0.117c0.343-0.015,0.68-0.038,1.01-0.069
		c0.634-0.06,1.252-0.15,1.854-0.274c0.106-0.021,0.211-0.045,0.316-0.069c0.345-0.069,0.665-0.156,0.962-0.26
		c1.941-0.692,2.911-2.151,2.911-4.382c0-2.17-0.772-4.44-2.321-6.812L209.5,127.401L208.566,143.18z M271.095,164.385
		c1.337-2.683,0.975-5.21-1.084-7.581c-1.448-1.447-3.874-3.044-7.279-4.793l-52.777-25.998l16.094,22.591
		c0.216,0.315,0.427,0.628,0.633,0.934c0.062,0.087,0.119,0.175,0.179,0.262c2.398,3.475,4.397,6.34,5.995,8.597
		c1.541,2.239,2.68,3.823,3.413,4.752c0.301,0.381,0.598,0.752,0.893,1.112c4.643,5.683,8.425,8.718,11.344,9.105
		c4.229,0.623,8.616,0.056,13.156-1.703C266.402,169.915,269.548,167.487,271.095,164.385z M276.204,127.717
		c-1.96-1.448-4.692-2.225-8.199-2.335c-0.21,0-3.617,0.055-10.217,0.165l-45.515,0.467l48.302,21.657
		c1.038,0.464,2.055,0.878,3.049,1.244c4.54,1.66,8.629,2.281,12.264,1.86c4.44-0.522,6.711-2.536,6.813-6.043
		C282.911,136.684,280.745,131.012,276.204,127.717z M208.868,126.316c-0.007,0.005-0.015,0.008-0.021,0.013
		c-4.636,3.192-9.477,6.644-14.522,10.354c-10.008,7.325-15.94,12.073-17.799,14.242c-2.371,2.894-1.854,5.731,1.552,8.515
		c2.16,1.858,6.235,4.024,12.223,6.496c4.13,1.758,7.586,1.914,10.368,0.467c1.686-0.843,2.802-2.11,3.352-3.804
		c0.192-0.59,0.316-1.23,0.371-1.923L208.868,126.316z M210.393,125.065c-0.092,0.055-0.183,0.109-0.274,0.165
		c27.484-1.46,44.642-2.707,51.474-3.743c1.351-0.202,2.299-0.396,2.843-0.583c2.38-0.724,3.516-1.757,3.406-3.104
		c-0.202-1.858-2.523-4.591-6.963-8.197c-6.813-5.577-13.263-6.606-19.351-3.09C240.196,107.122,229.818,113.306,210.393,125.065z
		 M207.798,125.849c-0.091,0.008-0.18,0.017-0.269,0.027c-33.271,2.979-52.377,4.934-57.316,5.864
		c-1.337,0.202-1.492,1.542-0.467,4.024c1.035,2.472,2.999,5.306,5.892,8.5c2.683,2.994,5.982,4.803,9.901,5.425
		c2.625,0.318,4.884,0.082,6.771-0.708c0.559-0.231,1.085-0.513,1.58-0.844C176.37,146.389,187.673,138.959,207.798,125.849z
		 M238.121,96.445c-0.715-0.824-2.313-1.959-4.793-3.406c-5.365-2.994-10.059-4.491-14.077-4.491
		c-1.656-0.101-2.848,0.934-3.57,3.104c-0.412,0.925-0.875,2.884-1.388,5.878l-4.49,26.931l11.604-7.746
		c6.437-4.365,11.174-7.895,14.208-10.588c2.563-2.275,3.915-3.955,4.057-5.04C239.773,99.228,239.256,97.681,238.121,96.445z
		 M181.787,89.482c-0.316-0.455-0.673-0.874-1.072-1.257c-1.685-1.613-4.11-2.586-7.278-2.918c-2.683-0.311-5.627-0.16-8.831,0.453
		c-3.708,0.934-6.341,1.708-7.897,2.321c-2.983,1.135-4.839,2.632-5.562,4.491c-0.807,1.772,0.871,3.954,5.032,6.543
		c1.172,0.732,2.538,1.494,4.101,2.288l47.519,22.743c-7.673-9.996-12.833-16.803-15.478-20.422
		c-0.004-0.006-0.009-0.014-0.015-0.021l-0.014-0.021c-0.518-0.804-0.895-1.308-1.133-1.511
		C186.144,95.502,183.02,91.273,181.787,89.482z M190.15,84.524c-2.372,0.412-3.663,1.03-3.873,1.854
		c-0.124,0.824-0.017,1.706,0.322,2.645c0.212,0.592,0.516,1.208,0.914,1.847c3.094,4.44,4.695,6.761,4.807,6.962l2.622,4.168
		c0.822,1.332,1.686,2.729,2.589,4.188c2.513,4.061,5.267,8.498,8.262,13.308c0.452,0.732,0.912,1.471,1.379,2.218l1.511,2.382
		c0.014,0.015,0.023,0.031,0.035,0.049c1.478-18.134,2.016-29.018,1.613-32.651c-0.019-0.169-0.038-0.323-0.063-0.46
		c-0.412-2.17-1.597-3.772-3.557-4.807c-1.657-0.825-4.289-1.443-7.896-1.854C195.511,83.962,192.621,84.012,190.15,84.524z
		 M138.292,117.649c0.623,3.818,2.999,6.756,7.127,8.817c2.487,1.25,4.978,1.969,7.472,2.156c0.808,0.061,1.618,0.065,2.431,0.013
		l52.31-3.556l-7.292-2.967c-0.691-0.292-1.374-0.578-2.046-0.858c-2.62-1.098-5.063-2.112-7.327-3.042l-36.58-14.957
		c-4.33-1.858-7.474-2.893-9.435-3.103c-2.059-0.202-3.606,0.421-4.642,1.867C137.83,105.628,137.157,110.838,138.292,117.649z"/>
	<path fill-rule="evenodd" clip-rule="evenodd" fill="#F5DA0E" d="M111.36,70.131c1.547-1.447,1.964-3.818,1.25-7.113
		c-0.833-3.617-2.847-6.817-6.042-9.6c-5.264-4.331-10.318-5.929-15.162-4.793c-4.028,1.025-6.093,3.397-6.194,7.114
		c-0.109,3.918,2.211,7.581,6.963,10.987c5.054,3.716,9.078,5.731,12.072,6.042C106.829,73.071,109.2,72.191,111.36,70.131z
		 M133.033,73.688c1.716,7.784,1.057,13.619-1.979,17.503c-0.252,0.231-0.5,0.464-0.741,0.701c-0.52,0.504-1.015,1.02-1.483,1.545
		c-5.454,4.75-11.327,6.733-17.62,5.947c-8.148-0.924-18.879-6.185-32.191-15.78C66.64,74.622,60.602,64.921,60.903,54.502
		c0.312-10.007,5.783-16.302,16.412-18.883c5.676-1.346,11.866-0.984,18.568,1.085c7.333,2.161,14.457,6.133,21.369,11.92
		c5.92,4.979,10.274,10.567,13.061,16.761C131.507,68.042,132.414,70.809,133.033,73.688z"/>
</g>
</svg>
