<?xml version="1.0" encoding="utf-8"?>
<!-- Generator: Adobe Illustrator 16.0.0, SVG Export Plug-In . SVG Version: 6.00 Build 0)  -->
<!DOCTYPE svg PUBLIC "-//W3C//DTD SVG 1.1//EN" "http://www.w3.org/Graphics/SVG/1.1/DTD/svg11.dtd">
<svg version="1.1" id="Layer_1" xmlns="http://www.w3.org/2000/svg" xmlns:xlink="http://www.w3.org/1999/xlink" x="0px" y="0px"
	 width="300px" height="300px" viewBox="0 0 300 300" enable-background="new 0 0 300 300" xml:space="preserve">
<g>
	<path fill-rule="evenodd" clip-rule="evenodd" fill="#4E4334" d="M19.742,79.797c-0.5-2.362,0.137-4.113,1.91-5.251
		c1.729-1.139,3.591-0.979,5.588,0.479c1.325,0.949,2.917,2.084,4.78,3.409c1.953,1.043,5.294,2.09,10.024,3.14
		c1.773,0.358,3.591,0.72,5.454,1.085c0.225-0.314,0.474-0.634,0.75-0.959l0.067-0.059c0.365-0.409,0.772-0.774,1.22-1.094
		l0.076-0.075h0.067l0.614-0.329c0.23-0.409,0.615-0.636,1.153-0.681c2.188-0.999,6.735-2.25,13.642-3.754h-0.067
		c1.268-0.364,5.109-2.864,11.521-7.499c7.322-5.364,11.959-8.388,13.912-9.072h-0.067c10.683-4.141,20.002-5.459,27.959-3.956
		c3.405,0.589,6.746,1.75,10.022,3.484c0.226,0,0.497-0.025,0.817-0.076c0.454-0.044,0.979-0.09,1.574-0.134l4.83-0.135
		l-1.152-3.754l5.049-0.749l0.126-0.067h0.076c2.861-0.09,6.724,0.365,11.589,1.364c3.321,0.633,8.915,1.383,16.781,2.247
		c3.586,0.409,6.405,0.682,8.459,0.816c0-0.084,0-0.174,0-0.269v-0.202c-0.275-1.408,0.79-2.135,3.197-2.18
		c0.864-0.05,2.139,0.017,3.821,0.202c3.815,0.455,6.225,1.204,7.229,2.247c3.405,3.047,5.723,7.799,6.951,14.257
		c0.5,2.772,0.771,5.703,0.817,8.795c0.044,0.04,0.09,0.084,0.134,0.135h0.068c3.865,4,7.006,8.363,9.417,13.086
		c0.039,0.135,0.129,0.298,0.27,0.489l0.059,0.059v0.067c0.096,0.185,0.19,0.39,0.287,0.614c0.038,0.096,0.081,0.188,0.125,0.278
		c0.051,0.09,0.099,0.179,0.143,0.27c0.041,0.09,0.085,0.202,0.136,0.336l0.067,0.076c0,0.045,0.022,0.135,0.067,0.27l0.075,0.067
		c0,0.05,0.021,0.143,0.059,0.278l0.068,0.067c0,0.044,0.024,0.112,0.076,0.202c0.045,0.096,0.112,0.232,0.201,0.413
		c0,0.044,0.022,0.134,0.067,0.269l0.067,0.068c0,0.05,0.025,0.143,0.075,0.277l0.059,0.067c0.046,0.09,0.09,0.205,0.136,0.345
		c0.05,0.135,0.117,0.313,0.201,0.538c0,0.051,0.026,0.118,0.076,0.202c0.135,0.275,0.224,0.569,0.27,0.884v-0.202
		c1.273,3.731,1.501,7.779,0.682,12.145v0.067c-0.725,3.13-1.019,5.833-0.884,8.105c0.045,0.685,0.135,1.321,0.269,1.91v0.075
		c0.41,2.317,0.525,4.612,0.346,6.885c-0.174,1.787-0.561,3.57-1.162,5.348l9.881,1.284c10.308,1.6,19.91,3.622,28.809,6.068
		c28.458,7.828,44.448,18.401,47.972,31.721c2.081,7.843-2.045,15.665-12.379,23.464c-9.987,7.546-24.35,14.023-43.083,19.433
		c-19.312,5.566-40.529,9.177-63.651,10.832c-25.107,1.817-49.814,1.077-74.121-2.223c-26.561-3.596-48.151-8.797-64.77-15.604
		c-14.313-5.862-24.406-12.675-30.281-20.434c-5.044-6.638-6.64-13.354-4.789-20.148c1.644-6.076,5.552-10.999,11.724-14.771
		c5.218-3.182,10.7-4.745,16.445-4.687c5.122,0.05,9.724,1.341,13.803,3.871c0.076,0.049,0.151,0.096,0.227,0.144
		c-0.04-0.431-0.037-0.791,0.009-1.086c0.069-0.426,0.225-0.791,0.467-1.094c-5.421-2.784-9.05-5.929-10.886-9.435
		c-0.64-1.094-1.075-2.252-1.305-3.476v-0.067c-0.04-0.185-0.082-0.368-0.126-0.547c-0.185-0.05-0.37-0.075-0.555-0.075
		c-6.363-0.358-11.09-0.469-14.182-0.329c-1.409,0.04-4.113,1.128-8.114,3.266c-2.541,1.368-4.52,0.892-5.933-1.431
		c-1.409-2.227-1.543-4.18-0.404-5.857c1.273-1.914,1.795-3.145,1.565-3.695c-0.814-2.312-0.427-4.174,1.161-5.588
		c1.587-1.408,3.45-1.591,5.588-0.547c1.408,0.735,3.111,1.602,5.108,2.6c2.054,0.685,5.487,1.117,10.302,1.296
		c2.182,0.039,4.455,0.081,6.816,0.126c0.095,0,0.186,0,0.269,0c0.141-0.264,0.326-0.511,0.556-0.741
		c0.18-0.23,0.385-0.435,0.615-0.615c0.04-0.095,0.084-0.143,0.134-0.143c1.415-1.499,3.415-2.771,6.001-3.821v-0.059
		c1.588-0.634,4.542-1.751,8.862-3.35c0.045-4.314,0.637-8.38,1.775-12.194v-0.144c0.04-0.23,0.084-0.435,0.135-0.614
		c-0.186-0.18-0.346-0.337-0.48-0.472c-0.062-0.062-0.112-0.112-0.152-0.151c-2.985-2.817-5.072-5.745-6.262-8.787
		c-0.409-0.999-0.704-1.998-0.883-2.996c0-0.05,0-0.096,0-0.135c-0.09-0.371-0.157-0.69-0.203-0.959
		c-0.096-0.045-0.163-0.067-0.202-0.067c-6.229-1.504-10.91-2.458-14.047-2.861c-1.407-0.186-4.249,0.426-8.524,1.834
		c-2.683,0.864-4.567,0.048-5.656-2.449c-1.094-2.458-0.937-4.413,0.471-5.866C19.201,81.5,19.882,80.387,19.742,79.797z
		 M65.979,79.73c-6.458,1.363-10.708,2.5-12.75,3.409l-1.372,0.816c-0.225,0.14-0.452,0.32-0.682,0.539l0.144-0.059
		c-0.18,0.18-0.34,0.384-0.48,0.615l-1.018,2.583l-0.345,0.286c-0.095,0.084-0.166,0.151-0.211,0.202
		c-0.134,0.264-0.086,0.286,0.144,0.067l0.539-0.413l-0.084,1.22l-0.051,0.126L49.476,89.4c-0.095,0.084-0.166,0.151-0.211,0.202
		c-0.134,0.258-0.086,0.278,0.144,0.059l0.429-0.329l-0.16,2.197v0.067c0,0.18,0.018,0.368,0.05,0.564l-0.058,0.783v0.067
		c0,0.309,0.047,0.643,0.143,1.002l0.059,0.059v0.067c0.135,0.802,0.356,1.585,0.665,2.348c0.897,2.273,2.416,4.478,4.553,6.615
		c0.174,0.186,0.373,0.384,0.598,0.598c0.044,0.05,0.115,0.121,0.21,0.21c0.09,0.05,0.177,0.115,0.261,0.193l0.202,0.211
		c0.18,0.179,0.401,0.359,0.665,0.538l0.075,0.067c0.264,0.174,0.485,0.44,0.665,0.799c0.073,0.191,0.121,0.388,0.143,0.589
		c-0.173,0.438-0.303,0.898-0.387,1.38l-0.067,0.067v0.059c-0.628,2.076-1.071,4.225-1.33,6.446
		c-0.191,1.291-0.314,2.612-0.371,3.964c3.434-1.521,6.803-3.106,10.107-4.755c10.834-5.7,19.73-9.199,26.688-10.495
		c7.232-1.425,13.968-0.822,20.208,1.809c5.487,2.272,10.396,6.595,14.728,12.97v0.067c3.838,5.711,6.559,12.071,8.164,19.079
		l-0.076-0.067c0.937,3.916,1.386,7.526,1.347,10.831c0.5-0.887,1.046-1.772,1.641-2.66c0.039,0.78,0.053,1.546,0.042,2.298
		c1.178-2.094,2.609-4.186,4.292-6.279c3.726-4.775,9.27-10.885,16.631-18.331c1.229-1.644,1.822-2.895,1.784-3.754
		c-0.32-0.729-1.276-1.503-2.87-2.322h0.075c-3.142-1.638-5.714-3.027-7.717-4.166c-3.635-2.222-6.769-4.699-9.401-7.432
		c-3.366-3.63-5.276-8.085-5.731-13.364l0.404-7.415l5.126,2.946c3.169,1.829,6.182,3.658,9.039,5.487
		c11.373,7.137,18.529,11.822,21.469,14.055c0.045-0.365,0.135-0.724,0.27-1.077c0.063-0.539,0.267-0.921,0.614-1.146
		c0.566,0.404,1.055,0.761,1.465,1.069c0.044-0.371,0.137-0.735,0.277-1.094c0.005-0.051,0.014-0.098,0.025-0.143
		c0.072,0.011,0.147,0.025,0.227,0.042c0.309,0.045,0.732,0.202,1.271,0.471c0.758,0.309,1.874,0.935,3.351,1.877
		c3.254,2.003,5.173,3.672,5.756,5.007c2.094,4.152,2.581,9.351,1.466,15.596c-1.073,5.88-3.527,12.032-7.365,18.456
		c-1.319,2.149-2.156,3.802-2.512,4.958c-0.013,0.044-0.026,0.087-0.038,0.131c-0.221,0.768-0.216,1.302,0.017,1.602
		c0.174,0.096,0.842,0.365,2.004,0.809c1.694,0.673,2.788,1.587,3.281,2.743c0.045,0.046,0.087,0.113,0.127,0.202
		c0.667-0.364,1.332-0.746,1.994-1.145c0.168,0.235,0.309,0.482,0.421,0.741c0.045,0.044,0.09,0.112,0.134,0.201
		c3.546-1.931,6.968-4.348,10.264-7.25c0.569-0.501,1.135-1.018,1.696-1.548c0.4-0.379,0.798-0.765,1.195-1.158
		c0.432-0.431,0.848-0.861,1.25-1.291c1.794-1.928,3.297-3.861,4.511-5.798c-0.236-0.032-0.481-0.048-0.736-0.047
		c-0.534,0-1.198,0.094-1.99,0.282c0.199-0.327,0.391-0.653,0.571-0.98c0.218-0.04,0.427-0.073,0.627-0.101
		c0.762-0.102,1.46-0.135,2.097-0.1c1.723-2.99,2.752-5.992,3.089-9.006v-0.076c0.179-1.902,0.086-3.81-0.278-5.723
		c-0.18-0.769-0.291-1.611-0.337-2.525c-0.134-2.592,0.183-5.658,0.951-9.199c0.685-3.596,0.506-6.915-0.538-9.956l-0.076-0.067
		v-0.076c0-0.045-0.023-0.087-0.067-0.126l-0.067-0.143v-0.144c-0.045-0.134-0.09-0.269-0.135-0.404l-0.539-1.363l-0.074-0.067
		c-0.045-0.09-0.091-0.182-0.135-0.278l-0.346-0.951l-0.06-0.067c-0.05-0.09-0.098-0.182-0.143-0.277
		c-0.045-0.084-0.092-0.174-0.143-0.27v-0.067l-0.06-0.134c-0.095-0.18-0.165-0.317-0.211-0.413l0.144,0.143
		c-0.185-0.326-0.347-0.578-0.487-0.757h0.075c-2.272-4.315-5.182-8.337-8.728-12.068c-0.269-0.275-0.519-0.525-0.748-0.75
		c-1.319-1.318-2.73-2.588-4.233-3.812v0.067c-7.592-6.228-16.685-10.821-27.278-13.777c-8.129-2.317-16.492-3.476-25.087-3.476
		h-0.067c-0.09,0-0.157,0-0.203,0c-0.505,0-0.981,0.022-1.431,0.067l-5.319,0.202l-11.328-2.794
		c-0.864-0.229-1.703-0.412-2.516-0.547c-7.277-1.273-15.848-0.022-25.712,3.753c-1.817,0.685-6.135,3.524-12.952,8.517v0.068
		c-7.188,5.139-11.505,7.846-12.953,8.122V79.73z M139.823,57.84l0.068,0.336c2.771,0.051,5.523,0.214,8.256,0.488
		C144.735,58.07,141.961,57.795,139.823,57.84z M183.049,59.817c-0.085,0-0.152,0-0.203,0c-0.044,0.18-0.111,0.407-0.202,0.682
		c0.186,1.094-0.721,1.709-2.718,1.843c-0.64,0-1.528-0.022-2.669-0.067c-2.176-0.09-5.404-0.362-9.687-0.817
		c-2.956-0.325-5.592-0.62-7.902-0.883c1.684,0.358,3.344,0.766,4.982,1.219c0.605,0.175,1.209,0.351,1.81,0.531
		c-1.458-0.163-2.816-0.317-4.073-0.463c1.554,0.331,3.086,0.707,4.595,1.128c10.251,2.895,19.082,7.355,26.495,13.381
		c0.039,0.034,0.077,0.068,0.117,0.101c0.213,0.174,0.427,0.351,0.64,0.53c-0.027-0.298-0.06-0.592-0.093-0.883
		c-0.084-0.741-0.18-1.457-0.287-2.146c-0.05-0.337-0.103-0.668-0.159-0.993c-0.999-5.409-2.887-9.413-5.664-12.01v0.076
		C187.307,60.501,185.646,60.093,183.049,59.817z M112.412,107.343c-5.639-2.362-11.729-2.884-18.271-1.565
		c-6.772,1.273-15.456,4.704-26.048,10.293c-4.365,2.227-8.868,4.297-13.508,6.211c-0.044,0-0.067,0.022-0.067,0.067
		c-0.269,0.089-0.519,0.157-0.749,0.202c-4.589,1.728-7.704,2.932-9.342,3.61c-2.042,0.82-3.61,1.821-4.705,3.005l-0.143,0.134
		c-0.219,0.18-0.582,1.089-1.086,2.727l-1.027,2.862c0.14-0.225,0.232-0.404,0.277-0.539c0,0.045,0,0.087,0,0.126
		c0,0.101,0.002,0.202,0.009,0.302l-0.286,0.783c0.134-0.219,0.224-0.396,0.269-0.53c0,0.044,0,0.086,0,0.126
		c0,1.116,0.11,2.163,0.328,3.139c0.185,0.802,0.48,1.584,0.884,2.348c1.599,2.89,4.755,5.516,9.468,7.877
		c0.089,0.04,0.179,0.082,0.27,0.126l0.328,0.135c0.095,0.039,0.207,0.106,0.336,0.201c0.09,0.046,0.202,0.11,0.337,0.194
		c0.225,0.096,0.491,0.208,0.799,0.337H50.36c0.353,0.135,0.777,0.333,1.271,0.598h-0.076c0.081,0.043,0.163,0.086,0.249,0.13
		c0.379,0.206,0.783,0.42,1.211,0.648c1.127,0.596,2.419,1.273,3.876,2.032c0.942,0.443,1.969,0.979,3.08,1.608h-0.059
		c0.553,0.281,1.1,0.56,1.642,0.832c1.846,0.932,3.63,1.806,5.353,2.626h0.076c0.712,0.32,1.399,0.635,2.062,0.943
		c1.83,0.802,3.611,1.561,5.345,2.272l0.135,0.067h0.059c0.051,0.038,0.121,0.081,0.21,0.126c0.045,0,0.11,0.022,0.193,0.066h0.076
		c8.657,3.47,16.189,5.32,22.597,5.551c0.66,0.024,1.308,0.032,1.944,0.021c0.126,0.002,0.251,0.003,0.375,0.004
		c0.373,0.004,0.741,0.004,1.106-0.004c0.824-0.019,1.629-0.064,2.415-0.139c1.546-0.146,3.016-0.404,4.411-0.771
		c0.044-0.049,0.115-0.075,0.21-0.075h0.066c0.135-0.044,0.318-0.09,0.548-0.134h0.067l0.203-0.135c0.045,0,0.092,0,0.143,0h0.059
		l4.848-1.642v0.076l0.816-0.345c0.769-0.365,1.633-0.707,2.592-1.027c3.501-1.273,6.362-2.022,8.584-2.247
		c3.776-0.455,6.3-2.798,7.574-7.026h-0.067c1.313-4.495,1.223-9.949-0.269-16.362c-1.504-6.638-4.074-12.661-7.709-18.07
		C121.708,113.37,117.321,109.437,112.412,107.343z M139.891,88.659l-0.135,2.727c0.359,3.737,1.585,6.969,3.678,9.696
		c0.701,1.453,1.605,2.789,2.71,4.006c2.267,2.396,4.985,4.553,8.155,6.472l-0.059-0.067c1.822,1.083,4.217,2.387,7.178,3.914h0.068
		c1.868,1.021,3.179,2.053,3.93,3.097c0.32,1.79-0.619,4.096-2.818,6.917l-0.135,0.126c-7.228,7.277-12.684,13.278-16.371,18.003
		c-6.362,8.089-8.954,15.819-7.776,23.186v0.067c0,0.141,0.07,0.301,0.21,0.479c0,0.045,0.025,0.09,0.076,0.135
		c0.039,0,0.081,0.045,0.126,0.134c0.729,0.641,2.028,1.117,3.896,1.432l-0.076-0.059c0.685,0.084,1.481,0.151,2.39,0.2h0.067
		c0.769,0.029,1.565,0.038,2.39,0.026c4.169,0.085,9.103-0.533,14.804-1.851c3.086-0.729,5.884-1.546,8.391-2.45
		c0.509-0.185,1.005-0.372,1.489-0.563c1.708-0.673,3.269-1.391,4.681-2.154c0.458-0.262,0.882-0.519,1.271-0.771
		c1.346-0.868,2.268-1.675,2.769-2.419v-0.126c0.135-0.264,0.157-0.482,0.067-0.656c-0.044-0.062-0.093-0.12-0.144-0.177
		c0.012-0.118-0.008-0.222-0.058-0.312c-0.225-0.325-0.609-0.6-1.153-0.825c-1.818-0.724-2.842-1.2-3.072-1.43
		c-0.331-0.208-0.614-0.446-0.85-0.716c-0.493-0.945-0.56-2.187-0.198-3.729c0.42-1.791,1.417-3.984,2.992-6.581
		c3.439-5.791,5.661-11.365,6.665-16.723c0.371-2.149,0.517-4.152,0.438-6.009c0.146-3.523-0.393-6.592-1.617-9.207v0.075
		c-0.499-0.863-1.952-2.025-4.358-3.483c-0.052-0.04-0.099-0.082-0.144-0.126c-0.09,0.084-0.205,0.196-0.345,0.336v-0.068
		c-1.044,1.818-10.725-2.999-29.044-14.45c-2.906-1.823-5.928-3.667-9.064-5.529L139.891,88.659z M209.104,142.86
		c-0.656-0.242-1.218-0.539-1.684-0.893c-0.231-0.176-0.457-0.382-0.682-0.618c-1.534,2.388-3.458,4.767-5.773,7.137
		c-0.15,0.152-0.302,0.305-0.454,0.458v0.067c-5.006,4.909-10.279,8.728-15.822,11.454h0.067c-0.32,0.135-0.59,0.272-0.809,0.412
		c-0.038,0.058-0.079,0.113-0.122,0.169c-1.029,1.396-2.854,2.838-5.475,4.326v0.067c-0.62,0.337-1.268,0.667-1.944,0.989
		c1.033,0.361,1.784,0.84,2.256,1.434c0.151,0.191,0.28,0.531,0.388,1.019c0.117,0.539,0.228,0.898,0.327,1.077
		c0.09,0.163,0.497,0.307,1.222,0.43c0.931,0.162,1.416,0.25,1.456,0.261c0.79,0.258,1.918,0.014,3.382-0.731
		c0.848-0.438,1.418-0.714,1.709-0.826c0.65-0.252,1.234-0.361,1.75-0.327c1.566,0.123,2.579,0.827,3.039,2.112
		c0.066,0.174,0.238,0.705,0.513,1.591c0.338,0.645,0.761,0.547,1.271-0.295c0.146-0.241,0.306-0.586,0.479-1.035
		c0.18-0.493,0.318-0.848,0.413-1.061c0.729-1.694,2.14-3.063,4.233-4.107c2.159-1.065,4.104-1.273,5.832-0.623
		c0.87,0.326,1.476,0.735,1.818,1.229c0.376,0.539,0.501,1.248,0.378,2.129c-0.078,0.634-0.121,1.116-0.127,1.448
		c-0.016,0.51,0.034,0.993,0.152,1.447c0.123,0.493,0.325,0.761,0.605,0.799c0.169,0.023,0.508-0.059,1.02-0.243
		c1.582-0.577,2.768-0.909,3.56-0.994c0.83-0.089,1.554,0.003,2.171,0.278c0.091-0.157,0.23-0.309,0.421-0.455
		c0.106-0.083,0.289-0.207,0.547-0.368c0.472-0.281,1.139-0.431,2.003-0.448c0.921-0.016,1.654,0.202,2.206,0.657
		c0.258,0.225,0.459,0.49,0.605,0.8c0.016-0.007,0.036-0.015,0.06-0.025c0.79-0.241,1.641-0.319,2.549-0.235
		c0.91,0.078,1.723,0.314,2.44,0.706c0.606,0.331,1.078,0.729,1.414,1.195c0.512-0.084,1.146-0.193,1.902-0.328
		c1.167-0.213,2.09-0.339,2.77-0.379c2.03-0.117,3.843,0.393,5.437,1.533c0.897,0.633,1.826,1.149,2.785,1.547
		c0.938,0.382,1.961,0.674,3.071,0.876c0.597,0.112,1.271,0.138,2.029,0.076c0.274-0.012,0.634-0.042,1.077-0.094
		c-0.235-0.376-0.563-0.742-0.984-1.103c-0.64-0.487-1.108-0.853-1.405-1.094c-1.044-0.875-1.409-1.929-1.095-3.164
		c0.14-0.545,0.53-1.113,1.17-1.709c0.758-0.64,1.284-1.11,1.583-1.413c0.914-0.92,1.355-1.86,1.32-2.819
		c-0.027-0.87-0.46-1.808-1.296-2.811c-0.219-0.259-0.601-0.405-1.145-0.438c-0.605,0-1.027-0.025-1.263-0.076
		c-0.78-0.162-1.469-0.435-2.069-0.815c-0.214-0.135-0.388-0.34-0.522-0.614c-0.079-0.169-0.163-0.43-0.252-0.783
		c-0.197-0.763-0.77-1.269-1.718-1.515c-0.078-0.023-0.899-0.121-2.466-0.295c-0.679-0.067-1.422-0.271-2.229-0.614
		c-0.253-0.101-0.957-0.429-2.112-0.984c-0.837-0.326-1.457-0.595-1.86-0.809c-0.718-0.394-1.148-0.87-1.288-1.431
		c-0.19-0.981-0.354-1.7-0.488-2.154c-0.224-0.791-0.583-1.434-1.077-1.928c-0.623-0.633-1.549-0.729-2.778-0.286
		c-0.678,0.28-1.177,0.491-1.497,0.632c-0.577,0.235-1.035,0.366-1.371,0.395c-1.689,0.168-2.951,0.152-3.788-0.05
		c-1.251-0.303-2.188-1.046-2.811-2.23c-0.241-0.46-0.262-1.192-0.06-2.197c0.191-0.959,0.13-1.686-0.185-2.179
		c-0.455-0.702-1.192-1.044-2.213-1.027c-0.567,0.04-0.997,0.06-1.288,0.06C209.879,143.051,209.452,142.988,209.104,142.86z
		 M209.846,142.001c0.477,0.302,1.329,0.443,2.558,0.42c1.268-0.028,2.166,0.106,2.693,0.404c0.679,0.375,1.08,0.945,1.203,1.708
		c0.079,0.506,0.031,1.212-0.143,2.121c-0.281,1.487,0.168,2.483,1.347,2.988c1.037,0.449,2.213,0.421,3.527-0.084
		c0.292-0.111,0.579-0.212,0.861-0.302c-0.598-1.049-1.275-2.112-2.032-3.19l3.5,1.473c0.803,0.376,1.587,0.768,2.354,1.174
		c1.066,0.083,1.979,0.406,2.739,0.972c0.354,0.263,0.655,0.649,0.9,1.157c0.584,0.375,1.156,0.761,1.717,1.157
		c2.412,1.698,4.443,3.466,6.089,5.308c0.25,0.036,0.515,0.07,0.796,0.104c1.313,0.15,2.3,0.421,2.962,0.809
		c0.231,0.146,0.419,0.347,0.564,0.605c0.101,0.18,0.198,0.44,0.295,0.782c0.207,0.752,0.715,1.24,1.522,1.464
		c0.39,0.107,0.963,0.204,1.721,0.29c-2.108-4.175-6.049-8.406-11.819-12.694c-6.059-4.5-13.888-8.89-23.489-13.167
		c-0.531,1.419-1.197,2.834-1.999,4.246c0.165,0.188,0.337,0.395,0.518,0.623C208.863,141.176,209.402,141.721,209.846,142.001z
		 M202.127,165.961c-1.172,0.299-2.27,0.843-3.291,1.634c-0.707,0.544-1.315,1.262-1.825,2.153
		c-0.202,0.354-0.602,1.211-1.196,2.568c-0.201,0.465-0.617,0.804-1.245,1.018c-0.577,0.203-1.225,0.267-1.943,0.192
		c-0.719-0.071-1.33-0.266-1.836-0.579c-0.55-0.342-0.857-0.771-0.925-1.287c-0.051-0.495-0.191-0.954-0.422-1.381
		c-0.309-0.583-0.684-0.8-1.127-0.647c-0.403,0.146-0.979,0.411-1.726,0.799c-0.752,0.398-1.326,0.67-1.725,0.816
		c-0.634,0.235-1.361,0.337-2.18,0.303c-0.618-0.038-1.339-0.16-2.163-0.361c-0.752-0.107-1.321-0.2-1.709-0.278
		c-0.718-0.128-1.229-0.367-1.532-0.716c-0.111-0.123-0.207-0.321-0.285-0.597c-0.073-0.292-0.129-0.5-0.168-0.623
		c-0.208-0.718-0.556-1.26-1.045-1.624c-0.168-0.126-0.374-0.243-0.618-0.354c-3.633,1.602-7.98,2.99-13.041,4.166
		c-6.732,1.549-12.505,2.234-17.319,2.055c-1.044-0.045-1.956-0.115-2.736-0.21h-0.059c-2.733-0.449-4.688-1.222-5.866-2.315
		c-4.411-0.358-9.707-1.063-15.89-2.112h-0.067c-0.641-0.14-1.232-0.252-1.776-0.337h-0.067c-1.044-0.185-2.043-0.348-2.997-0.488
		l-0.143-0.059l0.143,0.336l-5.193,1.709h-0.336l-0.203,0.068h-0.067v0.059l0.479-0.059c-0.37,0.089-0.646,0.156-0.825,0.201h0.067
		c-3.11,0.919-6.573,1.312-10.39,1.179c-0.042,0.293-0.093,0.537-0.156,0.731c-0.208,0.64-0.589,1.108-1.145,1.406
		c-0.511,0.274-1.142,0.39-1.894,0.344c-0.628-0.032-1.26-0.173-1.894-0.42c-0.225-0.078-0.625-0.23-1.204-0.455
		c-0.521-0.129-0.931-0.064-1.228,0.193c-0.09,0.079-0.233,0.214-0.43,0.405c-0.179,0.157-0.334,0.271-0.463,0.345
		c-0.808,0.404-1.602,0.707-2.381,0.909c-0.802,0.207-1.399,0.457-1.793,0.748c-0.488,0.365-0.836,0.907-1.043,1.625
		c-0.04,0.124-0.096,0.331-0.169,0.623c-0.079,0.274-0.173,0.475-0.286,0.598c-0.303,0.348-0.814,0.586-1.532,0.715
		c-0.387,0.078-0.957,0.171-1.708,0.278c-0.824,0.201-1.546,0.322-2.163,0.362c-0.819,0.032-1.546-0.067-2.18-0.303
		c-0.398-0.146-0.974-0.42-1.725-0.817c-0.746-0.388-1.321-0.654-1.726-0.8c-0.443-0.151-0.819,0.064-1.127,0.648
		c-0.23,0.427-0.371,0.887-0.421,1.38c-0.067,0.517-0.376,0.945-0.926,1.287c-0.505,0.315-1.116,0.509-1.834,0.582
		c-0.718,0.072-1.367,0.008-1.945-0.195c-0.628-0.212-1.043-0.551-1.245-1.018c-0.594-1.357-0.993-2.213-1.195-2.566
		c-0.511-0.893-1.119-1.609-1.826-2.155c-1.021-0.791-2.118-1.335-3.29-1.632c-1.622-0.421-2.497,0.062-2.626,1.447
		c-0.028,0.319-0.014,0.707,0.042,1.161c0.084,0.696,0.132,1.083,0.143,1.161c0.084,1.347-0.235,2.323-0.959,2.929
		c-0.718,0.623-1.73,0.77-3.038,0.438c-0.331-0.089-0.942-0.306-1.835-0.647c-0.762-0.297-1.38-0.484-1.852-0.563
		c-0.241-0.045-0.507,0.067-0.799,0.337c-0.332,0.303-0.586,0.468-0.766,0.495c-0.202,0.035-0.429,0.046-0.682,0.035
		c-0.124-0.012-0.351-0.037-0.682-0.076c-0.443-0.028-0.693-0.115-0.749-0.261c-0.129-0.349-0.297-0.674-0.504-0.977
		c-0.337-0.478-0.632-0.625-0.884-0.446c-0.314,0.225-0.532,0.514-0.656,0.868c-0.096,0.269-0.146,0.63-0.152,1.084
		c-0.006,0.26-0.331,0.374-0.977,0.347c-0.634-0.024-1.021-0.125-1.161-0.304c-0.594-0.764-1.391-1.002-2.39-0.715
		c-0.926,0.268-1.596,0.811-2.012,1.623c-0.073,0.146-0.283,0.23-0.631,0.253c-0.235,0.012-0.468,0-0.698-0.033
		c-0.971-0.123-2.398-0.388-4.284-0.791c-1.616-0.196-2.976,0.098-4.082,0.883c-0.847,0.606-1.604,1.086-2.272,1.44
		c-0.841,0.447-1.675,0.782-2.499,1c-0.977,0.259-1.81,0.446-2.5,0.564c-0.931,0.158-1.778,0.221-2.542,0.193
		c-0.516-0.022-1.016-0.073-1.498-0.151c-0.612-0.101-1.091-0.165-1.439-0.193c-0.175-0.021-0.32-0.047-0.438-0.08
		c0.925,1.207,2.008,2.425,3.249,3.656c6.138,6.116,16.274,11.169,30.407,15.158c13.774,3.882,29.782,6.337,48.022,7.364
		c18.717,1.037,37.62,0.429,56.708-1.827c20.502-2.412,39.371-6.533,56.606-12.363c17.707-5.981,29.113-12.517,34.22-19.604
		c-0.647-0.004-1.352-0.07-2.111-0.198c-0.339-0.058-0.712-0.131-1.119-0.223c-2.751,4.512-8.364,8.562-16.841,12.148
		c-10.762,4.562-24.412,7.802-40.953,9.721c-12.181,1.402-24.563,1.621-37.148,0.657c-6.317-0.472-11.404-1.09-15.258-1.854
		c5.055-0.251,11.213-0.81,18.473-1.674c14.499-1.739,27.243-4.118,38.234-7.137c15.343-4.21,26.082-9.397,32.217-15.565
		c-0.045,0.001-0.089,0.002-0.135,0.005c-0.646,0.027-0.97-0.088-0.976-0.346c-0.006-0.454-0.057-0.815-0.152-1.087
		c-0.122-0.353-0.342-0.642-0.656-0.866c-0.253-0.179-0.547-0.03-0.884,0.446c-0.207,0.304-0.375,0.629-0.505,0.977
		c-0.056,0.146-0.306,0.232-0.749,0.262c-0.331,0.038-0.559,0.063-0.682,0.074c-0.252,0.012-0.479,0-0.682-0.033
		c-0.18-0.027-0.435-0.193-0.766-0.496c-0.293-0.269-0.559-0.382-0.8-0.337c-0.472,0.079-1.088,0.267-1.852,0.563
		c-0.892,0.343-1.503,0.559-1.835,0.648c-1.307,0.33-2.319,0.186-3.038-0.438c-0.725-0.606-1.043-1.582-0.96-2.93
		c0.012-0.078,0.06-0.466,0.144-1.162c0.057-0.453,0.07-0.84,0.042-1.159C204.624,166.023,203.749,165.541,202.127,165.961z
		 M246.16,168.907c-0.897,0.813-1.489,1.484-1.775,2.012c-0.482,0.875-0.454,1.708,0.085,2.499c0.188,0.276,0.535,0.611,1.038,1.006
		c0.938-2.024,1.383-4.091,1.334-6.203C246.635,168.449,246.407,168.678,246.16,168.907z M27.442,164.707
		c-0.796-0.972-2.038-1.554-3.728-1.742c-2.968-0.319-5.846,0.606-8.635,2.778c-3.085,2.385-4.62,5.406-4.603,9.064
		c0.012,3.175,1.264,6.448,3.757,9.82c0.273-0.529,0.813-1.073,1.621-1.632c0.904-0.629,1.49-1.14,1.759-1.532
		c0.539-0.791,0.567-1.624,0.084-2.499c-0.286-0.527-0.878-1.197-1.776-2.012c-0.785-0.73-1.377-1.445-1.776-2.146
		c-0.572-0.988-0.698-1.869-0.378-2.644c0.257-0.656,0.614-1.223,1.068-1.699c0.522-0.54,1.095-0.873,1.717-1.002
		c1.016-0.101,1.758-0.216,2.23-0.345c0.808-0.226,1.316-0.714,1.523-1.465c0.096-0.343,0.193-0.603,0.295-0.782
		c0.146-0.258,0.333-0.461,0.563-0.606c0.662-0.388,1.649-0.656,2.962-0.808c1.432-0.169,2.438-0.382,3.022-0.64
		C27.249,164.78,27.347,164.744,27.442,164.707z M133.966,161.207c-0.517,0.538-1.072,1.018-1.667,1.438
		c0.012-0.449,0.034-0.895,0.067-1.338c-1.874,1.969-4.329,3.108-7.364,3.417c-0.623,0.09-1.335,0.225-2.137,0.404
		c3.568,0.538,6.777,0.962,9.628,1.271c-0.006-0.062-0.014-0.124-0.025-0.186c0.556,0.067,1.097,0.129,1.624,0.186
		C133.867,164.671,133.825,162.94,133.966,161.207z M96.724,171.214c0.001-0.052,0.002-0.102,0.004-0.152
		c-2.868-0.237-5.923-0.753-9.165-1.544c-4.062-0.994-8.417-2.424-13.065-4.288c-0.045-0.039-0.088-0.06-0.127-0.06
		c-0.095-0.044-0.19-0.066-0.286-0.066l-0.27-0.143c-0.09-0.04-0.18-0.085-0.27-0.136c-1.818-0.729-3.658-1.501-5.521-2.313v-0.076
		c-0.685-0.314-1.389-0.608-2.113-0.884l-0.075-0.06c-0.948-0.459-1.902-0.916-2.861-1.371c-0.544-0.273-1.094-0.55-1.649-0.829
		c-0.931-0.464-1.879-0.938-2.845-1.419c-1.094-0.594-2.118-1.141-3.072-1.641c-0.275-0.18-0.525-0.314-0.75-0.403
		c-1.869-0.999-3.438-1.818-4.713-2.458v-0.067c-0.359-0.18-0.676-0.317-0.951-0.412l-0.068-0.067
		c-0.322-0.174-0.617-0.328-0.884-0.464c-0.178,0.472-0.188,1.098-0.033,1.878c0.202,1.004,0.182,1.735-0.059,2.196
		c-0.623,1.184-1.561,1.927-2.811,2.229c-0.836,0.203-2.099,0.22-3.787,0.052c-0.337-0.028-0.794-0.16-1.373-0.396
		c-0.319-0.141-0.819-0.35-1.498-0.631c-1.229-0.444-2.155-0.348-2.777,0.287c-0.494,0.493-0.854,1.135-1.078,1.926
		c-0.135,0.455-0.297,1.173-0.488,2.155c-0.141,0.562-0.569,1.038-1.288,1.432c-0.404,0.212-1.024,0.481-1.86,0.807
		c-1.156,0.556-1.86,0.884-2.113,0.985c-0.808,0.342-1.551,0.547-2.23,0.613c-1.565,0.175-2.387,0.273-2.466,0.296
		c-0.949,0.247-1.521,0.751-1.717,1.515c-0.09,0.354-0.174,0.614-0.252,0.782c-0.135,0.275-0.309,0.479-0.522,0.614
		c-0.6,0.382-1.29,0.653-2.07,0.817c-0.236,0.05-0.657,0.076-1.262,0.076c-0.545,0.033-0.926,0.179-1.145,0.437
		c-0.836,1.005-1.268,1.942-1.296,2.812c-0.034,0.959,0.407,1.898,1.322,2.819c0.298,0.302,0.825,0.773,1.583,1.413
		c0.639,0.595,1.03,1.164,1.169,1.709c0.314,1.234-0.05,2.289-1.094,3.165c-0.297,0.241-0.766,0.604-1.405,1.094
		c-0.42,0.358-0.749,0.727-0.985,1.103c0.443,0.05,0.803,0.082,1.078,0.093c0.757,0.062,1.433,0.035,2.028-0.076
		c1.111-0.202,2.135-0.493,3.072-0.875c0.959-0.399,1.888-0.915,2.785-1.549c1.594-1.141,3.406-1.649,5.437-1.532
		c0.679,0.039,1.602,0.165,2.769,0.379c0.758,0.135,1.392,0.244,1.902,0.329c0.337-0.467,0.808-0.864,1.414-1.195
		c0.719-0.394,1.532-0.63,2.441-0.708c0.909-0.084,1.759-0.005,2.55,0.236c0.022,0.012,0.041,0.021,0.059,0.024
		c0.146-0.308,0.348-0.574,0.606-0.799c0.55-0.454,1.285-0.674,2.205-0.656c0.864,0.017,1.532,0.165,2.004,0.446
		c0.258,0.163,0.439,0.285,0.546,0.37c0.191,0.146,0.331,0.297,0.421,0.454c0.617-0.274,1.341-0.367,2.171-0.277
		c0.791,0.085,1.978,0.415,3.561,0.992c0.51,0.186,0.849,0.267,1.018,0.245c0.281-0.039,0.482-0.306,0.606-0.8
		c0.118-0.455,0.168-0.938,0.151-1.448c-0.005-0.33-0.047-0.813-0.126-1.447c-0.124-0.881,0.003-1.591,0.378-2.129
		c0.342-0.494,0.948-0.903,1.818-1.229c1.728-0.651,3.672-0.444,5.832,0.623c2.093,1.043,3.504,2.411,4.234,4.106
		c0.096,0.213,0.232,0.566,0.413,1.061c0.173,0.448,0.333,0.793,0.479,1.034c0.51,0.842,0.934,0.94,1.271,0.295
		c0.275-0.886,0.446-1.416,0.514-1.59c0.459-1.284,1.472-1.989,3.038-2.113c0.516-0.033,1.1,0.076,1.75,0.329
		c0.292,0.112,0.861,0.387,1.708,0.824c1.465,0.746,2.592,0.991,3.383,0.732c0.04-0.011,0.525-0.098,1.457-0.261
		c0.724-0.123,1.131-0.267,1.221-0.429c0.101-0.18,0.21-0.539,0.328-1.078c0.107-0.488,0.236-0.827,0.388-1.018
		c0.532-0.674,1.425-1.197,2.676-1.574c1.391-0.422,2.336-0.848,2.836-1.279c0.527-0.454,1.055-0.763,1.583-0.925
		c0.482-0.158,1.091-0.217,1.826-0.177c0.297,0.011,0.741,0.106,1.329,0.285c0.68,0.214,1.136,0.336,1.373,0.37
		C96.057,172.779,96.617,172.313,96.724,171.214z"/>
	<path fill-rule="evenodd" clip-rule="evenodd" fill="#81BA4E" d="M209.104,142.86c0.348,0.128,0.774,0.191,1.279,0.185
		c0.291,0,0.721-0.02,1.288-0.06c1.021-0.017,1.758,0.326,2.213,1.027c0.314,0.494,0.376,1.22,0.185,2.179
		c-0.202,1.005-0.182,1.737,0.06,2.197c0.623,1.184,1.56,1.927,2.811,2.23c0.837,0.202,2.099,0.218,3.788,0.05
		c0.336-0.029,0.794-0.16,1.371-0.395c0.32-0.141,0.819-0.352,1.497-0.632c1.229-0.443,2.155-0.347,2.778,0.286
		c0.494,0.494,0.854,1.137,1.077,1.928c0.135,0.454,0.298,1.173,0.488,2.154c0.14,0.561,0.57,1.037,1.288,1.431
		c0.403,0.214,1.023,0.482,1.86,0.809c1.155,0.556,1.859,0.884,2.112,0.984c0.808,0.343,1.551,0.547,2.229,0.614
		c1.566,0.174,2.388,0.271,2.466,0.295c0.948,0.246,1.521,0.752,1.718,1.515c0.089,0.354,0.173,0.614,0.252,0.783
		c0.135,0.274,0.309,0.479,0.522,0.614c0.601,0.381,1.289,0.653,2.069,0.815c0.235,0.051,0.657,0.076,1.263,0.076
		c0.544,0.033,0.926,0.18,1.145,0.438c0.836,1.003,1.269,1.94,1.296,2.811c0.035,0.959-0.406,1.899-1.32,2.819
		c-0.299,0.303-0.825,0.773-1.583,1.413c-0.64,0.596-1.03,1.164-1.17,1.709c-0.314,1.235,0.051,2.289,1.095,3.164
		c0.297,0.241,0.766,0.606,1.405,1.094c0.421,0.36,0.749,0.727,0.984,1.103c-0.443,0.052-0.803,0.082-1.077,0.094
		c-0.758,0.062-1.433,0.036-2.029-0.076c-1.11-0.202-2.134-0.494-3.071-0.876c-0.959-0.397-1.888-0.914-2.785-1.547
		c-1.594-1.141-3.406-1.65-5.437-1.533c-0.68,0.04-1.603,0.166-2.77,0.379c-0.757,0.135-1.391,0.244-1.902,0.328
		c-0.336-0.466-0.808-0.864-1.414-1.195c-0.718-0.392-1.53-0.628-2.44-0.706c-0.908-0.084-1.759-0.006-2.549,0.235
		c-0.023,0.011-0.044,0.019-0.06,0.025c-0.146-0.31-0.348-0.575-0.605-0.8c-0.552-0.455-1.285-0.673-2.206-0.657
		c-0.864,0.018-1.531,0.167-2.003,0.448c-0.258,0.161-0.44,0.285-0.547,0.368c-0.19,0.146-0.33,0.298-0.421,0.455
		c-0.617-0.275-1.341-0.367-2.171-0.278c-0.792,0.085-1.978,0.417-3.56,0.994c-0.512,0.185-0.851,0.267-1.02,0.243
		c-0.28-0.038-0.482-0.306-0.605-0.799c-0.118-0.454-0.168-0.938-0.152-1.447c0.006-0.332,0.049-0.814,0.127-1.448
		c0.123-0.881-0.002-1.59-0.378-2.129c-0.343-0.494-0.948-0.903-1.818-1.229c-1.728-0.65-3.673-0.442-5.832,0.623
		c-2.094,1.044-3.505,2.413-4.233,4.107c-0.095,0.213-0.233,0.567-0.413,1.061c-0.174,0.449-0.334,0.794-0.479,1.035
		c-0.511,0.842-0.934,0.939-1.271,0.295c-0.274-0.886-0.446-1.417-0.513-1.591c-0.46-1.285-1.473-1.989-3.039-2.112
		c-0.516-0.034-1.1,0.075-1.75,0.327c-0.291,0.112-0.861,0.388-1.709,0.826c-1.464,0.745-2.592,0.989-3.382,0.731
		c-0.04-0.011-0.525-0.099-1.456-0.261c-0.725-0.123-1.132-0.267-1.222-0.43c-0.1-0.179-0.21-0.538-0.327-1.077
		c-0.107-0.487-0.236-0.827-0.388-1.019c-0.472-0.594-1.223-1.072-2.256-1.434c0.677-0.322,1.324-0.652,1.944-0.989v-0.067
		c2.621-1.488,4.445-2.931,5.475-4.326c0.992-0.065,1.991-0.139,3.001-0.219c2.604-0.214,4.304-0.391,5.101-0.53
		c4.936-0.853,10.225-0.527,15.863,0.977c2.233,0.6,4.77,1.441,7.608,2.525c1.319,0.509,3.886,1.553,7.701,3.13
		c2.183,0.908,3.708,1.377,4.578,1.405c0.753,0.028,0.944-0.258,0.581-0.858c-0.337-0.557-1.032-1.226-2.088-2.012
		c-1.1-0.818-2.244-1.506-3.435-2.062c0.961-0.999-2.15-3.246-9.332-6.741c-2.576-1.257-5.277-2.475-8.105-3.652
		c-2.559-1.066-4.232-1.7-5.023-1.902c0.754-0.604,0.983-1.478,0.689-2.621c2.315-2.37,4.239-4.75,5.773-7.137
		c0.225,0.236,0.45,0.442,0.682,0.618C207.887,142.321,208.448,142.618,209.104,142.86z M195.289,146.016
		c0.008,0.004,0.015,0.01,0.021,0.017c0.479,0.463,0.857,0.862,1.136,1.2c-0.562,0.53-1.127,1.047-1.696,1.548
		c-0.828,0.185-1.798,0.346-2.907,0.484c1.014-0.888,2.015-1.822,3.005-2.803C194.997,146.313,195.145,146.164,195.289,146.016z
		 M202.666,138.938c0.255-0.001,0.5,0.015,0.736,0.047c-1.214,1.938-2.717,3.87-4.511,5.798c-0.365-0.456-0.772-0.921-1.225-1.397
		c1.155-1.385,2.158-2.774,3.009-4.166C201.468,139.032,202.132,138.938,202.666,138.938z M96.724,171.214
		c-0.106,1.1-0.667,1.565-1.683,1.396c-0.236-0.034-0.693-0.156-1.373-0.37c-0.588-0.179-1.032-0.274-1.329-0.285
		c-0.735-0.04-1.344,0.019-1.826,0.177c-0.528,0.162-1.055,0.471-1.583,0.925c-0.5,0.432-1.445,0.857-2.836,1.279
		c-1.251,0.377-2.144,0.9-2.676,1.574c-0.152,0.19-0.281,0.529-0.388,1.018c-0.118,0.539-0.227,0.898-0.328,1.078
		c-0.09,0.162-0.497,0.306-1.221,0.429c-0.932,0.163-1.417,0.25-1.457,0.261c-0.791,0.259-1.918,0.014-3.383-0.732
		c-0.847-0.438-1.416-0.712-1.708-0.824c-0.651-0.253-1.234-0.362-1.75-0.329c-1.565,0.124-2.578,0.829-3.038,2.113
		c-0.068,0.174-0.239,0.704-0.514,1.59c-0.336,0.646-0.76,0.547-1.271-0.295c-0.146-0.241-0.306-0.586-0.479-1.034
		c-0.18-0.494-0.317-0.848-0.413-1.061c-0.729-1.695-2.141-3.063-4.234-4.106c-2.16-1.067-4.104-1.274-5.832-0.623
		c-0.87,0.325-1.476,0.734-1.818,1.229c-0.375,0.538-0.502,1.248-0.378,2.129c0.079,0.634,0.121,1.117,0.126,1.447
		c0.017,0.511-0.034,0.993-0.151,1.448c-0.124,0.494-0.325,0.761-0.606,0.8c-0.169,0.021-0.508-0.06-1.018-0.245
		c-1.583-0.577-2.77-0.907-3.561-0.992c-0.83-0.09-1.554,0.003-2.171,0.277c-0.09-0.157-0.23-0.308-0.421-0.454
		c-0.107-0.085-0.289-0.207-0.546-0.37c-0.472-0.281-1.14-0.43-2.004-0.446c-0.919-0.018-1.654,0.202-2.205,0.656
		c-0.258,0.225-0.46,0.491-0.606,0.799c-0.018-0.004-0.037-0.013-0.059-0.024c-0.792-0.241-1.641-0.32-2.55-0.236
		c-0.909,0.078-1.722,0.314-2.441,0.708c-0.605,0.331-1.077,0.729-1.414,1.195c-0.511-0.085-1.145-0.194-1.902-0.329
		c-1.167-0.214-2.09-0.34-2.769-0.379c-2.031-0.117-3.843,0.392-5.437,1.532c-0.897,0.634-1.826,1.149-2.785,1.549
		c-0.938,0.382-1.961,0.673-3.072,0.875c-0.595,0.111-1.271,0.138-2.028,0.076c-0.275-0.011-0.635-0.043-1.078-0.093
		c0.236-0.376,0.564-0.744,0.985-1.103c0.64-0.489,1.108-0.853,1.405-1.094c1.044-0.876,1.408-1.931,1.094-3.165
		c-0.14-0.545-0.531-1.114-1.169-1.709c-0.758-0.64-1.285-1.111-1.583-1.413c-0.915-0.921-1.355-1.86-1.322-2.819
		c0.028-0.869,0.46-1.807,1.296-2.812c0.219-0.258,0.6-0.403,1.145-0.437c0.605,0,1.026-0.026,1.262-0.076
		c0.78-0.164,1.47-0.436,2.07-0.817c0.214-0.135,0.387-0.339,0.522-0.614c0.078-0.168,0.163-0.429,0.252-0.782
		c0.196-0.764,0.768-1.268,1.717-1.515c0.079-0.022,0.9-0.121,2.466-0.296c0.679-0.066,1.422-0.271,2.23-0.613
		c0.253-0.102,0.957-0.43,2.113-0.985c0.836-0.325,1.456-0.595,1.86-0.807c0.718-0.394,1.147-0.87,1.288-1.432
		c0.191-0.982,0.354-1.7,0.488-2.155c0.224-0.791,0.583-1.433,1.078-1.926c0.622-0.635,1.548-0.731,2.777-0.287
		c0.679,0.281,1.179,0.49,1.498,0.631c0.578,0.236,1.036,0.368,1.373,0.396c1.688,0.168,2.95,0.151,3.787-0.052
		c1.25-0.303,2.188-1.046,2.811-2.229c0.241-0.461,0.261-1.192,0.059-2.196c-0.155-0.78-0.145-1.406,0.033-1.878
		c0.267,0.136,0.562,0.29,0.884,0.464l0.068,0.067c0.275,0.095,0.591,0.232,0.951,0.412v0.067c1.274,0.64,2.844,1.459,4.713,2.458
		c1.683,1.319,3.811,2.505,6.384,3.555c-0.927,0.316-2.347,0.873-4.263,1.672c-2.828,1.179-5.529,2.395-8.104,3.651
		c-7.182,3.497-10.293,5.743-9.333,6.742c-1.189,0.556-2.334,1.243-3.434,2.062c-1.055,0.785-1.75,1.456-2.086,2.012
		c-0.365,0.6-0.172,0.887,0.58,0.858c0.87-0.028,2.396-0.496,4.579-1.405c3.815-1.576,6.382-2.62,7.701-3.131
		c2.839-1.083,5.375-1.924,7.608-2.524c5.639-1.504,10.927-1.83,15.864-0.977c0.797,0.14,2.498,0.316,5.101,0.53
		c2.896,0.229,5.718,0.403,8.466,0.521c1.412,0.06,2.692,0.101,3.842,0.122c3.242,0.791,6.297,1.307,9.165,1.544
		C96.726,171.112,96.725,171.162,96.724,171.214z"/>
	<path fill-rule="evenodd" clip-rule="evenodd" fill="#68974B" d="M195.289,146.016c0.854-0.876,1.647-1.753,2.378-2.63
		c0.452,0.477,0.859,0.942,1.225,1.397c-0.402,0.43-0.818,0.86-1.25,1.291c-0.397,0.394-0.795,0.779-1.195,1.158
		c-0.278-0.337-0.657-0.737-1.136-1.2C195.304,146.026,195.297,146.02,195.289,146.016z M207.791,161.274
		c-5.639-1.504-10.928-1.829-15.863-0.977c-0.797,0.14-2.497,0.316-5.101,0.53c-1.01,0.08-2.009,0.153-3.001,0.219
		c0.043-0.056,0.084-0.111,0.122-0.169c0.219-0.14,0.488-0.277,0.809-0.412h-0.067c5.543-2.727,10.816-6.545,15.822-11.454v-0.067
		c0.152-0.154,0.304-0.307,0.454-0.458c0.294,1.143,0.064,2.017-0.689,2.621c0.791,0.202,2.465,0.836,5.023,1.902
		c2.828,1.178,5.529,2.396,8.105,3.652c7.182,3.495,10.293,5.742,9.332,6.741c1.19,0.556,2.335,1.243,3.435,2.062
		c1.056,0.786,1.751,1.455,2.088,2.012c0.363,0.601,0.172,0.887-0.581,0.858c-0.87-0.028-2.396-0.497-4.578-1.405
		c-3.815-1.577-6.382-2.621-7.701-3.13C212.561,162.716,210.024,161.874,207.791,161.274z M34.402,176.381
		c-0.752,0.028-0.945-0.259-0.58-0.858c0.336-0.556,1.032-1.227,2.086-2.012c1.1-0.818,2.245-1.506,3.434-2.062
		c-0.959-0.999,2.152-3.245,9.333-6.742c2.575-1.257,5.277-2.473,8.104-3.651c1.916-0.799,3.336-1.355,4.263-1.672
		c0.617,0.255,1.262,0.5,1.932,0.737c0.959,0.455,1.913,0.912,2.861,1.371l0.075,0.06c0.724,0.275,1.428,0.569,2.113,0.884v0.076
		c1.863,0.813,3.703,1.585,5.521,2.313c0.09,0.051,0.18,0.096,0.27,0.136l0.27,0.143c0.095,0,0.191,0.022,0.286,0.066
		c0.039,0,0.082,0.021,0.127,0.06c4.648,1.864,9.003,3.294,13.065,4.288c-1.15-0.021-2.431-0.063-3.842-0.122
		c-2.749-0.118-5.571-0.292-8.466-0.521c-2.603-0.214-4.303-0.391-5.101-0.53c-4.937-0.854-10.225-0.527-15.864,0.977
		c-2.233,0.601-4.769,1.441-7.608,2.524c-1.319,0.511-3.886,1.555-7.701,3.131C36.799,175.885,35.272,176.353,34.402,176.381z
		 M180.667,157.672c0.05,0.09,0.069,0.193,0.058,0.312c-0.223-0.236-0.543-0.438-0.959-0.606c-1.739-0.695-2.719-1.152-2.937-1.371
		c-0.545-0.342-0.957-0.778-1.237-1.305c0.235,0.27,0.519,0.508,0.85,0.716c0.23,0.229,1.254,0.706,3.072,1.43
		C180.058,157.072,180.442,157.347,180.667,157.672z M184.353,155.829c-0.112-0.259-0.253-0.506-0.421-0.741
		c2.713-1.644,5.35-3.584,7.911-5.824c1.109-0.138,2.079-0.299,2.907-0.484c-3.296,2.902-6.718,5.319-10.264,7.25
		C184.442,155.941,184.397,155.873,184.353,155.829z"/>
	<path fill-rule="evenodd" clip-rule="evenodd" fill="#C1502B" d="M65.668,81.303c1.42-0.274,5.655-2.931,12.709-7.969v-0.067
		c6.688-4.897,10.923-7.684,12.708-8.357c9.678-3.703,18.086-4.932,25.223-3.686c0.797,0.134,1.619,0.314,2.466,0.538l11.118,2.744
		l5.217-0.202c0.444-0.045,0.912-0.067,1.406-0.067c0.044,0,0.112,0,0.202,0h0.059c8.438,0,16.645,1.139,24.617,3.417
		c10.396,2.901,19.317,7.406,26.764,13.517v-0.067c1.475,1.201,2.86,2.446,4.157,3.736c0.224,0.225,0.469,0.471,0.732,0.741
		c3.478,3.658,6.334,7.605,8.567,11.841h-0.075c0.134,0.174,0.294,0.421,0.479,0.741l-0.144-0.144
		c0.045,0.096,0.116,0.23,0.212,0.404l0.05,0.135v0.067c0.05,0.095,0.098,0.182,0.144,0.261c0.045,0.096,0.092,0.188,0.143,0.278
		l0.06,0.067l0.336,0.926c0.045,0.095,0.09,0.188,0.135,0.278l0.068,0.067l0.529,1.338c0.045,0.129,0.09,0.261,0.135,0.396v0.135
		l0.067,0.143c0.045,0.039,0.067,0.082,0.067,0.126v0.076l0.067,0.066c1.026,2.979,1.203,6.234,0.529,9.763
		c-0.751,3.473-1.063,6.483-0.934,9.031c0.045,0.897,0.157,1.722,0.337,2.474c0.354,1.879,0.443,3.75,0.269,5.613v0.076
		c-0.317,2.844-1.265,5.677-2.841,8.5c-0.181,0.327-0.372,0.654-0.571,0.98c-0.851,1.392-1.854,2.781-3.009,4.166
		c-0.73,0.877-1.523,1.754-2.378,2.63c-0.145,0.148-0.292,0.297-0.441,0.446c-0.99,0.98-1.991,1.915-3.005,2.803
		c-2.562,2.24-5.198,4.18-7.911,5.824c-0.662,0.398-1.327,0.78-1.994,1.145c-0.04-0.089-0.082-0.156-0.127-0.202
		c-0.493-1.156-1.587-2.07-3.281-2.743c-1.162-0.443-1.83-0.713-2.004-0.809c-0.232-0.3-0.237-0.834-0.017-1.602
		c0.012-0.043,0.025-0.086,0.038-0.131c0.355-1.156,1.192-2.808,2.512-4.958c3.838-6.424,6.292-12.576,7.365-18.456
		c1.115-6.245,0.628-11.443-1.466-15.596c-0.583-1.335-2.502-3.004-5.756-5.007c-1.477-0.942-2.593-1.568-3.351-1.877
		c-0.538-0.27-0.962-0.426-1.271-0.471c-0.079-0.017-0.154-0.031-0.227-0.042c-0.781-0.146-1.369-0.089-1.768,0.168
		c-0.348,0.225-0.552,0.606-0.614,1.146c-0.135,0.353-0.225,0.711-0.27,1.077c-2.94-2.233-10.097-6.918-21.469-14.055
		c-2.856-1.829-5.87-3.658-9.039-5.487l-6.632-3.813l-0.522,9.695c0.443,5.178,2.317,9.549,5.622,13.112
		c2.581,2.682,5.656,5.111,9.224,7.288c1.964,1.117,4.489,2.48,7.574,4.09h-0.075c1.56,0.803,2.497,1.563,2.812,2.281
		c0.039,0.842-0.545,2.068-1.751,3.678c-7.221,7.306-12.658,13.301-16.31,17.985c-0.943,1.167-1.801,2.334-2.576,3.501
		c-0.595,0.887-1.142,1.773-1.641,2.66c0.039-3.305-0.41-6.915-1.347-10.831l0.076,0.067c-1.605-7.008-4.326-13.368-8.164-19.079
		v-0.067c-4.332-6.375-9.241-10.697-14.728-12.97c-6.24-2.631-12.975-3.234-20.208-1.809c-6.958,1.296-15.853,4.794-26.688,10.495
		c-3.305,1.649-6.674,3.234-10.107,4.755c0.056-1.353,0.179-2.674,0.371-3.964c0.258-1.834,0.651-3.612,1.178-5.335v-0.059
		l0.067-0.068c0.084-0.499,0.216-0.97,0.396-1.414c0-0.039,0-0.084,0-0.135c0-0.044,0.02-0.067,0.059-0.067v-0.059
		c0-0.089,0.026-0.179,0.076-0.269c0.022-0.186,0.026-0.367,0.008-0.547c-0.022-0.202-0.07-0.398-0.143-0.589
		c-0.18-0.359-0.401-0.625-0.665-0.799l-0.075-0.067c-0.264-0.179-0.485-0.359-0.665-0.538l-0.202-0.211
		c-0.084-0.079-0.171-0.143-0.261-0.193c-0.095-0.09-0.166-0.16-0.21-0.21c-0.225-0.213-0.424-0.412-0.598-0.598
		c-2.138-2.138-3.656-4.342-4.553-6.615c-0.309-0.763-0.53-1.545-0.665-2.348v-0.067l-0.059-0.059
		c-0.095-0.359-0.143-0.693-0.143-1.002v-0.067l0.26-3.687l-0.521,0.404c-0.23,0.219-0.278,0.199-0.144-0.059
		c0.045-0.051,0.116-0.118,0.211-0.202l0.336-0.278l0.993-2.541c0.14-0.225,0.298-0.424,0.472-0.598l-0.135,0.06
		c0.225-0.219,0.446-0.396,0.665-0.53l1.347-0.8c2.003-0.893,6.174-2.009,12.515-3.35V81.303z M110.838,108.589
		c4.809,2.054,9.106,5.905,12.894,11.555c3.557,5.297,6.073,11.194,7.549,17.691c1.458,6.278,1.546,11.62,0.262,16.024h0.067
		c-1.246,4.141-3.717,6.433-7.415,6.876c-2.177,0.219-4.98,0.951-8.408,2.197c-0.937,0.314-1.784,0.65-2.542,1.01l-0.799,0.336
		v-0.075l-4.746,1.607h-0.051c-0.051,0-0.098,0-0.143,0l-0.202,0.134h-0.059c-0.23,0.046-0.41,0.09-0.539,0.136h-0.068
		c-0.095,0-0.163,0.021-0.201,0.066c-1.017,0.27-2.074,0.479-3.173,0.627c0.08,0.04,0.159,0.082,0.235,0.127
		c-0.786,0.074-1.591,0.12-2.415,0.139c-0.365,0.008-0.733,0.008-1.106,0.004c-0.124-0.001-0.249-0.002-0.375-0.004
		c-0.636,0.011-1.284,0.003-1.944-0.021c-6.408-0.23-13.94-2.081-22.597-5.551h-0.076c-0.083-0.044-0.148-0.066-0.193-0.066
		c-0.089-0.045-0.159-0.088-0.21-0.126h-0.059l-0.135-0.067c-1.734-0.712-3.515-1.471-5.345-2.272
		c-0.662-0.309-1.349-0.623-2.062-0.943h-0.076c-1.722-0.82-3.507-1.694-5.353-2.626c-0.542-0.272-1.089-0.551-1.642-0.832h0.059
		c-1.111-0.629-2.138-1.165-3.08-1.608c-1.457-0.759-2.749-1.437-3.876-2.032c-0.428-0.228-0.833-0.442-1.211-0.648
		c-0.085-0.044-0.168-0.087-0.249-0.13h0.076c-0.493-0.264-0.917-0.462-1.271-0.598h0.126c-0.308-0.129-0.575-0.241-0.799-0.337
		c-0.135-0.083-0.247-0.148-0.337-0.194c-0.129-0.095-0.241-0.163-0.336-0.201l-0.328-0.135c-0.09-0.044-0.18-0.087-0.27-0.126
		c-4.713-2.362-7.869-4.988-9.468-7.877c-0.404-0.763-0.699-1.546-0.884-2.348c-0.218-0.977-0.328-2.023-0.328-3.139
		c0-0.04,0-0.082,0-0.126c-0.045,0.134-0.135,0.311-0.269,0.53l1.001-2.803c0.494-1.605,0.847-2.494,1.061-2.668l0.142-0.134
		c1.073-1.156,2.607-2.135,4.604-2.938c1.605-0.668,4.654-1.846,9.148-3.535c0.225-0.045,0.469-0.113,0.732-0.202
		c0-0.045,0.022-0.068,0.067-0.068c4.545-1.873,8.955-3.899,13.23-6.076c10.369-5.476,18.869-8.837,25.5-10.083
		C99.355,105.767,105.316,106.277,110.838,108.589z M183.553,61.795c0.084-0.252,0.146-0.459,0.186-0.622c0.051,0,0.112,0,0.185,0
		c2.396,0.252,3.928,0.628,4.596,1.127v-0.067c2.559,2.39,4.298,6.077,5.218,11.059c0.039,0.224,0.079,0.451,0.117,0.682
		c0.107,0.689,0.203,1.406,0.287,2.146c0.033,0.292,0.065,0.585,0.093,0.883c-0.213-0.179-0.427-0.356-0.64-0.53
		c-0.04-0.033-0.078-0.067-0.117-0.101c-7.413-6.026-16.244-10.486-26.495-13.381c-1.509-0.421-3.041-0.797-4.595-1.128
		c1.257,0.146,2.615,0.3,4.073,0.463c1.021,0.112,2.09,0.23,3.206,0.354c3.945,0.42,6.922,0.673,8.93,0.758
		c1.05,0.039,1.869,0.059,2.458,0.059C182.894,63.372,183.728,62.805,183.553,61.795z M139.823,57.84
		c2.138-0.045,4.913,0.23,8.324,0.825c-2.732-0.274-5.484-0.438-8.256-0.488L139.823,57.84z M141.834,92.102l0.984,0.522
		c3.001,1.785,5.895,3.549,8.677,5.294c17.534,10.963,26.8,15.575,27.798,13.836v0.059c0.136-0.135,0.247-0.241,0.337-0.32
		c0.039,0.045,0.084,0.084,0.135,0.118c2.306,1.397,3.697,2.511,4.175,3.341v-0.076c0.931,1.986,1.447,4.247,1.549,6.783
		c0.078,1.857-0.067,3.86-0.438,6.009c-1.004,5.358-3.226,10.933-6.665,16.723c-1.575,2.597-2.572,4.791-2.992,6.581
		c-0.361,1.542-0.295,2.783,0.198,3.729c0.28,0.526,0.692,0.963,1.237,1.305c0.218,0.219,1.197,0.676,2.937,1.371
		c0.416,0.169,0.736,0.37,0.959,0.606c0.051,0.057,0.1,0.115,0.144,0.177c0.09,0.174,0.067,0.393-0.067,0.656v0.126
		c-0.501,0.744-1.423,1.551-2.769,2.419c-0.389,0.253-0.813,0.51-1.271,0.771c-1.412,0.764-2.973,1.481-4.681,2.154
		c-0.484,0.191-0.98,0.379-1.489,0.563c-2.507,0.904-5.305,1.721-8.391,2.45c-5.701,1.317-10.635,1.936-14.804,1.851
		c-0.225-0.006-0.447-0.014-0.665-0.026h-0.059c-0.875-0.044-1.639-0.107-2.29-0.192l0.068,0.06
		c-1.79-0.304-3.033-0.762-3.729-1.373c-0.045-0.083-0.085-0.125-0.118-0.125c-0.051-0.046-0.076-0.088-0.076-0.127
		c-0.135-0.174-0.202-0.328-0.202-0.463v-0.067c-1.128-7.047,1.355-14.444,7.448-22.193c3.529-4.522,8.753-10.265,15.671-17.228
		l0.126-0.126c2.345-3.007,3.192-5.403,2.541-7.188v-0.059c-0.101-0.517-0.333-1.029-0.698-1.54
		c-0.751-1.043-2.062-2.076-3.93-3.097h-0.068c-2.961-1.527-5.355-2.831-7.178-3.914l0.059,0.067
		c-3.17-1.918-5.889-4.076-8.155-6.472c-1.105-1.217-2.009-2.553-2.71-4.006c-0.926-1.919-1.501-4.043-1.726-6.372L141.834,92.102z
		 M132.299,162.646c-0.034,1.189,0.022,2.379,0.168,3.568c0.012,0.062,0.02,0.124,0.025,0.186c-2.851-0.309-6.06-0.732-9.628-1.271
		c0.802-0.18,1.515-0.314,2.137-0.404c3.035-0.309,5.49-1.448,7.364-3.417C132.333,161.751,132.311,162.196,132.299,162.646z
		 M55.41,156.232c0.954,0.5,1.978,1.047,3.072,1.641c0.966,0.481,1.914,0.955,2.845,1.419c0.556,0.279,1.105,0.556,1.649,0.829
		c-0.67-0.237-1.315-0.482-1.932-0.737c-2.573-1.05-4.701-2.235-6.384-3.555C54.885,155.918,55.135,156.053,55.41,156.232z"/>
</g>
</svg>
