<?xml version="1.0" encoding="utf-8"?>
<!-- Generator: Adobe Illustrator 16.0.0, SVG Export Plug-In . SVG Version: 6.00 Build 0)  -->
<!DOCTYPE svg PUBLIC "-//W3C//DTD SVG 1.1//EN" "http://www.w3.org/Graphics/SVG/1.1/DTD/svg11.dtd">
<svg version="1.1" id="Layer_1" xmlns="http://www.w3.org/2000/svg" xmlns:xlink="http://www.w3.org/1999/xlink" x="0px" y="0px"
	 width="316.667px" height="310.667px" viewBox="0 0 316.667 310.667" enable-background="new 0 0 316.667 310.667"
	 xml:space="preserve">
<g>
	<path fill="#010101" d="M186.848,6.492c6.671,2.523,13.303,8.268,19.892,17.233l-2.346-15.606
		c7.777,2.981,15.129,8.84,22.051,17.577l-1.783-10.04c9.905,7.528,17.609,17.026,23.114,28.494l-1.626-16.484
		c5.734,6.213,10.395,13.502,13.98,21.863c2.522,5.964,4.974,13.97,7.351,24.021l1.095-10.416c4.295,6.464,7.1,13.992,8.413,22.583
		c0.835,5.255,1.251,13.325,1.251,24.209l1.971-3.598c0.604-1.418,1.084-2.429,1.438-3.034c1.563,5.734,1.263,12.907-0.905,21.518
		c0.125,0.104,0.969,1.001,2.532,2.69c0.834,0.938,1.367,1.71,1.595,2.314c3.357,9.445,1.866,17.099-4.473,22.958l-5.566,4.815
		l8.602,12.918l-0.721,0.719l-9.133-5.566l10.572,21.143l-1.064,0.721l-9.852-6.443l9.32,20.799l-1.252,0.721l-9.883-7.352
		l6.475,20.957l-1.094,0.531l-10.197-6.631l2.127,22.583l-1.251,0.375l-7.163-7.726c-0.834,6.463-1.605,11.072-2.314,13.824
		c-1.209,4.9-2.949,9.195-5.223,12.887l-3.379-12.543l-10.604,27.242l-1.25-0.342l-1.439-13.105
		c-2.501,5.504-4.473,9.508-5.91,12.01c-2.628,4.191-5.546,7.716-8.758,10.57v-13.604c-2.396,1.542-3.951,2.794-4.66,3.753
		c-1.085,1.564-1.324,3.42-0.72,5.567c0.354,1.188,0.595,2.804,0.72,4.848c0.104,3.462,0.156,5.369,0.156,5.726l-6.63-7.164
		c0.834,10.279-3.524,18.162-13.074,23.646v-10.04c-6.923,8.008-14.69,13.502-23.302,16.482l1.783-6.786
		c-5.609,4.17-9.312,6.255-11.104,6.255c-1.667,0-4.951-2.146-9.852-6.441l1.783,7.162c-8.967-3.337-16.609-8.832-22.927-16.484
		l-0.907,8.789c-6.923-1.438-11.343-8.726-13.262-21.861l-5.723,6.443c0.229-6.569,0.458-10.219,0.688-10.947
		c0.48-2.021,0.25-3.754-0.688-5.191c-0.605-0.959-1.929-2.212-3.974-3.754v13.793c-3.335-2.855-6.316-6.443-8.945-10.759
		c-1.188-2.022-3.221-6.026-6.099-12.011l-1.438,14.169c-4.901-8.132-8.778-17.453-11.635-27.962l-3.409,12.543
		c-2.398-3.691-4.191-7.934-5.38-12.73c-0.709-3.105-1.428-7.766-2.158-13.979l-7.351,7.725l-1.063-0.375l1.97-22.583l-10.228,6.632
		l-1.063-0.533l6.443-20.799l-10.196,7.537c0.229-3.336,1.303-7.099,3.222-11.291c2.147-4.421,3.702-7.83,4.66-10.229l-9.695,6.475
		c1.313-5.379,4.659-12.792,10.04-22.238l-9.322,5.567l-0.718-0.718l8.256-12.387c-2.627-2.626-4.899-5.129-6.818-7.506
		c-2.752-3.106-4.306-6.756-4.66-10.947c-0.354-4.17,0.542-7.996,2.69-11.479c1.313-0.938,2.449-1.771,3.409-2.502
		c-2.272-9.321-2.69-17.087-1.25-23.301l2.846,6.63c0.479-11.343,1.084-19.047,1.814-23.113c1.542-8.487,4.472-15.712,8.788-21.675
		l0.876,9.321c2.397-9.925,4.848-17.88,7.351-23.864c3.586-8.237,8.183-15.159,13.793-20.769l-1.408,15.044
		c6.214-11.948,13.919-21.332,23.114-28.15l-1.783,9.696c7.527-8.965,14.867-14.7,22.02-17.203l-2.315,15.42
		c6.088-8.611,12.656-14.294,19.704-17.045v13.793L160.855,3.99c2.982-2.752,5.964-2.752,8.945,0l17.047,16.326L186.848,6.492
		L186.848,6.492z M228.414,113.522c0.836-1.209,1.189-2.105,1.063-2.689c-0.104-0.73-0.813-1.335-2.126-1.814l-2.689-1.063
		l3.565-10.04l-10.917,1.25l2.158-19.36l-16.67,7.006l1.063-9.321l-11.104,8.789l-1.096-0.906v-5.756L177.15,92.004l-1.063-9.852
		l-11.479,10.572l-10.572-8.789l0.344,6.099l-1.063,0.719l-12.355-9.133l-2.689,4.661l-10.947-8.257l0.719,7.882l-1.063,1.063
		l-14.7-8.601c-0.375,3.357-0.563,5.098-0.563,5.223c0,0.938,0.479,4.754,1.439,11.446c0.25,2.273,0.136,3.649-0.345,4.129
		c-0.605,0.48-1.98,0.366-4.128-0.344l-6.443-1.97l3.941,11.446l-5.38,0.376c0.834,5.129,3.347,8.893,7.538,11.291
		c2.147,1.189,6.328,2.502,12.542,3.941l-16.326,3.597l-0.157,0.688l5.536,0.908l-8.601,4.472l0.376,1.094l4.816,1.251l-8.413,7.35
		l12.729-2.501v-3.598l13.793,5.724l0.718-4.284l9.509,4.847c0.229,2.022,0.761,3.273,1.596,3.754
		c0.729,0.604,2.168,0.667,4.316,0.187l7.538-1.095l1.251-5.536l1.251,0.155l0.72,10.041l1.063,0.375l8.256-8.07l3.565,5.192
		c0.479,0.604,2.158,2.335,5.037,5.191v-11.479h0.875l1.971,5.037l6.631,0.906l-2.127,2.847c2.023,0.604,3.035-0.469,3.035-3.222
		c0-2.272,0.177-4.597,0.531-6.974l1.094,0.343l1.439,6.443c1.063,0,2.553-0.052,4.473-0.156c1.541-0.125,2.793-0.01,3.752,0.344
		c1.314,0.355,2.514,0.292,3.598-0.188c0.709-0.229,1.605-0.938,2.689-2.126l8.069-8.258l0.876,5.724l13.98-5.536v3.752l9.695,0.72
		l-5.566-6.443l9.32,1.251l0.344-0.531l-14.325-7.726h6.099l0.188-0.875l-16.326-3.597c1.438-1.188,2.815-1.783,4.127-1.783
		C219.637,122.477,224.474,119.611,228.414,113.522z M266.041,144.33l11.135-4.847l0.72,0.906c-1.793,0.604-2.866,2.46-3.222,5.568
		c-0.375,2.981-1.574,4.827-3.596,5.536l0.906-6.067l-4.504,4.097l5.755,7.005l4.66-6.286c1.543-2.502,2.376-3.993,2.502-4.473
		c0.479-2.147,0.834-5.433,1.063-9.853c0-0.354-0.239-0.771-0.719-1.251c-0.479-0.479-0.949-0.781-1.408-0.906
		c-2.043-0.479-4.619,0.542-7.725,3.065C268.376,139.326,266.52,141.829,266.041,144.33z M211.556,109.926v1.25l-43.914,8.977
		c-0.479,5.838,0,9.237,1.439,10.196c1.313,0.959,4.785,0.302,10.416-1.971c4.17-1.668,10.676-3.701,19.518-6.099
		c0.354-0.105,2.627,0.021,6.818,0.375l-0.346,0.876c-6.213,0.854-14.585,4.087-25.115,9.695c-9.322,5.13-18.518,5.484-27.587,1.063
		c-5.858-3.107-10.279-5.317-13.262-6.63c-5.253-2.377-10.091-3.628-14.512-3.754l0.157-1.626h5.192
		c2.043,0.125,3.721,0.313,5.035,0.563c1.313,0.354,6.985,2.262,17.014,5.723c3.231,1.189,5.86,1.959,7.881,2.315
		c0.25,0,0.678-0.293,1.283-0.875c0.459-0.48,0.752-0.96,0.875-1.439c0.125-0.709,0.365-3.514,0.719-8.413l-43.38-8.977l-0.157-1.25
		c7.757-0.251,12.354-0.314,13.793-0.188c1.439,0.125,5.557,0.729,12.354,1.813c5.151,0.709,9.332,1.126,12.543,1.252l-1.408,0.531
		c3.107,0.584,5.016,0.647,5.724,0.188c0.707-0.605,1.126-2.398,1.251-5.379c0-5.276,0.479-9.999,1.438-14.168l0.906,2.314
		l0.344,9.883c0.229,4.045,0.772,6.433,1.625,7.163c0.709,0.708,3.16,0.824,7.352,0.344c2.502-0.229,6.266-0.824,11.291-1.783
		c4.9-0.959,8.602-1.616,11.103-1.97c1.794-0.251,4.067-0.314,6.82-0.188C206.312,109.738,208.576,109.801,211.556,109.926z
		 M222.847,162.971h-1.408l-1.813-6.63c-6.568,8.611-15.41,10.707-26.523,6.287c6.088,6.316,14.335,9.602,24.74,9.852
		c-4.9,1.919-9.801,2.096-14.7,0.531c-3.586-1.063-7.944-3.387-13.074-6.975l-0.907,1.064l14.889,13.449
		c-1.084-0.25-1.93-0.428-2.534-0.532c-0.938-0.251-1.647-0.615-2.126-1.095c-5.631-4.545-9.217-7.768-10.76-9.666
		c-1.084-1.209-1.209-2.709-0.375-4.504c1.209-1.897,1.929-3.326,2.158-4.285l-0.188-0.531h-5.536l-1.627,7.163
		c0.354,0.958,0.771,2.335,1.251,4.127c0.479,1.544,1.084,2.618,1.814,3.224c0.584,0.604,4.222,3.408,10.916,8.412
		c5.149,3.711,8.194,6.047,9.133,7.006c2.043,1.896,4.379,2.075,7.006,0.531l13.605-7.881c4.065-2.148,5.807-5.254,5.224-9.32
		c-0.25-2.523-1.095-5.099-2.534-7.727c-0.834-1.313-2.439-3.639-4.816-6.975L222.847,162.971z M210.68,156.873
		c-0.959,1.563-1.917,2.586-2.877,3.064c-2.856,1.793-6.025,0.292-9.509-4.504l-3.221,4.129l4.316,1.971
		c1.417,0.375,2.971,0.563,4.66,0.563c6.214,0.23,10.332-2.586,12.354-8.445l-3.033-1.438
		C212.641,153.296,211.744,154.85,210.68,156.873z M186.848,198.283c4.17-0.479,7.454,1.793,9.851,6.818l-3.408-1.438
		c-1.439,2.627-2.69,4.357-3.754,5.191c-1.688,1.668-3.898,2.45-6.629,2.346c2.375-1.564,4.045-2.826,5.002-3.785
		c1.543-1.543,2.2-3.336,1.971-5.379c-1.438,2.752-2.814,4.67-4.127,5.754c-2.023,1.67-4.525,2.326-7.506,1.971l1.063,10.572
		c-3.939-2.147-5.254-6.453-3.939-12.918c0.479-2.146,1.854-4.117,4.127-5.91C181.77,199.607,184.218,198.535,186.848,198.283z
		 M176.964,178.205l-0.344-1.063l6.975-5.036l-11.449-3.221l0.346-1.596l8.789-0.908c-1.439-3.586-3.89-4.838-7.351-3.752
		c-1.313,0.229-2.147,0.281-2.501,0.156c-0.355-0.229-0.594-0.939-0.721-2.127l-0.72-3.785l-8.601,1.25
		c-0.354,0.25-0.657,0.438-0.907,0.563c-0.709,0.584-1.658,1.835-2.846,3.753c-1.209,1.438-2.825,1.553-4.849,0.344l-3.784,3.784
		l9.508,0.72c-0.229,1.668-0.886,2.68-1.97,3.035c-0.126,0-1.137,0-3.035,0c-1.689,0-2.763,0.063-3.221,0.188
		c-1.084,0.354-1.689,1.25-1.814,2.689l5.755,3.752l-0.376,1.252h-7.35c4.317,1.563,7.362,3.064,9.133,4.504
		c1.918,1.418,3.118,3.324,3.597,5.723l-5.911-2.689c-9.446-4.191-18.287-0.541-26.523,10.947v1.251
		c1.063,0,2.491-0.188,4.284-0.563l-9.853,11.854l0.908,0.875l5.192-1.595l-7.882,13.605l5.911-1.783l-5.566,14.324l4.503-2.845
		l0.157,4.285c0.125,4.065,0.906,6.756,2.346,8.069c1.313,1.188,4.003,1.668,8.069,1.438l4.285-0.531
		c15.66-2.523,29.349-3.002,41.067-1.439l19.173,2.158c3.21,0.354,5.296-1.146,6.255-4.504l0.906-6.254
		c0-1.563,0.115-2.398,0.345-2.502c1.563-0.375,2.347-1.095,2.347-2.158c0-0.25-0.304-1.209-0.908-2.877
		c-1.314-2.752-2.263-4.838-2.847-6.256v-1.095l4.286-1.25l-6.443-10.384l5.537,1.595l0.719-1.063l-9.853-11.479h5.38
		c-3.232-3.336-5.619-5.786-7.164-7.352c-2.75-2.625-5.504-4.42-8.256-5.377c-2.98-1.065-6.203-1.065-9.664,0
		c-1.794,0.604-5.025,2.043-9.695,4.315c2.877-5.505,7.6-9.153,14.168-10.946H176.964z M67.274,142.735
		c-5.839-4.19-9.716-6.829-11.635-7.913c-4.899-2.627-7.235-1.011-7.006,4.848c0,1.918,0.48,3.649,1.439,5.193
		c0.25,0.375,2.7,4.326,7.351,11.853l5.035-5.942c-2.273,0.604-3.889,0.375-4.847-0.689c-0.605-0.603-1.147-1.917-1.626-3.94
		l-1.971-6.287l12.386,4.849L67.274,142.735z M106.183,164.753l-0.531-5.537l-4.504,6.633c-4.65,8.486-2.314,14.699,7.005,18.641
		c4.901,2.023,9.019,5.244,12.355,9.664c5.025-6.213,11.187-10.811,18.484-13.792c1.669-0.604,3.879-2.878,6.631-6.819
		c0.458-0.709,0.927-1.781,1.407-3.221c0.479-1.793,0.908-3.221,1.283-4.285l-7.006-6.631l-0.907,0.688l1.439,5.38v0.11
		c-1.859,1.064-3.501,2.008-4.926,2.83l-7.085,3.877c-5.379,2.629-11.292,2.69-17.735,0.188c7.403-0.833,12.606-1.793,15.608-2.877
		c2.856-0.958,5.422-2.806,7.695-5.536c-11.239,2.627-19.548-0.303-24.928-8.79l-2.847,9.853L106.183,164.753z M114.596,153.65
		c1.668,4.296,4.713,6.986,9.133,8.07c4.42,1.188,8.612,0.292,12.573-2.689l-4.66-3.035c-2.273,3.941-4.91,5.432-7.913,4.473
		c-3.566-0.959-4.931-3.951-4.097-8.976L114.596,153.65z M165.516,194c1.418,0.104,3.086-0.793,5.004-2.69l-4.474,19.33h-1.094
		l-4.66-19.519l0.375-1.25C162.21,192.498,163.828,193.875,165.516,194z M137.554,203.664l-3.597,1.782
		c2.147-4.774,4.953-7.225,8.414-7.351c2.523-0.104,4.973,0.553,7.351,1.971c2.272,1.563,3.888,3.419,4.847,5.566
		c2.502,5.734,1.491,10.812-3.033,15.232l1.063-11.104c-5.026,0.582-8.904-2.045-11.636-7.883c-0.125,2.022,0.469,3.816,1.783,5.379
		c0.229,0.23,1.658,1.418,4.285,3.566C143.341,210.951,140.183,208.563,137.554,203.664z M141.84,165.662
		c0.354,2.397,0.479,3.711,0.375,3.94c-1.209,2.522-3.305,4.796-6.287,6.817c-2.751,2.023-5.38,3.223-7.882,3.598L141.84,165.662z
		 M126.607,254.395c-2.501,2.272-4.472,5.976-5.912,11.104l6.631-3.408c-1.188,4.773-1.846,8.715-1.971,11.822
		c-0.125,4.065,0.657,7.893,2.346,11.479l5.004-8.415c4.295,8.841,9.613,14.69,15.952,17.547l0.531-8.758l1.251-0.72l1.25,2.314
		l10.572,11.823c0.479,0.479,1.262,0.844,2.345,1.094c1.084,0.229,1.741,0.229,1.972,0c1.313-1.313,5.254-5.557,11.821-12.729
		l2.347-2.346l1.063,5.225c0.604,3.336,2.159,3.93,4.661,1.783c1.667-1.439,2.689-2.461,3.064-3.065l8.602-11.634l4.097,9.132
		c1.794-3.586,2.69-7.591,2.69-12.011c0-2.981-0.532-7.1-1.596-12.354l7.881,4.13c-1.793-3.004-2.688-4.557-2.688-4.66
		c-1.563-6.465-6.642-10.646-15.231-12.543c-18.643-4.19-36.98-4.252-55.017-0.188C132.894,250.33,129.005,252.123,126.607,254.395z
		"/>
	<path fill="#989898" d="M228.414,113.522c-3.939,6.089-8.776,8.955-14.513,8.601c-1.313,0-2.69,0.595-4.127,1.783l16.326,3.597
		l-0.188,0.875h-6.099l14.325,7.726l-0.344,0.531l-9.32-1.251l5.566,6.443l-9.695-0.72v-3.752l-13.98,5.536l-0.876-5.724
		l-8.069,8.258c-1.084,1.188-1.98,1.896-2.689,2.126c-1.084,0.48-2.283,0.542-3.598,0.188c-0.959-0.354-2.209-0.469-3.752-0.344
		c-1.92,0.104-3.409,0.156-4.473,0.156l-1.439-6.443l-1.094-0.343c-0.354,2.377-0.531,4.702-0.531,6.974
		c0,2.753-1.012,3.827-3.035,3.222l2.127-2.847l-6.631-0.906l-1.971-5.037h-0.875v11.479c-2.877-2.856-4.558-4.587-5.037-5.191
		l-3.565-5.192l-8.256,8.07l-1.063-0.375l-0.72-10.041l-1.251-0.155l-1.251,5.536l-7.538,1.095
		c-2.148,0.479-3.586,0.417-4.316-0.187c-0.835-0.48-1.367-1.732-1.596-3.754l-9.509-4.847l-0.718,4.284l-13.793-5.724v3.598
		l-12.729,2.501l8.413-7.35l-4.816-1.251l-0.376-1.094l8.601-4.472l-5.536-0.908l0.157-0.688l16.326-3.597
		c-6.214-1.438-10.395-2.752-12.542-3.941c-4.191-2.398-6.704-6.162-7.538-11.291l5.38-0.376l-3.941-11.446l6.443,1.97
		c2.148,0.709,3.523,0.824,4.128,0.344c0.48-0.479,0.594-1.856,0.345-4.129c-0.96-6.692-1.439-10.508-1.439-11.446
		c0-0.125,0.188-1.866,0.563-5.223l14.7,8.601l1.063-1.063l-0.719-7.882l10.947,8.257l2.689-4.661l12.355,9.133l1.063-0.719
		l-0.344-6.099l10.572,8.789l11.479-10.572l1.063,9.852l14.512-12.386v5.756l1.096,0.906l11.104-8.789l-1.063,9.321l16.671-7.006
		l-2.159,19.36l10.917-1.25l-3.565,10.04l2.689,1.063c1.314,0.479,2.021,1.084,2.126,1.814
		C229.603,111.417,229.25,112.313,228.414,113.522z M266.041,144.33c0.479-2.501,2.336-5.004,5.568-7.506
		c3.105-2.523,5.682-3.545,7.725-3.065c0.459,0.125,0.929,0.427,1.408,0.906c0.479,0.48,0.719,0.897,0.719,1.251
		c-0.229,4.42-0.584,7.705-1.063,9.853c-0.125,0.479-0.958,1.97-2.502,4.473l-4.66,6.286l-5.755-7.005l4.504-4.097l-0.906,6.067
		c2.021-0.708,3.221-2.555,3.596-5.536c0.354-3.107,1.429-4.963,3.222-5.568l-0.72-0.906L266.041,144.33z M211.556,109.926
		c-2.98-0.125-5.244-0.188-6.786-0.188c-2.753-0.126-5.026-0.063-6.819,0.188c-2.502,0.354-6.203,1.01-11.103,1.97
		c-5.026,0.958-8.79,1.553-11.292,1.783c-4.191,0.479-6.641,0.364-7.352-0.344c-0.854-0.73-1.396-3.117-1.625-7.163l-0.344-9.883
		l-0.906-2.314c-0.959,4.169-1.438,8.893-1.438,14.168c-0.125,2.981-0.542,4.774-1.251,5.379c-0.708,0.459-2.617,0.397-5.724-0.188
		l1.408-0.531c-3.212-0.126-7.392-0.542-12.543-1.252c-6.797-1.084-10.915-1.689-12.354-1.813
		c-1.438-0.126-6.036-0.063-13.793,0.188l0.157,1.25l43.38,8.977c-0.354,4.899-0.594,7.704-0.719,8.413
		c-0.125,0.479-0.416,0.959-0.875,1.439c-0.604,0.583-1.031,0.875-1.283,0.875c-2.021-0.355-4.649-1.126-7.881-2.315
		c-10.029-3.461-15.701-5.369-17.014-5.723c-1.314-0.25-2.992-0.438-5.035-0.563h-5.192l-0.157,1.626
		c4.42,0.125,9.258,1.376,14.512,3.754c2.982,1.313,7.403,3.523,13.262,6.63c9.07,4.421,18.266,4.067,27.587-1.063
		c10.531-5.608,18.901-8.841,25.115-9.695l0.346-0.876c-4.191-0.354-6.465-0.48-6.818-0.375c-8.842,2.397-15.348,4.431-19.518,6.099
		c-5.631,2.273-9.104,2.93-10.416,1.971c-1.439-0.959-1.918-4.358-1.439-10.196l43.914-8.977v-1.251H211.556z M222.847,162.971
		l1.814-4.472c2.375,3.336,3.981,5.662,4.815,6.974c1.438,2.628,2.284,5.202,2.534,7.726c0.582,4.066-1.158,7.172-5.225,9.321
		l-13.604,7.881c-2.627,1.543-4.964,1.365-7.007-0.53c-0.938-0.961-3.981-3.295-9.133-7.006c-6.692-5.005-10.332-7.81-10.916-8.414
		c-0.729-0.604-1.334-1.679-1.813-3.223c-0.479-1.792-0.896-3.169-1.251-4.127l1.627-7.163h5.536l0.188,0.53
		c-0.23,0.959-0.951,2.389-2.16,4.287c-0.834,1.793-0.707,3.293,0.377,4.504c1.541,1.898,5.129,5.119,10.759,9.664
		c0.479,0.48,1.188,0.845,2.126,1.096c0.604,0.104,1.449,0.281,2.533,0.531l-14.887-13.448l0.906-1.063
		c5.131,3.586,9.488,5.912,13.074,6.975c4.9,1.564,9.8,1.387,14.699-0.532c-10.404-0.25-18.651-3.534-24.739-9.853
		c11.114,4.42,19.955,2.324,26.522-6.287l1.813,6.631L222.847,162.971L222.847,162.971z M186.848,198.283
		c-2.628,0.25-5.078,1.324-7.351,3.223c-2.273,1.793-3.649,3.764-4.129,5.91c-1.313,6.465,0,10.771,3.94,12.918l-1.063-10.572
		c2.981,0.355,5.483-0.301,7.506-1.971c1.313-1.084,2.69-3.002,4.129-5.754c0.229,2.043-0.428,3.836-1.971,5.379
		c-0.959,0.959-2.627,2.221-5.004,3.785c2.731,0.104,4.941-0.678,6.631-2.346c1.063-0.834,2.313-2.564,3.754-5.191l3.408,1.438
		C194.302,200.078,191.018,197.804,186.848,198.283z M106.183,164.753l1.438,0.375l2.847-9.853
		c5.38,8.487,13.689,11.417,24.928,8.79c-2.273,2.73-4.838,4.577-7.695,5.536c-3.002,1.084-8.205,2.044-15.608,2.877
		c6.443,2.502,12.355,2.44,17.735-0.188l7.085-3.877c1.434-0.787,3.075-1.705,4.926-2.752l-13.794,14.355
		c2.502-0.375,5.131-1.574,7.882-3.598c2.982-2.021,5.078-4.295,6.287-6.817c0.104-0.229-0.021-1.543-0.375-3.94v-0.188l-1.439-5.38
		l0.907-0.688l7.006,6.631c-0.375,1.063-0.803,2.492-1.283,4.285c-0.479,1.439-0.948,2.512-1.407,3.221
		c-2.752,3.941-4.962,6.215-6.631,6.819c-7.298,2.981-13.459,7.579-18.484,13.792c-3.337-4.42-7.455-7.641-12.355-9.664
		c-9.319-3.941-11.655-10.154-7.005-18.641l4.504-6.633L106.183,164.753z M67.274,142.735l-0.876,1.971l-12.386-4.849l1.971,6.287
		c0.479,2.023,1.021,3.337,1.626,3.94c0.958,1.063,2.574,1.293,4.847,0.689l-5.035,5.943c-4.65-7.527-7.101-11.479-7.351-11.854
		c-0.958-1.544-1.439-3.274-1.439-5.193c-0.229-5.859,2.107-7.475,7.006-4.848C57.558,135.906,61.436,138.545,67.274,142.735z
		 M176.964,178.205h7.537c-6.568,1.793-11.291,5.441-14.168,10.946c4.67-2.272,7.902-3.711,9.696-4.315
		c3.462-1.065,6.683-1.065,9.664,0c2.752,0.957,5.505,2.752,8.257,5.377c1.543,1.565,3.932,4.015,7.163,7.352h-5.38l9.854,11.479
		l-0.721,1.063l-5.535-1.595l6.442,10.384l-4.286,1.25v1.095c0.584,1.418,1.532,3.504,2.846,6.256
		c0.605,1.668,0.908,2.627,0.908,2.877c0,1.063-0.781,1.783-2.346,2.158c-0.23,0.104-0.346,0.938-0.346,2.502l-0.905,6.254
		c-0.959,3.357-3.045,4.858-6.255,4.504l-19.174-2.158c-11.719-1.563-25.407-1.084-41.066,1.439l-4.285,0.531
		c-4.066,0.229-6.756-0.25-8.069-1.438c-1.44-1.313-2.221-4.004-2.346-8.069l-0.157-4.285l-4.503,2.845l5.566-14.324l-5.911,1.783
		l7.882-13.605l-5.192,1.595l-0.908-0.875l9.853-11.854c-1.793,0.375-3.221,0.563-4.284,0.563v-1.251
		c8.236-11.488,17.077-15.139,26.523-10.947l5.911,2.689c-0.479-2.398-1.678-4.305-3.597-5.723
		c-1.771-1.438-4.816-2.941-9.133-4.504h7.35l0.376-1.252l-5.755-3.752c0.125-1.439,0.73-2.336,1.814-2.689
		c0.458-0.125,1.532-0.188,3.221-0.188c1.898,0,2.909,0,3.035,0c1.084-0.354,1.741-1.366,1.97-3.034l-9.508-0.72l3.784-3.784
		c2.023,1.209,3.639,1.094,4.849-0.344c1.188-1.918,2.137-3.169,2.846-3.753c0.25-0.125,0.553-0.313,0.907-0.563l8.601-1.25
		l0.721,3.785c0.125,1.188,0.365,1.896,0.72,2.127c0.354,0.125,1.188,0.071,2.501-0.156c3.461-1.086,5.912,0.166,7.352,3.752
		l-8.791,0.908l-0.345,1.596l11.449,3.221l-6.976,5.036L176.964,178.205z M137.554,203.664c2.628,4.899,5.787,7.287,9.477,7.162
		c-2.626-2.148-4.056-3.336-4.285-3.566c-1.313-1.563-1.908-3.356-1.783-5.379c2.731,5.838,6.61,8.466,11.636,7.883l-1.063,11.104
		c4.524-4.421,5.536-9.498,3.033-15.232c-0.959-2.147-2.575-4.004-4.847-5.566c-2.377-1.418-4.828-2.074-7.351-1.971
		c-3.461,0.125-6.267,2.576-8.414,7.352L137.554,203.664z M165.516,194c-1.688-0.125-3.306-1.502-4.847-4.129l-0.377,1.25
		l4.662,19.519h1.094l4.473-19.33C168.602,193.207,166.934,194.103,165.516,194z M126.607,254.395
		c2.398-2.272,6.287-4.065,11.667-5.38c18.036-4.064,36.375-4.004,55.017,0.188c8.59,1.897,13.668,6.078,15.231,12.543
		c0,0.104,0.896,1.656,2.688,4.66l-7.881-4.13c1.063,5.255,1.596,9.373,1.596,12.354c0,4.42-0.896,8.425-2.69,12.011l-4.097-9.132
		l-8.602,11.634c-0.375,0.604-1.396,1.626-3.064,3.065c-2.502,2.146-4.057,1.553-4.661-1.783l-1.063-5.225l-2.347,2.346
		c-6.567,7.173-10.508,11.416-11.821,12.729c-0.229,0.229-0.887,0.229-1.972,0c-1.083-0.25-1.866-0.614-2.345-1.094l-10.572-11.823
		l-1.25-2.314l-1.251,0.72l-0.531,8.758c-6.339-2.856-11.657-8.706-15.952-17.547l-5.004,8.415
		c-1.689-3.587-2.471-7.413-2.346-11.479c0.125-3.107,0.783-7.049,1.971-11.822l-6.631,3.408
		C122.135,260.369,124.105,256.667,126.607,254.395z"/>
	<path fill="#FFFFFF" d="M114.596,153.65l5.036-2.158c-0.834,5.025,0.531,8.017,4.097,8.976c3.003,0.959,5.64-0.531,7.913-4.473
		l4.66,3.035c-3.961,2.98-8.153,3.877-12.573,2.689C119.309,160.636,116.265,157.947,114.596,153.65z M210.68,156.873
		c1.063-2.022,1.96-3.577,2.69-4.661l3.032,1.438c-2.022,5.859-6.14,8.676-12.354,8.445c-1.688,0-3.242-0.188-4.659-0.563
		l-4.317-1.971l3.223-4.129c3.482,4.796,6.651,6.297,9.508,4.504C208.763,159.458,209.721,158.437,210.68,156.873z"/>
</g>
</svg>
