<?xml version="1.0" encoding="utf-8"?>
<!-- Generator: Adobe Illustrator 16.0.0, SVG Export Plug-In . SVG Version: 6.00 Build 0)  -->
<!DOCTYPE svg PUBLIC "-//W3C//DTD SVG 1.1//EN" "http://www.w3.org/Graphics/SVG/1.1/DTD/svg11.dtd">
<svg version="1.1" id="Layer_1" xmlns="http://www.w3.org/2000/svg" xmlns:xlink="http://www.w3.org/1999/xlink" x="0px" y="0px"
	 width="400px" height="350px" viewBox="0 0 400 350" enable-background="new 0 0 400 350" xml:space="preserve">
<path fill="#2A3492" d="M141.587,23.172c0.884,0,1.32,0.66,1.32,1.985c-2.193,3.849-3.301,6.931-3.301,9.242
	c2.193,4.515,3.301,8.699,3.301,12.532c0,7.485-6.814,18.27-20.463,32.356c-3.088,3.63-4.621,6.271-4.621,7.932
	c9.678,10.115,14.522,20.464,14.522,31.026v0.66c0,2.31-1.32,8.911-3.961,19.803v0.66c0,4.291,2.864,7.155,8.582,8.582l-0.66-1.32
	v-6.601c0-12.425,2.417-23.86,7.261-34.315c0.98-7.815,6.048-16.62,15.183-26.405c13.202-10.562,27.725-15.843,43.568-15.843h5.281
	c25.957,0,44.887,11.222,56.77,33.666l7.921,25.095c1.319,5.387,1.979,11.541,1.979,18.473v5.941l-0.66,1.32h1.32
	c4.834-2.098,7.262-4.951,7.262-8.582c-2.641-12.106-3.961-19.367-3.961-21.784c0-10.774,4.834-20.676,14.522-29.705v-0.671
	c-1.427-3.63-6.047-9.795-13.862-18.483c-7.474-8.134-11.201-15.609-11.201-22.444v-0.66c0-3.088,1.086-7.485,3.301-13.203
	c-2.215-4.626-3.301-7.485-3.301-8.582v-0.666h0.66c4.728,0,11.33,9.684,19.803,29.051c3.621,4.28,7.795,7.581,12.521,9.891
	c2.641,2.747,3.96,6.484,3.96,11.222c0,5.398-4.62,18.366-13.862,38.937c-1.746,2.64-2.619,7.921-2.619,15.843
	c0.66,3.087,1.533,4.621,2.619,4.621h0.682v-0.66c-1.32-5.717-2.002-8.794-2.002-9.242v-1.32
	c2.875-8.358,7.496-12.542,13.863-12.542c7.92,2.204,11.881,7.261,11.881,15.193c4.303-3.087,7.367-4.631,9.242-4.631h2.002
	c5.281,0.777,7.92,6.058,7.92,15.843c0,12.989-4.832,22.667-14.521,29.045c-3.301,0.884-5.281,1.32-5.939,1.32
	c-1.98,0-5.494-1.097-10.563-3.3v0.66l1.319,7.932c-2.641,17.6-3.959,27.5-3.959,29.715c13.65,14.406,20.465,25.404,20.465,32.994
	c0,10.008-7.049,20.57-21.124,31.676c3.067,5.515,9.455,10.136,19.144,13.863c14.076,5.28,21.125,11.668,21.125,19.144v1.319
	c-1.98,7.049-5.494,10.563-10.563,10.563h-2.641c-1.32,0-3.088-0.66-5.281-1.98c-1.32,2.535-2.428,6.496-3.301,11.883
	c-3.193,4.408-6.92,6.602-11.223,6.602h-1.32c-11.881-2.643-17.822-8.146-17.822-16.505v-0.671c0-1.757,0.66-5.504,1.979-11.211
	v-1.32c0-7.154-2.854-13.756-8.581-19.804h-1.32c-5.813,2.971-12.201,6.932-19.144,11.882
	c-16.821,10.126-35.54,15.184-56.101,15.184c-25.86,0-48.741-8.135-68.661-24.425c-0.32,0-2.513-0.872-6.591-2.63
	c-5.058,1.32-8.358,11.658-9.891,31.025c-1.001,12.318-4.514,18.482-10.573,18.482h-3.95c-8.815-0.671-13.202-3.312-13.202-7.933
	c-2.103-6.931-3.641-10.455-4.631-10.562c-0.218,1.319-1.975,1.979-5.276,1.979h-0.665c-7.479-1.32-11.217-5.058-11.217-11.211
	c0-8.912,8.14-15.96,24.419-21.136c6.484-2.416,11.765-6.601,15.843-12.541c-11.552-9.231-18.813-18.473-21.784-27.726
	c0-9.891,7.038-22.433,21.113-37.616c-2.64-17.387-3.95-27.289-3.95-29.716c0-0.873,0.437-3.514,1.31-7.921
	c-4.067,2.204-7.581,3.3-10.562,3.3c-5.387,0-10.231-3.077-14.517-9.242c-3.96-6.165-5.941-12.766-5.941-19.803
	c0-8.241,2.198-13.969,6.596-17.163h1.985c2.747,0,6.266,1.544,10.557,4.631c0-8.251,3.535-13.096,10.573-14.522h1.31
	c5.834,0,10.008,2.864,12.542,8.571h0.67v-1.311c0-2.098-4.397-13.532-13.213-34.326c-0.873-5.281-1.31-9.242-1.31-11.882
	c0-4.845,3.077-8.582,9.242-11.211c2.971-1.001,8.911-10.456,17.834-28.396c4.727-5.287,7.58-7.927,8.581-7.927h-0.042V23.172z
	 M109.242,70.695v3.96h0.66c1.213-4.844,2.321-7.261,3.3-7.261v1.32c-1.746,3.194-2.63,5.601-2.63,7.261v1.32h0.671
	c0-2.875,1.097-5.292,3.301-7.261v0.66c-1.768,2.971-2.641,6.047-2.641,9.242v1.991h0.66c0-1.757,1.32-5.504,3.961-11.222h0.66v1.32
	c-2.087,3.524-3.407,7.038-3.95,10.562l4.621-5.941v0.671c-2.204,3.96-3.312,6.601-3.312,7.921v0.66h0.671
	c0-2.641,6.825-11.211,20.463-25.734c2.641-5.058,3.96-8.805,3.96-11.222v-3.301c-1.756-6.937-2.64-10.673-2.64-11.222l0.67-4.621
	c-1.543,0-3.3,5.718-5.28,17.163c-2.428,3.844-9.242,9.572-20.464,17.152c-1.768,3.407-2.641,5.611-2.641,6.601L109.242,70.695z
	 M272.95,29.769v7.261c-1.32,5.717-1.979,8.794-1.979,9.242v3.3c0,5.622,6.813,15.3,20.463,29.045
	c2.215,3.407,3.301,5.611,3.301,6.601h1.32c0-0.767-0.873-3.194-2.642-7.261c0.896,0,1.769,1.32,2.642,3.96h0.659v-1.98
	c0-0.447-1.299-3.748-3.938-9.902c3.514,4.621,5.26,8.582,5.26,11.882h0.681v-3.96l-3.3-9.242c2.619,2.747,3.939,5.824,3.939,9.242
	h0.681v-1.98c0-0.884-1.554-4.844-4.621-11.882c1.086,0,2.854,3.513,5.26,10.562h0.681v-3.3c0-4.738-6.601-11.339-19.803-19.804
	c-3.514-3.513-5.281-8.582-5.281-15.188c-1.106-4.397-2.192-6.596-3.301-6.596H272.95z M134.986,42.311h1.32
	c0,2.215-0.426,4.855-1.32,7.932h-1.31C134.113,49.464,134.561,46.824,134.986,42.311z M274.271,42.311h1.319v0.671
	c0.447,3.854,0.66,6.271,0.66,7.261c-1.319,0-1.979-2.417-1.979-7.261V42.311z M138.297,48.251v0.66c0,1.32-0.66,3.96-1.991,7.921
	h-1.32C135.987,51.115,137.084,48.251,138.297,48.251L138.297,48.251z M272.95,48.251c0.896,1.533,1.768,4.397,2.641,8.582h-1.319
	l-2.641-7.932L272.95,48.251z M149.509,98.419v0.66h0.671c0.224-1.746,0.884-2.64,1.991-2.64v1.32c0,0.883-2.641,5.941-7.933,15.193
	c-2.204,4.291-3.3,8.912-3.3,13.852c0,1.98,0.437,5.504,1.31,10.572h-1.31c-0.884-2.747-1.32-4.951-1.32-6.601h-0.67l-0.66,4.631
	v3.301c0,5.387,3.087,14.192,9.241,26.405h0.66v-1.98c0-0.777-0.213-3.417-0.66-7.932v-0.67h0.66
	c0.447,2.321,0.671,3.641,0.671,3.96h1.32c0-1.097-0.66-4.621-1.991-10.562v-0.66h0.671c1.331,4.728,1.991,7.581,1.991,8.582
	c0.873,0,1.32-0.447,1.32-1.32l-3.312-11.222v-0.66h0.671l1.98,6.59h0.66v-1.32c0-1.097-1.747-6.165-5.271-15.193
	c0.99,0,2.087,2.204,3.301,6.601h0.67v-1.32c-2.204-4.067-3.3-6.495-3.3-7.261l1.32,0.66v-0.66
	c-1.001-2.747-2.534-5.834-4.632-9.242v-0.66c3.077,0,6.378,6.377,9.902,19.144l0.67,5.941h0.66c0-9.242,2.193-13.862,6.602-13.862
	c7.474,0,11.211-1.32,11.211-3.961c4.621-2.97,7.922-5.387,9.902-7.261c1.203,0,4.067,1.32,8.57,3.961
	c6.389-4.397,10.136-6.602,11.222-6.602v-17.152c0-5.504,1.319-9.678,3.96-12.542l-0.66-3.301v-7.932
	c0-7.038-0.883-10.562-2.64-10.562c-20.911,0-37.179,6.825-48.849,20.463c-3.513,5.834-5.281,9.572-5.281,11.222L149.509,98.419z
	 M208.27,67.395c0,1.863-0.437,3.62-1.319,5.281c1.331,3.183,1.991,7.581,1.991,13.202c0,2.747-1.107,7.144-3.312,13.202v7.261
	c0,8.028,3.524,13.522,10.573,16.503c0,0.66,0.66,1.32,1.98,1.98c5.174-2.64,8.475-3.96,9.901-3.96l11.222,9.901
	c9.242,0.767,13.863,2.321,13.863,4.621c0.873,0,1.533,3.3,1.98,9.902h0.66c0-5.611,2.428-13.096,7.262-22.444l2.64-1.98h0.683
	c-3.088,5.824-4.643,9.125-4.643,9.891v0.67h0.682c0-1.32,0.426-1.98,1.32-1.98v0.66c-2.641,4.514-4.195,7.814-4.621,9.901h0.66
	c0.873-1.437,1.32-2.534,1.32-3.3h0.66v1.31c-2.193,4.631-3.301,7.932-3.301,9.902v0.67h0.659c0-0.554,0.873-3.194,2.642-7.932h0.66
	v0.671c-2.193,5.824-3.302,9.561-3.302,11.211v2.641h0.66c0-1.203,0.894-4.504,2.642-9.902h0.659v0.671
	c-1.745,5.494-2.618,9.678-2.618,12.531h1.319c0-1.097,0.427-3.29,1.299-6.59h0.681v0.66c-0.894,3.513-1.319,7.261-1.319,11.222
	v1.32h0.659c6.154-12.329,9.242-21.571,9.242-27.725v-1.98l-0.66-4.631h-0.659c-0.554,4.397-1.448,6.601-2.642,6.601v-0.671
	c0.873-3.077,1.32-5.728,1.32-7.921v-1.98c0-4.631-3.748-14.757-11.222-30.365h1.319v1.32h0.66v-1.32
	c-2.533-7.815-8.475-14.863-17.822-21.134c-11.224-5.281-21.998-7.932-32.346-7.932h-1.992L208.27,67.395z M167.343,79.276h1.32
	c-5.505,4.173-9.679,7.921-12.542,11.222h-1.31v-0.67c1.853-3.301,6.047-6.825,12.532-10.562V79.276z M241.925,79.276h0.66
	c4.749,1.98,9.136,5.494,13.203,10.562v0.66h-1.32c-2.3-2.193-6.473-5.941-12.521-11.211L241.925,79.276z M164.031,85.877v0.671
	l-7.921,7.932h-0.66v-1.32c1.533-2.747,4.397-5.175,8.581-7.261L164.031,85.877L164.031,85.877z M246.546,85.877
	c3.194,1.544,6.048,3.961,8.582,7.261v1.32h-0.66l-7.921-7.921L246.546,85.877L246.546,85.877z M173.284,86.539v1.32
	c-0.66,1.757-1.331,2.64-1.991,2.64c0-0.447-0.213-0.67-0.66-0.67c0.873-1.97,1.767-3.077,2.64-3.301L173.284,86.539z
	 M237.326,87.198h0.66c0.873,0.106,1.32,0.554,1.32,1.32v1.98h-1.32L237.326,87.198z M295.416,89.838
	c-5.175,5.728-8.477,10.125-9.902,13.202l0.66,1.32l-1.32,3.3v0.671h0.66v-1.32h0.66v0.671c-1.32,3.96-1.98,6.601-1.98,7.921v1.98
	h0.66l0.682-4.621h0.66v1.32c-0.447,3.088-0.66,4.834-0.66,5.281v1.32h0.66c3.088-12.659,6.389-22.998,9.902-31.036h-0.66
	L295.416,89.838z M114.522,90.499c4.408,10.668,7.709,20.783,9.902,30.366h0.671v-1.32c0-0.554-0.437-2.981-1.32-7.261v-0.671h0.67
	c0.873,3.301,1.32,5.504,1.32,6.59h0.66v-3.3c0-0.554-0.66-2.747-1.98-6.591l0.66-3.311c-0.553-4.514-4.067-9.348-10.562-14.522
	L114.522,90.499z M169.312,91.818h1.32c0,2.321-0.66,3.642-1.98,3.961h-0.66v-1.32c0.873-1.097,1.31-1.98,1.31-2.641H169.312z
	 M239.285,91.818h0.66c0.681,0,1.554,0.884,2.64,2.641v1.32h-1.979C240.604,94.576,240.18,93.256,239.285,91.818z M158.761,94.459
	l0.671,1.32c-2.641,1.767-3.96,3.3-3.96,4.621h-1.32c0-2.3,1.533-4.28,4.621-5.941H158.761z M251.167,95.119h1.319
	c0.66,0,1.98,1.32,3.961,3.96v1.32h-0.66c-1.98-2.64-3.514-3.96-4.621-3.96L251.167,95.119L251.167,95.119z M169.973,97.76v0.66
	c-1.533,5.175-2.641,8.028-3.301,8.582l-1.32-0.66C167.119,100.613,168.652,97.76,169.973,97.76z M240.604,97.76
	c2.642,2.193,3.961,5.057,3.961,8.581v0.66h-0.66C243.139,107.001,242.031,103.915,240.604,97.76L240.604,97.76z M156.77,102.38
	c-1.64,3.301-2.959,5.057-3.95,5.281h-0.671C152.479,104.137,154.023,102.38,156.77,102.38z M253.807,102.38h0.66
	c0.682,0,1.98,1.32,3.96,3.96v1.32h-0.659C257.001,107.544,255.682,105.789,253.807,102.38z M154.79,107.001h0.66v1.32
	c0,0.873-0.426,1.32-1.31,1.32c-0.883,0-1.32-0.447-1.32-1.32L154.79,107.001z M255.788,107.001c0.894,0.106,1.319,0.554,1.319,1.32
	v1.32h-0.659c-0.66,0-1.32-0.66-1.98-1.98L255.788,107.001z M97.37,126.806v1.979c0.33,0,1.65-1.32,3.95-3.961v0.66
	c-1.746,2.641-2.63,4.408-2.63,5.281c0.213,0,1.533-1.32,3.95-3.96v0.671c-2.641,3.407-3.95,5.611-3.95,6.59h0.66l3.312-2.641v0.671
	c-1.768,1.98-2.641,3.077-2.641,3.311v0.66h1.32c1.32,0,1.98-0.873,1.98-2.64h1.32l-1.98,3.3l1.32,0.671
	c0.106-0.884,0.543-1.32,1.32-1.32c0,0.99,0.873,2.087,2.63,3.301l-3.3,0.671h-2.641c-2.098-0.554-5.398-4.962-9.902-13.203
	c-1.863-1.767-3.625-2.641-5.276-2.641h-3.3c-2.641,2.971-3.96,7.155-3.96,12.542c0,9.785,3.742,18.143,11.222,25.084h1.985
	c1.097,0,5.281-1.32,12.542-3.961l4.621-0.66c6.708,0,17.482,4.397,32.346,13.203h0.66l-3.96-3.961h0.67l4.621,2.641v-0.671
	c-1.214-0.33-3.418-2.087-6.591-5.27h0.66l7.922,5.27v-1.32c0-5.93-8.135-14.512-24.425-25.734
	c-4.833-4.514-7.261-9.582-7.261-15.193v-2.629c0-0.671,0.671-1.331,1.991-1.991h0.671l-0.671,4.621h1.32v-1.98
	c-1.757-8.358-5.504-12.542-11.211-12.542h-1.32c-2.098,0.117-4.301,4.728-6.601,13.852c-0.873,0.117-1.32,0.554-1.32,1.32
	L97.37,126.806z M292.775,122.185v3.3h0.66v-3.95h1.979l0.66,3.301v2.641c0,7.921-8.136,16.503-24.425,25.734
	c-4.834,7.155-7.262,12.223-7.262,15.193l5.94-3.95h0.683c-3.535,3.184-5.281,4.94-5.281,5.271h0.66c1.979-2.204,3.748-3.3,5.28-3.3
	c0,0.213-1.319,1.533-3.961,3.95c15.735-8.794,26.746-13.203,33.006-13.203c2.747,0,8.028,1.544,15.843,4.621h3.301
	c7.05-5.601,10.563-14.182,10.563-25.734v-5.281c0-3.407-1.106-5.611-3.301-6.59h-3.302c-3.406,0-7.602,4.833-12.543,14.522
	c-0.658,0-1.531,0.437-2.639,1.32h-2.64l-3.301-0.671v-1.32c2.875-0.883,4.62-1.31,5.28-1.31l-1.979-2.64v-0.671
	c1.979,1.757,3.065,2.641,3.301,2.641h1.32l-3.302-4.632v-0.66c1.959,1.768,3.066,2.641,3.302,2.641h0.659v-0.66l-1.979-3.3v-0.671
	l2.64,1.98v-0.66c-1.767-2.534-2.64-4.291-2.64-5.281c1.746,2.204,2.853,3.312,3.3,3.312h0.66
	c-1.191-2.747-2.959-7.602-5.279-14.522l-2.642-1.991h-0.659c-5.494,0-9.455,3.524-11.883,10.573h-0.021V122.185z M167.343,111.623
	h1.32c-0.884,1.874-1.32,5.387-1.32,10.562h-1.32v-1.32C166.022,118.01,166.459,114.922,167.343,111.623z M241.925,111.623h1.32
	c0.873,3.96,1.319,6.825,1.319,8.582v1.98h-0.66c-0.872,0-1.319-0.437-1.319-1.32v-7.921L241.925,111.623z M206.279,118.883
	c0,2.747-3.077,4.514-9.242,5.281c0,0.873-2.641,1.757-7.921,2.641c-2.321-0.777-4.301-1.874-5.941-3.312h-0.66
	c0,1.438-2.875,3.63-8.582,6.601c-1.107,2.204-1.98,3.3-2.64,3.3h-2.641c-5.729,0-9.242,1.32-10.562,3.961v2.63
	c0,4.738-2.64,13.543-7.932,26.404v6.602c-1.097,14.086-2.204,21.124-3.301,21.124v-1.31h-1.32l-0.67,4.621v1.99
	c0,4.728,3.524,8.241,10.562,10.563c8.262-2.641,12.883-3.961,13.862-3.961h3.301c0,0.873-0.66,1.32-1.98,1.32V208h0.66
	c4.184-0.873,7.484-1.32,9.901-1.32c1.874,0,4.291,1.32,7.262,3.961c0-1.758,0.447-2.641,1.32-2.641h0.66v0.67
	c0.447,5.504,0.67,8.358,0.67,8.571c-0.437,2.64-1.097,3.96-1.98,3.96h-1.32v-4.621c-2.204,0-3.312-0.437-3.312-1.32v-0.659h-0.66
	l-1.98,1.319v-0.67l1.32-1.98v-0.67c-0.33,0-2.311,2.203-5.941,6.601h-1.991c-0.437,0.767-0.66,1.65-0.66,2.642
	c0.106,0.873,0.543,1.319,1.31,1.319c2.108-3.087,3.417-4.62,3.96-4.62h0.671v0.659c0,0.447-1.097,1.98-3.311,4.621h0.67
	c0.117-0.873,0.543-1.319,1.32-1.319l0.67,1.319c0,0.66-0.66,1.32-1.991,1.979h-0.67v-1.319h-0.66v1.991
	c0.106,0.884,0.554,1.32,1.32,1.32c3.3-5.398,5.728-8.476,7.261-9.252v1.99c-3.514,4.396-5.281,7.485-5.281,9.241
	c0.66,1.757,1.32,2.642,1.991,2.642c0-0.777,0.437-1.875,1.31-3.302v-0.67h-0.66c0,1.319-0.437,1.979-1.32,1.979h-0.66v-0.66
	c1.533-3.088,2.64-4.62,3.3-4.62v1.319l1.98-1.319v0.659c-1.427,3.961-2.3,5.941-2.641,5.941c0.671,1.768,1.331,2.641,1.991,2.641
	c0-3.736,1.544-7.037,4.621-9.901v-0.66l1.32,0.66c-2.63,6.058-3.95,10.019-3.95,11.882l1.98-1.311l3.3,2.631
	c0.767-4.387,1.65-6.592,2.641-6.592v1.32l-0.66,1.32c2.629,3.3,3.95,5.281,3.95,5.941c0.884,0,1.32-1.758,1.32-5.271
	c0.884,0,1.32,0.66,1.32,1.979h0.671c0.767,0,1.863-2.426,3.302-7.26h0.66c1.096,4.834,2.192,7.26,3.299,7.26l1.991-1.319v3.96h1.31
	c0-1.32,0.896-2.428,2.642-3.311l1.319,0.67c-0.872-3.301-1.319-5.068-1.319-5.281h1.319c0,0.213,0.66,2.417,1.98,6.601h0.682
	c0-1.767,1.086-2.64,3.301-2.64c0,0.447,0.213,0.66,0.66,0.66v-0.66c0-1.874-1.107-5.389-3.301-10.563h0.66
	c3.514,2.523,5.28,5.174,5.28,7.922v0.66l-0.66,1.319h0.66c0.873,0,1.319-0.437,1.319-1.319v-0.66c0-2.312-0.659-4.291-1.979-5.941
	v-1.32c0.979,0,1.64,1.107,1.979,3.301h0.66v-0.66c-0.446-0.768-0.66-1.65-0.66-2.641c1.428,1.098,2.535,2.854,3.302,5.281h-1.979
	v0.66c0.105,0.873,0.553,1.32,1.319,1.32l1.32-2.642c0-0.767-1.979-4.514-5.941-11.222h0.66l4.621,5.281
	c0.767-0.447,1.661-0.66,2.642-0.66c-1.32-2.204-1.98-3.748-1.98-4.621l3.961,4.621c0.873-1.107,1.32-1.98,1.32-2.641
	c-0.447-1.32-0.896-1.98-1.32-1.98c-0.895,0.438-1.555,0.66-2.002,0.66c-2.96-4.397-4.729-6.602-5.26-6.602v0.672l1.32,2.629h-0.683
	c-0.873,0-1.32-0.66-1.32-1.979h-0.659c0,2.204-0.66,3.301-1.98,3.301l-1.98-1.319v0.67c0.447,2.418,0.66,4.397,0.66,5.941h-0.66
	c-0.873,0-1.768-1.544-2.641-4.621c0.447-5.504,0.66-8.805,0.66-9.9h1.32l0.66,2.64c2.639-2.64,5.514-3.95,8.58-3.95
	c1.32,0,4.195,0.426,8.582,1.311h0.66v-0.66c-1.32,0-1.98-0.438-1.98-1.32h3.301c1.341,0,5.728,1.32,13.203,3.95
	c5.515,0,9.24-3.961,11.222-11.882c0-0.438-0.213-2.193-0.66-5.271h-1.319v1.32c-1.32,0-2.642-9.019-3.961-27.064
	c0.447-0.884,0.66-1.544,0.66-1.98c-5.707-11.775-8.56-21.017-8.56-27.725c0.426,0,0.659-0.223,0.659-0.67
	c-1.555-1.863-6.389-3.184-14.522-3.961c0-1.32-3.748-4.397-11.222-9.242c-1.98,2.204-4.408,3.301-7.262,3.301
	C216.5,126.806,212.104,124.165,206.279,118.883L206.279,118.883z M129.045,120.205l-6.59,16.503c0.884,0,1.32-0.66,1.32-1.98
	l1.32,0.66c2.204-5.941,3.737-10.999,4.621-15.183H129.045z M103.961,120.864h1.32c3.96,3.96,5.94,8.145,5.94,12.542h-0.66
	C108.475,133.406,106.271,129.232,103.961,120.864z M281.532,121.524v1.98l3.301,11.882l1.319-0.66c0,0.66,0.66,1.32,2.002,1.98
	c-3.961-8.901-5.963-13.969-5.963-15.183L281.532,121.524L281.532,121.524z M305.296,120.864h1.32v0.67
	c-2.64,7.921-4.833,11.882-6.58,11.882h-0.681v-0.671C299.355,128.125,301.335,124.165,305.296,120.864z M121.124,124.165
	c-1.757,4.834-2.641,7.474-2.641,7.921c0.106,0.884,0.554,1.32,1.32,1.32c1.768-0.767,2.641-2.311,2.641-4.621v-3.301
	C122.444,124.602,122.008,124.165,121.124,124.165z M146.208,128.785c0.884,0.106,1.32,0.554,1.32,1.32v0.66
	c-0.873,0-1.32-0.438-1.32-1.32V128.785z M82.848,130.106c5.169,0,9.785,5.281,13.873,15.843l0.66,6.59
	c-0.447,0.777-0.66,1.65-0.66,2.641H96.05c-4.839-3.077-7.703-4.621-8.581-4.621v-1.32c0.554,0,2.976,0.884,7.261,2.63
	c0-0.437-2.204-2.193-6.596-5.27h1.32l5.275,2.64c0-1.203-3.082-3.843-9.247-7.932h0.666l4.626,1.991v-0.671
	c-3.301-1.64-5.063-2.959-5.281-3.96h0.666l1.32,0.671h0.665v-0.671c-2.641-0.437-3.955-1.097-3.955-1.98h2.635v-0.66
	c-3.519-0.447-5.275-1.32-5.275-2.64c0.112-2.204,0.548-3.301,1.32-3.301L82.848,130.106z M325.76,130.106h1.32
	c0.895,0.106,1.32,0.553,1.32,1.32v2.641c0,0.873-1.533,1.533-4.621,1.98v0.66h2.641v0.67c-3.961,0.99-5.941,2.087-5.941,3.301
	l3.961-1.991v0.671c-3.088,2.204-4.621,3.524-4.621,3.961c2.535-1.331,4.281-1.991,5.281-1.991c-6.175,3.854-9.24,6.495-9.24,7.932
	c2.619-1.757,4.599-2.641,5.939-2.641h0.66c-4.407,2.971-6.602,4.738-6.602,5.281c2.428-1.331,4.408-1.991,5.94-1.991h0.66v0.671
	c-0.446,0-3.301,1.544-8.581,4.621l-0.66-3.3c0-9.465,4.174-16.727,12.542-21.784L325.76,130.106L325.76,130.106z M185.815,134.727
	l1.32,7.261l-1.32,0.66c-0.873-2.854-1.32-4.834-1.32-5.941v-0.66C184.612,135.164,185.049,134.727,185.815,134.727z
	 M225.443,134.727c0.426,0.873,0.66,1.533,0.66,1.98c0,0.66-0.447,2.64-1.32,5.941h-0.66v-6.59c0.105-0.884,0.531-1.32,1.32-1.32
	V134.727z M221.461,138.688c0,0.447,0.234,0.66,0.66,0.66c-0.873,3.748-1.32,5.941-1.32,6.602h-1.32c0.34-4.845,1-7.262,2.002-7.262
	H221.461z M188.456,139.348h1.98v3.301l0.67,3.301h-1.31c-0.894-3.737-1.32-5.941-1.32-6.591L188.456,139.348z M193.076,143.968
	h0.671c0.99,0,1.863,3.087,2.641,9.242v0.67h-0.671c-1.757-5.824-2.641-9.125-2.641-9.891V143.968z M215.542,143.968h1.319v1.98
	c0,1.331-0.659,3.971-2.002,7.932H214.2v-1.32c0.873-4.397,1.319-7.251,1.319-8.571L215.542,143.968z M103.312,145.289h0.671
	c1.746,3.407,2.629,5.611,2.629,6.601v0.66c-0.66-0.106-2.204-2.3-4.621-6.601L103.312,145.289z M306.616,145.289h1.319
	c0,2.427-1.533,5.068-4.621,7.921v-0.66L306.616,145.289z M199.678,145.948c0.873,5.494,1.32,8.794,1.32,9.901v0.66h-0.66
	c-1.32-5.387-1.991-8.688-1.991-9.902L199.678,145.948z M210.91,145.948c0.884,0.106,1.311,0.543,1.311,1.32l-1.98,8.582h-0.66
	v-1.32c0-1.107,0.438-3.961,1.32-8.582H210.91z M105.941,146.608h1.32c0.671,0,1.768,1.32,3.311,3.961v1.32
	c-0.66,0-2.204-1.544-4.631-4.621v-0.67V146.608L105.941,146.608z M303.316,146.608h1.32v0.66c-2.642,2.641-3.961,4.408-3.961,5.281
	h-1.32v-0.66C300.568,148.908,301.889,147.163,303.316,146.608z M111.222,147.269c2.204,1.086,3.301,1.97,3.301,2.641v0.66h-1.32
	c-0.66,0-1.32-0.66-1.98-1.98L111.222,147.269L111.222,147.269z M295.416,147.269l0.66,1.32l-5.281,3.95h-0.66
	C290.135,151.335,291.881,149.568,295.416,147.269z M298.695,147.269h0.66v1.32c-0.426,1.32-1.746,1.98-3.939,1.98
	c0-0.554,1.086-1.661,3.3-3.301L298.695,147.269L298.695,147.269z M114.522,147.928h1.32c3.088,2.087,4.621,3.642,4.621,4.621h-0.66
	C117.27,151.124,115.523,149.58,114.522,147.928z M201.658,148.588h1.32v3.312c0,0.437,0.224,0.66,0.67,0.66
	c-0.447,0.883-0.67,1.543-0.67,1.991h-0.66l-0.66-4.621v-1.32V148.588z M207.6,148.588c0.883,0,1.319,0.66,1.319,1.991l-0.66,3.3
	h-1.319v-0.67L207.6,148.588z M204.298,149.25h1.32v3.301l0.659,3.3l-1.319,0.671c-0.437-3.854-0.66-6.271-0.66-7.261V149.25z
	 M88.789,153.21c2.64,0.213,3.95,0.873,3.95,1.98v0.66h-1.31c-1.102-0.873-1.98-1.32-2.64-1.32V153.21L88.789,153.21z
	 M321.82,153.21v1.32c-0.66,0-1.555,0.437-2.641,1.32h-1.32v-0.67c0.447-1.32,1.768-1.991,3.961-1.991V153.21z M87.458,154.53
	c3.96,1.639,5.941,2.747,5.941,3.3l-1.32,0.66c-3.077-1.533-4.621-2.641-4.621-3.301V154.53L87.458,154.53z M322.459,154.53h0.682
	c-1.768,2.64-3.535,3.95-5.281,3.95l-0.68-1.31V156.5c1.979,0,3.746-0.66,5.279-1.991V154.53z M292.775,155.189v1.32
	c-1.002,0-4.303,1.757-9.902,5.281l-3.3-0.671c0-0.66,1.086-1.544,3.3-2.641l1.32,0.671v-0.671c-0.447,0-0.682-0.224-0.682-0.66
	h0.682l1.32,0.66v-0.66c-0.447,0-0.682-0.224-0.682-0.67h0.682l1.319,0.67c3.173-1.757,5.153-2.64,5.94-2.64v0.011H292.775z
	 M166.022,156.51c0.99,1.65,1.863,4.067,2.641,7.261h-0.671c-0.979,0-2.087-2.193-3.301-6.601L166.022,156.51z M245.227,156.51v0.66
	c0,3.407-1.086,5.611-3.302,6.601C241.925,161.024,243.032,158.598,245.227,156.51z M122.444,157.831h1.32l2.641,1.32v-0.671
	c-0.447,0-0.66-0.224-0.66-0.66h0.66c3.077,1.65,4.621,2.747,4.621,3.301h-0.66l-1.32-0.671v0.671c0.437,0,0.66,0.224,0.66,0.671
	h-1.32c-3.194-2.215-5.174-3.312-5.94-3.312v-0.66v0.011H122.444z M111.222,161.131c0,0.767-0.437,2.534-1.32,5.281v0.66h0.67
	l0.671-2.641h0.66v1.32l-0.66,2.641v0.66h0.66c0-0.319,0.213-1.64,0.66-3.95h0.671v1.32l-0.671,3.95v0.67h0.671
	c0-1.097,1.757-4.184,5.271-9.252l-4.621-0.66h-2.641L111.222,161.131L111.222,161.131z M276.911,160.471
	c0,0.554-1.746,1.874-5.281,3.96h-0.659C270.971,163.324,272.95,162.004,276.911,160.471z M292.775,161.792
	c0,1.863,1.32,4.28,3.938,7.261l0.683,2.64h0.66v-1.32c0-0.341-0.214-1.65-0.66-3.961v-0.671h0.66l0.659,3.312h0.66v-0.671
	l-1.319-4.621c0.895,0,1.319,0.883,1.319,2.629h0.681v-3.3c0-0.66-0.66-1.32-2-1.98h-0.66L292.775,161.792z M131.036,161.131h0.671
	c0.873,0.106,1.32,0.554,1.32,1.32h-0.671C131.473,162.451,131.036,162.004,131.036,161.131z M135.646,161.792h0.66
	c0.884,0.106,1.32,0.543,1.32,1.32h-0.66C136.094,163.111,135.646,162.665,135.646,161.792z M277.57,161.792h0.683
	c0,0.873-0.446,1.32-1.319,1.32h-0.683C276.379,162.229,276.805,161.792,277.57,161.792z M133.006,162.451h0.671
	c0.884,0.106,1.31,0.553,1.31,1.32h-0.66C133.453,163.771,133.006,163.324,133.006,162.451z M263.709,176.314
	c0,4.738,1.555,11.999,4.621,21.784v3.312c0,5.93-4.621,9.678-13.863,11.211c-2.96-0.437-5.387-0.66-7.261-0.66h-1.299v0.66
	c0.979,0,9.114,7.262,24.403,21.784c5.174-3.854,10.668-8.912,16.523-15.183v-7.262l-3.96-24.424
	c0.213-1.426,3.96-4.951,11.222-10.562v-0.661c-0.341-4.845-1.873-9.242-4.643-13.203L263.709,176.314z M119.804,163.771
	c-1.757,4.728-3.077,9.135-3.961,13.203c7.921,5.057,11.882,9.242,11.882,12.542c-2.193,9.348-3.737,18.153-4.62,26.405
	c0,3.406,4.184,8.24,12.542,14.521c1.768,2.641,3.514,3.961,5.281,3.961c0.106-0.554,7.815-8.049,23.104-22.455
	c-3.854,0.438-6.282,0.67-7.261,0.67c-9.689-0.884-14.522-4.844-14.522-11.893v-3.301c0-2.748,1.32-6.047,3.96-9.901
	c0-0.437-0.234-0.66-0.671-0.66l0.671-4.632v-3.95l0.66-1.319c-12.105-7.262-20.911-11.66-26.404-13.203h-0.671L119.804,163.771z
	 M171.953,163.111h0.66c0.554,0,1.661,1.32,3.311,3.961l-1.32,0.66c0-0.873-1.32-1.746-3.96-2.63v-0.671
	c0.117-0.873,0.543-1.32,1.32-1.32H171.953z M239.285,163.111c0,0.447,0.234,0.671,0.66,0.671c-0.533,1.757-1.641,3.077-3.301,3.95
	h-1.98C234.664,167.072,236.218,165.54,239.285,163.111z M275.591,163.111h0.66c0,0.884-0.426,1.32-1.319,1.32h-0.66
	C274.377,163.559,274.824,163.111,275.591,163.111z M134.986,163.771h0.671c0.884,0.106,1.32,0.554,1.32,1.32h-0.671
	C135.434,165.091,134.986,164.645,134.986,163.771z M160.081,163.771h0.671c4.067,4.515,8.241,7.368,12.532,8.582v1.98h-2.641
	c-7.038-1.427-10.562-4.291-10.562-8.582V163.771z M249.848,163.771c0.446,0.873,0.68,1.533,0.68,1.98
	c0,4.291-3.534,7.155-10.582,8.582h-2.619v-1.32l9.242-5.941c0-0.554,1.086-1.65,3.3-3.301H249.848z M273.632,164.432h0.66
	c0,0.66-0.66,1.32-1.979,1.991h-0.682C271.63,165.751,272.291,165.091,273.632,164.432z M136.967,165.091h0.66
	c0.884,0.106,1.32,0.554,1.32,1.32h-0.66C137.414,166.413,136.967,165.964,136.967,165.091z M190.436,166.413h0.67
	c1.097,0,2.204,1.757,3.312,5.281h-1.32c0-0.894-0.884-2.204-2.641-3.96v-1.32L190.436,166.413L190.436,166.413z M219.48,166.413
	h0.682v1.32c0,0.66-1.32,1.98-3.96,3.96v-0.67c1.086-2.864,2.192-4.408,3.3-4.632L219.48,166.413z M195.067,168.393h0.671
	c1.086,0,1.97,1.757,2.63,5.281C196.164,172.565,195.067,170.819,195.067,168.393z M214.2,168.393h1.319v1.32
	c-1.64,2.64-2.746,3.96-3.301,3.96l-0.671-1.32C212.434,172.354,213.307,171.032,214.2,168.393L214.2,168.393z M152.149,169.052
	c1.107,0,2.204,2.193,3.301,6.59h0.67v-3.301h1.991c1.757,5.718,7.027,8.571,15.843,8.571h9.892c4.844,0,7.261,0.67,7.261,1.991
	c-0.767,0.437-1.65,0.671-2.629,0.671c4.386,4.514,6.59,9.795,6.59,15.844h0.671l1.32-3.961h1.31l1.32,0.659
	c-1.097,7.921-2.417,11.882-3.95,11.882h-1.32v-0.66l1.32-2.641h-0.671l-1.991,1.32h-0.66c0.106-0.885,0.554-1.32,1.32-1.32
	c-0.873-3.087-1.32-5.729-1.32-7.921h-0.66c0,0.554-1.107,2.747-3.301,6.591h-1.991c0-1.32-0.437-1.99-1.32-1.99v-1.311l2.641-3.311
	c-7.262,3.959-12.319,5.94-15.193,5.94h-3.301c0-0.873,0.66-1.319,1.98-1.319v-0.66h-0.66c-3.514,1.319-7.262,1.979-11.222,1.979
	h-2.64c-2.63,0-4.834-1.319-6.591-3.95v-1.32h1.991l-0.671-1.319v-1.319l4.621,4.631h0.67c-3.087-3.854-4.621-6.719-4.621-8.582
	v-4.631h1.32v1.99h0.66l1.32-9.242c-2.204-1.554-3.301-3.971-3.301-7.261L152.149,169.052L152.149,169.052z M257.107,169.052h1.319
	v3.3c0,2.087-1.086,4.291-3.3,6.601c0.447,1.863,0.66,5.153,0.66,9.891h0.681l0.66-2.639h1.32v3.959c0,1.545-1.32,4.397-3.962,8.582
	h0.66c0-0.554,1.107-1.65,3.302-3.311h0.682l-1.319,2.641l1.319-0.66h0.66v1.98c-1.556,2.204-3.961,3.301-7.263,3.301h-1.319
	c-4.407-0.438-7.921-0.66-10.562-0.66v0.66h-2.642c-2.875,0-7.921-1.98-15.183-5.941v0.67c0.66,0,1.533,0.885,2.641,2.642v1.31
	c-0.682,0-1.555,0.447-2.641,1.32c-0.555,0-2.108-1.746-4.621-5.271l-0.682,5.941l-1.319-0.671l2.001,3.312l-1.32,0.67
	c0-1.768-0.66-2.641-2.001-2.641v0.66l1.32,2.641l-1.32,0.66c-1.746,0-3.065-3.961-3.95-11.882l2.631-1.319
	c0.446,0.766,0.681,1.649,0.681,2.64h0.659c0-1.32,0.447-1.979,1.32-1.979v-1.992c0-1.97,1.746-5.058,5.281-9.241v-0.671
	c-1.32,0-2.001-0.438-2.001-1.32c1.767-0.873,4.194-1.32,7.261-1.32h9.264c9.113,0,14.629-2.854,16.502-8.571h0.66
	c0.873,0,1.32,1.097,1.32,3.301h0.66c1.32-4.184,1.98-6.377,1.98-6.59H257.107z M199.018,169.712h1.32v1.32h0.671v-1.32
	c0.66,0,1.32,0.873,1.991,2.64l-1.991,1.32l-1.991-2.641V169.712z M208.27,169.712h0.672c0.437,0,0.66,0.224,0.66,0.66l1.319-0.66
	h0.66v1.32c0,0.66-0.873,1.533-2.642,2.641l-1.319-1.98c0.446-0.894,0.671-1.554,0.671-1.991L208.27,169.712z M175.924,173.673
	c0.99,0.106,2.311,1.427,3.95,3.961v0.66h-0.66c-2.641-1.65-3.96-2.748-3.96-3.302L175.924,173.673z M185.815,173.673
	c6.494,4.834,11.339,7.261,14.522,7.261c0.884-0.447,1.556-0.67,1.991-0.67l0.67,1.319c-0.885,1.758-2.204,2.642-3.96,2.642
	l0.66,3.301c-0.319,0-1.427-1.097-3.301-3.301c0,0.437-0.224,0.671-0.66,0.671l-10.572-9.902L185.815,173.673z M224.123,173.673
	c0.873,0.106,1.32,0.543,1.32,1.32c0,0.438-3.748,3.737-11.223,9.902c0-0.447-0.234-0.671-0.682-0.671
	c-1.533,2.641-2.641,3.949-3.301,3.949v-0.659c0.884-1.427,1.32-2.534,1.32-3.302h-1.32l-0.66,2.642h-1.98l1.98-3.302
	c-0.66,0-1.32-0.659-1.98-1.99l0.66-1.32l2.641,0.672c2.854,0,7.263-2.429,13.203-7.262L224.123,173.673z M234.004,173.673
	c0.895,0.106,1.32,0.543,1.32,1.32l-3.939,3.302h-0.682v-0.66C232.363,174.993,233.473,173.673,234.004,173.673z M179.214,174.993
	h0.66l1.32,0.66c0.884-0.447,1.544-0.66,1.991-0.66l1.31,2.642h-3.301c-0.66,0-1.32-0.672-1.98-1.991v-0.671V174.993z
	 M228.063,174.993l1.319,0.66c0.896-0.447,1.556-0.66,2.002-0.66v0.66c0,1.097-1.768,1.979-5.28,2.642v-0.66
	c0.66-1.769,1.319-2.642,1.979-2.642H228.063z M110.572,177.635v0.67c1.32,6.058,1.991,11.552,1.991,16.503v3.312h0.66
	c1.214,0,2.534-0.447,3.961-1.32l-0.671-1.319v-0.671l1.991,1.32h1.32v-1.32l-2.641-3.95v-0.671l3.95,3.96h1.32
	c0-0.99-1.98-3.854-5.941-8.582v-0.67c0.437,0,2.864,2.427,7.261,7.261v-1.32C123.775,188.75,119.378,184.342,110.572,177.635z
	 M286.834,191.496l5.941-5.281v0.67c-2.642,2.865-3.961,5.281-3.961,7.262c2.854-2.641,4.408-3.96,4.621-3.96v0.671l-2.642,3.95
	v1.319h2.642c0.446,1.332,1.768,1.991,3.961,1.991c0-3.194,0.873-10.019,2.64-20.464c-8.815,6.048-13.203,10.668-13.203,13.852
	L286.834,191.496L286.834,191.496z M200.338,184.235h1.32l0.671,2.642h-0.671c-0.873,0-1.32-0.447-1.32-1.32V184.235z
	 M202.979,190.836l2.641,1.991c0-0.659,0.66-1.331,1.98-1.991c0.883,0,1.319,0.66,1.319,1.991c-1.426,5.281-2.534,7.933-3.3,7.933
	h-0.66c-1.107,0-2.204-3.088-3.3-9.252L202.979,190.836z M115.183,201.398h1.98v0.66c-1.757,0-2.854,0.883-3.301,2.64h0.66
	c0.884-0.446,1.555-0.659,1.991-0.659v1.319c-1.32,0-1.991,0.437-1.991,1.319v0.66h1.32v0.66l-0.66,1.32
	c2.534,3.514,4.067,5.281,4.621,5.281c0-1.215,0.884-6.932,2.641-17.163C117.61,199.418,115.183,200.738,115.183,201.398z
	 M288.154,197.438v0.66l2.619,16.514c1.447,0,2.769-2.204,3.961-6.602c-0.447,0-0.66-0.224-0.66-0.659h1.32v-1.32l-0.66-1.319h1.979
	c0-0.33-1.106-1.428-3.301-3.301h1.979c0-0.777-2.428-2.098-7.261-3.961L288.154,197.438z M201.658,200.738
	c0.224,0,1.544,1.107,3.96,3.301c1.097-2.193,2.417-3.301,3.96-3.301c2.311,7.048,4.729,11.883,7.262,14.521v1.32l-1.32,1.98
	c-5.729,0-8.582-1.98-8.582-5.941h-0.66c0,3.524-0.446,5.281-1.319,5.281c-0.446-0.447-0.67-2.204-0.67-5.281h-0.66
	c0,3.961-2.651,5.941-7.933,5.941c-0.873-0.438-1.533-0.66-1.98-0.66v-1.32c0-1.203,1.32-3.619,3.96-7.261
	c1.427-5.718,2.747-8.582,3.961-8.582L201.658,200.738L201.658,200.738z M301.357,206.02
	c-18.058,26.841-42.035,45.324-71.975,55.449c-8.027,2.641-16.609,3.961-25.734,3.961c-31.686,0-63.371-19.592-95.066-58.75
	c-10.562,10.551-15.843,20.677-15.843,30.354v0.672c1.98,7.814,7.485,14.853,16.514,21.123v-0.66l-0.671-1.319l1.32-0.66
	c6.942,10.881,20.804,19.91,41.587,27.054l4.621,5.271h-1.98c-3.961-2.641-6.165-3.95-6.602-3.95v0.66
	c16.066,10.125,33.89,15.192,53.47,15.192h3.96c20.911,0,39.394-4.408,55.45-13.203l2.641-2.64c-2.641,1.32-5.281,2.864-7.921,4.62
	h-0.681v-1.32c1.213-2.64,9.795-7.037,25.744-13.203c6.94-4.172,13.754-10.336,20.463-18.481h0.681v1.979l-0.681,1.32h0.681
	c10.988-9.891,16.502-17.152,16.502-21.783c0-10.339-5.515-20.89-16.502-31.676L301.357,206.02z M237.326,210.641v0.66
	c4.386,3.301,6.58,5.281,6.58,5.94h-0.66c-4.173-3.077-6.367-4.62-6.602-4.62v0.67c0.66,0,1.556,0.885,2.642,2.631h-0.66
	l-4.621-3.301v0.67c4.728,3.844,8.899,7.592,12.542,11.211v0.672l-1.98-1.32v0.67c0.66,0,1.32,0.66,1.98,1.98h-0.66l-2.641-1.98
	v0.66c2.3,1.768,6.048,6.154,11.201,13.203c2.875,2.64,4.406,3.959,4.642,3.959c0-0.553-1.319-2.31-3.96-5.28h0.66
	c3.3,3.087,5.281,4.621,5.941,4.621l0.66-1.32l-1.98-2.64v-0.66l3.961,2.641v-1.979l-1.32-1.979h0.66l2.641,1.979h0.66v-0.671
	c-11.882-13.426-21.783-22.221-29.705-26.405L237.326,210.641z M107.261,210.641h0.671v0.66c0,1.214-1.98,4.302-5.941,9.252v0.671
	h-0.671v-1.32c2.321-5.174,4.301-8.262,5.941-9.252V210.641z M143.567,237.705h0.671l2.641-1.992v0.67
	c-0.447,0.768-0.671,1.641-0.671,2.642h1.32l1.32-0.671v0.671c-0.447,0.767-0.66,1.64-0.66,2.642h0.66l5.941-4.633h0.66l-4.62,5.281
	h0.671c3.077-2.641,7.921-8.145,14.522-16.514h-0.671c0,0.447-1.533,1.768-4.621,3.961v-0.66l1.98-2.641
	c-0.437,0-0.66-0.225-0.66-0.66c10.125-8.816,15.183-13.426,15.183-13.862h-0.66c-0.106,0.554-2.747,2.747-7.921,6.601h-0.66
	c0-0.447,1.98-2.428,5.941-5.94c-2.747,1.64-5.622,3.62-8.582,5.94h-0.671c0-0.33,2.641-2.746,7.932-7.261
	c-5.941,2.854-15.63,11.222-29.045,25.084v1.32V237.705L143.567,237.705z M301.996,210.641h1.32c3.959,4.514,5.94,8.037,5.94,10.562
	C304.423,215.814,301.996,212.291,301.996,210.641z M107.921,215.92h0.66c0,0.768-1.32,3.621-3.95,8.582
	c-0.447,0.873-0.671,1.533-0.671,1.98c-0.873,0-1.32-0.447-1.32-1.32C104.738,219.658,106.495,216.582,107.921,215.92z
	 M239.285,215.92h0.66c0.553,0,1.66,1.098,3.322,3.301h-0.683C242.031,219.221,240.945,218.114,239.285,215.92z M302.677,215.92
	h0.66c3.065,5.717,4.621,9.019,4.621,9.902l-1.319,0.66c0-1.98-1.769-5.281-5.281-9.902L302.677,215.92z M243.904,217.241h0.683
	c0.66,0,1.32,0.66,1.979,1.979h-0.659C245.227,219.221,244.564,218.562,243.904,217.241z M167.343,218.562h0.671
	c0,0.659-1.32,1.979-3.961,3.96h-0.671C163.382,221.861,164.702,220.541,167.343,218.562z M243.245,219.221h0.659
	c0.555,0,2.322,1.758,5.281,5.281h-0.66C247.973,224.502,246.205,222.734,243.245,219.221z M162.711,219.881h0.671
	c0,0.66-0.66,1.32-1.98,1.992h-0.671C160.73,221.201,161.391,220.541,162.711,219.881z M193.736,219.881h1.32
	c0.106,1.769,0.554,2.642,1.32,2.642c-1.768,5.28-2.641,8.369-2.641,9.242h-1.32c0-0.438,0.224-2.193,0.66-5.271l-0.66-5.94
	L193.736,219.881z M198.357,219.881h4.622l2.64,1.992c0-0.672,0.659-1.332,1.979-1.992h1.32l4.621,0.672l-1.32,11.211
	c-0.873,0-1.98-2.854-3.301-8.582c-0.318,0-1.426,1.107-3.3,3.311h-1.979c-0.33-2.203-0.99-3.311-1.98-3.311
	c-1.331,4.301-1.991,6.941-1.991,7.932h-0.671c-0.979,0-1.64-3.523-1.98-10.563L198.357,219.881z M215.542,219.881h1.319l1.32,0.672
	l-0.681,6.591v1.319l0.681,3.302h-1.32l-2.641-8.582C215.096,221.756,215.542,220.658,215.542,219.881z M107.261,220.541h1.32
	c0,1.32-0.66,3.088-1.98,5.281h0.66c0.117-0.884,0.554-1.32,1.32-1.32h0.671c0,0.768-0.66,2.748-1.991,5.941h-1.32l0.67-3.3
	c-0.883,0-1.31-0.447-1.31-1.32c0-0.554,0.66-2.321,1.98-5.28h-0.02V220.541z M247.866,220.541h0.659c0.66,0,1.342,0.66,2.002,1.98
	h-0.682C249.188,222.522,248.525,221.861,247.866,220.541z M301.996,220.541c1.768,0.873,2.641,2.193,2.641,3.961l-0.66,5.941
	c-1.106,0-1.979-1.98-2.641-5.941l1.98,1.32h0.66C302.656,223.607,301.996,221.861,301.996,220.541z M232.023,225.822v0.67h1.979
	v-1.32c-0.873,0.438-1.532,0.67-1.979,0.67V225.822z M155.45,245.627v0.659c16.63,10.136,33.133,15.193,49.508,15.193
	c17.823,0,34.56-5.281,50.19-15.843v-0.672c-10.135-10.551-15.629-15.832-16.502-15.832c0,6.166-3.535,11.883-10.584,17.152h-1.319
	c0-0.437-0.214-0.66-0.66-0.66c-1.086,3.407-2.406,5.389-3.96,5.941c-1.32,0-2.406-1.32-3.3-3.96h-0.66
	c0,1.319-0.873,2.428-2.642,3.312h-1.979l-2.642-1.992c0,0.885-0.446,1.32-1.319,1.32h-1.979l-2.642-1.979
	c0,0.659-0.66,1.319-1.979,1.979h-1.32l-3.312-0.66c0,0.873-0.437,1.32-1.32,1.32h-1.98c-1.757-0.884-2.64-1.98-2.64-3.301
	c-1.757,2.63-3.3,3.95-4.621,3.95c-2.204-2.63-3.312-4.61-3.312-5.941c-0.873,0.437-1.533,0.671-1.98,0.671
	c-7.048-5.174-10.562-10.892-10.562-17.162h-0.66c-10.136,9.571-15.417,15.075-15.843,16.502h0.02V245.627z M174.604,231.764v0.66
	h0.671c0.873,0,1.31-0.447,1.31-1.32v-1.32C175.924,229.783,175.264,230.443,174.604,231.764L174.604,231.764z M234.004,229.783
	v1.32c0.447,0.873,0.682,1.544,0.682,1.98c0.873,0,1.319-0.438,1.319-1.32C236.005,231.104,235.346,230.443,234.004,229.783z
	 M177.894,232.424l-1.32,4.621v0.66c0,0.67,0.66,1.33,1.98,1.99c0.884-1.65,1.32-3.406,1.32-5.271c0-0.659-0.66-1.33-1.98-1.99
	V232.424z M231.385,232.424l-0.682,3.3c0.447,2.321,0.682,3.631,0.682,3.961h0.66c0.66,0,1.32-0.873,1.98-2.642
	C233.473,233.967,232.6,232.424,231.385,232.424L231.385,232.424z M247.206,232.424v0.66l10.583,10.571v-0.67L247.206,232.424z
	 M161.401,233.744l-7.932,8.582h0.67l7.932-8.582H161.401z M181.194,238.364v3.302c0,0.659,0.66,1.319,1.991,1.99l1.31-1.99v-2.642
	c-1.32,0-1.98-0.66-1.98-1.979C181.642,237.15,181.194,237.599,181.194,238.364z M228.063,237.045c0,0.883-0.873,1.979-2.619,3.301
	c0.873,1.979,1.746,3.087,2.619,3.311c0.895-1.438,1.319-2.757,1.319-3.96l-0.659-2.641h-0.66V237.045z M187.806,239.686
	l-0.67,4.621v1.32l0.67,3.301c1.203,0,2.087-2.418,2.63-7.262l-1.31,0.67c-0.447-0.776-0.671-1.649-0.671-2.64h-0.66
	L187.806,239.686z M194.396,240.346c0,1.32-0.213,2.875-0.66,4.621c0.554,2.215,1.214,3.312,1.98,3.312h0.671l0.671-3.312
	c0-2.406-0.895-3.961-2.641-4.621H194.396z M214.859,240.346c0,0.66-0.426,1.544-1.319,2.641v3.96
	c0.128,0.873,0.554,1.32,1.319,1.32h0.683l0.66-3.302v-3.299c0-0.885-0.447-1.32-1.32-1.32H214.859z M220.143,242.325
	c0,0.447,0.446,2.64,1.319,6.601h1.32l0.659-3.312v-1.991l-0.659-3.301c-1.087,1.32-1.98,1.991-2.64,1.991V242.325z
	 M201.658,241.666l-0.66,3.299v1.992c0.105,0.883,0.554,1.319,1.32,1.319c0.873,0,1.32-0.437,1.32-1.319v-4.621
	C203.191,242.336,202.531,242.112,201.658,241.666L201.658,241.666z M206.279,244.306c0.447,2.641,1.107,3.961,1.99,3.961h0.672
	l0.66-3.302l-0.66-3.299c-1.769,0.437-2.642,1.319-2.642,2.629L206.279,244.306z M112.542,267.41
	c-17.163,14.854-25.739,23.87-25.739,27.064h-1.32v-2.641c-2.635,2.193-4.179,3.301-4.621,3.301v-0.659
	c1.432-2.204,3.63-3.961,6.596-5.281l0.665-1.319h-0.665l-5.276,3.299h-0.666c1.757-1.862,4.839-4.279,9.247-7.26v-0.66
	c-11.004,2.746-16.508,6.707-16.508,11.881v3.961c1.208,5.281,3.625,7.922,7.261,7.922h3.301c0.884,0,1.32-0.438,1.32-1.319
	c-0.66,0-1.539-0.873-2.635-2.641l0.666-1.32c1.432,0.67,3.849,2.429,7.261,5.28h0.66v-1.319c-1.32,0-1.98-0.659-1.98-1.979
	c0-3.407,1.32-6.495,3.95-9.242v0.66c-1.32,2.863-1.98,5.505-1.98,7.922v1.32h0.66c0-0.769,0.671-3.185,1.991-7.263h0.671v0.671
	c-0.884,2.864-1.32,4.846-1.32,5.94c0.767,0,1.874-1.757,3.301-5.271h1.32v0.66c-2.641,7.367-3.961,11.775-3.961,13.202v2.642
	c0,4.939,3.524,8.026,10.562,9.24h1.32c6.708,0,10.668-4.834,11.882-14.521v-10.563l-0.66-3.301h-0.66
	c0,1.757-0.66,2.641-1.991,2.641l-0.671-1.32c0.777-4.077,4.515-10.902,11.222-20.463h-0.66c-2.534,3.514-4.067,5.271-4.621,5.271
	v-0.672l4.621-6.591h-1.32c-0.33,0-2.086,1.757-5.281,5.271v-0.659l3.961-5.941c0-0.873-0.437-1.32-1.32-1.32h-0.66l-2.641,1.98
	l0.66-3.301v-1.979l-3.301-0.66h-0.66v0.66h1.32v0.66c0,0.553-1.98,2.534-5.941,5.94h-0.671l4.621-5.94h-0.67
	c0,0.659-2.854,3.524-8.571,8.581v-0.66c4.951-5.174,7.804-8.475,8.571-9.901h-0.66L112.542,267.41L112.542,267.41z M298.035,268.07
	v1.32h-0.66l-1.32-0.66v0.66c1.661,0.99,3.194,2.746,4.621,5.279v0.66c-3.961-2.97-5.941-5.164-5.941-6.59h-1.319
	c-0.66,0-1.319,0.66-1.979,1.991c0.873,1.427,1.319,2.522,1.319,3.301l-2.642-1.991h-0.659c-0.873,0.117-1.32,0.553-1.32,1.32
	c2.193,2.971,3.3,4.951,3.3,5.941l-4.621-4.621h-1.319l5.94,8.582v0.67l-6.601-7.262v0.66c6.388,8.135,10.136,14.959,11.222,20.465
	l-1.32,0.66c-0.873-1.087-1.319-1.98-1.319-2.642h-1.319v0.671c0,2.204-0.214,4.844-0.66,7.932c0,13.191,4.174,19.793,12.541,19.793
	h1.32c7.049-1.438,10.563-4.515,10.563-9.24v-0.672c0-4.066-1.532-9.135-4.621-15.183l1.32-0.659
	c2.193,3.184,3.301,5.163,3.301,5.939h0.66v-1.32l-0.66-3.311v-0.66h0.66c0.895,4.845,1.768,7.261,2.641,7.261h0.66
	c3.535-3.075,5.941-4.631,7.262-4.631v1.32l-2.641,3.311l1.32,0.66h3.321c4.174,0,6.601-3.076,7.261-9.241v-2.641
	c0-5.059-5.728-9.018-17.162-11.883c0,0.554,3.514,3.195,10.563,7.933v0.66h-0.66c-3.432-2.64-5.624-3.96-6.604-3.96l6.602,5.941
	l0.66,1.319h-0.66c-2.428-2.204-3.748-3.301-3.961-3.301h-0.682l0.682,1.319c0,0.873-0.447,1.32-1.32,1.32
	c-1.001-4.183-9.582-12.988-25.744-26.402L298.035,268.07z M299.355,270.711c0.554,0,2.32,1.768,5.281,5.28v0.66
	c-0.555,0-2.301-1.757-5.281-5.271V270.711z M120.464,281.933v0.659c0,0.885-0.426,1.32-1.31,1.32v-0.66
	C119.261,282.379,119.697,281.933,120.464,281.933z M161.401,283.914h1.98c0,0.989,0.671,4.066,1.991,9.252
	c-1.001,0-2.311-2.865-3.961-8.582v-0.67H161.401z M247.206,283.914h0.683c0.873,0.105,1.319,0.553,1.319,1.319l-3.301,7.933h-0.683
	v-0.672C246.546,287.555,247.206,284.69,247.206,283.914z M291.434,283.914c0.873,0.105,1.32,0.553,1.32,1.319v0.67
	c-0.873,0-1.32-0.437-1.32-1.319V283.914z M170.633,289.193h0.66c0,2.204,0.66,3.301,1.991,3.301l-0.671,1.32
	c-2.193-0.768-3.3-2.087-3.3-3.961L170.633,289.193z M239.285,289.193h1.32v0.66l-0.66,3.313h-2.641
	c1.319-1.438,1.979-2.759,1.979-3.961L239.285,289.193L239.285,289.193z M174.604,289.854h1.32c0.33,2.215,1.427,3.313,3.301,3.313
	v1.31h-0.671c-1.746-0.66-3.066-1.757-3.95-3.302V289.854z M234.664,289.854h1.32v0.671c-0.98,2.642-2.534,3.95-4.621,3.95v-0.66
	C233.557,292.164,234.664,290.854,234.664,289.854z M179.874,292.494h1.32c1.98,0.885,3.088,1.768,3.301,2.641v0.66h-0.66
	C182.078,295.135,180.758,294.039,179.874,292.494z M228.723,292.494h1.32v0.672c0,0.543-1.107,1.426-3.301,2.629
	c-0.873,0-1.32-0.437-1.32-1.319C226.188,294.475,227.296,293.814,228.723,292.494z M190.436,294.475h0.67
	c1.438,0.873,2.534,1.32,3.312,1.32v1.319h-0.671l-3.311-0.671v-1.991V294.475z M220.143,294.475v0.66c0,0.66-0.66,1.32-1.98,1.979
	h-1.98v-0.659C216.182,295.582,217.501,294.911,220.143,294.475L220.143,294.475z M316.52,294.475
	c1.105,0.105,2.426,2.96,3.959,8.582c-0.66,1.746-1.319,2.641-1.979,2.641C318.498,302.502,317.838,298.754,316.52,294.475
	L316.52,294.475z M90.109,295.135v1.32c-0.447,2.641-1.107,3.961-1.986,3.961h-0.665c0.554-3.302,1.432-5.068,2.641-5.281H90.109z
	 M320.5,295.135c0.979,0,1.854,1.757,2.641,5.281h-2.002l-0.66-4.621v-0.67L320.5,295.135z M314.559,295.795h0.66l0.66,2.641v0.66
	h-0.66c-0.445-1.545-0.66-2.428-0.66-2.641V295.795z M106.602,299.756h0.66v1.319c0,1.214-0.426,2.533-1.32,3.961h0.67
	c0-0.446,0.224-0.659,0.671-0.659v1.319c-2.204,3.96-3.3,6.813-3.3,8.57v0.671h0.66c0.66-3.961,1.533-5.941,2.641-5.941v0.66
	c-0.447,2.747-1.107,5.389-1.98,7.922v0.672h0.66c1.427-5.611,2.747-8.466,3.96-8.582v0.67l-1.32,5.271v0.67h0.66
	c1.427-6.175,2.747-9.252,3.961-9.252c0.873,0.117,1.32,0.555,1.32,1.32c0,6.059-2.204,10.455-6.601,13.201h-3.301
	c-2.64-1.756-3.96-3.949-3.96-6.59v-3.301c0-4.185,1.98-8.146,5.941-11.893L106.602,299.756z M303.316,299.756
	c2.427,0,4.621,3.961,6.601,11.881v3.302c0,2.642-1.533,5.067-4.621,7.261c-5.067,0-8.134-4.174-9.241-12.531v-0.67
	c0.447-0.873,0.66-1.533,0.66-1.98h0.66c0.873,0,2.193,3.088,3.96,9.242h0.66v-0.66c-0.873-3.301-1.32-5.059-1.32-5.281v-0.66h0.681
	c1.746,3.961,2.619,6.602,2.619,7.922h0.682v-1.979c-0.895-2.864-1.32-4.845-1.32-5.941V309h0.66c1.32,3.514,1.98,5.493,1.98,5.94
	h0.66v-0.671c0-0.66-1.32-4.186-3.939-10.563l2.619,2.641l-1.98-3.312v-3.302L303.316,299.756z"/>
</svg>
