<?xml version="1.0" encoding="utf-8"?>
<!-- Generator: Adobe Illustrator 16.0.0, SVG Export Plug-In . SVG Version: 6.00 Build 0)  -->
<!DOCTYPE svg PUBLIC "-//W3C//DTD SVG 1.1//EN" "http://www.w3.org/Graphics/SVG/1.1/DTD/svg11.dtd">
<svg version="1.1" id="Layer_1" xmlns="http://www.w3.org/2000/svg" xmlns:xlink="http://www.w3.org/1999/xlink" x="0px" y="0px"
	 width="300px" height="300px" viewBox="0 0 300 300" enable-background="new 0 0 300 300" xml:space="preserve">
<g>
	<path fill-rule="evenodd" clip-rule="evenodd" fill="#40434E" d="M65.499,108.627c3.916-2.247,8.916-3.842,15.006-4.785
		l-3.698,18.268l10.111,2.935c-1.449-0.145-3.479,0-6.087,0.435c-5.147,1.087-10.295,3.298-15.441,6.632
		c0.291-1.45,0.69-3.153,1.196-5.109c0.943-3.916,1.958-6.996,3.045-9.243c-5.003-2.973-7.722-5.04-8.155-6.199L65.499,108.627z
		 M29.073,139.181c0,1.523-0.399,2.791-1.196,3.806c-0.796,0.943-1.812,1.415-3.043,1.415c-1.015,0-1.85-0.327-2.501-0.979
		c1.521-1.015,2.283-2.538,2.283-4.568c0-2.319-1.268-3.479-3.806-3.479c-3.19,0-4.785,1.559-4.785,4.676
		c0,2.247,1.958,5.182,5.872,8.807c3.914,3.479,5.872,7.284,5.872,11.417c0,4.205-1.487,7.467-4.46,9.787
		c-2.68,2.174-6.086,3.262-10.219,3.262c-3.262,0-5.836-0.689-7.722-2.066C3.121,169.662,2,167.344,2,164.299
		c0-2.684,0.796-4.822,2.391-6.416c1.521-1.449,3.298-2.176,5.326-2.176c2.901,0,4.422,1.124,4.568,3.373
		c-1.667,0-3.043,0.396-4.131,1.195c-1.378,0.869-2.068,2.139-2.068,3.807c0,1.375,0.438,2.535,1.306,3.479
		c1.015,1.086,2.283,1.631,3.806,1.631c1.812,0,3.298-0.652,4.458-1.957c1.087-1.232,1.631-2.936,1.631-5.111
		c0-3.043-1.775-6.523-5.327-10.438c-3.627-3.77-5.437-6.924-5.437-9.459c0-2.754,1.193-5.003,3.587-6.743
		c2.247-1.739,5.074-2.61,8.48-2.61C26.247,132.873,29.073,134.976,29.073,139.181z M27.769,138.854
		c0.072,1.958-0.582,3.409-1.958,4.35l1.631-0.869c1.376-1.523,1.232-3.806-0.433-6.851L27.769,138.854z M12.546,158.317
		c-3.844-0.072-5.872,1.087-6.091,3.481c-0.072,1.303,0.219,2.535,0.871,3.695c-0.652-2.609,0-4.604,1.958-5.98
		C10.372,158.934,11.459,158.536,12.546,158.317z M10.588,139.397l1.958-3.371c-2.538,2.175-3.517,4.713-2.935,7.611
		c0.361,1.523,0.941,2.755,1.737,3.698C9.9,144.798,9.645,142.152,10.588,139.397z M23.747,152.445
		c1.81,2.829,2.897,5.584,3.262,8.266c0.217-1.016,0.072-2.249-0.438-3.697c-0.796-2.9-2.608-5.545-5.437-7.938L23.747,152.445z
		 M31.248,164.732l-0.108-5.652c-1.159,5.002-0.58,8.662,1.74,10.982c1.231,1.158,2.538,1.775,3.916,1.848
		C33.75,171.186,31.902,168.791,31.248,164.732z M32.879,152.664c2.61-4.785,6.269-7.176,10.984-7.176
		c3.912,0,5.87,1.703,5.87,5.109c0,2.898-1.231,5.438-3.695,7.611c-2.465,2.031-5.258,3.154-8.374,3.371l-0.108,2.174
		c0,1.668,0.289,2.826,0.871,3.48c0.578,0.58,1.559,0.869,2.935,0.869c2.827,0,5.653-1.449,8.482-4.35
		c0.072-4.131,1.194-7.936,3.368-11.417c2.685-4.421,6.053-6.632,10.113-6.632c2.829,0,4.241,0.871,4.241,2.61v0.543l0.652-2.827
		h7.611l-3.806,17.722l-0.216,1.74c0,1.449,0.688,2.174,2.064,2.174c1.886,0,3.3-1.594,4.243-4.783h0.106l4.459-21.094
		c1.304-5.944,4.494-8.917,9.57-8.917c1.665,0,3.079,0.508,4.239,1.523c1.232,1.087,1.848,2.466,1.848,4.133l-0.106,2.175h-2.501
		l0.108-1.415c0-1.16-0.616-1.739-1.85-1.739c-1.956,0-3.224,1.415-3.806,4.241l-0.869,4.241h3.914l-0.433,2.064h-3.806
		l-6.199,28.271c-1.16,5.943-4.277,8.918-9.351,8.918c-1.669,0-3.082-0.473-4.241-1.416c-1.234-1.086-1.85-2.463-1.85-4.129
		c0-2.176,0.871-3.953,2.612-5.33c1.231-0.869,3.368-1.738,6.414-2.609l0.543-2.609c-1.958,2.246-4.349,3.369-7.176,3.369
		c-2.899,0-4.602-1.631-5.112-4.893c-2.247,3.262-4.821,4.893-7.718,4.893c-1.958,0-3.589-0.65-4.893-1.955
		c-1.087-1.088-1.741-2.537-1.958-4.35c-3.551,4.205-7.575,6.305-12.071,6.305c-5.437,0-8.155-2.789-8.155-8.371
		C29.833,160.057,30.849,156.215,32.879,152.664z M48.429,151.686c-0.436,2.102-1.376,3.986-2.829,5.652l1.198-1.087
		c2.536-2.827,2.974-5.797,1.304-8.915L48.429,151.686z M40.601,151.686c-1.087,2.102-1.958,4.565-2.612,7.395
		c2.03-0.074,3.844-1.016,5.437-2.829c1.453-1.739,2.174-3.695,2.174-5.87c0-1.451-0.433-2.175-1.304-2.175
		C42.992,148.207,41.76,149.366,40.601,151.686z M65.066,148.967c-2.03,0-3.844,1.739-5.437,5.221
		c-1.306,3.188-1.958,6.232-1.958,9.131c0,2.756,0.871,4.133,2.608,4.133c0.871,0,1.742-0.398,2.612-1.195
		c0.869-0.871,1.448-1.994,1.737-3.371l2.501-11.852C67.13,149.655,66.442,148.967,65.066,148.967z M75.939,173.541
		c-3.844,1.158-5.764,2.973-5.764,5.436c0,1.088,0.688,1.631,2.064,1.631c1.525,0,2.501-1.375,2.937-4.131L75.939,173.541z
		 M63.216,191.701l-1.087-8.156c-2.827,10.945-3.481,21.457-1.956,31.533c0.65,5.074,1.593,9.023,2.824,11.85
		c-0.361-4.492,0.255-9.059,1.85-13.699l2.5-5.545C65.537,203.406,64.157,198.078,63.216,191.701z M60.606,181.043l1.087-2.066
		c0.871-0.652,1.775,0.727,2.718,4.133c1.232,5.002,3.844,10.33,7.828,15.984c4.787,6.742,9.933,11.271,15.441,13.592
		c8.119,3.406,4.785,4.676-10.005,3.805c-1.737-0.361-2.281,0.363-1.631,2.176c0.798,2.102,3.009,4.711,6.634,7.83
		c5.942,5.072,12.36,8.986,19.245,11.74c9.642,3.77,17.508,3.662,23.595-0.324l4.676-4.023c2.973-3.842,4.46-8.664,4.46-14.461
		l0.217-47.191h2.501c2.536,3.262,6.341,4.674,11.417,4.24v41.645c-0.798,16.602-6.091,26.967-15.877,31.098l-4.239,1.307h-0.11
		l-6.414,0.979c-10.077,0.869-19.827-1.777-29.252-7.938c-6.668-4.277-12.178-9.496-16.527-15.658
		c5.292,8.119,11.924,14.715,19.899,19.791c10.51,6.74,21.675,9.639,33.491,8.697l3.151-0.436c2.538-0.506,4.893-1.486,7.068-2.936
		c6.452-4.203,9.786-11.525,10.003-21.965c0.072,10.439,3.373,17.762,9.896,21.965c3.406,2.248,6.813,3.371,10.22,3.371
		c11.889,0.941,23.053-1.957,33.491-8.697c8.409-5.365,15.333-12.396,20.77-21.096c-4.496,6.668-10.296,12.322-17.397,16.963
		c-9.425,6.16-19.139,8.807-29.142,7.938c-3.844-0.363-7.503-1.123-10.983-2.285c-5.726-2.391-9.931-7.104-12.61-14.135
		c-1.887-4.857-2.938-10.475-3.156-16.854l-0.106-41.973l3.695-1.195h10.33v44.365c0.145,5.797,1.703,10.619,4.676,14.461
		c1.593,1.885,3.118,3.225,4.566,4.023c6.163,3.986,14.1,4.094,23.813,0.324c6.814-2.754,13.156-6.668,19.028-11.74
		c3.625-3.119,5.8-5.729,6.523-7.83c0.725-1.813,0.219-2.537-1.522-2.176c-2.754,0.727-6.269,0.834-10.546,0.328
		c-4.857-0.508-4.639-1.887,0.651-4.133c5.509-2.32,10.655-6.85,15.441-13.592c3.912-5.654,6.486-10.982,7.718-15.984
		c0.871-3.406,1.742-4.785,2.612-4.133c0.506,0.436,0.905,1.123,1.193,2.066c2.829,6.74,4.315,14.172,4.46,22.291
		c0.072,7.539-0.979,14.896-3.153,22.074c-1.667,5.943-3.227,8.553-4.675,7.828c-0.654-0.508-1.559-2.355-2.718-5.545
		c-0.582-1.596-1.234-2.502-1.958-2.719l-0.761,0.217c-1.813,7.031-7.649,14.971-17.508,23.813
		c-9.858,8.916-19.827,15.367-29.902,19.355c-8.409,3.262-16.418,8.408-24.029,15.439l-8.917,9.678
		c-2.175-2.9-5.182-6.125-9.024-9.678c-7.611-7.031-15.62-12.178-24.03-15.439c-10.149-3.988-20.116-10.439-29.902-19.355
		c-9.931-8.842-15.839-16.781-17.725-23.813c-0.145-0.217-0.361-0.289-0.652-0.217c-0.58,0.217-1.196,1.123-1.85,2.719
		c-1.231,3.262-2.174,5.109-2.824,5.545c-1.378,0.725-2.973-1.885-4.787-7.828c-2.103-7.322-3.115-14.68-3.043-22.074
		C56.221,195.215,57.707,187.783,60.606,181.043z M69.959,182.783l2.608,1.305c2.901,0.58,5.691-0.762,8.372-4.023
		c-1.015,0.943-2.247,1.738-3.695,2.393C74.705,183.689,72.278,183.799,69.959,182.783z M70.502,171.693
		c2.391,0,4.602-1.125,6.63-3.371c-2.971,2.318-6.159,3.227-9.567,2.719L70.502,171.693z M59.954,171.041
		c-1.234,0.289-2.538,0.217-3.914-0.219c-2.392-0.725-4.022-2.283-4.893-4.674l0.76,2.607
		C53.502,171.365,56.185,172.129,59.954,171.041z M271.007,146.032l1.414-7.286l7.72-1.087l-1.739,8.374h3.263l-0.436,2.064h-3.263
		l-3.37,15.658l-0.11,1.74c0,1.305,0.727,1.957,2.175,1.957c1.233,0,2.247-0.436,3.045-1.303c0-0.146,0-0.256,0-0.328
		c0-2.465,0.943-4.096,2.829-4.893c2.464-4.277,4.603-9.423,6.414-15.439l7.828-1.198c0.362,9.061,0.689,15.442,0.98,19.139
		c0,3.043-1.197,5.4-3.589,7.066c-1.958,1.377-4.205,2.064-6.74,2.064c-2.612,0-4.568-0.723-5.875-2.174
		c-0.505-0.508-0.904-1.014-1.193-1.521c-2.03,2.465-4.64,3.695-7.83,3.695c-3.189,0-5.001-1.557-5.437-4.674
		c-2.103,3.117-4.821,4.674-8.155,4.674c-3.115,0-4.82-1.631-5.111-4.893c-2.247,3.262-4.821,4.893-7.718,4.893
		c-1.958,0-3.589-0.65-4.894-1.955c-1.452-1.451-2.174-3.625-2.174-6.523c0-2.975,0.543-5.765,1.631-8.375
		c-1.16,0.363-2.394,0.654-3.7,0.871c-0.36,4.785-1.775,8.627-4.238,11.525c-2.247,2.826-5.038,4.24-8.372,4.24
		c-5.583,0-8.374-2.754-8.374-8.262c0-4.133,1.052-8.012,3.154-11.637c2.68-4.638,6.413-6.957,11.2-6.957
		c4.494,0,6.741,2.827,6.741,8.48h0.651c1.307,0,2.755-0.326,4.35-0.979c0.072-0.217,0.181-0.434,0.325-0.652
		c2.612-4.421,5.98-6.632,10.113-6.632c2.828,0,4.24,0.871,4.24,2.61v0.543l0.544-2.827h7.611l-3.806,17.722l-0.108,1.74
		c0,1.449,0.688,2.174,2.064,2.174c1.813,0,3.229-1.594,4.243-4.783l3.262-14.789h-1.85l0.436-2.064H271.007z M282.534,165.277
		c0.145,2.029,1.16,3.045,3.043,3.045c3.116,0,4.675-1.631,4.675-4.893c-0.361-2.902-0.688-7.032-0.977-12.396
		c-0.799,2.682-2.213,5.98-4.241,9.895c0.796,0.436,1.195,1.088,1.195,1.957c0,1.668-0.799,2.5-2.392,2.5
		c-0.581,0-0.942-0.107-1.087-0.324C282.679,165.133,282.606,165.205,282.534,165.277z M284.49,161.799
		c0.58,0.145,1.016,0.396,1.306,0.76c-0.87-1.379-1.996-1.631-3.372-0.76l-1.359,1.791
		C282.135,162.252,283.275,161.654,284.49,161.799z M96.924,71.33l3.153,3.371c3.262,2.249,7.467,3.372,12.613,3.372h76.983
		l4.024-1.198c3.043-1.304,5.364-2.971,6.959-5.001c-10.367-1.883-17.397-3.95-21.095-6.197h-58.498
		C112.798,69.446,104.754,71.33,96.924,71.33z M138.461,54.476c-0.291-2.463,0.217-4.566,1.521-6.305
		c1.669-2.394,4.313-2.792,7.938-1.198c4.494,2.175,7.648,2.357,9.458,0.544c1.887-1.667,2.176-3.262,0.871-4.783
		c-1.45-2.175-4.205-3.298-8.265-3.373c-2.536-0.072-4.927,0.762-7.174,2.502l-2.829,2.61c-1.593,2.03-2.319,4.277-2.175,6.741
		C137.879,52.521,138.096,53.608,138.461,54.476z M161.84,32.294c0-3.623-1.271-6.705-3.807-9.242
		c-2.539-2.536-5.619-3.806-9.242-3.806c-3.627,0-6.67,1.27-9.136,3.806c-2.536,2.538-3.806,5.619-3.806,9.242
		c0,3.842,1.487,7.068,4.46,9.678c2.608-2.61,5.836-3.914,9.676-3.914c3.261,0,6.019,0.979,8.265,2.935
		C160.642,38.457,161.84,35.556,161.84,32.294z M161.402,18.159c-0.289-3.262-2.936-6.017-7.938-8.264
		c-5.799-2.754-11.417-2.463-16.853,0.871c-4.568,2.754-7.902,6.233-10.005,10.438l-1.631,5.437
		c-0.578,4.494,0.616,8.155,3.589,10.982c1.451,1.45,2.973,2.465,4.566,3.045c-1.593-2.466-2.353-5.691-2.281-9.678
		c0-5.872,2.353-10.474,7.068-13.809c4.782-3.48,10.147-4.349,16.092-2.61C156.98,15.368,159.445,16.563,161.402,18.159z
		 M174.561,32.294c0,4.35-1.016,8.41-3.046,12.18c-2.103,3.697-4.854,6.741-8.263,9.134v9.242h14.679
		c2.755-1.234,6.271-0.618,10.549,1.848c3.189,1.378,8.261,2.538,15.223,3.479c3.334,0.508,4.82,3.842,4.455,10.005
		c-0.36,6.089-1.559,9.314-3.587,9.678c-3.189,0-5.98,0.108-8.374,0.325c-4.276,0.144-7.429,1.195-9.459,3.153
		c-2.174,2.103-4.349,3.01-6.523,2.719l-2.608-0.979H164.12v7.503c-3.768,1.087-8.3,1.739-13.592,1.958v-4.893
		c0-0.363-0.145-0.543-0.433-0.543c-0.436,0-0.654,0.18-0.654,0.543v4.893c-3.551,0-8.189-0.436-13.917-1.306v-8.155h-13.267
		c-0.722,0.507-1.593,0.834-2.608,0.979c-2.175,0.291-4.349-0.616-6.524-2.719c-2.03-1.958-5.256-3.009-9.678-3.153
		c-4.35,0.072-7.104-0.036-8.264-0.325c-2.102-0.363-3.3-3.589-3.589-9.678c-0.289-6.163,1.198-9.497,4.46-10.005
		c7.102-0.941,12.213-2.1,15.329-3.479c4.496-2.538,8.121-3.154,10.874-1.848h14.354v-7.938c-4.131-2.175-7.393-5.256-9.786-9.242
		c-2.538-4.133-3.806-8.591-3.806-13.375c0-7.104,2.538-13.156,7.611-18.158c4.929-5.074,10.981-7.611,18.16-7.611
		c7.102,0,13.154,2.538,18.158,7.611C172.022,19.138,174.561,25.19,174.561,32.294z M95.401,99.276
		c0.217,0.072,0.472,0.145,0.76,0.217c9.569,2.103,19.283,3.733,29.142,4.893c26.75,2.971,51.395,1.739,73.939-3.697
		c5.22-1.304,10.33-2.791,15.333-4.458l5.218,24.249c-5.872,2.391-12.723,4.458-20.551,6.197c-2.247,0.436-4.53,0.871-6.852,1.304
		c-4.565,0.798-9.387,1.522-14.46,2.174c-24.284,3.118-47.843,2.394-70.677-2.174c-3.697-0.725-7.393-1.557-11.092-2.5
		c-5.653-1.45-11.234-3.118-16.743-5.001l4.566-24.249L95.401,99.276z M86.05,136.679l-1.413,3.045
		c1.449-2.755,3.479-4.458,6.087-5.11c1.453-0.436,2.791-0.508,4.024-0.219C91.196,133.236,88.297,133.997,86.05,136.679z
		 M94.857,152.337c2.61-4.421,6.019-6.632,10.221-6.632c2.827,0,4.241,0.871,4.241,2.61v0.543l0.433-2.827h7.611l-3.806,17.722
		l-0.106,1.74c0,1.449,0.722,2.174,2.175,2.174c1.593,0,2.971-1.447,4.13-4.35v-0.107l3.697-17.179h7.611l-0.76,3.262
		c2.319-2.175,4.422-3.262,6.306-3.262c1.087,0,2.028,0.397,2.827,1.196c0.582,0.724,0.871,1.595,0.871,2.61
		c0,1.087-0.289,1.956-0.871,2.608c-0.724,0.871-1.704,1.307-2.935,1.307c-1.087,0-1.775-0.58-2.066-1.74
		c-0.291-1.161-0.652-1.741-1.087-1.741c-1.16,0-2.427,0.69-3.806,2.066l-4.024,19.899h-7.718l0.65-2.826
		c-1.956,2.1-4.277,3.15-6.957,3.15c-2.973,0-4.713-1.631-5.22-4.893c-2.247,3.262-4.821,4.893-7.72,4.893
		c-1.956,0-3.587-0.65-4.893-1.955c-1.451-1.451-2.175-3.625-2.175-6.523C91.487,159.877,92.61,155.963,94.857,152.337z
		 M93.553,167.451l-1.087-4.566c-0.072,4.494,1.196,7.285,3.806,8.373c1.304,0.58,2.646,0.652,4.022,0.217
		C97.176,171.766,94.93,170.422,93.553,167.451z M99.207,163.318c0,2.756,0.907,4.133,2.718,4.133c0.871,0,1.742-0.398,2.61-1.195
		c0.869-0.871,1.45-1.994,1.739-3.371l2.501-11.852c0-1.378-0.688-2.066-2.066-2.066c-2.028,0-3.842,1.739-5.437,5.221
		C99.895,157.375,99.207,160.42,99.207,163.318z M149.441,135.592v5.764c-2.824,0.291-5.109,1.415-6.849,3.37
		c-0.868-2.247-2.61-3.37-5.218-3.37c-0.798,0-1.415,0.108-1.85,0.327v-7.722C139.727,135.267,144.37,135.811,149.441,135.592z
		 M164.12,133.96v7.068c-1.737,0.436-3.479,1.27-5.218,2.502c-2.538-1.667-5.328-2.392-8.374-2.175v-5.764
		C154.733,135.52,159.266,134.976,164.12,133.96z M139.111,147.879l-0.217,2.502c-0.289,1.304-0.905,2.138-1.848,2.5l0.977-0.217
		C139.33,151.865,139.693,150.271,139.111,147.879z M142.048,152.664c2.61-4.785,6.271-7.176,10.982-7.176
		c3.916,0,5.872,1.703,5.872,5.109c0,2.898-1.234,5.438-3.697,7.611c-2.464,2.031-5.292,3.154-8.482,3.371v2.174
		c0,1.668,0.291,2.826,0.871,3.48c0.582,0.58,1.523,0.869,2.829,0.869c3.042,0,6.125-1.703,9.242-5.109l3.588-16.962h7.611
		l-0.763,3.262c2.612-2.175,4.715-3.262,6.308-3.262c1.231,0,2.175,0.397,2.828,1.196c0.578,0.652,0.869,1.522,0.869,2.61
		s-0.291,1.956-0.869,2.608c-0.653,0.871-1.631,1.307-2.937,1.307c-1.088,0-1.777-0.58-2.066-1.74
		c-0.145-1.161-0.434-1.741-0.871-1.741c-1.231,0-2.535,0.69-3.912,2.066l-4.132,19.899h-7.611l1.195-5.764
		c-3.408,4.061-7.32,6.088-11.742,6.088c-5.509,0-8.266-2.789-8.266-8.371C138.895,160.057,139.946,156.215,142.048,152.664z
		 M157.596,150.814c-0.145,2.103-0.832,3.988-2.064,5.655l1.196-1.414c1.595-2.683,1.739-5.254,0.436-7.72L157.596,150.814z
		 M153.465,148.207c-1.306,0-2.571,1.16-3.805,3.479c-1.087,2.174-1.922,4.641-2.5,7.395c2.028-0.074,3.84-1.016,5.437-2.829
		c1.448-1.739,2.175-3.695,2.175-5.87C154.771,148.931,154.334,148.207,153.465,148.207z M234.037,108.843
		c2.03,1.015,3.444,1.994,4.241,2.938c-0.508,1.231-3.189,3.262-8.047,6.088c1.741,3.623,3.117,8.408,4.133,14.352
		c-5.22-3.334-10.368-5.473-15.439-6.416l-6.091-0.433l10.222-3.045l-4.131-18.158C224.867,105.038,229.904,106.597,234.037,108.843
		z M210.551,136.462c1.884,2.175,2.538,4.821,1.956,7.938c0.51-1.162,0.654-2.466,0.438-3.916c-0.291-2.971-2.068-5.074-5.33-6.306
		L210.551,136.462z M203.265,137.766l-2.5,11.636h0.325c2.03,0,3.771-0.943,5.22-2.827c1.523-1.742,2.285-3.625,2.285-5.656
		c0-3.842-2.321-5.762-6.961-5.762c-3.407,0-6.342,1.087-8.806,3.262c-2.828,2.319-4.243,5.545-4.243,9.676
		c0,0.871,0.255,2.03,0.763,3.48c-3.842,0-5.762-1.594-5.762-4.784c0-3.625,1.956-6.851,5.87-9.678
		c3.916-2.827,8.338-4.241,13.265-4.241c3.627,0,6.452,0.871,8.482,2.61c1.813,1.451,2.718,3.334,2.718,5.655
		c0,3.623-1.739,6.414-5.22,8.372c4.061,0.796,6.091,3.625,6.091,8.482c0,3.334-0.799,6.488-2.392,9.459
		c-2.175,3.77-5.184,5.654-9.025,5.654c-3.479,0-5.22-1.305-5.22-3.914c0-0.58,0.254-1.596,0.76-3.043
		c1.159,1.23,2.321,1.848,3.48,1.848c1.739,0,3.044-1.088,3.914-3.264c0.799-1.738,1.198-3.77,1.198-6.088
		c0-4.494-1.669-6.742-5.004-6.742l-2.282,0.109l-4.458,20.225h-7.395l7.178-33.383L203.265,137.766z M184.998,147.879
		c0.436,1.304,1.307,2.139,2.61,2.502c-2.319-1.378-2.683-3.917-1.087-7.611l3.262-5.004
		C185.65,141.971,184.058,145.342,184.998,147.879z M178.693,152.012c1.231-1.087,1.087-2.754-0.438-5.003l0.654,2.501
		c0.144,1.451-0.436,2.539-1.742,3.262L178.693,152.012z M211.639,152.664c1.739,2.247,2.427,5.146,2.066,8.699
		c0.36-1.451,0.433-3.01,0.216-4.677c-0.36-3.19-2.063-5.329-5.109-6.416L211.639,152.664z M225.882,154.076
		c-1.376,3.336-2.064,6.451-2.064,9.354c0,1.666,0.179,2.791,0.544,3.369c0.361,0.58,1.049,0.869,2.064,0.869
		c1.376,0,2.646-1.014,3.806-3.043c1.159-2.174,1.958-4.82,2.392-7.938c-1.016-0.072-1.521-0.796-1.521-2.175
		c0-1.231,0.543-2.175,1.631-2.826c0-2.031-0.654-3.046-1.958-3.046C229.036,148.64,227.404,150.454,225.882,154.076z
		 M217.727,168.322c1.596,2.535,4.532,3.588,8.81,3.152c-1.233,0-2.54-0.182-3.916-0.545c-2.974-0.867-4.894-2.826-5.764-5.869
		L217.727,168.322z M231.973,155.383c0.797,1.087,2.863,1.231,6.197,0.436c-1.087,0.217-2.175,0.289-3.262,0.217
		c-1.742-0.217-2.719-0.761-2.936-1.632V155.383z M248.827,154.188c-1.379,3.188-2.069,6.232-2.069,9.131
		c0,2.756,0.909,4.133,2.719,4.133c0.871,0,1.741-0.398,2.612-1.195c0.868-0.871,1.448-1.994,1.737-3.371l2.502-11.852
		c0-1.378-0.725-2.066-2.175-2.066C252.051,148.967,250.275,150.706,248.827,154.188z M243.279,170.822
		c2.61,1.451,5.619,0.652,9.026-2.391c-1.016,0.795-2.175,1.447-3.479,1.955c-2.757,0.943-5.112,0.471-7.068-1.412L243.279,170.822z
		 M213.921,214.424c6.308-0.072,11.634-1.447,15.983-4.131c2.247-1.307,3.806-2.646,4.677-4.023
		c2.682-6.234,3.625-13.518,2.828-21.855c-2.611,9.641-7.286,17.541-14.029,23.705L213.921,214.424z M193.262,171.258l-2.719-0.652
		l0.871-8.264l-1.631,8.916H193.262z M149.335,170.93c-3.118,0.363-5.62-0.072-7.505-1.303l1.85,1.414
		c2.899,1.303,6.452,0.797,10.655-1.523C152.886,170.17,151.219,170.641,149.335,170.93z M112.146,171.693
		c2.466,0,4.602-1.125,6.416-3.371c-2.538,2.318-5.256,3.334-8.155,3.043L112.146,171.693z M139.874,269.445l-8.374,1.412
		c5.437,2.174,10.113,5.365,14.029,9.57c2.028,2.102,3.515,3.986,4.456,5.652v-27.508
		C148.897,263.861,145.529,267.486,139.874,269.445z M261.875,171.041c2.175-0.58,3.984-2.066,5.437-4.461
		c-2.175,2.611-4.388,4.17-6.635,4.678L261.875,171.041z M293.951,169.734c2.028-1.666,3.116-4.094,3.263-7.283
		c-0.51,3.77-2.141,6.486-4.894,8.154L293.951,169.734z M274.596,171.258c2.103-0.436,3.914-1.559,5.437-3.371
		c-2.537,2.031-4.82,3.154-6.851,3.371H274.596z"/>
	<path fill-rule="evenodd" clip-rule="evenodd" fill="#F1EFEE" d="M27.769,138.854l-0.76-3.37c1.665,3.045,1.81,5.328,0.433,6.851
		l-1.631,0.869C27.187,142.262,27.841,140.812,27.769,138.854z M10.588,139.397c-0.943,2.754-0.688,5.4,0.76,7.938
		c-0.796-0.943-1.376-2.175-1.737-3.698c-0.582-2.898,0.397-5.437,2.935-7.611L10.588,139.397z M12.546,158.317
		c-1.087,0.219-2.175,0.616-3.262,1.196c-1.958,1.377-2.61,3.371-1.958,5.98c-0.652-1.16-0.943-2.393-0.871-3.695
		C6.674,159.404,8.702,158.245,12.546,158.317z M23.747,152.445l-2.612-3.37c2.829,2.394,4.64,5.038,5.437,7.938
		c0.51,1.448,0.654,2.682,0.438,3.697C26.644,158.029,25.556,155.274,23.747,152.445z M31.248,164.732
		c0.654,4.059,2.502,6.453,5.547,7.178c-1.378-0.072-2.685-0.689-3.916-1.848c-2.319-2.32-2.899-5.98-1.74-10.982L31.248,164.732z
		 M48.429,151.686l-0.327-4.35c1.669,3.118,1.232,6.088-1.304,8.915l-1.198,1.087C47.052,155.672,47.993,153.787,48.429,151.686z
		 M59.954,171.041c-3.77,1.088-6.452,0.324-8.047-2.285l-0.76-2.607c0.871,2.391,2.501,3.949,4.893,4.674
		C57.416,171.258,58.72,171.33,59.954,171.041z M70.502,171.693l-2.937-0.652c3.409,0.508,6.596-0.4,9.567-2.719
		C75.104,170.568,72.894,171.693,70.502,171.693z M69.959,182.783c2.319,1.016,4.746,0.906,7.284-0.326
		c1.448-0.654,2.68-1.449,3.695-2.393c-2.68,3.262-5.471,4.604-8.372,4.023L69.959,182.783z M284.49,161.799
		c-1.215-0.145-2.355,0.453-3.426,1.791l1.359-1.791c1.376-0.871,2.502-0.619,3.372,0.76
		C285.506,162.195,285.07,161.943,284.49,161.799z M86.05,136.679c2.247-2.683,5.146-3.443,8.699-2.283
		c-1.234-0.289-2.572-0.217-4.024,0.219c-2.608,0.652-4.638,2.355-6.087,5.11L86.05,136.679z M93.553,167.451
		c1.376,2.971,3.623,4.314,6.741,4.023c-1.376,0.436-2.718,0.363-4.022-0.217c-2.61-1.088-3.878-3.879-3.806-8.373L93.553,167.451z
		 M139.111,147.879c0.582,2.392,0.219,3.986-1.087,4.785l-0.977,0.217c0.943-0.361,1.559-1.195,1.848-2.5L139.111,147.879z
		 M157.596,150.814l-0.433-3.479c1.304,2.465,1.159,5.037-0.436,7.72l-1.196,1.414C156.764,154.803,157.451,152.917,157.596,150.814
		z M210.551,136.462l-2.937-2.283c3.262,1.232,5.039,3.334,5.33,6.306c0.217,1.45,0.072,2.754-0.438,3.916
		C213.089,141.283,212.435,138.637,210.551,136.462z M184.998,147.879c-0.94-2.538,0.652-5.908,4.785-10.113l-3.262,5.004
		c-1.596,3.695-1.232,6.233,1.087,7.611C186.305,150.018,185.434,149.184,184.998,147.879z M211.639,152.664l-2.827-2.393
		c3.046,1.086,4.749,3.225,5.109,6.416c0.217,1.667,0.145,3.226-0.216,4.677C214.065,157.811,213.378,154.911,211.639,152.664z
		 M178.693,152.012l-1.525,0.761c1.307-0.724,1.886-1.812,1.742-3.262l-0.654-2.501C179.78,149.258,179.925,150.925,178.693,152.012
		z M231.973,155.383v-0.979c0.217,0.871,1.193,1.415,2.936,1.632c1.087,0.072,2.175,0,3.262-0.217
		C234.836,156.614,232.77,156.47,231.973,155.383z M217.727,168.322l-0.87-3.262c0.87,3.043,2.79,5.002,5.764,5.869
		c1.376,0.363,2.683,0.545,3.916,0.545C222.259,171.91,219.322,170.857,217.727,168.322z M243.279,170.822l-1.521-1.848
		c1.956,1.883,4.312,2.355,7.068,1.412c1.304-0.508,2.463-1.16,3.479-1.955C248.898,171.475,245.89,172.273,243.279,170.822z
		 M112.146,171.693l-1.739-0.328c2.899,0.291,5.617-0.725,8.155-3.043C116.749,170.568,114.612,171.693,112.146,171.693z
		 M149.335,170.93c1.884-0.289,3.551-0.76,4.999-1.412c-4.203,2.32-7.756,2.826-10.655,1.523l-1.85-1.414
		C143.715,170.857,146.217,171.293,149.335,170.93z M193.262,171.258h-3.479l1.631-8.916l-0.871,8.264L193.262,171.258z
		 M274.596,171.258h-1.414c2.03-0.217,4.313-1.34,6.851-3.371C278.51,169.699,276.698,170.822,274.596,171.258z M293.951,169.734
		l-1.631,0.871c2.753-1.668,4.384-4.385,4.894-8.154C297.067,165.641,295.979,168.068,293.951,169.734z M261.875,171.041
		l-1.198,0.217c2.247-0.508,4.46-2.066,6.635-4.678C265.859,168.975,264.05,170.461,261.875,171.041z"/>
</g>
</svg>
