<?xml version="1.0" encoding="utf-8"?>
<!-- Generator: Adobe Illustrator 16.0.0, SVG Export Plug-In . SVG Version: 6.00 Build 0)  -->
<!DOCTYPE svg PUBLIC "-//W3C//DTD SVG 1.1//EN" "http://www.w3.org/Graphics/SVG/1.1/DTD/svg11.dtd">
<svg version="1.1" id="Layer_1" xmlns="http://www.w3.org/2000/svg" xmlns:xlink="http://www.w3.org/1999/xlink" x="0px" y="0px"
	 width="300px" height="300px" viewBox="0 0 300 300" enable-background="new 0 0 300 300" xml:space="preserve">
<g>
	<path fill-rule="evenodd" clip-rule="evenodd" fill="#010101" d="M83.383,176.298l-8.622-5.509l58.515,31.864
		c7.146,3.868,12.26,8.873,15.341,15.014c3.475,6.731,3.475,12.643,0,17.734c-3.693,5.529-9.823,8.49-18.39,8.885
		c-2.165,0.065-4.251-0.012-6.262-0.23c2.972-2.862,5.671-9.921,8.097-21.177c1.202-5.966-2.787-12.926-11.965-20.881
		C113.979,196.687,101.741,188.12,83.383,176.298z M99.609,162.201c-4.502-1.617-9.911-4.371-16.226-8.262
		c-5.53-3.671-10.949-8.271-16.26-13.801c1.662,5.922,7.081,12.566,16.26,19.932c3.037,2.644,7.321,5.398,12.85,8.261
		L99.609,162.201z M110.001,165.872l-4.261,7.049c20.193,8.589,35.098,16.347,44.713,23.274l17.735-3.344
		c-4.873-3.475-9.66-6.534-14.357-9.179C142.991,177.751,128.381,171.817,110.001,165.872z M90.693,90.574l-7.31,5.474
		c-7.563,6.95-12.064,15.015-13.506,24.193c3.868-5.507,8.37-9.288,13.506-11.342c3.649-1.814,8.435-2.721,14.357-2.721
		C91.207,101.873,88.857,96.671,90.693,90.574z M162.059,93.622c-1.836-2.688-4.579-3.813-8.228-3.376
		c-1.442,0-4.721,0.502-9.835,1.508c1.857,0.218,5.136,1.234,9.835,3.049l1.508,0.917l3.048,0.918
		C162.059,96.638,163.282,95.633,162.059,93.622z M180.776,98.211c1.005-0.218,2.426-1.245,4.262-3.081
		c3.082-2.863,4.099-6.84,3.05-11.933c-1.006-4.917-3.858-9.003-8.557-12.26c8.173,1.443,14.401,5.42,18.686,11.933
		c4.283,6.36,5.212,12.992,2.785,19.898c4.044-0.787,7.202,0.142,9.475,2.786c1.814,2.229,2.415,4.983,1.804,8.262
		c5.528,10.817,8.403,18.882,8.621,24.192v1.246c-4.086-5.704-7.977-9.889-11.67-12.556c-0.394,4.48-2.131,8.556-5.213,12.228
		c0.416-9.397-3.562-17.364-11.933-23.898c-1.42,2.885-3.868,5.125-7.343,6.72c-0.809-5.486-3.06-9.856-6.753-13.113
		c0,4.065-1.225,8.141-3.671,12.228c-1.421-6.316-4.382-10.906-8.885-13.769c0.416,4.677-0.098,9.059-1.54,13.146
		c-3.06-6.513-6.415-11.2-10.063-14.063c-3.694-2.885-6.557-2.994-8.589-0.328c-1.027,1.421-1.027,2.961,0,4.622
		c1.201,1.618,3.344,2.831,6.424,3.639c-0.196,3.497,0.525,7.07,2.165,10.72c1.835,3.475,5.506,6.949,11.015,10.424
		c2.84,0.219,5.19-0.393,7.047-1.836c0.612,3.278-0.099,6.742-2.13,10.392c3.867,0.831,6.928,0.219,9.178-1.836
		c0.176,3.278-0.754,6.459-2.785,9.541c5.528,0.175,10.03-0.547,13.505-2.164c2.426-1.027,4.972-2.765,7.639-5.212
		c-1.442,4.305-3.793,7.572-7.048,9.801c-0.831,0.809-3.793,2.438-8.884,4.885c1.027,4.306,1.333,9.627,0.918,15.965
		c-4.088-9.397-11.136-17.768-21.145-25.111c-0.175-5.136-2.612-8.72-7.31-10.752c-3.082-1.224-6.557-1.836-10.425-1.836
		c-9.616,0-15.441-3.672-17.473-11.015c-8.589-1.442-16.03-1.234-22.324,0.623c1.421-2.863,4.47-5.114,9.146-6.753
		c-15.494-3.278-24.575-0.218-27.241,9.179l-2.13-4.294l-1.246-3.672c-1.836,5.704-1.421,11.43,1.246,17.177
		c3.868,7.343,12.238,14.075,25.11,20.194c7.539,3.497,18.347,7.485,32.42,11.965l12.917,4.557
		c35.49,14.533,50.888,36.278,46.188,65.235c-1.813,9.834-6.808,18.107-14.981,24.816c-7.976,6.73-18.379,11.331-31.207,13.801
		c-7.956,1.836-16.599,2.567-25.931,2.196c2.623-0.853,5.519-1.858,8.688-3.017c30.464-11.102,47.741-24.913,51.828-41.436
		c2.645-11.845-0.831-23.482-10.425-34.912l-17.439,3.343c7.955,7.956,11.735,17.343,11.342,28.16
		c-0.218,11.648-6.239,19.921-18.062,24.815c-7.781,3.234-17.102,4.634-27.963,4.196c6.556-2.71,15.876-8.185,27.963-16.424
		c2.032-1.639,3.452-3.485,4.262-5.54c5.31-10.205,3.89-20.204-4.262-29.995c-3.913-5.092-10.042-9.791-18.392-14.096
		c-27.973-14.905-45.326-23.996-52.056-27.274c-11.234-5.311-18.795-8.774-22.685-10.392c-12.457-5.289-20.008-12.02-22.652-20.194
		c1.421,2.033,3.268,3.661,5.541,4.885c2.425,1.443,4.25,1.857,5.474,1.246c1.442-0.437,2.055-1.464,1.836-3.082
		c0-1.421-0.918-2.546-2.753-3.377c-8.982-3.868-14.894-9.583-17.735-17.144c2.032,2.862,4.381,5.113,7.048,6.752
		c3.038,1.618,5.475,1.618,7.31,0c1.858-1.857,1.246-3.705-1.835-5.54c-7.955-4.262-14.282-9.67-18.981-16.227
		c-5.529-7.758-7.463-15.506-5.802-23.242c4.087,15.496,12.96,23.953,26.619,25.374c2.645,0.437,4.272-0.372,4.884-2.426
		c0.612-1.857,0.219-3.092-1.18-3.704c-7.168-3.257-12.687-7.737-16.555-13.44c-3.869-5.508-5.605-11.223-5.212-17.145
		c4.087,7.343,9.189,13.058,15.309,17.145c5.529,3.671,11.146,5.605,16.85,5.802c2.032,0.218,3.573-0.602,4.622-2.459
		c1.005-2.054,0.077-3.475-2.786-4.262c-8.589-2.469-14.708-6.25-18.358-11.342c-1.857-2.645-3.704-7.442-5.54-14.392
		c4.306,6.731,10.632,12.03,18.98,15.899c7.168,3.3,14.632,4.95,22.39,4.95C43.663,61.168,24.267,37.882,19.983,12.75
		c15.298,28.17,36.431,46.955,63.4,56.352l7.047,2.164c-3.081-3.082-5.431-5.847-7.047-8.294
		c-5.748-8.174-7.595-17.265-5.541-27.274c1.224,5.136,3.071,9.528,5.541,13.178c2.426,3.278,5.386,6.24,8.883,8.884
		c-0.83-6.316-0.229-12.534,1.803-18.653c5.092,15.517,14.489,25.711,28.192,30.584c-6.141-10.992-8.905-22.925-8.294-35.797
		c9.835,22.051,20.555,36.137,32.16,42.256l7.704,2.753c0.611,0.218,4.075,1.234,10.392,3.048c3.692,1.049,6.349,2.076,7.966,3.082
		c1.64,1.224,2.458,2.961,2.458,5.212c0,2.448-0.818,4.491-2.458,6.13C176.274,97.818,179.138,98.43,180.776,98.211z"/>
</g>
</svg>
