<?xml version="1.0" encoding="utf-8"?>
<!-- Generator: Adobe Illustrator 16.0.0, SVG Export Plug-In . SVG Version: 6.00 Build 0)  -->
<!DOCTYPE svg PUBLIC "-//W3C//DTD SVG 1.1//EN" "http://www.w3.org/Graphics/SVG/1.1/DTD/svg11.dtd">
<svg version="1.1" id="Layer_1" xmlns="http://www.w3.org/2000/svg" xmlns:xlink="http://www.w3.org/1999/xlink" x="0px" y="0px"
	 width="300px" height="300px" viewBox="0 0 300 300" enable-background="new 0 0 300 300" xml:space="preserve">
<g>
	<path fill-rule="evenodd" clip-rule="evenodd" d="M269.127,90.491c-2.588-6.623-4.519-11.597-5.792-14.922
		c-0.285-0.762-0.619-1.143-1-1.143c-0.294,0-0.753,0.269-1.376,0.806c-2.918,2.675-7.347,6.645-13.285,11.907l-8.26,7.468
		c0.892,0.087,1.395,0.117,1.507,0.091l26.959-2.208c0.719-0.061,1.178-0.259,1.377-0.597
		C269.413,91.581,269.37,91.114,269.127,90.491z M267.79,94.1c-2.788,1.299-9.861,4.532-21.221,9.701
		c-0.311,0.139-0.744,0.372-1.298,0.701l0.025,0.403l23.856,2.908c1.315,0.156,2.078,0.112,2.285-0.13
		c0.243-0.226,0.286-1.004,0.13-2.337c-0.623-4.372-1.048-7.662-1.272-9.87c-0.087-0.936-0.312-1.493-0.676-1.676
		C269.249,93.603,268.638,93.702,267.79,94.1z M234.558,45.415l-11.545,29.648c-0.155,0.397-0.411,1.212-0.767,2.44h0.442
		c11.15-9.609,19.526-16.804,25.128-21.583c0.485-0.398,0.697-0.766,0.637-1.104c-0.052-0.243-0.312-0.554-0.779-0.935
		c-6.018-5.42-9.472-8.511-10.363-9.272c-0.892-0.779-1.463-1.121-1.714-1.026C235.354,43.67,235.008,44.281,234.558,45.415z
		 M234.025,42.713c0.155-0.363-0.064-0.723-0.662-1.078l-13.117-7.688c-0.449-0.251-0.809-0.32-1.078-0.208
		c-0.242,0.112-0.432,0.446-0.57,1l-7.896,30.414l0.846,0.61c4.744-5.152,7.488-8.095,8.232-8.831
		c2.943-2.996,7.415-7.446,13.414-13.35C233.705,43.108,233.982,42.818,234.025,42.713z M181.768,18.39
		c6.754,0.979,10.277,1.489,10.571,1.533c31.315,5.151,55.171,20.743,71.567,46.777c7.671,12.138,11.662,25.219,11.974,39.244
		c0.407,17.782-5.346,34.124-17.259,49.023c-7.272,9.1-16.752,17.363-28.439,24.791c-0.606,0.355-1.109,0.545-1.507,0.572
		c-0.493,0.043-0.995-0.148-1.507-0.572c-0.762-0.623-1.752-1.381-2.974-2.271c-0.269-0.209-0.515-0.391-0.74-0.547
		c-2.095-1.219-3.276-1.801-3.546-1.74c-0.424,0.096-0.826,0.387-1.207,0.871c-0.822,0.986-1.926,2.225-3.312,3.715
		c-1.827,1.922-2.965,3.137-3.415,3.648c-0.512,0.563-0.766,1.086-0.766,1.57c-0.226,5.982,0.488,11.168,2.143,15.559
		c1.913,4.979,5.111,9.137,9.597,12.479c0.718,0.537,1.368,0.906,1.947,1.105c0.736,0.268,1.528,0.338,2.376,0.207
		c2.918-0.398,5.537,0.035,7.857,1.299c2.009,1.117,3.134,2.58,3.376,4.389c0.269,1.854-0.445,3.502-2.143,4.949
		c-1.688,1.496-3.917,2.848-6.688,4.051c-1.16,0.537-2.788,1.16-4.883,1.871c-2.364,0.83-4.013,1.432-4.948,1.805
		c-0.493,0.207-0.939,0.498-1.338,0.869c-0.449,0.406-0.773,0.832-0.973,1.273c-10.996,24.094-30.125,38.971-57.387,44.633
		c-1.74,0.365-3.836,0.732-6.285,1.104c-2.814,0.469-4.936,0.807-6.364,1.014h-3.142c-1.784-9.393-4.125-17.527-7.026-24.4
		c-0.58-1.42-1.485-2.455-2.714-3.104c-1.177-0.623-2.559-0.828-4.143-0.611c-3.437,0.424-11.155,1.463-23.154,3.117
		c-1.272,0.156-2.129,0.303-2.572,0.441c-1.653,0.555-3.216,0.555-4.688,0c-1.229-0.477-2.467-1.395-3.714-2.754
		c-2.251-2.432-2.796-4.994-1.636-7.688c0.58-1.68,1.182-3.207,1.805-4.584c0.598-1.41,0.017-2.359-1.74-2.844
		c-1.766-0.494-2.693-1.992-2.78-4.494c2.545-1.314,4.018-2.059,4.416-2.232c0.606-0.252,1.03-0.576,1.273-0.975
		c0.268-0.424,0.411-0.969,0.429-1.637c0.112-5.402-1.325-9.766-4.312-13.09c-0.597-0.641-1.255-1.25-1.974-1.83
		c-2.32-1.836-4.752-3.309-7.298-4.416c-2.563-1.143-3.563-2.449-3-3.922c0.441-1.178,0.908-2.727,1.402-4.648
		c0-0.043,0-0.078,0-0.104c0.044-1.16-0.112-1.996-0.467-2.508c-0.294-0.467-0.987-0.822-2.078-1.064
		c-0.381-0.096-0.714-0.172-1-0.234c-1.047-0.25-1.641-0.398-1.779-0.441c-1.982-0.752-3.333-1.99-4.052-3.713
		c-0.735-1.74-0.679-3.568,0.169-5.48c0.623-1.412,1.775-3.477,3.454-6.195c1.827-2.719,3.173-4.783,4.039-6.195
		c1.117-1.799,1.632-2.99,1.545-3.57c-0.069-0.605-0.853-1.645-2.351-3.117c-2.208-2.139-2.931-4.891-2.169-8.258
		c0.182-0.832,0.74-2.305,1.676-4.416c0.493-1.074,0.67-1.709,0.532-1.908c-0.087-0.182-0.745-0.33-1.974-0.443
		c-2.233-0.154-3.627-0.289-4.182-0.402c-2.744-0.596-4.182-1.998-4.312-4.207c-0.095-1.299,0.225-2.537,0.961-3.714
		c0.762-1.212,1.735-1.948,2.922-2.208c0.952-0.182,1.563-0.528,1.831-1.039c0.225-0.424,0.295-1.095,0.208-2.013
		c-0.381-4.017-0.896-10.039-1.545-18.063c-0.069-0.667-0.19-1.169-0.363-1.507c-0.251-0.424-0.676-0.68-1.272-0.767
		c-0.139-0.026-0.386-0.151-0.74-0.376c-1.004-0.667-1.684-1.213-2.04-1.637c-0.606-0.735-0.853-1.563-0.74-2.48
		c0.112-0.849,0.549-1.528,1.312-2.038c0.536-0.355,1.307-0.654,2.312-0.896c5.42-1.386,11.787-1.632,19.103-0.74
		c0.329,0.043,0.697,0.009,1.104-0.104c0.424-0.131,0.68-0.295,0.766-0.494c1.628-3.038,3.801-5.952,6.52-8.74
		c2.164-2.207,4.909-4.57,8.233-7.09c16.215-12.198,33.794-18.232,52.737-18.103c18.666,0.13,36.041,6.454,52.127,18.973
		c9.255,7.134,15.367,15.588,18.337,25.362c3.394,10.951,2.723,22.271-2.014,33.958c-0.354,0.893-0.073,1.797,0.845,2.715
		c3.922-8.389,5.896-16.688,5.922-24.895c0.018-13.099-4.692-24.644-14.129-34.635c-4.545-4.84-9.909-9.034-16.091-12.584
		c-5.419-3.099-11.666-5.817-18.739-8.155c-9.115-2.995-17.254-4.579-24.414-4.753c-14.544-0.354-29.224,3.135-44.036,10.468
		c-1.784,0.874-3.935,2.056-6.455,3.545c-2.813,1.68-4.922,2.917-6.324,3.714c-0.563,0.338-0.875,0.52-0.935,0.546
		c-0.337,0.061-0.675-0.13-1.013-0.571c-2.45-3.1-5.662-6.19-9.635-9.272c-1.671-1.246-5.338-3.788-11-7.623
		c-6.45-4.372-13.211-9.056-20.285-14.051c-1.316-0.917-2.009-1.653-2.078-2.208c-0.086-0.606,0.416-1.446,1.507-2.52
		c4.086-3.905,7.645-6.835,10.674-8.792c13.272-8.571,29.358-15.588,48.257-21.051c13.402-3.878,26.293-6.22,38.674-7.025
		c0.155-0.026,0.926-0.169,2.311-0.429H181.768z M196.248,27.624c0.043,2.961,0.091,11.813,0.143,26.558v5.895l0.559,0.13
		l3.221-4.013c7.541-9.523,13.193-16.674,16.96-21.453c0.554-0.71,0.845-1.108,0.87-1.195c0.156-0.45-0.178-0.818-1-1.104
		l-19.181-6.259c-0.642-0.225-1.073-0.19-1.298,0.104C196.339,26.485,196.248,26.931,196.248,27.624z M193.976,25.338l-12.44-1.74
		c-0.893-0.087-1.473-0.031-1.74,0.169c-0.364,0.294-0.477,0.931-0.338,1.908c0.598,4.303,1.891,14.454,3.883,30.453
		c0.018,0.113,0.16,0.567,0.429,1.364c0.424-0.511,0.692-0.9,0.805-1.169c4.996-13.913,8.497-23.605,10.507-29.076
		c0.225-0.641,0.246-1.108,0.064-1.403C194.971,25.576,194.582,25.407,193.976,25.338z M248.647,57.531
		c-4.484,8.293-7.853,14.518-10.104,18.674l-3.714,6.922c-0.043,0.086-0.064,0.454-0.064,1.104l0.869-0.429
		c12.441-5.108,20.762-8.511,24.96-10.207c0.667-0.251,1.014-0.563,1.039-0.936c0-0.268-0.182-0.662-0.545-1.182l-10.272-14.246
		c-0.441-0.624-0.831-0.892-1.169-0.805C249.379,56.496,249.046,56.865,248.647,57.531z M246.713,116.722l22.012,6.688
		c0.537,0.155,0.905,0.19,1.104,0.104c0.269-0.086,0.438-0.398,0.507-0.935l1.363-11.714c0.139-1.247-0.45-1.684-1.766-1.312
		l-23.129,6.636L246.713,116.722z M243.362,140.748c0.044,0.71,0.221,1.233,0.532,1.571l10.48,11.078
		c0.372,0.398,0.671,0.609,0.896,0.637c0.295,0.061,0.585-0.145,0.87-0.611l5.688-8.532c0.295-0.425,0.364-0.736,0.209-0.935
		c-0.113-0.156-0.416-0.269-0.909-0.338l-16.791-3.313C243.661,140.505,243.337,140.653,243.362,140.748z M246.076,129.696
		c0.087,0.183,0.173,0.316,0.26,0.402c7.1,5.559,12.285,9.563,15.558,12.013c0.139,0.112,0.407,0.134,0.806,0.065
		c0.407-0.087,0.641-0.187,0.701-0.299c0.892-2.052,3.056-7.104,6.493-15.155c-0.918-0.555-1.532-0.822-1.845-0.805
		c-4.727,0.623-11.809,1.627-21.245,3.013c-0.174,0.043-0.485,0.155-0.936,0.338C245.895,129.311,245.964,129.454,246.076,129.696z
		 M205.793,99.958c-6.008-4.84-13.684-8.476-23.025-10.908c8.857,3.281,16.004,7.242,21.441,11.882
		c6.449,5.463,11.012,12.207,13.688,20.233c5.289,16.111,3.307,31.837-5.947,47.179c4.64-4.615,7.839-11.451,9.596-20.506
		c1.922-9.636,1.464-18.613-1.376-26.933C217.251,112.316,212.459,105.333,205.793,99.958z M187.625,143.358
		c0.555-1.03,0.662-2.134,0.324-3.312c-0.666-2.347-2.471-3.774-5.414-4.285c-2.277-0.425-4.398,0.389-6.364,2.44
		c-0.753,0.823-1.065,1.603-0.935,2.338c0.139,0.779,0.719,1.394,1.74,1.844c0.511,0.242,1.217,0.477,2.116,0.702
		c1.628,0.449,2.45,0.675,2.468,0.675c-1.584,0.598-2.986,1.008-4.207,1.233c-1.412,0.242-2.762,0.264-4.053,0.065
		c-2.146-0.338-3.844-1.009-5.09-2.013c-1.247-0.979-1.982-2.226-2.207-3.741c-0.174-1.471,0.215-2.921,1.168-4.35
		c0.986-1.498,2.372-2.623,4.155-3.377c1.359-0.605,3.767-1.319,7.22-2.143c1.118-0.242,1.732-0.467,1.846-0.675
		c0.129-0.217-0.148-0.775-0.832-1.675c-1.367-1.732-2.385-2.992-3.052-3.78c-1.177-1.376-2.303-2.536-3.376-3.479
		c-12.268-10.701-25.661-16.319-40.18-16.856c11.73-1.896,22.791-0.813,33.18,3.247c9.618,3.748,18.864,10.138,27.738,19.167
		l-0.233-1.74c-1.697-8.363-6.203-15.354-13.519-20.973c-12.536-9.731-27.189-12.991-43.958-9.779
		c-6.563,1.229-12.943,3.494-19.142,6.793c-5.601,2.943-11.168,6.805-16.7,11.583c-1.247,1.065-1.848,1.745-1.805,2.039
		c0.069,0.269,0.909,0.68,2.52,1.233c1.203,0.425,2.017,0.736,2.441,0.936c4.485,1.835,8.991,4.358,13.519,7.571
		c3.541,2.519,7.519,5.809,11.935,9.869c2.32,2.121,5.779,5.299,10.375,9.532c4.018,3.662,7.532,6.753,10.545,9.272
		c6.424,5.281,13.238,7.533,20.44,6.754c0.243-0.018,0.589-0.063,1.039-0.131c0.398-0.043,0.731-0.135,1-0.273
		c0.139-0.061,0.286-0.225,0.441-0.492c0.155-0.313,0.277-0.545,0.364-0.701c-0.624-0.27-1.005-0.416-1.143-0.441
		c-0.693,0-1.217-0.014-1.572-0.039c-6.623-0.043-12.332-2.338-17.129-6.883c-3.523-3.308-5.744-7.034-6.662-11.182
		c0.251,0.199,0.801,0.87,1.649,2.013c4.32,6.044,10.151,9.61,17.493,10.701c7.315,1.092,13.816-0.627,19.505-5.155
		C186.365,144.999,187.148,144.154,187.625,143.358z M221.246,172.498c-0.381,0.736-0.58,1.238-0.598,1.508
		c0,0.061,0.031,0.146,0.092,0.26l3.221-4.586C222.705,170.572,221.801,171.512,221.246,172.498z M201.209,165.24
		c0.061-3.352-1.113-6.273-3.52-8.768c-2.45-2.475-5.359-3.738-8.727-3.791c-3.281-0.043-6.16,1.143-8.637,3.559
		c-2.458,2.381-3.709,5.232-3.753,8.559c-0.043,3.393,1.14,6.328,3.546,8.805c2.432,2.492,5.324,3.752,8.675,3.777
		c3.298,0.027,6.173-1.168,8.623-3.584C199.893,171.391,201.156,168.537,201.209,165.24z M200.638,177.953
		c-3.013,2.943-6.739,4.48-11.182,4.609c-5.394,0.184-10.043-1.857-13.947-6.115c-0.849-0.918-1.507-1.299-1.974-1.143
		c-1.203,0.336-2.053,0.684-2.546,1.037c-0.778,0.582-1.181,1.43-1.207,2.547c-0.018,0.424-0.104,0.936-0.26,1.531
		c-0.112,0.338-0.261,0.854-0.441,1.547c-0.398,1.514-0.499,2.428-0.299,2.738c0.198,0.295,1.069,0.654,2.61,1.078
		c3.41,0.893,7.068,1.523,10.973,1.896c3.394,0.338,7.299,0.508,11.714,0.508c5.489-0.27,8.723-0.439,9.7-0.508
		c0.398-0.043,0.811-0.143,1.234-0.299c0.45-0.199,0.685-0.385,0.701-0.559c0.363-2.84,0.434-5.018,0.208-6.531
		c-0.044-0.338-0.347-0.74-0.909-1.207l-1.363-1.17c-0.52-0.555-1.014-0.822-1.48-0.805
		C201.746,177.109,201.234,177.391,200.638,177.953z M197.494,194.082c2.252,0.018,4.121-0.018,5.611-0.104
		c1.766-0.113,2.705-0.26,2.817-0.441l0.065-2.871c0.025-0.691-0.117-1.15-0.43-1.375c-0.294-0.244-0.787-0.32-1.48-0.234
		c-11.307,1.455-22.994,1.455-35.063,0c-0.735-0.086-1.272-0.043-1.61,0.129c-0.441,0.209-0.718,0.654-0.831,1.338
		c-0.086,0.676,0.104,1.113,0.572,1.313c0.268,0.111,0.701,0.203,1.298,0.271c6.493,1.715,14.302,2.348,23.427,1.896
		C193.118,194.004,194.992,194.031,197.494,194.082z M203.975,195.914c-1.472,0.293-2.342,0.441-2.609,0.441
		c-12.112,0.111-19.904,0.133-23.376,0.064c-1.429-0.025-3.216-0.16-5.364-0.402c-2.362-0.287-4.146-0.498-5.35-0.637
		c-0.762-0.086-1.221-0.107-1.377-0.064c-0.441,0.111-0.74,0.48-0.896,1.104c-0.718,3.523-0.966,6.613-0.74,9.271
		c0.269,3.23,1.251,6.152,2.948,8.766c6.337,9.723,15.805,15.086,28.4,16.09c5.472,0.426,11.129-0.021,16.973-1.336
		c4.971-1.117,10.355-2.936,16.156-5.455c0.874-0.381,2-1.051,3.376-2.014c0.536-0.354,0.784-0.723,0.74-1.104
		c-0.069-0.328-0.415-0.541-1.039-0.637c-1.116-0.154-1.987-0.242-2.61-0.258c-0.961-0.045-1.809-0.021-2.545,0.064
		c-1.203,0.197-4.637,0.844-10.298,1.934c-4.217,0.807-7.675,1.355-10.376,1.65c-8.857,1.004-16.922-0.113-24.193-3.352
		c-0.485-0.199-1.178-0.566-2.078-1.104c-0.018,0-0.026-0.199-0.026-0.598c13.186,3.143,26.133,2.629,38.843-1.545
		c-0.07-0.225-0.113-0.346-0.131-0.363c-0.666-0.648-1.104-1.064-1.311-1.246c-4.391-3.904-7.512-8.789-9.364-14.65
		c-0.242-1.158-0.441-2.029-0.597-2.609c-0.226-1.004-0.55-1.641-0.975-1.908C205.732,195.73,205.006,195.697,203.975,195.914z
		 M220.779,174.33c0.268,0.363,0.892,0.936,1.87,1.715c0.424,0.197,0.892,0.432,1.402,0.701c1.144,0.605,2.091,1.143,2.844,1.609
		c0.624,0.398,1.194,0.584,1.714,0.559c0.512-0.043,1.044-0.285,1.598-0.727c1.697-1.412,5.857-4.758,12.48-10.039
		c0.536-0.449,0.805-0.783,0.805-1c0-0.338-0.333-0.641-1-0.908c-1.03-0.398-2.424-1.014-4.182-1.844
		c-0.069-0.018-0.126-0.039-0.169-0.066c-1.869-0.848-3.221-1.449-4.052-1.805c-0.936-0.398-1.545-0.477-1.831-0.234
		c-0.32,0.27-0.411,0.906-0.272,1.91l1.402,9.467c-1.134-1.092-1.961-1.896-2.48-2.416c-0.908-0.891-1.645-1.637-2.207-2.234
		c-0.555-0.605-1.021-0.973-1.402-1.104C226.762,167.689,224.588,169.828,220.779,174.33z M252.635,154.863
		c-5.758-1.16-9.874-1.975-12.351-2.441c-0.294-0.043-0.627-0.035-1,0.025c-0.363,0.096-0.61,0.244-0.74,0.441
		c-0.138,0.199-0.194,0.504-0.169,0.91c0,0.371,0.069,0.684,0.208,0.936c0.736,1.375,2.598,4.744,5.585,10.104
		c0.068,0.111,0.324,0.479,0.766,1.104c0.762-0.65,1.199-1.018,1.312-1.104c4.32-4.754,6.671-7.342,7.052-7.768
		c0.719-0.805,1.043-1.32,0.974-1.545C254.185,155.326,253.639,155.105,252.635,154.863z M153.926,24.208
		c-2.788,0.268-4.762,0.445-5.922,0.532c-0.849,0.069-1.364,0.303-1.546,0.701c-0.155,0.338-0.064,0.896,0.273,1.675
		c0.381,0.918,1.519,3.861,3.415,8.83l8.233,21.246l0.559-0.026l0.909-8.844c1.117-10.164,1.908-17.566,2.376-22.206
		c0.13-1.273,0.087-2.035-0.13-2.286c-0.225-0.199-0.986-0.251-2.285-0.156C158.389,23.762,156.428,23.94,153.926,24.208z
		 M144.627,25.572c-0.268-0.217-0.762-0.26-1.48-0.13c-5.108,1.117-9.9,2.078-14.376,2.883c-0.917,0.156-1.419,0.411-1.506,0.766
		c-0.095,0.312,0.091,0.827,0.559,1.546c1.783,2.718,6.012,9.272,12.687,19.661l5.156,8.038c0-0.199,0.008-2.138,0.026-5.817
		c0.025-2.165,0.017-3.939-0.026-5.325c-0.113-4.484-0.325-11.22-0.637-20.207C145.004,26.269,144.87,25.797,144.627,25.572z
		 M176.482,23.468c-4.908-0.018-8.592-0.061-11.051-0.13c-0.848-0.025-1.381,0.108-1.598,0.403
		c-0.251,0.312-0.299,0.878-0.143,1.701c0.83,4.458,1.848,10.034,3.053,16.727c0.666,3.731,1.679,9.376,3.038,16.934l0.468-0.663
		l7.661-33.53c0.155-0.649,0.057-1.061-0.299-1.234C177.439,23.538,177.063,23.468,176.482,23.468z M106.448,34.974
		c-0.268-0.043-0.671,0.048-1.208,0.273c-4.995,1.896-8.739,3.333-11.233,4.312c-1.03,0.407-1.567,0.731-1.61,0.974
		c-0.026,0.2,0.376,0.715,1.208,1.546c3.697,3.696,9.281,9.25,16.752,16.661c1.117,1.117,2.481,2.52,4.09,4.208l4.013,4.286l1-0.74
		l-12.142-30.648C107.119,35.315,106.829,35.026,106.448,34.974z M108.318,34.506c-0.018,0.226,0.216,0.606,0.701,1.143
		c6.943,7.653,11.796,13.073,14.558,16.259c1.229,1.402,2.701,3.199,4.415,5.389c0.961,1.203,2.403,3.008,4.325,5.415l0.493-0.091
		c-3.541-16.848-5.792-27.557-6.753-32.128c-0.112-0.692-0.381-1.083-0.805-1.168c-0.225-0.07-0.649-0.013-1.272,0.169
		l-14.584,4.311C108.703,33.987,108.344,34.22,108.318,34.506z M106.318,70.712c-7.723-14.926-12.675-24.484-14.856-28.674
		c-0.269-0.555-0.571-0.844-0.909-0.87c-0.199,0-0.567,0.121-1.104,0.364c-6.892,3.419-10.584,5.263-11.078,5.532
		c-2.294,1.316-4.112,2.342-5.454,3.078c5.515,2.744,11.272,6.099,17.272,10.064c4.329,2.874,9.735,6.722,16.22,11.544
		L106.318,70.712z M72.047,51.038c-0.329-0.043-0.706,0.112-1.13,0.468c-0.182,0.138-1.151,0.887-2.909,2.246
		c-1.16,0.909-2.087,1.688-2.779,2.337c-0.987,0.892-1.468,1.506-1.442,1.844s0.563,0.896,1.611,1.676
		c5.575,4.017,13.994,9.995,25.258,17.934c0.199,0.13,0.454,0.251,0.766,0.363c0.2,0.086,0.489,0.208,0.87,0.363l2.182-1
		c-0.155-0.285-0.281-0.506-0.376-0.662c-0.113-0.269-0.233-0.472-0.363-0.61L73.086,51.739
		C72.731,51.315,72.385,51.081,72.047,51.038z M83.098,121.839c-0.312,0.269-0.446,0.714-0.402,1.337
		c0.511,6.736,0.987,13.463,1.429,20.182c0.026,0.554,0.195,0.965,0.506,1.233c0.226,0.242,0.628,0.454,1.208,0.636
		c1.515,0.425,3.788,1.039,6.818,1.845c2.64,0.753,4.883,1.498,6.727,2.233c3.419,1.341,8.151,3.294,14.194,5.857
		c6.623,2.814,11.341,4.787,14.155,5.922c1.428,0.58,3.233,1.182,5.415,1.805c1.204,0.363,3.035,0.9,5.493,1.611l0.26-0.598
		c-5.662-6.875-11.74-12.879-18.233-18.012c-10.328-8.138-20.903-13.402-31.726-15.792c1.212-0.424,2.597-0.566,4.156-0.428
		c0.58,0.043,1.931,0.255,4.052,0.636c6.866,1.247,13.679,4.1,20.44,8.558c2.97,1.923,6.549,4.377,10.74,7.363
		c2.364,1.697,5.887,4.229,10.571,7.597c0.338,0.227,0.853,0.529,1.546,0.91c-0.892-1.611-2.243-3.387-4.052-5.325
		c-4.978-5.351-9.796-9.866-14.454-13.545c-5.489-4.329-11.111-7.801-16.869-10.415c-7.177-3.272-14.055-4.589-20.635-3.948
		C83.76,121.597,83.315,121.709,83.098,121.839z M96.371,116.827c-6.598-2.415-13.51-2.952-20.739-1.61
		c-0.182,0.043-0.416,0.155-0.701,0.338c-0.156,0.104-0.381,0.26-0.676,0.467c0.069,0,0.351,0.057,0.844,0.169
		c0.329,0.087,0.597,0.108,0.805,0.065c4.952-1.03,9.814-1.178,14.584-0.441C91.094,115.882,93.054,116.22,96.371,116.827z
		 M74.254,149.006c0.182,0.069,0.441,0.182,0.779,0.338c0.286,0.13,0.542,0.208,0.767,0.233c0.112,0.018,2.151,0.251,6.116,0.702
		c2.459,0.267,4.502,0.544,6.129,0.832c1.204,0.182,2.663,0.496,4.376,0.947c1.004,0.217,2.481,0.572,4.428,1.064
		c-6.631-2.674-13.67-4.225-21.116-4.649c-0.199-0.026-0.446,0.039-0.74,0.195C74.683,148.825,74.437,148.937,74.254,149.006z
		 M90.76,156.771l-5.766-1.506l-0.766-0.104c-0.199,0.025-0.355,0.047-0.468,0.064c-0.268,0.043-0.424,0.121-0.467,0.234
		c-0.936,1.896-1.905,4.018-2.91,6.363c0.494,0.398,0.806,0.566,0.936,0.506c2.39-0.943,3.982-1.658,4.779-2.143
		c0.692-0.406,1.484-0.957,2.376-1.648C89.479,157.742,90.241,157.152,90.76,156.771z M75.359,192.264
		c0.251,1.074,0.878,1.943,1.883,2.611c0.13,0.094,0.32,0.172,0.571,0.232c0.13,0.027,0.338,0.061,0.624,0.105
		c0.225-1.117,0.883-1.861,1.974-2.234c0.632-0.209,1.606-0.445,2.922-0.715c1.091-0.371,1.914-0.424,2.468-0.156
		c0.519,0.287,0.991,1.01,1.415,2.17c0.243,0.623,0.542,0.982,0.896,1.078c0.312,0.086,0.749-0.006,1.312-0.273
		c1.957-1.004,3.035-2.256,3.233-3.754c0.182-1.488-0.576-2.926-2.273-4.311l-0.96-0.805c1.74,0.311,3.078,0.848,4.013,1.609
		c4.372,3.594,8.142,8.156,11.311,13.688c2.381,4.234,4.745,9.709,7.091,16.428c1.428-2.32,2.264-4.631,2.506-6.934
		c0.295-2.32-0.03-4.381-0.974-6.182c-0.667-1.342-0.957-2.203-0.87-2.584c0.095-0.381,0.753-1.049,1.974-2
		c2.277-1.74,3.987-3.057,5.129-3.949c1.939-1.523,3.576-2.895,4.909-4.115c3.281-2.9,5.389-5.971,6.324-9.207
		c0.468-1.646,0.524-3.416,0.169-5.313c-0.243-1.229-0.788-2.939-1.636-5.129c-0.468-1.135-1.247-2.014-2.337-2.637
		c-0.052,0-1.104-0.445-3.156-1.338c-2.38-1.004-4.086-1.684-5.116-2.039c-0.736-0.311-1.294-0.523-1.676-0.637
		c-0.692-0.182-1.35-0.104-1.974,0.234c-0.129,0.088-0.528-0.182-1.195-0.805c-0.805-0.736-1.385-1.182-1.74-1.338
		c-1.316-0.605-2.857-0.875-4.624-0.805c-0.58,0.043-2.143,0.264-4.688,0.662c-0.086,0.025-0.186,0.074-0.299,0.143
		c-0.069,0.061-0.168,0.146-0.298,0.26c0.025,0.025,0.138,0.131,0.337,0.311c0.156,0.105,0.291,0.17,0.402,0.195
		c1.377,0.398,3.473,0.979,6.286,1.74c0.311,0.07,0.723,0.359,1.233,0.871c-0.156,0.068-0.398,0.211-0.727,0.428
		c-0.294,0.164-0.541,0.256-0.74,0.273c-2.251,0.111-4.437,0.736-6.558,1.869c-1.671,0.918-3.476,2.27-5.416,4.053l-4.753,4.557
		c-1.03,1.023-1.97,0.967-2.818-0.168c-0.242-0.338-0.667-0.84-1.272-1.506c-0.555-0.676-0.953-1.191-1.195-1.545
		c-0.494-0.754-0.917-1.156-1.272-1.209c-0.407-0.061-0.845,0.334-1.312,1.182c-0.329,0.623-0.831,1.402-1.506,2.338
		c-0.823,1.135-1.346,1.893-1.571,2.273c-2.874,4.57-4.692,7.563-5.455,8.973C75.289,190.039,75.099,191.174,75.359,192.264z
		 M91.396,198.057c-0.069-0.018-0.138-0.027-0.208-0.027c-0.806-0.111-1.554-0.111-2.247,0c-0.891,0.156-1.671,0.512-2.337,1.066
		c-1.246,1.004-1.848,2.441-1.805,4.311l0.195,2.352c0.069,0.354,0.174,0.699,0.312,1.037c0.243,0.824,0.788,1.525,1.636,2.105
		c0.822,0.605,1.593,0.805,2.312,0.598c1.801-0.486,3.697-0.551,5.688-0.195c0.399,0.043,0.81,0.121,1.234,0.232
		c1.428,0.355,3.58,1.17,6.454,2.441c1.922,0.85,2.827,2.299,2.714,4.352c-0.113,2.432-0.425,4.441-0.936,6.025
		c-0.667,2.094-1.749,3.834-3.246,5.221c-0.399,0.371-0.624,0.615-0.675,0.727c-0.044,0.182-0.074,0.406-0.091,0.676
		c0,0.129,0,0.352,0,0.662c0.597-0.018,0.974-0.104,1.13-0.26c3.012-2.744,5.51-5.078,7.492-7c0.156-0.174,0.282-0.463,0.377-0.869
		c0.061-0.398,0.048-0.719-0.039-0.961c-1.584-4.174-2.688-6.939-3.311-8.299c-1.342-3.039-2.836-5.619-4.48-7.74
		c-1.922-2.477-4.13-4.268-6.624-5.377C93.825,198.641,92.643,198.281,91.396,198.057z M135.797,173.227
		c-0.269,0.111-0.281,0.563-0.04,1.35c1.983,6.641,0.39,12.775-4.778,18.402c-1.299,1.42-2.918,2.969-4.857,4.648l-5.117,4.352
		c-0.581,0.484-0.97,0.939-1.168,1.363c-0.269,0.492-0.381,1.121-0.338,1.883c0.269,2.943,0.19,5.549-0.234,7.816
		c-0.718,3.689-2.169,7.139-4.351,10.352c-1.922,2.805-4.476,5.559-7.662,8.26l-2.675,2.246c0.866,0.061,2.056,0.139,3.571,0.234
		c1.229,0.086,2.247,0.115,3.052,0.09c7.783-0.268,15.198-2.887,22.245-7.855c13.454-9.551,22.878-22.602,28.271-39.154
		c0.363-1.066,0.7-2.369,1.013-3.91c0.313-1.783,0.554-3.121,0.727-4.012c0.044-0.199,0.035-0.447-0.025-0.74
		c-0.096-0.27-0.195-0.438-0.299-0.506c-0.875-0.441-1.792-0.416-2.753,0.076c-0.961,0.469-1.55,1.17-1.767,2.105
		c-2.545,11.418-7.467,21.691-14.765,30.816c-5.394,6.822-11.501,11.506-18.324,14.051c-0.987,0.354-2.225,0.723-3.714,1.104
		c-1.68,0.381-2.944,0.684-3.792,0.908l-0.156-0.609c2.917-2.121,5-4.654,6.247-7.598c1.229-2.9,1.576-6.09,1.039-9.57
		c-0.285-1.939-0.229-3.377,0.168-4.311c0.468-1.092,1.55-2.096,3.248-3.014c7.783-4.189,12.098-11.563,12.947-22.115
		c0.199-2.547,0.113-4.096-0.26-4.65c-0.407-0.553-1.805-1.168-4.194-1.844C136.39,173.223,135.97,173.166,135.797,173.227z
		 M166.678,166.369c-1.271,0.025-2.354-0.004-3.246-0.09c-2.234-0.156-4.489-0.504-6.766-1.039c-1.117-0.27-2.221-0.85-3.312-1.74
		c-0.892-0.764-1.918-1.234-3.078-1.416c-1.178-0.199-2.282-0.064-3.312,0.402c-1.697,0.805-2.588,2-2.675,3.584
		c-0.043,0.918,0.113,1.711,0.468,2.377c0.381,0.736,0.948,1.225,1.701,1.467c0.944,0.313,1.559,0.814,1.845,1.508
		c0.199,0.449,0.29,1.176,0.272,2.182c0,0.648,0.035,1.617,0.104,2.908c-0.025,6.129-0.974,11.619-2.843,16.467
		c-2.009,5.264-5.169,9.848-9.48,13.752c-0.086,0.086-0.173,0.33-0.26,0.727c1.914-1.289,3.753-2.951,5.519-4.986
		c1.741-1.982,3.225-4.111,4.455-6.389c3.637-6.752,5.385-14.613,5.246-23.584c-0.025-2.164,1.057-3.324,3.248-3.48
		c0.337-0.025,0.861-0.047,1.57-0.064c0.719,0,1.243-0.021,1.572-0.064c3.194-0.32,5.259-0.545,6.194-0.676
		c2.319-0.398,4.329-1.035,6.025-1.908C168.471,166.33,167.389,166.352,166.678,166.369z M150.614,217.73
		c-1.896,2.207-3.559,4.004-4.987,5.389c-6.269,6.139-12.917,10.611-19.947,13.416c-0.26,0.086-0.502,0.242-0.728,0.467
		c-0.269,0.225-0.416,0.416-0.441,0.57c-0.13,2.391,0.294,4.152,1.272,5.287c0.987,1.143,2.705,1.813,5.156,2.012
		c1.316,0.113,2.598-0.021,3.844-0.402c4.753-1.299,8.857-4.199,12.311-8.701c3.437-4.51,5.177-9.25,5.221-14.219
		c-0.061-1.516-0.147-2.654-0.261-3.416C151.899,216.973,151.42,216.838,150.614,217.73z M154.328,237.535
		c-0.692,5.133-1.628,9.766-2.805,13.895c-1.386,4.77-3.182,9.129-5.39,13.078c-0.199,0.381-0.325,0.848-0.376,1.402
		c-0.017,0.535,0.052,1.016,0.208,1.439c0.381,1.049,0.996,2.555,1.844,4.521c0.84,2.025,1.45,3.51,1.831,4.453
		c0.225,0.555,0.493,0.922,0.805,1.104c0.312,0.174,0.758,0.174,1.338,0c6.406-1.654,11.981-3.563,16.726-5.727
		c5.688-2.588,10.675-5.734,14.961-9.441c7.722-6.623,12.185-14.605,13.39-23.947c0.086-0.959,0.008-1.609-0.234-1.947
		c-0.295-0.381-0.943-0.594-1.949-0.637c-6.44-0.441-12.271-2.133-17.492-5.078c-1.073-0.621-2.402-1.471-3.986-2.545
		c-2.605-1.723-4-2.648-4.182-2.777l9.129,28.01l-0.532,0.326l-22.012-31.584c-0.138,1.811-0.329,4.441-0.571,7.896
		C154.83,233.016,154.598,235.535,154.328,237.535z M97.617,212.951c0.129-0.225,0.229-0.381,0.298-0.467
		c-0.892-0.451-1.563-0.775-2.013-0.975c-0.329-0.068-0.649-0.139-0.961-0.207l-1.506,0.506c0.173,0.199,0.394,0.51,0.662,0.936
		c0.294,0.354,0.554,0.58,0.779,0.674c0.017,0,0.039,0.01,0.064,0.027c0.286,0.096,0.654,0.107,1.104,0.039
		c0.112-0.027,0.523-0.117,1.233-0.273C97.366,213.193,97.479,213.107,97.617,212.951z M101.565,220.211
		c-0.199,0.199-0.58,0.467-1.143,0.805c-0.424,0.285-0.623,0.52-0.597,0.701c0.018,0.398,0.151,0.887,0.402,1.467
		c0.156,0.338,0.39,0.828,0.702,1.469l2.48-3.313L101.565,220.211z M101.163,239.145c-0.606,0.451-1.143,1.1-1.611,1.947
		c-1.203,2.184-2.181,4.412-2.935,6.689c-0.606,1.826-0.095,3.602,1.533,5.324c1.584,1.713,3.337,2.393,5.259,2.039
		c0.892-0.156,2.216-0.438,3.974-0.846c1.584-0.354,2.913-0.566,3.986-0.635c2.165-0.113,3.983-0.828,5.455-2.145
		c1.247-1.09,2.329-2.684,3.247-4.777c0.398-0.918,0.766-2.113,1.104-3.586c0.372-1.645,0.662-2.881,0.87-3.713
		c0.312-1.273-0.204-1.719-1.546-1.338c-2.813,0.762-5.588,1.199-8.324,1.313c-2.926,0.129-5.904-0.096-8.935-0.676
		C102.547,238.543,101.855,238.678,101.163,239.145z"/>
	<path fill-rule="evenodd" clip-rule="evenodd" fill="#FF9900" d="M101.163,239.145c0.692-0.467,1.385-0.602,2.078-0.402
		c3.03,0.58,6.008,0.805,8.935,0.676c2.736-0.113,5.51-0.551,8.324-1.313c1.342-0.381,1.857,0.064,1.546,1.338
		c-0.208,0.832-0.499,2.068-0.87,3.713c-0.338,1.473-0.706,2.668-1.104,3.586c-0.917,2.094-2,3.688-3.247,4.777
		c-1.472,1.316-3.29,2.031-5.455,2.145c-1.073,0.068-2.402,0.281-3.986,0.635c-1.757,0.408-3.082,0.689-3.974,0.846
		c-1.922,0.354-3.675-0.326-5.259-2.039c-1.628-1.723-2.139-3.498-1.533-5.324c0.753-2.277,1.731-4.506,2.935-6.689
		C100.02,240.244,100.557,239.596,101.163,239.145z M154.328,237.535c0.27-2,0.502-4.52,0.701-7.559
		c0.242-3.455,0.434-6.086,0.571-7.896l22.012,31.584l0.532-0.326l-9.129-28.01c0.182,0.129,1.576,1.055,4.182,2.777
		c1.584,1.074,2.913,1.924,3.986,2.545c5.221,2.945,11.052,4.637,17.492,5.078c1.006,0.043,1.654,0.256,1.949,0.637
		c0.242,0.338,0.32,0.988,0.234,1.947c-1.205,9.342-5.668,17.324-13.39,23.947c-4.286,3.707-9.272,6.854-14.961,9.441
		c-4.744,2.164-10.319,4.072-16.726,5.727c-0.58,0.174-1.026,0.174-1.338,0c-0.312-0.182-0.58-0.549-0.805-1.104
		c-0.381-0.943-0.991-2.428-1.831-4.453c-0.849-1.967-1.463-3.473-1.844-4.521c-0.156-0.424-0.225-0.904-0.208-1.439
		c0.052-0.555,0.177-1.021,0.376-1.402c2.208-3.949,4.004-8.309,5.39-13.078C152.7,247.301,153.636,242.668,154.328,237.535z
		 M150.614,217.73c0.806-0.893,1.285-0.758,1.44,0.402c0.113,0.762,0.2,1.9,0.261,3.416c-0.044,4.969-1.784,9.709-5.221,14.219
		c-3.454,4.502-7.558,7.402-12.311,8.701c-1.246,0.381-2.528,0.516-3.844,0.402c-2.451-0.199-4.168-0.869-5.156-2.012
		c-0.979-1.135-1.402-2.896-1.272-5.287c0.026-0.154,0.173-0.346,0.441-0.57c0.225-0.225,0.468-0.381,0.728-0.467
		c7.03-2.805,13.678-7.277,19.947-13.416C147.056,221.734,148.718,219.938,150.614,217.73z M86.604,199.096
		c1.247-1.021,2.844-1.369,4.792-1.039c4.008,0.719,7.398,2.869,10.168,6.453c1.645,2.121,3.138,4.701,4.48,7.74
		c0.624,1.359,1.727,4.125,3.311,8.299c0.087,0.242,0.1,0.563,0.039,0.961c-0.095,0.406-0.221,0.695-0.377,0.869
		c-1.982,1.922-4.48,4.256-7.492,7c-0.157,0.156-0.533,0.242-1.13,0.26c0-0.311,0-0.533,0-0.662c0.018-0.27,0.047-0.494,0.091-0.676
		c0.051-0.111,0.276-0.355,0.675-0.727c1.497-1.387,2.58-3.127,3.246-5.221c0.511-1.584,0.823-3.594,0.936-6.025
		c0.112-2.053-0.792-3.502-2.714-4.352c-2.875-1.271-5.026-2.086-6.454-2.441c-2.45-0.605-4.757-0.619-6.922-0.037
		c-0.45,0.137-0.922,0.107-1.416-0.092c-0.286-0.113-0.584-0.281-0.896-0.506c-0.849-0.58-1.394-1.281-1.636-2.105
		c-0.138-0.338-0.243-0.684-0.312-1.037l-0.195-2.352c-0.025-0.484,0.009-0.939,0.104-1.363
		C85.128,200.813,85.695,199.83,86.604,199.096z M75.359,192.264c-0.26-1.09-0.07-2.225,0.571-3.402
		c0.762-1.41,2.581-4.402,5.455-8.973c0.225-0.381,0.749-1.139,1.571-2.273c0.675-0.936,1.177-1.715,1.506-2.338
		c0.467-0.848,0.905-1.242,1.312-1.182c0.354,0.053,0.778,0.455,1.272,1.209c0.243,0.354,0.641,0.869,1.195,1.545
		c0.605,0.666,1.03,1.168,1.272,1.506c0.849,1.135,1.788,1.191,2.818,0.168l4.753-4.557c1.939-1.783,3.745-3.135,5.416-4.053
		c2.121-1.133,4.307-1.758,6.558-1.869c0.199-0.018,0.446-0.109,0.74-0.273c0.329-0.217,0.571-0.359,0.727-0.428
		c-0.511-0.512-0.922-0.801-1.233-0.871c-2.813-0.762-4.909-1.342-6.286-1.74c-0.112-0.025-0.246-0.09-0.402-0.195
		c-0.199-0.18-0.312-0.285-0.337-0.311c0.13-0.113,0.229-0.199,0.298-0.26c0.113-0.068,0.212-0.117,0.299-0.143
		c2.545-0.398,4.108-0.619,4.688-0.662c1.766-0.07,3.307,0.199,4.624,0.805c0.354,0.156,0.935,0.602,1.74,1.338
		c0.667,0.623,1.065,0.893,1.195,0.805c0.624-0.338,1.282-0.416,1.974-0.234c0.381,0.113,0.94,0.326,1.676,0.637
		c1.03,0.355,2.736,1.035,5.116,2.039c2.052,0.893,3.104,1.338,3.156,1.338c1.09,0.623,1.87,1.502,2.337,2.637
		c0.849,2.189,1.394,3.9,1.636,5.129c0.355,1.896,0.299,3.666-0.169,5.313c-0.935,3.236-3.043,6.307-6.324,9.207
		c-1.333,1.221-2.97,2.592-4.909,4.115c-1.143,0.893-2.852,2.209-5.129,3.949c-1.22,0.951-1.878,1.619-1.974,2
		c-0.087,0.381,0.204,1.242,0.87,2.584c0.943,1.801,1.269,3.861,0.974,6.182c-0.243,2.303-1.078,4.613-2.506,6.934
		c-2.346-6.719-4.709-12.193-7.091-16.428c-3.168-5.531-6.938-10.094-11.311-13.688c-0.935-0.762-2.273-1.299-4.013-1.609
		l0.96,0.805c1.697,1.385,2.455,2.822,2.273,4.311c-0.199,1.498-1.277,2.75-3.233,3.754c-0.563,0.268-1,0.359-1.312,0.273
		c-0.355-0.096-0.654-0.455-0.896-1.078c-0.424-1.16-0.896-1.883-1.415-2.17c-0.554-0.268-1.377-0.215-2.468,0.156
		c-1.316,0.27-2.29,0.506-2.922,0.715c-1.091,0.373-1.749,1.117-1.974,2.234c-0.286-0.045-0.494-0.078-0.624-0.105
		c-0.251-0.061-0.441-0.139-0.571-0.232C76.237,194.207,75.61,193.338,75.359,192.264z M90.76,156.771
		c-0.52,0.381-1.281,0.971-2.286,1.768c-0.892,0.691-1.684,1.242-2.376,1.648c-0.797,0.484-2.39,1.199-4.779,2.143
		c-0.13,0.061-0.442-0.107-0.936-0.506c1.004-2.346,1.974-4.467,2.91-6.363c0.043-0.113,0.199-0.191,0.467-0.234
		c0.113-0.018,0.269-0.039,0.468-0.064l0.766,0.104L90.76,156.771z"/>
	<path fill-rule="evenodd" clip-rule="evenodd" fill="#232817" d="M166.678,166.369c0.711-0.018,1.793-0.039,3.247-0.064
		c-1.696,0.873-3.706,1.51-6.025,1.908c-0.936,0.131-3,0.355-6.194,0.676c-0.329,0.043-0.854,0.064-1.572,0.064
		c-0.709,0.018-1.233,0.039-1.57,0.064c-2.191,0.156-3.273,1.316-3.248,3.48c0.14,8.971-1.609,16.832-5.246,23.584
		c-1.229,2.277-2.714,4.406-4.455,6.389c-1.766,2.035-3.605,3.697-5.519,4.986c0.087-0.396,0.174-0.641,0.26-0.727
		c4.312-3.904,7.472-8.488,9.48-13.752c1.87-4.848,2.818-10.338,2.843-16.467c-0.069-1.291-0.104-2.26-0.104-2.908
		c0.018-1.006-0.074-1.732-0.272-2.182c-0.286-0.693-0.901-1.195-1.845-1.508c-0.752-0.242-1.32-0.73-1.701-1.467
		c-0.355-0.666-0.511-1.459-0.468-2.377c0.087-1.584,0.979-2.779,2.675-3.584c1.03-0.467,2.134-0.602,3.312-0.402
		c1.16,0.182,2.186,0.652,3.078,1.416c1.091,0.891,2.194,1.471,3.312,1.74c2.276,0.535,4.531,0.883,6.766,1.039
		C164.323,166.365,165.406,166.395,166.678,166.369z M135.757,174.576c-0.242-0.787-0.229-1.238,0.04-1.35
		c0.173-0.061,0.593-0.004,1.26,0.168c2.389,0.676,3.788,1.291,4.194,1.844c0.373,0.555,0.459,2.104,0.26,4.65
		c-0.849,10.553-5.164,17.926-12.947,22.115c-1.697,0.918-2.78,1.922-3.248,3.014c-0.398,0.934-0.454,2.371-0.168,4.311
		c0.537,3.48,0.19,6.67-1.039,9.57c-1.247,2.943-3.329,5.477-6.247,7.598l0.156,0.609c0.848-0.225,2.112-0.527,3.792-0.908
		c1.489-0.381,2.727-0.75,3.714-1.104c6.822-2.545,12.93-7.229,18.324-14.051c7.298-9.125,12.22-19.398,14.765-30.816
		c0.217-0.936,0.806-1.637,1.767-2.105c0.961-0.492,1.878-0.518,2.753-0.076c0.104,0.068,0.203,0.236,0.299,0.506
		c0.061,0.293,0.069,0.541,0.025,0.74c-0.173,0.891-0.414,2.229-0.727,4.012c-0.313,1.541-0.649,2.844-1.013,3.91
		c-5.394,16.553-14.817,29.604-28.271,39.154c-7.047,4.969-14.462,7.588-22.245,7.855c-0.806,0.025-1.823-0.004-3.052-0.09
		c-1.515-0.096-2.706-0.174-3.571-0.234l2.675-2.246c3.186-2.701,5.74-5.455,7.662-8.26c2.182-3.213,3.632-6.662,4.351-10.352
		c0.424-2.268,0.502-4.873,0.234-7.816c-0.043-0.762,0.069-1.391,0.338-1.883c0.199-0.424,0.588-0.879,1.168-1.363l5.117-4.352
		c1.939-1.68,3.558-3.229,4.857-4.648C136.147,187.352,137.74,181.217,135.757,174.576z M74.254,149.006
		c0.182-0.069,0.429-0.182,0.741-0.337c0.294-0.156,0.541-0.222,0.74-0.195c7.446,0.424,14.484,1.975,21.116,4.649
		c-1.947-0.492-3.424-0.848-4.428-1.064c-1.714-0.451-3.173-0.766-4.376-0.947c-1.627-0.287-3.67-0.564-6.129-0.832
		c-3.965-0.451-6.004-0.685-6.116-0.702c-0.225-0.025-0.48-0.104-0.767-0.233C74.696,149.188,74.437,149.076,74.254,149.006z
		 M96.371,116.827c-3.316-0.606-5.277-0.944-5.883-1.013c-4.77-0.736-9.632-0.589-14.584,0.441
		c-0.208,0.043-0.476,0.021-0.805-0.065c-0.493-0.112-0.775-0.169-0.844-0.169c0.295-0.207,0.52-0.363,0.676-0.467
		c0.286-0.183,0.519-0.295,0.701-0.338C82.86,113.875,89.773,114.412,96.371,116.827z M83.098,121.839
		c0.217-0.13,0.662-0.242,1.338-0.338c6.58-0.641,13.458,0.676,20.635,3.948c5.758,2.614,11.38,6.086,16.869,10.415
		c4.658,3.679,9.476,8.194,14.454,13.545c1.809,1.938,3.16,3.713,4.052,5.325c-0.693-0.381-1.208-0.684-1.546-0.91
		c-4.684-3.368-8.207-5.9-10.571-7.597c-4.19-2.986-7.77-5.44-10.74-7.363c-6.761-4.458-13.575-7.311-20.44-8.558
		c-2.121-0.381-3.472-0.593-4.052-0.636c-1.559-0.139-2.943,0.004-4.156,0.428c10.822,2.39,21.397,7.654,31.726,15.792
		c6.493,5.133,12.571,11.137,18.233,18.012l-0.26,0.598c-2.458-0.711-4.29-1.248-5.493-1.611c-2.182-0.623-3.987-1.225-5.415-1.805
		c-2.814-1.135-7.532-3.107-14.155-5.922c-6.043-2.563-10.775-4.516-14.194-5.857c-1.844-0.735-4.087-1.48-6.727-2.233
		c-3.03-0.806-5.303-1.42-6.818-1.845c-0.58-0.182-0.982-0.394-1.208-0.636c-0.311-0.269-0.48-0.68-0.506-1.233
		c-0.442-6.719-0.918-13.445-1.429-20.182C82.652,122.553,82.787,122.108,83.098,121.839z M203.975,195.914
		c1.031-0.217,1.758-0.184,2.182,0.104c0.425,0.268,0.749,0.904,0.975,1.908c0.155,0.58,0.354,1.451,0.597,2.609
		c1.853,5.861,4.974,10.746,9.364,14.65c0.207,0.182,0.645,0.598,1.311,1.246c0.018,0.018,0.061,0.139,0.131,0.363
		c-12.71,4.174-25.657,4.688-38.843,1.545c0,0.398,0.009,0.598,0.026,0.598c0.9,0.537,1.593,0.904,2.078,1.104
		c7.271,3.238,15.336,4.355,24.193,3.352c2.701-0.295,6.159-0.844,10.376-1.65c5.661-1.09,9.095-1.736,10.298-1.934
		c0.736-0.086,1.584-0.109,2.545-0.064c0.623,0.016,1.494,0.104,2.61,0.258c0.624,0.096,0.97,0.309,1.039,0.637
		c0.044,0.381-0.204,0.75-0.74,1.104c-1.376,0.963-2.502,1.633-3.376,2.014c-5.801,2.52-11.186,4.338-16.156,5.455
		c-5.844,1.314-11.501,1.762-16.973,1.336c-12.596-1.004-22.063-6.367-28.4-16.09c-1.697-2.613-2.68-5.535-2.948-8.766
		c-0.226-2.658,0.022-5.748,0.74-9.271c0.155-0.623,0.454-0.992,0.896-1.104c0.156-0.043,0.615-0.021,1.377,0.064
		c1.203,0.139,2.987,0.35,5.35,0.637c2.148,0.242,3.936,0.377,5.364,0.402c3.472,0.068,11.264,0.047,23.376-0.064
		C201.633,196.355,202.503,196.207,203.975,195.914z M197.494,194.082c-2.502-0.051-4.376-0.078-5.623-0.078
		c-9.125,0.451-16.934-0.182-23.427-1.896c-0.597-0.068-1.03-0.16-1.298-0.271c-0.469-0.199-0.658-0.637-0.572-1.313
		c0.113-0.684,0.39-1.129,0.831-1.338c0.338-0.172,0.875-0.215,1.61-0.129c12.068,1.455,23.756,1.455,35.063,0
		c0.693-0.086,1.187-0.01,1.48,0.234c0.313,0.225,0.455,0.684,0.43,1.375l-0.065,2.871c-0.112,0.182-1.052,0.328-2.817,0.441
		C201.615,194.064,199.746,194.1,197.494,194.082z M200.638,177.953c0.597-0.563,1.108-0.844,1.532-0.844
		c0.467-0.018,0.961,0.25,1.48,0.805l1.363,1.17c0.563,0.467,0.865,0.869,0.909,1.207c0.226,1.514,0.155,3.691-0.208,6.531
		c-0.017,0.174-0.251,0.359-0.701,0.559c-0.424,0.156-0.836,0.256-1.234,0.299c-0.978,0.068-4.211,0.238-9.7,0.508
		c-4.415,0-8.32-0.17-11.714-0.508c-3.904-0.373-7.563-1.004-10.973-1.896c-1.541-0.424-2.412-0.783-2.61-1.078
		c-0.2-0.311-0.1-1.225,0.299-2.738c0.181-0.693,0.329-1.209,0.441-1.547c0.155-0.596,0.242-1.107,0.26-1.531
		c0.026-1.117,0.429-1.965,1.207-2.547c0.493-0.354,1.343-0.701,2.546-1.037c0.467-0.156,1.125,0.225,1.974,1.143
		c3.904,4.258,8.554,6.299,13.947,6.115C193.898,182.434,197.625,180.896,200.638,177.953z M201.209,165.24
		c-0.053,3.297-1.316,6.15-3.792,8.557c-2.45,2.416-5.325,3.611-8.623,3.584c-3.351-0.025-6.243-1.285-8.675-3.777
		c-2.406-2.477-3.589-5.412-3.546-8.805c0.044-3.326,1.295-6.178,3.753-8.559c2.477-2.416,5.355-3.602,8.637-3.559
		c3.367,0.053,6.276,1.316,8.727,3.791C200.096,158.967,201.27,161.889,201.209,165.24z M187.625,143.358
		c-0.477,0.796-1.26,1.641-2.351,2.532c-5.688,4.527-12.189,6.247-19.505,5.155c-7.342-1.09-13.173-4.657-17.493-10.701
		c-0.848-1.143-1.398-1.813-1.649-2.013c0.918,4.147,3.139,7.874,6.662,11.182c4.797,4.545,10.506,6.84,17.129,6.883
		c0.355,0.025,0.879,0.039,1.572,0.039c0.138,0.025,0.519,0.172,1.143,0.441c-0.087,0.156-0.209,0.389-0.364,0.701
		c-0.155,0.268-0.303,0.432-0.441,0.492c-0.269,0.139-0.602,0.23-1,0.273c-0.45,0.068-0.796,0.113-1.039,0.131
		c-7.202,0.779-14.017-1.473-20.44-6.754c-3.013-2.519-6.527-5.61-10.545-9.272c-4.597-4.233-8.056-7.411-10.375-9.532
		c-4.416-4.061-8.394-7.351-11.935-9.869c-4.528-3.213-9.034-5.736-13.519-7.571c-0.424-0.199-1.238-0.511-2.441-0.936
		c-1.61-0.554-2.451-0.965-2.52-1.233c-0.043-0.294,0.558-0.974,1.805-2.039c5.532-4.778,11.099-8.64,16.7-11.583
		c6.199-3.299,12.58-5.563,19.142-6.793c16.769-3.212,31.422,0.048,43.958,9.779c7.315,5.619,11.821,12.609,13.519,20.973
		l0.233,1.74c-8.874-9.029-18.12-15.419-27.738-19.167c-10.389-4.061-21.449-5.143-33.18-3.247
		c14.519,0.537,27.912,6.155,40.18,16.856c1.073,0.943,2.199,2.104,3.376,3.479c0.667,0.788,1.685,2.048,3.052,3.78
		c0.684,0.899,0.961,1.458,0.832,1.675c-0.113,0.208-0.728,0.433-1.846,0.675c-3.453,0.823-5.86,1.537-7.22,2.143
		c-1.783,0.754-3.169,1.879-4.155,3.377c-0.953,1.429-1.342,2.879-1.168,4.35c0.225,1.516,0.96,2.763,2.207,3.741
		c1.246,1.004,2.943,1.675,5.09,2.013c1.291,0.198,2.641,0.177,4.053-0.065c1.221-0.226,2.623-0.636,4.207-1.233
		c-0.018,0-0.84-0.226-2.468-0.675c-0.899-0.226-1.605-0.46-2.116-0.702c-1.021-0.45-1.602-1.064-1.74-1.844
		c-0.131-0.735,0.182-1.515,0.935-2.338c1.966-2.052,4.087-2.865,6.364-2.44c2.943,0.511,4.748,1.938,5.414,4.285
		C188.287,141.224,188.18,142.328,187.625,143.358z M205.793,99.958c6.666,5.376,11.458,12.358,14.376,20.947
		c2.84,8.319,3.298,17.297,1.376,26.933c-1.757,9.055-4.956,15.891-9.596,20.506c9.254-15.342,11.236-31.068,5.947-47.179
		c-2.676-8.026-7.238-14.771-13.688-20.233c-5.438-4.64-12.584-8.601-21.441-11.882C192.109,91.482,199.785,95.118,205.793,99.958z"
		/>
</g>
</svg>
