<?xml version="1.0" encoding="utf-8"?>
<!-- Generator: Adobe Illustrator 16.0.0, SVG Export Plug-In . SVG Version: 6.00 Build 0)  -->
<!DOCTYPE svg PUBLIC "-//W3C//DTD SVG 1.1//EN" "http://www.w3.org/Graphics/SVG/1.1/DTD/svg11.dtd">
<svg version="1.1" id="Layer_1" xmlns="http://www.w3.org/2000/svg" xmlns:xlink="http://www.w3.org/1999/xlink" x="0px" y="0px"
	 width="300px" height="300px" viewBox="0 0 300 300" enable-background="new 0 0 300 300" xml:space="preserve">
<g>
	<path fill-rule="evenodd" clip-rule="evenodd" fill="#C8BEBA" d="M145.852,60.05c-0.412,1.238-1.112,3.899-2.098,7.98
		c-1.284,4.495-3.12,9.104-5.504,13.829c-3.624,7.109-9.093,14.31-16.409,21.603c-5.343,5.274-12.108,10.354-20.295,15.239
		c1.491,8.21,4.265,15.09,8.325,20.64c5.94,8.187,13.564,12.28,22.876,12.28c6.215,0,12.728-1.799,19.539-5.4
		c6.536-3.417,12.613-8.084,18.231-14.001c5.666-5.962,10.148-12.43,13.451-19.401c3.485-7.43,5.229-14.631,5.229-21.603
		c0-11.283-2.592-19.998-7.774-26.144c-5.412-6.444-13.358-9.666-23.839-9.666c-4.22,0-7.086,0.298-8.6,0.894
		C147.537,56.896,146.494,58.146,145.852,60.05z M142.377,48.698c13.713-5.688,25.399-6.169,35.053-1.445
		c10.985,5.389,16.787,16.855,17.406,34.399c0.505,14.494-3.864,29.125-13.106,43.894c-8.622,13.807-19.149,24.355-31.579,31.649
		c-12.934,7.613-24.148,9.311-33.643,5.09c-10.778-4.816-17.223-16.751-19.332-35.809c-1.078-0.161-2.466,0.458-4.163,1.857
		c-1.88,1.491-3.44,3.485-4.678,5.985c-3.349,6.788-3.039,14.62,0.929,23.496c-4.013-0.826-7.43-3.166-10.251-7.018
		c-3.326-4.518-4.713-9.873-4.163-16.064c-2.568,5.733-3.979,11.685-4.231,17.854c-0.252,6.467,0.779,12.807,3.096,19.021
		c2.867,7.799,7.557,13.543,14.07,17.234c7.132,4.014,15.732,5.172,25.799,3.475c1.331,0.252,2.225,0.918,2.684,1.996
		c0.068,0.16,0.275,1.215,0.619,3.164c0.573,2.66,2.889,3.887,6.949,3.682c-12.637,4.311-25.318,5.182-38.046,2.613
		c-12.017-2.408-23.025-7.637-33.024-15.686c-9.907-8.004-17.682-17.832-23.323-29.48c-5.871-12.132-8.806-24.94-8.806-38.425
		c0-23.047,7.854-42.713,23.564-58.995c15.663-16.329,34.606-24.493,56.828-24.493C115.913,36.692,129.695,40.694,142.377,48.698z
		 M198.518,76.355c14.677,2.155,27.027,7.648,37.049,16.477c9.655,8.531,16.19,19.287,19.607,32.268v-0.069
		c3.097,3.371,7.053,5.114,11.868,5.229c5.39,0.161,9.494-2.098,12.314-6.776c0.161,6.353-2.27,10.744-7.292,13.175
		c-4.312,2.041-9.22,2.293-14.724,0.758c1.124,12.223-0.492,24.87-4.85,37.942c-4.563,13.83-11.926,27.232-22.085,40.213
		l-31.339,2.547c3.28-13.188,2.604-22.922-2.028-29.205c-3.899-5.275-9.392-7.064-16.478-5.367
		c-6.927,1.582-11.742,5.504-14.448,11.764c-3.027,7.133-1.595,14.678,4.3,22.637l-35.122-4.061
		c-4.518-5.963-8.313-12.383-11.387-19.264c-3.6-8.164-6.444-17.578-8.531-28.242c6.513,3.441,14.7,3.795,24.562,1.066
		c9.954-2.775,19.447-8.117,28.483-16.029c9.861-8.669,17.429-19.012,22.704-31.029C197.13,106.696,199.596,92.018,198.518,76.355z
		 M96.866,77.8c0-1.95-0.665-3.635-1.995-5.057c-1.376-1.399-3.039-2.098-4.988-2.098c-1.903,0-3.555,0.699-4.954,2.098
		c-1.376,1.422-2.064,3.107-2.064,5.057c0,1.972,0.688,3.669,2.064,5.091c1.399,1.399,3.05,2.099,4.954,2.099
		c1.949,0,3.612-0.699,4.988-2.099C96.202,81.47,96.866,79.772,96.866,77.8z"/>
	<path fill-rule="evenodd" clip-rule="evenodd" fill="#EED9D8" d="M145.852,60.05c0.643-1.903,1.686-3.153,3.131-3.75
		c1.514-0.596,4.38-0.894,8.6-0.894c10.48,0,18.427,3.222,23.839,9.666c5.183,6.146,7.774,14.861,7.774,26.144
		c0,6.972-1.743,14.173-5.229,21.603c-3.303,6.972-7.785,13.439-13.451,19.401c-5.618,5.917-11.695,10.584-18.231,14.001
		c-6.811,3.601-13.324,5.4-19.539,5.4c-9.312,0-16.936-4.093-22.876-12.28c-4.06-5.55-6.834-12.43-8.325-20.64
		c8.187-4.885,14.953-9.965,20.295-15.239c7.316-7.293,12.786-14.494,16.409-21.603c2.384-4.725,4.22-9.334,5.504-13.829
		C144.739,63.949,145.439,61.288,145.852,60.05z"/>
</g>
</svg>
