<?xml version="1.0" encoding="utf-8"?>
<!-- Generator: Adobe Illustrator 16.0.0, SVG Export Plug-In . SVG Version: 6.00 Build 0)  -->
<!DOCTYPE svg PUBLIC "-//W3C//DTD SVG 1.1//EN" "http://www.w3.org/Graphics/SVG/1.1/DTD/svg11.dtd">
<svg version="1.1" id="Layer_1" xmlns="http://www.w3.org/2000/svg" xmlns:xlink="http://www.w3.org/1999/xlink" x="0px" y="0px"
	 width="300px" height="300px" viewBox="0 0 300 300" enable-background="new 0 0 300 300" xml:space="preserve">
<path fill-rule="evenodd" clip-rule="evenodd" fill="#C79638" d="M241.431,6.761c0.028,0.487,0.244,1.597,0.646,3.331
	c0.373,1.59,0.572,2.958,0.602,4.104c0.044,1.29-0.566,1.971-1.827,2.042c-1.647-0.187-2.851-0.272-3.609-0.258
	c-0.847,0.042-1.341,0.165-1.483,0.365c-0.229,0.287-0.272,1.103-0.13,2.45c0.918,8.711,1.77,41.965,2.559,99.762
	c0.858,63.497,0.773,111.682-0.258,144.548l-5.76-0.666c2.779-20.173,3.646-65.425,2.6-135.759
	c-0.53-35.89-1.432-73.055-2.708-111.496c-0.099-3.912,1.003-5.76,3.311-5.545c1.175,0.086,2.128-0.079,2.857-0.494
	c0.918-0.516,1.37-1.347,1.354-2.493c0-1.218,0.287-1.763,0.859-1.633C241.001,5.133,241.332,5.714,241.431,6.761z M176.915,44.219
	l-1.375-0.128l0.064-2.729l1.569-0.021v-0.107c0.014,0,0.25-0.588,0.708-1.763c0.617-1.146,1.34-1.69,2.171-1.633
	c1.204,0.043,2.688,1.14,4.449,3.289l-0.752,0.773l0.944,0.581l-0.171,0.881l-1.14,0.344l0.946,0.945
	c-1.462,1.39-2.479,2.278-3.053,2.665c-0.73,0.473-1.425,0.652-2.085,0.537c-0.429-0.058-0.822-0.258-1.182-0.602
	c-0.415-0.416-0.723-1.018-0.924-1.805c-0.115-0.717-0.172-1.082-0.172-1.096V44.219z M170.962,44.284l-0.193-3.181l3.998,0.301
	l0.063,2.665L170.962,44.284z M169.285,29.455l4.191,0.107l0.15,2.558l-4.062,0.107L169.285,29.455z M176.378,27.328
	c0.502-1.204,1.16-1.813,1.977-1.827c1.189-0.057,2.78,0.895,4.772,2.858l-0.688,0.838l1.011,0.472l-0.108,0.881l-1.116,0.473
	l1.031,0.838c-1.318,1.519-2.228,2.5-2.729,2.945c-0.688,0.544-1.369,0.802-2.042,0.773c-0.53-0.057-1.003-0.28-1.419-0.666
	c-0.387-0.4-0.702-0.96-0.945-1.676c-0.157-0.616-0.236-0.938-0.236-0.967v-0.108h-1.418l-0.193-2.708l1.547-0.193l0.022-0.086
	C175.94,28.545,176.12,27.929,176.378,27.328z M158.863,22.083l8.939,0.258l2.515,26.413l-3.718-0.451l-0.924-22.91l-4.276-0.343
	l-1.204,23.06l-4.298-0.301L158.863,22.083z M169.931,12.435l1.504,0.042l0.946,4.341l-1.483,0.752L169.931,12.435z M155.66,16.754
	l-1.354-0.666l0.881-4.342l1.678-0.107L155.66,16.754z M162.881,4.633c0.216,0.2,0.452,0.315,0.709,0.344
	c0.675,0.029,1.126-0.437,1.354-1.397l1.161,0.15l1.246,7.479l1.742,0.172l1.567,7.629l-1.977-0.129l0.45,2.622l-11.11-0.43
	l0.452-2.815l-2.429-0.129l1.719-7.78l2.02,0.172l1.161-7.091l1.333-0.108C162.395,3.895,162.595,4.332,162.881,4.633z
	 M165.354,41.253l0.666,7.758l2.879,0.193l1.613,66.128h0.149c9.112,0.043,16.678,3.087,22.694,9.135
	c2.236,2.233,4.148,4.813,5.739,7.735c2.692,4.915,4.062,10.13,4.104,15.647c0.043,3.208-0.495,7.427-1.612,12.657
	c-0.658,3.065-1.018,5.223-1.073,6.47c-0.087,2.005,0.328,3.553,1.245,4.641c0.817,0.975,1.348,1.871,1.59,2.688
	c0.259,0.833,0.188,1.483-0.215,1.956c-0.357,0.444-0.902,0.665-1.633,0.665s-1.482-0.214-2.257-0.645
	c-0.701-0.387-1.598-0.465-2.686-0.236c-1.075,0.201-2.121,0.667-3.139,1.398c-1.619,1.188-2.872,2.85-3.761,4.984
	c-1.333,3.339-1.512,7.401-0.537,12.186c1.333,6.549,3.438,11.263,6.319,14.142c1.375,1.375,2.793,2.206,4.254,2.494
	c1.247,0.257,2.336,0.122,3.268-0.409c0.787-0.43,1.54-0.646,2.256-0.646c0.688,0,1.247,0.208,1.676,0.624
	c0.488,0.487,0.717,1.189,0.689,2.106c-0.058,0.901-0.374,1.933-0.946,3.094c-0.53,1.09-0.48,2.837,0.15,5.245
	c0.401,1.459,1.296,3.989,2.687,7.586c1.69,4.354,2.852,7.649,3.481,9.885c1.061,3.811,1.512,7.121,1.354,9.931
	c-0.674,11.418-5.158,20.3-13.454,26.648c-8.31,6.347-20.338,10.093-36.084,11.24c-18.424,0.858-32.208-3.297-41.349-12.465
	c-3.896-3.927-6.871-8.72-8.918-14.38c-1.104-3.036-1.949-6.497-2.536-10.379c-0.386-2.55-0.058-5.724,0.988-9.521
	c0.602-2.221,1.77-5.596,3.504-10.122c1.403-3.697,2.307-6.297,2.707-7.802c0.659-2.45,0.717-4.22,0.173-5.308
	c-0.588-1.133-0.911-2.164-0.967-3.096c-0.028-0.931,0.2-1.633,0.688-2.106c0.415-0.428,0.974-0.637,1.676-0.624
	c0.703,0,1.447,0.217,2.235,0.647c1.404,0.743,2.987,0.708,4.749-0.108c1.663-0.816,3.174-2.235,4.535-4.256
	c1.949-2.937,3.417-6.941,4.406-12.015c0.788-4.125,0.715-7.721-0.215-10.787c-0.631-2.148-1.634-3.911-3.009-5.287
	c-1.218-1.203-2.521-1.984-3.912-2.342c-1.261-0.33-2.314-0.265-3.159,0.193c-0.73,0.429-1.447,0.651-2.149,0.666
	c-0.702,0.014-1.247-0.166-1.633-0.538c-0.458-0.458-0.581-1.117-0.365-1.977c0.201-0.845,0.73-1.784,1.59-2.815
	c0.988-1.189,1.483-3.044,1.483-5.566c0-1.618-0.272-4.377-0.816-8.273c-0.731-5.416-1.089-9.584-1.074-12.506
	c0.056-5.016,0.966-9.379,2.729-13.09c1.791-3.782,4.391-7.092,7.8-9.928c5.588-4.686,12.416-7.084,20.481-7.2h0.107l3.589-67.138
	l2.837,0.215l0.752-11.971l-2.063,171.478h-4.513l4.813-157.852l-0.601-0.021L154.5,208.153h-1.29c-0.271,0-0.536,0.106-0.795,0.322
	c-0.214,0.258-0.322,0.522-0.322,0.795c0,0.315,0.108,0.58,0.322,0.796c0.243,0.229,0.509,0.344,0.795,0.344h1.312l0.344,15.086
	h0.623l-0.321-15.086h4.534l0.387,15.517h0.603l-0.367-15.517h5.159l0.086,15.602h0.645l-0.087-15.602l4.622-0.021l-0.194,16.01
	h0.623l0.173-16.01h2.169c0.301,0,0.566-0.115,0.796-0.344c0.215-0.187,0.323-0.453,0.323-0.796c0-0.287-0.108-0.544-0.323-0.773
	c-0.243-0.216-0.508-0.322-0.796-0.322h-2.148l-3.653-157.164l-0.623,0.021l3.675,157.143h-4.643l-1.16-176.377l0.259,2.601
	L165.354,41.253z M151.233,42.801l4.04,0.128l-0.15,2.945l-3.954-0.387L151.233,42.801z M150.073,45.401h-1.569l-0.021,0.086
	c-0.158,0.602-0.394,1.196-0.708,1.784c-0.659,1.146-1.405,1.676-2.235,1.591c-1.205-0.101-2.666-1.24-4.385-3.417l0.774-0.752
	l-0.946-0.602l0.193-0.86l1.182-0.322l-0.924-0.988c1.475-1.361,2.506-2.221,3.094-2.579c0.731-0.458,1.425-0.624,2.085-0.494
	c0.458,0.085,0.838,0.279,1.138,0.58c0.416,0.43,0.717,1.054,0.904,1.87c0.1,0.416,0.149,0.788,0.149,1.118v0.107l1.376,0.151
	L150.073,45.401z M151.319,30.443l-0.086,2.708l-1.547,0.065l-0.022,0.086c-0.143,0.601-0.38,1.183-0.709,1.741
	c-0.645,1.16-1.368,1.711-2.17,1.654c-1.232-0.085-2.715-1.203-4.449-3.353l0.773-0.773l-0.967-0.559l0.193-0.881l1.183-0.344
	l-0.968-0.945c1.462-1.375,2.487-2.256,3.074-2.644c0.716-0.473,1.412-0.659,2.084-0.558c0.458,0.1,0.846,0.3,1.161,0.601
	c0.415,0.43,0.716,1.046,0.902,1.849c0.115,0.401,0.173,0.767,0.173,1.096v0.107L151.319,30.443z M157.144,30.895l-0.387,2.986
	l-4.514-0.644l0.108-2.644L157.144,30.895z M162.388,31.432h-0.322l0.516-5.201l1.913,0.172l0.472,5.243l-0.602,0.022l1.118,176.484
	h-5.201L162.388,31.432z M169.975,117.848v1.246h0.106c4.742,0.014,9.111,0.968,13.109,2.858c3.023,1.418,5.724,3.324,8.102,5.717
	c2.179,2.192,3.927,4.563,5.244,7.114c2.249,4.369,3.403,9.054,3.46,14.056c0.028,2.878-0.422,6.733-1.354,11.562
	c-0.586,3.05-0.895,5.194-0.924,6.425c-0.042,2.021,0.395,3.59,1.312,4.707l0.752,0.903c1.003,1.175,1.476,1.848,1.418,2.02
	c-0.07,0.087-0.135,0.123-0.192,0.107c-0.071-0.028-0.272-0.114-0.603-0.258l-1.16-0.473c-1.017-0.344-2.234-0.395-3.652-0.15
	c-1.749,0.285-3.311,0.995-4.686,2.127c-1.72,1.418-3.002,3.374-3.848,5.867c-1.088,3.281-1.339,7.357-0.751,12.228
	c0.501,3.898,1.575,7.422,3.223,10.574c1.174,2.192,2.55,4.077,4.127,5.652c1.26,1.305,2.593,2.315,3.997,3.031
	c1.017,0.502,1.963,0.803,2.836,0.901c0.904,0.102,1.642-0.013,2.214-0.344l0.968-0.537c1.089-0.645,1.697-0.938,1.826-0.881
	l0.043,0.106c0.102,0.345,0.122,0.64,0.065,0.881c-0.059,0.202-0.244,0.574-0.559,1.118l-0.624,1.227
	c-0.631,1.261-0.631,3.331,0,6.209c0.358,1.72,1.246,4.765,2.665,9.134c1.146,3.525,1.955,6.184,2.429,7.976
	c0.787,2.906,1.26,5.365,1.418,7.37c0.53,7.45-1.525,14.119-6.169,20.007c-7.607,9.714-21.296,15.296-41.067,16.742
	c-16.75,0.603-29.372-3.244-37.869-11.541l-0.343-0.322c-4.155-4.183-7.057-9.211-8.705-15.086
	c-0.945-3.353-1.403-6.533-1.375-9.541c0.015-2.58,0.48-5.525,1.397-8.833c0.515-1.936,1.439-4.757,2.772-8.468
	c1.276-3.482,2.077-5.94,2.407-7.371c0.502-2.279,0.458-3.998-0.129-5.159l-0.344-0.688c-0.53-1.046-0.831-1.747-0.903-2.105
	c-0.1-0.431,0.008-0.752,0.322-0.968c0.058-0.043,0.38,0.079,0.968,0.366c1.003,0.457,1.776,0.744,2.321,0.858
	c2.206,0.56,4.376,0.114,6.512-1.332c2.221-1.518,4.09-3.955,5.609-7.306c1.519-3.354,2.542-7.308,3.073-11.863
	c0.53-4.458,0.33-8.269-0.602-11.434c-0.716-2.407-1.834-4.377-3.353-5.91l-0.021-0.022c-1.045-1.06-2.228-1.842-3.546-2.342
	c-1.333-0.473-2.715-0.646-4.147-0.516c-0.387,0.028-1.074,0.129-2.064,0.301l1.569-2.15c0.946-1.274,1.404-3.116,1.375-5.522
	c0-1.462-0.286-4.033-0.859-7.715c-0.673-4.541-1.046-8.067-1.118-10.574c-0.128-4.327,0.344-8.231,1.418-11.713
	c1.433-4.512,4.42-8.396,8.962-11.647c5.015-3.569,10.775-5.395,17.279-5.481h0.15l-0.043-1.267h-0.107
	c-6.791,0.114-12.816,2.048-18.074,5.801c-4.742,3.396-7.859,7.465-9.349,12.208c-1.131,3.639-1.633,7.664-1.504,12.077
	c0.072,2.564,0.458,6.154,1.161,10.769c0.53,3.48,0.81,5.925,0.838,7.328c0.058,2.233-0.322,3.904-1.139,5.006l-0.344,0.453
	c-0.945,1.289-1.504,2.099-1.676,2.428c-0.215,0.401-0.236,0.738-0.064,1.01c0.144,0.215,0.373,0.339,0.688,0.365
	c0.172,0.015,0.523-0.036,1.053-0.15c0.631-0.128,1.282-0.229,1.956-0.301c2.549-0.258,4.785,0.58,6.705,2.514l0.086-0.106
	l-0.021,0.151c1.575,1.617,2.672,3.825,3.288,6.619c0.602,2.807,0.695,6.03,0.279,9.671c-0.515,4.397-1.475,8.187-2.878,11.367
	c-1.433,3.196-3.195,5.495-5.288,6.9c-1.804,1.259-3.639,1.653-5.501,1.182c-0.501-0.13-1.204-0.395-2.105-0.796
	c-0.517-0.229-0.889-0.373-1.119-0.43c-0.401-0.072-0.759-0.008-1.074,0.194c-0.731,0.5-1.018,1.202-0.86,2.105
	c0.101,0.543,0.451,1.396,1.053,2.558l0.322,0.666c0.473,0.945,0.444,2.5-0.086,4.663c-0.314,1.318-1.053,3.61-2.214,6.878
	c-1.36,3.725-2.313,6.604-2.857,8.639c-0.917,3.367-1.397,6.391-1.44,9.069c-0.029,3.108,0.451,6.403,1.44,9.887
	c1.719,6.102,4.727,11.317,9.025,15.645l0.345,0.343c8.725,8.527,21.669,12.479,38.834,11.865
	c20.259-1.477,34.285-7.244,42.079-17.302c4.757-6.117,6.856-13.037,6.297-20.761c-0.143-2.076-0.608-4.597-1.396-7.563
	c-0.487-1.776-1.317-4.471-2.493-8.082c-1.317-4.098-2.171-6.978-2.558-8.638c-0.645-2.794-0.701-4.721-0.172-5.78l0.603-1.141
	c0.372-0.645,0.593-1.125,0.666-1.439c0.114-0.445,0.093-0.946-0.065-1.505c-0.143-0.458-0.393-0.774-0.751-0.945
	c-0.373-0.129-0.817-0.094-1.334,0.108c-0.343,0.127-0.887,0.413-1.633,0.858l-0.924,0.56c-0.4,0.214-0.945,0.265-1.633,0.149
	c-0.702-0.101-1.455-0.365-2.257-0.795c-1.29-0.658-2.528-1.584-3.718-2.772c-1.504-1.52-2.794-3.31-3.869-5.374
	c-1.575-3.022-2.593-6.402-3.051-10.143c-0.559-4.613-0.345-8.453,0.645-11.518c0.73-2.336,1.892-4.15,3.481-5.439
	c1.189-0.974,2.536-1.597,4.041-1.868c1.217-0.215,2.248-0.179,3.095,0.106c0.229,0.072,0.587,0.222,1.074,0.451
	c0.501,0.215,0.873,0.33,1.116,0.344c0.431,0,0.811-0.187,1.141-0.559c0.356-0.444,0.372-0.982,0.042-1.611
	c-0.171-0.373-0.673-1.047-1.504-2.021l-0.71-0.859c-0.745-0.931-1.081-2.313-1.01-4.147c0.043-1.146,0.345-3.137,0.903-5.974
	c0.945-4.974,1.391-8.935,1.332-11.885c-0.044-5.143-1.239-9.987-3.589-14.528c-1.375-2.693-3.195-5.172-5.458-7.436
	c-2.494-2.494-5.31-4.485-8.447-5.975c-4.154-1.948-8.704-2.938-13.646-2.966H169.975z M242.807,148.902
	c-0.028-4.441-0.021-8.754,0.021-12.938l1.333,130.171C243.66,255.146,243.208,216.069,242.807,148.902z M150.826,192.077
	c-0.058,0.401-0.416,0.824-1.075,1.27c-0.631,0.458-1.018,0.844-1.161,1.16c-0.214,0.43-0.279,0.909-0.192,1.438
	c0.113,0.56,0.357,1.018,0.729,1.375c0.545,0.56,1.183,0.726,1.912,0.495c0.99-0.286,1.677-0.959,2.063-2.021
	c0.201-0.573,0.302-1.161,0.302-1.762c-0.015-0.415-0.15-0.917-0.409-1.505c-0.329-0.716-0.744-1.324-1.246-1.826
	c-0.931-0.933-1.991-1.36-3.18-1.289c-2.823,0.186-4.851,2.449-6.083,6.791c-0.701,2.55-1.296,7.027-1.783,13.432
	c-0.373,5.144-0.781,8.604-1.225,10.38c-0.731,2.952-1.92,4.427-3.568,4.427c-0.703,0-1.311-0.257-1.828-0.772
	c-0.286-0.287-0.494-0.608-0.622-0.968c-0.129-0.343-0.151-0.631-0.065-0.86c0.072-0.214,0.323-0.428,0.752-0.645
	c0.388-0.186,0.66-0.379,0.817-0.58c0.301-0.329,0.494-0.809,0.58-1.438c0.129-0.917-0.128-1.699-0.773-2.343
	c-0.617-0.631-1.376-0.867-2.278-0.711c-0.946,0.158-1.684,0.662-2.214,1.507c-0.487,0.772-0.666,1.604-0.537,2.492
	c0.057,0.442,0.25,0.951,0.58,1.525c0.344,0.658,0.773,1.231,1.29,1.72c1.261,1.319,2.671,1.897,4.233,1.739
	c3.481-0.328,5.924-2.785,7.328-7.37c0.832-2.723,1.469-7.429,1.914-14.119c0.271-4.456,0.601-7.509,0.988-9.156
	c0.587-2.607,1.583-3.976,2.987-4.105C150.396,190.201,150.983,190.773,150.826,192.077z M172.788,194.334
	c-0.013,0.516,0.065,1.031,0.236,1.548c0.201,0.615,0.494,1.117,0.882,1.504c0.33,0.359,0.738,0.603,1.225,0.731
	c0.804,0.285,1.482,0.084,2.043-0.602c0.328-0.358,0.529-0.796,0.602-1.312c0.085-0.501,0.028-0.952-0.172-1.354
	c-0.13-0.216-0.272-0.409-0.43-0.58c-0.187-0.172-0.431-0.372-0.731-0.602c-0.629-0.458-0.975-0.873-1.032-1.247
	c-0.07-0.629,0.029-1.103,0.302-1.418c0.33-0.286,0.816-0.393,1.462-0.322c0.544,0.058,1.023,0.294,1.44,0.709
	c0.816,0.804,1.403,2.407,1.761,4.814c0.23,1.447,0.452,4.04,0.666,7.779c0.259,5.044,0.603,8.747,1.031,11.112
	c0.746,3.938,1.957,6.756,3.634,8.445c1.189,1.188,2.628,1.861,4.318,2.019c1.562,0.173,3.003-0.393,4.32-1.696
	c1.073-1.104,1.697-2.172,1.87-3.203c0.086-0.572,0.028-1.146-0.173-1.719c-0.186-0.558-0.479-1.039-0.881-1.439
	c-0.444-0.444-1.003-0.737-1.676-0.881c-0.902-0.157-1.655,0.057-2.257,0.645c-0.659,0.645-0.932,1.432-0.817,2.363
	c0.072,0.702,0.279,1.226,0.624,1.568c0.187,0.173,0.422,0.331,0.708,0.474c0.417,0.215,0.674,0.437,0.774,0.667
	c0.173,0.372,0.059,0.844-0.343,1.417c-0.589,0.789-1.313,1.175-2.172,1.162c-0.701,0-1.317-0.267-1.848-0.796
	c-0.917-0.917-1.598-2.751-2.042-5.501c-0.257-1.591-0.522-4.449-0.795-8.575c-0.287-4.899-0.645-8.505-1.074-10.811
	c-0.674-3.811-1.741-6.455-3.203-7.932c-0.931-0.931-2.055-1.446-3.374-1.546c-1.088-0.086-2.099,0.279-3.029,1.096
	c-0.573,0.502-1.031,1.125-1.376,1.869C172.976,193.338,172.818,193.875,172.788,194.334z M159.594,226.056v2.407h1.504v-2.407
	H159.594z M154.285,225.712v2.363h1.483v-2.363H154.285z M150.525,227.623c-0.259,2.293-0.158,4.55,0.301,6.77
	c0.287,1.376,0.91,3.367,1.869,5.977c1.219,3.424,2.057,6.211,2.516,8.359c0.772,3.696,1.089,7.766,0.945,12.206
	c-0.144,4.973,0.364,9.162,1.525,12.571c0.831,2.365,1.92,4.228,3.267,5.59c1.218,1.202,2.401,1.833,3.547,1.892h0.149
	c0.259-0.045,0.409-0.081,0.451-0.107c1.505-0.388,2.865-2.509,4.083-6.363c1.347-4.298,1.928-9.284,1.742-14.957
	c-0.115-3.996,0.1-7.83,0.644-11.497c0.331-2.164,0.918-4.907,1.763-8.232l0.344-1.461c0.315-0.357,0.473-0.766,0.473-1.226
	c0-0.199-0.021-0.365-0.064-0.494c0.675-3.008,0.867-5.65,0.581-7.93l-0.065-0.537l-0.171,0.106
	c-0.345,0.244-1.24,0.438-2.687,0.581v-2.235h-1.483v2.364c-3.396,0.23-7.006,0.223-10.831-0.021
	c-4.342-0.258-7.243-0.745-8.704-1.462l-0.172-0.042L150.525,227.623z M152.845,235.769c-0.529-2.263-0.68-4.549-0.451-6.855
	c1.977,0.56,5.495,0.902,10.553,1.031c5.157,0.13,8.754-0.063,10.789-0.58l0.235-0.085c0.188,1.905,0.037,4.054-0.452,6.447
	c-0.371-0.302-0.779-0.452-1.225-0.452c-0.529,0-0.973,0.18-1.332,0.537c-0.371,0.33-0.559,0.76-0.559,1.289
	c0,0.517,0.193,0.962,0.58,1.333c0.373,0.373,0.803,0.559,1.29,0.559l0.494-0.041l-0.193,0.708
	c-0.846,3.352-1.433,6.116-1.763,8.294c-0.544,3.697-0.753,7.567-0.624,11.606l-0.086,5.33l-0.3,3.353l-0.731,4.169l-0.063,0.129
	l-0.193,0.859c-0.273,0.932-0.53,1.733-0.774,2.408c-0.458,1.273-0.96,2.284-1.504,3.03c-0.545,0.73-1.061,1.131-1.547,1.202
	c-0.946-0.027-1.949-0.573-3.01-1.633c-1.26-1.29-2.271-3.058-3.03-5.309c-1.103-3.267-1.547-7.299-1.332-12.099
	c0.158-4.413-0.122-8.433-0.839-12.057c-0.443-2.177-1.238-4.914-2.385-8.21l-0.56-1.655h0.173c0.53,0,0.981-0.178,1.354-0.536
	c0.356-0.373,0.537-0.818,0.537-1.334c0-0.486-0.181-0.916-0.537-1.289c-0.387-0.386-0.831-0.579-1.333-0.579
	C153.568,235.34,153.175,235.482,152.845,235.769z M153.469,236.67c0.157-0.171,0.344-0.255,0.559-0.255
	c0.244,0,0.43,0.084,0.56,0.255c0.156,0.145,0.236,0.323,0.236,0.538c0,0.23-0.08,0.425-0.236,0.581
	c-0.144,0.144-0.337,0.215-0.581,0.215c-0.201,0-0.38-0.078-0.537-0.236c-0.172-0.171-0.259-0.359-0.259-0.56
	C153.226,236.993,153.311,236.814,153.469,236.67z M165.139,228.763h1.504v-2.406h-1.504V228.763z M160.217,236.649
	c0.201,0,0.394,0.072,0.58,0.217c0.143,0.185,0.216,0.379,0.216,0.58c0,0.214-0.073,0.399-0.216,0.558
	c-0.172,0.157-0.365,0.237-0.58,0.237s-0.401-0.087-0.559-0.258c-0.157-0.158-0.236-0.338-0.236-0.537
	c0-0.229,0.079-0.417,0.236-0.56C159.815,236.729,160.002,236.649,160.217,236.649z M160.239,235.575
	c-0.531,0-0.976,0.178-1.334,0.537c-0.372,0.329-0.559,0.774-0.559,1.334c0,0.5,0.187,0.938,0.559,1.309
	c0.358,0.375,0.796,0.56,1.312,0.56s0.952-0.185,1.311-0.56c0.373-0.326,0.559-0.767,0.559-1.309c0-0.502-0.186-0.933-0.559-1.29
	C161.169,235.769,160.739,235.575,160.239,235.575z M165.934,235.468c-0.517,0-0.961,0.179-1.332,0.538
	c-0.359,0.373-0.538,0.816-0.538,1.332c0,0.501,0.179,0.938,0.538,1.311c0.371,0.358,0.815,0.537,1.332,0.537
	c0.516,0.043,0.953-0.128,1.311-0.515c0.373-0.359,0.559-0.797,0.559-1.312c0-0.517-0.186-0.96-0.559-1.333
	C166.887,235.654,166.449,235.468,165.934,235.468z M172.273,236.328c0.2,0,0.395,0.079,0.58,0.235
	c0.144,0.187,0.215,0.381,0.215,0.58c0,0.216-0.071,0.401-0.215,0.56c-0.172,0.158-0.366,0.236-0.58,0.236
	c-0.2,0-0.379-0.086-0.537-0.259c-0.173-0.156-0.258-0.336-0.258-0.537c0-0.228,0.085-0.415,0.258-0.558
	C171.879,236.415,172.059,236.328,172.273,236.328z M165.375,236.778c0.156-0.171,0.344-0.257,0.559-0.257s0.408,0.086,0.58,0.257
	c0.143,0.144,0.215,0.329,0.215,0.56s-0.072,0.416-0.215,0.56c-0.172,0.171-0.365,0.249-0.58,0.236
	c-0.215,0-0.402-0.081-0.559-0.236c-0.158-0.158-0.236-0.345-0.236-0.56C165.139,237.107,165.217,236.922,165.375,236.778z
	 M167.911,288.035c0.057,0.058,0.1,0.144,0.128,0.258c0.028,0.229-0.236,0.494-0.795,0.797c-0.673,0.285-1.411,0.464-2.213,0.536
	c-0.716,0.072-1.361,0.063-1.935-0.022c-0.588-0.086-0.988-0.229-1.203-0.43c-0.073-0.114-0.107-0.2-0.107-0.257
	c-0.044-0.258,0.222-0.523,0.795-0.795c0.602-0.273,1.339-0.451,2.213-0.537c0.703-0.086,1.348-0.08,1.935,0.021
	C167.316,287.691,167.711,287.834,167.911,288.035z M166.514,290.485l-1.354,4.943l-1.482-4.813L166.514,290.485z M237.541,241.614
	l-2.6-0.277l-0.365,7.412l2.557,0.15L237.541,241.614z M232.19,263.406l2.3,0.258c1.69,0.187,2.851,0.272,3.481,0.258
	c0,0.588-0.229,5.036-0.688,13.346c-0.458,8.211-0.688,12.752-0.688,13.626c0.015,1.261-0.207,2.342-0.666,3.245
	c-0.501,0.933-1.161,1.425-1.978,1.482c-0.845,0.044-1.568-0.293-2.17-1.011c-0.603-0.715-0.753-1.396-0.452-2.039
	c0.229-0.444,0.652-0.833,1.269-1.162c0.56-0.272,0.924-0.71,1.097-1.312c0.129-0.472-0.114-4.333-0.73-11.583
	C232.291,270.778,232.032,265.742,232.19,263.406z M244.161,266.136l0.924,18.525h-7.651l0.645-16.613l0.216,0.021
	c0.187,0.059,0.358,0.181,0.515,0.366c-0.057,0.874,0.029,1.604,0.26,2.19c0.271,0.675,0.702,1.033,1.289,1.075
	c0.486,0.03,0.909-0.128,1.268-0.472c0.358-0.345,0.572-0.83,0.645-1.462c0.072-0.474,0.078-1.166,0.022-2.085l-0.066-1.225
	L244.161,266.136z M241.883,277.097c-0.358-0.345-0.816-0.495-1.375-0.451c-0.53,0.028-0.996,0.257-1.397,0.688
	c-0.387,0.415-0.587,0.888-0.602,1.418c0,0.559,0.187,1.009,0.56,1.354c0.356,0.357,0.815,0.516,1.374,0.473
	c0.544-0.042,1.011-0.271,1.397-0.688c0.386-0.415,0.588-0.896,0.603-1.438C242.442,277.92,242.255,277.469,241.883,277.097z"/>
</svg>
