<?xml version="1.0" encoding="utf-8"?>
<!-- Generator: Adobe Illustrator 16.0.0, SVG Export Plug-In . SVG Version: 6.00 Build 0)  -->
<!DOCTYPE svg PUBLIC "-//W3C//DTD SVG 1.1//EN" "http://www.w3.org/Graphics/SVG/1.1/DTD/svg11.dtd">
<svg version="1.1" id="Layer_1" xmlns="http://www.w3.org/2000/svg" xmlns:xlink="http://www.w3.org/1999/xlink" x="0px" y="0px"
	 width="300px" height="300px" viewBox="0 0 300 300" enable-background="new 0 0 300 300" xml:space="preserve">
<g>
	<path fill-rule="evenodd" clip-rule="evenodd" fill="#F9959D" d="M167.268,197.439v8.122h-7.982v-8.122H167.268z M153.423,196.378
		v9.322h-7.983v-9.322H153.423z M140.318,216.961h-7.986v-8.122h7.986V216.961z M153.423,216.961h-7.983v-9.367h7.983V216.961z
		 M153.423,218.809v9.367h-7.983v-9.367H153.423z M167.268,207.361v9.415h-7.982v-9.415H167.268z M167.268,218.809v9.367h-7.982
		v-9.367H167.268z M172.393,207.5h7.985v9.368h-7.985V207.5z M140.318,205.7h-7.986v-6.877h7.986V205.7z M172.393,196.285h7.985
		v9.415h-7.985V196.285z M206.082,196.378v9.322H198.1v-9.322H206.082z M185.037,208.839h7.938v8.122h-7.938V208.839z
		 M206.082,218.809v9.367H198.1v-9.367H206.082z M198.1,216.961v-9.367h7.982v9.367H198.1z M192.975,218.809v9.367h-7.938v-9.367
		H192.975z M185.037,198.823h7.938v6.877h-7.938V198.823z M180.378,218.809v9.367h-7.985v-9.367H180.378z M88.304,198.823v6.877
		h-7.938v-6.877H88.304z M75.704,196.147v9.322H67.72v-9.322H75.704z M75.704,218.809v9.367H67.72v-9.367H75.704z M62.597,216.776
		h-7.984v-9.415h7.984V216.776z M67.72,207.361h7.984v9.415H67.72V207.361z M93.473,207.594h7.938v9.367h-7.938V207.594z
		 M80.366,208.839h7.938v8.122h-7.938V208.839z M88.304,218.809v9.367h-7.938v-9.367H88.304z M93.473,196.378h7.938v9.322h-7.938
		V196.378z M62.597,205.562h-7.984v-8.122h7.984V205.562z M128.364,196.147v9.322h-7.893v-9.322H128.364z M115.256,197.439v8.122
		h-7.938v-8.122H115.256z M115.256,218.809v9.367h-7.938v-9.367H115.256z M115.256,207.361v9.415h-7.938v-9.415H115.256z
		 M128.364,218.809v9.367h-7.893v-9.367H128.364z M120.471,207.361h7.893v9.415h-7.893V207.361z M101.411,218.809v9.367h-7.938
		v-9.367H101.411z M62.597,228.176h-7.984v-9.367h7.984V228.176z M132.332,228.176v-9.367h7.986v9.367H132.332z M22.63,197.485
		v0.832h-7.938v-0.832H22.63z M2,208.746h7.938v0.832H2V208.746z M2,213.776h7.938v3.185H2V213.776z M14.691,202.562h7.938v3.139
		h-7.938V202.562z M22.63,212.484v4.477h-7.938v-4.477H22.63z M22.63,222.499v5.677h-7.938v-5.677H22.63z M9.938,223.7v4.476H2
		V223.7H9.938z M35.599,198.823v6.877h-7.892v-6.877H35.599z M35.599,218.809v9.367h-7.892v-9.367H35.599z M35.599,216.961h-7.892
		v-8.122h7.892V216.961z M40.722,207.594h7.938v9.367h-7.938V207.594z M48.659,218.809v9.367h-7.938v-9.367H48.659z M40.722,205.562
		v-9.368h7.938v9.368H40.722z M285.325,212.484v4.477h-7.938v-4.477H285.325z M290.078,223.7h7.984v4.476h-7.984V223.7z
		 M290.078,216.961v-3.185h7.984v3.185H290.078z M285.325,202.562v3.139h-7.938v-3.139H285.325z M298.063,208.746v0.832h-7.984
		v-0.832H298.063z M285.325,197.485v0.832h-7.938v-0.832H285.325z M244.76,198.823v6.877h-7.985v-6.877H244.76z M219.927,197.439
		v8.122h-7.982v-8.122H219.927z M219.927,218.809v9.367h-7.982v-9.367H219.927z M219.927,216.776h-7.982v-9.415h7.982V216.776z
		 M225.144,207.361h7.984v9.415h-7.984V207.361z M244.76,218.809v9.367h-7.985v-9.367H244.76z M236.774,216.961v-8.122h7.985v8.122
		H236.774z M233.128,218.809v9.367h-7.984v-9.367H233.128z M225.144,205.47v-9.322h7.984v9.322H225.144z M258.604,197.439v8.122
		h-7.985v-8.122H258.604z M258.604,218.809v9.367h-7.985v-9.367H258.604z M264.42,216.961v-8.122h7.984v8.122H264.42z
		 M258.604,216.776h-7.985v-9.415h7.985V216.776z M285.325,222.499v5.677h-7.938v-5.677H285.325z M264.42,218.809h7.984v9.367
		h-7.984V218.809z M272.404,198.823v6.877h-7.984v-6.877H272.404z"/>
	<path fill-rule="evenodd" clip-rule="evenodd" fill="#FF0000" d="M233.128,104.305h-7.984v-2.03h7.984V104.305z M225.144,112.29
		h7.984v3.276h-7.984V112.29z M225.144,122.304h7.984v4.477h-7.984V122.304z M233.128,132.319v5.677h-7.984v-5.677H233.128z
		 M75.704,115.889H67.72v-1.754h7.984V115.889z M67.72,122.304h7.984v4.477H67.72V122.304z M75.704,132.319v5.677H67.72v-5.677
		H75.704z M93.473,124.981h7.938v2.076h-7.938V124.981z M128.364,94.796h-7.893v-0.923h7.893V94.796z M128.364,87.597h-7.893v-0.276
		h7.893V87.597z M120.471,102.275h7.893v2.03h-7.893V102.275z M128.364,115.566h-7.893v-3.276h7.893V115.566z M120.471,122.304
		h7.893v4.477h-7.893V122.304z M128.364,132.319v5.677h-7.893v-5.677H128.364z M145.439,124.981h7.983v2.076h-7.983V124.981z
		 M172.393,123.781h7.985v3.185h-7.985V123.781z M172.393,117.181h7.985v0.877h-7.985V117.181z M206.082,127.057H198.1v-2.076h7.982
		V127.057z M206.082,138.272H198.1v-3.276h7.982V138.272z M198.1,145.011h7.982v4.477H198.1V145.011z M206.082,155.025v5.586H198.1
		v-5.586H206.082z M180.378,138.181h-7.985v-4.477h7.985V138.181z M180.378,149.441h-7.985v-5.723h7.985V149.441z M180.378,171.87
		h-7.985v-8.214h7.985V171.87z M185.037,168.872h7.938v3.229h-7.938V168.872z M185.037,158.856h7.938v2.031h-7.938V158.856z
		 M206.082,174.963v8.122H198.1v-8.122H206.082z M198.1,164.948h7.982v6.922H198.1V164.948z M180.378,160.611h-7.985v-6.878h7.985
		V160.611z M159.285,149.487v-2.03h7.982v2.03H159.285z M153.423,134.996v3.276h-7.983v-3.276H153.423z M153.423,155.025v5.586
		h-7.983v-5.586H153.423z M153.423,149.487h-7.983v-4.477h7.983V149.487z M145.439,164.948h7.983v6.922h-7.983V164.948z
		 M140.318,173.025h-7.986v-1.984h7.986V173.025z M153.423,174.963v8.122h-7.983v-8.122H153.423z M167.268,160.611h-7.982v-3.139
		h7.982V160.611z M159.285,167.486h7.982v4.384h-7.982V167.486z M167.268,177.408v5.677h-7.982v-5.677H167.268z M167.268,194.303
		h-7.982v-6.878h7.982V194.303z M172.393,185.117h7.985v9.367h-7.985V185.117z M153.423,184.979v9.324h-7.983v-9.324H153.423z
		 M140.318,183.362h-7.986v-4.476h7.986V183.362z M140.318,194.578h-7.986V188.9h7.986V194.578z M192.975,194.578h-7.938V188.9
		h7.938V194.578z M192.975,183.362h-7.938v-4.476h7.938V183.362z M206.082,194.303H198.1v-9.324h7.982V194.303z M180.378,182.994
		h-7.985v-9.322h7.985V182.994z M120.471,142.243h7.893v6.921h-7.893V142.243z M128.364,152.256v8.123h-7.893v-8.123H128.364z
		 M101.411,138.272h-7.938v-3.276h7.938V138.272z M115.256,147.458v2.03h-7.938v-2.03H115.256z M101.411,149.487h-7.938v-4.477
		h7.938V149.487z M107.318,160.611v-3.139h7.938v3.139H107.318z M107.318,171.87v-4.384h7.938v4.384H107.318z M115.256,177.408
		v5.677h-7.938v-5.677H115.256z M101.411,171.87h-7.938v-6.922h7.938V171.87z M128.364,173.672v9.322h-7.893v-9.322H128.364z
		 M120.471,171.64v-9.368h7.893v9.368H120.471z M101.411,160.611h-7.938v-5.586h7.938V160.611z M75.704,152.256v8.123H67.72v-8.123
		H75.704z M62.597,149.487h-7.984v-2.03h7.984V149.487z M67.72,149.164v-6.921h7.984v6.921H67.72z M75.704,173.672v9.322H67.72
		v-9.322H75.704z M75.704,171.64H67.72v-9.368h7.984V171.64z M62.597,171.87h-7.984v-4.384h7.984V171.87z M62.597,160.611h-7.984
		v-3.139h7.984V160.611z M80.366,162.133h7.938v1.938h-7.938V162.133z M80.366,168.872h7.938v3.229h-7.938V168.872z M88.304,178.887
		v4.476h-7.938v-4.476H88.304z M88.304,188.9v5.678h-7.938V188.9H88.304z M93.473,184.979h7.938v9.324h-7.938V184.979z
		 M67.72,184.887h7.984v9.368H67.72V184.887z M62.597,194.303h-7.984v-6.878h7.984V194.303z M120.471,194.255v-9.368h7.893v9.368
		H120.471z M107.318,187.425h7.938v6.878h-7.938V187.425z M62.597,183.085h-7.984v-5.677h7.984V183.085z M101.411,183.085h-7.938
		v-8.122h7.938V183.085z M48.659,149.487h-7.938v-3.23h7.938V149.487z M48.659,138.272h-7.938v-2.03h7.938V138.272z M40.722,156.271
		h7.938v4.34h-7.938V156.271z M35.599,164.626h-7.892v-0.832h7.892V164.626z M27.707,168.872h7.892v3.229h-7.892V168.872z
		 M40.722,166.195h7.938v5.675h-7.938V166.195z M48.659,176.209v6.876h-7.938v-6.876H48.659z M48.659,194.303h-7.938v-8.125h7.938
		V194.303z M35.599,183.362h-7.892v-4.476h7.892V183.362z M27.707,188.9h7.892v5.678h-7.892V188.9z M250.619,152.025v-2.308h7.985
		v2.308H250.619z M258.604,160.611h-7.985v-3.139h7.985V160.611z M264.42,164.626v-0.832h7.984v0.832H264.42z M250.619,167.486
		h7.985v4.384h-7.985V167.486z M264.42,172.102v-3.229h7.984v3.229H264.42z M258.604,177.408v5.677h-7.985v-5.677H258.604z
		 M233.128,149.164h-7.984v-6.921h7.984V149.164z M219.927,149.487h-7.982v-2.03h7.982V149.487z M219.927,160.611h-7.982v-3.139
		h7.982V160.611z M211.944,167.486h7.982v4.384h-7.982V167.486z M225.144,162.271h7.984v9.368h-7.984V162.271z M219.927,177.408
		v5.677h-7.982v-5.677H219.927z M244.76,160.888h-7.985v-2.031h7.985V160.888z M236.774,168.872h7.985v3.229h-7.985V168.872z
		 M225.144,152.256h7.984v8.123h-7.984V152.256z M233.128,173.672v9.322h-7.984v-9.322H233.128z M244.76,183.362h-7.985v-4.476
		h7.985V183.362z M233.128,194.255h-7.984v-9.368h7.984V194.255z M244.76,188.9v5.678h-7.985V188.9H244.76z M211.944,187.425h7.982
		v6.878h-7.982V187.425z M272.404,188.9v5.678h-7.984V188.9H272.404z M272.404,178.887v4.476h-7.984v-4.476H272.404z
		 M250.619,194.303v-6.878h7.985v6.878H250.619z"/>
	<path fill-rule="evenodd" clip-rule="evenodd" fill="#EDE000" d="M150.424,194.532c-2.369,0-4.399,0.861-6.091,2.584
		c-1.691,1.692-2.524,3.738-2.493,6.138c0,2.4,0.847,4.433,2.538,6.093c1.723,1.691,3.769,2.538,6.138,2.538
		c2.401-0.029,4.446-0.893,6.14-2.583c1.691-1.695,2.521-3.74,2.492-6.139c0-2.4-0.846-4.447-2.539-6.14
		C154.884,195.362,152.824,194.532,150.424,194.532z M167.039,186.594c4.615,4.523,6.937,10.001,6.968,16.43
		c0.031,6.461-2.229,11.97-6.783,16.523c-4.522,4.584-10,6.892-16.431,6.921c-6.429,0.031-11.938-2.214-16.521-6.736
		c-4.585-4.524-6.893-10.001-6.923-16.43c-0.031-6.462,2.214-11.971,6.737-16.524c4.523-4.584,10.015-6.891,16.477-6.922
		C156.994,179.825,162.484,182.07,167.039,186.594z M193.437,197.07c-1.229,1.567-1.813,3.509-1.752,5.814
		c0.029,2.278,0.676,4.23,1.938,5.861c1.292,1.661,2.783,2.477,4.477,2.446c1.661-0.062,3.015-0.847,4.061-2.354
		c1.076-1.508,1.585-3.354,1.522-5.537c-0.06-2.186-0.661-4.063-1.8-5.632s-2.521-2.461-4.153-2.677
		C196.069,194.87,194.638,195.563,193.437,197.07z M200.775,184.793c3.662,0.616,6.708,2.77,9.139,6.462
		c2.431,3.539,3.723,7.646,3.877,12.322c0.123,4.738-0.923,8.83-3.139,12.277c-2.368,3.723-5.398,5.692-9.092,5.906
		c-3.971,0.308-7.461-1.369-10.477-5.029c-3.262-3.939-4.906-8.694-4.939-14.262c-0.06-5.508,1.447-10.046,4.523-13.614
		c1.354-1.569,2.908-2.692,4.662-3.37C197.114,184.748,198.931,184.516,200.775,184.793z M73.95,184.379
		c1.078,0.398,2.031,1.061,2.862,1.984c1.969,2.092,2.938,4.769,2.908,8.03c0.031,3.292-0.939,6.123-2.908,8.491
		c-1.876,2.185-4.046,3.2-6.507,3.046c-2.308-0.092-4.201-1.245-5.678-3.461c-1.415-2.029-2.092-4.444-2.03-7.245
		c0.092-2.77,0.861-5.216,2.308-7.339c1.508-2.153,3.384-3.431,5.63-3.831C71.673,183.871,72.813,183.979,73.95,184.379z
		 M75.197,191.255c-0.77-0.892-1.661-1.292-2.677-1.201c-1.045,0.126-1.908,0.663-2.584,1.616c-0.676,0.924-1.03,2.031-1.062,3.323
		c-0.03,1.323,0.292,2.415,0.97,3.277c0.676,0.892,1.522,1.354,2.539,1.384c1.045,0,1.969-0.506,2.769-1.522
		c0.769-0.955,1.154-2.106,1.154-3.462C76.335,193.316,75.966,192.178,75.197,191.255z M87.473,204.314
		c0.123-4.706,1.354-8.844,3.692-12.414c2.431-3.692,5.461-5.876,9.092-6.554c1.847-0.307,3.677-0.106,5.493,0.6
		c1.753,0.677,3.307,1.801,4.661,3.37c3.138,3.538,4.692,8.046,4.661,13.522c0.031,5.6-1.539,10.369-4.708,14.309
		c-3.015,3.723-6.508,5.444-10.476,5.167c-3.693-0.184-6.754-2.107-9.185-5.768C88.458,213.1,87.381,209.022,87.473,204.314z
		 M107.78,197.578c-1.231-1.508-2.677-2.185-4.338-2.031c-1.631,0.216-3,1.123-4.108,2.724c-1.107,1.569-1.692,3.445-1.754,5.63
		c-0.031,2.185,0.492,4.016,1.57,5.492c1.077,1.508,2.446,2.276,4.107,2.309c1.692,0,3.169-0.831,4.431-2.493
		c1.261-1.662,1.892-3.631,1.892-5.906C109.58,201.023,108.98,199.116,107.78,197.578z M231.19,190.792
		c-0.708-0.952-1.569-1.49-2.586-1.614c-1.046-0.062-1.938,0.354-2.676,1.247c-0.738,0.923-1.094,2.062-1.063,3.415
		c0,1.354,0.401,2.522,1.2,3.506c0.771,0.955,1.694,1.432,2.771,1.432c1.015-0.03,1.86-0.492,2.537-1.384
		c0.648-0.893,0.953-1.985,0.924-3.277C232.267,192.824,231.896,191.717,231.19,190.792z M230.497,183.133
		c2.277,0.369,4.169,1.645,5.679,3.83c1.505,2.093,2.307,4.537,2.397,7.34c0.093,2.768-0.553,5.183-1.938,7.244
		c-1.476,2.184-3.369,3.354-5.676,3.507c-2.462,0.186-4.63-0.814-6.508-2.999c-0.431-0.523-0.814-1.062-1.152-1.614
		c-1.232-1.972-1.847-4.247-1.847-6.831c-0.031-2.679,0.584-4.971,1.847-6.877c0.275-0.401,0.584-0.786,0.923-1.153
		c0.829-0.925,1.799-1.601,2.906-2.031S229.358,182.979,230.497,183.133z"/>
	<path fill-rule="evenodd" clip-rule="evenodd" fill="#9B1509" d="M194.269,177.547c-2.614,0.925-4.938,2.463-6.97,4.616
		c-2.185,2.339-3.892,5.2-5.123,8.584c-0.277,0.737-0.523,1.493-0.737,2.262c1.015,3.139,1.522,6.492,1.522,10.062
		c0.031,3.261-0.37,6.339-1.198,9.23c0.151,0.522,0.322,1.03,0.506,1.523c1.292,3.66,3.093,6.799,5.398,9.413
		c2.155,2.463,4.586,4.294,7.294,5.492c2.739,1.201,5.49,1.632,8.26,1.292c5.199-0.677,9.445-3.677,12.737-8.999
		c2.555-4.185,3.94-8.984,4.155-14.399c0.061-0.923,0.076-1.846,0.047-2.769c-0.031-0.371-0.047-0.754-0.047-1.154
		c-0.246-3.753-1.015-7.245-2.307-10.476c-0.492-1.231-1.029-2.4-1.615-3.508c-0.402-0.678-0.817-1.354-1.246-2.03
		c-3.478-5.324-7.725-8.522-12.738-9.601C199.531,176.501,196.884,176.655,194.269,177.547z M201.468,178.378
		c0.155-0.185,0.354-0.262,0.602-0.229c0.521,0,0.844,0.383,0.968,1.153c0.062,0.308,0.016,0.554-0.138,0.738
		c-0.153,0.246-0.338,0.353-0.555,0.322c-0.553,0-0.891-0.4-1.015-1.199C201.299,178.825,201.346,178.563,201.468,178.378z
		 M193.068,174.271c3.014-0.953,6.03-1.092,9.045-0.415c5.691,1.292,10.431,4.906,14.216,10.845c0.246,0.37,0.477,0.754,0.692,1.154
		c0.031-0.092,0.047-0.171,0.047-0.231c0.892-2.245,2.138-4.139,3.735-5.676c0.771-0.77,1.603-1.417,2.495-1.938
		c0.768-0.463,1.583-0.831,2.444-1.107c1.878-0.524,3.74-0.6,5.587-0.232c3.538,0.771,6.475,2.909,8.814,6.415
		c2.213,3.292,3.4,7.078,3.554,11.354c0.151,4.308-0.786,8.092-2.816,11.353c-2.216,3.569-5.152,5.631-8.815,6.185
		c-1.939,0.277-3.86,0.046-5.769-0.692c-1.079-0.431-2.076-0.969-2.999-1.615c-0.462-0.338-0.908-0.707-1.339-1.107
		c-0.401,5.385-1.894,10.215-4.477,14.491c-3.569,6.063-8.293,9.538-14.169,10.432c-3.077,0.523-6.185,0.122-9.323-1.2
		c-3.17-1.262-5.982-3.276-8.446-6.047c-2.277-2.615-4.138-5.646-5.583-9.09c-1.54,3.198-3.662,6.167-6.37,8.905
		c-6.277,6.37-13.892,9.57-22.844,9.601c-8.954,0.062-16.6-3.063-22.938-9.369c-2.708-2.646-4.846-5.539-6.415-8.677
		c-1.385,3.415-3.2,6.4-5.446,8.954c-2.4,2.831-5.185,4.906-8.354,6.23c-3.108,1.323-6.215,1.754-9.323,1.292
		c-5.907-0.861-10.677-4.293-14.307-10.293c-2.616-4.244-4.153-9.045-4.615-14.398c-1.293,1.169-2.723,2.076-4.292,2.723
		c-1.908,0.77-3.831,1.017-5.769,0.738c-3.631-0.492-6.583-2.508-8.861-6.046c-2.092-3.23-3.077-7.015-2.954-11.353
		c0.093-4.246,1.231-8.03,3.416-11.354c2.308-3.57,5.231-5.737,8.769-6.507c1.846-0.432,3.708-0.386,5.584,0.139
		c1.846,0.553,3.508,1.554,4.985,2.999c1.6,1.508,2.846,3.385,3.738,5.631c0.03,0.061,0.046,0.139,0.046,0.23
		c0.246-0.401,0.477-0.784,0.691-1.154c3.724-5.999,8.431-9.677,14.124-11.029c2.984-0.708,5.999-0.6,9.045,0.323
		c2.954,0.952,5.63,2.614,8.03,4.983c2.4,2.432,4.308,5.37,5.723,8.815c1.508-2.894,3.493-5.57,5.954-8.031
		c6.276-6.369,13.875-9.584,22.799-9.645c8.954-0.032,16.614,3.091,22.983,9.369c2.523,2.491,4.555,5.184,6.093,8.076
		c1.354-3.509,3.229-6.492,5.63-8.954C187.452,176.947,190.113,175.255,193.068,174.271z M141.794,175.239
		c0.4,0,0.752,0.139,1.061,0.416c0.277,0.309,0.43,0.662,0.46,1.063c0,0.398-0.154,0.754-0.46,1.061
		c-0.277,0.276-0.63,0.431-1.061,0.461c-0.401,0-0.738-0.153-1.016-0.461c-0.309-0.277-0.461-0.63-0.461-1.061
		c0-0.4,0.137-0.74,0.414-1.016C141.041,175.394,141.394,175.239,141.794,175.239z M170.178,183.133
		c-0.277,0.308-0.631,0.461-1.062,0.461c-0.401,0-0.754-0.138-1.063-0.415c-0.307-0.308-0.462-0.661-0.462-1.062
		s0.155-0.755,0.462-1.063c0.309-0.307,0.661-0.461,1.063-0.461c0.398,0,0.753,0.154,1.062,0.461
		c0.275,0.276,0.415,0.615,0.415,1.016C170.593,182.501,170.453,182.855,170.178,183.133z M150.424,194.532
		c2.4,0,4.46,0.83,6.185,2.491c1.693,1.692,2.539,3.739,2.539,6.14c0.029,2.398-0.801,4.443-2.492,6.139
		c-1.693,1.69-3.738,2.554-6.14,2.583c-2.369,0-4.415-0.847-6.138-2.538c-1.691-1.66-2.538-3.692-2.538-6.093
		c-0.031-2.399,0.801-4.445,2.493-6.138C146.025,195.394,148.055,194.532,150.424,194.532z M191.731,183.962
		c1.936-1.63,4.061-2.615,6.368-2.952c4.369-0.647,8.398,0.815,12.092,4.384c2.431,2.339,4.277,5.169,5.538,8.492
		c0.553,1.508,0.999,3.107,1.339,4.8c0.246,1.23,0.415,2.431,0.506,3.6c0.34,4.062-0.169,8.001-1.522,11.814
		c-1.876,5.076-4.815,8.554-8.815,10.432c-2.091,1.015-4.323,1.398-6.692,1.153c-2.275-0.216-4.431-1.03-6.461-2.447
		c-4.645-3.169-7.706-8.075-9.184-14.722c-1.508-6.584-0.846-12.737,1.984-18.462C188.145,187.563,189.761,185.532,191.731,183.962z
		 M193.437,197.07c1.201-1.508,2.633-2.2,4.293-2.077c1.632,0.216,3.015,1.107,4.153,2.677s1.74,3.446,1.8,5.632
		c0.063,2.184-0.446,4.029-1.522,5.537c-1.046,1.507-2.399,2.292-4.061,2.354c-1.693,0.03-3.185-0.785-4.477-2.446
		c-1.263-1.631-1.909-3.583-1.938-5.861C191.623,200.579,192.207,198.638,193.437,197.07z M167.039,186.594
		c-4.555-4.523-10.045-6.769-16.477-6.738c-6.462,0.031-11.954,2.338-16.477,6.922c-4.523,4.554-6.769,10.063-6.737,16.524
		c0.03,6.429,2.337,11.905,6.923,16.43c4.584,4.522,10.092,6.768,16.521,6.736c6.431-0.029,11.908-2.337,16.431-6.921
		c4.555-4.554,6.814-10.063,6.783-16.523C173.976,196.595,171.654,191.117,167.039,186.594z M195.33,185.485
		c-1.754,0.678-3.308,1.801-4.662,3.37c-3.076,3.568-4.583,8.106-4.523,13.614c0.033,5.567,1.678,10.322,4.939,14.262
		c3.016,3.66,6.506,5.337,10.477,5.029c3.693-0.214,6.724-2.184,9.092-5.906c2.216-3.447,3.262-7.539,3.139-12.277
		c-0.154-4.676-1.446-8.783-3.877-12.322c-2.431-3.692-5.477-5.846-9.139-6.462C198.931,184.516,197.114,184.748,195.33,185.485z
		 M180.378,198.962c-0.34-2.646-1.017-5.153-2.033-7.522c-1.477-3.539-3.689-6.753-6.645-9.646
		c-5.939-5.876-13.076-8.783-21.413-8.722c-8.37,0.03-15.492,3.015-21.37,8.953c-2.769,2.769-4.877,5.831-6.323,9.185
		c-0.893,2.092-1.539,4.292-1.938,6.6c-0.309,1.815-0.462,3.692-0.462,5.63c0,1.631,0.123,3.216,0.369,4.754
		c0.339,2.339,0.955,4.569,1.846,6.692c1.477,3.6,3.723,6.892,6.739,9.876c5.939,5.876,13.092,8.785,21.461,8.724
		c8.337-0.032,15.444-3.017,21.32-8.953c3.139-3.169,5.432-6.677,6.879-10.522c0.892-2.433,1.46-5,1.705-7.707
		c0.095-1.048,0.142-2.109,0.142-3.186C180.622,201.702,180.53,200.316,180.378,198.962z M184.16,188.394
		c0.093-0.308,0.277-0.477,0.555-0.508c0.309-0.124,0.584-0.108,0.83,0.047c0.646,0.461,0.817,1.046,0.509,1.754
		c-0.094,0.308-0.277,0.506-0.555,0.6c-0.307,0.093-0.584,0.045-0.831-0.139C184.054,189.809,183.885,189.225,184.16,188.394z
		 M177.053,207.962c0.062-0.123,0.155-0.216,0.277-0.275c0.217-0.125,0.464-0.187,0.739-0.187c0.431,0,0.785,0.153,1.059,0.462
		c0.311,0.276,0.464,0.632,0.464,1.061c0,0.4-0.153,0.739-0.464,1.017c-0.273,0.307-0.612,0.461-1.013,0.461
		c-0.093,0-0.186,0-0.277,0c-0.309-0.061-0.568-0.214-0.785-0.461c-0.307-0.277-0.462-0.616-0.462-1.017
		C176.591,208.594,176.746,208.238,177.053,207.962z M185.96,217.1c-0.644,0.523-1.137,0.447-1.476-0.231
		c-0.399-0.677-0.34-1.29,0.184-1.846c0.247-0.183,0.524-0.246,0.831-0.183c0.277,0.03,0.492,0.198,0.646,0.506
		c0.218,0.246,0.293,0.554,0.232,0.925C186.315,216.607,186.178,216.884,185.96,217.1z M169.068,221.67
		c-5.015,5.075-11.105,7.629-18.275,7.659c-7.14,0.063-13.229-2.43-18.275-7.475c-5.077-4.986-7.631-11.047-7.662-18.185
		c-0.061-7.139,2.416-13.261,7.43-18.368c5.016-5.046,11.093-7.584,18.23-7.616c7.171-0.062,13.276,2.415,18.323,7.432
		c5.077,5.016,7.63,11.092,7.661,18.229C176.53,210.484,174.054,216.592,169.068,221.67z M106.718,178.01
		c-2.615-0.861-5.261-1-7.938-0.415c-5.015,1.168-9.23,4.43-12.645,9.784c-0.431,0.677-0.831,1.369-1.2,2.076
		c-0.615,1.107-1.138,2.262-1.569,3.462c-1.262,3.23-1.984,6.737-2.169,10.521c-0.03,0.4-0.046,0.801-0.046,1.2
		c-0.031,0.923-0.016,1.831,0.046,2.723c0.277,5.446,1.723,10.246,4.338,14.399c3.323,5.261,7.584,8.199,12.784,8.816
		c2.8,0.306,5.538-0.154,8.216-1.386c2.737-1.231,5.168-3.093,7.291-5.584c2.246-2.616,4-5.753,5.262-9.415
		c0.154-0.461,0.292-0.922,0.415-1.385c-0.861-2.954-1.308-6.077-1.339-9.369c0-3.599,0.507-6.999,1.523-10.199
		c-0.215-0.738-0.461-1.461-0.739-2.17c-1.292-3.353-3.03-6.183-5.215-8.49C111.672,180.425,109.333,178.902,106.718,178.01z
		 M82.12,187.425c-0.8-1.97-1.877-3.647-3.23-5.03c-1.292-1.262-2.739-2.169-4.338-2.725c-1.631-0.491-3.277-0.567-4.938-0.229
		c-3.108,0.677-5.724,2.6-7.846,5.768c-1.97,2.955-3,6.37-3.093,10.247c-0.062,3.875,0.846,7.245,2.723,10.106
		c2.062,3.139,4.708,4.878,7.938,5.216c1.724,0.215,3.416-0.047,5.077-0.785c1.692-0.706,3.2-1.814,4.523-3.323
		c0.092-0.092,0.185-0.199,0.276-0.322c0-0.555,0-1.123,0-1.708c0.031-1.075,0.093-2.123,0.185-3.138
		c-1.015,2.215-2.492,3.969-4.43,5.261c-1.262,0.832-2.601,1.323-4.016,1.477c-1.446,0.154-2.815-0.061-4.106-0.645
		c-2.523-1.078-4.37-3.124-5.539-6.138c-1.139-2.894-1.384-5.909-0.739-9.048c0.616-3.292,2-5.952,4.154-7.983
		c2.247-2.123,4.738-3,7.477-2.632c1.415,0.186,2.738,0.755,3.969,1.709c1.23,0.893,2.246,2.077,3.045,3.554
		c1.078,2.061,1.662,4.215,1.754,6.461c0.492-1.508,1.077-2.984,1.753-4.431C82.535,188.532,82.335,187.979,82.12,187.425z
		 M80.366,185.9c0.185,0.03,0.308,0.124,0.369,0.277c0.215,0.493,0.123,0.847-0.277,1.063c-0.154,0.123-0.323,0.153-0.508,0.091
		c-0.184-0.061-0.307-0.168-0.37-0.322c-0.184-0.431-0.092-0.784,0.277-1.063C80.012,185.855,80.181,185.84,80.366,185.9z
		 M85.212,193.978c-0.246,0.585-0.585,0.724-1.016,0.416c-0.399-0.4-0.43-0.862-0.092-1.385c0.246-0.647,0.569-0.784,0.969-0.415
		C85.412,192.932,85.458,193.394,85.212,193.978z M85.488,194.532c1.201-3.323,2.986-6.155,5.354-8.492
		c3.692-3.6,7.723-5.108,12.092-4.524c2.277,0.34,4.4,1.31,6.369,2.909c2,1.538,3.63,3.554,4.892,6.045
		c2.892,5.662,3.646,11.8,2.262,18.415c-1.447,6.678-4.462,11.63-9.047,14.86c-2.03,1.415-4.184,2.247-6.46,2.492
		c-2.369,0.278-4.585-0.076-6.646-1.062c-4.062-1.846-7.046-5.307-8.954-10.384c-1.415-3.783-1.969-7.691-1.661-11.722
		c0.061-1.201,0.214-2.416,0.461-3.646C84.458,197.7,84.904,196.07,85.488,194.532z M70.12,180.732
		c-0.031,0.461-0.215,0.692-0.554,0.692c-0.153,0.031-0.277-0.03-0.369-0.186c-0.092-0.122-0.108-0.261-0.046-0.414
		c0.031-0.463,0.215-0.692,0.553-0.692c0.123-0.032,0.247,0.015,0.37,0.139C70.166,180.362,70.182,180.518,70.12,180.732z
		 M76.812,186.363c-0.831-0.924-1.784-1.586-2.862-1.984c-1.138-0.4-2.277-0.508-3.415-0.324c-2.247,0.4-4.123,1.678-5.63,3.831
		c-1.447,2.123-2.216,4.569-2.308,7.339c-0.062,2.801,0.615,5.216,2.03,7.245c1.477,2.216,3.37,3.369,5.678,3.461
		c2.461,0.154,4.63-0.861,6.507-3.046c1.969-2.368,2.938-5.199,2.908-8.491C79.75,191.132,78.781,188.455,76.812,186.363z
		 M60.659,188.484c0.154-0.367,0.354-0.445,0.6-0.229c0.215,0.185,0.246,0.462,0.093,0.831c-0.154,0.338-0.37,0.416-0.646,0.23
		C60.459,189.069,60.443,188.794,60.659,188.484z M75.151,198.132c-0.8,1.017-1.724,1.522-2.769,1.522
		c-1.016-0.03-1.862-0.492-2.539-1.384c-0.677-0.862-1-1.954-0.97-3.277c0.031-1.292,0.385-2.399,1.062-3.323
		c0.677-0.953,1.539-1.49,2.584-1.616c1.016-0.091,1.908,0.31,2.677,1.201c0.77,0.923,1.139,2.062,1.108,3.415
		C76.305,196.025,75.919,197.177,75.151,198.132z M68.781,209.302c0.062-0.433,0.247-0.617,0.554-0.556
		c0.401,0.093,0.57,0.369,0.508,0.832c-0.031,0.184-0.107,0.337-0.23,0.461c-0.092,0.092-0.2,0.108-0.324,0.046
		C68.951,210.054,68.781,209.793,68.781,209.302z M60.89,202.285c-0.246,0.185-0.431,0.077-0.554-0.323
		c-0.123-0.34-0.046-0.615,0.23-0.831c0.246-0.153,0.446-0.03,0.6,0.37C61.29,201.869,61.197,202.132,60.89,202.285z
		 M85.073,215.207c0.185,0.647,0.031,1.123-0.461,1.431c-0.431,0.246-0.723,0.048-0.877-0.6c-0.185-0.585-0.062-1.045,0.369-1.385
		C84.504,214.407,84.827,214.594,85.073,215.207z M87.473,204.314c-0.092,4.708,0.985,8.785,3.231,12.232
		c2.431,3.66,5.492,5.584,9.185,5.768c3.968,0.277,7.461-1.444,10.476-5.167c3.168-3.939,4.738-8.709,4.708-14.309
		c0.031-5.477-1.523-9.984-4.661-13.522c-1.354-1.569-2.908-2.693-4.661-3.37c-1.815-0.706-3.646-0.906-5.493-0.6
		c-3.63,0.678-6.661,2.861-9.092,6.554C88.827,195.471,87.596,199.608,87.473,204.314z M124.533,197.346
		c0,0.37-0.139,0.709-0.416,1.017c-0.03,0-0.045,0.016-0.045,0.046c-0.277,0.277-0.631,0.415-1.062,0.415
		c-0.4,0-0.739-0.138-1.015-0.415c-0.338-0.308-0.508-0.661-0.508-1.063c0-0.398,0.154-0.751,0.462-1.061
		c0.276-0.308,0.631-0.461,1.062-0.461c0.307,0,0.568,0.077,0.785,0.23c0.092,0.062,0.169,0.139,0.23,0.23
		C124.333,196.563,124.502,196.916,124.533,197.346z M116.226,188.302c0.277,0.062,0.477,0.23,0.6,0.508
		c0.277,0.861,0.107,1.445-0.508,1.753c-0.246,0.216-0.508,0.277-0.785,0.185c-0.308-0.122-0.508-0.322-0.6-0.6
		c-0.277-0.738-0.107-1.323,0.508-1.754C115.656,188.238,115.918,188.208,116.226,188.302z M99.657,179.763
		c-0.092,0.738-0.416,1.108-0.969,1.108c-0.215,0.061-0.4-0.016-0.554-0.232c-0.154-0.183-0.199-0.43-0.138-0.737
		c0.062-0.769,0.37-1.169,0.923-1.199c0.215-0.032,0.4,0.046,0.554,0.229C99.626,179.117,99.688,179.395,99.657,179.763z
		 M103.442,195.547c1.661-0.153,3.107,0.523,4.338,2.031c1.2,1.538,1.8,3.445,1.8,5.724c0,2.275-0.63,4.244-1.892,5.906
		c-1.262,1.662-2.739,2.493-4.431,2.493c-1.661-0.032-3.03-0.801-4.107-2.309c-1.078-1.477-1.601-3.308-1.57-5.492
		c0.062-2.185,0.647-4.061,1.754-5.63C100.442,196.67,101.811,195.763,103.442,195.547z M114.979,216.731
		c-0.031-0.401,0.046-0.723,0.231-0.97c0.123-0.277,0.338-0.446,0.646-0.509c0.277-0.03,0.539,0.048,0.785,0.231
		c0.554,0.524,0.631,1.138,0.23,1.846c-0.338,0.678-0.815,0.739-1.431,0.185C115.195,217.33,115.041,217.068,114.979,216.731z
		 M132.886,223.146c0.278,0.307,0.431,0.66,0.461,1.061c0,0.399-0.153,0.753-0.461,1.063c-0.309,0.308-0.66,0.46-1.061,0.46
		c-0.4,0-0.754-0.139-1.062-0.415c-0.277-0.307-0.416-0.66-0.416-1.061c-0.031-0.431,0.107-0.785,0.416-1.063
		c0.276-0.308,0.631-0.461,1.062-0.461C132.226,222.73,132.578,222.869,132.886,223.146z M99.195,228.453
		c-0.062,0.338-0.184,0.6-0.369,0.785c-0.185,0.215-0.369,0.275-0.554,0.185c-0.554-0.124-0.83-0.585-0.83-1.386
		c0.092-0.738,0.399-1.061,0.923-0.969C99.011,227.254,99.288,227.715,99.195,228.453z M202.715,228.685
		c-0.187-0.186-0.309-0.446-0.37-0.786c-0.092-0.738,0.17-1.198,0.783-1.383c0.523-0.123,0.848,0.185,0.97,0.923
		c0,0.831-0.262,1.291-0.783,1.385C203.099,228.946,202.899,228.899,202.715,228.685z M159.147,228.591
		c0.397-0.029,0.737,0.109,1.013,0.417c0.311,0.276,0.464,0.631,0.464,1.062c0,0.398-0.14,0.754-0.415,1.061
		c-0.309,0.277-0.664,0.432-1.062,0.461c-0.399,0-0.755-0.152-1.063-0.461c-0.275-0.276-0.431-0.632-0.462-1.061
		c0-0.4,0.155-0.755,0.462-1.062C158.362,228.729,158.717,228.591,159.147,228.591z M240.465,187.425
		c0.186,0.308,0.155,0.584-0.092,0.83c-0.246,0.185-0.446,0.108-0.6-0.23c-0.152-0.338-0.122-0.615,0.094-0.83
		C240.082,186.979,240.28,187.056,240.465,187.425z M236.357,183.502c2.155,2.03,3.569,4.661,4.249,7.892
		c0.677,3.139,0.459,6.169-0.648,9.092c-1.168,3.015-2.983,5.076-5.445,6.184c-1.322,0.617-2.708,0.847-4.153,0.692
		c-1.416-0.122-2.754-0.6-4.015-1.431c-1.201-0.798-2.216-1.755-3.046-2.86c-0.555-0.739-1.048-1.555-1.479-2.446
		c0.124,1.046,0.2,2.121,0.231,3.23c0.03,0.586,0.046,1.17,0.046,1.754c0.063,0.092,0.153,0.199,0.277,0.322
		c0.277,0.308,0.584,0.616,0.924,0.925c1.107,0.983,2.307,1.753,3.599,2.308c1.693,0.707,3.4,0.952,5.125,0.737
		c3.229-0.369,5.858-2.139,7.891-5.307c1.846-2.892,2.707-6.276,2.584-10.154c-0.155-3.877-1.231-7.261-3.231-10.153
		c-2.153-3.169-4.783-5.077-7.892-5.723c-1.66-0.338-3.308-0.231-4.938,0.323c-1.139,0.369-2.185,0.938-3.137,1.707
		c-0.401,0.309-0.786,0.646-1.154,1.016c-1.354,1.385-2.415,3.062-3.186,5.029c-0.215,0.586-0.399,1.169-0.553,1.755
		c0.675,1.446,1.261,2.923,1.754,4.431c0.062-2.277,0.644-4.461,1.754-6.554c0.401-0.771,0.861-1.463,1.385-2.077
		c0.492-0.584,1.03-1.092,1.616-1.522c1.198-0.954,2.506-1.538,3.922-1.753C231.543,180.548,234.05,181.41,236.357,183.502z
		 M230.497,183.133c-1.139-0.154-2.262-0.016-3.369,0.415s-2.077,1.106-2.906,2.031c-0.339,0.367-0.647,0.752-0.923,1.153
		c-1.263,1.906-1.878,4.198-1.847,6.877c0,2.584,0.614,4.859,1.847,6.831c0.338,0.553,0.722,1.091,1.152,1.614
		c1.878,2.185,4.046,3.185,6.508,2.999c2.307-0.153,4.2-1.323,5.676-3.507c1.386-2.062,2.031-4.477,1.938-7.244
		c-0.091-2.803-0.893-5.247-2.397-7.34C234.666,184.777,232.774,183.502,230.497,183.133z M232.528,208.377
		c0,0.492-0.153,0.771-0.462,0.831c-0.124,0.061-0.246,0.03-0.37-0.093c-0.122-0.093-0.198-0.246-0.23-0.461
		c-0.061-0.431,0.108-0.708,0.508-0.831C232.282,207.762,232.467,207.946,232.528,208.377z M217.852,215.115
		c-0.153,0.616-0.446,0.8-0.877,0.554c-0.492-0.277-0.646-0.723-0.462-1.339c0.247-0.646,0.556-0.846,0.924-0.599
		C217.898,214.069,218.036,214.53,217.852,215.115z M216.005,193.285c-0.246-0.584-0.198-1.045,0.14-1.385
		c0.399-0.4,0.724-0.277,0.97,0.37c0.338,0.521,0.307,0.969-0.093,1.339C216.591,193.978,216.251,193.87,216.005,193.285z
		 M220.484,185.163c0.182-0.062,0.353-0.062,0.506,0c0.399,0.276,0.506,0.631,0.322,1.062c-0.061,0.152-0.185,0.261-0.367,0.323
		c-0.155,0.062-0.31,0.03-0.461-0.092c-0.402-0.186-0.524-0.525-0.371-1.017C220.205,185.286,220.329,185.192,220.484,185.163z
		 M240.189,200.485c0.154-0.369,0.354-0.492,0.601-0.369c0.275,0.185,0.354,0.463,0.231,0.83c-0.094,0.37-0.262,0.494-0.509,0.37
		C240.204,201.131,240.098,200.854,240.189,200.485z M231.374,197.394c-0.677,0.892-1.522,1.354-2.537,1.384
		c-1.076,0-2-0.477-2.771-1.432c-0.799-0.983-1.2-2.152-1.2-3.506c-0.031-1.354,0.324-2.492,1.063-3.415
		c0.737-0.893,1.63-1.309,2.676-1.247c1.017,0.124,1.878,0.662,2.586,1.614c0.706,0.925,1.076,2.032,1.107,3.324
		C232.327,195.408,232.022,196.501,231.374,197.394z M230.959,179.348c0.061-0.124,0.169-0.169,0.322-0.139
		c0.34,0,0.555,0.231,0.647,0.692c0,0.186-0.032,0.338-0.093,0.461c-0.091,0.123-0.215,0.169-0.37,0.139
		c-0.338,0-0.538-0.215-0.6-0.646C230.835,179.64,230.866,179.471,230.959,179.348z"/>
	<path fill-rule="evenodd" clip-rule="evenodd" fill="#DC8331" d="M201.468,178.378c-0.122,0.186-0.169,0.447-0.138,0.785
		c0.124,0.799,0.462,1.199,1.015,1.199c0.217,0.03,0.401-0.076,0.555-0.322c0.153-0.185,0.199-0.431,0.138-0.738
		c-0.124-0.771-0.446-1.153-0.968-1.153C201.822,178.116,201.623,178.193,201.468,178.378z M167.592,182.117
		c0,0.4,0.155,0.754,0.462,1.062c0.309,0.277,0.661,0.415,1.063,0.415c0.431,0,0.784-0.153,1.062-0.461
		c0.275-0.277,0.415-0.632,0.415-1.063c0-0.4-0.14-0.739-0.415-1.016c-0.309-0.307-0.663-0.461-1.062-0.461
		c-0.401,0-0.754,0.154-1.063,0.461C167.747,181.362,167.592,181.717,167.592,182.117z M143.316,176.718
		c-0.031-0.4-0.183-0.754-0.46-1.063c-0.309-0.277-0.661-0.416-1.061-0.416c-0.401,0-0.754,0.154-1.063,0.463
		c-0.277,0.275-0.414,0.615-0.414,1.016c0,0.431,0.152,0.783,0.461,1.061c0.277,0.308,0.615,0.461,1.016,0.461
		c0.431-0.03,0.784-0.185,1.061-0.461C143.162,177.472,143.316,177.116,143.316,176.718z M194.269,177.547
		c2.615-0.892,5.263-1.046,7.938-0.461c5.014,1.078,9.261,4.276,12.738,9.601c0.429,0.677,0.844,1.353,1.246,2.03
		c0.586,1.107,1.123,2.276,1.615,3.508c1.292,3.23,2.061,6.723,2.307,10.476c0,0.4,0.016,0.783,0.047,1.154
		c0.029,0.923,0.014,1.846-0.047,2.769c-0.215,5.415-1.601,10.215-4.155,14.399c-3.292,5.322-7.538,8.322-12.737,8.999
		c-2.77,0.34-5.521-0.091-8.26-1.292c-2.708-1.198-5.139-3.029-7.294-5.492c-2.306-2.614-4.106-5.753-5.398-9.413
		c-0.184-0.493-0.354-1.001-0.506-1.523c0.828-2.892,1.229-5.97,1.198-9.23c0-3.569-0.508-6.923-1.522-10.062
		c0.214-0.769,0.46-1.524,0.737-2.262c1.231-3.384,2.938-6.245,5.123-8.584C189.33,180.01,191.654,178.472,194.269,177.547z
		 M191.731,183.962c-1.971,1.57-3.587,3.601-4.848,6.092c-2.83,5.725-3.492,11.878-1.984,18.462
		c1.478,6.646,4.539,11.553,9.184,14.722c2.03,1.417,4.186,2.231,6.461,2.447c2.369,0.245,4.602-0.139,6.692-1.153
		c4-1.878,6.939-5.355,8.815-10.432c1.354-3.813,1.862-7.753,1.522-11.814c-0.091-1.169-0.26-2.369-0.506-3.6
		c-0.34-1.692-0.786-3.292-1.339-4.8c-1.261-3.323-3.107-6.153-5.538-8.492c-3.693-3.568-7.723-5.031-12.092-4.384
		C195.792,181.347,193.667,182.332,191.731,183.962z M184.16,188.394c-0.275,0.831-0.106,1.415,0.508,1.754
		c0.247,0.184,0.524,0.231,0.831,0.139c0.277-0.094,0.461-0.292,0.555-0.6c0.309-0.708,0.138-1.293-0.509-1.754
		c-0.246-0.155-0.521-0.171-0.83-0.047C184.438,187.917,184.253,188.086,184.16,188.394z M180.378,198.962
		c0.152,1.354,0.244,2.74,0.277,4.154c0,1.076-0.047,2.138-0.142,3.186c-0.245,2.707-0.813,5.274-1.705,7.707
		c-1.447,3.846-3.74,7.354-6.879,10.522c-5.876,5.937-12.983,8.921-21.32,8.953c-8.369,0.062-15.522-2.848-21.461-8.724
		c-3.016-2.984-5.262-6.276-6.739-9.876c-0.892-2.123-1.507-4.354-1.846-6.692c-0.246-1.538-0.369-3.123-0.369-4.754
		c0-1.938,0.154-3.814,0.462-5.63c0.399-2.308,1.045-4.508,1.938-6.6c1.446-3.354,3.554-6.416,6.323-9.185
		c5.878-5.938,13-8.923,21.37-8.953c8.337-0.062,15.474,2.846,21.413,8.722c2.955,2.894,5.168,6.107,6.645,9.646
		C179.361,193.809,180.038,196.316,180.378,198.962z M176.591,209.022c0,0.4,0.155,0.739,0.462,1.017
		c0.217,0.247,0.477,0.4,0.785,0.461c0.092,0,0.185,0,0.277,0c0.4,0,0.739-0.154,1.013-0.461c0.311-0.277,0.464-0.616,0.464-1.017
		c0-0.429-0.153-0.784-0.464-1.061c-0.273-0.309-0.628-0.462-1.059-0.462c-0.275,0-0.522,0.062-0.739,0.187
		c-0.122,0.06-0.216,0.152-0.277,0.275C176.746,208.238,176.591,208.594,176.591,209.022z M186.145,215.346
		c-0.153-0.308-0.368-0.476-0.646-0.506c-0.307-0.063-0.584,0-0.831,0.183c-0.523,0.556-0.583,1.169-0.184,1.846
		c0.339,0.679,0.832,0.755,1.476,0.231c0.218-0.216,0.355-0.492,0.417-0.829C186.438,215.899,186.362,215.592,186.145,215.346z
		 M169.068,221.67c4.985-5.078,7.462-11.186,7.432-18.323c-0.031-7.138-2.584-13.214-7.661-18.229
		c-5.047-5.017-11.152-7.493-18.323-7.432c-7.137,0.032-13.214,2.57-18.23,7.616c-5.015,5.107-7.491,11.229-7.43,18.368
		c0.031,7.138,2.585,13.198,7.662,18.185c5.046,5.045,11.136,7.538,18.275,7.475C157.963,229.299,164.054,226.745,169.068,221.67z
		 M106.718,178.01c2.615,0.893,4.954,2.415,7.015,4.569c2.185,2.308,3.923,5.138,5.215,8.49c0.278,0.709,0.523,1.432,0.739,2.17
		c-1.016,3.2-1.523,6.601-1.523,10.199c0.031,3.292,0.478,6.415,1.339,9.369c-0.123,0.463-0.261,0.924-0.415,1.385
		c-1.262,3.662-3.016,6.799-5.262,9.415c-2.123,2.491-4.554,4.353-7.291,5.584c-2.678,1.231-5.416,1.691-8.216,1.386
		c-5.2-0.617-9.461-3.556-12.784-8.816c-2.615-4.153-4.062-8.953-4.338-14.399c-0.062-0.892-0.077-1.8-0.046-2.723
		c0-0.399,0.016-0.8,0.046-1.2c0.185-3.784,0.908-7.291,2.169-10.521c0.431-1.2,0.954-2.354,1.569-3.462
		c0.37-0.707,0.77-1.399,1.2-2.076c3.415-5.354,7.63-8.616,12.645-9.784C101.458,177.01,104.104,177.148,106.718,178.01z
		 M98.827,229.238c0.185-0.186,0.307-0.447,0.369-0.785c0.092-0.738-0.184-1.199-0.83-1.385c-0.524-0.092-0.831,0.23-0.923,0.969
		c0,0.801,0.276,1.262,0.83,1.386C98.458,229.514,98.642,229.453,98.827,229.238z M132.886,223.146
		c-0.309-0.277-0.66-0.416-1.061-0.416c-0.431,0-0.785,0.153-1.062,0.461c-0.308,0.277-0.447,0.632-0.416,1.063
		c0,0.4,0.139,0.754,0.416,1.061c0.308,0.276,0.661,0.415,1.062,0.415c0.401,0,0.752-0.152,1.061-0.46
		c0.308-0.31,0.461-0.663,0.461-1.063C133.317,223.807,133.164,223.453,132.886,223.146z M114.979,216.731
		c0.062,0.337,0.215,0.599,0.461,0.783c0.615,0.555,1.092,0.493,1.431-0.185c0.4-0.708,0.323-1.321-0.23-1.846
		c-0.246-0.184-0.508-0.262-0.785-0.231c-0.308,0.063-0.523,0.231-0.646,0.509C115.025,216.009,114.949,216.33,114.979,216.731z
		 M99.657,179.763c0.031-0.368-0.031-0.646-0.185-0.831c-0.153-0.184-0.338-0.262-0.554-0.229c-0.553,0.03-0.861,0.431-0.923,1.199
		c-0.061,0.308-0.016,0.555,0.138,0.737c0.154,0.217,0.339,0.293,0.554,0.232C99.241,180.871,99.564,180.501,99.657,179.763z
		 M116.226,188.302c-0.308-0.094-0.569-0.063-0.785,0.092c-0.615,0.431-0.785,1.016-0.508,1.754c0.092,0.277,0.292,0.478,0.6,0.6
		c0.277,0.093,0.539,0.031,0.785-0.185c0.615-0.308,0.785-0.892,0.508-1.753C116.703,188.532,116.502,188.363,116.226,188.302z
		 M124.025,196.285c-0.061-0.092-0.138-0.169-0.23-0.23c-0.216-0.153-0.478-0.23-0.785-0.23c-0.431,0-0.785,0.153-1.062,0.461
		c-0.308,0.31-0.462,0.662-0.462,1.061c0,0.401,0.17,0.755,0.508,1.063c0.276,0.277,0.615,0.415,1.015,0.415
		c0.431,0,0.785-0.138,1.062-0.415c0-0.03,0.016-0.046,0.045-0.046c0.277-0.308,0.416-0.646,0.416-1.017
		C124.502,196.916,124.333,196.563,124.025,196.285z M85.073,215.207c-0.247-0.613-0.569-0.8-0.969-0.554
		c-0.431,0.34-0.554,0.8-0.369,1.385c0.154,0.647,0.446,0.846,0.877,0.6C85.104,216.33,85.258,215.854,85.073,215.207z
		 M60.89,202.285c0.308-0.153,0.4-0.416,0.277-0.784c-0.154-0.4-0.354-0.523-0.6-0.37c-0.277,0.216-0.354,0.491-0.23,0.831
		C60.459,202.362,60.644,202.47,60.89,202.285z M69.289,210.085c0.124,0.063,0.231,0.046,0.324-0.046
		c0.123-0.124,0.199-0.277,0.23-0.461c0.062-0.463-0.107-0.739-0.508-0.832c-0.307-0.062-0.492,0.123-0.554,0.556
		C68.781,209.793,68.951,210.054,69.289,210.085z M61.352,189.086c0.153-0.369,0.123-0.646-0.093-0.831
		c-0.246-0.216-0.446-0.138-0.6,0.229c-0.215,0.31-0.2,0.585,0.047,0.832C60.982,189.502,61.197,189.424,61.352,189.086z
		 M70.12,180.732c0.062-0.215,0.046-0.37-0.046-0.461c-0.123-0.124-0.247-0.171-0.37-0.139c-0.338,0-0.522,0.229-0.553,0.692
		c-0.062,0.153-0.046,0.292,0.046,0.414c0.092,0.155,0.215,0.217,0.369,0.186C69.905,181.425,70.089,181.193,70.12,180.732z
		 M85.488,194.532c-0.584,1.538-1.03,3.168-1.337,4.892c-0.247,1.23-0.4,2.445-0.461,3.646c-0.309,4.03,0.246,7.938,1.661,11.722
		c1.908,5.077,4.892,8.538,8.954,10.384c2.061,0.985,4.276,1.34,6.646,1.062c2.277-0.245,4.431-1.077,6.46-2.492
		c4.585-3.23,7.6-8.183,9.047-14.86c1.384-6.615,0.63-12.753-2.262-18.415c-1.261-2.491-2.892-4.507-4.892-6.045
		c-1.969-1.6-4.092-2.569-6.369-2.909c-4.369-0.584-8.399,0.925-12.092,4.524C88.474,188.377,86.688,191.209,85.488,194.532z
		 M85.212,193.978c0.246-0.584,0.2-1.046-0.139-1.384c-0.4-0.369-0.723-0.232-0.969,0.415c-0.338,0.522-0.308,0.984,0.092,1.385
		C84.626,194.701,84.966,194.563,85.212,193.978z M82.12,187.425c0.215,0.554,0.416,1.107,0.599,1.661
		c-0.676,1.446-1.261,2.923-1.753,4.431c-0.092-2.246-0.677-4.4-1.754-6.461c-0.799-1.477-1.815-2.661-3.045-3.554
		c-1.23-0.954-2.554-1.523-3.969-1.709c-2.739-0.368-5.23,0.509-7.477,2.632c-2.154,2.031-3.538,4.691-4.154,7.983
		c-0.646,3.139-0.4,6.154,0.739,9.048c1.169,3.014,3.015,5.06,5.539,6.138c1.292,0.584,2.661,0.799,4.106,0.645
		c1.416-0.153,2.754-0.645,4.016-1.477c1.938-1.292,3.415-3.046,4.43-5.261c-0.092,1.015-0.154,2.063-0.185,3.138
		c0,0.585,0,1.153,0,1.708c-0.092,0.123-0.184,0.23-0.276,0.322c-1.323,1.509-2.831,2.617-4.523,3.323
		c-1.661,0.738-3.354,1-5.077,0.785c-3.23-0.338-5.876-2.077-7.938-5.216c-1.876-2.861-2.784-6.231-2.723-10.106
		c0.092-3.877,1.123-7.292,3.093-10.247c2.122-3.168,4.738-5.091,7.846-5.768c1.661-0.338,3.307-0.262,4.938,0.229
		c1.599,0.556,3.046,1.463,4.338,2.725C80.243,183.777,81.319,185.455,82.12,187.425z M80.735,186.178
		c-0.062-0.153-0.185-0.247-0.369-0.277c-0.185-0.061-0.354-0.045-0.508,0.046c-0.369,0.278-0.461,0.632-0.277,1.063
		c0.063,0.154,0.186,0.262,0.37,0.322c0.185,0.063,0.354,0.032,0.508-0.091C80.857,187.024,80.95,186.671,80.735,186.178z
		 M202.715,228.685c0.185,0.215,0.384,0.262,0.6,0.139c0.521-0.094,0.783-0.554,0.783-1.385c-0.122-0.738-0.446-1.046-0.97-0.923
		c-0.613,0.185-0.875,0.645-0.783,1.383C202.406,228.238,202.528,228.499,202.715,228.685z M160.16,229.008
		c-0.275-0.308-0.615-0.446-1.013-0.417c-0.431,0-0.785,0.139-1.063,0.417c-0.307,0.307-0.462,0.661-0.462,1.062
		c0.031,0.429,0.187,0.784,0.462,1.061c0.308,0.309,0.663,0.461,1.063,0.461c0.397-0.029,0.753-0.184,1.062-0.461
		c0.275-0.307,0.415-0.662,0.415-1.061C160.624,229.639,160.471,229.284,160.16,229.008z M240.373,188.255
		c0.247-0.246,0.277-0.522,0.092-0.83c-0.185-0.369-0.383-0.446-0.598-0.23c-0.216,0.215-0.246,0.492-0.094,0.83
		C239.927,188.363,240.127,188.439,240.373,188.255z M236.357,183.502c-2.308-2.092-4.814-2.954-7.521-2.584
		c-1.416,0.215-2.724,0.799-3.922,1.753c-0.586,0.431-1.124,0.938-1.616,1.522c-0.523,0.614-0.983,1.307-1.385,2.077
		c-1.11,2.093-1.692,4.276-1.754,6.554c-0.493-1.508-1.079-2.984-1.754-4.431c0.153-0.586,0.338-1.169,0.553-1.755
		c0.771-1.968,1.831-3.645,3.186-5.029c0.368-0.37,0.753-0.707,1.154-1.016c0.952-0.769,1.998-1.338,3.137-1.707
		c1.631-0.555,3.278-0.661,4.938-0.323c3.108,0.646,5.738,2.554,7.892,5.723c2,2.893,3.076,6.276,3.231,10.153
		c0.123,3.878-0.738,7.263-2.584,10.154c-2.032,3.168-4.661,4.938-7.891,5.307c-1.725,0.215-3.432-0.03-5.125-0.737
		c-1.292-0.555-2.491-1.324-3.599-2.308c-0.34-0.309-0.646-0.617-0.924-0.925c-0.124-0.123-0.215-0.23-0.277-0.322
		c0-0.584-0.016-1.168-0.046-1.754c-0.031-1.109-0.107-2.185-0.231-3.23c0.431,0.892,0.924,1.707,1.479,2.446
		c0.83,1.105,1.845,2.063,3.046,2.86c1.261,0.831,2.599,1.309,4.015,1.431c1.445,0.154,2.831-0.075,4.153-0.692
		c2.462-1.107,4.277-3.169,5.445-6.184c1.107-2.923,1.325-5.953,0.648-9.092C239.927,188.163,238.513,185.532,236.357,183.502z
		 M231.466,180.501c0.155,0.03,0.279-0.016,0.37-0.139c0.061-0.123,0.093-0.275,0.093-0.461c-0.093-0.461-0.308-0.692-0.647-0.692
		c-0.153-0.03-0.262,0.015-0.322,0.139c-0.093,0.123-0.124,0.292-0.093,0.508C230.928,180.286,231.128,180.501,231.466,180.501z
		 M240.79,200.116c-0.246-0.123-0.446,0-0.601,0.369c-0.092,0.369,0.015,0.646,0.323,0.831c0.247,0.124,0.415,0,0.509-0.37
		C241.144,200.579,241.065,200.301,240.79,200.116z M220.484,185.163c-0.155,0.029-0.279,0.123-0.371,0.276
		c-0.153,0.491-0.031,0.831,0.371,1.017c0.151,0.122,0.306,0.153,0.461,0.092c0.183-0.063,0.307-0.171,0.367-0.323
		c0.184-0.431,0.077-0.785-0.322-1.062C220.837,185.102,220.666,185.102,220.484,185.163z M217.114,192.271
		c-0.246-0.647-0.57-0.771-0.97-0.37c-0.338,0.34-0.386,0.801-0.14,1.385c0.246,0.585,0.586,0.692,1.017,0.324
		C217.421,193.239,217.452,192.792,217.114,192.271z M217.437,213.731c-0.368-0.247-0.677-0.047-0.924,0.599
		c-0.184,0.616-0.03,1.062,0.462,1.339c0.431,0.246,0.724,0.063,0.877-0.554C218.036,214.53,217.898,214.069,217.437,213.731z
		 M232.528,208.377c-0.062-0.431-0.246-0.615-0.555-0.554c-0.399,0.123-0.568,0.4-0.508,0.831c0.032,0.215,0.108,0.368,0.23,0.461
		c0.124,0.123,0.246,0.153,0.37,0.093C232.375,209.147,232.528,208.869,232.528,208.377z"/>
</g>
</svg>
