<?xml version="1.0" encoding="utf-8"?>
<!-- Generator: Adobe Illustrator 16.0.0, SVG Export Plug-In . SVG Version: 6.00 Build 0)  -->
<!DOCTYPE svg PUBLIC "-//W3C//DTD SVG 1.1//EN" "http://www.w3.org/Graphics/SVG/1.1/DTD/svg11.dtd">
<svg version="1.1" id="Layer_1" xmlns="http://www.w3.org/2000/svg" xmlns:xlink="http://www.w3.org/1999/xlink" x="0px" y="0px"
	 width="300px" height="300px" viewBox="0 0 300 300" enable-background="new 0 0 300 300" xml:space="preserve">
<g>
	<path fill="#FBB947" d="M134.368,13.95c-0.131,0.128-0.259,0.258-0.388,0.387c-26.299,26.429-39.449,58.286-39.449,95.57
		c0,29.207,8.108,55.087,24.329,77.638c1.874,2.65,3.844,5.234,5.912,7.754c2.843,3.424,5.912,6.784,9.208,10.081
		c26.427,26.431,58.284,39.644,95.569,39.644c11.438,0,22.389-1.229,32.858-3.685c-26.3,26.042-57.964,39.062-94.988,39.062
		c-37.284,0-69.142-13.213-95.568-39.644c-13.634-13.698-23.747-28.853-30.339-45.458c-0.969-2.52-1.875-5.104-2.713-7.754
		c-4.265-13.182-6.399-27.27-6.399-42.26c0-37.284,13.149-69.142,39.451-95.57C90.071,31.493,110.91,19.572,134.368,13.95z
		 M172.169,44.19l11.728,9.015l-14.83,0.388l-4.846,13.957l-4.943-13.958l-14.828-0.388l11.728-9.015l-4.168-14.247l12.212,8.432
		l12.116-8.432L172.169,44.19z M135.046,80.345l5.622,4.362l-7.173,0.193l-2.229,6.785l-2.423-6.785l-7.171-0.193l5.717-4.362
		l-2.131-6.785l6.009,3.974l5.815-3.974L135.046,80.345z M54.985,127.451l-0.097-5.234l-3.199,4.168l-5.04-1.454l3.004,4.361
		l-3.004,4.265l5.04-1.454l3.199,4.167l0.097-5.233l5.04-1.745L54.985,127.451z M91.332,145.77l-6.688,8.626l-10.565-3.104
		l6.204,9.111l-6.204,9.015l10.565-3.103l6.688,8.627l0.193-10.953l10.372-3.586l-10.372-3.684L91.332,145.77z M73.982,75.498
		l-6.881,8.917l-10.758-3.198l6.396,9.305l-6.396,9.208l10.758-3.199l6.881,8.917l0.292-11.244l10.565-3.683l-10.565-3.78
		L73.982,75.498z"/>
</g>
</svg>
