<?xml version="1.0" encoding="utf-8"?>
<!-- Generator: Adobe Illustrator 16.0.0, SVG Export Plug-In . SVG Version: 6.00 Build 0)  -->
<!DOCTYPE svg PUBLIC "-//W3C//DTD SVG 1.1//EN" "http://www.w3.org/Graphics/SVG/1.1/DTD/svg11.dtd">
<svg version="1.1" id="Layer_1" xmlns="http://www.w3.org/2000/svg" xmlns:xlink="http://www.w3.org/1999/xlink" x="0px" y="0px"
	 width="300px" height="300px" viewBox="0 0 300 300" enable-background="new 0 0 300 300" xml:space="preserve">
<g>
	<path fill="#243F94" d="M234.75,66.4c23.367,23.367,35.05,51.55,35.05,84.55s-11.683,61.167-35.05,84.5
		c-23.333,23.366-51.5,35.05-84.5,35.05s-61.184-11.684-84.55-35.05c-23.333-23.333-35-51.5-35-84.5s11.667-61.184,35-84.55
		c23.366-23.333,51.55-35,84.55-35S211.417,43.067,234.75,66.4z"/>
	<path fill="#FFFFFF" d="M87,178.45v-0.05l-0.05,0.05l-0.05,1.899l0.35,0.449h0.1l-0.1-1.699C87.083,179.033,87,178.816,87,178.45z
		 M89.05,178.25l-0.05-0.1l-0.05,0.05l-0.15,0.2l-0.1,0.05l-0.05,1.85h0.05l0.05,0.05c0.133,0.066,0.2,0.2,0.2,0.4h0.399V179
		c-0.166-0.166-0.267-0.334-0.3-0.5L89.05,178.25L89.05,178.25z M88.3,178.45c-0.1-0.034-0.167-0.101-0.2-0.2L88,178.6
		c0,0.168-0.083,0.334-0.25,0.5l0.05,1.7h0.05l0.2-0.05v-0.1c0.067-0.2,0.15-0.316,0.25-0.352V178.45z M69.55,196.15v0.05
		l-0.149,0.3v1.15l0.399,0.05v-1.15l-0.1-0.25v-0.1l-0.101-0.05H69.55z M67.5,196.15h-0.1l-0.1,0.05v0.1l-0.05,0.25v1.15h0.4
		l-0.051-1.3c-0.133-0.066-0.166-0.135-0.1-0.2L67.5,196.15L67.5,196.15z M68.3,196.2c-0.1,0-0.149,0.05-0.149,0.149
		c0,0.133-0.051,0.199-0.15,0.199v1.102h1v-1.102c-0.1,0-0.15-0.05-0.15-0.148c0-0.135-0.05-0.2-0.149-0.2l-0.2-0.15L68.3,196.2z
		 M90.95,178.6l-0.05-0.05l-0.1-0.25l-0.149,0.15v1.7l0.25,0.35l0.05,0.25h0.1l0.05-2.1L90.95,178.6z M90.1,178.2l-0.05,0.149
		c0,0.366-0.066,0.584-0.2,0.649l-0.05,1.75h0.15v-0.05c0.1-0.333,0.217-0.534,0.35-0.602v-1.648
		C90.2,178.416,90.133,178.334,90.1,178.2z M126.15,164.5v-0.1l-0.051,0.05l-0.05,2.2l0.2,0.199l0.15,0.301h0.149l-0.1-1.95
		C126.25,165.166,126.15,164.934,126.15,164.5z M127.3,164.65c0,0.199-0.1,0.383-0.3,0.55l0.05,1.899h0.3
		c0-0.267,0.084-0.449,0.25-0.551v-2.05c-0.1-0.033-0.166-0.101-0.199-0.2C127.333,164.367,127.3,164.482,127.3,164.65z
		 M128.3,164.25v0.05c-0.033,0.101-0.1,0.15-0.2,0.15l-0.05,2.1l0.25,0.351v0.149h0.5v-1.95c-0.2-0.166-0.3-0.35-0.3-0.55
		l-0.1-0.399L128.3,164.25z M129.9,164.5c-0.101-0.033-0.2-0.133-0.301-0.3v0.2c0,0.398-0.083,0.633-0.25,0.699l-0.05,1.949h0.2
		c0-0.3,0.117-0.517,0.35-0.648L129.9,164.5z M130.55,166.85V167l0.05,0.1h0.15v-2.35c-0.133-0.033-0.233-0.184-0.3-0.45l-0.2,0.2
		v1.9l0.15,0.1C130.467,166.6,130.517,166.717,130.55,166.85z M207.9,171.5v-0.15l-0.102,0.102l-0.05,3l0.5,0.648v0.102h0.149
		l-0.101-2.75C208.033,172.383,207.9,172.066,207.9,171.5z M209.9,171.45c-0.102-0.034-0.185-0.101-0.25-0.2l-0.051-0.1l-0.101,0.5
		c-0.033,0.266-0.167,0.533-0.399,0.8v2.7h0.101l0.35-0.051c0-0.435,0.134-0.685,0.4-0.75L209.9,171.45z M226,196.1v0.4l0.35-0.05
		l0.051-0.05v-0.352L226,196.1z M226,193.15v0.75h-0.05l0.05,0.949h0.05l0.15-0.051c-0.134-0.466-0.134-0.949,0-1.449l0.05-0.25
		l-0.15,0.051H226z M211.6,175.05l-0.05-2.75c-0.233-0.233-0.366-0.483-0.399-0.75v-0.2L211,171c-0.1,0.232-0.232,0.383-0.4,0.45
		l-0.1,2.899l0.25,0.199c0.133,0.135,0.2,0.301,0.2,0.5L211.6,175.05L211.6,175.05z M212.75,171.35c0,0.566-0.133,0.885-0.4,0.95
		l-0.05,2.75h0.25l0.05-0.2c0.067-0.3,0.217-0.55,0.45-0.75l0.101-2.648h-0.101V171.4H213l-0.1-0.101h-0.051l-0.051-0.1v-0.05
		l-0.05-0.051L212.75,171.35L212.75,171.35z M214.35,171.8l-0.199-0.1l-0.149-0.2l-0.101-0.3c-0.032,0.1-0.116,0.183-0.25,0.25v2.7
		l0.149,0.148c0.134,0.102,0.218,0.25,0.25,0.45l0.05,0.351l0.2,0.051L214.35,171.8z M175.55,137.4
		c-0.133,0.2-0.267,0.317-0.399,0.35l-0.101,5.9l0.4,0.3c0.267,0.267,0.433,0.6,0.5,1l0.149,0.8v0.05h0.5l0.051-7.25
		c-0.567-0.1-0.885-0.55-0.95-1.35L175.55,137.4z M173.15,136.95l-0.051,0.55c0,1.233-0.283,1.933-0.851,2.1l-0.101,6.05l0.551,0.05
		l0.05-0.25c0.167-0.934,0.533-1.567,1.101-1.9l0.101-5.8C173.65,137.75,173.383,137.483,173.15,136.95z M166.9,137.75h-0.051
		c-0.268-0.133-0.482-0.35-0.649-0.65c-0.167,0.4-0.25,0.767-0.25,1.1c0,0.6-0.283,1.183-0.851,1.75l0.051,5.9l0.898-0.05
		c0.102-0.533,0.184-0.883,0.25-1.05c0.2-0.333,0.417-0.533,0.65-0.6L166.9,137.75z M169.3,136.75l-0.05,0.1
		c-0.2,0.5-0.482,0.783-0.85,0.85l-0.15,6.45h0.05l0.15,0.15c0.467,0.367,0.7,0.833,0.7,1.4l1.449-0.05l-0.051-6
		c-0.566-0.566-0.865-1.15-0.898-1.75C169.583,137.433,169.467,137.05,169.3,136.75z M162.45,137.85v-0.3l-0.25,0.15l-0.05,6.65
		h0.05c0.267,0.267,0.45,0.467,0.55,0.6c0.3,0.4,0.467,0.75,0.5,1.05l0.35-0.05l-0.25-6c-0.365-0.1-0.615-0.4-0.75-0.9
		C162.566,138.917,162.518,138.517,162.45,137.85z M112.55,148.2c-0.333-0.067-0.566-0.383-0.7-0.95
		c-0.066,0.2-0.183,0.333-0.35,0.4l-0.05,4l0.25,0.199c0.2,0.199,0.316,0.434,0.35,0.699l0.101,0.551l0.35,0.051L112.55,148.2z
		 M105.45,147.2l-0.101,0.25l-0.1,0.5c0,0.4-0.184,0.8-0.55,1.2v4h0.2l0.449-0.051c0-0.399,0.117-0.732,0.351-1l0.25-0.101
		l-0.05-4.35l-0.351-0.25L105.45,147.2z M107.55,146.95c-0.167,0.4-0.383,0.617-0.649,0.65L106.8,152c0.101,0,0.25,0.133,0.45,0.4
		c0.133,0.199,0.2,0.416,0.2,0.648h0.95v-4.1c-0.4-0.4-0.617-0.8-0.65-1.2C107.75,147.45,107.684,147.183,107.55,146.95z
		 M110.15,147.1v0.35c0,0.867-0.2,1.35-0.601,1.45l-0.1,4.15h0.399l0.051-0.2c0.066-0.565,0.3-0.981,0.699-1.25l0.101-3.95h-0.05
		C110.417,147.55,110.25,147.367,110.15,147.1z M102.9,147.7v-0.2l-0.15,0.1l-0.05,4.55c0.1,0.033,0.233,0.166,0.399,0.398
		c0.2,0.268,0.317,0.5,0.351,0.7h0.2l-0.15-4.1C103.1,149.05,102.9,148.567,102.9,147.7z M168.35,98.35
		c-0.365,0.733-0.517,1.533-0.449,2.4c0.066,1.1,0.5,1.983,1.301,2.65c1.133,0.9,2.365,1.033,3.699,0.4
		c0.601-0.3,0.982-0.5,1.149-0.6c-0.866,1.533-2.017,2.233-3.45,2.1l-0.6-0.1l-0.05-0.05v0.05l0.05,0.6
		c0.268,0.1,0.4,0.284,0.4,0.55c0,0.2-0.102,0.367-0.301,0.5l0.101,1.8c0.1,0.1,0.149,0.184,0.149,0.25v0.05l0.051,0.1
		c0,0.067-0.051,0.2-0.15,0.4v1.2c0.2,0.167,0.3,0.367,0.3,0.6c0,0.3-0.1,0.517-0.3,0.65v0.6c0.5,0.167,0.75,0.55,0.75,1.15v0.05
		c0.268,0.133,0.383,0.25,0.35,0.35l-0.148,0.1l0.148,0.15l0.2,0.25c0.968,0.967,1.685,1.6,2.15,1.9
		c0.065,0.066,0.35,0.267,0.85,0.6c0.468,0.333,0.718,0.583,0.75,0.75l-0.05-0.05l0.05,0.1l1.75,1.45c2.067,1.7,3.167,3.934,3.3,6.7
		c0.033,0.7,0,1.75-0.1,3.15c1.1,0.233,2,0.533,2.7,0.9c0.667,0.333,1.017,0.684,1.05,1.05l-0.05,0.35v0.05h-0.05v0.1h-0.051v0.05
		l-0.051,0.05h-0.05c-0.5,0.433-1.333,0.8-2.5,1.1h-0.05l-0.15,0.05H181l-0.1,0.05h-0.15l-0.15,0.05h-0.05l-0.55,0.1h-0.35l0.05,3.3
		c0,0.633-0.25,1.1-0.75,1.4l-0.101,6.35c0.334,0.333,0.566,0.816,0.699,1.45l0.102,0.8c0.133,0.1,0.231,0.217,0.3,0.35
		c0.1,0.2,0.149,0.417,0.149,0.65l-0.051,0.45c1.934,0.133,3.018,0.267,3.25,0.4c0.635,0.466,0.967,1.15,1,2.05
		c0,0.867-0.199,1.268-0.6,1.2l-0.301-0.05c0.101,0.365,0.149,0.815,0.149,1.35c0,1.133-0.149,1.7-0.45,1.7
		c-0.166,0-0.3-0.218-0.398-0.65c-0.2,0.534-0.518,0.9-0.95,1.101c-0.833,0.435-1.45,0.685-1.851,0.75l0.051,0.649h-0.051L181.3,191
		l2.25-2.35l0.05-0.102l1.7-1.449l0.05-0.051l1-0.75l0.102-0.1l0.449-0.301l0.051-0.051l0.898-0.648l0.45-0.25l0.101-0.102
		l0.25-0.148l0.149-0.051l0.2-0.149l1.2-0.649h-0.15l1.9-1.5c1.399-1.166,2.417-2.101,3.05-2.801c0.533-0.566,0.967-0.982,1.3-1.25
		c-0.032-0.066-0.017-0.167,0.05-0.3l0.25-0.399l0.4-0.199v-0.2c0-0.601,0.3-1.067,0.9-1.4c0.1-0.065,0.3-0.134,0.6-0.2l0.15-6.898
		l0.05-0.4l-0.15-0.05c-0.467-0.233-0.8-0.45-1-0.649c-0.333-0.301-0.517-0.718-0.55-1.25c-0.066-0.566,0.033-1.101,0.3-1.601
		l0.4-0.601c-0.233,0.435-0.317,0.935-0.25,1.5c0.032,0.666,0.3,1.199,0.8,1.601c0.7,0.533,1.467,0.601,2.3,0.2
		c0.367-0.167,0.601-0.284,0.7-0.352c-0.5,0.935-1.2,1.367-2.1,1.301l-0.301-0.051v0.4c0.101,1.066,0.149,2.166,0.149,3.3
		l0.101,3.601c0.166,0,0.316,0.051,0.449,0.149c0.635,0.3,0.95,0.767,0.95,1.4v0.2l0.149,0.1c0.434,0.2,0.617,0.4,0.551,0.6v0.102
		l-0.102,0.05l1.102,1.05c0.865,0.833,2.417,2.2,4.648,4.102l0.102-3.4h-0.051l0.051-0.4c-0.567-0.133-1.018-0.533-1.352-1.199
		c0,0.267-0.065,0.399-0.199,0.399c-0.133,0-0.199-0.216-0.199-0.649V178h-0.1c-0.199,0.066-0.283-0.166-0.25-0.7
		c0-0.532,0.168-0.833,0.5-0.899l1.25-0.149h0.102l-0.051-0.101l0.051-0.449l0.05-0.2c-0.065-0.166,0-0.399,0.2-0.7l0.199-0.25
		c0.101-0.134,0.084-1.115-0.051-2.949c-0.3-0.066-0.449-0.334-0.449-0.801v-1.148c-0.133,0.065-0.5,0.016-1.101-0.15
		c-0.667-0.2-1.017-0.383-1.05-0.55v-0.05l-0.05-0.051v-0.051l0.05-0.05c0-0.133,0.117-0.267,0.35-0.399l0.102-0.051l0.148-0.05
		l0.051-0.05l1.601-0.5c-0.133-0.733-0.149-1.434-0.05-2.102c0.133-0.832,0.533-1.615,1.199-2.35l0.199-0.2h0.051l0.949-0.85
		c0.033-0.034,0.435-0.417,1.2-1.15l0.3-0.35l0.102-0.2v-0.2c0.066-0.167,0.183-0.282,0.35-0.35v-0.25
		c-0.1-0.034-0.148-0.134-0.148-0.3c0-0.135,0.05-0.234,0.148-0.301v-0.5L211,158.4v-0.051l0.05-0.149l0.05-0.7v-0.1
		c-0.065-0.033-0.1-0.117-0.1-0.25l0.05-0.2l0.101-0.05l0.051-0.25V156.6l-0.051-0.05L211,156.5c-0.9-0.4-1.383-0.982-1.45-1.75
		c-0.032-0.533,0.067-1.033,0.3-1.5l0.4-0.55c-0.232,0.399-0.316,0.866-0.25,1.399c0.033,0.633,0.283,1.133,0.75,1.5
		c0.633,0.5,1.316,0.565,2.05,0.199c0.367-0.167,0.601-0.283,0.7-0.35c-0.533,0.865-1.2,1.267-2,1.199h-0.15l-0.05-0.051v0.301
		c0.134,0.066,0.2,0.149,0.2,0.25c0,0.134-0.05,0.218-0.15,0.25v0.149l0.051,0.65l0.101,0.2l-0.101,0.148l0.051,0.352v0.199
		l0.148,0.301c0,0.133-0.05,0.217-0.148,0.25l-0.051,0.05v0.25l0.149,0.1h0.05l0.102,0.101v0.051l0.1,0.3l0.15,0.149l-0.102,0.051
		l0.2,0.199c0.468,0.468,0.783,0.75,0.95,0.851c0.066,0.065,0.3,0.267,0.7,0.601v0.051h0.05l0.8,0.648
		c0.935,0.801,1.435,1.817,1.5,3.051l-0.05,1.449c0.667,0.135,1.167,0.317,1.5,0.551c0.133,0.133,0.2,0.25,0.2,0.351l-0.05,0.149
		c-0.033,0.133-0.301,0.282-0.801,0.449c-0.533,0.2-0.899,0.284-1.101,0.25v1.5c0,0.301-0.117,0.518-0.351,0.65l-0.051,2.898
		l0.2,0.301c0.101,0.166,0.149,0.399,0.149,0.699l0.201,0.301v0.399h0.299l1.201,0.15c0.267,0.2,0.398,0.517,0.398,0.95
		c0,0.398-0.083,0.582-0.25,0.55H217.4l0.1,0.6c0,0.5-0.083,0.75-0.25,0.75l-0.15-0.3c-0.1,0.268-0.25,0.45-0.449,0.55
		c-0.399,0.2-0.666,0.3-0.801,0.3v1.2l0.051,0.25L216.3,191l1.05,1.45l0.051-0.05l0.101-0.051v-0.051l0.101-0.05l0.149-0.149v-0.051
		h0.05V192l-0.05-0.05h0.05v-0.3l0.051,0.05v0.399h0.051v0.051l0.148,0.148l0.102,0.051v0.051l0.1,0.1v-3.15h-0.1v-0.8H218.1
		l-0.148-0.1c0-0.067,0.066-0.101,0.199-0.101v-0.199c0-0.135,0.051-0.25,0.149-0.352l0.101-0.1l0.101-0.051l0.149-0.149v-0.05
		h0.051l0.25,0.25l0.148,0.1v0.051h0.051v0.051l0.101,0.1v0.35c0.2,0.066,0.283,0.117,0.25,0.15l-0.101,0.05h-0.199v0.8h-0.051
		v3.352h1.051v-0.9l-0.051,0.051v-0.801l-0.199-0.05H219.9V190.9l0.199-0.051v-0.199c0-0.133,0.051-0.25,0.15-0.351l0.1-0.1
		l0.102-0.05L220.6,190v-0.05l0.051-0.05l-0.051-0.051l0.051-0.051v-0.25h0.051v0.4l0.05,0.05v0.05l0.149,0.15
		c0.166,0.066,0.268,0.199,0.301,0.398v0.25h0.1c0.301,0.102,0.352,0.15,0.15,0.15l-0.301,0.1v0.75l-0.051-0.05v1.15l1.602,2v2.1
		l2.398-0.3v-0.85c-0.3-0.066-0.5-0.15-0.6-0.25l-0.1-0.051l-0.051-0.051l0.101-0.199l0.649-0.25V193.9H225V193.1l-0.25-0.05V193
		l0.05-0.05l0.15-0.05v-0.15c0-0.133,0.065-0.25,0.2-0.35l0.05-0.102l0.2-0.199h0.05v-0.051l0.05-0.05V191.6h0.05v0.399l0.05,0.05
		v0.051l0.2,0.199l0.15,0.102v0.05l0.05,0.05v0.05l0.05,0.05v0.352l0.2,0.05c0.232-0.601,0.65-1.133,1.25-1.601l0.65-0.449
		l0.1-0.102l0.85-0.699l0.25-0.25v-0.051h0.051l0.051-0.1c0-0.2,0.1-0.334,0.3-0.4v-0.199l-0.101-0.149v-0.05l0.101-0.2v-0.399
		l-0.05-0.101l0.05-0.149h0.05v-0.601l-0.1-0.101l0.148-0.199v-0.25l-0.05-0.051c-0.767-0.334-1.183-0.851-1.25-1.551
		c-0.032-0.434,0.05-0.85,0.25-1.25c0.134-0.199,0.25-0.35,0.351-0.449c-0.166,0.334-0.25,0.718-0.25,1.149
		c0.066,0.567,0.283,1,0.649,1.3c0.567,0.435,1.167,0.5,1.8,0.2c0.334-0.134,0.533-0.233,0.602-0.3c-0.4,0.7-0.967,1.05-1.7,1.05
		l-0.3-0.05l0.05,0.2l0.101,0.2v0.05l-0.101,0.1v0.101l0.05,0.449l0.051,0.051v0.149l-0.051,0.05l0.051,0.25l-0.051,0.15l0.102,0.05
		l0.05,0.15l-0.05,0.149l-0.102,0.051v0.199c0.135,0.032,0.233,0.116,0.301,0.25v0.149h0.051l0.1,0.05v0.051h-0.05l0.101,0.149
		c0.1,0.2,0.366,0.416,0.799,0.649c0.4,0.232,0.602,0.367,0.602,0.399l0.699,0.5c0.732,0.534,1.134,1.25,1.199,2.15l-0.049,1
		c0.934,0.167,1.399,0.399,1.399,0.7c0,0.133-0.2,0.266-0.601,0.398c-0.399,0.102-0.783,0.167-1.149,0.2v0.351l1.95,0.051
		c0.467,0.033,0.783,0.133,0.949,0.3h0.899v-3.55h-0.101L237,193.1h-0.05c-0.067-0.065,0-0.115,0.2-0.148h0.05v-0.4h0.05v-0.1h0.05
		l0.15-0.2l0.149-0.101l0.051-0.051v-0.05l0.05-0.05v-0.4h0.05v0.4l0.05,0.05v0.05l0.15,0.102l0.05,0.1l0.1,0.102
		c0.135,0.1,0.2,0.217,0.2,0.35v0.15l0.2,0.1v0.05l-0.25,0.05v0.801h-0.1v2.851l2.398,0.3v-2.1l1.602-2v-1.15l-0.051,0.051v-0.75
		l-0.149-0.051h-0.05L241.8,191c-0.267,0-0.2-0.05,0.2-0.15h0.05v-0.25l0.05-0.199h0.051l0.149-0.199l0.2-0.2l0.05-0.101v-0.399
		h0.05v0.399l0.051,0.101l0.199,0.2h0.051v0.05l0.101,0.05c0.101,0.102,0.149,0.217,0.149,0.352v0.199l0.199,0.101l-0.25,0.1v0.8
		l-0.05-0.05v0.9h1.05v-3.351h-0.05v-0.801h-0.25l-0.05-0.05c-0.066,0-0.033-0.033,0.1-0.101h0.051l0.101-0.051v-0.25l0.149-0.3
		l0.101-0.1h0.05l0.15-0.15v-0.05l0.05-0.05V187.1l0.05-0.05v0.25l0.051,0.05l-0.051,0.051v0.051l0.2,0.199l0.101,0.051l0.101,0.1
		c0.101,0.102,0.149,0.217,0.149,0.352v0.199c0.133,0,0.199,0.032,0.199,0.101l-0.148,0.1h-0.102v0.8L245,189.3v3.2l0.1-0.15
		l0.301-0.3v-0.399h0.051v0.399l0.199,0.2l0.101,0.05v0.05l0.101,0.051c0.101,0.101,0.149,0.218,0.149,0.351v0.2l0.2,0.1
		l-0.15,0.102h-0.1l-0.15,0.8v5.149l0.4,0.051v0.35l-0.4,0.1v6.7l1.65-1.2l0.05-0.05l0.101-0.05l1-0.95V204l0.149-0.2v-0.05
		c0-0.3,0.167-0.5,0.5-0.6v-0.301c-0.167-0.066-0.25-0.185-0.25-0.351c0-0.133,0.083-0.25,0.25-0.351V201.6l-0.101-0.25l0.101-0.199
		l0.05-0.949c-0.1-0.034-0.148-0.116-0.148-0.25l0.1-0.25h0.1l0.051-0.352v-0.05l-0.149-0.05c-0.733-0.334-1.133-0.834-1.2-1.5
		c-0.033-0.4,0.051-0.8,0.25-1.2c0.135-0.2,0.25-0.35,0.352-0.45c-0.2,0.301-0.283,0.668-0.25,1.102
		c0.066,0.533,0.283,0.949,0.648,1.25c0.533,0.433,1.117,0.5,1.75,0.199c0.301-0.133,0.483-0.217,0.551-0.25
		c-0.434,0.699-0.982,1.017-1.649,0.949h-0.149l0.049,0.352l0.102,0.05l0.1,0.2l-0.05,0.148l-0.1,0.102l0.05,0.949l0.1,0.199
		l-0.1,0.25l0.05,0.352v0.25l0.05,0.05c0.102,0.101,0.15,0.185,0.15,0.25c0,0.101-0.05,0.2-0.15,0.3l-0.05,0.051l-0.05,0.301
		c0.333,0.1,0.5,0.3,0.5,0.6l0.1,0.05l0.102,0.15L250.35,204l0.2,0.25c0.2,0.268,0.634,0.617,1.3,1.05
		c0.635,0.366,0.95,0.583,0.95,0.65l1.101,0.75c0.468,0.366,0.916,0.85,1.351,1.45v0.55c-1.399,2.532-2.917,5.017-4.55,7.45
		c-1,1.8-1.617,2.717-1.852,2.75c-4.133,5.766-8.832,11.283-14.1,16.55c-23.333,23.366-51.5,35.05-84.5,35.05
		s-61.184-11.684-84.55-35.05c-3.8-3.8-7.283-7.718-10.45-11.75v-5.05h4.55l0.7-6.65h6.15l0.1-14.15l0.1-0.1l0.051-1.9
		c-0.134,0.033-0.317,0.019-0.551-0.05c-0.199-0.032-0.333-0.083-0.399-0.149c-0.134-0.133,0.149-0.268,0.85-0.399
		c-0.066-0.166-0.083-0.399-0.05-0.7c0.133-0.466,0.45-0.833,0.95-1.1l0.75-0.7v-0.101l-0.101-0.101l0.101-0.1v-0.15l-0.05-0.1
		l0.05-0.05v-0.25L68.4,191.8l0.05-0.05v-0.1c0-0.033,0.017-0.033,0.05,0v0.1l0.1,0.05l-0.05,0.101v0.25l0.05,0.051l-0.05,0.1v0.15
		l0.05,0.1l-0.05,0.102v0.1l0.2,0.2l0.05,0.1c0.101,0.134,0.3,0.284,0.601,0.45l0.05,0.05l0.3,0.2c0.367,0.232,0.55,0.566,0.55,1
		v0.45c0.434,0.065,0.65,0.183,0.65,0.35c-0.067,0.167-0.333,0.25-0.8,0.25v1.95l0.1,0.1h0.9v2.352h2.35v-5.5h1.45L75.1,203.1
		l4.45,0.25l0.15-3.898l-0.25-0.102l-0.101-0.1l-0.05,0.05l-0.05-0.2v-0.148c-0.066,0-0.1-0.051-0.1-0.15s0.05-0.183,0.149-0.25
		l0.4-0.05l0.149-3.55l-0.199-0.102l-0.101-0.1v0.05l-0.05-0.149v-0.149h-0.05c-0.033,0-0.05-0.033-0.05-0.101
		c0-0.101,0.033-0.166,0.1-0.199l0.4-0.051l0.149-4.351l-0.149-0.1l-0.101-0.05v0.05l-0.05-0.15V189.4
		c-0.033,0.033-0.05,0.016-0.05-0.051c0-0.067,0.017-0.134,0.05-0.199l0.3-0.051V189l0.101-0.2v-0.55l-0.101-0.1v-0.301L79.7,187.7
		c0-0.101,0.116-0.15,0.35-0.15l-0.05-0.3c0-0.2,0.1-0.383,0.3-0.55l0.15-0.15l0.149-0.1l0.2-0.2v-0.05L80.9,186.1v-0.05L80.85,186
		v-0.1l0.051-0.051l-0.051-0.051l0.051-0.05V185.6H80.85l0.051-0.051v-0.1l0.05,0.05v0.45L81,186l-0.05,0.05v0.05L81,186.2l0.1,0.1
		l0.2,0.25c0.233,0.101,0.384,0.3,0.45,0.601v0.399c0.333,0.101,0.467,0.185,0.4,0.25l-0.4,0.101v0.25L81.7,188.3v0.55l0.05,0.15
		v0.15L82,189.2c0.1,0,0.117,0.1,0.05,0.3L82,189.65l-0.05-0.102c-0.067,0.135-0.15,0.217-0.25,0.25l0.149,4.4H82.2
		c0.1,0.033,0.116,0.167,0.05,0.398v0.051L82.2,194.8l-0.05-0.1c-0.067,0.134-0.167,0.216-0.301,0.25l0.101,3.6l0.5,0.05
		c0.1,0.033,0.116,0.185,0.05,0.45h-0.05v0.05l-0.05,0.15l-0.051-0.1c-0.066,0.166-0.183,0.266-0.35,0.3l0.05,4l1.65,0.1l0.05-6.85
		l0.8,0.05c-0.133-0.166-0.2-0.367-0.2-0.6c0-0.301,0.117-0.551,0.351-0.75c0.2-0.234,0.467-0.352,0.8-0.352
		c0.2,0,0.4,0.051,0.6,0.15l0.3-11.6c-0.334-0.065-0.601-0.315-0.801-0.75L85.55,183l-0.1,0.1c-0.101,0-0.15-0.133-0.15-0.398v-0.15
		l-0.05,0.051c-0.133,0.032-0.184-0.117-0.15-0.449c0-0.367,0.101-0.566,0.301-0.602l0.85-0.1V181.1l0.05-0.1
		c-0.066-0.166,0.017-0.367,0.25-0.6c0.067-0.066,0.067-0.685,0-1.852c-0.2-0.066-0.3-0.25-0.3-0.55v-0.7H86.2l-0.05,0.051
		l-0.05-0.05h-0.15c-0.434-0.1-0.75-0.2-0.95-0.3l-0.15-0.15v-0.1c0.067-0.268,0.551-0.482,1.45-0.65
		c-0.1-0.467-0.116-0.916-0.05-1.35c0.033-0.268,0.133-0.533,0.3-0.8c0.233-0.435,0.634-0.884,1.2-1.351l0.8-0.699l0.101-0.15
		l0.1-0.1L88.7,171.6h0.05v-0.05h0.05v-0.05c0-0.166,0.067-0.283,0.2-0.35V171l-0.1-0.2l0.1-0.149v-0.399l-0.05-0.05L89,170.1
		l0.05-0.05v-0.5l-0.1-0.149l0.1-0.149l0.05-0.2L89,169c-0.7-0.334-1.066-0.8-1.1-1.4c-0.033-0.398,0.05-0.783,0.25-1.148
		c0.1-0.167,0.199-0.301,0.3-0.4c-0.167,0.301-0.25,0.65-0.25,1.051c0.033,0.5,0.233,0.899,0.6,1.199c0.5,0.4,1.05,0.467,1.65,0.2
		c0.267-0.133,0.433-0.233,0.5-0.3c-0.367,0.667-0.884,0.966-1.55,0.898h-0.25l0.05,0.15l0.05,0.05l0.05,0.101v0.051l-0.05,0.1H89.2
		v0.102l0.05,0.398l0.05,0.15l-0.05,0.1v0.352l0.1,0.148l-0.05,0.15L89.25,171v0.2c0.133,0.065,0.2,0.167,0.2,0.3l0.1,0.05v0.101
		l0.7,0.649c0.033,0.034,0.184,0.167,0.45,0.4v0.05l0.149,0.1l0.351,0.301c0.566,0.435,0.883,1.066,0.95,1.899L92.1,176
		c0.467,0.033,0.817,0.166,1.051,0.4l0.05,0.148v0.102c-0.033,0.065-0.217,0.166-0.55,0.3c-0.334,0.134-0.567,0.183-0.7,0.149
		l0.05,0.949c0,0.167-0.083,0.301-0.25,0.4l-0.05,1.85c0.167,0.135,0.25,0.333,0.25,0.602c0.133,0.133,0.167,0.283,0.1,0.449
		L93,181.45c0.2,0.134,0.3,0.333,0.3,0.6c0,0.233-0.066,0.351-0.2,0.351h-0.05l0.05,0.351c0,0.334-0.05,0.5-0.149,0.5
		c-0.067,0-0.101-0.05-0.101-0.149v-0.051c-0.133,0.2-0.232,0.317-0.3,0.352l-0.5,0.199l0.45,11.899l0.6-0.101v-2.551h0.65
		c-0.066-0.133-0.1-0.35-0.1-0.648c0-0.467,0.166-0.885,0.5-1.25c0.366-0.333,0.783-0.5,1.25-0.5c0.5,0,0.933,0.167,1.3,0.5
		c0.333,0.365,0.5,0.783,0.5,1.25c0,0.267-0.05,0.5-0.15,0.699l0.9,0.051v2.199l2.6-0.25l0.9-35.101
		c-0.3-0.032-0.583-0.167-0.851-0.399c-0.366-0.268-0.732-0.717-1.1-1.351c-0.066,0.366-0.167,0.55-0.3,0.55
		c-0.2,0-0.3-0.315-0.3-0.949v-0.25h-0.15c-0.3,0.134-0.434-0.217-0.4-1.051c0-0.8,0.233-1.25,0.7-1.35l2.05-0.2v-0.1
		c-0.033-0.2-0.033-0.45,0-0.75l0.101-0.25v-0.15c-0.067-0.333,0.133-0.75,0.6-1.25c0.167-0.2,0.15-1.667-0.05-4.4
		c-0.434-0.133-0.65-0.55-0.65-1.25V145h-0.4l-0.75-0.15h-0.1c-1.232-0.333-1.899-0.633-2-0.9v-0.1H97.8v-0.05
		c-0.033-0.167,0.083-0.383,0.351-0.65l0.1-0.05h0.05L98.4,143h0.05c0.6-0.367,1.517-0.683,2.75-0.95l-0.15-1.2
		c-0.066-0.7-0.033-1.35,0.101-1.95c0.166-1.066,0.683-2.133,1.55-3.2c0.6-0.733,1.267-1.35,2-1.85h0.05l1.75-1.7l0.15-0.2l0.3-0.3
		H107l-0.05-0.05h-0.05l0.05-0.15l0.149-0.15c0-0.267,0.067-0.466,0.2-0.6l0.351-0.25v-0.35l-0.2-0.2l-0.05-0.1v-0.15
		c0-0.2,0.083-0.35,0.25-0.45v-0.75c-0.101-0.034-0.15-0.133-0.15-0.3l0.1-0.25l0.051-0.05l0.05-1.2l-0.101-0.05l-0.1-0.3l0.1-0.25
		l0.15-0.1v-0.05l0.05-0.3v-0.15l-0.3-0.1c-0.633-0.3-1.083-0.583-1.35-0.85c-0.434-0.467-0.684-1.067-0.75-1.8
		c-0.067-0.767,0.083-1.5,0.449-2.2c0.2-0.367,0.4-0.65,0.601-0.85c-0.333,0.6-0.483,1.283-0.45,2.05
		c0.066,0.933,0.45,1.683,1.15,2.25c0.933,0.767,1.967,0.883,3.1,0.35l1.05-0.5c-0.767,1.3-1.767,1.883-3,1.75h-0.1l-0.25-0.05
		l0.05,0.05v0.4l0.05,0.05c0.134,0.033,0.2,0.133,0.2,0.3c0,0.2-0.05,0.317-0.15,0.35l0.051,1.25c0.066,0.033,0.1,0.117,0.1,0.25
		c0,0.133-0.033,0.217-0.1,0.25l0.05,0.85l0.2,0.25v0.15c0,0.2-0.084,0.35-0.25,0.45v0.4c0.366,0.1,0.55,0.367,0.55,0.8h0.05
		l0.2,0.2l-0.101,0.1l0.25,0.3c0.434,0.533,0.917,0.967,1.45,1.3c0.7,0.466,1.05,0.767,1.05,0.9v0.05l1.2,0.95
		c1.367,1.167,2.117,2.683,2.25,4.55l-0.05,1.8l-0.05,0.35l0.149,0.05c1.567,0.333,2.384,0.767,2.45,1.3v0.1l-0.05,0.05v0.05
		c-0.033,0.2-0.5,0.467-1.4,0.8c-0.732,0.233-1.232,0.333-1.5,0.3v2.25c0,0.433-0.166,0.75-0.5,0.95l-0.1,4.3l0.25,0.35
		c0.2,0.3,0.3,0.616,0.3,0.95v0.25c0.267,0.2,0.367,0.533,0.3,1c1.4,0.1,2.134,0.184,2.2,0.25c0.434,0.3,0.65,0.75,0.65,1.35
		c0.033,0.602-0.101,0.885-0.4,0.852h-0.2l0.051,0.1v0.15l0.1,0.648c0,0.769-0.117,1.15-0.35,1.15c-0.101,0-0.184-0.15-0.25-0.45
		c-0.167,0.366-0.384,0.616-0.65,0.75l-0.65,0.3c-0.333,0.135-0.533,0.2-0.6,0.2l0.4,10.8l0.05,0.45l0.35,9.8l0.05,0.45l0.4,11.351
		l0.2-0.149h0.05l0.15-0.101l0.05-0.101l0.149-0.1l0.101-0.05l0.399-0.4l0.101-0.05l0.2-0.2l0.199-0.15l0.801-0.898v-0.15
		l0.199-0.25h0.051V190c0-0.5,0.25-0.867,0.75-1.1l0.199-0.051v-0.551c-0.133-0.033-0.267-0.148-0.399-0.35l-0.05-0.25
		c0-0.333,0.149-0.551,0.449-0.65V186l-0.05-0.05c-0.133-0.134-0.2-0.267-0.2-0.4c0-0.133,0.084-0.282,0.25-0.45l0.051-1.699
		c-0.2-0.133-0.301-0.282-0.301-0.449c0-0.233,0.134-0.417,0.4-0.551l0.05-0.149l0.05-0.45v-0.1l-0.25-0.102
		c-0.666-0.3-1.133-0.6-1.399-0.898c-0.467-0.467-0.733-1.083-0.8-1.852c-0.067-0.8,0.1-1.55,0.5-2.25
		c0.199-0.365,0.399-0.648,0.6-0.85c-0.333,0.6-0.483,1.3-0.45,2.1c0.067,0.967,0.45,1.734,1.15,2.301
		c1,0.801,2.083,0.935,3.25,0.399c0.533-0.267,0.883-0.45,1.05-0.55c-0.767,1.3-1.783,1.916-3.05,1.85l-0.3-0.05l0.1,0.601
		c0.267,0.134,0.4,0.316,0.4,0.551V183l-0.051,0.05c0,0.167-0.1,0.284-0.3,0.351l0.05,0.351l0.051,1.399l0.1,0.051
		c0.1,0.1,0.15,0.216,0.15,0.35l-0.101,0.25l-0.1,0.15l0.05,1.148c0.233,0.135,0.35,0.334,0.35,0.602l-0.05,0.148
		c-0.066,0.2-0.183,0.352-0.35,0.45v0.55c0.467,0.168,0.767,0.484,0.899,0.95v0.2c0.268,0.133,0.4,0.25,0.4,0.35l-0.1,0.102
		l0.35,0.398l0.1,0.15v0.05l0.25,0.25v0.05l0.15,0.15c0.467,0.434,1.267,0.967,2.4,1.6l0.05-3.148c-0.434-0.102-0.767-0.385-1-0.852
		l-0.101-0.1c0,0.3-0.05,0.45-0.149,0.45c-0.134,0-0.2-0.218-0.2-0.65v-0.2h-0.1c-0.134,0.066-0.2-0.133-0.2-0.6
		c0.033-0.467,0.167-0.717,0.399-0.75l1.45-0.15l0.4-16.8c-0.4-0.1-0.7-0.384-0.9-0.85l-0.149,0.3c-0.101,0-0.15-0.166-0.15-0.5
		v-0.1h-0.1c-0.134,0.065-0.184-0.102-0.15-0.5c0-0.4,0.117-0.617,0.35-0.65l0.95-0.1c-0.066-0.102-0.066-0.234,0-0.4v-0.05
		l0.05-0.05c0-0.2,0.018-0.334,0.051-0.4l0.199-0.3c0.101-0.101,0.101-0.8,0-2.101c-0.199-0.066-0.3-0.267-0.3-0.601v-0.8
		c-0.133,0.066-0.433,0.017-0.899-0.15c-0.4-0.134-0.617-0.25-0.65-0.35c-0.133-0.2,0.083-0.4,0.65-0.602l0.949-0.3
		c-0.1-0.466-0.116-0.966-0.05-1.5c0.167-0.933,0.733-1.733,1.7-2.399l0.2-0.149c0.399-0.367,0.616-0.601,0.649-0.7l0.25-0.199
		v-0.051l0.051-0.1v-0.051l0.1-0.25l0.1-0.051l0.051-0.1v-0.15L128.3,155.9c0-0.102,0.05-0.185,0.15-0.25V155.3l-0.05-0.05
		l-0.051-0.1l0.051-0.051l0.05-0.101v-0.55l-0.101-0.15l0.15-0.3v-0.101l-0.1-0.051c-0.768-0.434-1.184-0.967-1.25-1.6
		c-0.033-0.434,0.05-0.85,0.25-1.25l0.35-0.5c-0.2,0.367-0.283,0.768-0.25,1.2c0.033,0.565,0.267,1,0.7,1.3
		c0.533,0.467,1.133,0.533,1.8,0.2c0.333-0.134,0.533-0.233,0.6-0.3c-0.433,0.766-1.017,1.115-1.75,1.05l-0.25-0.05v0.199
		l0.15,0.199l-0.05,0.051v0.051l-0.05,0.05v0.6l0.1,0.101l-0.05,0.101v0.45l0.1,0.199v0.051l-0.1,0.148v0.2
		c0.133,0.067,0.217,0.185,0.25,0.351v0.051H129l0.05,0.1H129l0.1,0.15l0.7,0.6c0.333,0.167,0.5,0.317,0.5,0.45v0.05l0.601,0.45
		c0.699,0.601,1.05,1.315,1.05,2.149v1.051c0.5,0.1,0.85,0.232,1.05,0.398c0.1,0.066,0.15,0.135,0.15,0.2v0.15H133.1
		c-0.033,0.134-0.232,0.25-0.6,0.35c-0.333,0.134-0.583,0.185-0.75,0.15v1.1c0,0.2-0.083,0.351-0.25,0.45v2.05
		c0.167,0.2,0.25,0.45,0.25,0.75l0.05,0.05c0.067,0.066,0.101,0.2,0.101,0.4l1.05,0.15c0.2,0.133,0.3,0.35,0.3,0.648
		c0,0.268-0.066,0.4-0.2,0.4h-0.1l0.05,0.398c0,0.367-0.05,0.551-0.15,0.551h-0.05l-0.05-0.101v-0.101l-0.15,0.201l-0.399,0.299
		l-0.351,0.101l0.2,6l0.05-0.05l0.301-0.35l1.149-1.052v-0.05l1.75-1.398l0.05-0.052l0.351-0.198l0.2-0.15l0.1-0.1l0.3-0.15
		l0.15-0.1l0.1-0.102l0.15-0.05l0.1-0.101l0.4-0.199c0.233-0.168,0.417-0.268,0.55-0.301h-0.1l1.3-1.051
		c0.967-0.8,1.667-1.434,2.1-1.898l0.9-0.9c-0.033-0.033-0.017-0.134,0.05-0.3l0.15-0.15l0.3-0.149v-0.149c0-0.267,0.1-0.5,0.3-0.7
		c0.2-0.199,0.434-0.316,0.7-0.35l0.149-5.15l-0.1-0.05c-0.633-0.267-0.983-0.7-1.05-1.3c-0.033-0.367,0.033-0.732,0.2-1.1l0.3-0.4
		c-0.167,0.3-0.233,0.633-0.2,1c0.033,0.467,0.233,0.834,0.6,1.1c0.467,0.367,0.983,0.418,1.551,0.15
		c0.267-0.133,0.433-0.217,0.5-0.25c-0.4,0.666-0.884,0.967-1.45,0.9l-0.25-0.052l0.05,0.4l0.15,4.75l0.199,0.05
		c0.5,0.167,0.75,0.5,0.75,1v0.15l0.101,0.05c0.3,0.2,0.433,0.35,0.399,0.45l-0.05,0.1l1.101,1.102l0.1,0.049l0.15,0.101l0.05,0.101
		l2.95,2.551c2.1,1.3,3.683,2.449,4.75,3.449c2.365,2.232,3.783,4.75,4.25,7.551c0.1,0.699,0.148,1.433,0.148,2.199
		c-0.033,1.533-0.199,2.899-0.5,4.101l-0.05,0.149v0.101l-0.05,0.101l-0.102,0.449l-0.05,0.15l0.351-0.25h0.101l0.149-0.15h0.051
		l0.148-0.1l0.051-0.051l0.149-0.101l0.25-0.25l0.101-0.149v-0.101l0.051-0.05h0.05l0.8-31.301l0.051-0.399v-1.649
		c-0.634-0.133-1.218-0.467-1.75-1l-0.25-0.25L157.9,153.8l-0.4-0.75c-0.1,0.534-0.25,0.8-0.45,0.8c-0.333,0-0.5-0.467-0.5-1.398
		l0.05-0.4l-0.25,0.102c-0.433,0.133-0.633-0.385-0.6-1.551c0.033-1.2,0.4-1.867,1.1-2l3-0.35l-0.05-0.05
		c-0.065-0.434-0.065-0.817,0-1.15l0.05-0.2l0.15-0.2c-0.2-0.566,0.066-1.25,0.8-2.05c0.267-0.3,0.267-2.467,0-6.5
		c-0.667-0.167-1-0.783-1-1.85v-2.45c-0.233,0.133-1.05,0.017-2.45-0.35c-1.467-0.467-2.231-0.85-2.3-1.15l-0.1-0.35
		c0-0.367,0.315-0.717,0.95-1.05c0.699-0.367,1.517-0.683,2.449-0.95c0.666-0.2,1.199-0.333,1.601-0.4
		c-0.267-1.767-0.3-3.316-0.101-4.65c0.366-2.267,1.649-4.383,3.851-6.35h0.05l0.15-0.15l0.1-0.05l0.2-0.2l0.1-0.05l0.101-0.15
		h0.051l0.148-0.15h0.051l0.449-0.35c0.033-0.034,0.385-0.35,1.051-0.95c0.699-0.667,1.232-1.2,1.601-1.6l0.7-0.75H168.4V114
		l0.199-0.25v-0.1c0-0.566,0.283-0.967,0.852-1.2v-0.55l-0.301-0.25l-0.051-0.1v-0.1l-0.05-0.1v-0.2c0.067-0.267,0.2-0.45,0.4-0.55
		v-1.1c-0.134-0.133-0.2-0.283-0.2-0.45l0.05-0.25l0.15-0.15l0.05-1.8l-0.05-0.05c-0.134-0.133-0.2-0.283-0.2-0.45
		c0-0.2,0.083-0.35,0.25-0.45l0.1-0.05l0.102-0.65v-0.15h-0.051c-0.768-0.367-1.316-0.716-1.649-1.05c-0.5-0.5-0.8-1.2-0.899-2.1
		c-0.066-0.9,0.116-1.767,0.551-2.6C167.883,98.9,168.117,98.583,168.35,98.35z M142.6,75.3c0,4.2-1.482,7.784-4.449,10.75
		c-3,2.967-6.584,4.45-10.75,4.45c-4.2,0-7.783-1.483-10.75-4.45c-2.967-2.966-4.45-6.55-4.45-10.75c0-4.2,1.483-7.783,4.45-10.75
		c2.967-2.966,6.55-4.45,10.75-4.45h0.949c-3.5,0.267-6.449,1.667-8.85,4.2c-2.434,2.567-3.65,5.617-3.65,9.15
		c0,3.7,1.301,6.85,3.9,9.45c2.633,2.6,5.783,3.9,9.45,3.9c3.533,0,6.583-1.2,9.149-3.6c2.567-2.4,3.967-5.35,4.2-8.85L142.6,75.3z"
		/>
</g>
</svg>
