<?xml version="1.0" encoding="utf-8"?>
<!-- Generator: Adobe Illustrator 16.0.0, SVG Export Plug-In . SVG Version: 6.00 Build 0)  -->
<!DOCTYPE svg PUBLIC "-//W3C//DTD SVG 1.1//EN" "http://www.w3.org/Graphics/SVG/1.1/DTD/svg11.dtd">
<svg version="1.1" id="Layer_1" xmlns="http://www.w3.org/2000/svg" xmlns:xlink="http://www.w3.org/1999/xlink" x="0px" y="0px"
	 width="300px" height="300px" viewBox="0 0 300 300" enable-background="new 0 0 300 300" xml:space="preserve">
<g>
	<path fill="#FBF49D" d="M99.35,128.4c-0.1,0.2-0.183,0.383-0.25,0.55c0,0.1,0,0.183,0,0.25l-0.35-1.55l0.25,1L99.35,128.4z
		 M120.8,143.65l-0.149,0.05l-0.601,0.3c0.4-0.267,0.8-0.684,1.2-1.25C121.083,143.083,120.934,143.383,120.8,143.65z
		 M249.45,260.95c-2.2,0.825-4.45,1.6-6.75,2.325c2.258-0.787,4.508-1.629,6.75-2.525V260.95z"/>
	<path fill="#FEE45D" d="M100.7,192.35c-0.233-2.832-0.283-5-0.15-6.5c0.233,2.135,0.8,5.566,1.7,10.301
		c0.633,3.399,1.267,6.685,1.9,9.851c0.066-1,0.116-1.967,0.149-2.899c0.033,0.399,0.033,0.851,0,1.351
		c0.033,2,0.117,3.75,0.25,5.25c-0.533-1.134-1.066-2.685-1.6-4.65C101.816,201.05,101.066,196.816,100.7,192.35z M106.65,189.85
		c0.3,0.367,0.6,0.685,0.899,0.95c-0.267-0.167-0.517-0.366-0.75-0.6c-0.1-0.2-0.2-0.384-0.3-0.55l-0.1-0.25L106.65,189.85z
		 M131.6,102.1c-0.566,0.033-1.133,0.066-1.699,0.1c-0.834-0.034-1.684-0.1-2.551-0.2l-0.75-0.1c0.2-0.033,0.45-0.1,0.75-0.2
		c1-0.333,2.217-1.133,3.65-2.4c0.967-0.867,1.75-1.9,2.35-3.1C132.617,98.133,132.033,100.1,131.6,102.1z M132.45,78.9
		c0.267-0.7,0.533-1.367,0.8-2v0.05c-0.1,0.533-0.233,1.133-0.4,1.8c-0.533,1.633-1.416,3.467-2.649,5.5
		C130.9,82.617,131.65,80.833,132.45,78.9z M135.2,70.85c0.1,0,0.183,0.017,0.25,0.05l-0.101,0.4c-0.199-0.167-0.383-0.35-0.55-0.55
		L135.2,70.85z M123.45,103.05c0.267,0.667,0.45,1.383,0.55,2.15l0.35,1.55c0.268,1.367,0.483,2.817,0.65,4.35
		c0.367,2.633,0.583,5.233,0.65,7.8c-0.101-1.233-0.217-2.467-0.351-3.7c-0.433-3.7-0.8-6.5-1.1-8.4
		C123.9,105.333,123.65,104.083,123.45,103.05z"/>
	<path fill="#F0CC39" d="M75.75,193.6c0.4,0.967,0.833,1.9,1.3,2.801c-0.3-0.334-0.566-0.684-0.8-1.051
		c-0.167-0.033-0.316-0.133-0.45-0.3c-0.233-0.233-0.333-0.517-0.3-0.85C75.533,194,75.617,193.8,75.75,193.6z"/>
	<path fill="#FFFFFF" d="M121.75,137.05c0.133,0.3,0.184,0.667,0.15,1.1c0,0.467-0.101,0.833-0.301,1.1
		c-0.133,0.3-0.333,0.434-0.6,0.4c-0.233,0-0.417-0.15-0.55-0.45c-0.167-0.333-0.233-0.7-0.2-1.1c0.033-0.467,0.117-0.833,0.25-1.1
		c0.2-0.3,0.417-0.45,0.65-0.45C121.35,136.583,121.55,136.75,121.75,137.05z"/>
	<path fill="#E0BC24" d="M127.1,149.9c0,0.067,0,0.15,0,0.25c0,0.133,0,0.267,0,0.4c0.067,0.567,0.067,1.034,0,1.4
		c-0.1-0.468-0.1-1.067,0-1.8c-0.066-0.233-0.133-0.45-0.199-0.65c0.066,0.1,0.149,0.167,0.25,0.2H127.1
		C127.1,149.8,127.1,149.867,127.1,149.9z M116.2,208.8H116c-0.233-0.167-0.45-0.35-0.65-0.55
		C115.65,208.482,115.934,208.666,116.2,208.8z"/>
	<path fill="#AE732A" d="M107.35,75c3.9-4.2,8.2-7.1,12.9-8.7c2.767-0.966,5.316-1.566,7.65-1.8c2.333-0.267,4.283-0.167,5.85,0.3
		c1.566,0.434,2.6,1.217,3.1,2.35c0.533,1.267,0.4,2.833-0.399,4.7c-0.067-0.167-0.233-0.367-0.5-0.6
		c-0.2-0.133-0.367-0.25-0.5-0.35c-0.067-0.033-0.15-0.05-0.25-0.05c-0.434-0.233-0.95-0.417-1.55-0.55
		c-2.934-0.667-7.134-0.017-12.601,1.95c-5.433,1.933-10.1,3.95-14,6.05c-1.2,0.667-2.267,1.284-3.2,1.85l-0.75,0.55
		c0-0.1,0.018-0.184,0.051-0.25c0.232-0.367,0.517-0.817,0.85-1.35C105,77.7,106.117,76.333,107.35,75z M99.75,128.1L99,128.65
		l-0.25-1l0.35,1.55v0.05l0.25,0.4c0.268,0.267,0.567,0.533,0.9,0.8c1.033,0.833,2.3,1.5,3.8,2c0.833,0.267,1.617,0.683,2.351,1.25
		c0.6,0.466,1.267,1.117,2,1.95c0.166,0.167,0.383,0.417,0.649,0.75c0.167,0.2,0.333,0.4,0.5,0.6c0.134,0.167,0.267,0.333,0.4,0.5
		c0.133,0.167,0.283,0.35,0.45,0.55c0.166,0.2,0.3,0.384,0.399,0.55c0.733,0.833,1.434,1.566,2.101,2.2
		c1.833,1.833,3.166,2.95,4,3.35c0.433,0.267,0.833,0.4,1.199,0.4c0.334,0,0.7-0.083,1.101-0.25l0.85-0.3l0.601-0.3l0.149-0.05
		l0.2-0.1c0.233-0.066,0.5-0.1,0.8-0.1c1.033,0.167,2.217,0.9,3.55,2.2c0.967,0.9,1.667,1.75,2.101,2.55
		c0.133,0.333,0.25,0.683,0.35,1.05c0.101,0.533,0.067,0.95-0.1,1.25c-0.167-0.267-0.351-0.533-0.55-0.8
		c-0.101-0.034-0.184-0.1-0.25-0.2c-0.167-0.267-0.367-0.517-0.601-0.75c-1.167-1.233-2.283-1.967-3.35-2.2
		c-1.067-0.233-1.967-0.4-2.7-0.5h-0.8l0.399,0.1c0.268,0.133,0.551,0.284,0.851,0.45c0.899,0.6,1.633,1.4,2.2,2.4
		c0.533,1,0.866,2.15,1,3.45c0.1,0.634,0.133,1.167,0.1,1.6c-0.667-0.866-1.45-1.8-2.35-2.8c-1.801-2-3.233-3.35-4.301-4.05
		c-1.3-0.867-2.183-1.5-2.649-1.9c-0.467-0.4-1.45-1.383-2.95-2.95c-0.6-0.633-1.267-1.367-2-2.2c-1-1.167-1.55-1.816-1.65-1.95
		c-1.267-1.333-2.6-2.467-4-3.4c-1.666-1.1-3.116-2.25-4.35-3.45c-1.233-1.167-1.917-2.067-2.05-2.7
		c-0.134-0.467-0.05-0.95,0.25-1.45c0.1-0.133,0.217-0.267,0.35-0.4c0.067-0.033,0.134-0.083,0.2-0.15l1.45-1.4
		c1.167-1.233,2.283-2.45,3.35-3.65c3.4-3.967,5.583-7.317,6.55-10.05c0.967-2.767,1.834-5.95,2.601-9.55
		c0.2-1.167,0.399-2.3,0.6-3.4l0.2-1.25l0.6-0.5c0.467-0.5,0.917-1.017,1.351-1.55c1.467-1.7,2.583-3.5,3.35-5.4
		c0.733-1.867,1.2-3.55,1.4-5.05c0.033-0.467,0.066-0.883,0.1-1.25l-0.1-0.4l0.3,0.6c0.167,0.5,0.333,1.034,0.5,1.6
		c0.5,1.867,0.7,3.567,0.6,5.1c-0.133,1.533-0.482,2.9-1.05,4.1c-0.333,0.6-0.633,1.066-0.899,1.4l0.85-0.7
		c0.7-0.566,1.434-1.183,2.2-1.85c2.399-2.233,4.583-4.717,6.55-7.45c0.4-0.6,0.8-1.183,1.2-1.75c1.233-2.033,2.116-3.867,2.649-5.5
		c0.167-0.667,0.301-1.267,0.4-1.8v-0.6l0.1,0.25l0.4,0.6c0.367,0.667,0.633,1.45,0.8,2.35c0.467,2.867-0.283,6.1-2.25,9.7
		c-1.967,3.6-3.917,6.2-5.85,7.8c-0.634,0.534-1.2,0.934-1.7,1.2l-0.65,0.2l0.75-0.1c0.601-0.1,1.217-0.233,1.851-0.4
		c2-0.667,3.633-1.717,4.899-3.15l3-3.4l-0.05,0.75c-0.1,0.667-0.25,1.333-0.45,2c0.033,0,0.051,0.017,0.051,0.05
		c-0.268,0.667-0.533,1.333-0.801,2c-0.6,1.2-1.383,2.233-2.35,3.1c-1.434,1.267-2.65,2.067-3.65,2.4c-0.3,0.1-0.55,0.167-0.75,0.2
		l0.75,0.1c0.867,0.1,1.717,0.167,2.551,0.2c0.566-0.034,1.133-0.067,1.699-0.1c0.801-0.1,1.567-0.283,2.301-0.55
		c0.899-0.3,1.717-0.716,2.449-1.25c-0.767,0.767-1.699,1.55-2.8,2.35c-0.899,0.767-1.75,1.4-2.55,1.9
		c-0.967,0.567-1.833,0.934-2.6,1.1c-0.367,0.1-0.733,0.184-1.101,0.25c-0.899,0.1-1.667,0.05-2.3-0.15
		c-0.3-0.133-0.55-0.25-0.75-0.35l-0.25-0.2c-0.1-0.767-0.283-1.483-0.55-2.15c-0.134-0.233-0.25-0.483-0.351-0.75
		c-0.933-1.8-2.166-2.45-3.699-1.95c-0.934,0.3-1.768,0.883-2.5,1.75c-0.634,0.767-1.351,1.933-2.15,3.5
		c-0.5,0.933-1.35,2.583-2.55,4.95c-1.167,2.333-2.333,4.45-3.5,6.35c-2.3,3.867-4.601,6.967-6.9,9.3
		C101.066,126.967,100.383,127.6,99.75,128.1z M123.9,121.3c0.366,0.7,0.616,1.617,0.75,2.75c0.133,0.767,0.199,1.567,0.199,2.4
		c0.033,1.767-0.166,3.716-0.6,5.85c-0.133,0.667-0.267,1.284-0.4,1.85c-0.566,2.333-1.333,4.333-2.3,6
		c-0.566,0.967-1.149,1.7-1.75,2.2c-0.6,0.466-1.167,0.65-1.7,0.55c-0.533-0.133-1-0.55-1.399-1.25
		c-0.367-0.633-0.634-1.517-0.8-2.65c-0.301-2.367-0.15-5.133,0.449-8.3c0.134-0.8,0.317-1.583,0.551-2.35
		c0.433,0.8,0.982,1.217,1.649,1.25c0.8,0.033,1.483-0.467,2.05-1.5c0.601-1.033,0.917-2.317,0.95-3.85
		c0.101-1.4-0.083-2.617-0.55-3.65c0.533-0.4,1.033-0.55,1.5-0.45C123.033,120.25,123.5,120.633,123.9,121.3z M121.75,137.05
		c-0.2-0.3-0.4-0.466-0.6-0.5c-0.233,0-0.45,0.15-0.65,0.45c-0.133,0.267-0.217,0.633-0.25,1.1c-0.033,0.4,0.033,0.767,0.2,1.1
		c0.133,0.3,0.316,0.45,0.55,0.45c0.267,0.034,0.467-0.1,0.6-0.4c0.2-0.267,0.301-0.633,0.301-1.1
		C121.934,137.717,121.883,137.35,121.75,137.05z M136.05,212.8c2.067,0.435,4.101,1.101,6.101,2c1.899,0.9,3.467,1.833,4.699,2.8
		c1.233,0.967,1.9,1.769,2,2.4v0.05c-1.699,0.101-3.467,0.05-5.3-0.149c-3.633-0.399-7.683-1.366-12.149-2.899
		c-2.934-1-5.684-2.185-8.25-3.55l0.5-0.2c0.767-0.334,1.616-0.584,2.55-0.75C129.167,211.9,132.45,212,136.05,212.8z"/>
	<path fill="#FBF49D" d="M106.7,73c1.133-1.5,2.866-3.317,5.2-5.45c1.399-1.267,3.717-3.35,6.949-6.25
		c3.101-2.867,7.217-5.95,12.351-9.25c6.467-4.167,13.616-8,21.45-11.5c9.565-4.267,19.648-7.783,30.25-10.55
		c12.433-3.333,25.3-5.567,38.6-6.7c-0.333-0.066-0.684-0.167-1.05-0.3c1.1,0.133,2.116,0.3,3.05,0.5
		c3.167,0.667,5.316,1.55,6.45,2.65c-2.2,0.434-5.067,1.15-8.601,2.15c-7.066,2.034-14.018,4.5-20.851,7.4
		c-9.565,4.033-18.185,8.667-25.851,13.9c-9.699,6.533-17.616,13.816-23.75,21.85c-8.768,11.333-14.434,21.367-17,30.1
		c-0.733,0.267-1.5,0.45-2.301,0.55c0.434-2,1.018-3.967,1.75-5.9c0.268-0.667,0.533-1.333,0.801-2c0-0.034-0.018-0.05-0.051-0.05
		c1.967-4.667,4.533-9.083,7.7-13.25c1.634-2.2,3.384-4.217,5.25-6.05c0.934-0.9,1.684-1.567,2.25-2
		c-0.366,0.133-0.883,0.3-1.55,0.5c-1.233,0.367-2.483,0.6-3.75,0.7c-3.633,0.3-6.517-0.617-8.65-2.75l-0.699,1.85
		c-0.4,1.167-0.834,2.317-1.301,3.45l-0.1-0.25v0.55c-0.267,0.633-0.533,1.3-0.8,2c-0.8,1.934-1.55,3.717-2.25,5.35
		c-0.4,0.567-0.8,1.15-1.2,1.75c-1.967,2.733-4.15,5.217-6.55,7.45c-0.767,0.667-1.5,1.283-2.2,1.85L119.4,96
		c0.267-0.333,0.566-0.8,0.899-1.4c0.567-1.2,0.917-2.567,1.05-4.1c0.101-1.533-0.1-3.233-0.6-5.1c-0.167-0.566-0.333-1.1-0.5-1.6
		l-0.3-0.6l0.1,0.4c-0.033,0.367-0.066,0.783-0.1,1.25c-0.2,1.5-0.667,3.183-1.4,5.05c-0.767,1.9-1.883,3.7-3.35,5.4
		c-0.434,0.534-0.884,1.05-1.351,1.55l-0.6,0.5l-0.2,1.25c-0.2,1.1-0.399,2.233-0.6,3.4c-0.767,3.6-1.634,6.783-2.601,9.55
		c-0.967,2.733-3.149,6.083-6.55,10.05c-1.066,1.2-2.183,2.417-3.35,3.65l-1.45,1.4c-0.066,0.067-0.133,0.117-0.2,0.15
		c-0.133,0.133-0.25,0.267-0.35,0.4c-0.3,0.5-0.384,0.983-0.25,1.45c0.133,0.633,0.816,1.533,2.05,2.7
		c1.233,1.2,2.684,2.35,4.35,3.45c1.4,0.934,2.733,2.067,4,3.4c0.101,0.133,0.65,0.783,1.65,1.95c0.733,0.833,1.4,1.567,2,2.2
		c1.5,1.566,2.483,2.55,2.95,2.95c0.467,0.4,1.35,1.034,2.649,1.9c1.067,0.7,2.5,2.05,4.301,4.05c0.899,1,1.683,1.934,2.35,2.8
		c0.033-0.433,0-0.966-0.1-1.6c-0.134-1.3-0.467-2.45-1-3.45c-0.567-1-1.301-1.8-2.2-2.4c-0.3-0.167-0.583-0.317-0.851-0.45
		l-0.399-0.1h0.8c0.733,0.1,1.633,0.267,2.7,0.5c1.066,0.233,2.183,0.967,3.35,2.2c0.233,0.233,0.434,0.483,0.601,0.75
		c0.066,0.2,0.133,0.417,0.199,0.65c0-0.1,0-0.183,0-0.25c0.101,0.367,0.15,0.767,0.15,1.2c0.066,0.367,0.184,0.984,0.35,1.852
		c0.134,0.767,0.067,1.583-0.199,2.449c-0.768,2.367-3.384,5.399-7.851,9.101c-4.366,3.666-8.6,7.967-12.7,12.899
		c-1.3,1.566-2.482,3.084-3.55,4.551c-0.5,0.634-0.866,1.167-1.1,1.6c-0.233-0.232-0.434-0.417-0.601-0.55
		c-0.3-0.233-0.55-0.315-0.75-0.25c-0.232,0.065-0.366,0.45-0.399,1.149c-0.033,0.435,0,1.084,0.1,1.949
		c-0.133,1.5-0.083,3.668,0.15,6.5c0.366,4.467,1.116,8.7,2.25,12.7c0.533,1.968,1.066,3.517,1.6,4.65
		c-0.133-1.5-0.217-3.25-0.25-5.25c0.033-0.5,0.033-0.95,0-1.351c0.167-3.199,0.317-5.634,0.45-7.301
		c0.033,0.067,0.05,0.116,0.05,0.15l0.351,0.648c0.3,0.5,0.649,1.066,1.05,1.7c1.233,1.866,2.667,3.7,4.3,5.5
		c0.033,0,0.066,0.034,0.1,0.101c0.167,0.166,0.351,0.351,0.551,0.551c0.533,0.732,1.267,1.5,2.199,2.3c0.733,0.633,1.4,1.133,2,1.5
		c0.2,0.2,0.417,0.383,0.65,0.55c2.2,1.733,4.583,3.284,7.15,4.65c2.566,1.365,5.316,2.55,8.25,3.55
		c4.467,1.533,8.517,2.5,12.149,2.899c1.833,0.199,3.601,0.25,5.3,0.149c0.7-0.032,1.384-0.083,2.051-0.149
		c0.533-0.101,1.315-0.217,2.35-0.351c0.732-0.167,1.283-0.233,1.65-0.2c0.467-0.033,0.85,0.033,1.148,0.2
		c0.367,0.167,0.667,0.483,0.9,0.95l0.25,0.8c0.1,0.634,0.05,1.233-0.15,1.8c-0.667,1.9-2.8,3.2-6.398,3.9
		c-3.769,0.732-7.75,0.434-11.95-0.9c-2.767-0.865-5.733-2.266-8.9-4.199c-1.833-1.065-3.267-1.851-4.3-2.351
		c-0.267-0.134-0.517-0.216-0.75-0.25l-0.2-0.101l1.2,1.851c1,1.468,2.117,2.917,3.35,4.351c3.967,4.566,8.317,8.101,13.051,10.601
		c4.732,2.435,9.683,4.351,14.85,5.75c2.601,0.7,4.7,1.166,6.3,1.399c-0.398-0.399-0.783-0.768-1.148-1.101
		c1.8,1.267,3.832,2.483,6.1,3.649c4.9,2.467,10.65,4.533,17.25,6.201c12.434,3.1,25.268,4.666,38.5,4.699
		c4.9,0.032,10.051-0.15,15.45-0.551c2.8-0.167,6.983-0.533,12.55-1.1c4.133-0.467,7.566-0.983,10.3-1.551l1.101-0.351
		c0.232-0.033,0.5-0.101,0.801-0.2h0.05c-0.133,0.066-0.267,0.117-0.399,0.15c-4.268,1.633-8.851,3.117-13.75,4.449
		c-15.666,4.301-31.434,6.367-47.301,6.201c-22.199-0.269-43.017-4.951-62.45-14.052c-23.933-11.266-45.033-29-63.3-53.198
		c-0.467-0.9-0.899-1.834-1.3-2.802c0.5-0.967,2.066-2.083,4.7-3.35c1.7-0.8,2.483-2.15,2.35-4.05c-0.066-1.334-0.667-3.15-1.8-5.45
		c-0.533-1.233-0.95-2.117-1.25-2.65c-0.434-0.967-0.717-1.717-0.85-2.25c-0.2-0.666-0.217-1.184-0.051-1.55
		c0.167-0.398,0.567-0.616,1.2-0.648c1.267-0.066,2.417,0.198,3.45,0.799c0.833,0.5,1.633,1.268,2.4,2.301
		c0.333,0.434,0.967,1.4,1.899,2.9c0.8,1.266,1.483,2.184,2.05,2.75c0.7,0.731,1.4,0.75,2.101,0.049c0.467-0.434,1.3-1.601,2.5-3.5
		c1.433-2.467,2.667-4.383,3.7-5.75c1.833-2.434,3.816-4.566,5.949-6.399c2.334-2.032,3.75-4.149,4.25-6.351
		c0.434-2,0.117-4.149-0.949-6.449c-0.9-1.934-2.417-4.117-4.551-6.55c-1.366-1.567-3.55-3.85-6.55-6.85
		c-2.3-2.3-3.783-4.117-4.45-5.45c-0.6-1.3-0.633-2.533-0.1-3.7c0.233-0.567,0.633-1.217,1.2-1.95c0.267-0.367,0.866-1.133,1.8-2.3
		c1.867-2.4,3.417-4.633,4.65-6.7c1.633-2.733,2.833-5.6,3.6-8.6c0.7-2.667,1.083-5.533,1.15-8.6c0.1-2.4,0-5.25-0.301-8.55
		c-0.399-3.767-0.699-6.6-0.899-8.5c-0.2-2.033-0.15-3.883,0.149-5.55l0.75-0.55c0.934-0.566,2-1.183,3.2-1.85
		c3.9-2.1,8.567-4.117,14-6.05c5.467-1.967,9.667-2.617,12.601-1.95c0.6,0.133,1.116,0.317,1.55,0.55l-0.4-0.1
		c0.167,0.2,0.351,0.383,0.55,0.55l0.101-0.4c0.133,0.1,0.3,0.217,0.5,0.35c0.267,0.233,0.433,0.433,0.5,0.6
		c0.8-1.867,0.933-3.434,0.399-4.7c-0.5-1.133-1.533-1.917-3.1-2.35c-1.566-0.466-3.517-0.566-5.85-0.3
		c-2.334,0.233-4.884,0.833-7.65,1.8c-4.7,1.6-9,4.5-12.9,8.7c-1.232,1.333-2.35,2.7-3.35,4.1c-0.333,0.533-0.617,0.983-0.85,1.35
		c0.1-0.567,0.232-1.117,0.399-1.65C104.117,76.8,105.167,74.867,106.7,73z M127.1,150.15c-0.1,0.733-0.1,1.333,0,1.8
		c0.067-0.366,0.067-0.833,0-1.4C127.1,150.417,127.1,150.283,127.1,150.15z M133.55,102.65c-0.667,2.667-1.083,5.184-1.25,7.55
		c-0.167,4.033,0.45,7.7,1.851,11c0.967,2.3,2.433,4.633,4.399,7c2.533,3,5.517,4.85,8.95,5.55c1.066,0.2,2.117,0.283,3.15,0.25
		c0.533-0.033,0.949-0.05,1.25-0.05l-0.15,1.25c-0.167,1.066-0.434,2.1-0.8,3.1c-1.167,3.367-3.083,5.95-5.75,7.75
		c-2.767,1.867-5.167,3.1-7.2,3.7c-0.833,0.2-1.7,0.35-2.6,0.45c-0.301,0-0.917,0.017-1.851,0.05l-0.05,0.05
		c-1.133-0.433-1.8-1.55-2-3.35c-0.167-1.8,0.333-3.317,1.5-4.55c0.6-0.6,1.217-1.033,1.85-1.3c-0.333-0.667-0.732-1.6-1.199-2.8
		c-0.934-2.466-1.7-5.066-2.301-7.8c-2-8.767-2.116-17.417-0.35-25.95C131.8,104.05,132.65,103.417,133.55,102.65z M137.55,155.05
		c0.233,0.8,0.533,1.583,0.9,2.351c1.1,2.301,2.467,4,4.1,5.101c1.2,0.767,1.95,1.3,2.25,1.601c0.5,0.434,0.783,0.916,0.851,1.449
		l-1.301,1.9c-1.3,1.767-2.683,3.449-4.149,5.05c-4.8,5.033-9.817,8.233-15.05,9.601c-3,0.733-5.134,0.949-6.4,0.649
		c-1.2-0.334-1.75-1.117-1.65-2.351c0.134-1,0.717-2.434,1.75-4.301c0.667-1.1,1.801-2.865,3.4-5.3c2.033-3.032,4.5-6.216,7.4-9.55
		c1.399-1.666,2.633-3,3.699-4l0.101,0.5c0.167,0.367,0.366,0.717,0.6,1.05c0.767,1.2,1.851,2.067,3.25,2.601
		c1.533,0.566,2.567,0.834,3.101,0.801c0.232-0.067,0.35-0.167,0.35-0.301c0-0.065-0.066-0.149-0.2-0.25
		c-0.3-0.268-0.933-1.184-1.899-2.75c-1.033-1.633-1.601-2.782-1.7-3.449c-0.033-0.333,0.017-0.616,0.149-0.852
		c0.067-0.1,0.167-0.184,0.301-0.25L137.55,155.05z"/>
	<path fill="#FEE45D" d="M156.95,220.5c0.565,0.6,1.017,1.584,1.35,2.95c0.367,1.433,0.351,2.532-0.05,3.3
		c-0.2,0.268-0.533,0.717-1,1.35c-0.566,0.7-0.982,1.25-1.25,1.65c-0.967,1.434-1.232,2.8-0.8,4.1c0.467,1.269,1.967,3.2,4.5,5.801
		c0.8,0.834,1.616,1.634,2.45,2.399c0.365,0.333,0.75,0.7,1.148,1.101c-1.6-0.233-3.699-0.699-6.3-1.399
		c-5.167-1.399-10.117-3.315-14.85-5.75c-4.733-2.5-9.084-6.033-13.051-10.601c-1.232-1.434-2.35-2.883-3.35-4.351l-1.2-1.85
		l0.2,0.1c0.233,0.034,0.483,0.116,0.75,0.25c1.033,0.5,2.467,1.284,4.3,2.351c3.167,1.935,6.134,3.334,8.9,4.199
		c4.2,1.334,8.183,1.635,11.951,0.9c3.6-0.7,5.731-2,6.398-3.9c0.2-0.565,0.25-1.166,0.15-1.8L156.95,220.5z M147.75,73.35
		c0.667-0.2,1.184-0.367,1.55-0.5c-0.566,0.433-1.316,1.1-2.25,2c-1.866,1.833-3.616,3.85-5.25,6.05
		c-3.167,4.167-5.733,8.583-7.7,13.25c0.2-0.667,0.351-1.333,0.45-2l0.05-0.75l-3,3.4c-1.267,1.434-2.899,2.483-4.899,3.15
		c-0.634,0.167-1.25,0.3-1.851,0.4l-0.75,0.1l0.65-0.2c0.5-0.267,1.066-0.667,1.7-1.2c1.933-1.6,3.883-4.2,5.85-7.8
		c1.967-3.6,2.717-6.833,2.25-9.7c-0.167-0.9-0.433-1.683-0.8-2.35l-0.4-0.6c0.467-1.133,0.9-2.283,1.301-3.45l0.699-1.85
		c2.134,2.133,5.018,3.05,8.65,2.75C145.267,73.95,146.517,73.717,147.75,73.35z M102.45,183.8c-0.101-0.1-0.184-0.183-0.25-0.25
		c0.233-0.433,0.6-0.966,1.1-1.6c1.067-1.468,2.25-2.983,3.55-4.55c4.101-4.935,8.334-9.234,12.7-12.9
		c4.467-3.7,7.083-6.732,7.851-9.1c0.267-0.867,0.333-1.685,0.199-2.45c-0.166-0.866-0.283-1.483-0.35-1.851
		c0-0.434-0.05-0.833-0.15-1.201c0-0.033,0-0.1,0-0.2h0.051c0.199,0.267,0.383,0.533,0.55,0.8c0.167-0.3,0.2-0.717,0.1-1.25
		c-0.1-0.367-0.217-0.717-0.35-1.05c0.267-1.2,0.767-2.367,1.5-3.5c1-1.567,1.816-2.9,2.45-4l0.649-1.15
		c-0.533-0.9-1.1-2.316-1.7-4.25c-1.267-3.966-2.133-8.683-2.6-14.15c-0.434-5.5-0.633-9.8-0.6-12.9
		c0.033-0.967,0.083-1.75,0.149-2.35c0.367-0.066,0.733-0.15,1.101-0.25c0.767-0.167,1.633-0.533,2.6-1.1
		c-1.767,8.534-1.65,17.184,0.35,25.95c0.601,2.733,1.367,5.333,2.301,7.8c0.467,1.2,0.866,2.134,1.199,2.8
		c-0.633,0.267-1.25,0.7-1.85,1.3c-1.167,1.233-1.667,2.75-1.5,4.55c0.2,1.8,0.867,2.917,2,3.35l0.05-0.05
		c0.934-0.033,1.55-0.05,1.851-0.05c0.899-0.1,1.767-0.25,2.6-0.45c2.033-0.6,4.434-1.833,7.2-3.7c2.667-1.8,4.583-4.383,5.75-7.75
		c0.365-1,0.633-2.033,0.8-3.1l0.149-1.25c0.199-0.2,0.399-0.267,0.601-0.2c0.267,0.067,0.5,0.233,0.7,0.5
		c0.398,0.733,0.449,1.783,0.148,3.15c-0.166,0.767-0.633,1.85-1.398,3.25s-1.684,2.85-2.75,4.35c-2.601,3.566-4.867,5.883-6.8,6.95
		c-0.834,0.433-1.717,0.85-2.65,1.25c-1.066,0.5-1.633,0.767-1.7,0.8c-0.267,0.133-0.483,0.25-0.649,0.351
		c-0.134,0.065-0.233,0.149-0.301,0.25c-0.133,0.233-0.183,0.518-0.149,0.851c0.1,0.667,0.667,1.815,1.7,3.45
		c0.967,1.565,1.6,2.481,1.899,2.75c0.134,0.1,0.2,0.184,0.2,0.25c0,0.133-0.117,0.231-0.35,0.3c-0.533,0.032-1.567-0.233-3.101-0.8
		c-1.399-0.533-2.483-1.4-3.25-2.602c-0.233-0.333-0.433-0.683-0.6-1.05l-0.101-0.5c-1.066,1-2.3,2.334-3.699,4
		c-2.9,3.334-5.367,6.517-7.4,9.55c-1.6,2.434-2.733,4.2-3.4,5.301c-1.033,1.866-1.616,3.301-1.75,4.301
		c-0.1,1.231,0.45,2.016,1.65,2.35c1.267,0.3,3.4,0.084,6.4-0.65c5.232-1.365,10.25-4.565,15.05-9.6
		c1.467-1.6,2.85-3.283,4.149-5.05l1.301-1.9l0.1-0.25l0.1,0.2c0.067,0.2,0.067,0.5,0,0.9c-0.199,1.3-1,3.315-2.399,6.05
		c-0.467,0.899-0.983,1.75-1.55,2.55c-1.601,2.434-3.5,4.566-5.7,6.4c-3.5,2.898-8.434,5.582-14.8,8.05c-5.101,2-9,2.733-11.7,2.2
		c-0.3-0.2-0.567-0.435-0.8-0.7c-1.2-1.5-1.533-3.7-1-6.601c0.533-2.899,1.533-5.732,3-8.5c0.467-0.867,0.967-1.666,1.5-2.399
		l0.6-0.9c-1.033,0.833-2.217,1.935-3.55,3.3c-2.733,2.7-4.884,5.385-6.45,8.051C102.934,184.066,102.75,184.033,102.45,183.8z
		 M177.1,19.05c10.935-0.6,21.602-0.066,32,1.6c3.233,0.533,6.283,1.133,9.15,1.8c0.867,0.2,1.6,0.383,2.2,0.55
		c0.366,0.133,0.717,0.233,1.05,0.3c-13.3,1.133-26.167,3.367-38.6,6.7c-10.602,2.767-20.685,6.283-30.25,10.55
		c-7.834,3.5-14.983,7.333-21.45,11.5c-5.134,3.3-9.25,6.383-12.351,9.25c-3.232,2.9-5.55,4.983-6.949,6.25
		c-2.334,2.133-4.067,3.95-5.2,5.45c-1.533,1.867-2.583,3.8-3.15,5.8c-0.167,0.534-0.3,1.083-0.399,1.65
		c-0.033,0.066-0.051,0.15-0.051,0.25c-0.3,1.667-0.35,3.517-0.149,5.55c0.2,1.9,0.5,4.733,0.899,8.5c0.301,3.3,0.4,6.15,0.301,8.55
		c-0.067,3.067-0.45,5.934-1.15,8.6c-0.767,3-1.967,5.867-3.6,8.6c-1.233,2.067-2.783,4.3-4.65,6.7
		c-0.934,1.167-1.533,1.933-1.8,2.3c-0.567,0.733-0.967,1.383-1.2,1.95c-0.533,1.167-0.5,2.4,0.1,3.7
		c0.667,1.333,2.15,3.15,4.45,5.45c3,3,5.184,5.283,6.55,6.85c2.134,2.433,3.65,4.616,4.551,6.55c1.066,2.3,1.383,4.45,0.949,6.45
		c-0.5,2.2-1.916,4.315-4.25,6.35c-2.133,1.833-4.116,3.968-5.949,6.4c-1.033,1.366-2.268,3.282-3.7,5.75
		c-1.2,1.899-2.033,3.065-2.5,3.5c-0.7,0.7-1.4,0.683-2.101-0.05c-0.566-0.566-1.25-1.484-2.05-2.75
		c-0.933-1.5-1.566-2.467-1.899-2.9c-0.768-1.033-1.567-1.8-2.4-2.3c-1.033-0.601-2.184-0.866-3.45-0.8
		c-0.633,0.033-1.033,0.25-1.2,0.648c-0.166,0.366-0.149,0.885,0.051,1.551c0.133,0.532,0.416,1.282,0.85,2.25
		c0.3,0.532,0.717,1.416,1.25,2.649c1.133,2.3,1.733,4.117,1.8,5.45c0.134,1.898-0.649,3.25-2.35,4.05
		c-2.634,1.267-4.2,2.383-4.7,3.351c-0.133,0.199-0.217,0.399-0.25,0.601c-0.033,0.333,0.066,0.616,0.3,0.85
		c0.134,0.167,0.283,0.267,0.45,0.3c0.233,0.367,0.5,0.717,0.8,1.051c18.267,24.199,39.367,41.935,63.3,53.199
		c19.434,9.102,40.25,13.783,62.45,14.051c15.867,0.166,31.635-1.899,47.301-6.199c4.899-1.333,9.482-2.817,13.75-4.45
		c0.133-0.033,0.268-0.084,0.399-0.149c1.968-0.732,3.5-1.351,4.601-1.851c-0.566,0.367-1.199,0.75-1.899,1.149
		c-0.667,0.435-1.384,0.834-2.149,1.199l-1.301,0.801c-1.333,0.732-2.816,1.482-4.449,2.25c-6.168,3.066-12.384,5.601-18.649,7.601
		c-2.101,0.666-4.2,1.267-6.302,1.8c-0.967,0.268-3.815,1.083-8.549,2.45c-4.033,1.166-7.533,2.117-10.5,2.851
		c-9.367,2.268-18.518,3.684-27.451,4.25c-25.933,1.666-53.767-3.399-83.5-15.199c-8.5-3.4-16.283-8.168-23.35-14.301
		c-6.8-5.899-12.75-12.935-17.85-21.101c-4.967-7.834-8.983-16.483-12.051-25.95c-3.033-9.3-5.033-19.017-6-29.148
		c-1-10.135-0.933-20.3,0.2-30.5c1.134-10.4,3.351-20.417,6.65-30.05c3.399-10,7.816-19.283,13.25-27.85
		c5.767-8.967,12.533-16.933,20.3-23.9c14.533-13,30.55-22.75,48.05-29.25C147.267,22.933,161.867,19.917,177.1,19.05z"/>
	<path fill="#F0CC39" d="M190.35,15.6c11.5,1.167,22.668,3.633,33.5,7.4c-0.467,0.067-0.933,0.117-1.398,0.15
		c0.333,0.133,0.683,0.25,1.05,0.35c-0.935-0.2-1.95-0.367-3.05-0.5c-0.602-0.167-1.333-0.35-2.2-0.55
		c-2.867-0.667-5.917-1.267-9.149-1.8c-10.399-1.667-21.066-2.2-32-1.6c-15.232,0.867-29.833,3.883-43.801,9.05
		c-17.5,6.5-33.517,16.25-48.05,29.25c-7.767,6.967-14.533,14.933-20.3,23.9C59.517,89.817,55.1,99.1,51.7,109.1
		c-3.3,9.633-5.517,19.65-6.65,30.05c-1.133,10.2-1.2,20.368-0.2,30.5c0.967,10.133,2.967,19.85,6,29.148
		c3.067,9.467,7.084,18.116,12.051,25.95c5.1,8.166,11.05,15.2,17.85,21.101c7.066,6.133,14.85,10.899,23.35,14.301
		c29.733,11.8,57.567,16.865,83.5,15.199c8.934-0.566,18.084-1.982,27.449-4.25c2.967-0.732,6.467-1.685,10.5-2.851
		c4.733-1.367,7.583-2.185,8.551-2.45c2.101-0.533,4.199-1.134,6.301-1.8c6.533-1.935,12.666-4.351,18.398-7.25
		c1.667-0.867,3.233-1.733,4.7-2.601l1.3-0.801c0.768-0.365,1.483-0.766,2.15-1.199c0.365-0.133,0.732-0.233,1.1-0.301
		c-0.398,0.4-0.967,0.935-1.699,1.602c-1.5,1.433-3.218,2.85-5.149,4.25c-2.567,1.865-5.3,3.634-8.2,5.3
		c-6.066,3.867-12.417,7.282-19.05,10.25c-12.767,5.767-26.2,9.633-40.3,11.601c-19.067,2.666-37.817,1.684-56.25-2.949
		c-8.9-2.2-17.467-5.217-25.7-9.051c-8.2-3.801-15.934-8.301-23.2-13.5c-7.3-5.232-13.983-11.066-20.05-17.5
		c-6.167-6.5-11.601-13.517-16.3-21.051c-9.768-15.6-15.983-32.517-18.65-50.75c-1.3-9.134-1.65-18.283-1.05-27.45
		c0.633-8.9,2.167-17.667,4.6-26.3c2.367-8.5,5.583-16.716,9.65-24.65c4-7.833,8.767-15.25,14.3-22.25
		c5.5-7,11.633-13.433,18.4-19.3c6.866-5.934,14.25-11.167,22.149-15.7c16.4-9.433,34.15-15.483,53.25-18.15
		C166.667,14.583,178.518,14.367,190.35,15.6z M100.45,183.9c0.033-0.7,0.167-1.084,0.399-1.15c0.2-0.066,0.45,0.018,0.75,0.25
		c0.167,0.133,0.367,0.316,0.601,0.55c0.066,0.067,0.149,0.15,0.25,0.25c0.3,0.233,0.483,0.267,0.55,0.101
		c1.566-2.666,3.717-5.351,6.45-8.051c1.333-1.365,2.517-2.467,3.55-3.3l-0.6,0.9c-0.533,0.733-1.033,1.532-1.5,2.399
		c-1.467,2.768-2.467,5.601-3,8.5c-0.533,2.899-0.2,5.101,1,6.601c0.232,0.267,0.5,0.5,0.8,0.7c2.7,0.533,6.6-0.2,11.7-2.2
		c6.366-2.468,11.3-5.15,14.8-8.05c2.2-1.834,4.1-3.967,5.7-6.4l0.55,1.45l-0.5-0.9l-0.55,1.25c-0.533,1.034-1.167,2.05-1.9,3.05
		c-2.267,3.269-5,5.9-8.2,7.9c-1.2,0.768-2.3,1.584-3.3,2.45c-1.967,1.032-4.25,2.134-6.85,3.3c-4.634,2.033-7.617,4.15-8.95,6.35
		c-0.434,0.668-0.65,1.301-0.65,1.9c-0.033,0.3-0.017,0.533,0.05,0.7l-1.35,0.55l0.1,0.25c0.134,0.2,0.301,0.467,0.5,0.8
		c0.061,0.121,0.152,0.246,0.275,0.375c-0.193-0.192-0.369-0.368-0.525-0.524c-0.033-0.065-0.066-0.101-0.1-0.101
		c-1.633-1.8-3.066-3.634-4.3-5.5c-0.4-0.634-0.75-1.2-1.05-1.7l-0.351-0.648c0-0.034-0.017-0.083-0.05-0.15
		c-0.133,1.667-0.283,4.102-0.45,7.301c-0.033,0.934-0.083,1.899-0.149,2.899c-0.634-3.166-1.268-6.45-1.9-9.851
		c-0.9-4.733-1.467-8.166-1.7-10.301C100.45,184.982,100.417,184.334,100.45,183.9z M106.65,189.85l-0.25-0.449l0.1,0.25
		c0.1,0.166,0.2,0.351,0.3,0.551c0.233,0.232,0.483,0.433,0.75,0.6C107.25,190.533,106.95,190.217,106.65,189.85z M127.3,105.9
		c-0.066,0.6-0.116,1.383-0.149,2.35c-0.033,3.1,0.166,7.4,0.6,12.9c0.467,5.467,1.333,10.184,2.6,14.15
		c0.601,1.934,1.167,3.35,1.7,4.25l-0.649,1.15c-0.634,1.1-1.45,2.433-2.45,4c-0.733,1.133-1.233,2.3-1.5,3.5
		c-0.434-0.8-1.134-1.65-2.101-2.55c-1.333-1.3-2.517-2.033-3.55-2.2c-0.3,0-0.566,0.033-0.8,0.1l-0.2,0.1
		c0.134-0.267,0.283-0.566,0.45-0.9c0.267-0.4,0.566-0.867,0.9-1.4c0.1-0.3,0.232-0.583,0.399-0.85c0.8-1.833,1.483-4.033,2.05-6.6
		c0.567-2.767,0.917-5.683,1.051-8.75c0.133-2.1,0.133-4.183,0-6.25c-0.067-2.566-0.283-5.167-0.65-7.8
		c-0.167-1.533-0.383-2.983-0.65-4.35L124,105.2l0.25,0.2c0.2,0.1,0.45,0.217,0.75,0.35C125.633,105.95,126.4,106,127.3,105.9z"/>
	<path fill="#FFFFFF" d="M100.25,130.45c-0.333-0.267-0.633-0.534-0.9-0.8l-0.25-0.4v-0.05c0-0.067,0-0.15,0-0.25
		c0.067-0.167,0.15-0.35,0.25-0.55l0.4-0.3c0.633-0.5,1.316-1.133,2.05-1.9c2.3-2.333,4.601-5.434,6.9-9.3
		c1.167-1.9,2.333-4.017,3.5-6.35c1.2-2.367,2.05-4.017,2.55-4.95c0.8-1.567,1.517-2.733,2.15-3.5c0.732-0.867,1.566-1.45,2.5-1.75
		c1.533-0.5,2.767,0.15,3.699,1.95c0.101,0.267,0.217,0.517,0.351,0.75c0.2,1.034,0.45,2.284,0.75,3.75c0.3,1.9,0.667,4.7,1.1,8.4
		c0.134,1.233,0.25,2.466,0.351,3.7c0.133,2.067,0.133,4.15,0,6.25c-0.134,3.067-0.483,5.983-1.051,8.75
		c-0.566,2.567-1.25,4.767-2.05,6.6c-0.167,0.267-0.3,0.55-0.399,0.85c-0.334,0.533-0.634,1-0.9,1.4c-0.4,0.566-0.8,0.983-1.2,1.25
		l-0.85,0.3c-0.4,0.167-0.767,0.25-1.101,0.25c-0.366,0-0.767-0.133-1.199-0.4c-0.834-0.4-2.167-1.517-4-3.35
		c-0.667-0.633-1.367-1.366-2.101-2.2c-0.1-0.167-0.233-0.35-0.399-0.55c-0.167-0.2-0.317-0.383-0.45-0.55
		c-0.134-0.167-0.267-0.333-0.4-0.5c-0.167-0.2-0.333-0.4-0.5-0.6c-0.267-0.333-0.483-0.583-0.649-0.75
		c-0.733-0.833-1.4-1.483-2-1.95c-0.733-0.567-1.518-0.983-2.351-1.25C102.55,131.95,101.283,131.283,100.25,130.45z M110.85,204.05
		c-0.199-0.333-0.366-0.6-0.5-0.8l-0.1-0.25l1.35-0.55c-0.066-0.167-0.083-0.4-0.05-0.7c0-0.6,0.217-1.232,0.65-1.9
		c1.333-2.199,4.316-4.315,8.95-6.35c2.6-1.166,4.883-2.268,6.85-3.3c1-0.866,2.1-1.685,3.3-2.45c3.2-2,5.934-4.633,8.2-7.9
		c0.733-1,1.367-2.016,1.9-3.05l0.55-1.25l0.7,1.25l0.05-0.1l0.2,0.5c0.8,1.5,1.616,3.183,2.449,5.05c0.5,1.2,0.834,2.232,1,3.1
		c0.134,0.967,0.084,1.984-0.149,3.051c-0.333,1.101-0.884,2.384-1.65,3.851c-0.833,1.367-2,3.101-3.5,5.2
		c-2.433,3.466-6.1,6.283-11,8.449c-1.533,0.699-3.083,1.283-4.649,1.75l-1.9,0.551l-0.05-0.102c-2,0.5-4.117,0.852-6.351,1.051
		c-0.232-0.032-0.517-0.149-0.85-0.351h-0.05c-0.267-0.134-0.55-0.315-0.851-0.55c-0.6-0.367-1.267-0.867-2-1.5
		c-0.933-0.8-1.666-1.566-2.199-2.3C111.017,204.316,110.917,204.184,110.85,204.05z M123.9,121.3c-0.4-0.667-0.867-1.05-1.4-1.15
		c-0.467-0.1-0.967,0.05-1.5,0.45c0.467,1.033,0.65,2.25,0.55,3.65c-0.033,1.533-0.35,2.817-0.95,3.85
		c-0.566,1.033-1.25,1.533-2.05,1.5c-0.667-0.033-1.217-0.45-1.649-1.25c-0.233,0.767-0.417,1.55-0.551,2.35
		c-0.6,3.167-0.75,5.933-0.449,8.3c0.166,1.133,0.433,2.017,0.8,2.65c0.399,0.7,0.866,1.117,1.399,1.25
		c0.533,0.1,1.101-0.083,1.7-0.55c0.601-0.5,1.184-1.233,1.75-2.2c0.967-1.667,1.733-3.667,2.3-6c0.134-0.566,0.268-1.183,0.4-1.85
		c0.434-2.133,0.633-4.083,0.6-5.85c0-0.833-0.066-1.633-0.199-2.4C124.517,122.917,124.267,122,123.9,121.3z"/>
</g>
</svg>
