<?xml version="1.0" encoding="utf-8"?>
<!-- Generator: Adobe Illustrator 16.0.0, SVG Export Plug-In . SVG Version: 6.00 Build 0)  -->
<!DOCTYPE svg PUBLIC "-//W3C//DTD SVG 1.1//EN" "http://www.w3.org/Graphics/SVG/1.1/DTD/svg11.dtd">
<svg version="1.1" id="Layer_1" xmlns="http://www.w3.org/2000/svg" xmlns:xlink="http://www.w3.org/1999/xlink" x="0px" y="0px"
	 width="300px" height="300px" viewBox="0 0 300 300" enable-background="new 0 0 300 300" xml:space="preserve">
<g>
	<path fill="#D65738" d="M250.801,177.434h-0.146v0.266C250.752,177.698,250.801,177.609,250.801,177.434z M168.318,62.333
		c5.826-1.584,11.869-2.61,18.127-3.08c1.193,2.855,2.277,5.779,3.256,8.771l0.527-0.176l-0.117,0.675
		c-0.781,0.684-1.437,1.515-1.965,2.493c-2.17-0.567-3.373-0.45-3.607,0.352c-0.098,0.293,0.107,1.232,0.615,2.816
		c0.959,2.875-1.074,3.676-6.103,2.405c1.429,4.751,2.603,6.844,3.521,6.277c0.353-0.176,0.986-0.753,1.906-1.73
		c0.957-0.919,1.976-1.525,3.051-1.819c-0.666,2.249-0.997,4.195-0.997,5.837c-1.154,0-2.875,1.32-5.162,3.96l-3.433,0.439
		c-1.545-0.625-3.285-0.938-5.221-0.938c-1.271-0.352-2.104-0.499-2.494-0.44c-0.469,0.117-0.391,0.322,0.234,0.615
		c-2.795,0.45-4.645,0.733-5.543,0.852c-2.523,6.179-5.398,9.67-8.625,10.471c-2.326,3.774-3.813,5.456-4.459,5.046
		c-0.449-0.509-0.84-0.93-1.172-1.262c-0.763-0.625-1.691-0.938-2.786-0.938c0.195,0.215-0.743,1.584-2.816,4.106
		c-2.053,2.464-2.513,4.038-1.378,4.723c-0.235,0.313-0.47,0.587-0.704,0.821c0.664,0.195,1.388,0.41,2.17,0.646
		c4.4,1.311,8.545,2.454,12.437,3.432c2.582,4.635,7.228,4.352,13.935-0.851c1.016-3.266,2.149-5.211,3.401-5.837
		c0.918-0.45,3.178-1.311,6.774-2.581l5.691-1.203c3.93-1.252,5.963-3.061,6.1-5.427c-2.248-0.978-3.166-2.121-2.756-3.432
		c0.332-1.193,2.365-0.361,6.101,2.493c2.68,3.657,4.85,5.749,6.514,6.277c1.937,0.626,2.902-1.007,2.902-4.898
		c-1.429,0.117,2.465-1.457,11.676-4.723c5.396,0.47,11.615,1.036,18.653,1.701c-1.151,0.938-1.584,1.486-1.291,1.643
		c0.218,0.176,1.38-0.273,3.49-1.35c2.133,0.156,3.347-0.02,3.64-0.527c0.801-1.369,1.633-2.405,2.491-3.109
		c-0.059-0.567-0.518-0.763-1.377-0.587c-4.692-2.973-2.748-3.09,5.836-0.352c9.427,3.051,14.14,4.771,14.14,5.162
		c0.449-4.282,0.771-6.287,0.967-6.013c1.468,2.405,3.64,3.578,6.515,3.52c6.373,8.213,11.36,17.159,14.959,26.839
		c0.137,0.372,0.272,0.753,0.41,1.145c3.715,10.462,5.573,21.305,5.573,32.528c0,19.518-5.358,37.399-16.073,53.649
		c-2.445-1.662-4.099-2.864-4.959-3.608c-1.445-1.271-1.476-2.336-0.086-3.196c-2.25,0.137-4.195-0.802-5.839-2.815
		c-1.76-2.111-2.786-3.168-3.079-3.168v-0.088c1.467-1.604,2.198-3.119,2.198-4.547c0-1.213-0.42-1.994-1.262-2.348
		c-0.859-0.313-1.427,0.068-1.699,1.146c-0.412,1.31-0.158,3.228,0.763,5.749c-1.604,1.604-3.902,3.148-6.894,4.635
		c-10.229-0.802-13.19-0.46-8.89,1.026c5.613,1.994,7.088,3.108,4.431,3.344c0.702,2.073,1.478,3.931,2.315,5.573l-2.492-2.055
		c-2.229,4.754-3.479,7.529-3.754,8.332c-1.135-1.545-2.162-2.582-3.08-3.109c-1.313-0.665-2.719-0.46-4.225,0.616
		c2.365-1.839,2.797-2.837,1.291-2.992c-1.605-0.177-5.271,1.771-11,5.837c-8.057-0.802-12.086-1.124-12.086-0.968
		c0.059,0.116,0.686,0.547,1.879,1.291c1.389,1.034,2.561,2.247,3.52,3.637c-0.899,0.567-1.125,0.871-0.676,0.909
		c0.273,0,1.135-0.078,2.582-0.234c3.383-0.352,5.094,0.332,5.133,2.053c-2.621,3.774-4.762,6.688-6.424,8.742l-2.934-1.438
		l1.203,7.479c-1.311,1.584-2.219,3.432-2.729,5.545c-0.859,1.035-1.289,1.983-1.289,2.844c-1.037-2.053-5.789-4.85-14.256-8.389
		c0.918-2.719,0.692-3.979-0.677-3.783c-1.151,0.155-2.678,1.271-4.576,3.344c-5.084,5.711-5.768,9.621-2.053,11.732
		c-2.758-0.802-6.16-1.604-10.207-2.404c0.233,1.311,0.127,3.117-0.321,5.426c-11.382-0.899-22.107-3.617-32.179-8.153
		c-5.535-2.522-10.874-5.583-16.016-9.182c-14.178-9.953-24.991-22.742-32.441-38.366l7.127,0.674
		c-1.134,0.979-1.594,1.555-1.378,1.73c0.254,0.117,1.438-0.371,3.549-1.467c2.112,0.177,3.305,0.011,3.578-0.498
		c0.802-1.39,1.663-2.426,2.582-3.109v-0.059c-0.117-0.371-0.45-0.559-0.998-0.559h-0.176c-0.098,0-0.186,0.01-0.264,0.029
		c-4.713-2.934-2.768-3.03,5.837-0.293c9.445,2.992,14.168,4.684,14.168,5.074c0.332-3.422,0.527-5.368,0.587-5.838
		c0.059-0.449,0.225-0.42,0.498,0.088c1.662,2.642,4.41,3.678,8.242,3.109c1.096,0.803,1.897,0.598,2.405-0.615
		c0.764-0.177,1.663-0.479,2.7-0.91c0.526-0.233,1.094-0.498,1.701-0.791c1.817,9.66,4.047,14.471,6.688,14.432
		c0.918,0,1.35-0.979,1.291-2.934c-0.062-2.19-0.843-4.801-2.349-7.832c0.803-0.156,2.299-1.213,4.487-3.168
		c2.229-1.937,4.265-4.019,6.103-6.248c1.136,1.136,2.22,2.356,3.257,3.668c-3.951,2.014-5.105,3.764-3.462,5.25
		c0.587,0.565,1.31,0.802,2.171,0.703c0.918-0.138,1.428-0.636,1.524-1.496c1.33,0.412,1.937,0.158,1.817-0.762
		c-0.176-0.861-0.858-2.093-2.053-3.695c1.311-0.725,3.168-1.486,5.572-2.289c-3.031-7.782-5.318-12.428-6.863-13.934l2.316-2.229
		c0.176,0.41,0.322,0.586,0.441,0.527c0.098-0.06,0.176-0.431,0.233-1.115l1.379-1.379c0.332,1.781,0.781,3.218,1.349,4.313
		c0.705,1.232,1.428,1.801,2.172,1.702c0.977-4.576,1.086-7.207,0.322-7.892c-0.605-0.527-1.888,0.099-3.843,1.877
		c-0.176-0.625-0.313-1.681-0.412-3.168l4.636,0.354l-1.144-2.083c2.813-1.778,1.476-4.292-4.021-7.538l-0.438,13.814l-0.676,0.588
		c-1.662-3.422-2.806-5.563-3.433-6.426c-2.404-3.207-5.387-4.867-8.944-4.985c0.702,0.803,1.368,2.377,1.993,4.724
		c0.685,2.463,0.998,4.614,0.939,6.453c-0.295,5.025-3.295,4.624-9.006-1.203c0.449-1.838,0.195-2.902-0.764-3.197
		c-1.133,0-2.131-0.02-2.99-0.059c-0.354-0.039-0.676-0.068-0.969-0.088c-4.518-0.45-7.207-4.693-8.067-12.73
		c1.486,1.428,3.09,1.779,4.811,1.057c1.545-0.645,2.514-1.701,2.905-3.168c0.41-1.506-0.215-2.366-1.877-2.581
		c-2.015-0.233-5.202,0.733-9.563,2.903c-5.593-0.116-9.475-1.262-11.646-3.433c-1.388-1.427-1.955-3.03-1.701-4.81
		c1.467,2.405,3.491,3.117,6.072,2.141c2.073-0.802,3.989-2.435,5.749-4.898c1.721-2.327,2.376-3.95,1.966-4.869
		c-0.509-1.095-2.396-0.47-5.662,1.877c-1.721-3.147-1.799-7.088-0.234-11.82c0.392-1.35,0.392-1.985,0-1.907
		c-0.469,0.059-2.014,0.948-4.635,2.67c-2.287,0.566-3.119,1.358-2.493,2.376c0.098,0.234,1.105,1.124,3.021,2.669
		c2.444,1.955-0.792,2.933-9.709,2.933c1.818,4.127,2.835,6.503,3.051,7.129c0.254,0.605,0,0.4-0.763-0.616
		c-3.188-4.518-5.612-7.294-7.274-8.331c0.625-0.117,0.107-0.547-1.555-1.29c-1.662-0.802-3.344-1.311-5.045-1.525
		c-5.046-0.646-6.395,1.896-4.048,7.626l-0.792,0.704c-0.567-0.059-1.712-0.01-3.433,0.146c-2.053,0.235-3.705,0.323-4.957,0.265
		c1.896-12.867,6.16-24.903,12.789-36.108c6.512-10.951,14.861-20.259,25.05-27.925c4.009,0.235,6.991-0.166,8.946-1.203
		c0.978-0.508,1.574-1.076,1.789-1.701c-0.176,0.802,0.255,2.806,1.291,6.013c0.293-3.891,0.919-6.961,1.877-9.21
		c1.037-2.581,1.271-2.405,0.704,0.528c2.345-0.059,4.145,0.401,5.397,1.379c0.687,0.567,1.573,1.486,2.67,2.757
		c2.346,2.17,7.694,2.083,16.045-0.264c10.012-0.763,13.131-2.659,9.356-5.69c-3.834-3.031-9.436-4.175-16.809-3.432L168.318,62.333
		z M179.641,149.216l-2.053,0.852l0.352,0.88L179.641,149.216z M176.736,150.243l-2.318-0.176l2.406,1.115L176.736,150.243z"/>
	<path fill="#FBA932" d="M184.539,71.368c0.234-0.802,1.438-0.919,3.607-0.352c0.528-0.978,1.184-1.809,1.965-2.493l0.117-0.675
		l-0.527,0.176c-0.979-2.992-2.063-5.916-3.256-8.771c2.385-0.176,4.811-0.264,7.275-0.264c15.407,0,29.946,3.412,43.616,10.237
		c13.22,6.571,24.435,15.693,33.646,27.367c-2.875,0.059-5.047-1.114-6.515-3.52c-0.194-0.274-0.518,1.73-0.967,6.013
		c0-0.391-4.713-2.111-14.14-5.162c-8.584-2.738-10.528-2.621-5.836,0.352c0.859-0.176,1.318,0.02,1.377,0.587
		c-0.858,0.704-1.69,1.74-2.491,3.109c-0.293,0.508-1.507,0.684-3.64,0.527c-2.11,1.076-3.272,1.525-3.49,1.35
		c-0.293-0.156,0.14-0.704,1.291-1.643c-7.038-0.665-13.258-1.231-18.653-1.701c-9.211,3.266-13.104,4.84-11.676,4.723
		c0,3.892-0.968,5.524-2.902,4.898c-1.664-0.528-3.834-2.62-6.514-6.277c-3.734-2.854-5.769-3.687-6.101-2.493
		c-0.41,1.311,0.508,2.454,2.756,3.432c-0.137,2.366-2.17,4.175-6.1,5.427l-5.691,1.203c-3.598,1.271-5.856,2.131-6.774,2.581
		c-1.252,0.626-2.388,2.571-3.401,5.837c-6.707,5.202-11.353,5.485-13.935,0.851c-3.892-0.978-8.037-2.121-12.437-3.432
		c-0.782-0.235-1.506-0.45-2.17-0.646c0.234-0.234,0.469-0.509,0.704-0.821c-1.135-0.685-0.675-2.259,1.378-4.723
		c2.073-2.522,3.012-3.892,2.816-4.106c1.095,0,2.023,0.313,2.786,0.938c0.332,0.332,0.723,0.753,1.172,1.262
		c0.646,0.41,2.133-1.271,4.459-5.046c3.227-0.801,6.102-4.292,8.625-10.471c0.898-0.118,2.748-0.401,5.543-0.852
		c-0.625-0.293-0.703-0.499-0.234-0.615c0.391-0.059,1.223,0.088,2.494,0.44c1.936,0,3.676,0.313,5.221,0.938l3.433-0.439
		c2.287-2.64,4.008-3.96,5.162-3.96c0-1.643,0.331-3.588,0.997-5.837c-1.075,0.293-2.094,0.899-3.051,1.819
		c-0.92,0.978-1.555,1.555-1.905,1.73c-0.921,0.567-2.095-1.525-3.521-6.277c5.027,1.271,7.062,0.469,6.103-2.405
		C184.646,72.6,184.441,71.661,184.539,71.368z M173.217,77.205c-8.35,2.347-13.699,2.435-16.045,0.264
		c-1.096-1.271-1.984-2.19-2.67-2.757c-1.252-0.978-3.051-1.438-5.397-1.379c0.567-2.933,0.333-3.109-0.704-0.528
		c-0.958,2.249-1.584,5.319-1.877,9.21c-1.036-3.207-1.467-5.211-1.291-6.013c-0.215,0.625-0.812,1.193-1.789,1.701
		c-1.955,1.037-4.938,1.438-8.946,1.203c3.5-2.621,7.079-4.986,10.735-7.099c4.791-1.721,8.371-3.471,10.736-5.25
		c3.834-1.663,7.949-3.07,12.35-4.224l-2.553,5.75c7.373-0.744,12.976,0.4,16.81,3.432
		C186.348,74.546,183.229,76.442,173.217,77.205z M103.347,98.823v1.202l-3.169-1.467L103.347,98.823z M107.13,97.356l-2.229,2.347
		l-0.527-1.145L107.13,97.356z M135.29,130.092c-1.564,4.732-1.486,8.673,0.234,11.82c3.266-2.347,5.153-2.972,5.662-1.877
		c0.41,0.919-0.245,2.542-1.966,4.869c-1.76,2.464-3.676,4.097-5.749,4.898c-2.581,0.978-4.605,0.265-6.072-2.141
		c-0.254,1.779,0.313,3.383,1.701,4.81c2.171,2.172,6.053,3.315,11.646,3.434c4.36-2.172,7.548-3.139,9.563-2.904
		c1.664,0.215,2.289,1.075,1.876,2.581c-0.391,1.467-1.359,2.522-2.905,3.168c-1.721,0.724-3.324,0.371-4.811-1.056
		c0.861,8.037,3.55,12.279,8.067,12.729c0.293,0.021,0.615,0.05,0.969,0.088c0.859,0.039,1.857,0.06,2.99,0.06
		c0.959,0.293,1.213,1.358,0.764,3.197c5.711,5.826,8.711,6.229,9.006,1.202c0.06-1.839-0.256-3.989-0.938-6.452
		c-0.625-2.348-1.291-3.922-1.994-4.725c3.56,0.118,6.541,1.779,8.944,4.986c0.627,0.861,1.771,3.003,3.433,6.425l0.676-0.587
		l0.439-13.815c5.493,3.246,6.834,5.759,4.021,7.538l1.143,2.083l-4.635-0.353c0.098,1.486,0.235,2.541,0.412,3.168
		c1.955-1.779,3.235-2.405,3.842-1.877c0.764,0.684,0.654,3.313-0.322,7.891c-0.744,0.098-1.467-0.471-2.172-1.702
		c-0.566-1.095-1.016-2.53-1.348-4.312l-1.38,1.379c-0.059,0.685-0.137,1.056-0.233,1.113c-0.119,0.06-0.267-0.117-0.441-0.526
		l-2.316,2.229c1.545,1.506,3.832,6.149,6.863,13.934c-2.404,0.802-4.262,1.564-5.572,2.287c1.193,1.604,1.877,2.836,2.053,3.695
		c0.117,0.92-0.487,1.174-1.817,0.764c-0.098,0.859-0.606,1.357-1.524,1.496c-0.861,0.098-1.584-0.139-2.17-0.705
		c-1.646-1.485-0.49-3.235,3.461-5.25c-1.037-1.311-2.121-2.531-3.256-3.666c-1.839,2.229-3.873,4.312-6.103,6.248
		c-2.188,1.955-3.687,3.011-4.488,3.168c1.507,3.031,2.287,5.641,2.349,7.832c0.059,1.955-0.373,2.933-1.291,2.933
		c-2.642,0.039-4.869-4.771-6.688-14.433c-0.606,0.293-1.174,0.559-1.701,0.793c-1.036,0.43-1.936,0.732-2.7,0.908
		c-0.508,1.213-1.31,1.418-2.405,0.616c-3.832,0.567-6.58-0.469-8.242-3.108c-0.273-0.508-0.439-0.538-0.498-0.088
		c-0.06,0.469-0.255,2.414-0.587,5.836c0-0.391-4.723-2.082-14.168-5.073c-8.604-2.737-10.55-2.64-5.837,0.293h0.059
		c0.059-0.021,0.127-0.029,0.205-0.029h0.176c0.548,0,0.881,0.187,0.998,0.558v0.06c-0.919,0.685-1.78,1.722-2.582,3.108
		c-0.273,0.51-1.466,0.676-3.578,0.5c-2.111,1.095-3.295,1.584-3.549,1.466c-0.216-0.177,0.244-0.753,1.378-1.73l-7.127-0.674
		c-1.311-2.737-2.65-6.004-4.019-9.798h0.088l-0.088-0.059l-0.411-1.231c-1.896-5.71-3.275-11.685-4.136-17.922
		c-0.567-4.068-0.851-8.419-0.851-13.054c0-4.812,0.342-9.532,1.026-14.167c1.252,0.059,2.904-0.029,4.957-0.265
		c1.721-0.156,2.865-0.205,3.433-0.146l0.792-0.704c-2.347-5.729-0.998-8.271,4.048-7.626c1.701,0.215,3.383,0.724,5.045,1.525
		c1.662,0.743,2.18,1.173,1.555,1.29c1.662,1.037,4.087,3.813,7.274,8.331c0.763,1.017,1.017,1.222,0.763,0.616
		c-0.216-0.626-1.232-3.002-3.051-7.129c8.917,0,12.153-0.978,9.709-2.933c-1.916-1.545-2.924-2.435-3.021-2.669
		c-0.626-1.018,0.206-1.81,2.493-2.376c2.621-1.722,4.166-2.611,4.635-2.67C135.681,128.106,135.681,128.742,135.29,130.092z
		 M127.399,147.662v-0.265l-0.088,0.265H127.399z M250.801,177.434c0,0.178-0.049,0.266-0.146,0.266v-0.266H250.801z
		 M179.641,149.216l-1.701,1.731l-0.352-0.88L179.641,149.216z M176.736,150.243l0.088,0.938l-2.406-1.115L176.736,150.243z
		 M202.842,236.773c1.369-0.195,1.594,1.064,0.676,3.783c8.467,3.539,13.219,6.336,14.256,8.389c0-0.859,0.431-1.809,1.289-2.844
		c0.51-2.113,1.418-3.961,2.729-5.545l-1.203-7.479l2.935,1.438c1.662-2.054,3.803-4.968,6.424-8.742
		c-0.039-1.721-1.75-2.403-5.133-2.053c-1.447,0.156-2.31,0.234-2.582,0.234c-0.449-0.038-0.226-0.342,0.676-0.909
		c-0.959-1.389-2.131-2.603-3.52-3.637c-1.193-0.744-1.82-1.175-1.88-1.291c0-0.156,4.029,0.166,12.087,0.968
		c5.729-4.066,9.395-6.014,11-5.837c1.506,0.155,1.073,1.153-1.291,2.992c1.506-1.076,2.911-1.281,4.225-0.616
		c0.918,0.527,1.945,1.564,3.08,3.109c0.272-0.803,1.522-3.578,3.754-8.332l2.492,2.055c-0.84-1.643-1.613-3.5-2.316-5.573
		c2.658-0.233,1.184-1.35-4.43-3.344c-4.303-1.485-1.34-1.828,8.889-1.026c2.99-1.486,5.289-3.031,6.893-4.635
		c-0.92-2.521-1.174-4.439-0.762-5.749c0.273-1.075,0.84-1.458,1.699-1.146c0.842,0.354,1.262,1.135,1.262,2.348
		c0,1.428-0.732,2.943-2.199,4.547v0.088c0.293,0,1.32,1.057,3.08,3.168c1.644,2.016,3.588,2.952,5.838,2.815
		c-1.389,0.86-1.358,1.927,0.086,3.196c0.861,0.744,2.515,1.946,4.959,3.608c-9.543,14.705-22.215,26.037-38.016,33.996
		c-4.518,2.327-9.348,4.321-14.49,5.983c-6.354,2.015-12.711,3.334-19.065,3.959l-0.527,0.09c-3.245,0.332-6.59,0.498-10.03,0.498
		c-2.406,0-5.084-0.137-8.037-0.411c0.449-2.308,0.557-4.115,0.322-5.427c4.047,0.803,7.448,1.604,10.206,2.406
		c-3.715-2.113-3.03-6.022,2.054-11.733C200.164,238.044,201.689,236.93,202.842,236.773z M196.213,251.852
		c0.625,0.41,1.574,0.692,2.846,0.851L196.213,251.852z"/>
	<path fill="#2B2A2B" d="M176.824,151.211l-0.088-0.968l-2.287-0.146L176.824,151.211z M177.617,150.097l0.322,0.851l1.729-1.702
		L177.617,150.097z M103.347,100.025v-1.202l-3.169-0.265L103.347,100.025z M104.374,98.559l0.527,1.145l2.229-2.347L104.374,98.559
		z M217.42,121.585l-1.789,4.106c0.803-1.369,2.641-2.308,5.516-2.815c5.299-1.018,13.269-0.274,23.904,2.229
		c-1.369-0.273-3.217-0.244-5.543,0.088c-4.654,0.686-9.299,2.719-13.934,6.102h-4.105l1.643,2.2
		c-1.838,0.254-4.243,0.919-7.217,1.994c-5.903,2.19-11.653,5.515-17.246,9.974c-1.428,0.273-2.942,0.929-4.547,1.965
		c-3.147,1.938-5.125,4.654-5.926,8.154l-4.047,1.789c0.234,0.646-1.047,3.656-3.844,9.035l0.059,0.146l-0.146-0.146
		c-2.759-2.522-4.703-4.469-5.837-5.838l-0.881-1.291l-4.371-0.264c-1.954-2.973-4.752-4.859-8.389-5.662L155.793,153
		c-6.805-2.288-13.346-3.432-19.624-3.432l-7.421,0.587l0.792-2.641l-3.843,1.438c-5.515-1.584-10.589-1.916-15.224-0.997
		l-5.221,1.789c9.093-5.944,16.338-9.347,21.735-10.208c3.03-0.508,5.055-0.254,6.071,0.763l-3.109-3.256
		c7.393,4.244,16.896,8.213,28.512,11.909c5.846,1.839,10.92,3.246,15.223,4.224c-0.352-1.251-0.42-2.308-0.205-3.168
		c-0.86-1.212-1.369-2.443-1.524-3.695c0.664,0.802,1.545,1.252,2.642,1.35l0.321-0.323c0.586-0.626,1.192-0.88,1.817-0.763
		c0.509-0.293,1.164-0.293,1.966,0l0.295,0.176l0.233-0.293c0.703-0.665,1.104-1.604,1.201-2.816c0,0.704,0.207,1.712,0.617,3.021
		c0.059,0.45,0.029,1.076-0.088,1.878c0.508,0.86,0.82,1.916,0.938,3.168l12.789-9.182
		C204.348,135.098,211.926,128.116,217.42,121.585z M225.811,89.643l-0.061-0.616l-1.467-0.088L225.811,89.643z M226.25,88.938
		l0.264,0.527l1.027-1.114L226.25,88.938z M186.855,65.354c-6.181,0.978-12.357,3.726-18.537,8.243l-5.486-0.117l2.143,2.933
		c-2.465,0.293-5.672,1.183-9.621,2.669c-7.822,2.933-15.487,7.333-22.998,13.2c-1.896,0.41-3.9,1.3-6.013,2.669
		c-4.243,2.64-6.874,6.277-7.891,10.912l-5.309,2.316c0.293,0.861-1.428,4.86-5.163,11.997l0.088,0.294l-0.088-0.088h-0.088v-0.118
		c-3.716-3.402-6.316-6.003-7.803-7.802l-1.114-1.701l-5.837-0.353c-2.582-4.009-6.297-6.521-11.146-7.538l-6.541-0.44
		c-9.034-3.03-17.756-4.575-26.165-4.634l-9.885,0.851l1.027-3.491l-5.133,1.878c-7.333-2.112-14.06-2.572-20.181-1.379l-7.04,2.464
		c12.125-7.939,21.794-12.486,29.01-13.64c3.892-0.665,6.581-0.313,8.066,1.056l-4.106-4.312
		c9.895,5.612,22.566,10.854,38.015,15.722c7.725,2.444,14.441,4.332,20.151,5.661c-0.449-1.427-0.557-2.825-0.322-4.194
		c-0.978-1.446-1.633-3.09-1.966-4.928c0.899,1.115,2.063,1.722,3.491,1.819l0.439-0.44c0.763-0.86,1.564-1.173,2.405-0.938
		c0.743-0.509,1.633-0.509,2.67,0l0.322,0.176l0.352-0.322c0.92-0.939,1.438-2.229,1.555-3.872c0.059,0.919,0.313,2.287,0.763,4.106
		c0.177,0.704,0.147,1.506-0.088,2.405c0.743,1.134,1.174,2.562,1.291,4.282l17.101-12.173
		c12.809-9.895,22.898-19.193,30.271-27.895l-2.404,5.485c0.938-1.76,3.354-3.021,7.244-3.784
		c7.117-1.369,17.707-0.391,31.768,2.933C192.244,64.875,189.828,64.905,186.855,65.354z M251.594,70.752l-1.145,2.581
		c0.41-0.86,1.564-1.466,3.461-1.818c3.422-0.626,8.486-0.157,15.193,1.408c-0.859-0.176-2.004-0.147-3.433,0.088
		c-2.991,0.45-5.942,1.76-8.856,3.93l-2.67-0.088l1.057,1.467c-1.154,0.117-2.67,0.547-4.547,1.291
		c-3.734,1.369-7.402,3.49-11,6.365c-0.918,0.156-1.867,0.547-2.846,1.173c-1.994,1.251-3.256,2.992-3.783,5.221l-2.551,1.114
		c0.114,0.411-0.687,2.337-2.406,5.778v0.06h-0.088c-1.76-1.663-2.992-2.914-3.697-3.755l-0.615-0.792l-2.727-0.146
		c-1.252-1.956-3.051-3.168-5.398-3.638l-3.109-0.146c-4.342-1.428-8.516-2.141-12.524-2.141l-4.724,0.323l0.529-1.702l-2.494,0.939
		c-3.5-0.958-6.707-1.164-9.621-0.616l-3.344,1.231c5.848-3.852,10.453-6.062,13.816-6.628c1.936-0.274,3.217-0.098,3.842,0.528
		l-1.965-2.053c4.752,2.679,10.814,5.162,18.186,7.451c3.734,1.153,6.973,2.043,9.709,2.669c-0.273-0.626-0.332-1.281-0.176-1.966
		c-0.508-0.703-0.813-1.515-0.908-2.434c0.332,0.528,0.869,0.851,1.613,0.968l0.146-0.264c0.41-0.391,0.819-0.528,1.229-0.411
		c0.332-0.235,0.754-0.235,1.263,0l0.176,0.088l0.207-0.176c0.44-0.559,0.666-1.096,0.674-1.613
		c0.004,0.351,0.113,0.918,0.322,1.701c0.137,0.45,0.137,0.851,0,1.202c0.409,0.567,0.616,1.223,0.616,1.966l8.152-5.837
		C243.281,79.376,248.092,74.937,251.594,70.752z"/>
</g>
</svg>
