<?xml version="1.0" encoding="utf-8"?>
<!-- Generator: Adobe Illustrator 16.0.0, SVG Export Plug-In . SVG Version: 6.00 Build 0)  -->
<!DOCTYPE svg PUBLIC "-//W3C//DTD SVG 1.1//EN" "http://www.w3.org/Graphics/SVG/1.1/DTD/svg11.dtd">
<svg version="1.1" id="Layer_1" xmlns="http://www.w3.org/2000/svg" xmlns:xlink="http://www.w3.org/1999/xlink" x="0px" y="0px"
	 width="400px" height="400px" viewBox="0 0 400 400" enable-background="new 0 0 400 400" xml:space="preserve">
<g>
	<path fill-rule="evenodd" clip-rule="evenodd" fill="#020202" d="M334.8,181.75l-16.399-1.6l0.05,0.05l10.5,3.6l-8.75-1.5
		c8.566,11.034,12.116,26.083,10.649,45.15c-1.199-10.067-2.783-17.267-4.75-21.601c0.867,3.667,0.917,8.4,0.15,14.2
		c-0.934-9.433-2.9-18.816-5.9-28.15c1.033,6,0.95,12.367-0.25,19.1c-1.066-9.133-3.116-18.183-6.149-27.15
		c1.1,6,1.066,11.3-0.101,15.9l-2.25-16.55l-1.149,11.4l-0.7-10.6c-7.033,10.333-13,20.783-17.9,31.35
		c-6.5,13.967-11.133,28.15-13.899,42.551c0.933,0.5,1.899,1,2.899,1.5c5.9,2.533,12.301,6.016,19.2,10.449
		c10.5,6.7,22.217,15.566,35.15,26.601H35c16.967-20.767,33.333-26.983,49.1-18.65c17.5,4.733,36.518,4.884,57.051,0.45
		c15.8-3.434,32.5-9.584,50.1-18.45c9.8-6.933,17.934-10.783,24.4-11.55c0.8-9.5,0.967-18.934,0.5-28.3
		c-0.934-15.767-3.768-31.35-8.5-46.75c-1.4-4.567-2.967-9.1-4.7-13.6c-6.367-16.434-14.934-32.633-25.7-48.6l-0.75,11.2l-1.3-12.9
		l-2.5,18.7c-1.367-5.2-1.434-11.167-0.2-17.9c-3.4,10.1-5.7,20.333-6.9,30.7c-1.366-7.667-1.467-14.883-0.3-21.65
		c-3.399,10.567-5.616,21.167-6.649,31.8c-0.9-6.5-0.851-11.833,0.149-16c-2.233,4.933-4.017,13.066-5.35,24.4
		c-1.7-21.567,2.316-38.567,12.05-51l-9.95,1.6l11.95-4.05c0-0.028,0.008-0.045,0.025-0.05l-18.575,1.9
		c4.767-2.6,10.583-4.067,17.45-4.4c-10.634-0.967-21.117-0.817-31.45,0.45c7.133-3.167,14.133-4.95,21-5.35
		c-11.134-0.833-21.967-0.517-32.5,0.95c6.1-2.4,11.283-3.617,15.55-3.65c-5.3-0.967-13.633-0.767-25,0.6
		c19-6.167,35.35-6.733,49.05-1.7c-7.6-4.3-15.417-7.85-23.45-10.65c7.733,0.3,14.768,1.767,21.101,4.4
		c-9.567-5.6-19.417-10.083-29.55-13.45c6.533,0.566,11.717,1.8,15.55,3.7c-4.3-3.267-11.833-6.833-22.601-10.7
		c18.233,2.7,32.334,8.65,42.301,17.85c-1.9-13.367,1.199-28.283,9.3-44.75c-3,10.967-4.333,19.15-4,24.55
		c0.633-4.2,2.533-9.15,5.7-14.85c-2.967,10.2-4.851,20.867-5.65,32c1.5-6.7,4.267-13.317,8.3-19.85
		c-1.5,5.567-2.683,11.233-3.55,17c3.566-13.066,12.367-25.55,26.4-37.45C195.8,51.417,191.3,58.433,189.4,63.5
		c2.267-3.667,6.017-7.467,11.25-11.4c-6.834,8.233-12.817,17.283-17.95,27.15c4-5.633,9.167-10.633,15.5-15
		c-6.467,8.133-12.101,16.967-16.9,26.5c3.934-5.633,8.217-9.817,12.851-12.55l-11,14.45c0.6-0.467,1.232-0.917,1.899-1.35
		l7.65-6.35l-3.101,3.6c11.834-6.433,26.851-8.767,45.051-7c-11.367,1.133-19.518,2.767-24.45,4.9
		c4.167-0.867,9.483-0.833,15.95,0.1c-10.667,0.867-21.334,2.867-32,6c6.833-1,14.017-0.733,21.55,0.8
		c-10.167,0.967-20.25,3-30.25,6.1c0.1,0,0.2,0.033,0.3,0.1c6.467-1,12.167-0.833,17.1,0.5l-11,1.4
		C205.95,106.783,218,118.533,228,136.7c-7.267-8.733-13.217-14.5-17.85-17.3c3.133,2.9,6.116,7.317,8.949,13.25
		c-6.699-8.333-14.383-16-23.05-23c4.601,5.067,8.467,11.117,11.601,18.15c-6.667-7.9-14.217-15.133-22.65-21.7
		c4.8,4.933,8.066,9.933,9.8,15l-12.2-13.75c12.167,17.533,22.101,34.95,29.801,52.25c1.899,4.267,3.666,8.55,5.3,12.85
		c6.066,15.933,10.2,31.767,12.399,47.5c1.268,8.866,1.9,17.7,1.9,26.5c12.267,0.066,24.483,2.5,36.65,7.3
		c4.433-14.967,10.783-30,19.05-45.1c4.433-8.167,9.433-16.333,15-24.5l-8.4,9.5c1.533-4.5,4.434-8.933,8.7-13.3
		c-7.533,5.8-14.233,12.2-20.1,19.2c2.767-6.233,6.199-11.6,10.3-16.1c-5.367,4.367-10.3,8.983-14.8,13.85
		c-1.934,2.133-3.801,4.3-5.601,6.5c1.434-2.966,2.917-5.517,4.45-7.65c1.133-1.566,2.3-2.9,3.5-4c-1.333,0.767-2.767,1.833-4.3,3.2
		c-3.3,2.8-7.15,6.816-11.55,12.05c2.967-5.334,6.1-10.017,9.399-14.05c5.467-6.733,11.483-11.767,18.05-15.1
		c1.434-0.767,2.95-1.45,4.551-2.05l-9.75-1.15c4.399-1.233,9.5-1.417,15.3-0.55c0.033-0.033,0.083-0.05,0.149-0.05
		c-8.833-2.733-17.783-4.517-26.85-5.35c6.7-1.367,13.066-1.617,19.1-0.75c-9.399-2.767-18.833-4.517-28.3-5.25
		c5.733-0.867,10.434-0.917,14.101-0.15c-4.334-1.9-11.518-3.333-21.551-4.3c16.101-1.6,29.4,0.467,39.9,6.2l-2.85-3.25l7.1,5.9
		c0.5,0.333,1,0.7,1.5,1.1l-9.9-12.9c4.101,2.4,7.867,6.083,11.301,11.05c-4.2-8.4-9.167-16.2-14.9-23.4
		c5.6,3.9,10.184,8.316,13.75,13.25c-4.566-8.7-9.883-16.684-15.95-23.95c4.667,3.467,8,6.817,10,10.05
		c-1.667-4.5-5.649-10.7-11.95-18.6c12.4,10.5,20.184,21.517,23.351,33.05c-0.767-5.066-1.8-10.066-3.101-15
		c3.567,5.767,6,11.617,7.301,17.55c-0.733-9.8-2.384-19.233-4.95-28.3c2.8,5.033,4.467,9.434,5,13.2c0.3-4.8-0.867-12.05-3.5-21.75
		c7.2,14.566,9.933,27.767,8.2,39.6c8.833-8.167,21.3-13.45,37.399-15.85c-9.566,3.433-16.25,6.583-20.05,9.45
		c3.4-1.667,8-2.733,13.8-3.2c-8.967,2.933-17.683,6.9-26.149,11.9c5.633-2.367,11.866-3.683,18.699-3.95
		c-7.1,2.5-13.982,5.617-20.649,9.35c12.066-4.433,26.483-3.917,43.25,1.55c-10.067-1.2-17.417-1.367-22.05-0.5
		c3.732,0.033,8.3,1.117,13.699,3.25c-9.333-1.333-18.899-1.633-28.699-0.9c6.033,0.367,12.199,1.95,18.5,4.75
		c-9.101-1.133-18.351-1.267-27.75-0.4C325.467,178.2,330.6,179.483,334.8,181.75z"/>
	<path fill-rule="evenodd" clip-rule="evenodd" fill="#EF3D23" d="M277.25,196.15c-1.533,2.133-3.017,4.684-4.45,7.65
		c1.8-2.2,3.667-4.367,5.601-6.5c3.5,3.567,6.6,7.351,9.3,11.351c-8.267,15.1-14.617,30.133-19.05,45.1
		c-12.167-4.8-24.384-7.233-36.65-7.3c0-8.8-0.633-17.634-1.9-26.5c-2.199-15.733-6.333-31.567-12.399-47.5
		c0.633-0.034,1.267-0.05,1.899-0.05c21.134,0,39.367,6.983,54.7,20.95c-3.3,4.033-6.433,8.716-9.399,14.05
		c4.399-5.234,8.25-9.25,11.55-12.05C276.717,195.617,276.983,195.883,277.25,196.15z M207.65,173.2
		c4.732,15.4,7.566,30.983,8.5,46.75c0.467,9.366,0.3,18.8-0.5,28.3c-6.467,0.767-14.601,4.617-24.4,11.55
		c-17.6,8.866-34.3,15.017-50.1,18.45c-2.268-7.566-3.4-15.566-3.4-24c0-22.633,7.983-41.934,23.95-57.9
		C174.767,183.283,190.083,175.567,207.65,173.2z M280.85,259.4c-1-0.5-1.967-1-2.899-1.5c2.767-14.4,7.399-28.584,13.899-42.551
		c6.367,11.634,9.551,24.601,9.551,38.9c0,5.367-0.45,10.566-1.351,15.6C293.15,265.416,286.75,261.934,280.85,259.4z M161.5,302.35
		c0.233,0,0.35-0.116,0.35-0.35H189l0.65,0.35h53c3.767,0.5,8.967,1.134,15.6,1.9c10.833,1.767,16.25,4.184,16.25,7.25
		c0,2.367-4.35,4.133-13.05,5.3c-6.967,0.934-14.267,1.317-21.9,1.15H210c-3.833-0.4-7.333-0.634-10.5-0.7
		c-6.233-0.066-9.967,0.733-11.2,2.4c2.733,0.6,9.167,1.1,19.3,1.5c8.768,0.366,16.817,0.55,24.15,0.55
		c7.867,0.033,16.8,1.05,26.8,3.05c11.767,2.3,17.65,4.867,17.65,7.7c0,3.267-5.033,5.45-15.101,6.55
		c-1.633,0.166-13.116,0.75-34.449,1.75H227c3.333,0.733,10.8,1.834,22.4,3.3c9.933,1.833,14.899,4.351,14.899,7.55
		c0,1.934-2.75,3.134-8.25,3.601c-8.7,0.399-16.233,1.017-22.6,1.85c0.2,0,0.3,0.101,0.3,0.3c1.7,0,3.033,0.15,4,0.45
		c1,0.2,2.267,0.733,3.8,1.601h-3.7c0-0.301-0.3-0.384-0.899-0.25c-0.934,0.166-1.434,0.25-1.5,0.25h2.399
		c-2.3,0.1-4.616,0.05-6.949-0.15c-4.634-0.4-6.95-1.416-6.95-3.05c0-2.067,4.75-3.017,14.25-2.851c10.399,0.2,16.383-0.5,17.95-2.1
		c-4.834-3.367-16.233-5.834-34.2-7.4c-8.667-0.766-14.233-1.35-16.7-1.75c-4.733-0.766-7.1-1.899-7.1-3.399
		c0-1.7,11.933-2.483,35.8-2.351c23.866,0.134,35.8-0.666,35.8-2.399c0-2.034-5.417-3.634-16.25-4.8
		c-5.733-0.634-17.633-1.434-35.7-2.4c-16.767-0.9-28.649-1.8-35.649-2.7c-10.834-1.433-16.25-3.399-16.25-5.899
		c0-1.066,5.283-1.75,15.85-2.051c3.467-0.066,15.033-0.133,34.7-0.199c33.7-0.066,50.55-1.584,50.55-4.551
		c0-0.934-2.15-1.732-6.45-2.399c-5.967-1.067-15.116-1.567-27.45-1.5c-4.333,0.033-13.133-0.184-26.399-0.65
		c-12.833-0.433-19.867-0.667-21.101-0.7c-8.866-0.199-14.633-0.482-17.3-0.85C164.533,304.816,162.267,303.85,161.5,302.35z"/>
</g>
</svg>
