<?xml version="1.0" encoding="utf-8"?>
<!-- Generator: Adobe Illustrator 16.0.0, SVG Export Plug-In . SVG Version: 6.00 Build 0)  -->
<!DOCTYPE svg PUBLIC "-//W3C//DTD SVG 1.1//EN" "http://www.w3.org/Graphics/SVG/1.1/DTD/svg11.dtd">
<svg version="1.1" id="Layer_1" xmlns="http://www.w3.org/2000/svg" xmlns:xlink="http://www.w3.org/1999/xlink" x="0px" y="0px"
	 width="300px" height="300px" viewBox="0 0 300 300" enable-background="new 0 0 300 300" xml:space="preserve">
<g>
	<path fill-rule="evenodd" clip-rule="evenodd" fill="#441814" d="M267.368,90.431c-0.581-0.257-1.238-0.468-1.97-0.634
		c0.766-0.275,1.414-0.346,1.947-0.211c2.641-0.49,4.612,0.4,5.918,2.67c0.549,0.949,0.92,1.883,1.112,2.803
		c0.015-0.43,0.119-0.942,0.312-1.535c0.223-0.667,0.46-1.068,0.712-1.202c1.306,2.27,1.958,5.177,1.958,8.722
		c0,1.661-0.237,3.626-0.712,5.896c-0.06,0.267-0.119,0.533-0.178,0.801c0.548,0.312,0.964,0.994,1.245,2.046
		c0.268,0.935,0.4,2.047,0.4,3.337c0,1.053-0.111,2.024-0.333,2.915c-0.178,0.727-0.549,1.832-1.113,3.315
		c0.268-0.208,0.527-0.415,0.779-0.623c0.504-0.371,0.838-0.556,1.001-0.556c0.4,0,0.557,0.363,0.468,1.09
		c0,0.92-0.445,2.485-1.335,4.695c-0.771,1.898-1.439,3.314-2.003,4.249c0.326,0.282,0.489,0.809,0.489,1.58
		c0,1.943-0.801,4.213-2.402,6.808c-1.543,2.537-3.338,4.531-5.384,5.985c-2.492,1.78-5.651,3.367-9.479,4.761
		c-2.595,0.949-6.563,2.151-11.902,3.604c1.928,0.03,3.093,0.178,3.492,0.446c0.223,0.147,0.534,0.355,0.936,0.623
		c-0.016,0.059-0.023,0.118-0.023,0.178c0.03,0,0.067,0,0.111,0c-0.059,0.029-0.104,0.059-0.133,0.088
		c-0.03,0.045-0.052,0.082-0.066,0.111c-0.074,0.074-0.186,0.119-0.334,0.134c-2.344,1.454-4.65,3.107-6.92,4.962
		c-1.483,1.26-2.714,2.113-3.693,2.559c-0.519,0.223-1.142,0.438-1.868,0.645c0,0.016,0.008,0.045,0.021,0.09l-0.021,0.111
		c-0.016,0.015-0.022,0.029-0.022,0.044c0,0.03-0.052,0.044-0.155,0.044c-0.045,0-0.082-0.029-0.111-0.088
		c-0.016-0.06-0.03-0.09-0.045-0.09c-1.32,0.342-2.93,0.646-4.828,0.912c-0.059-0.014-0.096-0.044-0.111-0.088h-2.691
		c-0.742,0.014-1.291,0.147-1.646,0.4c-0.281,0.162-0.424,0.37-0.424,0.622c0,0.223,0.506,0.594,1.514,1.112
		c0.979,0.505,1.469,0.794,1.469,0.868c0,0.505-1.454,1.231-4.361,2.181c-2.536,0.815-4.375,1.298-5.518,1.445h-3.359
		c-1.514-0.088-3.07-0.326-4.672-0.711c-1.514-0.371-2.352-0.557-2.515-0.557h-0.578c-0.044,0.207-0.111,0.949-0.2,2.225
		c-0.059,0.92-0.193,1.38-0.4,1.38c-0.4-0.786-0.949-1.558-1.646-2.313c-1.395-1.543-3.086-2.314-5.072-2.314
		c-2.27,0-3.864,1.075-4.784,3.227c-0.533,1.216-1.119,3.033-1.757,5.45c-0.252,0.549-0.505,1.313-0.757,2.292
		c-0.297,1.112-0.519,1.876-0.667,2.291c-0.223,0.697-0.676,1.521-1.357,2.471c-0.904,1.245-1.729,1.868-2.471,1.868l-0.333-0.044
		l-0.044-0.29c0.178-0.771,0.267-1.261,0.267-1.468l-0.089-2.692c0-0.341-0.141-0.809-0.423-1.401
		c-0.341-0.697-0.534-1.143-0.578-1.336c0-1.379-0.008-2.447-0.022-3.203c-0.029-1.379-0.467-2.069-1.313-2.069
		c-0.237,0-0.468,0.06-0.689,0.179c-0.164,0.074-0.268,0.118-0.313,0.133c-0.088,0.074-0.178,0.148-0.267,0.223
		c-0.919,1.023-1.587,2.24-2.003,3.648h-0.066c0.386,0.045,0.905-0.192,1.559-0.712c0.682-0.549,1.111-0.823,1.289-0.823
		c0.356,0,0.572,0.223,0.646,0.668c0.015,0.237,0.007,0.475-0.022,0.711c0,0.461-0.37,1.869-1.111,4.229l0.021,0.021l1.713-2.313
		c0.282,0,0.408,0.03,0.379,0.089c0.044,0.342,0.178,1.58,0.4,3.716c0.207,2.15,0.311,3.611,0.311,4.382
		c0,1.646-0.155,3.16-0.467,4.539c-0.326,1.38-0.489,2.426-0.489,3.137c0,0.92,0.082,1.521,0.245,1.803
		c0.133,0.178,0.815,0.854,2.047,2.025c0.623,0.252,1.297,0.586,2.023,1.001c0.653,0.37,1.625,0.956,2.916,1.757
		c1.438,0.742,2.395,1.469,2.869,2.181c0.356,0.52,0.534,1.209,0.534,2.069c0,0.875-0.638,2.307-1.913,4.294
		c-1.054,1.632-1.892,2.759-2.515,3.382c-0.948,0.963-2.054,2.232-3.314,3.805c-1.943,2.447-2.997,3.752-3.159,3.916
		c-1.336,1.631-2.129,4.205-2.381,7.719c-0.148,2.24-0.578,4.117-1.291,5.629c-1.187,3.354-2.536,5.029-4.049,5.029
		c-1.498,0-2.543-1.135-3.137-3.404c-0.282-2.314-0.423-3.537-0.423-3.672c0-1.631,0.845-4.16,2.536-7.586
		c1.379-2.818,2.588-4.77,3.627-5.852c0.118-0.236,0.512-0.949,1.179-2.135c0.815-1.484,1.224-2.953,1.224-4.406
		c0-2.136-0.549-4.004-1.646-5.606c-0.83-1.216-2.722-3.204-5.674-5.962c-0.518-0.49-1.846-1.217-3.982-2.182
		c-2.477-1.127-3.945-1.831-4.404-2.113c-1.275-0.727-2.307-1.313-3.093-1.758c-1.454-0.83-2.559-1.549-3.315-2.158
		c-5.25-4.212-8.832-8.18-10.746-11.902c-1.602-3.145-2.402-7.023-2.402-11.636c0-2.715,0.282-4.917,0.846-6.608
		c0.607-1.854,1.905-4.234,3.893-7.142v-0.089c-0.326,0.045-0.586,0.074-0.778,0.089c-0.37,0.386-1.075,1.104-2.114,2.158
		c-1.779,2.003-3.114,3.894-4.004,5.673c-0.356,0.713-0.682,2.025-0.979,3.938c-0.282,1.75-0.423,3.167-0.423,4.249
		c0,1.306,0.318,3.427,0.956,6.363c0.624,2.907,1.172,4.783,1.646,5.629c1.617,3.041,3.693,5.74,6.23,8.1
		c2.047,1.898,3.07,3.018,3.07,3.359c0,0.414-0.067,0.667-0.201,0.756c-0.281,0.237-1.03,0.355-2.246,0.355
		c-2.166,0-4.035-0.638-5.607-1.913s-2.899-1.913-3.982-1.913c-0.312,0-0.534,0.111-0.667,0.334
		c0.208,0.207,0.512,0.452,0.912,0.734c0.134,0.088,0.201,0.259,0.201,0.512c0,0.296-0.408,0.652-1.224,1.067
		c-0.875,0.444-1.35,0.986-1.424,1.624c-0.119,0.904-0.178,1.839-0.178,2.803c0,4.702,2.01,8.773,6.029,12.215
		c3.471,3.012,6.935,4.516,10.391,4.516c1.424,0,2.796-0.17,4.115-0.51c1.306-0.342,2.655-0.514,4.05-0.514
		c0.875,0,1.616,0.105,2.225,0.313c0.03-0.016,0.082-0.021,0.156-0.021c1.083,0,1.905,0.621,2.47,1.869
		c0.341,0.77,0.512,1.43,0.512,1.979c0,3.189-2.307,4.783-6.92,4.783c-7.52,0-13.689-0.801-18.511-2.402
		c-5.859-1.928-10.538-5.229-14.039-9.9c-2.848-3.797-4.687-6.385-5.518-7.765c-0.312-0.504-1.661-1.832-4.049-3.982
		c-1.098-0.964-1.928-1.713-2.492-2.247c-0.993-0.312-1.594-0.467-1.802-0.467c-1.439,0-2.492,0.607-3.159,1.824
		c-0.341,0.623-0.564,1.297-0.667,2.023c-0.356,0.832-0.987,1.506-1.891,2.025c-0.727,0.415-1.09,0.986-1.09,1.713
		c0,1.231,1.098,2.863,3.293,4.895c2.18,2.063,3.271,3.189,3.271,3.382c0,0.445-0.312,0.927-0.935,1.446
		c-0.86,0.652-1.995,0.979-3.404,0.979c-1.765,0-3.486-0.711-5.162-2.135c-1.721-1.766-2.952-2.989-3.694-3.672
		c-0.756-0.682-1.387-1.697-1.891-3.047c-0.43-1.217-0.645-2.336-0.645-3.36c0-0.964,0.23-1.979,0.69-3.048
		c0.459-1.083,0.689-2.002,0.689-2.759c0-1.187-0.333-2.047-1.001-2.581c-0.905-0.742-2.818-1.395-5.74-1.958
		c-2.106-0.4-3.812-0.941-5.117-1.624c-1.424-0.742-2.24-1.588-2.447-2.536v-0.179c0.386-0.014,1.053,0.319,2.002,1.002
		c0.297,0.148,0.638,0.304,1.023,0.467c1.735,0.801,2.966,1.336,3.693,1.602c2.432,0.653,5.525,1.239,9.277,1.758
		c3.219,0.431,5.51,0.646,6.875,0.646c0.445,0,0.786-0.008,1.023-0.023c-0.237-0.415-0.408-0.748-0.512-1.001
		c-0.312-0.548-0.816-0.979-1.513-1.29c-0.697-0.326-1.432-0.727-2.203-1.201c-0.831-0.535-1.468-0.928-1.913-1.18
		c-1.765-0.964-3.145-1.735-4.138-2.313c-1.795-1.038-2.848-1.906-3.16-2.604c0,0.148,0.008,0.512,0.022,1.091
		c-0.044,0.459-0.178,0.689-0.4,0.689c-1.305,0-2.929-0.676-4.873-2.025c-1.335-0.934-2.306-1.742-2.915-2.425
		c-0.623-0.712-1.261-1.587-1.913-2.625c-0.697-1.216-1.224-2.122-1.58-2.714c-0.846-1.469-1.81-3.285-2.893-5.451
		c-1.572-3.145-2.47-4.925-2.692-5.34c-0.267,0.49-0.401,1.164-0.401,2.024c0.015,1.067,0,1.751-0.044,2.047
		c-0.029-0.044-0.052-0.089-0.066-0.134c-0.03,0.03-0.089,0.045-0.178,0.045c-0.697,0-1.394-0.682-2.091-2.047
		c-0.563-1.395-0.868-2.15-0.912-2.27c-0.074-0.207-0.223-0.957-0.445-2.247c-0.164-0.935-0.43-1.69-0.801-2.269
		c0,0.578-0.111,1.468-0.334,2.67c0,0.118,0.089,0.586,0.267,1.4c0,0.148-0.059,0.268-0.178,0.356
		c-0.682-0.505-1.201-1.194-1.558-2.069c-0.311-0.994-0.541-1.729-0.689-2.202c-0.237-0.741-1.083-2.158-2.536-4.249
		c0,0.311,0.022,0.971,0.066,1.979c-0.074,0.831-0.43,1.246-1.068,1.246c-0.282,0-0.689-0.853-1.224-2.559
		c-0.653-2.136-1.728-3.923-3.226-5.362c-0.178,0.163-0.526,0.437-1.045,0.823c-0.475,0.386-0.771,0.712-0.89,0.979
		c-0.06,0.133-0.193,0.475-0.4,1.023c-0.237,0.504-0.482,0.756-0.734,0.756l-0.222-0.066c-0.223-1.453-0.4-2.396-0.534-2.826
		c-0.386-1.098-1.031-2.054-1.936-2.87c0,0.104,0.015,0.504,0.044,1.202c-0.089,0.682-0.349,1.023-0.779,1.023
		c-2.64-1.765-4.531-2.929-5.673-3.493c-0.712-0.371-1.231-0.623-1.557-0.756c-0.445-0.193-1.105-0.401-1.98-0.623
		c-1.127-0.297-2.744-0.556-4.85-0.779c-2.699-0.282-4.071-0.423-4.116-0.423h-3.315l-0.134-0.088h-4.116
		c-0.638,0.133-1.031,0.304-1.179,0.511c-0.06,0.06-0.089,0.223-0.089,0.49c0,0.905,0.957,1.639,2.87,2.202
		c1.246,0.356,3.456,0.764,6.63,1.224c5.962,0.875,9.871,1.847,11.725,2.916h0.022c0.06,0.044,0.126,0.096,0.2,0.155
		c0.237,0.147,0.43,0.296,0.579,0.444v0.022c0.282,0.148,0.571,0.386,0.868,0.712c0.03,0.016,0.475,0.608,1.334,1.78
		c0.03,0.044,0.823,1.209,2.381,3.493c0.416,0.593,1.313,1.943,2.692,4.049c1.246,1.84,2.076,2.759,2.492,2.759
		c0.104,0,0.4-0.126,0.89-0.378c0.504-0.252,0.883-0.379,1.135-0.379c0.119,0,0.579,1.232,1.379,3.693
		c0.949,2.878,1.698,4.828,2.247,5.852c1.439,0.06,2.336,0.156,2.692,0.289c0.534,0.223,0.875,0.771,1.024,1.646
		c0.119,0.875,0.348,1.55,0.689,2.025l2.203,0.089c0.341,0.312,0.63,0.696,0.868,1.157c0.119,0.252,0.312,0.719,0.579,1.401
		c0.148,0.415,0.504,0.875,1.068,1.379c0.475,0.267,0.823,0.431,1.046,0.489l0.044,0.423c0.074,0.06,0.155,0.118,0.245,0.179
		c0.015,0.014-0.037,0.021-0.156,0.021c-0.846,0-1.587-0.415-2.225-1.246c-0.371-0.267-0.712-0.504-1.023-0.712
		c-0.296-0.252-0.519-0.431-0.667-0.533c-0.282-0.193-0.519-0.297-0.712-0.312c-1.083-0.074-1.72-0.186-1.913-0.334
		c-0.03-0.193-0.089-0.349-0.178-0.467c-0.46-0.949-0.815-1.632-1.068-2.047c-0.341-0.623-0.949-0.972-1.824-1.046
		c-0.875-0.075-1.424-0.319-1.646-0.734c-0.326-0.623-0.979-2.284-1.958-4.983c-0.771-2.15-1.283-3.227-1.535-3.227
		c-0.208,0.045-0.489,0.097-0.845,0.156h-0.667c-1.112-0.891-2.284-2.145-3.515-3.76c-1.291-1.795-2.255-3.094-2.893-3.895
		c-0.044-0.059-0.512-0.689-1.402-1.891c-0.593-0.815-1.134-1.461-1.624-1.936c-0.282-0.281-0.845-0.979-1.691-2.092
		c-0.608-0.801-0.986-1.305-1.135-1.513l-6.607-0.066c-6.393-0.253-10.769-1.024-13.126-2.314c-1.528-0.831-2.292-2.017-2.292-3.56
		c0-0.348,0.034-0.678,0.1-0.991c0.64-0.618,2.038-1.245,4.194-1.879c2.803-0.831,5.592-1.246,8.366-1.246
		c0.712,0,2.87,0.252,6.474,0.756c4.212,0.593,7.261,1.165,9.144,1.713v-0.267c0-0.964-0.423-1.683-1.268-2.158
		c-1.202-0.682-2.002-1.313-2.403-1.891c1.32,0.074,3.226,0.727,5.718,1.958c2.67,1.335,4.413,2.61,5.229,3.827h0.133
		c0.015-0.4-0.17-0.89-0.556-1.468c-0.504-0.786-0.823-1.365-0.957-1.736h-0.089c0.949-0.237,2.455,0.371,4.516,1.825
		c1.098,0.771,2.462,1.839,4.094,3.204c-0.059-1.231-0.192-1.966-0.4-2.203v-1.824c0.623,0.564,1.357,1.788,2.203,3.671
		c0.223,0.504,0.719,1.735,1.491,3.693c0.089,0,0.17,0.037,0.245,0.111c0.119-0.949,0.356-1.81,0.712-2.581
		c0.43-0.934,0.935-1.468,1.513-1.602c-0.008,0.443-0.067,1.081-0.178,1.913c-0.119,0.875-0.178,1.721-0.178,2.537
		c0,0.935,0.059,1.966,0.178,3.093s0.178,1.728,0.178,1.802l0.111,0.134c0.578-1.217,1.208-2.322,1.891-3.315
		c0.994-1.468,1.809-2.21,2.447-2.225h0.089c0.015,0.178-0.044,1.46-0.178,3.849c-0.089,2.418-0.059,3.842,0.089,4.271
		c0.059-0.281,0.675-1.031,1.847-2.246c1.231-1.232,1.913-1.922,2.047-2.069c0.667,0.415,1.075,0.801,1.224,1.157
		c0.015,0.043,0.141,0.696,0.378,1.957c0.06,0.297,0.393,1.193,1.001,2.692c0.697,1.735,1.143,2.885,1.335,3.448
		c0.964,2.803,3.353,5.54,7.164,8.21c2.017,1.394,4.428,2.841,7.231,4.339h0.134c-0.727-1.677-1.253-2.916-1.58-3.717
		c-0.593-1.424-0.89-2.736-0.89-3.938c0.089-0.727,0.133-1.216,0.133-1.468V167.1c0.326,0.504,1.498,1.943,3.515,4.316
		c2.002,2.357,3.041,3.59,3.115,3.693h0.133c0.208-3.383,0.734-5.348,1.58-5.896c-0.074,5.357,3.448,9.963,10.568,13.816
		c1.78,0.979,4.494,2.225,8.143,3.738c2.752,1.131,4.472,1.965,5.162,2.502c-0.505-0.526-1.551-1.857-3.137-3.992
		c-2.077-2.818-3.204-4.65-3.381-5.496v-0.867c0.445,0.148,1.624,0.556,3.538,1.223c1.839,0.653,3.041,1.061,3.604,1.225
		c-0.667-2.003-0.46-5.191,0.623-9.567c1.29-5.177,3.463-9.931,6.519-14.261c0.52-0.757,2.358-2.329,5.518-4.717
		c3.335-2.535,5.419-3.762,6.251-3.683c0.016-0.024,0.03-0.05,0.045-0.078v0.089c-0.014-0.002-0.029-0.006-0.045-0.011
		c-1.489,2.796-2.549,4.928-3.182,6.396c-1.498,3.545-2.225,6.548-2.18,9.011v0.134c0.06-0.667,1.105-1.943,3.137-3.827
		c1.914-1.766,3.315-2.87,4.205-3.314c0,0.178-0.385,0.859-1.156,2.047c-0.801,1.468-1.275,2.906-1.424,4.316
		c-0.148,1.468-0.349,3.033-0.602,4.693c-0.236,1.572-0.4,2.434-0.489,2.581v0.111c1.706-1.632,3.226-3.07,4.562-4.316
		c2.111-1.977,3.594-3.297,4.449-3.96c-0.852,0.767-1.549,2.272-2.092,4.516c-0.519,2.077-0.778,3.99-0.778,5.74
		c0,1.646,0.007,2.582,0.022,2.804c0.029,0.312,0.141,0.653,0.334,1.023c1.29-1.497,2.387-2.706,3.293-3.626
		c1.607-1.651,2.887-2.611,3.838-2.881c0.041-0.057,0.08-0.111,0.121-0.168v0.134c-0.038,0.009-0.079,0.021-0.121,0.034
		c-0.377,0.531-0.634,0.973-0.769,1.323c-0.208,0.489-0.312,1.061-0.312,1.713c0,1.69,1.328,3.708,3.982,6.052
		c0.242,0.212,0.521,0.449,0.834,0.712c0.193-0.929,0.441-1.915,0.746-2.959c0.846-2.878,1.906-5.414,3.182-7.608
		c1.157-1.988,3.671-4.332,7.542-7.031c3.159-2.195,5.347-3.5,6.563-3.916c0,0.016-0.17,0.363-0.512,1.047
		c-0.355,0.83-0.549,1.638-0.578,2.424c-0.061,2.166-0.141,4.043-0.245,5.629v0.868c0.519-1.054,1.609-2.581,3.271-4.583
		c2.047-2.463,3.537-3.679,4.473-3.648v0.734c-0.016,0.37-0.179,0.904-0.49,1.602v1.602c0.994-1.275,1.729-2.076,2.203-2.402
		c0.785-0.535,1.92-0.801,3.404-0.801c0.622,0,1.639,0.178,3.047,0.533c1.35,0.355,2.114,0.623,2.293,0.801
		c-0.03-0.712-0.943-1.81-2.737-3.293c-1.869-1.408-2.886-2.195-3.048-2.357h3.203c1.38,0.029,3.635,0.467,6.764,1.313
		c2.596,0.697,4.271,1.209,5.028,1.535h0.134c-0.564-0.816-1.15-1.559-1.758-2.226c-1.187-1.305-2.484-2.12-3.894-2.447
		c0-0.089-0.044-0.134-0.134-0.134c0.431-0.311,1.113-0.496,2.047-0.556c0.313-0.03,1.357-0.044,3.137-0.044
		c0.639,0,2.24,0.104,4.807,0.311c2.566,0.193,4.383,0.289,5.45,0.289c2.685,0,5.058-0.289,7.12-0.867
		c0.742-0.207,1.387-0.441,1.936-0.701c-0.35,0.037-0.698,0.057-1.046,0.057c-0.964,0-2.024-0.164-3.182-0.49
		c-1.409-0.445-2.544-0.801-3.403-1.067c1.957,0.252,4.953-0.386,8.988-1.914c4.183-1.587,6.727-3.174,7.631-4.761
		c-1.483,0.296-2.544,0.497-3.182,0.601c-1.068,0.178-2.313,0.267-3.738,0.267c-0.222,0-0.785-0.029-1.69-0.088
		c-1.023-0.06-1.728-0.111-2.114-0.156l-0.133-0.133c2.328-0.074,4.962-0.393,7.898-0.957c3.025-0.579,6.06-1.357,9.1-2.336
		c4.388-1.405,8.188-3.593,11.402-6.563c0.322-0.253,0.674-0.542,1.057-0.868c0.445,0,0.616,0.475,0.512,1.424
		c0,0.905-0.223,1.825-0.668,2.759c-0.252,0.549-0.771,1.513-1.557,2.892v0.512l0.512,0.022c0.475,0,1.135-0.615,1.98-1.847
		c0.874-1.424,1.445-2.321,1.713-2.692c1.29-1.646,2.736-3.093,4.338-4.338c-0.489,0.059-0.912,0.222-1.268,0.489
		c-0.208,0.163-0.468,0.408-0.779,0.734c-0.192-0.075-0.289-0.148-0.289-0.223c0-0.252,0.734-1.558,2.203-3.916
		c1.453-2.388,2.18-4.183,2.18-5.384c0-0.341-0.052-0.586-0.155-0.734c-0.104-0.163-0.378-0.386-0.823-0.667l-0.646,0.044
		c-0.267,0.119-0.519,0.349-0.757,0.69c-0.133,0.193-0.304,0.43-0.511,0.712c-0.074-0.015-0.126-0.029-0.156-0.044
		c-0.029-0.03-0.044-0.089-0.044-0.178c0-0.415,0.259-1.031,0.778-1.847c0.727-1.038,1.305-1.876,1.735-2.514
		c1.661-2.625,2.492-5.243,2.492-7.854c0-0.549-0.037-0.912-0.111-1.09c-0.208-0.445-0.631-0.63-1.269-0.556
		c-0.104,0.06-0.208,0.104-0.312,0.134c-0.192-0.03-0.297-0.052-0.312-0.067c-0.074-0.044-0.111-0.163-0.111-0.356
		c0.43-1.142,0.854-2.425,1.269-3.849c0.846-2.818,1.269-4.909,1.269-6.274c0-1.825-0.363-4.035-1.091-6.63l-0.223,0.712
		c-0.133,1.038-0.385,1.72-0.756,2.047c-0.015,0.015-0.022,0.029-0.022,0.044l-0.355,0.111c-0.179-1.483-0.497-2.773-0.957-3.871
		c-0.831-2.077-2.336-3.115-4.517-3.115C268.217,90.365,267.787,90.387,267.368,90.431z M173.59,198.871
		c0.371,0.178,1.662,0.607,3.871,1.29c2.033,0.696,3.049,1.335,3.049,1.913c0,1.29-2.329,2.93-6.986,4.917
		c-3.352,1.409-6.104,2.388-8.254,2.937h-2.692c-0.179-0.133-0.297-0.23-0.356-0.289c-0.133-0.104-0.199-0.193-0.199-0.268
		c0-0.044,0.645-0.488,1.936-1.334c1.468-1.01,2.596-1.995,3.381-2.959c0.549-0.697,0.868-1.477,0.957-2.336
		c0.016-0.104,0.022-0.912,0.022-2.426c0-0.934-0.015-1.535-0.044-1.802c-0.104-0.593-0.363-1.269-0.779-2.024
		c0.949-0.06,1.906,0.148,2.87,0.623C170.957,197.424,172.033,198.01,173.59,198.871z M153.1,223.5c0-0.697,0.037-1.068,0.111-1.113
		c0.223-0.178,1.119-0.268,2.691-0.268c1.617,0,2.566,0.193,2.848,0.58v0.934c0,0.564-0.125,1.105-0.378,1.625
		c-0.444,0.949-1.208,1.424-2.292,1.424c-1.246,0-2.113-0.527-2.603-1.58C153.226,224.063,153.1,223.529,153.1,223.5z"/>
	<path fill-rule="evenodd" clip-rule="evenodd" fill="#B83B26" d="M264.309,135.952c-3.214,2.97-7.015,5.158-11.402,6.563
		c-3.04,0.979-6.074,1.758-9.1,2.336c-2.937,0.564-5.57,0.882-7.898,0.957l0.133,0.133c0.387,0.045,1.091,0.097,2.114,0.156
		c0.905,0.059,1.469,0.088,1.69,0.088c1.425,0,2.67-0.088,3.738-0.267c0.638-0.104,1.698-0.304,3.182-0.601
		c-0.904,1.587-3.448,3.174-7.631,4.761c-4.035,1.528-7.031,2.166-8.988,1.914c0.859,0.267,1.994,0.622,3.403,1.067
		c1.157,0.326,2.218,0.49,3.182,0.49c0.348,0,0.696-0.02,1.046-0.057c-0.549,0.26-1.193,0.494-1.936,0.701
		c-2.063,0.578-4.436,0.867-7.12,0.867c-1.067,0-2.884-0.096-5.45-0.289c-2.566-0.207-4.168-0.311-4.807-0.311
		c-1.779,0-2.824,0.014-3.137,0.044c-0.934,0.06-1.616,0.245-2.047,0.556c0.09,0,0.134,0.045,0.134,0.134
		c1.409,0.327,2.707,1.143,3.894,2.447c0.607,0.667,1.193,1.409,1.758,2.226h-0.134c-0.757-0.326-2.433-0.838-5.028-1.535
		c-3.129-0.846-5.384-1.283-6.764-1.313h-3.203c0.162,0.162,1.179,0.949,3.048,2.357c1.794,1.483,2.707,2.581,2.737,3.293
		c-0.179-0.178-0.943-0.445-2.293-0.801c-1.408-0.355-2.425-0.533-3.047-0.533c-1.484,0-2.619,0.266-3.404,0.801
		c-0.475,0.326-1.209,1.127-2.203,2.402v-1.602c0.312-0.697,0.475-1.231,0.49-1.602v-0.734c-0.936-0.03-2.426,1.186-4.473,3.648
		c-1.661,2.002-2.752,3.529-3.271,4.583v-0.868c0.104-1.586,0.185-3.463,0.245-5.629c0.029-0.786,0.223-1.594,0.578-2.424
		c0.342-0.684,0.512-1.031,0.512-1.047c-1.217,0.416-3.404,1.721-6.563,3.916c-3.871,2.699-6.385,5.043-7.542,7.031
		c-1.275,2.194-2.336,4.73-3.182,7.608c-0.305,1.044-0.553,2.03-0.746,2.959c-0.313-0.263-0.592-0.5-0.834-0.712
		c-2.654-2.344-3.982-4.361-3.982-6.052c0-0.652,0.104-1.224,0.312-1.713c0.135-0.351,0.392-0.792,0.769-1.323
		c0.042-0.014,0.083-0.025,0.121-0.034v-0.134c-0.041,0.057-0.08,0.111-0.121,0.168c-0.951,0.27-2.23,1.229-3.838,2.881
		c-0.906,0.92-2.003,2.129-3.293,3.626c-0.193-0.37-0.305-0.712-0.334-1.023c-0.016-0.222-0.022-1.157-0.022-2.804
		c0-1.75,0.26-3.663,0.778-5.74c0.543-2.243,1.24-3.749,2.092-4.516c-0.855,0.663-2.338,1.983-4.449,3.96
		c-1.336,1.246-2.855,2.685-4.562,4.316v-0.111c0.089-0.147,0.253-1.009,0.489-2.581c0.253-1.66,0.453-3.226,0.602-4.693
		c0.148-1.41,0.623-2.849,1.424-4.316c0.771-1.188,1.156-1.869,1.156-2.047c-0.89,0.444-2.291,1.549-4.205,3.314
		c-2.031,1.884-3.077,3.16-3.137,3.827v-0.134c-0.045-2.463,0.682-5.466,2.18-9.011c0.633-1.469,1.692-3.601,3.182-6.396
		c0.016,0.005,0.031,0.009,0.045,0.011v-0.089c-0.015,0.028-0.029,0.054-0.045,0.078c-0.832-0.08-2.916,1.148-6.251,3.683
		c-3.16,2.388-4.999,3.96-5.518,4.717c-3.055,4.33-5.229,9.084-6.519,14.261c-1.083,4.376-1.291,7.564-0.623,9.567
		c-0.563-0.164-1.765-0.571-3.604-1.225c-1.914-0.667-3.093-1.074-3.538-1.223v0.867c0.178,0.846,1.305,2.678,3.381,5.496
		c1.586,2.135,2.632,3.466,3.137,3.992c-0.689-0.537-2.41-1.371-5.162-2.502c-3.649-1.514-6.363-2.76-8.143-3.738
		c-7.12-3.854-10.642-8.459-10.568-13.816c-0.846,0.549-1.372,2.514-1.58,5.896h-0.133c-0.075-0.104-1.113-1.336-3.115-3.693
		c-2.017-2.373-3.189-3.813-3.515-4.316v0.134c0,0.252-0.044,0.741-0.133,1.468c0,1.201,0.296,2.514,0.89,3.938
		c0.327,0.801,0.853,2.04,1.58,3.717h-0.134c-2.803-1.498-5.214-2.945-7.231-4.339c-3.812-2.67-6.2-5.407-7.164-8.21
		c-0.192-0.563-0.638-1.713-1.335-3.448c-0.608-1.499-0.941-2.396-1.001-2.692c-0.237-1.261-0.363-1.914-0.378-1.957
		c-0.148-0.356-0.556-0.742-1.224-1.157c-0.134,0.147-0.816,0.837-2.047,2.069c-1.172,1.215-1.788,1.965-1.847,2.246
		c-0.148-0.43-0.178-1.854-0.089-4.271c0.134-2.389,0.193-3.671,0.178-3.849h-0.089c-0.638,0.015-1.454,0.757-2.447,2.225
		c-0.683,0.993-1.313,2.099-1.891,3.315l-0.111-0.134c0-0.074-0.06-0.675-0.178-1.802s-0.178-2.158-0.178-3.093
		c0-0.816,0.059-1.662,0.178-2.537c0.111-0.832,0.17-1.47,0.178-1.913c-0.579,0.133-1.083,0.667-1.513,1.602
		c-0.356,0.771-0.593,1.632-0.712,2.581c-0.074-0.074-0.156-0.111-0.245-0.111c-0.771-1.958-1.268-3.189-1.491-3.693
		c-0.845-1.883-1.58-3.107-2.203-3.671v1.824c0.208,0.237,0.341,0.972,0.4,2.203c-1.631-1.365-2.996-2.433-4.094-3.204
		c-2.062-1.454-3.567-2.062-4.516-1.825h0.089c0.133,0.371,0.453,0.95,0.957,1.736c0.386,0.578,0.571,1.068,0.556,1.468h-0.133
		c-0.816-1.216-2.559-2.492-5.229-3.827c-2.492-1.231-4.397-1.884-5.718-1.958c0.4,0.578,1.201,1.209,2.403,1.891
		c0.845,0.475,1.268,1.194,1.268,2.158v0.267c-1.883-0.549-4.932-1.12-9.144-1.713c-3.604-0.504-5.762-0.756-6.474-0.756
		c-2.774,0-5.563,0.415-8.366,1.246c-2.156,0.635-3.554,1.261-4.194,1.879c0.188-0.845,0.622-1.576,1.302-2.191
		c0.934-0.845,1.402-1.438,1.402-1.78c0-0.148-0.075-0.452-0.223-0.912c-0.178-0.459-0.267-0.801-0.267-1.023
		c0-0.193,0.007-0.333,0.022-0.422c-0.015-0.075-0.022-0.148-0.022-0.223c1.32-0.148,2.84-0.408,4.561-0.779
		c1.305-0.252,2.981-0.459,5.028-0.623c2.403-0.178,3.782-0.422,4.139-0.734c0.089-0.445,0.252-0.868,0.489-1.269
		c1.32-2.046,2.596-3.471,3.827-4.271c1.394-0.934,2.462-1.542,3.204-1.824c1.498-0.579,3.604-1.016,6.318-1.313
		c3.263-0.341,5.295-0.979,6.096-1.914c0.504-0.608,0.823-0.957,0.957-1.046c0.504-0.371,1.342-0.637,2.514-0.801
		c4.806-0.697,8.447-1.691,10.924-2.981c2.225-1.171,3.545-2.618,3.96-4.338c0.593-2.373,1.038-2.47,1.335-0.289
		c0.193,1.438,0.289,3.174,0.289,5.206c0,2.358-0.445,4.665-1.335,6.919c-0.905,2.24-1.357,3.604-1.357,4.093
		c0,0.49,0.082,0.853,0.245,1.09c0.371,0.445,1.098,0.667,2.18,0.667c1.157,0,1.869-0.052,2.136-0.156
		c0.163-0.074,0.393-0.215,0.689-0.423c0.208,0.044,0.319,0.082,0.333,0.111c0.06,0.03,0.089,0.141,0.089,0.334
		c0,0.208-0.378,0.549-1.135,1.023c-0.831,0.504-1.305,0.831-1.424,0.979c0.074,0.044,0.942,0.096,2.603,0.155
		c1.928,0.089,3.241,0.164,3.938,0.223c0.074,0.045,0.2,0.148,0.378,0.312c-0.044,0.06-0.326,0.349-0.845,0.868
		c-0.519,0.504-0.815,0.823-0.89,0.957c0.416,0.104,0.579,0.267,0.49,0.489c0.371,0.193,2.121,0.356,5.25,0.489
		c0.044,0.045,0.126,0.082,0.245,0.111c0.089,0.06,0.134,0.178,0.134,0.356c0,0.118-0.037,0.245-0.111,0.378
		c-0.104,0.237-0.282,0.378-0.534,0.423c1.661,0.593,3.589,0.882,5.784,0.868c1.305-0.03,3.463-0.111,6.475-0.245
		c0.282,0,0.504,0.03,0.667,0.089c0,0.03,0.022,0.045,0.066,0.045c0.015,0,0.022,0.081,0.022,0.245c0,0.341-0.593,0.764-1.78,1.268
		c-1.335,0.519-2.144,0.823-2.425,0.912l-0.133,0.067c1.023-0.178,2.203-0.423,3.537-0.734c1.513-0.296,3.79-0.608,6.831-0.934
		h5.028l1.579,0.133c0.06,0.03,0.149,0.067,0.268,0.111c0.074,0.06,0.111,0.17,0.111,0.333c0,0.312-0.193,0.616-0.579,0.912
		c-0.223,0.178-0.579,0.408-1.068,0.69l-0.089,0.111c4.939-1.305,9.767-3.093,14.484-5.362c5.295-2.566,9.938-4.472,13.928-5.718
		h3.671c1.216-0.252,2.062-0.452,2.536-0.6h5.117c6.274,0.711,11.807,2.795,16.598,6.251c2.995,2.18,4.977,4.309,5.94,6.385
		c1.098-1.112,3.627-2.84,7.586-5.184c4.852-2.877,8.299-4.739,10.346-5.585c5.236-2.18,12.334-3.945,21.293-5.295
		c4.775-0.742,10.671-1.528,17.688-2.358c6.437-2.181,11.042-5.637,13.815-10.368c2.744-4.776,4.294-9.167,4.65-13.171
		c0.341-4.005-0.594-6.222-2.804-6.652c-0.935-0.193-1.587-0.4-1.958-0.623l-0.021,0.022c-0.164,0-0.268-0.015-0.312-0.045
		c-0.016-0.044-0.052-0.089-0.111-0.133c-0.016,0.119-0.022,0.037-0.022-0.245c0-0.831,1.187-2.166,3.56-4.005
		c1.405-1.077,2.611-1.8,3.615-2.169c0.731,0.166,1.389,0.377,1.97,0.634c-2.507,0.244-4.606,1.23-6.297,2.959
		c-0.371,0.4-0.727,0.801-1.067,1.202c0.223-0.06,0.489-0.104,0.801-0.134c1.038-0.089,1.979,0.497,2.825,1.758
		c0.846,1.26,1.335,3.775,1.468,7.542c0.045,1.691-0.17,3.508-0.645,5.451c0,0.059,0,0.119,0,0.178c0,1.765-0.563,4.079-1.691,6.941
		c-1.171,2.907-2.402,5.021-3.692,6.341c-2.463,2.403-4.287,4.257-5.474,5.562c-3.159,3.5-4.739,5.97-4.739,7.409
		c0,0.489,0.342,0.734,1.024,0.734c0.904,0,2.736-0.845,5.495-2.536c0.4-0.267,1.898-1.253,4.494-2.959
		c0.044,0.015,0.096,0.03,0.155,0.044c0.045,0.045,0.066,0.104,0.066,0.178c0,0.089-0.304,0.445-0.912,1.068
		c-0.667,0.756-1.09,1.513-1.268,2.27c-0.06,0.341-0.178,0.882-0.355,1.624c-0.119,0.683-0.179,1.239-0.179,1.669
		c0,0.193,0.111,0.393,0.334,0.601c0.267,0.237,0.549,0.355,0.846,0.355c0.979,0,1.905-0.245,2.781-0.734
		c0.741-0.504,1.186-0.808,1.335-0.912C263.085,136.841,263.63,136.477,264.309,135.952z M63.394,132.37
		c0.786,0.267,1.617,0.222,2.492-0.133c1.112-0.46,1.987-1.372,2.625-2.737v-0.022l-2.914,1.18
		c-0.875,0.355-1.461,0.549-1.758,0.578c-0.326,0-0.734,0.074-1.224,0.223c0.059,0.163,0.119,0.304,0.178,0.423
		C62.941,132.118,63.141,132.28,63.394,132.37z"/>
	<path fill-rule="evenodd" clip-rule="evenodd" fill="#301614" d="M63.394,132.37c-0.252-0.089-0.453-0.252-0.601-0.489
		c-0.06-0.119-0.119-0.26-0.178-0.423c0.489-0.148,0.897-0.223,1.224-0.223c0.297-0.029,0.882-0.223,1.758-0.578l2.914-1.18v0.022
		c-0.638,1.365-1.513,2.277-2.625,2.737C65.01,132.592,64.18,132.637,63.394,132.37z M36.784,139.845
		c-0.504,0.327-1.165,1.039-1.98,2.136c-0.416,0.564-0.793,1.083-1.135,1.558c-0.43,0.059-0.823-0.326-1.179-1.157
		c-0.297-0.875-0.445-1.32-0.445-1.335c-0.178-1.379,0.4-2.114,1.735-2.203C34.967,138.725,35.968,139.059,36.784,139.845z"/>
</g>
</svg>
