<?xml version="1.0" encoding="utf-8"?>
<!-- Generator: Adobe Illustrator 16.0.0, SVG Export Plug-In . SVG Version: 6.00 Build 0)  -->
<!DOCTYPE svg PUBLIC "-//W3C//DTD SVG 1.1//EN" "http://www.w3.org/Graphics/SVG/1.1/DTD/svg11.dtd">
<svg version="1.1" id="Layer_1" xmlns="http://www.w3.org/2000/svg" xmlns:xlink="http://www.w3.org/1999/xlink" x="0px" y="0px"
	 width="400px" height="400px" viewBox="0 0 400 400" enable-background="new 0 0 400 400" xml:space="preserve">
<g>
	<path fill-rule="evenodd" clip-rule="evenodd" fill="#383635" d="M232.6,122.65c-1.766,2.1-3.75,4.25-5.949,6.45
		c-0.234,0.233-0.551,0.417-0.95,0.55c-0.366,0.133-0.733,0.2-1.101,0.2c-0.533,0.033-1.184,0-1.949-0.1
		c-0.834-0.133-1.467-0.217-1.9-0.25c-0.033,0.033-0.117,0.167-0.25,0.4c-0.066,0.1-0.1,0.2-0.1,0.3
		c-0.033,1.667-0.601,2.933-1.7,3.8c-0.833,0.7-2.134,1.233-3.9,1.6c-16.333,3.533-25.45,5.5-27.35,5.9
		c-0.333,0.067-0.75,0.017-1.25-0.15c-0.434-0.2-0.8-0.434-1.1-0.7c-0.6-0.5-1.284-1.167-2.05-2c-0.866-1-1.55-1.75-2.05-2.25
		c-0.767,1.233-1.35,2.15-1.75,2.75c-0.7,1.033-1.3,1.9-1.8,2.6c-0.3,0.367-0.667,0.7-1.1,1c-0.467,0.3-0.9,0.467-1.3,0.5
		c-12.267,0.933-21.8,1.533-28.6,1.8c-0.534,0.034-1.233-0.25-2.1-0.85c-0.967-0.767-1.7-1.317-2.2-1.65
		c-0.1,0.633-0.15,1.133-0.15,1.5v90.65c0,2.466-0.017,6.533-0.05,12.2c-0.067,5.266-0.1,9.35-0.1,12.25
		c0,5.967,0.05,23.85,0.15,53.649c0.033,1.2-0.033,2.083-0.2,2.65c-0.267,0.899-0.8,1.533-1.6,1.899
		c-0.667,0.301-1.384,0.467-2.15,0.5c-0.767,0.101-1.483,0.051-2.15-0.149c-0.933-0.267-1.617-0.817-2.05-1.65
		c-0.4-0.733-0.6-1.634-0.6-2.7c0-2.066,0-8.266,0-18.6V141.7c-1.133,1.966-2.717,3.117-4.75,3.45c-0.733,0.1-1.633,0.117-2.7,0.05
		c-1.2-0.067-2.083-0.117-2.65-0.15c-2.966-0.1-6.683-0.333-11.15-0.7c-4.934-0.434-8.633-0.75-11.1-0.95
		c-0.8-0.066-1.45-0.233-1.95-0.5c-0.534-0.333-0.983-0.85-1.35-1.55c-0.367-0.667-0.85-1.483-1.45-2.45
		c-0.733-1.066-1.3-1.9-1.7-2.5c-0.934,1-1.634,1.75-2.1,2.25c-0.767,0.833-1.45,1.517-2.05,2.05c-0.3,0.267-0.65,0.483-1.05,0.65
		c-0.467,0.167-0.85,0.217-1.15,0.15c-4-0.867-9-1.983-15-3.35l-15-3.4c-0.8-0.167-1.4-0.45-1.8-0.85c-0.466-0.4-0.733-1-0.8-1.8
		c-0.2-2.133-1.267-2.9-3.2-2.3c-1.767,0.534-3.267,0-4.5-1.6c-1-1.233-2.633-3-4.9-5.3c-0.433-0.433-0.65-0.85-0.65-1.25
		c-0.033-0.367,0.1-0.833,0.4-1.4c3.9-7.133,8.934-13.85,15.1-20.15c5.367-5.434,11.833-10.8,19.4-16.1
		c13.567-9.5,29.267-15.983,47.1-19.45c2.566-0.533,5.017-0.9,7.35-1.1c0.6-0.067,1.066-0.217,1.4-0.45
		c0.3-0.267,0.533-0.683,0.7-1.25c0.5-1.833,1.35-4.55,2.55-8.15c0.2-0.567,0.583-1.383,1.15-2.45l0.8-0.1l3.95,11.7
		c2.3,0.5,5.733,1.217,10.3,2.15c4.1,0.867,7.5,1.684,10.2,2.45c27.233,7.833,49.167,23.117,65.8,45.85
		c1.1,1.533,2.55,3.966,4.35,7.3c0.134,0.3,0.184,0.683,0.15,1.15C232.916,122.083,232.8,122.417,232.6,122.65z M257.4,218
		c-0.066,0.434-0.051,0.867,0.05,1.3c0.566,2.233,1.683,6.601,3.35,13.101c0.067,0.232,0.517,1.8,1.351,4.699h0.449l11.5-36
		l-0.55-0.35c-9.866,10.066-15.134,15.467-15.8,16.2C257.517,217.15,257.4,217.5,257.4,218z M288.1,186.2l15.95,4.5
		c23.934,6.733,36.4,10.233,37.4,10.5c0.833,0.233,1.466,0.316,1.899,0.25c0.634-0.101,1.15-0.467,1.551-1.1
		c0-0.033,0.05-0.083,0.149-0.15c2.467-3.934,6-4.85,10.601-2.75c0.333,0.133,0.649,0.367,0.949,0.7
		c0.301,0.3,0.518,0.617,0.65,0.95c0.6,1.4,0.75,2.683,0.45,3.85c-0.3,1.1-1.05,2.233-2.25,3.399c-5,4.834-10.917,10.634-17.75,17.4
		c-7.8,7.767-13.65,13.6-17.55,17.5c-0.5,0.533-0.867,1.133-1.101,1.8c-1.566,4.534-2.716,8.15-3.45,10.851
		c-0.266,0.833-0.232,1.866,0.101,3.1c2.399,9.267,6,23.166,10.8,41.7c0.2,0.733,0.45,1.25,0.75,1.55
		c0.367,0.334,0.916,0.533,1.65,0.6c1.833,0.2,4,0.45,6.5,0.75c1.467,0.2,3.717,0.5,6.75,0.9l-1,8.8l-9.45-1.149
		c-24.7-2.967-38.384-4.601-41.05-4.9c-0.4-0.066-0.816-0.033-1.25,0.1c-0.434,0.101-0.801,0.283-1.101,0.551
		c-4.767,3.732-10.25,6.399-16.45,8c-5.199,1.333-11.25,1.967-18.149,1.899c-0.8,0-1.967-0.066-3.5-0.2
		c-1.534-0.166-2.7-0.25-3.5-0.25c-0.366,0-0.75,0.117-1.15,0.351c-0.399,0.167-0.75,0.399-1.05,0.7
		c-7.4,7.3-18.467,18.283-33.2,32.949l-1.35,1.25c-0.5-0.266-0.884-0.467-1.15-0.6c-0.466-0.233-0.866-0.383-1.2-0.45
		c-1.633-0.466-2.8-1.183-3.5-2.149c-0.766-1-1.05-2.367-0.85-4.101c0.133-1.066,0.283-1.8,0.45-2.2
		c0.233-0.732,0.649-1.333,1.25-1.8c0.533-0.433,1.216-1.017,2.05-1.75c0.467-0.399,1.233-1.083,2.3-2.05l-14.6-5.65
		c-21.267-8.1-32.967-12.566-35.1-13.399c-0.633-0.267-1.15-0.351-1.55-0.25c-0.433,0.066-0.866,0.333-1.3,0.8
		c-0.633,0.666-1.667,1.7-3.1,3.1c-1.333,1.334-2.35,2.384-3.05,3.15c-0.467,0.5-0.917,0.783-1.35,0.85
		c-0.434,0.033-0.917-0.133-1.45-0.5c-0.333-0.232-0.583-0.366-0.75-0.399c-1.767-0.4-2.983-1.184-3.65-2.351
		c-0.633-1.1-0.75-2.516-0.35-4.25c0.333-1.399,0.95-2.533,1.85-3.399c3.6-3.634,12.633-12.634,27.1-27
		c0.167-0.167,0.383-0.417,0.65-0.75c-0.633-1.366-1.716-2.233-3.25-2.601c-1.8-0.166-3.133-0.333-4-0.5
		c-1.267-0.266-2.833-0.516-4.7-0.75c-2.134-0.266-3.75-0.467-4.85-0.6v-7.25c0.533,0.066,2.267,0.217,5.2,0.45
		c2.067,0.167,3.75,0.316,5.05,0.45c1.2,0.1,3.517,0.366,6.95,0.8c2.934,0.333,5.267,0.583,7,0.75c0.467,0.033,1-0.034,1.6-0.2
		c0.567-0.233,1.034-0.517,1.4-0.85c8.967-8.867,31.366-31.101,67.2-66.7c10.666-10.567,21.316-21.167,31.95-31.8
		c0.533-0.5,1-0.816,1.399-0.95c0.5-0.167,1.051-0.117,1.65,0.15c0.6,0.3,1.217,0.45,1.85,0.45c1.467,0.034,2.566,0.434,3.301,1.2
		c0.732,0.733,1.184,1.85,1.35,3.35c0.066,0.767,0.05,1.35-0.05,1.75c-0.134,0.5-0.434,0.933-0.9,1.3
		C290.7,184,289.8,184.767,288.1,186.2z M169,308.85c1.9,0.734,4.767,1.801,8.6,3.2c17.9,6.833,30.6,11.7,38.1,14.601
		c0.566,0.232,1.05,0.283,1.45,0.149c0.366-0.066,0.766-0.316,1.199-0.75c2.167-2.233,5.467-5.517,9.9-9.85
		c0.834-0.8,2.2-2.017,4.1-3.65c-11.899-3.466-20.732-6.183-26.5-8.149c-9.899-3.4-18.133-7.25-24.7-11.551l-14.55,15
		C167.833,308.383,168.633,308.717,169,308.85z M200.9,278.8c3.467,0.434,8.65,1.05,15.55,1.851c6.134,0.732,11.3,1.383,15.5,1.949
		c1,0.134,1.85,0.101,2.55-0.1c0.767-0.166,1.517-0.566,2.25-1.2c4-3.399,7.7-7.634,11.1-12.7c2.467-3.766,5.184-8.699,8.15-14.8
		c0.467-0.933,0.75-1.816,0.85-2.649c0.066-0.867-0.05-1.783-0.35-2.75c-0.334-0.9-0.666-2.051-1-3.45
		c-0.5-2.2-0.783-3.384-0.85-3.55l-4.5-17.25L196.9,278.3L200.9,278.8z M304.65,283.9c-2.367,4.967-4.867,9.333-7.5,13.1l21.1,2.6
		l-7.7-29.6C308.217,275.834,306.25,280.467,304.65,283.9z"/>
</g>
</svg>
