<?xml version="1.0" encoding="utf-8"?>
<!-- Generator: Adobe Illustrator 16.0.0, SVG Export Plug-In . SVG Version: 6.00 Build 0)  -->
<!DOCTYPE svg PUBLIC "-//W3C//DTD SVG 1.1//EN" "http://www.w3.org/Graphics/SVG/1.1/DTD/svg11.dtd">
<svg version="1.1" id="Layer_1" xmlns="http://www.w3.org/2000/svg" xmlns:xlink="http://www.w3.org/1999/xlink" x="0px" y="0px"
	 width="400px" height="400px" viewBox="0 0 400 400" enable-background="new 0 0 400 400" xml:space="preserve">
<g>
	<path fill-rule="evenodd" clip-rule="evenodd" fill="#FAA21E" d="M330.2,181.35c0,33.033-11.684,61.234-35.05,84.6
		C271.816,289.316,243.633,301,210.6,301c-33.033,0-61.233-11.684-84.6-35.05s-35.05-51.567-35.05-84.6
		c0-33.034,11.683-61.233,35.05-84.6c23.367-23.333,51.567-35,84.6-35c33.033,0,61.217,11.667,84.551,35
		C318.517,120.117,330.2,148.316,330.2,181.35z M239.75,339.75l-37.4-2.35L218.9,334.1l-23.8-2.35l31.75-3.95l-30.45-3l14.55-2.3
		l-77.75-3h172.55v0.35l-98.4,4.95l50,1.65l-46.399,5.3l39.45,1.35L214.3,336.4L239.75,339.75z"/>
	<path fill-rule="evenodd" clip-rule="evenodd" fill="#010101" d="M204.75,89.85l-2.35,0.6l2.699-0.3l9.301-1.1l-1.15,11.05
		l-13.75,1.85l12.2,1.3l-0.8,7.1l-9.45,1.4l7.8,0.85l-0.75,4.4c3.566-4,7.084-7.317,10.55-9.95c17.134-13,33.083-9.167,47.851,11.5
		l-6.551-2l-8.649-9.75l3.75,7.85l-7.75-0.7L237.5,102l6.25,13.5l-7.75,1.65l-9.85-9.25l7.3,10.6l-8.95,3.8l-9.6-6.65L220.8,123
		l-8.5,2.15c5,0.934,9.517,2.233,13.55,3.9c14.234,5.833,22.367,16.233,24.4,31.2c0.4-0.3,0.783-0.583,1.15-0.85
		c1.666-1.066,3.434-2.066,5.3-3c6.899-3.433,15.2-5.65,24.899-6.65l-6.55,5.15l-8.8,0.5l5.7,2.65l-4.4,5.9l-9.45-3.25l-2.149-0.75
		l2.25,1.15l7.75,3.9l-6.5,7.85l-8.7-4.2c0,0.267,0,0.567,0,0.9l5.85,4.9l-4.149,5.05l-2.45-1.15c-0.1,0.6-0.184,1.216-0.25,1.85
		l0.25,0.2l-0.35,0.4c-0.134,0.7-0.268,1.4-0.4,2.1c3.967-1,7.666-1.6,11.1-1.8c19.734-1.3,30.033,9.733,30.9,33.1l-4-4.851
		l-1.7-11.85l-1.149,7.9l-5.551-4.5l-1.8-14.3L275,200.1l-6.75-2.6l-2.85-12.15l0.25,11.85l-8.851-1.6l-4-10l0.851,8.65l-6.4-2.25
		c-0.066,0.2-0.117,0.417-0.15,0.65c2.867,2.9,5.316,5.817,7.351,8.75c12.833,18.934,7.466,38.833-16.101,59.699l3.601-18.449
		l14-12.25l-15,8.1l-1.351-11l16.95-9.9l-17.899,6.851l-1.5-10.95l15.75-7.55l-16.4,3.399l-1.1-6.199l9.55-5l-9.7,2.2l0.1-4.75
		c-10.3,12.133-19.333,23.966-27.1,35.5c-0.867,1.301-1.717,2.584-2.55,3.851c2.1,11.6,5,22.283,8.7,32.05
		c2.766,7.233,5.982,13.967,9.649,20.2c12.9,1.233,26.3,3.767,40.2,7.6c15.2,5.4,26.65,12.7,34.35,21.9H118.7
		c4.367-1.833,9.483-3.817,15.35-5.95c10.934-7.967,22.083-14,33.45-18.1c6.1-17.801,15.767-36.484,29-56.051
		c-1.467-11.666-2.2-24.149-2.2-37.45l-8.45,2.05l4.9-16.85l-6.85,17.05l-16.7,9.8c7-16.967,16.233-27.733,27.7-32.3
		c0.434-7.833,1.083-15.917,1.95-24.25l-2.9-1.05c1.066-0.4,2.117-0.75,3.15-1.05c0.6-5.6,1.3-11.3,2.1-17.1l-3.55,4.55l-5.45-10.3
		l3.15,12.55l-6.9,6.85l-5.7-16.65l2.45,19.15l-9.6,8.9l-6.1-20.35l3.45,21.75l-7.45,8l-5.6-18.2l4,19.6l-9.3,18.85
		c-7.067-36.2,5.483-57.75,37.65-64.65l-8.15-1.5l4.6-8.85l-7.55,7.9l-9.65-2.2l5-11.1l-7.7,9.6l-8.5-0.15l5.2-9.85l-9.35,9.65
		l-11.85,2.85c2.633-3.6,5.4-6.6,8.3-9c12.267-10.1,26.9-8.833,43.9,3.8c-0.967-8.333,0.183-16.316,3.45-23.95
		c0.833-1.967,1.816-3.917,2.95-5.85c4.233-7.3,10.45-14.283,18.65-20.95l-2.85,8.55L209,80.2l6.75-1l-0.45,8L204.75,89.85z
		 M246.9,192.45l-0.301-0.65l-0.6-0.2C246.267,191.867,246.566,192.15,246.9,192.45z M127.1,91.55c-3.5-2.066-6.2-1.117-8.1,2.85
		c0.333-4.967,2.633-6.867,6.9-5.7c2.333-3.7,5.517-4.067,9.55-1.1C131.317,86.467,128.533,87.783,127.1,91.55z M127.5,115.7
		c0.467-6.5,3.483-8.983,9.05-7.45c3-4.8,7.1-5.267,12.3-1.4c-5.3-1.467-8.883,0.233-10.75,5.1
		C133.533,109.283,130,110.533,127.5,115.7z M86.7,124.05c-6.733-3.966-11.934-2.133-15.6,5.5c0.6-9.6,5.017-13.267,13.25-11
		c4.533-7.167,10.65-7.85,18.35-2.05C94.8,114.333,89.467,116.85,86.7,124.05z M203.35,151.05c0.5-0.066,1.018-0.133,1.551-0.2
		c5.833-0.6,11.016,0.383,15.55,2.95l-3.05-3.5l9.8-16.25l-12.851,12.9l-4.75-5l5.7-10.2l-7.5,7.85l-2.8-4.45
		C204.334,140.583,203.783,145.883,203.35,151.05z M202.9,156.8c-0.533,6.9-0.884,13.617-1.051,20.15
		c8.066-1.434,17.084-0.2,27.051,3.7l-5.5-5.25l8-4.45l-9.801,2.2l-6.3-6.55l9.45-6L214,164.1l-6.4-4.5l8.95-4.9l-12.05,2.65
		L202.9,156.8z M236.65,176c1.066-2.133,2.283-4.133,3.649-6l4.3-15.6l-8.8,16.35l-3.149-3.8
		C234.117,169.65,235.45,172.667,236.65,176z M228.45,160.7l9.05-18.3l-11.3,15.85C227,158.983,227.75,159.8,228.45,160.7z
		 M201.95,198.5c0.333,9.5,1.083,18.55,2.25,27.15c7.833-10.667,16.667-21.601,26.5-32.8l-5,1.7l1.05-10.65l-3.95,11.2l-8.8,1.75
		l4.05-15.65l-7.8,15.9L201.95,198.5z M201.75,188.05l2.25-7.65l-2.25,5.05C201.717,186.316,201.717,187.184,201.75,188.05z
		 M202.5,267c-1.767-6.267-3.233-12.834-4.4-19.7c-8.467,14.467-14.817,28.417-19.05,41.851c9.867-2.4,19.9-3.384,30.101-2.95
		C206.584,280.166,204.367,273.767,202.5,267z"/>
	<path fill-rule="evenodd" clip-rule="evenodd" fill="#FEDCAA" d="M258.2,161.1l-2.25-1.15l2.149,0.75
		C258.166,160.8,258.2,160.934,258.2,161.1z M205.1,90.15l-2.699,0.3l2.35-0.6C204.85,89.95,204.967,90.05,205.1,90.15z"/>
</g>
</svg>
