<?xml version="1.0" encoding="utf-8"?>
<!-- Generator: Adobe Illustrator 16.0.0, SVG Export Plug-In . SVG Version: 6.00 Build 0)  -->
<!DOCTYPE svg PUBLIC "-//W3C//DTD SVG 1.1//EN" "http://www.w3.org/Graphics/SVG/1.1/DTD/svg11.dtd">
<svg version="1.1" id="Layer_1" xmlns="http://www.w3.org/2000/svg" xmlns:xlink="http://www.w3.org/1999/xlink" x="0px" y="0px"
	 width="400px" height="400px" viewBox="0 0 400 400" enable-background="new 0 0 400 400" xml:space="preserve">
<g>
	<path fill-rule="evenodd" clip-rule="evenodd" fill="#383635" d="M324.7,113.75c0.399,2.933,0.3,5.933-0.3,9
		c-0.768,3.967-2.584,7.483-5.45,10.55c-1.5,1.633-2.55,3.083-3.15,4.35c-0.866,1.8-1.1,3.6-0.7,5.4c0.4,1.667,1.184,3.2,2.351,4.6
		c1.5,1.833,2.25,3.633,2.25,5.4c-0.033,1.9-1,3.7-2.9,5.4c-0.5,0.466-1.233,0.966-2.2,1.5c-1.533,0.8-2.35,1.233-2.449,1.3
		c-0.567,0.367-0.9,0.717-1,1.05c-0.801,2.667-1.384,4.85-1.75,6.55c-0.4,1.667-0.983,4.183-1.75,7.55
		c-0.667,2.934-1.15,5.45-1.45,7.55c-0.2,1.466-0.333,3.533-0.4,6.2c-0.066,2.934-0.167,5.033-0.3,6.3
		c-0.1,1.133-0.383,2.55-0.85,4.25c-0.233,0.933-0.601,2.35-1.101,4.25c-0.1,0.366-0.2,0.899-0.3,1.6
		c-0.133,0.733-0.25,1.267-0.35,1.601c-0.268,1.133-0.634,2.866-1.101,5.199c-0.467,2.033-0.933,3.75-1.399,5.15
		c-1.067,3.233-2.733,7.416-5,12.55c-0.167,0.434-0.518,0.866-1.051,1.3c-0.3,0.301-0.767,0.667-1.399,1.101
		c-2.967,2-4.567,3.083-4.8,3.25c-1.834,1.2-3.483,2.2-4.95,3c-1.134,0.634-2.55,0.95-4.25,0.95c-2.033-0.101-3.567-0.15-4.601-0.15
		c0-1.133,0.417-1.916,1.25-2.35c0.101-0.033,0.851-0.234,2.25-0.601c1.467-0.366,2.783-0.866,3.95-1.5c1.267-0.7,2.45-1.6,3.55-2.7
		c-0.566-0.3-0.982-0.516-1.25-0.649c-0.433-0.233-0.8-0.384-1.1-0.45c-0.434-0.1-1.05-0.2-1.85-0.3
		c-0.9-0.101-1.533-0.184-1.9-0.25c-0.233-0.034-0.533-0.134-0.9-0.3c-0.633-0.301-1.033-0.484-1.199-0.551
		c0.8-0.333,1.217-0.5,1.25-0.5c1.066-0.232,2.649-0.566,4.75-1c1.866-0.399,3.416-0.8,4.649-1.199
		c1.833-0.634,3.351-1.65,4.55-3.051c1.367-1.633,2.033-3.55,2-5.75c-0.066-3.899-0.083-7.066-0.05-9.5
		c0.033-3.5,0.167-6.684,0.4-9.55c0.133-1.8,0.5-4.216,1.1-7.25c0.7-3.566,1.134-5.983,1.3-7.25c0.233-1.767,0.434-3.933,0.601-6.5
		c0.2-2.867,0.35-5.033,0.45-6.5l-0.601-0.2c-2.233,2.4-3.899,4.2-5,5.4c-3.733,4.1-6.149,6.783-7.25,8.05
		c-3.7,4.133-6.467,7.217-8.3,9.25c-0.033,0.067-2.517,2.75-7.45,8.05c-1.767,1.934-3.1,3.4-4,4.4c-1.566,1.666-2.917,3.1-4.05,4.3
		c-2.3,2.4-4.934,4.967-7.9,7.7c-0.133,0.166-2.416,2.283-6.85,6.35c-2.733,2.533-4.983,4.684-6.75,6.45
		c-0.967,0.967-1.617,2.517-1.95,4.65c-0.933,6.2-1.8,12.966-2.6,20.3c-0.867,7.8-1.483,14.15-1.851,19.05
		c-0.232,3.233-0.399,5.733-0.5,7.5c-0.1,2.767-0.1,5.267,0,7.5c0.2,5.267,0.783,10.3,1.75,15.101c0.4,2.1,0.9,3.816,1.5,5.149
		c0.801,1.8,1.884,3.267,3.25,4.4c1.434,1.2,2.65,1.983,3.65,2.35c3.533,1.366,7.6,2.784,12.2,4.25
		c6.433,2.034,12.899,3.3,19.399,3.8c3.4,0.268,7.101,0.634,11.101,1.101c0.267,0,0.583,0.116,0.95,0.35
		c0.199,0.134,0.5,0.317,0.899,0.55c-0.2,0.2-0.5,0.566-0.899,1.101c-0.367,0.399-0.7,0.634-1,0.7c-1.268,0.166-3.067,0.35-5.4,0.55
		c-2.533,0.233-4.333,0.417-5.4,0.55c-8,1.033-17.199,1.65-27.6,1.85c-4.367,0.101-13.583,0.101-27.65,0
		c-4.467,0-9.482-0.116-15.05-0.35c-3.366-0.166-8.383-0.434-15.05-0.8c-2.267-0.101-4.833-0.333-7.7-0.7
		c-1.133-0.133-3.717-0.483-7.75-1.05c-0.267-0.034-0.566-0.25-0.899-0.65c-0.367-0.466-0.65-0.8-0.851-1
		c0.367-0.267,0.65-0.466,0.851-0.6c0.333-0.233,0.633-0.351,0.899-0.351c0.8-0.1,2.101-0.199,3.9-0.3
		c1.667-0.066,2.967-0.167,3.899-0.3c1.5-0.166,3.768-0.434,6.801-0.8c2.6-0.333,4.85-0.717,6.75-1.15
		c2.533-0.6,5.416-1.384,8.649-2.35c1.333-0.4,4.184-1.284,8.55-2.65c2.9-0.933,5.101-1.933,6.601-3
		c0.933-0.667,1.767-1.417,2.5-2.25c0.8-0.933,1.366-1.866,1.7-2.8c0.566-1.533,1.1-3.334,1.6-5.4c0.233-1.1,0.6-2.949,1.1-5.55
		c0.7-3.733,1.084-7.8,1.15-12.2c0.066-3.5-0.083-7.6-0.45-12.3c-0.267-3.833-0.866-10.149-1.8-18.95
		c-0.367-3.3-0.95-7.717-1.75-13.25c-0.2-1.934-0.383-3.366-0.55-4.3c-0.233-1.667-0.55-3.066-0.95-4.2
		c-0.3-0.899-0.816-1.883-1.55-2.949c-0.367-0.566-1.067-1.5-2.101-2.801c-0.732-0.967-1.732-2.149-3-3.55
		c-1.767-2.033-2.8-3.216-3.1-3.55c-2.566-3.133-4.5-5.483-5.8-7.05c-1.434-1.767-2.517-3.083-3.25-3.95
		c-1.267-1.533-2.384-2.834-3.351-3.9c-1.199-1.333-2.783-3.066-4.75-5.199c-2.5-2.667-4.116-4.384-4.85-5.15
		c-0.867-0.967-2.117-2.367-3.75-4.2c-1.7-1.966-2.95-3.383-3.75-4.25c-4.934-5.3-8.633-9.3-11.1-12
		c-3.334-3.733-5.834-6.533-7.5-8.4c-0.733-0.833-1.268-1.45-1.601-1.85c-0.667-0.733-1.267-1.3-1.8-1.7
		c-1-0.8-1.684-1.934-2.05-3.4c-0.267-1.733-0.517-3.05-0.75-3.95l-7.3,1.75c-2.801,0.6-5.051,1-6.75,1.2
		c-2.5,0.3-4.783,0.316-6.851,0.05c-1.7-0.233-3.783-0.617-6.25-1.15c-2.733-0.6-4.8-1.05-6.2-1.35L111.9,156.2
		c-0.801-0.167-1.417-0.284-1.851-0.35c-0.7-0.133-1.316-0.217-1.85-0.25c-3.3-0.133-6.083,0.933-8.351,3.2
		c-1.899,1.9-4.366,2.75-7.399,2.55c-2.2-0.133-3.9-0.15-5.101-0.05c-1.866,0.167-3.5,0.633-4.899,1.4
		c-0.067,0.033-0.217-0.017-0.45-0.15c-0.367-0.2-0.583-0.316-0.65-0.35c3.367-1.633,5.667-2.767,6.9-3.4
		c0.133-0.066,0.267-0.216,0.4-0.45c0.166-0.233,0.3-0.417,0.399-0.55c-0.267-0.167-0.467-0.3-0.6-0.4
		c-0.2-0.133-0.4-0.217-0.601-0.25c-1.366-0.133-2.399-0.233-3.1-0.3c-1.233-0.133-2.283-0.184-3.15-0.15
		c-1.267,0-2.199-0.217-2.8-0.65c-0.667-0.5-1.183-1.383-1.55-2.65c-0.2-0.767-0.35-1.683-0.45-2.75
		c-0.066-1.267-0.116-2.217-0.149-2.85c-0.101-0.833,0.083-1.533,0.55-2.1c0.366-0.5,0.967-0.917,1.8-1.25
		c0.7-0.3,1.367-0.35,2-0.15c0.533,0.167,1.066,0.534,1.6,1.1c0.768,0.8,1.617,1.367,2.551,1.7c0.899,0.333,1.967,0.483,3.199,0.45
		c1.434-0.066,3.533,0,6.301,0.2c2.866,0.167,4.982,0.25,6.35,0.25c2-0.067,4.467-0.217,7.4-0.45c1.633-0.133,4.083-0.35,7.35-0.65
		c3.566-0.267,5.55-0.417,5.95-0.45c0.933-0.034,3.483-0.117,7.649-0.25c3.101-0.133,5.634-0.267,7.601-0.4
		c3.399-0.2,10.283-0.75,20.649-1.65c0.367-0.033,0.801-0.133,1.301-0.3c0.267-0.067,0.683-0.184,1.25-0.35
		c1.3-0.367,2.699-0.3,4.199,0.2c0.867,0.3,2.134,0.867,3.801,1.7c0.933,0.4,2.083,1.017,3.449,1.85c1.834,1.133,2.95,1.8,3.351,2
		c2.433,1.3,5.1,2.683,8,4.15c0.633,0.3,1.217,0.45,1.75,0.45c1.366-0.033,7.417-0.15,18.149-0.35
		c7.334-0.133,13.384-0.233,18.15-0.3c1.033,0,1.783-0.184,2.25-0.55c0.5-0.367,0.883-1.05,1.15-2.05
		c0.199-0.967,0.566-2.05,1.1-3.25c0.667-1.434,1.167-2.5,1.5-3.2c0.434-0.9,0.517-1.667,0.25-2.3c-0.267-0.667-0.95-1.4-2.05-2.2
		c-2.767-2.1-5.384-4.25-7.851-6.45c-1.366-1.2-2.366-2.133-3-2.8c-1.1-1.1-2-2.133-2.699-3.1c-1.4-2-2.75-4.6-4.051-7.8
		c-0.433-1.067-0.866-2.367-1.3-3.9c-0.467-1.767-0.816-3.1-1.05-4c-0.733-2.833-1.467-5.25-2.2-7.25
		c-0.899-2.567-1.933-4.867-3.1-6.9c-0.634-1.133-1.283-2-1.95-2.6c-0.867-0.8-1.883-1.333-3.05-1.6
		c-1.333-0.333-2.417-0.683-3.25-1.05c-1.134-0.567-2.033-1.3-2.7-2.2c-1.1-1.467-1.867-2.7-2.3-3.7c-0.467-1.066-1.101-2.066-1.9-3
		c-0.667-0.8-1.517-1.6-2.55-2.4c-0.533-0.433-1.017-1.15-1.45-2.15c0.733,0.3,2.05,1.133,3.95,2.5c1.6,1.167,3.033,1.867,4.3,2.1
		c-0.433-1.9-0.833-3.3-1.2-4.2c-0.566-1.4-1.35-2.55-2.35-3.45c-0.667-0.633-0.816-1.567-0.45-2.8
		c0.367-1.233,1.083-2.283,2.15-3.15c1.767-1.467,3.2-2.467,4.3-3c0.333-0.167,0.783-0.2,1.35-0.1c0.5,0.067,0.983,0.2,1.45,0.4
		c0.833,0.333,1.351,0.583,1.55,0.75c0.5,0.4,0.65,0.983,0.45,1.75c-0.066,0.267-0.149,0.75-0.25,1.45
		c-0.133,0.667-0.25,1.167-0.35,1.5c-0.233,0.833-0.101,1.683,0.399,2.55c0.334,0.467,0.801,1.167,1.4,2.1
		c0.566,1.2,1.3,2.617,2.2,4.25c0.533,0.934,1.316,2.317,2.35,4.15c0.4,0.733,1,1.85,1.8,3.35c0.733,1.3,1.4,2.383,2,3.25
		c1.101,1.6,2.45,3.45,4.051,5.55c0.899,1.233,2.283,3.066,4.149,5.5c0.9,1.167,2.5,3.233,4.8,6.2c2,2.633,3.584,4.717,4.75,6.25
		c1.268,1.7,3.101,4.283,5.5,7.75c1.334,1.9,2.533,3.483,3.601,4.75c1.399,1.633,2.833,3.017,4.3,4.15
		c0.767,0.6,1.35,1.25,1.75,1.95c0.434,0.767,0.684,1.65,0.75,2.65c0.133,2.2,0.367,4.883,0.7,8.05c0.2,1.8,0.483,4.583,0.85,8.35
		c1.101,0,2.767,0,5,0c1.934,0,3.583-0.033,4.95-0.1c0.233,0,0.517-0.2,0.85-0.6c0.268-0.367,0.483-0.733,0.65-1.1
		c0.367-1.067,1.05-2.033,2.05-2.9c0.333-0.3,1.267-1,2.8-2.1c1.567-1.1,3.934-2.733,7.101-4.9c0.399-0.3,0.667-0.65,0.8-1.05
		c0.133-0.367,0.167-0.85,0.1-1.45c-0.199-1.6-0.732-3.167-1.6-4.7c-0.667-1.1-1.65-2.417-2.95-3.95
		c-0.633-0.7-1.35-1.567-2.149-2.6c-0.9-1.167-1.584-2.05-2.051-2.65c-2.6-3.3-4.55-5.784-5.85-7.45c-1-1.333-1.733-2.4-2.2-3.2
		c-3.5-6.133-6.149-10.716-7.95-13.75c-1.133-1.833-2.649-3.133-4.55-3.9c-1.866-0.8-3.85-0.933-5.95-0.4
		c-1.333,0.333-2.949,0.783-4.85,1.35c-2.2,0.667-3.883,1.167-5.05,1.5c0.267-1.2,0.983-2.233,2.149-3.1
		c0.634-0.5,1.601-1.2,2.9-2.1c-0.633-0.9-1.6-1.5-2.9-1.8c-1.267-0.3-2.482-0.233-3.649,0.2c-1.4,0.467-2.983,0.85-4.75,1.15
		c-0.167,0-0.417-0.083-0.75-0.25c-0.367-0.267-0.65-0.434-0.851-0.5c0.101-0.133,0.268-0.35,0.5-0.65
		c0.167-0.267,0.334-0.45,0.5-0.55c2.367-1.633,5.084-2.667,8.15-3.1c2.367-0.3,5.267-0.283,8.7,0.05
		c1.833,0.2,3.683,0.833,5.55,1.9c1.2,0.7,2.783,1.833,4.75,3.4c0.566,0.467,1.417,1.15,2.55,2.05c1,0.8,1.817,1.5,2.45,2.1
		c1.8,1.767,4.45,4.467,7.95,8.1c0.633,0.667,1.616,1.633,2.95,2.9c1.199,1.167,2.166,2.184,2.899,3.05
		c0.601,0.733,1.333,1.716,2.2,2.95c1.133,1.7,1.816,2.717,2.05,3.05c2,2.733,3.45,4.65,4.351,5.75c2.232,2.6,4.133,4.65,5.699,6.15
		c1.567,1.467,3.917,3.433,7.051,5.9c0.467,0.367,0.967,0.667,1.5,0.9c0.6,0.333,1,0.434,1.199,0.3
		c1.533-1.034,2.65-2.217,3.351-3.55c0.366-0.667,0.7-1.583,1-2.75c0.5-1.8,0.783-2.767,0.85-2.9c0.267-0.833,0.233-1.583-0.1-2.25
		c-0.267-0.5-0.783-1.05-1.55-1.65c-1.4-1.1-2.467-1.934-3.2-2.5c-1.233-1-2.267-1.85-3.101-2.55c-0.732-0.633-1.083-1.45-1.05-2.45
		c0.067-0.934,0.483-1.8,1.25-2.6c0.667-0.7,1.684-1.7,3.05-3c1.101-1.2,1.9-2.367,2.4-3.5c0.533-1.167,0.767-2.117,0.7-2.85
		c-0.033-0.733,0.116-1.283,0.45-1.65c0.3-0.3,0.816-0.567,1.55-0.8c1-0.3,2.383-0.917,4.149-1.85c0.334-0.167,0.7-0.6,1.101-1.3
		c0.667-1.167,1.316-2.066,1.95-2.7c0.866-0.8,1.85-1.283,2.949-1.45c1-0.133,2.483-0.367,4.45-0.7c1.733-0.2,3.267-0.15,4.601,0.15
		c3.1,0.667,5.883,2.2,8.35,4.6c2.267,2.2,4.117,4.566,5.55,7.1C323.483,108.55,324.367,111.117,324.7,113.75z M295.05,171.5
		c0.467-0.567,1.217-1.417,2.25-2.55c0.733-1.067,0.833-2.233,0.3-3.5c-5.933,5.933-11.083,12.483-15.449,19.65
		c1.933-1.833,4.166-4.083,6.699-6.75c0.7-0.767,1.75-1.9,3.15-3.4C293.233,173.65,294.25,172.5,295.05,171.5z M252.55,168.45
		c-0.267-2.133-0.467-3.733-0.6-4.8c-0.434-3.1-0.75-5.417-0.95-6.95h-9.45v32.85l0.75,0.35l4.4-3.95
		c4.1-3.667,6.149-7.9,6.149-12.7C252.85,171.917,252.75,170.317,252.55,168.45z M261.65,207.2c-0.101,0.033-0.4,0.167-0.9,0.399
		c-0.233,0.134-0.4,0.25-0.5,0.351c-1.9,1.767-3.316,3.116-4.25,4.05c-1.667,1.533-3.066,2.883-4.2,4.05
		c-4.1,4.134-8.667,6.9-13.7,8.3c-8.066,2.268-15.416,1.234-22.05-3.1c-1.366-0.867-2.85-2.267-4.45-4.2
		c-0.633-0.733-1.449-1.833-2.449-3.3c-1.101-1.566-1.917-2.684-2.45-3.35c-0.3-0.4-0.767-0.867-1.4-1.4
		c-1.167-1-1.767-1.517-1.8-1.55l0.25,1c0.033,0.267,0.1,0.45,0.2,0.55c0.7,1,1.75,2.483,3.149,4.45
		c1.268,1.733,2.384,3.167,3.351,4.3c1.633,1.967,3.583,3.916,5.85,5.85c1.9,1.601,3.95,3.033,6.15,4.301
		c2.033,1.166,3.8,1.934,5.3,2.3c2,0.5,3.9,0.45,5.7-0.15c0.8-0.267,1.816-0.733,3.05-1.399c1.533-0.801,2.533-1.316,3-1.551
		c3.2-1.399,6.267-3.283,9.2-5.649c2.5-2.067,5.033-4.601,7.6-7.601c0.7-0.833,1.567-1.883,2.601-3.149
		C259.467,209.967,260.383,208.8,261.65,207.2z M204.65,167.55c1.399,1.1,3.116,2.567,5.149,4.4c2.967,2.633,4.65,4.117,5.05,4.45
		c0.434,0.367,1.084,0.767,1.95,1.2l5.351-21.05l-32.301,0.6l-0.1,0.45l6,3.95c1,0.667,2.5,1.633,4.5,2.9
		C202.05,165.65,203.517,166.683,204.65,167.55z M162.15,163.8c0.5,0.767,1.166,1.617,2,2.55c0.1,0.1,0.85,0.883,2.25,2.35
		c3.399,3.566,6.566,6.833,9.5,9.8c0.699,0.7,1.616,1.567,2.75,2.6c0.666,0.6,1.699,1.533,3.1,2.8l-17.95-25.1
		c-1.467,0.667-2.316,1.35-2.55,2.05C160.983,161.55,161.283,162.533,162.15,163.8z"/>
	<path fill-rule="evenodd" clip-rule="evenodd" fill="#F26768" d="M162.15,163.8c-0.867-1.267-1.167-2.25-0.9-2.95
		c0.233-0.7,1.083-1.383,2.55-2.05l17.95,25.1c-1.4-1.267-2.434-2.2-3.1-2.8c-1.134-1.033-2.051-1.9-2.75-2.6
		c-2.934-2.967-6.101-6.233-9.5-9.8c-1.4-1.467-2.15-2.25-2.25-2.35C163.316,165.417,162.65,164.567,162.15,163.8z M204.65,167.55
		c-1.134-0.867-2.601-1.9-4.4-3.1c-2-1.267-3.5-2.233-4.5-2.9l-6-3.95l0.1-0.45l32.301-0.6L216.8,177.6
		c-0.866-0.434-1.517-0.833-1.95-1.2c-0.399-0.333-2.083-1.816-5.05-4.45C207.767,170.117,206.05,168.65,204.65,167.55z
		 M261.65,207.2c-1.268,1.6-2.184,2.767-2.75,3.5c-1.033,1.267-1.9,2.316-2.601,3.149c-2.566,3-5.1,5.533-7.6,7.601
		c-2.934,2.366-6,4.25-9.2,5.649c-0.467,0.234-1.467,0.75-3,1.551c-1.233,0.666-2.25,1.133-3.05,1.399c-1.8,0.601-3.7,0.65-5.7,0.15
		c-1.5-0.366-3.267-1.134-5.3-2.3c-2.2-1.268-4.25-2.7-6.15-4.301c-2.267-1.934-4.217-3.883-5.85-5.85
		c-0.967-1.133-2.083-2.566-3.351-4.3c-1.399-1.967-2.449-3.45-3.149-4.45c-0.101-0.1-0.167-0.283-0.2-0.55l-0.25-1
		c0.033,0.033,0.633,0.55,1.8,1.55c0.634,0.533,1.101,1,1.4,1.4c0.533,0.666,1.35,1.783,2.45,3.35c1,1.467,1.816,2.566,2.449,3.3
		c1.601,1.934,3.084,3.333,4.45,4.2c6.634,4.334,13.983,5.367,22.05,3.1c5.033-1.399,9.601-4.166,13.7-8.3
		c1.134-1.167,2.533-2.517,4.2-4.05c0.934-0.934,2.35-2.283,4.25-4.05c0.1-0.101,0.267-0.217,0.5-0.351
		C261.25,207.367,261.55,207.233,261.65,207.2z M252.55,168.45c0.2,1.867,0.3,3.466,0.3,4.8c0,4.8-2.05,9.033-6.149,12.7l-4.4,3.95
		l-0.75-0.35V156.7H251c0.2,1.533,0.517,3.85,0.95,6.95C252.083,164.717,252.283,166.317,252.55,168.45z M295.05,171.5
		c-0.8,1-1.816,2.15-3.05,3.45c-1.4,1.5-2.45,2.633-3.15,3.4c-2.533,2.667-4.767,4.917-6.699,6.75
		c4.366-7.167,9.517-13.717,15.449-19.65c0.533,1.267,0.434,2.433-0.3,3.5C296.267,170.083,295.517,170.933,295.05,171.5z"/>
</g>
</svg>
