<?xml version="1.0" encoding="utf-8"?>
<!-- Generator: Adobe Illustrator 16.0.0, SVG Export Plug-In . SVG Version: 6.00 Build 0)  -->
<!DOCTYPE svg PUBLIC "-//W3C//DTD SVG 1.1//EN" "http://www.w3.org/Graphics/SVG/1.1/DTD/svg11.dtd">
<svg version="1.1" id="Layer_1" xmlns="http://www.w3.org/2000/svg" xmlns:xlink="http://www.w3.org/1999/xlink" x="0px" y="0px"
	 width="300px" height="300px" viewBox="0 0 300 300" enable-background="new 0 0 300 300" xml:space="preserve">
<g>
	<path fill="#383635" d="M168.246,178.51c5.66,2.109,9.744,5.422,12.251,9.934c4.627-4.355,11.751-5.959,21.37-4.811
		c9.984,1.348,16.982,5.008,20.992,10.982c0.772,1.097,1.326,2.334,1.66,3.713c0.156,0.209,0.309,0.428,0.455,0.658
		c1.649,2.35,2.192,5.436,1.629,9.259c2.58,0.532,4.543,1.426,5.892,2.679c2.966,2.622,5.034,5.729,6.204,9.322
		c1.9,3.039,2.914,6.559,3.039,10.559c0.303,6.508-1.604,11.74-5.719,15.699c-3.009,2.977-7.625,4.835-13.851,5.576
		c1.463,5.422,0.638,9.636-2.476,12.645c-3.959,4.262-8.873,7.117-14.741,8.568c-6.173,1.504-11.791,1.003-16.856-1.504
		c-1.797,6.174-8.439,10.539-19.93,13.098c-6.413,1.201-12.157,1.248-17.232,0.141c-4.513-1.002-8.111-2.86-10.795-5.575
		c-1.431-0.847-2.705-1.839-3.822-2.978c-3.625,3.707-9.86,5.028-18.707,3.963c-8.366-1.524-14.554-4.219-18.564-8.084
		c-2.068-1.325-3.802-2.846-5.201-4.559c-0.961-1.129-1.593-2.695-1.896-4.701c-5.661,0.523-11.295-1.617-16.904-6.422
		c-0.084-0.063-0.167-0.131-0.25-0.205c-1.181-0.771-2.355-1.654-3.525-2.646c-5.212-4.263-7.917-9.056-8.116-14.384
		c-0.146-2.705,1.086-5.838,3.697-9.399c-4.919-3.718-7.107-7.958-6.564-12.721c0.606-6.068,3.514-11.177,8.726-15.322
		c4.71-3.666,9.959-5.599,15.746-5.797c0.439-6.12,4.748-10.961,12.925-14.522c5.264-2.507,10.982-3.404,17.155-2.693
		c5.17,0.591,9.904,2.168,14.202,4.729c-0.093-1.972-0.105-3.972-0.04-6c0.501-15.374,6.277-33.626,17.327-54.756
		c3.573,1.609,5.542,6.513,5.907,14.711c-2.674,3.969-5.432,9.024-8.272,15.166c-2.841,6.142-4.956,12.89-6.345,20.241
		c-0.523,2.109-0.909,4.188-1.16,6.234c-0.01,0.084-0.021,0.168-0.031,0.25c3.702-1.797,8.596-2.973,14.68-3.523
		C157.457,175.826,163.17,176.65,168.246,178.51z M180.121,191.529c-0.449-0.094-0.747-0.324-0.893-0.689
		c-2.215-4.699-6.127-8.105-11.734-10.215c-4.617-1.713-10.033-2.491-16.247-2.334c-6.495,0.563-11.512,1.859-15.055,3.885
		c-0.892,14.699,5.338,27.817,18.691,39.355c-3.189-2.072-5.992-4.299-8.406-6.682c0.037-0.041,0.055-0.074,0.055-0.104
		c0-0.333-0.437-0.727-1.308-1.176c-0.392-0.422-0.773-0.848-1.144-1.276c0.058-0.002,0.119-0.005,0.181-0.008
		c-0.125-0.021-0.1-0.109,0.078-0.267c0.24-0.209,0.407-0.443,0.501-0.705c-0.606-0.752-1.191-1.153-1.754-1.207
		c-0.146,0.146-0.274,0.312-0.384,0.494c-0.272-0.35-0.536-0.703-0.791-1.058c0.042,0.063,0.083,0.125,0.125,0.188
		c0.16,0.393,0.327,0.785,0.501,1.174c-0.088,0.185-0.161,0.383-0.219,0.596c0.094,0.178,0.271,0.365,0.532,0.564
		c0.075,0.053,0.169,0.097,0.282,0.133c0.12,0.248,0.243,0.496,0.369,0.744c-0.423,0.125-0.698,0.225-0.823,0.298
		c-0.052,0.052-0.089,0.136-0.109,0.251c-0.982-0.742-1.473-0.34-1.473,1.206c0,0.063,0.088,0.225,0.266,0.485
		c-0.01,0.01-0.015,0.025-0.015,0.047c0.052,0.146,0.182,0.303,0.391,0.471c0.073,0.104,0.156,0.219,0.25,0.344
		c0.7,0.898,1.332,1.452,1.895,1.661c0.398-0.052,0.648-0.089,0.752-0.108c0.083,0.135,0.241,0.291,0.471,0.469
		c0.282,0.22,0.537,0.341,0.767,0.36c0.22-0.019,0.444-0.129,0.673-0.329c0.321,0.471,0.653,0.941,0.995,1.41
		c-0.102-0.018-0.199-0.033-0.29-0.047c-0.417-0.072-0.736-0.094-0.956-0.063c-0.417,0.406-0.664,0.865-0.736,1.377
		c0.063,0.179,0.23,0.367,0.502,0.563c0.282,0.199,0.538,0.313,0.768,0.347c0.24-0.031,0.49-0.156,0.751-0.377
		c0.25-0.22,0.423-0.438,0.518-0.658l-0.086-0.517c0.759,1.011,1.566,2.011,2.42,3c-0.501,0.021-0.935,0.101-1.3,0.242
		c-0.648,0.251-1.216,0.711-1.708,1.379c0.042,0.104,0.11,0.293,0.204,0.563c0.167,0.229,0.506,0.345,1.019,0.345
		c0.135,0,0.344-0.083,0.626-0.25c0.438-0.24,0.971-0.638,1.598-1.19l-0.109-0.713c3.398,3.854,7.539,7.547,12.424,11.084
		c-3.383-1.779-6.678-3.556-9.887-5.326c0.114-0.129,0.209-0.265,0.283-0.406l-0.234-1.035c-0.324-0.135-0.602-0.192-0.832-0.172
		c-0.295,0.035-0.621,0.25-0.979,0.643c-0.939-0.523-1.873-1.045-2.796-1.566l-3.204-3.385c0.203-0.056,0.409-0.176,0.618-0.359
		c0.241-0.209,0.408-0.438,0.501-0.688c-0.553-0.752-1.138-1.159-1.755-1.223c-0.255,0.264-0.462,0.579-0.618,0.948l-1.668-1.764
		c0.17-0.07,0.337-0.176,0.501-0.313c0.261-0.209,0.434-0.434,0.517-0.674c-0.324-0.418-0.606-0.711-0.846-0.877
		c-0.272-0.188-0.591-0.299-0.956-0.33c-0.24,0.246-0.423,0.509-0.549,0.783l-0.109-0.108c-0.527-0.733-1.036-1.474-1.528-2.218
		c0.158,0.086,0.306,0.136,0.447,0.148c0.251-0.021,0.501-0.146,0.752-0.376c0.24-0.208,0.407-0.438,0.502-0.688
		c-0.606-0.764-1.186-1.17-1.74-1.223c-0.324,0.324-0.543,0.676-0.658,1.057c-0.298-0.467-0.588-0.938-0.87-1.408
		c0.028-0.028,0.052-0.053,0.07-0.07c0.125-0.104,0.303-0.34,0.532-0.706l-0.282-1.11c0.251,0.125,0.449,0.188,0.596,0.188
		c0.71,0,0.966-0.01,0.768-0.031c0.094,0,0.193-0.025,0.297-0.078c0.251-0.146,0.376-0.47,0.376-0.972
		c0-0.229-0.213-0.585-0.642-1.063c-0.46-0.481-0.945-0.879-1.457-1.191c-0.595-0.354-1.081-0.477-1.457-0.359
		c-0.366,0.114-0.574,0.465-0.626,1.049c-0.107,0.174-0.199,0.362-0.275,0.563c-0.245-0.479-0.482-0.959-0.713-1.44
		c0.147-0.071,0.294-0.166,0.438-0.281c0.261-0.219,0.434-0.449,0.517-0.689l-0.187-1.081c-0.282-0.155-0.549-0.225-0.799-0.204
		c-0.253,0.023-0.52,0.176-0.799,0.455c-0.068-0.154-0.136-0.309-0.204-0.463c0.021,0.003,0.042,0.006,0.063,0.008
		c0.25-0.052,0.495-0.188,0.736-0.406c0.261-0.209,0.439-0.434,0.532-0.674l-0.14-0.799c0.229-0.271,0.433-0.57,0.611-0.894
		c-0.659-0.418-1.045-0.632-1.16-0.642c-0.377-0.013-0.831,0.385-1.363,1.188c0.052,0.094,0.135,0.204,0.25,0.329
		c-0.07,0.072-0.141,0.154-0.211,0.242c-0.652-1.629-1.234-3.284-1.747-4.967c0.015,0.004,0.031,0.006,0.046,0.008
		c0.261-0.051,0.512-0.188,0.752-0.405c0.24-0.199,0.407-0.424,0.501-0.674c-0.554-0.742-1.133-1.146-1.739-1.207
		c-0.058,0.057-0.113,0.114-0.164,0.172c-0.387-1.448-0.724-2.916-1.012-4.401c0.236,0.17,0.439,0.264,0.612,0.281
		c0.24-0.052,0.491-0.184,0.752-0.393c0.25-0.219,0.417-0.442,0.501-0.674c-0.282-0.386-0.559-0.672-0.831-0.86
		c-0.303-0.209-0.626-0.329-0.971-0.359c-0.136,0.136-0.252,0.272-0.353,0.414c-0.222-1.336-0.404-2.688-0.548-4.057l0.007,0.007
		c0.272,0.199,0.528,0.329,0.768,0.393c0.241-0.063,0.492-0.209,0.752-0.438c0.261-0.24,0.434-0.479,0.517-0.72l-0.235-1.021
		c-0.22-0.041-0.45-0.078-0.689-0.108c-0.492-0.063-0.945-0.068-1.364-0.017c0,0.129-0.018,0.291-0.055,0.485
		c-4.353-2.856-9.17-4.569-14.453-5.139c-5.713-0.596-11.05,0.229-16.011,2.476c-7.781,3.415-11.671,7.952-11.671,13.614
		c0,0.354-0.094,0.61-0.282,0.769c-0.251,0.25-0.533,0.375-0.846,0.375c-5.661-0.052-10.773,1.724-15.337,5.327
		c-4.764,3.771-7.401,8.359-7.913,13.771c-0.501,4.219,1.682,7.983,6.549,11.295c0.209,0.146,0.361,0.396,0.454,0.752
		c0.053,0.24-0.025,0.537-0.234,0.894c-2.747,3.415-4.053,6.351-3.917,8.805c0.262,4.712,2.7,8.972,7.316,12.783
		c6.569,5.62,13.16,7.427,19.771,5.422c0.354-0.155,0.71-0.104,1.065,0.156c0.303,0.25,0.454,0.573,0.454,0.971
		c-0.146,3.804,0.376,6.388,1.567,7.757c3.718,4.448,10.116,7.504,19.191,9.164c9.077,1.055,15.271-0.471,18.582-4.574
		c0.241-0.355,0.564-0.48,0.971-0.377c0.355,0,0.658,0.194,0.909,0.58c2.496,4.627,6.81,7.614,12.941,8.963
		c4.805,1.105,10.392,1.086,16.763-0.063c11.094-2.517,17.463-6.632,19.114-12.345c0.052-0.346,0.251-0.596,0.595-0.752
		c0.355-0.146,0.686-0.146,0.987,0c4.825,2.35,10.167,2.824,16.026,1.425c5.567-1.347,10.309-4.078,14.227-8.193
		c2.799-2.706,3.551-6.563,2.256-11.577c-0.105-0.408-0.063-0.711,0.125-0.91c0.156-0.25,0.407-0.428,0.752-0.531
		c5.922-0.657,10.314-2.387,13.176-5.186c3.906-3.761,5.739-8.727,5.5-14.899c-0.305-5.964-2.539-10.8-6.705-14.507
		c-1.6-1.504-4.435-2.387-8.508-2.647c-0.346,0-0.643-0.172-0.893-0.519c-0.146-0.354-0.193-0.684-0.143-0.985
		c1.744-5.463,1.619-9.649-0.375-12.565c-3.572-5.356-10.068-8.688-19.49-9.994c-9.672-1.201-16.496,0.554-20.478,5.265
		C180.842,191.402,180.518,191.529,180.121,191.529z M133.027,189.038c-0.324-0.24-0.668-0.371-1.034-0.392
		c-0.397,0.406-0.632,0.871-0.705,1.394c0.063,0.157,0.225,0.34,0.485,0.549c0.23,0.179,0.439,0.292,0.626,0.345
		c-0.188,0.293-0.303,0.574-0.344,0.846c0.115,0.179,0.293,0.361,0.533,0.55c0.281,0.209,0.533,0.328,0.751,0.358
		c0.229-0.03,0.476-0.16,0.736-0.391c0.251-0.22,0.422-0.455,0.517-0.705c-0.448-0.533-0.888-0.889-1.315-1.064
		c0.229-0.198,0.407-0.424,0.532-0.674C133.528,189.486,133.268,189.215,133.027,189.038z M131.523,194.129
		c0.063,0.168,0.229,0.352,0.501,0.549c0.282,0.209,0.538,0.329,0.768,0.36c0.24-0.031,0.486-0.156,0.736-0.376
		c0.25-0.219,0.423-0.454,0.517-0.705c-0.324-0.418-0.622-0.721-0.893-0.908c-0.271-0.168-0.574-0.267-0.909-0.298
		C131.836,193.158,131.596,193.617,131.523,194.129z M134.531,197.027c0.063,0.178,0.229,0.371,0.501,0.58
		c0.261,0.197,0.517,0.328,0.768,0.392c0.24-0.063,0.491-0.204,0.751-0.423c0.251-0.219,0.424-0.443,0.518-0.674l-0.188-1.082
		c-0.24-0.041-0.486-0.072-0.736-0.094c-0.491-0.063-0.945-0.072-1.363-0.031c0,0.168-0.036,0.393-0.109,0.674
		C134.588,196.725,134.541,196.943,134.531,197.027z M136.458,198.297c-0.418,0.418-0.658,0.883-0.721,1.395
		c0.021,0.031,0.042,0.068,0.063,0.109c-0.24-0.01-0.543-0.057-0.909-0.141c-0.387-0.084-0.647-0.121-0.783-0.11
		c-0.438,0.042-0.658,0.606-0.658,1.692c0,0.512,0.01,0.789,0.031,0.83c0.01,0.021,0.021-0.01,0.032-0.094
		c0.146,0.146,0.344,0.293,0.595,0.438c0.24,0.157,0.423,0.251,0.548,0.282c0.783-0.658,1.212-1.029,1.285-1.112
		c0.136-0.156,0.229-0.447,0.282-0.878l-0.219-0.674c0.062,0.063,0.146,0.137,0.251,0.221c0.271,0.197,0.522,0.308,0.751,0.328
		c0.24-0.021,0.491-0.151,0.752-0.392c0.25-0.221,0.422-0.448,0.516-0.688l-0.188-1.035c-0.229-0.041-0.454-0.077-0.673-0.108
		C136.996,198.297,136.677,198.275,136.458,198.297z M140.327,205.941c-0.469,0.053-0.997,0.518-1.582,1.395
		c0.094,0.178,0.277,0.371,0.548,0.58c0.272,0.199,0.517,0.329,0.736,0.393c0.376-0.408,0.726-0.758,1.05-1.051
		c0.136-0.125,0.203-0.219,0.203-0.281c0-0.502-0.031-0.793-0.093-0.877l-0.094,0.031
		C140.834,205.984,140.578,205.922,140.327,205.941z M140.139,203.482c0-0.407-0.219-0.82-0.658-1.237
		c-0.449-0.438-0.971-0.731-1.566-0.878c-0.156,0.168-0.34,0.309-0.548,0.424c-0.115,0.135-0.172,0.454-0.172,0.955
		c0,0.262,0.203,0.602,0.611,1.02c0.281,0.281,0.574,0.526,0.876,0.735c0.752-0.031,1.149-0.058,1.191-0.079
		C140.051,204.339,140.139,204.025,140.139,203.482z M145.435,219.086c-0.261-0.156-0.517-0.229-0.768-0.219
		c-0.48,0.031-0.987,0.49-1.52,1.379c0.063,0.178,0.23,0.376,0.501,0.596c0.272,0.219,0.512,0.34,0.721,0.359
		c0.198-0.209,0.548-0.549,1.05-1.018c0.135-0.138,0.203-0.235,0.203-0.299c0-0.512-0.032-0.8-0.094-0.861L145.435,219.086z
		 M137.727,205.989c-0.47,0.042-0.971,0.532-1.504,1.473c0.053,0.157,0.214,0.329,0.486,0.517c0.271,0.188,0.512,0.299,0.721,0.33
		c0.208-0.199,0.579-0.539,1.111-1.019c0.095-0.095,0.141-0.179,0.141-0.251c0-0.502-0.025-0.794-0.077-0.877l-0.095,0.031
		C138.238,206.036,137.978,205.969,137.727,205.989z"/>
	<path fill="#BE2026" d="M150.213,17.299c-0.042-0.042-0.083-0.083-0.125-0.125c-0.522,0.439-1.029,0.882-1.519,1.332l-2.163,2.099
		c-0.24,0.24-0.474,0.485-0.704,0.736h0.015c-7.312,7.896-12.074,17.829-14.288,29.799c0.063,0.021,0.12,0.046,0.172,0.078
		c6.319,2.83,12.654,4.408,19.004,4.731l0.83,82.329c-0.031,0-0.063,0-0.094,0c-0.199,0-0.387-0.063-0.564-0.188
		c-0.375-0.251-0.741-0.721-1.096-1.41l-0.533-10.575c-1.378-0.188-2.731-0.438-4.058-0.752c-0.908-0.219-1.807-0.465-2.694-0.736
		c-1.107-1.828-1.321-3.159-0.642-3.995c-0.387-0.073-0.773-0.141-1.16-0.204c-0.439-0.083-0.877-0.162-1.316-0.235
		c-0.282-0.794-0.564-1.587-0.846-2.381c-0.825-2.329-1.608-4.627-2.35-6.894c-4.94,5.244-6.272,13.416-3.995,24.519
		c-0.763,1.765-2.099,1.984-4.011,0.658c-11.708-30.07-10.951-45.601,2.272-46.593c-0.042-0.156-0.073-0.308-0.094-0.454
		c-0.867-4.303-1.53-8.434-1.99-12.392c0-0.084-0.005-0.162-0.016-0.235c-0.533-4.689-0.773-9.165-0.721-13.426
		c0.042-2.987,0.219-5.88,0.533-8.68c0.094-0.793,0.199-1.577,0.313-2.35c0.105-0.71,0.22-1.416,0.345-2.115
		c1.42-8,4.12-15.082,8.1-21.244c2.663-4.125,5.9-7.838,9.713-11.139c1.17-1.003,2.386-1.969,3.651-2.898L150.213,17.299z
		 M148.819,119.336l-1.269-25.521c-4.826-0.606-9.761-1.864-14.805-3.776c1.566,8.721,3.932,18.075,7.097,28.06
		C142.902,118.684,145.894,119.096,148.819,119.336z"/>
	<path fill="#851618" d="M173.416,57.531c0.396,2.611,0.663,5.285,0.799,8.021c0.156,3.186,0.146,6.46-0.031,9.823
		c-0.053,1.002-0.119,2.021-0.203,3.055c-0.313,3.833-0.836,7.776-1.566,11.829c10.34,6.455,10.736,23.16,1.189,50.118
		c-0.229,0.094-0.449,0.162-0.658,0.204c-1.211,0.261-2.172-0.355-2.883-1.849c2.352-10.643,2.138-17.62-0.642-20.931
		c-0.981-1.191-2.298-1.911-3.948-2.162c-0.375,1.055-0.762,2.12-1.158,3.196c-0.346,0.909-0.694,1.823-1.051,2.742l-3.242,0.109
		c0.855,1.253,0.722,2.637-0.408,4.151c-1.588,0.439-3.133,0.653-4.637,0.643c-0.449,0-0.967-0.026-1.551-0.078l-0.221,10.105
		c-0.584,1.107-1.158,1.697-1.723,1.771c-0.021,0-0.037,0-0.047,0l-0.832-82.329c0.054,0,0.11,0,0.172,0
		c0.449,0.021,0.898,0.037,1.348,0.047c3.906,0.073,7.829-0.329,11.768-1.207c1.682-0.376,3.366-0.835,5.061-1.378
		c-1.881-9.421-5.229-17.86-10.043-25.318c-1.566-2.413-3.289-4.726-5.17-6.94c-0.439-0.512-0.883-1.018-1.332-1.52
		c-0.532-0.595-1.075-1.18-1.629-1.754c-0.188-0.199-0.375-0.392-0.564-0.58l-0.03-2.741c0.198,0.177,0.396,0.355,0.594,0.533
		c0.555,0.522,1.107,1.044,1.66,1.566c3.656,3.562,6.857,7.353,9.604,11.375c4.974,7.28,8.435,15.322,10.388,24.126
		c0.168,0.762,0.323,1.53,0.471,2.303C173.087,55.474,173.26,56.497,173.416,57.531z M153.111,92.39
		c0.313,0.501,0.627,1.102,0.939,1.802c0.012,0.032,0.021,0.063,0.031,0.094l-0.518,25.349c0.011-0.021,0.031-0.042,0.063-0.063
		c2.759,0.031,5.457-0.099,8.101-0.392c0.531-0.063,1.063-0.131,1.598-0.204c2.758-9.557,4.748-18.602,5.969-27.134
		c-1.295,0.417-2.605,0.783-3.932,1.096c-3.688,0.867-7.442,1.295-11.266,1.285C153.773,93.502,153.445,92.891,153.111,92.39z"/>
	<path fill="#FFFFFF" d="M180.121,191.529c0.396,0,0.721-0.127,0.971-0.377c3.98-4.711,10.807-6.465,20.477-5.264
		c9.423,1.305,15.918,4.637,19.49,9.994c1.994,2.915,2.121,7.104,0.377,12.565c-0.053,0.303-0.006,0.631,0.142,0.985
		c0.25,0.346,0.547,0.519,0.894,0.519c4.072,0.261,6.907,1.144,8.506,2.647c4.168,3.707,6.401,8.543,6.705,14.506
		c0.24,6.174-1.593,11.141-5.498,14.9c-2.861,2.799-7.254,4.527-13.177,5.186c-0.345,0.104-0.596,0.281-0.752,0.531
		c-0.188,0.199-0.229,0.502-0.125,0.91c1.295,5.014,0.543,8.871-2.256,11.577c-3.918,4.115-8.658,6.847-14.228,8.192
		c-5.858,1.399-11.201,0.926-16.025-1.424c-0.303-0.146-0.632-0.146-0.987,0c-0.344,0.155-0.543,0.405-0.595,0.752
		c-1.65,5.713-8.021,9.828-19.114,12.345c-6.37,1.149-11.958,1.17-16.763,0.063c-6.131-1.349-10.445-4.337-12.941-8.963
		c-0.25-0.386-0.554-0.58-0.909-0.58c-0.407-0.104-0.73,0.021-0.971,0.377c-3.311,4.104-9.505,5.629-18.582,4.573
		c-9.075-1.659-15.473-4.715-19.191-9.164c-1.191-1.368-1.713-3.952-1.567-7.756c0-0.396-0.151-0.722-0.454-0.972
		c-0.355-0.262-0.711-0.313-1.065-0.155c-5.026,1.522-10.039,0.847-15.04-2.037c-1.579-0.907-3.155-2.036-4.731-3.385
		c-4.616-3.812-7.055-8.072-7.316-12.783c-0.136-2.455,1.17-5.39,3.917-8.806c0.209-0.354,0.287-0.651,0.234-0.893
		c-0.093-0.354-0.245-0.605-0.454-0.752c-4.867-3.312-7.05-7.076-6.549-11.296c0.512-5.411,3.149-10.001,7.913-13.771
		c2.201-1.738,4.53-3.053,6.987-3.94c2.636-0.951,5.42-1.414,8.35-1.387c0.313,0,0.595-0.125,0.846-0.375
		c0.188-0.157,0.282-0.413,0.282-0.769c0-5.662,3.891-10.199,11.671-13.615c4.961-2.246,10.298-3.069,16.011-2.475
		c5.283,0.568,10.1,2.281,14.453,5.139c0.037-0.194,0.055-0.356,0.055-0.485c0.418-0.054,0.872-0.047,1.364,0.016
		c0.24,0.031,0.469,0.068,0.689,0.109l0.235,1.021c-0.083,0.238-0.256,0.479-0.517,0.719c-0.261,0.229-0.512,0.377-0.752,0.438
		c-0.24-0.063-0.496-0.192-0.768-0.392l-0.007-0.008c0.144,1.367,0.326,2.722,0.548,4.058c0.101-0.142,0.217-0.279,0.353-0.414
		c0.344,0.03,0.668,0.149,0.971,0.358c0.272,0.188,0.548,0.477,0.831,0.861c-0.084,0.23-0.25,0.455-0.501,0.674
		c-0.261,0.209-0.512,0.34-0.752,0.393c-0.173-0.018-0.376-0.112-0.612-0.281c0.288,1.485,0.625,2.953,1.012,4.4
		c0.051-0.057,0.106-0.114,0.164-0.172c0.605,0.063,1.185,0.466,1.739,1.207c-0.094,0.25-0.261,0.476-0.501,0.675
		c-0.24,0.219-0.491,0.354-0.752,0.405c-0.015-0.002-0.031-0.004-0.046-0.008c0.512,1.682,1.095,3.338,1.747,4.967
		c0.07-0.088,0.141-0.17,0.211-0.242c-0.115-0.125-0.198-0.235-0.25-0.329c0.532-0.804,0.986-1.201,1.363-1.189
		c0.115,0.011,0.5,0.224,1.16,0.642c-0.179,0.324-0.382,0.621-0.611,0.895l0.14,0.799c-0.093,0.24-0.271,0.465-0.532,0.674
		c-0.241,0.219-0.485,0.354-0.736,0.406c-0.021-0.002-0.042-0.005-0.063-0.008c0.067,0.154,0.136,0.309,0.204,0.463
		c0.28-0.279,0.546-0.432,0.799-0.455c0.25-0.021,0.517,0.049,0.799,0.204l0.187,1.081c-0.083,0.24-0.256,0.471-0.517,0.689
		c-0.145,0.115-0.291,0.209-0.438,0.281c0.231,0.481,0.468,0.963,0.713,1.44c0.076-0.201,0.167-0.39,0.275-0.563
		c0.052-0.584,0.26-0.935,0.626-1.05c0.376-0.114,0.862,0.007,1.457,0.36c0.512,0.313,0.997,0.71,1.457,1.191
		c0.429,0.479,0.642,0.834,0.642,1.063c0,0.502-0.125,0.825-0.376,0.972c-0.104,0.053-0.203,0.078-0.297,0.078
		c0.199,0.021-0.057,0.031-0.768,0.031c-0.146,0-0.345-0.063-0.596-0.188l0.282,1.11c-0.229,0.366-0.407,0.603-0.532,0.706
		c-0.019,0.02-0.042,0.042-0.07,0.07c0.282,0.472,0.572,0.941,0.87,1.408c0.114-0.381,0.333-0.731,0.658-1.057
		c0.554,0.053,1.133,0.459,1.74,1.223c-0.095,0.25-0.262,0.48-0.502,0.688c-0.25,0.229-0.501,0.354-0.752,0.376
		c-0.141-0.014-0.29-0.063-0.447-0.148c0.492,0.744,1.001,1.483,1.528,2.217l0.109,0.109c0.126-0.275,0.309-0.537,0.549-0.783
		c0.365,0.031,0.684,0.142,0.956,0.33c0.24,0.166,0.522,0.459,0.846,0.877c-0.083,0.239-0.256,0.465-0.517,0.674
		c-0.164,0.138-0.332,0.242-0.501,0.313l1.668,1.764c0.156-0.369,0.363-0.686,0.618-0.949c0.617,0.063,1.202,0.472,1.755,1.224
		c-0.093,0.25-0.261,0.479-0.501,0.688c-0.209,0.185-0.416,0.305-0.618,0.359l3.204,3.385c0.924,0.521,1.855,1.043,2.796,1.566
		c0.356-0.393,0.685-0.607,0.979-0.643c0.229-0.021,0.508,0.037,0.83,0.172l0.235,1.035c-0.073,0.143-0.169,0.276-0.282,0.405
		c3.209,1.771,6.504,3.548,9.887,5.327c-4.887-3.537-9.025-7.23-12.424-11.084l0.108,0.713c-0.626,0.555-1.16,0.95-1.598,1.189
		c-0.282,0.168-0.491,0.25-0.626,0.25c-0.513,0-0.852-0.113-1.019-0.344c-0.094-0.271-0.162-0.459-0.204-0.563
		c0.492-0.668,1.06-1.128,1.708-1.379c0.366-0.144,0.799-0.224,1.3-0.242c-0.854-0.99-1.661-1.99-2.42-3l0.086,0.517
		c-0.094,0.221-0.267,0.438-0.518,0.658c-0.261,0.221-0.512,0.346-0.751,0.376c-0.23-0.03-0.486-0.146-0.768-0.346
		c-0.271-0.197-0.439-0.386-0.502-0.563c0.073-0.512,0.319-0.971,0.736-1.377c0.219-0.031,0.539-0.012,0.956,0.063
		c0.091,0.014,0.188,0.029,0.29,0.047c-0.342-0.469-0.674-0.939-0.995-1.41c-0.229,0.2-0.454,0.311-0.673,0.329
		c-0.23-0.021-0.485-0.142-0.767-0.36c-0.23-0.178-0.387-0.334-0.471-0.47c-0.104,0.021-0.354,0.058-0.752,0.109
		c-0.563-0.209-1.195-0.763-1.895-1.661c-0.094-0.125-0.178-0.24-0.25-0.344c-0.209-0.168-0.339-0.324-0.391-0.471
		c0-0.021,0.005-0.037,0.015-0.048c-0.178-0.261-0.266-0.423-0.266-0.485c0-1.545,0.491-1.947,1.473-1.205
		c0.021-0.115,0.057-0.199,0.109-0.252c0.125-0.072,0.399-0.172,0.823-0.297c-0.126-0.248-0.249-0.496-0.369-0.744
		c-0.113-0.036-0.208-0.08-0.282-0.133c-0.261-0.199-0.438-0.388-0.532-0.564c0.058-0.213,0.131-0.411,0.219-0.596
		c-0.174-0.39-0.342-0.781-0.501-1.174c-0.042-0.063-0.083-0.127-0.125-0.188c0.255,0.354,0.519,0.708,0.791,1.058
		c0.11-0.184,0.238-0.348,0.384-0.494c0.563,0.053,1.148,0.455,1.754,1.207c-0.094,0.262-0.262,0.496-0.501,0.705
		c-0.178,0.156-0.203,0.245-0.078,0.266c-0.062,0.004-0.123,0.007-0.181,0.009c0.371,0.43,0.752,0.854,1.144,1.276
		c0.872,0.449,1.308,0.843,1.308,1.176c0,0.027-0.018,0.062-0.055,0.103c2.414,2.384,5.215,4.609,8.406,6.683
		c-13.353-11.539-19.583-24.656-18.691-39.355c3.543-2.025,8.561-3.32,15.055-3.885c6.214-0.157,11.63,0.621,16.247,2.334
		c5.608,2.109,9.521,5.515,11.733,10.215C179.374,191.205,179.672,191.436,180.121,191.529z M137.727,205.989
		c0.251-0.021,0.512,0.047,0.784,0.204l0.095-0.031c0.052,0.083,0.077,0.375,0.077,0.877c0,0.072-0.046,0.156-0.141,0.251
		c-0.532,0.479-0.903,0.819-1.111,1.019c-0.209-0.031-0.45-0.142-0.721-0.33c-0.272-0.188-0.434-0.358-0.486-0.517
		C136.756,206.521,137.257,206.031,137.727,205.989z M145.435,219.086l0.094-0.063c0.062,0.063,0.094,0.351,0.094,0.861
		c0,0.063-0.068,0.161-0.203,0.299c-0.502,0.469-0.852,0.809-1.05,1.018c-0.209-0.021-0.449-0.141-0.721-0.359
		c-0.271-0.22-0.439-0.418-0.501-0.596c0.533-0.889,1.04-1.348,1.52-1.379C144.918,218.857,145.174,218.93,145.435,219.086z
		 M140.139,203.482c0,0.543-0.088,0.855-0.266,0.938c-0.042,0.021-0.438,0.048-1.191,0.079c-0.303-0.209-0.595-0.454-0.876-0.736
		c-0.408-0.418-0.611-0.757-0.611-1.019c0-0.501,0.058-0.82,0.172-0.955c0.208-0.115,0.392-0.256,0.548-0.424
		c0.595,0.146,1.117,0.438,1.566,0.878C139.92,202.662,140.139,203.075,140.139,203.482z M140.327,205.941
		c0.251-0.021,0.507,0.043,0.769,0.188l0.094-0.03c0.063,0.082,0.093,0.375,0.093,0.877c0,0.063-0.067,0.155-0.203,0.28
		c-0.324,0.293-0.673,0.644-1.05,1.052c-0.219-0.063-0.464-0.193-0.736-0.394c-0.271-0.209-0.454-0.401-0.548-0.58
		C139.33,206.459,139.858,205.994,140.327,205.941z M136.458,198.297c0.219-0.021,0.538,0,0.956,0.063
		c0.219,0.031,0.444,0.068,0.673,0.109l0.188,1.035c-0.094,0.24-0.266,0.469-0.516,0.688c-0.262,0.24-0.513,0.371-0.752,0.393
		c-0.229-0.021-0.48-0.131-0.751-0.328c-0.105-0.084-0.189-0.156-0.251-0.221l0.219,0.674c-0.052,0.43-0.146,0.721-0.282,0.878
		c-0.073,0.083-0.501,0.454-1.285,1.112c-0.125-0.031-0.308-0.125-0.548-0.282c-0.25-0.146-0.449-0.292-0.595-0.438
		c-0.01,0.084-0.021,0.115-0.032,0.095c-0.021-0.041-0.031-0.318-0.031-0.83c0-1.086,0.219-1.65,0.658-1.692
		c0.136-0.011,0.396,0.026,0.783,0.11c0.366,0.084,0.668,0.131,0.909,0.141c-0.021-0.041-0.042-0.077-0.063-0.108
		C135.8,199.18,136.04,198.715,136.458,198.297z M134.531,197.027c0.01-0.084,0.058-0.303,0.141-0.658
		c0.073-0.281,0.109-0.506,0.109-0.674c0.418-0.041,0.873-0.03,1.363,0.031c0.25,0.021,0.496,0.053,0.736,0.094l0.188,1.082
		c-0.094,0.229-0.267,0.455-0.518,0.674c-0.261,0.219-0.511,0.359-0.751,0.423c-0.25-0.063-0.507-0.192-0.768-0.392
		C134.76,197.398,134.593,197.205,134.531,197.027z M131.523,194.129c0.073-0.512,0.313-0.971,0.721-1.378
		c0.334,0.031,0.637,0.13,0.909,0.298c0.271,0.188,0.569,0.49,0.893,0.908c-0.094,0.251-0.267,0.486-0.517,0.705
		c-0.25,0.22-0.497,0.345-0.736,0.376c-0.229-0.031-0.485-0.151-0.768-0.36C131.752,194.479,131.585,194.297,131.523,194.129z
		 M133.027,189.038c0.241,0.177,0.501,0.448,0.783,0.813c-0.125,0.252-0.303,0.477-0.532,0.674c0.427,0.178,0.867,0.533,1.315,1.065
		c-0.094,0.25-0.266,0.485-0.517,0.705c-0.261,0.229-0.507,0.358-0.736,0.392c-0.219-0.031-0.47-0.15-0.751-0.359
		c-0.24-0.188-0.418-0.371-0.533-0.549c0.042-0.271,0.157-0.555,0.344-0.846c-0.188-0.054-0.396-0.168-0.626-0.346
		c-0.261-0.209-0.422-0.393-0.485-0.549c0.073-0.521,0.308-0.986,0.705-1.395C132.358,188.667,132.703,188.798,133.027,189.038z"/>
</g>
</svg>
