<?xml version="1.0" encoding="utf-8"?>
<!-- Generator: Adobe Illustrator 16.0.0, SVG Export Plug-In . SVG Version: 6.00 Build 0)  -->
<!DOCTYPE svg PUBLIC "-//W3C//DTD SVG 1.1//EN" "http://www.w3.org/Graphics/SVG/1.1/DTD/svg11.dtd">
<svg version="1.1" id="Layer_1" xmlns="http://www.w3.org/2000/svg" xmlns:xlink="http://www.w3.org/1999/xlink" x="0px" y="0px"
	 width="300px" height="300px" viewBox="0 0 300 300" enable-background="new 0 0 300 300" xml:space="preserve">
<g>
	<path fill="#369044" d="M98.274,32.037v-0.709h3.782v-0.591l11.187,0.275v0.315h1.812l1.182,0.315v0.394l1.812,0.276l0.197,0.315
		h0.591l2.403,0.315l0.119,0.276h0.591c0.394,0,0.761,0.105,1.103,0.315l0.079,0.276l1.221,0.315l0.079,0.394h0.63l1.063,0.315
		l0.236,0.276h1.182l1.104,0.197l0.078,0.433l0.237,0.473l1.576,0.394l0.118,0.315h1.3l1.576-1.3l0.197-0.512v-0.591h1.299
		l1.694-1.378l0.118-0.512v-0.591h1.3l1.103-0.827l0.079-0.473v-1.891h2.521c0.446-0.42,1.077-0.722,1.891-0.906v-0.906h1.182v-1.3
		h1.93v-0.591h2.56c0.342-0.394,0.919-0.696,1.732-0.906l0.079-0.315v-0.669h1.892v-0.63h1.222v-0.591h3.19v-0.591h3.11v-0.708
		h2.994v-0.591h2.481V19.55l2.48,0.276l0.118,0.315h0.591l3.702,0.315v0.276h2.481l1.222,0.315l0.077,0.394
		c2.549,0.394,3.48,2.456,2.798,6.185h1.497l0.236-0.394c1.051-0.657,0.972-1.759-0.236-3.309c3.021-1.129,5.027-0.197,6.025,2.797
		l0.67-0.591c0.814-0.919,1.918-0.814,3.31,0.315l1.104,0.276l0.196,0.315c3.203,1.996,5.868,4.53,7.996,7.602l0.117,0.473
		l0.396,0.118l0.196,0.512c3.177,2.862,5.604,6.42,7.287,10.675l0.196,0.591l0.513,0.591l0.078,0.63v0.591l0.512,0.197l0.197,0.512
		c0.655-0.079,0.894,0.315,0.709,1.182l-0.118,0.591v1.3c0.657,0.079,0.854,0.709,0.591,1.891v1.103c0.685,0,0.921,0.433,0.71,1.3
		l-0.078,0.709v1.812l0.473,0.669l0.197,0.63c0.682,0.525,0.918,1.549,0.709,3.072l-0.08,0.63c0.656,1.129,0.748,2.784,0.275,4.963
		h-0.275V70.6l0.08,0.709c0.209,1.05-0.027,1.641-0.709,1.773v1.3l-0.197,0.591l-0.473,0.63l-0.119,0.591l-0.513,0.709v0.67
		l-0.591,1.103v1.3l-0.079,0.591l-0.512,0.63l0.079,0.67c0.156,0.867-0.104,1.273-0.788,1.221l-0.197,0.512l-0.394,0.079
		l-0.196,0.591l-0.396,0.708l-0.196,0.513l-2.323,2.6v0.669l-0.079,0.512l-0.512,0.709l-0.396,0.079
		c-0.342,1.287-1.037,2.088-2.088,2.403v0.591l-0.117,0.63l-0.513,0.67l-0.196,0.433c-0.92,0.709-1.682,1.602-2.285,2.678
		l-0.196,0.512l-0.513,0.709h-0.59v0.669l-0.197,0.512l-0.512,0.709v0.394l-1.183,0.906l-0.118,0.473l-0.473,0.709l-0.118,0.512
		l-0.513,0.709l-0.196,0.591l-2.993,3.782l-0.079,0.512l-0.513,0.788L191,110.346l-1.813,1.418v0.591l-0.119,0.591l-0.473,0.709
		l-0.117,0.512l-5.396,6.972l-0.197,0.591l-0.512,0.709l-0.197,0.394l-1.103,0.827v3.072h1.3v-0.591h1.223v-0.709
		c1.129-0.525,2.152-1.182,3.071-1.969c1.418-1.155,2.587-2.521,3.505-4.097h0.316v-0.709h1.182v-0.591
		c1.813-0.551,3.178-1.563,4.096-3.033c0-0.131,0.105-0.197,0.315-0.197v-1.772h1.183l0.512-0.197l0.197-0.513v-0.591l0.709-0.512
		l0.59-0.079v-0.63h0.513v-0.591h1.301v-0.709l1.103-0.67l0.197-0.512v-0.591h1.182v-0.709c1.13,0.131,1.865-0.237,2.207-1.104
		c0-0.131,0.104-0.197,0.313-0.197v-1.182h0.591v-0.63h0.709v-0.591c0.842,0.263,1.34,0.092,1.498-0.512l0.274-0.079v-0.591
		l1.497-1.221l0.394-0.079v-0.63h0.632v-1.891h0.67c0.813,0.21,1.313,0.013,1.496-0.591h0.314v-0.591l2.009-1.103
		c0.132-0.131,0.289-0.197,0.474-0.197l0.709-0.512l0.59-0.079v-0.63h1.223l0.473-0.197l0.117-0.394V93.05h2.482v-0.591h0.629V91.87
		h0.67v-0.591h1.223V90.57h1.299v-0.591h1.772V89.27h3.112v-0.512h2.48v-0.669h2.521v-0.63h8.783l1.104,0.236l0.197,0.394h3.111
		l1.104,0.197l0.078,0.473h0.592l1.813,0.197l0.117,0.315h0.592l1.182,0.315l0.117,0.394l1.693,0.197l0.079,0.394l1.222,0.197
		l0.078,0.512l0.709,0.512l1.693,0.275l0.119,0.394l1.104,0.315l0.078,0.275l0.709,0.512l0.59,0.197l1.104,0.197l0.313,0.906
		l1.576,0.315v0.394c2.469,1.339,4.438,3.138,5.908,5.396l0.395,0.197c0.395,0,0.763,0.105,1.104,0.315l0.196,0.394l3.309,3.584
		h0.395c0.395,1.733,1.195,3.06,2.402,3.979l0.196,0.512l0.474,0.591l0.119,0.63c-0.08,1.129,0.288,1.825,1.103,2.088l0.079,0.394
		c0.683-0.079,0.918,0.354,0.709,1.3l-0.079,0.591v0.591l0.473,0.63l0.196,0.591v0.709l0.513,0.669v0.63
		c0.657-0.079,0.919,0.315,0.788,1.182l-0.079,0.591v0.591c0.735,0.551,0.972,1.628,0.709,3.23l-0.118,0.473
		c0.735,0.21,0.973,0.88,0.709,2.009v0.512c0.656,0.578,0.854,1.602,0.592,3.072l-0.08,0.709v2.481
		c0.709,0.736,0.842,1.943,0.396,3.624l-0.396,0.079v1.891l0.08,0.63c0.209,0.866,0.013,1.3-0.592,1.3l0.078,0.473
		c0.211,0.998-0.052,1.47-0.787,1.418v1.182l0.118,0.63c0.185,0.919-0.052,1.339-0.709,1.261l0.079,0.63
		c0.131,0.866-0.131,1.26-0.788,1.182l-0.079,0.512l-0.434,0.197v0.591l-0.196,0.512l-0.473,0.708l-0.118,0.473l-0.512,0.197
		l-0.197,0.395l-0.395,0.236v0.59l-0.078,0.395l-0.512,0.197v0.709l-0.197,0.395l-1.104,0.709l-0.077,0.591l-0.514,0.709
		l-0.118,0.474c-0.998,0.734-1.799,1.642-2.401,2.717l-0.197,0.395l-0.473,0.197l-0.117,0.513l-0.514,0.078v1.892l0.514,0.629
		l0.117,0.593l0.473,0.709l0.197,0.59l0.512,0.709l0.117,0.474l0.475,0.709l0.117,0.592c0.867,0.998,1.629,2.166,2.285,3.506
		c0.262,0.656,0.524,1.352,0.787,2.088l0.119,0.59l0.512,0.709l0.078,0.513l1.104,2.601l0.118,0.591
		c0.997,1.471,1.589,3.335,1.772,5.594l0.196,1.183c0.341,1.287-0.092,1.326-1.301,0.117l-0.196,0.395l-2.283,0.197
		c-1.262,0.342-2.731-0.092-4.412-1.301v0.709c0.734,0.342,1.037,1.17,0.905,2.481h0.905c1.261,0.42,1.825,1.221,1.693,2.401
		c-0.184,2.994-1.981,3.23-5.396,0.709l-0.473,0.119l-2.601,1.103c1.182,0.185,1.969,0.813,2.363,1.891l0.118,0.593
		c2.127-0.264,2.167,0.039,0.118,0.905l-0.118,0.394l5.198-0.709l-0.394,1.694c1.996,0.604,2.798,1.603,2.402,2.992
		c-0.343,0.946,0.551,1.248,2.679,0.906l-0.513,3.19l0.434,0.117c1.733,2.127,1.156,3.953-1.731,5.477l-0.197,0.434l-0.395,0.196
		c0.604,0.788,0.905,1.813,0.905,3.071h-0.313v0.592c-0.053,1.287-0.447,2.128-1.182,2.521v0.59c0,0.735-0.435,0.973-1.302,0.709
		l0.119,0.592c0.185,0.867-0.054,1.261-0.71,1.183l-0.395,0.235c-1.287,1.916-2.821,3.545-4.607,4.885h-1.301l-0.395-0.197
		c-0.525-0.945-1.431-1.55-2.717-1.813l1.299-0.512h0.631v-0.592h-0.513c-2.206,1.551-4.136,1.746-5.79,0.592l3.309-1.772
		l0.474-0.117v-2.481l-0.078-0.592c-0.343-0.473-0.513-1.115-0.513-1.931c2.521-1.575,3.755-3.438,3.701-5.593l-0.394,0.709
		c-0.341,0.656-1.05,0.826-2.126,0.513h-0.275c0.053,3.649-0.684,4.278-2.207,1.892v0.59l-0.117,0.592l-0.592,0.63h-0.473v0.394
		c-2.469,0.133-4.568-0.21-6.303-1.022l-0.117,0.433l-1.104,0.197v0.669c0.263,0.867,0.065,1.274-0.592,1.224v0.59
		c0.657,0,0.762,0.395,0.315,1.182l-0.315,0.119l-0.195,0.393c-1.131,0.814-1.892,0.92-2.285,0.314l-0.512,0.08l-2.011,1.104
		c1.418,0.341,1.654,1.404,0.709,3.189l-0.077,0.513c0.709,2.679,2.797,3.545,6.262,2.601l0.631-0.119v-0.59l1.693,0.314l0.08,0.275
		l4.883,2.797l0.119,0.434l-0.119,0.395l-1.063,0.787l-0.631,0.117l-0.669,0.473v0.315c-1.077,0.132-1.917,0.435-2.521,0.906
		l-0.08,0.394l-1.103,0.197h-0.593l-0.235,0.512l-1.692,0.275l-0.592,0.513v0.394c-1.392,0-2.414,0.264-3.072,0.789h-3.229
		l-0.08,0.512l-1.221,0.197v0.394l-1.771,0.197h-2.521l-0.078,0.394l-8.588-0.394l-0.709,0.118
		c-0.867,0.185-1.273-0.053-1.222-0.709h-1.299l-0.475-0.08l-0.708-0.629l-0.591,0.117c-0.867,0.264-1.301,0.065-1.301-0.591h-0.513
		l-0.591-0.196l-0.709-0.513l-0.591-0.118l-0.709-0.473l-0.591,0.078c-0.92,0.211-1.354-0.053-1.301-0.787h-0.512l-0.67-0.591
		l-0.512-0.118l-0.789-0.512l-0.314-0.079c-0.262-0.604-0.762-0.972-1.496-1.103l-0.592-0.197l-0.709-0.514l-0.512-0.078
		c-1.732-0.944-2.994-2.351-3.781-4.215l-0.709-0.078h-0.078c-0.998-0.132-1.772-0.498-2.324-1.104l-0.196-0.514l-4.177-3.897
		l-0.512-0.196l-0.787-0.513l-0.119-0.396l-5.475-4.568l-0.395-0.118l-0.197-0.512l-0.512-0.079l-0.709-1.104l-0.592-0.197
		l-0.117-0.395l-0.395-0.195l-0.906-1.104l-0.473-0.119l-1.932-1.771l-0.473-0.118l-0.826-1.103l-0.275-0.08
		c-0.21-0.34-0.314-0.748-0.314-1.221l-0.591,0.118c-0.866,0.185-1.301-0.052-1.301-0.709l-0.078-0.394l-4.215-3.31h-0.118
		l-0.395-0.196l-0.67-1.104l-0.512-0.197l-0.787-0.983l-0.435-0.117c-1.392-1.786-2.915-3.414-4.569-4.885
		c-1.681-0.211-2.113-0.684-1.3-1.418c1.339-1.313,0.933-2.902-1.222-4.767c0.998-0.946,1.498-2.22,1.498-3.821h-0.867
		c-0.734,0.079-0.945-0.354-0.631-1.3v-0.196c-1.129,0.813-1.76,0.484-1.891-0.984v-1.891h2.521v-4.295l-0.118-0.314
		c-1.393-0.525-2.391-1.26-2.993-2.205h-0.395c-0.132,2.074-0.827,2.508-2.089,1.299l-0.629-0.078l-1.301-0.631h-1.182v0.709
		l0.395,0.119l4.607,5.396l-0.512,0.195l-7.09-0.195v-0.316c-1.654,1.654-3.914,1.76-6.775,0.316l0.079,0.59
		c0.21,0.92-0.026,1.353-0.709,1.301v1.182c0.263,1.602,0.065,2.665-0.591,3.189v4.412c0.604-0.053,0.733,0.314,0.394,1.104
		l-0.394,0.117c0.473,2.391,0.67,5.082,0.591,8.076v0.59c-0.263,1.13-0.093,1.865,0.512,2.207l0.118,0.314l0.275,0.077
		c0.264,0.604-0.039,0.802-0.905,0.593l-0.197,0.313l-6.578-0.313v0.629c0.185,1.051-0.249,2.074-1.3,3.072
		c1.602-0.132,2.534,0.5,2.797,1.891h-3.505l-0.276-0.078l-0.237-1.813l-0.472-0.078l-0.197-1.222l-0.394-0.079l-0.237-1.693v-1.299
		h-0.276l-0.394-3.703v-0.592l-0.197-0.117l-0.512-4.293l-0.512-0.592v-2.521l-0.394-0.08l-0.197-1.812v-0.709
		c0.079-0.656-0.354-0.813-1.3-0.473v0.275l-1.182,0.195v0.711l-0.118,0.59c-0.131,0.867-0.525,1.51-1.182,1.93v0.592l-0.119,0.59
		l-1.103,1.891v0.711l-0.197,0.394l-1.103,0.788l-0.079,0.514l-0.512,0.709v0.707l-0.079,0.592l-0.512,0.592l-0.118,0.59
		l-0.473,0.709l-0.197,0.513l-0.512,0.669l-0.118,0.514l-0.473,0.787l-0.118,0.513l-0.394,0.709v1.182
		c0.21,0.867-0.026,1.3-0.709,1.3l-0.197,0.512l-1.103,0.711v0.669l-0.079,0.513l-0.63,1.182l-0.473,0.117v0.709l0.079,0.592
		c0.21,1.129-0.013,1.732-0.67,1.813l-0.197,0.473l-1.103,0.827v1.183l-0.118,0.592l-0.512,0.709l-0.079,0.59l-0.512,0.592
		l-0.197,0.512l-0.513,0.197v0.59l-0.078,0.631l-0.513,0.67l-0.079,0.513l-0.512,0.709v0.591c0.263,0.866,0.066,1.261-0.591,1.182
		v0.709l-0.118,0.592l-0.473,0.709h-0.709v0.512l-0.118,0.591l-0.473,0.709l-0.118,0.591l-0.512,0.592l-0.079,0.631l-0.512,0.668
		v0.593l-0.197,0.63l-0.512,0.591l-0.079,0.513l-0.512,0.196v0.591l-0.079,0.592l-0.512,0.591v0.709l-0.119,0.513l-0.472,0.787
		l-0.197,0.512l-0.512,0.67l-0.118,0.512l-0.473,0.119v0.59l-0.118,0.593l-0.591,0.709v0.512l-0.512,0.078l-0.079,0.592
		l-0.512,0.709v0.591l-0.197,0.631l-1.103,1.299l-0.079,0.395l-0.63,0.197h-0.275c0.052,0.867-0.25,1.261-0.906,1.182l-0.118,0.592
		l-0.473,0.709l-0.197,0.513l-0.512,0.077v1.024l-1.182,0.197l-0.118,0.472l-0.512,0.237l-0.197,0.591l-0.473,0.592l-0.118,0.394
		l-5.396,3.388l-0.591,0.118l-0.709,0.512l-0.079,0.275c-0.735,0.211-1.313,0.513-1.733,0.905l-0.079,0.396l-1.813,0.197
		l-0.078,0.512l-0.591,0.197v0.313l-1.222,0.275l-0.079,0.314l-1.812,0.276l-0.315,0.117c-0.131,0.657-0.657,0.828-1.576,0.513
		l-0.118,0.473l-1.103,0.197l-0.275,0.118c-0.131,0.604-0.67,0.774-1.615,0.513l-0.079,0.394l-1.103,0.196H88.27l-0.473-0.117
		l-5.711,0.117l-0.197,0.395l-1.615,0.314l-6.893-0.117l-5.672-1.813h-0.591l-0.63-0.197l-0.591-0.473h-1.3l-0.709-0.63h-0.473
		l-0.63-0.079l-0.67-0.513l-0.63-0.078l-0.591-0.513l-0.591-0.196l-1.891-1.104l-0.197-0.394c-1.549-1.077-3.177-1.981-4.884-2.718
		v-0.395c-3.072-2.469-5.777-5.226-8.115-8.271l-0.315-0.118l-0.276-1.183H44.31c0.079-0.865-0.223-1.272-0.906-1.221l-0.394-0.078
		c-0.184-0.343-0.276-0.748-0.276-1.222l-0.315-0.079l-0.315-1.103l-0.079-0.593l-0.512-0.709l-0.394-0.117l-0.197-1.104
		l-0.197-0.473l-1.103-2.01l-0.315-0.078c-0.184-0.734-0.275-1.535-0.275-2.402l-0.119-0.512l-0.472-0.197h-0.434l-0.197-4.294
		l-0.275-0.118l-0.394-1.693v-1.299l-0.315-0.197l-0.315-0.984v-1.3h-0.275l-0.315-8.115h0.591v-1.299h-0.275l-0.315-2.481h0.591
		v-4.293h0.63v-3.781h0.669v-2.521l-0.197-0.395c-5.987-3.808-10.911-8.666-14.771-14.573H22.45l-0.394-1.614
		c-1.287-0.92-2.087-2.246-2.402-3.979l-0.315-0.119c-0.184-0.262-0.275-0.631-0.275-1.104L18.628,179l-0.197-1.221v-0.275
		c-0.656-0.079-0.853-0.578-0.591-1.497l-0.275-0.118l-0.434-1.813v-0.59l-0.394-0.197l-0.197-0.512h-0.275l-0.315-3.072v-1.223
		l-0.315-0.078l-0.276-1.221v-1.773h-0.315l-0.315-10.596h0.63v-3.111h0.591v-1.891h0.591v-2.481h0.591v-3.703h1.3v-1.3h0.631
		v-0.591l0.473-0.197l0.118-0.434v-1.3h0.709v-1.182h0.591v-0.709c1.602-1.051,2.836-2.508,3.703-4.372l0.079-0.631l9.808-7.563
		l0.079-0.394v-0.709h1.891l1.103-0.788l0.197-0.512v-0.512h3.112v-0.709h0.591v-0.591h1.891v-0.709h1.812v-0.591h3.782v-0.473
		l0.512,0.591l0.197,0.473v0.512l0.512,0.197v-1.772h1.299v-0.709h1.813v-0.591h5.672c5.593-0.473,7.957,0.551,7.09,3.072h0.315
		c1.129,0.998,2.258,0.538,3.387-1.378c0.341-0.604,0.578-0.578,0.709,0.079l0.276,0.591l1.3,0.63l0.63,0.079h0.591l0.985,1.3
		l0.394,1.024c-0.446,3.309-2.18,3.571-5.199,0.788l-0.473,0.197c-0.604,0.525-1.47,0.854-2.599,0.985v1.3h0.708v-0.591l1.773,0.315
		l0.118,0.275v0.709c0.394,1.26,1.589,1.522,3.584,0.788c2.731-1.05,2.561-0.315-0.512,2.206l1.3,0.512l0.63,0.079l0.394,0.197
		l0.197,0.512c0.735-0.604,1.563,0.131,2.481,2.206l0.591-0.394l1.103,0.275l0.118,0.394l-0.118,0.434l-0.473,0.197v3.781h0.591
		v-1.3c2.915,0.998,3.65,0.394,2.206-1.812h0.276v-0.669l-0.079-0.315l-1.694-1.615l2.087-2.875c0-0.131,0.131-0.197,0.394-0.197
		l-0.197-0.315l-3.585-2.087l-0.118,0.315c-0.788,0.446-1.155,0.341-1.103-0.315h0.591v-2.482h1.93l0.669-0.512
		c0.131-0.131,0.302-0.197,0.512-0.197l1.812,0.276l0.079,0.433l0.512,0.079l0.197,0.394l0.985,0.315l0.197,0.394l1.103,0.315
		l0.118,0.275h0.591l1.103,0.197l0.197,0.513c0.788,0,1.353,0.197,1.694,0.591l0.118,0.591l1.182,0.315l0.118,0.315h1.182
		l1.221,0.276l0.079,0.315l1.103,0.197l0.079,0.394l1.812,0.315l0.118,0.275c0.657-0.052,0.985,0.381,0.985,1.3h0.197l1.891,0.315
		l0.118,0.275l1.104,0.315l0.078,0.315l1.104,0.275l0.197,0.394l1.694,0.315l0.118,0.315l0.512,0.197l0.079,0.473h0.512l0.197,0.512
		h1.182l1.103,0.315l0.197,0.394l0.591,0.512l1.733,0.276l0.197,0.394c0.788-0.263,1.287-0.066,1.497,0.591l0.276,0.118
		c0.552,0.473,1.353,0.774,2.403,0.906l0.118,0.276c0.394,0.42,0.985,0.722,1.772,0.906v0.394h0.709l1.103,0.236l0.197,0.394
		c0.657,0.052,1.156,0.42,1.497,1.103l0.315,0.079h1.891l1.103,0.197l0.079,0.512l0.709,0.512l1.693,0.276l0.118,0.394h2.481
		l-0.079-0.473l-2.994-3.23h-1.221l-0.709-0.079c-0.657-0.131-0.854-0.762-0.591-1.891h-0.591l-0.591-0.512l-0.394-0.118
		c-0.604-1.392-1.747-2.219-3.427-2.481l-0.197,0.591l-1.103,0.118l-0.275-0.118l-0.197-1.103h0.473v-1.3l-0.473-0.197l-0.709-0.472
		h-0.512l-0.788-0.631l-0.394-0.079l-0.788-1.103l-0.512-0.197l-2.6-1.694l-0.591-0.118l-0.63-0.473v-0.315
		c-1.129-0.131-1.759-0.63-1.891-1.497l-0.591-0.197l-0.591-0.512l-0.197-0.394l-1.103-0.906l-0.591-0.079l-0.63-0.394l-0.591-0.236
		l-3.782-2.994l-0.197-0.394l-1.103-0.906l-0.512-0.079l-0.709-0.512l-0.591-0.079l-3.782-2.994l0.079-0.512
		c1.943-3.387,1.72-4.688-0.67-3.9c-0.21,0-0.381,0.066-0.512,0.197c-2.678,1.943-5.212,1.273-7.602-2.009l2.009-0.394l-0.118-0.197
		l0.197,0.197c1.549-0.525,2.481-1.588,2.796-3.19l1.024-4.688c0.131-0.394-0.407-0.525-1.615-0.394H86.38l-0.118,0.276
		l-6.066-0.276l0.275,2.403h-0.275l-0.197,0.473c-1.418,1.261-2.39,1.326-2.915,0.197l-0.591-0.197l-0.709-0.473l-0.276-0.118
		c-0.604-1.392-1.339-2.586-2.206-3.584l-0.394-0.197l-0.827-1.024H71.49c-1.129,0.263-1.563-0.17-1.3-1.3h0.591l-0.079-0.591
		l-1.694-3.702l-0.63-0.197l-0.079-0.512l-0.315-0.079l-0.276-1.103v-1.3l-0.118-0.394c-0.604-0.079-0.762-0.551-0.473-1.418
		l-0.512-0.197l-0.197-0.473l-0.315-0.118l-0.197-2.285v-0.709l-0.394-0.118l-0.906-5.475l-0.394-0.197l-0.315-1.104v-1.182
		l-0.276-0.118l-0.197-5.475h0.473v-4.412h0.709V65.71l-0.394-0.236l-0.315-1.063h0.709V61.89h0.591v-1.812h0.709v-0.669
		l0.394-0.118l0.119-0.473v-1.221h0.708v-1.3h0.591V53.82h0.591v-0.709h0.708v-1.103l1.497-1.182l0.276-0.119v-1.891l1.221-0.315
		l0.079-0.276v-1.221h0.63v-0.709h0.591v-1.182h0.709l0.394-0.079l0.197-0.512v-0.591h1.182c0.341-0.736,0.945-1.274,1.812-1.615
		l0.079-0.315V41.41h1.221l4.491-3.072l0.512-0.118v-0.59h1.891v-1.3h1.182l0.512-0.118l0.197-0.473v-0.63h1.812v-0.591h1.3V33.81
		l0.591-0.473l0.591-0.118h1.3v-0.591h3.703v-0.591H98.274z M179.299,38.221l0.395-0.079c1.603-2.206,1.472-2.613-0.395-1.221
		V38.221z M166.104,181.875v0.316h0.395c-0.264,1.392-0.788,1.588-1.575,0.591l-0.315-0.079l-0.314-1.104L166.104,181.875z
		 M166.104,183.373c2.338,0.262,2.338,0.395,0,0.395V183.373z M172.406,188.77l-0.592-0.274l-0.631-0.119
		c-1.521-0.524-2.547-1.522-3.072-2.994c3.179-2.073,4.109-1.706,2.798,1.104l0.591-0.118c1.943-0.735,2.245-0.026,0.906,2.128
		V188.77z M172.996,189.676c3.072-0.342,3.572-0.04,1.497,0.905C173.891,190.844,173.391,190.541,172.996,189.676z M164.922,223.354
		l1.182,3.19v0.591h0.709l1.301,2.993l0.394,0.197l0.197,0.513c0.655-0.132,0.854,0.303,0.591,1.299v0.514l2.993,4.49l0.119,0.59
		h0.59l0.513,0.593l0.196,0.59l0.474,0.709l0.118,0.512c5.12,6.513,10.978,12.304,17.567,17.371l1.615,0.315l0.078,0.394
		c1.418,0.525,1.627,1.129,0.631,1.813l-0.631,0.078l-0.078,0.592l-0.514,0.63v0.669l-0.078,0.434l-1.813,0.197v1.891h4.412v-0.709
		h1.182v-2.48h-0.395l-0.196-1.223l0.513,0.119l0.078,0.474l1.104,0.313l0.197,0.315c0.262,0,0.394,0.065,0.394,0.196l0.196,0.473
		h0.709l1.104,0.314l0.117,0.315l0.788,1.104l2.205,0.394l0.078,0.394l1.104,0.275l0.197,0.314l0.591,0.514l1.693,0.275l0.235,0.512
		l0.591,0.512h0.592l1.812,0.395l0.079,0.275l0.591,0.512l1.813,0.315l0.117,0.474l1.693,0.196l0.079,0.433l3.19,1.183l2.402,0.315
		l0.117,0.395c0.788,0,1.354,0.195,1.693,0.591l0.08,0.591l0.512,0.118l0.117,0.474c0.736,0.156,0.998,0.801,0.789,1.93
		l-0.119,0.591l-0.196,0.513c-1.13,1.707-2.718,2.967-4.767,3.781l-0.117,0.395l-2.994,0.314h-0.592
		c-1.207,0.264-1.838,0.025-1.891-0.709h-1.299l-0.632,0.078c-0.866,0.289-1.26,0.092-1.182-0.59l-0.591-0.197l-0.709-0.514
		l-0.592,0.119c-0.945,0.211-1.379-0.025-1.3-0.709h-0.591l-0.63-0.197l-0.591-0.473h-0.592l-0.709-0.513l-0.59-0.196l-0.593-0.513
		l-0.63-0.077l-0.984-0.709c-0.341-0.604-0.841-0.945-1.496-1.025l-0.592-0.196l-0.709-0.474l-0.513-0.117l-0.196-0.512
		l-0.591,0.117c-0.867,0.211-1.26-0.025-1.183-0.709l-0.314-0.078c-0.341-0.684-0.88-1.052-1.613-1.104l-0.277-0.118l-0.314-1.772
		h0.592v-1.299h-2.481l-0.078,0.394c-0.813,0.394-1.183,0.263-1.104-0.394h-0.709l-0.313-0.119
		c-0.185-0.342-0.276-0.734-0.276-1.183h0.592v-0.512l-0.119-0.513l-1.103-0.196v0.315c-6.905-4.465-13.13-9.756-18.671-15.875
		l-0.079-0.513l-5.593-8.192l-0.314-0.119l-0.197-1.182l-0.196-0.313c-0.813-0.525-1.379-1.222-1.694-2.089l-0.394-0.196
		l-0.197-1.103l-0.433-0.08l-0.197-1.103v-0.709l-0.473-0.196l-0.197-0.395l-0.314-0.197l-0.314-1.104h-0.276l-0.905-1.812
		l-0.513-0.196l-0.274-1.615l-0.513-0.67l-0.396-0.197l-0.195-1.023v-0.395c-0.684-0.131-0.895-0.59-0.63-1.378
		c0-0.079,0-0.157,0-0.236l-0.474-0.079l-0.789-2.402v-0.512h-0.313l-0.905-2.6h-0.395l-0.197-1.182l-0.195-0.514
		c-0.343-0.525-0.514-1.182-0.514-1.97v-1.3c0.475-1.286,1.313-1.891,2.521-1.813h0.592v-0.592c0.865,0.186,1.392-0.013,1.574-0.59
		l0.315-0.119v-1.182h1.3l0.592-0.512l0.591-0.119l-0.079-0.59l-0.512-1.301c1.731-0.473,2.572-0.064,2.521,1.223v3.188l0.394,0.709
		l0.197,0.474c0.656,0.131,0.788,0.735,0.396,1.813l-0.396,0.078H160v0.631l2.915,3.189l0.196,0.475l0.513,0.234v0.475l1.183,2.521
		L164.922,223.354z M214.75,123.658v0.276C216.43,122.673,216.43,122.581,214.75,123.658z M179.891,33.81l0.117,0.433
		C182.66,35.372,182.621,35.228,179.891,33.81z M183.08,28.216l0.119,0.512C183.855,29.464,183.816,29.293,183.08,28.216z
		 M285.809,191.566v1.221c0,2.73-1.011,3.164-3.033,1.299l-0.195,0.395c-0.788,0.343-1.155,0.211-1.104-0.395h0.631v-2.52h1.182
		c0.865-1.051,1.667-1.209,2.402-0.474L285.809,191.566z M277.104,196.568h-0.59l0.787,0.117L277.104,196.568z M267.809,217.051
		c-2.731,3.939-6.065,5.908-10.006,5.908c-1.654,0.053-2.678-0.854-3.072-2.717c3.781,1.339,5.278,1.076,4.49-0.789l-0.59-0.512
		c-0.211-0.053-0.186-0.854,0.078-2.402l0.314-1.301c2.391,1.076,5.082,1.682,8.076,1.813H267.809L267.809,217.051z M255.32,224.93
		v-0.275C256.923,224.837,256.923,224.93,255.32,224.93z M267.809,224.652c1.522,0.185,1.522,0.277,0,0.277V224.652z
		 M261.506,223.943c4.596-0.473,4.766,0,0.512,1.418C261.414,225.493,261.242,225.021,261.506,223.943z"/>
</g>
</svg>
