<?xml version="1.0" encoding="utf-8"?>
<!-- Generator: Adobe Illustrator 16.0.0, SVG Export Plug-In . SVG Version: 6.00 Build 0)  -->
<!DOCTYPE svg PUBLIC "-//W3C//DTD SVG 1.1//EN" "http://www.w3.org/Graphics/SVG/1.1/DTD/svg11.dtd">
<svg version="1.1" id="Layer_1" xmlns="http://www.w3.org/2000/svg" xmlns:xlink="http://www.w3.org/1999/xlink" x="0px" y="0px"
	 width="300px" height="300px" viewBox="0 0 300 300" enable-background="new 0 0 300 300" xml:space="preserve">
<g>
	<path fill="#FFFFFF" d="M105.492,76.633c1.917,0.709,3.808,1.483,5.672,2.324c13.183,5.515,25.341,12.92,36.475,22.216
		c-0.026-2.417-0.026-4.911,0-7.484l-1.063-0.984c-0.263-0.263-0.525-0.513-0.788-0.749c-1.917-1.733-3.834-3.413-5.751-5.042
		c-6.013-5.067-12.211-9.61-18.592-13.629c-2.127-1.365-4.268-2.651-6.42-3.859h-0.04c-0.105-0.054-0.197-0.105-0.275-0.158
		l0.906-0.433c-0.709,0.288-1.392,0.604-2.048,0.944c-3.335,1.76-6.132,4.005-8.39,6.736
		C105.282,76.541,105.387,76.58,105.492,76.633z M103.523,79.351c5.725,1.471,11.791,3.467,18.198,5.987
		c0.21,0.079,0.434,0.17,0.669,0.275c-5.908-3.15-11.909-5.843-18-8.074c-0.421,0.552-0.814,1.129-1.182,1.733
		C103.313,79.299,103.418,79.324,103.523,79.351z M99.229,91.049l0.158-0.984c0.079,0.026,0.145,0.04,0.197,0.04
		c17.804,3.623,33.849,10.621,48.134,20.994c-0.053-2.651-0.079-5.383-0.079-8.192l-0.158-0.119
		c-0.026-0.025-0.065-0.052-0.118-0.078c-0.026-0.053-0.066-0.092-0.118-0.118c-5.226-4.411-10.57-8.338-16.032-11.778
		c-0.867-0.577-1.733-1.128-2.6-1.653c-8.876-4.045-17.502-7.077-25.879-9.1c-0.158,0.315-0.329,0.617-0.512,0.906
		C100.673,84.012,99.676,87.373,99.229,91.049z M99.15,99.637c1.208,12.289,7.235,23.765,18.08,34.427
		c0.026,0,0.053,0.013,0.079,0.039c11.712,3.86,22.662,9.401,32.851,16.622h0.04c-0.079-0.788-0.158-1.562-0.237-2.323v-0.04
		l-1.3-1.024c-11.606-9.27-24.25-16.149-37.932-20.64h-0.039c-0.027-0.026-0.053-0.04-0.079-0.04l-1.339-1.772
		c0.026,0,0.053,0.014,0.079,0.039c9.401,2.863,18.29,6.815,26.667,11.857c4.464,2.678,9.06,5.895,13.786,9.65
		c-0.236-3.151-0.486-6.368-0.749-9.65v-0.04c-13.76-10.294-28.846-17.41-45.258-21.349c-0.053,0-0.092-0.014-0.119-0.039h-0.04
		l-0.669-1.458c0.026,0,0.053,0.014,0.079,0.04c16.885,3.886,32.182,10.871,45.889,20.955c-0.184-2.548-0.368-5.147-0.551-7.8
		c-0.052-0.788-0.092-1.602-0.118-2.442v-0.039c-14.259-9.453-30.107-15.336-47.543-17.646c-0.026,0-0.053,0-0.079,0
		c-0.053-0.026-0.092-0.039-0.119-0.039l-0.315-1.34c0.026,0,0.066,0.014,0.118,0.039c17.437,2.207,33.376,7.944,47.819,17.214
		c-0.184-3.177-0.302-6.486-0.354-9.927v-0.039c-14.601-10.714-30.79-17.909-48.568-21.585
		C98.888,93.886,98.861,96.669,99.15,99.637z M102.538,78.169c3.676-5.462,8.889-9.23,15.638-11.305
		c4.753-1.444,9.887-1.917,15.401-1.419c5.095,0.447,10.083,1.721,14.968,3.821c4.596-2.259,9.428-3.702,14.496-4.333
		c5.383-0.709,10.557-0.406,15.52,0.906c7.064,1.839,12.75,5.41,17.057,10.714c4.674,5.699,7.154,12.776,7.443,21.231
		c0.264,8.192-1.627,16.163-5.672,23.909c-3.781,7.169-9.31,13.983-16.582,20.443c-4.885,4.359-10.164,8.246-15.836,11.659
		c-2.889,1.732-5.266,3.061-7.129,3.979l-0.513,0.475c0.132,1.338,0.235,2.796,0.315,4.372c1.76,0.024,3.873,0.223,6.342,0.591
		c2.021-2.891,4.477-5.988,7.365-9.296c4.728-5.357,9.598-10.059,14.612-14.102c14.838-11.976,29.558-17.306,44.156-15.992
		c8.509,0.866,15.243,3.729,20.207,8.586c4.675,4.648,7.379,10.479,8.114,17.489c0.498,4.989-0.014,10.11-1.537,15.362
		c-1.471,4.938-3.688,9.611-6.655,14.021c0.787,2.941,1.287,5.896,1.496,8.863c0.132,2.022,0.132,4.058,0,6.104
		c-0.313,5.017-1.418,9.69-3.31,14.022c-0.104,0.131-0.184,0.264-0.235,0.396c-0.104,0.21-0.21,0.433-0.313,0.669
		c-0.343,0.762-0.685,1.457-1.025,2.088c-0.971,1.706-2.034,3.282-3.189,4.727c-2.627,3.283-5.816,5.936-9.572,7.957
		c-4.779,2.574-10.108,3.809-15.992,3.703c-1.812-0.025-3.662-0.17-5.553-0.434c-0.264-0.025-0.486-0.066-0.671-0.118
		c-8.114-1.287-15.585-4.675-22.413-10.163c-0.236-0.184-0.459-0.367-0.669-0.551c-1.653-1.366-3.243-2.822-4.767-4.373
		c-1.707-1.786-3.361-3.676-4.963-5.672c-1.576-1.995-3.059-4.098-4.451-6.303c-0.709-1.024-1.393-2.102-2.048-3.229
		c-1.681-2.81-3.243-5.751-4.688-8.823c-1.363-2.889-2.611-5.883-3.74-8.98c-1.156-3.178-1.996-5.764-2.521-7.76l-0.355-0.551
		c-1.705-0.158-3.597-0.408-5.672-0.75c-0.656-0.42-1.129-1.05-1.418-1.891c-0.025-0.053-0.039-0.104-0.039-0.156
		c-0.053,0.262-0.104,0.537-0.158,0.826c-0.131,0.42-0.289,0.893-0.473,1.418c-1.891,0.813-4.358,1.602-7.405,2.363
		c-0.762,3.439-1.838,7.234-3.23,11.384c-0.499,1.418-0.998,2.783-1.497,4.097c-1.996,5.227-4.214,10.059-6.656,14.496
		c-3.493,6.459-7.366,12-11.62,16.621c-6.066,6.539-12.854,11.227-20.365,14.063c-0.919,0.315-1.851,0.63-2.797,0.946
		c-8.035,2.52-15.335,2.44-21.9-0.237c-6.014-2.39-10.727-6.749-14.141-13.077c-2.416-4.411-3.913-9.335-4.49-14.771
		c-0.525-5.119-0.25-10.279,0.827-15.479c-0.656-0.866-1.261-1.72-1.812-2.562c-2.258-3.387-4.018-6.983-5.278-10.791
		c-1.759-5.146-2.495-10.269-2.206-15.362c0.446-7.326,2.836-13.629,7.169-18.906c4.648-5.673,11.095-9.468,19.34-11.384
		c7.957-1.918,16.15-1.642,24.579,0.827c7.747,2.231,15.506,6.289,23.279,12.171c5.095,3.808,9.953,8.246,14.574,13.313
		c2.337,2.547,4.11,4.609,5.318,6.186l0.473,0.394c1.471-0.446,2.888-0.853,4.254-1.221c-0.341-1.917-0.552-4.031-0.63-6.343
		c-3.283-1.521-6.789-3.349-10.517-5.475c-6.066-3.545-11.594-7.406-16.583-11.581c-14.626-12.316-22.688-25.761-24.185-40.335
		C97.194,91.232,98.704,84.077,102.538,78.169z M135.429,68.125c3.072,2.547,6.04,5.422,8.902,8.626
		c0.945,1.076,1.891,2.18,2.836,3.309l0.709,0.827c0-0.025,0-0.053,0-0.079c0.053-2.441,0.132-4.687,0.237-6.735
		c0,0.656,0.039,1.668,0.118,3.033c0.053,1.182,0.145,2.613,0.276,4.293l0.157-0.314c0-0.026,0.013-0.039,0.04-0.039
		c3.702-5.62,7.97-10.544,12.802-14.771c0.078-0.053,0.157-0.118,0.235-0.197l1.931-0.275c-0.079,0.079-0.156,0.146-0.236,0.196
		c0,0.026-0.013,0.039-0.039,0.039c-5.121,4.308-9.689,9.48-13.708,15.521c-0.604,0.919-0.984,1.404-1.142,1.457
		c0.079,0.814,0.131,1.668,0.158,2.561c0.157,1.732,0.315,4.464,0.472,8.193l0.591-0.67c9.322-10.241,19.485-18.815,30.488-25.722
		c0.026-0.026,0.053-0.053,0.079-0.078c-4.333-1.418-8.942-2.009-13.826-1.772c-6.196,0.288-12.157,1.877-17.883,4.766
		c-6.092-2.679-12.25-4.07-18.474-4.176c-5.173-0.025-9.874,0.814-14.101,2.521c0.105,0.053,0.197,0.104,0.275,0.157
		c1.655,0.945,3.296,1.943,4.924,2.994c7.064,4.359,13.878,9.322,20.443,14.889c1.759,1.497,3.506,3.034,5.239,4.609
		c0.236,0.21,0.472,0.433,0.708,0.669v0.453c0.003-0.163,0.016-0.313,0.04-0.453c0-0.394,0-0.774,0-1.143
		c0.026-2.81,0.079-5.435,0.158-7.878l-0.118-0.078c-0.158-0.236-0.119-0.447,0.118-0.63c0-0.026,0-0.054,0-0.079
		c0-0.026,0-0.065,0-0.118l-0.197-0.079h-0.079c-0.21-0.132-0.657-0.604-1.339-1.418c-0.998-1.208-2.009-2.376-3.033-3.506
		c-3.099-3.413-6.342-6.474-9.729-9.177l-1.378-1.104c-0.158-0.132-0.302-0.25-0.434-0.354c-0.026,0-0.052-0.014-0.079-0.04
		c-0.053-0.052-0.119-0.104-0.197-0.157l1.812,0.118c0.053,0.053,0.118,0.104,0.197,0.158c0.184,0.131,0.368,0.275,0.551,0.433
		C134.431,67.298,134.93,67.704,135.429,68.125z M92.572,131.857l1.536,0.118c1.812,3.702,3.808,7.273,5.987,10.714
		c6.276,10.032,14.01,18.881,23.201,26.549c0.735,0.604,1.484,1.207,2.245,1.813c0.236,0.184,0.486,0.381,0.749,0.592l1.654,1.338
		l-0.276,0.158c0.105-0.054,0.21-0.093,0.315-0.119c0.972-0.367,1.891-0.734,2.757-1.103c2.074-0.788,3.991-1.522,5.751-2.206
		l-0.946-0.709c-0.578-0.395-1.142-0.801-1.693-1.222c-1.681-1.261-3.309-2.548-4.885-3.86c-8.561-7.193-15.874-15.559-21.94-25.091
		c-0.945-1.418-1.838-2.85-2.679-4.294c-0.026-0.052-0.052-0.104-0.079-0.157l1.969,0.748c0.027,0.026,0.04,0.054,0.04,0.08
		c0.026,0.025,0.039,0.052,0.039,0.078c4.911,8.22,10.714,15.585,17.41,22.098c0.499,0.474,1.011,0.945,1.537,1.418
		c1.287,1.208,2.652,2.416,4.096,3.624c1.838,1.521,3.795,3.059,5.869,4.608c0.315,0.21,0.617,0.42,0.906,0.63
		c0.604,0.395,1.089,0.762,1.457,1.104c0.131,0.104,0.25,0.211,0.354,0.315l-0.512,0.274c0.184-0.078,0.368-0.157,0.552-0.235
		c0.683-0.343,1.339-0.63,1.97-0.867l0.039-0.039l-0.315-0.235c-0.315-0.264-0.617-0.525-0.906-0.789
		c-0.946-0.787-1.838-1.563-2.679-2.323c-1.786-1.627-3.44-3.203-4.963-4.728c-0.604-0.576-1.182-1.154-1.733-1.732
		c-5.462-5.855-10.307-12.25-14.535-19.183c-0.026-0.025-0.04-0.052-0.04-0.078l2.442,1.418c0,0.026,0.014,0.053,0.04,0.078
		l0.04,0.039c1.182,1.839,2.416,3.625,3.703,5.358c3.729,5.12,7.825,9.887,12.29,14.298c1.681,1.629,3.414,3.23,5.199,4.807
		c0.604,0.498,1.208,0.998,1.812,1.496l1.064,0.906l-1.024,0.512c0.368-0.156,0.722-0.314,1.063-0.473
		c0.657-0.314,1.287-0.604,1.891-0.866l2.127-0.985l0.039-0.039l-0.906-0.592c-0.998-1.363-2.048-2.703-3.151-4.018
		c-3.387-3.991-7.3-7.838-11.738-11.541c-1.103-0.919-2.245-1.825-3.427-2.717c-0.473-0.368-0.945-0.736-1.418-1.104
		c-10.452-7.904-20.706-12.486-30.764-13.747c-2.836-0.368-5.659-0.46-8.469-0.275c1.392,3.859,2.967,7.563,4.727,11.107
		c5.068,10.451,11.646,19.708,19.735,27.77c1.497,1.497,3.059,2.954,4.687,4.372c0.368,0.314,0.735,0.631,1.103,0.945l0.827,0.787
		c3.624-1.103,6.854-2.141,9.69-3.111c0-0.025,0.013-0.039,0.04-0.039l-0.788-0.553c-0.289-0.209-0.565-0.42-0.828-0.629
		c-0.84-0.684-1.654-1.354-2.442-2.01c-2.967-2.468-5.698-4.963-8.193-7.482c-0.919-0.92-1.799-1.838-2.639-2.758
		c-7.615-8.299-13.917-17.661-18.907-28.085C92.625,131.962,92.599,131.91,92.572,131.857z M117.23,134.063
		c0.525,0.525,1.077,1.05,1.654,1.575c1.313,1.26,2.691,2.508,4.136,3.742c0.053,0.026,0.092,0.065,0.118,0.117l0.118,0.08
		c6.197,5.173,12.841,9.65,19.932,13.432c2.363,1.233,4.779,2.402,7.248,3.507l-0.079-4.059l-1.3-0.827
		c-9.112-6.434-18.946-11.567-29.502-15.401l-0.237-0.236c-0.079-0.053-0.144-0.105-0.197-0.157
		c-0.21-0.184-0.407-0.368-0.591-0.552c-0.052-0.053-0.092-0.093-0.118-0.118L117.23,134.063z M53.064,173.848
		c0.236,0.893,0.485,1.799,0.749,2.717c0.079,0.054,0.158,0.119,0.236,0.197c3.335,2.704,6.933,5.081,10.793,7.131
		c2.311,1.207,4.714,2.31,7.208,3.309c0.945,0.367,1.483,0.645,1.615,0.826h0.039c0.762-0.209,1.602-0.434,2.521-0.67
		c1.654-0.445,4.254-1.115,7.799-2.008c0-0.026,0.013-0.039,0.039-0.039l-0.788-0.474c-4.701-2.862-8.823-5.606-12.368-8.231
		c-0.709-0.525-1.418-1.051-2.127-1.576c-4.858-3.729-9.454-7.76-13.786-12.094c-0.709-0.709-1.392-1.404-2.048-2.086
		c-0.236-0.236-0.459-0.461-0.67-0.672c-0.079-0.078-0.144-0.156-0.197-0.234l0.118-1.144
		C51.437,163.632,51.725,168.646,53.064,173.848z M60.233,142.493c0,0.052,0.026,0.117,0.079,0.196
		c3.939,8.036,9.217,16.215,15.835,24.54c0.446,0.446,0.919,0.881,1.418,1.301c1.182,1.103,2.416,2.205,3.703,3.309
		c2.678,2.258,5.593,4.543,8.745,6.854c1.05,0.735,2.127,1.484,3.229,2.246c0.946,0.631,1.589,1.117,1.93,1.457
		c0.053,0.025,0.092,0.065,0.118,0.119h0.04c1.917-0.553,4.004-1.091,6.263-1.615c0.709-0.185,1.405-0.367,2.088-0.553
		c0.578-0.156,1.155-0.313,1.733-0.473c3.466-0.943,6.683-1.838,9.65-2.678c0.394-0.133,0.775-0.25,1.143-0.355l-1.222,0.275
		c-10.478-9.006-18.828-19.721-25.052-32.142c-2.127-4.148-3.992-8.481-5.593-12.998c-0.026-0.079-0.053-0.158-0.079-0.236
		c-2.206,0.184-4.398,0.538-6.579,1.063c-13.838,3.309-22.202,11.252-25.091,23.83c-0.105,0.604-0.21,1.195-0.315,1.772
		c0.184,0.185,0.368,0.381,0.552,0.591c2.39,2.521,4.871,4.95,7.445,7.287c2.6,2.362,5.304,4.647,8.114,6.854
		c0.945,0.709,1.891,1.418,2.836,2.127c3.571,2.625,7.72,5.383,12.447,8.271c0.998,0.576,1.694,1.023,2.088,1.339
		c2.285-0.578,4.911-1.233,7.878-1.97c0.026-0.025,0.053-0.039,0.079-0.039l-0.984-0.553c-0.446-0.314-0.906-0.615-1.379-0.905
		c-3.151-2.205-6.184-4.517-9.099-6.933c-8.509-7.091-15.94-15.125-22.295-24.105c-0.971-1.313-1.904-2.653-2.796-4.019
		c-0.026-0.053-0.053-0.092-0.079-0.118c0.184-0.394,0.447-0.787,0.788-1.182c0.026,0.053,0.066,0.105,0.118,0.157
		c0,0.026,0.027,0.066,0.079,0.118c3.965,6.093,8.403,11.778,13.313,17.057c-0.052-0.079-0.118-0.157-0.197-0.237
		c-4.569-6.302-8.442-12.604-11.62-18.906c-0.026-0.052-0.052-0.104-0.079-0.156l0.669-0.71
		C60.181,142.4,60.207,142.439,60.233,142.493z M124.518,177.354c-2.416,0.655-4.924,1.338-7.523,2.047
		c-0.814,0.236-1.628,0.474-2.442,0.711c-1.05,2.625-2.022,5.304-2.915,8.033c-4.307,13.524-5.987,27.613-5.042,42.267l-1.221,0.552
		c-1.103-14.968,0.499-29.24,4.805-42.816c0.762-2.469,1.615-4.897,2.561-7.287c0.053-0.104,0.092-0.211,0.119-0.314
		c-3.099,0.762-6.368,1.551-9.809,2.363c-0.788,1.732-1.549,3.48-2.284,5.238c-6.066,14.994-9.139,30.541-9.217,46.638
		c0.079,0,0.158,0,0.236,0c2.547-0.263,5.186-0.813,7.917-1.653c1.97-0.604,3.926-1.326,5.87-2.167
		c0.236-0.132,0.486-0.25,0.748-0.354c0.158-0.077,0.329-0.157,0.512-0.235c2.206-1.104,4.347-2.39,6.421-3.86
		c0.42-0.313,0.854-0.63,1.3-0.945c1.576-1.182,3.112-2.48,4.609-3.898c1.208-1.154,2.403-2.377,3.584-3.663
		c0.499-0.552,0.998-1.13,1.497-1.733c1.969-2.338,3.86-4.885,5.672-7.642c0.867-6.959,2.311-13.786,4.333-20.483
		c1.471-4.987,3.27-9.912,5.396-14.771c0.026-0.079,0.053-0.157,0.079-0.235v-0.039c-0.735,0.184-1.497,0.394-2.285,0.629
		l-0.748,1.459c-2.153,4.252-4.057,8.572-5.711,12.957c-3.519,9.219-5.869,18.697-7.051,28.44l-1.497,1.654
		c1.05-9.821,3.19-19.327,6.421-28.519c0.184-0.525,0.394-1.052,0.63-1.576c1.576-4.254,3.572-8.771,5.987-13.549
		c0.053-0.105,0.105-0.211,0.158-0.315c-2.836,0.813-5.974,1.668-9.415,2.56c-1.759,3.887-3.295,7.655-4.608,11.305
		c-0.761,1.996-1.444,3.979-2.048,5.949c-3.125,10.269-4.885,20.784-5.279,31.551l-1.299,0.984
		c0.368-13.34,2.731-26.168,7.09-38.484c1.287-3.545,2.731-7.037,4.333-10.478C124.425,177.563,124.465,177.457,124.518,177.354z
		 M149.294,95.422c0.105,2.39,0.236,5.121,0.394,8.192l0.709-0.748c4.779-4.647,9.48-8.692,14.102-12.132
		c8.744-6.46,18.187-11.726,28.321-15.795l0.945,1.063c-6.934,2.731-13.459,5.987-19.578,9.77c0.763-0.368,1.523-0.709,2.285-1.024
		c6.381-2.862,12.67-5.134,18.867-6.814l0.631,0.827c-8.979,2.311-18.146,5.896-27.494,10.754
		c-5.986,4.175-11.594,8.862-16.818,14.062c-1.051,0.972-1.681,1.55-1.891,1.733c0.105,1.996,0.21,4.136,0.315,6.42
		c0.052,0.762,0.092,1.484,0.118,2.167c0.079-0.053,0.157-0.118,0.236-0.197c14.468-12.447,31.183-20.758,50.143-24.934l0.276,1.222
		c-18.672,4.148-35.176,12.434-49.515,24.854l-0.985,0.867c0.21,3.571,0.447,6.879,0.708,9.926c0.078-0.053,0.146-0.104,0.197-0.158
		c14.363-11.265,31.156-18.251,50.379-20.955c0.211-2.205,0.289-4.451,0.236-6.735c-0.104-2.679-0.395-5.199-0.865-7.563
		c-0.104-0.42-0.197-0.827-0.277-1.221c-0.786-3.229-1.955-6.145-3.506-8.744c-1.574-2.601-3.53-4.871-5.869-6.814
		c-1.102-0.946-2.282-1.799-3.545-2.561c-1.338-0.866-2.782-1.641-4.332-2.324c-0.973-0.446-1.957-0.827-2.955-1.143l1.302,0.474
		c-0.026,0.025-0.054,0.052-0.079,0.078h-0.04c-11.106,6.88-21.36,15.454-30.763,25.722
		C150.16,94.608,149.609,95.185,149.294,95.422z M201.484,105.82c-12,1.786-23.082,5.291-33.244,10.518
		c-5.41,2.783-10.793,6.249-16.15,10.398l-0.865,0.67c0.367,3.781,0.748,7.169,1.143,10.163l0.669-0.631
		c13.629-11.791,29.254-19.893,46.875-24.304l-0.474,1.457c-16.832,4.359-31.893,12.277-45.181,23.753l-1.694,1.339
		c0.158,1.051,0.315,2.035,0.474,2.954c0.396,2.153,0.762,4.176,1.104,6.066l0.826-0.827c11.659-10.793,25.025-18.724,40.1-23.791
		l-1.063,1.772c-9.086,3.203-17.502,7.458-25.249,12.762c-4.123,2.836-8.298,6.211-12.525,10.123
		c-0.734,0.683-1.326,1.182-1.772,1.497c0.158,0.735,0.315,1.444,0.474,2.127l0.235-0.236c10.138-8.141,21.192-14.352,33.167-18.632
		l-1.852,2.127c-6.959,2.679-13.512,5.988-19.655,9.927c-3.257,2.022-6.749,4.517-10.479,7.484l-1.142,0.905
		c0.185,0.709,0.341,1.392,0.474,2.049l0.59,2.322l0.748-0.707l7.17-3.979c5.776-3.493,11.029-7.34,15.756-11.542
		c2.231-1.995,4.308-4.004,6.224-6.026c0.657-0.734,1.313-1.47,1.97-2.206c2.153-2.521,4.07-5.067,5.752-7.642
		c0.366-0.63,0.734-1.233,1.104-1.812c1.863-3.125,3.348-6.303,4.451-9.532c0.156-0.499,0.313-0.984,0.473-1.458
		c0.682-2.258,1.193-4.543,1.535-6.854C201.473,105.978,201.484,105.899,201.484,105.82z M192.426,136.584
		c-0.027,0.026-0.053,0.065-0.078,0.118c-3.729,6.564-8.037,12.736-12.921,18.513c-2.679,3.205-5.804,6.539-9.375,10.006
		l-0.038,0.039c0.131,0.026,0.262,0.039,0.394,0.039c0.655,0.079,1.325,0.158,2.01,0.237l1.26-1.104
		c11.188-9.506,20.325-20.535,27.416-33.088c0.052-0.078,0.104-0.171,0.156-0.275l1.972-0.984c-0.054,0.104-0.105,0.21-0.158,0.314
		c-0.026,0.026-0.054,0.065-0.078,0.118c-4.623,8.509-10.137,16.348-16.545,23.516c-3.519,3.887-7.576,7.787-12.172,11.699
		c0.133,0.025,0.276,0.039,0.435,0.039c3.046,0.342,6.146,0.709,9.296,1.103c4.807-4.411,9.047-8.849,12.723-13.313
		c6.749-8.22,12.344-17.228,16.78-27.021c0.052-0.079,0.093-0.158,0.118-0.237l1.576-0.314c-0.027,0.053-0.053,0.104-0.079,0.158
		c0,0.052-0.013,0.091-0.04,0.117c-7.037,15.678-16.818,29.28-29.346,40.808c0.131,0.025,0.264,0.039,0.395,0.039
		c2.441,0.314,4.91,0.631,7.404,0.945c0.789,0.104,1.604,0.211,2.443,0.314c11.947-12,20.797-26.43,26.549-43.289
		c0-0.078,0.013-0.144,0.039-0.197l1.34-0.039c-0.027,0.053-0.041,0.104-0.041,0.158c-0.025,0.025-0.039,0.052-0.039,0.078
		c-5.566,16.728-14.232,31.25-25.996,43.564c0.104,0.025,0.223,0.041,0.354,0.041c2.994,0.42,6.146,0.904,9.454,1.457
		c13.208-12.08,23.358-26.563,30.448-43.448c0-0.053,0.014-0.092,0.039-0.118c-2.494-0.788-5.212-1.326-8.153-1.615
		c-14.338-1.365-28.886,3.899-43.644,15.796c-8.482,6.854-15.822,14.719-22.021,23.596c0.132,0.024,0.25,0.052,0.355,0.078
		c1.182,0.209,2.401,0.433,3.661,0.668l1.064-1.063c7.956-7.721,14.758-16.242,20.404-25.564c0.104-0.184,0.209-0.368,0.314-0.552
		l2.561-1.812C192.583,136.269,192.504,136.427,192.426,136.584z M145.355,171.956c0-0.104,0.013-0.197,0.039-0.274l-3.978,0.865
		l-0.591,1.418c-2.022,4.7-3.742,9.428-5.161,14.18c-1.838,5.988-3.203,11.937-4.096,17.844c0.131-0.184,0.25-0.366,0.354-0.551
		c0.683-1.129,1.353-2.283,2.009-3.465c2.469-4.492,4.622-9.101,6.46-13.828C142.414,182.895,144.068,177.496,145.355,171.956z
		 M168.004,169.711l0.157,0.314c3.125,5.883,5.687,11.923,7.681,18.119c1.891,5.777,3.322,11.738,4.295,17.883
		c0,0.027,0,0.065,0,0.119l-1.773-2.246c0-0.025,0-0.053,0-0.078c-0.92-5.41-2.219-10.635-3.898-15.678
		c-0.656-1.863-1.326-3.677-2.009-5.436c-1.394-3.57-3.204-7.473-5.437-11.699l-0.67-1.3c-0.734,0-1.418,0.013-2.049,0.039
		l-0.59,0.039c-0.525,0-1.129,0.026-1.813,0.08l0.551,0.905l2.521,7.838c1.207,3.283,2.547,6.461,4.018,9.531
		c1.313,2.812,2.758,5.502,4.334,8.075c0.761,1.313,1.535,2.587,2.322,3.821c1.471,2.258,2.994,4.359,4.569,6.303
		c1.759,2.205,3.599,4.24,5.515,6.105c0.342,0.313,0.684,0.63,1.024,0.945c0.263,0.235,0.524,0.484,0.787,0.748
		c0.894,0.813,1.813,1.602,2.758,2.362c0.313,0.236,0.63,0.474,0.945,0.709c1.784,1.34,3.61,2.534,5.475,3.584
		c0.367,0.185,0.748,0.381,1.144,0.591l-1.379-0.787c-0.656-11.213-2.875-21.939-6.656-32.182c-0.053-0.105-0.105-0.195-0.158-0.275
		c-1.969-5.252-4.543-10.74-7.721-16.465c-0.498-0.734-0.826-1.301-0.984-1.693c-0.025-0.078-0.053-0.145-0.078-0.197
		c-1.076-0.025-2.088-0.053-3.033-0.078c-2.152-0.053-4.176-0.079-6.065-0.079l0.552,0.906c3.52,5.646,6.499,11.516,8.939,17.606
		c3.311,8.352,5.582,17.135,6.815,26.353l-0.473-0.396c-0.157-0.156-0.315-0.301-0.474-0.433c-0.078-0.053-0.145-0.104-0.196-0.158
		l-0.433-0.394c-1.287-8.692-3.545-17.016-6.775-24.975c-2.311-5.671-5.121-11.158-8.43-16.464
		c-0.525-0.866-0.881-1.483-1.063-1.853c-0.026-0.078-0.052-0.145-0.079-0.196C169.383,169.632,168.66,169.658,168.004,169.711z
		 M182.973,170.734c3.256,5.619,6,11.424,8.231,17.41c3.86,10.504,6.079,21.586,6.657,33.244c0.078,0.055,0.156,0.094,0.236,0.119
		c2.102,1.076,4.239,1.995,6.42,2.758c0.153,0.039,0.313,0.084,0.473,0.137l-0.709-0.256c0.553-12.604-0.932-24.604-4.45-36.002
		c-1.733-5.646-3.952-11.135-6.657-16.465l-0.512-0.945c-3.781-0.367-7.17-0.644-10.162-0.826L182.973,170.734z M239.26,127.131
		c-6.984,16.779-16.924,31.235-29.818,43.368c0.133,0.026,0.265,0.052,0.396,0.078c2.44,0.42,4.989,0.866,7.642,1.34l0.315-0.274
		c6.354-5.147,11.947-10.399,16.779-15.758c5.698-8.088,10.319-15.979,13.864-23.674l0.67,0.631
		c-2.836,6.04-6.119,11.896-9.848,17.568c0.604-0.735,1.208-1.484,1.813-2.246c3.36-4.279,6.551-8.901,9.571-13.865
		c-0.369-0.42-0.763-0.813-1.183-1.182c-0.394-0.394-0.813-0.774-1.261-1.142c-0.105-0.079-0.197-0.158-0.275-0.236
		c-0.078-0.079-0.156-0.146-0.236-0.197c-2.758-2.18-5.947-3.834-9.571-4.963l1.182,0.433c0,0.026,0,0.053,0,0.079L239.26,127.131z
		 M251.471,135.284c-8.64,14.154-19.393,26.47-32.26,36.948c0.131,0.024,0.262,0.052,0.395,0.078c2.23,0.42,4.517,0.879,6.854,1.379
		l1.223-0.866c11.08-8.089,20.784-17.03,29.108-26.825c-0.104-0.395-0.211-0.774-0.315-1.142c-1.023-3.546-2.613-6.657-4.767-9.336
		c-0.289-0.341-0.563-0.67-0.827-0.985c-0.079-0.078-0.156-0.157-0.236-0.236L251.471,135.284z M206.252,172.508
		c2.914,5.068,5.396,10.28,7.443,15.637c4.675,12.106,7.195,24.922,7.563,38.445l-1.339,0.039
		c-0.342-13.629-2.875-26.456-7.604-38.484c-2.073-5.119-4.517-10.097-7.326-14.928l-0.629-1.143
		c-3.547-0.447-6.842-0.827-9.889-1.143c2.811,5.566,5.096,11.305,6.854,17.213c3.438,11.502,4.831,23.66,4.175,36.476
		c0.079,0.026,0.157,0.053,0.236,0.079c1.471,0.445,2.992,0.813,4.568,1.103c0.578,0.105,1.168,0.21,1.772,0.315
		c1.575,0.236,3.151,0.406,4.728,0.512c1.129,0.079,2.244,0.105,3.348,0.079c0.447,0,0.894-0.015,1.34-0.04
		c3.886-0.234,7.443-1.089,10.675-2.561c0.289-0.131,0.578-0.263,0.866-0.395c0.762-0.395,1.511-0.813,2.244-1.26
		c0.396-0.264,0.789-0.525,1.183-0.788c2.285-1.603,4.386-3.599,6.304-5.987c0.551-0.63,1.063-1.3,1.535-2.009
		c0.342-0.474,0.67-0.972,0.985-1.497c-2.994-7.956-6.67-15.561-11.029-22.807c-0.235-0.42-0.5-0.827-0.788-1.223
		c-2.127-3.49-4.66-7.207-7.603-11.146l-1.457-2.049l1.692,0.196l0.119,0.157l0.039,0.04l0.434,0.551
		c2.994,4.02,5.738,8.103,8.231,12.25c4.466,7.354,8.193,14.916,11.187,22.689c0.027-0.053,0.066-0.105,0.119-0.157
		c0.395-0.788,0.787-1.563,1.183-2.323c0.053-0.133,0.104-0.25,0.157-0.354c1.418-3.229,2.39-6.697,2.914-10.399
		c0.158-0.998,0.275-1.97,0.354-2.914c0.026-0.631,0.052-1.248,0.079-1.853l-0.158,1.97c-1.207-2.283-2.6-4.504-4.176-6.656
		c-2.494-3.52-5.355-6.894-8.586-10.123c-0.553-0.525-0.92-0.906-1.104-1.143c-0.054-0.079-0.092-0.145-0.119-0.197
		c-0.787-0.156-1.653-0.287-2.6-0.394c-10.294-1.522-18.921-2.759-25.879-3.703c-0.788-0.078-1.563-0.171-2.324-0.274l0.157,0.039
		C206.159,172.402,206.199,172.455,206.252,172.508z M229.295,174.279c2.757,0.578,5.355,1.13,7.799,1.654v-0.078
		c0.262-0.078,0.459-0.014,0.59,0.196v0.039c0.027,0,0.066,0.013,0.119,0.039c0.115,0,0.232,0.021,0.354,0.06l-0.276-0.099
		l0.119-0.196c0.104-0.236,0.656-0.578,1.654-1.023c2.705-1.523,4.949-2.862,6.734-4.018c3.598-2.363,6.998-4.951,10.202-7.762
		v-0.039c0.054-0.445,0.132-0.865,0.236-1.26c1.05-4.911,1.168-9.561,0.354-13.944c-0.025-0.132-0.053-0.263-0.078-0.394
		c-8.324,9.689-17.976,18.539-28.951,26.549c0.131,0.025,0.262,0.064,0.394,0.117C228.782,174.176,229.031,174.229,229.295,174.279z
		 M238.669,177.115c3.519,3.492,6.604,7.17,9.257,11.029c1.051,1.549,2.049,3.111,2.994,4.688c0-0.052,0-0.104,0-0.157
		c0.053-1.522,0.039-3.032-0.04-4.53c-0.263-2.992-0.827-6-1.694-9.02c3.072-4.386,5.332-8.994,6.775-13.826
		c0.053-0.184,0.105-0.367,0.158-0.551c-4.779,4.175-10.163,7.878-16.15,11.107l-0.984,0.513c0.158,0.026,0.303,0.065,0.435,0.116
		c2.363,0.5,4.517,0.998,6.459,1.498c-0.498-0.105-1.207-0.236-2.127-0.395c-1.339-0.21-3.11-0.459-5.317-0.749L238.669,177.115z
		 M101.396,183.301c-2.573,0.577-5.239,1.155-7.996,1.732l-0.276,0.395c-0.499,0.893-0.958,1.799-1.378,2.717
		c-3.309,6.304-6,12.369-8.075,18.199c-2.179,9.531-3.453,18.578-3.821,27.141c0.079,0.025,0.158,0.052,0.237,0.078
		c0.262,0.078,0.512,0.158,0.748,0.235c3.046,0.894,6.263,1.247,9.65,1.063c0.171-0.014,0.342-0.025,0.513-0.039l-0.749,0.039
		c0.026-16.307,3.046-31.879,9.06-46.717c0.63-1.522,1.287-3.045,1.969-4.568C101.304,183.497,101.343,183.404,101.396,183.301z
		 M91.509,185.664c0.052-0.105,0.105-0.21,0.157-0.314c-2.389,0.498-4.832,0.996-7.326,1.496l-0.788,1.182v0.117
		c-2.836,4.623-5.252,8.903-7.248,12.842c-3.729,7.406-6.854,15.035-9.375,22.887l-0.04,0.039l-0.827-1.182
		c0-0.026,0.013-0.054,0.04-0.078c3.913-11.791,9.23-23.295,15.953-34.508c0.131-0.262,0.276-0.498,0.433-0.707
		c0.053-0.105,0.118-0.211,0.197-0.315c-0.368,0.079-0.735,0.157-1.103,0.235l-17.489,2.994l1.852-0.354
		c1.471-0.342,3.493-0.854,6.066-1.537c0.026-0.025,0.065-0.039,0.118-0.039l-0.354-0.156c-0.131-0.027-0.25-0.065-0.354-0.119
		c-6.434-2.73-12.093-5.986-16.977-9.769c1.287,3.413,3.007,6.67,5.16,9.769c0.525,0.762,1.077,1.522,1.655,2.285
		c-1.182,5.437-1.498,10.739-0.946,15.913c0.053-0.104,0.118-0.224,0.197-0.354c2.888-5.698,6.407-11.042,10.556-16.031l0.67-0.827
		l1.142-0.235v0.275c-0.079,0.236-0.459,0.773-1.142,1.614c-4.596,5.646-8.312,11.423-11.147,17.332
		c0.052,0.42,0.118,0.84,0.197,1.26c1.156,6.065,3.427,11.253,6.814,15.56c0.893,1.104,1.838,2.127,2.836,3.072
		c0.289,0.264,0.604,0.538,0.945,0.827c0.342,0.289,0.696,0.577,1.063,0.866c1.077,0.788,2.206,1.497,3.388,2.127
		c2.389-15.336,7.195-29.896,14.417-43.684C90.642,187.277,91.063,186.451,91.509,185.664z"/>
	<path fill="#7ACDEC" d="M135.429,68.125c-0.499-0.421-0.998-0.827-1.497-1.222c-0.184-0.157-0.368-0.302-0.551-0.433
		c-0.079-0.054-0.145-0.105-0.197-0.158l-1.812-0.118c0.078,0.053,0.144,0.105,0.197,0.157c0.026,0.026,0.052,0.04,0.079,0.04
		c0.131,0.104,0.276,0.223,0.434,0.354l1.378,1.104c3.387,2.703,6.63,5.764,9.729,9.177c1.024,1.13,2.035,2.298,3.033,3.506
		c0.683,0.813,1.129,1.286,1.339,1.418h0.079l0.197,0.079c0,0.053,0,0.092,0,0.118c0,0.025,0,0.053,0,0.079
		c-0.237,0.183-0.276,0.394-0.118,0.63l0.118,0.078c-0.079,2.443-0.132,5.068-0.158,7.878c0,0.368,0,0.749,0,1.143
		c-0.023,0.14-0.036,0.29-0.04,0.453v-0.453c-0.236-0.236-0.473-0.459-0.708-0.669c-1.733-1.575-3.48-3.112-5.239-4.609
		c-6.565-5.566-13.379-10.529-20.443-14.889c-1.628-1.051-3.269-2.049-4.924-2.994c-0.079-0.053-0.17-0.104-0.275-0.157
		c4.228-1.707,8.928-2.547,14.101-2.521c6.224,0.105,12.382,1.497,18.474,4.176c5.725-2.889,11.686-4.478,17.883-4.766
		c4.885-0.236,9.493,0.354,13.826,1.772c-0.025,0.025-0.053,0.052-0.079,0.078c-11.003,6.906-21.166,15.48-30.488,25.722
		l-0.591,0.67c-0.157-3.729-0.315-6.461-0.472-8.193c-0.027-0.893-0.079-1.746-0.158-2.561c0.158-0.053,0.538-0.538,1.142-1.457
		c4.018-6.04,8.587-11.213,13.708-15.521c0.025,0,0.039-0.013,0.039-0.039c0.078-0.052,0.156-0.117,0.235-0.196l-1.931,0.275
		c-0.078,0.079-0.157,0.145-0.235,0.197c-4.832,4.228-9.101,9.151-12.802,14.771c-0.027,0-0.04,0.013-0.04,0.039l-0.157,0.314
		c-0.131-1.68-0.223-3.111-0.276-4.293c-0.079-1.365-0.118-2.377-0.118-3.033c-0.105,2.049-0.184,4.294-0.237,6.735
		c0,0.026,0,0.054,0,0.079l-0.709-0.827c-0.945-1.129-1.891-2.232-2.836-3.309C141.468,73.547,138.501,70.672,135.429,68.125z
		 M103.523,79.351c-0.105-0.026-0.21-0.052-0.315-0.078c0.368-0.604,0.761-1.182,1.182-1.733c6.092,2.231,12.092,4.924,18,8.074
		c-0.236-0.105-0.459-0.196-0.669-0.275C115.313,82.817,109.248,80.821,103.523,79.351z M105.492,76.633
		c-0.105-0.053-0.21-0.092-0.315-0.118c2.258-2.731,5.055-4.977,8.39-6.736c0.656-0.341,1.339-0.656,2.048-0.944l-0.906,0.433
		c0.079,0.053,0.17,0.104,0.275,0.158h0.04c2.153,1.208,4.293,2.494,6.42,3.859c6.381,4.019,12.579,8.562,18.592,13.629
		c1.917,1.629,3.834,3.309,5.751,5.042c0.263,0.236,0.525,0.486,0.788,0.749l1.063,0.984c-0.026,2.573-0.026,5.067,0,7.484
		c-11.134-9.296-23.292-16.701-36.475-22.216C109.3,78.116,107.409,77.342,105.492,76.633z M99.15,99.637
		c-0.289-2.968-0.263-5.751,0.079-8.351c17.778,3.676,33.967,10.871,48.568,21.585v0.039c0.053,3.44,0.17,6.75,0.354,9.927
		c-14.443-9.27-30.383-15.007-47.819-17.214c-0.052-0.025-0.092-0.039-0.118-0.039l0.315,1.34c0.027,0,0.066,0.013,0.119,0.039
		c0.026,0,0.052,0,0.079,0c17.437,2.311,33.284,8.193,47.543,17.646v0.039c0.026,0.841,0.066,1.654,0.118,2.442
		c0.184,2.652,0.368,5.252,0.551,7.8c-13.708-10.084-29.004-17.069-45.889-20.955c-0.026-0.026-0.052-0.04-0.079-0.04l0.669,1.458
		h0.04c0.026,0.025,0.066,0.039,0.119,0.039c16.412,3.938,31.498,11.055,45.258,21.349v0.04c0.263,3.282,0.512,6.499,0.749,9.65
		c-4.727-3.756-9.322-6.973-13.786-9.65c-8.377-5.042-17.266-8.994-26.667-11.857c-0.026-0.025-0.053-0.039-0.079-0.039l1.339,1.772
		c0.026,0,0.052,0.014,0.079,0.04h0.039c13.682,4.49,26.326,11.37,37.932,20.64l1.3,1.024v0.04c0.079,0.762,0.158,1.535,0.237,2.324
		h-0.04c-10.189-7.222-21.139-12.763-32.851-16.623c-0.026-0.026-0.053-0.039-0.079-0.039
		C106.385,123.401,100.358,111.926,99.15,99.637z M99.229,91.049c0.447-3.676,1.444-7.037,2.994-10.083
		c0.183-0.289,0.354-0.591,0.512-0.906c8.377,2.022,17.003,5.055,25.879,9.1c0.866,0.525,1.733,1.076,2.6,1.653
		c5.462,3.44,10.806,7.367,16.032,11.778c0.052,0.026,0.092,0.065,0.118,0.118c0.052,0.026,0.092,0.053,0.118,0.078l0.158,0.119
		c0,2.81,0.026,5.541,0.079,8.192c-14.285-10.373-30.33-17.371-48.134-20.994c-0.053,0-0.118-0.014-0.197-0.04L99.229,91.049z
		 M60.233,142.493c-0.026-0.054-0.052-0.093-0.079-0.119l-0.669,0.71c0.026,0.052,0.053,0.104,0.079,0.156
		c3.178,6.303,7.051,12.605,11.62,18.906c0.079,0.08,0.145,0.158,0.197,0.237c-4.91-5.278-9.349-10.964-13.313-17.057
		c-0.052-0.052-0.079-0.092-0.079-0.118c-0.052-0.052-0.092-0.104-0.118-0.157c-0.341,0.396-0.604,0.788-0.788,1.182
		c0.026,0.026,0.053,0.065,0.079,0.118c0.893,1.365,1.825,2.705,2.796,4.019c6.355,8.98,13.786,17.016,22.295,24.105
		c2.915,2.416,5.948,4.728,9.099,6.933c0.473,0.29,0.933,0.591,1.379,0.905l0.984,0.553c-0.026,0-0.052,0.014-0.079,0.039
		c-2.967,0.734-5.593,1.392-7.878,1.97c-0.394-0.315-1.09-0.762-2.088-1.339c-4.727-2.891-8.875-5.646-12.447-8.271
		c-0.945-0.709-1.891-1.418-2.836-2.127c-2.81-2.207-5.515-4.492-8.114-6.854c-2.574-2.337-5.055-4.767-7.445-7.287
		c-0.184-0.21-0.368-0.406-0.552-0.591c0.105-0.577,0.21-1.168,0.315-1.772c2.889-12.578,11.252-20.521,25.091-23.83
		c2.18-0.525,4.373-0.88,6.579-1.063c0.026,0.078,0.052,0.157,0.079,0.236c1.602,4.517,3.466,8.85,5.593,12.998
		c6.224,12.421,14.574,23.136,25.052,32.142l1.222-0.275c-0.368,0.105-0.749,0.225-1.143,0.355c-2.967,0.84-6.184,1.732-9.65,2.678
		c-0.578,0.158-1.156,0.314-1.733,0.473c-0.683,0.186-1.379,0.368-2.088,0.553c-2.258,0.524-4.346,1.063-6.263,1.615h-0.04
		c-0.026-0.054-0.065-0.094-0.118-0.119c-0.341-0.34-0.984-0.826-1.93-1.457c-1.103-0.762-2.179-1.51-3.229-2.246
		c-3.151-2.311-6.066-4.596-8.745-6.854c-1.287-1.104-2.521-2.206-3.703-3.309c-0.499-0.42-0.972-0.854-1.418-1.301
		c-6.618-8.323-11.896-16.504-15.835-24.54C60.259,142.61,60.233,142.545,60.233,142.493z M53.064,173.848
		c-1.339-5.201-1.628-10.216-0.867-15.048l-0.118,1.144c0.053,0.078,0.118,0.156,0.197,0.234c0.21,0.211,0.434,0.436,0.67,0.672
		c0.656,0.682,1.339,1.377,2.048,2.086c4.333,4.334,8.928,8.364,13.786,12.094c0.709,0.525,1.418,1.051,2.127,1.576
		c3.545,2.625,7.667,5.369,12.368,8.231l0.788,0.474c-0.026,0-0.039,0.013-0.039,0.039c-3.545,0.893-6.145,1.563-7.799,2.008
		c-0.919,0.236-1.759,0.461-2.521,0.67h-0.039c-0.132-0.184-0.67-0.459-1.615-0.826c-2.495-0.999-4.897-2.102-7.208-3.309
		c-3.86-2.05-7.458-4.427-10.793-7.131c-0.078-0.078-0.157-0.145-0.236-0.197C53.55,175.646,53.301,174.739,53.064,173.848z
		 M117.23,134.063l1.182,1.103c0.026,0.025,0.066,0.065,0.118,0.118c0.184,0.184,0.381,0.368,0.591,0.552
		c0.053,0.052,0.118,0.104,0.197,0.157l0.237,0.236c10.556,3.834,20.391,8.968,29.502,15.401l1.3,0.827l0.079,4.059
		c-2.469-1.104-4.884-2.272-7.248-3.507c-7.09-3.781-13.734-8.259-19.932-13.432l-0.118-0.08c-0.026-0.052-0.065-0.091-0.118-0.117
		c-1.444-1.234-2.823-2.482-4.136-3.742C118.307,135.113,117.755,134.589,117.23,134.063z M104.35,134.535
		c0.841,1.444,1.733,2.876,2.679,4.294c6.066,9.532,13.379,17.896,21.94,25.091c1.576,1.313,3.204,2.602,4.885,3.86
		c0.551,0.421,1.116,0.827,1.693,1.222l0.946,0.709c-1.76,0.684-3.677,1.418-5.751,2.206c-0.867,0.367-1.786,0.735-2.757,1.103
		c-0.105,0.026-0.21,0.065-0.315,0.119l0.276-0.158l-1.654-1.338c-0.263-0.211-0.512-0.408-0.749-0.592
		c-0.761-0.605-1.51-1.208-2.245-1.813c-9.191-7.668-16.924-16.519-23.201-26.549c-2.179-3.44-4.175-7.012-5.987-10.714
		l-1.536-0.118c0.026,0.053,0.053,0.104,0.079,0.157c4.99,10.425,11.292,19.787,18.907,28.085c0.84,0.92,1.72,1.838,2.639,2.758
		c2.495,2.521,5.226,5.016,8.193,7.482c0.788,0.656,1.602,1.326,2.442,2.01c0.263,0.209,0.539,0.42,0.828,0.629l0.788,0.553
		c-0.026,0-0.04,0.014-0.04,0.039c-2.836,0.972-6.066,2.01-9.69,3.111l-0.827-0.787c-0.368-0.314-0.735-0.631-1.103-0.945
		c-1.628-1.418-3.19-2.875-4.687-4.372c-8.088-8.062-14.667-17.318-19.735-27.77c-1.759-3.545-3.335-7.248-4.727-11.107
		c2.81-0.185,5.633-0.093,8.469,0.275c10.058,1.261,20.312,5.843,30.764,13.747c0.473,0.367,0.945,0.735,1.418,1.104
		c1.182,0.892,2.324,1.798,3.427,2.717c4.438,3.703,8.351,7.55,11.738,11.541c1.103,1.313,2.153,2.652,3.151,4.018l0.906,0.592
		l-0.039,0.039l-2.127,0.985c-0.604,0.263-1.234,0.552-1.891,0.866c-0.341,0.157-0.696,0.314-1.063,0.473l1.024-0.512l-1.064-0.906
		c-0.604-0.498-1.208-0.998-1.812-1.496c-1.786-1.576-3.519-3.178-5.199-4.807c-4.464-4.411-8.561-9.178-12.29-14.298
		c-1.287-1.733-2.521-3.52-3.703-5.358l-0.04-0.039c-0.026-0.025-0.04-0.052-0.04-0.078l-2.442-1.418
		c0,0.026,0.013,0.053,0.04,0.078c4.228,6.933,9.072,13.327,14.535,19.183c0.551,0.578,1.129,1.156,1.733,1.732
		c1.523,1.523,3.177,3.101,4.963,4.728c0.84,0.762,1.733,1.536,2.679,2.323c0.289,0.264,0.591,0.525,0.906,0.789l0.315,0.235
		l-0.039,0.039c-0.631,0.237-1.287,0.524-1.97,0.867c-0.184,0.078-0.368,0.157-0.552,0.235l0.512-0.274
		c-0.105-0.104-0.223-0.211-0.354-0.315c-0.368-0.342-0.854-0.709-1.457-1.104c-0.289-0.21-0.591-0.42-0.906-0.63
		c-2.074-1.55-4.031-3.087-5.869-4.608c-1.444-1.208-2.81-2.416-4.096-3.624c-0.525-0.473-1.038-0.944-1.537-1.418
		c-6.696-6.513-12.5-13.878-17.41-22.098c0-0.026-0.013-0.053-0.039-0.078c0-0.026-0.013-0.054-0.04-0.08l-1.969-0.748
		C104.297,134.431,104.324,134.483,104.35,134.535z M192.426,136.584c0.078-0.157,0.157-0.315,0.236-0.473l-2.561,1.812
		c-0.105,0.184-0.211,0.368-0.314,0.552c-5.646,9.322-12.448,17.843-20.404,25.564l-1.064,1.063
		c-1.26-0.235-2.479-0.459-3.661-0.668c-0.105-0.026-0.226-0.054-0.355-0.078c6.197-8.877,13.537-16.742,22.021-23.596
		c14.758-11.896,29.306-17.161,43.644-15.796c2.941,0.289,5.659,0.827,8.153,1.615c-0.025,0.026-0.039,0.065-0.039,0.118
		c-7.09,16.885-17.24,31.368-30.448,43.448c-3.309-0.553-6.46-1.037-9.454-1.457c-0.131,0-0.248-0.016-0.354-0.041
		c11.764-12.314,20.43-26.837,25.996-43.564c0-0.026,0.014-0.053,0.039-0.078c0-0.054,0.014-0.105,0.041-0.158l-1.34,0.039
		c-0.026,0.054-0.039,0.119-0.039,0.197c-5.752,16.859-14.602,31.289-26.549,43.289c-0.841-0.104-1.654-0.21-2.443-0.314
		c-2.494-0.314-4.963-0.631-7.404-0.945c-0.131,0-0.264-0.014-0.395-0.039c12.526-11.527,22.309-25.13,29.346-40.808
		c0.027-0.026,0.04-0.065,0.04-0.117c0.026-0.054,0.052-0.105,0.079-0.158l-1.576,0.314c-0.025,0.079-0.066,0.158-0.118,0.237
		c-4.438,9.794-10.03,18.802-16.78,27.021c-3.676,4.465-7.916,8.901-12.723,13.313c-3.15-0.394-6.25-0.761-9.296-1.103
		c-0.157,0-0.302-0.014-0.435-0.039c4.596-3.912,8.653-7.813,12.172-11.699c6.408-7.168,11.922-15.007,16.545-23.516
		c0.024-0.053,0.052-0.092,0.078-0.118c0.053-0.104,0.104-0.21,0.158-0.314l-1.972,0.984c-0.052,0.104-0.104,0.197-0.156,0.275
		c-7.091,12.553-16.229,23.582-27.416,33.088l-1.26,1.104c-0.685-0.079-1.354-0.158-2.01-0.237c-0.132,0-0.263-0.013-0.394-0.039
		l0.038-0.039c3.571-3.467,6.696-6.801,9.375-10.006c4.884-5.776,9.19-11.948,12.921-18.513
		C192.373,136.649,192.398,136.61,192.426,136.584z M201.484,105.82c0,0.079-0.014,0.157-0.039,0.236
		c-0.342,2.311-0.854,4.596-1.535,6.854c-0.158,0.474-0.316,0.959-0.473,1.458c-1.104,3.229-2.588,6.407-4.451,9.532
		c-0.368,0.578-0.736,1.182-1.104,1.812c-1.681,2.574-3.598,5.121-5.751,7.642c-0.656,0.736-1.313,1.472-1.97,2.206
		c-1.916,2.022-3.991,4.031-6.224,6.026c-4.727,4.202-9.979,8.049-15.756,11.542l-7.17,3.979l-0.748,0.707l-0.591-2.322
		c-0.132-0.657-0.289-1.34-0.473-2.049l1.142-0.905c3.729-2.968,7.223-5.462,10.479-7.484c6.146-3.938,12.697-7.248,19.656-9.927
		l1.852-2.127c-11.975,4.28-23.03,10.491-33.167,18.632l-0.236,0.236c-0.157-0.683-0.313-1.392-0.473-2.127
		c0.446-0.315,1.038-0.814,1.772-1.497c4.229-3.912,8.402-7.287,12.525-10.123c7.747-5.304,16.163-9.559,25.249-12.762l1.063-1.772
		c-15.074,5.067-28.439,12.998-40.1,23.791l-0.827,0.827c-0.342-1.891-0.709-3.913-1.104-6.066
		c-0.156-0.919-0.313-1.903-0.473-2.954l1.694-1.339c13.288-11.476,28.349-19.394,45.181-23.753l0.473-1.457
		c-17.62,4.411-33.245,12.513-46.875,24.304l-0.668,0.631c-0.395-2.994-0.774-6.382-1.144-10.163l0.866-0.67
		c5.357-4.149,10.74-7.615,16.15-10.398C178.402,111.111,189.484,107.606,201.484,105.82z M149.294,95.422
		c0.315-0.237,0.866-0.813,1.654-1.733c9.401-10.268,19.655-18.842,30.763-25.722h0.04c0.026-0.026,0.054-0.053,0.079-0.078
		l-1.301-0.474c0.998,0.315,1.982,0.696,2.955,1.143c1.549,0.684,2.992,1.458,4.332,2.324c1.262,0.762,2.442,1.614,3.545,2.561
		c2.338,1.943,4.293,4.214,5.869,6.814c1.549,2.6,2.719,5.515,3.506,8.744c0.078,0.394,0.172,0.801,0.275,1.221
		c0.473,2.364,0.762,4.885,0.866,7.563c0.054,2.284-0.026,4.53-0.235,6.735c-19.224,2.704-36.017,9.69-50.379,20.955
		c-0.054,0.054-0.119,0.105-0.197,0.158c-0.264-3.047-0.5-6.354-0.709-9.926l0.985-0.867c14.338-12.421,30.842-20.706,49.514-24.854
		l-0.275-1.222c-18.96,4.176-35.674,12.486-50.143,24.934c-0.079,0.079-0.158,0.145-0.236,0.197
		c-0.026-0.683-0.066-1.405-0.118-2.167c-0.105-2.284-0.21-4.424-0.315-6.42c0.21-0.184,0.839-0.762,1.891-1.733
		c5.226-5.199,10.832-9.887,16.819-14.062c9.348-4.858,18.514-8.443,27.494-10.754l-0.632-0.827
		c-6.196,1.681-12.485,3.952-18.866,6.814c-0.763,0.315-1.523,0.656-2.285,1.024c6.119-3.782,12.645-7.038,19.576-9.77l-0.945-1.063
		c-10.135,4.069-19.576,9.335-28.32,15.795c-4.621,3.439-9.322,7.484-14.102,12.132l-0.709,0.748
		C149.53,100.543,149.399,97.812,149.294,95.422z M124.518,177.354c-0.053,0.104-0.092,0.209-0.118,0.313
		c-1.602,3.44-3.046,6.933-4.333,10.478c-4.359,12.316-6.722,25.146-7.09,38.484l1.299-0.984
		c0.394-10.767,2.154-21.283,5.279-31.551c0.604-1.97,1.287-3.953,2.048-5.949c1.313-3.648,2.849-7.418,4.608-11.305
		c3.44-0.892,6.579-1.746,9.415-2.561c-0.053,0.104-0.105,0.211-0.158,0.316c-2.416,4.778-4.412,9.295-5.987,13.549
		c-0.236,0.524-0.446,1.051-0.63,1.576c-3.23,9.19-5.371,18.696-6.421,28.519l1.497-1.654c1.182-9.743,3.532-19.224,7.051-28.44
		c1.654-4.385,3.558-8.705,5.711-12.957l0.748-1.459c0.788-0.235,1.55-0.445,2.285-0.629v0.039
		c-0.026,0.078-0.052,0.156-0.079,0.235c-2.127,4.858-3.926,9.782-5.396,14.771c-2.022,6.696-3.466,13.524-4.333,20.483
		c-1.813,2.757-3.703,5.304-5.672,7.642c-0.499,0.604-0.998,1.183-1.497,1.733c-1.182,1.286-2.376,2.508-3.584,3.663
		c-1.497,1.418-3.033,2.718-4.609,3.898c-0.446,0.315-0.879,0.631-1.3,0.945c-2.074,1.471-4.215,2.758-6.421,3.86
		c-0.183,0.078-0.354,0.157-0.512,0.235c-0.262,0.104-0.512,0.224-0.748,0.354c-1.943,0.841-3.9,1.563-5.87,2.167
		c-2.731,0.84-5.37,1.393-7.917,1.652c-0.079,0-0.158,0-0.236,0c0.079-16.096,3.151-31.644,9.217-46.637
		c0.735-1.759,1.497-3.506,2.284-5.238c3.44-0.813,6.709-1.603,9.809-2.363c-0.027,0.104-0.066,0.21-0.119,0.314
		c-0.945,2.39-1.799,4.818-2.561,7.287c-4.306,13.576-5.908,27.85-4.805,42.816l1.221-0.552
		c-0.946-14.652,0.735-28.741,5.042-42.267c0.893-2.729,1.865-5.408,2.915-8.033c0.814-0.237,1.628-0.475,2.442-0.711
		C119.594,178.691,122.102,178.009,124.518,177.354z M141.416,172.547l3.978-0.865c-0.026,0.077-0.039,0.17-0.039,0.274
		c-1.287,5.54-2.941,10.938-4.963,16.188c-1.838,4.728-3.991,9.336-6.46,13.826c-0.656,1.182-1.326,2.338-2.009,3.467
		c-0.105,0.184-0.223,0.367-0.354,0.551c0.893-5.908,2.258-11.855,4.096-17.844c1.418-4.754,3.138-9.479,5.161-14.181
		L141.416,172.547z M238.669,177.115l-0.235-0.275c2.205,0.29,3.979,0.539,5.316,0.749c0.92,0.157,1.629,0.288,2.127,0.394
		c-1.941-0.498-4.096-0.996-6.459-1.496c-0.132-0.053-0.275-0.092-0.434-0.117l0.983-0.514c5.987-3.229,11.371-6.933,16.15-11.106
		c-0.054,0.183-0.104,0.367-0.158,0.551c-1.442,4.832-3.703,9.44-6.774,13.826c0.867,3.021,1.432,6.026,1.693,9.021
		c0.079,1.498,0.092,3.008,0.04,4.529c0,0.053,0,0.105,0,0.157c-0.944-1.575-1.942-3.138-2.994-4.688
		C245.273,184.285,242.188,180.607,238.669,177.115z M229.295,174.279c-0.264-0.053-0.513-0.104-0.749-0.157
		c-0.132-0.052-0.263-0.091-0.394-0.117c10.977-8.01,20.627-16.858,28.951-26.549c0.025,0.131,0.053,0.262,0.078,0.394
		c0.813,4.384,0.695,9.033-0.354,13.944c-0.104,0.394-0.185,0.813-0.236,1.261v0.038c-3.204,2.812-6.604,5.397-10.202,7.761
		c-1.785,1.155-4.029,2.494-6.734,4.019c-0.998,0.446-1.551,0.787-1.654,1.022l-0.119,0.197l0.276,0.1
		c-0.122-0.039-0.239-0.061-0.354-0.061c-0.053-0.025-0.092-0.039-0.119-0.039v-0.039c-0.131-0.21-0.328-0.275-0.59-0.197v0.078
		C234.65,175.409,232.052,174.857,229.295,174.279z M205.977,172.311c0.762,0.104,1.535,0.197,2.323,0.275
		c6.958,0.945,15.585,2.182,25.88,3.703c0.944,0.105,1.812,0.236,2.6,0.395c0.025,0.053,0.064,0.117,0.117,0.196
		c0.185,0.235,0.553,0.616,1.104,1.144c3.229,3.229,6.092,6.604,8.586,10.121c1.576,2.153,2.968,4.373,4.177,6.657l0.157-1.97
		c-0.026,0.604-0.053,1.223-0.079,1.854c-0.078,0.943-0.197,1.916-0.354,2.914c-0.525,3.701-1.497,7.168-2.915,10.398
		c-0.054,0.104-0.104,0.223-0.157,0.354c-0.395,0.763-0.788,1.537-1.182,2.324c-0.053,0.053-0.092,0.104-0.119,0.157
		c-2.993-7.772-6.723-15.336-11.188-22.688c-2.494-4.148-5.238-8.231-8.23-12.25l-0.434-0.552l-0.039-0.04l-0.119-0.156
		l-1.693-0.197l1.457,2.049c2.941,3.939,5.477,7.654,7.604,11.146c0.287,0.395,0.551,0.801,0.787,1.222
		c4.359,7.247,8.035,14.851,11.029,22.807c-0.316,0.525-0.645,1.024-0.984,1.497c-0.474,0.709-0.986,1.379-1.537,2.01
		c-1.916,2.389-4.018,4.385-6.303,5.986c-0.395,0.264-0.787,0.525-1.182,0.788c-0.734,0.446-1.483,0.866-2.245,1.26
		c-0.288,0.132-0.577,0.263-0.866,0.396c-3.23,1.471-6.789,2.324-10.675,2.56c-0.446,0.026-0.894,0.04-1.339,0.04
		c-1.104,0.025-2.219,0-3.35-0.079c-1.574-0.104-3.15-0.274-4.727-0.512c-0.604-0.104-1.193-0.21-1.771-0.315
		c-1.576-0.289-3.1-0.656-4.569-1.103c-0.079-0.026-0.157-0.054-0.236-0.079c0.656-12.814-0.735-24.973-4.175-36.477
		c-1.76-5.908-4.045-11.646-6.854-17.213c3.045,0.315,6.342,0.695,9.887,1.144l0.63,1.143c2.812,4.831,5.253,9.808,7.327,14.929
		c4.728,12.027,7.261,24.854,7.603,38.483l1.339-0.039c-0.367-13.522-2.889-26.339-7.563-38.444
		c-2.049-5.356-4.53-10.568-7.444-15.638c-0.053-0.053-0.093-0.104-0.119-0.157L205.977,172.311z M251.471,135.284l-0.826-0.985
		c0.078,0.079,0.156,0.158,0.235,0.236c0.263,0.315,0.538,0.645,0.827,0.985c2.152,2.679,3.742,5.79,4.766,9.336
		c0.105,0.367,0.211,0.747,0.316,1.142c-8.324,9.795-18.027,18.736-29.109,26.825l-1.222,0.866c-2.337-0.5-4.622-0.959-6.854-1.379
		c-0.131-0.026-0.263-0.054-0.394-0.078C232.078,161.754,242.831,149.438,251.471,135.284z M239.26,127.131l0.039-0.04
		c0-0.026,0-0.053,0-0.079l-1.182-0.433c3.624,1.129,6.814,2.783,9.572,4.963c0.078,0.053,0.156,0.118,0.235,0.197
		c0.078,0.078,0.171,0.157,0.275,0.236c0.446,0.367,0.866,0.748,1.261,1.142c0.42,0.368,0.813,0.762,1.182,1.182
		c-3.021,4.964-6.209,9.586-9.57,13.865c-0.604,0.762-1.209,1.511-1.813,2.246c3.729-5.673,7.013-11.528,9.849-17.568l-0.67-0.631
		c-3.545,7.695-8.166,15.586-13.865,23.674c-4.832,5.357-10.426,10.609-16.779,15.758l-0.314,0.274
		c-2.652-0.474-5.201-0.92-7.643-1.34c-0.131-0.026-0.263-0.052-0.395-0.078C222.336,158.366,232.275,143.91,239.26,127.131z
		 M182.973,170.734l-0.473-0.826c2.992,0.184,6.381,0.459,10.162,0.826l0.512,0.945c2.705,5.33,4.924,10.819,6.657,16.465
		c3.519,11.396,5.003,23.397,4.45,36.002l0.709,0.256c-0.16-0.053-0.318-0.098-0.473-0.137c-2.181-0.763-4.318-1.682-6.42-2.758
		c-0.08-0.025-0.158-0.064-0.236-0.119c-0.578-11.658-2.797-22.74-6.657-33.244C188.973,182.158,186.229,176.354,182.973,170.734z
		 M164.301,169.75c0.631-0.025,1.313-0.039,2.049-0.039l0.67,1.3c2.231,4.229,4.043,8.128,5.437,11.699
		c0.683,1.759,1.353,3.571,2.009,5.435c1.682,5.043,2.979,10.269,3.898,15.679c0,0.026,0,0.053,0,0.077l1.773,2.246
		c0-0.053,0-0.092,0-0.117c-0.973-6.146-2.404-12.105-4.295-17.885c-1.994-6.195-4.556-12.235-7.681-18.119l-0.157-0.313
		c0.656-0.053,1.379-0.079,2.166-0.079c0.027,0.053,0.053,0.118,0.079,0.196c0.185,0.368,0.538,0.985,1.063,1.853
		c3.309,5.305,6.119,10.793,8.43,16.465c3.23,7.957,5.488,16.28,6.775,24.974l0.433,0.394c0.053,0.055,0.118,0.105,0.196,0.158
		c0.158,0.133,0.315,0.275,0.474,0.434l0.473,0.395c-1.233-9.218-3.506-18.001-6.815-26.354c-2.44-6.09-5.422-11.961-8.939-17.605
		l-0.552-0.906c1.892,0,3.913,0.026,6.065,0.079c0.945,0.026,1.957,0.054,3.033,0.078c0.025,0.054,0.053,0.119,0.078,0.197
		c0.158,0.394,0.486,0.959,0.984,1.694c3.178,5.725,5.752,11.213,7.721,16.463c0.053,0.08,0.105,0.172,0.158,0.276
		c3.781,10.241,6,20.97,6.656,32.183l1.379,0.787c-0.396-0.211-0.775-0.406-1.144-0.592c-1.864-1.05-3.688-2.244-5.475-3.584
		c-0.315-0.236-0.632-0.473-0.945-0.709c-0.944-0.762-1.864-1.55-2.758-2.363c-0.263-0.263-0.524-0.512-0.787-0.748
		c-0.342-0.314-0.685-0.631-1.024-0.944c-1.916-1.865-3.756-3.9-5.515-6.104c-1.575-1.943-3.101-4.046-4.569-6.304
		c-0.787-1.233-1.563-2.508-2.322-3.821c-1.576-2.572-3.021-5.265-4.334-8.074c-1.471-3.071-2.811-6.25-4.018-9.531l-2.521-7.84
		l-0.551-0.904c0.684-0.055,1.287-0.08,1.813-0.08L164.301,169.75z M262.814,218.003v0.157c-0.342-0.262-0.683-0.525-1.023-0.787
		C262.133,217.583,262.475,217.793,262.814,218.003z M101.396,183.301c-0.052,0.104-0.092,0.196-0.118,0.275
		c-0.683,1.523-1.339,3.046-1.969,4.568c-6.014,14.838-9.034,30.41-9.06,46.717l0.749-0.039c-0.171,0.014-0.342,0.025-0.513,0.039
		c-3.387,0.184-6.604-0.17-9.65-1.063c-0.236-0.078-0.486-0.157-0.748-0.235c-0.079-0.026-0.158-0.053-0.237-0.078
		c0.368-8.563,1.642-17.608,3.821-27.141c2.075-5.83,4.767-11.896,8.075-18.199c0.42-0.918,0.88-1.824,1.378-2.717l0.276-0.395
		C96.157,184.456,98.822,183.878,101.396,183.301z M91.509,185.664c-0.446,0.787-0.867,1.613-1.26,2.48
		c-7.222,13.787-12.027,28.348-14.417,43.684c-1.182-0.63-2.312-1.339-3.388-2.127c-0.368-0.289-0.722-0.577-1.063-0.866
		c-0.341-0.289-0.656-0.563-0.945-0.827c-0.998-0.945-1.943-1.97-2.836-3.072c-3.387-4.307-5.659-9.492-6.814-15.56
		c-0.079-0.42-0.145-0.84-0.197-1.26c2.836-5.909,6.552-11.687,11.147-17.332c0.683-0.841,1.063-1.378,1.142-1.614v-0.275
		l-1.142,0.235l-0.67,0.827c-4.149,4.988-7.668,10.333-10.556,16.031c-0.079,0.132-0.145,0.25-0.197,0.354
		c-0.552-5.174-0.236-10.478,0.946-15.913c-0.578-0.763-1.129-1.523-1.655-2.285c-2.153-3.099-3.874-6.354-5.16-9.769
		c4.884,3.781,10.543,7.037,16.977,9.769c0.105,0.054,0.223,0.092,0.354,0.119l0.354,0.156c-0.053,0-0.092,0.014-0.118,0.039
		c-2.573,0.684-4.595,1.195-6.066,1.537l-1.852,0.354l17.489-2.994c0.368-0.078,0.735-0.156,1.103-0.235
		c-0.079,0.104-0.145,0.21-0.197,0.315c-0.157,0.209-0.302,0.445-0.433,0.707c-6.722,11.213-12.04,22.717-15.953,34.508
		c-0.026,0.024-0.04,0.052-0.04,0.078l0.827,1.182l0.04-0.039c2.521-7.852,5.646-15.48,9.375-22.887
		c1.996-3.938,4.412-8.219,7.248-12.842v-0.117l0.788-1.182c2.495-0.5,4.937-0.998,7.326-1.496
		C91.614,185.454,91.561,185.559,91.509,185.664z"/>
	<path fill="#1C92C1" d="M102.538,78.169c-3.834,5.908-5.344,13.063-4.53,21.468c1.497,14.574,9.559,28.019,24.185,40.335
		c4.989,4.175,10.517,8.036,16.583,11.581c3.729,2.127,7.234,3.952,10.517,5.475c0.078,2.312,0.289,4.426,0.63,6.343
		c-1.366,0.368-2.783,0.774-4.254,1.221l-0.473-0.394c-1.208-1.575-2.98-3.639-5.318-6.186c-4.622-5.066-9.479-9.506-14.574-13.313
		c-7.773-5.882-15.533-9.939-23.279-12.171c-8.429-2.469-16.623-2.745-24.579-0.827c-8.246,1.916-14.692,5.711-19.34,11.384
		c-4.333,5.277-6.723,11.58-7.169,18.906c-0.289,5.095,0.446,10.216,2.206,15.362c1.261,3.808,3.02,7.404,5.278,10.791
		c0.551,0.842,1.156,1.694,1.812,2.562c-1.077,5.2-1.353,10.36-0.827,15.479c0.578,5.438,2.074,10.36,4.49,14.771
		c3.414,6.328,8.127,10.688,14.141,13.077c6.565,2.679,13.865,2.757,21.9,0.237c0.946-0.316,1.877-0.631,2.797-0.946
		c7.51-2.837,14.298-7.523,20.365-14.063c4.254-4.621,8.127-10.162,11.62-16.621c2.442-4.438,4.661-9.271,6.656-14.496
		c0.499-1.313,0.998-2.679,1.497-4.097c1.392-4.149,2.468-7.944,3.23-11.384c3.046-0.762,5.514-1.551,7.405-2.363
		c0.185-0.525,0.343-0.998,0.474-1.418c0.053-0.289,0.104-0.564,0.158-0.826c0,0.053,0.014,0.104,0.039,0.156
		c0.288,0.842,0.762,1.471,1.418,1.891c2.074,0.342,3.965,0.592,5.672,0.75l0.354,0.551c0.524,1.996,1.364,4.582,2.521,7.76
		c1.131,3.1,2.377,6.093,3.741,8.98c1.445,3.072,3.009,6.015,4.688,8.823c0.656,1.13,1.339,2.205,2.048,3.229
		c1.394,2.205,2.875,4.308,4.45,6.303c1.603,1.996,3.257,3.886,4.964,5.672c1.522,1.551,3.112,3.007,4.767,4.373
		c0.211,0.184,0.434,0.367,0.67,0.551c6.827,5.488,14.299,8.877,22.412,10.163c0.186,0.052,0.407,0.093,0.67,0.118
		c1.891,0.264,3.742,0.407,5.555,0.434c5.883,0.104,11.213-1.129,15.992-3.703c3.756-2.021,6.944-4.674,9.571-7.957
		c1.155-1.443,2.22-3.021,3.188-4.727c0.343-0.631,0.685-1.326,1.025-2.088c0.104-0.236,0.209-0.459,0.314-0.669
		c0.053-0.132,0.131-0.265,0.236-0.396c1.891-4.332,2.994-9.006,3.309-14.022c0.132-2.048,0.132-4.082,0-6.104
		c-0.209-2.968-0.709-5.922-1.496-8.863c2.967-4.41,5.186-9.086,6.656-14.021c1.522-5.252,2.035-10.373,1.537-15.362
		c-0.736-7.011-3.44-12.841-8.115-17.489c-4.963-4.857-11.698-7.72-20.207-8.586c-14.6-1.313-29.318,4.017-44.156,15.992
		c-5.016,4.043-9.886,8.744-14.613,14.102c-2.889,3.308-5.344,6.405-7.365,9.296c-2.469-0.368-4.582-0.564-6.342-0.591
		c-0.078-1.576-0.184-3.034-0.314-4.372l0.513-0.475c1.863-0.918,4.24-2.244,7.129-3.979c5.673-3.413,10.951-7.3,15.835-11.659
		c7.273-6.46,12.803-13.274,16.584-20.443c4.043-7.746,5.934-15.717,5.672-23.909c-0.289-8.455-2.771-15.532-7.444-21.231
		c-4.308-5.304-9.991-8.875-17.056-10.714c-4.963-1.313-10.138-1.615-15.521-0.906c-5.067,0.631-9.899,2.074-14.496,4.333
		c-4.885-2.101-9.874-3.374-14.968-3.821c-5.515-0.498-10.648-0.025-15.401,1.419C111.427,68.938,106.214,72.707,102.538,78.169z
		 M52.552,40.63c27.573-24.894,60.306-37.341,98.199-37.341c37.894,0,70.626,12.447,98.199,37.341
		c2.101,1.892,4.175,3.86,6.224,5.909c28.833,28.833,43.25,63.641,43.25,104.423c0,40.781-14.417,75.588-43.25,104.422
		c-28.834,28.833-63.641,43.249-104.423,43.249s-75.589-14.416-104.422-43.249c-3.151-3.151-6.131-6.368-8.941-9.649
		C14.516,218.87,3.079,187.279,3.079,150.963c0-36.318,11.437-67.896,34.309-94.732c2.81-3.31,5.791-6.54,8.941-9.69
		C48.377,44.49,50.452,42.521,52.552,40.63z M262.814,218.003c-0.342-0.21-0.683-0.42-1.023-0.63
		c0.342,0.262,0.684,0.525,1.023,0.787V218.003z"/>
</g>
</svg>
