<?xml version="1.0" encoding="utf-8"?>
<!-- Generator: Adobe Illustrator 16.0.0, SVG Export Plug-In . SVG Version: 6.00 Build 0)  -->
<!DOCTYPE svg PUBLIC "-//W3C//DTD SVG 1.1//EN" "http://www.w3.org/Graphics/SVG/1.1/DTD/svg11.dtd">
<svg version="1.1" id="Layer_1" xmlns="http://www.w3.org/2000/svg" xmlns:xlink="http://www.w3.org/1999/xlink" x="0px" y="0px"
	 width="300px" height="300px" viewBox="0 0 300 300" enable-background="new 0 0 300 300" xml:space="preserve">
<g>
	<path fill="#EFEEEE" d="M144.126,159.205c-7.844,17.555-14.404,30.49-19.681,38.807c-8.562,13.635-15.472,18.541-20.728,14.723
		c-4.62-3.366-1.899-11.313,8.162-23.838c7.125-8.891,17.216-19.271,30.275-31.139C142.791,158.293,143.448,158.775,144.126,159.205
		z M138.859,153.908c0.472,0.779,1.027,1.52,1.664,2.217c-12.545,14.742-22.597,25.307-30.152,31.693
		c-12.258,10.41-20.574,12.617-24.947,6.621c-3.84-5.277,1.006-12.269,14.537-20.976
		C109.528,167.285,122.495,160.766,138.859,153.908z M155.922,160.961c0.738-0.164,1.469-0.4,2.188-0.709
		c9.32,16.734,15.789,29.691,19.402,38.869c5.914,14.969,5.986,23.387,0.217,25.256c-5.053,1.643-9.723-5.289-14.015-20.789
		C160.695,192.623,158.098,178.414,155.922,160.961z M163.93,155.971c0.555-0.635,1.047-1.303,1.479-2.002
		c17.575,7.844,30.521,14.385,38.837,19.619c13.634,8.584,18.521,15.514,14.66,20.791c-3.389,4.66-11.344,1.959-23.869-8.102
		C186.166,179.133,175.798,169.031,163.93,155.971z M160.111,159.236c0.779-0.473,1.52-1.027,2.217-1.662
		c14.763,12.605,25.337,22.656,31.723,30.152c10.41,12.299,12.607,20.623,6.592,24.977c-5.276,3.82-12.279-1.027-21.006-14.537
		C173.436,188.578,166.928,175.602,160.111,159.236z M147.144,178.301c1.006-5.297,2.218-10.955,3.633-16.971
		c0.453,0.041,0.914,0.063,1.387,0.063s0.936-0.021,1.387-0.063c4.537,18.871,7.176,33.223,7.914,43.059
		c1.212,16.035-1.889,24.053-9.301,24.053c-6.529,0-9.353-8.018-8.47-24.053c0.083-1.561,0.206-3.184,0.37-4.867
		c-0.35,1.726-0.708,3.349-1.078,4.867c-3.819,15.625-9.26,22.297-16.324,20.019c-6.201-2.013-6.396-10.513-0.585-25.5
		c4.106-10.638,10.769-23.541,19.989-38.716c0.862,0.369,1.745,0.656,2.648,0.861C148.243,167.316,147.719,173.064,147.144,178.301z
		 M167.594,145.961c0-0.431-0.01-0.841-0.029-1.231c18.808-3.717,33.129-5.883,42.965-6.499c16.076-1.006,24.115,1.54,24.115,7.639
		c0,5.38-8.039,7.688-24.115,6.929c-11.396-0.492-25.719-2.422-42.965-5.79C167.584,146.66,167.594,146.311,167.594,145.961z
		 M166.393,152.061c0.371-0.862,0.658-1.754,0.863-2.679c19.301,1.498,33.734,3.429,43.303,5.789
		c15.646,3.8,22.33,9.229,20.051,16.293c-2.012,6.201-10.522,6.396-25.531,0.586C194.441,167.922,181.547,161.26,166.393,152.061z
		 M167.256,142.512c-0.205-0.924-0.492-1.817-0.863-2.679c16.469-10.123,29.271-17.053,38.407-20.79
		c14.907-6.098,23.511-5.615,25.81,1.448c2.014,6.18-4.754,11.334-20.297,15.46C199.287,138.868,184.936,141.054,167.256,142.512z
		 M162.328,134.32c-0.697-0.615-1.428-1.16-2.188-1.633c8.151-16.795,14.916-29.228,20.297-37.297
		c8.912-13.388,15.83-18.212,20.758-14.476c4.354,3.285,1.365,11.098-8.963,23.438C185.109,112.935,175.141,122.924,162.328,134.32z
		 M143.879,132.904c-0.595,0.39-1.181,0.831-1.755,1.323c-13.942-13.182-24.034-23.571-30.276-31.168
		c-10.205-12.442-12.956-20.358-8.254-23.746c4.127-3.019,10.625,2.177,19.496,15.584
		C129.414,104.424,136.344,117.093,143.879,132.904z M136.734,144.883c-0.021,0.35-0.031,0.709-0.031,1.078
		c0,0.432,0.01,0.853,0.031,1.264c-18.809,3.777-33.13,5.974-42.965,6.591c-16.077,1.024-24.116-1.562-24.116-7.762
		c0-5.462,8.039-7.823,24.116-7.084C105.145,139.484,119.466,141.455,136.734,144.883z M137.165,149.874
		c0.165,0.678,0.39,1.345,0.678,2.001c-16.878,9.035-29.885,15.328-39.022,18.881c-14.988,5.83-23.345,6.098-25.07,0.801
		c-1.519-4.662,5.462-9.147,20.943-13.461C105.658,155.037,119.815,152.297,137.165,149.874z M123.151,131.301
		c4.661,2.547,9.579,5.4,14.753,8.563c-0.349,0.842-0.626,1.735-0.832,2.68c-19.28-1.499-33.725-3.419-43.334-5.76
		c-15.646-3.819-22.33-9.25-20.05-16.292c2.033-6.222,10.554-6.438,25.563-0.647c1.478,0.575,2.998,1.19,4.558,1.849
		c-1.582-0.863-3.029-1.704-4.343-2.526c-13.716-8.459-18.397-15.696-14.044-21.713c3.819-5.277,11.971-2.834,24.455,7.33
		c8.85,7.207,19.064,17.556,30.645,31.046c-0.637,0.697-1.191,1.437-1.664,2.217C133.13,135.686,127.895,133.437,123.151,131.301z
		 M195.223,105.862c12.461-10.164,20.326-12.986,23.592-8.47c2.896,3.963-2.353,10.399-15.738,19.311
		c-9.486,6.304-22.114,13.285-37.883,20.943c-0.37-0.596-0.791-1.16-1.264-1.694C177.152,122.134,187.583,112.103,195.223,105.862z
		 M126.663,67.548c6.201-2.033,11.365,4.722,15.492,20.266c0.41,1.561,0.811,3.192,1.201,4.896c-0.206-1.827-0.37-3.542-0.493-5.144
		c-1.211-16.057,1.889-24.084,9.301-24.084c6.509,0,9.332,8.028,8.47,24.084c-0.103,1.602-0.226,3.275-0.368,5.021
		c0.348-1.807,0.707-3.49,1.077-5.051c3.818-15.646,9.261-22.309,16.323-19.989c6.18,1.992,6.385,10.492,0.616,25.501
		c-4.148,10.636-10.821,23.53-20.021,38.684c-0.861-0.369-1.756-0.657-2.68-0.862c0.493-6.222,1.025-11.95,1.602-17.186
		c-1.007,5.276-2.218,10.902-3.634,16.877c-0.452-0.041-0.913-0.062-1.387-0.062s-0.935,0.021-1.386,0.062
		c-1.5-6.139-2.782-11.806-3.851-17.001c0.677,5.359,1.272,11.129,1.786,17.31c-0.924,0.205-1.817,0.493-2.68,0.862
		c-10.123-16.487-17.042-29.3-20.758-38.438C119.158,78.389,119.62,69.807,126.663,67.548z"/>
	<path fill="#FFCD05" d="M140.522,135.83c0.226-0.268,0.462-0.534,0.708-0.802c0.308-0.287,0.606-0.554,0.894-0.801
		c0.575-0.492,1.16-0.934,1.755-1.323c0.698-0.474,1.417-0.863,2.156-1.171c0.863-0.369,1.756-0.657,2.68-0.862
		c0.657-0.144,1.345-0.246,2.063-0.309c0.453-0.041,0.914-0.062,1.387-0.062s0.936,0.021,1.387,0.062
		c0.697,0.063,1.375,0.165,2.032,0.309c0.924,0.205,1.817,0.493,2.681,0.862c0.635,0.267,1.262,0.585,1.877,0.954
		c0.76,0.473,1.49,1.018,2.188,1.633c0.246,0.226,0.491,0.462,0.739,0.708c0.308,0.309,0.595,0.616,0.861,0.924
		c0.473,0.534,0.894,1.099,1.264,1.694c0.472,0.698,0.871,1.428,1.199,2.188c0.371,0.861,0.658,1.755,0.863,2.679
		c0.145,0.719,0.246,1.458,0.309,2.218c0.021,0.391,0.029,0.801,0.029,1.231c0,0.35-0.01,0.698-0.029,1.048
		c-0.041,0.821-0.145,1.612-0.309,2.372c-0.205,0.924-0.492,1.816-0.863,2.679c-0.267,0.656-0.595,1.293-0.983,1.908
		c-0.433,0.699-0.925,1.367-1.479,2.002c-0.268,0.309-0.555,0.617-0.861,0.924c-0.248,0.228-0.493,0.453-0.739,0.681
		c-0.697,0.635-1.438,1.188-2.218,1.661c-0.657,0.392-1.324,0.729-2.002,1.017c-0.719,0.31-1.448,0.545-2.188,0.709
		c-0.76,0.187-1.551,0.31-2.371,0.369c-0.451,0.041-0.914,0.063-1.387,0.063s-0.934-0.021-1.387-0.063
		c-0.697-0.062-1.385-0.154-2.063-0.276c-0.903-0.205-1.786-0.492-2.648-0.861c-0.678-0.287-1.325-0.615-1.94-0.986
		c-0.678-0.43-1.335-0.912-1.971-1.447c-0.308-0.268-0.616-0.555-0.924-0.863c-0.226-0.246-0.462-0.502-0.708-0.77
		c-0.637-0.697-1.191-1.438-1.664-2.217c-0.41-0.656-0.749-1.334-1.016-2.033c-0.288-0.656-0.513-1.324-0.678-2.001
		c-0.206-0.862-0.349-1.745-0.431-2.648c-0.021-0.411-0.031-0.832-0.031-1.264c0-0.369,0.01-0.729,0.031-1.078
		c0.061-0.82,0.174-1.601,0.338-2.34c0.206-0.944,0.482-1.838,0.832-2.68c0.267-0.616,0.585-1.222,0.955-1.817
		C139.331,137.266,139.886,136.527,140.522,135.83z"/>
	<path fill="#212121" d="M79.263,54.027c22.073-19.424,48.159-29.136,78.26-29.136c30.101,0,56.197,9.712,78.291,29.136
		c2.113,1.868,4.188,3.819,6.222,5.852c23.323,23.346,34.987,51.517,34.987,84.513c0,32.997-11.664,61.156-34.987,84.482
		c-23.347,23.347-51.517,35.019-84.513,35.019c-32.997,0-61.167-11.672-84.514-35.019c-23.325-23.326-34.987-51.485-34.987-84.482
		c0-32.996,11.663-61.167,34.987-84.513C75.043,57.846,77.127,55.895,79.263,54.027z M126.663,67.548
		c-7.042,2.259-7.504,10.841-1.386,25.748c3.716,9.138,10.636,21.95,20.758,38.438c-0.739,0.308-1.458,0.697-2.156,1.171
		c-7.536-15.811-14.465-28.479-20.79-38.007c-8.87-13.407-15.368-18.603-19.496-15.584c-4.702,3.388-1.951,11.304,8.254,23.746
		c6.242,7.597,16.334,17.986,30.276,31.168c-0.288,0.247-0.585,0.514-0.894,0.801c-0.246,0.268-0.482,0.534-0.708,0.802
		c-11.581-13.49-21.795-23.839-30.645-31.046c-12.484-10.164-20.635-12.607-24.455-7.33c-4.353,6.017,0.329,13.254,14.044,21.713
		c1.314,0.822,2.761,1.663,4.343,2.526c-1.561-0.658-3.08-1.273-4.558-1.849c-15.01-5.79-23.531-5.574-25.563,0.647
		c-2.279,7.042,4.404,12.473,20.05,16.292c9.609,2.341,24.054,4.261,43.334,5.76c-0.164,0.739-0.277,1.52-0.338,2.34
		c-17.269-3.429-31.59-5.399-42.965-5.913c-16.077-0.739-24.116,1.622-24.116,7.084c0,6.202,8.039,8.788,24.116,7.761
		c9.835-0.616,24.156-2.813,42.965-6.59c0.082,0.903,0.225,1.786,0.431,2.648c-17.35,2.423-31.507,5.164-42.472,8.222
		c-15.481,4.313-22.462,8.799-20.943,13.461c1.725,5.297,10.082,5.029,25.07-0.801c9.137-3.553,22.145-9.846,39.022-18.881
		c0.267,0.699,0.606,1.377,1.016,2.033c-16.364,6.857-29.331,13.377-38.899,19.557c-13.531,8.707-18.377,15.697-14.537,20.975
		c4.374,5.996,12.689,3.789,24.947-6.621c7.556-6.387,17.607-16.95,30.152-31.692c0.246,0.269,0.482,0.522,0.708,0.771
		c0.308,0.309,0.616,0.596,0.924,0.862c-13.059,11.867-23.151,22.248-30.275,31.14c-10.061,12.522-12.782,20.471-8.162,23.838
		c5.256,3.818,12.166-1.088,20.728-14.723c5.277-8.316,11.837-21.253,19.681-38.808c0.616,0.371,1.263,0.698,1.94,0.985
		c-9.22,15.175-15.882,28.078-19.989,38.716c-5.811,14.987-5.616,23.487,0.585,25.5c7.063,2.278,12.504-4.394,16.324-20.019
		c0.37-1.52,0.729-3.143,1.078-4.867c-0.165,1.685-0.288,3.308-0.37,4.867c-0.883,16.035,1.94,24.053,8.47,24.053
		c7.412,0,10.513-8.018,9.301-24.053c-0.738-9.836-3.377-24.188-7.914-43.059c0.82-0.061,1.611-0.184,2.371-0.369
		c2.176,17.453,4.773,31.662,7.792,42.627c4.292,15.5,8.962,22.432,14.015,20.789c5.771-1.869,5.697-10.287-0.217-25.256
		c-3.613-9.178-10.082-22.135-19.402-38.869c0.678-0.287,1.345-0.625,2.002-1.016c6.816,16.365,13.324,29.342,19.525,38.93
		c8.727,13.51,15.729,18.357,21.006,14.537c6.017-4.354,3.818-12.678-6.592-24.977c-6.386-7.496-16.96-17.547-31.723-30.152
		c0.246-0.227,0.492-0.453,0.738-0.68c0.309-0.308,0.596-0.615,0.862-0.925c11.868,13.062,22.236,23.162,31.106,30.308
		c12.525,10.061,20.48,12.762,23.869,8.102c3.859-5.277-1.026-12.207-14.66-20.791c-8.315-5.234-21.262-11.775-38.838-19.619
		c0.391-0.615,0.719-1.252,0.984-1.908c15.154,9.199,28.049,15.861,38.686,19.988c15.009,5.811,23.521,5.615,25.531-0.586
		c2.279-7.063-4.403-12.494-20.051-16.293c-9.568-2.359-24.002-4.291-43.303-5.789c0.164-0.76,0.268-1.551,0.309-2.372
		c17.246,3.367,31.568,5.298,42.965,5.79c16.076,0.76,24.115-1.549,24.115-6.929c0-6.099-8.039-8.645-24.115-7.639
		c-9.836,0.616-24.157,2.782-42.965,6.499c-0.063-0.76-0.164-1.499-0.309-2.218c17.68-1.458,32.031-3.645,43.057-6.561
		c15.543-4.126,22.311-9.28,20.297-15.46c-2.299-7.063-10.901-7.546-25.81-1.448c-9.137,3.737-21.938,10.667-38.407,20.79
		c-0.328-0.76-0.729-1.489-1.199-2.188c15.769-7.658,28.396-14.64,37.883-20.943c13.387-8.911,18.634-15.348,15.738-19.311
		c-3.266-4.517-11.131-1.694-23.593,8.47c-7.639,6.241-18.069,16.272-31.292,30.09c-0.268-0.308-0.555-0.615-0.861-0.924
		c-0.248-0.246-0.494-0.482-0.739-0.708c12.813-11.396,22.78-21.385,29.905-29.968c10.328-12.34,13.314-20.152,8.961-23.438
		c-4.928-3.736-11.846,1.088-20.758,14.476c-5.379,8.069-12.145,20.502-20.297,37.297c-0.615-0.369-1.242-0.688-1.878-0.954
		c9.198-15.153,15.871-28.048,20.021-38.684c5.769-15.01,5.563-23.51-0.616-25.501c-7.063-2.32-12.505,4.342-16.323,19.989
		c-0.369,1.561-0.729,3.244-1.078,5.051c0.145-1.745,0.268-3.419,0.369-5.021c0.862-16.057-1.961-24.084-8.47-24.084
		c-7.412,0-10.512,8.028-9.301,24.084c0.124,1.602,0.288,3.316,0.493,5.144c-0.391-1.704-0.791-3.336-1.201-4.896
		C138.027,72.27,132.863,65.515,126.663,67.548z M123.151,131.301c4.743,2.136,9.979,4.385,15.708,6.745
		c-0.37,0.596-0.688,1.201-0.955,1.817C132.73,136.702,127.813,133.848,123.151,131.301z M153.551,130.562
		c1.416-5.975,2.627-11.601,3.635-16.877c-0.576,5.235-1.108,10.964-1.603,17.186C154.926,130.727,154.248,130.625,153.551,130.562z
		 M148.715,130.871c-0.514-6.181-1.109-11.95-1.786-17.31c1.067,5.195,2.351,10.862,3.85,17.001
		C150.06,130.625,149.372,130.727,148.715,130.871z M147.144,178.301c0.575-5.236,1.099-10.984,1.571-17.248
		c0.678,0.123,1.365,0.217,2.063,0.277C149.362,167.346,148.15,173.004,147.144,178.301z"/>
</g>
</svg>
