<?xml version="1.0" encoding="utf-8"?>
<!-- Generator: Adobe Illustrator 16.0.0, SVG Export Plug-In . SVG Version: 6.00 Build 0)  -->
<!DOCTYPE svg PUBLIC "-//W3C//DTD SVG 1.1//EN" "http://www.w3.org/Graphics/SVG/1.1/DTD/svg11.dtd">
<svg version="1.1" id="Layer_1" xmlns="http://www.w3.org/2000/svg" xmlns:xlink="http://www.w3.org/1999/xlink" x="0px" y="0px"
	 width="300px" height="300px" viewBox="0 0 300 300" enable-background="new 0 0 300 300" xml:space="preserve">
<g>
	<path fill-rule="evenodd" clip-rule="evenodd" fill="#FF872E" d="M237.326,206.475c0.393-1.908,1.293-4.28,2.702-7.116
		c1.962-3.923,2.942-6.865,2.942-8.827c0-3.336-0.525-5.993-1.578-7.973c-0.588-1.088-1.811-2.541-3.665-4.36
		s-3.228-3.585-4.12-5.297c-0.498-0.963-0.945-2.024-1.337-3.184c-0.125-0.339-0.231-0.695-0.321-1.07
		c-0.57-1.907-0.998-4.065-1.284-6.474v6.421c0,0.018,0,0.035,0,0.053c0.019,0.143,0.054,0.5,0.107,1.07
		c0.089,0.803,0.231,2.033,0.428,3.692c0.036,0.463,0.231,1.694,0.589,3.691c0.356,1.979,0.643,4.048,0.855,6.206
		c0.215,2.141,0.143,4.593-0.213,7.357c-0.357,2.746-1.249,4.895-2.676,6.446s-3.049,2.898-4.869,4.04
		c-1.818,1.123-3.549,1.686-5.189,1.686c-2.801,0-5.127-1.48-6.982-4.441c-1.48-2.372-2.158-4.824-2.033-7.356
		c-1.444,0.944-2.506,1.596-3.184,1.953c-0.678,0.321-2.068,0.525-4.172,0.615c-2.105,0.089-3.871-0.401-5.298-1.472
		c-1.783-1.355-2.675-3.317-2.675-5.885c0-2.782,0.589-5.654,1.766-8.614c0.695-1.766,1.979-4.334,3.852-7.704
		c0.037-0.072,0.081-0.144,0.135-0.215c0.195-0.374,0.392-0.73,0.588-1.07c1.48-2.728,2.523-4.868,3.13-6.42
		c1.177-2.96,1.766-5.831,1.766-8.614c0-3.709-0.642-7.312-1.926-10.808c-0.446-1.194-1.837-4.218-4.173-9.068
		c0.143,1.729,0.213,3.896,0.213,6.501c0,1.676-0.303,3.985-0.908,6.929c-0.715,3.46-1.65,6.679-2.81,9.657
		c-2.586,6.58-5.681,10.522-9.282,11.823c-0.91,0.321-1.838,0.482-2.783,0.482c-0.98,0-1.81-0.161-2.487-0.482
		c-1.177-0.553-1.944-1.568-2.3-3.05c-0.25-1.516-0.455-2.719-0.616-3.611c-0.268-1.426-0.634-2.657-1.097-3.691
		c-1.926,3.121-3.611,5.083-5.057,5.886c-1.462,0.803-3.762,1.204-6.901,1.204c-3.192,0-5.502-1.062-6.929-3.184
		c-1.088-1.605-1.632-3.754-1.632-6.447c0-3.335,1.133-7.125,3.397-11.369c0.713-1.356,1.445-2.56,2.193-3.611
		c0,0.053,0,0.106,0,0.16c0,1.676-0.713,4.494-2.14,8.453c-1.427,3.96-2.14,6.581-2.14,7.865c0,1.605,0.445,2.72,1.337,3.344
		c0.749,0.535,1.997,0.803,3.745,0.803c1.445,0,2.988-0.57,4.629-1.712c1.604-1.124,3.04-2.577,4.307-4.36
		c2.817-4.013,3.736-7.776,2.756-11.29c0.998,1.303,1.836,2.685,2.514,4.146c0.928,1.944,1.721,4.299,2.381,7.063
		c0.393,1.588,0.553,3.692,0.482,6.313c0.285,1.855,1.641,2.782,4.065,2.782c2.622,0,5.297-2.934,8.025-8.801
		c2.497-5.368,3.745-9.88,3.745-13.536c0-3.639-1.025-8.187-3.076-13.644s-3.076-10.147-3.076-14.071
		c0-1.891,0.205-4.111,0.615-6.661c0.16-1.034,0.355-2.113,0.588-3.237c0.357-1.748,0.776-3.521,1.258-5.323
		c0.393-1.498,0.82-3.022,1.283-4.574c0.875-2.854,2.328-5.199,4.361-7.036c1.053-0.963,2.327-1.891,3.825-2.782
		c-0.339,0.999-0.909,2.381-1.712,4.146c-0.803,2.087-1.355,4.513-1.658,7.276c-0.072,0.571-0.161,1.561-0.268,2.97
		c-0.125,1.338-0.277,3.067-0.455,5.189c-0.107,1.267-0.196,2.39-0.268,3.371c-0.232,2.746-0.348,4.388-0.348,4.922
		c0,5.387,0.82,10.05,2.461,13.991c1.159,2.765,2.97,5.601,5.431,8.507c3.14,3.674,4.948,5.895,5.431,6.661
		c1.641,2.604,2.461,5.466,2.461,8.588c0,3.299-0.65,6.313-1.953,9.042c-0.767,1.569-2.211,3.753-4.334,6.554
		c-0.748,0.98-1.408,1.899-1.979,2.755c-0.25,0.375-0.482,0.731-0.696,1.07c-0.713,1.089-1.266,2.068-1.658,2.942
		c-1.302,2.871-1.953,6.073-1.953,9.604c0,1.426,0.268,2.586,0.803,3.478c0.642,1.07,1.622,1.605,2.942,1.605
		c1.927,0,4.414-0.776,7.464-2.327c2.64-1.338,4.405-2.773,5.297-4.308c-0.321,0.767-0.749,1.766-1.284,2.996
		c-1.053,2.782-1.578,5.243-1.578,7.384c0,3.192,0.624,5.332,1.873,6.42c0.838,0.714,2.264,1.07,4.279,1.07
		c0.75,0,1.695-0.285,2.836-0.856c1.409-0.695,2.817-2.354,4.227-4.976c1.409-2.621,1.739-6.322,0.99-11.102
		c-0.125-0.518-0.304-1.267-0.535-2.247c-0.767-3.228-1.275-6.456-1.525-9.685c-0.035-0.356-0.062-0.713-0.08-1.07
		c-0.16-2.407-0.178-4.806-0.053-7.196c0.285-5.974,0.73-10.593,1.337-13.856c0.606-3.282,1.704-8.053,3.291-14.313v0.937
		c0,0.018-0.134,1.507-0.401,4.468c-0.268,3.121-0.401,5.109-0.401,5.966c0,7.65,0.472,13.072,1.417,16.265
		c0.715,2.407,2.016,4.984,3.906,7.73c0.232,0.357,0.481,0.714,0.749,1.07c0.393,0.554,0.812,1.106,1.257,1.659
		c2.979,3.78,5.048,6.696,6.207,8.747c1.141,2.033,1.713,5.243,1.713,9.631c0,2.854-0.795,5.636-2.382,8.347
		c-0.892,1.516-2.64,3.799-5.243,6.849C238.138,205.467,237.719,205.975,237.326,206.475z M153.301,138.312
		c3.085-9.166,2.184-19.395-2.702-30.684c-1.213-2.782-2.667-5.636-4.361-8.561c-2.657-4.584-5.921-9.327-9.791-14.231v13.67
		c0.018,0.196,0.036,0.383,0.053,0.562c0.286,2.871,0.446,5.725,0.482,8.561c0.018,1.694-0.009,3.389-0.081,5.083
		c-0.196,4.654-2.612,9.31-7.25,13.964c-2.318,2.301-4.423,3.701-6.313,4.2c-1.07,0.125-2.033,0.134-2.889,0.026
		c-0.036-0.018-0.062-0.026-0.08-0.026l-0.026,0.026c-2.89-0.855-4.62-1.774-5.19-2.755c-0.589-0.999-1.026-1.908-1.311-2.729
		c-0.285-0.839-0.508-2.301-0.669-4.388c-0.16-2.087-0.25-4.307-0.268-6.661c-1.873,1.837-3.558,4.824-5.056,8.962
		c-0.481,1.338-0.918,2.64-1.311,3.905c-1.819,5.868-2.729,11.004-2.729,15.409c0,1.641,0.588,3.719,1.766,6.233
		c0.25,0.534,0.57,1.15,0.963,1.846c1.427,2.479,3.772,5.894,7.036,10.246c1.998,2.656,3.594,5.216,4.789,7.677
		c0.178,0.357,0.348,0.714,0.508,1.07c1.034,2.318,1.712,4.557,2.033,6.715c0.695,4.762,0.071,9.087-1.873,12.975
		c-0.553,1.124-1.177,2.283-1.873,3.478c-0.714,1.177-1.802,2.176-3.264,2.996c-1.462,0.803-2.586,2.024-3.371,3.665
		c-0.802,1.623-1.105,3.683-0.91,6.18c0.179,2.479,0.295,4.138,0.348,4.976c0.036,0.82-0.081,2.595-0.348,5.323
		c-0.268,2.711-0.508,4.61-0.722,5.698c-0.232,1.07-0.722,1.605-1.471,1.605c-0.375,0-0.669-0.089-0.883-0.268
		c-0.268-0.25-0.401-0.651-0.401-1.204c0.179-0.892,0.268-1.444,0.268-1.658c0-2.122-1.204-4.548-3.612-7.276
		c-1.301-1.498-2.131-2.497-2.487-2.996c-0.75-1.106-1.105-2.229-1.07-3.371c0.036-1.159,0.669-2.773,1.899-4.842
		c1.658-3.62,2.221-5.975,1.686-7.063c-0.642-1.284-1.766-1.953-3.371-2.006c-1.266-4.049-2.791-6.822-4.574-8.32
		c0.481,1.249,0.847,2.069,1.097,2.461c0.945,1.392,1.418,2.907,1.418,4.548c0,2.818-0.803,5.396-2.408,7.731
		c-0.482,0.678-1.275,1.747-2.381,3.21c-0.018,0.019-0.036,0.036-0.053,0.054c-1.052,1.444-1.936,2.862-2.648,4.254
		c-1.106,2.14-2.149,5.261-3.13,9.362c-1.106,3.032-3.095,4.548-5.966,4.548c-2.425,0-4.984-2.113-7.677-6.34
		c-2.265-3.566-3.63-6.625-4.093-9.176h-1.07c0,0.356-0.178,0.535-0.535,0.535c-0.339,2.122-1.329,5.342-2.969,9.657
		c0.375-4.334,1.275-8.979,2.702-13.938c1.087-3.799,1.765-6.296,2.033-7.49c0.607-2.747,0.91-5.324,0.91-7.731
		c0-2.016-0.081-3.816-0.241-5.403c0.678,1.337,1.204,2.773,1.578,4.307c0.482,2.033,0.928,6.331,1.338,12.894
		c0.036,0.535,0,2.212-0.107,5.03c-0.088,2.479-0.035,4.449,0.161,5.911c0.606,4.655,2.818,6.982,6.635,6.982
		c1.641,0,2.853-0.401,3.638-1.204c0.571-0.606,1.008-1.604,1.311-2.996c0.268-1.676,0.526-2.951,0.776-3.825
		c0.428-1.533,1.115-2.782,2.06-3.745c0.535-0.535,1.427-1.114,2.675-1.739c1.07-0.517,1.962-1.043,2.675-1.578
		c0.196-0.143,0.375-0.285,0.535-0.428c0.606-0.499,1.124-1.552,1.552-3.156c0.392-1.409,0.588-2.676,0.588-3.8
		c0-1.586-0.303-3.004-0.91-4.253c-0.25-0.481-0.838-1.382-1.766-2.702c-0.089-0.125-0.178-0.249-0.268-0.374
		c-1.961-2.747-2.943-6.02-2.943-9.818c0-0.731,0.206-1.979,0.616-3.745c0.268-1.158,0.526-2.042,0.776-2.648
		c0.16-0.393,0.321-0.669,0.481-0.829c0,0.285,0.009,0.562,0.027,0.829c0.161,5.119,0.393,7.954,0.696,8.508
		c0.143,0.285,0.348,0.508,0.615,0.668c0.268,0.179,0.598,0.295,0.99,0.348c0.374,0.054,1.516,0.081,3.424,0.081
		c0.731,0,1.293,0.82,1.686,2.461c0.232,0.999,0.57,2.817,1.016,5.457c1.106,5.137,3.38,7.767,6.822,7.892c0.071,0,0.152,0,0.241,0
		c3.442,0,6.028-2.229,7.758-6.688c1.249-3.192,1.873-6.724,1.873-10.594c0-2.729-0.535-5.439-1.605-8.133
		c-0.143-0.356-0.294-0.713-0.455-1.07c-0.321-0.695-0.678-1.391-1.07-2.086c-1.285-2.283-3.532-5.368-6.742-9.257
		c-0.053-0.07-0.107-0.142-0.161-0.213c-3.388-4.12-5.689-7.215-6.901-9.283c-2.087-3.585-3.13-7.125-3.13-10.62
		c0-0.143,0-0.285,0-0.428c0-0.357,0-0.75,0-1.178c0-2.318,1.329-6.09,3.986-11.315c1.766-3.478,3.835-6.661,6.207-9.551
		c1.212-1.48,2.506-2.88,3.879-4.2c0.963-0.927,1.873-1.89,2.729-2.889c2.265-2.657,4.102-5.511,5.511-8.561
		c0.267-0.589,0.526-1.187,0.776-1.792c0.588-1.463,0.98-2.818,1.177-4.066c0.107,0.749,0.223,1.578,0.348,2.488
		c0.143,1.034,0.179,2.157,0.107,3.37c-0.125,2.479-0.66,5.333-1.605,8.561c-0.053,0.196-0.116,0.401-0.187,0.615
		c-1.552,5.083-2.426,8.694-2.622,10.834c-0.214,2.141,0.187,3.986,1.204,5.538s3.299,1.971,6.848,1.257
		c3.532-0.713,6.073-3.041,7.625-6.982c1.266-3.228,1.881-6.981,1.846-11.262c0-0.945-0.036-1.908-0.107-2.89
		c-0.107-1.498-0.205-3.388-0.294-5.671c-0.214-5.351-0.366-12.841-0.455-22.472c-0.018-1.248-0.036-2.532-0.054-3.852
		c-0.125-13.946,1.926-23.461,6.153-28.544c-0.428,2.3-0.99,5.047-1.685,8.239c-0.66,3.442-0.99,6.849-0.99,10.22
		c0,4.743,0.678,9.39,2.033,13.937c0.375,1.284,0.812,2.56,1.311,3.826c1.48,3.834,3.933,8.533,7.356,14.098
		c0.375,0.606,0.741,1.204,1.097,1.793c0.589,0.944,1.177,1.863,1.766,2.755c0.071,0.107,0.143,0.214,0.213,0.321
		c2.088,3.228,4.004,5.975,5.752,8.239c0.41,0.535,0.812,1.043,1.203,1.524c2.854,3.479,4.146,7.526,3.88,12.146
		c-0.196,3.389-0.874,6.367-2.033,8.935c-0.428,0.928-0.919,1.802-1.472,2.622c-0.838,1.23-1.811,2.479-2.916,3.745
		C154.414,137.152,153.871,137.724,153.301,138.312z M171.41,139.917c0.09,0.481,0.135,0.928,0.135,1.338
		c0,1.64-0.135,3.174-0.402,4.601c-0.143,0.749-0.303,1.383-0.48,1.899c-0.446,1.142-1.018,1.712-1.713,1.712
		c-0.303,0-0.686-0.178-1.15-0.534c-0.498-0.393-0.766-0.785-0.803-1.178c0-0.018,0-0.045,0-0.08c0-0.481,0.268-1.757,0.803-3.825
		c0.535-2.069,0.803-3.736,0.803-5.003c0-1.194-0.188-2.506-0.562-3.933c-0.303-1.088-0.642-1.997-1.017-2.729
		c-0.053-0.25-0.106-0.49-0.16-0.723c0.518,0.571,1.008,1.195,1.471,1.873c0.928,1.463,1.695,2.934,2.301,4.414
		C170.92,138.464,171.18,139.186,171.41,139.917z M153.113,199.733c0.16-0.179,0.32-0.339,0.48-0.481
		c2.319-2.141,4.896-3.211,7.732-3.211c2.817,0,5.064,1.124,6.74,3.371c1.517,2.033,2.274,4.468,2.274,7.304
		c0,1.979-0.268,3.879-0.803,5.697c-0.731,2.497-1.801,3.745-3.21,3.745c-0.445,0-0.848-0.134-1.204-0.401s-0.534-0.579-0.534-0.936
		c0-0.214,0.07-0.544,0.213-0.99c0.125-0.446,0.188-0.873,0.188-1.284c0-1.462-0.313-2.577-0.936-3.344
		c-0.643-0.803-1.578-1.204-2.81-1.204c-1.908,0-4.387,0.874-7.437,2.622c-3.032,1.729-5.012,2.595-5.939,2.595
		c-1.177,0-2.069-0.089-2.675-0.268c-0.892-0.268-1.337-0.74-1.337-1.418c0-0.589,0.785-1.747,2.354-3.478
		c1.57-1.729,2.773-3.165,3.612-4.307C150.66,202.587,151.758,201.249,153.113,199.733z M46.562,208.989
		c-1.088-2.657-1.801-4.887-2.14-6.688c-0.179,0-0.446,0.089-0.803,0.268c-0.356,0.178-0.624,0.268-0.803,0.268
		c-0.428,1.23-1.124,3.111-2.086,5.644c-0.749,2.194-1.124,3.968-1.124,5.324c0,0.214,0.027,0.535,0.08,0.963
		c-0.071-0.16-0.134-0.303-0.187-0.428c-0.481-1.159-0.517-2.81-0.107-4.949c0.41-2.158,1.302-4.664,2.675-7.518
		c1.374-2.854,2.158-5.082,2.354-6.688c0.196-1.623-0.081-3.585-0.83-5.885c-0.071-0.215-0.134-0.411-0.187-0.589
		c0.892,1.284,1.551,2.273,1.979,2.969c0.41,0.679,0.713,1.846,0.91,3.505c0.178,1.658,0.276,2.916,0.294,3.771
		c0.018,0.856-0.018,3.861-0.107,9.016C46.5,208.329,46.526,208.668,46.562,208.989z M40.168,217.817
		c0.143,0.784,0.313,1.677,0.508,2.675c0.714,3.639,1.07,5.867,1.07,6.688c0,1.391-0.179,2.559-0.535,3.504
		c-0.535,1.409-1.427,2.113-2.675,2.113c-0.428,0-0.865-0.125-1.311-0.374c1.605-2.158,2.408-4.664,2.408-7.518
		c0-0.874-0.33-2.372-0.99-4.494c-0.482-1.605-0.865-2.737-1.15-3.397l-1.873-4.548c-0.071,0.375-0.205,0.072-0.401-0.909
		c-0.196-0.981-0.33-1.748-0.401-2.301v-2.942c1.017,2.854,2.069,5.359,3.157,7.517C38.563,214.973,39.294,216.302,40.168,217.817z
		 M145.248,163.137c0.071,1.374,0.321,2.738,0.749,4.094c0.107,0.339,0.276,0.811,0.508,1.417c0.107,0.321,0.241,0.678,0.401,1.07
		c0.232,0.606,0.508,1.293,0.829,2.061c1.694,4.119,2.541,8.132,2.541,12.038c0,2.301-0.33,4.592-0.989,6.875
		c-0.678,2.282-1.017,3.87-1.017,4.762c0,1.248,0.518,1.997,1.552,2.247c-0.785,0.963-1.704,1.507-2.756,1.632
		c-2.3-0.41-2.497-2.533-0.588-6.367c1.908-3.853,2.907-7.268,2.996-10.246c0.071-2.978-0.695-6.625-2.301-10.94
		c-0.285-0.768-0.535-1.454-0.749-2.061c-0.143-0.393-0.268-0.749-0.375-1.07c-0.25-0.73-0.428-1.275-0.535-1.631
		c-0.5-1.838-0.749-3.799-0.749-5.886c0-0.428,0.009-0.82,0.026-1.177C144.847,161.006,144.999,162.067,145.248,163.137z
		 M137.731,161.585c0.196,0.482,0.419,1.026,0.669,1.633c1.141,2.711,1.828,4.521,2.06,5.43c0.018,0.09,0.036,0.17,0.053,0.241
		c0.054,0.285,0.116,0.562,0.188,0.829c0.553,2.586,0.892,4.271,1.017,5.057c0.356,2.122,0.535,4.128,0.535,6.019
		c0,2.211-0.445,4.173-1.337,5.886c-0.963,1.872-2.185,2.809-3.665,2.809c-1.052,0-1.926-0.535-2.622-1.605
		c-0.713-1.087-1.07-2.47-1.07-4.146c0-2.265,0.687-5.885,2.06-10.86c0.303-1.07,0.57-2.122,0.802-3.157
		c0.089-0.356,0.169-0.713,0.241-1.07C137.196,166.151,137.552,163.797,137.731,161.585z"/>
	<path fill-rule="evenodd" clip-rule="evenodd" fill="#FF3300" d="M167.023,132.186c0.375,0.731,0.714,1.641,1.017,2.729
		c0.374,1.427,0.562,2.738,0.562,3.933c0,1.267-0.268,2.934-0.803,5.003c-0.535,2.068-0.803,3.344-0.803,3.825
		c0,0.035,0,0.063,0,0.08c0.037,0.393,0.305,0.785,0.803,1.178c0.465,0.356,0.848,0.534,1.15,0.534c0.695,0,1.267-0.57,1.713-1.712
		c0.178-0.517,0.338-1.15,0.48-1.899c0.268-1.427,0.402-2.961,0.402-4.601c0-0.41-0.045-0.856-0.135-1.338
		c0.625,2.104,0.938,4.289,0.938,6.554c0,0.429-0.027,0.856-0.08,1.284c-0.232,1.48-0.83,2.942-1.793,4.388
		c-1.373,2.051-2.951,3.076-4.734,3.076c-0.803,0-1.41-0.089-1.82-0.268c-0.713-0.321-1.07-0.945-1.07-1.872
		c0-1.32,0.455-3.095,1.365-5.324c0.25-0.66,0.553-1.364,0.909-2.113c1.517-3.228,2.274-6.43,2.274-9.604
		C167.398,134.825,167.273,133.541,167.023,132.186z M237.326,206.475c-1.837,2.211-3.165,4.066-3.986,5.564
		c-1.586,2.907-2.38,5.956-2.38,9.148c0,3.531,0.972,6.43,2.915,8.694c1.909,2.229,4.414,3.478,7.518,3.745v0.535
		c-1.141,1.498-2.479,2.417-4.012,2.756c-0.535,0.124-1.828,0.188-3.879,0.188c-3.247,0-5.967-0.624-8.16-1.873
		c-3.031-1.729-4.547-4.494-4.547-8.293c0-2.96,0.945-5.761,2.835-8.4c0.839-1.142,2.925-3.388,6.261-6.741
		c2.889-2.871,4.975-5.475,6.259-7.812c1.891-3.442,2.836-7.339,2.836-11.69c0-2.3-0.384-4.806-1.15-7.517
		c-0.731-2.622-1.686-4.976-2.862-7.063c0.178,2.301,0.383,5.047,0.615,8.239s-0.42,7.205-1.953,12.038
		c-1.551,4.815-3.977,7.625-7.276,8.427c-3.281,0.803-5.52,0.829-6.714,0.08c-1.195-0.748-2.391-1.052-3.586-0.909
		c-1.194,0.143-2.113,0.731-2.754,1.766c-0.107,0.179-0.643,1.311-1.605,3.397c-1.534,3.299-3.541,4.949-6.02,4.949
		c-1.819,0-3.201-0.892-4.146-2.676c-0.713-1.337-1.07-2.854-1.07-4.548c0-3.335,1.159-6.126,3.479-8.373
		c0.588-0.553,1.381-1.311,2.38-2.273c0.589-0.66,0.945-1.32,1.07-1.979c-0.429,0.428-0.883,0.829-1.364,1.204
		c-1.801,1.391-3.629,2.086-5.484,2.086c-3.763,0-6.563-1.159-8.4-3.478c-1.622-2.033-2.434-4.887-2.434-8.561
		c0-2.141,0.749-4.762,2.247-7.865c0.678-1.391,2.336-4.342,4.976-8.854c0.125-0.231,0.259-0.454,0.401-0.669
		c0.196-0.356,0.401-0.713,0.616-1.07c1.783-3.12,3.103-5.732,3.958-7.838c1.499-3.656,2.247-7.026,2.247-10.112
		c0-1.622-0.213-3.263-0.642-4.922c-0.196-0.643-0.365-1.239-0.508-1.792c0.018,0.231,0.035,0.473,0.054,0.722
		c0.018,0.321,0.025,1.248,0.025,2.782c0,4.28-1.016,8.187-3.049,11.718c-1.338,2.318-3.576,5.064-6.715,8.239
		c-0.41,0.41-0.803,0.812-1.178,1.203c-0.355,0.375-0.695,0.731-1.016,1.07c-2.212,2.336-3.719,4.084-4.521,5.243
		c-2.033,2.979-3.049,6.136-3.049,9.471c0,2.354,0.313,5.466,0.936,9.336c0.625,3.853,0.937,7.25,0.937,10.192
		c0,3.549-0.437,6.644-1.312,9.283c-1.123,3.37-2.835,5.43-5.136,6.18c-0.089,0.018-0.169,0.035-0.241,0.053
		c0.357-0.909,0.66-1.811,0.91-2.702c1.017-5.421,0.205-11.797-2.434-19.127c-0.429-1.408-0.884-2.72-1.365-3.933
		c-1.854-4.583-4.137-7.847-6.849-9.791c-0.534-0.374-1.087-0.704-1.658-0.989c-3.495-1.088-4.753,0.58-3.772,5.002
		c0.036,0.161,0.09,0.33,0.161,0.509c0.196,0.57,0.437,1.142,0.722,1.712c0.482,0.945,1.588,2.692,3.317,5.243
		c1.534,2.247,2.64,4.2,3.317,5.858c0.998,2.497,1.498,5.182,1.498,8.053c0,3.264-0.624,6.126-1.873,8.587
		c-1.623,3.192-4.029,4.788-7.223,4.788c-0.785,0-1.587-0.268-2.407-0.802c-0.892-0.589-1.338-1.258-1.338-2.007
		c0-0.803,0.401-1.917,1.204-3.344s1.203-2.452,1.203-3.076c0-0.893-0.178-1.65-0.535-2.274c-0.517-0.892-1.363-1.338-2.541-1.338
		c-1.088,0-3.433,1.428-7.035,4.28c-3.603,2.854-6.207,4.28-7.812,4.28c-1.498,0-2.568-0.268-3.21-0.802
		c-0.713-0.589-1.07-1.659-1.07-3.211c0-1.979,0.838-4.021,2.515-6.126c0.5-0.642,2.336-2.577,5.511-5.805
		c1.802-1.802,3.255-3.486,4.361-5.057c0.428-0.642,0.811-1.257,1.149-1.846c1.677-2.96,2.515-6.135,2.515-9.523
		c0-1.604-0.33-3.406-0.99-5.403c-0.285-0.803-1.025-2.657-2.22-5.564c-0.767-1.854-1.399-3.639-1.899-5.351
		c-0.107-0.356-0.205-0.713-0.294-1.07c-0.678-2.604-1.017-5.021-1.017-7.249c0-3.05,0.642-5.761,1.926-8.133
		c0.838-1.551,2.292-3.406,4.36-5.563c2.247-2.372,3.763-4.146,4.548-5.324c1.195-1.837,1.979-3.853,2.354-6.046
		c0.071,0.5,0.179,1.079,0.321,1.739c0.249,1.105,0.383,2.006,0.4,2.702c-0.748,1.052-1.48,2.255-2.193,3.611
		c-2.265,4.244-3.397,8.034-3.397,11.369c0,2.693,0.544,4.842,1.632,6.447c1.427,2.122,3.736,3.184,6.929,3.184
		c3.14,0,5.439-0.401,6.901-1.204c1.445-0.803,3.131-2.765,5.057-5.886c0.463,1.034,0.829,2.266,1.097,3.691
		c0.161,0.893,0.366,2.096,0.616,3.611c0.355,1.481,1.123,2.497,2.3,3.05c0.678,0.321,1.507,0.482,2.487,0.482
		c0.945,0,1.873-0.161,2.783-0.482c3.602-1.301,6.696-5.243,9.282-11.823c1.159-2.979,2.095-6.197,2.81-9.657
		c0.605-2.943,0.908-5.253,0.908-6.929c0-2.604-0.07-4.771-0.213-6.501c2.336,4.851,3.727,7.874,4.173,9.068
		c1.284,3.496,1.926,7.099,1.926,10.808c0,2.783-0.589,5.654-1.766,8.614c-0.606,1.552-1.649,3.692-3.13,6.42
		c-0.196,0.34-0.393,0.696-0.588,1.07c-0.054,0.071-0.098,0.143-0.135,0.215c-1.872,3.37-3.156,5.938-3.852,7.704
		c-1.177,2.96-1.766,5.832-1.766,8.614c0,2.567,0.892,4.529,2.675,5.885c1.427,1.07,3.192,1.561,5.298,1.472
		c2.104-0.09,3.494-0.294,4.172-0.615c0.678-0.357,1.739-1.009,3.184-1.953c-0.125,2.532,0.553,4.984,2.033,7.356
		c1.855,2.961,4.182,4.441,6.982,4.441c1.641,0,3.371-0.563,5.189-1.686c1.82-1.142,3.442-2.488,4.869-4.04s2.318-3.7,2.676-6.446
		c0.355-2.765,0.428-5.217,0.213-7.357c-0.213-2.158-0.499-4.227-0.855-6.206c-0.357-1.997-0.553-3.229-0.589-3.691
		c-0.196-1.659-0.339-2.89-0.428-3.692c-0.054-0.57-0.089-0.928-0.107-1.07c0-0.018,0-0.035,0-0.053v-6.421
		c0.286,2.408,0.714,4.566,1.284,6.474c0.09,0.375,0.196,0.731,0.321,1.07c0.392,1.159,0.839,2.221,1.337,3.184
		c0.893,1.712,2.266,3.478,4.12,5.297s3.077,3.272,3.665,4.36c1.053,1.979,1.578,4.637,1.578,7.973c0,1.962-0.98,4.904-2.942,8.827
		C238.619,202.194,237.719,204.566,237.326,206.475z M64.458,215.169c1.641-4.315,2.63-7.535,2.969-9.657
		c0.357,0,0.535-0.179,0.535-0.535h1.07c0.463,2.551,1.828,5.609,4.093,9.176c2.693,4.227,5.252,6.34,7.677,6.34
		c2.871,0,4.86-1.516,5.966-4.548c0.98-4.102,2.024-7.223,3.13-9.362c0.713-1.392,1.596-2.81,2.648-4.254
		c0.018-0.018,0.035-0.035,0.053-0.054c1.105-1.463,1.899-2.532,2.381-3.21c1.605-2.336,2.408-4.913,2.408-7.731
		c0-1.641-0.473-3.156-1.418-4.548c-0.25-0.392-0.615-1.212-1.097-2.461c1.784,1.498,3.308,4.271,4.574,8.32
		c1.605,0.053,2.729,0.722,3.371,2.006c0.535,1.088-0.027,3.442-1.686,7.063c-1.23,2.068-1.864,3.683-1.899,4.842
		c-0.035,1.142,0.321,2.265,1.07,3.371c0.356,0.499,1.186,1.498,2.487,2.996c2.408,2.729,3.612,5.154,3.612,7.276
		c0,0.214-0.089,0.767-0.268,1.658c0,0.553,0.134,0.954,0.401,1.204c0.214,0.179,0.508,0.268,0.883,0.268
		c0.75,0,1.239-0.535,1.471-1.605c0.214-1.088,0.455-2.987,0.722-5.698c0.268-2.729,0.384-4.503,0.348-5.323
		c-0.053-0.838-0.169-2.497-0.348-4.976c-0.196-2.497,0.107-4.557,0.91-6.18c0.785-1.641,1.908-2.862,3.371-3.665
		c1.462-0.82,2.55-1.819,3.264-2.996c0.695-1.194,1.32-2.354,1.873-3.478c1.943-3.888,2.568-8.213,1.873-12.975
		c-0.321-2.158-0.999-4.396-2.033-6.715c-0.161-0.356-0.33-0.713-0.508-1.07c-1.195-2.461-2.791-5.021-4.789-7.677
		c-3.264-4.353-5.609-7.768-7.036-10.246c-0.393-0.695-0.713-1.312-0.963-1.846c-1.177-2.515-1.766-4.593-1.766-6.233
		c0-4.405,0.91-9.541,2.729-15.409c0.392-1.266,0.83-2.567,1.311-3.905c1.498-4.138,3.184-7.125,5.056-8.962
		c0.018,2.354,0.107,4.574,0.268,6.661c0.161,2.087,0.384,3.549,0.669,4.388c0.285,0.82,0.722,1.729,1.311,2.729
		c0.57,0.98,2.3,1.899,5.19,2.755l0.026-0.026c0.018,0,0.044,0.009,0.08,0.026c0.856,0.107,1.819,0.099,2.889-0.026
		c1.891-0.499,3.995-1.899,6.313-4.2c4.637-4.654,7.054-9.31,7.25-13.964c0.072-1.694,0.098-3.389,0.081-5.083
		c-0.036-2.836-0.196-5.689-0.482-8.561c-0.018-0.179-0.036-0.365-0.053-0.562v-13.67c3.87,4.904,7.134,9.647,9.791,14.231
		c1.694,2.925,3.148,5.778,4.361,8.561c4.886,11.289,5.787,21.518,2.702,30.684c-0.785,0.785-1.623,1.578-2.516,2.381
		c0.34-0.588,0.669-1.293,0.99-2.113c1.052-2.729,1.748-6.18,2.086-10.353c0.322-4.191-1.105-10.434-4.28-18.727
		c-0.285-0.659-0.553-1.283-0.802-1.872c-1.534-3.603-2.479-5.743-2.836-6.421c-0.267-0.499-0.687-1.212-1.257-2.14
		c-0.357-0.571-0.767-1.222-1.231-1.953c-1.23-1.943-2.06-3.317-2.488-4.119c0.161,0.892,0.33,2.006,0.508,3.344
		c0.125,0.98,0.214,1.891,0.268,2.729c0.053,0.82,0.08,1.569,0.08,2.247c0,2.229-0.125,4.334-0.375,6.313
		c-0.678,5.261-2.265,9.604-4.762,13.028c-1.177,1.622-2.613,3.103-4.307,4.44c-0.607,0.642-1.24,1.284-1.9,1.926
		c-0.963,0.963-1.792,1.802-2.487,2.515c-1.445,1.444-2.328,2.354-2.649,2.729c-0.339,0.411-0.642,0.812-0.91,1.204
		c-0.891,1.338-1.337,2.568-1.337,3.691c0,1.694,0.625,3.345,1.873,4.949c1.534,1.962,3.541,2.943,6.019,2.943
		c2.033,0,3.959-0.625,5.778-1.873c2.123-1.463,3.184-3.335,3.184-5.618c0-1.034-0.312-2.8-0.937-5.297
		c-0.624-2.515-0.936-4.494-0.936-5.938c0-3.959,0.678-6.92,2.033-8.882c1.462-2.157,4.156-3.888,8.08-5.189
		c-0.928,1.891-1.4,2.88-1.418,2.97c-0.089,0.285-0.134,1.355-0.134,3.21c0,2.8,0.535,5.52,1.605,8.159
		c1.07,2.622,1.605,4.494,1.605,5.618c0,2.764-0.366,5.092-1.097,6.981c-0.393,1.034-1.186,2.462-2.381,4.28
		c-1.124,1.73-1.917,3.299-2.381,4.708c-0.731,2.212-1.097,4.958-1.097,8.24c0,2.051,0.179,5.207,0.535,9.47
		c0.072,0.945,0.143,1.863,0.214,2.755c0.018,0.357,0.044,0.714,0.08,1.07c0.161,2.586,0.241,4.852,0.241,6.795
		c0,1.105,0.018,2.934,0.054,5.484c-0.036,2.282-0.223,4.155-0.562,5.618c-0.981,4.102-3.442,6.152-7.383,6.152
		c-1.748,0-3.21-0.535-4.388-1.605c-1.444-1.284-2.167-3.156-2.167-5.617c0-5.012,1.07-10.335,3.21-15.971
		c0.107-0.303,0.214-0.589,0.321-0.856c0.143-0.374,0.286-0.73,0.428-1.07c0.785-2.121,1.275-3.504,1.471-4.146
		c0.66-2.211,0.99-4.28,0.99-6.206c0-0.374-0.053-1.186-0.161-2.434c-0.107-1.07-0.205-1.98-0.294-2.729
		c-0.107-0.178-0.223-0.339-0.348-0.481c-1.355-1.694-3.201-2.826-5.537-3.397c-2.835-0.374-4.967-0.66-6.394-0.855
		c-2.55-0.357-4.547-1.106-5.992-2.247c-3.032-2.391-4.655-6.242-4.869-11.557c-0.036-2.89-0.089-5.048-0.16-6.475
		c-0.054-1.159-0.17-2.22-0.348-3.183c-4.69,13.001-4.601,22.729,0.268,29.186c5.368,7.116,8.48,11.485,9.336,13.108
		c0.232,0.463,0.445,0.937,0.642,1.417c0.143,0.357,0.276,0.714,0.401,1.07c0.321,0.963,0.57,1.979,0.749,3.05
		c0.357,2.069,0.642,3.995,0.856,5.778c0.213,1.766,0.134,3.559-0.241,5.377c-0.375,1.802-0.803,3.326-1.285,4.575
		c-0.463,1.23-1.703,2.88-3.718,4.949c-2.033,2.051-3.727,3.558-5.083,4.521c-1.355,0.945-2.042,3.879-2.06,8.801
		c-0.018,4.923-0.053,7.553-0.107,7.892c-0.089,0.571-0.419,2.747-0.99,6.527c-0.874,3.496-2.149,5.243-3.826,5.243
		c-0.071,0-0.151,0-0.241,0c-0.446-0.071-0.9-0.329-1.364-0.775c-0.535-0.518-0.803-1.017-0.803-1.498
		c0-4.369-1.025-7.829-3.076-10.379c-1.391-1.749-2.095-2.631-2.114-2.648c-0.642-1.018-0.963-2.159-0.963-3.425
		c0-1.034,0.535-2.817,1.605-5.351c1.07-2.515,1.605-4.298,1.605-5.35c0-0.767-0.089-1.48-0.268-2.141
		c-0.25-0.909-0.606-1.364-1.07-1.364c-1.23,0-2.024,1.178-2.381,3.531c-0.428,2.801-0.972,4.485-1.632,5.056
		c-1.302,1.142-2.461,2.497-3.478,4.066c-0.018,0.019-0.036,0.045-0.053,0.08c-1.355,2.087-1.873,3.826-1.552,5.217
		c-0.036,1.034-0.08,2.881-0.134,5.538c-0.107,2.479-0.348,4.53-0.722,6.152c-1.07,4.69-3.46,7.036-7.169,7.036
		c-3.763,0-6.884-1.383-9.363-4.146c-2.443-2.729-4.057-6.607-4.842-11.638c-0.25,0.482-0.446,1.106-0.588,1.873
		c-0.143,0.642-0.214,1.177-0.214,1.604c0,4.085,1.471,7.795,4.414,11.129c0.731,0.838,1.739,1.927,3.023,3.264
		c0.928,1.052,1.391,1.962,1.391,2.729c0,0.714-0.625,1.07-1.873,1.07c-2.996,0-5.583-1.872-7.758-5.618
		c-1.962-3.353-2.943-6.83-2.943-10.433C64.218,218.441,64.298,216.827,64.458,215.169z M153.113,199.733
		c-1.355,1.516-2.453,2.854-3.291,4.013c-0.838,1.142-2.042,2.577-3.612,4.307c-1.569,1.73-2.354,2.889-2.354,3.478
		c0,0.678,0.446,1.15,1.337,1.418c0.606,0.179,1.499,0.268,2.675,0.268c0.927,0,2.907-0.865,5.939-2.595
		c3.05-1.748,5.528-2.622,7.437-2.622c1.231,0,2.167,0.401,2.81,1.204c0.623,0.767,0.936,1.882,0.936,3.344
		c0,0.411-0.063,0.838-0.188,1.284c-0.143,0.446-0.213,0.776-0.213,0.99c0,0.356,0.178,0.668,0.534,0.936s0.759,0.401,1.204,0.401
		c1.409,0,2.479-1.248,3.21-3.745c0.535-1.818,0.803-3.718,0.803-5.697c0-2.836-0.758-5.271-2.274-7.304
		c-1.676-2.247-3.923-3.371-6.74-3.371c-2.836,0-5.413,1.07-7.732,3.211C153.434,199.395,153.273,199.555,153.113,199.733z
		 M236.311,229.909c-1.249-1.319-1.873-3.148-1.873-5.484c0-3.085,0.794-6.108,2.381-9.069c0.678-1.248,1.668-2.729,2.97-4.44
		c0.678-0.909,1.435-1.872,2.274-2.889c2.639-3.192,4.387-5.502,5.242-6.929c0.5-0.839,0.919-1.667,1.258-2.488
		c-0.143,1.516-0.589,2.925-1.338,4.228c-0.535,0.98-1.543,2.291-3.022,3.932c-1.017,1.142-1.811,2.132-2.382,2.97
		c-0.035,0.054-0.07,0.106-0.106,0.161c-0.214,0.303-0.393,0.579-0.535,0.829c-0.927,1.641-1.391,3.441-1.391,5.403
		c0,2.942,0.624,5.448,1.872,7.517c0.838,1.373,1.267,2.087,1.284,2.141c0.393,0.803,0.589,1.641,0.589,2.515
		c0,0.998-0.179,1.801-0.535,2.407c-0.428,0.714-1.098,1.07-2.006,1.07C239.047,231.781,237.486,231.157,236.311,229.909z
		 M259.584,183.335c0,3.78,1.257,7.659,3.771,11.637c0.036,0.053,0.071,0.106,0.107,0.16c1.48,2.318,2.372,3.771,2.675,4.36
		c0.803,1.605,1.204,3.139,1.204,4.602c0,0.642-1.204,3.514-3.611,8.614c-0.125,0.268-0.25,0.535-0.375,0.803
		c-2.157,4.637-3.236,7.829-3.236,9.576c0,0.554,0.268,0.955,0.803,1.204c0.393,0.178,0.882,0.268,1.471,0.268
		c0.339,0,0.66-0.026,0.963-0.08c1.552-0.321,2.667-1.463,3.345-3.425c0.517-1.497,0.998-4.61,1.444-9.336
		c0,1.034,0.134,2.711,0.401,5.029c0.268,2.336,0.401,3.825,0.401,4.468c0,3.781-0.25,6.661-0.749,8.641
		c-0.625,2.586-1.891,5.011-3.799,7.276h-0.268c-0.107-0.464-0.009-1.302,0.294-2.515c0.339-1.355,0.509-2.212,0.509-2.568
		c0-0.998-0.179-1.801-0.535-2.407c-0.268-0.429-0.615-0.731-1.044-0.91c-0.285-0.106-0.606-0.16-0.963-0.16
		c-0.339,0-0.954,0.178-1.846,0.535c-0.909,0.356-1.587,0.535-2.033,0.535c-1.569,0-2.64-0.714-3.21-2.141
		c-0.356-0.874-0.535-2.212-0.535-4.013c0-1.551,0.393-3.076,1.177-4.574c0.375-0.714,1.231-2.007,2.568-3.879
		c2.497-3.495,3.745-6.92,3.745-10.272c0-1.178-0.365-2.31-1.097-3.397c-0.82-1.07-1.409-1.944-1.766-2.622
		c0.089,0.589,0.188,1.356,0.294,2.301c0.107,1.088,0.161,1.828,0.161,2.221c0,2.692-0.544,4.994-1.632,6.901
		c-0.731,1.267-1.927,2.631-3.585,4.093c-1.873,1.659-3.067,2.836-3.584,3.532c-1.088,1.479-1.633,3.2-1.633,5.162
		c0,0.625,0.135,1.739,0.402,3.344c0.268,1.624,0.4,2.782,0.4,3.479c0,1.266-0.089,2.032-0.268,2.3
		c-0.231,0.34-0.9,0.509-2.006,0.509c-0.446,0-0.848-0.115-1.204-0.348c0-0.107,0-0.214,0-0.321c0-0.268-0.401-1.373-1.204-3.317
		c-0.803-1.961-1.203-3.932-1.203-5.912c0-1.818,0.668-3.673,2.006-5.563c0.606-0.838,2.078-2.506,4.414-5.003
		c2.033-2.176,3.505-4.049,4.414-5.618c1.338-2.336,2.007-4.797,2.007-7.383c0-0.482-0.58-2.426-1.739-5.832
		s-1.738-6.456-1.738-9.149c0-3.228,0.774-6.321,2.327-9.282c0.819-1.569,1.971-3.281,3.45-5.137
		c0.268-0.356,0.553-0.713,0.856-1.07c0.517-0.624,1.069-1.257,1.658-1.898c-0.285,0.553-0.543,1.186-0.775,1.898
		c-0.107,0.34-0.214,0.696-0.321,1.07C260.021,172.964,259.584,177.503,259.584,183.335z M259.396,198.743
		c-0.035-0.16-0.063-0.303-0.08-0.428v0.268C259.334,198.636,259.361,198.69,259.396,198.743z M39.687,214.768
		c-0.053-0.428-0.08-0.749-0.08-0.963c0-1.356,0.375-3.13,1.124-5.324c0.963-2.532,1.659-4.413,2.086-5.644
		c0.179,0,0.446-0.09,0.803-0.268c0.356-0.179,0.624-0.268,0.803-0.268c0.339,1.801,1.052,4.03,2.14,6.688
		c0.338,4.37,1.346,6.599,3.022,6.688c0.018,0,0.045,0,0.081,0c1.266,0,1.854-1.15,1.766-3.45c-0.339-2.622-0.437-4.235-0.294-4.843
		v0.268c0.054,0.143,0.321,0.598,0.803,1.364c0.571,0.892,1.427,2.229,2.568,4.013c0.232,0.356,0.446,0.705,0.642,1.044
		c1.249,2.104,1.873,3.888,1.873,5.351c0,1.052-0.089,1.854-0.268,2.407c-0.268,0.892-0.757,1.338-1.471,1.338
		c-0.053,0-0.098,0-0.134,0c-0.25-0.019-0.481-0.081-0.695-0.188c-0.339-0.179-0.616-0.473-0.829-0.883
		c-0.143-0.25-0.259-0.535-0.348-0.856c-0.695-2.426-1.052-3.656-1.07-3.691c0,0.624-0.089,1.302-0.267,2.033
		c-0.018,0.053-0.036,0.116-0.054,0.187c-0.053,0.232-0.125,0.474-0.214,0.723c-2.265-0.195-4.271-1.953-6.019-5.271
		c-1.73-3.316-2.221-6.375-1.472-9.175h-0.268c-0.303,0.927-0.562,1.712-0.775,2.354c-0.214,0.643-0.357,1.873-0.428,3.692
		c-0.071,1.801,0.945,4.467,3.05,7.998c2.086,3.531,3.166,6.555,3.237,9.069c0.071,2.496-0.66,4.823-2.193,6.981
		c-1.552,2.158-2.782,3.496-3.692,4.014c-1.105,0.766-2.086,0.989-2.943,0.668c-0.713-0.125-1.07-0.525-1.07-1.203
		c0-0.41,1.159-1.614,3.478-3.611c2.318-2.497,3.478-5.173,3.478-8.026c0-2.372-1.248-5.341-3.745-8.908
		C41.06,217.291,40.186,215.855,39.687,214.768z M58.012,201.285c0.98,0.624,1.783,1.658,2.408,3.103
		c0.927,2.158,1.391,4.869,1.391,8.133c0,1.177-0.134,2.746-0.401,4.708c-0.267,1.944-0.401,3.406-0.401,4.388
		c0,0.268,0.009,0.534,0.026,0.802c0.161,3.621,1.445,6.546,3.853,8.775c1.623,1.498,2.515,2.336,2.675,2.515
		c0.803,0.998,1.204,2.14,1.204,3.424c0,0.892-0.268,1.614-0.803,2.167c-0.517,0.517-1.186,0.775-2.006,0.775
		c-2.889,0-5.252-1.159-7.089-3.478c-1.784-2.265-2.675-5.118-2.675-8.561c0-0.909,0.107-2.113,0.321-3.611
		c0.268-1.819,0.696-4.066,1.284-6.741c1.07-4.869,1.632-8.088,1.686-9.657c0.036-1.587-0.214-3.3-0.749-5.137
		C58.52,202.194,58.279,201.659,58.012,201.285z M37.226,232.424c0.446,0.249,0.883,0.374,1.311,0.374
		c1.249,0,2.14-0.704,2.675-2.113c0.356-0.945,0.535-2.113,0.535-3.504c0-0.821-0.356-3.05-1.07-6.688
		c-0.196-0.998-0.365-1.891-0.508-2.675c0.018,0.035,0.045,0.08,0.081,0.134c1.195,2.247,1.792,5.502,1.792,9.765
		c0,2.995-0.802,5.403-2.407,7.223c-1.587,1.783-3.683,2.675-6.287,2.675c-0.446,0-0.838-0.089-1.177-0.268
		c-0.196-0.285-0.517-0.767-0.963-1.444s0.071-1.025,1.552-1.044c1.48-0.018,2.523-0.329,3.129-0.936
		C36.37,233.44,36.815,232.94,37.226,232.424z M145.248,163.137c0.178,0.874,0.437,1.766,0.776,2.676
		c0.231,0.624,0.642,1.569,1.23,2.835c0.161,0.34,0.33,0.696,0.508,1.07c0.303,0.643,0.642,1.347,1.017,2.113
		c2.675,5.439,4.013,10.531,4.013,15.275c0,2.586-0.437,5.083-1.312,7.49c-0.463,1.302-1.016,2.336-1.658,3.104
		c-1.035-0.25-1.552-0.999-1.552-2.247c0-0.892,0.339-2.479,1.017-4.762c0.66-2.283,0.989-4.574,0.989-6.875
		c0-3.906-0.847-7.919-2.541-12.038c-0.321-0.768-0.597-1.454-0.829-2.061c-0.161-0.393-0.294-0.749-0.401-1.07
		c-0.232-0.606-0.401-1.078-0.508-1.417C145.569,165.875,145.319,164.511,145.248,163.137z M137.731,161.585
		c-0.179,2.212-0.535,4.566-1.07,7.063c-0.072,0.357-0.152,0.714-0.241,1.07c-0.232,1.035-0.5,2.087-0.802,3.157
		c-1.373,4.976-2.06,8.596-2.06,10.86c0,1.677,0.356,3.06,1.07,4.146c0.696,1.07,1.57,1.605,2.622,1.605
		c1.48,0,2.702-0.937,3.665-2.809c0.892-1.713,1.337-3.675,1.337-5.886c0-1.891-0.178-3.896-0.535-6.019
		c-0.125-0.785-0.464-2.471-1.017-5.057c-0.071-0.268-0.134-0.544-0.188-0.829c-0.018-0.071-0.036-0.151-0.053-0.241
		c-0.232-0.909-0.918-2.719-2.06-5.43C138.15,162.611,137.927,162.067,137.731,161.585z"/>
</g>
</svg>
