<?xml version="1.0" encoding="utf-8"?>
<!-- Generator: Adobe Illustrator 16.0.0, SVG Export Plug-In . SVG Version: 6.00 Build 0)  -->
<!DOCTYPE svg PUBLIC "-//W3C//DTD SVG 1.1//EN" "http://www.w3.org/Graphics/SVG/1.1/DTD/svg11.dtd">
<svg version="1.1" id="Layer_1" xmlns="http://www.w3.org/2000/svg" xmlns:xlink="http://www.w3.org/1999/xlink" x="0px" y="0px"
	 width="300px" height="300px" viewBox="0 0 300 300" enable-background="new 0 0 300 300" xml:space="preserve">
<g>
	<path fill="#F8991D" d="M154.43,199.906c1.588,1.771,2.995,3.736,4.219,5.898c3.854,6.928,5.131,14.492,3.828,22.696
		c-0.494,3.021-1.341,6.095-2.539,9.22c-0.729,2.057-0.938,3.646-0.625,4.766c0.287,0.99,0.912,1.354,1.875,1.094
		c2.422-0.678,4.221-3.646,5.393-8.906v0.078c0.363-1.354,0.794-2.564,1.288-3.633c1.016-2.137,2.254-3.557,3.711-4.258
		l-0.468,0.938c-0.392,0.833-0.678,1.811-0.86,2.93c-0.676,3.595-0.431,7.879,0.742,12.853c0.34,1.407,0.612,2.437,0.819,3.086
		c1.721,5.834,3.727,8.256,6.018,7.267c2.266-0.963,3.138-4.322,2.617-10.078c-0.184-1.875-0.494-3.672-0.938-5.392
		c-0.808-3.255-0.91-6.444-0.313-9.569c0.572-2.893,1.771-5.613,3.595-8.166c1.224-1.744,2.644-3.279,4.257-4.608l0.156,0.978
		c-1.563,2.916-2.148,5.977-1.758,9.18c0.443,3.619,2.267,9.298,5.47,17.031c0.603,1.459,1.13,3.021,1.582,4.688
		c0.062,0.205,0.12,0.413,0.176,0.625c-2.655,1.744-9.428,5.925-20.313,12.539c-8.281,5.053-14.728,9.259-19.336,12.618
		c-0.072-0.051-0.145-0.102-0.215-0.156c-3.687-2.511-8.186-5.361-13.498-8.557c-0.604-0.353-1.197-0.696-1.777-1.033
		c-5.501-3.215-9.714-5.682-12.637-7.403c-0.021-0.079-0.04-0.157-0.059-0.233c-0.659-2.479-1.721-4.978-3.184-7.5
		c-0.818-1.435-1.469-2.881-1.953-4.338c-0.43-1.313-0.723-2.635-0.879-3.963c-0.298-2.524-0.11-5.084,0.566-7.678
		c0.808-3.177,2.188-6.016,4.141-8.518l0.079,0.471c-0.573,2.161-0.833,3.997-0.781,5.508c0.078,1.822,0.599,3.776,1.563,5.859
		c-0.104-2.215,0.104-4.609,0.625-7.188c0.391-1.952,0.977-3.905,1.758-5.86c2.083-5.104,2.839-10.012,2.266-14.727
		c-0.208-1.484-0.521-2.852-0.938-4.102l-0.586-1.446l1.484,0.899c1.198,0.857,2.24,1.926,3.125,3.201
		c2.865,4.143,3.79,9.702,2.774,16.683c-0.547,3.724-0.677,6.849-0.391,9.375c0.365,3.308,1.458,5.561,3.281,6.758
		c1.12,0.729,2.683,1.095,4.688,1.095c1.094,0,2.213-0.392,3.359-1.173c1.433-0.938,2.449-2.253,3.047-3.944
		c1.642-4.688-0.287-11.107-5.781-19.26c-3.151-4.714-4.779-9.637-4.883-14.767c-0.078-3.984,0.769-7.982,2.54-11.992
		c1.432-3.308,3.255-6.226,5.468-8.751l0.118,0.313c-0.417,1.692-0.729,3.58-0.938,5.664c-0.312,3.281-0.273,6.406,0.117,9.375
		c0.573,4.818,2.096,8.946,4.57,12.385c3.542,4.922,5.168,5.104,4.883,0.547c-0.234-3.568-1.082-7.385-2.539-11.446L154.43,199.906z
		 M194.861,238.736l-0.353-0.82l1.603,1.055c1.172,1.016,2.084,2.331,2.734,3.945l0.43,1.25l-0.978,0.665
		c-0.493,0.392-1.067,0.78-1.719,1.172l-1.134,0.781c0.041-0.273,0.074-0.548,0.099-0.82c0.183-1.646,0.147-3.274-0.099-4.883
		C195.291,240.247,195.096,239.466,194.861,238.736z M205.486,225.455c0.781-1.275,1.523-2.279,2.227-3.01l-0.781,4.885
		c-0.293,3.626,0,6.881,0.879,9.766c0.059,0.188,0.115,0.368,0.178,0.547l-5.313,4.103c-0.062-0.207-0.12-0.415-0.176-0.624
		c-0.647-2.52-0.72-5.148-0.215-7.893C202.805,230.572,203.872,227.98,205.486,225.455z M104.037,234.01
		c0.016,0.053,0.029,0.105,0.039,0.156c0,0.025,0,0.052,0,0.078c0,0.025,0.013,0.052,0.039,0.078v0.078
		c0,0.156,0.013,0.3,0.039,0.43v0.156c0.026,0.13,0.039,0.272,0.039,0.43l-0.859,7.032c-0.01,0.038-0.023,0.077-0.039,0.116
		c-0.02,0.064-0.046,0.131-0.079,0.194c-1.823-1.327-3.62-2.694-5.391-4.102c0.02-0.05,0.04-0.103,0.059-0.156
		c0.976-2.442,1.477-5.188,1.504-8.242c0.007-0.797-0.019-1.616-0.078-2.461l-0.82-5.233l1.289,1.602
		c1.016,1.38,1.862,2.825,2.54,4.336c0.755,1.641,1.289,3.281,1.602,4.922C103.961,233.611,104,233.809,104.037,234.01z
		 M111.186,239.323c-0.338,1.172-0.547,2.421-0.625,3.75c0.049,1.444,0.329,3.11,0.839,4.999c0.031,0.113,0.063,0.229,0.098,0.353
		l-4.844-3.202c0.021-0.093,0.041-0.185,0.059-0.274c0.193-0.783,0.395-1.423,0.605-1.913c0.651-1.615,1.576-2.943,2.774-3.985
		l1.601-1.055L111.186,239.323z"/>
	<path fill="#EF3C24" d="M79.465,81.815l-0.508-2.891l1.992,3.086c1.485,2.604,2.657,5.339,3.516,8.203
		c2.761,9.167,1.888,17.866-2.617,26.096c-4.688,8.516-6.329,15.222-4.922,20.118c0.495,1.771,1.354,3.151,2.579,4.141
		c0.26,0.208,0.521,0.391,0.781,0.547c-0.235,2.422-0.69,4.896-1.367,7.422c-0.558,2.102-0.949,4.199-1.172,6.289
		c-5.987,6.902-9.236,15.055-9.747,24.453c-0.534-0.616-0.879-1.047-1.035-1.287c-0.755-1.277-1.328-2.201-1.719-2.774
		c-0.625-0.989-1.289-1.81-1.992-2.461c-0.417-0.391-2.344-1.758-5.782-4.103c-2.292-1.535-3.88-3.256-4.766-5.156
		c-0.912-1.979-1.758-5.781-2.54-11.406c-0.651-4.454-1.692-7.826-3.125-10.118c0.729,0.963,2.005,2.188,3.828,3.672
		c2.136,1.719,3.451,3.138,3.946,4.258c0.338,0.782,0.495,2.071,0.469,3.868c-0.026,1.771,0.169,3.086,0.586,3.944
		c0.573,1.173,1.354,2.148,2.344,2.931c1.067,0.858,2.2,1.354,3.398,1.483c0.833,0.104,2.11-0.063,3.829-0.508
		c1.484-0.392,2.787-0.403,3.907-0.039c-2.24-1.433-3.92-2.903-5.04-4.414c-0.912-1.25-1.888-3.19-2.93-5.819
		c0.807,1.118,2.292,2.03,4.453,2.733c0.938,0.339,2.213,0.729,3.829,1.172c-3.959-2.553-6.459-6.576-7.5-12.071
		c-0.338-1.823-0.495-3.698-0.469-5.625l0.157-2.344c0.989,5.495,2.513,8.607,4.57,9.336c0.808,0.287,1.341-0.091,1.602-1.133
		c0.261-1.172,0.078-2.839-0.547-5c-3.49-11.068-3.477-21.316,0.039-30.744c1.12-2.969,2.513-5.664,4.18-8.086
		c0.833-1.224,1.563-2.148,2.188-2.773c-1.224,4.219-1.94,8.204-2.148,11.954c-0.261,4.766,1.12,4.571,4.141-0.586
		c2.917-4.974,4.311-11.342,4.18-19.102C79.999,86.659,79.804,84.237,79.465,81.815z M102.591,67.947l2.344,2.266
		c1.849,2.005,3.463,4.232,4.844,6.68c4.375,7.865,5.599,16.537,3.672,26.017c-1.094,5.391-1.484,10.196-1.172,14.415
		c0.286,3.776,1.055,6.42,2.305,7.93c1.25,1.484,2.617,1.433,4.102-0.156c1.641-1.771,3.047-5.091,4.219-9.961
		c2.135-8.854,2.826-16.446,2.07-22.774c-0.234-1.979-0.612-3.711-1.133-5.196l-0.664-1.641c2.76,1.667,4.792,5.6,6.094,11.797
		v-0.117c0.703,3.802,1.719,6.954,3.047,9.454c1.198,2.188,2.383,3.49,3.555,3.907c1.172,0.391,1.94-0.156,2.305-1.641
		c0.391-1.641,0.13-4.011-0.781-7.11c-5.026-15.86-5-30.562,0.078-44.104c1.588-4.219,3.581-8.074,5.977-11.563
		c1.199-1.745,2.24-3.06,3.125-3.945c-1.771,6.016-2.799,11.719-3.086,17.11c-0.365,6.797,1.614,6.511,5.938-0.86
		c4.192-7.11,6.186-16.225,5.977-27.345c-0.078-3.464-0.365-6.928-0.859-10.391l-0.702-4.141l2.852,4.375
		c2.136,3.75,3.814,7.683,5.039,11.797c3.984,13.125,2.734,25.574-3.75,37.345c-3.75,6.823-6.146,12.839-7.188,18.048l-0.391-0.742
		l0.233,1.68c-0.625,3.698-0.534,6.979,0.273,9.844c0.184,0.625,0.391,1.211,0.625,1.758c0.156,10.183-1.29,18.516-4.336,25.001
		c-3.177,6.745-4.636,7.005-4.375,0.781c0.208-4.922,0.963-10.131,2.266-15.626c-0.651,0.833-1.407,2.044-2.266,3.633
		c-1.745,3.177-3.204,6.693-4.375,10.547c-1.832,6.134-2.756,12.534-2.773,19.2c-3.1-1.536-6.297-2.721-9.59-3.555
		c-1.039-1.483-2.139-2.857-3.301-4.122l-2.227-2.188l1.289,3.32c0.258,0.74,0.505,1.482,0.743,2.227
		c-4.283-0.75-8.723-0.932-13.321-0.546c-3.354,0.278-6.544,0.832-9.571,1.66c-0.304-2.016-0.747-3.988-1.328-5.918
		c-0.781-2.552-1.745-4.87-2.891-6.953l-1.484-2.383c0.833,3.698,1.315,7.123,1.445,10.274c0.183,4.088-0.768,3.919-2.852-0.508
		c-2.005-4.271-2.956-9.753-2.852-16.446l0.743-8.751l-1.368,2.657c-0.104,0.234-0.208,0.482-0.313,0.742
		c0.391-2.813,1.185-5.261,2.383-7.344c1.225-2.162,2.54-3.594,3.946-4.297l-0.508,1.523c-0.365,1.302-0.625,2.721-0.781,4.258
		c-0.495,4.948,0.143,10.079,1.914,15.392l0.508,1.758c0.469-4.896,1.55-9.857,3.242-14.884c4.297-12.708,6.576-21.824,6.836-27.345
		C106.55,78.208,105.3,73.26,102.591,67.947z M177.048,49.704l-0.702,2.188c-0.521,1.875-0.898,3.919-1.134,6.133
		c-0.703,7.083,0.208,14.428,2.733,22.032c2.188,6.433,3.179,12.944,2.97,19.532c1.25-3.359,1.888-6.498,1.915-9.414
		c0-2.318-0.43-5.3-1.29-8.946l1.758,2.969c1.328,2.526,2.384,5.208,3.164,8.047c2.5,9.011,1.759,17.761-2.228,26.251
		c-0.26,0.547-0.493,1.081-0.702,1.602c-0.207-2.5-0.039-4.518,0.508-6.055c0.287-0.807,0.678-1.432,1.172-1.875
		c0.233-0.234,0.442-0.378,0.625-0.43c-0.547-0.13-1.133-0.039-1.758,0.273c-1.249,0.599-2.044,2.005-2.384,4.219
		c-0.207-1.328-0.324-2.891-0.352-4.688c-0.078-3.594,0.313-6.563,1.172-8.907c-0.338,0.26-0.755,0.651-1.25,1.172
		c-0.963,1.068-1.797,2.292-2.5,3.672c-2.266,4.428-2.813,9.636-1.641,15.626c-0.234-0.208-0.547-0.391-0.938-0.547
		c-0.756-0.287-1.484-0.273-2.188,0.039l1.405,1.25c1.095,1.172,2.045,2.565,2.853,4.18c0.679,1.328,1.224,2.748,1.642,4.258
		c-0.506,3.496-0.363,6.152,0.43,7.969c-4.469,1.012-8.643,2.581-12.521,4.707c-1.746-6.778-2.363-13.321-1.854-19.63
		c0.184-2.031,0.457-3.906,0.821-5.625l0.545-1.992c-0.363,0.234-0.807,0.639-1.326,1.211c-1.068,1.172-1.993,2.644-2.774,4.415
		c-2.577,5.651-3.411,13.243-2.5,22.774c0.115,1.191,0.214,2.337,0.293,3.438c-3.344,2.732-6.099,5.857-8.262,9.375
		c-1.256-2.071-2.792-4.032-4.61-5.879c0.736-4.806,2.494-10.373,5.274-16.7c4.192-9.532,5.392-19.558,3.594-30.08
		c0.599,0.208,1.185,0.313,1.759,0.313c3.411,0,5.873-1.172,7.383-3.516c2.553-3.933,3.178-11.354,1.875-22.267
		c-1.25-10.443-0.117-18.764,3.397-24.962C173.168,52.764,175.043,50.72,177.048,49.704z M212.559,79.08l-0.509,2.891
		c-0.339,2.396-0.534,4.805-0.587,7.227c-0.129,7.734,1.264,14.089,4.182,19.063c3.021,5.157,4.4,5.365,4.141,0.625
		c-0.208-3.75-0.926-7.735-2.148-11.954l2.188,2.774c1.667,2.422,3.062,5.104,4.181,8.047c3.516,9.428,3.527,19.663,0.039,30.705
		c-0.625,2.162-0.795,3.815-0.509,4.961c0.233,1.042,0.756,1.433,1.563,1.172c2.084-0.703,3.621-3.79,4.609-9.258
		c-0.104,0.704,0.716,1.823,2.46,3.36c0.912,0.807,2.071,1.797,3.478,2.969c1.328,1.537,2.137,3.294,2.422,5.274
		c0.34,2.135-0.064,3.998-1.211,5.585l-3.047,3.242c-1.066,1.119-1.692,2.476-1.875,4.063c-0.024,0.188-0.052,0.416-0.078,0.684
		c-2.232-3.479-5.098-6.741-8.594-9.784c-4.541-3.978-9.386-6.945-14.533-8.908c0.142,0,0.285,0,0.432,0
		c0.938,0,1.9-0.404,2.891-1.211c1.225-0.989,2.084-2.356,2.578-4.102c1.406-4.922-0.234-11.628-4.923-20.118
		c-4.53-8.204-5.417-16.875-2.655-26.017c0.858-2.865,2.045-5.612,3.555-8.243C211.334,80.825,211.984,79.81,212.559,79.08z
		 M197.674,103.105c0.99,0.885,1.875,2.005,2.656,3.359c2.447,4.323,3.242,10.118,2.384,17.384
		c-0.729,6.146-0.586,10.717,0.431,13.711c-0.188,0.815-0.344,1.622-0.471,2.422c-3.482-0.77-7.09-1.122-10.82-1.055
		c-1.654,0.031-3.275,0.123-4.862,0.274c1.17-1.421,2.374-3.348,3.612-5.782c4.584-8.933,6.992-16.798,7.228-23.595
		c-0.104-2.005-0.378-3.88-0.819-5.625l-0.625-2.031L197.674,103.105z M236.934,159.084c1.484-0.521,2.486-0.95,3.008-1.289
		c0.912-0.6,1.59-1.472,2.033-2.617c-1.226,3.906-2.138,8.165-2.736,12.773c-0.129,0.965-0.324,2.475-0.586,4.531
		c-0.276,1.449-0.668,2.662-1.172,3.634c-0.612-5.127-2.233-9.913-4.862-14.356c0.474-0.469,0.909-0.853,1.309-1.152
		C234.759,160.008,235.762,159.501,236.934,159.084z M83.684,148.967c0.261-2.657,0.313-5.092,0.157-7.305
		c1.537-0.26,2.722-0.964,3.555-2.109c0.313,0.99,0.69,1.979,1.133,2.969c0.387,0.889,0.745,1.755,1.074,2.598
		c-2.083,1.166-4.062,2.5-5.938,4.004C83.672,149.071,83.679,149.019,83.684,148.967z M67.96,183.988
		c0.262,7.98,1.747,15.436,4.454,22.363c-1.375-1.272-2.541-2.511-3.497-3.711c-2.552-3.229-4.023-6.627-4.414-10.195
		c-0.208-3.541-0.43-6.238-0.664-8.088c-0.208-1.719-0.547-3.229-1.016-4.529c0.729,1.066,1.602,1.979,2.617,2.732
		C66.239,183.166,67.079,183.641,67.96,183.988z"/>
	<path fill="#F47621" d="M92.044,47.125c-1.276,3.907-1.302,7.409-0.079,10.509c1.641,4.141,2.097,7.708,1.368,10.703
		c-0.886,3.646-3.594,7.071-8.125,10.274c0.573-1.016,0.963-2.305,1.172-3.868c0.443-3.177-0.221-6.198-1.992-9.063
		c-2.318-3.75-2.878-7.344-1.68-10.782c1.407-4.037,5.287-8.256,11.642-12.657L92.044,47.125z M150.914,91.19l-0.507-3.789
		l2.069,4.023c1.563,3.412,2.787,7.006,3.672,10.782c0.34,1.354,0.625,2.708,0.859,4.063c1.797,10.521,0.6,20.548-3.594,30.08
		c-2.78,6.328-4.538,11.895-5.274,16.7c-2.806-2.858-6.282-5.443-10.43-7.754c-0.673-0.373-1.351-0.731-2.032-1.074
		c0.017-6.666,0.941-13.066,2.773-19.2c1.172-3.854,2.63-7.37,4.375-10.547c0.859-1.588,1.615-2.8,2.266-3.633
		c-1.303,5.495-2.058,10.704-2.266,15.626c-0.261,6.224,1.198,5.963,4.375-0.781c3.047-6.485,4.492-14.819,4.336-25.001
		C151.486,97.532,151.277,94.368,150.914,91.19z M118.139,29.273l-0.625-1.367c4.115,2.475,6.628,5.222,7.54,8.243
		c0.234,0.808,0.404,1.888,0.508,3.243c0.078,1.224,0.221,2.057,0.43,2.5c0.547,1.146,1.068,0.873,1.563-0.82l0.586-2.891
		c0.572,2.109,0.546,4.167-0.079,6.172c-0.703,2.266-2.201,4.597-4.492,6.992c-2.005,2.11-2.995,5.105-2.969,8.985
		c0,1.954,0.209,3.686,0.625,5.196c-7.865-7.345-9.337-14.702-4.415-22.072c2.162-3.177,2.93-6.719,2.305-10.625
		C118.907,31.604,118.582,30.419,118.139,29.273z M208.848,39.665l-0.586,1.328c-0.443,1.146-0.757,2.331-0.938,3.555
		c-0.548,4.011,0.3,7.826,2.54,11.446c2.941,4.74,3.658,9.284,2.147,13.634c-1.771,5.104-6.667,10.43-14.688,15.977
		c1.121-1.667,2.084-3.724,2.892-6.172c1.615-4.922,1.642-9.35,0.078-13.282c-2.084-5.235-2.67-9.74-1.758-13.516
		C199.68,48.024,203.116,43.701,208.848,39.665z M185.837,111.738c-0.183,0.052-0.392,0.195-0.625,0.43
		c-0.494,0.443-0.885,1.068-1.172,1.875c-0.547,1.537-0.715,3.555-0.508,6.055c0.131,1.693,0.442,3.607,0.938,5.743
		c1.096,4.704,0.979,9.274-0.353,13.712c-1.08,0.163-2.147,0.352-3.203,0.566c-0.031-2.822-0.369-5.433-1.017-7.832
		c-0.416-1.51-0.963-2.93-1.641-4.258c-0.808-1.615-1.758-3.008-2.852-4.18l-1.406-1.25c0.703-0.313,1.434-0.326,2.188-0.039
		c0.392,0.156,0.703,0.338,0.938,0.547c-1.172-5.99-0.625-11.198,1.642-15.626c0.703-1.38,1.537-2.604,2.5-3.672
		c0.494-0.521,0.912-0.912,1.25-1.172c-0.859,2.344-1.25,5.313-1.172,8.907c0.025,1.797,0.143,3.359,0.352,4.688
		c0.339-2.213,1.134-3.62,2.383-4.219C184.704,111.699,185.29,111.608,185.837,111.738z M205.645,130.059l1.367-2.656l-0.742,8.75
		c-0.024,1.694,0.021,3.309,0.137,4.844c-1.23-0.393-2.475-0.731-3.731-1.015c0.127-0.8,0.283-1.607,0.47-2.422
		c0.025-0.156,0.053-0.299,0.078-0.43C203.82,134.656,204.627,132.299,205.645,130.059z M120.561,134.356l2.227,2.188
		c1.162,1.265,2.262,2.639,3.301,4.122c-1.153-0.3-2.319-0.553-3.496-0.762c-0.237-0.745-0.484-1.487-0.743-2.227L120.561,134.356z
		 M163.219,123.34c0.781-1.771,1.706-3.243,2.774-4.415c0.521-0.572,0.963-0.977,1.327-1.211l-0.547,1.992
		c-0.363,1.719-0.638,3.594-0.82,5.625c-0.508,6.309,0.109,12.852,1.855,19.63c-0.529,0.296-1.058,0.602-1.582,0.918
		c-1.877,1.133-3.615,2.357-5.216,3.672c-0.079-1.101-0.178-2.247-0.293-3.438C159.809,136.583,160.641,128.991,163.219,123.34z
		 M125.405,151.408c0.302,0.088,0.602,0.186,0.898,0.293c-0.298-0.096-0.598-0.188-0.898-0.273
		c-0.375-0.111-0.753-0.222-1.133-0.332C124.653,151.193,125.031,151.299,125.405,151.408z M138.159,158.4
		c0.06-0.058,0.118-0.115,0.176-0.176c-0.024,0.088-0.05,0.18-0.078,0.272c-0.269,1.028-0.504,2.129-0.703,3.301
		c-0.365,2.111-0.612,4.448-0.742,7.013c-0.417,8.205,0.899,15.195,3.946,20.979c-1.771,4.01-2.618,8.008-2.54,11.992
		c0.104,5.13,1.732,10.053,4.883,14.767c5.495,8.151,7.422,14.571,5.781,19.259c-0.599,1.692-1.614,3.008-3.047,3.945
		c-1.146,0.781-2.265,1.173-3.359,1.173c-2.005,0-3.567-0.364-4.688-1.095c-1.823-1.197-2.917-3.45-3.281-6.758
		c3.802-0.834,6.185-3.309,7.149-7.422c1.328-5.782-1.185-13.387-7.54-22.813c-6.615-9.819-7.891-20.196-3.828-31.136
		c1.503-4.047,3.365-7.557,5.586-10.527C136.597,160.191,137.358,159.268,138.159,158.4z M137.495,157.834
		c-0.255-0.195-0.509-0.393-0.762-0.586c-0.332-0.26-0.664-0.514-0.996-0.762c0.335,0.238,0.667,0.484,0.996,0.742
		C136.987,157.428,137.241,157.629,137.495,157.834z M169.586,215.648l-1.404,3.634c-0.834,3.308-0.938,7.253-0.313,11.837
		c-0.494,1.066-0.925,2.277-1.288,3.633v-0.078c-1.172,5.262-2.971,8.229-5.393,8.906c-0.963,0.261-1.588-0.104-1.875-1.094
		c-0.313-1.119-0.104-2.709,0.625-4.766c1.199-3.125,2.045-6.199,2.539-9.22c0.365-1.12,0.651-2.162,0.859-3.126v0.118
		C164.689,220.285,166.773,217.004,169.586,215.648z M123.529,224.398l0.313-0.391l-0.234,0.86L123.529,224.398z M123.608,224.869
		c0.313,1.718,0.781,3.111,1.406,4.18c-0.521,2.578-0.729,4.975-0.625,7.188c-0.964-2.082-1.484-4.036-1.563-5.858
		C122.774,228.866,123.035,227.029,123.608,224.869z M120.444,190.961c3.567,5.13,4.713,12.044,3.438,20.743
		c-0.729,5.209-0.847,9.44-0.352,12.694c-1.953,2.502-3.333,5.34-4.141,8.518c-0.676,2.594-0.865,5.152-0.566,7.677
		c0.156,1.329,0.449,2.651,0.879,3.964c0.484,1.457,1.135,2.903,1.953,4.338c1.463,2.522,2.525,5.021,3.184,7.5
		c0.019,0.076,0.038,0.154,0.059,0.233c-5.391-3.151-9.857-5.886-13.399-8.203c-0.034-0.122-0.066-0.237-0.098-0.353
		c-0.511-1.889-0.791-3.555-0.839-4.999c0.078-1.329,0.287-2.578,0.625-3.75l0.507-1.329l-1.601,1.055
		c-1.198,1.042-2.123,2.37-2.774,3.985c-1.615-2.839-2.682-5.718-3.203-8.634v-0.078c-0.026-0.026-0.039-0.053-0.039-0.078
		c0-0.026,0-0.053,0-0.078c-0.01-0.051-0.023-0.104-0.039-0.156c-0.036-0.201-0.076-0.396-0.117-0.586
		c-0.393-2.751-0.328-5.523,0.195-8.32c0.244-1.285,0.582-2.574,1.016-3.867c0.807-2.344,1.875-4.57,3.203-6.68l1.797-2.462
		c-0.885,3.048-1.315,5.521-1.289,7.423c0,2.447,0.638,5.064,1.915,7.852c-0.209-5.442,0.794-10.859,3.008-16.25
		c2.604-6.355,3.542-12.475,2.813-18.36c-0.234-1.823-0.612-3.528-1.133-5.116l-0.742-1.798l1.875,1.093
		C118.035,188.005,119.324,189.348,120.444,190.961z M154.43,199.906l-1.992-2.031c1.457,4.063,2.306,7.878,2.539,11.445
		c0.287,4.558-1.341,4.375-4.883-0.547c-2.474-3.438-3.997-7.564-4.57-12.383c2.578,2.604,3.698,1.666,3.359-2.813
		c-0.261-3.411-1.106-7.487-2.539-12.228l-0.586-1.797l1.758,1.719c1.433,1.511,2.787,3.189,4.063,5.039
		c4.011,5.912,6.366,12.41,7.069,19.494C157.425,203.645,156.018,201.678,154.43,199.906z M170.992,243.58
		c1.693,4.143,3.543,6.146,5.548,6.018c1.928-0.104,3.229-2.02,3.907-5.742c0.52,5.754-0.354,9.113-2.618,10.078
		c-2.291,0.988-4.297-1.434-6.017-7.268C171.605,246.016,171.332,244.986,170.992,243.58z M199.51,230.26
		c1.067,0.781,1.992,1.771,2.773,2.969c-0.506,2.742-0.434,5.373,0.215,7.893c0.057,0.209,0.115,0.417,0.176,0.624l-3.398,2.422
		l-0.43-1.25c0.859-3.438,1.004-6.719,0.43-9.844l-1.133-3.634L199.51,230.26z M183.454,208.148
		c2.215-3.125,4.569-5.508,7.071-7.148c-1.668,2.734-2.762,5.039-3.282,6.915c-0.65,2.37-0.716,5.104-0.195,8.203
		c-1.614,1.329-3.032,2.864-4.257,4.608c-1.824,2.553-3.021,5.273-3.596,8.166C177.634,221.34,179.055,214.426,183.454,208.148z
		 M187.048,216.118l1.328-1.017l-1.172,1.992c0.887,4.401,3.048,10.756,6.485,19.063c0.703,1.719,1.289,3.36,1.758,4.923
		c0.244,1.607,0.279,3.236,0.098,4.883c-0.023,0.273-0.057,0.547-0.098,0.82l-2.773,1.836c-0.056-0.212-0.113-0.42-0.176-0.625
		c-0.452-1.667-0.98-3.229-1.582-4.688c-3.203-7.734-5.025-13.412-5.471-17.031c-0.391-3.205,0.195-6.265,1.759-9.182
		L187.048,216.118z M95.481,128.146c1.146,2.083,2.109,4.401,2.891,6.953c0.581,1.93,1.024,3.903,1.328,5.918
		c-3.598,0.979-6.964,2.346-10.098,4.102c-0.329-0.842-0.687-1.708-1.074-2.598c-0.443-0.99-0.82-1.979-1.133-2.969
		c-2.083-6.172-2.317-12.67-0.703-19.493c0.547-2.214,1.25-4.323,2.109-6.329c0.104-0.26,0.208-0.508,0.313-0.742l1.368-2.657
		l-0.743,8.751c-0.104,6.693,0.847,12.175,2.852,16.446c2.083,4.428,3.034,4.597,2.852,0.508c-0.13-3.152-0.612-6.576-1.445-10.274
		L95.481,128.146z M209.159,236.666c-0.068-0.164-0.134-0.326-0.195-0.488c-2.294-5.865-2.071-11.928,0.664-18.185
		c0.886-2.005,1.979-3.906,3.281-5.703c0.649-0.912,1.211-1.614,1.68-2.108l-1.017,6.797c-0.325,5.123,0.306,9.603,1.896,13.438
		c0.056,0.146,0.114,0.289,0.177,0.43C213.664,232.771,211.503,234.713,209.159,236.666z M82.083,133.966
		c0.963,2.135,1.549,4.701,1.758,7.696c0.156,2.213,0.104,4.648-0.157,7.305c-0.005,0.052-0.011,0.104-0.019,0.156
		c-1.375,1.106-2.697,2.305-3.965,3.594c-0.684,0.691-1.334,1.396-1.953,2.109c0.223-2.09,0.614-4.188,1.172-6.289
		c0.677-2.526,1.132-5,1.367-7.422c0.156-1.979,0.156-3.92,0-5.821l-0.899-5l0.859,0.781
		C80.949,131.856,81.562,132.82,82.083,133.966z M152.809,273.621c-0.033,0.029-0.065,0.055-0.098,0.078
		c-3.008-2.108-8.067-5.331-15.177-9.668c0.581,0.337,1.174,0.682,1.777,1.033C144.624,268.259,149.123,271.109,152.809,273.621z
		 M93.685,235.104l0.664-0.625l-0.313,0.938L93.685,235.104z M94.974,229.518l-0.547,1.445c-0.411,1.232-0.685,2.568-0.82,4.004
		c0.002,0.021,0.002,0.039,0,0.059l-1.231-1.133c-0.398-0.365-0.795-0.729-1.191-1.094c0.755-1.016,1.615-1.875,2.579-2.578
		L94.974,229.518z M79.036,212.682l-0.508-2.384l3.359,4.688c2.292,3.933,3.555,7.902,3.789,11.914
		c-2.318-2.733-4.336-5.494-6.055-8.28C79.569,216.639,79.374,214.659,79.036,212.682z M100.013,152.17
		c-0.284,0.09-0.564,0.188-0.84,0.293c0.278-0.115,0.558-0.227,0.84-0.332c0.592-0.211,1.19-0.406,1.797-0.586
		C101.207,151.745,100.608,151.955,100.013,152.17z M83.606,162.541c0.241-0.266,0.488-0.525,0.742-0.781
		c2.227-2.232,4.844-4.227,7.852-5.977c0.472-0.271,0.954-0.539,1.445-0.801c-0.488,0.272-0.97,0.547-1.445,0.819
		c-3.021,1.745-5.638,3.737-7.852,5.978C84.097,162.029,83.85,162.284,83.606,162.541z M78.957,169.007
		c-0.129,0.237-0.26,0.478-0.391,0.724c0.128-0.254,0.259-0.502,0.391-0.742V169.007z"/>
	<path fill="#6E0E10" d="M184.118,139.552c0.944-0.139,1.901-0.256,2.872-0.352c1.587-0.151,3.207-0.243,4.863-0.274
		c3.729-0.066,7.336,0.286,10.819,1.055c1.259,0.284,2.501,0.623,3.731,1.015c0.777,0.252,1.553,0.525,2.322,0.821
		c5.147,1.961,9.991,4.93,14.533,8.908c3.496,3.043,6.36,6.305,8.594,9.784c0.26,0.414,0.516,0.83,0.763,1.25
		c2.629,4.443,4.25,9.229,4.862,14.356c0.158,1.32,0.25,2.662,0.273,4.023c0.208,11.979-2.514,22.879-8.164,32.696
		c-3.453,6.013-8.16,11.873-14.122,17.579c-1.59-3.836-2.221-8.314-1.896-13.438l1.017-6.797c-0.469,0.494-1.028,1.196-1.68,2.108
		c-1.304,1.797-2.396,3.698-3.281,5.703c-2.735,6.257-2.958,12.319-0.664,18.185c-0.233,0.188-0.469,0.376-0.703,0.566
		c-0.147,0.117-0.297,0.234-0.45,0.352c-0.879-2.885-1.172-6.14-0.879-9.766l0.781-4.885c-0.702,0.729-1.443,1.732-2.227,3.01
		c-1.614,2.525-2.682,5.117-3.203,7.773c-0.781-1.199-1.706-2.188-2.773-2.97l-1.367-0.819l1.133,3.633
		c0.574,3.125,0.431,6.406-0.43,9.844c-0.65-1.614-1.563-2.93-2.734-3.945l-1.602-1.055l0.352,0.82
		c0.234,0.729,0.431,1.511,0.586,2.345c-0.469-1.563-1.055-3.204-1.758-4.923c-3.438-8.309-5.599-14.662-6.484-19.063l1.172-1.991
		l-1.328,1.016c-0.521-3.1-0.455-5.833,0.195-8.203c0.521-1.876,1.613-4.182,3.281-6.915c-2.5,1.642-4.855,4.024-7.07,7.149
		c-4.4,6.275-5.82,13.189-4.258,20.742c-0.6,3.125-0.495,6.315,0.313,9.57c0.443,1.719,0.756,3.516,0.938,5.393
		c-0.679,3.724-1.979,5.637-3.907,5.741c-2.005,0.13-3.854-1.875-5.548-6.017c-1.173-4.975-1.418-9.258-0.742-12.852
		c0.185-1.121,0.47-2.098,0.86-2.931l0.468-0.938c-1.457,0.703-2.695,2.123-3.711,4.258c-0.625-4.584-0.521-8.528,0.313-11.836
		l1.404-3.633c-2.813,1.354-4.896,4.635-6.25,9.844v-0.117c-0.208,0.964-0.494,2.006-0.859,3.126
		c1.303-8.204,0.026-15.771-3.828-22.696c-0.703-7.084-3.06-13.58-7.069-19.494c-1.276-1.849-2.63-3.527-4.063-5.039l-1.758-1.718
		l0.468,1.483c-2.213,2.525-4.036,5.443-5.468,8.751c-3.047-5.782-4.362-12.773-3.946-20.978c0.13-2.564,0.377-4.902,0.742-7.014
		c0.012,0.008,0.025,0.014,0.039,0.02c2.162,0.859,4.349,1.89,6.563,3.088c-1.684-2.271-3.5-4.276-5.45-6.018
		c-0.146-0.132-0.296-0.262-0.449-0.391c0.028-0.094,0.054-0.186,0.078-0.273c-0.058,0.062-0.116,0.119-0.176,0.176
		c-0.219-0.188-0.44-0.377-0.664-0.565c-0.254-0.205-0.508-0.406-0.762-0.604c-0.329-0.258-0.661-0.504-0.996-0.742
		c-1.011-0.734-2.046-1.405-3.105-2.012c-1.199-0.689-2.436-1.295-3.711-1.816c-0.856-0.359-1.729-0.678-2.618-0.957
		c-0.297-0.107-0.597-0.205-0.898-0.293c-0.374-0.109-0.752-0.215-1.133-0.313c-2.659-0.686-5.458-1.083-8.399-1.191
		c-5.104-0.183-9.792,0.364-14.063,1.641c-0.606,0.18-1.205,0.375-1.797,0.586c-0.282,0.105-0.562,0.216-0.84,0.332l-0.273,0.098
		c-0.191,0.076-0.38,0.154-0.566,0.234l-4.688,2.188c-0.491,0.263-0.973,0.529-1.445,0.802c-3.008,1.75-5.625,3.743-7.852,5.977
		c-0.254,0.257-0.501,0.517-0.742,0.781l-4.335,5.86c-0.017,0.039-0.036,0.078-0.058,0.117c-0.043,0.082-0.089,0.168-0.137,0.254
		c-0.035,0.054-0.061,0.104-0.078,0.155c-0.012,0.021-0.025,0.038-0.039,0.06c-0.132,0.242-0.262,0.49-0.391,0.742
		c-3.804,7.435-4.521,16.348-2.148,26.739c1.44,6.278,4.272,12.398,8.497,18.36c3.643,5.127,8.311,10.141,14.004,15.04
		c0.155,0.133,0.312,0.263,0.469,0.391c-0.027,3.054-0.528,5.8-1.504,8.242c-0.019-0.01-0.039-0.022-0.059-0.039
		c-1.299-1.028-2.556-2.063-3.77-3.104l0.293-0.879l-0.625,0.586c-0.038-0.032-0.077-0.064-0.117-0.099
		c0.136-1.437,0.409-2.771,0.82-4.004l0.547-1.446l-1.211,0.705c-0.963,0.702-1.823,1.563-2.579,2.577
		c-6.061-5.633-10.879-11.479-14.454-17.54c-1.681-2.865-3.12-5.834-4.316-8.906c-2.707-6.929-4.191-14.383-4.454-22.363
		c-0.006-0.383-0.013-0.766-0.02-1.153c-0.021-1.202-0.001-2.386,0.059-3.556c0.511-9.398,3.76-17.551,9.747-24.453
		c0.619-0.715,1.27-1.418,1.953-2.109c1.268-1.289,2.59-2.487,3.965-3.594c1.876-1.505,3.855-2.839,5.938-4.004
		c3.134-1.755,6.5-3.123,10.098-4.102c3.026-0.829,6.216-1.382,9.571-1.66c4.598-0.385,9.039-0.203,13.321,0.546
		c1.177,0.209,2.343,0.462,3.496,0.762c3.293,0.834,6.49,2.019,9.59,3.555c0.681,0.343,1.358,0.702,2.032,1.074
		c4.147,2.312,7.624,4.896,10.43,7.754c1.817,1.847,3.354,3.808,4.61,5.879c2.163-3.518,4.918-6.643,8.262-9.375
		c1.6-1.315,3.338-2.54,5.215-3.672c0.525-0.316,1.053-0.622,1.582-0.918c3.879-2.126,8.053-3.695,12.521-4.707
		c0.195-0.043,0.391-0.089,0.586-0.137C181.971,139.904,183.038,139.715,184.118,139.552z M130.679,159.611
		c1.086,0.26,2.18,0.565,3.281,0.918c0.414,0.125,0.831,0.264,1.25,0.41c0.219,0.071,0.44,0.149,0.664,0.233
		c-2.221,2.972-4.083,6.479-5.586,10.527c-4.063,10.938-2.787,21.315,3.828,31.136c6.354,9.428,8.868,17.031,7.54,22.813
		c-0.964,4.115-3.347,6.588-7.149,7.422c-0.287-2.525-0.156-5.65,0.391-9.375c1.016-6.979,0.091-12.539-2.774-16.682
		c-0.885-1.275-1.927-2.344-3.125-3.201l-1.484-0.899l0.586,1.446c0.417,1.25,0.729,2.617,0.938,4.102
		c0.573,4.714-0.183,9.623-2.266,14.727c-0.781,1.955-1.367,3.907-1.758,5.86c-0.625-1.067-1.094-2.462-1.406-4.18l0.234-0.86
		l-0.313,0.391c-0.495-3.254-0.377-7.485,0.352-12.694c1.276-8.699,0.13-15.613-3.438-20.743c-1.12-1.613-2.409-2.956-3.868-4.023
		l-1.875-1.094l0.742,1.797c0.521,1.588,0.898,3.295,1.133,5.117c0.729,5.887-0.208,12.006-2.813,18.36
		c-2.214,5.391-3.217,10.808-3.008,16.25c-1.276-2.786-1.915-5.403-1.915-7.853c-0.026-1.9,0.404-4.375,1.289-7.422l-1.797,2.461
		c-1.328,2.109-2.396,4.336-3.203,6.68c-0.434,1.293-0.772,2.582-1.016,3.869c-0.472-0.597-0.928-1.183-1.367-1.758
		c-0.042-0.045-0.081-0.091-0.118-0.138c-0.03-0.046-0.063-0.091-0.098-0.138c-0.035-0.039-0.068-0.078-0.098-0.116
		c-6.068-8.074-10.157-16.707-12.266-25.899c-1.407-6.146-1.029-12.176,1.132-18.087l4.219-7.95
		c1.425-1.933,3.079-3.685,4.961-5.254l0.371-0.313c0.353-0.279,0.711-0.554,1.074-0.82c0.069-0.067,0.147-0.127,0.235-0.176
		c0.173-0.127,0.349-0.251,0.527-0.371l17.442-5.625c0.033-0.001,0.065-0.001,0.098,0c0.044-0.001,0.09-0.001,0.136,0
		c0.051-0.001,0.103-0.001,0.157,0c0.08-0.001,0.158-0.001,0.234,0c0.084-0.001,0.169-0.001,0.254,0
		c0.396-0.002,0.793,0.004,1.191,0.021c0.389,0.01,0.779,0.021,1.172,0.039c0.72,0.043,1.442,0.107,2.168,0.194
		c0.591,0.062,1.184,0.14,1.777,0.233c1.069,0.166,2.143,0.373,3.223,0.625C130.584,159.588,130.63,159.6,130.679,159.611z
		 M148.882,193.578c0.339,4.479-0.781,5.417-3.359,2.813c-0.391-2.969-0.429-6.094-0.117-9.375c0.208-2.084,0.521-3.972,0.938-5.664
		C147.776,186.091,148.622,190.167,148.882,193.578z M79.036,212.682c0.338,1.979,0.534,3.957,0.586,5.938
		c1.718,2.785,3.737,5.547,6.055,8.281c-0.234-4.012-1.498-7.982-3.789-11.916l-3.359-4.688L79.036,212.682z M104.115,234.4
		c0.521,2.916,1.588,5.795,3.203,8.634c-0.21,0.491-0.413,1.13-0.605,1.913c-1.194-0.814-2.334-1.609-3.418-2.383
		c0.016-0.039,0.029-0.078,0.039-0.116l0.859-7.032c0-0.156-0.013-0.3-0.039-0.43v-0.156
		C104.128,234.7,104.115,234.557,104.115,234.4z"/>
</g>
</svg>
