<?xml version="1.0" encoding="utf-8"?>
<!-- Generator: Adobe Illustrator 16.0.0, SVG Export Plug-In . SVG Version: 6.00 Build 0)  -->
<!DOCTYPE svg PUBLIC "-//W3C//DTD SVG 1.1//EN" "http://www.w3.org/Graphics/SVG/1.1/DTD/svg11.dtd">
<svg version="1.1" id="Layer_1" xmlns="http://www.w3.org/2000/svg" xmlns:xlink="http://www.w3.org/1999/xlink" x="0px" y="0px"
	 width="300px" height="300px" viewBox="0 0 300 300" enable-background="new 0 0 300 300" xml:space="preserve">
<g>
	<path fill="#010101" d="M242.794,152.256c-0.067-0.484-0.153-0.988-0.262-1.513c-0.552,1.034-1.063,2.083-1.532,3.146
		c-0.579,1.317-1.084,2.629-1.516,3.935c0.58-1.318,1.266-2.402,2.06-3.248c-0.203,0.377-0.444,0.962-0.728,1.755
		c-0.188,0.497-0.362,1.097-0.522,1.796c-0.282,1.183-0.451,2.42-0.506,3.711c-0.054,1.265,0,2.521,0.162,3.772
		c0.013,0.105,0.032,0.215,0.062,0.322c-0.082-0.808-0.082-1.642,0-2.502c0.079-1.009,0.254-1.936,0.523-2.783
		c0.311-0.98,0.706-1.842,1.189-2.582c-0.162,0.418-0.295,0.867-0.404,1.352c-0.105,0.458-0.188,0.916-0.24,1.371
		c-0.014,0.177-0.034,0.352-0.061,0.525c0.254-0.929,0.617-1.877,1.088-2.845c0.298-0.618,0.613-1.224,0.949-1.815
		C243.098,155.146,243.01,153.682,242.794,152.256z M278.9,148.645c-1.034,0.793-1.996,1.594-2.883,2.4
		c-0.875,0.809-1.715,1.622-2.521,2.441c-0.484,0.511-0.936,1.021-1.354,1.531c0.256,0.243,0.491,0.492,0.707,0.748
		c0.564,0.604,1.115,1.289,1.653,2.058c0.015,0.026,0.027,0.046,0.04,0.061c0.768-0.471,1.486-0.854,2.159-1.149
		c-0.673,0.512-1.312,1.021-1.917,1.533c0.055,0.066,0.107,0.147,0.163,0.242c0.442-0.525,1.001-1.037,1.674-1.533l1.312-0.809
		c0.67-0.335,1.236-0.578,1.693-0.725c-0.9,0.416-1.675,0.953-2.318,1.611c-0.539,0.538-0.931,1.109-1.17,1.717
		c-0.188,0.416-0.311,0.832-0.363,1.25c0.094,0.215,0.188,0.432,0.281,0.646c0.188-0.188,0.385-0.384,0.586-0.584
		c1.195-1.104,2.334-1.978,3.408-2.623c-0.363,0.282-0.848,0.746-1.453,1.392c-0.402,0.418-0.834,0.889-1.289,1.412
		c-0.338,0.432-0.66,0.854-0.97,1.271c0.054,0.175,0.106,0.357,0.161,0.545c0.188,0.768,0.289,1.514,0.303,2.238
		c0.256,0.472,0.553,0.941,0.889,1.412c0.066,0.107,0.146,0.215,0.242,0.321c-0.041-0.833,0.041-1.651,0.241-2.459
		c0.201-0.901,0.552-1.771,1.048-2.603c0.646-0.996,1.354-1.783,2.119-2.36c-0.281,0.376-0.531,0.786-0.746,1.229
		c-0.082,0.148-0.255,0.578-0.523,1.291c-0.283,0.94-0.451,1.81-0.504,2.604c-0.055,0.807,0.006,1.701,0.181,2.684
		c0,0.025,0.015,0.047,0.04,0.061c-0.053-0.538-0.047-1.076,0.021-1.613c0.095-0.674,0.263-1.324,0.504-1.958
		c0.351-0.752,0.746-1.356,1.188-1.815c-0.106,0.189-0.233,0.498-0.383,0.929l-0.263,0.969c-0.014,0.122-0.033,0.255-0.061,0.403
		c0.27-0.658,0.633-1.331,1.09-2.018c0.282-0.43,0.6-0.859,0.948-1.289c0.054-1.104-0.026-2.146-0.242-3.129
		c-0.216-0.899-0.478-1.674-0.786-2.32c-0.432-0.872-0.955-1.586-1.574-2.137c0.432,0.309,0.807,0.631,1.129,0.969
		c0.351,0.336,0.646,0.699,0.888,1.089c0.499,0.687,0.909,1.446,1.231,2.278c0.256,0.592,0.457,1.225,0.604,1.896
		c0.431-0.432,0.896-0.861,1.392-1.291c0.728-0.633,1.521-1.243,2.381-1.835c0.848-0.606,1.787-1.185,2.824-1.735
		c-1.479,1.467-2.67,2.75-3.57,3.854c-1.211,1.492-2.098,2.804-2.663,3.934c0,0.014-0.007,0.026-0.019,0.04
		c0.012,1.397-0.177,2.993-0.565,4.781c0,0.041-0.007,0.073-0.021,0.101h-28.864c0-0.014,0.014-0.025,0.041-0.041
		c0.025-0.254,0.061-0.518,0.101-0.787c0.162-1.182,0.209-2.318,0.142-3.408c0-0.08-0.014-0.174-0.041-0.281
		c0.027,1.197-0.066,2.34-0.281,3.43c-0.094,0.391-0.188,0.752-0.281,1.09h-41.735c0.106-0.363,0.208-0.728,0.302-1.09
		c0.176-0.713,0.31-1.445,0.403-2.199c-0.255,1.104-0.519,2.199-0.787,3.289H71.577c0.282-2.3,0.713-4.397,1.291-6.295
		c0.471-1.601,1.042-3.146,1.714-4.639c-0.282-0.889-0.611-1.749-0.988-2.583c-0.323-0.753-0.672-1.499-1.049-2.239
		c-0.216,0.942-0.423,2.012-0.625,3.208c-0.014,0.136-0.027,0.275-0.041,0.425c0.323-0.121,0.632-0.229,0.928-0.324
		c-0.296,0.108-0.619,0.242-0.968,0.404c-0.202,1.452-0.356,2.965-0.463,4.538c-0.162,2.528-0.202,5.028-0.122,7.505H42.348
		c0.014-0.283,0.034-0.564,0.061-0.848c0.053-1.077-0.027-2.247-0.243-3.511c-0.309-1.815-0.874-3.894-1.694-6.232
		c-0.108,0.095-0.209,0.194-0.303,0.302c-0.013,0.123-0.02,0.235-0.02,0.344c0.591,1.641,1.076,3.375,1.452,5.205
		c0.336,1.586,0.578,3.166,0.726,4.74h-9.723c0.055-0.472,0.142-0.963,0.263-1.474c0.027-0.026,0.047-0.065,0.061-0.121
		c-0.107-0.106-0.215-0.208-0.323-0.303c-0.148,0.604-0.269,1.237-0.363,1.896h-1.654c0.255-1.009,0.544-1.988,0.867-2.945
		c-0.121-0.094-0.235-0.181-0.343-0.262c-0.201,1.035-0.376,2.104-0.524,3.207h-2.945c-0.013-0.632-0.087-1.318-0.222-2.058
		c-0.229-1.397-0.659-2.985-1.291-4.761c-0.067,0.08-0.147,0.16-0.242,0.242c0,0.082,0,0.16,0,0.241
		c0.457,1.265,0.827,2.589,1.11,3.974c0.161,0.795,0.295,1.582,0.403,2.361h-7.04c-0.067-0.068-0.135-0.136-0.202-0.201
		c-0.027,0.065-0.047,0.133-0.061,0.201h-1.129c0.094-0.338,0.195-0.666,0.303-0.988c-0.094-0.067-0.175-0.129-0.242-0.183
		c-0.094,0.378-0.168,0.767-0.222,1.171h-1.251c0.135-0.66,0.283-1.291,0.443-1.896l-0.02-0.02
		c-0.739-0.525-1.499-0.996-2.279-1.412c0.821,0.31,1.628,0.657,2.42,1.049c0.283-1.116,0.612-2.187,0.989-3.209
		c-0.86-0.807-1.809-1.559-2.844-2.258c-0.739-0.498-1.513-0.963-2.32-1.393c-0.833-0.457-1.708-0.854-2.622-1.189
		c0.834,0.229,1.762,0.578,2.784,1.049c0.861,0.391,1.701,0.819,2.521,1.291c0.996,0.552,1.91,1.149,2.744,1.795
		c0.417-1.076,0.868-2.084,1.352-3.025c0.498-0.968,1.042-1.891,1.634-2.764c-0.148-0.256-0.283-0.497-0.403-0.727
		c-1.063-1.828-2.192-3.376-3.389-4.639c1.304,1.169,2.595,2.643,3.873,4.417c0.081,0.12,0.168,0.255,0.262,0.401
		c0.255-0.361,0.504-0.697,0.746-1.008l0.041-0.384l0.02,0.323c0.094-0.146,0.195-0.283,0.303-0.402
		c-0.901-0.445-1.835-0.854-2.804-1.231c0.901,0.271,1.876,0.633,2.925,1.09c0.107-0.162,0.229-0.31,0.363-0.444
		c0.712-0.859,1.458-1.646,2.239-2.359c0.968-0.861,1.835-1.526,2.603-1.998c-0.727,0.485-1.547,1.183-2.461,2.099
		c-0.712,0.726-1.412,1.539-2.098,2.439c-0.107,0.121-0.201,0.256-0.282,0.404c0.121,0.053,0.242,0.106,0.363,0.16
		c0.578,0.255,1.143,0.525,1.694,0.807c0.539-1.681,1.096-3.119,1.674-4.314c-0.471,1.303-0.887,2.811-1.25,4.518
		c0.255,0.135,0.511,0.27,0.767,0.403c0.121-0.08,0.255-0.167,0.403-0.263c-0.134,0.096-0.263,0.195-0.383,0.303
		c0.148,0.066,0.289,0.146,0.424,0.243c1.305,0.725,2.508,1.512,3.61,2.358c0.525-1.397,1.109-2.723,1.755-3.974
		c0.646-1.278,1.358-2.495,2.138-3.651c-0.161-0.322-0.336-0.638-0.524-0.948c-1.399-2.394-2.871-4.424-4.418-6.093
		c1.694,1.561,3.375,3.504,5.042,5.831c0.122,0.174,0.243,0.355,0.363,0.544c0.216-0.35,0.451-0.685,0.707-1.009
		c-0.552-0.43-1.103-0.813-1.654-1.149c0.551,0.309,1.13,0.666,1.735,1.069c0.054-0.108,0.127-0.202,0.222-0.283l0.021-0.484
		l0.02,0.404c0.323-0.43,0.666-0.861,1.029-1.291c0.941-1.129,1.923-2.166,2.945-3.107c1.278-1.129,2.427-2.004,3.449-2.622
		c-0.968,0.646-2.051,1.574-3.248,2.784c-0.955,0.955-1.875,2.017-2.763,3.187c-0.431,0.565-0.834,1.143-1.21,1.735
		c0.349,0.269,0.726,0.558,1.129,0.867c0.578,0.471,1.156,0.969,1.734,1.493c0.122-0.444,0.256-0.896,0.404-1.354
		c0.793-2.634,1.614-4.84,2.46-6.616c-0.686,1.883-1.271,4.095-1.755,6.636c-0.054,0.27-0.101,0.532-0.141,0.787
		c0.632-0.524,1.23-0.954,1.795-1.291c-0.591,0.39-1.21,0.9-1.856,1.533c-0.054,0.336-0.107,0.679-0.162,1.029
		c0.108,0.108,0.216,0.216,0.323,0.323c1.708,1.789,3.106,3.678,4.196,5.669l0.02,0.021c0.04-0.242,0.074-0.479,0.101-0.707
		c0.27-1.385,0.585-2.676,0.948-3.873c-0.498-0.39-1.009-0.766-1.533-1.129c-1.088-0.767-2.172-1.398-3.248-1.896
		c1.076,0.417,2.239,1,3.49,1.755c0.471,0.295,0.935,0.604,1.392,0.928c0.215-0.793,0.458-1.547,0.727-2.26
		c0.269-0.74,0.565-1.432,0.888-2.079c-0.605-0.78-1.204-1.458-1.795-2.036c0.605,0.511,1.23,1.128,1.876,1.855
		c0.147-0.309,0.302-0.605,0.464-0.887c0.188-0.376,0.39-0.727,0.605-1.049c-0.672-0.39-1.325-0.727-1.957-1.008
		c0.646,0.269,1.318,0.578,2.017,0.928c0.431-0.752,0.881-1.378,1.352-1.875c-0.43,0.537-0.833,1.183-1.21,1.937
		c0.672,0.363,1.378,0.772,2.118,1.229c0.498,0.323,0.988,0.653,1.473,0.989c0.013-0.027,0.033-0.061,0.061-0.102
		c0.564-1.143,1.217-2.259,1.957-3.348c0.928-1.359,1.775-2.415,2.542-3.167c-0.766,0.875-1.526,1.956-2.279,3.249
		c-0.376,0.658-0.726,1.331-1.049,2.017c-0.215,0.457-0.417,0.921-0.605,1.392c-0.04,0.108-0.087,0.214-0.141,0.323
		c0.552,0.391,1.096,0.799,1.634,1.23c-0.283-1.143-0.579-2.124-0.888-2.945c0.471,0.995,0.928,2.11,1.372,3.349
		c1.197,1.021,2.313,2.104,3.349,3.247c0.053-0.065,0.12-0.127,0.201-0.181l0.081-2.644l0.201,2.359
		c0.969-0.874,1.963-1.681,2.986-2.421c-0.605-0.712-1.237-1.372-1.896-1.977c-1.103-1.022-2.145-1.835-3.126-2.44
		c1.089,0.592,2.212,1.372,3.368,2.34c0.713,0.592,1.392,1.21,2.038,1.855c0.323-0.242,0.645-0.471,0.968-0.685
		c-0.309,0.241-0.619,0.484-0.928,0.726c0.242,0.228,0.477,0.47,0.707,0.726c0.376,0.391,0.732,0.793,1.068,1.21
		c0.323-0.593,0.699-1.19,1.129-1.796c0.699-1.008,1.379-1.822,2.038-2.44c-0.646,0.712-1.237,1.554-1.775,2.521
		c-0.376,0.672-0.719,1.384-1.028,2.139c0.335,0.431,0.672,0.88,1.008,1.351l0.02-0.947l0.122,1.15
		c0.565,0.807,1.089,1.66,1.573,2.562c0.054-0.054,0.121-0.087,0.202-0.101c0-0.041,0-0.067,0-0.082
		c0.39-2.259,0.968-4.418,1.734-6.475c0.323-0.793,0.646-1.52,0.968-2.179c-0.376-0.605-0.773-1.204-1.19-1.795
		c-1.855-2.649-3.731-4.875-5.627-6.677c2.151,1.801,4.229,3.926,6.233,6.374c0.336,0.417,0.659,0.847,0.968,1.291
		c0.028-0.053,0.055-0.107,0.081-0.161c0.686-1.291,1.352-2.292,1.997-3.005c-0.605,0.793-1.177,1.815-1.714,3.066
		c-0.054,0.121-0.108,0.242-0.162,0.363c0.579,0.792,1.123,1.601,1.634,2.42c0.054-0.12,0.101-0.236,0.141-0.343
		c-0.04,0.121-0.074,0.25-0.101,0.383c0.699,1.063,1.344,2.152,1.936,3.268c0.082,0.177,0.175,0.363,0.283,0.565
		c0.174-0.915,0.37-1.81,0.585-2.685c0.47-1.842,1.029-3.597,1.673-5.265c-0.497-2.286-1.109-4.478-1.835-6.576
		c-0.565-1.681-1.196-3.274-1.896-4.78c-0.928-1.937-1.815-3.457-2.662-4.56c1.008,1.196,1.983,2.669,2.925,4.418
		c0.766,1.384,1.525,2.972,2.279,4.761c0.672,1.626,1.284,3.314,1.835,5.063c0.269-0.632,0.544-1.258,0.827-1.876
		c0.215-0.457,0.437-0.895,0.666-1.311c-0.122-0.551-0.235-1.076-0.344-1.574c0.148,0.458,0.283,0.935,0.404,1.432
		c0.524-0.995,1.042-1.896,1.553-2.703c0.148-0.229,0.289-0.444,0.424-0.646c-0.148-0.592-0.316-1.163-0.504-1.715
		c-0.659-1.896-1.331-3.409-2.018-4.538c0.753,1.088,1.534,2.575,2.34,4.458c0.162,0.417,0.329,0.866,0.504,1.351
		c0.78-1.13,1.506-2.058,2.179-2.784c-0.713,0.86-1.398,1.876-2.058,3.046c0.323,0.928,0.652,1.95,0.989,3.066
		c0.323,1.09,0.619,2.199,0.888,3.329c0.523-0.472,1.048-0.922,1.573-1.352c0.484-0.376,0.969-0.726,1.453-1.048l0.162-3.066
		c-0.188-0.323-0.383-0.62-0.585-0.888c0.202,0.243,0.411,0.497,0.625,0.767l0.041-1.311l0.061,1.472
		c0.417,0.592,0.847,1.271,1.292,2.038c0.121-0.094,0.262-0.174,0.423-0.243c-0.228-0.174-0.45-0.342-0.666-0.503
		c0.229,0.135,0.458,0.296,0.686,0.483c0.202-0.134,0.39-0.241,0.565-0.322c-0.175,0.108-0.343,0.221-0.504,0.342
		c0.901,0.62,1.869,1.386,2.905,2.301c0.43-0.484,0.887-0.969,1.372-1.452c0.605-0.579,1.19-1.103,1.754-1.574
		c-0.026-0.416-0.067-0.826-0.121-1.23c-0.161-1.332-0.323-2.602-0.485-3.813c-1.129-1.573-2.339-3.032-3.63-4.376
		c-1.681-1.789-3.235-3.187-4.66-4.195c1.533,0.955,3.167,2.272,4.902,3.953c1.075,1.05,2.145,2.192,3.207,3.429
		c-0.323-1.949-0.672-3.738-1.049-5.365c0.484,1.627,0.976,3.597,1.473,5.911c0.188,0.229,0.383,0.47,0.585,0.727
		c1.008,1.29,1.976,2.628,2.904,4.014c0.484-0.659,0.995-1.298,1.533-1.916c0.242-0.31,0.498-0.606,0.767-0.888
		c-0.283-1.089-0.551-2.084-0.807-2.985c-0.592-1.99-1.19-3.805-1.795-5.446c1.197,2.273,2.32,4.801,3.369,7.584
		c0.847-0.928,1.748-1.822,2.703-2.683c1.305-1.157,2.555-2.138,3.752-2.945c-0.43-1.09-0.914-2.045-1.453-2.865
		c0.579,0.646,1.144,1.459,1.695,2.441c0.041,0.067,0.074,0.135,0.101,0.201c0.296-0.188,0.579-0.363,0.848-0.524
		c-0.269,0.174-0.538,0.363-0.807,0.565c0.403,0.766,0.793,1.579,1.169,2.44c0.726,1.681,1.338,3.578,1.836,5.688
		c0.39,1.628,0.699,3.369,0.928,5.225c0.188-0.403,0.369-0.793,0.544-1.169c-0.471-2.705-1.015-5.426-1.634-8.17
		c0.658,1.331,1.358,2.972,2.098,4.922c0.161,0.444,0.33,0.908,0.504,1.392c0.013-0.039,0.033-0.066,0.061-0.082
		c-0.027,0.017-0.047,0.063-0.061,0.142c0.39,1.144,0.767,2.348,1.13,3.612c0.107,0.363,0.202,0.719,0.283,1.069
		c0.202-1.037,0.41-2.044,0.625-3.026c-0.229-2.367-0.525-4.708-0.888-7.02c-0.336-2.247-0.666-4.229-0.989-5.951
		c-0.377-1.977-0.807-3.907-1.291-5.789c1.197,3.281,2.246,7.02,3.147,11.215c0.296,1.399,0.564,2.757,0.807,4.076
		c0.215-0.902,0.431-1.783,0.645-2.643c1.211-4.585,2.347-8.231,3.409-10.934c-0.458,1.655-0.941,3.577-1.452,5.77
		c-0.094,0.403-0.524,2.4-1.291,5.991c-0.309,1.586-0.598,3.133-0.867,4.639c0.242,1.452,0.458,3.2,0.645,5.245
		c0.028,0.121,0.048,0.255,0.062,0.404c0.564-0.916,1.17-1.823,1.815-2.724c-0.27-3-0.652-6.032-1.15-9.098
		c0.525,1.184,1.096,2.75,1.715,4.7c0.269,0.861,0.524,1.748,0.767,2.663c0.82-1.089,1.634-2.091,2.44-3.005
		c0.591-0.687,1.19-1.338,1.795-1.958c-0.081-1.371-0.188-2.709-0.323-4.013c-0.255-2.354-0.652-4.546-1.19-6.576
		c-0.618-2.488-1.385-4.545-2.3-6.172c0.565,0.712,1.13,1.654,1.695,2.823c0.457,0.955,0.895,1.984,1.312,3.086
		c0.726,1.99,1.331,4.176,1.815,6.556c0.202,0.888,0.376,1.816,0.525,2.784c0.121-0.121,0.242-0.248,0.363-0.383
		c-0.122,0.188-0.235,0.37-0.343,0.545c0.202,1.304,0.363,2.663,0.484,4.075c0.202-0.538,0.397-1.083,0.585-1.634
		c0.646-1.802,1.338-3.43,2.078-4.882c-0.861,3.779-1.533,7.222-2.018,10.328c-0.121,0.807-0.229,1.594-0.322,2.36
		c0,0.108,0,0.236,0,0.383c0.699-1.075,1.426-2.131,2.178-3.167c1.116-1.532,2.226-2.918,3.328-4.154
		c0.135-0.162,0.276-0.324,0.424-0.485c-0.229-2.191-0.519-4.404-0.867-6.636c0.631,1.56,1.21,3.241,1.734,5.042
		c0.027,0.162,0.068,0.323,0.121,0.483c0.753-0.819,1.506-1.573,2.259-2.258c-0.699,1.049-1.372,2.091-2.017,3.127
		c0.282,1.102,0.544,2.246,0.786,3.429c0.618-1.305,1.298-2.582,2.038-3.833c0.094-0.162,0.181-0.316,0.262-0.465
		c-0.229-1.801-0.612-3.636-1.149-5.507c-0.633-2.178-1.399-3.953-2.3-5.324c0.525,0.605,1.083,1.418,1.675,2.439
		c0.456,0.78,0.9,1.661,1.331,2.643c0.498,1.183,0.967,2.562,1.412,4.135c0.201-0.35,0.41-0.699,0.625-1.049
		c-0.134-0.551-0.262-1.109-0.383-1.674c0.215,0.404,0.431,0.841,0.646,1.311c0.941-1.506,1.896-2.891,2.865-4.155
		c-0.188-1.292-0.383-2.467-0.585-3.53c-0.31-1.789-0.719-3.792-1.23-6.011c0.888,2.583,1.708,5.494,2.461,8.735
		c0.296-0.377,0.585-0.747,0.868-1.11c-0.269,0.417-0.538,0.854-0.807,1.311c0.175,0.861,0.363,1.755,0.565,2.683
		c0.336,1.668,0.619,3.221,0.847,4.66c0.148-0.619,0.295-1.224,0.443-1.816c1.197-4.505,2.333-8.143,3.409-10.912
		c-0.363,1.25-0.847,3.18-1.452,5.789c-0.431,1.788-0.861,3.778-1.291,5.97c-0.256,1.211-0.491,2.454-0.707,3.732
		c0.202,1.479,0.404,3.194,0.605,5.144c0.027,0.377,0.061,0.759,0.102,1.15c0.538-0.834,1.102-1.648,1.694-2.441
		c-0.256-2.73-0.653-5.802-1.19-9.218c0.578,1.318,1.143,2.891,1.695,4.721c0.269,0.874,0.518,1.795,0.746,2.763
		c0.834-1.076,1.661-2.091,2.48-3.046c0.673-0.794,1.352-1.534,2.038-2.219c-0.067-0.847-0.147-1.681-0.242-2.501
		c-0.147-0.296-0.303-0.592-0.464-0.888c-0.834-1.587-1.789-3.248-2.864-4.982c1.076,1.291,2.111,2.669,3.106,4.135
		c-0.081-0.74-0.188-1.473-0.323-2.199c-0.43-2.46-0.946-4.518-1.553-6.171c0.417,0.793,0.793,1.728,1.129,2.804
		c0.323,1.009,0.619,2.03,0.888,3.066c0.282,1.142,0.559,2.447,0.828,3.913c0.295,0.47,0.592,0.947,0.887,1.432
		c0.094-0.08,0.176-0.154,0.241-0.221c-0.065,0.093-0.126,0.194-0.181,0.302c0.24,0.389,0.482,0.799,0.727,1.23
		c0.512-1.184,1.082-2.4,1.715-3.651c0.619-1.251,1.225-2.38,1.814-3.389c-0.659-1.318-1.323-2.622-1.997-3.914
		c0.821,0.968,1.647,2.024,2.481,3.167c0.162-0.283,0.336-0.552,0.523-0.807c-0.134,0.335-0.255,0.678-0.361,1.027
		c0.35,0.485,0.699,0.996,1.047,1.534c0.969,1.385,1.998,3.012,3.086,4.882c0.096-0.242,0.197-0.479,0.305-0.707
		c-0.107-0.484-0.216-0.975-0.323-1.473c0.175,0.336,0.345,0.687,0.505,1.049c0.375-0.847,0.754-1.674,1.131-2.481
		c2.109-4.411,4.275-8.203,6.494-11.376c-0.861,1.574-1.83,3.55-2.904,5.93c-0.807,1.842-1.646,3.886-2.521,6.133
		c-0.482,1.25-0.939,2.494-1.371,3.731c0.256,0.606,0.498,1.238,0.727,1.896c0.404,1.076,0.767,2.125,1.09,3.147
		c0.013,0.027,0.025,0.061,0.04,0.1c0.079,0.068,0.147,0.149,0.2,0.243c0.123-0.592,0.25-1.164,0.385-1.715
		c0.216-0.846,0.457-1.661,0.726-2.44c-0.538-0.807-1.069-1.614-1.594-2.42c0.563,0.537,1.171,1.135,1.815,1.795
		c0.271-0.767,0.563-1.5,0.888-2.199c0.312-0.671,0.747-1.493,1.312-2.461c0.551-0.928,1.11-1.681,1.676-2.258
		c-0.889,1.29-1.662,2.938-2.32,4.941c-0.282,0.929-0.523,1.883-0.727,2.865c0.351,0.363,0.698,0.747,1.049,1.15
		c0.9,1.049,1.715,2.05,2.44,3.005c0.243-0.955,0.497-1.863,0.769-2.723c0.551-1.87,1.121-3.443,1.714-4.721
		c-0.511,3.093-0.9,6.166-1.171,9.218c0.297,0.377,0.586,0.774,0.867,1.191c0.095-1.547,0.229-3,0.404-4.358
		c0.174-1.613,0.389-3.194,0.645-4.74c-0.094-0.485-0.182-0.969-0.262-1.453c-0.565-2.932-0.988-5.03-1.271-6.293
		c-0.551-2.461-1.042-4.478-1.473-6.052c1.129,2.933,2.266,6.758,3.408,11.479c0.7-3.617,1.492-6.764,2.381-9.441
		c-0.336,1.533-0.672,3.382-1.008,5.548c-0.27,1.936-0.513,3.853-0.728,5.749c-0.015,0.215-0.034,0.431-0.06,0.646
		c0.576,2.541,1.115,5.156,1.612,7.846c0.054-0.215,0.106-0.429,0.161-0.645c0.432-1.627,0.947-3.274,1.553-4.942
		c-0.672-1.062-1.425-2.145-2.258-3.247c0.833,0.833,1.66,1.728,2.479,2.682c0.646-1.721,1.293-3.214,1.938-4.478
		c-0.431,1.91-0.821,3.725-1.17,5.446c1.062,1.291,2.104,2.676,3.126,4.156c0.498-1.667,0.928-2.911,1.292-3.732
		c-0.297,1.52-0.552,3.033-0.769,4.539c0.727,1.103,1.34,2.085,1.836,2.945c0.351-0.497,0.715-0.942,1.09-1.332
		c0.646-0.646,1.21-1.13,1.695-1.452c-0.861,0.78-1.629,1.842-2.302,3.187c-0.04,0.095-0.079,0.188-0.12,0.282
		c0.026,0.027,0.047,0.061,0.062,0.102c0.39,0.713,0.786,1.452,1.19,2.218c0.119-0.376,0.254-0.739,0.401-1.089
		c0.188-0.498,0.384-0.981,0.586-1.452c-0.215-0.229-0.437-0.437-0.666-0.625c0.229,0.134,0.472,0.295,0.726,0.484
		c0.513-1.305,1.057-2.555,1.636-3.751c0.431-0.93,0.874-1.851,1.331-2.764c-0.108-0.391-0.217-0.794-0.323-1.211
		c0.162,0.27,0.337,0.566,0.524,0.889c0.35-0.701,0.72-1.393,1.109-2.079c1.021-1.788,2.057-3.449,3.105-4.982
		c-0.311-0.538-0.618-1.022-0.928-1.453c0.349,0.363,0.699,0.787,1.049,1.271c1.074-1.6,2.172-3.059,3.289-4.376
		c-1.01,1.559-1.971,3.213-2.885,4.961c0.065,0.107,0.141,0.215,0.221,0.323c0.457,0.712,0.896,1.506,1.313,2.38
		c0.229,0.484,0.443,0.981,0.645,1.492c0.392-0.47,0.781-0.874,1.17-1.21c-0.361,0.443-0.705,0.948-1.027,1.513
		c0.391,1.022,0.732,2.118,1.027,3.289c0.472,1.695,0.82,3.516,1.051,5.466c0.188-0.443,0.376-0.875,0.563-1.292
		c0.7-1.438,1.398-2.695,2.1-3.771c-0.779,2.622-1.452,5.285-2.018,7.987c-0.121,0.592-0.229,1.184-0.322,1.775
		c0,0.148,0,0.303,0,0.464c0.039,2.488-0.121,5.219-0.484,8.189c0.055,0.121,0.107,0.256,0.162,0.402
		c0.146-1.693,0.591-3.181,1.331-4.457c0.471-0.888,1.075-1.695,1.815-2.42c0.551-0.525,0.988-0.9,1.312-1.131
		c0.524-0.416,1.088-0.766,1.694-1.049c-0.86,0.551-1.643,1.313-2.34,2.279c-0.514,0.753-0.896,1.553-1.15,2.4
		c-0.471,1.532-0.532,3.159-0.182,4.881c0.713-2.595,1.674-5.137,2.885-7.625c0.457-0.927,0.929-1.815,1.412-2.662
		c-0.055-0.646-0.107-1.319-0.162-2.018c-0.256-2.46-0.672-5.157-1.25-8.088c0.578,1.062,1.156,2.366,1.733,3.912
		c0.403,1.144,0.787,2.388,1.15,3.733c0.657-1.063,1.338-2.065,2.036-3.006c0.095-0.135,0.183-0.255,0.263-0.363
		c-0.241-1.479-0.619-2.898-1.129-4.256c-0.66-1.708-1.433-3.086-2.32-4.135c0.565,0.484,1.123,1.11,1.677,1.876
		c0.535,0.753,0.98,1.445,1.33,2.078c0.537,0.981,1.008,2.043,1.412,3.187c0.416-0.538,0.842-1.056,1.271-1.553v-0.041
		c-0.416-1.573-0.814-2.872-1.189-3.894c0.552,1.076,1.069,2.233,1.554,3.47c1.184-1.372,2.395-2.63,3.631-3.771
		c-1.076,1.317-2.03,2.602-2.864,3.853c-0.147,0.215-0.304,0.45-0.465,0.706c0.378,1.036,0.733,2.132,1.069,3.288
		c0.135,0.417,0.256,0.861,0.362,1.331c0.067-0.081,0.128-0.147,0.183-0.2c-0.055,0.094-0.108,0.188-0.16,0.282
		c0.215,0.793,0.416,1.667,0.604,2.622c0.27,1.318,0.484,2.697,0.645,4.135c0.352,2.771,0.459,5.54,0.324,8.311
		c0.241-0.391,0.498-0.778,0.768-1.17c0.08-0.121,0.174-0.248,0.281-0.383c-0.162-1.371-0.221-2.656-0.183-3.853
		c0.015-0.808,0.062-1.588,0.142-2.341c-0.146-0.848-0.31-1.707-0.483-2.582c-0.321-0.593-0.592-1.063-0.808-1.412
		c0.216,0.229,0.432,0.477,0.646,0.745c-0.146-0.577-0.302-1.163-0.464-1.754c0.551,0.74,1.063,1.526,1.532,2.361
		c0.201-0.955,0.457-1.863,0.767-2.724c0.485-1.344,1.097-2.575,1.836-3.691c0.472-0.673,0.908-1.25,1.312-1.734
		c0.553-0.646,1.117-1.177,1.695-1.594c-0.916,0.915-1.682,2.078-2.301,3.49c-0.538,1.129-0.934,2.361-1.189,3.692
		c-0.416,2.07-0.518,4.249-0.303,6.535c0.242,0.457,0.471,0.914,0.688,1.373c0.229-0.242,0.471-0.484,0.727-0.729
		c0.079-0.066,0.16-0.134,0.241-0.201c0.188-1.397,0.49-2.764,0.908-4.095c0.349-1.143,0.759-2.259,1.229-3.348
		c0.578-1.305,1.149-2.387,1.713-3.248c-0.537,2.259-0.938,4.512-1.209,6.758c-0.066,0.618-0.121,1.21-0.16,1.774
		c0.793-0.619,1.594-1.185,2.398-1.695c0.377-0.941,0.787-1.869,1.229-2.783c0.646-1.305,1.347-2.542,2.1-3.711
		c-0.43-1.333-0.914-2.429-1.452-3.289c0.392,0.458,0.767,1.022,1.13,1.694c0.188,0.364,0.385,0.754,0.586,1.17
		c0.646-0.981,1.324-1.909,2.037-2.783c-0.592,1.022-1.17,2.165-1.734,3.43c0.511,1.21,0.921,2.514,1.229,3.914
		c0.108,0.47,0.217,0.954,0.324,1.452c0.08-0.148,0.168-0.289,0.261-0.423c0.7-1.022,1.501-2.071,2.402-3.147
		c0.954-1.157,1.89-2.138,2.803-2.945c-1.036,1.734-1.957,3.382-2.764,4.942c0.095-0.053,0.176-0.102,0.241-0.141
		c-0.106,0.094-0.2,0.181-0.28,0.263c-0.202,0.361-0.384,0.727-0.545,1.088c-0.229,1.009-0.443,2.044-0.646,3.106
		c-0.271,1.507-0.466,2.918-0.586,4.235c0.229-0.873,0.557-1.693,0.988-2.459c0.537-0.942,1.154-1.758,1.855-2.441
		c0.39-0.403,0.826-0.78,1.311-1.13c0.523-0.404,1.076-0.753,1.654-1.049c-0.819,0.539-1.588,1.298-2.299,2.281
		c-0.524,0.777-0.908,1.592-1.15,2.438c-0.471,1.562-0.538,3.2-0.202,4.922c0.026,0.122,0.056,0.249,0.081,0.385
		c0.699-2.233,1.635-4.459,2.805-6.678c0.778-1.453,1.539-2.724,2.278-3.813c0.203-0.296,0.411-0.591,0.626-0.887
		c-0.432-1.104-0.936-2.031-1.514-2.784c0.31,0.283,0.693,0.746,1.148,1.392c0.217,0.322,0.426,0.652,0.627,0.988
		c0.563-0.833,1.156-1.62,1.774-2.36c0.457-0.592,0.94-1.163,1.452-1.714c-0.297-0.323-0.586-0.619-0.867-0.888
		c0.322,0.215,0.646,0.464,0.967,0.746c1.616-1.87,3.264-3.509,4.943-4.921c-0.915,0.995-1.875,2.164-2.885,3.51
		c-0.498,0.658-0.981,1.331-1.453,2.017c0.041,0.013,0.067,0.039,0.082,0.08c0.578,0.605,1.021,1.123,1.33,1.554
		c0.646,0.887,1.196,1.869,1.654,2.944c0.215-0.188,0.424-0.363,0.624-0.525c-0.188-0.523-0.383-1.062-0.583-1.613
		c0.336,0.391,0.665,0.821,0.987,1.291c0.229-0.201,0.45-0.383,0.666-0.545c-0.175,0.229-0.343,0.471-0.504,0.727
		c0.295,0.43,0.598,0.894,0.907,1.392c0.201,0.31,0.391,0.612,0.564,0.909c0.43,0.726,0.787,1.419,1.068,2.077
		c0.107,0.229,0.216,0.457,0.322,0.686c0.094-0.296,0.195-0.578,0.303-0.847c-0.188-0.431-0.369-0.828-0.543-1.19
		c-0.352-0.82-0.768-1.605-1.252-2.36c0.738,0.82,1.433,1.735,2.078,2.743c0.457-1.289,0.939-2.506,1.451-3.65
		c1.145-2.608,2.278-4.741,3.409-6.394c-0.485,1.008-0.976,2.138-1.473,3.389c-0.337,0.874-0.761,2.037-1.271,3.49
		c-0.513,1.506-0.977,2.978-1.394,4.417c0.108,0.188,0.209,0.375,0.303,0.563c0.216,0.431,0.425,0.861,0.626,1.291
		c0.793-0.752,1.641-1.485,2.541-2.198c0.067-0.055,0.127-0.094,0.182-0.121c-0.457-0.35-0.946-0.691-1.472-1.027
		c0.552,0.27,1.108,0.557,1.675,0.865c0.848-0.672,1.828-1.383,2.943-2.137c1.264-0.875,2.501-1.621,3.711-2.239
		c-1.936,1.654-3.736,3.342-5.404,5.063c1.196,0.7,2.387,1.473,3.569,2.32c0.593,0.43,1.163,0.865,1.716,1.311
		c0.256-0.296,0.523-0.57,0.807-0.826c0.768-0.74,1.574-1.433,2.421-2.078c1.034-0.807,1.977-1.459,2.823-1.957
		c-1.316,1.427-2.467,2.812-3.449,4.155c0.217-0.106,0.451-0.194,0.707-0.262c-0.283,0.121-0.559,0.262-0.827,0.424
		c-0.054,0.095-0.122,0.183-0.202,0.263c-0.336,0.469-0.645,0.94-0.927,1.412c0.241,0.229,0.497,0.471,0.766,0.726
		c0.136-0.188,0.269-0.37,0.403-0.544c0.188-0.229,0.377-0.465,0.564-0.706c-0.216-0.108-0.432-0.202-0.646-0.283
		c0.243,0.067,0.478,0.147,0.706,0.242c0.498-0.632,1.042-1.243,1.634-1.837c0.433-0.43,0.888-0.865,1.372-1.311
		c-0.121-0.201-0.234-0.396-0.342-0.585c0.175,0.134,0.349,0.274,0.523,0.423c0.362-0.322,0.739-0.65,1.129-0.986
		C274.512,151.469,276.669,149.936,278.9,148.645z M243.702,152.114c0.241,0.819,0.442,1.694,0.604,2.622
		c0.377-0.551,0.787-1.084,1.229-1.594c0.042-0.094,0.073-0.188,0.103-0.283c0.484-0.926,0.963-1.733,1.432-2.419
		c-0.146,0.458-0.281,0.916-0.402,1.373c0.498-0.564,0.962-1.057,1.393-1.474c0.014-0.013,0.041-0.032,0.08-0.06
		c-0.039-0.161-0.072-0.316-0.101-0.464c-0.256-1.17-0.646-2.278-1.17-3.328c-0.282-0.538-0.586-1.042-0.908-1.513
		c-0.296,0.443-0.592,0.9-0.888,1.372c-0.766,1.183-1.473,2.38-2.117,3.59C243.238,150.635,243.486,151.361,243.702,152.114z
		 M249.471,149.915c0.352,0.876,0.633,1.815,0.85,2.826c0.188-0.271,0.383-0.524,0.584-0.769c-0.271-0.873-0.571-1.801-0.907-2.783
		C249.809,149.418,249.633,149.66,249.471,149.915z M251.246,153.204c-0.066-0.283-0.148-0.572-0.242-0.868
		c-0.134,0.229-0.273,0.479-0.424,0.746c-0.055,0.081-0.107,0.176-0.161,0.282c0.175,1.022,0.283,2.104,0.323,3.249
		c0.041,1.33-0.063,2.756-0.303,4.275c0.35-0.524,0.74-1.041,1.17-1.554c0.162-0.646,0.336-1.298,0.524-1.957
		C251.945,156.088,251.648,154.697,251.246,153.204z M247.313,153.324c-0.752,1.305-1.377,2.527-1.875,3.672
		c-0.242,1.332-0.396,2.556-0.465,3.671c-0.055,1.116-0.031,2.158,0.061,3.127c0.378-1.358,0.849-2.757,1.412-4.196
		c0.605-1.425,1.23-2.723,1.877-3.894c0.148-1.397,0.148-2.749,0-4.054C247.984,152.189,247.648,152.745,247.313,153.324z
		 M261.393,161.374c-0.013,0.04-0.021,0.087-0.021,0.142c0.015,0.16,0.034,0.328,0.062,0.504c0.215-0.484,0.471-0.97,0.766-1.453
		C261.917,160.836,261.648,161.104,261.393,161.374z M260.909,158.831c-0.067,0.162-0.128,0.33-0.183,0.505
		c0.106,0.27,0.209,0.538,0.303,0.809c0.336-0.258,0.687-0.5,1.049-0.729c0.054-0.04,0.107-0.066,0.162-0.08
		c-0.363-0.322-0.734-0.639-1.11-0.947C261.063,158.521,260.988,158.67,260.909,158.831z M261.352,157.964
		c0.028,0.015,0.067,0.041,0.123,0.08c0.455,0.257,0.92,0.545,1.392,0.868c0.27-0.161,0.538-0.323,0.807-0.484
		c0.161-0.201,0.336-0.402,0.524-0.604c-0.633-0.646-1.313-1.299-2.037-1.956c-0.484-0.433-1.331-1.117-2.541-2.06
		c-0.068-0.054-0.135-0.106-0.202-0.16c-0.524,0.511-1.028,1.027-1.513,1.554c0.402,0.389,0.779,0.825,1.129,1.312
		c0.094,0.106,0.182,0.215,0.263,0.322c0.577,0.282,1.21,0.625,1.896,1.029c0.135-0.149,0.283-0.297,0.442-0.445
		C261.555,157.566,261.46,157.749,261.352,157.964z M264.964,160.404c0.216,0.176,0.443,0.363,0.685,0.564
		c0.148-0.283,0.322-0.57,0.525-0.865c-0.203-0.256-0.402-0.514-0.605-0.769C265.354,159.686,265.15,160.041,264.964,160.404z
		 M264.682,162.807c0.106-0.257,0.229-0.513,0.362-0.769c-0.175-0.188-0.351-0.376-0.524-0.563c-0.041,0.08-0.08,0.153-0.121,0.223
		c0.041,0.281,0.108,0.57,0.201,0.867C264.613,162.645,264.641,162.727,264.682,162.807z M257.177,161.637
		c0.054,0.631,0.073,1.256,0.062,1.875c0.201-0.228,0.41-0.449,0.625-0.666C257.674,162.471,257.445,162.066,257.177,161.637z
		 M254.615,155.986c-0.135-0.457-0.27-0.906-0.404-1.352c-0.08,0.282-0.154,0.571-0.223,0.868c0.096,0.269,0.183,0.544,0.265,0.826
		C254.387,156.209,254.507,156.096,254.615,155.986z M258.549,158.51c-0.188-0.941-0.492-1.943-0.906-3.006
		c-0.485,0.537-0.951,1.068-1.394,1.594c0.175,0.524,0.337,1.09,0.483,1.693c0.188,0.861,0.33,1.701,0.424,2.521
		c0.337,0.256,0.632,0.511,0.888,0.767c0.095,0.081,0.194,0.175,0.304,0.282c0.133-0.121,0.27-0.242,0.402-0.363
		c0.025-0.135,0.066-0.256,0.121-0.361C258.898,160.749,258.79,159.706,258.549,158.51z M260.425,158.71
		c0.148-0.175,0.304-0.349,0.464-0.522c-0.482-0.404-0.976-0.801-1.473-1.19c0.296,0.431,0.578,0.907,0.848,1.433
		C260.316,158.535,260.37,158.63,260.425,158.71z M268.05,162.967c-0.161-0.31-0.329-0.605-0.505-0.888
		c-0.066,0.161-0.128,0.323-0.182,0.483c0.175,0.174,0.35,0.369,0.523,0.584C267.928,163.066,267.982,163.007,268.05,162.967z
		 M266.557,164.884c0.08-0.175,0.188-0.344,0.323-0.505c-0.041-0.053-0.081-0.113-0.122-0.182
		C266.678,164.426,266.609,164.654,266.557,164.884z M238.154,165.085c-0.04-0.968,0.008-1.917,0.142-2.845
		c-0.188,0.767-0.337,1.533-0.442,2.3c0,0.015,0.012,0.033,0.039,0.06C237.975,164.764,238.061,164.923,238.154,165.085z
		 M273.697,160.869c-0.107-0.432-0.229-0.881-0.363-1.354c-0.107,0.082-0.201,0.162-0.282,0.243
		c-0.216,0.175-0.417,0.362-0.604,0.564c0.484,0.577,0.82,1.229,1.009,1.956C273.469,161.783,273.549,161.313,273.697,160.869z
		 M270.895,163.552c0.055-0.161,0.106-0.315,0.16-0.464c0.188-0.551,0.264-1.09,0.223-1.613c-0.362,0.362-0.691,0.727-0.988,1.09
		C270.503,162.872,270.705,163.202,270.895,163.552z M270.953,160.305c-0.014-0.055-0.039-0.107-0.08-0.16
		c-0.229-0.5-0.611-0.99-1.148-1.475c-0.082-0.054-0.154-0.107-0.224-0.16c-0.04,0.025-0.065,0.061-0.08,0.102
		c-0.35,0.551-0.673,1.089-0.969,1.611c0.376,0.432,0.733,0.861,1.067,1.293C269.993,161.084,270.471,160.682,270.953,160.305z
		 M271.701,155.523c-0.753,0.914-1.426,1.809-2.018,2.683c0.254,0.122,0.49,0.255,0.705,0.403c0.524,0.311,1.002,0.658,1.434,1.049
		c0.08-0.067,0.174-0.143,0.281-0.223c0.338-0.229,0.666-0.449,0.988-0.664c-0.08-0.271-0.176-0.539-0.281-0.809
		C272.516,157.197,272.145,156.385,271.701,155.523z M24.173,152.779c-0.229,0.283-0.443,0.585-0.646,0.908l0.061,1.815
		c0.282,0.457,0.551,0.935,0.807,1.433c0.417-0.457,0.875-0.901,1.372-1.332c0.108-0.443,0.229-0.895,0.363-1.352
		c0.041-0.107,0.081-0.202,0.121-0.283c-0.591-0.361-1.19-0.712-1.795-1.049C24.362,152.867,24.267,152.82,24.173,152.779z
		 M37.124,147.878c-0.041,0.026-0.067,0.067-0.081,0.121l0.081,2.339c0.35,0.635,0.699,1.271,1.049,1.917
		c0.525-0.592,1.103-1.157,1.735-1.694c-0.552-0.631-1.15-1.244-1.795-1.834C37.775,148.431,37.446,148.147,37.124,147.878z
		 M37.325,153.184c-0.027-0.106-0.067-0.222-0.121-0.343l0.02,0.505C37.265,153.291,37.298,153.236,37.325,153.184z M35.873,149.936
		c-0.605,1.037-1.157,2.119-1.655,3.248c-0.632,1.398-1.189,2.879-1.674,4.438c0.376,0.296,0.74,0.604,1.089,0.927
		c0.135-0.269,0.276-0.523,0.423-0.767c0.686-1.144,1.439-2.245,2.26-3.308l0.262-3.086
		C36.35,150.891,36.115,150.406,35.873,149.936z M36.72,149.694l0.121-1.392c-0.175,0.271-0.343,0.537-0.504,0.808
		C36.458,149.311,36.585,149.505,36.72,149.694z M38.596,156.977c-0.201-0.699-0.41-1.379-0.625-2.037
		c-0.135-0.418-0.276-0.82-0.424-1.211c-0.107,0.121-0.208,0.254-0.302,0.403l0.142,3.853
		C37.775,157.607,38.179,157.271,38.596,156.977z M33.795,160.707c-0.349,0.915-0.646,1.869-0.888,2.863
		c0.122,0.068,0.256,0.148,0.404,0.242c0.282-0.752,0.645-1.479,1.088-2.177C34.212,161.313,34.01,161.004,33.795,160.707z
		 M32.444,159.014c-0.068-0.094-0.148-0.175-0.242-0.242c-0.35,1.237-0.659,2.528-0.928,3.873c0.135,0.067,0.282,0.147,0.443,0.241
		c0.391-1.114,0.828-2.172,1.312-3.167C32.84,159.477,32.645,159.242,32.444,159.014z M35.288,160.305
		c0.148-0.201,0.302-0.396,0.464-0.586c0.027-0.039,0.061-0.088,0.102-0.141l0.342-3.833c-0.458,0.726-0.875,1.485-1.25,2.278
		c-0.202,0.403-0.391,0.82-0.565,1.252C34.703,159.598,35.005,159.939,35.288,160.305z M37.567,163.552
		c0.081,0.12,0.155,0.257,0.222,0.402c0.121-1.828,0.31-3.604,0.565-5.324l-0.888,1.433L37.567,163.552z M27.501,154.775
		c-0.121-0.092-0.242-0.174-0.363-0.241c-0.202,0.163-0.403,0.337-0.605,0.524c-0.269,1.467-0.464,2.911-0.585,4.338
		c0,0.08-0.007,0.174-0.021,0.281c0.27-0.175,0.524-0.322,0.767-0.443c-0.175,0.162-0.343,0.33-0.504,0.505
		c0.336,0.27,0.679,0.618,1.029,1.048c0.888,0.337,1.789,0.729,2.703,1.171c0.377-1.466,0.814-2.871,1.312-4.216
		C30.131,156.68,28.886,155.691,27.501,154.775z M27.078,154.495c-0.121-0.081-0.249-0.161-0.383-0.242
		c-0.014,0.026-0.021,0.047-0.021,0.062c-0.041,0.201-0.074,0.39-0.101,0.563C26.735,154.729,26.903,154.604,27.078,154.495z
		 M25.122,158.368c0.161-0.808,0.349-1.621,0.564-2.441c-0.417,0.403-0.793,0.833-1.13,1.292
		C24.731,157.594,24.92,157.979,25.122,158.368z M23.689,158.368l0.121,2.944c0.295-0.283,0.599-0.539,0.908-0.768
		c-0.148-0.537-0.309-1.068-0.484-1.594c-0.108-0.297-0.215-0.598-0.323-0.908C23.844,158.152,23.77,158.261,23.689,158.368z
		 M23.669,157.782c0.014-0.054,0.04-0.095,0.081-0.122c-0.041-0.079-0.075-0.167-0.101-0.262L23.669,157.782z M24.536,161.775
		l-0.686,1.131l0.081,2.662c0.053,0.082,0.107,0.175,0.161,0.283C24.2,164.439,24.348,163.081,24.536,161.775z M28.61,163.512
		c0.216,0.646,0.364,1.317,0.444,2.018c0.215-1.049,0.457-2.078,0.726-3.086l-0.02-0.021c-0.807-0.578-1.627-1.09-2.461-1.531
		c0.081,0.119,0.175,0.254,0.282,0.401C28.04,162.046,28.382,162.785,28.61,163.512z M22.64,155.18
		c-0.457,0.781-0.874,1.602-1.25,2.461c-0.471,1.076-0.895,2.192-1.271,3.351c0.269,0.241,0.538,0.483,0.807,0.726
		c0.107-0.188,0.215-0.376,0.322-0.564c0.525-0.873,1.096-1.715,1.715-2.521l0.222-2.36C23.01,155.895,22.828,155.529,22.64,155.18z
		 M23.366,153.93c-0.121,0.202-0.242,0.404-0.363,0.604c0.081,0.136,0.175,0.282,0.282,0.444L23.366,153.93z M19.857,161.857
		c-0.283,0.968-0.525,1.963-0.727,2.983c0.107,0.067,0.222,0.129,0.343,0.183c0.309-0.859,0.646-1.666,1.009-2.42
		c-0.147-0.176-0.296-0.351-0.444-0.524C19.971,161.998,19.91,161.925,19.857,161.857z M21.491,162.279
		c0.255,0.258,0.491,0.52,0.705,0.787c0.108-0.16,0.223-0.314,0.344-0.463c0.04-0.027,0.067-0.055,0.081-0.08l0.262-2.945
		c-0.35,0.564-0.666,1.145-0.948,1.734C21.773,161.622,21.625,161.945,21.491,162.279z M20.683,165.751
		c0.202-0.578,0.485-1.144,0.848-1.694c-0.148-0.229-0.302-0.464-0.464-0.707c-0.269,0.7-0.504,1.439-0.706,2.219
		C20.468,165.623,20.576,165.684,20.683,165.751z M39.1,154.15c0.215-1.074,0.464-2.15,0.747-3.227
		c-0.511,0.536-1.001,1.115-1.473,1.733C38.629,153.13,38.872,153.627,39.1,154.15z M104.598,131.358
		c-0.148,0.134-0.282,0.262-0.403,0.383c-0.928,0.968-1.842,1.997-2.743,3.087c0.067,0.214,0.147,0.437,0.242,0.665
		c0.04-0.107,0.074-0.214,0.1-0.323c-0.026,0.134-0.06,0.263-0.1,0.384c0.201,0.578,0.396,1.156,0.585,1.734
		c0.349,1.103,0.672,2.199,0.968,3.289c0.793-0.646,1.553-1.204,2.279-1.675c-0.726,0.511-1.472,1.123-2.239,1.835
		c0.188,0.713,0.364,1.425,0.525,2.138c0.47,1.924,0.847,3.833,1.129,5.729c0.067,0.483,0.141,0.975,0.222,1.473
		c0.296-0.592,0.599-1.137,0.908-1.634c-0.041-2.165-0.148-4.478-0.323-6.939c-0.067-0.873-0.141-1.741-0.222-2.602
		C105.284,136.387,104.975,133.873,104.598,131.358z M81.481,137.692c-0.564,1.021-1.109,2.178-1.634,3.469
		c0.363,1.479,0.719,3.107,1.069,4.882c0.322-0.376,0.666-0.739,1.028-1.089c0.376-0.376,0.76-0.74,1.15-1.089
		c-0.215-1.358-0.458-2.669-0.726-3.934c-0.215-0.915-0.437-1.796-0.666-2.643C81.622,137.422,81.548,137.557,81.481,137.692z
		 M85.717,142.028c-0.565,0.511-1.137,1.062-1.715,1.654c0.417,1.843,0.766,3.759,1.049,5.749c0.107,0.7,0.208,1.405,0.303,2.119
		c0.35-0.754,0.726-1.493,1.13-2.219l0.443-8.271C86.537,141.343,86.134,141.665,85.717,142.028z M87.311,140.758l0.222,6.817
		c0.726-1.196,1.52-2.333,2.38-3.409c-0.377-1.291-0.814-2.487-1.312-3.589c-0.094-0.202-0.188-0.397-0.282-0.586
		C87.983,140.219,87.647,140.475,87.311,140.758z M88.279,139.91c-0.363-0.752-0.712-1.418-1.049-1.997l0.081,2.603
		C87.633,140.287,87.957,140.085,88.279,139.91z M79.504,141.948c-0.376,0.982-0.726,1.99-1.049,3.026
		c0.283,1.008,0.552,2.017,0.808,3.025c0.39-0.499,0.8-0.989,1.23-1.473c-0.013-0.067-0.02-0.128-0.02-0.181
		c-0.243-1.829-0.484-3.477-0.726-4.942C79.652,141.577,79.572,141.76,79.504,141.948z M77.023,151.166
		c0.363-0.564,0.74-1.122,1.129-1.674c-0.054-0.27-0.094-0.538-0.121-0.807c-0.08-0.458-0.155-0.888-0.222-1.291
		c-0.282,1.089-0.524,2.211-0.726,3.368C77.07,150.896,77.05,151.031,77.023,151.166z M77.629,152.658
		c-0.417,0.848-0.794,1.729-1.13,2.644c-0.04,0.241-0.067,0.483-0.081,0.726c0.619,1.492,1.129,3.007,1.534,4.539
		c0.053,0.175,0.094,0.363,0.12,0.564c0-0.98-0.067-1.99-0.202-3.025c-0.188-1.236-0.43-2.394-0.726-3.47
		c0.457,0.901,0.928,2.011,1.413,3.328c0.201,0.538,0.37,1.076,0.503,1.614c-0.107-2.919-0.329-5.723-0.665-8.412
		C78.126,151.65,77.87,152.148,77.629,152.658z M81.078,147.072c0.43,2.433,0.76,4.667,0.988,6.697
		c0.094,0.727,0.175,1.451,0.242,2.179c0.309,0.321,0.618,0.698,0.927,1.13c0.229-0.754,0.471-1.487,0.727-2.199
		c-0.04-1.828-0.121-3.611-0.242-5.347c-0.134-1.721-0.316-3.381-0.544-4.981c-0.216,0.242-0.437,0.491-0.667,0.746
		C81.999,145.875,81.521,146.466,81.078,147.072z M79.545,149.251c0.807,3.685,1.398,7.679,1.774,11.981
		c0-2.448-0.066-4.909-0.201-7.385c-0.135-2.137-0.296-4.195-0.484-6.172C80.257,148.188,79.895,148.712,79.545,149.251z
		 M100.241,136.299c-0.551,0.74-1.089,1.493-1.614,2.26c0.47,0.739,0.921,1.479,1.352,2.218v-0.162l0.02,0.202
		c0,0.026,0.021,0.06,0.061,0.101c0.322-1.25,0.652-2.421,0.988-3.51c-0.121-0.579-0.242-1.123-0.363-1.634
		C100.537,135.95,100.388,136.125,100.241,136.299z M97.396,140.496c0.108,0.188,0.215,0.383,0.323,0.585
		c0.524,0.981,1.035,2.003,1.533,3.066c0.054-0.201,0.101-0.403,0.141-0.605c0.068-0.31,0.148-0.625,0.243-0.948
		c-0.524-1.063-1.063-2.104-1.614-3.126C97.807,139.816,97.598,140.16,97.396,140.496z M100.967,142.593
		c0.228-0.242,0.464-0.47,0.706-0.686c0.081-0.067,0.167-0.134,0.262-0.201c-0.229-1.292-0.484-2.589-0.767-3.894
		c-0.269,1.156-0.524,2.406-0.767,3.752C100.604,141.887,100.792,142.23,100.967,142.593z M101.935,142.048
		c-0.269,0.27-0.525,0.559-0.767,0.868c0.256,0.524,0.531,1.069,0.827,1.634c0.188,0.39,0.376,0.78,0.565,1.17
		c-0.162-1.238-0.35-2.468-0.565-3.692C101.969,142.028,101.948,142.035,101.935,142.048z M96.893,137.489
		c-0.283,0.188-0.572,0.417-0.868,0.687c0.269,0.43,0.559,0.908,0.868,1.433c0.214-0.323,0.437-0.64,0.665-0.948
		C97.329,138.256,97.107,137.867,96.893,137.489z M95.582,137.429c0.121,0.202,0.255,0.424,0.403,0.667
		c0.296-0.229,0.591-0.444,0.887-0.646c-0.591-0.982-1.21-1.938-1.855-2.865C95.191,135.487,95.379,136.434,95.582,137.429z
		 M88.965,139.546c-0.134,0.095-0.276,0.196-0.423,0.304c0.121,0.188,0.235,0.39,0.342,0.605c0.511,0.942,1.009,1.99,1.493,3.147
		c0.444-0.538,0.894-1.063,1.351-1.574C90.787,141.073,89.866,140.246,88.965,139.546z M96.408,142.21
		c0.229,1.52,0.444,3.066,0.646,4.64c0.363-0.444,0.719-0.881,1.069-1.312c-0.431-1.358-0.868-2.703-1.312-4.035
		C96.664,141.746,96.529,141.981,96.408,142.21z M95.359,141.887c-0.094-0.928-0.181-1.875-0.262-2.844
		c-0.484,0.444-0.988,0.955-1.513,1.534c-0.458,0.511-0.9,1.028-1.331,1.552c0.672,0.632,1.304,1.251,1.896,1.856
		C94.539,143.272,94.942,142.573,95.359,141.887z M96.388,140.334c-0.188-0.499-0.37-1.003-0.545-1.513
		c0.107,0.618,0.215,1.237,0.323,1.855C96.233,140.556,96.308,140.442,96.388,140.334z M93.06,146.002
		c0.269-0.538,0.552-1.069,0.847-1.593c-0.605-0.714-1.223-1.393-1.855-2.038c-0.498,0.604-0.962,1.224-1.392,1.856v0.02
		c0,0.04,0.013,0.073,0.04,0.101c0.458,1.237,0.875,2.528,1.251,3.873C92.313,147.455,92.684,146.715,93.06,146.002z
		 M95.299,145.236l0.081-1.07c-0.121,0.256-0.242,0.505-0.363,0.747C95.097,145.021,95.191,145.128,95.299,145.236z M95.783,147.595
		l0.04,0.889c0-0.014,0.007-0.027,0.021-0.041c-0.013-0.147-0.021-0.295-0.021-0.443C95.823,147.864,95.81,147.729,95.783,147.595z
		 M95.258,146.123c-0.107-0.135-0.215-0.275-0.323-0.423c-0.054-0.067-0.121-0.148-0.202-0.242
		c-0.148,0.335-0.296,0.679-0.444,1.029c-0.605,1.358-1.17,2.75-1.694,4.176c0.121,0.59,0.248,1.19,0.383,1.794
		c0.013,0.107,0.026,0.21,0.04,0.303c0.027-0.015,0.047-0.041,0.061-0.08c0.632-1.063,1.285-2.092,1.957-3.086L95.258,146.123z
		 M95.864,150.118l0.04,1.532c0.027,0,0.06,0.021,0.101,0.063c-0.041-0.579-0.068-1.145-0.081-1.696
		C95.91,150.057,95.891,150.091,95.864,150.118z M94.351,153.002c-0.323,0.673-0.632,1.372-0.928,2.1
		c0.054,0.389,0.101,0.778,0.141,1.168c0.31-0.442,0.612-0.854,0.908-1.23c0.081-0.094,0.154-0.174,0.222-0.241l0.181-2.844
		C94.701,152.289,94.525,152.639,94.351,153.002z M95.904,151.689l0.041,1.715c0.026-0.04,0.054-0.066,0.081-0.08
		c-0.014-0.524-0.02-1.035-0.02-1.532C95.964,151.751,95.931,151.717,95.904,151.689z M90.155,144.974
		c-0.982,1.465-1.843,3.005-2.583,4.619l0.302,10.167c0.928-3.592,2.058-6.904,3.39-9.945
		C90.969,148.16,90.599,146.547,90.155,144.974z M100.221,143.945l0.161,2.683c0.592,1.398,1.13,2.817,1.614,4.255
		c0.188-0.349,0.383-0.665,0.585-0.948c-0.551-1.681-1.156-3.301-1.815-4.861c-0.162-0.391-0.336-0.774-0.524-1.15
		C100.228,143.925,100.221,143.932,100.221,143.945z M99.878,145.438v-0.202c-0.027,0.04-0.041,0.093-0.041,0.161L99.878,145.438z
		 M98.426,146.487c-0.027-0.082-0.048-0.148-0.061-0.202c-0.336,0.47-0.666,0.948-0.988,1.432c0.309,0.403,0.618,0.82,0.927,1.251
		c0.095-0.591,0.202-1.184,0.323-1.775C98.56,146.951,98.492,146.715,98.426,146.487z M98.062,150.4
		c-0.242-0.417-0.478-0.82-0.706-1.21c0.081,0.888,0.168,1.802,0.263,2.744c0.067-0.08,0.147-0.147,0.242-0.203
		C97.915,151.288,97.981,150.843,98.062,150.4z M99.313,150.42c0.121,0.176,0.242,0.371,0.363,0.586
		c-0.107-0.404-0.215-0.821-0.323-1.251C99.34,149.97,99.327,150.191,99.313,150.42z M97.639,152.256
		c0.027,0.188,0.047,0.391,0.061,0.604c0.04-0.281,0.074-0.558,0.101-0.826C97.746,152.102,97.692,152.175,97.639,152.256z
		 M56.871,153.748c0.094,0.335,0.182,0.686,0.262,1.049c0.107-0.121,0.229-0.249,0.364-0.383
		C57.295,154.199,57.086,153.979,56.871,153.748z M57.9,154.896c-0.202,0.242-0.39,0.485-0.565,0.729
		c0.135,0.658,0.269,1.331,0.403,2.016c0.081,0.433,0.162,0.869,0.242,1.313c0.336-0.512,0.699-1.021,1.089-1.533l0.021-0.906
		c-0.242-0.378-0.498-0.732-0.767-1.068C58.176,155.268,58.035,155.087,57.9,154.896z M59.978,155.704
		c-0.067-0.12-0.148-0.241-0.242-0.362l0.122,1.109c0.107-0.135,0.221-0.264,0.343-0.385
		C60.133,155.936,60.059,155.813,59.978,155.704z M59.151,154.475c-0.148-0.201-0.29-0.392-0.424-0.564
		c-0.215,0.229-0.43,0.479-0.645,0.746c0.202,0.201,0.396,0.41,0.585,0.625c0.147,0.162,0.302,0.33,0.463,0.505L59.151,154.475z
		 M69.6,160.404c0.188,0.578,0.363,1.17,0.524,1.775c0.107-1.063,0.243-2.098,0.403-3.106c0.041-0.269,0.088-0.538,0.142-0.808
		c-0.336,0.592-0.679,1.25-1.029,1.979C69.627,160.298,69.613,160.352,69.6,160.404z M65.343,163.188
		c0.082-0.026,0.162-0.06,0.243-0.101l0.221-4.942c-0.712,0.578-1.364,1.172-1.956,1.775
		C64.389,160.982,64.886,162.072,65.343,163.188z M67.199,162.482c-0.067,0.026-0.127,0.06-0.181,0.102l0.101,1.37
		C67.146,163.443,67.173,162.953,67.199,162.482z M65.868,157.46l0.101-2.34c-0.39-0.74-0.808-1.445-1.251-2.118
		c-0.591,1.573-1.015,3.288-1.27,5.145c-0.041,0.27-0.075,0.552-0.101,0.848c0.026,0.054,0.06,0.113,0.101,0.182
		C64.187,158.568,64.994,157.997,65.868,157.46z M66.998,157.298c-0.162,0.108-0.316,0.216-0.464,0.324l0.464,4.819
		c0.068-0.025,0.148-0.061,0.242-0.101c0.067-1.225,0.175-2.394,0.323-3.511C67.375,158.307,67.187,157.796,66.998,157.298z
		 M66.473,157.057c0.108-0.08,0.215-0.147,0.323-0.201c-0.026-0.067-0.054-0.129-0.081-0.183c-0.107-0.241-0.215-0.483-0.323-0.726
		L66.473,157.057z M70.729,157.823c0.162-0.955,0.364-1.964,0.606-3.026c-0.444,0.202-0.915,0.424-1.413,0.666
		c-0.269,0.146-0.531,0.295-0.787,0.444c0,0.106-0.006,0.2-0.02,0.28c-0.081,0.849-0.135,1.701-0.161,2.563
		c0.107,0.269,0.215,0.544,0.323,0.827C69.762,158.878,70.245,158.293,70.729,157.823z M70.911,147.878
		c-0.229,0.591-0.443,1.217-0.645,1.876c-0.498,1.803-0.868,3.751-1.109,5.85c0.188-0.094,0.376-0.184,0.564-0.263
		c0.579-0.255,1.129-0.483,1.655-0.687c0.026-0.215,0.066-0.432,0.121-0.646c0.323-1.277,0.646-2.394,0.968-3.347
		C71.98,149.72,71.462,148.792,70.911,147.878z M64.335,152.438c-0.014-0.041-0.033-0.073-0.061-0.102
		c-1.076,0.93-2.091,2.023-3.046,3.289c0.403,0.577,0.8,1.176,1.19,1.794c0.457-1.653,1.069-3.261,1.835-4.819
		C64.294,152.545,64.321,152.491,64.335,152.438z M63.104,150.762c-0.188-0.214-0.37-0.43-0.544-0.645
		c-1.049,0.888-2.051,1.842-3.005,2.865l0.061,0.604c0.444,0.538,0.881,1.098,1.311,1.675c1.076-1.13,2.185-2.118,3.328-2.967
		C63.891,151.785,63.508,151.273,63.104,150.762z M56.367,151.893c0.134,0.512,0.276,1.002,0.424,1.473
		c0.283,0.269,0.578,0.559,0.888,0.867c0.228-0.254,0.47-0.504,0.726-0.746c-0.74-0.954-1.54-1.861-2.4-2.723
		C56.139,151.126,56.26,151.503,56.367,151.893z M55.762,151.953c-0.121-0.646-0.255-1.258-0.403-1.835
		c-0.188-0.188-0.383-0.37-0.585-0.545c-0.444-0.416-0.9-0.813-1.371-1.19c-0.565,1.479-1.042,3.039-1.433,4.68
		c0.605,1.225,1.123,2.5,1.553,3.834c0.188,0.59,0.363,1.183,0.525,1.773c0.08-0.135,0.161-0.263,0.242-0.383
		c0.619-0.901,1.311-1.773,2.078-2.622c-0.134-0.968-0.283-1.917-0.443-2.845c-0.565-0.525-1.089-0.969-1.573-1.331
		c0.47,0.309,0.988,0.7,1.552,1.169C55.863,152.417,55.816,152.182,55.762,151.953z M50.275,151.085
		c-0.054-0.12-0.121-0.235-0.202-0.342c-0.228,1.008-0.443,2.11-0.645,3.308c0,0.027,0,0.067,0,0.121
		c0.31,0.27,0.605,0.553,0.888,0.848c0.041-0.135,0.08-0.263,0.121-0.383c0.175-0.658,0.37-1.291,0.585-1.896
		C50.793,152.175,50.544,151.624,50.275,151.085z M48.479,147.717c0.122,0.135,0.243,0.283,0.364,0.443
		c0.471,0.592,0.921,1.204,1.352,1.836c0.121-0.336,0.235-0.659,0.343-0.968c-0.107,0.336-0.208,0.687-0.303,1.049
		c0.202,0.296,0.404,0.598,0.605,0.907c0.162,0.269,0.323,0.543,0.485,0.828c0.47-1.332,1.001-2.609,1.593-3.833
		c-0.511-0.391-1.029-0.774-1.554-1.15c-0.659-0.47-1.311-0.895-1.956-1.27c-0.162,0.322-0.323,0.666-0.484,1.028
		C48.763,146.938,48.615,147.313,48.479,147.717z M47.693,153.346c-0.201-0.176-0.396-0.344-0.585-0.505
		c-0.201,1.05-0.356,2.165-0.463,3.349c-0.094,0.955-0.155,1.922-0.181,2.904c0.282,0.646,0.538,1.318,0.766,2.018
		c0.215-0.241,0.431-0.45,0.646-0.625c0.054-0.484,0.121-0.954,0.202-1.412c0.229-1.602,0.511-3.112,0.847-4.539
		C48.534,154.132,48.124,153.734,47.693,153.346z M47.794,149.755c-0.229,0.819-0.43,1.706-0.605,2.662
		c0.323,0.215,0.646,0.442,0.968,0.687c0.322,0.256,0.632,0.519,0.928,0.787c0.31-1.252,0.612-2.354,0.908-3.309
		c-0.403-0.781-0.874-1.559-1.412-2.34c-0.067-0.082-0.128-0.169-0.181-0.262C48.184,148.557,47.982,149.148,47.794,149.755z
		 M103.125,151.65c-0.134-0.432-0.269-0.86-0.403-1.291c-0.161,0.417-0.316,0.846-0.464,1.291c0.363,1.074,0.686,2.178,0.968,3.308
		c0-0.054,0.006-0.087,0.021-0.101C103.232,153.796,103.193,152.727,103.125,151.65z M99.636,153.404
		c-0.041-0.08-0.081-0.154-0.122-0.221c-0.121-0.244-0.242-0.49-0.362-0.748c-0.041,0.66-0.082,1.338-0.121,2.039
		c0.188,0.2,0.37,0.416,0.544,0.646L99.636,153.404z M56.468,156.814c-0.175,0.269-0.336,0.537-0.484,0.808
		c0.201,0.106,0.396,0.222,0.584,0.342c-0.013-0.108-0.02-0.208-0.02-0.304C56.535,157.379,56.508,157.098,56.468,156.814z
		 M58.909,161.596c-0.202-0.363-0.396-0.699-0.585-1.009c-0.04,0.054-0.066,0.106-0.08,0.162c0.175,1.343,0.31,2.715,0.403,4.112
		c0.054-0.119,0.107-0.228,0.162-0.321L58.909,161.596z M56.629,158.751c-0.202,0.351-0.39,0.739-0.565,1.17
		c-0.269,0.646-0.458,1.129-0.565,1.453c-0.053,0.121-0.107,0.282-0.161,0.483c0.202,0.416,0.384,0.834,0.545,1.25
		c0.242-0.687,0.538-1.365,0.888-2.037C56.73,160.291,56.683,159.518,56.629,158.751z M53.079,165.73c0-0.08,0-0.148,0-0.203
		c-0.025,0.103-0.039,0.23-0.039,0.384C53.042,165.839,53.055,165.779,53.079,165.73z M47.673,162.422
		c0.027-0.471,0.067-0.922,0.121-1.352c-0.121,0.188-0.242,0.391-0.364,0.604C47.499,161.918,47.579,162.166,47.673,162.422z
		 M40.229,155.463c-0.013,0.135-0.02,0.255-0.02,0.363c0.336-0.217,0.665-0.405,0.988-0.564c-0.216,0.215-0.431,0.437-0.646,0.665
		c0.632,0.498,1.231,1.183,1.795,2.058c0.605,0.969,1.063,1.942,1.372,2.926c0.39,1.17,0.611,2.406,0.666,3.712
		c0.026,0.376,0.026,0.76,0,1.147c0.053-0.215,0.127-0.414,0.221-0.604c0.041-2.111,0.182-4.143,0.424-6.092
		c-0.242-0.686-0.511-1.352-0.807-1.996c-0.875-1.965-2.044-3.827-3.51-5.588C40.499,152.834,40.338,154.158,40.229,155.463z
		 M54.532,160.324c0.081,0.119,0.155,0.256,0.222,0.402c0.215-0.391,0.436-0.766,0.666-1.129c0.336-0.498,0.686-0.955,1.049-1.371
		c-0.175-0.188-0.356-0.377-0.544-0.566c-0.188,0.311-0.363,0.619-0.525,0.929C55.076,159.182,54.787,159.76,54.532,160.324z
		 M51.909,158.287c-0.228-0.376-0.477-0.747-0.747-1.11c-0.269,1.884-0.443,3.833-0.524,5.851c0.148-0.389,0.303-0.779,0.464-1.17
		c0.336-0.767,0.747-1.506,1.23-2.219c-0.229,0.578-0.444,1.353-0.646,2.319c-0.108,0.687-0.161,1.326-0.161,1.917
		c0.027-0.095,0.053-0.189,0.081-0.282c0.363-1.036,0.813-2.065,1.351-3.087c-0.04-0.174-0.06-0.343-0.06-0.505
		C52.588,159.41,52.259,158.839,51.909,158.287z M50.114,155.846c-0.255-0.309-0.517-0.604-0.787-0.888
		c-0.175,1.372-0.315,2.751-0.423,4.136c-0.107,1.479-0.162,2.998-0.162,4.559C49.024,160.896,49.481,158.293,50.114,155.846z
		 M52.414,157.258c-0.014-0.081-0.034-0.16-0.061-0.24c-0.188-0.875-0.417-1.729-0.686-2.563c-0.041,0.079-0.068,0.174-0.081,0.281
		c-0.094,0.431-0.175,0.861-0.242,1.291C51.721,156.418,52.077,156.827,52.414,157.258z M65.484,163.57
		c0.014,0.055,0.035,0.109,0.061,0.162l0.021-0.182C65.525,163.552,65.498,163.559,65.484,163.57z M63.548,163.35
		c-0.121-0.39-0.255-0.779-0.403-1.17c0,0.055,0,0.114,0,0.182C63.293,162.684,63.427,163.014,63.548,163.35z M61.552,160.95
		c-0.162-0.378-0.336-0.747-0.525-1.109c-0.336-0.674-0.692-1.325-1.069-1.957l0.303,3.328c0.027,0.013,0.054,0.04,0.081,0.08
		c0.121,0.162,0.255,0.33,0.403,0.505C60.987,161.516,61.255,161.232,61.552,160.95z M61.793,159.658
		c0.027,0.053,0.061,0.115,0.101,0.183c0.027-0.175,0.061-0.344,0.101-0.505c-0.443-0.955-0.934-1.876-1.473-2.764
		c-0.148,0.175-0.275,0.363-0.383,0.563C60.73,157.918,61.282,158.757,61.793,159.658z M58.99,159.841l0.021-0.747
		c-0.108,0.176-0.196,0.355-0.263,0.545C58.814,159.691,58.895,159.76,58.99,159.841z M99.353,157.398
		c-0.121-0.281-0.256-0.576-0.403-0.887c-0.013,0.859-0.027,1.728-0.041,2.603c0.081-0.404,0.175-0.81,0.282-1.212
		C99.246,157.729,99.299,157.561,99.353,157.398z M96.085,158.368c0-1.251-0.006-2.496-0.021-3.732
		c-0.026,0.04-0.054,0.089-0.08,0.142L96.085,158.368z M91.85,155.02c-0.041-0.578-0.088-1.156-0.142-1.733
		c-0.511,1.667-0.975,3.396-1.392,5.185C90.787,157.258,91.297,156.107,91.85,155.02z M94.371,159.416
		c-0.067-0.201-0.141-0.41-0.223-0.625c-0.107,0.296-0.194,0.553-0.262,0.768c0.107,1.547,0.161,3.153,0.161,4.82L94.371,159.416z
		 M82.611,159.396c0.107-0.473,0.222-0.929,0.343-1.373c-0.175-0.431-0.363-0.826-0.564-1.188
		C82.469,157.682,82.543,158.535,82.611,159.396z M85.959,159.175l0.363-6.476c-0.242,0.646-0.457,1.311-0.646,1.998
		C85.797,156.122,85.892,157.614,85.959,159.175z M142.622,131.822c-0.108-0.767-0.216-1.5-0.323-2.198
		c-0.484,0.819-0.969,1.693-1.453,2.621c-0.35,0.673-0.706,1.372-1.069,2.099c0.349,0.793,0.692,1.653,1.029,2.582
		c0.175,0.511,0.363,1.029,0.565,1.553c0.08,0.282,0.167,0.572,0.261,0.868c0.121-0.162,0.236-0.31,0.343-0.444
		c-0.107,0.202-0.202,0.404-0.282,0.604c0.242,0.82,0.491,1.662,0.746,2.522c0.107,0.39,0.215,0.78,0.323,1.171
		c0.066-0.377,0.141-0.754,0.222-1.131c-0.108-0.753-0.215-1.445-0.324-2.078c-0.349-1.923-0.631-3.322-0.846-4.195
		c0.538,1.291,1.048,2.804,1.533,4.539c0.054-0.27,0.107-0.539,0.161-0.808C143.28,136.878,142.985,134.309,142.622,131.822z
		 M153.816,135.392c0.106,0.794,0.215,1.6,0.322,2.421c0.094-0.256,0.182-0.498,0.262-0.727c0.041-0.095,0.082-0.175,0.121-0.242
		c-0.24-0.484-0.477-0.989-0.705-1.514C153.816,135.358,153.816,135.378,153.816,135.392z M149.178,143.38
		c-0.068-0.148-0.128-0.296-0.183-0.444c-0.041,0.041-0.061,0.075-0.061,0.102c0.041,0.228,0.088,0.464,0.141,0.707
		C149.104,143.608,149.137,143.488,149.178,143.38z M149.319,142.996c0.161-0.564,0.336-1.076,0.524-1.533
		c-0.242,0.403-0.485,0.814-0.727,1.231C149.17,142.788,149.238,142.89,149.319,142.996z M153.15,140.415
		c-0.041-1.359-0.102-2.703-0.182-4.036c-0.994,1.521-1.937,3.054-2.824,4.6c-0.162,0.646-0.344,1.493-0.545,2.542
		c0.35,0.632,0.692,1.304,1.028,2.017c0.013-0.04,0.026-0.074,0.041-0.1c0.538-0.889,1.075-1.723,1.614-2.503
		c0.146-0.47,0.302-0.934,0.463-1.392c-0.335-0.686-0.691-1.392-1.068-2.118c0.391,0.444,0.807,0.968,1.25,1.573
		C153.01,140.798,153.084,140.603,153.15,140.415z M138.87,136.34c0.39,1.627,0.706,3.368,0.948,5.225
		c0.175-0.431,0.364-0.841,0.565-1.23c-0.296-1.722-0.619-3.45-0.969-5.184c-0.202,0.362-0.383,0.74-0.544,1.129
		C138.87,136.293,138.87,136.313,138.87,136.34z M145.708,149.129c0.027,0.375,0.047,0.76,0.061,1.149
		c0.282,0.539,0.578,1.178,0.887,1.917c0.107,0.269,0.215,0.529,0.322,0.787c0.122-0.324,0.243-0.64,0.364-0.949
		c0.04-0.376,0.087-0.732,0.141-1.068c0-1.601-0.046-3.281-0.141-5.043C146.763,147.024,146.219,148.093,145.708,149.129z
		 M140.726,142.392c-0.04-0.243-0.074-0.491-0.101-0.747c-0.242,0.444-0.471,0.901-0.686,1.371c0.161,1.667,0.255,3.41,0.282,5.226
		c0.027,2.326-0.074,4.773-0.303,7.342c0.363-0.9,0.747-1.796,1.15-2.684c0.161-1.17,0.343-2.305,0.544-3.408
		C141.411,147.272,141.115,144.906,140.726,142.392z M149.5,144.186c-0.054,0.216-0.107,0.559-0.161,1.03
		c0.107,0.685,0.215,1.371,0.322,2.056c0.174-0.375,0.371-0.732,0.585-1.068c-0.215-0.605-0.411-1.129-0.585-1.574
		C149.608,144.482,149.554,144.334,149.5,144.186z M149.984,150.965c0.014,0.35,0.034,0.706,0.061,1.068
		c0.215-1.184,0.464-2.373,0.746-3.57c-0.268,0.605-0.511,1.21-0.726,1.815L149.984,150.965z M162.471,136.542
		c-0.095-0.188-0.188-0.383-0.283-0.585c-1.074-2.394-2.17-4.726-3.287-7c-1.021,2.892-1.916,5.662-2.684,8.311
		c0,0.054,0,0.101,0,0.142c0.646,1.156,1.258,2.347,1.836,3.57c0.323-0.538,0.692-1.07,1.109-1.594
		c0.592-0.753,1.156-1.331,1.695-1.735c-0.916,0.995-1.688,2.267-2.32,3.813c-0.026,0.108-0.061,0.216-0.102,0.323
		c0.015,0.026,0.033,0.067,0.061,0.121c0.391,0.834,0.779,1.715,1.17,2.643c0.134-0.43,0.27-0.86,0.404-1.292
		c0.188-0.551,0.383-1.135,0.584-1.755c-0.201-0.269-0.424-0.517-0.666-0.746c0.242,0.175,0.484,0.37,0.728,0.585
		c0.443-1.331,0.979-2.824,1.612-4.478C162.37,136.757,162.416,136.649,162.471,136.542z M168.259,141.423
		c-0.038,0.322-0.065,0.659-0.079,1.009c0.646,0.901,1.297,1.902,1.957,3.006c0.026,0.026,0.053,0.066,0.079,0.121
		c0.498-1.036,1.003-1.991,1.515-2.864c-0.955-1.668-1.957-3.335-3.006-5.003c-0.08,0.43-0.154,0.881-0.222,1.351
		c-0.067,0.525-0.129,1.042-0.183,1.554c0.324-0.431,0.646-0.821,0.969-1.17C168.926,140.099,168.582,140.765,168.259,141.423z
		 M155.896,139.931c-0.109,0.834-0.203,1.654-0.283,2.461c-0.067,0.766-0.135,1.525-0.202,2.279
		c0.175,0.309,0.351,0.625,0.524,0.948c0.026-0.094,0.053-0.181,0.08-0.262c0.323-0.915,0.666-1.749,1.028-2.501
		C156.682,141.874,156.298,140.898,155.896,139.931z M162.006,144.025c-0.336,1.372-0.652,2.717-0.947,4.034
		c0.377,1.036,0.728,2.084,1.049,3.146c0.472-1.021,0.949-2.01,1.433-2.964c-0.015-0.135-0.04-0.275-0.08-0.424
		c-0.256-1.264-0.64-2.475-1.149-3.632c-0.08-0.134-0.154-0.274-0.223-0.423C162.047,143.857,162.02,143.945,162.006,144.025z
		 M157.367,145.538c-0.121,0.712-0.209,1.425-0.262,2.139c0.361,0.726,0.73,1.472,1.108,2.238c0.161-0.738,0.343-1.458,0.544-2.157
		c-0.363-1.143-0.746-2.28-1.148-3.409C157.516,144.751,157.436,145.149,157.367,145.538z M155.289,146.93
		c-0.014-0.054-0.04-0.108-0.08-0.161c-0.066,0.915-0.121,1.808-0.162,2.684c0.107-0.754,0.242-1.466,0.403-2.14
		C155.396,147.179,155.343,147.052,155.289,146.93z M156.982,150.965c0.027,0.941,0.096,1.891,0.201,2.844
		c0.016,0.229,0.034,0.451,0.063,0.666c0.107-0.633,0.229-1.25,0.363-1.854C157.407,152.081,157.199,151.527,156.982,150.965z
		 M165.96,146.527c-0.026-0.067-0.04-0.135-0.04-0.202c-0.107,0.188-0.202,0.39-0.281,0.605c-0.203,0.484-0.404,0.948-0.606,1.392
		c0.323,0.956,0.579,1.97,0.768,3.045c0-0.537,0-1.055,0-1.553C165.813,148.685,165.866,147.589,165.96,146.527z M169.936,148.141
		v0.019c0.309,0.902,0.619,1.81,0.928,2.724c0-0.134,0.007-0.256,0.021-0.362C170.561,149.7,170.243,148.907,169.936,148.141z
		 M164.387,146.667c0.094-0.174,0.195-0.355,0.305-0.544c0.322-0.591,0.649-1.143,0.986-1.654c-0.658-1.762-1.393-3.604-2.197-5.527
		c-0.433,1.371-0.834,2.75-1.211,4.135c0.295,0.35,0.531,0.667,0.705,0.948C163.512,144.819,163.982,145.7,164.387,146.667z
		 M107.745,128.654c-0.995,0.713-2.031,1.6-3.106,2.663c0.564,1.318,1.103,2.912,1.613,4.781c0.458,1.533,0.875,3.254,1.251,5.164
		c0.066,0.323,0.127,0.658,0.182,1.008l0.161-5.891l0.484,8.998c0.323-0.376,0.632-0.706,0.928-0.989
		c-0.296,0.324-0.605,0.707-0.928,1.15l0.162,2.824c0.013,0.35,0.04,0.706,0.081,1.068c0.134-0.214,0.275-0.408,0.423-0.584
		c-0.148,0.296-0.282,0.619-0.403,0.968c0.014,0.565,0.041,1.124,0.081,1.675c0.39-1.547,0.847-3.087,1.372-4.62
		c0.214-3.496,0.114-6.865-0.303-10.106c-0.242-2.031-0.632-3.927-1.17-5.689C108.316,130.202,108.04,129.394,107.745,128.654z
		 M133.524,141.322c-0.054-0.793-0.115-1.58-0.182-2.359c-0.86,1.372-1.682,2.75-2.461,4.135c-1.425,2.515-2.657,4.875-3.691,7.08
		c-0.081,1.884-0.215,3.832-0.403,5.849c0.053,0.162,0.1,0.324,0.141,0.486c0.122-2.154,0.558-4.07,1.312-5.75
		c0.538-1.17,1.156-2.206,1.856-3.106c0.376-0.497,0.806-0.981,1.291-1.452c0.592-0.551,1.157-0.995,1.694-1.332
		c-0.887,0.726-1.66,1.702-2.32,2.925c-0.497,0.942-0.887,1.977-1.169,3.106c-0.458,2.004-0.511,4.095-0.162,6.272
		c0.699-3.308,1.654-6.581,2.865-9.823c0.471-1.211,0.948-2.354,1.432-3.429C133.672,143.064,133.605,142.197,133.524,141.322z
		 M119.041,153.486c0.214-0.538,0.437-1.069,0.666-1.594c0.013-1.815-0.034-3.746-0.142-5.79c-0.619,1.183-1.196,2.327-1.734,3.428
		c0.135,2.246,0.202,4.46,0.202,6.637C118.341,155.268,118.678,154.374,119.041,153.486z M115.975,145.599
		c-0.013-0.242-0.02-0.471-0.02-0.686c-0.094,0.565-0.188,1.117-0.282,1.654c0.094,0.458,0.188,0.922,0.282,1.393
		c0.054-0.095,0.094-0.175,0.121-0.243C116.049,147.018,116.015,146.312,115.975,145.599z M106.05,151.934
		c0.013-0.779,0.02-1.581,0.02-2.401c-0.107,0.257-0.208,0.505-0.302,0.747c-0.162,0.405-0.303,0.807-0.424,1.211
		c0.068,0.632,0.128,1.271,0.182,1.916c0.135,0.391,0.262,0.779,0.383,1.17C105.976,153.701,106.023,152.82,106.05,151.934z
		 M112.263,142.352l-0.121,0.484c0.175,1.762,0.269,3.63,0.282,5.607c0.041,2.286-0.047,4.708-0.262,7.261
		c0.336-0.888,0.72-1.781,1.15-2.683c0.161-1.076,0.336-2.158,0.524-3.249c-0.201-2.124-0.497-4.458-0.888-6.999
		c-0.094-0.539-0.188-1.075-0.282-1.614C112.545,141.524,112.411,141.92,112.263,142.352z M121.199,143.098
		c-0.014,0.04-0.027,0.087-0.041,0.141c0.282,1.413,0.511,2.832,0.686,4.257c0.215-0.417,0.444-0.821,0.686-1.21
		c-0.242-0.672-0.458-1.264-0.646-1.775c-0.215-0.539-0.424-1.036-0.625-1.494C121.246,143.03,121.227,143.057,121.199,143.098z
		 M124.931,137.005c-1.21,1.856-2.374,3.759-3.49,5.709c0.484,0.86,0.982,1.822,1.493,2.884c0.659-1.103,1.318-2.117,1.977-3.046
		C124.978,140.656,124.984,138.808,124.931,137.005z M124.81,144.591c-0.242,0.47-0.504,1.008-0.786,1.613
		c-0.135,0.31-0.269,0.625-0.404,0.948c0.054,0.135,0.122,0.275,0.202,0.423c0.188,0.444,0.37,0.901,0.545,1.373
		c0.041-0.269,0.087-0.531,0.141-0.788c0.094-0.94,0.175-1.889,0.242-2.844C124.763,145.075,124.783,144.833,124.81,144.591z
		 M122.289,153.104c0.014,0.472,0.02,0.935,0.02,1.393c0.444-1.063,0.948-2.132,1.513-3.207c0.067-0.148,0.135-0.282,0.202-0.404
		c-0.269-0.901-0.552-1.796-0.848-2.683c-0.362,0.834-0.699,1.674-1.008,2.521C122.221,151.503,122.262,152.295,122.289,153.104z
		 M137.397,145.619c0.175-0.31,0.343-0.598,0.504-0.868c0.054-2.016,0-4.027-0.162-6.031c-0.726,1.667-1.398,3.328-2.016,4.982
		c0.214,1.385,0.375,2.757,0.483,4.115C136.583,147.078,136.98,146.346,137.397,145.619z M159.102,159.739
		c0.107-0.444,0.236-0.882,0.385-1.313c-0.055-0.188-0.107-0.362-0.162-0.524C159.257,158.521,159.182,159.134,159.102,159.739z
		 M169.328,156.432c0,0.215,0.015,0.432,0.041,0.646c0.188,1.074,0.41,2.156,0.666,3.247c0.094,0.431,0.193,0.854,0.303,1.271
		c-0.081-0.457-0.156-0.9-0.223-1.332C169.9,159.04,169.639,157.764,169.328,156.432z M163.479,156.311
		c0.055-0.375,0.107-0.748,0.162-1.108c0.174-1.359,0.248-2.677,0.221-3.954c-0.377,0.941-0.698,1.803-0.969,2.581
		C163.109,154.648,163.305,155.477,163.479,156.311z M133.766,153.285c0.027-0.514,0.047-1.029,0.061-1.555
		c0.014-0.779,0.02-1.573,0.02-2.38c-0.969,3.253-1.701,6.482-2.199,9.683c-0.161,0.929-0.296,1.849-0.403,2.764
		c0.524-2.73,1.358-5.566,2.501-8.512H133.766z M136.429,151.146c0,0.094,0,0.183,0,0.262c0.068-0.322,0.148-0.624,0.242-0.906
		C136.577,150.716,136.497,150.932,136.429,151.146z M160.475,155.279c0.053-0.159,0.106-0.314,0.16-0.463
		c-0.16-0.726-0.328-1.444-0.504-2.158c-0.066,0.392-0.129,0.787-0.182,1.189C160.124,154.32,160.299,154.797,160.475,155.279z
		 M214.434,141.787c-0.363,0.538-0.732,1.123-1.108,1.755c0,0.026,0,0.047,0,0.061c0.389,1.25,0.704,2.602,0.946,4.054
		c0.338-0.631,0.674-1.196,1.008-1.694c-0.065-0.39-0.133-0.78-0.2-1.17C214.861,143.757,214.648,142.755,214.434,141.787z
		 M145.869,155.826c0.188-0.538,0.39-1.076,0.605-1.614c-0.188-0.981-0.417-2.03-0.686-3.146
		C145.842,152.652,145.869,154.239,145.869,155.826z M210.7,152.498c0.337-0.538,0.7-1.077,1.09-1.614
		c-0.295-0.901-0.631-1.835-1.009-2.804c-0.201,0.404-0.404,0.807-0.604,1.21C210.393,150.326,210.566,151.395,210.7,152.498z
		 M227.262,152.256c0.027-0.135,0.063-0.256,0.102-0.363c0.095-0.242,0.195-0.498,0.303-0.767c-0.646,0.563-1.352,1.271-2.117,2.118
		c-0.107,0.105-0.229,0.242-0.363,0.402c-0.066,1.076-0.095,2.064-0.08,2.967c0.377-0.363,0.76-0.733,1.148-1.109
		c0.27-1.076,0.594-2.152,0.969-3.229c-0.014-0.041-0.025-0.066-0.039-0.08C227.195,152.209,227.223,152.229,227.262,152.256z
		 M212.396,149.936c0.026-1.533-0.041-3.032-0.203-4.497c-0.457,0.792-0.895,1.606-1.312,2.44
		C211.367,148.47,211.871,149.157,212.396,149.936z M214.434,148.785c0.135,1.265,0.221,2.607,0.262,4.035
		c0.015,0.457,0.015,0.922,0,1.392c0.646,1.521,1.138,3.046,1.474,4.579c0.054-1.95,0.026-3.879-0.081-5.789
		c-0.107-1.979-0.311-3.947-0.604-5.91C215.118,147.644,214.77,148.208,214.434,148.785z M215.341,146.244
		c-0.12,0.243-0.235,0.504-0.344,0.787c0.121-0.134,0.257-0.276,0.403-0.424C215.374,146.487,215.354,146.365,215.341,146.244z
		 M230.064,148.484c-0.564,1.667-1.016,3.308-1.351,4.92c0.106-0.094,0.216-0.182,0.322-0.262c1.104-0.888,2.118-1.641,3.047-2.26
		c-0.056-0.671-0.114-1.338-0.183-1.998c-0.174-1.291-0.396-2.413-0.666-3.368C230.833,146.405,230.441,147.395,230.064,148.484z
		 M183.609,143.258c-0.174-0.323-0.342-0.638-0.504-0.947c-0.739-1.358-1.514-2.683-2.319-3.975
		c-0.269,1.439-0.496,2.792-0.687,4.056c-0.363,2.299-0.632,4.464-0.807,6.494c0.066,0.417,0.128,0.829,0.182,1.231
		c0.16,0.31,0.323,0.617,0.483,0.927c0.552,1.076,1.09,2.24,1.614,3.489c0.174-2.139,0.478-4.262,0.906-6.374
		c-0.766-1.357-1.578-2.716-2.438-4.074c0.577,0.551,1.385,1.452,2.42,2.703c0.067,0.094,0.147,0.195,0.241,0.303
		c0.055-0.27,0.107-0.538,0.162-0.807C183.12,145.195,183.368,144.186,183.609,143.258z M171.85,142.957
		c-0.188,0.484-0.41,1.042-0.664,1.674c-0.215,0.538-0.41,1.062-0.586,1.574c0.215,0.363,0.416,0.733,0.605,1.109
		c0.188-1.438,0.424-2.864,0.705-4.276C171.896,143.01,171.877,142.983,171.85,142.957z M177.458,145.781
		c-0.336-2.435-0.72-4.896-1.149-7.384c-0.174,2.501-0.283,4.996-0.322,7.484c0.377,0.593,0.746,1.204,1.109,1.836
		c0.055-0.295,0.106-0.578,0.16-0.847c-0.256-0.511-0.49-0.948-0.706-1.311c0.257,0.322,0.505,0.666,0.746,1.028
		C177.352,146.318,177.404,146.05,177.458,145.781z M173.505,145.922c-0.108,2.071-0.153,4.021-0.142,5.85
		c0.215,0.512,0.431,1.028,0.646,1.554c0.121,0.282,0.235,0.565,0.343,0.848c-0.066-2.192-0.06-4.371,0.021-6.536
		C174.09,147.072,173.801,146.5,173.505,145.922z M176.025,151.045c0.026,1.13,0.066,2.24,0.121,3.329
		c0.041-0.216,0.088-0.433,0.143-0.646c0.039-0.391,0.072-0.787,0.1-1.189c0.027-0.175,0.047-0.344,0.062-0.505
		C176.302,151.712,176.16,151.382,176.025,151.045z M183.771,148.524c0.174,0.241,0.355,0.489,0.545,0.746
		c0.026-0.068,0.054-0.128,0.08-0.183c0.322-0.752,0.66-1.452,1.01-2.096c-0.35-0.821-0.729-1.627-1.131-2.421
		c-0.106,0.659-0.201,1.331-0.282,2.017C183.913,147.247,183.84,147.892,183.771,148.524z M179.939,153.204
		c0.066,0.188,0.147,0.37,0.24,0.544c-0.093-0.229-0.181-0.471-0.262-0.727C179.919,153.104,179.926,153.163,179.939,153.204z
		 M183.832,150.723c-0.055-0.107-0.107-0.216-0.16-0.323c-0.027-0.054-0.048-0.102-0.063-0.142c-0.08,0.766-0.141,1.52-0.182,2.26
		C183.536,151.886,183.672,151.288,183.832,150.723z M185.466,151.006c0.392,0.618,0.767,1.25,1.132,1.895
		c0.159-0.59,0.336-1.184,0.523-1.773c-0.352-0.968-0.732-1.93-1.15-2.884c-0.08,0.35-0.16,0.685-0.242,1.009
		C185.621,149.814,185.534,150.4,185.466,151.006z M198.477,137.349c-0.175-0.754-0.375-1.486-0.604-2.198
		c-0.352-0.969-0.699-1.83-1.049-2.583c-0.7,1.305-1.487,2.898-2.36,4.781c-0.483,1.076-0.935,2.132-1.353,3.167
		c0.229,0.498,0.472,1.028,0.728,1.594c0.443,0.955,0.866,1.99,1.271,3.107c0.123-0.579,0.264-1.124,0.425-1.634
		c0.483-1.601,1.089-3.066,1.815-4.397C197.725,138.498,198.102,137.887,198.477,137.349z M198.639,137.994
		c-0.215,0.431-0.418,0.889-0.604,1.372c-0.524,1.399-0.915,2.864-1.17,4.397c-0.067,0.431-0.128,0.882-0.181,1.353
		c0.336-0.377,0.657-0.72,0.967-1.029c-0.362,0.579-0.698,1.144-1.008,1.695c-0.137,1.157-0.188,2.347-0.162,3.57
		c0.35,0.511,0.721,1.083,1.109,1.714v-0.021c0.618-1.169,1.225-2.219,1.815-3.147c0.106-2.648-0.021-5.211-0.384-7.685
		C198.913,139.446,198.786,138.707,198.639,137.994z M194.061,148.322c-0.095-0.538-0.195-1.089-0.304-1.654
		c-0.282-1.56-0.638-3.254-1.069-5.083c-0.766,1.896-1.444,3.751-2.037,5.567c0.271,0.283,0.498,0.558,0.687,0.828
		c0.537,0.685,1.017,1.418,1.433,2.198c0.094-0.162,0.195-0.309,0.303-0.443C193.38,149.264,193.71,148.792,194.061,148.322z
		 M190.367,147.979c-0.335,1.13-0.645,2.245-0.928,3.349c0.377,0.888,0.733,1.775,1.069,2.663c0.431-0.835,0.894-1.655,1.392-2.464
		c-0.014-0.135-0.041-0.262-0.08-0.383c-0.242-1.047-0.627-2.07-1.149-3.065c-0.067-0.12-0.142-0.235-0.223-0.343
		C190.436,147.804,190.408,147.885,190.367,147.979z M197.227,151.792c-0.215-0.472-0.41-0.901-0.584-1.291
		c0.119,0.578,0.241,1.17,0.362,1.774C197.07,152.114,197.146,151.953,197.227,151.792z M198.113,151.953
		c0.054,0.107,0.115,0.222,0.182,0.342c0.203,0.352,0.391,0.707,0.564,1.069c0.014-0.12,0.041-0.241,0.08-0.362
		c0.108-0.807,0.195-1.62,0.264-2.441c0.054-0.537,0.102-1.067,0.143-1.593c-0.229,0.537-0.586,1.371-1.07,2.501
		C198.221,151.63,198.167,151.792,198.113,151.953z M194.02,150.4c-0.215,0.403-0.418,0.793-0.604,1.17
		c0.321,0.793,0.571,1.621,0.747,2.479c0-0.43,0-0.841,0-1.229c0.013-0.969,0.066-1.904,0.161-2.804
		c-0.015-0.04-0.021-0.087-0.021-0.141C194.208,150.036,194.113,150.212,194.02,150.4z M197.471,155.201
		c0.159,1.304,0.254,2.581,0.28,3.832c0.026,0.094,0.054,0.193,0.08,0.303c0.135-0.592,0.263-1.177,0.384-1.755
		c0.04-0.431,0.088-0.867,0.143-1.312c0.053-0.432,0.119-0.86,0.201-1.291c-0.27-0.699-0.545-1.386-0.828-2.059
		c-0.146,0.377-0.289,0.76-0.424,1.148C197.361,154.447,197.414,154.824,197.471,155.201z M187.686,159.598
		c-0.067,0.524-0.135,1.043-0.201,1.555c0.106-0.377,0.229-0.754,0.361-1.131C187.793,159.887,187.738,159.746,187.686,159.598z
		 M189.018,157.057c-0.162-0.632-0.336-1.25-0.525-1.854c-0.067,0.336-0.129,0.666-0.182,0.987c0.176,0.416,0.356,0.828,0.545,1.229
		C188.909,157.298,188.964,157.177,189.018,157.057z M191.859,158.268c0.056-0.324,0.107-0.64,0.162-0.949
		c0.174-1.129,0.242-2.23,0.201-3.309c-0.351,0.781-0.673,1.508-0.969,2.18C191.471,156.875,191.672,157.566,191.859,158.268z
		 M185.547,156.168c0.04,0.189,0.066,0.384,0.081,0.586c0.106-0.537,0.235-1.063,0.383-1.574c-0.215-0.455-0.424-0.914-0.625-1.371
		C185.387,154.575,185.439,155.361,185.547,156.168z M222.563,157.018c-0.055,0.053-0.107,0.119-0.162,0.201
		c0.041,0.079,0.088,0.174,0.143,0.281C222.542,157.326,222.549,157.163,222.563,157.018z M230.105,155.443
		c0.121-0.202,0.242-0.397,0.362-0.586c0.364-0.808,0.767-1.594,1.212-2.359c-0.404,0.389-0.808,0.779-1.212,1.17
		c-0.335,0.337-0.651,0.678-0.946,1.029C229.71,154.925,229.904,155.175,230.105,155.443z M228.251,156.088
		c-0.175,1.251-0.283,2.48-0.323,3.691c0.497-1.264,1.096-2.494,1.797-3.691c-0.188-0.361-0.377-0.691-0.565-0.986
		C228.835,155.436,228.533,155.766,228.251,156.088z M225.305,159.76c0.055,0.362,0.108,0.719,0.162,1.068
		c0.027-0.483,0.067-0.962,0.121-1.432C225.48,159.518,225.387,159.639,225.305,159.76z M210.882,155.038
		c0,0.055,0.009,0.114,0.021,0.183c0.054-0.215,0.129-0.416,0.222-0.604C211.031,154.75,210.949,154.893,210.882,155.038z
		 M208.279,155.523c0.041-0.592,0.063-1.219,0.063-1.877c-0.996,2.541-1.742,5.043-2.24,7.504c-0.135,0.673-0.248,1.339-0.343,1.996
		c0.552-2.19,1.372-4.328,2.462-6.412C208.247,156.344,208.268,155.939,208.279,155.523z"/>
</g>
</svg>
