<?xml version="1.0" encoding="utf-8"?>
<!-- Generator: Adobe Illustrator 16.0.0, SVG Export Plug-In . SVG Version: 6.00 Build 0)  -->
<!DOCTYPE svg PUBLIC "-//W3C//DTD SVG 1.1//EN" "http://www.w3.org/Graphics/SVG/1.1/DTD/svg11.dtd">
<svg version="1.1" id="Layer_1" xmlns="http://www.w3.org/2000/svg" xmlns:xlink="http://www.w3.org/1999/xlink" x="0px" y="0px"
	 width="300px" height="300px" viewBox="0 0 300 300" enable-background="new 0 0 300 300" xml:space="preserve">
<g>
	<path fill="#0E3446" d="M211.477,137.768c0.611-0.126,1.035-0.094,1.271,0.095c0.66,0.549,2.692,1.774,6.103,3.674
		c2.56,1.414,4.373,2.975,5.439,4.687c0.66,1.053,1.619,2.27,2.875,3.652c0.689,0.738,1.751,1.868,3.18,3.394
		c1.225,1.381,2.467,2.361,3.725,2.943c1.442,0.645,3.029,0.816,4.757,0.52c0.472-0.08,1.005-0.018,1.603,0.188
		c0.565,0.202,1.067,0.478,1.51,0.824c13.285,10.662,28.988,19.614,47.111,26.854c0.126,0.031,0.645,0.243,1.555,0.637
		c0.424,0.188,0.92,0.398,1.484,0.636l-0.354,0.919c-0.377-0.143-0.754-0.282-1.131-0.425c-5.151-1.964-9.047-3.454-11.685-4.474
		c-5.041-1.98-9.212-3.803-12.509-5.468c-3.221-1.601-7.241-3.918-12.063-6.95c-6.58-4.082-10.545-6.517-11.896-7.303
		c-0.597-0.359-1.445-0.645-2.544-0.848c-1.695-0.33-2.614-0.52-2.758-0.565c-1.334-0.313-2.315-0.548-2.943-0.706
		c-1.178-0.298-2.025-0.699-2.544-1.201c-4.664-4.365-8.804-8.661-12.415-12.886c-2.465-2.874-4.859-4.523-7.186-4.946
		c-2.371-0.41-5.057,0.392-8.056,2.402c-0.077,0.079-1.006,0.746-2.78,2.002c-1.113,0.817-2.072,1.428-2.873,1.838
		c-0.834,0.423-1.893,0.871-3.181,1.342c-1.539,0.518-2.726,0.935-3.557,1.25c1.838,1.649,3.55,2.889,5.135,3.721
		c1.885,0.957,3.864,1.508,5.937,1.647c1.101,0.08,2.198,0.314,3.299,0.709c1.162,0.407,2.137,0.926,2.922,1.555
		c2.777,2.293,6.092,5.111,9.939,8.455c2.184,1.901,5.457,4.761,9.822,8.576c0.661,0.564,1.154,1.036,1.484,1.412
		c0.519,0.551,0.936,1.147,1.25,1.791c-6.157-3.753-9.69-5.89-10.604-6.408c-0.094-0.063-1.285-0.736-3.58-2.024
		c-1.443-0.8-2.591-1.53-3.438-2.19c-1.948-1.46-4.099-3.439-6.454-5.937c-1.021-1.101-1.926-1.854-2.709-2.263
		c-1.067-0.58-2.238-0.763-3.51-0.543c-1.055,0.189-2.254-0.006-3.604-0.588c-5.981-2.592-10.751-6.408-14.3-11.448
		c-3.848-5.433-7.482-10.09-10.906-13.969c-4.193-4.759-8.464-8.85-12.814-12.274c-1.791-1.397-3.077-2.191-3.863-2.378h6.689
		c7.869,6.061,14.137,12.814,18.799,20.259c1.586,2.56,2.758,4.302,3.512,5.229c0.986,1.225,1.97,1.995,2.943,2.309
		c0.957,0.314,2.199,0.297,3.723-0.047c1.083-0.252,3.063-0.896,5.938-1.933c1.633-0.611,3.752-1.477,6.358-2.59
		c3.173-1.398,5.284-2.301,6.338-2.709C210.454,137.979,210.975,137.832,211.477,137.768z M271.005,183.963
		c-6.08-2.293-10.616-4.044-13.618-5.253c-0.533-0.22-1.404-0.668-2.613-1.343c-1.1-0.598-1.972-0.997-2.615-1.202
		c-0.455-0.14-1.076-0.172-1.86-0.095c-1.491,0.175-2.246,0.26-2.261,0.26c-0.395-0.848-1.116-1.807-2.167-2.872
		c-1.272-1.228-2.208-2.168-2.804-2.829c-2.23-2.449-3.08-5.206-2.545-8.268c4.695,5.104,9.392,9.272,14.086,12.509
		c5.373,3.69,11.002,6.353,16.892,7.985L271.005,183.963z M278.094,193.434l-22.049-2.852l-0.59,1.484l6.361,4.781
		c-4.414-1.396-8.977-3.658-13.688-6.783c-2.372-1.57-6.188-4.461-11.449-8.67c20.293,2.873,31.889,4.522,34.795,4.946
		c1.131,0.175,2.521,0.479,4.168,0.919c0.928,0.27,2.311,0.637,4.146,1.107c-6.609-1.021-11.566-1.721-14.865-2.098
		c-5.621-0.627-10.568-0.785-14.839-0.471l-0.188,0.918l28.338,6.149L278.094,193.434z M272.793,203.445
		c-4.507-0.598-7.875-1.045-10.104-1.344c-4.037-0.519-7.414-0.896-10.131-1.131c-5.09-0.424-11.865-0.66-20.328-0.707
		l40.988,10.859l-0.283,1.037c-5.686-1.398-9.957-2.451-12.813-3.157c-5.104-1.272-9.394-2.237-12.863-2.897
		c-7.065-1.365-15.813-2.66-26.241-3.887c-3.629-0.408-8.08-0.841-13.356-1.295c-0.628-0.047-1.233-0.096-1.813-0.143
		c-5.058-0.408-8.904-0.723-11.543-0.941l-0.143,1.201l46.29,5.158l-0.095,0.896l-26.948-2.546l-0.165,0.896l17.503,6.666
		c-9.108-2.215-16.019-3.895-20.729-5.041c-1.431-0.344-2.818-0.674-4.17-0.988c-6.689-1.586-12.479-2.857-17.361-3.816
		c-14.95-2.936-29.698-3.627-44.24-2.072l-0.142,0.871c1.163,0.143,2.898,0.425,5.206,0.849c2.058,0.315,3.777,0.44,5.159,0.378
		c16.568-0.818,33.695,1.014,51.379,5.488c4.742,1.209,9.532,2.599,14.369,4.17c0.424,0.156,0.918,0.453,1.483,0.894
		c-6.22-1.489-11.503-2.729-15.854-3.721c-4.695-1.054-8.314-1.791-10.859-2.215c-10.082-1.728-19.215-2.276-27.396-1.648
		l30.648,9.823l-0.189,1.036c-27.264-8.794-54.879-14.394-82.849-16.797c-21.06-1.821-42.309-1.821-63.745,0
		c-16.929,1.43-33.969,3.981-51.119,7.657l-0.188-0.873c2.152-0.564,5.347-1.443,9.588-2.64c3.784-1.02,6.996-1.772,9.634-2.26
		c2.968-0.563,6.518-1.192,10.647-1.886c2.152-0.36,4.469-0.736,6.949-1.131c9.581-1.522,15.461-2.465,17.645-2.828
		c0.393-0.076,0.809-0.29,1.249-0.635c0.408-0.297,0.729-0.651,0.966-1.06c0.329-0.521,0.667-1.187,1.013-2.003
		c0.361-0.989,0.659-1.743,0.895-2.262l2.355,6.031l2.592-7.186l1.602,5.063c2.387-0.832,3.887-2.559,4.5-5.182
		c0.345-3.126,0.824-5.41,1.437-6.855l1.672,8.623l1.367,0.164l2.638-11.968l2.568,11.968l0.542,0.023l2.073-8.693l1.979,11.803
		l1.178,0.024l1.932-9.966l2.709,9.564l0.683,0.07l2.873-12.015l2.709,12.698l0.73,0.117l1.438-3.912l1.908,4.595l1.672-2.638
		c0.738,0.313,1.783,0.801,3.133,1.459c1.209,0.551,2.246,0.951,3.109,1.203c1.445,0.438,3.911,0.957,7.397,1.554
		c0.361,0.063,1.194,0.127,2.498,0.188c1.052,0.031,1.876,0.148,2.473,0.354c2.733,0.925,4.759,1.444,6.078,1.553
		c2.183,0.188,4.295-0.298,6.337-1.459c1.444-0.801,2.214-1.257,2.309-1.364c0.737-0.552,1.225-1.242,1.46-2.076
		c0.377,0.252,0.958,0.676,1.743,1.273c0.66,0.471,1.13,0.648,1.413,0.541c0.424-0.143,0.833-0.541,1.225-1.202
		c0.219-0.329,0.518-0.925,0.895-1.79c0.33-0.722,0.683-1.617,1.061-2.685c0.471-1.287,0.84-2.302,1.107-3.04l2.355,7.775
		l0.612-0.119l2.003-7.563l2.049,6.125l0.658-0.094l3.017-13.215l2.354,13.145l0.85,0.023l1.813-11.051l3.463,13.453l0.85,0.117
		l1.838-7.729l1.46,7.21l0.729,0.116l2.027-4.451l2.613,8.01l2.354-2.262l3.981,1.673l2.072-2.521
		c1.396,1.239,2.584,1.516,3.558,0.823c0.565-0.424,1.319-1.555,2.261-3.392c0.6,2.291,1.783,3.736,3.559,4.334
		c0.927,0.298,2.718,0.424,5.371,0.377c1.742-0.031,3.91-0.047,6.502-0.047c1.477,0,3.776,0.009,6.901,0.021l1.954-3.58l1.934,3.321
		l5.135-8.175l1.697,5.654l0.635,0.116l1.578-7.913l0.588-0.072l1.133,6.69l0.611,0.166l1.625-5.63l2.476,9.657l2.425-4.005
		l1.932,2.851l2.191-1.626l-0.211,0.873c1.807,0.376,4.516,0.941,8.127,1.695c3.219,0.675,5.928,1.217,8.127,1.626
		c2.197,0.424,9.398,1.711,21.602,3.862L272.793,203.445z M218.73,159.273l-6.689-15.83l0.259-0.541
		c0.706,0.691,1.759,1.711,3.156,3.062c1.257,1.21,2.286,2.261,3.087,3.156c1.555,1.758,3.494,3.988,5.818,6.689l5.746,6.737
		c0.08,0.11,0.26,0.269,0.541,0.472c0.236,0.174,0.395,0.33,0.473,0.471l10.672,16.962l-22.285-23.156L218.73,159.273z
		 M229.73,182.811c-1.569-0.787-3.775-1.824-6.619-3.11c-3.141-1.445-5.354-2.476-6.644-3.086c-0.657-0.314-1.5-0.802-2.52-1.462
		c-1.21-0.77-2.026-1.278-2.45-1.529c-1.287-0.77-2.27-1.344-2.945-1.721c-1.162-0.676-2.197-1.131-3.109-1.365
		c-1.853-0.488-3.063-0.395-3.627,0.281c-0.565,0.66-0.465,1.869,0.308,3.627c0.55,1.258,1.403,3.119,2.567,5.584
		c1.021,2.262,1.789,4.201,2.308,5.818l-21.13-30.766c0.832,0.549,2.119,1.398,3.861,2.545c1.572,1.036,2.891,1.954,3.959,2.756
		c2.371,1.729,4.131,2.883,5.276,3.463c2.041,1.036,4.099,1.491,6.173,1.366c0.579-0.03,1.256,0.181,2.024,0.636
		c0.628,0.362,1.233,0.834,1.815,1.412c1.711,1.715,3.83,3.34,6.358,4.877c1.366,0.865,3.698,2.16,6.995,3.889
		c2.671,1.412,5.827,3.375,9.471,5.889c2.057,1.398,5.119,3.511,9.188,6.338l-0.166,0.564c-2.433-1.381-4.263-2.402-5.488-3.063
		C233.154,184.559,231.285,183.578,229.73,182.811z M191.617,179.346c2.072,1.477,4.71,3.282,7.915,5.418l7.962,5.348
		c-4.712-1.303-9.791-3.635-15.241-6.995c-6.188-4.146-10.845-7.241-13.969-9.282l-1.132,0.707l5.631,15.241
		c-0.833-0.896-1.422-1.53-1.768-1.907c-0.565-0.613-0.975-1.146-1.226-1.604c-3.659-6.736-6.84-12.83-9.541-18.279
		c-0.627-1.287-0.862-2.844-0.707-4.664c0.379-5.323-1.239-10.192-4.853-14.606c-1.256-1.585-1.986-2.959-2.19-4.122
		c-0.502-3.204-1.123-5.214-1.86-6.031c-0.785-0.88-2.687-1.634-5.701-2.262l1.744-13.993c4.521,2.435,8.754,6.227,12.696,11.378
		c1.177,1.522,4.499,6.534,9.964,15.029l-12.861-8.692c0.33,2.229,0.707,3.722,1.131,4.476c0.283,0.487,1.313,1.688,3.087,3.604
		c0.879,0.958,1.618,1.971,2.214,3.04c0.707,1.225,1.131,2.371,1.271,3.438c0.582,5.277,2.567,10.075,5.961,14.395
		C182.688,172.23,186.514,175.688,191.617,179.346z M132.064,133.528c1.477-1.1,3.699-2.717,6.667-4.853
		c0.173-0.11,0.456-0.275,0.849-0.495c0.298-0.22,0.463-0.408,0.494-0.565c0.283-1.963,1.358-3.683,3.228-5.159
		c0.361-0.299,1.186-0.896,2.474-1.791c1.052-0.723,1.846-1.343,2.378-1.861c0.347-0.33,0.724-0.698,1.131-1.106h5.699
		c-0.737,0.204-1.969,1.083-3.696,2.637c-0.361,0.347-0.997,0.833-1.908,1.461c-0.848,0.598-1.468,1.091-1.861,1.484
		c-0.628,0.612-1.625,1.885-2.991,3.816c-0.125,0.205-0.417,0.746-0.872,1.625c-0.346,0.691-0.69,1.186-1.036,1.484
		c-1.319,1.193-3.032,2.686-5.136,4.477c-3.032,2.543-4.774,4.011-5.23,4.405c-0.832,0.707-2.732,2.378-5.701,5.017
		c-1.585,1.43-3.156,2.308-4.711,2.639c-1.743,0.375-3.526,0.087-5.348-0.872c-1.193-0.628-2.379-0.825-3.557-0.589
		c-0.974,0.204-2.097,0.738-3.369,1.602c-4.256,2.985-10.357,7.163-18.304,12.533c-8.418,5.731-14.527,9.909-18.328,12.531
		c-0.989,0.659-2.835,2.12-5.536,4.382c-2.293,1.918-4.193,3.29-5.701,4.123c-3.314,1.837-7.429,3.957-12.344,6.359
		c-5.56,2.701-9.73,4.735-12.509,6.103l-0.495-0.942l8.528-4.264l-0.119-0.707H25.658l-0.118-0.52
		c2.544-0.235,6.353-0.59,11.425-1.06c4.523-0.425,8.332-0.802,11.425-1.13c1.791-0.188,3.604-0.816,5.442-1.886
		c-6.706-0.612-13.796-0.455-21.272,0.47c-6.187,0.771-13.145,2.146-20.871,4.124c0.691-0.252,1.743-0.644,3.157-1.178
		c1.241-0.472,2.292-0.841,3.157-1.107c3.047-0.957,5.371-1.563,6.973-1.813c2.481-0.394,5.551-0.863,9.21-1.413
		c2.042-0.314,5.104-0.763,9.188-1.343c3.156-0.473,5.833-1.201,8.033-2.189c2.654-1.18,4.892-2.868,6.714-5.066
		c0.989-1.207,2.285-2.599,3.886-4.168c1.806-1.744,3.142-3.056,4.005-3.935c0.471,0.957,0.549,1.933,0.235,2.92
		c-0.22,0.628-0.738,1.478-1.555,2.545c-0.927,1.241-1.54,2.128-1.838,2.662c-0.534,1.084-0.73,2.144-0.588,3.181
		c0.486-0.676,1.217-1.478,2.19-2.404c1.397-1.317,2.184-2.063,2.356-2.235c1.728-1.791,2.45-3.629,2.167-5.515
		c-0.236-1.506-0.872-3.313-1.908-5.418c-1.225-2.308-2.097-4.043-2.615-5.205c1.037-0.063,1.908,0.048,2.615,0.33
		c1.052,0.408,1.853,1.218,2.402,2.426c0.157,0.346,0.409,0.715,0.754,1.107c0.063,0.109,0.377,0.455,0.943,1.037
		c1.963,2.12,3.737,3.32,5.323,3.604c1.602,0.268,3.588-0.306,5.96-1.72c0.644-0.393,1.444-0.936,2.403-1.625
		c1.052-0.771,1.845-1.353,2.379-1.744c-1.665-1.258-2.897-1.838-3.698-1.743c-0.769,0.077-1.845,0.901-3.227,2.474l-0.99-6.736
		l1.909-7.044l10.223,10.082l2.992-1.789l-15.335-12.132c-3.439,4.067-5.355,6.329-5.749,6.784c-1.46,1.728-3.196,2.977-5.206,3.746
		c-1.853,0.691-3.997,1.007-6.432,0.943c-0.879-0.019-1.797,0.132-2.755,0.445c-0.942,0.33-1.767,0.77-2.474,1.319
		c-6.989,5.31-13.883,9.87-20.684,13.687c-7.475,4.193-14.998,7.586-22.567,10.178c-1.633,0.55-2.991,0.785-4.075,0.705l2.403-1.271
		c16.348-7.316,30.467-16.04,42.355-26.17c0.659-0.534,1.5-0.959,2.521-1.273c1.005-0.283,1.924-0.369,2.756-0.258
		c2.104,0.328,3.989,0.236,5.653-0.283c1.697-0.55,3.259-1.548,4.688-2.992c1.837-1.868,4.028-3.894,6.572-6.078
		c0.487-0.422,0.982-0.761,1.485-1.012c0.644-0.314,1.107-0.409,1.39-0.283c1.1,0.502,2.788,1.225,5.065,2.168
		c1.932,0.91,3.416,1.892,4.452,2.944c2.073,2.088,3.565,3.495,4.477,4.217c1.272,0.974,2.395,1.493,3.368,1.556
		c0.989,0.03,2.128-0.371,3.416-1.202c1.037-0.691,2.607-1.994,4.711-3.91c1.32-1.147,2.317-2.104,2.992-2.874
		c0.801-0.974,1.673-1.587,2.616-1.838c0.926-0.252,1.986-0.133,3.179,0.354c2.356,0.958,4.539,1.201,6.55,0.73
		c2.01-0.456,3.973-1.617,5.889-3.486C127.306,137.147,129.426,135.428,132.064,133.528z M141.229,131.855
		c0.471-0.471,0.989-1.021,1.554-1.649c0.534-0.581,1.398-1.523,2.591-2.827c0.158,0.11,0.637,0.409,1.437,0.896
		c0.691,0.393,1.241,0.73,1.649,1.013c1.21,0.833,2.38,1.688,3.511,2.568h-5.513c-0.126-0.016-0.236-0.023-0.33-0.023
		c-0.063,0-0.125,0.007-0.188,0.023L141.229,131.855L141.229,131.855z M17.955,218.992l34.747-10.719l-8.08-0.659
		c18.343-3.361,39.112-4.673,62.308-3.935c24.593,0.784,45.464,3.737,62.614,8.857c-8.022-1.102-14.103-1.924-18.233-2.475
		c-7.412-1.004-13.692-1.688-18.845-2.049c-13.867-1.021-26.705-1.297-38.515-0.826c-12.281,0.521-25.057,1.854-38.328,4.006
		c-5.151,0.849-11.417,2.136-18.799,3.863c-8.276,2.01-14.503,3.485-18.68,4.43L17.955,218.992z M164.455,156.473
		c0.863,1.397,1.492,2.639,1.886,3.721c0.234,0.677,0.345,1.658,0.329,2.945c-0.016,1.508,0.021,2.528,0.116,3.063
		c0.521,2.874,1.272,6.062,2.263,9.563c0.018,0.078,0.236,0.659,0.659,1.743c0.313,0.753,0.472,1.453,0.472,2.097
		c-2.369-2.293-4.13-4.028-5.275-5.205c-0.205-0.205-1.444-1.563-3.723-4.075c-1.396-1.492-2.803-2.185-4.217-2.073
		c-1.398,0.125-2.719,1.021-3.959,2.686c-3.28,4.461-7.961,7.516-14.039,9.162c-2.293,0.6-5.081,1.471-8.363,2.616
		c-3.612,1.288-6.306,2.229-8.08,2.827c1.318-0.975,3.321-2.48,6.007-4.523c2.372-1.773,4.429-3.203,6.172-4.287
		c1.115-0.705,2.977-1.656,5.583-2.852c2.497-1.16,4.359-2.143,5.583-2.943c0.989-0.645,2.002-1.58,3.038-2.804
		c0.44-0.52,1.312-1.657,2.614-3.415c0.676-0.927,1.461-2.113,2.355-3.558c0.486-0.815,1.201-2.034,2.145-3.652
		c0.424-0.438,0.612-0.714,0.564-0.823c-0.549-1.586-0.156-3.549,1.18-5.89c0.752-1.319,1.231-2.252,1.437-2.804
		c0.282-0.674,0.44-1.343,0.472-2.001c0.204,2.12,1.066,4.437,2.592,6.948C162.721,153.725,163.45,154.902,164.455,156.473z
		 M155.573,148.203c-0.581,1.477-1.437,3.723-2.567,6.736c-1.051,2.67-2.064,4.846-3.039,6.524c-0.691,1.163-1.767,2.38-3.227,3.652
		c-1.759,1.383-3.063,2.411-3.911,3.087c-1.037,0.8-2.285,1.695-3.745,2.686c-1.744,1.1-3.047,1.932-3.911,2.496
		c-1.053,0.707-1.838,1.061-2.356,1.061c-4.586-0.016-9.273,0.699-14.063,2.145c-4.036,1.194-8.41,3.008-13.122,5.441
		c-0.063,0.031-0.204,0.047-0.423,0.047c-0.456-0.03-0.833-0.047-1.131-0.047c0.11-0.047,1.759-1.115,4.947-3.204
		c1.822-1.161,3.346-2.088,4.57-2.78c2.655-1.459,4.272-2.331,4.853-2.611c1.869-0.959,3.549-1.636,5.042-2.027
		c1.334-0.346,3.085-0.551,5.253-0.612c1.241-0.032,3.204-0.086,5.889-0.166c-0.66-1.067-1.052-1.601-1.178-1.601
		c-1.759-0.018-3.478-0.715-5.159-2.098c-1.774-1.742-3.157-2.969-4.146-3.676c-2.23-1.585-4.829-2.387-7.797-2.4
		c-1.837-0.018-4.531,0.358-8.081,1.131c-0.926,0.22-2.073,0.563-3.439,1.035c-1.602,0.58-2.851,1.014-3.746,1.295
		c3.942-3.25,6.619-5.621,8.034-7.113c2.685-2.857,4.656-5.952,5.912-9.281l9.306,7.537c0.314,0.252,1.021,0.794,2.119,1.627
		c0.896,0.676,1.602,1.225,2.121,1.648c0.613,0.519,1.484,1.375,2.615,2.567c0.549,0.55,1.351,1.429,2.403,2.638
		c0.958,1.037,1.821,1.814,2.591,2.334c0.486,0.328,1.154,0.502,2.002,0.517c0.848,0.032,1.517-0.103,2.003-0.399
		c2.952-1.791,5.19-3.502,6.713-5.136c2.026-2.214,3.329-4.772,3.912-7.68c0.156-0.832,0.816-1.782,1.979-2.851
		C153.408,150.159,154.334,149.319,155.573,148.203z M54.869,214.328c0.016-0.018,0.11-0.102,0.283-0.26
		c0.079-0.078,0.149-0.125,0.212-0.142c23.447-3.329,44.946-4.672,64.499-4.028c22.599,0.754,43.847,4.178,63.745,10.271
		c-45.527-9.862-89.226-10.528-131.094-2.003l3.934-1.813L54.869,214.328z"/>
	<path fill="#FFCC67" d="M69.709,110.866c-7.695-7.696-11.542-16.993-11.542-27.891c0-10.9,3.847-20.197,11.542-27.892
		C77.42,47.388,86.717,43.54,97.601,43.54c10.899,0,20.196,3.848,27.892,11.543c7.711,7.695,11.567,16.992,11.567,27.892
		c0,10.898-3.856,20.195-11.567,27.891c-7.695,7.695-16.993,11.543-27.892,11.543C86.717,122.409,77.42,118.561,69.709,110.866z"/>
	<path fill="#010101" d="M182.311,77.156c0.127,0.094-0.14,0.573-0.799,1.438l-0.803,1.342c-0.063,0.11-0.104,0.197-0.117,0.259
		c-0.031,0.095,0,0.197,0.096,0.306c0.094,0.142,0.25,0.166,0.47,0.071c0-0.015,0.032-0.031,0.095-0.047
		c0.127-0.079,0.361-0.22,0.707-0.424c0.85-0.549,1.547-1.036,2.098-1.46c0.438-0.22,0.666-0.204,0.684,0.047
		c0,0.063-0.031,0.149-0.096,0.26c-0.235,0.408-0.824,1.005-1.767,1.79c-0.252,0.22-0.424,0.416-0.519,0.589
		c-0.031,0.031-0.039,0.086-0.022,0.165c0,0.063,0.007,0.11,0.022,0.141c0.016,0.047,0.063,0.071,0.142,0.071
		c0.047,0.015,0.103,0.015,0.164,0l1.131-0.307c0.33-0.078,0.779-0.188,1.345-0.329c0.596-0.11,0.855-0.04,0.776,0.21
		c-0.093,0.221-0.362,0.401-0.801,0.542c-0.408,0.141-0.88,0.314-1.414,0.518l-0.329,0.118c-0.048,0.016-0.096,0.055-0.143,0.118
		c-0.017,0.063-0.023,0.102-0.023,0.118c0,0.047,0.033,0.093,0.096,0.141c0.063,0.047,0.109,0.071,0.141,0.071
		c0.127,0,0.496-0.024,1.107-0.071l0.59-0.048c0.814,0,1.248,0.063,1.295,0.189c0.03,0.109-0.117,0.197-0.447,0.259
		c-0.204,0.047-0.346,0.079-0.424,0.094c-0.582,0.11-1.289,0.251-2.121,0.424c-0.377,0.235-0.715,0.417-1.014,0.542
		c-0.58,0.235-1.1,0.495-1.554,0.777c-0.188,0.158-0.394,0.244-0.612,0.259c-0.564,0.125-1.131,0.494-1.695,1.107
		c-0.219,0.173-0.408,0.361-0.566,0.565c-1.382,1.382-2.85,2.631-4.404,3.746c-0.361,0.236-0.637,0.424-0.822,0.565
		c-2.342,1.43-3.621,2.214-3.842,2.356c-0.314,0.204-0.658,0.494-1.037,0.871c-0.063,0.063-0.354,0.401-0.871,1.014
		c-1.43,1.633-2.797,2.921-4.1,3.863c-0.22,0.141-0.533,0.424-0.941,0.849c-0.157,0.141-0.196,0.329-0.117,0.564
		c0.015,0.032,0.117,0.432,0.306,1.202c0.017,0.063,0.04,0.126,0.071,0.188c-0.049-0.078-0.078-0.157-0.094-0.235
		c-0.157-0.393-0.291-0.785-0.4-1.178c-0.52-1.649-0.841-3.337-0.966-5.064c-0.032-0.628-0.048-1.256-0.048-1.885h0.048
		c0.047,0,0.133-0.055,0.259-0.165l5.891-4.24c0.188-0.141,0.344-0.283,0.469-0.425c0.724-0.784,1.744-1.436,3.063-1.955
		c0.03-0.016,0.079-0.04,0.142-0.071c1.57-0.66,3.164-1.562,4.783-2.709c0.172-0.125,0.305-0.251,0.399-0.376
		c0.33-0.314,0.511-0.589,0.542-0.824c0.047-0.283-0.031-0.605-0.234-0.966c-0.347-0.707-0.565-1.39-0.66-2.05
		c0-0.125,0-0.228,0-0.306l-0.447-1.555c0.597-0.361,1.037-0.134,1.318,0.683c0.063,0.095,0.11,0.212,0.144,0.353
		c0.03,0.063,0.063,0.141,0.093,0.235v0.023c0.204,0.566,0.573,0.99,1.107,1.273c0.234,0.11,0.424,0.158,0.564,0.141
		c0.157-0.015,0.338-0.102,0.543-0.259c0.219-0.204,0.643-0.652,1.271-1.343c0.596-0.675,1.027-1.178,1.295-1.508
		c0.234-0.345,0.424-0.565,0.564-0.66C181.997,77.078,182.139,77.078,182.311,77.156z M181.816,196.848
		c0,0.205,0.047,0.401,0.142,0.59c0.235,0.377,0.424,0.826,0.565,1.342c0.063,0.205,0.141,0.488,0.234,0.851h-77.714
		c0.063-0.032,0.11-0.056,0.142-0.071c0.36-0.205,0.707-0.242,1.036-0.117c0.11,0.047,0.236,0.063,0.377,0.047
		c0.047,0,0.165-0.022,0.354-0.071c1.177-0.187,1.923-0.313,2.238-0.376c0.204-0.063,0.519-0.134,0.942-0.211
		c0.33-0.126,0.596-0.314,0.8-0.564c0.095-0.144,0.251-0.3,0.472-0.472c0.235-0.188,0.4-0.323,0.495-0.401
		c0.094-0.108,0.172-0.172,0.235-0.188c0.833-0.361,1.735-0.864,2.709-1.507c0.188-0.111,1.037-0.691,2.544-1.744
		c0.173-0.11,0.495-0.291,0.966-0.542c0.519-0.235,0.911-0.533,1.177-0.896c0.472-0.502,0.99-0.824,1.555-0.965
		c0.487-0.142,1.029-0.354,1.626-0.637c0.597-0.25,1.177-0.313,1.743-0.188c0.283,0.063,0.51,0.063,0.683,0
		c0.205-0.063,0.393-0.197,0.566-0.401c0.282-0.298,0.722-0.746,1.319-1.343c0.581-0.597,1.013-1.068,1.295-1.414
		c0.942-1.051,1.822-2.269,2.639-3.65c0.675-1.1,1.374-2.427,2.096-3.98c0.44-0.942,1.092-2.387,1.956-4.336
		c0.172-0.392,0.33-0.854,0.471-1.39c0.079-0.235,0.086-0.479,0.023-0.729c-0.33-1.946-0.4-4.006-0.212-6.172
		c0.141-1.053,0.251-1.955,0.33-2.709c0.031-0.455,0.07-0.848,0.118-1.178c0.015-0.156,0.015-0.354,0-0.59v-0.636
		c-0.095-0.063-0.173-0.093-0.236-0.093c-0.267,0.015-0.455-0.119-0.565-0.401c-0.22-0.754-0.384-1.312-0.495-1.673
		c-0.015-0.204-0.046-0.354-0.093-0.448c-0.204-0.424-0.361-0.918-0.472-1.483c-0.078-0.375-0.157-0.901-0.236-1.578
		c-0.079-0.36-0.133-0.636-0.165-0.824l-0.307-1.014c-0.141-0.58-0.228-1.248-0.259-2.002c0-0.33,0.016-0.988,0.047-1.979
		c0-0.22,0.016-0.51,0.047-0.872c0.063-0.455,0.11-0.721,0.142-0.799l0.047-0.589c0.016-0.252-0.11-0.393-0.377-0.424
		c-0.298-0.032-0.518-0.118-0.659-0.259c-0.142-0.158-0.212-0.385-0.212-0.683c0-0.252-0.016-0.432-0.047-0.542
		c0-0.189-0.055-0.307-0.166-0.354c-0.203-0.126-0.306-0.345-0.306-0.659v-0.802l-0.447-0.211c-0.424-0.111-0.879-0.314-1.366-0.613
		c-0.047-0.031-0.455-0.313-1.225-0.847c-0.173-0.125-0.307-0.33-0.401-0.613c-0.063-0.314-0.086-0.651-0.071-1.013
		c0-0.094,0.023-0.454,0.071-1.082c0.094-0.566,0.165-0.981,0.211-1.249c0.047-0.503,0.025-0.927-0.07-1.273
		c-0.016-0.108-0.016-0.172,0-0.188c0.125-0.282,0.196-0.707,0.212-1.272c0-0.612,0.055-1.051,0.166-1.318
		c0.062-0.188,0.11-0.384,0.141-0.588c0.031-0.314,0.031-0.527,0-0.637c-0.079-0.361,0.007-0.651,0.259-0.871
		c0.612-0.503,1.272-0.849,1.979-1.037c0.267-0.047,0.487-0.149,0.66-0.306c0.706-0.645,1.735-1.641,3.086-2.992
		c0.172-0.157,0.306-0.313,0.4-0.471c0.298,2.717,3.479,4.343,9.54,4.876c0.095,0,0.212,0,0.354,0c0.031,0,0.071,0.016,0.118,0.047
		c0.141,0,0.298,0.016,0.471,0.047c0.33,0.016,0.683,0.031,1.06,0.047c0.11-0.016,0.235-0.031,0.377-0.047
		c2.324-0.345,4.72-1.57,7.185-3.675c0.188-0.172,0.368-0.33,0.542-0.471c1.132-0.974,2.136-1.531,3.015-1.672
		c0.096,0.33,0.274,0.683,0.543,1.06l0.611,0.801c0.237,0.282,0.416,0.558,0.543,0.824c0.532,0.974,0.682,1.869,0.446,2.686
		c-0.03,0.11-0.078,0.283-0.142,0.518c-0.063,0.22-0.141,0.4-0.235,0.542c-0.126,0.125-0.181,0.29-0.165,0.495
		c0,0.204,0.057,0.392,0.165,0.566l0.731,1.224c0.391,0.645,0.547,1.328,0.471,2.05c-0.018,0.455-0.032,1.043-0.049,1.766
		c0,0.394-0.016,0.998-0.045,1.814c-0.019,0.267-0.049,0.684-0.096,1.249c-0.017,0.267-0.017,0.542,0,0.825l0.07,2.144
		c0,0.22-0.039,0.354-0.118,0.4c-0.155,0.125-0.259,0.274-0.306,0.448c0,0.078,0.015,0.259,0.047,0.542
		c0.078,0.596,0.229,1.569,0.447,2.92c0.016,0.11,0.087,0.479,0.213,1.108c0.095,0.455,0.148,0.822,0.164,1.105
		c0.078,0.832,0.156,2.098,0.234,3.793c0.017,0.581,0.025,1.477,0.025,2.686c0.061,0.849,0.055,1.799-0.025,2.852
		c-0.017,0.52-0.094,1.477-0.234,2.874v0.022l-0.258,2.332c-0.127,0.941-0.197,1.729-0.215,2.355
		c-0.125,2.136-0.187,3.221-0.187,3.251c-0.032,1.226,0,2.292,0.093,3.203c0.063,0.407,0.143,0.723,0.236,0.942
		c0.14,0.299,0.385,0.541,0.729,0.73c0.519,0.313,1.084,0.438,1.695,0.377c1.164-0.096,2.025-0.118,2.593-0.07
		c0.63,0.063,1.187,0.258,1.673,0.588c0.486,0.314,0.879,0.763,1.178,1.343c0.486,0.896,0.416,1.649-0.211,2.262
		c-0.08,0.126-0.158,0.282-0.235,0.472c-0.11,0.282-0.165,0.448-0.165,0.493c-0.031,0.111,0,0.229,0.094,0.354
		c0.109,0.078,0.229,0.143,0.354,0.188c0.158,0.017,0.385,0.046,0.684,0.095c0.268,0.047,0.494,0.086,0.684,0.117
		c0.172,0.063,0.424,0.235,0.754,0.518c0.283,0.221,0.543,0.354,0.777,0.402c0.188,0.03,0.361,0.133,0.518,0.305
		c0.096,0.125,0.174,0.274,0.236,0.447c0.125,0.313,0.274,0.565,0.447,0.756c0.047,0.076,0.118,0.187,0.213,0.33
		c0.078,0.125,0.149,0.22,0.211,0.281c0.109,0.174,0.196,0.258,0.26,0.258c0.095,0.063,0.203,0.049,0.33-0.045l0.069-0.049
		c0.142,0.126,0.425,0.204,0.849,0.235c0.377,0.063,0.637,0.196,0.777,0.401c0.031,0.063,0.148,0.117,0.354,0.164
		c0.535,0.174,0.936,0.432,1.201,0.776c0.047,0.097,0.189,0.188,0.426,0.283c0.438,0.313,0.729,0.534,0.869,0.659
		c0.283,0.298,0.504,0.564,0.66,0.802c0.094,0.235,0.174,0.54,0.236,0.919c0.03,0.172,0.086,0.297,0.164,0.377
		c0.094,0.094,0.229,0.156,0.4,0.188c0.299,0.017,0.574,0.203,0.824,0.566c0.282,0.423,0.471,0.745,0.565,0.965
		c0.188,0.361,0.329,0.699,0.424,1.014c0.047,0.125,0.172,0.36,0.376,0.707c0.221,0.233,0.291,0.502,0.213,0.802
		C181.839,196.307,181.816,196.691,181.816,196.848z M151.287,90.018c-0.188,0.251-0.26,0.518-0.213,0.8l0.025,1.037
		c0.029,0.377-0.088,0.667-0.354,0.872c-0.205,0.157-0.392,0.393-0.565,0.707c-0.206,0.36-0.354,0.627-0.447,0.8
		c-0.032,0.11-0.079,0.197-0.142,0.26c-0.237,0.314-0.354,0.683-0.354,1.107c0,0.282,0.047,0.684,0.142,1.202
		c0.031,0.125,0.103,0.228,0.212,0.306c-1.43-0.565-2.788-0.864-4.076-0.896c-0.172,0-0.33,0-0.471,0
		c-0.157,0-0.314,0.016-0.472,0.047c-0.91,0.047-1.782,0.236-2.614,0.565c0.032-0.078,0.047-0.133,0.047-0.165
		c-0.016-0.487-0.047-1.225-0.095-2.215c0-0.125-0.063-0.212-0.188-0.259c-0.173-0.142-0.322-0.307-0.447-0.495
		c-0.078-0.078-0.212-0.251-0.4-0.519c-0.079-0.172-0.165-0.258-0.259-0.258c-0.204-0.031-0.393-0.141-0.565-0.331
		c-0.079-0.109-0.196-0.298-0.354-0.564c-0.063-0.11-0.117-0.181-0.165-0.212c-0.063-0.11-0.126-0.182-0.188-0.212
		c1.743,0.801,3.486,1.147,5.229,1.037c0.158,0,0.315-0.008,0.472-0.023c0.141-0.016,0.298-0.032,0.471-0.047
		C147.431,92.264,149.354,91.416,151.287,90.018z M112.583,74.942c0.063,0.361,0.142,0.918,0.236,1.672
		c0,0.094-0.023,0.267-0.071,0.518c-0.047,0.361-0.133,0.88-0.259,1.555c0,0.236,0.086,0.455,0.259,0.659
		c1.194,1.288,2.521,2.458,3.981,3.511c0.314,0.156,0.667,0.368,1.06,0.636c0.267,0.141,0.644,0.346,1.131,0.612
		c0.659,0.409,1.468,0.919,2.426,1.531c0.424,0.314,1.052,0.771,1.885,1.367c0.141,0.094,0.291,0.204,0.447,0.331
		c1.037,0.722,2.403,1.829,4.099,3.32c0.173,0.158,0.863,0.746,2.073,1.767c0.11,0.094,0.18,0.149,0.212,0.165h0.047
		c-0.031,0.142-0.055,0.268-0.071,0.377v0.118c1.398,0.801,2.772,1.532,4.123,2.191c0.299,0.142,0.565,0.267,0.801,0.376
		c0.063,0.017,0.126,0.04,0.189,0.071l0.071,0.047c0.031,0.016,0.078,0.032,0.141,0.048c0.016,0.015,0.031,0.023,0.047,0.023
		c0,0.031,0.062,0.078,0.188,0.141c0.063,0.047,0.118,0.071,0.165,0.071c0.047,0,0.086,0,0.117,0
		c1.147,0.502,2.278,0.95,3.393,1.343l0.188,0.047c0.016,0.015,0.04,0.023,0.071,0.023l0.047,0.047
		c1.994,0.66,3.918,1.13,5.771,1.413c5.779,0.88,10.867-0.172,15.265-3.156c0.016,0.456,0.057,0.903,0.119,1.343
		c-4.478,2.889-9.604,3.918-15.384,3.086c-4.727-0.707-9.894-2.646-15.5-5.819c-0.236,1.366-0.487,2.63-0.753,3.793
		c0,0.031-0.009,0.07-0.024,0.118c5.591,4.099,11.017,6.407,16.278,6.925c5.575,0.565,10.979-0.903,16.208-4.405
		c0.109,0.409,0.252,0.809,0.424,1.202c-5.371,3.549-10.914,5.049-16.631,4.499c-5.387-0.518-10.922-2.819-16.607-6.902
		c0,0.016-0.008,0.04-0.024,0.071c0-0.047-0.008-0.087-0.023-0.119c-0.031-0.032-0.063-0.054-0.094-0.07
		c0.017-0.031,0.032-0.062,0.047-0.094c-0.094-0.204-0.228-0.385-0.401-0.542c-0.534-0.471-0.926-0.833-1.178-1.084
		c-0.456-0.44-0.824-0.809-1.107-1.107c-0.439-0.456-0.958-1.021-1.554-1.696c-0.644-0.754-1.131-1.319-1.46-1.696l-0.472-0.636
		c-0.377-0.519-0.887-0.998-1.531-1.437c-0.251-0.173-0.84-0.535-1.767-1.083c-1.555-0.942-2.827-1.916-3.816-2.921
		c-0.063-0.047-0.134-0.109-0.212-0.188c-0.487-0.518-1.555-1.649-3.204-3.392l-1.39-1.366c-0.377-0.408-0.926-0.652-1.648-0.73
		c-1.304-0.11-2.096-0.165-2.379-0.165c-0.565-0.016-1.114,0.031-1.649,0.141c-0.533,0.095-1.068,0.118-1.601,0.071
		c-0.204,0-0.338-0.095-0.4-0.284c-0.079-0.219-0.009-0.368,0.211-0.446c0.142-0.063,0.331-0.118,0.565-0.165l1.602-0.26
		c0.063,0,0.141-0.039,0.236-0.117c-0.017-0.22-0.134-0.314-0.354-0.283c-0.314,0.032-0.667-0.008-1.061-0.118
		c-0.471-0.109-0.824-0.188-1.06-0.235c-0.236-0.032-0.354-0.149-0.354-0.353c0-0.236,0.126-0.369,0.377-0.401
		c0.063-0.015,0.259-0.015,0.589,0l1.743,0.095c0.063-0.031,0.166-0.063,0.306-0.095c0.141-0.047,0.212-0.118,0.212-0.212
		c0.078-0.236-0.04-0.432-0.353-0.589c-0.095-0.032-0.535-0.227-1.32-0.589l-0.612-0.259c-0.267-0.11-0.354-0.29-0.26-0.542
		c0.079-0.235,0.244-0.322,0.495-0.259c0.753,0.157,1.233,0.275,1.437,0.353c0.299,0.08,0.715,0.236,1.249,0.472
		c0.063,0.016,0.11,0.024,0.142,0.024c0.047,0,0.11,0,0.188,0c0.094-0.016,0.149-0.047,0.165-0.094
		c0.063-0.063,0.078-0.141,0.047-0.235c-0.032-0.079-0.086-0.134-0.165-0.166c-0.157-0.125-0.51-0.329-1.06-0.612
		c-0.252-0.125-0.416-0.236-0.495-0.33c-0.204-0.188-0.267-0.345-0.188-0.471c0.047-0.063,0.117-0.118,0.212-0.165
		c0.11-0.031,0.188-0.046,0.235-0.046c0.472,0.109,0.84,0.235,1.107,0.376c0.188,0.094,0.479,0.267,0.871,0.518
		c0.393,0.235,0.692,0.401,0.896,0.495c0.534,0.267,0.997,0.456,1.39,0.565c0.125,0.015,0.275,0.008,0.447-0.024
		c0.142-0.046,0.268-0.109,0.377-0.188c0.455-0.408,0.691-0.833,0.707-1.271c0.031-0.409,0.196-0.731,0.495-0.966
		c0.047-0.063,0.118-0.102,0.212-0.118c0.094-0.031,0.173-0.031,0.235,0c0.063,0.016,0.118,0.063,0.165,0.142
		C112.559,74.789,112.583,74.863,112.583,74.942z M134.609,114.965c-0.032-0.251-0.063-0.487-0.095-0.707
		c3.785,1.602,7.396,2.418,10.836,2.45c3.785,0.031,7.35-0.935,10.695-2.897c-0.063,0.408-0.126,0.903-0.188,1.484
		c-3.299,1.791-6.801,2.67-10.507,2.639c-3.376-0.032-6.91-0.794-10.6-2.286C134.703,115.412,134.656,115.185,134.609,114.965z
		 M133.854,110.183c-0.094-0.456-0.196-0.903-0.306-1.343c4.1,1.398,8.033,2.128,11.802,2.191c4.051,0.063,7.931-0.668,11.638-2.191
		c-0.018,0.031-0.039,0.071-0.071,0.117h-0.022c-0.156,0.236-0.274,0.598-0.354,1.084l-0.023,0.236
		c-0.016,0.016-0.023,0.031-0.023,0.047c-3.551,1.35-7.264,1.994-11.143,1.932C141.66,112.193,137.828,111.501,133.854,110.183z
		 M135.386,119.7c3,1.602,6.322,2.261,9.965,1.979c3.219-0.251,6.706-1.249,10.459-2.992l0.047,0.164
		c0,0.048,0.016,0.094,0.047,0.142c0.109,0.267,0.127,0.518,0.049,0.754v0.047c-0.018,0.047-0.023,0.11-0.023,0.188h-0.023
		c-3.785,1.712-7.303,2.693-10.554,2.944c-3.691,0.283-7.051-0.369-10.083-1.955v-0.023c0.125-0.188,0.173-0.456,0.142-0.802v-0.023
		c0-0.094,0-0.172,0-0.235C135.394,119.826,135.386,119.763,135.386,119.7z M135.315,124.717c1.963,2.732,4.68,4.012,8.15,3.84
		c0.598-0.032,1.225-0.095,1.885-0.188c3.078-0.549,6.659-2.049,10.742-4.5v0.047c-0.016,0-0.023,0.008-0.023,0.024
		c-0.109,0.376-0.148,0.8-0.116,1.271c0,0.048,0.015,0.094,0.047,0.141c-4.052,2.308-7.602,3.723-10.648,4.241
		c-0.613,0.093-1.217,0.157-1.814,0.188c-3.439,0.157-6.227-0.935-8.362-3.275c0.047-0.345,0.07-0.612,0.07-0.801
		c0-0.298-0.047-0.565-0.141-0.801L135.315,124.717z M133.667,131.808l0.589-1.791l-0.118-0.118l-2.049,1.908L133.667,131.808
		L133.667,131.808z M148.295,153.244l-0.046,0.354c0,1.633,0.157,3.008,0.47,4.123c0.127,0.485,0.016,0.918-0.33,1.295
		c-0.298,0.36-0.682,0.66-1.154,0.896l-2.732,1.272c-0.283,0.125-0.463,0.228-0.542,0.306c-0.205,0.172-0.307,0.385-0.307,0.636
		c0,0.047-0.016,0.135-0.047,0.26c-0.314,0.645-0.557,1.383-0.73,2.215c-0.204,0.85-0.337,1.791-0.4,2.826
		c-0.016,0.408-0.024,0.928-0.024,1.555c0,0.33,0,0.842,0,1.531c0,0.44,0.008,1.092,0.024,1.956c0,0.784-0.008,1.444-0.024,1.978
		c-0.078,1.492-0.227,3.716-0.447,6.668c-0.11,1.979,0.023,4.021,0.4,6.125c0.031,0.095,0.071,0.203,0.118,0.33
		c0.848-0.157,1.531-0.291,2.049-0.4c0.158-0.031,0.315-0.079,0.472-0.143c0.188-0.016,0.345-0.031,0.471-0.047
		c0.063-0.03,0.118-0.049,0.165-0.049c0.204-0.029,0.471-0.014,0.801,0.049c0.392,0.063,0.73-0.063,1.012-0.377
		c0.111-0.172,0.189-0.299,0.237-0.377c0.219-0.203,0.384-0.369,0.494-0.496c0.173-0.203,0.338-0.358,0.495-0.47
		c0.504-0.329,1.311-0.794,2.427-1.39c0.879-0.52,1.61-0.833,2.19-0.942c0.11-0.03,0.282-0.094,0.521-0.188
		c0.267-0.079,0.422-0.282,0.47-0.612c0.047-0.158,0.142-0.463,0.284-0.919c0.078-0.298,0.039-0.534-0.118-0.707l-0.613-0.683
		c-0.155-0.157-0.117-0.308,0.119-0.448l0.847,0.778l0.165-0.094c0.095-0.865,0.144-1.479,0.144-1.84
		c-0.032-0.52-0.024-0.958,0.021-1.318c0.018-0.172,0.055-0.424,0.118-0.754c0.063-0.346,0.103-0.597,0.118-0.754
		c0.063-0.689,0.063-1.477,0-2.355c-0.063-0.564-0.149-1.342-0.26-2.331c-0.158-1.021-0.4-2.481-0.73-4.384
		c-0.125-0.612-0.234-1.185-0.33-1.719c-0.314-1.633-0.549-2.929-0.705-3.888c-0.269-1.649-0.455-2.967-0.566-3.958
		c-0.03-0.439-0.047-0.988-0.047-1.648c0-0.752,0-1.317,0-1.694c0-0.267-0.029-0.425-0.094-0.472
		c-0.063-0.063-0.236-0.088-0.519-0.069c-0.3,0.046-0.519,0.077-0.66,0.094c-0.267,0.03-0.479,0.046-0.638,0.046
		c-0.407-0.046-1.019-0.14-1.835-0.281c-0.237-0.047-0.409-0.031-0.519,0.047C148.382,152.837,148.311,152.993,148.295,153.244z
		 M136.799,182.173l-0.966-6.196h-0.141l-0.047,0.049c-0.958,2.89-2.309,5.709-4.052,8.457c-0.518,0.863-0.911,1.444-1.177,1.742
		c-0.723,0.896-1.838,2.207-3.346,3.936l-0.377,0.47l0.094,0.07l0.188,0.024c1.9,0.094,3.44,0.502,4.617,1.226
		c0.204,0.108,0.605,0.313,1.201,0.612c0.142,0.095,0.354,0.188,0.637,0.283c0.235-0.363,0.369-0.56,0.401-0.591
		c0.596-0.848,1.303-1.421,2.12-1.72c0.298-0.11,0.738-0.244,1.319-0.4c0.157-0.063,0.259-0.102,0.306-0.117
		c0.079-0.063,0.125-0.148,0.142-0.26c0.031-0.675,0.04-1.074,0.023-1.201c-0.031-0.91-0.157-1.994-0.376-3.25
		C137.098,183.924,136.909,182.878,136.799,182.173z"/>
	<path fill="#F47D3D" d="M144.385,78.192c0.157-0.031,0.313-0.047,0.471-0.047c0.142,0,0.291,0,0.447,0h0.047
		c0.833,0.031,1.555,0.165,2.167,0.401c0.754,0.267,1.351,0.659,1.79,1.178c0.22,0.298,0.557,0.714,1.014,1.249
		c0.094,0.11,0.18,0.337,0.259,0.684l0.707,1.506c0.361,0.738,0.559,1.147,0.589,1.226c0.22,0.502,0.376,0.951,0.472,1.342
		c0.109,0.424,0.148,0.856,0.118,1.296c-0.049,0.628-0.252,1.265-0.614,1.908c-0.109,0.236-0.328,0.558-0.658,0.966
		c-0.017,0.046-0.039,0.094-0.07,0.142c-1.932,1.397-3.855,2.245-5.771,2.543c-0.172,0-0.337,0.016-0.495,0.048
		c-0.158,0.016-0.314,0.023-0.471,0.023c-1.728,0.095-3.463-0.25-5.206-1.036c-0.047-0.063-0.087-0.095-0.118-0.095
		c-0.8-0.581-1.272-1.444-1.413-2.591c-0.11-0.722-0.095-1.358,0.047-1.908c0.063-0.251,0.149-0.495,0.259-0.73
		c0.141-0.298,0.244-0.667,0.307-1.107c0.063-0.502,0.103-0.888,0.117-1.154c0.158-1.146,0.51-2.215,1.061-3.204
		c0.424-0.739,1.115-1.367,2.073-1.884C142.406,78.49,143.364,78.239,144.385,78.192z M129.944,92.585
		c0.502,0.126,1.044,0.377,1.625,0.754c0.299,0.204,0.777,0.565,1.437,1.083c0.424,0.362,0.809,0.645,1.154,0.848
		c-1.397-0.675-2.827-1.437-4.288-2.284C129.89,92.86,129.913,92.727,129.944,92.585z M137.789,96.755l0.849,0.354
		c0.235,0.094,0.448,0.188,0.636,0.283c-1.115-0.393-2.246-0.84-3.393-1.343c0.283,0,0.589,0.078,0.919,0.236
		C137.019,96.394,137.35,96.551,137.789,96.755z M128.578,100.995c-0.032-0.471-0.047-0.824-0.047-1.06c0-0.094,0-0.181,0-0.258
		c0.031-0.063,0.055-0.126,0.07-0.189c5.732,4.162,11.315,6.502,16.749,7.02c5.716,0.55,11.261-0.95,16.63-4.499
		c0,0.079,0.031,0.165,0.096,0.259c0,0.047,0,0.103,0,0.166c0,0.298-0.086,0.581-0.26,0.848c-0.676,0.99-1.297,1.751-1.861,2.285
		c-1.318,1.178-2.309,2.27-2.967,3.274c-3.707,1.523-7.586,2.254-11.638,2.191c-3.769-0.063-7.703-0.793-11.802-2.191
		c-0.016-0.031-0.023-0.063-0.023-0.094c-0.016-0.095-0.079-0.228-0.189-0.401c-1.319-2.135-2.238-3.596-2.756-4.381
		c-0.314-0.486-0.675-0.879-1.084-1.178C128.884,102.345,128.578,101.75,128.578,100.995z M129.685,94.282
		c5.669,3.235,10.891,5.206,15.666,5.913c5.779,0.832,10.907-0.197,15.383-3.086c-0.049-0.33-0.08-0.668-0.096-1.013
		c0.144,1.602,0.447,3.172,0.92,4.711c-5.229,3.502-10.633,4.971-16.208,4.405c-5.308-0.518-10.781-2.867-16.419-7.043
		C129.214,96.975,129.465,95.679,129.685,94.282z M134.302,112.962c-0.031-0.518-0.078-0.902-0.141-1.154
		c-0.079-0.519-0.181-1.06-0.307-1.625c3.974,1.319,7.805,2.01,11.496,2.073c3.878,0.063,7.593-0.582,11.143-1.932
		c-0.144,0.77-0.275,1.68-0.4,2.732c-0.016,0.204-0.03,0.456-0.047,0.754c-3.346,1.963-6.911,2.929-10.695,2.897
		c-3.439-0.032-7.051-0.849-10.836-2.45C134.451,113.833,134.382,113.402,134.302,112.962z M134.75,115.647
		c3.69,1.492,7.224,2.254,10.6,2.286c3.706,0.031,7.208-0.849,10.507-2.639c-0.017,0.235-0.039,0.487-0.071,0.754
		c-0.063,0.549-0.095,0.989-0.095,1.318c-0.03,0.44,0,0.864,0.095,1.272l0.024,0.047c-3.754,1.743-7.242,2.74-10.46,2.992
		c-3.643,0.282-6.965-0.377-9.965-1.979c-0.016-0.173-0.016-0.291,0-0.353c0.047-0.33,0.024-0.684-0.07-1.061
		c-0.109-0.424-0.204-0.753-0.283-0.99c-0.078-0.33-0.149-0.714-0.212-1.154C134.805,115.986,134.782,115.82,134.75,115.647z
		 M135.268,120.971c3.031,1.586,6.392,2.238,10.083,1.955c3.25-0.25,6.769-1.232,10.553-2.944c-0.031,0.282,0,0.589,0.096,0.919
		c0.063,0.22,0.156,0.565,0.281,1.036c0.095,0.298,0.119,0.628,0.07,0.989c-0.047,0.252-0.133,0.566-0.258,0.943
		c-4.084,2.45-7.665,3.95-10.743,4.5c-0.66,0.094-1.287,0.157-1.885,0.188c-3.47,0.172-6.188-1.107-8.15-3.84l-0.212,0.188
		c0-0.032-0.016-0.063-0.047-0.095c-0.173-0.47-0.141-0.973,0.095-1.508c0.157-0.313,0.235-0.479,0.235-0.494
		c0.063-0.172,0.086-0.345,0.071-0.518c-0.094-0.471-0.157-0.817-0.189-1.038C135.252,121.129,135.252,121.035,135.268,120.971z
		 M135.174,126.507c2.136,2.34,4.923,3.432,8.362,3.275c0.597-0.032,1.201-0.095,1.814-0.188c3.047-0.518,6.597-1.933,10.648-4.241
		c0.031,0.157,0.133,0.267,0.305,0.33c0.676,0.235,1.063,0.691,1.154,1.367c0.018,0.094,0.031,0.181,0.047,0.259
		c-0.861,0.125-1.859,0.684-2.99,1.672c-0.188,0.142-0.369,0.298-0.541,0.471c-2.467,2.104-4.862,3.33-7.186,3.675
		c-0.142,0-0.268,0.015-0.377,0.046c-0.393-0.031-0.746-0.046-1.06-0.046c-0.172-0.032-0.337-0.047-0.495-0.047
		c-0.031-0.032-0.071-0.047-0.118-0.047c-0.125,0-0.244,0-0.353,0c-6.046-0.534-9.219-2.159-9.517-4.876
		c0.157-0.314,0.235-0.636,0.235-0.966C135.135,126.924,135.158,126.696,135.174,126.507z M160.545,93.857
		c0,0.644,0.023,1.28,0.07,1.908c-4.397,2.984-9.485,4.037-15.265,3.156c-1.853-0.283-3.777-0.753-5.771-1.413
		c0.377,0.11,0.8,0.071,1.271-0.118c0.362-0.142,0.604-0.251,0.73-0.331c0.047-0.016,0.086-0.047,0.118-0.094
		c0.031-0.015,0.054-0.04,0.07-0.071l0.024-0.047c0.816-0.329,1.681-0.525,2.591-0.589c0.157-0.016,0.313-0.023,0.471-0.023
		c0.157,0,0.322,0,0.495,0c1.288,0.032,2.646,0.338,4.076,0.918c0.015,0.032,0.055,0.063,0.118,0.094h0.022
		c0.112,0.064,0.277,0.157,0.497,0.282c0.045,0.048,0.148,0.024,0.305-0.07c0.535-0.251,1.027-0.173,1.482,0.236
		c0.174,0.141,0.34,0.227,0.496,0.259c0.143,0,0.299-0.063,0.471-0.188l0.307-0.165c0.33-0.267,0.675-0.369,1.037-0.307
		c0.234,0.017,0.424-0.07,0.564-0.258c0.205-0.299,0.394-0.463,0.565-0.495c0.188-0.063,0.455-0.047,0.801,0.047
		c0.173,0.063,0.347,0.032,0.519-0.094c0.173-0.142,0.424-0.361,0.754-0.659c0.313-0.252,0.604-0.44,0.871-0.566
		c0.174-0.094,0.377-0.228,0.613-0.4c0.299-0.236,0.479-0.385,0.541-0.448c0.125-0.079,0.314-0.204,0.564-0.377
		C160.161,93.921,160.355,93.857,160.545,93.857z"/>
</g>
</svg>
