<?xml version="1.0" encoding="utf-8"?>
<!-- Generator: Adobe Illustrator 16.0.0, SVG Export Plug-In . SVG Version: 6.00 Build 0)  -->
<!DOCTYPE svg PUBLIC "-//W3C//DTD SVG 1.1//EN" "http://www.w3.org/Graphics/SVG/1.1/DTD/svg11.dtd">
<svg version="1.1" id="Layer_1" xmlns="http://www.w3.org/2000/svg" xmlns:xlink="http://www.w3.org/1999/xlink" x="0px" y="0px"
	 width="300px" height="300px" viewBox="0 0 300 300" enable-background="new 0 0 300 300" xml:space="preserve">
<g>
	<path fill="#010101" d="M165.055,32.364c0,0.996,0.243,1.737,0.729,2.223c1.877-2.687,3.498-4.55,4.862-5.592l6.566-4.204
		l-0.486,4.621c0.047,0.973,0.23,1.957,0.556,2.953c0.719-0.533,1.541-1.135,2.467-1.807c1.876-1.32,3.462-2.281,4.759-2.883
		c1.274-0.602,3.139-1.228,5.594-1.875c1.272-0.347,2.396-0.625,3.369-0.833l-0.625,5.835c-0.277,1.69-0.974,3.81-2.084,6.357
		l0.694,0.208c0.532,0.116,1.123,0.116,1.771,0c1.041-0.208,1.898-0.579,2.57-1.112l-2.328,6.705
		c-0.602,1.644-1.527,3.81-2.777,6.496l2.396-0.382c1.089-0.278,1.957-0.637,2.604-1.077l-1.111,3.369
		c-0.902,2.455-1.621,4.262-2.153,5.419c-0.81,1.807-1.991,3.948-3.543,6.427l2.884,0.069c0.765,0,2.072-0.221,3.926-0.66
		l-0.973,2.64c-0.766,1.969-1.482,3.417-2.154,4.342c-1.043,1.598-2.514,3.3-4.412,5.106l0.175,0.417
		c0.208,0.255,0.612,0.452,1.216,0.591c0.88,0.208,1.621,0.174,2.225-0.104l-1.008,2.119c-0.812,1.645-1.656,2.987-2.535,4.029
		c-1.438,1.645-3.242,3.068-5.42,4.273l0.243,0.521c0.229,0.324,0.509,0.567,0.833,0.729c0.604,0.278,1.667,0.451,3.196,0.521
		c-2.896,2.177-5.142,3.625-6.74,4.342c-1.598,0.765-3.346,1.367-5.243,1.807l0.241,0.486c0.209,0.325,0.511,0.626,0.904,0.903
		c0.647,0.486,1.354,0.788,2.118,0.903c-2.407,1.853-5.28,2.895-8.614,3.126c-2.084,0.163-3.981,0.116-5.697-0.138l-1.944-0.452
		v0.243c0.047,0.347,0.277,0.892,0.694,1.633c0.787,1.274,1.586,2.188,2.396,2.745c-1.853-0.047-4.121-0.325-6.809-0.834
		c-5.371-0.927-10.166-2.316-14.381-4.168c-0.764,4.655-0.845,9.414-0.243,14.277c0.764,6.6,2.675,11.868,5.731,15.805
		c-8.545-4.979-13.988-7.468-16.326-7.468l1.632-6.913l2.049,3.439c1.691,2.362,3.277,3.671,4.759,3.925
		c-0.163-0.856-0.463-2.547-0.903-5.072c-0.88-5.326-0.556-11.683,0.973-19.07l0.104-0.243c0.672-2.362,1.656-4.91,2.953-7.642
		c4.446,1.366,8.58,1.69,12.401,0.972c5.998-1.366,9.703-2.57,11.115-3.612c-1.25,0.44-3.299,0.822-6.147,1.146
		c-2.918,0.37-5.523,0.555-7.815,0.555c-1.876,0-3.3-0.081-4.272-0.243c-0.486-0.093-1.887-0.44-4.204-1.042
		c0.765-1.528,1.667-3.114,2.71-4.759c1.366-2.315,2.708-4.376,4.029-6.183c5.42,1.32,9.53,1.644,12.332,0.973
		c5.326-1.205,8.834-2.513,10.525-3.925c-1.25,0.603-3.196,1.181-5.836,1.737c-2.918,0.602-5.385,0.868-7.398,0.799
		c-1.529,0-2.988-0.162-4.377-0.486c-1.574-0.51-2.859-0.892-3.855-1.146c1.041-1.437,2.662-3.521,4.863-6.253l2.951-3.856
		c3.846,0.44,6.809,0.185,8.893-0.764c3.66-1.737,5.965-3.184,6.914-4.342c-0.834,0.602-2.131,1.285-3.891,2.05
		c-1.969,0.833-3.66,1.354-5.072,1.563c-1.041,0.162-2.037,0.22-2.986,0.174c-0.44-0.07-1.285-0.186-2.536-0.348
		c5.095-6.415,10.793-12.737,17.091-18.966c-7.619,6.068-14.9,12.83-21.85,20.286c-0.881-2.084-1.319-3.149-1.319-3.195
		c-0.44-1.158-0.741-2.42-0.904-3.787c-0.208-1.853-0.241-4.122-0.104-6.808c0.161-2.524,0.438-4.389,0.834-5.593
		c-0.996,1.69-1.716,5.06-2.154,10.108c-0.255,2.779,0.438,6.426,2.084,10.942c-3.032,3.613-5.719,7.226-8.058,10.838
		c-1.552-2.848-2.548-5.292-2.988-7.329c-0.486-2.084-0.752-4.748-0.799-7.989c-0.069-2.826,0.046-4.979,0.348-6.461
		c-0.996,2.177-1.494,6.172-1.494,11.984c0,3.242,1.146,7.271,3.438,12.089l-1.042,1.563c-1.83,3.033-3.45,6.044-4.863,9.032
		c-0.833-1.204-1.528-2.328-2.084-3.37c-0.139-0.44-0.764-2.003-1.875-4.689c-1.737-4.099-2.524-8.615-2.362-13.547
		c-0.671,1.968-0.486,5.94,0.556,11.915c0.602,3.172,2.224,7.144,4.863,11.914l-1.563,4.272c-0.672-0.44-1.992-1.447-3.96-3.021
		c-5.65-4.701-8.383-12.622-8.197-23.76c0.046-3.497,0.394-7.11,1.042-10.838l0.903-4.55l0.973,3.057
		c0.44,1.042,1.054,1.945,1.841,2.709c0.764-3.497,1.39-5.986,1.875-7.468c0.278-0.95,0.996-2.594,2.154-4.933l1.528-3.23
		l1.667,4.863c1.806-3.011,3.451-5.396,4.933-7.156c0.88-1.089,2.084-2.409,3.612-3.96l2.084-2.015v3.161
		c0,0.95,0.07,2.166,0.209,3.647c2.479-3.242,4.759-5.604,6.843-7.086l8.856-5.766L165.055,32.364z M158.314,151.822l4.621-6.322
		l-0.277,1.563c-0.162,1.251-0.268,2.49-0.313,3.716c-0.117,1.947,0.184,3.798,0.901,5.559c3.612-4.886,6.299-8.302,8.06-10.248
		c1.088-1.227,3.323-3.242,6.704-6.044l4.726-3.821l-0.418,4.48c-0.115,1.552-0.277,2.895-0.486,4.03
		c1.251-0.811,2.697-1.76,4.342-2.848c3.358-2.084,6.104-3.646,8.233-4.69c3.45-1.644,7.758-3.427,12.922-5.35l-2.327,4.933
		c-0.604,1.482-1.32,3.428-2.154,5.836l5.454-2.64c4.099-1.852,7.435-3.022,10.005-3.509c4.121-0.787,10.039-1.667,17.75-2.64
		l-0.869,1.459c-0.67,1.158-1.203,2.2-1.598,3.126c-0.648,1.482-0.775,2.768-0.382,3.856c1.204-0.695,2.569-1.436,4.099-2.223
		c3.057-1.575,5.478-2.548,7.26-2.918c2.732-0.602,7.109-1.216,13.131-1.841l-1.633,2.57c-1.203,1.854-2.002,3.254-2.396,4.204
		c-0.603,1.459-1.021,3.091-1.25,4.897l5.036-1.042c3.845-0.718,6.97-1.112,9.379-1.181c3.82-0.047,9.032,0.671,15.632,2.153
		l-1.668,2.883c-1.272,2.246-2.396,4.11-3.368,5.591c-1.599,2.41-4.123,5.178-7.572,8.304l0.832,0.834
		c0.694,0.532,1.634,0.938,2.814,1.216c1.736,0.439,3.288,0.463,4.654,0.069l-8.198,8.719c-2.084,2.084-5.049,4.771-8.894,8.06
		l0.904,0.313c0.834,0.301,1.853,0.557,3.057,0.766c1.923,0.323,3.531,0.369,4.828,0.139l-4.1,4.48
		c-3.126,3.172-5.488,5.477-7.086,6.912c-2.501,2.178-5.789,4.586-9.865,7.227l4.377,2.119c1.158,0.485,3.322,1.064,6.496,1.736
		l-3.369,3.334c-2.524,2.548-4.645,4.342-6.356,5.385c-2.687,1.645-6.16,3.207-10.421,4.688v0.729
		c0.23,0.603,0.718,1.182,1.457,1.736c1.275,0.881,2.433,1.366,3.476,1.46c-3.173,3.056-6.403,5.383-9.69,6.979
		c-3.313,1.482-7.099,2.363-11.359,2.642l0.104,0.901c0.094,0.767,0.358,1.391,0.799,1.877c0.672,0.834,2.178,1.808,4.517,2.918
		c-6.021,1.298-10.502,1.969-13.442,2.016c-1.877,0.068-3.973-0.059-6.287-0.383l-2.953-0.417v0.8
		c0.115,0.672,0.358,1.391,0.729,2.152c0.671,1.158,1.574,2.085,2.71,2.779c-1.252,0.301-2.826,0.476-4.726,0.521
		c-3.867,0.093-7.468-0.486-10.804-1.737c-3.334-1.202-6.217-2.594-8.648-4.168l-2.605-2.015l-0.242,0.451
		c-0.116,0.533-0.094,1.539,0.068,3.021c0.209,2.362,0.788,4.284,1.737,5.768c-2.802-1.438-6.114-3.438-9.935-6.01
		c-7.666-5.143-14.08-10.619-19.244-16.432c-4.377,6.577-7.839,13.859-10.387,21.85c-3.38,10.629-4.087,20.031-2.119,28.207
		c-2.408-3.382-5.037-6.891-7.885-10.524c-5.766-7.249-9.772-11.396-12.019-12.437l7.399-9.414l0.834,6.705
		c0.926,4.84,2.431,7.978,4.516,9.412c0.324,0.209,0.602-0.347,0.834-1.668c0.37-2.686,0.799-4.967,1.285-6.842
		c2.385-8.754,7.33-18.283,14.833-28.59c0.207-0.23,0.289-0.369,0.242-0.416c2.731-3.057,6.021-6.264,9.864-9.621
		c5.976,5.372,12.111,8.74,18.411,10.107c9.495,2.201,16.036,2.94,19.626,2.224c-2.246-0.278-5.662-1.101-10.247-2.468
		c-4.816-1.48-8.963-2.986-12.438-4.514c-2.94-1.32-5.104-2.443-6.494-3.371c-0.813-0.603-2.676-2.143-5.594-4.619
		c2.433-1.854,4.898-3.66,7.398-5.42c3.033-2.129,6.543-4.377,10.525-6.738c7.248,5.767,13.361,9.148,18.342,10.144
		c8.893,1.853,15.168,2.281,18.827,1.285c-2.247,0.046-5.616-0.452-10.108-1.493c-4.816-1.089-8.789-2.34-11.915-3.752
		c-2.362-1.088-4.481-2.385-6.356-3.891c-2.131-1.854-3.844-3.334-5.141-4.446c4.7-2.616,8.648-4.688,11.846-6.218l7.119-3.855
		c5.769,3.334,10.515,5.002,14.242,5.002c6.67,0,11.186-0.603,13.549-1.807c-1.645,0.371-4.11,0.498-7.399,0.383
		c-3.566-0.094-6.519-0.464-8.856-1.111c-1.691-0.511-3.23-1.111-4.621-1.807c-0.603-0.348-1.863-1.123-3.785-2.328
		c12.621-6.345,25.867-12.1,39.738-17.264c-16.628,4.261-32.582,9.575-47.867,15.943c0.047-3.172,0.094-5.117,0.139-5.836
		c0.232-2.015,0.672-4.146,1.32-6.392c0.948-2.987,2.513-6.496,4.688-10.524c1.992-3.683,3.671-6.347,5.037-7.989
		c-2.687,1.968-6.147,6.646-10.388,14.032c-2.291,4.076-3.739,10.145-4.342,18.203c-6.854,3.381-13.535,7.051-20.043,11.012
		c-0.162-3.057-0.242-5.106-0.242-6.148c0.045-2.246,0.313-4.607,0.799-7.086c0.718-3.566,2.143-7.816,4.271-12.749
		c1.922-4.538,3.625-7.827,5.106-9.864c-2.964,2.523-6.495,8.336-10.595,17.438c-2.246,4.815-3.322,11.774-3.23,20.877l-2.604,1.806
		c-5.049,3.404-9.635,6.891-13.756,10.456c-0.486-2.362-0.754-4.586-0.801-6.67c0-0.438,0.082-3.266,0.244-8.476
		c0.277-7.271,2.258-14.774,5.939-22.51c-1.39,1.412-2.849,4.261-4.377,8.545c-1.158,3.172-2.199,6.601-3.127,10.281
		c-1.319,5.258-1.621,12.459-0.902,21.607c-1.645,1.527-3.428,3.369-5.35,5.521c-0.973-1.599-2.281-4.099-3.925-7.502
		c-5.442-11.187-4.134-25.267,3.925-42.24C151.704,162.371,154.75,157.08,158.314,151.822z M78.143,133.412
		c-2.408-5.975-4.608-9.923-6.6-11.845c0.949,1.436,1.992,3.659,3.126,6.669c1.274,3.334,2.096,6.206,2.466,8.615
		c0.301,1.76,0.417,3.438,0.348,5.037c0,0.417-0.139,1.921-0.417,4.516c-11.556-6.692-23.308-12.425-35.258-17.195
		c9.75,5.048,19.337,10.826,28.762,17.333c-2.64,1.274-4.91,2.049-6.808,2.327c-1.876,0.278-4.204,0.278-6.982,0
		c-2.594-0.278-4.493-0.637-5.696-1.077c1.713,1.205,5.141,2.13,10.282,2.779c2.802,0.348,6.646-0.44,11.532-2.362l5.072,3.682
		c3.844,2.641,6.669,4.666,8.476,6.078c-1.088,0.719-2.547,1.68-4.376,2.885c-1.645,0.949-3.416,1.726-5.315,2.326
		c-2.57,0.741-5.777,1.285-9.622,1.633c-3.52,0.324-6.148,0.349-7.885,0.069c2.455,1.111,7.33,1.447,14.624,1.007
		c3.96-0.276,9.032-2.258,15.215-5.938c2.849,2.315,5.314,4.399,7.399,6.253c1.204,1.111,2.929,2.79,5.176,5.036
		c-2.478,1.575-4.087,2.559-4.829,2.952c-1.111,0.557-2.906,1.182-5.384,1.875c-2.779,0.813-6.113,1.553-10.004,2.226
		c-3.682,0.603-6.426,0.901-8.233,0.901c1.482,0.511,3.983,0.729,7.503,0.66c2.733,0,5.349-0.139,7.851-0.416
		c4.956-0.324,10.062-2.271,15.319-5.836c2.617,2.896,4.816,5.686,6.6,8.371l0.139,0.451c4.724,8.707,7.55,16.569,8.476,23.586
		c0.371,3.289,0.614,5.5,0.729,6.635c1.807-0.855,3.312-3.103,4.516-6.737l1.32-5.072l4.689,8.06
		c-1.853,0.603-5.361,3.369-10.525,8.303c-2.594,2.523-5.002,4.955-7.225,7.295c2.362-6.067,2.802-13.373,1.32-21.919
		c-1.112-6.322-3.011-12.331-5.697-18.028c-4.608,4.006-10.143,7.596-16.604,10.77c-3.242,1.644-6.009,2.849-8.302,3.611
		c0.88-1.042,1.54-2.49,1.98-4.342c0.278-1.158,0.417-1.934,0.417-2.328l-0.174-0.313c-1.968,1.481-5.094,2.687-9.379,3.613
		c-2.687,0.602-5.5,0.658-8.44,0.174l-3.648-0.834c0.996-0.44,1.795-1.065,2.397-1.875c0.44-0.558,0.718-1.078,0.834-1.563
		l0.069-0.661c-2.524,0.163-4.933,0.082-7.225-0.242c-1.413-0.231-3.555-0.811-6.426-1.736l-3.751-1.319
		c1.899-0.603,3.172-1.17,3.821-1.703c0.394-0.348,0.672-0.799,0.833-1.354l0.069-0.729c-3.219-0.648-6.032-1.748-8.44-3.3
		c-1.482-0.903-3.046-2.247-4.69-4.029l-2.049-2.292c0.811,0.068,1.76-0.209,2.849-0.834c1.042-0.533,1.482-1.101,1.32-1.703
		c-3.126-1.598-5.65-3.16-7.573-4.688c-1.134-0.927-2.559-2.488-4.272-4.689l-2.223-3.021l5.141-0.66l3.578-1.146
		c-2.826-2.478-5.118-4.701-6.878-6.668c-1.042-1.206-2.605-3.208-4.69-6.011l-2.744-3.855l1.112,0.139
		c0.857,0.185,1.748,0.255,2.675,0.208c1.505,0,2.547-0.151,3.126-0.452c-2.617-2.895-4.608-5.28-5.975-7.155l-5.419-7.469
		l1.042,0.313c0.834,0.185,1.679,0.22,2.536,0.104c1.436-0.162,2.432-0.567,2.987-1.216c-2.293-2.756-3.937-5.142-4.933-7.156
		l-2.987-7.086l4.48-0.243c3.335-0.116,5.929-0.035,7.781,0.243c2.964,0.44,6.589,1.482,10.873,3.126
		c0-1.366-0.174-2.663-0.521-3.891c-0.162-0.741-0.59-1.911-1.285-3.508l-1.077-2.154l3.855,1.007
		c2.802,0.718,4.84,1.32,6.114,1.807c2.084,0.764,4.817,2.489,8.198,5.176c0.394-0.811,0.417-1.83,0.069-3.058l-1.389-3.751
		l13.408,3.855c3.126,1.042,6.878,3.15,11.255,6.322c-0.37-1.968-0.729-3.532-1.077-4.689l-1.216-4.029l3.3,1.806
		c2.524,1.366,4.551,2.57,6.079,3.613c2.5,1.598,5.488,3.983,8.962,7.156c-0.046-0.927-0.046-1.992,0-3.196l0.139-3.543l3.3,3.474
		c2.292,2.524,3.809,4.307,4.55,5.35c1.135,1.69,2.849,4.597,5.141,8.718c0.718-1.274,1.124-2.651,1.216-4.133l0.139-4.203
		l2.848,5.35c2.2,4.446,4.006,8.834,5.419,13.165c4.492,13.963,4.052,24.976-1.32,33.034c-1.945,2.918-3.23,4.701-3.856,5.351
		c-1.042-1.575-2.223-3.161-3.543-4.759c1.551-7.018,2.072-12.61,1.563-16.778c-0.88-7.827-2.142-12.921-3.786-15.284
		c2.038,6.299,2.779,12.296,2.223,17.994c-0.324,3.684-0.544,5.882-0.66,6.602c-0.255,1.504-0.707,3.172-1.355,5.002
		c-2.872-3.289-6.032-6.474-9.483-9.554l-1.911-1.633c0.996-6.854,0.915-12.332-0.243-16.431
		c-2.339-7.503-4.469-12.354-6.392-14.554c0.926,1.69,1.888,4.399,2.883,8.128c1.135,4.053,1.783,7.48,1.945,10.282
		c0.185,1.968,0.162,3.833-0.07,5.592c-0.115,0.928-0.394,2.49-0.833,4.689c-4.817-3.844-9.587-7.354-14.312-10.525
		C79.996,141.784,79.509,136.933,78.143,133.412z"/>
</g>
</svg>
