<?xml version="1.0" encoding="utf-8"?>
<!-- Generator: Adobe Illustrator 16.0.0, SVG Export Plug-In . SVG Version: 6.00 Build 0)  -->
<!DOCTYPE svg PUBLIC "-//W3C//DTD SVG 1.1//EN" "http://www.w3.org/Graphics/SVG/1.1/DTD/svg11.dtd">
<svg version="1.1" id="Layer_1" xmlns="http://www.w3.org/2000/svg" xmlns:xlink="http://www.w3.org/1999/xlink" x="0px" y="0px"
	 width="300px" height="300px" viewBox="0 0 300 300" enable-background="new 0 0 300 300" xml:space="preserve">
<g>
	<path fill="#010101" d="M36.41,29.971c0.299-0.149,0.673-0.224,1.123-0.224c0.549-0.05,1.198-0.125,1.946-0.225
		c1.572-0.2,2.969-0.175,4.191,0.075c0.798,0.15,1.435,0.337,1.909,0.562c0.274,0.149,0.486,0.225,0.636,0.225
		c0.149-0.05,0.461-0.237,0.936-0.562l0.336-0.299c0.898-0.749,1.634-1.31,2.208-1.684c1.048-0.574,2.009-0.849,2.882-0.823
		l0.075,0.636c-1.173,0-2.707,0.786-4.604,2.358l-0.375,0.299c-0.523,0.449-0.96,0.699-1.31,0.749
		c-0.25,0.05-0.611-0.05-1.085-0.299c-0.724-0.349-1.26-0.561-1.609-0.636c-1.272-0.324-2.583-0.399-3.929-0.225
		c-0.449,0.1-1.048,0.137-1.797,0.113c-0.299,0-0.686,0.074-1.16,0.224c-0.199,0.1-0.424,0.087-0.673-0.037l-0.673-0.524
		c-0.25-0.125-0.475-0.312-0.674-0.561c-0.125-0.125-0.287-0.362-0.486-0.711c-0.698-0.923-1.397-1.509-2.096-1.758
		c0.848,0.125,1.634,0.71,2.358,1.758c0.524,0.624,0.898,0.998,1.123,1.123L36.41,29.971z M69.231,18.22
		c-0.35,0.449-0.699,1.048-1.048,1.796c-0.699,1.597-1.085,3.23-1.161,4.902c-0.075,1.621-0.362,3.181-0.86,4.678
		c-0.624,2.096-0.985,3.667-1.085,4.716c-0.125,1.472,0.038,2.807,0.487,4.004c0.798,0.749,1.31,1.472,1.534,2.171
		c0.25,0.848,0.063,1.983-0.562,3.405c-0.399,0.898-1.147,2.283-2.245,4.154c-1.547,2.62-2.533,4.516-2.957,5.688
		c-0.723,1.996-0.661,3.63,0.188,4.903l-1.31,0.936c-1.048-1.497-1.172-3.418-0.374-5.763c0.474-1.422,1.547-3.518,3.218-6.287
		c0.998-1.697,1.684-2.907,2.059-3.63c0.549-1.247,0.723-2.17,0.523-2.77c-0.299-1.022-2.27-2.931-5.913-5.726
		c-1.497-1.098-2.458-1.859-2.882-2.283c-1.721-1.722-3.243-4.391-4.565-8.009c-0.998-2.844-1.709-5.626-2.133-8.346
		c0.299,1.597,0.724,3.306,1.272,5.127c1.522,4.89,3.655,8.382,6.399,10.479l3.967,3.031c0.898,0.624,1.634,1.185,2.208,1.684
		c0.05-1.048,0.225-2.208,0.524-3.48c0.125-0.574,0.562-2.009,1.31-4.304c0.324-1.073,0.561-2.42,0.711-4.042l0.037-0.299
		c0.175-1.547,0.399-2.732,0.674-3.555C67.671,19.979,68.333,18.918,69.231,18.22z M48.349,59.423
		c2.769,2.146,5.838,2.645,9.206,1.497c1.946-0.724,3.767-1.011,5.463-0.861c0.749,0,1.385,0.149,1.909,0.449
		c0.25,0.1,0.724,0.375,1.422,0.823c0.873,0.549,1.546,0.923,2.021,1.123c1.197,0.549,2.333,1.235,3.405,2.058
		c1.172,0.948,2.108,1.535,2.807,1.759c1.098,0.349,2.37,0.287,3.817-0.187c1.896-0.599,3.281-0.749,4.154-0.449
		c0.624,0.175,1.285,0.786,1.983,1.834c0.599,0.898,1.173,1.634,1.722,2.208c0.449,0.474,1.135,1.022,2.058,1.646
		c0.898,0.648,1.622,1.023,2.17,1.123c0.474,0.125,1.123,0.038,1.946-0.262c0.848-0.299,1.534-0.387,2.058-0.262
		c0.599,0.15,1.11,0.437,1.534,0.861c0.2,0.25,0.461,0.686,0.786,1.31c0.299,0.599,0.599,1.023,0.898,1.272
		c0.375,0.274,0.973,0.424,1.796,0.449c0.749,0.025,1.322,0.112,1.722,0.262c1.023,0.399,2.769,1.759,5.239,4.079l2.096,1.946
		c1.996,1.771,3.293,3.156,3.892,4.154c0.2,0.399,1.235,0.861,3.106,1.385c2.096,0.499,3.555,1.085,4.379,1.758l0.486,0.412
		c1.546,1.322,2.62,2.407,3.218,3.256c0-0.524-0.05-0.911-0.149-1.16c-0.15-0.574-0.549-1.16-1.198-1.759
		c-0.549-0.549-1.472-1.048-2.77-1.497c-1.472-0.574-2.507-1.185-3.106-1.834c-0.723-0.823-1.31-2.158-1.759-4.004
		c-0.349-1.422-0.749-2.482-1.197-3.181c-0.699-1.172-1.497-3.119-2.396-5.838c-0.549-1.747-1.011-3.057-1.385-3.93
		c-0.648-1.397-1.435-2.533-2.357-3.406c0.374,0.1,0.836,0.486,1.385,1.16c1.048,1.248,2.046,3.181,2.994,5.801
		c1.023,2.769,1.871,4.69,2.545,5.763c0.499,0.823,0.898,1.909,1.198,3.256c0.474,1.771,1.035,3.019,1.684,3.742
		c0.3,0.325,0.786,0.649,1.459,0.973c0.749,0.3,1.31,0.512,1.684,0.636l1.422,0.599c0.549,0.224,1.022,0.523,1.422,0.898
		c0.798,0.749,1.31,1.509,1.534,2.283c0.1,0.449,0.137,1.11,0.112,1.983c-0.025,0.499,0.113,1.248,0.412,2.246
		c0.075,0.349,0.274,0.723,0.599,1.123c0.399,0.449,0.699,0.798,0.898,1.048c0.474,0.375,0.973,0.636,1.497,0.786l-0.374,0.898
		c0.225,0.375,0.362,0.699,0.412,0.973c0.15,0.549,0.237,1.297,0.262,2.245c0,0.724,0.038,1.235,0.112,1.535
		c0.15,0.524,0.486,1.023,1.011,1.497c0.449,0.424,1.285,0.86,2.507,1.31c1.272,0.375,2.22,0.836,2.844,1.385
		c0.574,0.474,1.235,1.26,1.983,2.358c0.824,1.172,1.56,2.008,2.208,2.507l1.085,0.749c1.671,1.123,2.782,2.183,3.331,3.181
		c0.923,1.572,1.285,3.094,1.085,4.565c-0.125,0.898-0.599,2.171-1.422,3.817c-0.973,1.921-1.509,3.543-1.609,4.865
		c-0.075,0.848,0.075,1.821,0.45,2.919c0.199,0.648,0.611,1.659,1.234,3.032c0.773,1.597,1.26,2.732,1.459,3.405l0.599,1.684
		c0.649,1.497,0.973,2.645,0.973,3.443c0,0.599-0.287,1.584-0.86,2.957c-0.649,1.672-0.824,2.808-0.524,3.405
		c0.199,0.398,0.96,0.785,2.283,1.16c0.424,0.125,0.786,0.25,1.085,0.373c-0.049-0.174-0.074-0.312-0.074-0.41
		c-0.15-0.85,0.149-1.422,0.897-1.721c0.499-0.25,0.824-0.812,0.974-1.685c0.124-0.5,0.162-1.248,0.112-2.246v-1.048
		c0.025-0.249,0.113-0.511,0.262-0.786c0.149-0.474,0.225-0.848,0.225-1.123l-0.15-0.786c-0.125-0.5-0.187-0.849-0.187-1.048
		c0.125-0.499,0.288-0.798,0.487-0.898c0.149-0.125,0.399-0.112,0.75,0.037c0.473,0.075,0.834,0.087,1.084,0.038
		c0.724-0.1,1.174-0.399,1.349-0.898c0.198-0.35,0.235-1.023,0.11-2.021c-0.174-1.572-0.049-2.669,0.375-3.293
		c0.226-0.299,0.662-0.624,1.311-0.973c0.523-0.299,0.859-0.524,1.011-0.674c-0.149-0.199-0.61-0.599-1.385-1.197
		c-1.099-0.948-1.646-1.547-1.646-1.796c-0.076-0.475-0.052-1.198,0.073-2.171c0.175-0.923,0.199-1.522,0.075-1.796
		c-0.124-0.25-0.148-0.461-0.075-0.636c0.101-0.274,0.55-0.474,1.349-0.599c0.623-0.15,0.936-0.25,0.936-0.299l0.3-0.562
		c0.3-0.898,0.425-1.397,0.374-1.497h-0.074c-0.101-0.25-0.388-0.499-0.861-0.749c-0.648-0.175-1.122-0.512-1.422-1.011
		c-0.176-0.299-0.25-1.26-0.225-2.881c0.124-0.349,0.249-0.599,0.374-0.749c0.124-0.1,0.337-0.15,0.636-0.15l0.748-0.112
		c0.45-0.125,0.736-0.324,0.861-0.599c0.125-0.25,0.324-0.499,0.6-0.749c0.475-0.374,1.035-0.461,1.685-0.262
		c0.149,0.05,0.573,0.325,1.271,0.824c0.574,0.399,0.912,0.537,1.012,0.412c0.101-0.25-0.25-0.811-1.049-1.684
		c-0.848-0.973-1.694-1.634-2.545-1.983c-1.496-0.699-2.356-1.422-2.582-2.171c-0.175-0.524-0.123-0.998,0.15-1.422
		c0.225-0.499,0.211-0.961-0.038-1.385c-0.198-0.449-0.549-0.773-1.048-0.973c-0.449-0.2-0.811-0.462-1.086-0.786
		c-0.225-0.324-0.262-0.649-0.111-0.973c0.249-0.474,0.398-0.848,0.449-1.123c-0.051-0.349-0.176-0.699-0.375-1.048
		c-0.673-1.073-0.923-2.183-0.748-3.331c0.05-0.824,0.075-1.26,0.075-1.31c0-0.574-0.187-1.135-0.562-1.684
		c-0.351-0.549-0.861-1.147-1.536-1.796c-0.673-0.648-1.097-1.123-1.272-1.422c-0.325-0.524-0.337-0.936-0.038-1.235
		c0.1-0.075,0.374-0.224,0.824-0.449c0.449-0.274,0.711-0.624,0.785-1.048c0.102-0.324,0.088-0.773-0.036-1.347
		c-0.075-0.325-0.175-0.724-0.3-1.198c0.25,0.549,0.424,1.085,0.524,1.609c0.249,1.148,0.074,1.859-0.524,2.133
		c-0.449,0.175-0.699,0.287-0.749,0.337c-0.199,0.349-0.249,0.674-0.15,0.973c0.125,0.299,0.475,0.724,1.048,1.272
		c0.699,0.648,1.209,1.223,1.534,1.721c0.45,0.674,0.726,1.348,0.824,2.021c0.05,0.375,0.05,0.886,0,1.534
		c-0.101,0.799-0.101,1.435,0,1.909c0.149,0.324,0.323,0.723,0.522,1.197c0.674,1.023,0.773,1.921,0.301,2.694
		c-0.075,0.175,0,0.35,0.225,0.524c0.35,0.15,0.586,0.275,0.711,0.375c0.573,0.349,1.048,0.823,1.423,1.422
		c0.323,0.699,0.3,1.347-0.075,1.946c-0.125,0.299-0.162,0.536-0.111,0.711c0.123,0.449,0.848,0.973,2.17,1.572
		c0.824,0.349,1.797,1.173,2.92,2.47c1.146,1.372,1.584,2.357,1.311,2.956c-0.125,0.25-0.625,0.087-1.498-0.486
		c-1.049-0.699-1.598-1.048-1.646-1.048c-0.375-0.025-0.726,0.087-1.05,0.336c-0.174,0.15-0.299,0.325-0.373,0.524
		c-0.249,0.449-0.661,0.748-1.234,0.898c-0.273,0.1-0.624,0.15-1.048,0.15c-0.149,0-0.274,0.174-0.375,0.524
		c-0.049,1.023,0,1.734,0.149,2.133c0.101,0.175,0.361,0.324,0.785,0.449c0.851,0.3,1.387,0.761,1.609,1.385
		c0.15,0.449,0.025,1.173-0.373,2.17l-0.188,0.524c-0.102,0.299-0.586,0.549-1.461,0.749l-0.822,0.187
		c0.175,0.549,0.175,1.297,0,2.246c-0.174,0.873-0.225,1.484-0.149,1.834l1.384,1.197c0.726,0.599,1.198,1.023,1.424,1.272
		c0.35,0.35,0.474,0.674,0.373,0.973c-0.148,0.274-0.623,0.624-1.422,1.048c-0.623,0.399-0.986,0.661-1.086,0.786
		c-0.324,0.424-0.397,1.335-0.225,2.732c0.076,1.198,0.025,1.996-0.148,2.396c-0.25,0.798-0.897,1.26-1.947,1.385
		c-0.447,0.049-0.897,0.012-1.346-0.113l-0.225-0.075c-0.076,0.05-0.113,0.188-0.113,0.412l-0.037-0.037l0.111,0.786
		c0.15,0.499,0.227,0.811,0.227,0.936c0,0.325-0.102,0.798-0.301,1.422l-0.225,0.674v0.823c0.05,1.198,0,2.046-0.149,2.545
		c-0.175,1.048-0.599,1.721-1.273,2.021c-0.399,0.199-0.474,0.661-0.224,1.385c0.499,0.873,0.874,1.584,1.123,2.135l1.123,2.432
		l-1.571-1.684c-0.1,0.299-0.3,0.599-0.6,0.896c-0.299,0.273-0.835,0.688-1.608,1.234c-1.248,0.85-1.921,1.535-2.021,2.06
		c-0.399,1.82-0.2,5.713,0.599,11.677c0.125,0.647,0.524,1.934,1.198,3.854c1.297,3.169,1.946,5.813,1.946,7.935
		c0,3.318-1.248,6.712-3.742,10.179c2.095,0.773,3.929,0.799,5.5,0.076c1.896-0.85,3.432-0.998,4.604-0.449
		c0.648,0.299,1.359,1.01,2.133,2.133c0.4,0.599,0.662,0.998,0.787,1.197c0.349,0.35,0.711,0.537,1.084,0.563
		c0.774,0.074,2.197,0.012,4.268-0.188c2.57-0.351,4.555-0.351,5.95,0c0.725,0.148,1.733,0.574,3.03,1.271
		c1.349,0.674,2.271,1.099,2.771,1.272c1.073,0.375,1.935,0.498,2.583,0.375c1.122-0.274,3.094-1.498,5.912-3.668
		c0.574-0.475,1.1-0.897,1.572-1.272c-0.024-0.101,0-0.226,0.074-0.374c0.174-0.549,0.262-0.948,0.262-1.198
		c0.025-0.372-0.111-0.735-0.411-1.084c-0.748-0.998-1.123-2.047-1.123-3.145c0.024-0.873,0.039-1.335,0.039-1.386
		c-0.052-0.549-0.265-1.084-0.638-1.608c-0.424-0.498-0.985-1.047-1.685-1.646c-0.749-0.648-1.233-1.086-1.46-1.311
		c-0.374-0.499-0.411-0.896-0.111-1.197c0.074-0.101,0.351-0.273,0.822-0.523c0.398-0.351,0.625-0.723,0.674-1.123
		c0.1-0.35,0.051-0.812-0.148-1.385c-0.102-0.349-0.213-0.724-0.338-1.123c0.226,0.475,0.438,0.975,0.638,1.498
		c0.299,1.147,0.175,1.871-0.374,2.17c-0.45,0.25-0.688,0.412-0.712,0.486c-0.175,0.324-0.199,0.611-0.074,0.86
		c0.149,0.3,0.536,0.711,1.16,1.235c0.698,0.623,1.233,1.146,1.608,1.57c0.523,0.649,0.849,1.299,0.974,1.947
		c0.125,0.373,0.174,0.896,0.149,1.57c-0.024,0.748,0.049,1.385,0.225,1.908c0.125,0.301,0.337,0.674,0.637,1.123
		c0.573,0.75,0.799,1.446,0.674,2.096c0.475-0.348,0.873-0.61,1.197-0.785c1.896-1.072,3.193-1.659,3.893-1.76
		c0.674-0.1,1.446,0.101,2.319,0.6c0.974,0.574,1.798,0.973,2.47,1.197c0.898,0.35,2.209,0.523,3.931,0.523
		c1.147,0.051,1.972,0.124,2.47,0.225c0.924,0.176,1.797,0.537,2.619,1.086c0.8,0.549,2.357,1.484,4.679,2.807l2.845,1.572
		c0.698,0.424,1.847,1.436,3.442,3.031c1.872,1.82,3.044,2.645,3.519,2.47c0.498-0.2,1.473-0.749,2.918-1.646
		c1.996-1.248,3.332-1.91,4.006-1.983c0.923-0.074,2.059,0.886,3.404,2.881c1.349,1.847,2.295,3.681,2.844,5.502
		c0.201,0.647,0.339,1.335,0.412,2.06c0.101,0.873,0.275,1.547,0.523,2.021c0.35,0.549,1.023,1.173,2.021,1.871
		c0.924,0.724,1.559,1.31,1.908,1.759l1.834,2.021c1.446,1.396,2.52,2.457,3.219,3.181c1.271,1.272,1.996,2.383,2.171,3.331
		c0.323,1.572-0.274,3.816-1.798,6.736c-0.248,0.498-0.586,1.135-1.01,1.907c-0.273,0.624-0.41,1.123-0.41,1.497
		c0.023,0.499,0.521,1.322,1.496,2.471c1.071,1.172,1.696,2.008,1.871,2.508c0.125,0.35,0.188,0.785,0.188,1.31
		c-0.075,0.573-0.113,1.036-0.113,1.386c-0.049,1.172-0.012,1.908,0.113,2.207c0.299,0.823,0.674,1.297,1.123,1.422
		c0.199,0.075,0.811,0.112,1.833,0.112c2.495-0.024,4.278,1.21,5.353,3.705c1.57,3.567,2.705,5.677,3.404,6.324
		c0.973,0.923,2.633,1.958,4.979,3.106c2.619,1.172,4.402,2.008,5.352,2.508l-1.348-0.226l-2.656-0.937
		c-2.471-0.897-4.268-1.571-5.391-2.021c-1.994-0.873-3.33-1.672-4.004-2.396c-0.549-0.623-0.998-1.771-1.348-3.442
		c-0.225-0.924-0.386-1.56-0.486-1.908c-0.299-0.674-0.711-1.196-1.233-1.571c-0.724-0.523-1.886-0.799-3.48-0.823
		c-1.098,0.024-1.907-0.075-2.433-0.3c-0.823-0.324-1.447-1.01-1.871-2.059c-0.148-0.474-0.2-1.372-0.148-2.693
		c0.1-1.248,0.062-2.135-0.113-2.657c-0.125-0.399-0.611-1.048-1.459-1.946c-0.601-0.725-0.986-1.223-1.16-1.497
		c-0.375-0.524-0.574-1.034-0.6-1.534c-0.05-0.897,0.463-2.433,1.534-4.604c1.298-2.471,1.834-4.229,1.609-5.276
		c-0.3-1.397-1.847-3.593-4.642-6.587c-0.897-0.973-1.496-1.658-1.797-2.059c-0.248-0.273-0.836-0.799-1.759-1.571
		c-1.099-0.798-1.847-1.509-2.245-2.133c-0.35-0.599-0.599-1.423-0.748-2.47c0-0.551-0.1-1.148-0.3-1.797
		c-0.573-1.822-1.472-3.594-2.694-5.314c-1.048-1.496-1.834-2.309-2.356-2.434c-0.275,0.025-1.298,0.563-3.069,1.61
		c-1.621,1.021-2.744,1.646-3.367,1.871c-0.748,0.324-1.535,0.199-2.357-0.375c-0.574-0.351-1.459-1.123-2.657-2.319
		c-1.446-1.396-2.521-2.332-3.219-2.808l-2.845-1.608c-1.972-1.099-3.566-2.046-4.789-2.845c-0.674-0.448-1.41-0.749-2.209-0.897
		c-0.475-0.101-1.197-0.15-2.17-0.15c-1.896,0-3.369-0.211-4.416-0.637c-0.948-0.323-1.81-0.747-2.582-1.271
		c-0.648-0.398-1.174-0.561-1.572-0.486c-0.398,0.101-1.396,0.601-2.994,1.498c-0.249,0.148-0.623,0.398-1.122,0.748
		c0.125,0.049,0.212,0.086,0.263,0.111c0.623,0.273,1.135,0.725,1.533,1.348c0.449,0.648,0.499,1.297,0.15,1.946
		c-0.1,0.324-0.125,0.573-0.075,0.748c0.198,0.449,0.974,0.897,2.319,1.347c0.824,0.25,1.847,1.012,3.07,2.283
		c1.297,1.248,1.832,2.172,1.608,2.77c-0.076,0.25-0.601,0.15-1.572-0.299c-1.098-0.623-1.659-0.924-1.685-0.897
		c-0.424-0.05-0.773,0.101-1.049,0.449c-0.174,0.149-0.299,0.323-0.373,0.522c-0.149,0.449-0.524,0.786-1.123,1.012
		c-0.25,0.023-0.573,0.074-0.975,0.148c-0.148,0.051-0.248,0.237-0.299,0.563c0.025,1.048,0.139,1.759,0.338,2.134
		c0.124,0.149,0.374,0.272,0.748,0.373c0.873,0.274,1.446,0.712,1.721,1.311c0.2,0.398,0.112,1.11-0.262,2.134l-0.148,0.522
		c-0.051,0.351-0.5,0.649-1.349,0.897l-0.823,0.301c0.25,0.474,0.324,1.197,0.226,2.171c-0.074,0.873-0.074,1.472,0,1.797
		l1.422,1.084c0.824,0.574,1.36,0.974,1.608,1.198c0.375,0.349,0.5,0.66,0.375,0.936c-0.1,0.324-0.537,0.735-1.311,1.235
		c-0.574,0.424-0.924,0.711-1.047,0.858c-0.25,0.449-0.25,1.36,0,2.732c0.248,1.123,0.299,1.896,0.148,2.32
		c-0.199,0.824-0.822,1.335-1.871,1.535c-0.424,0.1-0.897,0.11-1.422,0.037l-0.188-0.037c-0.049,0.049-0.074,0.187-0.074,0.41
		l-0.075-0.037l0.226,0.748c0.198,0.475,0.3,0.799,0.3,0.975c0.074,0.299,0.012,0.773-0.188,1.422l-0.112,0.636l0.075,0.823
		c0.149,1.197,0.188,2.059,0.111,2.582c-0.123,1.098-0.511,1.822-1.16,2.171c-0.049,0.05-0.123,0.112-0.225,0.188
		c1.098,0.947,1.908,1.746,2.434,2.395c1.321,1.572,1.797,3.319,1.422,5.239c-0.449,2.745,0.213,5.575,1.982,8.495
		c1.497,2.421,3.182,4.078,5.053,4.978c0.799,0.399,1.983,0.55,3.556,0.449c0.849-0.101,2.258-0.336,4.229-0.711
		c2.618-0.499,4.377-0.724,5.275-0.675c3.367,0.226,5.838,0.725,7.41,1.498c2.769,1.271,4.701,3.643,5.801,7.109
		c0.249,0.898,0.484,2.221,0.71,3.967c0.625,2.271,1.959,4.181,4.005,5.728c1.598,1.172,3.432,1.834,5.501,1.981
		c1.747-0.522,3.83-1.196,6.25-2.02c6.237-2.098,7.983-2.434,5.24-1.012c-4.44,2.296-8.271,3.307-11.49,3.031
		c-4.041,1.223-6.286,1.733-6.735,1.535c-1.871-0.873-3.205-2.209-4.004-4.005c-0.449-1.098-0.799-2.743-1.049-4.94
		c-0.225-1.771-0.41-2.868-0.562-3.293c-0.849-2.569-2.245-4.354-4.191-5.352c-1.422-0.675-3.717-1.109-6.886-1.31
		c-0.773-0.101-2.357,0.1-4.753,0.598c-2.245,0.425-3.854,0.675-4.828,0.749c-1.771,0.1-3.205-0.124-4.304-0.674
		c-2.295-1.146-4.342-3.219-6.137-6.212c-2.172-3.593-2.934-7.148-2.283-10.666c0.123-0.823,0-1.685-0.375-2.582l-1.385-1.312
		c-0.475-0.772-0.785-1.385-0.936-1.834c-0.398-0.424-0.861-0.885-1.385-1.385c-1.622-1.596-2.771-2.844-3.443-3.742
		c-1.197-1.546-1.934-3.181-2.207-4.902c-0.125-0.821-0.051-2.032,0.225-3.629c0.273-2.146,0.273-3.793,0-4.94
		c-0.25-1.197-1.196-3.431-2.845-6.698c-0.323-0.599-0.687-1.56-1.085-2.882c-1.049-2.271-1.623-3.505-1.722-3.705
		c-0.675-1.047-1.386-1.284-2.134-0.711c-1.498,1.173-3.405,2.047-5.726,2.62c-1.397,0.35-2.795,0.361-4.192,0.037
		c-0.797-0.225-1.945-0.674-3.441-1.348c-1.598-0.699-2.77-1.123-3.52-1.272c-1.347-0.224-2.719-0.024-4.117,0.601
		c0.599-0.375,1.335-0.662,2.208-0.861c1.847-0.448,3.604-0.324,5.275,0.375c3.119,1.246,5.576,1.646,7.373,1.197
		c1.098-0.274,2.146-0.748,3.143-1.422c0.949-0.725,1.599-1.187,1.947-1.386c0.748-0.549,1.172-0.849,1.271-0.897
		c0.499-0.226,0.975-0.263,1.422-0.112c0.523,0.225,0.999,0.823,1.423,1.797c0.673,1.746,1.372,3.394,2.097,4.938
		c0.474,1.123,0.873,1.973,1.197,2.545c0.747,1.522,1.283,2.633,1.608,3.332c0.573,1.172,0.985,2.283,1.235,3.33
		c0.449,1.82,0.511,3.793,0.188,5.912c-0.227,1.622-0.301,2.584-0.227,2.883c0.426,2.42,2.033,4.99,4.828,7.709
		c0.301,0.273,0.6,0.523,0.897,0.748c0.101-0.101,0.226-0.188,0.375-0.263c0.499-0.272,0.785-0.848,0.86-1.721
		c0.074-0.499,0.037-1.261-0.112-2.283l-0.074-1.01c-0.024-0.3,0.024-0.563,0.147-0.787c0.125-0.549,0.177-0.947,0.15-1.197
		l-0.225-0.747c-0.176-0.5-0.273-0.861-0.299-1.087c0.1-0.474,0.236-0.784,0.412-0.936c0.174-0.074,0.447-0.087,0.822-0.037
		c0.424,0.05,0.772,0.024,1.049-0.074c0.723-0.101,1.146-0.399,1.271-0.897c0.149-0.399,0.138-1.099-0.037-2.097
		c-0.323-1.522-0.299-2.606,0.075-3.256c0.175-0.323,0.6-0.674,1.271-1.048c0.475-0.374,0.799-0.637,0.974-0.786
		c-0.226-0.198-0.736-0.562-1.535-1.086c-1.172-0.873-1.771-1.435-1.795-1.685c-0.149-0.448-0.188-1.159-0.113-2.133
		c0.075-0.924,0.063-1.521-0.036-1.797c-0.176-0.225-0.226-0.412-0.15-0.561c0.101-0.325,0.523-0.574,1.272-0.749
		c0.599-0.199,0.91-0.324,0.937-0.374v0.074l0.187-0.637c0.226-0.923,0.325-1.447,0.3-1.57l-0.074,0.037
		c-0.051-0.274-0.362-0.5-0.937-0.674c-0.673-0.149-1.185-0.449-1.534-0.898c-0.199-0.299-0.35-1.26-0.449-2.881
		c0.125-0.4,0.263-0.662,0.412-0.787c0.101-0.148,0.287-0.236,0.562-0.262l0.749-0.149c0.447-0.175,0.711-0.374,0.785-0.599
		c0.101-0.274,0.273-0.549,0.523-0.823c0.498-0.399,1.061-0.55,1.684-0.449c0.125,0.05,0.574,0.312,1.349,0.786
		c0.574,0.35,0.911,0.449,1.011,0.299c0.075-0.273-0.324-0.822-1.197-1.646c-0.924-0.922-1.81-1.496-2.656-1.721
		c-1.547-0.574-2.471-1.223-2.77-1.945c-0.25-0.524-0.25-1.012,0-1.461c0.198-0.522,0.149-0.984-0.15-1.385
		c-0.225-0.498-0.611-0.811-1.16-0.936c-0.148-0.051-0.299-0.112-0.448-0.188c-0.524,0.375-1.098,0.812-1.722,1.311
		c-1.547,1.223-2.707,2.083-3.48,2.582c-1.271,0.822-2.395,1.335-3.367,1.533c-0.974,0.201-2.047,0.125-3.219-0.224
		c-0.749-0.274-1.771-0.749-3.068-1.423c-1.571-0.697-2.508-1.098-2.809-1.197c-1.246-0.324-3.068-0.324-5.463,0
		c-2.096,0.25-3.63,0.324-4.604,0.225c-0.6-0.074-1.135-0.336-1.609-0.785c-0.273-0.273-0.609-0.736-1.01-1.385
		c-0.674-0.974-1.26-1.584-1.76-1.834c-0.748-0.375-1.82-0.25-3.219,0.375c-1.971,0.848-4.179,0.761-6.625-0.262
		c-1.421-0.601-3.355-1.771-5.8-3.52l-1.872-1.311c-1.197-0.748-2.856-1.123-4.977-1.123c-1.348-0.024-3.394,0.15-6.138,0.523
		c-2.121,0.25-3.58,0.387-4.379,0.412c-1.546,0.074-2.781-0.012-3.705-0.262c-1.422-0.399-3.855-1.734-7.298-4.004
		c-1.272-0.898-2.058-1.859-2.358-2.883c-0.174-0.623-0.149-1.621,0.075-2.994c0.2-1.521,0.287-2.531,0.262-3.03
		c-0.025-0.749-0.449-1.722-1.273-2.919c-0.723-1.072-1.172-1.934-1.347-2.582c-0.25-0.975-0.312-2.033-0.187-3.182
		c0.075-0.724,0.287-1.76,0.636-3.105c0.274-1.023,0.449-1.822,0.524-2.396c0.225-1.173,0.075-3.367-0.449-6.587
		c-0.449-2.645-0.524-4.278-0.225-4.901l0.711,4.938c0.274,1.572,0.461,2.707,0.562,3.406c0.224,1.147,0.262,2.121,0.112,2.919
		l-0.636,2.993c-0.499,1.946-0.536,3.817-0.112,5.614c0.1,0.424,0.562,1.246,1.385,2.47c0.399,0.573,0.686,1.022,0.861,1.348
		c0.2,0.522,0.312,1.109,0.337,1.759c0.025,0.75-0.087,1.885-0.337,3.405c-0.175,1.049-0.075,1.922,0.299,2.619
		c0.325,0.726,1.073,1.474,2.246,2.246c3.069,2.046,5.339,3.243,6.811,3.593c1.747,0.424,4.316,0.449,7.709,0.075
		c3.144-0.351,5.239-0.524,6.288-0.524c2.246-0.023,4.029,0.362,5.351,1.16l2.246,1.609c1.522,1.098,2.944,1.945,4.266,2.545
		c2.346-3.193,3.518-6.337,3.518-9.432c0.025-1.896-0.574-4.403-1.796-7.521c-0.698-1.622-1.123-2.943-1.272-3.967
		c-0.874-5.938-1.098-10.006-0.674-12.2c0.249-1.048,1.197-2.133,2.844-3.256c1.023-0.599,1.56-1.073,1.609-1.423
		c0-0.35-0.212-0.647-0.637-0.897c-0.299-0.149-0.835-0.336-1.609-0.562c-0.874-0.225-1.472-0.424-1.796-0.6
		c-0.599-0.299-1.01-0.686-1.235-1.16c-0.299-0.599-0.362-1.322-0.187-2.169c0.1-0.549,0.349-1.297,0.749-2.246
		c0.474-1.172,0.71-1.983,0.71-2.433c0.025-0.648-0.262-1.634-0.86-2.956c-0.349-0.823-0.574-1.422-0.674-1.797
		c-0.15-0.599-0.599-1.684-1.347-3.255c-0.674-1.497-1.098-2.583-1.272-3.256c-0.449-1.223-0.624-2.308-0.524-3.256
		c0.075-1.073,0.399-2.345,0.974-3.817l-1.497,1.347c-1.023,0.449-1.772,0.699-2.246,0.749c-0.874,0.149-1.459-0.15-1.759-0.898
		c-0.225-0.524-0.761-0.873-1.609-1.048c-0.474-0.1-1.247-0.15-2.32-0.15h-0.973c-0.25,0-0.512-0.1-0.786-0.299
		c-0.5-0.15-0.874-0.225-1.123-0.225l-0.786,0.112c-0.499,0.125-0.874,0.175-1.123,0.149c-0.474-0.1-0.749-0.262-0.823-0.486
		c-0.1-0.175-0.087-0.437,0.038-0.786c0.1-0.449,0.112-0.799,0.037-1.048c-0.049-0.749-0.324-1.21-0.823-1.385
		c-0.349-0.175-1.035-0.225-2.058-0.15c-1.547,0.175-2.62,0.013-3.219-0.486c-0.324-0.2-0.636-0.636-0.936-1.31
		c-0.324-0.524-0.549-0.873-0.673-1.048c-0.2,0.175-0.611,0.636-1.235,1.385c-0.998,1.048-1.622,1.572-1.871,1.572
		c-0.475,0.1-1.186,0.075-2.133-0.075c-0.923-0.2-1.522-0.237-1.796-0.112c-0.25,0.125-0.437,0.137-0.562,0.038
		c-0.324-0.15-0.536-0.611-0.636-1.385c-0.125-0.599-0.225-0.911-0.299-0.936h0.075l-0.599-0.262
		c-0.873-0.349-1.385-0.499-1.534-0.449l0.037,0.038c-0.274,0.075-0.511,0.362-0.711,0.861c-0.25,0.673-0.624,1.147-1.123,1.422
		c-0.3,0.2-1.26,0.237-2.882,0.112c-0.349-0.125-0.586-0.262-0.711-0.412c-0.1-0.125-0.162-0.337-0.187-0.636l-0.075-0.711
		c-0.125-0.449-0.312-0.749-0.561-0.898c-0.274-0.1-0.524-0.3-0.749-0.599c-0.324-0.524-0.387-1.098-0.187-1.722
		c0.05-0.15,0.324-0.562,0.823-1.235c0.424-0.574,0.562-0.898,0.412-0.973c-0.25-0.1-0.823,0.225-1.722,0.973
		c-0.998,0.849-1.684,1.684-2.058,2.508c-0.699,1.447-1.422,2.295-2.17,2.544c-0.574,0.175-1.073,0.125-1.497-0.15
		c-0.474-0.249-0.923-0.262-1.347-0.037c-0.474,0.2-0.823,0.562-1.048,1.085c-0.149,0.424-0.412,0.761-0.786,1.01
		c-0.299,0.225-0.611,0.25-0.936,0.075c-0.474-0.2-0.848-0.324-1.123-0.374c-0.375-0.05-0.736,0.038-1.085,0.262
		c-1.073,0.673-2.183,0.911-3.331,0.711c-0.823-0.1-1.272-0.15-1.347-0.15c-0.549,0-1.11,0.175-1.685,0.524
		c-0.549,0.349-1.147,0.835-1.796,1.459c-0.724,0.699-1.21,1.123-1.46,1.272c-0.549,0.349-0.948,0.349-1.197,0
		c-0.1-0.1-0.25-0.374-0.449-0.823c-0.299-0.424-0.636-0.699-1.01-0.823c-0.349-0.1-0.823-0.087-1.422,0.038
		c-0.325,0.05-0.711,0.125-1.161,0.224c0.524-0.224,1.061-0.387,1.61-0.486c1.172-0.2,1.883,0,2.133,0.599
		c0.15,0.449,0.262,0.699,0.337,0.749c0.324,0.225,0.636,0.274,0.936,0.15c0.274-0.1,0.699-0.437,1.272-1.011
		c0.698-0.673,1.285-1.147,1.759-1.422c0.699-0.449,1.372-0.711,2.021-0.786c0.399-0.075,0.936-0.062,1.609,0.038
		c0.749,0.1,1.373,0.1,1.872,0c0.324-0.1,0.736-0.262,1.234-0.486c0-0.025,0.025-0.05,0.075-0.075
		c-0.698-0.748-1.26-1.547-1.684-2.395c-0.25-0.474-0.524-1.16-0.823-2.058l-0.375-1.198c-0.274-0.524-0.125-1.322,0.449-2.395
		c0.399-0.923,0.574-1.509,0.524-1.759c-0.15-0.549-0.449-1.011-0.898-1.385c-0.299-0.225-0.798-0.487-1.497-0.786
		c-1.372-0.673-2.308-1.409-2.807-2.208l-0.149-0.149c0.049-0.025,0.062-0.05,0.037-0.075c-0.1-0.25-0.212-0.636-0.337-1.161
		c-0.149-0.749-0.375-1.272-0.674-1.571c-0.374-0.325-1.247-0.699-2.62-1.123l-1.16-0.374c-4.891-1.971-7.797-4.354-8.72-7.148
		c0.399,0.724,1.035,1.547,1.908,2.47c1.771,1.821,3.83,3.156,6.175,4.004l2.283,0.786c1.397,0.399,2.295,0.786,2.694,1.16
		c0.274,0.25,0.461,0.549,0.562,0.898c0.1,0.424,0.175,0.749,0.225,0.973c0.025,0.125,0.05,0.225,0.075,0.299
		c0.174-0.474,0.225-0.973,0.15-1.497c-0.05-0.499-0.25-1.172-0.599-2.021c-0.35-0.874-0.449-1.46-0.3-1.759
		c0.1-0.499,0.424-0.911,0.973-1.235c0.25-0.175,0.437-0.337,0.562-0.486c0.374-0.699,0.549-1.884,0.523-3.555l0.113-1.871
		c0.199-1.697,0.274-3.032,0.224-4.005c-0.025-1.347-0.262-2.632-0.711-3.854c-0.175-0.399-0.487-0.923-0.936-1.572
		c-0.549-0.798-0.898-1.385-1.048-1.759c-0.299-0.798-0.324-1.796-0.075-2.994l0.188-0.936c-0.1,2.021-0.038,3.331,0.187,3.93
		c0.05,0.199,0.25,0.512,0.599,0.936c0.399,0.449,0.648,0.773,0.748,0.973c0.125,0.15,0.412,0.811,0.861,1.984
		c0.424,1.197,0.649,2.42,0.674,3.667c0,0.649-0.087,1.909-0.262,3.78c-0.025,0.274-0.05,0.998-0.075,2.17
		c0.025,0.923,0,1.547-0.075,1.871c-0.05,0.649-0.2,1.223-0.449,1.722c-0.175,0.2-0.461,0.412-0.861,0.636
		c-0.175,0.1-0.274,0.237-0.299,0.412c-0.025,0.225-0.063,0.424-0.112,0.599c-0.05,0.1,0.05,0.499,0.299,1.198
		c0.399,0.923,0.648,1.684,0.749,2.283c0.05,0.923-0.174,1.771-0.674,2.545c0.3,0.349,0.674,0.673,1.123,0.973
		c0.075,0,0.574,0.225,1.497,0.673c0.774,0.374,1.31,0.687,1.609,0.936c0.474,0.424,0.811,0.973,1.01,1.647
		c0.175,0.599,0.063,1.26-0.336,1.983c-0.424,0.998-0.586,1.622-0.486,1.871c0.125,0.199,0.287,0.624,0.486,1.272
		c0.474,1.721,1.285,3.156,2.433,4.304c0.648-0.2,1.21-0.125,1.684,0.225c0.174,0.075,0.349,0,0.523-0.225
		c0.175-0.325,0.312-0.549,0.412-0.673c0.374-0.599,0.861-1.061,1.459-1.385c0.723-0.325,1.359-0.299,1.909,0.075
		c0.349,0.125,0.611,0.162,0.786,0.112c0.449-0.1,0.986-0.799,1.609-2.096c0.374-0.823,1.223-1.771,2.545-2.844
		c1.396-1.148,2.382-1.572,2.956-1.273c0.274,0.125,0.112,0.612-0.486,1.46c-0.699,1.048-1.06,1.597-1.085,1.646
		c-0.05,0.375,0.063,0.736,0.337,1.085c0.15,0.15,0.325,0.274,0.524,0.374c0.424,0.25,0.711,0.674,0.861,1.272
		c0.05,0.25,0.1,0.574,0.149,0.973c0,0.15,0.138,0.287,0.412,0.412c1.073,0.075,1.809,0.038,2.208-0.112
		c0.15-0.1,0.313-0.349,0.487-0.749c0.299-0.848,0.773-1.372,1.422-1.571c0.424-0.125,1.135,0.024,2.133,0.449l0.524,0.225
		c0.325,0.1,0.549,0.574,0.673,1.422l0.225,0.898c0.523-0.2,1.26-0.187,2.208,0.037c0.874,0.175,1.472,0.225,1.797,0.15l1.235-1.272
		c0.648-0.773,1.097-1.26,1.347-1.459c0.399-0.324,0.724-0.424,0.973-0.299c0.299,0.149,0.661,0.624,1.085,1.422
		c0.35,0.624,0.599,0.998,0.749,1.123c0.399,0.3,1.297,0.399,2.694,0.3c1.173-0.075,1.959-0.025,2.358,0.149
		c0.798,0.274,1.247,0.936,1.347,1.983c0.05,0.449,0,0.911-0.149,1.385l-0.075,0.225c0.05,0.05,0.175,0.087,0.375,0.112h0.038
		l0.749-0.112c0.499-0.125,0.823-0.174,0.973-0.15c0.299-0.024,0.761,0.1,1.385,0.375l0.673,0.187h0.824
		c1.198-0.025,2.058,0.025,2.582,0.15c1.048,0.225,1.721,0.686,2.021,1.384c0.175,0.424,0.611,0.512,1.31,0.262
		c0.923-0.499,1.647-0.861,2.171-1.085l1.459-0.599c0.125-0.299,0.275-0.611,0.45-0.936c0.699-1.447,1.11-2.557,1.234-3.331
		c0.15-1.198-0.162-2.482-0.936-3.855c-0.523-0.848-1.534-1.784-3.031-2.807l-1.085-0.749c-0.749-0.574-1.571-1.484-2.47-2.732
		c-0.673-1.023-1.285-1.759-1.833-2.208c-0.524-0.449-1.335-0.849-2.433-1.198c-1.347-0.399-2.32-0.911-2.919-1.535
		c-0.649-0.624-1.073-1.272-1.272-1.946c-0.125-0.449-0.187-1.061-0.187-1.834c0-0.873-0.075-1.509-0.225-1.908
		c-0.125-0.524-0.549-1.272-1.272-2.246c-0.274-0.225-0.537-0.512-0.786-0.861c-0.449-0.574-0.961-1.485-1.535-2.732l-0.449-0.898
		c-0.449-0.898-1.547-2.059-3.293-3.481l-0.449-0.411c-0.699-0.549-2.021-1.073-3.967-1.572c-1.123-0.274-1.896-0.511-2.32-0.71
		c-0.699-0.3-1.198-0.674-1.497-1.123c-0.449-0.898-1.659-2.208-3.63-3.929l-2.095-1.984c-2.396-2.22-4.029-3.505-4.902-3.854
		c-0.325-0.125-0.786-0.175-1.385-0.149c-1.048-0.05-1.847-0.274-2.396-0.674c-0.399-0.299-0.798-0.849-1.198-1.646
		c-0.499-0.948-1.035-1.485-1.609-1.609c-0.25-0.05-0.724,0.025-1.422,0.225c-1.098,0.349-1.983,0.437-2.657,0.262
		c-0.648-0.125-1.472-0.536-2.47-1.235c-0.923-0.599-1.659-1.197-2.208-1.796c-0.549-0.524-1.161-1.31-1.834-2.358
		c-0.699-0.998-1.272-1.584-1.722-1.759c-0.624-0.224-1.684-0.125-3.181,0.3c-1.722,0.574-3.269,0.636-4.641,0.187
		c-0.773-0.3-1.796-0.936-3.069-1.909c-1.297-1.048-2.37-1.771-3.218-2.17c-0.325-0.15-0.898-0.487-1.722-1.011
		c-1.248-0.798-2.32-1.235-3.219-1.31c-0.748-0.025-2.233,0.174-4.453,0.599c-1.547,0.375-2.757,0.599-3.63,0.674
		c-2.121,0.174-4.03-0.412-5.726-1.759c-0.998-0.773-2.021-1.946-3.069-3.518C46.402,57.764,47.275,58.625,48.349,59.423z"/>
</g>
</svg>
