<?xml version="1.0" encoding="utf-8"?>
<!-- Generator: Adobe Illustrator 16.0.0, SVG Export Plug-In . SVG Version: 6.00 Build 0)  -->
<!DOCTYPE svg PUBLIC "-//W3C//DTD SVG 1.1//EN" "http://www.w3.org/Graphics/SVG/1.1/DTD/svg11.dtd">
<svg version="1.1" id="Layer_1" xmlns="http://www.w3.org/2000/svg" xmlns:xlink="http://www.w3.org/1999/xlink" x="0px" y="0px"
	 width="300px" height="300px" viewBox="0 0 300 300" enable-background="new 0 0 300 300" xml:space="preserve">
<g>
	<path fill="#010101" d="M16.603,122.345l29.19,14.184l-1.085-20.808l65.229,39.482L58.629,137.09l0.824,19.646l-44.048-17.401
		C15.43,133.647,15.83,127.983,16.603,122.345z M135.049,143.714l4.753-17.813l16.989,9.692L208.1,86.381l-39.481,55.948
		l70.771,40.269l-62.05-23.765l-76.607,72.901l49.662-64.146L69.22,121.746L135.049,143.714z M222.657,35.822l-21.968,23.876
		l20.246,4.94l-56.66,51.083l32.186-43.936l-19.049-4.865l29.377-37.162C212.229,31.456,217.518,33.476,222.657,35.822z
		 M156.118,160.18l-0.524-0.111l0.038,0.785L156.118,160.18z M250.09,180.875l-47.902-25.934l73.051,21.854l-16.204,13.173
		l26.87,10.891c-1.174,2.494-2.434,4.965-3.78,7.41c-1.197,2.295-2.457,4.516-3.778,6.662l-43.412-21.521L250.09,180.875z
		 M99.309,242.475l38.621-38.358l-42.026,63.62l-7.934-19.272l-18.113,22.529c-2.046-1.821-4.066-3.729-6.063-5.728
		c-1.821-1.82-3.58-3.668-5.277-5.539l33.12-35.365L99.309,242.475z"/>
</g>
</svg>
