<?xml version="1.0" encoding="utf-8"?>
<!-- Generator: Adobe Illustrator 16.0.0, SVG Export Plug-In . SVG Version: 6.00 Build 0)  -->
<!DOCTYPE svg PUBLIC "-//W3C//DTD SVG 1.1//EN" "http://www.w3.org/Graphics/SVG/1.1/DTD/svg11.dtd">
<svg version="1.1" id="Layer_1" xmlns="http://www.w3.org/2000/svg" xmlns:xlink="http://www.w3.org/1999/xlink" x="0px" y="0px"
	 width="300px" height="300px" viewBox="0 0 300 300" enable-background="new 0 0 300 300" xml:space="preserve">
<g>
	<path fill="#6D62A6" d="M172.066,88.637c-10.642,8.333-18.164,18.495-22.566,30.49c-4.751-10.773-13.057-21.257-24.918-31.445
		v0.039c-0.105-0.105-0.212-0.198-0.318-0.277c0.026-0.107,0.066-0.199,0.119-0.28c4.856-12.179,12.989-24.559,24.4-37.136
		C159.637,63.162,167.398,76.032,172.066,88.637z M121.599,132.262c-4.062-13.878-3.479-28.036,1.749-42.472
		c12.047,10.376,20.274,21.069,24.68,32.083c-4.38,18.203-4.035,35.757,1.033,52.66c-0.292-0.292-0.544-0.559-0.756-0.797
		c-0.451-0.504-0.717-0.782-0.796-0.836c-13.188-13.269-21.812-26.788-25.873-40.562l-0.037-0.038V132.262z M175.371,132.54
		c-3.211,13.772-10.586,27.2-22.133,40.28c0.32-1.697,0.613-3.356,0.877-4.976c1.99-13.479,1.674-25.792-0.953-36.938
		c-0.452-2.282-1.035-4.551-1.753-6.807c-0.185-0.558-0.372-1.088-0.558-1.592c4.035-12.445,11.385-22.941,22.051-31.485
		c4.752,14.037,5.602,27.756,2.549,41.157C175.396,132.288,175.371,132.407,175.371,132.54z"/>
	<path fill="#AB4C7A" d="M119.408,133.297c4.139,13.904,12.817,27.543,26.03,40.918c-34.919-8.863-55.712-27.464-62.372-55.806
		C97.052,120.373,109.164,125.336,119.408,133.297z M150.852,131.465c0.055,0.345,0.121,0.689,0.2,1.035
		c0,0.133,0.04,0.252,0.12,0.359c2.254,10.508,2.454,22.051,0.596,34.629c-0.265,1.617-0.556,3.264-0.877,4.936
		c-4.19-14.914-4.642-30.358-1.352-46.331c0.025,0.159,0.067,0.304,0.119,0.437c-0.026,0.08-0.052,0.159-0.079,0.238
		C150.056,128.309,150.481,129.874,150.852,131.465z M177.641,133.297c10.721-9.5,23.551-14.98,38.49-16.439
		c-7.59,29.562-28.074,48.893-61.457,57.994C166.643,161.371,174.297,147.521,177.641,133.297z"/>
	<path fill="#F37A7D" d="M216.727,114.389c-14.726,1.3-27.49,6.33-38.291,15.087c2.363-13.057,1.183-26.391-3.541-40.002
		c11.146-8.44,25.647-14.941,43.504-19.505C220.205,86.633,219.646,101.44,216.727,114.389z M119.327,86.448
		c0.716,0.557,1.422,1.127,2.11,1.711c-5.28,14.037-6.289,27.849-3.025,41.435c-10.271-7.323-22.236-11.887-35.902-13.691
		c-2.707-13.612-2.309-29.376,1.194-47.287c13.852,4.856,25.659,10.734,35.425,17.633C119.182,86.303,119.25,86.367,119.327,86.448z
		"/>
	<path fill="#F26D56" d="M264.492,123.465c-25.342,51.746-62.491,69.842-111.45,54.292c35.979-9.181,57.849-29.547,65.597-61.099
		C232.251,115.729,247.534,117.998,264.492,123.465z M147.987,177.277c-53.55,18.392-90.859-0.275-111.929-56.001
		c16.426-3.663,31.246-4.724,44.461-3.186C87.287,148.661,109.775,168.391,147.987,177.277z"/>
	<path fill="#3D3660" d="M177.641,133.297c-3.344,14.224-10.998,28.074-22.967,41.555c33.383-9.102,53.867-28.433,61.457-57.994
		C201.191,118.316,188.361,123.797,177.641,133.297z M147.987,177.277c-38.212-8.887-60.7-28.616-67.468-59.188
		c-13.215-1.538-28.035-0.478-44.461,3.186C57.128,177.002,94.438,195.669,147.987,177.277z M59.424,198.256
		c-4.459-3.927-8.65-7.125-12.578-9.593c-6.847-5.12-9.195-8.729-7.045-10.826c3.396-1.459,6.779-1.142,10.149,0.956l18.708,13.055
		c-0.93,5.44,1.088,8.969,6.05,10.588c4.14,0.558,7.231,1.154,9.274,1.791c7.377,2.149,14.251,3.291,20.618,3.424
		c-6.13-2.282-14.714-4.563-25.753-6.846c-4.723-0.931-7.35-2.389-7.881-4.38c-0.504-3.29,0.649-5.227,3.464-5.813
		c0.45-0.104,0.928-0.17,1.433-0.196c0.344,0,0.729,0.026,1.153,0.079c1.593,0.16,3.661,0.623,6.21,1.393
		c8.543,1.778,14.926,2.123,19.145,1.036c13.984-4.192,24.932-3.118,32.839,3.224c3.689,2.627,6.514,9.672,8.478,21.138
		c3.236,17.272,5.892,29.254,7.96,35.94h-25.871l-1.833-23.881c-0.343-6.794-2.532-10.469-6.567-11.025
		c-10.057-0.932-17.699-1.871-22.926-2.827c-5.201-0.981-8.798-1.937-10.789-2.865l-12.378-6.487
		C67.199,203.882,63.244,201.254,59.424,198.256z M150.852,131.465c-0.37-1.591-0.795-3.156-1.271-4.697
		c0.027-0.079,0.053-0.158,0.079-0.238c-0.052-0.133-0.094-0.277-0.119-0.437c-3.29,15.973-2.84,31.417,1.353,46.331
		c0.32-1.672,0.611-3.316,0.875-4.936c1.859-12.578,1.659-24.121-0.595-34.629c-0.08-0.107-0.12-0.227-0.12-0.359
		C150.973,132.154,150.904,131.81,150.852,131.465z M175.371,132.54c0-0.133,0.025-0.252,0.08-0.358
		c3.053-13.401,2.203-27.12-2.549-41.157c-10.666,8.544-18.016,19.04-22.051,31.485c0.186,0.504,0.373,1.034,0.558,1.592
		c0.718,2.256,1.301,4.524,1.753,6.807c2.627,11.146,2.943,23.457,0.953,36.938c-0.264,1.617-0.557,3.276-0.877,4.976
		C164.785,159.74,172.16,146.313,175.371,132.54z M119.408,133.297c-10.244-7.961-22.356-12.924-36.342-14.888
		c6.66,28.342,27.453,46.942,62.372,55.806C132.226,160.84,123.547,147.201,119.408,133.297z M121.599,132.262v0.04l0.037,0.038
		c4.062,13.773,12.685,27.293,25.873,40.561c0.079,0.055,0.345,0.332,0.796,0.838c0.212,0.238,0.464,0.504,0.756,0.796
		c-5.068-16.903-5.413-34.457-1.033-52.66c-4.405-11.014-12.633-21.707-24.68-32.083
		C118.12,104.226,117.537,118.384,121.599,132.262z M119.327,86.448c-0.077-0.081-0.146-0.146-0.198-0.2
		c-9.766-6.898-21.573-12.776-35.425-17.633c-3.503,17.911-3.901,33.675-1.194,47.287c13.666,1.805,25.632,6.368,35.902,13.691
		c-3.264-13.586-2.255-27.397,3.025-41.435C120.749,87.575,120.043,87.005,119.327,86.448z M172.066,88.637
		c-4.668-12.604-12.432-25.475-23.283-38.609c-11.411,12.577-19.544,24.957-24.4,37.136c-0.053,0.081-0.093,0.173-0.119,0.28
		c0.106,0.079,0.213,0.172,0.318,0.277v-0.039c11.861,10.188,20.167,20.672,24.918,31.445
		C153.902,107.132,161.426,96.97,172.066,88.637z M263.496,177.837c2.15,2.097-0.198,5.706-7.044,10.826
		c-3.927,2.468-8.119,5.666-12.578,9.593c-3.821,2.998-7.774,5.626-11.862,7.881l-12.379,6.488c-1.99,0.93-5.587,1.884-10.785,2.865
		c-5.229,0.955-12.869,1.896-22.928,2.826c-4.033,0.559-6.223,4.232-6.568,11.026l-1.83,23.882h-25.873
		c2.069-6.688,4.725-18.668,7.959-35.941c1.965-11.465,4.791-18.51,8.479-21.137c7.909-6.342,18.854-7.418,32.84-3.225
		c4.22,1.087,10.603,0.742,19.146-1.035c2.548-0.771,4.616-1.232,6.21-1.394c0.423-0.054,0.809-0.079,1.152-0.079
		c0.506,0.025,0.983,0.092,1.435,0.197c2.813,0.586,3.966,2.521,3.463,5.813c-0.531,1.991-3.158,3.449-7.882,4.379
		c-11.038,2.282-19.623,4.563-25.752,6.848c6.367-0.133,13.24-1.274,20.617-3.424c2.043-0.638,5.135-1.234,9.273-1.793
		c4.963-1.619,6.979-5.146,6.051-10.588l18.709-13.054C256.717,176.695,260.1,176.378,263.496,177.837z M216.727,114.389
		c2.922-12.948,3.479-27.756,1.672-44.42c-17.855,4.563-32.358,11.064-43.504,19.505c4.724,13.611,5.904,26.945,3.541,40.002
		C189.236,120.719,202.001,115.688,216.727,114.389z M264.492,123.465c-16.958-5.467-32.241-7.735-45.854-6.807
		c-7.748,31.552-29.615,51.918-65.597,61.099C202.001,193.307,239.15,175.211,264.492,123.465z M220.389,67.7
		c0.135,0.185,0.215,0.397,0.239,0.638c1.991,17.221,1.513,32.504-1.433,45.853c14.037-0.823,29.826,1.658,47.365,7.442
		c0.213,0.055,0.385,0.173,0.519,0.358c0.159,0.187,0.252,0.399,0.276,0.637c0.027,0.214-0.012,0.426-0.117,0.639
		c-26.403,54.901-65.545,73.542-117.421,55.924c-55.963,19.688-94.786,0.238-116.465-58.354c-0.08-0.237-0.093-0.463-0.04-0.675
		c0.025-0.239,0.132-0.438,0.318-0.597c0.16-0.159,0.358-0.266,0.597-0.32c16.904-3.898,32.175-5.119,45.813-3.659
		c-2.679-14.038-2.149-30.305,1.593-48.801c0.026-0.238,0.134-0.438,0.318-0.596c0.16-0.159,0.345-0.267,0.558-0.319
		c0.211-0.053,0.437-0.04,0.677,0.04c15.576,5.333,28.646,11.928,39.205,19.782c5.097-12.578,13.614-25.342,25.553-38.292
		c0.163-0.185,0.36-0.305,0.599-0.357c0.214-0.054,0.425-0.04,0.638,0.04c0.214,0.053,0.398,0.172,0.558,0.358
		c11.303,13.479,19.397,26.708,24.278,39.683c11.57-8.623,26.615-15.23,45.138-19.822c0.214-0.052,0.438-0.039,0.68,0.042
		C220.043,67.395,220.23,67.514,220.389,67.7z"/>
</g>
</svg>
