<?xml version="1.0" encoding="utf-8"?>
<!-- Generator: Adobe Illustrator 16.0.0, SVG Export Plug-In . SVG Version: 6.00 Build 0)  -->
<!DOCTYPE svg PUBLIC "-//W3C//DTD SVG 1.1//EN" "http://www.w3.org/Graphics/SVG/1.1/DTD/svg11.dtd">
<svg version="1.1" id="Layer_1" xmlns="http://www.w3.org/2000/svg" xmlns:xlink="http://www.w3.org/1999/xlink" x="0px" y="0px"
	 width="300px" height="300px" viewBox="0 0 300 300" enable-background="new 0 0 300 300" xml:space="preserve">
<g>
	<path fill-rule="evenodd" clip-rule="evenodd" fill="#010101" d="M37.427,245.321c-3.697,0.794-5.355,2.005-4.975,3.629
		c0.19,0.794,0.743,1.511,1.658,2.149c-1.641,1.643-2.056,3.128-1.243,4.458c3.887-1.538,8.75-2.86,14.589-3.966
		c7.169-1.382,13.181-1.797,18.036-1.244c3.455,0.397,10.78-0.664,21.975-3.187c11.108-2.506,18.614-4.785,22.518-6.842
		c-5.942,0.898-11.946,1.771-18.009,2.618c-15.375,2.159-23.503,2.954-24.384,2.384c-0.847-0.553-4.941-0.907-12.283-1.063
		C47.361,244.069,41.401,244.424,37.427,245.321z M36.987,243.403c4.112-0.915,10.227-1.296,18.347-1.139
		c3.352,0.068,6.142,0.214,8.37,0.439c0.95,0.086,1.9,0.191,2.851,0.311l1.037,0.208c0.501,0.155,0.846,0.294,1.036,0.414
		c-0.155-0.103-0.25-0.155-0.285-0.155l1.115,0.053l3.913-0.286c4.077-0.38,8.103-0.838,12.075-1.373
		c7.861-1.053,16.023-2.246,24.488-3.576l1.425-0.208l-1.84-2.383c-4.111-5.011-7.204-8.933-9.277-11.765
		c-3.61-4.924-6.496-9.805-8.655-14.642c-3.3-7.463-6.106-15.143-8.422-23.037c-2.297-7.895-3.843-15.098-4.638-21.611
		c-0.829-7.048-0.691-12.464,0.415-16.248c0.622-2.262,1.624-3.998,3.006-5.208c0.432-0.38,1.105-0.734,2.021-1.063
		c-1.244-2.229-1.961-4.664-2.151-7.307c0.052-2.419,0.052-3.844,0-4.276c-0.259-3.075,0.311-6.728,1.71-10.96
		c1.589-4.82,3.999-9.494,7.229-14.019c2.419-3.386,5.183-6.444,8.292-9.173c-0.363,0.121-0.734,0.155-1.115,0.104
		c-1.485-0.156-2.625-1.572-3.42-4.25c-0.777-2.678-0.967-5.83-0.57-9.458s1.27-6.661,2.617-9.095
		c1.33-2.471,2.738-3.628,4.224-3.473c1.486,0.19,2.626,1.615,3.421,4.276c0.76,2.694,0.941,5.847,0.544,9.458
		c-0.397,3.611-1.261,6.651-2.591,9.122c-0.311,0.553-0.613,1.045-0.907,1.478c0.933-0.744,1.893-1.46,2.877-2.151
		c6.133-4.198,13.077-7.195,20.834-8.992c2.816-0.416,5.226-0.717,7.23-0.907c0.501-0.052,0.976-0.095,1.425-0.129
		c0.898-0.07,1.702-0.104,2.41-0.104c12.975-0.553,25.386,0.199,37.237,2.254c-0.035-0.656-0.061-1.33-0.077-2.021
		c-0.035-4.025,0.527-7.463,1.684-10.314c1.176-2.868,2.625-4.318,4.354-4.353c1.71-0.018,3.179,1.382,4.405,4.198
		c1.262,2.816,1.909,6.236,1.943,10.262c0.034,3.178-0.319,6.011-1.063,8.5c2.747,2.003,5.148,4.388,7.204,7.152
		c0.622,0.812,1.253,1.735,1.892,2.772c0.984,1.607,2.177,3.749,3.576,6.426c1.71,3.3,2.824,5.407,3.343,6.323l2.462,4.846
		c2.608,5.614,4.992,12.292,7.152,20.032l0.959,3.628c1.503,5.786,2.651,11.461,3.446,17.023l1.839-3.446
		c-0.069,0.069-0.025-0.025,0.131-0.285l6.529-10.909c1.054-1.624,2.116-3.152,3.188-4.586l-0.078,0.129
		c0.034,0,0.078-0.052,0.13-0.155l2.617-3.266c0.017-0.034,0.043-0.06,0.077-0.077h0.026c0.035-0.053,0.061-0.104,0.078-0.155
		c0.206-0.294,0.526-0.665,0.959-1.115l0.854-0.958c4.562-4.803,8.673-7.074,12.335-6.815c1.969,0.156,3.628,0.994,4.975,2.514
		c1.227,1.295,2.186,3.075,2.877,5.338c1.313,4.371,1.615,9.916,0.907,16.637c-0.691,6.944-2.393,14.416-5.105,22.414
		c-2.954,8.726-8.577,20.853-16.869,36.384c-8.188,15.306-13.346,26.214-15.47,32.728c6.944,3.041,14.709,5.095,23.295,6.168
		c4.439,0.553,11.515,0.949,21.223,1.191c6.444,0.19,11.575,0.872,15.394,2.048c3.058,0.933,6.771,2.729,11.143,5.389l1.71,1.193
		c0.138,0.051,0.233,0.104,0.285,0.154c0.086,0.052,0.155,0.138,0.207,0.259c1.313,1.037,2.135,2.091,2.462,3.161
		c0.173,0.605,0.155,1.271-0.052,1.996c-0.173,0.639-0.476,1.176-0.906,1.605l-0.363,0.312c0.034,0,0.009,0.027-0.078,0.078
		c0.087,0,0.025,0.068-0.181,0.208l-0.078,0.078l-0.104,0.078v0.025h-0.051c-0.813,0.586-1.771,1.096-2.877,1.528
		c0.121,0.19,0.337,0.449,0.648,0.778c0.812,1.468,1.054,2.788,0.726,3.964c-0.174,0.708-0.579,1.339-1.218,1.892
		c-0.622,0.501-1.34,0.846-2.151,1.036c-1.468,0.347-3.455,0.294-5.96-0.155c-9.674-1.675-18.035-4.346-25.084-8.008l-23.322-5.959
		l0.959,0.492c0.294,0.139,0.397,0.207,0.312,0.207l1.217,0.674c1.21,0.726,2.238,1.399,3.085,2.021l2.487,1.918
		c-0.104-0.104,0-0.026,0.311,0.233l2.437,2.332l0.906,1.113h0.052l0.881,1.324l0.078,0.181c0.207,0.327,0.38,0.742,0.518,1.244
		c0.294,0.742,0.424,1.468,0.39,2.175l-0.026,0.778l-0.233,0.699c-0.086,0.224-0.197,0.475-0.337,0.751l-1.036,1.244l-0.907,0.674
		c-1.917,1.211-4.017,1.84-6.297,1.893c-2.211,0.051-4.388-0.433-6.53-1.451c-4.335-2.056-8.041-5.813-11.116-11.271
		c-0.381-0.691-1.287-1.729-2.721-3.111c-1.417-1.415-3.032-2.85-4.847-4.301c-2.954-2.367-6.504-5.001-10.649-7.903l-3.732-2.566
		l-0.232-0.103c-2.177-1.158-3.55-2.471-4.12-3.938c-0.26-0.605-0.389-1.349-0.389-2.229c0-0.761,0.095-1.503,0.285-2.229
		l0.439-1.606l-1.062,0.829c-0.276,0.19-0.7,0.493-1.271,0.907l-1.45,0.752c0.068-0.018,0.095-0.018,0.078,0
		c-0.053,0.033-0.104,0.06-0.157,0.077c0.242,0.83,0.459,1.667,0.648,2.514c3.023,2.383,6.471,5.908,10.34,10.573
		c1.849,2.228,3.169,3.774,3.965,4.638c1.105,1.227,1.9,1.96,2.384,2.201c4.042,2.074,7.222,4.113,9.536,6.117
		c0.968,0.864,1.692,1.606,2.177,2.229c0.69,0.863,1.132,1.771,1.321,2.721c0.276,1.227,0.069,2.314-0.622,3.265
		c-0.622,0.847-1.598,1.563-2.929,2.151c-2.072,0.847-4.465,0.673-7.177-0.519c-1.97-0.882-4.077-2.254-6.323-4.119
		c-1.779-1.538-3.378-3.102-4.794-4.691l-2.306-2.747c-1.814-3.195-3.637-5.743-5.468-7.644c-0.691-0.709-1.46-1.287-2.308-1.736
		c-0.119,0.312-0.198,0.726-0.232,1.244c-0.069,1.952,0.424,4.793,1.477,8.524c0.069,0.347,0.604,1.262,1.607,2.747
		c1.261,1.883,2.107,3.317,2.539,4.303c0.95,2.142,0.958,3.921,0.025,5.338c-0.983,1.624-3.065,2.529-6.244,2.72
		c-3.317,0.208-5.805-0.337-7.463-1.633c-1.434-1.157-2.28-2.894-2.54-5.208c-0.086-0.76-0.111-1.667-0.077-2.722
		c0.052-1.174,0.077-2.028,0.077-2.564c0.052-1.729-0.104-2.998-0.466-3.81c-0.104-0.241-0.156-0.535-0.156-0.88
		c0.156-3.49,0.068-6.212-0.259-8.163c-0.138-0.743-0.32-1.374-0.545-1.893l-0.052-0.025c-0.379,0.225-0.732,0.501-1.062,0.83
		c-1.158,1.156-2.539,3.031-4.147,5.622l-0.051,0.933c-0.121,0.588-0.38,1.356-0.777,2.307c-0.863,1.986-2.03,3.793-3.498,5.416
		c-1.813,2.106-3.869,3.507-6.168,4.197c-2.851,0.864-5.684,0.493-8.499-1.113c-0.623-0.347-1.149-0.794-1.582-1.348
		c-0.415-0.588-0.682-1.21-0.803-1.866c-0.19-1.071,0.061-2.245,0.751-3.524c0.985-1.762,2.729-3.688,5.234-5.777
		c2.92-2.453,5.908-4.579,8.966-6.376c1.383-1.434,2.834-3.049,4.354-4.846c1.555-1.865,2.92-3.697,4.095-5.494
		c-1.503-0.206-2.401-0.335-2.695-0.388l-2.825-0.57l-0.076-0.052h-0.053l-4.068-1.036c-0.379,0.933-0.89,1.754-1.528,2.461
		c-1.158,1.193-2.739,2.005-4.742,2.438c-0.329,0.103-0.614,0.163-0.854,0.181l-1.918,0.284c-1.002,0.121-2.565,0.216-4.69,0.286
		l-2.876,0.051c-0.692,0.018-1.322,0.053-1.892,0.104c-2.764,0.208-7.938,0.735-15.522,1.581c-0.794,1.123-1.926,2.342-3.395,3.653
		c-0.864,0.779-2.237,1.971-4.121,3.576c-2.176,1.953-5.001,4.009-8.473,6.168c-2.418,1.485-4.578,2.687-6.478,3.602
		c-3.076,1.521-7.472,2.126-13.19,1.814c-2.401-0.139-4.319-0.433-5.752-0.882c-0.933-0.259-1.667-0.646-2.203-1.166
		c-0.415-0.466-0.665-0.976-0.751-1.528c-0.104-0.639,0.017-1.244,0.363-1.814c-0.242,0.363-0.095,0.027,0.44-1.011
		c0.38-0.69,0.993-1.329,1.84-1.917c-3.749,0.622-6.772,0.839-9.07,0.647c-2.315-0.224-4.008-0.716-5.079-1.478
		c-0.847-0.621-1.356-1.39-1.529-2.305c0.018-0.347,0.026-0.596,0.026-0.753c-3.593,0.64-8.275,1.382-14.045,2.229l-4.328,0.674
		c-2.816,0.398-4.803,0.596-5.96,0.596c-0.346,0.035-0.847,0.027-1.503-0.025c-0.622-0.051-1.252-0.129-1.891-0.233
		c-0.38-0.018-0.708-0.076-0.985-0.182l-0.389-0.077h-0.052l-2.462-0.674l-0.415-0.156c-1.158-0.396-2.186-0.905-3.083-1.528
		l-1.037-0.804c-0.208-0.224-0.32-0.354-0.337-0.388l-0.156-0.181v-0.053c-0.95-1.105-1.339-2.332-1.166-3.68
		c0.104-0.776,0.406-1.537,0.907-2.281c-0.467-0.586-0.778-1.225-0.933-1.917c-0.156-0.587-0.121-1.243,0.104-1.969
		c0.259-0.742,0.674-1.357,1.244-1.84C32.936,244.655,34.638,243.938,36.987,243.403z M158.572,241.563
		c0.933,0.362,1.857,0.666,2.772,0.907c1.935,0.501,3.782,0.925,5.546,1.27c1.313,0.241,2.564,0.44,3.757,0.596
		c0.726,0.088,1.425,0.156,2.099,0.208c-0.76,1.797-2.721,4.569-5.883,8.317c-1.588,1.866-3.101,3.561-4.533,5.079l-2.955,1.918
		c-2.332,1.537-4.345,3.022-6.037,4.458c-5.459,4.594-6.764,7.688-3.914,9.276c4.353,2.453,8.439,1.563,12.257-2.669
		c1.33-1.485,2.384-3.109,3.162-4.871c0.708-1.643,0.889-2.601,0.543-2.878c3.731-6.097,6.436-8.775,8.111-8.032
		c1.606,0.709,2.28,4.76,2.021,12.154c0.432,1.018,0.631,2.563,0.596,4.637c-0.052,2.8-0.052,4.475,0,5.027
		c0.38,3.731,3.015,5.441,7.903,5.131c4.457-0.293,5.969-2.064,4.535-5.313c-0.363-0.864-1.158-2.211-2.385-4.041
		c-1.07-1.608-1.684-2.696-1.839-3.266c-2.281-7.999-2.203-12.128,0.232-12.387c2.385-0.276,5.692,3.214,9.926,10.47
		c0.812,1.536,3.04,3.843,6.685,6.917c4.786,4.043,8.595,5.479,11.429,4.303c3.454-1.4,3.282-3.74-0.52-7.022
		c-2.349-2.056-5.381-4.009-9.095-5.856c-0.95-0.467-3.274-2.912-6.971-7.333c-4.129-4.959-7.662-8.553-10.599-10.78
		c-0.139-0.967-0.294-1.746-0.467-2.332l-0.725-2.359c1.969-0.794,3.696-1.865,5.183-3.212c2.073-1.85,4.042-4.172,5.907-6.972
		l0.078-0.543c-1.952,3.023-4.025,5.511-6.22,7.462c-1.398,1.313-3.057,2.35-4.975,3.11l7.178-61.311
		c1.952-9.52,2.186-17.916,0.7-25.188c-2.005-9.951-7.092-14.313-15.264-13.087c4.578-3.61,4.319-9.631-0.777-18.062
		c8.897,2.54,13.726-0.165,14.485-8.11c0.64-6.841-1.512-14.892-6.452-24.151c3.162,2.487,5.986,5.848,8.474,10.081
		c1.451,2.452,3.456,6.219,6.012,11.298c3.939,6.997,7.403,16.342,10.392,28.038c2.384,9.277,3.714,16.3,3.99,21.068
		c0.052,0.742,0.06,1.667,0.025,2.772c0.069-0.173,0.147-0.346,0.234-0.52c0.018-0.862,0.009-1.605-0.026-2.228
		c-0.276-4.768-1.606-11.791-3.99-21.067c-3.006-11.678-6.47-21.016-10.392-28.013c-2.592-5.113-4.604-8.887-6.037-11.324
		c-2.488-4.232-5.296-7.583-8.422-10.054c-0.174-0.138-0.337-0.268-0.493-0.388c-1.209,2.833-2.643,4.267-4.302,4.301
		c-1.728,0.017-3.204-1.382-4.431-4.198c-0.691-1.606-1.192-3.394-1.503-5.363c-3.248-1.141-6.884-2.031-10.91-2.669
		c-0.035-0.017-0.794-0.251-2.279-0.7l-7.256-0.466v0.025c-0.018,0.018-0.026,0.044-0.026,0.078c-2.28-0.155-4.638-0.25-7.074-0.285
		c-1.434-0.035-2.885-0.043-4.354-0.027c-0.881,0.018-1.753,0.043-2.617,0.079l-11.92,1.347
		c-13.164,2.591-23.84,8.689-32.029,18.295c-4.025,4.733-7.074,9.908-9.147,15.521c-1.728,4.717-2.453,8.629-2.177,11.739
		c0.052,0.691,0.043,2.134-0.026,4.327c0.121,2.246,0.7,4.303,1.737,6.168c0.483,0.897,1.088,1.788,1.814,2.669
		c-3.628-0.467-5.926,1.908-6.894,7.127c-1.105,5.907-0.397,14.416,2.125,25.524c2.47,10.9,6.081,21.68,10.832,32.339
		c2.384,5.355,5.874,10.987,10.469,16.896c5.891,7.618,9.406,12.161,10.547,13.63c-0.968-1.4-2.108-2.938-3.421-4.612
		c1.192-0.95,2.013-1.677,2.462-2.179c0.846-0.88,0.924-1.95,0.233-3.212c-8.655-14.218-14.788-25.085-18.398-32.6
		c-6.237-12.938-9.191-25.532-8.862-37.781c0.138-4.819,0.898-8.171,2.28-10.054c0.898-1.227,2.436-2.082,4.612-2.565
		c5.079,3.334,11.393,9.77,18.942,19.306c1.158,1.469,2.35,3.014,3.576,4.638l29.178,41.592c0.225-0.053,0.45-0.113,0.674-0.183
		c2.886-1.019,4.371-2.029,4.458-3.031c0.018-0.536-0.778-2.255-2.385-5.157c-4.854-8.586-7.229-19.659-7.126-33.221
		c-7.791,0.691-13.526,0.39-17.206-0.907c-2.505-0.88-6.651-3.549-12.438-8.007c-0.069-0.069-0.147-0.129-0.233-0.181l-2.384-8.681
		l-0.415-1.503c-4.44-1.106-8.102-3.49-10.987-7.153c-2.263-2.867-4.258-6.85-5.986-11.945c-0.017-0.035-0.034-0.078-0.052-0.129
		c-0.519-1.538-0.544-2.929-0.078-4.173c0.467-1.243,1.149-1.649,2.048-1.218c0.103,2.816,0.751,5.416,1.943,7.8
		c1.606,3.231,4.224,6.038,7.852,8.422c5.666,3.714,12.827,5.891,21.482,6.53c8.465,0.622,16.351-0.346,23.659-2.902
		c7.722-2.713,13.095-6.694,16.117-11.946c0.035-0.069,0.07-0.129,0.104-0.181c0.466-0.121,0.544-0.622,0.233-1.503
		c-0.189-0.536-0.656-1.469-1.399-2.799c0.604-0.103,1.313-0.017,2.124,0.259c0.83,0.26,2.125,0.83,3.888,1.711
		c2.902,1.399,4.708,3.766,5.416,7.1c0.189,0.881,0.303,1.813,0.338,2.799l-0.079,2.824l-0.298,2.009
		c-0.043,0.224-0.091,0.453-0.143,0.687c0,0.034,0,0.06,0,0.077v0.026c0.017,0.415,0.043,0.829,0.077,1.244
		c0.519,9.691,1.46,17.404,2.825,23.14c0.019,0.035,0.026,0.068,0.026,0.104c0.034,0.104,0.068,0.216,0.103,0.337
		c0.882,3.594,2.393,9.078,4.535,16.454c0.035,0.105,0.069,0.217,0.104,0.339v0.025c-1.71,19.348-3.119,31.977-4.225,37.885
		c-0.76,4.146-2.254,10.114-4.482,17.905c-3.213-0.207-7.127-0.897-11.739-2.072c-0.933-0.242-1.883-0.553-2.851-0.934
		c0,0.035-0.008,0.069-0.025,0.104c-0.467,1.677-1.07,2.886-1.814,3.627c-0.914,0.95-2.4,1.616-4.456,1.996
		c-1.867,0.346-4.933,0.545-9.199,0.596c-2.989,0.052-16.023,1.392-39.104,4.016c-11.505,1.314-22.726,2.627-33.661,3.94
		c-14.943,2.504-23.728,3.783-26.354,3.835c-1.917,0.051-3.956-0.269-6.115-0.959c-0.898-0.276-1.685-0.578-2.358-0.907
		c2.54,1.331,5.39,1.97,8.551,1.917c2.625-0.051,11.41-1.337,26.354-3.86c0.967-0.121,1.935-0.233,2.902-0.337
		c-1.434,0.519-2.314,1.054-2.643,1.606c-1.209,2.056,0.293,3.265,4.509,3.629c4.077,0.327,8.715-0.233,13.916-1.686
		c2.28-0.656,5.493-1.252,9.639-1.788c3.283-0.396,5.053-0.751,5.313-1.063c0.225,0.794-0.389,1.754-1.84,2.877
		c-1.572,1.209-3.205,1.865-4.897,1.969c-5.856,0.329-9.804,1.123-11.842,2.385c-0.691,0.432-1.192,0.933-1.503,1.503
		c-0.138,0.276-0.285,0.631-0.44,1.063c-0.83,1.313,1.425,2.107,6.763,2.384c5.355,0.276,9.415-0.26,12.179-1.606
		c1.745-0.847,3.835-2.013,6.271-3.499c3.455-2.158,6.211-4.146,8.266-5.959c3.646-3.231,5.709-5.114,6.193-5.649
		c0.604-0.674,1.123-1.356,1.555-2.046c10.348-1.124,16.489-1.702,18.424-1.737c4.267-0.069,7.333-0.276,9.199-0.622
		c2.056-0.345,3.541-1.011,4.457-1.996C157.467,244.439,158.071,243.24,158.572,241.563z M244.033,129.489
		c-3.247-0.847-7.16,1.183-11.738,6.09c1.797,8.828,0.881,18.648-2.747,29.463c-2.125,6.08-4.535,13.984-7.229,23.711
		c-1.486,5.441-3.688,13.519-6.608,24.229c-5.407,18.813-10.917,32.027-16.532,39.646l-3.965-2.721
		c-0.738-0.362-1.36-0.76-1.865-1.192c0.521,0.466,1.169,0.889,1.943,1.27l10.184,7.178c7.083,5.286,11.29,9.121,12.619,11.506
		c2.886,5.097,6.289,8.578,10.21,10.443c3.922,1.882,7.566,1.771,10.936-0.337c1.97-1.209,2.264-2.937,0.881-5.183
		c1.089,1.883,0.977,3.403-0.337,4.562c0.018-2.351-1.166-4.614-3.55-6.791c-2.28-2.106-5.787-4.25-10.521-6.426
		c-1.849-2.229-2.851-4.103-3.006-5.623c-0.121-1.399,0.509-2.091,1.892-2.073c0.76,0.018,2.004,0.156,3.731,0.415
		c2.124,0.362,3.542,0.588,4.25,0.674c1.14,0.396,2.505,1.234,4.095,2.513c0.794,0.656,1.468,1.254,2.021,1.789l-13.526-3.473
		c0.035,0.051,0.069,0.103,0.104,0.155l27.883,7.151c3.853,2.04,7.989,3.731,12.412,5.08c3.646,1.104,7.774,2.064,12.387,2.876
		c4.354,0.777,6.737,0.319,7.152-1.374c0.328-1.485-0.683-3.23-3.032-5.233c3.334-1.191,5.252-2.038,5.753-2.54
		c0.813-0.795,0.82-1.71,0.025-2.747c0.726,1.088,0.57,2.056-0.466,2.902c-0.64,0.535-2.402,1.322-5.286,2.359
		c-1.831-1.158-4.491-2.549-7.982-4.174c-5.597-2.539-8.456-3.843-8.576-3.913l8.524,2.644c5.961,1.573,9.528,1.91,10.703,1.011
		c0.172-0.155,0.448-0.501,0.829-1.036c0.433-0.588,0.682-1.002,0.751-1.244c-0.519-0.396-1.114-0.804-1.788-1.218
		c-4.388-2.66-7.946-4.406-10.676-5.233c-3.576-1.089-8.543-1.711-14.9-1.867c-10.313-0.294-17.707-0.733-22.182-1.321
		c-9.087-1.175-17.335-3.489-24.747-6.944c2.125-7.136,7.325-18.433,15.601-33.895c8.689-16.135,14.468-28.462,17.335-36.978
		c3.817-11.334,5.589-21.319,5.313-29.956C250.046,135.233,247.955,130.508,244.033,129.489z M34.421,251.021
		c2.488-2.28,6.003-3.619,10.547-4.017c2.333-0.224,6.72-0.146,13.164,0.233c-5.304,0.415-9.251,0.787-11.842,1.115
		C41.868,248.905,37.912,249.795,34.421,251.021z M175.441,44.779c1.037-2.073,2.462-3.507,4.275-4.301
		c2.021-0.898,4.086-0.708,6.193,0.57c2.453,1.485,4.708,4.396,6.764,8.732c0.276,0.552,0.241,0.881-0.104,0.985
		c-0.396,0.138-0.95-0.104-1.657-0.726c-3.56-2.988-6.186-4.604-7.878-4.845c-2.436-0.346-4.224,1.528-5.364,5.623
		c-0.397,1.451-0.984,2.03-1.762,1.736c-0.691-0.311-1.141-0.967-1.349-1.969C174.146,48.735,174.439,46.8,175.441,44.779z
		 M93.4,54.419c1.762-9.588,4.44-13.216,8.033-10.884c1.365,0.881,2.609,2.496,3.731,4.846c1.071,2.211,1.728,4.328,1.969,6.349
		c0.052,0.57-0.319,0.985-1.114,1.244c-0.898,0.259-1.659-0.268-2.28-1.581c-2.125-4.509-4.068-6.513-5.831-6.012
		C96.613,48.778,95.11,50.791,93.4,54.419z M103.247,80.254c0.657-1.658,0.691-3.524,0.104-5.597
		c-0.587-2.021-1.434-3.058-2.539-3.109c-0.156,1.347,0.069,2.816,0.674,4.405C101.813,76.902,102.401,78.336,103.247,80.254z
		 M107.886,155.636c0.19,1.572,0.414,3.281,0.674,5.131c-2.418-2.867-4.682-5.373-6.79-7.515
		C103.653,154.063,105.692,154.858,107.886,155.636z M182.127,71.962c-0.968-1.9-2.004-2.773-3.11-2.617
		c0.104,1.365,0.622,2.772,1.556,4.225c0.5,0.88,1.348,2.176,2.54,3.887C183.439,75.693,183.112,73.862,182.127,71.962z
		 M97.184,252.603c-3.576,0.984-6.081,1.278-7.515,0.882C92.156,253.19,94.661,252.896,97.184,252.603z M225.713,261.361
		c0.018,0.52,0.104,0.941,0.259,1.271c-0.104-0.312-0.164-0.683-0.181-1.115c-0.035-0.845-0.199-1.546-0.493-2.099
		C225.541,259.936,225.678,260.584,225.713,261.361z"/>
	<path fill-rule="evenodd" clip-rule="evenodd" fill="#676767" d="M37.427,245.321c3.974-0.897,9.934-1.252,17.88-1.063
		c7.342,0.156,11.437,0.511,12.283,1.063c0.881,0.57,9.009-0.225,24.384-2.384c6.063-0.847,12.067-1.72,18.009-2.618
		c-3.904,2.057-11.41,4.336-22.518,6.842c-11.195,2.522-18.52,3.584-21.975,3.187c-4.854-0.553-10.866-0.138-18.036,1.244
		c-5.839,1.105-10.702,2.428-14.589,3.966c-0.813-1.33-0.397-2.815,1.243-4.458c-0.915-0.639-1.468-1.355-1.658-2.149
		C32.072,247.326,33.73,246.115,37.427,245.321z M158.494,241.538c0.018,0,0.043,0.008,0.078,0.025
		c-0.501,1.677-1.105,2.876-1.814,3.602c-0.916,0.985-2.401,1.651-4.457,1.996c-1.866,0.346-4.932,0.553-9.199,0.622
		c-1.935,0.035-8.076,0.613-18.424,1.737c-0.433,0.689-0.951,1.372-1.555,2.046c-0.484,0.535-2.548,2.418-6.193,5.649
		c-2.055,1.813-4.811,3.801-8.266,5.959c-2.436,1.486-4.526,2.652-6.271,3.499c-2.764,1.347-6.824,1.883-12.179,1.606
		c-5.338-0.276-7.593-1.071-6.763-2.384c0.155-0.432,0.302-0.786,0.44-1.063c0.311-0.57,0.812-1.071,1.503-1.503
		c2.039-1.262,5.986-2.056,11.842-2.385c1.693-0.104,3.326-0.76,4.897-1.969c1.451-1.123,2.065-2.083,1.84-2.877
		c-0.259,0.312-2.03,0.666-5.313,1.063c-4.146,0.536-7.359,1.132-9.639,1.788c-5.2,1.452-9.838,2.013-13.916,1.686
		c-4.215-0.364-5.718-1.573-4.509-3.629c0.328-0.553,1.209-1.088,2.643-1.606c-0.967,0.104-1.935,0.216-2.902,0.337
		c-14.943,2.523-23.728,3.81-26.354,3.86c-3.162,0.053-6.012-0.586-8.551-1.917c0.673,0.329,1.459,0.631,2.358,0.907
		c2.16,0.69,4.198,1.01,6.115,0.959c2.626-0.052,11.411-1.331,26.354-3.835c10.935-1.313,22.156-2.626,33.661-3.94
		c23.08-2.624,36.114-3.964,39.104-4.016c4.266-0.051,7.333-0.25,9.199-0.596c2.056-0.38,3.542-1.046,4.456-1.996
		C157.424,244.424,158.027,243.215,158.494,241.538z M172.746,244.544c0.122,0.018,0.242,0.025,0.363,0.025
		c2.229-7.791,3.723-13.768,4.482-17.932c1.105-5.892,2.522-18.528,4.25-37.91c-0.018-0.035-0.025-0.061-0.025-0.078v-0.025
		c-0.035-0.122-0.069-0.233-0.104-0.339c-2.143-7.376-3.653-12.86-4.535-16.454c-0.034-0.121-0.068-0.233-0.103-0.337
		c0-0.035-0.008-0.068-0.026-0.104c-1.365-5.735-2.307-13.448-2.825-23.14c-0.034-0.415-0.061-0.829-0.077-1.244v-0.026
		c0.055-0.257,0.103-0.511,0.143-0.764l0.298-2.009l0.079-2.824c-0.035-0.985-0.148-1.918-0.338-2.799
		c-0.708-3.334-2.514-5.701-5.416-7.1c-1.763-0.881-3.058-1.451-3.888-1.711c-0.811-0.276-1.52-0.362-2.124-0.259
		c0.743,1.331,1.21,2.263,1.399,2.799c0.311,0.881,0.232,1.382-0.233,1.503c-0.034,0.052-0.069,0.112-0.104,0.181
		c-3.022,5.252-8.396,9.233-16.117,11.946c-7.308,2.557-15.194,3.524-23.659,2.902c-8.655-0.64-15.816-2.816-21.482-6.53
		c-3.628-2.385-6.246-5.191-7.852-8.422c-1.192-2.384-1.84-4.984-1.943-7.8c-0.898-0.431-1.581-0.025-2.048,1.218
		c-0.466,1.244-0.44,2.635,0.078,4.173c0.018,0.052,0.035,0.094,0.052,0.129c-0.017,0-0.034-0.009-0.052-0.026
		c1.814,5.2,3.835,9.226,6.063,12.076c2.885,3.662,6.539,6.046,10.961,7.151l0.415,1.4l2.384,8.681
		c0.086,0.052,0.165,0.111,0.233,0.181c5.787,4.458,9.934,7.127,12.438,8.007c3.68,1.297,9.415,1.599,17.206,0.907
		c-0.104,13.562,2.272,24.635,7.126,33.221c1.607,2.902,2.402,4.621,2.385,5.157c-0.086,1.002-1.572,2.013-4.458,3.031
		c-0.224,0.069-0.449,0.13-0.674,0.183l-29.178-41.592c-1.227-1.624-2.418-3.169-3.576-4.638
		c-7.549-9.536-13.863-15.972-18.942-19.306c-2.177,0.483-3.714,1.339-4.612,2.565c-1.382,1.883-2.142,5.234-2.28,10.054
		c-0.329,12.249,2.625,24.843,8.862,37.781c3.61,7.515,9.743,18.382,18.398,32.6c0.691,1.262,0.613,2.332-0.233,3.212
		c-0.449,0.502-1.27,1.229-2.462,2.179c1.313,1.674,2.453,3.212,3.421,4.612c-1.141-1.469-4.656-6.012-10.547-13.63
		c-4.596-5.909-8.085-11.541-10.469-16.896c-4.75-10.659-8.361-21.438-10.832-32.339c-2.522-11.108-3.23-19.617-2.125-25.524
		c0.968-5.219,3.266-7.594,6.894-7.127c-0.726-0.881-1.331-1.771-1.814-2.669c-1.037-1.865-1.616-3.922-1.737-6.168
		c0.069-2.193,0.078-3.636,0.026-4.327c-0.276-3.11,0.449-7.022,2.177-11.739c2.073-5.614,5.122-10.789,9.147-15.521
		c8.188-9.605,18.865-15.704,32.029-18.295l11.92-1.347c0.864-0.035,1.736-0.061,2.617-0.079c1.469-0.017,2.92-0.008,4.354,0.027
		c2.436,0.034,4.793,0.129,7.074,0.285c0-0.034,0.009-0.061,0.026-0.078v-0.025l7.256,0.466c1.485,0.449,2.244,0.683,2.279,0.7
		c4.026,0.639,7.662,1.528,10.91,2.669c0.311,1.969,0.812,3.757,1.503,5.363c1.227,2.816,2.703,4.215,4.431,4.198
		c1.659-0.035,3.093-1.469,4.302-4.301c0.156,0.121,0.319,0.25,0.493,0.388c3.126,2.471,5.934,5.822,8.422,10.054
		c1.434,2.437,3.445,6.21,6.037,11.324c3.922,6.997,7.386,16.335,10.392,28.013c2.384,9.276,3.714,16.3,3.99,21.067
		c0.035,0.622,0.044,1.365,0.026,2.228c-0.087,0.174-0.165,0.347-0.234,0.52c0.034-1.105,0.026-2.03-0.025-2.772
		c-0.276-4.769-1.606-11.791-3.99-21.068c-2.988-11.695-6.452-21.041-10.392-28.038c-2.556-5.079-4.561-8.846-6.012-11.298
		c-2.487-4.233-5.312-7.593-8.474-10.081c4.94,9.259,7.092,17.31,6.452,24.151c-0.76,7.946-5.588,10.65-14.485,8.11
		c5.097,8.431,5.355,14.451,0.777,18.062c8.172-1.227,13.259,3.136,15.264,13.087c1.485,7.271,1.252,15.668-0.7,25.188
		l-7.178,61.311c1.918-0.761,3.576-1.797,4.975-3.11c2.194-1.951,4.268-4.438,6.22-7.462l-0.078,0.543
		c-1.865,2.8-3.834,5.122-5.907,6.972c-1.486,1.347-3.214,2.418-5.183,3.212l0.725,2.359c0.173,0.586,0.328,1.365,0.467,2.332
		c2.937,2.228,6.47,5.821,10.599,10.78c3.696,4.421,6.021,6.866,6.971,7.333c3.714,1.848,6.746,3.801,9.095,5.856
		c3.802,3.282,3.974,5.622,0.52,7.022c-2.834,1.176-6.643-0.26-11.429-4.303c-3.645-3.074-5.873-5.381-6.685-6.917
		c-4.233-7.256-7.541-10.746-9.926-10.47c-2.436,0.259-2.514,4.388-0.232,12.387c0.155,0.569,0.769,1.657,1.839,3.266
		c1.227,1.83,2.021,3.177,2.385,4.041c1.434,3.248-0.078,5.02-4.535,5.313c-4.889,0.311-7.523-1.399-7.903-5.131
		c-0.052-0.553-0.052-2.228,0-5.027c0.035-2.073-0.164-3.619-0.596-4.637c0.259-7.395-0.415-11.445-2.021-12.154
		c-1.676-0.743-4.38,1.936-8.111,8.032c0.346,0.277,0.165,1.235-0.543,2.878c-0.778,1.762-1.832,3.386-3.162,4.871
		c-3.818,4.232-7.904,5.122-12.257,2.669c-2.85-1.589-1.546-4.683,3.914-9.276c1.692-1.436,3.705-2.921,6.037-4.458l2.955-1.918
		c1.433-1.519,2.945-3.213,4.533-5.079C170.025,249.113,171.986,246.341,172.746,244.544z M34.421,251.021
		c3.49-1.227,7.446-2.116,11.869-2.668c2.591-0.328,6.539-0.7,11.842-1.115c-6.444-0.379-10.832-0.457-13.164-0.233
		C40.425,247.402,36.909,248.741,34.421,251.021z M244.033,129.489c3.922,1.019,6.013,5.744,6.271,14.175
		c0.276,8.637-1.495,18.622-5.313,29.956c-2.867,8.516-8.646,20.843-17.335,36.978c-8.275,15.462-13.476,26.759-15.601,33.895
		c7.412,3.455,15.66,5.77,24.747,6.944c4.475,0.588,11.868,1.027,22.182,1.321c6.357,0.156,11.324,0.778,14.9,1.867
		c2.729,0.827,6.288,2.573,10.676,5.233c0.674,0.414,1.27,0.821,1.788,1.218c-0.069,0.242-0.318,0.656-0.751,1.244
		c-0.381,0.535-0.657,0.881-0.829,1.036c-1.175,0.899-4.742,0.563-10.703-1.011l-8.524-2.644c0.12,0.07,2.979,1.374,8.576,3.913
		c3.491,1.625,6.151,3.016,7.982,4.174c2.884-1.037,4.646-1.824,5.286-2.359c1.036-0.847,1.191-1.814,0.466-2.902
		c0.795,1.037,0.787,1.952-0.025,2.747c-0.501,0.502-2.419,1.349-5.753,2.54c2.35,2.003,3.36,3.748,3.032,5.233
		c-0.415,1.693-2.799,2.151-7.152,1.374c-4.612-0.812-8.741-1.771-12.387-2.876c-4.423-1.349-8.56-3.04-12.412-5.08l-27.883-7.151
		c-0.034-0.053-0.068-0.104-0.104-0.155l13.526,3.473c-0.553-0.535-1.227-1.133-2.021-1.789c-1.59-1.278-2.955-2.116-4.095-2.513
		c-0.708-0.086-2.126-0.312-4.25-0.674c-1.728-0.259-2.972-0.397-3.731-0.415c-1.383-0.018-2.013,0.674-1.892,2.073
		c0.155,1.521,1.157,3.394,3.006,5.623c4.733,2.176,8.24,4.319,10.521,6.426c2.384,2.177,3.567,4.44,3.55,6.791
		c1.313-1.158,1.426-2.679,0.337-4.562c1.383,2.246,1.089,3.974-0.881,5.183c-3.369,2.107-7.014,2.219-10.936,0.337
		c-3.921-1.865-7.324-5.347-10.21-10.443c-1.329-2.385-5.536-6.22-12.619-11.506l-10.184-7.178c-0.774-0.381-1.423-0.804-1.943-1.27
		c0.505,0.433,1.127,0.83,1.865,1.192l3.965,2.721c5.615-7.619,11.125-20.834,16.532-39.646c2.92-10.711,5.122-18.788,6.608-24.229
		c2.694-9.727,5.104-17.631,7.229-23.711c3.628-10.814,4.544-20.635,2.747-29.463C236.873,130.672,240.786,128.643,244.033,129.489z
		 M107.886,155.636c-2.194-0.777-4.232-1.572-6.116-2.384c2.108,2.142,4.371,4.647,6.79,7.515
		C108.3,158.917,108.076,157.208,107.886,155.636z M97.184,252.603c-2.522,0.294-5.027,0.588-7.515,0.882
		C91.103,253.881,93.607,253.587,97.184,252.603z"/>
</g>
</svg>
