<?xml version="1.0" encoding="utf-8"?>
<!-- Generator: Adobe Illustrator 16.0.0, SVG Export Plug-In . SVG Version: 6.00 Build 0)  -->
<!DOCTYPE svg PUBLIC "-//W3C//DTD SVG 1.1//EN" "http://www.w3.org/Graphics/SVG/1.1/DTD/svg11.dtd">
<svg version="1.1" id="Layer_1" xmlns="http://www.w3.org/2000/svg" xmlns:xlink="http://www.w3.org/1999/xlink" x="0px" y="0px"
	 width="300px" height="300px" viewBox="0 0 300 300" enable-background="new 0 0 300 300" xml:space="preserve">
<g>
	<path fill="#371A25" d="M212.307,76.759c2.086,0.797,3.517,1.488,4.289,2.074c1.453,1.078,2.262,2.508,2.426,4.289
		c0.047,0.398-0.164,1.277-0.633,2.636c-0.469,1.359-0.926,2.401-1.371,3.128c0.164-3.14-0.539-5.894-2.108-8.261
		c0.327,0.797,0.608,1.758,0.844,2.883c0.375,1.758,0.397,3.164,0.07,4.218c-0.353-0.516-0.82-1.172-1.406-1.968
		c-0.517-0.774-1.008-1.688-1.478-2.742c-0.258-0.539-0.352-1.523-0.28-2.953c0.047-1.359-0.152-2.355-0.599-2.988
		c-0.164-0.211-0.397-0.469-0.703-0.773L212.307,76.759z M203.52,93.877c-0.516-0.023-0.879-0.012-1.09,0.035
		c0.258-0.07,0.586-0.223,0.984-0.457c1.969-1.125,3.422-1.781,4.359-1.969c1.85-0.375,3.524,0.141,5.024,1.547
		c0.445,0.305,0.854,1.207,1.229,2.707c0.398,1.547,0.48,2.719,0.246,3.515c-0.375-1.171-0.983-2.191-1.828-3.058
		c-0.655-0.68-1.395-1.218-2.215-1.617c-0.912-0.422-1.688-0.645-2.317-0.668c0.067,0.023,0.231,0.093,0.491,0.211
		c0.584,0.234,1.136,0.527,1.65,0.878c0.656,0.422,1.242,0.973,1.758,1.653c0.539,0.703,0.855,1.383,0.949,2.038
		c-0.609-0.304-1.301-0.585-2.074-0.844c-1.076-0.352-1.896-0.644-2.459-0.878c-0.375-0.14-1.092-0.703-2.145-1.687
		C205.172,94.393,204.316,93.924,203.52,93.877z M226.227,92.401c1.008-0.281,2.367-0.188,4.078,0.281
		c1.853,0.516,3.176,0.727,3.973,0.633c0.584-0.094,1.031-0.211,1.334-0.352c-0.233,0.117-0.606,0.386-1.122,0.808
		c-1.009,0.844-2.345,2.144-4.009,3.901c-1.547,1.336-3.198,2.016-4.957,2.039c-0.727-0.023-2.977-0.703-6.748-2.039
		c2.648-0.281,5.107-0.785,7.382-1.511c1.78-0.633,2.707-0.961,2.776-0.985c0.188-0.07-0.797,0.094-2.953,0.492
		c-2.578,0.398-4.582,0.527-6.01,0.387c1.053-0.891,1.863-1.534,2.424-1.933C223.357,93.491,224.633,92.917,226.227,92.401z
		 M227.844,121.682c-0.188,0.539-0.375,1.031-0.563,1.477c-0.281,0.727-0.563,1.324-0.844,1.793
		c0.022-0.609,0.012-1.207-0.035-1.793c-0.094-1.664-0.422-3.21-0.984-4.64c-0.773-1.477-1.148-2.238-1.125-2.285
		c-0.07-0.164,0.164,0.656,0.703,2.461c0.398,1.827,0.504,3.315,0.316,4.464c-0.047,0.211-0.095,0.41-0.142,0.598
		c-0.116-0.188-0.258-0.387-0.422-0.598c-0.306-0.445-0.656-0.938-1.054-1.477c-0.563-0.82-1.077-1.815-1.547-2.987
		c-0.282-0.68-0.328-1.781-0.143-3.305c0.211-1.499,0.176-2.602-0.105-3.304c-0.188-0.469-0.375-0.832-0.563-1.09
		c0.328,0.328,0.623,0.585,0.879,0.773c1.898,1.171,3.246,2.109,4.043,2.813c1.383,1.194,2.133,2.659,2.25,4.394
		C228.535,119.397,228.313,120.299,227.844,121.682z M205.418,105.758c1.453-0.397,2.764-0.233,3.936,0.493
		c0.26,0.117,0.75,0.656,1.478,1.616c0.633,0.797,1.194,1.57,1.688,2.32c-1.595-1.008-3.209-1.699-4.853-2.073
		c-0.842-0.211-1.533-0.317-2.071-0.317c0.491,0.142,1.147,0.363,1.969,0.668c1.686,0.68,2.881,1.383,3.584,2.109
		c-0.563,0.023-1.267,0.059-2.109,0.105c-0.795,0.023-1.709-0.082-2.74-0.316c-0.586-0.117-1.336-0.586-2.25-1.405
		c-0.914-0.798-1.676-1.254-2.285-1.371c-0.469-0.118-0.785-0.152-0.949-0.106l0.879-0.28
		C203.332,106.449,204.574,105.97,205.418,105.758z M202.605,120.241c0.422,0.913,0.785,1.769,1.09,2.565
		c-1.313-1.313-2.707-2.332-4.185-3.058c-0.75-0.375-1.383-0.621-1.897-0.738c2.344,1.312,3.902,2.613,4.676,3.901
		c-0.539-0.117-1.219-0.245-2.039-0.387c-0.773-0.164-1.629-0.469-2.566-0.913c-0.539-0.235-1.147-0.844-1.828-1.828
		c-0.68-0.984-1.299-1.594-1.86-1.828c-0.399-0.188-0.69-0.281-0.879-0.281l0.913-0.07c2.39-0.398,3.666-0.598,3.83-0.598
		c1.478-0.047,2.695,0.41,3.656,1.371C201.75,118.565,202.113,119.187,202.605,120.241z M205.805,122.736
		c2.32-1.922,4.299-4.194,5.939-6.819c1.641-2.578,2.859-5.354,3.656-8.33c1.43-5.063,1.979-11.073,1.651-18.033
		c0.375,4.944,0.328,9.35-0.141,13.217c-0.609,4.805-1.91,9.058-3.902,12.76c-1.43,2.742-3.396,5.284-5.903,7.628
		c-0.914,0.867-1.898,1.699-2.953,2.496c-2.978,2.272-6.82,4.534-11.529,6.784c-2.648,1.288-6.621,3.151-11.917,5.589
		c-0.046,0.023-0.093,0.047-0.142,0.07c-4.476,2.203-8.201,4.288-11.178,6.257c-2.859,1.827-5.46,3.854-7.804,6.081
		c-3.772,3.585-6.843,7.664-9.209,12.232c-2.25,4.241-3.973,8.857-5.168,13.85c1.336-2.391,2.777-4.627,4.323-6.713
		c0.863-1.168,3.178-2.216,6.941-3.146c-5.146,5.408-9.287,12.879-12.425,22.408c-0.539,1.642-1.02,3.293-1.441,4.957
		c0.585-1.172,0.855-1.887,0.808-2.145l1.23-1.652c1.008-1.287,2.391-2.693,4.148-4.218c0.329-0.397,0.668-0.772,1.02-1.125
		c1.664-1.641,3.573-3.187,5.729-4.64c1.03-1.078,2.004-2.59,2.918-4.535c0.422-0.891,0.797-1.675,1.125-2.354
		c0.772-1.57,1.276-2.556,1.512-2.953c1.523-2.555,3.353-4.84,5.483-6.854c2.227-2.108,4.64-3.772,7.24-4.991
		c5.086-2.203,8.847-3.938,11.283-5.201c4.289-2.181,7.396-4.793,9.314-7.839c-1.406,2.484-3.432,4.687-6.08,6.608
		c-1.758,1.265-4.336,2.754-7.732,4.464c-3.844,1.922-6.444,3.316-7.805,4.184c-2.719,1.733-4.793,3.633-6.222,5.694
		c-0.984,1.267-1.979,2.777-2.987,4.534c-0.586,1.078-1.441,2.719-2.566,4.922l-0.772,1.512c0.938-0.517,2.051-1.078,3.34-1.688
		l3.761-1.794c1.172-0.562,2.414-1.124,3.727-1.687c4.945-2.063,8.624-3.634,11.037-4.711c3.117-1.313,5.695-2.449,7.734-3.41
		l-0.142-0.176c-0.75-0.797-1.828-1.429-3.233-1.896c-1.359-0.446-2.25-0.938-2.673-1.479c-0.938-1.662-1.851-2.857-2.741-3.585
		c1.758,0.563,3.352,1.277,4.78,2.146c1.078,0.772,1.652,1.172,1.724,1.195c0.305,0.092-0.211-0.41-1.547-1.513
		c-1.406-1.125-2.625-1.944-3.656-2.461c1.453-0.117,2.25-0.163,2.391-0.14c0.914,0.068,1.992,0.504,3.234,1.3
		c0.867,0.68,1.418,1.688,1.652,3.022c0.116,0.75,0.245,1.815,0.387,3.198l0.035,0.281c8.014-3.702,14.377-7.616,19.086-11.74
		c3.75-3.211,6.879-7.065,9.387-11.565c0.094-0.163,0.188-0.339,0.281-0.527c2.481-4.593,4.135-9.49,4.955-14.692
		c-0.75,5.601-2.248,10.674-4.498,15.22c-1.031,2.063-2.215,4.008-3.552,5.836c-3.938,5.554-9.631,10.569-17.084,15.044
		c-4.102,2.483-10.1,5.53-17.997,9.14l1.934-0.141c1.758-0.094,3.504-0.164,5.238-0.211c4.43-0.023,7.756-0.06,9.981-0.105
		c3.867-0.094,7.185-0.328,9.946-0.701c4.898-0.563,9.445-1.971,13.64-4.22c4.453-2.392,8.039-5.496,10.758-9.313
		c-1.922,2.904-4.288,5.459-7.102,7.662c-2.834,2.227-5.904,3.938-9.209,5.131c-2.953,1.078-6.353,1.898-10.195,2.461
		c-2.317,0.353-5.752,0.703-10.299,1.056c-8.037,0.608-14.317,1.44-18.841,2.496c-2.483,0.585-4.862,1.3-7.137,2.144
		c2.695,0.258,5.742,0.668,9.142,1.23v1.688c-2.157-0.281-3.798-0.457-4.923-0.527c-4.803-0.328-8.975,0.188-12.514,1.547
		c-0.492,0.281-0.983,0.586-1.477,0.914c-0.164,0.094-0.328,0.199-0.492,0.316c-3.375,2.25-6.257,4.723-8.646,7.416
		c-2.273,3.164-4.136,7.02-5.589,11.564c-1.007,3.211-1.898,6.89-2.671,11.038l-0.527,2.952l0.141,4.395
		c0.352,7.311,1.792,13.709,4.324,19.191c1.968,4.313,5.542,9.75,10.72,16.312c1.195,1.523,2.298,3.386,3.306,5.589
		c0.586,1.289,1.487,3.34,2.707,6.151c-2.509,1.405-5.484,2.425-8.93,3.058c-2.625,0.492-5.835,0.786-9.632,0.879
		c-1.898,0.047-4.558-0.129-7.979-0.526c-4.007-0.517-7.03-0.88-9.069-1.089c-7.546-0.799-12.912-0.446-16.099,1.054
		c0.914-1.853,3.14-5.108,6.679-9.771c3.046-3.961,4.991-7.358,5.835-10.194c2.625-8.577,4.265-15.196,4.921-19.86
		c0.023-0.188,0.304-4.347,0.844-12.479c0.468-7.522,1.055-13.088,1.758-16.697v-0.034c-2.93-5.93-7.617-11.05-14.061-15.36
		c-0.164-0.117-0.328-0.224-0.492-0.316c-4.898-3.188-10.534-5.52-16.908-6.995c-4.523-1.056-10.803-1.888-18.841-2.496
		c-4.546-0.353-7.979-0.702-10.299-1.054c-3.843-0.563-7.241-1.383-10.194-2.461c-3.305-1.195-6.375-2.906-9.21-5.133
		c-2.812-2.203-5.179-4.758-7.101-7.662c2.719,3.818,6.304,6.924,10.756,9.313c4.195,2.25,8.741,3.656,13.639,4.22
		c2.765,0.375,6.081,0.608,9.948,0.703c2.226,0.045,5.554,0.081,9.983,0.104c1.734,0.047,3.48,0.116,5.238,0.211l1.933,0.141
		c-7.897-3.608-13.896-6.655-17.997-9.14c-7.453-4.477-13.146-9.49-17.084-15.045c-1.335-1.827-2.519-3.773-3.55-5.835
		c-2.25-4.546-3.749-9.62-4.499-15.221c0.82,5.203,2.473,10.101,4.957,14.693c0.093,0.188,0.188,0.363,0.281,0.527
		c2.508,4.499,5.636,8.354,9.386,11.564c4.71,4.125,11.072,8.037,19.086,11.739l0.036-0.28c0.14-1.383,0.27-2.449,0.387-3.199
		c0.234-1.336,0.785-2.344,1.652-3.022c1.242-0.796,2.32-1.229,3.234-1.3c0.14-0.023,0.937,0.023,2.39,0.141
		c-1.031,0.516-2.25,1.335-3.656,2.46c-1.335,1.103-1.851,1.605-1.546,1.513c0.07-0.023,0.644-0.422,1.722-1.194
		c1.429-0.867,3.023-1.582,4.781-2.146c-0.891,0.727-1.805,1.922-2.742,3.586c-0.421,0.539-1.313,1.03-2.671,1.477
		c-1.406,0.469-2.484,1.102-3.234,1.898l-0.14,0.176c2.039,0.961,4.617,2.097,7.733,3.408c2.413,1.078,6.092,2.648,11.037,4.711
		c4.382,1.897,8.015,3.655,10.896,5.271l-0.843-1.616c-1.125-2.202-1.981-3.844-2.566-4.921c-1.008-1.758-2.003-3.27-2.988-4.535
		c-1.43-2.062-3.503-3.96-6.222-5.693c-1.359-0.867-3.96-2.262-7.804-4.184c-3.398-1.711-5.976-3.199-7.733-4.464
		c-2.648-1.922-4.675-4.125-6.081-6.609c1.921,3.047,5.026,5.659,9.315,7.838c2.437,1.267,6.198,3,11.283,5.203
		c2.602,1.219,5.015,2.883,7.241,4.992c2.132,2.014,3.96,4.299,5.483,6.854c0.234,0.398,0.738,1.383,1.512,2.951
		c0.328,0.681,0.703,1.466,1.125,2.355c1.008,2.155,2.098,3.784,3.27,4.887c0.562,0.539,2.378,2.072,5.448,4.604
		c2.227,1.827,3.925,3.503,5.097,5.024l1.441,1.971c-0.07-0.118-0.141-0.271-0.211-0.458c-0.21-0.681-0.328-1.792-0.352-3.339
		c0.047-2.156,0.035-3.504-0.035-4.043c-0.985-8.062-3.176-15.291-6.574-21.688c-2.367-4.568-5.437-8.646-9.209-12.232
		c-2.343-2.227-4.944-4.253-7.804-6.082c-2.976-1.968-6.702-4.054-11.178-6.256c-0.047-0.023-0.094-0.048-0.141-0.071
		c-5.296-2.438-9.268-4.3-11.916-5.588c-4.71-2.25-8.554-4.512-11.529-6.785c-1.055-0.796-2.039-1.628-2.953-2.495
		c-2.508-2.344-4.477-4.887-5.906-7.629c-1.992-3.702-3.292-7.955-3.902-12.759c-0.469-3.867-0.516-8.272-0.141-13.217
		c-0.328,6.959,0.223,12.97,1.652,18.032c0.796,2.976,2.015,5.753,3.655,8.331c1.641,2.624,3.621,4.897,5.941,6.818
		c0.164,0.142,0.34,0.282,0.527,0.423c3.656,2.882,8.729,5.741,15.221,8.577c3.773,1.64,6.937,3.034,9.491,4.182
		c3.89,1.711,6.327,2.836,7.311,3.375c2.46,1.289,4.839,2.695,7.136,4.219c-3.492-2.461-6.62-6.632-9.385-12.515
		c-1.148-2.438-2.18-5.05-3.093-7.838c-0.727-2.156-1.383-4.417-1.968-6.784c-0.071-0.258-0.129-0.505-0.176-0.738
		c-0.516-2.156-0.985-4.5-1.406-7.03c-0.399,0.375-0.855,0.925-1.371,1.651c-0.469,0.703-0.738,1.091-0.809,1.16
		c-0.421,0.492-1.218,0.902-2.39,1.23c-1.359,0.375-2.368,0.785-3.023,1.23c-0.469,0.422-0.703,0.621-0.703,0.598
		c0.164-0.164,0.328-0.434,0.492-0.809c0.047-0.07,0.27-0.926,0.668-2.566c0.281-1.101,0.773-1.91,1.477-2.426
		c1.078-0.632,2.015-0.983,2.812-1.054c0.211-0.023,0.891,0.035,2.039,0.176c-0.891,0.398-1.945,1.09-3.164,2.073
		c-1.312,1.031-1.781,1.441-1.406,1.23c0.071,0,0.551-0.304,1.441-0.913c1.195-0.727,2.508-1.301,3.938-1.723
		c-0.585-3.608-1.089-7.968-1.512-13.076c-0.421-5.835-0.75-10.217-0.984-13.147c0.609,4.546,1.406,11.401,2.39,20.564
		c0.469,3.233,1.031,6.269,1.688,9.104c0.96,4.055,2.109,7.676,3.444,10.862c0.047,0.116,0.105,0.246,0.176,0.387
		c2.227,5.108,5.812,10.674,10.757,16.696c1.242,1.523,2.776,3.387,4.604,5.59c2.343,2.787,5.155,6.115,8.437,9.982
		c2.976,3.818,5.472,8.225,7.486,13.217c0.047-0.984,0.118-1.957,0.212-2.918c0.023-0.233,0.046-0.48,0.07-0.737
		c0-0.118,0.012-0.247,0.035-0.388c-1.594-14.482-3.937-27.829-7.03-40.037c-2.227-8.508-4.675-15.714-7.347-21.618
		c-1.992-4.195-3.867-7.453-5.625-9.772c-2.53-3.304-5.331-5.554-8.4-6.749c3.913,1.219,7.674,4.558,11.283,10.019
		c2.461,3.726,4.827,8.447,7.101,14.165c3.421,8.625,6.409,18.9,8.963,30.828c0.797,3.633,1.664,7.979,2.601,13.041
		c-0.234-1.453,0.035-3.633,0.809-6.537c0.96-3.281,1.558-5.53,1.792-6.75c0.96-5.109,1.746-9.854,2.355-14.236
		c0.797-5.601,0.585-11.119-0.632-16.557c-1.195-5.413-3.328-10.51-6.398-15.291c-1.57-2.507-3.948-5.893-7.135-10.159
		c-3.563-4.78-6.023-8.19-7.382-10.229c-5.742-8.413-8.776-16.228-9.104-23.445c0.469,5.272,2.343,10.721,5.625,16.345
		c2.015,3.421,5.437,8.167,10.264,14.236c1.688,2.132,4.218,5.319,7.593,9.561c2.789,3.726,5.015,7.159,6.679,10.3
		c0.75,1.43,1.465,3.034,2.145,4.815c0-3.141-0.071-5.753-0.211-7.838c-0.656-10.617-2.812-20.189-6.467-28.719
		c-3.75-8.858-9.257-16.896-16.521-24.114c5.015,4.687,9.327,9.913,12.935,15.677c3.726,5.976,6.526,12.245,8.401,18.806
		c3,10.17,4.23,21.735,3.691,34.694c0.07,1.078,0.023,2.038-0.141,2.882l-0.246,3.867c-0.656,7.851-1.968,17.423-3.937,28.718
		c-1.125,5.509-1.828,10.956-2.109,16.347l0.282,1.934c0.89-3.398,1.921-6.68,3.093-9.844c0.96-2.623,2.671-6.549,5.132-11.774
		c2.437-5.25,4.16-9.222,5.167-11.916c0.681-1.828,1.267-3.703,1.759-5.624c-0.305-0.258-0.608-0.445-0.914-0.563
		c-0.516-0.21-0.891-0.315-1.125-0.315l1.125-0.141c0.444-0.094,0.854-0.164,1.229-0.211c0.517-2.273,0.914-4.617,1.194-7.03
		c0.445-4.078,0.563-8.835,0.353-14.271c-0.071-2.272-0.353-7.124-0.844-14.552c-0.421-6.093-0.62-11.014-0.597-14.764
		c-0.049-11.061,1.662-20.728,5.131-29c-2.25,5.858-3.586,12.49-4.008,19.896c-0.328,5.765-0.117,12.583,0.633,20.458
		c0.281,3.187,0.762,7.92,1.441,14.202c0.516,5.554,0.784,10.299,0.809,14.235c0,2.297-0.094,4.781-0.281,7.452
		c-0.07,0.961-0.164,1.887-0.281,2.777c0.071-0.023,0.129-0.035,0.176-0.035c0.258,0,0.517,0.012,0.773,0.035
		c5.367-8.788,9.714-17.189,13.041-25.203c4.148-9.678,6.947-19.884,8.402-30.617c1.406-10.499,1.463-21.056,0.176-31.672
		c1.265,9.023,1.65,17.775,1.158,26.258c0.117,0.141,0.341,0.304,0.668,0.493c1.617,1.054,2.613,1.769,2.988,2.144
		c1.008,0.983,1.477,2.156,1.405,3.515c0,0.304-0.233,0.949-0.703,1.933c-0.491,1.007-0.938,1.769-1.336,2.285
		c0.259-1.64,0.212-3.187-0.14-4.64c-0.118-0.492-0.352-1.136-0.703-1.934c0.539,2.555,0.551,4.417,0.035,5.589
		c-0.234-0.445-0.539-1.007-0.914-1.687c-0.352-0.633-0.645-1.382-0.879-2.25c-0.164-0.469-0.141-1.254,0.07-2.355
		c0.188-1.031,0.164-1.816-0.07-2.355c-0.234-0.352-0.374-0.585-0.422-0.703c-0.375,5.999-1.184,11.858-2.426,17.576
		c-0.82,3.913-1.945,8.062-3.375,12.444h0.035c0.586-0.469,1.289-0.727,2.109-0.774c0.281-0.047,0.855,0.117,1.722,0.492
		c0.399,0.188,0.751,0.363,1.056,0.527c0.352,0.211,0.645,0.41,0.879,0.599c-0.305-0.048-0.598-0.083-0.879-0.106
		c-1.641-0.141-3.117,0.223-4.43,1.09c0.586-0.211,1.207-0.375,1.863-0.492c1.078-0.188,1.934-0.14,2.564,0.141
		c0.023,0.023,0.047,0.035,0.071,0.035c-0.024,0.001-0.048,0.013-0.071,0.036c-0.211,0.116-0.631,0.363-1.265,0.737
		c-0.516,0.305-1.077,0.586-1.688,0.844c-0.28,0.141-0.891,0.199-1.827,0.176c-0.539,0-0.984,0.07-1.337,0.211
		c-1.358,3.772-2.93,7.616-4.709,11.529c1.031-0.445,2.154-0.504,3.373-0.176c0.398,0.094,1.091,0.575,2.074,1.441
		c1.008,0.891,1.711,1.664,2.109,2.32c-2.555-1.43-5.074-1.758-7.559-0.984c0.772-0.07,1.688-0.023,2.742,0.141
		c1.569,0.234,2.707,0.703,3.409,1.406c-0.375,0.047-1.077,0.188-2.108,0.421c-0.844,0.212-1.723,0.352-2.637,0.423
		c-0.423,0.047-1.254-0.141-2.496-0.563c-0.328-0.117-0.621-0.199-0.879-0.246c-1.594,3.257-3.326,6.55-5.201,9.877
		c-0.563,0.961-1.103,1.887-1.617,2.777c0.211,0.117,0.422,0.258,0.633,0.422c0.398,0.258,0.762,0.586,1.09,0.983
		c0.352,0.329,0.727,1.242,1.125,2.742c0.398,1.523,0.574,2.73,0.527,3.62c-0.75-1.452-1.664-2.659-2.742-3.62
		c-0.398-0.374-0.832-0.714-1.301-1.02c-0.258-0.188-0.551-0.363-0.879-0.527c-0.07,0.118-0.142,0.234-0.211,0.352
		c0.328,0.234,0.655,0.504,0.983,0.81c0.563,0.515,1.031,1.019,1.406,1.511c0.539,0.727,0.879,1.418,1.021,2.074
		c-0.211-0.117-0.552-0.259-1.021-0.422c-0.353-0.141-0.772-0.305-1.267-0.492c-0.844-0.305-1.674-0.68-2.496-1.125
		c-1.265,2.132-2.318,3.902-3.162,5.309c-3.116,5.296-5.413,9.829-6.889,13.603c-1.477,3.681-2.602,6.655-3.375,8.93
		c-0.632,1.826-1.183,3.585-1.652,5.271c0.82-1.57,1.722-3.162,2.706-4.779c0.094,0.961,0.164,1.934,0.211,2.916
		c2.015-4.99,4.511-9.396,7.488-13.217c3.28-3.865,6.092-7.194,8.437-9.981c1.827-2.203,3.362-4.066,4.604-5.59
		c4.943-6.022,8.529-11.587,10.756-16.696c0.07-0.141,0.129-0.27,0.176-0.387c1.337-3.187,2.484-6.807,3.445-10.861
		c0.655-2.836,1.219-5.87,1.688-9.104c0.982-9.162,1.779-16.017,2.391-20.563c-0.234,2.929-0.563,7.311-0.984,13.146
		c-0.422,5.109-0.926,9.468-1.512,13.076c1.43,0.422,2.741,0.997,3.938,1.723c0.891,0.609,1.371,0.914,1.441,0.914
		c0.375,0.211-0.095-0.199-1.406-1.23c-1.219-0.984-2.273-1.676-3.163-2.074c1.147-0.141,1.827-0.198,2.038-0.176
		c0.797,0.07,1.734,0.422,2.813,1.055c0.703,0.516,1.195,1.324,1.477,2.426c0.398,1.641,0.621,2.496,0.668,2.565
		c0.164,0.375,0.328,0.645,0.492,0.809c0,0.023-0.233-0.176-0.703-0.597c-0.655-0.445-1.664-0.854-3.022-1.229
		c-1.172-0.328-1.969-0.738-2.39-1.23c-0.071-0.07-0.34-0.457-0.811-1.16c-0.516-0.727-0.972-1.277-1.369-1.651
		c-0.422,2.53-0.892,4.873-1.406,7.03c-0.047,0.233-0.104,0.479-0.176,0.737c-0.586,2.367-1.242,4.628-1.969,6.784
		c-0.914,2.789-1.945,5.401-3.094,7.839c-2.766,5.882-5.895,10.053-9.385,12.514c2.296-1.523,4.675-2.93,7.135-4.218
		c0.984-0.539,3.422-1.664,7.313-3.375c2.555-1.147,5.717-2.543,9.49-4.183c6.49-2.836,11.564-5.694,15.221-8.577
		C205.465,123.018,205.641,122.877,205.805,122.736z M212.729,123.158c0.353,0.094,0.539,0.141,0.563,0.141
		c0.797,0.305,1.688,0.902,2.672,1.793c0.656,0.633,1.078,1.594,1.267,2.883c0.258,1.64,0.457,2.612,0.598,2.917
		c0.188,0.469,0.352,0.773,0.492,0.914l-0.773-0.668c-0.516-0.375-1.676-0.938-3.48-1.688c-1.313-0.539-2.227-1.23-2.741-2.074
		c-0.022-0.023-0.246-0.644-0.668-1.862c-0.375-1.031-0.688-1.816-0.949-2.355c-0.045-0.07-0.082-0.141-0.104-0.211
		c0.094,0.07,0.176,0.141,0.246,0.211c1.289,1.031,2.555,2.098,3.797,3.199c1.031,0.914,1.559,1.383,1.582,1.406
		c0.164,0.116-1.125-1.419-3.867-4.605c-0.094-0.117-0.199-0.246-0.316-0.387C211.791,122.936,212.354,123.064,212.729,123.158z
		 M221.834,145.163c0.281,0.188,0.619,0.363,1.018,0.527c2.672,1.102,4.207,1.77,4.605,2.004c1.617,1.03,2.566,2.495,2.848,4.394
		c0.094,0.469-0.094,1.43-0.563,2.882c-0.469,1.523-0.961,2.648-1.477,3.375c0.188-2.227-0.117-4.254-0.914-6.081
		c-0.234-0.516-0.75-1.359-1.547-2.531c0.469,0.984,0.844,1.992,1.125,3.023c0.469,1.805,0.504,3.245,0.104,4.323
		c-0.211-0.328-0.703-1.009-1.478-2.038c-0.608-0.798-1.172-1.688-1.688-2.672c-0.305-0.563-0.48-1.605-0.525-3.129
		c-0.023-1.453-0.271-2.519-0.74-3.198C222.418,145.784,222.162,145.491,221.834,145.163z M209.248,133.703
		c-0.279,0.212-0.631,0.527-1.055,0.95c-0.748,0.844-1.439,1.909-2.072,3.198c-0.75,1.594-1.219,2.554-1.406,2.882
		c0,0.048-0.012,0.083-0.035,0.106c0.305,0.328,0.527,0.538,0.668,0.633c1.711,1.405,2.766,2.354,3.162,2.847
		c1.008,1.289,1.348,2.729,1.02,4.323c-0.045,0.375-0.469,1.078-1.264,2.109c-0.774,1.056-1.465,1.815-2.074,2.284
		c1.146-2.624,1.287-5.144,0.42-7.557c0.097,0.866,0.107,1.77,0.037,2.707c-0.141,1.593-0.516,2.765-1.125,3.515
		c-0.069-0.259-0.27-0.949-0.598-2.074c-0.258-0.796-0.457-1.664-0.598-2.602c-0.094-0.516,0.059-1.382,0.457-2.601
		c0.375-1.148,0.457-2.062,0.246-2.741c-0.07-0.234-0.188-0.516-0.352-0.844c-0.517,0.89-1.207,1.593-2.074,2.108
		c-0.188,0.094-1.031,0.422-2.531,0.984c-1.594,0.609-2.764,1.137-3.516,1.582c1.219-1.664,2.473-3.258,3.762-4.781
		c0.305-0.328,0.598-0.655,0.879-0.983c1.266-1.359,1.922-2.086,1.969-2.18c0.234-0.281-0.551,0.34-2.355,1.863
		c-0.539,0.444-1.055,0.879-1.547,1.3c-1.195,1.055-2.203,1.98-3.022,2.777c0.258-1.358,0.434-2.285,0.526-2.777
		c0.07-0.233,0.105-0.375,0.105-0.421c0.398-1.172,1.242-2.461,2.531-3.867c0.961-0.937,2.367-1.499,4.219-1.688
		c2.555-0.257,3.973-0.433,4.254-0.527C208.346,134.114,208.805,133.938,209.248,133.703z M213.15,158.1
		c0.656-1.078,0.961-1.97,0.914-2.673c-0.117-0.655-0.188-0.995-0.211-1.02l0.563,0.879c1.313,1.758,2.133,2.965,2.461,3.621
		c0.68,1.476,0.762,2.917,0.246,4.323c-0.211,0.516-1.359,1.922-3.445,4.218c0.633-1.944,0.996-3.819,1.09-5.624
		c-0.022-1.452-0.035-2.215-0.035-2.285c-0.069,0.703-0.223,1.582-0.457,2.637c-0.375,1.734-0.832,3.047-1.371,3.938
		c-0.305-1.009-0.516-1.771-0.633-2.285c-0.164-0.845-0.223-1.863-0.176-3.06C212.119,160.139,212.471,159.247,213.15,158.1z
		 M249.777,141.297c-0.092,0.468-0.142,1.007-0.142,1.616c-0.067,3.352-0.34,5.777-0.807,7.276c-0.82,2.67-2.461,4.569-4.922,5.695
		c-0.539,0.257-1.888,0.421-4.044,0.491c-2.108,0.07-3.842,0.014-5.2-0.176c3.114-1.102,5.774-2.624,7.979-4.569
		c1.125-0.961,2.039-1.957,2.741-2.988c-0.961,0.867-2.19,1.77-3.69,2.708c-2.367,1.498-4.406,2.332-6.117,2.496
		c0.938-1.431,1.652-2.484,2.145-3.164c0.82-1.173,1.887-2.379,3.199-3.622c0.633-0.632,2.004-1.276,4.113-1.933
		c1.945-0.633,3.27-1.43,3.973-2.391C249.357,142.176,249.613,141.694,249.777,141.297z M237.861,137.359
		c-0.938-0.094-2.412,0.012-4.428,0.316c-1.595,0.234-2.813,0.164-3.656-0.211c-1.103-0.703-1.688-1.066-1.758-1.09
		c-1.103-0.633-2.039-0.996-2.813-1.09c2.017-0.444,4.008-0.563,5.978-0.352c1.522,0.305,2.317,0.434,2.391,0.388
		c0.631,0.046-0.164-0.212-2.391-0.774c-2.063-0.516-3.763-0.737-5.099-0.668c1.194-0.796,2.017-1.276,2.461-1.44
		c1.031-0.352,2.379-0.422,4.043-0.211c1.125,0.234,2.166,0.937,3.127,2.109c1.313,1.593,2.074,2.472,2.285,2.636
		c0.422,0.328,0.737,0.539,0.949,0.633C238.693,137.512,238.33,137.43,237.861,137.359z M233.434,164.496
		c0.867,0.539,1.746,1.465,2.635,2.775c0.539,0.893,0.738,2.074,0.599,3.552c-0.188,1.78-0.224,2.905-0.104,3.375
		c0.119,0.516,0.233,0.891,0.352,1.124c-0.188-0.28-0.422-0.573-0.701-0.879c-0.375-0.375-1.547-1.313-3.516-2.813
		c-1.313-0.984-2.133-2.004-2.461-3.058c-0.188-2.367-0.516-4.113-0.984-5.238c1.406,1.5,2.684,3.069,3.832,4.711
		c0.539,0.796,0.996,1.464,1.371,2.003c-1.242-2.765-2.426-4.99-3.551-6.679C232.332,163.957,233.174,164.332,233.434,164.496z
		 M219.197,174.9c-0.258-1.289-0.504-2.237-0.738-2.848c1.313,1.358,2.578,2.754,3.795,4.184l1.443,1.723
		c0.162,0.211-0.236-0.445-1.195-1.969c-0.986-1.57-1.83-2.883-2.531-3.938c1.404,0.516,2.191,0.809,2.355,0.879
		c0.82,0.445,1.686,1.219,2.6,2.32c0.586,0.749,0.879,1.814,0.879,3.198c0.023,1.688,0.105,2.741,0.246,3.163
		c0.141,0.47,0.281,0.81,0.422,1.02c-0.117-0.164-0.363-0.422-0.738-0.773c-0.397-0.352-1.569-1.102-3.516-2.248
		c-1.311-0.773-2.166-1.664-2.564-2.672C219.631,176.869,219.479,176.189,219.197,174.9z M204.223,176.098
		c0.68-1.104,1.137-1.923,1.371-2.462c-0.023,1.64-0.082,3.444-0.176,5.413c-0.047,1.359-0.059,2.073-0.035,2.145
		c0.492-2.647,0.914-4.827,1.266-6.539c0.634,1.359,0.974,2.074,1.019,2.146c0.283,0.845,0.39,1.935,0.315,3.271
		c-0.067,0.865-0.537,1.805-1.403,2.812c-1.009,1.173-1.595,1.979-1.759,2.427c-0.188,0.469-0.28,0.795-0.28,0.983l-0.069-0.983
		c-0.023-0.117-0.423-1.396-1.195-3.832c-0.445-1.384-0.48-2.59-0.105-3.621C203.215,177.736,203.566,177.15,204.223,176.098z
		 M188.158,63.718c1.547,0.188,2.707,0.937,3.48,2.25c0.538,0.891,0.926,2.121,1.159,3.691c0.021,0.23,0.082,0.494,0.177,0.791
		c-0.058-0.161-0.222-0.378-0.492-0.65c-0.445-0.469-1.172-0.738-2.181-0.809c-1.147-0.07-1.887-0.199-2.215-0.386
		c-0.728-0.352-1.396-0.738-2.004-1.161c-0.819-0.539-1.358-0.89-1.617-1.054c0.82-0.352,1.91-0.375,3.271-0.07
		c0.914,0.211,1.676,0.48,2.285,0.809c-0.517-0.469-1.16-0.855-1.935-1.161c-1.383-0.562-2.918-0.714-4.604-0.457
		c0.539-0.421,1.371-0.843,2.496-1.265C187.08,63.847,187.807,63.671,188.158,63.718z M157.506,93.209
		c0.563-0.492,1.465-0.984,2.707-1.476c1.219-0.492,2.039-0.703,2.461-0.633c1.734,0.164,3.035,0.961,3.902,2.391
		c0.585,0.89,1.041,2.237,1.369,4.042c0.07,0.3,0.152,0.598,0.246,0.896c-0.058-0.163-0.244-0.403-0.562-0.72
		c-0.517-0.492-1.336-0.773-2.461-0.844c-1.289-0.047-2.108-0.164-2.461-0.351c-0.772-0.375-1.522-0.797-2.25-1.266
		c-0.797-0.516-1.396-0.879-1.793-1.09c0.892-0.445,2.099-0.504,3.621-0.176c0.961,0.188,1.805,0.458,2.53,0.809
		C162.779,93.221,160.342,92.694,157.506,93.209z M163.764,86.285c0.633,0.023,1.758-0.223,3.375-0.739
		c1.43-0.468,2.588-0.585,3.479-0.352c1.383,0.422,2.472,0.915,3.269,1.477c0.492,0.329,1.172,0.879,2.039,1.652
		c-1.195,0.071-2.883-0.058-5.063-0.386c-1.805-0.305-2.624-0.434-2.461-0.387c0.07,0.023,0.845,0.293,2.32,0.808
		c1.897,0.586,3.948,1.031,6.151,1.336c-3.397,1.055-5.272,1.594-5.625,1.617c-1.383,0.023-2.729-0.516-4.042-1.617
		c-1.452-1.383-2.646-2.378-3.585-2.988c-0.47-0.281-0.82-0.457-1.056-0.527C162.85,86.25,163.248,86.285,163.764,86.285z
		 M145.731,91.101c0.141-1.101,0.562-1.945,1.265-2.531c1.031-0.703,1.922-1.09,2.671-1.16c0.211-0.023,0.879,0.035,2.004,0.176
		c-0.844,0.352-1.852,1.031-3.023,2.039c-1.617,1.406-2.039,1.816-1.266,1.23c0.07,0,0.54-0.328,1.406-0.984
		c1.172-0.773,2.474-1.359,3.903-1.757c-0.703,0.539-1.453,1.5-2.25,2.882c-0.329,0.446-1.031,0.867-2.109,1.266
		c-1.172,0.468-2.063,0.984-2.671,1.546c-0.375,0.469-0.563,0.691-0.563,0.668c0.118-0.164,0.223-0.445,0.316-0.844
		C145.555,92.53,145.661,91.686,145.731,91.101z M143.797,74.72c1.43-0.727,2.742-0.95,3.937-0.668
		c1.57,0.469,2.766,1.043,3.586,1.723c0.469,0.421,1.09,1.101,1.861,2.038c-1.476-0.304-3.199-0.621-5.167-0.949
		c-1.945-0.328-2.8-0.434-2.566-0.316c0.094,0.023,0.902,0.258,2.426,0.703c1.898,0.609,3.891,1.324,5.977,2.144
		c-0.728,0.023-1.815,0.164-3.27,0.422l-2.321,0.421c-1.031,0.023-2.261-0.445-3.691-1.406c-1.593-1.054-2.988-1.675-4.182-1.862
		c-0.633-0.023-1.055-0.013-1.266,0.035c0.375-0.094,0.797-0.258,1.266-0.492C141.138,76.231,142.274,75.634,143.797,74.72z
		 M150.582,68.006c-0.282-0.094-0.633-0.152-1.055-0.176c-0.797-0.047-1.734,0.328-2.812,1.125
		c-1.195,0.844-2.074,1.313-2.636,1.406c-1.172,0.211-2.227,0.316-3.164,0.316c-1.031-0.047-1.875-0.071-2.531-0.071
		c0.726-0.843,1.957-1.617,3.69-2.32c1.102-0.469,2.063-0.785,2.883-0.949c-2.742,0-5.484,0.96-8.225,2.882
		c0.421-0.796,1.066-1.758,1.933-2.882c0.867-1.148,1.476-1.816,1.828-2.004c1.593-0.914,3.27-1.055,5.027-0.421
		c1.078,0.375,2.46,1.207,4.147,2.496C149.996,67.667,150.3,67.866,150.582,68.006z M159.193,76.513
		c0.867-0.656,2.19-0.937,3.973-0.844c1.148,0.071,2.156,0.247,3.021,0.527c-0.68-0.398-1.416-0.703-2.213-0.914
		c-2.345-0.586-4.441-0.398-6.293,0.562c0.422-0.726,1.336-1.511,2.741-2.355c1.313-0.797,2.216-1.172,2.707-1.125
		c1.875-0.07,3.433,0.575,4.677,1.933c0.209,0.211,1.101,1.535,2.67,3.973c0.254,0.415,0.477,0.719,0.668,0.914
		c-0.15-0.146-0.467-0.345-0.949-0.597c-0.728-0.328-1.78-0.387-3.163-0.176c-1.429,0.211-2.427,0.222-2.987,0.035
		c-0.938-0.282-1.852-0.633-2.742-1.055C160.389,76.97,159.686,76.677,159.193,76.513z M168.932,68.955l-0.703-0.633
		c0.047,0.023,0.34,0.129,0.879,0.316c0.516,0.141,1.429,0.094,2.74-0.141c1.219-0.211,2.18-0.164,2.883,0.141
		c1.148,0.516,2.017,1.066,2.603,1.653c0.188,0.163,0.655,0.761,1.405,1.792c-4.313-1.266-6.352-1.852-6.116-1.758
		c0.022,0.047,0.646,0.352,1.862,0.914c1.781,0.82,3.341,1.559,4.676,2.215c-0.585-0.047-1.487-0.023-2.706,0.07
		c-1.22,0.118-1.863,0.176-1.935,0.176c-1.102-0.141-2.133-0.727-3.094-1.757C170.371,70.607,169.54,69.612,168.932,68.955z
		 M158.982,60.167c0.328-0.703,1.137-1.464,2.426-2.285c1.195-0.773,2.027-1.125,2.496-1.055c1.779-0.023,3.211,0.585,4.287,1.828
		c0.633,0.727,1.465,1.921,2.496,3.586c0.375,0.421,0.621,0.68,0.737,0.773c-0.28-0.188-0.608-0.34-0.983-0.457
		c-0.68-0.258-1.676-0.305-2.986-0.141c-1.336,0.164-2.262,0.152-2.777-0.035c-0.703-0.235-1.488-0.563-2.354-0.984
		c-0.703-0.328-1.349-0.563-1.935-0.703c0.75-0.68,1.935-0.961,3.551-0.844c0.961,0.047,1.875,0.211,2.742,0.492
		c-0.914-0.469-1.582-0.761-2.004-0.879C162.568,58.879,160.67,59.113,158.982,60.167z M145.872,59.922
		c-1.008-1.875-1.828-3.293-2.46-4.254c-0.094-0.164-0.282-0.433-0.563-0.808c-0.445,0.304-1.043,1.02-1.793,2.144
		c-0.679,1.031-1.335,1.699-1.968,2.003c-1.172,0.586-2.226,0.973-3.164,1.16c-1.031,0.141-1.875,0.246-2.53,0.316
		c1.125-1.383,3.034-2.917,5.729-4.604c-2.179,0.726-4.628,2.167-7.346,4.323c0.281-0.516,0.773-1.488,1.476-2.917
		c0.633-1.195,1.055-1.898,1.266-2.109c1.102-1.078,2.508-1.629,4.218-1.652c0.61,0,2.145,0.199,4.605,0.598
		c0.558,0.093,0.91,0.116,1.055,0.07c-0.609,0.21-0.949,0.328-1.019,0.352l-0.492,0.281c0.164,0.164,0.445,0.328,0.844,0.492
		c0.609,0.305,1.757,0.445,3.444,0.422c1.57,0,2.777,0.269,3.621,0.808c1.335,0.961,2.297,1.91,2.882,2.848
		c0.282,0.445,0.669,1.37,1.16,2.776c-1.125-0.796-2.707-1.722-4.745-2.776l-2.356-1.23l2.074,1.582
		c0.422,0.328,1.184,0.89,2.286,1.687c1.008,0.797,1.897,1.64,2.67,2.531c-0.701-0.351-1.769-0.633-3.197-0.844
		c-1.358-0.141-2.132-0.246-2.319-0.316C147.98,62.382,146.855,61.421,145.872,59.922z M168.297,41.256l1.055-0.07
		c-0.256,0.093-0.572,0.258-0.947,0.492c-0.656,0.445-1.207,1.3-1.651,2.565c-0.492,1.383-0.938,2.273-1.336,2.672
		c-0.797,0.796-1.569,1.464-2.319,2.003c-0.82,0.563-1.488,1.043-2.005,1.441c0-1.102,0.479-2.426,1.441-3.972
		c0.655-1.031,1.276-1.84,1.862-2.426c-2.367,1.64-3.973,4.007-4.815,7.101c-0.211-0.844-0.306-1.992-0.281-3.445
		c0-1.453,0.104-2.367,0.316-2.742c0.797-1.688,2.086-2.766,3.866-3.234C164.396,41.385,166.001,41.256,168.297,41.256z
		 M174.977,58.41c-1.008-0.118-2.051-0.703-3.129-1.758c-1.289-1.242-2.379-2.051-3.269-2.425c-0.53-0.185-0.882-0.278-1.056-0.281
		c0.332,0,0.719-0.036,1.16-0.105c0.681-0.093,1.746-0.398,3.198-0.914c1.336-0.375,2.461-0.375,3.375,0
		c1.242,0.585,2.181,1.207,2.813,1.862c0.375,0.375,0.867,0.996,1.476,1.863c-0.983-0.211-2.448-0.621-4.394-1.23
		c-1.547-0.469-2.273-0.68-2.18-0.633c0.069,0.023,0.737,0.352,2.004,0.984c1.664,0.796,3.375,1.559,5.133,2.285
		C177.039,58.316,175.328,58.433,174.977,58.41z M182.991,50.922c0.022-0.96,0.315-2.226,0.878-3.796
		c0.539-1.523,0.996-2.437,1.371-2.742c1.5-1.57,3.352-2.179,5.555-1.827c1.992,0.328,3.527,1.218,4.605,2.671
		c0.252,0.436,0.438,0.716,0.563,0.844c-0.172-0.167-0.439-0.319-0.811-0.458c-0.795-0.141-1.627,0.234-2.494,1.125
		c-1.078,1.148-1.828,1.804-2.25,1.968c-1.031,0.469-2.051,0.855-3.059,1.16c-1.453,0.422-2.298,0.68-2.531,0.773
		c0.352-1.172,1.301-2.355,2.848-3.55c1.031-0.821,1.98-1.418,2.848-1.793c-0.984,0.188-1.969,0.551-2.953,1.09
		C185.779,47.42,184.256,48.931,182.991,50.922z M176.242,32.398c1.359,1.453,2.262,2.777,2.707,3.973
		c0.023,0.046,0.293,1.16,0.809,3.339c-5.484-4.687-7.969-6.726-7.453-6.117c0.023,0.023,0.715,0.796,2.074,2.32
		c1.758,1.922,3.469,3.89,5.133,5.906c-0.797-0.422-2.063-0.926-3.797-1.512c-1.734-0.61-2.648-0.937-2.742-0.984
		c-1.266-0.703-2.318-2.015-3.164-3.938c-1.123-2.554-2.024-4.253-2.705-5.097c-0.375-0.445-0.715-0.786-1.02-1.02
		c0.232,0.164,0.691,0.363,1.371,0.598c0.421,0.163,1.908,0.41,4.463,0.738C173.816,30.84,175.258,31.437,176.242,32.398z
		 M195.963,84.773l-0.879,0.21c-0.563,0.188-1.5,0.715-2.813,1.582c-0.984,0.656-1.875,0.973-2.672,0.95
		c-0.048,0-0.586-0.118-1.617-0.352c-1.008-0.211-1.771-0.34-2.285-0.387c1.43-0.492,2.848-0.938,4.254-1.335
		c1.078-0.282,1.641-0.434,1.688-0.458c0.164-0.046-0.434,0.012-1.793,0.176c-1.406,0.188-2.613,0.363-3.621,0.527
		c0.867-0.867,1.324-1.324,1.371-1.371c0.586-0.445,1.418-0.808,2.496-1.089c0.773-0.164,1.652-0.012,2.637,0.457
		c1.267,0.609,2.039,0.938,2.32,0.984L195.963,84.773z M191.814,94.158c1.031,0.422,1.828,1.243,2.391,2.461
		c0.516,1.429,0.936,2.414,1.264,2.953c0.023,0.071,0.223,0.375,0.598,0.914c-0.162-0.163-0.442-0.375-0.842-0.632
		c-0.938-0.516-2.156-0.821-3.656-0.914c-1.383-0.094-2.344-0.328-2.883-0.703c-1.313-1.313-2.531-2.145-3.654-2.496
		c1.826-0.093,3.55,0.083,5.167,0.527c1.266,0.492,1.934,0.726,2.004,0.703c0.608,0.141-0.035-0.199-1.935-1.019
		c-1.688-0.75-3.104-1.172-4.254-1.266c1.172-0.539,1.922-0.843,2.25-0.914C189.178,93.584,190.361,93.713,191.814,94.158z
		 M127.276,136.234c-0.773,0.305-1.57,1.043-2.391,2.215c-0.866,1.266-1.569,2.039-2.109,2.32c-0.96,0.539-1.921,0.983-2.882,1.335
		c-0.492,0.188-0.914,0.352-1.265,0.492c-0.469,0.164-0.809,0.305-1.02,0.422c0.141-0.655,0.48-1.347,1.02-2.073
		c0.375-0.492,0.844-0.996,1.406-1.512c0.82-0.75,1.663-1.383,2.53-1.898c-1.078,0.375-1.957,0.797-2.636,1.266
		c-0.469,0.305-0.902,0.646-1.3,1.021c-1.078,0.961-1.992,2.167-2.742,3.62c-0.046-0.891,0.129-2.097,0.527-3.62
		c0.399-1.5,0.774-2.414,1.125-2.742c0.328-0.398,0.69-0.726,1.089-0.984c1.055-0.796,2.285-1.184,3.691-1.16
		c0.445,0,2.097,0.281,4.956,0.844l1.125,0.141C128.167,135.918,127.792,136.024,127.276,136.234z M110.65,161.438
		c0.141-1.101,0.316-1.791,0.527-2.073c0.821-1.241,1.981-1.897,3.48-1.968c1.313-0.047,2.46,0.315,3.445,1.09
		c0.093,0.117,0.246,0.281,0.457,0.492c-0.188-0.095-0.375-0.152-0.562-0.177c-0.539,0.023-1.031,0.409-1.476,1.16
		c-0.586,0.914-1.008,1.452-1.266,1.616c-0.633,0.445-1.266,0.844-1.898,1.195c-0.821,0.422-1.348,0.715-1.582,0.879
		c0.07-0.82,0.527-1.734,1.371-2.742c0.539-0.633,1.101-1.172,1.687-1.616c-0.656,0.258-1.266,0.646-1.828,1.16
		c-1.078,0.938-1.875,2.155-2.391,3.655C110.474,163.477,110.486,162.586,110.65,161.438z M94.762,153.67
		c-0.164-0.962-0.199-1.57-0.106-1.828c0.305-1.172,1.008-2.039,2.109-2.602c0.68-0.352,1.722-0.633,3.128-0.844
		c0.352-0.046,0.598-0.105,0.738-0.176c-0.164,0.094-0.375,0.246-0.632,0.458c-0.375,0.352-0.622,0.972-0.738,1.862
		c-0.141,0.961-0.316,1.594-0.527,1.897c-0.422,0.656-0.855,1.207-1.301,1.651c-0.492,0.492-0.891,0.892-1.195,1.195
		c-0.164-1.173,0.316-2.718,1.442-4.64c-1.313,1.313-2.098,3.068-2.356,5.271C95.113,155.357,94.926,154.605,94.762,153.67z
		 M91.633,144.319c0.094-0.117,0.188-0.246,0.282-0.387c1.055-1.219,2.227-2.367,3.515-3.444c-0.282,0.538-0.563,1.336-0.844,2.39
		c-0.118,0.469-0.223,0.949-0.316,1.441c-0.023,0.094-0.047,0.188-0.07,0.281c-0.328,0.773-1.042,1.512-2.144,2.215
		c-1.429,0.937-2.391,1.675-2.883,2.215l-0.562,0.808c0.117-0.211,0.21-0.539,0.281-0.983c0.047-0.235,0.035-1.184-0.036-2.849
		c-0.023-0.632,0.036-1.194,0.176-1.687c0.117-0.469,0.305-0.879,0.563-1.23c0.82-1.008,1.605-1.699,2.355-2.074
		c0.188-0.093,0.902-0.316,2.144-0.668c-0.68,0.798-1.476,1.922-2.39,3.375c-0.141,0.211-0.27,0.41-0.387,0.598
		c-0.68,1.078-0.89,1.453-0.632,1.125C90.754,145.421,91.071,145.046,91.633,144.319z M89.348,129.767
		c-0.21-1.195-0.257-1.968-0.141-2.319c0.071-0.234,0.152-0.47,0.247-0.703c0.469-1.125,1.277-1.969,2.425-2.531
		c0.82-0.398,2.132-0.738,3.937-1.02l0.878-0.176c-0.164,0.047-0.41,0.223-0.738,0.527c-0.492,0.445-0.82,1.219-0.985,2.32
		c-0.046,0.328-0.093,0.62-0.141,0.879c-0.14,0.727-0.316,1.23-0.527,1.511c-0.515,0.773-1.054,1.453-1.617,2.039
		c-0.585,0.586-1.066,1.078-1.441,1.477c-0.141-0.938,0.07-2.109,0.633-3.516c0.211-0.563,0.433-1.066,0.667-1.511
		c0.141-0.281,0.293-0.539,0.457-0.774c-0.234,0.259-0.457,0.516-0.668,0.774c-1.265,1.57-2.003,3.515-2.214,5.835
		C89.817,131.923,89.559,130.985,89.348,129.767z M86.185,121.189l0.914,0.071c-0.188,0-0.48,0.093-0.879,0.28
		c-0.563,0.234-1.183,0.844-1.863,1.828c-0.68,0.984-1.289,1.594-1.828,1.828c-0.937,0.444-1.792,0.75-2.565,0.914
		c-0.821,0.141-1.5,0.27-2.039,0.386c0.773-1.288,2.332-2.589,4.675-3.901c-0.516,0.117-1.149,0.363-1.898,0.738
		c-1.476,0.727-2.871,1.746-4.183,3.059c0.305-0.797,0.668-1.652,1.089-2.566c0.493-1.055,0.855-1.675,1.09-1.862
		c0.96-0.962,2.179-1.419,3.655-1.371C82.517,120.593,83.795,120.792,86.185,121.189z M88.399,97.744
		c1.453-0.445,2.636-0.575,3.55-0.386c0.328,0.07,1.078,0.375,2.25,0.914c-1.148,0.093-2.566,0.516-4.253,1.265
		c-1.898,0.821-2.543,1.161-1.934,1.02c0.07,0.023,0.738-0.211,2.003-0.703c1.617-0.446,3.339-0.622,5.167-0.527
		c-1.125,0.352-2.343,1.183-3.655,2.495c-0.54,0.375-1.5,0.61-2.883,0.703c-1.499,0.094-2.718,0.398-3.656,0.914
		c-0.398,0.258-0.68,0.469-0.843,0.633c0.375-0.539,0.574-0.844,0.597-0.914c0.328-0.539,0.75-1.523,1.265-2.952
		C86.571,98.986,87.368,98.166,88.399,97.744z M99.648,104.036c0.304-0.164,0.655-0.34,1.054-0.527
		c0.867-0.374,1.441-0.539,1.723-0.492c1.218,0.07,2.179,0.598,2.882,1.582c0.421,0.586,0.82,1.523,1.195,2.813
		c0.093,0.328,0.176,0.55,0.246,0.668c-0.093-0.141-0.257-0.316-0.492-0.527c-0.398-0.305-1.007-0.457-1.828-0.457
		c-0.937,0.022-1.547-0.035-1.828-0.176c-0.61-0.259-1.172-0.539-1.688-0.844c-0.633-0.375-1.055-0.621-1.265-0.738
		c-0.023-0.023-0.047-0.035-0.071-0.035c0.024-0.001,0.047-0.013,0.071-0.035c0.632-0.281,1.488-0.328,2.565-0.141
		c0.656,0.117,1.278,0.281,1.863,0.492c-1.313-0.867-2.789-1.23-4.429-1.09c-0.282,0.023-0.575,0.059-0.879,0.105
		C99.003,104.446,99.296,104.247,99.648,104.036z M108.505,96.021c0.211-0.023,0.891,0,2.039,0.07
		c-0.844,0.445-1.84,1.172-2.988,2.18c-1.172,1.031-1.605,1.465-1.301,1.3c0.071,0,0.55-0.34,1.442-1.02
		c1.171-0.796,2.484-1.453,3.937-1.968c-0.398,0.375-0.867,0.973-1.406,1.792c-0.469,0.797-0.738,1.23-0.809,1.301
		c-0.398,0.516-1.148,0.972-2.249,1.371c-1.313,0.468-2.273,0.948-2.883,1.44l-0.632,0.633c0.14-0.163,0.269-0.445,0.386-0.843
		c0.023-0.071,0.188-0.927,0.492-2.567c0.188-1.101,0.621-1.933,1.301-2.496C106.865,96.514,107.756,96.115,108.505,96.021z
		 M137.435,116.831c0.304,0.023,0.539,0.012,0.703-0.035c-0.188,0.047-0.399,0.152-0.633,0.316c-0.469,0.258-0.926,0.82-1.371,1.688
		c-0.445,0.891-0.866,1.465-1.265,1.722c-0.703,0.492-1.359,0.867-1.969,1.126c-0.656,0.257-1.195,0.469-1.617,0.632
		c0.258-0.75,0.844-1.594,1.758-2.53c0.539-0.539,1.054-0.996,1.547-1.371c-0.446,0.188-0.961,0.492-1.547,0.913
		c-1.078,0.798-2.051,1.841-2.918,3.129c0.094-0.703,0.258-1.476,0.492-2.319c0.234-0.962,0.434-1.535,0.597-1.723
		c0.703-0.961,1.676-1.512,2.918-1.652C134.529,116.679,135.63,116.714,137.435,116.831z M114.446,122.842
		c0.227,0.363,0.409,0.615,0.545,0.756c-0.163-0.156-0.426-0.314-0.791-0.475c-0.657-0.281-1.535-0.234-2.637,0.141
		c-1.243,0.422-2.074,0.609-2.496,0.563c-0.914-0.07-1.792-0.211-2.636-0.422c-1.031-0.233-1.734-0.375-2.109-0.422
		c0.703-0.703,1.84-1.171,3.41-1.406c1.055-0.163,1.968-0.211,2.742-0.14c-2.484-0.774-5.003-0.446-7.558,0.983
		c0.399-0.655,1.102-1.43,2.109-2.319c0.985-0.867,1.676-1.348,2.074-1.441c1.664-0.445,3.175-0.164,4.535,0.844
		C112.524,120.183,113.462,121.296,114.446,122.842z M118.594,124.74c0.07,0.023,0.691-0.188,1.863-0.633
		c1.523-0.445,3.128-0.609,4.816-0.492c-1.054,0.328-2.191,1.102-3.41,2.32c-0.539,0.374-1.453,0.598-2.741,0.668
		c-0.586,0.023-1.113,0.069-1.582,0.141c-0.774,0.093-1.418,0.245-1.934,0.456c-0.438,0.208-0.708,0.36-0.809,0.457
		c0.212-0.212,0.423-0.458,0.633-0.737l0.105-0.176c0.164-0.328,0.563-1.125,1.195-2.391c0.563-1.125,1.3-1.875,2.215-2.25
		c1.359-0.422,2.472-0.539,3.339-0.352c0.304,0.071,0.996,0.364,2.073,0.879c-1.078,0.07-2.401,0.457-3.971,1.16
		C118.559,124.588,117.961,124.904,118.594,124.74z M115.606,106.251c0.234-0.07,1.055-0.188,2.46-0.352
		c-0.891,0.75-1.969,1.852-3.234,3.304c-1.312,1.477-1.793,2.063-1.441,1.758c0.094,0,0.645-0.48,1.652-1.441
		c1.383-1.195,2.883-2.284,4.5-3.269c-0.421,0.538-0.878,1.382-1.371,2.531c-0.234,0.585-0.48,1.194-0.738,1.827
		c-0.469,0.797-1.383,1.499-2.742,2.109c-1.71,0.749-2.894,1.405-3.55,1.968c-0.375,0.352-0.621,0.61-0.738,0.774
		c0.141-0.212,0.282-0.551,0.422-1.02c0.094-0.259,0.246-1.313,0.457-3.164c0.164-1.359,0.597-2.402,1.3-3.129
		C113.685,107.164,114.692,106.532,115.606,106.251z M129.14,107.164c-0.563,0.844-0.973,1.348-1.23,1.512
		c-0.516,0.352-1.09,0.691-1.723,1.02c-0.61,0.328-1.09,0.609-1.441,0.844c0.023-0.773,0.434-1.629,1.23-2.566
		c0.539-0.609,1.078-1.089,1.617-1.44c-1.921,0.68-3.222,2.179-3.901,4.499c-0.164-0.586-0.188-1.418-0.071-2.496
		c0.117-1.055,0.293-1.71,0.527-1.968c0.82-1.172,1.91-1.77,3.269-1.793c0.914-0.023,2.027,0.246,3.339,0.809
		c0.234,0.094,0.422,0.164,0.563,0.211c-0.141,0-0.34,0.023-0.597,0.07C130.159,106.005,129.631,106.438,129.14,107.164z
		 M135.186,79.008c-0.328,0.797-0.269,1.84,0.176,3.129c0.516,1.453,0.738,2.449,0.668,2.988c-0.118,1.195-0.293,2.273-0.527,3.233
		c-0.141,0.54-0.363,1.383-0.668,2.531c-0.773-0.914-1.277-2.32-1.512-4.218c-0.164-1.242-0.211-2.332-0.14-3.269
		c-0.867,2.906-0.563,5.952,0.914,9.139c-0.75-0.562-1.617-1.441-2.601-2.636c-0.984-1.219-1.523-2.051-1.617-2.496
		c-0.539-1.945-0.199-3.726,1.02-5.343c0.796-1.078,2.109-2.203,3.937-3.375c0.438-0.277,0.743-0.499,0.914-0.667
		C135.558,78.218,135.37,78.546,135.186,79.008z M126.644,92.261c-0.188,0.609-0.363,1.23-0.527,1.863
		c-0.375,0.844-1.195,1.652-2.46,2.425c-1.687,1.008-2.812,1.792-3.375,2.355c-0.257,0.258-0.48,0.527-0.668,0.809l0.352-1.054
		c0.094-0.328,0.129-1.383,0.105-3.164c0-1.406,0.305-2.507,0.914-3.305c1.008-1.148,1.968-1.898,2.883-2.25
		c0.328-0.14,1.171-0.328,2.53-0.563c-0.89,0.797-1.898,2.004-3.022,3.621l-1.23,1.933c0.093,0,0.585-0.551,1.476-1.652
		c1.242-1.359,2.66-2.554,4.253-3.585C127.429,90.257,127.018,91.112,126.644,92.261z M129.315,72.681
		c-0.586,0.282-0.984,0.879-1.195,1.792c-0.281,1.102-0.504,1.77-0.668,2.004c-0.445,0.68-0.914,1.301-1.406,1.863
		c-0.773,0.891-1.195,1.383-1.266,1.477c-0.234-0.867-0.105-1.969,0.387-3.305c0.305-0.867,0.656-1.593,1.054-2.179
		c-1.64,1.5-2.472,3.621-2.496,6.362c-0.328-0.633-0.621-1.512-0.878-2.636c-0.258-1.148-0.34-1.898-0.247-2.25
		c0.328-1.593,1.253-2.683,2.777-3.269c1.266-0.492,2.566-0.551,3.902-0.176c0.311,0.089,0.557,0.124,0.739,0.105
		C129.796,72.499,129.561,72.569,129.315,72.681z M129.14,62.347c-0.352,0.516-0.726,1.313-1.125,2.391
		c-0.211,0.539-0.422,1.113-0.632,1.722c-0.422,0.773-1.254,1.465-2.497,2.074c-1.757,0.843-2.87,1.441-3.339,1.792
		c-0.375,0.281-0.609,0.492-0.703,0.632c0.141-0.234,0.293-0.527,0.457-0.878c0.141-0.329,0.281-1.277,0.421-2.847
		c0.118-1.266,0.48-2.227,1.09-2.882c0.984-0.937,1.886-1.547,2.707-1.828c0.258-0.093,1.008-0.234,2.25-0.422
		c-0.773,0.727-1.722,1.781-2.847,3.164c-1.336,1.688-1.746,2.238-1.23,1.651c0.07,0,0.562-0.468,1.476-1.406
		C126.363,64.362,127.687,63.308,129.14,62.347z M112.267,89.694c-0.469-0.984-0.703-1.628-0.703-1.933
		c-0.07-1.313,0.363-2.472,1.3-3.479c0.211-0.211,1.161-0.96,2.847-2.25c0.352-0.234,0.575-0.421,0.668-0.563l-0.386,0.774
		c-0.211,0.563-0.199,1.359,0.035,2.39c0.258,1.102,0.316,1.898,0.175,2.39c-0.234,0.891-0.527,1.652-0.878,2.285
		c-0.375,0.68-0.68,1.242-0.914,1.687c-0.328-0.796-0.434-1.921-0.316-3.374c0.07-0.96,0.176-1.71,0.316-2.25
		c-0.023,0.071-0.247,0.691-0.668,1.863c-0.352,1.476-0.398,3.058-0.141,4.746C113.204,91.44,112.759,90.679,112.267,89.694z
		 M97.714,92.858c0.047-0.046,0.199-0.234,0.457-0.562c0.047-0.071,0.328-0.703,0.844-1.898c0.188-0.421,0.399-0.773,0.633-1.055
		c0.234-0.281,0.504-0.492,0.808-0.633c0.914-0.375,1.688-0.527,2.32-0.457c0.117,0,0.632,0.128,1.546,0.387
		c-0.726,0.187-1.628,0.585-2.706,1.195c-1.266,0.703-1.688,0.96-1.266,0.773c0.07,0,0.516-0.188,1.335-0.563
		c1.055-0.398,2.191-0.668,3.41-0.809c-0.399,0.211-0.879,0.586-1.441,1.125c-0.492,0.563-0.774,0.867-0.844,0.914
		c-0.399,0.328-1.066,0.539-2.004,0.633c-0.421,0.047-0.808,0.117-1.159,0.211c-0.539,0.093-0.985,0.222-1.336,0.386L97.714,92.858z
		 M87.942,90.152c-1.312-0.867-2.25-1.395-2.813-1.582l-0.878-0.211l0.914-0.105c0.282-0.047,1.055-0.375,2.321-0.984
		c0.983-0.469,1.862-0.621,2.636-0.457c1.078,0.281,1.91,0.644,2.496,1.089c0.046,0.047,0.504,0.504,1.371,1.371
		c-1.008-0.164-2.215-0.34-3.621-0.527c-1.359-0.164-1.957-0.223-1.792-0.176c0.047,0.023,0.609,0.176,1.687,0.457
		c1.406,0.399,2.824,0.844,4.253,1.336c-0.515,0.047-1.277,0.176-2.285,0.387c-1.031,0.234-1.57,0.352-1.617,0.352
		C89.817,91.124,88.927,90.807,87.942,90.152z M95.113,76.372c0.375-0.375,1.371-1.089,2.988-2.144
		c0.352-0.211,0.585-0.387,0.703-0.527c0,0.023-0.152,0.282-0.458,0.773c-0.234,0.54-0.257,1.325-0.07,2.355
		c0.21,1.102,0.234,1.886,0.07,2.355c-0.234,0.867-0.527,1.617-0.879,2.25c-0.375,0.68-0.68,1.242-0.914,1.688
		c-0.516-1.172-0.504-3.035,0.035-5.589c-0.352,0.796-0.586,1.441-0.703,1.934c-0.352,1.453-0.398,3-0.14,4.64
		c-0.399-0.516-0.844-1.277-1.336-2.285c-0.469-0.984-0.703-1.628-0.703-1.933C93.637,78.528,94.105,77.356,95.113,76.372z
		 M104.252,76.161c0.141-0.046,0.398-0.222,0.773-0.527c0.328-0.258,0.832-1.02,1.512-2.285c0.586-1.055,1.266-1.757,2.039-2.109
		c1.218-0.469,2.238-0.691,3.058-0.668c0.234,0.023,0.972,0.164,2.215,0.422c-0.961,0.375-2.203,0.984-3.727,1.828
		c-1.898,1.055-2.484,1.395-1.758,1.02c0.071,0.023,0.691-0.21,1.863-0.703c1.523-0.562,3.105-1.031,4.746-1.406
		c-0.492,0.352-1.125,0.937-1.898,1.757c-0.68,0.773-1.078,1.207-1.195,1.3c-0.703,0.563-1.71,0.879-3.023,0.95
		c-2.39,0.14-3.62,0.211-3.691,0.211C104.862,75.997,104.557,76.068,104.252,76.161z M102.495,57.32
		c1.242-0.445,2.32-0.516,3.233-0.21c1.313,0.539,2.273,1.136,2.883,1.792c0.164,0.164,0.632,0.808,1.406,1.933
		c-1.055-0.422-2.473-0.867-4.253-1.336c-1.757-0.445-2.46-0.597-2.109-0.457c0.046,0.07,0.703,0.339,1.968,0.808
		c1.617,0.656,3.199,1.453,4.745,2.391c-0.633-0.094-1.558-0.106-2.777-0.035c-1.125,0.117-1.769,0.164-1.933,0.14
		c-0.914-0.07-1.91-0.563-2.988-1.476c-1.406-1.172-2.472-1.922-3.198-2.25c-0.328-0.141-0.645-0.257-0.95-0.352
		c0.164,0.047,0.504,0.035,1.02-0.035C99.847,58.211,100.831,57.906,102.495,57.32z M112.548,42.803l0.738-0.773
		c-0.14,0.234-0.269,0.562-0.387,0.984c-0.188,0.656-0.141,1.688,0.141,3.093c0.258,1.359,0.27,2.378,0.035,3.058
		c-0.398,1.125-0.832,2.051-1.3,2.777c-0.539,0.774-0.973,1.418-1.301,1.934c-0.328-1.078-0.316-2.613,0.036-4.605
		c0.398-1.664,0.562-2.425,0.491-2.285c0.023,0.047-0.281,0.761-0.914,2.144c-0.585,1.805-0.832,3.762-0.738,5.871
		c-0.421-0.703-0.867-1.676-1.336-2.918c-0.468-1.265-0.69-2.074-0.667-2.425c0.023-1.523,0.621-2.859,1.792-4.007
		C109.818,44.994,110.955,44.045,112.548,42.803z M121.195,60.062c0.364,0.091,0.639,0.138,0.827,0.141
		c-0.208,0.004-0.472,0.074-0.791,0.21c-0.586,0.282-0.985,0.867-1.195,1.758c-0.282,1.125-0.504,1.793-0.668,2.004
		c-0.445,0.68-0.914,1.3-1.406,1.863c-0.773,0.891-1.195,1.383-1.265,1.477c-0.234-0.867-0.106-1.968,0.386-3.304
		c0.305-0.844,0.656-1.559,1.055-2.144c-0.492,0.398-0.949,0.984-1.371,1.757c-0.727,1.312-1.101,2.835-1.125,4.57
		c-0.328-0.633-0.622-1.512-0.879-2.636c-0.258-1.149-0.34-1.898-0.247-2.25c0.328-1.593,1.254-2.683,2.777-3.27
		C118.559,59.746,119.86,59.687,121.195,60.062z M114.622,58.972c0.117-0.093,0.328-0.316,0.633-0.668
		c0.352-0.421,0.796-1.218,1.335-2.39c0.61-1.031,1.406-1.665,2.391-1.898c1.358-0.188,2.425-0.118,3.199,0.211
		c0.141,0.07,0.714,0.457,1.722,1.16c-0.984-0.141-2.25-0.012-3.796,0.386c-1.664,0.422-2.261,0.633-1.792,0.633
		c0.07,0.023,0.668-0.083,1.792-0.316c1.429-0.164,2.93-0.047,4.5,0.351c-0.609,0.07-1.348,0.329-2.215,0.773
		c-0.655,0.305-1.089,0.55-1.3,0.738c-0.422,0.211-1.23,0.282-2.425,0.211c-1.266-0.071-2.343,0.07-3.234,0.422
		C114.962,58.82,114.692,58.949,114.622,58.972z M117.504,36.546c0.258-0.375,0.434-0.668,0.527-0.879
		c-0.07,0.188-0.117,0.527-0.14,1.019c-0.023,0.75,0.315,1.71,1.019,2.882c0.727,1.242,1.102,2.156,1.125,2.742
		c0.07,1.078,0.058,2.063-0.035,2.953c-0.141,1.383-0.211,2.157-0.211,2.32c-0.796-0.68-1.441-1.851-1.934-3.515
		c-0.304-1.007-0.504-1.968-0.597-2.882c-0.07,1.195-0.07,2.085,0,2.671c0.234,1.828,0.949,3.597,2.144,5.308
		c-0.75-0.352-1.664-1.007-2.741-1.968c-1.078-0.938-1.676-1.605-1.793-2.003c-0.68-1.594-0.644-3.187,0.106-4.78
		C115.067,40.201,115.911,38.913,117.504,36.546z M137.119,42.206c-0.258,0.141-0.574,0.352-0.949,0.632
		c-0.61,0.516-1.148,1.453-1.618,2.812c-0.468,1.406-0.925,2.32-1.37,2.742c-0.703,0.75-1.454,1.429-2.25,2.039
		c-0.867,0.655-1.477,1.159-1.828,1.511c-0.14-1.078,0.235-2.378,1.125-3.901c0.539-0.938,1.147-1.792,1.827-2.566
		c-2.507,1.711-3.948,4.183-4.323,7.417c-0.399-0.774-0.645-1.957-0.739-3.551c-0.094-1.523-0.012-2.496,0.246-2.917
		c0.821-1.734,2.121-2.859,3.902-3.374c0.141-0.047,1.757-0.258,4.851-0.633C136.322,42.37,136.697,42.299,137.119,42.206z
		 M196.348,91.487v0.035h-0.035C196.313,91.499,196.324,91.487,196.348,91.487z M184.396,119.608
		c1.805,0.281,3.117,0.621,3.938,1.02c1.148,0.562,1.957,1.405,2.426,2.53c0.094,0.234,0.176,0.469,0.246,0.703
		c0.117,0.352,0.07,1.125-0.141,2.32c-0.211,1.218-0.469,2.155-0.773,2.813c-0.211-2.321-0.949-4.266-2.215-5.836
		c-0.211-0.258-0.434-0.515-0.668-0.773c0.164,0.234,0.316,0.492,0.457,0.773c0.234,0.445,0.457,0.949,0.668,1.512
		c0.563,1.406,0.773,2.578,0.633,3.515c-0.375-0.397-0.855-0.89-1.441-1.476c-0.563-0.586-1.102-1.266-1.616-2.039
		c-0.211-0.281-0.388-0.785-0.527-1.512c-0.047-0.258-0.094-0.551-0.141-0.879c-0.164-1.102-0.492-1.874-0.984-2.319
		c-0.327-0.305-0.573-0.48-0.737-0.527L184.396,119.608z M151.496,101.646c0.141,0.023,0.762,0.13,1.861,0.316
		c-0.842,0.375-1.885,0.926-3.127,1.652c-1.195,0.703-1.688,1.02-1.477,0.949c0.071,0,0.598-0.223,1.582-0.668
		c1.265-0.492,2.613-0.937,4.042-1.336c-0.443,0.352-1.3,1.266-2.564,2.742c-0.563,0.445-1.407,0.727-2.533,0.844
		c-1.429,0.163-2.449,0.363-3.058,0.598l-0.738,0.421c0.047-0.047,0.234-0.269,0.563-0.667c0.117-0.164,0.48-0.902,1.089-2.215
		c0.445-0.984,1.02-1.652,1.723-2.003C149.914,101.856,150.792,101.646,151.496,101.646z M169.036,155.777
		c0.211,0.283,0.387,0.974,0.526,2.074c0.164,1.148,0.176,2.039,0.035,2.672c-0.516-1.5-1.313-2.719-2.391-3.655
		c-0.563-0.517-1.172-0.902-1.827-1.159c0.585,0.443,1.147,0.982,1.687,1.616c0.845,1.008,1.302,1.922,1.371,2.741
		c-0.233-0.164-0.762-0.457-1.582-0.879c-0.631-0.352-1.265-0.75-1.897-1.194c-0.257-0.164-0.681-0.703-1.265-1.617
		c-0.445-0.75-0.938-1.138-1.478-1.159c-0.188,0.021-0.375,0.081-0.563,0.176c0.211-0.211,0.363-0.375,0.457-0.492
		c0.984-0.772,2.134-1.137,3.445-1.09C167.057,153.88,168.216,154.537,169.036,155.777z M188.264,137.43
		c0.75,0.375,1.535,1.066,2.355,2.073c0.258,0.352,0.445,0.763,0.563,1.23c0.142,0.492,0.199,1.055,0.176,1.688
		c-0.069,1.664-0.082,2.613-0.034,2.848c0.069,0.445,0.163,0.773,0.28,0.984l-0.563-0.809c-0.492-0.539-1.453-1.277-2.883-2.215
		c-1.102-0.702-1.816-1.441-2.145-2.215c-0.023-0.093-0.048-0.187-0.07-0.281c-0.094-0.491-0.199-0.972-0.316-1.44
		c-0.281-1.055-0.563-1.852-0.844-2.391c1.289,1.078,2.461,2.227,3.516,3.444c0.094,0.142,0.188,0.271,0.281,0.387
		c0.563,0.727,0.879,1.103,0.949,1.126c0.258,0.328,0.047-0.048-0.633-1.126c-0.117-0.188-0.246-0.387-0.388-0.597
		c-0.913-1.453-1.711-2.578-2.391-3.375C187.361,137.113,188.076,137.336,188.264,137.43z M179.582,144.636
		c0.141,0.07,0.387,0.129,0.738,0.176c1.404,0.211,2.447,0.492,3.128,0.844c1.101,0.563,1.804,1.429,2.108,2.601
		c0.094,0.259,0.059,0.867-0.105,1.828c-0.164,0.938-0.352,1.688-0.563,2.25c-0.259-2.203-1.043-3.96-2.355-5.273
		c1.126,1.922,1.605,3.469,1.441,4.641c-0.305-0.305-0.703-0.703-1.195-1.195c-0.445-0.444-0.879-0.996-1.301-1.651
		c-0.211-0.306-0.387-0.938-0.526-1.898c-0.116-0.891-0.363-1.512-0.738-1.863C179.957,144.882,179.745,144.729,179.582,144.636z
		 M50.963,166.921c-0.469,1.126-0.797,2.871-0.984,5.238c-0.328,1.055-1.148,2.073-2.46,3.059c-1.969,1.499-3.141,2.438-3.515,2.813
		c-0.281,0.305-0.516,0.598-0.703,0.879c0.117-0.234,0.234-0.609,0.352-1.125c0.117-0.47,0.083-1.595-0.105-3.374
		c-0.141-1.477,0.058-2.66,0.597-3.551c0.891-1.313,1.769-2.238,2.636-2.777c0.258-0.164,1.101-0.538,2.531-1.124
		c-1.125,1.687-2.308,3.913-3.55,6.679c0.375-0.539,0.832-1.207,1.371-2.004C48.28,169.991,49.558,168.421,50.963,166.921z
		 M61.754,175.639c-0.234,0.61-0.479,1.56-0.738,2.848c-0.282,1.289-0.434,1.969-0.458,2.039c-0.398,1.008-1.253,1.898-2.565,2.672
		c-1.945,1.148-3.117,1.898-3.515,2.25c-0.375,0.352-0.621,0.609-0.738,0.773c0.14-0.212,0.281-0.552,0.421-1.021
		c0.141-0.423,0.222-1.478,0.246-3.164c0-1.384,0.293-2.448,0.879-3.198c0.915-1.102,1.781-1.875,2.602-2.32
		c0.164-0.068,0.949-0.363,2.355-0.879c-0.703,1.055-1.547,2.367-2.531,3.938c-0.96,1.523-1.359,2.181-1.195,1.97l1.441-1.723
		C59.177,178.393,60.442,176.998,61.754,175.639z M75.991,179.682c0.656,1.055,1.008,1.641,1.055,1.758
		c0.375,1.031,0.34,2.237-0.105,3.621c-0.774,2.438-1.172,3.715-1.195,3.83l-0.071,0.984c0-0.188-0.093-0.516-0.281-0.984
		c-0.164-0.443-0.75-1.254-1.758-2.425c-0.867-1.008-1.336-1.944-1.406-2.813c-0.071-1.336,0.035-2.424,0.316-3.269
		c0.047-0.069,0.387-0.786,1.019-2.145c0.351,1.71,0.773,3.89,1.266,6.538c0.023-0.07,0.012-0.785-0.036-2.146
		c-0.093-1.968-0.152-3.772-0.176-5.413C74.854,177.76,75.311,178.58,75.991,179.682z M63.336,162.492
		c0.328-0.655,1.148-1.862,2.46-3.62l0.563-0.879c-0.023,0.022-0.093,0.362-0.211,1.021c-0.047,0.701,0.258,1.594,0.914,2.672
		c0.68,1.146,1.031,2.037,1.054,2.67c0.047,1.195-0.012,2.215-0.176,3.059c-0.117,0.516-0.328,1.277-0.632,2.285
		c-0.539-0.891-0.996-2.202-1.371-3.938c-0.234-1.055-0.386-1.934-0.457-2.637c0,0.07-0.012,0.832-0.035,2.285
		c0.094,1.805,0.458,3.679,1.09,5.624c-2.086-2.296-3.234-3.702-3.444-4.218C62.575,165.41,62.657,163.969,63.336,162.492z
		 M74.866,145.058c0.141-0.094,0.363-0.305,0.668-0.633c-0.164,0.328-0.281,0.609-0.352,0.844c-0.211,0.68-0.129,1.593,0.246,2.742
		c0.398,1.218,0.55,2.085,0.457,2.601c-0.141,0.938-0.34,1.806-0.598,2.602c-0.328,1.126-0.527,1.816-0.597,2.074
		c-0.609-0.749-0.984-1.922-1.125-3.516c-0.07-0.938-0.059-1.839,0.036-2.707c-0.867,2.414-0.727,4.934,0.421,7.558
		c-0.61-0.469-1.3-1.23-2.074-2.284c-0.796-1.03-1.218-1.733-1.265-2.108c-0.328-1.594,0.012-3.036,1.02-4.324
		C72.101,147.412,73.155,146.464,74.866,145.058z M70.964,137.289c0.445,0.234,0.902,0.41,1.371,0.527
		c0.281,0.094,1.699,0.27,4.254,0.527c1.851,0.188,3.257,0.75,4.218,1.687c1.289,1.406,2.132,2.695,2.53,3.867
		c0,0.047,0.035,0.188,0.106,0.422c0.093,0.492,0.269,1.418,0.527,2.777c-0.821-0.797-1.829-1.723-3.024-2.777
		c-0.491-0.422-1.007-0.855-1.546-1.301c-1.805-1.522-2.59-2.145-2.355-1.862c0.047,0.093,0.703,0.82,1.968,2.179
		c0.281,0.328,0.575,0.656,0.879,0.984c1.289,1.523,2.543,3.116,3.761,4.78c-0.75-0.444-1.921-0.972-3.515-1.581
		c-1.5-0.563-2.343-0.891-2.531-0.985c-0.866-0.515-1.558-1.218-2.073-2.108c-0.023-0.023-0.036-0.059-0.036-0.105
		c-0.188-0.328-0.656-1.288-1.406-2.883c-0.632-1.288-1.323-2.354-2.073-3.198C71.597,137.816,71.246,137.5,70.964,137.289z
		 M49.909,155.673c0.281-1.897,1.23-3.362,2.847-4.394c0.398-0.234,1.934-0.902,4.605-2.004c0.399-0.164,0.738-0.34,1.02-0.527
		c-0.328,0.328-0.586,0.621-0.773,0.879c-0.469,0.68-0.715,1.746-0.738,3.199c-0.047,1.523-0.223,2.564-0.527,3.128
		c-0.515,0.983-1.078,1.875-1.687,2.672c-0.774,1.031-1.265,1.711-1.477,2.039c-0.398-1.078-0.363-2.521,0.105-4.324
		c0.282-1.03,0.656-2.038,1.125-3.022c-0.796,1.173-1.312,2.017-1.546,2.531c-0.797,1.827-1.102,3.854-0.915,6.08
		c-0.515-0.726-1.007-1.851-1.476-3.373C50.002,157.104,49.815,156.143,49.909,155.673z M30.435,144.882
		c0.164,0.398,0.421,0.879,0.773,1.441c0.703,0.961,2.027,1.757,3.973,2.39c2.109,0.656,3.48,1.301,4.112,1.934
		c1.313,1.242,2.379,2.449,3.199,3.621c0.492,0.68,1.207,1.733,2.144,3.164c-1.711-0.164-3.749-0.996-6.116-2.496
		c-1.5-0.938-2.73-1.84-3.691-2.707c0.703,1.031,1.617,2.026,2.742,2.988c2.203,1.944,4.862,3.467,7.979,4.569
		c-1.359,0.188-3.093,0.246-5.203,0.176c-2.155-0.071-3.502-0.233-4.042-0.491c-2.461-1.125-4.101-3.023-4.921-5.695
		c-0.468-1.5-0.738-3.925-0.808-7.275C30.576,145.89,30.528,145.351,30.435,144.882z M51.667,136.024
		c0.445,0.163,1.265,0.644,2.46,1.44c-1.336-0.07-3.035,0.152-5.097,0.668c-2.227,0.563-3.023,0.82-2.391,0.773
		c0.071,0.047,0.867-0.083,2.391-0.387c1.968-0.211,3.96-0.094,5.976,0.352c-0.774,0.094-1.711,0.456-2.812,1.09
		c-0.071,0.023-0.656,0.386-1.758,1.089c-0.844,0.375-2.062,0.446-3.656,0.211c-2.016-0.304-3.492-0.41-4.429-0.315
		c-0.469,0.069-0.832,0.152-1.09,0.245c0.211-0.093,0.527-0.305,0.949-0.633c0.211-0.163,0.972-1.042,2.285-2.636
		c0.961-1.172,2.003-1.875,3.128-2.109C49.288,135.602,50.635,135.673,51.667,136.024z M66.571,129.942
		c1.242-1.102,2.507-2.167,3.796-3.198c0.071-0.071,0.152-0.141,0.247-0.211c-0.023,0.07-0.059,0.14-0.106,0.211
		c-0.258,0.539-0.574,1.323-0.949,2.354c-0.422,1.219-0.645,1.84-0.668,1.863c-0.516,0.844-1.43,1.534-2.742,2.074
		c-1.804,0.75-2.964,1.312-3.48,1.687l-0.773,0.668c0.141-0.141,0.305-0.444,0.492-0.913c0.141-0.306,0.34-1.278,0.597-2.918
		c0.188-1.289,0.61-2.25,1.265-2.883c0.985-0.89,1.875-1.488,2.672-1.792c0.023,0,0.21-0.048,0.562-0.141
		c0.375-0.095,0.937-0.224,1.687-0.387c-0.117,0.14-0.223,0.27-0.316,0.387c-2.742,3.187-4.031,4.722-3.867,4.604
		C65.012,131.325,65.54,130.856,66.571,129.942z M57.994,115.354c0.257-0.188,0.551-0.444,0.879-0.772
		c-0.188,0.257-0.375,0.62-0.563,1.089c-0.281,0.703-0.316,1.805-0.105,3.305c0.188,1.522,0.141,2.624-0.141,3.304
		c-0.469,1.172-0.983,2.168-1.546,2.988c-0.398,0.539-0.75,1.03-1.055,1.477c-0.164,0.211-0.304,0.409-0.421,0.597
		c-0.047-0.188-0.094-0.386-0.141-0.597c-0.187-1.148-0.082-2.637,0.317-4.465c0.539-1.805,0.773-2.624,0.703-2.461
		c0.023,0.048-0.351,0.81-1.125,2.285c-0.563,1.43-0.891,2.977-0.984,4.641c-0.047,0.585-0.058,1.183-0.035,1.792
		c-0.281-0.469-0.562-1.065-0.844-1.792c-0.188-0.446-0.375-0.938-0.562-1.477c-0.469-1.383-0.691-2.285-0.668-2.707
		c0.117-1.734,0.867-3.198,2.25-4.394C54.748,117.464,56.095,116.526,57.994,115.354z M57.818,97.709
		c0.563,0.398,1.371,1.042,2.426,1.934c-1.43,0.14-3.434,0.012-6.012-0.387c-2.156-0.398-3.14-0.563-2.952-0.492
		c0.07,0.023,0.996,0.352,2.776,0.983c2.273,0.727,4.734,1.23,7.382,1.513c-3.772,1.335-6.022,2.015-6.749,2.038
		c-1.758-0.023-3.41-0.703-4.956-2.038c-1.665-1.758-3-3.059-4.008-3.902c-0.515-0.422-0.89-0.691-1.125-0.809
		c0.304,0.141,0.75,0.258,1.335,0.352c0.797,0.093,2.121-0.117,3.972-0.633c1.71-0.468,3.07-0.563,4.078-0.281
		C55.58,96.502,56.857,97.076,57.818,97.709z M72.651,112.051c0.82-0.305,1.477-0.527,1.968-0.668c-0.539,0-1.23,0.105-2.073,0.316
		c-1.641,0.375-3.258,1.066-4.851,2.074c0.492-0.75,1.055-1.523,1.688-2.32c0.727-0.961,1.218-1.5,1.476-1.617
		c1.172-0.726,2.484-0.891,3.937-0.492c0.844,0.211,2.086,0.691,3.727,1.441l0.879,0.281c-0.164-0.047-0.48-0.012-0.95,0.105
		c-0.609,0.117-1.371,0.574-2.285,1.371c-0.914,0.82-1.664,1.288-2.25,1.406c-1.031,0.233-1.945,0.34-2.741,0.316
		c-0.844-0.048-1.547-0.083-2.109-0.106C69.77,113.434,70.964,112.73,72.651,112.051z M76.694,97.463
		c-0.796,0.047-1.652,0.516-2.565,1.406c-1.055,0.985-1.77,1.547-2.145,1.688c-0.562,0.233-1.383,0.527-2.46,0.879
		c-0.773,0.257-1.464,0.538-2.073,0.844c0.093-0.657,0.41-1.337,0.949-2.039c0.516-0.68,1.101-1.23,1.757-1.652
		c0.516-0.352,1.066-0.645,1.652-0.879c0.258-0.117,0.422-0.188,0.492-0.211c-0.632,0.023-1.406,0.247-2.32,0.668
		c-0.82,0.399-1.559,0.938-2.215,1.617c-0.843,0.867-1.453,1.887-1.828,3.059c-0.234-0.797-0.152-1.968,0.246-3.515
		c0.375-1.5,0.785-2.402,1.23-2.707c1.5-1.406,3.176-1.921,5.027-1.546c0.938,0.188,2.391,0.843,4.359,1.968
		c0.398,0.234,0.727,0.387,0.984,0.457C77.573,97.451,77.209,97.439,76.694,97.463z M67.555,83.649
		c0.07,1.429-0.023,2.413-0.281,2.952c-0.469,1.054-0.961,1.969-1.477,2.742c-0.585,0.796-1.054,1.453-1.406,1.969
		c-0.328-1.055-0.304-2.461,0.07-4.218c0.234-1.125,0.515-2.086,0.843-2.882c-1.569,2.367-2.272,5.12-2.109,8.261
		c-0.445-0.727-0.902-1.77-1.371-3.129c-0.469-1.359-0.68-2.238-0.633-2.636c0.164-1.781,0.972-3.21,2.425-4.288
		c0.773-0.586,2.203-1.278,4.289-2.074l0.949-0.457c-0.305,0.305-0.54,0.562-0.703,0.774C67.707,81.293,67.508,82.29,67.555,83.649z
		"/>
</g>
</svg>
