<?xml version="1.0" encoding="utf-8"?>
<!-- Generator: Adobe Illustrator 16.0.0, SVG Export Plug-In . SVG Version: 6.00 Build 0)  -->
<!DOCTYPE svg PUBLIC "-//W3C//DTD SVG 1.1//EN" "http://www.w3.org/Graphics/SVG/1.1/DTD/svg11.dtd">
<svg version="1.1" id="Layer_1" xmlns="http://www.w3.org/2000/svg" xmlns:xlink="http://www.w3.org/1999/xlink" x="0px" y="0px"
	 width="300px" height="300px" viewBox="0 0 300 300" enable-background="new 0 0 300 300" xml:space="preserve">
<g>
	<path fill="#DB6F74" d="M113.779,153.115l1.883,0.855c1.415,0.752,2.476,1.631,3.183,2.635c1.255,1.804,1.267,3.787,0.034,5.955
		l-0.068,0.035c-0.137,0.112-0.399,0.204-0.788,0.272c-0.433,0.067-0.878,0.08-1.334,0.032c-1.278-0.09-2.26-0.614-2.944-1.572
		c-1.163-1.645-1.163-4.383,0-8.215v-0.034L113.779,153.115z M93.277,174.814c1.027,0.184,1.939,0.549,2.738,1.097
		c0.41,0.319,0.65,0.56,0.719,0.719v0.103c-0.342,3.584-2.031,5.91-5.066,6.982c-1.757,0.639-3.868,0.822-6.332,0.549l-3.149-0.549
		l-0.069-0.033l0.035-0.068c1.825-4.608,4.21-7.449,7.153-8.522C90.584,174.633,91.908,174.542,93.277,174.814z M72.089,166.055
		c0.045,0.937-0.502,1.23-1.643,0.889h-0.035c-0.273-0.045-0.616-0.158-1.027-0.342c-0.182-0.115-0.331-0.205-0.445-0.272
		c-0.022,0.046-0.045,0.092-0.068,0.137l0.719,0.41c0.229,0.16,0.422,0.319,0.582,0.479l0.068,0.035
		c0.479,0.389,0.719,0.74,0.719,1.062c0,0.319-0.194,0.593-0.582,0.821c-0.753,0.455-1.266,0.183-1.54-0.821
		c0-0.022-0.011-0.058-0.034-0.103c-0.046-0.115-0.08-0.229-0.103-0.345c-0.091-0.362-0.137-0.812-0.137-1.335
		c-0.023,0-0.057,0-0.103,0h-0.034v0.344c0,0.502-0.045,0.911-0.137,1.23v0.033c0,0.068-0.012,0.125-0.035,0.173
		c-0.228,1.026-0.73,1.335-1.506,0.924c-0.457-0.251-0.662-0.56-0.616-0.924c0.046-0.273,0.263-0.595,0.65-0.958l0.068-0.034
		c0.137-0.16,0.331-0.343,0.582-0.548l0.65-0.411c-0.023-0.021-0.034-0.045-0.034-0.067c-0.023,0-0.035-0.012-0.035-0.033
		c-0.547,0.365-1.038,0.594-1.472,0.685c-1.118,0.388-1.688,0.114-1.711-0.821c-0.022-0.936,0.525-1.231,1.643-0.89
		c0.434,0.067,0.936,0.272,1.506,0.614c0.022-0.021,0.045-0.045,0.068-0.067c-0.229-0.137-0.468-0.272-0.719-0.411
		c-0.25-0.182-0.456-0.342-0.616-0.479c0-0.022-0.012-0.034-0.034-0.034c-0.913-0.729-0.97-1.356-0.171-1.884
		c0.799-0.5,1.346-0.182,1.643,0.959c0,0.021,0,0.046,0,0.068c0.045,0.092,0.08,0.192,0.103,0.309
		c0.069,0.365,0.114,0.775,0.137,1.232c0.022,0,0.045,0,0.068,0h0.034c0-0.139,0-0.285,0-0.445c0-0.479,0.045-0.879,0.137-1.197
		c0.182-1.164,0.685-1.518,1.506-1.063c0.844,0.435,0.844,1.063,0,1.883c-0.023,0-0.034,0.013-0.034,0.035
		c-0.16,0.158-0.365,0.342-0.616,0.547c-0.206,0.138-0.411,0.272-0.616,0.41c0,0.021,0.011,0.047,0.034,0.067l0.034,0.034
		c0.137-0.092,0.297-0.184,0.479-0.271c0.342-0.205,0.65-0.345,0.924-0.412l0.068-0.033
		C71.508,164.82,72.067,165.096,72.089,166.055z M74.246,162.083c0.16,0.067,0.331,0.137,0.514,0.205l-0.034-0.034l-1.164-0.479
		L74.246,162.083z M75.272,159.79c-0.068,0.022-0.125,0.058-0.171,0.103l0.068-0.035C75.193,159.835,75.227,159.813,75.272,159.79z
		 M89.819,162.355c0-0.364,0.114-0.686,0.342-0.957c0.251-0.297,0.639-0.525,1.164-0.687c0.342-0.092,0.639-0.137,0.89-0.137
		c0.639,0,1.096,0.272,1.369,0.819c0.251,0.436,0.377,1.049,0.377,1.85c0,0.938-0.126,1.938-0.377,3.013
		c0.091,0,0.171,0.013,0.24,0.034c0.045-0.318,0.126-0.662,0.24-1.025c0.365-1.277,0.776-2.236,1.232-2.875
		c0.411-0.595,0.89-0.892,1.438-0.892c0.456,0,0.936,0.239,1.438,0.719c0.547,0.502,0.821,1.005,0.821,1.507
		s-0.274,0.98-0.821,1.438c-0.479,0.39-1.073,0.742-1.78,1.063c-0.548,0.252-1.141,0.469-1.78,0.648l-0.103,0.035
		c0.023,0.046,0.034,0.091,0.034,0.137c0.023,0.046,0.034,0.091,0.034,0.139l0.753-0.273c1.095-0.297,2.03-0.445,2.806-0.445
		c0.685,0.021,1.209,0.148,1.575,0.377c0.457,0.273,0.685,0.719,0.685,1.335c0,0.091-0.011,0.183-0.034,0.273
		c0,0.137-0.023,0.297-0.068,0.479c-0.137,0.569-0.354,0.991-0.65,1.268c-0.251,0.25-0.582,0.376-0.993,0.376
		c-0.844,0-1.883-0.503-3.115-1.507c-0.228-0.184-0.456-0.387-0.685-0.615c-0.16-0.114-0.308-0.251-0.445-0.411
		c-0.068,0.092-0.137,0.172-0.206,0.239l0.548,0.479c0.776,0.755,1.369,1.462,1.78,2.123c0.342,0.615,0.514,1.142,0.514,1.574
		c0,0.364-0.114,0.685-0.342,0.958c-0.229,0.273-0.628,0.502-1.198,0.686c-0.342,0.092-0.639,0.137-0.89,0.137
		c-0.616,0-1.061-0.272-1.334-0.82c-0.251-0.436-0.377-1.025-0.377-1.78c0-0.729,0.114-1.585,0.342-2.565l0.137-0.547
		c-0.091,0-0.183-0.014-0.274-0.034c-0.091,0.343-0.182,0.674-0.274,0.993c-0.365,1.254-0.787,2.201-1.266,2.84
		c-0.434,0.594-0.913,0.891-1.438,0.891c-0.479,0-0.958-0.238-1.438-0.719c-0.16-0.139-0.297-0.286-0.411-0.445
		c-0.091,0.206-0.217,0.434-0.376,0.686c-0.388,0.64-0.855,1.222-1.403,1.746c-1.529,1.438-3.217,2.063-5.066,1.884
		c-3.103-0.32-6.286-2.956-9.549-7.907c-0.183-0.271-0.376-0.57-0.582-0.893l-0.034-0.031l3.149-1.438
		c2.442-0.891,4.655-1.232,6.64-1.027c2.533,0.252,4.507,1.382,5.921,3.39c0.388,0.569,0.742,1.21,1.061,1.917
		c0.137-0.297,0.365-0.57,0.685-0.82c0.457-0.365,1.05-0.709,1.78-1.027c0.046-0.021,0.091-0.045,0.137-0.067
		c0.593-0.251,1.187-0.444,1.78-0.582c-0.023-0.046-0.045-0.091-0.068-0.137c0-0.048,0-0.08,0-0.104
		c-1.278,0.41-2.453,0.615-3.525,0.615c-0.639,0-1.164-0.113-1.575-0.342c-0.479-0.297-0.719-0.753-0.719-1.369
		c0-0.229,0.045-0.491,0.137-0.787c0.114-0.547,0.32-0.958,0.617-1.23c0.25-0.252,0.582-0.377,0.992-0.377
		c0.822,0,1.86,0.514,3.115,1.539c0.411,0.342,0.788,0.687,1.13,1.026c0.045-0.045,0.103-0.103,0.171-0.171
		c-0.183-0.137-0.365-0.296-0.548-0.479c-0.798-0.776-1.403-1.483-1.814-2.123C89.991,163.338,89.819,162.813,89.819,162.355z
		 M86.842,157.428c0.297,0.274,0.468,0.524,0.513,0.754v0.067c-0.913,3.058-2.784,4.792-5.613,5.203
		c-1.643,0.251-3.514,0.057-5.613-0.582l-2.636-1.062h-0.034v-0.068c2.396-3.719,4.963-5.784,7.702-6.195
		c1.209-0.184,2.373-0.034,3.491,0.445C85.541,156.355,86.271,156.835,86.842,157.428z M85.918,138.534
		c-0.046,0.137-0.092,0.285-0.137,0.444l-0.068,0.274C85.781,139.001,85.849,138.762,85.918,138.534z M86.157,131.997l0.034,0.171
		c0-0.046-0.011-0.114-0.034-0.206V131.997z M82.632,145.894l0.034,0.034c0.57,0.045,1.095,0.147,1.574,0.308l0.103,0.034
		c0.479,0.16,0.924,0.376,1.335,0.65l0.308,0.205c0.32,0.274,0.593,0.57,0.822,0.89l0.068,0.069c0.411,0.57,0.673,1.221,0.787,1.95
		c0.114,0.569,0.137,1.118,0.069,1.644c-0.046,0.389-0.114,0.639-0.206,0.754l-0.034,0.033c-1.666,0.821-3.161,0.844-4.484,0.068
		l-0.068-0.034l-0.445-0.308c-0.297-0.274-0.479-0.445-0.548-0.516l-0.069-0.033c-0.273-0.298-0.547-0.674-0.821-1.129l-0.034-0.07
		c-0.25-0.388-0.49-0.844-0.719-1.369l-0.034-0.034c-0.297-0.639-0.536-1.323-0.719-2.054l-0.206-0.89v-0.034
		C80.555,145.859,81.651,145.802,82.632,145.894z M70.481,146.646l0.137,0.069c0.958,0.479,1.837,1.106,2.636,1.883l0.205,0.171
		c0.913,0.936,1.62,1.961,2.123,3.081c0.319,0.707,0.467,1.221,0.445,1.541l-0.034,0.135c-1.483,2.353-3.24,3.869-5.271,4.555
		l-0.205,0.033c-0.685,0.205-1.38,0.318-2.088,0.343h-0.171c-0.273,0-0.685-0.021-1.232-0.065l-0.89-0.174
		c-0.616-0.137-1.266-0.33-1.951-0.582l-0.171-0.033c-0.616-0.25-1.255-0.547-1.917-0.891l-0.137-0.066
		c-0.73-0.412-1.415-0.834-2.053-1.269l-0.103-0.104c-1.187-0.799-2.339-1.731-3.457-2.807l-1.335-1.301l-0.034-0.068l0.034-0.033
		c1.871-1.598,3.72-2.84,5.545-3.73l0.137-0.034c0.776-0.388,1.54-0.707,2.293-0.958l0.137-0.034
		c0.799-0.229,1.632-0.388,2.499-0.479h0.137c0.685-0.068,1.335-0.057,1.951,0.035l0.342,0.034
		C68.918,146.053,69.728,146.304,70.481,146.646z M73.493,137.438c0.936,0,1.78,0.297,2.533,0.891
		c0.273,0.205,0.513,0.433,0.719,0.685c0.137,0.205,0.217,0.354,0.239,0.444c-0.022,0.022-0.045,0.034-0.068,0.034l0.068,0.035
		l-0.103,0.067c-0.045,0.046-0.091,0.104-0.137,0.172c0.068-0.046,0.137-0.091,0.206-0.138c-0.799,1.666-2.008,2.453-3.628,2.362
		c-1.597-0.114-2.635-0.263-3.115-0.445c-0.068-0.022-0.125-0.046-0.171-0.068l-0.205-0.103c-0.091-0.046-0.194-0.091-0.308-0.137
		c-0.319-0.16-0.582-0.309-0.787-0.445l-0.411-0.239c0.228-0.274,0.479-0.548,0.753-0.821c0.045-0.047,0.103-0.092,0.171-0.138
		c0-0.021,0.012-0.034,0.034-0.034C70.698,138.169,72.101,137.461,73.493,137.438z M83.453,126.35l-0.376,0.342
		c-0.06,0.079-0.128,0.159-0.205,0.239L83.453,126.35z M83.83,125.801l0.035,0.035c3.56,4.769,4.952,8.967,4.175,12.596
		c-0.319,1.574-1.038,2.966-2.156,4.176c-0.844,0.936-1.78,1.631-2.807,2.088c-0.547,0.228-0.947,0.319-1.198,0.273l-0.103-0.034
		c-3.423-2.578-4.723-5.75-3.902-9.515c0.457-2.168,1.575-4.416,3.354-6.744L83.83,125.801z M82.632,127.17
		c-0.091,0.114-0.171,0.229-0.24,0.343c0.068-0.091,0.137-0.183,0.206-0.273L82.632,127.17z M70.618,123.028
		c1.78,1.005,3.206,2.316,4.279,3.937c1.164,1.734,1.882,3.686,2.156,5.853c0.205,1.712,0.137,3.035-0.206,3.972
		c-0.068,0.205-0.137,0.33-0.206,0.376l-0.103,0.034c-4.244,0.639-7.553-0.821-9.926-4.382c-1.347-2.007-2.328-4.574-2.944-7.701
		l-0.513-4.107v-0.068h0.034C66.088,121.192,68.564,121.888,70.618,123.028z M73.527,118.545c0.273,0.639,0.365,1.313,0.273,2.02
		c-0.068,0.548-0.228,1.038-0.479,1.472c-0.137,0.229-0.251,0.365-0.342,0.411h-0.068c-1.849-0.046-3.115-0.833-3.799-2.362
		c-0.365-0.89-0.536-1.974-0.514-3.251l0.171-1.644l0.034-0.034h0.034C71.279,115.933,72.843,117.062,73.527,118.545z
		 M72.962,119.605c-0.02-0.058-0.048-0.114-0.085-0.171v0.034C72.914,119.506,72.942,119.552,72.962,119.605z M71.2,116.766
		l0.068,0.068c0.068,0.091,0.148,0.171,0.24,0.239c-0.091-0.114-0.194-0.229-0.308-0.343V116.766z M77.635,115.909h0.034
		c2.054,0.844,3.514,1.825,4.381,2.944l0.034,0.033c0.479,0.617,0.765,1.278,0.856,1.986c0.183,1.209-0.171,2.498-1.062,3.867
		c-0.661,1.026-1.517,1.951-2.567,2.772c-0.456,0.342-0.798,0.57-1.027,0.685l-0.239,0.068c-2.077-0.319-3.252-1.357-3.526-3.114
		c-0.228-1.529,0.217-3.526,1.335-5.99l0.479-0.821c0.228-0.457,0.49-0.947,0.787-1.473l0.514-0.924L77.635,115.909L77.635,115.909z
		 M85.473,128.882c0.023,0.068,0.046,0.125,0.068,0.171c-0.022-0.091-0.057-0.171-0.103-0.239L85.473,128.882z M88.485,125.63h0.034
		l1.917,0.821c1.438,0.73,2.521,1.587,3.251,2.567c1.324,1.734,1.393,3.708,0.206,5.922l-0.068,0.068
		c-0.137,0.091-0.399,0.183-0.787,0.273c-0.434,0.091-0.879,0.114-1.335,0.068c-1.301-0.091-2.293-0.593-2.978-1.506
		c-1.209-1.598-1.289-4.324-0.239-8.18L88.485,125.63L88.485,125.63z M123.979,139.287l0.069-0.068
		c0.638-0.867,1.358-1.723,2.156-2.567l1.061-0.992v0.034c1.187,1.483,2.088,2.887,2.704,4.21l0.034,0.103
		c0.388,0.799,0.662,1.563,0.822,2.293l0.034,0.103c0.16,0.799,0.217,1.563,0.171,2.294v0.137l-0.068,0.444
		c-0.068,0.617-0.228,1.21-0.479,1.78l-0.068,0.137c-0.434,0.959-1.072,1.803-1.917,2.533c-0.662,0.57-1.38,1.026-2.157,1.37
		c-0.525,0.229-0.901,0.318-1.13,0.272c-0.022,0-0.057-0.011-0.102-0.033c-2.374-1.553-3.56-3.492-3.56-5.819v-0.137
		c0-0.297,0.023-0.57,0.068-0.821c0.069-0.411,0.148-0.776,0.24-1.096l0.034-0.103c0.183-0.594,0.457-1.255,0.822-1.985l0.034-0.103
		C123.066,140.656,123.477,139.994,123.979,139.287z M112.136,144.764c0.867-1.347,2.282-2.646,4.245-3.902l2.738-1.506v0.034
		c1.803,3.766,1.985,6.789,0.548,9.07c-0.617,0.981-1.506,1.78-2.67,2.396c-0.89,0.479-1.802,0.787-2.738,0.926
		c-0.502,0.066-0.845,0.066-1.027,0l-0.068-0.068C110.995,149.453,110.653,147.137,112.136,144.764z M102.279,143.874l0.342,0.616
		c0.388,0.844,0.685,1.711,0.891,2.601l0.034,0.239c0.251,1.552,0.171,3.161-0.24,4.826c-0.319,1.277-0.81,2.453-1.471,3.525
		c-0.479,0.752-0.879,1.209-1.198,1.368l-0.137,0.033c-4.313,0.092-7.461-1.3-9.447-4.175l-0.103-0.205
		c-0.16-0.229-0.376-0.596-0.65-1.098c-0.251-0.502-0.468-1.025-0.65-1.573l-0.034-0.171c-0.319-1.026-0.548-2.076-0.685-3.148
		l-0.034-0.171c-0.137-1.21-0.183-2.385-0.137-3.526v-0.171c0.022-1.644,0.182-3.319,0.479-5.031l0.445-2.156l0.103,0.034
		c2.669,0.799,4.986,1.768,6.948,2.909l0.137,0.103c1.141,0.685,2.133,1.415,2.978,2.191l0.137,0.102
		c0.913,0.867,1.643,1.78,2.191,2.738L102.279,143.874z M107.892,121.625c0.365,0.479,0.548,0.845,0.548,1.096l-0.034,0.103
		c-1.871,3.856-4.723,5.762-8.557,5.716c-2.236-0.022-4.666-0.695-7.291-2.019l-2.327-1.438c0.16,0.114,0.308,0.229,0.445,0.343
		l-1.472-0.89l0.034-0.034c3.97-4.427,7.827-6.618,11.569-6.572c1.597,0,3.103,0.434,4.518,1.301
		C106.397,119.892,107.253,120.689,107.892,121.625z M123.397,127.82l0.068-0.034c2.351-0.183,4.94,0.16,7.771,1.027h0.034
		l-0.034,0.034c-0.891,1.118-2.02,2.339-3.389,3.662c-2.761,2.602-5.363,4.381-7.804,5.34c-2.807,1.118-5.26,1.038-7.359-0.24
		c-0.045-0.045-0.08-0.113-0.102-0.205c-0.023-0.251,0.057-0.662,0.239-1.232c0.411-1.369,1.106-2.67,2.088-3.901
		c1.324-1.666,2.967-2.876,4.929-3.628C121.001,128.186,122.188,127.912,123.397,127.82z M118.092,122.892h0.068
		c0.365,0,0.765,0.046,1.198,0.137h0.069c0.342,0.069,0.752,0.194,1.232,0.377l0.068,0.034c0.89,0.343,1.677,0.742,2.362,1.198
		h0.034l-0.034,0.034c-0.617,0.845-1.244,1.54-1.883,2.088l-0.034,0.034c-0.457,0.342-0.833,0.594-1.129,0.753l-0.034,0.034
		c-0.434,0.205-0.844,0.343-1.232,0.41l-0.069,0.034l-0.239,0.035c-0.342,0.046-0.685,0.034-1.027-0.035h-0.103
		c-1.049-0.182-1.951-0.719-2.703-1.608c-0.183-0.251-0.286-0.445-0.308-0.581v-0.069c0.502-1.528,1.38-2.452,2.635-2.772
		l0.513-0.103C117.75,122.869,117.955,122.869,118.092,122.892z M121.31,119.812c0.068,0.068,0.148,0.137,0.239,0.205
		c-0.068-0.068-0.137-0.137-0.205-0.205H121.31z M120.385,120.838c-0.593-0.958-0.958-1.928-1.095-2.909
		c-0.092-0.525-0.08-0.89,0.034-1.095l0.068-0.068c3.013-2.306,6.036-2.67,9.071-1.096c1.757,0.912,3.411,2.418,4.963,4.519
		c0.799,1.049,1.415,1.996,1.849,2.84v0.069h-0.034c-4.906,1.939-8.843,2.145-11.809,0.615v-0.034
		C122.177,123.018,121.161,122.07,120.385,120.838z M118.914,98.111l0.034,0.034c0.958,1.346,1.654,2.59,2.088,3.73l0.034,0.068
		c0.296,0.753,0.49,1.415,0.582,1.985l0.034,0.103c0.068,0.548,0.091,1.073,0.068,1.574c0,0.137-0.011,0.274-0.034,0.411
		l-0.068,0.479c-0.114,0.57-0.286,1.061-0.513,1.472l-0.069,0.137c-0.411,0.799-0.993,1.495-1.746,2.088
		c-0.617,0.456-1.244,0.81-1.883,1.061c-0.457,0.16-0.787,0.218-0.993,0.171l-0.102-0.033c-1.963-1.438-2.887-3.138-2.773-5.101
		v-0.137c0.023-0.183,0.057-0.364,0.103-0.548c0-0.046,0-0.091,0-0.137c0.046-0.297,0.137-0.616,0.274-0.958l0.034-0.068
		c0.182-0.548,0.433-1.096,0.752-1.644l0.069-0.103c0.319-0.502,0.696-1.05,1.129-1.643l0.069-0.069
		c0.935-1.14,1.894-2.088,2.875-2.84L118.914,98.111z M105.565,98.897l0.034-0.033v0.033c2.145,2.328,3.743,4.564,4.792,6.709
		c0.936,1.917,1.438,3.765,1.506,5.545c0.045,2.146-0.502,4.005-1.643,5.579c-0.411,0.571-0.867,1.05-1.369,1.438
		c-0.411,0.319-0.73,0.479-0.959,0.479l-0.102-0.034c-2.875-1.871-4.37-4.838-4.484-8.899c-0.046-1.3,0.045-2.669,0.273-4.107
		c0.183-1.072,0.434-2.179,0.753-3.319L105.565,98.897z M90.436,107.318h0.035c1.666-0.32,3.149-0.445,4.449-0.377h0.103
		c0.821,0.069,1.54,0.183,2.156,0.343l0.103,0.034c0.753,0.229,1.38,0.502,1.882,0.821l0.445,0.274
		c0.434,0.319,0.821,0.695,1.164,1.129l0.068,0.103c0.571,0.753,0.97,1.608,1.198,2.567c0.183,0.799,0.251,1.552,0.205,2.259
		c-0.045,0.524-0.137,0.878-0.273,1.061l-0.069,0.069c-2.236,1.232-4.255,1.357-6.058,0.376l-0.753-0.479
		c-0.16-0.137-0.411-0.354-0.753-0.65l-0.069-0.067c-0.479-0.479-0.89-0.971-1.232-1.473l-0.034-0.068
		c-0.319-0.456-0.673-1.061-1.061-1.814l-0.034-0.102c-0.434-0.845-0.81-1.758-1.13-2.738L90.436,107.318z M83.659,105.606
		c-0.137-0.091-0.274-0.183-0.411-0.273l-1.369-1.061l-0.034-0.035h0.034c2.351-2.327,4.382-3.377,6.093-3.148
		c0.958,0.137,1.723,0.65,2.293,1.54c0.206,0.319,0.365,0.662,0.479,1.027c0.114,0.296,0.16,0.513,0.137,0.65l-0.035,0.067
		c-0.319,0.479-0.65,0.891-0.992,1.232c-0.958,0.891-2.1,1.244-3.423,1.062C85.564,106.554,84.64,106.2,83.659,105.606z
		 M78.695,111.049c-0.502-2.533-0.753-3.811-0.753-3.833v-0.034h0.068c6.024,0,10.28,1.438,12.767,4.313
		c1.073,1.232,1.757,2.669,2.054,4.313c0.229,1.255,0.206,2.441-0.068,3.56c-0.114,0.57-0.274,0.947-0.479,1.13l-0.103,0.068
		c-4.176,1.187-7.542,0.309-10.098-2.636C80.601,116.217,79.471,113.924,78.695,111.049z M96.563,91.642l0.103,0.034
		c0.981,0.525,1.826,1.084,2.533,1.678l0.103,0.068c0.776,0.661,1.403,1.357,1.882,2.087l0.103,0.138l0.273,0.479
		c0.388,0.685,0.662,1.38,0.822,2.087l0.068,0.206c0.274,1.255,0.285,2.544,0.034,3.868c-0.205,1.072-0.559,2.042-1.061,2.909
		c-0.068,0.159-0.137,0.297-0.206,0.41c-0.273,0.411-0.502,0.662-0.685,0.754l-0.137,0.033c-2.031,0.16-3.753-0.103-5.168-0.787
		c-1.027-0.501-1.905-1.221-2.635-2.156l-0.103-0.171c-0.16-0.228-0.342-0.514-0.547-0.855c-0.229-0.389-0.422-0.799-0.582-1.232
		l-0.068-0.137c-0.274-0.73-0.502-1.574-0.685-2.533l-0.034-0.103c-0.16-0.981-0.251-1.939-0.274-2.875v-0.137
		c-0.046-1.301,0.011-2.659,0.171-4.074l0.273-1.711v-0.068l0.069,0.034C92.98,90.09,94.896,90.775,96.563,91.642z M175.525,109.646
		l0.104-0.205c0.273-0.343,0.57-0.685,0.891-1.026c0.436-0.457,0.879-0.867,1.334-1.232l0.139-0.104
		c0.865-0.661,1.85-1.277,2.943-1.848l0.138-0.103c1.05-0.502,2.226-0.993,3.524-1.472l0.17-0.034
		c1.646-0.548,3.377-0.993,5.203-1.335c0.912-0.16,1.666-0.274,2.26-0.343h0.067v0.068c0.206,2.989,0.08,5.683-0.376,8.078
		l-0.033,0.171c-0.252,1.393-0.617,2.658-1.097,3.8l-0.067,0.137c-0.524,1.232-1.164,2.315-1.918,3.252l-0.615,0.685
		c-0.686,0.707-1.447,1.322-2.293,1.848l-0.238,0.137c-1.461,0.845-3.094,1.357-4.896,1.54c-1.438,0.16-2.807,0.104-4.105-0.171
		c-0.893-0.205-1.495-0.444-1.814-0.719l-0.066-0.137C173.084,116.343,173.336,112.681,175.525,109.646z M175.184,97.871v-0.034
		l0.035,0.034c0.686,1.552,1.038,2.989,1.061,4.313l0.035,0.035c0,0.729-0.08,1.426-0.238,2.088
		c-0.299,1.163-0.881,2.179-1.746,3.046c-0.641,0.616-1.334,1.095-2.088,1.438c-0.319,0.137-0.536,0.205-0.65,0.205l-0.137-0.034
		c-0.846-1.095-1.05-2.476-0.616-4.142c0.365-1.46,1.198-3.058,2.499-4.792C173.997,99.161,174.613,98.441,175.184,97.871z
		 M179.873,98.932c0.229,0.092,0.49,0.252,0.787,0.479c0.183,0.16,0.342,0.297,0.479,0.411c0-0.022,0.022-0.046,0.069-0.068
		c-0.185-0.138-0.354-0.286-0.515-0.445c-0.252-0.251-0.435-0.49-0.549-0.719c-0.729-0.89-0.648-1.494,0.239-1.813
		c0.892-0.32,1.337,0.114,1.337,1.3v0.035c0,0.091,0,0.193,0,0.308c0,0.388-0.048,0.799-0.139,1.232c0.046,0,0.079,0,0.104,0
		c0.047-0.137,0.08-0.285,0.104-0.445c0.092-0.388,0.205-0.707,0.343-0.959c0.022-0.045,0.033-0.079,0.033-0.102
		c0.457-1.073,1.026-1.301,1.712-0.685c0.707,0.615,0.559,1.209-0.443,1.779l-0.035,0.034c-0.159,0.114-0.364,0.229-0.614,0.342
		c-0.229,0.092-0.479,0.184-0.754,0.274l-0.034,0.034v0.034l0.034,0.068c0.092-0.022,0.204-0.057,0.342-0.103
		c0.437-0.137,0.812-0.217,1.13-0.239h0.104c1.142-0.16,1.619,0.228,1.438,1.164c-0.185,0.89-0.767,1.049-1.745,0.479
		c-0.252-0.091-0.535-0.262-0.855-0.514c-0.184-0.183-0.342-0.319-0.479-0.41c-0.021,0.045-0.045,0.08-0.067,0.103l0.479,0.479
		c0.252,0.252,0.443,0.479,0.583,0.685c0.707,0.937,0.615,1.553-0.272,1.849c-0.892,0.274-1.336-0.171-1.336-1.335l0.033-0.034
		c-0.021-0.091-0.033-0.171-0.033-0.239c0-0.297,0.047-0.65,0.139-1.061c0-0.092,0.011-0.172,0.033-0.24c-0.045,0-0.08,0-0.104,0
		l-0.104,0.445c-0.112,0.41-0.238,0.753-0.375,1.026l-0.035,0.034c-0.457,1.072-1.026,1.301-1.711,0.685
		c-0.687-0.616-0.537-1.209,0.443-1.779c0.159-0.137,0.377-0.263,0.649-0.377c0.274-0.114,0.549-0.217,0.821-0.308l-0.033-0.035
		v-0.067c-0.571,0.205-1.084,0.308-1.54,0.308H179.5c-1.143,0.137-1.62-0.251-1.438-1.164
		C178.264,98.487,178.869,98.339,179.873,98.932z M157.096,105.11c-0.044-0.069-0.084-0.132-0.121-0.188v0.035
		C157.012,104.993,157.052,105.045,157.096,105.11z M155.264,103.45h0.033c3.311,2.122,5.146,4.404,5.512,6.846
		c0.159,1.072,0.034,2.11-0.377,3.115c-0.297,0.752-0.719,1.392-1.266,1.916c-0.297,0.297-0.525,0.457-0.686,0.479h-0.068
		c-2.715-0.821-4.255-2.487-4.621-4.997c-0.229-1.461-0.057-3.114,0.514-4.963l0.926-2.362L155.264,103.45z M167.072,104.307
		l0.068-0.069l0.032,0.069c3.628,7.553,4.759,13.885,3.39,18.996c-0.775,2.898-2.271,5.18-4.483,6.846
		c-0.798,0.593-1.597,1.05-2.396,1.369c-0.687,0.251-1.178,0.342-1.474,0.273l-0.138-0.068c-3.08-3.72-3.881-8.329-2.396-13.828
		c0.82-3.058,2.293-6.24,4.415-9.55C165.167,106.68,166.16,105.333,167.072,104.307z M139.69,90.102l0.205-0.034
		c1.506-0.183,3.058-0.297,4.655-0.342h0.548c0.89-0.022,1.768-0.022,2.635,0l2.122,0.103c0,0.022,0,0.046,0,0.069V90
		c-0.547,3.788-1.403,7.142-2.567,10.063l-0.068,0.205c-0.502,1.255-1.083,2.419-1.745,3.492l-0.069,0.171
		c-0.73,1.163-1.529,2.213-2.396,3.148l-0.137,0.172c-0.73,0.729-1.506,1.403-2.328,2.02l-0.445,0.239
		c-1.095,0.753-2.293,1.323-3.594,1.711l-0.206,0.069c-1.597,0.456-3.274,0.649-5.031,0.581h-0.376
		c-2.054-0.137-3.96-0.594-5.717-1.369c-1.095-0.479-1.802-0.924-2.122-1.335l-0.069-0.171c-0.753-4.244-0.285-7.826,1.404-10.748
		l0.136-0.239c0.548-0.936,1.244-1.802,2.088-2.601l0.171-0.172c0.502-0.434,1.003-0.832,1.505-1.197l1.233-0.788
		c0.89-0.524,1.848-0.97,2.875-1.334l0.171-0.068c1.004-0.388,2.065-0.719,3.184-0.993l0.239-0.068
		C137.043,90.512,138.275,90.284,139.69,90.102z M124.39,160.852c0.296-0.115,0.661-0.218,1.095-0.31
		c0.685-0.136,1.392-0.228,2.122-0.272c-0.022-0.047-0.034-0.08-0.034-0.104v-0.137c-0.41,0.046-0.844,0.068-1.3,0.068
		c-0.662,0-1.267-0.059-1.814-0.173c-0.115-0.021-0.228-0.032-0.342-0.032c-2.533-0.345-3.343-1.429-2.43-3.252
		c0.89-1.805,2.236-1.814,4.039-0.035c0,0.021,0.011,0.047,0.035,0.067c0.365,0.297,0.775,0.707,1.232,1.231
		c0.365,0.434,0.685,0.879,0.958,1.336c0.046-0.069,0.103-0.114,0.171-0.139c-0.228-0.318-0.456-0.662-0.685-1.025
		c-0.456-0.729-0.776-1.369-0.958-1.917c0-0.021-0.012-0.058-0.034-0.104c-1.027-2.305-0.525-3.548,1.505-3.729
		c2.031-0.183,2.75,0.959,2.157,3.423c-0.023,0.047-0.034,0.081-0.034,0.104c-0.092,0.64-0.319,1.393-0.685,2.258
		c-0.137,0.344-0.263,0.65-0.376,0.927c0.068,0.021,0.137,0.057,0.206,0.103c0.113-0.25,0.239-0.514,0.376-0.785
		c0.434-0.822,0.867-1.483,1.301-1.985c0.045-0.068,0.091-0.138,0.136-0.206c1.506-2.03,2.841-2.213,4.005-0.547
		c1.164,1.664,0.525,2.852-1.917,3.559c-0.046,0-0.091,0.014-0.137,0.035c-0.342,0.137-0.753,0.251-1.232,0.342
		c-0.548,0.137-1.164,0.229-1.848,0.273l-0.171,0.033c0,0.022,0,0.059,0,0.104v0.139c0.525-0.048,1.027-0.068,1.506-0.068
		c0.73,0,1.346,0.046,1.848,0.137c0.023,0,0.046,0.012,0.069,0.034h0.068c2.51,0.297,3.332,1.356,2.465,3.185
		c-0.867,1.824-2.214,1.858-4.04,0.104c-0.388-0.299-0.821-0.73-1.301-1.303c-0.319-0.388-0.638-0.819-0.958-1.301v-0.033
		c-0.069,0.067-0.137,0.125-0.205,0.17c0.228,0.345,0.456,0.697,0.685,1.063c0.41,0.687,0.696,1.302,0.855,1.849
		c0.023,0.047,0.045,0.092,0.068,0.139c1.004,2.351,0.491,3.594-1.541,3.73c-2.008,0.158-2.704-0.992-2.087-3.457
		c0-0.048,0.011-0.104,0.034-0.173c0.115-0.614,0.342-1.335,0.685-2.155c0.137-0.318,0.286-0.641,0.445-0.959
		c-0.091-0.021-0.171-0.058-0.24-0.104c-0.091,0.205-0.217,0.468-0.376,0.787c-0.457,0.845-0.913,1.52-1.369,2.021
		c-0.023,0.045-0.057,0.104-0.103,0.17c-1.529,2.01-2.863,2.168-4.004,0.479s-0.491-2.863,1.951-3.523
		C124.253,160.885,124.321,160.873,124.39,160.852z M159.404,113.308c0.021-0.065,0.033-0.128,0.035-0.188
		c-0.002,0.038-0.016,0.09-0.035,0.153V113.308z M169.4,128.3v-0.137c1.619-3.423,4.129-5.135,7.529-5.135
		c1.983,0,4.151,0.57,6.504,1.712c1.187,0.57,2.178,1.13,2.978,1.677l0.034,0.034l-0.034,0.034c-3.491,3.994-6.892,5.99-10.2,5.99
		c-1.438,0-2.784-0.377-4.039-1.129c-0.959-0.57-1.734-1.268-2.328-2.088C169.547,128.848,169.4,128.527,169.4,128.3z
		 M119.837,170.059l0.548-1.197l0.034,0.033c1.438,0.799,2.636,1.633,3.594,2.498l0.069,0.068c0.593,0.548,1.072,1.084,1.437,1.609
		l0.069,0.103c0.411,0.595,0.719,1.197,0.924,1.813l0.137,0.479c0.137,0.502,0.205,1.039,0.205,1.608l-0.034,0.138
		c-0.023,0.912-0.251,1.813-0.685,2.704c-0.365,0.729-0.799,1.349-1.301,1.849c-0.319,0.364-0.593,0.57-0.821,0.615h-0.103
		c-2.487-0.479-4.107-1.652-4.861-3.523l-0.273-0.821c-0.069-0.319-0.125-0.64-0.171-0.959v-0.138
		c-0.069-0.479-0.08-1.096-0.034-1.85l0.034-0.104c0.068-0.774,0.183-1.461,0.342-2.053v-0.07
		C119.176,171.93,119.473,170.994,119.837,170.059z M106.557,180.564v-0.067c-0.136-0.479-0.239-0.981-0.307-1.506l-0.069-0.65
		c0.867-0.022,1.632,0.035,2.293,0.171h0.068c0.457,0.139,0.81,0.264,1.061,0.377l0.034,0.034c0.366,0.16,0.662,0.354,0.891,0.582
		l0.068,0.034l0.137,0.137c0.183,0.184,0.354,0.411,0.514,0.686l0.034,0.068c0.228,0.41,0.354,0.879,0.376,1.402
		c0.023,0.411-0.011,0.8-0.102,1.164c-0.046,0.251-0.114,0.422-0.206,0.514l-0.034,0.034c-1.254,0.435-2.304,0.319-3.148-0.343
		l-0.342-0.273l-0.342-0.41v-0.067c-0.16-0.205-0.331-0.479-0.514-0.821v-0.066C106.808,181.264,106.671,180.932,106.557,180.564z
		 M100.328,175.672c0.936-0.913,2.042-1.529,3.32-1.849c0.958-0.229,1.882-0.274,2.773-0.138c0.388,0.047,0.639,0.113,0.753,0.205
		c0.045,0.021,0.08,0.058,0.103,0.104c0.16,1.506-0.434,2.898-1.78,4.176c-1.187,1.164-2.887,2.168-5.1,3.012l-0.855,0.311
		c-0.388,0.113-0.799,0.238-1.232,0.376c0.023,0,0.046,0,0.068,0l-0.924,0.309H97.42v-0.032c0.251-1.805,0.742-3.345,1.472-4.621
		v-0.035C99.346,176.732,99.826,176.128,100.328,175.672z M154.988,117.176v0.034c-0.25,0.205-0.58,0.434-0.991,0.685
		c-0.343,0.205-0.708,0.389-1.097,0.548l-0.033,0.034c0,0.022,0.012,0.057,0.033,0.103c0,0.022,0.013,0.057,0.035,0.103l0.648-0.308
		c0.57-0.252,1.084-0.411,1.541-0.479c0.066-0.022,0.139-0.034,0.205-0.034c1.777-0.434,2.604,0.08,2.465,1.54
		c-0.138,1.483-1.039,1.849-2.705,1.096c-0.434-0.137-0.91-0.377-1.438-0.719c-0.25-0.16-0.502-0.32-0.752-0.479
		c-0.047,0.046-0.08,0.092-0.104,0.137c0.345,0.229,0.649,0.468,0.925,0.719c0.297,0.251,0.549,0.502,0.754,0.754
		c0.067,0.067,0.137,0.125,0.205,0.171c1.256,1.346,1.209,2.327-0.138,2.943c-1.349,0.594-2.11-0.022-2.294-1.849v-0.034
		c-0.066-0.342-0.104-0.741-0.104-1.198c0-0.388,0.022-0.787,0.067-1.197c0-0.023,0.013-0.046,0.034-0.068h-0.034
		c-0.067,0-0.125-0.012-0.171-0.035l-0.104,0.788c-0.092,0.616-0.217,1.13-0.377,1.54c-0.021,0.045-0.033,0.103-0.033,0.171
		c-0.479,1.506-1.198,2.043-2.156,1.608c-0.137-0.068-0.286-0.159-0.445-0.273c-1.187-0.867-1.038-1.825,0.445-2.875l0.034-0.034
		c0.25-0.228,0.57-0.457,0.958-0.685c0.388-0.228,0.776-0.411,1.165-0.548c-0.021-0.046-0.033-0.08-0.033-0.103
		c-0.021-0.022-0.033-0.046-0.033-0.068c-0.754,0.365-1.45,0.604-2.088,0.719c-0.092,0-0.194,0.012-0.308,0.034
		c-1.78,0.41-2.601-0.126-2.465-1.608c0.16-1.461,1.073-1.803,2.738-1.027l0.035,0.034c0.023,0,0.057,0.012,0.103,0.034
		c0.365,0.138,0.787,0.354,1.267,0.65c0.272,0.183,0.524,0.365,0.752,0.548c0.022-0.068,0.057-0.114,0.104-0.137
		c-0.32-0.229-0.64-0.468-0.959-0.719c-0.366-0.319-0.663-0.616-0.891-0.89c-0.023-0.023-0.045-0.047-0.069-0.069
		c-0.091-0.113-0.194-0.228-0.308-0.342c-0.822-1.005-0.822-1.78,0-2.327c0.136-0.092,0.273-0.172,0.411-0.24
		c1.323-0.616,2.088-0.022,2.293,1.78c0,0.022,0.012,0.045,0.034,0.068c0.068,0.388,0.103,0.833,0.103,1.335
		c0,0.388-0.012,0.765-0.032,1.13c0.066,0,0.125,0,0.17,0c0-0.229,0.022-0.479,0.067-0.754c0.067-0.639,0.194-1.164,0.377-1.574
		c0-0.068,0.013-0.114,0.035-0.137c0.502-1.78,1.356-2.236,2.565-1.369C156.609,115.145,156.473,116.104,154.988,117.176z
		 M134.898,131.62c0.685-0.229,1.426-0.377,2.225-0.445h0.034c1.483-0.091,3.092,0.148,4.826,0.719l0.035,0.034h-0.035
		c-0.548,0.707-1.266,1.461-2.156,2.259c-1.757,1.598-3.411,2.67-4.963,3.218c-1.78,0.662-3.297,0.582-4.553-0.239
		c-0.045-0.022-0.068-0.069-0.068-0.137c0-0.206,0.057-0.469,0.171-0.788c0.273-0.844,0.73-1.643,1.369-2.396
		C132.627,132.817,133.666,132.076,134.898,131.62z M138.081,127.376c-0.091-0.092-0.194-0.171-0.308-0.24l0.034,0.034
		C137.899,127.239,137.99,127.307,138.081,127.376z M135.308,125.972c-0.113-0.045-0.228-0.079-0.342-0.102l0.035,0.034
		C135.114,125.927,135.217,125.949,135.308,125.972z M135.035,129.771c-0.821-0.502-1.563-1.301-2.225-2.396
		c-0.525-0.959-0.788-1.449-0.788-1.472c2.465-0.753,4.393-0.708,5.785,0.137c0.593,0.365,1.05,0.867,1.369,1.506
		c0.25,0.502,0.399,0.992,0.445,1.472c0.022,0.251,0,0.434-0.069,0.548l-0.034,0.034
		C137.967,130.604,136.472,130.662,135.035,129.771z M134.727,122.242c-0.137-0.206-0.263-0.389-0.376-0.549l0.787,1.335
		L134.727,122.242z M128.874,123.576c0.182,0.022,0.365,0.046,0.547,0.068v-0.033h-0.239
		C129.09,123.588,128.987,123.576,128.874,123.576z M141.093,117.381l2.328,1.574c1.643,1.347,2.715,2.808,3.217,4.382
		c0.547,1.779,0.273,3.594-0.822,5.442c-0.045,0.068-0.103,0.114-0.171,0.137c-0.205,0.091-0.502,0.148-0.89,0.171
		c-0.936,0.046-1.803-0.137-2.602-0.548c-1.095-0.57-1.836-1.472-2.225-2.703c-0.206-0.707-0.296-1.518-0.273-2.431v-0.034
		c0.045-1.688,0.513-3.685,1.403-5.99v-0.034L141.093,117.381z M170.563,146.133c0.457-0.297,0.902-0.548,1.336-0.753l0.068-0.034
		c1.027-0.457,1.996-0.787,2.91-0.993h0.033v0.034c0.205,1.232,0.273,2.316,0.205,3.252v0.068c-0.068,0.594-0.172,1.118-0.309,1.575
		v0.034c-0.16,0.502-0.375,0.97-0.649,1.402l-0.034,0.034l-0.172,0.24c-0.25,0.343-0.523,0.627-0.82,0.855l-0.104,0.066
		c-0.547,0.388-1.188,0.662-1.916,0.82c-0.549,0.115-1.096,0.147-1.646,0.104c-0.342-0.045-0.593-0.125-0.753-0.238l-0.033-0.033
		c-0.846-1.645-0.9-3.114-0.172-4.417l0.378-0.514c0.112-0.183,0.272-0.376,0.479-0.582l0.035-0.034
		c0.363-0.343,0.729-0.627,1.094-0.855L170.563,146.133z M174.396,135.521h0.035c4.813,0.617,8.064,2.191,9.754,4.724
		c0.752,1.072,1.164,2.282,1.23,3.629c0.046,1.026-0.091,1.973-0.41,2.841c-0.158,0.456-0.318,0.741-0.479,0.855l-0.104,0.034
		c-3.443,0.548-6.047-0.479-7.805-3.08c-1.004-1.507-1.688-3.446-2.055-5.819l-0.205-3.114L174.396,135.521z M156.872,142.983
		v-0.171c1.599-3.332,4.005-4.997,7.224-4.997c1.801,0,3.764,0.514,5.887,1.54c1.072,0.525,1.949,1.038,2.637,1.541l0.033,0.033
		v0.034c-3.629,4.655-6.938,6.983-9.926,6.983c-1.713,0-3.185-0.719-4.416-2.157c-0.435-0.524-0.799-1.083-1.096-1.677
		C156.986,143.611,156.872,143.234,156.872,142.983z M156.734,127.719l0.067,0.067c0.524,0.479,0.981,0.993,1.369,1.541l0.034,0.067
		c0.388,0.571,0.686,1.142,0.891,1.712v0.103l0.139,0.377c0.137,0.502,0.191,1.004,0.17,1.506v0.171
		c-0.045,0.867-0.273,1.712-0.684,2.533c-0.345,0.662-0.755,1.243-1.232,1.745c-0.342,0.365-0.605,0.56-0.787,0.582l-0.104,0.035
		c-2.328-0.457-3.855-1.575-4.588-3.355l-0.033-0.137c-0.021-0.068-0.104-0.296-0.238-0.685c-0.068-0.296-0.114-0.593-0.137-0.89
		v-0.103c-0.069-0.502-0.069-1.096,0-1.78v-0.103c0.045-0.548,0.146-1.198,0.307-1.951l0.035-0.068c0.205-0.89,0.49-1.78,0.854-2.67
		l0.479-1.095l0.068,0.034C154.67,126.063,155.8,126.851,156.734,127.719z M147.665,138.329c-0.16,0.662-0.479,1.46-0.958,2.396
		c-0.183,0.388-0.376,0.765-0.582,1.129c0.068,0.023,0.147,0.058,0.239,0.104c0.137-0.251,0.285-0.514,0.445-0.787
		c0.616-0.958,1.209-1.712,1.779-2.26c0.023-0.045,0.057-0.08,0.103-0.103c0.228-0.273,0.456-0.514,0.685-0.719
		c1.62-1.438,2.92-1.277,3.901,0.479c1.164,2.008,0.332,3.285-2.498,3.833c-0.045,0.022-0.08,0.035-0.104,0.035
		c-0.045,0-0.091,0.011-0.137,0.034c-0.342,0.091-0.73,0.171-1.163,0.239c-0.616,0.068-1.324,0.103-2.123,0.103h-0.411
		c0,0.046,0,0.103,0,0.171c0,0.046,0,0.091,0,0.138h0.137c0.867,0,1.666,0.045,2.396,0.136c0.045,0.023,0.08,0.035,0.103,0.035
		c0.434,0.068,0.833,0.159,1.198,0.273c0.023,0,0.06,0,0.104,0c2.83,0.594,3.65,1.883,2.464,3.868
		c-1.027,1.734-2.315,1.894-3.868,0.479c-0.229-0.206-0.468-0.457-0.719-0.754l-0.034-0.034c-0.411-0.388-0.833-0.89-1.266-1.506
		c-0.32-0.479-0.639-1.016-0.958-1.608l-0.034-0.069c-0.092,0.047-0.171,0.104-0.239,0.172c0.228,0.364,0.422,0.741,0.582,1.13
		c0.457,0.912,0.764,1.711,0.924,2.396c0,0.022,0.011,0.057,0.035,0.103c0.89,2.762,0.171,4.119-2.157,4.072
		c-2.304-0.022-2.978-1.394-2.02-4.106l0.034-0.034c0.16-0.685,0.479-1.483,0.958-2.396c0.183-0.41,0.399-0.799,0.651-1.163
		c-0.092-0.068-0.171-0.125-0.24-0.172l-0.513,0.822c-0.593,0.912-1.164,1.632-1.711,2.156c-0.068,0.068-0.125,0.137-0.171,0.205
		c-1.939,2.122-3.468,2.18-4.586,0.171c-1.141-2.03-0.286-3.308,2.567-3.833c0.023,0,0.057,0,0.103,0
		c0.821-0.251,1.871-0.377,3.149-0.377c0.228,0,0.456,0.012,0.685,0.035c-0.023-0.047-0.035-0.092-0.035-0.138
		c0-0.068,0.011-0.125,0.035-0.171c-0.844,0-1.644-0.057-2.396-0.171c-0.525-0.069-0.981-0.171-1.369-0.309
		c-0.069,0-0.126-0.011-0.171-0.034c-2.83-0.639-3.64-1.939-2.431-3.901c1.209-1.985,2.738-1.86,4.587,0.376
		c0.022,0,0.034,0.012,0.034,0.034c0.411,0.365,0.821,0.868,1.232,1.506c0.388,0.548,0.719,1.096,0.992,1.644
		c0.069-0.046,0.137-0.08,0.206-0.104c-0.229-0.364-0.434-0.741-0.617-1.129c-0.457-0.913-0.764-1.7-0.924-2.361
		c-0.023-0.047-0.035-0.092-0.035-0.138c-0.935-2.738-0.239-4.107,2.088-4.107c2.305,0,2.989,1.369,2.054,4.107
		C147.665,138.249,147.665,138.283,147.665,138.329z M94.165,191.899c-0.16,0.662-0.479,1.46-0.958,2.396
		c-0.183,0.389-0.376,0.766-0.582,1.129c0.068,0.023,0.147,0.059,0.239,0.104c0.137-0.251,0.285-0.515,0.445-0.787
		c0.616-0.958,1.209-1.712,1.779-2.26c0.023-0.045,0.057-0.08,0.103-0.103c0.228-0.273,0.456-0.515,0.685-0.72
		c1.62-1.438,2.92-1.276,3.901,0.479c1.164,2.008,0.332,3.285-2.498,3.832c-0.045,0.022-0.08,0.035-0.104,0.035
		c-0.045,0-0.091,0.012-0.137,0.035c-0.342,0.09-0.73,0.17-1.163,0.238c-0.616,0.068-1.324,0.104-2.123,0.104h-0.411
		c0,0.045,0,0.103,0,0.17c0,0.047,0,0.092,0,0.139h0.137c0.867,0,1.666,0.045,2.396,0.136c0.045,0.022,0.08,0.035,0.103,0.035
		c0.434,0.067,0.833,0.159,1.198,0.272c0.023,0,0.06,0,0.104,0c2.83,0.595,3.65,1.884,2.464,3.869
		c-1.027,1.733-2.315,1.894-3.868,0.479c-0.229-0.206-0.468-0.457-0.719-0.754l-0.034-0.034c-0.411-0.388-0.833-0.89-1.266-1.506
		c-0.32-0.479-0.639-1.017-0.958-1.608l-0.034-0.068c-0.092,0.047-0.171,0.104-0.239,0.172c0.228,0.363,0.422,0.74,0.582,1.13
		c0.457,0.912,0.764,1.711,0.924,2.396c0,0.022,0.011,0.057,0.035,0.104c0.89,2.762,0.171,4.119-2.157,4.072
		c-2.304-0.022-2.978-1.394-2.02-4.106l0.034-0.034c0.16-0.685,0.479-1.482,0.958-2.396c0.183-0.409,0.399-0.799,0.651-1.162
		c-0.092-0.068-0.171-0.125-0.24-0.172l-0.513,0.822c-0.593,0.912-1.164,1.631-1.711,2.155c-0.068,0.068-0.125,0.138-0.171,0.205
		c-1.939,2.122-3.468,2.181-4.586,0.171c-1.141-2.029-0.286-3.308,2.567-3.833c0.023,0,0.057,0,0.103,0
		c0.821-0.251,1.871-0.377,3.149-0.377c0.228,0,0.456,0.013,0.685,0.035c-0.023-0.047-0.035-0.092-0.035-0.138
		c0-0.068,0.011-0.125,0.035-0.172c-0.844,0-1.644-0.057-2.396-0.17c-0.525-0.069-0.981-0.172-1.369-0.31
		c-0.069,0-0.126-0.011-0.171-0.034c-2.83-0.639-3.64-1.939-2.431-3.9c1.209-1.985,2.738-1.86,4.587,0.375
		c0.022,0,0.034,0.013,0.034,0.035c0.411,0.364,0.821,0.867,1.232,1.506c0.388,0.548,0.719,1.096,0.992,1.644
		c0.069-0.046,0.137-0.08,0.206-0.104c-0.229-0.363-0.434-0.74-0.617-1.129c-0.457-0.912-0.764-1.699-0.924-2.36
		c-0.023-0.048-0.035-0.093-0.035-0.138c-0.935-2.738-0.239-4.107,2.088-4.107c2.305,0,2.989,1.369,2.054,4.107
		C94.165,191.819,94.165,191.854,94.165,191.899z M154.92,197.776c-0.129,0.533-0.386,1.176-0.771,1.929
		c-0.147,0.313-0.303,0.616-0.469,0.909c0.055,0.019,0.118,0.047,0.192,0.084c0.11-0.202,0.229-0.414,0.358-0.634
		c0.496-0.771,0.974-1.378,1.433-1.819c0.019-0.036,0.046-0.064,0.083-0.083c0.184-0.22,0.366-0.414,0.552-0.579
		c1.305-1.158,2.351-1.028,3.142,0.386c0.937,1.617,0.267,2.646-2.012,3.086c-0.036,0.018-0.064,0.028-0.084,0.028
		c-0.036,0-0.073,0.01-0.11,0.028c-0.276,0.072-0.588,0.137-0.937,0.191c-0.496,0.056-1.066,0.084-1.71,0.084h-0.331
		c0,0.036,0,0.082,0,0.137c0,0.037,0,0.074,0,0.111h0.111c0.698,0,1.342,0.036,1.929,0.109c0.036,0.019,0.064,0.028,0.083,0.028
		c0.35,0.055,0.671,0.128,0.965,0.22c0.019,0,0.048,0,0.084,0c2.278,0.479,2.939,1.517,1.983,3.115
		c-0.827,1.396-1.864,1.524-3.114,0.386c-0.185-0.166-0.377-0.368-0.579-0.607l-0.027-0.027c-0.331-0.313-0.671-0.717-1.02-1.213
		c-0.258-0.386-0.515-0.818-0.771-1.295l-0.028-0.055c-0.074,0.037-0.138,0.083-0.192,0.138c0.185,0.293,0.34,0.597,0.469,0.91
		c0.368,0.734,0.615,1.378,0.744,1.929c0,0.019,0.009,0.046,0.028,0.083c0.717,2.225,0.138,3.317-1.737,3.279
		c-1.855-0.018-2.397-1.122-1.626-3.307l0.027-0.027c0.129-0.551,0.386-1.193,0.771-1.93c0.148-0.329,0.321-0.644,0.524-0.936
		c-0.073-0.055-0.138-0.101-0.192-0.139l-0.414,0.662c-0.477,0.734-0.938,1.313-1.377,1.735c-0.055,0.056-0.102,0.111-0.139,0.165
		c-1.561,1.709-2.792,1.756-3.692,0.138c-0.919-1.634-0.23-2.663,2.067-3.086c0.019,0,0.046,0,0.083,0
		c0.661-0.202,1.507-0.304,2.536-0.304c0.183,0,0.366,0.01,0.551,0.028c-0.018-0.038-0.028-0.074-0.028-0.111
		c0-0.055,0.009-0.101,0.028-0.138c-0.68,0-1.323-0.046-1.929-0.137c-0.422-0.057-0.79-0.139-1.103-0.25
		c-0.055,0-0.101-0.008-0.138-0.027c-2.279-0.514-2.931-1.562-1.958-3.141c0.974-1.599,2.205-1.498,3.693,0.302
		c0.019,0,0.027,0.011,0.027,0.028c0.332,0.294,0.662,0.698,0.992,1.213c0.313,0.441,0.579,0.882,0.799,1.323
		c0.056-0.037,0.11-0.064,0.167-0.084c-0.186-0.293-0.351-0.596-0.497-0.909c-0.368-0.734-0.616-1.368-0.744-1.9
		c-0.02-0.039-0.028-0.075-0.028-0.111c-0.753-2.204-0.192-3.307,1.682-3.307c1.855,0,2.406,1.103,1.653,3.307
		C154.92,197.712,154.92,197.739,154.92,197.776z M146.227,158.182l0.137-0.035c0.16-0.09,0.434-0.192,0.821-0.308
		c0.388-0.137,0.776-0.229,1.164-0.274l0.103-0.032c0.296-0.048,0.605-0.068,0.924-0.068c0.433-0.046,0.878-0.057,1.334-0.032h0.103
		c0.776,0.045,1.586,0.146,2.432,0.309h0.137c1.098,0.228,2.213,0.535,3.354,0.924c0.594,0.184,1.063,0.354,1.402,0.513h0.034
		l-0.034,0.069c-0.822,1.734-1.746,3.218-2.771,4.449l-0.069,0.068c-0.592,0.684-1.195,1.276-1.813,1.778l-0.104,0.067
		c-0.687,0.523-1.394,0.937-2.122,1.231l-0.104,0.033c-0.207,0.069-0.354,0.126-0.444,0.172c-0.456,0.138-0.901,0.229-1.334,0.272
		c-0.183,0.022-0.366,0.035-0.548,0.035h-0.205c-1.095,0.021-2.179-0.205-3.251-0.687c-0.845-0.39-1.597-0.867-2.259-1.438
		c-0.457-0.412-0.718-0.729-0.787-0.959l-0.034-0.103C142.725,161.227,144.037,159.23,146.227,158.182z M142.325,153.971
		c-0.023,0.184-0.125,0.424-0.308,0.719c-0.206,0.365-0.479,0.696-0.822,0.994c-0.89,0.844-1.871,1.209-2.943,1.094
		c-1.94-0.203-3.902-1.903-5.888-5.1l-0.034-0.035h0.034l1.78-0.82c1.438-0.523,2.738-0.729,3.901-0.614
		c2.077,0.205,3.503,1.438,4.279,3.694L142.325,153.971L142.325,153.971z M151.943,154.005v-0.103
		c0.021-0.229,0.192-0.536,0.514-0.924c0.389-0.457,0.879-0.893,1.471-1.303c1.6-1.117,3.469-1.62,5.614-1.506
		c3.765,0.25,7.793,2.452,12.083,6.604l0.033,0.035l-0.068,0.033c-0.912,0.389-2.043,0.754-3.389,1.096
		c-2.715,0.687-5.202,0.959-7.461,0.821C156.678,158.512,153.746,156.926,151.943,154.005z M138.149,171.838
		c5.614,0.229,9.39,2.67,11.33,7.324c1.119,2.693,1.574,5.968,1.369,9.824c-0.021,0.183-0.033,0.354-0.033,0.514h0.067v0.102h-0.067
		c-0.022,0.14-0.035,0.287-0.035,0.445c0.185-0.021,0.344,0.023,0.479,0.139c0.183,0.137,0.296,0.318,0.343,0.547
		c0.045,0.25,0,0.457-0.137,0.615c-0.138,0.207-0.32,0.319-0.548,0.342c-0.114,0.023-0.229,0.023-0.343,0
		c-0.023,0.16-0.035,0.311-0.035,0.445c0.023,0,0.059,0.012,0.104,0.034v0.104c-0.045-0.023-0.092-0.034-0.138-0.034
		c-0.022,0.182-0.045,0.354-0.068,0.513c0.045,0.023,0.114,0.034,0.206,0.034l0.205-0.034v0.104h-0.24l-0.169-0.033
		c-0.045,0.158-0.08,0.309-0.103,0.443l0.342,0.034h0.104v0.103h-0.104l-0.342-0.032c-0.045,0.185-0.091,0.376-0.137,0.582
		l-0.034,0.067l-0.068-0.035c-3.948-1.301-7.12-2.92-9.516-4.858c-2.054-1.666-3.514-3.537-4.381-5.612
		c-0.822-1.939-1.084-3.981-0.788-6.127c0.228-1.619,0.73-3.059,1.506-4.313c0.41-0.687,0.764-1.084,1.061-1.198
		C138.024,171.85,138.081,171.838,138.149,171.838z M149.582,176.424c-0.114-0.433-0.137-0.729-0.069-0.89l0.069-0.103
		c2.35-2.19,4.872-2.75,7.564-1.679c1.552,0.615,3.08,1.745,4.586,3.39c0.754,0.82,1.348,1.573,1.779,2.26l0.034,0.033l-0.034,0.033
		c-4.017,2.055-7.324,2.557-9.927,1.508c-1.117-0.457-2.054-1.177-2.808-2.156C150.186,178.045,149.787,177.246,149.582,176.424z
		 M177.854,152.943c-0.021-0.045-0.045-0.104-0.066-0.172c-0.686-2.029-0.17-3.045,1.541-3.045s2.227,1.016,1.54,3.045v0.035
		c-0.114,0.502-0.345,1.096-0.687,1.778c-0.16,0.297-0.318,0.582-0.479,0.854c0.068,0.022,0.138,0.059,0.206,0.104l0.342-0.581
		c0.435-0.708,0.854-1.255,1.267-1.646c0.047-0.045,0.092-0.09,0.137-0.137c1.394-1.598,2.512-1.654,3.354-0.172
		c0.867,1.484,0.251,2.432-1.849,2.842c-0.047,0.022-0.079,0.035-0.104,0.035c-0.023,0-0.047,0-0.068,0
		c-0.661,0.182-1.473,0.272-2.43,0.272h-0.31c0,0.046,0,0.079,0,0.103c0,0.047,0,0.08,0,0.104h0.104
		c0.639,0,1.254,0.045,1.849,0.137c0.297,0.045,0.569,0.103,0.819,0.171c0.047,0.021,0.092,0.034,0.139,0.034
		c2.1,0.435,2.716,1.392,1.849,2.875c-0.866,1.46-2.008,1.394-3.423-0.205c-0.021-0.046-0.046-0.08-0.068-0.103
		c-0.272-0.274-0.56-0.629-0.854-1.063c-0.272-0.342-0.522-0.729-0.752-1.163v-0.033c-0.068,0.021-0.147,0.057-0.24,0.103
		l0.515,0.821c0.272,0.617,0.467,1.151,0.582,1.607c0.045,0.094,0.08,0.184,0.104,0.273c0.66,2.029,0.125,3.023-1.609,2.979
		c-1.688-0.021-2.179-1.025-1.472-3.012v-0.034c0.114-0.502,0.354-1.106,0.719-1.813c0.16-0.297,0.32-0.569,0.479-0.821
		c-0.068-0.045-0.127-0.079-0.172-0.103c-0.524,0.911-1.071,1.631-1.644,2.154c-0.046,0.068-0.092,0.126-0.138,0.172
		c-1.438,1.574-2.567,1.608-3.391,0.104c-0.819-1.482-0.205-2.406,1.851-2.771c0.021-0.021,0.045-0.033,0.067-0.033
		c0.64-0.184,1.438-0.272,2.396-0.272c0.184,0,0.342,0,0.479,0c0-0.023,0-0.06,0-0.104c0-0.021,0.013-0.058,0.035-0.104
		c-0.641,0-1.233-0.047-1.781-0.137c-0.363-0.045-0.685-0.114-0.957-0.205c-0.068,0-0.127-0.012-0.172-0.034
		c-2.076-0.457-2.683-1.427-1.813-2.909c0.892-1.438,2.021-1.357,3.39,0.238c0.272,0.275,0.582,0.662,0.924,1.164
		c0.273,0.41,0.524,0.834,0.754,1.267c0.045-0.045,0.104-0.079,0.172-0.103c-0.159-0.252-0.319-0.537-0.479-0.855
		C178.186,153.971,177.969,153.423,177.854,152.943z M153.689,182.585l0.102-0.034c2.557,0,4.393,0.856,5.512,2.567l0.068,0.137
		c0.113,0.16,0.229,0.365,0.342,0.616c0.16,0.342,0.285,0.662,0.377,0.959v0.104c0.182,0.569,0.309,1.187,0.376,1.849v0.103
		c0.069,0.708,0.093,1.403,0.069,2.09v0.104c-0.047,0.936-0.172,1.916-0.377,2.943c-0.092,0.502-0.184,0.899-0.273,1.196v0.034
		h-0.035c-1.574-0.479-2.932-1.07-4.072-1.779l-0.066-0.068c-0.641-0.41-1.223-0.854-1.746-1.334l-0.068-0.07
		c-0.479-0.479-0.901-1.016-1.269-1.607l-0.032-0.104l-0.205-0.344c-0.229-0.522-0.391-1.036-0.48-1.538l-0.033-0.173
		c-0.137-0.911-0.068-1.849,0.205-2.807c0.205-0.775,0.514-1.461,0.924-2.054C153.277,182.938,153.506,182.677,153.689,182.585z
		 M177.785,197.509c-0.182-0.114-0.434-0.172-0.753-0.172c-0.503,0-1.142,0.126-1.917,0.378c0,0.067-0.012,0.125-0.033,0.172
		l0.65,0.614c0.639,0.502,1.149,0.754,1.539,0.754c0.184,0,0.344-0.058,0.479-0.171c0.139-0.139,0.229-0.331,0.273-0.583
		l0.067-0.376C178.094,197.852,177.99,197.646,177.785,197.509z M176.998,195.111c-0.229-0.229-0.457-0.342-0.686-0.342
		c-0.184,0-0.354,0.08-0.514,0.238c-0.113,0.115-0.252,0.32-0.41,0.616c-0.158,0.365-0.318,0.846-0.479,1.438l-0.033,0.207
		c0.045,0.021,0.09,0.057,0.138,0.103c0.204-0.046,0.397-0.103,0.582-0.171c0.592-0.206,1.062-0.445,1.401-0.721
		c0.272-0.229,0.41-0.455,0.41-0.686C177.408,195.592,177.271,195.364,176.998,195.111z M176.998,192.032h-0.104
		c-1.528,0.388-3.08,0.548-4.654,0.479c-2.67-0.092-5.146-0.879-7.428-2.362c-1.688-1.07-3.059-2.35-4.107-3.832
		c-0.456-0.594-0.729-1.063-0.82-1.402c0-0.068,0-0.139,0-0.205l0.067-0.068c1.985-2.396,4.896-3.515,8.729-3.354
		c3.354,0.157,7.231,1.255,11.637,3.284c2.214,1.006,4.084,1.996,5.613,2.979l0.033,0.034l-0.033,0.035
		C182.873,189.83,179.896,191.302,176.998,192.032z M171.932,196.105c-0.182,0-0.33,0.057-0.441,0.17
		c-0.139,0.093-0.229,0.285-0.275,0.582l-0.066,0.377c0,0.297,0.104,0.502,0.309,0.615s0.468,0.172,0.787,0.172
		c0.594,0,1.221-0.113,1.883-0.342c0-0.068,0.012-0.125,0.034-0.173l-0.649-0.614C172.868,196.368,172.344,196.105,171.932,196.105z
		 M173.541,194.326c-0.457,0.158-0.684,0.41-0.684,0.752c-0.023,0.297,0.146,0.686,0.513,1.164c0.297,0.343,0.604,0.65,0.924,0.924
		l0.069,0.104c0.021-0.021,0.057-0.033,0.102-0.033h0.069l0.103-0.444c0.092-0.457,0.137-0.879,0.137-1.269
		c0-0.41-0.057-0.707-0.172-0.89c-0.113-0.251-0.316-0.377-0.615-0.377C173.85,194.257,173.701,194.279,173.541,194.326z
		 M68.77,117.45v-0.035l-0.069-0.205L68.77,117.45z M68.838,115.225l-0.103,0.411v0.137L68.838,115.225z M177.922,176.493
		c0.047,0.067,0.104,0.137,0.172,0.205c-0.046-0.068-0.092-0.138-0.137-0.205H177.922z M176.211,172.864
		c0.023-0.022,0.057-0.058,0.104-0.104c3.148-1.732,6.094-1.914,8.83-0.547c0.479,0.25,0.946,0.547,1.403,0.891
		c1.804,1.301,3.399,3.252,4.792,5.854c0.662,1.301,1.164,2.464,1.506,3.491v0.067h-0.033c-5.797,1.301-10.201,0.846-13.213-1.369
		c-1.301-0.937-2.26-2.155-2.875-3.662c-0.502-1.162-0.754-2.305-0.754-3.422C175.994,173.445,176.074,173.048,176.211,172.864z
		 M181.105,166.156l0.033,0.068l0.273,0.17l0.342,0.309c0.16,0.184,0.32,0.389,0.479,0.615v0.067c0.137,0.206,0.272,0.47,0.41,0.788
		l0.033,0.034c0.252,0.567,0.424,1.129,0.514,1.677h-0.032c-0.687,0.114-1.302,0.139-1.851,0.068v-0.034h-0.033v0.034
		c-0.297-0.021-0.594-0.08-0.891-0.171h-0.033c-0.297-0.114-0.561-0.251-0.787-0.411h-0.035l-0.137-0.139
		c-0.16-0.09-0.309-0.25-0.443-0.479l-0.068-0.033c-0.408-0.615-0.568-1.301-0.479-2.055c0.047-0.25,0.093-0.389,0.139-0.41
		l0.033-0.033C179.531,165.745,180.375,165.723,181.105,166.156z M172.412,160.337c0.615,0.411,1.084,0.959,1.402,1.644
		c0.229,0.524,0.354,1.039,0.377,1.541c0,0.295-0.023,0.479-0.068,0.547l-0.034,0.035c-1.688,1.004-3.252,1.016-4.688,0.033
		c-0.844-0.57-1.607-1.438-2.295-2.602l-0.752-1.574l-0.033-0.034h0.033C169,159.242,171.02,159.379,172.412,160.337z
		 M144.448,192.443l0.444,0.41c0.206,0.229,0.4,0.502,0.583,0.819l0.034,0.068c0.16,0.229,0.331,0.549,0.514,0.959l0.034,0.067
		c0.319,0.752,0.536,1.473,0.65,2.155c-0.867,0.114-1.666,0.147-2.396,0.104v-0.069h-0.034v0.034
		c-0.365-0.021-0.742-0.104-1.13-0.239h-0.068c-0.342-0.114-0.662-0.274-0.959-0.479l-0.239-0.17
		c-0.229-0.184-0.434-0.389-0.616-0.617l-0.034-0.066c-0.274-0.411-0.457-0.879-0.547-1.402c-0.069-0.41-0.081-0.812-0.034-1.197
		c0.022-0.297,0.068-0.479,0.136-0.547l0.035-0.035c1.232-0.594,2.316-0.604,3.252-0.034L144.448,192.443z M173.814,199.768
		c0.183-0.41,0.343-0.899,0.479-1.472l0.068-0.171c-0.047-0.021-0.092-0.057-0.137-0.104l-0.617,0.172
		c-0.64,0.205-1.105,0.434-1.402,0.685c-0.273,0.229-0.41,0.456-0.41,0.685c0,0.205,0.125,0.436,0.376,0.687
		c0.251,0.229,0.491,0.342,0.72,0.342c0.184,0,0.342-0.067,0.479-0.205C173.529,200.225,173.678,200.02,173.814,199.768z
		 M174.705,198.193l-0.137,0.41c-0.092,0.457-0.137,0.891-0.137,1.301c-0.023,0.365,0.021,0.662,0.137,0.891
		c0.137,0.229,0.354,0.342,0.648,0.342c0.113,0,0.25-0.021,0.41-0.068c0.479-0.137,0.721-0.375,0.721-0.719
		c0-0.317-0.173-0.707-0.516-1.164c-0.271-0.365-0.582-0.685-0.924-0.957l-0.068-0.067c-0.021,0-0.046,0-0.066,0L174.705,198.193z
		 M163.102,192.032c0.137-0.091,0.399-0.159,0.787-0.205c0.436-0.046,0.879-0.034,1.336,0.034c1.301,0.183,2.246,0.765,2.84,1.746
		c1.072,1.731,0.926,4.461-0.443,8.18l-0.033,0.033h-0.035c-0.547-0.204-1.15-0.524-1.813-0.957
		c-1.368-0.846-2.373-1.793-3.012-2.842c-1.164-1.85-1.063-3.834,0.309-5.955L163.102,192.032z M111.999,193.162
		c0.137,0.068,0.32,0.171,0.548,0.309c0.182,0.137,0.342,0.31,0.479,0.514l0.034,0.067l0.035,0.274
		c0.023,0.182,0.012,0.296-0.035,0.342c0.023,0.114,0.035,0.273,0.035,0.479c0,0.045,0,0.113,0,0.205
		c0.023,0.047,0.023,0.16,0,0.342c-0.046,0.16-0.057,0.273-0.035,0.345v0.442l-0.034,0.14c0,0.067-0.034,0.192-0.102,0.376
		l0.034,0.104l-0.034,0.41l-0.069,0.206l-0.034,0.033l-0.137,0.582c-0.068,0.112-0.125,0.185-0.171,0.205v0.067l-0.103,0.239
		c-0.069,0.046-0.114,0.103-0.137,0.171l-0.103,0.104c-0.023,0.046-0.034,0.104-0.034,0.172c-0.092,0.091-0.171,0.147-0.239,0.171
		c-0.069,0.066-0.114,0.146-0.137,0.239c-0.069,0.092-0.263,0.228-0.582,0.409l-0.171,0.068c-0.273,0.159-0.433,0.239-0.479,0.239
		l-0.171,0.067c-0.274,0-0.479,0.022-0.616,0.067l-0.89,0.034c-0.045,0.021-0.103,0.014-0.171-0.034
		c-0.022-0.021-0.069-0.032-0.137-0.032c-0.023,0-0.057,0-0.103,0c-0.023-0.022-0.034-0.045-0.034-0.068l-0.239-0.034
		c0-0.022-0.023-0.034-0.069-0.034c0,0.021-0.114,0.034-0.342,0.034c-0.068,0-0.125,0-0.171,0l-0.239-0.138
		c-0.022,0-0.045,0-0.068,0c-0.023,0-0.035,0.013-0.035,0.035l-0.171-0.139c-0.023,0-0.08,0.012-0.171,0.034l-0.102-0.067
		c-0.045,0-0.092-0.013-0.137-0.033c-0.091,0-0.148,0.012-0.171,0.033c0-0.045-0.045-0.08-0.137-0.104
		c-0.091-0.021-0.136-0.021-0.137,0c0-0.021-0.022-0.033-0.068-0.033c-0.045-0.022-0.08-0.046-0.103-0.067h-0.136l-0.069-0.068
		c-0.046,0.021-0.068,0.021-0.068,0l-0.103,0.068l-0.034-0.035h-0.034l-0.034-0.033c-0.115-0.045-0.171-0.079-0.171-0.104
		c-0.319,0-0.594,0.067-0.822,0.207c0.137-0.207,0.228-0.516,0.273-0.927c0.023-0.364,0.035-0.569,0.035-0.614
		c-0.023,0-0.035-0.059-0.035-0.173v-0.032c-0.091-0.16-0.136-0.252-0.136-0.273c-0.046-0.068-0.069-0.16-0.069-0.273v-0.172
		c-0.045-0.091-0.034-0.172,0.034-0.238l-0.034-0.24l0.069-0.377c0.023-0.021,0.034-0.057,0.034-0.103c0-0.069,0-0.138,0-0.204
		v-0.173c0.045-0.206,0.114-0.399,0.205-0.582l0.239-0.649c0.023-0.021,0.058-0.047,0.103-0.067
		c0.023-0.021,0.034-0.058,0.034-0.104c0.045-0.045,0.08-0.103,0.103-0.172c0.068-0.136,0.114-0.205,0.137-0.205
		c0.182-0.205,0.273-0.295,0.273-0.271c0.022-0.046,0.045-0.08,0.069-0.104h0.034c0-0.047,0.034-0.08,0.103-0.104
		c0.046-0.021,0.08-0.033,0.103-0.033c0.022-0.021,0.057-0.046,0.103-0.066c0.022-0.023,0.057-0.047,0.102-0.069
		c0.069-0.045,0.16-0.125,0.274-0.239l0.103-0.033c0.091-0.021,0.183-0.058,0.274-0.104l0.103-0.104l0.616-0.172h0.034
		c0.183-0.068,0.342-0.078,0.479-0.033l0.856-0.138c0.022,0,0.08-0.013,0.171-0.034c0.115,0,0.206,0.012,0.274,0.034h0.137
		c0.023-0.022,0.114-0.022,0.273,0c0.046,0,0.103,0,0.171,0c0.16-0.022,0.263-0.022,0.308,0l0.103-0.034
		c0.022,0.021,0.091,0.021,0.205,0l0.034,0.034l0.137,0.034c0.205-0.021,0.479,0.033,0.821,0.171
		C111.839,193.15,111.931,193.162,111.999,193.162z M112.684,189.636l-0.034,0.069c-2.806,2.008-6.126,2.327-9.96,0.958
		c-2.122-0.753-4.302-1.985-6.538-3.696l-2.704-2.328l-0.034-0.068h0.034c5.613-2.145,10.177-2.6,13.691-1.367
		c2.008,0.729,3.548,1.929,4.621,3.595c0.388,0.595,0.662,1.177,0.822,1.745C112.718,189.064,112.752,189.432,112.684,189.636z
		 M196.027,93.969c-0.066,0.73-0.318,1.553-0.752,2.465c0.021,0,0.058,0,0.103,0c0.022,0.022,0.058,0.046,0.104,0.068
		c0.045-0.183,0.125-0.399,0.238-0.65c0.318-0.639,0.639-1.152,0.959-1.54c0.021-0.046,0.057-0.091,0.104-0.137
		c1.095-1.575,2.099-1.746,3.012-0.514c0.913,1.255,0.456,2.179-1.369,2.772c-0.021,0-0.046,0.012-0.068,0.034
		c-0.272,0.114-0.604,0.205-0.99,0.274c-0.436,0.113-0.893,0.193-1.369,0.239l-0.139,0.034c0,0.046,0,0.103,0,0.171v0.034
		l0.104-0.034c0.456-0.068,0.899-0.103,1.335-0.103c0.389,0,0.741,0.034,1.063,0.103c0.045,0,0.103,0,0.17,0
		c1.918,0.183,2.557,0.981,1.918,2.396c-0.616,1.416-1.633,1.461-3.047,0.138c-0.022-0.022-0.045-0.034-0.067-0.034
		c-0.297-0.229-0.617-0.536-0.959-0.925c-0.251-0.273-0.502-0.593-0.753-0.958c-0.045,0.046-0.104,0.08-0.171,0.103l0.581,0.787
		c0.297,0.479,0.514,0.913,0.65,1.301c0.021,0.068,0.058,0.137,0.104,0.206c0.798,1.757,0.434,2.715-1.096,2.875
		c-1.553,0.137-2.11-0.73-1.678-2.602c0.067-0.502,0.238-1.106,0.514-1.814l0.309-0.685c-0.046,0-0.08-0.011-0.104-0.033
		c-0.022-0.023-0.045-0.035-0.068-0.035c-0.092,0.183-0.193,0.389-0.309,0.616c-0.342,0.685-0.686,1.232-1.026,1.644h-0.034
		c-1.117,1.574-2.133,1.733-3.046,0.479c-0.89-1.255-0.41-2.167,1.438-2.738h0.066c0.252-0.113,0.571-0.217,0.959-0.308
		c0.502-0.114,1.018-0.184,1.54-0.206c-0.021-0.068-0.032-0.125-0.032-0.171c-0.504,0.068-1.006,0.103-1.508,0.103
		c-0.388,0-0.74-0.022-1.063-0.067c-0.021,0-0.047,0-0.067,0c-1.917-0.16-2.578-0.947-1.983-2.362
		c0.614-1.415,1.644-1.483,3.08-0.205c0.067,0.045,0.146,0.113,0.238,0.205c0.251,0.183,0.523,0.444,0.821,0.787
		c0.272,0.297,0.524,0.604,0.753,0.924c0.021-0.046,0.068-0.08,0.138-0.103c-0.206-0.251-0.397-0.524-0.582-0.821
		c-0.317-0.479-0.548-0.913-0.687-1.301c-0.021-0.046-0.045-0.103-0.067-0.171c-0.844-1.734-0.489-2.693,1.063-2.875
		c1.526-0.182,2.1,0.673,1.711,2.567C196.04,93.924,196.027,93.946,196.027,93.969z M216.702,131.483l0.239-0.035
		c0.959-0.205,2.088-0.364,3.39-0.479h0.205c2.054-0.183,4.176-0.193,6.366-0.034c1.096,0.068,1.983,0.148,2.67,0.239h0.068v0.068
		c-0.617,3.469-1.529,6.515-2.738,9.14l-0.068,0.171c-0.523,1.163-1.096,2.213-1.712,3.148l-0.103,0.172
		c-0.707,1.026-1.482,1.95-2.328,2.771l-0.137,0.138c-0.686,0.661-1.414,1.243-2.191,1.745l-0.409,0.24
		c-1.026,0.639-2.134,1.106-3.319,1.403l-0.24,0.068c-1.481,0.342-3.021,0.456-4.621,0.342l-0.342-0.034
		c-1.895-0.205-3.617-0.695-5.168-1.472c-1.005-0.479-1.633-0.913-1.883-1.301l-0.068-0.171c-0.523-3.925,0.035-7.188,1.679-9.789
		l0.171-0.206c0.548-0.82,1.209-1.586,1.984-2.293l0.17-0.171c0.479-0.365,0.959-0.707,1.438-1.027l1.164-0.65
		c0.821-0.456,1.711-0.833,2.67-1.129l0.171-0.068C214.693,131.974,215.676,131.711,216.702,131.483z M209.378,110.912l0.034,0.034
		c3.377,3.834,4.826,7.04,4.347,9.618c-0.272,1.438-1.13,2.567-2.565,3.389c-0.502,0.296-1.026,0.524-1.574,0.685
		c-0.479,0.137-0.832,0.183-1.063,0.137l-0.103-0.034c-2.625-1.917-3.663-4.244-3.115-6.982c0.272-1.552,1.027-3.16,2.259-4.826
		c0.616-0.822,1.198-1.483,1.746-1.985L209.378,110.912z M195.961,120.77c0.364,0.229,0.764,0.525,1.197,0.89
		c0.343,0.297,0.65,0.594,0.924,0.89c0.023-0.067,0.059-0.113,0.104-0.136c-0.297-0.297-0.594-0.605-0.89-0.925
		c-0.411-0.479-0.72-0.912-0.925-1.3c-0.021-0.023-0.046-0.047-0.068-0.069c-1.232-1.802-1.016-2.932,0.65-3.389
		c1.688-0.479,2.477,0.365,2.361,2.533c0,0.046,0,0.08,0,0.103c0,0.068,0,0.138,0,0.205c0,0.822-0.139,1.7-0.41,2.636
		c0.068,0,0.146,0.012,0.238,0.035c0.047-0.252,0.113-0.514,0.207-0.788c0.228-0.775,0.487-1.403,0.784-1.883
		c0-0.045,0.013-0.08,0.034-0.103c0.938-1.962,2.031-2.339,3.287-1.129c1.23,1.231,0.878,2.339-1.063,3.319
		c-0.022,0.023-0.059,0.034-0.104,0.034c-0.297,0.184-0.662,0.365-1.096,0.549c-0.436,0.182-0.914,0.342-1.438,0.479l-0.103,0.034
		c0,0.023,0.011,0.058,0.033,0.103v0.137l0.549-0.171c0.844-0.205,1.574-0.308,2.188-0.308c0.068-0.023,0.147-0.034,0.239-0.034
		c2.168-0.16,3.021,0.604,2.566,2.293c-0.435,1.688-1.563,1.939-3.39,0.753c-0.022-0.022-0.057-0.046-0.103-0.068
		c-0.389-0.205-0.821-0.514-1.301-0.924c-0.297-0.274-0.605-0.56-0.924-0.856c-0.023,0.046-0.07,0.091-0.139,0.138
		c0.318,0.296,0.615,0.604,0.891,0.924c0.363,0.456,0.661,0.878,0.891,1.267c0.021,0.046,0.058,0.091,0.104,0.137
		c1.209,1.803,0.969,2.932-0.72,3.389c-1.688,0.456-2.465-0.399-2.327-2.567V126.9c0-0.046,0-0.103,0-0.171
		c0-0.616,0.104-1.347,0.309-2.19l0.172-0.514c-0.092,0-0.172-0.012-0.239-0.034c-0.068,0.183-0.146,0.444-0.239,0.787
		c-0.229,0.753-0.479,1.357-0.753,1.814c-0.046,0.067-0.08,0.125-0.104,0.171c-0.959,1.939-2.053,2.293-3.285,1.061
		c-1.209-1.255-0.846-2.35,1.096-3.285c0.046-0.023,0.08-0.046,0.104-0.068c0.318-0.184,0.686-0.354,1.096-0.514
		c0.523-0.206,1.05-0.377,1.572-0.514c0-0.022-0.012-0.058-0.033-0.103c-0.021-0.022-0.033-0.046-0.033-0.068
		c-0.936,0.273-1.813,0.41-2.635,0.41c-0.094,0-0.174,0-0.24,0h-0.066c-2.168,0.114-3.023-0.661-2.568-2.327
		c0.479-1.688,1.621-1.917,3.424-0.685C195.835,120.689,195.893,120.725,195.961,120.77z M192.436,181.661l-0.067-0.171
		c-0.045-0.114-0.093-0.219-0.138-0.309L192.436,181.661z M188.807,170.332c0.436-0.206,0.938-0.354,1.506-0.445
		c1.576-0.272,3.115-0.012,4.621,0.787c2.67,1.438,4.873,4.381,6.605,8.831l0.035,0.034h-0.069c-0.774-0.023-1.723-0.125-2.84-0.309
		c-2.214-0.39-4.131-1.017-5.751-1.883c-2.875-1.553-4.482-3.687-4.826-6.4l0.034-0.067
		C188.214,170.721,188.441,170.537,188.807,170.332z M187.85,160.816l0.137,0.033c0.138,0.092,0.285,0.273,0.445,0.549
		c0.479,0.66,0.82,1.438,1.025,2.326c0.251,1.188,0.193,2.352-0.171,3.49c-0.205,0.662-0.502,1.289-0.89,1.885h-0.035
		c-0.729,1.116-1.791,2.154-3.185,3.113h-0.032c-0.185-0.799-0.332-1.732-0.445-2.809c-0.159-2.168-0.012-3.971,0.445-5.406
		C185.646,162.334,186.548,161.273,187.85,160.816z M199.521,160.782l0.103,0.103c0.205,0.251,0.376,0.479,0.513,0.686
		c0.229,0.318,0.424,0.662,0.584,1.025l0.066,0.104c0.297,0.616,0.548,1.313,0.753,2.088l0.035,0.137
		c0.183,0.685,0.331,1.483,0.444,2.396v0.14c0.205,1.802,0.217,3.457,0.032,4.963v0.068l-0.067-0.034
		c-1.871-0.273-3.561-0.729-5.064-1.369l-0.068-0.033c-0.867-0.365-1.619-0.775-2.259-1.232l-0.104-0.067
		c-0.706-0.502-1.3-1.05-1.778-1.644l-0.343-0.514c-0.364-0.549-0.65-1.107-0.854-1.679l-0.068-0.171
		c-0.318-1.05-0.41-2.156-0.272-3.32c0.113-0.936,0.343-1.791,0.685-2.566c0.25-0.569,0.479-0.924,0.687-1.062l0.103-0.032
		C195.584,158.307,197.877,158.979,199.521,160.782z M196.439,153.695l0.033-0.103c2.281-3.058,5.102-4.222,8.453-3.492
		c1.917,0.413,3.914,1.404,5.99,2.979c1.05,0.799,1.895,1.563,2.533,2.293l0.033,0.034l-0.033,0.034
		c-4.223,3.172-7.952,4.414-11.192,3.729c-1.415-0.296-2.657-0.937-3.729-1.916c-0.799-0.753-1.414-1.586-1.848-2.498
		C196.475,154.256,196.395,153.902,196.439,153.695z M193.873,144.935c-0.206-0.41-0.377-0.81-0.514-1.198
		c-0.776-2.19-0.469-4.209,0.924-6.058c0.867-1.142,2.109-2.157,3.73-3.047c0.112-0.068,0.238-0.126,0.377-0.171l2.396-1.027
		l0.067,0.034v0.034c0.092,0.502,0.184,0.993,0.273,1.473c0,0.159,0,0.308,0,0.445c0.365,3.148-0.104,5.59-1.402,7.324
		c-0.205,0.273-0.435,0.525-0.686,0.753c-0.523,0.479-1.13,0.867-1.813,1.164c-0.022,0.022-0.059,0.046-0.104,0.068
		c-0.821,0.319-1.62,0.468-2.396,0.445c-0.41-0.023-0.672-0.092-0.787-0.206L193.873,144.935z M186.068,145.071
		c0.25-0.729,0.377-1.106,0.377-1.13v-0.034l0.033,0.034c1.416,0.64,2.59,1.324,3.524,2.054l0.067,0.069
		c0.549,0.41,1.025,0.878,1.438,1.403l0.068,0.034c0.409,0.502,0.741,1.038,0.991,1.608l0.173,0.479v0.068h0.032
		c0.139,0.434,0.229,0.89,0.273,1.369v0.17c0.023,0.846-0.137,1.688-0.479,2.533c-0.252,0.686-0.594,1.289-1.027,1.813
		c-0.318,0.365-0.57,0.582-0.753,0.648h-0.067c-2.328-0.25-3.914-1.229-4.759-2.941l-0.067-0.104
		c-0.067-0.139-0.147-0.344-0.238-0.615c-0.114-0.252-0.194-0.549-0.24-0.893l-0.034-0.102c-0.092-0.641-0.137-1.221-0.137-1.746
		v-0.068c0-0.548,0.06-1.198,0.171-1.951v-0.068C185.555,146.84,185.771,145.961,186.068,145.071z M191.203,127.82
		c0-0.159-0.012-0.319-0.034-0.479v0.035C191.169,127.535,191.18,127.684,191.203,127.82z M190.176,124.501l0.034-0.034l0.034,0.034
		c2.373,4.723,2.933,8.625,1.678,11.705c-0.548,1.324-1.402,2.431-2.566,3.321c-0.891,0.661-1.826,1.105-2.808,1.334
		c-0.548,0.137-0.913,0.16-1.096,0.068c-0.022,0-0.045-0.022-0.068-0.068c-2.577-2.784-3.229-5.762-1.95-8.934
		c0.754-1.825,2.11-3.616,4.072-5.373C188.465,125.688,189.354,125.003,190.176,124.501z M189.423,125.116
		c-0.159,0.114-0.319,0.24-0.479,0.377l1.231-0.891L189.423,125.116z"/>
	<path fill="#191918" d="M120.59,111.768c-0.844,1.118-1.677,2.373-2.499,3.765c-2.601,4.45-4.552,9.356-5.853,14.719
		c-4.107,17.205-0.856,35.882,9.755,56.031c0.205,0.707,0.696,0.685,1.471-0.069c1.575-1.481,3.823-5.796,6.744-12.938
		c-1.826-0.912-3.629-2.02-5.408-3.318c-3.583-2.604-5.294-4.871-5.134-6.813l0.719,1.164c0.662,0.912,1.403,1.756,2.225,2.532
		c2.693,2.466,5.739,3.696,9.139,3.696c2.464-4.678,5.613-9.082,9.447-13.212c7.621-8.191,14.832-10.953,21.632-8.283
		c-0.525-0.183-1.198-0.309-2.02-0.377c-1.826-0.159-3.721,0.081-5.684,0.719c-6.23,2.077-11.946,7.839-17.148,17.285l5.168,0.993
		c4.336,0.662,8.75,0.912,13.248,0.753c14.442-0.524,27.027-5.009,37.754-13.451c-1.072,0.979-2.58,2.179-4.521,3.595
		c-3.879,2.808-7.964,5.235-12.253,7.289c-13.737,6.504-26.995,7.941-39.773,4.313l-0.514,0.719
		c-3.309,5.271-4.586,13.417-3.834,24.438c0.411,6.318,2.008,16.977,4.792,31.969c2.67,14.33,4.131,24.701,4.381,31.113
		c0.342,8.352-0.73,14.74-3.217,19.166h0.171c-0.342,1.348-0.673,2.533-0.993,3.562c0.297,0.045,0.605,0.08,0.925,0.103
		c2.122,0.273,3.342,0.492,3.662,0.649c-0.206-0.228-0.456-0.638-0.753-1.231c-0.297-0.568-0.434-0.936-0.411-1.096v-0.171
		c0.708,0.616,1.952,1.791,3.731,3.524c0.251,0,0.844-0.238,1.78-0.719c0.936-0.502,2.213-0.547,3.833-0.138
		c-0.297,0.479-0.844,1.063-1.645,1.746c-0.616,0.522-1.14,0.899-1.574,1.129v0.138c2.853-0.523,4.45-0.867,4.792-1.025h0.89
		c-0.205,0.867-1.026,1.699-2.464,2.499c0.867-0.022,2.815-0.274,5.853-0.755c2.122-0.318,3.378-0.409,3.765-0.272
		c-0.158,0.091-0.271,0.138-0.342,0.138c0.229,0,1.598,0.045,4.107,0.138v0.104c0.045,0.045,0.092,0.066,0.137,0.066
		c-2.966,1.096-7.199,1.678-12.697,1.745c-6.892-0.113-12.276-0.171-16.157-0.171c-6.891,0-12.208,0.25-15.95,0.752
		c-3.72,0.479-8.523,0.721-14.41,0.721c-4.039,0-8.112-0.239-12.22-0.721c-0.365-0.045-0.718-0.092-1.061-0.137
		c-1.78-0.091-3.366-0.252-4.758-0.479c-6.047-0.958-9.824-1.529-11.33-1.712v-0.376c0-1.072,3.354-1.645,10.063-1.711
		c3.537-0.047,8.055-0.081,13.554-0.104c-0.137-0.364-0.445-1.472-0.924-3.319c0.206,0.139,0.525,0.365,0.958,0.687
		c0.525,0.343,0.822,0.695,0.89,1.062h0.103c0.091-1.096,0.194-1.824,0.308-2.189c0.251-0.775,0.673-1.163,1.267-1.163
		c0.547,0,0.901,0.183,1.061,0.547c0.091,0.229,0.137,0.662,0.137,1.302c0,0.229-0.023,0.604-0.069,1.129
		c0.16-0.252,0.445-0.479,0.855-0.685c0.457-0.183,0.867-0.274,1.232-0.274c0.753,0,1.05,0.391,0.891,1.164
		c0.16,0,0.57-0.066,1.232-0.205c0.685-0.159,1.141-0.237,1.369-0.237c0.593,0,1.027,0.103,1.3,0.307
		c0.274,0.206,0.525,0.31,0.753,0.31L111,280.861c0-0.389,0.183-0.582,0.548-0.582c0.205,0,0.547,0.125,1.027,0.377
		c0.296,0.158,0.559,0.33,0.787,0.514c0.936-1.21,1.837-2.408,2.704-3.596h0.103c0.456-1.188,0.947-2.555,1.472-4.106
		c1.985-5.909,3.434-12.366,4.347-19.372c2.852-22.477-0.274-46.275-9.378-71.397c-4.336-11.98-11.353-20.39-21.05-25.228
		c-3.035-1.529-6.15-2.604-9.345-3.218l-3.901-0.444l3.149-0.104c2.556,0.069,5.065,0.39,7.53,0.96
		c7.873,1.825,13.68,5.829,17.422,12.014c-0.366-1.824-0.696-4.164-0.993-7.017c-0.571-5.75-0.685-11.215-0.342-16.396
		c1.095-16.634,6.605-27.553,16.532-32.756L120.59,111.768z"/>
	<path fill="#EAAE5D" d="M175.938,65.697c-0.045-0.25-0.058-0.399-0.033-0.444c0-0.137,0.047-0.297,0.137-0.479
		c0.092-0.205,0.193-0.331,0.311-0.376c0.297-0.16,0.662-0.091,1.096,0.206c0.113,0.091,0.467,0.399,1.061,0.924
		c0.139,0.091,0.594,0.582,1.369,1.472c0.16,0.16,0.457,0.548,0.891,1.164l0.547,0.753c0.274,0.433,0.445,0.855,0.516,1.266
		c0.045,0.274,0.137,0.479,0.271,0.616l0.207,0.239l0.205-0.205c-0.021-0.935-0.184-1.826-0.479-2.669
		c-0.068,0.091-0.139,0.125-0.205,0.103c-0.092-0.046-0.126-0.125-0.104-0.24c0.021-0.114,0.09-0.16,0.205-0.137
		c0.045,0.022,0.09,0.057,0.137,0.103c0,0.045,0.08,0.342,0.24,0.89c0.158,0.638,0.25,1.255,0.273,1.848
		c0.113-0.046,0.205-0.046,0.273,0c0.066,0.068,0.111,0.148,0.137,0.24c0.434-0.617,0.992-1.209,1.677-1.78
		c0.365-0.297,0.696-0.525,0.993-0.685c0.045-0.046,0.091-0.058,0.137-0.035c0.114,0.069,0.148,0.148,0.104,0.24
		c-0.047,0.114-0.127,0.148-0.238,0.103c-0.068-0.023-0.104-0.08-0.104-0.171c-1.117,0.753-1.975,1.563-2.565,2.431
		c-0.022,0.091-0.058,0.171-0.104,0.24c-0.021,0.022,0.012,0.057,0.104,0.103l0.137,0.068c1.438-0.775,2.75-1.243,3.937-1.403
		c0.457-0.046,1.482-0.046,3.08,0l1.369,0.273l0.104,0.171c-0.185,0.73-0.661,1.426-1.438,2.088
		c-0.754,0.662-1.164,1.141-1.231,1.438c-0.068,0.319-0.229,0.593-0.479,0.821c-0.297,0.251-0.674,0.376-1.13,0.376l0.308,0.685
		c0.093,0.183,0.115,0.411,0.069,0.685c-0.114,0.525-0.399,1.016-0.854,1.472c-0.525,0.547-1.027,0.775-1.509,0.685
		c-0.594-0.114-1.096-0.274-1.506-0.479c-0.41-0.228-0.719-0.491-0.924-0.788c-0.273-0.457-0.479-0.935-0.615-1.437
		c-0.067-0.297-0.147-0.822-0.24-1.575l-0.204,0.137c-0.048,0.022-0.093,0.069-0.138,0.137c-0.022,0.069-0.068,0.228-0.138,0.479
		c-0.046,0.114-0.092,0.217-0.138,0.308c-0.021,0.068-0.079,0.125-0.17,0.171c-0.092,0.022-0.148,0.057-0.172,0.102l0.033-0.958
		l-0.139-0.103c-0.25,0.251-0.513,0.445-0.785,0.583c-0.229,0.114-0.535,0.228-0.926,0.342c-0.205,0.045-0.488,0.194-0.854,0.444
		c-0.297,0.206-0.561,0.286-0.787,0.24c-0.457-0.069-1.004-0.457-1.645-1.164c-0.687-0.753-0.97-1.392-0.854-1.917
		c0.045-0.525,0.113-0.856,0.205-0.993c0.229-0.365,0.397-0.594,0.513-0.685c0.092-0.092,0.171-0.148,0.239-0.171
		c0.229-0.046,0.365-0.08,0.412-0.103c0.205-0.068,0.342-0.148,0.41-0.239c-0.641-0.434-0.893-1.015-0.754-1.745
		c0.068-0.297,0.068-0.662,0-1.096l-0.104-1.3c-0.094-0.342-0.139-0.536-0.139-0.583v-0.686H175.938z M157.592,50.294l1.574-0.685
		l0.205,0.069c0.273,0.89,0.262,1.939-0.034,3.148c-0.297,1.118-0.376,1.86-0.239,2.225c0.182,0.342,0.217,0.718,0.104,1.129
		c-0.139,0.456-0.436,0.844-0.891,1.164l0.787,0.479c0.205,0.115,0.377,0.331,0.514,0.651c0.229,0.57,0.273,1.254,0.138,2.053
		c-0.138,0.89-0.479,1.46-1.024,1.711c-0.642,0.251-1.244,0.423-1.814,0.514c-0.594,0.045-1.084-0.011-1.473-0.171
		c-0.502-0.182-1.025-0.513-1.574-0.993c-0.318-0.273-0.764-0.741-1.334-1.403l-0.104,0.274c-0.045,0.068-0.067,0.148-0.067,0.239
		c0.067,0.205,0.139,0.399,0.205,0.582l0.104,0.377L152.6,61.93c-0.068,0.092-0.104,0.171-0.104,0.24l-0.616-0.959l-0.239-0.034
		c-0.045,0.388-0.17,0.764-0.377,1.129c-0.205,0.342-0.434,0.65-0.685,0.925c-0.16,0.205-0.331,0.559-0.513,1.061
		c-0.137,0.388-0.354,0.651-0.65,0.788c-0.525,0.228-1.335,0.205-2.43-0.069c-1.187-0.273-1.906-0.719-2.157-1.335
		c-0.319-0.525-0.491-0.89-0.513-1.095c0-0.524,0.022-0.89,0.068-1.095c0.023-0.114,0.08-0.217,0.171-0.308
		c0.183-0.206,0.286-0.331,0.308-0.376c0.092-0.137,0.183-0.308,0.274-0.514c-0.936,0-1.586-0.411-1.952-1.232
		c-0.114-0.273-0.365-0.639-0.753-1.095l-0.993-1.232c-0.297-0.228-0.479-0.399-0.547-0.514c-0.137-0.228-0.297-0.445-0.479-0.65
		l-0.342-0.41c-0.091-0.137-0.148-0.331-0.171-0.583c-0.045-0.273-0.034-0.467,0.034-0.582c0.206-0.365,0.616-0.547,1.232-0.547
		c0.137,0,0.696,0.068,1.677,0.205c0.389,0.045,1.187,0.216,2.396,0.513c0.366,0.115,0.936,0.309,1.711,0.582l0.993,0.411
		c0.594,0.205,1.061,0.501,1.403,0.89c0.229,0.228,0.468,0.365,0.719,0.41l0.376,0.103c0-0.137,0.011-0.263,0.034-0.376
		c-0.639-0.844-1.403-1.609-2.293-2.293c0,0.114-0.046,0.183-0.137,0.205c-0.137,0.046-0.229,0-0.274-0.136
		c-0.046-0.137,0-0.229,0.137-0.274c0.068-0.023,0.137-0.012,0.206,0.034c0.045,0.022,0.331,0.251,0.855,0.685
		c0.594,0.547,1.107,1.107,1.54,1.677c0.069-0.137,0.148-0.194,0.24-0.171c0.091,0,0.185,0.034,0.272,0.103
		c0.045-0.913,0.217-1.882,0.515-2.909c0.317-0.868,0.479-1.313,0.479-1.335c0.045-0.091,0.104-0.137,0.172-0.137
		c0.112-0.045,0.192,0.011,0.237,0.171c0.048,0.137-0.012,0.217-0.171,0.239c-0.066,0.023-0.146-0.011-0.238-0.102
		c-0.594,1.483-0.891,2.887-0.891,4.209c0.046,0.092,0.066,0.194,0.066,0.308c0,0.046,0.06,0.046,0.172,0h0.172
		c0.913-1.734,1.904-3.092,2.979-4.073C154.921,52.017,155.947,51.321,157.592,50.294z"/>
	<path fill="#C4BE30" d="M127.23,68.435c-0.16,0.525-0.491,1.004-0.993,1.438c-0.502,0.456-0.775,0.775-0.821,0.958
		c-0.046,0.228-0.16,0.411-0.342,0.547c-0.206,0.16-0.457,0.24-0.753,0.24l0.205,0.479c0.069,0.114,0.081,0.273,0.035,0.479
		c-0.046,0.319-0.24,0.65-0.582,0.993c-0.342,0.365-0.673,0.525-0.993,0.479c-0.411-0.115-0.753-0.228-1.027-0.342
		c-0.251-0.16-0.456-0.342-0.616-0.548c-0.183-0.274-0.32-0.594-0.411-0.958c-0.045-0.16-0.103-0.514-0.171-1.061l-0.136,0.068
		c-0.046,0.046-0.08,0.091-0.103,0.137l-0.103,0.309c-0.022,0.114-0.045,0.182-0.068,0.205c0,0.022-0.034,0.057-0.103,0.103
		l-0.136,0.068l0.034-0.616l-0.103-0.103c-0.137,0.137-0.309,0.274-0.514,0.41c-0.16,0.069-0.376,0.137-0.65,0.206
		c-0.114,0.045-0.296,0.159-0.547,0.342c-0.206,0.136-0.388,0.194-0.548,0.171c-0.319-0.091-0.685-0.365-1.095-0.821
		c-0.457-0.502-0.65-0.936-0.583-1.301c0-0.068,0.011-0.16,0.034-0.273c0.023-0.183,0.046-0.319,0.069-0.411
		c0.16-0.205,0.285-0.354,0.376-0.444c0.045-0.046,0.103-0.08,0.171-0.103c0.137-0.022,0.228-0.045,0.274-0.068
		c0.091-0.046,0.182-0.103,0.273-0.171c-0.434-0.274-0.604-0.662-0.514-1.164c0.045-0.16,0.045-0.411,0-0.753l-0.068-0.89
		c-0.069-0.205-0.103-0.331-0.103-0.376v-0.445c-0.023-0.159-0.034-0.262-0.034-0.307c0-0.092,0.034-0.206,0.103-0.342
		c0.068-0.137,0.136-0.217,0.205-0.24c0.205-0.114,0.444-0.068,0.719,0.137c0.022,0,0.274,0.205,0.752,0.616
		c0.092,0.068,0.4,0.399,0.925,0.992l0.958,1.301c0.183,0.274,0.308,0.559,0.377,0.856c0.023,0.16,0.08,0.297,0.171,0.41
		l0.136,0.171l0.137-0.171c-0.023-0.616-0.137-1.209-0.342-1.779c-0.023,0.068-0.057,0.091-0.103,0.068
		c-0.092-0.022-0.125-0.079-0.103-0.171c0.023-0.068,0.08-0.091,0.171-0.068l0.068,0.068c0.046,0.092,0.103,0.286,0.171,0.582
		c0.091,0.434,0.148,0.856,0.171,1.267c0.069-0.046,0.126-0.046,0.171,0c0.069,0.046,0.103,0.091,0.103,0.137
		c0.479-0.662,1.083-1.209,1.814-1.643c0.023-0.023,0.057-0.034,0.103-0.034c0.092,0.046,0.114,0.103,0.069,0.171
		c-0.023,0.069-0.08,0.091-0.171,0.069c-0.046-0.023-0.069-0.069-0.069-0.137c-0.73,0.479-1.312,1.027-1.745,1.643
		c0,0.091-0.023,0.148-0.068,0.171c0,0.023,0.034,0.046,0.103,0.069l0.069,0.034c0.958-0.502,1.848-0.81,2.669-0.924
		c0.297-0.046,0.981-0.046,2.054,0l0.925,0.171L127.23,68.435z M152.148,32.53v-0.821c0.045-0.342,0.16-0.56,0.343-0.65
		c0.228-0.092,0.502-0.023,0.821,0.205c0.137,0.091,0.397,0.331,0.787,0.719l1.025,1.164l0.992,1.506
		c0.183,0.296,0.309,0.616,0.377,0.958c0.021,0.206,0.091,0.365,0.205,0.479l0.137,0.205l0.171-0.171
		c-0.021-0.708-0.126-1.381-0.308-2.019l-0.174,0.068c-0.09-0.045-0.111-0.103-0.066-0.171c0.021-0.068,0.08-0.103,0.172-0.103
		l0.068,0.103c0.066,0.16,0.125,0.376,0.171,0.65c0.112,0.502,0.171,0.981,0.171,1.438c0.066-0.068,0.139-0.068,0.206,0l0.104,0.171
		c0.342-0.457,0.787-0.89,1.334-1.3c0.457-0.319,0.695-0.491,0.719-0.513h0.138c0.091,0.045,0.114,0.102,0.067,0.171
		c-0.045,0.091-0.113,0.125-0.205,0.103l-0.033-0.137c-0.775,0.411-1.449,0.993-2.02,1.746l-0.104,0.171l0.104,0.102l0.066,0.034
		c1.143-0.547,2.146-0.855,3.014-0.924c0.363-0.023,1.141,0,2.326,0.068l1.063,0.274l0.104,0.103
		c-0.207,0.547-0.605,1.072-1.197,1.574c-0.617,0.502-0.938,0.855-0.959,1.061c-0.047,0.205-0.172,0.399-0.377,0.582
		c-0.229,0.16-0.514,0.24-0.854,0.24l0.205,0.514c0.045,0.16,0.045,0.342,0,0.547c-0.068,0.32-0.299,0.685-0.688,1.095
		c-0.387,0.365-0.775,0.525-1.162,0.479c-0.389-0.114-0.766-0.262-1.131-0.444c-0.342-0.206-0.559-0.411-0.65-0.616
		c-0.182-0.297-0.316-0.662-0.408-1.095l-0.174-1.198l-0.271,0.205l-0.104,0.342l-0.139,0.239l-0.102,0.103l-0.137,0.102
		l0.067-0.752l-0.138-0.068c-0.16,0.159-0.366,0.296-0.617,0.411c-0.25,0.114-0.479,0.194-0.684,0.239
		c-0.139,0.022-0.354,0.125-0.65,0.308c-0.186,0.16-0.389,0.217-0.615,0.171c-0.344-0.068-0.742-0.376-1.197-0.924
		c-0.479-0.593-0.687-1.096-0.616-1.506c0.046-0.388,0.103-0.628,0.171-0.719l0.445-0.547l0.514-0.171
		c0.113-0.046,0.217-0.103,0.309-0.171c-0.479-0.342-0.648-0.776-0.515-1.301c0.046-0.297,0.058-0.582,0.034-0.855l-0.034-0.993
		C152.184,32.804,152.148,32.644,152.148,32.53z M190.621,45.092c0.16-0.411,0.238-0.627,0.238-0.65l0.067-0.068
		c0.068,0,0.104,0.023,0.104,0.068c0.023,0.068,0,0.114-0.067,0.137c-0.047,0-0.081-0.023-0.104-0.069
		c-0.25,0.616-0.375,1.301-0.375,2.054c0.021,0.022,0.033,0.069,0.033,0.137c0,0.046,0.034,0.046,0.104,0h0.067
		c0.435-0.867,0.891-1.54,1.369-2.02c0.229-0.205,0.719-0.559,1.471-1.061l0.721-0.342l0.104,0.034
		c0.158,0.389,0.172,0.891,0.033,1.506c-0.113,0.547-0.137,0.913-0.066,1.096c0.092,0.159,0.113,0.33,0.066,0.513
		c-0.046,0.228-0.182,0.422-0.41,0.582l0.377,0.206c0.113,0.091,0.207,0.194,0.273,0.308c0.114,0.251,0.146,0.582,0.104,0.993
		c-0.068,0.457-0.219,0.73-0.444,0.822c-0.319,0.136-0.616,0.239-0.89,0.308c-0.297,0.022-0.537,0-0.721-0.068
		c-0.229-0.068-0.488-0.217-0.785-0.445c-0.207-0.183-0.424-0.399-0.65-0.65l-0.068,0.239l0.102,0.309l0.035,0.171v0.103
		c-0.045,0.069-0.058,0.114-0.035,0.137l-0.342-0.444h-0.103c0,0.136-0.058,0.308-0.171,0.513c-0.047,0.091-0.148,0.251-0.309,0.479
		c-0.093,0.137-0.172,0.308-0.24,0.513c-0.067,0.183-0.17,0.308-0.309,0.377c-0.273,0.136-0.66,0.136-1.164,0
		c-0.568-0.091-0.924-0.285-1.061-0.582c-0.16-0.251-0.24-0.422-0.24-0.514c-0.021-0.228-0.021-0.41,0-0.547
		c0-0.045,0.021-0.091,0.066-0.137c0.068-0.068,0.115-0.137,0.14-0.205c0.065-0.091,0.112-0.171,0.136-0.239
		c-0.455,0.021-0.773-0.16-0.957-0.548c-0.068-0.136-0.193-0.308-0.377-0.513l-0.514-0.582c-0.159-0.114-0.251-0.194-0.273-0.239
		c-0.138-0.183-0.205-0.285-0.205-0.308l-0.205-0.171c-0.045-0.069-0.08-0.171-0.104-0.309c-0.021-0.137-0.021-0.228,0-0.274
		c0.092-0.183,0.285-0.273,0.581-0.273c0.138-0.022,0.411,0,0.821,0.068l1.162,0.205l1.336,0.411
		c0.272,0.091,0.502,0.228,0.686,0.411c0.114,0.114,0.24,0.183,0.377,0.205l0.171,0.035v-0.171c-0.317-0.411-0.694-0.765-1.13-1.062
		c0,0.046-0.021,0.08-0.066,0.103c-0.067,0.022-0.115,0-0.139-0.068c-0.021-0.069,0-0.126,0.069-0.171l0.065,0.034
		c0.229,0.16,0.377,0.273,0.445,0.342c0.297,0.228,0.549,0.479,0.753,0.753c0.022-0.068,0.068-0.103,0.138-0.103
		c0.067,0.023,0.113,0.045,0.139,0.068C190.45,46.039,190.507,45.571,190.621,45.092z"/>
	<path fill="#DC7BA6" d="M185.314,24.076c0.047-0.022,0.093-0.034,0.138-0.034c0.114,0.068,0.147,0.16,0.103,0.273
		c-0.045,0.092-0.125,0.115-0.238,0.069c-0.067,0-0.104-0.057-0.104-0.171c-1.117,0.753-1.975,1.574-2.566,2.464
		c-0.021,0.069-0.058,0.137-0.104,0.206c-0.023,0.022,0.012,0.058,0.104,0.103l0.139,0.068c1.438-0.752,2.749-1.221,3.938-1.403
		c0.454-0.046,1.481-0.046,3.079,0l1.369,0.274l0.103,0.171c-0.183,0.73-0.66,1.438-1.438,2.122
		c-0.753,0.639-1.164,1.107-1.23,1.403c-0.069,0.342-0.229,0.616-0.479,0.821c-0.297,0.251-0.673,0.376-1.13,0.376l0.309,0.685
		c0.092,0.206,0.114,0.434,0.068,0.685c-0.114,0.525-0.398,1.016-0.855,1.472c-0.522,0.57-1.024,0.799-1.506,0.685
		c-0.594-0.114-1.096-0.274-1.507-0.479c-0.409-0.228-0.718-0.491-0.923-0.787c-0.273-0.457-0.48-0.925-0.617-1.404
		c-0.068-0.32-0.148-0.856-0.238-1.608l-0.207,0.137c-0.045,0.023-0.09,0.068-0.137,0.137c-0.021,0.068-0.068,0.228-0.137,0.479
		c-0.045,0.137-0.092,0.24-0.137,0.308c-0.022,0.069-0.08,0.126-0.172,0.171c-0.092,0.046-0.147,0.08-0.17,0.103l0.031-0.959
		l-0.137-0.102c-0.25,0.25-0.516,0.444-0.787,0.582c-0.229,0.114-0.535,0.228-0.924,0.342c-0.205,0.068-0.49,0.228-0.854,0.479
		c-0.299,0.182-0.562,0.25-0.787,0.205c-0.457-0.068-1.004-0.457-1.646-1.164c-0.687-0.752-0.972-1.392-0.854-1.917
		c0.047-0.525,0.113-0.855,0.205-0.993c0.229-0.365,0.398-0.593,0.514-0.685c0.092-0.068,0.172-0.114,0.24-0.137
		c0.229-0.068,0.363-0.113,0.41-0.136c0.204-0.069,0.344-0.148,0.41-0.24c-0.639-0.433-0.891-1.015-0.754-1.745
		c0.068-0.297,0.068-0.662,0-1.095l-0.104-1.301c-0.092-0.342-0.137-0.536-0.137-0.582v-0.65c-0.047-0.251-0.059-0.399-0.035-0.445
		c0-0.16,0.047-0.331,0.139-0.514c0.092-0.205,0.193-0.331,0.309-0.376c0.299-0.137,0.662-0.068,1.098,0.206
		c0.111,0.091,0.467,0.399,1.061,0.924c0.137,0.114,0.593,0.604,1.369,1.472c0.16,0.182,0.456,0.57,0.89,1.164l0.548,0.753
		c0.273,0.434,0.445,0.855,0.514,1.267c0.047,0.273,0.139,0.479,0.273,0.616l0.205,0.274l0.205-0.239
		c-0.021-0.936-0.182-1.826-0.479-2.67c-0.068,0.091-0.137,0.126-0.205,0.103c-0.092-0.046-0.127-0.125-0.104-0.24
		c0.022-0.114,0.093-0.16,0.206-0.137c0.046,0.023,0.092,0.069,0.137,0.137c0,0.046,0.08,0.331,0.239,0.855
		c0.16,0.639,0.251,1.267,0.274,1.883c0.113-0.068,0.205-0.068,0.271,0c0.069,0.046,0.114,0.114,0.139,0.205
		c0.435-0.616,0.992-1.209,1.678-1.78C184.688,24.463,185.02,24.235,185.314,24.076z"/>
</g>
</svg>
