<?xml version="1.0" encoding="utf-8"?>
<!-- Generator: Adobe Illustrator 16.0.0, SVG Export Plug-In . SVG Version: 6.00 Build 0)  -->
<!DOCTYPE svg PUBLIC "-//W3C//DTD SVG 1.1//EN" "http://www.w3.org/Graphics/SVG/1.1/DTD/svg11.dtd">
<svg version="1.1" id="Layer_1" xmlns="http://www.w3.org/2000/svg" xmlns:xlink="http://www.w3.org/1999/xlink" x="0px" y="0px"
	 width="300px" height="300px" viewBox="0 0 300 300" enable-background="new 0 0 300 300" xml:space="preserve">
<g>
	<path fill="#5B2E90" d="M114.95,154.9c-0.434,0.898-0.783,1.467-1.05,1.699c0.7,0,1.217-0.185,1.55-0.551L114.95,154.9z
		 M110.55,156.1l-0.15,0.15l0.3,0.7c0.233-0.2,0.6-0.333,1.1-0.4C111.2,156.25,110.783,156.1,110.55,156.1z M112.55,149.1
		c-0.066-0.1-0.15-0.35-0.25-0.75c-0.066-0.3-0.216-0.533-0.45-0.7c-0.534,0.1-0.883,0.45-1.05,1.05c-0.167,0.6-0.05,1.1,0.35,1.5
		C111.517,150.167,111.983,149.8,112.55,149.1z M89.5,175.1l0.1,0.602c0.1,0.033,0.233,0.017,0.4-0.051
		c0.133-0.065,0.267-0.065,0.4,0c0.034,0.134-0.033,0.482-0.2,1.051l0.55,0.1l0.45-1.148H91c-0.133-0.234-0.233-0.717-0.3-1.45
		c-0.167-0.034-0.333-0.134-0.5-0.3c-0.2,0.199-0.333,0.365-0.4,0.5l0.1,0.05c-0.033,0.065-0.1,0.083-0.2,0.05L89.5,175.1z
		 M80.95,137.4c0.366,0.367,0.75,0.333,1.15-0.1l-2.25-1.5C80.483,136.767,80.85,137.3,80.95,137.4z M95.55,106.1
		c-0.533-0.133-0.95-0.383-1.25-0.75v0.05c0.333,0.5,0.867,0.983,1.6,1.45c0.4-0.067,0.7-0.083,0.9-0.05
		C96.533,106.467,96.117,106.233,95.55,106.1z M213.95,161.95c-0.267-0.468-0.384-1.017-0.351-1.65
		c0.133-0.767,0.199-1.333,0.199-1.7c1.467-1.033,3.067-1.5,4.801-1.398c1.434,0.066,3.065,0.533,4.899,1.398
		c0.2,0.367,0.367,0.834,0.5,1.4c0.2,0.467,0.633,0.816,1.3,1.05c-0.033,0.101-0.199,0.45-0.5,1.05
		c-0.232,0.435-0.316,0.783-0.25,1.051c0.833,0.468,1.467,1.017,1.9,1.649c0.3,0.4,0.683,1.067,1.148,2
		c-0.865,0.366-1.217,0.884-1.05,1.55c0.167,0.533,0.718,1.135,1.649,1.801c0.467-0.399,0.617-0.866,0.451-1.399
		c-0.033-0.101-0.301-0.533-0.801-1.3c0.699,0,1.866-1.167,3.5-3.5c1.268-1.768,2.5-1.768,3.699,0
		c-0.033,0.167-0.216,0.634-0.55,1.398c-0.267,0.602-0.384,1.066-0.351,1.4c0.301,0.166,0.685,0.15,1.149-0.05
		c0.534-0.233,0.917-0.317,1.149-0.25c0.301,0.866,0.934,1.399,1.899,1.6c1.302,0.233,2.101,0.468,2.4,0.7
		c-0.065,0.6-0.416,1.1-1.05,1.5c-0.567,0.334-1.102,0.5-1.602,0.5c-1.166-1.3-2.383-1.867-3.648-1.7c-0.5,0.3-0.75,0.65-0.75,1.05
		c-0.034,0.234-0.034,0.584,0,1.051c-3.268,0.232-6.168-0.551-8.7-2.351c-0.935,0.167-1.634,0.267-2.101,0.3
		c-0.834,0.066-1.551-0.25-2.149-0.949c0-0.399,0.334-0.899,1-1.5c-1.767-0.565-3.017-1.051-3.75-1.449
		c-1.334-0.733-2.05-1.784-2.15-3.15c-0.231-0.267-0.55-0.35-0.948-0.25C214.4,161.934,214.084,161.982,213.95,161.95z
		 M179.2,149.35c0.7-0.567,0.782-1.25,0.25-2.05c-0.567-0.833-1.185-0.9-1.851-0.2c-0.267,0.433-0.199,0.883,0.199,1.35
		C178.166,148.883,178.633,149.183,179.2,149.35z M171.8,156.85c0.366,0,0.733,0.135,1.101,0.4L173.3,157
		c-0.267-0.2-0.483-0.5-0.649-0.9L171.8,156.85z M158.35,74.55c0.467,0.267,1.2,0.6,2.2,1c0.866,0.4,1.5,0.934,1.9,1.6l-0.4,1.3
		c-0.167,0.5-0.384,0.867-0.649,1.1c-0.268,0.133-0.601,0.184-1,0.15c-0.366-0.034-0.699,0.033-1,0.2
		c0.033,1.7,0.166,2.983,0.399,3.85c0.4,1.5,1.116,2.333,2.15,2.5c0.433-0.167,0.782-0.483,1.05-0.95c0.166-0.233,0.4-0.6,0.7-1.1
		c2.2-0.267,4.083-0.217,5.649,0.15c2,0.5,3.315,1.45,3.949,2.85v0.05c0.301-1.1,0.567-1.917,0.801-2.45
		c0.434-0.9,1.101-1.383,2-1.45c0.434-0.8,1.051-1.184,1.851-1.15c0.767,0.033,1.384,0.383,1.85,1.05c0.2,0.3,0.267,0.717,0.2,1.25
		c-0.066,0.733-0.1,1.15-0.1,1.25c-0.2,0.333-0.467,0.567-0.801,0.7l-0.801,0.2c-0.699,0.9-1.517,1.333-2.449,1.3
		c-1.101-0.267-1.916-0.434-2.449-0.5c0.266,0.733,0.35,2.133,0.25,4.2c-0.102,1.833,0.148,3.133,0.75,3.9
		c0.1-0.1,0.332-0.466,0.699-1.1c0.268-0.467,0.616-0.784,1.051-0.95c0.365,0.267,0.967,0.233,1.8-0.1
		c0.733-0.3,1.233-0.217,1.5,0.25l-1.601,1.55c-0.634,0.633-1.399,1.017-2.301,1.15c-0.167,1.333-0.267,2.25-0.3,2.75
		c0,1.033,0.2,2.083,0.601,3.15c-0.5,0.133-0.816,0.533-0.949,1.2c-0.168,0.733-0.367,1.183-0.602,1.35
		c0.102,0.2,0.417,0.55,0.95,1.05c0.367,0.333,0.483,0.75,0.351,1.25c-1.267,0.3-1.982,0.917-2.149,1.85
		c0.1,0.167,0.333,0.316,0.7,0.45c0.3,0.1,0.481,0.317,0.55,0.65c-0.601,0.4-1.233,0.95-1.9,1.65c-0.8,0.867-1.399,1.5-1.8,1.9
		l1.15,1.25l-0.051,0.35l0.25,0.65l-0.25,0.1l0.149,0.3c-0.367,0.1-0.533,0.317-0.5,0.65c0,0.434-0.065,0.717-0.2,0.85h-0.05
		l0.649,1.35l1.551,0.7l0.05,0.35c0.899-0.3,1.283-0.9,1.149-1.8c0.232-0.067,0.551-0.033,0.949,0.1
		c0.367,0.133,0.734,0.083,1.102-0.15c-0.034-0.167-0.2-0.6-0.5-1.3c-0.135-0.3-0.102-0.617,0.1-0.95c0.4-0.1,0.833-0.05,1.301,0.15
		c0.565,0.167,0.983,0.25,1.25,0.25c0.065-0.2,0.282-0.417,0.649-0.65c0.367-0.267,0.601-0.483,0.7-0.65
		c0.667,0.667,1.615,0.95,2.85,0.85c1.135-0.1,1.967-0.433,2.5-1c0.102,0.167,0.15,0.483,0.15,0.95c0,0.233,0.183,0.333,0.55,0.3
		c0.435-0.6,1.05-1.083,1.851-1.45c0.934-0.4,1.666-0.333,2.199,0.2c-0.134,0.233-0.5,0.5-1.1,0.8c-0.602,0.3-0.967,0.55-1.102,0.75
		c0.168,0.333,0.717,0.75,1.65,1.25c0.732,0.367,1.133,1.05,1.199,2.05c0.334,0.267,0.717,0.333,1.15,0.2
		c0.6-0.2,0.983-0.3,1.149-0.3c0.2,0.433,0.032,0.833-0.5,1.2c-0.5,0.4-0.666,0.8-0.5,1.2c0.065,0.5,0.334,0.833,0.8,1
		c0.534,0.2,0.852,0.483,0.95,0.85c-0.935,0.533-1.134,1.75-0.601,3.65c0.566,1.934,0.435,3.2-0.399,3.8
		c0.267,0.2,0.717,0.4,1.351,0.6c0.434,0.233,0.584,0.65,0.449,1.25c-0.333,0.133-0.768,0.167-1.3,0.1
		c-0.533-0.066-0.983-0.033-1.351,0.1c-0.601,0.6-0.949,1.233-1.051,1.9c-0.1,0.667,0.051,1.3,0.45,1.9
		c-0.233,0.333-0.55,0.317-0.95-0.05c-0.533-0.433-0.967-0.583-1.3-0.45c-0.366,0.367-0.866,1.167-1.5,2.4
		c-0.532,1.033-1.149,1.767-1.851,2.2c-1.166-0.6-2.232-0.917-3.199-0.95c-0.232,0.5-0.133,1.1,0.3,1.8c0.267,0.267,0.7,0.5,1.3,0.7
		c0.533,0.2,0.95,0.483,1.25,0.85c-0.898,0.633-1.25,1.367-1.05,2.2c0.2,0.733,0.75,1.25,1.649,1.55
		c0.135,0.6,0.734,1.833,1.801,3.7c0.867,1.533,1.217,2.783,1.05,3.75c0.667,0.566,1.649,0.816,2.95,0.75c0.5,0.5,1,1.566,1.5,3.2
		c0.4,1.3,1.184,2.2,2.35,2.7c-0.266,0.398-0.365,0.934-0.3,1.6c0.034,0.732-0.032,1.268-0.2,1.6c-0.566-0.398-0.898-0.916-1-1.55
		l-0.199-1.55c-3.065-1.6-4.699-2.45-4.899-2.55c-0.134-0.233-0.101-0.65,0.101-1.25c0.199-0.534,0.116-0.95-0.25-1.25
		c-0.9,0.565-1.551,0.899-1.949,1c-0.701,0.233-1.367,0.167-2-0.2c0.231-0.4,0.516-0.584,0.85-0.55c0.5,0.032,0.768,0.05,0.8,0.05
		c0.3-0.232,0.399-0.518,0.3-0.85c-0.199-0.334-0.315-0.602-0.35-0.801l-0.35-0.199l-0.75,0.5c-0.135-0.168-0.201-0.334-0.201-0.5
		c-0.766,0.332-1.35,0.565-1.75,0.699c-0.666,0.166-1.266-0.017-1.799-0.551c-0.168,0.167-0.334,0.467-0.5,0.9
		c-0.135,0.267-0.367,0.417-0.701,0.449c-1.232-0.768-2.399-1.101-3.5-1c-1.266,0.101-2.25,0.732-2.949,1.899l-0.15-0.05
		c0.301,0.467,0.217,0.883-0.25,1.25l-0.449-0.25c0,0.3-0.116,0.566-0.351,0.8c-0.5,0-0.966-0.183-1.399-0.55
		c-0.434-0.4-0.684-0.85-0.75-1.35l-1.301,1.148l0.801,0.7c0.134-0.033,0.533-0.166,1.199-0.399c0.301,0.633,0.717,1.149,1.25,1.551
		c0.301,0.231,0.75,0.533,1.352,0.898c-0.768,0.467-1.9,0.385-3.4-0.25c-0.1,0.866-0.066,1.635,0.102,2.301
		c0.865,0.633,1.717,0.434,2.55-0.601c0.733-0.935,1.032-1.834,0.899-2.7c0.801-0.699,2.018-0.783,3.649-0.25
		c1.666,0.5,2.899,0.417,3.7-0.25c0.167,0.434,0.148,0.801-0.051,1.102c-0.101,0.133-0.416,0.398-0.949,0.8
		c-0.866-0.8-2.15-0.767-3.852,0.1c-1.731,0.866-2.148,1.968-1.25,3.3c-0.332,0.7-0.832,1.117-1.5,1.25
		c-0.766,0.168-1.283,0.418-1.55,0.75c-0.601-1.033-1.351-1.449-2.25-1.25l1.75,0.65c1.101,2.166,1.817,3.717,2.149,4.65
		c0.268,0.166,0.4,0.266,0.4,0.3l-0.199,0.149c0.666,1.934,0.883,3.666,0.648,5.199c0.4,0.034,0.75,0.184,1.051,0.45
		c0.366,0.3,0.633,0.483,0.801,0.55c0.6-0.634,1.717-0.85,3.35-0.648c2.066,0.266,3.334,0.35,3.8,0.25
		c0.067,0.065,0.483,0.6,1.25,1.6c0.435,0.533,1.101,0.75,2,0.65c0.399,1.133,1,2.783,1.8,4.949
		c0.533,1.866,0.566,3.649,0.102,5.351c-0.034,0.134-0.352,0.634-0.95,1.5c-0.399,0.565-0.467,1.149-0.2,1.75
		c-0.566,0.466-1.449,0.983-2.648,1.55c-1.234,0.6-2.117,1.084-2.65,1.45c1.8,2.733,2.967,4.782,3.5,6.149
		c0.834,2.268,0.55,3.851-0.85,4.75c-0.734,0.5-1.635,0.416-2.7-0.25c-0.935-0.566-1.833-1.449-2.7-2.649
		c-0.5,0.233-0.684,0.782-0.55,1.649c0.2,1.334,0.3,2.051,0.3,2.149c-0.7-0.233-1.416-1.25-2.15-3.05
		c-0.8-2.034-1.648-3.4-2.55-4.102c0-0.6-0.233-1.533-0.7-2.8c-0.5-1.233-0.699-2.183-0.6-2.851l-0.5-0.399
		c-0.467,0.468-0.934,0.601-1.4,0.399c0.635-2.101,0.117-3.75-1.55-4.949l0.7-2c-0.066-0.367-0.45-0.717-1.15-1.051
		c-0.8-0.399-1.283-0.717-1.449-0.949c0.134-0.434,0.566-0.65,1.301-0.65c0.699-0.033,1.083-0.398,1.148-1.1
		c-0.934-0.732-1.981-0.883-3.148-0.45c-1.135,0.435-1.934,1.284-2.4,2.55l0.102,0.102c-0.102,0.332-0.352,0.566-0.75,0.699
		c-0.4,0.133-0.685,0.033-0.852-0.301c-0.1-0.467-0.033-0.816,0.2-1.05c-0.899-0.333-1.565-0.583-2-0.75l0.351,0.45
		c0.166,0.066,0.268,0.166,0.301,0.3c0.832,0.935,1.481,1.534,1.949,1.8c0.699,0.434,1.399,0.467,2.101,0.102
		c0.267-0.2,0.45-0.602,0.55-1.2c0.1-0.468,0.383-0.718,0.85-0.75c-0.065,0.8,0.135,2.633,0.602,5.5c0.533-0.2,1.05,0.133,1.55,1
		c0.5,0.834,0.733,1.532,0.7,2.101c-1.167-1.066-1.9-1.949-2.2-2.649c0.033,0.3,0.084,0.616,0.149,0.95
		c0.435,2.832,0.232,5.148-0.6,6.949c-0.135-0.033-0.783-0.449-1.951-1.25c-0.799-0.533-1.434-0.617-1.898-0.25l-2.7-5.051
		c-1.065-1.966-2.383-3.134-3.95-3.5c-0.332,0.434-0.398,0.934-0.199,1.5c-0.533,0.467-1.101,0.784-1.699,0.95
		c-0.7,0.133-1.233,0.25-1.602,0.351c-0.133,0.199-0.066,0.532,0.2,1c0.334,0.532,0.5,0.883,0.5,1.051l-0.149,0.1l0.399,0.4
		c-0.333,0.6-0.75,0.934-1.25,1l0.25,0.148c-0.333,0.366-0.782,0.5-1.351,0.4c0,0.199,0.185,0.666,0.551,1.398
		c0.268,0.533,0.232,0.984-0.102,1.352c-0.398-0.135-0.75-0.45-1.049-0.95c-0.334-0.533-0.783-0.95-1.351-1.25
		c-0.101-0.3,0.032-0.733,0.399-1.3l-0.301-0.25l0.602-0.25l0.25-0.551c-0.301-0.301-0.635-0.351-1-0.149
		c-0.168,0.334-0.467,0.815-0.9,1.45l-0.05-0.551c-0.2,0.301-0.434,0.533-0.7,0.699c-0.434,15.9-0.65,25.102-0.65,27.602
		c0,1.666-0.267,2.433-0.8,2.3c-0.5-0.134-0.667-1.017-0.5-2.649c0.1-1.134,0.284-4.482,0.55-10.051
		c0.267-6.199,0.466-12.05,0.6-17.55l-0.25-0.25l-0.4,0.3c-0.3,0-0.566-0.167-0.8-0.5c-0.233-0.365-0.283-0.684-0.15-0.949v-0.051
		c-1.233-0.833-2.3-1.083-3.2-0.75l-0.05-0.3c-0.8-0.101-1.317-0.584-1.55-1.45c-0.566,0.801-0.783,1.7-0.65,2.7
		c-2.6,0.767-3.6,2.3-3,4.601c0.8,3.101,0.883,5.166,0.25,6.199c-0.267,0.467-0.716,0.833-1.35,1.102
		c-0.9,0.332-1.667,0.648-2.3,0.949c-2.167-0.666-3.684-1.949-4.55-3.851c-0.6,0.334-2.4,0.334-5.4,0
		c-2.233-0.233-3.683,0.633-4.35,2.601l0.15-0.051l0.65,0.65c-0.167,0.166-0.417,0.433-0.75,0.8c-0.3,0.3-0.55,0.467-0.75,0.5
		c0.233,0.3,0.267,0.685,0.1,1.149c-0.2,0.467-0.483,0.717-0.85,0.75c-0.5-0.967-0.35-1.684,0.45-2.149l0.1,0.05
		c-0.133-0.232-0.133-0.518,0-0.85c0.1-0.301,0.284-0.534,0.55-0.7c-0.733-0.134-1.167-0.617-1.3-1.45c-0.167-0.865-0.5-1.398-1-1.6
		c-0.2,0.1-0.683,0.134-1.45,0.1c-0.633-0.066-1.067,0.051-1.3,0.352c-0.167,0.398-0.216,0.967-0.15,1.699
		c0.034,0.565-0.167,1.032-0.6,1.399l-1.65-0.601c0.267-1.301,0.233-2.449-0.1-3.449c-0.466-1.268-1.383-1.567-2.75-0.9
		c-0.066,0.167-0.033,0.616,0.1,1.352c0.067,0.5-0.133,0.865-0.6,1.1c-0.1-0.033-0.633-0.4-1.6-1.1
		c-0.533-0.4-1.167-0.584-1.9-0.551c-0.133-0.334-0.066-0.851,0.2-1.551c0.333-0.833,0.55-1.449,0.65-1.85
		c-0.367-0.102-0.667-0.352-0.9-0.75c-0.233-0.467-0.483-0.768-0.75-0.9c-0.5-0.033-0.867-0.066-1.1-0.1
		c-0.466-0.034-0.9-0.168-1.3-0.4l-0.05-0.3L103,196.7v-0.2c-0.133-0.666-1.184-2.6-3.15-5.8c-1.433-2.3-1.733-4.601-0.9-6.9
		c-0.033-0.032-0.267-0.282-0.7-0.75c-0.233-0.333-0.566-0.532-1-0.6c0.033-0.5,0.267-0.851,0.7-1.05c0.467-0.2,0.717-0.533,0.75-1
		c-0.267-0.301-0.667-0.867-1.2-1.7c-0.2-0.067-0.333-0.25-0.4-0.55h0.15c-0.833-1.602-1.383-2.566-1.65-2.9l-0.15,0.3
		c-0.2-0.2-0.483-0.282-0.85-0.25c-0.1-0.267-0.167-0.417-0.2-0.45c-0.167-0.065-0.333-0.05-0.5,0.051l-0.35,0.149l-0.2-0.05
		l-0.25,0.35l0.3,0.2c0.3,0.134,0.633,0.15,1,0.05c0.434-0.1,0.733-0.148,0.9-0.148c-0.466,0.5-0.85,1.85-1.15,4.05
		c-0.267,1.733-0.966,2.717-2.1,2.95c-0.233-0.366-0.433-0.983-0.6-1.852c-0.167-0.898-0.384-1.533-0.65-1.898
		c-0.1-0.067-0.267-0.102-0.5-0.102c0.134,0.135,0.2,0.269,0.2,0.4c-0.267,0.033-0.55-0.033-0.85-0.2
		c-0.533,0.3-0.85,0.45-0.95,0.45c-0.4,0.1-0.833,0-1.3-0.3v-0.05c-1.066,0-1.9-0.15-2.5-0.45c-0.066,0.032-0.066,0.1,0,0.2
		c0.067,0.133,0.067,0.25,0,0.35c-0.7,0.066-1.216,0.084-1.55,0.05c-0.6,0-1.034-0.149-1.3-0.45c-0.833,2.533-1.75,4.033-2.75,4.5
		c-0.1-0.766,0.05-1.684,0.45-2.75c0.066-0.231,0.483-1.166,1.25-2.8c-0.233-0.233-0.383-0.417-0.45-0.55l-0.45,0.35l0.25,0.5
		c-0.233,0.102-0.417-0.016-0.55-0.35c-0.366,0.166-0.733,0.084-1.1-0.25c-0.033-0.633,0.283-1.3,0.95-2
		c-0.4-0.066-0.833-0.25-1.3-0.55c-0.667-0.435-1.067-0.685-1.2-0.75c-0.133-0.034-0.25,0.017-0.35,0.149l-0.3,0.351
		c-0.066-0.333-0.35-0.45-0.85-0.351V173.9l-0.6,0.3l-0.15,0.649l0.45-0.449c0.233,0.133,0.25,0.315,0.05,0.55
		c-0.167,0.233-0.35,0.267-0.55,0.1L74,177.3c0.1,0.333,0,0.7-0.3,1.101h-0.15c-1.7,3.566-3.683,6.084-5.95,7.551
		c-0.7-1.135-1.2-1.983-1.5-2.551c-0.5-1.032-0.7-2.032-0.6-3c0.566-0.434,1-0.75,1.3-0.949c0.534-0.366,1.034-0.583,1.5-0.65
		c0.333,0.067,0.667,0.268,1,0.602c0.333,0.3,0.717,0.481,1.15,0.55l1.3-1.95c-0.4-0.232-0.617-0.6-0.65-1.1
		c0.367-0.269,0.867-0.4,1.5-0.4c0.667-1.434,0.883-2.6,0.65-3.5l-0.3-0.05c0-0.101,0.05-0.2,0.15-0.3
		c-0.034-0.135-0.133-0.316-0.3-0.551c-0.066,0.166-0.1,0.399-0.1,0.699c-1,0-1.617-0.267-1.85-0.8
		c-0.867,0.334-1.35,0.517-1.45,0.55c-0.533-0.267-1.1-0.615-1.7-1.05c-0.1,0.399-0.25,1-0.45,1.8c-0.2,0.667-0.55,1.25-1.05,1.75
		c-1.067-0.732-2.333-2.134-3.8-4.199c-0.233,0.133-0.517,0.149-0.85,0.051c-0.033-0.135,0-0.185,0.1-0.15
		c0.067,0,0.15,0.018,0.25,0.05c0-0.134-0.05-0.267-0.15-0.399c-0.1-0.166-0.15-0.301-0.15-0.399l0.15-0.2l-1.1-1.449
		c0.767-1.166,1.4-1.949,1.9-2.351c-0.267-0.565-0.417-1.133-0.45-1.7l-0.8-0.3c0.3-0.3,0.15-0.584-0.45-0.851
		c0-0.101,0.067-0.199,0.2-0.301c0.1-0.1,0.167-0.217,0.2-0.35c0.1,0.033,0.434,0.018,1-0.05c0.267-0.968,1.05-2.218,2.35-3.75
		c1.333-1.601,2.133-2.8,2.4-3.601l-0.85-1c-0.6,0.268-1.066,0.416-1.4,0.449c0.1,0.102,0.15,0.184,0.15,0.25
		c0.233,0.034,0.55,0.217,0.95,0.551c0.033,0.199,0.017,0.434-0.05,0.699c-0.1,0.233-0.233,0.4-0.4,0.5
		c-0.2-0.066-0.35-0.216-0.45-0.449c-0.134-0.334-0.217-0.517-0.25-0.551c-0.067,0.102-0.267,0.233-0.6,0.4
		c-0.267,0.134-0.417,0.333-0.45,0.6c-1.033-0.466-1.833-0.865-2.4-1.199c-1.1-0.601-1.517-1.199-1.25-1.801
		c0.233-0.466,0.867-0.5,1.9-0.1c0.067-0.102,0.067-0.2,0-0.301c-0.733-0.233-1.083-0.666-1.05-1.301c0.1,0,1-0.115,2.7-0.35
		c1.1-0.133,2.15,0.05,3.15,0.55c1.2-1.233,1.95-2.05,2.25-2.45c0.8-1.033,1.366-2.2,1.7-3.5c0.6,0.233,1.217,0.083,1.85-0.45
		c0.7-0.633,1.233-0.95,1.6-0.95c0.033-0.167-0.034-0.717-0.2-1.65c-0.1-0.6,0.1-1.1,0.6-1.5c0.833,0.367,1.55,0.5,2.15,0.4
		l-0.1-0.15l-3.2-0.5c-0.267,0.167-0.35,0.383-0.25,0.65c0.2,0.4,0.3,0.617,0.3,0.65c-0.767-0.033-1.2-0.417-1.3-1.15
		c0.033-0.867,0-1.45-0.1-1.75c-0.267-0.367-0.65-0.4-1.15-0.1c-0.5,0.267-0.883,0.267-1.15,0c0.1-0.467,0.467-1.1,1.1-1.9
		c0.567-0.7,0.85-1.367,0.85-2c-0.733-0.6-1.25-1.067-1.55-1.4c-0.6-0.566-0.833-1.05-0.7-1.45l0.6-0.65
		c0.9,0.433,1.8,1.55,2.7,3.35c0.933,1.8,1.883,2.917,2.85,3.35c1.134-1.1,1.083-2.217-0.15-3.35c0.167-0.333,0.317-0.566,0.45-0.7
		c0.333-0.233,0.583-0.434,0.75-0.6c-0.833,0-1.267-0.617-1.3-1.85c0.134-1.467,0.15-2.45,0.05-2.95h0.05
		c-0.367-1-1.133-1.8-2.3-2.4c-1.067-0.6-2.017-0.816-2.85-0.65c0.033-0.233,0.233-0.566,0.6-1c0.133-0.233,0.017-0.483-0.35-0.75
		c-0.9,0.267-1.85,0.283-2.85,0.05c-1.2-0.3-1.883-0.9-2.05-1.8c0.3-0.133,0.85-0.133,1.65,0c0.8,0.133,1.35,0.15,1.65,0.05
		c0.1-0.467-0.133-1.267-0.7-2.4c-0.434-0.9-0.317-1.85,0.35-2.85c-0.167-0.5-0.517-0.833-1.05-1c-0.7-0.233-1.15-0.434-1.35-0.6
		c0.133-0.533,0.6-0.8,1.4-0.8c0.8,0.034,1.267-0.233,1.4-0.8c0.3-0.533,0.267-1.067-0.1-1.6c-0.367-0.566-0.467-1.066-0.3-1.5
		c1.333,0.167,2.417-0.867,3.25-3.1c0.867-2.333,1.917-3.483,3.15-3.45c-0.4-0.7-0.684-1.217-0.85-1.55
		c-0.267-0.566-0.117-1.083,0.45-1.55c0.467,0.133,0.934,0.417,1.4,0.85c0.467,0.467,0.917,0.75,1.35,0.85c1-0.133,1.8-0.5,2.4-1.1
		c0.6-0.567,0.917-1.283,0.95-2.15c0.467-0.167,0.784,0.083,0.95,0.75c0.167,0.8,0.45,1.267,0.85,1.4
		c0.633-0.1,1.717-0.517,3.25-1.25c1.267-0.667,2.4-0.95,3.4-0.85c0.6,1.3,1.35,2.333,2.25,3.1c1.1,1,2.25,1.383,3.45,1.15l1.25-2.4
		c0.233,0.4,0.583,0.8,1.05,1.2c0.233,0.2,0.583,0.5,1.05,0.9c0.233-0.567,0.284-1.167,0.15-1.8c0.2,0.067,0.434,0,0.7-0.2
		c0.267-0.2,0.55-0.2,0.85,0c0.033,0.333-0.05,0.8-0.25,1.4c-0.233,0.6-0.5,1.1-0.8,1.5c0.1,0.333,0.083,0.7-0.05,1.1
		c1.233,0.367,2.4,0.2,3.5-0.5c1.066-0.7,1.8-1.733,2.2-3.1c0.333,0.233,0.633,0.55,0.9,0.95c0.3,0.467,0.517,0.767,0.65,0.9
		c0.833-1.434,0.483-2.733-1.05-3.9c-1.9-1.433-2.9-2.683-3-3.75c-0.033-0.433,0.1-0.9,0.4-1.4c0.167-0.3,0.517-0.883,1.05-1.75
		c1.7-0.633,3.317-0.533,4.85,0.3c0.233-0.5,1.434-1.4,3.6-2.7c1.567-0.933,2.067-2.25,1.5-3.95c0.633-0.367,1.216-0.3,1.75,0.2
		c0.567,0.5,1.05,0.7,1.45,0.6c0.1-0.2,0.417-0.467,0.95-0.8c0.434-0.3,0.65-0.6,0.65-0.9c-0.1-0.3-0.35-0.683-0.75-1.15
		c-0.3-0.367-0.4-0.767-0.3-1.2l1.35-0.45l0.5,0.85c0.167-0.4,0.316-0.667,0.45-0.8c1.2,0.7,2.15,1.033,2.85,1
		c-0.3-0.267-0.5-0.467-0.6-0.6c-0.2-0.233-0.2-0.5,0-0.8l1.6-0.1c0.5-0.033,0.983-0.233,1.45-0.6c0.433,0.267,0.816,1.15,1.15,2.65
		c0.3-0.1,0.617-0.067,0.95,0.1c0.4,0.167,0.7,0.233,0.9,0.2l0.35-0.2c-0.3-0.066-0.583-0.233-0.85-0.5
		c0.5-0.533,0.917-0.867,1.25-1c0.433-0.167,0.85-0.017,1.25,0.45l-0.35,0.45l0.2-0.05c0.6,0.633,2.284,1.483,5.05,2.55
		c2.167,0.833,3.55,2.216,4.15,4.15l0.45,0.05c0.167-0.167,0.45-0.433,0.85-0.8c0.4-0.333,0.684-0.65,0.85-0.95
		c0.267,0.033,0.7,0.167,1.3,0.4c0.566,0.233,1,0.35,1.3,0.35c-0.1-0.566,0.05-1.083,0.45-1.55c0-0.467,0.283-0.883,0.85-1.25
		c0.067-0.434-0.15-1.233-0.65-2.4c-0.433-1-0.5-1.8-0.2-2.4c0.5,0.2,1,0.583,1.5,1.15c0.033-0.267,0.233-0.55,0.6-0.85
		c0.167,0.533,0.567,1.117,1.2,1.75c0.667,0.667,1.066,1.167,1.2,1.5c1.667,0.733,3.217,1.533,4.649,2.4
		c-0.5-1.6-0.851-2.783-1.051-3.55c-0.365-1.367-0.365-2.383,0-3.05c0.467,0.5,0.852,1.3,1.15,2.4c0.167,0.6,0.365,1.55,0.6,2.85
		c0.467,0.233,0.833,0.583,1.102,1.05c0.267,0.5,0.217,0.85-0.15,1.05l-0.25-0.3c0.268,0.433,0.566,0.733,0.9,0.9
		c0.033-0.733,0.615-1.467,1.75-2.2c1.199-0.8,1.883-1.467,2.05-2c-0.767-1.8-1.233-3.767-1.4-5.9
		C157.6,77.767,157.783,75.95,158.35,74.55z"/>
</g>
</svg>
