<?xml version="1.0" encoding="utf-8"?>
<!-- Generator: Adobe Illustrator 16.0.0, SVG Export Plug-In . SVG Version: 6.00 Build 0)  -->
<!DOCTYPE svg PUBLIC "-//W3C//DTD SVG 1.1//EN" "http://www.w3.org/Graphics/SVG/1.1/DTD/svg11.dtd">
<svg version="1.1" id="Layer_1" xmlns="http://www.w3.org/2000/svg" xmlns:xlink="http://www.w3.org/1999/xlink" x="0px" y="0px"
	 width="300px" height="300px" viewBox="0 0 300 300" enable-background="new 0 0 300 300" xml:space="preserve">
<g>
	<path fill="#2E368F" d="M129.85,100.85c0.767-0.4,1.7-0.517,2.8-0.35c1.2,0.167,2.333,0.65,3.4,1.45
		c1.167,0.933,2.05,2.117,2.65,3.55c0.767,1.9,1.466,3.983,2.1,6.25c0.5,1.633,0.883,2.667,1.15,3.1c0.4,0.633,1.017,0.933,1.85,0.9
		h0.1c3.367-0.167,5.25-1.167,5.65-3c0.067-0.367-0.383-2.05-1.35-5.05c-1.5-4.767-2.5-8.5-3-11.2c-0.934-4.867-0.95-8.9-0.05-12.1
		c0.934-3.2,2.684-5.833,5.25-7.9c0.8-0.6,1.417-1.017,1.85-1.25c1.666-0.933,3.316-1.45,4.95-1.55c1.767-0.067,3.3,0.367,4.6,1.3
		c1.833,1.4,2.983,3.517,3.45,6.35l0.05,0.05c0.534,3.067,0.034,7.867-1.5,14.4c-0.899,3.8-2.433,9.2-4.6,16.2
		c-1.5,4.8-2.25,7.567-2.25,8.3c0,0.934,0.25,1.767,0.75,2.5l0.399,0.6c0.866,1,2.065,1.85,3.601,2.55c2.1,0.9,5.2,1.45,9.3,1.65
		c3.2,0.2,5.55,0.533,7.05,1c2.435,0.733,4.45,2.117,6.05,4.15c1,1.333,1.769,2.883,2.301,4.65c0.334,1.167,0.884,1.95,1.649,2.35
		c1.167,0.6,3.601,1.133,7.3,1.6l0.051,0.05c3.033,0.367,6.816-0.617,11.351-2.95c2.767-1.434,6.95-4.083,12.55-7.95
		c3.333-2.3,5.833-3.983,7.5-5.05c2.733-1.7,5.135-2.983,7.2-3.85c2.733-1.167,5.367-1.6,7.899-1.3c2.334,0.267,4.351,1.1,6.051,2.5
		c1.699,1.4,2.816,3.15,3.35,5.25c0.534,2.2,0.333,4.35-0.6,6.45c-1.135,2.5-3.167,4.65-6.102,6.45c-3.365,2-7.648,3.383-12.85,4.15
		c-8.768,1.267-18.018,2.1-27.75,2.5c-5.3,0.233-8.584,0.617-9.85,1.15c-1.7,0.667-2.602,2.232-2.7,4.7
		c-0.101,2.532,0.55,4.282,1.95,5.25c0.865,0.6,2.684,1.1,5.449,1.5c3.532,0.5,6.25,1.183,8.149,2.05
		c2.633,1.166,3.983,2.867,4.05,5.1c0,0.9-0.232,1.783-0.699,2.65c-0.533,0.834-1.199,1.518-2,2.05
		c-1.134,0.767-2.399,1.167-3.801,1.2c-1.6,0.033-3.167-0.383-4.699-1.25c-1.666-1-3.351-1.732-5.051-2.2
		c-1.533-0.433-2.85-0.616-3.949-0.55c-0.566,0.033-1.017,0.166-1.351,0.4c-0.2,0.166-0.3,0.35-0.3,0.55c0,0.5,0.417,1.167,1.25,2
		c0.732,0.767,2,2.433,3.8,5c2.733,3.966,5.149,7.017,7.25,9.149c3.633,3.633,7.834,6.5,12.601,8.601
		c2.666,1.134,4.782,2.716,6.351,4.75c1.433,1.8,2.267,3.716,2.5,5.75c0.2,1.866-0.116,3.5-0.95,4.899
		c-0.834,1.467-2.133,2.399-3.9,2.801c-1.731,0.365-3.717,0.1-5.949-0.801c-2.5-1-5.133-2.767-7.899-5.301L204.2,207
		c-4.7-4.3-8.634-9.383-11.8-15.25c-1.801-3.334-3.602-7.566-5.4-12.7c-1-2.899-1.684-4.483-2.05-4.75
		c-0.101-0.032-0.284,0.15-0.55,0.55l-0.25,0.25c-0.334,0.367-1.2,1.066-2.602,2.102c-3.699,2.767-5.533,4.5-5.5,5.199v0.25
		c0.102,1.301,0.833,2.851,2.2,4.649c0.834,1.067,2.315,2.7,4.45,4.9c3.267,3.333,5.183,5.8,5.75,7.399
		c0.865,2.5-0.333,4.334-3.602,5.5l-1.449,0.351l-1.5,0.1c-3.233-0.134-5.5-2.05-6.801-5.75h-0.05l-0.05-0.2v-0.05
		c-0.666-1.8-1.551-4.667-2.65-8.6c-0.766-3.067-1.332-4.733-1.699-5c-0.065-0.034-0.268,0.149-0.601,0.55
		c-0.601,0.8-1.601,1.4-3,1.8l-1,0.4c-0.601,0.3-0.8,0.95-0.601,1.95c0.268,1.266,1.15,3.332,2.65,6.199
		c3.133,6.101,5.018,11.199,5.649,15.301c0.3,1.934,0.25,3.533-0.149,4.8c-0.468,1.433-1.4,2.3-2.801,2.6
		c-0.8,0.2-1.816,0.167-3.05-0.1c-1.601-0.4-2.983-2.384-4.149-5.95c-0.666-2.066-1.5-5.65-2.5-10.75
		c-0.699-3.768-1.25-6.268-1.65-7.5c-0.1-0.334-0.299-0.6-0.6-0.8c-0.232-0.134-0.517-0.2-0.851-0.2
		c-0.399,0.066-0.733,0.184-1,0.35c-0.533,0.334-0.867,0.801-1,1.4c-0.367,1.633-0.617,4.3-0.75,8c-0.134,3.166-0.3,5.467-0.5,6.9
		c-0.334,2.434-0.884,4.315-1.649,5.648c-0.801,1.366-1.699,2.467-2.701,3.301c-0.933,0.768-1.883,1.282-2.85,1.551
		c-1.033,0.3-1.983,0.3-2.85,0c-0.9-0.367-1.65-1.033-2.25-2c-1.133-1.967-1.3-4.935-0.5-8.9c0.466-2.2,1.333-4.316,2.6-6.35
		c0.733-1.234,1.917-2.816,3.55-4.75c1.033-1.2,1.8-2.2,2.3-3c1.035-1.566,1.35-3.033,0.951-4.4c-0.166-0.5-0.484-0.95-0.951-1.35
		c-0.667-0.566-1.6-0.95-2.8-1.15c-1.333-0.3-2.833-0.268-4.5,0.1c-1.733,0.435-3.317,1.168-4.75,2.2c-1.8,1.4-3.167,3.233-4.1,5.5
		c-1.033,2.601-1.45,5.667-1.25,9.2c0.333,5,0.15,9.367-0.55,13.1c-0.6,3.168-1.483,5.584-2.65,7.25
		c-0.733,0.967-1.483,1.584-2.25,1.852c-0.867,0.3-1.633,0.115-2.3-0.551c-0.967-0.967-1.383-2.801-1.25-5.5V222.6
		c0.233-3.5,1.5-8.967,3.8-16.398c0.767-2.602,1.167-4.034,1.2-4.301l-0.1-0.149c-0.4-0.467-1.183-0.783-2.35-0.95l-0.65-0.1h-0.6
		c-1.133,0.066-1.833,0.417-2.1,1.05c-3.667,8.267-7.333,13.017-11,14.25c-1.733,0.601-3.25,0.351-4.55-0.75
		c-1.133-0.967-1.8-2.334-2-4.101c-0.2-1.434-0.017-2.815,0.55-4.149c0.633-1.467,1.617-2.617,2.95-3.45l0.1-0.05
		c1.8-1.101,4-2.233,6.6-3.399c1.367-0.634,2.25-1.084,2.65-1.351c0.667-0.399,1.017-0.815,1.05-1.25v-0.05
		c0-0.366-0.45-1.417-1.35-3.15l-0.3-0.55l-0.9-2.05v-0.051c-0.867-2.166-1.633-3.649-2.3-4.449c-2.034-2.602-5.133-2.25-9.3,1.05
		c-1.3,1.033-2.683,2.649-4.15,4.851c-0.833,1.268-2.067,3.366-3.7,6.301c-1.333,2.434-2.383,4.25-3.15,5.449
		c-1.167,1.834-2.267,3.233-3.3,4.199c-2.233,2.034-4.217,2.934-5.95,2.7c-1.066-0.101-2.3-0.75-3.7-1.95
		c-1.4-1.232-2.117-2.716-2.15-4.449c0-1.968,0.883-4.25,2.65-6.851c1.3-2,2.983-3.75,5.05-5.25c1.3-0.935,3.233-2.084,5.8-3.45
		c3.367-1.8,5.75-3.384,7.15-4.75c2.267-2.232,3.75-5.148,4.45-8.75c0.434-2.199-0.1-3.8-1.6-4.8
		c-1.9-1.267-5.383-1.899-10.45-1.899h-0.4c-17.6,0-29.684-2.218-36.25-6.649c-4.067-2.767-6.217-5.833-6.45-9.2
		c-0.1-1.633,0.267-3.15,1.1-4.55c0.833-1.367,1.983-2.517,3.45-3.45c1.733-1.033,3.684-1.633,5.85-1.8c2.3-0.2,4.6,0.15,6.9,1.05
		c4.034,1.567,7.6,3.4,10.7,5.5c1.833,1.268,4.017,3.05,6.55,5.35c2.067,1.935,3.717,3.269,4.95,4c1.867,1.2,3.983,1.984,6.35,2.352
		c2.867,0.434,5.083-0.385,6.65-2.45c0.733-1.065,1.2-2.25,1.4-3.55c0.2-1.4,0.083-2.816-0.35-4.25c-0.633-2.1-1.816-3.967-3.55-5.6
		c-2-1.8-4.55-3.133-7.65-4c-3.567-0.967-6.533-2.367-8.9-4.2c-2.1-1.667-3.55-3.483-4.35-5.45c-0.5-1.3-0.684-2.483-0.55-3.55
		c0.167-1.167,0.633-2.133,1.4-2.9c1.633-1.633,4.133-2.067,7.5-1.3c3.466,0.833,6.25,2.45,8.35,4.85c1.233,1.4,2.583,3.7,4.05,6.9
		c1.333,2.966,2.566,5.017,3.7,6.15c0.833,0.8,1.684,1.433,2.55,1.9c2,1.2,3.967,1.75,5.9,1.65c1.967-0.1,3.7-0.9,5.2-2.4
		c0.466-0.533,0.9-1.117,1.3-1.75c2.567-4.367,3.017-8.85,1.35-13.45c-2.667-7.2-10.184-14.417-22.55-21.65
		c-5.466-3.2-9.517-6.883-12.15-11.05c-2.3-3.6-3.417-7.283-3.35-11.05c0.067-2.933,0.85-5.517,2.35-7.75
		c1.533-2.2,3.417-3.55,5.65-4.05c1.7-0.4,3.383-0.25,5.05,0.45c1.833,0.767,3.533,2.117,5.1,4.05c2.7,3.4,5.4,7.467,8.1,12.2
		c1.467,2.6,3.617,6.716,6.45,12.35c2.467,4.934,4.267,8.367,5.4,10.3c1.9,3.267,3.667,5.6,5.3,7c1.2,1.033,2.483,1.717,3.85,2.05
		c1.267,0.3,2.467,0.267,3.6-0.1c0.867-0.267,1.6-0.716,2.2-1.35c0.6-0.6,1-1.35,1.2-2.25c0.567-2.5-0.55-5.184-3.35-8.05
		c-2.633-2.733-3.833-5-3.6-6.8C128.45,102.1,128.95,101.35,129.85,100.85z"/>
</g>
</svg>
