<?xml version="1.0" encoding="utf-8"?>
<!-- Generator: Adobe Illustrator 16.0.0, SVG Export Plug-In . SVG Version: 6.00 Build 0)  -->
<!DOCTYPE svg PUBLIC "-//W3C//DTD SVG 1.1//EN" "http://www.w3.org/Graphics/SVG/1.1/DTD/svg11.dtd">
<svg version="1.1" id="Layer_1" xmlns="http://www.w3.org/2000/svg" xmlns:xlink="http://www.w3.org/1999/xlink" x="0px" y="0px"
	 width="300px" height="300px" viewBox="0 0 300 300" enable-background="new 0 0 300 300" xml:space="preserve">
<g>
	<path fill="#7EC242" d="M106.896,196.236c-2.358-0.238-5.46-0.344-9.307-0.314c-4.267,0.098-7.39,0.133-9.37,0.104
		c-0.589-0.069-1.039-0.118-1.347-0.146c-0.589-0.042-1.004,0.112-1.242,0.464C89.786,196.623,96.874,196.588,106.896,196.236z
		 M111.402,193.373c0.969,0.238,1.39,0.204,1.264-0.104C112.525,192.96,112.104,192.995,111.402,193.373z M116.456,193.584
		c-0.828-0.52-1.818-0.568-2.969-0.146c0.309,0.267,0.779,0.387,1.411,0.357C115.276,193.753,115.796,193.684,116.456,193.584z
		 M106.118,183.246c4.084,0.379,8.429,0.449,13.033,0.211C115.136,183.105,110.792,183.035,106.118,183.246z M105.802,183.141
		c-0.112,0.142-0.358,0.176-0.737,0.105c-0.336-0.112-0.561-0.077-0.673,0.105l0.673,0.146c0.141,0.042,0.295,0.146,0.463,0.314
		C105.921,183.436,106.012,183.211,105.802,183.141z M80.999,169.413c1.39,0,3.572-0.05,6.548-0.147
		c2.709-0.07,4.843-0.035,6.4,0.104c1.699-0.252,4.401-0.379,8.106-0.379c-0.547-0.337-1.277-0.526-2.189-0.568
		c-1.067,0-1.846,0-2.337,0c-2.906,0.07-5.137,0.127-6.695,0.169c-2.85,0.027-5.292-0.027-7.328-0.169
		c4.885-0.379,13.202-0.639,24.951-0.778c3.397-0.099,8.506-0.273,15.329-0.526c5.783-0.267,10.717-0.786,14.802-1.558
		c4.576,0,10.261-0.556,17.055-1.664c9.952-1.629,15.498-2.513,16.635-2.652c0.281-0.028,3.123-0.323,8.526-0.885
		c3.425-0.336,6.232-0.75,8.423-1.242c4.364-1.066,7.067-1.691,8.106-1.874c0.42-0.07,1.774-0.31,4.063-0.716
		c1.655-0.28,3.004-0.541,4.043-0.778c0.352-0.069,0.82-0.281,1.41-0.632c0.28-0.07,0.694-0.07,1.242,0
		c0.563,0.042,0.962,0.042,1.2,0c0.688-0.1,1.655-0.303,2.905-0.61c1.318-0.323,2.273-0.534,2.863-0.632
		c1.01-0.141,2.344-0.211,4-0.211c1.979,0,3.349-0.035,4.105-0.105c1.908-0.14,4.73-0.379,8.465-0.716
		c3.2-0.21,5.973-0.267,8.316-0.168c1.318-0.59,2.779-0.729,4.379-0.421c5.713-1.109,9.523-1.762,11.434-1.959
		c4.338-0.463,8.584-0.378,12.738,0.253l4.611,1.769c0.252,0.549,0.547,1.377,0.885,2.485c0.351,0.968,0.855,1.698,1.516,2.189
		c-0.07,1.011,0.189,2.295,0.779,3.853c0.59,1.656,0.885,2.92,0.885,3.79c0.561-0.042,0.891-0.063,0.988-0.063
		c0.352,0.07,0.59,0.246,0.717,0.527c-0.855,0.729-1.32,1.942-1.391,3.642c-0.141,2.668-0.23,4.085-0.273,4.254
		c0.141,0.211,0.407,0.351,0.801,0.421c0.336,0.07,0.562,0.176,0.674,0.316c-0.112,0.377-0.287,0.498-0.526,0.356
		c-0.351-0.168-0.574-0.237-0.675-0.211c0.07,0.183,0.246,0.407,0.527,0.675c0.238,0.28,0.394,0.49,0.463,0.631
		c-0.562,0.31-0.819,0.982-0.778,2.021c0,0.8,0.153,1.602,0.463,2.4c-0.42,0.379-0.716,0.744-0.884,1.095
		c-0.28,0.448-0.491,1.108-0.633,1.979c0,0.028,0.246,0.112,0.737,0.253c0.521,0.141,0.793,0.315,0.821,0.526
		c-0.197,0.379-0.506,0.582-0.928,0.61c-0.42,0.069-0.785-0.015-1.094-0.254c-0.549,0.828-1.775,2.246-3.686,4.254
		c-1.602,1.699-2.675,3.207-3.223,4.526c-8.323,5.476-16.746,8.353-25.267,8.634c-4.884,0.168-8.036,0.309-9.454,0.42
		c-3.537-0.322-10.104-0.709-19.707-1.158c-8.521-0.406-15.328-0.904-20.424-1.494c-0.169,0.099-0.287,0.042-0.357-0.168
		c-0.112-0.268-0.238-0.422-0.379-0.463c-6.541-0.618-11.496-1.053-14.864-1.307c-0.212-0.027-0.365-0.23-0.464-0.609
		c-0.1-0.311-0.273-0.414-0.526-0.316c-3.565,0-8.78,0.436-15.646,1.307c-7.102,0.897-12.387,1.36-15.854,1.39
		c-3.706-0.142-6.478-0.177-8.317-0.104c-11.777,0.322-19.848,0.428-24.213,0.314c-9.04-0.21-19.918-0.314-32.636-0.314
		c-14.528,0-25.393-0.015-32.594-0.043c7.622-0.238,19.02-0.357,34.194-0.357c15.174,0,26.544-0.127,34.11-0.379
		c-0.253-0.617-0.772-0.926-1.558-0.926c-0.913,0.098-1.558,0.146-1.938,0.146c-0.589,0-5.299-0.099-14.128-0.294
		c-5.727-0.141-10.387-0.162-13.981-0.063c-0.252,0-0.323-0.119-0.21-0.357c0.098-0.311,0.078-0.484-0.063-0.526
		c-3.425,0.168-8.134,0.134-14.128-0.104c-7.075-0.239-11.84-0.358-14.297-0.358c-3.636,0-5.643,0-6.021,0
		c-2.4-0.112-4.59-0.372-6.569-0.778c8.703,0,19.967-0.141,33.793-0.422c17.981-0.351,29.092-0.54,33.331-0.568
		c-2.639-0.237-6.66-0.322-12.064-0.252c-5.446,0.027-9.384-0.063-11.812-0.273c-1.375-0.238-2.415-0.407-3.116-0.505
		c-1.25-0.183-2.337-0.063-3.264,0.356c-1.221-0.238-2.484-0.379-3.79-0.42c-1.319-0.029-2.428,0.041-3.327,0.211
		c-3.229-0.17-7.271-0.219-12.128-0.147c-5.474,0.126-9.545,0.21-12.212,0.252c1.628-0.421,4.021-0.666,7.18-0.736
		c0.028,0,2.73-0.034,8.106-0.104c1.417,0,3.551-0.014,6.401-0.043c2.386-0.069,4.442-0.245,6.169-0.525
		c-0.828-0.309-1.937-0.479-3.327-0.506c-1.628,0-2.856-0.021-3.685-0.063c-3.327,0.041-5.769,0.006-7.327-0.105
		c4.365-0.281,10.38-0.4,18.044-0.357c8.549,0.069,14.521,0.034,17.918-0.104c0.253,0.069,0.393-0.035,0.421-0.316
		c0.042-0.309,0.147-0.483,0.316-0.526c0.21-0.027,1.46-0.027,3.748,0c1.488,0.043,2.562-0.279,3.221-0.969
		c8.492,0.239,15.195,0.303,20.108,0.189c7.103-0.098,13.553-0.491,19.35-1.18c0.029-0.141,0.008-0.351-0.063-0.631
		c-0.029-0.142,0.056-0.295,0.252-0.463c-2.105-0.184-4.716-0.184-7.833,0c-5.138,0.309-7.826,0.463-8.064,0.463
		c-2.667,0.069-6.793,0.057-12.38-0.043c-5.573-0.111-9.763-0.146-12.57-0.104c-2.667,0-4.639,0-5.917,0
		c-2.26,0.028-3.993,0.127-5.201,0.295c-0.379-0.168-0.765-0.218-1.158-0.147c-0.239,0.028-0.372-0.041-0.4-0.211
		c-0.421,0.112-0.702,0.184-0.842,0.211c-0.169,0.028-0.513-0.091-1.032-0.356c-0.281,0.21-0.491,0.315-0.632,0.315
		c-0.14-0.043-0.316,0.021-0.526,0.188c-2.667-0.449-5.868-0.64-9.601-0.567c-4.815,0.111-7.973,0.111-9.475,0
		c0.042-0.07,0.183-0.119,0.421-0.147c0.182,0,0.288-0.104,0.315-0.315c-12.998-0.211-22.824-0.4-29.478-0.568
		c-11.496-0.31-21.582-0.813-30.256-1.517c0.66-0.237,1.459-0.272,2.4-0.104l2.295,0.315c27.723,1.277,55.39,1.313,83,0.104
		c-6.751-0.309-19.02-0.428-36.805-0.357c-15.665,0.07-27.947-0.246-36.847-0.947c2.218-0.141,5.109-0.104,8.675,0.105
		c1.979,0.141,4.822,0.314,8.527,0.525c1.937-0.069,5.334-0.035,10.191,0.104c4.436,0.099,7.917,0.077,10.443-0.063l0.99-0.252
		c0.309-0.07,0.498,0.014,0.568,0.252c0.141,0.07,0.267,0.043,0.379-0.084c0.098-0.141,0.007-0.231-0.273-0.273
		c0.14-0.07,0.33-0.014,0.568,0.169c0.252,0.168,0.477,0.217,0.674,0.147c0.252,0.068,0.52,0.033,0.8-0.105
		c0.337-0.211,0.562-0.316,0.674-0.316c0.267,0.184,0.66,0.219,1.179,0.105c0.491-0.07,0.926,0.035,1.306,0.316
		c0.379-0.239,0.695-0.311,0.947-0.211c0.239,0.111,0.547,0.027,0.926-0.254c0.07,0.211,1.369,0.316,3.896,0.316
		c0.702,0.027,2.436,0.042,5.201,0.042c2.526,0.042,4.625,0.091,6.295,0.147c0.589,0.041,0.744-0.021,0.463-0.189
		c8.422,0.126,13.896,0.175,16.423,0.146c-0.45-0.238-1.404-0.414-2.864-0.525c-2.695-0.169-7.46-0.204-14.296-0.105
		c-6.331,0.141-11.11,0.043-14.339-0.295c5.095-0.111,14.107-0.111,27.035,0c11.355,0.057,20.332-0.035,26.93-0.273
		c-0.87-0.238-2.246-0.379-4.127-0.422c-2.316-0.026-3.839-0.09-4.569-0.188c0.631-0.463,1.846-0.519,3.643-0.168
		c0.94-0.069,3.263-0.142,6.969-0.211c2.906-0.069,5.172-0.272,6.801-0.61c-0.926-0.183-2.744-0.183-5.454,0
		c-2.386,0.17-4.189,0.043-5.411-0.379c0.519-0.127,1.593-0.176,3.221-0.146c1.39,0.027,2.415-0.126,3.074-0.463
		c-0.688-0.239-1.656-0.31-2.906-0.211c-1.418,0.141-2.457,0.211-3.116,0.211c-0.281-0.043-0.351-0.135-0.21-0.274
		c0.141-0.099,0.084-0.183-0.168-0.252c-1.179-0.169-2.941-0.239-5.285-0.211c-2.4,0.042-4.134-0.007-5.201-0.147
		c1.109-0.111,3.531-0.267,7.264-0.463c3.018-0.183,5.411-0.429,7.18-0.736c-2.386-0.211-5.334-0.315-8.843-0.315
		c-4.015,0.042-7.025,0.042-9.033,0c-24.396,0.21-42.525,0.196-54.386-0.043c-0.098,0.142-0.372,0.226-0.821,0.253
		c-0.449,0.042-0.568-0.007-0.357-0.146c0.14,0.027,0.21-0.027,0.21-0.168c0-0.17-0.057-0.17-0.169,0
		c0-0.211,0.12-0.315,0.358-0.315c0.112,0,0.288,0.021,0.526,0.063c4.478-0.238,11.77-0.287,21.876-0.147
		c9.952,0.126,17.371,0.056,22.255-0.21c2.976,0.07,7.566,0.154,13.77,0.252c5.334,0,9.77-0.225,13.307-0.674
		c0.309,0.238,0.66,0.287,1.053,0.146c0.168-0.068,0.218-0.014,0.147,0.17c0.449-0.211,1.313-0.338,2.59-0.379
		c1.179-0.029,2.014-0.219,2.506-0.568c-5.573,0.07-9.798,0.056-12.676-0.043c-4.127-0.141-11.166-0.161-21.118-0.063
		c-9.068,0.112-16.03,0.027-20.887-0.253c4.057,0.07,8.731,0.056,14.023-0.042c3.06-0.042,7.657-0.134,13.791-0.273
		c0.197-0.027,0.365-0.099,0.506-0.211c0.07-0.027,0.161-0.111,0.273-0.252c1.656-0.07,6.036-0.141,13.139-0.211
		c5.376-0.027,9.608-0.183,12.696-0.464c0.309,0,0.583-0.104,0.821-0.315c0.309-0.28,0.498-0.436,0.568-0.463
		c1.909-0.141,4.737-0.399,8.485-0.778c-1.769-0.351-4.527-0.372-8.275-0.063c-3.944,0.353-6.766,0.407-8.464,0.17
		c0.59-0.113,1.713-0.205,3.369-0.274c1.46-0.027,2.569-0.161,3.327-0.399c-8.829,0.309-21.49,0.442-37.984,0.399
		c-18.023,0-30.846,0.092-38.468,0.274c-0.112-0.07-0.288-0.127-0.526-0.17c-0.21-0.027-0.4-0.183-0.568-0.463
		c-3.846,0.379-9.026,0.379-15.539,0c2.878-0.169,6.983-0.238,12.317-0.211c5.685,0,9.77-0.049,12.254-0.146
		c0.73-0.043,1.825-0.254,3.285-0.631c1.488-0.142,3.341-0.177,5.559-0.105c1.25,0.042,3.124,0.098,5.622,0.168
		c2.077,0,7.517-0.105,16.318-0.314c6.751-0.17,12.275-0.17,16.57,0c1.572-0.311,4.436-0.43,8.591-0.358
		c3.734,0.069,6.52-0.188,8.359-0.779c-0.449,0-3.39,0.05-8.822,0.147c-3.607,0.07-6.52-0.049-8.738-0.357
		c-1.979,0.21-4.751,0.314-8.317,0.314c-4.478,0-7.391,0.029-8.738,0.084c-1.796,0.07-4.709,0.105-8.738,0.105
		c-3.734,0-6.59,0.057-8.57,0.169c0.421-0.309,1.025-0.464,1.811-0.464C79.377,169.37,80.072,169.385,80.999,169.413z"/>
</g>
</svg>
