<?xml version="1.0" encoding="utf-8"?>
<!-- Generator: Adobe Illustrator 16.0.0, SVG Export Plug-In . SVG Version: 6.00 Build 0)  -->
<!DOCTYPE svg PUBLIC "-//W3C//DTD SVG 1.1//EN" "http://www.w3.org/Graphics/SVG/1.1/DTD/svg11.dtd">
<svg version="1.1" id="Layer_1" xmlns="http://www.w3.org/2000/svg" xmlns:xlink="http://www.w3.org/1999/xlink" x="0px" y="0px"
	 width="300px" height="300px" viewBox="0 0 300 300" enable-background="new 0 0 300 300" xml:space="preserve">
<g>
	<path fill="#77C586" d="M113,192.9c1.1-0.467,2.017-0.334,2.75,0.398c0.2,1.7-0.384,2.75-1.75,3.15
		c-1.366,0.398-2.316-0.067-2.85-1.4C111.283,194.084,111.9,193.367,113,192.9z M116.1,198.45c-0.166,0.399-0.017,0.6,0.45,0.6
		c-0.5,0.233-0.633,0.784-0.399,1.65c0.3,0.899,0.267,1.532-0.101,1.899c-0.467-0.468-0.666-1.199-0.6-2.199
		c0.233-1.168,0.333-2.033,0.3-2.602C116.184,197.834,116.3,198.05,116.1,198.45z M109.6,191.05c0.233,0.167,0.766,0.534,1.6,1.101
		c0.566,0.566,0.467,1.033-0.3,1.399c-0.467-0.134-0.784-0.45-0.95-0.95C109.883,192.434,109.767,191.916,109.6,191.05z
		 M118.6,186.25c-0.233,0.6-0.666,1.268-1.3,2c-0.467,0.533-0.717,1.133-0.75,1.8c-0.333-0.333-0.533-0.35-0.6-0.05
		c-0.3-0.1-0.334-0.217-0.101-0.35c0.367-0.234,0.534-0.418,0.5-0.551c-0.033-0.267-0.316-0.334-0.85-0.199
		c-0.533,0.1-0.767,0.332-0.7,0.699c-0.5-0.399-0.8-0.416-0.899-0.051c-0.2-0.433-0.517-1.648-0.95-3.648
		c0.033-0.168,0.083-0.234,0.149-0.2c0.101,0.032,0.15,0.1,0.15,0.2c0.134-0.135,0.55-0.334,1.25-0.602
		c0.566-0.232,0.884-0.583,0.95-1.05c0.233,0.8,1.116,1.149,2.649,1.05c0.034,0.034,0.101,0.217,0.2,0.551
		C118.333,186.084,118.434,186.217,118.6,186.25z M126.35,191.85c0.233,0.066,0.233,0.168,0,0.301
		c0.101,0.066,0.784,1.033,2.051,2.899c0.899,1.3,2.116,1.968,3.649,2c0.033,0.567-0.583,0.917-1.85,1.05
		c-1.134,0.066-1.566,0.352-1.3,0.852c-0.301-0.233-1.717-0.534-4.25-0.9c-2.067-0.3-3.184-0.966-3.351-2
		c-0.233-1.199,0.4-2.183,1.9-2.949C124.934,192.467,125.983,192.05,126.35,191.85z M89.15,214.05c0.534,0.3,0.6,0.935,0.2,1.9
		c-0.367,0.933-0.817,1.483-1.35,1.649C88.233,216.633,88.617,215.45,89.15,214.05z M96.35,200.1c0.066-0.898,0.667-1.565,1.8-2
		c1.2-0.5,1.883-1.05,2.05-1.648l2.4,0.148c-0.067,1.102-0.85,1.867-2.35,2.301c-1.6,0.468-2.5,1.101-2.7,1.899
		c-0.167,0-0.333-0.134-0.5-0.399C96.883,200.133,96.65,200.033,96.35,200.1z M85.35,189.8c0.066,0.5,0.183,1.45,0.35,2.851
		c-0.034,1.199-0.467,1.816-1.3,1.851c-0.333-0.733-0.25-1.584,0.25-2.55C85.15,190.916,85.383,190.2,85.35,189.8z M66.7,181.8
		c0.566-0.3,0.767-0.649,0.6-1.05c0.967,0.166,0.733,0.768-0.7,1.8C66.233,182.283,66.267,182.033,66.7,181.8z M70.1,151.8
		c-0.467,0.034-0.817,0.083-1.05,0.15c-0.667,0.167-1.033,0.267-1.1,0.3c-0.434-0.867-1.3-1.066-2.6-0.6
		c-1.133,0.434-1.983,1.033-2.55,1.8c-0.1,0.933,0.5,1.532,1.8,1.8c1.633,0.334,2.566,0.633,2.8,0.9c-0.667,0.231-1,0.916-1,2.05
		c0.167,0.032,0.367,0,0.6-0.101c0.167-0.066,0.267-0.017,0.3,0.149c-0.133,1.2,0.35,1.916,1.45,2.149c1.1,0.232,1.883-0.101,2.35-1
		c-0.2-0.633-0.35-1.834-0.45-3.601S70.367,152.7,70.1,151.8z M130.45,171.25c-1.033,1.033-1.733,1.783-2.101,2.25
		c0.7-0.732,1.834-0.85,3.4-0.35c1.934,0.6,3.233,0.832,3.9,0.699c0.166-1.199-0.117-2.199-0.851-3c-0.967-0.834-1.666-1.5-2.1-2
		C132.3,169.35,131.55,170.15,130.45,171.25z M127.2,174.5c-0.3,0.232-0.517,0.533-0.65,0.9c-0.133,0.467,0.05,0.766,0.55,0.898
		c-0.1-0.267-0.05-0.667,0.15-1.199C127.417,174.732,127.4,174.533,127.2,174.5z M121.05,172c0.634-0.066,1,0.133,1.101,0.6
		c0.1,0.566,0.5,0.918,1.199,1.051c0.601-0.366,0.884-1.282,0.851-2.75c0-1.434,0.533-2.366,1.6-2.801c0.4,0.769,0.7,1.65,0.9,2.65
		c0.233,1.467,0.416,2.416,0.55,2.85c-0.467,0.033-0.85,0.135-1.15,0.301c-0.366,0.232-0.399,0.5-0.1,0.801
		c0.934-0.602,2-1.684,3.2-3.25c1.366-1.833,2.35-3.018,2.95-3.551c-2.334-1.565-4.601-1.899-6.801-1
		C123.217,167.732,121.783,169.434,121.05,172z M210.05,211.8c-0.833-0.133-1.5-0.767-2-1.899c-0.565-1.232-1.1-1.982-1.6-2.25
		c0.967-0.268,1.815,0.101,2.55,1.101C209.6,209.583,209.95,210.6,210.05,211.8z M170.7,207.7c-0.8-0.468-1.05-0.833-0.75-1.101
		C170.217,206.367,170.467,206.732,170.7,207.7z M44.2,198.5c0.133-0.367,0.283-0.633,0.45-0.8c0.1-0.101,0.483-0.4,1.15-0.9
		c-0.133,0.5-0.366,0.917-0.7,1.25C44.8,198.383,44.5,198.533,44.2,198.5z M62.65,182.85c-0.3,0.168-0.667,0.566-1.1,1.2
		c-0.366,0.567-0.75,0.917-1.15,1.05c-0.4-0.6-0.283-1.133,0.35-1.6C61.283,183.066,61.917,182.85,62.65,182.85z M62.6,183.75
		c0.133-0.467,0.2-0.717,0.2-0.75s-0.033-0.283-0.1-0.75c0.366,0,0.767,0,1.2,0c0.3,0,0.5-0.05,0.6-0.15
		c0.167,0.168,0.217,0.352,0.15,0.551c-0.033,0.166-0.117,0.482-0.25,0.949c-0.3-0.1-0.6-0.065-0.9,0.102
		C63.2,183.834,62.9,183.85,62.6,183.75z M54.15,166.4c0.867,0.434,1.85,0.6,2.95,0.5c-0.567,0.898-1.45,1.615-2.65,2.148
		c-1.267,0.567-2.45,0.717-3.55,0.45c0.233-0.399,0.817-0.883,1.75-1.45C53.483,167.584,53.983,167.033,54.15,166.4z M53.95,164.55
		c0,0.167-0.017,0.435-0.05,0.8c-0.033,0.269,0.05,0.418,0.25,0.45c-1.3,0.534-2.233,0.8-2.8,0.8c-0.9,0.033-1.75-0.35-2.55-1.148
		c0.333-0.9,1.083-1.333,2.25-1.301C51.717,164.15,52.684,164.283,53.95,164.55z M57.95,162.95c0.466-0.233,0.866-0.185,1.2,0.149
		c-0.033,0.166-0.2,0.315-0.5,0.449c-0.333,0.135-0.466,0.067-0.4-0.199c-0.133,0-0.233,0.101-0.3,0.301
		c-0.034,0.133-0.067,0.332-0.1,0.6c-0.233-0.232-0.517-0.367-0.85-0.4C57.2,163.45,57.517,163.15,57.95,162.95z M34.7,178.6
		c-0.5,0.435-1.05,0.685-1.65,0.75c-0.667,0.066-1.216-0.148-1.65-0.648c0.167-0.635,0.667-0.9,1.5-0.801
		C33.566,178,34.167,178.232,34.7,178.6z M35.8,176.05c0.267-0.2,0.567-0.3,0.9-0.3c-0.267,0.268-0.4,0.666-0.4,1.2
		c-0.267,0.032-0.483-0.017-0.65-0.15c-0.267-0.167-0.433-0.25-0.5-0.25C35.417,176.316,35.633,176.15,35.8,176.05z M32,178.75
		c0.2,0.2,0.4,0.268,0.6,0.2c0.2-0.067,0.383-0.017,0.55,0.149c0.034-0.134,0.133-0.218,0.3-0.25c0.2-0.101,0.316-0.199,0.35-0.301
		c-0.2-0.167-0.4-0.216-0.6-0.148c-0.2,0.065-0.4,0-0.6-0.2c0,0.134-0.083,0.233-0.25,0.3C32.15,178.566,32.033,178.65,32,178.75z
		 M61.65,134.6c-0.833-0.167-1.617-0.583-2.35-1.25c1.634,0.066,3.117,0.367,4.45,0.9C63.217,134.65,62.517,134.767,61.65,134.6z
		 M51.8,128.35c1.067,0.066,2.25,0.75,3.55,2.05c1.667,1.667,2.783,2.65,3.35,2.95c-2.167-1.067-3.483-1.733-3.95-2
		C53.35,130.483,52.367,129.483,51.8,128.35z M60.9,118.45c-0.5,0.4-0.833,0.883-1,1.45c-0.7-0.167-0.933-0.683-0.7-1.55
		c0.233-1.1,0.25-1.8,0.05-2.1c0.867,0.267,1.45,0.467,1.75,0.6c0.566,0.267,0.95,0.633,1.15,1.1
		C61.783,117.917,61.367,118.083,60.9,118.45z M213.95,128.05c-0.468,0.733-0.718,0.784-0.75,0.15c-0.033-0.134,0-0.2,0.1-0.2
		c0.101-0.033,0.167-0.066,0.2-0.1C214.3,127.2,214.45,127.25,213.95,128.05z M185.95,118.95c1.399-2.134,3.083-2.35,5.05-0.65
		c0.4,1.833,0.316,3.25-0.25,4.25c-0.667,1.233-2,1.634-4,1.2C184.85,122.684,184.583,121.083,185.95,118.95z M195,116.55
		c1.967-1.366,3.95-1.066,5.95,0.9c0.2,2.5-2.218,4.35-7.25,5.55C192.566,120.066,193,117.917,195,116.55z M173.05,110.35
		c0.2,2.233-0.733,3.333-2.8,3.3c-1.6-0.033-2.55-0.95-2.85-2.75c-0.334-1.833,0.449-2.933,2.35-3.3
		C171.783,107.233,172.884,108.15,173.05,110.35z M150.4,87.4c-0.5-1.966,0.066-3.233,1.7-3.8c2.232-0.367,3.434,0.65,3.601,3.05
		c0.133,2.4-0.7,3.617-2.5,3.65C151.8,90.3,150.866,89.333,150.4,87.4z M131.1,120.1c0.867,0.267,0.934,0.5,0.2,0.7
		C130.566,121,130.5,120.767,131.1,120.1z M126.05,130.95c0.233,0.5,0.351,0.883,0.351,1.15c0.6,0.4,1.517,0.95,2.75,1.65
		c0.899,0.767,1.283,1.8,1.149,3.1c0.5,0.733,1.533,1.517,3.101,2.35c1.633,0.9,2.699,1.65,3.199,2.25
		c1.467-0.067,2.367-0.117,2.7-0.15c0.8-0.1,1.617-0.333,2.45-0.7c0.167-0.434,0.233-0.85,0.2-1.25c-0.033-0.6-0.033-1.083,0-1.45
		c0.133-0.2,0.517-0.35,1.149-0.45c0.567-0.067,0.9-0.267,1-0.6c-0.933-0.333-2.833-1.45-5.699-3.35
		c-2.2-1.467-3.884-2.083-5.051-1.85c-0.333,0.733-1,0.85-2,0.35c-1-0.566-1.5-1.367-1.5-2.4c-0.566,0.1-1.283,0.05-2.149-0.15
		c-0.667-0.167-1.25-0.1-1.75,0.2C125.816,130.117,125.85,130.55,126.05,130.95z M143.35,108.5c-0.333,0.467-0.583,0.767-0.75,0.9
		c-0.033-0.333,0.4-0.983,1.301-1.95c0.899-0.934,1.283-1.934,1.149-3c0.233-0.134,0.65-0.3,1.25-0.5
		c0.533-0.167,0.934-0.333,1.2-0.5c0.134,0.033,0.283,0.15,0.45,0.35c0.133,0.167,0.267,0.267,0.399,0.3
		c0.134,0.767-0.199,1.433-1,2c-0.966,0.533-1.6,0.9-1.899,1.1c-0.101,0.066-0.65,0.583-1.65,1.55c-0.333,0.267-0.2-0.083,0.4-1.05
		C143.934,107.833,143.65,108.1,143.35,108.5z M104.35,106.3c0.233,0.5,0.283,1.083,0.15,1.75c-0.066,0.4-0.2,1.017-0.4,1.85
		c-1-1.066-1.217-2.283-0.65-3.65L104.35,106.3z M67.85,126.05c0.2-0.333,0.133-0.517-0.2-0.55c0.3-0.066,0.684,0.133,1.15,0.6
		c0.567,0.566,0.717,1.2,0.45,1.9c-1.267-0.833-2.566-1.083-3.9-0.75c-1.167,0.333-2.2,1.033-3.1,2.1
		c-0.633-0.133-1.1-0.383-1.4-0.75c-0.3-0.4-0.284-0.883,0.05-1.45c0.6,0.5,1.317,0.733,2.15,0.7c0.867-0.067,1.467-0.4,1.8-1
		c-0.034-0.4-0.383-0.8-1.05-1.2c-0.633-0.367-0.933-0.816-0.9-1.35c0.767,0.1,1.55,0.4,2.35,0.9c1.133,0.7,1.816,1.1,2.05,1.2
		C67.5,126.467,67.684,126.35,67.85,126.05z M64.2,123.2c0-0.267,0.2-0.367,0.6-0.3c0.567,0.067,0.867,0.1,0.9,0.1
		c0.033,0.167-0.067,0.25-0.3,0.25c0.167,0.033,0.383,0.184,0.65,0.45c0.134,0.167,0.384,0.45,0.75,0.85
		c0.134,0.167-0.083,0.1-0.65-0.2c-0.767-0.434-1.333-0.617-1.7-0.55C64.517,123.467,64.434,123.267,64.2,123.2z M86.75,104.85
		c1.3,0.6,1.967,1.55,2,2.85c0.066,1.4,0.383,2.45,0.95,3.15c-0.134-0.133-0.3-0.233-0.5-0.3c-0.3-0.066-0.267,0.083,0.1,0.45
		c-0.633-0.434-1.216-1.184-1.75-2.25C86.917,107.45,86.65,106.15,86.75,104.85z M85.3,90.1c0.233,1.1,0.5,1.683,0.8,1.75
		c-0.2,0.3-0.4,0.216-0.6-0.25c-0.267-0.534-0.55-0.767-0.85-0.7c0.2-0.466,0.284-0.8,0.25-1c-0.066-0.233-0.316-0.417-0.75-0.55
		C84.75,88.917,85.133,89.167,85.3,90.1z M253.65,211.4c-0.102-0.033-0.2,0.148-0.301,0.55c-1.899-0.101-3.983-0.817-6.25-2.15
		c-2.066-1.2-3.851-2.633-5.351-4.3c1.065,0.133,3.083,0.867,6.05,2.2c2.602,1.167,4.4,1.683,5.4,1.55
		c0.232,0.033,0.232,0.133,0,0.3c-0.167,0.367-0.084,0.667,0.25,0.9C253.75,210.684,253.816,211,253.65,211.4z M256.5,209.75
		c-0.232,0.367-0.283,0.533-0.15,0.5c0.4-0.167,0.733-0.217,1-0.15c0,0.135-0.199,0.233-0.6,0.301c1.066,0.199,2.667,0.5,4.8,0.899
		c1.767,0.267,3.15,0.15,4.15-0.35c0.6,1.167,1.565,1.833,2.899,2c-0.101,0.333-0.018,0.55,0.25,0.649
		c-1.867,1.066-4.316,0.899-7.351-0.5c-3.667-1.732-5.968-2.584-6.899-2.551c-0.033-0.467,0.149-0.75,0.551-0.85
		C255.25,209.7,255.7,209.717,256.5,209.75z M231.4,183.45c-0.034-0.567,0.283-0.534,0.949,0.1
		C231.783,184.018,231.467,183.982,231.4,183.45z M244.1,193.85c-1.1-0.199-1.699-0.717-1.8-1.55c0.834-0.399,1.733-0.517,2.7-0.35
		c1.1,0.167,1.684,0.683,1.75,1.55C245.917,193.867,245.033,193.982,244.1,193.85z M237.2,191.3c-0.533-0.2-0.9-0.3-1.101-0.3
		c0.166-0.768,0.066-1.35-0.301-1.75c-0.199-0.232-0.648-0.482-1.35-0.75c0.666-0.1,1.416,0.117,2.25,0.65
		c0.898,0.565,1.398,1.231,1.5,2C237.9,191.383,237.566,191.434,237.2,191.3z M225.35,181.75c0.135-0.066,0.117-0.334-0.05-0.8
		c0.4,0.466,0.718,0.767,0.95,0.899c0.4,0.268,0.866,0.416,1.4,0.449c0.533,1.2,2.082,1.95,4.648,2.25
		c2.301,0.301,3.551,1.15,3.75,2.551c-0.633-0.066-1.3-0.334-2-0.801c-0.8-0.533-1.398-0.85-1.8-0.949
		c-0.3,0.467-0.116,0.934,0.55,1.399c0.834,0.601,1.283,1.065,1.352,1.399c-0.467-0.301-2-1.351-4.602-3.149
		c-1.833-1.3-3.467-2.267-4.898-2.899L225.35,181.75z M229.05,147.25c-0.032,0.566-0.3,1.033-0.8,1.4
		c-0.667,0.434-1.05,0.733-1.15,0.9c0.135,1.134,0.65,2.468,1.551,4c0.699-0.1,1.25-0.083,1.649,0.05
		c0.2,0.066,0.634,0.316,1.3,0.75c0.268,0.967,0.102,1.783-0.5,2.45c-0.865,0.667-1.5,1.2-1.898,1.601
		c0.033,0.968,0.283,1.916,0.75,2.851c0.267,0.565,0.699,1.367,1.3,2.399c-0.101,0.101-0.533,0.316-1.3,0.649
		c-0.834,0.366-1.434,0.685-1.801,0.95c-0.866,3.633,0.666,6.334,4.601,8.1c1-1.065,2.435-1.717,4.3-1.949
		c2.102-0.301,3.566,0.232,4.4,1.601c-0.5,0.867-1.45,1.55-2.852,2.05c-1.666,0.467-2.883,0.852-3.648,1.15
		c-0.467-0.567-1.584-1.083-3.352-1.551c-1.767-0.467-2.883-1-3.35-1.601c-0.8,0.767-1.083,1.95-0.85,3.55
		c-0.034,0.168-0.435,0.467-1.2,0.9c-0.667,0.4-1.017,0.95-1.05,1.65c0.433,0.934,1.332,1.633,2.699,2.1
		c1.566,0.5,2.584,1.033,3.051,1.6c-0.233,0.2-0.7,0.168-1.4-0.1c-0.866-0.334-1.482-0.482-1.85-0.45c-0.2-0.8-0.834-1.282-1.9-1.45
		c-1.5-0.3-2.333-0.5-2.5-0.6c-0.066,0.268,0.05,0.45,0.35,0.55c-1.199-0.2-2.35,0.616-3.449,2.45
		c-0.834,1.4-1.467,2.982-1.899,4.75c0.065,0.1,0.601,0.732,1.601,1.9c0.633,0.731,1.017,1.467,1.149,2.199
		c1.533,0.101,2.384,0.851,2.55,2.25c-0.333,0.233-0.783,0.233-1.35,0c-0.801-0.334-1.352-0.5-1.65-0.5
		c-0.898,0.301-1.684,0.483-2.35,0.551c-0.135,0.033-0.768,0.065-1.9,0.1c-2.467-2.9-5.8-4.834-10-5.8
		c-4.566-1.034-8.449-0.384-11.648,1.95c1.332,0.332,2.699,0.615,4.1,0.85c0.801,0.133,2,0.316,3.6,0.55
		c1.268,1.267,2.15,2.567,2.65,3.9c0.6,1.7,0.066,2.733-1.6,3.1c-0.4,0.101-0.9-0.05-1.5-0.45c-0.534-0.332-1.117-0.35-1.75-0.05
		c0.332-0.565,0.1-1.149-0.7-1.75c-0.968-0.7-1.468-1.267-1.5-1.7c-0.134,0-0.233,0.102-0.3,0.301c0,0.101-0.018,0.283-0.051,0.551
		c-0.166,0-0.449-0.284-0.851-0.852c-0.333-0.434-0.634-0.481-0.899-0.148c-0.268,0.1-0.367-0.102-0.301-0.602
		c0.033-0.533,0.167-0.731,0.4-0.6c-1.233-1.133-2.352-1.35-3.352-0.65c-0.565,0.367-1.416,1.45-2.55,3.25
		c0.066,0.168,0.584,1.084,1.55,2.75c0.801,1.435,1.352,2.7,1.65,3.801c0.167,0,0.366-0.051,0.6-0.149
		c0.2-0.101,0.4-0.133,0.602-0.101c-0.934,0.634-0.2,1.584,2.199,2.851c-0.434,0.3-0.517,0.851-0.25,1.649
		c0.268,0.801,0.601,0.968,1,0.5c0.268,0.533,0.983,1.5,2.149,2.899c0.7,1.3,0.267,2.367-1.3,3.2c-1.634-0.533-2.75-2.2-3.35-5
		c-0.567-2.834-1.635-4.518-3.2-5.05c0.434-0.8-0.25-2.75-2.05-5.851c0.033,0.301-0.102,0.416-0.4,0.351
		c-0.333-0.067-0.518,0.2-0.55,0.8c-1.233-0.033-2.384,0.018-3.45,0.15c-1.333,0.231-2.5,0.434-3.5,0.6
		c-0.2,0.867,0.134,1.666,1,2.4c0.967,0.8,1.45,1.25,1.45,1.35c0.7,0.5,0.233,1.367-1.4,2.6c-0.3,0.301-0.5,0.135-0.6-0.5
		c-0.134-0.8-0.5-1.065-1.101-0.8c0.301-0.2,0.449-0.366,0.449-0.5c-0.033-0.267-0.05-0.6-0.05-1c-0.366-0.1-0.583,0.083-0.649,0.55
		c-0.434-0.133-0.566-0.3-0.399-0.5c0.1-0.133,0.35-0.25,0.75-0.35c-0.5-2.3-1.834-3.383-4-3.25c-1.435,0.066-2.566,1.018-3.4,2.85
		c-0.899,1.967-1.899,3.066-3,3.301c-1.3,0.334-3.05-0.084-5.25-1.25c-2.267-1.199-4.065-1.717-5.399-1.551
		c-1.5,1.102-2.283,2.834-2.351,5.2c-0.065,1.3-0.116,3.218-0.149,5.75c-0.166,0.134-0.316,0.185-0.449,0.15
		c-0.167-0.067-0.316-0.134-0.45-0.2c0.267,0.533,0.167,1.15-0.3,1.85c-0.367,0.602-0.834,1.051-1.4,1.352
		c-0.434-1.833-0.232-4.233,0.602-7.2c1.1-3.267,1.815-5.617,2.148-7.05c-0.434-2.268-1.75-3.7-3.949-4.301
		c-2.867-0.301-5.051-0.601-6.551-0.899c-0.733,0.633-1.633,1.867-2.7,3.7c-1.133,1.365-2.633,1.683-4.5,0.949
		c-0.199-0.032-0.316,0.149-0.35,0.551c-0.033,0.365-0.233,0.466-0.6,0.3c0.1-0.733-0.217-1.315-0.95-1.75
		c-0.934-0.5-1.467-0.883-1.601-1.149c-0.5-2.334,0.034-4.185,1.601-5.551c1.533-1.365,3.25-1.667,5.149-0.898
		c1.301-1.4,1.2-2.7-0.3-3.9c-2.2-1.268-3.75-2.184-4.649-2.75c-0.301-1.367-0.334-2.566-0.101-3.6c0.2-0.867,0.684-1.935,1.45-3.2
		c-0.033-0.8-0.217-1.583-0.55-2.351c-0.167-0.367-0.5-1.017-1-1.949c-1.101-0.533-2.184-0.5-3.25,0.1
		c-0.4,0.232-1.25,0.95-2.55,2.15c-1.967,1.8-3.767,1.5-5.4-0.9c-0.167,1.3,1.167,3.066,4,5.3c2.8,2.2,4.017,4.3,3.65,6.3
		c-1.067-0.533-2.134-1.648-3.2-3.35c-1.2-1.867-2.184-3.084-2.95-3.65c-1.866,0.269-3.2,0.4-4,0.4c-1.366,0-2.2-0.584-2.5-1.75
		c-0.134-0.5-0.033-1.666,0.3-3.5c0.267-1.434,0-2.467-0.8-3.1c0.2,0.166-0.05,0.184-0.75,0.05c-0.9-0.2-1.45-0.284-1.65-0.25
		c-0.6,0.134-1.85,0.966-3.75,2.5c-0.267,0.2-0.483,0.384-0.649,0.55c-0.101,0.1-0.3,0.184-0.601,0.25
		c-0.833,0.232-1.666,0.717-2.5,1.45c-0.767,0.634-1.3,1.267-1.6,1.899c-0.033,0.233,0.15,0.351,0.55,0.351c0.566,0,0.867,0,0.9,0
		c-1.6,3.466-2.3,8.032-2.1,13.7c-0.667-0.566-1.284-1.65-1.85-3.25c-0.5-1.668-0.85-2.75-1.05-3.25
		c-0.6,0.065-1.017-0.217-1.25-0.852c-0.267-0.699-0.6-1.066-1-1.1c0.167-0.434,0.033-1.067-0.4-1.9c-0.3-0.6-0.3-0.884,0-0.85
		c0.233,0.8,0.733,1.648,1.5,2.55c1,1.166,1.583,1.899,1.75,2.2c0.6,0.134,1.117,0.066,1.55-0.2c0.133-0.935-0.117-1.7-0.75-2.3
		c-0.8-0.602-1.367-1.083-1.7-1.45c0.034-0.633,0.284-1.267,0.75-1.899c0.534-0.732,0.85-1.267,0.95-1.601
		c-0.5-0.666-1.45-0.967-2.85-0.899c-1.367,0.065-2.316,0.434-2.85,1.101c-0.966-0.601-3.066-0.851-6.3-0.75
		c-3.1,0.065-4.883-0.134-5.35-0.601c-0.066,0.967,0,1.684,0.2,2.149c0.233,0.533,0.683,1.05,1.35,1.55c-0.8,1.268-1,3.268-0.6,6
		c0.366,2.7,0.167,4.65-0.6,5.852c0.033-0.066-0.017-0.084-0.15-0.051c-0.267,0.065-0.467,0-0.6-0.199c0.3-1,0.283-2.25-0.05-3.75
		c-0.433-1.967-0.65-3.135-0.65-3.5c0-0.168,0.067-0.467,0.2-0.9c0.167-0.434,0.233-0.732,0.2-0.9c-0.133-0.731-0.6-1.565-1.4-2.5
		c-1-1.266-1.617-2.1-1.85-2.5c-0.066-0.1-0.05-0.3,0.05-0.6c0.066-0.334,0.066-0.533,0-0.6c-0.833-1.334-1.684-2.102-2.55-2.301
		c-0.2-0.033-0.233-0.185-0.1-0.449c0.167-0.334,0.133-0.584-0.1-0.75c-0.9,0.231-1.534,0.3-1.9,0.199
		c-0.534-0.301-1.2-0.551-2-0.75c0.366-1.834,0.05-2.816-0.95-2.949c-0.6-0.066-1.633,0.231-3.1,0.898
		c-0.033-5-1.783-8.833-5.25-11.5c-1.233,0.366-2.667,0.483-4.3,0.352c-1.8-0.2-3.184-0.301-4.15-0.301
		c1.767-1.066,2.616-2.449,2.55-4.149c-0.066-1.733-1.05-2.866-2.95-3.4c-0.033-0.532,0.1-1.017,0.4-1.45
		c-0.9-0.533-1.75-0.717-2.55-0.55c-0.9,0.2-1.633,0.185-2.2-0.05c0.333-0.7,1.233-1.133,2.7-1.3c1.7-0.2,2.75-0.45,3.15-0.75
		c3.1,0.733,5.15-0.083,6.15-2.45c0.667-3.3,1.233-5.717,1.7-7.25c-0.033-0.4-0.267-0.867-0.7-1.4c-0.3-0.4-0.3-0.95,0-1.65
		c-0.667,0.066-1.5-0.25-2.5-0.95c-0.967-0.667-1.483-1.233-1.55-1.7c0.233-0.167,0.517-0.017,0.85,0.45
		c0.367,0.6,0.75,0.9,1.15,0.9c0.1-0.033,0.2-0.15,0.3-0.35c0.1-0.167,0.216-0.25,0.35-0.25c-0.066-0.633-0.45-1.183-1.15-1.65
		c-0.966-0.6-1.517-1-1.65-1.2c0.7-0.434,1.883-0.134,3.55,0.9c1.733,1.066,3.217,1.333,4.45,0.8c0.066-0.2,0.15-0.883,0.25-2.05
		c0.1-0.9,0.3-1.6,0.6-2.1c1.7-0.434,3.533-1.467,5.5-3.1c2.466-2.033,4.1-3.267,4.9-3.7c0.4-2.333,0.217-4.15-0.55-5.45
		c-0.5,0.3-0.85,0.533-1.05,0.7c-0.4,0.333-0.6,0.767-0.6,1.3c-0.7-0.7-1.25-1.767-1.65-3.2c-0.367-1.733-0.667-3.033-0.9-3.9
		c0.566,0.2,0.934,0.633,1.1,1.3c0.133,0.433,0.2,1.133,0.2,2.1c1.2,0.067,2.267,0.634,3.2,1.7c1.2,1.3,2.05,2.066,2.55,2.3
		c0.4-0.2,0.85-0.5,1.35-0.9c0.267-0.2,0.667-0.55,1.2-1.05c-0.167-0.367-0.2-0.917-0.1-1.65c0.066-0.867,0.066-1.517,0-1.95
		c-0.333-0.867-0.583-1.55-0.75-2.05c-0.3-0.9-0.066-1.434,0.7-1.6c0,0.2-0.067,0.4-0.2,0.6c-0.133,0.233-0.2,0.433-0.2,0.6
		c0.167,0,0.284-0.2,0.35-0.6c1,1.667,1.534,4.216,1.6,7.65c1.833,1.033,3.934,1.233,6.3,0.6c1.967-0.534,3.733-1.483,5.3-2.85
		c-0.1-1.767-0.15-2.883-0.15-3.35c0.033-1.066,0.216-2.05,0.55-2.95c-0.066,4.367,0.066,7.184,0.4,8.45
		c0.767,2.733,2.667,3.967,5.7,3.7c0.4-2.167,1.383-4.75,2.95-7.75c1.867-3.4,3.233-5.983,4.101-7.75
		c-0.5,0.133-0.567-0.167-0.2-0.9c0.366-0.733,0.783-1.2,1.25-1.4c-0.601-0.6-0.783-1.4-0.55-2.4c0.233-1.1,0.899-1.566,2-1.4
		c0.1,0.5,0.116,0.917,0.05,1.25c-0.134,0.667-0.217,1.233-0.25,1.7c-1.367,1.5-2.634,3.817-3.8,6.95
		c-1.634,4.333-2.7,6.983-3.2,7.95c0.166,3.167,1.649,5.066,4.45,5.7c0.333,0.4,0.75,1.167,1.25,2.3c0.566,0.9,1.283,1.2,2.149,0.9
		c-0.8-1.534-0.883-3.05-0.25-4.55c0.667-1.533,1.8-2.35,3.4-2.45c0.366,0.267,0.684,0.683,0.95,1.25
		c0.166,0.333,0.383,0.85,0.649,1.55c0.767,0.333,1.483,0.333,2.15,0l1.85-0.9c1.134,0.667,2.384,2.05,3.75,4.15
		c1.367,2.1,2.634,3.483,3.8,4.15c0.367-0.3,0.817-1.033,1.351-2.2c0.399-0.934,0.934-1.434,1.6-1.5c1.3-0.167,2.15,0.45,2.55,1.85
		c0.2,0.767,0.534,2.017,1,3.75c2.934,0.733,4.851,1.133,5.75,1.2c1.9,0.133,3.384-0.333,4.45-1.4c-0.233-0.4-0.5-1.184-0.8-2.35
		c-0.3-1.066-0.634-1.833-1-2.3c-0.167-0.2-0.816-0.6-1.95-1.2c-0.967-0.5-1.55-1.083-1.75-1.75c-0.2-0.8-0.116-1.566,0.25-2.3
		c0.4-0.767,1-1.15,1.8-1.15c1.5,0,2.351,1.566,2.55,4.7c0.199,3.5,0.899,5.534,2.101,6.1c0.399-0.367,0.45-1.367,0.149-3
		c-0.267-1.533,0.033-2.6,0.899-3.2c0.435,0,1.033-0.066,1.8-0.2c0.733-0.133,1.334-0.2,1.801-0.2c0,0.333,0.149,0.633,0.449,0.9
		c0.367,0.3,0.584,0.534,0.65,0.7c1.533-0.6,2.184-1.65,1.95-3.15c-0.167-0.833-0.783-2.233-1.851-4.2
		c-0.934-1.767-1.351-2.95-1.25-3.55c0.133-1,1.283-1.434,3.449-1.3c0.7,0.934,0.885,2.45,0.551,4.55
		c-0.399,2.233-0.384,3.75,0.051,4.55c0.466,0.833,1.35,1.55,2.648,2.15c1.801,0.9,2.934,1.517,3.4,1.85
		c0.365-0.267,0.416-1.433,0.148-3.5c-0.267-1.833,0.233-2.833,1.5-3c0.9,0.4,1.317,1.4,1.25,3c-0.033,1.233-0.3,2.434-0.8,3.6
		c0.367,0.867,0.7,1.467,1,1.8c0.2,0.233,0.601,0.684,1.2,1.35c1.434-0.333,2.699-1.633,3.8-3.9c0.968-2,2.25-2.934,3.851-2.8
		c0.768,0.066,2.449,0.716,5.051,1.95c2.1,1,3.865,1.284,5.3,0.85c0.233-0.033,0.3-0.15,0.2-0.35
		c-0.135-0.233-0.084-0.417,0.148-0.55c0.2,0.533,0.768,1.083,1.7,1.65s1.5,1.1,1.7,1.6c0.434-0.233,0.884-0.733,1.35-1.5
		c0.5-0.867,0.918-1.417,1.25-1.65c1.5-0.067,2.567,0.333,3.2,1.2c0.565,0.733,0.7,1.6,0.399,2.6c-0.299,1-0.883,1.717-1.75,2.15
		c-0.967,0.467-2,0.367-3.1-0.3c-0.4,0.667-0.4,1.383,0,2.15c0.366,0.7,0.883,1.217,1.551,1.55c-0.9,0.534-2.051,0.3-3.451-0.7
		c-1.6-1.133-2.899-1.667-3.899-1.6c-0.399,0.367-1.351,0.733-2.851,1.1c-1.334,0.333-2.149,0.85-2.449,1.55
		c0.066,0.133,0.417,0.25,1.05,0.35c0.767,0.167,1.3,0.316,1.601,0.45c0.467,2.7,2.283,3.783,5.449,3.25
		c2.867-0.467,4.95-1.6,6.25-3.4c1.867-0.1,3.7-1.133,5.5-3.1c1.935-2.134,3.567-3.367,4.9-3.7c1.768-0.033,2.8,0.5,3.1,1.6
		c0.135,0.533,0.067,1.966-0.199,4.3c0.733,0.667,2.051,1.967,3.949,3.9c1.801,1.4,3.5,1.5,5.102,0.3c0.533-0.034,1,0.033,1.398,0.2
		c0.102,0.034,0.418,0.217,0.95,0.55c-0.467,0.933-1.333,1.966-2.601,3.1c0.033,0.433,0.201,0.816,0.5,1.15
		c0.166,0.2,0.451,0.45,0.851,0.75c1.7-0.3,2.733-0.45,3.101-0.45C227.15,146.4,228.116,146.684,229.05,147.25z"/>
</g>
</svg>
