<?xml version="1.0" encoding="utf-8"?>
<!-- Generator: Adobe Illustrator 16.0.0, SVG Export Plug-In . SVG Version: 6.00 Build 0)  -->
<!DOCTYPE svg PUBLIC "-//W3C//DTD SVG 1.1//EN" "http://www.w3.org/Graphics/SVG/1.1/DTD/svg11.dtd">
<svg version="1.1" id="Layer_1" xmlns="http://www.w3.org/2000/svg" xmlns:xlink="http://www.w3.org/1999/xlink" x="0px" y="0px"
	 width="300px" height="300px" viewBox="0 0 300 300" enable-background="new 0 0 300 300" xml:space="preserve">
<g>
	<path fill="#FEBE10" d="M197.65,260v2.55c-0.135,0.033-0.269,0.033-0.4,0c-0.967-0.267-1.667-0.399-2.1-0.399l-3.5,0.801
		c-1.467,0.333-2.685,0.148-3.65-0.551c-0.167-0.467-0.283-0.834-0.35-1.101c0.398-0.866,1.416-1.25,3.05-1.149
		c0.899,0.066,2.183,0.218,3.85,0.449c0.567,0,1.435-0.199,2.601-0.6C197.316,259.967,197.482,259.967,197.65,260z M196.85,269.25
		c-0.699,1.033-1.416,1.268-2.148,0.7c-0.533-0.601-0.65-1.25-0.352-1.95c-0.731-0.167-1.199-0.3-1.398-0.4
		c0-0.332,0.167-0.683,0.5-1.05c0.398,0.134,0.648,0.233,0.75,0.3c0.199,0.135,0.283,0.352,0.25,0.65c0.199,0,0.533-0.1,1-0.3
		c0.398-0.2,0.732-0.267,1-0.2C197.45,267.467,197.583,268.217,196.85,269.25z M109.3,267.35c0.667,0.067,1.05,0.385,1.15,0.95
		c0.1,0.567-0.184,0.884-0.851,0.95C108.733,268.75,108.633,268.117,109.3,267.35z M120.4,248.95
		c-0.733,0.167-1.184-0.117-1.351-0.851c-0.2-0.699,0.067-1.101,0.8-1.199C120.75,247.434,120.934,248.117,120.4,248.95z
		 M111.45,211.1c0,1.334-0.7,1.75-2.101,1.25c-0.699-0.934-0.633-1.815,0.2-2.648C110.816,209.232,111.45,209.7,111.45,211.1z
		 M130.65,216.25c1.267-1.334,1.883-2.482,1.85-3.45c-0.4,0.601-1.05,1.101-1.95,1.5c-0.933,0.4-1.583,0.833-1.95,1.3
		c0.301,0.2,0.65,0.352,1.051,0.45C129.883,216.117,130.217,216.184,130.65,216.25z M84.05,238.8c-0.866-0.6-0.866-1.315,0-2.149
		c0.567-0.066,1.083,0.066,1.55,0.399c0.467,0.333,0.65,0.783,0.551,1.351C85.617,239.268,84.917,239.4,84.05,238.8z M80.75,241.3
		c-0.5,0.601-1.133,0.867-1.9,0.8c-0.533-0.1-1.267-0.398-2.199-0.898c0.533-0.667,1.232-0.983,2.1-0.95S80.283,240.633,80.75,241.3
		z M80.05,246.65c-0.033-0.602,0.317-1.084,1.05-1.45c0.301,0.167,0.5,0.399,0.601,0.7c0.066,0.166,0.167,0.416,0.3,0.75
		C81.367,247.283,80.717,247.283,80.05,246.65z M75.85,222.5c0.634-0.5,1.367-0.834,2.2-1c0.134,0.633-0.133,1.3-0.8,2
		s-1.316,1.05-1.95,1.05C74.867,223.85,75.05,223.166,75.85,222.5z M66.05,228.95c0.134-1.634,1.384-2.417,3.75-2.351
		c2.333,0.101,3.983,0.883,4.95,2.351c-1.4,1-2.816,1.55-4.25,1.649C68.8,230.7,67.316,230.15,66.05,228.95z M85.55,213.65
		c0.467,0.3,1.45,0.565,2.95,0.8c1.2,0.167,2.066,0.565,2.6,1.2c-0.8,1.033-1.982,1.783-3.55,2.25
		c-1.767,0.533-3.167,0.283-4.2-0.75C82.083,215.85,82.816,214.684,85.55,213.65z M101.7,198.85c-0.067-0.3-0.117-0.533-0.15-0.699
		c0.8-0.268,1.983-1.018,3.55-2.25c-0.366,1-1.316,2.199-2.85,3.601C101.95,199.367,101.767,199.15,101.7,198.85z M100.5,201.45
		c-0.7,1.134-1.5,1.267-2.4,0.399c-0.1-0.5-0.017-0.935,0.25-1.301c0.2-0.267,0.567-0.615,1.101-1.05
		C100.816,199.666,101.167,200.316,100.5,201.45z M90.35,209.25c-0.232-0.133-0.316-0.283-0.25-0.45c0.033-0.3,0.268-0.634,0.7-1
		c0.467-0.366,0.851-0.532,1.15-0.5c0.3,0.4,0.233,0.9-0.2,1.5C91.283,209.434,90.816,209.584,90.35,209.25z M89.4,204.65
		c0.166,0.065,0.3,0.184,0.399,0.35c0.033,0.066,0.101,0.184,0.2,0.35c-0.2,0.269-0.417,0.283-0.65,0.051
		C89.083,205.166,89.1,204.916,89.4,204.65z M100.4,191.45c0.199-0.601,0.583-1.034,1.149-1.3c0.634-0.301,1.117-0.168,1.45,0.398
		C102.167,191.982,101.3,192.283,100.4,191.45z M98.5,189c0.1-0.7,0.467-1.217,1.1-1.55c0.634-0.366,1.233-0.284,1.801,0.25
		C100.8,189.2,99.833,189.633,98.5,189z M77.7,204.2l0.75,0.5c-0.2,0.433-0.45,0.532-0.75,0.3
		C77.367,204.768,77.367,204.5,77.7,204.2z M80.95,194.45l0.5-0.7c0.866,0.133,1,0.6,0.399,1.4c-0.199,0.033-0.35-0.033-0.449-0.2
		C81.3,194.717,81.15,194.55,80.95,194.45z M76.25,173.85c-0.233-0.365-0.4-0.648-0.5-0.85c-0.2-0.3-0.184-0.6,0.05-0.9
		c0.367,0.301,0.601,0.566,0.7,0.801C76.633,173.2,76.55,173.518,76.25,173.85z M74.6,183.3l-0.75-0.55
		c0.334-0.566,0.7-0.684,1.101-0.35c-0.067,0.1-0.117,0.25-0.15,0.449C74.767,183.018,74.7,183.166,74.6,183.3z M100.7,182.4
		c-0.3,0.133-0.667,0.016-1.101-0.352c-0.399-0.365-0.533-0.699-0.399-1c0.167-0.333,0.767-0.433,1.8-0.3
		C101.2,181.684,101.1,182.232,100.7,182.4z M96.6,173.15c0.7-1.967,1.834-2.435,3.4-1.4s1.967,2.217,1.2,3.55
		c-0.733,1.3-1.817,1.634-3.25,1C96.517,175.633,96.066,174.584,96.6,173.15z M135.65,209.15c0.566-1,1.05-1.668,1.449-2
		c0.533-0.467,1.167-0.584,1.9-0.352c0.3,0.567,0.7,1.135,1.2,1.7c0.3,0.334,0.75,0.815,1.35,1.45c-0.733,0.767-1.6,1.183-2.6,1.25
		c-0.833,0.033-1.8-0.184-2.9-0.65c-0.333,0.733-0.983,1.784-1.95,3.15c-0.967,1.333-1.6,2.365-1.899,3.1
		c-0.634,1.534-0.5,3.366,0.399,5.5c0.5,1.2,1.317,2.917,2.45,5.15c-1.833,2.865-3.149,4.982-3.95,6.35
		c-1.366,2.367-1.75,4.352-1.149,5.95c-0.8,0.667-1.3,1.133-1.5,1.399c-0.3,0.367-0.55,0.968-0.75,1.801
		c-0.5-0.333-0.95-0.852-1.351-1.551c-0.433-0.666-0.8-1.101-1.1-1.301c-0.4-0.033-0.816,0.185-1.25,0.65
		c-0.233,0.232-0.617,0.75-1.15,1.55l-2.35,0.601c-0.934,0.268-1.667,0.768-2.2,1.5c-2.433-0.899-4.417-0.351-5.95,1.649
		c0.101,0.167,0.717,0.767,1.851,1.8c0.933,0.834,1.316,1.584,1.149,2.25c-0.199,0.269-0.482,0.45-0.85,0.551
		c-0.5,0.134-0.783,0.218-0.85,0.25c-0.467-0.301-0.934-0.866-1.4-1.699c-0.434-0.768-1.017-1.333-1.75-1.7
		c-0.467,0.3-1.117,0.833-1.95,1.601c-0.899,0.732-1.55,1.25-1.95,1.551c-0.8-0.301-1.866-0.301-3.199,0
		c-1.467,0.3-2.518,0.383-3.15,0.25c-0.633-0.5-1.583-0.967-2.85-1.4c-1.2-0.4-2.033-0.833-2.5-1.3
		c-0.2-0.167-0.634-0.851-1.301-2.05c-0.5-0.9-1.149-1.45-1.949-1.65c0.333-1.667-0.033-3.117-1.101-4.35
		c0.467-0.7,0.717-1.45,0.75-2.25c0-0.4-0.066-1.117-0.2-2.15c0.934-1.9,2.067-3.45,3.4-4.65c0.9-0.8,2.283-1.75,4.15-2.85
		c-0.033-0.633-0.768-1.7-2.2-3.2c-1.267-1.3-1.667-2.433-1.2-3.399c1.1,0.199,2.35,1.468,3.75,3.801c1.133,1.833,2.467,2.3,4,1.398
		c0.1-1.832,1.15-3.967,3.15-6.398c-0.2-0.5-0.967-1.102-2.301-1.801c-1.133-0.601-1.649-1.199-1.55-1.801
		c0.3-0.398,0.684-0.467,1.15-0.199c0.267,0.134,0.633,0.449,1.1,0.949c1.733,0.467,3.634,0.135,5.7-1
		c1.2-0.666,2.967-1.832,5.3-3.5c0.167-0.231,0.267-0.666,0.3-1.3c0.067-0.532,0.301-0.983,0.7-1.35
		c0.767-0.435,1.45-0.333,2.05,0.3c1,1.1,1.533,1.666,1.601,1.7c0.633,0.366,1.883,0.55,3.75,0.55c1.733,0.033,2.917,0.367,3.55,1
		c1.333-0.467,2.75-1.166,4.25-2.1C132.15,211.633,133.45,210.717,135.65,209.15z M128.7,207.6l0.45-0.3
		c0.166-0.1,0.333-0.065,0.5,0.101C129.417,207.967,129.1,208.033,128.7,207.6z M115.5,201.25c-0.6,0.1-0.967-0.133-1.1-0.7
		c0.699-0.7,1.333-0.815,1.899-0.35C116.367,200.8,116.1,201.15,115.5,201.25z M110.65,187.25c-0.601-0.334-0.867-0.783-0.801-1.35
		c0.067-0.566,0.4-1,1-1.301c0.801,0.334,1.134,0.834,1,1.5C111.717,186.666,111.316,187.05,110.65,187.25z M113.8,188.7
		c0.533,0.532,1.083,0.6,1.65,0.2c0.6-0.367,0.8-0.852,0.6-1.45c-0.366-0.233-0.816-0.167-1.35,0.2
		C114.233,187.982,113.934,188.334,113.8,188.7z M156.5,258.3l0.75,0.5c-0.434,0.733-0.833,0.917-1.2,0.55
		C156.05,258.982,156.2,258.633,156.5,258.3z M160.6,248.6c0.233-0.5,0.95-0.783,2.15-0.85c1.3-0.066,2.133-0.268,2.5-0.6
		c0.5,0.166,0.967,0.582,1.4,1.25c0.467,0.699,0.666,1.315,0.6,1.85c-0.7,1.3-2.117,1.633-4.25,1S160.066,249.732,160.6,248.6z
		 M144.75,217.25c0.434-0.066,0.833,0.033,1.2,0.3c0.366,0.833,0.333,1.517-0.101,2.05c-0.366,0.467-0.899,0.685-1.6,0.65
		c-0.667,0-1.1-0.25-1.3-0.75c-0.267-0.566-0.05-1.3,0.649-2.2C143.733,217.334,144.117,217.316,144.75,217.25z M165.45,221.15
		c0.3,0.731,0.217,1.383-0.25,1.949c-0.935,1.101-1.817,1.018-2.65-0.25c-0.833-1.267-0.517-2.351,0.95-3.25
		C164.467,219.834,165.117,220.35,165.45,221.15z M174.7,234.55c0.167-0.3,0.366-0.417,0.6-0.35c0.167,0.032,0.417,0.183,0.75,0.45
		c-0.1,0.133-0.149,0.283-0.149,0.449c-0.032,0.199-0.101,0.351-0.199,0.449c-0.301,0.033-0.533-0.066-0.7-0.3
		C174.934,235.15,174.833,234.917,174.7,234.55z M176.4,228.2c0.332-0.333,0.582-0.3,0.75,0.1c0.166,0.435,0.017,0.667-0.45,0.7
		c-0.067-0.066-0.117-0.2-0.15-0.4C176.55,228.434,176.5,228.3,176.4,228.2z M183.25,212.15c-0.167-0.5-0.367-0.852-0.6-1.051
		c0.398-0.166,0.981-0.601,1.75-1.301c1.3,0.2,1.832,0.885,1.6,2.051s-0.9,1.601-2,1.301
		C183.633,212.95,183.383,212.617,183.25,212.15z M188.45,202.1c0.7,0.4,0.8,0.935,0.3,1.602c-0.5,0.066-0.8-0.167-0.9-0.7
		C187.75,202.467,187.95,202.166,188.45,202.1z M223.85,173.7c-0.133,0.399-0.517,0.583-1.148,0.55
		c-0.667-0.033-1.051-0.25-1.15-0.65c-0.167-0.5,0.233-1.082,1.2-1.75C223.65,172.617,224.018,173.232,223.85,173.7z M-0.6,267.5
		c0.366,0.268,0.383,0.482,0.05,0.65c-0.434-0.2-0.7-0.483-0.8-0.852C-1.217,267.133-0.967,267.2-0.6,267.5z M52.1,226.9
		c1.067-0.935,2.084-1.051,3.051-0.352c-0.033,0.366,0.033,0.684,0.199,0.95c-0.5,0.867-1.133,1.185-1.899,0.95
		C52.717,228.25,52.267,227.732,52.1,226.9z M55.05,196.55c0.767-0.5,1.483-0.55,2.15-0.149c0.066,0.867-0.283,1.551-1.05,2.051
		c-0.801,0.5-1.533,0.449-2.2-0.15C53.917,197.6,54.283,197.018,55.05,196.55z M30.7,179.35l0.3-0.398
		c0.7-1.167,2.566-1.801,5.6-1.9c3.167-0.134,4.917,0.65,5.25,2.352c-0.3,0.365-0.732,0.55-1.3,0.55c-0.767,0-1.217,0.017-1.35,0.05
		c-0.634,1.166-1.083,1.95-1.351,2.35c-0.433,0.635-1.033,1.066-1.8,1.301c-0.933-0.268-1.833-0.949-2.7-2.051
		C32.417,180.467,31.533,179.717,30.7,179.35z M24.9,168.2c-0.801-0.667-1.217-1.417-1.25-2.25c-0.033-0.9,0.5-1.366,1.6-1.4
		c0.5,0.435,0.667,1,0.5,1.7C25.684,166.65,25.4,167.3,24.9,168.2z M44.45,163.9c0.767,0.565,0.983,1.315,0.649,2.25
		c-0.333,0.865-0.933,1.434-1.8,1.699c-1.033-0.199-1.366-0.935-1-2.199C42.7,164.35,43.417,163.768,44.45,163.9z M46.25,158.75
		c-0.2-1.066,0.033-2.117,0.7-3.15c0.733,0.168,1.283,0.635,1.649,1.4c0.2,0.434,0.45,1.084,0.75,1.95
		c-0.267,0.5-0.283,1.565-0.05,3.2c0.167,1.3-0.149,2.148-0.95,2.55c-0.5-0.366-0.767-0.866-0.8-1.5
		c0.067-0.733,0.05-1.284-0.05-1.65C46.8,160.482,46.383,159.55,46.25,158.75z M46.5,127.65c1.133,0.067,2.033,0.417,2.7,1.05
		c0.2,0.066,0.517-0.017,0.95-0.25c0.399-0.2,0.732-0.217,1-0.05c0.1,0.667,0.033,1.517-0.2,2.55c-0.067,0.8,0.316,1.466,1.149,2
		c0.301,0.2,0.717,0.283,1.25,0.25c0.533-0.034,1.018,0.066,1.45,0.3c0,0.2,0.017,0.5,0.05,0.9c-0.033,0.333-0.217,0.65-0.55,0.95
		c0.4,0.966,0.533,2.283,0.4,3.95c-0.2,2.134-0.267,3.483-0.2,4.05c-0.533,0.367-0.95,0.9-1.25,1.6c-0.167,0.4-0.367,1.017-0.6,1.85
		c-0.667,0.233-1.384,0.767-2.15,1.6c-0.934,1.034-1.65,1.717-2.15,2.05c-1,0.033-1.75,0.1-2.25,0.2
		c-0.866,0.166-1.55,0.666-2.05,1.5c-0.399-0.066-0.717-0.135-0.95-0.2c-0.366-0.067-0.683-0.267-0.949-0.601
		c-1.233,0.467-2.667,0.25-4.301-0.649c-2.566-1.434-3.982-2.2-4.25-2.3c-0.732-1.5-1.116-2.283-1.149-2.35
		c-0.533-0.833-1.2-1.45-2-1.85c0.566-1.3,0.833-2.333,0.8-3.1c-0.066-1.067-0.667-1.95-1.8-2.65c0.133-0.3,0.333-0.55,0.6-0.75
		c0.333-0.2,0.55-0.4,0.65-0.6c-0.067-1.367,0.483-2.833,1.649-4.4c0.667-0.9,1.717-2.217,3.15-3.95c0.167,0,0.5,0.066,1,0.2
		c0.434,0.133,0.767,0.183,1,0.15c0.7-1.1,1.7-1.767,3-2c0.733-0.133,1.816-0.317,3.25-0.55
		C44.45,127.217,45.367,127.583,46.5,127.65z M217.8,138.15c0.9-1.667,2.101-1.933,3.601-0.8c0,0.566-0.268,1-0.801,1.3
		c-0.199,0.133-0.648,0.317-1.35,0.55L217.8,138.15z M188.7,156.95c0.1-0.366,0.35-0.65,0.75-0.851l0.899,0.649
		c0.066,0.233-0.018,0.5-0.25,0.8c-0.199,0.301-0.416,0.467-0.649,0.5c-0.2-0.199-0.367-0.216-0.5-0.05
		C188.65,157.666,188.566,157.316,188.7,156.95z M204.4,147.95c-0.334-0.2-0.5-0.5-0.5-0.9l0.55-0.2c0.2-0.034,0.399,0.033,0.6,0.2
		c0,0.034,0.083,0.184,0.25,0.45C205.066,148,204.768,148.15,204.4,147.95z M200.35,134.75c-0.199-0.066-0.3-0.217-0.3-0.45
		c0-0.233-0.065-0.383-0.2-0.45c0.102-0.1,0.4,0.017,0.9,0.35L200.35,134.75z M211.65,131c0.332,1.033-0.084,2.184-1.25,3.45
		c-1.067,1.1-2.135,1.783-3.2,2.05c-0.367-0.967,0.017-2.217,1.149-3.75C209.518,131.15,210.617,130.566,211.65,131z M221.75,120.55
		c-2.333,1.167-3.816,1.983-4.45,2.45c-0.167-0.3,0-0.617,0.5-0.95c0.468-0.333,0.634-0.616,0.5-0.85c0.8,0.033,2.017-0.634,3.65-2
		c1.532-1.267,2.8-1.733,3.8-1.4C224.982,118.7,223.65,119.617,221.75,120.55z M152.95,135.1c0.6-0.534,1.217-0.4,1.85,0.4
		c0.101,0.667-0.133,1.167-0.7,1.5c-0.565,0.333-1.133,0.3-1.699-0.1C152.133,136.233,152.316,135.633,152.95,135.1z M156.5,125.3
		c0.3,0,0.5-0.05,0.6-0.15c0.2,0.167,0.233,0.367,0.102,0.6c-0.2,0.333-0.367,0.583-0.5,0.75c-0.434-0.233-0.7-0.517-0.801-0.85
		C156.033,125.417,156.232,125.3,156.5,125.3z M159.45,123.4c0.167,0.167,0.333,0.2,0.5,0.1c0.267,0.5,0.1,0.934-0.5,1.3
		c-0.935,0.634-1.45,1.017-1.55,1.15c-0.4-0.6-0.352-1.034,0.148-1.3C158.816,124.184,159.283,123.767,159.45,123.4z M156,120.35
		c0.367,0.1,0.65,0.233,0.85,0.4c0.067,1.233-0.231,2.316-0.898,3.25c-0.934,0.066-1.65,0.033-2.15-0.1
		c-0.3-0.533-0.683-0.983-1.148-1.35c-0.467-0.366-0.769-0.683-0.9-0.95c0.232-0.2,0.467-0.2,0.7,0c0.133,0.1,0.315,0.316,0.55,0.65
		c0.268-0.5,0.617-0.934,1.051-1.3c0.232-0.233,0.582-0.534,1.049-0.9C155.268,120.184,155.566,120.283,156,120.35z M150.55,89.75
		c0.101,0.133-0.1,0.15-0.6,0.05c-0.467-0.066-0.833-0.2-1.101-0.4C149.184,89.167,149.75,89.283,150.55,89.75z M155.75,80.85
		c-0.667-0.4-0.934-0.967-0.8-1.7c0.1-0.7,0.5-1.25,1.2-1.65c0.865,0.367,1.199,0.983,1,1.85
		C156.982,80.184,156.518,80.684,155.75,80.85z M144.85,74.85c-0.066-0.434,0.134-0.684,0.601-0.75l0.75,0.55l-0.55,0.7
		C145.184,75.483,144.917,75.316,144.85,74.85z M168.1,63c-0.3,0.4-0.8,0.717-1.5,0.95c-0.967-0.534-1.033-1.233-0.199-2.1
		C167,61.783,167.566,62.167,168.1,63z M217.2,97.5c0.267-0.133,0.5-0.133,0.7,0c0.199,0.167,0.166,0.4-0.102,0.7
		c-0.167-0.067-0.3-0.184-0.398-0.35C217.333,97.717,217.268,97.6,217.2,97.5z M222.15,94.85c-0.168,0.3-0.367,0.417-0.602,0.35
		c-0.232-0.067-0.365-0.233-0.398-0.5C221.383,94.434,221.717,94.483,222.15,94.85z M192.05,71.85
		c-0.899-0.034-1.417-0.434-1.55-1.2c-0.1-0.8,0.283-1.15,1.15-1.05c0.365,0.2,0.633,0.466,0.8,0.8c0.065,0.2,0.167,0.483,0.3,0.85
		C192.482,71.316,192.25,71.517,192.05,71.85z M106.3,155.1c-0.066,0.769-0.517,1.269-1.35,1.5c-0.8,0.234-1.351-0.033-1.65-0.8
		C104.233,154.6,105.233,154.367,106.3,155.1z M96.3,158.95c0-0.601,0-0.935,0-1c0.067-0.4,0.267-0.767,0.601-1.101
		c-0.334-0.232-0.567-0.399-0.7-0.5c-0.267-0.199-0.417-0.399-0.45-0.601c0.3-0.733,0.583-1.267,0.85-1.601
		c0.634,0.166,1.25,0.5,1.851,1c-0.134,0.601-0.283,1.051-0.45,1.351c0.233,0.233,0.517,0.416,0.85,0.55
		c0.367,0.102,0.634,0.217,0.801,0.352c0.232,1.033-0.033,1.783-0.801,2.25C98.05,160.184,97.2,159.95,96.3,158.95z M95,156.05
		c-0.233,0.468-0.667,0.55-1.3,0.25c-0.601-0.3-0.983-0.683-1.15-1.149c0.3-0.633,0.817-0.782,1.55-0.449
		C94.833,155,95.133,155.45,95,156.05z M89.1,153.3c0.167,1.167-0.333,1.935-1.5,2.3c-1.133,0.367-2.183,0.084-3.149-0.85
		c-0.134-0.666,0.05-1.232,0.55-1.7c0.267-0.233,0.8-0.55,1.6-0.95c0.301,0.135,0.717,0.283,1.25,0.45
		C88.316,152.717,88.733,152.967,89.1,153.3z M102.55,143c0,0.1,0.067,0.267,0.2,0.5s0.184,0.417,0.15,0.55
		c-0.5,0.634-0.983,0.9-1.45,0.8c-0.367-0.1-0.617-0.4-0.75-0.9c-0.134-0.5-0.05-0.867,0.25-1.1
		C101.283,142.55,101.816,142.6,102.55,143z M100.35,137.8l-0.399,0.55l-0.55-0.4l0.399-0.55L100.35,137.8z M79.5,154
		c-0.667-0.334-0.934-0.783-0.8-1.35c0.066-0.102,0.217-0.15,0.45-0.15c0.199,0,0.35-0.117,0.449-0.35
		c0.4,0.199,0.851,0.615,1.351,1.25C80.65,154.166,80.167,154.367,79.5,154z M66.4,160.15c-0.033-0.334,0.116-0.635,0.449-0.9
		c0.467-0.4,0.75-0.717,0.851-0.95c0.3,0.067,0.75,0.15,1.35,0.25c0.467,0.167,0.75,0.5,0.851,1
		C69,160.883,67.833,161.084,66.4,160.15z M64,156.8c0.133,0.5-0.033,0.935-0.5,1.3c-0.6,0.4-1.017,0.668-1.25,0.801
		c-1.667-0.434-2.033-1.133-1.1-2.101C62.083,155.8,63.033,155.8,64,156.8z M86,133.95c-0.934-0.934-0.684-1.65,0.75-2.15
		c0.566,0.067,1.05,0.317,1.45,0.75c0.399,0.467,0.517,0.917,0.35,1.35C87.816,134.867,86.967,134.883,86,133.95z M72.5,72.5
		c0.434,0.1,0.767,0.267,1,0.5c0.3,0.3,0.367,0.617,0.2,0.95c-0.4,0.6-0.851,0.633-1.351,0.1C71.816,73.517,71.867,73,72.5,72.5z
		 M93.95,74.55h1.15c1.467,1.934,2.4,3.467,2.801,4.6c0.666,1.733,0.616,3.434-0.15,5.1c-1.767-0.434-2.883-1.667-3.35-3.7
		c-0.768-3.133-1.184-4.75-1.25-4.85L93.95,74.55z M92.8,84.1c-2.1-1.434-2.85-3-2.25-4.7c1.267,0.233,2.2,1.15,2.8,2.75
		c0.768,1.9,1.5,3.1,2.2,3.6c-0.066,0.1-0.133,0.316-0.2,0.65c-0.066,0.233-0.199,0.434-0.399,0.6
		C93.816,87.167,93.1,86.2,92.8,84.1z M99.15,64.95c0.333-0.434,0.732-0.384,1.199,0.15c-0.066,0.1-0.116,0.25-0.149,0.45
		c-0.033,0.167-0.101,0.317-0.2,0.45c-0.233-0.066-0.434-0.033-0.6,0.1C98.867,65.8,98.783,65.417,99.15,64.95z M140.75,83.9
		c1.033,0.534,1.167,1.383,0.4,2.55c-0.268-0.067-0.467-0.034-0.601,0.1c-0.566-0.3-0.816-0.75-0.75-1.35
		C139.867,84.6,140.184,84.167,140.75,83.9z M125.55,84.8c1.267,0.333,2.333,0.017,3.2-0.95c2.467,2.466,4.533,3.367,6.2,2.7
		c1.333,0.667,2.033,1.517,2.1,2.55c0.634,0.233,1.567,0.617,2.8,1.15c0.268,0.4,0.434,0.9,0.5,1.5c0.067,0.333,0.134,0.833,0.2,1.5
		c0.333,0.167,1.017,0.316,2.05,0.45c0.801,0.066,1.384,0.366,1.75,0.9c0,0.3-0.066,0.816-0.199,1.55
		c-0.101,0.5-0.084,0.967,0.05,1.4c1.899,0.833,2.783,1.833,2.649,3c0.2-0.2,0.45-0.233,0.75-0.1c0.4,0.2,0.65,0.3,0.75,0.3
		c0.367,0,1-0.217,1.9-0.65c0.8-0.4,1.467-0.567,2-0.5c-0.268,0.167-1,0.5-2.2,1c-0.899,0.367-1.616,0.783-2.149,1.25
		c-0.101,0.267,0.066,0.583,0.5,0.95c0.433,0.434,0.649,0.75,0.649,0.95c-0.5,1.4-0.783,2.316-0.85,2.75
		c-0.101,0.8,0.083,1.6,0.55,2.4c0.633,0.067,1.2,0.333,1.7,0.8c0.3,0.3,0.683,0.783,1.149,1.45c-0.066,0.633-0.399,1.167-1,1.6
		c-0.667,0.367-1.066,0.617-1.2,0.75l1.35,2.1c-0.232,0.3-0.4,0.517-0.5,0.65c-0.167,0.233-0.1,0.417,0.2,0.55
		c-1.434,0.3-2.217,1.083-2.351,2.35c-0.1,0.767-0.05,2.067,0.15,3.9c1.633,0.7,2.55,1.25,2.75,1.65
		c-0.167,0.433-0.517,0.466-1.05,0.1c-0.567-0.366-0.934-0.433-1.101-0.2c0.067,0.7,0.584,1.216,1.551,1.55
		c0.867,0.3,1.267,0.717,1.199,1.25l-3-0.95c-1.333-0.4-2.383-0.333-3.149,0.2c0.033,0.3,0.383,0.583,1.05,0.85
		c0.667,0.233,1.017,0.533,1.05,0.9c0.033,0.467-0.2,0.633-0.7,0.5c-0.467-0.133-0.916-0.4-1.35-0.8
		c-1.033,2.133-2.25,2.933-3.65,2.4c-0.033,0.333-0.133,0.816-0.3,1.45c-0.1,0.566-0.116,1.033-0.05,1.4
		c-0.167,0.167-0.4,0.316-0.7,0.45c-0.366,0.167-0.616,0.317-0.75,0.45c0.467,1.267,1.583,2,3.351,2.2
		c2.066,0.233,3.383,0.667,3.949,1.3c-0.732,1.633-0.399,3.217,1,4.75c2,2.233,3.101,3.633,3.301,4.2
		c0.365-0.2,0.6-0.317,0.699-0.35c0.101-0.034,0.334-0.05,0.699-0.05c0.4-0.8,0.717-1.366,0.95-1.7
		c0.267-0.367,0.8-0.883,1.601-1.55c-0.166-0.6-0.199-1.616-0.101-3.05c0.065-1.2-0.133-2.217-0.601-3.05
		c0.732-0.934,1.232-1.733,1.5-2.4c0.334-0.8,0.468-1.683,0.399-2.65c-0.233-0.233-0.532-0.417-0.899-0.55
		c-0.399-0.1-0.699-0.25-0.899-0.45c-0.899,0.8-1.583,1.25-2.05,1.35c-0.801-0.8-0.852-1.667-0.15-2.6
		c0.533,0.067,1.25,0.017,2.15-0.15c0.732-0.033,1.316,0.283,1.75,0.95c0.865-0.233,1.583-0.817,2.148-1.75
		c0.334-0.534,0.801-1.35,1.4-2.45c0.533,0.167,1.066-0.117,1.6-0.85c0.5-0.7,0.783-1.433,0.852-2.2
		c-0.333-0.2-0.75-0.184-1.25,0.05c-0.533,0.233-0.934,0.3-1.2,0.2c0.7-1.067,1.149-2.333,1.351-3.8
		c0.232-1.767-0.033-3.267-0.801-4.5c-0.3-0.2-0.816-0.316-1.55-0.35c-0.601-0.066-1.117-0.316-1.55-0.75
		c-0.167-0.466-0.283-0.816-0.352-1.05c1.5-1.033,2.2-2.066,2.102-3.1c-0.067-1-0.885-1.917-2.45-2.75
		c-0.033-0.6,0.5-1.617,1.601-3.05c0.101-0.5-0.101-1.15-0.601-1.95c-0.565-0.867-0.867-1.5-0.899-1.9
		c0.166-0.467,0.801-1.4,1.899-2.8c0.899-1.1,1.315-2.034,1.25-2.8c-0.633-0.6-1.05-1.466-1.25-2.6c0.133-0.167,0.367-0.35,0.7-0.55
		c0.333-0.167,0.566-0.383,0.699-0.65c0-0.2-0.199-0.383-0.601-0.55c-0.366-0.167-0.5-0.417-0.399-0.75
		c0.301-0.433,0.584-0.483,0.851-0.15c0.3,0.3,0.383,0.617,0.25,0.95c0.435-0.467,0.815-1.133,1.149-2
		c0.033,0,0.482-0.083,1.351-0.25c0.633-0.133,1.101-0.434,1.399-0.9c0.166-0.267,0.184-0.817,0.051-1.65
		c-0.102-0.866-0.051-1.466,0.148-1.8c0.2-0.267,0.567-0.483,1.102-0.65c0.699-0.233,1.183-0.434,1.449-0.6
		c0.867-0.566,1.934-1.533,3.199-2.9c1.135-0.967,2.301-1.317,3.5-1.05c0.2-0.3,0.367-0.8,0.5-1.5c0.135-0.6,0.4-1.1,0.801-1.5
		c1.268-0.167,3.232,0.017,5.899,0.55c2.333,0.167,4.117-0.717,5.351-2.65c0.066,0,0.218,0.033,0.449,0.1
		c0.168,0.034,0.301,0.017,0.4-0.05c0.533,0.5,1.15,1.217,1.85,2.15c0.668,0.667,1.467,0.95,2.4,0.85
		c1.1-1.767,2.117-2.533,3.05-2.3c0.399,0.433,0.667,1.2,0.8,2.3c0.067,0.934,0.418,1.533,1.051,1.8
		c0.533,0.233,1.117,0.083,1.75-0.45c0.768-0.6,1.416-0.883,1.949-0.85c0.533,0.367,0.801,0.85,0.801,1.45
		c0,0.366-0.149,0.9-0.449,1.6c0.467,1.1,1.449,1.667,2.949,1.7c1.801,0,2.851,0.133,3.149,0.4c0.5,0.4,0.767,1.25,0.8,2.55
		c0,1.4,0.217,2.366,0.65,2.9c0.4,0.267,0.934,0.4,1.6,0.4c0.733-0.033,1.269,0.033,1.602,0.2c-0.067,0.1-0.051,0.2,0.05,0.3
		c0.065,0.066,0.185,0.167,0.351,0.3c-0.033,0.567-0.25,1.417-0.649,2.55c-0.233,1.033-0.05,1.816,0.55,2.35
		c0.3,0.167,0.732,0.333,1.3,0.5s1,0.35,1.3,0.55c0.135,0.5,0.25,1.217,0.352,2.15c0.232,0.8,0.699,1.517,1.398,2.15
		c-0.133,0.6-0.517,1.017-1.148,1.25c-0.667,0.233-1.083,0.55-1.25,0.95c-0.268,0.7,0.017,1.367,0.85,2
		c0.967,0.767,1.467,1.5,1.5,2.2c-1.533,0.933-2.199,2.05-2,3.35c0.167,0.9,0.833,2.017,2,3.35c-0.199,0.7-0.732,1.184-1.6,1.45
		c-0.967,0.3-1.518,0.55-1.65,0.75c-0.3,0.466-0.283,1.05,0.051,1.75c0.434,0.867,0.633,1.55,0.601,2.05
		c-0.333,0.5-0.817,0.817-1.45,0.95c-0.8,0.2-1.316,0.383-1.55,0.55c-0.333,0.3-0.468,0.633-0.399,1
		c0.032,0.167,0.1,0.434,0.199,0.8c0.934-0.367,1.7-0.567,2.301-0.6c0.832-0.067,1.649,0.15,2.449,0.65
		c-0.6,1.233-1.717,1.95-3.35,2.15c-1.9,0-3.269,0.034-4.102,0.1c-0.898,0.5-1.433,1.267-1.6,2.3
		c-0.233,1.367-0.551,2.317-0.95,2.85c-1.399-0.3-2.583,0-3.55,0.9c-0.967,0.934-1.434,2.184-1.4,3.75
		c-1.8-1.466-2.75-2.233-2.85-2.3c-1.102-0.566-2.102-0.35-3,0.65c0.1,2.2-0.967,5.05-3.2,8.55c-2.833,3.966-4.833,6.767-6,8.4
		c-0.399,0.966-0.733,1.583-1,1.85c-1.065,0.532-1.867,0.95-2.399,1.25c-0.934,0.5-1.134,1.233-0.601,2.2
		c0.367,0.1,1.033-0.15,2-0.75c0.8-0.5,1.533-0.385,2.2,0.35c-0.135,0.666-0.385,1.2-0.75,1.6c-0.5,0.467-0.95,0.935-1.352,1.4
		c-0.033,0.768,0.117,1.5,0.45,2.2s0.767,1.216,1.3,1.55c0.5,0.3,1.7,0.316,3.602,0.05c1.533-0.233,2.482,0.15,2.85,1.15
		c-0.333,0.8-0.933,1.25-1.8,1.35c-0.867,0.101-1.399,0.333-1.601,0.7c-0.601,1.133-0.232,1.816,1.101,2.05
		c1.833,0.3,2.883,0.634,3.149,1c-0.232,0.468-0.616,0.75-1.149,0.851c-0.601,0.134-1,0.316-1.2,0.551
		c-0.398,1.134-0.017,1.966,1.15,2.5c0.3,0.167,1.35,0.449,3.148,0.85c-0.033,0.366,0.033,0.684,0.2,0.95
		c-1.833,0.967-3.1,1.75-3.8,2.351c-1.232,1.032-1.583,2.268-1.05,3.699c0.633,0.333,1.782,0.667,3.45,1
		c1.398,0.4,2.217,1.102,2.449,2.102c-0.634,0.967-1.617,1.3-2.949,1c-1.668-0.367-2.717-0.467-3.15-0.301
		c-0.133,0.166,0.018,0.366,0.45,0.601c0.399,0.2,0.532,0.384,0.399,0.55c-0.199,0.533-0.482,0.666-0.851,0.4
		c-0.467-0.334-0.733-0.484-0.8-0.45c-0.135,0.667,0.433,1.216,1.699,1.649c1.367,0.434,2.084,0.983,2.149,1.649
		c-0.601,0.935-1.45,1.233-2.55,0.899c-1.301-0.633-2.283-1.116-2.95-1.449c-0.032,0.033-0.3,0.949-0.8,2.75
		c-0.301,1.033-0.917,1.634-1.85,1.8c0,0.435,0.449,1.117,1.35,2.05c0.732,0.733,0.833,1.385,0.3,1.95
		c-0.366,0.367-0.833,0.45-1.399,0.25c-0.467-0.166-1.149-0.601-2.051-1.3c-0.731-0.167-1.5,0.066-2.3,0.699
		c-0.633,0.533-1.133,1.166-1.5,1.899c0.101,0.366,0.601,1.083,1.5,2.15c0.733,1.1,0.733,2.05,0,2.85
		c-0.032-0.032-0.183,0.034-0.45,0.2c-0.767,0.033-1.467-0.35-2.1-1.15c-0.633-0.967-1.15-1.615-1.551-1.949
		c-0.666-0.032-1.116,0.267-1.35,0.899c-0.4,1-0.617,1.517-0.65,1.55c-0.366,0.367-1.199,0.769-2.5,1.2
		c-1.166,0.4-1.967,0.983-2.399,1.75c-0.899,0.101-1.782,0.034-2.649-0.2c-0.199,0.334-0.232,0.816-0.101,1.45
		c0.134,0.567,0.05,1.034-0.25,1.4c-0.8,0.333-1.649-0.167-2.55-1.5c-0.268,0.1-0.5,0.366-0.7,0.8c-0.233,0.434-0.5,0.732-0.8,0.9
		c-1-0.2-1.917-1.135-2.75-2.801c-0.467-0.101-0.816-0.149-1.051-0.149c-0.366,0-0.666,0.167-0.899,0.5
		c0,0.032,0.117,0.667,0.351,1.899c0.134,0.768,0.033,1.434-0.301,2c-0.231,0.334-0.6,0.449-1.1,0.351
		c-0.6-0.067-0.982-0.05-1.15,0.05c-0.731-0.434-1.383-1.3-1.949-2.6c-0.566-1.234-1.116-1.967-1.649-2.2
		c-0.633-0.3-1.4-0.05-2.3,0.75c-1,0.866-1.867,1.233-2.601,1.1c-0.399-0.333-0.6-0.815-0.6-1.45c0-0.865-0.033-1.383-0.1-1.55
		c-1.233-0.899-2.45-1.417-3.65-1.55c-1.434-0.133-2.617,0.35-3.55,1.45c-1.434-0.435-2.167-1.333-2.2-2.7
		c0.267-1.633,0.417-2.816,0.45-3.55c-0.867-0.667-1.9-1-3.101-1c-1.5,0.032-2.5-0.05-3-0.25l-0.8,1.149
		c-0.833,0.065-1.899-0.634-3.2-2.101c-1.166-1.367-2.316-1.867-3.449-1.5c-0.268-0.399-0.483-0.7-0.65-0.899
		c-0.233-0.367-0.55-0.634-0.95-0.801c-0.667,0-1.433,0.635-2.3,1.9c-0.8,1.199-1.517,1.75-2.15,1.648
		c-0.3-0.365-0.566-0.967-0.8-1.8c-0.2-0.833-0.467-1.45-0.8-1.851c-1.533-0.133-3.25,0.434-5.15,1.701
		c-2.1,1.699-3.683,2.898-4.75,3.6c0.667-1.232,1.617-2.416,2.851-3.551c1.2-1.1,2.366-1.865,3.5-2.299
		c0.066-0.201,0.017-0.467-0.15-0.801s-0.2-0.601-0.1-0.801c0.066-0.066,0.6-0.449,1.6-1.148c0.667-0.467,1.067-1,1.2-1.602
		c-0.367-0.434-0.783-0.634-1.25-0.6h-1.15c-0.333-0.168-0.316-0.467,0.051-0.9c0.333-0.466,0.366-0.768,0.1-0.898
		c-0.4-0.367-0.917-0.283-1.55,0.25c-0.634,0.533-1.184,0.516-1.65-0.051c-0.1-0.601,0.233-1.084,1-1.449
		c0.8-0.4,1.217-0.867,1.25-1.4c-1.8-0.367-3.083-0.551-3.85-0.551c-1.367,0.066-2.533,0.566-3.5,1.5
		c-0.233-0.133-0.617-0.184-1.15-0.149c-0.467,0.034-0.883-0.116-1.25-0.45c-0.233-0.666-0.1-1.283,0.4-1.85
		c0.5-0.5,1.1-0.768,1.8-0.801c0.5,0.4,0.783,0.617,0.85,0.65c0.268,0.268,0.384,0.532,0.351,0.801
		c1.366-0.066,2.566-0.467,3.6-1.201c1.134-0.766,1.917-1.85,2.351-3.25c-0.334-0.434-1.75-0.916-4.25-1.449
		c-1.9-0.367-2.518-1.232-1.851-2.6c0.3-0.602,0.851-1,1.65-1.201c0.433-0.1,1.1-0.232,2-0.399c-0.033-0.167-0.167-0.55-0.4-1.149
		c-0.167-0.467-0.217-0.867-0.149-1.199c0.399-0.102,0.949-0.4,1.649-0.9c0.733-0.566,1.283-0.898,1.65-1
		c0.899-1.466,0.85-3.134-0.15-5c-1.133-2.134-1.55-3.767-1.25-4.898c-0.267-0.102-0.717,0-1.35,0.3
		c-0.533,0.233-1.017,0.134-1.45-0.3c-0.033-0.801,0.383-1.25,1.25-1.352c-0.4-0.699-0.667-2.083-0.8-4.15
		c-0.101-1.767-0.617-3.1-1.55-4c0.967-2.333,1.699-4.167,2.199-5.5c0.9-2.5,0.75-4.25-0.449-5.25
		c-0.301-0.233-0.717-0.383-1.25-0.45c-0.533-0.1-0.934-0.25-1.2-0.45c-0.367-0.267-0.667-0.75-0.9-1.45
		c-0.267-0.7-0.566-1.2-0.899-1.5c-1.334,0.767-2.367,1.367-3.101,1.8c-1.3,0.767-2.3,1.716-3,2.85c-0.433,0.033-0.767,0.066-1,0.1
		c-0.433,0-0.833-0.183-1.2-0.55c0.067-0.3,0.033-0.517-0.1-0.65c0.1-0.367,0.434-0.717,1-1.05c0.7-0.366,1.167-0.75,1.4-1.15
		c-0.801-0.466-1.617-0.167-2.45,0.9c-0.9,1.167-1.684,1.684-2.351,1.55c-0.666-0.967-0.366-2.167,0.9-3.6
		c0.934-1.066,1.967-1.9,3.1-2.5c0.634,0.633,1.268,0.833,1.9,0.6c0.667-0.2,1.066-0.784,1.2-1.75
		c-0.667-0.567-1.533-0.967-2.601-1.2c-1.699-0.367-2.633-0.583-2.8-0.65c-0.833,0.533-1.45,0.9-1.85,1.1
		c-0.733,0.367-1.434,0.267-2.101-0.3c0-0.6,0.217-1.1,0.65-1.5c0.3-0.267,0.816-0.55,1.55-0.85c-2.7-1.467-4.783-2.85-6.25-4.15
		c-0.833-0.133-1.467-0.267-1.899-0.4c-0.768-0.233-1.217-0.683-1.351-1.35c0.167-0.366,0.4-0.583,0.7-0.65
		c0.434-0.133,0.684-0.216,0.75-0.25c0.833,1.133,2.2,2.1,4.1,2.9c2.301,1,3.867,1.833,4.7,2.5c1.267-1.566,1.833-3.267,1.7-5.1
		c-0.2-2.1-1.3-3.867-3.3-5.3c0.1-0.433,0.366-0.85,0.8-1.25c0.267-0.233,0.684-0.533,1.25-0.9c0.533-0.967,0.233-2.1-0.9-3.4
		c-1.3-1.5-1.916-2.6-1.85-3.3c-0.2-0.2-0.5-0.35-0.9-0.45c-0.366-0.133-0.666-0.317-0.899-0.55c-0.367-0.2-0.533-0.533-0.5-1
		c0.066-0.566,0.05-0.917-0.05-1.05c-0.467-0.767-1.75-1.633-3.851-2.6c-1.833-0.867-2.816-1.8-2.95-2.8l0.25-0.35
		c1.167-0.267,2.518,0.4,4.051,2c2.033,2.066,3.533,3.316,4.5,3.75c0.166,0.233,0.3,0.617,0.399,1.15
		c0.067,0.534,0.217,0.917,0.45,1.15c1.3,0.667,2.333,0.934,3.1,0.8c0.233-0.467,0.067-1.067-0.5-1.8
		c-0.566-0.767-0.767-1.366-0.6-1.8c0.167-0.2,1.083-0.7,2.75-1.5c1.133-0.566,1.733-1.417,1.8-2.55
		c-0.333-0.733-0.566-1.284-0.7-1.65c-0.267-0.667-0.232-1.283,0.101-1.85c0.366-0.267,0.95-0.35,1.75-0.25
		c0.866,0.133,1.467,0.116,1.8-0.05c-0.1-0.466,0.05-0.767,0.45-0.9c0.533-0.233,0.883-0.5,1.05-0.8
		c0.066-0.134,0.083-0.95,0.05-2.45c-0.033-1,0.467-1.583,1.5-1.75c1.333,1,2.634,1.217,3.9,0.65c0.933-0.433,1.917-1.367,2.95-2.8
		c0.732,0.533,1.533,0.433,2.399-0.3c1.167-0.933,1.9-1.433,2.2-1.5c0.767,0.8,1.5,1.317,2.2,1.55c0.533,0.2,1.267,0.267,2.2,0.2
		c0.933-1.6,1.899-2.316,2.899-2.15C123.367,83.7,124.283,84.5,125.55,84.8z M128.4,66.85c-0.067-0.434,0.133-0.684,0.6-0.75
		c0.633,0.333,0.717,0.767,0.25,1.3C128.783,67.5,128.5,67.316,128.4,66.85z M237.35,164.85h0.5c-0.033,0.002-0.066,0.019-0.1,0.051
		C237.617,164.967,237.482,164.95,237.35,164.85z M227.65,169.55c-0.233,0.233-0.483,0.218-0.75-0.05
		c0.133-0.3,0.365-0.518,0.699-0.65C227.867,169.084,227.883,169.316,227.65,169.55z M257.55,166.85l0.55,0.4l-0.398,0.55
		l-0.551-0.399L257.55,166.85z M231.25,142.55v1.8c-0.367-0.067-0.717-0.233-1.05-0.5C230.4,143.15,230.75,142.717,231.25,142.55z
		 M230.25,91.35c0.3-0.367,0.633-0.483,1-0.35v1.2c-0.133,0.066-0.283,0.066-0.45,0C230.4,92.066,230.217,91.783,230.25,91.35z
		 M230.05,73.85c0.435-0.367,0.833-0.434,1.2-0.2v1.1c-0.066,0.2-0.184,0.4-0.35,0.6c-0.635,0.1-1.135,0.017-1.5-0.25
		C229.4,74.633,229.617,74.217,230.05,73.85z M302.6,31.3c-0.199,0.3-0.199,0.583,0,0.85c-0.731-0.833-1.065-1.433-1-1.8
		C301.667,30.617,302,30.934,302.6,31.3z"/>
</g>
</svg>
