<?xml version="1.0" encoding="utf-8"?>
<!-- Generator: Adobe Illustrator 16.0.0, SVG Export Plug-In . SVG Version: 6.00 Build 0)  -->
<!DOCTYPE svg PUBLIC "-//W3C//DTD SVG 1.1//EN" "http://www.w3.org/Graphics/SVG/1.1/DTD/svg11.dtd">
<svg version="1.1" id="Layer_1" xmlns="http://www.w3.org/2000/svg" xmlns:xlink="http://www.w3.org/1999/xlink" x="0px" y="0px"
	 width="300px" height="300px" viewBox="0 0 300 300" enable-background="new 0 0 300 300" xml:space="preserve">
<g>
	<path fill="#344499" d="M222.355,146.028c-0.056,0.07-0.098,0.042-0.125-0.084c-4.304,0.615-7.957,0.692-10.963,0.23
		c1.328-0.251,3.137-0.391,5.43-0.419c1.285-0.042,3.172-0.077,5.658-0.105C222.427,145.805,222.427,145.93,222.355,146.028z
		 M225.459,143.848c-0.77,0.392-1.865,0.601-3.291,0.629c-1.579-0.028-2.725-0.028-3.438,0c0.644-0.279,1.711-0.405,3.207-0.377
		C223.587,144.099,224.76,144.016,225.459,143.848z M236.757,131.942c1.201,0,2.11-0.049,2.726-0.147
		c-0.907-0.489-2.717-0.412-5.428,0.23C234.695,131.97,235.598,131.942,236.757,131.942z M233.99,136.008
		c-1.48,0.056-2.48,0.279-2.997,0.671c0.489-0.07,1.586-0.035,3.29,0.105c1.355,0.098,2.377-0.014,3.061-0.335
		C236.563,136.113,235.443,135.967,233.99,136.008z M230.889,132.843c0.168,0.293,0.594,0.413,1.277,0.356
		c0.672-0.07,1.118-0.251,1.342-0.545L230.889,132.843z M231.77,121.65c0.543-0.279,1.369-0.419,2.473-0.419
		c0.615,0,1.502,0.014,2.662,0.042c-0.488,0.223-1.293,0.335-2.41,0.335C233.025,121.58,232.118,121.595,231.77,121.65z
		 M239.146,121.126c0.446-0.069,0.732-0.056,0.859,0.042c-0.058,0.266-0.279,0.377-0.672,0.335
		c-0.488-0.056-0.796-0.035-0.922,0.063C238.441,121.343,238.686,121.196,239.146,121.126z M241.662,121.168
		c0.643-0.224,1.607-0.349,2.893-0.377c1.299-0.07,1.594-0.021,0.881,0.147c-1.481,0.097-2.787,0.272-3.92,0.523
		c-0.713-0.098-1.056-0.195-1.026-0.293C240.559,121.042,240.949,121.042,241.662,121.168z M212.925,111.861
		c0.446-0.349,1.572-0.328,3.374,0.063c-0.251,0.153-0.77,0.196-1.551,0.126C213.561,111.924,212.952,111.861,212.925,111.861z
		 M214.854,110.122c-0.069-0.293,0.153-0.44,0.67-0.44c0.615,0,0.957-0.161,1.027-0.482c1.23,0.364,3.264,0.475,6.1,0.335
		c3.619-0.153,5.896-0.203,6.834-0.147c-1.606,0.322-3.982,0.482-7.127,0.482C218.809,109.87,216.307,109.954,214.854,110.122z
		 M241.221,111.715c-1.158,0-1.898,0.049-2.222,0.146c0.351-0.251,0.993-0.412,1.929-0.482c1.328-0.069,2.055-0.119,2.182-0.146
		C242.759,111.554,242.13,111.715,241.221,111.715z M236.087,111.861c-0.644-0.028-1.034,0.007-1.174,0.105
		c0.194-0.265,0.454-0.447,0.774-0.545c0.195-0.028,0.523-0.077,0.984-0.147C236.729,111.708,236.534,111.903,236.087,111.861z
		 M232.208,111.861c-0.026,0.098-0.14,0.182-0.334,0.251c-3.592-0.042-8.196-0.028-13.813,0.042
		c0.713-0.448,2.955-0.643,6.729-0.587c3.521,0.07,5.861,0.168,7.021,0.293C232.075,111.764,232.208,111.764,232.208,111.861z
		 M234.913,109.598c-2.613,0-4.304,0.063-5.073,0.188c1.16-0.461,2.754-0.671,4.778-0.629c2.726,0,4.557-0.063,5.493-0.188
		C238.882,109.346,237.148,109.556,234.913,109.598z M235.542,107.983c-1.161-0.125-3.242-0.125-6.247,0
		c-2.559,0.14-4.563,0.028-6.016-0.335c5.31,0,9.418-0.125,12.324-0.377C235.535,107.62,235.514,107.858,235.542,107.983z
		 M241.117,109.157c0.32-0.098,0.999-0.161,2.031-0.188c1.302,0,2.111-0.021,2.434-0.063c-0.448,0.265-1.16,0.398-2.139,0.398
		C242.354,109.234,241.578,109.186,241.117,109.157z M244.471,107.313c-0.07,0.293-0.301,0.44-0.691,0.44
		c-0.446-0.042-0.746-0.042-0.9,0c0.182-0.364,0.405-0.545,0.67-0.545C243.702,107.208,244.01,107.243,244.471,107.313z
		 M275.241,115.404c-5.324,0.517-12.095,0.887-20.312,1.11c-11.697,0.322-18.543,0.531-20.543,0.629
		c5.367-0.517,12.2-0.873,20.502-1.069C265.063,115.823,271.846,115.6,275.241,115.404z M271.32,132.172
		c0.099-0.293,0.356-0.419,0.777-0.377c0.571,0,0.907-0.021,1.006-0.063c-0.028,0.223-0.301,0.384-0.817,0.481
		C271.797,132.285,271.477,132.271,271.32,132.172z M273.502,134.122c0.865-0.042,1.48-0.161,1.846-0.356
		c-0.421,0.335-0.973,0.531-1.656,0.587c-0.866,0.098-1.434,0.196-1.698,0.293C272.258,134.325,272.761,134.15,273.502,134.122z
		 M265.936,134.353c-0.225-0.126-0.691-0.091-1.403,0.105c-0.058,0.377,0.167,0.503,0.669,0.377
		C265.76,134.709,266.004,134.548,265.936,134.353z M262.602,127.079c0.057-0.321,0.393-0.559,1.006-0.713
		c0.644-0.14,0.841,0.049,0.588,0.566c0.224-0.056,0.385-0.195,0.482-0.419c0.098-0.293,0.182-0.461,0.252-0.503
		c0.895,0.237,2.199,0.307,3.92,0.209c1.158-0.042,2.856-0.189,5.092-0.44c-1.131,0.545-2.94,0.88-5.428,1.006
		C264.628,126.981,262.657,127.079,262.602,127.079z M273.73,124.458c1.984-0.223,3.705-0.46,5.158-0.712
		c0.082,0.224,0.063,0.461-0.063,0.712c-2.319,0.294-4.08,0.503-5.281,0.629c-2.067,0.237-3.683,0.209-4.843-0.084
		C269.833,124.878,271.51,124.697,273.73,124.458z M272.621,119.911c-0.125,0.293-0.412,0.44-0.859,0.44
		c-0.587-0.07-0.979-0.035-1.174,0.105c-0.152-0.196,0.042-0.315,0.587-0.356C271.943,120.071,272.426,120.008,272.621,119.911z
		 M259.248,119.869c-4.164,0.098-7.268,0.125-9.307,0.084c2.334-0.251,3.885-0.413,4.652-0.482
		C256.636,119.373,258.188,119.505,259.248,119.869z M261.471,134.499c-0.867,0.168-1.35,0.475-1.445,0.922
		c0.81-0.266,1.719-0.426,2.724-0.482C262.748,134.493,262.32,134.345,261.471,134.499z M260.213,127.226
		c-0.42,0-0.42-0.308,0-0.922c0.391-0.057,0.621,0.203,0.689,0.775l0.673-0.189c-0.546-0.167-0.595-0.314-0.146-0.44
		c0.461-0.125,0.865-0.154,1.215-0.084c0,0.154-0.098,0.266-0.293,0.335c-0.197,0.056-0.322,0.007-0.377-0.146
		c-0.1,0.028-0.146,0.091-0.146,0.188c0,0.098,0.014,0.209,0.041,0.335c-0.321,0.293-0.727,0.293-1.217,0
		C260.305,126.883,260.157,126.932,260.213,127.226z M246.168,109.241c0.965-0.377,2.334-0.552,4.109-0.524
		c2.332,0.028,3.771,0.014,4.316-0.042c-0.908,0.349-2.264,0.489-4.066,0.419C248.391,109.066,246.938,109.115,246.168,109.241z
		 M257.318,115.551c-0.781,0-1.465,0.049-2.053,0.146c0.461-0.363,1.146-0.545,2.053-0.545c0.84,0,1.496,0.133,1.972,0.398
		L257.318,115.551L257.318,115.551z M248.936,115.593c0.027,0.167-0.104,0.153-0.397-0.042c-1.104,0.223-2.41,0.349-3.919,0.377
		c-1.553,0.042-2.67,0.077-3.354,0.105c0.74-0.349,1.885-0.496,3.438-0.44c1.718,0.069,2.982-0.028,3.793-0.293
		C248.747,115.369,248.895,115.467,248.936,115.593z M251.891,115.593c0.127-0.126,0.524-0.188,1.194-0.188
		c0.881,0,1.42-0.015,1.614-0.042c0.152,0.154-0.201,0.266-1.067,0.335C252.792,115.725,252.213,115.69,251.891,115.593z
		 M248.936,111.421c-0.853,0.07-1.307-0.056-1.361-0.377c0.224,0.07,0.593,0.105,1.109,0.105c0.518-0.042,0.875-0.028,1.069,0.042
		C250.368,111.247,250.096,111.323,248.936,111.421z M246.797,107.648c-0.518-0.028-0.761-0.203-0.732-0.524
		c0.194-0.139,0.404-0.161,0.629-0.063c0.195,0.07,0.377,0.07,0.545,0C247.434,107.453,247.286,107.648,246.797,107.648z
		 M256.628,109.095c0.125-0.251,0.468-0.377,1.026-0.377c0.322,0,0.742,0.014,1.258,0.042c-0.125,0.223-0.446,0.307-0.963,0.251
		C257.334,108.941,256.895,108.969,256.628,109.095z M256.438,107.501c-0.166-0.321,0.043-0.468,0.629-0.44
		c0.867,0.07,1.469-0.006,1.805-0.23c0.027,0.419-0.35,0.594-1.133,0.524C256.941,107.257,256.51,107.306,256.438,107.501z
		 M255.77,106.726c-0.196,0.461-0.783,0.706-1.762,0.733c-1.355,0-2.13,0.028-2.326,0.084c0.293-0.447,0.881-0.671,1.762-0.671
		C254.699,106.873,255.477,106.824,255.77,106.726z M275.577,115.802c0.362-0.335,1.012-0.503,1.95-0.503
		c1.13,0,1.856-0.049,2.179-0.147c-0.545,0.336-1.209,0.503-1.991,0.503C276.609,115.684,275.898,115.732,275.577,115.802z
		 M274.611,116.85c-0.865,0-1.396,0.035-1.592,0.105c0.195-0.224,0.648-0.371,1.361-0.44c0.936-0.056,1.469-0.105,1.594-0.146
		C275.752,116.689,275.297,116.85,274.611,116.85z M270.734,119.03c0.545,0.042,0.914,0,1.11-0.125
		c-0.098,0.321-0.37,0.461-0.817,0.419c-0.613-0.028-1.006,0.007-1.174,0.105C269.952,119.135,270.246,119.002,270.734,119.03z
		 M270.441,117.144c0.125-0.293,0.433-0.419,0.922-0.377c0.615,0.028,1.056-0.035,1.32-0.188c-0.141,0.321-0.469,0.461-0.984,0.419
		C271.057,116.997,270.637,117.046,270.441,117.144z M264.09,114.775c-0.224,0.447-0.865,0.692-1.928,0.734
		c-1.229-0.07-2.041-0.091-2.432-0.063c0.32-0.196,0.972-0.308,1.949-0.335C262.77,115.11,263.573,114.999,264.09,114.775z
		 M265.936,115.257c-0.769,0.028-1.225-0.097-1.362-0.377c0.46,0.098,1.258,0.049,2.39-0.147
		C267.087,115.055,266.745,115.229,265.936,115.257z M263.377,107.313c-0.613-0.098-1.02-0.063-1.215,0.105
		c0.056-0.294,0.301-0.441,0.732-0.441c0.572,0.028,0.908,0.008,1.008-0.063C263.999,107.278,263.824,107.41,263.377,107.313z
		 M282.997,124.815c0.321-0.293,0.739-0.44,1.258-0.44c0.88,0,1.446-0.035,1.698-0.104c-0.352,0.363-0.866,0.523-1.553,0.482
		C283.633,124.725,283.165,124.745,282.997,124.815z M288.427,129.804c0.294-0.07,0.712-0.182,1.257-0.335
		c0.489,0.154-0.076,0.391-1.697,0.712C287.691,130.083,287.839,129.958,288.427,129.804z M289.348,124.563
		c0.321,0.545,0.127,0.678-0.586,0.398c-1.453,0.447-1.984,0.524-1.594,0.23C287.587,124.941,288.313,124.731,289.348,124.563z
		 M294.148,122.824l0.041,0.188c-0.769,0.223-1.9,0.468-3.396,0.733c-1.804,0.322-3.159,0.58-4.067,0.776
		c0.519-0.419,1.648-0.776,3.396-1.069C291.061,123.257,292.4,123.048,294.148,122.824z M286.246,104.944
		c-0.1,0-0.908,0.063-2.432,0.188c-0.992,0.056-1.697-0.077-2.117-0.398c1.09-0.223,2.592-0.237,4.507-0.042L286.246,104.944z
		 M282.326,110.122c-0.979-0.098-1.627-0.112-1.949-0.042c0.586-0.517,1.768-0.587,3.542-0.21
		C283.626,110.135,283.096,110.219,282.326,110.122z M113.548,108.088c-0.838,0.349-1.886,0.559-3.144,0.629
		c-1.481,0.07-2.592,0.119-3.333,0.146c-17.16,0.937-33.09,1.481-47.791,1.635c6.722-0.573,15.686-1.041,26.893-1.404
		C100.106,108.647,109.231,108.312,113.548,108.088z M202.107,145.986c-0.545-0.07-0.899,0.027-1.067,0.293
		c1.97,0.167,2.759,0.119,2.368-0.146C202.863,146.063,202.43,146.014,202.107,145.986z M203.514,150.157
		c1.133-0.028,1.377-0.014,0.732,0.043c-3.27,0-5.708,0-7.314,0c-2.822-0.029-5.17-0.175-7.043-0.441
		C194.484,149.48,199.027,149.612,203.514,150.157z M202.591,124.124c1.58,0,2.194-0.077,1.845-0.23
		c-1.998-0.391-4.228-0.65-6.688-0.775c-1.299-0.07-3.367-0.105-6.204-0.105C195.038,123.6,198.721,123.97,202.591,124.124z
		 M208.166,107.795c-3.59-0.447-6.016-0.74-7.271-0.88c-4.809-0.419-9.574-0.678-14.297-0.776c7.657-0.251,16.93,0.252,27.815,1.51
		C213.253,108.011,211.171,108.061,208.166,107.795z M209.613,112.008c-0.098-0.154-0.321-0.231-0.672-0.231
		c-0.42,0-0.691-0.035-0.817-0.104c-0.362-0.098,0.134-0.147,1.489-0.147c1.229,0.028,2.248,0.077,3.06,0.147
		c-0.223,0.251-0.657,0.314-1.3,0.188C210.619,111.708,210.032,111.757,209.613,112.008z M207.496,109.745
		c0.796,0.084,1.313,0.098,1.551,0.042c-0.195,0.252-0.622,0.364-1.277,0.335c-0.896-0.098-1.412-0.133-1.553-0.104
		C206.455,109.766,206.882,109.674,207.496,109.745z M209.382,110.164c-0.041-0.28,0.231-0.405,0.817-0.377
		c0.392,0.028,0.476-0.021,0.252-0.146c-0.043-0.321,0.056-0.405,0.293-0.252c0.252,0.14,0.343,0.336,0.273,0.587l0.438-0.146
		c0.168,0.195-0.041,0.279-0.629,0.251C210.018,110.08,209.535,110.107,209.382,110.164z M31.948,128.965
		c0.056,0.364-0.203,0.58-0.775,0.65c-0.559,0.084-0.985-0.014-1.279-0.293C30.508,129.377,31.193,129.259,31.948,128.965z
		 M20.88,136.721c0.196-0.321,0.601-0.51,1.216-0.565c0.88-0.07,1.37-0.119,1.467-0.147c-0.196,0.322-0.601,0.496-1.215,0.524
		C21.607,136.532,21.118,136.595,20.88,136.721z M15.745,134.939c-1.411,0.098-2.298,0.174-2.662,0.23
		c3.466-1.16,8.021-2.013,13.667-2.557c8.342-0.811,13.128-1.313,14.358-1.509c-2.39,0.782-6.24,1.383-11.55,1.803
		c-5.366,0.419-9.097,0.95-11.193,1.593C17.723,134.695,16.849,134.842,15.745,134.939z M15.179,135.903
		c-0.88,0.266-1.306,0.189-1.278-0.23c0.196,0.126,0.524,0.126,0.985,0c0.224-0.042,0.594-0.14,1.111-0.293
		C16.486,135.408,16.213,135.583,15.179,135.903z M14.341,133.682l-0.377-1.362c0.964-0.35,1.509-0.091,1.635,0.775
		C15.5,133.291,15.081,133.486,14.341,133.682z M33.059,114.146c0.35-0.364,0.964-0.545,1.845-0.545c1.034,0,1.775-0.09,2.222-0.272
		c-0.126,0.419-0.643,0.628-1.551,0.628C34.316,113.916,33.478,113.979,33.059,114.146z M38.676,113.853
		c-0.964-0.168-1.174-0.293-0.629-0.377c1.523-0.195,2.313-0.314,2.369-0.356c-0.028,0.237-0.266,0.398-0.712,0.482
		C39.117,113.699,38.774,113.783,38.676,113.853z M25.597,114.921c0.643-0.447,1.593-0.706,2.851-0.775
		c1.649-0.098,2.669-0.196,3.061-0.294c-0.517,0.265-1.439,0.461-2.767,0.587C27.217,114.593,26.169,114.754,25.597,114.921z
		 M48.507,130.622c0.363,0.098,0.461,0.293,0.293,0.587c0.321-0.224,0.971-0.384,1.95-0.482c0.908-0.098,1.523-0.259,1.844-0.482
		c-0.293,0.098-1.139,0.112-2.536,0.042c-1.258-0.07-2.124,0.042-2.599,0.335C47.836,130.524,48.186,130.524,48.507,130.622z
		 M46.726,113.078c-2.264,0.027-3.787,0.139-4.569,0.335c1.006-0.448,2.529-0.706,4.569-0.776c2.264-0.097,3.73-0.244,4.402-0.44
		C50.065,112.755,48.598,113.049,46.726,113.078z M63.599,108.676c0.518-0.098,1.468-0.168,2.851-0.21
		c1.16-0.028,2.145-0.154,2.956-0.377c-1.621,0.028-3.997-0.007-7.127-0.105c-2.711-0.098-5.038-0.098-6.98,0
		c13.275-1.062,29.527-1.963,48.755-2.704c10.83-0.461,27.117-1.09,48.861-1.887c-0.069,0.154-0.503,0.245-1.301,0.272
		c-0.81,0.042-1.264,0.189-1.362,0.44c13.891-0.936,25.712-1.048,35.466-0.335c0.294-0.028,0.392-0.14,0.294-0.335
		c-0.127-0.196,0.033-0.308,0.481-0.336c0.14,0.224,0.419,0.336,0.838,0.336c0.224,0,0.53-0.036,0.923-0.105
		c1.83,0.069,4.527,0.23,8.092,0.481c3.715,0.266,6.428,0.433,8.133,0.503c7.504,0.224,17.201,0.189,29.094-0.104
		c6.65-0.168,16.615-0.413,29.89-0.734c-1.089,0.419-2.459,0.615-4.106,0.587c-2.362-0.028-3.948,0.007-4.76,0.105
		c1.58,0.573,4.618,0.846,9.118,0.817c5.521-0.069,8.847-0.035,9.978,0.105c-31.049,1.453-57.607,1.544-79.672,0.273
		c-16.477-0.895-36.688-0.615-60.641,0.838C113.115,107.459,89.856,108.284,63.599,108.676z M72.948,115.99
		c-1.356-0.097-4.235,0.029-8.636,0.378c-3.675,0.293-6.435,0.23-8.28-0.189c2.684-0.447,6.673-0.929,11.969-1.446
		c5.045-0.517,9.069-1.055,12.074-1.614c-0.754-0.125-2.033-0.154-3.836-0.084c-1.719,0.098-2.851,0.063-3.396-0.105
		c1.257-0.419,3.102-0.615,5.534-0.586c2.739,0.042,4.709-0.07,5.911-0.335c-1.425-0.224-2.899-0.286-4.423-0.188
		c-1.9,0.195-3.591,0.307-5.072,0.335c0.098-0.322,0.434-0.497,1.006-0.524c0.559-0.042,0.901,0.035,1.027,0.23
		c4.905-0.573,12.157-1.027,21.757-1.362c9.949-0.377,17.125-0.797,21.527-1.258c5.45-0.615,9.601-0.999,12.451-1.153
		c4.332-0.293,8.335-0.329,12.01-0.105c5.492,0.364,9.726,0.433,12.703,0.21c0.099,0.028,0.183,0.119,0.252,0.272
		c0.027,0.14,0.154,0.237,0.377,0.293c1.941,0.195,5.884,0.455,11.822,0.775c4.892,0.294,8.594,0.636,11.109,1.027
		c0.32-0.224,0.656-0.308,1.005-0.252c0.364,0.07,0.706-0.027,1.027-0.293c-0.168,0.266-0.069,0.461,0.294,0.586
		c0.294,0.098,0.629,0.098,1.006,0c0-0.153-0.063-0.251-0.188-0.293c0.979-0.027,2.725,0.105,5.239,0.398
		c-0.168,0.251-0.462,0.349-0.881,0.294c-0.545-0.07-1.013-0.042-1.403,0.084c2.947,0.167,7.812,0.586,14.588,1.257
		c6.4,0.615,11.396,1.006,14.988,1.173c3.031,0.154,8.167,0.091,15.405-0.188c6.692-0.238,11.899-0.21,15.614,0.083
		c-14.992,1.006-31.846,0.859-50.557-0.44c0.644,0.586,1.69,0.943,3.145,1.069c0.811,0.098,2.04,0.181,3.688,0.251
		c7.437,0.741,13.297,1.223,17.588,1.446c6.916,0.391,13.346,0.377,19.283-0.042c-1.41,0.349-3.976,0.545-7.691,0.587
		c-3.885,0.028-6.631,0.203-8.238,0.524c0.811,0.224,1.99,0.287,3.543,0.188c1.928-0.125,3.137-0.174,3.626-0.146
		c-2.515,0.335-5.743,0.531-9.685,0.587c-4.205,0-7.196,0.014-8.972,0.042c1.845,0.434,4.024,0.664,6.54,0.691
		c1.16,0,3.402-0.048,6.729-0.146l41-1.069c0.392-0.126,0.537-0.112,0.439,0.042c-0.126,0.196-0.314,0.28-0.564,0.251
		c-3.814,0.224-11.62,0.532-23.413,0.922c-9.53,0.294-16.757,0.699-21.675,1.216c0.644,0.377,1.552,0.566,2.727,0.566
		c0.669,0,1.718-0.063,3.143-0.189c-0.026,0.293-0.11,0.44-0.252,0.44c-0.223-0.028-0.432-0.028-0.627,0
		c0.098,0.293,0.404,0.377,0.922,0.251c0.586-0.14,0.943-0.161,1.068-0.063c-0.225-0.293-0.482-0.37-0.775-0.23
		c0.268-0.419,0.588-0.565,0.965-0.44c0.363,0.154,0.545,0.398,0.545,0.734c0.545,0,3.822-0.133,9.83-0.399
		c4.011-0.167,7.226-0.167,9.643,0c-1.453,0.099-5.184,0.259-11.191,0.483c-4.904,0.195-8.637,0.426-11.192,0.691
		c0,0.252,0.132,0.364,0.397,0.336c-1.69,0.321-3.683,0.496-5.976,0.524c-1.97,0.027-3.717-0.021-5.24-0.147
		c-0.098,0.223,0.021,0.321,0.357,0.293c0.446-0.098,0.768-0.083,0.964,0.042c-1.426,0-3.074-0.063-4.947-0.188
		c-2.138-0.154-4.045-0.252-5.722-0.294c1.97,0.586,5.022,0.943,9.159,1.069c4.234,0.125,7.337,0.447,9.307,0.964
		c3.104-0.419,7.126-0.628,12.073-0.628c6.01,0,9.872-0.049,11.593-0.147c1.732-0.125,5.218-0.287,10.458-0.482
		c4.36-0.153,8.017-0.377,10.964-0.67c0.027,0.293-0.204,0.468-0.691,0.524c-0.74,0.07-1.224,0.167-1.446,0.293
		c0,0.07,0.063,0.105,0.188,0.105c-1.385,0.251-3.662,0.426-6.834,0.524c-3.492,0.098-5.82,0.209-6.979,0.335
		c-0.099-0.028-0.16-0.105-0.188-0.231c-0.068-0.126-0.216-0.223-0.439-0.293c-4.975,0.391-11.94,0.712-20.897,0.964
		c-10.983,0.321-18.188,0.566-21.61,0.734c0.838,0.349,2.055,0.545,3.646,0.587c1.635,0.028,3.053-0.154,4.255-0.545
		c4.265,0.196,9.56,0.168,15.89-0.083c3.563-0.168,8.93-0.412,16.099-0.733c2.851-0.098,6.889-0.21,12.114-0.336
		c4.5-0.224,8.685-0.628,12.557-1.215c0.686-0.294,0.88-0.182,0.586,0.335c1.258-0.392,3.794-0.922,7.609-1.593
		c3.772-0.713,6.357-1.216,7.756-1.509c-4.85,1.229-8.518,2.138-11.006,2.725c-4.555,1.034-8.35,1.628-11.381,1.782
		c-0.363,0.028-3.5,0.077-9.412,0.146c-3.646,0.07-6.49,0.328-8.53,0.775c0-0.07,0.063-0.167,0.188-0.293
		c0.14-0.097,0.188-0.195,0.146-0.293c-0.572,0.237-0.957,0.398-1.151,0.482c-0.393,0.139-0.295,0.063,0.293-0.23
		c-0.393-0.126-1.119-0.126-2.18,0c-1.035,0.154-1.748,0.139-2.139-0.042c-1.328,0.573-2.93,0.831-4.801,0.775
		c-0.099,0-0.229-0.084-0.397-0.251l-0.229-0.294c-0.127,0-0.547,0.112-1.258,0.335c-0.462,0.167-0.672,0.07-0.63-0.293
		c-1.551,0.195-4.381,0.454-8.489,0.775c-3.354,0.293-6.183,0.65-8.488,1.069c4.43,0.238,10.634,0.21,18.613-0.083
		c9.181-0.293,15.272-0.426,18.276-0.398c0.099,0.042-0.258,0.154-1.067,0.335c-0.672,0.14-0.733,0.224-0.189,0.252
		c-16.614,1.034-35.066,1.712-55.357,2.033c0.266,0.266,0.832,0.377,1.698,0.335c0.839-0.028,1.37,0.119,1.593,0.44
		c0.614-0.223,1.391-0.287,2.327-0.188c0.517,0.027,1.265,0.09,2.243,0.188c0.057,0,1.09-0.098,3.102-0.293
		c1.09-0.098,1.817,0.014,2.181,0.335c0.42-0.377,0.79-0.489,1.11-0.335c0.321,0.125,0.615,0.063,0.881-0.189
		c0.125,0.349,0.72,0.51,1.781,0.482c1.327-0.069,2.139-0.056,2.432,0.042c0.099-0.028,0.244-0.154,0.44-0.377
		c0.153-0.196,0.328-0.307,0.523-0.335c0,0.056-0.063,0.154-0.188,0.294c-0.099,0.098-0.134,0.189-0.104,0.272
		c7.728-0.126,19.102-0.427,34.122-0.902c-3.004,0.419-7.432,0.706-13.287,0.86c-8.036,0.195-12.801,0.343-14.295,0.44
		c0.46,0.322,1.047,0.496,1.761,0.524c0.419,0,1.062-0.028,1.928-0.084c6.372-0.167,15.196-0.51,26.474-1.027
		c0.279,0,0.763-0.049,1.447-0.147c0.545-0.028,0.965,0.104,1.258,0.398c1.131-0.224,2.928-0.335,5.387-0.335
		c2.738,0.027,4.479-0.007,5.22-0.105c-3.676,0.866-9.034,1.334-16.077,1.404c-7.783,0.028-13.359,0.322-16.727,0.881
		c7.979,0.027,14.688-0.105,20.121-0.399c7.52-0.419,14.799-1.222,21.843-2.411c-5.353,1.509-12.298,2.46-20.836,2.851
		c-9.53,0.224-16.572,0.517-21.128,0.88c7.504,0.573,16.761,0.342,27.771-0.691c0.937-0.028,1.469-0.042,1.594-0.042
		c0.656,0.028,1.194,0.174,1.615,0.44c-4.893,0.475-12.879,0.895-23.959,1.258c-10.621,0.349-18.713,0.832-24.273,1.446
		c1.426,0.321,3.927,0.356,7.504,0.105c3.424-0.224,5.883-0.147,7.379,0.23c1.773-0.321,4.004-0.544,6.688-0.671
		c1.006-0.028,3.396-0.063,7.168-0.104c1.328-0.028,3.123-0.188,5.387-0.481c0.125,0,0.351,0.069,0.672,0.209
		c0.265,0.154,0.475,0.217,0.628,0.189c0.489-0.07,1.056-0.182,1.698-0.335c0.615-0.098,1.277-0.146,1.992-0.146
		c0.418,0,1.319-0.147,2.703-0.44c1.131-0.195,1.488-0.084,1.068,0.335c1.495-0.392,4.178-0.811,8.049-1.258
		c3.493-0.392,6.227-0.922,8.196-1.593c-1.522,0.992-3.738,1.719-6.646,2.18c-3.425,0.349-6.045,0.671-7.86,0.964
		c0.489,0.349,1.14,0.475,1.95,0.377c1.062-0.126,1.803-0.14,2.222-0.042c-1.804,0.349-4.144,0.608-7.021,0.776
		c-3.3,0.167-5.703,0.279-7.211,0.335c0.278-0.224,0.355-0.482,0.229-0.776c-1.427,0.168-4.332,0.314-8.72,0.44
		c-3.494,0.07-6.582,0.412-9.266,1.027c0.518-0.489,0.244-0.685-0.816-0.586c-1.034,0.097-1.453,0.384-1.258,0.859
		c4.01-0.028,9.969-0.006,17.879,0.063c7.07,0,13.213-0.279,18.424-0.838l-4.652,1.216c-2.066,0.195-5.023,0.377-8.865,0.544
		c-3.592,0.154-6.582,0.364-8.972,0.629c0.419-0.643,0.076-0.838-1.026-0.587c-1.287,0.447-2.062,0.691-2.328,0.734
		c-0.349,0.097-1.104,0.097-2.264,0c-1.104-0.098-1.642-0.182-1.613-0.252c-0.099,0.098-0.385,0.209-0.858,0.335
		c-1.077,0.238-2.739,0.384-4.989,0.44c-2.236,0.069-3.969,0.021-5.197-0.147c-2.166-0.251-6.33-0.09-12.494,0.483
		c-6.051,0.559-10.578,0.628-13.582,0.209c-0.293,0.126-0.356,0.3-0.188,0.524c0.127,0.196,0.028,0.307-0.293,0.335
		c-0.294,0-1.082-0.049-2.369-0.147c-0.937-0.098-1.745-0.098-2.432,0c0.545,0.224,1.385,0.356,2.516,0.398
		c1.397,0.028,2.271,0.077,2.621,0.147c1.942,0.81,5.338,1.083,10.187,0.817c5.842-0.322,9.67-0.371,11.486-0.147
		c-8.439,0.712-17.685,0.936-27.73,0.671c1.943,0.712,4.75,1.055,8.427,1.026c5.17,0,8.183,0.036,9.034,0.105
		c-5.883,0.322-10.299,0.545-13.247,0.671c-5.269,0.293-9.614,0.328-13.038,0.105c3.199,0.517,6.113,0.691,8.74,0.523
		c0.699,0.783,2.244,1.188,4.634,1.216c3.019,0.07,4.876,0.196,5.575,0.377c-0.42,0.335-0.385,0.531,0.104,0.587
		c-2.391,0.293-6.136,0.342-11.234,0.146c-5.072-0.154-8.775-0.104-11.109,0.147c0.027,0.35,0.271,0.523,0.734,0.523
		c0.475-0.027,0.732,0.141,0.774,0.503c0.056-0.336,0.489-0.503,1.3-0.503c0.881,0.042,1.411,0.273,1.594,0.693
		c0.334-0.392,1.047-0.539,2.138-0.441c1.006,0.098,1.831,0.308,2.474,0.63c0.614-0.252,1.327-0.378,2.139-0.378
		c0.936,0.028,1.601,0.266,1.99,0.712c6.581,0.224,12.233,0.245,16.957,0.063c-4.107,0.572-10.199,0.698-18.277,0.377
		c-8.076-0.321-13.875-0.238-17.396,0.252c0.223,0.418,1.182,0.496,2.872,0.23c1.774-0.293,2.899-0.244,3.374,0.147l-0.9-0.147
		c-0.238,0.196-0.691,0.308-1.363,0.335c-0.781-0.027-1.334-0.027-1.654,0c2.139,0.364,5.189,0.595,9.16,0.693
		c4.525,0.098,7.613,0.225,9.264,0.377c-6.945-0.027-12.179-0.007-15.699,0.063c-6.246,0.084-11.934,0.579-17.063,1.487
		c0.517,0.267,1.223,0.398,2.115,0.398c0.154,0,0.365-0.007,0.629-0.021c-4.106,0.405-9.207,0.859-15.301,1.362
		c-10.465,0.88-16.425,1.384-17.879,1.511c-2.333,0.223-7.057,0.418-14.169,0.586c-6.232,0.127-11.235,0.447-15.008,0.963
		c-13.639,1.875-27.94,2.007-42.907,0.398c0.978-0.193,2.452-0.216,4.422-0.063c2.292,0.236,3.871,0.32,4.737,0.252
		c-1.062-0.42-2.494-0.741-4.297-0.965c-0.042,0-1.677-0.146-4.905-0.439c-4.36-0.518-7.609-0.762-9.747-0.732
		c-2.711,0.168-4.73,0.25-6.058,0.25c-2.292,0.027-4.164-0.301-5.617-0.984c0.545,0,1.32,0.021,2.327,0.063
		c0.908,0,1.718-0.048,2.432-0.146c-0.392-0.196-1.027-0.294-1.908-0.294c-1.034,0-1.711-0.034-2.033-0.104
		c0.517-0.351,1.488-0.539,2.914-0.566c1.453-0.04,2.39-0.188,2.809-0.439c-0.251-0.224-0.622-0.335-1.111-0.335
		c-0.587,0.027-1.041,0.041-1.362,0.041c-0.196-0.265-0.161-0.426,0.104-0.481c0.322-0.097,0.448-0.23,0.377-0.397
		c-0.475-0.224-1.153-0.37-2.033-0.438c-0.838-0.084-1.433-0.226-1.782-0.42c1.286-0.42,2.788-0.699,4.506-0.84
		c2.292-0.152,4.081-0.363,5.366-0.628c-0.741-0.294-1.9-0.342-3.479-0.147c-2.096,0.295-3.375,0.441-3.836,0.441
		c-0.056,0.069-0.007,0.182,0.147,0.334c0.07,0.071-0.105,0.071-0.524,0c-0.489-0.125-0.412-0.265,0.231-0.418
		c0.489-0.168,1.055-0.287,1.698-0.357c-0.447-0.194-1.139-0.271-2.075-0.23c-1.202,0.029-1.964,0.029-2.285,0
		c-0.028-0.125,0.07-0.272,0.293-0.439c0.224-0.127,0.287-0.273,0.188-0.441c-0.251-0.194-0.733-0.223-1.446-0.083
		c0.81-0.392,2.229-0.608,4.255-0.65c2.012,0,3.417-0.21,4.213-0.629c-0.698-0.181-1.663-0.271-2.893-0.271
		c-1.397,0-2.431-0.021-3.102-0.063c0.028-0.251,0.203-0.349,0.524-0.293c0.392,0.098,0.65,0.084,0.775-0.042
		c-0.447-0.098-1.174-0.063-2.18,0.105c-0.964,0.126-1.74,0.091-2.327-0.105c0.713-0.293,1.879-0.468,3.5-0.524
		c1.831-0.14,3.123-0.287,3.877-0.44c-0.321-0.294-0.81-0.392-1.467-0.294c-0.377,0.028-0.992,0.175-1.845,0.44
		c-0.517,0-1.341-0.112-2.473-0.335c-1.286-0.293-2.124-0.461-2.516-0.503c-0.028,0-0.384,0.083-1.069,0.251
		c-0.377,0.098-0.503-0.014-0.377-0.335c-0.266,0.056-0.412,0.056-0.44,0c-0.028-0.028,0.021-0.077,0.146-0.146
		c-2.32-0.293-5.974-0.133-10.962,0.482c-5.715,0.685-9.656,1.006-11.822,0.964c-0.713-0.056-1.307-0.105-1.782-0.147
		c-0.88-0.028-1.628,0.07-2.243,0.293c1.034-0.573,2.376-0.859,4.025-0.859c1.816,0,3.06-0.168,3.73-0.503
		c0.657,0.266,1.418,0.349,2.285,0.251c0.908-0.126,1.362-0.447,1.362-0.964c-1.328-0.167-2.977-0.119-4.947,0.147
		c-2.264,0.349-4.045,0.573-5.345,0.67c2.166-0.586,5.883-1.299,11.151-2.138c4.849-0.741,8.391-1.481,10.627-2.222
		c-0.419,0-2.697,0.083-6.833,0.251c-2.683,0.084-4.723-0.049-6.121-0.398c2.432-0.685,5.555-1.188,9.37-1.509
		c2.096-0.196,5.212-0.468,9.349-0.818c-2.459-0.168-5.29-0.154-8.489,0.042c-3.843,0.363-6.833,0.622-8.971,0.776
		c2.85-0.867,6.135-1.593,9.852-2.18c1.999-0.294,5.422-0.713,10.271-1.258c-3.228-0.321-7.155-0.287-11.78,0.105
		c-5.422,0.573-9.495,0.992-12.22,1.258c0-0.098,0.146-0.259,0.44-0.483c0.196-0.195,0.245-0.307,0.147-0.335
		c2.432-0.461,5.876-0.901,10.334-1.32c5.589-0.545,8.915-0.88,9.977-1.006c-0.321-0.419-0.853-0.65-1.593-0.692
		c-0.811,0.07-1.363,0.105-1.656,0.105c-1.677,0.293-2.906,0.468-3.689,0.524c-0.056,0-0.265-0.063-0.629-0.188
		c-0.321-0.154-0.545-0.217-0.67-0.189c-8.524,0.937-14.875,1.74-19.054,2.411c0.042-0.029,0.042-0.056,0-0.084
		c-0.028-0.07-0.091-0.119-0.188-0.146c3.297-1.202,7.902-2.026,13.813-2.474c7.854-0.615,12.702-1.083,14.547-1.404
		c-0.839-0.098-1.426-0.161-1.761-0.188c-0.517-0.07-1.125-0.007-1.823,0.188c0.321-0.364,0.915-0.608,1.781-0.734
		c0.489-0.098,1.153-0.195,1.991-0.293c-0.167-0.28-0.426-0.378-0.775-0.294c1.062-0.321,2.432-0.545,4.108-0.671
		c2.683-0.153,4.094-0.251,4.234-0.293c-0.069-0.419-0.377-0.594-0.922-0.524c-0.615,0.028-0.957-0.119-1.027-0.44
		c0.979,0.125,1.838,0.063,2.579-0.188c-0.363-0.462-1.014-0.692-1.95-0.692c-1.383-0.027-2.159-0.056-2.327-0.083
		c0.88-0.322,2.026-0.517,3.438-0.587c1.718-0.07,2.962-0.182,3.73-0.335c-6.358-0.615-14.561-0.419-24.608,0.587
		c-11.794,1.453-20.619,2.501-26.474,3.144c0.293-0.517,0.762-0.859,1.405-1.027c0.586-0.126,1.173-0.056,1.76,0.209
		c11.039-2.585,26.159-4.688,45.36-6.31c-3.466-0.293-7.49-0.279-12.074,0.042c-2.809,0.224-6.784,0.664-11.927,1.32
		c-1.286,0.154-4.29,0.343-9.013,0.566c-3.577,0.167-6.631,0.544-9.16,1.131c11.403-2.878,25.831-4.87,43.285-5.974
		c-2.194-0.223-4.039-0.3-5.534-0.23c2.04-0.391,5.289-0.747,9.747-1.069c4.304-0.293,7.308-0.636,9.013-1.027
		c-1.803-0.349-4.108-0.412-6.917-0.188c-4.556,0.35-6.903,0.524-7.043,0.524c-3.06,0.07-7.099,0.266-12.116,0.587
		c-6.456,0.419-10.732,0.678-12.828,0.776c4.835-0.671,12.199-1.265,22.093-1.782C61.069,117.493,68.099,116.829,72.948,115.99z"/>
</g>
</svg>
