<?xml version="1.0" encoding="utf-8"?>
<!-- Generator: Adobe Illustrator 16.0.0, SVG Export Plug-In . SVG Version: 6.00 Build 0)  -->
<!DOCTYPE svg PUBLIC "-//W3C//DTD SVG 1.1//EN" "http://www.w3.org/Graphics/SVG/1.1/DTD/svg11.dtd">
<svg version="1.1" id="Layer_1" xmlns="http://www.w3.org/2000/svg" xmlns:xlink="http://www.w3.org/1999/xlink" x="0px" y="0px"
	 width="300px" height="300px" viewBox="0 0 300 300" enable-background="new 0 0 300 300" xml:space="preserve">
<g>
	<path fill="#F89520" d="M217.65,170.8l3.75-8.3C220.033,166.333,218.783,169.1,217.65,170.8z M220.9,192
		c0.199,1.066,0.315,1.9,0.35,2.5c-0.268-0.3-0.434-0.7-0.5-1.2C220.684,192.833,220.732,192.4,220.9,192z M227.7,230.75
		c-0.134-0.066-0.284-0.066-0.45,0c-0.1,0.033-0.2-0.018-0.3-0.15c0.1-0.231,0.267-0.332,0.5-0.3
		C227.717,230.3,227.8,230.45,227.7,230.75z M240.1,211.85c-1.699,0.435-3.133,0.617-4.3,0.551c2.567-0.866,5.366-1.334,8.4-1.399
		C243.4,211.066,242.033,211.35,240.1,211.85z M238.35,209.95c-1.6,0.399-2.832,0.667-3.699,0.8c2.834-1.133,5.301-1.684,7.399-1.65
		C241.217,209.268,239.982,209.55,238.35,209.95z M240,212.75c0.7-0.133,0.95-0.333,0.75-0.6c-0.033,0.1-0.133,0.133-0.3,0.1
		c-0.2,0-0.317,0.018-0.351,0.05L240,212.75z M238.85,207.15c0.367-0.135,0.885-0.435,1.551-0.9c0.566-0.333,1.066-0.45,1.5-0.35
		c-0.666,0.231-1.733,0.731-3.199,1.5c-1.366,0.699-2.352,1.133-2.95,1.3c0.233-0.435,0.7-0.767,1.399-1
		C237.518,207.566,238.084,207.383,238.85,207.15z M224.2,206.6c-0.233-0.533-0.616-0.865-1.15-1c-0.5,0.367-0.782,0.75-0.85,1.15
		c-0.101,0.467,0.167,0.833,0.8,1.1c0.066-0.133,0.166-0.148,0.3-0.05C223.768,207.367,224.066,206.967,224.2,206.6z M224.75,202.95
		c0.133-0.2,0.4-0.3,0.8-0.3C225.55,202.982,225.283,203.083,224.75,202.95z M224,195.75c-0.166-0.066-0.184-0.217-0.05-0.45
		c0.032,0.067,0.2,0.167,0.5,0.3c0.233,0.102,0.315,0.25,0.25,0.45c-0.167-0.1-0.25-0.217-0.25-0.35
		C224.316,195.8,224.166,195.816,224,195.75z M223.65,193.25c0.231,0.1,0.434,0.05,0.6-0.15c0.166-0.199,0.35-0.267,0.55-0.199
		c-0.1,0.134-0.3,0.399-0.6,0.801c-0.267,0.333-0.45,0.633-0.55,0.898c-0.234-0.199-0.352-0.565-0.352-1.1
		c0-0.566,0.25-0.783,0.75-0.65C223.982,192.982,223.85,193.117,223.65,193.25z M235.2,204c-0.667,0.167-1.116,0.316-1.351,0.45
		c1.065-0.8,1.967-1.15,2.699-1.05C236.283,203.633,235.834,203.833,235.2,204z M233.1,201.3c-0.365,0.101-0.633,0.117-0.8,0.05
		c-0.3,0.668-0.899,0.7-1.8,0.102c-1.268-0.833-1.95-1.268-2.05-1.301c0.065-0.133,0.2-0.25,0.399-0.351
		c-0.334-0.1-0.601-0.065-0.801,0.101c-0.232,0.166-0.199,0.268,0.102,0.301c-0.533,0.133-0.967,0.199-1.301,0.199
		c-0.066,0.166-0.051,0.367,0.051,0.601c-0.234-0.267-0.551-0.283-0.95-0.05c-0.4,0.232-0.5,0.467-0.3,0.699
		c0.166-0.199,0.467-0.366,0.898-0.5c0.434-0.101,0.733-0.101,0.9,0c-0.366,0.334-1.102,0.533-2.2,0.601s-1.834,0.283-2.2,0.649
		c0.602,0.134,0.852,0.334,0.75,0.601c-0.1-0.133-0.183-0.233-0.25-0.3c-0.134-0.102-0.283-0.102-0.449,0
		c0,0.365,0.065,0.783,0.199,1.25c0.801,0.033,1.268,0.083,1.4,0.148c0.466,0.102,0.732,0.385,0.8,0.852
		c0.399-0.167,1.017-0.352,1.851-0.551c0.666-0.133,1.084-0.268,1.25-0.399c-0.066-0.601,0.25-1,0.949-1.2
		c0.967-0.3,1.518-0.517,1.65-0.648c0.433,0.267,0.949,0.217,1.55-0.15c0.834-0.533,1.3-0.816,1.399-0.85
		C233.916,201.117,233.566,201.167,233.1,201.3z M259.6,204.5c-1.699,0.9-3.332,1.383-4.898,1.45
		C255.367,205.684,257,205.2,259.6,204.5z M246.5,202.4c1.334-0.733,3.334-1.852,6-3.352c-1.467,1.333-3.717,2.684-6.75,4.051
		c-3.633,1.633-6,2.816-7.1,3.551c0.1-0.334,0.398-0.668,0.898-1c0.467-0.367,0.717-0.617,0.75-0.75
		C242,204.566,244.066,203.732,246.5,202.4z M254,206.5c-0.732,0.133-1.133,0.217-1.2,0.25c-0.032-0.434,0.601-0.7,1.9-0.8
		C254.732,206.25,254.5,206.434,254,206.5z M245.85,205.35c0.334-0.133,0.816-0.3,1.45-0.5l-2.399,1.25
		C244.967,205.833,245.283,205.583,245.85,205.35z M241.35,203c0.301-0.667,0.967-1.333,2-2c1.566-1,2.4-1.55,2.5-1.65
		c-0.3,0.5-1,1.102-2.1,1.801C242.55,201.883,241.75,202.5,241.35,203z M243,202.9c-0.166,0.166-0.367,0.231-0.6,0.199
		c0.199-0.434,0.55-0.649,1.05-0.649C243.283,202.684,243.133,202.833,243,202.9z M257.4,194.65c0.565-0.301,0.898-0.5,1-0.602
		c-0.033,0.167-0.269,0.385-0.7,0.65c-0.601,0.365-0.935,0.566-1,0.6C256.732,195.1,256.967,194.883,257.4,194.65z M287.35,229.3
		c-0.5-0.366-0.565-0.782-0.199-1.25l0.899,0.2c-0.032,0.268-0.116,0.6-0.25,1C287.533,229.184,287.383,229.2,287.35,229.3z
		 M162.55,229.7c0.2-0.101,0.483-0.017,0.851,0.25c0.399,0.3,0.718,0.467,0.949,0.5c-0.398,0.1-0.766,0.017-1.1-0.25
		C162.85,229.867,162.617,229.7,162.55,229.7z M161.2,225c-0.034,0.232-0.2,0.283-0.5,0.15c-0.034,0.166,0,0.332,0.1,0.5
		c0.134,0.199,0.218,0.217,0.25,0.05c-0.1,0-0.134-0.05-0.1-0.15c0.134-0.065,0.233-0.133,0.3-0.2
		C161.383,225.217,161.367,225.1,161.2,225z M166.95,218.4c-0.101-0.269-0.218-0.352-0.351-0.25
		c0.166,0.398,0.149,0.699-0.051,0.898c0-0.066-0.115-0.167-0.35-0.3c-0.233-0.101-0.352-0.101-0.352,0
		c0.2,0.101,0.25,0.217,0.15,0.351c-0.066,0.166-0.018,0.282,0.15,0.351c0.467-0.3,0.731-0.55,0.799-0.75
		c0.033,0.5,0.101,0.616,0.201,0.35C167.084,218.783,167.018,218.566,166.95,218.4z M174.35,228.2
		c-0.133-0.067-0.1-0.218,0.102-0.45c0.199-0.2,0.398-0.25,0.6-0.15L174.35,228.2z M173.85,226.2c-0.033-0.033-0.065-0.017-0.1,0.05
		c0.133,0,0.166,0.05,0.1,0.15c-0.166-0.102-0.315-0.033-0.449,0.199c-0.133,0.232-0.133,0.334,0,0.301
		c0.033-0.135,0.166-0.135,0.399,0c0.167,0.1,0.2,0.082,0.101-0.051c0-0.033-0.065-0.117-0.199-0.25
		c-0.067-0.066,0.017-0.066,0.25,0l0.05-0.301C173.967,226.3,173.916,226.268,173.85,226.2z M152,229.95
		c0.467-0.167,1-0.134,1.6,0.1c-0.365,0.767-1.133,1.05-2.3,0.851C151.268,230.467,151.5,230.15,152,229.95z M212.65,235.1
		c0.467,0.102,0.684,0.283,0.648,0.551c0.102,0.033,0.167-0.051,0.2-0.25c0.065-0.199,0.185-0.232,0.351-0.101
		c0.101,0.167,0.084,0.267-0.051,0.3c-0.167,0.033-0.199,0.117-0.1,0.25c0.267,0.033,0.433-0.017,0.5-0.148
		c0.134,0.066,0.115,0.148-0.051,0.25c-0.032,0.066,0.051,0.148,0.25,0.25c0,0.066-0.065,0.1-0.199,0.1
		c-0.102-0.033-0.15,0-0.15,0.102c-0.1-0.033-0.134-0.067-0.1-0.102c0.033-0.033,0.066-0.05,0.1-0.05
		c-0.865-0.533-1.583-0.899-2.148-1.101C211.9,235.018,212.15,235,212.65,235.1z M213.2,234.7c-0.134-0.033-0.2-0.2-0.2-0.5
		c0-0.267-0.117-0.4-0.35-0.4c0.166-0.167,0.35-0.2,0.55-0.1c0.233,0.133,0.315,0.333,0.25,0.6c-0.2-0.065-0.284-0.05-0.25,0.05
		C213.268,234.482,213.268,234.6,213.2,234.7z M212.25,233.95c0.066,0.1,0.066,0.217,0,0.35c-0.2,0.067-0.467-0.032-0.8-0.3
		c-0.4-0.3-0.685-0.482-0.851-0.55c-0.033-0.101,0.199-0.134,0.699-0.101c0.5,0,0.817,0.066,0.95,0.199
		C212.217,233.65,212.217,233.783,212.25,233.95z M210.8,235.45c-0.366-0.167-0.565-0.25-0.6-0.25c-0.134-0.101,0-0.134,0.399-0.101
		c0.399,0,0.616,0.066,0.649,0.199C211.15,235.5,211,235.55,210.8,235.45z M201.95,228.95c0.032,0.133-0.134,0.116-0.5-0.05
		c0.065-0.334,0.25-0.45,0.55-0.352C201.967,228.583,201.95,228.717,201.95,228.95z M191.7,233.8c-0.134-0.032-0.218,0-0.25,0.101
		c-0.034,0-0.083-0.101-0.15-0.301c-0.032-0.133-0.149-0.183-0.35-0.148c0.167-0.067,0.35-0.067,0.55,0
		c0.133,0.066,0.283,0.148,0.45,0.25C191.916,233.768,191.834,233.8,191.7,233.8z M191.9,232.6c0.166,0.033,0.35,0.135,0.55,0.301
		c-0.034,0.166-0.134,0.351-0.3,0.551c-0.102,0.3-0.15,0.283-0.15-0.051c0-0.268,0.084-0.351,0.25-0.25
		c0.033-0.101-0.05-0.184-0.25-0.25C191.8,232.867,191.768,232.768,191.9,232.6z M193.1,230.75c-0.266,0-0.398-0.018-0.398-0.05
		c0.064-0.099,0.099-0.199,0.1-0.3c0.002,0.065,0.053,0.1,0.15,0.1C193.117,230.467,193.166,230.55,193.1,230.75z M181.35,231.35
		c0.102,0.033,0.185-0.1,0.25-0.398c0.269,0.1,0.316,0.316,0.15,0.648c-0.166,0.033-0.3-0.017-0.4-0.148
		c-0.133-0.167-0.217-0.268-0.25-0.301c0.066-0.101,0.135-0.116,0.2-0.051C181.4,231.167,181.416,231.25,181.35,231.35z
		 M190.2,233.3c0.3,0.468,0.366,0.685,0.2,0.65c-0.168-0.067-0.334-0.267-0.5-0.601C190.066,233.417,190.166,233.4,190.2,233.3z
		 M186.85,231.45c0.102-0.067,0.352-0.067,0.75,0c0.4,0.1,0.635,0.149,0.7,0.149c0.167,0.301-0.267,0.449-1.3,0.449
		c0-0.066-0.05-0.148-0.15-0.25C186.783,231.7,186.783,231.583,186.85,231.45z M189.55,226.9c-0.134-0.135-0.065-0.185,0.2-0.15
		c-0.133-0.167-0.25-0.283-0.35-0.35c-0.033,0.065-0.15,0.217-0.352,0.449c-0.134,0.133-0.148,0.301-0.05,0.5
		c0.101,0.032,0.25,0.032,0.45,0c0.167-0.033,0.316-0.018,0.449,0.051c0.033-0.135,0.117-0.269,0.25-0.4
		C189.883,227.066,189.684,227.033,189.55,226.9z M191.85,228.95c-0.065,0.167-0.3,0.267-0.699,0.3c0.066,0.2,0.066,0.4,0,0.6
		c-0.032,0.102-0.116,0.283-0.25,0.551c0.101,0.066,0.232,0.134,0.399,0.199c0.134,0.067,0.218,0.15,0.25,0.25
		c-0.065,0-0.1,0.019-0.1,0.051c-0.034,0.033-0.017,0.066,0.05,0.101c0-0.065,0.117-0.117,0.35-0.149
		c0.168-0.033,0.185-0.101,0.051-0.199c-0.032,0.133-0.149,0.133-0.351,0c-0.167-0.102-0.282-0.217-0.35-0.352
		c0.065-0.033,0.134-0.183,0.2-0.449c0.033-0.268,0.148-0.434,0.35-0.5c-0.033,0.166,0.066,0.282,0.3,0.351
		c0.3,0.133,0.5,0.25,0.601,0.35c0.101-0.1,0.185-0.2,0.25-0.3c0.066-0.167,0.033-0.268-0.101-0.3
		c-0.065,0.3-0.149,0.433-0.25,0.399c0.101-0.166,0.083-0.268-0.05-0.301c-0.2-0.033-0.35-0.066-0.45-0.1
		C192.018,228.95,191.95,228.783,191.85,228.95z M190.85,228.45c0.2-0.033,0.283-0.134,0.25-0.3
		c-0.398-0.233-0.615-0.385-0.648-0.45c0.1,0.032,0.183,0.032,0.25,0c0.066-0.033,0.05-0.067-0.051-0.101
		c-0.065,0.032-0.233,0.101-0.5,0.199c-0.233,0.102-0.268,0.233-0.101,0.4c0.332-0.266,0.499-0.116,0.5,0.449l-0.45-0.101
		c0.168,0.2-0.133,0.435-0.898,0.7c0.066,0,0.183,0.066,0.35,0.2c0.167,0.133,0.284,0.116,0.352-0.05
		c-0.168-0.102-0.25-0.168-0.25-0.2c0.199,0.065,0.365,0,0.5-0.2c-0.102,0.167-0.033,0.283,0.199,0.35
		c0.199,0.102,0.282,0.217,0.25,0.352c-0.066-0.102-0.149-0.135-0.25-0.102c-0.101,0-0.199-0.05-0.301-0.148
		c-0.134,0.167-0.033,0.3,0.301,0.398c0.334,0.102,0.518,0.084,0.551-0.05c0-0.133-0.051-0.233-0.15-0.3
		c-0.166-0.066-0.268-0.217-0.3-0.45c0.167,0.101,0.366,0.05,0.601-0.149c0.1-0.066,0.1-0.018,0,0.149
		c0.133,0.101,0.266,0.067,0.399-0.1c0.133-0.167,0.134-0.25,0-0.25c-0.167,0.032-0.468,0.017-0.899-0.05
		C190.553,228.518,190.652,228.45,190.85,228.45z M193.3,226.7c0-0.2-0.032-0.317-0.1-0.351c0.032,0.199-0.017,0.316-0.15,0.351
		c-0.167,0.065-0.25,0.116-0.25,0.149c0.101,0.166,0.167,0.217,0.2,0.149c0.1-0.101,0.184-0.149,0.25-0.149l-0.1,0.399
		c-0.234-0.033-0.435-0.033-0.602,0c-0.033-0.133-0.017-0.267,0.051-0.399c0.065-0.134,0.051-0.25-0.051-0.351
		c-0.199-0.033-0.384,0.05-0.55,0.25c-0.233,0.3-0.416,0.483-0.55,0.55c0.199,0.067,0.283,0.135,0.25,0.2
		c-0.135,0.133-0.2,0.233-0.2,0.3c0.399,0.033,0.649,0.067,0.75,0.102c0.101,0.065,0.217,0.217,0.351,0.449
		c0.065-0.101,0.116-0.166,0.149-0.199l-0.101,0.05c-0.101-0.033-0.149-0.134-0.149-0.3c0.033-0.166,0.033-0.267,0-0.301
		c0.166,0.166,0.267,0.199,0.3,0.101c0.034-0.2,0.083-0.317,0.15-0.351c0,0.232,0.183,0.383,0.55,0.449
		c0.101-0.167,0.166-0.25,0.2-0.25c-0.034,0.2,0.033,0.217,0.199,0.051c0.066-0.066,0.051-0.066-0.051,0
		c-0.133-0.101-0.231-0.25-0.3-0.449C193.45,226.917,193.367,226.768,193.3,226.7z M218.4,206l-0.102,0.45l0.551,0.149
		C218.982,206.268,218.834,206.066,218.4,206z M212.35,195.3c-0.065-0.532-0.231-0.917-0.5-1.149
		c-0.398,0.434-0.449,0.968-0.148,1.601c0.167,0.3,0.333,0.601,0.5,0.899c0.066-0.101,0.167-0.133,0.3-0.101
		C212.467,196.45,212.416,196.033,212.35,195.3z M213.15,191.05c-0.033,0.033-0.168,0.017-0.4-0.05
		c-0.166-0.033-0.232,0.05-0.2,0.25c0,0.1,0.116,0.184,0.351,0.25c0.232,0.066,0.267,0.217,0.101,0.45
		c-0.399-0.167-0.75-0.45-1.05-0.851c0.1,0.601,0.148,1.268,0.148,2c0.168,0.066,0.316,0.066,0.45,0
		c-0.2,0.133-0.233,0.316-0.1,0.551c0.167,0.133,0.384,0.133,0.649,0c0.233-0.135,0.399-0.084,0.5,0.148
		c-0.232,0.5-0.316,1.018-0.25,1.551c0,0.101,0.101,0.601,0.301,1.5c0.533,0.166,0.934,0.032,1.199-0.399
		c0.101-0.2,0.268-0.7,0.5-1.5c-0.367-0.033-0.584-0.185-0.649-0.45c0.3-0.1,0.399-0.333,0.3-0.7
		c-0.066-0.333-0.184-0.517-0.35-0.55c0.1-0.167,0.231-0.482,0.398-0.95c-0.167-0.1-0.283-0.065-0.35,0.101
		c-0.102,0.166-0.217,0.232-0.352,0.199c0.102-0.332-0.082-0.633-0.55-0.898C213.334,191.4,213.117,191.184,213.15,191.05z
		 M211.7,188.7c0.1-0.5,0.267-0.7,0.5-0.601c0.267,0.166,0.282,0.399,0.05,0.699c-0.367,0.4-0.55,0.65-0.55,0.75
		C211.6,189.417,211.6,189.133,211.7,188.7z M213.45,188.1c0.2,0.067,0.3,0.25,0.3,0.551c0.033,0.367,0.084,0.584,0.15,0.649
		c-0.066,0.033-0.168-0.1-0.301-0.399C213.467,188.566,213.416,188.3,213.45,188.1z M206.85,188.85c0.533,0,0.717,0.301,0.551,0.9
		c0.566,0.9,1.416,2.268,2.551,4.1c-0.434-0.065-0.817-0.5-1.15-1.3c-0.398-0.866-0.816-1.383-1.25-1.55
		c0.034-0.3-0.083-0.65-0.35-1.05C206.9,189.55,206.783,189.184,206.85,188.85z M205.25,187.85c-0.1-0.133-0.217-0.398-0.35-0.8
		c-0.102-0.433-0.084-0.6,0.05-0.5c0,0.167,0.065,0.384,0.2,0.65C205.283,187.434,205.316,187.65,205.25,187.85z M207.85,184.5
		c-0.533-0.268-0.815-0.967-0.85-2.1c0.1-1.2,0.117-1.983,0.05-2.352C208.05,181.917,208.316,183.4,207.85,184.5z M201.7,169.05
		c0.065,0.3,0,0.851-0.2,1.65c-0.533-0.767-0.6-1.351-0.2-1.75L201.7,169.05z M214.1,178.95c1.234-2.435,2.15-4.4,2.75-5.9
		c-0.365,1.067-0.898,2.567-1.6,4.5c-1,2.8-1.584,5.101-1.75,6.9c0.166,0.065,0.3,0.05,0.4-0.05c0.033-0.033,0.082-0.102,0.148-0.2
		c-0.1,0.366-0.1,0.983,0,1.85c0.135,0.9-0.05,1.483-0.55,1.75c-0.334-0.065-0.467-0.399-0.399-1
		c-0.134-0.065-0.232-0.05-0.301,0.05c-0.066,0.168-0.134,0.269-0.199,0.301C212.1,185.117,212.6,182.383,214.1,178.95z
		 M218.6,177.1c-0.565-0.398-0.8-0.916-0.699-1.55C218.434,175.684,218.666,176.2,218.6,177.1z M214,178.2
		c0.232-0.468,0.383-0.8,0.45-1c0.032,0.2-0.017,0.5-0.15,0.899l-0.45,1.101C213.75,178.967,213.8,178.633,214,178.2z M195.2,170.2
		c0,0.133-0.05,0.333-0.15,0.6c-0.2-0.3-0.2-0.7,0-1.2C195.184,169.8,195.232,170,195.2,170.2z M194.9,168.85
		c-0.066,0.269-0.051,0.418,0.05,0.45c-0.034,0.101-0.233,0.101-0.601,0c0,0.067,0.084,0.218,0.25,0.45
		c0.101,0.133,0.084,0.316-0.051,0.55c-0.267-0.267-0.466-0.366-0.6-0.3c-0.233,0.167-0.45,0.316-0.65,0.45
		c-0.1-0.067-0.115-0.134-0.05-0.2s0.166-0.083,0.3-0.05l-0.148-0.25c-0.066-0.067-0.051-0.101,0.05-0.101
		c-0.134-0.066-0.233-0.117-0.3-0.149c-0.066-0.101-0.019-0.267,0.148-0.5c-0.232,0.065-0.316,0.267-0.25,0.6
		c0.067,0.4-0.017,0.685-0.25,0.851c-0.1-0.434-0.232-0.732-0.398-0.899c0.1-0.133,0.184-0.101,0.25,0.101
		c0.1,0.232,0.184,0.351,0.25,0.351c0-0.634-0.217-1.2-0.65-1.7c0.066-0.133,0.15-0.15,0.25-0.05c0.1,0.167,0.2,0.233,0.3,0.2
		c-0.233,0.3-0.149,0.416,0.25,0.35c0.134,0.033,0.267-0.033,0.4-0.2c0.134-0.2,0.282-0.267,0.45-0.2
		c0.133,0.233,0.033,0.418-0.301,0.551c0.032,0,0.166-0.051,0.399-0.149c0.101-0.065,0.117,0.017,0.05,0.25
		c0.102,0,0.233-0.083,0.4-0.25C194.617,168.867,194.768,168.816,194.9,168.85z M199.3,166.35c0.333-0.267,0.634-0.05,0.9,0.65
		c-0.134,0.133-0.3,0.1-0.5-0.1C199.5,166.732,199.367,166.55,199.3,166.35z M188.15,152.75c0.565,0.934,0.832,1.717,0.8,2.35
		c-0.468-0.433-0.866-1.115-1.2-2.05c-0.467-1.366-0.732-2.116-0.8-2.25c0.134-0.167,0.3-0.233,0.5-0.2
		C187.383,151.133,187.617,151.85,188.15,152.75z M195.65,148.45c-0.033,0.5-0.033,0.8,0,0.899c-0.135,0.033-0.2-0.55-0.2-1.75
		C195.617,147.767,195.684,148.05,195.65,148.45z M195.6,145.7c-0.133,0.267-0.148,0.55-0.05,0.85c-0.167-0.233-0.267-0.8-0.3-1.7
		c-0.066-1.133-0.018-0.982,0.15,0.45C195.4,145.467,195.467,145.6,195.6,145.7z M197.35,144.7c-0.231-0.067-0.332-0.25-0.3-0.55
		v-0.75C197.35,143.733,197.45,144.167,197.35,144.7z M201.55,157.3c-0.2-0.633-0.35-1.683-0.45-3.149
		c-0.133-1.467-0.3-2.532-0.5-3.199c0.367,0.533,0.602,1.5,0.7,2.898C201.4,154.617,201.482,155.768,201.55,157.3z M219.55,163.05
		c-0.3,0.833-0.716,2-1.25,3.5c-0.065,0.2-0.282,0.5-0.649,0.9c-0.301,0.667-0.351,0.866-0.149,0.6
		c-0.065,0.101-0.2,0.483-0.399,1.15c-0.134,0.6-0.384,0.983-0.75,1.149c0.301-1.134,0.949-2.851,1.949-5.149
		c1.102-2.533,1.852-4.4,2.25-5.601C220.383,160.434,220.05,161.583,219.55,163.05z M205.8,158.75c0.034-0.367,0.267-0.467,0.7-0.3
		l-0.1,0.399L205.8,158.75z M201.7,160.45c-0.067,0.366-0.05,0.6,0.05,0.7c-0.2,0.133-0.3,0.017-0.3-0.352
		c0-0.333,0.05-0.648,0.149-0.949C201.732,159.917,201.768,160.117,201.7,160.45z M162.55,177.65c0.267-0.102,0.4-0.301,0.4-0.602
		c-0.4-0.033-0.733,0.102-1,0.4C162.084,177.65,162.283,177.717,162.55,177.65z M164.9,177.2l-0.551-0.101
		c0.032,0.133,0.018,0.268-0.051,0.399c-0.033,0.065-0.017,0.133,0.051,0.2c0.032-0.102,0.184-0.117,0.449-0.051L164.9,177.2z
		 M173.95,176.9c-0.333-0.135-0.784-0.519-1.351-1.15c-0.666-0.768-1.117-1.25-1.351-1.45c0.3,0.033,0.75,0.367,1.351,1
		C173.133,175.833,173.584,176.367,173.95,176.9z M173.75,171c0.4,0.7,0.633,1.083,0.7,1.15c-0.101,0.033-0.267-0.117-0.5-0.45
		c-0.233-0.367-0.483-0.567-0.75-0.601c0.1-0.301,0.017-0.584-0.25-0.851C173.184,170.283,173.45,170.533,173.75,171z
		 M147.25,170.05c-0.367-0.532-0.9-1.083-1.6-1.649c-0.767-0.601-1.367-0.916-1.8-0.949
		C144.083,168.217,145.217,169.083,147.25,170.05z M155.35,170.4c0.734,0.033,1.301,0.481,1.7,1.35
		c-0.366-0.033-0.483-0.217-0.35-0.55c-0.2,0.1-0.417,0.017-0.65-0.25C155.717,170.617,155.482,170.434,155.35,170.4z M153.25,150.7
		c2.166,2.532,3.717,4.833,4.65,6.899C155.867,154.533,154.316,152.232,153.25,150.7z M151.5,161.2c1.166,1.1,2.084,2.1,2.75,3
		c-1.268-1.067-3.217-2.983-5.85-5.75C149.1,159.083,150.133,160,151.5,161.2z M159.75,160.5c-0.533-0.867-0.85-1.367-0.95-1.5
		c0.2,0,0.517,0.35,0.95,1.05c0.533,0.867,0.883,1.384,1.05,1.55C160.467,161.5,160.117,161.133,159.75,160.5z M152.8,150
		c0,0.033-0.065,0-0.2-0.1c-0.365-0.233-0.481-0.45-0.35-0.65C152.482,149.316,152.666,149.566,152.8,150z M157.45,147.15
		c-0.468-0.2-1-0.733-1.601-1.601c-0.699-1-1.218-1.633-1.551-1.899c0.434,0.232,0.967,0.75,1.602,1.55
		C156.732,146.3,157.25,146.95,157.45,147.15z M172,166.15c0.066,0.166,0.05,0.332-0.05,0.5c-0.3-0.033-0.435-0.25-0.4-0.65
		c0-0.4,0.167-0.533,0.5-0.4C171.982,165.732,171.967,165.917,172,166.15z M166.3,154.25c-1.1-1.367-1.683-2.583-1.75-3.65
		c0.5,0.4,0.884,0.95,1.15,1.65C165.7,152.283,165.9,152.95,166.3,154.25z M167.35,152.35c0-0.166,0.117-0.25,0.352-0.25
		c0.134,0.233,1,1.435,2.6,3.602c1.034,1.467,1.733,2.767,2.102,3.898c-0.5-0.666-1.334-1.883-2.5-3.648
		C168.9,154.383,168.05,153.184,167.35,152.35z M164.45,137.35c-0.534-0.467-1.101-1.283-1.7-2.449
		c-0.633-1.334-1.117-2.301-1.45-2.9c0.2-0.066,0.435,0.117,0.7,0.55c0.166,0.233,0.367,0.617,0.6,1.15l0.95,2.35
		C163.783,136.184,164.084,136.617,164.45,137.35z M151.65,129c-0.168,0-0.301-0.05-0.4-0.15s-0.2-0.149-0.3-0.149
		c0.032-0.367,0.2-0.483,0.5-0.351C151.783,128.45,151.85,128.667,151.65,129z M159.65,113.5c0.1-0.133,0.082-0.233-0.051-0.3
		c0.065-0.233,0.334-0.283,0.801-0.15C160.367,113.517,160.117,113.667,159.65,113.5z M146.25,105.65
		c-1.267-2.268-2.2-3.967-2.8-5.101c-1.1-2.033-1.9-3.783-2.4-5.25c0.5,0.533,0.983,1.283,1.45,2.25c0.233,0.533,0.6,1.351,1.1,2.45
		c0.566,1.033,1.433,2.55,2.6,4.55c0.033,0.101,0.367,0.884,1,2.351c0.367,0.933,0.75,1.649,1.15,2.149
		c0.4,0.533,0.433,0.634,0.1,0.3c0.433,0.7,1.667,2.617,3.7,5.75c1.565,2.4,2.783,4.367,3.648,5.9c0.635,1.1,0.95,1.934,0.95,2.5
		c-0.267-0.1-0.533-0.383-0.8-0.85c-0.067-0.101-0.284-0.567-0.65-1.4l0.102,0.1l-0.15-0.199l0.05,0.1c-0.7-0.434-1.466-1.3-2.3-2.6
		c-0.633-1.033-1.45-2.634-2.45-4.801c-1.033-2.267-1.85-3.899-2.45-4.899C147.767,108.417,147.15,107.316,146.25,105.65z
		 M200.5,135.1c0.4,1.033,0.533,2.233,0.4,3.601C200.8,138.2,200.666,137,200.5,135.1z M211.95,140.8c0.167,0,0.3,0.05,0.399,0.15
		c0.101,0.133,0.199,0.2,0.301,0.2c-0.066,0.533-0.352,0.717-0.852,0.55c-0.1-0.134-0.115-0.3-0.05-0.5
		C211.783,141,211.85,140.867,211.95,140.8z M210.95,137.95c0.032-0.167,0.116-0.283,0.25-0.351c0.333-0.033,0.55,0.117,0.649,0.45
		c-0.066,0.233-0.199,0.4-0.399,0.5c-0.167,0.101-0.317,0.067-0.45-0.1C210.934,138.316,210.916,138.15,210.95,137.95z
		 M201.05,139.5c0,0.133-0.017,0.383-0.05,0.75c-0.1,0.066-0.166-0.1-0.2-0.5c-0.032-0.367-0.017-0.684,0.05-0.95
		C200.982,139.066,201.05,139.3,201.05,139.5z M181.25,130.05c-0.232-1.5-0.416-2.633-0.55-3.399c-0.767-1.834-1.75-4.567-2.95-8.2
		c-1.268-3.833-2.217-6.533-2.85-8.101c-0.135-0.267-0.234-0.482-0.301-0.649c-0.101-0.233-0.101-0.45,0-0.65
		c0.866,2.333,2.217,5.867,4.051,10.601c1.5,4.166,2.481,7.833,2.949,11c0.065,0,0.084-0.033,0.051-0.101
		c0-0.133,0.016-0.233,0.05-0.3c0.134,0.367,0.35,1.333,0.649,2.9C181.883,132.383,181.518,131.35,181.25,130.05z M182.75,124
		c0.033-0.066,0.084-0.184,0.15-0.35c-0.269,0-0.435,0.066-0.5,0.199c-0.2,0.033-0.185-0.017,0.05-0.149
		c0.3-0.2,0.466-0.317,0.5-0.351c0.167,0.2,0.267,0.483,0.3,0.851c0.066,0.366,0.05,0.616-0.05,0.75
		c-0.267-0.467-0.284-0.783-0.05-0.95H182.75z M182.65,122.85c-0.168-0.033-0.185-0.1-0.051-0.199
		c0.166-0.101,0.301-0.117,0.399-0.051c-0.065,0.167-0.065,0.367,0,0.601c-0.133-0.067-0.25-0.067-0.351,0
		c-0.166,0.033-0.301,0.033-0.399,0c0.033-0.067,0.149-0.117,0.351-0.15c0.166-0.033,0.233-0.149,0.199-0.35
		C182.7,122.667,182.65,122.717,182.65,122.85z M181.7,120.85c-0.134,0.167-0.2,0.283-0.2,0.351c0.232,0,0.416-0.15,0.55-0.45
		c0.2-0.434,0.317-0.667,0.351-0.7c-0.101,0.167,0,0.617,0.301,1.351c0.232,0.633,0.134,0.982-0.301,1.05
		c0.166-0.101,0.267-0.267,0.301-0.5c-0.268-0.067-0.434,0.017-0.5,0.25c-0.067,0.267-0.018,0.45,0.148,0.55
		c-0.398,0.233-0.565,0.5-0.5,0.8c0.168-0.066,0.269,0.05,0.301,0.351c0.033,0.399,0.117,0.633,0.25,0.699
		c-0.334-0.1-0.601-0.55-0.801-1.35c-0.199-0.733-0.25-1.316-0.148-1.75l0.1,0.25c0.034,0.066,0.083,0.05,0.15-0.05
		c0.134,0,0.115,0.083-0.051,0.25c-0.133,0.167-0.116,0.283,0.051,0.35c0.365-0.333,0.615-0.533,0.75-0.6
		c0.033-0.101-0.018-0.134-0.15-0.101c-0.199,0.101-0.35,0.101-0.449,0c0.133-0.133,0.301-0.199,0.5-0.199
		c-0.066-0.134-0.084-0.25-0.051-0.351c-0.533,0.134-0.884,0.317-1.05,0.55c-0.065-0.033-0.117-0.133-0.149-0.3
		c0-0.133-0.066-0.217-0.199-0.25c0.365,0,0.615-0.149,0.75-0.45C181.783,120.667,181.8,120.75,181.7,120.85z M199.15,124.55
		c-0.301-0.767-0.551-1.75-0.75-2.95c-0.234-1.399-0.418-2.449-0.551-3.149C198.35,119.883,198.783,121.917,199.15,124.55z
		 M199.75,127.3c0.066,0.5,0.2,1.733,0.4,3.7c0.133,1.6,0.283,2.816,0.449,3.65c-0.199-0.067-0.316-0.25-0.351-0.551
		c-0.033-0.366-0.065-0.633-0.101-0.8c-0.166-0.767-0.334-2.05-0.5-3.85c-0.233-1.9-0.416-3.233-0.551-4
		C199.367,125.316,199.584,125.934,199.75,127.3z M197.7,117.2c-0.134-0.167-0.233-0.417-0.3-0.75
		c-0.033-0.367-0.066-0.65-0.102-0.851C197.533,116.1,197.666,116.633,197.7,117.2z M189.35,101.4c0,0.133-0.1,0.25-0.3,0.35
		c-0.134,0.066-0.149,0.167-0.05,0.3c0.1,0.033,0.184-0.1,0.25-0.399c0.232,0.633,0.45,1.649,0.65,3.05
		c-0.135-0.134-0.217-0.351-0.25-0.65c-0.066-0.467-0.117-0.733-0.15-0.8c-0.133,0.066-0.166,0.25-0.1,0.55
		c0.1,0.367,0.148,0.583,0.148,0.65c-0.5-1.5-1-3.783-1.5-6.851c-0.6-3.967-1.017-6.467-1.25-7.5
		c0.434,1.233,0.866,3.101,1.301,5.601C188.6,98.367,189.018,100.267,189.35,101.4z M272.6,192.15
		c0.168-0.067,0.283-0.033,0.352,0.1c-0.233,0.6-0.7,0.9-1.4,0.9c0.268-0.367,0.434-0.685,0.5-0.95
		C272.25,192.3,272.434,192.283,272.6,192.15z M272.9,190.7c-0.168-0.3-0.135-0.55,0.1-0.75c0.232-0.233,0.518-0.267,0.85-0.101
		C273.75,190.583,273.434,190.867,272.9,190.7z M270.9,189.35c0,0.233-0.066,0.367-0.2,0.4c-0.067,0.033-0.233,0.05-0.5,0.05
		c0.065-0.065,0.149-0.183,0.25-0.35C270.55,189.316,270.7,189.283,270.9,189.35z M262.45,183.1c0.032-0.332,0.149-0.565,0.35-0.699
		c0.2,0.066,0.25,0.218,0.15,0.449C262.816,183.083,262.65,183.167,262.45,183.1z M259.85,191.2c-0.065-1.134-0.133-1.968-0.199-2.5
		c0.033-0.333,0.199-0.45,0.5-0.351c-0.101-0.434-0.116-0.801-0.051-1.101c0.834,0.133,1.352-0.185,1.551-0.95
		c0.101-0.898,0.166-1.517,0.199-1.85c-0.133-0.033-0.25-0.15-0.35-0.352c-0.133-0.231-0.184-0.5-0.15-0.8
		c0.2,0.134,0.316,0.267,0.352,0.4c0.033,0.1,0.167,0.217,0.398,0.35c-0.166,0.5-0.25,0.8-0.25,0.9
		c-0.033,0.233,0.033,0.399,0.2,0.5c0.2,0.065,0.185-0.101-0.05-0.5c0.2-0.033,0.566,0.183,1.1,0.649
		c0.5,0.434,0.967,0.566,1.4,0.399l0.25-1c0.033,0.333,0.3,0.649,0.8,0.95c0.5,0.332,1.05,0.467,1.65,0.398
		c-0.366,0.233-0.284,0.533,0.25,0.9c0.3,0.199,0.782,0.482,1.45,0.85c-0.066,0.301-0.051,0.635,0.05,1
		c0.065,0.301,0.065,0.533,0,0.7c0.167,0.101,0.35,0.117,0.55,0.05c0.2-0.033,0.367-0.017,0.5,0.051
		c-0.334,0.301-0.533,0.801-0.6,1.5c-0.033,0.699,0.065,1.283,0.3,1.75c0.433-0.033,0.85-0.232,1.25-0.601
		c0.233-0.2,0.55-0.532,0.95-1c-0.033,0.399-0.519,1.033-1.45,1.899c-0.833,0.801-1.2,1.649-1.101,2.551
		c0,0.1,0.101,0.184,0.301,0.25c0.231,0.033,0.35,0.1,0.35,0.199c-0.2,0.134-0.316,0.434-0.35,0.899
		c-0.066,0.769-0.117,1.185-0.15,1.25c-0.7,2.533-2.85,3.718-6.45,3.552c-0.333-0.367-0.6-0.65-0.8-0.852
		c-0.334-0.268-0.717-0.45-1.15-0.55c-0.365-0.9-0.633-1.583-0.8-2.05c-0.267-0.801-0.384-1.567-0.35-2.301
		c0.065-0.101,0.017-0.184-0.15-0.25s-0.3-0.066-0.399,0c0.199-0.334,0.351-0.617,0.449-0.851c0.135-0.366,0.135-0.683,0-0.95
		c-0.633,0.2-1.315,0.567-2.05,1.102c-0.899,0.6-1.634,1.033-2.2,1.3c0.334-0.601,1.051-1.185,2.15-1.75
		c1.5-0.8,2.35-1.283,2.55-1.45C260.066,192.982,259.916,192.2,259.85,191.2z M256.5,187.65c0.633-0.233,0.883-0.102,0.75,0.398
		c-0.1,0.5-0.383,0.518-0.85,0.051L256.5,187.65z M253.8,185.65c0.034,0.033,0.267,0.217,0.7,0.55c0.268,0.233,0.45,0.45,0.55,0.649
		c-0.3,0.101-0.583,0-0.85-0.301C253.934,186.249,253.8,185.95,253.8,185.65z M253.7,185.45c-0.167,0.167-0.351,0.149-0.55-0.05
		c-0.234-0.168-0.316-0.367-0.25-0.602c0.266-0.033,0.434,0.067,0.5,0.301S253.566,185.45,253.7,185.45z M252.9,183.6
		c0.166,0.067,0.266,0.033,0.3-0.1c0.167,0.167,0.149,0.333-0.05,0.5c-0.234,0.133-0.385,0.232-0.45,0.3
		c-0.101-0.032-0.083-0.116,0.05-0.25C252.883,183.883,252.934,183.732,252.9,183.6z M243.3,180.45
		c0.167-0.101,0.067-0.185-0.3-0.25c0.133-0.067,0.316-0.283,0.55-0.65c0.233-0.333,0.45-0.517,0.65-0.55l-0.101,0.4
		c-0.166,0.033-0.301,0.267-0.399,0.699c-0.101,0.399-0.284,0.649-0.55,0.75C243.018,180.75,243.066,180.617,243.3,180.45z
		 M243.85,176.7c0.168,0.267,0.168,0.483,0,0.649c-0.365-0.434-0.516-0.867-0.449-1.301C243.467,176.184,243.617,176.4,243.85,176.7
		z M244.2,170.6c0.399,0.602,0.532,1.135,0.399,1.602c-0.134-0.333-0.218-0.583-0.25-0.75
		C244.217,171.15,244.166,170.867,244.2,170.6z M248.4,173.55c0.467-0.433,0.3-0.167-0.5,0.8c-1.066,1.567-2.234,3.067-3.5,4.5
		c-0.234-0.033-0.418-0.065-0.551-0.1c-0.199-0.033-0.232-0.15-0.101-0.35c0.065,0,0.101,0.065,0.101,0.199
		c0.233-0.5,0.334-0.934,0.301-1.301c0.133-0.1,0.615-0.199,1.449-0.3c0.065-0.033,0.184-0.149,0.351-0.351
		c0.134-0.166,0.267-0.232,0.399-0.199c-0.033-0.2-0.033-0.367,0-0.5c0.101-0.167,0.166-0.352,0.199-0.551
		c0.034,0,0.116-0.051,0.25-0.149c0.067-0.065,0.15-0.065,0.25,0C247.617,174.383,248.066,173.816,248.4,173.55z M248.95,173.05
		c0.032-0.399,0.3-0.883,0.8-1.45c0.6-0.666,0.967-1.148,1.1-1.449c-0.033,0.399-0.3,0.884-0.8,1.449
		C249.45,172.3,249.084,172.783,248.95,173.05z M255.6,180.55c-0.266-0.233-0.449-0.433-0.55-0.6c-0.2-0.233-0.267-0.483-0.2-0.75
		C255.383,179.732,255.633,180.184,255.6,180.55z M258.25,175.7c0,0.032,0.1,0.2,0.3,0.5c0.101,0.233,0.116,0.45,0.05,0.649
		C258.232,176.55,258.117,176.167,258.25,175.7z M227.25,188.9c0.1,0.033,0.117,0.082,0.05,0.148
		c-0.032,0.067-0.017,0.117,0.05,0.15c-0.231,0.133-0.383,0.267-0.449,0.398c-0.065,0.067-0.149,0.283-0.25,0.65
		c-0.233-0.133-0.233-0.35,0-0.65C226.783,189.434,226.982,189.2,227.25,188.9z M225.4,190.6c-0.269,0.301-0.519,0.435-0.75,0.4
		c0.133-0.066,0.3-0.25,0.5-0.55c0.199-0.267,0.365-0.45,0.5-0.55C225.717,190.1,225.633,190.333,225.4,190.6z M224,192.4
		c-0.166-0.168-0.2-0.483-0.1-0.95c0.199,0.1,0.315,0.25,0.35,0.45C224.283,192.1,224.2,192.268,224,192.4z M224.45,173.6
		c0.167-0.231,0.25-0.633,0.25-1.199c-0.034-0.5,0.1-0.816,0.399-0.949c0,1.033,0,2.683,0,4.949c-0.066,2-0.316,3.601-0.75,4.801
		c-0.435-0.7-0.449-1.95-0.051-3.75C224.7,175.583,224.75,174.3,224.45,173.6z M231.65,170.1c0,0.102,0.05,0.2,0.148,0.301
		c0.067,0.101,0.067,0.218,0,0.351c-0.232,0-0.398,0-0.5,0c-0.167,0-0.283-0.065-0.35-0.2
		C231.05,170.184,231.283,170.033,231.65,170.1z M238.05,165.1c1-1.898,1.567-3.517,1.7-4.85c0.5,0.467,0.55,1.15,0.15,2.05
		c-0.2,0.5-0.533,1.233-1,2.2c-0.4,1.833-0.617,2.8-0.65,2.9c-0.467,1.3-1.117,2.1-1.95,2.398
		C236.434,168.633,237.018,167.066,238.05,165.1z M240.75,160.3c-0.166-0.267-0.184-0.565-0.05-0.899
		c0.3,0.166,0.483,0.666,0.55,1.5C241.05,160.633,240.883,160.434,240.75,160.3z M221.65,161.9c0.1-0.269,0.199-0.418,0.3-0.45
		c0.233,0.167,0.149,0.5-0.25,1C221.566,162.383,221.55,162.2,221.65,161.9z M228.25,152.6c0.867,1.067,1.4,1.685,1.6,1.852
		c-0.467-0.167-1.033-0.65-1.699-1.45c-0.768-0.935-1.334-1.533-1.699-1.8C227.018,151.367,227.617,151.833,228.25,152.6z
		 M222.35,155.65c0.734-1.367,1.234-2.334,1.5-2.9c-0.166,0.667-0.516,1.617-1.05,2.85c-0.267,0.7-0.7,1.75-1.3,3.15
		c-0.1,0.033-0.117-0.1-0.05-0.4c0.032-0.231-0.017-0.267-0.15-0.1C221.367,157.717,221.717,156.85,222.35,155.65z M239.75,152.25
		c-0.133-0.467-0.217-0.717-0.25-0.75c0.3,0.133,0.518,0.5,0.65,1.1C239.982,152.7,239.85,152.583,239.75,152.25z M245.95,163.7
		c-0.034-0.468,0.065-0.95,0.3-1.45c0.268-0.566,0.617-0.9,1.05-1c0.067,0.7-0.233,1.55-0.899,2.55
		c-0.967,1.333-1.532,2.218-1.699,2.65c-0.233,0.565-0.65,1.315-1.25,2.25c-0.602,0.967-0.983,1.649-1.15,2.05
		c-0.167,0.434-0.232,1.1-0.199,2c0.065,0.833,0,1.417-0.199,1.75c-0.033-0.167-0.051-1.2-0.051-3.1
		c-0.367,0.231-0.767,0.666-1.199,1.3c-0.5,0.733-0.867,1.2-1.102,1.399c-0.3-0.699-0.134-1.518,0.5-2.449
		c0.967-1.4,1.483-2.2,1.551-2.4c0.101-0.333,0.116-0.8,0.051-1.4c-0.066-0.8-0.102-1.365-0.102-1.699
		c0.135-0.934,0.233-1.601,0.301-2c0.101-0.666,0.032-1.199-0.199-1.601c0.434,0.435,0.615,1.167,0.55,2.2
		c-0.034,0.6-0.116,1.617-0.25,3.05c0.7-0.267,1.417-0.866,2.149-1.8C245.1,164.7,245.717,163.934,245.95,163.7z M237.35,141.25
		c0.135-0.467,0.217-0.717,0.25-0.75c0.135-0.233,0.334-0.367,0.602-0.4c-0.268,1.134-0.602,2.9-1,5.301
		c-0.366,2.366-0.684,4.05-0.95,5.05c-0.133-0.467-0.185-1.083-0.149-1.851c0.133-0.866,0.217-1.517,0.25-1.949
		C236.75,143.85,237.084,142.05,237.35,141.25z M231.85,141.2c-0.033,0.133-0.133,0.149-0.3,0.05c-0.1-0.133-0.1-0.333,0-0.6
		l0.4,0.1C231.916,140.85,231.883,141,231.85,141.2z M229.25,138.6c-0.1-0.267-0.117-0.633-0.05-1.1c0.032-0.434,0.116-0.767,0.25-1
		C229.55,136.9,229.482,137.6,229.25,138.6z M229.45,135.9c-0.134-0.467-0.15-0.884-0.05-1.25c0.398-0.067,0.481,0.283,0.25,1.05
		C229.05,137.733,228.982,137.8,229.45,135.9z M224.6,119.5l0.102-0.4c0.1,0,0.267,0.084,0.5,0.25
		C225.133,119.617,224.934,119.667,224.6,119.5z M264.3,114.65c-0.032-0.033-0.083-0.051-0.149-0.051c0-0.199,0.051-0.366,0.149-0.5
		V114.65z M65.15,209.55c-0.133,0-0.2,0.033-0.2,0.101c0.233,0.134,0.417,0.018,0.55-0.351c-0.1-0.1-0.233-0.167-0.4-0.2
		c-0.2-0.033-0.317,0.033-0.35,0.2c0.033,0.134,0.117,0.185,0.25,0.15C65.1,209.417,65.15,209.45,65.15,209.55z M81.1,209.15
		c0-0.435,0.183-0.584,0.55-0.45c0.067,0.1,0.067,0.3,0,0.6L81.1,209.15z M101,218.15c1.333,0.166,2.05-0.15,2.15-0.95
		c-5.367-1.333-9.566-2.317-12.6-2.95c-0.133,0-0.2,0.083-0.2,0.25c0.066,0.033,0.133,0.083,0.2,0.15
		c0.067,0.033,0.133,0.017,0.2-0.051c0.467,0.166,1.483,0.584,3.05,1.25c1.434,0.633,2.567,1.084,3.4,1.351
		C99.033,217.732,100.3,218.05,101,218.15z M136.2,231.5c0.167-0.268,0.383-0.4,0.65-0.4c0.167,0.033,0.433,0.067,0.8,0.102
		c-0.1,0.199-0.316,0.3-0.65,0.3C136.633,231.5,136.367,231.5,136.2,231.5z M125.9,236.55c0.033,0.333-0.1,0.5-0.4,0.5
		c-0.233,0-0.417-0.083-0.55-0.25c-0.034-0.3,0.1-0.467,0.4-0.5C125.617,236.268,125.8,236.35,125.9,236.55z M122.8,235.35
		c0.034-0.267,0.25-0.398,0.65-0.398c0.333,0,0.583,0.1,0.75,0.3c0,0.2-0.05,0.367-0.15,0.5c-0.066,0.065-0.167,0.167-0.3,0.3
		C123.283,235.95,122.967,235.717,122.8,235.35z M102.5,225.75c-0.2,0.066-0.35,0.283-0.45,0.65c-0.133,0.365-0.15,0.666-0.05,0.898
		c0.967,0.301,1.65,0.15,2.05-0.449C103.983,226.45,103.467,226.083,102.5,225.75z M114.7,222.6c0.066-0.033,0.117-0.1,0.15-0.199
		c-0.233-0.032-0.4-0.133-0.5-0.301c-0.033,0.2-0.133,0.385-0.3,0.551l0.3,0.051c0.1,0.033,0.133,0,0.1-0.102
		c0-0.1,0.033-0.148,0.1-0.148C114.55,222.55,114.6,222.6,114.7,222.6z M105.5,215.6c0.133,0.301,0.45,0.467,0.95,0.5
		c0.7,0.067,1.133,0.135,1.3,0.2c0.5-0.5,0.533-1.05,0.1-1.649c-0.4,0.033-0.817,0.166-1.25,0.399
		C106.133,215.316,105.767,215.5,105.5,215.6z M106,208.95c-0.4,0.133-0.733,0.183-1,0.149c-0.233-0.033-0.55-0.117-0.95-0.25
		l-1-0.351c-0.1,0-0.25,0.117-0.45,0.351c-0.167,0.199-0.367,0.25-0.6,0.149c0.067,0.133,0.1,0.351,0.1,0.649
		c0,0.232,0.066,0.449,0.2,0.649c0-0.233,0-0.417,0-0.55c0-0.268,0.083-0.417,0.25-0.45c0.2,0.3,0.2,0.634,0,1
		c-0.2,0.333-0.383,0.435-0.55,0.3c0.2,0.233,1,0.467,2.4,0.7c1.3,0.2,2.067,0.567,2.3,1.101c1.333,0.367,2.9,0.316,4.7-0.149
		c2.1-0.565,3.55-0.833,4.35-0.8c0.333,0.033,0.85,0.115,1.55,0.25c0.633,0.1,1.167,0.066,1.6-0.102
		c0.133-1.166-0.667-2.033-2.4-2.6c-2.067-0.434-3.417-0.783-4.05-1.05c-0.067,0.167,0.033,0.333,0.3,0.5
		c0.267,0.133,0.35,0.315,0.25,0.55c-0.833,0.2-1.883,0.2-3.15,0c-1.434-0.268-2.4-0.383-2.9-0.35
		C106.783,208.65,106.467,208.75,106,208.95z M106.55,196.65c0.067-0.233,0.233-0.269,0.5-0.102c0.233,0.135,0.3,0.018,0.2-0.35
		c0.167,0.033,0.267,0.115,0.3,0.25v0.449L106.55,196.65z M107.15,194.7c0.067-0.033,0.417-0.017,1.05,0.05
		c0.667,0.066,0.417,0.316-0.75,0.75c-0.167-0.066-0.4-0.066-0.7,0c-0.233,0.033-0.4-0.018-0.5-0.15
		C106.383,194.95,106.683,194.732,107.15,194.7z M46.6,200.2c-0.133,0.233-0.05,0.5,0.25,0.8c0.2-0.2,0.3-0.434,0.3-0.7L46.6,200.2z
		 M55.7,174.25c0.7,0.3,1.483,0.633,2.35,1c0.467,0.167,0.317,0.184-0.45,0.05c-0.967-0.366-1.833-0.717-2.6-1.05H55.7z
		 M15.45,186.85c1.1,0.733,1.95,0.967,2.55,0.7c0.967,0.567,1.55,1.067,1.75,1.5c12.3,5.033,22.633,9.117,31,12.25
		c-0.2,0.101-0.567,0.033-1.1-0.2c-0.433-0.199-0.717-0.183-0.85,0.051c0.633,0.468,1.65,0.916,3.05,1.351
		c-0.167,0.167,0.316,0.435,1.45,0.8c1.233,0.4,1.75,0.817,1.55,1.25c-0.1,0.102-0.217,0.018-0.35-0.25
		c-0.167-0.267-0.4-0.365-0.7-0.3c0.4,0.3,0.8,0.7,1.2,1.2c-0.2,0.199-0.4,0.167-0.6-0.102c-0.033,0-0.167-0.25-0.4-0.75
		c-0.3-0.133-0.567-0.283-0.8-0.449c-0.233-0.232-0.3-0.416-0.2-0.551c-1.033-0.133-2.283-0.449-3.75-0.949
		c-1.633-0.633-2.833-1.101-3.6-1.399c-0.066-0.435-0.15-0.75-0.25-0.95c-0.9-0.199-2.167-0.633-3.8-1.3
		c-1.733-0.7-3.05-1.167-3.95-1.399c-0.1,0.334,0.2,0.551,0.9,0.649c0.733,0.101,1.034,0.315,0.9,0.649
		c-0.534-0.268-1.35-0.532-2.45-0.801c-1.1-0.267-1.883-0.517-2.35-0.75c0-0.267,0.184-0.332,0.55-0.199
		c0.433,0.134,0.667,0.149,0.7,0.051c-1.033-0.602-2.367-1.217-4-1.852c-1.967-0.699-3.5-1.267-4.6-1.699
		c-1-0.399-2.367-1.051-4.1-1.949c-1.8-0.967-3.083-1.602-3.85-1.9c-2-0.8-3.167-1.267-3.5-1.398c-1.267-0.635-2.184-1.269-2.75-1.9
		C13.633,185.95,14.417,186.15,15.45,186.85z M128.05,191.15c0.267,0.065,0.417-0.051,0.45-0.352c-0.033,0-0.25-0.05-0.65-0.148
		c-0.267-0.067-0.417,0-0.45,0.199C127.733,191.05,127.95,191.15,128.05,191.15z M111.25,186.35c-0.133-0.133,0-0.166,0.4-0.1
		c0.2,0.033,0.467,0.1,0.8,0.2C112.65,186.684,112.25,186.65,111.25,186.35z M107.8,185.5c0.133-0.167,0.434-0.15,0.9,0.05
		c0.633,0.233,1.066,0.351,1.3,0.351C110,186.1,109.267,185.967,107.8,185.5z M103.9,179.1c-0.566-0.365-1.017-0.565-1.35-0.6
		c0.367-0.066,0.817,0.05,1.35,0.35c0.267,0.168,0.65,0.4,1.15,0.7C104.783,179.583,104.4,179.434,103.9,179.1z M106.9,168.7
		c-0.3-0.067-0.5-0.167-0.6-0.3c0.167-0.269,0.383-0.301,0.65-0.102c0.367,0.268,0.583,0.4,0.65,0.4
		C107.5,168.8,107.267,168.8,106.9,168.7z M114.5,168.5l0.75,0.15c-0.067,0.166-0.067,0.365,0,0.6c-0.333,0.1-0.65,0.133-0.95,0.1
		c-0.066-0.1-0.083-0.25-0.05-0.449C114.283,168.7,114.367,168.566,114.5,168.5z M116.05,165.5c0.034,0.033,0.383,0.133,1.05,0.3
		c0.467,0.134,0.8,0.3,1,0.5l-0.4,0.2c0.2,0.1,0.466,0.1,0.8,0c0.3,0.1,0.667,0.333,1.1,0.7c0.4,0.366,0.683,0.55,0.85,0.55
		c-0.167,0.232-0.55,0.2-1.15-0.1c-0.633-0.334-0.833-0.584-0.6-0.75c-0.8-0.168-1.717-0.533-2.75-1.102
		c-1.133-0.699-2-1.217-2.6-1.55c-1.867-1.033-4.583-2.467-8.15-4.3c-3.6-1.867-6.217-3.25-7.85-4.15
		c5.6,2.533,11.633,5.617,18.1,9.25C116.05,165.35,116.25,165.5,116.05,165.5z M109.2,159.95c-0.633-0.3-0.833-0.55-0.6-0.75
		c-1.4-0.667-3.167-1.65-5.3-2.95c-3.033-1.867-4.75-2.917-5.15-3.15c2.367,1.067,5.017,2.519,7.95,4.352c1.667,1,4.066,2.5,7.2,4.5
		C112.7,161.883,111.333,161.217,109.2,159.95z M133.7,160.65c0.633-0.269,1.466,0.332,2.5,1.8
		C135.033,161.482,134.2,160.883,133.7,160.65z M137.9,163.6c0.267-0.033,0.8,0.301,1.6,1c-0.167,0.033-0.433-0.082-0.8-0.35
		C138.267,163.85,138,163.633,137.9,163.6z M121.95,158.2c0.333-0.2,0.767-0.083,1.3,0.35c0.767,0.634,1.183,0.968,1.25,1
		c-0.233,0-0.617-0.2-1.15-0.6C122.75,158.55,122.283,158.3,121.95,158.2z M99.45,188c-0.3,0.133-0.767,0.117-1.4-0.05
		c0.133-0.2,0.317-0.25,0.55-0.15C99,187.934,99.283,188,99.45,188z M82.6,171.25c0.333-0.2,0.833-0.133,1.5,0.2
		c0.667,0.3,1.05,0.633,1.15,1C84.483,172.35,83.6,171.95,82.6,171.25z M72.45,189.9c-0.367-0.5-1.083-0.867-2.15-1.102
		c-1-0.199-1.867-0.199-2.6,0c0.233,0.033,1.083,0.301,2.55,0.801C71.35,189.934,72.083,190.033,72.45,189.9z M78.6,164.1
		c0,0.168,0.05,0.269,0.15,0.301c-0.033,0.166-0.167,0.232-0.4,0.199c-0.167,0-0.3-0.065-0.4-0.199c0-0.166,0.066-0.282,0.2-0.351
		c0.167-0.032,0.25-0.1,0.25-0.2C78.533,163.883,78.6,163.967,78.6,164.1z M97.5,165.4c-0.233,0-0.4-0.084-0.5-0.25
		c0.033-0.467,0.383-0.635,1.05-0.5c0,0.033,0.05,0.148,0.15,0.35c0.066,0.133,0.05,0.283-0.05,0.45
		C98.083,165.417,97.867,165.4,97.5,165.4z M97.95,157.7c-0.9-0.435-1.4-0.685-1.5-0.75c1,0.167,2.117,0.6,3.35,1.3
		c0.233,0.1,1.217,0.717,2.95,1.85c-0.267-0.065-0.4-0.148-0.4-0.25c-1.067-0.5-1.783-0.916-2.15-1.25
		c-0.167-0.065-0.367-0.082-0.6-0.05c-0.2,0.033-0.4,0-0.6-0.1C98.867,158.184,98.517,157.934,97.95,157.7z M87.7,161.9
		c0.433-0.301,0.8-0.15,1.1,0.449c1.534,0.732,4.2,2.232,8,4.5c3.3,1.967,5.867,3.316,7.7,4.051c0.067,0.231,0.183,0.398,0.35,0.5
		c0.133-0.033,0.383-0.051,0.75-0.051c0.367,0.032,0.633,0.018,0.8-0.051c5.033,3.233,7.767,5,8.2,5.301
		c1.267,0.768,3.316,1.616,6.15,2.551c3.1,1.033,5.15,1.8,6.15,2.3c0.267,0.133,0.733,0.433,1.4,0.899
		c0.667,0.334,1.333,0.351,2,0.051c0-0.168-0.267-0.317-0.8-0.45c-0.5-0.134-0.7-0.351-0.6-0.65c0.167,0.067,0.633,0.351,1.4,0.851
		c0.567,0.367,1.067,0.518,1.5,0.449c-1.3-1.767-3.383-3.383-6.25-4.85c-3.466-1.566-6.1-2.833-7.9-3.8
		c-2.066-1.134-5.35-2.767-9.85-4.9c2.233,0.833,5.284,2.167,9.15,4c4.367,2.101,7.433,3.517,9.2,4.25
		c0.367,0.367,1.383,1.067,3.05,2.101c1.367,0.834,2.15,1.566,2.35,2.199c1.967,0.668,3.434,1.367,4.4,2.102
		c0.133,0,0.3-0.051,0.5-0.15c0.066-0.566-0.233-1.066-0.9-1.5c-1.2-0.732-1.816-1.115-1.85-1.148c-0.1-0.102-0.217-0.269-0.35-0.5
		c-0.133-0.301-0.233-0.483-0.3-0.551c-0.767-0.801-1.9-1.634-3.4-2.5c-1.7-0.899-2.95-1.601-3.75-2.101
		c-0.433-0.601-1.35-1.267-2.75-2c-1.5-0.767-2.467-1.399-2.9-1.899c1.567,0.801,3.617,2.018,6.15,3.649
		c2.767,1.8,4.684,2.983,5.75,3.55c-0.066-0.633-0.533-1.232-1.4-1.8c-1.133-0.667-1.8-1.133-2-1.399
		c-1.767-1-5.817-3.482-12.15-7.449c0-0.067-0.05-0.15-0.15-0.25c-0.034-0.033,0.017-0.102,0.15-0.2
		c-0.333,0.065-0.817-0.117-1.45-0.55c-0.633-0.4-1.083-0.584-1.35-0.551c0-0.101,0.034-0.166,0.1-0.199
		c0.1-0.067,0.15-0.135,0.15-0.2c-0.133-0.067-0.25-0.083-0.35-0.05c-0.1,0-0.1,0.033,0,0.1c-4.833-2.566-8.45-4.467-10.85-5.7
		c1.333,0.468,3.25,1.4,5.75,2.8c2.4,1.334,4.233,2.185,5.5,2.551c0.066,0.199,0.083,0.351,0.05,0.449
		c1.467,0.801,3.783,2.019,6.95,3.65c2.767,1.533,4.867,2.982,6.3,4.35c1.033,0.4,2.25,1.033,3.65,1.9c0.167,0,0.35-0.1,0.55-0.3
		c-0.067-0.267-0.067-0.733,0-1.4c0.1-0.633,0.1-1.083,0-1.35l-5.7-3c-1.3,0-1.9-0.45-1.8-1.351c-1.667-0.801-3.533-1.834-5.6-3.101
		c-2.233-1.435-3.95-2.5-5.15-3.2c1.3,0.4,3.267,1.5,5.9,3.301c2.467,1.666,4.533,2.666,6.2,3l0.85,0.949
		c1.5,0.567,2.967,1.233,4.4,2c0.6,0.367,1.933,1.184,4,2.45c0.4,0.233,1.083,0.717,2.05,1.45c0.833,0.633,1.517,1.066,2.05,1.3
		c0.467,0.233,1.5,0.5,3.1,0.8c1.333,0.301,2.367,0.717,3.1,1.25c0.033,0,0.25-0.05,0.65-0.148l0.2-0.7
		c-2.533-2.601-5.95-5.65-10.25-9.15c-4.9-3.833-8.533-6.75-10.9-8.75c0.9,0.367,2.05,1.134,3.45,2.3
		c1.533,1.301,2.7,2.15,3.5,2.551c0.467,0.601,1.35,1.384,2.65,2.351c1.333,0.968,2.217,1.75,2.65,2.351
		c1.566,0.566,3.283,1.699,5.15,3.399c2.867,2.667,4.333,4.017,4.4,4.05c1.3,0.934,2.283,1.317,2.95,1.15
		c-0.567-1.732-1.383-2.852-2.45-3.352c-1.3-0.6-2.633-1.699-4-3.3c-1.867-2.167-3.067-3.483-3.6-3.95c-0.833-0.731-2-1.6-3.5-2.6
		c-1.633-1.133-2.8-1.982-3.5-2.55c-0.2,0-0.267,0.083-0.2,0.25c0.066,0.2,0.183,0.282,0.35,0.25c-0.1,0.133-0.267,0.149-0.5,0.05
		c-0.233-0.167-0.4-0.268-0.5-0.3c-0.167,0-0.167,0.116,0,0.35c0.2,0.2,0.2,0.3,0,0.3c-3.233-2.033-5.133-3.199-5.7-3.5
		c0.133-0.166,0.283-0.183,0.45-0.05c0.133,0.134,0.267,0.167,0.4,0.101c-0.067-0.133-0.2-0.268-0.4-0.399
		c-0.233-0.2-0.383-0.333-0.45-0.399c-0.1,0.199,0.017,0.334,0.35,0.399c-0.8,0.134-1.95-0.55-3.45-2.05
		c-2.433-1.467-4.25-2.583-5.45-3.352c-2.1-1.332-3.767-2.55-5-3.648c-0.133,0.033-0.316-0.033-0.55-0.2
		c-0.2-0.167-0.35-0.184-0.45-0.05c-1-1.067-2.5-2.283-4.5-3.65c-2.867-1.933-4.517-3.066-4.95-3.399
		c2.066,1.166,5.183,3.25,9.35,6.25c4.1,2.933,7.316,5.067,9.65,6.399c0,0.067,0.05,0.15,0.15,0.25
		c0.067,0.033,0.017,0.102-0.15,0.2c0.3-0.065,0.8,0.101,1.5,0.5c0.633,0.399,1.1,0.517,1.4,0.351c0.3,0.434,1.017,1,2.15,1.699
		c1.1,0.7,1.75,1.217,1.95,1.551l-0.1,0.149c-0.033,0.065-0.05,0.134-0.05,0.2c0.033-0.066,0.2-0.083,0.5-0.051
		c0.4,0.033,0.583,0.149,0.55,0.351c0.1-0.233,0-0.45-0.3-0.649c-0.3-0.199-0.4-0.434-0.3-0.699c-0.133,0.066-0.333,0.066-0.6,0
		c-0.033-0.135-0.183-0.317-0.45-0.551c-0.2-0.199-0.317-0.383-0.35-0.551c-1.733-0.933-3.867-2.449-6.4-4.55
		c-2.767-2.233-4.85-3.783-6.25-4.65c-0.533-0.8-1.45-1.699-2.75-2.699c-1.7-1.301-2.717-2.117-3.05-2.45
		c0.8,0.433,2.017,1.316,3.65,2.649c1.633,1.334,2.933,2.25,3.9,2.75c0.167,0.334,0.6,0.783,1.3,1.351
		c0.4,0.3,1.033,0.767,1.9,1.399c0.667,0.5,1.65,1.283,2.95,2.351c3.767,2.532,6.517,4.45,8.25,5.75
		c2.2,0.899,4.383,2.417,6.55,4.55c1,0.4,2.367,1.45,4.1,3.15c1.667,1.6,3.133,2.582,4.4,2.949l-0.35-0.399
		c0.566,0.333,1.35,0.933,2.35,1.8c1.267,1.133,2.05,1.816,2.35,2.051c0.6-0.134,0.833-0.483,0.7-1.051
		c-0.5-0.566-1.85-1.518-4.05-2.85c-1.833-1.135-2.983-2.233-3.45-3.301c-0.1-0.066-0.5-0.367-1.2-0.899
		c-0.467-0.367-0.967-0.583-1.5-0.649c0.067-0.134,0.033-0.268-0.1-0.399c-0.133-0.101-0.15-0.233-0.05-0.4
		c0.2,0.066,0.45,0.233,0.75,0.5c0.233,0.233,0.467,0.384,0.7,0.45c-1.233-1.467-3.883-3.566-7.95-6.3
		c-0.067,0.166-0.133,0.166-0.2,0c-0.066-0.167-0.033-0.269,0.1-0.302c-0.767-0.433-2.033-1.332-3.8-2.698
		c-2-1.533-3.383-2.584-4.15-3.15c-0.367-0.267-0.934-0.616-1.7-1.05c-0.767-0.4-1.3-0.717-1.6-0.95
		c-0.167-0.233-0.316-0.399-0.45-0.5c-0.2-0.233-0.5-0.366-0.9-0.399c-0.133-0.333-0.45-0.684-0.95-1.05
		c-0.633-0.433-1.017-0.75-1.15-0.95c0.333,0.134,0.75,0.367,1.25,0.7c0.466,0.267,0.933,0.384,1.4,0.351
		c0.066,0.1,0.15,0.232,0.25,0.399s0.15,0.317,0.15,0.45c0.4,0.233,0.983,0.667,1.75,1.3c0.8,0.668,1.383,1.117,1.75,1.352
		c0.167,0.133,0.5,0.283,1,0.449c0.433,0.199,0.617,0.434,0.55,0.699c0.034-0.033,0.184-0.05,0.45-0.05
		c0.167,0.033,0.25-0.05,0.25-0.25c0.5,0.3,1.133,0.884,1.9,1.75c0.767,0.833,1.383,1.4,1.85,1.7c0.2,0.133,0.55,0.283,1.05,0.45
		c0.467,0.166,0.817,0.333,1.05,0.5c1.433,1,3.4,2.517,5.9,4.55c2.7,2.2,4.633,3.732,5.8,4.6c0.733,0.533,1.75,1.435,3.05,2.7
		c0.267,0.101,0.483,0,0.65-0.3c0.133-0.268,0.15-0.518,0.05-0.75c-0.5-0.467-0.867-0.816-1.1-1.05
		c-0.367-0.468-0.583-0.917-0.65-1.351c-0.5-0.468-1.433-1.134-2.8-2c-1.267-0.801-2.15-1.468-2.65-2
		c-0.267-0.101-0.7-0.184-1.3-0.25c-0.5-0.033-0.883-0.149-1.15-0.351l-0.7-1.55c-0.667-0.367-2.034-1.25-4.1-2.65
		c-1.667-1.133-3.067-1.9-4.2-2.3c-0.133-0.367-0.467-0.718-1-1.05c-0.6-0.367-1.033-0.65-1.3-0.852
		c-0.267-0.166-0.434-0.115-0.5,0.15l-1-1c0.533,0.066,1.283,0.383,2.25,0.949c0.967,0.601,1.7,0.934,2.2,1
		c-0.033,0.101,0,0.199,0.1,0.301c0.1,0.1,0.117,0.217,0.05,0.35c2.7,1.5,5.3,3.184,7.8,5.051c1,0.232,2.15,0.867,3.45,1.899
		c1.233,1.033,2.283,1.617,3.15,1.75c0.2,0.134,0.417,0.333,0.65,0.601c0.233,0.199,0.517,0.283,0.85,0.25
		c0.133,0.232,0.467,0.601,1,1.101c0.467,0.433,0.767,0.815,0.9,1.149c3.7,2.334,7.416,5.184,11.15,8.551
		c0.5-0.168,0.783-0.301,0.85-0.4c0.166-0.434,0.033-0.8-0.4-1.1c-0.6-0.367-0.934-0.617-1-0.75c0.301-0.033,0.635,0.082,1,0.35
		c0.4,0.268,0.566,0.566,0.5,0.9c0.234-0.2,0.635-0.184,1.2,0.05c0.468,0.2,0.8,0.149,1-0.149c-0.233-0.834-0.782-1.617-1.649-2.351
		c-1.032-0.8-1.782-1.435-2.25-1.899c-0.434-0.468-1.149-1.434-2.149-2.899c-0.899-1.302-1.717-2.269-2.45-2.9
		c1.067,0.733,2.5,2.134,4.301,4.2c2.467,2.8,3.851,4.35,4.149,4.648c0.935,0.9,1.916,1.269,2.95,1.102
		c0.167-0.167,0.216-0.367,0.148-0.602c-0.065-0.166,0.019-0.282,0.25-0.35c-0.065-0.066-0.184-0.25-0.35-0.55
		c-0.133-0.2-0.3-0.333-0.5-0.399c0.133-0.434,0.15-0.733,0.05-0.899c-0.5-0.834-1.45-2.019-2.85-3.552
		c-1.333-1.5-2.267-2.698-2.8-3.6c0.199,0.167,0.416,0.434,0.648,0.801c0.268,0.366,0.483,0.616,0.65,0.75
		c0.332-0.033,0.433-0.218,0.3-0.551c-0.166-0.367-0.166-0.566,0-0.6c-0.565-0.5-1.25-1.317-2.05-2.45
		c-1.168-1.667-1.817-2.583-1.95-2.75c-0.834-0.767-1.883-1.935-3.149-3.5c-1.468-1.8-2.416-2.935-2.851-3.399
		c-0.166-0.066-0.3-0.134-0.399-0.201c-0.168-0.1-0.184-0.267-0.051-0.5c0.866,0.769,2.051,2.067,3.551,3.9
		c1.467,1.768,2.684,3.051,3.649,3.85c4.935,7.067,8.267,11.668,10,13.802l-0.101,0.55c0.267,0,0.449,0.133,0.551,0.398
		c0.066,0.135,0.148,0.367,0.25,0.701c0.1,0.199,0.566,0.649,1.398,1.351c0.9,0.767,1.551,1.399,1.95,1.899
		c0.233,0.267,0.583,0.732,1.05,1.399c0.5,0.5,1.084,0.649,1.75,0.45c-1.967-2-4.315-4.9-7.05-8.7c-3.7-5.067-5.966-8.117-6.8-9.149
		c0.4,0,0.717,0.217,0.949,0.649c0.135,0.233,0.301,0.583,0.5,1.05c0.434,0.633,1.268,1.65,2.5,3.051
		c0.434,0.601,1.051,1.434,1.851,2.5c0.7,0.866,1.5,1.582,2.399,2.149c-0.066,0.2-0.149,0.233-0.25,0.101
		c-0.133-0.233-0.299-0.334-0.5-0.301c1.033,1.033,2.25,2.551,3.65,4.551c1.5,2.133,2.666,3.666,3.5,4.601
		c0.467-0.067,0.75-0.15,0.85-0.25c-0.199-0.834-0.732-1.617-1.6-2.351c0.133-0.399,0.084-0.783-0.15-1.149
		c-0.266-0.435-0.399-0.769-0.399-1c-1.167-1.334-2.366-3.269-3.601-5.802c-1.633-3.267-2.699-5.315-3.199-6.148
		c-0.334-0.268-0.566-0.482-0.7-0.65c-0.233-0.232-0.351-0.5-0.351-0.8c1.301,1.5,2.967,4.218,5,8.15
		c1.9,3.666,3.65,6.315,5.25,7.948c-0.133,0.033-0.199,0.168-0.199,0.4c0.033,0.2,0,0.301-0.1,0.301
		c0.133,0.066,0.416,0.316,0.85,0.75c0.5,0.399,0.934,0.566,1.3,0.5c0.101-0.301-0.017-0.468-0.351-0.5
		c0.066-0.134,0.15-0.149,0.25-0.051c0.135,0.133,0.25,0.184,0.351,0.15c-0.233-1.067-0.8-2.268-1.7-3.602
		c-1.199-1.767-1.916-2.883-2.148-3.35c0.365,0.133,0.75,0.533,1.148,1.199c0.234,0.367,0.533,0.934,0.9,1.699
		c0.066-0.199,0.1-0.699,0.1-1.5c-0.033-0.832-0.016-1.383,0.051-1.648c0.101,0.033,0.149,0.199,0.149,0.5
		c-0.032,0.268,0.034,0.434,0.2,0.5c-0.033-1.801-0.434-3.816-1.2-6.051c-0.466-1.301-1.25-3.166-2.351-5.601
		c0.566,0.767,1.25,2.067,2.051,3.9c0.768,1.8,1.467,3.1,2.1,3.899c0.5,0.166,0.885,0.601,1.15,1.301
		c0.133,0.365,0.316,0.981,0.55,1.85c0.101,0.3,0.351,0.7,0.75,1.2c0.399,0.565,0.634,0.933,0.7,1.1
		c0.666,1.733,1.467,2.185,2.4,1.351c-0.033-0.434-0.15-0.967-0.352-1.601c-0.268-0.866-0.417-1.366-0.449-1.5
		c0.6-0.933,0.866-2.183,0.801-3.75c-0.033-0.933-0.217-2.2-0.551-3.8c0.133-0.367,0.184-0.768,0.149-1.2
		c-0.101-0.5-0.117-0.866-0.05-1.1c-0.7-1.067-1.268-2.4-1.7-4c-0.267-1.033-0.565-2.533-0.899-4.5
		c-0.334-0.5-0.584-0.884-0.75-1.15c-0.334-0.399-0.732-0.683-1.199-0.85c-0.033-0.5-0.435-1.05-1.201-1.65
		c-0.699-0.6-1.049-1.183-1.049-1.75c0.633-0.5,1.1-0.8,1.398-0.899c-0.167-0.567-0.3-1.101-0.398-1.601
		c0.467,0.434,1.231,1.833,2.299,4.2c0.801,1.8,2.051,2.9,3.75,3.3c0.135,0.3,0.316,0.767,0.551,1.4c0.232,0.5,0.5,0.899,0.8,1.2
		c0.733-0.435,1.067-1.15,1-2.15c-0.233-1.2-0.399-2.066-0.5-2.6c-0.433-2.467-0.782-4.033-1.05-4.7
		c-0.133-0.367-0.283-0.967-0.45-1.8c-0.167-0.967-0.315-1.65-0.45-2.051c-0.065-0.199-0.217-0.5-0.449-0.899
		c-0.199-0.333-0.315-0.601-0.351-0.8c-0.167-0.634-0.282-1.533-0.351-2.7c-0.066-1.267-0.149-2.15-0.25-2.65
		c-0.332-1.566-0.832-3.383-1.5-5.45c-0.766-2.267-1.332-3.949-1.699-5.05c0.1-0.267,0.084-0.566-0.051-0.899
		c-0.133-0.367-0.166-0.684-0.1-0.95c0.268,0.833,1.166,4.017,2.699,9.55c1.066,3.767,2.018,6.8,2.852,9.1
		c0.199,0.033,0.315-0.283,0.35-0.949c0.367,0.6,0.65,1.533,0.85,2.8c0.2,1.533,0.385,2.533,0.551,3
		c-0.166-0.101-0.282-0.283-0.351-0.55c-0.065-0.268-0.167-0.434-0.3-0.5c0.066,0.866,0.316,1.967,0.75,3.3
		c0.566,1.7,0.9,2.815,1,3.351c0.133,0.601,0.334,1.767,0.6,3.5c0.2,1.467,0.435,2.633,0.7,3.5c0.233,0.699,0.567,2.133,1,4.299
		c0.366,1.867,0.767,3.352,1.2,4.451c0.1,0.267,0.367,0.767,0.8,1.5c0.333,0.601,0.55,1.082,0.649,1.449
		c0.135,0.467,0.217,1.15,0.25,2.051c0.135,0.767,0.467,1.351,1,1.75c0.101-0.601,0.018-1.399-0.25-2.399
		c-0.266-1.167-0.399-2.052-0.399-2.65c0.435-0.032,0.75-0.233,0.95-0.6c0.133-0.435,0.232-0.75,0.3-0.95
		c0.3,0.1,0.399,0.217,0.3,0.35c-0.199,0.268-0.3,0.418-0.3,0.45c0.2,0.066,0.399,0.05,0.601-0.05c0-0.066-0.032-0.083-0.101-0.05
		c-0.134,0.032-0.233,0.017-0.3-0.052c0.166-0.231,0.334-0.267,0.5-0.1c0.3,0.268,0.518,0.4,0.65,0.4
		c-0.033-0.102-0.135-0.283-0.301-0.551c0.334-0.133,0.416-0.518,0.25-1.149c-0.267-0.601-0.4-0.935-0.4-1
		c0.234-1.333,0.351-2.2,0.351-2.601c0.034,1.367,0.149,3.399,0.351,6.101c-0.233,0.065-0.315,0.282-0.25,0.649
		c0.066,0.601,0.033,1.117-0.101,1.551c0.167,0.166,0.483,0.35,0.95,0.55c0.033-0.2-0.033-0.367-0.2-0.5
		c0.034-0.101,0.083-0.117,0.149-0.05c0.066,0.066,0.101,0.148,0.101,0.25c0.767-0.834,1.116-1.717,1.05-2.65
		c0.102-0.066,0.185-0.083,0.25-0.05c0.033,0.032,0.102,0.083,0.2,0.149c-0.333-1.5-0.384-2.783-0.149-3.851
		c-0.399-0.467-0.633-1.633-0.699-3.5c0.033,0.233,0.232,1.083,0.6,2.55c0.268,1.033,0.333,1.867,0.2,2.5
		c0.2,0.168,0.367,0.584,0.5,1.25c0.166,0.668,0.185,1.168,0.05,1.5c0.333-0.1,0.684-0.066,1.051,0.102
		c0.467,0.267,0.899,0.398,1.301,0.398c-0.033,0.4,0.033,0.934,0.199,1.602c0.366,0,0.616-0.135,0.75-0.4
		c0.101-0.133,0.233-0.383,0.399-0.75c-0.233,0.2-0.383-0.018-0.45-0.65c-0.066-0.633,0.083-0.967,0.45-1
		c-0.033,0.168-0.117,0.25-0.25,0.25c0.334,0.201,0.55,0.783,0.649,1.75c0.066,0.733,0.066,1.418,0,2.052
		c0.166,0.133,0.316,0.333,0.449,0.6c0.102,0.167,0.217,0.384,0.352,0.65c-0.233,1.133-0.268,2.55-0.102,4.25
		c0.033,0.198,0.135,0.532,0.301,1c0.101,0.366,0.033,0.55-0.199,0.55c0.167,0.167,0.283,0.398,0.35,0.7
		c0.067,0.198,0.135,0.467,0.2,0.8c0.166,0.1,0.283,0.083,0.351-0.05c0.065-0.134,0.166-0.167,0.301-0.101c0,0.232,0,0.616,0,1.149
		c0,0.5-0.117,0.851-0.352,1.05c0.167,0.2,0.301,0.85,0.4,1.95c0.066,0.866,0.517,1.383,1.35,1.55c0.034-0.199,0.034-0.383,0-0.55
		c-0.066-0.134-0.033-0.3,0.102-0.5c0.1,0.2,0.166,0.649,0.199,1.351c0.032,0.601,0.184,1,0.449,1.199l0.15-0.05
		c0.066,0.433,0.5,1.167,1.3,2.2c0.666,0.898,0.95,1.648,0.851,2.25c0.268-0.168,0.399-0.102,0.399,0.199
		c0.435-0.334,0.75-0.351,0.95-0.051c0.167-0.832,0.1-1.416-0.2-1.75c0.3-0.033,0.517-0.3,0.649-0.8
		c0.133-0.667,0.232-1.133,0.301-1.399c-0.034-0.133-0.168-0.334-0.4-0.601c-0.199-0.233-0.316-0.45-0.35-0.649
		c-0.102,0.033-0.2,0.149-0.301,0.351c-0.065,0.2-0.166,0.282-0.301,0.25c-0.3-0.134-0.35-0.601-0.148-1.399
		c-0.2-0.601-0.717-1.649-1.551-3.149c-0.699-1.302-1.149-2.4-1.351-3.302c0.167,0.302,0.8,1.567,1.899,3.802
		c0.768,1.565,1.533,2.767,2.301,3.6c0-0.233,0.084-0.399,0.25-0.5c0.268-0.167,0.434-0.399,0.5-0.7c0.268,0,0.467,0.15,0.6,0.45
		c0.102,0.3,0.301,0.435,0.602,0.4c0.066,0.032,0.115,0,0.148-0.101s0.033-0.184,0-0.25c0.102,0.101,0.25,0.267,0.45,0.5
		c0.233,0.232,0.517,0.449,0.851,0.649c0.166-0.033,0.267-0.117,0.301-0.25c0.033-0.134,0.05-0.267,0.05-0.399
		c0.2,0.166,0.435,0.582,0.7,1.25c0.199,0.601,0.533,0.967,1,1.101c-0.168,0.1-0.25,0.282-0.25,0.55c0.3,0,0.6-0.134,0.898-0.4
		l0.7-0.75c-0.767-1.065-0.517-3.433,0.75-7.1c0-0.232-0.083-0.482-0.25-0.75c-0.2-0.333-0.315-0.55-0.351-0.65
		c0.101-0.533,0.451-0.898,1.051-1.1c0.434,0.268,0.584,0.8,0.449,1.6c-0.133,0.9-0.082,1.483,0.15,1.75
		c0.434-0.133,0.866-0.666,1.301-1.6c0.467-1.102,0.883-1.8,1.25-2.102c0-0.032-0.102-0.433-0.301-1.198
		c-0.166-0.5-0.084-0.917,0.25-1.25c0.166,0.065,0.366,0.065,0.6,0c0.334,0.565,0.4,1.565,0.201,3
		c-0.367,2.3-0.551,3.517-0.551,3.649c-0.533,0.066-0.935,0.133-1.199,0.199c-0.467,0.066-0.816,0.217-1.051,0.45
		c0.166,0,0.85-0.134,2.051-0.399c0.065,0.5-0.066,1-0.4,1.5c-0.367,0.467-0.768,0.699-1.2,0.699c-0.5,0.7-0.8,1.482-0.899,2.35
		c-0.101,1,0.117,1.718,0.649,2.15c-0.065,0.232-0.116,0.533-0.149,0.9c0,0.332-0.051,0.633-0.149,0.898
		c0.233,0.102,0.483,0.15,0.75,0.15c0.267-0.167,0.45-0.533,0.55-1.102c0.067,0.334,0.217,0.567,0.45,0.7
		c0.101,0.033,0.133-0.032,0.101-0.2c-0.066-0.231-0.051-0.398,0.051-0.5c0.266,0.5,0.633,0.834,1.1,1
		c0.3,0.135,0.982,0.352,2.05,0.65c0.134-0.066,0.333-0.232,0.601-0.5c0.232-0.167,0.367-0.133,0.399,0.1
		c0.167,0,0.218-0.065,0.15-0.199c-0.101-0.166-0.116-0.282-0.05-0.351c1.266,0.2,1.967-0.649,2.1-2.55
		c0.033-0.232-0.018-1.732-0.15-4.5c0.435-1,0.551-2.45,0.352-4.35c-0.2-1.867-0.116-3.217,0.25-4.051
		c-0.301-0.134-0.551,0-0.75,0.399c-0.167,0.435-0.385,0.601-0.65,0.5c-0.1,0.233-0.066,0.315,0.102,0.25
		c0.133-0.033,0.148,0.05,0.05,0.25c-0.101,0.167-0.185,0.3-0.25,0.399c-0.134-1.066,0.167-2.301,0.899-3.699
		c0.866-1.467,1.434-2.567,1.699-3.301c0.301,0.367,0.217,0.968-0.25,1.801c-0.566,1-0.783,1.85-0.648,2.55
		c0,0.101,0.065,0.185,0.199,0.25c0.133,0.065,0.184,0.167,0.149,0.3c-0.233,0.602-0.367,1.385-0.399,2.352
		c0.5,0.565,0.733,1.283,0.699,2.148c0.135,0.067,0.284,0.067,0.45,0c0.133-0.033,0.233,0.018,0.3,0.15
		c-0.066,0.398,0.067,0.833,0.4,1.3c0.365,0.5,0.55,0.899,0.55,1.2c0.899-0.768,1.685-1.283,2.351-1.551
		c-0.033,0.166-0.134,0.334-0.301,0.5c0.233,0.033,0.366-0.018,0.4-0.149c0.066-0.233,0.134-0.383,0.199-0.45
		c0.232,0.167,0.25,0.483,0.051,0.95c-0.233,0.467-0.233,0.767,0,0.899c0.267,0.066,0.417-0.018,0.449-0.25
		c0.033-0.434,0.051-0.666,0.051-0.699c0.232,0.133,0.417,0.433,0.55,0.898c0.334-0.1,0.533-0.35,0.601-0.75V185
		c0.065,0.167,0.184,0.4,0.351,0.7c0.134,0.267,0.1,0.5-0.101,0.7c0.199,0.1,0.351,0.033,0.449-0.2c0.102-0.2,0.233-0.267,0.4-0.2
		c-0.034,0.133-0.102,0.283-0.2,0.45c-0.065,0.167-0.065,0.315,0,0.45c0.399-0.067,0.815-0.435,1.25-1.102s0.851-1.033,1.25-1.1
		c-0.033,0.133-0.185,0.267-0.45,0.398c-0.232,0.067-0.35,0.233-0.35,0.5c0.199,0.102,0.365,0.067,0.5-0.1
		c0.167-0.2,0.283-0.3,0.35-0.3c-0.898,1.399-1.449,1.815-1.648,1.25c0.033,0.733,0.217,1.35,0.55,1.85s0.667,0.718,1,0.65
		c0.333-0.033,0.6-0.283,0.8-0.75c0.166-0.601,0.3-1.017,0.4-1.25l0.25,0.25c0.065-0.134,0.082-0.384,0.05-0.75
		c0.134-0.333,0.399-0.733,0.8-1.2c0.268-0.333,0.416-0.65,0.45-0.95c0-0.433-0.25-0.899-0.75-1.399c0.1-0.133,0.3-0.518,0.6-1.149
		c0.233-0.467,0.45-0.8,0.65-1c0.1-0.233,0.065-0.783-0.101-1.649c-0.134-0.666,0.032-1.051,0.5-1.149
		c0.166,1.933,0.166,3.649,0,5.149c-0.232,0.032-0.399,0.268-0.5,0.699c-0.066,0.268-0.149,0.65-0.25,1.15
		c0.633-0.167,0.782-0.4,0.449-0.7c0.167-0.167,0.4-0.2,0.7-0.101c0.2,0.066,0.467,0.166,0.8,0.301c0.034,0.333,0.034,0.85,0,1.55
		c0.034,0.601,0.233,1,0.602,1.2c0,0.1-0.117,0.083-0.352-0.051c-0.199-0.133-0.3-0.066-0.3,0.199c0.367,0.102,1.233,0.5,2.601,1.2
		c0.065-0.267,0.315-0.917,0.75-1.95c-0.435-0.166-0.685,0.033-0.75,0.602l-0.301-2.102c-0.134-0.832-0.083-1.615,0.15-2.35
		c0.3,1.268,0.55,2.1,0.75,2.5c0.398,0.833,1.017,1.467,1.85,1.9c0.801-0.367,1.4-0.733,1.801-1.102
		c0.032,0.232-0.149,0.467-0.551,0.7c-0.466,0.233-0.783,0.399-0.949,0.5c-0.033,0.333,0.101,0.685,0.399,1.05
		c0.3,0.4,0.467,0.717,0.5,0.95c2.233,0.899,4.283,0.616,6.149-0.851c-0.166,0.399-0.584,0.783-1.25,1.149
		c-0.699,0.367-1.217,0.483-1.551,0.351c0,0.101,0.066,0.166,0.2,0.199s0.218,0,0.25-0.1c0.067,0.133,0.034,0.434-0.1,0.9
		c-0.034,0.365,0.149,0.5,0.55,0.398c0,0.2,0.117,0.9,0.35,2.102c0.135,0.666,0,1.299-0.398,1.898
		c-0.233,0.102-0.366,0.018-0.4-0.25c-0.134,0-0.134,0.083,0,0.25c0.135,0.2,0.135,0.367,0,0.5c-0.167,0.232-0.517,0.482-1.05,0.75
		c-0.5,0.232-0.834,0.482-1,0.75c-0.101-0.167-0.283-0.268-0.55-0.3c-0.2,0.032-0.366,0.217-0.5,0.55
		c-0.2,0.467-0.333,0.732-0.4,0.8c-0.398-0.366-1.1-0.282-2.1,0.25c-1,0.567-1.717,0.65-2.15,0.25c-0.167,0-0.316,0.117-0.449,0.351
		c-0.166,0.233-0.316,0.351-0.449,0.351c-0.367-0.032-0.467-0.25-0.301-0.649c-0.5,0.232-0.884,0.416-1.149,0.551
		c-0.4,0.267-0.7,0.582-0.9,0.949c-0.2,0.066-0.384-0.033-0.55-0.301c-0.268-0.332-0.467-0.533-0.6-0.6
		c-0.935,0.268-1.685,0.4-2.25,0.4c-0.301,0.832-0.95,1.282-1.95,1.35c0.366,0.367,0.966,0.434,1.8,0.199
		c1.2-0.332,1.883-0.5,2.05-0.5c-1.065,0.733-3.065,1.233-6,1.5c0.233-0.232,0.685-0.383,1.351-0.449
		c-0.334-0.333-0.768-0.417-1.301-0.25c-0.565,0.167-0.949,0.518-1.148,1.05c-0.066-0.032-0.102-0.149-0.102-0.351
		c-0.199,0.768-0.467,1.268-0.8,1.5c-0.032,0.066-0.017,0.149,0.05,0.25s0.135,0.149,0.2,0.149c-0.7,0.7-1.85,1.185-3.45,1.45
		c0.102-0.2,0.066-0.35-0.1-0.45c-0.268-0.133-0.416-0.231-0.45-0.3c-0.233,0.033-0.399,0.066-0.5,0.102
		c-0.167,0.065-0.25,0.231-0.25,0.5c0.101,0.198,0.317,0.231,0.65,0.1c0.366-0.133,0.583-0.117,0.649,0.05
		c-0.468,0.134-1.301,0.233-2.5,0.3c-1.166,0.067-2,0.184-2.5,0.352c-0.033,0.267-0.117,0.517-0.25,0.75
		c-0.134,0.3-0.218,0.533-0.25,0.699c-0.468,0.133-1.101,0.551-1.899,1.25c-0.8,0.732-1.435,1.184-1.9,1.351
		c-0.399,0.133-0.917,0.435-1.55,0.899c-0.834,0.566-1.334,0.899-1.5,1c-0.232,0.066-0.4,0.117-0.5,0.149
		c-0.166,0.067-0.3,0.233-0.4,0.5c-1-0.167-1.565,0.718-1.699,2.649c0.899,0.367,1.982,0.483,3.25,0.351
		c2.033-0.2,3.185-0.3,3.449-0.3c0.269-0.1,1.051-0.566,2.352-1.4c0.898-0.6,1.768-0.916,2.6-0.949c1.2-1.166,2.45-2.101,3.75-2.801
		c1-0.566,2.567-1.25,4.7-2.05c-0.166,0.101-1.416,0.733-3.75,1.899c-1.435,0.733-2.435,1.5-3,2.301c0.435,0,1.149-0.217,2.149-0.65
		c1.066-0.433,1.884-0.666,2.449-0.699c-0.6,0.467-1.981,1.101-4.148,1.899c-1.801,0.667-3.051,1.5-3.75,2.5
		c-0.5,0.367-1.866,1.25-4.102,2.649c-1.699,1.066-3,2.051-3.898,2.951c0,0.065,0.066,0.133,0.199,0.198
		c0.134,0.033,0.185,0.084,0.149,0.15c0.601-0.333,1.685-0.685,3.25-1.05c1.4-0.467,2.417-1.25,3.05-2.352
		c1.668-0.467,4.019-1.383,7.051-2.75c1.601-0.666,2.482-1.017,2.649-1.05c0.3-0.065,0.767-0.065,1.4,0
		c0.466-0.133,1.532-0.633,3.2-1.5c1.332-0.7,2.5-1.05,3.5-1.05c-0.102,0.367-0.352,0.717-0.75,1.05
		c-0.2,0.033-0.352,0.05-0.45,0.05c-0.167,0-0.351-0.05-0.55-0.148c-2.602,0.933-4.533,1.633-5.801,2.1
		c-2.334,0.833-4.185,1.7-5.551,2.602c-0.466,0.1-1.199,0.433-2.199,1c-0.899,0.5-1.666,0.782-2.301,0.85
		c-0.898,0.667-3.365,1.768-7.398,3.3c-3.168,1.167-5.283,2.649-6.352,4.45c0.102,0.033,0.233,0.033,0.4,0
		c0.134-0.066,0.267-0.051,0.398,0.05c-0.1,0.167-0.115,0.435-0.05,0.8c0.067,0.268-0.017,0.434-0.25,0.5
		c0.2-0.066,0.4,0.15,0.601,0.65c0.267,0.533,0.601,0.833,1,0.9c-0.101,0.065-0.233,0.217-0.399,0.448
		c-0.166,0.233-0.315,0.384-0.45,0.45c0.268,0,0.333,0.367,0.2,1.102c-0.101-0.168-0.166-0.283-0.2-0.352
		c-0.066-0.1-0.033-0.25,0.102-0.45c-0.033,0-0.117,0.067-0.25,0.2c-0.102,0.102-0.234,0.102-0.4,0
		c-0.033,0.134,0.084,0.268,0.35,0.4c0.234,0.1,0.301,0.25,0.2,0.449c-0.065-0.199-0.233-0.334-0.5-0.399
		c-0.267-0.101-0.517-0.117-0.75-0.05c0.034,0.133,0.15,0.267,0.351,0.398c-0.032,0.167-0.133,0.2-0.301,0.102
		c-0.133-0.067-0.217-0.15-0.25-0.25c-0.133,0.1-0.166,0.232-0.1,0.398c0.033,0.102,0.1,0.233,0.2,0.4
		c-0.101,0.033-0.351,0.033-0.75,0c-0.333-0.066-0.601-0.033-0.8,0.1c-0.135-0.066-0.15-0.148-0.051-0.25
		c0.166-0.166,0.233-0.316,0.199-0.449c-0.167-0.033-0.25,0-0.25,0.101c-0.033,0.133-0.115,0.2-0.25,0.2
		c-0.066-0.067-0.083-0.2-0.05-0.4c0.065-0.167,0.2-0.3,0.399-0.398c-0.166-0.201-0.315-0.302-0.449-0.302
		c-0.301,0.033-0.5,0.052-0.602,0.052c0.033-0.135,0.168-0.233,0.4-0.302c0.2-0.065,0.283-0.217,0.25-0.448
		c-0.166-0.067-0.367,0.017-0.6,0.25c-0.135,0.1-0.283,0.231-0.45,0.398c-0.233-0.2-0.366-0.434-0.4-0.7c0-0.3-0.017-0.55-0.05-0.75
		c-0.066,0.302-0.283,0.435-0.65,0.4c-0.365-0.033-0.55-0.218-0.55-0.55c-0.032,0-0.1,0.065-0.2,0.199
		c-0.033,0.033-0.115-0.018-0.25-0.149c-0.166,0-0.25,0.05-0.25,0.149c0,0.033,0,0.166,0,0.399c-0.231-0.133-0.434-0.167-0.6-0.101
		c-0.268,0.101-0.434,0.149-0.5,0.149c0.3-0.366,0.3-0.616,0-0.75c-0.3-0.133-0.35-0.3-0.15-0.5c-0.231,0.067-0.467,0-0.699-0.198
		c-0.101-0.102-0.184-0.019-0.25,0.25c-0.101-0.668-0.184-1.185-0.25-1.552c-0.065,0-0.149,0.185-0.25,0.552
		c-0.166-0.102-0.233-0.269-0.199-0.5c-0.434,0.532-0.817,0.648-1.15,0.35c0.034,0.133,0.018,0.3-0.05,0.5
		c-0.101,0.199-0.133,0.417-0.101,0.65c-0.065-0.201-0.133-0.334-0.199-0.4c-0.102-0.133-0.167-0.033-0.2,0.3
		c-0.2-0.333-0.267-0.565-0.2-0.7c0.135-0.232,0.2-0.449,0.2-0.648c-0.133-0.033-0.267,0.082-0.399,0.35
		c-0.101,0.232-0.267,0.3-0.5,0.2c0.065,0.233,0.199,0.366,0.399,0.399c-0.3,0.101-0.45,0-0.45-0.301c0-0.433-0.033-0.683-0.1-0.75
		c-0.233-0.066-0.45,0.033-0.65,0.301c-0.066-0.033-0.1-0.117-0.1-0.25c0.033-0.134,0-0.217-0.102-0.25
		c-0.166,0.133-0.166,0.283,0,0.449c0.2,0.2,0.283,0.334,0.25,0.4c-0.266-0.167-0.434-0.117-0.5,0.15
		c-0.199-0.201-0.217-0.552-0.05-1.052c-0.065,0.067-0.216,0.084-0.45,0.052c-0.231-0.033-0.398-0.033-0.5,0
		c-0.033,0.133,0.051,0.217,0.25,0.25c0.269,0.032,0.418,0.065,0.45,0.1c-0.1,0.167-0.216,0.217-0.35,0.15
		c-0.167-0.135-0.317-0.15-0.45-0.052c0,0.067,0.05,0.185,0.15,0.351c0.065,0.101,0.016,0.184-0.15,0.25
		c0-0.133-0.05-0.299-0.15-0.5c-0.133-0.199-0.199-0.366-0.199-0.5c0.134,0.201,0.232,0.233,0.301,0.101
		c0-0.065-0.135-0.149-0.4-0.25c-0.066,0.033-0.115,0.185-0.148,0.45c-0.033,0.133-0.051,0.267-0.051,0.4
		c-0.033,0.1-0.149,0.133-0.351,0.1c-0.2,0-0.315,0.066-0.351,0.199c-0.032-0.101,0.033-0.25,0.199-0.449
		c0.2-0.167,0.316-0.167,0.352,0c0.1-0.5,0.017-0.801-0.25-0.9c-0.301-0.166-0.45-0.333-0.45-0.5
		c-0.367,0.301-0.685,0.217-0.95-0.25s-0.5-0.666-0.699-0.6c0.133,0.367,0.149,0.732,0.051,1.1c0.266,0.102,0.398,0.033,0.398-0.199
		c0.034-0.134,0.116-0.134,0.25,0c0.067,0.166,0.083,0.268,0.051,0.301l-0.25-0.15c-0.101,0.167-0.033,0.283,0.199,0.352l0.602,0.1
		c-0.301,0.5-0.467,0.816-0.5,0.949c-0.135-0.101-0.185-0.25-0.15-0.449c0.066-0.232,0.084-0.383,0.05-0.45
		c-0.065,0.067-0.233,0.218-0.5,0.45c-0.2,0.167-0.366,0.133-0.5-0.1c0,0.633-0.032,0.981-0.1,1.049
		c-0.134,0.201-0.45,0.283-0.95,0.25c0,0.033,0.2,0.066,0.6,0.101c0.334,0,0.435,0.185,0.301,0.55
		c0.301,0.033,0.517-0.017,0.649-0.148c0.067,0.199-0.032,0.3-0.3,0.3c-0.367,0-0.617,0.065-0.75,0.2c0,0.066,0,0.115,0,0.148
		c-0.4,0.135-0.684,0.434-0.85,0.9c0.1,0,0.199-0.051,0.3-0.15c0.1-0.066,0.216-0.066,0.35,0c-0.267,0.135-0.3,0.217-0.1,0.25
		c0.466,0,0.733,0.018,0.8,0.051c-0.467,0.199-0.566,0.434-0.3,0.699c-0.101,0.067-0.218,0.067-0.351,0
		c-0.199-0.033-0.316-0.133-0.351-0.3c0.065-0.133,0.133-0.149,0.2-0.05c0.066,0.167,0.134,0.25,0.199,0.25
		c0.101-0.268-0.101-0.467-0.601-0.6c-0.134,0-0.216,0.133-0.25,0.398c-0.065,0.367-0.116,0.566-0.149,0.602
		c-0.199-0.233-0.233-0.552-0.101-0.951c-0.233-0.032-0.333,0.084-0.3,0.351s-0.066,0.367-0.3,0.3c0.167-0.166,0.183-0.25,0.05-0.25
		c-0.232,0-0.367-0.05-0.4-0.148c0.2-0.067,0.352-0.135,0.45-0.2c0.134-0.101,0.134-0.25,0-0.45c-0.1,0-0.149,0.051-0.149,0.15
		c0,0.066,0.033,0.115,0.101,0.148c-0.399,0.067-0.7,0.117-0.899,0.15c-0.301,0.033-0.566,0-0.801-0.1
		c0,0.166,0.167,0.299,0.5,0.398c0.268,0.102,0.284,0.268,0.051,0.5c0.065-0.133,0.018-0.25-0.149-0.35
		c-0.134-0.102-0.284-0.033-0.45,0.199c-0.133-0.101-0.184-0.268-0.15-0.5c0.033-0.268,0.117-0.449,0.25-0.551
		c-0.332,0.102-0.55,0.067-0.648-0.1c-0.135-0.233-0.4-0.316-0.801-0.25c0.199-0.1,0.367-0.217,0.5-0.35
		c0.066-0.033,0.218,0.065,0.449,0.299c-0.166-0.332-0.365-0.517-0.6-0.549c-0.166,0-0.316,0-0.45,0
		c0.101,0.133,0.017,0.25-0.25,0.35c-0.3,0.1-0.565,0.1-0.8,0c0.5-0.066,0.834-0.184,1-0.35c-0.1-0.033-0.2-0.067-0.3-0.102
		c0.065-0.066,0.3-0.148,0.7-0.25c0.3-0.1,0.449-0.333,0.449-0.7c-0.066,0-0.149,0.185-0.25,0.552
		c-0.066-0.033-0.101-0.117-0.101-0.25c0.033-0.168,0.05-0.283,0.05-0.352c-0.134,0.033-0.232,0.117-0.3,0.25
		c-0.033,0.134,0.033,0.232,0.2,0.3c-0.268,0.134-0.602,0.218-1,0.25c0.1-0.5,0.365-0.75,0.8-0.75
		c-0.367-0.231-0.617-0.366-0.75-0.399c-0.2-0.066-0.633-0.032-1.3,0.101c0.3,0.033,0.533,0.149,0.699,0.351
		c0.066,0.101,0.218,0.066,0.449-0.101c0.102,0.067,0.084,0.2-0.05,0.399c-0.2,0.233-0.233,0.5-0.1,0.801
		c-0.167-0.1-0.284-0.167-0.351-0.2c-0.067-0.033-0.149,0.033-0.25,0.2c-0.101-0.033-0.117-0.167-0.051-0.4
		c0.067-0.267,0.102-0.433,0.102-0.5c-0.269,0.233-0.234,0.717,0.1,1.45c0.3,0.8,0.268,1.435-0.1,1.899
		c0.033-0.232-0.051-0.366-0.25-0.399c-0.168-0.065-0.185-0.167-0.051-0.3c-0.199,0.133-0.367,0.199-0.5,0.199
		c0,0.101,0.051,0.149,0.149,0.149c0.101-0.065,0.185-0.032,0.25,0.101c-0.233,0.134-0.45,0.084-0.649-0.149
		c-0.267-0.3-0.468-0.45-0.601-0.45c-0.065,0.268-0.05,0.4,0.05,0.4c0.268,0,0.417,0.017,0.45,0.05
		c-0.166,0.134-0.334,0.167-0.5,0.101c-0.367-0.166-0.584-0.25-0.649-0.25c0.133-0.134,0.217-0.268,0.25-0.399
		c-0.066,0-0.166,0.05-0.301,0.149c-0.1,0.066-0.216,0.066-0.35,0c0.267-0.134,0.3-0.217,0.1-0.25
		c-0.365-0.033-0.583-0.084-0.648-0.149c-0.033,0.032-0.066,0.1-0.102,0.2c-0.066,0.133-0.167,0.232-0.3,0.3
		c0.033-0.2,0-0.283-0.101-0.25c-0.166,0.032-0.268,0.032-0.301,0c-0.231-0.033-0.3-0.083-0.199-0.15
		c0.199-0.133,0.301-0.231,0.301-0.3c-0.2,0.134-0.4,0.102-0.602-0.1c0.2-0.033,0.234-0.102,0.102-0.2
		c-0.301-0.134-0.418-0.351-0.352-0.65c0.135-0.1,0.283-0.133,0.45-0.1c0.101,0,0.185-0.117,0.25-0.351l-0.649-0.101
		c-0.434-0.065-0.733,0-0.899,0.2c-0.101-0.133-0.017-0.233,0.25-0.301c0.3-0.101,0.467-0.199,0.5-0.299c-0.3,0-0.533,0-0.7,0
		c-0.267,0.032-0.5,0.133-0.699,0.299c0.065-0.232,0.065-0.366,0-0.399c-0.267-0.101-0.468-0.217-0.601-0.351
		c0.065,0.268,0.084,0.434,0.05,0.5c-0.033,0.066-0.199,0.117-0.5,0.149c0-0.198,0.116-0.267,0.352-0.198
		c-0.269-0.168-0.385-0.283-0.352-0.352c0.067-0.232,0.102-0.398,0.102-0.5c-0.066,0.2-0.15,0.268-0.25,0.2
		c-0.135-0.066-0.234-0.218-0.301-0.45c-0.166,0.102-0.218,0.184-0.149,0.25c0.065,0.066,0.167,0.15,0.3,0.25
		c-0.133,0.102-0.268,0.117-0.4,0.05c-0.166-0.166-0.35-0.315-0.55-0.448l0.15,0.198c0.065,0.101,0.083,0.2,0.05,0.302
		c-0.232-0.102-0.383-0.269-0.45-0.5c-0.032-0.201-0.233-0.317-0.6-0.352c0.167,0.134,0.216,0.25,0.149,0.352
		c-0.101,0.1-0.218,0.065-0.351-0.102c0.133,0.333,0.117,0.55-0.05,0.65c-0.301,0.267-0.467,0.416-0.5,0.449
		c-0.034,0-0.135-0.101-0.301-0.301c-0.133-0.1-0.217-0.1-0.25,0c-0.065-0.199-0.032-0.3,0.101-0.3s0.3,0.101,0.5,0.3
		c0.033-0.1,0-0.232-0.101-0.398c-0.065-0.135-0.018-0.25,0.149-0.352c-0.466-0.166-0.7-0.066-0.7,0.301
		c-0.166-0.199-0.217-0.399-0.148-0.601c0.066-0.267,0.066-0.483,0-0.649c-0.067,0-0.2,0.066-0.4,0.199
		c-0.066-0.066-0.115-0.166-0.148-0.3c-0.033-0.2-0.066-0.315-0.102-0.351c-0.167,0.033-0.267,0.218-0.3,0.551
		c-0.101-0.167-0.283-0.25-0.55-0.25c-0.268,0-0.45-0.066-0.551-0.2c-0.101,0.233-0.051,0.384,0.149,0.45
		c0.233,0.1,0.366,0.25,0.399,0.449c-0.266-0.199-0.615-0.316-1.049-0.351c-0.467-0.065-0.685,0.067-0.65,0.399
		c0,0.101,0.066,0.168,0.199,0.201c0.135,0.033,0.217,0,0.25-0.102c0.201,0.2,0.168,0.283-0.1,0.25
		c-0.301,0-0.449,0.033-0.449,0.102c0.065,0.199,0.082,0.35,0.049,0.449c0.066-0.033,0.168-0.084,0.301-0.15
		c0.1-0.032,0.199,0.018,0.3,0.15c-0.3,0.166-0.667,0.184-1.101,0.051c0.234,0,0.351-0.067,0.351-0.201
		c-0.233-0.133-0.45-0.133-0.649,0c-0.199,0.168-0.399,0.218-0.601,0.15c0.101-0.166,0.116-0.351,0.05-0.551
		c-0.1-0.232-0.133-0.416-0.1-0.55c0.633,0.333,1.084,0.399,1.35,0.2c-0.133-0.133-0.166-0.268-0.1-0.4
		c0.1-0.166,0.066-0.416-0.1-0.75c-0.102,0.2-0.269,0.283-0.5,0.25c-0.4-0.033-0.717-0.018-0.951,0.051
		c0.367,0.166,0.566,0.217,0.601,0.149c0.167,0.2-0.183,0.366-1.05,0.5c0.133-0.101,0.232-0.283,0.3-0.55
		c-0.065,0.033-0.183,0.166-0.351,0.4c-0.1,0.165-0.232,0.231-0.399,0.198c-0.267-0.033-0.366-0.149-0.3-0.351
		c0.033-0.133-0.033-0.166-0.2-0.1c-0.065,0.033-0.05,0.149,0.05,0.35c0.102,0.201,0.019,0.334-0.25,0.4
		c0.435-0.101,0.65,0.051,0.65,0.449c0.232,0,0.316-0.1,0.25-0.3c-0.1-0.2-0.066-0.333,0.1-0.399c0.301,0,0.5,0.033,0.602,0.1
		c0.134,0.066,0.232,0.218,0.3,0.451c-0.166,0.166-0.383,0.049-0.649-0.352c-0.101,0.066-0.166,0.184-0.199,0.352
		c0,0.166-0.084,0.282-0.25,0.35c-0.168,0-0.269-0.066-0.301-0.2c0-0.166-0.017-0.283-0.051-0.351c-0.167,0-0.3,0.018-0.398,0.051
		c-0.135,0.066-0.185,0.199-0.15,0.4c-0.2-0.4-0.482-0.301-0.85,0.299c-0.102-0.032-0.102-0.116,0-0.25c0.1-0.166,0.1-0.299,0-0.399
		c-0.066,0.033-0.15,0.101-0.25,0.2c-0.066,0.033-0.15,0.033-0.25,0c-0.102,0.333,0,0.517,0.3,0.55c-0.034,0.2-0.333,0.185-0.9-0.05
		c0.3-0.066,0.417-0.25,0.351-0.551c-0.101-0.467-0.149-0.732-0.149-0.799c-0.065,0-0.117,0.115-0.149,0.35
		c-0.033,0.199-0.149,0.3-0.351,0.3c-0.166-0.333-0.3-0.481-0.399-0.448c-0.301,0.065-0.584,0.065-0.851,0
		c0.166,0.198,0.149,0.35-0.05,0.448c-0.233,0.101-0.385,0.019-0.45-0.25c-0.133-0.033-0.166,0.019-0.101,0.149
		c0.033,0.168,0.084,0.268,0.149,0.301c-0.134,0.066-0.282-0.083-0.45-0.45c-0.166-0.366-0.082-0.583,0.25-0.649
		c-0.231,0-0.35,0.018-0.35,0.051c-0.033,0-0.1,0.15-0.2,0.449c-0.2-0.033-0.35-0.066-0.45-0.101
		c-0.166-0.065-0.199-0.183-0.1-0.351c-0.1,0-0.2,0.051-0.3,0.15l-0.05,0.051c-0.102,0.1-0.2,0.133-0.301,0.1
		c0.032,0.232,0.149,0.417,0.351,0.55c0.167-0.101,0.183-0.183,0.05-0.25c-0.133-0.133-0.166-0.267-0.1-0.399
		c0.533,0.434,0.666,0.733,0.398,0.899c0-0.231-0.066-0.351-0.199-0.351c0,0.201,0.065,0.451,0.199,0.75
		c0.102,0.168,0.067,0.218-0.1,0.15l-0.95-1.75c-0.2-0.101-0.399-0.084-0.601,0.051c-0.101,0.065-0.25,0.183-0.449,0.35
		c-0.168,0-0.25-0.1-0.25-0.301c0-0.166-0.067-0.267-0.2-0.299c-0.101,0.065-0.117,0.217-0.05,0.449
		c0.033,0.199-0.067,0.333-0.301,0.399c-0.065-0.2-0.416-0.283-1.051-0.25c-0.633,0.032-1.166,0.167-1.6,0.399
		c-0.133-0.3-0.584-0.467-1.35-0.5c-0.734-0.066-1.15-0.25-1.25-0.55c-0.168,0-0.217,0.083-0.15,0.25
		c0.066,0.199,0.05,0.351-0.051,0.449c-5.667,0.667-10.216,1.483-13.649,2.45c-1.566-0.167-3.75-0.167-6.55,0
		c-3.867,0.267-6.3,0.4-7.3,0.4c-0.7,0.032-1.75-0.033-3.15-0.201c-1.433-0.133-2.483-0.199-3.15-0.199
		c-0.967,0-2.35,0.117-4.15,0.351c-1.833,0.232-3.2,0.351-4.1,0.351c-1.6-0.033-3.783-0.268-6.55-0.7
		c-3.133-0.533-5.434-0.899-6.9-1.101c-0.067-0.232-0.067-0.434,0-0.601c0.133-0.065,0.367-0.065,0.7,0
		c0.167,0.033,0.434,0.101,0.8,0.2c0.066,0,0.133-0.066,0.2-0.2c0.033-0.133,0.083-0.199,0.15-0.199
		c0.133-0.733-0.233-1.301-1.1-1.7c-1.4-0.666-2.167-1.066-2.3-1.199c-1.066-1.066-1.867-1.867-2.4-2.4
		c-1-0.967-1.867-1.518-2.6-1.648c-0.967-0.201-2.667-0.768-5.1-1.701c-2.433-0.899-4.233-1.467-5.4-1.699
		c-0.667-0.133-1.683-0.518-3.05-1.148c-1.267-0.568-2.167-0.885-2.7-0.951c-1.1-0.101-1.917-0.25-2.45-0.449
		c-0.833-0.367-1.367-0.983-1.6-1.85c-0.3-0.102-1.6-0.701-3.9-1.802c-1.467-0.731-2.767-1.149-3.9-1.25
		c-0.7-0.433-1.216-0.767-1.55-1c-0.6-0.433-0.967-0.866-1.1-1.3c0.434-0.301,0.983-0.45,1.65-0.45s1.267,0.167,1.8,0.5
		c0.2,0.101,0.45,0.367,0.75,0.802c0.333,0.398,0.633,0.665,0.9,0.799l2.15,1.101c1.4,0.7,2.317,1.116,2.75,1.25
		c0.3,0.101,0.733,0.134,1.3,0.101c0.566-0.033,0.983-0.018,1.25,0.051c0.733,0.133,1.566,0.615,2.5,1.449
		c1.033,0.899,1.75,1.434,2.15,1.6c0.633-0.032,1.183,0.201,1.65,0.701c0.567,0.065,1.65,0.35,3.25,0.85c1.733,0.5,3.1,0.833,4.1,1
		c2.333,0.467,3.75,0.699,4.25,0.699c1.467,0.033,2.35-0.467,2.65-1.5c-0.533-0.332-1.3-0.649-2.3-0.949
		c-1.333-0.398-2.167-0.667-2.5-0.801c-1.1-0.666-1.784-0.967-2.05-0.899c-0.2-0.101-0.267-0.231-0.2-0.399
		c0.033-0.032,0.15-0.149,0.35-0.351c-1.367-0.467-3.316-1-5.85-1.601c-2.367-0.532-4.133-1.016-5.3-1.449
		c-0.433,0-0.667,0.102-0.7,0.3c0-0.3-0.1-0.467-0.3-0.5c-0.333,0-0.633-0.032-0.9-0.101l-7.25-1.699
		c-0.3-0.066-1.05-0.316-2.25-0.75c-0.967-0.366-1.733-0.566-2.3-0.6c-0.333,0.133-0.55,0.183-0.65,0.148
		c-0.267-0.066-0.517-0.199-0.75-0.398c-0.3-0.268-0.533-0.451-0.7-0.551c-0.333-0.166-1.417-0.518-3.25-1.051
		c-1.333-0.365-2.2-0.833-2.6-1.398c0.633,0.166,1.1,0.183,1.4,0.049c9.3,3.435,18.55,5.584,27.75,6.451
		c0.233-0.135,0.567-0.201,1-0.201c0.434-0.032,0.75,0.033,0.95,0.201c0.133-0.067,0.733-0.217,1.8-0.451
		c0.8-0.133,1.333-0.482,1.6-1.049c-0.033-0.567-0.467-0.983-1.3-1.25c-1.133-0.367-1.767-0.602-1.9-0.701
		c0.1-0.399,0.333-0.532,0.7-0.399l0.85,0.302c0.867-0.033,1.683-0.5,2.45-1.4c0.067-0.167,0.067-0.35,0-0.551
		c-0.133-0.232-0.2-0.366-0.2-0.399c-5.133-0.833-8.934-1.467-11.4-1.899c-4.367-0.732-7.934-1.666-10.7-2.801
		c0.633-0.333,1.817-0.183,3.55,0.45c1.767,0.634,3,0.833,3.7,0.601c2.667,1.066,6.2,1.899,10.6,2.5
		c2.467,0.301,6.05,0.732,10.75,1.301c0.333-0.233,1.117-0.25,2.35-0.051c0.667,0.133,1.633,0.301,2.9,0.5
		c2.333,0.232,5.483,0.467,9.45,0.699c0.1-0.033,0.233-0.166,0.4-0.398c0.167-0.233,0.333-0.334,0.5-0.301
		c0.4,0.899,1,1.25,1.8,1.051c0.333-0.067,0.65-0.217,0.95-0.45c0.1,0.032,0.167,0.116,0.2,0.25c0.067,0.133,0.167,0.2,0.3,0.2
		c0.367-0.135,0.566-0.301,0.6-0.5c-0.167-0.102-0.333-0.084-0.5,0.05c-0.167,0.1-0.316,0.116-0.45,0.05
		c0-0.033-0.017-0.066-0.05-0.1c0.233-0.233,0.467-0.5,0.7-0.801c-0.067-1.367-0.65-2.384-1.75-3.051
		c-0.833-0.5-2.2-0.898-4.1-1.199c-5.5-0.899-10.2-2.101-14.1-3.601c-0.767-0.3-2.617-0.833-5.55-1.601
		c-4.033-0.967-6.967-1.717-8.8-2.25c-1.767-0.666-3.083-1.066-3.95-1.199c-1.867-0.301-4.083-0.9-6.65-1.801
		c-3.567-1.232-5.633-1.934-6.2-2.101c0.033-0.166,0.167-0.183,0.4-0.05c0.267,0.066,0.4,0.033,0.4-0.1
		c-10.067-3.533-17.567-6.25-22.5-8.15c0-0.2,0.1-0.301,0.3-0.301c0.267-0.032,0.417-0.082,0.45-0.149
		c0.7,0.399,2.333,1.033,4.9,1.899c0.667,0.234,1.9,0.75,3.7,1.551c1.534,0.667,2.75,1.134,3.65,1.4
		c1.367,0.433,4.45,1.283,9.25,2.549c3.6,0.968,6.367,1.851,8.3,2.65c0.767-0.533,1.6-0.533,2.5,0c0.5,0.301,1.233,0.768,2.2,1.399
		c1.6,0.567,4.316,1.101,8.15,1.601c1.8,0.334,4.367,0.732,7.7,1.199c3.467,0.467,6.017,0.852,7.65,1.15
		c-0.167,0.1-0.2,0.184-0.1,0.25c0.133,0.1,0.167,0.217,0.1,0.35c0.5-0.033,1.033,0.051,1.6,0.25c0.667,0.232,1.2,0.352,1.6,0.352
		c-0.066,0.065-0.1,0.217-0.1,0.449c2.5,1.033,4.784,1.666,6.85,1.899c0.2,0.032,0.383-0.017,0.55-0.149
		c0.167-0.166,0.283-0.301,0.35-0.4c0.3,0.234,0.767,0.4,1.4,0.5c0.1-0.133,0.15-0.399,0.15-0.799c-0.033-0.533-0.033-0.867,0-1
		c-1-0.067-2.35-0.5-4.05-1.301c-1.667-0.801-2.816-1.217-3.45-1.25c0.033-0.268,0.183-0.367,0.45-0.301l0.65,0.25
		c0.466-0.865,0.133-1.55-1-2.05c-0.934-0.433-1.883-0.601-2.85-0.5c-1.033-0.7-2.417-1.183-4.15-1.45
		c-2.034-0.166-3.583-0.365-4.65-0.6c-0.833-0.168-2.433-0.783-4.8-1.85c-2-0.867-3.567-1.302-4.7-1.302
		c-0.533,0-1.316-0.283-2.35-0.851c-0.967-0.565-1.833-0.815-2.6-0.75c0.3-0.267,0.65-0.332,1.05-0.199
		c0.667,0.232,1.017,0.352,1.05,0.352c0.133,0.032,0.283,0,0.45-0.102c0.2-0.066,0.367-0.1,0.5-0.1c0.967-0.067,2.7,0.383,5.2,1.35
		c2.7,1,5.9,1.852,9.6,2.55c2.1,0.399,4.966,1.233,8.6,2.5c3.4,1.2,5.95,1.935,7.65,2.2c0.566,0.102,1.383,0.134,2.45,0.102
		c0.367,0.1,0.817,0.217,1.35,0.35c0.433,0,0.783-0.283,1.05-0.85c-1.267,0.133-2.533-0.102-3.8-0.701
		c0.9-0.066,2.167,0.116,3.8,0.551c0.1-0.967-1.066-1.584-3.5-1.85c-0.8-0.135-1.75-0.5-2.85-1.102c-1.1-0.7-1.883-1.148-2.35-1.35
		c-0.967-0.435-2.3-0.867-4-1.301c-1.967-0.533-3.333-0.934-4.1-1.199c0.4-0.367,1.117-0.317,2.15,0.148
		c1.1,0.5,1.85,0.634,2.25,0.4c0.733,0.434,1.483,0.717,2.25,0.85c0,0.066-0.1,0.102-0.3,0.102c0.4,0.199,1.333,0.517,2.8,0.949
		c1.233,0.434,2.7,0.866,4.4,1.301c0.967,0.232,2.417,0.582,4.35,1.049c0-0.532,0.05-0.934,0.15-1.199c0.067,0,0.2-0.033,0.4-0.1
		c0.167-0.067,0.333-0.067,0.5,0c-0.133,0.133-0.217,0.267-0.25,0.398c0.033,0,0.2-0.1,0.5-0.3c0.2-0.134,0.383-0.2,0.55-0.2
		c-0.533-1.268-2.4-2.283-5.6-3.05c-3.267-0.8-5.183-1.833-5.75-3.101c-0.066-0.066-0.467-0.199-1.2-0.399
		c-0.5-0.134-0.733-0.351-0.7-0.649c0.367,0.399,1.067,0.616,2.1,0.649c1.133,0,1.917,0.167,2.35,0.5
		c0.1,0.101,0.25,0.351,0.45,0.75c1.4,0.866,2.8,1.399,4.2,1.601c0.933,0.1,1.5,0.149,1.7,0.149c0.7,0,1.167-0.167,1.4-0.5
		c-2.2-1.033-6.184-2.683-11.95-4.95c-0.767-0.366-1.333-0.633-1.7-0.8c-0.633-0.267-1.25-0.366-1.85-0.3
		c-0.5-0.768-1.417-1.4-2.75-1.9c0.2-0.398,0.45-0.5,0.75-0.3c0.2,0.101,0.45,0.267,0.75,0.5c1.4,0.467,3.417,1.351,6.05,2.649
		c0.6,0.268,1.617,0.649,3.05,1.149c1.267,0.435,2.267,0.817,3,1.149c1.1,0.5,2.733,1.15,4.9,1.951c0.466,0.199,1.2,0.6,2.2,1.199
		c0.833,0.434,1.467,0.449,1.9,0.051c-0.1-0.768-0.117-1.385-0.05-1.852c-1.3-0.8-4.117-2.199-8.45-4.199
		c-3.667-1.667-6.316-3.167-7.95-4.5c-2.1-0.4-3.283-0.65-3.55-0.75c-1.167-0.467-1.767-1.301-1.8-2.5
		c-0.667-0.533-1.867-1.268-3.6-2.199c-1.7-0.9-2.9-1.635-3.6-2.201c-0.2,0-0.216,0.051-0.05,0.15
		c-1.067-0.533-2.667-1.434-4.8-2.699C90.217,163.35,88.467,162.333,87.7,161.9z M85.3,149.3c-0.267,0.067-0.633-0.017-1.1-0.25
		c-0.534-0.267-0.917-0.45-1.15-0.55C83.45,148.434,84.2,148.7,85.3,149.3z M89.3,151.6c-1.8-0.933-2.933-1.5-3.4-1.699
		c0.9,0.199,2.033,0.666,3.4,1.399c1.7,0.935,2.817,1.5,3.35,1.7C91.783,152.8,90.667,152.333,89.3,151.6z M98.05,152.75
		c-1.933-0.9-4.716-2.417-8.35-4.55c-3.833-2.267-6.583-3.817-8.25-4.65c2.3,1.033,5.1,2.5,8.4,4.4
		C91.683,149.017,94.417,150.617,98.05,152.75z M96.2,155.25c-0.434-0.2-0.667-0.417-0.7-0.65c0.233,0.067,0.5,0.217,0.8,0.45
		c0.3,0.2,0.583,0.333,0.85,0.4C96.917,155.518,96.6,155.45,96.2,155.25z M92.75,153.35c0.033-0.133,0.183-0.115,0.45,0.051
		c0.3,0.199,0.5,0.218,0.6,0.051c0.1,0,0.133,0.1,0.1,0.3c-0.066,0.2,0,0.267,0.2,0.2c-0.1-0.233,0.033-0.217,0.4,0.05
		c0.5,0.333,0.783,0.517,0.85,0.55c-0.333,0.033-0.767-0.115-1.3-0.449C93.217,153.6,92.783,153.35,92.75,153.35z M93.5,132.5
		c0-0.167,0.067-0.25,0.2-0.25c1.966,1.6,4.917,3.967,8.85,7.1c-1.133-0.6-2.633-1.699-4.5-3.3
		C95.983,134.283,94.467,133.1,93.5,132.5z M93.45,132c-0.4-0.033-0.883-0.3-1.45-0.8c-0.867-0.767-1.333-1.167-1.4-1.2
		C90.833,130.033,91.783,130.7,93.45,132z M90.25,134.45c-0.133,0-0.25-0.067-0.35-0.2c0.3-0.367,0.517-0.417,0.65-0.15
		C90.517,134.3,90.417,134.417,90.25,134.45z M90.1,129.4c-0.1,0.133-0.25,0.116-0.45-0.051c-0.233-0.199-0.4-0.3-0.5-0.3
		c0.067-0.267,0.217-0.3,0.45-0.1C89.9,129.25,90.067,129.4,90.1,129.4z M100.5,142.35c0.033-0.133,0-0.232-0.1-0.3
		c0.2-0.1,0.35-0.1,0.45,0c0.066,0.067,0.2,0.184,0.4,0.351C101.217,142.6,100.967,142.583,100.5,142.35z M135.05,64.3
		c0.167,0.067,0.267,0.25,0.3,0.55c0.033,0.334,0.1,0.551,0.2,0.65c-0.133,0.066-0.267-0.05-0.4-0.35
		C135.017,64.85,134.983,64.566,135.05,64.3z M175.1,90.6c0,0.2-0.016,0.467-0.05,0.801c-0.032,0.3,0,0.583,0.101,0.85
		c-0.233-0.333-0.399-0.65-0.5-0.95C174.518,90.8,174.666,90.566,175.1,90.6z M175,93.45c0.1-0.167,0.133-0.333,0.1-0.5
		c-0.033-0.233-0.033-0.417,0-0.55c0.602,2.566,1.734,6.649,3.4,12.25c1.533,5.232,2.617,9.35,3.25,12.35
		c0,0.033-0.018,0.066-0.05,0.1c-0.034,0.033-0.101,0.051-0.2,0.051c-0.166,0.033-0.268,0.083-0.3,0.149l0.35,0.15
		c0.034-0.134,0.083-0.25,0.15-0.351c0.399,0.567,0.399,0.983,0,1.25c0,0.134,0.149,0.167,0.45,0.101
		c-0.102,0.233-0.117,0.467-0.051,0.7c0.032,0.133,0.101,0.316,0.199,0.55c-0.199,0.133-0.35,0.233-0.449,0.3
		c-0.199,0.133-0.316,0.333-0.351,0.6c-0.033-0.033-0.101-0.166-0.2-0.399c-0.066-0.167-0.216-0.233-0.449-0.2
		c0.065,0.133,0.149,0.233,0.25,0.3c0.032,0.033,0.051,0.15,0.051,0.351c-0.4-0.434-0.867-1.667-1.4-3.7
		c-0.166-0.967-0.283-1.684-0.35-2.15c-0.168-0.833-0.4-1.467-0.7-1.899c-0.034-0.733-0.083-1.283-0.15-1.65
		c-0.1-0.633-0.25-1.15-0.45-1.55c-0.533-3.7-0.949-6.467-1.25-8.3C176.316,98.2,175.7,95.55,175,93.45z M177.55,84.25
		c0,0.133,0.067,0.217,0.2,0.25c0.133,1.1,0.133,1.467,0,1.1c-0.166-0.399-0.283-0.949-0.35-1.649
		C177.467,83.983,177.518,84.083,177.55,84.25z M159.65,83.25h0.25c1,2.833,2.5,7,4.5,12.5c2.365,6.5,4.1,11.917,5.199,16.25
		c-0.935-2.367-2.517-6.9-4.75-13.6c-2-6.101-3.699-10.768-5.101-14C159.783,84.066,159.75,83.684,159.65,83.25z"/>
</g>
</svg>
