<?xml version="1.0" encoding="utf-8"?>
<!-- Generator: Adobe Illustrator 16.0.0, SVG Export Plug-In . SVG Version: 6.00 Build 0)  -->
<!DOCTYPE svg PUBLIC "-//W3C//DTD SVG 1.1//EN" "http://www.w3.org/Graphics/SVG/1.1/DTD/svg11.dtd">
<svg version="1.1" id="Layer_1" xmlns="http://www.w3.org/2000/svg" xmlns:xlink="http://www.w3.org/1999/xlink" x="0px" y="0px"
	 width="300px" height="300px" viewBox="0 0 300 300" enable-background="new 0 0 300 300" xml:space="preserve">
<g>
	<path fill="#FFD32A" d="M162.797,28.835c1.615,4.508,1.607,8.127-0.021,10.857c-1.776,2.98-5.015,3.803-9.713,2.467
		c-5.623-1.807-9.38-2.525-11.274-2.159c-1.645,0.323-2.511,1.688-2.599,4.097c-0.015,0.499,0.066,2.511,0.242,6.034
		c0.176,3.098,0.147,5.851-0.088,8.258c-0.705,7.649-3.516,14.924-8.435,21.824c-4.478,5.359-6.621,10.285-6.43,14.777
		c0.059,1.615,0.433,3.392,1.123,5.329c0.381,1.102,0.983,2.673,1.806,4.713c1.41,3.598,2.122,6.203,2.136,7.818
		c0,1.395-0.528,2.144-1.586,2.246c-1.071,0.161-1.916-0.727-2.532-2.665c-0.543-1.703-0.837-3.941-0.881-6.717
		c-0.044-2.466-1.057-5.872-3.039-10.218c-1.923-4.199-4.294-8.28-7.113-12.245c-2.158-3.42-4.588-5.549-7.29-6.386
		c-2.745-0.837-5.205-0.162-7.377,2.025c-2.378,2.379-4.016,6.24-4.911,11.584c-1.027,6.049-0.998,13.5,0.088,22.353
		c1.13,9.294,1.784,14.836,1.96,16.627c0.631,6.65,0.808,12.164,0.529,16.539c-0.734,11.833-4.948,17.75-12.641,17.75
		c-8.647,0-12.193-7.994-10.637-23.982c0.558-5.799,1.762-12.273,3.612-19.424c1.468-5.667,3.024-10.666,4.668-14.997
		c1.747-4.596,2.43-9.521,2.048-14.777c-0.294-3.905-1.248-8.441-2.863-13.609c-1.879-5.491-3.157-9.433-3.832-11.826
		c-1.145-4.022-1.46-7.187-0.946-9.491c3.714-16.767,11.804-28.718,24.268-35.853c9.279-5.3,21.443-8.046,36.491-8.236
		c6.225-0.088,11.73,1.718,16.517,5.417C158.201,20.166,161.107,24.122,162.797,28.835z M121.813,119.92
		c-0.396,2.349-1.123,4.984-2.18,7.905c-0.617,1.688-1.644,4.464-3.083,8.325c-2.775,8.162-4.588,18.22-5.439,30.17
		c-0.338,4.845-1.211,18.477-2.621,40.896c-1.615,25.429-2.591,41.438-2.929,48.031c-0.176,3.435,0.521,8.354,2.092,14.755
		c0.587,2.495,0.352,4.471-0.705,5.924c-0.939,1.292-2.18,1.835-3.721,1.631c-1.586-0.191-2.731-1.08-3.436-2.666
		c-0.807-1.85-0.727-4.177,0.243-6.98c1.321-5.652,2.283-10.063,2.885-13.235c1.086-5.755,1.571-10.108,1.454-13.059
		c0.44-7.664,1.123-21.921,2.048-42.769c1.028-23.08,1.688-39.58,1.982-49.507c0.029-0.777-0.198-2.627-0.683-5.549
		c-0.661-3.891-1.167-6.981-1.52-9.271c-1.439-9.132-1.982-15.849-1.629-20.15c0.352-4.082,1.637-7.245,3.854-9.492
		c2.026-2.055,4.279-2.877,6.76-2.466c2.555,0.44,4.478,2.077,5.771,4.91C122.437,110.567,122.724,114.767,121.813,119.92z
		 M142.977,117.981c0.749,3.289,1.05,5.3,0.903,6.034c-0.308,1.674-1.005,2.599-2.092,2.775c-1.116,0.19-1.931-0.654-2.445-2.533
		c-0.308-1.159-0.25-3.421,0.176-6.782c0.396-3.01,0.83-5.264,1.299-6.762C141.508,112.285,142.228,114.708,142.977,117.981z"/>
	<path fill="#FEE46B" d="M138.88,89.463c0-1.087,0.382-2.012,1.145-2.775c0.778-0.763,1.71-1.145,2.797-1.145
		c1.483,0,2.606,0.117,3.37,0.353c1.145,0.366,1.717,1.034,1.717,2.004c0,1.321-0.3,2.672-0.903,4.052
		c-0.69,1.615-1.527,2.423-2.51,2.423c-1.13,0-2.342-0.544-3.634-1.63C139.541,91.613,138.88,90.52,138.88,89.463z"/>
</g>
</svg>
