<?xml version="1.0" encoding="utf-8"?>
<!-- Generator: Adobe Illustrator 16.0.0, SVG Export Plug-In . SVG Version: 6.00 Build 0)  -->
<!DOCTYPE svg PUBLIC "-//W3C//DTD SVG 1.1//EN" "http://www.w3.org/Graphics/SVG/1.1/DTD/svg11.dtd">
<svg version="1.1" id="Layer_1" xmlns="http://www.w3.org/2000/svg" xmlns:xlink="http://www.w3.org/1999/xlink" x="0px" y="0px"
	 width="300px" height="300px" viewBox="0 0 300 300" enable-background="new 0 0 300 300" xml:space="preserve">
<g>
	<path fill-rule="evenodd" clip-rule="evenodd" fill="#20100B" d="M108.659,127.042c4.676-2.83,8.334-6.635,10.973-11.416
		c-2.056,6.976-5.997,12.681-11.825,17.115c-5.944,4.508-12.65,6.763-20.117,6.763c-4.524,0-8.848-0.873-12.97-2.617
		c-3.978-1.678-7.505-4.055-10.581-7.13c-3.075-3.075-5.452-6.603-7.13-10.581c-1.744-4.122-2.615-8.446-2.615-12.97
		c0-7.467,2.254-14.172,6.762-20.117c4.434-5.828,10.139-9.77,17.116-11.825c-4.78,2.64-8.586,6.297-11.416,10.973
		c-2.908,4.808-4.362,10.04-4.362,15.697c0,4.138,0.802,8.094,2.405,11.866c1.538,3.645,3.708,6.874,6.512,9.688
		c2.814,2.803,6.044,4.973,9.688,6.511c3.776,1.604,7.724,2.406,11.843,2.406C98.6,131.404,103.84,129.95,108.659,127.042z
		 M220.551,169.676c-0.272,0.272-0.596,0.409-0.969,0.409h-0.485v2.207h1.122v1.764h-1.122v1.319h1.122v1.746h-1.122v29.094
		c2.146-5.855,5.687-10.695,10.622-14.518c5.026-3.905,10.698-6.128,17.017-6.669l-0.017-0.134c0-0.468,0.142-0.889,0.426-1.262
		c0.257-0.351,0.604-0.602,1.045-0.754v-3.55h0.268v-5.991h0.796v5.991h0.257v3.55c0.436,0.152,0.789,0.403,1.063,0.754
		c0.271,0.373,0.409,0.794,0.409,1.262v0.058c4.792,0.206,9.302,1.407,13.529,3.604c4.123,2.133,7.624,5.017,10.505,8.647v-20.082
		h-1.127v-1.746h1.127v-1.319h-1.127v-1.764h1.127v-2.207h-0.483c-0.374,0-0.697-0.137-0.971-0.409
		c-0.257-0.272-0.385-0.596-0.385-0.969v-0.252c0-0.374,0.128-0.69,0.385-0.951c0.273-0.269,0.597-0.403,0.971-0.403h0.483
		l2.733-17.833l2.324,17.833h0.485c0.373,0,0.696,0.135,0.969,0.403c0.261,0.261,0.391,0.577,0.391,0.951v0.252
		c0,0.373-0.13,0.696-0.391,0.969c-0.272,0.272-0.596,0.409-0.969,0.409h-0.485v2.207h1.128v1.764h-1.128v1.319h1.128v1.746h-1.128
		v29.169c1.319,3.632,1.979,7.329,1.979,11.089c0,0.012-0.02,0.386-0.059,1.122H12.704v-41.38h-1.127v-1.746h1.127v-1.319h-1.127
		v-1.764h1.127v-2.207h-0.467c-0.374,0-0.697-0.137-0.97-0.409c-0.257-0.272-0.385-0.596-0.385-0.969v-0.252
		c0-0.374,0.128-0.69,0.385-0.951c0.273-0.269,0.596-0.403,0.97-0.403h0.484l2.733-17.833l2.325,17.833h0.484
		c0.377,0,0.694,0.135,0.952,0.403c0.273,0.272,0.409,0.59,0.409,0.951v0.252c0,0.373-0.136,0.696-0.409,0.969
		c-0.257,0.272-0.575,0.409-0.952,0.409h-0.484v2.207h1.126v1.764h-1.126v1.319h1.126v1.746h-1.126v29.094
		c2.145-5.855,5.686-10.695,10.622-14.518c5.014-3.905,10.688-6.128,17.022-6.669l-0.023-0.134c0-0.468,0.142-0.889,0.426-1.262
		c0.261-0.351,0.611-0.602,1.051-0.754v-3.55h0.251v-5.991h0.794v5.991h0.269v3.55c0.44,0.152,0.796,0.403,1.068,0.754
		c0.273,0.373,0.409,0.794,0.409,1.262l-0.024,0.058c4.808,0.206,9.324,1.407,13.548,3.604c4.111,2.133,7.607,5.017,10.488,8.647
		v-20.082H72.56v-1.746h1.121v-1.319H72.56v-1.764h1.121v-2.207h-0.461c-0.378,0-0.701-0.137-0.969-0.409
		c-0.261-0.272-0.391-0.596-0.391-0.969v-0.252c0-0.374,0.13-0.69,0.391-0.951c0.269-0.269,0.591-0.403,0.969-0.403h0.485
		l2.732-17.833l2.324,17.833h0.484c0.374,0,0.691,0.135,0.953,0.403c0.268,0.272,0.402,0.59,0.402,0.951v0.252
		c0,0.373-0.134,0.696-0.402,0.969c-0.261,0.272-0.579,0.409-0.953,0.409h-0.484v2.207h1.121v1.764h-1.121v1.319h1.121v1.746h-1.121
		v19.499c3.85-5.311,9.645-9.91,17.384-13.8c4.368-2.184,11.514-4.975,21.437-8.373c8.981-3.092,15.198-5.671,18.652-7.738
		c5.438-3.242,8.448-7.164,9.028-11.766c-0.53-0.023-0.976-0.222-1.338-0.596c-0.361-0.39-0.542-0.85-0.542-1.379
		c0-0.518,0.174-0.957,0.525-1.319c0.35-0.374,0.783-0.586,1.297-0.637v-4.438c-1.912-0.467-3.48-1.47-4.708-3.007
		c-1.253-1.564-1.88-3.354-1.88-5.367c0-2.238,0.755-4.185,2.266-5.839c1.515-1.639,3.375-2.562,5.583-2.768
		c-1.499,0.502-2.719,1.394-3.661,2.674c-0.97,1.305-1.455,2.771-1.455,4.398c0,2.055,0.73,3.813,2.189,5.273
		c1.449,1.448,3.201,2.172,5.255,2.172c1.628,0,3.1-0.484,4.415-1.454c1.281-0.942,2.167-2.163,2.657-3.661
		c-0.206,2.207-1.123,4.068-2.75,5.583c-1.655,1.511-3.607,2.266-5.857,2.266c-0.58,0-1.141-0.059-1.682-0.176v4.345
		c0.502,0.063,0.928,0.274,1.279,0.637c0.347,0.374,0.52,0.813,0.52,1.319c0,0.518-0.182,0.965-0.543,1.338
		c-0.363,0.373-0.801,0.586-1.314,0.637c0.592,4.756,3.81,8.802,9.653,12.135c3.398,1.953,9.987,4.611,19.767,7.971
		c9.989,3.422,17.388,6.45,22.196,9.086c7.805,4.306,13.438,9.507,16.899,15.604v-22.617h-1.121v-1.746h1.121v-1.319h-1.121v-1.764
		h1.121v-2.207h-0.485c-0.373,0-0.696-0.137-0.969-0.409c-0.257-0.272-0.386-0.596-0.386-0.969v-0.252
		c0-0.374,0.129-0.69,0.386-0.951c0.272-0.269,0.596-0.403,0.969-0.403h0.485l2.733-17.833l2.329,17.833h0.485
		c0.373,0,0.696,0.135,0.969,0.403c0.258,0.261,0.385,0.577,0.385,0.951v0.252C220.936,169.08,220.809,169.403,220.551,169.676z
		 M88.525,98.031l1.296,4.029h4.246l-3.434,2.5l1.319,4.029l-3.427-2.475l-3.452,2.475l1.314-4.029l-3.428-2.5h4.245L88.525,98.031z
		"/>
</g>
</svg>
