<?xml version="1.0" encoding="utf-8"?>
<!-- Generator: Adobe Illustrator 16.0.0, SVG Export Plug-In . SVG Version: 6.00 Build 0)  -->
<!DOCTYPE svg PUBLIC "-//W3C//DTD SVG 1.1//EN" "http://www.w3.org/Graphics/SVG/1.1/DTD/svg11.dtd">
<svg version="1.1" id="Layer_1" xmlns="http://www.w3.org/2000/svg" xmlns:xlink="http://www.w3.org/1999/xlink" x="0px" y="0px"
	 width="300px" height="300px" viewBox="0 0 300 300" enable-background="new 0 0 300 300" xml:space="preserve">
<g>
	<path fill-rule="evenodd" clip-rule="evenodd" fill="#361212" d="M231.704,77.823c2.315,0.975,5.361,1.929,9.141,2.863
		c4.671,4.387,4.711,8.692,0.121,12.917l-1.949,2.316l-0.123,1.523c0.285,1.828,2.661,4.712,7.13,8.652l2.133,3.535
		c-3.98-0.325-6.561-0.752-7.739-1.279l1.646,2.254l-10.726-5.119l-3.777-5.727l-5.484,0.852c-1.99-0.203-3.432,0.385-4.326,1.767
		c-0.689,0.732-0.568,1.646,0.366,2.742c5.078,4.184,9.038,9.81,11.882,16.879l4.509,11.211c0.528,1.259,1.26,8.45,2.193,21.571
		l-0.73,5.302l0.486,1.279l-0.365,0.854c-0.04,3.412-0.446,5.991-1.219,7.738l-0.061,1.523l0.487,1.218l9.444-1.584
		c2.56,0.406,4.895,0.183,7.008-0.67l6.946-0.671c3.737-1.502,7.637-1.381,11.7,0.366c1.584,0.324,2.68,1.807,3.289,4.448
		c0.813,2.071,1.077,3.899,0.793,5.483c-0.771,6.622-3.251,14.868-7.434,24.739c-2.763,6.419-4.652,12.491-5.667,18.219
		l-1.463,10.725c-0.365,1.585-2.193,4.246-5.484,7.982l-4.509-3.96c-1.503-1.3-2.376-2.865-2.62-4.693l0.366-0.914l-1.158-4.63
		c0.122-0.975,0.67-1.421,1.646-1.341l3.352-0.671c0.853-0.323,1.096-2.111,0.73-5.361l8.104-30.041
		c0.609-4.59-4.956-5.239-16.695-1.949l-27.115,11.639c-1.667,0.689-2.763,0.426-3.291-0.793c-1.382-2.356-2.153-3.717-2.316-4.082
		c-2.112-1.626-5.32-3.006-9.626-4.144c-1.179-0.529-9.222-0.671-24.13-0.427c-6.987-0.568-15.538-2.661-25.653-6.276
		c-0.61-0.243-5.687-3.271-15.234-9.078c-4.508-3.982-7.514-4.225-9.017-0.731l-2.742,7.677c-3.454,3.291-6.642,5.524-9.567,6.703
		c-3.981,2.113-8.875,3.127-14.685,3.046c-6.215,0.123-11.232,0.225-15.05,0.305l-5.119-0.121
		c-5.077,0.609-10.806,4.368-17.183,11.272c-3.574,4.347-9.018,9.445-16.33,15.294c-4.875,3.412-7.718,6.48-8.531,9.201l-3.107,8.53
		l-2.132,0.123c-4.997-5.199-7.007-10.177-6.033-14.929l4.265-3.9l2.255-1.645c0.65-0.731,0.629-1.931-0.062-3.595l1.523,0.121
		c9.953-1.625,17.285-6.764,21.998-15.416l2.864-5.483l0.975-1.158l2.133-7.373c0.325-1.544,1.321-2.641,2.986-3.29l6.824-2.803
		c11.212-4.51,18.219-10.481,21.022-17.915c1.584-2.071,2.235-4.021,1.951-5.849l3.717-8.775c4.671-7.637,6.905-11.66,6.703-12.065
		l0.365-0.914l-0.244-0.549c-2.478-1.461-5.159-5.727-8.042-12.796c6.012,0.528,10.805,3.433,14.38,8.714l0.914,0.366l7.068-2.133
		c2.925-1.137,6.5-1.848,10.724-2.133c4.59,0.569,12.126,3.088,22.607,7.556l22.605,11.151c8.733,3.696,14.848,5.077,18.341,4.143
		c2.072-0.813,3.677-3.392,4.814-7.738l-0.365-6.337l0.242-2.986c-1.259-4.346-3.676-9.18-7.25-14.501
		c-3.697-6.703-6.216-11.7-7.556-14.991c-1.342-5.727-1.646-10.683-0.914-14.867c-9.749-6.174-15.538-13.974-17.366-23.399
		c2.356,2.396,6.418,4.124,12.187,5.18c4.915,1.422,8.368,3.412,10.358,5.971l0.427-0.852
		c-4.021-12.391-15.822-19.459-35.402-21.206c-20.108-2.031-34.813,3.412-44.116,16.331c-7.068,11.049-7.861,24.638-2.377,40.764
		c0.325,0.813,0.184,1.604-0.426,2.376c-0.446,0.163-0.955,0.123-1.523-0.121c-1.828-2.153-3.676-5.504-5.545-10.054
		c-4.184-10.4-5.24-19.621-3.169-27.664c3.615-14.989,12.431-26.059,26.445-33.208c-11.455,0.284-20.859,6.276-28.211,17.975
		c-7.8,11.862-10.054,24.84-6.765,38.937c0.407,2.193,0.103,3.269-0.914,3.229c-0.975-0.081-1.665-1.238-2.071-3.473
		c-4.185-12.796-4.104-25.145,0.243-37.047c3.454-10.562,9.039-18.849,16.757-24.861c15.437-12.024,34.427-14.624,56.973-7.8
		c21.124,6.947,36.113,19.011,44.97,36.195c7.84,5.036,12.227,8.083,13.161,9.14C219.943,72.46,224.758,74.857,231.704,77.823z
		 M244.5,211.693l2.193-8.836c1.422-2.478,2.093-4.448,2.011-5.91c-0.162-0.366-1.462-1.767-3.899-4.204
		c-0.976-0.082-1.625-0.528-1.95-1.341l3.352-0.609c7.475-3.007,10.826-2.438,10.054,1.706l-1.949,9.506l-4.814,14.929
		c-0.649,3.169-1.319,5.139-2.011,5.911c-0.081,0.975-0.935,1.807-2.559,2.498c-1.016-0.082-1.768,0.446-2.254,1.584l0.426,6.337
		c-1.707,3.087-3.636,5.565-5.789,7.434c-1.584,2.072-2.701,3.493-3.351,4.266c-1.463,1.097-3.107,1.747-4.936,1.95
		c0.405-2.56,0.142-6.783-0.793-12.675c0.081-3.412,0.975-5.95,2.682-7.616c2.518,1.421,5.058,1.116,7.616-0.914
		C240.356,223.026,242.348,218.355,244.5,211.693z M250.471,167.333c-4.915,1.017-8.651,1.3-11.212,0.854l0.609-7.434
		c2.479,1.382,6.521,3.614,12.126,6.703L250.471,167.333z M80.467,160.631c1.057-0.934,3.087-2.498,6.093-4.691
		c3.169-1.747,5.22-3.271,6.154-4.57l-1.157,2.559l-0.123,1.523c-2.153,6.662-9.079,12.837-20.778,18.524l-7.434,3.046
		c-0.61-0.284-1.239-0.061-1.889,0.67c-1.828,5.119-3.311,8.634-4.448,10.542c-1.666,3.088-7.515,7.129-17.549,12.126l-14.075,6.459
		c-4.306,6.094-7.86,10.399-10.663,12.918l-0.366,0.913l-1.036,1.158l-1.097-1.035l-1.28-3.107v-7.251
		c-0.203-5.24,0.813-9.263,3.047-12.065c2.519-1.016,3.9-1.808,4.143-2.377l1.828-0.791l2.682,1.096
		c0.894,1.098,2.579,1.138,5.057,0.123c3.9-1.098,8.429-3.636,13.588-7.617c5.403-2.193,9.791-5.646,13.162-10.358l1.219-0.549
		l4.509-6.824l5.179-1.401C69.987,168.187,75.065,165.182,80.467,160.631z"/>
</g>
</svg>
