<?xml version="1.0" encoding="utf-8"?>
<!-- Generator: Adobe Illustrator 16.0.0, SVG Export Plug-In . SVG Version: 6.00 Build 0)  -->
<!DOCTYPE svg PUBLIC "-//W3C//DTD SVG 1.1//EN" "http://www.w3.org/Graphics/SVG/1.1/DTD/svg11.dtd">
<svg version="1.1" id="Layer_1" xmlns="http://www.w3.org/2000/svg" xmlns:xlink="http://www.w3.org/1999/xlink" x="0px" y="0px"
	 width="300px" height="300px" viewBox="0 0 300 300" enable-background="new 0 0 300 300" xml:space="preserve">
<g>
	<path fill-rule="evenodd" clip-rule="evenodd" fill="#010101" d="M220.241,19.745c0.081,0.614,0.158,1.235,0.232,1.864
		c0.171,1.745,0.237,3.549,0.2,5.413c0,0.03,0,0.052,0,0.067c-0.06,3.749-0.556,7.04-1.486,9.872
		c-0.023,0.044-0.037,0.089-0.045,0.133h5.446c0.015-0.044,0.03-0.089,0.044-0.133c1.125-2.706,1.735-5.997,1.831-9.872
		c0-0.104,0-0.21,0-0.322c0.028-1.79-0.041-3.509-0.211-5.158c-0.073-0.643-0.158-1.276-0.255-1.896
		c-0.318-1.953-0.795-3.798-1.432-5.535c-1.168-3.269-2.466-5.028-3.893-5.28c-0.755-0.259-1.427-0.133-2.019,0.377
		c-0.349,0.347-0.674,0.835-0.977,1.464c0.303,0.621,0.587,1.305,0.854,2.052C219.317,14.965,219.887,17.283,220.241,19.745z
		 M222.793,9.131l0.021,0.011c0,0.007,0,0.015,0,0.022c0.016,0.044,0.041,0.1,0.078,0.167c0.141,0.348,0.366,0.85,0.677,1.508
		c0.016,0.037,0.029,0.078,0.044,0.123c-0.125-0.259-0.244-0.492-0.354-0.7c0.222,0.466,0.491,1.017,0.81,1.653
		c1.013,2.02,1.812,4.492,2.396,7.421c0.021,0.119,0.044,0.244,0.066,0.377c0.096,0.554,0.188,1.131,0.277,1.73
		c0.008,0.052,0.015,0.108,0.021,0.167c0.082,0.673,0.156,1.368,0.223,2.085c0,0.045,0.003,0.093,0.011,0.145
		c0.007,0.178,0.019,0.358,0.033,0.543c0,0.037,0,0.078,0,0.122c0,1.057,0.236,0.999,0.709-0.177
		c-0.332,0.879-0.543,1.198-0.631,0.954c0.11,0.326,0.381-0.1,0.81-1.276c0.289-0.791,0.477-1.59,0.566-2.396
		c0.058-0.628,0.062-1.265,0.01-1.908c-0.03-0.207-0.056-0.41-0.078-0.609c-0.206-1.272-0.462-2.433-0.765-3.483
		c-0.015-0.044-0.026-0.081-0.034-0.111c-0.214-0.784-0.457-1.501-0.731-2.151c-0.17-0.385-0.347-0.744-0.531-1.077
		c-0.556-1.027-1.211-1.859-1.964-2.495c-0.341-0.251-0.632-0.458-0.876-0.621c-0.614-0.488-0.95-0.703-1.01-0.644
		C222.57,8.568,222.645,8.775,222.793,9.131z M222.57,8.398c-0.015,0.015-0.015,0.052,0,0.111c0-0.104,0.252,0.022,0.754,0.377
		C222.822,8.509,222.57,8.347,222.57,8.398z M217.689,20.311c0.022,0.126,0.041,0.248,0.056,0.366
		c0.016,0.125,0.037,0.255,0.067,0.388c0.007,0.082,0.019,0.17,0.032,0.267c0.052,0.318,0.101,0.625,0.144,0.92
		c0.097,0.814,0.153,1.542,0.167,2.186v0.066c0,0.044,0,0.088,0,0.133c0,0.045,0,0.082,0,0.111c0,0.044,0,0.089,0,0.133
		c0.015,0.622,0.148,0.706,0.399,0.255l0.421-0.954l0.067-0.067c0.413-1.057,0.622-2.181,0.622-3.371
		c0-0.126-0.008-0.252-0.023-0.377c-0.007-0.421-0.04-0.847-0.101-1.275c-0.538-3.372-1.403-5.927-2.595-7.665
		c-0.474-0.718-0.991-1.313-1.553-1.786c-1.175-0.917-1.808-1.331-1.896-1.242c-0.081,0.244,0.466,1.46,1.642,3.649
		c0.74,1.5,1.371,3.271,1.896,5.313c0.178,0.666,0.34,1.368,0.488,2.107C217.583,19.756,217.638,20.038,217.689,20.311z
		 M229.048,19.69c0.081,0.629,0.159,1.268,0.233,1.919c0.17,1.745,0.235,3.549,0.199,5.413c0,0.03,0,0.052,0,0.067
		c-0.066,4.251-0.694,7.919-1.886,11.003c-0.399,1.028-0.858,1.993-1.376,2.895c-0.361,0.54-0.742,1.017-1.143,1.431v5.878
		c0,1.095-0.628,1.642-1.886,1.642h-11.968c-1.146,0-1.733-0.521-1.764-1.564v-11.28h6.323c0.015-0.044,0.028-0.089,0.044-0.133
		c1.123-2.706,1.734-5.997,1.83-9.872c0-0.104,0-0.21,0-0.322c0.029-1.79-0.048-3.509-0.232-5.158
		c-0.067-0.621-0.152-1.231-0.256-1.83c-0.244-1.368-0.558-2.677-0.942-3.927c-0.207,1.294-0.344,2.607-0.411,3.938
		c-0.043,0.6-0.065,1.206-0.065,1.819c-0.008,0.628-0.004,1.257,0.011,1.886l-3.149,0.122c0-0.68,0.01-1.349,0.032-2.007
		c0.016-0.621,0.04-1.224,0.078-1.808c0.185-3.631,0.676-6.593,1.475-8.885c-0.745-1.198-1.563-1.871-2.451-2.019
		c-0.68-0.259-1.312-0.133-1.897,0.377c-1.012,1.005-1.808,3.105-2.384,6.3c-0.236,1.413-0.392,2.833-0.466,4.26
		c-0.037,0.591-0.055,1.183-0.055,1.774c-0.008,0.628-0.004,1.257,0.01,1.886l-3.149,0.122c0-0.68,0.011-1.349,0.033-2.007
		c0.015-0.606,0.04-1.19,0.078-1.752c0.347-6.677,1.697-11.084,4.048-13.222c1.346-1.257,2.854-1.638,4.525-1.143
		c1.228,0.326,2.333,1.072,3.316,2.241c0.297-0.421,0.618-0.788,0.966-1.098c1.346-1.257,2.857-1.638,4.536-1.143
		c2.515,0.673,4.528,3.105,6.045,7.298C228.12,14.942,228.687,17.243,229.048,19.69z M77.011,19.546
		c-0.052,0.688-0.085,1.375-0.1,2.063c-0.007,0.628-0.003,1.257,0.012,1.886l-3.151,0.122c0-0.68,0.008-1.349,0.022-2.007
		c0.022-0.71,0.055-1.397,0.1-2.063c0.378-6.507,1.719-10.811,4.026-12.911c1.347-1.257,2.862-1.638,4.548-1.143
		c1.213,0.326,2.314,1.065,3.306,2.219c0.296-0.407,0.614-0.766,0.954-1.076c1.434-1.257,2.95-1.638,4.547-1.143
		c2.514,0.673,4.525,3.105,6.034,7.298c0.77,2.129,1.332,4.396,1.687,6.8c0.096,0.666,0.177,1.338,0.243,2.019
		c0.17,1.745,0.24,3.549,0.211,5.413c0,0.03,0,0.052,0,0.067c-0.06,4.259-0.691,7.935-1.896,11.025
		c-0.393,1.027-0.851,1.985-1.376,2.873c-0.355,0.54-0.732,1.013-1.131,1.42v5.89c0,1.095-0.629,1.642-1.886,1.642H81.205
		c-1.147,0-1.735-0.521-1.764-1.564v-11.28h6.3c0.021-0.044,0.041-0.089,0.056-0.133c1.124-2.706,1.73-5.997,1.818-9.872
		c0-0.104,0-0.21,0-0.322c0.037-1.79-0.033-3.509-0.21-5.158c-0.075-0.688-0.167-1.368-0.278-2.041
		c-0.214-1.265-0.492-2.481-0.832-3.649c-0.222,1.197-0.38,2.415-0.477,3.649c-0.052,0.681-0.085,1.36-0.101,2.041
		c-0.007,0.628-0.004,1.257,0.012,1.886l-3.15,0.122c0-0.68,0.008-1.349,0.022-2.007c0.022-0.71,0.055-1.394,0.1-2.052
		C82.9,16,83.396,13.097,84.188,10.85c-0.748-1.153-1.532-1.804-2.353-1.952c-0.761-0.259-1.394-0.133-1.896,0.377
		c-1.095,1.005-1.89,3.105-2.385,6.3C77.296,16.883,77.115,18.207,77.011,19.546z M106.316,21.609c0-0.621,0.025-1.283,0.077-1.986
		c0.066-1.086,0.185-2.27,0.355-3.549c0.591-4.622,1.808-7.768,3.649-9.439c1.435-1.257,2.95-1.638,4.548-1.143
		c1.191,0.288,2.296,1.028,3.317,2.219c0.288-0.407,0.602-0.766,0.943-1.076c1.434-1.257,2.95-1.638,4.547-1.143
		c2.596,0.673,4.651,3.105,6.168,7.298c0.769,2.152,1.334,4.444,1.697,6.877c0.088,0.636,0.166,1.283,0.233,1.941
		c0.17,1.745,0.236,3.549,0.2,5.413c0,0.03,0,0.052,0,0.067c-0.126,4.267-0.799,7.949-2.02,11.048
		c-0.399,1.013-0.857,1.963-1.375,2.85c-0.273,0.496-0.651,0.973-1.131,1.431v5.878c0,0.414-0.17,0.791-0.51,1.131
		c-0.415,0.34-0.828,0.51-1.243,0.51h-12.09c-1.146,0-1.734-0.521-1.763-1.564v-11.28h6.3c0.015-0.044,0.033-0.089,0.055-0.133
		c1.125-2.706,1.73-5.997,1.819-9.872c0-0.104,0-0.21,0-0.322c0.037-1.79-0.03-3.509-0.199-5.158
		c-0.081-0.666-0.174-1.32-0.277-1.963c-0.229-1.39-0.532-2.718-0.91-3.982c-0.185,1.183-0.318,2.511-0.399,3.982
		c-0.044,0.629-0.07,1.283-0.078,1.963c-0.015,0.614-0.021,1.243-0.021,1.886l-3.018,0.122c-0.052-0.606-0.074-1.275-0.066-2.007
		c0-0.614,0.026-1.272,0.077-1.974c0.074-1.087,0.197-2.274,0.367-3.561c0.25-1.974,0.617-3.675,1.097-5.102
		c-0.768-1.235-1.552-1.927-2.351-2.075c-0.762-0.259-1.394-0.133-1.897,0.377c-1.642,1.516-2.614,4.965-2.917,10.348
		c-0.03,0.636-0.056,1.298-0.078,1.986c-0.015,0.614-0.022,1.243-0.022,1.886l-3.017,0.122
		C106.331,23.01,106.309,22.341,106.316,21.609z M138.882,21.609c0.015-0.658,0.041-1.294,0.078-1.908
		c0.348-6.662,1.652-11.018,3.916-13.066c1.435-1.257,2.951-1.638,4.547-1.143c1.242,0.326,2.363,1.054,3.361,2.185
		c0.273-0.392,0.574-0.739,0.898-1.042c1.436-1.257,2.95-1.638,4.549-1.143c2.594,0.673,4.65,3.105,6.166,7.298
		c0.776,2.182,1.346,4.5,1.709,6.955c0.088,0.622,0.162,1.243,0.221,1.864c0.17,1.745,0.236,3.549,0.2,5.413c0,0.03,0,0.052,0,0.067
		c-0.126,4.267-0.799,7.949-2.019,11.048c-0.4,1.013-0.858,1.963-1.376,2.85c-0.273,0.496-0.65,0.973-1.132,1.431v5.878
		c0,1.095-0.588,1.642-1.764,1.642h-12.078c-0.422,0-0.844-0.17-1.265-0.51c-0.325-0.326-0.491-0.691-0.499-1.098V37.093h6.378
		c0.015-0.044,0.032-0.089,0.056-0.133c1.072-2.706,1.652-5.997,1.741-9.872c0-0.104,0-0.21,0-0.322
		c0.036-1.79-0.029-3.509-0.2-5.158c-0.08-0.643-0.166-1.272-0.254-1.886c-0.215-1.309-0.5-2.573-0.854-3.793
		c-0.2,1.25-0.333,2.514-0.399,3.793c-0.045,0.629-0.066,1.257-0.066,1.886c-0.008,0.628,0,1.257,0.021,1.886l-3.15,0.122
		c0-0.68,0.008-1.349,0.022-2.007c0.015-0.651,0.041-1.283,0.078-1.896c0.185-3.557,0.65-6.459,1.397-8.708
		c-0.776-1.257-1.567-1.959-2.373-2.107c-0.754-0.259-1.387-0.133-1.897,0.377c-1.648,1.523-2.621,4.999-2.917,10.426
		c-0.03,0.614-0.056,1.25-0.078,1.908c-0.016,0.614-0.022,1.243-0.022,1.886l-3.017,0.122
		C138.86,22.937,138.867,22.267,138.882,21.609z M171.358,21.609c0.015-0.628,0.041-1.239,0.077-1.83
		c0.342-6.641,1.646-11.021,3.916-13.144c1.51-1.183,3.062-1.564,4.659-1.143c1.227,0.326,2.333,1.065,3.316,2.219
		c0.303-0.407,0.624-0.766,0.965-1.076c1.347-1.257,2.857-1.638,4.536-1.143c2.515,0.673,4.529,3.105,6.046,7.298
		c0.82,2.219,1.412,4.563,1.773,7.033c0.075,0.591,0.141,1.187,0.201,1.786c0.162,1.752,0.214,3.557,0.154,5.413
		c0,0.03,0,0.052,0,0.067c-0.066,4.17-0.695,7.779-1.885,10.825c-0.43,1.103-0.932,2.126-1.509,3.073
		c-0.274,0.496-0.651,0.973-1.132,1.431v5.878c0,1.095-0.588,1.642-1.764,1.642h-11.968c-1.22,0-1.846-0.521-1.875-1.564v-11.28
		h6.378c0.016-0.044,0.033-0.089,0.056-0.133c1.072-2.706,1.652-5.997,1.741-9.872c0-0.104,0-0.21,0-0.322
		c0.037-1.79-0.029-3.509-0.199-5.158c-0.075-0.614-0.155-1.216-0.244-1.808c-0.215-1.339-0.503-2.629-0.864-3.872
		c-0.2,1.279-0.333,2.57-0.4,3.872c-0.044,0.599-0.066,1.201-0.066,1.808c-0.007,0.628-0.003,1.257,0.011,1.886l-3.149,0.122
		c0-0.68,0.011-1.349,0.033-2.007c0.015-0.621,0.04-1.228,0.077-1.819c0.186-3.564,0.659-6.478,1.42-8.74
		c-0.784-1.279-1.583-1.997-2.396-2.152c-0.68-0.259-1.313-0.133-1.897,0.377c-1.013,1.005-1.808,3.105-2.384,6.3
		c-0.223,1.383-0.373,2.785-0.455,4.204c-0.045,0.606-0.066,1.216-0.066,1.83c-0.008,0.628-0.004,1.257,0.012,1.886l-3.15,0.122
		C171.326,22.937,171.337,22.267,171.358,21.609z M220.063,195.686c-0.665-0.267-1.33-0.199-1.996,0.2l-0.798,5.589
		c-0.267,1.864-0.066,3.724,0.599,5.579c0.398-0.133,0.731-0.065,0.998,0.2c0.267,0.267,0.8,0.2,1.598-0.2
		c0.399-1.063,0.731-2.791,0.998-5.179l0.199-5.592C220.995,196.283,220.463,196.084,220.063,195.686z M222.858,207.654
		l-2.595,0.798c-1.863,0-3.594-0.332-5.191-0.998c-1.464-0.533-2.396-1.994-2.795-4.382c0.266-2.661,0.73-4.525,1.396-5.59
		c0.799-1.331,1.798-2.197,2.996-2.596c1.197-0.4,2.528-0.4,3.992,0c1.731,0.398,3.261,1.132,4.593,2.195
		c0.665,2.263,0.864,4.061,0.599,5.391c0,1.199-0.267,2.326-0.799,3.385C224.522,206.655,223.79,207.254,222.858,207.654z
		 M181.175,8.897c0.03,0.111,0.082,0.255,0.155,0.433c0.237,0.584,0.681,1.527,1.331,2.829c0.488,0.938,0.917,1.908,1.287,2.906
		c0.339,0.939,0.625,1.904,0.854,2.895c0.03,0.148,0.06,0.3,0.089,0.455l0.277,2.207c0.029,0.244,0.06,0.484,0.09,0.721l0.276,2.44
		l0.011,0.466c0,0.044,0,0.088,0,0.133c0,0.037,0,0.078,0,0.122s0,0.088,0,0.133c0,0.045,0,0.082,0,0.111c0,0.044,0,0.089,0,0.133
		c0.015,0.222,0.038,0.385,0.066,0.488c0.104,0.37,0.378-0.047,0.821-1.253c0.215-0.576,0.37-1.167,0.466-1.774
		c0.016-0.118,0.033-0.233,0.056-0.343l0.089-1.054c0-0.052,0.004-0.1,0.012-0.144c-0.008-0.022-0.008-0.041,0-0.055v-0.022
		c-0.008-0.022-0.008-0.041,0-0.056v-0.399c-0.008-0.429-0.045-0.861-0.111-1.297l-0.045-0.244c-0.015-0.089-0.026-0.17-0.033-0.244
		c-0.147-0.939-0.321-1.808-0.521-2.606c-0.48-1.893-1.136-3.417-1.964-4.57c-0.052-0.066-0.104-0.137-0.155-0.211
		c-0.37-0.481-0.769-0.891-1.198-1.231c-0.015-0.015-0.029-0.03-0.044-0.044c-0.029-0.015-0.052-0.029-0.066-0.044
		c-0.008-0.007-0.016-0.011-0.023-0.011c-0.294-0.237-0.55-0.429-0.765-0.577c-0.658-0.51-0.987-0.736-0.987-0.677
		c-0.007,0.03-0.007,0.074,0,0.133c-0.007,0.022-0.007,0.063,0,0.122C181.149,8.801,181.16,8.846,181.175,8.897z M163.483,19.745
		c-0.007-0.074-0.011-0.144-0.011-0.21c-0.016-0.111-0.025-0.226-0.033-0.344c-0.008-0.037-0.02-0.082-0.033-0.133
		c0-0.037-0.004-0.067-0.012-0.088c-0.021-0.185-0.051-0.359-0.088-0.522l-0.033-0.254c-0.008-0.015-0.012-0.026-0.012-0.034
		c-0.029-0.133-0.051-0.255-0.066-0.366l-0.055-0.233c-0.022-0.119-0.049-0.237-0.078-0.355c-0.008-0.044-0.016-0.085-0.022-0.122
		c-0.044-0.185-0.089-0.366-0.134-0.543c-0.221-0.932-0.473-1.778-0.754-2.541c-0.088-0.258-0.185-0.502-0.288-0.731
		c-0.651-1.583-1.45-2.766-2.396-3.55c-0.03-0.022-0.063-0.047-0.101-0.078c-0.022-0.015-0.04-0.03-0.056-0.044
		c-0.037-0.03-0.066-0.055-0.088-0.078c-0.03-0.022-0.057-0.041-0.078-0.055c-0.436-0.333-0.783-0.584-1.043-0.754
		c-0.369-0.251-0.576-0.355-0.62-0.311c-0.06,0.118,0.214,0.776,0.82,1.974c0.222,0.473,0.492,1.032,0.81,1.675
		c0.059,0.125,0.127,0.255,0.199,0.388c0.215,0.451,0.418,0.917,0.61,1.397c0.185,0.496,0.362,1.01,0.532,1.542
		c0.37,1.212,0.677,2.533,0.921,3.959c0.03,0.141,0.056,0.277,0.077,0.41c0.119,0.666,0.223,1.287,0.311,1.864
		c0.127,0.888,0.207,1.682,0.244,2.385c0,0.081,0,0.167,0,0.255v0.044c0,0.022,0,0.052,0,0.088c0,0.037,0,0.078,0,0.122
		s0,0.088,0,0.133c0,0.007,0,0.015,0,0.022c0,0.251,0.02,0.436,0.057,0.555c0.104,0.429,0.381,0.026,0.831-1.209
		c0.296-0.791,0.481-1.59,0.555-2.396c0.007-0.074,0.015-0.148,0.022-0.222c0.008-0.096,0.011-0.196,0.011-0.3l0.022-0.288
		c0-0.03,0-0.063,0-0.1l0.011-0.344c-0.007-0.104-0.011-0.207-0.011-0.311C163.506,19.942,163.498,19.841,163.483,19.745z
		 M148.554,8.509c0,0.088,0.044,0.255,0.133,0.499l0.011,0.034c0.051,0.118,0.118,0.262,0.2,0.432
		c0.022,0.06,0.052,0.13,0.088,0.211c0.06,0.125,0.123,0.262,0.188,0.41c0.022,0.044,0.044,0.093,0.067,0.145
		c0.244,0.51,0.559,1.15,0.942,1.919c0.008,0.022,0.016,0.041,0.022,0.055c0.252,0.503,0.489,1.032,0.711,1.586
		c0.643,1.649,1.153,3.539,1.53,5.668c0.125,0.672,0.236,1.312,0.332,1.919c0.156,1.013,0.248,1.912,0.277,2.695
		c0.016,0.125,0.022,0.255,0.022,0.388c0,0.008,0,0.019,0,0.034v0.088c0,0.008,0,0.022,0,0.044c0,0.045,0,0.082,0,0.111
		c0,0.044,0,0.089,0,0.133c0.015,0.873,0.226,0.795,0.632-0.233l0.201-0.477l0.055-0.056c0.406-1.057,0.609-2.181,0.609-3.371
		c0-0.185,0-0.366,0-0.543c-0.007-0.126-0.015-0.248-0.021-0.366c-0.008-0.067-0.012-0.13-0.012-0.189
		c-0.021-0.096-0.037-0.188-0.044-0.277c-0.007-0.052-0.011-0.104-0.011-0.155c-0.008-0.015-0.012-0.026-0.012-0.033
		c-0.008-0.03-0.011-0.059-0.011-0.088l-0.056-0.344c-0.015-0.067-0.025-0.137-0.033-0.21c-0.045-0.273-0.092-0.532-0.144-0.777
		c-0.519-2.632-1.239-4.666-2.163-6.1c-0.459-0.747-0.973-1.35-1.542-1.809c-0.022-0.029-0.052-0.055-0.089-0.077
		c-0.008-0.007-0.016-0.011-0.021-0.011c-0.023-0.022-0.045-0.041-0.066-0.056c-0.008-0.007-0.023-0.015-0.045-0.022
		c-0.4-0.318-0.732-0.566-0.998-0.743C148.849,8.602,148.599,8.458,148.554,8.509z M155.287,19.734
		c0.08,0.621,0.158,1.246,0.232,1.875c0.17,1.745,0.236,3.549,0.199,5.413c0,0.03,0,0.052,0,0.067
		c-0.118,3.749-0.654,7.04-1.607,9.872c-0.016,0.044-0.025,0.089-0.033,0.133h5.512c0.023-0.044,0.041-0.089,0.056-0.133
		c1.065-2.706,1.642-5.997,1.73-9.872c0-0.104,0-0.21,0-0.322c0.038-1.79-0.03-3.509-0.199-5.158
		c-0.081-0.628-0.167-1.25-0.255-1.864c-0.318-1.967-0.795-3.822-1.432-5.568c-1.249-3.269-2.547-5.028-3.893-5.28
		c-0.754-0.259-1.387-0.133-1.896,0.377c-0.349,0.347-0.674,0.835-0.977,1.464c0.303,0.636,0.588,1.32,0.854,2.052
		C154.355,14.965,154.924,17.279,155.287,19.734z M191.824,9.63c-0.289-0.229-0.541-0.422-0.755-0.577
		c-0.651-0.496-0.977-0.714-0.977-0.654c-0.014,0.015-0.014,0.052,0,0.111c-0.014,0.022-0.014,0.063,0,0.122v0.011
		c0,0.016,0.008,0.048,0.021,0.1c-0.007,0.008-0.014,0.015-0.021,0.022c0,0.089,0.137,0.418,0.411,0.988
		c0.243,0.562,0.605,1.327,1.087,2.296c0.48,0.917,0.905,1.863,1.275,2.839c0.266,0.732,0.507,1.483,0.721,2.251l0.898,7.365
		c0,0.007,0,0.018,0,0.033v0.1c0,0.007,0,0.015,0,0.022c0,0.251,0.019,0.436,0.056,0.555c0.104,0.429,0.381,0.026,0.832-1.209
		c0.289-0.791,0.473-1.59,0.555-2.396c0.007-0.074,0.015-0.148,0.021-0.222c0.008-0.096,0.012-0.196,0.012-0.3l0.021-0.288
		c0-0.03,0-0.063,0-0.1l0.012-0.421c0-0.147-0.003-0.3-0.012-0.455c-0.021-0.333-0.059-0.662-0.11-0.987
		c-0.073-0.437-0.151-0.862-0.233-1.275c-0.015-0.089-0.03-0.178-0.044-0.267c-0.348-1.664-0.783-3.083-1.309-4.259
		c-0.644-1.509-1.457-2.64-2.44-3.395C191.838,9.633,191.831,9.63,191.824,9.63z M187.83,19.812c0.081,0.591,0.151,1.19,0.211,1.797
		c0.162,1.752,0.215,3.557,0.155,5.413c0,0.03,0,0.052,0,0.067c-0.059,3.749-0.573,7.04-1.542,9.872
		c-0.015,0.044-0.029,0.089-0.044,0.133h5.458c0.014-0.044,0.032-0.089,0.055-0.133c1.058-2.706,1.634-5.997,1.729-9.872
		c0-0.104,0-0.21,0-0.322c0.037-1.79-0.029-3.509-0.199-5.158c-0.073-0.606-0.155-1.202-0.244-1.786
		c-0.311-1.997-0.787-3.879-1.431-5.646c-1.094-3.269-2.396-5.028-3.904-5.28c-0.673-0.259-1.305-0.133-1.896,0.377
		c-0.348,0.347-0.673,0.835-0.976,1.464c0.303,0.621,0.588,1.305,0.854,2.052C186.876,15.002,187.468,17.342,187.83,19.812z
		 M92.528,8.509c0-0.104,0.256,0.022,0.766,0.377c-0.51-0.377-0.766-0.54-0.766-0.488C92.521,8.413,92.521,8.45,92.528,8.509z
		 M92.829,9.275c0.022,0.059,0.052,0.125,0.088,0.199c0.162,0.377,0.403,0.906,0.721,1.586c-0.111-0.215-0.219-0.418-0.322-0.61
		c0.207,0.421,0.447,0.91,0.721,1.464c0.761,1.531,1.405,3.321,1.93,5.369l1.065,6.178c0.007,0.155,0.015,0.311,0.022,0.466
		c0,0.067,0,0.13,0,0.188c0,0.045,0,0.089,0,0.134s0,0.088,0,0.133c0,0.037,0,0.078,0,0.122c0,1.057,0.24,0.999,0.721-0.177
		c-0.333,0.879-0.547,1.198-0.643,0.954c0.11,0.326,0.381-0.1,0.81-1.276c0.295-0.791,0.48-1.59,0.554-2.396
		c-0.096,0.77-0.281,1.523-0.554,2.263c0.185-0.555,0.314-1.113,0.388-1.675c0.022-0.199,0.044-0.396,0.066-0.588
		c0.007-0.067,0.016-0.133,0.022-0.2c0.008-0.2,0.015-0.396,0.022-0.588c0-0.074,0-0.141,0-0.2c0.016-0.34,0.007-0.684-0.022-1.031
		c-0.022-0.245-0.055-0.496-0.1-0.754c-0.015-0.111-0.034-0.222-0.055-0.333c-0.016-0.059-0.026-0.122-0.034-0.188
		c-0.103-0.665-0.222-1.294-0.355-1.886c-0.06-0.266-0.119-0.521-0.177-0.765c0.295,1.036,0.543,2.178,0.743,3.428
		c0.03,0.17,0.052,0.336,0.067,0.499c0.021,0.199,0.036,0.395,0.044,0.588c0-0.193-0.011-0.389-0.034-0.588
		c-0.014-0.2-0.041-0.407-0.078-0.621c-0.754-4.703-2.137-7.813-4.148-9.329c0.317,0.251,0.618,0.543,0.898,0.876
		c-0.245-0.273-0.499-0.521-0.766-0.743c-0.347-0.251-0.644-0.458-0.887-0.621c-0.614-0.488-0.951-0.703-1.01-0.644
		C92.528,8.583,92.628,8.838,92.829,9.275z M90.188,19.579c0.096,0.673,0.178,1.35,0.243,2.03c0.171,1.745,0.241,3.549,0.211,5.413
		c0,0.03,0,0.052,0,0.067c-0.059,3.749-0.558,7.04-1.497,9.872c-0.015,0.044-0.027,0.089-0.033,0.133h5.446
		c0.015-0.044,0.033-0.089,0.055-0.133c1.117-2.706,1.72-5.997,1.809-9.872c0-0.104,0-0.21,0-0.322c0.036-1.79-0.03-3.509-0.2-5.158
		c-0.081-0.681-0.177-1.353-0.289-2.019c-0.31-1.908-0.776-3.712-1.397-5.413c-1.25-3.269-2.547-5.028-3.894-5.28
		c-0.753-0.259-1.386-0.133-1.896,0.377c-0.392,0.362-0.747,0.873-1.064,1.53c0.296,0.606,0.569,1.268,0.82,1.985
		C89.271,14.92,89.833,17.183,90.188,19.579z M83.467,8.398c-0.089,0.244,0.454,1.46,1.63,3.649c0.754,1.5,1.39,3.271,1.908,5.313
		c0.177,0.666,0.34,1.368,0.488,2.107c0.074,0.421,0.148,0.824,0.222,1.209c0.015,0.125,0.033,0.255,0.055,0.388
		c0.015,0.082,0.029,0.17,0.045,0.267c0.17,1.124,0.273,2.111,0.311,2.962c0,0.066,0,0.136,0,0.21c0,0.044,0,0.088,0,0.133
		c0,0.045,0,0.082,0,0.111c0,0.044,0,0.089,0,0.133c0.015,0.622,0.147,0.706,0.399,0.255l0.421-0.954l0.066-0.067
		c0.407-1.057,0.609-2.181,0.609-3.371c0-0.126-0.003-0.252-0.01-0.377c-0.007-0.421-0.042-0.847-0.1-1.275
		c-0.266-1.665-0.61-3.125-1.032-4.382c-0.495-1.56-1.127-2.81-1.896-3.749c-0.377-0.511-0.787-0.951-1.231-1.32
		C84.184,8.723,83.555,8.31,83.467,8.398z M128.245,11.238c-0.437-0.651-0.928-1.184-1.476-1.598
		c-0.657-0.51-1.131-0.865-1.419-1.064c-0.229-0.155-0.343-0.215-0.343-0.178c-0.008,0.015-0.008,0.052,0,0.111
		c0.007,0.052,0.025,0.118,0.055,0.2c0.06,0.177,0.167,0.429,0.322,0.754c0.215,0.503,0.573,1.246,1.076,2.229l0.267,0.521
		c0.029,0.066,0.066,0.141,0.11,0.222c0.214,0.451,0.418,0.917,0.61,1.397c0.186,0.496,0.362,1.01,0.533,1.542
		c0.37,1.212,0.676,2.533,0.92,3.959c0.022,0.111,0.044,0.222,0.066,0.333c0.133,0.688,0.24,1.334,0.322,1.941
		c0.133,0.888,0.214,1.682,0.244,2.385c0,0.081,0,0.167,0,0.255c0,0.029,0,0.052,0,0.066v0.066c0,0.037,0,0.078,0,0.122
		s0,0.088,0,0.133c0,0.007,0,0.015,0,0.022c0,0.251,0.019,0.436,0.055,0.555c0.104,0.429,0.381,0.026,0.832-1.209
		c0.296-0.791,0.481-1.59,0.555-2.396c0.007-0.074,0.015-0.148,0.022-0.222c0.008-0.096,0.012-0.196,0.012-0.3l0.022-0.288
		c0.007-0.089,0.011-0.178,0.011-0.266v-0.178c-0.007-0.141-0.011-0.277-0.011-0.41c-0.015-0.089-0.026-0.181-0.034-0.277
		c-0.007-0.141-0.018-0.285-0.033-0.433c-0.008-0.029-0.011-0.056-0.011-0.078c-0.008-0.066-0.019-0.129-0.034-0.188
		c-0.185-1.153-0.41-2.211-0.676-3.173c-0.089-0.303-0.173-0.595-0.256-0.876c-0.332-1.042-0.713-1.955-1.142-2.739
		C128.652,11.833,128.452,11.519,128.245,11.238z M122.799,19.657c0.095,0.643,0.177,1.293,0.243,1.952
		c0.17,1.745,0.237,3.549,0.2,5.413c0,0.03,0,0.052,0,0.067c-0.118,3.749-0.654,7.04-1.608,9.872
		c-0.015,0.044-0.026,0.089-0.033,0.133h5.435c0.007-0.044,0.026-0.089,0.055-0.133c1.116-2.706,1.719-5.997,1.808-9.872
		c0-0.104,0-0.21,0-0.322c0.038-1.79-0.03-3.509-0.2-5.158c-0.081-0.658-0.173-1.305-0.277-1.941
		c-0.31-1.938-0.78-3.768-1.408-5.491c-1.25-3.269-2.548-5.028-3.894-5.28c-0.754-0.259-1.386-0.133-1.896,0.377
		c-0.392,0.355-0.743,0.824-1.054,1.408c0.318,0.644,0.629,1.346,0.932,2.107C121.87,14.935,122.436,17.224,122.799,19.657z
		 M117.963,9.774c-0.895-0.696-1.45-1.076-1.664-1.143c-0.148-0.104-0.223-0.145-0.223-0.122v0.011
		c-0.036,0.104,0.1,0.492,0.411,1.165c0.118,0.244,0.266,0.54,0.444,0.888c0.104,0.221,0.226,0.465,0.366,0.732
		c0.119,0.266,0.255,0.551,0.411,0.854c0.015,0.037,0.029,0.074,0.044,0.11c0.363,0.725,0.695,1.513,0.998,2.363
		c0.171,0.496,0.333,1.013,0.489,1.553c0.066,0.244,0.129,0.488,0.188,0.732l1.131,6.577c0.014,0.303,0.03,0.599,0.044,0.887
		c0,0.007,0,0.019,0,0.033v0.089c0,0.044,0,0.088,0,0.133c0,0.045,0,0.082,0,0.111c0,0.044,0,0.089,0,0.133
		c0.014,0.873,0.229,0.795,0.644-0.233l0.188-0.477l0.056-0.056c0.407-1.057,0.611-2.181,0.611-3.371
		c0-0.37-0.011-0.736-0.033-1.099c-0.022-0.155-0.042-0.3-0.056-0.433L122,19.18c-0.007-0.03-0.011-0.059-0.011-0.088
		c-0.207-1.25-0.455-2.389-0.742-3.417c-0.045-0.147-0.089-0.285-0.134-0.41c-0.029-0.097-0.055-0.189-0.077-0.278
		c-0.17-0.554-0.359-1.072-0.566-1.553c-0.059-0.125-0.114-0.248-0.166-0.366c-0.163-0.37-0.333-0.713-0.51-1.031
		c-0.119-0.2-0.233-0.385-0.344-0.555c-0.348-0.54-0.725-1.002-1.132-1.387C118.199,9.985,118.081,9.877,117.963,9.774z
		 M163.572,195.086c-0.799,0-1.199-0.398-1.199-1.197l5.592-2.197c1.863-0.666,3.86-0.998,5.99-0.998l0.799,8.186
		c1.596-1.197,3.061-1.797,4.392-1.797c1.597-0.132,2.729,0.134,3.394,0.799c0.799,0.666,1.132,1.664,0.999,2.996
		c-0.267,1.463-1.331,3.057-3.195,4.78l0.6,3.993l1.597,3.594c0.933,0.266,1.397,0.266,1.397,0l1.997,0.199l0.199,0.599v0.599
		c-1.598-0.132-2.861-0.132-3.793,0l-3.194,1.198l-0.399-1.598l0.998-0.599c0.267,0.133,0.666,0.067,1.198-0.199
		c0.133-0.666-0.133-1.664-0.799-2.994l-1.597-3.195c-0.399-0.134-0.999-0.066-1.797,0.2l-1.996,0.598l-0.2,5.392
		c0.399,0.267,0.931,0.267,1.597,0c0.532-0.134,0.998,0,1.397,0.4v0.797l-8.984,1l-1.997,0.598c-0.531,0.267-0.797,0.267-0.797,0
		c-0.135,0-0.067-0.399,0.199-1.197c0-0.267,0.133-0.4,0.398-0.4h1.198l-0.999-20.553L163.572,195.086z M162.973,200.877
		c0,1.596-0.531,2.594-1.597,2.994l-1.198-0.4l-1.598-1.797l-1.597-0.398v5.778c0,2.13,0.466,4.061,1.397,5.79l2.396-1.198
		c1.064-0.665,1.797-1.264,2.195-1.797l0.799,0.2l0.2,0.799c-0.665,0.932-1.53,1.73-2.596,2.396l-2.995,1.797
		c-3.586,0.398-6.045-0.134-7.375-1.598c-1.199-1.729-1.731-4.193-1.598-7.388c0-0.798,0.266-1.793,0.798-2.983
		c0.399-1.197,1.132-2.329,2.197-3.395c0.931-0.932,2.126-1.396,3.582-1.396c1.464-0.267,3.194,0.532,5.191,2.395
		c0.532-0.133,0.798-0.665,0.798-1.596l0.2-2.396l0.599,0.398l0.399,0.4L162.973,200.877z M147.211,210.249
		c-1.065,1.064-2.196,1.93-3.394,2.595c-1.331,0.666-2.996,1.132-4.992,1.397c-0.932,1.331-1.797,2.33-2.595,2.995
		c-0.932,0.932-2.529,1.398-4.792,1.398c-2.263-0.8-3.794-1.797-4.592-2.994c-0.666-1.332-0.799-2.53-0.399-3.594
		c0.399-1.066,1.131-1.998,2.196-2.797c1.197-0.798,2.395-1.198,3.594-1.198v-0.397l-1.199-0.2h-1.198
		c-1.73-1.332-2.462-2.526-2.196-3.583c0.267-0.932,0.865-1.731,1.797-2.396c0.932-0.665,1.93-1.132,2.995-1.396l1.398-0.4
		c2.129-0.133,3.86-0.133,5.19,0c1.464,0.268,2.663,1.331,3.594,3.195l1.598,8.174l2.196-1.396c0.133-0.134,0.666-0.8,1.597-1.996
		c0.533-0.4,0.799-0.268,0.799,0.397L147.211,210.249z M176.949,199.08l-1.797,0.998c-0.267,0.531-0.398,1.53-0.398,2.994v3.383
		l3.193-1.396l0.2-6.379C177.614,198.68,177.215,198.813,176.949,199.08z M207.685,193.289l-0.599,5.191h1.197l2.996-0.6
		c0.266,0.134,0.398,0.4,0.398,0.799v0.8l-0.599,0.599l-4.192,0.199l1.197,10.971c0.665-0.268,1.132-0.6,1.398-0.999l0.998-1.398
		c0.531,0,0.799,0.066,0.799,0.2l0.199,0.6c-0.134,0.398-0.799,1.33-1.996,2.795c-1.065,1.064-1.931,1.796-2.596,2.195
		c-0.533,0.4-1.598,0.932-3.195,1.598c-0.932,0.399-1.929,0.466-2.994,0.199c-0.666-0.797-1.194-1.862-1.586-3.193l-1.598-12.168
		l-1.797,0.598c-0.133,0.134-0.599,0-1.398-0.398l0.4-0.799l0.399-0.199h0.798c0.134,0,0.6-0.267,1.396-0.798l-0.598-4.394
		l-0.199-0.799l-0.2-0.398c-0.399-0.133-1.064-0.067-1.997,0.199c-0.799,0.134-1.197-0.133-1.197-0.799l0.398-0.199v-0.399
		c0.268,0.132,1.331-0.066,3.195-0.599l4.781-1.198c1.464-0.399,2.928-0.466,4.392-0.2
		C207.086,190.96,207.685,191.825,207.685,193.289z M100.305,193.889c2.129-0.933,4.525-1.598,7.187-1.997
		c2.521-0.399,4.98-0.998,7.375-1.797l0.6,12.778c2.13-1.331,4.259-1.598,6.389-0.799c1.996,0.799,3.394,2.524,4.192,5.18
		c-0.133,2.263-0.798,3.994-1.996,5.191c-0.933,0.933-2.263,1.597-3.994,1.996c-2.129,0.267-3.86,0.333-5.191,0.199l-5.59-0.199
		c0-0.266-0.396-0.266-1.187,0l-2.196,0.799l-3.395,1.996c-0.398-0.931-0.199-1.596,0.599-1.996l1.997-0.999
		c0.532-0.932,0.865-2.194,0.999-3.792l-0.6-16.162l-4.193,0.4h-0.399l-0.598-0.201V193.889z M119.859,203.672l-2.396,0.199
		c-1.065,0.134-1.797,0.398-2.197,0.799l-0.199,7.775l4.392-0.2l0.399-1.796l0.6-4.992
		C120.458,204.666,120.258,204.07,119.859,203.672z M133.635,201.875c-0.799,0.265-1.198,0.665-1.198,1.197l0.999,0.199
		c0.399,0.799,0.466,1.595,0.2,2.386c0,0.798-0.466,1.331-1.397,1.597c0.266,0.267,0.865,0.4,1.796,0.4l2.196,0.199l-0.599-6.578
		L133.635,201.875z M132.836,209.051l1.398,7.587l1.397-0.799l0.998-1.198l-0.2-5.391L132.836,209.051z M136.885,229.061
		c-0.266,0.532-0.599,0.466-0.999-0.199v-0.6l-0.199-0.599c1.863-0.799,3.86-1.464,5.989-1.996c2.396-0.533,4.193-0.799,5.391-0.799
		l0.4,12.379c1.997-0.666,3.925-1.132,5.789-1.398c1.465,0,2.597,0.466,3.395,1.398c0.799,0.798,1.398,2.263,1.798,4.392
		l1.197,7.775l1.198-0.199l1.387-0.399l-0.987,1.397l-1.397,0.997l-3.794,0.999l-1.797,0.2h-3.394
		c-0.399-2.396-0.533-4.792-0.399-7.188l0.199-7.376l-1.597,0.599l-1.198,0.998l-0.399,2.984l0.798,8.585
		c0.133,1.065,0.466,1.862,0.999,2.396h3.394v1.197c-1.465,0.531-2.796,0.6-3.994,0.199c-1.064-0.531-2.462-0.799-4.192-0.799
		l-3.993-0.598c-1.73,0-3.062-0.067-3.993-0.201c0.266-1.063,0.599-1.797,0.999-2.195h0.798l0.799-0.199l0.2-22.75
		C137.95,228.195,137.151,228.528,136.885,229.061z M134.49,233.852l0.599,0.4l0.199,0.399v3.394
		c-0.266,1.598-0.798,2.596-1.597,2.995l-1.198-0.399l-1.597-1.797l-1.797-0.399v5.779c0,1.996,0.532,3.927,1.597,5.79l2.396-1.198
		c0.932-0.533,1.597-1.131,1.997-1.797l0.998,0.2v0.798c-0.399,0.799-1.197,1.597-2.396,2.396l-2.995,1.797
		c-3.594,0.4-6.056-0.132-7.387-1.597c-1.332-1.597-1.93-4.06-1.797-7.388l0.798-2.983c0.799-1.597,1.531-2.729,2.197-3.394
		c1.198-0.932,2.462-1.397,3.793-1.397c1.464-0.267,3.195,0.532,5.191,2.396c0.532-0.267,0.798-0.799,0.798-1.598
		C134.156,235.45,134.223,234.651,134.49,233.852z M117.319,236.248l0.598,0.2l0.2,0.199l0.6,2.396l-0.2,2.595h-0.798l-1.986-1.996
		c-0.266-0.267-1.131-0.533-2.595-0.799l0.2,2.795l0.599,2.784c2.522,0.266,4.249,1.265,5.18,2.995
		c1.065,1.464,1.597,3.326,1.597,5.59c-0.266,2.129-0.999,3.927-2.196,5.391c-1.332,1.598-3.191,2.396-5.579,2.396
		c-1.997-0.4-3.594-1.398-4.792-2.996c-0.932-1.596-1.131-3.593-0.599-5.988c0.666-1.331,1.464-1.73,2.396-1.198
		c0.799,0.532,1.131,1.265,0.999,2.196c-0.266,0.666-0.666,0.998-1.198,0.998c-0.532,0.267-0.932-0.134-1.198-1.197
		c-0.399,0.931-0.466,1.862-0.2,2.795c0.533,1.063,1.065,1.729,1.597,1.996c0.533,0.532,1.265,0.933,2.196,1.197
		c1.065,0.268,1.864,0.333,2.396,0.201v-6.189c0-1.997-0.4-3.994-1.198-5.99c-2.795,0.399-4.592-0.199-5.391-1.797
		c-0.798-1.73-0.932-3.323-0.399-4.78c0.799-1.73,2.063-2.862,3.794-3.395c1.597-0.799,3.723-0.066,6.378,2.196l-0.399-1.197
		V236.248z M202.161,232.255l-0.199,12.567c0,1.863,0.199,3.262,0.598,4.193c0.666-0.267,1.065-0.6,1.199-0.999l0.798-1.397
		l0.599,0.199l0.4,0.6l-0.6,1.397l-0.998,1.397l-2.195,1.398c-0.799,0.532-1.531,0.798-2.197,0.798
		c-0.398,0.133-1.064,0.067-1.996-0.2c-0.533-0.398-0.999-1.064-1.398-1.996c-0.532-2.396-0.932-5.786-1.197-10.171l-0.2-10.183
		h-3.194l-0.399-0.2v-0.399l2.196-0.799l2.996-0.599l5.789-0.599C202.428,228.461,202.428,230.126,202.161,232.255z
		 M182.795,233.055l-0.799,5.59c-0.267,1.863-0.066,3.723,0.599,5.579c0.399-0.133,0.732-0.066,0.999,0.199
		c0.266,0.266,0.798,0.2,1.597-0.199c0.533-2.389,0.799-4.115,0.799-5.18l0.199-5.591c-0.532,0-0.998-0.2-1.397-0.599
		C184.126,232.588,183.46,232.654,182.795,233.055z M189.782,234.252c0.666,2.528,0.932,4.326,0.799,5.391
		c0,1.331-0.333,2.459-0.998,3.383c-0.666,0.798-1.331,1.397-1.997,1.797l-2.795,0.799c-1.73,0-3.394-0.333-4.99-0.998
		c-1.73-0.666-2.662-2.126-2.796-4.382c0-2.263,0.466-4.126,1.397-5.59c0.799-1.331,1.796-2.196,2.995-2.596
		c1.197-0.399,2.528-0.399,3.993,0C187.12,232.455,188.584,233.187,189.782,234.252z M171.215,232.056
		c1.863,0.532,3.328,1.265,4.393,2.196c0.531,1.996,0.798,3.793,0.798,5.391c-0.267,1.723-0.599,2.851-0.997,3.383
		c-0.533,0.798-1.266,1.397-2.197,1.797l-2.595,0.799c-1.731,0-3.461-0.333-5.192-0.998c-1.464-0.532-2.395-1.993-2.795-4.382
		c0.267-2.662,0.732-4.525,1.398-5.59c0.799-1.331,1.863-2.196,3.194-2.596C168.42,231.656,169.75,231.656,171.215,232.056z
		 M167.82,238.645c-0.266,2.255-0.133,4.115,0.399,5.579c0.399-0.133,0.732-0.066,0.999,0.199c0.266,0.266,0.797,0.2,1.597-0.199
		c0.665-1.989,0.999-3.716,0.999-5.18l0.199-5.591c-0.399,0-0.933-0.2-1.598-0.599c-0.531-0.267-1.132-0.2-1.797,0.2L167.82,238.645
		z"/>
	<path fill-rule="evenodd" clip-rule="evenodd" fill="#E53665" d="M257.854,293.46c-1.095,1.036-2.37,1.554-3.827,1.554H48.338
		c-1.841,0-3.39-0.84-4.647-2.519c-1.264-1.597-1.896-3.612-1.896-6.045V19.468l32.1,0.078c-0.044,0.666-0.078,1.353-0.1,2.063
		H54.018v1.641h-0.632v1.753h-1.009v1.131h-0.51v0.133h-0.377v1.131h-0.366v1.386H50.99v242.691c0,0.783,0.081,1.526,0.244,2.229
		v0.166v0.244c0,0.835,0.084,1.623,0.255,2.362v0.256v1.042c0,1.22,0.203,2.34,0.61,3.361c0.289,0.887,0.717,1.692,1.287,2.417
		c1.257,1.509,2.725,2.264,4.404,2.264h190.448c0.673,0,1.312-0.119,1.918-0.355c1.272-0.267,2.396-0.983,3.372-2.151
		c1.176-1.516,1.764-3.361,1.764-5.535v-0.167c0.081-0.518,0.122-1.05,0.122-1.597v-3.859c0.644-0.902,1.099-1.876,1.364-2.918
		c0.015-0.066,0.033-0.13,0.056-0.188c0.007-0.073,0.019-0.141,0.033-0.199c0.008-0.066,0.022-0.134,0.045-0.199
		c0-0.023,0-0.041,0-0.056c0.6-1.22,0.898-2.607,0.898-4.159V21.609h-28.528c-0.074-0.651-0.152-1.29-0.233-1.919l31.522-0.222
		V286.45c0,2.433-0.625,4.448-1.874,6.045C258.431,292.857,258.149,293.18,257.854,293.46z M96.378,115.524
		c0.024-0.786,0.061-1.569,0.11-2.352c0.466-7.239,2.87-13.913,7.21-20.021c3.551-5.054,7.772-8.844,12.661-11.37
		c0.812-0.419,1.642-0.804,2.491-1.153c0.313-0.128,0.625-0.25,0.937-0.366c5.672-2.108,11.096-2.108,16.272,0
		c0.203,0.082,0.404,0.167,0.605,0.255c0.986,0.432,1.948,0.854,2.883,1.264c2.69,1.182,5.165,2.273,7.42,3.272
		c2.011,0.88,3.845,1.693,5.502,2.44c0.688-0.562,1.818-1.298,3.394-2.207c1.673-0.963,3.848-2.131,6.523-3.505
		c0.612-0.314,1.252-0.64,1.918-0.976c0.379-0.191,0.762-0.373,1.148-0.543c5.342-2.356,11.43-2.751,18.262-1.187
		c1.416,0.329,2.795,0.725,4.139,1.187c1.288,0.445,2.541,0.951,3.759,1.52c3.9,1.818,7.442,4.27,10.626,7.354
		c5.584,5.391,8.719,11.546,9.406,18.468c0.27,2.697,0.425,5.337,0.466,7.92c0.008,0.501,0.012,1,0.011,1.497
		c-0.019,12.648-2.828,23.896-8.43,33.742c-0.109,0.192-0.22,0.385-0.333,0.578c-0.159,0.271-0.322,0.541-0.487,0.81
		c-9.823,16.1-26.372,24.872-49.647,26.32c-19.492,1.176-34.507-5.875-45.044-21.152c-1.149-1.657-2.218-3.38-3.206-5.168
		c-0.253-0.459-0.5-0.921-0.743-1.387c-2.401-4.628-4.278-9.679-5.634-15.151c-1.548-6.255-2.295-12.452-2.246-18.59
		C96.354,116.522,96.363,116.023,96.378,115.524z M191.235,89.514c-2.115-1.25-5.091-2.514-8.929-3.793
		c-4.296,0.688-4.933,2.776-1.908,6.267c1.59,1.834,4.101,4.108,7.531,6.822c0.777,0.784,1.427,2.222,1.952,4.314
		c0.281,1.176,0.702,3.043,1.265,5.602c1.31,4.429,3.975,6.271,7.997,5.524c3.993-0.754,5.51-3.498,4.548-8.23
		c-0.783-3.801-2.47-7.213-5.058-10.238C196.416,93.155,193.949,91.066,191.235,89.514z M226.253,21.609h-5.779
		c-0.074-0.628-0.151-1.25-0.232-1.864l5.757-0.033C226.095,20.333,226.18,20.966,226.253,21.609z M196.849,21.609
		c-0.061-0.599-0.126-1.194-0.201-1.786l7.267,0.033c-0.038,0.562-0.063,1.146-0.078,1.752H196.849z M212.643,21.609h-5.7
		c0-0.591,0.018-1.184,0.055-1.774l5.724-0.033C212.683,20.385,212.658,20.988,212.643,21.609z M217.168,19.779
		c0.104,0.599,0.188,1.209,0.256,1.83h-1.675c0-0.614,0.022-1.22,0.065-1.819L217.168,19.779z M106.394,19.623
		c-0.052,0.703-0.077,1.365-0.077,1.986h-7.077c-0.066-0.681-0.147-1.353-0.243-2.019L106.394,19.623z M138.959,19.701
		c-0.037,0.614-0.063,1.25-0.078,1.908h-7.032c-0.067-0.658-0.145-1.305-0.233-1.941L138.959,19.701z M171.436,19.779
		c-0.036,0.591-0.063,1.202-0.077,1.83h-7.032c-0.059-0.621-0.133-1.242-0.221-1.864L171.436,19.779z M174.465,21.609
		c0-0.614,0.021-1.224,0.066-1.83l5.712,0.011c-0.037,0.592-0.063,1.198-0.077,1.819H174.465z M193.653,21.609h-5.612
		c-0.06-0.606-0.13-1.206-0.211-1.797l5.579,0.011C193.498,20.407,193.58,21.002,193.653,21.609z M184.847,21.609h-1.575
		c0-0.606,0.022-1.209,0.066-1.808h1.265C184.691,20.393,184.771,20.995,184.847,21.609z M150.795,21.609
		c0-0.628,0.021-1.257,0.066-1.886h1.254c0.088,0.614,0.174,1.243,0.254,1.886H150.795z M161.177,21.609h-5.657
		c-0.074-0.628-0.152-1.253-0.232-1.875l5.635,0.011C161.01,20.359,161.096,20.98,161.177,21.609z M147.689,21.609h-5.79
		c0.022-0.658,0.048-1.294,0.078-1.908l5.79,0.012C147.729,20.326,147.704,20.958,147.689,21.609z M96.222,21.609h-5.791
		c-0.065-0.681-0.147-1.357-0.243-2.03l5.745,0.012C96.045,20.256,96.141,20.928,96.222,21.609z M87.127,19.568
		c0.111,0.673,0.203,1.354,0.278,2.041h-1.687c0.016-0.681,0.049-1.36,0.101-2.041H87.127z M77.011,19.546l5.69,0.011
		c-0.044,0.658-0.078,1.342-0.1,2.052h-5.69C76.926,20.921,76.959,20.233,77.011,19.546z M109.422,21.609
		c0.022-0.688,0.048-1.35,0.078-1.986l5.701,0.012c-0.051,0.702-0.077,1.36-0.077,1.974H109.422z M118.307,19.646h1.309
		c0.103,0.643,0.196,1.298,0.277,1.963h-1.664C118.236,20.928,118.262,20.274,118.307,19.646z M128.699,21.609h-5.657
		c-0.066-0.658-0.148-1.309-0.243-1.952l5.623,0.011C128.526,20.304,128.619,20.951,128.699,21.609z"/>
	<path fill-rule="evenodd" clip-rule="evenodd" fill="#5C376A" d="M41.794,19.468V286.45c0,2.433,0.632,4.448,1.896,6.045
		c1.257,1.679,2.806,2.519,4.647,2.519h205.688c1.457,0,2.732-0.518,3.827-1.554c-0.015,0.015-0.029,0.03-0.044,0.045
		c-1.266,1.671-2.818,2.507-4.658,2.507H47.207c-1.841,0-3.39-0.836-4.647-2.507c-1.264-1.679-1.897-3.734-1.897-6.168V20.467
		L41.794,19.468z M187.854,80.263h53.584v1.52h-49.825C190.395,81.214,189.142,80.708,187.854,80.263z M96.378,115.524
		c-0.015,0.499-0.024,0.998-0.028,1.497H80.572v-1.497H96.378z M165.453,80.263c-0.387,0.171-0.77,0.352-1.148,0.543
		c-0.666,0.336-1.306,0.662-1.918,0.976h-7.799c0.385,1.265,0.81,2.433,1.275,3.505c-1.575,0.909-2.706,1.645-3.394,2.207
		c-1.657-0.747-3.491-1.56-5.502-2.44c-0.045-1.168-0.111-2.259-0.2-3.272h-7.221c-0.936-0.41-1.897-0.832-2.883-1.264
		c-0.201-0.088-0.402-0.173-0.605-0.255h10.543c-0.104-0.784-0.226-1.508-0.367-2.174c-0.969-4.304-1.479-7.531-1.531-9.683
		c-0.133-3.261-0.11-5.516,0.066-6.766c0.104-0.717,1.653-1.601,4.648-2.651c1.567-0.577,3.475-1.213,5.723-1.908
		c-1.117,3.276-1.841,5.701-2.174,7.276c-0.511,2.515-0.625,5.047-0.344,7.598c0.162,1.419,0.362,2.777,0.599,4.071
		c0.266,1.501,0.573,2.913,0.921,4.237c1.397,0.141,3.062,0.167,4.99,0.078c0.421-0.02,0.838-0.045,1.248-0.078H165.453z
		 M119.787,80.263c-0.312,0.116-0.624,0.238-0.937,0.366c-0.849,0.35-1.679,0.734-2.491,1.153H80.572v-1.52H119.787z
		 M212.121,117.021c0.001-0.497-0.003-0.996-0.011-1.497h29.327v1.497H212.121z M202.871,152.15c0.165-0.269,0.328-0.539,0.487-0.81
		c0.113-0.192,0.224-0.385,0.333-0.578h37.746v1.387H202.871z M104.23,150.763c0.244,0.466,0.49,0.928,0.743,1.387H80.572v-1.387
		H104.23z M241.438,187.388H80.572v-1.508h160.866V187.388z M241.438,222.517H80.572v-1.386h160.866V222.517z"/>
	<path fill-rule="evenodd" clip-rule="evenodd" fill="#A9AC43" d="M160.383,80.263c-0.41,0.032-0.827,0.058-1.248,0.078
		c-1.929,0.089-3.593,0.063-4.99-0.078c-0.348-1.324-0.655-2.736-0.921-4.237c-0.097-2.936,0.3-5.657,1.187-8.164
		c0.925-2.61,2.415-5.11,4.471-7.499c1.02-1.198,1.951-2.133,2.795-2.806l0.466,3.782c0.147,3.062-0.241,5.897-1.165,8.508
		c-0.48,1.368-1.119,2.707-1.919,4.015c2.603-2.344,5.376-4.182,8.319-5.513c3.697-1.649,7.827-2.584,12.389-2.807l5.725,0.178
		l-3.672,4.404c-3.165,3.268-6.6,5.738-10.305,7.409C168.164,79.038,164.454,79.948,160.383,80.263z"/>
	<path fill-rule="evenodd" clip-rule="evenodd" fill="#E8D8C7" d="M224.633,36.96h-5.445c0.931-2.832,1.427-6.123,1.486-9.872
		c0-0.015,0-0.037,0-0.067c0.037-1.863-0.029-3.667-0.2-5.413h5.779c0.17,1.649,0.239,3.368,0.211,5.158c0,0.111,0,0.218,0,0.322
		C226.368,30.963,225.758,34.254,224.633,36.96z M206.942,21.609h5.7c-0.022,0.658-0.032,1.328-0.032,2.007l3.149-0.122
		c-0.015-0.629-0.019-1.257-0.011-1.886h1.675c0.185,1.649,0.262,3.368,0.232,5.158c0,0.111,0,0.218,0,0.322
		c-0.096,3.875-0.707,7.166-1.83,9.872h-6.367v0.133v11.28c0.03,1.042,0.618,1.564,1.764,1.564h11.968
		c1.258,0,1.886-0.547,1.886-1.642v-5.878c0.4-0.415,0.781-0.891,1.143-1.431c0.518-0.902,0.977-1.867,1.376-2.895
		c1.191-3.083,1.819-6.751,1.886-11.003c0-0.015,0-0.037,0-0.067c0.036-1.863-0.029-3.667-0.199-5.413h28.528v242.825
		c0,1.552-0.299,2.939-0.898,4.159c-0.066,0.125-0.134,0.255-0.2,0.389c-0.008,0-0.011,0.003-0.011,0.01
		c-0.015,0.066-0.033,0.131-0.056,0.189c-0.317,1.005-0.813,1.937-1.486,2.794c-1.249,1.517-2.713,2.274-4.393,2.274H59.552
		c-1.679,0-3.146-0.758-4.403-2.274c-1.131-1.449-1.719-3.205-1.764-5.268v0.244c0,2.174,0.588,4.019,1.764,5.534
		c1.257,1.509,2.725,2.263,4.403,2.263h191.213c1.25,0,2.381-0.414,3.395-1.242c0.348-0.296,0.68-0.636,0.998-1.021
		c0.089-0.11,0.174-0.222,0.255-0.332v3.859c0,0.547-0.041,1.079-0.122,1.597v0.167c0,2.174-0.588,4.02-1.764,5.535
		c-0.976,1.168-2.1,1.885-3.372,2.151c-0.377,0.074-0.762,0.111-1.153,0.111H57.789c-1.761,0-3.229-0.754-4.404-2.263
		c-0.546-0.658-0.976-1.383-1.287-2.174c-0.407-1.021-0.61-2.142-0.61-3.361v-1.042c0.074,2.033,0.706,3.763,1.896,5.19
		c1.175,1.509,2.643,2.263,4.404,2.263h191.213c1.753,0,3.261-0.754,4.525-2.263c0.763-0.976,1.279-2.101,1.554-3.372
		c-0.312,1.08-0.829,2.078-1.554,2.995c-1.265,1.508-2.731,2.263-4.403,2.263H57.789c-1.679,0-3.146-0.755-4.404-2.263
		c-1.161-1.456-1.79-3.128-1.885-5.014c-0.007-0.021-0.011-0.039-0.011-0.056c0.288,1.183,0.795,2.244,1.52,3.184
		c1.25,1.508,2.717,2.263,4.404,2.263h191.335c1.76,0,3.271-0.755,4.537-2.263c0.99-1.287,1.563-2.803,1.72-4.548
		c-0.075,0.421-0.179,0.828-0.312,1.22c-0.288,1.043-0.758,1.985-1.408,2.828c-1.266,1.509-2.737,2.264-4.415,2.264H57.534
		c-1.767,0-3.235-0.755-4.403-2.264c-1.213-1.456-1.846-3.22-1.897-5.29v-0.166c0.051,0.229,0.11,0.45,0.177,0.665l0.022,0.011
		c0.251,1.346,0.776,2.559,1.575,3.638c0.178,0.215,0.362,0.42,0.554,0.611c1.125,1.108,2.407,1.663,3.85,1.663h190.703
		c0.998,0,1.919-0.243,2.761-0.731c-0.591,0.229-1.216,0.345-1.874,0.345H57.667c-1.678,0-3.15-0.755-4.414-2.264
		c-0.289-0.363-0.541-0.74-0.754-1.132c0.118,0.171,0.248,0.336,0.388,0.499c1.168,1.509,2.633,2.263,4.392,2.263h190.703
		c0.902,0,1.741-0.214,2.519-0.643c-0.555,0.185-1.139,0.277-1.753,0.277H57.412c-1.687,0-3.154-0.755-4.404-2.263
		c-1.139-1.539-1.73-3.347-1.774-5.425c0.221,1.487,0.772,2.788,1.652,3.905c1.257,1.509,2.721,2.262,4.392,2.262h190.837
		c1.25,0,2.369-0.377,3.36-1.13c-0.77,0.42-1.594,0.632-2.474,0.632H57.667c-1.678,0-3.15-0.755-4.414-2.264
		c-1.176-1.598-1.764-3.486-1.764-5.668V27.399v-1.131h0.377v242.058c0,2.182,0.587,4.072,1.763,5.669
		c1.256,1.509,2.725,2.264,4.404,2.264h190.204c1.323,0,2.51-0.463,3.56-1.388c-0.843,0.503-1.774,0.754-2.795,0.754H58.543
		c-1.686,0-3.154-0.754-4.404-2.263c-1.176-1.509-1.764-3.354-1.764-5.535V26.134v-1.131h1.009v240.051
		c0,2.182,0.588,4.071,1.764,5.669c1.257,1.508,2.725,2.262,4.403,2.262h191.213c1.472,0,2.78-0.581,3.927-1.74
		c-0.924,0.658-1.945,0.986-3.062,0.986H60.296c-1.752,0-3.217-0.754-4.393-2.262c-1.258-1.509-1.886-3.354-1.886-5.535V23.25
		v-1.641h19.777c-0.014,0.658-0.022,1.328-0.022,2.007l3.151-0.122c-0.015-0.629-0.019-1.257-0.012-1.886h5.69
		c-0.015,0.658-0.022,1.328-0.022,2.007l3.15-0.122c-0.016-0.629-0.019-1.257-0.012-1.886h1.687c0.177,1.649,0.247,3.368,0.21,5.158
		c0,0.111,0,0.218,0,0.322c-0.088,3.875-0.695,7.166-1.818,9.872H79.44v0.133v11.28c0.029,1.042,0.617,1.564,1.764,1.564h11.957
		c1.256,0,1.886-0.547,1.886-1.642v-5.89c0.399-0.407,0.776-0.88,1.131-1.42c0.525-0.887,0.983-1.845,1.376-2.873
		c1.205-3.091,1.837-6.766,1.896-11.025c0-0.015,0-0.037,0-0.067c0.029-1.863-0.041-3.667-0.211-5.413h7.077
		c-0.007,0.732,0.014,1.401,0.066,2.007l3.017-0.122c0-0.643,0.008-1.272,0.022-1.886h5.701c-0.007,0.732,0.015,1.401,0.066,2.007
		l3.018-0.122c0-0.643,0.007-1.272,0.021-1.886h1.664c0.169,1.649,0.236,3.368,0.199,5.158c0,0.111,0,0.218,0,0.322
		c-0.089,3.875-0.695,7.166-1.819,9.872h-6.355v0.133v11.28c0.029,1.042,0.617,1.564,1.763,1.564h12.09
		c0.415,0,0.828-0.17,1.243-0.51c0.34-0.34,0.51-0.717,0.51-1.131v-5.878c0.48-0.458,0.858-0.936,1.131-1.431
		c0.518-0.887,0.976-1.837,1.375-2.85c1.22-3.099,1.893-6.781,2.02-11.048c0-0.015,0-0.037,0-0.067
		c0.036-1.863-0.03-3.667-0.2-5.413h7.032c-0.015,0.658-0.022,1.328-0.022,2.007l3.017-0.122c0-0.643,0.007-1.272,0.022-1.886h5.79
		c-0.015,0.658-0.022,1.328-0.022,2.007l3.15-0.122c-0.021-0.629-0.029-1.257-0.021-1.886h1.574c0.171,1.649,0.236,3.368,0.2,5.158
		c0,0.111,0,0.218,0,0.322c-0.089,3.875-0.669,7.166-1.741,9.872h-6.434v0.133v11.236c0.008,0.407,0.174,0.772,0.499,1.098
		c0.421,0.34,0.843,0.51,1.265,0.51h12.078c1.176,0,1.764-0.547,1.764-1.642v-5.878c0.481-0.458,0.858-0.936,1.132-1.431
		c0.518-0.887,0.976-1.837,1.376-2.85c1.22-3.099,1.893-6.781,2.019-11.048c0-0.015,0-0.037,0-0.067
		c0.036-1.863-0.03-3.667-0.2-5.413h7.032c-0.021,0.658-0.032,1.328-0.032,2.007l3.15-0.122c-0.016-0.629-0.02-1.257-0.012-1.886
		h5.701c-0.022,0.658-0.033,1.328-0.033,2.007l3.149-0.122c-0.014-0.629-0.018-1.257-0.011-1.886h1.575
		c0.17,1.649,0.236,3.368,0.199,5.158c0,0.111,0,0.218,0,0.322c-0.089,3.875-0.669,7.166-1.741,9.872h-6.434v0.133v11.28
		c0.029,1.042,0.655,1.564,1.875,1.564h11.968c1.176,0,1.764-0.547,1.764-1.642v-5.878c0.48-0.458,0.857-0.936,1.132-1.431
		c0.577-0.947,1.079-1.97,1.509-3.073c1.189-3.046,1.818-6.655,1.885-10.825c0-0.015,0-0.037,0-0.067
		c0.06-1.856,0.008-3.66-0.154-5.413h6.987c-0.022,0.658-0.033,1.328-0.033,2.007l3.149-0.122
		C206.938,22.866,206.935,22.237,206.942,21.609z M161.177,21.609c0.169,1.649,0.237,3.368,0.199,5.158c0,0.111,0,0.218,0,0.322
		c-0.089,3.875-0.665,7.166-1.73,9.872h-5.534c0.953-2.832,1.489-6.123,1.607-9.872c0-0.015,0-0.037,0-0.067
		c0.037-1.863-0.029-3.667-0.199-5.413H161.177z M188.041,21.609h5.612c0.17,1.649,0.236,3.368,0.199,5.158c0,0.111,0,0.218,0,0.322
		c-0.096,3.875-0.672,7.166-1.729,9.872h-5.469c0.969-2.832,1.483-6.123,1.542-9.872c0-0.015,0-0.037,0-0.067
		C188.256,25.166,188.203,23.361,188.041,21.609z M187.854,80.263c-1.344-0.462-2.723-0.858-4.139-1.187
		c-6.832-1.564-12.92-1.169-18.262,1.187h-5.07c4.071-0.315,7.781-1.225,11.131-2.729c3.705-1.671,7.14-4.141,10.305-7.409
		l3.672-4.404l-5.725-0.178c-4.562,0.222-8.691,1.158-12.389,2.807c-2.943,1.331-5.717,3.169-8.319,5.513
		c0.8-1.309,1.438-2.647,1.919-4.015c0.924-2.61,1.313-5.446,1.165-8.508l-0.466-3.782c-0.844,0.672-1.775,1.607-2.795,2.806
		c-2.056,2.389-3.546,4.888-4.471,7.499c-0.887,2.506-1.283,5.228-1.187,8.164c-0.236-1.294-0.437-2.651-0.599-4.071
		c-0.281-2.551-0.167-5.083,0.344-7.598c0.333-1.575,1.057-4,2.174-7.276c-2.248,0.695-4.156,1.332-5.723,1.908
		c-2.995,1.05-4.544,1.934-4.648,2.651c-0.177,1.25-0.2,3.505-0.066,6.766c0.052,2.152,0.562,5.379,1.531,9.683
		c0.141,0.666,0.262,1.391,0.367,2.174h-10.543c-5.176-2.108-10.6-2.108-16.272,0H80.572v1.52h35.788
		c-4.889,2.526-9.11,6.315-12.661,11.37c-4.34,6.107-6.744,12.781-7.21,20.021c-0.049,0.783-0.086,1.566-0.11,2.352H80.572v1.497
		H96.35c-0.049,6.139,0.698,12.335,2.246,18.59c1.356,5.472,3.233,10.523,5.634,15.151H80.572v1.387h24.402
		c0.988,1.788,2.057,3.511,3.206,5.168c10.538,15.277,25.552,22.328,45.044,21.152c23.275-1.448,39.824-10.221,49.647-26.32h38.566
		v-1.387h-37.746c5.602-9.846,8.411-21.093,8.43-33.742h29.316v-1.497H212.11c-0.041-2.583-0.196-5.223-0.466-7.92
		c-0.688-6.922-3.822-13.078-9.406-18.468c-3.184-3.084-6.726-5.536-10.626-7.354h49.825v-1.52H187.854z M241.438,187.388v-1.508
		H80.572v1.508H241.438z M222.858,207.654c0.932-0.4,1.664-0.999,2.196-1.797c0.532-1.059,0.799-2.186,0.799-3.385
		c0.266-1.33,0.066-3.128-0.599-5.391c-1.332-1.063-2.861-1.797-4.593-2.195c-1.464-0.4-2.795-0.4-3.992,0
		c-1.198,0.398-2.197,1.265-2.996,2.596c-0.666,1.064-1.131,2.929-1.396,5.59c0.398,2.388,1.331,3.849,2.795,4.382
		c1.598,0.666,3.328,0.998,5.191,0.998L222.858,207.654z M220.063,195.686c0.4,0.398,0.933,0.598,1.598,0.598l-0.199,5.592
		c-0.267,2.388-0.599,4.115-0.998,5.179c-0.798,0.4-1.331,0.467-1.598,0.2c-0.267-0.266-0.6-0.333-0.998-0.2
		c-0.665-1.855-0.865-3.715-0.599-5.579l0.798-5.589C218.732,195.486,219.397,195.419,220.063,195.686z M241.438,222.517v-1.386
		H80.572v1.386H241.438z M250.222,282.546c-0.392,0.089-0.798,0.133-1.22,0.133H57.667c-1.678,0-3.15-0.758-4.414-2.273
		c-0.496-0.629-0.895-1.298-1.199-2.008c0.312,0.828,0.755,1.582,1.332,2.264c1.175,1.507,2.643,2.262,4.404,2.262h190.448
		C248.932,282.923,249.594,282.797,250.222,282.546z M94.614,36.96h-5.468c0.939-2.832,1.438-6.123,1.497-9.872
		c0-0.015,0-0.037,0-0.067c0.03-1.863-0.04-3.667-0.211-5.413h5.791c0.17,1.649,0.236,3.368,0.2,5.158c0,0.111,0,0.218,0,0.322
		C96.333,30.963,95.73,34.254,94.614,36.96z M123.042,21.609h5.657c0.17,1.649,0.237,3.368,0.2,5.158c0,0.111,0,0.218,0,0.322
		c-0.088,3.875-0.691,7.166-1.808,9.872h-5.458c0.954-2.832,1.49-6.123,1.608-9.872c0-0.015,0-0.037,0-0.067
		C123.279,25.158,123.212,23.354,123.042,21.609z M146.968,85.055c-2.256-1-4.73-2.09-7.42-3.272h7.221
		C146.857,82.795,146.923,83.886,146.968,85.055z M162.387,81.782c-2.676,1.374-4.851,2.542-6.523,3.505
		c-0.466-1.072-0.891-2.241-1.275-3.505H162.387z M207.685,193.289c0-1.464-0.599-2.329-1.797-2.596
		c-1.464-0.266-2.928-0.199-4.392,0.2l-4.781,1.198c-1.864,0.532-2.928,0.73-3.195,0.599v0.399l-0.398,0.199
		c0,0.666,0.398,0.933,1.197,0.799c0.933-0.267,1.598-0.332,1.997-0.199l0.2,0.398l0.199,0.799l0.598,4.394
		c-0.797,0.531-1.263,0.798-1.396,0.798h-0.798l-0.399,0.199l-0.4,0.799c0.8,0.398,1.266,0.532,1.398,0.398l1.797-0.598
		l1.598,12.168c0.392,1.331,0.92,2.396,1.586,3.193c1.065,0.267,2.063,0.2,2.994-0.199c1.598-0.666,2.662-1.197,3.195-1.598
		c0.665-0.399,1.53-1.131,2.596-2.195c1.197-1.465,1.862-2.396,1.996-2.795l-0.199-0.6c0-0.134-0.268-0.2-0.799-0.2l-0.998,1.398
		c-0.267,0.399-0.733,0.731-1.398,0.999l-1.197-10.971l4.192-0.199l0.599-0.599v-0.8c0-0.398-0.133-0.665-0.398-0.799l-2.996,0.6
		h-1.197L207.685,193.289z M176.949,199.08c0.266-0.267,0.665-0.4,1.198-0.4l-0.2,6.379l-3.193,1.396v-3.383
		c0-1.464,0.132-2.463,0.398-2.994L176.949,199.08z M147.211,210.249l1.598-2.197c0-0.665-0.266-0.798-0.799-0.397
		c-0.932,1.196-1.464,1.862-1.597,1.996l-2.196,1.396l-1.598-8.174c-0.931-1.864-2.129-2.928-3.594-3.195
		c-1.331-0.133-3.061-0.133-5.19,0l-1.398,0.4c-1.064,0.265-2.063,0.731-2.995,1.396c-0.932,0.665-1.53,1.465-1.797,2.396
		c-0.266,1.057,0.466,2.251,2.196,3.583h1.198l1.199,0.2v0.397c-1.199,0-2.396,0.4-3.594,1.198c-1.065,0.799-1.797,1.73-2.196,2.797
		c-0.4,1.063-0.267,2.262,0.399,3.594c0.798,1.197,2.329,2.194,4.592,2.994c2.262,0,3.859-0.467,4.792-1.398
		c0.798-0.665,1.664-1.664,2.595-2.995c1.996-0.266,3.661-0.731,4.992-1.397C145.016,212.179,146.146,211.313,147.211,210.249z
		 M162.973,200.877l0.2-3.395l-0.399-0.4l-0.599-0.398l-0.2,2.396c0,0.931-0.266,1.463-0.798,1.596
		c-1.997-1.862-3.728-2.661-5.191-2.395c-1.456,0-2.651,0.465-3.582,1.396c-1.065,1.065-1.798,2.197-2.197,3.395
		c-0.532,1.19-0.798,2.186-0.798,2.983c-0.133,3.194,0.399,5.658,1.598,7.388c1.33,1.464,3.789,1.996,7.375,1.598l2.995-1.797
		c1.065-0.666,1.931-1.465,2.596-2.396l-0.2-0.799l-0.799-0.2c-0.398,0.533-1.131,1.132-2.195,1.797l-2.396,1.198
		c-0.932-1.729-1.397-3.66-1.397-5.79v-5.778l1.597,0.398l1.598,1.797l1.198,0.4C162.441,203.471,162.973,202.473,162.973,200.877z
		 M163.572,195.086l2.994-0.998l0.999,20.553h-1.198c-0.266,0-0.398,0.134-0.398,0.4c-0.267,0.798-0.334,1.197-0.199,1.197
		c0,0.267,0.266,0.267,0.797,0l1.997-0.598l8.984-1v-0.797c-0.399-0.4-0.865-0.534-1.397-0.4c-0.666,0.267-1.197,0.267-1.597,0
		l0.2-5.392l1.996-0.598c0.798-0.267,1.397-0.334,1.797-0.2l1.597,3.195c0.666,1.33,0.932,2.328,0.799,2.994
		c-0.532,0.267-0.932,0.332-1.198,0.199l-0.998,0.599l0.399,1.598l3.194-1.198c0.932-0.132,2.195-0.132,3.793,0v-0.599l-0.199-0.599
		l-1.997-0.199c0,0.266-0.465,0.266-1.397,0l-1.597-3.594l-0.6-3.993c1.864-1.724,2.929-3.317,3.195-4.78
		c0.133-1.332-0.2-2.33-0.999-2.996c-0.665-0.665-1.797-0.931-3.394-0.799c-1.331,0-2.796,0.6-4.392,1.797l-0.799-8.186
		c-2.13,0-4.127,0.332-5.99,0.998l-5.592,2.197C162.373,194.688,162.773,195.086,163.572,195.086z M167.82,238.645l0.799-5.59
		c0.665-0.4,1.266-0.467,1.797-0.2c0.665,0.398,1.198,0.599,1.598,0.599l-0.199,5.591c0,1.464-0.334,3.19-0.999,5.18
		c-0.8,0.399-1.331,0.465-1.597,0.199c-0.267-0.266-0.6-0.332-0.999-0.199C167.688,242.76,167.555,240.899,167.82,238.645z
		 M171.215,232.056c-1.465-0.399-2.795-0.399-3.993,0c-1.331,0.399-2.396,1.265-3.194,2.596c-0.666,1.064-1.132,2.928-1.398,5.59
		c0.4,2.389,1.331,3.85,2.795,4.382c1.731,0.665,3.461,0.998,5.192,0.998l2.595-0.799c0.932-0.399,1.664-0.999,2.197-1.797
		c0.398-0.532,0.73-1.66,0.997-3.383c0-1.598-0.267-3.395-0.798-5.391C174.543,233.32,173.078,232.588,171.215,232.056z
		 M189.782,234.252c-1.198-1.065-2.662-1.797-4.392-2.196c-1.465-0.399-2.796-0.399-3.993,0c-1.199,0.399-2.196,1.265-2.995,2.596
		c-0.932,1.464-1.397,3.327-1.397,5.59c0.134,2.256,1.065,3.716,2.796,4.382c1.597,0.665,3.26,0.998,4.99,0.998l2.795-0.799
		c0.666-0.399,1.331-0.999,1.997-1.797c0.665-0.924,0.998-2.052,0.998-3.383C190.714,238.578,190.448,236.78,189.782,234.252z
		 M182.795,233.055c0.665-0.4,1.331-0.467,1.996-0.2c0.399,0.398,0.865,0.599,1.397,0.599l-0.199,5.591
		c0,1.064-0.266,2.791-0.799,5.18c-0.799,0.399-1.331,0.465-1.597,0.199c-0.267-0.266-0.6-0.332-0.999-0.199
		c-0.665-1.856-0.865-3.716-0.599-5.579L182.795,233.055z M202.161,232.255c0.267-2.129,0.267-3.794,0-4.991l-5.789,0.599
		l-2.996,0.599l-2.196,0.799v0.399l0.399,0.2h3.194l0.2,10.183c0.266,4.385,0.665,7.775,1.197,10.171
		c0.399,0.932,0.865,1.598,1.398,1.996c0.932,0.268,1.598,0.333,1.996,0.2c0.666,0,1.398-0.266,2.197-0.798l2.195-1.398l0.998-1.397
		l0.6-1.397l-0.4-0.6l-0.599-0.199l-0.798,1.397c-0.134,0.399-0.533,0.732-1.199,0.999c-0.398-0.932-0.598-2.33-0.598-4.193
		L202.161,232.255z M117.319,236.248v1.398l0.399,1.197c-2.655-2.263-4.781-2.995-6.378-2.196c-1.73,0.532-2.995,1.664-3.794,3.395
		c-0.532,1.457-0.399,3.05,0.399,4.78c0.799,1.598,2.596,2.196,5.391,1.797c0.798,1.996,1.198,3.993,1.198,5.99v6.189
		c-0.532,0.132-1.331,0.066-2.396-0.201c-0.932-0.265-1.664-0.665-2.196-1.197c-0.532-0.267-1.064-0.933-1.597-1.996
		c-0.267-0.933-0.2-1.864,0.2-2.795c0.266,1.063,0.666,1.464,1.198,1.197c0.532,0,0.932-0.332,1.198-0.998
		c0.132-0.932-0.2-1.664-0.999-2.196c-0.932-0.532-1.73-0.133-2.396,1.198c-0.532,2.396-0.333,4.393,0.599,5.988
		c1.198,1.598,2.795,2.596,4.792,2.996c2.388,0,4.248-0.799,5.579-2.396c1.197-1.464,1.93-3.262,2.196-5.391
		c0-2.264-0.532-4.126-1.597-5.59c-0.932-1.73-2.658-2.729-5.18-2.995l-0.599-2.784l-0.2-2.795c1.464,0.266,2.329,0.532,2.595,0.799
		l1.986,1.996h0.798l0.2-2.595l-0.6-2.396l-0.2-0.199L117.319,236.248z M134.49,233.852c-0.267,0.8-0.333,1.599-0.2,2.396
		c0,0.799-0.266,1.331-0.798,1.598c-1.997-1.863-3.727-2.662-5.191-2.396c-1.331,0-2.595,0.466-3.793,1.397
		c-0.666,0.665-1.397,1.797-2.197,3.394l-0.798,2.983c-0.133,3.328,0.465,5.791,1.797,7.388c1.331,1.465,3.792,1.997,7.387,1.597
		l2.995-1.797c1.199-0.799,1.997-1.597,2.396-2.396v-0.798l-0.998-0.2c-0.399,0.666-1.065,1.264-1.997,1.797l-2.396,1.198
		c-1.065-1.863-1.597-3.794-1.597-5.79v-5.779l1.797,0.399l1.597,1.797l1.198,0.399c0.799-0.399,1.332-1.397,1.597-2.995v-3.394
		l-0.199-0.399L134.49,233.852z M136.885,229.061c0.266-0.532,1.065-0.865,2.396-0.998l-0.2,22.75l-0.799,0.199h-0.798
		c-0.4,0.398-0.733,1.132-0.999,2.195c0.932,0.134,2.263,0.201,3.993,0.201l3.993,0.598c1.73,0,3.128,0.268,4.192,0.799
		c1.198,0.4,2.529,0.332,3.994-0.199v-1.197h-3.394c-0.533-0.534-0.865-1.331-0.999-2.396l-0.798-8.585l0.399-2.984l1.198-0.998
		l1.597-0.599l-0.199,7.376c-0.134,2.396,0,4.792,0.399,7.188h3.394l1.797-0.2l3.794-0.999l1.397-0.997l0.987-1.397l-1.387,0.399
		l-1.198,0.199l-1.197-7.775c-0.399-2.129-0.999-3.594-1.798-4.392c-0.798-0.933-1.93-1.398-3.395-1.398
		c-1.863,0.267-3.792,0.732-5.789,1.398l-0.4-12.379c-1.198,0-2.995,0.266-5.391,0.799c-2.129,0.532-4.125,1.197-5.989,1.996
		l0.199,0.599v0.6C136.286,229.526,136.619,229.593,136.885,229.061z M132.836,209.051l3.594,0.199l0.2,5.391l-0.998,1.198
		l-1.397,0.799L132.836,209.051z M133.635,201.875l1.997-0.6l0.599,6.578l-2.196-0.199c-0.932,0-1.53-0.134-1.796-0.4
		c0.931-0.266,1.397-0.799,1.397-1.597c0.266-0.791,0.2-1.587-0.2-2.386l-0.999-0.199
		C132.437,202.54,132.836,202.14,133.635,201.875z M119.859,203.672c0.399,0.398,0.6,0.994,0.6,1.785l-0.6,4.992l-0.399,1.796
		l-4.392,0.2l0.199-7.775c0.399-0.4,1.131-0.665,2.197-0.799L119.859,203.672z M100.305,193.889v0.598l0.598,0.201h0.399l4.193-0.4
		l0.6,16.162c-0.134,1.598-0.467,2.86-0.999,3.792l-1.997,0.999c-0.798,0.4-0.998,1.065-0.599,1.996l3.395-1.996l2.196-0.799
		c0.791-0.266,1.187-0.266,1.187,0l5.59,0.199c1.332,0.134,3.062,0.067,5.191-0.199c1.731-0.399,3.061-1.063,3.994-1.996
		c1.198-1.197,1.863-2.929,1.996-5.191c-0.798-2.655-2.196-4.381-4.192-5.18c-2.13-0.799-4.259-0.532-6.389,0.799l-0.6-12.778
		c-2.395,0.799-4.854,1.397-7.375,1.797C104.83,192.291,102.434,192.956,100.305,193.889z M191.235,89.514
		c2.714,1.553,5.181,3.642,7.398,6.267c2.588,3.024,4.274,6.437,5.058,10.238c0.962,4.732-0.555,7.476-4.548,8.23
		c-4.022,0.747-6.688-1.095-7.997-5.524c-0.563-2.559-0.983-4.426-1.265-5.602c-0.525-2.092-1.175-3.531-1.952-4.314
		c-3.431-2.714-5.941-4.988-7.531-6.822c-3.024-3.49-2.388-5.579,1.908-6.267C186.145,87,189.12,88.264,191.235,89.514z"/>
</g>
</svg>
