<?xml version="1.0" encoding="utf-8"?>
<!-- Generator: Adobe Illustrator 16.0.0, SVG Export Plug-In . SVG Version: 6.00 Build 0)  -->
<!DOCTYPE svg PUBLIC "-//W3C//DTD SVG 1.1//EN" "http://www.w3.org/Graphics/SVG/1.1/DTD/svg11.dtd">
<svg version="1.1" id="Layer_1" xmlns="http://www.w3.org/2000/svg" xmlns:xlink="http://www.w3.org/1999/xlink" x="0px" y="0px"
	 width="300px" height="300px" viewBox="0 0 300 300" enable-background="new 0 0 300 300" xml:space="preserve">
<g>
	<path fill-rule="evenodd" clip-rule="evenodd" fill="#C49C71" d="M224.386,12.711c0.153,0.077,0.305,0.157,0.456,0.241
		c1.335,0.776,2.618,1.932,3.846,3.467c0.722,0.921,1.827,2.361,3.315,4.318c4.93,6.056,8.215,10.911,9.857,14.565
		c-11.246,1.182-20.182,2.979-26.808,5.389c-7.995,2.912-14.075,7.17-18.238,12.775c-0.248,0.335-0.49,0.675-0.725,1.019
		c-0.046-2.21-0.557-6.448-1.532-12.712c-0.921-5.903-1.358-10.347-1.313-13.333c0.037-3.62,1.227-6.483,3.569-8.59
		c0.649-0.584,1.387-1.109,2.212-1.577c0.559-0.315,4.72-1.777,12.481-4.388c1.46-0.476,2.679-0.868,3.655-1.174
		c1.67-0.523,2.636-0.8,2.896-0.829C220.298,11.447,222.407,11.724,224.386,12.711z M255.102,41.647
		c3.302,0.683,3.966,0.914,1.992,0.691c0.093,0.016,0.181,0.03,0.265,0.046c13.096,3.186,24.856,10.505,35.282,21.958
		c-20.183-3.393-43.299,2.08-69.353,16.42c-10.164,5.596-17.481,10.244-21.947,13.944c-1.319,1.063-2.827,2.447-4.526,4.151
		c-1.414,1.422-2.962,3.067-4.641,4.934c-3.8,4.146-7.25,8.498-10.351,13.058c0,0.115,0.007,0.23,0.021,0.346
		c-0.015-0.101-0.03-0.2-0.045-0.299c-0.039,0.062-0.08,0.119-0.127,0.172c0.047-0.084,0.085-0.165,0.115-0.242
		c-0.614-4.429-0.671-8.901-0.173-13.415c0.361-3.338,1.156-7.477,2.384-12.412c0.722-4.208,1.443-7.313,2.165-9.316
		c0.46-1.236,1.205-2.879,2.233-4.928c1.182-2.365,1.977-4.011,2.383-4.94c1.383-3.899,2.438-6.774,3.167-8.625
		c0.879-2.229,1.835-4.105,2.867-5.631c0.465-0.685,0.945-1.299,1.44-1.842c1.182-1.029,2.105-1.876,2.773-2.544
		c2.411-2.464,5.235-4.702,8.476-6.713c3.438-2.096,7.008-3.658,10.708-4.687c7.708-2.21,14.207-3.343,19.495-3.396
		c1.65-0.046,3.781,0.365,6.391,1.232C247.939,40.116,250.941,40.794,255.102,41.647z M77.834,103.262
		c-0.092-0.598-0.096-1.09-0.012-1.473c0.007-0.016,0.02-0.027,0.034-0.036c0.046-0.713,0.146-1.412,0.299-2.095
		c-0.007-0.008-0.016-0.016-0.023-0.023c0.007-0.008,0.016-0.011,0.023-0.011c0.545-2.457,1.761-4.633,3.65-6.529
		c2.664-2.655,5.876-3.984,9.638-3.984c3.761,0,6.97,1.329,9.626,3.984c2.664,2.664,3.996,5.876,3.996,9.638
		c0,3.761-1.332,6.97-3.996,9.625c-2.656,2.665-5.865,3.996-9.626,3.996c-3.762,0-6.974-1.332-9.638-3.996
		C79.273,109.826,77.949,106.793,77.834,103.262z M258.891,88.616c-3.232-8.168-5.289-14.202-6.172-18.102
		c14.34-4.368,26.621-5.808,36.847-4.318c1.589,0.253,3.335,0.971,5.239,2.154c1.274,3.907,0.886,7.787-1.163,11.641
		c-1.075,2.05-3.593,5.286-7.553,9.707c-2.871,3.286-6.261,6.291-10.168,9.016c-2.933,1.95-6.963,4.311-12.091,7.082
		C263.308,101.489,261.662,95.763,258.891,88.616z M241.021,75.754c0.152,0.253,0.229,0.483,0.229,0.691
		c1.743,1.796,3.336,4.594,4.779,8.394c2.256,6.172,3.438,9.358,3.545,9.558c0.461,0.875,1.175,2.188,2.143,3.938
		c0.668,1.589,0.798,3.051,0.393,4.387c-1.077-0.928-1.996-2.598-2.765-5.009c-1.029-3.239-1.776-5.27-2.245-6.09
		c0-0.046-1.412-2.641-4.237-7.785c-1.697-3.078-2.955-5.75-3.776-8.014c0.36,0.108,0.67,0.054,0.932-0.161
		c0.254-0.3,0.456-0.45,0.611-0.45h0.621C241.05,75.466,240.974,75.646,241.021,75.754z M229.297,80.302
		c0.831-0.207,1.294-0.464,1.396-0.771c0.92,0.353,1.614,1.251,2.083,2.694c0.26,0.768,0.617,2.026,1.07,3.776
		c0.307,0.968,1.877,4.411,4.709,10.329c2.051,4.261,3.151,7.93,3.306,11.008c-2.564-2.411-5.082-6.598-7.554-12.563
		c-3.078-7.392-5.105-11.86-6.08-13.403C228.227,80.859,228.583,80.502,229.297,80.302z M181.823,116.746
		c0.967-2.165,1.178-2.81,0.633-1.935C182.057,115.456,181.845,116.101,181.823,116.746z M196.814,102.577
		c1.789-1.78,3.528-3.429,5.216-4.946c5.65-4.981,11.404-9.066,17.262-12.251c1.542,3.293,4.007,8.713,7.393,16.259
		c3.078,6.731,5.673,12.048,7.784,15.948c-5.704,2.671-12.509,4.521-20.417,5.55c-6.495,0.891-12.241,1.249-17.237,1.076
		c-5.637-0.196-10.32-1.069-14.048-2.62c0.929-3.493,2.472-6.471,4.629-8.936C190.677,108.926,193.815,105.566,196.814,102.577z
		 M113.195,231.075c1.489-0.506,2.491-0.886,3.005-1.139c0.714,0.514,0.918,1.538,0.611,3.074c-0.154,0.82-0.358,1.746-0.611,2.774
		c2.204,1.957,5.182,3.315,8.936,4.076c0.867,0.162,4.694,0.577,11.48,1.244c1.589,0.153,4.107,0.432,7.554,0.841
		c3.132,0.307,5.879,0.333,8.244,0.08c8.222-0.975,15.229-3.466,21.026-7.474c-0.2-0.874-0.327-1.52-0.38-1.936
		c-0.107-0.559-0.081-1.043,0.081-1.449c1.142,0.13,2.59,0.469,4.34,1.014c1.067,0.43,3.505,1.396,7.313,2.9
		c1.473,1.182,5.062,3.701,10.766,7.556c4.83,3.652,8.19,7.452,10.087,11.397c-2.257,2.519-6.391,5.014-12.401,7.485
		c-3.854,1.596-8.092,2.931-12.713,4.007c-3.699,0.82-8.528,1.643-14.484,2.463c-6.119,0.868-11.795,1.279-17.03,1.234
		c-2.41-0.046-6.364,0.188-11.86,0.701c-4.415,0.353-8.502,0.322-12.263-0.091c-11.86-1.229-22.899-3.794-33.117-7.692
		c-3.807-1.488-5.991-2.363-6.552-2.627c-2.871-1.435-4.415-2.951-4.629-4.547c-0.153-0.975,0.411-2.284,1.692-3.926
		c0.622-0.823,1.728-2.08,3.317-3.778c2.003-2.057,3.953-3.776,5.85-5.159c1.443-1.028,3.703-2.417,6.782-4.167
		c4.521-2.465,8.248-4.314,11.181-5.55C110.24,232.027,111.499,231.59,113.195,231.075z"/>
	<path fill-rule="evenodd" clip-rule="evenodd" fill="#442F48" d="M224.386,12.711c-1.979-0.987-4.088-1.264-6.326-0.829
		c-0.261,0.029-1.227,0.306-2.896,0.829c-0.977,0.307-2.195,0.699-3.655,1.174c-7.762,2.61-11.923,4.072-12.481,4.388
		c-0.825,0.468-1.563,0.993-2.212,1.577c-2.343,2.107-3.532,4.971-3.569,8.59c-0.046,2.986,0.392,7.431,1.313,13.333
		c0.976,6.265,1.486,10.502,1.532,12.712c0.234-0.344,0.477-0.684,0.725-1.019c4.163-5.605,10.243-9.864,18.238-12.775
		c6.626-2.411,15.562-4.208,26.808-5.389c-1.643-3.654-4.928-8.509-9.857-14.565c-1.488-1.958-2.594-3.397-3.315-4.318
		c-1.228-1.535-2.511-2.69-3.846-3.467C224.69,12.868,224.539,12.788,224.386,12.711z M274.838,47.29
		c0.107,0.008,0.553,0.188,1.336,0.541c2.403,1.098,5.987,3.65,10.755,7.658c2.625,2.203,6.586,5.876,11.884,11.019
		c-0.308,0.868-0.361,2.51-0.162,4.929c0.261,2.518,0.207,4.391-0.161,5.62c-0.668,2.471-2.206,5.169-4.617,8.095
		c-1.443,1.696-3.704,4.164-6.781,7.403c-2.312,2.457-4.572,4.56-6.783,6.31c-1.896,1.436-4.491,3.132-7.784,5.09
		c-0.867,0.561-2.174,1.408-3.914,2.545c-1.551,0.929-3.04,1.516-4.467,1.762c0.505,3.339-0.396,5.423-2.708,6.252
		c-1.896,0.667-4.591,0.459-8.083-0.623c-0.567,0.568-1.52,2.237-2.855,5.009c-1.028,2.157-2.261,3.466-3.695,3.926
		c-1.337,0.468-3.007,0.338-5.009-0.391c-2.265-1.021-3.988-1.712-5.17-2.073c-1.307,0-2.93,0.338-4.872,1.013
		c-0.023-0.023-0.042-0.046-0.058-0.069c-7.545,2.502-15.971,4.115-25.273,4.837c-7.141,0.56-12.989,0.549-17.55-0.035
		c-0.828-0.031-2.451-0.276-4.87-0.736c-2.158-0.469-3.596-1.114-4.319-1.935c-0.09-1.021-0.137-1.712-0.137-2.073
		c0-0.514,0.149-1.051,0.449-1.612c-1.589-6.886-1.563-14.693,0.081-23.421c1.074-5.918,3.104-13.062,6.091-21.429
		c-0.208-0.03-0.419-0.03-0.634,0c0.339-0.146,0.707-0.307,1.105-0.484c-0.406,0.161-0.807,0.327-1.198,0.496
		c-0.629,0.069-1.339,0.319-2.129,0.749c-0.308,0.176-0.406,0.257-0.3,0.241c-6.647,2.709-10.966,4.43-12.954,5.159
		c-8.167,2.925-18.366,7.37-30.594,13.334c-1.436,0.668-3.719,1.647-6.851,2.937c-3.033,1.228-5.293,2.199-6.782,2.913
		c-4.415,2.165-9.063,4.736-13.945,7.714c-2.933,1.85-5.09,3.723-6.471,5.619c1.436,5.903,4.287,13.096,8.555,21.578
		c5.597,11.094,8.935,18.028,10.019,20.809c0.767,1.536,2.026,4.152,3.777,7.854c1.588,3.391,2.894,6.038,3.915,7.932
		c0.354,0.661,3.504,6.226,9.454,16.697c2.056,4.083,3.864,7.278,5.422,9.58c0.031,0.062,0.065,0.119,0.104,0.173
		c0.621,0.967,1.335,2.219,2.142,3.753c0.637,1.214,1.327,2.604,2.072,4.169c0.283,0.438,0.741,1.072,1.37,1.899
		c0.107,0.139,0.66,1.098,1.659,2.88c0.252,0.46,0.49,0.886,0.713,1.277v0.013c0.262,0.553,0.542,1.162,0.841,1.83
		c0.015,0.038,0.038,0.088,0.068,0.148c0.016-0.046,0.042-0.085,0.081-0.114c0.016-0.016,0.035-0.022,0.058-0.022
		c0.008-0.008,0.016-0.012,0.023-0.012c0.007,0.015,0.023,0.034,0.046,0.058c2.165,0.584,5.216,1.962,9.154,4.133
		c4.068,2.267,6.202,5.039,6.402,8.325c0.891,0.554,2.275,1.082,4.156,1.59c1.881,0.491,4.94,1.604,9.178,3.338
		c7.14,3.646,13.354,8.372,18.642,14.176l1.475,1.313c3.023,3.023,4.359,6.313,4.007,9.867
		c-12.49,7.141-24.872,11.686-37.146,13.634c-16.903,1.696-31.005,2.288-42.305,1.774c-15.298-0.722-28.525-3.47-39.679-8.244
		c-6.049-2.402-9.564-4.193-10.547-5.366c-2.026-1.467-2.599-2.746-1.716-3.834c0.583-1.637,1.332-2.986,2.245-4.054
		c2.878-2.673,4.882-4.649,6.011-5.93c1.489-1.698,2.491-2.802,3.005-3.318c1.136-1.127,2.396-2.18,3.777-3.154
		c5.235-3.652,11.016-6.762,17.342-9.325c0.46-0.201,2.713-1.283,6.758-3.247c0.631-0.316,1.182-0.582,1.659-0.796
		c0.852-4.783,4.134-8.084,9.845-9.902c-2.979-7.293-7.297-16.9-12.954-28.82c-7.085-14.947-11.653-24.735-13.702-29.363
		c-1.65-3.691-4.019-8.494-7.105-14.405c-3.791-7.185-6.255-11.96-7.391-14.324c-1.183-2.671-2.082-4.675-2.695-6.011
		c-0.921-1.935-1.807-3.504-2.66-4.709c-0.86-0.599-1.685-1.294-2.476-2.084c-3.354-3.355-5.031-7.404-5.031-12.148
		c0-4.736,1.677-8.786,5.031-12.148c3.355-3.354,7.405-5.032,12.148-5.032c2.065,0,4,0.319,5.804,0.957
		c3.6-2.35,7.419-4.496,11.457-6.438c3.34-1.65,7.808-3.63,13.403-5.94c5.45-2.871,17.292-8.287,35.523-16.247
		c14.999-6.526,26.453-12.36,34.359-17.503c0-0.245-0.177-3.996-0.529-11.25c-0.261-4.613,0.019-8.079,0.84-10.397
		c1.958-1.95,5.198-3.746,9.719-5.39c0.154,0,3.851-1.105,11.089-3.316c2.925-0.875,5.443-1.283,7.555-1.221
		c2.516,0.046,4.932,0.76,7.242,2.142c2.97,3.446,6.179,7.534,9.624,12.263c1.744,2.457,4.724,6.744,8.938,12.862
		c2.463,1.029,6.291,2.157,11.479,3.385C262.694,41.156,268.421,43.613,274.838,47.29z M255.102,41.647
		c-4.16-0.853-7.162-1.531-9.004-2.038c-2.609-0.867-4.74-1.278-6.391-1.232c-5.288,0.053-11.787,1.186-19.495,3.396
		c-3.7,1.029-7.27,2.591-10.708,4.687c-3.24,2.012-6.064,4.249-8.476,6.713c-0.668,0.668-1.592,1.516-2.773,2.544
		c-0.495,0.543-0.976,1.157-1.44,1.842c-1.032,1.526-1.988,3.402-2.867,5.631c-0.729,1.851-1.784,4.726-3.167,8.625
		c-0.406,0.929-1.201,2.575-2.383,4.94c-1.028,2.049-1.773,3.692-2.233,4.928c-0.722,2.003-1.443,5.108-2.165,9.316
		c-1.228,4.935-2.022,9.073-2.384,12.412c-0.498,4.514-0.441,8.986,0.173,13.415c-0.03,0.077-0.068,0.157-0.115,0.242
		c0.047-0.054,0.088-0.111,0.127-0.172c0.015,0.099,0.03,0.199,0.045,0.299c-0.015-0.115-0.021-0.23-0.021-0.346
		c3.101-4.56,6.551-8.912,10.351-13.058c1.679-1.867,3.227-3.512,4.641-4.934c1.699-1.704,3.207-3.088,4.526-4.151
		c4.466-3.7,11.783-8.348,21.947-13.944c26.054-14.34,49.17-19.813,69.353-16.42c-10.426-11.454-22.187-18.773-35.282-21.958
		c-0.084-0.016-0.172-0.03-0.265-0.046C259.067,42.561,258.403,42.33,255.102,41.647z M246.407,72.817
		c-0.874,0.261-1.464,0.649-1.771,1.164c0.621,2.879,2.062,6.833,4.318,11.86c1.235,2.833,3.112,7.02,5.629,12.563
		c0.823,2.057,1.126,4.007,0.911,5.849c-0.254,1.136-0.968,1.885-2.143,2.246c-1.182,0.353-2.237,0.119-3.166-0.703
		c-1.436-4.307-3.593-9.239-6.471-14.796c-4.062-7.754-6.425-12.402-7.093-13.944c-1.121,0.161-1.938,0.575-2.453,1.243
		c0.515,2.464,1.539,5.416,3.072,8.855c0.923,2.003,2.362,5.031,4.318,9.084c1.536,3.293,2.484,5.631,2.846,7.013
		c0.774,2.878,0.544,5.297-0.69,7.254c-2.772,0.461-5.649-2.135-8.637-7.785c-1.182-2.21-2.695-5.73-4.536-10.559
		c-1.95-5.143-3.336-8.532-4.158-10.167c-0.775,0.253-2.11,0.868-4.008,1.842c-0.06,0.36,0.116,0.695,0.531,1.001
		c0.361,0.315,0.487,0.703,0.381,1.163c-0.3,1.282,0.11,2.875,1.23,4.779c0.622,1.12,1.755,2.84,3.397,5.159
		c0.875,1.281,1.878,3.208,3.006,5.78c1.343,2.925,2.318,4.901,2.924,5.93c0.623,1.129,1.858,2.901,3.709,5.32
		c0.713,1.074,1.688,2.744,2.923,5.008c1.184,1.696,2.569,2.491,4.158,2.384c1.596-0.1,2.778-1.152,3.546-3.155
		c0.93-2.672,1.7-4.292,2.314-4.859c1.236-1.074,2.978-1.458,5.228-1.151c1.244,0.153,2.917,0.433,5.02,0.84
		c0.877-2.463,0.98-5.469,0.312-9.016c-0.307-1.644-0.925-3.696-1.854-6.16c-1.229-2.979-2.152-5.266-2.775-6.864
		c-0.254-0.56-0.456-1.408-0.609-2.545c-0.216-1.227-0.423-2.122-0.622-2.682c-0.253-0.821-0.767-1.9-1.543-3.236
		c-0.822-1.39-1.337-2.368-1.542-2.936c-0.563-1.796-0.973-3.056-1.232-3.777c-0.516-1.228-1.259-2.126-2.235-2.694
		C247.668,72.434,246.922,72.665,246.407,72.817z M229.297,80.302c-0.714,0.2-1.07,0.557-1.07,1.071
		c0.975,1.543,3.002,6.011,6.08,13.403c2.472,5.965,4.989,10.152,7.554,12.563c-0.154-3.079-1.255-6.748-3.306-11.008
		c-2.832-5.918-4.402-9.361-4.709-10.329c-0.453-1.75-0.811-3.009-1.07-3.776c-0.469-1.443-1.163-2.342-2.083-2.694
		C230.591,79.837,230.128,80.095,229.297,80.302z M241.021,75.754c-0.047-0.107,0.029-0.288,0.229-0.542h-0.621
		c-0.155,0-0.357,0.15-0.611,0.45c-0.262,0.214-0.571,0.269-0.932,0.161c0.821,2.265,2.079,4.937,3.776,8.014
		c2.825,5.144,4.237,7.739,4.237,7.785c0.469,0.82,1.216,2.851,2.245,6.09c0.769,2.412,1.688,4.081,2.765,5.009
		c0.405-1.335,0.275-2.797-0.393-4.387c-0.968-1.75-1.682-3.063-2.143-3.938c-0.106-0.199-1.289-3.386-3.545-9.558
		c-1.443-3.8-3.036-6.598-4.779-8.394C241.25,76.237,241.173,76.007,241.021,75.754z M258.891,88.616
		c2.771,7.146,4.417,12.873,4.939,17.18c5.128-2.771,9.158-5.132,12.091-7.082c3.907-2.725,7.297-5.729,10.168-9.016
		c3.96-4.421,6.478-7.657,7.553-9.707c2.049-3.854,2.438-7.733,1.163-11.641c-1.904-1.183-3.65-1.901-5.239-2.154
		c-10.226-1.49-22.507-0.05-36.847,4.318C253.602,74.415,255.658,80.448,258.891,88.616z M77.834,103.262
		c0.115,3.531,1.439,6.563,3.972,9.096c2.664,2.665,5.876,3.996,9.638,3.996c3.761,0,6.97-1.332,9.626-3.996
		c2.664-2.655,3.996-5.864,3.996-9.625c0-3.762-1.332-6.974-3.996-9.638c-2.656-2.655-5.865-3.984-9.626-3.984
		c-3.762,0-6.974,1.329-9.638,3.984c-1.889,1.896-3.105,4.073-3.65,6.529c-0.007,0-0.016,0.003-0.023,0.011
		c0.007,0.007,0.016,0.016,0.023,0.023c-0.154,0.683-0.253,1.382-0.299,2.095c-0.015,0.008-0.027,0.02-0.034,0.036
		C77.738,102.172,77.742,102.664,77.834,103.262z M101.98,89.848c0.676-0.283,1.613-0.951,2.81-2.003
		c3.186-1.797,6.989-3.746,11.411-5.85c3.186-1.489,8.245-3.646,15.177-6.471c2.671-1.229,6.832-2.925,12.482-5.09
		c5.441-2.057,9.423-3.676,11.94-4.859c13.311-6.057,21.582-9.753,24.813-11.088c0.046-0.46,0.403-1.359,1.07-2.694
		c0.569-1.129,0.727-2.004,0.474-2.625c-2.365,1.697-5.681,3.366-9.949,5.008c-5.489,2.112-8.979,3.551-10.466,4.319
		c-0.775,0.354-2.012,1.071-3.709,2.153c-1.535,1.029-2.794,1.747-3.776,2.154c-12.689,5.404-22.143,9.488-28.361,12.251
		c-10.478,4.652-19.288,9.009-26.426,13.07C100.338,88.604,101.174,89.18,101.98,89.848z M107.934,99.336
		c0.352,0.667,0.537,1.074,0.552,1.22c5.243-2.517,17.982-8.037,38.217-16.558c15.668-6.633,27.996-12.566,36.984-17.802
		c-0.668-0.107-1.259-0.906-1.772-2.395c-0.56-1.696-1.099-2.749-1.612-3.156c0.153-0.46,0.126-1.001-0.081-1.623
		c-0.208-0.714-0.282-1.305-0.229-1.773h-0.612c-6.993,3.401-12.203,5.896-15.636,7.485c-2.494,1.167-4.874,2.207-7.138,3.121
		c2.924-0.96-1.463,0.871-13.162,5.493l-0.38,0.161c-11.369,4.745-20.812,8.874-28.326,12.39c-5.964,2.764-9.2,5.144-9.707,7.139
		C106.459,94.941,107.427,97.041,107.934,99.336z M108.797,106.728c5.343-3.393,11.633-6.759,18.873-10.098
		c3.446-1.597,8.635-3.834,15.568-6.713c-13.311,6.035-3.343,2.057,29.904-11.928c6.777-3.393,11.833-5.988,15.164-7.785
		c-0.046-0.361-0.403-0.514-1.071-0.461c-0.715,0.107-1.175-0.046-1.382-0.46c0.101,0,0.178-0.053,0.23-0.161
		c0-0.053-0.076-0.104-0.23-0.149c-0.668,0.515-1.542,0.925-2.625,1.232c-1.228,0.307-2.1,0.511-2.614,0.61
		c-12.044,4.759-29.017,12.148-50.917,22.166c-10.762,4.928-16.332,7.55-16.708,7.864c-1.474,0.729-2.763,1.455-3.869,2.176
		c0.045,0.361,0.146,0.929,0.299,1.704C109.465,105.438,109.258,106.106,108.797,106.728z M142.04,73.9
		c-2.625,0.943-4.64,1.688-6.045,2.233c-1.229,0.514-3.048,1.362-5.458,2.545C135.211,76.729,139.046,75.136,142.04,73.9z
		 M128.453,94.454c1.036-0.446,2.045-0.875,3.028-1.29c-0.484,0.215-0.929,0.417-1.336,0.61c-0.491,0.223-1.556,0.668-3.19,1.336
		C127.431,94.895,127.93,94.677,128.453,94.454z M143.939,87.845l11.631-5.009c-3.394,1.543-5.988,2.702-7.784,3.478
		C146.442,86.857,145.16,87.369,143.939,87.845z M192.312,45.781c-3.638,0.821-6.201,2.825-7.69,6.011
		c-1.444,3.132-1.551,6.801-0.322,11.008c0.774,0.361,1.601,0.979,2.475,1.854c0.722,0.668,1.648,1.182,2.775,1.543
		c0.462-0.461,0.769-1.079,0.922-1.854c0.26-0.967,0.464-1.582,0.61-1.842c-3.079-1.336-4.438-3.598-4.077-6.783
		c0.415-3.239,2.495-5.013,6.241-5.32c-0.153-0.407-0.253-1.278-0.3-2.613C192.885,46.756,192.674,46.088,192.312,45.781z
		 M192.635,59.726c1.544-3.078,1.646-5.339,0.311-6.782c-1.243,0.414-1.965,1.493-2.165,3.236
		C190.574,57.983,191.191,59.165,192.635,59.726z M196.814,102.577c-2.999,2.989-6.138,6.349-9.419,10.081
		c-2.157,2.464-3.7,5.442-4.629,8.936c3.728,1.55,8.411,2.424,14.048,2.62c4.996,0.173,10.742-0.186,17.237-1.076
		c7.908-1.029,14.713-2.879,20.417-5.55c-2.111-3.9-4.706-9.216-7.784-15.948c-3.386-7.546-5.851-12.966-7.393-16.259
		c-5.857,3.186-11.611,7.27-17.262,12.251C200.343,99.148,198.604,100.797,196.814,102.577z M181.823,116.746
		c0.021-0.645,0.233-1.29,0.633-1.935C183.001,113.936,182.79,114.581,181.823,116.746z M99.423,118.312
		c0.915,2.611,2.219,5.608,3.916,8.994c1.075,2.157,2.691,5.208,4.848,9.155c0.515,0.982,1.183,2.529,2.004,4.64
		c0.768,2.096,1.435,3.658,2.003,4.687c0.668,1.29,5.75,11.717,15.246,31.286c6.071,12.481,11.621,22.367,16.65,29.661
		c0.46,1.442,1.332,3.344,2.613,5.701c1.29,2.516,2.164,4.42,2.625,5.709c0,0.255-0.153,0.588-0.461,1.002
		c-0.207,0.253-0.157,0.534,0.151,0.841c1.128,0.514,2.053,0.568,2.774,0.162c0.799-0.715,0.914-0.859,0.346-0.438
		c1.145-1.149,1.193-2.087,0.149-2.809c-0.476-0.944-0.939-1.861-1.392-2.752c-0.008,0-0.015-0.004-0.024-0.012
		c0-0.017,0-0.033,0-0.058c-7.561-15.008-12.032-24.031-13.415-27.07c-1.381-3.187-2.687-5.395-3.915-6.622
		c-4.737-8.727-8.955-17.389-12.655-25.978c-1.336-3.123-4.441-9.389-9.315-18.792c-4-7.752-6.874-14.175-8.624-19.264
		c-0.284,0.046-0.803,0.265-1.555,0.656C100.756,117.494,100.1,117.928,99.423,118.312z M88.382,126.211
		c0,0.062,1.025,2.042,3.074,5.941c1.336,2.519,3.292,6.319,5.872,11.4c3.339,5.857,7.315,13.848,11.93,23.973
		c5.603,12.32,9.357,20.331,11.26,24.031c0.914,1.797,2.606,5.826,5.078,12.092c2.004,4.99,3.932,8.792,5.781,11.41
		c1.842,4.015,3.428,5.396,4.755,4.146c0-0.752-0.096-1.517-0.288-2.292c-0.46-1.497-0.817-2.733-1.071-3.707
		c-1.55-2.258-3.197-5.237-4.94-8.935c-2.778-5.805-4.214-8.811-4.306-9.017c-1.911-3.603-3.247-6.371-4.007-8.314
		c-0.469-1.136-1.217-2.548-2.246-4.238c-1.228-2.002-2.049-3.392-2.464-4.167c-0.56-1.183-1.201-2.722-1.923-4.619l-1.762-4.615
		c-1.804-4.43-4.479-10.418-8.026-17.964c-0.975-2.056-2.541-4.882-4.698-8.475c-2.257-3.754-3.796-6.503-4.618-8.244
		c-1.642-4.522-3.009-7.938-4.099-10.249c-0.814-1.765-1.67-3.135-2.568-4.11c-1.221-0.131-2.387-0.38-3.5-0.749
		C86.178,121.206,87.1,123.44,88.382,126.211z M104.179,144.473c2.671,4.93,6.958,14.099,12.862,27.51
		c5.036,11.613,9.611,20.707,13.726,27.278c1.335,3.952,3.388,8.088,6.16,12.4c0.714-0.253,1.815-0.253,3.304,0
		c1.336,0.209,2.315,0.107,2.937-0.299c-6.418-10.939-14.382-26.195-23.894-45.771c-11.153-22.869-18.792-38.19-22.914-45.966
		c-1.167,0.353-2.376,0.583-3.627,0.69c1.09,3.638,2.699,7.607,4.825,11.906C98.271,133.665,100.48,137.75,104.179,144.473z
		 M142.396,214.828c-1.182-0.154-2.26-0.076-3.235,0.23c1.021,1.796,1.354,3.568,1.001,5.318c-0.392,1.912-1.669,3.092-3.834,3.537
		c-4.553,0.054-7.374-1.977-8.464-6.093c-1.527,1.29-2.82,2.243-3.88,2.856c-1.904,1.497-2.315,3.039-1.232,4.629
		c6.264,1.236,12.735,1.904,19.414,2.003c7.86,0.154,14.796-0.514,20.806-2.003c-0.061-0.314,0.066-0.599,0.38-0.854
		c0.262-0.259,0.339-0.594,0.23-0.999c-0.668-1.383-1.695-2.666-3.086-3.848c-1.435-1.182-2.689-1.771-3.764-1.771
		c1.842,1.479,1.553,2.97-0.864,4.467c-2.356,1.436-4.538,1.82-6.541,1.152c-1.335-0.416-2.261-1.26-2.775-2.534
		c-0.46-1.137-0.564-2.472-0.31-4.008c-0.307-0.159-0.565-0.474-0.771-0.934c-0.199-0.56-0.354-0.97-0.461-1.23
		C144.451,214.955,143.578,214.98,142.396,214.828z M118.066,225.456c-0.092,0.061-0.185,0.114-0.276,0.163
		c0.076-0.01,0.161-0.014,0.253-0.014C118.05,225.56,118.06,225.51,118.066,225.456z M113.195,231.075
		c-1.696,0.515-2.955,0.952-3.776,1.313c-2.933,1.235-6.66,3.085-11.181,5.55c-3.079,1.75-5.338,3.139-6.782,4.167
		c-1.896,1.383-3.846,3.103-5.85,5.159c-1.589,1.698-2.695,2.955-3.317,3.778c-1.282,1.642-1.846,2.951-1.692,3.926
		c0.214,1.596,1.758,3.112,4.629,4.547c0.561,0.264,2.745,1.139,6.552,2.627c10.218,3.898,21.256,6.463,33.117,7.692
		c3.761,0.413,7.849,0.443,12.263,0.091c5.496-0.514,9.45-0.747,11.86-0.701c5.235,0.045,10.911-0.366,17.03-1.234
		c5.956-0.82,10.785-1.643,14.484-2.463c4.621-1.076,8.858-2.411,12.713-4.007c6.011-2.472,10.145-4.967,12.401-7.485
		c-1.896-3.945-5.257-7.745-10.087-11.397c-5.704-3.854-9.293-6.374-10.766-7.556c-3.808-1.504-6.245-2.471-7.313-2.9
		c-1.75-0.545-3.198-0.884-4.34-1.014c-0.162,0.406-0.188,0.891-0.081,1.449c0.053,0.416,0.18,1.062,0.38,1.936
		c-5.797,4.008-12.805,6.499-21.026,7.474c-2.365,0.253-5.112,0.227-8.244-0.08c-3.447-0.409-5.965-0.688-7.554-0.841
		c-6.786-0.667-10.613-1.082-11.48-1.244c-3.754-0.761-6.732-2.119-8.936-4.076c0.253-1.028,0.457-1.954,0.611-2.774
		c0.308-1.536,0.103-2.561-0.611-3.074C115.686,230.189,114.684,230.569,113.195,231.075z M120.519,228.07
		c-0.622,1.759-1.036,3.509-1.244,5.251c1.651,1.598,4.706,2.933,9.166,4.006c2.518,0.562,6.914,1.305,13.185,2.233
		c2.518,0.307,4.856,0.409,7.012,0.301c1.85-0.091,4.238-0.399,7.163-0.922c2.563-0.513,5.055-1.154,7.473-1.923
		c3.493-1.083,5.447-2.107,5.86-3.074c0.57-1.183,0.541-2.75-0.081-4.71c-0.82-2.048-1.308-3.461-1.462-4.236h-0.932
		c-1.183,1.542-2.411,2.566-3.686,3.074c-3.96,1.65-9.794,2.296-17.501,1.934c-10.317-0.512-16.762-0.644-19.333-0.391
		C125.624,229.099,123.75,228.585,120.519,228.07z M78.571,232.652c-1.597,7.055-5.351,13.223-11.261,18.505
		c-0.23,0.208-0.465,0.41-0.702,0.609c0.062-0.015,0.115-0.026,0.161-0.035l0.403,5.633c0.069,3.944-0.372,6.39-1.324,7.334
		c-0.944,0.952-3.151,0.146-6.622-2.417c-1.089-0.806-2.237-1.739-3.442-2.799l-0.921-0.829c-2.787,0.989-5.703,1.634-8.75,1.934
		c-5.183,0.629-10.21,0.188-15.085-1.324l-0.69,0.611c-1.259,1.098-2.441,2.052-3.546,2.866c-3.593,2.634-5.865,3.474-6.817,2.521
		c-0.952-0.95-1.332-3.377-1.141-7.276l0.484-4.604c-4.859-3.509-8.505-7.857-10.939-13.049c-3.016-5.995-4.18-12.396-3.488-19.205
		c0.622-6.058,2.529-11.37,5.723-15.937c2.656-3.947,5.918-7.201,9.788-9.764c2.979-1.988,6.103-3.449,9.373-4.376
		c1.988-0.546,3.792-0.887,5.411-1.026c0.116-1.195,0.396-2.397,0.841-3.603c1.098-3.003,2.902-4.561,5.411-4.675
		c2.127-0.1,3.644,1.182,4.549,3.845c0.323,0.983,0.507,2.001,0.553,3.053c0.007,0.169,0.011,0.328,0.011,0.484
		c0.154,0.007,0.308,0.015,0.461,0.021c3.393,0.192,6.763,0.943,10.11,2.258c4.329,1.674,8.214,4.147,11.653,7.427
		c4.122,3.761,7.139,8.535,9.051,14.323C79.972,219.639,80.221,226.137,78.571,232.652z M153.577,218.364
		c0.016,0.03,0.035,0.064,0.058,0.104c0-0.009,0.004-0.016,0.012-0.023C153.63,218.429,153.608,218.4,153.577,218.364z
		 M17.381,194.171c-0.644,0.384-1.155,0.702-1.531,0.955c-0.629-3.338-0.108-6.382,1.565-9.13c1.367-2.234,2.864-3.581,4.491-4.042
		c3.853-1.075,6.904-0.268,9.154,2.417c1.128,1.338,1.873,2.782,2.233,4.343c-3.562,0.145-7.535,1.257-11.917,3.338
		C20.003,192.697,18.671,193.403,17.381,194.171z M23.461,187.735c2.434-0.829,4.169-1.1,5.205-0.809
		c-1.129-1.181-2.331-1.982-3.604-2.406c-2.548-0.82-4.195,0.695-4.939,4.55L23.461,187.735z M30.554,193.238
		c-2.969,1.289-5.699,2.925-8.186,4.905c-3.301,2.618-6.022,5.728-8.165,9.326c-2.571,4.169-4.029,8.864-4.375,14.083
		c-0.369,5.819,0.791,11.246,3.478,16.282c2.74,5.459,7.043,9.783,12.908,12.977c6.126,3.34,12.54,4.605,19.241,3.8
		c6.725-0.667,12.72-3.294,17.986-7.876c5.028-4.375,8.291-9.529,9.788-15.463c1.527-5.481,1.477-11.029-0.15-16.64
		c-1.458-5.036-3.896-9.309-7.311-12.816c-2.864-3.046-6.187-5.491-9.972-7.334c-2.871-1.39-5.896-2.392-9.074-3.006
		c-0.613-0.114-1.262-0.223-1.946-0.321c-0.989,0.123-2.44,0.148-4.351,0.08l-3.651-0.232c-0.138,0.039-0.284,0.085-0.438,0.14
		C34.085,191.863,32.159,192.563,30.554,193.238z M41.355,183.324c-1.19-0.1-1.98,0.845-2.372,2.832
		c-0.207,0.991-0.295,1.996-0.264,3.019c0.391-0.238,1.354-0.313,2.89-0.219c0.737,0.029,1.439,0.087,2.107,0.173
		c0.03,0,0.062,0,0.092,0c-0.03-2.212-0.449-3.844-1.254-4.896c-0.262-0.321-0.538-0.574-0.83-0.76L41.355,183.324z M54.437,184.901
		c-0.438,0.346-0.799,0.669-1.083,0.967c1.044-0.298,2.779-0.033,5.205,0.796c1.221,0.415,2.333,0.859,3.34,1.335
		c-0.745-3.854-2.388-5.366-4.929-4.537C56.163,183.715,55.319,184.194,54.437,184.901z M39.387,194.609
		c-0.055,0.105-0.618,0.283-1.693,0.529c-1.842,0.422-3.523,0.944-5.043,1.565c-5.658,2.304-10.325,6.233-14.001,11.792
		c-2.25,3.538-3.539,7.552-3.869,12.043c-0.361,5.006,0.603,9.685,2.89,14.038c2.341,4.721,6.037,8.466,11.088,11.237
		c5.274,2.894,10.813,3.994,16.616,3.306c5.795-0.576,10.958-2.849,15.488-6.818c4.344-3.809,7.142-8.263,8.394-13.367
		c1.29-4.753,1.217-9.536-0.218-14.349c-1.297-4.321-3.428-7.957-6.391-10.903c-4.791-4.636-10.194-7.471-16.213-8.499
		c-1.612-0.268-3.371-0.406-5.273-0.415C40.054,194.754,39.463,194.7,39.387,194.609z M41.194,194.16
		c1.566-0.186,3.332-0.203,5.297-0.059c2.779,0.237,5.512,0.905,8.199,2.002c3.508,1.429,6.636,3.479,9.384,6.151
		c3.301,3.085,5.7,6.967,7.197,11.642c1.697,5.22,1.873,10.447,0.529,15.682c-1.297,5.657-4.326,10.604-9.085,14.83
		c-4.974,4.398-10.655,6.914-17.042,7.544c-6.371,0.767-12.458-0.464-18.262-3.696c-5.558-3.087-9.584-7.25-12.079-12.493
		c-2.449-4.815-3.416-9.956-2.901-15.431c0.461-4.883,1.969-9.188,4.525-12.919c2.104-3.209,4.712-5.889,7.83-8.038
		c2.372-1.635,4.893-2.871,7.565-3.707c2.964-0.905,5.309-1.275,7.036-1.106C39.363,194.447,39.966,194.313,41.194,194.16z
		 M50.971,183.303c2.249-2.688,5.299-3.493,9.153-2.42c1.628,0.46,3.125,1.813,4.491,4.053c1.674,2.741,2.192,5.781,1.555,9.121
		c-1.482-1.007-3.316-2.031-5.504-3.074c-4.398-2.081-8.378-3.195-11.94-3.34C49.085,186.084,49.834,184.638,50.971,183.303z
		 M40.389,205.857c-0.692-0.045-1.11-0.197-1.256-0.46c-0.329-0.599,0.111-2.356,1.325-5.273c1.113-2.702,1.789-4.134,2.026-4.294
		c0.093-0.078,0.699,1.449,1.82,4.582c1.105,3.139,1.607,4.878,1.508,5.217c-0.1,0.321-0.526,0.51-1.278,0.563l-1.094-0.01
		c0.415,1.87,0.48,5.103,0.196,9.692c-0.07,1.222-0.154,2.392-0.253,3.513c0.729,0.162,1.37,0.549,1.923,1.164
		c0.752,0.837,1.128,1.85,1.128,3.04c0,1.182-0.376,2.19-1.128,3.029c-0.76,0.835-1.678,1.252-2.752,1.252
		c-0.477,0-0.918-0.084-1.325-0.253c-0.53,1.092-1.742,2.618-3.638,4.585c-1.053,1.08-2.058,2.052-3.018,2.912l1.094,0.863
		c0.752,0.638,1.155,1.079,1.209,1.324c0.122,0.575-1.094,1.04-3.65,1.395c-2.311,0.321-3.654,0.43-4.03,0.321
		c-0.146-0.063-0.192-1.337-0.138-3.823c0.062-2.508,0.219-3.803,0.473-3.88c0.238-0.069,0.787,0.214,1.646,0.853
		c0.431,0.313,0.837,0.636,1.221,0.966c0.315-1.265,1.578-2.892,3.789-4.882l3.04-2.463c-0.361-0.654-0.541-1.387-0.541-2.199
		c0-1.19,0.38-2.203,1.14-3.04c0.376-0.417,0.794-0.726,1.255-0.934c-0.092-1.812-0.092-4.218,0-7.219l0.288-6.542
		C41.053,205.882,40.726,205.882,40.389,205.857z M21.239,258.757c-0.684,2.258-0.58,3.239,0.311,2.947
		c0.891-0.299,2.288-1.158,4.192-2.579l1.554-1.232c-1.321-0.567-2.626-1.213-3.916-1.933c-0.307-0.171-0.605-0.344-0.897-0.519
		L21.239,258.757z M64.27,253.862c0-0.076-0.039-0.126-0.116-0.149c-1.88,1.367-3.834,2.539-5.861,3.514
		c0.33,0.368,0.872,0.809,1.624,1.323c1.006,0.674,2.456,1.607,4.353,2.798c0.751,0.599,0.975-0.469,0.667-3.202L64.27,253.862z"/>
	<path fill-rule="evenodd" clip-rule="evenodd" fill="#EDAF35" d="M246.407,72.817c0.515-0.153,1.261-0.384,2.234-0.69
		c0.977,0.568,1.72,1.466,2.235,2.694c0.26,0.722,0.67,1.981,1.232,3.777c0.205,0.568,0.72,1.546,1.542,2.936
		c0.776,1.335,1.29,2.415,1.543,3.236c0.199,0.56,0.406,1.455,0.622,2.682c0.153,1.137,0.355,1.985,0.609,2.545
		c0.623,1.598,1.547,3.884,2.775,6.864c0.929,2.464,1.547,4.516,1.854,6.16c0.669,3.546,0.565,6.552-0.312,9.016
		c-2.103-0.407-3.775-0.687-5.02-0.84c-2.25-0.307-3.991,0.077-5.228,1.151c-0.614,0.567-1.385,2.188-2.314,4.859
		c-0.768,2.003-1.95,3.055-3.546,3.155c-1.589,0.107-2.975-0.688-4.158-2.384c-1.235-2.265-2.21-3.934-2.923-5.008
		c-1.851-2.419-3.086-4.191-3.709-5.32c-0.605-1.029-1.581-3.005-2.924-5.93c-1.128-2.571-2.131-4.499-3.006-5.78
		c-1.643-2.319-2.775-4.039-3.397-5.159c-1.12-1.904-1.53-3.497-1.23-4.779c0.106-0.46-0.02-0.848-0.381-1.163
		c-0.415-0.307-0.591-0.641-0.531-1.001c1.897-0.975,3.232-1.589,4.008-1.842c0.822,1.635,2.208,5.024,4.158,10.167
		c1.841,4.829,3.354,8.348,4.536,10.559c2.987,5.65,5.864,8.246,8.637,7.785c1.234-1.958,1.465-4.376,0.69-7.254
		c-0.361-1.382-1.31-3.719-2.846-7.013c-1.956-4.053-3.396-7.081-4.318-9.084c-1.533-3.439-2.558-6.391-3.072-8.855
		c0.515-0.668,1.332-1.083,2.453-1.243c0.668,1.542,3.031,6.19,7.093,13.944c2.878,5.557,5.035,10.489,6.471,14.796
		c0.929,0.821,1.984,1.055,3.166,0.703c1.175-0.361,1.889-1.109,2.143-2.246c0.215-1.842-0.088-3.792-0.911-5.849
		c-2.517-5.543-4.394-9.73-5.629-12.563c-2.257-5.027-3.697-8.981-4.318-11.86C244.943,73.466,245.533,73.079,246.407,72.817z
		 M101.98,89.848c-0.806-0.667-1.642-1.244-2.51-1.727c7.139-4.061,15.948-8.418,26.426-13.07
		c6.218-2.763,15.671-6.847,28.361-12.251c0.982-0.407,2.241-1.125,3.776-2.154c1.697-1.082,2.934-1.799,3.709-2.153
		c1.487-0.768,4.977-2.207,10.466-4.319c4.269-1.642,7.584-3.311,9.949-5.008c0.253,0.622,0.096,1.497-0.474,2.625
		c-0.667,1.335-1.024,2.234-1.07,2.694c-3.231,1.335-11.503,5.032-24.813,11.088c-2.518,1.183-6.499,2.802-11.94,4.859
		c-5.651,2.166-9.812,3.862-12.482,5.09c-6.932,2.825-11.991,4.981-15.177,6.471c-4.421,2.104-8.225,4.053-11.411,5.85
		C103.593,88.896,102.656,89.564,101.98,89.848z M108.797,106.728c0.461-0.622,0.668-1.29,0.622-2.003
		c-0.154-0.775-0.254-1.343-0.299-1.704c1.105-0.722,2.395-1.447,3.869-2.176c0.375-0.314,5.946-2.937,16.708-7.864
		c21.901-10.018,38.874-17.407,50.917-22.166c0.515-0.1,1.387-0.303,2.614-0.61c1.083-0.307,1.957-0.717,2.625-1.232
		c0.154,0.046,0.23,0.096,0.23,0.149c-0.053,0.108-0.13,0.161-0.23,0.161c0.207,0.415,0.667,0.568,1.382,0.46
		c0.668-0.053,1.025,0.1,1.071,0.461c-3.331,1.797-8.387,4.392-15.164,7.785c-33.248,13.985-43.215,17.963-29.904,11.928
		c-6.933,2.879-12.122,5.116-15.568,6.713C120.43,99.969,114.14,103.335,108.797,106.728z M192.312,45.781
		c0.362,0.307,0.573,0.975,0.634,2.004c0.047,1.335,0.146,2.207,0.3,2.613c-3.746,0.307-5.826,2.081-6.241,5.32
		c-0.36,3.185,0.998,5.447,4.077,6.783c-0.146,0.26-0.351,0.875-0.61,1.842c-0.153,0.775-0.46,1.393-0.922,1.854
		c-1.127-0.361-2.054-0.875-2.775-1.543c-0.874-0.875-1.7-1.493-2.475-1.854c-1.229-4.207-1.122-7.876,0.322-11.008
		C186.11,48.606,188.674,46.603,192.312,45.781z M143.939,87.845c1.221-0.476,2.503-0.987,3.847-1.532
		c1.796-0.775,4.391-1.934,7.784-3.478L143.939,87.845z M128.453,94.454c-0.522,0.223-1.021,0.441-1.498,0.656
		c1.634-0.668,2.699-1.113,3.19-1.336c0.407-0.192,0.852-0.395,1.336-0.61C130.498,93.579,129.488,94.008,128.453,94.454z
		 M88.382,126.211c-1.282-2.771-2.204-5.005-2.764-6.701c1.113,0.368,2.279,0.618,3.5,0.749c0.898,0.975,1.753,2.345,2.568,4.11
		c1.09,2.311,2.457,5.726,4.099,10.249c0.822,1.741,2.361,4.49,4.618,8.244c2.157,3.593,3.723,6.418,4.698,8.475
		c3.547,7.546,6.222,13.534,8.026,17.964l1.762,4.615c0.722,1.897,1.363,3.437,1.923,4.619c0.415,0.775,1.236,2.165,2.464,4.167
		c1.029,1.69,1.777,3.103,2.246,4.238c0.76,1.943,2.096,4.712,4.007,8.314c0.092,0.206,1.527,3.212,4.306,9.017
		c1.743,3.697,3.39,6.677,4.94,8.935c0.254,0.974,0.61,2.21,1.071,3.707c0.192,0.775,0.288,1.54,0.288,2.292
		c-1.328,1.251-2.913-0.131-4.755-4.146c-1.849-2.618-3.777-6.42-5.781-11.41c-2.471-6.266-4.164-10.295-5.078-12.092
		c-1.903-3.7-5.658-11.711-11.26-24.031c-4.615-10.125-8.591-18.116-11.93-23.973c-2.58-5.081-4.536-8.881-5.872-11.4
		C89.407,128.253,88.382,126.272,88.382,126.211z M99.423,118.312c0.676-0.383,1.333-0.817,1.969-1.301
		c0.752-0.392,1.271-0.61,1.555-0.656c1.75,5.089,4.625,11.511,8.624,19.264c4.875,9.403,7.979,15.669,9.315,18.792
		c3.7,8.589,7.918,17.251,12.655,25.978c1.228,1.228,2.533,3.436,3.915,6.622c1.382,3.039,5.854,12.063,13.415,27.07
		c0,0.024,0,0.041,0,0.058c0.009,0.008,0.016,0.012,0.024,0.012c0.453,0.891,0.917,1.808,1.392,2.752
		c1.044,0.722,0.995,1.659-0.149,2.809c0.568-0.421,0.453-0.276-0.346,0.438c-0.721,0.406-1.646,0.352-2.774-0.162
		c-0.308-0.307-0.358-0.588-0.151-0.841c0.308-0.414,0.461-0.747,0.461-1.002c-0.461-1.289-1.335-3.193-2.625-5.709
		c-1.282-2.357-2.153-4.259-2.613-5.701c-5.029-7.294-10.579-17.18-16.65-29.661c-9.496-19.568-14.578-29.996-15.246-31.286
		c-0.568-1.029-1.235-2.591-2.003-4.687c-0.821-2.111-1.489-3.658-2.004-4.64c-2.157-3.946-3.773-6.998-4.848-9.155
		C101.642,123.92,100.338,120.922,99.423,118.312z M142.396,214.828c1.182,0.152,2.054,0.127,2.613-0.08
		c0.108,0.261,0.262,0.671,0.461,1.23c0.207,0.46,0.464,0.774,0.771,0.934c-0.254,1.536-0.15,2.871,0.31,4.008
		c0.515,1.274,1.44,2.118,2.775,2.534c2.003,0.668,4.185,0.283,6.541-1.152c2.417-1.497,2.706-2.987,0.864-4.467
		c1.074,0,2.329,0.59,3.764,1.771c1.391,1.182,2.418,2.465,3.086,3.848c0.108,0.405,0.031,0.74-0.23,0.999
		c-0.313,0.255-0.44,0.539-0.38,0.854c-6.01,1.489-12.946,2.157-20.806,2.003c-6.679-0.099-13.15-0.767-19.414-2.003
		c-1.083-1.59-0.672-3.132,1.232-4.629c1.06-0.613,2.353-1.566,3.88-2.856c1.09,4.116,3.911,6.146,8.464,6.093
		c2.165-0.445,3.442-1.625,3.834-3.537c0.352-1.75,0.019-3.522-1.001-5.318C140.136,214.752,141.214,214.674,142.396,214.828z
		 M120.519,228.07c3.232,0.515,5.105,1.028,5.62,1.543c2.571-0.253,9.016-0.121,19.333,0.391c7.708,0.362,13.542-0.283,17.501-1.934
		c1.274-0.508,2.503-1.532,3.686-3.074h0.932c0.154,0.775,0.642,2.188,1.462,4.236c0.622,1.96,0.651,3.527,0.081,4.71
		c-0.413,0.967-2.367,1.991-5.86,3.074c-2.418,0.769-4.909,1.41-7.473,1.923c-2.925,0.522-5.313,0.831-7.163,0.922
		c-2.156,0.108-4.495,0.006-7.012-0.301c-6.271-0.929-10.667-1.672-13.185-2.233c-4.46-1.073-7.515-2.408-9.166-4.006
		C119.483,231.579,119.896,229.829,120.519,228.07z M153.577,218.364c0.031,0.036,0.053,0.064,0.069,0.08
		c-0.008,0.008-0.012,0.015-0.012,0.023C153.612,218.429,153.593,218.395,153.577,218.364z M39.387,194.609
		c0.076,0.091,0.667,0.145,1.773,0.159c1.903,0.009,3.662,0.147,5.273,0.415c6.019,1.028,11.422,3.863,16.213,8.499
		c2.962,2.946,5.093,6.582,6.391,10.903c1.435,4.813,1.508,9.596,0.218,14.349c-1.251,5.104-4.05,9.559-8.394,13.367
		c-4.529,3.97-9.692,6.242-15.488,6.818c-5.804,0.688-11.342-0.412-16.616-3.306c-5.051-2.771-8.747-6.517-11.088-11.237
		c-2.288-4.354-3.251-9.032-2.89-14.038c0.33-4.491,1.619-8.505,3.869-12.043c3.677-5.559,8.344-9.488,14.001-11.792
		c1.52-0.621,3.201-1.144,5.043-1.565C38.769,194.893,39.332,194.715,39.387,194.609z M40.389,205.857
		c0.337,0.024,0.664,0.024,0.978,0l-0.288,6.542c-0.092,3.001-0.092,5.407,0,7.219c-0.461,0.208-0.879,0.517-1.255,0.934
		c-0.76,0.837-1.14,1.85-1.14,3.04c0,0.813,0.18,1.545,0.541,2.199l-3.04,2.463c-2.21,1.99-3.474,3.617-3.789,4.882
		c-0.383-0.33-0.79-0.652-1.221-0.966c-0.859-0.639-1.407-0.922-1.646-0.853c-0.254,0.077-0.411,1.372-0.473,3.88
		c-0.054,2.486-0.008,3.761,0.138,3.823c0.376,0.108,1.719,0,4.03-0.321c2.556-0.354,3.772-0.819,3.65-1.395
		c-0.054-0.245-0.458-0.687-1.209-1.324l-1.094-0.863c0.96-0.86,1.965-1.832,3.018-2.912c1.896-1.967,3.108-3.493,3.638-4.585
		c0.407,0.169,0.848,0.253,1.325,0.253c1.074,0,1.992-0.417,2.752-1.252c0.752-0.839,1.128-1.848,1.128-3.029
		c0-1.19-0.376-2.203-1.128-3.04c-0.553-0.615-1.194-1.002-1.923-1.164c0.099-1.121,0.183-2.291,0.253-3.513
		c0.284-4.59,0.218-7.822-0.196-9.692l1.094,0.01c0.752-0.054,1.179-0.242,1.278-0.563c0.099-0.339-0.403-2.078-1.508-5.217
		c-1.121-3.133-1.727-4.66-1.82-4.582c-0.237,0.16-0.913,1.592-2.026,4.294c-1.213,2.917-1.654,4.675-1.325,5.273
		C39.279,205.66,39.697,205.813,40.389,205.857z"/>
	<path fill-rule="evenodd" clip-rule="evenodd" fill="#FCF6ED" d="M23.461,187.735l-3.339,1.335c0.745-3.854,2.391-5.37,4.939-4.55
		c1.274,0.424,2.476,1.226,3.604,2.406C27.63,186.636,25.896,186.906,23.461,187.735z M54.437,184.901
		c0.882-0.707,1.727-1.187,2.533-1.439c2.541-0.829,4.184,0.683,4.929,4.537c-1.006-0.476-2.119-0.92-3.34-1.335
		c-2.425-0.829-4.16-1.094-5.205-0.796C53.638,185.57,53.998,185.247,54.437,184.901z M41.355,183.324l0.368,0.149
		c0.292,0.186,0.568,0.438,0.83,0.76c0.805,1.052,1.224,2.684,1.254,4.896c-0.03,0-0.062,0-0.092,0
		c-0.667-0.086-1.37-0.144-2.107-0.173c-1.536-0.094-2.499-0.02-2.89,0.219c-0.031-1.022,0.057-2.027,0.264-3.019
		C39.375,184.169,40.165,183.225,41.355,183.324z M21.239,258.757l1.244-3.315c0.292,0.175,0.591,0.348,0.897,0.519
		c1.29,0.72,2.595,1.365,3.916,1.933l-1.554,1.232c-1.904,1.421-3.301,2.28-4.192,2.579
		C20.659,261.996,20.555,261.015,21.239,258.757z M64.27,253.862l0.667,4.283c0.307,2.733,0.084,3.801-0.667,3.202
		c-1.897-1.19-3.347-2.124-4.353-2.798c-0.752-0.515-1.294-0.955-1.624-1.323c2.027-0.975,3.98-2.146,5.861-3.514
		C64.231,253.736,64.27,253.786,64.27,253.862z"/>
</g>
</svg>
