<?xml version="1.0" encoding="utf-8"?>
<!-- Generator: Adobe Illustrator 16.0.0, SVG Export Plug-In . SVG Version: 6.00 Build 0)  -->
<!DOCTYPE svg PUBLIC "-//W3C//DTD SVG 1.1//EN" "http://www.w3.org/Graphics/SVG/1.1/DTD/svg11.dtd">
<svg version="1.1" id="Layer_1" xmlns="http://www.w3.org/2000/svg" xmlns:xlink="http://www.w3.org/1999/xlink" x="0px" y="0px"
	 width="300px" height="300px" viewBox="0 0 300 300" enable-background="new 0 0 300 300" xml:space="preserve">
<path fill-rule="evenodd" clip-rule="evenodd" fill="#08080E" d="M287.901,154.129c0.548,0.843,0.905,1.598,1.074,2.271
	c0.165,0.715,0.187,1.575,0.061,2.579c-0.166,1.849-0.733,3.635-1.699,5.358c-0.967,1.72-1.995,2.832-3.087,3.337
	c-1.302,0.627-2.225,1.3-2.773,2.015c-0.711,0.925-0.856,2.246-0.438,3.966c0.418,1.682,1.217,3.108,2.396,4.285
	c1.385,1.385,2.076,2.225,2.076,2.522c0.085,0.25,1.03,0.985,2.837,2.202c1.552,1.007,2.412,1.699,2.579,2.076
	c0.209,0.423-0.021,1.117-0.69,2.083c-0.422,0.628-0.884,0.795-1.387,0.502c-0.464-0.251-1.681-1.364-3.651-3.338
	c-3.362-3.358-6.219-6.804-8.57-10.333c-0.293-0.503-0.586-0.774-0.879-0.815c-0.293-0.084-0.671,0.041-1.136,0.377
	c-0.544,0.338-0.881,0.905-1.01,1.7c-0.083,0.798-0.104,2.415-0.063,4.85c0.172,3.654,0.107,5.942-0.188,6.863
	c-0.209,0.716-1.385,1.619-3.525,2.71l-3.652,1.825c-0.208,0.211-0.881-0.041-2.015-0.753c-1.346-0.799-2.271-1.617-2.773-2.459
	c-0.459-0.795-0.733-1.928-0.82-3.4c-0.041-1.802,0.503-3.545,1.638-5.226c1.134-1.683,2.749-3.174,4.851-4.474l3.086-1.889
	l-0.754-2.836c-0.547-1.974-1.029-3.129-1.449-3.464c-0.459-0.461-0.689-1.048-0.689-1.763c0-0.419-0.17-0.69-0.509-0.814
	c-0.291-0.131-0.88-0.173-1.763-0.127c-1.05,0.083-1.658,0.02-1.825-0.193c-0.168-0.21-0.23-0.986-0.188-2.328
	c0.041-1.386,0.251-2.373,0.627-2.962c0.424-0.543,1.138-0.836,2.146-0.878c0.586-0.042,1.362,0.755,2.328,2.391
	c0.967,1.64,1.975,3.844,3.024,6.612c0.883,2.352,1.765,3.61,2.646,3.777c0.964,0.213,1.592,0.213,1.89,0
	c0.292-0.251,0.523-1.951,0.689-5.101c0.252-5.375,1.911-9.237,4.976-11.589c1.386-1.008,2.52-1.533,3.401-1.575
	C285.823,151.99,286.894,152.662,287.901,154.129z M284.124,155.015c-0.674,0.084-1.365,0.523-2.076,1.323
	c-0.716,0.8-1.324,1.87-1.826,3.212c-0.548,1.47-0.926,3.337-1.137,5.604c-0.25,2.266-0.165,3.399,0.252,3.399
	c0.419,0,1.406-0.775,2.962-2.327c1.469-1.427,2.601-3.022,3.4-4.787c0.757-1.766,0.967-3.234,0.628-4.411
	c-0.377-1.258-1.027-1.93-1.951-2.014H284.124z M244.572,148.088c-0.464,0.924-1.997,1.805-4.599,2.642
	c-2.606,0.883-5.272,1.386-8,1.513c-1.933,0.083-3.277,0.062-4.034-0.063c-0.753-0.125-1.382-0.461-1.889-1.004
	c-0.585-0.632-0.773-1.178-0.564-1.638c0.209-0.463,1.175-1.577,2.899-3.338c1.76-1.849,3.041-3.572,3.84-5.169
	c0.757-1.594,0.923-2.895,0.501-3.903c-0.377-0.841-1.152-0.987-2.327-0.44c-1.176,0.586-2.121,1.552-2.836,2.899
	c-0.758,1.635-1.554,2.894-2.392,3.777c-0.547,0.627-0.926,0.941-1.135,0.941c-0.167,0.042-0.355-0.209-0.565-0.752
	c-0.339-0.799-0.087-2.016,0.753-3.652c0.841-1.681,1.87-3.047,3.087-4.096c2.478-2.101,4.891-2.772,7.241-2.015
	c0.799,0.292,1.303,0.629,1.512,1.01c0.256,0.417,0.403,1.215,0.446,2.39c0.041,1.218-0.128,2.205-0.509,2.961
	c-0.377,0.798-1.278,1.996-2.705,3.589c-2.141,2.517-3.024,3.883-2.647,4.096c0.461,0.251,2.308,0.314,5.541,0.188
	c3.233-0.084,5.48-0.294,6.744-0.633c1.008-0.25,1.596-0.335,1.763-0.25C244.906,147.224,244.866,147.54,244.572,148.088z
	 M220.003,130.326c1.263-0.883,1.915-1.178,1.958-0.885c0,0.381-1.199,2.039-3.595,4.976c-2.477,2.856-4.49,4.536-6.044,5.038
	c-1.639,0.506-2.984,0.633-4.033,0.382c-1.05-0.255-1.722-0.886-2.014-1.894c-0.293-1.046-0.545-1.569-0.754-1.569
	c-0.255,0-1.054,0.713-2.396,2.14c-1.426,1.426-2.602,2.14-3.526,2.14c-1.05,0.083-2.058-0.379-3.024-1.387
	c-0.923-1.008-1.428-2.121-1.512-3.338l-0.125-2.202l-3.339,4.599c-0.547,0.669-1.429,1.55-2.646,2.642
	c-0.754,0.59-1.343,0.948-1.764,1.073c-0.419,0.125-0.882,0.042-1.386-0.251c-0.504-0.292-0.859-0.859-1.067-1.7
	c-0.209-0.84-0.42-2.374-0.634-4.599c-0.293-3.694-0.773-5.877-1.443-6.55c-0.422-0.506-0.78-0.674-1.072-0.502
	c-0.294,0.167-0.818,0.838-1.576,2.014c-1.134,1.72-2.266,4.07-3.399,7.053l-2.396,6.048c-0.377,0.798-0.86,1.302-1.449,1.512
	c-0.586,0.208-1.047,0.042-1.382-0.502c-0.297-0.422-0.316-1.2-0.062-2.333c0.251-1.175,0.563-1.784,0.94-1.826
	c0.376,0,0.565-0.441,0.565-1.324c-0.084-0.882,0.085-1.449,0.508-1.7c0.419-0.251,1.194-1.636,2.328-4.154
	c1.008-2.226,2.182-4.137,3.525-5.734c1.306-1.553,2.524-2.498,3.657-2.836c1.093-0.335,1.742-0.397,1.951-0.188
	c0.293,0.251,0.692,1.638,1.198,4.159c0.544,2.519,0.838,4.469,0.88,5.854c0.083,1.807,0.315,2.668,0.695,2.585
	c0.46,0,1.467-0.903,3.019-2.71c1.556-1.803,2.626-3.336,3.212-4.599c0.8-1.468,1.682-2.454,2.647-2.956
	c0.8-0.422,1.283-0.443,1.449-0.063c0.168,0.334,0.336,1.782,0.502,4.342c0.293,3.442,0.693,5.228,1.198,5.358
	c0.675,0.208,1.787-0.526,3.339-2.208c1.511-1.678,2.602-3.315,3.274-4.913c0.883-2.016,1.808-3.171,2.773-3.463
	c1.007-0.292,1.616-0.335,1.826-0.125c0.209,0.251,0.104,0.881-0.314,1.889c-0.422,1.008-0.759,2.604-1.01,4.788
	c-0.125,1.258-0.146,2.121-0.063,2.584c0.125,0.46,0.396,0.774,0.815,0.941c0.59,0.209,1.871-0.146,3.846-1.067
	c2.016-0.924,3.19-1.702,3.526-2.333C217.947,131.942,218.744,131.208,220.003,130.326z M210.497,168.617
	c-8.733-0.168-17.007-0.23-24.82-0.188c-11.041,0-16.73-0.127-17.066-0.377c-0.463-0.251-3.592-0.481-9.385-0.689
	c-5.836-0.214-9.531-0.404-11.087-0.571l-14.926-1.066c-5.208-0.381-8.965-0.593-11.274-0.634l-9.129-0.251
	c-2.438-0.126-6.721-0.146-12.849-0.063c-5.63,0.125-8.528-0.084-8.696-0.628c-0.585-1.515,2.88-2.25,10.396-2.208
	c4.785,0,7.682,0.083,8.69,0.251c0.673,0.171,3.277,0.298,7.811,0.382c5.333,0.167,10.309,0.522,14.927,1.068
	c1.89,0.296,5.186,0.527,9.888,0.695c4.79,0.166,7.497,0.293,8.124,0.376c2.941,0.167,5.669,0.272,8.188,0.313
	c3.822,0.084,6.866,0.296,9.135,0.635c1.804,0.334,5.854,0.502,12.153,0.502c6.174,0.083,9.407,0.209,9.699,0.377
	c0.335,0.25,3.548,0.25,9.638,0c6.382-0.294,16.67,0.042,30.863,1.01c14.232,0.923,21.75,1.783,22.548,2.578
	c0.673,0.589-0.146,1.114-2.459,1.574c-2.308,0.422-3.818,0.339-4.53-0.251c-0.548-0.333-3.719-0.776-9.511-1.323l-10.585-1.005
	C224.437,168.912,219.189,168.743,210.497,168.617z M266.425,178.191c0,0.506-0.441,1.052-1.323,1.637
	c-1.26,0.883-1.572,2.373-0.942,4.475c0.628,2.1,1.72,3.106,3.276,3.023c0.668-0.084,1.466-0.462,2.391-1.136
	c0.547-0.418,0.884-0.985,1.009-1.699c0.125-0.67,0.146-1.908,0.063-3.715c-0.168-2.941-0.379-4.517-0.634-4.726l-0.313-0.125
	c-0.544,0-1.257,0.294-2.14,0.878C266.846,177.353,266.383,177.815,266.425,178.191z M24.815,130.953
	c-1.009-0.084-2.834-0.042-5.478,0.125c-3.149,0.209-5.038,0.42-5.666,0.633c-0.715,0.208-1.24,0.713-1.575,1.512
	c-0.506,1.133-0.759,3.505-0.759,7.115c0,2.644,0.062,4.198,0.188,4.661c0.167,0.502,0.671,0.774,1.512,0.816
	c1.598,0.167,3.718,0.188,6.361,0.063c2.644-0.167,4.135-0.355,4.474-0.564c0.46-0.293,1.236-0.335,2.329-0.126
	c1.133,0.209,1.721,0.525,1.763,0.947c0,0.46-1.071,1.089-3.212,1.889c-2.1,0.753-3.947,1.171-5.54,1.255
	c-2.226,0.088-4.072,0.299-5.541,0.634l-2.522,0.502l0.314,7.309c0.167,4.952,0.104,7.492-0.188,7.618
	c-0.377,0.212-0.986-0.102-1.826-0.942c-0.589-0.548-0.947-1.264-1.073-2.146c-0.168-0.794-0.23-2.515-0.189-5.163
	c0.084-2.56,0.042-4.28-0.125-5.164c-0.125-0.799-0.483-1.448-1.073-1.951c-0.795-0.673-1.214-1.219-1.255-1.637
	c0-0.418,0.356-1.048,1.067-1.889C7.6,145.609,8,143.781,8,140.967c0-2.937,0.167-4.909,0.502-5.917
	c0.254-0.757,0.317-1.261,0.188-1.511c-0.125-0.294-0.565-0.546-1.318-0.759c-1.092-0.376-1.638-0.923-1.638-1.638
	c0-0.752,0.566-1.382,1.701-1.889c0.924-0.376,4.157-0.711,9.7-1.004c5.584-0.296,9.152-0.32,10.704-0.068
	c2.689,0.422,3.276,1.451,1.763,3.086c-0.67,0.716-1.132,1.094-1.386,1.136c-0.251,0.041-0.649-0.188-1.193-0.691
	C26.601,131.289,25.864,131.037,24.815,130.953z M25.887,160.429c-0.209,0.549,0.127,0.78,1.01,0.697
	c0.419,0,0.691,0.167,0.816,0.501c0.084,0.336,0.063,1.048-0.063,2.141c-0.167,1.133-0.167,1.932,0,2.396
	c0.167,0.46,0.587,0.9,1.26,1.323c0.883,0.543,1.575,0.837,2.078,0.879c0.506,0.041,1.304-0.105,2.396-0.439
	c0.376-0.084,0.774-0.379,1.192-0.885c0.464-0.501,0.78-1.027,0.947-1.574c0.168-0.544,0.439-1.005,0.816-1.38
	c0.338-0.424,0.634-0.635,0.885-0.635c0.966-0.041,1.197-0.713,0.69-2.014c-0.502-1.302-1.382-2.351-2.642-3.149
	c-1.43-0.883-2.647-1.324-3.652-1.324c-1.092,0.083-2.29,0.587-3.594,1.512C26.852,159.277,26.138,159.927,25.887,160.429z
	 M23.24,161.816c0.128-1.344,0.549-2.414,1.26-3.214c1.807-2.142,4.222-3.358,7.247-3.651c2.685-0.251,4.973,0.274,6.864,1.574
	c2.016,1.428,2.854,3.337,2.516,5.729c-0.209,1.557-0.522,2.377-0.941,2.46c-0.422,0-0.634,0.337-0.634,1.011
	c0.043,0.292,0,0.544-0.125,0.752c-0.125,0.21-0.293,0.314-0.502,0.314c-0.924,0.042-1.658,1.994-2.202,5.86
	c-0.59,3.86-0.464,5.938,0.376,6.236c0.586,0.083,1.656-0.463,3.212-1.639c2.602-1.89,3.441-2.143,2.517-0.758
	c-0.376,0.548-1.552,1.702-3.526,3.463c-1.217,1.05-2.035,1.912-2.454,2.585c-0.421,0.632-0.612,1.365-0.57,2.202
	c0.087,1.218-0.08,3.359-0.502,6.424c-0.251,1.892-0.588,3.278-1.01,4.161c-0.376,0.924-1.152,2.036-2.328,3.337
	c-1.468,1.679-2.664,2.645-3.589,2.898c-0.966,0.294-2.29,0.062-3.971-0.696c-1.343-0.628-2.54-1.72-3.589-3.275
	c-1.008-1.509-1.554-3.043-1.637-4.599c-0.043-1.509,0.524-2.726,1.7-3.651c1.765-1.343,3.676-2.644,5.733-3.902
	c2.142-1.26,3.675-2.037,4.599-2.333l1.889-0.565l-0.445-5.735c-0.167-2.476-0.356-4.051-0.565-4.724
	c-0.209-0.67-0.587-0.983-1.135-0.94c-1.343,0.083-2.791-0.483-4.343-1.701c-1.556-1.218-2.354-2.394-2.396-3.525
	c-0.084-0.842-0.335-1.365-0.754-1.575C23.346,163.999,23.114,163.158,23.24,161.816z M45.663,148.401
	c1.05-0.334,3.928-0.755,8.633-1.26c2.56-0.294,6.948-0.818,13.163-1.575c2.012-0.294,3.25-0.397,3.714-0.314
	c0.502,0.042,0.648,0.292,0.439,0.753c-0.125,0.464-0.292,0.717-0.501,0.759c-0.251,0.083-0.63,0-1.136-0.251
	c-0.841-0.381-1.428-0.256-1.763,0.376c-0.376,0.673-0.669,1.01-0.878,1.01c-0.213-0.084-1.999,0.146-5.358,0.69l-12.53,1.889
	c-2.229,0.38-3.657,0.233-4.284-0.44C44.446,149.282,44.613,148.736,45.663,148.401z M50.889,159.487
	c-0.459-0.25-0.69-0.462-0.69-0.633c0-0.126,0.209-0.355,0.628-0.689c0.548-0.378,1.326-0.631,2.333-0.76
	c1.05-0.126,3.484-0.251,7.304-0.377c3.488-0.168,6.196-0.587,8.125-1.262c1.555-0.627,2.584-0.836,3.087-0.627
	c0.505,0.209,0.422,0.819-0.251,1.826c-0.586,0.924-2.182,1.596-4.788,2.014c-2.94,0.464-6.152,0.76-9.637,0.885
	C53.474,159.99,51.438,159.864,50.889,159.487z M29.351,186.567c-2.016,1.175-3.528,2.267-4.536,3.274
	c-1.175,1.134-1.701,2.226-1.575,3.275c0.128,1.05,0.906,2.354,2.333,3.909c2.226,2.477,4.262,2.139,6.111-1.011
	c0.795-1.343,1.404-3.421,1.825-6.236c0.419-2.811,0.356-4.469-0.188-4.975h-0.194C32.584,184.762,31.325,185.35,29.351,186.567z
	 M161.303,133.852c0.923,0.167,1.449,0.418,1.574,0.754c0.167,0.338,0.188,1.325,0.063,2.96c-0.167,2.48-0.46,4.559-0.878,6.236
	c-0.38,1.598-0.697,3.886-0.948,6.864c-0.126,2.184-0.396,3.528-0.815,4.034c-0.423,0.461-1.116,0.208-2.083-0.759
	c-0.837-0.879-1.046-1.717-0.627-2.516c0.293-0.674,0.545-2.437,0.759-5.29c0.209-2.898,0.188-4.453-0.063-4.662
	c-0.171-0.167-1.474,1.008-3.908,3.526c-1.848,1.891-3.128,3.024-3.839,3.401c-0.757,0.377-1.535,0.314-2.333-0.188
	c-0.335-0.167-0.314-0.525,0.062-1.072c0.381-0.545,1.242-1.404,2.585-2.58c2.393-2.016,4.093-3.928,5.101-5.734
	c1.343-2.393,2.31-3.863,2.898-4.41C159.435,133.873,160.252,133.684,161.303,133.852z M144.048,135.176
	c-1.765,1.259-3.34,1.993-4.724,2.202c-1.556,0.167-3.089-0.168-4.599-1.004l-2.391-1.261l-1.637,2.077
	c-2.229,2.856-4.477,4.116-6.744,3.777c-2.225-0.377-3.401-2.182-3.526-5.415c-0.083-2.142-0.313-3.212-0.69-3.212
	c-0.38,0-1.598,1.301-3.651,3.903c-2.058,2.605-3.696,4.243-4.913,4.913c-1.346,0.798-2.44,1.01-3.281,0.633
	c-0.794-0.376-1.087-1.217-0.879-2.521c0.168-0.837,0.147-3.146-0.063-6.927c-0.251-3.819-0.483-5.835-0.696-6.048
	c-0.585-0.544-1.445-0.166-2.579,1.135c-1.092,1.343-2.205,3.296-3.338,5.86c-1.64,3.903-2.459,6.024-2.459,6.362
	c-0.042,2.351-0.418,4.092-1.129,5.226c-0.673,1.134-1.431,1.301-2.271,0.502c-0.669-0.585-0.941-1.636-0.816-3.149
	c0.125-1.552,0.629-3.357,1.512-5.415c1.719-3.991,3.754-7.35,6.104-10.077c2.397-2.773,4.414-4.076,6.049-3.909
	c1.89,0.209,2.71,3.338,2.459,9.386c-0.213,3.568-0.066,5.31,0.439,5.227c0.46,0,1.552-0.902,3.275-2.705
	c1.765-1.849,3.381-3.781,4.85-5.797c0.631-0.883,1.324-1.703,2.077-2.459c0.715-0.712,1.261-1.108,1.638-1.192
	c0.631-0.21,1.031-0.042,1.198,0.502c0.167,0.631,0.292,2.436,0.377,5.415c0.125,2.479,0.272,4.16,0.439,5.038
	c0.172,0.882,0.424,1.323,0.759,1.323c0.84-0.042,1.807-0.651,2.898-1.825c1.05-1.175,2.037-2.729,2.961-4.662
	c1.426-2.895,2.874-4.553,4.342-4.975c1.43-0.418,1.726,0.736,0.884,3.463c-0.673,2.354,0.271,3.783,2.83,4.285
	c0.924,0.209,1.891,0.021,2.898-0.565c0.967-0.547,2.248-1.619,3.846-3.212c0.92-0.924,1.488-1.261,1.701-1.01
	c0.209,0.209,0.146,1.092-0.188,2.647C146.796,132.72,145.809,133.874,144.048,135.176z M164.076,179.516
	c0.166,0.418,0.229,1.488,0.188,3.211l-0.063,3.841l2.648-0.377c1.594-0.209,3.903-0.23,6.927-0.063
	c2.099,0.167,3.337,0.355,3.714,0.565c0.422,0.171,0.654,0.716,0.696,1.637c0.042,1.049-0.232,1.933-0.821,2.647
	c-0.545,0.715-1.027,0.778-1.45,0.188c-0.293-0.46-0.334-0.88-0.125-1.26c0.209-0.419-0.188-0.732-1.191-0.942
	c-1.01-0.25-2.375-0.354-4.098-0.313c-1.009,0.083-2.268,0.398-3.777,0.942c-1.514,0.588-2.585,1.178-3.213,1.762
	c-0.083,0.043-0.399,2.08-0.947,6.111c-0.377,3.191-0.669,5.396-0.878,6.613c-0.255,1.259-0.634,2.646-1.136,4.159
	c-0.335,1.008-0.839,1.616-1.512,1.826c-0.631,0.25-1.114-0.022-1.449-0.822c-0.293-0.627-0.125-2.202,0.502-4.724
	c0.632-2.476,0.905-4.596,0.821-6.357c-0.083-1.722,0.063-3.403,0.439-5.043c0.674-2.686,1.073-6.087,1.198-10.201
	c0.042-1.933,0.23-3.171,0.564-3.716c0.298-0.589,0.906-0.776,1.826-0.563C163.571,178.762,163.949,179.055,164.076,179.516z
	 M192.103,180.08c0.463,0.547,0.716,1.409,0.759,2.585c0.125,2.477-1.03,5.499-3.465,9.07c-1.049,1.428-1.532,2.371-1.449,2.831
	c0,0.841,3.651,1.323,10.956,1.449c2.688,0.084,4.307,0.21,4.85,0.376c0.549,0.214,0.527,0.677-0.063,1.387
	c-0.503,0.674-1.53,1.116-3.082,1.324c-1.597,0.209-4.601,0.271-9.01,0.188c-5.08-0.041-7.979-0.396-8.688-1.065
	c-0.632-0.59-0.844-1.243-0.633-1.957c0.208-0.754,0.796-1.404,1.762-1.952c1.306-0.757,2.628-2.562,3.972-5.414
	c1.385-2.856,1.931-4.936,1.638-6.236c-0.21-0.925-0.734-1.387-1.574-1.387c-0.842-0.042-2.187,0.356-4.035,1.198
	c-1.468,0.628-2.41,0.899-2.829,0.815c-0.422-0.084-0.487-0.544-0.194-1.381c0.255-0.715,1.453-1.45,3.594-2.207
	c2.143-0.758,3.759-1.03,4.851-0.816C190.719,179.139,191.599,179.535,192.103,180.08z"/>
</svg>
