<?xml version="1.0" encoding="utf-8"?>
<!-- Generator: Adobe Illustrator 16.0.0, SVG Export Plug-In . SVG Version: 6.00 Build 0)  -->
<!DOCTYPE svg PUBLIC "-//W3C//DTD SVG 1.1//EN" "http://www.w3.org/Graphics/SVG/1.1/DTD/svg11.dtd">
<svg version="1.1" id="Layer_1" xmlns="http://www.w3.org/2000/svg" xmlns:xlink="http://www.w3.org/1999/xlink" x="0px" y="0px"
	 width="300px" height="300px" viewBox="0 0 300 300" enable-background="new 0 0 300 300" xml:space="preserve">
<g>
	<path fill-rule="evenodd" clip-rule="evenodd" fill="#361212" d="M68.6,60.941c-5.559,0-11.185,1.514-16.878,4.542
		c-1.401,0.768-2.757,1.582-4.066,2.44c-2.893,3.977-5.604,8.111-8.134,12.404c-7.728,13.193-11.591,23.903-11.591,32.127
		c0,3.164,1.242,9.174,3.728,18.031c2.441,8.856,3.661,15.25,3.661,19.181c0,4.158-0.813,7.411-2.44,9.761
		c-0.497,0.723-1.401,1.988-2.711,3.796c-1.22,1.943-2.35,4.134-3.389,6.575h5.694c1.175-1.041,2.033-1.785,2.575-2.237
		c0.994-0.813,1.943-1.221,2.847-1.221c0.633,0,1.062,0.249,1.288,0.747c0.09,0.18,0.226,0.698,0.406,1.558
		c0.316,1.537,1.197,2.305,2.644,2.305c2.711,0,5.58-3.456,8.608-10.371c1.175-2.621,2.124-5.332,2.847-8.134
		c0.542-1.762,0.881-3.185,1.017-4.269c-0.136-0.497-0.316-0.994-0.542-1.492c-1.22-2.034-2.146-3.638-2.779-4.813
		c-2.711-4.745-4.066-11.116-4.066-19.113c0-0.859,0.135-2.599,0.406-5.22c0.136-1.536,0.271-2.914,0.406-4.134
		c2.983,7.907,8.789,15.048,17.42,21.418c8.314,6.146,18.12,10.914,29.416,14.303c0.136-1.355-2.168-3.344-6.913-5.965
		c-2.486-1.4-4.157-2.417-5.016-3.05c-1.537-1.131-2.35-2.124-2.44-2.983h3.932c4.655,4.249,8.494,6.959,11.523,8.134
		c2.666,1.039,6.597,1.56,11.793,1.56c5.197,0,8.835-0.406,10.914-1.221c1.988-0.768,3.479-2.281,4.473-4.541
		c1.219-3.436,2.326-6.507,3.322-9.218c1.852-5.152,4.292-10.281,7.319-15.387h0.543c-0.452,2.666-1.198,6.755-2.237,12.268
		c-0.768,4.971-1.152,9.579-1.152,13.827c0,2.125,0.835,5.13,2.507,9.016c1.762,3.886,2.644,5.919,2.644,6.101
		c0,0.496-0.768,2.484-2.305,5.964c-1.537,3.434-2.305,6.438-2.305,9.015c0,0.949,0.024,1.65,0.069,2.102
		c0.09,0.769,0.249,1.401,0.474,1.898c1.989-1.266,3.164-1.988,3.524-2.17c0.181-0.09,1.017-0.135,2.509-0.135
		c1.49,0,3.773,2.213,6.845,6.643c1.581,2.259,3.23,4.813,4.949,7.658c2.666-4.066,4.835-9.037,6.507-14.911
		c1.987-6.96,2.665-13.263,2.033-18.911c0.316,0.181,1.151,0.768,2.508,1.763c0.451,0.315,0.949,0.678,1.491,1.085
		c2.259,1.537,3.886,2.305,4.88,2.305c4.654,0,8.358-0.768,11.116-2.305c2.259-1.311,4.157-3.39,5.694-6.237
		c0.678-1.31,1.829-4.269,3.456-8.879c1.536-4.338,3.118-7.862,4.745-10.573c0.496-0.903,2.011-2.982,4.541-6.235
		c2.982-3.842,5.287-6.982,6.914-9.422c3.162-4.654,5.513-8.903,7.048-12.743c0.182-2.846,0.137-5.422-0.135-7.728
		c-0.406-3.659-1.266-8.02-2.576-13.081c-1.355-5.106-3.343-7.728-5.964-7.862c-2.621-0.136-5.875,0.18-9.761,0.948
		c-3.977,0.768-8.111,1.041-12.404,0.814c-1.942-0.046-3.659-0.181-5.151-0.406c-1.265,0.225-2.033,0.406-2.305,0.542
		c-0.993,0.406-1.49,2.101-1.49,5.083c0,2.576,0.791,6.552,2.372,11.929c0.857,2.893,1.966,6.643,3.321,11.252
		c-0.859-1.582-1.741-3.751-2.644-6.508c-0.994-3.026-1.762-5.264-2.305-6.709c-1.942-5.288-4.678-8.722-8.201-10.304
		c-2.847-1.264-7.999-1.717-15.455-1.355c-8.404,0.361-13.94,0.249-16.606-0.339c-4.835-0.994-9.986-2.665-15.453-5.016
		c-6.147-2.801-10.755-4.88-13.828-6.235c-5.467-2.44-10.438-4.247-14.912-5.422C81.409,61.688,75.151,60.941,68.6,60.941z
		 M57.076,57.891c14.641-4.473,38.207-0.158,70.695,12.947c4.836,2.666,10.777,3.683,17.827,3.05
		c5.739-1.131,11.207-1.764,16.403-1.898c1.807-0.09,3.435-0.204,4.881-0.339c2.621-0.225,4.721-0.474,6.303-0.746
		c0,0.09,0.022,0.135,0.067,0.135c0.271,0.136,0.588,0.249,0.949,0.339c0.046-0.227,0.092-0.429,0.137-0.61
		c0.541-1.807,1.988-3.886,4.337-6.235c2.938-2.936,5.31-4.52,7.116-4.745c-0.18,0.316-0.384,0.678-0.608,1.084
		c-0.227,0.316-0.453,0.678-0.678,1.084c0.994-0.723,2.395-1.762,4.201-3.118c1.628-1.219,3.006-2.146,4.135-2.779
		c0.904-0.542,2.599-1.084,5.084-1.627c1.627-0.361,2.893-0.835,3.795-1.423l1.153-0.406h0.135c0,0.361-0.112,0.835-0.339,1.423
		c-0.18,0.361-0.406,0.792-0.678,1.288c0.182,0,0.453-0.022,0.814-0.068c0.09,0,0.157-0.023,0.202-0.069
		c0,0.045-0.045,0.182-0.135,0.408c-0.045,0.09-0.114,0.18-0.204,0.27c-0.135,0.453-0.202,0.723-0.202,0.814v0.135
		c0.225-0.135,0.451-0.227,0.678-0.271c0.09-0.045,0.18-0.068,0.27-0.068c-0.045,0.316-0.067,0.746-0.067,1.289
		c0,0.361,0,0.813,0,1.355c0.045-0.18,0.114-0.339,0.204-0.474c0.813,2.801,1.875,5.333,3.186,7.591
		c3.072,4.88,7.41,7.909,13.015,9.083c3.705,0.768,7.094,1.762,10.167,2.983c1.084,0.451,3.366,1.513,6.846,3.185
		c2.439,1.175,4.631,2.011,6.574,2.507c2.666,0.678,5.783,1.017,9.354,1.017c1.763,0,3.818-0.451,6.168-1.355
		c0.09-0.045,0.158-0.09,0.204-0.135c-0.994,1.943-2.237,3.254-3.728,3.932c-1.989,0.948-4.249,1.311-6.778,1.084
		c-1.943-0.181-3.954-0.565-6.033-1.153c-0.271,1.582-0.384,3.344-0.339,5.287c0,3.842,0.497,8.383,1.491,13.624
		c-2.44-2.846-3.863-4.179-4.27-3.999c0.496,5.92,0.429,9.174-0.204,9.761c-2.033-2.711-4.044-6.574-6.032-11.59l0.609,11.794
		c-4.201-4.745-7.343-11.522-9.421-20.334c-0.497-1.988-0.903-4.089-1.22-6.304c-4.113,4.881-6.892,10.416-8.338,16.606
		c-1.445,4.383-3.366,8.721-5.761,13.015c-1.988,3.389-4.316,6.778-6.982,10.167c-1.672,2.846-3.229,6.98-4.676,12.403
		c-2.486,9.173-5.671,16.698-9.558,22.572c-0.769,1.129-1.581,2.236-2.44,3.321c-0.09,1.084-0.249,2.236-0.474,3.457
		c-0.588,2.529-1.537,5.354-2.848,8.473c-1.717,4.066-4.112,8.563-7.185,13.488c-1.129,1.266-1.739,2.892-1.829,4.88
		c0.678,3.389-0.113,7.252-2.373,11.59c-1.22,2.396-1.762,4.248-1.627,5.559l0.475,13.759c0.452,1.898,1.943,4.226,4.475,6.982
		l-1.492,1.966l-5.423-0.543c1.763,1.808,3.187,3.163,4.271,4.067c2.665,2.395,4.519,3.593,5.558,3.593
		c0.678,0,1.221-0.294,1.627-0.882c0.136-0.316,0.249-0.633,0.339-0.949c1.673,3.615,0.227,4.79-4.338,3.525
		c0.227,0.451,0.271,0.79,0.137,1.017c-0.769,1.717-4.835,1.672-12.201-0.137c-0.226-0.316-0.475-0.633-0.746-0.949l-0.813,2.78
		l-4.201-1.017l0.339,2.643c0.857,0.724,1.964,1.854,3.32,3.389c1.943,2.17,3.797,3.254,5.559,3.254
		c0.631,0,1.174-0.316,1.627-0.949c0-0.045,0.021-0.09,0.067-0.135c0.135,0.316,0.271,0.633,0.406,0.949
		c0.09,1.129-0.61,1.762-2.101,1.897c-1.762-0.181-3.073-0.497-3.932-0.949c-0.091-0.045-0.158-0.09-0.203-0.136
		c0,0.091,0.045,0.182,0.136,0.271c-2.034,2.983-6.123,2.869-12.269-0.339c-3.75-1.943-6.033-4.044-6.846-6.304
		c-0.498-1.491-0.317-3.096,0.542-4.813c-1.537,1.582-2.779,2.124-3.728,1.627c0.452-1.988,0.835-3.954,1.153-5.897
		c2.168-14.596,0.564-29.349-4.813-44.26c-0.903,2.619-2.124,4.405-3.659,5.354c-0.453-1.04-0.882-2.078-1.288-3.119
		c-0.091-0.18-0.158-0.359-0.204-0.541c-0.09,0.859-0.157,1.784-0.202,2.778c-0.045-1.445-0.114-2.756-0.204-3.932
		c-1.311-3.569-2.237-6.913-2.779-10.03c-0.588-3.751-0.7-7.185-0.339-10.304c0.09-0.271,0.158-0.542,0.203-0.813
		c-10.527,1.627-22.029,0.678-34.5-2.847c-2.123-0.678-4.181-1.4-6.169-2.17c-1.129,2.215-3.32,4.045-6.574,5.49
		c0.225,0.498,0.474,1.198,0.745,2.103c0.543,1.852,0.814,3.117,0.814,3.795c0,0.587-0.069,1.152-0.204,1.694
		c-0.18,0.587-0.768,0.926-1.762,1.017c-1.04,0.046-2.101-0.587-3.187-1.898c-0.948-1.129-1.695-2.462-2.236-3.999
		c-0.407,2.848-0.633,5.311-0.678,7.389c-0.271,9.851,0.248,18.368,1.558,25.554c0.318,1.853,1.537,3.953,3.661,6.303
		c-1.219,2.351-2.824,3.096-4.812,2.237c-1.084,2.53-2.417,2.734-4,0.61c-0.542,0.587-1.017,0.994-1.423,1.22
		c-0.271,0.091-0.543,0.136-0.813,0.136c0,0.407-0.024,0.903-0.069,1.491c0,1.627,0.249,3.027,0.747,4.202
		c0.497,1.446,1.311,2.305,2.44,2.576c0.316,0.09,1.513,0.564,3.591,1.423c1.764,0.77,3.029,1.153,3.797,1.153
		c0.723,0,1.242-0.204,1.558-0.61c0.316-0.316,0.476-0.904,0.476-1.763c0-1.085-0.678-2.327-2.034-3.728
		c-0.408-0.361-0.747-0.678-1.017-0.949c-0.498-0.316-1.017-0.565-1.56-0.745c-0.18,0-0.316,0.022-0.406,0.067v-0.137h0.678
		c1.852,0.588,3.389,1.198,4.608,1.831c0.136,0.045,0.747,0.52,1.831,1.423c0.904,0.769,1.558,1.152,1.966,1.152
		c0.315,0,0.519-0.181,0.609-0.542c0.136-0.226,0.204-0.497,0.204-0.813c0-0.568-0.339-1.664-1.017-3.287
		c1.599,2.347,2.616,4.301,3.05,5.863c0,0.045,0.022,0.09,0.067,0.135c-0.271,1.447-2.011,1.966-5.219,1.56h-0.136
		c-0.633,2.123-3.299,2.733-7.998,1.829c-5.377-2.123-8.27-3.953-8.676-5.489l-0.067-9.964c-0.045-0.045-0.18-0.112-0.407-0.204
		c0.045,0.092,0.09,0.182,0.135,0.271c-4.248,1.356-5.761,0.407-4.541-2.846c2.62-8.587,2.146-19.747-1.423-33.484
		c-0.859,0.768-1.65,1.152-2.373,1.152c-0.949,0-1.672-0.227-2.169-0.678c-0.587-0.542-0.881-1.356-0.881-2.44
		c0-0.994,0.113-2.123,0.339-3.389c0.181-1.355,0.43-2.35,0.746-2.982c-0.859-0.362-1.694-0.769-2.508-1.22
		c-2.938,2.711-6.552,5.219-10.845,7.523c-1.627,1.762-2.102,4.405-1.424,7.93l0.204,16.2c0.497,3.344,2.576,8.45,6.235,15.318
		c0.633,1.266,1.333,2.599,2.102,3.999c-0.091,0-0.361,0-0.813,0c-0.813,0-1.288,0.045-1.423,0.135
		c0.407,1.221,0.655,1.988,0.746,2.305h-0.068c-0.316-0.316-0.836-0.633-1.559-0.949c-0.226-0.09-0.429-0.157-0.61-0.202
		c-0.497-0.182-0.949-0.316-1.355-0.406v0.135c0.09,0.633,0.136,1.198,0.136,1.694c0,0.316,0,0.565,0,0.745
		c0.09,0.046,0.203,0.137,0.339,0.271c0.496,0.452,1.174,1.401,2.033,2.847c0.361,0.588,0.768,1.582,1.22,2.982
		c0.406,1.039,1.084,1.56,2.033,1.56c0.632,0,1.22-0.429,1.762-1.288c0.497-0.723,0.746-1.4,0.746-2.033
		c0-0.227-0.293-0.949-0.881-2.169c-0.407-0.904-0.813-2.124-1.22-3.66c0.136,0.135,0.249,0.316,0.339,0.541
		c0.995,1.854,1.717,3.458,2.169,4.813c0.678,2.079,0.678,3.524,0,4.337l-0.067,0.069c-1.04,1.626-2.893,1.965-5.559,1.017
		c-0.181-0.091-0.361-0.182-0.542-0.271c0.316,0.181,0.52,0.361,0.61,0.542v0.068c-0.045,0.09-0.068,0.203-0.068,0.339
		c-0.452,1.581-1.288,2.214-2.508,1.897c-6.461-0.903-10.551-2.463-12.268-4.678c-1.266-1.986-1.085-5.828,0.542-11.522
		c0.09-0.18,0.158-0.361,0.204-0.541c-0.181,0.045-0.339,0.09-0.475,0.135c-1.808,0.271-2.667-0.633-2.576-2.711
		c0.09-0.858,0.316-1.897,0.678-3.118c0.452-2.666,0.271-5.941-0.542-9.828c-1.04-8.54-2.26-15.454-3.661-20.74
		c-0.768-3.073-1.604-5.604-2.508-7.593c-2.756-5.874-2.824-10.279-0.203-13.217c0.135-0.181,0.271-0.315,0.407-0.406
		c0.135-0.136,0.226-0.227,0.271-0.271c6.1-5.738,8.111-11.613,6.033-17.624c-0.227-0.541-0.497-1.106-0.813-1.694
		c0-0.135-0.022-0.27-0.068-0.406c-6.01-17.035-7.049-33.823-3.118-50.36c2.937-6.959,6.394-13.015,10.371-18.166
		c-1.717,1.943-2.214,1.333-1.491-1.83c-4.383,5.286-7.275,8.11-8.677,8.473l0.475-3.932c-4.292,7.276-7.591,11.319-9.896,12.133
		c-0.633-1.084-0.43-2.666,0.609-4.745c-2.168,3.163-3.682,6.009-4.541,8.54c-0.949,2.847-2.124,4.565-3.525,5.151
		c-1.13,0.316-1.897-0.723-2.305-3.118c0-0.316,0-0.633,0-0.949c0-1.942,0.091-3.773,0.271-5.49
		c0.406-4.021,1.175-7.615,2.304-10.777c2.44-7.185,6.688-12.268,12.743-15.25c10.122-4.157,18.504-3.954,25.146,0.61
		c2.214-1.717,4.542-3.254,6.981-4.61C55.269,58.795,56.173,58.343,57.076,57.891z M235.882,25.966
		c5.468,0.723,9.195,3.524,11.184,8.405c7.095-1.039,13.466,0.158,19.115,3.592c5.015,2.757,10.573,4.18,16.674,4.27
		c6.371,0.588,9.24,1.989,8.607,4.203h-0.067c-0.09,0.271-0.204,0.542-0.339,0.813c-1.266,1.988-4.655,4.112-10.167,6.372
		c-0.271,0.09-0.588,0.182-0.949,0.271c-0.316,0-0.678,0-1.085,0c-1.807,0-3.862-0.249-6.167-0.747
		c-2.079-0.406-3.887-0.903-5.423-1.491c-2.305-1.22-4.044-2.078-5.22-2.576c-2.058-0.919-4.113-1.224-6.168-0.915
		c0.794-0.141,1.879-0.378,3.254-0.712c1.311-0.271,2.485-0.406,3.524-0.406c0.271,0,3.525,0.045,9.761,0.136
		c0.181,0,1.537,0.112,4.066,0.339c2.395,0.135,3.909,0.203,4.541,0.203c0.994,0,1.764-0.068,2.305-0.203
		c0.271,0,0.837-0.158,1.694-0.475c-5.061,0.136-10.483-0.564-16.268-2.102c-8.856-2.711-15.453-3.298-19.791-1.762
		c0.496,2.079,1.106,4.157,1.829,6.236c2.215,6.145,5.468,12.245,9.761,18.3v0.069c0.046,0.045,0.091,0.09,0.136,0.135
		c0.046,0.135,0.091,0.271,0.136,0.406c0.588,1.672,0.678,3.073,0.271,4.203c-0.497,1.401-1.809,2.328-3.932,2.779
		c-0.135,0-0.316,0.045-0.543,0.135c-0.768-0.045-1.49-0.113-2.168-0.203c-0.09-2.711-1.672-4.022-4.745-3.932
		c-0.045-0.18-0.067-0.406-0.067-0.678c0.588-1.762,3.435-2.711,8.54-2.846c-0.904-1.266-1.921-2.599-3.05-3.999
		c-2.395-2.983-4.09-5.084-5.084-6.304c-1.627-2.034-2.554-3.367-2.778-4c-0.406-1.129-0.994-3.343-1.762-6.642
		c-0.814-3.57-1.515-6.236-2.103-7.999c-2.033-6.235-4.768-9.354-8.201-9.354c-2.44,0-5.241,0.452-8.405,1.356
		c-3.208,0.994-6.325,1.491-9.353,1.491c-2.938,0-5.604,1.106-7.999,3.321c-2.214,2.485-4.27,5.648-6.168,9.489
		c-0.045,0-0.09,0-0.135,0l0.135-0.068c0-0.045,0-0.09,0-0.136c-4.926,4.474-12.11,9.061-21.555,13.76
		c8.948-13.149,16.652-21.373,23.114-24.672c0.09-0.09,0.157-0.136,0.202-0.136c0.633-2.756,2.418-4.586,5.355-5.49
		c-0.406-1.763-1.084-3.322-2.033-4.677c-0.543-0.678-1.13-1.288-1.763-1.83c-4.428-4.112-12.268-5.377-23.521-3.795
		c3.027-1.401,5.469-2.259,7.321-2.576c0.994-0.136,3.072-0.203,6.235-0.203c2.893,0,4.836,0.112,5.83,0.339
		c1.039,0.316,2.417,1.084,4.134,2.304c0.316,0.181,0.61,0.384,0.881,0.61c0.769,0.587,1.876,1.83,3.321,3.728
		c0.137,0.226,0.271,0.429,0.406,0.609c1.402,1.943,2.237,2.915,2.509,2.915c0.406,0,1.333-0.113,2.779-0.339
		c1.445-0.226,2.529-0.339,3.254-0.339c0.723,0,1.241,0.022,1.558,0.067c-8.585-14.008-20.944-16.742-37.075-8.201
		c7.366-5.649,14.866-7.682,22.503-6.1c0.181,0,0.361,0.045,0.542,0.135c0.316,0.091,0.61,0.204,0.881,0.339
		c0.453,0.135,0.882,0.293,1.288,0.475c0.045,0.045,0.113,0.068,0.204,0.068c1.219-0.136,2.395-0.226,3.523-0.271
		c11.298-0.497,18.685,3.728,22.165,12.675C235.521,24.882,235.701,25.424,235.882,25.966z M234.119,24.271
		c-4.248-7.5-10.709-11.545-19.385-12.132c0.949,0.316,1.875,0.701,2.779,1.152c2.801,1.356,4.632,2.982,5.489,4.88
		c1.627,3.525,3.073,5.513,4.339,5.965c0.543,0.226,1.423,0.339,2.644,0.339C230.708,24.43,232.086,24.362,234.119,24.271z
		 M225.309,26.577c-2.667-7.592-7.614-12.404-14.845-14.438c-0.225-0.09-0.496-0.158-0.813-0.203
		c6.145,2.666,10.438,7.185,12.878,13.556c0.18,0.452,0.339,0.926,0.474,1.423C223.817,26.825,224.585,26.712,225.309,26.577z
		 M184.505,61.958c-0.047,0.045-0.069,0.09-0.069,0.136v0.135C184.439,62.132,184.462,62.042,184.505,61.958z M210.601,50.774
		c0.045,0,0.067-0.022,0.067-0.068c2.258-1.626,4.45-1.875,6.574-0.745c1.355,0.723,2.756,2.192,4.203,4.406
		c-0.949,1.717-2.915,2.486-5.897,2.305c-0.091,0-0.181-0.022-0.271-0.067C211.934,55.608,210.374,53.667,210.601,50.774z
		 M215.276,51.927c0,0.361,0.091,0.631,0.271,0.813c0.271,0.271,0.564,0.406,0.881,0.406s0.588-0.135,0.813-0.406
		c0.181-0.182,0.271-0.452,0.271-0.813c0-0.316-0.091-0.565-0.271-0.745c-0.226-0.227-0.497-0.34-0.813-0.34s-0.61,0.113-0.881,0.34
		C215.367,51.361,215.276,51.61,215.276,51.927z M257.3,80.733c-0.27-0.181-0.541-0.406-0.813-0.678
		c-0.543,0.271-1.084,0.542-1.627,0.813c-5.196,2.08-11.906,0.724-20.131-4.067c9.173,3.48,15.522,4.655,19.047,3.525
		c1.129-0.408,1.966-0.996,2.507-1.763c0.904,0.768,1.717,1.266,2.441,1.492c0.632,0.182,1.219,0.158,1.762-0.067
		c-0.09,0.497-0.227,0.903-0.406,1.219C259.176,81.614,258.249,81.457,257.3,80.733z M43.384,228.698
		c-0.542-1.355-0.994-2.417-1.355-3.186c-0.452-0.227-0.904-0.474-1.355-0.745c-0.995-0.633-1.604-1.153-1.83-1.56
		c-0.136,0.137-0.497,0.745-1.085,1.831c-0.587,1.039-1.017,1.694-1.288,1.965v-0.067l-1.221-4.135l-2.168,2.576
		c0-0.271,0-0.543,0-0.814c-0.045,0.137-0.068,0.271-0.068,0.406c-0.271,1.447-0.407,2.825-0.407,4.136
		c0,1.989,1.107,3.684,3.321,5.084c2.079,1.311,4.451,1.965,7.117,1.965c0.543,0,0.972-0.271,1.288-0.813
		c0.316-0.496,0.475-1.106,0.475-1.829C44.808,232.697,44.333,231.095,43.384,228.698z M20.204,79.039
		c-0.136,0.135-0.249,0.316-0.339,0.542L20,79.445C20,79.4,20.068,79.266,20.204,79.039z M166.949,233.308l-0.406-0.067l-3.321,3.66
		l-2.44-3.999l-3.864,1.219c1.175,2.531,2.869,4.655,5.084,6.372c2.395,1.854,4.881,2.778,7.456,2.778
		c0.858,0,1.536-0.157,2.033-0.474c0.588-0.316,0.882-0.768,0.882-1.355c0-0.768-0.836-2.237-2.509-4.405
		c-0.993-1.266-1.763-2.214-2.304-2.847c-0.227-0.316-0.408-0.543-0.543-0.678C166.972,233.42,166.949,233.353,166.949,233.308z
		 M156.85,254.319c0.813,0,1.4-0.135,1.762-0.406c0.406-0.271,0.61-0.745,0.61-1.423c0-0.498-0.563-1.672-1.694-3.525
		c-0.723-1.174-1.221-2.033-1.49-2.575l-2.915-1.898l-3.524,3.254l-1.288-3.118l-3.661,2.237c0.09,1.4,0.768,2.599,2.034,3.593
		c0.453,0.361,1.808,1.106,4.067,2.235c1.31,0.588,2.327,0.994,3.05,1.221C154.702,254.185,155.719,254.319,156.85,254.319z
		 M159.696,203.146c-0.903-2.033-1.22-4.813-0.948-8.338c0.36-4.789-0.137-7.681-1.492-8.675c-1.987,6.009-3.411,12.043-4.27,18.097
		c-0.949,7.185-1.085,14.415-0.407,21.689c0,0.137,0.023,0.294,0.068,0.476c0.045,0.406,0.067,0.813,0.067,1.22
		c0.091,1.672,0.407,3.231,0.949,4.677c-0.045,0-0.09,0.045-0.136,0.135l0.271,0.204c-0.091-0.135-0.136-0.249-0.136-0.339
		C160.803,223.345,162.814,213.629,159.696,203.146z M74.429,177.185c0-0.314,0.022-0.633,0.067-0.947
		c-0.135,0-0.294,0.021-0.474,0.067C74.157,176.621,74.292,176.915,74.429,177.185z M53.958,169.729
		c0.271,0.408,0.655,0.678,1.152,0.814c0.407,0.09,0.904,0.135,1.491,0.135c0.091,0.316,0.022,1.582-0.203,3.796
		c-0.09,2.033,0.294,3.05,1.152,3.05c1.039,0,1.943-0.79,2.711-2.372c0.678-1.853,1.151-3.071,1.423-3.659
		c1.04,0.678,2.419,0.835,4.134,0.474c2.034,5.243,3.254,7.389,3.661,6.439c0.497-1.445,0.835-2.553,1.017-3.321
		c0.136-0.451,0.158-1.265,0.067-2.44h2.576c0.723,0.949,1.446,1.695,2.168,2.237c0.678,0.452,1.356,0.678,2.034,0.678
		c0.453,0,0.768-0.113,0.949-0.339c0.226-0.181,0.339-0.475,0.339-0.881c0-1.085-0.678-2.508-2.034-4.271
		c1.311,0.271,2.464-0.202,3.457-1.423c-5.241-2.575-9.105-4.677-11.59-6.303c-3.163-1.988-5.558-4.181-7.185-6.575
		C60.285,160.917,57.845,165.572,53.958,169.729z"/>
</g>
</svg>
