<?xml version="1.0" encoding="utf-8"?>
<!-- Generator: Adobe Illustrator 16.0.0, SVG Export Plug-In . SVG Version: 6.00 Build 0)  -->
<!DOCTYPE svg PUBLIC "-//W3C//DTD SVG 1.1//EN" "http://www.w3.org/Graphics/SVG/1.1/DTD/svg11.dtd">
<svg version="1.1" id="Layer_1" xmlns="http://www.w3.org/2000/svg" xmlns:xlink="http://www.w3.org/1999/xlink" x="0px" y="0px"
	 width="300px" height="300px" viewBox="0 0 300 300" enable-background="new 0 0 300 300" xml:space="preserve">
<path fill-rule="evenodd" clip-rule="evenodd" fill="#292929" d="M112.899,121.155c1.605,1.521,2.408,3.321,2.408,5.403
	c0,2.126-0.803,3.993-2.408,5.598c-1.52,1.605-1.781,2.235-0.783,1.889c1.259-0.434,2.626-0.283,4.101,0.456
	c1.475,0.736,2.364,1.735,2.667,2.994c0.391,1.561,0.153,2.688-0.714,3.382c-0.868,0.695-1.996,0.653-3.382-0.127
	c-1.39-0.825-3.559-1.325-6.509-1.498c-3.083-0.172-4.797-0.282-5.144-0.327c-1.778-0.347-0.824-2.385,2.864-6.118
	c1.432-1.432,2.365-2.647,2.799-3.645c0.433-0.91,0.541-1.952,0.322-3.123c-0.346-1.909-0.974-2.841-1.884-2.799
	c-0.868,0.043-2.104,1.106-3.71,3.191c-0.695,0.91-1.39,1.626-2.084,2.148c-0.695,0.562-1.173,0.755-1.434,0.583
	c-0.562-0.346-0.799-1.452-0.714-3.318c0.129-1.866,0.478-2.799,1.042-2.799c0.607,0,0.91-0.564,0.91-1.693
	c0-0.477,0.197-0.866,0.587-1.17c0.434-0.303,0.955-0.455,1.562-0.455c0.564,0,1.063-0.131,1.497-0.392
	c0.434-0.219,0.651-0.5,0.651-0.847c0-0.868,0.868-0.975,2.604-0.323C109.84,118.771,111.424,119.768,112.899,121.155z
	 M145.247,155.651c1.821,0.956,2.731,1.911,2.731,2.863c0,0.74-0.325,1.197-0.974,1.371c-0.695,0.214-2.018,0.235-3.969,0.063
	c-4.082-0.392-5.624,0.172-4.625,1.692c0.219,0.261-0.193,1.02-1.233,2.275c-1.044,1.217-1.783,1.826-2.217,1.826
	c-0.477,0-0.974-0.262-1.493-0.783c-0.479-0.477-0.719-1.41-0.719-2.8c0-0.564-0.173-1.041-0.519-1.429
	c-0.346-0.435-0.736-0.651-1.169-0.651c-1.129,0-3.018-0.585-5.667-1.756c-1.951-0.825-3.013-1.391-3.186-1.693
	c-0.173-0.35,0.238-0.893,1.233-1.63c1.478-1.129,3.431-1.433,5.858-0.91c1.782,0.346,2.823,0.41,3.127,0.195
	c0.303-0.218,0.325-1.042,0.063-2.472c-0.346-1.996,0.132-3.363,1.433-4.1c1.648-0.914,2.775-1.175,3.382-0.784
	c0.564,0.392,0.847,1.585,0.847,3.582c0,1.476,0.13,2.472,0.391,2.99c0.303,0.565,0.803,0.826,1.498,0.783
	C141.688,154.244,143.424,154.698,145.247,155.651z M153.381,154.286c0-1.475,0.306-2.669,0.915-3.583
	c0.607-0.91,2.017-2.298,4.229-4.164c2.127-1.779,4.6-2.711,7.419-2.799c2.864-0.085,3.973,0.741,3.323,2.476
	c-0.177,0.434-0.177,0.758,0,0.973c0.127,0.262,0.365,0.348,0.715,0.259c0.345-0.042,0.67,0.111,0.973,0.461
	c0.262,0.389,0.393,0.885,0.393,1.493c0,0.61-0.196,1.174-0.588,1.693c-0.388,0.521-0.843,0.825-1.365,0.91
	c-0.564,0.13-1.02,0.088-1.365-0.127c-0.35-0.262-0.523-0.653-0.523-1.175c0-1.255-0.542-1.927-1.625-2.016
	c-1.13-0.084-2.626,0.436-4.493,1.562c-1.604,0.998-2.689,2.105-3.254,3.323c-0.607,1.213-1.323,3.838-2.147,7.874
	c-0.216,1.128,0.435,1.996,1.951,2.604c1.563,0.606,3.756,0.823,6.578,0.65c2.039-0.088,3.317,0.193,3.837,0.847
	c0.521,0.649,0.305,1.733-0.651,3.255c-0.477,0.779-2.255,1.191-5.334,1.237c-3.038,0-4.797-0.391-5.275-1.174
	c-0.173-0.261-0.412-0.413-0.715-0.455c-0.303-0.088-0.563-0.044-0.777,0.132c-0.263,0.173-0.695,0.021-1.303-0.455
	c-0.609-0.435-1.219-1.042-1.825-1.825c-0.953-1.302-1.473-2.277-1.561-2.927c-0.089-0.61,0.215-1.608,0.909-2.995
	c0.435-0.868,0.803-1.888,1.106-3.06C153.229,156.11,153.381,155.112,153.381,154.286z M230.836,134.305
	c0.564,2.169,0.195,3.146-1.106,2.927c-1.259-0.215-2.213-1.408-2.862-3.577c-0.522-1.779,0.171-3.449,2.08-5.012
	c1.912-1.563,3.801-2.018,5.666-1.365c0.78,0.257,1.561,0.691,2.34,1.301c0.783,0.607,1.348,1.213,1.693,1.821
	c0.694,1.475,1.259,2.387,1.693,2.735c0.434,0.477,0.694,2.017,0.782,4.62c0.043,2.561-0.153,4.015-0.586,4.36
	c-0.565,0.392-1.629,2.279-3.191,5.662c-0.606,1.345-1.626,3.06-3.059,5.144c-1.433,2.039-2.842,3.817-4.228,5.334
	c-2.735,2.995-4.276,4.84-4.626,5.535c-0.345,0.695,0.306,0.564,1.953-0.392c1.52-0.779,2.476-0.976,2.862-0.587
	c0.177,0.173,0.241,0.348,0.196,0.523c-0.085,0.131-0.258,0.217-0.519,0.259c-0.564,0.086,0.541,0.584,3.317,1.498
	c1.217,0.389,2.237,0.865,3.06,1.429c0.867,0.61,1.302,1.132,1.302,1.566c0,0.995-0.716,1.623-2.148,1.885
	c-1.429,0.219-2.557-0.086-3.382-0.911c-0.607-0.649-2.56-1.062-5.857-1.238c-3.342-0.215-5.446-0.04-6.313,0.523
	c-0.304,0.174-0.607,0.107-0.91-0.195c-0.307-0.303-0.547-0.759-0.72-1.365c-0.215-0.825,0.046-1.803,0.783-2.932
	s2.082-2.669,4.032-4.619c3.299-3.257,6.098-6.511,8.398-9.764c2.257-3.255,3.387-5.642,3.387-7.16c0-0.606,0.107-1.171,0.321-1.693
	c0.174-0.522,0.391-0.826,0.651-0.91c0.262-0.088,0.437-0.522,0.524-1.302c0.085-0.825,0.041-1.736-0.132-2.735
	c-0.174-1.475-0.477-2.45-0.911-2.926c-0.434-0.479-1.215-0.72-2.344-0.72c-1.083,0-1.755,0.153-2.017,0.46
	C230.664,132.788,230.62,133.394,230.836,134.305z M210.986,160.207c-1.302,0.607-3.58,0.868-6.836,0.783
	c-4.513-0.088-7.571,0.15-9.177,0.715c-0.695,0.219-1.28,0.327-1.757,0.327c-0.477-0.045-0.714-0.196-0.714-0.454
	c0-0.48-0.218-1.629-0.651-3.45c-0.307-1.26-0.113-1.976,0.582-2.148c0.737-0.173,3.471-0.151,8.202,0.063
	c2.646,0.173,5.011,0.411,7.097,0.715c2.038,0.304,3.21,0.608,3.513,0.915C212.329,158.799,212.243,159.644,210.986,160.207z
	 M179.871,131.505c-1.041-1.129-1.995-1.693-2.862-1.693c-0.304,0-0.5,0.065-0.588,0.195c-0.084,0.173-0.04,0.348,0.133,0.524
	c0.476,0.519,0.304,1.278-0.52,2.275c-0.867,0.999-1.758,1.498-2.672,1.498c-1.171,0-1.647-0.978-1.429-2.931
	c0.216-1.994,0.974-3.62,2.275-4.879c1.521-1.476,2.584-2.169,3.19-2.085c0.565,0.045,1.932,1.001,4.102,2.868
	c2.039,1.735,3.254,3.817,3.646,6.244c0.387,2.431-0.177,4.493-1.693,6.186c-1.13,1.259-1.715,2.213-1.758,2.863
	c-0.045,0.653,0.475,0.739,1.562,0.259c0.477-0.173,0.866-0.215,1.169-0.127c0.305,0.085,0.456,0.279,0.456,0.583
	c0,0.304,0.217,0.565,0.651,0.783c0.479,0.216,1.021,0.323,1.629,0.323c0.867,0,1.432,0.175,1.693,0.523
	c0.261,0.389,0.327,1.061,0.195,2.017c-0.176,1.39-0.784,2.236-1.824,2.54c-1,0.346-2.321,0.15-3.97-0.587
	c-1.39-0.606-3.234-0.953-5.535-1.042c-0.953-0.042-1.884-0.215-2.794-0.519c-0.914-0.349-1.544-0.741-1.889-1.174
	c-0.522-0.65-0.653-1.236-0.393-1.758c0.305-0.561,1.128-1.364,2.473-2.408c0.912-0.737,1.846-1.647,2.798-2.731
	c0.957-1.128,1.631-2.106,2.021-2.931c0.691-1.344,1.018-2.298,0.975-2.863C180.914,132.894,180.566,132.243,179.871,131.505z
	 M277.636,150.772l-2.408,2.472c-0.694,0.737-1.217,1.497-1.565,2.279c-0.346,0.823-0.433,1.474-0.26,1.954
	c0.435,1.213,0.651,2.644,0.651,4.291c0,1.479,0.977,2.717,2.932,3.715c1.95,1.041,3.404,1.062,4.36,0.063
	c0.867-0.867,1.865-0.933,2.994-0.195c1.172,0.694,1.648,1.67,1.43,2.927c-0.173,1.217-1.083,2.193-2.73,2.931
	c-1.605,0.738-3.168,0.868-4.688,0.392c-2.213-0.737-4.209-1.649-5.99-2.735c-1.777-1.083-2.667-1.951-2.667-2.604
	c0-0.999-0.542-2.538-1.625-4.62c-1.129-2.258-1.586-3.863-1.37-4.815c0.176-0.998,1.349-2.778,3.519-5.34
	c2.213-2.691,4.358-4.361,6.439-5.011c2.086-0.653,3.845-0.219,5.276,1.301c0.737,0.826,1.148,1.584,1.232,2.276
	c0.131,0.696-0.021,1.586-0.454,2.673c-0.607,1.777-1.323,2.71-2.148,2.798c-0.779,0.086-1.452-0.695-2.017-2.344L277.636,150.772z
	 M251.992,131.441c0.215-0.392,0.323-0.825,0.323-1.301c0-0.737,0.109-1.106,0.327-1.106c0.173-0.045,0.607,0.213,1.302,0.778
	c0.477,0.434,0.822,0.954,1.037,1.562c0.219,0.652,0.219,1.217,0,1.693c-0.779,1.866-1.431,5.36-1.951,10.482
	c-0.131,1.214-0.065,2.038,0.195,2.472c0.261,0.391,0.825,0.586,1.693,0.586c1.214,0,2.776,0.78,4.688,2.339
	c1.866,1.563,3.297,3.277,4.291,5.144c0.653,1.213,0.979,3.036,0.979,5.467c-0.043,2.387-0.39,4.688-1.043,6.899
	c-0.52,1.605-2.168,2.756-4.947,3.45c-1.778,0.477-3.231,0.628-4.36,0.455c-1.129-0.172-2.734-0.779-4.816-1.82
	c-1.343-0.694-2.429-1.368-3.255-2.021c-0.824-0.649-1.149-1.082-0.973-1.302c0.215-0.215,0.215-0.561,0-1.037
	c-0.261-0.435-0.674-0.868-1.238-1.303c-0.911-0.694-1.388-1.172-1.434-1.433c-0.042-0.262,0.304-0.544,1.042-0.847
	c1.041-0.393,1.844-1.628,2.407-3.71c0.522-2.082,0.914-5.422,1.175-10.022c0.347-4.862,0.715-7.575,1.106-8.139
	c0.434-0.78,0.803-1.972,1.106-3.578c0.304-1.736,0.823-2.713,1.561-2.931C251.513,132.135,251.773,131.875,251.992,131.441z
	 M251.859,162.488c0.262,0.649,0.868,1.214,1.821,1.693l2.604,1.365c0.13,0.131,0.761-0.391,1.889-1.561
	c1.172-1.26,1.715-2.822,1.63-4.689c-0.088-1.865-0.783-3.471-2.085-4.814c-1.778-1.866-3.102-2.431-3.969-1.693
	c-0.914,0.737-1.608,2.993-2.085,6.769C251.491,160.904,251.557,161.881,251.859,162.488z M33.168,138.469
	c-0.307,0.262-0.633,1.151-0.979,2.667c-0.477,2.258-1.258,3.191-2.344,2.799c-0.998-0.434-1.691-0.651-2.08-0.651
	c-0.784,0-0.914-1.127-0.392-3.382c0.564-2.215,1.323-3.757,2.275-4.624c1.348-1.214,2.584-1.886,3.709-2.017
	c1.087-0.085,2.454,0.328,4.102,1.239c2.78,1.517,4.321,3.577,4.625,6.181c0.346,2.648-0.631,5.23-2.932,7.747l-2.407,2.604
	l2.931,1.169c1.43,0.564,2.34,1.455,2.731,2.672c0.434,1.256,0.021,1.907-1.237,1.953l-4.62,0.387
	c-2.255,0.177-3.794,0.112-4.62-0.191c-2.3-0.825-1.67-3.538,1.889-8.139c3.86-4.988,4.25-8.35,1.17-10.086
	C34.079,138.317,33.472,138.208,33.168,138.469z M16.049,153.831c-0.737,0.346-1.756,1.345-3.059,2.995
	c-1.866,2.255-2.843,4.076-2.931,5.467c-0.085,1.344,0.675,2.601,2.28,3.773c1.69,1.217,3.055,1.781,4.096,1.692
	c1.044-0.088,2.151-0.869,3.323-2.344c2.431-2.95,2.69-5.401,0.778-7.355c-0.564-0.564-0.823-0.998-0.778-1.302
	c0.043-0.346,0.367-0.715,0.974-1.106c0.606-0.388,0.803-0.713,0.587-0.974c-0.219-0.219-0.934-0.501-2.148-0.847
	C17.828,153.482,16.787,153.482,16.049,153.831z M26.724,157.478c0.172,2.385,0.52,5.16,1.042,8.328
	c0.345,2.128,0.453,3.56,0.323,4.297c-0.084,0.78-0.475,1.301-1.171,1.562c-0.479,0.22-0.978,0.22-1.497,0
	c-0.522-0.215-0.935-0.584-1.238-1.105c-0.434-0.826-0.911-1.238-1.43-1.238c-0.479,0-1.608,0.412-3.386,1.238
	c-2.301,1.128-3.841,1.693-4.62,1.693c-0.783,0-2.108-0.587-3.974-1.757c-3.729-2.389-5.248-5.753-4.556-10.091
	c0.653-4.34,3.235-7.746,7.747-10.219c2.692-1.518,5.425-1.473,8.202,0.131C24.901,151.877,26.419,154.264,26.724,157.478z
	 M93.764,134.173c0.606,1.259,0.823,3.386,0.651,6.381l-0.329,6.117l4.165-0.196c1.693-0.131,2.995,0.021,3.905,0.455
	c0.914,0.434,2.063,1.412,3.45,2.932c3.905,4.424,4.491,9.283,1.757,14.578c-1.171,2.255-2.755,3.815-4.752,4.685
	c-2.17,0.956-4.447,0.847-6.832-0.323c-1.909-0.998-3.255-1.888-4.038-2.668c-0.953-0.868-1.797-1.454-2.535-1.761
	c-0.653-0.216-1.021-1.019-1.106-2.408c-0.088-1.345,0.063-3.838,0.456-7.482l1.169-12.304c0.173-1.997,0.411-3.798,0.715-5.403
	c0.307-1.604,0.611-2.559,0.915-2.862C92.397,132.83,93.2,132.916,93.764,134.173z M99.357,150.64
	c-0.691-0.173-1.646-0.042-2.863,0.392c-1.433,0.563-2.321,1.345-2.667,2.344c-0.347,0.999-0.433,2.864-0.26,5.599
	c0.216,2.039,0.736,3.448,1.562,4.229c0.868,0.737,2.235,0.998,4.102,0.783c2.3-0.305,3.537-0.586,3.709-0.847
	c0.26-0.174,0.585-1.605,0.973-4.298c0.261-1.562,0.261-2.757,0-3.582c-0.257-0.867-0.909-1.799-1.952-2.794
	C100.877,151.422,100.01,150.813,99.357,150.64z M50.414,157.673l2.408-0.265c0.868-0.172,1.671-0.497,2.408-0.975
	c0.35-0.218,0.935-0.305,1.757-0.258c0.826,0.084,1.651,0.278,2.476,0.582c1.994,0.783,3.751,1.088,5.271,0.915
	c1.213-0.177,3.08,0.257,5.599,1.302c2.473,0.995,3.709,1.818,3.709,2.472c0,0.563-0.672,1.215-2.017,1.952
	c-1.39,0.695-2.257,0.867-2.604,0.519c-0.349-0.346-2.672-0.714-6.969-1.105c-3.514-0.262-6.355-0.564-8.525-0.911l-3.514-0.519
	c-0.391-0.045-0.715-0.241-0.973-0.587c-0.261-0.346-0.392-0.759-0.392-1.237c0-0.477,0.131-0.889,0.392-1.233
	C49.698,157.974,50.023,157.758,50.414,157.673z M49.245,152.006c0.172-1.041,0.801-1.692,1.883-1.953
	c1.129-0.258,4.059-0.431,8.79-0.519c5.379-0.042,9.068,0.195,11.065,0.715c2.039,0.564,3.059,1.648,3.059,3.254
	c0,0.783-0.63,1.282-1.89,1.498c-1.302,0.218-4.23,0.284-8.785,0.195c-6.942-0.084-11.13-0.258-12.562-0.519
	C49.588,154.417,49.068,153.526,49.245,152.006z"/>
</svg>
