<?xml version="1.0" encoding="utf-8"?>
<!-- Generator: Adobe Illustrator 16.0.0, SVG Export Plug-In . SVG Version: 6.00 Build 0)  -->
<!DOCTYPE svg PUBLIC "-//W3C//DTD SVG 1.1//EN" "http://www.w3.org/Graphics/SVG/1.1/DTD/svg11.dtd">
<svg version="1.1" id="Layer_1" xmlns="http://www.w3.org/2000/svg" xmlns:xlink="http://www.w3.org/1999/xlink" x="0px" y="0px"
	 width="300px" height="300px" viewBox="0 0 300 300" enable-background="new 0 0 300 300" xml:space="preserve">
<path fill-rule="evenodd" clip-rule="evenodd" fill="#3E5D8B" d="M33.342,166.807l-0.239-0.697
	c-3.856-10.117-8.694-12.01-14.516-5.679c-5.917,6.388-7.224,13.33-3.922,20.825c2.851,6.369,6.372,6.989,10.565,1.86
	C28.341,179.401,31.045,173.964,33.342,166.807z M41.483,161.317c0.681,0.828,0.881,1.9,0.601,3.217l-0.992,4.048
	c-1.948,10.332-0.229,16.374,5.153,18.124c3.449,1.163,5.924-1.149,7.425-6.939c1.069-3.812,1.479-7.763,1.231-11.853
	c-0.063-2.502,1.257-3.854,3.961-4.058c2.539-0.229,3.843,0.91,3.913,3.417c0.07,7.323-1.081,13.527-3.455,18.611
	c-3.124,6.979-8.026,9.802-14.707,8.465c-5.033-0.986-8.469-4.212-10.308-9.678c-2.895,4.282-6.083,7.339-9.563,9.172
	c-4.416,2.157-8.5,1.546-12.254-1.833c-3.258-2.843-5.415-6.829-6.471-11.958c-1.146-5.917-0.742-11.634,1.211-17.15
	c2.291-6.299,5.988-10.539,11.09-12.723c8.526-3.684,15.395-0.413,20.605,9.813C40.014,160.138,40.866,160.581,41.483,161.317z
	 M93.507,174.346l4.409-0.734c2.481-0.331,3.817,0.855,4.008,3.56c0.235,2.545-0.885,3.982-3.359,4.313l-4.572,0.831l-0.085,10.688
	c-0.096,2.475-1.413,3.827-3.951,4.057c-2.647,0.293-3.955-0.846-3.923-3.417l0.02-9.152c-2.043,0.337-3.382-0.636-4.019-2.92
	c-0.63-2.284,0.134-3.841,2.291-4.668l1.537-0.582l-0.601-6.833c-0.337-2.476,0.798-3.776,3.408-3.904
	c2.646-0.305,4.084,0.814,4.313,3.359L93.507,174.346z M147.125,201.642c3.271-2.825,3.477-7.206,0.62-13.143
	c-2.991-6.141-5.841-7.695-8.551-4.666c-2.106,2.22-3.624,6.323-4.553,12.312c0.776,0.77,1.025,1.81,0.745,3.12
	c-0.388,1.813-0.903,3.427-1.546,4.839C139.865,204.867,144.293,204.047,147.125,201.642z M148.537,176.932
	c2.316,2.037,4.295,4.651,5.937,7.846c4.237,8.729,4.263,15.868,0.076,21.417c-4.568,6.076-13.018,7.797-25.348,5.162
	c-2.31-0.483-3.299-1.899-2.968-4.247c-1.4-1.495-1.429-3.175-0.086-5.039l1.069-1.966l0.152-0.735
	c-0.49-0.534-0.729-1.23-0.715-2.09l0.906-47.776c0.102-2.475,1.473-3.859,4.114-4.151c2.608-0.128,3.865,1.043,3.77,3.512
	l-0.544,26.703c1.597-1.036,3.089-1.577,4.476-1.622C142.544,173.589,145.597,174.584,148.537,176.932z M158.615,142.965
	l-0.324-2.119c-0.884-0.28-2.52,0.144-4.905,1.269c-2.354,0.96-3.961,0.232-4.82-2.186c-0.764-2.488-0.015-4.18,2.243-5.077
	c3.519-1.565,6.706-2.001,9.562-1.307c3.418,0.903,5.383,3.171,5.899,6.804c0.604,4.428-0.475,8.882-3.236,13.361l4.687,1.003
	c2.5,0.362,3.471,1.858,2.911,4.485c-0.458,2.571-1.894,3.644-4.305,3.217c-5.294-0.954-9.299-2.326-12.016-4.113
	c-0.815-0.604-1.231-1.467-1.25-2.587c-0.084-1.228,0.209-2.197,0.878-2.91C156.714,149.878,158.271,146.599,158.615,142.965z
	 M247.432,192.098c-2.966,2.202-5.014,5.161-6.146,8.876c-1.624,5.58-0.069,9.178,4.658,10.794c3.282,1.132,7.866,1.205,13.752,0.22
	c2.412-0.426,3.764,0.681,4.056,3.321c0.235,2.538-0.853,4.027-3.265,4.467c-11.935,1.921-20.124,0.213-24.566-5.126
	c-3.606-4.46-4.194-10.171-1.765-17.131c2.285-5.873,6.019-10.278,11.206-13.219c5.84-3.226,10.755-2.09,14.744,3.408
	c1.615,2.062,1.326,3.804-0.868,5.229c-2.126,1.526-3.968,1.307-5.525-0.658C252.121,190.045,250.027,189.985,247.432,192.098z
	 M214.695,198.654c2.419-0.865,4.06-0.086,4.926,2.338c0.915,2.52,0.164,4.206-2.253,5.059c-8.176,2.902-14.988,4.416-20.434,4.543
	l-1.137-0.104c-2.137-0.459-3.143-1.792-3.015-3.999c-0.07-2.087,0.887-3.348,2.872-3.78l0.878,0.067
	C201.853,202.446,207.906,201.072,214.695,198.654z M212.93,186.409c0.917,2.519,0.22,4.177-2.09,4.972
	c-3.282,1.278-8.414,2.549-15.394,3.809c-0.827,0.256-1.485,0.331-1.977,0.229c-1.972-0.426-3.031-1.511-3.178-3.253
	c-0.3-2.221,0.378-3.583,2.033-4.086l1.394-0.477c3.239-0.687,5.665-1.203,7.282-1.546c2.882-0.593,5.265-1.289,7.148-2.091
	C210.472,183.177,212.065,183.991,212.93,186.409z M275.385,172.915c-0.623-0.307-1.81-0.389-3.559-0.249
	c-2.546,0.235-3.884-0.951-4.019-3.561c-0.293-2.646,0.831-4.084,3.368-4.313c3.666-0.249,6.711,0.399,9.135,1.946
	c2.653,1.68,3.99,4.285,4.008,7.815c0.184,3.564-1.068,7.209-3.761,10.938c4.079,1.038,7.159,1.521,9.238,1.452
	c2.507-0.064,3.875,1.177,4.105,3.723c0.133,2.601-1.054,3.935-3.561,3.998c-2.507,0.069-5.488-0.261-8.942-0.992
	c-1.972-0.427-4.916-1.143-8.827-2.147c-1.744-0.28-2.737-1.264-2.979-2.95c-0.345-1.622,0.168-3.021,1.536-4.199
	c3.131-2.59,4.919-5.516,5.364-8.78C276.702,174.178,276.334,173.282,275.385,172.915z M42.915,122.551
	c-0.242-1.26-1.441-1.689-3.598-1.289c-2.539,0.229-3.923-0.928-4.151-3.474c-0.14-2.595,1.03-4.062,3.512-4.399
	c3.9-0.548,7.024,0.333,9.373,2.643c2.341,2.304,3.14,5.396,2.396,9.277c-0.879,4.542-2.635,9.156-5.269,13.838l3.77-0.744
	c2.424-0.858,4.062-0.08,4.915,2.339c0.929,2.52,0.184,4.208-2.233,5.067c-3.709,1.272-8.43,1.425-14.163,0.458
	c-1.476-0.311-2.453-1.164-2.93-2.557c-0.312-1.356-0.083-2.638,0.688-3.847c3.219-4.212,5.45-8.421,6.69-12.627
	C42.772,124.838,43.106,123.277,42.915,122.551z"/>
</svg>
