<?xml version="1.0" encoding="utf-8"?>
<!-- Generator: Adobe Illustrator 16.0.0, SVG Export Plug-In . SVG Version: 6.00 Build 0)  -->
<!DOCTYPE svg PUBLIC "-//W3C//DTD SVG 1.1//EN" "http://www.w3.org/Graphics/SVG/1.1/DTD/svg11.dtd">
<svg version="1.1" id="Layer_1" xmlns="http://www.w3.org/2000/svg" xmlns:xlink="http://www.w3.org/1999/xlink" x="0px" y="0px"
	 width="300px" height="300px" viewBox="0 0 300 300" enable-background="new 0 0 300 300" xml:space="preserve">
<g>
	<path fill-rule="evenodd" clip-rule="evenodd" fill="#C74646" d="M105.729,125.702l-17.263,22.061l-10.304-8.053l17.295-22.093
		l6.446-8.232l17.506-22.357l10.293,8.042l-17.527,22.4L105.729,125.702z M93.322,102.631l-6.441,8.232l-16.497,21.068
		l-10.293-8.042l41.237-52.683l10.304,8.043L93.322,102.631z M186.49,102.732l-36.01-30.954l7.778-9.194l74.738,64.138l-7.915,9.184
		l-28.65-24.629L186.49,102.732z M211.041,211.141l6.404-8.18l18.647-23.821l10.336,8.042l-41.28,52.683l-10.304-8.043
		L211.041,211.141z M206.592,194.385l-6.42,8.2l-15.927,20.35l-10.305-8.212l15.9-20.27l6.447-8.212l18.891-24.073l10.335,8.041
		L206.592,194.385z M111.114,192.73l9.986,8.587l32.339,27.809l-7.736,9.196l-74.738-64.139L78.87,165L111.114,192.73z
		 M275.374,75.72l-74.6-64.138l7.777-9.057l74.738,64L275.374,75.72z M260.832,92.512l-74.737-64.128l7.916-9.162l74.568,64.138
		L260.832,92.512z M181.719,33.194l74.738,64.138l-7.915,9.184L173.94,42.388L181.719,33.194z M171.69,47.334l74.738,64
		l-7.916,9.152l-74.602-64.127L171.69,47.334z M130.982,254.986l-74.569-64l7.747-9.162l74.738,64.137L130.982,254.986z
		 M52.007,195.795l74.6,64.138l-7.778,9.058l-74.727-64L52.007,195.795z M42.009,209.766l74.568,64.171l-7.778,9.025L34.093,218.96
		L42.009,209.766z M95.399,298.349L20.661,234.38l7.915-9.195l74.601,64.139L95.399,298.349z"/>
	<path fill-rule="evenodd" clip-rule="evenodd" fill="#625E53" d="M93.322,102.631l8.582,6.753l-6.446,8.232l-8.576-6.753
		L93.322,102.631z M112.176,117.47l4.391,3.456l24.179-28.17l32.013,27.461l13.731-17.484l9.94,8.544l-13.671,17.521l32.576,27.948
		l-22.741,26.579l3.693,2.916l-6.447,8.212l-4.047-3.187l-19.905,23.254l-33.021-28.273l-11.768,15.07l-9.986-8.587l11.788-15.018
		l-31.741-27.181l18.589-21.665l-4.021-3.166L112.176,117.47z M200.172,202.585l6.42-8.2l10.854,8.576l-6.404,8.18L200.172,202.585z
		"/>
</g>
</svg>
