<?xml version="1.0" encoding="utf-8"?>
<!-- Generator: Adobe Illustrator 16.0.0, SVG Export Plug-In . SVG Version: 6.00 Build 0)  -->
<!DOCTYPE svg PUBLIC "-//W3C//DTD SVG 1.1//EN" "http://www.w3.org/Graphics/SVG/1.1/DTD/svg11.dtd">
<svg version="1.1" id="Layer_1" xmlns="http://www.w3.org/2000/svg" xmlns:xlink="http://www.w3.org/1999/xlink" x="0px" y="0px"
	 width="300px" height="300px" viewBox="0 0 300 300" enable-background="new 0 0 300 300" xml:space="preserve">
<g>
	<path fill-rule="evenodd" clip-rule="evenodd" fill="#ED2224" d="M92.646,147.902l-0.896-0.126
		c-0.871-0.115-2.507,1.662-4.909,5.334c-0.104,0.829,0.892,1.798,2.989,2.911c4.007-0.23,6.073-0.803,6.199-1.715
		C94.288,150.1,93.16,147.965,92.646,147.902z M87.832,158.35l-1.542-1.038c-2.255-0.304-3.713,2.056-4.374,7.079l-1.652-0.204
		l1.432-10.918c5.359-9.503,8.8-14.155,10.321-13.956c4.458,0.587,7.29,7.205,8.496,19.855l-3.587,8.023
		c-0.965-0.126-1.468-0.75-1.51-1.872l0.331-2.549l1.054-1.558c-2.224-1.981-4.048-3.063-5.475-3.241
		C90.045,157.794,88.881,157.92,87.832,158.35z M137.015,146.896c-0.157,1.154-1.223,4.993-3.194,11.518
		c-0.084,0.597,0.083,1.464,0.503,2.596c-0.682,0.943-1.106,2.035-1.274,3.272l-0.535,4.139c-0.158,1.153,0.314,1.804,1.416,1.949
		l2.549,0.331c2.444,0.325,4.757,0.043,6.938-0.849l-0.347,2.563c-1.269,1.186-1.961,2.213-2.076,3.084l-0.834-0.11
		c0.21-1.657-0.535-2.596-2.234-2.816l-0.11,0.835c-0.556-0.074-0.797-0.389-0.724-0.945c-4.007,0.221-6.068,0.793-6.183,1.716
		c-0.923-0.115-1.406-0.74-1.448-1.873l0.566-4.217l-1.652-0.204l0.866-6.687c0.556-4.238,0.325-9.094-0.692-14.569l0.11-0.833
		L137.015,146.896z M157.17,149.54l6.701,0.881c7.572,2.811,11.003,6.954,10.29,12.429l-0.882,6.702
		c-0.147,1.102-0.791,1.579-1.935,1.433c-0.073,0.555,0.163,0.87,0.708,0.942c-0.683,1.028-1.064,1.842-1.147,2.439
		c-3.483,0.524-5.341,1.684-5.571,3.478c-2.884,0.514-4.385,1.186-4.499,2.013c-3.681-3.335-6.854-5.181-9.52-5.537l-1.762,0.629
		c0.146-1.102-0.43-5.443-1.731-13.027l0.331-2.486C148.709,155.209,151.715,151.91,157.17,149.54z M165.365,158.256l-2.264-1.967
		l-1.731-0.237l-0.331,2.486l-3.1-2.076c-4.143,1.321-6.461,3.849-6.954,7.583l-0.22,1.716c-0.608,4.646,2.38,7.871,8.969,9.676
		c6.743,0.325,10.482-2.297,11.217-7.868l-2.533-6.308l1.039-1.621c-0.966-0.126-1.464-0.75-1.494-1.872
		C167.406,157.694,166.54,157.856,165.365,158.256z M213.652,160.38c0.555,0.072,0.803,0.389,0.738,0.943
		c-3.462,3.472-8.474,11.334-15.041,23.584l-0.818-0.109c-0.345-5.938-1.199-10.312-2.564-13.122
		c-1.396,0.294-3.545,3.687-6.45,10.181l-1.667-0.206l0.11-0.833c-0.589-5.183-2.214-7.945-4.879-8.291l0.11-0.819
		c0.388-2.947,0.442-5.495,0.157-7.646c0.104-0.776-1.205-3.803-3.933-9.079l0.11-0.818c4.521,1.144,7.247,2.083,8.182,2.816
		c0.083-0.597,0.403-0.859,0.96-0.787l0.817,0.111l-1.368,4.106c-0.252,1.93-0.053,6.78,0.597,14.554l1.667,0.204
		c3.336-8.653,5.953-13.415,7.853-14.286c0.219,9.682,0.996,14.605,2.328,14.773c1.657,0.221,3.074-4.133,4.248-13.059l-0.599-1.762
		c1.814-0.661,2.775-1.405,2.88-2.234C210.962,159.724,213.148,160.316,213.652,160.38z M236.748,165.933l-0.661,5.035l-1.667-0.22
		c0.116-0.871-0.289-2.066-1.212-3.587c-0.965-0.137-2.444,0.23-4.437,1.101c0.126-0.924-0.351-1.547-1.433-1.872l-0.833-0.111
		c-1.814,0.65-2.774,1.391-2.879,2.22l-0.441,3.304c-0.147,1.112,3.104,2.406,9.755,3.886c-1.291,1.196-1.992,2.229-2.108,3.101
		l-0.818-0.11c0.295-2.203-0.415-3.42-2.122-3.65c-1.061-0.137-3.09,0.162-6.091,0.896c-0.042,5.653,0.72,8.585,2.282,8.795
		l5.159-0.173c1.104,0.146,1.586,0.771,1.448,1.873c-1.698-0.231-2.663,0.508-2.894,2.218l-2.251-2.045l-2.722,1.399l-1.62-1.069
		l-0.11,0.834l-0.834-0.096c-1.878-11.715-2.527-19.761-1.951-24.134c0.209-1.657,0.892-2.412,2.045-2.266l3.305,0.439
		C232.594,162.865,236.957,164.275,236.748,165.933z M246.156,172.289l-0.551,4.154c2.527,0.335,4.17,0.854,4.926,1.558l0.108-0.897
		c3.295,1.039,4.867,2.108,4.722,3.211c-1.153-0.147-1.805,0.329-1.952,1.432c-1.101-0.147-1.541-1.05-1.321-2.706l-1.667-0.222
		c-2.989-0.389-5.093,0.462-6.31,2.549l0.63,1.763l-0.835-0.109l0.599,1.84c-0.283,2.203,2.36,3.671,7.93,4.406
		c-1.289,1.237-1.993,2.291-2.109,3.161l-2.266-1.982c-0.963-0.126-1.614,0.352-1.95,1.432c-0.556-0.072-0.796-0.382-0.723-0.927
		c-0.599-0.085-1.464,0.078-2.598,0.486c-0.775-0.104-1.39-4.158-1.839-12.161l1.054-1.558c-0.998-1.668-1.459-4.584-1.386-8.748
		c0.295-2.202,1.605-3.436,3.933-3.697l1.543,1.054l0.111-0.833l13.169,3.414l-0.771,5.868l-0.818-0.109
		c-1.103-0.147-1.543-1.07-1.322-2.77l-5.161,0.235c-1.027-0.744-1.84-1.153-2.438-1.227
		C247.205,170.685,246.304,171.146,246.156,172.289z M106.917,142.947l0.11-0.819l0.834,0.11l8.244,1.92
		c-0.965-0.138-2.743,7.001-5.333,21.413l4.012,1.433l0.897,0.125l5.931-0.142l-0.126,0.896l-1.369,4.027l-0.833-0.109
		c0.209-1.646-0.509-2.575-2.156-2.785c-3.272-0.43-6.188,0.021-8.748,1.353c0.44-3.355-0.167-5.139-1.825-5.349l0.424-3.305
		C107.609,156.924,107.588,150.667,106.917,142.947z M68.842,127.717l7.583,0.991l1.526,1.117l0.126-0.897
		c1.542,1.081,2.255,2.034,2.14,2.863l-0.661,5.035c-0.356,2.769-1.175,6.928-2.455,12.477l-0.834-0.11l-6.309,15.324l0.834,0.11
		c-0.682,0.892-1.106,1.982-1.274,3.272l-1.652-0.22c0.65-4.93,0.52-10.357-0.394-16.284c-0.965-0.126-1.61,0.357-1.935,1.447
		l-2.265-1.998l-1.668-0.22c-1.427-0.189-2.423,0.827-2.989,3.052l-0.834-0.109c0.293-2.256-0.388-3.493-2.045-3.714l-0.819-0.109
		c-1.153-0.146-1.877,0.907-2.171,3.162c-2.979,5.643-4.594,9.408-4.846,11.296l-1.542-1.102
		c1.018-20.977,1.023-34.036,0.016-39.176c0.598,0.073,1.458-0.094,2.581-0.503c7.038,1.678,10.882,2.742,11.532,3.194
		l-5.869,12.005l0.897,0.125l-1.117,1.604l-0.221,1.653c0.65,1.771,1.39,2.71,2.218,2.816l5.869,0.771l5.758,1.604
		c0.074-0.555,0.388-0.797,0.944-0.723c0.86-6.535,0.776-12.487-0.251-17.857L68.842,127.717z M284.94,168.813l9.188,1.21
		c1.144,0.146,1.642,0.798,1.494,1.952c-3.01,2.548-7.022,11.386-12.035,26.511l-1.653-0.222l0.095-0.833
		c0.262-1.93-1.752-3.902-6.041-5.916c-1.824-7.027-3.063-10.583-3.712-10.667l-2.487-0.314c-1.805,9.492-2.805,15.021-3.004,16.582
		l-0.111,0.834l-1.73-0.235c0.073-0.599-0.099-1.464-0.52-2.597c0.692-0.891,1.122-1.982,1.291-3.272l0.203-1.651l-0.833-0.11
		l-2.69,1.338l0.313-2.486c0.464-3.492,0.741-7.714,0.836-12.666l1.368-4.106c-0.87-1.939-1.205-3.671-1.008-5.191l0.126-0.896
		l4.249-0.284c3.933,1.07,6.131,1.637,6.592,1.7c3.188,12.828,5.434,19.65,6.734,20.469l1.746-0.598
		c0.167-1.249,0.037-2.392-0.394-3.431l1.494-4.924L284.94,168.813z M155.532,135.709l0.11-0.818l1.055-1.637l-0.834-0.094
		c0.114-0.87,2.218-1.726,6.31-2.565c-0.074,0.556,0.717,0.944,2.374,1.165l-0.975,7.521c-0.555-0.074-1.421,0.095-2.596,0.503
		C157.231,137.991,155.418,136.632,155.532,135.709z M155.046,133.05c-0.683,0.934-1.107,2.024-1.275,3.273l-3.382-0.441
		c0.083-0.598-0.084-1.463-0.504-2.596c0.556,0.074,0.907-0.467,1.054-1.621C153.005,131.928,154.373,132.39,155.046,133.05z
		 M144.787,126.647c3.22,1.542,4.757,2.869,4.61,3.981l-0.551,4.2c-0.146,1.112-0.775,1.595-1.887,1.447l-3.383-0.44l-0.267-4.327
		l0.44-3.319L144.787,126.647z"/>
	<path fill-rule="evenodd" clip-rule="evenodd" fill="#2D102D" d="M28.313,112.22l-1.731-0.221l-2.423,5.648l-0.991,7.521
		l1.652,0.221c1.94-5.791,3.031-9.629,3.272-11.517L28.313,112.22z M18.731,113.494l0.22-1.667c-2.024-0.262-4.421,2.842-7.19,9.314
		l1.731,0.235C15.547,117.527,17.294,114.9,18.731,113.494z M36.777,99.711l1.652,0.221l-1.385,4.027l-0.44,3.383l5.365-1.904
		l1.558,1.133c-1.101,2.653-2.113,3.923-3.037,3.807l-3.383-0.44c-1.102-0.146-1.505-1.326-1.211-3.54l-2.564-0.33l-0.11,0.834
		l3.556,5.585c4.647,0.609,7.521-1.872,8.622-7.442c-0.556-0.063-0.797-0.372-0.724-0.928l-1.762,0.614l-0.834-0.11
		c-2.076-1.625-3.057-2.879-2.942-3.76l0.11-0.818l0.834,0.11l7.867,5.239c-0.074,0.546-0.384,0.782-0.929,0.708l0.598,1.842
		l-0.819-0.111c-1.929,4.29-4.756,6.194-8.48,5.712l-4.138-0.551c-2.329-2.602-3.86-3.95-4.594-4.043L36.777,99.711z
		 M60.235,115.555l0.834,0.111l0.11-0.834c-3.115-5.549-6.419-8.554-9.912-9.016l-0.221,1.731
		C52.379,107.725,55.442,110.395,60.235,115.555z M78.156,108.506l-0.11,0.834c-7.227-0.954-11.962,2.68-14.208,10.903l-1.558-1.039
		l-4.138-0.535c-7.646,2.968-12.088,4.373-13.326,4.217l0.063,5.962c-0.598-0.083-1.484,0.079-2.659,0.488
		c-5.716-3.545-9.152-5.396-10.305-5.554c-3.356-0.44-5.827,0.922-7.411,4.091l-4.028-1.385l-3.382-0.44
		c-3.913-0.514-7.263,1.322-10.054,5.507c-1.563-0.21-2.328-3.142-2.297-8.795l0.457-3.383c2.643-9.87,7.762-14.308,15.356-13.311
		l1.715,0.22l4.861,1.495c2.937,4.363,6.042,6.76,9.314,7.19l0.818,0.11c4.101,0.534,8.071-1.495,11.91-6.089l-0.613-1.762
		l0.331-2.565c0.66-5.014,5.281-7.804,13.861-8.37C70.767,99.465,75.901,103.535,78.156,108.506z M61.982,102.166
		c-3,0.178-4.709,0.236-5.129,0.173c-0.105,0.734,4.211,2.423,12.949,5.066l0.11-0.818
		C70.111,105.066,67.468,103.593,61.982,102.166z M250.436,139.643l0.111-0.896c0.221-1.657,0.88-2.413,1.982-2.266l-1.26,3.272
		L250.436,139.643z M258.839,133.869c-0.673,0.944-1.092,2.035-1.26,3.272l-1.667-0.22l2.106-3.162L258.839,133.869z
		 M255.974,130.125c-0.965-0.126-1.467-0.75-1.51-1.873c0.599,0.073,1.479-0.094,2.644-0.503
		C256.426,128.734,256.048,129.526,255.974,130.125z M231.006,131.98c-0.796,2.879-1.126,5.386-0.992,7.521l-0.817-0.11
		c-0.262-1.618,0.067-4.125,0.99-7.521L231.006,131.98z M231.871,127.78h1.306c-1.128,2.035-1.642,3.199-1.542,3.493h-1.148
		L231.871,127.78z M242.82,113.101l-0.108,0.818c-5.633,5.496-8.76,9.912-9.378,13.248l-0.833-0.11l0.108-0.834
		C237.571,117.233,240.975,112.86,242.82,113.101z M244.33,114.988l0.82,0.111c5.013,0.649,7.263,2.931,6.749,6.844l-0.425,3.304
		c-1.3,9.943-5.611,16.776-12.932,20.5l-7.081-4.358l1.101-8.354C237.556,120.626,241.479,114.611,244.33,114.988z M245.369,113.446
		l0.128-0.896l1.667,0.205c1.636,1.385,2.958,2.14,3.964,2.266l-0.11,0.834l-0.896-0.11
		C248.475,114.401,246.891,113.635,245.369,113.446z M266.233,122.981l-0.206,1.652c7.469,3.692,11.014,6.986,10.636,9.881
		c-1.657-0.21-2.559,0.235-2.706,1.337l-0.771,5.868c-0.167,1.291,1.101,2.323,3.809,3.101c-3.692,5.737-8.004,8.281-12.935,7.63
		l-9.911-2.124l-1.746,0.597l0.535-4.138c2.758,0.367,4.21-0.025,4.357-1.18c5.161-0.451,7.961-2.354,8.402-5.711
		c0.124-0.923-0.353-1.547-1.433-1.873c0.074-0.544,0.388-0.781,0.944-0.708c1.027-7.825-0.136-11.957-3.493-12.397
		c1.08-1.552,2.035-2.271,2.863-2.155L266.233,122.981z"/>
	<path fill-rule="evenodd" clip-rule="evenodd" fill="#FFFFFF" d="M20.257,128.142c1.521,0.199,3.121,0.996,4.799,2.391
		c1.479-3.787,3.692-5.486,6.639-5.098c0.786,0.104,4.5,1.993,11.139,5.664c0.073-0.545,0.409-0.777,1.007-0.692l1.651,0.221
		l0.283,4.311l-0.661,5.05c-0.083,0.629-0.325,1.054-0.724,1.274c-0.808,0.052-1.61,0.084-2.407,0.095
		c-6.387,0.074-11.91-2.062-16.567-6.404C23.608,133.129,21.888,130.858,20.257,128.142z M54.65,96.187l-0.425-0.156l-7.662,6.639
		l-1.557-1.039l1.038-1.558l-0.126-3.65c-0.346-1.028-0.912-1.594-1.699-1.7c-3.755,3.336-9.356,4.867-16.803,4.594
		c-0.189,1.385,0.682,3.488,2.611,6.31l-1.054,1.542c-2.434-1.437-4.867-2.313-7.3-2.627c0.035-0.267,0.079-0.529,0.133-0.787
		c0.089-0.23,0.182-0.462,0.275-0.692c0.797-1.856,1.878-3.529,3.241-5.019l0.142-0.126c2.853-1.898,5.926-3.356,9.22-4.373
		c2.937-0.871,5.953-1.369,9.046-1.495l1.558,1.054l0.11-0.834C48.482,92.566,51.566,93.873,54.65,96.187z M164.264,101.898
		c-0.975-0.671-2.065-1.102-3.271-1.29c0.114-0.157,0.23-0.314,0.345-0.472c0.621-0.934,1.46-1.49,2.519-1.668L164.264,101.898z
		 M61.069,128.44l0.44-3.367c-1.951-0.818-4.971-1.495-9.063-2.03c0.105-0.786,1.631-1.736,4.579-2.847l2.549,0.331l5.758,1.668
		c-0.368,2.811-2.528,6.917-6.482,12.319l-0.205-0.425l0.126-0.896C60.104,131.545,60.87,129.961,61.069,128.44z M161.937,158.664
		l3.099,2.155c0.074-0.598,0.384-0.859,0.929-0.786l0.834,0.109c-0.326,2.529,0.546,4.632,2.612,6.31
		c-0.734,5.612-3.888,8.056-9.457,7.332c-5.421-2.171-7.972-4.5-7.646-6.986c0.473-3.639,1.69-6.329,3.649-8.07l5.759,1.667
		L161.937,158.664z M163.242,148.658l-5.035-0.66c-4.511-0.598-8.417,3.147-11.722,11.234l-0.22,1.668
		c-0.179,1.373,0.572,6.57,2.249,15.591c1.239,0.157,2.376,0.021,3.415-0.408c4.3,1.834,6.345,3.533,6.136,5.097
		c1.7,0.221,2.586,0.053,2.659-0.503c2.77,0.366,5.501-0.98,8.197-4.043l1.541,1.053l2.991-2.988l-0.615-1.825
		c1.113,0.146,1.925-1.736,2.438-5.649l0.661-4.972C176.704,156.356,172.473,151.826,163.242,148.658z M237.802,171.204l0.771-5.853
		c0.24-1.889-4.074-3.604-12.949-5.146l-4.31,0.268c0.074-0.545-0.168-0.854-0.725-0.929l-0.11,0.818
		c-0.555-0.073-0.797-0.382-0.724-0.929l-3.618,1.275c0.23-1.7-3.29-3.025-10.557-3.981c-0.294,2.256-1.27,3.274-2.929,3.053
		l0.285,4.248l-1.826,7.489l-0.817-0.11c-0.021-8.517-0.882-12.891-2.58-13.121c-3.859,3.429-6.121,7.672-6.782,12.728l-0.834-0.109
		c-0.396-5.519-0.544-8.67-0.439-9.456l1.479-4.924c0.157-1.239-3.366-2.544-10.571-3.918l-1.764,0.613
		c-0.397,2.988-0.216,5.848,0.55,8.575c2.257,0.293,2.906,4.075,1.952,11.344l4.501,4.877c0.449,4.027,1.295,6.12,2.531,6.277
		c3.871-3.42,5.989-6.556,6.357-9.408l0.834,0.109c0.88,7.511,1.809,11.328,2.783,11.454l1.653,0.221
		c5.35-8.275,8.699-14.365,10.053-18.267l1.622,1.055c1.101,0.146,2.26-2.251,3.478-7.19l0.815,0.109
		c-0.124,7.374,0.525,11.155,1.952,11.344l-1.116,1.542c0.787,9.745,1.845,14.706,3.177,14.884l1.826-0.612
		c-0.063,0.555,0.184,0.87,0.74,0.942c1.101,0.147,1.719-0.335,1.854-1.446c0.6,0.073,1.391,0.456,2.377,1.148l0.833,0.11
		c2.005-2.024,3.557-2.969,4.658-2.832l0.203-1.652c0.138-0.966-1.153-1.978-3.868-3.037c-0.076,0.556-0.39,0.798-0.946,0.724
		l-4.139-0.534l0.771-5.869l4.249-0.299c-0.293,2.214,0.136,3.398,1.289,3.556l0.82,0.111c1.719-2.035,2.973-3.001,3.76-2.896
		l0.219-1.651c0.169-1.342-1.399-2.418-4.704-3.226l-4.972-0.646l0.551-4.2l0.819,0.11l2.267,2.029l0.831,0.11
		c1.155,0.157,1.805-0.336,1.952-1.479l3.698,3.919C236.732,172.757,237.654,172.315,237.802,171.204z M220.716,119.536
		l-1.559-1.054c0.126-0.965,0.752-1.443,1.872-1.432C220.346,117.782,220.241,118.61,220.716,119.536z M226.632,126.286l-0.33,2.485
		l-1.37,4.091c-0.651,0.688-1.206,0.614-1.667-0.22l1.386-4.091c-2.813-0.367-4.107-1.379-3.886-3.037
		c-0.144-0.893-0.076-1.517,0.203-1.872c0.281-0.356,0.595-0.524,0.944-0.503c1.573,0.206,2.76,0.625,3.555,1.258
		C226.097,124.894,226.484,125.524,226.632,126.286z M228.425,121.18c0.172,0.343,0.31,0.712,0.408,1.109l-0.329,2.565l-0.818-0.11
		c-0.108-0.118-0.215-0.234-0.321-0.346c-1.704-1.766-2.991-2.684-3.863-2.753c-1.142-0.283-1.677-0.86-1.604-1.73
		c0.164-1.096,0.666-1.663,1.51-1.699C225.918,118.544,227.591,119.533,228.425,121.18z M225.263,114.737l2.092-0.299
		c0.419,0.297,0.775,0.583,1.07,0.858c0.79,0.733,1.147,1.386,1.069,1.958l-0.234,1.731c-0.281-0.233-0.559-0.448-0.835-0.646
		c-1.377-0.999-2.698-1.581-3.964-1.747C223.747,116.153,224.015,115.534,225.263,114.737z M230.659,114.862
		c-0.821-0.871-1.566-1.472-2.234-1.801c-0.303-0.147-0.594-0.239-0.865-0.275c-0.532-0.915-0.25-1.727,0.85-2.438l1.26-0.724
		c1.101,0.136,1.572,0.782,1.415,1.936L230.659,114.862z M165.507,137.864l0.441-3.382c4.689,0.608,10.2-0.356,16.536-2.895
		C182.106,134.482,176.448,136.575,165.507,137.864z M172.083,111.685l-0.376-0.236l-0.205-0.047
		c1.311-2.654,3.299-3.802,5.962-3.446c0.946,0.41,1.663,0.908,2.157,1.495c0.45,0.545,0.696,1.175,0.739,1.888
		c0.23,4.375-1.814,6.221-6.137,5.539l3.87-3.776c-1.479-0.094-2.847-0.551-4.107-1.369l0.584,2.597
		c-0.157,0.073-0.305,0.162-0.44,0.267c-0.451,0.294-0.676,0.719-0.676,1.275c-0.116-0.042-0.216-0.105-0.301-0.189
		c-0.984-0.849-1.568-2.003-1.746-3.461l0.819,0.11L172.083,111.685z M166.278,92.821c-0.146,1.101,0.335,1.719,1.447,1.856
		l0.818,0.11l0.11-0.818l-0.599-1.778L166.278,92.821z M163.006,91.53l-0.817-0.109c-0.923-0.115-1.547,0.372-1.873,1.463
		l0.818,0.11C162.234,93.13,162.858,92.642,163.006,91.53z M157.044,101.915c-0.777,0.167-1.291,0.64-1.543,1.416
		c0.671,2.035,2.078,3.277,4.216,3.728c1.248,0.273,2.46,0.278,3.635,0.016c3.242-0.671,3.777-2.062,1.606-4.17l1.996-2.359
		c0.621-0.76-0.04-2.816-1.98-6.167l0.047,1.652l-2.454-1.181c-1.773,0.713-3.059,1.978-3.855,3.792l0.833,0.11l-2.108,3.163
		C157.3,101.915,157.17,101.915,157.044,101.915z M140.727,105.612c-0.031,0.409-0.031,0.823,0,1.243
		c0.2,3.23,1.904,5.029,5.114,5.396c0.618,1.111,1.279,2.197,1.982,3.256c2.014,3.021,4.699,5.024,8.056,6.01
		c2.592,0.745,5.228,1.012,7.912,0.802c3.922-0.092,6.743-1.618,8.467-4.579c4.935,1.394,8.013,0.367,9.234-3.084
		c1.386-3.901,0.461-6.513-2.769-7.834c-1.174-0.367-1.878-0.52-2.108-0.457c-5.476,1.574-7.127,4.966-4.956,10.18
		c-1.375,1.636-3.078,2.753-5.113,3.351c-8.423,2.454-14.774-0.021-19.054-7.426l0.112-0.834c0.618,0.188,1.231,0.131,1.84-0.173
		c0.786-0.388,1.132-1.049,1.038-1.982l0.833,0.11c0.42-0.954,0.761-1.924,1.024-2.911c0.292-1.101-0.106-1.846-1.197-2.234
		c0.325-1.017,0.037-1.793-0.865-2.328C145.537,99.329,142.354,100.493,140.727,105.612z M134.544,107.389
		c-0.556-0.073-0.803-0.383-0.74-0.928c5.486-6.115,9.839-8.963,13.059-8.543c13.342-9.628,22.729-14.086,28.162-13.373l6.688,0.881
		c5.015,0.66,8.522,4.258,10.525,10.793c-0.785,2.759-1.799,4.054-3.038,3.886l-2.547-0.331c0.167-1.29,0.037-2.454-0.394-3.493
		l1.055-1.558c0.126-0.964-0.356-1.589-1.447-1.872l-0.222,1.652c-0.965-0.126-1.441-0.75-1.433-1.873l-4.545-0.598
		c3.828,1.07,5.978,5.03,6.451,11.879l-0.111,0.834l-1.558-1.055l-0.109,0.834c4.804,6.524,6.965,11.653,6.482,15.387l-0.11,0.818
		c-5.003,9.556-12.911,13.62-23.728,12.193l-2.217-2.815l-3.321-0.426c-1.697-0.23-4.037,0.305-7.017,1.605
		c-2.862-1.741-5.186-3.456-6.969-5.145l-1.731-0.22l-4.248,0.283c-6.167-5.161-8.948-10.064-8.339-14.711L134.544,107.389z
		 M99.427,128.346l-2.486-0.33c-3.136-0.409-4.909-2.066-5.318-4.972c0.184-0.752,0.557-1.036,1.117-0.849
		c2.402,1.541,4.778,2.464,7.127,2.769L99.427,128.346z M94.487,114.076l0.834,0.11c3.504,3.598,5.203,5.811,5.098,6.64l-0.44,3.32
		c-2.769-0.356-5.333-2.407-7.693-6.152l0.33-2.486C92.73,114.595,93.354,114.118,94.487,114.076z M263.149,172.777l-1.055,1.604
		c-0.242,6.157-0.655,11.485-1.244,15.985l-0.108,0.834c-0.157,1.154,0.87,1.872,3.084,2.156c-0.074,0.544-0.39,0.786-0.944,0.723
		c0.271,4.007,1.142,6.11,2.611,6.31c2.213,0.282,4.128-5.717,5.743-18l0.817,0.111c-0.577,4.373,0.944,7.966,4.563,10.776
		l-0.551,4.217c-1.103,8.328-10.138,12.246-27.109,11.753l-6.688-0.881l-37.964-9.188c-6.45,0.272-10.583,1.438-12.397,3.493
		l0.33-2.549c3.041-3.954,11.345-6.561,24.907-7.82l0.425-3.319c-0.6-0.083-1.417-0.472-2.454-1.164l-2.487-0.33
		c-28.877,0.756-45.638,0.828-50.284,0.22c-11.181-1.469-20.574-5.532-28.178-12.193c0.125-0.965,0.755-1.468,1.888-1.51l1.668,0.22
		c1.101,0.146,1.537,1.075,1.306,2.785l2.548,0.33c0.126-0.965,1.138-2.26,3.037-3.887l0.456-3.382l-0.613-1.762
		c-4.006,0.587-7.437,0.696-10.289,0.329l0.314-2.486l1.558-4.923c-0.461-1.134-0.65-1.998-0.567-2.597
		c0.179-1.332,1.506-4.856,3.981-10.572c-0.661-1.773-1.405-2.712-2.234-2.816l-4.971-0.661c0.23-1.7,1.043-3.583,2.438-5.648
		l-0.834-0.11c-2.937,3.461-5.219,5.711-6.844,6.749c-8.203-4.583-12.844-8.302-13.924-11.154l-5.9,0.063l-11.737-1.542
		c-0.964-0.126-1.594-0.535-1.888-1.227c-0.858-1.479-0.659-2.267,0.598-2.36l7.6,0.991c-0.881-2.182-1.165-4.489-0.85-6.922
		c0.199-1.521,0.997-3.126,2.392-4.814l-2.549-0.33c-2.58-1.784-3.671-4.196-3.272-7.238c0.166-1.759,0.833-2.52,1.998-2.281
		c5.947,2.098,8.674,5.008,8.181,8.732l-0.589,7.206c0.242-2.12,1.157-4.034,2.745-5.743l-0.771-5.554l0.11-0.834
		c1.647-2.224,3.226-3.419,4.736-3.587c0.048,0.006,0.096,0.014,0.142,0.023c0.524,0.005,0.973,0.31,1.345,0.913
		c0.372,0.603,0.558,1.335,0.558,2.195c-0.001,0.402-0.032,0.843-0.095,1.322c0.312,0.743,0.603,1.456,0.874,2.139
		c1.998,5.056,2.875,8.475,2.636,10.259l0.818,0.11l0.44-3.32c12.587,3.577,18.822,5.806,18.707,6.687
		c2.256,4.594,3.336,7.285,3.242,8.072l2.549,0.331c1.468,0.199,3.193-0.131,5.176-0.992c0.944,0.671,2.041,1.09,3.289,1.259
		l1.746-0.598c0.146,1.741,2.271,2.879,6.372,3.414l0.817,0.11c2.706-1.375,5.329-1.893,7.868-1.558
		c7.456-1.51,13.394-5.554,17.809-12.13c5.612-1.419,10.208-2.704,13.784-3.855c2.345-0.755,4.254-1.452,5.726-2.092l2.281,1.982
		c0.473-3.587,1.374-6.021,2.706-7.3l-0.345-4.327c-0.025-0.317-0.012-0.601,0.038-0.85c1.369-1.583,2.904-1.762,4.602-0.535
		c0.23,0.157,0.454,0.335,0.669,0.535c0.217,0.324,0.421,0.715,0.614,1.172c0.614,1.458,0.188,3.401-1.283,5.83
		c0.71,2.836,1.57,4.216,2.58,4.137l-0.88,6.687c-0.242,1.889,0.329,3.955,1.716,6.199l-0.111,0.896l-4.248,0.284
		c-1.018-0.126-2.35-0.887-3.995-2.281l-1.653-0.22l2.864,3.823c-5.549,4.94-10.375,7.138-14.475,6.593l-0.111,0.833l2.485,0.331
		l-1.053,1.604l0.818,0.11c6.564-3.304,10.918-6.146,13.059-8.527c7.751,4.427,12.293,6.729,13.624,6.907
		c4.879,11.401,9.477,17.386,13.799,17.951l-0.126,0.896l-1.967,2.267l-0.44,3.32c-0.335,3.943-0.043,5.973,0.882,6.088
		c-0.199,11.905,0.712,17.988,2.737,18.251l0.833,0.109l0.206-1.651c0.556,0.074,0.802,0.388,0.738,0.944
		c1.238,0.168,2.397,0.037,3.478-0.394l1.558,1.055l5.459-2.659l0.126-0.896c0.168-1.291-1.405-2.34-4.72-3.147l-4.216-0.551
		c0.335-2.527,0.282-4.242-0.159-5.145l2.77-1.322l2.485,0.33c-0.114,0.872,0.294,2.046,1.229,3.525
		c2.149-0.744,3.771-2.219,4.861-4.422c-0.809-2.401-4.021-3.969-9.645-4.704l0.329-2.484l3.273,1.273l4.265-0.283
		c-0.221,1.657,0.24,2.56,1.384,2.707l1.651,0.22c0.923,0.115,1.974-1.459,3.148-4.721c-0.547-0.063-0.783-0.372-0.71-0.928
		l0.222-1.652l1.715,0.22C262.587,170.596,262.719,171.739,263.149,172.777z"/>
	<path fill-rule="evenodd" clip-rule="evenodd" fill="#FED420" d="M220.104,130.549l0.219-1.73
		c1.104,5.489,6.071,10.99,14.899,16.503l-0.11,0.819C224.633,139.333,219.63,134.136,220.104,130.549z M259.782,133.161
		l-0.614-1.762c-2.38,1.08-3.628,2.061-3.745,2.942l-0.439,3.304l0.597,1.762c2.33-0.577,3.692-2.386,4.092-5.428L259.782,133.161z
		 M259.829,126.348l0.11-0.819c-2.99-0.398-5.092,0.473-6.31,2.613l-0.221,1.652l1.401,2.706
		C255.681,132.615,257.354,130.565,259.829,126.348z M260.994,123.973l-0.11,0.833c2.413,3.314,3.444,6.283,3.099,8.905
		l-0.439,3.383l-1.039,1.542c1.101,0.147,1.578,0.771,1.433,1.872l-0.11,0.896l-1.055,1.559c-7.552,1.614-11.407,2.816-11.564,3.603
		l-0.439,3.318l1.399,2.77c0.557,0.073,1.427-0.115,2.61-0.566l8.23,1.998l1.714,0.221c8.833-2.35,13.5-5.434,14.004-9.251
		c0.146-1.112-1.187-1.852-3.997-2.218l0.881-6.766l2.486,0.315c0.2-1.51-0.101-3.514-0.897-6.01
		c-6.765-4.721-10.063-7.726-9.895-9.015C264.313,120.962,262.211,121.833,260.994,123.973z M261.419,107.814
		c6.115,0.797,10.703,2.544,13.766,5.239c8.916,5.937,12.618,14.658,11.108,26.164c-1.417,10.772-7.105,19.389-17.07,25.85
		c-0.557-0.072-0.797-0.388-0.724-0.944l-4.249,0.3c-1.153-0.157-1.878,0.892-2.171,3.146l-7.428-1.808
		c-14.442-1.899-22.876-8.968-25.299-21.208l5.538,3.256c5.34,0.692,10.081-2.953,14.224-10.935l0.817,0.109
		c-0.366,2.812-0.104,5.119,0.787,6.923c1.239,0.167,2.491-2.786,3.761-8.858l-1.731-0.221l-2.705,1.322
		c1.657-4.039,2.727-7.872,3.209-11.501l0.425-3.32l-0.597-1.841l0.833,0.11c-1.427-5.286-3.886-8.16-7.379-8.622
		C249.827,107.998,254.789,106.943,261.419,107.814z"/>
	<path fill-rule="evenodd" clip-rule="evenodd" fill="#010101" d="M261.419,107.814c-6.63-0.871-11.592,0.184-14.885,3.162
		c3.493,0.461,5.952,3.335,7.379,8.622l-0.833-0.11l0.597,1.841l-0.425,3.32c-0.482,3.629-1.552,7.462-3.209,11.501l2.705-1.322
		l1.731,0.221c-1.27,6.072-2.521,9.025-3.761,8.858c-0.892-1.805-1.153-4.112-0.787-6.923l-0.817-0.109
		c-4.143,7.981-8.884,11.626-14.224,10.935l-5.538-3.256c2.423,12.241,10.856,19.309,25.299,21.208l7.428,1.808
		c0.293-2.254,1.018-3.303,2.171-3.146l4.249-0.3c-0.073,0.557,0.167,0.872,0.724,0.944c9.965-6.461,15.653-15.077,17.07-25.85
		c1.51-11.506-2.192-20.228-11.108-26.164C272.122,110.358,267.534,108.612,261.419,107.814z M266.233,122.981l-1.653-0.22
		c-0.828-0.115-1.783,0.603-2.863,2.155c3.357,0.44,4.521,4.573,3.493,12.397c-0.557-0.073-0.87,0.164-0.944,0.708
		c1.08,0.326,1.557,0.949,1.433,1.873c-0.441,3.357-3.241,5.26-8.402,5.711c-0.147,1.154-1.6,1.547-4.357,1.18l-0.535,4.138
		l1.746-0.597l9.911,2.124c4.931,0.65,9.242-1.893,12.935-7.63c-2.708-0.777-3.976-1.81-3.809-3.101l0.771-5.868
		c0.147-1.102,1.049-1.547,2.706-1.337c0.378-2.896-3.167-6.189-10.636-9.881L266.233,122.981z M260.994,123.973
		c1.217-2.14,3.318-3.011,6.31-2.612c-0.169,1.29,3.13,4.294,9.895,9.015c0.797,2.497,1.098,4.5,0.897,6.01l-2.486-0.315
		l-0.881,6.766c2.811,0.366,4.143,1.106,3.997,2.218c-0.504,3.817-5.171,6.902-14.004,9.251l-1.714-0.221l-8.23-1.998
		c-1.184,0.451-2.054,0.64-2.61,0.566l-1.399-2.77l0.439-3.318c0.157-0.787,4.013-1.989,11.564-3.603l1.055-1.559l0.11-0.896
		c0.146-1.101-0.332-1.725-1.433-1.872l1.039-1.542l0.439-3.383c0.346-2.622-0.686-5.59-3.099-8.905L260.994,123.973z
		 M259.829,126.348c-2.476,4.217-4.148,6.267-5.019,6.151l-1.401-2.706l0.221-1.652c1.218-2.14,3.319-3.011,6.31-2.613
		L259.829,126.348z M259.782,133.161l-0.11,0.818c-0.399,3.042-1.762,4.851-4.092,5.428l-0.597-1.762l0.439-3.304
		c0.117-0.881,1.365-1.862,3.745-2.942L259.782,133.161z M287.96,139.438c-1.279,9.714-6.676,18.373-16.188,25.976l0.833,0.094
		l0.11-0.833c3.629,0.482,6.215,6.791,7.758,18.927l0.833,0.11c0.063-0.504,0.634-2.701,1.716-6.592
		c0.093-5.035,0.219-8.15,0.376-9.346l1.762-0.613l7.538,0.991c3.303,0.808,4.865,1.877,4.687,3.209l-0.203,1.668
		c-2.025-0.272-5.979,8.286-11.864,25.677c-0.555-0.074-0.907,0.439-1.053,1.542l-3.383-0.441c0.283-2.212-0.666-3.739-2.849-4.578
		c-1.301,9.933-9.659,15.367-25.078,16.301l-9.252-1.213l-39.617-9.486c-5.013-0.661-8.904,0.817-11.673,4.438
		c-0.819-2.403-1.5-3.636-2.047-3.698c0.704-5.38,9.11-8.822,25.222-10.321l0.221-1.652l-5.035-0.66
		c-27.648,0.912-44.138,1.017-49.466,0.315c-11.14-1.459-21.036-6.147-29.688-14.066c-1.133,0.42-1.999,0.587-2.597,0.503
		c-0.409-4.027-1.279-6.13-2.611-6.309l0.236-1.73c1.899-14.496,0.892-22.001-3.021-22.515c-0.59-0.303-1.167-0.615-1.73-0.937
		c-3.883-2.229-7.166-4.969-9.849-8.22c-3.115,0.158-5.387,0.141-6.813-0.047c-0.556-0.074-0.797-0.388-0.723-0.945l-4.312,0.284
		l-5.806-0.755c-1.626-0.787-2.596-2.318-2.911-4.594c0.69-1.16,1.259-1.692,1.708-1.597c-0.744-0.373-1.858-1.928-3.344-4.665
		l0.11-0.819c0.294-1.101,0.923-1.589,1.889-1.463c-0.871-1.971-1.207-3.718-1.007-5.239l0.33-2.486
		c0.643-1.233,2.211-1.475,4.705-0.723c0.337-1.756,0.683-3.256,1.039-4.5c0.228-1.036,1.151-1.477,2.769-1.321l2.486,0.33
		l5.318,4.91c0.083-0.132,0.167-0.261,0.251-0.385c1.826-2.748,3.924-4.253,6.294-4.516l1.762,0.023
		c0.962,0.018,1.733,0.706,2.313,2.062l-0.424,3.32c-0.126,0.959-0.118,1.867,0.023,2.721c0.392,2.339,1.789,4.288,4.193,5.845
		c2.865,1.858,7.161,3.162,12.885,3.91l5.632,2.542l-0.094,0.716c0.408,1.174,0.577,2.04,0.503,2.596l0.818,0.11l0.44-3.32
		l-0.834-0.11l-3.037-2.926c-3.356-0.44-5.554-5.292-6.592-14.554c0.922-7.038,6.98-12.183,18.172-15.434
		c3.984-3.379,7.803-6.039,11.454-7.978c5.941-3.159,11.438-4.407,16.487-3.745c4.216,0.552,7.635,1.8,10.26,3.745
		c3.018,2.237,4.985,5.394,5.898,9.472c-0.512,3.913-2.728,5.611-6.639,5.098c-0.2,1.521,1.417,6.55,4.846,15.088l-0.551,4.201
		l-1.384,4.043c4.729-0.678,8.662-1.572,11.801-2.682c5.692-2.018,8.765-4.748,9.219-8.189l0.11-0.818l-0.394-3.431
		c0.273-0.178,0.55-0.341,0.833-0.487c2.948-1.5,5.282-0.998,7.001,1.51c0.553,1.205,1.082,2.962,1.59,5.271
		c1.23,0.16,3.931-2.316,8.103-7.426c0.201-0.245,0.406-0.497,0.614-0.755c1.101,0.147,1.982,0.625,2.644,1.431
		c2.354-1.162,6.453-0.711,12.303,1.354c4.311-3.965,10.746-5.386,19.306-4.264c12.785,1.678,20.856,9.54,24.214,23.584
		C288.092,134.079,288.243,137.235,287.96,139.438z M284.94,168.813l-0.489,10.194l-1.494,4.924
		c0.431,1.039,0.561,2.182,0.394,3.431l-1.746,0.598c-1.301-0.818-3.546-7.641-6.734-20.469c-0.461-0.063-2.659-0.63-6.592-1.7
		l-4.249,0.284l-0.126,0.896c-0.197,1.521,0.138,3.252,1.008,5.191l-1.368,4.106c-0.095,4.952-0.372,9.174-0.836,12.666
		l-0.313,2.486l2.69-1.338l0.833,0.11l-0.203,1.651c-0.169,1.29-0.599,2.382-1.291,3.272c0.421,1.133,0.593,1.998,0.52,2.597
		l1.73,0.235l0.111-0.834c0.199-1.562,1.199-7.09,3.004-16.582l2.487,0.314c0.649,0.084,1.888,3.64,3.712,10.667
		c4.289,2.014,6.303,3.986,6.041,5.916l-0.095,0.833l1.653,0.222c5.013-15.125,9.025-23.963,12.035-26.511
		c0.147-1.154-0.351-1.806-1.494-1.952L284.94,168.813z M261.041,169.127l-0.222,1.652c-0.073,0.556,0.163,0.865,0.71,0.928
		c-1.175,3.262-2.226,4.836-3.148,4.721l-1.651-0.22c-1.144-0.147-1.604-1.05-1.384-2.707l-4.265,0.283l-3.273-1.273l-0.329,2.484
		c5.623,0.735,8.836,2.303,9.645,4.704c-1.091,2.203-2.712,3.678-4.861,4.422c-0.935-1.479-1.343-2.653-1.229-3.525l-2.485-0.33
		l-2.77,1.322c0.441,0.902,0.494,2.617,0.159,5.145l4.216,0.551c3.314,0.808,4.888,1.856,4.72,3.147l-0.126,0.896l-5.459,2.659
		l-1.558-1.055c-1.08,0.431-2.239,0.562-3.478,0.394c0.063-0.557-0.183-0.87-0.738-0.944l-0.206,1.651l-0.833-0.109
		c-2.025-0.263-2.937-6.346-2.737-18.251c-0.925-0.115-1.217-2.145-0.882-6.088l0.44-3.32l1.967-2.267l0.126-0.896
		c-4.322-0.565-8.92-6.55-13.799-17.951c-1.331-0.179-5.873-2.48-13.624-6.907c-2.141,2.381-6.494,5.224-13.059,8.527l-0.818-0.11
		l1.053-1.604l-2.485-0.331l0.111-0.833c4.1,0.545,8.926-1.652,14.475-6.593l-2.864-3.823l1.653,0.22
		c1.646,1.395,2.978,2.155,3.995,2.281l4.248-0.284l0.111-0.896c-1.387-2.244-1.958-4.311-1.716-6.199l0.88-6.687
		c-1.01,0.079-1.87-1.301-2.58-4.137c1.472-2.429,1.897-4.372,1.283-5.83c-0.193-0.457-0.397-0.848-0.614-1.172
		c-0.215-0.2-0.438-0.377-0.669-0.535c-1.697-1.228-3.232-1.049-4.602,0.535c-0.05,0.249-0.063,0.533-0.038,0.85l0.345,4.327
		c-1.332,1.28-2.233,3.713-2.706,7.3l-2.281-1.982c-1.472,0.64-3.381,1.337-5.726,2.092c-3.576,1.151-8.172,2.436-13.784,3.855
		c-4.415,6.576-10.353,10.62-17.809,12.13c-2.539-0.335-5.162,0.183-7.868,1.558l-0.817-0.11c-4.102-0.535-6.227-1.673-6.372-3.414
		l-1.746,0.598c-1.248-0.168-2.345-0.587-3.289-1.259c-1.983,0.86-3.708,1.19-5.176,0.992l-2.549-0.331
		c0.094-0.787-0.986-3.478-3.242-8.072c0.112-0.85-5.694-2.956-17.416-6.317c-0.423-0.122-0.853-0.245-1.291-0.37l-0.44,3.32
		l-0.818-0.11c0.24-1.784-0.638-5.203-2.636-10.259c-0.271-0.683-0.562-1.396-0.874-2.139c0.063-0.479,0.094-0.92,0.095-1.322
		c0-0.86-0.186-1.592-0.558-2.195c-0.373-0.603-0.821-0.907-1.345-0.913c-0.046-0.009-0.094-0.018-0.142-0.023
		c-1.51,0.168-3.089,1.363-4.736,3.587l-0.11,0.834l0.771,5.554c-1.588,1.708-2.503,3.623-2.745,5.743l0.589-7.206
		c0.493-3.724-2.234-6.634-8.181-8.732c-1.166-0.239-1.832,0.522-1.998,2.281c-0.398,3.042,0.692,5.454,3.272,7.238l2.549,0.33
		c-1.395,1.688-2.192,3.293-2.392,4.814c-0.314,2.433-0.031,4.741,0.85,6.922l-7.6-0.991c-1.257,0.093-1.457,0.881-0.598,2.36
		c0.294,0.692,0.924,1.101,1.888,1.227l11.737,1.542l5.9-0.063c0.831,2.194,3.768,4.9,8.811,8.119
		c1.514,0.965,3.218,1.977,5.113,3.036c1.625-1.038,3.907-3.288,6.844-6.749l0.834,0.11c-1.396,2.066-2.208,3.949-2.438,5.648
		l4.971,0.661c0.829,0.104,1.573,1.043,2.234,2.816c-2.475,5.716-3.802,9.24-3.981,10.572c-0.083,0.599,0.105,1.463,0.567,2.597
		l-1.558,4.923l-0.314,2.486c2.853,0.367,6.283,0.258,10.289-0.329l0.613,1.762l-0.456,3.382c-1.899,1.627-2.911,2.922-3.037,3.887
		l-2.548-0.33c0.23-1.71-0.205-2.639-1.306-2.785l-1.668-0.22c-1.133,0.042-1.762,0.545-1.888,1.51
		c7.604,6.661,16.997,10.725,28.178,12.193c4.646,0.608,21.407,0.536,50.284-0.22l2.487,0.33c1.037,0.692,1.854,1.081,2.454,1.164
		l-0.425,3.319c-13.563,1.26-21.866,3.866-24.907,7.82l-0.33,2.549c1.814-2.056,5.947-3.221,12.397-3.493l37.964,9.188l6.688,0.881
		c16.972,0.493,26.007-3.425,27.109-11.753l0.551-4.217c-3.619-2.811-5.141-6.403-4.563-10.776l-0.817-0.111
		c-1.615,12.283-3.53,18.282-5.743,18c-1.47-0.199-2.34-2.303-2.611-6.31c0.555,0.063,0.87-0.179,0.944-0.723
		c-2.214-0.284-3.241-1.002-3.084-2.156l0.108-0.834c0.589-4.5,1.002-9.828,1.244-15.985l1.055-1.604
		c-0.431-1.038-0.563-2.182-0.394-3.431L261.041,169.127z M94.487,114.076c-1.133,0.042-1.756,0.519-1.872,1.432l-0.33,2.486
		c2.36,3.745,4.924,5.795,7.693,6.152l0.44-3.32c0.105-0.829-1.594-3.042-5.098-6.64L94.487,114.076z M63.712,95.511
		c7.458,0.976,13.012,6.272,16.662,15.891l-0.11,0.818l-4.091-1.369c-2.674-0.356-5.365,0.692-8.071,3.146l-0.771,5.868
		c-0.87,6.671-4.222,12.76-10.053,18.267l-1.369,4.09l1.542,1.055l5.869,0.771l4.106,1.368c0.598-10.688,0.162-16.126-1.306-16.315
		c0.839-2.172,2.665-3.073,5.476-2.707l5.035,0.661c0.556,0.073,0.802,0.383,0.739,0.929l1.747-0.599
		c2.15,1.112,3.167,2.108,3.052,2.99l-1.652,12.555c-0.252,1.941-2.843,8.696-7.772,20.266c-0.954,4.404-2.103,6.524-3.445,6.355
		l-2.486-0.331c0.22-1.657,0.058-2.522-0.488-2.595l1.055-1.621c-0.661-2.465-1.013-6.183-1.055-11.154l-1.84,0.597l-2.266-2.045
		l-4.657,2.832c-0.923-1.531-1.327-2.732-1.212-3.604l-1.651-0.219c-0.189,1.427-1.484,4.672-3.887,9.738
		c-0.388,2.989-1.746,4.804-4.075,5.443c-2.035-1.962-2.391-7.982-1.07-18.062c-1.102-0.136-1.395-2.161-0.881-6.073l-0.393,0.133
		c-6.272,0.75-11.994-0.584-17.165-4.004c-1.563-1.028-2.979-2.239-4.248-3.634c-1.621-1.949-3.079-4.288-4.374-7.017l-3.383-0.456
		c-1.584,0.262-4.699,2.434-9.345,6.513l-0.833-0.109c-1.511-6.042-2.13-10.101-1.857-12.178c1.228-9.292,5.984-15.203,14.27-17.731
		c-0.073,0.556,0.168,0.871,0.724,0.944c0.265-0.396,0.533-0.784,0.803-1.165c3.608-5.255,8.396-8.958,14.364-11.108
		c5.916-2.098,11.811-2.092,17.684,0.017c1.594,0.575,3.272,1.498,5.035,2.768l4.264-0.361L63.712,95.511z M61.982,102.166
		c5.486,1.427,8.129,2.9,7.93,4.421l-0.11,0.818c-8.738-2.644-13.054-4.332-12.949-5.066
		C57.272,102.402,58.982,102.344,61.982,102.166z M78.156,108.506c-2.255-4.972-7.389-9.042-15.403-12.209
		c-8.58,0.566-13.201,3.356-13.861,8.37l-0.331,2.565l0.613,1.762c-3.839,4.594-7.809,6.624-11.91,6.089l-0.818-0.11
		c-3.272-0.431-6.377-2.827-9.314-7.19l-4.861-1.495l-1.715-0.22c-7.594-0.997-12.713,3.44-15.356,13.311l-0.457,3.383
		c-0.031,5.653,0.735,8.584,2.297,8.795c2.791-4.185,6.141-6.021,10.054-5.507l3.382,0.44l4.028,1.385
		c1.584-3.168,4.054-4.531,7.411-4.091c1.153,0.157,4.589,2.008,10.305,5.554c1.175-0.409,2.062-0.571,2.659-0.488l-0.063-5.962
		c1.238,0.156,5.68-1.249,13.326-4.217l4.138,0.535l1.558,1.039c2.245-8.223,6.98-11.857,14.208-10.903L78.156,108.506z
		 M68.716,128.614c1.028,5.37,1.111,11.323,0.251,17.857c-0.556-0.074-0.871,0.168-0.944,0.723l-5.758-1.604l-5.869-0.771
		c-0.829-0.106-1.568-1.045-2.218-2.816l0.221-1.653l1.117-1.604l-0.897-0.125l5.869-12.005c-0.65-0.452-4.494-1.516-11.532-3.194
		c-1.123,0.409-1.982,0.576-2.581,0.503c1.007,5.14,1.001,18.199-0.016,39.176l1.542,1.102c0.252-1.888,1.867-5.653,4.846-11.296
		c0.293-2.255,1.018-3.309,2.171-3.162l0.819,0.109c1.657,0.221,2.338,1.458,2.045,3.714l0.834,0.109
		c0.566-2.225,1.563-3.241,2.989-3.052l1.668,0.22l2.265,1.998c0.325-1.09,0.97-1.573,1.935-1.447
		c0.913,5.927,1.044,11.354,0.394,16.284l1.652,0.22c0.168-1.29,0.593-2.381,1.274-3.272l-0.834-0.11l6.309-15.324l0.834,0.11
		c1.279-5.548,2.098-9.708,2.455-12.477l0.661-5.035c0.115-0.829-0.598-1.783-2.14-2.863l-0.126,0.897l-1.526-1.117l-7.583-0.991
		L68.716,128.614z M61.069,128.44c-0.199,1.521-0.965,3.105-2.297,4.752l-0.126,0.896l0.205,0.425
		c3.954-5.403,6.115-9.509,6.482-12.319l-5.758-1.668l-2.549-0.331c-2.947,1.111-4.474,2.062-4.579,2.847
		c4.091,0.536,7.112,1.212,9.063,2.03L61.069,128.44z M60.235,115.555c-4.793-5.16-7.856-7.83-9.188-8.008l0.221-1.731
		c3.493,0.462,6.796,3.467,9.912,9.016l-0.11,0.834L60.235,115.555z M99.427,128.346l0.44-3.382
		c-2.349-0.304-4.725-1.228-7.127-2.769c-0.56-0.187-0.933,0.096-1.117,0.849c0.409,2.906,2.182,4.563,5.318,4.972L99.427,128.346z
		 M104.478,141.798c1.983-0.87,3.729-1.206,5.239-1.006l1.668,0.22c2.433,0.315,4.594,1.159,6.482,2.533
		c-2.801,8.433-4.584,15.576-5.35,21.429c2.595,0.339,5.72,0.266,9.378-0.221c0.305-0.037,0.615-0.08,0.928-0.126l0.598,1.777
		l-0.551,4.202c-0.373,0.346-0.698,0.679-0.975,0.999c-0.704,0.807-1.098,1.522-1.181,2.147l-1.667-0.221
		c-0.776-0.095-1.489-1.049-2.14-2.863c-4.143,0.157-7.101,0.912-8.874,2.266c-0.976-4.667-1.783-7.043-2.423-7.128l-0.833-0.109
		l0.991-7.584c0.64-4.877,0.136-9.765-1.51-14.663c0.556,0.073,0.87-0.167,0.944-0.724
		C104.646,142.653,104.404,142.343,104.478,141.798z M133.144,111.496c-0.609,4.647,2.171,9.55,8.339,14.711l4.248-0.283l1.731,0.22
		c1.783,1.688,4.107,3.403,6.969,5.145c2.979-1.3,5.319-1.835,7.017-1.605l3.321,0.426l2.217,2.815
		c10.816,1.426,18.725-2.638,23.728-12.193l0.11-0.818c0.482-3.734-1.679-8.863-6.482-15.387l0.109-0.834l1.558,1.055l0.111-0.834
		c-0.474-6.85-2.623-10.809-6.451-11.879l4.545,0.598c-0.009,1.122,0.468,1.747,1.433,1.873l0.222-1.652
		c1.091,0.283,1.573,0.907,1.447,1.872l-1.055,1.558c0.431,1.039,0.561,2.203,0.394,3.493l2.547,0.331
		c1.239,0.167,2.253-1.127,3.038-3.886c-1.361-4.439-3.416-7.522-6.168-9.251c-1.297-0.816-2.749-1.33-4.357-1.542l-6.688-0.881
		c-2.555-0.335-5.981,0.473-10.28,2.423c-4.852,2.198-10.813,5.849-17.882,10.95c-3.22-0.419-7.573,2.428-13.059,8.543
		c-0.063,0.545,0.184,0.855,0.74,0.928L133.144,111.496z M140.727,105.612c1.626-5.119,4.81-6.283,9.551-3.493
		c0.902,0.535,1.19,1.311,0.865,2.328c1.091,0.389,1.489,1.133,1.197,2.234c-0.264,0.986-0.604,1.957-1.024,2.911l-0.833-0.11
		c0.094,0.934-0.252,1.594-1.038,1.982c-0.609,0.304-1.222,0.362-1.84,0.173l-0.112,0.834c4.279,7.405,10.631,9.88,19.054,7.426
		c2.035-0.598,3.738-1.715,5.113-3.351c-2.171-5.213-0.52-8.606,4.956-10.18c0.23-0.063,0.935,0.089,2.108,0.457
		c3.229,1.321,4.154,3.934,2.769,7.834c-1.222,3.451-4.3,4.478-9.234,3.084c-1.724,2.961-4.545,4.486-8.467,4.579
		c-2.685,0.209-5.32-0.058-7.912-0.802c-3.357-0.986-6.042-2.989-8.056-6.01c-0.703-1.059-1.364-2.145-1.982-3.256
		c-3.21-0.368-4.914-2.167-5.114-5.396C140.696,106.435,140.696,106.021,140.727,105.612z M157.044,101.915c0.126,0,0.256,0,0.392,0
		l2.108-3.163l-0.833-0.11c0.797-1.814,2.082-3.079,3.855-3.792l2.454,1.181l-0.047-1.652c1.94,3.352,2.602,5.407,1.98,6.167
		l-1.996,2.359c2.171,2.108,1.636,3.499-1.606,4.17c-1.175,0.262-2.387,0.257-3.635-0.016c-2.138-0.451-3.545-1.693-4.216-3.728
		C155.753,102.554,156.267,102.082,157.044,101.915z M106.917,142.947c0.671,7.72,0.692,13.977,0.063,18.769l-0.424,3.305
		c1.657,0.21,2.265,1.993,1.825,5.349c2.56-1.331,5.475-1.782,8.748-1.353c1.647,0.21,2.366,1.139,2.156,2.785l0.833,0.109
		l1.369-4.027l0.126-0.896l-5.931,0.142l-0.897-0.125l-4.012-1.433c2.59-14.411,4.368-21.55,5.333-21.413l-8.244-1.92l-0.834-0.11
		L106.917,142.947z M144.787,126.647l-1.038,1.542l-0.44,3.319l0.267,4.327l3.383,0.44c1.111,0.147,1.74-0.335,1.887-1.447
		l0.551-4.2C149.544,129.516,148.007,128.189,144.787,126.647z M150.938,131.666c-0.147,1.154-0.498,1.695-1.054,1.621
		c0.419,1.133,0.587,1.999,0.504,2.596l3.382,0.441c0.168-1.249,0.593-2.339,1.275-3.273
		C154.373,132.39,153.005,131.928,150.938,131.666z M155.643,134.892l-0.11,0.818c-0.114,0.923,1.699,2.281,5.444,4.075
		c1.175-0.409,2.041-0.577,2.596-0.503l0.975-7.521c-1.657-0.22-2.448-0.608-2.374-1.165c-4.092,0.839-6.195,1.695-6.31,2.565
		l0.834,0.094L155.643,134.892z M163.006,91.53c-0.147,1.112-0.771,1.6-1.872,1.463l-0.818-0.11c0.326-1.091,0.95-1.578,1.873-1.463
		L163.006,91.53z M166.278,92.821l1.777-0.63l0.599,1.778l-0.11,0.818l-0.818-0.11C166.613,94.54,166.133,93.922,166.278,92.821z
		 M160.992,100.608c1.206,0.188,2.297,0.619,3.271,1.29l-0.408-3.43c-1.059,0.179-1.897,0.734-2.519,1.668
		C161.223,100.294,161.106,100.451,160.992,100.608z M174.57,114.328l-0.584-2.597c1.261,0.818,2.629,1.275,4.107,1.369l-3.87,3.776
		c4.322,0.682,6.367-1.165,6.137-5.539c-0.043-0.712-0.289-1.342-0.739-1.888c-0.494-0.587-1.211-1.085-2.157-1.495
		c-2.663-0.356-4.651,0.792-5.962,3.446l0.205,0.047l0.376,0.236l0.144,0.645l-0.819-0.11c0.178,1.458,0.762,2.612,1.746,3.461
		c0.085,0.084,0.185,0.147,0.301,0.189c0-0.556,0.225-0.981,0.676-1.275C174.266,114.49,174.413,114.401,174.57,114.328z
		 M165.507,137.864c10.941-1.29,16.6-3.382,16.978-6.277c-6.336,2.539-11.847,3.503-16.536,2.895L165.507,137.864z M245.369,113.446
		c1.521,0.189,3.105,0.955,4.753,2.297l0.896,0.11l0.11-0.834c-1.006-0.126-2.328-0.881-3.964-2.266l-1.667-0.205L245.369,113.446z
		 M244.33,114.988c-2.851-0.377-6.774,5.638-11.768,18.046l-1.101,8.354l7.081,4.358c7.32-3.724,11.632-10.557,12.932-20.5
		l0.425-3.304c0.514-3.913-1.736-6.194-6.749-6.844L244.33,114.988z M242.82,113.101c-1.846-0.241-5.249,4.132-10.211,13.122
		l-0.108,0.834l0.833,0.11c0.618-3.336,3.745-7.752,9.378-13.248L242.82,113.101z M229.669,109.624l-1.26,0.724
		c-1.1,0.711-1.382,1.523-0.85,2.438c0.271,0.036,0.563,0.128,0.865,0.275c0.668,0.33,1.413,0.93,2.234,1.801l0.425-3.303
		C231.241,110.405,230.77,109.76,229.669,109.624z M225.263,114.737c-1.248,0.797-1.516,1.417-0.802,1.856
		c1.266,0.166,2.587,0.748,3.964,1.747c0.276,0.197,0.554,0.412,0.835,0.646l0.234-1.731c0.078-0.572-0.279-1.226-1.069-1.958
		c-0.295-0.275-0.651-0.561-1.07-0.858L225.263,114.737z M228.425,121.18c-0.834-1.647-2.507-2.635-5.019-2.966
		c-0.844,0.036-1.346,0.603-1.51,1.699c-0.072,0.871,0.463,1.448,1.604,1.73c0.872,0.07,2.159,0.988,3.863,2.753
		c0.106,0.112,0.213,0.229,0.321,0.346l0.818,0.11l0.329-2.565C228.734,121.892,228.597,121.522,228.425,121.18z M221.912,123.139
		c-0.35-0.021-0.663,0.147-0.944,0.503c-0.279,0.355-0.347,0.979-0.203,1.872c-0.222,1.657,1.073,2.669,3.886,3.037l-1.386,4.091
		c0.461,0.834,1.016,0.908,1.667,0.22l1.37-4.091l0.33-2.485c-0.147-0.762-0.535-1.392-1.165-1.889
		C224.672,123.764,223.485,123.344,221.912,123.139z M231.871,127.78l-1.385,3.493h1.148c-0.1-0.294,0.414-1.458,1.542-3.493
		H231.871z M229.242,127.732c-0.804,2.93-2.351,5.468-4.64,7.615c0.87,0.115,1.897,0.834,3.083,2.155
		c1.144-8.737,5.359-16.976,12.649-24.717c-2.195-1.467-4.704-1.798-7.521-0.991c-0.418,3.167-1.431,6.424-3.037,9.77
		C230.229,122.749,230.051,124.806,229.242,127.732z M220.104,130.549c-0.474,3.587,4.529,8.784,15.008,15.592l0.11-0.819
		c-8.828-5.514-13.795-11.015-14.899-16.503L220.104,130.549z M220.716,119.536c-0.475-0.926-0.37-1.754,0.313-2.486
		c-1.12-0.011-1.746,0.467-1.872,1.432L220.716,119.536z M230.187,131.87c-0.923,3.396-1.252,5.903-0.99,7.521l0.817,0.11
		c-0.134-2.135,0.196-4.642,0.992-7.521L230.187,131.87z M227.923,142.6c-2.026-0.262-4.06-2.212-6.106-5.852
		c-3.933,0.042-5.972,0.613-6.119,1.715c2.433,0.325,6.172,1.961,11.217,4.909l0.897,0.126L227.923,142.6z M257.107,127.749
		c-1.165,0.409-2.045,0.577-2.644,0.503c0.043,1.122,0.545,1.746,1.51,1.873C256.048,129.526,256.426,128.734,257.107,127.749z
		 M255.912,136.921l1.667,0.22c0.168-1.237,0.587-2.329,1.26-3.272l-0.82-0.11L255.912,136.921z M251.27,139.753l1.26-3.272
		c-1.103-0.147-1.762,0.609-1.982,2.266l-0.111,0.896L251.27,139.753z M43.731,92.049c-3.094,0.126-6.109,0.624-9.046,1.495
		c-3.293,1.017-6.367,2.475-9.22,4.373l-0.142,0.126c-1.363,1.49-2.444,3.163-3.241,5.019c-0.094,0.23-0.186,0.462-0.275,0.692
		c-0.054,0.258-0.099,0.521-0.133,0.787c2.433,0.314,4.866,1.19,7.3,2.627l1.054-1.542c-1.93-2.821-2.8-4.925-2.611-6.31
		c7.447,0.273,13.048-1.258,16.803-4.594c0.787,0.106,1.353,0.672,1.699,1.7l0.126,3.65l-1.038,1.558l1.557,1.039l7.662-6.639
		l0.425,0.156c-3.084-2.314-6.168-3.62-9.251-3.917l-0.11,0.834L43.731,92.049z M39.137,100.86c-0.115,0.881,0.866,2.135,2.942,3.76
		l0.834,0.11l1.762-0.614c-0.073,0.556,0.168,0.865,0.724,0.928c-1.101,5.57-3.975,8.051-8.622,7.442l-3.556-5.585l0.11-0.834
		l2.564,0.33c-0.293,2.214,0.11,3.394,1.211,3.54l3.383,0.44c0.923,0.116,1.936-1.154,3.037-3.807l-1.558-1.133l-5.365,1.904
		l0.44-3.383l1.385-4.027l-1.652-0.221l-7.19,9.236c0.734,0.094,2.266,1.442,4.594,4.043l4.138,0.551
		c3.724,0.482,6.551-1.422,8.48-5.712l0.819,0.111l-0.598-1.842c0.545,0.074,0.855-0.162,0.929-0.708l-7.867-5.239l-0.834-0.11
		L39.137,100.86z M18.731,113.494c-1.438,1.406-3.184,4.034-5.239,7.882l-1.731-0.235c2.769-6.472,5.166-9.577,7.19-9.314
		L18.731,113.494z M28.313,112.22l-0.221,1.652c-0.241,1.887-1.332,5.726-3.272,11.517l-1.652-0.221l0.991-7.521l2.423-5.648
		L28.313,112.22z M20.257,128.142c1.63,2.716,3.351,4.987,5.16,6.812c4.657,4.342,10.18,6.478,16.567,6.404
		c0.797-0.011,1.6-0.043,2.407-0.095c0.399-0.22,0.64-0.645,0.724-1.274l0.661-5.05l-0.283-4.311l-1.651-0.221
		c-0.598-0.084-0.934,0.147-1.007,0.692c-6.64-3.671-10.353-5.56-11.139-5.664c-2.947-0.388-5.161,1.311-6.639,5.098
		C23.378,129.138,21.778,128.341,20.257,128.142z M240.618,168.97c-0.073,4.164,0.388,7.08,1.386,8.748l-1.054,1.558
		c0.449,8.003,1.063,12.057,1.839,12.161c1.134-0.408,1.999-0.571,2.598-0.486c-0.073,0.545,0.167,0.854,0.723,0.927
		c0.336-1.08,0.987-1.558,1.95-1.432l2.266,1.982c0.116-0.87,0.82-1.924,2.109-3.161c-5.569-0.735-8.213-2.203-7.93-4.406
		l-0.599-1.84l0.835,0.109l-0.63-1.763c1.217-2.087,3.32-2.938,6.31-2.549l1.667,0.222c-0.22,1.656,0.221,2.559,1.321,2.706
		c0.147-1.103,0.799-1.579,1.952-1.432c0.146-1.103-1.427-2.172-4.722-3.211l-0.108,0.897c-0.756-0.703-2.398-1.223-4.926-1.558
		l0.551-4.154c0.147-1.144,1.049-1.604,2.706-1.384c0.599,0.073,1.411,0.482,2.438,1.227l5.161-0.235
		c-0.221,1.699,0.22,2.622,1.322,2.77l0.818,0.109l0.771-5.868l-13.169-3.414l-0.111,0.833l-1.543-1.054
		C242.224,165.534,240.913,166.768,240.618,168.97z M235.034,172.526l-3.698-3.919c-0.147,1.144-0.797,1.637-1.952,1.479
		l-0.831-0.11l-2.267-2.029l-0.819-0.11l-0.551,4.2l4.972,0.646c3.305,0.808,4.873,1.884,4.704,3.226l-0.219,1.651
		c-0.787-0.104-2.041,0.861-3.76,2.896l-0.82-0.111c-1.153-0.157-1.582-1.342-1.289-3.556l-4.249,0.299l-0.771,5.869l4.139,0.534
		c0.557,0.074,0.87-0.168,0.946-0.724c2.715,1.06,4.006,2.071,3.868,3.037l-0.203,1.652c-1.102-0.137-2.653,0.808-4.658,2.832
		l-0.833-0.11c-0.986-0.692-1.777-1.075-2.377-1.148c-0.136,1.111-0.754,1.594-1.854,1.446c-0.557-0.072-0.803-0.388-0.74-0.942
		l-1.826,0.612c-1.332-0.178-2.39-5.139-3.177-14.884l1.116-1.542c-1.427-0.188-2.076-3.97-1.952-11.344l-0.815-0.109
		c-1.218,4.939-2.377,7.337-3.478,7.19l-1.622-1.055c-1.354,3.901-4.703,9.991-10.053,18.267l-1.653-0.221
		c-0.975-0.126-1.903-3.943-2.783-11.454l-0.834-0.109c-0.368,2.853-2.486,5.988-6.357,9.408c-1.236-0.157-2.082-2.25-2.531-6.277
		l-4.501-4.877c0.954-7.269,0.305-11.051-1.952-11.344c-0.766-2.728-0.947-5.587-0.55-8.575l1.764-0.613
		c7.205,1.374,10.729,2.679,10.571,3.918l-1.479,4.924c-0.104,0.786,0.043,3.938,0.439,9.456l0.834,0.109
		c0.661-5.056,2.923-9.299,6.782-12.728c1.698,0.23,2.559,4.604,2.58,13.121l0.817,0.11l1.826-7.489l-0.285-4.248
		c1.659,0.222,2.635-0.797,2.929-3.053c7.267,0.956,10.787,2.281,10.557,3.981l3.618-1.275c-0.073,0.547,0.169,0.855,0.724,0.929
		l0.11-0.818c0.557,0.074,0.799,0.384,0.725,0.929l4.31-0.268c8.875,1.542,13.189,3.257,12.949,5.146l-0.771,5.853
		C237.654,172.315,236.732,172.757,235.034,172.526z M236.087,170.968l0.661-5.035c0.209-1.657-4.154-3.067-13.09-4.232
		l-3.305-0.439c-1.153-0.146-1.836,0.608-2.045,2.266c-0.576,4.373,0.073,12.419,1.951,24.134l0.834,0.096l0.11-0.834l1.62,1.069
		l2.722-1.399l2.251,2.045c0.23-1.71,1.195-2.449,2.894-2.218c0.138-1.102-0.345-1.727-1.448-1.873l-5.159,0.173
		c-1.563-0.21-2.324-3.142-2.282-8.795c3.001-0.734,5.03-1.033,6.091-0.896c1.707,0.23,2.417,1.447,2.122,3.65l0.818,0.11
		c0.116-0.872,0.817-1.904,2.108-3.101c-6.65-1.479-9.902-2.773-9.755-3.886l0.441-3.304c0.104-0.829,1.064-1.569,2.879-2.22
		l0.833,0.111c1.082,0.325,1.559,0.948,1.433,1.872c1.992-0.87,3.472-1.237,4.437-1.101c0.923,1.521,1.328,2.716,1.212,3.587
		L236.087,170.968z M213.652,160.38c-0.504-0.063-2.69-0.656-6.562-1.778c-0.104,0.829-1.065,1.573-2.88,2.234l0.599,1.762
		c-1.174,8.926-2.591,13.279-4.248,13.059c-1.332-0.168-2.109-5.092-2.328-14.773c-1.899,0.871-4.517,5.633-7.853,14.286
		l-1.667-0.204c-0.649-7.773-0.849-12.624-0.597-14.554l1.368-4.106l-0.817-0.111c-0.557-0.072-0.877,0.19-0.96,0.787
		c-0.935-0.733-3.661-1.673-8.182-2.816l-0.11,0.818c2.728,5.276,4.037,8.303,3.933,9.079c0.285,2.15,0.23,4.698-0.157,7.646
		l-0.11,0.819c2.665,0.346,4.29,3.108,4.879,8.291l-0.11,0.833l1.667,0.206c2.905-6.494,5.055-9.887,6.45-10.181
		c1.365,2.811,2.22,7.185,2.564,13.122l0.818,0.109c6.567-12.25,11.579-20.112,15.041-23.584
		C214.455,160.769,214.207,160.452,213.652,160.38z M163.242,148.658c9.23,3.168,13.462,7.699,12.696,13.593l-0.661,4.972
		c-0.514,3.913-1.325,5.796-2.438,5.649l0.615,1.825l-2.991,2.988l-1.541-1.053c-2.696,3.063-5.428,4.409-8.197,4.043
		c-0.073,0.556-0.959,0.724-2.659,0.503c0.209-1.563-1.836-3.263-6.136-5.097c-1.039,0.429-2.176,0.565-3.415,0.408
		c-1.677-9.021-2.428-14.218-2.249-15.591l0.22-1.668c3.305-8.087,7.211-11.832,11.722-11.234L163.242,148.658z M161.715,160.395
		l-5.759-1.667c-1.959,1.741-3.177,4.432-3.649,8.07c-0.325,2.486,2.226,4.815,7.646,6.986c5.569,0.724,8.723-1.72,9.457-7.332
		c-2.066-1.678-2.938-3.78-2.612-6.31l-0.834-0.109c-0.545-0.073-0.854,0.188-0.929,0.786l-3.099-2.155L161.715,160.395z
		 M161.039,158.538l0.331-2.486l1.731,0.237l2.264,1.967c1.175-0.399,2.041-0.562,2.598-0.488c0.03,1.122,0.528,1.746,1.494,1.872
		l-1.039,1.621l2.533,6.308c-0.734,5.571-4.474,8.193-11.217,7.868c-6.589-1.805-9.578-5.03-8.969-9.676l0.22-1.716
		c0.493-3.734,2.812-6.262,6.954-7.583L161.039,158.538z M157.17,149.54c-5.455,2.371-8.46,5.669-9.017,9.895l-0.331,2.486
		c1.301,7.584,1.877,11.926,1.731,13.027l1.762-0.629c2.666,0.356,5.839,2.202,9.52,5.537c0.114-0.827,1.615-1.499,4.499-2.013
		c0.23-1.794,2.088-2.953,5.571-3.478c0.083-0.598,0.465-1.411,1.147-2.439c-0.545-0.072-0.781-0.388-0.708-0.942
		c1.144,0.146,1.787-0.331,1.935-1.433l0.882-6.702c0.713-5.476-2.718-9.618-10.29-12.429L157.17,149.54z M137.015,146.896
		l-8.354-1.101l-0.11,0.833c1.017,5.476,1.248,10.331,0.692,14.569l-0.866,6.687l1.652,0.204l-0.566,4.217
		c0.042,1.133,0.524,1.758,1.448,1.873c0.115-0.923,2.176-1.495,6.183-1.716c-0.074,0.557,0.167,0.871,0.724,0.945l0.11-0.835
		c1.699,0.221,2.444,1.159,2.234,2.816l0.834,0.11c0.115-0.871,0.808-1.898,2.076-3.084l0.347-2.563
		c-2.182,0.892-4.495,1.174-6.938,0.849l-2.549-0.331c-1.101-0.146-1.573-0.796-1.416-1.949l0.535-4.139
		c0.168-1.237,0.592-2.329,1.274-3.272c-0.419-1.132-0.587-1.999-0.503-2.596C135.792,151.889,136.857,148.05,137.015,146.896z
		 M101.835,161.874c-3.241,5.14-5.282,7.704-6.121,7.694c-1.615-0.546-2.156-2.886-1.62-7.018c0.556,0.073,0.87-0.168,0.944-0.725
		c-1.7-1.342-3.309-2.112-4.831-2.313l-2.706,1.322l-2.266-1.968c-1.688,5.434-3.173,8.061-4.453,7.884l-1.667-0.205l-0.284-4.247
		l0.992-7.585c4.877-11.863,9.592-17.495,14.145-16.897c3.64,0.473,6.408,7.39,8.307,20.753L101.835,161.874z M88.493,153.315
		l5.05,0.661c-0.377-2.906-1.049-4.421-2.014-4.547L88.493,153.315z M86.84,153.11c2.402-3.672,4.039-5.449,4.909-5.334l0.896,0.126
		c0.514,0.063,1.642,2.197,3.383,6.404c-0.126,0.912-2.192,1.484-6.199,1.715C87.732,154.908,86.736,153.939,86.84,153.11z
		 M91.325,157.972c1.427,0.178,3.251,1.26,5.475,3.241l-1.054,1.558l-0.331,2.549c0.042,1.122,0.545,1.746,1.51,1.872l3.587-8.023
		c-1.206-12.65-4.038-19.268-8.496-19.855c-1.521-0.199-4.961,4.453-10.321,13.956l-1.432,10.918l1.652,0.204
		c0.661-5.023,2.119-7.383,4.374-7.079l1.542,1.038C88.881,157.92,90.045,157.794,91.325,157.972z"/>
</g>
</svg>
