<?xml version="1.0" encoding="utf-8"?>
<!-- Generator: Adobe Illustrator 16.0.0, SVG Export Plug-In . SVG Version: 6.00 Build 0)  -->
<!DOCTYPE svg PUBLIC "-//W3C//DTD SVG 1.1//EN" "http://www.w3.org/Graphics/SVG/1.1/DTD/svg11.dtd">
<svg version="1.1" id="Layer_1" xmlns="http://www.w3.org/2000/svg" xmlns:xlink="http://www.w3.org/1999/xlink" x="0px" y="0px"
	 width="300px" height="300px" viewBox="0 0 300 300" enable-background="new 0 0 300 300" xml:space="preserve">
<g>
	<path fill-rule="evenodd" clip-rule="evenodd" fill="#FFFFFF" d="M107.457,5.696c2.168-0.125,5.505,0.177,10.009,0.907
		c3.733,0.625,7.518,1.574,11.354,2.846c5.255,1.46,10.104,3.743,14.545,6.85c3.753,2.711,5.641,6.33,5.662,10.854
		c-0.021,0.042-0.031,0.083-0.031,0.125c-0.188,2.669-0.72,6.152-1.595,10.447c-1.147,5.672-2.356,9.927-3.629,12.763
		c-0.855,1.856-1.449,3.274-1.783,4.254c-3.899,0.104-8.216-0.292-12.95-1.189c-2.461-0.5-6.84-1.585-13.138-3.253
		c-4.921-1.334-8.602-2.398-11.042-3.191c-2.481-0.833-6.121-2.356-10.917-4.566c-1.459-0.688-2.575-1.168-3.347-1.439
		c-0.542-0.876-0.98-1.762-1.314-2.659c4.233-15.786,8.154-25.89,11.761-30.31c0.813-1.021,1.397-1.814,1.752-2.377
		C103.692,5.8,105.246,5.78,107.457,5.696z M85.561,36.226c0.083,0.188,0.083,0.907,0,2.158c0,0.48,0.031,1.21,0.094,2.189
		c-0.167,0.772-0.844,1.158-2.033,1.158c-2.731-0.021-4.389-0.01-4.974,0.031c-0.5,0.042-0.99,0.115-1.47,0.219l-0.751,0.157
		c-4.566,1.147-8.373,4.775-11.417,10.885h-0.063c-2.023,3.962-5.359,7.466-10.01,10.51l1.439-0.719
		c-2.127,1.167-4.254,2.064-6.381,2.69c-0.313,0.083-0.625,0.167-0.938,0.25c-1.334,0.333-2.659,0.563-3.973,0.688
		c-3.253,0.292-6.496-0.021-9.728-0.938c-0.875-0.25-1.741-0.553-2.596-0.907c-3.545-1.439-6.277-3.816-8.196-7.132
		c-2.523-4.4-2.805-8.654-0.844-12.762c0.583,9.864,5.537,15.661,14.858,17.392l-1.189-0.313c2.586,0.5,5.151,0.407,7.695-0.282
		c2.169-0.625,4.316-1.689,6.444-3.19c0.479-0.104,2.252-1.564,5.317-4.379c3.065-2.836,5.922-6.276,8.571-10.322
		c2.648-4.066,5.537-6.611,8.665-7.632c0.313-0.104,0.688-0.198,1.126-0.282c1.856-0.375,4.619-0.552,8.289-0.531
		C84.643,35.162,85.331,35.516,85.561,36.226z M168.015,67.505c0.021,0.313,0.01,0.771-0.032,1.376c0,2.565-0.959,4.796-2.877,6.694
		c-1.544,1.522-3.379,2.596-5.506,3.222c-0.292-0.646-0.698-1.408-1.22-2.284c-0.688-1.147-1.032-2.262-1.032-3.347
		c0-0.668,1.428-1.929,4.285-3.785c2.836-1.814,4.724-2.722,5.662-2.722C167.711,66.661,167.951,66.942,168.015,67.505z
		 M151.467,53.241c-0.688,2.628-1.178,4.619-1.47,5.975c-0.104,0-0.219,0.021-0.344,0.062c-0.876,0.313-1.908,0.157-3.097-0.469
		c-0.709-0.354-1.387-0.803-2.033-1.346c0.521-1.459,1.126-3.075,1.814-4.848C147.004,50.823,148.714,51.031,151.467,53.241z
		 M139.894,61.75c-2.648,1.356-5.735,1.449-9.259,0.282c-0.98-1.397-1.262-3.211-0.845-5.443c5.568,0.563,9.468,0.73,11.699,0.5
		C141.822,58.861,141.291,60.415,139.894,61.75z M134.514,68.85c0.229-0.104,0.458-0.198,0.688-0.282
		c1.063-0.354,2.189-0.532,3.378-0.532c1.167,0,2.283,0.177,3.347,0.532c0.542,0.209,1.074,0.459,1.595,0.751
		c0.208,0.125,0.407,0.25,0.594,0.375c0.542,0.396,1.063,0.844,1.564,1.345c1.397,1.397,2.304,2.992,2.721,4.786
		c0.167,0.771,0.25,1.595,0.25,2.471c0,1.48-0.271,2.846-0.813,4.098c-0.479,1.126-1.199,2.168-2.158,3.128
		c-1.961,2.002-4.328,3.002-7.101,3.002c-0.897,0-1.762-0.104-2.596-0.313c-1.71-0.417-3.232-1.313-4.567-2.69
		c-0.396-0.396-0.74-0.813-1.032-1.251c0.042,0.042,0.083,0.083,0.125,0.125c-0.375-0.438-0.73-0.97-1.063-1.596
		c-0.646-1.355-0.97-2.857-0.97-4.504c0-0.292,0.01-0.574,0.031-0.845c0.146-2.336,1.011-4.358,2.596-6.068
		c0.083-0.125,0.188-0.24,0.313-0.344c0.042-0.042,0.083-0.083,0.125-0.125c0.667-0.646,1.366-1.188,2.096-1.626
		C133.93,69.121,134.222,68.975,134.514,68.85z M138.861,80.831c-0.646,0.688-0.97,1.501-0.97,2.439c0,0.917,0.323,1.71,0.97,2.377
		c0.688,0.688,1.501,1.032,2.44,1.032s1.741-0.344,2.408-1.032c0.688-0.667,1.033-1.46,1.033-2.377c0-0.938-0.344-1.751-1.033-2.439
		c-0.667-0.668-1.47-1.001-2.408-1.001S139.549,80.163,138.861,80.831z M140.613,96.876c3.294,1.877,6.099,2.794,8.414,2.753
		c1.251-0.167,1.939-0.407,2.064-0.72c-0.897,3.837-4.212,6.768-9.947,8.79c-3.316,0.792-6.757,1.053-10.322,0.782
		c-6.923-0.751-12.241-4.087-15.953-10.01c0.188-0.333,0.5-0.553,0.938-0.657c0.876-0.333,1.616-0.824,2.221-1.47
		c1.96-2.169,3.816-3.597,5.568-4.285c5.443,0.021,10.792,1.449,16.046,4.285C139.977,96.512,140.3,96.689,140.613,96.876z
		 M134.169,110.64c3.169-0.229,4.89-0.406,5.161-0.532c3.983-0.563,7.549-2.002,10.698-4.316c0.25-0.188,0.5-0.386,0.75-0.594
		c11.844,4.546,16.38,1.595,13.607-8.852c-0.501-1.877-1.23-3.983-2.19-6.318c0.96,1.876,2.337,3.982,4.13,6.318
		c0.125,0.146,0.25,0.313,0.375,0.5c8.091,7.007,10.124,12.501,6.1,16.485c-3.003,0.75-5.182,1.366-6.538,1.845
		c0.042-0.063,0.095-0.104,0.157-0.125c-4.588,1.063-8.487,4.045-11.698,8.945c-3.232,4.9-5.099,19.956-5.6,45.169l-4.974-2.315
		l0.031-0.031c-0.021,0-0.042,0-0.063,0c0.334-2.648,0.094-5.005-0.719-7.069c-0.125-0.271-0.24-0.542-0.344-0.813
		c2.169-3.941,3.41-6.923,3.723-8.945c1.209-7.737,0.813-15.369-1.189-22.896c-0.896-4.63-3.19-8.279-6.882-10.948
		c-0.875-0.584-2.397-1.241-4.566-1.971c0.188,0.083,0.407,0.198,0.657,0.344c2.356,1.168,4.598,3.107,6.725,5.817
		c2.085,2.712,3.493,6.194,4.223,10.448c0.709,4.004,0.991,8.05,0.845,12.137c-0.083,1.438-0.261,2.836-0.532,4.191
		c-0.459,2.419-0.928,4.827-1.408,7.226c-0.063,0.334-0.594,1.866-1.595,4.598c-0.897-1.834-2.252-3.232-4.066-4.191
		c-1.96-1.042-3.055-1.752-3.284-2.127s-0.688-2.419-1.376-6.131l-0.063,0.532c-1.793-4.63-3.618-6.121-5.474-4.474
		c-1.877,1.647-3.441,1.471-4.692-0.531c-1.23-1.939-2.326-3.941-3.285-6.006v-0.031c-1.063-4.524-4.004-6.142-8.821-4.849
		c-4.838,1.23-9.301,3.921-13.388,8.07c-1.126,0.896-1.7,1.939-1.721,3.128c-0.042,0.855,0.282,2.013,0.97,3.472
		c0.897,1.981,2.159,3.806,3.785,5.475c1.335,1.418,3.295,3.076,5.881,4.974c-5.088-1.293-10.552-0.49-16.391,2.408
		c-2.752,1.835-5.683,5.642-8.79,11.417c-16.287,8.926-29.653-0.98-40.101-29.716c-6.485-16.933-8.081-31.822-4.786-44.667
		c3.273-12.867,5.14-20.019,5.599-21.458c0.438-1.46,0.792-2.419,1.064-2.878c0.313-0.167,0.636-0.313,0.969-0.438
		c2.043-1.042,4.087-2.096,6.131-3.159c0.063-0.063,0.136-0.114,0.219-0.157c1.731-0.583,3.357-1.282,4.88-2.095
		c1.063-0.605,2.075-1.251,3.034-1.94c0-0.021,0.011-0.031,0.031-0.031c0.063,0.104,0.104,0.23,0.125,0.376
		c0.083,0.208,0.125,0.448,0.125,0.719c0.042-0.063,0.094-0.125,0.156-0.188c0.188,0.334,0.365,0.688,0.532,1.064
		c3.17,7.11,3.024,14.336-0.438,21.676c-0.876,1.856-1.95,3.723-3.222,5.599c-0.855,1.21-1.564,2.398-2.127,3.566
		c-2.356,4.566-2.701,8.602-1.032,12.105c0.375,0.793,0.792,1.512,1.251,2.158c1.918,2.69,4.411,4.39,7.476,5.099
		c4.859,1.063,9.937-0.292,15.233-4.066c1.293,0.896,2.815,1.543,4.567,1.939c7.757,1.814,14.836-0.031,21.239-5.536v0.031
		c-0.438,0.771-0.72,1.49-0.845,2.158c-0.667,3.295,2.284,4.838,8.853,4.629c0.229,0,0.458,0,0.688,0
		c1.668,0,3.014-0.01,4.035-0.031c2.064-0.042,3.577-0.511,4.536-1.407c0.918-0.875,1.741-2.575,2.471-5.099
		C127.298,110.098,131.021,110.869,134.169,110.64z M164.167,106.104l0.876,4.004l0.438-1.564l1.596,2.471l0.281-0.219l-0.25-4.316
		c1.043,1.626,1.72,3.41,2.033,5.349c0.104,0.646,0.197,1.292,0.281,1.939l0.688-0.344c0.271-2.064-0.083-3.983-1.063-5.756
		c-0.667-1.167-1.585-2.106-2.752-2.815c-0.209-0.104-0.407-0.219-0.595-0.344l0.282,2.847l-1.471-1.532L164.167,106.104z
		 M90.221,56.838c0.938,0.751,1.533,1.679,1.783,2.784c0.125,0.584,0.167,1.168,0.125,1.751c-0.021,0.646-0.073,1.304-0.156,1.971
		c-0.146,0.813-0.542,1.439-1.188,1.877c-0.167,0.083-0.344,0.177-0.532,0.282c-0.271,0.125-0.542,0.239-0.813,0.344
		c-0.521,0.146-1.053,0.271-1.595,0.375c-0.355,0-0.688-0.021-1.001-0.062c-4.692,0.521-7.465,0.74-8.32,0.657
		c-1.189-0.104-2.033-0.25-2.534-0.438c-0.458-0.167-0.844-0.375-1.157-0.625c-0.083-0.083-0.146-0.167-0.188-0.25
		c-1.188-1.751-1.647-3.587-1.376-5.505c0.292-2.022,0.959-3.243,2.002-3.66c1.022-0.396,1.762-0.688,2.221-0.875
		c2.273-0.793,4.65-1.042,7.131-0.75C86.77,54.795,88.636,55.504,90.221,56.838z M79.555,70.852c1.272-0.521,2.659-0.782,4.16-0.782
		c1.898,0,3.608,0.407,5.13,1.22c0.063,0.021,0.135,0.052,0.219,0.094c0.208,0.104,0.417,0.229,0.625,0.375
		c0.083,0.063,0.167,0.125,0.25,0.188c0.479,0.333,0.949,0.72,1.408,1.157c1.48,1.355,2.45,2.909,2.909,4.661
		c0,0.042,0,0.084,0,0.125c0.188,0.771,0.282,1.595,0.282,2.471c0,1.397-0.261,2.7-0.782,3.91c-0.021,0.083-0.042,0.146-0.063,0.188
		c-0.521,1.126-1.303,2.169-2.346,3.128c-2.085,2.002-4.629,3.002-7.633,3.002c-0.959,0-1.866-0.104-2.721-0.313
		c-0.521-0.125-1.022-0.282-1.501-0.469c-1.272-0.5-2.419-1.241-3.44-2.221c-0.417-0.396-0.782-0.813-1.095-1.251
		c0.042,0.021,0.083,0.052,0.125,0.094c-0.396-0.417-0.771-0.938-1.126-1.564c-0.479-0.959-0.792-1.981-0.938-3.066
		c-0.083-0.479-0.125-0.959-0.125-1.438c0-0.313,0.01-0.605,0.031-0.876c0.167-1.898,0.813-3.577,1.939-5.036
		c0.271-0.354,0.563-0.699,0.876-1.033c0.104-0.104,0.208-0.208,0.313-0.313c0.042-0.063,0.104-0.114,0.188-0.156
		c0.688-0.626,1.429-1.157,2.221-1.595c0.313-0.167,0.626-0.313,0.938-0.438C79.461,70.873,79.513,70.852,79.555,70.852z
		 M86.53,175.545c-1.626-5.692-0.188-10.27,4.316-13.731c4.066-1.71,7.059-2.534,8.978-2.471c1.856,0.021,3.118,0.302,3.785,0.844
		c-0.563,0.334-0.959,0.554-1.189,0.657c-0.25,0.376-1.032,1.168-2.346,2.378c-1.292,1.23-2.043,4.098-2.252,8.602
		c-0.208,4.483,1.105,7.872,3.941,10.166c2.836,2.272,5.213,3.253,7.132,2.939c1.897-0.313,3.169-0.938,3.816-1.876
		c0.98-0.751,1.929-1.397,2.846-1.939c-0.292,2.961-0.938,5.005-1.939,6.131c-0.73,0.792-1.887,1.543-3.472,2.252
		c-1.522,0.709-2.815,1.272-3.878,1.688c-1.105,0.459-1.96,0.782-2.565,0.971c-0.188,0.041-0.355,0.072-0.501,0.094
		c-0.25,0.063-0.5,0.104-0.75,0.125c-2.773,0.271-5.349-0.678-7.726-2.847c-0.313-0.271-0.605-0.542-0.876-0.813
		c-0.688-0.73-1.355-1.554-2.002-2.472c-0.604-0.855-1.188-1.772-1.751-2.753c-0.063-0.146-0.146-0.292-0.25-0.438
		c-0.25-0.48-0.48-0.887-0.688-1.22c-0.563-1.063-0.855-1.638-0.875-1.721c-0.209-0.48-0.396-0.938-0.563-1.376
		C87.218,177.526,86.822,176.463,86.53,175.545z M116.684,118.491c0.333,0.354,0.646,0.74,0.938,1.157
		c2.773,3.774,4.056,8.091,3.847,12.95h0.438c0.104-0.605,0.188-1.189,0.25-1.752c0.729-5.464-0.866-9.999-4.786-13.606
		l-0.563,0.125l-1.845,4.285l-1.814-4.535l-0.625,0.5l-1.345,6.507l2.064-4.567l1.126,6.632l1.158-0.095L116.684,118.491z
		 M94.006,93.311c1.084-0.771,2.221-1.158,3.409-1.158c2.419,0,5.171,0.803,8.258,2.409c1.731,0.875,3.097,1.751,4.098,2.627
		c-0.667,1.209-1.418,2.576-2.252,4.098c-0.876,1.522-2.284,3.148-4.223,4.879c-1.939,1.71-4.817,3.107-8.633,4.191
		c-3.816,1.105-6.777,1.658-8.883,1.658c-3.42,0-6.058-1.032-7.914-3.097c-1.564-1.772-3.034-4.963-4.41-9.572v-2.064
		c1.021,0.438,2.377,1.137,4.066,2.096c1.668,0.938,3.618,1.376,5.85,1.314c2.21-0.104,4.212-1.074,6.006-2.909
		C91.149,95.928,92.692,94.437,94.006,93.311z M84.31,82.676c-0.104,0.063-0.188,0.136-0.25,0.219
		c-0.709,0.667-1.063,1.47-1.063,2.409c0,0.938,0.354,1.741,1.063,2.409c0.626,0.563,1.335,0.896,2.127,1.001
		c0.167,0.021,0.323,0.031,0.469,0.031c1.022,0,1.877-0.344,2.565-1.032c0.729-0.667,1.095-1.471,1.095-2.409
		c0-0.646-0.178-1.24-0.532-1.783c-0.146-0.23-0.334-0.438-0.563-0.626c-0.688-0.667-1.543-1-2.565-1
		C85.759,81.894,84.977,82.154,84.31,82.676z M140.05,142.796c1.73-8.487-0.094-16.151-5.474-22.991
		c-2.043-2.564-4.578-4.483-7.601-5.755c8.216,6.11,12.501,14.368,12.856,24.774C139.873,140.137,139.946,141.461,140.05,142.796z
		 M70.515,143.64c0.313-5.297,0.678-9.321,1.095-12.073c0.688-4.505,2.388-8.551,5.099-12.137c-2.961,1.856-4.911,5.161-5.849,9.915
		c-0.688,3.399-1.032,7.508-1.032,12.325c0,0.563,0.229,2.961,0.688,7.194V143.64z M49.433,111.797
		c0.542-2.023,1.199-3.524,1.971-4.504c-1.856,0.333-3.587,1.616-5.192,3.848c1.709-1.606,3.002-2.523,3.878-2.753
		c-0.5,0.897-1.001,2.544-1.501,4.942l3.097-2.471c-0.917,4.066-1.397,8.185-1.439,12.356c-0.042,4.483,0.417,8.925,1.376,13.324
		c-0.167-2.294-0.292-4.566-0.375-6.818c-0.292-6.819,0.261-13.721,1.658-20.708C51.612,109.556,50.455,110.483,49.433,111.797z
		 M23.376,235.384c-0.375-0.375-0.74-0.751-1.095-1.126c-0.563-0.563-1.105-1.126-1.626-1.689c0-0.313-0.021-0.553-0.063-0.72
		c-0.25,0-0.459-0.031-0.626-0.094c-0.333-0.354-0.646-0.709-0.938-1.063c-0.021-0.146-0.031-0.302-0.031-0.469
		c-0.146-0.021-0.292-0.042-0.438-0.063c-1.752-2.127-3.337-4.296-4.755-6.507c-0.375-0.563-0.74-1.146-1.095-1.751
		c0-0.084,0-0.156,0-0.22c-0.146-0.313-0.313-0.636-0.5-0.97c-1.021-1.855-1.897-3.492-2.627-4.91
		c-1.042-1.981-1.772-3.545-2.189-4.692c-0.792-1.96-1.116-3.628-0.97-5.005c2.773-1.418,4.879-1.783,6.319-1.095
		c7.194,14.89,15.244,25.462,24.147,31.718c8.904,6.235,14.597,9.979,17.079,11.229c1.856,1.021,4.212,2.138,7.069,3.347
		c1.606,0.688,4.025,1.7,7.257,3.034c4.087,1.772,7.497,3.17,10.229,4.191c2.731,1.043,7.111,2.106,13.137,3.19
		c6.047,1.085,10.552,1.408,13.513,0.971c0.709-0.168,1.418-0.387,2.127-0.658c3.878-1.251,6.944-5.358,9.196-12.323h8.102
		c-2.21,3.128-2.21,5.839,0,8.133c-1.459,0.626-2.826,1.939-4.098,3.941c-1.564,2.46-2.951,4.295-4.16,5.505
		c-1.23,1.188-3.138,2.116-5.724,2.784c-2.586,0.667-5.338,0.917-8.258,0.751c-2.961-0.146-5.286-0.334-6.976-0.563
		c-1.689-0.229-4.973-1.032-9.853-2.408c-5.401-1.773-9.488-3.066-12.262-3.879c-0.042-0.021-0.083-0.042-0.125-0.063
		c-0.146-0.041-0.282-0.072-0.407-0.093c-4.149-1.272-8.758-3.087-13.826-5.443c-0.229-0.125-0.479-0.239-0.75-0.344
		c-7.007-3.128-13.335-6.496-18.987-10.104c-0.271-0.188-0.542-0.375-0.813-0.563c-0.459-0.292-0.907-0.584-1.345-0.876
		c-0.563-0.396-1.116-0.772-1.658-1.126c-1.021-0.73-2.033-1.46-3.034-2.19c-0.104-0.104-0.208-0.198-0.313-0.281
		c-0.563-0.438-1.116-0.855-1.658-1.251v-0.031c-0.667-0.543-1.314-1.074-1.939-1.595c-1.71-1.461-3.326-2.94-4.849-4.442
		C23.501,235.509,23.439,235.446,23.376,235.384z M62.82,263.566c1.105,1.085,1.188,1.908,0.25,2.472
		c-4.024,0.166-7.674,0-10.948-0.501c-3.941-0.313-7.841-0.729-11.699-1.251c-0.396-1.251,0.198-4.869,1.783-10.854
		c0.834,0.271,1.283,0.417,1.346,0.438c2.335,1.188,5.109,2.575,8.32,4.16C55.334,259.887,58.983,261.731,62.82,263.566z
		 M148.996,186.712v10.979c-1.042,1.272-1.825,1.929-2.346,1.971c-0.229,0.021-1.199-0.167-2.909-0.563
		c-1.105,3.754-3.107,4.682-6.006,2.784c-5.589,2.711-10.719,2.731-15.39,0.063c-4.171,2.044-6.663,2.263-7.476,0.657
		c-1.981,1.376-3.744,1.888-5.287,1.532c0.292-0.792,1.032-2.116,2.221-3.972c-2.815,1.501-5.37,1.762-7.664,0.781
		c-0.667,0.229-0.667-0.865,0-3.284c-1.814,0.375-3.795,0.261-5.943-0.344c-0.605-0.146-1.22-0.345-1.846-0.595
		c-2.252-0.876-3.67-2.169-4.254-3.879h1.658c1.167,0.251,2.909,0.741,5.224,1.471c2.064,0.501,3.837,0.521,5.317,0.063
		c1.251-0.376,3.181-0.907,5.787-1.595c2.21-0.73,3.941-1.689,5.192-2.879c1.314-1.23,2.168-2.783,2.565-4.66
		c0.313-1.376,0.407-3.181,0.281-5.411c1.439,0,3.952,0.375,7.539,1.126c3.568,0.727,7.014-0.181,10.338-2.722
		c0.223,0.149,0.447,0.316,0.672,0.501c3.065,2.169,7.215,4.451,12.449,6.851C149.038,185.648,148.996,186.023,148.996,186.712z
		 M138.705,248.521c1.022-0.396,2.033-0.574,3.035-0.532c3.107,0.167,5.224,1.137,6.35,2.909c1.105,1.814,1.053,4.212-0.157,7.194
		l-2.439,6.663l-4.629-6.569v-1.971c-0.188-0.979-1.001-2.064-2.44-3.253c-1.439-1.168-2.252-2.252-2.439-3.253
		C137.464,249.021,138.371,248.626,138.705,248.521z M125.912,206.012c1.355,1.293,4.786,0.678,10.291-1.846
		c-0.104,1.835-0.177,3.232-0.219,4.191v7.226h-9.729c0.021-1.96-0.021-3.878-0.125-5.755
		C126.026,207.931,125.953,206.658,125.912,206.012z M143.553,265.412c2.106,1.23,2.461,2.492,1.063,3.785
		c-1.376,1.251-3.315,2.294-5.818,3.128c-5.589-1.981-8.591-5.839-9.009-11.574c3.962-1.501,6.694-2.356,8.195-2.564
		C139.612,261.773,141.468,264.182,143.553,265.412z"/>
	<path fill-rule="evenodd" clip-rule="evenodd" fill="#EC525E" d="M165.668,65.878c0.083,0.125-0.177,0.323-0.781,0.594
		c-1.314,0.626-2.587,1.325-3.816,2.096c-1.147,0.709-2.242,1.501-3.285,2.378l-0.344,0.031c-0.751-0.855-1.418-1.658-2.002-2.409
		c-0.854-1.146-1.491-2.169-1.908-3.065c-0.063-0.125-0.125-0.24-0.188-0.344c-0.021-0.104-0.052-0.198-0.094-0.281
		c4.316-1.689,7.152-2.513,8.509-2.471L165.668,65.878z M234.733,108.106l4.41,3.191c0.209,3.628-5.38,3.493-16.766-0.407
		c-0.021-0.063-0.021-0.125,0-0.188C224.923,105.927,229.041,105.062,234.733,108.106z M147.682,48.174
		c0.771-3.107,1.157-4.9,1.157-5.38c1.147-5.506,1.898-10.052,2.252-13.639c3.211,0.104,4.838,2.983,4.88,8.634
		c0,5.63-1.043,9.749-3.128,12.355C150.257,49.374,148.537,48.717,147.682,48.174z M34.825,42.2
		c4.463,3.357,8.665,4.692,12.606,4.003c3.628-0.625,7.048-2.96,10.26-7.006c1.564-1.919,2.805-3.879,3.722-5.881
		c1.293-2.815,2.909-5.902,4.849-9.259c1.939-3.42,4.202-7.111,6.788-11.073c1.126-1.71,2.492-3.034,4.098-3.972
		c1.73-1.043,3.649-1.533,5.755-1.471c1.418,0.021,4.556,0.021,9.415,0c1.126-0.021,2.794-0.062,5.005-0.125
		c-6.152,12.324-9.833,20.634-11.042,24.93c-2.544-0.208-4.046-0.313-4.504-0.313c-1.752-0.125-3.41-0.031-4.974,0.281
		c-1.564,0.313-3.076,0.709-4.536,1.188c-1.459,0.459-3.493,2.45-6.1,5.974c-2.606,3.483-5.025,6.684-7.257,9.604
		c-2.252,2.898-4.723,5.067-7.413,6.506c-2.732,1.439-4.306,2.21-4.723,2.314c-0.229,0.021-0.469,0.042-0.72,0.063
		c-11.803,1.272-18.653-4.15-20.551-16.265C28.736,39.823,31.843,39.99,34.825,42.2z M108.301,106.386
		c0.98-0.521,2.095-0.907,3.347-1.157c1.23-0.25,2.471-0.188,3.722,0.188c1.21,0.333,1.992,0.605,2.346,0.813
		c0.333,0.188,0.699,0.438,1.095,0.75c0.396,0.313,0.751,0.782,1.063,1.408c0.313,0.605,0.396,1.241,0.25,1.908
		c-0.167,0.667-0.709,1.105-1.627,1.314c-1.605,0.146-3.232,0.302-4.879,0.469c-1.668,0.167-3.211,0.125-4.629-0.125
		c-1.439-0.271-2.43-0.448-2.972-0.532c-0.375-0.042-0.615-0.188-0.72-0.438c-0.188-0.959,0.032-1.835,0.657-2.628
		C106.539,107.564,107.321,106.907,108.301,106.386z M111.241,156.59c2.481-1.397,5.484-2.722,9.009-3.973
		c2.836-1.001,6.735-0.479,11.699,1.564c5.025,2.085,7.861,4.243,8.508,6.475c0.604,2.21,0.782,4.285,0.532,6.225
		c-0.271,1.918-1.616,4.327-4.035,7.226c-1.021,1.23-1.72,2.085-2.096,2.565c-3.149,2.752-7.518,3.347-13.106,1.782
		c-2.231-0.542-3.753-0.803-4.567-0.781c-0.855,0.021-2.294,0.876-4.317,2.564c-2.064,1.689-4.525,1.877-7.382,0.563
		c-2.836-1.313-4.546-3.691-5.13-7.133c-0.333-2.21-0.354-4.066-0.063-5.567c0.396-2.002,1.376-3.805,2.94-5.411
		C105.486,160.354,108.155,158.32,111.241,156.59z M130.635,144.578c1.314,0.751,1.981,1.95,2.002,3.598
		c0.021,0.938,0,1.939-0.063,3.003c-0.918-0.688-2.576-1.919-4.974-3.691c0.063-0.876,0.917-1.814,2.565-2.815
		C130.312,144.631,130.468,144.599,130.635,144.578z M40.017,140.605c-0.021,0.376-0.083,0.73-0.188,1.064
		c10.03,32.113,24.523,42.52,43.479,31.217c-0.063,6.36,2.335,11.657,7.194,15.89c-5.172,2.795-10.03,4.661-14.576,5.6
		c-0.834,0.167-1.637,0.303-2.409,0.406c-7.007,0.918-13.2-0.521-18.581-4.316c-0.354-0.376-0.74-0.751-1.157-1.126
		c-0.604-0.501-1.146-0.865-1.626-1.095c-0.855-0.793-1.699-1.647-2.534-2.565c-1.439-1.605-2.805-3.43-4.098-5.474
		c-0.625-0.98-1.23-2.002-1.814-3.065c2.564,10.26,7.33,16.984,14.294,20.176c2.085,0.959,4.379,1.605,6.882,1.939
		c1.543,0.375,2.888,0.448,4.035,0.219c3.941-0.042,8.289-0.762,13.043-2.158c2.294-0.646,4.671-1.46,7.132-2.44
		c0.605,0.918,1.366,1.731,2.283,2.44c0.73,0.583,1.575,1.074,2.534,1.47c1.334,0.604,4.014,0.876,8.039,0.813
		c-1.731,4.254-1.772,6.089-0.125,5.505c1.251-0.458,2.909-1.042,4.973-1.752c-0.917,1.46-1.178,2.42-0.782,2.879
		c0.375,0.458,0.636,0.688,0.782,0.688c3.378-0.167,5.902-1.188,7.57-3.065c2.294,2.857,5.026,3.107,8.195,0.751
		c0.063,0.876,0.49,3.336,1.283,7.382c0.292,1.627,0.532,2.836,0.719,3.629c-1.147,0.229-2.346,0.344-3.597,0.344
		c-1.272-0.021-2.68,0.239-4.223,0.782c-1.522,0.542-2.325,2.147-2.409,4.817c-0.104,2.669-0.156,4.347-0.156,5.035
		c-27.318-2.689-48.254-9.363-62.81-20.019c-3.691-3.023-7.017-6.11-9.979-9.259c-5.63-6.027-9.905-12.314-12.825-18.862
		c0-0.104,0.01-0.208,0.031-0.313c0.959-10.218,3.347-20.103,7.163-29.653c0.479-1.209,0.959-2.408,1.439-3.598
		C38.099,143.285,39.037,141.857,40.017,140.605z M37.233,233.007c-4.275-3.858-7.684-7.31-10.229-10.354
		c-2.565-3.024-6.871-9.541-12.918-19.55c3.128-1.106,5.036-1.94,5.724-2.503c0.688-0.542,1.063-0.834,1.126-0.876
		c1.189,2.878,3.357,6.225,6.506,10.041c11.031,12.073,21.844,20.082,32.437,24.022c4.191,1.96,8.154,3.462,11.886,4.505
		c5.755,1.605,9.937,2.711,12.543,3.315c4.692,1.043,9.008,1.689,12.95,1.939c1.335,0.083,4.035,0.333,8.102,0.75
		c3.42,0.313,6.162,0.521,8.227,0.626c0.834,0.021,1.272,0.417,1.313,1.189c0.021,0.416-0.063,0.833-0.25,1.251
		c-2.481,4.9-4.139,8.236-4.974,10.009c-0.208,0.209-0.427,0.438-0.657,0.688c-0.876,0.834-2.023,1.324-3.441,1.47
		c-6.923,0.584-13.919-0.156-20.989-2.221c-10.239-3.044-18.58-6.36-25.024-9.946C48.932,241.629,41.487,236.843,37.233,233.007z
		 M138.017,204.01c0.292,0,1.115,0.354,2.471,1.063c1.314,0.73,2.263,0.365,2.847-1.095c0.563-1.459,1.345-1.804,2.346-1.032
		c0.979,0.771,2.085,0.104,3.315-2.002l-0.031,19.487c0,0.25-0.052,0.521-0.156,0.813c-0.125,0.334-0.25,0.511-0.375,0.532
		c-0.417,0.062-0.688-0.063-0.813-0.376c-0.104-0.438-0.198-0.771-0.281-1.001c-0.855-2.127-2.159-3.566-3.91-4.316
		c-1.522-0.668-3.462-0.834-5.818-0.501c0-3.962,0.011-6.339,0.032-7.131c-0.042-1.272-0.063-2.221-0.063-2.847
		C137.579,204.521,137.725,203.989,138.017,204.01z M146.024,245.706c1.168-0.063,1.793-0.823,1.877-2.284
		c0.063-1.167,0.125-3.42,0.188-6.756c0.125,0.959,0.261,2.044,0.407,3.253c0.333,3.19,0.49,4.817,0.469,4.88l0.063,1.032
		c-0.021,0.667-0.438,1.095-1.251,1.282c-0.854,0.146-1.658-0.031-2.408-0.531C144.617,246.061,144.836,245.769,146.024,245.706z
		 M135.984,249.71c0.188,1.001,1,2.085,2.439,3.253c1.439,1.188,2.252,2.273,2.44,3.253c-1.751-0.438-4.191-0.219-7.32,0.656
		c-3.274,0.897-5.703,1.221-7.288,0.971c-0.313-1.063-0.114-2.43,0.595-4.099c0.75-1.834,1.084-3.18,1.001-4.034H135.984z"/>
	<path fill-rule="evenodd" clip-rule="evenodd" fill="#E7D7AE" d="M203.267,128.188c0.563-0.126,1.126-0.23,1.689-0.313
		c8.674-0.25,17.37-0.219,26.087,0.094l8.445-2.002l-0.72-1.376c-11.845,0.083-23.678,0.458-35.502,1.126
		c-2.773,0.146-5.558,0.313-8.352,0.5c-1.939,0.209-3.024,1.21-3.253,3.003c2.669,0.396,5.338,0.292,8.007-0.313
		C200.879,128.615,202.077,128.376,203.267,128.188z M218.906,116.615c-1.564-0.084-3.337-0.146-5.317-0.188
		c-3.087,0.146-6.527,0.324-10.322,0.533c-5.86,0.292-12.585,0.667-20.176,1.125c-1.147-0.271-1.73-0.719-1.751-1.345
		c-0.063-0.542,0.313-1.157,1.125-1.845c0.209-0.167,0.563-0.229,1.064-0.188c0.291,0.042,0.729,0.083,1.313,0.125
		c0.646,0,1.595-0.01,2.846-0.031c1.127-0.021,2.065,0,2.815,0.062c3.212,0.271,7.466,0.365,12.763,0.282
		c3.086-0.083,6.506-0.198,10.26-0.344c2.627-0.146,5.036-0.605,7.226-1.376c9.613,2.481,15.421,3.42,17.423,2.815
		c2.022-0.625,3.138-1.021,3.347-1.188c0.188-0.167,0.479,0,0.876,0.5c1.167,1.48,2.346,3.618,3.534,6.412
		c1.711,6.026,2.899,12.157,3.566,18.393c0.083,0.751,0.166,1.502,0.25,2.253v23.209c-4.191,31.655-4.41,56.929-0.657,75.822
		l-10.071,2.158c-0.751-1.188-1.189-1.95-1.314-2.283c-15.556,2.836-25.306,4.566-29.246,5.192
		c-3.921,0.584-6.434,0.949-7.539,1.095c-1.146,0.104-3.294,0.396-6.443,0.876s-4.775,0.729-4.879,0.751
		c-0.021,0.229,0,0.458,0.063,0.688c0.021,0.125,0.041,0.24,0.062,0.344c1.23-0.229,2.868-0.469,4.911-0.719
		c5.798-0.73,9.729-1.22,11.793-1.471c2.022-0.25,4.796-0.719,8.32-1.407c1.752-0.334,2.982-0.584,3.691-0.75
		c-0.104,0.249,1.084,0.531,3.565,0.844c-0.229-0.396-0.313-0.699-0.25-0.907c0.125-0.292,2.753-0.865,7.883-1.721
		c5.129-0.834,7.778-0.761,7.944,0.22l-13.105,2.689c0.083,0.021,0.177,0.031,0.28,0.031c-8.861,1.731-14.241,3.493-16.14,5.287
		c-0.521,0.333-1.022,0.688-1.501,1.063l-14.483,2.533c0.083,0.021,1.512,0.178,4.285,0.47c1.314,0.146,3.827-0.084,7.539-0.688
		c-0.896,0.959-1.647,1.96-2.252,3.003c-2.044,0.188-4.16,0.553-6.35,1.095c-2.253,0.583-3.91,0.928-4.974,1.032
		c0.354,0.5,0.698,0.959,1.031,1.376c0.396-0.083,0.855-0.177,1.377-0.281c3.336-0.646,5.975-1.032,7.914-1.157
		c-0.542,1.48-0.793,3.044-0.751,4.691c-3.128,1.043-5.536,1.867-7.226,2.472c-0.042,0.146-0.021,0.323,0.063,0.531
		c0.063,0.188,0.354,0.354,0.876,0.501c1.626-0.271,3.806-0.626,6.538-1.064v0.032c0.249,1.251,0.563,2.408,0.938,3.472
		c-1.209,0.438-2.658,0.99-4.348,1.657l-0.25-0.124c0.917,0.563,1.449,0.854,1.595,0.875l3.723-0.625
		c0.479,1.084,1.043,2.054,1.689,2.909c-1.606,0.583-2.962,1.043-4.066,1.376c-0.021,0.188-0.126,0.438-0.313,0.75l1.033,0.251
		c1.375-0.417,2.888-0.782,4.535-1.095c1.126,1.146,2.461,2.013,4.003,2.597c2.295,0.896,5.026,1.178,8.196,0.844
		c-2.023,0.667-3.024,1.126-3.004,1.377c0,0.271,0.198,0.573,0.595,0.907c0.376,0.313,1.981,0.208,4.817-0.313
		c2.836-0.542,7.393-1.355,13.669-2.439c-1.126,2.002-3.754,3.659-7.882,4.974c-2.648,0.813-4.786,1.563-6.413,2.252
		c-0.166,1.104,3.515,0.333,11.042-2.315c0.229,1.314-0.323,2.389-1.658,3.223c-1.354,0.792-2.689,1.324-4.004,1.595
		c-4.504,0.834-8.602,1.002-12.292,0.501c-3.712-0.521-7.57-1.804-11.574-3.848c-3.002-1.563-5.63-3.816-7.883-6.756
		c-0.75-0.98-1.449-2.045-2.095-3.191c-2.648-4.546-4.213-7.486-4.692-8.82c-0.5-1.377-1.084-3.034-1.752-4.974
		c-0.688-1.96-1.116-3.41-1.282-4.348c-0.167-0.96-0.448-4.077-0.845-9.354c-0.751-9.738-0.719-17.871,0.094-24.397
		c0.813-6.506,1.137-14.42,0.97-23.741c0.126-1.397,0.271-2.753,0.438-4.066c0.479-4.734,0.834-8.926,1.063-12.575
		c0.646-6.109,1.709-18.548,3.19-37.316c0.083-2.919,0.125-5.119,0.125-6.601c0-0.771,0-1.501,0-2.189
		c-0.125-8.049-1.585-14.013-4.379-17.892c4.316-0.479,7.977-1.001,10.979-1.563c3.774-0.709,6.643-1.085,8.603-1.126
		c0.271,0,0.521,0,0.751,0c3.398,0.062,7.591,0.083,12.574,0.062c2.773,0,6.965-0.01,12.574-0.031c0.354,0,0.323-0.083-0.094-0.25
		c-0.365-0.146,0.317-0.125,2.049,0.063l-8.899-1.157h0.938C221.138,116.697,219.72,116.656,218.906,116.615z M80.962,44.515
		c1.522-0.209,4.369,0.052,8.54,0.782c4.087,0.708,12.178,3.065,24.273,7.069c2.127,0.583,4.045,1.064,5.755,1.439
		c2.669,0.625,4.64,1.574,5.912,2.846c1.293,1.272,2.064,2.669,2.314,4.191c0.021,0.083,0.042,0.167,0.063,0.25
		c0.021,0.188,0.063,0.365,0.125,0.532v0.031c-0.083,1.751,0.333,2.627,1.251,2.627c4.859,0.667,8.988,0.532,12.387-0.407
		c0.834-0.354,1.606-1.709,2.315-4.066c1.793,1.022,2.826,1.606,3.097,1.752c1.105,0.521,1.772,1.47,2.002,2.847
		c0.063,0.271,0.115,0.521,0.156,0.75c0,0.104,0.021,0.219,0.063,0.344c0.229,1.334,0.375,2.075,0.438,2.221
		c0.104,0.146,0.188,0.302,0.25,0.469l4.629,4.974c0.646,1.71,1.263,3.347,1.846,4.911c0.813,2.231,1.543,4.317,2.189,6.256
		c1.606,4.942,2.638,8.946,3.097,12.012c1.105,7.507-1.387,9.207-7.476,5.099c0.625-1.106,1.043-2.252,1.251-3.441
		c0.104-0.584,0.188-1.137,0.251-1.658c0.229-2.085,0.177-3.754-0.157-5.005c-1.001,2.335-2.138,4.004-3.409,5.005
		c-1.605,1.251-3.431,1.459-5.474,0.625c-0.563-0.208-1.084-0.417-1.564-0.625c-2.606-1.084-3.857-1.679-3.753-1.783
		c-6.402-4.275-11.25-5.871-14.545-4.786c0.897-1.626,0.354-4.098-1.626-7.413c-1.397-1.293-1.991-1.512-1.783-0.657
		c0.188,0.855,0.573,2.138,1.157,3.848c0.563,1.71,0.073,2.94-1.47,3.691c-1.585,0.729-3.243,1.887-4.973,3.472
		c-1.752,1.543-3.431,1.908-5.037,1.095c-1.626-0.834-2.585-1.335-2.877-1.501c-0.292-0.208-1.167-0.469-2.627-0.782
		c-3.128-0.396-4.233-2.429-3.315-6.1c0.062-0.292,0.125-0.563,0.188-0.813c0-0.771-0.625-0.542-1.877,0.688
		c-2.252,2.857-2.377,5.036-0.375,6.538c-2.293-0.542-4.223-0.73-5.787-0.563c-1.522,0.146-3.065,0.949-4.629,2.408
		c-1.084,1.043-2.148,1.929-3.19,2.659c-0.459,0.313-0.917,0.604-1.376,0.876c-2.94,1.438-5.067,2.116-6.381,2.033
		c-2.148-0.167-4.223-1.137-6.225-2.909c-0.959-0.855-1.908-1.898-2.847-3.128c-0.083,1.084-0.125,2.127-0.125,3.128
		c-0.042,4.191,0.563,7.643,1.814,10.354c-2.565,6.36-7.028,7.862-13.388,4.504c-5.568-2.92-6.287-7.872-2.158-14.858
		c0.605-1.043,1.324-2.116,2.158-3.222c5.526-7.528,7.028-16.735,4.504-27.62c-0.375-1.731-0.865-3.483-1.47-5.255
		c1.001-1.126,1.908-2.335,2.722-3.628c4.379-6.589,8.425-10.468,12.136-11.636C78.408,44.838,79.419,44.682,80.962,44.515z
		 M206.989,144.923c-1.314,0.229-2.555,0.417-3.723,0.563c-2.982,0.376-5.38,0.459-7.194,0.251c-0.229-0.021-0.49,0.03-0.782,0.156
		c-0.292,0.146-0.459,0.292-0.5,0.438c-0.251,1.001-0.209,1.7,0.125,2.096c0.166,0.188,0.521,0.354,1.063,0.5
		c0.376,0.084,1.074,0.24,2.097,0.47c0.542,0.271,1.376,0,2.502-0.813c1.043-0.751,1.939-1.168,2.69-1.251
		c0.146-0.021,0.281-0.031,0.406-0.031c3.337,0.229,8.603-0.094,15.797-0.97c6.84-0.855,12.104-1.074,15.796-0.657
		c1.063,0.125,2.68,0.125,4.849,0c0.208,0,0.479-0.083,0.813-0.25c0.313-0.167,0.469-0.281,0.469-0.344
		c-0.042-0.396-0.22-0.678-0.532-0.845c-0.229-0.125-0.594-0.188-1.095-0.188c-4.837,0.104-8.466,0.167-10.885,0.188
		c-4.296,0.042-7.925-0.052-10.886-0.282C215.56,143.744,211.889,144.067,206.989,144.923z M195.103,139.417l-0.438,2.222
		l46.325-2.565l-17.578-1.313L195.103,139.417z M196.541,152.992c-1.021,0.646-1.835,0.938-2.439,0.876
		c-0.167-0.021-0.365,0.073-0.594,0.282c-0.126,0.125-0.313,0.313-0.563,0.563c0.125,0.084,0.333,0.229,0.625,0.438
		c0.251,0.188,0.47,0.281,0.657,0.281c2.669-0.021,5.453-0.459,8.352-1.314c0.229-0.062,0.459-0.114,0.688-0.156
		c1.418-0.354,3.169-0.49,5.255-0.406c1.355,0.021,3.409,0.114,6.162,0.282c1.23,0.021,3.117-0.303,5.661-0.971
		c2.461-0.667,4.41-0.948,5.85-0.844c3.565,0.292,6.1,0.438,7.601,0.438c2.857,0,5.381-0.281,7.57-0.845
		c-1.918-0.98-4.452-1.355-7.602-1.126c-4.149,0.271-6.714,0.344-7.694,0.22c-3.336-0.626-7.841-0.522-13.513,0.313
		c-3.754,0.542-6.851,0.886-9.29,1.031c-1.71,0.104-3.087,0.126-4.129,0.063C198.387,152.054,197.521,152.346,196.541,152.992z
		 M194.102,160.344c-0.167,0.021-0.365,0.135-0.594,0.344c-0.126,0.125-0.313,0.302-0.563,0.532
		c0.125,0.083,0.333,0.229,0.625,0.438c0.251,0.188,0.47,0.281,0.657,0.281c2.94-0.167,4.599-0.261,4.974-0.281
		c1.48-0.146,2.836-0.386,4.066-0.72c0.313-0.083,0.636-0.188,0.97-0.313c1.501-0.521,3.462-0.74,5.881-0.657
		c1.376,0.042,3.44,0.167,6.192,0.376c1.23,0.021,3.128-0.303,5.693-0.97c2.419-0.667,4.358-0.949,5.818-0.845
		c3.337,0.271,5.599,0.427,6.787,0.47c2.565,0.021,4.817-0.271,6.757-0.876c-1.711-0.918-3.983-1.283-6.819-1.096
		c-3.732,0.23-6.026,0.282-6.881,0.157c-2.815-0.584-6.632-0.49-11.448,0.281c-5.464,0.875-9.271,1.241-11.418,1.095
		c-0.479-0.021-0.99,0-1.532,0.063c-1.147,0.042-2.45,0.24-3.91,0.595C196.583,159.885,194.831,160.26,194.102,160.344z
		 M203.267,174.701c0.979-0.083,1.971-0.271,2.972-0.563c4.107-1.272,8.289-1.574,12.543-0.907c1.167,0.229,2.294,0.157,3.378-0.219
		c4.129-1.293,8.311-1.669,12.543-1.126c2.648,0.438,4.891,0.136,6.726-0.907c-0.125-0.626-0.563-0.938-1.313-0.938
		c-4.275,0.021-8.529,0.031-12.763,0.031c-2.711-0.313-5.37-0.292-7.977,0.063c-5.421,0.73-10.791,1.491-16.108,2.283
		c-3.399,0.501-6.788,1.002-10.166,1.502l0.782,2.721c2.398-1.334,5.004-1.97,7.819-1.907
		C202.225,174.753,202.744,174.742,203.267,174.701z M185.375,153.023c-0.646,10.823-0.866,13.92-0.658,9.291
		c0.063-1.814,0.126-3.201,0.188-4.161c-0.084,1.002-0.188,2.378-0.313,4.13c-1.085,16.682-2.033,27.818-2.847,33.406
		c-0.042,0.25-0.094,0.792-0.157,1.627c-0.313,4.254-0.938,15.827-1.876,34.721c0-0.229,0-0.459,0-0.688
		c-0.084,3.086-0.136,5.599-0.157,7.538c-0.021,5.255,0.157,9.968,0.532,14.139c0.751,8.403,2.982,15.849,6.694,22.334
		c0.813,1.438,1.137,2.513,0.97,3.222c-0.139,0.654-0.911,0.999-2.315,1.032c-0.979,0.208-1.929,0.406-2.846,0.595
		c-16.453,3.378-24.962,5.161-25.524,5.349c-1.689,0.542-5.62,1.334-11.793,2.377c-1.96,0.334-3.576,0.615-4.848,0.845
		c0.834-0.751,2.419-3.232,4.754-7.444c0.188-0.355,0.365-0.73,0.532-1.126c2.857-6.152,4.775-18.07,5.755-35.753
		c0.501-9.472,0.751-15.102,0.751-16.892c-0.041-4.338-0.146-9.009-0.313-14.014c-0.146-4.045-0.333-9.456-0.563-16.233
		c-0.063-1.669-0.135-3.399-0.219-5.193c-0.209-5.233-0.375-8.403-0.5-9.508c0.083-2.315,0.083-5.214,0-8.696
		c-0.125-5.109-0.094-8.895,0.094-11.354c0.667-9.426,1.292-15.9,1.876-19.425c1.064-6.277,2.753-11.813,5.067-16.609
		c1.293-3.128,3.056-5.349,5.286-6.663c3.337-2.064,5.798-2.794,7.382-2.189c0.042-0.042,0.095-0.063,0.157-0.063
		c5.484-0.855,9.498,2.127,12.042,8.946C185.03,133.359,185.979,142.181,185.375,153.023z M193.194,167.601l1.376,0.845
		l13.951-1.627l33.094-2.439l-1.282-0.782l-12.825-0.031l-33.469,3.253L193.194,167.601z M203.267,123.371
		c11.114,0.208,22.167-0.605,33.156-2.44l-0.563-1.188l-47.576,2.69C193.31,122.953,198.303,123.267,203.267,123.371z
		 M149.622,82.676c0.396-1.251,0.594-2.576,0.594-3.973v-0.031c0-0.042,0-0.073,0-0.094l-0.657-4.16
		c-0.042-0.083-0.073-0.177-0.094-0.282c-0.188-0.479-0.407-0.938-0.657-1.376c-0.521-0.979-1.189-1.908-2.002-2.784l-0.031-0.031
		c-0.501-0.521-1.001-0.98-1.502-1.376c-1.272-0.959-2.648-1.605-4.128-1.939c-0.834-0.188-1.689-0.282-2.565-0.282
		c-0.813,0-1.596,0.083-2.346,0.25c-1.585,0.313-3.034,0.97-4.348,1.97c-0.542,0.417-1.053,0.887-1.532,1.408
		c-2.294,2.398-3.441,5.297-3.441,8.696c0,3.399,1.146,6.308,3.441,8.727c2.252,2.398,4.994,3.597,8.227,3.597
		c2.523,0,4.765-0.74,6.725-2.221c0.521-0.417,1.021-0.876,1.501-1.376C148.141,85.981,149.08,84.407,149.622,82.676z
		 M259.069,243.704c1.981-0.375,3.899-0.74,5.756-1.095c10.969-2.106,18.069-1.981,21.302,0.375
		c1.647,1.293,3.055,2.898,4.223,4.817c1.855,3.045,2.929,6.558,3.221,10.541c0.271,3.879-0.072,7.132-1.031,9.76
		c-0.938,2.586-1.616,4.274-2.033,5.067c-0.438,0.75-0.834,1.198-1.189,1.345c-0.354,0.146-0.813,0.271-1.376,0.376
		c-0.938,0.313-3.013,0.833-6.225,1.563c-9.593,2.085-15.202,3.315-16.828,3.69c-1.627,0.355-2.597,0.584-2.909,0.688
		c-17.851,4.463-27.078,6.443-27.683,5.943c-0.042-0.042-0.094-0.084-0.156-0.125c2.064-1.481,3.565-3.629,4.504-6.443
		c1.063-3.358,1.324-7.675,0.782-12.95c-1.105-10.177-6.173-15.766-15.202-16.766C237.611,247.864,249.227,245.602,259.069,243.704z
		 M193.132,186.994l0.469,2.471l47.89-5.442l-34.939,1.157L193.132,186.994z M212.963,178.298c-2.147-0.313-4.306-0.25-6.475,0.188
		c-1.063,0.251-2.138,0.47-3.222,0.657c-3.003,0.501-6.037,0.761-9.103,0.781c-0.229,0-0.417,0.084-0.563,0.251
		c-0.792,0.918-0.844,1.782-0.156,2.597l47.921-5.13L212.963,178.298z M239.863,235.759v-1.657l-44.511,6.005l-3.785,2.128
		l0.344,0.844L239.863,235.759z M239.707,229.722l0.063-0.656l-35.408,2.783l-12.763,3.629l0.626,1.22
		c0.229,0.042,0.511,0.053,0.845,0.031c0.167,0,0.396,0.011,0.688,0.031L239.707,229.722z M241.365,222.777l-0.532-0.469
		l-49.516,5.599l1.126,2.315l48.39-6.351L241.365,222.777z M240.833,210.642l0.532-0.845l-40.414,2.534l-9.008,1.813l-0.563,0.407
		l0.907,2.627l22.146-3.315L240.833,210.642z M239.551,215.678c-2.502,0.041-5.015-0.063-7.538-0.313
		c-2.481,0.021-4.953,0.387-7.414,1.095c-1.897,0.521-3.774,0.834-5.63,0.938c-3.232-0.25-6.454,0.021-9.665,0.813l-8.602,0.626
		l-9.197,2.127l0.282,2.471l15.64-2.972l34.001-3.848C241.011,215.99,240.386,215.678,239.551,215.678z M241.365,190.059
		l-0.532-0.438l-49.516,5.6l8.32,0.781l41.195-4.848L241.365,190.059z M239.332,202.603h-6.476l-40.945,5.161l-0.437,0.344
		l0.156,0.47l25.273-2.722l24.336-2.972L239.332,202.603z M241.396,196.565l-0.532-0.407l-48.858,5.068l-0.688,0.438l49.266-3.973
		L241.396,196.565z M220.376,130.784l-27.244,2.471l48.202-1l-0.188-2.534L220.376,130.784z M92.129,61.374
		c0.042-0.583,0-1.167-0.125-1.751c-0.25-1.105-0.845-2.033-1.783-2.784c-1.585-1.334-3.451-2.043-5.599-2.126
		c-2.481-0.292-4.858-0.042-7.131,0.75c-0.459,0.188-1.199,0.48-2.221,0.875c-1.042,0.417-1.71,1.638-2.002,3.66
		c-0.271,1.918,0.188,3.754,1.376,5.505c0.042,0.083,0.104,0.167,0.188,0.25c0.313,0.25,0.698,0.458,1.157,0.625
		c0.501,0.188,1.345,0.333,2.534,0.438c0.855,0.083,3.628-0.136,8.32-0.657c0.313,0.042,0.646,0.062,1.001,0.062
		c0.542-0.104,1.074-0.229,1.595-0.375c0.271-0.104,0.542-0.219,0.813-0.344c0.188-0.104,0.365-0.199,0.532-0.282
		c0.646-0.438,1.042-1.063,1.188-1.877C92.057,62.678,92.108,62.021,92.129,61.374z M93.943,282.71
		c0.271-0.271,0.615-0.417,1.032-0.438c0.688-0.021,1.283-0.021,1.783,0c1.209-0.021,3.034-0.031,5.474-0.031h5.661
		c0.584,0.104,0.813,0.761,0.688,1.97c-0.146,1.189,0.282,1.814,1.283,1.877c5.255,0.646,10.416,0.98,15.483,1.001
		c3.211,0.021,6.183,0.063,8.915,0.125c-0.458,1.022-1.407,1.794-2.847,2.314c-1.459,0.521-4.077,1.147-7.851,1.877
		c-3.753,0.71-8.102,0.751-13.043,0.125c-0.271-0.021-0.542-0.052-0.813-0.094c-0.438-0.083-0.886-0.188-1.345-0.313
		c-1.751-0.438-3.503-0.854-5.255-1.251c-1.793-0.438-3.263-0.99-4.41-1.658c-2.732-1.543-4.4-3.17-5.005-4.879
		C93.714,283.106,93.797,282.897,93.943,282.71z M85.311,68.506c-0.5-0.062-1.033-0.094-1.596-0.094
		c-0.833,0-1.668,0.073-2.502,0.219c-0.146,0.021-0.313,0.073-0.5,0.156c-2.169,0.5-4.098,1.585-5.787,3.253
		c-1.293,1.272-2.242,2.68-2.847,4.223c-0.542,1.376-0.813,2.867-0.813,4.473c0,3.399,1.22,6.308,3.66,8.727
		c2.419,2.398,5.349,3.597,8.789,3.597c2.711,0,5.12-0.75,7.226-2.252c0.583-0.396,1.136-0.845,1.658-1.345
		c1.418-1.418,2.419-2.992,3.003-4.723c0.417-1.272,0.625-2.596,0.625-3.973l-0.845-4.567c-0.167-0.479-0.385-0.949-0.657-1.408
		c-0.584-0.98-1.293-1.897-2.127-2.752l-0.031-0.032c-1.543-1.501-3.243-2.534-5.099-3.096c-0.333-0.084-0.657-0.167-0.97-0.25
		C86.103,68.58,85.707,68.527,85.311,68.506z"/>
	<path fill-rule="evenodd" clip-rule="evenodd" fill="#515669" d="M156.91,82.269c0,3.107-1.439,5.745-4.317,7.914
		c-2.794,2.169-6.235,3.252-10.322,3.252c-4.066,0-7.539-1.083-10.417-3.252c-2.836-2.169-4.254-4.807-4.254-7.914
		c0-1.376,0.042-2.492,0.125-3.347c-0.896,0.438-1.95,0.625-3.159,0.563c-1.626-0.042-3.086-0.949-4.379-2.721
		c-0.146-0.146-0.271-0.313-0.375-0.5c-0.125-0.125-0.24-0.261-0.344-0.407c-1.334-1.502-2.919-2.252-4.754-2.252
		c-1.876,0-3.503,0.75-4.88,2.252c-0.104,0.146-0.229,0.323-0.375,0.531c-0.479,0.522-0.959,1.293-1.438,2.315
		c-0.521,0.938-1.554,1.814-3.097,2.627c-1.585,0.834-3.503,0.667-5.755-0.5c0.479,1.021,0.719,2.513,0.719,4.473
		c0,3.107-1.438,5.745-4.316,7.914c-2.836,2.168-6.288,3.253-10.354,3.253c-4.045,0-7.507-1.084-10.384-3.253
		c-2.836-2.169-4.254-4.807-4.254-7.914c0-3.128,1.418-5.776,4.254-7.945c2.877-2.169,6.339-3.253,10.384-3.253
		c3.483,0,6.506,0.813,9.071,2.439c6.527,3.191,10.667,2.722,12.418-1.408c0.396-0.688,0.907-1.324,1.533-1.908
		c1.856-1.856,4.129-2.784,6.819-2.784c2.648,0,4.566,0.615,5.755,1.846c1.209,1.146,2.367,2.44,3.472,3.878
		c1.105,1.356,3.691,0.709,7.757-1.939h0.094c0.229-0.209,0.49-0.417,0.782-0.625c2.648-1.689,5.766-2.534,9.353-2.534
		c4.087,0,7.528,1.084,10.322,3.253C155.471,76.493,156.91,79.141,156.91,82.269z M100.794,143.891
		c0.813,0.604,2.085,0.511,3.816-0.282c2.189-1.021,4.066-1.449,5.63-1.282c1.793,0.167,3.587,1.669,5.38,4.505
		c1.167,1.855,2.116,3.128,2.847,3.815c-2.648,0.73-6.298,2.597-10.948,5.6c-2.586-1.897-4.546-3.556-5.881-4.974
		c-1.626-1.669-2.888-3.493-3.785-5.475c-0.688-1.459-1.011-2.616-0.97-3.472c0.021-1.188,0.594-2.231,1.721-3.128
		C99.292,141.701,100.022,143.265,100.794,143.891z M93.412,79.329c-2.356-1.438-5.213-2.158-8.57-2.158s-6.194,0.72-8.508,2.158
		c-2.335,1.418-3.503,3.139-3.503,5.161c0,2.023,1.168,3.743,3.503,5.161c2.314,1.418,5.151,2.127,8.508,2.127
		s6.214-0.709,8.57-2.127c2.336-1.418,3.503-3.138,3.503-5.161C96.915,82.467,95.748,80.747,93.412,79.329z M153.938,81.456
		c0-2.043-1.168-3.774-3.504-5.192c-2.314-1.439-5.15-2.158-8.508-2.158s-6.214,0.719-8.571,2.158
		c-2.314,1.418-3.472,3.149-3.472,5.192c0,2.023,1.157,3.743,3.472,5.161c2.356,1.418,5.213,2.126,8.571,2.126
		s6.193-0.708,8.508-2.126C152.771,85.199,153.938,83.479,153.938,81.456z M149.121,169.165v16.422
		c-5.234-2.399-9.384-4.682-12.449-6.851c-0.229-0.188-0.459-0.355-0.688-0.501l0.062-0.031c3.691-3.857,6.392-7.643,8.102-11.354
		L149.121,169.165z M113.243,280.208c0.042-1.022,0.052-2.242,0.031-3.66c-0.021-1.438,0.021-2.888,0.125-4.349
		c5.484-2.021,9.78-5.953,12.887-11.792c0.021,4.88,0.302,7.445,0.844,7.695c4.296-0.292,6.36,1.428,6.194,5.161
		c1.167,0.104,2.346,0.229,3.534,0.375c2.627,0.292,4.379,0.886,5.255,1.783c0.897,0.855,0.938,2.033,0.125,3.534
		c-0.271,0.417-0.563,0.834-0.876,1.252c-0.73,0.917-1.595,1.72-2.596,2.408c-1.46,1.334-3.545,1.971-6.256,1.908
		c-2.732-0.084-5.693-0.209-8.883-0.376c-3.191-0.166-5.547-0.239-7.07-0.219c-1.564,0.021-2.544-0.25-2.94-0.813
		c-0.354-0.459-0.49-1.303-0.407-2.533C113.212,280.479,113.222,280.354,113.243,280.208z M137.329,225.844
		c0.709,0.5,1.074,2.647,1.095,6.443c0.021,3.753-0.177,5.933-0.594,6.537c-0.459,0.563-1.439,0.918-2.94,1.063
		c-1.502,0.126-3.577,0.156-6.225,0.094c-2.002-0.042-3.159-0.208-3.472-0.5c-0.355-0.334-0.542-1.397-0.563-3.19
		c-0.021-1.856,0.063-3.733,0.25-5.631c0.146-1.877,0.407-3.211,0.782-4.004c0.354-0.792,1.063-1.22,2.127-1.282
		c1.021-0.104,2.147-0.115,3.378-0.031C134.545,225.176,136.599,225.343,137.329,225.844z M53.249,267.853l-0.125-0.282h8.102
		c0.354,0.605,0.542,2.2,0.563,4.786c0,2.231,0,4.077,0,5.536c-0.021,0.896-0.031,1.669-0.031,2.315
		c-0.021,0.688-0.031,1.198-0.031,1.532c-0.042,0.646-0.333,1.178-0.876,1.596c-0.563,0.396-1.491,0.583-2.784,0.563
		c-2.335-0.063-5.307-0.083-8.915-0.063c-5.297,0-8.279,0-8.946,0c-1.71,0-2.2-0.887-1.47-2.658c0.146-0.355,0.292-0.678,0.438-0.97
		c1.042-2.106,2.263-3.524,3.66-4.255c1.605-0.834,4.014-1.167,7.226-1.001c3.232,0.146,5.526,0.657,6.882,1.533
		c1.355,0.854,1.48,0.531,0.375-0.97c-1.105-1.522-2.398-2.263-3.878-2.222c1.209-0.396,2.951-0.313,5.224,0.251
		c-0.5-1.814-2.043-2.753-4.629-2.815c-0.375,0.042-0.699,0.083-0.97,0.125c0.146-0.313,0.282-0.614,0.406-0.907
		c0.042-0.188,0.073-0.364,0.094-0.531C53.624,268.999,53.52,268.478,53.249,267.853z M24.878,191.498
		c0.333-2.669,1.262-5.349,2.784-8.039l0.688-0.125c0.396,0.771,0.792,1.554,1.188,2.346c2.106,4.191,4.64,8.07,7.601,11.637
		c1.334,1.647,2.773,3.222,4.316,4.723c4.859,4.775,10.343,8.77,16.453,11.98c4.192,2.231,8.487,4.223,12.887,5.975
		c5.026,1.98,10.176,3.722,15.453,5.224c9.113,2.544,18.392,4.233,27.839,5.067c0.021,0.793,0.042,1.574,0.063,2.346
		c0.083,2.252-0.042,4.65-0.375,7.194c-0.104,0.855-0.803,1.471-2.096,1.846c-1.293,0.376-5.954,0.063-13.982-0.938
		c-8.07-1.021-15.536-2.564-22.396-4.629c-6.193-1.856-12.188-4.234-17.986-7.132c-7.132-3.629-13.148-7.664-18.048-12.105
		c-4.171-3.754-7.372-7.018-9.603-9.791c-0.417-0.5-0.782-0.99-1.095-1.47c-1.793-2.481-2.961-5.245-3.503-8.289
		c-0.125-0.709-0.208-1.429-0.25-2.158C24.711,193.928,24.732,192.707,24.878,191.498z"/>
	<path fill-rule="evenodd" clip-rule="evenodd" fill="#010101" d="M34.293,38.071c4.734,3.983,9.113,5.474,13.138,4.473
		c3.128-0.771,6.037-3.055,8.727-6.851c0.104-0.125,0.208-0.271,0.313-0.438c1.23-1.688,2.627-3.878,4.191-6.569
		c0.876-1.688,1.679-3.231,2.409-4.629c1.397-2.565,2.534-4.629,3.41-6.194c2.398-4.128,4.984-7.319,7.757-9.571
		c1.689-1.376,3.18-2.367,4.473-2.972c1.689-0.771,3.451-1.115,5.286-1.032c1.96,0.083,4.4,0.115,7.319,0.094
		c1.626-0.021,4.4,0.125,8.321,0.438c0.583-0.543,1.032-0.97,1.345-1.283c0.605-0.042,2.075-0.188,4.411-0.438
		c2.314-0.25,6.225-0.031,11.729,0.657c5.526,0.688,9.426,1.397,11.699,2.127c5.067,1.564,9.843,3.711,14.326,6.443
		c5.193,3.128,8.061,7.632,8.603,13.513c0.042,0.521,0.271,0.959,0.688,1.314c1.481,0.521,2.597,1.47,3.347,2.847
		c0.667,1.126,1.054,2.502,1.158,4.128c0.333,4.108,0.406,7.017,0.219,8.727c-0.292,2.92-1.648,6.538-4.066,10.854v0.032
		c-0.063,0.042-0.104,0.094-0.125,0.156c-0.042,0.042-0.073,0.094-0.094,0.157c0.854,1.501,1.188,3.336,1.001,5.505
		c0.042,0.917,0.334,1.459,0.876,1.626c0.417,0.104,1.011,0.021,1.782-0.25c3.191-1.106,5.349-1.491,6.476-1.158
		c1.146,0.333,2.972,1.897,5.474,4.692c0.292,0.23,0.542,0.459,0.75,0.688c0.104,0.104,0.198,0.219,0.282,0.344
		c0.459,0.604,0.688,1.282,0.688,2.033c0,0.271-0.032,0.615-0.095,1.032c-0.146,0.668-0.416,1.491-0.813,2.471
		c-0.501,1.335-1.314,2.659-2.44,3.973c-0.438,0.479-1.532,1.574-3.284,3.284c-0.938,0.896-1.491,1.762-1.657,2.596
		c-0.188,0.918,0.292,2.648,1.438,5.192c1.126,2.565,3.754,5.933,7.882,10.104c4.13,4.171,6.299,8.341,6.507,12.512
		c0.084,2.148-0.25,3.597-1.001,4.348c12.199-0.688,21.041-1.146,26.525-1.376c3.023-0.104,5.015-0.156,5.974-0.156
		c1.606,0.021,4.036,0.042,7.289,0.063c0.688,0,1.157-0.052,1.407-0.156c0.417-0.167,0.751-0.563,1.001-1.188
		c1.627-3.899,3.993-6.131,7.101-6.694c4.65-0.876,9.415,0.615,14.295,4.473c2.356,1.877,4.338,4.337,5.943,7.382
		c0.917,1.71,1.835,3.899,2.753,6.568c0.333,1.544,0.646,3.086,0.938,4.63c2.377,12.22,3.189,24.544,2.439,36.973
		c-0.126,1.668-0.229,3.336-0.313,5.005l-2.784,33.281c-0.124,1.252-0.249,2.503-0.375,3.754c-0.813,9.112-0.489,18.226,0.97,27.338
		l1.814,7.852c3.462-0.229,8.936-1.074,16.422-2.534c7.465-1.479,13.461-1.146,17.986,1.002c0.688,0.417,1.418,0.886,2.189,1.407
		c1.793,0.959,3.284,2.616,4.473,4.974c0.542,1.105,1.345,3.306,2.408,6.6c0.146,0.479,0.323,1.209,0.532,2.189
		c0.188,0.98,0.364,1.721,0.532,2.222c0.979,2.919,1.042,5.974,0.188,9.165c-0.688,2.585-2.002,5.338-3.941,8.257
		c-0.626,0.98-1.585,1.877-2.878,2.69c-5.317,1.168-11.928,2.784-19.832,4.849c-11.364,2.919-17.484,4.473-18.36,4.66
		c-1.71,0.376-4.4,1.043-8.07,2.002c-3.524,0.918-6.235,1.585-8.133,2.002c-0.626,0.125-1.345,0.354-2.158,0.688
		c-0.896,0.375-1.585,0.657-2.064,0.845c-3.482,1.355-8.133,2.033-13.951,2.033c-5.943-0.021-11.073-1.126-15.39-3.315
		c-4.337-2.211-7.851-4.776-10.541-7.695c-0.688-0.75-1.282-1.126-1.783-1.126c-0.167,0-0.323,0.052-0.469,0.156l-37.129,7.444
		c-4.817,0.855-10.114,1.908-15.891,3.159c-9.759,2.106-16.891,2.815-21.396,2.128c-0.417-0.042-2.888-0.448-7.413-1.221
		c-8.174-1.459-13.409-4.65-15.702-9.571c-0.355-0.459-0.636-1.188-0.845-2.189c-0.021-0.167-0.042-0.313-0.063-0.438
		c-0.146-1.356,0.406-2.097,1.658-2.222c0.813-0.104,2.064-0.094,3.753,0.031h8.039c2.982-0.021,4.734-0.302,5.255-0.845
		c0.521-0.542,0.803-2.429,0.845-5.661h-9.666c-5.005,0.021-10.26-0.667-15.765-2.064c-4.316-1.126-9.342-2.836-15.077-5.13
		c-0.896-0.418-1.575-0.73-2.033-0.938c-0.104,1.919-0.938,3.222-2.502,3.91c-0.188,0.083-0.375,0.156-0.563,0.219
		c0.021,0.104,0.031,0.229,0.031,0.375c0.021,0.354,0.042,0.72,0.063,1.095c0.167,4.817,0.146,9.302-0.063,13.451
		c-0.042,1.146-0.417,2.043-1.126,2.689c-0.709,0.688-1.7,1.032-2.972,1.032c-10.051-0.083-17.59-0.073-22.615,0.031
		c-1.084,0.021-1.793-0.229-2.127-0.751c-0.229-0.333-0.365-1.053-0.407-2.158c-0.042-1.877,0.156-3.514,0.594-4.91
		c0.5-1.605,1.355-3.034,2.565-4.285c1.522-1.627,2.544-3.327,3.065-5.1c0.375-1.292,0.479-2.617,0.313-3.972
		c-0.896,0.041-1.564,0.041-2.002,0c-0.771-0.042-1.23-0.146-1.376-0.313c-0.146-0.188-0.261-1.981-0.344-5.381
		c-0.104-3.44,0.49-6.142,1.783-8.102c-14.722-10.155-24.794-19.842-30.216-29.059c-3.962-6.673-5.693-13.43-5.192-20.27
		c1.856,0.313,4.567-0.323,8.133-1.908l1.345-0.532c2.293-1.083,4.066-2.116,5.317-3.096c0.458-0.355,0.844-0.709,1.157-1.063
		c0.584-0.626,1.043-1.304,1.376-2.033c0.333-0.751,0.563-1.564,0.688-2.44c0.98-3.774,1.689-6.975,2.127-9.603
		c0.25-1.585,0.605-2.93,1.064-4.035c3.148-22.271,7.444-35.784,12.887-40.538c-3.878-9.989-5.296-20.729-4.254-32.219
		c1.022-11.532,3.451-22.876,7.288-34.032l0.344-0.563c-4.588,0.333-9.144-1.428-13.669-5.286c-1.459-1.251-2.909-2.69-4.348-4.317
		c-5.964-6.861-5.954-13.899,0.031-21.114c1.501-1.356,3.19-2.346,5.067-2.972C30.978,36.455,32.771,36.778,34.293,38.071z
		 M25.503,41.7c1.897,12.115,8.748,17.537,20.551,16.265c0.25-0.021,0.49-0.042,0.72-0.063c0.417-0.104,1.991-0.875,4.723-2.314
		c2.69-1.439,5.161-3.608,7.413-6.506c2.231-2.92,4.65-6.121,7.257-9.604c2.607-3.524,4.64-5.515,6.1-5.974
		c1.459-0.479,2.972-0.875,4.536-1.188c1.564-0.313,3.222-0.407,4.974-0.281c0.458,0,1.96,0.104,4.504,0.313
		c1.209-4.296,4.89-12.606,11.042-24.93c-2.21,0.063-3.878,0.104-5.005,0.125c-4.859,0.021-7.997,0.021-9.415,0
		c-2.106-0.062-4.025,0.428-5.755,1.471c-1.605,0.938-2.972,2.262-4.098,3.972c-2.586,3.962-4.849,7.653-6.788,11.073
		c-1.939,3.357-3.556,6.443-4.849,9.259c-0.917,2.002-2.158,3.962-3.722,5.881c-3.211,4.045-6.631,6.38-10.26,7.006
		c-3.941,0.689-8.143-0.646-12.606-4.003C31.843,39.99,28.736,39.823,25.503,41.7z M107.457,5.696
		c-2.21,0.083-3.764,0.104-4.661,0.063c-0.354,0.563-0.938,1.356-1.752,2.377c-3.607,4.42-7.528,14.524-11.761,30.31
		c0.334,0.896,0.771,1.783,1.314,2.659c0.771,0.271,1.887,0.751,3.347,1.439c4.796,2.21,8.436,3.733,10.917,4.566
		c2.44,0.792,6.12,1.856,11.042,3.191c6.298,1.668,10.677,2.752,13.138,3.253c4.733,0.897,9.05,1.293,12.95,1.189
		c0.334-0.98,0.928-2.398,1.783-4.254c1.272-2.836,2.482-7.09,3.629-12.763c0.875-4.295,1.408-7.778,1.595-10.447
		c0-0.042,0.01-0.083,0.031-0.125c-0.021-4.525-1.908-8.144-5.662-10.854c-4.442-3.107-9.29-5.39-14.545-6.85
		c-3.837-1.272-7.622-2.221-11.354-2.846C112.961,5.873,109.625,5.571,107.457,5.696z M85.561,36.226
		c-0.229-0.709-0.917-1.063-2.064-1.063c-3.67-0.021-6.433,0.156-8.289,0.531c-0.438,0.084-0.813,0.177-1.126,0.282
		c-3.128,1.021-6.016,3.566-8.665,7.632c-2.648,4.046-5.505,7.486-8.571,10.322c-3.065,2.815-4.838,4.275-5.317,4.379
		c-4.65,3.253-9.363,4.41-14.139,3.472l1.189,0.313c-9.321-1.731-14.274-7.528-14.858-17.392c-1.96,4.108-1.679,8.362,0.844,12.762
		c1.918,3.316,4.65,5.693,8.196,7.132c0.855,0.354,1.72,0.657,2.596,0.907c4.567,1.313,9.134,1.397,13.701,0.25
		c0.313-0.083,0.625-0.167,0.938-0.25c2.127-0.625,4.254-1.522,6.381-2.69l-1.439,0.719c4.65-3.044,7.987-6.548,10.01-10.51h0.063
		c3.044-6.11,6.851-9.738,11.417-10.885l0.751-0.157c0.479-0.104,0.97-0.177,1.47-0.219c0.584-0.042,2.242-0.052,4.974-0.031
		c1.189,0,1.867-0.386,2.033-1.158c-0.063-0.979-0.094-1.709-0.094-2.189C85.644,37.132,85.644,36.413,85.561,36.226z
		 M77.928,44.984c-3.711,1.167-7.757,5.046-12.136,11.636c-0.813,1.293-1.721,2.502-2.722,3.628c0.605,1.772,1.095,3.524,1.47,5.255
		c2.523,10.885,1.022,20.092-4.504,27.62c-6.401,8.696-6.401,14.722,0,18.08c6.36,3.357,10.823,1.856,13.388-4.504
		c-1.564-3.357-2.127-7.851-1.689-13.481c2.857,3.795,5.881,5.807,9.071,6.037c1.314,0.083,3.441-0.595,6.381-2.033
		c1.48-0.897,3.002-2.075,4.566-3.535c1.564-1.459,3.107-2.263,4.629-2.408c1.564-0.167,3.493,0.021,5.787,0.563
		c-2.001-1.501-1.876-3.681,0.375-6.538c1.251-1.23,1.877-1.459,1.877-0.688c-0.063,0.25-0.125,0.521-0.188,0.813
		c-0.917,3.67,0.188,5.704,3.315,6.1c1.46,0.313,2.335,0.574,2.627,0.782c0.292,0.167,1.251,0.667,2.877,1.501
		c1.606,0.813,3.285,0.448,5.037-1.095c1.73-1.585,3.388-2.743,4.973-3.472c1.543-0.75,2.033-1.981,1.47-3.691
		c-0.584-1.71-0.97-2.993-1.157-3.848c-0.208-0.855,0.386-0.636,1.783,0.657c1.981,3.315,2.523,5.787,1.626,7.413
		c3.295-1.084,8.144,0.511,14.545,4.786c-0.125,0.125,1.647,0.927,5.317,2.408c3.67,1.501,6.631-0.375,8.883-5.63
		c0.418,1.605,0.386,3.827-0.094,6.663c-0.208,1.188-0.626,2.335-1.251,3.441c10.197,6.881,10.312-2.544,0.344-28.277l-4.629-4.974
		c-0.063-0.167-0.146-0.323-0.25-0.469c-0.063-0.146-0.208-0.887-0.438-2.221c-0.042-0.125-0.063-0.24-0.063-0.344
		c-0.042-0.229-0.094-0.48-0.156-0.75c-0.229-1.376-0.897-2.325-2.002-2.847c-0.271-0.146-1.303-0.73-3.097-1.752
		c-0.709,2.357-1.48,3.712-2.315,4.066c-3.399,0.938-7.528,1.074-12.387,0.407c-0.917,0-1.334-0.876-1.251-2.627v-0.031
		c-0.063-0.167-0.104-0.344-0.125-0.532c-0.021-0.083-0.042-0.167-0.063-0.25c-0.25-1.522-1.021-2.919-2.314-4.191
		c-1.272-1.272-3.243-2.221-5.912-2.846c-1.71-0.375-3.628-0.855-5.755-1.439c-12.095-4.004-20.186-6.36-24.273-7.069
		c-4.171-0.73-7.017-0.991-8.54-0.782C79.419,44.682,78.408,44.838,77.928,44.984z M147.682,48.174
		c0.855,0.542,2.575,1.199,5.162,1.971c2.085-2.607,3.128-6.725,3.128-12.355c-0.042-5.651-1.669-8.529-4.88-8.634
		c-0.354,3.587-1.105,8.133-2.252,13.639C148.839,43.274,148.454,45.067,147.682,48.174z M234.733,108.106
		c-5.692-3.044-9.811-2.179-12.355,2.597c-0.021,0.062-0.021,0.125,0,0.188c11.386,3.899,16.975,4.035,16.766,0.407L234.733,108.106
		z M218.906,116.615c0.813,0.042,2.231,0.083,4.254,0.125h-0.938l8.899,1.157c-1.731-0.188-2.414-0.208-2.049-0.063
		c0.417,0.167,0.448,0.25,0.094,0.25c-5.609,0.021-9.801,0.031-12.574,0.031c-4.983,0.021-9.176,0-12.574-0.062
		c-0.229,0-0.479,0-0.751,0c-1.96,0.041-4.828,0.417-8.603,1.126c-3.002,0.563-6.662,1.084-10.979,1.563
		c2.794,3.879,4.254,9.843,4.379,17.892c0,0.688,0,1.419,0,2.189c0,1.481-0.042,3.682-0.125,6.601
		c-1.481,18.769-2.544,31.207-3.19,37.316c-0.229,3.649-0.584,7.841-1.063,12.575c-0.167,1.313-0.313,2.669-0.438,4.066
		c0.167,9.321-0.156,17.235-0.97,23.741c-0.813,6.526-0.845,14.659-0.094,24.397c0.396,5.276,0.678,8.394,0.845,9.354
		c0.166,0.938,0.594,2.388,1.282,4.348c0.668,1.939,1.252,3.597,1.752,4.974c0.479,1.334,2.044,4.274,4.692,8.82
		s5.974,7.862,9.978,9.947c4.004,2.044,7.862,3.326,11.574,3.848c3.69,0.501,7.788,0.333,12.292-0.501
		c1.314-0.271,2.649-0.803,4.004-1.595c1.335-0.834,1.888-1.908,1.658-3.223c-7.527,2.648-11.208,3.42-11.042,2.315
		c1.627-0.688,3.765-1.439,6.413-2.252c4.128-1.314,6.756-2.972,7.882-4.974c-6.276,1.084-10.833,1.897-13.669,2.439
		c-2.836,0.521-4.441,0.626-4.817,0.313c-0.396-0.334-0.595-0.637-0.595-0.907c-0.021-0.251,0.98-0.71,3.004-1.377
		c-5.276,0.563-9.343-0.584-12.199-3.44c-1.647,0.313-3.16,0.678-4.535,1.095l-1.033-0.251c0.188-0.313,0.292-0.563,0.313-0.75
		c1.104-0.333,2.46-0.793,4.066-1.376c-0.646-0.855-1.21-1.825-1.689-2.909l-3.723,0.625c-0.146-0.021-0.678-0.313-1.595-0.875
		l0.25,0.124c1.689-0.667,3.139-1.219,4.348-1.657c-0.375-1.063-0.688-2.221-0.938-3.472v-0.032
		c-2.732,0.438-4.912,0.793-6.538,1.064c-0.521-0.146-0.813-0.313-0.876-0.501c-0.084-0.208-0.104-0.386-0.063-0.531
		c1.689-0.604,4.098-1.429,7.226-2.472c-0.042-1.647,0.209-3.211,0.751-4.691c-1.939,0.125-4.578,0.511-7.914,1.157
		c-0.521,0.104-0.98,0.198-1.377,0.281c-0.333-0.417-0.677-0.876-1.031-1.376c1.063-0.104,2.721-0.449,4.974-1.032
		c2.189-0.542,4.306-0.907,6.35-1.095c0.604-1.043,1.355-2.044,2.252-3.003c-3.712,0.604-6.225,0.834-7.539,0.688
		c-2.773-0.292-4.202-0.449-4.285-0.47l14.483-2.533c0.479-0.376,0.979-0.73,1.501-1.063c1.898-1.794,7.278-3.556,16.14-5.287
		c-0.104,0-0.197-0.01-0.28-0.031l13.105-2.689c-0.166-0.98-2.815-1.054-7.944-0.22c-5.13,0.855-7.758,1.429-7.883,1.721
		c-0.063,0.208,0.021,0.512,0.25,0.907c-2.481-0.313-3.67-0.595-3.565-0.844c-0.709,0.166-1.939,0.416-3.691,0.75
		c-3.524,0.688-6.298,1.157-8.32,1.407c-2.064,0.251-5.995,0.74-11.793,1.471c-2.043,0.25-3.681,0.49-4.911,0.719
		c-0.021-0.104-0.041-0.219-0.062-0.344c-0.063-0.229-0.084-0.459-0.063-0.688c0.104-0.021,1.729-0.271,4.879-0.751
		s5.297-0.771,6.443-0.876c1.105-0.146,3.618-0.511,7.539-1.095c3.94-0.626,13.69-2.356,29.246-5.192
		c0.125,0.333,0.563,1.095,1.314,2.283l10.071-2.158c-3.753-18.894-3.534-44.167,0.657-75.822v-23.209
		c-0.084-0.751-0.167-1.502-0.25-2.253c-0.667-6.235-1.855-12.366-3.566-18.393c-1.188-2.794-2.367-4.932-3.534-6.412
		c-0.396-0.5-0.688-0.667-0.876-0.5c-0.209,0.167-1.324,0.563-3.347,1.188c-2.002,0.605-7.81-0.333-17.423-2.815
		c-2.189,0.771-4.599,1.23-7.226,1.376c-3.754,0.146-7.174,0.261-10.26,0.344c-5.297,0.083-9.551-0.01-12.763-0.282
		c-0.75-0.062-1.688-0.083-2.815-0.062c-1.251,0.021-2.199,0.031-2.846,0.031c-0.584-0.042-1.022-0.083-1.313-0.125
		c-0.501-0.042-0.855,0.021-1.064,0.188c-0.813,0.688-1.188,1.303-1.125,1.845c0.021,0.626,0.604,1.074,1.751,1.345
		c7.591-0.458,14.315-0.833,20.176-1.125c3.795-0.209,7.235-0.387,10.322-0.533C215.569,116.469,217.342,116.531,218.906,116.615z
		 M203.267,128.188c-1.189,0.188-2.388,0.427-3.598,0.719c-2.669,0.604-5.338,0.709-8.007,0.313
		c0.229-1.793,1.313-2.794,3.253-3.003c2.794-0.188,5.578-0.354,8.352-0.5c11.824-0.668,23.657-1.043,35.502-1.126l0.72,1.376
		l-8.445,2.002c-8.717-0.313-17.413-0.344-26.087-0.094C204.393,127.958,203.83,128.063,203.267,128.188z M206.989,144.923
		c4.899-0.855,8.57-1.179,11.01-0.971c2.961,0.23,6.59,0.324,10.886,0.282c2.419-0.021,6.048-0.083,10.885-0.188
		c0.501,0,0.866,0.063,1.095,0.188c0.313,0.167,0.49,0.448,0.532,0.845c0,0.063-0.156,0.177-0.469,0.344
		c-0.335,0.167-0.605,0.25-0.813,0.25c-2.169,0.125-3.785,0.125-4.849,0c-3.691-0.417-8.956-0.198-15.796,0.657
		c-7.194,0.876-12.46,1.199-15.797,0.97c-0.125,0-0.261,0.011-0.406,0.031c-0.751,0.083-1.647,0.5-2.69,1.251
		c-1.126,0.813-1.96,1.085-2.502,0.813c-1.022-0.229-1.721-0.386-2.097-0.47c-0.542-0.146-0.896-0.313-1.063-0.5
		c-0.334-0.396-0.376-1.095-0.125-2.096c0.041-0.146,0.208-0.292,0.5-0.438c0.292-0.126,0.553-0.178,0.782-0.156
		c1.814,0.208,4.212,0.125,7.194-0.251C204.435,145.34,205.675,145.152,206.989,144.923z M195.103,139.417l28.309-1.657
		l17.578,1.313l-46.325,2.565L195.103,139.417z M194.102,160.344c0.729-0.084,2.481-0.459,5.255-1.126
		c1.46-0.354,2.763-0.553,3.91-0.595c0.542-0.063,1.053-0.083,1.532-0.063c2.147,0.146,5.954-0.22,11.418-1.095
		c4.816-0.771,8.633-0.865,11.448-0.281c0.854,0.125,3.148,0.073,6.881-0.157c2.836-0.188,5.108,0.178,6.819,1.096
		c-1.939,0.604-4.191,0.896-6.757,0.876c-1.188-0.043-3.45-0.199-6.787-0.47c-1.46-0.104-3.399,0.178-5.818,0.845
		c-2.565,0.667-4.463,0.99-5.693,0.97c-2.752-0.209-4.816-0.334-6.192-0.376c-2.419-0.083-4.38,0.136-5.881,0.657
		c-0.334,0.125-0.657,0.229-0.97,0.313c-1.23,0.334-2.586,0.574-4.066,0.72c-0.375,0.021-2.033,0.114-4.974,0.281
		c-0.188,0-0.406-0.094-0.657-0.281c-0.292-0.209-0.5-0.354-0.625-0.438c0.25-0.23,0.438-0.407,0.563-0.532
		C193.736,160.479,193.935,160.364,194.102,160.344z M196.541,152.992c0.98-0.646,1.846-0.938,2.597-0.875
		c1.042,0.063,2.419,0.041,4.129-0.063c2.439-0.146,5.536-0.489,9.29-1.031c5.672-0.835,10.177-0.938,13.513-0.313
		c0.98,0.124,3.545,0.052,7.694-0.22c3.149-0.229,5.684,0.146,7.602,1.126c-2.189,0.563-4.713,0.845-7.57,0.845
		c-1.501,0-4.035-0.146-7.601-0.438c-1.439-0.104-3.389,0.177-5.85,0.844c-2.544,0.668-4.431,0.991-5.661,0.971
		c-2.753-0.168-4.807-0.262-6.162-0.282c-2.086-0.084-3.837,0.052-5.255,0.406c-0.229,0.042-0.459,0.095-0.688,0.156
		c-2.898,0.855-5.683,1.294-8.352,1.314c-0.188,0-0.406-0.094-0.657-0.281c-0.292-0.209-0.5-0.354-0.625-0.438
		c0.25-0.25,0.438-0.438,0.563-0.563c0.229-0.209,0.427-0.303,0.594-0.282C194.706,153.931,195.52,153.639,196.541,152.992z
		 M194.039,166.818l33.469-3.253l12.825,0.031l1.282,0.782l-33.094,2.439l-13.951,1.627l-1.376-0.845L194.039,166.818z
		 M184.717,162.314c-0.208,4.629,0.012,1.532,0.658-9.291c0.604-10.843-0.345-19.664-2.848-26.462
		c-2.544-6.819-6.558-9.802-12.042-8.946c-0.063,0-0.115,0.021-0.157,0.063c-1.584-0.604-4.045,0.125-7.382,2.189
		c-2.23,1.314-3.993,3.535-5.286,6.663c-2.314,4.796-4.003,10.332-5.067,16.609c-0.584,3.524-1.21,9.999-1.876,19.425
		c-0.188,2.46-0.219,6.245-0.094,11.354c0.083,3.482,0.083,6.381,0,8.696c0.125,1.104,0.292,4.274,0.5,9.508
		c0.084,1.794,0.156,3.524,0.219,5.193c0.23,6.777,0.417,12.188,0.563,16.233c0.166,5.005,0.271,9.676,0.313,14.014
		c0,1.79-0.25,7.42-0.751,16.892c-1.042,18.809-3.138,31.103-6.287,36.879c-2.335,4.212-3.92,6.693-4.754,7.444
		c1.272-0.229,2.888-0.511,4.848-0.845c6.173-1.043,10.104-1.835,11.793-2.377c0.604-0.209,10.062-2.189,28.37-5.943
		c1.404-0.033,2.177-0.378,2.315-1.032c0.167-0.709-0.156-1.783-0.97-3.222c-3.712-6.485-5.943-13.931-6.694-22.334
		c-0.375-4.171-0.553-8.884-0.532-14.139c0.021-1.939,0.073-4.452,0.157-7.538c0,0.229,0,0.459,0,0.688
		c0.938-18.894,1.563-30.467,1.876-34.721c0.063-0.835,0.115-1.377,0.157-1.627c0.813-5.588,1.762-16.725,2.847-33.406
		c0.124-1.752,0.229-3.128,0.313-4.13C184.843,159.113,184.78,160.5,184.717,162.314z M203.267,174.701
		c-0.522,0.041-1.042,0.052-1.564,0.031c-2.815-0.063-5.421,0.573-7.819,1.907l-0.782-2.721c3.378-0.5,6.767-1.001,10.166-1.502
		c5.317-0.792,10.688-1.553,16.108-2.283c2.606-0.354,5.266-0.375,7.977-0.063c4.233,0,8.487-0.011,12.763-0.031
		c0.75,0,1.188,0.313,1.313,0.938c-1.835,1.043-4.077,1.345-6.726,0.907c-4.232-0.543-8.414-0.167-12.543,1.126
		c-1.084,0.376-2.211,0.448-3.378,0.219c-4.254-0.667-8.436-0.365-12.543,0.907C205.237,174.43,204.246,174.618,203.267,174.701z
		 M203.267,123.371c-4.964-0.104-9.957-0.418-14.983-0.938l47.576-2.69l0.563,1.188
		C225.434,122.766,214.381,123.579,203.267,123.371z M220.376,130.784l20.771-1.063l0.188,2.534l-48.202,1L220.376,130.784z
		 M239.332,202.603l1.908,0.281l-24.336,2.972l-25.273,2.722l-0.156-0.47l0.437-0.344l40.945-5.161H239.332z M241.396,196.565
		l-0.813,1.126l-49.266,3.973l0.688-0.438l48.858-5.068L241.396,196.565z M241.365,190.059l-0.532,1.096l-41.195,4.848l-8.32-0.781
		l49.516-5.6L241.365,190.059z M240.833,223.872l-48.39,6.351l-1.126-2.315l49.516-5.599l0.532,0.469L240.833,223.872z
		 M240.833,210.642l-26.4,3.222l-22.146,3.315l-0.907-2.627l0.563-0.407l9.008-1.813l40.414-2.534L240.833,210.642z
		 M241.428,216.615l-34.001,3.848l-15.64,2.972l-0.282-2.471l9.197-2.127l8.602-0.626c3.211-0.792,6.433-1.063,9.665-0.813
		c1.855-0.104,3.732-0.417,5.63-0.938c2.461-0.708,4.933-1.073,7.414-1.095c2.523,0.251,5.036,0.354,7.538,0.313
		C240.386,215.678,241.011,215.99,241.428,216.615z M239.863,235.759l-47.952,7.319l-0.344-0.844l3.785-2.128l44.511-6.005V235.759z
		 M239.707,229.722l-45.95,7.038c-0.291-0.021-0.521-0.031-0.688-0.031c-0.334,0.021-0.615,0.011-0.845-0.031l-0.626-1.22
		l12.763-3.629l35.408-2.783L239.707,229.722z M212.963,178.298l28.402-0.656l-47.921,5.13c-0.688-0.814-0.636-1.679,0.156-2.597
		c0.146-0.167,0.334-0.251,0.563-0.251c3.065-0.021,6.1-0.28,9.103-0.781c1.084-0.188,2.158-0.406,3.222-0.657
		C208.657,178.048,210.815,177.985,212.963,178.298z M193.132,186.994l13.419-1.814l34.939-1.157l-47.89,5.442L193.132,186.994z
		 M234.296,286.776c0.604,0.5,9.832-1.48,27.683-5.943c0.313-0.104,1.282-0.333,2.909-0.688c1.626-0.375,7.235-1.605,16.828-3.69
		c3.212-0.73,5.286-1.251,6.225-1.563c0.563-0.104,1.022-0.23,1.376-0.376c0.355-0.146,0.751-0.595,1.189-1.345
		c0.417-0.793,1.095-2.481,2.033-5.067c0.959-2.628,1.303-5.881,1.031-9.76c-0.292-3.983-1.365-7.496-3.221-10.541
		c-1.168-1.919-2.575-3.524-4.223-4.817c-3.232-2.356-10.333-2.481-21.302-0.375s-24.503,4.733-40.602,7.883
		c9.029,1,14.097,6.589,15.202,16.766c1.021,9.718-0.74,16.182-5.286,19.394C234.202,286.692,234.254,286.734,234.296,286.776z
		 M165.668,65.878l-3.909-3.472c-1.356-0.042-4.192,0.782-8.509,2.471c0.042,0.083,0.072,0.177,0.094,0.281
		c0.063,0.104,0.125,0.219,0.188,0.344c0.417,0.896,1.054,1.918,1.908,3.065c0.584,0.751,1.251,1.554,2.002,2.409l0.344-0.031
		c1.043-0.876,2.138-1.668,3.285-2.378c1.229-0.771,2.502-1.47,3.816-2.096C165.491,66.202,165.751,66.004,165.668,65.878z
		 M152.75,53.805l0.03,0.078c-0.019-0.052-0.019-0.078,0-0.078c-0.021-0.083,0.011-0.125,0.095-0.125
		c-0.167-0.042-0.229-0.031-0.188,0.031C152.708,53.731,152.729,53.763,152.75,53.805z M149.997,59.216
		c0.292-1.356,0.782-3.347,1.47-5.975c-2.752-2.21-4.462-2.418-5.129-0.625c-0.688,1.773-1.293,3.389-1.814,4.848
		c0.646,0.542,1.324,0.991,2.033,1.346c1.188,0.625,2.221,0.782,3.097,0.469C149.778,59.237,149.893,59.216,149.997,59.216z
		 M159.443,74.199c0.25,0.417,0.854,1.293,1.814,2.627c0.25,0.021,0.834-0.344,1.752-1.095c0.917-0.75,1.813-1.647,2.689-2.69
		c0.876-1.021,1.282-2.294,1.221-3.816c-0.021-0.042-0.032-0.104-0.032-0.188c-0.021-0.146-0.146-0.302-0.375-0.469
		c-0.063-0.021-0.115-0.042-0.156-0.063c-0.063,0.021-0.125,0.042-0.188,0.063c-0.813,0.313-1.669,0.688-2.565,1.126
		c-1.522,0.688-2.972,1.783-4.348,3.285C159.047,73.188,159.109,73.594,159.443,74.199z M149.559,74.418l0.657,4.16
		c0,0.021,0,0.052,0,0.094v0.031c0,1.397-0.198,2.722-0.594,3.973c-0.542,1.731-1.48,3.305-2.815,4.723
		c-0.48,0.5-0.98,0.959-1.501,1.376c-1.96,1.48-4.202,2.221-6.725,2.221c-3.232,0-5.975-1.199-8.227-3.597
		c-2.294-2.419-3.441-5.328-3.441-8.727c0-3.399,1.146-6.297,3.441-8.696c0.479-0.521,0.99-0.99,1.532-1.408
		c1.314-1,2.763-1.657,4.348-1.97c0.75-0.167,1.533-0.25,2.346-0.25c0.875,0,1.73,0.094,2.565,0.282
		c1.48,0.333,2.856,0.98,4.128,1.939c0.501,0.396,1.001,0.855,1.502,1.376l0.031,0.031c0.813,0.876,1.48,1.804,2.002,2.784
		c0.25,0.438,0.469,0.897,0.657,1.376C149.486,74.241,149.518,74.334,149.559,74.418z M134.514,68.85
		c-0.292,0.125-0.584,0.271-0.876,0.438c-0.73,0.438-1.429,0.98-2.096,1.626c-0.042,0.042-0.083,0.083-0.125,0.125
		c-0.125,0.104-0.229,0.219-0.313,0.344c-1.585,1.71-2.45,3.732-2.596,6.068c-0.021,0.271-0.031,0.553-0.031,0.845
		c0,1.647,0.323,3.149,0.97,4.504c0.333,0.625,0.688,1.158,1.063,1.596c-0.042-0.042-0.083-0.084-0.125-0.125
		c0.292,0.438,0.636,0.855,1.032,1.251c1.335,1.376,2.857,2.272,4.567,2.69c0.834,0.208,1.699,0.313,2.596,0.313
		c2.773,0,5.14-1,7.101-3.002c0.959-0.959,1.678-2.002,2.158-3.128c0.542-1.251,0.813-2.617,0.813-4.098
		c0-0.876-0.083-1.7-0.25-2.471c-0.417-1.794-1.324-3.389-2.721-4.786c-0.501-0.5-1.022-0.949-1.564-1.345
		c-0.188-0.125-0.386-0.25-0.594-0.375c-0.521-0.292-1.053-0.542-1.595-0.751c-1.063-0.354-2.179-0.532-3.347-0.532
		c-1.189,0-2.315,0.177-3.378,0.532C134.972,68.652,134.743,68.746,134.514,68.85z M139.894,61.75
		c1.397-1.334,1.929-2.888,1.595-4.661c-2.231,0.23-6.131,0.063-11.699-0.5c-0.417,2.231-0.135,4.046,0.845,5.443
		C134.159,63.199,137.245,63.105,139.894,61.75z M138.861,80.831c0.688-0.668,1.501-1.001,2.44-1.001s1.741,0.333,2.408,1.001
		c0.688,0.688,1.033,1.501,1.033,2.439c0,0.917-0.344,1.71-1.033,2.377c-0.667,0.688-1.47,1.032-2.408,1.032
		s-1.752-0.344-2.44-1.032c-0.646-0.667-0.97-1.46-0.97-2.377C137.892,82.332,138.215,81.519,138.861,80.831z M134.169,110.64
		c-3.149,0.229-6.872-0.542-11.167-2.314c-0.73,2.523-1.553,4.223-2.471,5.099c-0.959,0.896-2.471,1.366-4.536,1.407
		c-1.021,0.021-2.367,0.031-4.035,0.031c-0.229,0-0.458,0-0.688,0c-6.569,0.209-9.52-1.334-8.853-4.629
		c0.125-0.668,0.407-1.387,0.845-2.158v-0.031c-6.402,5.505-13.481,7.351-21.239,5.536c-1.752-0.396-3.274-1.043-4.567-1.939
		c-5.297,3.774-10.374,5.129-15.233,4.066c-3.065-0.709-5.557-2.409-7.476-5.099c-0.458-0.646-0.875-1.365-1.251-2.158
		c-2.085-4.4-1.032-9.624,3.159-15.671c1.272-1.876,2.346-3.743,3.222-5.599c3.462-7.34,3.608-14.566,0.438-21.676
		c-0.167-0.376-0.344-0.73-0.532-1.064c-0.063,0.063-0.115,0.125-0.156,0.188c0-0.271-0.042-0.511-0.125-0.719
		c-0.021-0.146-0.063-0.271-0.125-0.376c-0.021,0-0.031,0.011-0.031,0.031c-0.959,0.688-1.971,1.335-3.034,1.94
		c-1.522,0.813-3.148,1.512-4.88,2.095c-0.083,0.042-0.156,0.094-0.219,0.157c-2.356,1.251-4.723,2.45-7.1,3.597
		c-0.271,0.458-0.626,1.418-1.064,2.878c-0.458,1.439-2.325,8.591-5.599,21.458c-3.295,12.845-1.7,27.734,4.786,44.667
		c10.447,28.735,23.814,38.642,40.101,29.716c3.107-5.775,6.037-9.582,8.79-11.417c5.839-2.898,11.302-3.701,16.391-2.408
		c4.65-3.003,8.3-4.869,10.948-5.6c-0.73-0.688-1.679-1.96-2.847-3.815c-1.793-2.836-3.587-4.338-5.38-4.505
		c-1.564-0.167-3.441,0.261-5.63,1.282c-1.731,0.793-3.003,0.887-3.816,0.282c-0.771-0.626-1.501-2.189-2.189-4.692
		c4.087-4.149,8.55-6.84,13.388-8.07c4.817-1.293,7.757,0.324,8.821,4.849v0.031c0.959,2.064,2.054,4.066,3.285,6.006
		c1.251,2.002,2.815,2.179,4.692,0.531c1.855-1.647,3.68-0.156,5.474,4.474l0.063-0.532c0.688,3.712,1.147,5.756,1.376,6.131
		s1.324,1.085,3.284,2.127c1.814,0.959,3.169,2.357,4.066,4.191c1.001-2.731,1.533-4.264,1.595-4.598
		c0.479-2.398,0.949-4.807,1.408-7.226c0.271-1.355,0.448-2.753,0.532-4.191c0.146-4.087-0.135-8.133-0.845-12.137
		c-0.729-4.254-2.137-7.736-4.223-10.448c-2.127-2.71-4.369-4.649-6.725-5.817c-0.25-0.146-0.469-0.261-0.657-0.344
		c2.169,0.73,3.691,1.387,4.566,1.971c3.691,2.669,5.985,6.318,6.882,10.948c2.002,7.527,2.398,15.159,1.189,22.896
		c-0.313,2.022-1.554,5.004-3.723,8.945c0.104,0.271,0.219,0.543,0.344,0.813c0.813,2.064,1.053,4.421,0.719,7.069
		c0.021,0,0.042,0,0.063,0l-0.031,0.031c-1.71,3.712-4.41,7.497-8.102,11.354c-3.336,2.565-6.798,3.482-10.384,2.753
		c-3.587-0.751-6.1-1.126-7.539-1.126c0.125,2.23,0.032,4.035-0.281,5.411c-0.396,1.877-1.251,3.43-2.565,4.66
		c-1.251,1.189-2.982,2.148-5.192,2.879c-2.606,0.688-4.536,1.219-5.787,1.595c-1.48,0.459-3.253,0.438-5.317-0.063
		c-2.314-0.729-4.056-1.22-5.224-1.471h-1.658c0.584,1.71,2.002,3.003,4.254,3.879c0.626,0.25,1.241,0.448,1.846,0.595
		c2.148,0.604,4.129,0.719,5.943,0.344c-0.667,2.419-0.667,3.514,0,3.284c2.294,0.98,4.849,0.72,7.664-0.781
		c-1.188,1.855-1.929,3.18-2.221,3.972c1.543,0.355,3.305-0.156,5.287-1.532c0.813,1.605,3.305,1.387,7.476-0.657
		c4.671,2.669,9.801,2.648,15.39-0.063c2.898,1.897,4.9,0.97,6.006-2.784c1.71,0.396,2.679,0.585,2.909,0.563
		c0.521-0.042,1.304-0.698,2.346-1.971v-10.979c0-0.688,0.042-1.063,0.125-1.125v-16.422c0.5-25.213,2.367-40.269,5.6-45.169
		c3.211-4.9,7.11-7.882,11.698-8.945c-0.063,0.021-0.115,0.062-0.157,0.125c1.356-0.479,3.535-1.095,6.538-1.845
		c4.024-3.983,1.991-9.478-6.1-16.485c-1.981-2.544-3.482-4.817-4.505-6.818c6.34,15.452,2.534,20.509-11.417,15.17
		c-0.25,0.208-0.5,0.406-0.75,0.594c-3.149,2.314-6.715,3.753-10.698,4.316C139.06,110.233,137.339,110.411,134.169,110.64z
		 M86.906,64.409c2.064-0.23,3.18-0.688,3.347-1.376c0.188-0.688-0.24-2.075-1.282-4.161c-1.105-2.085-5.474-2.388-13.106-0.907
		c-0.938,2.356-1.095,4.139-0.469,5.349c0.646,1.209,2.21,1.751,4.692,1.626C82.589,64.794,84.862,64.617,86.906,64.409z
		 M90.221,56.838c0.938,0.751,1.533,1.679,1.783,2.784c0.125,0.584,0.167,1.168,0.125,1.751c-0.021,0.646-0.073,1.304-0.156,1.971
		c-0.146,0.813-0.542,1.439-1.188,1.877c-0.167,0.083-0.344,0.177-0.532,0.282c-0.271,0.125-0.542,0.239-0.813,0.344
		c-0.521,0.146-1.053,0.271-1.595,0.375c-0.355,0-0.688-0.021-1.001-0.062c-4.692,0.521-7.465,0.74-8.32,0.657
		c-1.189-0.104-2.033-0.25-2.534-0.438c-0.458-0.167-0.844-0.375-1.157-0.625c-0.083-0.083-0.146-0.167-0.188-0.25
		c-1.188-1.751-1.647-3.587-1.376-5.505c0.292-2.022,0.959-3.243,2.002-3.66c1.022-0.396,1.762-0.688,2.221-0.875
		c2.273-0.793,4.65-1.042,7.131-0.75C86.77,54.795,88.636,55.504,90.221,56.838z M165.699,104.509
		c0.188,0.125,0.386,0.24,0.595,0.344c1.167,0.709,2.085,1.647,2.752,2.815c0.98,1.773,1.335,3.691,1.063,5.756l-0.688,0.344
		c-0.084-0.646-0.177-1.292-0.281-1.939c-0.313-1.939-0.99-3.723-2.033-5.349l0.25,4.316l-0.281,0.219l-1.596-2.471l-0.438,1.564
		l-0.876-4.004l0.344-0.281l1.471,1.532L165.699,104.509z M130.823,108.482c3.565,0.271,7.006,0.01,10.322-0.782
		c5.734-2.022,9.05-4.953,9.947-8.79c-0.125,0.313-0.813,0.553-2.064,0.72c-2.315,0.042-5.12-0.876-8.414-2.753
		c-5.568-3.169-11.24-4.775-17.017-4.816c-1.751,0.688-3.607,2.116-5.568,4.285c-0.604,0.646-1.345,1.136-2.221,1.47
		c-0.438,0.104-0.75,0.324-0.938,0.657C118.582,104.395,123.899,107.731,130.823,108.482z M81.213,68.631
		c0.834-0.146,1.668-0.219,2.502-0.219c0.563,0,1.095,0.032,1.596,0.094c0.396,0.021,0.792,0.074,1.188,0.157
		c0.313,0.083,0.636,0.167,0.97,0.25c1.856,0.563,3.556,1.595,5.099,3.096l0.031,0.032c0.834,0.854,1.543,1.772,2.127,2.752
		c0.271,0.459,0.49,0.928,0.657,1.408l0.845,4.567c0,1.376-0.208,2.701-0.625,3.973c-0.584,1.731-1.585,3.305-3.003,4.723
		c-0.521,0.5-1.074,0.949-1.658,1.345c-2.106,1.501-4.515,2.252-7.226,2.252c-3.44,0-6.37-1.199-8.789-3.597
		c-2.44-2.419-3.66-5.328-3.66-8.727c0-1.605,0.271-3.097,0.813-4.473c0.604-1.543,1.553-2.951,2.847-4.223
		c1.688-1.668,3.618-2.753,5.787-3.253C80.9,68.704,81.067,68.652,81.213,68.631z M76.052,73.104
		c-0.104,0.104-0.208,0.209-0.313,0.313c-0.313,0.334-0.605,0.678-0.876,1.033c-1.126,1.459-1.772,3.138-1.939,5.036
		c-0.021,0.271-0.031,0.563-0.031,0.876c0,0.479,0.042,0.959,0.125,1.438c0.146,1.084,0.459,2.106,0.938,3.066
		c0.355,0.625,0.73,1.146,1.126,1.564c-0.042-0.042-0.083-0.073-0.125-0.094c0.313,0.438,0.678,0.855,1.095,1.251
		c1.021,0.979,2.168,1.72,3.44,2.221c0.479,0.188,0.98,0.344,1.501,0.469c0.855,0.208,1.762,0.313,2.721,0.313
		c3.003,0,5.547-1,7.633-3.002c1.042-0.959,1.824-2.002,2.346-3.128c0.021-0.042,0.042-0.104,0.063-0.188
		c0.521-1.209,0.782-2.513,0.782-3.91c0-0.876-0.094-1.7-0.282-2.471c0-0.042,0-0.083,0-0.125c-0.459-1.751-1.428-3.305-2.909-4.661
		c-0.459-0.438-0.928-0.824-1.408-1.157c-0.083-0.063-0.167-0.125-0.25-0.188c-0.208-0.146-0.417-0.271-0.625-0.375
		c-0.083-0.042-0.156-0.073-0.219-0.094c-1.522-0.813-3.232-1.22-5.13-1.22c-1.501,0-2.888,0.261-4.16,0.782
		c-0.042,0-0.094,0.021-0.156,0.063c-0.313,0.125-0.625,0.271-0.938,0.438c-0.792,0.438-1.533,0.969-2.221,1.595
		C76.156,72.99,76.093,73.042,76.052,73.104z M84.31,82.676c0.667-0.521,1.449-0.782,2.346-0.782c1.022,0,1.877,0.333,2.565,1
		c0.229,0.188,0.417,0.396,0.563,0.626c0.354,0.542,0.532,1.136,0.532,1.783c0,0.938-0.365,1.741-1.095,2.409
		c-0.688,0.688-1.543,1.032-2.565,1.032c-0.146,0-0.302-0.01-0.469-0.031c-0.792-0.104-1.501-0.438-2.127-1.001
		c-0.709-0.667-1.063-1.471-1.063-2.409c0-0.938,0.354-1.741,1.063-2.409C84.122,82.812,84.205,82.738,84.31,82.676z
		 M108.301,106.386c-0.98,0.521-1.762,1.179-2.346,1.971c-0.625,0.792-0.845,1.668-0.657,2.628c0.104,0.25,0.345,0.396,0.72,0.438
		c0.542,0.083,1.533,0.261,2.972,0.532c1.418,0.25,2.961,0.292,4.629,0.125c1.647-0.167,3.274-0.324,4.879-0.469
		c0.918-0.209,1.46-0.646,1.627-1.314c0.146-0.667,0.063-1.303-0.25-1.908c-0.313-0.625-0.667-1.095-1.063-1.408
		c-0.396-0.313-0.761-0.563-1.095-0.75c-0.354-0.208-1.136-0.48-2.346-0.813c-1.251-0.375-2.492-0.438-3.722-0.188
		C110.396,105.479,109.281,105.865,108.301,106.386z M97.384,95.407c-1.856,0.354-3.587,1.095-5.192,2.221
		c-1.647,1.146-2.648,1.835-3.003,2.064c-0.396,0.271-0.792,0.521-1.188,0.75c-0.876,0.521-1.71,0.918-2.502,1.189
		c-0.98,0.333-1.887,0.511-2.721,0.532c-2.023,0.021-3.952-0.636-5.787-1.97c0.104,3.461,1.835,6.13,5.193,8.007
		s6.934,2.429,10.729,1.657c3.753-0.792,6.839-1.949,9.258-3.472c2.315-1.459,4.212-4.003,5.693-7.632
		c-0.167-0.104-0.751-0.49-1.752-1.157c-1.022-0.667-2.262-1.282-3.722-1.846C100.909,95.188,99.24,95.073,97.384,95.407z
		 M114.964,121.65l1.845-4.285l0.563-0.125c3.92,3.607,5.516,8.143,4.786,13.606c-0.063,0.563-0.146,1.146-0.25,1.752h-0.438
		c0.208-4.859-1.074-9.176-3.847-12.95c-0.292-0.417-0.605-0.803-0.938-1.157l-1.157,7.601l-1.158,0.095l-1.126-6.632l-2.064,4.567
		l1.345-6.507l0.625-0.5L114.964,121.65z M86.53,175.545c0.292,0.918,0.688,1.981,1.188,3.191c0.167,0.438,0.354,0.896,0.563,1.376
		c0.021,0.083,0.313,0.657,0.875,1.721c0.208,0.333,0.438,0.739,0.688,1.22c0.104,0.146,0.188,0.292,0.25,0.438
		c0.563,0.98,1.147,1.897,1.751,2.753c0.647,0.918,1.314,1.741,2.002,2.472c0.271,0.271,0.563,0.541,0.876,0.813
		c2.377,2.169,4.953,3.118,7.726,2.847c0.25-0.021,0.5-0.063,0.75-0.125c0.146-0.021,0.313-0.053,0.501-0.094
		c0.604-0.188,1.459-0.512,2.565-0.971c1.063-0.416,2.356-0.979,3.878-1.688c1.585-0.709,2.742-1.46,3.472-2.252
		c1.001-1.126,1.647-3.17,1.939-6.131c-0.917,0.542-1.866,1.188-2.846,1.939c-0.646,0.938-1.918,1.563-3.816,1.876
		c-1.918,0.313-4.296-0.667-7.132-2.939c-2.836-2.294-4.15-5.683-3.941-10.166c0.208-4.504,0.959-7.371,2.252-8.602
		c1.314-1.21,2.096-2.002,2.346-2.378c0.229-0.104,0.625-0.323,1.189-0.657c-0.667-0.542-1.929-0.823-3.785-0.844
		c-1.918-0.063-4.911,0.761-8.978,2.471C86.343,165.275,84.904,169.853,86.53,175.545z M100.293,168.101
		c-0.292,1.501-0.271,3.357,0.063,5.567c0.584,3.441,2.294,5.819,5.13,7.133c2.857,1.313,5.318,1.126,7.382-0.563
		c2.023-1.688,3.462-2.544,4.317-2.564c0.813-0.021,2.335,0.239,4.567,0.781c5.588,1.564,9.957,0.97,13.106-1.782
		c0.375-0.48,1.074-1.335,2.096-2.565c2.419-2.898,3.764-5.308,4.035-7.226c0.25-1.939,0.073-4.015-0.532-6.225
		c-0.646-2.231-3.482-4.39-8.508-6.475c-4.963-2.044-8.863-2.565-11.699-1.564c-3.524,1.251-6.527,2.575-9.009,3.973
		c-3.086,1.73-5.755,3.764-8.007,6.1C101.67,164.296,100.689,166.099,100.293,168.101z M140.05,142.796
		c-0.104-1.335-0.178-2.659-0.219-3.973c-0.354-10.406-4.64-18.664-12.856-24.774c3.023,1.272,5.558,3.191,7.601,5.755
		C139.956,126.645,141.781,134.309,140.05,142.796z M130.635,144.578c-0.167,0.021-0.323,0.053-0.469,0.094
		c-1.647,1.001-2.502,1.939-2.565,2.815c2.398,1.772,4.056,3.003,4.974,3.691c0.063-1.063,0.083-2.065,0.063-3.003
		C132.616,146.528,131.949,145.329,130.635,144.578z M49.433,111.797c1.022-1.314,2.179-2.242,3.472-2.784
		c-1.397,6.986-1.95,13.888-1.658,20.708c0.083,2.252,0.209,4.524,0.375,6.818c-0.959-4.399-1.418-8.841-1.376-13.324
		c0.042-4.171,0.521-8.29,1.439-12.356l-3.097,2.471c0.5-2.398,1.001-4.045,1.501-4.942c-0.876,0.23-2.169,1.147-3.878,2.753
		c1.605-2.232,3.336-3.514,5.192-3.848C50.631,108.273,49.975,109.774,49.433,111.797z M70.515,143.64v5.225
		c-0.458-4.233-0.688-6.632-0.688-7.194c0-4.817,0.344-8.926,1.032-12.325c0.938-4.754,2.888-8.059,5.849-9.915
		c-2.711,3.586-4.411,7.632-5.099,12.137C71.193,134.318,70.828,138.343,70.515,143.64z M40.017,140.605
		c-0.98,1.252-1.918,2.68-2.815,4.285c-0.479,1.189-0.959,2.389-1.439,3.598c-3.816,9.551-6.204,19.436-7.163,29.653
		c-0.021,0.104-0.031,0.208-0.031,0.313c2.919,6.548,7.194,12.835,12.825,18.862c2.961,3.148,6.287,6.235,9.979,9.259
		c14.555,10.655,35.492,17.329,62.81,20.019c0-0.688,0.052-2.366,0.156-5.035c0.083-2.67,0.886-4.275,2.409-4.817
		c1.543-0.543,2.951-0.803,4.223-0.782c1.251,0,2.45-0.115,3.597-0.344c-0.188-0.793-0.427-2.002-0.719-3.629
		c-0.792-4.046-1.22-6.506-1.283-7.382c-3.169,2.356-5.901,2.106-8.195-0.751c-1.668,1.877-4.191,2.898-7.57,3.065
		c-0.146,0-0.406-0.229-0.782-0.688c-0.396-0.459-0.135-1.419,0.782-2.879c-2.064,0.71-3.722,1.294-4.973,1.752
		c-1.647,0.584-1.606-1.251,0.125-5.505c-4.024,0.063-6.704-0.209-8.039-0.813c-0.959-0.396-1.804-0.887-2.534-1.47
		c-0.917-0.709-1.678-1.522-2.283-2.44c-2.46,0.98-4.838,1.794-7.132,2.44c-4.754,1.396-9.103,2.116-13.043,2.158
		c-1.147,0.229-2.492,0.156-4.035-0.219c-2.502-0.334-4.796-0.98-6.882-1.939c-6.965-3.191-11.73-9.916-14.294-20.176
		c0.583,1.063,1.188,2.085,1.814,3.065c1.293,2.044,2.659,3.868,4.098,5.474c0.834,0.918,1.679,1.772,2.534,2.565
		c0.48,0.229,1.022,0.594,1.626,1.095c0.417,0.375,0.803,0.75,1.157,1.126c5.38,3.795,11.574,5.234,18.581,4.316
		c0.771-0.104,1.574-0.239,2.409-0.406c4.546-0.938,9.404-2.805,14.576-5.6c-4.859-4.232-7.257-9.529-7.194-15.89
		c-18.956,11.303-33.449,0.896-43.479-31.217C39.934,141.336,39.997,140.981,40.017,140.605z M27.662,183.459
		c-1.522,2.69-2.45,5.37-2.784,8.039c-0.146,1.209-0.167,2.43-0.063,3.66c0.042,0.729,0.125,1.449,0.25,2.158
		c0.542,3.044,1.71,5.808,3.503,8.289c0.313,0.479,0.678,0.97,1.095,1.47c2.231,2.773,5.432,6.037,9.603,9.791
		c4.9,4.441,10.917,8.477,18.048,12.105c5.797,2.897,11.792,5.275,17.986,7.132c6.861,2.064,14.326,3.607,22.396,4.629
		c8.028,1.001,12.689,1.314,13.982,0.938c1.293-0.375,1.991-0.99,2.096-1.846c0.334-2.544,0.459-4.942,0.375-7.194
		c-0.021-0.771-0.042-1.553-0.063-2.346c-9.447-0.834-18.726-2.523-27.839-5.067c-5.276-1.502-10.427-3.243-15.453-5.224
		c-4.4-1.752-8.695-3.743-12.887-5.975c-6.11-3.211-11.594-7.205-16.453-11.98c-1.543-1.501-2.982-3.075-4.316-4.723
		c-2.961-3.566-5.495-7.445-7.601-11.637c-0.396-0.792-0.792-1.574-1.188-2.346L27.662,183.459z M37.233,233.007
		c4.254,3.836,11.699,8.622,22.333,14.357c6.444,3.586,14.785,6.902,25.024,9.946c7.069,2.064,14.065,2.805,20.989,2.221
		c1.418-0.146,2.565-0.636,3.441-1.47c0.229-0.251,0.448-0.479,0.657-0.688c0.834-1.772,2.492-5.108,4.974-10.009
		c0.188-0.418,0.271-0.835,0.25-1.251c-0.042-0.772-0.479-1.169-1.313-1.189c-2.064-0.104-4.807-0.313-8.227-0.626
		c-4.066-0.417-6.767-0.667-8.102-0.75c-3.941-0.25-8.258-0.896-12.95-1.939c-2.607-0.604-6.788-1.71-12.543-3.315
		c-3.732-1.043-7.695-2.545-11.886-4.505c-10.593-3.94-21.406-11.949-32.437-24.022c-3.149-3.816-5.317-7.163-6.506-10.041
		c-0.063,0.042-0.438,0.334-1.126,0.876c-0.688,0.563-2.596,1.396-5.724,2.503c6.047,10.009,10.354,16.525,12.918,19.55
		C29.549,225.697,32.958,229.148,37.233,233.007z M23.376,235.384c0.063,0.063,0.125,0.125,0.188,0.188
		c1.522,1.502,3.139,2.981,4.849,4.442c0.625,0.521,1.272,1.052,1.939,1.595v0.031c0.542,0.396,1.095,0.813,1.658,1.251
		c0.104,0.083,0.208,0.178,0.313,0.281c1.001,0.73,2.013,1.46,3.034,2.19c0.542,0.354,1.095,0.729,1.658,1.126
		c0.438,0.292,0.886,0.584,1.345,0.876c0.271,0.188,0.542,0.375,0.813,0.563c5.651,3.607,11.98,6.976,18.987,10.104
		c0.271,0.104,0.521,0.219,0.75,0.344c5.067,2.356,9.676,4.171,13.826,5.443c0.125,0.021,0.261,0.052,0.407,0.093
		c0.042,0.021,0.083,0.043,0.125,0.063c2.773,0.813,6.861,2.105,12.262,3.879c4.88,1.376,8.164,2.179,9.853,2.408
		c1.689,0.229,4.015,0.417,6.976,0.563c2.919,0.166,5.672-0.084,8.258-0.751c2.586-0.668,4.494-1.596,5.724-2.784
		c1.209-1.21,2.596-3.045,4.16-5.505c1.272-2.002,2.638-3.315,4.098-3.941c-2.21-2.294-2.21-5.005,0-8.133h-8.102
		c-2.252,6.965-5.317,11.072-9.196,12.323c-0.709,0.271-1.418,0.49-2.127,0.658c-2.961,0.438-7.466,0.114-13.513-0.971
		c-6.026-1.084-10.406-2.147-13.137-3.19c-2.732-1.021-6.142-2.419-10.229-4.191c-3.232-1.334-5.651-2.346-7.257-3.034
		c-2.856-1.209-5.213-2.325-7.069-3.347c-2.482-1.251-8.175-4.994-17.079-11.229c-8.904-6.256-16.953-16.828-24.147-31.718
		c-1.439-0.688-3.545-0.323-6.319,1.095c-0.146,1.377,0.177,3.045,0.97,5.005c0.417,1.147,1.147,2.711,2.189,4.692
		c0.73,1.418,1.606,3.055,2.627,4.91c0.188,0.334,0.354,0.657,0.5,0.97c0,0.063,0,0.136,0,0.22c0.354,0.604,0.719,1.188,1.095,1.751
		c1.418,2.211,3.003,4.38,4.755,6.507c0.146,0.167,0.302,0.344,0.469,0.531c0.292,0.354,0.604,0.709,0.938,1.063
		c0.229,0.292,0.459,0.563,0.688,0.813c0.521,0.563,1.063,1.126,1.626,1.689C22.636,234.633,23.001,235.009,23.376,235.384z
		 M53.249,267.853c0.271,0.625,0.375,1.146,0.313,1.563c-0.021,0.167-0.052,0.344-0.094,0.531c-0.125,0.293-0.26,0.595-0.406,0.907
		c0.271-0.042,0.594-0.083,0.97-0.125c2.586,0.063,4.129,1.001,4.629,2.815c-2.273-0.563-4.015-0.646-5.224-0.251
		c1.48-0.041,2.773,0.699,3.878,2.222c1.105,1.501,0.98,1.824-0.375,0.97c-1.356-0.876-3.649-1.387-6.882-1.533
		c-3.211-0.166-5.62,0.167-7.226,1.001c-1.605,0.855-2.972,2.597-4.098,5.225c-0.73,1.771-0.24,2.658,1.47,2.658
		c0.667,0,3.649,0,8.946,0c3.607-0.021,6.579,0,8.915,0.063c1.293,0.021,2.221-0.167,2.784-0.563
		c0.542-0.418,0.834-0.949,0.876-1.596c0.021-0.626,0.042-1.908,0.063-3.848c0-1.459,0-3.305,0-5.536
		c-0.021-2.586-0.208-4.181-0.563-4.786h-8.102L53.249,267.853z M62.82,263.566c-3.837-1.835-7.486-3.68-10.948-5.536
		c-3.211-1.585-5.985-2.972-8.32-4.16c-0.063-0.021-0.511-0.167-1.346-0.438c-1.584,5.985-2.179,9.604-1.783,10.854
		c3.858,0.521,7.757,0.938,11.699,1.251c3.274,0.501,6.923,0.667,10.948,0.501C64.009,265.475,63.925,264.651,62.82,263.566z
		 M125.912,206.012c0.042,0.646,0.115,1.919,0.219,3.816c0.104,1.877,0.146,3.795,0.125,5.755h9.729v-7.226
		c0.042-0.959,0.114-2.356,0.219-4.191C130.697,206.689,127.267,207.305,125.912,206.012z M143.334,203.979
		c-0.584,1.46-1.533,1.825-2.847,1.095c-1.355-0.709-2.179-1.063-2.471-1.063c-0.292-0.021-0.438,0.512-0.438,1.596
		c0,0.626,0.021,1.574,0.063,2.847c-0.021,0.792-0.032,3.169-0.032,7.131c2.356-0.333,4.296-0.167,5.818,0.501
		c1.751,0.75,3.055,2.189,3.91,4.316c0.083,0.229,0.177,0.563,0.281,1.001c0.125,0.313,0.396,0.438,0.813,0.376
		c0.125-0.021,0.25-0.198,0.375-0.532c0.104-0.292,0.156-0.563,0.156-0.813l0.031-19.487c-1.23,2.106-2.336,2.773-3.315,2.002
		C144.679,202.175,143.897,202.52,143.334,203.979z M124.629,236.291c0.021,1.793,0.208,2.856,0.563,3.19
		c0.313,0.292,1.47,0.458,3.472,0.5c2.648,0.063,4.723,0.032,6.225-0.094c1.501-0.146,2.481-0.5,2.94-1.063
		c0.417-0.604,0.615-2.784,0.594-6.537c-0.021-3.796-0.386-5.943-1.095-6.443c-0.729-0.501-2.784-0.668-6.162-0.501
		c-1.23-0.084-2.356-0.073-3.378,0.031c-1.064,0.063-1.773,0.49-2.127,1.282c-0.375,0.793-0.636,2.127-0.782,4.004
		C124.691,232.558,124.608,234.435,124.629,236.291z M93.693,283.336c0.604,1.709,2.273,3.336,5.005,4.879
		c1.147,0.668,2.617,1.221,4.41,1.658c1.752,0.396,3.503,0.813,5.255,1.251c0.459,0.125,0.907,0.229,1.345,0.313
		c0.271,0.042,0.542,0.073,0.813,0.094c4.942,0.626,9.29,0.585,13.043-0.125c3.774-0.729,6.392-1.355,7.851-1.877
		c1.439-0.521,2.388-1.292,2.847-2.314c-2.731-0.063-5.703-0.104-8.915-0.125c-5.067-0.021-10.229-0.354-15.483-1.001
		c-1.001-0.063-1.429-0.688-1.283-1.877c0.125-1.209-0.104-1.866-0.688-1.97h-5.661c-2.44,0-4.265,0.01-5.474,0.031
		c-0.5-0.021-1.095-0.021-1.783,0c-0.417,0.021-0.761,0.166-1.032,0.438C93.797,282.897,93.714,283.106,93.693,283.336z
		 M113.212,280.583c-0.083,1.23,0.052,2.074,0.407,2.533c0.396,0.563,1.376,0.834,2.94,0.813c1.522-0.021,3.879,0.053,7.07,0.219
		c3.19,0.167,6.151,0.292,8.883,0.376c2.711,0.063,4.796-0.574,6.256-1.908c1.459-0.98,2.617-2.2,3.472-3.66
		c0.813-1.501,0.771-2.679-0.125-3.534c-0.875-0.897-2.627-1.491-5.255-1.783c-1.188-0.146-2.367-0.271-3.534-0.375
		c0.167-3.733-1.898-5.453-6.194-5.161c-0.542-0.25-0.824-2.815-0.844-7.695c-3.107,5.839-7.403,9.771-12.887,11.792
		c-0.104,1.461-0.146,2.91-0.125,4.349C113.295,278.153,113.274,279.498,113.212,280.583z M148.965,244.799
		c0.021-0.063-0.136-1.689-0.469-4.88c-0.146-1.209-0.282-2.294-0.407-3.253c-0.063,3.336-0.125,5.589-0.188,6.756
		c-0.083,1.461-0.709,2.222-1.877,2.284c-1.188,0.063-1.408,0.354-0.657,0.876c0.75,0.5,1.554,0.678,2.408,0.531
		c0.813-0.188,1.23-0.615,1.251-1.282L148.965,244.799z M131.104,261.096c0.042,0.271,0.073,0.563,0.094,0.876
		c0.271,2.564,3.19,5.266,8.758,8.102c1.877-0.334,3.284-0.949,4.223-1.846c-2.815-2.106-4.838-4.692-6.068-7.758
		C135.775,259.406,133.439,259.615,131.104,261.096z M148.089,250.898c-1.126-1.772-3.243-2.742-6.35-2.909
		c-1.001-0.042-2.012,0.136-3.035,0.532c-0.333,0.104-1.241,0.5-2.721,1.188h-8.133c0.083,0.854-0.25,2.2-1.001,4.034
		c-0.709,1.669-0.907,3.035-0.595,4.099c1.585,0.25,4.014-0.073,7.288-0.971c3.128-0.875,5.568-1.095,7.32-0.656v1.971l4.629,6.569
		l2.439-6.663C149.142,255.11,149.194,252.713,148.089,250.898z"/>
</g>
</svg>
