<?xml version="1.0" encoding="utf-8"?>
<!-- Generator: Adobe Illustrator 16.0.0, SVG Export Plug-In . SVG Version: 6.00 Build 0)  -->
<!DOCTYPE svg PUBLIC "-//W3C//DTD SVG 1.1//EN" "http://www.w3.org/Graphics/SVG/1.1/DTD/svg11.dtd">
<svg version="1.1" id="Layer_1" xmlns="http://www.w3.org/2000/svg" xmlns:xlink="http://www.w3.org/1999/xlink" x="0px" y="0px"
	 width="300px" height="300px" viewBox="0 0 300 300" enable-background="new 0 0 300 300" xml:space="preserve">
<g>
	<path fill-rule="evenodd" clip-rule="evenodd" fill="#478D4A" d="M284.331,167.475c0.207-0.088,0.393-0.144,0.555-0.165
		l0.021,1.098c0.022,0.051,0.053,0.244,0.09,0.575c0.051,0.288,0.133,0.433,0.243,0.433c0.111,0.021,0.273-0.096,0.487-0.354
		c0.126-0.147,0.281-0.34,0.466-0.576c0.111,0.147,0.296,0.202,0.555,0.167c0.251-0.038,0.55-0.182,0.897-0.434
		c-0.015,0.075-0.015,0.218,0,0.434c0,0.184,0.02,0.32,0.056,0.409c0.016,0.036-0.004,0.147-0.056,0.333
		c-0.036,0.162-0.029,0.295,0.022,0.398c0.052,0.11,0.199,0.186,0.443,0.222c0.141,0.022,0.37,0.052,0.688,0.089
		c-0.443,0.236-0.935,0.672-1.474,1.308c-0.333,0.186-0.438,0.396-0.312,0.632c0.06,0.111,0.443,0.256,1.153,0.433
		c-0.185-0.014-0.421,0.041-0.71,0.167c-0.31,0.147-0.521,0.24-0.632,0.276c-0.494,0.111-0.698,0.312-0.609,0.6
		c-0.199,0.052-0.488,0.07-0.864,0.056c-0.437-0.038-0.721-0.119-0.854-0.245c-0.014,0.111-0.121,0.273-0.321,0.488
		c-0.199,0.236-0.564,0.466-1.098,0.688c0.186-0.421,0.104-0.613-0.243-0.576c-0.932,0.147-1.46,0.247-1.586,0.299l0.82-1.063
		c-0.037-0.075-0.118-0.119-0.243-0.134c-0.37,0.141-0.625,0.122-0.765-0.056c-0.636-0.259-1.094-0.425-1.375-0.499l0.521-0.1
		c0.347-0.148,0.184-0.376-0.489-0.687c0.052-0.112,0.071-0.204,0.056-0.278c-0.109-0.236-0.395-0.335-0.853-0.299
		c0.147-0.126,0.532-0.244,1.152-0.354c0.296,0.015,0.499-0.029,0.61-0.133c0.065-0.06,0.125-0.159,0.177-0.3
		c0.074,0,0.303,0.026,0.688,0.078c0.021,0,0.104,0.073,0.243,0.222c0.097,0.104,0.188,0.11,0.277,0.021
		c0.111-0.125,0.03-0.388-0.243-0.786c-0.406-0.533-0.58-0.979-0.521-1.343c0.089-0.036,0.307-0.073,0.654-0.109
		c0.11-0.023,0.185-0.127,0.222-0.312c0.074-0.281,0.118-0.442,0.133-0.487c0.111-0.029,0.211-0.137,0.299-0.322
		c0.075-0.222,0.118-0.368,0.134-0.442l0.332,0.255c0.061,0.052,0.189,0.188,0.389,0.41c0.185,0.198,0.329,0.31,0.433,0.333
		C283.958,167.707,284.103,167.586,284.331,167.475z M202.884,190.733c0.007-0.007,0.02-0.011,0.033-0.011l-0.121-0.61
		c-0.008-0.17-0.008-0.362,0-0.576c0-0.495,0.024-0.858,0.077-1.087c0.495,0.636,0.916,0.707,1.264,0.211
		c0.688-1.257,1.067-2.113,1.142-2.571l0.965,2.195h0.166c0.11-0.038,0.207-0.101,0.288-0.189c0.073-0.296,0.204-0.555,0.389-0.775
		c0.185-0.186,0.365-0.285,0.543-0.3c0.157-0.152,0.528-0.411,1.113-0.776c0.673,0.864,1.65,1.475,2.933,1.83
		c0.132,0.036,0.264,0.069,0.395,0.1c-0.107,0.2-0.138,0.381-0.096,0.543c0.038,0.162,0.148,0.354,0.333,0.576
		c-0.073,0.126-0.222,0.292-0.443,0.5c-0.214,0.198-0.358,0.335-0.432,0.41c-0.038,0.051-0.248,0.103-0.633,0.154
		c-0.287,0.037-0.406,0.155-0.354,0.355c0.074,0.198,0.296,0.328,0.665,0.387c0.2,0.037,0.517,0.056,0.954,0.056
		c1.382-0.096,2.31,0.073,2.782,0.511c-0.03,0.17-0.2,0.518-0.511,1.042c-0.073,0.162,0.026,0.373,0.3,0.632
		c0.399,0.347,0.625,0.565,0.677,0.653c-0.052,0.178,0.041,0.425,0.277,0.743c0.125,0.178,0.306,0.396,0.543,0.654
		c-0.237,0.11-0.491,0.181-0.765,0.21c-0.437,0.06-0.799,0.108-1.087,0.145c-0.547,0.089-0.883,0.196-1.009,0.321
		c0.141,0.185,0.178,0.507,0.111,0.965c-0.06,0.376-0.151,0.695-0.277,0.953c-0.895-0.524-1.526-0.861-1.896-1.009
		c-0.398-0.185-0.746-0.332-1.041-0.443c-0.563-0.199-0.906-0.226-1.032-0.077c-0.125,0.162-0.099,0.528,0.079,1.098
		c0.11,0.303,0.265,0.713,0.466,1.23c-0.312-0.038-0.593,0.17-0.844,0.621c-0.133,0.221-0.199,0.513-0.199,0.875
		c0,0.421-0.016,0.695-0.044,0.82c-0.111-0.11-0.341-0.247-0.688-0.41c-0.325-0.163-0.58-0.263-0.764-0.299
		c-0.097-0.016-0.271-0.145-0.521-0.389c-0.236-0.215-0.473-0.332-0.709-0.354c-0.236-0.016-0.521,0.133-0.854,0.443
		c-0.377,0.422-0.677,0.713-0.898,0.875c0.075-0.73-0.118-1.862-0.576-3.392c0.059-0.657-0.192-1.013-0.754-1.063
		c-0.206-0.023-0.509,0.122-0.908,0.432c-0.473,0.385-0.829,0.67-1.064,0.854c0.222-0.273,0.384-0.676,0.487-1.208
		c0.089-0.584,0.151-0.983,0.188-1.197c0.348-0.806,0.233-1.283-0.344-1.43c0.126-0.326,0.407-0.763,0.844-1.309
		c0.531-0.614,0.967-0.949,1.307-1.009C203.198,191.532,203.047,191.228,202.884,190.733z M38.039,166.81
		c-0.34,0.148-0.85,0.259-1.53,0.334c-0.799,0.073-1.353,0.007-1.664-0.2c0.038,0.222-0.063,0.555-0.299,0.998
		c-0.104,0.199-0.333,0.477-0.688,0.831h-0.964c-0.118-0.251-0.351-0.34-0.698-0.267c-0.045,0.016-0.307,0.104-0.787,0.267h-1.563
		c0.251-0.666,0.45-1.153,0.598-1.463c-0.11-0.134-0.266-0.2-0.465-0.2c-0.259,0.17-0.532,0.263-0.82,0.277
		c-0.251,0-0.451-0.056-0.599-0.167c-0.199,0-0.61-0.073-1.23-0.221c-0.747-0.178-1.223-0.285-1.43-0.321
		c0.281-0.038,0.558-0.148,0.832-0.333c0.524-0.362,0.122-0.754-1.208-1.175c0.037-0.2,0.029-0.363-0.022-0.488
		c-0.37-0.422-0.946-0.532-1.729-0.332c0.125-0.163,0.41-0.344,0.854-0.544c0.251-0.11,0.595-0.258,1.031-0.442
		c0.533-0.037,0.872-0.174,1.02-0.411c0.074-0.288,0.129-0.495,0.167-0.62c0.141-0.06,0.347-0.089,0.621-0.089
		c0.162,0,0.373,0.011,0.631,0.033c0.052,0,0.233,0.111,0.543,0.332c0.244,0.178,0.406,0.178,0.488,0
		c0.111-0.206,0.059-0.446-0.155-0.721c-0.311-0.325-0.529-0.562-0.654-0.709c-1.042-0.895-1.589-1.678-1.641-2.351
		c0.074-0.052,0.237-0.107,0.488-0.167c0.274-0.088,0.484-0.158,0.632-0.209c0.163-0.06,0.233-0.281,0.211-0.666
		c-0.005-0.093-0.009-0.181-0.011-0.26c-0.02-0.368-0.023-0.587-0.011-0.66c0.045-0.027,0.086-0.063,0.122-0.105
		c0.113-0.137,0.183-0.348,0.211-0.637c0.015-0.415,0.033-0.688,0.055-0.821l0.709,0.355c0.104,0.096,0.396,0.313,0.876,0.654
		c0.436,0.333,0.754,0.498,0.954,0.498c0.037-0.236,0.229-0.491,0.576-0.765c0.311-0.236,0.603-0.393,0.876-0.466
		c0.377,1.242,0.595,1.918,0.654,2.028c0.052,0.104,0.189,0.448,0.41,1.031c0.252,0.547,0.481,0.81,0.688,0.788
		c0.192-0.016,0.425-0.297,0.698-0.844c0.259-0.62,0.433-1.012,0.521-1.175c0.207,0.237,0.554,0.281,1.042,0.134
		c0.259-0.066,0.514-0.229,0.765-0.487c0.31-0.312,0.51-0.496,0.598-0.556c0.022,0.17,0.097,0.429,0.222,0.776
		c0.125,0.377,0.236,0.628,0.332,0.753c0.052,0.082,0.089,0.304,0.111,0.666c0.015,0.326,0.097,0.569,0.245,0.732
		c0.162,0.185,0.469,0.276,0.919,0.276c0.229,0.016,0.577,0.019,1.042,0.012v0.177c-0.259,0.28-0.577,0.71-0.954,1.286
		c-0.399,0.621-0.661,1.078-0.787,1.375c-0.495,0.414-0.569,0.842-0.221,1.285c0.147,0.141,0.465,0.248,0.953,0.321
		c0.236,0.045,0.572,0.086,1.009,0.122v0.09c-0.266,0.08-0.558,0.229-0.876,0.443c-0.251,0.185-0.577,0.424-0.976,0.72
		c-0.44,0.179-0.712,0.387-0.815,0.627c-0.084,0.192-0.055,0.407,0.089,0.643L38.039,166.81z M105.872,186.055
		c0.007-0.097,0.015-0.185,0.022-0.266c0-0.059-0.015-0.114-0.044-0.166l-0.011-0.188c-0.059,0-0.122,0-0.188,0
		c-0.066-0.037-0.144-0.074-0.233-0.11c-0.487-0.2-0.768-0.333-0.842-0.399c-0.015-0.207-0.188-0.418-0.521-0.632
		c-0.362-0.208-0.599-0.354-0.709-0.444l0.632-0.454c0.125-0.06,0.451-0.219,0.976-0.477c0.517-0.251,0.809-0.462,0.876-0.632
		c-0.2-0.126-0.344-0.414-0.433-0.865c-0.074-0.384-0.081-0.713-0.022-0.986l2.095,0.322c0.133,0,0.506,0.028,1.12,0.088
		c0.606,0.022,0.946-0.07,1.02-0.277c0.074-0.178-0.074-0.502-0.443-0.975c-0.436-0.518-0.71-0.858-0.821-1.021
		c0.311-0.073,0.514-0.362,0.61-0.864c0.052-0.259,0.015-0.556-0.111-0.887c-0.147-0.399-0.222-0.662-0.222-0.788
		c0.125,0.052,0.392,0.1,0.798,0.145c0.384,0.053,0.654,0.066,0.809,0.044c0.058,0,0.2,0.041,0.427,0.122
		c-0.07,0.664-0.102,1.341-0.094,2.029c0.045,2.846,0.78,5.388,2.206,7.626c0.556,0.879,1.158,1.67,1.807,2.373
		c-0.021,0.071-0.047,0.142-0.077,0.211c-0.111,0.236-0.248,0.38-0.41,0.432c-0.088,0.185-0.344,0.524-0.765,1.021
		c-0.525,0.636-0.835,1.016-0.931,1.142c0.111-0.273,0.141-0.572,0.089-0.897c-0.096-0.658-0.625-0.477-1.585,0.542
		c-0.162-0.132-0.31-0.198-0.443-0.198c-0.524,0.147-0.887,0.616-1.086,1.407c-0.074-0.185-0.104-0.524-0.088-1.02
		c0.059-0.524,0.088-0.898,0.088-1.12c0.2-0.473,0.218-0.827,0.056-1.064c-0.237-0.177-0.403-0.321-0.499-0.432
		c0.022-0.148,0.096-0.352,0.222-0.61c0.163-0.251,0.262-0.432,0.299-0.542c0.022-0.06,0.207-0.167,0.554-0.322
		c0.251-0.147,0.322-0.303,0.211-0.466c-0.126-0.185-0.362-0.24-0.71-0.166c-0.421,0.141-0.731,0.229-0.931,0.266
		c-0.968,0.414-1.771,0.584-2.406,0.511l-0.167-0.6c-0.037,0.008-0.074,0.02-0.111,0.034L105.872,186.055z M8.805,125.893
		c0.199,0.037,0.491,0.081,0.876,0.133c0.339,0.185,0.613,0.222,0.82,0.111c0.163-0.163,0.281-0.281,0.355-0.355
		c0.088,0.03,0.288,0.136,0.599,0.321c0.081,0.052,0.174,0.107,0.277,0.167c0.037,0.022,0.107,0.166,0.21,0.433
		c0.096,0.221,0.207,0.288,0.333,0.199c0.148-0.074,0.211-0.255,0.188-0.543c-0.074-0.333-0.129-0.573-0.166-0.721
		c-0.325-1.035-0.358-1.781-0.1-2.239c0.125,0.022,0.417,0.096,0.875,0.222c0.141,0.022,0.277-0.096,0.41-0.355
		c0.177-0.362,0.292-0.573,0.344-0.632c0.111,0.015,0.226-0.03,0.344-0.133c0.059-0.059,0.118-0.133,0.177-0.221
		c0.207-0.274,0.336-0.448,0.388-0.521l0.333,0.521c0.029,0.074,0.055,0.148,0.077,0.221c0.281,0.754,0.5,1.183,0.654,1.287
		c0.111-0.126,0.34-0.219,0.688-0.278c0.303-0.037,0.565-0.029,0.787,0.022c-0.252,0.968-0.384,1.508-0.399,1.619
		c0,0.088-0.048,0.381-0.144,0.875c-0.037,0.451,0.011,0.717,0.144,0.798c0.141,0.066,0.41-0.026,0.81-0.277
		c0.421-0.311,0.698-0.502,0.832-0.576c0.029,0.236,0.236,0.41,0.62,0.521c0.2,0.059,0.436,0.052,0.71-0.022
		c0.333-0.074,0.539-0.11,0.621-0.11c-0.052,0.11-0.111,0.31-0.177,0.598c-0.059,0.274-0.089,0.484-0.089,0.632
		c0,0.074-0.063,0.229-0.188,0.466c-0.125,0.229-0.169,0.429-0.133,0.599c0.037,0.185,0.207,0.377,0.51,0.577
		c0.163,0.103,0.436,0.266,0.821,0.488c-0.311,0.059-0.766,0.233-1.364,0.521c-0.495,0.236-0.861,0.425-1.097,0.565
		c-0.488,0.074-0.707,0.333-0.654,0.776c0.037,0.163,0.203,0.362,0.499,0.599c0.178,0.148,0.458,0.366,0.842,0.654
		c-0.258-0.125-0.595-0.181-1.008-0.167c-0.458,0.059-0.769,0.089-0.931,0.089c-0.673-0.11-1.009,0.07-1.009,0.543
		c-0.295-0.037-0.68-0.167-1.153-0.388c-0.562-0.274-0.898-0.547-1.009-0.82c-0.059,0.169-0.258,0.354-0.599,0.554
		c-0.162,0.088-0.454,0.177-0.875,0.266c-0.384,0.096-0.669,0.144-0.854,0.144c0.384-0.495,0.358-0.825-0.078-0.987
		c-0.163-0.044-0.317-0.085-0.465-0.122c-0.82-0.2-1.375-0.285-1.663-0.255c0.672-0.547,1.164-0.924,1.474-1.13
		c-0.022-0.126-0.104-0.226-0.244-0.3c-0.554,0-0.883-0.169-0.987-0.51c-0.731-0.702-1.245-1.186-1.541-1.452l0.2,0.077
		c0.148,0.052,0.303,0.071,0.466,0.056c0.524-0.037,0.424-0.458-0.3-1.264c0.111-0.126,0.167-0.24,0.167-0.344
		c-0.074-0.436-0.414-0.739-1.02-0.909C8.177,125.863,8.443,125.855,8.805,125.893z M10.967,128.11
		c-0.059-0.059-0.107-0.107-0.144-0.145c0.236,0.251,0.447,0.473,0.632,0.666v-0.022C11.307,128.453,11.144,128.287,10.967,128.11z
		 M25.716,154.505c-0.02,0.011-0.041,0.021-0.061,0.033c-0.004,0.003-0.007,0.007-0.011,0.011c-0.034,0.024-0.069,0.05-0.105,0.078
		c-0.051,0.033-0.104,0.07-0.161,0.111c-0.013,0.013-0.085,0.042-0.216,0.088c-0.019,0.007-0.039,0.015-0.061,0.022
		c-0.14,0.037-0.248,0.092-0.321,0.166c-0.074,0.089-0.082,0.232-0.022,0.433c0.015,0.126,0.048,0.317,0.1,0.576
		c-0.347-0.259-0.839-0.469-1.474-0.632c-0.236-0.198-0.437-0.198-0.599,0c-0.059,0.097-0.07,0.462-0.033,1.098
		c-0.037-0.162-0.144-0.336-0.321-0.521c-0.222-0.178-0.366-0.303-0.433-0.378c-0.222-0.348-0.432-0.421-0.632-0.221
		c-0.111-0.148-0.203-0.377-0.277-0.688c-0.111-0.348-0.129-0.603-0.056-0.766c-0.111,0.037-0.273,0.019-0.488-0.055
		c-0.199-0.074-0.491-0.267-0.875-0.576c0.362-0.037,0.499-0.182,0.41-0.433c-0.311-0.599-0.54-0.973-0.688-1.12l1.086,0.188
		c0.044-0.052,0.055-0.126,0.033-0.222c-0.214-0.236-0.266-0.443-0.155-0.62c0.009-0.361,0.015-0.657,0.017-0.888
		c0.001-0.066,0.003-0.127,0.006-0.183c0-0.084,0-0.156,0-0.216l0.21,0.355c0.192,0.192,0.326,0.089,0.399-0.311
		c0.022-0.096,0.037-0.214,0.044-0.354c0.015,0,0.026,0,0.033,0c0.074,0,0.137-0.015,0.188-0.045c0.185-0.207,0.185-0.48,0-0.82
		c0.141,0.074,0.351,0.336,0.632,0.787c0.052,0.237,0.141,0.374,0.266,0.41c0.074,0.038,0.173,0.048,0.299,0.034
		c0.052,0.11,0.096,0.303,0.133,0.576c0,0.015-0.033,0.104-0.1,0.266c-0.022,0.037-0.037,0.066-0.044,0.089
		c-0.022,0.081,0,0.133,0.066,0.155c0.03,0.007,0.063,0.007,0.1,0c0.074-0.014,0.151-0.07,0.233-0.166
		c0.125-0.163,0.214-0.277,0.266-0.344c0.311-0.532,0.621-0.846,0.932-0.942c0.059,0.059,0.152,0.214,0.277,0.465
		c0.074,0.133,0.322,0.118,0.743-0.044c0.052,0.074,0.17,0.111,0.355,0.111c0.103-0.022,0.229-0.044,0.377-0.066l-0.078,0.366
		c-0.273,0.525-0.399,0.832-0.377,0.92c0.104,0,0.236,0.074,0.399,0.223c0.147,0.125,0.24,0.243,0.277,0.354
		c-0.096,0.06-0.388,0.215-0.876,0.466c-0.037,0.037-0.185,0.138-0.443,0.299c-0.074,0.053-0.137,0.101-0.188,0.146
		c-0.081,0.08-0.118,0.15-0.11,0.21c0.021,0.096,0.169,0.182,0.443,0.255c0.067,0.022,0.145,0.045,0.233,0.066
		c0.111,0.03,0.233,0.06,0.366,0.089c-0.045,0.052-0.067,0.115-0.067,0.188c-0.007,0.089,0.026,0.192,0.1,0.311
		c0.081,0.185,0.28,0.354,0.598,0.51C25.969,154.375,25.853,154.427,25.716,154.505z"/>
	<path fill-rule="evenodd" clip-rule="evenodd" fill="#F59D44" d="M292.702,174.991c-0.142-0.081-0.285-0.154-0.434-0.222v-0.011
		c-0.133-0.06-0.262-0.115-0.388-0.167c-0.021-0.036-0.041-0.066-0.056-0.088c-0.236-0.532-0.51-0.669-0.82-0.41
		c-0.104-0.222-0.185-0.54-0.244-0.954c-0.088-0.51-0.07-0.868,0.056-1.074c-0.111,0.036-0.322-0.02-0.632-0.167
		c-0.273-0.125-0.629-0.443-1.064-0.954c0.532,0.023,0.751-0.146,0.654-0.509c-0.288-0.857-0.524-1.397-0.709-1.618l1.429,0.487
		c0.068-0.066,0.101-0.166,0.101-0.3c-0.251-0.361-0.284-0.665-0.101-0.909c-0.021-0.118,0.012-0.38,0.101-0.786
		c0.096-0.474,0.151-0.773,0.166-0.898l0.034,0.166c0.052,0.126,0.114,0.244,0.188,0.355c0.236,0.31,0.473,0.048,0.709-0.787
		l0.299-0.033c0.273-0.237,0.336-0.603,0.189-1.098c0.169,0.125,0.387,0.51,0.653,1.152c0.037,0.326,0.141,0.532,0.311,0.621
		c0.089,0.037,0.226,0.066,0.41,0.088c0.029,0.148,0.045,0.414,0.045,0.799c0,0.037-0.07,0.152-0.212,0.344
		c-0.095,0.163-0.088,0.274,0.023,0.333c0.125,0.051,0.272,0.007,0.442-0.134c0.111-0.081,0.256-0.229,0.433-0.442
		c0.532-0.637,1.016-0.999,1.453-1.087c0.059,0.088,0.151,0.325,0.276,0.709c0.037,0.089,0.17,0.126,0.399,0.111
		c0.348-0.022,0.551-0.034,0.609-0.034c0.073,0.111,0.229,0.179,0.466,0.2c0.126,0,0.295,0,0.51,0
		c-0.044,0.163-0.114,0.313-0.211,0.455c-0.161,0.222-0.292,0.413-0.387,0.576c-0.2,0.296-0.289,0.495-0.267,0.599
		c0.147,0.021,0.31,0.145,0.487,0.365c0.148,0.177,0.259,0.354,0.333,0.533l-1.297,0.442c-0.251,0.111-0.458,0.211-0.621,0.299
		c-0.348,0.187-0.511,0.341-0.487,0.466c0.015,0.2,0.451,0.448,1.308,0.743c-0.147,0.104-0.167,0.321-0.056,0.653
		c0.052,0.163,0.163,0.318,0.333,0.467c0.198,0.162,0.317,0.28,0.354,0.354c-0.259,0.036-0.58,0.162-0.964,0.377
		c-0.037,0.044-0.163,0.073-0.377,0.089c-0.216,0.015-0.37,0.07-0.466,0.167c-0.111,0.103-0.167,0.302-0.167,0.598
		c0,0.163,0.011,0.425,0.034,0.788c-0.312-0.326-0.92-0.714-1.83-1.165c-0.295-0.296-0.573-0.324-0.831-0.089
		C292.801,174.481,292.738,174.682,292.702,174.991z M212.418,155.403c0.376-0.459,0.887-0.913,1.529-1.363
		c1.294-0.91,2.661-1.401,4.103-1.476c1.33-0.31,2.549-0.398,3.658-0.265c1.492,0.154,2.424,0.698,2.793,1.629
		c0.599-0.311,1.364-0.466,2.295-0.466c0.835-0.015,1.525,0.077,2.073,0.276c0.969,0.075,1.925,0.337,2.871,0.788
		c1.456,0.694,2.32,1.644,2.594,2.849c1.132,0.252,1.925,0.507,2.384,0.765c0.503,0.288,0.946,0.651,1.33,1.087
		c0.458,0.524,0.836,1.156,1.131,1.896c0.799,1.078,1.39,2.162,1.773,3.249c0.562,1.566,0.636,3.033,0.222,4.4
		c0.673,0.672,1.139,1.367,1.397,2.084c0.377,0.998,0.454,2.283,0.232,3.857c0.17,0.998,0.026,2.125-0.432,3.382
		c-0.252,0.696-0.547,1.225-0.882,1.585c-0.027,0.031-0.055,0.061-0.084,0.089c-0.31,0.303-0.66,0.466-1.053,0.488
		c0.031,0.254,0.046,0.515,0.045,0.781c0.001,1.142-0.279,2.394-0.843,3.752c-0.783,1.899-1.796,2.912-3.037,3.038l-0.898,0.167
		c-0.599,0.886-1.7,1.521-3.304,1.906c-1.84,0.45-3.329,0.044-4.468-1.221l0.034-0.032l1.175,0.82
		c-0.066-0.511-0.329-2.103-0.787-4.777c-0.355-2.063-0.654-3.703-0.897-4.923c-0.112-0.606-0.212-1.108-0.3-1.508
		c0.081,0.51,0.159,1.013,0.233,1.508c0.421,3.074,0.45,5.905,0.088,8.491l-0.099,0.61c-0.326,0.68-0.885,1.289-1.675,1.829
		c-1.006,0.673-2.173,1.083-3.504,1.231c-2.874,0.324-5.206-0.58-6.994-2.717c-0.022-0.03-0.045-0.056-0.067-0.078
		c0.325-0.916,1.431-3.048,3.315-6.396c0.613-1.094,1.179-2.084,1.696-2.971c1.021-1.774,1.848-3.152,2.483-4.136
		c-0.193,0.281-1.264,1.66-3.216,4.136c-0.569,0.717-1.22,1.533-1.95,2.45c-2.838,3.591-4.294,5.631-4.369,6.119
		c-0.31-0.036-0.626-0.093-0.946-0.166c-0.131-0.03-0.263-0.063-0.395-0.1c-1.282-0.355-2.26-0.966-2.933-1.83
		c-0.358-0.466-0.63-1.005-0.814-1.618c-0.95-1.453-1.593-2.45-1.929-2.993c-0.137-0.226-0.223-0.374-0.255-0.443
		c-0.118-0.255-0.218-0.505-0.299-0.749c-0.299-0.897-0.342-1.728-0.134-2.488c0.162-0.217,0.375-0.442,0.637-0.676
		c0.276-0.249,0.607-0.508,0.993-0.776c0.528-0.37,1.159-0.758,1.896-1.164c0.489-0.271,0.981-0.531,1.48-0.781
		c0.379-0.189,0.762-0.372,1.146-0.549c1.056-0.48,2.131-0.913,3.227-1.297c-0.97,0.265-2.216,0.445-3.741,0.543
		c-0.346,0.023-0.706,0.042-1.081,0.055c-0.188,0.009-0.375,0.016-0.561,0.022c-2.043,0.062-3.959-0.023-5.748-0.255
		c-0.051-0.225-0.092-0.451-0.121-0.677c-0.063-0.455-0.085-0.911-0.066-1.368c0.012-0.269,0.038-0.535,0.077-0.804
		c0.348-2.224,1.076-4.076,2.185-5.555c-0.074-0.82,0.036-1.813,0.332-2.981c0.259-1.086,0.603-2.032,1.03-2.838
		c0.386-0.71,1.217-1.363,2.495-1.962c0.613-0.296,1.12-0.492,1.52-0.588c2.068,0.599,4.045,1.814,5.93,3.647
		c0.399,0.392,0.795,0.81,1.187,1.252c-0.348-0.51-0.742-1.034-1.187-1.573c-0.657-0.776-1.419-1.57-2.283-2.384
		C213.571,156.246,212.824,155.632,212.418,155.403z M240.021,179.049c-0.247-0.557-0.784-1.103-1.613-1.636
		c-1.302-0.841-3.321-1.651-6.059-2.433c0.577,0.31,2.04,0.982,4.391,2.018c0.931,0.433,1.665,0.815,2.206,1.147
		C239.532,178.506,239.891,178.807,240.021,179.049z M231.552,179.77c0.318,0.547,0.662,1.138,1.031,1.773
		c1.427,2.476,2.228,3.932,2.405,4.368c-0.524-1.367-1.489-3.308-2.893-5.82c-0.061-0.111-0.119-0.219-0.179-0.321
		c-1.345-2.432-2.272-3.883-2.782-4.357C229.608,176.336,230.414,177.788,231.552,179.77z M224.501,153.929
		c0.141,1.116,0.229,2.364,0.267,3.746c0.015,0.533,0.021,1.05,0.021,1.553c-0.021,1.396-0.118,2.694-0.288,3.891
		c0.237-0.702,0.422-1.999,0.555-3.891c0.03-0.414,0.055-0.857,0.077-1.33c0.126-2.461,0.134-3.847,0.023-4.158L224.501,153.929z
		 M221.763,158.029c-0.177,0.038-0.351,0.138-0.521,0.301c-0.184,0.221-0.34,0.395-0.465,0.521l-0.82,0.709
		c0.185,0.533,0.605,1.683,1.264,3.447c0.547,1.553,0.82,2.38,0.82,2.483c0.037-1.167,0.045-2.387,0.021-3.657
		c0-1.116-0.018-1.984-0.055-2.605C221.963,158.407,221.881,158.008,221.763,158.029z M213.238,165.686
		c-0.922-0.238-2.281-0.575-4.08-1.016c-2.055-0.486-3.101-0.916-3.137-1.285c-0.074,0.806-0.347,1.481-0.821,2.029
		c0.6-0.26,2.155-0.285,4.668-0.078c1.422,0.094,2.546,0.216,3.37,0.366c0.085,0.013,0.166,0.027,0.243,0.044
		C213.404,165.726,213.323,165.705,213.238,165.686z M216.221,170.225c0.266,0,0.505-0.007,0.72-0.021
		c0.953-0.045,1.376-0.187,1.264-0.422l-0.154-0.455c-0.495-0.554-0.817-0.894-0.965-1.02c-0.044-0.044-0.093-0.078-0.145-0.1
		c-0.17-0.066-0.409-0.033-0.72,0.1c-0.606,0.222-1.01,0.369-1.209,0.443c-0.295,0.126-0.443,0.318-0.443,0.576
		C214.568,169.926,215.12,170.225,216.221,170.225z M227.66,172.409c0.081,0.052,0.167,0.1,0.255,0.144
		c2.188,1.33,3.966,2.103,5.332,2.316c1.204,0.186,1.878-0.102,2.024-0.858c0.03-0.149,0.04-0.318,0.027-0.504
		c0.279-0.168,0.492-0.359,0.644-0.571c0.364-0.511,0.364-1.152,0-1.923c-0.71-1.021-1.064-1.601-1.064-1.742
		c0-0.185-0.609-0.213-1.829-0.088c-0.628,0.063-1.325,0.16-2.09,0.288c-0.57,0.098-1.178,0.212-1.824,0.344
		c0.489-0.187,0.959-0.376,1.408-0.565c1.134-0.476,2.143-0.96,3.026-1.452c1.168-0.643,1.789-1.112,1.862-1.408
		c0.052-0.214-0.029-0.895-0.243-2.039c-0.26-1.205-0.406-1.934-0.444-2.185c-0.036-0.296-0.554-0.455-1.552-0.477
		c-1.042-0.015-1.663-0.266-1.862-0.753c-0.468,0.218-2.017,2.433-4.65,6.64c-0.113,0.185-0.23,0.374-0.35,0.565
		c-0.347-0.178-1.086-0.222-2.217-0.133c-0.051,0.005-0.102,0.01-0.15,0.017c-1.165,0.115-1.862,0.364-2.089,0.748
		c-0.473,0.783-0.691,1.313-0.654,1.585c0.015,0.163,0.289,0.636,0.82,1.42c0.474,0.679,1.119,1.281,1.939,1.807
		c0.77,0.473,1.279,0.665,1.53,0.576c0.273-0.111,0.702-0.421,1.286-0.931C227.188,172.903,227.477,172.63,227.66,172.409z
		 M226.364,169.537c0.096,0.2,0.203,0.447,0.321,0.743c0.311,0.813,0.429,1.323,0.354,1.529c-0.008,0.007-0.012,0.022-0.012,0.045
		c-0.08,0.185-0.343,0.469-0.786,0.854c-0.451,0.384-0.776,0.613-0.976,0.688c-0.186,0.073-0.563-0.071-1.131-0.433
		c-0.613-0.384-1.105-0.835-1.475-1.353c-0.399-0.576-0.606-0.938-0.621-1.087c-0.021-0.199,0.141-0.591,0.487-1.175
		c0.186-0.311,0.751-0.503,1.697-0.576c0.856-0.074,1.411-0.037,1.662,0.111C226.021,168.942,226.179,169.161,226.364,169.537z
		 M230.599,159.228c-0.125,0.185-0.236,0.351-0.333,0.499c-0.621,0.982-1.086,1.903-1.396,2.76c-0.473,1.33-0.2,1.058,0.82-0.82
		c0.895-1.042,1.574-1.855,2.04-2.438c0.437-0.563,0.669-0.905,0.697-1.031c0.067-0.236-0.08-0.564-0.442-0.986
		C231.408,158.029,230.946,158.703,230.599,159.228z M233.159,158.386c-0.333,0.191-0.698,0.473-1.097,0.842
		c-0.614,0.576-1.306,1.364-2.074,2.361c-1.182,1.529-1.902,2.724-2.161,3.581c0.163-0.399,0.946-1.475,2.35-3.227
		c0.909-1.115,1.659-2.021,2.25-2.716C232.709,158.902,232.952,158.622,233.159,158.386z M235.875,164.017
		c-0.036,0.111-0.055,0.21-0.055,0.3c0,0.458,0.095,0.86,0.288,1.208c0.31,0.495,0.761,0.669,1.352,0.521
		c0.599-0.148,0.824-0.514,0.677-1.098c-0.11-0.437-0.311-0.772-0.599-1.01c-0.495-0.384-0.923-0.502-1.286-0.354
		C236.067,163.658,235.942,163.803,235.875,164.017z M231.274,169.349c1.242-0.399,2.746-0.772,4.512-1.12
		c1.966-0.397,3.16-0.554,3.581-0.466c-0.325-0.184-0.997-0.228-2.018-0.133c-1.042,0.074-1.918,0.244-2.627,0.511L231.274,169.349z
		 M238.048,169.626c-0.088,0.141-0.103,0.433-0.044,0.876c0.029,0.324,0.155,0.68,0.377,1.063c0.222,0.34,0.333,0.596,0.333,0.766
		c0,0.185-0.038,0.547-0.111,1.086c-0.037,0.532,0,0.928,0.111,1.187c0.162,0.398,0.479,0.687,0.952,0.864
		c0.548,0.222,1.021,0.148,1.42-0.221c0.369-0.326,0.462-0.707,0.276-1.143c-0.272-0.421-0.429-0.713-0.466-0.875
		c-0.015-0.104-0.032-0.434-0.055-0.987c-0.016-0.524-0.051-0.924-0.11-1.197c-0.273-0.997-0.585-1.601-0.931-1.807
		c-0.179-0.111-0.415-0.166-0.711-0.166l-0.376,0.066C238.352,169.338,238.13,169.5,238.048,169.626z M223.238,180.8
		c-0.236,0.222-0.381,0.64-0.434,1.253c-0.073,0.666,0.07,0.979,0.434,0.942c0.348-0.036,0.646-0.376,0.897-1.019
		c0.184-0.489,0.277-0.88,0.277-1.177l0.277-1.452c-0.06-0.103-0.146-0.191-0.256-0.266c-0.236-0.162-0.487-0.162-0.754,0
		c-0.147,0.081-0.229,0.311-0.243,0.688c0,0.044,0,0.089,0,0.133C223.415,180.39,223.349,180.69,223.238,180.8z M226.63,180.035
		c-0.272-0.028-0.439,0.107-0.498,0.41c-0.031,0.2-0.201,0.684-0.511,1.452c-0.236,0.584-0.299,1.013-0.188,1.287
		c0.088,0.251,0.096,0.532,0.022,0.842c-0.074,0.348-0.081,0.639-0.022,0.875c0.088,0.386,0.358,0.685,0.81,0.898
		c0.48,0.237,0.721,0.186,0.721-0.155c0-0.146,0.081-0.605,0.243-1.375c0.126-0.612,0.133-1.038,0.022-1.274
		c-0.126-0.296-0.214-0.717-0.266-1.263c-0.038-0.496-0.038-0.898,0-1.209C227.015,180.25,226.903,180.087,226.63,180.035z
		 M178.595,125.494c0.072-0.035,0.147-0.069,0.222-0.1c1.579-0.648,3.493-0.25,5.743,1.198l-1.419,0.266
		c-0.592-0.392-1.271-0.676-2.041-0.854c-0.786-0.179-1.489-0.168-2.11,0.034c-0.605,0.196-1.133,0.572-1.58,1.13
		c-0.414,0.546-0.932,1.364-1.553,2.45l-0.787,1.475c0.112-0.499,0.24-0.968,0.383-1.408c0.068-0.208,0.141-0.409,0.217-0.604
		c0.306-0.786,0.67-1.46,1.091-2.023c0.339-0.448,0.714-0.825,1.126-1.13C178.114,125.755,178.351,125.611,178.595,125.494z
		 M176.854,126.491c-0.077,0.082-0.153,0.165-0.228,0.25c-0.116,0.135-0.229,0.273-0.338,0.416
		c-0.511,0.678-0.924,1.446-1.235,2.306c-0.211,0.582-0.374,1.206-0.493,1.874c-0.07,0.412-0.132,0.824-0.184,1.236
		c-0.266,2.162-0.271,4.295-0.017,6.402c0.08,0.606,0.181,1.183,0.299,1.729v0.011c0.362,1.664,0.913,3.049,1.652,4.158
		c0.007,0.015,0.015,0.029,0.022,0.044c0.141,0.192,0.28,0.377,0.421,0.554c0.177,0.096,0.429,0.229,0.753,0.399
		c0.474,0.295,0.84,0.658,1.098,1.086c0.06,0.089,0.111,0.181,0.156,0.277c-0.267,0-0.65,0.118-1.153,0.354
		c-0.503,0.244-0.795,0.366-0.876,0.366c-0.133,0-0.432-0.34-0.897-1.02c-0.348-0.54-0.58-0.905-0.699-1.098
		c-0.036-0.052-0.066-0.096-0.088-0.133c-0.762-1.219-1.305-2.886-1.63-5c-0.177-1.124-0.292-2.369-0.344-3.736
		c-0.122-3.178,0.078-5.656,0.599-7.433c0.065-0.221,0.137-0.432,0.211-0.632c0.054-0.14,0.108-0.274,0.166-0.404
		c0.769-1.663,1.777-2.971,3.026-3.925c1.552-1.19,3.234-1.582,5.045-1.175c0.797,0.162,1.528,0.676,2.194,1.541
		c0.333,0.437,0.58,0.857,0.743,1.264c-0.423-0.428-0.958-0.816-1.607-1.164c-1.265-0.709-2.433-0.872-3.503-0.488
		c-0.443,0.149-0.862,0.331-1.259,0.543c-0.025,0.013-0.049,0.026-0.072,0.039C177.965,125.498,177.377,125.951,176.854,126.491z
		 M176.201,122.966c1.811-1.161,3.657-1.493,5.543-0.998c0.99,0.362,1.807,0.846,2.449,1.452c0.761,0.694,1.349,1.582,1.762,2.661
		c-0.774-1.441-1.844-2.424-3.203-2.949c-2.365-0.636-4.549-0.148-6.551,1.463c-1.721,1.346-2.814,3.019-3.282,5.016
		c-0.032,0.141-0.062,0.283-0.088,0.427c-0.05,0.268-0.097,0.537-0.14,0.81c-0.396,2.522-0.493,5.201-0.294,8.037
		c0.045,0.643,0.104,1.249,0.178,1.818c0.267,2.04,0.705,3.551,1.319,4.534c0.03,0.022,0.066,0.052,0.111,0.088
		c0.28,0.251,0.531,0.5,0.753,0.743c0.71,0.783,1.064,1.475,1.064,2.073c0,0.162-0.484,0.38-1.452,0.653
		c-1.005,0.274-1.895,0.411-2.672,0.411c-1.573,0-2.841-0.218-3.802-0.654c-0.211-0.091-0.432-0.212-0.66-0.361
		c-0.067-0.043-0.136-0.089-0.204-0.138c-0.281-0.185-0.466-0.296-0.555-0.333v-0.033c0.266,0.006,0.552-0.08,0.859-0.261
		c0.351-0.208,0.729-0.539,1.137-0.992c0.65-0.739,1.012-1.368,1.085-1.884c0-0.059,0.004-0.118,0.011-0.178
		c-0.007,0-0.007-0.003,0-0.011c0.016-0.384,0.034-0.765,0.056-1.142c0.214-3.556,0.474-6.419,0.776-8.592
		c0.032-0.232,0.066-0.458,0.1-0.676c0.133-0.827,0.28-1.605,0.444-2.334c0.488-2.163,1.115-3.894,1.885-5.193
		C173.673,125.013,174.797,123.86,176.201,122.966z M166.034,147.709c0.387,0.245,0.781,0.464,1.182,0.659
		c1.801,0.881,3.762,1.275,5.881,1.181c1.655-0.133,3.237-0.439,4.745-0.92c1.02-0.325,1.776-0.658,2.271-0.998
		c0.525,0.207,1.091,0.399,1.697,0.577c0.177,0.177,0.07,0.417-0.322,0.72c-0.487,0.348-1.016,0.455-1.585,0.321
		c-0.961-0.214-2.073-0.192-3.337,0.067c-1.323,0.311-2.287,0.75-2.894,1.319c-1.227-0.791-2.543-0.902-3.946-0.333
		c-0.747-0.702-1.578-1.16-2.494-1.375c-0.026-0.008-0.053-0.015-0.077-0.022c-0.416-0.116-0.831-0.177-1.242-0.183
		c-0.597-0.009-1.188,0.101-1.773,0.327c-0.828,0.044-1.146-0.203-0.954-0.743c0.725-0.273,1.482-0.602,2.272-0.987
		C165.649,147.458,165.842,147.586,166.034,147.709z M141.197,166.022v-0.005c0.026-0.157,0.054-0.314,0.083-0.472
		c0.08-0.417,0.168-0.834,0.266-1.252c0.961-4.205,2.69-7.687,5.188-10.443c2.632-2.934,5.631-4.512,9.002-4.733
		c0.946-0.059,1.896-0.015,2.849,0.133c1.123,0.178,2.247,0.514,3.37,1.009c-1.264,0.451-2.615,1.167-4.058,2.15
		c-6.519,4.464-9.715,11.383-9.589,20.754c0.089,6.296,1.692,11.281,4.811,14.954c1.56,1.848,3.504,3.366,5.832,4.556
		c0.214,0.111,0.433,0.211,0.653,0.3c-0.539-0.051-1.063-0.119-1.573-0.199c-5.309-0.853-9.488-3.446-12.538-7.782
		c-0.109-0.152-0.217-0.308-0.322-0.466c-1.039-1.558-1.938-3.328-2.7-5.311c-0.16-0.412-0.313-0.833-0.459-1.264
		c-0.17-0.348-0.326-0.695-0.466-1.042c-0.06-0.248-0.118-0.497-0.171-0.748c-0.063-0.297-0.12-0.595-0.172-0.893
		c-0.021-0.12-0.042-0.239-0.061-0.359c-0.173-1.046-0.282-2.097-0.328-3.155c-0.052-1.284-0.009-2.577,0.128-3.88
		c0.032-0.312,0.069-0.623,0.11-0.937C141.096,166.635,141.144,166.33,141.197,166.022z M142.605,166.971
		c0.048-0.172,0.098-0.345,0.15-0.516c0.858-2.871,2.229-5.694,4.113-8.469c3.414-5.211,7.375-7.598,11.884-7.162
		c-4.109-2.187-8.138-0.672-12.084,4.546c-2.766,3.622-4.316,7.147-4.65,10.575c-0.019,0.181-0.033,0.361-0.044,0.543v0.012
		c-0.023,0.385-0.031,0.77-0.022,1.153c0.008,0.429,0.036,0.857,0.083,1.285c0.014,0.115,0.028,0.229,0.044,0.344
		c0.014-0.082,0.029-0.163,0.044-0.244c0.066-0.338,0.137-0.676,0.216-1.014c0.079-0.346,0.166-0.691,0.261-1.037
		C142.602,166.98,142.604,166.976,142.605,166.971z M140.044,167.226c-0.12,1.001-0.188,2.02-0.205,3.055
		c-0.699-0.901-1.538-1.71-2.517-2.428c-1.168-0.865-2.243-1.415-3.226-1.652c1.686-0.88,3.333-1.183,4.944-0.908
		c0.427,0.072,0.841,0.183,1.242,0.326c-0.047,0.265-0.09,0.531-0.128,0.798c-1.341-0.638-2.74-0.695-4.195-0.172
		C137.423,166.112,138.785,166.439,140.044,167.226z M167.909,151.501c-0.229,0.111-0.455,0.236-0.677,0.376
		c-0.115,0.069-0.228,0.141-0.339,0.212c-0.446,0.281-0.879,0.576-1.296,0.886c-5.844,4.337-8.562,11.351-8.154,21.041
		c0.178,5.21,1.249,9.504,3.216,12.882c1.56,2.728,3.562,4.549,6.008,5.466c-1.39,0.843-2.757,1.23-4.103,1.163
		c-0.71-0.028-1.415-0.191-2.117-0.487c-0.258-0.104-0.517-0.225-0.775-0.366c-6.696-3.547-10.11-10.051-10.243-19.51
		c-0.134-9.371,2.952-16.29,9.257-20.754c2.498-1.773,4.722-2.693,6.674-2.76c0.154-0.006,0.308-0.006,0.46,0
		c0.259,0.007,0.513,0.029,0.759,0.066c0.161,0.023,0.321,0.052,0.482,0.089c0.792,0.184,1.6,0.546,2.422,1.087
		c-0.503,0.125-1.008,0.317-1.519,0.576c-0.324-0.221-0.657-0.401-0.998-0.543c-0.397-0.163-0.808-0.272-1.23-0.327
		c-0.347-0.045-0.701-0.055-1.064-0.028c-1.004,0.089-2.209,0.484-3.612,1.187c-2.677,1.309-5.086,3.977-7.229,8.004
		c-1.931,3.591-2.827,6.44-2.694,8.547c0.568-3.333,2.45-7.036,5.643-11.108c3.054-3.835,6.025-5.821,8.912-5.958
		c0.419-0.021,0.834-0.002,1.248,0.056C167.264,151.34,167.586,151.408,167.909,151.501z M159.272,167.707
		c0,0.09,0.004,0.179,0.011,0.267c0.658-3.68,2.144-7.139,4.457-10.376c0.6-0.854,1.21-1.6,1.829-2.234
		c0.413-0.422,0.831-0.794,1.253-1.119c2.186-1.676,4.487-2.024,6.906-1.047c-2.037-1.503-4.33-1.542-6.879-0.117
		c-0.135,0.076-0.27,0.156-0.405,0.238c-0.296,0.184-0.586,0.383-0.87,0.599c-0.105,0.079-0.211,0.16-0.315,0.245
		c0.104-0.104,0.21-0.205,0.315-0.306c0.41-0.383,0.838-0.746,1.287-1.092c0.455-0.356,0.929-0.691,1.424-1.009l1.108-0.632
		c0.354-0.185,0.71-0.322,1.064-0.411c0.665-0.185,1.312-0.236,1.939-0.155c1.028,0.118,2.019,0.58,2.971,1.385
		c2.063,1.716,3.796,3.995,5.2,6.841c1.264,2.579,2.14,5.247,2.628,8.004c1.086,6.57,0.713,12.395-1.121,17.471
		c-0.106,0.297-0.216,0.587-0.331,0.87c-0.16,0.399-0.328,0.784-0.505,1.153c-1.767,3.689-4.28,5.87-7.544,6.546l-1.885,0.233
		c-0.141,0-0.288,0-0.443,0c-0.096,0-0.188,0-0.276,0c-2.786-0.097-5.123-1.197-7.007-3.304c-1.508-1.604-2.694-3.633-3.56-6.086
		c-1.182-3.325-1.706-7.247-1.573-11.763c0.022,1.213,0.096,2.387,0.222,3.525c-0.038-0.479-0.066-0.976-0.089-1.485
		C158.995,171.725,159.059,169.645,159.272,167.707z M180.391,150.104c1.4-0.73,2.787-1.232,4.157-1.507
		c1.466-0.288,2.918-0.309,4.356-0.066c0.241,0.041,0.481,0.088,0.722,0.144c0.021,0.005,0.044,0.011,0.066,0.017
		c2.983,0.713,5.562,2.474,7.732,5.282c0.092,0.118,0.184,0.239,0.276,0.361c0.092,0.121,0.182,0.244,0.272,0.37
		c0.032,0.056,0.066,0.109,0.099,0.161l0.034,0.05c0.052,0.066,0.1,0.137,0.144,0.21c0.104,0.148,0.203,0.296,0.3,0.444
		c0.487,0.747,0.928,1.529,1.318,2.351c0.932,1.914,1.611,3.965,2.041,6.152c0.073,0.362,0.14,0.734,0.199,1.12
		c0.059,0.405,0.114,0.819,0.166,1.24c0.008,0.097,0.019,0.193,0.032,0.288c0.18,1.654,0.218,3.266,0.117,4.834
		c-0.036,0.597-0.094,1.188-0.172,1.773c-0.261,1.931-0.741,3.793-1.44,5.588c-0.17,0.429-0.351,0.854-0.544,1.274
		c-0.044,0.038-0.085,0.081-0.122,0.134c-0.008,0.018-0.015,0.034-0.021,0.049c-0.484,1.025-1.049,2.014-1.697,2.966
		c-1.622,2.424-3.427,4.406-5.415,5.948c-0.46,0.357-0.932,0.692-1.412,1.003c-0.41,0.265-0.829,0.512-1.254,0.743
		c-2.099,1.131-4.105,1.618-6.02,1.463c1.565-0.836,2.955-1.834,4.168-2.993c0.341-0.326,0.669-0.667,0.981-1.02
		c0.582-0.654,1.116-1.353,1.603-2.096c2.15-3.267,3.373-7.391,3.669-12.372c0.569-9.327-2.365-16.355-8.803-21.085
		C183.928,151.452,182.075,150.51,180.391,150.104z M176.289,151.943c-0.628-0.494-1.275-0.86-1.939-1.097
		c0.96-0.532,1.896-0.846,2.804-0.942c0.333-0.037,0.677-0.044,1.031-0.022c1.951,0.103,4.165,1.12,6.641,3.048
		c6.09,4.729,8.873,11.758,8.348,21.085c-0.329,5.938-1.899,10.658-4.712,14.162c-0.285,0.354-0.583,0.697-0.892,1.025
		c-1.509,1.603-3.317,2.911-5.427,3.924c-0.887,0.43-1.767,0.674-2.639,0.732c-1.403,0.074-2.797-0.322-4.179-1.187
		c2.911-0.783,5.208-2.726,6.89-5.825c0.195-0.358,0.382-0.731,0.56-1.119c0.216-0.468,0.419-0.957,0.609-1.47
		c1.929-5.076,2.324-10.9,1.187-17.471c-0.436-2.757-1.356-5.425-2.76-8.004C180.324,155.938,178.484,153.659,176.289,151.943z
		 M181.089,151.356c5.211,4.73,7.882,11.604,8.016,20.619c0.089,6.016-0.993,11.097-3.249,15.243
		c-0.2,0.373-0.411,0.736-0.631,1.093c-0.976,1.578-2.137,3.01-3.48,4.295c1.816-1.04,3.387-2.309,4.711-3.802
		c0.293-0.33,0.574-0.67,0.842-1.021c2.768-3.62,4.265-8.409,4.49-14.367c0.311-9.104-2.49-15.934-8.403-20.486
		C182.771,152.405,182.006,151.881,181.089,151.356z M200.268,168.628c1.139-3.895-0.133-8.292-3.813-13.191
		c-3.939-5.173-8.226-6.929-12.86-5.266c4.769-0.437,8.903,1.95,12.406,7.16C198.757,161.447,200.18,165.214,200.268,168.628z
		 M116.637,152.521l0.487,0.134c0.089,0.036,0.3,0.129,0.632,0.276c0.326,0.148,0.543,0.203,0.654,0.166
		c-0.022-0.147,0.06-0.332,0.244-0.554c0.163-0.155,0.325-0.288,0.488-0.399l0.665,1.175c0.052,0.052,0.188,0.244,0.41,0.577
		c0.229,0.303,0.41,0.439,0.543,0.409c0.125-0.044,0.232-0.254,0.321-0.631c0.082-0.422,0.137-0.688,0.167-0.799
		c0.147,0.11,0.37,0.093,0.665-0.055c0.141-0.089,0.266-0.222,0.377-0.399c0.147-0.244,0.247-0.392,0.299-0.443
		c0.074,0.258,0.259,0.559,0.555,0.897c0.029,0.037,0.085,0.155,0.167,0.355c0.052,0.221,0.133,0.369,0.243,0.443
		c0.126,0.089,0.322,0.106,0.588,0.055c0.17-0.036,0.429-0.099,0.776-0.188c-0.296,0.414-0.569,1.087-0.821,2.019
		c-0.236,0.348-0.221,0.621,0.045,0.82c0.111,0.073,0.321,0.1,0.632,0.077c0.185,0,0.469-0.025,0.853-0.077
		c-0.199,0.073-0.417,0.236-0.654,0.487c-0.236,0.28-0.41,0.465-0.521,0.554c-0.458,0.326-0.55,0.626-0.276,0.898
		c-0.2,0.148-0.499,0.284-0.898,0.411c-0.495,0.147-0.842,0.177-1.042,0.088c0.037,0.14,0.019,0.354-0.056,0.643
		c-0.125,0.37-0.38,0.784-0.765,1.242c-0.052-0.495-0.251-0.68-0.599-0.555c-0.806,0.444-1.308,0.772-1.507,0.986l0.244-1.507
		c-0.089-0.052-0.196-0.06-0.322-0.021c-0.132,0.125-0.288,0.217-0.465,0.275c-0.148,0.03-0.277,0.02-0.388-0.032
		c-0.126,0.036-0.389,0.048-0.787,0.032c-0.51,0-0.821,0-0.932,0l0.465-0.31c0.311-0.325,0.011-0.514-0.897-0.565
		c0-0.126-0.03-0.226-0.089-0.3c-0.273-0.206-0.636-0.199-1.086,0.023c0.089-0.186,0.425-0.471,1.009-0.854
		c0.325-0.09,0.518-0.223,0.577-0.399c0-0.186,0-0.322,0-0.41c0.141-0.074,0.403-0.142,0.787-0.2
		c0.037-0.016,0.167,0.033,0.388,0.145c0.163,0.073,0.262,0.045,0.3-0.09c0.037-0.14-0.038-0.275-0.222-0.41
		c-0.222-0.162-0.384-0.28-0.488-0.354c-0.731-0.399-1.171-0.81-1.319-1.231c0.074-0.073,0.284-0.199,0.631-0.377
		c0.089-0.059,0.1-0.203,0.033-0.432c-0.096-0.311-0.144-0.503-0.144-0.577c0.11-0.073,0.148-0.239,0.11-0.499
		C116.677,152.783,116.651,152.609,116.637,152.521z M114.563,168.373c1.522-1.699,3.263-2.612,5.221-2.737
		c0.554-0.038,1.109-0.011,1.664,0.077c0.65,0.104,1.3,0.295,1.951,0.576c-0.731,0.267-1.515,0.684-2.35,1.253
		c-3.535,2.418-5.391,6.075-5.565,10.969c-0.013,0.354-0.017,0.714-0.012,1.082c0.038,2.604,0.52,4.821,1.447,6.65
		c0.377,0.739,0.826,1.417,1.347,2.028c0.909,1.072,2.04,1.952,3.393,2.639c0.125,0.066,0.251,0.13,0.377,0.188
		c-0.318-0.036-0.625-0.076-0.92-0.122c-2.593-0.418-4.724-1.553-6.391-3.402c-1.217-1.353-2.187-3.086-2.911-5.199
		c-0.088-0.207-0.177-0.41-0.266-0.61c-0.074-0.317-0.141-0.636-0.2-0.953c-0.25-1.411-0.3-2.839-0.149-4.284
		c0.07-0.689,0.187-1.382,0.349-2.079C112.11,172.003,113.115,169.978,114.563,168.373z M134.518,152.21
		c-0.901-0.199-1.615,0.025-2.14,0.677c-0.251,0.317-0.554,0.79-0.909,1.418l-0.466,0.854c0.325-1.427,0.872-2.425,1.641-2.993
		c1.012-0.754,2.302-0.629,3.869,0.377l-0.821,0.167C135.354,152.48,134.961,152.313,134.518,152.21z M133.842,151.367
		c-0.703,0.237-1.301,0.614-1.796,1.132c-0.687,0.716-1.13,1.655-1.33,2.815c-0.251,1.5-0.289,2.975-0.111,4.423
		c0.044,0.355,0.1,0.691,0.166,1.009v0.012c0.207,0.96,0.529,1.762,0.964,2.405c0,0.007,0.004,0.015,0.011,0.021
		c0.082,0.111,0.163,0.219,0.244,0.322c0.103,0.059,0.251,0.137,0.443,0.232c0.266,0.178,0.476,0.393,0.632,0.644
		c0.029,0.052,0.059,0.104,0.088,0.155c-0.155,0-0.38,0.069-0.676,0.21c-0.288,0.134-0.454,0.2-0.499,0.2
		c-0.073,0-0.247-0.197-0.521-0.588c-0.208-0.311-0.344-0.521-0.41-0.632c-0.022-0.03-0.041-0.056-0.056-0.078
		c-0.436-0.71-0.75-1.677-0.942-2.904c-0.104-0.65-0.17-1.374-0.2-2.173c-0.089-2.232,0.1-3.869,0.565-4.911
		c0.444-0.968,1.031-1.729,1.763-2.283c0.901-0.688,1.877-0.913,2.927-0.676c0.466,0.089,0.891,0.384,1.275,0.886
		c0.192,0.26,0.336,0.507,0.432,0.743c-0.251-0.251-0.562-0.477-0.931-0.677C135.142,151.242,134.462,151.146,133.842,151.367z
		 M137.333,152.255c-0.45-0.836-1.071-1.408-1.862-1.719c-1.375-0.362-2.642-0.077-3.802,0.854
		c-1.072,0.843-1.726,1.896-1.963,3.159c-0.295,1.604-0.38,3.319-0.255,5.145c0.03,0.369,0.066,0.721,0.111,1.053
		c0.155,1.183,0.41,2.059,0.765,2.628c0.022,0.015,0.044,0.032,0.067,0.055c0.162,0.147,0.306,0.293,0.432,0.433
		c0.414,0.451,0.621,0.851,0.621,1.197c0,0.096-0.281,0.223-0.842,0.377c-0.584,0.162-1.102,0.243-1.552,0.243
		c-0.053,0-0.104,0-0.155,0c-0.483-0.009-0.914-0.052-1.292-0.133c-0.282-0.061-0.536-0.142-0.759-0.243
		c-0.02-0.009-0.04-0.019-0.061-0.027c-0.118-0.062-0.241-0.133-0.372-0.217c-0.022-0.016-0.044-0.03-0.066-0.044
		c-0.17-0.111-0.281-0.178-0.333-0.199v-0.022c0.34,0.014,0.732-0.227,1.175-0.721c0.37-0.429,0.576-0.795,0.621-1.098
		c0-0.037,0.003-0.069,0.011-0.1c0.007-0.222,0.018-0.444,0.033-0.665c0.133-2.284,0.299-4.076,0.499-5.377
		c0.311-1.907,0.761-3.366,1.352-4.379c0.495-0.82,1.149-1.489,1.963-2.006c1.049-0.673,2.121-0.865,3.214-0.577
		c0.576,0.214,1.05,0.495,1.419,0.842C136.746,151.113,137.09,151.626,137.333,152.255z M124.108,165.157
		c0.421-0.153,0.864-0.347,1.33-0.575c0.215,0.154,0.435,0.295,0.66,0.422c0.22,0.125,0.446,0.238,0.677,0.338
		c0.262,0.113,0.53,0.208,0.803,0.288c0.404,0.114,0.822,0.192,1.253,0.233c0.335,0.032,0.679,0.041,1.031,0.026
		c0.968-0.081,1.888-0.262,2.76-0.543c0.592-0.192,1.031-0.384,1.319-0.576c0.303,0.118,0.632,0.229,0.987,0.333
		c0.096,0.103,0.03,0.243-0.2,0.421c-0.281,0.199-0.584,0.262-0.909,0.188c-0.562-0.126-1.208-0.115-1.94,0.033
		c-0.769,0.185-1.327,0.439-1.674,0.766c-0.47-0.301-0.959-0.433-1.469-0.395c-0.27,0.021-0.545,0.091-0.825,0.205
		c-0.147-0.138-0.301-0.26-0.46-0.366c-0.228-0.15-0.468-0.269-0.72-0.354c-0.09-0.029-0.181-0.057-0.272-0.077
		c-0.324-0.099-0.646-0.139-0.965-0.116c-0.274,0.019-0.548,0.083-0.82,0.193C124.186,165.625,123.998,165.477,124.108,165.157z
		 M126.847,167.01c-0.125,0.066-0.255,0.141-0.388,0.222c-0.029,0.019-0.058,0.036-0.088,0.055c-0.585,0.36-1.125,0.76-1.619,1.198
		c-2.078,1.847-3.347,4.388-3.808,7.62c-0.121,0.855-0.186,1.759-0.194,2.711c-0.002,0.36,0.003,0.729,0.017,1.104
		c0.001,0.054,0.003,0.106,0.005,0.161c0.015,0.434,0.041,0.854,0.078,1.264c0.215,2.467,0.814,4.54,1.796,6.219
		c0.909,1.582,2.073,2.643,3.492,3.182c-0.806,0.48-1.6,0.702-2.384,0.666c-0.414-0.016-0.824-0.107-1.23-0.277
		c-0.148-0.066-0.296-0.142-0.443-0.223c-2.173-1.146-3.751-2.827-4.734-5.043c-0.78-1.755-1.187-3.848-1.219-6.274
		c-0.007-0.555,0.004-1.094,0.033-1.619c0.277-4.624,2.058-8.102,5.344-10.432c1.449-1.027,2.738-1.56,3.869-1.597
		c0.006,0,0.014,0,0.022,0c0.235-0.014,0.46-0.002,0.676,0.033c0.186,0.027,0.372,0.072,0.56,0.134
		c0.216,0.067,0.435,0.156,0.654,0.266c0.16,0.082,0.321,0.174,0.482,0.276c-0.229,0.06-0.462,0.145-0.698,0.256
		c-0.059,0.027-0.117,0.057-0.177,0.089c-0.13-0.089-0.263-0.168-0.399-0.233c-0.383-0.192-0.786-0.294-1.208-0.305
		c-0.102-0.004-0.206-0.002-0.311,0.005c-0.583,0.053-1.286,0.281-2.105,0.688c-1.545,0.761-2.942,2.313-4.191,4.655
		c-1.116,2.084-1.637,3.736-1.563,4.955c0.333-1.928,1.426-4.075,3.281-6.44c1.64-2.058,3.236-3.199,4.789-3.425
		c0.428-0.063,0.853-0.056,1.275,0.022C126.588,166.943,126.717,166.973,126.847,167.01z M121.847,176.422c0,0.052,0,0.104,0,0.155
		c0.377-2.136,1.242-4.143,2.594-6.02c0.491-0.7,0.993-1.273,1.508-1.719c0.139-0.119,0.28-0.23,0.421-0.333
		c0.559-0.402,1.132-0.657,1.718-0.765c0.697-0.125,1.414-0.04,2.15,0.255c-0.62-0.454-1.279-0.676-1.979-0.665
		c-0.488,0.005-0.994,0.124-1.519,0.354c-0.179,0.077-0.36,0.168-0.543,0.271c-0.064,0.037-0.129,0.077-0.194,0.117
		c-0.236,0.14-0.465,0.303-0.687,0.487c0.295-0.292,0.609-0.569,0.942-0.831c0.215-0.169,0.439-0.331,0.67-0.488
		c0.047-0.028,0.093-0.059,0.139-0.088l0.643-0.366c0.207-0.096,0.414-0.173,0.621-0.232c0.088-0.025,0.174-0.045,0.26-0.061
		c0.3-0.06,0.59-0.069,0.871-0.029c0.599,0.067,1.171,0.337,1.718,0.81c1.197,0.99,2.203,2.313,3.015,3.97
		c0.739,1.492,1.25,3.04,1.53,4.645c0.636,3.813,0.421,7.194-0.644,10.144c-1.027,2.86-2.649,4.52-4.867,4.978l-1.097,0.133
		c-0.082,0-0.167,0-0.255,0c-0.052,0-0.107,0-0.167,0c-1.618-0.059-2.975-0.698-4.068-1.918c-0.872-0.931-1.559-2.11-2.062-3.536
		c-0.509-1.431-0.807-3.051-0.892-4.861c-0.024-0.482-0.034-0.979-0.028-1.485c0.002-0.16,0.006-0.32,0.011-0.482
		c0.001,0.157,0.005,0.312,0.011,0.466c0.015,0.488,0.046,0.97,0.095,1.441c0.005,0.048,0.011,0.095,0.016,0.144
		c-0.004-0.05-0.007-0.1-0.011-0.149c-0.017-0.233-0.027-0.472-0.033-0.716c-0.011-0.252-0.018-0.501-0.022-0.747
		c-0.006-0.526,0.003-1.037,0.028-1.536C121.764,177.305,121.798,176.856,121.847,176.422z M140.665,177.313
		c0.237,0.919,0.525,1.816,0.865,2.689c-0.002,0.025-0.004,0.051-0.005,0.077c-0.303,5.498-2.439,9.197-6.407,11.097
		c-0.518,0.251-1.028,0.392-1.53,0.421c-0.813,0.052-1.626-0.177-2.439-0.688c2.128-0.569,3.695-2.194,4.7-4.877
		c1.116-2.949,1.341-6.33,0.676-10.144c-0.251-1.604-0.783-3.152-1.596-4.645c-0.865-1.656-1.933-2.979-3.204-3.97
		c-0.369-0.288-0.746-0.499-1.131-0.632c0.555-0.31,1.098-0.495,1.63-0.554c0.191-0.022,0.388-0.026,0.587-0.012
		c1.138,0.059,2.428,0.65,3.869,1.774c1.328,1.031,2.385,2.25,3.17,3.658c0.027,0.812,0.086,1.608,0.177,2.389
		c-0.764-2.476-2.157-4.491-4.179-6.047c-0.362-0.311-0.809-0.618-1.341-0.92c3.023,2.749,4.575,6.739,4.656,11.972
		c0.074,5.188-1.352,9.18-4.279,11.973c3.688-2.106,5.632-5.816,5.832-11.13C140.745,178.903,140.728,178.092,140.665,177.313z
		 M114.53,169.26c-1.897,2.481-2.815,4.884-2.755,7.207c0.009,0.293,0.033,0.585,0.072,0.875c0.076-0.407,0.168-0.812,0.278-1.214
		c0.492-1.819,1.331-3.602,2.516-5.349c1.98-3.023,4.279-4.409,6.896-4.157C119.149,165.351,116.814,166.229,114.53,169.26z
		 M143.653,184.192c0.291,0.463,0.591,0.91,0.897,1.342c-1.34,1.994-2.896,3.468-4.667,4.423c-1.227,0.658-2.395,0.942-3.503,0.854
		c1.641-0.872,2.949-2.054,3.925-3.547c1.005-1.523,1.661-3.373,1.967-5.549C142.681,182.564,143.141,183.39,143.653,184.192z
		 M13.128,141.989c0.141-0.052,0.292-0.158,0.455-0.321c0.163-0.185,0.281-0.295,0.355-0.332c0,0.236,0.111,0.547,0.333,0.931
		c0.037,0.03,0.063,0.155,0.078,0.377c0.022,0.185,0.07,0.333,0.144,0.443c0.111,0.111,0.303,0.167,0.577,0.167
		c0.14,0,0.384-0.011,0.731-0.033c-0.163,0.162-0.38,0.462-0.654,0.898c-0.236,0.369-0.392,0.646-0.465,0.831
		c-0.31,0.274-0.348,0.525-0.111,0.754c0.074,0.097,0.267,0.163,0.577,0.2c0.163,0.029,0.425,0.056,0.788,0.078
		c-0.2,0.022-0.436,0.133-0.71,0.333c-0.141,0.111-0.329,0.255-0.565,0.432c-0.51,0.222-0.651,0.477-0.421,0.765
		c-0.2,0.089-0.499,0.163-0.898,0.222c-0.488,0.052-0.824,0.015-1.009-0.11c0,0.184-0.066,0.384-0.199,0.598
		c-0.141,0.318-0.447,0.647-0.92,0.987c0.037-0.473-0.119-0.673-0.466-0.599c-0.059,0.015-0.313,0.115-0.765,0.299
		c-0.399,0.125-0.665,0.244-0.798,0.354l0.499-1.363c-0.052-0.074-0.145-0.104-0.277-0.089c-0.348,0.207-0.632,0.236-0.854,0.089
		c-0.762-0.17-1.297-0.273-1.607-0.311c0.163-0.015,0.325-0.085,0.488-0.21c0.318-0.214,0.074-0.443-0.731-0.688
		c0.014-0.125,0.003-0.225-0.034-0.299c-0.214-0.251-0.55-0.306-1.009-0.167c0.074-0.089,0.24-0.195,0.499-0.321
		c0.303-0.133,0.502-0.225,0.599-0.277c0.31-0.038,0.51-0.126,0.599-0.266c0.037-0.185,0.063-0.314,0.078-0.388
		c0.147-0.052,0.406-0.07,0.776-0.056c0.037,0,0.144,0.063,0.321,0.189c0.148,0.111,0.248,0.111,0.299,0
		c0.059-0.126,0.022-0.27-0.111-0.433c-0.177-0.185-0.313-0.321-0.41-0.41c-0.599-0.532-0.924-0.998-0.975-1.397
		c0.251-0.074,0.469-0.148,0.654-0.222c0.088-0.052,0.125-0.188,0.111-0.41c-0.015-0.303-0.022-0.484-0.022-0.543
		c0.104-0.074,0.167-0.229,0.188-0.466c0.015-0.251,0.022-0.414,0.022-0.488l0.432,0.21c0.621,0.444,0.987,0.665,1.098,0.665
		c0.022-0.147,0.14-0.302,0.355-0.465c0.185-0.147,0.358-0.247,0.521-0.299c0.148,0.584,0.284,0.983,0.41,1.197
		c0.037,0.074,0.129,0.285,0.277,0.632c0.147,0.325,0.285,0.481,0.41,0.466c0.126-0.022,0.263-0.196,0.411-0.521
		c0.14-0.362,0.24-0.599,0.299-0.709C12.622,142.037,12.833,142.063,13.128,141.989z"/>
	<path fill-rule="evenodd" clip-rule="evenodd" fill="#764833" d="M231.552,179.77c-1.138-1.981-1.943-3.434-2.417-4.357
		c0.51,0.475,1.438,1.926,2.782,4.357c0.06,0.103,0.118,0.21,0.179,0.321c1.403,2.513,2.368,4.453,2.893,5.82
		c-0.178-0.437-0.979-1.893-2.405-4.368C232.214,180.907,231.87,180.316,231.552,179.77z M240.021,179.049
		c-0.131-0.242-0.489-0.543-1.075-0.903c-0.541-0.332-1.275-0.715-2.206-1.147c-2.351-1.035-3.813-1.708-4.391-2.018
		c2.737,0.781,4.757,1.592,6.059,2.433C239.237,177.946,239.774,178.492,240.021,179.049z M240.398,181.039
		c0.001-0.267-0.014-0.527-0.045-0.781c0.393-0.022,0.743-0.186,1.053-0.488c0.029-0.028,0.057-0.058,0.084-0.089
		c1.119,1.561,2.358,2.939,3.72,4.136c0.65,0.339,1.338,0.609,2.061,0.809h2.407c1.633-0.339,2.83-1.315,3.591-2.927
		c0.82-1.708,0.799-3.13-0.065-4.269h-0.012c-0.688-0.9-1.485-1.289-2.395-1.164c-0.909,0.156-1.604,0.577-2.085,1.265h0.012
		c-0.407,0.605-0.477,1.19-0.21,1.751c0.251,0.459,0.653,0.722,1.208,0.788h0.011c0.458,0.059,0.832,0,1.119-0.178h0.011
		c0.12-0.111,0.156-0.271,0.111-0.477v-0.012c-0.059-0.133-0.195-0.178-0.409-0.133l-0.244-1.22
		c1.094-0.214,1.722,0.156,1.885,1.109c0.17,0.805-0.048,1.393-0.655,1.763v0.011h-0.011c-0.503,0.362-1.156,0.487-1.962,0.376
		c0-0.007-0.003-0.011-0.011-0.011c-0.998-0.125-1.719-0.605-2.162-1.44l-0.011-0.011c-0.503-0.977-0.406-1.98,0.289-3.016
		c0.657-0.983,1.626-1.581,2.904-1.797c1.382-0.235,2.582,0.304,3.603,1.619v0.011c1.212,1.479,1.281,3.334,0.211,5.565
		c-0.954,2.018-2.473,3.227-4.557,3.626l-0.045,0.011h-1.817c2.623,1.647,5.609,2.748,8.956,3.303
		c3.119,0.51,6.099,0.403,8.937-0.321h-0.012c2.883-0.747,5.276-2.059,7.184-3.937l1.618-2.105c0.303-0.605,0.632-1.178,0.986-1.719
		c0.791-1.957,0.525-3.897-0.797-5.819c-0.711-1.035-1.597-1.793-2.661-2.272h-0.012c-1.101-0.503-2.202-0.617-3.304-0.344
		c-2.075,0.511-3.27,1.744-3.58,3.703c-0.119,0.769-0.008,1.448,0.333,2.039c0.354,0.584,0.905,0.95,1.651,1.098
		c0.569,0.081,1.068-0.151,1.497-0.698h0.011c0.163-0.215,0.244-0.392,0.244-0.532c-0.06-0.126-0.195-0.244-0.41-0.354l0.555-1.12
		c0.65,0.325,1.012,0.732,1.085,1.22c0.126,0.458-0.039,0.979-0.498,1.563c-0.77,0.976-1.67,1.36-2.705,1.153h-0.011
		c-1.139-0.222-1.97-0.786-2.494-1.695c-0.496-0.828-0.658-1.785-0.488-2.872c0.377-2.491,1.881-4.062,4.512-4.711
		c1.375-0.348,2.75-0.211,4.124,0.41c1.271,0.576,2.332,1.479,3.181,2.705c0.991,1.426,1.486,2.867,1.486,4.322
		c0.82-0.894,1.741-1.688,2.761-2.383c2.609-1.789,5.461-2.679,8.558-2.672l1.132,0.122c0.716,0.142,1.403,0.354,2.062,0.643
		c0.126,0.052,0.255,0.107,0.388,0.167v0.011c0.148,0.067,0.292,0.141,0.434,0.222c0.073,0.037,0.147,0.074,0.221,0.111l0.055,0.045
		c0.008,0,0.016,0.003,0.023,0.011c0.007,0,0.011,0.003,0.011,0.011l0.088,0.044c0.009,0.008,0.016,0.016,0.023,0.022h0.011
		c1.973,1.234,3.199,3.118,3.681,5.654c0.605,3.147-0.093,5.457-2.097,6.929c-1.743,1.314-3.429,1.606-5.054,0.876
		c-1.523-0.688-2.527-1.76-3.016-3.216c-0.546-1.522-0.341-2.786,0.621-3.791v-0.011c0.813-0.902,1.865-1.275,3.158-1.12
		c1.161,0.134,1.941,0.535,2.34,1.208l-1.053,0.677c-0.267-0.354-0.742-0.569-1.431-0.643c-0.857-0.104-1.556,0.136-2.095,0.72
		v0.011c-0.606,0.674-0.729,1.52-0.366,2.539v0.011c0.392,1.117,1.172,1.938,2.34,2.461h0.011c1.212,0.511,2.476,0.274,3.791-0.708
		c1.574-1.228,2.117-3.13,1.629-5.71c-0.428-2.21-1.511-3.843-3.248-4.9c-0.021-0.008-0.04-0.019-0.055-0.033
		c-0.186-0.104-0.373-0.203-0.565-0.299h-0.011c-0.665-0.325-1.368-0.562-2.107-0.71l-0.952-0.11
		c-2.831,0.008-5.437,0.828-7.815,2.461c-1.626,1.115-2.986,2.498-4.08,4.146c-0.229,0.539-0.528,1.082-0.898,1.63l-0.011,0.011
		l-0.121,0.155c-0.082,0.154-0.155,0.313-0.222,0.477l-0.101-0.045l-1.431,1.841l-0.021,0.032c-2.063,2.041-4.652,3.467-7.771,4.279
		v0.011c-3,0.762-6.148,0.877-9.444,0.344c-4.782-0.79-8.861-2.645-12.238-5.564c-1.184-0.643-2.24-1.505-3.171-2.583
		C240.992,181.871,240.682,181.463,240.398,181.039z M224.501,153.929l0.655-0.189c0.11,0.312,0.103,1.697-0.023,4.158
		c-0.022,0.473-0.047,0.916-0.077,1.33c-0.133,1.892-0.317,3.188-0.555,3.891c0.17-1.196,0.267-2.494,0.288-3.891
		c0-0.503-0.007-1.02-0.021-1.553C224.729,156.293,224.642,155.045,224.501,153.929z M211.088,156.278h0.754
		c0.295-0.17,0.477-0.446,0.542-0.831c0-0.021,0-0.044,0-0.066c0.017,0.008,0.027,0.015,0.034,0.022
		c0.406,0.229,1.153,0.843,2.239,1.84c0.864,0.813,1.626,1.607,2.283,2.384c0.444,0.539,0.839,1.063,1.187,1.573
		c-0.392-0.442-0.787-0.86-1.187-1.252c-1.885-1.833-3.861-3.049-5.93-3.647c-0.023-0.008-0.045-0.015-0.067-0.022H211.088z
		 M213.238,165.686c0.085,0.02,0.166,0.04,0.243,0.061c-0.077-0.017-0.158-0.031-0.243-0.044c-0.824-0.15-1.948-0.272-3.37-0.366
		c-2.513-0.207-4.068-0.182-4.668,0.078c0.475-0.548,0.747-1.224,0.821-2.029c0.036,0.369,1.082,0.799,3.137,1.285
		C210.957,165.11,212.316,165.447,213.238,165.686z M226.33,168.141c0.177,0.085,0.383,0.375,0.616,0.87
		c0.131,0.27,0.269,0.6,0.415,0.992c0.443,1.094,0.616,1.777,0.521,2.05c-0.037,0.097-0.111,0.216-0.223,0.356
		c-0.184,0.221-0.473,0.494-0.864,0.82c-0.584,0.51-1.013,0.819-1.286,0.931c-0.251,0.089-0.761-0.104-1.53-0.576
		c-0.82-0.525-1.466-1.128-1.939-1.807c-0.531-0.784-0.806-1.257-0.82-1.42c-0.037-0.272,0.182-0.802,0.654-1.585
		c0.227-0.384,0.924-0.633,2.089-0.748c0.049-0.007,0.1-0.012,0.15-0.017C225.244,167.919,225.983,167.963,226.33,168.141z
		 M226.364,169.537c-0.186-0.376-0.344-0.595-0.478-0.653c-0.251-0.148-0.806-0.186-1.662-0.111
		c-0.946,0.073-1.512,0.266-1.697,0.576c-0.347,0.584-0.509,0.976-0.487,1.175c0.015,0.148,0.222,0.511,0.621,1.087
		c0.369,0.518,0.861,0.969,1.475,1.353c0.568,0.361,0.945,0.506,1.131,0.433c0.199-0.074,0.524-0.304,0.976-0.688
		c0.443-0.385,0.706-0.669,0.786-0.854c0-0.022,0.004-0.038,0.012-0.045c0.074-0.206-0.044-0.717-0.354-1.529
		C226.567,169.984,226.46,169.737,226.364,169.537z M233.159,158.386c-0.207,0.236-0.45,0.517-0.732,0.842
		c-0.591,0.695-1.341,1.601-2.25,2.716c-1.403,1.752-2.187,2.827-2.35,3.227c0.259-0.857,0.979-2.052,2.161-3.581
		c0.769-0.997,1.46-1.785,2.074-2.361C232.461,158.858,232.826,158.577,233.159,158.386z M231.274,169.349l3.448-1.208
		c0.709-0.267,1.585-0.437,2.627-0.511c1.021-0.095,1.692-0.051,2.018,0.133c-0.421-0.088-1.615,0.068-3.581,0.466
		C234.021,168.576,232.517,168.949,231.274,169.349z M227.849,188.682l-0.62,0.511l0.067-0.321l0.099-0.61
		c0.362-2.586,0.333-5.417-0.088-8.491c-0.074-0.495-0.152-0.998-0.233-1.508c0.088,0.399,0.188,0.901,0.3,1.508
		c0.243,1.22,0.542,2.86,0.897,4.923c0.458,2.675,0.721,4.267,0.787,4.777l-1.175-0.82L227.849,188.682z M215.056,189.137
		c-0.007,0.016-0.015,0.033-0.021,0.056l-0.532-0.81l-0.011-0.011c-0.37,0.03-0.747,0.03-1.131,0h-0.345c0-0.007,0-0.019,0-0.033
		c0.075-0.488,1.531-2.528,4.369-6.119c0.73-0.917,1.381-1.733,1.95-2.45c1.952-2.476,3.022-3.854,3.216-4.136
		c-0.636,0.983-1.463,2.361-2.483,4.136c-0.518,0.887-1.083,1.877-1.696,2.971C216.486,186.089,215.381,188.221,215.056,189.137z
		 M205.312,177.951c-0.029,0.037-0.059,0.078-0.088,0.122c0.146-0.443,0.222-0.828,0.222-1.153l-0.007-0.021
		c-0.064-0.025-0.133-0.044-0.204-0.056l0.044-0.344c0.036,0.041,0.073,0.082,0.111,0.122l-0.033-0.188
		c-0.021-0.021-0.042-0.044-0.062-0.066c-0.269-0.279-0.536-0.597-0.804-0.954c-0.022-0.029-0.041-0.055-0.056-0.077
		c-0.621-0.872-0.912-1.626-0.876-2.262c1.789,0.231,3.705,0.316,5.748,0.255c0.186-0.007,0.373-0.014,0.561-0.022
		c0.375-0.013,0.735-0.031,1.081-0.055c1.525-0.098,2.771-0.278,3.741-0.543c-1.096,0.384-2.171,0.816-3.227,1.297
		c-0.385,0.177-0.768,0.359-1.146,0.549c-0.499,0.25-0.991,0.51-1.48,0.781c-0.736,0.406-1.367,0.794-1.896,1.164
		c-0.386,0.269-0.717,0.527-0.993,0.776C205.687,177.509,205.474,177.734,205.312,177.951z M202.796,190.112l0.121,0.61
		c-0.014,0-0.026,0.004-0.033,0.011c-0.074,0.015-0.147,0.029-0.221,0.045l-2.097,0.288h-0.021c-2.75,0.056-5.38-0.137-7.887-0.577
		c-2.729,1.928-5.362,2.807-7.898,2.638l-1.376,0.654c-1.219,0.525-2.424,0.77-3.614,0.732c-1.529,0.082-2.996-0.337-4.401-1.252
		c-1.13,0.303-2.22,0.453-3.27,0.453l-0.333-0.055l-0.266,0.055h-0.133l-0.266-0.055l-0.455,0.055
		c-1.529-0.036-2.887-0.299-4.068-0.786c-1.493,0.924-2.941,1.341-4.346,1.252c-0.783,0.045-1.678-0.088-2.684-0.399
		c-0.015,0.008-0.028,0.013-0.043,0.013c-2.972,0.688-6.068-0.126-9.291-2.439c-1.98-1.425-3.764-3.221-5.354-5.388
		c-0.976,1.398-2.103,2.563-3.381,3.491c-1.678,1.249-3.292,1.822-4.845,1.719l-0.787,0.388c-0.717,0.303-1.419,0.443-2.106,0.422
		c-0.886,0.051-1.74-0.192-2.561-0.731c-0.65,0.177-1.286,0.266-1.907,0.266l-0.188-0.033l-0.145,0.033h-0.077l-0.155-0.033
		l-0.266,0.033c-0.887-0.022-1.678-0.175-2.372-0.454c-0.857,0.531-1.692,0.775-2.505,0.73c-0.466,0.022-0.987-0.055-1.563-0.232
		h-0.022c-1.722,0.399-3.521-0.069-5.399-1.407c-0.712-0.513-1.381-1.107-2.007-1.785c-0.648-0.703-1.251-1.494-1.807-2.373
		c-1.426-2.238-2.161-4.78-2.206-7.626c-0.007-0.688,0.024-1.365,0.094-2.029c0.2-1.888,0.715-3.676,1.547-5.365
		c1.138-2.313,2.649-3.954,4.534-4.922c1.596-0.828,3.267-1.027,5.011-0.599c1.064-0.17,2.243-0.555,3.536-1.153
		c0.828-0.406,1.485-0.854,1.974-1.341c0.052-0.111,0.092-0.229,0.122-0.355c0.126-0.443,0.188-1.552,0.188-3.325
		c0-1.782,0.417-3.658,1.253-5.632c1.108-2.623,2.616-4.017,4.523-4.18c1.855-0.148,3.13,0.27,3.825,1.253
		c0.362,0.51,0.543,1.146,0.543,1.906c-0.583,0.148-1.282,0.252-2.095,0.312l-1.054,0.043c-0.11-0.347-0.568-0.324-1.374,0.068
		c-0.873,0.421-1.464,1.097-1.774,2.028c-0.347,1.071-0.484,2.526-0.41,4.367c0.022,0.48,0.056,0.913,0.1,1.297
		c0,0.044,0.003,0.089,0.011,0.134c0.015,0.206,0.048,0.409,0.1,0.609c0.111,0.488,0.303,0.924,0.577,1.308
		c0.266,0.214,0.643,0.551,1.13,1.009c0.843,0.511,2.007,0.913,3.492,1.209c1.365-0.324,2.682-0.272,3.952,0.155
		c0.465-2.379,1.236-4.664,2.312-6.852c1.965-3.983,4.567-6.807,7.804-8.469c2.758-1.419,5.635-1.763,8.636-1.031
		c1.817-0.295,3.843-0.96,6.075-1.995c0.369-0.177,0.719-0.36,1.048-0.549c0.176-1.138,0.385-2.29,0.626-3.453
		c0.177-3.59,1.118-6.742,2.827-9.456c0.359-1.592,0.892-3.222,1.596-4.889c1.914-4.516,4.513-6.911,7.794-7.184
		c3.2-0.259,5.396,0.458,6.585,2.15c0.635,0.872,0.953,1.962,0.953,3.271c-1.013,0.259-2.221,0.443-3.625,0.554l-1.807,0.056
		c-0.172-0.521-0.82-0.546-1.946-0.072c-0.136,0.058-0.277,0.124-0.427,0.194c-1.5,0.724-2.516,1.892-3.049,3.503
		c-0.215,0.655-0.383,1.394-0.504,2.217c-0.009,0.063-0.019,0.128-0.027,0.194c-0.021,0.152-0.039,0.307-0.057,0.465
		c-0.035,0.327-0.065,0.665-0.088,1.014c-0.014,0.19-0.025,0.385-0.033,0.583c-0.041,0.939-0.038,1.957,0.011,3.054
		c0.03,0.827,0.082,1.57,0.156,2.228h0.011c0,0.074,0.003,0.151,0.011,0.233c0.037,0.362,0.092,0.713,0.166,1.053
		c0.193,0.843,0.524,1.589,0.997,2.24c0.459,0.377,1.114,0.957,1.963,1.741c1.441,0.879,3.444,1.574,6.009,2.084
		c2.786-0.658,5.454-0.411,8.004,0.742c3.37,1.486,6.082,4.287,8.138,8.403c2.017,4.028,2.959,8.407,2.826,13.138
		c-0.007,0.239-0.016,0.478-0.027,0.715c0.017-0.008,0.033-0.015,0.05-0.022c-0.019,0.457,0.004,0.913,0.066,1.368h-0.011
		c-0.074,0.044-0.146,0.088-0.217,0.135c-0.268,2.627-0.894,5.078-1.879,7.354c0.413,0.506,0.997,0.87,1.752,1.093v0.011
		c0.899,0.238,1.688,0.056,2.361-0.55c0.081,0.244,0.181,0.494,0.299,0.749c0.032,0.069,0.118,0.218,0.255,0.443
		c-0.936,0.738-2.022,0.924-3.259,0.554h-0.012c-0.8-0.237-1.457-0.592-1.973-1.063c-0.454,0.901-0.968,1.773-1.541,2.616
		c-1.513,2.229-3.239,4.131-5.177,5.709c2.064,0.291,4.211,0.413,6.44,0.366l1.939-0.267c0.089-0.015,0.174-0.029,0.256-0.044
		L202.796,190.112z M176.854,126.491c0.522-0.541,1.11-0.994,1.763-1.358c0.023-0.012,0.047-0.025,0.072-0.039
		c0.396-0.212,0.815-0.394,1.259-0.543c1.07-0.384,2.238-0.222,3.503,0.488c0.649,0.347,1.185,0.735,1.607,1.164
		c-0.163-0.406-0.41-0.827-0.743-1.264c-0.666-0.864-1.397-1.378-2.194-1.541c-1.811-0.407-3.493-0.015-5.045,1.175
		c-1.249,0.954-2.258,2.262-3.026,3.925c-0.058,0.129-0.112,0.264-0.166,0.404c-0.074,0.2-0.146,0.411-0.211,0.632
		c-0.521,1.777-0.721,4.255-0.599,7.433c0.052,1.367,0.167,2.612,0.344,3.736c0.325,2.114,0.868,3.78,1.63,5
		c0.021,0.037,0.052,0.082,0.088,0.133c0.119,0.192,0.352,0.558,0.699,1.098c0.466,0.68,0.765,1.02,0.897,1.02
		c0.081,0,0.373-0.122,0.876-0.366c0.503-0.237,0.887-0.354,1.153-0.354c-0.045-0.096-0.097-0.188-0.156-0.277
		c-0.258-0.429-0.624-0.791-1.098-1.086c-0.324-0.17-0.576-0.303-0.753-0.399c-0.141-0.177-0.28-0.362-0.421-0.554
		c-0.008-0.015-0.016-0.029-0.022-0.044c-0.739-1.109-1.29-2.494-1.652-4.158v-0.011c-0.118-0.547-0.219-1.124-0.299-1.729
		c-0.255-2.106-0.249-4.24,0.017-6.402c0.052-0.412,0.113-0.824,0.184-1.236c0.119-0.668,0.282-1.292,0.493-1.874
		c0.312-0.86,0.725-1.628,1.235-2.306c0.108-0.143,0.222-0.281,0.338-0.416C176.701,126.656,176.777,126.573,176.854,126.491z
		 M178.595,125.494c-0.244,0.117-0.48,0.261-0.709,0.433c-0.412,0.306-0.787,0.682-1.126,1.13c-0.421,0.563-0.785,1.237-1.091,2.023
		c-0.076,0.194-0.148,0.396-0.217,0.604c-0.143,0.44-0.271,0.909-0.383,1.408l0.787-1.475c0.621-1.086,1.139-1.903,1.553-2.45
		c0.447-0.558,0.975-0.935,1.58-1.13c0.621-0.202,1.324-0.213,2.11-0.034c0.77,0.178,1.449,0.462,2.041,0.854l1.419-0.266
		c-2.25-1.447-4.164-1.846-5.743-1.198C178.742,125.425,178.667,125.458,178.595,125.494z M176.201,122.966
		c-1.404,0.894-2.528,2.046-3.37,3.458c-0.77,1.299-1.396,3.031-1.885,5.193c-0.164,0.729-0.312,1.507-0.444,2.334
		c-0.033,0.218-0.067,0.443-0.1,0.676c-0.303,2.172-0.563,5.036-0.776,8.592c-0.021,0.377-0.04,0.757-0.056,1.142
		c-0.007,0.007-0.007,0.011,0,0.011c-0.007,0.06-0.011,0.119-0.011,0.178c-0.073,0.517-0.435,1.145-1.085,1.884
		c-0.407,0.454-0.786,0.785-1.137,0.992c-0.308,0.181-0.594,0.267-0.859,0.261v0.033c0.089,0.037,0.273,0.148,0.555,0.333
		c0.068,0.049,0.137,0.095,0.204,0.138c0.229,0.149,0.449,0.27,0.66,0.361c0.961,0.436,2.229,0.654,3.802,0.654
		c0.777,0,1.667-0.137,2.672-0.411c0.968-0.273,1.452-0.491,1.452-0.653c0-0.599-0.354-1.29-1.064-2.073
		c-0.222-0.244-0.473-0.492-0.753-0.743c-0.045-0.037-0.081-0.066-0.111-0.088c-0.614-0.983-1.053-2.495-1.319-4.534
		c-0.073-0.569-0.133-1.175-0.178-1.818c-0.199-2.836-0.103-5.515,0.294-8.037c0.043-0.272,0.09-0.542,0.14-0.81
		c0.026-0.144,0.056-0.286,0.088-0.427c0.468-1.998,1.562-3.67,3.282-5.016c2.002-1.611,4.186-2.099,6.551-1.463
		c1.359,0.524,2.429,1.507,3.203,2.949c-0.413-1.079-1.001-1.966-1.762-2.661c-0.643-0.606-1.459-1.09-2.449-1.452
		C179.858,121.473,178.012,121.806,176.201,122.966z M168.252,142.266c-0.052,0.237-0.1,0.47-0.145,0.699
		c-0.021,0.384-0.032,0.772-0.032,1.164h-0.2c-0.078,0.411-0.151,0.821-0.222,1.23c0.352-0.266,0.67-0.539,0.954-0.821
		c0.08-0.207,0.154-0.417,0.222-0.632c0.206-0.754,0.31-2.66,0.31-5.72c0-0.27,0.006-0.542,0.017-0.814
		c-0.53,1.513-0.865,3.136-1.003,4.872L168.252,142.266z M166.034,147.709c-0.192-0.123-0.385-0.252-0.576-0.388
		c-0.79,0.385-1.548,0.713-2.272,0.987c-0.192,0.54,0.126,0.787,0.954,0.743c0.586-0.227,1.177-0.336,1.773-0.327
		c0.411,0.006,0.826,0.067,1.242,0.183c0.024,0.007,0.051,0.014,0.077,0.022c0.916,0.214,1.747,0.673,2.494,1.375
		c1.403-0.569,2.72-0.458,3.946,0.333c0.606-0.569,1.57-1.009,2.894-1.319c1.264-0.259,2.376-0.281,3.337-0.067
		c0.569,0.133,1.098,0.026,1.585-0.321c0.393-0.303,0.499-0.543,0.322-0.72c-0.606-0.178-1.172-0.37-1.697-0.577
		c-0.495,0.34-1.252,0.672-2.271,0.998c-1.508,0.48-3.09,0.787-4.745,0.92c-2.119,0.094-4.08-0.299-5.881-1.181
		C166.815,148.174,166.421,147.954,166.034,147.709z M141.197,166.022c-0.053,0.308-0.101,0.612-0.144,0.915
		c-0.042,0.313-0.079,0.625-0.11,0.937c-0.137,1.303-0.18,2.596-0.128,3.88c0.046,1.059,0.155,2.109,0.328,3.155
		c0.019,0.12,0.039,0.239,0.061,0.359c0.052,0.298,0.109,0.596,0.172,0.893c0.053,0.251,0.111,0.5,0.171,0.748
		c0.141,0.347,0.296,0.694,0.466,1.042c0.146,0.431,0.3,0.852,0.459,1.264c0.761,1.982,1.661,3.753,2.7,5.311
		c0.105,0.158,0.212,0.313,0.322,0.466c3.05,4.336,7.229,6.93,12.538,7.782c0.51,0.08,1.034,0.148,1.573,0.199
		c-0.221-0.089-0.439-0.188-0.653-0.3c-2.328-1.189-4.272-2.708-5.832-4.556c-3.118-3.673-4.722-8.658-4.811-14.954
		c-0.126-9.371,3.07-16.29,9.589-20.754c1.442-0.982,2.794-1.699,4.058-2.15c-1.123-0.495-2.247-0.832-3.37-1.009
		c-0.953-0.147-1.902-0.192-2.849-0.133c-3.371,0.222-6.37,1.799-9.002,4.733c-2.498,2.757-4.227,6.238-5.188,10.443
		c-0.097,0.418-0.186,0.835-0.266,1.252c-0.03,0.157-0.058,0.314-0.083,0.472V166.022z M136.147,165.402
		c-0.089-0.016-0.17-0.029-0.244-0.044l0.2,0.044c0.015,0,0.025,0,0.033,0c-0.68,0.17-1.364,0.436-2.051,0.798h0.011
		c0.983,0.237,2.058,0.787,3.226,1.652c0.979,0.718,1.817,1.526,2.517,2.428c0.017-1.035,0.085-2.054,0.205-3.055
		c0.034-0.271,0.071-0.541,0.11-0.81c0.038-0.267,0.081-0.533,0.128-0.798v-0.005c-0.267-0.097-0.541-0.179-0.82-0.244
		C138.369,165.118,137.264,165.129,136.147,165.402z M167.964,151.468c0.511-0.259,1.016-0.451,1.519-0.576
		c-0.822-0.541-1.63-0.903-2.422-1.087c-0.161-0.037-0.321-0.066-0.482-0.089c-0.246-0.037-0.5-0.059-0.759-0.066
		c-0.152-0.006-0.306-0.006-0.46,0c-1.952,0.066-4.176,0.987-6.674,2.76c-6.305,4.464-9.391,11.383-9.257,20.754
		c0.133,9.459,3.547,15.963,10.243,19.51c0.259,0.142,0.518,0.263,0.775,0.366c0.702,0.296,1.407,0.459,2.117,0.487
		c1.346,0.067,2.713-0.32,4.103-1.163c-2.446-0.917-4.448-2.738-6.008-5.466c-1.967-3.378-3.038-7.672-3.216-12.882
		c-0.407-9.69,2.311-16.704,8.154-21.041c0.417-0.31,0.85-0.604,1.296-0.886c0.111-0.071,0.224-0.143,0.339-0.212
		c0.222-0.14,0.447-0.265,0.677-0.376c0.059,0.015,0.118,0.033,0.177,0.056C168.041,151.526,168,151.497,167.964,151.468z
		 M165.259,154.162c-1.67,1.382-3.093,3.446-4.269,6.196c-1.175,2.771-1.747,5.222-1.718,7.349
		c-0.214,1.938-0.277,4.018-0.188,6.242c0.022,0.51,0.051,1.006,0.089,1.485c-0.126-1.139-0.199-2.313-0.222-3.525
		c-0.133,4.516,0.392,8.438,1.573,11.763c0.865,2.453,2.052,4.482,3.56,6.086c1.884,2.106,4.221,3.207,7.007,3.304
		c0.088,0,0.181,0,0.276,0c0.155,0,0.303,0,0.443,0l1.885-0.233c3.264-0.676,5.777-2.856,7.544-6.546
		c0.177-0.369,0.345-0.754,0.505-1.153c0.115-0.283,0.225-0.573,0.331-0.87c1.834-5.076,2.207-10.9,1.121-17.471
		c-0.488-2.757-1.364-5.425-2.628-8.004c-1.404-2.846-3.138-5.125-5.2-6.841c-0.952-0.805-1.942-1.267-2.971-1.385
		c-0.628-0.082-1.274-0.03-1.939,0.155c-0.354,0.089-0.71,0.226-1.064,0.411l-1.108,0.632c-0.495,0.317-0.969,0.652-1.424,1.009
		c-0.449,0.346-0.877,0.709-1.287,1.092C165.469,153.957,165.363,154.059,165.259,154.162z M183.905,148.729
		c-1.168,0.288-2.347,0.742-3.536,1.363c0.007,0.007,0.015,0.011,0.021,0.011c1.685,0.407,3.537,1.349,5.554,2.827
		c6.438,4.729,9.372,11.758,8.803,21.085c-0.296,4.981-1.519,9.105-3.669,12.372c-0.486,0.743-1.021,1.441-1.603,2.096
		c-0.313,0.353-0.641,0.693-0.981,1.02c-1.213,1.159-2.603,2.157-4.168,2.993c1.914,0.155,3.921-0.332,6.02-1.463
		c0.425-0.231,0.844-0.479,1.254-0.743c0.48-0.311,0.952-0.646,1.412-1.003c1.988-1.542,3.793-3.524,5.415-5.948
		c0.648-0.952,1.213-1.94,1.697-2.966c0.007-0.015,0.014-0.031,0.021-0.049c0.037-0.053,0.078-0.096,0.122-0.134
		c0.193-0.421,0.374-0.846,0.544-1.274c0.699-1.795,1.18-3.657,1.44-5.588c0.078-0.585,0.136-1.177,0.172-1.773
		c0.101-1.568,0.063-3.18-0.117-4.834c-0.014-0.095-0.024-0.191-0.032-0.288c-0.052-0.421-0.107-0.835-0.166-1.24
		c-0.06-0.386-0.126-0.758-0.199-1.12c-0.43-2.188-1.109-4.238-2.041-6.152c-0.391-0.821-0.831-1.604-1.318-2.351
		c-0.097-0.148-0.196-0.296-0.3-0.444c-0.044-0.073-0.092-0.144-0.144-0.21l-0.034-0.05c-0.032-0.052-0.066-0.105-0.099-0.161
		c-0.091-0.126-0.181-0.249-0.272-0.37c-0.093-0.122-0.185-0.243-0.276-0.361c-2.171-2.809-4.749-4.569-7.732-5.282
		c-0.022-0.006-0.045-0.012-0.066-0.017c-0.24-0.056-0.48-0.104-0.722-0.144c-1.438-0.243-2.891-0.221-4.356,0.066
		c-0.212,0.037-0.422,0.082-0.632,0.133c-0.111-0.022-0.222-0.045-0.333-0.066l0.268,0.066
		C183.872,148.729,183.891,148.729,183.905,148.729z M176.289,151.943c2.195,1.716,4.035,3.995,5.521,6.841
		c1.403,2.579,2.324,5.247,2.76,8.004c1.138,6.57,0.742,12.395-1.187,17.471c-0.19,0.513-0.394,1.002-0.609,1.47
		c-0.178,0.388-0.364,0.761-0.56,1.119c-1.682,3.1-3.979,5.042-6.89,5.825c1.382,0.864,2.775,1.261,4.179,1.187
		c0.872-0.059,1.752-0.303,2.639-0.732c2.109-1.013,3.918-2.321,5.427-3.924c0.309-0.328,0.606-0.671,0.892-1.025
		c2.813-3.504,4.383-8.224,4.712-14.162c0.525-9.327-2.258-16.355-8.348-21.085c-2.476-1.929-4.689-2.945-6.641-3.048
		c-0.354-0.022-0.698-0.015-1.031,0.022c-0.908,0.096-1.844,0.41-2.804,0.942C175.014,151.083,175.661,151.449,176.289,151.943z
		 M105.65,185.435c0.067,0,0.129,0,0.188,0l0.011,0.188l0.022,0.432l0.011,0.444c0.037-0.015,0.074-0.026,0.111-0.034l0.167,0.6
		l0.167,0.599c-7.31,2.039-14.966,2.671-22.97,1.896c-8.677-0.843-17.094-3.289-25.253-7.339
		c-4.267-2.121-10.956-7.257-20.065-15.41l-0.006-0.005c-0.144-0.235-0.173-0.45-0.089-0.643
		c6.169,6.162,13.074,11.146,20.714,14.949c8.019,3.968,16.293,6.37,24.821,7.205c5.521,0.532,10.875,0.385,16.063-0.443
		c-3.296-0.347-6.589-1.367-9.877-3.06c-6.977-3.577-10.461-9.083-10.454-16.518v-0.022c0.141-4.197,1.711-6.67,4.711-7.417
		c1.641-0.458,3.063,0.163,4.268,1.862c1.264,1.781,1.186,3.371-0.233,4.768c-0.938,1.027-1.995,1.216-3.17,0.565
		c-1.234-0.665-1.619-1.526-1.153-2.583l1.165,0.466c-0.126,0.399,0.07,0.739,0.587,1.02h0.011c0.606,0.34,1.149,0.237,1.63-0.311
		l0.021-0.021c0.924-0.931,0.965-1.992,0.123-3.182c-0.835-1.184-1.814-1.641-2.938-1.375c-2.395,0.673-3.651,2.757-3.769,6.252
		c0.015,6.918,3.274,12.047,9.777,15.389c3.282,1.691,6.566,2.682,9.855,2.97c0.983,0,1.955-0.052,2.915-0.155
		c-0.266-0.044-0.532-0.088-0.798-0.133v-0.011c-4.375-0.872-7.594-3.445-9.655-7.716v-0.012c-2.21-4.611-2.047-8.668,0.487-12.172
		c0.968-1.345,2.188-2.424,3.659-3.237c1.374-0.761,2.642-1.104,3.802-1.03c2.934,0.133,5.018,1.574,6.252,4.323
		c1.153,2.497,1.183,4.759,0.089,6.784c-0.858,1.648-2.258,2.604-4.202,2.871h-0.011c-1.641,0.207-2.96-0.037-3.958-0.731
		c-1.057-0.68-1.434-1.741-1.131-3.182c0.273-1.619,1.382-2.239,3.325-1.862l-0.244,1.23c-1.049-0.207-1.67,0.085-1.862,0.877
		c-0.177,0.849,0.026,1.484,0.609,1.905c0.791,0.51,1.826,0.684,3.104,0.521h-0.011c1.515-0.206,2.609-0.941,3.281-2.205v-0.012
		c0.879-1.691,0.835-3.584-0.133-5.676c-1.027-2.283-2.753-3.484-5.177-3.603c-0.954-0.037-1.999,0.26-3.138,0.887
		c-1.301,0.718-2.379,1.674-3.237,2.871c-2.231,3.134-2.357,6.771-0.377,10.909c1.87,3.887,4.793,6.233,8.769,7.039
		C103.581,185.371,104.646,185.464,105.65,185.435z M114.563,168.373c-1.448,1.604-2.454,3.63-3.015,6.075
		c-0.163,0.697-0.279,1.39-0.349,2.079c-0.15,1.445-0.101,2.873,0.149,4.284c0.059,0.317,0.125,0.636,0.2,0.953
		c0.088,0.2,0.177,0.403,0.266,0.61c0.724,2.113,1.694,3.847,2.911,5.199c1.667,1.85,3.797,2.984,6.391,3.402
		c0.295,0.046,0.603,0.086,0.92,0.122c-0.126-0.059-0.252-0.122-0.377-0.188c-1.353-0.687-2.484-1.566-3.393-2.639
		c-0.521-0.611-0.97-1.289-1.347-2.028c-0.927-1.829-1.409-4.046-1.447-6.65c-0.005-0.368-0.001-0.729,0.012-1.082
		c0.174-4.894,2.03-8.551,5.565-10.969c0.835-0.569,1.619-0.986,2.35-1.253c-0.65-0.281-1.301-0.473-1.951-0.576
		c-0.555-0.088-1.109-0.115-1.664-0.077C117.827,165.761,116.086,166.674,114.563,168.373z M133.842,151.367
		c0.62-0.221,1.3-0.125,2.039,0.288c0.37,0.2,0.68,0.426,0.931,0.677c-0.096-0.236-0.24-0.483-0.432-0.743
		c-0.384-0.502-0.809-0.797-1.275-0.886c-1.049-0.236-2.025-0.011-2.927,0.676c-0.731,0.554-1.319,1.315-1.763,2.283
		c-0.465,1.042-0.654,2.679-0.565,4.911c0.029,0.799,0.096,1.522,0.2,2.173c0.191,1.228,0.506,2.194,0.942,2.904
		c0.015,0.022,0.033,0.048,0.056,0.078c0.066,0.11,0.203,0.321,0.41,0.632c0.273,0.391,0.447,0.588,0.521,0.588
		c0.045,0,0.211-0.066,0.499-0.2c0.296-0.141,0.521-0.21,0.676-0.21c-0.029-0.052-0.059-0.104-0.088-0.155
		c-0.156-0.251-0.366-0.466-0.632-0.644c-0.192-0.096-0.34-0.174-0.443-0.232c-0.082-0.104-0.163-0.211-0.244-0.322
		c-0.007-0.007-0.011-0.015-0.011-0.021c-0.436-0.644-0.757-1.445-0.964-2.405v-0.012c-0.066-0.317-0.122-0.653-0.166-1.009
		c-0.178-1.448-0.141-2.923,0.111-4.423c0.2-1.16,0.643-2.1,1.33-2.815C132.541,151.981,133.14,151.604,133.842,151.367z
		 M134.518,152.21c0.443,0.104,0.835,0.271,1.175,0.5l0.821-0.167c-1.567-1.006-2.857-1.131-3.869-0.377
		c-0.769,0.568-1.315,1.566-1.641,2.993l0.466-0.854c0.354-0.628,0.657-1.101,0.909-1.418
		C132.903,152.235,133.617,152.011,134.518,152.21z M137.333,152.255c-0.244-0.629-0.587-1.142-1.031-1.542
		c-0.369-0.347-0.843-0.628-1.419-0.842c-1.094-0.289-2.165-0.096-3.214,0.577c-0.814,0.517-1.468,1.186-1.963,2.006
		c-0.591,1.013-1.042,2.472-1.352,4.379c-0.2,1.301-0.366,3.093-0.499,5.377c-0.015,0.221-0.026,0.443-0.033,0.665
		c-0.008,0.03-0.011,0.063-0.011,0.1c-0.044,0.303-0.251,0.669-0.621,1.098c-0.443,0.494-0.835,0.734-1.175,0.721v0.022
		c0.052,0.021,0.163,0.088,0.333,0.199c0.022,0.014,0.044,0.028,0.066,0.044c0.13,0.084,0.254,0.155,0.372,0.217
		c0.021,0.009,0.042,0.019,0.061,0.027c0.224,0.102,0.477,0.183,0.759,0.243c0.377,0.081,0.808,0.124,1.292,0.133
		c0.051,0,0.103,0,0.155,0c0.451,0,0.968-0.081,1.552-0.243c0.561-0.154,0.842-0.281,0.842-0.377c0-0.347-0.207-0.746-0.621-1.197
		c-0.125-0.14-0.27-0.285-0.432-0.433c-0.022-0.022-0.045-0.04-0.067-0.055c-0.355-0.569-0.61-1.445-0.765-2.628
		c-0.044-0.332-0.081-0.684-0.111-1.053c-0.125-1.825-0.041-3.54,0.255-5.145c0.237-1.263,0.891-2.316,1.963-3.159
		c1.16-0.931,2.427-1.215,3.802-0.854C136.262,150.847,136.883,151.419,137.333,152.255z M126.847,167.01
		c0.037,0.015,0.074,0.026,0.111,0.033c-0.022-0.015-0.044-0.029-0.066-0.044c0.06-0.032,0.119-0.062,0.177-0.089
		c0.236-0.111,0.469-0.196,0.698-0.256c-0.161-0.103-0.322-0.194-0.482-0.276c-0.219-0.109-0.438-0.198-0.654-0.266
		c-0.188-0.062-0.375-0.106-0.56-0.134c-0.216-0.035-0.441-0.047-0.676-0.033c-0.008,0-0.016,0-0.022,0
		c-1.131,0.037-2.42,0.569-3.869,1.597c-3.286,2.33-5.067,5.808-5.344,10.432c-0.029,0.525-0.041,1.064-0.033,1.619
		c0.033,2.427,0.439,4.52,1.219,6.274c0.983,2.216,2.562,3.897,4.734,5.043c0.147,0.081,0.295,0.156,0.443,0.223
		c0.406,0.17,0.816,0.262,1.23,0.277c0.784,0.036,1.578-0.186,2.384-0.666c-1.419-0.539-2.583-1.6-3.492-3.182
		c-0.982-1.679-1.581-3.752-1.796-6.219c-0.037-0.409-0.063-0.83-0.078-1.264c-0.002-0.055-0.004-0.107-0.005-0.161
		c-0.013-0.375-0.019-0.743-0.017-1.104c0.008-0.952,0.073-1.855,0.194-2.711c0.461-3.232,1.73-5.773,3.808-7.62
		c0.494-0.438,1.033-0.838,1.619-1.198c0.03-0.019,0.06-0.036,0.088-0.055C126.591,167.15,126.721,167.076,126.847,167.01z
		 M124.108,165.157c-0.111,0.319,0.078,0.468,0.565,0.444c0.271-0.11,0.545-0.175,0.82-0.193c0.319-0.022,0.641,0.018,0.965,0.116
		c0.091,0.021,0.182,0.048,0.272,0.077c0.252,0.086,0.492,0.204,0.72,0.354c0.159,0.106,0.313,0.229,0.46,0.366
		c0.28-0.114,0.555-0.184,0.825-0.205c0.51-0.038,1,0.094,1.469,0.395c0.348-0.326,0.905-0.581,1.674-0.766
		c0.731-0.148,1.378-0.159,1.94-0.033c0.325,0.073,0.628,0.011,0.909-0.188c0.229-0.178,0.295-0.318,0.2-0.421
		c-0.354-0.104-0.684-0.215-0.987-0.333c-0.288,0.192-0.728,0.384-1.319,0.576c-0.872,0.281-1.792,0.462-2.76,0.543
		c-0.352,0.015-0.695,0.006-1.031-0.026c-0.431-0.041-0.849-0.119-1.253-0.233c-0.273-0.08-0.542-0.175-0.803-0.288
		c-0.231-0.1-0.457-0.213-0.677-0.338c-0.225-0.127-0.445-0.268-0.66-0.422C124.973,164.811,124.53,165.004,124.108,165.157z
		 M125.317,168.562c-0.307,0.254-0.599,0.547-0.876,0.881c-0.602,0.717-1.138,1.62-1.607,2.711
		c-0.338,0.801-0.589,1.556-0.753,2.262c-0.167,0.718-0.244,1.386-0.233,2.007c-0.048,0.435-0.083,0.883-0.105,1.341
		c-0.025,0.499-0.034,1.01-0.028,1.536c0.004,0.246,0.012,0.495,0.022,0.747c0.006,0.244,0.017,0.482,0.033,0.716
		c0.003,0.05,0.007,0.1,0.011,0.149c-0.005-0.049-0.011-0.096-0.016-0.144c-0.048-0.472-0.08-0.953-0.095-1.441
		c-0.006-0.154-0.009-0.309-0.011-0.466c-0.005,0.162-0.009,0.322-0.011,0.482c-0.006,0.507,0.003,1.003,0.028,1.485
		c0.085,1.811,0.383,3.431,0.892,4.861c0.503,1.426,1.19,2.605,2.062,3.536c1.094,1.22,2.45,1.859,4.068,1.918
		c0.059,0,0.115,0,0.167,0c0.089,0,0.174,0,0.255,0l1.097-0.133c2.218-0.458,3.84-2.117,4.867-4.978
		c1.064-2.949,1.279-6.33,0.644-10.144c-0.281-1.604-0.792-3.152-1.53-4.645c-0.813-1.656-1.818-2.979-3.015-3.97
		c-0.547-0.473-1.12-0.742-1.718-0.81c-0.281-0.04-0.571-0.03-0.871,0.029c-0.086,0.016-0.172,0.035-0.26,0.061
		c-0.207,0.06-0.414,0.137-0.621,0.232l-0.643,0.366c-0.046,0.029-0.092,0.06-0.139,0.088c-0.231,0.157-0.455,0.319-0.67,0.488
		C125.926,167.992,125.612,168.27,125.317,168.562z M140.665,177.313c-0.286-1.104-0.498-2.242-0.638-3.414
		c-0.091-0.78-0.15-1.577-0.177-2.389c-0.785-1.408-1.842-2.627-3.17-3.658c-1.441-1.124-2.731-1.716-3.869-1.774
		c-0.199-0.015-0.396-0.011-0.587,0.012c-0.533,0.059-1.076,0.244-1.63,0.554c0.385,0.133,0.762,0.344,1.131,0.632
		c1.271,0.99,2.339,2.313,3.204,3.97c0.813,1.492,1.345,3.04,1.596,4.645c0.665,3.813,0.439,7.194-0.676,10.144
		c-1.005,2.683-2.572,4.308-4.7,4.877c0.813,0.511,1.626,0.739,2.439,0.688c0.502-0.029,1.013-0.17,1.53-0.421
		c3.968-1.899,6.104-5.599,6.407-11.097c0.001-0.026,0.003-0.052,0.005-0.077C141.19,179.13,140.902,178.232,140.665,177.313z
		 M143.653,184.192c-0.512-0.803-0.972-1.628-1.38-2.478c-0.306,2.176-0.962,4.025-1.967,5.549
		c-0.976,1.493-2.284,2.675-3.925,3.547c1.108,0.089,2.276-0.195,3.503-0.854c1.771-0.955,3.327-2.429,4.667-4.423
		C144.244,185.103,143.944,184.655,143.653,184.192z M20.379,150.01c-0.002,0.056-0.004,0.117-0.006,0.183
		c-0.857-0.838-1.727-1.691-2.61-2.561C18.713,148.499,19.585,149.291,20.379,150.01z M27.995,157.526
		c-0.926-0.878-1.87-1.777-2.833-2.7c0.131-0.046,0.203-0.075,0.216-0.088c0.057-0.041,0.11-0.078,0.161-0.111
		c0.091,0.076,0.174,0.146,0.25,0.21c-0.029-0.036-0.052-0.073-0.067-0.11c-0.036-0.064-0.062-0.123-0.077-0.178
		c0.003-0.004,0.007-0.008,0.011-0.011c0.021-0.012,0.041-0.022,0.061-0.033l2.389,2.256c-0.035,0.043-0.076,0.078-0.122,0.105
		C27.971,156.939,27.975,157.158,27.995,157.526z"/>
	<path fill-rule="evenodd" clip-rule="evenodd" fill="#F8CE61" d="M221.763,158.029c0.118-0.021,0.2,0.378,0.244,1.198
		c0.037,0.621,0.055,1.489,0.055,2.605c0.023,1.271,0.016,2.49-0.021,3.657c0-0.104-0.273-0.931-0.82-2.483
		c-0.658-1.765-1.079-2.914-1.264-3.447l0.82-0.709c0.125-0.126,0.281-0.3,0.465-0.521
		C221.412,158.167,221.586,158.067,221.763,158.029z M216.221,170.225c-1.101,0-1.652-0.299-1.652-0.898
		c0-0.258,0.148-0.45,0.443-0.576c0.199-0.074,0.603-0.222,1.209-0.443c0.311-0.133,0.55-0.166,0.72-0.1
		c0.052,0.021,0.101,0.056,0.145,0.1c0.147,0.126,0.47,0.466,0.965,1.02l0.154,0.455c0.112,0.235-0.311,0.377-1.264,0.422
		C216.726,170.218,216.486,170.225,216.221,170.225z M227.66,172.409c0.111-0.141,0.186-0.26,0.223-0.356
		c0.095-0.272-0.078-0.956-0.521-2.05c-0.146-0.393-0.284-0.723-0.415-0.992c-0.233-0.495-0.439-0.785-0.616-0.87
		c0.119-0.191,0.236-0.381,0.35-0.565c2.634-4.207,4.183-6.422,4.65-6.64c0.199,0.487,0.82,0.738,1.862,0.753
		c0.998,0.021,1.516,0.181,1.552,0.477c0.038,0.251,0.185,0.979,0.444,2.185c0.214,1.145,0.295,1.825,0.243,2.039
		c-0.073,0.296-0.694,0.766-1.862,1.408c-0.884,0.492-1.893,0.977-3.026,1.452c-0.449,0.189-0.919,0.379-1.408,0.565
		c0.646-0.132,1.254-0.246,1.824-0.344c0.765-0.128,1.462-0.225,2.09-0.288c1.22-0.125,1.829-0.097,1.829,0.088
		c0,0.142,0.354,0.722,1.064,1.742c0.364,0.771,0.364,1.412,0,1.923c-0.151,0.212-0.364,0.403-0.644,0.571
		c0.013,0.186,0.003,0.354-0.027,0.504c-0.146,0.757-0.82,1.044-2.024,0.858c-1.366-0.214-3.144-0.986-5.332-2.316
		C227.827,172.509,227.741,172.461,227.66,172.409z M230.599,159.228c0.348-0.524,0.81-1.198,1.386-2.018
		c0.362,0.422,0.51,0.75,0.442,0.986c-0.028,0.126-0.261,0.469-0.697,1.031c-0.466,0.583-1.146,1.396-2.04,2.438
		c-1.021,1.878-1.293,2.15-0.82,0.82c0.311-0.856,0.775-1.777,1.396-2.76C230.362,159.578,230.474,159.412,230.599,159.228z
		 M235.875,164.017c0.067-0.214,0.192-0.358,0.377-0.433c0.363-0.147,0.791-0.029,1.286,0.354c0.288,0.237,0.488,0.573,0.599,1.01
		c0.147,0.584-0.078,0.949-0.677,1.098c-0.591,0.147-1.042-0.026-1.352-0.521c-0.193-0.348-0.288-0.75-0.288-1.208
		C235.82,164.227,235.839,164.128,235.875,164.017z M238.048,169.626c0.082-0.126,0.304-0.288,0.666-0.487l0.376-0.066
		c0.296,0,0.532,0.055,0.711,0.166c0.346,0.206,0.657,0.81,0.931,1.807c0.06,0.273,0.095,0.673,0.11,1.197
		c0.022,0.554,0.04,0.883,0.055,0.987c0.037,0.162,0.193,0.454,0.466,0.875c0.186,0.436,0.093,0.816-0.276,1.143
		c-0.399,0.369-0.872,0.442-1.42,0.221c-0.473-0.178-0.79-0.466-0.952-0.864c-0.111-0.259-0.148-0.654-0.111-1.187
		c0.073-0.539,0.111-0.901,0.111-1.086c0-0.17-0.111-0.426-0.333-0.766c-0.222-0.384-0.348-0.739-0.377-1.063
		C237.945,170.059,237.96,169.767,238.048,169.626z M226.63,180.035c0.273,0.052,0.385,0.215,0.333,0.488
		c-0.038,0.311-0.038,0.713,0,1.209c0.052,0.546,0.14,0.967,0.266,1.263c0.11,0.236,0.104,0.662-0.022,1.274
		c-0.162,0.77-0.243,1.229-0.243,1.375c0,0.341-0.24,0.393-0.721,0.155c-0.451-0.214-0.722-0.513-0.81-0.898
		c-0.059-0.236-0.052-0.527,0.022-0.875c0.073-0.31,0.065-0.591-0.022-0.842c-0.11-0.274-0.048-0.703,0.188-1.287
		c0.31-0.769,0.479-1.252,0.511-1.452C226.19,180.143,226.357,180.007,226.63,180.035z M223.238,180.8
		c0.11-0.109,0.177-0.41,0.199-0.897c0-0.044,0-0.089,0-0.133c0.014-0.377,0.096-0.606,0.243-0.688c0.267-0.162,0.518-0.162,0.754,0
		c0.11,0.074,0.196,0.163,0.256,0.266l-0.277,1.452c0,0.297-0.094,0.688-0.277,1.177c-0.252,0.643-0.55,0.982-0.897,1.019
		c-0.363,0.037-0.507-0.276-0.434-0.942C222.857,181.439,223.002,181.021,223.238,180.8z M142.605,166.971
		c-0.001,0.005-0.003,0.01-0.005,0.017c-0.095,0.346-0.182,0.691-0.261,1.037c-0.079,0.338-0.15,0.676-0.216,1.014
		c-0.015,0.081-0.03,0.162-0.044,0.244c-0.016-0.114-0.031-0.229-0.044-0.344c-0.047-0.428-0.075-0.856-0.083-1.285
		c-0.008-0.384-0.001-0.769,0.022-1.153v-0.012c0.011-0.182,0.026-0.362,0.044-0.543c0.334-3.428,1.885-6.953,4.65-10.575
		c3.946-5.218,7.975-6.733,12.084-4.546c-4.509-0.436-8.47,1.951-11.884,7.162c-1.884,2.774-3.255,5.598-4.113,8.469
		C142.703,166.626,142.653,166.799,142.605,166.971z M140.044,167.226c-1.259-0.786-2.621-1.113-4.085-0.981
		c1.456-0.523,2.854-0.466,4.195,0.172C140.115,166.685,140.078,166.954,140.044,167.226z M167.964,151.468
		c0.036,0.029,0.077,0.059,0.122,0.089c-0.059-0.022-0.118-0.041-0.177-0.056c-0.323-0.093-0.646-0.161-0.971-0.205
		c-0.414-0.058-0.829-0.077-1.248-0.056c-2.887,0.137-5.858,2.123-8.912,5.958c-3.192,4.072-5.074,7.775-5.643,11.108
		c-0.133-2.106,0.764-4.956,2.694-8.547c2.143-4.027,4.552-6.695,7.229-8.004c1.403-0.702,2.608-1.098,3.612-1.187
		c0.363-0.027,0.718-0.018,1.064,0.028c0.423,0.055,0.833,0.164,1.23,0.327C167.307,151.066,167.64,151.247,167.964,151.468z
		 M159.272,167.707c-0.029-2.127,0.543-4.578,1.718-7.349c1.176-2.75,2.599-4.814,4.269-6.196c0.104-0.085,0.21-0.166,0.315-0.245
		c0.284-0.216,0.574-0.415,0.87-0.599c0.136-0.082,0.271-0.162,0.405-0.238c2.549-1.425,4.842-1.386,6.879,0.117
		c-2.419-0.978-4.721-0.629-6.906,1.047c-0.422,0.325-0.84,0.697-1.253,1.119c-0.619,0.635-1.229,1.38-1.829,2.234
		c-2.313,3.237-3.799,6.696-4.457,10.376C159.276,167.886,159.272,167.797,159.272,167.707z M181.089,151.356
		c0.917,0.524,1.682,1.049,2.295,1.574c5.913,4.553,8.714,11.382,8.403,20.486c-0.226,5.958-1.723,10.747-4.49,14.367
		c-0.268,0.351-0.549,0.69-0.842,1.021c-1.324,1.493-2.895,2.762-4.711,3.802c1.344-1.285,2.505-2.717,3.48-4.295
		c0.22-0.356,0.431-0.72,0.631-1.093c2.256-4.146,3.338-9.228,3.249-15.243C188.971,162.96,186.3,156.087,181.089,151.356z
		 M200.268,168.628c-0.088-3.414-1.511-7.181-4.268-11.297c-3.503-5.21-7.638-7.597-12.406-7.16
		c4.635-1.663,8.921,0.092,12.86,5.266C200.135,160.336,201.406,164.733,200.268,168.628z M126.847,167.01
		c-0.129-0.037-0.259-0.066-0.388-0.088c-0.422-0.078-0.847-0.086-1.275-0.022c-1.553,0.226-3.149,1.367-4.789,3.425
		c-1.855,2.365-2.949,4.513-3.281,6.44c-0.074-1.219,0.447-2.871,1.563-4.955c1.249-2.342,2.646-3.895,4.191-4.655
		c0.82-0.407,1.522-0.636,2.105-0.688c0.105-0.007,0.209-0.009,0.311-0.005c0.423,0.011,0.825,0.112,1.208,0.305
		c0.136,0.065,0.269,0.145,0.399,0.233c0.022,0.015,0.044,0.029,0.066,0.044C126.921,167.036,126.883,167.024,126.847,167.01z
		 M121.847,176.422c-0.011-0.621,0.067-1.289,0.233-2.007c0.164-0.706,0.416-1.461,0.753-2.262c0.47-1.091,1.005-1.994,1.607-2.711
		c0.277-0.334,0.569-0.627,0.876-0.881c0.222-0.185,0.451-0.348,0.687-0.487c0.065-0.04,0.13-0.08,0.194-0.117
		c0.183-0.104,0.364-0.194,0.543-0.271c0.525-0.23,1.031-0.35,1.519-0.354c0.699-0.011,1.359,0.211,1.979,0.665
		c-0.736-0.295-1.453-0.38-2.15-0.255c-0.586,0.107-1.159,0.362-1.718,0.765c-0.142,0.103-0.282,0.214-0.421,0.333
		c-0.515,0.445-1.017,1.019-1.508,1.719c-1.353,1.877-2.217,3.884-2.594,6.02C121.847,176.525,121.847,176.474,121.847,176.422z
		 M114.53,169.26c2.284-3.03,4.619-3.909,7.006-2.638c-2.617-0.252-4.915,1.134-6.896,4.157c-1.185,1.747-2.024,3.529-2.516,5.349
		c-0.11,0.402-0.202,0.807-0.278,1.214c-0.039-0.29-0.063-0.582-0.072-0.875C111.715,174.144,112.633,171.741,114.53,169.26z
		 M140.665,177.313c0.063,0.778,0.08,1.59,0.05,2.434c-0.2,5.313-2.144,9.023-5.832,11.13c2.927-2.793,4.353-6.784,4.279-11.973
		c-0.081-5.232-1.633-9.223-4.656-11.972c0.532,0.302,0.979,0.609,1.341,0.92c2.022,1.556,3.415,3.571,4.179,6.047
		C140.167,175.071,140.379,176.209,140.665,177.313z"/>
	<path fill-rule="evenodd" clip-rule="evenodd" fill="#EC653B" d="M175.059,135.421c0.008-0.198,0.02-0.392,0.033-0.583l0.498-0.221
		c-0.122-0.279-0.259-0.543-0.41-0.793c0.018-0.158,0.035-0.313,0.057-0.465c0.034-0.073,0.07-0.133,0.11-0.183
		c-0.025,0-0.054-0.003-0.083-0.011c0.121-0.823,0.289-1.563,0.504-2.217c0.533-1.611,1.549-2.779,3.049-3.503
		c0.149-0.071,0.291-0.136,0.427-0.194c0.026,0.041,0.058,0.076,0.095,0.105c0.097,0.074,0.251,0.137,0.466,0.188
		c0.021,0.111,0.015,0.277-0.022,0.499c-0.022,0.126-0.052,0.277-0.089,0.455c0,0.059-0.1,0.195-0.299,0.41
		c-0.163,0.17-0.181,0.299-0.056,0.388c0.148,0.089,0.34,0.059,0.576-0.089c0.125-0.074,0.326-0.21,0.599-0.41
		c0.82-0.687,1.485-1.012,1.996-0.976c0.036,0.126,0.084,0.425,0.144,0.898c0.03,0.148,0.192,0.229,0.488,0.244
		c0.399,0.022,0.636,0.052,0.71,0.089c0.059,0.14,0.232,0.248,0.521,0.321c0.162,0.059,0.372,0.107,0.632,0.144
		c-0.097,0.178-0.219,0.34-0.367,0.488c-0.228,0.236-0.424,0.436-0.587,0.598c-0.31,0.311-0.477,0.54-0.498,0.687
		c0.185,0.052,0.358,0.222,0.521,0.51c0.146,0.258,0.235,0.506,0.266,0.743l-1.607,0.255c-0.348,0.066-0.628,0.137-0.843,0.21
		c-0.444,0.133-0.673,0.281-0.688,0.444c-0.022,0.162,0.17,0.37,0.576,0.621c0.2,0.148,0.48,0.333,0.844,0.554
		c-0.201,0.125-0.281,0.381-0.245,0.766c0.037,0.214,0.138,0.432,0.3,0.654c0.199,0.273,0.317,0.447,0.355,0.521
		c-0.112-0.015-0.312,0.011-0.6,0.078c-0.288,0.059-0.498,0.114-0.632,0.167c-0.052,0.021-0.225,0.021-0.521,0
		c-0.251-0.015-0.45,0.021-0.599,0.11c-0.14,0.104-0.24,0.329-0.299,0.676c-0.037,0.207-0.081,0.528-0.133,0.964
		c-0.163-0.259-0.503-0.606-1.021-1.042c-0.413-0.377-0.731-0.639-0.952-0.787c-0.252-0.421-0.569-0.521-0.955-0.3
		c-0.125,0.089-0.243,0.322-0.354,0.699c-0.06,0.207-0.152,0.547-0.277,1.02c0.022-0.273-0.06-0.602-0.244-0.986
		c-0.097-0.17-0.174-0.318-0.232-0.444c-0.029-0.14-0.06-0.28-0.088-0.421c-0.068-0.318-0.148-0.621-0.245-0.909l-0.576,0.188
		h-0.011c-0.06,0.007-0.123,0.026-0.189,0.056C175.086,135.573,175.07,135.5,175.059,135.421z M2.242,123.598l0.466-0.11
		c0.311-0.148,0.129-0.377-0.543-0.688c0.038-0.111,0.044-0.192,0.022-0.244c-0.148-0.259-0.429-0.358-0.843-0.299
		c0.066-0.074,0.414-0.192,1.042-0.354c0.273,0.015,0.455-0.033,0.543-0.144c0.051-0.141,0.089-0.248,0.111-0.322
		c0.118-0.015,0.335,0.004,0.654,0.056c0.037,0,0.125,0.07,0.266,0.21c0.111,0.111,0.196,0.122,0.255,0.033
		c0.051-0.096,0.033-0.222-0.056-0.377c-0.133-0.185-0.226-0.325-0.277-0.421c-0.458-0.488-0.688-0.924-0.688-1.309
		c0.089-0.037,0.288-0.07,0.599-0.1c0.096-0.022,0.151-0.125,0.166-0.311c0.022-0.273,0.041-0.436,0.056-0.488
		c0.111-0.037,0.185-0.147,0.222-0.333c0.037-0.222,0.066-0.366,0.089-0.432l0.354,0.21c0.377,0.458,0.658,0.706,0.843,0.743
		c0.037-0.125,0.155-0.244,0.355-0.354c0.162-0.111,0.317-0.174,0.465-0.189l0.188,1.087c0.022,0.059,0.066,0.244,0.133,0.554
		c0.096,0.288,0.196,0.439,0.299,0.454c0.111,0.022,0.251-0.103,0.421-0.377c0.178-0.288,0.296-0.476,0.354-0.565
		c0.089,0.125,0.263,0.177,0.521,0.155c0.251-0.037,0.514-0.181,0.788-0.433c-0.037,0.251,0.019,0.521,0.166,0.809
		c0.015,0.038,0.015,0.148,0,0.333c0,0.162,0.026,0.299,0.078,0.41c0.074,0.111,0.222,0.177,0.443,0.2
		c0.141,0.015,0.358,0.04,0.654,0.078c-0.17,0.125-0.399,0.351-0.687,0.676c-0.252,0.295-0.425,0.517-0.521,0.665
		c-0.288,0.185-0.358,0.391-0.211,0.621c0.067,0.111,0.448,0.248,1.142,0.41c-0.177-0.015-0.396,0.041-0.654,0.167
		c-0.259,0.163-0.439,0.262-0.543,0.299c-0.406,0.111-0.561,0.314-0.465,0.61c-0.185,0.051-0.451,0.066-0.798,0.044
		c-0.421-0.015-0.703-0.085-0.842-0.21c0,0.125-0.074,0.289-0.222,0.488c-0.074,0.111-0.229,0.248-0.466,0.41
		c-0.199,0.162-0.354,0.262-0.465,0.299c0.111-0.421,0-0.613-0.333-0.577c-0.725,0.111-1.187,0.222-1.386,0.333l0.599-1.087
		c-0.052-0.059-0.122-0.1-0.21-0.122c-0.355,0.148-0.603,0.133-0.743-0.045C2.948,123.819,2.501,123.665,2.242,123.598z
		 M46.774,162.465c-0.125,0.199-0.118,0.336,0.022,0.41c0.163,0.065,0.347,0.003,0.554-0.188c0.236-0.236,0.41-0.41,0.521-0.521
		c0.635-0.835,1.208-1.301,1.718-1.396c0.074,0.111,0.192,0.392,0.355,0.842c0.051,0.134,0.214,0.181,0.487,0.146
		c0.421-0.06,0.668-0.09,0.743-0.09c0.096,0.148,0.285,0.233,0.566,0.256c0.169,0,0.391,0,0.665,0l-0.244,0.543
		c-0.059,0.089-0.214,0.325-0.465,0.709c-0.237,0.363-0.348,0.618-0.333,0.765c0.185,0.023,0.384,0.159,0.598,0.411
		c0.222,0.236,0.37,0.454,0.444,0.654c-0.185,0.073-0.706,0.277-1.563,0.609c-0.067,0.051-0.329,0.177-0.788,0.376
		c-0.384,0.216-0.565,0.407-0.543,0.577c0.015,0.14,0.233,0.303,0.654,0.487c0.236,0.09,0.554,0.208,0.954,0.355
		c-0.185,0.185-0.203,0.45-0.056,0.798c0.059,0.2,0.196,0.392,0.41,0.576c0.259,0.215,0.414,0.358,0.465,0.433
		c-0.132,0.022-0.332,0.085-0.598,0.188c-0.273,0.111-0.465,0.214-0.577,0.311c-0.059,0.029-0.214,0.063-0.465,0.1
		c-0.259,0.036-0.451,0.118-0.577,0.244c-0.125,0.133-0.177,0.374-0.155,0.721c0,0.199,0.018,0.517,0.055,0.953
		c-0.222-0.199-0.625-0.466-1.208-0.799c-0.495-0.288-0.861-0.479-1.098-0.576c-0.348-0.341-0.676-0.365-0.987-0.077
		c-0.104,0.111-0.174,0.358-0.21,0.743c0,0.015-0.019,0.358-0.056,1.029c-0.037-0.25-0.192-0.539-0.465-0.863
		c-0.296-0.348-0.496-0.596-0.599-0.743c-0.296-0.621-0.636-0.787-1.02-0.499c-0.126-0.251-0.233-0.639-0.321-1.164
		c-0.089-0.621-0.063-1.049,0.077-1.285c-0.163,0.037-0.425-0.03-0.787-0.201c-0.162-0.073-0.41-0.254-0.743-0.542
		c-0.288-0.274-0.48-0.473-0.576-0.599c0.628,0.022,0.876-0.189,0.742-0.632c-0.147-0.399-0.273-0.735-0.376-1.01
		c-0.207-0.473-0.384-0.793-0.532-0.963l1.785,0.554c0.088-0.089,0.126-0.218,0.111-0.388c-0.31-0.437-0.366-0.791-0.166-1.064
		c0.163-1.006,0.263-1.707,0.299-2.106l0.055,0.199c0.052,0.162,0.133,0.307,0.244,0.433c0.333,0.421,0.613,0.092,0.842-0.986
		c0.17,0.021,0.292,0.004,0.366-0.056c0.325-0.288,0.388-0.732,0.188-1.33c0.214,0.14,0.499,0.612,0.854,1.418
		c0.052,0.399,0.167,0.643,0.344,0.732c0.133,0.059,0.306,0.096,0.521,0.11c0.074,0.186,0.103,0.504,0.088,0.953
		C46.996,162.08,46.921,162.229,46.774,162.465z"/>
</g>
</svg>
