<?xml version="1.0" encoding="utf-8"?>
<!-- Generator: Adobe Illustrator 16.0.0, SVG Export Plug-In . SVG Version: 6.00 Build 0)  -->
<!DOCTYPE svg PUBLIC "-//W3C//DTD SVG 1.1//EN" "http://www.w3.org/Graphics/SVG/1.1/DTD/svg11.dtd">
<svg version="1.1" id="Layer_1" xmlns="http://www.w3.org/2000/svg" xmlns:xlink="http://www.w3.org/1999/xlink" x="0px" y="0px"
	 width="300px" height="300px" viewBox="0 0 300 300" enable-background="new 0 0 300 300" xml:space="preserve">
<path fill-rule="evenodd" clip-rule="evenodd" fill="#EE2C51" d="M266.266,35.106c25.684,21.271,34.729,49.788,27.135,85.551
	c-6.084,28.089-21.43,53.603-46.041,76.544c-8.626,8.031-18.815,16.579-30.563,25.644c-6.282,4.812-16.998,12.733-32.145,23.766
	l-11.749,8.528c0-9.521,0.199-17.194,0.596-23.021c0.498-7.096,1.372-13.597,2.625-19.5c1.231-3.34,2.275-6.78,3.131-10.318
	c5.288-22.086,4.899-44.102-1.163-66.048c-0.12-0.518-0.249-1.014-0.387-1.491c-2.068-7.912-5.934-14.7-11.6-20.366
	c-0.676-0.179-1.422-0.169-2.237,0.03c-1.133,0.298-1.849,1.034-2.146,2.207c-0.141,0.537-0.208,1.66-0.208,3.37
	c0.099,11.232,0.317,28.12,0.655,50.662c-0.239,8.827-0.021,22.106,0.655,39.838c0.14,31.33,0.209,47.034,0.209,47.114
	c0,0.655,0.05,1.67,0.149,3.041c-0.1,1.113-0.606,1.938-1.521,2.475c-0.358,0.199-2.466,1.77-6.321,4.713
	c-0.398,0.298-0.785,0.575-1.164,0.834l-5.695,3.221c-0.357-0.04-0.676-0.139-0.954-0.299c-3.657-1.907-7.405-5.029-11.242-9.363
	c-0.397-1.809-0.805-7.017-1.223-15.625c-0.417-8.646-0.477-18.696-0.179-30.146c0.298-11.47,1.252-18.676,2.863-21.618
	c4.473-7.932,7.346-15.992,8.617-24.184c1.313-8.23,1.283-17.563-0.089-28c-0.438-3.597-2.038-12.573-4.801-26.926h-1.521
	l0.239,42.343l-0.061-0.597l-0.029,1.58h-4.383l0.06-15.059c-0.119-4.115-0.229-7.892-0.328-11.332
	c-0.16-4.969-0.298-9.214-0.418-12.732l-0.179-4.294l-2.744,0.09v24.571c0,0.795,0.08,5.805,0.239,15.028
	c0.02,1.173,0.04,2.416,0.06,3.728h-4.8c-0.04-1.312-0.08-2.555-0.12-3.728c-0.258-9.324-0.397-14.551-0.417-15.685
	c-0.1-4.134-0.149-6.46-0.149-6.978c-0.239-7.732-0.388-13.378-0.448-16.937h-2.922c-0.02,0.437-0.04,0.935-0.06,1.491
	c-0.218,4.532-0.308,8.657-0.268,12.375c0,0.278,0.01,0.557,0.03,0.834c0.02,1.829,0.04,3.479,0.06,4.951l0.358,23.676h-3.877
	c-0.318-12.802-0.438-21.598-0.358-26.39c0.021-0.496,0.031-1.013,0.031-1.55c0.079-6.242-0.07-11.371-0.448-15.387h-1.282
	c-0.934,4.393-1.719,8.448-2.355,12.167c-1.491,8.906-2.515,17.842-3.072,26.807c-0.119,1.81-0.218,3.618-0.298,5.427
	c-0.02,4.234,0.388,8.41,1.222,12.524c1.114,5.666,3.012,11.232,5.695,16.699c1.87,2.94,3.41,6.003,4.623,9.184
	c0.059,0.199,0.159,0.388,0.298,0.567l0.239,5.456c0.537,14.373,0.368,28.089-0.507,41.149c-0.06,0.736-0.06,1.89,0,3.46
	c-0.099,1.371-0.149,2.771-0.149,4.203l-24.332-17.891c-16.042-12.047-27.682-21.162-34.918-27.343
	c-12.564-10.636-23.01-21.093-31.339-31.37c-3.618-4.474-6.918-9.074-9.899-13.806C6.722,137.563,0.47,109.892,4.187,79.953
	c0.139-0.198,0.239-0.408,0.298-0.626c3.439-12.921,9.592-24.392,18.458-34.411c0.755-0.834,1.53-1.64,2.325-2.416
	c17.553-17.334,38.635-25.017,63.246-23.05c24.75,2.147,43.674,13.647,56.775,34.501c1.392,2.306,2.803,4.791,4.234,7.454
	l3.221-5.636c0.358-0.616,0.716-1.223,1.073-1.818c11.012-17.077,26.398-27.96,46.159-32.652c23.16-5.586,44.48-1.6,63.962,11.958
	C264.734,33.854,265.51,34.47,266.266,35.106z M75.424,61.704c-2.902-0.735-5.794-0.636-8.677,0.298
	c-13.478,4.513-21.519,14.044-24.123,28.596c-2.743,15.485,1.083,31.608,11.48,48.366c9.463,15.207,21.489,27.025,36.081,35.455
	c-5.288-5.944-9.084-10.288-11.391-13.031c-3.876-4.553-7.186-8.767-9.93-12.643c-9.303-13.121-15.327-25.764-18.07-37.929
	c-2.505-11.034-2.067-20.735,1.313-29.104C56.122,71.753,63.895,65.084,75.424,61.704z"/>
</svg>
