<?xml version="1.0" encoding="utf-8"?>
<!-- Generator: Adobe Illustrator 16.0.0, SVG Export Plug-In . SVG Version: 6.00 Build 0)  -->
<!DOCTYPE svg PUBLIC "-//W3C//DTD SVG 1.1//EN" "http://www.w3.org/Graphics/SVG/1.1/DTD/svg11.dtd">
<svg version="1.1" id="Layer_1" xmlns="http://www.w3.org/2000/svg" xmlns:xlink="http://www.w3.org/1999/xlink" x="0px" y="0px"
	 width="300px" height="300px" viewBox="0 0 300 300" enable-background="new 0 0 300 300" xml:space="preserve">
<g>
	<path fill-rule="evenodd" clip-rule="evenodd" fill="#010101" d="M261.18,97.065c4.105,0.368,10.098,1.907,17.975,4.619
		c5.572,2.381,7.696,1.593,6.377-2.363c-1.354-2.712-1.044-4.452,0.936-5.223c0.878-0.403,2.143-0.257,3.793,0.44
		c1.648,0.622,2.437,0.622,2.361,0c0.295-1.687-1.354-4.233-4.946-7.642c9.529,6.083,12.149,10.095,7.861,12.039
		c-0.733,0.184-1.466,0.128-2.198-0.165c-1.687-0.478-2.969-0.567-3.849-0.276c4.104,6.047,4.031,10.061-0.22,12.039
		c-3.774,1.135-7.512,1.008-11.215-0.385c-4.69-1.355-8.3-0.824-10.828,1.595c2.604,0.109,5.588,1.136,8.961,3.078
		c4.396-0.512,7.604,0,9.62,1.539c2.417,1.759,4.818,2.95,7.201,3.575h0.054c-1.246,1.721-3.153,2.289-5.718,1.702
		c-2.344-0.585-4.286-0.531-5.827,0.165c-1.539,0.732-3.279,1.027-5.221,0.88c-1.282-0.255-2.438-0.311-3.464-0.165
		c0.075,1.1,1.869,2.271,5.388,3.519c3.701,0.621,6.176,1.648,7.42,3.078c0.366,0.439,1.357,0.861,2.969,1.263
		c-0.916,0.88-2.857,1.007-5.826,0.385c-1.576,0.037-2.785,0.311-3.629,0.824c-1.464,1.026-3.132,1.539-5.002,1.539
		c-0.549,0.917,0.44,1.43,2.969,1.54c0.734-0.073,1.483,0.055,2.254,0.385l5.059,3.299c-1.027,0.257-1.905,0.878-2.64,1.869
		c-1.137-0.257-2.254-0.203-3.353,0.165c-0.916,0.292-1.961,0.953-3.134,1.978c-0.477,0.111-2.106-0.018-4.892-0.385
		c-1.395,1.137-2.878,2.089-4.454,2.859c-0.514,0.219-3.262,0.164-8.245-0.165c-3.261,1.685-5.461,3.333-6.596,4.947
		c2.785-0.659,4.525-0.935,5.221-0.826c1.101,0.402,3.189,0.715,6.268,0.935c1.942-0.439,4.232-0.402,6.872,0.109
		c1.723,2.346,3.499,3.757,5.332,4.233c-0.844,0.732-2.235,1.026-4.179,0.879c-2.234-0.365-4.104,0-5.606,1.1
		c-0.916,0.257-2.271,0.569-4.068,0.936c1.247,0.329,2.31,1.282,3.188,2.857c0.476,0.732,1.503,1.374,3.078,1.925
		c1.648,0.585,2.657,1.227,3.023,1.924c-2.015,0.073-3.701,0.806-5.057,2.197c-0.659-0.292-1.318-0.256-1.979,0.11
		c-1.831-1.209-3.976-1.593-6.431-1.155c-0.257,0.991,0.366,1.468,1.868,1.43c0.771,1.392,1.979,2.273,3.629,2.64
		c1.648,0.916,2.511,1.868,2.583,2.857c-1.173,0.33-2.529,0.478-4.066,0.44c-1.284,0.33-2.566,0.292-3.849-0.11
		c-1.869,0.44-4.215-0.091-7.036-1.593c-0.146,0.109-0.587,0.182-1.319,0.218c0.696,1.431,2.785,4.051,6.266,7.86
		c0.623,1.284,0.623,2.695,0,4.234c-0.805-0.44-1.52-1.045-2.143-1.815c-1.943,0.185-3.737-0.017-5.388-0.604
		c-0.806-1.027-1.557-1.888-2.254-2.584c0.147,3.922-1.374,7.384-4.562,10.389c1.43-3.519,1.466-6.321,0.108-8.408
		c-4.763-1.064-8.209-3.575-10.333-7.531c-1.393-0.147-2.346,0.146-2.859,0.878c3.446,9.603-1.117,22.336-13.687,38.204
		c2.016,1.209,4.36,3.94,7.036,8.189c1.979,3.813,4.946,7.02,8.904,9.62c2.456,3.226,1.119,7.605-4.012,13.137
		c-3.628,4.29-6.742,10.373-9.346,18.251c3.151,3.847,4.362,6.871,3.629,9.068c-6.596-0.476-11.085,2.035-13.467,7.532
		c-6.011-0.991-9.07-0.311-9.18,2.033l8.521,1.319c-0.257,4.215-2.53,6.67-6.816,7.365c-7.477,1.027-12.736,0.551-15.777-1.428
		c3.887-4.91,5.131-8.595,3.739-11.05c3.883-0.257,7.347-2.271,10.388-6.047l7.972-9.729c5.168-7.218,7.842-13.394,8.025-18.522
		l-8.466-10.556c-7.952-2.931-14.512-6.411-19.679-10.443c-10.151-7.878-15.025-17.828-14.622-29.849
		c-18.322-1.833-34.74-5.644-49.252-11.434c-10.04-4.03-19.167-8.997-27.374-14.896c0.293-1.392,0.512-2.821,0.659-4.287
		c0.33-3.444,0.276-7.109-0.165-10.993l-1.319-0.111c0.073,5.791-0.769,10.059-2.53,12.807c-0.658,0.991-1.428,1.796-2.308,2.419
		c-3.335,0.844-8.74-1.098-16.215-5.825c-8.759-6.67-16.363-10.097-22.813-10.279l0.934,14.4c4.105,0.037,7.55,0.514,10.334,1.429
		c-2.162,7.184-1.117,10.756,3.134,10.72c-1.687,2.859-2.804,5.718-3.354,8.575l2.31,0.494l3.958-8.466
		c2.932,1.905,4.123,5.334,3.573,10.281c-1.539,6.998-3.262,10.773-5.167,11.322c-1.171-0.621-2.821-2.325-4.947-5.112
		c-1.428-1.648-2.95-1.575-4.562,0.221c0.33-2.969-0.018-5.937-1.044-8.905c-1.209-1.978-3.5-3.757-6.872-5.332
		c-3.665-1.246-5.424-3.609-5.276-7.09c0.182-10.519-1.099-20.083-3.847-28.695c1.501-6.047,3.663-8.922,6.484-8.629
		c13.192,5.57,20.815,7.291,22.868,5.167c0.036-0.038,0.109-0.111,0.22-0.221c-0.111-0.22-0.239-0.404-0.385-0.55
		c-2.749-12.827-1.1-22.757,4.947-29.793c0.109-0.111,0.221-0.219,0.33-0.33c0.257-0.257,0.514-0.495,0.771-0.715
		c3.81-3.553,6.908-7.971,9.29-13.246C89.494,83.048,95.689,75.995,101.552,72c7.513-2.382,12.221-5.405,14.127-9.07
		c0.951-1.612,0.75-2.217-0.605-1.813c-0.036,0.036-0.092,0.054-0.165,0.054c-8.025,8.429-14.916,9.564-20.668,3.408
		c-5.79,0-11.452,2.401-16.986,7.201c-4.032,0.55-7.421-0.824-10.169-4.123c8.428-2.967,11.507-5.146,9.234-6.54
		c-6.816-0.147-11.104-0.642-12.861-1.484c0.328-1.502,0.2-3.116-0.387-4.837c-1.171-5.424,2.438-8.905,10.831-10.444
		c11.431-7,22.151-12.46,32.156-16.382c-0.257-5.459,3.663-7.347,11.761-5.661l-4.56,2.914c-1.761,1.282-2.402,3.115-1.924,5.496
		l1.374-0.055c0.33-1.905,1.612-3.352,3.847-4.342c3.885-2.272,6.561-5.9,8.025-10.884c0,9.125-1.721,14.695-5.167,16.71
		c12.021,6.669,19.46,16.783,22.318,30.343c0.111,0.55,0.221,1.099,0.33,1.648c1.502,9.674-0.128,22.354-4.892,38.037
		c-0.477,1.502-0.972,3.061-1.485,4.674c0.625,1.685,1.229,3.005,1.815,3.956c2.235-4.727,3.866-9.05,4.892-12.972
		c8.173-30.05,2.639-51.944-16.601-65.687l2.089-10.224l11.598,0.495l-5.167,3.518c4.251-0.22,7.695-0.056,10.334,0.495
		c3.555,1.355,5.863,1.941,6.925,1.759c0.55,1.173-0.97,2.216-4.562,3.133c-2.162,0.549-3.701,1.411-4.617,2.584
		c8.684-0.734,16.29-0.146,22.812,1.758c3.408,1.319,5.698,1.887,6.872,1.704c-0.623,1.172-2.475,1.851-5.553,2.034
		c-2.895,0-4.563,0.293-5.003,0.88c-3.078,2.198-6.302,3.023-9.674,2.473c-0.843,0.806,1.081,1.393,5.771,1.76
		c2.933,0.073,5.187,0.677,6.762,1.813c-7.438,2.528-9.052,4.251-4.837,5.167c2.748,0.623,5.332,0.715,7.751,0.276
		c3.224-0.222,5.991,0.128,8.301,1.043c2.455,0.991,4.232,1.355,5.33,1.098c-1.721,1.943-5.388,2.877-10.994,2.804
		c-1.245,1.614-4.086,2.712-8.52,3.3c2.712,0.694,3.353,1.482,1.925,2.363c-3.115,0.915-2.053,2.216,3.188,3.901l10.829,0.167
		c2.271,0.621,4.544,1.666,6.815,3.132c-0.257,1.282-2.069,1.685-5.441,1.209c-2.639-0.184-4.894,0.037-6.762,0.66
		c-4.47,1.173-8.575,1.759-12.312,1.759c0.073,1.943,3.591,3.17,10.554,3.682c3.371,0.038,7.017,0.991,10.938,2.859
		c-0.623,1.392-2.491,1.85-5.608,1.375c-2.38-0.807-4.195-0.936-5.439-0.385c-2.787,1.759-5.314,2.346-7.586,1.759
		c-2.676-1.063-4.271-0.771-4.782,0.88c0.257,1.025,2.967,2.032,8.135,3.022l-9.729,1.924c0.402,1.539,2.087,2.547,5.057,3.023
		c5.351,0.989,9.418,2.474,12.203,4.452c-2.455-0.256-5.955-0.146-10.5,0.33c-3.26,0.805-6.411,0.824-9.453,0.055
		c-0.036,0-0.056,0.018-0.056,0.056c-1.466,1.062,0.971,2.492,7.311,4.286c1.687,0.22,3.629,1.393,5.827,3.519l-9.455,0.274
		c-2.381,0.038-5.037-0.531-7.97-1.704c-1.978,0.404-0.97,1.485,3.022,3.245c1.76,0.437,2.969,1.28,3.628,2.526
		c-7.657,1.393-11.323,4.692-10.994,9.896c0,0.073,0,0.165,0,0.276c1.687,3.406,8.777,8.426,21.273,15.062
		c2.126,0.989,4.344,1.94,6.651,2.856c6.67,2.564,14.053,4.636,22.153,6.212c0.072,0,0.182,0.019,0.329,0.056
		c5.827,1.392,10.958,4.123,15.392,8.19c4.472,4.618,8.446,7.64,11.928,9.072c0.184,0.034,0.365,0.072,0.55,0.107
		c5.058,1.209,8.886,0.531,11.488-2.033c4.288-5.168,4.177-12.99-0.329-23.471c-6.414-13.964-6.212-22.776,0.604-26.44
		c6.487-3.299,5.957-8.209-1.593-14.732c8.282,4.544,11.305,9.693,9.069,15.447C247.439,99.833,253.741,95.894,261.18,97.065z
		 M167.019,218.822c-9.71-8.575-16.123-17.591-19.238-27.045l21.273,0.386c0.037,9.855,5.479,19.549,16.325,29.076l1.374,9.729
		c-0.953,3.228-4.8,5.919-11.544,8.08c-3.591,4.583-7.073,8.98-10.444,13.193c1.687,1.392,2.273,3.849,1.76,7.365
		c-7.146,0.698-11.342,2.566-12.587,5.606c-2.017,0.332-4.508,0.386-7.476,0.167c-0.44,0.364-0.605,1.246-0.496,2.638
		c-0.953,0.11,1.485,0.475,7.311,1.1c-2.417,7.621-9.49,9.783-21.218,6.486c3.042-5.461,4.05-9.382,3.024-11.765
		c4.324-0.916,6.799-1.648,7.42-2.198c2.236-3.556,4.765-6.395,7.586-8.52c6.963-6.01,12.369-12.258,16.217-18.746L167.019,218.822z
		 M100.452,40.394c-0.037-0.367-0.128-0.752-0.274-1.155c-0.146-0.293-0.313-0.55-0.496-0.77c-1.428-1.758-4.341-1.466-8.738,0.88
		c1.246,0.109,2.29,0.513,3.132,1.209c1.466,1.832,3.189,2.455,5.167,1.869C100.122,41.987,100.525,41.309,100.452,40.394z
		 M35.369,96.405c1.648-2.71,3.537-3.883,5.662-3.517c0.441,0.293,1.759,0.019,3.958-0.824c1.869-1.027,3.83,1.319,5.882,7.036
		c4.176,6.595,9.729,11.983,16.654,16.16c-2.638,5.352-3.242,12.24-1.813,20.669c-3.626-0.514-7.419-1.978-11.379-4.397
		c-0.915-0.954-1.704-3.684-2.361-8.192c-3.41-8.721-7.019-13.98-10.831-15.774l-12.861,12.313c2.931,2.198,4.562,4.744,4.892,7.638
		c-3.005,1.759-5.112,4.418-6.321,7.972c-0.769,0.402-2.71,0.843-5.827,1.318c-0.257,0.295-0.274,0.991-0.056,2.089
		c1.32-0.292,3.921-0.201,7.807,0.276c0.257,4.472-1.375,7.438-4.892,8.903c-6.011,2.089-10.133,2.641-12.368,1.65
		c-0.404-1.796-0.238-4.506,0.495-8.134c0.146-1.137-1.631-1.942-5.333-2.419c5.57-0.623,8.556-3.774,8.96-9.455
		c-1.905-7.916-0.514-12.88,4.177-14.896C26.813,108.555,31.998,102.416,35.369,96.405z M69.89,54.521
		c-0.109,0.182-0.203,0.384-0.276,0.604c2.821-0.368,4.014-1.576,3.573-3.628c-0.805-2.676-2.509-3.298-5.112-1.869
		c2.419,0.696,2.823,2.547,1.209,5.553L69.89,54.521z"/>
</g>
</svg>
