<?xml version="1.0" encoding="utf-8"?>
<!-- Generated by IcoMoon.io -->
<!DOCTYPE svg PUBLIC "-//W3C//DTD SVG 1.1//EN" "http://www.w3.org/Graphics/SVG/1.1/DTD/svg11.dtd">
<svg version="1.1" xmlns="http://www.w3.org/2000/svg" xmlns:xlink="http://www.w3.org/1999/xlink" width="16" height="32" viewBox="0 0 16 32">
<g id="icomoon-ignore">
	<line stroke-width="1" x1="" y1="" x2="" y2="" stroke="#449FDB" opacity=""></line>
</g>
	<path d="M0.5 15.031q0-2.344 1.563-4.25 0.609-0.547 1.25-0.813v0.063q-2.125 1.656-2.125 4.5 0 2.734 2.75 4.938 1.125 1.328 1.688 2.375-0.063 0-0.063 0.063-0.766-0.281-3.313-2.938-0.453-0.672-0.625-1.125h-0.063v0.063q0 1.094 3.75 4.188 1.875 2.047 2 3.5h-0.063q-1.031-1.922-3.938-4-2.813-2.359-2.813-6.563zM0.563 10.094v-0.125q1.172-0.141 2.813-1.25 0.766-0.563 1.125-0.563v0.125q-0.688 0.328-2 1.375h-0.063v0.063h0.063q1.5-0.328 2.813-1.625v0.125q-1.656 1.938-3.813 1.938-0.625-0.063-0.938-0.063zM1.438 14.594v-0.375q0-2.797 2.188-3.875l0.438-0.063v-0.438q0.016-0.125 0.125-0.125 0.172 0.563 0.625 0.563v-0.063q-0.125-0.313-0.125-0.938h0.063l0.5 0.938q0.016 0.125 0.125 0.125 0-0.125 0.063-0.125-0.125-0.313-0.125-1.125v-0.25h0.063q0.109 0 0.313 1.063 0.094 0 0.25 0.563h0.063v-0.063l-0.063-0.625q0.063-0.969 0.188-1.375h0.125v0.313q0 0.141-0.063 0.25l0.063 0.125q0 0.063-0.063 0.063 0.234 1.656 0.875 2.563l-0.063 0.125q-1.641-1.313-2.625-1.313-1.313 0.188-1.313 1.313 0 1.359 1.875 2.125 0.625 0.25 1.938 0.313l0.875-0.125 0.063 0.125q-0.531 0.75-1.563 0.75h-0.25q-1.922 0-3.313-1.438v0.063q0.422 0.969 1.875 1.563 0.984 0.25 1.313 0.25h0.25q0.578 0 1.875-0.313v0.063q-0.969 1.125-1.75 1.125h-0.625q-1.625 0-2.688-1.375h-0.063v0.125q1.344 1.813 3.125 1.813v0.125h-0.063l-0.75 0.063v-0.063q-0.063 0-0.063 0.063-1.625 0-3-2l-0.188-0.5h-0.063v0.063q0.094 1.078 2.375 3.25 0.75 1.188 0.75 2h-0.125q-3.438-2.844-3.438-5.313zM2.063 8.469v-0.063q0.547-0.719 2.75-1.125v-0.063h-0.188q-0.375 0-1.188 0.125v-0.063q0-0.266 1.5-0.5 0.641 0 1.438 0.188l0.75-0.125 0.063 0.125q-0.875 1-3 1-0.719 0-2.125 0.5zM3.625 5.406l0.125-0.063q0.344 0.5 0.938 0.5h0.375l1.813-0.25q1.125 0 1.688 0.625v0.063q-1.859 0.5-2.188 0.5-0.547 0-0.938-0.313v-0.063h0.375q0.359 0 1.25-0.125v-0.063l-0.313-0.063h-0.5l-0.313 0.063v-0.063l-0.125 0.063h-0.813q-1.031 0-1.375-0.813zM4.375 12.406q0.109-0.438 0.25-0.438 0 0.063 0.063 0.063l-0.063 0.125v0.125q0 0.75 1 0.938 0.109-0.063 0.25-0.063v-0.063q-1.063-0.125-1.063-1.063 0.219-0.75 0.5-0.875h0.063v0.063q-0.188 0.578-0.188 0.688 0.109 0.75 0.75 0.75 0.922 0 2.688-2.313 0.594-0.625 1.688-0.625 0.797 0.203 0.813 0.375v0.063h-0.063q-0.344-0.188-0.688-0.188-0.938 0.125-0.938 0.313 0.531-0.063 0.813-0.063 0.531 0.094 1 0.563v0.063h-0.125q-0.375-0.25-0.75-0.25h-0.25q-0.625 0-1.313 0.563h0.063q0.563-0.188 0.938-0.188h0.25q0.875 0 1.563 0.875h-0.063q-0.844-0.5-1.25-0.5-2.063 0.172-2.063 1.5v0.188h-0.188l-0.063-0.25q-1.016 0.938-2.125 0.938-1.5 0-1.5-1.313zM6.625 9.406v-0.563q0-1.438 1.688-2.188l0.813-0.188q0.109 0.063 0.313 0.063v0.125q-1.375 0.406-1.938 1.375-0.438 0.813-0.438 1.875 0 0.5 0.313 1.313h-0.063q-0.688-0.906-0.688-1.813zM6.813 4.594v-0.063q0.625 0.688 4.688 1.5l1.063 0.563h0.063q-0.5-0.75-2.375-1.25-1.047 0-2.188-0.75h0.125q0.734 0.25 1.938 0.438h0.063v-0.063q-0.328 0-1.125-0.75h0.125q0.734 0.453 2.438 0.875 1.438 1.078 1.438 1.5h0.063q0.469-0.375 0.75-0.375-0.375 0.391-0.375 0.875 0 0.406 1.188 2.063 0 0.141 0.188 0.375v0.188q-2.047-2.609-3.5-3.063-2.344-0.578-3.563-1.125-1-0.766-1-0.938zM7.438 9.781v-0.125q0-1.922 2.063-2.688 0.359-0.125 1-0.125 1.078 0 2.063 1v0.063q-0.797-0.578-1.438-0.625h-0.563q-1.656 0-2.25 1.688v0.063h0.063q0.781-1.25 2.375-1.25 0.641 0 1.375 0.5v0.063q-0.656 0.641-0.875 1.375h-0.063q-0.766-0.25-0.938-0.25h-0.063q-1.5 0-2.375 1.438h-0.063q-0.25 0-0.313-1.125zM8.25 13.656q0-1.047 0.938-1.875l0.438-0.125h0.063v0.125q-0.672 0-1 1.75 0.125 0.625 0.125 0.75h0.125q0.063-0.594 1.688-1.938v-0.188l-0.125-0.063q-0.656 0-1.375 1v-0.125q0.578-1.25 1.5-1.25 0.625 0.172 0.625 0.375v0.125q-1.813 1.625-1.813 1.938l-0.063 0.438v0.063q0 0.672 0.438 1.063-0.063 0-0.063 0.063-1.5-0.688-1.5-2.125zM10.5 13.281v-0.125q2.25-0.313 2.25-0.625v0.125q-0.359 0.625-1.875 0.625h-0.375zM11.5 10.531v-0.125q0-1.359 1.375-2.188h0.063v0.125q-0.375 0-0.688 1 0 0.719 0.875 1h0.25q0.125-0.063 0.188-0.063l0.063 0.125q-0.266 0.25-0.625 0.25h-0.313q-0.203 0-0.688-0.188v0.438q0.625 0.031 0.625 0.125 0.078-0.047 0.875-0.125v0.063q-0.516 0.625-1.125 0.625v0.063q0 0.094 0.188 0.188 0.484 0 1.063-0.438l0.063 0.125q0 0.203-0.625 0.625v0.063h0.563q0.328 0 0.75-0.5h0.063q0 0.688-1.063 0.875h-0.5q-1.375-0.719-1.375-2.063zM12.563 9.469q0.078-0.813 0.688-0.813h0.125q0.469 0.078 0.5 0.25v0.063l-0.313-0.063h-0.25q-0.313 0.125-0.313 0.438v0.125q0 0.094 0.25 0.25h0.063l0.313-0.063v-0.25l-0.125 0.063h-0.125q-0.094 0-0.188-0.188 0-0.094 0.188-0.188h0.063q0.438 0 0.438 0.438t-0.688 0.563q-0.625-0.172-0.625-0.625zM14.188 11.219q0.125-0.375 0.25-0.375h0.063q0.578 0 0.75 0.813 0 0.094-0.188 0.188-0.344 0-0.5-0.313h0.063l0.375 0.063v-0.125q-0.203-0.375-0.5-0.375l-0.25 0.188q0-0.063-0.063-0.063zM14.25 10.719q0.563-0.813 1.063-0.813 0.094 0 0.25 0.25-0.234 0.5-0.625 0.5h-0.063l0.375-0.375q-0.125-0.063-0.188-0.063-0.25 0.109-0.75 0.5h-0.063z" fill="#000000"></path>
</svg>
