<?xml version="1.0" encoding="utf-8"?>
<!-- Generated by IcoMoon.io -->
<!DOCTYPE svg PUBLIC "-//W3C//DTD SVG 1.1//EN" "http://www.w3.org/Graphics/SVG/1.1/DTD/svg11.dtd">
<svg version="1.1" xmlns="http://www.w3.org/2000/svg" xmlns:xlink="http://www.w3.org/1999/xlink" width="25" height="32" viewBox="0 0 25 32">
<g id="icomoon-ignore">
	<line stroke-width="1" x1="" y1="" x2="" y2="" stroke="#449FDB" opacity=""></line>
</g>
	<path d="M0.5 24.906q0-2.266 1.625-3.25l0.063 0.125q-0.688 0.719-0.688 1.5v0.125q0.156 0.313 0.5 0.313 0.453 0 1.063-0.188v0.188q-0.063 0.203-1.438 0.813-0.813 0.828-0.813 1.063h-0.125q-0.188 0-0.188-0.688zM2.25 20.031v-0.938q0-0.5 0.063-1.188-0.063-0.125-0.063-0.188 0.516-4.141 1.688-6.188 0.75-1.469 0.75-2.063 0-0.563-1.5-1.5v-0.063q0-0.188 0.875-0.375h0.75q2.266 0.688 2.813 0.688 2.281-0.375 2.75-0.375 2.313 0.156 4.125 1.063 3.313 1.703 3.313 4.375-0.125 0.391-0.125 0.5 0.563 0.781 0.563 0.875v0.625q0 0.094-0.188 0.188h-0.375q-0.172 0-2.5-1.25-0.938-0.313-1.625-0.313h-0.563q-0.125 0-0.125-0.125 0.234-0.125 0.5-0.125h0.313q1.609 0 3.125 0.938h0.063q-0.969-1.063-1.25-1.313l0.125-0.063 1.438 1.313q0.438 0.25 0.625 0.25-0.484-1.313-1.438-1.313l-0.063-0.125 0.063-0.125q-0.938-0.125-1.188-0.125-1.203 0.063-2.125 0.063v-0.063q0-0.109 0.938-0.25l0.25-0.188q-0.313-0.563-0.313-0.875v-0.125h0.063q0.625 0.875 1.125 0.875h0.25q0.25-0.109 0.25-0.438-0.172-1.063-1.938-2.125-1.438-0.563-2.5-0.688h-1q-1.719 0-3.938 1.438-2 1.656-2.563 3.5-0.266 0-0.938 3.438-0.125 1.516-0.125 1.688v1.063q0 0.781 0.25 2.125h-0.063q-0.281-0.281-0.563-2.5zM3.125 23.219v-0.438q0-1.156 0.813-3.938 1.125-3.359 3.688-4.75 1.594-0.813 2.25-0.813h0.25v0.063q0 0.125-0.875 0.313l-1.375 0.813q-1.188 0.906-1.25 1.188h0.063l3.063-1.313q0.125 0.016 0.125 0.125-0.563 0.438-1.188 0.625v0.063q0.25 0 0.25 0.188-0.188 0.875-0.313 2v0.313h-0.188l-0.063-0.625v-0.375q0-1.047 0.25-1.5h-0.063q-2.719 1.188-3.875 3.563-0.828 1.547-1.375 4.25v0.25h-0.188zM3.125 19.281q0-3.094 2.625-6.438 2.188-2.375 5.313-2.375 1.703 0 2.375 0.688l-0.125 0.063q0-0.125-1.375-0.25-4.203 0-7.188 4.063-1.438 2.75-1.438 4.125-0.063 0-0.063 0.125h-0.125zM3.313 23.594q0-0.094 0.25-0.188l0.125 0.063q0.719 0 1.063-0.688v-0.313q-0.328-0.875-0.813-1v-0.188h0.25q0.922 0 2 2 0.125 0.234 0.125 0.5h-0.063q-0.75-0.313-1.063-0.313-1.234 0.438-1.375 0.438-0.344-0.109-0.5-0.313zM4.438 8.281q1 0.531 1 1.375v0.688h0.063q2.734-1.563 4.938-1.563h0.313q2.016 0.125 3.75 1.188 1.328 0.984 2 2.5 0.063 0.188 0.375 0.188l0.125-0.188v-0.188q0-0.938-2.563-2.75-2-1.063-4-1.063h-0.313q-1.641 0-3.563 0.938h-0.25q-0.875-1.188-1.563-1.188h-0.313v0.063zM5.625 19.281q0-1.141 1.688-2.375 0.234 0 0.813-0.5h0.063v0.188q0 0.109-0.813 0.813l-0.25 0.375v0.25q0.219 0.375 0.563 0.375h0.375l0.313-0.063 0.063 0.125v0.063q0 0.156-0.5 0.25h-0.875q-0.594 0-1.375 0.625zM8.688 18.656v-0.25h0.125l0.188 0.125h0.375q0.375 0 0.688-0.438v-0.5q-0.5-0.953-0.5-1.125l0.125-0.063q1.297 1.313 1.5 1.875 0.063 0.531 0.063 0.813-0.063 0.375-0.188 0.375-0.5-0.625-0.813-0.625-0.422 0.063-0.688 0.063h-0.438q-0.328 0-0.438-0.25zM8.688 18.031v-0.063q0.609-1.969 0.75-2l0.125 0.063q0 0.672-0.813 2h-0.063zM9.625 15.969q0.641-2.563 1.25-2.563 0.172-0.156 0.75-0.188v0.063q-1.125 0.906-1.125 1.688 0.063 0.125 0.063 0.188 0.547 0 1.563-1.313 0.609-0.5 0.75-0.5l0.063 0.125q-0.297 0.219-1.375 1.813-0.766 0.813-1.438 0.813h-0.375q-0.125 0-0.125-0.125zM12.188 7.844q1.625-1.406 1.625-1.875v-0.125q-0.094-0.563-0.875-1.688v-0.063q0-0.094 0.188-0.188h0.125q1.406 0.016 3.188 1.625 0.5 0.188 3 0.813 0 0.063 1.313 0.625 2.844 1.625 4.125 5.063 0 0.438 0.063 0.5-0.094 1.406-0.375 1.5-0.969-0.953-1.938-1.25v0.063q0.484 0.359 1.313 2.125 0.125 0.125 0.375 0.125l0.063-0.125q0-0.625-0.875-1.5l0.125-0.063q1.125 0.719 1.125 1.813-0.109 0.563-0.5 0.563-0.359 0-1-0.813-1.703-1.813-2.875-2.25-0.313-0.172-0.313-0.25v-0.125h0.063q2.172 0.938 3.125 1.938h0.063v-0.063q-0.234-0.625-0.813-1.313v-0.188q-1.016-0.25-2.063-0.438 0-0.109-0.313-0.125v-0.063l0.063-0.125 0.938 0.125q0.313-0.078 0.313-0.188l-0.063-0.125q0.141-0.563 0.25-0.563h0.125q0 0.063-0.063 0.188 0.141 0.563 0.313 0.563v-0.063q-0.063-0.125-0.063-0.188l0.188-0.125q0.078 0 0.313 0.313v0.063q0 0.125-0.125 0.125h-0.063l-0.188-0.125v0.125l0.5 0.188q0.375 0 0.375-0.625 0-1.172-1.938-2.938-1.641-1.438-4.438-1.438-1.844 0-3.625 0.875-0.75-0.141-0.75-0.313zM12.5 16.281q0.125-1.531 0.125-2l0.125-0.063q0.25 0.156 0.25 1.25h0.063q0.438 0 1.25-1.313h0.063q-0.094 1.031-1.125 2.188-0.391 0.313-0.625 0.313-0.125-0.203-0.125-0.375zM14 4.781q0.375 0.531 0.375 0.938v0.688q0 0.125-0.188 0.625l2-0.25h1q2.75 0.453 3.75 1.375 1.797 1.125 2.75 4 0 0.438 0.438 0.625l0.125-0.188v-0.375q0-2.031-3.625-4.688-2.406-1.125-3.875-1.125h-1.25q-0.125 0-0.375-0.813-0.719-0.875-1.125-0.875v0.063zM14.625 12.031q0.125-0.063 0.188-0.063 0.281 0.125 0.313 0.25v0.063q0 0.125-0.125 0.125-0.375 0-0.375-0.375zM14.75 8.781q0.406-0.375 1.625-0.375h0.625q2.594 0 4.313 2.125v0.188q-1.922-1.688-4.25-1.688-1.109 0.063-1.688 0.25zM17.688 11.656q0.422-0.375 0.625-0.375 0.172 0 0.625 0.188v0.188l-0.313-0.063q-0.313 0.094-0.313 0.438 0 0.438 0.438 0.438 0.438-0.266 1.313-0.375l0.063 0.125q-0.328 0-1.875 1.25h-0.188l-0.125-0.063 0.063-0.313q0-0.297-0.313-1.438zM19.063 14.844q0.016-0.797 0.75-2.25h0.063q0 0.063 0.063 0.063-0.188 0.641-0.313 1.438 0.188 0.063 0.188 0.125 0.688-0.297 1.313-0.813h0.063v0.188q-1.031 1.156-1.75 1.438h-0.25q-0.125 0-0.125-0.188z" fill="#000000"></path>
</svg>
