<?xml version="1.0" encoding="utf-8"?>
<!-- Generated by IcoMoon.io -->
<!DOCTYPE svg PUBLIC "-//W3C//DTD SVG 1.1//EN" "http://www.w3.org/Graphics/SVG/1.1/DTD/svg11.dtd">
<svg version="1.1" xmlns="http://www.w3.org/2000/svg" xmlns:xlink="http://www.w3.org/1999/xlink" width="17" height="32" viewBox="0 0 17 32">
<g id="icomoon-ignore">
	<line stroke-width="1" x1="" y1="" x2="" y2="" stroke="#449FDB" opacity=""></line>
</g>
	<path d="M1.174 28.376q0.773-1.545 1.545-1.545v0.172q-0.322 0-0.601 0.601h0.086l0.429-0.086v0.086l-0.429 0.687h0.086q0.859-0.687 1.374-0.687v0.086q-0.687 0.73-0.687 1.030l1.030-0.773q0 0.086 0.086 0.086-0.172 0.258-0.258 0.944h0.086q0.3-0.172 0.859-0.258v0.086q-0.708 0.601-1.374 1.374l-0.086-0.172v-0.859q-0.15 0-1.116 0.944h-0.086v-0.086q0-0.365 0.343-1.374-0.494 0.258-0.944 0.687h-0.086q0.258-0.966 0.258-1.116l-0.429 0.258q0-0.086-0.086-0.086zM1.689 23.053l0.172-0.086q0 0.343 0.258 0.343 0.107 0 0.944-0.773h0.086v0.086q-0.515 0.665-0.515 1.46l0.515 0.086h0.258q0.644 0 1.631-1.202h0.172q-0.343 0.365-0.429 0.773 0.086 0.172 0.086 0.258h-0.086q-0.172 0-0.172-0.258-0.3 0.086-0.429 0.601l0.172 0.515-0.172 0.086q-0.343-0.494-0.343-0.687-0.687 0.043-0.687 0.258v0.429h-0.172q0-0.601-0.944-0.944-0.343-0.451-0.343-0.944zM2.033 22.709v-0.172q0.794-2.919 1.288-2.919 1.502-0.816 2.146-1.288v0.086q0 0.15-2.146 1.803l-0.172 0.601v0.343l-0.429-0.086q0.086 0.515 0.086 0.773h-0.258q-0.215 0.859-0.343 0.859 0-0.086-0.086-0.086 0 0.086-0.086 0.086zM2.977 19.619v-0.172q0.429-1.009 0.944-1.374 0.172 0.215 0.258 0.859h-0.086l-0.258-0.172h-0.172zM3.321 26.916v-0.086q1.567-0.816 2.146-1.288 2.232-1.846 2.232-4.035v-0.172h0.172v0.086q0 1.116 0.601 1.116h0.258q-0.859 0.494-0.859 0.601h0.515v0.086q-0.987 0.579-1.030 0.773 0.601 0.086 0.601 0.258v0.086q-0.601 0-1.374 0.601v0.086q0.601 0.172 0.601 0.343-0.086 0-0.086 0.086l-0.172-0.086h-0.343q-0.665 0-0.773 0.343v0.429h-0.343q-0.515 0.043-0.515 0.258v0.429l-0.601-0.086-0.429 0.601q-0.258-0.429-0.601-0.429zM3.578 21.765v-0.172q0-0.129 0.343-0.343l0.601 0.086v0.172q-0.279 0-0.429 0.086v-0.172h-0.172v0.343h-0.343zM3.578 10.089q0-1.588 1.374-2.318h0.172v0.086q-0.515 0.859-0.687 2.232 0 1.266 0.773 2.662l-0.172 0.086q-1.46-1.438-1.46-2.747zM3.664 20.649v-0.172q2.318-1.052 2.318-1.975l0.258-0.172q0.687 0.537 0.687 1.545-0.086 0.15-0.086 0.343v0.343h-0.172q-0.086-1.46-0.429-1.46-0.773 0.429-0.773 1.030v0.429q0 0.3 0.944 0.429 0.129 0 1.030-0.258h0.086v0.086l-0.687 1.030h0.086l0.343-0.172 0.086 0.172q-0.129 0-0.343 0.687l0.172 0.515q-0.3 0.687-0.429 0.687h-0.086q-0.129 0-0.343-0.343 0.343-0.129 0.343-0.258-1.288-0.429-1.288-0.515v-0.086l0.859-0.086v-0.086q-0.751-0.086-0.944-0.086-0.644 0-1.545 0.343v-0.086q1.245-1.030 2.146-1.030v-0.086q-0.837-0.322-1.717-0.429l-0.172 0.086h-0.258q0-0.3 1.116-0.515v-0.086h-0.515q-0.365 0-0.687 0.172zM4.093 28.547q0.451-0.515 1.116-0.687v-0.086q-0.215 0-0.773-0.172v-0.172h0.086q0.73 0 1.545-0.258v-0.172q-0.472 0-0.687-0.343v-0.086h0.687q0.258 0 1.030-0.258v-0.086q-0.107 0-0.859-0.343v-0.172h0.773q0.773 0 1.202-0.601l-0.601-0.086h-0.515v-0.172q1.502-0.258 1.889-0.601-0.429 0-1.030-0.515v-0.086l0.515 0.086q0.944-0.086 0.944-0.343v-0.086q-0.236 0-0.859-0.258v-0.172h0.086q0.086 0 0.258 0.086 0.901 0 1.288-0.687v-0.343l-0.601-0.172-1.202 0.343h-0.086q0.236-0.537 2.662-1.717 0-0.172 0.086-0.172-0.129-0.429-0.601-0.429h-0.086q-0.558 0-2.146 0.773 0-0.644 2.662-1.374 0.343 0 0.601-0.429 0-0.494-0.601-0.601-0.966 0.086-1.803 0.429v-0.086q0.944-0.773 1.803-0.773 1.202 0.086 1.202 1.202 0 1.61-2.919 5.752-3.499 3.778-4.293 3.778zM4.437 25.371v-0.172l0.086-0.601h0.172q0.021 0.515 0.172 0.515 0.343-0.129 0.343-0.258v-0.429h0.086q0.279 0.172 0.429 0.172l0.258-0.343v-0.343q0-0.15-0.773-0.687v-0.086h0.086q0.944 0 1.202 1.030-0.579 0.816-1.717 1.374h-0.172q-0.172 0-0.172-0.172zM4.78 15.927q0-1.009 1.374-1.288v0.172q-0.258 0-0.258 0.172l0.429 0.515v0.086q-0.429-0.258-0.687-0.258l-0.258 0.343 0.773 0.859h-0.172l-0.258-0.172h-0.258q-0.172 0-0.258 0.687 0.172 0.386 0.172 0.773-0.601-0.773-0.601-1.889zM4.78 3.564q0-0.408 2.49-0.687 2.189-1.374 3.434-1.374l0.944 0.172v-0.086q-0.215-0.365-0.601-0.515 0 0.429-0.172 0.429 0-0.258-0.343-0.429l-0.343 0.343q0-0.129-0.258-0.258l-0.343 0.429q-0.172 0-0.172-0.258-0.172 0-0.172 0.429h-0.172l-0.258-0.172q0 0.343-0.515 0.429 0 0.193-0.515 0.258 0 0.129-1.374 0.687v-0.086q2.747-1.975 4.035-1.975h0.515q2.018 0 2.49 1.803v0.429q0 1.953-5.065 4.379-1.288 0.966-1.288 2.232 0.515 2.576 1.46 2.576l0.086-0.172v-0.429q-0.15-0.923-0.687-2.146h0.172q1.395 3.434 1.975 3.434 0.15 0.086 0.343 0.086h0.172q0.172 0 0.343-0.515 0-0.901-1.717-2.576h0.172q0.451 0.236 2.146 1.717h0.258q0-0.086 0.086-0.258 0-0.987-2.232-2.232l-0.429-0.086v-0.172l1.803 0.429v-0.086q-1.052-1.116-1.975-1.116v-0.172q2.34 0 3.348 3.005v0.343q-0.429 2.232-2.060 2.232h-0.343q-2.318 0-3.348-2.919-0.086-0.73-0.086-1.202 0-1.76 3.177-3.091v-0.086h-0.343v-0.172q0.129 0 1.374-0.258v-0.172h-0.172v-0.172q1.030-0.129 1.030-0.343-0.129 0-0.258-0.258l1.202-0.343v-0.086q-0.258 0-0.258-0.172t0.601-0.258v-0.086l-0.258-0.343v-0.086l0.601-0.172v-0.086q-0.343 0-0.343-0.172l0.343-0.429q-0.279 0-0.429-0.086 0.172-0.279 0.172-0.429l-0.172 0.086q-0.172 0-0.172-0.172h0.086q-0.107-0.515-0.258-0.515 0 0.343-0.172 0.343-0.215-0.558-0.429-0.601l-0.172 0.429q0.944 0.365 0.944 1.030v0.343q0 1.674-5.151 3.348h-0.086q0.107-0.15 2.576-1.202 2.318-1.395 2.318-2.49-0.408-1.030-1.631-1.030-1.481 0-4.379 2.146-0.558 0.172-0.773 0.172h-0.515q-0.258-0.086-0.258-0.515zM4.866 10.432v-0.086q0-2.511 1.889-3.606h0.172q-0.515 0.773-0.515 1.202h-0.086q-0.172 0-0.172-0.343h-0.086q-0.172 0.773-0.172 1.116v0.086l0.086 1.030h-0.086q-0.515-0.386-0.515-0.944h-0.086v0.429q0 1.631 2.060 3.606h-0.086q-0.386 0-1.803-1.030 1.46 2.060 3.949 2.747 0.086 0 0.086 0.086l-0.172 0.086q-1.181 0-2.833-0.773v0.086q1.009 1.91 2.919 2.833v0.172q-1.717-0.601-2.49-1.030v0.086q0.236 0.837 2.060 2.919h-0.086q-1.009-0.601-2.060-1.975h-0.086v0.086q0.601 1.803 0.601 2.662h-0.172q0-1.030-1.202-2.232 0.515-0.837 0.515-1.717v-0.172q0-1.009-1.46-4.207-0.172-0.773-0.172-1.116zM8.558 15.498v-0.172h0.086q1.696 0 2.919-0.859v-0.086q-2.146 0-2.146-0.429h0.515q0.558 0 1.803-0.429 0.343 0.687 0.343 1.631v1.116q0 0.386-0.172 1.374l-0.859-0.086h-0.258q-0.773 0-1.889 0.601v-0.086q1.009-0.923 2.49-1.288v-0.086q-0.708 0-1.717-0.172v-0.172h0.258q0.837 0 1.545-0.687h-1.374q-0.687 0-1.545-0.172zM9.416 7.685v-0.172h0.086q1.953 0 4.035 2.662 0.15 0.086 0.343 0.086 0.343-0.064 0.343-0.601h0.172v0.172q-0.107 0.987-0.515 1.030v0.086h0.086q0.665-0.343 0.773-0.429v0.172q-0.429 0.859-0.859 0.859l0.086 0.172 0.859-0.172v0.086q-0.408 0.601-1.116 0.601v0.086l0.429 0.086h0.429v0.172q-0.901 0.258-1.374 0.258h-0.086l-0.601-0.086v-0.086q0.258-0.816 0.258-1.288v-0.172q0-2.404-3.177-3.52h-0.172zM10.275 23.825q0.859-1.288 1.288-2.232h0.172q0.966 0.773 1.631 0.773v0.172l-0.429 0.086h-0.944q0 0.472 1.202 0.859v0.172h-0.258q-0.193 0-0.343 0.086l-1.030-0.258q0.601 0.773 0.859 0.773v0.172q-0.579 0-1.545-0.601v0.086q0 0.107 0.343 0.601l-0.172 0.086q-0.773-0.687-0.773-0.773z" fill="#000000"></path>
</svg>
