<?xml version="1.0" encoding="utf-8"?>
<!-- Generated by IcoMoon.io -->
<!DOCTYPE svg PUBLIC "-//W3C//DTD SVG 1.1//EN" "http://www.w3.org/Graphics/SVG/1.1/DTD/svg11.dtd">
<svg version="1.1" xmlns="http://www.w3.org/2000/svg" xmlns:xlink="http://www.w3.org/1999/xlink" width="18" height="32" viewBox="0 0 18 32">
<g id="icomoon-ignore">
	<line stroke-width="1" x1="" y1="" x2="" y2="" stroke="#449FDB" opacity=""></line>
</g>
	<path d="M0.5 8.281l0.125-0.063q1.047 0.719 1.063 0.938 0.359 0.641 1.188 1.625v0.063q0.109 0 0.438-0.375 0.063 0.109 0.063 0.25h0.063q0-0.625 0.188-0.625 0.078 0.375 0.188 0.375v-0.063l-0.063-0.125q0.125-0.281 0.25-0.313h0.063q0.125 0 0.125 0.188h0.063q0-0.188 0.125-0.188t0.125 0.375h0.063q0.016-0.313 0.188-0.313h0.063q0.125 0.016 0.125 0.125-0.063 0.125-0.063 0.188l0.25-0.188h0.063q0.125 0.016 0.125 0.125l-0.188 0.25v0.063h0.063q0.031-0.25 0.188-0.25h0.188q0.125 0.016 0.125 0.125v0.063q-0.188 0-0.188 0.188h0.063q0.016-0.125 0.125-0.125h0.188q0.125 0.016 0.125 0.125v0.063q-0.25 0.031-0.25 0.188v0.063l0.25-0.188q0.375 0.031 0.375 0.188l-0.063 0.125q0.203 0 0.313 0.063h0.063v-0.063q-0.125 0-0.5-0.5 0-0.219 0.688-0.313 0.391 0.125 0.438 0.313-0.281 0.125-0.563 0.125v0.063q0.969 0 1.25 0.438v0.063q-0.063 0-0.063 0.063-0.563-0.047-0.563-0.125l-0.125 0.063h-0.438l-0.125-0.063-0.125 0.188q0.281 0 0.375 0.063 0-0.125 0.188-0.125 0.906 0 1.25 0.563l-0.125 0.063q-0.422-0.188-0.688-0.188h-0.375l-0.313 0.063v0.063q0.5 0.016 0.5 0.5 0.266 0.141 0.375 0.5 0.328 0 0.813 1.125h0.063q0-0.188 0.313-0.188v-0.063q-0.547 0-0.938-0.938-0.141 0-0.688-0.813v-0.063q0-0.125 0.188-0.125 1.375 0.344 1.375 0.938l-0.125 0.063q-0.344-0.25-0.625-0.25h-0.063v0.063q1.125 0.281 1.125 1.125-0.125 0.063-0.188 0.063 0.016 0.125 0.125 0.125l-0.125 0.563h-0.063q-0.125 0-0.25-0.438h-0.063v0.063q0.125 0.25 0.125 0.375h-0.125l-0.125-0.063q0 0.063-0.063 0.188 0.375 0 0.5 0.375-0.25 0.594-0.25 1.188 0.125 0 0.125 0.375h0.063q0-0.375 0.438-0.375v0.063q0 0.328-0.25 0.438h-0.125l-0.125-0.063v0.188h0.063q0.109 0 0.563-0.188 0 0.063 0.063 0.063-0.156 0.375-0.375 0.375v0.063l0.125 0.188q-0.453 0.375-1.125 0.375 0-0.063-0.063-0.063 0.563-1.141 0.563-1.375l-0.125 0.063h-0.813q-0.438 0-1.375 0.063-0.219-1.109-1.5-2.5-0.594-0.531-2.313-1.688l-0.188-0.25q0.016-0.125 0.125-0.125 1.844 0.422 3.313 1.813 1.063 1.047 1.625 1.25h0.063v-0.063q-0.359 0-2.5-2.063v-0.063h0.063q0.359 0 1.625 1v-0.063q-1.188-1.125-2.188-1.125-0.25-0.188-0.25-0.25l0.125-0.25h-0.188v0.25h-0.063q-0.547 0-0.625-0.688-0.234 0.188-0.438 0.188-2.5-2.547-2.5-3.563zM0.938 7.406l0.125-0.063 0.688 0.625v-0.063q-0.266-0.453-0.563-1.688h0.125q0.906 0.516 1.438 2.25 0.75 1.531 0.75 1.625l-0.25 0.188q-0.953-0.953-1.375-2.125h-0.063v0.063q0.281 0.781 1.313 2.125v0.063q0 0.125-0.125 0.125h-0.125q-1.422-1.469-1.938-3.125zM2.188 6.344v-0.125q0.016-0.125 0.125-0.125 0.656 0.5 1.25 2.875 0.125 0.047 0.313 0.625h0.063v-0.125q-0.688-1.5-1-3-0.063 0-0.125-0.188l0.125-0.063q0.781 0.703 1.25 1.563l-0.063 0.313v0.438q0 0.438 0.125 1.188l-0.125 0.063q0-0.125-0.125-0.125 0 0.25-0.375 0.25h-0.125q-0.891-1.734-1.313-3.563zM3.438 11.531l0.313-0.063q0 0.094 0.188 0.188 0-0.188 0.25-0.188l-0.063-0.125-0.125 0.063h-0.125q-0.125 0-0.125-0.125v-0.313h-0.125l0.063 0.313q-0.156 0.125-0.25 0.125v0.125zM3.563 18.469q0.594-1.375 1-1.375 0.063 0.125 0.063 0.188 0.313-0.125 0.75-0.5h0.063q0 0.188 0.063 0.188 0.234 0 0.438-0.438h0.188v0.25l-0.063 0.125q0.313 0 0.313 0.125l-0.125 0.188v0.063h0.188q0-0.094 0.125-0.25-0.375-0.25-0.375-0.313 0.578-0.25 1.813-0.25h0.25q0.125 0.016 0.125 0.125-0.313 1.188-0.563 1.188h-0.563q-0.344-0.328-0.625-0.438h-0.063v0.063q0.25 0 0.438 0.313 0 0.188-0.25 0.188 0.313 0.406 0.313 0.625-0.016 0.063-0.625 0.063v0.063q0.188 0 0.313 0.25v0.063q-0.406-0.125-0.563-0.125-0.047 0-0.5 0.063v0.063q1.016 0 1.063 0.25-1.406 0-2 1.125 0 0.063-0.125 0.063 0.125 0.203 0.125 0.375h-0.313q-0.406 0-0.875-2.313zM3.813 22.031v-0.188q0-0.094 0.25-0.25h0.188q0.094 0 0.188 0.188l0.313-0.063q0.25 0.125 0.25 0.313 0.031 0 0.25-0.063 0.594 0.375 0.75 0.375 0.391-0.141 1.125-1v-0.063q-0.313 0-0.313-0.063 0.563-0.906 0.563-1h0.188v0.125h0.063v-0.188l-0.813-1.063 0.125-0.063q0.516 0 1.063 1.375l1.125 1.125q-0.266 0.484-0.813 0.938h-0.188v-0.125h-0.063l-0.625 0.375q-0.125 0-0.125-0.188-0.938 0.297-0.938 0.688l0.688 0.75v0.063l-0.25 0.25v0.063h0.063v-0.125h0.125l0.188 0.125q-0.109 0.688-0.5 0.688v-0.063q0.125-0.234 0.125-0.5-0.25-0.078-0.563-0.625-0.375 0-1.875-1.438 0.063-0.125 0.063-0.188h0.188l0.5 0.313v0.063h0.063v-0.25q-0.391 0-0.625-0.25l-0.188 0.125q-0.063-0.188-0.375-0.188 0 0.125-0.125 0.125zM3.813 10.844q0.438-0.078 0.438-0.188v-0.063l-0.188 0.125h-0.063l-0.188-0.125v0.25zM4.188 19.344h0.313q0.109 0 0.563-0.188 0.016 0.125 0.125 0.125 0-0.172 0.313-0.188v-0.063q-0.484 0-0.563-0.25 0.094 0 0.188-0.188h-0.25q0 0.125-0.188 0.625l-0.313-0.063h-0.063q-0.125 0.016-0.125 0.125v0.063zM4.25 18.344q0.703-0.563 1.313-0.563l-0.313-0.25q0.063 0 0.063-0.063h-0.125l-0.563 0.375h-0.063l-0.125-0.063q-0.188 0.234-0.188 0.438v0.125zM4.25 8.594q0.063-0.719 0.063-1.375v-0.438h0.125q0.281 0.109 0.563 0.875-0.125 0.625-0.125 1.25v0.938q0 0.125-0.125 0.125-0.5 0-0.5-1.375zM4.375 11.531q0.063 0.125 0.063 0.188h0.063q0-0.156 0.125-0.313 0-0.125-0.125-0.125zM4.438 12.156h0.313v-0.063q-0.141 0-0.25-0.063zM4.438 11.094h0.063q0-0.156 0.063-0.5h-0.125v0.5zM4.688 10.719q0.063 0.109 0.063 0.313h0.063q0-0.188 0.313-0.188v-0.125q-0.234 0-0.375-0.125 0 0.125-0.063 0.125zM4.75 11.469q0.125 0 0.313 0.25l0.063-0.313q-0.203 0-0.313-0.063zM4.938 12.219l0.75 0.188-0.125-0.188v-0.188q0-0.094 0.375-0.188 0-0.094 0.188-0.188-0.063-0.109-0.063-0.313l-0.125 0.063q-0.25-0.125-0.25-0.313h-0.063v0.063q0.063 0.109 0.063 0.25-0.063 0-0.063 0.063h0.063q0.125-0.063 0.188-0.063l0.125 0.188q-0.063 0.125-0.063 0.188h-0.188q-0.125 0-0.125-0.25h-0.063q0 0.688-0.25 0.688l-0.313-0.188-0.063 0.125v0.063zM4.938 9.094q0.078-1.531 0.375-1.625 0.25 0.578 0.25 1.063v0.438l-0.063 0.375v0.063h0.063q0.078-0.438 0.625-0.875h0.063q-0.078 0.875-0.188 0.875l0.063 0.125q-0.188 0.281-0.188 0.5 0.469-0.313 0.688-0.313l0.063 0.125q-0.438 0.75-0.688 0.75 0-0.109-0.563-0.5v-0.313h-0.063q0 0.313-0.125 0.313h-0.063q-0.203 0-0.25-1zM5.25 11.031l0.063 0.125q0.125-0.063 0.188-0.063-0.063-0.109-0.063-0.25-0.125 0.063-0.188 0.063v0.125zM5.438 18.344q0.391-0.125 0.625-0.125v-0.063h-0.625v0.188zM5.813 12.531l0.25 0.063q0-0.125-0.188-0.125h-0.063v0.063zM6 12.156q0.438 0.172 0.438 0.5l0.313-0.063q0.25 0.125 0.25 0.375l-0.125 0.063h-0.063l-0.188-0.125h-0.125q0 0.094 0.875 0.813v-0.063q-0.063-0.109-0.063-0.25h0.313v-0.063q-0.109 0-0.313-0.125v0.188q-0.328 0-0.375-0.188v-0.188h0.125l0.188 0.125q0-0.172 0.313-0.188v-0.063q-0.563 0-0.563-0.313v-0.063q0.063 0 0.063-0.063-0.313 0-0.438-0.438l-0.25-0.188h-0.063q0 0.25-0.125 0.25h-0.063l-0.125-0.063v0.125zM6.313 12.156l0.125-0.063q0.094 0 0.25 0.25 0 0.125-0.125 0.125h-0.063q-0.141 0-0.188-0.313zM6.875 18.781l0.125-0.063h0.313v-0.063q-0.313-0.578-0.313-0.688 0.313-0.125 0.438-0.125 0.844 0 1.375 0.625l-0.125 0.063q-0.109-0.063-0.25-0.063l1.125 1.188v0.063h-0.188q-0.859-0.688-1.375-0.688l0.75 1.125q-0.063 0-0.063 0.063-0.563-0.391-1.813-1.438zM7.313 14.531q0.094 0 0.5 0.313 0-0.063 0.063-0.188l0.125 0.063h0.313v-0.063q-0.125 0-0.375-0.25 0 0.188-0.125 0.188-0.188 0-0.5-0.188v0.125zM7.375 23.344v-0.25l0.5-0.438h0.188q0.438 0 0.438 0.375l0.125-0.063h0.125q0.625 0.547 1 0.563v0.188h0.125q0.125 0 0.125-0.125v-0.063l-0.125 0.063h-0.063v-0.063q0.25-0.438 0.375-1.563-0.563-1.234-0.563-1.5v-0.063q0-0.594 0.813-0.625 0.703 0 1.188 1.313v0.125h-0.063q-0.203-0.125-0.313-0.125 0.375 0.656 0.5 1.688-0.078 0.438-0.188 0.438-0.125-0.375-0.25-0.375-0.141 1.063-0.375 1.063-0.063-0.063-0.063-0.5l-0.438 0.563h-0.063v-0.063l-0.063-0.625q-0.094 0-0.25 0.25 0.094 0 0.188 0.188v0.188q0 0.063-0.438 0.375 0.094 0.328 0.75 0.625 0.063 0.125 0.063 0.188t-0.063 0.063l0.063 0.313v0.125q0 0.109-0.188 0.5h-0.188q0.063-0.344 0.063-0.5 0-0.125-0.5-0.375 0-0.141-0.625-0.563-0.375-0.609-0.938-1.188v-0.25h-0.063q0 0.25-0.125 0.25-0.234-0.188-0.563-0.188v0.063h-0.125zM7.563 15.094q0.406 0.125 0.563 0.125h0.063q-0.188-0.203-0.188-0.313h-0.063q0 0.188-0.188 0.188l-0.125-0.063h-0.063v0.063zM7.938 20.031v-0.188h0.063q0.703 0.625 0.938 0.625v-0.063q-0.406-1-0.625-1v-0.063q0.016-0.125 0.125-0.125 0.375 0.188 1.188 0.875-0.125 0.25-0.125 0.438 0.188 0.594 0.438 1.063l-0.125 0.063q-1.25-0.438-1.875-1.625zM8.375 17.906l1.063-0.313q0.359 0.266 1 0.375 0.172 0.734 0.875 1.5 0.016-0.125 0.125-0.125l0.938 0.25q-0.125-0.109-0.188-0.875h-0.063q0 0.688-0.188 0.688-1.313-0.453-1.313-1.375v-0.188q0.594 0.813 0.938 0.813h0.125v-0.063q-0.875-0.281-0.875-0.875l0.125-0.188-0.063-0.125q0.125-0.313 0.563-0.313v-0.063q-0.281 0-0.375-0.063 0.047-0.375 0.25-0.375l0.125 0.063q0.25-0.063 0.438-0.188l0.063 0.125q-0.141 0.375-0.438 0.375v0.063h0.125l0.25-0.125q0.063 0.125 0.063 0.188h0.125l-0.063-0.313v-0.063q0.047-0.375 0.188-0.375 0.875 0.859 1.813 1.188 0.25 0.188 0.25 0.25v0.375q0 0.094-0.188 0.188h-0.063q-0.609 0-2-1.125v-0.063h-0.063q0 0.313-0.188 0.313l0.063 0.125v0.063q0 0.094-0.25 0.25h-0.25l-0.313-0.188v0.125q0.297 0.109 0.813 0.188 0.078 0.453 0.25 0.625 0.125-0.063 0.188-0.063-0.297-0.234-0.438-0.75 0.063-0.438 0.188-0.438 1.094 0.781 2 1.25v0.313q0 0.094-0.25 0.25h-0.25q-0.281 0-1-0.5h-0.063q0.266 0.328 1.25 0.813l0.063 0.125q0 0.438-0.438 0.438-0.078 0-0.5-0.188h-0.063v0.063q1.688 1.313 3.188 3.313l0.125 0.25-0.125 0.063q-1.063-1.188-1.125-1.188v0.063q1 1.031 1 1.375-0.266 0-0.625-0.313 0 0.313-0.125 0.313-0.5-0.391-0.5-0.563h-0.063v0.063q0.375 0.641 0.375 0.875l-0.125 0.063q-0.969-0.891-1.75-2.75h-0.125q1.313 2.344 1.313 2.75 0 0.125-0.125 0.125-0.625-0.563-1.25-2.25h-0.063v0.063q0.063 0.422 0.063 0.688v0.188q0 0.125-0.125 0.125-0.375-0.813-0.5-0.813h-0.063q0 0.563-0.188 0.563-0.188-0.859-0.438-1.563 0.188-0.125 0.5-0.125v-0.063q-0.25 0-0.563-0.813-0.578-0.75-1.188-0.75-0.313 0.125-0.5 0.125 0-0.094-0.875-1.063 0.125-0.063 0.188-0.063 0.203 0 0.563 0.25h0.063v-0.063zM8.438 23.469h0.313v-0.063h-0.313v0.063zM8.75 16.094v-0.125q0-0.172 0.313-0.188v-0.125q-0.188 0-0.188-0.125 0.078-0.313 0.188-0.313h0.063q0.125 0.016 0.125 0.125v0.125l-0.125 0.188h0.063q0.594-0.063 0.688-0.125-0.094-0.25-0.188-0.25 0.063-0.125 0.063-0.188-0.125-0.203-0.125-0.313h0.375v-0.063q-0.094 0-0.25-0.125-0.25 0.281-0.25 0.313 0.125 0.016 0.125 0.125v0.188q0 0.094-0.25 0.25h-0.063q0-0.297-0.313-0.438 0.484-2.375 0.688-2.375l0.5 0.438-0.313 0.813q0 0.125-0.188 0.125 0.094 0.25 0.188 0.25 0.094-0.406 0.25-0.5l-0.063-0.125q0.016-0.125 0.125-0.125h0.313q0.094 0 0.188 0.25-0.109 0.375-0.563 0.375v0.063q0.188 0 0.188 0.25h0.125v-0.063l-0.063-0.125 0.125-0.063q0.125 0 0.125 0.313l0.25-0.438q0.156 0 0.938-0.375l0.063 0.125v0.063q-0.563 0.75-1.25 0.75 0-0.063-0.063-0.063 0 0.125-0.125 0.125h-0.063v-0.188q-0.203 0.188-0.313 0.188 0.25 0.313 0.25 0.438h0.125q0-0.375 0.313-0.375 0.469-0.109 0.875-0.438 0.063 0.109 0.063 0.25h0.063q0-0.156 0.125-0.313-0.125 0-0.125-0.125 0-0.25 1.188-0.375v0.125q0 0.375-1 0.375v0.063h0.625v0.125q0 0.094-0.188 0.188l0.063 0.125v0.125q-0.25 0.375-0.625 0.375h-0.125l-0.125-0.063q-0.156 0.563-0.875 0.563-0.438-0.094-0.438-0.25 0-0.109 1.063-0.313 0.375-0.25 0.375-0.313v-0.125h-0.063q-0.688 0.563-1.188 0.563 0-0.125-0.125-0.125-0.25 0.281-0.25 0.313v0.25l0.625 0.063h0.063q0.203 0 0.688-0.188 0 0.063 0.063 0.063-0.219 0.5-0.813 0.5h-0.063q-0.453 0-0.5-0.375h-0.125l-0.313 0.25h-0.063q-0.125 0-0.125-0.375h-0.063q0 0.422-0.25 0.5h-0.313q-0.125 0-0.125-0.125zM9.375 17.094l0.188-0.125h0.125q0.344 0.313 0.75 0.313h0.188l0.125-0.063q0.063 0.125 0.063 0.188-0.156 0.375-0.563 0.375-0.719 0-0.875-0.688zM9.375 16.531q0.203-0.438 0.5-0.438l0.063 0.125q-0.063 0.109-0.063 0.25 0.516 0.313 0.938 0.313 0.125-0.063 0.188-0.063l0.063 0.125q-0.281 0.375-0.75 0.375-0.422-0.141-0.625-0.438v-0.063l0.125-0.188v-0.063h-0.063q0 0.188-0.313 0.188zM9.688 12.344q0.469-1.313 1.313-1.313v0.063l0.125-0.063h0.125q0.188 0 0.188 0.25l0.125-0.063-0.063-0.125v-0.063q0.125-0.156 0.125-0.25v-0.063h-0.063l-0.063 0.25h-0.25q-0.125 0-0.125-0.125 0.547-0.5 0.813-0.5h0.188q0.188 0 0.188 0.375l0.125-0.063h0.063q0.094 0 0.25 0.25-0.797 1.188-1.563 1.188l-0.063-0.438q-0.453 0.016-1 0.438-0.156 0.125-0.25 0.125v0.125q0.234-0.188 0.438-0.188h0.063q0.125 0.016 0.125 0.125v0.188q0 0.109-0.438 0.375-0.125 0-0.313-0.5h-0.063zM10 16.344v-0.188q0.016-0.125 0.125-0.125 0 0.078 0.313 0.25h0.313q0.75 0 0.75-0.313 0-0.094 0.5-0.25l0.063 0.125-0.188 0.25q0.063 0.125 0.063 0.188-0.266 0.25-0.5 0.25l-0.188-0.125q-0.094 0.25-0.438 0.25h-0.438q-0.375-0.219-0.375-0.313zM10.25 13.406q0-0.141 0.063-0.25-0.063-0.109-0.063-0.25 0.109-0.25 0.438-0.25h0.125q0.125 0 0.125 0.375l1.375-0.75q0.016-0.125 0.125-0.125l0.063 0.125v0.125q0 0.391-1.625 1l-0.063-0.125q-0.234 0.125-0.5 0.125h-0.063zM10.438 12.094v-0.063q0.047-0.188 0.5-0.188 0.094 0 0.188 0.188-0.109 0.281-0.375 0.438h-0.188v-0.063l0.063-0.125q-0.094 0-0.188-0.188zM10.688 13.969q0-0.625 0.75-0.625 0.406-0.188 0.563-0.313 0.125 0.016 0.125 0.125 0 0.453-1.375 0.875 0-0.063-0.063-0.063zM10.875 11.344q0.313 0.188 0.313 0.313 1-0.422 1-0.688v-0.063h-0.063q0 0.188-0.625 0.563-0.391-0.031-0.625-0.25v0.125zM10.938 12.594v-0.063q0-0.141 1.313-0.813 0-0.047 0.5-0.5l0.125 0.188q0 0.656-1.688 1.313h-0.125q-0.125 0-0.125-0.125zM11.313 19.531q1 1.484 1 1.813-0.125 0.016-0.125 0.125 0.109 0 0.313 0.125v-0.063q0-0.469-1.125-2h-0.063zM11.313 17.531l0.313 0.063q0-0.125-0.188-0.125h-0.125v0.063zM11.563 15.594q0-0.156 0.688-0.375l0.063 0.125q-0.219 0.375-0.563 0.375h-0.063q-0.125 0-0.125-0.125zM11.75 14.844l0.063 0.125q0.375-0.078 0.375-0.188-0.25 0.063-0.438 0.063zM11.875 10.156q0.313-0.563 0.813-0.563h0.188q0.125 0.016 0.125 0.125 0 0.359-0.625 0.75h-0.063q0-0.219-0.438-0.313zM11.938 13.719v-0.125q0-0.25 1.313-0.438v0.063q0 0.422-1.25 0.625zM11.938 5.781h0.063q1.5 0.516 1.5 2.5 0 1.313-0.5 1.313l-0.25-0.125q-0.313 0.125-0.438 0.125 0-0.063-0.063-0.063 0.375-0.859 0.375-1.625 0-1.094-0.688-2.125zM12.125 16.031q0.172-0.484 0.375-0.563 0.5 0.578 1.938 1.313l0.063 0.125q0 0.328-0.188 0.375h-0.375q-1.516-0.609-1.813-1.25zM12.25 13.219v-0.25q0-0.109 0.938-0.25l0.063 0.125q0 0.313-1 0.375zM12.438 15.156q0.078-0.313 0.188-0.313 0.969 0.781 2.188 1.438l0.063 0.125v0.063q0 0.125-0.125 0.125h-0.313q-1.109-0.406-2-1.438zM12.438 12.594l0.313-0.313h0.813v0.063q-0.266 0.375-1 0.375-0.125 0-0.125-0.125zM12.5 20.719q0.047 0.344 0.5 0.5 0 0.156 1.188 1.688v-0.063q-0.766-1.297-1.688-2.188v0.063zM12.563 10.531v-0.063q0.641-0.813 0.938-0.813h0.125q0.094 0 0.188 0.188v0.063q-0.406 0.625-0.625 0.625v0.125q0.109 0 0.813-0.875h0.125q0.125 0.016 0.125 0.125v0.188q0 0.625-1.25 1.25-0.125-0.203-0.125-0.375 0-0.125 0.188-0.125v-0.125l-0.125 0.063h-0.063q-0.313-0.172-0.313-0.25zM12.625 14.656v-0.125q0-0.094 0.188-0.188 0.719 0.5 2.188 1.25 0.188 0.234 0.188 0.375-0.156 0.125-0.25 0.125-0.672 0-2.313-1.438zM12.688 12.094v-0.125q0.719 0 1.75-0.938l0.125 0.063q0 0.422-0.375 0.813h0.063q0.844-0.156 2.5-1.188h0.188v0.063q0 1.5-2.75 1.5l-0.438 0.063v-0.063q0-0.156 0.25-0.188v-0.063h-0.063q-0.406 0.188-1 0.188h-0.125q-0.125 0-0.125-0.125zM12.75 21.406l0.125 0.063v-0.063q-0.063-0.125-0.063-0.188h-0.063v0.188zM12.813 11.719q0-0.172 1.125-0.813 0.266-0.484 0.438-0.563l0.125 0.25q0 0.656-1.625 1.25zM12.875 14.219v-0.188q1.578 0.75 1.813 0.75 1 0.063 1 0.313v0.25q0 0.094-0.188 0.188-1.891-0.5-2.625-1.313zM13.063 13.906v-0.125h0.063q1.219 0.438 2.625 0.438 0.063 0.125 0.063 0.188 0 0.203-0.5 0.375-1.031 0-2.25-0.875zM13.188 13.594v-0.063q0-0.125 0.313-0.125l-0.125-0.188v-0.188l0.063-0.125q0.672 0.188 1.375 0.188 1.172 0 1.5-0.25h0.063q0.125 0.016 0.125 0.125-0.172 0.625-2.313 0.625v0.063h1.188q0.516 0 0.875-0.188l0.063 0.125q-0.469 0.438-1.375 0.438h-0.438q-0.844 0-1.313-0.438zM13.188 5.094l0.125-0.063q1.063 0.781 1.063 2.75-0.125 1.875-0.313 1.875h-0.188q-0.203 0-0.438-0.188 0.188-0.656 0.188-1.313v-0.25q0-0.688-0.375-1.25 0-0.047 0.063-0.375 0-0.375-0.125-1.188zM13.5 12.781v-0.125q0-0.25 1.313-0.313h0.625q0.313 0 1.188-0.438l0.125 0.188v0.25q0 0.422-2 0.688-0.594-0.063-1.25-0.25zM13.875 21.469l0.688 0.688v-0.125q-0.078 0-0.688-0.625v0.063zM13.938 5.406v-0.063q0.094-0.688 0.25-0.688h0.125q0.938 0.641 0.938 2.188 0 1.281-0.875 2.688h-0.063q0.25-1.047 0.25-1.938 0-1.516-0.625-2.188zM14.375 10.031v-0.125q1.125-1.734 1.125-3.625v-0.063q0-1.031-0.25-1.375l0.125-0.063q0.813 0.922 0.813 1.813v0.688q-0.094 0.969-0.875 2.438-0.563 0.688-0.625 0.688-0.078 0-0.313-0.375zM14.625 11.656v-0.438q0-0.063 0.063-0.063l-0.063-0.125 1.625-1.313q0.781-1.047 0.938-1.125l0.063 0.125v0.313q0 0.859-1.5 2.188-0.938 0.438-1.125 0.438zM14.75 10.656v-0.063q1.563-1.969 1.563-2.938v-0.625q0.297-0.422 0.688-1.25h0.063q0.25 0.375 0.25 0.75v0.313q0 2-2.438 3.813h-0.125z" fill="#000000"></path>
</svg>
