<?xml version="1.0" encoding="utf-8"?>
<!-- Generated by IcoMoon.io -->
<!DOCTYPE svg PUBLIC "-//W3C//DTD SVG 1.1//EN" "http://www.w3.org/Graphics/SVG/1.1/DTD/svg11.dtd">
<svg version="1.1" xmlns="http://www.w3.org/2000/svg" xmlns:xlink="http://www.w3.org/1999/xlink" width="51" height="32" viewBox="0 0 51 32">
<g id="icomoon-ignore">
	<line stroke-width="1" x1="" y1="" x2="" y2="" stroke="#449FDB" opacity=""></line>
</g>
	<path d="M1.298 5.132l0.182-0.121h0.242l4.783 1.271q0 0.106 2.18 0.182 0.817 0 2.967-0.545h0.242q0-0.469 2.785-0.605 2.604 0 4.723 2.119 1.877 1.514 2.664 1.514 0.893 0 1.090-0.424 0.212-0.424 0.666-0.666-0.151-0.303-0.242-0.303h-0.061l-0.363 0.061-0.363-0.121q-0.076 0.363-0.182 0.363h-0.121q-0.091 0-0.242-0.242v-0.605q0-0.53 1.029-1.090 0-0.56 1.514-0.727h0.605q0.969 0.303 1.393 0.908v0.061q0 0.121-0.363 0.121 0 0.076 0.363 0.303h0.121q0-0.182 0.121-0.182 0.469 0 0.969 1.877 0.061 0.242 0.061 0.424 0 0.061-0.242 0.363 0 0.197 0.363 0.484 0.242 0.605 0.242 0.727 0.166 0 0.303-0.605 0.182 0 0.182-0.121-0.848-0.151-0.848-0.605l0.121-0.061h0.061q1.665 0 3.512-1.877 2.119-1.877 4.42-1.877 2.725 0.106 2.725 0.605v0.061q0.197-0.121 0.363-0.121 1.907 0.424 3.088 0.424 2.195 0 5.086-1.15 1.408-0.424 2.059-0.424l0.061 0.121q0 0.151-1.635 0.666 0 0.197-1.938 0.969-0.363 0-0.363 0.121h0.303q1.635-0.545 2.543-0.545l0.061 0.121q0 0.197-0.787 0.363-4.344 1.998-6.842 1.998-0.772-0.076-0.848-0.121 0 0.061-0.061 0.061l-0.061-0.121q0-0.151 0.727-0.182v-0.061q-0.863 0-1.756-0.242l-0.061 0.121v0.061q1.272 0.469 1.272 0.908h0.182q1.726 0 5.813-1.332 1.060-0.242 1.574-0.242h0.182q0.121 0.015 0.121 0.121 0 0.091-1.635 0.666v0.061q0.787 0.197 0.787 0.303v0.121l-0.303 0.061h-0.666q-0.212 0-4.238 0.727h-0.969q-1.514 0-1.938-0.666-0.484-0.182-0.666-0.303h-0.121v0.121q0.454 0 0.848 0.787 0.621 0.242 2.24 0.363 0.893-0.121 2.18-0.121h0.666l0.363-0.061q1.181 0 1.877 0.484l-0.061 0.121-0.727-0.061h-0.969q-1.695 0.242-2.846 0.242-1.635 0-2.906-0.787 0-0.348-1.574-0.908 0-0.136-0.303-0.182v0.303q0 0.121-0.121 0.121-0.484-0.212-0.484-0.363h-0.121q0.121 0.182 0.182 0.424l-0.182 0.121-1.15-0.424h-0.061v0.061q0.363 0.893 0.787 1.393v0.182q0 0.045-0.182 0.182 1.287 3.012 2.846 3.754 0.545 0.303 0.605 0.303v0.182h-0.424q-1.468-0.59-2.725-1.877-0.424-0.499-1.332-2.059 0 0.091-0.182 0.182-0.969-0.666-1.211-0.908 0 0.061-0.061 0.061 0.197 0.833 0.363 1.029 0 0.091-0.182 0.182h-0.121q-0.711-0.545-0.969-0.848l-0.121 0.061q0.061 0.742 0.242 1.332v0.182h0.121v-0.182q0-0.212-0.061-0.545 0.091-0.242 0.182-0.242 0.727 0.303 0.727 1.211 0.106 1.907 1.15 3.875 0.363 0.318 0.363 0.605v0.061h-0.182q-1.347-1.287-1.998-2.906v-0.121h-0.121v0.061q0.303 1.453 1.635 3.209 0 0.121-0.121 0.121-1.483-1.362-1.998-2.543-0.605-1.12-0.969-2.785l-0.121-0.061q-0.242 0.045-0.242 0.121 0 0.575 0.969 2.906 0.424 0.727 0.424 0.908v0.121h-0.182q-1.695-2.392-1.695-2.725h-0.121v0.121q0.257 0.954 0.848 1.938v0.061q0 0.091-0.182 0.182l-0.727-0.666h-0.121v0.061q0.363 1.166 0.727 1.635 0 0.121-0.182 0.121-0.742-0.545-1.090-1.393-0.666-1.907-0.666-3.572-0.061 0-0.121-0.545h-0.121q0.061 0.59 0.182 1.029l-0.182 0.121h-0.061q-0.424-0.257-0.666-1.15h-0.061q-0.121 0.272-0.121 0.605 0.061 0 0.061 0.061l0.121-0.061q0.969 1.090 0.969 2.543v0.121q0 0.121-0.121 0.121h-0.061q-0.212-0.121-0.363-0.666h-0.061v0.061q0.242 0.893 0.242 1.816v0.363q0 0.439-0.182 0.484-0.182-0.212-0.424-1.332h-0.121v0.061q0 0.878 0.182 1.938 0.515-0.348 0.727-0.908l0.303-0.303q0.121 0.151 0.121 0.242 0 0.333-0.182 0.666l0.061 0.242q-0.242 0.469-0.242 0.787v0.182q0.257-0.242 0.484-0.242l0.363 0.061q0.227-0.121 0.484-0.121 0.363 0.136 0.363 0.242v0.182q0 0.121-0.121 0.121l-0.303-0.061q-0.303 0-1.574 1.029-0.272 0.484-0.363 0.484h-0.242q-0.303-0.197-0.303-0.242-0.666 0.227-0.666 0.363v0.121q0.030 0 0.242-0.061l0.242 0.121q0.121-0.061 0.182-0.061 0.681 1.271 2.422 2.967l0.061 0.121q0 0.121-0.121 0.121t-1.514-0.666q0.091 0.394 0.484 1.029v0.182q0 0.121-0.121 0.121h-0.061q-0.727-0.696-0.727-0.969h-0.121q0 0.424 0.242 1.635l-0.121 0.061q-0.969-1.105-0.969-3.209 0.121-0.757 0.121-0.848v-0.061h-0.061q-0.045 0.303-0.182 0.303-0.227-0.303-0.363-0.303t-0.182-0.424q0-0.303 0.605-0.969h0.061v-0.121q-0.439-0.439-0.545-0.727-0.182 0.061-0.182 0.121l0.121 1.15-0.121 0.061h-0.061q-0.272-0.076-0.605-1.514l-0.121-0.061q-0.076 1.574-0.424 1.756l-0.121-0.182v-0.848h-0.061q0 0.227-0.424 0.666 0.424 0.227 0.424 0.545v0.061q0 0.515-0.605 0.908v0.787q0 1.938-0.848 2.906-0.121 0-0.121-0.121l0.121-1.271-0.121-0.061q-0.182 0.454-0.848 0.969l-0.061-0.121q0-0.166 0.545-1.393h-0.061q-0.863 0.681-1.393 0.727-0.121 0-0.121-0.121v-0.121q1.453-1.181 2.18-2.785 0-0.091 0.242-0.242h0.121l0.182 0.121h0.303q0 0.182 0.121 0.182v-0.061q0-0.333-0.363-0.545l-0.121 0.061q-0.197-0.121-0.363-0.121h-0.061l-0.303 0.242h-0.182q-0.166-0.061-0.424-0.727-0.711-0.288-1.332-0.848h-0.121l-0.424 0.121-0.061-0.121v-0.182q0.242-0.363 0.484-0.363 0.424 0 0.424 0.121l0.121-0.061q0.242 0 0.666 0.363h0.061v-0.182q-0.303-0.696-0.303-0.908 0.061-0.121 0.061-0.182-0.182 0-0.242-0.848l0.121-0.061h0.121q0.908 1.287 0.908 1.574 0.045 0.363 0.182 0.363h0.121l0.061-0.303v-0.061q-0.303-0.348-0.303-0.969l0.182-1.574q-0.061-0.121-0.061-0.182h-0.061q-0.303 1.105-0.363 1.695h-0.061q-0.242-0.076-0.303-0.969v-0.061q0-0.257 0.182-1.271l-0.303 0.242h-0.061q-0.121 0-0.121-0.121 0-0.908 0.242-1.816v-0.121q-0.182 0-0.182-0.242h-0.061q-0.303 2.604-0.848 3.33-0.409 0.696-0.908 1.090h-0.061q-0.121 0-0.121-0.121v-0.121q0.59-0.999 0.727-1.574h-0.121l-0.666 0.605h-0.182q-0.121 0-0.121-0.121v-0.121q1.15-1.741 1.15-2.604 0.363-0.969 0.848-1.695l-0.121-0.061q-0.242 0.545-0.727 0.545 0.015 0.424 0.121 0.424-0.182 1.075-1.635 3.572l-0.727 0.727q-0.121 0-0.121-0.121 1.393-2.604 1.393-3.693 0.106 0 0.182-0.484-0.076-0.061-0.303-0.061-0.303 1.847-0.969 2.846-0.5 1.241-1.695 2.301-0.121 0-0.121-0.121 1.271-2.301 1.271-2.846l-0.121-0.061q-1.060 2.558-1.998 3.027l-0.061-0.121v-0.121q1.029-1.695 1.15-3.209v-0.424q-0.106 0-0.242 0.787-0.711 1.862-1.453 2.301l-0.061-0.121v-0.061q0.121-0.136 0.545-1.393v-0.061q-1.938 1.877-2.482 1.877-0.121 0-0.121-0.121v-0.061q1.847-1.801 2.24-2.967 0.484-1.998 0.908-1.998 0.106-0.242 0.424-0.242 0.121 0 0.121 0.182 0 0.212-0.303 1.514l0.121-0.061h0.182q0.121 0 0.121 0.242 0.182-0.061 0.182-0.363v-0.727l0.727-0.666h0.061q0.121 0 0.121 0.666 0.166 0 0.303-1.090v-0.363q-0.711 0.833-1.029 0.969h-0.121q-0.091 0-0.182-0.182 0.303-0.893 0.303-1.029v-0.061q-0.954 0.969-1.271 0.969l-0.121-0.242q0.484-0.878 0.484-1.271h-0.121q-1.211 0.969-1.635 0.969l-0.061-0.121v-0.121q0.787-1.044 0.787-1.393l-0.121-0.061q-0.666 0.378-0.666 0.424 0.363 0 0.363 0.182-0.182 0.484-0.969 1.15-0.53 0.409-1.816 0.727v0.121h0.061q0.605 0 1.998-0.666 0.121 0.015 0.121 0.121 0 0.636-2.059 1.393l-0.969 0.121q-0.484 0-3.814-0.666h-0.242q-0.605 0-1.998 0.303v-0.061q0-0.439 1.938-0.848 0.257 0 0.484-0.061 0.469 0 3.693 0.363h0.242q0-0.439 0.605-0.605 0.545-0.091 1.816-1.453-0.121-0.197-0.121-0.303 0.061 0 0.061-0.061l-0.121-0.061-0.242 0.182h-0.121q-0.121 0-0.121-0.182 0.121-0.197 0.121-0.303h-0.121q-0.56 0.469-1.514 0.787-0.121 0-0.121-0.121v-0.121q0.666-0.515 0.666-0.605h-0.121q-0.575 0.378-0.969 0.424l0.121 0.182q-0.136 0.499-2.119 0.666-0.681 0-4.057-0.545-1.574-0.151-1.574-0.303 0-0.076 0.363-0.303-1.514-0.5-1.514-0.605-0.121 0-0.121-0.121 0.121-0.061 0.182-0.061 0.772 0 5.813 1.15 1.317 0.182 1.756 0.182 0.303 0 0.303-0.121-0.061-0.121-0.061-0.182 1.271-0.605 1.271-0.787-0.061 0-0.061-0.061-0.56 0.242-1.15 0.303v0.061l0.121 0.182q-0.333 0.303-1.271 0.303-3.133-0.409-5.146-1.271-0.106-0.106-2.422-0.848v-0.061q0.015-0.121 0.121-0.121h0.787q0.394 0 2.361 0.545h0.242v-0.061q-1.166-0.242-4.178-1.574-0.242-0.121-0.242-0.182zM4.446 10.46v-0.182q0.666-0.424 2.543-0.605h0.061q2.482 0.182 2.604 0.182h0.182q1.105 0 2.301-0.545l0.061 0.121v0.121q-0.984 1.029-2.906 1.029-1.468-0.121-2.301-0.242h-1.574q-0.076 0-0.666 0.121h-0.303zM6.263 7.19q0.999 0.242 2.543 0.303l0.908-0.121 0.061 0.121-0.061 0.303h0.242q0.923-0.076 2.301-0.848v-0.121q-0.817 0.484-2.725 0.484-1.832 0-3.209-0.182h-0.061v0.061zM7.897 13.548v-0.121q1.090-1.090 4.662-1.090 0.893-0.197 1.271-0.484h0.121q0.121 0.015 0.121 0.121v0.242q-0.681 1.196-2.301 1.877-1.211 0.666-1.635 0.666h-0.242v-0.121q1.877-1.241 1.877-1.393v-0.061h-0.061q-0.621-0.061-0.969-0.061h-0.666q-0.499 0-1.574 0.303 0 0.121-0.605 0.121zM8.987 7.978q0 0.121 0.182 0.121 0.121-0.061 0.182-0.061v-0.121h-0.363v0.061zM10.743 10.702q0-0.166 0.727-0.363 0.636-0.409 1.635-1.332l0.363-0.061q0 0.091 0.182 0.182l0.363-0.061q0.121 0 0.121 0.182-0.636 0.878-2.604 1.453-0.424 0.121-0.727 0.121zM11.47 14.759q2.119-0.863 2.785-2.361 0.999-1.938 1.090-1.938 0.817-0.394 0.969-0.545 0.182 0.061 0.182 0.363-0.091 0-1.090 2.059-1.317 1.877-3.209 2.543-0.076 0-0.605 0.061zM12.56 6.343q0.061 0.106 0.061 0.242h0.061q0.303-0.272 0.303-0.484h-0.061q-0.363 0.167-0.363 0.242zM12.802 15.243l1.15-0.969q1.014-0.999 1.574-1.938l0.242-0.061 0.061 0.121q0 0.848-1.453 2.301-0.999 0.666-1.514 0.666zM13.407 6.948q0.061 0 0.424 0.303h0.061v-0.061q-0.303-0.318-0.303-0.484-0.091 0-0.182 0.242zM14.194 7.009l0.121 0.061 0.061-0.121v-0.121q0-0.121-0.121-0.121zM14.437 7.312q0.015 0.121 0.121 0.121h0.061q0.121 0 0.121-0.121h-0.303zM14.981 7.19l0.121 0.061h0.061q0-0.045 0.061-0.363h-0.121q0 0.106-0.121 0.303zM15.769 7.372l0.121 0.061h0.242l0.061-0.424q-0.424 0.303-0.424 0.363zM16.132 7.917q0.121 0.061 0.182 0.061h0.182v-0.061q-0.303 0-0.303-0.182h-0.061v0.182zM16.798 7.796q0.061 0.121 0.061 0.182h0.121q0.076 0 0.363-0.545l0.363-0.061h0.061l0.182 0.121 0.061-0.121-0.121-0.061h-0.424l-0.303-0.061q0 0.318-0.363 0.545zM17.040 8.401q0.061 0 0.182 0.061v-0.121q0-0.121-0.121-0.121h-0.061v0.182zM17.827 8.341q0.015 0.121 0.121 0.121h0.061q0-0.212 0.363-0.484h0.061l0.424 0.061v-0.061q-0.061-0.121-0.061-0.182l-0.303 0.061q-0.136 0-0.363-0.182 0 0.288-0.303 0.605v0.061zM18.13 13.245h0.061q0.106-0.061 0.242-0.061h0.182q0-0.742 1.15-2.059 0.121 0 0.121 0.182h0.061v-0.424q0-0.318-0.182-0.363-0.772 1.574-1.090 1.574l-0.303-0.182zM18.735 8.886h0.242q0.045-0.242 0.303-0.484v-0.061l-0.303-0.061q0 0.333-0.242 0.545v0.061zM19.401 9.431h0.121l0.303-0.061q0.015 0.121 0.121 0.121h0.061q0-0.318 0.182-0.545v-0.061h-0.303q0 0.257-0.484 0.545zM20.37 22.448q0-0.121 0.787-0.666v-0.182q-0.061-0.121-0.061-0.182 0.56-0.166 1.938-1.453h0.061q0.121 0.015 0.121 0.121 0 0.696-1.756 2.119-0.257 0.182-0.969 0.363-0.121 0-0.121-0.121zM20.733 10.944q0 0.091 0.242 0.242v-0.424q0-0.121-0.121-0.121-0.121 0.015-0.121 0.121v0.182zM20.915 9.552q0.197 0.121 0.303 0.121v-0.242q0-0.121-0.121-0.121h-0.182v0.242zM22.126 11.792q0.061 0.106 0.061 0.242h0.061q0-0.621 0.666-2.543l-0.121 0.061q-0.227-0.182-0.363-0.182l-0.121 0.182v0.121q0.121 0.424 0.121 0.484v0.121zM22.731 13.972h0.061l0.061-0.242h-0.121v0.242zM22.731 11.913q0.121 0 0.121-0.121v-0.121q-0.121 0.015-0.121 0.121v0.121zM22.974 11.429h0.242q0.061-0.106 0.061-0.242v-0.484h-0.061q0 0.030-0.242 0.727zM23.095 12.821q0.242 0.272 0.242 0.484h0.061q0-0.257 0.484-0.666v-0.363h-0.121q-0.076 0.424-0.242 0.424h-0.121q-0.121 0-0.121-0.303h-0.061q0 0.121-0.121 0.424zM23.276 9.31h0.061q0.121 0 0.121-0.121t-0.121-0.121l-0.061 0.121v0.121zM23.337 10.521h0.061q0.257-0.848 0.605-0.848 0-0.151 0.061-0.484-0.061-0.242-0.061-0.424h-0.061q0 0.696-0.484 0.908-0.121 0.59-0.121 0.666v0.182zM23.519 17.181l0.121 0.061h0.061l0.061-0.303-0.061-0.303q0.182 0 0.182-0.666v-0.242q0-0.061 0.061-0.061-0.061-0.121-0.061-0.182-0.091 0-0.363 1.695zM23.519 6.948q0.061 0 0.061 0.061l0.424-0.061q0.363 0.030 0.363 0.182 0 0.136-0.303 0.182v0.061q0.151 0 0.605 0.121l0.121-0.182q0.197 0.121 0.363 0.121v-0.061l-0.242-0.242q0.015-0.121 0.121-0.121h0.121q0.605 0 1.211 1.332v0.121h0.121v-0.061q0-0.394-1.029-1.574v-0.061h-0.121q-0.303 0.015-0.303 0.121-0.787 0-0.787-0.424 0-0.197-0.363-0.242v-0.121q0-0.121 0.182-0.121v-0.121h-0.242l-0.303 0.061v0.242l0.061 0.727q-0.061 0-0.061 0.061zM23.882 18.573q0.091 0.242 0.303 0.363h0.121v-0.242q0-0.121-0.363-0.242zM24.003 14.759q0.363 0.121 0.363 1.029h0.061q0.061-0.605 0.061-0.908v-1.877q0.212-0.833 0.545-1.271h0.182q0.121 0.015 0.121 0.121v0.605l0.061 0.303h0.061v-0.545q0-0.303-0.061-0.908h-0.182q0 0.182-0.242 0.303 0-0.091-0.182-0.182-0.409 1.362-0.545 3.027h-0.242v0.303zM24.003 10.521q0.015 0.121 0.121 0.121 0.151 0 0.303-0.727v-0.121h-0.061q0 0.212-0.303 0.363-0.061 0.106-0.061 0.242v0.121zM24.063 24.688v-0.061q0.363-2.21 0.363-3.027v-0.303q0-0.166 0.545-0.969 0.318-0.651 0.424-1.271l0.182-0.121h0.121q0 0.848 1.029 2.24v0.363q0 1.181 0.424 2.725v0.242q0 0.121-0.121 0.121-0.333-0.076-0.848-1.756l-0.121-0.061q-0.303 2.482-0.424 2.482-0.182 0-0.545-2.482h-0.121q0 0.772-0.787 1.877h-0.121zM24.245 16.636l0.303-0.182h0.121q0.121 0.015 0.121 0.121 0 0.242-0.484 0.727v0.242h0.121q0-0.166 0.424-0.787 0.257-1.211 0.363-1.211h0.121l0.061 0.303h0.061q0.061-0.696 0.484-2.906h-0.061l-0.242 0.182q-0.121-0.061-0.182-0.061v0.666q0 1.211-0.484 1.453 0 0.409-0.363 0.908h-0.121l-0.121-0.061q-0.121 0.484-0.121 0.605zM24.548 9.552q0.363 0.288 0.363 0.969h0.121q0-0.121 0.242-0.727h-0.363l-0.061-0.424v-0.182q-0.061 0-0.182-0.061-0.121 0.197-0.121 0.363v0.061zM24.669 18.089q0.015 0.121 0.121 0.121l0.061-0.121v-0.242q-0.091 0-0.182 0.182v0.061zM24.972 6.343l0.121 0.061h0.605v-0.121q-0.242 0-0.242-0.182 0-0.151 0.242-0.182v-0.061q-0.030-0.121-0.303-0.242l-0.303 0.061v0.061q0.121 0.151 0.121 0.242 0 0.061-0.242 0.363zM25.214 8.28q0.151 0 0.182 0.484h0.061v-0.242q-0.182-0.257-0.182-0.424h-0.061v0.182zM25.395 9.37q0.061 0.121 0.061 0.182h0.182v-0.182q0-0.318-0.182-0.363-0.061 0.318-0.061 0.363zM25.456 17.544q0.197 0.121 0.363 0.121l0.121-0.061q-0.303-1.029-0.303-1.211h-0.121q0 0.182-0.061 0.182l0.061 0.121v0.242zM25.698 9.915l0.242 1.15v1.211q0.015 0.121 0.121 0.121 0.106-0.061 0.242-0.061 0.061 0.106 0.061 0.242h0.061v-0.182q-0.424-1.544-0.424-1.998v-0.666h-0.061zM25.94 17.786q0.061 0.121 0.061 0.182h0.061v-0.121q-0.061-0.121-0.061-0.182h-0.061v0.121zM26.122 9.612q0.242 0 0.242 0.242h0.121v-0.242q-0.121 0-0.303-0.303l-0.061 0.121v0.182zM26.183 17.241q0.015 0.121 0.121 0.121 0.182-0.197 0.182-0.303-0.182-0.288-0.182-0.363h-0.121v0.545zM26.183 16.333l0.666 0.363v-0.061q-0.182-0.666-0.545-0.666v-0.121h-0.121v0.484zM26.243 7.009q0.045 0.212 0.363 0.363 0.121 0 0.121-0.121v-0.242q-0.061-0.182-0.363-0.182h-0.061q0 0.182-0.061 0.182zM26.485 15.122l0.061 0.303q0.106 0 0.242-0.605h0.061q0.015 0.121 0.121 0.121 0.121-0.227 0.121-0.484v-1.090q-0.136 0-0.182 0.787h-0.182l-0.061-0.303q-0.182 0-0.182 0.969v0.303zM26.606 9.491h0.182l0.242-0.363h0.121v-0.061q0-0.121-0.121-0.121h-0.061v0.182h-0.121l-0.182-0.121h-0.061v0.484zM26.728 7.493q0.061 0.121 0.061 0.182h0.121v-0.061q-0.061-0.121-0.061-0.182h-0.121v0.061zM26.788 18.028q0.166 0.363 0.242 0.363v-0.121l-0.121-0.424h-0.121v0.182zM27.030 12.579q0.030 0.257 0.848 0.545 0-0.061 0.061-0.061-0.242-0.787-0.242-0.969h-0.061q-0.045 0.545-0.182 0.545h-0.121l-0.121-0.605q-0.121 0-0.182 0.545zM27.091 7.251q0.015 0.121 0.121 0.121h0.061v-0.182h-0.182v0.061zM27.151 15.728q0.227 1.998 0.484 1.998 0.242-0.091 0.242-0.182v-0.363q-0.424 0-0.424-0.424-0.182-0.954-0.182-1.090h-0.121v0.061zM27.333 9.37q0.061 0.106 0.061 0.303 0.121 0 0.121-0.303-0.121-0.061-0.182-0.061v0.061zM27.938 20.026v-0.061l0.061-0.121q0.757 0.621 1.998 1.453 0 0.469 0.545 0.848v0.121q0 0.121-0.182 0.121-0.954-0.242-2.24-1.938-0.182-0.227-0.182-0.424zM29.21 10.944q0 0.182 0.424 0.969 0.151 0 0.303-0.605v-0.121h-0.061l-0.182 0.121h-0.061q-0.061 0-0.424-0.424v0.061zM29.755 12.095q0.061 0.363 0.182 0.363v-0.061q0-0.318-0.182-0.363v0.061zM29.755 9.431l0.545 0.303q0.121 0.061 0.182 0.061h0.121v-0.061q-0.212 0-0.605-0.484-0.106 0.061-0.242 0.061v0.121zM29.997 12.7q0.015 0.121 0.121 0.121v-0.182h-0.121v0.061zM29.997 11.126h0.182q0.121 0 0.121-0.121v-0.121q0-0.091-0.242-0.242h-0.061v0.484zM30.421 11.368l0.121 0.061h0.061q-0.121-0.151-0.121-0.242h-0.061v0.182zM30.784 8.886q0.061 0.363 0.182 0.363h0.242v-0.061q-0.227-0.363-0.303-0.363h-0.121v0.061zM31.026 10.884l0.061 0.424 0.121-0.061h0.061l0.303 0.182h0.061v-0.061q-0.121 0-0.424-0.605l-0.121-0.061-0.061 0.121v0.061zM31.208 8.401q0.061 0 0.061 0.061l0.121-0.061h0.061q0.424 0 0.424 0.484 0.076-0.061 0.424-0.061v-0.061q-0.242 0-0.484-0.484h-0.121q-0.136 0-0.242 0.061-0.121-0.061-0.182-0.061zM31.632 11.55l0.605 0.787q0.227 1.15 0.303 1.15 0-0.484 0.182-0.484l0.182 0.121v-0.061q-0.257-1.15-0.484-1.15 0 0.091-0.182 0.182-0.484-0.484-0.484-0.605h-0.121v0.061zM32.54 7.735q0.015 0.121 0.121 0.121h0.121v-0.061l-0.061-0.121q-0.121 0.061-0.182 0.061zM32.782 7.978q0.061 0.757 0.061 0.787h0.061q0-0.363 0.484-0.363h0.182v-0.061q-0.378 0-0.727-0.424h-0.061v0.061zM33.448 7.372q0.257 0 0.363 0.605h0.061q0.136-0.121 0.363-0.121v-0.121q-0.151 0-0.545-0.545-0.242 0.091-0.242 0.182zM33.63 12.579v-0.182q0.015-0.121 0.121-0.121 0.197 0.121 0.303 0.121-0.363-1.029-0.363-1.635l0.121-0.061h0.121q0.908 0.303 0.908 1.332 0.061 0 0.666 1.453 0.696 1.226 1.635 1.998 0.545 0.394 0.605 0.545l-0.121 0.061h-0.182q-0.908-0.348-2.604-1.998v0.061l0.666 1.695q-0.061 0-0.061 0.061-1.105-0.923-1.514-2.301zM33.812 6.948h0.061q0.121 0 0.121-0.121v-0.061h-0.121q0 0.061-0.061 0.182zM34.114 9.31q0.303 0.969 0.424 0.969 0-0.424 0.182-0.424 0.197 0.106 0.666 0.242v-0.061l-1.029-0.727h-0.242zM34.478 6.827h0.182v-0.121h-0.182v0.121zM34.72 7.19q0 0.091 0.182 0.182h0.061q0-0.121 0.061-0.121 0-0.167-0.303-0.303v0.242zM34.78 6.403h0.303v-0.121q-0.061 0-0.182-0.061zM35.204 12.276q0.015-0.121 0.121-0.121l1.393 1.574q0.59 0.727 1.695 1.453v0.061q0 0.121-0.182 0.121-1.635-0.59-2.725-2.301-0.303-0.636-0.303-0.787zM35.325 6.343q0 0.091 0.182 0.182h0.061v-0.242h-0.242v0.061zM35.446 8.946l0.121-0.061h0.061q1.014 0.136 1.332 0.605 0.696 0.772 1.574 1.029 0 0.061 0.061 0.182l-0.182 0.121q-1.499-0.212-2.543-1.211-0.378-0.394-0.424-0.666zM35.628 7.13h0.121q0.121 0 0.121-0.121 0-0.333-0.242-0.424v0.545zM36.294 10.46q0.061 0 0.061-0.061 1.287 0.605 2.725 0.605 2.679-0.424 3.33-0.424h0.303q1.695 0 2.059 0.484v0.061q0 0.121-0.121 0.121-0.394-0.121-0.545-0.121h-0.605q-0.666 0-3.633 0.666h-0.605q-2.482 0-2.967-1.332zM36.415 6.827l0.121 0.061 0.061-0.121-0.061-0.303h-0.061zM36.415 6.222h0.121v-0.182h-0.121v0.182zM36.839 9.128v-0.121l0.061-0.121 0.121 0.061h0.303q0-0.182 0.182-0.182 0.363 0 1.332 0.848 0.53 0.424 1.514 0.727v0.061l-0.121 0.061h-0.666q-2.27-0.727-2.725-1.332zM36.899 11.671q0.121-0.061 0.182-0.061 0.696 0.424 1.332 0.424h1.272q2.119 0 3.33 1.090v0.061q0 0.121-0.121 0.121-1.499-0.484-2.785-0.484l-0.908 0.121q0.333 0.499 1.635 1.211v0.061q0 0.121-0.121 0.121h-0.182q-1.62-0.59-2.846-1.514-0.787-0.802-0.787-1.15zM36.96 7.009h0.061q0.121 0 0.121-0.121v-0.061h-0.061q-0.121 0.015-0.121 0.121v0.061zM37.202 6.827h0.121q0.121 0 0.121-0.121-0.061-0.106-0.061-0.242h-0.121l-0.061 0.303v0.061zM38.655 6.767q1.483 0.605 2.482 0.848 0.121 0.242 0.303 0.242 0.439-0.061 0.484-0.061v-0.121q-0.787-0.167-0.787-0.363 0.061-0.121 0.061-0.182-1.135-0.121-2.361-0.424h-0.182v0.061zM41.501 7.19h0.666q2.013-0.182 3.27-0.666v-0.061h-0.182q-2.346 0.666-3.754 0.666v0.061z" fill="#000000"></path>
</svg>
