<?xml version="1.0" encoding="utf-8"?>
<!-- Generated by IcoMoon.io -->
<!DOCTYPE svg PUBLIC "-//W3C//DTD SVG 1.1//EN" "http://www.w3.org/Graphics/SVG/1.1/DTD/svg11.dtd">
<svg version="1.1" xmlns="http://www.w3.org/2000/svg" xmlns:xlink="http://www.w3.org/1999/xlink" width="32" height="32" viewBox="0 0 32 32">
<g id="icomoon-ignore">
	<line stroke-width="1" x1="" y1="" x2="" y2="" stroke="#449FDB" opacity=""></line>
</g>
	<path d="M0.202 5.71v-0.129q0.097-1.226 0.323-1.29 0.129 0.016 0.129 0.129l-0.065 0.323q0 1.145 1.484 2.71 1.177 0.887 3.161 1.548 3.613 0.871 5.355 2.645 0.774 0.855 0.774 1.161-0.065 0-0.065 0.065l-0.129-0.065h-0.516q-0.532 0-1.742-0.903-0.79-0.742-2.645-1.355-2.306-0.645-3.097-1.097v0.065q0 0.339 2.839 1.419 1.419 0.403 1.419 0.645 0 0.129-0.129 0.129-0.339-0.113-2.903-0.581-4.194-1.677-4.194-5.419zM4.911 16.677v-0.129q0.048-0.387 0.194-0.387 0.081 0 0.258 0.774 0.435 0.323 0.71 0.323 0.79 0 2.581-2 0.742-0.452 1.613-0.452 1.887 0 3.935 2.065l0.065-0.129q-0.597-1.339-2.065-1.935-2.339-0.581-3.161-1.548-0.581-0.79-0.581-1.097 0.016-0.129 0.129-0.129 1.194 1.226 3.032 1.226h0.258q0.129 0 0.129-0.129v-0.065q-0.952-1.774-2.71-2.839-0.452-0.323-0.452-0.387l0.194-0.129h0.065q0.919 0 3.097 0.903l0.903 0.194 2.258-0.323h0.452q1.903 0.129 2.065 0.129h0.258q0.29 0 3.355-0.968 0.339-0.065 0.645-0.065l0.065 0.129v0.065q-2.323 1.726-2.774 3.226 1.79 0 3.097-1.097h0.129l0.129 0.065q0 1.435-2.516 2.323-1.855 0.565-2.774 1.742l-0.387 0.645h0.065q2.194-2 3.677-2h0.387q0.742 0 2.645 1.677 0.823 0.516 1.161 0.516h0.452q0.113 0 0.774-0.71 0.129 0.016 0.129 0.129 0 0.742-1.032 1.419-0.242 0.129-0.516 0.129h-0.323q-0.806-0.226-2.71-1.032-0.242-0.065-0.581-0.065-0.516 2.516-1.032 2.516-1.758 0-2.387 2.129v0.129q0 0.516 0.452 1.677 0 0.258-0.774 0.258l-0.645-0.065q0.677 0.71 1.742 0.71 0.065 0.129 0.065 0.194 0 0.79-1.806 1.355-0.532 0.177-1.742 0.258-1.258 0-2.194-1.29 0-0.113-0.194-0.323v-0.258h0.516q1.29-0.29 1.29-0.645l-0.452 0.065q-0.903-0.048-0.903-0.323 0.323-0.581 0.323-0.903v-0.71q0-0.79-1.161-1.806-0.661-0.387-1.097-0.387l-0.387 0.065q-0.774-1.71-0.774-2.452-0.258 0-0.258-0.129-0.371 0-2.581 1.161l-0.581 0.129h-0.323q-1.419-0.435-1.419-1.419zM11.040 16.097q0 0.935 2.387 1.871 0.113 0.065 0.258 0.065v-0.065q-0.5-1.113-1.935-1.742-0.419-0.129-0.581-0.129h-0.129zM13.944 13q0 0.935 1.613 4.065 0 0.097 0.194 0.194 0.065-0.355 1.226-2.839 0.258-0.742 0.323-1.226-0.145-1.677-1.032-1.677l-0.323-0.065q-2 0-2 1.161v0.387zM14.202 24.742q0.242 0.194 0.452 0.194h0.258q-0.097-0.323-0.452-0.323h-0.129q-0.129 0.016-0.129 0.129zM14.46 19.839h0.065q0.242-0.194 0.452-0.194 0.194 0 0.194 0.258-0.194 1.468-0.452 2.258h0.065q0.516-0.129 0.774-0.129 0.145 0 1.161 0.194-0.452-1.694-0.452-2.323v-0.065q0.016-0.129 0.129-0.129l0.581 0.194v-0.065q-0.661-1.419-1.355-1.419-0.435 0-1.161 1.161v0.258zM16.718 24.935h0.194q0.452-0.242 0.452-0.323-0.258 0-0.258-0.065-0.387 0.129-0.387 0.258v0.129zM17.492 17.903h0.129q0.968-0.129 2.323-1.419 0-0.113 0.194-0.323v-0.129h-0.065q-0.823 0-2.194 1.29-0.387 0.403-0.387 0.581zM20.008 12.548v-0.129q1.355-2.323 5.355-3.484 2.806-0.855 3.871-2 1.129-1.484 1.29-2.387v-0.194h0.129q0.274 0 0.323 0.903v0.452q-0.177 2-1.935 3.935-2.355 1.871-5.032 1.871v-0.194q0.935-0.484 2.516-1.032 1.081-0.516 1.613-1.097h-0.065q-1.661 0.839-4.645 1.806-2.629 1.677-3.29 1.677-0.129 0-0.129-0.129z" fill="#000000"></path>
</svg>
