<?xml version="1.0" encoding="utf-8"?>
<!-- Generated by IcoMoon.io -->
<!DOCTYPE svg PUBLIC "-//W3C//DTD SVG 1.1//EN" "http://www.w3.org/Graphics/SVG/1.1/DTD/svg11.dtd">
<svg version="1.1" xmlns="http://www.w3.org/2000/svg" xmlns:xlink="http://www.w3.org/1999/xlink" width="27" height="32" viewBox="0 0 27 32">
<g id="icomoon-ignore">
	<line stroke-width="1" x1="" y1="" x2="" y2="" stroke="#449FDB" opacity=""></line>
</g>
	<path d="M0.516 23.906q0-2.781 3.563-4.375l1.125-0.875h0.063q0.125 0.016 0.125 0.125-0.328 0.672-2.563 2.375-0.75 0.734-0.75 1.313 1.328-0.141 2.313-1.063 0.297-0.406 0.625-1.813l0.125-0.063q0.125 0.016 0.125 0.125l-0.063 0.438q0 1.078 0.75 2.313v0.125q0 0.453-2.813 0.938-1.031 0-1.75 1.313 0.063 0.344 0.063 0.5l-0.125 0.063h-0.063q-0.359 0-0.75-1.438zM5.641 19.219q0-5.719 4.188-9.563 3.25-2.25 6.063-2.25 2.172 0 4.125 1.125 0.094 0 0.188 0.188v0.063q-2.313-0.688-3.688-0.688-2.609 0.203-5.625 2.313-2.375 1.969-2.375 3.125v0.063q0 0.422 0.625 0.563 0.25 0 3.563-1.125 1.422-0.313 1.75-0.313l0.063 0.125v0.063q0 0.156-1.5 0.5-2.875 1.219-4.625 2.813-1.906 2-2.063 3.375-0.125 0.297-0.25 1 0.063 0.125 0.063 0.188l-0.063 0.125q0.063 0.109 0.063 0.25 0 0.125-0.125 0.125-0.375-0.328-0.375-2.063zM6.516 21.531v-0.063q0.016-0.125 0.125-0.125 1.297 1.313 2.75 1.313 0 0.047 0.75 0.188h0.063q0-0.766-1.813-2.438l-0.5-0.75v-0.063q0.016-0.125 0.125-0.125 1.578 0.953 2.875 1.875 0.656 0.469 1 2.5-0.125 1.047-0.125 1.625l-0.188 0.125h-0.063q-0.906-1.375-2.5-1.875-1.875-0.781-2.5-2.188zM6.704 19.844q0-2.547 4.125-5 2.609-1.313 3.563-1.313 0.125 0 0.125 0.188-0.391 0.984-1.75 2.063-0.297 0.172-1.563 0.563-1.828 0.75-3.375 2.5-0.141 0-0.375 0.75v0.625q0 0.984 1.375 1.75v0.063q0 0.125-0.125 0.125-1.203-0.313-1.813-1.438-0.188-0.766-0.188-0.875zM9.329 13.031q0.641-1.484 3.875-3.313 1.766-0.875 3.813-0.875h0.063q0.141 0 0.25-0.063 2.016 0 4.375 1.688l0.438 0.5v0.125l-2.125-1q-1.219-0.313-2.438-0.313h-0.188q-1.625 0.172-1.625 0.813 0 0.422 3.625 0.5 2.438 0.594 2.438 1.25 0.188 0 0.188 0.563 0 1.063-2.438 1.938-2.141 0.75-4.188 0.75l-0.063-0.125q0-0.125 2.188-0.563 2.875-0.906 2.875-1.688v-0.125q-0.609-0.875-3.313-0.875 0-0.063-0.063-0.063t-0.063 0.063l-0.313-0.063-0.438 0.063q-0.063 0-0.063-0.063l-0.313 0.063h-0.438q-2.094 0-5.688 1.125h-0.063q-0.172 0-0.313-0.313zM11.766 17.219v-0.188q2.641-1.734 3.563-4.063 0.063-0.375 0.188-0.375h0.063q0.125 0.016 0.125 0.125v0.125q0 1.359-1.625 3.438v0.063h0.313q2.109 0 4.125-0.875l0.063 0.125v0.063q0 0.453-2.313 1.313-1.281 0.313-2.25 0.313h-1.5zM14.204 18.344q0-0.672 1.875-1.125 0.156 0 0.5-0.063 0.813 0.047 0.813 0.25l-0.188 0.125q-0.063 0-0.188-0.063-0.984 0-1.813 0.688v0.063q0 0.141 0.438 0.188 1.031 0 2.75-0.938l0.063 0.125v0.063q-1.375 1.313-2.938 1.313h-0.438q-0.875-0.078-0.875-0.625zM15.829 14.406v-0.313q0.188-0.219 0.563-1.25h0.063q0.188 0 1.188-0.063 1.609 0.047 1.813 0.563v0.063q0 0.625-3.5 1.188zM17.891 16.969v-0.063q0.016-0.125 0.125-0.125 1.422 0.375 2.313 0.375h0.438q2.172 0 2.938-1.563 0.25-0.609 0.25-0.875v-0.813q0-0.828-1.25-2.5-0.063-0.109-0.063-0.25l0.125-0.063q0.938 0.406 1.938 3.063 0.25 1.281 0.25 1.813v0.875q0 0.25-0.125 0.813 0.563-0.688 0.563-2.063 0-3.156-3-5.625 0.125-0.063 0.188-0.063 0.609 0.219 1.938 1.563 1.75 2.156 1.75 4.25 0 1.75-1.188 4.25-0.125 0.406-0.125 0.563v1.063q0 1.625-0.875 1.625-0.625 0-0.813-1.5 0-0.5-1.063-1.938-0.313-1.172-0.313-1.313h-0.063q0 0.125-0.063 0.125l0.063 0.125-0.063 0.313q0 0.313 0.875 1.875 0.266 0.375 0.375 1.375-0.078 1.125-0.313 1.125-0.156 0-0.438-1.688-1.266-2.891-4.375-4.75zM19.016 16.156l1.563-0.375q1.469-0.938 1.813-1.813 0.172-0.516 0.25-1.5l0.125-0.063q0.5 0.547 0.5 1.313v0.25q0 2.094-2.625 2.5h-0.25q-1.375-0.047-1.375-0.313zM19.141 4.844q0.266-0.125 1-0.125 1.297 0 2.688 2 0.813 1.813 0.813 3v0.5q-0.141 0-1-0.563-0.516-0.281-1.125-0.5v-0.063q0.375-0.797 0.375-1.25 0-1.391-1.625-2-0.125-0.063-0.188-0.063l-0.063 0.125v1.375q0 0.75-0.25 0.75h-0.125q-0.125-1.719-0.5-3.188zM23.016 18.156q0 0.156 0.25 0.5 0.234 0 0.438-0.438 0-0.313-0.313-0.5h-0.125q-0.25 0.094-0.25 0.438z" fill="#000000"></path>
</svg>
