<?xml version="1.0" encoding="utf-8"?>
<!-- Generated by IcoMoon.io -->
<!DOCTYPE svg PUBLIC "-//W3C//DTD SVG 1.1//EN" "http://www.w3.org/Graphics/SVG/1.1/DTD/svg11.dtd">
<svg version="1.1" xmlns="http://www.w3.org/2000/svg" xmlns:xlink="http://www.w3.org/1999/xlink" width="14" height="32" viewBox="0 0 14 32">
<g id="icomoon-ignore">
	<line stroke-width="1" x1="" y1="" x2="" y2="" stroke="#449FDB" opacity=""></line>
</g>
	<path d="M0.34 1.794v-0.086q1.288 0.73 2.232 1.803h-0.086q-1.009-0.558-2.146-1.717zM0.77 2.824v-0.172h0.086q2.060 1.223 2.232 1.545h-0.172zM1.285 3.683v-0.172h0.086q0.622 0.172 2.232 1.545h-0.172zM1.457 15.102v-0.086q0.966-3.284 2.318-4.293v-0.086h-0.172q0 0.258-1.545 0.429h-0.343v-0.172h0.086q1.395 0 3.091-1.631h0.258q-0.515 0.579-0.515 0.687h0.086q0.494-0.429 0.859-0.429v0.086q-0.515 0.537-0.515 0.773 1.309-0.687 2.576-0.687v0.172q-0.794 0-1.889 0.601v0.086l0.773-0.172 0.515 0.086v0.172q-0.773 0.064-0.773 0.601 0 1.46 1.46 1.889h0.086q0.944-0.172 0.944-0.859 0-0.086-0.343-0.515v-0.086h0.086q0.429 0.215 0.429 0.773-0.365 0.944-1.202 0.944-1.202 0-1.803-1.803h-0.086v0.343q0 2.833 1.631 5.666-0.215 0-0.859-1.288h-0.086q-0.365 0.343-0.687 0.343 0.386 1.009 2.146 3.263v0.258h-0.258q-1.438-1.567-2.49-3.434-0.558 0-1.116-0.343 0 1.502 3.52 6.697 0 0.043 0.687 1.288 0 0.172-0.172 0.172-1.352-2.275-3.52-5.237-0.773-1.159-1.545-4.464-0.172 0-0.172-0.687h-0.172q-0.086 0.859-0.086 1.288v0.515q0 2.876 2.576 4.293 0 0.086 0.086 0.258l-0.172 0.086q-3.005-1.181-3.005-4.894 0-1.953 1.030-3.949v-0.086h-0.086q-1.46 2.619-1.46 3.434h-0.172zM1.886 4.456h0.172q1.030 0.515 1.975 1.202 0 0.172-0.429 0.172v0.086q0.687 0.279 0.687 0.429v0.086q-0.193 0-0.343-0.086h-0.086v0.086q0.622 0.258 0.687 0.258v0.172h-0.086l-0.343-0.086h-0.086v0.086q0.107 0 0.859 0.343l0.172-0.258v-0.086q-0.429-0.064-0.429-0.258 0.172 0 0.172-0.172-0.343 0-0.515-0.343h0.343v-0.086q-0.3 0-0.687-0.515v-0.086h0.086q0.622 0.343 0.944 0.343v0.172h-0.086q-0.172-0.086-0.258-0.086 0 0.193 0.429 0.258v0.172h-0.258v0.086q0.429 0.064 0.429 0.258v0.086h-0.172v0.086q0.343 0.043 0.343 0.258-0.258 0.086-0.258 0.172v0.258q-0.279-0.172-0.515-0.172h-0.343v0.086l0.601 0.172v0.172q-0.107 0-0.944-0.343v-0.172q0.258 0 0.258-0.172l-0.515-0.172v-0.172h0.172v-0.172q-0.515-0.258-0.687-0.258v-0.172h0.429v-0.086q-0.365 0-0.944-0.601h0.515q0-0.064-1.288-0.944zM2.573 3.082q1.717 1.846 2.404 2.060v0.172h-0.086q-1.932-1.073-2.318-2.232zM3.088 13.814q0 0.172 0.172 1.030h0.086q0-1.953 1.030-3.863v-0.086q-1.288 1.481-1.288 2.919zM3.517 4.713v-0.086l1.631 1.030h-0.086q-1.181-0.343-1.545-0.944zM3.861 23.086q0.215-1.631 0.601-1.631v0.086q-0.172 0.558-0.172 0.773v0.687q0 0.258 0.258 1.030h0.086v-0.944h0.172q0 1.159 1.202 1.889h0.086l-0.515-0.687v-0.258q0.88 0.859 1.717 0.859 1.052 0 1.803-1.116v-0.172l-0.172 0.086h-0.258l-0.429-0.086v-0.172l0.429 0.086h0.086q0.429-0.258 0.429-0.515 0-1.052-0.944-2.232l0.172-0.086h0.086q1.030 1.159 1.030 2.662 0 1.91-2.49 2.833h-0.086v-0.172q0.258 0 0.258-0.172h-0.086l-0.601 0.086q-2.34 0-2.662-2.833zM3.946 15.445q0 1.030 1.288 1.030-0.601-1.245-0.601-2.747v-0.172q0-0.944 0.258-2.232v-0.086h-0.086q-0.859 2.018-0.859 4.207zM4.204 1.193v-0.086q1.331 1.138 2.232 3.177v0.258q-0.107 0-2.232-3.348zM4.29 8.062v-0.172l0.429-0.086q0.773 0.043 0.773 0.258v0.086h-0.773zM4.29 1.966h0.086q0.859 0.859 2.919 4.464h-0.172q0-0.193-1.116-1.545v0.172q0.172 0.537 0.172 0.687-0.086 0.15-0.086 0.343 0.086 0 0.086 0.086 0.172-0.086 0.258-0.086l-0.086-0.429q0.15 0.021 0.944 1.116v0.086l-0.172-0.086h-0.086v0.086l0.172 0.258h-0.343q0.172 0.343 0.515 0.343v0.172h-0.515v0.172q0.472 0.172 0.515 0.172v0.172l-0.515 0.172v0.086h0.258q0.172-0.086 0.258-0.086v0.086q-0.343 0.386-0.343 0.429v0.086h0.086q0.107-0.086 0.429-0.086-0.086 0.172-0.086 0.258l0.429-0.343h0.086v0.343l0.429-0.343v0.086q-0.279 0.494-0.601 0.687-0.172 0-0.172-0.172 0.086 0 0.086-0.086h-0.086q-0.322 0.258-0.515 0.258 0-0.086-0.086-0.086l0.172-0.343h-0.086q-0.279 0.172-0.429 0.172v-0.086q0-0.172 0.258-0.601h-0.172q-0.644 0.236-0.687 0.429h0.172q0.172-0.086 0.258-0.086v0.086q-0.258 0.236-0.258 0.601l0.429-0.086q0 0.236-0.859 0.343v-0.258l0.172-0.258h-0.086l-0.429 0.086-0.086-0.172q0.451-0.451 1.116-0.773 0.172-0.343 0.429-0.343v-0.086q0-0.215-0.343-0.258v-0.086q0-0.172 0.258-0.172v-0.086l-0.343-0.429 0.172-0.258q-0.193 0-0.258-0.429l-0.172 0.086q-0.258-0.15-0.859-1.116v-0.086h0.172q-0.515-0.88-0.515-1.030l0.343 0.258q-0.773-1.288-0.773-1.545l0.601 0.687v-0.086zM4.547 8.662v-0.086q0-0.129 0.258-0.258h0.343q0.601 0.322 0.601 0.429 0 0.172-0.944 0.429l-0.086-0.172 0.172-0.258zM5.063 30.298v-0.086q0.322 0.258 0.601 0.258h0.172q1.395 0 2.318-2.49-0.708 0.601-1.631 0.601h-0.172v-0.172h0.258q1.889-0.408 1.889-2.404v-0.515h0.086q0.236 0 0.343 1.975-0.064 1.030-0.258 1.030 0-0.086-0.086-0.086v0.258h0.172v0.086q-0.343 0-0.343 0.687-0.451 0.944-0.859 0.944 0.343-0.494 0.343-0.773-1.030 1.116-1.975 1.116-0.579 0-0.859-0.429zM5.148 13.814q0 1.545 0.687 2.662 0.537-0.172 0.601-0.429-0.944-2.018-0.944-3.778v-0.687h-0.086q-0.258 1.073-0.258 2.232zM5.406 7.632v-0.086h0.515q0.773 0.172 0.773 0.429-0.15 0.086-0.343 0.086v0.086h0.258v0.172l-0.601 0.172h-0.515v-0.258q0.773-0.086 0.773-0.258-0.859-0.107-0.859-0.343zM5.492 6.945l0.172-0.086q0.816 0.215 0.944 0.515l-0.172 0.086q-0.816-0.215-0.944-0.515zM5.492 6.259v-0.086q0.021-0.172 0.172-0.172 0.687 0.73 0.687 0.859l-0.172 0.086zM6.179 20.51v-0.086h0.773q1.975-0.172 1.975-1.46v-0.687q0.172 0 0.258 0.601-0.086 0.343-0.086 0.601 0.279 0 0.515-1.202 0-0.687-0.515-1.288h0.086q0.687 0.622 0.687 1.116h0.086v-0.258q0-1.223-1.030-1.803v-0.172h0.086q1.202 0.816 1.202 1.631v0.687l-0.086 0.515v0.086h0.086q0.021-0.322 0.343-0.515v0.172q-1.159 2.318-3.52 2.318h-0.601q-0.129 0-0.258-0.258zM6.436 3.769h0.172q0.15 1.009 1.374 2.662l0.172 0.773q-1.417-1.545-1.717-3.434zM6.951 11.152v-0.172l1.631-0.601v0.172q-1.181 0.601-1.631 0.601zM7.209 10.294v-0.172q0.064 0 0.515-0.086v0.172zM7.552 12.268v-0.172q0.021-0.172 0.172-0.172 0 0.386 0.086 0.515h-0.086q-0.172 0-0.172-0.172zM7.638 17.849v-0.086q0.129 0 0.343 0.343h-0.086q-0.129 0-0.258-0.258zM7.896 7.375v-0.086q1.374 0.751 2.232 1.545h-0.172q-1.395-0.687-2.060-1.46zM7.982 11.753q0.021-0.172 0.172-0.172h0.086v0.172h-0.258zM8.067 23.258v-0.258h0.172v0.429q-0.172 0-0.172-0.172zM8.153 10.208v-0.172q0.579 0 1.717 1.030h0.086l0.429-0.086q0.258 0.429 0.601 0.429 0.365 0 0.601-0.687-0.172-0.515-0.343-0.515h-0.172l-0.258 0.172q0.172 0.279 0.172 0.429h-0.172q-0.172 0-0.172-0.172v-0.343l0.343-0.429q-0.794-0.687-1.46-0.687h-0.172v-0.172h0.086q1.159 0 2.060 0.944v-0.086q0-0.365-1.116-1.202v-0.086q0.622 0 1.288 1.030h0.086v-0.258q0.172 0.021 0.172 0.172v1.116q0 0.944-0.859 1.030h-0.086q-0.773-0.343-1.374-0.343-0.859-1.116-1.46-1.116zM8.497 8.319h0.343q0.601 0.322 0.601 0.429l-0.172 0.086h-0.515l0.172-0.258q-0.429-0.107-0.429-0.258zM8.754 9.521v-0.172q1.352 0 1.803 0.687-0.193 0-0.258 0.429 0.086 0 0.086 0.086l-0.172 0.086q-0.472 0-0.687-0.429v-0.086h0.086q0.279 0.172 0.515 0.172l0.086-0.172q-0.322-0.601-1.46-0.601zM10.986 10.895v-0.086q0.086 0 0.258-0.086v0.172h-0.258zM11.072 10.465l0.172-0.086 0.086 0.172-0.172 0.086zM11.244 11.753v-0.086h0.429q0.3 0 1.030 2.49h-0.172q0-0.665-1.288-2.404z" fill="#000000"></path>
</svg>
