<?xml version="1.0" encoding="utf-8"?>
<!-- Generated by IcoMoon.io -->
<!DOCTYPE svg PUBLIC "-//W3C//DTD SVG 1.1//EN" "http://www.w3.org/Graphics/SVG/1.1/DTD/svg11.dtd">
<svg version="1.1" xmlns="http://www.w3.org/2000/svg" xmlns:xlink="http://www.w3.org/1999/xlink" width="41" height="32" viewBox="0 0 41 32">
<g id="icomoon-ignore">
	<line stroke-width="1" x1="" y1="" x2="" y2="" stroke="#449FDB" opacity=""></line>
</g>
	<path d="M0.5 8.719q0.484-0.875 1.625-0.875 0.125 0 0.625 0.125l0.063-0.125q-0.172-0.75-0.5-1.125v-0.125q0.016-0.125 0.125-0.125h0.125q1.125 0.859 1.125 1.563v0.75q-0.188 0.703-1 1.938-0.25 0.75-0.25 1.125 0 0.781 0.938 0.875 0.828-0.078 3.813-2.313 0.688-0.313 1.125-0.313h0.188q0.125 0.016 0.125 0.125-0.5 0.766-0.938 2-0.609 0.141-1.375 0.438-1.578 1.188-2.313 1.188h-0.75q-1.594 0-1.813-1.938 0.188-0.984 0.688-2.25 0-0.188 0.063-0.438 0-0.422-0.5-0.625l-1.063 0.313q-0.125 0-0.125-0.188zM4.938 18.656v-1.188q0.563-1.25 1.438-1.25 1.563-0.484 1.563-3.25 0-2.422 2.438-3.5 0.297-0.188 0.938-0.188h0.625q0.125 0.016 0.125 0.125-0.25 0.25-1.313 0.75-1.25 1.016-1.25 2.063v0.125q0.109 0.75 0.625 0.75h0.25q0.609 0 1.5-2.563 0.75-1.313 1.313-1.313 0.063 0.125 0.063 0.188-0.25 0.438-0.5 1.313v1.25q0 2.172 2.188 3.375 0.953 0.188 1.75 0.25 1.031 1.938 2.188 2.313 0.156 0 0.5 0.188 0.625-0.109 0.625-0.563v-0.125q0-1.094-3.688-2.563-1.625-0.578-2.375-1.813-0.313-0.531-0.563-1.188v-0.438q0-0.141-0.063-0.25 0.328-2.313 0.938-2.313 5.938-3.594 7.938-3.813 1.656 0 2.938 1.563 1.031 0.672 2.938 1.313 0.875 0.547 1.375 1.5 1.078 2.813 1.563 3.313v0.125q0 0.125-0.125 0.125h-0.063q-1.828-1.719-2.5-2.875-1.891-1.75-3.375-1.75-1.219 0-1.813 1.25-0.063 0.547-0.063 0.688 0 0.891 1.75 2 1.797 0.625 3.438 1.063 1.813 0.734 1.813 1.688-0.406 0.719-1.25 1.813v0.063h0.563q0.125 0.016 0.125 0.125-1.281 0.906-1.688 1.313 0 0.063-0.625 0.625h-0.063q-0.484-0.688-0.688-0.688-0.688 0.234-0.688 1.438 0.125 1.281 0.125 1.75v0.313l-0.938 0.5q-0.141 0-1.875 1.813-2.547 0.422-3.75 1.5h-0.188q-0.359-0.188-0.625-1.375h0.063l-0.063-0.125v-0.25q0.406-1.5 1.438-1.5 0.109 0.063 0.25 0.063t0.25-0.063q0.063 0 0.063 0.063 2.188-0.359 2.188-1.125-0.078-0.016-1.375-1.438-0.219 0-0.563 0.063-2.594 0-4.25-2.563-0.344-0.5-0.5-0.5-0.203 0.125-0.375 0.125h-0.313q-0.984 0-2.813-1.688-0.547-0.25-0.688-0.25-0.313 0-0.625 1-0.922 1.938-2.375 2.5-1.75 0.734-1.75 1.563 0 1.203 2.063 2.813v0.188q0 0.281-1.25 0.688h-1.25q-0.75 0-0.75-1.063-0.125 0-0.938-4.063zM15.75 10.844q0 2.328 3.625 3.75 1.406 0.75 1.938 1.875 0.875 1.125 2.125 1.125 1.469 0 1.813-1.5v-0.063q0-1.516-2.375-2.563-1.328-0.781-1.688-1.625-0.313-0.625-0.313-1 0-0.156 0.375-2.5 0-1.188-1.438-1.188-1.875 0-3.875 3-0.125 0.688-0.188 0.688zM16.875 10.844v-0.563q0-1.234 1.813-2.188h0.563q0.969 0 1.125 1.188v0.313q-0.438 1.656-0.438 2.125v0.188q0 0.844 1.188 2.188v0.063q0 0.125-0.125 0.125h-0.188l-2.438-1.25q-1.5-1.156-1.5-2.188zM21.75 15.219v-0.5q0-0.25 0.75-0.375 1.344 0 2.063 1.313l-0.063 0.313q0 0.063 0.063 0.188-0.313 0.938-1 0.938-1.391 0-1.813-1.875zM22.125 23.781h0.25v-0.063h-0.25v0.063zM22.688 23.719h0.188q0.125 0 0.125-0.125l-0.125-0.063h-0.063q-0.125 0.016-0.125 0.125v0.063zM23 23.344q0.016 0.125 0.125 0.125h0.063v-0.188q-0.125 0.063-0.188 0.063zM24.125 10.281v-0.125q0.141-0.438 0.625-0.75h0.188q2.422 0 5.313 4.063v0.125q0 0.125-0.125 0.125h-0.188q-1.656-1.078-3.063-1.375-2.75-1.031-2.75-2.063zM24.5 21.719q0.188 0 0.313 0.188 0.297-0.188 0.375-0.188v-0.063q-0.25 0-0.25-0.125 0.125 0 0.125-0.125v-0.188l-0.25 0.25-0.125-0.063q0 0.063-0.063 0.063l0.063 0.125v0.063l-0.125-0.063zM25.063 20.719q0.25 0.438 0.25 0.563h0.063v-1.813q-0.094 0-0.188 0.188l0.063 0.313q-0.125 0.375-0.188 0.375l0.063 0.125q0 0.141-0.063 0.25zM27.125 20.031v-0.188q0.359-0.844 0.625-1h0.063q0.125 0 0.313 1.938l0.563 1.313h0.063q0-1 0.438-1.188h0.5q0.969 0.703 1.25 1.5v0.563q0 0.531-0.813 0.75-0.625 0-1.25-1.438l-0.25 0.188h-0.188q-1.25-1.328-1.25-2.25-0.063 0-0.063-0.188zM28.125 19.156v-0.375q0-0.438 0.438-0.75h0.063q0.234 0 0.313 1-0.188 1.188-0.375 1.188h-0.063q-0.375-0.188-0.375-1.063zM28.938 20.281q0-0.313 0.125-0.313l-0.063-0.125q0.25-1.297 0.25-1.563l-0.188-0.688v-0.063q0-0.078 1-0.375l0.063-0.125q-0.563-0.219-0.563-0.313 0-0.281 1.625-0.75 0.125 0.016 0.125 0.125 0 0.188-0.125 0.5 0.078 0.875 0.25 0.875 0.734 0 0.938-1.625l0.125-0.063 0.125 0.188v0.813q0 0.813-2.063 2-0.703 0.672-1.375 1.688h-0.125q-0.125 0-0.125-0.188zM29.438 22.094q0.125 0 0.125-0.125v-0.125q-0.125 0.016-0.125 0.125v0.125zM29.75 20.469q0-0.563 1.375-1.75 1.938-0.938 1.938-2v-0.188q-0.25-1.016-0.25-1.25 0.141-0.141 0.938-0.5h0.188q0.359 0 1.188 2.938 0 0.703-1.25 1.875l-0.25 0.063v0.125q0.313 0 0.313 0.188-0.266 0.563-0.813 0.563-0.25-0.063-0.25-0.25h-0.125q-0.422 0.344-1.375 1.813h-0.188q-0.25-0.234-0.563-0.875zM30.375 15.781q0-0.938 0.813-2.188h0.188q0.359 0.266 0.875 1.625-0.094 0.25-0.188 0.25h-0.375q-0.453 0-1.063 0.5h-0.063q-0.094 0-0.188-0.188zM30.625 20.531h0.125q0.875-0.938 0.875-1.125-0.969 0.75-1 1.125zM31.375 16.781q0-0.063 0.063-0.063l-0.063-0.125q0.125-0.688 0.563-0.688 0.188 0.234 0.188 0.438v0.188q0 0.375-0.375 0.625h-0.188q-0.188-0.063-0.188-0.375zM31.75 12.469v-0.125q0-1.109 2.938-1.875 1.625-0.594 2.313-1.813 0.156-0.5 0.313-0.5 0.094 0 0.188 0.25 0 1.422-1.625 2.75-2.438 1.016-2.438 1.938l0.313 1.25q0 0.219-1 0.5h-0.063q-0.938-0.813-0.938-2.375zM32.125 21.531v-0.063q0-0.328 0.5-0.75h0.188q0.141 0 0.25 0.063 0.109-0.063 0.25-0.063v0.063q0.172 0 1-0.438 0.391 0.719 1.688 1.188 0.188 0 2 1.5 1.75 0.672 1.75 1.813v0.438q0 0.094-0.188 0.188h-2.625q-0.484 0-0.563-0.938 0-0.5-0.875-0.5-1.313-0.328-1.313-0.75-1-1.313-2.063-1.75zM33.438 19.281h0.063l0.125-0.063q-0.063-0.125-0.063-0.188h-0.125v0.25zM34.188 18.594h0.063q0.094 0 0.25-0.25v-0.188q-0.156 0.25-0.313 0.25v0.188zM34.563 19.344q0.188-0.703 0.563-0.938h0.063l0.938 1.25q0.5 0.25 0.813 0.25 0.563 0 2.813-1l0.938-0.25q0.313 0.078 0.313 0.188v0.125q-0.328 0-2.938 1.875-0.438 0.375-1.313 0.375-1.156 0-2.125-1.438zM34.563 17.719l0.125 0.063v-0.188q-0.125 0.016-0.125 0.125zM36.25 22.406q0.188 0 0.875 0.813 0.063 0 0.188 0.063h0.063v-0.063h-0.125v-0.063l0.063-0.125q-0.375-0.125-0.875-0.813h-0.188v0.188zM37.5 23.406l0.25 0.063v-0.188h-0.25v0.125zM38.375 24.344l0.188 0.125h0.063v-0.375h-0.188q0 0.031-0.063 0.25zM38.5 23.844q0.063 0 0.188 0.063v-0.063q0-0.125-0.125-0.125h-0.063v0.125zM38.688 24.094h0.188q0-0.125-0.125-0.125h-0.063v0.125zM39.125 24.969h0.063q0.125 0 0.125-0.125l-0.125-0.063q0 0.063-0.063 0.188z" fill="#000000"></path>
</svg>
