<?xml version="1.0" encoding="utf-8"?>
<!-- Generated by IcoMoon.io -->
<!DOCTYPE svg PUBLIC "-//W3C//DTD SVG 1.1//EN" "http://www.w3.org/Graphics/SVG/1.1/DTD/svg11.dtd">
<svg version="1.1" xmlns="http://www.w3.org/2000/svg" xmlns:xlink="http://www.w3.org/1999/xlink" width="19" height="32" viewBox="0 0 19 32">
<g id="icomoon-ignore">
	<line stroke-width="1" x1="" y1="" x2="" y2="" stroke="#449FDB" opacity=""></line>
</g>
	<path d="M1.529 28.189q0.386-2.146 1.975-2.146 1.009 0 2.404 1.46 0.558 0.429 0.944 0.429 1.288 0 1.288-1.374v-0.601q0-0.515-0.515-0.773h-0.172q-0.429 0.236-0.429 0.687 0.107 0.429 0.258 0.429h0.258l0.172-0.086v0.086q0 0.129-0.343 0.258-0.558 0-0.687-0.773v-0.258q0-0.708 0.944-0.944h0.258l0.429 0.086q0-3.52 2.747-6.868 1.889-3.177 1.889-6.525 0-0.622-0.172-1.116l0.172-0.086q0.343 0.558 0.343 1.288v0.859q0 3.391-2.833 8.929-0.258 0.579-0.515 1.803 0 1.481 1.202 2.232h0.086v0.172h-0.086q-0.365 0-1.374-0.687 0.172 0.901 0.172 1.374 0 2.983-2.49 3.692v-0.086q1.545-0.966 1.545-2.318v-0.258h-0.086q-0.3 1.631-1.631 1.631h-0.258q-0.859 0-2.146-1.374 0 0.451-0.859 0.515h-0.172q-0.429-0.215-0.429-0.687v-0.172q0.021-0.172 0.172-0.172h0.086l-0.086 0.343q0.086 0.172 0.086 0.258h0.343q0.172-0.043 0.343-0.429 0-0.365-0.773-0.515-0.773 0.258-0.773 0.773v0.172q0 0.279 1.116 1.46 0.086 0.472 0.086 0.773-0.258 1.030-0.944 1.030l-0.086-0.172q0.429-0.215 0.429-0.687 0-0.451-1.202-1.288 0-0.086-0.086-0.086v0.343q0 0.279 0.258 0.601v0.086h-0.172q-0.386 0-0.687-1.288zM2.388 24.411v-0.343q0.515-1.288 1.116-1.288h0.086v0.172q-0.258 0-0.258 0.172v0.429q-0.343 0-0.515 0.343l0.086 0.172 0.172-0.086h0.601q0.107 0.086 0.773 0.429 0.451 0 0.515-0.859h0.086l0.343 0.258q1.288-0.88 1.288-1.803l-0.172-0.343 0.172-0.086q0.343 0.644 0.343 1.030 0 0.601-1.631 1.889 0 0.129-0.601 0.601h-0.343q-0.193 0-1.116-0.601-0.086 0-0.258-0.086-0.429 0.172-0.601 0.172zM2.388 12.649q0.021-0.172 0.172-0.172 0 0.107 0.515 0.429-0.129 0.343-0.258 0.343zM2.474 11.705v-0.172h0.086q0.494 0.258 0.687 0.258v0.258q0 0.172-0.172 0.172h-0.086q-0.129 0-0.515-0.515zM3.075 13.594v-0.086l0.086-0.429h0.172q0 0.73 2.146 0.944 0.451-0.086 0.515-0.086 0.258 0.794 0.859 1.202 0.73 0.172 0.944 0.172 0.859 0 1.288-1.975-1.030 0.665-1.030 1.030h-0.172v-0.172q0.751-1.975 2.49-1.975h0.086l0.429 0.086v0.172h-0.258q-0.88 0-1.288 2.318-0.172 0-0.343 0.601 0.107 0 0.429 0.429l-0.172 0.086h-0.687l-0.172-0.086v0.086q0.343 0.386 0.343 0.429v0.086h-0.086q-0.343 0-1.288-0.429l0.086 0.172-0.172 0.086q-0.107 0-1.803-1.545-0.859-0.429-2.318-0.944zM3.075 11.018v-0.086h0.086q0.472 0 0.687 0.429l-0.258 0.172h-0.086q-0.129 0-0.429-0.515zM3.161 12.392q0.086-0.172 0.086-0.258h0.258v0.172l-0.086 0.172 0.944 0.773v0.086q-1.202-0.215-1.202-0.944zM3.676 11.876q0-0.343 0.429-0.515 0 0.086 0.086 0.086-0.064 0.343-0.172 0.343 0.129 0.451 0.515 0.859l-0.172 0.086q-0.687-0.73-0.687-0.859zM3.847 9.644q0.3-0.601 0.429-0.601h0.086v0.773l-0.086 0.172q-0.386-0.172-0.429-0.343zM3.933 23.124v-0.172q0.859-0.236 0.859-1.116-0.086-0.472-0.086-0.687l-0.343 0.258q0-0.086-0.086-0.086l0.258-1.202h-0.086l-0.343 0.258q0-0.086-0.086-0.086 0.472-1.116 2.318-1.803 2.662-0.601 2.662-1.631l-0.086-0.172 0.172-0.086 0.086 0.172v0.601q0 1.073-2.49 1.717-1.46 0.816-1.46 3.177-0.708 0.859-1.288 0.859zM4.019 10.675l0.086-0.172q0.73 0.408 2.060 2.232 1.181 0.708 1.46 1.116h-0.086l-0.515-0.086v0.086l0.258 0.429-0.172 0.086q-0.966-1.030-1.288-1.030l-0.429 0.343h-0.172l0.086-0.859q-0.172-1.288-0.515-1.288h-0.172v0.343h-0.172l-0.086-0.429v-0.086l0.086-0.172q-0.107 0-0.429-0.515zM4.448 9.558q0.537-3.263 1.889-3.263 0-0.086 0.258-0.086 0.172 0.279 0.172 0.429-0.429 0.343-0.601 0.343v0.086h0.086q0.558-0.172 0.773-0.172 0.129 0 0.343 0.343v0.258q-0.601 1.352-0.601 1.631v0.172q0.429 1.138 0.429 1.202v0.086h-0.343l0.086 0.429-0.172 0.086q-0.15-0.086-0.343-0.086l0.086 0.172v0.086h-0.086q-0.944-0.193-0.944-0.773 0.086 0 0.086-0.086l0.172 0.086h0.258l0.086-0.429q-0.172-0.279-0.172-0.429h-0.086q-0.107 0-0.429 0.601 0-0.086-0.086-0.086v0.515h-0.172q-0.687-0.343-0.687-1.116zM5.307 9.043h0.086q0.451-0.172 0.687-0.172 0 0.129 0.258 0.258v-0.172q0-0.172-0.172-0.172h-0.258l-0.601 0.172v0.086zM5.479 8.271q0.515-0.193 0.515-0.343h-0.086q-0.279 0.172-0.429 0.172v0.172zM5.479 5.437h0.258q0 0.258 0.601 0.258 0-0.193-0.086-0.343l0.172-0.343q0.601 0.429 1.202 0.429v0.172l-1.545 0.601h-0.258q-0.193 0-0.343-0.773zM5.994 20.548q0-1.009 2.662-1.975 0-0.129 0.343-0.343 0 0.086 0.086 0.086-0.064 0.622-2.49 1.889-0.258 0.515-0.258 0.687 0.172 0.021 0.172 0.172v0.086h-0.172q-0.343-0.15-0.343-0.601zM6.595 3.034v-0.601h0.258l0.086 0.515q-0.086 0.172-0.086 0.258h-0.086q-0.172 0-0.172-0.172zM6.681 12.907v-0.172q0-0.537 0.773-1.46v-0.258l-0.515-1.717q0-0.472 0.687-1.889-0.601-1.030-0.601-1.202v-0.172q0.15-0.343 0.601-0.343h0.172q0.494 0.88 1.46 1.202 0.343 0.451 0.343 0.773v0.172h-0.086q0-0.472-1.374-1.030 0 0.172 0.172 0.601l-0.687 1.717q-0.086 0.343-0.086 0.601 0 1.46 1.545 1.975v0.172q-0.472-0.086-0.687-0.086-1.331 0-1.545 1.116h-0.172zM6.766 3.549v-0.172q0-0.129 0.258-0.258 0 0.579 1.116 1.631 0.343 0.494 0.343 0.687h-0.086q-1.631-1.266-1.631-1.889zM7.024 21.664v-0.172q1.073-1.567 3.434-4.207 1.545-2.060 1.545-3.692 0-1.095-1.374-1.975v-0.086h0.429l0.429 0.086-0.258-0.343v-0.086h0.086q0.944 0 1.202 1.975 0 2.619-3.692 7.298-0.773 1.889-0.859 1.889-0.365-0.687-0.944-0.687zM7.196 2.432v-0.515q0.021-0.172 0.172-0.172h0.086q0 0.258 0.172 0.601l-0.343 0.258zM7.282 2.948v-0.172q0-0.193 0.429-0.258l0.086 0.172q-0.172 0.021-0.172 0.172v0.086q0 0.515 0.429 1.116l-0.172 0.086q-0.601-0.622-0.601-1.202zM7.883 9.816v-0.258q0-0.665 0.515-1.717 0-0.601 0.172-0.601 0.343 0.515 0.343 0.944v0.515q-0.343 1.052-0.343 1.288v0.258q0.193 1.116 0.859 1.116v0.172q-1.159 0-1.545-1.717zM7.883 2.69q0.172-0.386 0.343-0.429h0.343v0.258q-0.343 0.021-0.343 0.343l0.172 0.687h-0.172q-0.343-0.794-0.343-0.859zM8.054 2.003v-0.258l0.086-0.429h0.172l0.172 0.687-0.343 0.172zM8.312 5.953v-0.086l0.086-0.172q2.662 0 3.778 2.146 0 0.258 0.172 0.687l-0.172 0.086q-0.601-1.288-1.631-1.803h-0.086q0.494 0.687 1.116 2.576h-0.086q-0.408-0.193-1.030-1.717-0.944-1.095-1.803-1.288 0-0.043-0.343-0.429zM8.655 4.579v-0.258q0.386 0 0.601-0.944v-0.429q0-0.172-0.172-0.172t-0.258 0.601q-0.172 0-0.172-0.172v-0.515q0-0.129 0.343-0.343h0.258q0.343 0.258 1.030 2.146 0.773 1.266 0.773 1.631-0.086 0-0.086 0.086-1.202-0.687-1.803-0.687v-0.172q0.601-0.215 0.601-0.429v-0.172q0-0.129-0.258-0.258h-0.429zM8.913 9.902q0.258-1.653 0.258-1.803-0.086-0.172-0.086-0.258h0.086q0.515 0.343 0.515 0.859v0.172q0 0.365-0.086 0.944 0 0.515 1.288 1.288v0.172h-0.086q-1.889-0.408-1.889-1.374zM8.913 2.089q0.086-0.601 0.258-0.601h0.086q0 0.215 0.086 0.687l-0.172 0.086h-0.086q-0.172 0-0.172-0.172zM9.686 14.967q0-1.352 1.030-1.975v0.086q-0.515 0.579-0.515 1.717 0.064 0.687 0.258 0.687h0.086q0.773-1.374 0.773-2.232h0.172v0.172q0 2.232-1.374 3.348h-0.086q-0.279 0-0.343-1.803zM9.857 7.498q0.386 0.064 1.116 1.889 0.665 0.601 1.202 0.601v0.172h-0.687l-0.601-0.086 1.030 0.859v0.086h-0.086q-1.889-0.494-1.889-1.374v-1.545q-0.086-0.365-0.086-0.601zM10.887 22.437q0.3-1.116 0.944-1.116v0.086q-0.429 0.451-0.429 0.773v0.172l0.086 0.172q0.086 0 0.515-0.343h0.086q-0.172 0.537-0.172 0.601l0.343 0.172q1.116-0.386 1.116-1.030h0.258l0.515 0.258q0.859-0.3 0.859-0.687 0.172 0.021 0.172 0.172v0.343q-0.193 0.451-3.091 1.374h-0.343q-0.665 0-0.859-0.944zM10.887 20.977v-0.086q1.116-2.833 1.803-2.833h0.086q0.343 0 0.515 0.343v0.258q0 1.181-0.859 2.060h-0.086q0.343-0.687 0.343-1.116v-0.172q0-0.172-0.172-0.172l-1.545 1.717h-0.086zM11.231 7.927h0.086l1.46 1.288h0.343q0.258 0 0.258-0.343h0.172q0 0.944-0.859 0.944-0.837 0-1.46-1.889zM12.605 22.522v-0.086q0-0.923 1.374-3.348 0.086-0.343 0.086-0.687-0.15-0.944-0.859-0.944h-0.172l-0.429 0.086v-0.086q0-0.258 0.773-0.429h0.515q1.073 0.215 1.288 1.288v0.172h-0.172v-0.172h-0.086q0 0.773-1.631 2.919-0.515 0.901-0.515 1.288h-0.172zM13.807 21.235v-0.086q0.429-0.365 0.601-0.687l-0.086-0.172v-0.172h0.172q0.129 0 0.258 0.258v0.086q-0.107 0.773-0.944 0.773zM13.978 21.836v-0.172q0.472 0 0.773-0.773h0.086q0.172 0.021 0.172 0.172v0.343q0 0.258-0.773 0.429h-0.258zM14.665 20.119v-0.086q0-0.107 0.429-0.429h0.086v0.086q-0.107 0.601-0.343 0.601-0.172 0-0.172-0.172zM15.008 20.805q0.429-0.601 0.515-0.601h0.086q-0.215 0.859-0.429 0.859zM15.266 21.578q0.429-0.601 0.515-0.601 0 0.086 0.086 0.086-0.3 0.687-0.429 0.687-0.172 0-0.172-0.172z" fill="#000000"></path>
</svg>
