<?xml version="1.0" encoding="utf-8"?>
<!-- Generated by IcoMoon.io -->
<!DOCTYPE svg PUBLIC "-//W3C//DTD SVG 1.1//EN" "http://www.w3.org/Graphics/SVG/1.1/DTD/svg11.dtd">
<svg version="1.1" xmlns="http://www.w3.org/2000/svg" xmlns:xlink="http://www.w3.org/1999/xlink" width="32" height="32" viewBox="0 0 32 32">
<g id="icomoon-ignore">
	<line stroke-width="1" x1="" y1="" x2="" y2="" stroke="#449FDB" opacity=""></line>
</g>
	<path d="M0.5 11.531v-0.063q0-0.156 1.688-0.5h0.125q0.078 0 0.313 0.313 0 0.094-0.188 0.188-1.156 0.063-1.938 0.063zM1.625 20.469q0.75-0.813 2.25-2.625h0.063q0.563 0.406 0.625 0.563l-2.813 2.188q-0.125 0-0.125-0.125zM2.813 10.719q0.5-0.422 2.438-0.938h0.125l0.438 0.438v0.063q-0.234 0.297-2.688 0.875-0.313-0.094-0.313-0.438zM4.25 17.531v-0.063q0.484-0.797 1.375-1.625 0.813 0.484 0.813 0.563-0.031 0.203-1.625 1.563h-0.063q-0.5-0.344-0.5-0.438zM5.688 9.531q0-0.047 1.625-0.75 0.969-0.563 1.188-0.563 0.297 0.078 1.063 0.813v0.125q-0.016 0.094-2.688 0.875-0.438 0.188-0.625 0.188zM5.813 15.406q0.094-0.172 2.438-2.188h0.063q0.5 0.391 0.5 0.563 0 0.203-2.063 2.375h-0.063q-0.75-0.516-0.875-0.75zM8.5 21.719q0.453-0.734 1.063-2.25h0.063q0.5 0.156 0.5 0.25v0.063q0 0.453-1.5 2.125-0.125 0-0.125-0.188zM8.563 12.844q0-0.234 1.063-1.438 0.563-0.969 0.938-2.063h0.063q1 1.219 1 1.438 0 0.578-0.688 1.5-0.156 0-0.313-0.438h-0.313q-1.016 1.547-1.125 1.625-0.078 0-0.625-0.625zM8.938 7.969v-0.063q0-0.094 1.375-0.813l1.438-1.125h0.063q0.125 0.016 0.125 0.125 0 0.531-0.063 2.438 0.125 1.516 0.125 1.75h-0.188q-0.875-1.078-1.063-1.688h-0.188q0 0.156-0.375 0.375h-0.125q-0.297-0.359-1.125-1zM9.625 19.031q0.625-2.359 0.625-2.5h0.125q1 0.203 1 0.375-0.719 2.438-1.063 2.438-0.219 0-0.688-0.313zM10.313 15.844q0.281-0.688 0.438-1.688h0.063q0.938 0.141 0.938 0.438-0.203 1.813-0.313 1.813-1.125-0.313-1.125-0.563zM10.75 13.594v-0.063q0.609-0.609 1.188-2.438h0.063q0.5 0.656 0.5 1.063-0.375 1.406-0.563 1.875h-0.063q-1-0.234-1.125-0.438zM12.25 7.906q0.078-0.313 0.188-0.313 0.813 1.469 0.813 2.375l-0.688 0.5h-0.063q-0.188 0-0.188-1.438v-0.875q0-0.141-0.063-0.25zM12.688 12.094q0-0.047 0.063-0.375l-0.063-0.125q0.125-0.391 0.313-0.438h0.063q0.484 0 0.688 0.375v0.438q-0.563 2.25-0.813 2.25h-0.063q-0.125 0-0.125-0.125-0.063-1.469-0.063-2zM12.75 5.094q0.016-0.125 0.125-0.125 0.5 0.313 1.375 1.188v0.625q0 0.391 0.25 2.438-0.594 0.313-0.875 0.313zM12.875 10.719q0.75-0.938 2.125-1.25h0.688q1.359 0 2.063 1.75v0.188q-0.063 0-0.063 0.063l-0.625-0.125q-0.531 0-1.188 0.375h-0.063q-0.438-0.688-0.938-0.688-0.359 0.188-0.625 0.438h-0.063q-0.359-0.688-0.875-0.688h-0.063l-0.313 0.063zM12.938 16.406q0-0.203 0.688-2.875h0.063q0.234 0 0.563 2.75 0.125 0 0.125 0.313-0.188 0.063-0.188 0.125-1.25 0-1.25-0.313zM13 17.156v-0.063q0.016-0.125 0.125-0.125h0.063q0.328 0 1.063 0.063v0.125q-0.156 1.125-0.375 1.125-0.75 0-0.75-0.313-0.125-0.563-0.125-0.813zM13.25 21.344l0.063-0.313q-0.063-2.109-0.063-2.438h0.5q0.125 0 0.125 0.188-0.266 2.813-0.438 2.813-0.063 0-0.188-0.25zM13.313 4.906v-0.063q0.016-0.125 0.125-0.125 2.078 0.734 2.188 1l-0.938 0.313h-0.063q-0.109 0-1.313-1.125zM14.313 14.156q0-0.063 0.063-0.063l-0.063-0.313v-0.438q0-0.063 0.063-0.063l-0.063-0.125v-0.75q0-0.938 0.563-0.938h0.125q0.344 0 0.5 0.313v0.063q-0.547 2.625-1 2.625h-0.125zM14.75 8.906q0.25-1.609 0.813-2.313 1.234-1.313 2.875-1.313 1.844 0 2.688 1.625v0.063q-0.984 0.313-2.188 0.5-0.625 0-0.625 0.625-0.328 1.891-0.5 2.063h-0.063q-1.156-1.109-1.938-1.125h-0.938q-0.125 0-0.125-0.125zM15.063 14.344q0.422-1.297 0.563-1.313l0.5 0.938v0.25q0 0.156-0.5 0.25h-0.438q-0.125 0-0.125-0.125zM16.188 13.531l0.188-0.125q0.563 0.656 0.938 2.063 0.313 1.672 0.313 2.813l-0.188 0.125h-0.75q-0.328 0-0.375-0.188 0.188-0.688 0.25-2.375-0.125-1.484-0.375-2.313zM16.313 12.281v-0.063q0-0.203 1.063-0.313h0.125q0.984 0 1.688 0.875v0.313q-1.031 1.438-1.688 1.438-0.422-1.297-1.188-2.25zM16.375 18.844q0.125 0 0.125-0.125l0.25 0.063q0.031 0 0.813-0.063 0 0.063 0.063 0.063-0.063 3.313-0.25 3.313h-0.5q-0.125 0-0.125-0.188 0-0.578-0.375-3.063zM16.813 22.531l0.188-0.125q0.063 0 0.063 0.063l0.125-0.063h0.125l0.188 0.125q-0.078 3.063-0.313 3.063-0.172-0.469-0.375-3.063zM18 10.531l0.188-0.125h0.688l0.375-0.063q0.297 0 1.188 1.125 0.672 0.484 1.125 1-0.266 1.25-0.438 1.25-1.766-1.563-2.875-2.25zM18.25 9.969q0.219-1.813 0.5-1.813l1.375 0.813v0.125q-0.625 0.969-0.75 1h-0.125q-0.203 0-0.313-0.063l-0.375 0.063h-0.188q-0.125 0-0.125-0.125zM19 7.844q0-0.141 3.438-0.938h0.125l0.063 0.125q-0.344 1.188-1.125 1.188-0.813 0.5-1.188 0.5-1.266-0.75-1.313-0.875zM20.063 10.594v-0.5q0.406-0.813 1.375-1.438h0.125l0.125 0.063q-0.125 0.625-0.125 1.125v0.188q0 0.219-1.375 0.688-0.125 0-0.125-0.125zM20.938 11.031q1.047-0.688 2.188-0.688 0.281 0 0.75 1.5l-0.188 0.125q-0.203 0-0.313-0.063l-1.438 0.188h-0.063q-0.938-0.766-0.938-1.063zM21.563 13.969q0.234-1.125 0.375-1.125h0.063q1.719 1.828 2.25 2.25v0.125q-0.531 0.625-0.875 0.625-1.813-1.766-1.813-1.875zM22.75 7.781v-0.125q0.297-0.625 0.375-0.625h0.063q0.203 0.219 0.938 2.375-0.281 0.313-0.688 0.313-0.688-1.688-0.688-1.938zM23.688 10.031q0.172-0.141 0.625-0.25l1.625 2.188q0 0.156-1.313 0.375h-0.063q-0.219 0-0.875-2.313zM23.813 16.219v-0.063q0.641-0.625 0.688-0.625h0.063q0.328 0.328 1.563 2.375 1 1.281 1 1.438l-0.25 0.188h-0.313q-0.391-0.328-2.75-3.313zM24.813 12.719q0-0.094 1.188-0.438 0.344 0 3.063 1.75l0.063 0.125q-0.094 0.563-0.375 0.563-1.703-0.891-3.813-1.813zM26.875 19.906q0.109-0.25 0.438-0.25 0.156 0.063 1.25 1.875v0.063q0 0.125-0.125 0.125-1.297-1.359-1.563-1.813zM29.313 14.969q0.109-0.5 0.25-0.5h0.063q1.016 0.656 2.063 2.063v0.063q0 0.125-0.125 0.125z" fill="#000000"></path>
</svg>
