<?xml version="1.0" encoding="utf-8"?>
<!-- Generated by IcoMoon.io -->
<!DOCTYPE svg PUBLIC "-//W3C//DTD SVG 1.1//EN" "http://www.w3.org/Graphics/SVG/1.1/DTD/svg11.dtd">
<svg version="1.1" xmlns="http://www.w3.org/2000/svg" xmlns:xlink="http://www.w3.org/1999/xlink" width="22" height="32" viewBox="0 0 22 32">
<g id="icomoon-ignore">
	<line stroke-width="1" x1="" y1="" x2="" y2="" stroke="#449FDB" opacity=""></line>
</g>
	<path d="M0.976 22.783h0.089l-0.089-0.177q0.266-1.861 0.62-1.861h0.266q0.133 0 0.266 0.266-0.089 1.285-0.089 1.418 0 3.656 2.747 6.026 1.485 1.063 3.191 1.063 1.152 0 2.659-1.152 0.554-0.177 0.709-0.177l0.089 0.177q-0.975 1.772-3.456 1.772-5.007 0-6.292-6.558-0.089-0.487-0.089-1.595h-0.089v1.063h-0.089q0.31 3.013 1.861 5.317 2.149 2.127 4.52 2.127h0.443q2.814 0 3.988-2.57 0.82-0.354 0.886-0.354l0.089 0.177v0.089q0 1.219-2.393 2.836-1.307 0.532-2.57 0.532h-0.266q-2.481 0-4.786-2.127-2.216-2.769-2.216-6.292zM1.508 20.39q0.31-0.753 1.595-1.861h0.177v0.089q-0.931 1.95-1.152 2.038 0-0.155-0.62-0.266zM4.078 23.58l0.177-0.089q2.481 3.722 5.317 3.722h0.089q3.434 0 4.697-3.279 0.354-1.152 0.354-1.95v-1.152q-0.886 0.487-1.595 2.659-0.089 0.598-0.089 0.975 1.241-1.241 1.241-2.836h0.177v0.443q0 2.459-2.127 4.077-0.177 0-0.177-0.266 0-3.013 2.127-7.178 0.266-0.642 0.266-0.798h0.177q1.329 1.329 1.329 4.077 0 3.523-3.279 5.406-1.241 0.709-2.304 0.709h-0.354q-4.121 0-6.026-4.52zM4.167 8.071v-0.177l2.304-0.443v-0.354l-2.127-0.709v-0.177q0.266 0 1.95 0.532v-0.089l-0.089-0.532v-0.532q0.332-4.055 0.975-4.343 0.244-0.443 0.354-0.443 0.177 0.443 0.177 0.709 0 1.174-0.886 3.456l-0.089 0.62q0.266 2.925 0.886 2.925 0 0.066 0.62 0.62v0.089q-0.133 0.665-0.62 1.507h-0.177v-0.089q0-0.377 0.089-0.709 0-0.354-0.532-1.684l-2.127 0.709h-0.089v-0.177q0.288 0 1.95-0.798v-0.089l-0.089-0.177q-1.972 0.354-2.481 0.354zM4.344 21.188q0-2.193 2.659-5.495 0.709-1.595 0.709-2.038v-0.266h0.177v0.089q0 1.905-2.216 5.406-0.443 0.931-0.443 1.684v1.063q0 1.108 1.418 2.925 1.418 1.019 3.013 1.152 0.089-0.177 0.089-0.266 0-3.035 1.772-7.090 0.532-1.44 0.532-2.481v-0.62q0-3.523-3.545-5.495v-0.089h0.089q2.725 0 4.165 4.343l0.089 1.063v1.241q0 1.485-1.595 5.849-0.354 1.219-0.354 2.747 0 0.731 0.177 1.684-0.399 0.266-1.772 0.266-2.193 0-4.343-3.013-0.62-1.396-0.62-2.659zM5.407 16.047q0-2.57 2.481-5.317 0.222-0.576 0.443-0.62 3.191 1.64 3.191 5.052 0 0.465-0.266 1.684h-0.177v-0.177q0-0.886-0.177-2.216-0.111 0-0.443 1.595-0.332 0.709-0.443 0.709l-0.089-0.177q0.266-0.576 0.266-1.241v-0.354q0-0.288-0.177-1.241h-0.089q0 2.481-0.62 3.013h-0.089l0.089-0.62v-0.443q0-1.086-0.177-2.038h-0.089q0 1.905-0.443 3.102h-0.177v-1.418q0-1.817-0.709-2.747-0.598 2.925-1.595 3.722h-0.089q0.62-1.861 0.62-2.57v-0.266q-0.886 1.108-0.886 2.481v0.798h-0.177q-0.177-0.665-0.177-0.709zM5.673 20.833q0-2.703 3.013-3.634 0.842-0.177 1.329-0.177h0.62v0.177q-2.481 0-3.811 2.127-0.266 0.908-0.266 1.772 0 1.086 1.507 2.57h0.266q0-1.174 2.659-6.115v-0.177h0.177v0.089q0 0.487-1.152 3.279-0.798 2.238-0.798 3.899v0.443q0 0.177-0.266 0.177-3.279-1.196-3.279-4.431zM6.914 5.147q0.199-0.886 0.443-0.886h0.089q1.285 0 1.95 1.152 0.776-0.421 1.418-0.443 1.329 0.244 1.329 0.62-0.199 0.709-1.241 1.95 0 0.776-1.152 0.975-0.886-0.177-0.886-0.886 0.354 0 0.975-0.886h0.886q0.886-0.576 0.886-1.063-0.443-0.266-0.886-0.266-1.329 0.133-1.329 1.329h-0.089q-0.487-0.089-0.709-0.089 0-0.199 0.266-0.886-0.244-1.063-1.241-1.063h-0.089q-0.177 0.022-0.177 0.177v0.354q0 0.842 0.975 1.418 0 0.554 0.354 0.886 0 0.62-0.62 0.62h-0.089q-0.886 0-0.886-1.152l0.089-0.62q-0.266-0.842-0.266-1.241zM7.003 17.377q0.532-1.174 0.975-2.659h0.177v1.152q0 1.152-0.532 1.418-0.465 0.177-0.532 0.177 0-0.089-0.089-0.089zM7.091 20.833q0-2.238 2.57-3.102h0.709v0.177q-1.529 2.326-2.304 4.963h-0.089q-0.886-1.086-0.886-2.038zM7.446 7.274h0.177v-0.266q-0.177 0.022-0.177 0.177v0.089zM7.446 4.969l0.266-0.177q0.975 0.288 0.975 0.975v0.266q0 0.133-0.266 0.266h-0.266q-0.709-0.487-0.709-1.329zM7.446 3.995v-0.089q0.222-0.443 0.709-0.443 0.62 0 1.595 0.798 0.443 0 1.329-0.089 1.241 0.244 1.241 0.532v0.443h-0.266q-0.31-0.266-1.063-0.354-0.399 0-1.595 0.354-0.665-1.152-1.95-1.152zM7.534 7.717l0.177 0.089v-0.266q-0.177 0.022-0.177 0.177zM7.623 5.235q0.133 0 0.266-0.266h-0.266v0.266zM7.712 3.108q0.177-0.377 0.177-1.418l-0.089-0.798 0.177-0.089q0.554 1.307 0.975 1.95-0.908 0.443-1.152 0.443 0-0.089-0.089-0.089zM7.889 8.426v-0.089q0.111 0 0.975-0.177 0.155 0.354 0.532 0.354v0.089q-0.089 0.266-0.532 0.266h-0.177q-0.798-0.177-0.798-0.443zM7.977 7.451l0.177 0.089v-0.266q-0.177 0.022-0.177 0.177zM8.243 6.122h0.089q0.177 0 0.177-0.177v-0.089q-0.133 0-0.266 0.266zM8.421 6.83l0.177-0.089q0.709 0.089 0.709 0.266v0.089q0 0.133-0.354 0.354h-0.177q-0.354-0.155-0.354-0.62zM8.509 3.286v-0.089q0.576-0.266 1.241-0.266h0.354q0.997 0 1.95 1.152l-0.177 0.089q-0.288-0.155-0.975-0.266-0.931 0.177-1.152 0.177-0.222-0.443-1.241-0.798zM8.598 9.489v-0.177h0.886q1.351 0 2.659-0.975l1.418 0.886h-0.089q-1.019-0.354-1.063-0.354v0.089q0 0.288 1.861 4.254 0.266 0.886 0.266 2.038v0.532q0 1.95-1.95 5.849-0.886 2.349-0.886 4.52v0.089h-0.177q-0.177-0.665-0.177-1.241v-0.089q0-2.216 1.684-6.558 0.354-1.905 0.354-2.393 0-3.567-2.57-5.583-1.485-0.886-2.216-0.886zM8.686 9.135v-0.177q1.972 0 2.481-1.507 1.418-1.174 1.418-3.722 0.864-1.507 1.329-1.772l0.089 0.177v0.709q0 1.108-1.329 4.254h0.177q0.399 0 1.418-0.177v0.177q-1.861 0.332-1.861 0.532v0.177q0.244 0 1.95 0.354v0.177q-1.817-0.266-2.216-0.266-1.551 1.063-2.747 1.063h-0.709zM9.484 7.805h0.266v-0.177h-0.266v0.177zM9.661 6.299q0-0.51 1.241-0.798l0.532 0.266q-0.354 0.886-1.241 0.886-0.532 0-0.532-0.354zM10.016 7.717h0.266v-0.089q0-0.177-0.177-0.177l-0.089 0.177v0.089zM10.459 6.21l0.177 0.089v-0.089q-0.089-0.177-0.089-0.266h-0.089v0.266zM10.991 5.856q0.022 0.177 0.177 0.177v-0.266h-0.177v0.089zM11.611 3.197q0-0.155 1.595-0.798-0.997 1.507-1.063 1.507z" fill="#000000"></path>
</svg>
