<?xml version="1.0" encoding="utf-8"?>
<!-- Generated by IcoMoon.io -->
<!DOCTYPE svg PUBLIC "-//W3C//DTD SVG 1.1//EN" "http://www.w3.org/Graphics/SVG/1.1/DTD/svg11.dtd">
<svg version="1.1" xmlns="http://www.w3.org/2000/svg" xmlns:xlink="http://www.w3.org/1999/xlink" width="22" height="32" viewBox="0 0 22 32">
<g id="icomoon-ignore">
	<line stroke-width="1" x1="" y1="" x2="" y2="" stroke="#449FDB" opacity=""></line>
</g>
	<path d="M2.667 13.35v-0.183q0.732 0.046 0.732 0.275v0.092q-0.092 0-0.732-0.183zM2.941 10.239v-0.183h0.457q0.183 0.023 0.183 0.183-0.092 0-0.092 0.092zM3.399 17.192v-0.183q0.092 0 0.732-0.183v0.183q-0.686 0.183-0.732 0.183zM3.49 13.532v-0.092q0.023-0.183 0.183-0.183h0.092q0.892 0.183 1.006 0.183 0.183-0.092 0.275-0.092v-0.092h-0.183v-0.183q1.304-0.32 1.83-1.098 0.366-0.595 1.647-1.555 0-1.006 0.915-1.006h0.366q0.343 0 0.823 0.366 0.114-0.366 0.823-0.366h0.275q0.755 0 1.006 1.189 0.32 0 2.287 2.104 0.983 0.366 1.098 0.366v0.183h-0.183v0.092l0.457 0.092q0.595-0.183 0.823-0.183h0.092q0.183 0.023 0.183 0.183v0.092q0 0.206-1.189 0.275-1.349-0.572-2.379-1.83l0.183 0.366h-0.092q-1.121-1.166-1.372-1.189 0 0.343-0.275 0.732-0.297-0.183-0.549-0.183h-0.64v0.092q1.921 0 2.744 2.013 0.755 1.83 1.098 1.921v-0.092q-0.457-0.778-0.457-0.915 0.114 0 1.006 1.098 0 0.114-0.457 0.457-0.549-0.595-1.921-3.019l-0.549-0.457q0 1.281-0.366 1.281 0-0.297-0.915-0.457h-0.183v0.092q0.801 0 1.281 0.823-0.092 1.555-0.457 1.555l-0.549-0.275h-0.183v0.092q0.435 0 0.732 0.457v0.183q0 1.83-1.372 2.287-0.983 0-1.372-1.555-0.114-0.137-0.183-0.915 0.48-0.457 0.732-0.457v-0.092h-0.092q-0.457 0.275-0.732 0.275-0.275-0.595-0.275-1.281v-0.366q0-0.366 1.189-0.732v-0.092h-0.092q-0.092 0-1.189 0.366 0-0.183-0.183-1.098-0.938 0.846-2.104 3.11l-0.366 0.275-0.366-0.457q0.64-0.892 0.915-1.006v0.092l-0.366 0.64v0.092h0.183q1.395-3.11 2.013-3.385 0.846-0.457 1.647-0.457v-0.092h-0.823q-0.297 0.183-0.457 0.183-0.183-0.343-0.183-0.732-0.366 0.069-1.372 1.189h-0.092v-0.092l0.092-0.183h-0.092q-0.755 1.098-2.196 1.738-1.189-0.046-1.189-0.275zM3.582 10.331l0.092-0.183 0.64 0.092h0.64q1.67-0.572 3.11-1.372h0.366l0.183 0.092q0.092-0.092 0.183-1.098-0.457-0.275-1.281-0.366h-0.092v0.092h0.183v0.183q-0.412 0-0.549 0.092-1.098-0.092-1.098-0.183-0.183 0.092-0.275 0.092-0.549-0.206-1.098-0.732v-0.092h0.092q1.281 0.343 1.281 0.64 0-0.16 2.104-0.366 0.801 0.092 0.915 0.092 0.275-0.823 1.098-0.823l0.275 0.366q0 0.137-0.183 1.464l0.092 0.457h0.092q0.206 0 0.275-0.457-0.183-1.052-0.183-1.464v-0.092q0-0.206 0.457-0.275 0.549 0 0.915 0.823l0.915-0.092h0.092q1.326 0.183 1.464 0.183 0.663 0 1.83-0.457v0.092q-0.732 0.732-1.189 0.732-0.092-0.183-0.092-0.275h-0.092v0.275h-0.457l-0.549 0.092q-0.137-0.092-0.549-0.092v-0.183h0.183v-0.092h-0.092q-0.663 0-1.372 0.457 0.183 0.48 0.183 1.006l0.457-0.092q0.297 0 1.555 0.732l1.738 0.64h0.732l0.457-0.092 0.092 0.183v0.183q-0.961 0.183-1.006 0.183-0.343-0.206-1.738-0.457l-0.092-0.183h0.183l0.183 0.092h0.092v-0.092q-2.173-0.732-2.379-0.732l-0.366 0.092q-0.457-0.183-0.732-0.183-0.572 0.183-0.732 0.183-0.092-0.183-0.092-0.275-0.183 0-0.183 0.275-0.823-0.183-0.915-0.183l-0.64 0.183-0.457-0.092-1.738 0.549 0.092 0.183v0.092q-1.372 0.32-1.921 0.549-1.098-0.114-1.098-0.366zM3.948 7.037v-0.183h0.549v0.183h-0.549zM4.314 16.826q0.183-0.297 1.006-0.823 0.183 0.023 0.183 0.183v0.183q0 0.206-1.098 0.64zM4.954 3.561v-0.366q0-0.549 0.549-0.915h0.092q-0.366 0.48-0.366 0.823v0.275l0.092 0.457h0.092l-0.092-0.457q0.32-1.464 1.281-1.464l1.006 0.64q0.114-0.114 1.281-0.183-0.275 0.457-1.189 0.457-0.663 0-1.281-0.457h-0.092q-0.64 0.412-0.64 0.915v0.092q0 0.343 0.457 0.823-0.183 0.297-0.183 0.549h-0.183q-0.823-0.617-0.823-1.189zM5.96 4.842q0.183-0.549 0.275-0.549 0.48 0.275 2.287 0.823v0.183h-0.275q-0.389 0-1.281-0.366h-0.092v0.092q0.938 0.457 2.379 0.457l0.183 0.275v0.275q-0.137 0-0.366 0.183h-0.183q-0.435-0.526-1.83-0.732zM5.96 1.914v-0.183q0.64-0.915 2.196-0.915h0.366q1.372 0.092 1.372 0.366h-0.64q-0.549 0-2.013 0.915h-0.275q-0.183 0-0.183-0.183v-0.092h0.092q0.092 0 0.092 0.092 0.64-0.275 0.915-0.732h-0.183q-0.732 0-1.098 0.549zM6.052 10.148h0.092q0.183-0.092 0.275-0.092v-0.092h-0.092q-0.183 0.092-0.275 0.092v0.092zM7.15 31.829v-0.275q0-0.846 1.189-1.921-0.64 0.457-0.823 0.457v-0.092q0-0.64 1.189-2.013 0-0.114-0.092-0.915 0.457-1.006 0.457-1.372-0.092-0.16-0.092-0.366h0.183l0.183 0.64v0.092q0 0.297-0.183 1.281l0.183 0.092q0.32-1.738 0.64-1.738v0.915q0 0.366-0.64 1.738 0.092 0.938 0.092 1.464 0 0.755-1.83 1.555-0.275 0.297-0.275 0.457h-0.183zM8.796 12.892l0.549-0.092q0.343 0 1.098 0.275 0.457-0.275 1.189-0.275 0.092 0 0.275 0.092h0.092v-0.092q-0.595-0.183-0.823-0.183t-0.823 0.183q-0.343-0.183-0.732-0.183-0.229 0-0.823 0.183v0.092zM8.796 10.605q1.281 0 1.555 0.366 0.457-0.366 1.555-0.366 0-0.206-0.64-0.275-0.114 0-1.006 0.366 0-0.252-0.915-0.366-0.366 0.183-0.549 0.183v0.092zM9.071 24.785v-0.092q0.457-1.166 0.457-1.555 0.183 0 0.275 0.64-0.092 0.48-0.092 0.915v0.092h-0.183v-0.366q-0.183 0-0.275 0.549 0.092 0.183 0.092 0.275h-0.183zM9.071 6.488q0.16-0.457 0.549-0.457v-0.092l-0.092-0.183q0.069 0 0.457-0.457 0.366 0.183 0.366 0.275 0.275 0 0.275-0.275h0.183q0.595 0.915 0.732 0.915l0.092 0.183v0.092q0 0.183-0.183 0.183 0-0.206-0.457-0.275l-0.549 0.092q-0.503-0.092-0.732-0.092l-0.457 0.275q-0.183 0-0.183-0.183zM9.162 8.958h0.275v-1.098l0.092-0.549v-0.092h-0.092q-0.275 1.075-0.275 1.738zM9.254 14.813l0.457-0.092q0.64 0.114 0.64 0.275 0.503-0.275 0.823-0.275 0.183 0.092 0.275 0.092h0.092v-0.092q-0.572-0.183-0.732-0.183l-0.457 0.183q-0.297-0.183-0.457-0.183l-0.64 0.183v0.092zM9.437 22.406q0-0.686 0.275-0.732 0.137 0 0.549 0.549v0.092h-0.092l-0.275-0.183h-0.092v0.275l0.275 1.281h-0.183q-0.457-1.189-0.457-1.281zM9.62 25.608q0.64-0.755 0.64-2.196l0.183-0.092v0.092l-0.092 0.457q0.092 0.617 0.092 1.006-0.16 0.412-0.64 0.732h-0.183zM9.62 20.76q0-0.114 0.275-0.732-0.183-0.595-0.183-0.823v-0.092l0.183-0.275q0.092 0.092 1.098 0.183 0 0.412-0.549 1.006 0.137 0 0.275 0.275v0.549q0 0.48-0.275 0.549h-0.092l0.092-0.64-0.183-0.092h-0.092q-0.183 0.023-0.183 0.183v0.366l0.092 0.457h-0.092q-0.252 0-0.366-0.915zM9.62 16.826q0.252 1.372 0.915 1.372 0.549-0.686 0.549-1.372v-0.183q-0.046-0.229-0.64-0.457-0.823 0.137-0.823 0.64zM10.351 23.047v-0.092q0.183-0.297 0.183-0.549v-0.183l-0.183-0.64 0.183-0.092h0.092q0.183 0 0.275 0.549-0.206 1.006-0.549 1.006zM10.9 1.182q0-0.297 1.464-0.366h0.366q1.692 0 2.104 1.098h-0.092q-0.297 0-1.372-0.732h-0.549v0.092q0.114 0 0.915 0.64 0.183-0.092 0.275-0.092v0.092q0 0.183-0.183 0.183h-0.183q-0.16 0-1.83-0.915h-0.915zM11.266 8.958h0.366q0-0.366-0.275-1.647h-0.092v0.092q0.092 0.503 0.092 0.823v0.549zM11.358 5.939v-0.183q0-0.389 2.013-0.457 0.023-0.183 0.549-0.275v-0.092h-0.092q-0.846 0.366-1.555 0.366v-0.092q0-0.137 2.287-0.915l0.275 0.64-3.202 1.281q-0.137 0-0.275-0.275zM11.815 2.372h0.183q1.006 0.046 1.006 0.183 1.235-0.64 1.464-0.64 1.006 0.801 1.006 1.372l-0.092 0.457v0.092h0.092l0.092-0.64v-0.092q0-0.343-0.366-0.823h0.092q0.549 0.366 0.549 1.098v0.092q-0.412 1.281-0.915 1.281-0.275-0.343-0.275-0.64 0.275 0 0.457-0.823 0-0.526-0.823-1.006 0 0.366-1.189 0.549h-0.183q-0.709 0-1.098-0.457zM15.2 16.277q0-0.137 0.275-0.275 1.006 0.732 1.006 0.823l-0.092 0.183q-1.189-0.457-1.189-0.732zM16.206 7.037q0.023-0.183 0.183-0.183h0.457v0.183h-0.64zM16.664 16.917v-0.092q0.64 0.183 0.732 0.183v0.183q-0.732-0.092-0.732-0.275zM17.213 10.148l0.183-0.092h0.457v0.183l-0.549 0.092zM17.396 13.35q0.457-0.183 0.64-0.183v0.183l-0.549 0.183z" fill="#000000"></path>
</svg>
