<?xml version="1.0" encoding="utf-8"?>
<!-- Generated by IcoMoon.io -->
<!DOCTYPE svg PUBLIC "-//W3C//DTD SVG 1.1//EN" "http://www.w3.org/Graphics/SVG/1.1/DTD/svg11.dtd">
<svg version="1.1" xmlns="http://www.w3.org/2000/svg" xmlns:xlink="http://www.w3.org/1999/xlink" width="24" height="32" viewBox="0 0 24 32">
<g id="icomoon-ignore">
	<line stroke-width="1" x1="" y1="" x2="" y2="" stroke="#449FDB" opacity=""></line>
</g>
	<path d="M-0.157 21.74q0.189-0.687 3.85-2.062l0.206 0.275q-1.65 1.461-3.85 1.925h-0.137zM0.805 21.878q1.323-0.395 3.369-1.925 0.412 0.069 0.412 0.206-1.461 1.375-2.887 1.787l-0.619 0.137q-0.275-0.103-0.275-0.206zM1.012 20.434q1.512-1.1 2.75-1.856l0.069 0.137q0 0.962-0.619 0.962l-2.131 0.894zM1.287 15.966v-0.275q0.842-0.98 2.475-1.994 1.1-0.55 1.169-0.55 0.069 0.137 0.069 0.206-0.069 0.258-1.856 1.306l-1.65 1.444h-0.069q-0.137 0-0.137-0.137zM1.355 16.722q0.825-1.117 3.025-2.819l0.619-0.206q0.137 0.017 0.137 0.137v0.069q-2.372 1.736-3.437 3.437-0.137 0-0.344-0.619zM1.424 14.797q0.309-0.808 1.237-1.375 1.77-0.962 2.269-0.962l0.137 0.206v0.069q0 0.069-3.575 2.131 0-0.069-0.069-0.069zM1.493 22.221v-0.069q1.53-0.258 3.506-2.269-0.275 0-0.275-0.137 0.825-0.894 2.062-1.581l0.069 0.137q0 0.155-1.719 1.512v0.069h0.344v0.137q-1.323 1.719-3.575 2.475h-0.069q-0.309-0.137-0.344-0.275zM1.768 13.628v-0.069q0-0.67 3.162-1.856l0.069 0.137v0.275q-0.017 0.172-1.581 0.687-0.017 0.086-1.65 0.825zM1.905 17.478q0.653-1.444 3.231-3.369 0 0.069 0.069 0.069 0 0.533-1.031 1.306-0.928 1.066-1.65 2.337h-0.137q-0.481 0-0.481-0.344zM2.112 9.504v-0.069l0.069-0.137q3.644 0.189 3.644 0.412v0.137q0 0.103-0.206 0.206h-0.137q-3.369 0-3.369-0.55zM2.18 10.81v-0.069l0.069-0.137q1.77 0.206 2.956 0.206l0.137 0.206-0.275 0.275h-1.925q-0.619 0-0.962-0.481zM2.18 10.122l0.069-0.137q3.231 0.189 3.231 0.344v0.069q-0.069 0.275-0.275 0.275-3.025 0-3.025-0.55zM2.249 12.322q0-0.567 0.825-0.962 0.756 0.069 1.306 0.069h0.55v0.069q-0.447 0.309-2.612 1.031-0.069-0.137-0.069-0.206zM2.662 22.428q1.495-0.722 2.819-2.2 0.241-0.481 0.756-0.481 0 0.069 0.069 0.069-0.636 1.633-3.162 2.956-0.447-0.172-0.481-0.344zM2.868 17.822q0.636-1.426 2.2-2.956h0.275q0.103 0 0.206 0.206v0.206q-1.186 1.255-1.65 2.612-0.258 0.137-0.55 0.137h-0.275q-0.103 0-0.206-0.206zM3.212 8.197l0.069-0.137q2.045 0.378 2.75 1.169l-0.137 0.206q-2.131-0.155-2.131-0.619zM3.83 19.609q1.736-1.478 2.75-1.787h0.137v0.137l-2.475 1.856h-0.206q-0.103 0-0.206-0.206zM4.036 19.128v-0.275q0-0.877 1.444-1.237 0.464 0 1.306-0.344l0.069 0.137q0 0.103-2.131 1.237 0 0.052-0.619 0.481h-0.069zM4.243 17.616q0.292-0.98 1.237-1.994h0.069q0.137 0 0.137 0.206l-1.1 1.925h-0.206q-0.137 0-0.137-0.137zM4.311 22.29q2.131-1.53 2.131-2.612 0.223-0.137 0.412-0.137h0.137v0.344q-0.739 2.045-2.269 2.956h-0.069q-0.344-0.172-0.344-0.55zM4.655 7.166l0.137-0.069q1.048 1.117 2.131 1.444v0.206q0 0.206-0.756 0.344-1.512-0.877-1.512-1.925zM5.068 17.409q0.344-1.117 0.894-1.581 0.481 0.069 0.481 0.206v0.137q-0.756 0.962-1.237 1.237h-0.137zM5.068 12.185q0-0.103 0.275-0.275l2.269 1.031q0 0.241 0.069 0.619-0.069 0-0.069 0.069-2.475-0.722-2.475-1.1-0.069-0.12-0.069-0.344zM5.136 13.285q0.103-0.275 0.206-0.275 2.234 0.773 2.475 1.031v0.206q-0.137 0.069-0.206 0.069-2.475-0.172-2.475-1.031zM5.274 11.566v-0.344q0-0.172 0.275-0.206 1.684 0.67 2.131 1.031v0.481q0 0.137-0.137 0.137h-0.137q-2.131-0.877-2.131-1.1zM5.343 14.591v-0.206q0-0.172 0.275-0.206 1.117 0.275 1.581 0.275h0.481q0.12 0 0.206 0.344-0.258 0.206-0.481 0.206h-0.55q-1.512-0.103-1.512-0.412zM5.48 17.409q0.498-0.412 1.375-1.512h0.412q0.137 0.017 0.137 0.137-0.137 0.069-0.206 0.069v0.069h0.069q0.275-0.137 0.481-0.137l0.069 0.137q-0.309 0.103-0.687 0.756-0.137 0-0.137-0.55-0.137 0-0.206 0.756-0.172 0.206-1.237 0.412zM5.549 10.603v-0.069l0.137-0.481h0.137q0.327 0 2.062 1.169 0 0.55-0.275 0.55-1.925-0.928-2.062-1.169zM5.618 15.416v-0.206l0.069-0.137q0.945 0.069 1.169 0.069 0.859-0.069 1.031-0.069 0.206 0.258 0.206 0.481-0.533 0.206-0.687 0.206h-0.962q-0.825-0.12-0.825-0.344zM5.755 19.54q0.017-0.12 1.1-1.031h0.137q0.206 0 0.206 0.275l0.137-0.069h0.206q0.137 0.017 0.137 0.137-0.498 0.55-0.756 0.55-0.069-0.137-0.069-0.206-0.464 0.481-0.962 0.481-0.137 0-0.137-0.137zM5.824 22.428v-0.069q1.272-1.598 1.375-3.025h0.137q0.155 0 0.275 0.687 0.602 0.069 0.687 0.069 0.447 0 0.687-0.55h0.137v0.069q0 0.241-0.55 0.55v0.069q0.739 2.819 1.031 2.819v-0.137q0.12 0 0.206 0.412l0.137-0.069h0.069q0 0.412 0.55 0.619h0.069l0.137-0.481-0.206 0.137-0.069-0.137q0.137 0 0.137-0.137l-0.344-0.55v-0.069h0.137q0.172 0.602 2.131 2.062 0.189 0.103 1.444 0.206 0.206 0.223 0.206 0.412l0.137-0.069q0.206 0.069 0.206 0.412v0.206q0 0.137-0.137 0.137-0.344-0.309-0.344-0.481l-0.137 0.069h-0.206q-0.292 0-0.756 0.069-0.344-0.137-0.55-0.137-0.344 0.481-0.756 0.481h-0.825q-0.43 0.55-0.481 0.55l-0.069-0.137q0.12-0.619 0.275-0.619l0.137 0.069v-0.069q-0.069-0.137-0.069-0.206 0.258-0.137 0.55-0.137v-0.069q-0.756 0-0.756-0.412v-0.069l0.137-0.069h0.412v-0.137q-0.292-0.327-1.444-0.894-0.877-0.533-1.306-2.269-0.412-1.272-0.412-1.375h-0.344q0 0.997-1.169 2.544h-0.137q-0.344-0.189-0.344-0.275zM6.030 9.779q0-0.447 0.619-0.687 0.189 0 0.825 1.031v-0.069l-0.481-1.031q0.241-0.481 0.619-0.481 0.756 1.547 0.756 1.925-0.241 0.481-0.344 0.481-0.137 0-0.137-0.137-0.137 0.069-0.206 0.069-1.169-0.636-1.65-1.1zM6.099 7.647v-1.031h0.137q0 0.241 1.306 1.787-0.223 0.137-0.412 0.137h-0.069q-0.962-0.481-0.962-0.894zM6.786 17.822q0-0.481 0.756-0.619l0.137 0.206q-0.327 0.12-0.687 0.55h-0.069q-0.137 0-0.137-0.137zM7.061 18.097h0.069q1.031 0.223 1.031 0.344l-0.481 0.206q-0.619-0.086-0.619-0.55zM7.268 7.51q0-0.602 0.55-0.962h0.137v0.206l0.137 1.237q-0.137 0.309-0.275 0.344-0.344 0-0.55-0.825zM7.336 17.753l0.275-0.206q0.378 0 0.55 0.344l-0.137 0.069h-0.481q-0.103 0-0.206-0.206zM7.405 16.859v-0.137q0.017-0.137 0.137-0.137h0.069q0.103 0 0.275 0.275 0 0.137-0.137 0.137h-0.206q-0.137 0-0.137-0.137zM7.749 13.422q0.069-1.306 0.275-1.581l-0.069-0.137 0.55-1.237q0.241-0.258 0.825-0.344v-0.069q-0.447 0-0.619-1.65 0.12-1.1 0.344-1.1h0.069q0.481 2.062 0.481 2.406v0.137q0.292 0 1.1-0.344 0.137 0.017 0.137 0.137-0.464 0.481-1.031 0.481l-0.962 0.687q0 0.55-0.412 0.825 0 0.481-0.137 0.619v0.344q0 0.155 0.069 0.275-0.137 0.275-0.137 0.481 0 0.602 0.894 0.687l-0.069-0.137 0.137-0.069h0.275q0.103 0 0.206 0.206 0 0.137-0.137 0.137l-0.344-0.069 0.137 0.206v0.137h-0.206q-0.687 0-0.687 0.619 0 0.275-0.137 0.275-0.327-0.43-0.344-0.55 0-0.052 0.069-0.412l-0.069-0.275q0.069-0.12 0.069-0.344-0.103 0-0.275-0.344zM7.886 16.447v-0.069q0-0.103 0.206-0.206 0.103 0 0.206 0.206 0 0.155-0.344 0.206zM7.955 8.472v-0.137q0-0.103 0.481-0.481 0.137 0 0.412 2.131-0.103 0.275-0.206 0.275h-0.069q-0.619-0.997-0.619-1.787zM8.161 18.097l0.137-0.069h0.069q0.137 0.017 0.137 0.137 0 0.137-0.137 0.137-0.103 0-0.206-0.206zM8.367 18.715l0.069-0.137q0.344 0.086 0.344 0.206 0 0.137-0.137 0.137h-0.069q-0.103 0-0.206-0.206zM8.367 13.285q0.017-0.137 0.137-0.137h0.206q0.378 0 0.481 0.275 0 0.137-0.137 0.137h-0.069q-0.533 0-0.619-0.275zM8.436 12.528q0.017-0.137 0.137-0.137h0.069q0.378 0 0.481 0.275 0 0.137-0.137 0.137-0.378 0-0.55-0.275zM8.642 14.797q0.069-0.206 0.412-0.206h0.069q0.103 0 0.206 0.206 0 0.103-0.275 0.206-0.412-0.069-0.412-0.206zM8.642 11.703q0.017-0.137 0.137-0.137 0.43 0.137 0.481 0.344 0 0.137-0.206 0.137-0.275-0.103-0.412-0.344zM8.849 11.016q0.103-0.344 0.481-0.344 0.103 0.309 0.275 0.55v0.206h-0.069q-0.67-0.258-0.687-0.412zM9.261 7.166l0.275-0.206q0.189 0.017 0.756 2.612l-0.137 0.069h-0.206q-0.223 0-0.687-2.475zM9.605 14.659l0.137-0.069h0.275q0.137 0.017 0.137 0.137 0 0.137-0.137 0.137h-0.206q-0.103 0-0.206-0.206zM9.742 10.535v-0.069q0.137-0.275 0.412-0.275 0.137 0.309 0.137 0.619h-0.069q-0.361 0-0.481-0.275zM9.811 14.178v-0.137h0.344q0.137 0.017 0.137 0.137 0 0.137-0.137 0.137h-0.206q-0.137 0-0.137-0.137zM9.88 7.304v-0.206q0.137-0.619 0.344-0.619 0.516 0 0.894 2.062v0.069l-0.412 0.687h-0.137q-0.275-0.241-0.687-1.994zM9.949 22.909v-0.206h0.206v0.069q0 0.137-0.137 0.137h-0.069zM10.017 25.521q0.12-0.55 0.275-0.55 0.137 0.017 0.137 0.137v0.069q0 0.378-0.344 0.55-0.069-0.137-0.069-0.206zM10.086 22.153v-0.619h0.137v0.619h-0.137zM10.086 21.259v-0.344q0.017-0.137 0.137-0.137v0.481h-0.137zM10.499 19.884q0.137-0.447 0.137-0.687h-0.137v-0.137h0.344l0.481-0.069q-0.619 0.447-0.619 0.55l0.137 0.069q1.237-0.258 1.237-0.55h-0.137v-0.137q0.017-0.137 0.137-0.137 0.069 0 0.069 0.069 0.12-0.069 0.275-0.069v-0.137h-0.206v-0.275q0-0.103 0.206-0.206 0.034 0.412 0.412 0.412v-0.275h-0.206v-0.206q0.017-0.137 0.137-0.137 0 0.069 0.069 0.069v-0.069q0-0.069-0.069-0.206 0-0.137 0.137-0.481-0.069-0.12-0.069-0.275 0.412-0.189 0.412-0.275h-0.137q-0.258 0.206-0.481 0.206l-0.069-0.137q0.344-0.189 0.344-0.275h-0.137q-0.258 0-0.344 0.619h-0.069q-0.086-0.619-0.206-0.619-0.137 0.017-0.137 0.137-0.137-0.069-0.206-0.069v-0.206l0.069-0.137q-0.137 0-0.137-0.137v-0.069l0.481-0.275q-0.275 0-0.275-0.275 0.069-0.206 0.137-0.206-0.017-0.12-0.344-0.55l0.137-0.069q-0.069-0.137-0.069-0.206t0.069-0.206l-0.069-0.275 0.069-0.344-0.069-0.137 0.137-0.481q-0.069-0.137-0.069-0.206 0.069-0.137 0.069-0.206-0.137 0-0.137-0.137l0.275-0.206q-0.069-0.137-0.069-0.206l0.069-0.275q-0.069-0.12-0.069-0.275 0.137 0 0.137-0.206l-0.069-0.344 0.206-0.137-0.206-0.344 0.412-0.275q0-0.756 0.687-0.756h0.069q0.412 0.034 0.412 0.206v0.069q-1.306 0.894-1.306 1.65-0.275 1.031-0.344 3.025 0 0.962 0.825 0.962h0.412q0.155 0.12 0.756 0.206v0.069l-0.275 0.137v-0.137h-0.894v0.206h-0.412v0.069q0.275 0 0.275 0.275h0.069q0-0.275 0.137-0.275h0.069q0.137 0.017 0.137 0.137l-0.137 0.206v0.069q1.306 0.069 1.306 0.206 0-0.275 0.137-0.275 0.172 0.137 0.344 0.137v0.206q-0.172 0-0.344 0.137l-0.137-0.069-0.069 0.137-0.344-0.069q-0.378 0-0.619 0.412l0.137 0.206q0 0.137-0.137 0.137t-0.137-0.206h-0.137v0.206q0.017 0.137 0.137 0.137h0.206l0.069 0.412-0.137 0.069-0.344-0.069v0.206l0.137-0.069h0.069q0.103 0 0.206 0.206-1.736 1.444-2.681 1.444 0 0.069-0.069 0.069h-0.069zM10.499 13.766l0.137-0.069h0.069q0.137 0.017 0.137 0.137l-0.069 0.137q-0.275-0.103-0.275-0.206zM10.636 13.422q0.309-0.275 0.344-0.275h0.137q0.137 0.017 0.137 0.137v0.069q0 0.086-0.344 0.275h-0.069q-0.103 0-0.206-0.206zM10.636 10.053v-0.069h0.069q0.12 0 0.412 0.481 0 0.137-0.137 0.137-0.344-0.172-0.344-0.55zM10.774 23.871h0.206v-0.206h-0.069q-0.137 0.017-0.137 0.137v0.069zM10.774 6.41v-0.412q0.017-0.137 0.137-0.137h0.069q0.395 0 0.825 2.062l0.069 0.275v0.206q0.258 0 0.619 0.481v0.275h-0.069q-0.705-0.756-1.1-0.756-0.55-1.426-0.55-1.994zM10.911 9.297q0-0.395 0.481-0.756l0.069 0.137q-0.172 0.395-0.275 1.306h-0.069q-0.137-0.241-0.206-0.687zM11.392 24.353q0.137 0 0.137-0.137v-0.069h-0.137v0.206zM11.392 17.341h0.206q0 0.137-0.137 0.137zM11.392 9.572v-0.275q0.052-0.412 0.206-0.412l0.069 0.137v0.619q0 0.137-0.137 0.137zM11.461 16.653l0.137-0.069h0.069v0.206h-0.069q-0.137 0-0.137-0.137zM11.461 16.447v-0.206h0.069q0.137 0.017 0.137 0.137l-0.137 0.069h-0.069zM11.53 17.066v-0.069h0.069q0.137 0.017 0.137 0.137l-0.137 0.069zM11.53 15.828l0.137-0.069h0.069v0.206h-0.069q-0.137 0-0.137-0.137zM11.53 10.81l0.137-0.069 0.069 0.137v0.069h-0.069q-0.137 0-0.137-0.137zM11.598 10.397q0.017-0.137 0.137-0.137h0.069q0.137 0.017 0.137 0.137v0.206h-0.137q-0.103 0-0.206-0.206zM11.598 6.41v-0.069q0.206-1.512 0.344-1.512 0.275 0 0.55 1.031 0 0.241-0.137 1.169 0.069 0.481 0.069 0.825l-0.275 0.206h-0.069q-0.223-0.086-0.481-1.65zM11.667 25.728l0.137 0.069h0.069q0.103 0 0.206-0.206h-0.275q-0.137 0.017-0.137 0.137zM11.667 17.753q0.103-0.275 0.206-0.275 0 0.103 0.206 0.206 0.137 0 0.137-0.137 0.344 0.086 0.344 0.206v0.069l-0.069 0.137q-0.825-0.052-0.825-0.206zM11.736 25.315h0.206v-0.137h-0.069q-0.137 0.017-0.137 0.137zM11.736 18.578l0.206-0.137h0.137v0.137q0 0.137-0.137 0.137h-0.069q-0.137 0-0.137-0.137zM11.736 9.985l0.137-0.069h0.069v0.206h-0.069q-0.137 0-0.137-0.137zM11.736 8.954l0.137-0.069h0.069q0.206 0 0.481 0.756l-0.137 0.069q-0.55-0.412-0.55-0.756zM11.805 16.859v-0.069h0.275v0.069q0 0.137-0.137 0.137t-0.137-0.137zM11.805 9.779v-0.206h0.069q0.137 0.017 0.137 0.137l-0.137 0.069h-0.069zM11.873 18.165v-0.137h0.206q0.137 0.017 0.137 0.137 0 0.137-0.137 0.137h-0.069q-0.137 0-0.137-0.137zM11.873 17.272q0-0.103 0.206-0.206h0.206v0.275q0 0.137-0.137 0.137h-0.069q-0.103 0-0.206-0.206zM12.148 25.384h0.137v-0.206q-0.137 0.017-0.137 0.137v0.069zM12.148 16.309q0.258 0 0.412 0.137 0-0.155 0.069-0.275h-0.137l-0.344 0.069v0.069zM12.148 9.916q0.017-0.137 0.137-0.137h0.069q0.137 0.017 0.137 0.137 0 0.137-0.137 0.137h-0.069q-0.137 0-0.137-0.137zM12.217 8.266q0.344-0.619 0.756-0.619l0.069 0.137q-0.052 0-0.687 0.687-0.137 0-0.137-0.206zM12.286 15.622q0.103 0 0.206-0.206h-0.069q-0.137 0.017-0.137 0.137v0.069zM12.423 17.478v-0.137q0.017-0.137 0.137-0.137h0.069l0.137 0.069q-0.086 0.344-0.206 0.344-0.137 0-0.137-0.137zM12.561 24.49q0.756-0.481 1.031-0.481 0.137 0.017 0.137 0.137v0.206q-0.241 0.412-0.619 0.412-0.55-0.069-0.55-0.275zM12.561 7.372q0-0.756 0.344-3.231v-0.137q0.017-0.137 0.137-0.137h0.069l0.412 0.481q0.137 0.447 0.137 0.619v0.344l-0.069 0.687h-0.206v-0.069q0-0.292-0.137-1.65h-0.069v0.275q0.137 0.945 0.137 1.719 0 0.619-0.137 1.031 0.069 0 0.069 0.069l0.137-0.069h0.069q0.137 0.017 0.137 0.137-0.069 0.206-0.412 0.206-0.069-0.137-0.069-0.206h-0.137l-0.206 0.137h-0.069q-0.137 0-0.137-0.206zM12.63 8.541v-0.137q0.619-0.687 1.031-0.687 0 0.069 0.069 0.069-0.653 1.512-0.825 1.512-0.137-0.55-0.275-0.756zM12.973 25.453h0.206q0-0.137-0.137-0.137zM12.973 17.753q0.017 0.137 0.137 0.137h0.069v-0.137h-0.206zM13.248 15.966v-0.206h0.206v0.206h-0.206zM13.248 9.229q0-0.206 0.756-1.581 0-0.172-0.275-0.206v-0.206l0.069-0.137h-0.069q-0.137 0.069-0.206 0.069l-0.069-0.137v-0.069q0-0.533 0.55-1.856 0.275-1.65 0.275-1.994h0.137q0.069 0.258 0.137 1.444l-0.069 0.137 0.069 0.137q0 0.069-0.069 0.069 0 0.069 0.069 0.206 0 0.481-0.55 1.856 0.344 0 0.344 0.137-0.223 0.137-0.344 0.137 0 0.103 0.275 0.275h0.206v-0.069q-0.069-0.137-0.069-0.206 0.275-0.137 0.481-0.137 0.137 0.069 0.206 0.069v0.069q-0.395 0.687-1.1 1.512h0.069q1.22-1.375 1.375-1.375 0.481 0.086 0.481 0.275v0.069q-1.169 1.186-2.2 1.512l-0.137-0.069q-0.12 0.069-0.275 0.069h-0.069zM13.317 18.303q0-0.103 0.206-0.206 0.137 0.017 0.137 0.137l-0.137 0.069h-0.206zM13.455 17.478q0.017-0.137 0.137-0.137 0.137 0.017 0.137 0.137 0 0.137-0.137 0.137t-0.137-0.137zM13.523 17.753l0.137-0.069 0.069 0.137-0.137 0.069zM13.798 24.284v-0.137q0.017-0.137 0.137-0.137 0.103 0 0.275 0.275v0.275q0 0.137-0.137 0.137 0-0.069-0.275-0.412zM13.798 9.572v-0.137q1.426-0.756 1.925-1.306l0.344-0.069q0.137 0.223 0.137 0.412v0.069q0 0.172-2.337 1.169zM14.073 18.097v-0.137q0.412-0.206 0.481-0.206v0.069q0 0.137-0.481 0.275zM14.073 15.691q0.017-0.137 0.137-0.137h0.069v0.137h-0.206zM14.211 6.685q0.395-0.911 1.787-2.819 0.241-0.791 0.412-0.825h0.069q-0.275 1.031-0.275 1.1v0.069h0.069l0.344-1.237h0.206q-0.395 1.994-0.687 1.994l-0.069-0.137 0.069-0.344v-0.137h-0.069q0 0.481-1.169 1.719-0.241 0.687-0.619 0.687 0-0.069-0.069-0.069zM14.555 3.041h0.069q0.189 0 0.275 1.65-0.069 0.378-0.069 0.756h-0.069q-0.137 0-0.137-0.137v-0.412q0-0.584-0.069-1.856zM14.623 6.96v-0.069q0-0.172 0.55-0.275 0.481 0 0.481 0.412-0.069 0-0.069 0.069-0.223-0.137-0.412-0.137h-0.55zM14.692 17.753v-0.069q0.069-0.12 0.069-0.275h0.206v0.069q0 0.103-0.275 0.275zM14.692 16.859q0.137-0.223 0.137-0.412v-0.206h0.206v0.275l0.137-0.069q-0.086-0.327-0.275-0.55h0.069q1.031 0.705 1.031 1.237-0.137 0.412-0.275 0.412-0.155-0.292-0.344-0.344l-0.344 0.069q-0.344-0.309-0.344-0.412zM14.898 6.41q0.705-1.375 1.444-1.375 1.616-1.976 1.787-2.062h0.069v0.069q-1.598 2.612-1.994 2.612-0.275 0-1.237 0.894zM15.173 16.791h0.137q0.137 0 0.137-0.137v-0.137h-0.069q-0.103 0-0.206 0.206v0.069zM15.448 6.41v-0.069q0.052-0.344 2.2-0.962 1.409-1.031 2.612-2.406h0.137v0.069q-0.773 1.409-2.406 2.819h-0.412q-0.516 0-1.856 0.55h-0.275zM15.723 6.754q0.137 0 0.137-0.137 0.55 0.086 0.55 0.275l-0.069 0.137q-0.619-0.103-0.619-0.275zM15.998 7.304l0.137-0.069q0.55 0.292 0.55 0.962h0.069q0.069-0.378 0.069-0.55l-0.275-0.481 0.069-0.137q0.55 0.241 0.55 0.756 0 0.361-0.344 0.55l-0.137-0.069q0 0.103-0.206 0.206h-0.137v-0.412q0-0.258-0.344-0.756zM16.204 6.41q1.048-0.481 1.65-0.481 0.43 0.069 0.962 0.069 2.097-1.22 2.475-2.062 0.034 0 0.825-0.825h0.069v0.069q-1.341 2.44-3.3 3.3-1.186 0-2.131 0.275-0.55-0.241-0.55-0.344zM16.823 5.379q0.894-1.478 1.375-1.925l0.069 0.137q-0.567 1.856-1.237 1.856h-0.069zM17.029 7.029v-0.206q2.011-0.223 2.544-0.344 0.103-0.241 1.65-1.65 0.825-1.169 0.894-1.169 0 0.069 0.069 0.069-0.481 1.272-2.337 2.681h0.069l3.3-1.375v0.069q-0.206 0.447-2.406 1.306v0.069h0.069q0.327-0.069 2.2-0.962l0.069 0.137q-1.753 1.272-5.912 2.544l-0.069-0.137q0-0.464 1.581-0.756 1.633-0.584 1.65-0.687h-0.069q-2.406 0.894-2.956 0.894zM18.404 5.86v-0.137q0.705-0.705 2.269-2.75h0.069v0.069q-0.756 1.616-1.994 2.819h-0.344zM20.467 6.616h0.069q0.137-0.069 0.206-0.069v-0.069h-0.206z" fill="#000000"></path>
</svg>
