<?xml version="1.0" encoding="utf-8"?>
<!-- Generated by IcoMoon.io -->
<!DOCTYPE svg PUBLIC "-//W3C//DTD SVG 1.1//EN" "http://www.w3.org/Graphics/SVG/1.1/DTD/svg11.dtd">
<svg version="1.1" xmlns="http://www.w3.org/2000/svg" xmlns:xlink="http://www.w3.org/1999/xlink" width="18" height="32" viewBox="0 0 18 32">
<g id="icomoon-ignore">
	<line stroke-width="1" x1="" y1="" x2="" y2="" stroke="#449FDB" opacity=""></line>
</g>
	<path d="M0.801 26.778v-0.515q0.021-0.172 0.172-0.172 0.386 0 2.662 1.030 0.172 0.086 0.258 0.086 1.116 0 2.833-4.207 0.258-0.923 0.258-1.545v-0.258q0-0.859-0.258-3.177 0-1.76 1.889-3.863h0.086q-0.343 0.665-0.343 1.116v0.687q0.021 0.172 0.172 0.172 0.579-0.773 0.773-2.833-0.086-0.343-0.086-0.601h0.172q0.172 1.395 0.172 1.803 0 1.288-0.343 3.434 0.859 1.932 0.859 4.293v0.258h-0.172v-0.086q-0.236-2.168-1.717-4.464h-0.086l-0.343 4.722q-0.451 1.502-2.318 4.464l-0.086 0.515v0.086q0 1.159 2.318 1.46 1.975 0.708 1.975 0.944-0.215 0.558-0.429 0.601-1.76-0.687-4.636-1.116-2.726-2.769-3.778-2.833zM1.145 25.576q0.086-0.343 0.343-0.343l1.975 0.773h0.086q0.343-0.901 0.859-1.889-1.975-1.781-1.975-4.464v-0.172h0.172q0 1.76 2.146 2.833h0.258q0.172-0.515 0.172-1.288 0-2.812-2.060-8.156-0.429-1.953-0.429-2.404v-1.545q0-1.202 1.030-3.263h0.172v0.086q-0.687 1.438-0.687 3.348 0 2.254 2.318 7.040h0.086q0.923-1.159 1.545-1.46h0.086v0.086q-1.030 1.417-1.030 2.747 0.258 2.361 0.258 3.263v0.429q0 2.726-2.318 5.409-0.064 0-0.515 0.086-0.665-0.15-2.49-1.116zM3.463 8.662l0.086-0.172q0-0.086-0.086-0.086 0-2.468 1.889-4.636 2.382-1.803 3.606-1.803-1.46 0.859-1.717 1.116l0.859-0.086h0.258q1.739 0 3.348 1.46h-0.086q-1.674-1.030-3.005-1.030-2.254 0-3.949 2.232v0.086q0.601-0.258 1.202-0.429l0.086 0.172q-1.889 1.331-1.889 3.348 0 2.275 2.919 5.409l-1.116 0.859h-0.172q-2.232-3.649-2.232-6.439zM5.867 27.894q0-0.794 1.803-3.52 0.859-1.867 0.859-4.035v-0.086l-0.086-0.429 0.172-0.086q0.687 1.824 0.859 3.091 0.322 0.172 0.687 0.172 1.867 0 3.005-1.717v0.086q-0.408 1.438-2.232 2.662-0.494 0.279-2.060 0.515-0.579 0.837-2.576 3.263l-0.086 0.429h-0.086q-0.086 0-0.258-0.343zM6.725 28.495v-0.086q0-0.773 1.717-2.404 0.622-1.288 1.803-1.288l1.374-0.859h0.086q-0.987 1.202-2.318 1.889-0.494 0.794-1.631 2.232v0.086q0.365 0.343 2.404 1.030v0.172q-0.15 0.429-0.429 0.429zM8.528 2.738v-0.086q0.558-0.773 2.919-1.288 0.343-0.086 0.687-0.086h0.687v0.172h-0.172q-0.987 0-2.146 0.859 0.816 0.622 2.662 2.662 0.258 0 0.429 0.343v0.086q-1.138-0.665-3.005-2.060-1.116-0.601-2.060-0.601z" fill="#000000"></path>
</svg>
