<?xml version="1.0" encoding="utf-8"?>
<!-- Generated by IcoMoon.io -->
<!DOCTYPE svg PUBLIC "-//W3C//DTD SVG 1.1//EN" "http://www.w3.org/Graphics/SVG/1.1/DTD/svg11.dtd">
<svg version="1.1" xmlns="http://www.w3.org/2000/svg" xmlns:xlink="http://www.w3.org/1999/xlink" width="25" height="32" viewBox="0 0 25 32">
<g id="icomoon-ignore">
	<line stroke-width="1" x1="" y1="" x2="" y2="" stroke="#449FDB" opacity=""></line>
</g>
	<path d="M0.228 24.507q0-1.38 0.983-2.495h0.076q-0.454 0.851-0.454 1.815 0 0.529 0.302 1.588h0.076q0-1.985 1.512-3.1 0 0.076 0.076 0.076-0.151 0.284-0.151 0.605v0.302q0.378 2.495 1.815 2.495l-0.151-0.983q0-2.061 1.361-3.1l0.151 0.076-0.076 0.151v0.454q0.265 2.117 1.588 2.117 0.756 0 0.756-1.134 0-1.645-2.117-2.571-0.567-0.151-1.059-0.151h-0.302v-0.151l0.529-0.076h0.605q2.155 0 3.403 3.251 0.151 0.302 0.151 0.832v0.227q0 1.248-1.512 1.815h-0.454q-1.418 0-2.042-2.495-0.076-0.265-0.076-0.756h-0.076q-0.151 0.662-0.151 0.907 0 1.512 1.588 2.798-0.473 0.378-1.21 0.378-2.155 0-3.251-2.949v-0.529h-0.076l-0.076 0.529q0 1.72 1.588 2.873v0.076l-0.378 0.076h-0.454q-1.626 0-2.42-2.193 0-0.095-0.076-0.756zM1.059 24.129v-0.151q0-2.533 2.344-3.251l0.681-0.076 0.076 0.151q-1.853 1.040-2.722 2.647l-0.227 0.681h-0.151zM2.874 18.306q0-2.117 2.722-3.478 0-0.113 0.454-0.454h0.076q0 0.302-1.512 2.042 0 0.189-0.151 0.378h0.076q2.42-0.699 2.42-1.437h0.151v0.076q0 1.399-2.571 2.722-0.907 0.851-0.907 2.117h-0.076q-0.681-0.718-0.681-1.966zM3.101 22.994v-0.076q0.321-2.117 1.588-2.117 1.059 0.151 1.059 0.378-1.815 1.191-1.815 3.251v0.454q0 0.151-0.151 0.151-0.681-0.87-0.681-2.042zM3.63 10.593q0-2.174 1.588-3.856h0.076v0.151q-0.983 1.607-0.983 3.403v0.151q0 1.342 0.378 2.117-0.435 0.454-0.529 0.454-0.454-0.359-0.529-2.42zM3.781 13.694v-0.227q0.907 0 2.42-2.495 0.832-0.605 1.361-0.605h0.076q0.567 0 0.605 0.227-0.227 0.265-0.378 1.437 0 1.626 1.89 2.571-0.151 0.284-0.151 0.605v0.907q0 1.134-0.832 1.815l-0.076-0.151q0.151-0.284 0.151-0.605v-0.302q0-0.473-0.227-1.512 0.076-0.302 0.076-0.529-0.321 0.302-0.832 1.739-0.548 0.454-0.983 0.454 0.435-0.548 0.756-2.722 0.076 0 0.076-0.151l-1.588 1.739-0.832 0.227v-0.076q0.983-0.907 1.512-2.495 0.076 0 0.151-0.227h-0.076q-1.399 1.361-2.193 1.361h-0.227q-0.151 0-0.151-0.151 0.851 0 2.193-2.42-1.72 1.588-2.42 1.588h-0.302zM3.933 20.348v-0.302q0-1.72 3.554-2.798l0.907-0.832 0.076 0.151v0.605q0 1.55-2.344 2.42-2.117 0.473-2.117 0.756h-0.076zM4.311 2.881q0.208-0.907 0.907-0.907h0.151q1.040 0 1.89 0.756v0.378q0 0.699-1.134 2.949 0 0.189-0.227 1.134h-0.151q-0.151-1.134-0.151-1.588t0.832-2.193q-0.132 0-1.134 1.21-0.983-0.813-0.983-1.739zM4.84 20.272v-0.151q2.987-0.643 4.159-1.89 0.529-0.491 0.907-1.21 0.113 0 0.227 0.378 0 0.87-0.605 2.344h0.076q0.889-0.435 1.739-1.664 0.151 0.302 0.151 0.832 0 2.287-1.588 3.176-0.491 0.302-0.832 0.302-1.304-2.268-3.251-2.268-0.302 0-0.983 0.151zM4.84 10.367v-0.302q0-1.040 0.454-2.571h0.151q-0.076 0.756-0.076 1.134v0.756q0 0.567 0.227 1.815-0.208 0.51-0.454 0.681-0.265 0-0.302-1.512zM5.672 8.703q0.057-0.907 0.227-0.907h0.076v0.227q0.113 1.078 0.832 2.117 0 0.076-0.681 0.529-0.302-0.397-0.454-1.966zM6.126 22.465v-0.756q0.057-0.454 0.227-0.454 1.437 1.002 1.437 2.193 0 0.284-0.454 0.605h-0.076q-0.775 0-1.134-1.588zM6.201 7.342q0-0.983 1.437-3.932v-0.681l3.403-0.832v0.151q-0.662 0.189-1.89 1.059v0.076h0.227q0.548 0 2.571-1.134l0.076 0.151q-1.304 1.096-3.554 2.042-1.739 1.815-1.739 3.176t0.907 2.495q-0.076 0-0.076 0.076-1.361-0.926-1.361-2.647zM7.26 7.342q0.057-0.681 0.227-0.681h0.378q0.113 0 1.059 1.437 1.21 0.397 1.21 1.285v0.151q-0.151 1.285-0.151 1.437v0.529h-0.151q0-0.34-1.89-2.042-0.681-1.115-0.681-2.117zM7.562 6.208q0.624-1.38 2.873-2.268 0.435-0.057 1.437-0.907h0.151v0.076q-0.699 1.021-2.949 2.117l-0.983 1.134h-0.378q-0.151 0-0.151-0.151zM8.243 11.728q0.17-1.059 0.454-1.059 1.777 2.117 2.798 2.193v0.227q-0.227 0-1.588 1.134-1.664-0.699-1.664-2.495zM8.394 6.813l0.151-0.076q0.605 0.832 0.983 0.832h0.302q0.113 0 0.454-0.529 0.189 0 0.302 1.059-0.076 0.832-0.302 0.832 0-0.34-1.437-1.361-0.454-0.681-0.454-0.756zM8.848 6.283q0.491-0.851 2.268-1.739 0.189 0 0.907-0.529v0.151q0 0.265-1.815 1.664-0.359 0.605-0.454 0.605h-0.756q-0.151 0-0.151-0.151zM8.923 7.040v-0.302h0.907q0.113 0 0.227 0.227v0.151q-0.132 0.265-0.454 0.378-0.378 0-0.681-0.454zM9.301 22.919q0-0.113 0.907-0.378 1.115-0.681 1.588-2.268 0.019-0.151 0.151-0.151 0.945 2.268 1.966 2.647 0.34 0.113 0.605 0.302-0.378 0.832-0.378 1.966 0.076 0.284 0.076 0.605l-0.151 0.076h-0.151q-0.907-0.057-1.89-0.983v-0.076q-1.059 0.983-2.117 0.983h-0.076l-0.151-0.076q0.076-0.662 0.076-0.832 0-1.040-0.454-1.815zM10.058 15.433v-0.302q0-0.586 0.302-0.681 0.491 0 1.285-0.076 2.268 0 2.268 0.605 0.076 0.397 0.076 0.454-0.454 2.268-0.454 2.571v0.454l0.076 0.151-0.151 0.076q-0.681-0.907-0.681-2.193h-0.076q-0.529 1.853-0.681 3.025h-0.151q0-0.737-0.605-3.176h-0.076q0 1.607-0.756 2.193h-0.076l0.076-0.529q0-0.51-0.378-2.571zM10.284 11.803v-0.983q0.529-2.42 0.529-2.949 0-0.454-0.454-1.512l1.664-1.512v0.076q0 0.321-0.983 1.588 0.302 0.756 0.302 1.512v0.076q0 1.021-0.302 2.117 0.737-0.529 0.983-0.529 0.265 0 1.059 0.605v-0.076q-0.151-0.945-0.151-1.588v-0.151q0-1.229 0.378-2.117-0.681-0.624-1.059-1.512l0.151-0.076q0 0.151 1.512 1.664-0.454 1.002-0.454 1.739v0.227q0.454 2.382 0.454 3.176v0.151q0 0.151-0.151 0.151h-0.076q0-0.605-0.681-0.832-0.378 0.151-0.907 0.605-0.756-0.605-1.059-0.605-0.529 0-0.529 0.756h-0.227zM10.511 14.072q1.21-1.059 1.588-1.059 0.737 0.321 1.361 1.21-1.134-0.076-1.664-0.076h-0.302l-0.907 0.076zM10.587 11.955q0.189-0.586 0.454-0.681 0.284 0 1.059 0.529 0.737-0.529 1.059-0.529 0.378 0.359 0.378 0.832-1.172 0.681-1.512 0.681-1.437-0.586-1.437-0.832zM11.494 6.359l0.681-0.605q0.151 0.019 0.605 0.681-0.151 0.945-0.151 1.588v1.437l-0.076 0.151q-0.246-0.095-0.454-0.302l-0.454 0.227h-0.076q0.076-0.889 0.076-1.285 0-0.643-0.151-1.89zM12.326 4.015l0.151-0.076q0.284 0.302 2.268 1.588 0.756 0.813 0.756 0.907l-0.151 0.076h-0.756q-0.548-0.718-2.117-2.193 0-0.113-0.151-0.302zM12.402 3.032v-0.076h0.076q0.567 0.491 3.176 1.89 1.134 1.153 1.134 1.588l-0.151 0.076h-0.454q-0.851-1.248-2.873-2.495-0.907-0.813-0.907-0.983zM12.477 19.44v-0.907l0.076-0.378h0.076q0.851 1.285 1.739 1.588v-0.076q-0.454-1.021-0.454-2.193v-0.302h0.227q0.17 0.945 2.117 2.117 1.758 0.832 2.571 0.832v0.151h-0.529q-1.985 0-3.478 2.117-1.040 0-2.042-1.664-0.302-0.756-0.302-1.285zM12.477 2.125l0.151-0.076q1.115 0.945 2.571 1.21-1.134-1.134-1.664-1.134v-0.151h0.076q0.813 0 3.251 1.059 0 0.851 1.134 3.63 0.151 0.397 0.151 0.832 0 1.399-1.512 2.647l-0.076-0.151q0.983-1.153 0.983-2.268v-0.605q0-1.664-2.495-3.327-0.983-0.302-2.571-1.664zM12.704 13.013v-0.151q0.51 0 2.798-2.042 0.302 0 0.302 1.059 0 1.909-1.664 2.42h-0.076q-0.454-0.529-1.361-1.285zM13.763 8.401v-0.454q0.113-0.832 0.302-0.832h0.076q0.038 0.605 0.529 0.605 0.416-0.057 1.059-0.832 0.151 0.019 0.151 0.151-0.302 0.681-1.966 1.815-0.151-0.246-0.151-0.454zM14.141 9.384q0-0.548 1.361-1.361l0.907-1.134h0.454q0.151 0.019 0.151 0.151v0.076q0 2.476-2.42 3.932 0 0.113-0.302 0.302h-0.076q-0.076-1.493-0.076-1.966zM14.216 6.964q0.019-0.151 0.151-0.151h0.907q0.151 0.019 0.151 0.151-0.34 0.529-0.756 0.529h-0.151q-0.302-0.132-0.302-0.529zM14.292 14.677q1.853-0.643 1.966-2.722-0.076-0.662-0.302-1.285 0.284-0.151 0.605-0.151h0.151q1.059 0 2.193 2.193 0.851 1.059 1.21 1.059v0.151h-0.076q-0.907 0-2.193-1.361 0.813 1.815 1.815 2.268v0.151h-0.076q-0.945 0-2.344-1.437v0.076q0.889 2.174 1.437 2.571l-0.151 0.076q-0.756 0-1.815-1.739l-0.302-0.227h-0.076q0.416 2.287 0.756 2.798v0.076q-0.076 0-0.076 0.076-0.907-0.397-1.361-1.664 0-0.132-0.151-0.605h-0.076q0 0.926-0.302 2.042v0.681l0.076 0.151-0.151 0.076q-0.681-0.851-0.681-2.117 0-0.076 0.076-0.076l-0.076-0.378v-0.529zM14.595 24.809q0-1.796 1.739-3.478 0.851-0.832 2.798-0.832h0.151v0.151q-2.25 0-3.327 2.268-0.151 0.567-0.151 0.681 0.132 0.983 0.832 0.983h0.076q1.588-0.473 1.588-1.966v-0.832q1.285 0.87 1.285 3.176l-0.076 0.907q1.38 0 1.815-2.495v-0.302q0-0.321-0.151-0.605l0.151-0.076q1.437 1.248 1.437 3.1h0.076q0.302-0.889 0.302-1.361v-0.454q0-0.699-0.454-1.512h0.076q0.983 1.002 0.983 2.268v0.681q0 1.021-1.512 2.193-1.191 0.302-1.512 0.302-0.151-0.076-0.227-0.076v-0.076q1.512-1.342 1.512-2.949v-0.151h-0.076q0 1.399-2.117 2.798-0.681 0.227-1.134 0.227h-0.076q-0.416 0-1.134-0.151v-0.151q1.512-1.172 1.512-2.722l-0.151-0.983h-0.076q0 2.25-1.437 3.1-0.378 0.227-0.756 0.227-1.966-0.246-1.966-1.89zM15.502 17.021v-0.378q0.019-0.151 0.151-0.151 0.378 0.699 3.1 1.815 0.964 0.586 1.361 2.042l-0.151 0.076q-0.643-0.491-2.647-0.983-1.815-0.794-1.815-2.42zM16.334 23.751v-0.454q0-0.945 1.21-1.89h0.151q0.227 0 0.227 0.756 0 1.418-0.907 1.89h-0.378q-0.113 0-0.302-0.302zM16.787 15.509l0.151-0.076q0 0.681 2.42 1.361v-0.076l-1.361-1.89v-0.227q3.025 1.682 3.025 3.705v0.227q-0.284 1.89-0.681 1.89 0-2.023-2.268-3.025-0.964-0.851-1.285-1.89zM17.165 3.108q0-0.529 1.664-0.983h0.227q0.983 0 1.134 0.907v0.227q0 0.983-1.134 1.588l-0.983-1.437h-0.076v0.076q0.832 2.004 0.832 2.647l-0.227 1.437h-0.151q0-0.756-1.21-3.705 0-0.095-0.076-0.756zM17.544 10.291q0.756-1.361 0.756-1.966v-0.151h0.227v0.681q-0.132 2.042-0.529 2.042-0.454-0.454-0.454-0.605zM18.224 21.104q0.34-0.151 1.134-0.227 1.096 0 1.512 1.966v0.302q0 1.040-0.756 1.89 0-2.344-1.89-3.932zM18.602 11.425q0.378-1.285 0.378-2.193v-0.076q0-0.605-0.151-1.361h0.076q0.302 0.095 0.529 1.815-0.095 2.495-0.454 2.495-0.378-0.51-0.378-0.681zM19.131 7.191v-0.151h0.076q1.285 1.38 1.285 3.403v0.454q0 1.645-0.529 2.344h-0.076q-0.321-0.189-0.454-0.529 0.454-1.134 0.454-2.873 0-1.361-0.756-2.647zM19.963 20.802q0.076 0 0.076-0.076 1.38 0 2.495 1.664 0.378 0.737 0.378 1.588h-0.076q-0.624-1.172-1.815-2.344z" fill="#000000"></path>
</svg>
