<?xml version="1.0" encoding="utf-8"?>
<!-- Generated by IcoMoon.io -->
<!DOCTYPE svg PUBLIC "-//W3C//DTD SVG 1.1//EN" "http://www.w3.org/Graphics/SVG/1.1/DTD/svg11.dtd">
<svg version="1.1" xmlns="http://www.w3.org/2000/svg" xmlns:xlink="http://www.w3.org/1999/xlink" width="30" height="32" viewBox="0 0 30 32">
<g id="icomoon-ignore">
	<line stroke-width="1" x1="" y1="" x2="" y2="" stroke="#449FDB" opacity=""></line>
</g>
	<path d="M0.5 14.219v-0.063q0-0.063 0.063-0.063l-0.063-0.125v-0.25q0-1.531 1.5-2.063h0.625q1.609 0 4.125 2.375 1.5 1.875 1.5 2.75v0.438q0 0.094-0.188 0.188-0.078 0-0.313-1.125-2.234-3.063-4-3.063-0.516 0-0.688 0.75 0 1.281 2.5 3.5 1.328 0.875 2.125 0.875 0.953 0 1.25-1.5 0-2.859-3.188-5-0.406-0.125-0.563-0.125-0.375 0-0.438 0.5h-0.063q-0.25-0.281-0.25-0.438 0.172-0.5 0.625-0.5 1.719 0 3.563 2.063 1.031 1.25 1.375 3.375v0.938q-0.391 1.5-0.875 1.5-0.328 0.313-1 0.313h-0.063q-2.641 0-5.063-3.75h-0.063v0.125l0.813 1.438q2.281 2.438 3.25 2.438 1 0.234 1 0.313 0.375 0.719 1.813 1.625 0.188 0.234 0.188 0.438v0.563q0 0.094-0.25 0.25h-0.25q-0.328 0-0.375-0.188v-0.125q0.031 0 0.25-0.063v-0.125q0-0.438-0.875-0.563-0.328-0.563-0.625-0.688 0.547 0.672 1.25 1.938 0.313 0.313 1.5 0.938 0.313 0.328 0.313 0.563v0.5q-0.203 0.5-0.875 0.5-0.891 0-1.313-1.25v-0.125l0.125-0.063q0.516 0.75 0.875 0.75h0.063q0.094 0 0.188-0.25-0.344-0.625-0.813-0.625h-0.188q-0.078 0-0.688 0.125l-1.375-1.25q-0.609-0.406-1-1.75 0.094-0.25 0.188-0.25 0.484 1.078 1.563 1.813 0.063 0 0.188 0.063l0.063-0.125q0-0.719-1.563-1.875-0.484-0.188-0.688-0.188-0.063 0.328-0.063 0.375 0 0.875 1.438 3 0.063 0.422 0.063 0.688-0.203 0.625-0.813 0.625h-0.063q-0.656 0-0.938-1.25 0.078-0.438 0.188-0.438l0.438 0.75 0.25 0.125 0.125-0.188v-0.313q-0.484-0.813-1.25-0.813-0.656-2.734-1.875-4.5-1.672-2.297-2.688-4.438zM4.313 9.219q0-0.563 2.313-1.5l3.813-2.563q1.719-0.75 3.688-0.75 3.656 0.313 5.188 0.313h3.063q2.141-0.813 2.313-0.813h0.5q1.297 0 1.688 2.063 0.359 0.641 1.813 2.063 0.375 0.641 0.375 1.188 0 0.922-1.188 1.938-1.281 0.813-3.75 1.313-2.328 0.563-5.063 0.75-2.313 0-2.313-1.125 0.094-0.25 0.188-0.25 0.297 0.625 1.313 0.625h0.438q4.594-0.563 6.438-1.188 1.609-0.594 2-1.25v-0.25q-0.344-0.188-0.875-0.25-0.828 0.188-1.438 0.188-0.125-0.234-0.125-0.5v-0.25q0.016-0.125 0.125-0.125h0.5q1.938-0.266 1.938-0.688v-0.375q0-0.156-1.188-2.25-0.391-0.75-0.875-0.75h-0.625q-1.672 1.031-2.625 1.438-1.672 0.5-2.688 0.5-1.594-0.063-1.875-0.063 0-0.141-3.5-0.438-1.344-0.094-1.375-0.125-0.047 0.063-1.188 0.125l-0.063-0.125q0.109-0.297 2.313-0.438h1.188q0.328 0 3.313 0.313 0.344-0.063 0.563-0.063h0.813q0.969-0.25 1.125-0.25v-0.125h-3.5q-0.063 0-0.063-0.063-0.063 0-0.063 0.063-3.063-0.375-3.25-0.375h-0.938q-1.563 0.188-2.313 0.688-1.141 0.672-3.313 2.25-1.375 1.031-1.375 1.438 0 0.813 3.625 1.375 0 0.125 1.625 0.125 2.031 0 5.188-1 2.969-0.813 4.188-0.813 0.016 0.125 0.125 0.125h0.063q0-2.031 2-2.313h0.125q1.563 0.328 1.563 1.25 0 0.125-0.125 0.125-0.453-0.625-1.625-0.625-0.891 0-1.563 1.188 0 0.5-0.438 0.5v0.438q0 0.125-1.313 0.375-2.688 1.063-2.688 1.875v0.25q0 0.094 0.688 1v0.063q-0.641 0.938-3.375 0.938-2.359 0-5.438-1.625l-1.938-1.375v-0.063q0.859 0.172 2.375 1 2.5 1.25 4.688 1.25 1.453 0 1.875-0.75v-0.188q0-0.313-1.063-0.563h-0.875q-4.25 0-6.938-1.063l-0.563-0.125h-0.438l-0.75 0.063-0.063-0.125v-0.125q0-0.063 0.063-0.063-0.438-1.156-0.438-1.438zM5 7.969q0.188-0.578 0.625-0.875l1.75-0.375h0.063q0.125 0 0.125 0.188 0 0.25-1.75 1.063-0.516 0.188-0.688 0.188zM15.063 16.906q0-0.922 1.688-2.75 0.734-0.875 1-0.875l0.063 0.125q-1.75 2.031-1.75 3.063 0 1.859 3.875 3.375 1.297 0.313 1.688 0.313v-0.063q-1.031-0.547-2.313-1.813-1.297-2.125-2.25-2.125-0.25 0-0.25-0.125v-0.063q0.063-0.188 0.375-0.188h0.438q0.531 0 1.938 1.5 0-0.578 0.625-0.813 0.438 0.188 0.438 0.563v0.563q0 0.125-0.125 0.125h-0.188q-0.563-0.313-0.563-0.438h-0.125q0.297 0.406 1.438 0.813 0.266 0.813 0.5 0.875 0.344 0.063 0.5 0.063l0.125-0.188v-0.063q0-0.078-0.563-0.5 0.047-0.188 0.5-0.188 1.063 0.125 1.438 0.125h0.188q0.688 0 2.875-0.375h0.188q1.375 0.109 1.375 0.938 0 0.438-0.875 0.563-0.672 0-1-0.438 0.016-0.125 0.125-0.125 0.5 0.078 0.5 0.188 0.313-0.078 0.313-0.188v-0.125q-0.422-0.188-0.563-0.188-2 0.438-2.313 0.438h-0.125v0.125q0.297 0 0.625 0.063 0.438-0.125 0.75-0.125 0.125 0.016 0.125 0.125 0 0.25-1.313 0.563v0.125l2.375 0.75q0.625 0.219 0.625 0.688 0 0.391-0.688 0.563h-0.188q-0.828 0-1.313-0.563l0.125-0.063h0.063q0.266 0 0.688 0.063 0.125-0.063 0.188-0.063-0.219-0.234-1.375-0.5h-0.5v0.188q0.313 0.375 0.313 0.438-0.313 0.125-0.438 0.125-3.531 0-6.875-1.625-2.047-1.547-2.375-2.875zM16.813 15.219q0.172 0 1.875-1.875h1.188q0.422 0 1.125-0.188l0.125 0.188q-1.547 1.875-2.625 2.5h-0.125l-0.063-0.125q1-1.078 1-1.188 0.063-0.109 0.063-0.25v-0.063q0-0.094-0.188-0.188h-0.25q-1.516 1.313-2 1.313-0.125 0-0.125-0.125zM21.063 9.719q0.328-1.438 1.063-1.438 0.406-0.125 0.563-0.125 1.875 0.25 1.875 1.688 0 1.016-1.375 1.438h-0.063q-0.984 0-1.375-0.563v-0.063q0.016-0.125 0.125-0.125l0.625 0.188 0.313-0.063v-0.125q-0.75-0.203-0.75-0.438v-0.188h0.125q0.609 0.125 0.688 0.125h0.063q0.344 0 0.688-0.438v-0.063q-0.359-0.5-0.875-0.5-1.125 0.344-1.125 0.938-0.203 0.563-0.313 0.563-0.172 0-0.25-0.813zM21.688 17.844v-0.063q0.219-0.516 1.938-1.188l0.25-0.375q-0.281-0.25-0.313-0.25h-0.188q-0.094 0-0.438 0.438h-0.063q-0.125 0-0.125-0.125 0.297-0.813 0.938-0.813 0.875 0 0.875 0.875 0 0.563-1.313 1.188 0 0.188-0.375 0.438h-1.063q-0.125 0-0.125-0.125z" fill="#000000"></path>
</svg>
