<?xml version="1.0" encoding="utf-8"?>
<!-- Generated by IcoMoon.io -->
<!DOCTYPE svg PUBLIC "-//W3C//DTD SVG 1.1//EN" "http://www.w3.org/Graphics/SVG/1.1/DTD/svg11.dtd">
<svg version="1.1" xmlns="http://www.w3.org/2000/svg" xmlns:xlink="http://www.w3.org/1999/xlink" width="26" height="32" viewBox="0 0 26 32">
<g id="icomoon-ignore">
	<line stroke-width="1" x1="" y1="" x2="" y2="" stroke="#449FDB" opacity=""></line>
</g>
	<path d="M0.523 28.207q1.692-1.249 3.384-3.062h0.081q0.121 0 0.483 0.645 0 0.886-3.868 2.578zM3.746 22.647v-1.209q0-0.665 0.564-1.128 0 0.121 0.242 0.242l-0.081 0.564q0.302 1.531 1.531 4.27 0 0.322 0.081 0.645l-0.081 0.161q0.081 0.161 0.081 0.242l-0.161 0.081q-0.161-0.020-0.886-1.531-1.148-1.35-1.289-2.337zM4.632 18.055v-0.242q0.222-0.967 0.403-0.967l0.161 0.242v0.081q0 0.081-0.081 0.081 0 0.645 2.095 3.303 0.564 0.886 0.564 1.853v0.483q0 1.35-0.967 2.417l-0.081-0.161q0.242-0.725 0.242-0.967v-0.081q0-1.329-1.45-3.142-0.886-1.491-0.886-2.901zM5.358 14.912v-0.322q0-1.269 0.564-1.853 0.121 0 0.483 1.692 1.047 1.531 2.82 3.868 0.886 1.41 0.886 2.901v0.483q0 1.047-0.967 2.095l-0.081-0.161v-0.081q0.322-0.302 0.322-1.45 0-1.309-1.692-3.465-0.705-0.524-1.853-2.175-0.443-0.927-0.483-1.531zM6.324 10.561v-0.403q0-3.142 4.27-7.010 2.256-1.773 4.995-1.773 1.289 0.161 1.289 0.242 1.249-1.128 1.531-1.128 0.181 0 0.483 1.531 0.745 0.564 1.047 0.564l1.37-0.967h0.081q0.161 0.020 0.161 0.161 0 0.342-0.483 1.934 0.322 0.222 1.45 2.014 0.161 0.081 0.242 0.081v0.161q0 0.161-0.161 0.161h-0.322q-0.222 0-0.483-0.161v0.081q0.222 0 0.483 2.659 0.544 1.672 1.692 2.578v0.564q0 3.142-1.611 3.142h-0.403q-2.175 0-2.175-0.967-1.833-2.095-3.223-2.498-2.095-1.551-2.095-3.706 0.040-0.806 0.242-0.806l0.081 0.161v0.403q0 1.571 2.095 2.901 2.901 0.906 3.948 2.739 0.342 0.322 0.645 0.322h0.081q0.322-0.141 0.322-0.564 0-0.705-1.37-1.531v-0.242q0.564-0.302 0.564-0.403 0.242-0.524 0.242-0.967 0-1.611-1.531-4.029-1.43-1.934-3.062-1.934-2.679 0-3.545 1.934-0.322 0.584-0.322 1.289v0.403q0 0.866 1.45 6.607 0.242 1.209 0.403 4.834l-0.081 0.161 0.081 0.161q0 4.572-2.498 7.735h-0.081v-0.242q0.363 0 1.45-4.834 0.081-1.934 0.161-1.934-0.242-3.928-0.886-5.721-0.483-1.712-1.853-5.479-0.242-0.886-0.242-1.289v-0.564q0-2.478 2.82-3.948h-0.161l-1.45 0.483q-2.417 1.672-2.417 3.868 0 1.531 1.692 5.157 0.725 2.135 0.886 3.384l-0.161 0.081q-0.141-0.081-0.967-2.014-0.705-1.068-1.934-2.417-0.645-0.725-0.645-0.886h-0.081v0.242q0 1.611 2.659 5.962 1.209 2.357 1.209 3.303 0.081 0 0.081 0.242v0.967q0 0.161-0.161 0.161-0.645-2.719-2.659-4.834-3.142-3.082-3.142-6.123zM15.751 6.13l0.161-0.081q0.463 0.403 0.806 0.403 0.322 0 0.322-0.161-0.242-0.403-0.242-0.645 0.242-0.403 0.645-0.403 0.765 0 1.692 1.289v0.161q0 0.121-0.322 0.242-0.665-0.081-0.806-0.161-0.483 0-0.483 0.725 0 0.826 1.773 2.82 0 0.161-0.161 0.161-1.571-0.725-2.901-2.82-0.483-1.188-0.483-1.531zM16.557 14.026q0-0.081 0.081-0.081l-0.081-0.403v-0.081q0.060-1.37 0.403-1.37 0 0.826 1.45 4.19 0.161 0.342 0.161 1.289v0.403q2.659 3.021 2.659 5.559v0.645q0 1.047-0.242 1.047-0.141 0-0.403-1.611-0.705-1.974-2.256-3.223-0.906-0.665-1.611-1.047v-0.081q0.322-1.269 0.483-2.256-0.081-1.027-0.645-2.981z" fill="#000000"></path>
</svg>
