<?xml version="1.0" encoding="utf-8"?>
<!-- Generated by IcoMoon.io -->
<!DOCTYPE svg PUBLIC "-//W3C//DTD SVG 1.1//EN" "http://www.w3.org/Graphics/SVG/1.1/DTD/svg11.dtd">
<svg version="1.1" xmlns="http://www.w3.org/2000/svg" xmlns:xlink="http://www.w3.org/1999/xlink" width="26" height="32" viewBox="0 0 26 32">
<g id="icomoon-ignore">
	<line stroke-width="1" x1="" y1="" x2="" y2="" stroke="#449FDB" opacity=""></line>
</g>
	<path d="M1.664 9.107q0-2.547 1.665-4.662 0.549-0.466 1.465-0.466 0.3 0.117 0.466 0.4-0.599 1.432-0.599 1.798v0.799q0 0.499-0.266 2.264v0.333q0.466 1.765 0.466 2.398 0 0.866-0.866 1.865-0.35-0.283-1.332-0.799 0-0.849-0.733-1.665v-0.4q0-0.466-0.266-1.865zM4.062 17.565v-1.332q0.183-1.931 0.533-1.931 0.599 0.2 0.599 0.333-0.799 2.398-0.799 3.663v0.067h-0.2zM4.528 13.769q0.316-0.799 0.466-0.799 0.183 0 0.266 1.066l-0.2 0.133q-0.533-0.1-0.533-0.4zM4.728 8.974q0.067-0.133 0.067-0.2h0.067l3.13 0.599h0.4l0.2 0.133q-0.383 1.415-0.599 3.53h-0.133q-1.482 0-2.398-0.133 0-0.866-0.666-3.197 0-0.15-0.067-0.733zM4.861 8.175q0.3-3.263 0.666-3.263 0.3-0.466 1.332-0.466 3.796 0.233 4.196 0.932-0.666 0.866-0.666 2.464-0.716 0.783-1.465 1.199-1.665 0-4.062-0.866zM5.593 13.503h2.331q0.133 0.017 0.133 0.133v2.597q0 0.266-1.598 0.266h-0.266q-0.283 0-0.599-2.997zM6.193 17.165q0.733-0.266 1.465-0.266h0.333q0.2 0 0.2 1.132-0.383 1.332-1.066 1.332h-0.333q-0.4-1.082-0.599-2.198zM6.925 19.763q1.099-0.266 1.399-0.266 0.2 0.516 0.333 2.065-0.35 0.133-1.132 0.2-0.599-1.432-0.599-1.998zM6.992 25.357q0.499-1.199 0.799-1.199l0.666-0.067 0.067 0.133q-0.333 1.265-0.733 1.465-0.799-0.117-0.799-0.333zM7.458 22.227q0.166-0.067 1.265-0.266 0.017 0.133 0.133 0.133l-0.067 0.333v0.733q0 0.533-0.999 0.533h-0.2l-0.067-0.133 0.067-0.599q0-0.083-0.133-0.733zM8.324 18.298q0.333-1.632 0.333-2.531 0-0.566-0.266-1.399l0.133-0.067h0.133q0.799 0 0.799 0.866v0.266q0 0.15-0.067 0.266l0.067 0.133q-0.416 1.881-1.066 2.597zM8.457 13.836q0.183-2.131 0.4-2.131h0.133q0.499 0.383 0.733 0.866v0.4q-0.166 1.132-0.533 1.132-0.733-0.1-0.733-0.266zM8.723 19.163v-0.133q0.599-0.766 1.066-2.664 0-0.466 0.133-0.466 0.799 0 0.799 0.333 0.133 0.533 0.133 1.132v0.799l0.067 0.466q-0.133 0.067-0.2 0.067-0.616-0.2-0.733-0.2v0.067l0.4 2.797v0.067q-0.499 1.665-0.733 1.665-0.882-2.647-0.932-3.929zM8.79 11.105v-0.133q0-1.282 1.732-2.597 0.2-0.45 0.533-2.131l0.333-0.4q0.366 0.266 0.599 1.598v0.733q-0.117 1.648-1.532 3.996l-0.133 0.067h-0.067q-0.982-1.016-1.465-1.132zM8.99 25.623q2.264-4.862 2.264-7.326v-0.932q0-0.533-0.133-1.199 0.067 0 0.067-0.067l0.799 0.067h0.466q0.067 0 0.067 0.067l0.133-0.067q0.133 0.017 0.133 0.133-1.199 4.678-1.199 7.126v0.067q0 1.415 0.666 2.531 0 0.15-0.466 0.2-2.797-0.233-2.797-0.599zM9.856 14.502l0.2-0.133q0.899 0.533 1.332 0.533h0.266q0.566 0 2.264-0.799h0.533q0.133 0.017 0.133 0.133 0 1.399-0.266 1.399-0.433-0.133-0.599-0.133-1.965 0.133-2.065 0.2-1.732-0.133-1.732-0.799 0-0.050-0.067-0.4zM9.989 13.836q1.399-2.664 2.131-4.462 1.016-2.181 3.996-3.463h0.067q0.999 1.432 0.999 2.398v0.466q0 0.35-0.733 1.865-0.616 2.664-1.598 2.664-2.764 1.199-3.063 1.199-0.683 0-1.798-0.666zM9.989 9.773h0.266q0.416 0 0.799-0.666h-0.133q-0.866 0.45-0.932 0.666zM10.655 4.445v-0.2q0.882-0.333 3.263-0.333 0-0.1 0.866-0.133 0.649 0.2 1.399 1.465-0.050 0.117-1.865 0.799 0 0.050-1.465 1.066l-0.866-1.532q-1.165-1.132-1.332-1.132zM11.92 23.093q0-2.564 1.399-7.126 0.749 0.117 1.066 0.4-0.466 2.547-1.399 5.394-0.4 2.597-0.4 3.197h-0.067q-0.599-0.733-0.599-1.865zM14.584 19.030v-0.067q0.333-2.398 0.533-5.261 1.099-0.433 1.465-1.465 0.266-1.532 0.599-2.198 0.416-0.666 1.265-0.666 1.249 0 3.197 2.331-1.848 4.512-3.663 6.26-1.715 1.066-3.396 1.066zM16.382 19.297q1.016-0.433 1.532-0.799h0.067q0.266 0 0.266 1.265v0.866q0 0.533-0.133 1.199h-0.2q0-0.15-1.465-2.331-0.067-0.133-0.067-0.2zM17.048 5.711v-0.067q0.816-0.2 1.132-0.2h0.333q2.264 1.998 2.464 2.864 0.799 1.548 0.866 2.331v0.2q0 0.133-0.133 0.133-1.415-1.682-2.331-1.865-0.233-0.166-1.399-0.466-0.932-2.764-0.932-2.93zM17.714 25.757q0.932-3.879 0.932-5.727v-0.533l0.067-0.4-0.2-1.132q1.315-1.399 2.464-3.996 0.882-1.915 0.999-1.998h0.067l0.067 0.333v1.199q0 1.732-1.931 5.461-0.932 2.481-0.932 3.53 0 1.482 1.132 1.798 0.333 0.050 0.333 0.2 0 1.732-0.932 1.732h-0.333q-1.732-0.117-1.732-0.466zM19.579 22.693q0-1.781 1.532-4.928h0.133q-0.866 4.445-0.866 6.127l-0.2 0.133q-0.45 0-0.599-1.332zM22.243 11.638q0.067-0.566 0.067-0.932h0.067q1.132 0 1.265 3.33h-0.067q0 0.067 0.067 0.067-0.333 1.998-0.466 4.462 0.067 1.032 0.2 1.798l-0.2 0.133h-0.2q-0.233 0-0.266-2.331v-0.067q0.266-3.113 0.266-3.929 0-1.432-0.733-2.531zM22.975 21.228h0.067l-0.067-0.133v-0.067q0-0.15 0.466-0.2 0.466 0.466 0.733 2.065-0.067 0.4-0.2 0.4-0.999-0.982-0.999-2.065z" fill="#000000"></path>
</svg>
