<?xml version="1.0" encoding="utf-8"?>
<!-- Generated by IcoMoon.io -->
<!DOCTYPE svg PUBLIC "-//W3C//DTD SVG 1.1//EN" "http://www.w3.org/Graphics/SVG/1.1/DTD/svg11.dtd">
<svg version="1.1" xmlns="http://www.w3.org/2000/svg" xmlns:xlink="http://www.w3.org/1999/xlink" width="27" height="32" viewBox="0 0 27 32">
<g id="icomoon-ignore">
	<line stroke-width="1" x1="" y1="" x2="" y2="" stroke="#449FDB" opacity=""></line>
</g>
	<path d="M0.494 28.38v-0.076q1.512-2.079 1.512-5.217 1.342-3.611 2.873-5.747 0.151 0.019 0.151 0.151-0.302 0-1.89 4.612 0 0.284-0.151 0.756h0.151q0.132-1.21 1.89-3.932 0.529-0.605 0.756-0.605l0.605 0.681q-2.117 1.871-2.647 3.403-0.284 0.397-0.681 1.588h-0.151v0.302q0 0.605 0.227 1.89-0.189 1.134-0.756 1.134v-0.076q0.302-0.321 0.302-0.756l-0.227-0.151q-0.681 0.095-0.681 0.681v0.151q0 0.662 1.059 0.907v0.076q-0.435 0.454-1.437 0.454h-0.076q-0.832 0-0.832-0.227zM1.78 3.654q0.076-0.983 0.227-0.983h0.076q0.435 0.491 1.361 1.285v0.076q-0.057 0-0.454 0.076-0.132-0.076-0.302-0.076v0.076q0.302 0.378 0.302 0.529 0.832-1.21 1.815-1.21h0.227q0.529 0 0.529 0.378h0.076q0.095 0 0.983-1.134 0.321 0 0.378 1.059v0.378q0.964 0.454 1.059 0.454 0.302-0.076 0.302-0.302t-0.378-0.227v-0.151h0.529q0.378 0.189 0.378 0.605v0.151q0 0.246-0.227 0.529v0.151q0.491 0.227 0.756 0.227 0.17-0.132 0.529-0.756 0.151 0.246 0.151 0.454 0 0.473-0.529 0.983 0.548 0.756 1.21 0.756 0.284 0 0.529-0.454-0.113 0-0.227-0.227v-0.151q0.586 0 0.681 0.756v0.151q0 0.435-0.302 0.756h0.076q1.267 0 2.571-1.437l0.454-0.076q0.378 0.095 0.378 0.227v0.076q-0.756 0-1.285 1.285h0.076q0.87-0.038 2.344-1.21 0.038 0 0.302-0.076v0.227q-0.208 0-1.285 1.134-1.437 0.907-3.025 0.907h-0.151v0.076q0.378 0.302 0.378 0.378 0 0.151-0.151 0.151-0.813 0-1.437-0.454 0 1.21-0.454 1.588h-0.076v-0.529q0-1.361-0.227-1.361 0 0.851-0.907 2.42h-0.151q0.151-0.907 0.151-1.437v-0.529q0-0.076 0.076-0.076l-0.076-0.151v-0.151q0-0.529-0.151-1.437h-0.076q-0.057 1.172-1.361 3.251-0.076 0.397-0.076 0.454 0 0.246 0.302 0.605l-0.076 0.151q-0.529-0.227-0.529-0.756v-0.151q0-0.473 0.756-2.42 0.095-0.964 0.151-1.059-0.227-1.664-1.437-1.664-0.87 0.302-0.983 0.302h-0.076q0.454-1.078 0.605-1.739l-0.151-0.076q-0.567 0.151-0.681 0.151 0-0.151-0.151-0.151-0.208 0-0.378 0.983 0.076 1.040 0.076 1.285-0.189 0.605-0.302 0.605h-0.076v-0.227q0-0.076 0.076-0.076l-0.454-2.193q-0.567 0.321-0.907 1.361h-0.076q-0.151-0.17-0.151-0.529h-0.076v0.302q0.132 1.229 0.302 1.361v0.151q0 0.151-0.454 0.151v0.076q0.756 0 0.756 1.361v0.378q0 0.454-0.227 2.268 0 0.416 0.378 0.529 0.851 0 1.285-3.781l0.151-0.076q0.302 0.737 0.302 1.89v0.076q0.983-1.134 0.983-2.193v-0.302q0-0.113-0.227-0.227-0.189 0.378-0.605 0.378h-0.151q-0.113 0-0.227-0.227v-0.151q0-0.227 1.059-0.302 0.416 0.284 0.529 0.605v1.059q-0.019 0.756-1.588 3.403-0.265 1.512-0.454 1.512h-0.227q-1.815 0-1.815-0.832-0.113 0-0.378-0.681v-0.227l0.302-1.437-0.076-0.151q0-0.076 0.076-0.076 0-1.361-0.681-2.647v-0.227q0.246-0.662 0.454-2.193-0.378-0.87-0.529-1.588zM2.914 23.692h0.076v-0.454h-0.076v0.454zM4.199 14.391v-0.227q0.113-0.302 0.227-0.302 0.34 1.512 1.21 2.949h0.151v-0.076q0-0.265-0.076-0.681 0-1.928 1.89-3.176l0.378-0.076v0.076q-1.664 1.248-1.664 2.722v0.605q0 1.815 2.193 1.815 2.193-0.756 2.193-2.117v-0.076q-0.095-0.756-0.681-0.756h-0.302q-0.605 0-0.756 0.983 0 0.605 0.832 0.605 0 0.113-0.227 0.227h-0.076q-0.907 0-0.907-1.059v-0.227q0-1.021 1.512-1.21 0.926 0 1.361 1.21v0.076q0 1.55-1.664 2.873v0.151q-1.21 3.875-1.21 4.159v0.151q0 1.947 1.285 3.63 0.794 0.454 1.437 0.454v0.076q-0.51 0.227-0.832 0.227-1.985 0-2.798-4.159l-0.076-0.907q1.248-1.928 1.89-3.478h-0.076q-0.586 0.302-1.361 0.302-2.911 0-3.856-4.764zM7.905 15.979q0-1.493 1.739-4.386 2.079-2.268 4.386-2.268h0.151q2.476 0 3.403 1.966h0.076v-0.076q-0.246-2.268-2.042-2.268h-0.151q-0.794 0-2.647 0.302h-0.076v-0.076q0-0.132 1.512-0.605 2.476-1.361 3.705-1.361h0.756q1.134 0 2.344 1.437 0.284 0.227 0.529 0.227h0.076q0.681 0 0.681-0.832v-0.378h0.151l0.076 0.681q-0.227 1.21-1.059 1.21h-0.302q0 0.794 1.512 1.815h0.227q0.605-0.076 0.605-0.605h0.151v0.151q-0.189 0.907-0.907 0.907h-0.076q-0.548 0-1.21-0.529v0.076q0 0.586 1.437 1.588 0.586 0.284 2.722 0.756l0.454 0.605v0.076h-0.076q-0.473-0.681-2.42-0.681-1.853-0.529-2.495-1.512-0.34-0.699-1.059-3.025-0.567-0.832-0.907-0.832 0.302 0.756 0.529 2.949 0.718 1.815 1.664 1.815 0.378 0.113 0.378 0.227v0.076h-0.227q-2.004 0-2.571-3.176 0-1.021-0.983-1.739h-0.302q1.134 1.172 1.134 2.571v0.227q0 2.949-1.815 6.503-1.966 3.894-1.966 6.2v0.454l0.076 0.756-0.151 0.076q-0.378-0.51-0.378-2.193 0.076-1.229 0.151-1.285v-0.076h-0.076q-0.832 2.987-0.832 3.478v0.151q0 0.529 0.454 0.529l0.378-0.076 0.076 0.151q-0.775 0.586-1.664 0.681-0.151 0-0.151-0.151v-0.529q0-0.662 1.361-4.688 0.454-1.947 0.454-4.083 0.662-0.416 1.059-1.134v-0.076q-1.777 1.682-3.1 1.89h-0.076q-0.151 0-0.151-0.151 3.025-1.815 3.025-4.008v-0.378q-0.284-1.966-1.361-1.966h-0.227l-0.227 0.151h-0.151v-0.076q0.189-0.378 0.605-0.378h0.302q1.134 0 1.588 1.815 0.019 0.151 0.151 0.151 0-0.737 0.076-0.756 0-1.361-1.437-1.966-0.681-0.095-0.832-0.151-1.72 0.113-3.63 1.89l-0.076 0.151h0.076q0.813-0.454 1.361-0.454h0.227q1.588 0.435 1.588 0.907 0.378 0.435 0.378 1.21-0.17 1.512-0.454 1.512h-0.076q0-0.076 0.151-0.605v-0.076q0-2.193-1.89-2.193-2.098 0-3.403 3.025l-0.076 0.454h-0.227zM8.888 23.389q0-1.493 2.117-4.31 0.832-1.342 0.832-2.722 0-0.189-0.227-2.268l0.151-0.076q0.605 1.285 0.605 2.647v0.151q0 2.495-2.042 4.537-0.983 1.172-0.983 2.42v0.076q0 0.51 0.227 1.361l-0.151 0.076q-0.529-0.756-0.529-1.89zM12.063 24.221q0.907-1.701 0.907-2.722l-0.302-3.327q1.285-0.529 1.437-0.529h0.076q-0.151 1.682-0.227 2.042 0 0.076 0.076 0.076-0.246 2.42-0.681 3.251-0.435 0.567-0.681 1.21 0.378 0.057 0.378 0.227-0.284 0.151-0.605 0.151h-0.076q-0.302-0.151-0.302-0.378zM14.861 21.045h0.076q1.399-3.951 1.437-4.386-0.681 0.605-1.512 4.31v0.076z" fill="#000000"></path>
</svg>
