<?xml version="1.0" encoding="utf-8"?>
<!-- Generated by IcoMoon.io -->
<!DOCTYPE svg PUBLIC "-//W3C//DTD SVG 1.1//EN" "http://www.w3.org/Graphics/SVG/1.1/DTD/svg11.dtd">
<svg version="1.1" xmlns="http://www.w3.org/2000/svg" xmlns:xlink="http://www.w3.org/1999/xlink" width="27" height="32" viewBox="0 0 27 32">
<g id="icomoon-ignore">
	<line stroke-width="1" x1="" y1="" x2="" y2="" stroke="#449FDB" opacity=""></line>
</g>
	<path d="M0.394 15.584q0-2.628 2.042-3.478 0.189 0 0.378-0.151h0.756q0.113 0 0.227 0.227v0.151q0 0.227-0.076 0.227 0.302 2.571 0.605 3.176l-0.151 0.076q-0.87-1.134-1.512-1.134h-0.378q-0.851 0-1.361 2.042 0 0.302-0.227 0.302-0.189-0.435-0.302-1.437zM1.301 17.55v-0.454q0-1.153 1.285-1.664 1.285 0.265 1.285 0.983-0.529 0.586-0.529 1.588l0.076 0.681q-0.113 0-1.437 0.983h-0.076q-0.605-1.153-0.605-2.117zM2.209 20.197v-0.227q0-0.113 0.907-0.756h0.076q0.265 0 0.454 2.042 0.302 0.926 0.302 1.361l-0.151 0.076q-0.813-1.002-1.588-2.495zM2.587 6.283v-0.756q0.019-0.151 0.151-0.151l2.722 3.1v0.302q-0.605 0.832-0.681 0.832h-0.227q-1.966-1.55-1.966-3.327zM3.041 5.074q0.019-0.151 0.151-0.151h0.227q2.155 0 3.856 2.042v0.076l-1.361 1.134h-0.151q-1.418-1.399-2.722-3.1zM4.326 13.24q0-4.31 4.688-6.654 0.832-0.227 1.739-0.227 3.062 0 5.898 3.478 2.079 3.516 2.268 6.579 0 2.873-0.983 2.873-0.737 0.378-3.025 0.832l-0.151-0.076q-0.605 0.227-1.815 0.227-2.231 0-5.293-1.739-2.457-1.871-3.176-4.159 0-0.321-0.076-0.605 0.076-0.151 0.076-0.227zM5.914 13.164q0 2.117 2.495 3.781 0-1.834 0.681-2.798v-0.076q-0.681 0.151-0.756 0.151-1.739-0.435-1.739-1.664l0.151-0.076q0.51 0.681 1.134 0.681 0.699 0 0.832-0.983-0.321-0.662-1.059-0.907-1.191 0-1.739 1.89zM8.258 5.905v-0.454q0-2.042 2.495-3.327 0.491-0.284 1.588-0.454v0.151q-1.437 1.078-1.437 1.815 0.076 0.132 0.076 0.302h-0.076q0.17 1.078 1.059 1.815v0.151l-0.529-0.076h-1.664q-1.021 0.227-1.437 0.227zM8.863 9.535q0 0.775 0.832 1.134h0.378q0.454-0.246 0.454-0.832v-0.076q0-0.435-0.302-0.756v-0.076q0.019-0.151 0.151-0.151h0.227q1.134 0.548 1.134 1.739v0.378q-0.397 0.983-1.588 0.983-0.132-0.076-0.302-0.076l0.076 0.907q0 0.132-0.151 0.832 0.699-0.302 1.285-0.302h0.151q0.359 0.227 0.681 0.832l-1.134 0.605q-0.832 0.87-0.832 2.117v0.454q0 0.076-0.076 0.076 0 1.096 3.932 1.739h0.302q0.681-0.038 0.681-0.227-0.454-1.38-1.815-2.193-0.605-0.189-0.605-0.227-0.529 0.151-0.529 0.605 0.378 0.756 1.134 0.756 0.454 0.113 0.454 0.227 0 0.227-0.681 0.378h-0.151q-1.815 0-2.117-1.815v-0.227q0-1.115 1.437-1.285h0.302q1.399 0.076 4.008 2.722 0.302 0.34 0.302 0.529h0.076q0.548 0 0.832-0.378 0-1.059-0.605-1.059-2.514-1.115-3.176-2.647-0.227-0.586-0.378-1.285v-0.227q0.51-1.285 1.21-1.285h0.454q1.342 0 1.815 2.268l-0.151 0.076q-0.794-1.134-1.361-1.134h-0.302q-0.548 0.302-0.605 0.529v0.076q0 1.248 2.571 1.89 0.416 0.076 0.832 0.076-0.435-2.174-1.815-4.159-0.17-0.378-0.756-0.378-1.815 0-2.42 1.966-0.132 0.832-0.302 0.832h-0.076q-0.832-0.51-0.832-0.907 0-1.758 1.966-2.873 0.416-0.151 0.605-0.151v-0.076q-1.89-1.512-3.251-1.512-1.475 0-1.966 1.588zM10.829 25.868v-0.076q0.302-1.115 0.529-3.478-0.076-0.151-0.076-0.227 0.151-0.076 0.227-0.076 0.737 0.302 2.647 0.454h1.134q0.681 0.775 0.832 1.437v0.076q0 0.132-1.21 0.302-1.059 0.718-1.059 1.588v0.227l0.076 0.907-0.151 0.076q-1.21 0-2.949-1.21zM11.358 21.407v-0.681q0.019-0.151 0.151-0.151 3.478 0.416 3.478 0.681v0.605q0 0.151-0.151 0.151h-0.907q-2.571-0.151-2.571-0.605zM11.434 3.712q0.681-1.588 2.042-1.588 0-0.076 0.302-0.076h0.832q0.416 0 0.529 0.302v0.227q-0.151 0.151-0.378 1.512-0.662 0-2.193 1.059-1.134 0-1.134-1.437zM14.383 26.246q0-1.153 1.664-1.512 0.529 0.076 0.529 0.227v0.076q-0.227 0.284-0.227 0.529v0.302q0 0.265 0.832 1.361 0.076 0.132 0.076 0.302-0.076 0-0.076 0.076-2.722-0.132-2.722-0.907 0-0.057-0.076-0.454zM15.29 3.712q0.151-1.21 0.454-1.21 1.985 0 3.251 1.285l-0.076 0.151q-0.681-0.076-0.832-0.151-0.076 0-0.076 0.076l-0.378-0.076h-0.227q-0.851 0-2.042 0.151-0.076-0.151-0.076-0.227zM16.954 25.49l0.151-0.076q0.284 0.284 1.89 1.059 0.756 0.473 0.756 0.605v0.076q0 0.302-1.815 0.302-0.983-1.040-0.983-1.966zM18.315 11.803q0-0.208 0.983-0.378 1.059 2.306 1.059 3.176v0.151q0 0.227-1.059 0.227-0.454-1.607-0.983-3.176zM19.903 11.35q1.682-0.265 3.251-1.059l0.529-0.151q0.491 0 1.361 2.268v0.076l-0.151 0.076q-0.397-0.227-1.059-0.227-1.059 0.473-1.059 1.739v0.832q0 0.151-0.151 0.151h-0.907q-0.813 0-0.983-1.664-0.378-1.040-0.832-2.042zM23.23 14.147q0.284-1.134 1.21-1.134h0.076q1.361 0 1.664 2.42 0.076 0 0.076 0.076 0 0.113-0.227 0.227-0.227-0.359-0.756-0.605h-0.378q-0.189 0-1.361 0.378-0.302-0.529-0.302-1.361zM24.062 15.887q0.302-0.227 0.832-0.227 1.437 0 1.437 2.042-0.076 0.681-0.227 0.681z" fill="#000000"></path>
</svg>
