<?xml version="1.0" encoding="utf-8"?>
<!-- Generated by IcoMoon.io -->
<!DOCTYPE svg PUBLIC "-//W3C//DTD SVG 1.1//EN" "http://www.w3.org/Graphics/SVG/1.1/DTD/svg11.dtd">
<svg version="1.1" xmlns="http://www.w3.org/2000/svg" xmlns:xlink="http://www.w3.org/1999/xlink" width="30" height="32" viewBox="0 0 30 32">
<g id="icomoon-ignore">
	<line stroke-width="1" x1="" y1="" x2="" y2="" stroke="#449FDB" opacity=""></line>
</g>
	<path d="M1.075 4.681q0.195-1.561 0.568-1.561h0.213l0.213 0.142q-0.142 1.49-0.142 1.774 0 0.781 1.135 2.413v0.071q-0.231 0.408-0.497 0.568-1.49-1.26-1.49-3.406zM3.275 16.319q0.16-2.058 0.568-2.058 0.106 0.018 0.993 0.993-0.266 0.514-0.781 2.129h-0.213q-0.568-0.479-0.568-1.064zM3.275 8.584v-0.142q0.302-0.497 0.426-0.497 1.49 0.355 2.626 0.355h0.071q0.106 0 0.213 0.213v0.142q0 0.568-0.284 0.568-1.756 0-3.051-0.639zM4.126 13.836q0.674-1.632 1.206-1.632 1.951 0 6.103-3.264h0.071q1.348 0.106 1.348 0.355v0.071q-1.064 1.81-3.761 4.613-0.071 0-0.639 0.639-0.408 0-1.774-0.071-0.426 0-1.703 0.284-0.71-0.568-0.852-0.993zM4.481 17.313q0.958-2.271 1.206-2.271h0.355q0.479 0 0.852-0.071 1.774 0 3.406 0.852v0.071q0 0.337-2.839 0.426v-0.071q-1.135 0-2.768 1.206h-0.071q-0.142 0-0.142-0.142zM7.036 9.081q0-0.781 0.284-0.781 3.406 0.106 3.406 0.426-1.668 1.739-2.626 1.987l-0.071-0.142q0.213-0.727 0.213-1.135-0.266-0.124-1.135-0.284 0-0.071-0.071-0.071zM9.307 14.9v-0.142q2.431-2.626 4.329-5.322 2.2 0.514 2.2 0.781 0 0.639-2.697 4.613l-1.348 1.49h-0.071q-1.1-0.798-2.413-1.419zM12.429 16.674q2.572-3.016 4.116-6.529 2.058 0.177 2.058 0.355v0.071q0 2.537-1.987 6.883-0.231 0.195-1.348 0.568-1.1 0.656-1.49 0.993h-0.071q-0.142 0-0.142-0.142 0.355-2.218 2.484-4.542h-0.071q-1.366 0.461-2.98 2.768h-0.142q-0.106 0-0.426-0.426zM13.99 19.513v-0.071q1.614-1.277 2.697-1.277 1.348 1.295 1.348 1.419-0.248 1.916-0.568 1.916-3.211-1.774-3.477-1.987zM17.184 17.384v-0.071q0.781-0.976 1.561-4.045 0.355-1.65 0.355-2.839l0.142-0.071h1.632q0.124 0 0.213 0.497 0 0.461-0.852 3.122 0 1.402-0.426 1.987-1.437 1.153-2.555 1.561zM17.325 18.093q0-0.124 2.413-1.49 0.834-0.621 1.135-1.774h0.071q1.987 1.774 1.987 2.768h-0.071q0 1.845 2.058 5.038 0 0.124 0.142 0.355-0.408 0.94-0.639 0.993h-0.071q-0.177 0-1.703-3.335-0.621-0.905-1.419-2.413l0.213-0.71v-0.142q-1.81 1.561-1.987 1.561-1.987-0.692-2.129-0.852zM17.751 22.209q0.497-1.987 0.639-2.271h0.071q1.047 0.479 1.419 0.993-0.585 0.745-1.561 1.277-0.408 0.213-0.497 0.213-0.071-0.142-0.071-0.213zM17.964 23.061q0-0.106 1.064-0.639 1.171-1.064 1.206-1.064h0.142q1.135 0.887 1.135 1.561-0.426 0.426-0.71 0.426-0.231-0.142-0.426-0.142v0.355q0 0.248-0.781 0.355 0-0.106-0.213-0.213h-0.142q0 0.461-0.213 0.497h-0.497q-0.213 0-0.568-1.135zM18.603 24.622q0.124-0.284 0.497-0.284l0.142 0.213v0.497l0.071 0.355-0.213 0.142q0-0.106-0.497-0.923zM19.809 24.196q0.408-0.213 0.568-0.213l0.142 0.213v0.923q0 0.142-0.142 0.142-0.568-0.94-0.568-1.064zM19.951 19.3q0-0.071 0.852-0.639h0.142q0.887 1.011 2.058 3.548 0.284 0.373 0.568 1.348v0.142h-0.142q-2.608-2.164-3.406-4.187-0.071 0-0.071-0.213zM20.803 13.339q0.639-2.129 0.639-2.909v-0.426q0-0.355-0.071-1.064 0.071 0 0.071-0.071 1.189 0.905 1.49 1.774v0.071q-1.135 0.94-1.135 1.845 0 0.373 0.213 1.064h0.142q-0.142-0.639-0.142-0.923v-0.142q0.053-0.426 0.213-0.426 1.242 0 1.632 0.993-1.189 0.852-1.49 0.852-0.142-0.177-0.142-0.284h-0.071v0.071q0 0.071 0.284 0.426v0.071q-0.053 0.479-0.497 0.923h-0.071q-1.064-0.834-1.064-1.845zM21.228 23.7v-0.142q0.142-0.266 0.426-0.355 0.568 0.798 0.568 1.135v0.071q0 0.142-0.142 0.142-0.071 0-0.852-0.852zM22.293 15.539v-0.284q0.284-0.692 0.426-0.71 0.124 0 0.355 1.206 0.993 1.632 2.129 1.632 0.142 0.177 0.142 0.284-0.071 0.302-0.993 1.277-0.142 0-0.213-0.852h-0.142l-0.497 0.071q0-0.656-1.206-2.626zM22.435 11.778v-0.071q0.479-0.639 0.852-0.639h0.071q0.177 0 0.993 0.923 0 0.142-0.142 0.142h-0.568q-0.16 0-0.284 0.071-0.923-0.284-0.923-0.426zM23.073 14.687q0.177-0.497 0.284-0.497h0.284q2.022 0.355 3.122 0.71v0.142q-0.284 0.923-0.426 0.923l-0.355-0.639q-0.142 0-0.142-0.142-0.373 0.124-0.639 0.355-0.337-0.639-0.639-0.639-0.266-0.071-0.568-0.071-0.142 0.018-0.142 0.142v0.071q0 0.266 0.284 0.993 0.408 0 0.71-0.284h0.071q0.142 0.018 0.142 0.142v0.639q0.177 0 0.993-0.284 0 0.071 0.071 0.071-0.302 0.639-0.71 0.923-1.331-0.355-1.774-1.064-0.284-0.337-0.568-1.49zM23.286 10.571q0-0.106 0.213-0.213h0.071q2.2 0 3.122 1.206 0 0.213 0.142 0.71 0 0.089-0.71 0.71h-0.071q-0.692-0.479-2.768-2.413zM23.357 13.907v-0.071q0.337-0.568 1.277-0.568 0.727 0 1.206 1.064-0.142 0.071-0.213 0.071-1.082-0.355-1.916-0.426-0.124 0.071-0.284 0.071zM23.783 12.416q0.018-0.142 0.142-0.142 0.905 0.142 1.774 0.639v0.071l-0.497 0.355h-0.142q-0.905-0.514-1.277-0.923zM24.635 24.906v-0.284q0-0.106 0.284-0.284h0.142q1.632 0.621 1.632 0.71l0.142 0.213v0.355q0 0.177-1.419 0.284-0.302-0.248-0.781-0.993zM24.989 23.912q0.266-0.621 0.426-0.639h0.071q0.621 0.479 1.987 0.993 0.284 0.426 0.284 0.639v0.142q0 0.142-0.142 0.142h-0.142q-0.213 0-0.852-0.497-1.632-0.479-1.632-0.781zM25.628 13.623v-0.071q0.018-0.142 0.142-0.142 0.923 0.071 0.923 0.284v0.142q-0.106 0.781-0.284 0.781h-0.071q-0.444-0.727-0.71-0.993zM26.409 13.339v-0.142q0-0.089 0.426-0.355h0.142q0.213 0.071 0.213 0.426v0.071q0 0.142-0.213 0.142-0.213-0.142-0.568-0.142zM26.551 14.616q0.444-0.781 0.568-0.781l0.071 0.142v0.213q-0.142 0.639-0.355 0.639-0.284-0.106-0.284-0.213zM26.976 11.494q1.135-0.71 1.348-0.71v0.142q-0.585 0.798-1.064 1.277h-0.142q-0.142-0.568-0.142-0.71zM27.118 26.751q0.142-0.639 0.142-0.923v-0.284q0.018-0.142 0.142-0.142h0.213q0.142 0.018 0.142 0.142v0.355q-0.302 0.993-0.497 0.993-0.142 0-0.142-0.142zM27.828 24.338l0.142-0.071q0.479 0.195 0.639 0.497v0.142q0 0.142-0.142 0.142h-0.071q-0.568 0-0.568-0.71zM28.041 26.325q0-1.135 0.213-1.135h0.213q0.142 0.018 0.142 0.142v0.071q-0.284 0.923-0.497 0.923h-0.071z" fill="#000000"></path>
</svg>
