<?xml version="1.0" encoding="utf-8"?>
<!-- Generated by IcoMoon.io -->
<!DOCTYPE svg PUBLIC "-//W3C//DTD SVG 1.1//EN" "http://www.w3.org/Graphics/SVG/1.1/DTD/svg11.dtd">
<svg version="1.1" xmlns="http://www.w3.org/2000/svg" xmlns:xlink="http://www.w3.org/1999/xlink" width="21" height="32" viewBox="0 0 21 32">
<g id="icomoon-ignore">
	<line stroke-width="1" x1="" y1="" x2="" y2="" stroke="#449FDB" opacity=""></line>
</g>
	<path d="M0.833 16.648q0-3.119 2.079-5.656 0.811-0.728 1.663-1.081v0.083q-2.828 2.204-2.828 5.988 0 3.639 3.66 6.571 1.497 1.767 2.246 3.161-0.083 0-0.083 0.083-1.019-0.374-4.408-3.909-0.603-0.894-0.832-1.497h-0.083v0.083q0 1.455 4.99 5.573 2.495 2.724 2.662 4.658h-0.083q-1.372-2.558-5.24-5.323-3.743-3.14-3.743-8.733zM0.917 10.078v-0.166q1.56-0.187 3.743-1.663 1.019-0.749 1.497-0.749v0.166q-0.915 0.437-2.662 1.83h-0.083v0.083h0.083q1.996-0.437 3.743-2.162v0.166q-2.204 2.578-5.073 2.578-0.832-0.083-1.248-0.083zM2.081 16.066v-0.499q0-3.722 2.911-5.157l0.582-0.083v-0.582q0.021-0.166 0.166-0.166 0.229 0.749 0.832 0.749v-0.083q-0.166-0.416-0.166-1.248h0.083l0.665 1.248q0.021 0.166 0.166 0.166 0-0.166 0.083-0.166-0.166-0.416-0.166-1.497v-0.333h0.083q0.146 0 0.416 1.414 0.125 0 0.333 0.749h0.083v-0.083l-0.083-0.832q0.083-1.289 0.25-1.83h0.166v0.416q0 0.187-0.083 0.333l0.083 0.166q0 0.083-0.083 0.083 0.312 2.204 1.164 3.41l-0.083 0.166q-2.183-1.747-3.493-1.747-1.747 0.25-1.747 1.747 0 1.809 2.495 2.828 0.832 0.333 2.578 0.416l1.164-0.166 0.083 0.166q-0.707 0.998-2.079 0.998h-0.333q-2.558 0-4.408-1.913v0.083q0.561 1.289 2.495 2.079 1.31 0.333 1.747 0.333h0.333q0.769 0 2.495-0.416v0.083q-1.289 1.497-2.329 1.497h-0.832q-2.162 0-3.576-1.83h-0.083v0.166q1.788 2.412 4.159 2.412v0.166h-0.083l-0.998 0.083v-0.083q-0.083 0-0.083 0.083-2.162 0-3.992-2.662l-0.25-0.665h-0.083v0.083q0.125 1.435 3.161 4.325 0.998 1.58 0.998 2.662h-0.166q-4.574-3.784-4.574-7.070zM2.913 7.915v-0.083q0.728-0.957 3.66-1.497v-0.083h-0.25q-0.499 0-1.58 0.166v-0.083q0-0.353 1.996-0.665 0.853 0 1.913 0.25l0.998-0.166 0.083 0.166q-1.164 1.331-3.992 1.331-0.957 0-2.828 0.665zM4.992 3.84l0.166-0.083q0.457 0.665 1.248 0.665h0.499l2.412-0.333q1.497 0 2.246 0.832v0.083q-2.474 0.665-2.911 0.665-0.728 0-1.248-0.416v-0.083h0.499q0.478 0 1.663-0.166v-0.083l-0.416-0.083h-0.665l-0.416 0.083v-0.083l-0.166 0.083h-1.081q-1.372 0-1.83-1.081zM5.99 13.155q0.146-0.582 0.333-0.582 0 0.083 0.083 0.083l-0.083 0.166v0.166q0 0.998 1.331 1.248 0.146-0.083 0.333-0.083v-0.083q-1.414-0.166-1.414-1.414 0.291-0.998 0.665-1.164h0.083v0.083q-0.25 0.769-0.25 0.915 0.146 0.998 0.998 0.998 1.227 0 3.576-3.077 0.79-0.832 2.246-0.832 1.060 0.27 1.081 0.499v0.083h-0.083q-0.457-0.25-0.915-0.25-1.248 0.166-1.248 0.416 0.707-0.083 1.081-0.083 0.707 0.125 1.331 0.749v0.083h-0.166q-0.499-0.333-0.998-0.333h-0.333q-0.832 0-1.747 0.749h0.083q0.749-0.25 1.248-0.25h0.333q1.164 0 2.079 1.164h-0.083q-1.123-0.665-1.663-0.665-2.745 0.229-2.745 1.996v0.25h-0.25l-0.083-0.333q-1.351 1.248-2.828 1.248-1.996 0-1.996-1.747zM8.984 9.163v-0.749q0-1.913 2.246-2.911l1.081-0.25q0.146 0.083 0.416 0.083v0.166q-1.83 0.541-2.578 1.83-0.582 1.081-0.582 2.495 0 0.665 0.416 1.747h-0.083q-0.915-1.206-0.915-2.412zM9.234 2.759v-0.083q0.832 0.915 6.238 1.996l1.414 0.749h0.083q-0.665-0.998-3.161-1.663-1.393 0-2.911-0.998h0.166q0.977 0.333 2.578 0.582h0.083v-0.083q-0.437 0-1.497-0.998h0.166q0.977 0.603 3.244 1.164 1.913 1.435 1.913 1.996h0.083q0.624-0.499 0.998-0.499-0.499 0.52-0.499 1.164 0 0.541 1.58 2.745 0 0.187 0.25 0.499v0.25q-2.724-3.472-4.658-4.075-3.119-0.769-4.741-1.497-1.331-1.019-1.331-1.248zM10.065 9.662v-0.166q0-2.558 2.745-3.576 0.478-0.166 1.331-0.166 1.435 0 2.745 1.331v0.083q-1.060-0.769-1.913-0.832h-0.749q-2.204 0-2.994 2.246v0.083h0.083q1.040-1.663 3.161-1.663 0.853 0 1.83 0.665v0.083q-0.873 0.853-1.164 1.83h-0.083q-1.019-0.333-1.248-0.333h-0.083q-1.996 0-3.161 1.913h-0.083q-0.333 0-0.416-1.497zM11.147 14.819q0-1.393 1.248-2.495l0.582-0.166h0.083v0.166q-0.894 0-1.331 2.329 0.166 0.832 0.166 0.998h0.166q0.083-0.79 2.246-2.578v-0.25l-0.166-0.083q-0.873 0-1.83 1.331v-0.166q0.769-1.663 1.996-1.663 0.832 0.229 0.832 0.499v0.166q-2.412 2.162-2.412 2.578l-0.083 0.582v0.083q0 0.894 0.582 1.414-0.083 0-0.083 0.083-1.996-0.915-1.996-2.828zM14.141 14.32v-0.166q2.994-0.416 2.994-0.832v0.166q-0.478 0.832-2.495 0.832h-0.499zM15.472 10.66v-0.166q0-1.809 1.83-2.911h0.083v0.166q-0.499 0-0.915 1.331 0 0.957 1.164 1.331h0.333q0.166-0.083 0.25-0.083l0.083 0.166q-0.353 0.333-0.832 0.333h-0.416q-0.27 0-0.915-0.25v0.582q0.832 0.042 0.832 0.166 0.104-0.062 1.164-0.166v0.083q-0.686 0.832-1.497 0.832v0.083q0 0.125 0.25 0.25 0.645 0 1.414-0.582l0.083 0.166q0 0.27-0.832 0.832v0.083h0.749q0.437 0 0.998-0.665h0.083q0 0.915-1.414 1.164h-0.665q-1.83-0.957-1.83-2.745zM16.885 9.246q0.104-1.081 0.915-1.081h0.166q0.624 0.104 0.665 0.333v0.083l-0.416-0.083h-0.333q-0.416 0.166-0.416 0.582v0.166q0 0.125 0.333 0.333h0.083l0.416-0.083v-0.333l-0.166 0.083h-0.166q-0.125 0-0.25-0.25 0-0.125 0.25-0.25h0.083q0.582 0 0.582 0.582t-0.915 0.749q-0.832-0.229-0.832-0.832zM19.048 11.575q0.166-0.499 0.333-0.499h0.083q0.769 0 0.998 1.081 0 0.125-0.25 0.25-0.457 0-0.665-0.416h0.083l0.499 0.083v-0.166q-0.27-0.499-0.665-0.499l-0.333 0.25q0-0.083-0.083-0.083zM19.131 10.91q0.749-1.081 1.414-1.081 0.125 0 0.333 0.333-0.312 0.665-0.832 0.665h-0.083l0.499-0.499q-0.166-0.083-0.25-0.083-0.333 0.146-0.998 0.665h-0.083z" fill="#000000"></path>
</svg>
