<?xml version="1.0" encoding="utf-8"?>
<!-- Generated by IcoMoon.io -->
<!DOCTYPE svg PUBLIC "-//W3C//DTD SVG 1.1//EN" "http://www.w3.org/Graphics/SVG/1.1/DTD/svg11.dtd">
<svg version="1.1" xmlns="http://www.w3.org/2000/svg" xmlns:xlink="http://www.w3.org/1999/xlink" width="16" height="32" viewBox="0 0 16 32">
<g id="icomoon-ignore">
	<line stroke-width="1" x1="" y1="" x2="" y2="" stroke="#449FDB" opacity=""></line>
</g>
	<path d="M1.282 26.676q0.725-1.45 1.45-1.45v0.161q-0.302 0-0.564 0.564h0.081l0.403-0.081v0.081l-0.403 0.645h0.081q0.806-0.645 1.289-0.645v0.081q-0.645 0.685-0.645 0.967l0.967-0.725q0 0.081 0.081 0.081-0.161 0.242-0.242 0.886h0.081q0.282-0.161 0.806-0.242v0.081q-0.665 0.564-1.289 1.289l-0.081-0.161v-0.806q-0.141 0-1.047 0.886h-0.081v-0.081q0-0.342 0.322-1.289-0.463 0.242-0.886 0.645h-0.081q0.242-0.906 0.242-1.047l-0.403 0.242q0-0.081-0.081-0.081zM1.765 21.68l0.161-0.081q0 0.322 0.242 0.322 0.101 0 0.886-0.725h0.081v0.081q-0.483 0.624-0.483 1.37l0.483 0.081h0.242q0.604 0 1.531-1.128h0.161q-0.322 0.342-0.403 0.725 0.081 0.161 0.081 0.242h-0.081q-0.161 0-0.161-0.242-0.282 0.081-0.403 0.564l0.161 0.483-0.161 0.081q-0.322-0.463-0.322-0.645-0.645 0.040-0.645 0.242v0.403h-0.161q0-0.564-0.886-0.886-0.322-0.423-0.322-0.886zM2.087 21.358v-0.161q0.745-2.739 1.209-2.739 1.41-0.765 2.014-1.209v0.081q0 0.141-2.014 1.692l-0.161 0.564v0.322l-0.403-0.081q0.081 0.483 0.081 0.725h-0.242q-0.201 0.806-0.322 0.806 0-0.081-0.081-0.081 0 0.081-0.081 0.081zM2.974 18.457v-0.161q0.403-0.947 0.886-1.289 0.161 0.201 0.242 0.806h-0.081l-0.242-0.161h-0.161zM3.296 25.306v-0.081q1.47-0.765 2.014-1.209 2.095-1.732 2.095-3.787v-0.161h0.161v0.081q0 1.047 0.564 1.047h0.242q-0.806 0.463-0.806 0.564h0.483v0.081q-0.927 0.544-0.967 0.725 0.564 0.081 0.564 0.242v0.081q-0.564 0-1.289 0.564v0.081q0.564 0.161 0.564 0.322-0.081 0-0.081 0.081l-0.161-0.081h-0.322q-0.624 0-0.725 0.322v0.403h-0.322q-0.483 0.040-0.483 0.242v0.403l-0.564-0.081-0.403 0.564q-0.242-0.403-0.564-0.403zM3.538 20.472v-0.161q0-0.121 0.322-0.322l0.564 0.081v0.161q-0.262 0-0.403 0.081v-0.161h-0.161v0.322h-0.322zM3.538 9.514q0-1.491 1.289-2.175h0.161v0.081q-0.483 0.806-0.645 2.095 0 1.188 0.725 2.498l-0.161 0.081q-1.37-1.35-1.37-2.578zM3.618 19.424v-0.161q2.175-0.987 2.175-1.853l0.242-0.161q0.645 0.504 0.645 1.45-0.081 0.141-0.081 0.322v0.322h-0.161q-0.081-1.37-0.403-1.37-0.725 0.403-0.725 0.967v0.403q0 0.282 0.886 0.403 0.121 0 0.967-0.242h0.081v0.081l-0.645 0.967h0.081l0.322-0.161 0.081 0.161q-0.121 0-0.322 0.645l0.161 0.483q-0.282 0.645-0.403 0.645h-0.081q-0.121 0-0.322-0.322 0.322-0.121 0.322-0.242-1.209-0.403-1.209-0.483v-0.081l0.806-0.081v-0.081q-0.705-0.081-0.886-0.081-0.604 0-1.45 0.322v-0.081q1.168-0.967 2.014-0.967v-0.081q-0.786-0.302-1.611-0.403l-0.161 0.081h-0.242q0-0.282 1.047-0.483v-0.081h-0.483q-0.342 0-0.645 0.161zM4.021 26.837q0.423-0.483 1.047-0.645v-0.081q-0.201 0-0.725-0.161v-0.161h0.081q0.685 0 1.45-0.242v-0.161q-0.443 0-0.645-0.322v-0.081h0.645q0.242 0 0.967-0.242v-0.081q-0.101 0-0.806-0.322v-0.161h0.725q0.725 0 1.128-0.564l-0.564-0.081h-0.483v-0.161q1.41-0.242 1.773-0.564-0.403 0-0.967-0.483v-0.081l0.483 0.081q0.886-0.081 0.886-0.322v-0.081q-0.222 0-0.806-0.242v-0.161h0.081q0.081 0 0.242 0.081 0.846 0 1.209-0.645v-0.322l-0.564-0.161-1.128 0.322h-0.081q0.222-0.504 2.498-1.611 0-0.161 0.081-0.161-0.121-0.403-0.564-0.403h-0.081q-0.524 0-2.014 0.725 0-0.604 2.498-1.289 0.322 0 0.564-0.403 0-0.463-0.564-0.564-0.906 0.081-1.692 0.403v-0.081q0.886-0.725 1.692-0.725 1.128 0.081 1.128 1.128 0 1.511-2.739 5.398-3.283 3.545-4.029 3.545zM4.343 23.856v-0.161l0.081-0.564h0.161q0.020 0.483 0.161 0.483 0.322-0.121 0.322-0.242v-0.403h0.081q0.262 0.161 0.403 0.161l0.242-0.322v-0.322q0-0.141-0.725-0.645v-0.081h0.081q0.886 0 1.128 0.967-0.544 0.765-1.611 1.289h-0.161q-0.161 0-0.161-0.161zM4.666 14.993q0-0.947 1.289-1.209v0.161q-0.242 0-0.242 0.161l0.403 0.483v0.081q-0.403-0.242-0.645-0.242l-0.242 0.322 0.725 0.806h-0.161l-0.242-0.161h-0.242q-0.161 0-0.242 0.645 0.161 0.363 0.161 0.725-0.564-0.725-0.564-1.773zM4.666 3.39q0-0.383 2.337-0.645 2.055-1.289 3.223-1.289l0.886 0.161v-0.081q-0.201-0.342-0.564-0.483 0 0.403-0.161 0.403 0-0.242-0.322-0.403l-0.322 0.322q0-0.121-0.242-0.242l-0.322 0.403q-0.161 0-0.161-0.242-0.161 0-0.161 0.403h-0.161l-0.242-0.161q0 0.322-0.483 0.403 0 0.181-0.483 0.242 0 0.121-1.289 0.645v-0.081q2.578-1.853 3.787-1.853h0.483q1.893 0 2.337 1.692v0.403q0 1.833-4.754 4.109-1.209 0.906-1.209 2.095 0.483 2.417 1.37 2.417l0.081-0.161v-0.403q-0.141-0.866-0.645-2.014h0.161q1.309 3.223 1.853 3.223 0.141 0.081 0.322 0.081h0.161q0.161 0 0.322-0.483 0-0.846-1.611-2.417h0.161q0.423 0.222 2.014 1.611h0.242q0-0.081 0.081-0.242 0-0.927-2.095-2.095l-0.403-0.081v-0.161l1.692 0.403v-0.081q-0.987-1.047-1.853-1.047v-0.161q2.196 0 3.142 2.82v0.322q-0.403 2.095-1.934 2.095h-0.322q-2.175 0-3.142-2.739-0.081-0.685-0.081-1.128 0-1.652 2.981-2.901v-0.081h-0.322v-0.161q0.121 0 1.289-0.242v-0.161h-0.161v-0.161q0.967-0.121 0.967-0.322-0.121 0-0.242-0.242l1.128-0.322v-0.081q-0.242 0-0.242-0.161t0.564-0.242v-0.081l-0.242-0.322v-0.081l0.564-0.161v-0.081q-0.322 0-0.322-0.161l0.322-0.403q-0.262 0-0.403-0.081 0.161-0.262 0.161-0.403l-0.161 0.081q-0.161 0-0.161-0.161h0.081q-0.101-0.483-0.242-0.483 0 0.322-0.161 0.322-0.201-0.524-0.403-0.564l-0.161 0.403q0.886 0.342 0.886 0.967v0.322q0 1.571-4.834 3.142h-0.081q0.101-0.141 2.417-1.128 2.175-1.309 2.175-2.337-0.383-0.967-1.531-0.967-1.39 0-4.109 2.014-0.524 0.161-0.725 0.161h-0.483q-0.242-0.081-0.242-0.483zM4.746 9.836v-0.081q0-2.357 1.773-3.384h0.161q-0.483 0.725-0.483 1.128h-0.081q-0.161 0-0.161-0.322h-0.081q-0.161 0.725-0.161 1.047v0.081l0.081 0.967h-0.081q-0.483-0.363-0.483-0.886h-0.081v0.403q0 1.531 1.934 3.384h-0.081q-0.363 0-1.692-0.967 1.37 1.934 3.706 2.578 0.081 0 0.081 0.081l-0.161 0.081q-1.108 0-2.659-0.725v0.081q0.947 1.793 2.739 2.659v0.161q-1.611-0.564-2.337-0.967v0.081q0.222 0.786 1.934 2.739h-0.081q-0.947-0.564-1.934-1.853h-0.081v0.081q0.564 1.692 0.564 2.498h-0.161q0-0.967-1.128-2.095 0.483-0.786 0.483-1.611v-0.161q0-0.947-1.37-3.948-0.161-0.725-0.161-1.047zM8.211 14.59v-0.161h0.081q1.591 0 2.739-0.806v-0.081q-2.014 0-2.014-0.403h0.483q0.524 0 1.692-0.403 0.322 0.645 0.322 1.531v1.047q0 0.363-0.161 1.289l-0.806-0.081h-0.242q-0.725 0-1.773 0.564v-0.081q0.947-0.866 2.337-1.209v-0.081q-0.665 0-1.611-0.161v-0.161h0.242q0.786 0 1.45-0.645h-1.289q-0.645 0-1.45-0.161zM9.017 7.258v-0.161h0.081q1.833 0 3.787 2.498 0.141 0.081 0.322 0.081 0.322-0.060 0.322-0.564h0.161v0.161q-0.101 0.927-0.483 0.967v0.081h0.081q0.624-0.322 0.725-0.403v0.161q-0.403 0.806-0.806 0.806l0.081 0.161 0.806-0.161v0.081q-0.383 0.564-1.047 0.564v0.081l0.403 0.081h0.403v0.161q-0.846 0.242-1.289 0.242h-0.081l-0.564-0.081v-0.081q0.242-0.765 0.242-1.209v-0.161q0-2.256-2.981-3.303h-0.161zM9.822 22.405q0.806-1.209 1.209-2.095h0.161q0.906 0.725 1.531 0.725v0.161l-0.403 0.081h-0.886q0 0.443 1.128 0.806v0.161h-0.242q-0.181 0-0.322 0.081l-0.967-0.242q0.564 0.725 0.806 0.725v0.161q-0.544 0-1.45-0.564v0.081q0 0.101 0.322 0.564l-0.161 0.081q-0.725-0.645-0.725-0.725z" fill="#000000"></path>
</svg>
