<?xml version="1.0" encoding="utf-8"?>
<!-- Generated by IcoMoon.io -->
<!DOCTYPE svg PUBLIC "-//W3C//DTD SVG 1.1//EN" "http://www.w3.org/Graphics/SVG/1.1/DTD/svg11.dtd">
<svg version="1.1" xmlns="http://www.w3.org/2000/svg" xmlns:xlink="http://www.w3.org/1999/xlink" width="23" height="32" viewBox="0 0 23 32">
<g id="icomoon-ignore">
	<line stroke-width="1" x1="" y1="" x2="" y2="" stroke="#449FDB" opacity=""></line>
</g>
	<path d="M0.675 5.736l0.156-0.078q1.307 0.898 1.327 1.171 0.449 0.8 1.483 2.029v0.078q0.137 0 0.546-0.468 0.078 0.137 0.078 0.312h0.078q0-0.781 0.234-0.781 0.098 0.468 0.234 0.468v-0.078l-0.078-0.156q0.156-0.351 0.312-0.39h0.078q0.156 0 0.156 0.234h0.078q0-0.234 0.156-0.234t0.156 0.468h0.078q0.020-0.39 0.234-0.39h0.078q0.156 0.020 0.156 0.156-0.078 0.156-0.078 0.234l0.312-0.234h0.078q0.156 0.020 0.156 0.156l-0.234 0.312v0.078h0.078q0.039-0.312 0.234-0.312h0.234q0.156 0.020 0.156 0.156v0.078q-0.234 0-0.234 0.234h0.078q0.020-0.156 0.156-0.156h0.234q0.156 0.020 0.156 0.156v0.078q-0.312 0.039-0.312 0.234v0.078l0.312-0.234q0.468 0.039 0.468 0.234l-0.078 0.156q0.254 0 0.39 0.078h0.078v-0.078q-0.156 0-0.624-0.624 0-0.273 0.859-0.39 0.488 0.156 0.546 0.39-0.351 0.156-0.703 0.156v0.078q1.21 0 1.561 0.546v0.078q-0.078 0-0.078 0.078-0.703-0.059-0.703-0.156l-0.156 0.078h-0.546l-0.156-0.078-0.156 0.234q0.351 0 0.468 0.078 0-0.156 0.234-0.156 1.132 0 1.561 0.703l-0.156 0.078q-0.527-0.234-0.859-0.234h-0.468l-0.39 0.078v0.078q0.624 0.020 0.624 0.624 0.332 0.176 0.468 0.624 0.41 0 1.015 1.405h0.078q0-0.234 0.39-0.234v-0.078q-0.683 0-1.171-1.171-0.176 0-0.859-1.015v-0.078q0-0.156 0.234-0.156 1.717 0.429 1.717 1.171l-0.156 0.078q-0.429-0.312-0.781-0.312h-0.078v0.078q1.405 0.351 1.405 1.405-0.156 0.078-0.234 0.078 0.020 0.156 0.156 0.156l-0.156 0.703h-0.078q-0.156 0-0.312-0.546h-0.078v0.078q0.156 0.312 0.156 0.468h-0.156l-0.156-0.078q0 0.078-0.078 0.234 0.468 0 0.624 0.468-0.312 0.742-0.312 1.483 0.156 0 0.156 0.468h0.078q0-0.468 0.546-0.468v0.078q0 0.41-0.312 0.546h-0.156l-0.156-0.078v0.234h0.078q0.137 0 0.703-0.234 0 0.078 0.078 0.078-0.195 0.468-0.468 0.468v0.078l0.156 0.234q-0.566 0.468-1.405 0.468 0-0.078-0.078-0.078 0.703-1.424 0.703-1.717l-0.156 0.078h-1.015q-0.546 0-1.717 0.078-0.273-1.385-1.873-3.122-0.742-0.663-2.888-2.107l-0.234-0.312q0.020-0.156 0.156-0.156 2.303 0.527 4.137 2.264 1.327 1.307 2.029 1.561h0.078v-0.078q-0.449 0-3.122-2.576v-0.078h0.078q0.449 0 2.029 1.249v-0.078q-1.483-1.405-2.732-1.405-0.312-0.234-0.312-0.312l0.156-0.312h-0.234v0.312h-0.078q-0.683 0-0.781-0.859-0.293 0.234-0.546 0.234-3.122-3.181-3.122-4.449zM1.221 4.643l0.156-0.078 0.859 0.781v-0.078q-0.332-0.566-0.703-2.107h0.156q1.132 0.644 1.795 2.81 0.937 1.912 0.937 2.029l-0.312 0.234q-1.19-1.19-1.717-2.654h-0.078v0.078q0.351 0.976 1.639 2.654v0.078q0 0.156-0.156 0.156h-0.156q-1.776-1.834-2.42-3.903zM2.782 3.316v-0.156q0.020-0.156 0.156-0.156 0.82 0.624 1.561 3.59 0.156 0.059 0.39 0.781h0.078v-0.156q-0.859-1.873-1.249-3.747-0.078 0-0.156-0.234l0.156-0.078q0.976 0.878 1.561 1.951l-0.078 0.39v0.546q0 0.546 0.156 1.483l-0.156 0.078q0-0.156-0.156-0.156 0 0.312-0.468 0.312h-0.156q-1.112-2.166-1.639-4.449zM4.343 9.795l0.39-0.078q0 0.117 0.234 0.234 0-0.234 0.312-0.234l-0.078-0.156-0.156 0.078h-0.156q-0.156 0-0.156-0.156v-0.39h-0.156l0.078 0.39q-0.195 0.156-0.312 0.156v0.156zM4.499 18.459q0.742-1.717 1.249-1.717 0.078 0.156 0.078 0.234 0.39-0.156 0.937-0.624h0.078q0 0.234 0.078 0.234 0.293 0 0.546-0.546h0.234v0.312l-0.078 0.156q0.39 0 0.39 0.156l-0.156 0.234v0.078h0.234q0-0.117 0.156-0.312-0.468-0.312-0.468-0.39 0.722-0.312 2.264-0.312h0.312q0.156 0.020 0.156 0.156-0.39 1.483-0.703 1.483h-0.703q-0.429-0.41-0.781-0.546h-0.078v0.078q0.312 0 0.546 0.39 0 0.234-0.312 0.234 0.39 0.507 0.39 0.781-0.020 0.078-0.781 0.078v0.078q0.234 0 0.39 0.312v0.078q-0.507-0.156-0.703-0.156-0.059 0-0.624 0.078v0.078q1.268 0 1.327 0.312-1.756 0-2.498 1.405 0 0.078-0.156 0.078 0.156 0.254 0.156 0.468h-0.39q-0.507 0-1.093-2.888zM4.811 22.908v-0.234q0-0.117 0.312-0.312h0.234q0.117 0 0.234 0.234l0.39-0.078q0.312 0.156 0.312 0.39 0.039 0 0.312-0.078 0.742 0.468 0.937 0.468 0.488-0.176 1.405-1.249v-0.078q-0.39 0-0.39-0.078 0.703-1.132 0.703-1.249h0.234v0.156h0.078v-0.234l-1.015-1.327 0.156-0.078q0.644 0 1.327 1.717l1.405 1.405q-0.332 0.605-1.015 1.171h-0.234v-0.156h-0.078l-0.781 0.468q-0.156 0-0.156-0.234-1.171 0.371-1.171 0.859l0.859 0.937v0.078l-0.312 0.312v0.078h0.078v-0.156h0.156l0.234 0.156q-0.137 0.859-0.624 0.859v-0.078q0.156-0.293 0.156-0.624-0.312-0.098-0.703-0.781-0.468 0-2.342-1.795 0.078-0.156 0.078-0.234h0.234l0.624 0.39v0.078h0.078v-0.312q-0.488 0-0.781-0.312l-0.234 0.156q-0.078-0.234-0.468-0.234 0 0.156-0.156 0.156zM4.811 8.936q0.546-0.098 0.546-0.234v-0.078l-0.234 0.156h-0.078l-0.234-0.156v0.312zM5.28 19.551h0.39q0.137 0 0.703-0.234 0.020 0.156 0.156 0.156 0-0.215 0.39-0.234v-0.078q-0.605 0-0.703-0.312 0.117 0 0.234-0.234h-0.312q0 0.156-0.234 0.781l-0.39-0.078h-0.078q-0.156 0.020-0.156 0.156v0.078zM5.358 18.303q0.878-0.703 1.639-0.703l-0.39-0.312q0.078 0 0.078-0.078h-0.156l-0.703 0.468h-0.078l-0.156-0.078q-0.234 0.293-0.234 0.546v0.156zM5.358 6.126q0.078-0.898 0.078-1.717v-0.546h0.156q0.351 0.137 0.703 1.093-0.156 0.781-0.156 1.561v1.171q0 0.156-0.156 0.156-0.624 0-0.624-1.717zM5.514 9.795q0.078 0.156 0.078 0.234h0.078q0-0.195 0.156-0.39 0-0.156-0.156-0.156zM5.592 10.575h0.39v-0.078q-0.176 0-0.312-0.078zM5.592 9.248h0.078q0-0.195 0.078-0.624h-0.156v0.624zM5.904 8.78q0.078 0.137 0.078 0.39h0.078q0-0.234 0.39-0.234v-0.156q-0.293 0-0.468-0.156 0 0.156-0.078 0.156zM5.982 9.717q0.156 0 0.39 0.312l0.078-0.39q-0.254 0-0.39-0.078zM6.216 10.653l0.937 0.234-0.156-0.234v-0.234q0-0.117 0.468-0.234 0-0.117 0.234-0.234-0.078-0.137-0.078-0.39l-0.156 0.078q-0.312-0.156-0.312-0.39h-0.078v0.078q0.078 0.137 0.078 0.312-0.078 0-0.078 0.078h0.078q0.156-0.078 0.234-0.078l0.156 0.234q-0.078 0.156-0.078 0.234h-0.234q-0.156 0-0.156-0.312h-0.078q0 0.859-0.312 0.859l-0.39-0.234-0.078 0.156v0.078zM6.216 6.751q0.098-1.912 0.468-2.029 0.312 0.722 0.312 1.327v0.546l-0.078 0.468v0.078h0.078q0.098-0.546 0.781-1.093h0.078q-0.098 1.093-0.234 1.093l0.078 0.156q-0.234 0.351-0.234 0.624 0.585-0.39 0.859-0.39l0.078 0.156q-0.546 0.937-0.859 0.937 0-0.137-0.703-0.624v-0.39h-0.078q0 0.39-0.156 0.39h-0.078q-0.254 0-0.312-1.249zM6.607 9.17l0.078 0.156q0.156-0.078 0.234-0.078-0.078-0.137-0.078-0.312-0.156 0.078-0.234 0.078v0.156zM6.841 18.303q0.488-0.156 0.781-0.156v-0.078h-0.781v0.234zM7.309 11.044l0.312 0.078q0-0.156-0.234-0.156h-0.078v0.078zM7.543 10.575q0.546 0.215 0.546 0.624l0.39-0.078q0.312 0.156 0.312 0.468l-0.156 0.078h-0.078l-0.234-0.156h-0.156q0 0.117 1.093 1.015v-0.078q-0.078-0.137-0.078-0.312h0.39v-0.078q-0.137 0-0.39-0.156v0.234q-0.41 0-0.468-0.234v-0.234h0.156l0.234 0.156q0-0.215 0.39-0.234v-0.078q-0.703 0-0.703-0.39v-0.078q0.078 0 0.078-0.078-0.39 0-0.546-0.546l-0.312-0.234h-0.078q0 0.312-0.156 0.312h-0.078l-0.156-0.078v0.156zM7.934 10.575l0.156-0.078q0.117 0 0.312 0.312 0 0.156-0.156 0.156h-0.078q-0.176 0-0.234-0.39zM8.636 18.849l0.156-0.078h0.39v-0.078q-0.39-0.722-0.39-0.859 0.39-0.156 0.546-0.156 1.054 0 1.717 0.781l-0.156 0.078q-0.137-0.078-0.312-0.078l1.405 1.483v0.078h-0.234q-1.073-0.859-1.717-0.859l0.937 1.405q-0.078 0-0.078 0.078-0.703-0.488-2.264-1.795zM9.183 13.541q0.117 0 0.624 0.39 0-0.078 0.078-0.234l0.156 0.078h0.39v-0.078q-0.156 0-0.468-0.312 0 0.234-0.156 0.234-0.234 0-0.624-0.234v0.156zM9.261 24.547v-0.312l0.624-0.546h0.234q0.546 0 0.546 0.468l0.156-0.078h0.156q0.781 0.683 1.249 0.703v0.234h0.156q0.156 0 0.156-0.156v-0.078l-0.156 0.078h-0.078v-0.078q0.312-0.546 0.468-1.951-0.703-1.542-0.703-1.873v-0.078q0-0.742 1.015-0.781 0.878 0 1.483 1.639v0.156h-0.078q-0.254-0.156-0.39-0.156 0.468 0.82 0.624 2.107-0.098 0.546-0.234 0.546-0.156-0.468-0.312-0.468-0.176 1.327-0.468 1.327-0.078-0.078-0.078-0.624l-0.546 0.703h-0.078v-0.078l-0.078-0.781q-0.117 0-0.312 0.312 0.117 0 0.234 0.234v0.234q0 0.078-0.546 0.468 0.117 0.41 0.937 0.781 0.078 0.156 0.078 0.234t-0.078 0.078l0.078 0.39v0.156q0 0.137-0.234 0.624h-0.234q0.078-0.429 0.078-0.624 0-0.156-0.624-0.468 0-0.176-0.781-0.703-0.468-0.761-1.171-1.483v-0.312h-0.078q0 0.312-0.156 0.312-0.293-0.234-0.703-0.234v0.078h-0.156zM9.495 14.244q0.507 0.156 0.703 0.156h0.078q-0.234-0.254-0.234-0.39h-0.078q0 0.234-0.234 0.234l-0.156-0.078h-0.078v0.078zM9.963 20.41v-0.234h0.078q0.878 0.781 1.171 0.781v-0.078q-0.507-1.249-0.781-1.249v-0.078q0.020-0.156 0.156-0.156 0.468 0.234 1.483 1.093-0.156 0.312-0.156 0.546 0.234 0.742 0.546 1.327l-0.156 0.078q-1.561-0.546-2.342-2.029zM10.509 17.756l1.327-0.39q0.449 0.332 1.249 0.468 0.215 0.917 1.093 1.873 0.020-0.156 0.156-0.156l1.171 0.312q-0.156-0.137-0.234-1.093h-0.078q0 0.859-0.234 0.859-1.639-0.566-1.639-1.717v-0.234q0.742 1.015 1.171 1.015h0.156v-0.078q-1.093-0.351-1.093-1.093l0.156-0.234-0.078-0.156q0.156-0.39 0.703-0.39v-0.078q-0.351 0-0.468-0.078 0.059-0.468 0.312-0.468l0.156 0.078q0.312-0.078 0.546-0.234l0.078 0.156q-0.176 0.468-0.546 0.468v0.078h0.156l0.312-0.156q0.078 0.156 0.078 0.234h0.156l-0.078-0.39v-0.078q0.059-0.468 0.234-0.468 1.093 1.073 2.264 1.483 0.312 0.234 0.312 0.312v0.468q0 0.117-0.234 0.234h-0.078q-0.761 0-2.498-1.405v-0.078h-0.078q0 0.39-0.234 0.39l0.078 0.156v0.078q0 0.117-0.312 0.312h-0.312l-0.39-0.234v0.156q0.371 0.137 1.015 0.234 0.098 0.566 0.312 0.781 0.156-0.078 0.234-0.078-0.371-0.293-0.546-0.937 0.078-0.546 0.234-0.546 1.366 0.976 2.498 1.561v0.39q0 0.117-0.312 0.312h-0.312q-0.351 0-1.249-0.624h-0.078q0.332 0.41 1.561 1.015l0.078 0.156q0 0.546-0.546 0.546-0.098 0-0.624-0.234h-0.078v0.078q2.107 1.639 3.981 4.137l0.156 0.312-0.156 0.078q-1.327-1.483-1.405-1.483v0.078q1.249 1.288 1.249 1.717-0.332 0-0.781-0.39 0 0.39-0.156 0.39-0.624-0.488-0.624-0.703h-0.078v0.078q0.468 0.8 0.468 1.093l-0.156 0.078q-1.21-1.112-2.186-3.434h-0.156q1.639 2.927 1.639 3.434 0 0.156-0.156 0.156-0.781-0.703-1.561-2.81h-0.078v0.078q0.078 0.527 0.078 0.859v0.234q0 0.156-0.156 0.156-0.468-1.015-0.624-1.015h-0.078q0 0.703-0.234 0.703-0.234-1.073-0.546-1.951 0.234-0.156 0.624-0.156v-0.078q-0.312 0-0.703-1.015-0.722-0.937-1.483-0.937-0.39 0.156-0.624 0.156 0-0.117-1.093-1.327 0.156-0.078 0.234-0.078 0.254 0 0.703 0.312h0.078v-0.078zM10.588 24.703h0.39v-0.078h-0.39v0.078zM10.978 15.493v-0.156q0-0.215 0.39-0.234v-0.156q-0.234 0-0.234-0.156 0.098-0.39 0.234-0.39h0.078q0.156 0.020 0.156 0.156v0.156l-0.156 0.234h0.078q0.742-0.078 0.859-0.156-0.117-0.312-0.234-0.312 0.078-0.156 0.078-0.234-0.156-0.254-0.156-0.39h0.468v-0.078q-0.117 0-0.312-0.156-0.312 0.351-0.312 0.39 0.156 0.020 0.156 0.156v0.234q0 0.117-0.312 0.312h-0.078q0-0.371-0.39-0.546 0.605-2.966 0.859-2.966l0.624 0.546-0.39 1.015q0 0.156-0.234 0.156 0.117 0.312 0.234 0.312 0.117-0.507 0.312-0.624l-0.078-0.156q0.020-0.156 0.156-0.156h0.39q0.117 0 0.234 0.312-0.137 0.468-0.703 0.468v0.078q0.234 0 0.234 0.312h0.156v-0.078l-0.078-0.156 0.156-0.078q0.156 0 0.156 0.39l0.312-0.546q0.195 0 1.171-0.468l0.078 0.156v0.078q-0.703 0.937-1.561 0.937 0-0.078-0.078-0.078 0 0.156-0.156 0.156h-0.078v-0.234q-0.254 0.234-0.39 0.234 0.312 0.39 0.312 0.546h0.156q0-0.468 0.39-0.468 0.585-0.137 1.093-0.546 0.078 0.137 0.078 0.312h0.078q0-0.195 0.156-0.39-0.156 0-0.156-0.156 0-0.312 1.483-0.468v0.156q0 0.468-1.249 0.468v0.078h0.781v0.156q0 0.117-0.234 0.234l0.078 0.156v0.156q-0.312 0.468-0.781 0.468h-0.156l-0.156-0.078q-0.195 0.703-1.093 0.703-0.546-0.117-0.546-0.312 0-0.137 1.327-0.39 0.468-0.312 0.468-0.39v-0.156h-0.078q-0.859 0.703-1.483 0.703 0-0.156-0.156-0.156-0.312 0.351-0.312 0.39v0.312l0.781 0.078h0.078q0.254 0 0.859-0.234 0 0.078 0.078 0.078-0.273 0.624-1.015 0.624h-0.078q-0.566 0-0.624-0.468h-0.156l-0.39 0.312h-0.078q-0.156 0-0.156-0.468h-0.078q0 0.527-0.312 0.624h-0.39q-0.156 0-0.156-0.156zM11.758 16.742l0.234-0.156h0.156q0.429 0.39 0.937 0.39h0.234l0.156-0.078q0.078 0.156 0.078 0.234-0.195 0.468-0.703 0.468-0.898 0-1.093-0.859zM11.758 16.039q0.254-0.546 0.624-0.546l0.078 0.156q-0.078 0.137-0.078 0.312 0.644 0.39 1.171 0.39 0.156-0.078 0.234-0.078l0.078 0.156q-0.351 0.468-0.937 0.468-0.527-0.176-0.781-0.546v-0.078l0.156-0.234v-0.078h-0.078q0 0.234-0.39 0.234zM12.149 10.809q0.585-1.639 1.639-1.639v0.078l0.156-0.078h0.156q0.234 0 0.234 0.312l0.156-0.078-0.078-0.156v-0.078q0.156-0.195 0.156-0.312v-0.078h-0.078l-0.078 0.312h-0.312q-0.156 0-0.156-0.156 0.683-0.624 1.015-0.624h0.234q0.234 0 0.234 0.468l0.156-0.078h0.078q0.117 0 0.312 0.312-0.995 1.483-1.951 1.483l-0.078-0.546q-0.566 0.020-1.249 0.546-0.195 0.156-0.312 0.156v0.156q0.293-0.234 0.546-0.234h0.078q0.156 0.020 0.156 0.156v0.234q0 0.137-0.546 0.468-0.156 0-0.39-0.624h-0.078zM12.539 15.805v-0.234q0.020-0.156 0.156-0.156 0 0.098 0.39 0.312h0.39q0.937 0 0.937-0.39 0-0.117 0.624-0.312l0.078 0.156-0.234 0.312q0.078 0.156 0.078 0.234-0.332 0.312-0.624 0.312l-0.234-0.156q-0.117 0.312-0.546 0.312h-0.546q-0.468-0.273-0.468-0.39zM12.851 12.136q0-0.176 0.078-0.312-0.078-0.137-0.078-0.312 0.137-0.312 0.546-0.312h0.156q0.156 0 0.156 0.468l1.717-0.937q0.020-0.156 0.156-0.156l0.078 0.156v0.156q0 0.488-2.029 1.249l-0.078-0.156q-0.293 0.156-0.624 0.156h-0.078zM13.085 10.497v-0.078q0.059-0.234 0.624-0.234 0.117 0 0.234 0.234-0.137 0.351-0.468 0.546h-0.234v-0.078l0.078-0.156q-0.117 0-0.234-0.234zM13.398 12.839q0-0.781 0.937-0.781 0.507-0.234 0.703-0.39 0.156 0.020 0.156 0.156 0 0.566-1.717 1.093 0-0.078-0.078-0.078zM13.632 9.561q0.39 0.234 0.39 0.39 1.249-0.527 1.249-0.859v-0.078h-0.078q0 0.234-0.781 0.703-0.488-0.039-0.781-0.312v0.156zM13.71 11.122v-0.078q0-0.176 1.639-1.015 0-0.059 0.624-0.624l0.156 0.234q0 0.82-2.107 1.639h-0.156q-0.156 0-0.156-0.156zM14.178 19.786q1.249 1.854 1.249 2.264-0.156 0.020-0.156 0.156 0.137 0 0.39 0.156v-0.078q0-0.585-1.405-2.498h-0.078zM14.178 17.288l0.39 0.078q0-0.156-0.234-0.156h-0.156v0.078zM14.49 14.868q0-0.195 0.859-0.468l0.078 0.156q-0.273 0.468-0.703 0.468h-0.078q-0.156 0-0.156-0.156zM14.724 13.932l0.078 0.156q0.468-0.098 0.468-0.234-0.312 0.078-0.546 0.078zM14.88 8.077q0.39-0.703 1.015-0.703h0.234q0.156 0.020 0.156 0.156 0 0.449-0.781 0.937h-0.078q0-0.273-0.546-0.39zM14.959 12.527v-0.156q0-0.312 1.639-0.546v0.078q0 0.527-1.561 0.781zM14.959 2.614h0.078q1.873 0.644 1.873 3.122 0 1.639-0.624 1.639l-0.312-0.156q-0.39 0.156-0.546 0.156 0-0.078-0.078-0.078 0.468-1.073 0.468-2.029 0-1.366-0.859-2.654zM15.193 15.415q0.215-0.605 0.468-0.703 0.624 0.722 2.42 1.639l0.078 0.156q0 0.41-0.234 0.468h-0.468q-1.893-0.761-2.264-1.561zM15.349 11.902v-0.312q0-0.137 1.171-0.312l0.078 0.156q0 0.39-1.249 0.468zM15.583 14.322q0.098-0.39 0.234-0.39 1.21 0.976 2.732 1.795l0.078 0.156v0.078q0 0.156-0.156 0.156h-0.39q-1.385-0.507-2.498-1.795zM15.583 11.122l0.39-0.39h1.015v0.078q-0.332 0.468-1.249 0.468-0.156 0-0.156-0.156zM15.661 21.269q0.059 0.429 0.624 0.624 0 0.195 1.483 2.107v-0.078q-0.956-1.62-2.107-2.732v0.078zM15.739 8.546v-0.078q0.8-1.015 1.171-1.015h0.156q0.117 0 0.234 0.234v0.078q-0.507 0.781-0.781 0.781v0.156q0.137 0 1.015-1.093h0.156q0.156 0.020 0.156 0.156v0.234q0 0.781-1.561 1.561-0.156-0.254-0.156-0.468 0-0.156 0.234-0.156v-0.156l-0.156 0.078h-0.078q-0.39-0.215-0.39-0.312zM15.817 13.697v-0.156q0-0.117 0.234-0.234 0.898 0.624 2.732 1.561 0.234 0.293 0.234 0.468-0.195 0.156-0.312 0.156-0.839 0-2.888-1.795zM15.895 10.497v-0.156q0.898 0 2.186-1.171l0.156 0.078q0 0.527-0.468 1.015h0.078q1.054-0.195 3.122-1.483h0.234v0.078q0 1.873-3.434 1.873l-0.546 0.078v-0.078q0-0.195 0.312-0.234v-0.078h-0.078q-0.507 0.234-1.249 0.234h-0.156q-0.156 0-0.156-0.156zM15.973 22.127l0.156 0.078v-0.078q-0.078-0.156-0.078-0.234h-0.078v0.234zM16.051 10.029q0-0.215 1.405-1.015 0.332-0.605 0.546-0.703l0.156 0.312q0 0.82-2.029 1.561zM16.129 13.151v-0.234q1.971 0.937 2.264 0.937 1.249 0.078 1.249 0.39v0.312q0 0.117-0.234 0.234-2.361-0.624-3.278-1.639zM16.364 12.761v-0.156h0.078q1.522 0.546 3.278 0.546 0.078 0.156 0.078 0.234 0 0.254-0.624 0.468-1.288 0-2.81-1.093zM16.52 12.37v-0.078q0-0.156 0.39-0.156l-0.156-0.234v-0.234l0.078-0.156q0.839 0.234 1.717 0.234 1.464 0 1.873-0.312h0.078q0.156 0.020 0.156 0.156-0.215 0.781-2.888 0.781v0.078h1.483q0.644 0 1.093-0.234l0.078 0.156q-0.585 0.546-1.717 0.546h-0.546q-1.054 0-1.639-0.546zM16.52 1.755l0.156-0.078q1.327 0.976 1.327 3.434-0.156 2.342-0.39 2.342h-0.234q-0.254 0-0.546-0.234 0.234-0.82 0.234-1.639v-0.312q0-0.859-0.468-1.561 0-0.059 0.078-0.468 0-0.468-0.156-1.483zM16.91 11.356v-0.156q0-0.312 1.639-0.39h0.781q0.39 0 1.483-0.546l0.156 0.234v0.312q0 0.527-2.498 0.859-0.742-0.078-1.561-0.312zM17.378 22.205l0.859 0.859v-0.156q-0.098 0-0.859-0.781v0.078zM17.456 2.145v-0.078q0.117-0.859 0.312-0.859h0.156q1.171 0.8 1.171 2.732 0 1.6-1.093 3.356h-0.078q0.312-1.307 0.312-2.42 0-1.893-0.781-2.732zM18.003 7.921v-0.156q1.405-2.166 1.405-4.527v-0.078q0-1.288-0.312-1.717l0.156-0.078q1.015 1.151 1.015 2.264v0.859q-0.117 1.21-1.093 3.044-0.703 0.859-0.781 0.859-0.098 0-0.39-0.468zM18.315 9.951v-0.546q0-0.078 0.078-0.078l-0.078-0.156 2.029-1.639q0.976-1.307 1.171-1.405l0.078 0.156v0.39q0 1.073-1.873 2.732-1.171 0.546-1.405 0.546zM18.471 8.702v-0.078q1.951-2.459 1.951-3.669v-0.781q0.371-0.527 0.859-1.561h0.078q0.312 0.468 0.312 0.937v0.39q0 2.498-3.044 4.761h-0.156z" fill="#000000"></path>
</svg>
