<?xml version="1.0" encoding="utf-8"?>
<!-- Generator: Adobe Illustrator 16.0.0, SVG Export Plug-In . SVG Version: 6.00 Build 0)  -->
<!DOCTYPE svg PUBLIC "-//W3C//DTD SVG 1.1//EN" "http://www.w3.org/Graphics/SVG/1.1/DTD/svg11.dtd">
<svg version="1.1" id="Layer_1" xmlns="http://www.w3.org/2000/svg" xmlns:xlink="http://www.w3.org/1999/xlink" x="0px" y="0px"
	 width="300px" height="300px" viewBox="0 0 300 300" enable-background="new 0 0 300 300" xml:space="preserve">
<g>
	<path fill-rule="evenodd" clip-rule="evenodd" fill="#262E36" d="M118.953,211.207c0.067-0.339,0.269-0.962,0.607-1.875
		c0.27-0.774,0.422-1.433,0.456-1.973c-0.404-0.033-0.877,0.067-1.417,0.304c-0.607,0.37-1.064,0.624-1.368,0.759
		c-3.643,1.89-6.562,4.05-8.755,6.479c-0.709,1.351-1.147,3.274-1.317,5.771c-0.101,1.451-0.236,3.678-0.404,6.682
		c-0.033,0.472-0.185,1.434-0.455,2.885c-0.203,1.146-0.304,2.042-0.304,2.683c-0.035,0.91,0.134,2.158,0.505,3.745
		c0.236,1.89,0.323,4.049,0.254,6.479c0,0.877,0.051,2.16,0.152,3.848c0,0.741-0.219,1.957-0.658,3.645
		c-0.371,1.518-0.505,2.681-0.406,3.491c0.102,0.776,0.473,1.688,1.115,2.733c0.741,1.248,1.163,2.059,1.265,2.431
		c0.168,0.507,0.355,1.281,0.556,2.328c0.134,0.91,0.304,1.585,0.507,2.024c0.877,2.091,2.868,3.408,5.972,3.948
		c2.734,0.471,5.551,0.27,8.454-0.607c0.438-1.856,0.353-3.983-0.254-6.379c-0.843-2.665-1.417-4.638-1.721-5.921l-1.064-4.403
		c-0.471-1.991-0.911-3.408-1.315-4.252c-0.471-1.013-1.334-2.143-2.581-3.392c-1.451-1.552-2.363-2.581-2.734-3.087
		c-0.676-0.979-1.248-2.971-1.721-5.973c-0.372-1.316-0.591-2.245-0.658-2.785c-0.203-1.552-0.186-2.768,0.051-3.643
		c0.167-0.643,0.589-1.536,1.265-2.685c0.067-0.135,0.962-1.518,2.681-4.149c1.115-1.688,1.908-3.138,2.379-4.353
		c0.237-0.608,0.424-1.367,0.558-2.278C118.732,212.606,118.851,211.78,118.953,211.207z M228.688,126.02
		c1.045,0.743,2.783,1.654,5.212,2.734c2.464,1.078,4.202,1.973,5.213,2.683c-0.033,0.236-0.302,0.388-0.81,0.455
		c-0.54,0.034-0.844,0.152-0.911,0.355c0.203,0.877,1.215,1.636,3.038,2.277c1.957,0.709,3.12,1.452,3.49,2.227
		c0.035,0.237-0.083,0.388-0.353,0.456c-0.337,0.069-0.54,0.136-0.607,0.203c0.507,0.674,1.401,1.569,2.683,2.683
		c1.25,1.08,2.125,1.991,2.634,2.733c-0.035,0.237-0.17,0.507-0.406,0.81c-0.169,0.235-0.254,0.456-0.254,0.657
		c0.068,0.743,0.727,1.571,1.975,2.48c1.618,1.216,2.497,1.89,2.632,2.024c-0.17,0.406-0.438,0.997-0.811,1.772
		c-0.234,0.675-0.219,1.283,0.052,1.823c0.136,0.337,0.606,0.726,1.417,1.163c0.473,0.236,1.147,0.592,2.024,1.064
		c1.62,1.078,2.632,1.924,3.037,2.531c1.113,0.101,2.328,0.522,3.645,1.265c1.788,0.979,2.868,1.534,3.239,1.67
		c0.169,0.067,0.473,0.101,0.91,0.101c0.406,0.034,0.643,0.221,0.71,0.558c-0.202,0.135-0.777,0.337-1.722,0.607
		c-0.742,0.203-1.198,0.522-1.365,0.962c1.111-0.271,3.003-0.641,5.669-1.113c2.428-0.507,4.25-1.114,5.466-1.822
		c0.27-0.136,0.624-0.405,1.063-0.81c0.439-0.339,0.844-0.422,1.214-0.254c0.103,0.404-0.031,0.827-0.404,1.266
		c-0.168,0.202-0.522,0.54-1.063,1.013c-0.102,0.067-0.945,0.641-2.53,1.721c-1.047,0.674-1.755,1.384-2.127,2.125
		c0.877,0.033,2.127-0.201,3.747-0.708c1.99-0.641,3.391-1.029,4.2-1.163c2.092-0.27,3.526-0.507,4.303-0.709
		c1.518-0.373,2.649-0.879,3.391-1.519c0.169-0.136,0.339-0.39,0.507-0.76c0.202-0.271,0.471-0.371,0.81-0.304
		c0.271,0.27,0.319,0.691,0.152,1.265c-0.069,0.17-0.288,0.592-0.659,1.266c-1.45,2.732-3.442,5.063-5.974,6.985
		c-2.529,1.924-5.448,3.34-8.756,4.252c0.507,0.236,1.62,0.101,3.341-0.405c0.641-0.067,1.603-0.102,2.886-0.102
		c1.618-0.202,3.542-0.759,5.77-1.671c3.173-1.314,4.961-2.04,5.365-2.175c0.371-0.136,0.946-0.356,1.723-0.659
		c0.706-0.235,1.333-0.286,1.872-0.15c0.032,0.337-0.118,0.607-0.456,0.81l-0.86,0.505c-0.339,0.338-0.776,0.896-1.316,1.67
		c-0.54,0.776-0.995,1.334-1.366,1.671c-2.53,2.362-4.74,3.764-6.631,4.203c-1.822,0.438-3.206,0.774-4.15,1.011
		c-1.619,0.404-3.003,0.826-4.149,1.266c3.306,1.013,7.979,0.438,14.019-1.721c0.304-0.103,0.776-0.304,1.419-0.608
		c0.54-0.168,0.994-0.15,1.366,0.053c-0.101,0.37-0.389,0.724-0.861,1.063c-0.641,0.438-1.012,0.707-1.112,0.81
		c-0.304,0.336-0.693,0.876-1.165,1.618c-0.506,0.743-0.912,1.266-1.216,1.571c-2.158,1.112-3.796,1.922-4.908,2.429
		c-1.959,0.91-3.813,1.518-5.568,1.821c3.308,1.417,6.259,2.024,8.858,1.823c0.304,0,0.774-0.069,1.417-0.203
		c0.54-0.067,0.962,0.051,1.266,0.354c-0.339,0.371-1.266,1.078-2.783,2.127c-1.352,1.415-2.363,2.495-3.037,3.238
		c-1.216,1.281-2.413,2.143-3.594,2.582c-0.946,0.371-2.278,0.657-3.999,0.859c-1.587,0.203-3.089,0.304-4.505,0.304
		c-0.608,0-2.345-0.134-5.215-0.404c-2.228-0.236-4.064-0.22-5.516,0.05c0.472,0.573,1.534,1.013,3.189,1.316
		c1.719,0.337,2.816,0.726,3.288,1.165c-0.033,0.337-0.252,0.556-0.658,0.656c-0.505,0.067-0.859,0.119-1.061,0.152
		c-1.384,0.304-2.566,0.573-3.544,0.81c-0.946,0.338-1.654,0.592-2.127,0.76c-0.911,0.303-1.891,0.405-2.936,0.303
		c-1.281-0.167-3.881-0.875-7.795-2.125c-1.012-0.339-2.413-0.641-4.201-0.91c-2.093-0.304-3.475-0.54-4.15-0.71
		c-1.755-0.404-4.234-1.23-7.439-2.479c-3.375-1.113-5.755-2.04-7.138-2.783c-1.113-0.643-2.631-1.856-4.555-3.645
		c-1.79-1.653-3.223-2.733-4.303-3.24c-0.236,0.035-0.609,0.035-1.114,0c-0.54-0.067-0.927-0.067-1.163,0
		c-0.709,0.203-1.502,1.098-2.381,2.683c-0.404,0.709-1.028,2.058-1.872,4.05c-0.404,1.012-0.994,2.396-1.771,4.149
		c-0.607,1.484-0.979,2.802-1.113,3.948c-0.034,0.338-0.034,0.86,0,1.569c-0.034,0.271-0.17,0.676-0.404,1.216
		c-0.236,0.505-0.372,0.859-0.406,1.063c-0.674,3.679-1.332,7.828-1.975,12.452c-0.675,4.791-1.906,8.722-3.694,11.793
		c-1.485,2.193-2.598,3.948-3.341,5.265c-0.743,1.349-1.096,2.901-1.063,4.655c0.033,0.507,0.219,1.215,0.556,2.127l0.658,5.162
		c0.371,4.219-0.388,8.858-2.278,13.92c-0.234,0.742-0.674,1.67-1.314,2.784c-0.507,0.877-1.688,2.631-3.542,5.265
		c-1.554,2.191-2.667,4.049-3.343,5.566c-0.776,1.688-1.569,3.863-2.378,6.53c-1.046,3.273-1.586,5.702-1.62,7.287
		c0,1.249,0.135,3.273,0.406,6.075c0.099,2.43-0.205,4.117-0.913,5.062c-0.236,0.304-0.674,0.558-1.314,0.759
		c-0.844,0.203-1.553,0.389-2.127,0.558c-0.641,0.201-1.384,0.708-2.227,1.518c-0.878,0.878-1.502,1.384-1.873,1.519
		c-0.743,0.27-1.855,0.422-3.341,0.455c-0.404,0.035-1.553,0.018-3.441-0.05c-1.554-0.068-2.92-0.321-4.101-0.761
		c-1.653-0.606-2.361-1.467-2.125-2.58c0.1-0.37,0.641-0.81,1.619-1.316c0.506-0.472,0.995-1.181,1.468-2.127
		c0.474-1.111,0.86-1.939,1.163-2.478c0.272-0.542,0.931-1.502,1.976-2.886c0.843-1.181,1.417-2.177,1.721-2.988
		c0.27-0.842,0.471-1.467,0.606-1.871c0.237-0.742,0.574-1.299,1.012-1.671c0.812-2.632,1.773-5.417,2.886-8.352
		c1.419-3.239,2.346-5.636,2.785-7.187c0.81-2.667,1.164-4.742,1.063-6.227c0-0.304-0.083-0.708-0.253-1.215
		c-0.136-0.506-0.221-0.895-0.254-1.165c-0.136-1.281-0.101-2.85,0.101-4.707c0.306-2.091,0.49-3.66,0.558-4.707
		c0.101-1.585,0.186-2.733,0.254-3.441c0.1-1.216,0.269-2.261,0.505-3.138c0.373-1.216,1.132-2.768,2.278-4.658
		c1.248-2.091,2.092-3.678,2.531-4.756c0.978-2.464,1.585-5.518,1.821-9.163c0.203-2.666,0.203-5.972,0-9.921
		c-0.033-0.472-0.051-2.295-0.051-5.466c-0.032-2.328-0.134-4.219-0.304-5.669c-0.269-3.576-0.623-6.276-1.061-8.1
		c-0.103-0.134-0.391-0.759-0.863-1.871c-0.335-0.845-0.757-1.316-1.266-1.419c-0.438-0.101-1.214,0.153-2.326,0.761
		c-0.169,0.067-0.861,0.472-2.077,1.215c-2.665,1.551-4.875,2.716-6.629,3.492l-0.254,1.163c-0.17,0.643-0.101,1.316,0.203,2.024
		c0.167,0.372,0.589,1.082,1.265,2.127c1.08,1.788,1.924,3.071,2.531,3.848c0.877,1.146,2.193,3.153,3.948,6.023
		c1.585,2.564,2.919,4.504,3.997,5.82c0.069,0.067,0.592,0.623,1.569,1.67c0.643,0.641,1.098,1.248,1.368,1.823
		c-0.201,3.272-1.3,6.528-3.292,9.768c-0.706,1.148-2.716,3.847-6.021,8.099c-2.498,3.104-4.354,5.417-5.568,6.935
		c-2.059,2.665-3.627,5.011-4.707,7.035c-0.505,1.113-0.793,1.823-0.86,2.126c-0.136,0.507-0.185,1.451-0.153,2.835
		c0,1.417-0.083,2.531-0.252,3.341c-0.033,0.236-0.288,0.895-0.759,1.974c-0.371,0.912-0.522,1.62-0.456,2.125
		c0.103,0.743,0.71,1.198,1.822,1.367c1.553,0.236,2.479,0.456,2.783,0.658c0.305,0.979,0.508,2.261,0.608,3.848
		c0.033,0.877,0.085,2.243,0.152,4.1c0.066,0.742,0.185,1.788,0.354,3.137c0.134,1.183,0.101,2.245-0.103,3.189
		c-0.371,1.723-1.248,3.426-2.632,5.112c-1.181,1.384-2.143,2.396-2.884,3.038c-0.776,0.674-1.47,1.129-2.077,1.366
		c-0.877,0.337-1.872,0.438-2.984,0.303c-1.013-0.134-1.924-0.505-2.735-1.113c-0.775-0.607-1.315-1.316-1.619-2.125
		c-0.676-1.856-1.164-3.56-1.468-5.113c-0.438-2.024-0.741-3.542-0.911-4.555c-0.337-1.721-0.54-3.325-0.607-4.808
		c-0.27-2.127-0.388-3.578-0.354-4.354c0-0.742,0.185-2.143,0.556-4.2c0.272-1.653,0.323-2.986,0.154-3.999
		c-0.203-1.014-0.643-2.261-1.317-3.745c-0.843-1.757-1.349-2.902-1.518-3.442c1.011-1.45,2.767-3.61,5.263-6.479
		c2.497-2.835,4.303-5.079,5.416-6.733c1.181-1.651,2.464-4.032,3.848-7.136c0.438-0.979,0.741-1.722,0.911-2.227
		c0.268-0.878,0.387-1.757,0.354-2.632c-0.103-2.564-0.962-5.822-2.582-9.771c-0.507-1.281-1.569-2.564-3.189-3.846
		c-1.045-0.844-2.496-1.806-4.353-2.886c-0.27-0.168-1.502-1.029-3.695-2.58c-0.27-0.17-1.266-1.335-2.986-3.493
		c-1.991-2.431-3.391-4.066-4.202-4.91l-2.125,0.962c-0.607,0.304-1.013,0.658-1.214,1.063l-0.355,1.114l-2.125,4.655
		c-0.338,0.643-0.642,1.333-0.911,2.076c-0.136,0.541-0.473,1.198-1.013,1.975l-1.114,1.821l-0.404,0.507
		c-0.473,0.707-0.962,1.721-1.468,3.035c-0.304,0.776-0.743,2.026-1.317,3.747c-0.775,2.193-1.569,5.636-2.379,10.325
		c-0.168,1.113-0.456,2.733-0.859,4.86c-0.304,1.821-0.406,3.424-0.304,4.808c0.032,0.877,0.422,2.109,1.163,3.695
		c0.236,0.776,0.591,1.922,1.064,3.441c0.404,1.215,0.844,2.194,1.315,2.936c0.237,1.486,0.727,3.02,1.469,4.606
		c0.438,0.944,1.147,2.328,2.125,4.151c0.303,0.606,0.844,1.502,1.62,2.683c0.709,1.146,1.147,2.243,1.316,3.289
		c0.067,0.338,0.101,0.861,0.101,1.569c0.034,0.573,0.254,0.978,0.658,1.215c0.337-0.034,0.929-0.338,1.772-0.911
		c0.777-0.507,1.333-0.743,1.67-0.708c0.607,0.101,1.198,0.623,1.772,1.567c0.337,0.54,0.776,1.384,1.316,2.531
		c0.505,1.013,1.451,2.632,2.834,4.858c1.147,2.094,1.822,3.966,2.023,5.62c0.271,2.395-0.168,4.437-1.315,6.124
		c-0.54,0.776-1.283,1.62-2.228,2.53c-0.978,0.911-1.737,1.467-2.277,1.67c-1.316,0.54-3.004,0.692-5.062,0.457
		c-2.093-0.236-3.578-0.743-4.455-1.52c-0.134-0.101-0.489-0.488-1.063-1.165c-1.453-1.787-2.6-3.339-3.443-4.655
		c-0.304-0.473-0.726-1.401-1.266-2.783c-0.471-1.216-0.944-2.092-1.416-2.632c-0.607-0.068-1.283,0.15-2.026,0.656
		c-1.181,0.777-1.821,1.183-1.924,1.216c-0.607,0.034-1.045,0.117-1.315,0.253c-1.687,0.911-2.953,1.518-3.796,1.821
		c-1.417,0.507-2.766,0.389-4.049-0.353c-0.709-0.406-1.535-1.114-2.481-2.127c-1.518-1.518-2.361-2.361-2.531-2.531
		c-0.641-0.606-1.451-1.417-2.429-2.429c-1.214-1.316-1.991-2.144-2.328-2.481c-0.944-0.91-2.277-1.99-4-3.238
		c-2.024-1.486-3.39-2.531-4.1-3.138c-1.317-0.879-2.194-1.569-2.632-2.076c-0.404-0.439-0.895-1.098-1.468-1.973
		c-0.54-0.846-0.895-1.469-1.063-1.874c-0.506-1.383-0.609-3.375-0.305-5.973c0.406-2.833,0.642-4.825,0.709-5.973
		c0.203-3.408-0.118-7.254-0.962-11.539c-0.404-2.16-1.281-5.771-2.631-10.833c-0.304-1.215-0.692-2.953-1.165-5.214
		c-0.471-2.429-0.844-4.183-1.112-5.265c-1.62-6.883-2.633-12.046-3.038-15.487c-0.136-1.756-0.254-3.021-0.354-3.796
		c-0.136-1.384-0.321-2.516-0.558-3.391c-0.371-1.283-1.164-3.173-2.377-5.671c-0.743-1.518-1.537-3.391-2.379-5.617
		c-0.979-2.564-1.738-4.54-2.278-5.922c-0.168-0.473-0.607-1.468-1.315-2.986c-0.575-1.216-0.962-2.211-1.165-2.987
		c-0.776-2.564-1.129-7.153-1.063-13.767c0-0.979,0.134-2.177,0.404-3.594c0.373-1.62,0.625-2.852,0.759-3.695
		c0.169-0.811,0.371-2.076,0.607-3.796c0.236-1.619,0.439-2.834,0.607-3.643c0.54-1.555,0.93-2.734,1.165-3.544
		c0.676-2.294,1.031-3.493,1.063-3.595c0.676-1.449,1.182-2.564,1.518-3.339c0.54-1.283,0.878-2.413,1.013-3.392
		c0.103-0.607,0.103-1.467,0-2.581c-0.134-1.283-0.185-2.245-0.15-2.886c0.067-1.35,0-3.037-0.205-5.062
		c-0.269-2.362-0.454-4.167-0.556-5.417c-0.134-1.315-0.201-3.172-0.201-5.567c0-2.497-0.035-4.251-0.103-5.265
		c-0.033-0.54-0.152-1.265-0.354-2.176c-0.236-0.978-0.371-1.669-0.404-2.075c-0.034-2.868-0.084-4.91-0.152-6.125
		c-0.134-2.091-0.844-3.627-2.125-4.606c-0.776-0.034-1.47,0.304-2.077,1.013c-0.333,0.49-0.626,0.895-0.885,1.214
		c0.024-0.013,0.05-0.03,0.077-0.051c-0.053,0.053-0.102,0.104-0.153,0.152c-0.211,0.26-0.396,0.462-0.556,0.607
		c-0.028,0.029-0.07,0.055-0.126,0.077c-0.92,0.933-1.453,1.481-1.595,1.645c-0.612,0.404-1.075,0.8-1.392,1.19
		c-0.31,0.392-0.563,0.638-0.759,0.733c-0.203,0.096-1.155,1.395-2.86,3.899c-1.383,3.069-2.462,5.229-3.239,6.479
		c-1.316,2.192-3.156,3.339-5.517,3.44c-1.856,0.102-3.678-0.454-5.467-1.67c-1.518-1.078-2.733-2.413-3.644-3.998
		c-0.338-0.81-0.608-1.435-0.811-1.873c-0.843-1.687-1.383-2.836-1.62-3.443c-0.573-1.484-0.877-2.85-0.911-4.098
		c0-0.439,0.101-1.25,0.304-2.43c0.202-1.08,0.287-1.959,0.253-2.633c-0.169-2.227-0.253-3.355-0.253-3.39
		c-0.034-1.451,0.135-2.564,0.506-3.341c0.337-0.743,1.08-1.603,2.227-2.58c1.215-1.047,1.974-1.822,2.278-2.33
		c0.81-1.417,1.536-3.426,2.177-6.024c0.641-3.171,1.113-5.533,1.417-7.084c0.236-1.149,0.422-2.008,0.557-2.582
		c0.202-1.08,0.32-1.939,0.354-2.582c0.034-0.607-0.068-1.467-0.304-2.582c-0.27-1.147-0.387-2.058-0.354-2.732
		c0-0.237,0.102-0.759,0.304-1.57c0.134-0.64,0.168-1.214,0.101-1.72c-0.067-0.608-0.337-1.536-0.809-2.783
		c-0.405-1.182-0.625-2.11-0.658-2.784c-0.034-0.845,0.185-1.722,0.658-2.632c0.472-0.946,1.045-1.62,1.721-2.025
		c0.202-0.134,0.539-0.22,1.012-0.253c0.506-0.101,0.877-0.202,1.114-0.304c0.405-0.168,0.877-0.573,1.417-1.214
		c0.304-0.371,0.759-0.928,1.367-1.67c0.742-0.811,1.821-2.025,3.24-3.645c1.045-1.519,1.467-3.256,1.265-5.213
		c-0.136-1.35-0.575-3.442-1.316-6.277c-0.776-3.104-1.266-5.348-1.468-6.732c-0.169-2.192-0.305-3.778-0.405-4.758
		c-0.27-1.822-0.455-3.188-0.557-4.099c-0.168-1.586-0.034-2.97,0.405-4.15c0.776,0.607,1.501,1.468,2.176,2.581
		c0.406,0.642,0.962,1.636,1.671,2.986c0.27,0.473,0.643,0.996,1.114,1.569c0.304,0.303,0.726,0.759,1.266,1.366
		c2.194,2.43,3.609,4.066,4.251,4.911c1.045-1.08,2.768-1.857,5.163-2.329c1.384-0.304,3.562-0.642,6.53-1.012
		c0.27-0.541,0.591-1.89,0.962-4.049c0.303-1.755,0.776-2.953,1.416-3.595c0.912,0.439,1.773,1.249,2.582,2.43
		c0.473,0.708,1.113,1.788,1.923,3.239c0.237,0.371,0.625,0.911,1.164,1.62c0.406,0.642,0.626,1.333,0.658,2.075
		c0.136,0.136,0.288,0.152,0.457,0.052c0.201-0.169,0.404-0.22,0.607-0.152c1.484,1.688,2.986,2.936,4.504,3.746
		c1.856,1.012,4.066,1.536,6.632,1.569c-0.069,0.574-0.542,0.995-1.419,1.265c-0.944,0.304-1.484,0.675-1.62,1.113
		c0.102,0.169,0.558,0.828,1.368,1.974c0.574,0.81,0.962,1.552,1.163,2.228c0.607,0.136,2.346,0.607,5.215,1.418
		c2.226,0.641,4.098,1.012,5.618,1.113c2.361,0.203,3.694,0.337,3.998,0.406c1.25,0.27,2.176,0.843,2.784,1.72
		c-0.235,0.472-0.708,0.742-1.416,0.811c-0.878,0-1.518,0.033-1.923,0.101c-0.541,0.101-1.232,0.371-2.076,0.809
		c-0.911,0.439-1.536,0.708-1.873,0.81c1.35,1.484,3.763,2.244,7.238,2.278c5.196,0.034,8.133,0.118,8.807,0.253
		c0.101,0.472-0.069,0.844-0.507,1.114c-0.167,0.101-0.623,0.253-1.366,0.456c-1.283,0.337-2.277,0.606-2.986,0.81
		c-1.283,0.304-2.362,0.523-3.24,0.657c-1.384,0.169-3.138,0.456-5.263,0.861c-2.531,0.472-4.185,0.759-4.961,0.86
		c0.101,0.102,0.709,0.76,1.823,1.975c0.708,0.843,1.349,1.501,1.924,1.974c1.484,1.349,2.768,2.108,3.846,2.278
		c1.35,0.236,3.29-0.136,5.821-1.115c2.564-1.012,4.506-1.433,5.821-1.265c0.676,0.068,1.738,0.288,3.189,0.659
		c-0.203,0.642-0.893,1.13-2.075,1.468c-1.282,0.371-2.058,0.76-2.328,1.164c0.912,0.202,2.042,0.692,3.392,1.467
		c1.518,0.81,2.647,1.333,3.391,1.569c0.473,0.169,1.214,0.354,2.227,0.558c0.777,0.27,1.181,0.759,1.214,1.467
		c-5.196-0.64-7.93-0.977-8.2-1.012c-3.441-0.304-6.327-0.202-8.655,0.304c0.877,1.079,3.038,2.936,6.479,5.569
		c2.937,2.294,4.893,4.335,5.872,6.123c0.167,0.303,0.302,1.096,0.404,2.379c0.033,0.103,0.134,0.373,0.303,0.81
		c0.134,0.304,0.169,0.558,0.103,0.759c-0.709-0.201-1.671-0.944-2.886-2.226c-1.147-1.216-2.176-1.924-3.087-2.128
		c-1.756-0.403-3.477-0.454-5.164-0.15c-0.034,0.438,0.186,0.895,0.658,1.366c0.641,0.676,0.996,1.063,1.064,1.165
		c0.167,0.371,0.353,0.927,0.556,1.67c0.202,0.775,0.371,1.333,0.505,1.669c0.339,0.812,1.435,2.7,3.292,5.669
		c1.112,1.857,2.395,3.544,3.848,5.062c1.349,1.352,2.226,2.178,2.63,2.481c0.406,0.302,1.064,0.676,1.975,1.114
		c0.742,0.404,1.199,0.962,1.368,1.67c-1.013,0.27-2.026,0.27-3.039,0c-0.911-0.237-1.668-0.625-2.277-1.165
		c0.236,0.439,0.692,0.911,1.366,1.419c0.844,0.607,1.368,1.011,1.569,1.214c0.236,0.27,0.54,0.709,0.911,1.316
		c0.372,0.607,0.676,1.045,0.912,1.315c0.067,0.101,0.676,0.591,1.823,1.469c0.741,0.573,1.197,1.198,1.366,1.873
		c-1.993,0.201-4.05,0.033-6.175-0.507c-1.183-0.303-2.919-0.893-5.214-1.772c0.067,0.439,0.353,0.913,0.861,1.417
		c0.708,0.676,1.129,1.098,1.266,1.266c0.201,0.236,0.471,0.709,0.808,1.418c0.339,0.605,0.643,1.063,0.911,1.366
		c0.271,0.27,0.76,0.574,1.47,0.911c0.403,0.337,0.96,0.911,1.668,1.721c0.676,0.641,1.352,0.996,2.026,1.063
		c0.371,0.641,0.792,1.064,1.265,1.265c0.337,0.103,1.063,0.254,2.176,0.456c2.261,0.473,3.898,0.642,4.91,0.506
		c0.404-0.034,0.979-0.201,1.721-0.506c0.741-0.304,1.316-0.472,1.721-0.507c0.439-0.067,1.181-0.067,2.228,0
		c0.54-0.067,1.165-0.252,1.872-0.556c0.507-0.067,1.232-0.085,2.178-0.051c0.843,0.034,1.483,0,1.923-0.101
		c1.756-0.236,2.733-0.355,2.935-0.355c1.047-0.101,2.464-0.404,4.254-0.911c1.854-0.54,3.221-0.861,4.1-0.962
		c1.45-0.169,3.17-0.169,5.161,0c4.726,0.337,9.397,1.721,14.021,4.151c3.544,1.89,7.254,4.488,11.135,7.794
		c0.271,0.203,0.794,0.573,1.569,1.113c0.676,0.439,1.165,0.81,1.469,1.114c0.505,0.506,1.013,1.283,1.518,2.328
		c0.304,0.607,0.726,1.553,1.266,2.834c1.214,0.776,3.323,1.452,6.327,2.026c4.488,0.877,6.85,1.35,7.086,1.417
		c0.404,0.101,0.962,0.319,1.67,0.656c0.743,0.339,1.283,0.558,1.62,0.659c0.674,0.203,1.636,0.457,2.886,0.76
		c1.08,0.335,1.939,0.759,2.582,1.264c0.134,0.169,0.134,0.406,0,0.709C228.586,125.716,228.586,125.919,228.688,126.02z"/>
</g>
</svg>
