<?xml version="1.0" encoding="utf-8"?>
<!-- Generated by IcoMoon.io -->
<!DOCTYPE svg PUBLIC "-//W3C//DTD SVG 1.1//EN" "http://www.w3.org/Graphics/SVG/1.1/DTD/svg11.dtd">
<svg version="1.1" xmlns="http://www.w3.org/2000/svg" xmlns:xlink="http://www.w3.org/1999/xlink" width="26" height="32" viewBox="0 0 26 32">
<g id="icomoon-ignore">
	<line stroke-width="1" x1="" y1="" x2="" y2="" stroke="#449FDB" opacity=""></line>
</g>
	<path d="M0.5 25.469q1.75-1.438 1.875-1.438v-0.125q-0.766 0.313-0.938 0.313l-0.063-0.125q1.047-0.859 1.625-1.188h0.063q0.063 0 0.75 0.813v0.125q-1.484 1.25-1.75 1.313 0-0.063-0.063-0.063l0.188-0.313v-0.063q-1.406 0.875-1.625 0.875zM1.938 18.406v-0.063q0.375-0.563 0.375-0.813-0.25-0.094-0.25-0.188v-0.063q0.375-0.5 0.5-0.875-0.313-0.078-0.313-0.188v-0.063q0.266-0.328 0.563-0.875-0.313 0-0.313-0.125 0.172-0.422 0.5-0.75-0.156 0-0.313-0.125 0-0.063 0.5-0.625v-0.063q-0.25 0-0.25-0.125v-0.125l0.563-0.188v-0.125q-0.313-0.047-0.313-0.188 0.016-0.094 0.625-0.375v-0.063q-0.109-0.063-0.313-0.063v-0.188q0.219 0 0.5-0.313v-0.063q-0.313 0-0.313-0.125 0.688-0.516 0.688-0.563-0.313 0-0.313-0.125l0.688-0.563q-0.25 0-0.25-0.125v-0.063q0-0.109 0.5-0.313v-0.125h-0.125v-0.125q0.109-0.234 0.563-0.375v-0.063l-0.188-0.25q0.75-0.328 0.75-0.375-0.25-0.094-0.25-0.188 0.453-0.313 0.75-0.313l-0.25-0.25q0-0.188 0.938-0.375l-0.188-0.25v-0.063q0-0.141 0.875-0.25l-0.125-0.188v-0.125q0.016-0.125 0.125-0.125h0.625l-0.125-0.188q0.063-0.188 0.375-0.188h0.563v-0.063l-0.125-0.188q0.016-0.125 0.125-0.125h0.75l-0.063-0.313v-0.063h0.063q0.656 0.063 0.75 0.063l-0.125-0.188q0.016-0.125 0.125-0.125h0.188l0.438 0.125q0.063-0.109 0.063-0.313h0.188q0.266 0 0.688 0.188v-0.063q-0.125-0.203-0.125-0.313l0.125-0.063 0.688 0.313-0.063-0.313v-0.063h0.063q0.234 0 0.688 0.313h0.125q0-0.25 0.063-0.25t0.563 0.375q0-0.313 0.125-0.313l0.438 0.313q0-0.188 0.125-0.188 0.5 0.375 0.5 0.688-0.875 0.453-0.875 0.938v0.063q0 0.547 1.25 1.125 0.375 0.313 0.375 0.375v0.188h-0.063q-0.625-0.5-1.813-0.5-0.25-0.328-0.25-0.563v-0.125l0.25-1.188q-0.5 0.422-0.5 0.938v0.063q0 0.281 0.188 1h0.438q1.469 0.266 2.563 1.563v0.125q-0.234 0-1.5-0.625-0.141 0-0.25-0.063-0.344 0.063-0.563 0.063h-0.625v0.438l0.313 0.063 0.875-0.25h0.375q0.094 0 0.188 0.188-0.594 0.016-1.688 1l-0.313 0.063q-0.484-0.25-0.563-0.313h-0.375l-0.563 0.375-0.063-0.125q0-0.359 0.75-0.875 0.063-0.109 0.063-0.25v-0.313q-0.109 0-0.625 0.25v-0.063q-0.75 0-0.75 0.438-0.75 1.859-0.75 2.25v0.188q0 0.688 1.375 2.25 0 0.297 0.188 1.25h-0.125q-0.219 0-0.625-1.188-0.563-0.641-1.25-0.938-0.391-0.25-0.813-1.375-1.125-0.453-1.125-0.813-0.063-0.438-0.188-0.438-0.375 0.406-0.375 0.438 0.391 0.359 0.625 1.375 0.391 0.5 0.75 0.875 0 0.125-0.188 0.125-0.531-0.203-1.438-1-0.234 0-0.75-0.5-0.688 0.313-0.688 0.75 1.063 1.297 1.063 1.563l-0.063 0.125q-0.188 0-1.375-1.063h-0.125q-0.75 0.938-0.813 0.938l-0.125-0.063q0-0.031 0.375-1l-0.125-0.063h-0.813q-0.25 0.094-0.25 0.438v0.125q0 0.094 1 0.875 0.328 0.578 0.813 0.938v0.063h-0.188q-0.328 0-1.063-0.813-0.328-0.188-0.75-0.188-0.563 0-0.625 0.75 0 0.172 1.063 0.875 0.984 1.5 1.438 1.5h0.125q0-0.141 0.063-0.25 0-0.609-2-2.125v-0.125h0.063q0.797 0 2.125 1.375 0.094 0 0.25 0.125h0.25q0.344 0 0.438-0.25v-0.375q0-1.063-1.25-2.25v-0.125h0.063q0.813 0.188 1.813 2l0.188 0.125h0.25q0.141 0 0.188-0.313 0-1.016-1.375-2.5 0.125-0.063 0.188-0.063 0.984 0.641 1.75 2.188 0.313 0.438 0.75 0.438l0.188-0.375-0.063-0.125q0.063-0.375 0.188-0.375 0.078 0 0.25 0.688 0.234 0.203 0.563 0.375 0.109-0.016 0.5-0.313h0.063q0.125 0.016 0.125 0.125 0 0.266-0.125 0.5 0.203 0.75 0.688 0.75 0.25-0.063 0.25-0.25 0-0.594-1.75-2.188-1.813-0.234-1.813-0.438-0.063 0-0.063-0.063 0.063 0 0.063-0.063l0.25 0.063q0.359 0 1.25-0.125 0.969 0 2.375 2.188 0.203 0.125 0.375 0.125h0.375q0.125 0 0.125-0.125-0.813-0.281-0.813-1.063 0-0.219-0.5-1.625-0.125-0.688-0.125-0.75 0-0.906 1.563-1.688 1.5-0.422 1.5-0.75 0-0.266 0.938-0.563h0.188v0.188q-0.875 0.172-0.875 1.188 0.125 0.797 0.125 0.938l-0.125 0.063q-0.406-0.813-0.875-0.813h-0.063q-0.625 0.109-0.625 0.563t0.438 0.563v0.188h-0.188q-0.094 0-0.813-0.75-0.813 0.453-0.813 1.188 0 0.469 0.563 1.625v0.063h0.063q0.75-0.25 0.75-0.688v-0.063q-0.25-1.188-1.125-1.188v-0.125l0.313-0.063 0.125 0.063q0.063 0 0.063-0.063l0.313 0.063h0.313q1.625 0 2.438-1.063v-0.188q0-0.484-0.563-0.75v-0.188h0.188q0.391 0.234 0.75 0.563h0.063q0-0.156 0.125-0.563h0.063q0.125 0.016 0.125 0.125 0 2.109-2.875 2.625 0.078 1.5 0.625 1.5 0.25 0.188 0.25 0.25v0.063q0 0.422-0.375 0.625l-0.063 0.125 0.438-0.063h0.063q0.625 0.516 0.625 1 0 0.375-0.5 0.438-0.297 0-1.438-0.813h-0.063v0.063q0.156 0.016 0.5 1.375 0 0.391-0.688 0.438 0 0.25-0.125 0.25h-0.25q-0.281 0-1.313-0.938-0.469-0.156-1.25-0.938h-0.063q0 0.188-0.125 0.188h-0.125l-0.188-0.125h-0.063q0 0.188-0.125 0.188-0.266-0.063-0.438-0.063l-0.188 0.25v0.063h0.125l0.25-0.188h0.063q0.438 0.266 0.438 0.375v0.063l-0.313 0.375h0.063q0-0.094 0.188-0.188h0.563q0.313 0.156 0.313 0.5v0.188l-0.063 0.313h-0.125l-0.25-0.25h-0.063v0.5q0 0.094-0.188 0.188-0.375-0.25-0.625-0.25l-0.313 0.063q-1-0.578-1-1.125v-0.563q-0.109 0-0.313-0.188 0 0.109-0.125 0.375l-0.125-0.063h-0.125q0 0.313-0.188 0.313-0.125-0.063-0.188-0.063v0.063q0.063 0.109 0.063 0.25-0.078 0.063-0.438 0.063 0.125 0.203 0.125 0.313-0.094 0.063-0.375 0.063l0.063 0.125q0 0.078-0.375 0.188 0 0.313-0.25 0.313 0.063 0.25 0.188 0.438v0.25h-0.188q-0.219-0.078-0.688-1.313-0.391-0.375-0.75-0.375-0.781 0.063-0.813 0.063-0.828-0.313-0.875-0.313-0.25 0.078-0.25 0.563v0.5q0.344 0.75 1.188 0.75 0.797 0 1.438 1.063 0.203 0 0.375 0.313l-0.125 0.063q-0.266 0-1.563-0.875-0.203 0-0.313-0.063-0.609 0.188-0.75 0.5v0.25q0.391 0.625 1.188 0.625h0.688q0.875 0.125 0.875 0.688v0.063h-0.063q-0.188-0.125-0.438-0.188-0.344 0.063-0.5 0.063-0.625 0-0.625-0.125-0.563 0.156-0.563 0.313v0.25q0 0.75 1.25 1.25h0.125q0.844-0.094 1.563-0.688 0.125 0.016 0.125 0.125-0.375 0.406-0.375 0.813v0.063q0.141 0.813 1.125 0.813 0.922 0 1.125-1.063 0-0.406 0.188-0.438h0.063q0 0.344 0.188 0.75h0.25q0.672 0 0.813-0.938-0.5-0.656-0.5-0.688l0.125-0.063q0.406 0.125 0.563 0.125 0.359 0 0.438-0.688v-0.313q-0.063-0.188-0.375-0.188-0.438 0.063-0.5 0.063v-0.063l0.563-0.625v-0.25q0-0.516-0.688-0.688h-0.25q-0.25 0-0.625 0.375h-0.063v-0.063l0.125-0.438q-0.047-0.172-0.313-0.313h-0.188q-0.641 0-0.938 0.688 0 0.063-0.063 0.063l-0.188-0.125q-0.672 0-0.75 0.938v0.125q0.016 0.109 0.313 0.5v0.125q-0.188 0.234-0.188 0.438 0.125 0.375 0.688 0.625 0.203-0.125 0.375-0.125l0.25 0.313q0.5 0 0.875-0.5 0.109 0.063 0.25 0.063l0.188-0.313v-0.688q0-0.719-0.625-0.813l-0.375 0.125q-0.063-0.109-0.063-0.25h-0.063q-0.547 0-0.75 0.75v0.438q0.063 0.5 0.625 0.5h0.125q0.484 0 0.563-0.625-0.094-0.563-0.563-0.563h-0.063q-0.219 0.109-0.313 0.375 0.125 0.281 0.25 0.313h0.063q0.188 0 0.188-0.25h0.063q0.125 0.016 0.125 0.125-0.094 0.313-0.438 0.313h-0.125q-0.313-0.156-0.313-0.5 0-0.484 0.625-0.563 0.516 0 0.688 0.75 0 0.578-0.563 0.875h-0.375q-0.516 0-0.938-0.688v-0.625q0-0.781 1.313-0.938 1.125 0 1.313 1.438v0.063q0 1.078-1.188 1.5h-0.688q-1.266 0-1.563-1.688-0.063-0.25-0.063-0.438 0-1.875 2.438-2.188 1.922 0 2.563 2.188 0 0.031 0.063 0.813 0 2.328-2.688 3.313-0.406 0.125-0.563 0.125h-0.938q-1.734 0-3.5-2-0.688-1.078-1-2.25-0.094 0-0.188-0.188v-0.938q-0.188 0-0.188-0.188 0.047-0.703 0.188-0.938-0.375-0.078-0.375-0.188zM3.125 16.844q0.281 0.313 0.875 0.5 0.094-0.063 0.688-0.125v-0.063q-0.844-1.063-1.25-1.063-0.313 0.328-0.313 0.563v0.188zM4.813 12.094q0 0.375 1.125 0.375 0.234-0.828 0.75-1.125v-0.125q-0.516-0.25-0.75-0.25-1.125 0.172-1.125 1.125zM5.563 13.656l0.688-0.938q1.203-1.297 2.375-2.188 0.75-0.375 1.625-1.063 0.859 0 1.875-0.5 0.688 0 1.375-0.438 0.141 0 0.25-0.063 0.813 0.219 0.813 0.313 0.094-0.063 1-0.125 0.25 0 1.188 0.5 0-0.469-2.125-1.125-1.297 0-1.5-0.125-0.125 0-1.313 0.563h-0.313q-0.906-0.125-1-0.125-0.891 1.063-1.813 1.063-0.359 0.078-0.625 0.938-1.938 1.453-1.938 2.375-0.313 0.297-0.563 0.813v0.125zM6.5 9.344q0 0.672 1.25 1.125 0.25-0.422 0.25-0.563v-0.125q0-0.156-1-0.5 0-0.125-0.375-0.25-0.125 0.203-0.125 0.313zM8.125 8.094q0 0.328 1.188 0.563 0 0.078 0.313 0.25 0.875-0.547 0.875-1.563 0.063-0.328 0.063-0.625l-0.063-0.313h-0.063q-2.313 0.688-2.313 1.688zM8.688 16.906q0.125-0.063 0.188-0.063 0-0.125-0.125-0.125h-0.063v0.188zM8.938 16.906q0.016 0.125 0.125 0.125h0.063q0-0.188 0.25-0.188 0-0.094-0.188-0.188h-0.063q0 0.25-0.188 0.25zM9.813 18.781l0.125-0.063q0.172 0 0.75 0.688v0.063q0 0.125-0.125 0.125 0-0.156-0.75-0.813zM9.813 10.281q0 0.094 0.188 0.188h0.063q0.313-0.156 0.313-0.5v-0.25h-0.063q-0.5 0.047-0.5 0.5v0.063zM10.688 19.094q0.016-0.125 0.125-0.125l0.375 0.063q0.156-0.438 0.25-0.438h0.063q0.203 0 0.375 0.875l-0.625 0.313q-0.563-0.297-0.563-0.688zM11.25 17.406l0.125-0.063q0.5 0 1.188 0.813h0.063v0.125q-0.188 0.297-0.625 0.5h-0.125q-0.266-0.5-0.563-0.5v-0.438zM11.938 8.156h0.125q0.531-0.344 1.063-0.438 0-0.484 0.438-1.5v-0.188q0-0.219-0.563-0.375-1 0.156-1 0.813v1.563zM13.25 14.719q0.234 0.813 0.75 0.813 0.313-0.094 0.313-0.438 0-0.375-1-0.438 0 0.063-0.063 0.063zM14.25 16.719l0.125-0.063h0.063q0.25 0.25 0.375 0.25v0.125q0 0.141-0.313 0.188-0.25-0.297-0.25-0.5zM14.625 14.094q0.016-0.156 1.375-0.563 1.547-0.703 2.25-1.188-0.688-0.281-0.688-0.875-0.063 0-0.063-0.125 0-0.188 0.438-1.438v-0.375q0-0.281-1.75-2.5-0.313-0.547-0.438-1.438 0.156-1.438 1.313-1.438h0.25q0.984 0 1.438 0.438l-0.125 0.063q-0.266-0.125-0.75-0.188-1.625 0-1.625 1.188 0 0.813 2.125 3.25 0.25 0.578 0.25 0.813v0.375l-0.375 1.188q0 0.406 0.563 0.5h0.188q0.266 0 3-1.313 1.625 0 1.625-0.688 0.063 0 0.625-0.938 0.734-0.75 1.063-0.75v0.125q-0.531 0.5-0.625 1-0.25 0-0.25 0.188 0.063 0.344 0.063 0.5-0.5 0.125-0.5 0.75l-0.25 0.188-0.125-0.063q-0.25 0.375-0.5 0.375-0.047-0.25-0.125-0.25-0.469 0-1.125 0.438-0.125 0-0.125-0.188h-0.125q-0.406 0.25-0.875 0.813-0.125 0-0.125-0.25h-0.063q-0.438 0.328-0.813 0.688h-0.063l-0.188-0.125q-0.578 0.375-0.688 0.375-0.031-0.25-0.438-0.25 0 0.297-0.5 0.625 0 0.156-0.5 0.25 0 0.188-0.125 0.188h-0.063l-0.125-0.063q-0.125 0.281-0.25 0.313-0.109-0.063-0.25-0.063-0.094 0.25-0.188 0.25h-0.125l-0.125-0.063q-0.125 0.281-0.25 0.313l-0.188-0.125h-0.125q0 0.25-0.188 0.25h-0.125l-0.125-0.063q0 0.094-0.188 0.188-0.078 0-0.313-0.313zM15.188 15.469q0-0.625 1.625-0.813 1.844-0.438 3.188-0.438h1.625v0.125q-2.625 0.266-4.25 0.813v0.063q1.031-0.25 1.688-0.25h1.125q0.125 0.016 0.125 0.125-0.313 0.063-1.25 0.563-0.781 0-3.125 0.75-0.313-0.938-0.75-0.938zM16.625 5.656q0-0.125 0.75-0.188 1.219-0.875 2.563-0.875 1.078-0.5 1.563-0.5 0.313 0 2.875 0.75 0.813 0.078 0.813 0.25l-0.375 0.5v0.063h0.188q0 0.734-2.313 1.813-0.313 0.297-1.5 0.813-0.328 0.5-0.563 0.5v0.063h0.25l3.563-1.063v-0.063q-0.578-0.125-1.188-0.188v-0.188h1.188q0.5 0 0.938 0.438 0 0.141-1.813 0.688-2.328 1.063-3.25 1.063-0.734 0-1.25-0.688 0.078-0.078 0.875-0.375 0.813-0.938 1-0.938 0.609 0 2.563-1.063 0.563-0.109 1.125-0.688h-0.063l-0.313 0.063q-0.25-0.016-2.063-1.125-0.125-0.063-0.188-0.063h-0.063v0.063q0.813 0.375 0.813 1 0.063 0 0.063 0.188l-0.125 0.063q-0.328-1-0.938-1h-0.25q-0.516 0-0.688 0.688v0.063q0.078 0.938 0.938 0.938 0.781-0.313 0.813-0.313v0.188q-0.453 0.625-1.188 0.625-1.188-0.219-1.188-1.125v-0.063q0.141-1.25 0.875-1.25v-0.063h-0.125q-0.875 0.438-2 0.438-1.563 0.688-1.938 0.688-0.25-0.125-0.375-0.125zM17.25 6.156l0.125-0.063h0.188q0.375 0.313 0.375 0.875l-0.125 0.063q-0.469 0-0.563-0.875zM18.063 6.219v-0.063q0.469-0.281 0.688-0.5h0.313q0.141 0 0.25 0.063l0.375-0.188h0.125q-0.125 0.625-0.625 0.625h-0.313q0 0.266-0.438 0.375-0.25-0.094-0.375-0.313zM18.313 6.844l0.125-0.063q0.328 0 0.688 0.5 0 0.125-0.125 0.125h-0.125q-0.563-0.078-0.563-0.563zM19 11.344v-0.25q0.063-0.188 0.375-0.188h0.063q0.125 0.016 0.125 0.125-0.141 0.438-0.25 0.438h-0.188q-0.125 0-0.125-0.125zM19.125 10.156q0-0.094 0.25-0.25h0.063q0.125 0.016 0.125 0.125v0.188q0 0.094-0.188 0.188-0.094 0-0.25-0.25zM19.188 6.344q0.234-0.125 0.5-0.125h0.063q0.109 0 0.438 0.625 0.25 0.094 0.25 0.188-0.203 0.125-0.313 0.125-0.484 0-0.688-0.625-0.25 0-0.25-0.188zM20.063 10.469v-0.063q0-0.094 0.188-0.188h0.063q0.094 0 0.188 0.188v0.125q0 0.125-0.188 0.125-0.25-0.094-0.25-0.188zM21.063 10.469v-0.125q0-0.094 0.25-0.188l0.063 0.125v0.063q0 0.125-0.125 0.125h-0.188zM21.188 4.594q0.406 0 0.625 0.063h0.063v-0.063l-0.25-0.063h-0.438v0.063zM21.375 5.344l0.25-0.188h0.25q0.094 0 0.188 0.188v0.125q-0.156 0.313-0.25 0.313h-0.188q-0.156 0-0.25-0.438zM21.5 9.656v-0.125q0.016-0.125 0.125-0.125h0.125q0.125 0.016 0.125 0.125 0 0.125-0.125 0.125h-0.25zM22.438 10.031q0-0.094 0.188-0.188h0.125q0.125 0.016 0.125 0.125v0.063q0 0.094-0.188 0.188h-0.063q-0.094 0-0.188-0.188zM23.063 9.094l0.125-0.063h0.125v0.188h-0.125q-0.125 0-0.125-0.125z" fill="#000000"></path>
</svg>
