<?xml version="1.0" encoding="utf-8"?>
<!-- Generated by IcoMoon.io -->
<!DOCTYPE svg PUBLIC "-//W3C//DTD SVG 1.1//EN" "http://www.w3.org/Graphics/SVG/1.1/DTD/svg11.dtd">
<svg version="1.1" xmlns="http://www.w3.org/2000/svg" xmlns:xlink="http://www.w3.org/1999/xlink" width="32" height="32" viewBox="0 0 32 32">
<g id="icomoon-ignore">
	<line stroke-width="1" x1="" y1="" x2="" y2="" stroke="#449FDB" opacity=""></line>
</g>
	<path d="M0.688 6.031v-0.125q0.094-1.188 0.313-1.25 0.125 0.016 0.125 0.125l-0.063 0.313q0 1.109 1.438 2.625 1.141 0.859 3.063 1.5 3.5 0.844 5.188 2.563 0.75 0.828 0.75 1.125-0.063 0-0.063 0.063l-0.125-0.063h-0.5q-0.516 0-1.688-0.875-0.766-0.719-2.563-1.313-2.234-0.625-3-1.063v0.063q0 0.328 2.75 1.375 1.375 0.391 1.375 0.625 0 0.125-0.125 0.125-0.328-0.109-2.813-0.563-4.063-1.625-4.063-5.25zM5.25 16.656v-0.125q0.047-0.375 0.188-0.375 0.078 0 0.25 0.75 0.422 0.313 0.688 0.313 0.766 0 2.5-1.938 0.719-0.438 1.563-0.438 1.828 0 3.813 2l0.063-0.125q-0.578-1.297-2-1.875-2.266-0.563-3.063-1.5-0.563-0.766-0.563-1.063 0.016-0.125 0.125-0.125 1.156 1.188 2.938 1.188h0.25q0.125 0 0.125-0.125v-0.063q-0.922-1.719-2.625-2.75-0.438-0.313-0.438-0.375l0.188-0.125h0.063q0.891 0 3 0.875l0.875 0.188 2.188-0.313h0.438q1.844 0.125 2 0.125h0.25q0.281 0 3.25-0.938 0.328-0.063 0.625-0.063l0.063 0.125v0.063q-2.25 1.672-2.688 3.125 1.734 0 3-1.063h0.125l0.125 0.063q0 1.391-2.438 2.25-1.797 0.547-2.688 1.688l-0.375 0.625h0.063q2.125-1.938 3.563-1.938h0.375q0.719 0 2.563 1.625 0.797 0.5 1.125 0.5h0.438q0.109 0 0.75-0.688 0.125 0.016 0.125 0.125 0 0.719-1 1.375-0.234 0.125-0.5 0.125h-0.313q-0.781-0.219-2.625-1-0.234-0.063-0.563-0.063-0.5 2.438-1 2.438-1.703 0-2.313 2.063v0.125q0 0.5 0.438 1.625 0 0.25-0.75 0.25l-0.625-0.063q0.656 0.688 1.688 0.688 0.063 0.125 0.063 0.188 0 0.766-1.75 1.313-0.516 0.172-1.688 0.25-1.219 0-2.125-1.25 0-0.109-0.188-0.313v-0.25h0.5q1.25-0.281 1.25-0.625l-0.438 0.063q-0.875-0.047-0.875-0.313 0.313-0.563 0.313-0.875v-0.688q0-0.766-1.125-1.75-0.641-0.375-1.063-0.375l-0.375 0.063q-0.75-1.656-0.75-2.375-0.25 0-0.25-0.125-0.359 0-2.5 1.125l-0.563 0.125h-0.313q-1.375-0.422-1.375-1.375zM11.188 16.094q0 0.906 2.313 1.813 0.109 0.063 0.25 0.063v-0.063q-0.484-1.078-1.875-1.688-0.406-0.125-0.563-0.125h-0.125zM14 13.094q0 0.906 1.563 3.938 0 0.094 0.188 0.188 0.063-0.344 1.188-2.75 0.25-0.719 0.313-1.188-0.141-1.625-1-1.625l-0.313-0.063q-1.938 0-1.938 1.125v0.375zM14.25 24.469q0.234 0.188 0.438 0.188h0.25q-0.094-0.313-0.438-0.313h-0.125q-0.125 0.016-0.125 0.125zM14.5 19.719h0.063q0.234-0.188 0.438-0.188 0.188 0 0.188 0.25-0.188 1.422-0.438 2.188h0.063q0.5-0.125 0.75-0.125 0.141 0 1.125 0.188-0.438-1.641-0.438-2.25v-0.063q0.016-0.125 0.125-0.125l0.563 0.188v-0.063q-0.641-1.375-1.313-1.375-0.422 0-1.125 1.125v0.25zM16.688 24.656h0.188q0.438-0.234 0.438-0.313-0.25 0-0.25-0.063-0.375 0.125-0.375 0.25v0.125zM17.438 17.844h0.125q0.938-0.125 2.25-1.375 0-0.109 0.188-0.313v-0.125h-0.063q-0.797 0-2.125 1.25-0.375 0.391-0.375 0.563zM19.875 12.656v-0.125q1.313-2.25 5.188-3.375 2.719-0.828 3.75-1.938 1.094-1.438 1.25-2.313v-0.188h0.125q0.266 0 0.313 0.875v0.438q-0.172 1.938-1.875 3.813-2.281 1.813-4.875 1.813v-0.188q0.906-0.469 2.438-1 1.047-0.5 1.563-1.063h-0.063q-1.609 0.813-4.5 1.75-2.547 1.625-3.188 1.625-0.125 0-0.125-0.125z" fill="#000000"></path>
</svg>
