<?xml version="1.0" encoding="utf-8"?>
<!-- Generated by IcoMoon.io -->
<!DOCTYPE svg PUBLIC "-//W3C//DTD SVG 1.1//EN" "http://www.w3.org/Graphics/SVG/1.1/DTD/svg11.dtd">
<svg version="1.1" xmlns="http://www.w3.org/2000/svg" xmlns:xlink="http://www.w3.org/1999/xlink" width="15" height="32" viewBox="0 0 15 32">
<g id="icomoon-ignore">
	<line stroke-width="1" x1="" y1="" x2="" y2="" stroke="#449FDB" opacity=""></line>
</g>
	<path d="M0.752 2.803v-0.083q1.248 0.707 2.162 1.747h-0.083q-0.977-0.541-2.079-1.663zM1.168 3.801v-0.166h0.083q1.996 1.185 2.162 1.497h-0.166zM1.667 4.632v-0.166h0.083q0.603 0.166 2.162 1.497h-0.166zM1.834 15.694v-0.083q0.936-3.181 2.246-4.159v-0.083h-0.166q0 0.25-1.497 0.416h-0.333v-0.166h0.083q1.351 0 2.994-1.58h0.25q-0.499 0.561-0.499 0.665h0.083q0.478-0.416 0.832-0.416v0.083q-0.499 0.52-0.499 0.749 1.268-0.665 2.495-0.665v0.166q-0.769 0-1.83 0.582v0.083l0.749-0.166 0.499 0.083v0.166q-0.749 0.062-0.749 0.582 0 1.414 1.414 1.83h0.083q0.915-0.166 0.915-0.832 0-0.083-0.333-0.499v-0.083h0.083q0.416 0.208 0.416 0.749-0.353 0.915-1.164 0.915-1.164 0-1.747-1.747h-0.083v0.333q0 2.745 1.58 5.489-0.208 0-0.832-1.248h-0.083q-0.353 0.333-0.665 0.333 0.374 0.977 2.079 3.161v0.25h-0.25q-1.393-1.518-2.412-3.327-0.541 0-1.081-0.333 0 1.455 3.41 6.487 0 0.042 0.665 1.248 0 0.166-0.166 0.166-1.31-2.204-3.41-5.073-0.749-1.123-1.497-4.325-0.166 0-0.166-0.665h-0.166q-0.083 0.832-0.083 1.248v0.499q0 2.786 2.495 4.159 0 0.083 0.083 0.25l-0.166 0.083q-2.911-1.144-2.911-4.741 0-1.892 0.998-3.826v-0.083h-0.083q-1.414 2.537-1.414 3.327h-0.166zM2.249 5.381h0.166q0.998 0.499 1.913 1.164 0 0.166-0.416 0.166v0.083q0.665 0.27 0.665 0.416v0.083q-0.187 0-0.333-0.083h-0.083v0.083q0.603 0.25 0.665 0.25v0.166h-0.083l-0.333-0.083h-0.083v0.083q0.104 0 0.832 0.333l0.166-0.25v-0.083q-0.416-0.062-0.416-0.25 0.166 0 0.166-0.166-0.333 0-0.499-0.333h0.333v-0.083q-0.291 0-0.665-0.499v-0.083h0.083q0.603 0.333 0.915 0.333v0.166h-0.083q-0.166-0.083-0.25-0.083 0 0.187 0.416 0.25v0.166h-0.25v0.083q0.416 0.062 0.416 0.25v0.083h-0.166v0.083q0.333 0.042 0.333 0.25-0.25 0.083-0.25 0.166v0.25q-0.27-0.166-0.499-0.166h-0.333v0.083l0.582 0.166v0.166q-0.104 0-0.915-0.333v-0.166q0.25 0 0.25-0.166l-0.499-0.166v-0.166h0.166v-0.166q-0.499-0.25-0.665-0.25v-0.166h0.416v-0.083q-0.353 0-0.915-0.582h0.499q0-0.062-1.248-0.915zM2.915 4.050q1.663 1.788 2.329 1.996v0.166h-0.083q-1.871-1.040-2.246-2.162zM3.414 14.447q0 0.166 0.166 0.998h0.083q0-1.892 0.998-3.743v-0.083q-1.248 1.435-1.248 2.828zM3.83 5.63v-0.083l1.58 0.998h-0.083q-1.144-0.333-1.497-0.915zM4.162 23.429q0.208-1.58 0.582-1.58v0.083q-0.166 0.541-0.166 0.749v0.665q0 0.25 0.25 0.998h0.083v-0.915h0.166q0 1.123 1.164 1.83h0.083l-0.499-0.665v-0.25q0.853 0.832 1.663 0.832 1.019 0 1.747-1.081v-0.166l-0.166 0.083h-0.25l-0.416-0.083v-0.166l0.416 0.083h0.083q0.416-0.25 0.416-0.499 0-1.019-0.915-2.162l0.166-0.083h0.083q0.998 1.123 0.998 2.578 0 1.851-2.412 2.745h-0.083v-0.166q0.25 0 0.25-0.166h-0.083l-0.582 0.083q-2.266 0-2.578-2.745zM4.245 16.027q0 0.998 1.248 0.998-0.582-1.206-0.582-2.662v-0.166q0-0.915 0.25-2.162v-0.083h-0.083q-0.832 1.955-0.832 4.075zM4.495 2.22v-0.083q1.289 1.102 2.162 3.077v0.25q-0.104 0-2.162-3.244zM4.578 8.874v-0.166l0.416-0.083q0.749 0.042 0.749 0.25v0.083h-0.749zM4.578 2.969h0.083q0.832 0.832 2.828 4.325h-0.166q0-0.187-1.081-1.497v0.166q0.166 0.52 0.166 0.665-0.083 0.146-0.083 0.333 0.083 0 0.083 0.083 0.166-0.083 0.25-0.083l-0.083-0.416q0.146 0.021 0.915 1.081v0.083l-0.166-0.083h-0.083v0.083l0.166 0.25h-0.333q0.166 0.333 0.499 0.333v0.166h-0.499v0.166q0.457 0.166 0.499 0.166v0.166l-0.499 0.166v0.083h0.25q0.166-0.083 0.25-0.083v0.083q-0.333 0.374-0.333 0.416v0.083h0.083q0.104-0.083 0.416-0.083-0.083 0.166-0.083 0.25l0.416-0.333h0.083v0.333l0.416-0.333v0.083q-0.27 0.478-0.582 0.665-0.166 0-0.166-0.166 0.083 0 0.083-0.083h-0.083q-0.312 0.25-0.499 0.25 0-0.083-0.083-0.083l0.166-0.333h-0.083q-0.27 0.166-0.416 0.166v-0.083q0-0.166 0.25-0.582h-0.166q-0.624 0.229-0.665 0.416h0.166q0.166-0.083 0.25-0.083v0.083q-0.25 0.229-0.25 0.582l0.416-0.083q0 0.229-0.832 0.333v-0.25l0.166-0.25h-0.083l-0.416 0.083-0.083-0.166q0.437-0.437 1.081-0.749 0.166-0.333 0.416-0.333v-0.083q0-0.208-0.333-0.25v-0.083q0-0.166 0.25-0.166v-0.083l-0.333-0.416 0.166-0.25q-0.187 0-0.25-0.416l-0.166 0.083q-0.25-0.146-0.832-1.081v-0.083h0.166q-0.499-0.853-0.499-0.998l0.333 0.25q-0.749-1.248-0.749-1.497l0.582 0.665v-0.083zM4.828 9.456v-0.083q0-0.125 0.25-0.25h0.333q0.582 0.312 0.582 0.416 0 0.166-0.915 0.416l-0.083-0.166 0.166-0.25zM5.327 30.416v-0.083q0.312 0.25 0.582 0.25h0.166q1.351 0 2.246-2.412-0.686 0.582-1.58 0.582h-0.166v-0.166h0.25q1.83-0.395 1.83-2.329v-0.499h0.083q0.229 0 0.333 1.913-0.062 0.998-0.25 0.998 0-0.083-0.083-0.083v0.25h0.166v0.083q-0.333 0-0.333 0.665-0.437 0.915-0.832 0.915 0.333-0.478 0.333-0.749-0.998 1.081-1.913 1.081-0.561 0-0.832-0.416zM5.41 14.447q0 1.497 0.665 2.578 0.52-0.166 0.582-0.416-0.915-1.955-0.915-3.66v-0.665h-0.083q-0.25 1.040-0.25 2.162zM5.659 8.458v-0.083h0.499q0.749 0.166 0.749 0.416-0.146 0.083-0.333 0.083v0.083h0.25v0.166l-0.582 0.166h-0.499v-0.25q0.749-0.083 0.749-0.25-0.832-0.104-0.832-0.333zM5.743 7.793l0.166-0.083q0.79 0.208 0.915 0.499l-0.166 0.083q-0.79-0.208-0.915-0.499zM5.743 7.127v-0.083q0.021-0.166 0.166-0.166 0.665 0.707 0.665 0.832l-0.166 0.083zM6.408 20.934v-0.083h0.749q1.913-0.166 1.913-1.414v-0.665q0.166 0 0.25 0.582-0.083 0.333-0.083 0.582 0.27 0 0.499-1.164 0-0.665-0.499-1.248h0.083q0.665 0.603 0.665 1.081h0.083v-0.25q0-1.185-0.998-1.747v-0.166h0.083q1.164 0.79 1.164 1.58v0.665l-0.083 0.499v0.083h0.083q0.021-0.312 0.333-0.499v0.166q-1.123 2.246-3.41 2.246h-0.582q-0.125 0-0.25-0.25zM6.657 4.715h0.166q0.146 0.977 1.331 2.578l0.166 0.749q-1.372-1.497-1.663-3.327zM7.156 11.868v-0.166l1.58-0.582v0.166q-1.144 0.582-1.58 0.582zM7.406 11.037v-0.166q0.062 0 0.499-0.083v0.166zM7.739 12.949v-0.166q0.021-0.166 0.166-0.166 0 0.374 0.083 0.499h-0.083q-0.166 0-0.166-0.166zM7.822 18.356v-0.083q0.125 0 0.333 0.333h-0.083q-0.125 0-0.25-0.25zM8.071 8.209v-0.083q1.331 0.728 2.162 1.497h-0.166q-1.351-0.665-1.996-1.414zM8.155 12.45q0.021-0.166 0.166-0.166h0.083v0.166h-0.25zM8.238 23.595v-0.25h0.166v0.416q-0.166 0-0.166-0.166zM8.321 10.953v-0.166q0.561 0 1.663 0.998h0.083l0.416-0.083q0.25 0.416 0.582 0.416 0.353 0 0.582-0.665-0.166-0.499-0.333-0.499h-0.166l-0.25 0.166q0.166 0.27 0.166 0.416h-0.166q-0.166 0-0.166-0.166v-0.333l0.333-0.416q-0.769-0.665-1.414-0.665h-0.166v-0.166h0.083q1.123 0 1.996 0.915v-0.083q0-0.353-1.081-1.164v-0.083q0.603 0 1.248 0.998h0.083v-0.25q0.166 0.021 0.166 0.166v1.081q0 0.915-0.832 0.998h-0.083q-0.749-0.333-1.331-0.333-0.832-1.081-1.414-1.081zM8.654 9.124h0.333q0.582 0.312 0.582 0.416l-0.166 0.083h-0.499l0.166-0.25q-0.416-0.104-0.416-0.25zM8.903 10.288v-0.166q1.31 0 1.747 0.665-0.187 0-0.25 0.416 0.083 0 0.083 0.083l-0.166 0.083q-0.457 0-0.665-0.416v-0.083h0.083q0.27 0.166 0.499 0.166l0.083-0.166q-0.312-0.582-1.414-0.582zM11.066 11.619v-0.083q0.083 0 0.25-0.083v0.166h-0.25zM11.149 11.203l0.166-0.083 0.083 0.166-0.166 0.083zM11.315 12.45v-0.083h0.416q0.291 0 0.998 2.412h-0.166q0-0.645-1.248-2.329z" fill="#000000"></path>
</svg>
