<?xml version="1.0" encoding="utf-8"?>
<!-- Generated by IcoMoon.io -->
<!DOCTYPE svg PUBLIC "-//W3C//DTD SVG 1.1//EN" "http://www.w3.org/Graphics/SVG/1.1/DTD/svg11.dtd">
<svg version="1.1" xmlns="http://www.w3.org/2000/svg" xmlns:xlink="http://www.w3.org/1999/xlink" width="22" height="32" viewBox="0 0 22 32">
<g id="icomoon-ignore">
	<line stroke-width="1" x1="" y1="" x2="" y2="" stroke="#449FDB" opacity=""></line>
</g>
	<path d="M0.5 10.469l0.125-0.063q1.172 1.609 1.875 5.25 0.188 0.641 0.188 1l0.125-0.063q0-1.766-0.563-4.188l0.125-0.063q0.5 0.5 1.125 2.375 0.313 1.344 0.813 3h0.063v-0.375q0-0.891-0.438-2.625l0.125-0.063q0.469 0 1.688 3.188h0.063v-0.438q-0.109-0.953-0.313-1.688v-0.125h0.125q1.016 1.078 1.438 2.5h0.063q0-0.438 0.063-0.5l-0.188-1.438 0.125-0.063h0.063q0.844 1.047 1 1.813h0.125q-0.078-0.938-0.188-1.625l0.125-0.063h0.063q0.438 0.453 0.938 1.75h0.063v-0.625q0-0.078-0.125-0.688v-0.125q0.016-0.125 0.125-0.125 0.672 0.703 1 1.75h0.063v-0.188q0-0.328-0.063-1.25l0.125-0.063q0.359 0.328 0.625 1.188h0.063l-0.188-1.25 0.125-0.063h0.063q0.688 0.813 0.813 1.313h0.063v-0.125q0-0.75-1.188-2.125 0 0.813-0.188 0.813h-0.063q-0.563-0.719-0.563-0.875h-0.063v0.938q0 0.125-0.125 0.125h-0.125q0-0.25-0.688-1.125-0.094 0.625-0.25 0.625-0.219-0.469-0.75-2.25-0.109 0-1.063-2.313-1.125-2.266-2.5-4-0.859-1.047-1.625-1.313v-0.063l0.125-0.063q1.891 0 5.375 5.188 1.063 1.75 1.625 2.375h0.063q0-0.188-0.063-0.188 0-1.906 0.813-4.938 0.953-3.078 1.875-4l0.063 0.125q-1.125 2.422-1.125 5.688 0.063 0.234 0.063 0.5 0 0.063-0.063 0.063l0.063 0.313v0.688q0 2.531 1.875 5.875 0.625 1.406 0.625 2.625v0.063q1.234-0.5 2.125-0.5h0.313q1.969 0.016 2.625 1.938l0.063 0.313q0 1.328-1.813 2.563-1.688 0.813-3.063 0.813h-0.688q-1.859 0-4.688-2.25-0.313-0.328-0.313-0.5 0.641-0.172 3.5-0.5 1.406 0 2.125 0.625 1.25-1.875 2.375-1.875h0.125q1.125 0.156 1.125 1.125-0.234 0.563-0.625 0.563-0.453 0-0.5-0.813h-0.063l-0.063 0.313q0.125 0.688 0.625 0.688h0.125q0.547 0 0.75-0.813 0-0.891-1.188-1.375h-0.813q-0.766 0-2.063 1.5-1.359-1.75-2.063-1.75 0-0.188-1.688-0.25h-0.063q-1.078 0-3.188 1 0-0.313-1.375-0.688h-0.188q-0.531 0-0.813 0.375l0.313-0.063h0.563q1.063 0 1.563 1 1.219-1.109 2.813-1.25 0.141 0 0.25-0.063 2.219 0 3.313 1.375v0.063l-0.063 0.125q-0.531-0.25-1.063-0.25l-5.063 0.625h-0.375q-2.438 0-3.688-1.875-1.313-1.547-1.813-3.938-0.25-4.625-0.75-5.375zM7.875 10.281q0.016-0.125 0.125-0.125h0.063q0.391 0 1.188 0.813h0.125q0-0.438 0.813-1.438h0.063q0.125 0.016 0.125 0.125-0.422 1.266-0.688 3.25h-0.063q-0.844-1.406-1.75-2.625zM8.5 10.156v-0.063q0.188-0.25 0.313-0.75-0.063-0.109-0.063-0.25v-0.125q0.016-0.125 0.125-0.125 0.141 0.453 0.688 1-0.25 0.813-0.438 0.813zM13.188 15.719l0.125-0.063q1.016 0.922 1.188 1.438h0.063q-0.125-0.813-0.125-1.063 0-0.938 0.188-0.938h0.063q0.078 0 0.813 1.875h0.063v-0.063q-0.188-0.656-0.188-1.563 0.047-1.25 0.313-1.25 0.109 0 0.5 1.563 0.125 0 0.125 0.313h0.063v-0.063q-0.25-1.016-0.25-1.5v-0.188l0.063-0.375q0-0.063-0.063-0.063 0.125-0.875 0.313-0.875 0.203 0.172 0.5 1.75l0.438 0.938h0.063v-0.125q-0.375-0.734-0.563-3 0.094-1.563 0.313-1.563h0.063q0.094 0.031 0.688 2.375 0.203 0.625 0.313 0.625-0.625-3.016-0.625-5.375l0.125-0.063q0.375 0 1.313 3.25l0.313 1.313h0.063v-0.063l-0.063-0.313 0.063-0.438q-0.25-2.797-0.938-4.75-0.688-1.5-0.688-1.625l0.125-0.063q0.984 1.109 1.688 2.938 0.875 2.234 0.875 4.625v0.188q0 3.516-2.813 6.125-0.5-0.125-0.75-0.125-1.141 0.109-1.438 0.25l-0.063-0.125q0-0.609 1.375-1.375l0.813-0.125 0.125 0.063q0.109-0.063 0.25-0.063h0.063l0.125 0.063q0-1.563 0.875-2.688h-0.063q-1.125 0.891-1.125 1.813v0.438l-0.125 0.188-0.75-0.125q-1.313 0.406-2.063 1.625-0.172 0.422-0.375 0.563h-0.063q-0.125 0-0.125-0.125v-0.313q0-1.313-1.188-3.875zM19 23.594v-0.313q0.234-0.375 0.313-0.813h0.125q1 0.813 1 0.875v0.125h-0.063q-0.844 0.125-1.063 0.125h-0.313z" fill="#000000"></path>
</svg>
