<?xml version="1.0" encoding="utf-8"?>
<!-- Generated by IcoMoon.io -->
<!DOCTYPE svg PUBLIC "-//W3C//DTD SVG 1.1//EN" "http://www.w3.org/Graphics/SVG/1.1/DTD/svg11.dtd">
<svg version="1.1" xmlns="http://www.w3.org/2000/svg" xmlns:xlink="http://www.w3.org/1999/xlink" width="19" height="32" viewBox="0 0 19 32">
<g id="icomoon-ignore">
	<line stroke-width="1" x1="" y1="" x2="" y2="" stroke="#449FDB" opacity=""></line>
</g>
	<path d="M1.031 28.684q0.399-2.216 2.038-2.216 1.041 0 2.481 1.507 0.576 0.443 0.975 0.443 1.329 0 1.329-1.418v-0.62q0-0.532-0.532-0.798h-0.177q-0.443 0.244-0.443 0.709 0.111 0.443 0.266 0.443h0.266l0.177-0.089v0.089q0 0.133-0.354 0.266-0.576 0-0.709-0.798v-0.266q0-0.731 0.975-0.975h0.266l0.443 0.089q0-3.634 2.836-7.090 1.95-3.279 1.95-6.735 0-0.642-0.177-1.152l0.177-0.089q0.354 0.576 0.354 1.329v0.886q0 3.501-2.925 9.217-0.266 0.598-0.532 1.861 0 1.529 1.241 2.304h0.089v0.177h-0.089q-0.377 0-1.418-0.709 0.177 0.931 0.177 1.418 0 3.080-2.57 3.811v-0.089q1.595-0.997 1.595-2.393v-0.266h-0.089q-0.31 1.684-1.684 1.684h-0.266q-0.886 0-2.216-1.418 0 0.465-0.886 0.532h-0.177q-0.443-0.222-0.443-0.709v-0.177q0.022-0.177 0.177-0.177h0.089l-0.089 0.354q0.089 0.177 0.089 0.266h0.354q0.177-0.044 0.354-0.443 0-0.377-0.798-0.532-0.798 0.266-0.798 0.798v0.177q0 0.288 1.152 1.507 0.089 0.487 0.089 0.798-0.266 1.063-0.975 1.063l-0.089-0.177q0.443-0.222 0.443-0.709 0-0.465-1.241-1.329 0-0.089-0.089-0.089v0.354q0 0.288 0.266 0.62v0.089h-0.177q-0.399 0-0.709-1.329zM1.917 24.784v-0.354q0.532-1.329 1.152-1.329h0.089v0.177q-0.266 0-0.266 0.177v0.443q-0.354 0-0.532 0.354l0.089 0.177 0.177-0.089h0.62q0.111 0.089 0.798 0.443 0.465 0 0.532-0.886h0.089l0.354 0.266q1.329-0.908 1.329-1.861l-0.177-0.354 0.177-0.089q0.354 0.665 0.354 1.063 0 0.62-1.684 1.95 0 0.133-0.62 0.62h-0.354q-0.199 0-1.152-0.62-0.089 0-0.266-0.089-0.443 0.177-0.62 0.177zM1.917 12.643q0.022-0.177 0.177-0.177 0 0.111 0.532 0.443-0.133 0.354-0.266 0.354zM2.006 11.668v-0.177h0.089q0.51 0.266 0.709 0.266v0.266q0 0.177-0.177 0.177h-0.089q-0.133 0-0.532-0.532zM2.626 13.618v-0.089l0.089-0.443h0.177q0 0.753 2.216 0.975 0.465-0.089 0.532-0.089 0.266 0.82 0.886 1.241 0.753 0.177 0.975 0.177 0.886 0 1.329-2.038-1.063 0.687-1.063 1.063h-0.177v-0.177q0.776-2.038 2.57-2.038h0.089l0.443 0.089v0.177h-0.266q-0.908 0-1.329 2.393-0.177 0-0.354 0.62 0.111 0 0.443 0.443l-0.177 0.089h-0.709l-0.177-0.089v0.089q0.354 0.399 0.354 0.443v0.089h-0.089q-0.354 0-1.329-0.443l0.089 0.177-0.177 0.089q-0.111 0-1.861-1.595-0.886-0.443-2.393-0.975zM2.626 10.959v-0.089h0.089q0.487 0 0.709 0.443l-0.266 0.177h-0.089q-0.133 0-0.443-0.532zM2.715 12.377q0.089-0.177 0.089-0.266h0.266v0.177l-0.089 0.177 0.975 0.798v0.089q-1.241-0.222-1.241-0.975zM3.247 11.845q0-0.354 0.443-0.532 0 0.089 0.089 0.089-0.066 0.354-0.177 0.354 0.133 0.465 0.532 0.886l-0.177 0.089q-0.709-0.753-0.709-0.886zM3.424 9.541q0.31-0.62 0.443-0.62h0.089v0.798l-0.089 0.177q-0.399-0.177-0.443-0.354zM3.513 23.455v-0.177q0.886-0.244 0.886-1.152-0.089-0.487-0.089-0.709l-0.354 0.266q0-0.089-0.089-0.089l0.266-1.241h-0.089l-0.354 0.266q0-0.089-0.089-0.089 0.487-1.152 2.393-1.861 2.747-0.62 2.747-1.684l-0.089-0.177 0.177-0.089 0.089 0.177v0.62q0 1.108-2.57 1.772-1.507 0.842-1.507 3.279-0.731 0.886-1.329 0.886zM3.601 10.604l0.089-0.177q0.753 0.421 2.127 2.304 1.219 0.731 1.507 1.152h-0.089l-0.532-0.089v0.089l0.266 0.443-0.177 0.089q-0.997-1.063-1.329-1.063l-0.443 0.354h-0.177l0.089-0.886q-0.177-1.329-0.532-1.329h-0.177v0.354h-0.177l-0.089-0.443v-0.089l0.089-0.177q-0.111 0-0.443-0.532zM4.044 9.452q0.554-3.368 1.95-3.368 0-0.089 0.266-0.089 0.177 0.288 0.177 0.443-0.443 0.354-0.62 0.354v0.089h0.089q0.576-0.177 0.798-0.177 0.133 0 0.354 0.354v0.266q-0.62 1.396-0.62 1.684v0.177q0.443 1.174 0.443 1.241v0.089h-0.354l0.089 0.443-0.177 0.089q-0.155-0.089-0.354-0.089l0.089 0.177v0.089h-0.089q-0.975-0.199-0.975-0.798 0.089 0 0.089-0.089l0.177 0.089h0.266l0.089-0.443q-0.177-0.288-0.177-0.443h-0.089q-0.111 0-0.443 0.62 0-0.089-0.089-0.089v0.532h-0.177q-0.709-0.354-0.709-1.152zM4.931 8.92h0.089q0.465-0.177 0.709-0.177 0 0.133 0.266 0.266v-0.177q0-0.177-0.177-0.177h-0.266l-0.62 0.177v0.089zM5.108 8.123q0.532-0.199 0.532-0.354h-0.089q-0.288 0.177-0.443 0.177v0.177zM5.108 5.198h0.266q0 0.266 0.62 0.266 0-0.199-0.089-0.354l0.177-0.354q0.62 0.443 1.241 0.443v0.177l-1.595 0.62h-0.266q-0.199 0-0.354-0.798zM5.64 20.796q0-1.041 2.747-2.038 0-0.133 0.354-0.354 0 0.089 0.089 0.089-0.066 0.642-2.57 1.95-0.266 0.532-0.266 0.709 0.177 0.022 0.177 0.177v0.089h-0.177q-0.354-0.155-0.354-0.62zM6.26 2.717v-0.62h0.266l0.089 0.532q-0.089 0.177-0.089 0.266h-0.089q-0.177 0-0.177-0.177zM6.349 12.908v-0.177q0-0.554 0.798-1.507v-0.266l-0.532-1.772q0-0.487 0.709-1.95-0.62-1.063-0.62-1.241v-0.177q0.155-0.354 0.62-0.354h0.177q0.51 0.908 1.507 1.241 0.354 0.465 0.354 0.798v0.177h-0.089q0-0.487-1.418-1.063 0 0.177 0.177 0.62l-0.709 1.772q-0.089 0.354-0.089 0.62 0 1.507 1.595 2.038v0.177q-0.487-0.089-0.709-0.089-1.374 0-1.595 1.152h-0.177zM6.437 3.248v-0.177q0-0.133 0.266-0.266 0 0.598 1.152 1.684 0.354 0.51 0.354 0.709h-0.089q-1.684-1.307-1.684-1.95zM6.703 21.948v-0.177q1.108-1.617 3.545-4.343 1.595-2.127 1.595-3.811 0-1.13-1.418-2.038v-0.089h0.443l0.443 0.089-0.266-0.354v-0.089h0.089q0.975 0 1.241 2.038 0 2.703-3.811 7.533-0.798 1.95-0.886 1.95-0.377-0.709-0.975-0.709zM6.88 2.096v-0.532q0.022-0.177 0.177-0.177h0.089q0 0.266 0.177 0.62l-0.354 0.266zM6.969 2.628v-0.177q0-0.199 0.443-0.266l0.089 0.177q-0.177 0.022-0.177 0.177v0.089q0 0.532 0.443 1.152l-0.177 0.089q-0.62-0.642-0.62-1.241zM7.589 9.718v-0.266q0-0.687 0.532-1.772 0-0.62 0.177-0.62 0.354 0.532 0.354 0.975v0.532q-0.354 1.086-0.354 1.329v0.266q0.199 1.152 0.886 1.152v0.177q-1.196 0-1.595-1.772zM7.589 2.362q0.177-0.399 0.354-0.443h0.354v0.266q-0.354 0.022-0.354 0.354l0.177 0.709h-0.177q-0.354-0.82-0.354-0.886zM7.767 1.653v-0.266l0.089-0.443h0.177l0.177 0.709-0.354 0.177zM8.032 5.73v-0.089l0.089-0.177q2.747 0 3.899 2.216 0 0.266 0.177 0.709l-0.177 0.089q-0.62-1.329-1.684-1.861h-0.089q0.51 0.709 1.152 2.659h-0.089q-0.421-0.199-1.063-1.772-0.975-1.13-1.861-1.329 0-0.044-0.354-0.443zM8.387 4.312v-0.266q0.399 0 0.62-0.975v-0.443q0-0.177-0.177-0.177t-0.266 0.62q-0.177 0-0.177-0.177v-0.532q0-0.133 0.354-0.354h0.266q0.354 0.266 1.063 2.216 0.798 1.307 0.798 1.684-0.089 0-0.089 0.089-1.241-0.709-1.861-0.709v-0.177q0.62-0.222 0.62-0.443v-0.177q0-0.133-0.266-0.266h-0.443zM8.653 9.807q0.266-1.706 0.266-1.861-0.089-0.177-0.089-0.266h0.089q0.532 0.354 0.532 0.886v0.177q0 0.377-0.089 0.975 0 0.532 1.329 1.329v0.177h-0.089q-1.95-0.421-1.95-1.418zM8.653 1.742q0.089-0.62 0.266-0.62h0.089q0 0.222 0.089 0.709l-0.177 0.089h-0.089q-0.177 0-0.177-0.177zM9.45 15.035q0-1.396 1.063-2.038v0.089q-0.532 0.598-0.532 1.772 0.066 0.709 0.266 0.709h0.089q0.798-1.418 0.798-2.304h0.177v0.177q0 2.304-1.418 3.456h-0.089q-0.288 0-0.354-1.861zM9.628 7.325q0.399 0.066 1.152 1.95 0.687 0.62 1.241 0.62v0.177h-0.709l-0.62-0.089 1.063 0.886v0.089h-0.089q-1.95-0.51-1.95-1.418v-1.595q-0.089-0.377-0.089-0.62zM10.691 22.746q0.31-1.152 0.975-1.152v0.089q-0.443 0.465-0.443 0.798v0.177l0.089 0.177q0.089 0 0.532-0.354h0.089q-0.177 0.554-0.177 0.62l0.354 0.177q1.152-0.399 1.152-1.063h0.266l0.532 0.266q0.886-0.31 0.886-0.709 0.177 0.022 0.177 0.177v0.354q-0.199 0.465-3.191 1.418h-0.354q-0.687 0-0.886-0.975zM10.691 21.239v-0.089q1.152-2.925 1.861-2.925h0.089q0.354 0 0.532 0.354v0.266q0 1.219-0.886 2.127h-0.089q0.354-0.709 0.354-1.152v-0.177q0-0.177-0.177-0.177l-1.595 1.772h-0.089zM11.046 7.768h0.089l1.507 1.329h0.354q0.266 0 0.266-0.354h0.177q0 0.975-0.886 0.975-0.864 0-1.507-1.95zM12.464 22.834v-0.089q0-0.953 1.418-3.456 0.089-0.354 0.089-0.709-0.155-0.975-0.886-0.975h-0.177l-0.443 0.089v-0.089q0-0.266 0.798-0.443h0.532q1.108 0.222 1.329 1.329v0.177h-0.177v-0.177h-0.089q0 0.798-1.684 3.013-0.532 0.931-0.532 1.329h-0.177zM13.704 21.505v-0.089q0.443-0.377 0.62-0.709l-0.089-0.177v-0.177h0.177q0.133 0 0.266 0.266v0.089q-0.111 0.798-0.975 0.798zM13.882 22.125v-0.177q0.487 0 0.798-0.798h0.089q0.177 0.022 0.177 0.177v0.354q0 0.266-0.798 0.443h-0.266zM14.591 20.353v-0.089q0-0.111 0.443-0.443h0.089v0.089q-0.111 0.62-0.354 0.62-0.177 0-0.177-0.177zM14.945 21.062q0.443-0.62 0.532-0.62h0.089q-0.222 0.886-0.443 0.886zM15.211 21.86q0.443-0.62 0.532-0.62 0 0.089 0.089 0.089-0.31 0.709-0.443 0.709-0.177 0-0.177-0.177z" fill="#000000"></path>
</svg>
