<?xml version="1.0" encoding="utf-8"?>
<!-- Generated by IcoMoon.io -->
<!DOCTYPE svg PUBLIC "-//W3C//DTD SVG 1.1//EN" "http://www.w3.org/Graphics/SVG/1.1/DTD/svg11.dtd">
<svg version="1.1" xmlns="http://www.w3.org/2000/svg" xmlns:xlink="http://www.w3.org/1999/xlink" width="18" height="32" viewBox="0 0 18 32">
<g id="icomoon-ignore">
	<line stroke-width="1" x1="" y1="" x2="" y2="" stroke="#449FDB" opacity=""></line>
</g>
	<path d="M0.83 20.713h0.081l-0.081-0.161q0.242-1.692 0.564-1.692h0.242q0.121 0 0.242 0.242-0.081 1.168-0.081 1.289 0 3.324 2.498 5.479 1.35 0.967 2.901 0.967 1.047 0 2.417-1.047 0.504-0.161 0.645-0.161l0.081 0.161q-0.886 1.611-3.142 1.611-4.552 0-5.721-5.962-0.081-0.443-0.081-1.45h-0.081v0.967h-0.081q0.282 2.739 1.692 4.834 1.954 1.934 4.109 1.934h0.403q2.558 0 3.626-2.337 0.745-0.322 0.806-0.322l0.081 0.161v0.081q0 1.108-2.175 2.578-1.188 0.483-2.337 0.483h-0.242q-2.256 0-4.351-1.934-2.014-2.518-2.014-5.721zM1.313 18.538q0.282-0.685 1.45-1.692h0.161v0.081q-0.846 1.773-1.047 1.853 0-0.141-0.564-0.242zM3.65 21.439l0.161-0.081q2.256 3.384 4.834 3.384h0.081q3.122 0 4.27-2.981 0.322-1.047 0.322-1.773v-1.047q-0.806 0.443-1.45 2.417-0.081 0.544-0.081 0.886 1.128-1.128 1.128-2.578h0.161v0.403q0 2.236-1.934 3.706-0.161 0-0.161-0.242 0-2.739 1.934-6.526 0.242-0.584 0.242-0.725h0.161q1.209 1.209 1.209 3.706 0 3.203-2.981 4.915-1.128 0.645-2.095 0.645h-0.322q-3.747 0-5.479-4.109zM3.73 7.338v-0.161l2.095-0.403v-0.322l-1.934-0.645v-0.161q0.242 0 1.773 0.483v-0.081l-0.081-0.483v-0.483q0.302-3.686 0.886-3.948 0.222-0.403 0.322-0.403 0.161 0.403 0.161 0.645 0 1.068-0.806 3.142l-0.081 0.564q0.242 2.659 0.806 2.659 0 0.060 0.564 0.564v0.081q-0.121 0.604-0.564 1.37h-0.161v-0.081q0-0.342 0.081-0.645 0-0.322-0.483-1.531l-1.934 0.645h-0.081v-0.161q0.262 0 1.773-0.725v-0.081l-0.081-0.161q-1.793 0.322-2.256 0.322zM3.892 19.263q0-1.994 2.417-4.995 0.645-1.45 0.645-1.853v-0.242h0.161v0.081q0 1.732-2.014 4.915-0.403 0.846-0.403 1.531v0.967q0 1.007 1.289 2.659 1.289 0.927 2.739 1.047 0.081-0.161 0.081-0.242 0-2.76 1.611-6.446 0.483-1.309 0.483-2.256v-0.564q0-3.203-3.223-4.995v-0.081h0.081q2.478 0 3.787 3.948l0.081 0.967v1.128q0 1.35-1.45 5.318-0.322 1.108-0.322 2.498 0 0.665 0.161 1.531-0.363 0.242-1.611 0.242-1.994 0-3.948-2.739-0.564-1.269-0.564-2.417zM4.858 14.59q0-2.337 2.256-4.834 0.201-0.524 0.403-0.564 2.901 1.491 2.901 4.593 0 0.423-0.242 1.531h-0.161v-0.161q0-0.806-0.161-2.014-0.101 0-0.403 1.45-0.302 0.645-0.403 0.645l-0.081-0.161q0.242-0.524 0.242-1.128v-0.322q0-0.262-0.161-1.128h-0.081q0 2.256-0.564 2.739h-0.081l0.081-0.564v-0.403q0-0.987-0.161-1.853h-0.081q0 1.732-0.403 2.82h-0.161v-1.289q0-1.652-0.645-2.498-0.544 2.659-1.45 3.384h-0.081q0.564-1.692 0.564-2.337v-0.242q-0.806 1.007-0.806 2.256v0.725h-0.161q-0.161-0.604-0.161-0.645zM5.1 18.941q0-2.457 2.739-3.303 0.765-0.161 1.209-0.161h0.564v0.161q-2.256 0-3.465 1.934-0.242 0.826-0.242 1.611 0 0.987 1.37 2.337h0.242q0-1.068 2.417-5.559v-0.161h0.161v0.081q0 0.443-1.047 2.981-0.725 2.034-0.725 3.545v0.403q0 0.161-0.242 0.161-2.981-1.088-2.981-4.029zM6.228 4.68q0.181-0.806 0.403-0.806h0.081q1.168 0 1.773 1.047 0.705-0.383 1.289-0.403 1.209 0.222 1.209 0.564-0.181 0.645-1.128 1.773 0 0.705-1.047 0.886-0.806-0.161-0.806-0.806 0.322 0 0.886-0.806h0.806q0.806-0.524 0.806-0.967-0.403-0.242-0.806-0.242-1.209 0.121-1.209 1.209h-0.081q-0.443-0.081-0.645-0.081 0-0.181 0.242-0.806-0.222-0.967-1.128-0.967h-0.081q-0.161 0.020-0.161 0.161v0.322q0 0.765 0.886 1.289 0 0.504 0.322 0.806 0 0.564-0.564 0.564h-0.081q-0.806 0-0.806-1.047l0.081-0.564q-0.242-0.765-0.242-1.128zM6.309 15.799q0.483-1.068 0.886-2.417h0.161v1.047q0 1.047-0.483 1.289-0.423 0.161-0.483 0.161 0-0.081-0.081-0.081zM6.389 18.941q0-2.034 2.337-2.82h0.645v0.161q-1.39 2.115-2.095 4.512h-0.081q-0.806-0.987-0.806-1.853zM6.712 6.613h0.161v-0.242q-0.161 0.020-0.161 0.161v0.081zM6.712 4.518l0.242-0.161q0.886 0.262 0.886 0.886v0.242q0 0.121-0.242 0.242h-0.242q-0.645-0.443-0.645-1.209zM6.712 3.632v-0.081q0.201-0.403 0.645-0.403 0.564 0 1.45 0.725 0.403 0 1.209-0.081 1.128 0.222 1.128 0.483v0.403h-0.242q-0.282-0.242-0.967-0.322-0.363 0-1.45 0.322-0.604-1.047-1.773-1.047zM6.792 7.016l0.161 0.081v-0.242q-0.161 0.020-0.161 0.161zM6.873 4.76q0.121 0 0.242-0.242h-0.242v0.242zM6.953 2.826q0.161-0.342 0.161-1.289l-0.081-0.725 0.161-0.081q0.504 1.188 0.886 1.773-0.826 0.403-1.047 0.403 0-0.081-0.081-0.081zM7.114 7.661v-0.081q0.101 0 0.886-0.161 0.141 0.322 0.483 0.322v0.081q-0.081 0.242-0.483 0.242h-0.161q-0.725-0.161-0.725-0.403zM7.195 6.775l0.161 0.081v-0.242q-0.161 0.020-0.161 0.161zM7.437 5.566h0.081q0.161 0 0.161-0.161v-0.081q-0.121 0-0.242 0.242zM7.598 6.21l0.161-0.081q0.645 0.081 0.645 0.242v0.081q0 0.121-0.322 0.322h-0.161q-0.322-0.141-0.322-0.564zM7.678 2.988v-0.081q0.524-0.242 1.128-0.242h0.322q0.906 0 1.773 1.047l-0.161 0.081q-0.262-0.141-0.886-0.242-0.846 0.161-1.047 0.161-0.201-0.403-1.128-0.725zM7.759 8.628v-0.161h0.806q1.229 0 2.417-0.886l1.289 0.806h-0.081q-0.927-0.322-0.967-0.322v0.081q0 0.262 1.692 3.868 0.242 0.806 0.242 1.853v0.483q0 1.773-1.773 5.318-0.806 2.135-0.806 4.109v0.081h-0.161q-0.161-0.604-0.161-1.128v-0.081q0-2.014 1.531-5.962 0.322-1.732 0.322-2.175 0-3.243-2.337-5.076-1.35-0.806-2.014-0.806zM7.84 8.305v-0.161q1.793 0 2.256-1.37 1.289-1.068 1.289-3.384 0.786-1.37 1.209-1.611l0.081 0.161v0.645q0 1.007-1.209 3.868h0.161q0.363 0 1.289-0.161v0.161q-1.692 0.302-1.692 0.483v0.161q0.222 0 1.773 0.322v0.161q-1.652-0.242-2.014-0.242-1.41 0.967-2.498 0.967h-0.645zM8.565 7.097h0.242v-0.161h-0.242v0.161zM8.726 5.727q0-0.463 1.128-0.725l0.483 0.242q-0.322 0.806-1.128 0.806-0.483 0-0.483-0.322zM9.048 7.016h0.242v-0.081q0-0.161-0.161-0.161l-0.081 0.161v0.081zM9.451 5.646l0.161 0.081v-0.081q-0.081-0.161-0.081-0.242h-0.081v0.242zM9.934 5.324q0.020 0.161 0.161 0.161v-0.242h-0.161v0.081zM10.498 2.907q0-0.141 1.45-0.725-0.906 1.37-0.967 1.37z" fill="#000000"></path>
</svg>
