<?xml version="1.0" encoding="utf-8"?>
<!-- Generated by IcoMoon.io -->
<!DOCTYPE svg PUBLIC "-//W3C//DTD SVG 1.1//EN" "http://www.w3.org/Graphics/SVG/1.1/DTD/svg11.dtd">
<svg version="1.1" xmlns="http://www.w3.org/2000/svg" xmlns:xlink="http://www.w3.org/1999/xlink" width="17" height="32" viewBox="0 0 17 32">
<g id="icomoon-ignore">
	<line stroke-width="1" x1="" y1="" x2="" y2="" stroke="#449FDB" opacity=""></line>
</g>
	<path d="M0.727 13.402v-0.177q0.709 0.044 0.709 0.266v0.089q-0.089 0-0.709-0.177zM0.993 10.388v-0.177h0.443q0.177 0.022 0.177 0.177-0.089 0-0.089 0.089zM1.436 17.124v-0.177q0.089 0 0.709-0.177v0.177q-0.665 0.177-0.709 0.177zM1.525 13.579v-0.089q0.022-0.177 0.177-0.177h0.089q0.864 0.177 0.975 0.177 0.177-0.089 0.266-0.089v-0.089h-0.177v-0.177q1.263-0.31 1.772-1.063 0.354-0.576 1.595-1.507 0-0.975 0.886-0.975h0.354q0.332 0 0.798 0.354 0.111-0.354 0.798-0.354h0.266q0.731 0 0.975 1.152 0.31 0 2.216 2.038 0.953 0.354 1.063 0.354v0.177h-0.177v0.089l0.443 0.089q0.576-0.177 0.798-0.177h0.089q0.177 0.022 0.177 0.177v0.089q0 0.199-1.152 0.266-1.307-0.554-2.304-1.772l0.177 0.354h-0.089q-1.086-1.13-1.329-1.152 0 0.332-0.266 0.709-0.288-0.177-0.532-0.177h-0.62v0.089q1.861 0 2.659 1.95 0.731 1.772 1.063 1.861v-0.089q-0.443-0.753-0.443-0.886 0.111 0 0.975 1.063 0 0.111-0.443 0.443-0.532-0.576-1.861-2.925l-0.532-0.443q0 1.241-0.354 1.241 0-0.288-0.886-0.443h-0.177v0.089q0.776 0 1.241 0.798-0.089 1.507-0.443 1.507l-0.532-0.266h-0.177v0.089q0.421 0 0.709 0.443v0.177q0 1.772-1.329 2.216-0.953 0-1.329-1.507-0.111-0.133-0.177-0.886 0.465-0.443 0.709-0.443v-0.089h-0.089q-0.443 0.266-0.709 0.266-0.266-0.576-0.266-1.241v-0.354q0-0.354 1.152-0.709v-0.089h-0.089q-0.089 0-1.152 0.354 0-0.177-0.177-1.063-0.908 0.82-2.038 3.013l-0.354 0.266-0.354-0.443q0.62-0.864 0.886-0.975v0.089l-0.354 0.62v0.089h0.177q1.351-3.013 1.95-3.279 0.82-0.443 1.595-0.443v-0.089h-0.798q-0.288 0.177-0.443 0.177-0.177-0.332-0.177-0.709-0.354 0.066-1.329 1.152h-0.089v-0.089l0.089-0.177h-0.089q-0.731 1.063-2.127 1.684-1.152-0.044-1.152-0.266zM1.613 10.477l0.089-0.177 0.62 0.089h0.62q1.617-0.554 3.013-1.329h0.354l0.177 0.089q0.089-0.089 0.177-1.063-0.443-0.266-1.241-0.354h-0.089v0.089h0.177v0.177q-0.399 0-0.532 0.089-1.063-0.089-1.063-0.177-0.177 0.089-0.266 0.089-0.532-0.199-1.063-0.709v-0.089h0.089q1.241 0.332 1.241 0.62 0-0.155 2.038-0.354 0.776 0.089 0.886 0.089 0.266-0.798 1.063-0.798l0.266 0.354q0 0.133-0.177 1.418l0.089 0.443h0.089q0.199 0 0.266-0.443-0.177-1.019-0.177-1.418v-0.089q0-0.199 0.443-0.266 0.532 0 0.886 0.798l0.886-0.089h0.089q1.285 0.177 1.418 0.177 0.642 0 1.772-0.443v0.089q-0.709 0.709-1.152 0.709-0.089-0.177-0.089-0.266h-0.089v0.266h-0.443l-0.532 0.089q-0.133-0.089-0.532-0.089v-0.177h0.177v-0.089h-0.089q-0.642 0-1.329 0.443 0.177 0.465 0.177 0.975l0.443-0.089q0.288 0 1.507 0.709l1.684 0.62h0.709l0.443-0.089 0.089 0.177v0.177q-0.931 0.177-0.975 0.177-0.332-0.199-1.684-0.443l-0.089-0.177h0.177l0.177 0.089h0.089v-0.089q-2.105-0.709-2.304-0.709l-0.354 0.089q-0.443-0.177-0.709-0.177-0.554 0.177-0.709 0.177-0.089-0.177-0.089-0.266-0.177 0-0.177 0.266-0.798-0.177-0.886-0.177l-0.62 0.177-0.443-0.089-1.684 0.532 0.089 0.177v0.089q-1.329 0.31-1.861 0.532-1.063-0.111-1.063-0.354zM1.968 7.287v-0.177h0.532v0.177h-0.532zM2.322 16.769q0.177-0.288 0.975-0.798 0.177 0.022 0.177 0.177v0.177q0 0.199-1.063 0.62zM2.943 3.919v-0.354q0-0.532 0.532-0.886h0.089q-0.354 0.465-0.354 0.798v0.266l0.089 0.443h0.089l-0.089-0.443q0.31-1.418 1.241-1.418l0.975 0.62q0.111-0.111 1.241-0.177-0.266 0.443-1.152 0.443-0.642 0-1.241-0.443h-0.089q-0.62 0.399-0.62 0.886v0.089q0 0.332 0.443 0.798-0.177 0.288-0.177 0.532h-0.177q-0.798-0.598-0.798-1.152zM3.918 5.16q0.177-0.532 0.266-0.532 0.465 0.266 2.216 0.798v0.177h-0.266q-0.377 0-1.241-0.354h-0.089v0.089q0.908 0.443 2.304 0.443l0.177 0.266v0.266q-0.133 0-0.354 0.177h-0.177q-0.421-0.51-1.772-0.709zM3.918 2.324v-0.177q0.62-0.886 2.127-0.886h0.354q1.329 0.089 1.329 0.354h-0.62q-0.532 0-1.95 0.886h-0.266q-0.177 0-0.177-0.177v-0.089h0.089q0.089 0 0.089 0.089 0.62-0.266 0.886-0.709h-0.177q-0.709 0-1.063 0.532zM4.006 10.3h0.089q0.177-0.089 0.266-0.089v-0.089h-0.089q-0.177 0.089-0.266 0.089v0.089zM5.070 31.304v-0.266q0-0.82 1.152-1.861-0.62 0.443-0.798 0.443v-0.089q0-0.62 1.152-1.95 0-0.111-0.089-0.886 0.443-0.975 0.443-1.329-0.089-0.155-0.089-0.354h0.177l0.177 0.62v0.089q0 0.288-0.177 1.241l0.177 0.089q0.31-1.684 0.62-1.684v0.886q0 0.354-0.62 1.684 0.089 0.908 0.089 1.418 0 0.731-1.772 1.507-0.266 0.288-0.266 0.443h-0.177zM6.665 12.958l0.532-0.089q0.332 0 1.063 0.266 0.443-0.266 1.152-0.266 0.089 0 0.266 0.089h0.089v-0.089q-0.576-0.177-0.798-0.177t-0.798 0.177q-0.332-0.177-0.709-0.177-0.222 0-0.798 0.177v0.089zM6.665 10.743q1.241 0 1.507 0.354 0.443-0.354 1.507-0.354 0-0.199-0.62-0.266-0.111 0-0.975 0.354 0-0.244-0.886-0.354-0.354 0.177-0.532 0.177v0.089zM6.931 24.48v-0.089q0.443-1.13 0.443-1.507 0.177 0 0.266 0.62-0.089 0.465-0.089 0.886v0.089h-0.177v-0.354q-0.177 0-0.266 0.532 0.089 0.177 0.089 0.266h-0.177zM6.931 6.755q0.155-0.443 0.532-0.443v-0.089l-0.089-0.177q0.066 0 0.443-0.443 0.354 0.177 0.354 0.266 0.266 0 0.266-0.266h0.177q0.576 0.886 0.709 0.886l0.089 0.177v0.089q0 0.177-0.177 0.177 0-0.199-0.443-0.266l-0.532 0.089q-0.487-0.089-0.709-0.089l-0.443 0.266q-0.177 0-0.177-0.177zM7.019 9.148h0.266v-1.063l0.089-0.532v-0.089h-0.089q-0.266 1.041-0.266 1.684zM7.108 14.82l0.443-0.089q0.62 0.111 0.62 0.266 0.487-0.266 0.798-0.266 0.177 0.089 0.266 0.089h0.089v-0.089q-0.554-0.177-0.709-0.177l-0.443 0.177q-0.288-0.177-0.443-0.177l-0.62 0.177v0.089zM7.285 22.175q0-0.665 0.266-0.709 0.133 0 0.532 0.532v0.089h-0.089l-0.266-0.177h-0.089v0.266l0.266 1.241h-0.177q-0.443-1.152-0.443-1.241zM7.463 25.277q0.62-0.731 0.62-2.127l0.177-0.089v0.089l-0.089 0.443q0.089 0.598 0.089 0.975-0.155 0.399-0.62 0.709h-0.177zM7.463 20.58q0-0.111 0.266-0.709-0.177-0.576-0.177-0.798v-0.089l0.177-0.266q0.089 0.089 1.063 0.177 0 0.399-0.532 0.975 0.133 0 0.266 0.266v0.532q0 0.465-0.266 0.532h-0.089l0.089-0.62-0.177-0.089h-0.089q-0.177 0.022-0.177 0.177v0.354l0.089 0.443h-0.089q-0.244 0-0.354-0.886zM7.463 16.769q0.244 1.329 0.886 1.329 0.532-0.665 0.532-1.329v-0.177q-0.044-0.222-0.62-0.443-0.798 0.133-0.798 0.62zM8.172 22.796v-0.089q0.177-0.288 0.177-0.532v-0.177l-0.177-0.62 0.177-0.089h0.089q0.177 0 0.266 0.532-0.199 0.975-0.532 0.975zM8.703 1.615q0-0.288 1.418-0.354h0.354q1.64 0 2.038 1.063h-0.089q-0.288 0-1.329-0.709h-0.532v0.089q0.111 0 0.886 0.62 0.177-0.089 0.266-0.089v0.089q0 0.177-0.177 0.177h-0.177q-0.155 0-1.772-0.886h-0.886zM9.058 9.148h0.354q0-0.354-0.266-1.595h-0.089v0.089q0.089 0.487 0.089 0.798v0.532zM9.146 6.223v-0.177q0-0.377 1.95-0.443 0.022-0.177 0.532-0.266v-0.089h-0.089q-0.82 0.354-1.507 0.354v-0.089q0-0.133 2.216-0.886l0.266 0.62-3.102 1.241q-0.133 0-0.266-0.266zM9.59 2.767h0.177q0.975 0.044 0.975 0.177 1.196-0.62 1.418-0.62 0.975 0.776 0.975 1.329l-0.089 0.443v0.089h0.089l0.089-0.62v-0.089q0-0.332-0.354-0.798h0.089q0.532 0.354 0.532 1.063v0.089q-0.399 1.241-0.886 1.241-0.266-0.332-0.266-0.62 0.266 0 0.443-0.798 0-0.51-0.798-0.975 0 0.354-1.152 0.532h-0.177q-0.687 0-1.063-0.443zM12.869 16.238q0-0.133 0.266-0.266 0.975 0.709 0.975 0.798l-0.089 0.177q-1.152-0.443-1.152-0.709zM13.843 7.287q0.022-0.177 0.177-0.177h0.443v0.177h-0.62zM14.287 16.858v-0.089q0.62 0.177 0.709 0.177v0.177q-0.709-0.089-0.709-0.266zM14.818 10.3l0.177-0.089h0.443v0.177l-0.532 0.089zM14.996 13.402q0.443-0.177 0.62-0.177v0.177l-0.532 0.177z" fill="#000000"></path>
</svg>
