<?xml version="1.0" encoding="utf-8"?>
<!-- Generated by IcoMoon.io -->
<!DOCTYPE svg PUBLIC "-//W3C//DTD SVG 1.1//EN" "http://www.w3.org/Graphics/SVG/1.1/DTD/svg11.dtd">
<svg version="1.1" xmlns="http://www.w3.org/2000/svg" xmlns:xlink="http://www.w3.org/1999/xlink" width="22" height="32" viewBox="0 0 22 32">
<g id="icomoon-ignore">
	<line stroke-width="1" x1="" y1="" x2="" y2="" stroke="#449FDB" opacity=""></line>
</g>
	<path d="M0.5 21.219q0.172-0.625 3.5-1.875l0.188 0.25q-1.5 1.328-3.5 1.75h-0.125zM1.375 21.344q1.203-0.359 3.063-1.75 0.375 0.063 0.375 0.188-1.328 1.25-2.625 1.625l-0.563 0.125q-0.25-0.094-0.25-0.188zM1.563 20.031q1.375-1 2.5-1.688l0.063 0.125q0 0.875-0.563 0.875l-1.938 0.813zM1.813 15.969v-0.25q0.766-0.891 2.25-1.813 1-0.5 1.063-0.5 0.063 0.125 0.063 0.188-0.063 0.234-1.688 1.188l-1.5 1.313h-0.063q-0.125 0-0.125-0.125zM1.875 16.656q0.75-1.016 2.75-2.563l0.563-0.188q0.125 0.016 0.125 0.125v0.063q-2.156 1.578-3.125 3.125-0.125 0-0.313-0.563zM1.938 14.906q0.281-0.734 1.125-1.25 1.609-0.875 2.063-0.875l0.125 0.188v0.063q0 0.063-3.25 1.938 0-0.063-0.063-0.063zM2 21.656v-0.063q1.391-0.234 3.188-2.063-0.25 0-0.25-0.125 0.75-0.813 1.875-1.438l0.063 0.125q0 0.141-1.563 1.375v0.063h0.313v0.125q-1.203 1.563-3.25 2.25h-0.063q-0.281-0.125-0.313-0.25zM2.25 13.844v-0.063q0-0.609 2.875-1.688l0.063 0.125v0.25q-0.016 0.156-1.438 0.625-0.016 0.078-1.5 0.75zM2.375 17.344q0.594-1.313 2.938-3.063 0 0.063 0.063 0.063 0 0.484-0.938 1.188-0.844 0.969-1.5 2.125h-0.125q-0.438 0-0.438-0.313zM2.563 10.094v-0.063l0.063-0.125q3.313 0.172 3.313 0.375v0.125q0 0.094-0.188 0.188h-0.125q-3.063 0-3.063-0.5zM2.625 11.281v-0.063l0.063-0.125q1.609 0.188 2.688 0.188l0.125 0.188-0.25 0.25h-1.75q-0.563 0-0.875-0.438zM2.625 10.656l0.063-0.125q2.938 0.172 2.938 0.313v0.063q-0.063 0.25-0.25 0.25-2.75 0-2.75-0.5zM2.688 12.656q0-0.516 0.75-0.875 0.688 0.063 1.188 0.063h0.5v0.063q-0.406 0.281-2.375 0.938-0.063-0.125-0.063-0.188zM3.063 21.844q1.359-0.656 2.563-2 0.219-0.438 0.688-0.438 0 0.063 0.063 0.063-0.578 1.484-2.875 2.688-0.406-0.156-0.438-0.313zM3.25 17.656q0.578-1.297 2-2.688h0.25q0.094 0 0.188 0.188v0.188q-1.078 1.141-1.5 2.375-0.234 0.125-0.5 0.125h-0.25q-0.094 0-0.188-0.188zM3.563 8.906l0.063-0.125q1.859 0.344 2.5 1.063l-0.125 0.188q-1.938-0.141-1.938-0.563zM4.125 19.281q1.578-1.344 2.5-1.625h0.125v0.125l-2.25 1.688h-0.188q-0.094 0-0.188-0.188zM4.313 18.844v-0.25q0-0.797 1.313-1.125 0.422 0 1.188-0.313l0.063 0.125q0 0.094-1.938 1.125 0 0.047-0.563 0.438h-0.063zM4.5 17.469q0.266-0.891 1.125-1.813h0.063q0.125 0 0.125 0.188l-1 1.75h-0.188q-0.125 0-0.125-0.125zM4.563 21.719q1.938-1.391 1.938-2.375 0.203-0.125 0.375-0.125h0.125v0.313q-0.672 1.859-2.063 2.688h-0.063q-0.313-0.156-0.313-0.5zM4.875 7.969l0.125-0.063q0.953 1.016 1.938 1.313v0.188q0 0.188-0.688 0.313-1.375-0.797-1.375-1.75zM5.25 17.281q0.313-1.016 0.813-1.438 0.438 0.063 0.438 0.188v0.125q-0.688 0.875-1.125 1.125h-0.125zM5.25 12.531q0-0.094 0.25-0.25l2.063 0.938q0 0.219 0.063 0.563-0.063 0-0.063 0.063-2.25-0.656-2.25-1-0.063-0.109-0.063-0.313zM5.313 13.531q0.094-0.25 0.188-0.25 2.031 0.703 2.25 0.938v0.188q-0.125 0.063-0.188 0.063-2.25-0.156-2.25-0.938zM5.438 11.969v-0.313q0-0.156 0.25-0.188 1.531 0.609 1.938 0.938v0.438q0 0.125-0.125 0.125h-0.125q-1.938-0.797-1.938-1zM5.5 14.719v-0.188q0-0.156 0.25-0.188 1.016 0.25 1.438 0.25h0.438q0.109 0 0.188 0.313-0.234 0.188-0.438 0.188h-0.5q-1.375-0.094-1.375-0.375zM5.625 17.281q0.453-0.375 1.25-1.375h0.375q0.125 0.016 0.125 0.125-0.125 0.063-0.188 0.063v0.063h0.063q0.25-0.125 0.438-0.125l0.063 0.125q-0.281 0.094-0.625 0.688-0.125 0-0.125-0.5-0.125 0-0.188 0.688-0.156 0.188-1.125 0.375zM5.688 11.094v-0.063l0.125-0.438h0.125q0.297 0 1.875 1.063 0 0.5-0.25 0.5-1.75-0.844-1.875-1.063zM5.75 15.469v-0.188l0.063-0.125q0.859 0.063 1.063 0.063 0.781-0.063 0.938-0.063 0.188 0.234 0.188 0.438-0.484 0.188-0.625 0.188h-0.875q-0.75-0.109-0.75-0.313zM5.875 19.219q0.016-0.109 1-0.938h0.125q0.188 0 0.188 0.25l0.125-0.063h0.188q0.125 0.016 0.125 0.125-0.453 0.5-0.688 0.5-0.063-0.125-0.063-0.188-0.422 0.438-0.875 0.438-0.125 0-0.125-0.125zM5.938 21.844v-0.063q1.156-1.453 1.25-2.75h0.125q0.141 0 0.25 0.625 0.547 0.063 0.625 0.063 0.406 0 0.625-0.5h0.125v0.063q0 0.219-0.5 0.5v0.063q0.672 2.563 0.938 2.563v-0.125q0.109 0 0.188 0.375l0.125-0.063h0.063q0 0.375 0.5 0.563h0.063l0.125-0.438-0.188 0.125-0.063-0.125q0.125 0 0.125-0.125l-0.313-0.5v-0.063h0.125q0.156 0.547 1.938 1.875 0.172 0.094 1.313 0.188 0.188 0.203 0.188 0.375l0.125-0.063q0.188 0.063 0.188 0.375v0.188q0 0.125-0.125 0.125-0.313-0.281-0.313-0.438l-0.125 0.063h-0.188q-0.266 0-0.688 0.063-0.313-0.125-0.5-0.125-0.313 0.438-0.688 0.438h-0.75q-0.391 0.5-0.438 0.5l-0.063-0.125q0.109-0.563 0.25-0.563l0.125 0.063v-0.063q-0.063-0.125-0.063-0.188 0.234-0.125 0.5-0.125v-0.063q-0.688 0-0.688-0.375v-0.063l0.125-0.063h0.375v-0.125q-0.266-0.297-1.313-0.813-0.797-0.484-1.188-2.063-0.375-1.156-0.375-1.25h-0.313q0 0.906-1.063 2.313h-0.125q-0.313-0.172-0.313-0.25zM6.125 10.344q0-0.406 0.563-0.625 0.172 0 0.75 0.938v-0.063l-0.438-0.938q0.219-0.438 0.563-0.438 0.688 1.406 0.688 1.75-0.219 0.438-0.313 0.438-0.125 0-0.125-0.125-0.125 0.063-0.188 0.063-1.063-0.578-1.5-1zM6.188 8.406v-0.938h0.125q0 0.219 1.188 1.625-0.203 0.125-0.375 0.125h-0.063q-0.875-0.438-0.875-0.813zM6.813 17.656q0-0.438 0.688-0.563l0.125 0.188q-0.297 0.109-0.625 0.5h-0.063q-0.125 0-0.125-0.125zM7.063 17.906h0.063q0.938 0.203 0.938 0.313l-0.438 0.188q-0.563-0.078-0.563-0.5zM7.25 8.281q0-0.547 0.5-0.875h0.125v0.188l0.125 1.125q-0.125 0.281-0.25 0.313-0.313 0-0.5-0.75zM7.313 17.594l0.25-0.188q0.344 0 0.5 0.313l-0.125 0.063h-0.438q-0.094 0-0.188-0.188zM7.375 16.781v-0.125q0.016-0.125 0.125-0.125h0.063q0.094 0 0.25 0.25 0 0.125-0.125 0.125h-0.188q-0.125 0-0.125-0.125zM7.688 13.656q0.063-1.188 0.25-1.438l-0.063-0.125 0.5-1.125q0.219-0.234 0.75-0.313v-0.063q-0.406 0-0.563-1.5 0.109-1 0.313-1h0.063q0.438 1.875 0.438 2.188v0.125q0.266 0 1-0.313 0.125 0.016 0.125 0.125-0.422 0.438-0.938 0.438l-0.875 0.625q0 0.5-0.375 0.75 0 0.438-0.125 0.563v0.313q0 0.141 0.063 0.25-0.125 0.25-0.125 0.438 0 0.547 0.813 0.625l-0.063-0.125 0.125-0.063h0.25q0.094 0 0.188 0.188 0 0.125-0.125 0.125l-0.313-0.063 0.125 0.188v0.125h-0.188q-0.625 0-0.625 0.563 0 0.25-0.125 0.25-0.297-0.391-0.313-0.5 0-0.047 0.063-0.375l-0.063-0.25q0.063-0.109 0.063-0.313-0.094 0-0.25-0.313zM7.813 16.406v-0.063q0-0.094 0.188-0.188 0.094 0 0.188 0.188 0 0.141-0.313 0.188zM7.875 9.156v-0.125q0-0.094 0.438-0.438 0.125 0 0.375 1.938-0.094 0.25-0.188 0.25h-0.063q-0.563-0.906-0.563-1.625zM8.063 17.906l0.125-0.063h0.063q0.125 0.016 0.125 0.125 0 0.125-0.125 0.125-0.094 0-0.188-0.188zM8.25 18.469l0.063-0.125q0.313 0.078 0.313 0.188 0 0.125-0.125 0.125h-0.063q-0.094 0-0.188-0.188zM8.25 13.531q0.016-0.125 0.125-0.125h0.188q0.344 0 0.438 0.25 0 0.125-0.125 0.125h-0.063q-0.484 0-0.563-0.25zM8.313 12.844q0.016-0.125 0.125-0.125h0.063q0.344 0 0.438 0.25 0 0.125-0.125 0.125-0.344 0-0.5-0.25zM8.5 14.906q0.063-0.188 0.375-0.188h0.063q0.094 0 0.188 0.188 0 0.094-0.25 0.188-0.375-0.063-0.375-0.188zM8.5 12.094q0.016-0.125 0.125-0.125 0.391 0.125 0.438 0.313 0 0.125-0.188 0.125-0.25-0.094-0.375-0.313zM8.688 11.469q0.094-0.313 0.438-0.313 0.094 0.281 0.25 0.5v0.188h-0.063q-0.609-0.234-0.625-0.375zM9.063 7.969l0.25-0.188q0.172 0.016 0.688 2.375l-0.125 0.063h-0.188q-0.203 0-0.625-2.25zM9.375 14.781l0.125-0.063h0.25q0.125 0.016 0.125 0.125 0 0.125-0.125 0.125h-0.188q-0.094 0-0.188-0.188zM9.5 11.031v-0.063q0.125-0.25 0.375-0.25 0.125 0.281 0.125 0.563h-0.063q-0.328 0-0.438-0.25zM9.563 14.344v-0.125h0.313q0.125 0.016 0.125 0.125 0 0.125-0.125 0.125h-0.188q-0.125 0-0.125-0.125zM9.625 8.094v-0.188q0.125-0.563 0.313-0.563 0.469 0 0.813 1.875v0.063l-0.375 0.625h-0.125q-0.25-0.219-0.625-1.813zM9.688 22.281v-0.188h0.188v0.063q0 0.125-0.125 0.125h-0.063zM9.75 24.656q0.109-0.5 0.25-0.5 0.125 0.016 0.125 0.125v0.063q0 0.344-0.313 0.5-0.063-0.125-0.063-0.188zM9.813 21.594v-0.563h0.125v0.563h-0.125zM9.813 20.781v-0.313q0.016-0.125 0.125-0.125v0.438h-0.125zM10.188 19.531q0.125-0.406 0.125-0.625h-0.125v-0.125h0.313l0.438-0.063q-0.563 0.406-0.563 0.5l0.125 0.063q1.125-0.234 1.125-0.5h-0.125v-0.125q0.016-0.125 0.125-0.125 0.063 0 0.063 0.063 0.109-0.063 0.25-0.063v-0.125h-0.188v-0.25q0-0.094 0.188-0.188 0.031 0.375 0.375 0.375v-0.25h-0.188v-0.188q0.016-0.125 0.125-0.125 0 0.063 0.063 0.063v-0.063q0-0.063-0.063-0.188 0-0.125 0.125-0.438-0.063-0.109-0.063-0.25 0.375-0.172 0.375-0.25h-0.125q-0.234 0.188-0.438 0.188l-0.063-0.125q0.313-0.172 0.313-0.25h-0.125q-0.234 0-0.313 0.563h-0.063q-0.078-0.563-0.188-0.563-0.125 0.016-0.125 0.125-0.125-0.063-0.188-0.063v-0.188l0.063-0.125q-0.125 0-0.125-0.125v-0.063l0.438-0.25q-0.25 0-0.25-0.25 0.063-0.188 0.125-0.188-0.016-0.109-0.313-0.5l0.125-0.063q-0.063-0.125-0.063-0.188t0.063-0.188l-0.063-0.25 0.063-0.313-0.063-0.125 0.125-0.438q-0.063-0.125-0.063-0.188 0.063-0.125 0.063-0.188-0.125 0-0.125-0.125l0.25-0.188q-0.063-0.125-0.063-0.188l0.063-0.25q-0.063-0.109-0.063-0.25 0.125 0 0.125-0.188l-0.063-0.313 0.188-0.125-0.188-0.313 0.375-0.25q0-0.688 0.625-0.688h0.063q0.375 0.031 0.375 0.188v0.063q-1.188 0.813-1.188 1.5-0.25 0.938-0.313 2.75 0 0.875 0.75 0.875h0.375q0.141 0.109 0.688 0.188v0.063l-0.25 0.125v-0.125h-0.813v0.188h-0.375v0.063q0.25 0 0.25 0.25h0.063q0-0.25 0.125-0.25h0.063q0.125 0.016 0.125 0.125l-0.125 0.188v0.063q1.188 0.063 1.188 0.188 0-0.25 0.125-0.25 0.156 0.125 0.313 0.125v0.188q-0.156 0-0.313 0.125l-0.125-0.063-0.063 0.125-0.313-0.063q-0.344 0-0.563 0.375l0.125 0.188q0 0.125-0.125 0.125t-0.125-0.188h-0.125v0.188q0.016 0.125 0.125 0.125h0.188l0.063 0.375-0.125 0.063-0.313-0.063v0.188l0.125-0.063h0.063q0.094 0 0.188 0.188-1.578 1.313-2.438 1.313 0 0.063-0.063 0.063h-0.063zM10.188 13.969l0.125-0.063h0.063q0.125 0.016 0.125 0.125l-0.063 0.125q-0.25-0.094-0.25-0.188zM10.313 13.656q0.281-0.25 0.313-0.25h0.125q0.125 0.016 0.125 0.125v0.063q0 0.078-0.313 0.25h-0.063q-0.094 0-0.188-0.188zM10.313 10.594v-0.063h0.063q0.109 0 0.375 0.438 0 0.125-0.125 0.125-0.313-0.156-0.313-0.5zM10.438 23.156h0.188v-0.188h-0.063q-0.125 0.016-0.125 0.125v0.063zM10.438 7.281v-0.375q0.016-0.125 0.125-0.125h0.063q0.359 0 0.75 1.875l0.063 0.25v0.188q0.234 0 0.563 0.438v0.25h-0.063q-0.641-0.688-1-0.688-0.5-1.297-0.5-1.813zM10.563 9.906q0-0.359 0.438-0.688l0.063 0.125q-0.156 0.359-0.25 1.188h-0.063q-0.125-0.219-0.188-0.625zM11 23.594q0.125 0 0.125-0.125v-0.063h-0.125v0.188zM11 17.219h0.188q0 0.125-0.125 0.125zM11 10.156v-0.25q0.047-0.375 0.188-0.375l0.063 0.125v0.563q0 0.125-0.125 0.125zM11.063 16.594l0.125-0.063h0.063v0.188h-0.063q-0.125 0-0.125-0.125zM11.063 16.406v-0.188h0.063q0.125 0.016 0.125 0.125l-0.125 0.063h-0.063zM11.125 16.969v-0.063h0.063q0.125 0.016 0.125 0.125l-0.125 0.063zM11.125 15.844l0.125-0.063h0.063v0.188h-0.063q-0.125 0-0.125-0.125zM11.125 11.281l0.125-0.063 0.063 0.125v0.063h-0.063q-0.125 0-0.125-0.125zM11.188 10.906q0.016-0.125 0.125-0.125h0.063q0.125 0.016 0.125 0.125v0.188h-0.125q-0.094 0-0.188-0.188zM11.188 7.281v-0.063q0.188-1.375 0.313-1.375 0.25 0 0.5 0.938 0 0.219-0.125 1.063 0.063 0.438 0.063 0.75l-0.25 0.188h-0.063q-0.203-0.078-0.438-1.5zM11.25 24.844l0.125 0.063h0.063q0.094 0 0.188-0.188h-0.25q-0.125 0.016-0.125 0.125zM11.25 17.594q0.094-0.25 0.188-0.25 0 0.094 0.188 0.188 0.125 0 0.125-0.125 0.313 0.078 0.313 0.188v0.063l-0.063 0.125q-0.75-0.047-0.75-0.188zM11.313 24.469h0.188v-0.125h-0.063q-0.125 0.016-0.125 0.125zM11.313 18.344l0.188-0.125h0.125v0.125q0 0.125-0.125 0.125h-0.063q-0.125 0-0.125-0.125zM11.313 10.531l0.125-0.063h0.063v0.188h-0.063q-0.125 0-0.125-0.125zM11.313 9.594l0.125-0.063h0.063q0.188 0 0.438 0.688l-0.125 0.063q-0.5-0.375-0.5-0.688zM11.375 16.781v-0.063h0.25v0.063q0 0.125-0.125 0.125t-0.125-0.125zM11.375 10.344v-0.188h0.063q0.125 0.016 0.125 0.125l-0.125 0.063h-0.063zM11.438 17.969v-0.125h0.188q0.125 0.016 0.125 0.125 0 0.125-0.125 0.125h-0.063q-0.125 0-0.125-0.125zM11.438 17.156q0-0.094 0.188-0.188h0.188v0.25q0 0.125-0.125 0.125h-0.063q-0.094 0-0.188-0.188zM11.688 24.531h0.125v-0.188q-0.125 0.016-0.125 0.125v0.063zM11.688 16.281q0.234 0 0.375 0.125 0-0.141 0.063-0.25h-0.125l-0.313 0.063v0.063zM11.688 10.469q0.016-0.125 0.125-0.125h0.063q0.125 0.016 0.125 0.125 0 0.125-0.125 0.125h-0.063q-0.125 0-0.125-0.125zM11.75 8.969q0.313-0.563 0.688-0.563l0.063 0.125q-0.047 0-0.625 0.625-0.125 0-0.125-0.188zM11.813 15.656q0.094 0 0.188-0.188h-0.063q-0.125 0.016-0.125 0.125v0.063zM11.938 17.344v-0.125q0.016-0.125 0.125-0.125h0.063l0.125 0.063q-0.078 0.313-0.188 0.313-0.125 0-0.125-0.125zM12.063 23.719q0.688-0.438 0.938-0.438 0.125 0.016 0.125 0.125v0.188q-0.219 0.375-0.563 0.375-0.5-0.063-0.5-0.25zM12.063 8.156q0-0.688 0.313-2.938v-0.125q0.016-0.125 0.125-0.125h0.063l0.375 0.438q0.125 0.406 0.125 0.563v0.313l-0.063 0.625h-0.188v-0.063q0-0.266-0.125-1.5h-0.063v0.25q0.125 0.859 0.125 1.563 0 0.563-0.125 0.938 0.063 0 0.063 0.063l0.125-0.063h0.063q0.125 0.016 0.125 0.125-0.063 0.188-0.375 0.188-0.063-0.125-0.063-0.188h-0.125l-0.188 0.125h-0.063q-0.125 0-0.125-0.188zM12.125 9.219v-0.125q0.563-0.625 0.938-0.625 0 0.063 0.063 0.063-0.594 1.375-0.75 1.375-0.125-0.5-0.25-0.688zM12.438 24.594h0.188q0-0.125-0.125-0.125zM12.438 17.594q0.016 0.125 0.125 0.125h0.063v-0.125h-0.188zM12.688 15.969v-0.188h0.188v0.188h-0.188zM12.688 9.844q0-0.188 0.688-1.438 0-0.156-0.25-0.188v-0.188l0.063-0.125h-0.063q-0.125 0.063-0.188 0.063l-0.063-0.125v-0.063q0-0.484 0.5-1.688 0.25-1.5 0.25-1.813h0.125q0.063 0.234 0.125 1.313l-0.063 0.125 0.063 0.125q0 0.063-0.063 0.063 0 0.063 0.063 0.188 0 0.438-0.5 1.688 0.313 0 0.313 0.125-0.203 0.125-0.313 0.125 0 0.094 0.25 0.25h0.188v-0.063q-0.063-0.125-0.063-0.188 0.25-0.125 0.438-0.125 0.125 0.063 0.188 0.063v0.063q-0.359 0.625-1 1.375h0.063q1.109-1.25 1.25-1.25 0.438 0.078 0.438 0.25v0.063q-1.063 1.078-2 1.375l-0.125-0.063q-0.109 0.063-0.25 0.063h-0.063zM12.75 18.094q0-0.094 0.188-0.188 0.125 0.016 0.125 0.125l-0.125 0.063h-0.188zM12.875 17.344q0.016-0.125 0.125-0.125 0.125 0.016 0.125 0.125 0 0.125-0.125 0.125t-0.125-0.125zM12.938 17.594l0.125-0.063 0.063 0.125-0.125 0.063zM13.188 23.531v-0.125q0.016-0.125 0.125-0.125 0.094 0 0.25 0.25v0.25q0 0.125-0.125 0.125 0-0.063-0.25-0.375zM13.188 10.156v-0.125q1.297-0.688 1.75-1.188l0.313-0.063q0.125 0.203 0.125 0.375v0.063q0 0.156-2.125 1.063zM13.438 17.906v-0.125q0.375-0.188 0.438-0.188v0.063q0 0.125-0.438 0.25zM13.438 15.719q0.016-0.125 0.125-0.125h0.063v0.125h-0.188zM13.563 7.531q0.359-0.828 1.625-2.563 0.219-0.719 0.375-0.75h0.063q-0.25 0.938-0.25 1v0.063h0.063l0.313-1.125h0.188q-0.359 1.813-0.625 1.813l-0.063-0.125 0.063-0.313v-0.125h-0.063q0 0.438-1.063 1.563-0.219 0.625-0.563 0.625 0-0.063-0.063-0.063zM13.875 4.219h0.063q0.172 0 0.25 1.5-0.063 0.344-0.063 0.688h-0.063q-0.125 0-0.125-0.125v-0.375q0-0.531-0.063-1.688zM13.938 7.781v-0.063q0-0.156 0.5-0.25 0.438 0 0.438 0.375-0.063 0-0.063 0.063-0.203-0.125-0.375-0.125h-0.5zM14 17.594v-0.063q0.063-0.109 0.063-0.25h0.188v0.063q0 0.094-0.25 0.25zM14 16.781q0.125-0.203 0.125-0.375v-0.188h0.188v0.25l0.125-0.063q-0.078-0.297-0.25-0.5h0.063q0.938 0.641 0.938 1.125-0.125 0.375-0.25 0.375-0.141-0.266-0.313-0.313l-0.313 0.063q-0.313-0.281-0.313-0.375zM14.188 7.281q0.641-1.25 1.313-1.25 1.469-1.797 1.625-1.875h0.063v0.063q-1.453 2.375-1.813 2.375-0.25 0-1.125 0.813zM14.438 16.719h0.125q0.125 0 0.125-0.125v-0.125h-0.063q-0.094 0-0.188 0.188v0.063zM14.688 7.281v-0.063q0.047-0.313 2-0.875 1.281-0.938 2.375-2.188h0.125v0.063q-0.703 1.281-2.188 2.563h-0.375q-0.469 0-1.688 0.5h-0.25zM14.938 7.594q0.125 0 0.125-0.125 0.5 0.078 0.5 0.25l-0.063 0.125q-0.563-0.094-0.563-0.25zM15.188 8.094l0.125-0.063q0.5 0.266 0.5 0.875h0.063q0.063-0.344 0.063-0.5l-0.25-0.438 0.063-0.125q0.5 0.219 0.5 0.688 0 0.328-0.313 0.5l-0.125-0.063q0 0.094-0.188 0.188h-0.125v-0.375q0-0.234-0.313-0.688zM15.375 7.281q0.953-0.438 1.5-0.438 0.391 0.063 0.875 0.063 1.906-1.109 2.25-1.875 0.031 0 0.75-0.75h0.063v0.063q-1.219 2.219-3 3-1.078 0-1.938 0.25-0.5-0.219-0.5-0.313zM15.938 6.344q0.813-1.344 1.25-1.75l0.063 0.125q-0.516 1.688-1.125 1.688h-0.063zM16.125 7.844v-0.188q1.828-0.203 2.313-0.313 0.094-0.219 1.5-1.5 0.75-1.063 0.813-1.063 0 0.063 0.063 0.063-0.438 1.156-2.125 2.438h0.063l3-1.25v0.063q-0.188 0.406-2.188 1.188v0.063h0.063q0.297-0.063 2-0.875l0.063 0.125q-1.594 1.156-5.375 2.313l-0.063-0.125q0-0.422 1.438-0.688 1.484-0.531 1.5-0.625h-0.063q-2.188 0.813-2.688 0.813zM17.375 6.781v-0.125q0.641-0.641 2.063-2.5h0.063v0.063q-0.688 1.469-1.813 2.563h-0.313zM19.25 7.469h0.063q0.125-0.063 0.188-0.063v-0.063h-0.188z" fill="#000000"></path>
</svg>
