<?xml version="1.0" encoding="utf-8"?>
<!-- Generated by IcoMoon.io -->
<!DOCTYPE svg PUBLIC "-//W3C//DTD SVG 1.1//EN" "http://www.w3.org/Graphics/SVG/1.1/DTD/svg11.dtd">
<svg version="1.1" xmlns="http://www.w3.org/2000/svg" xmlns:xlink="http://www.w3.org/1999/xlink" width="22" height="32" viewBox="0 0 22 32">
<g id="icomoon-ignore">
	<line stroke-width="1" x1="" y1="" x2="" y2="" stroke="#449FDB" opacity=""></line>
</g>
	<path d="M0.651 11.516q0.065 0 0.065-0.065 0.323 0.194 0.516 0.194h0.065q0.71 0 0.71-1.548v-0.129q0-0.145-0.065-0.258 0.081-0.452 0.194-0.452l0.194 0.839h0.065v-0.839q0-1.274 1.419-1.806h0.065q1.806 0.29 1.806 0.71l-0.065 0.129q-0.242-0.129-0.516-0.129h-0.065q-1.177 0-1.742 0.839h0.129q0-0.371 1.613-0.645 1.242 0 2.258 1.548 0-0.452 0.129-0.452 0.129 0.161 0.129 0.258h0.258q-0.065-0.645-0.065-0.968v-0.645q0-0.177 0.258-0.903-0.29 0-0.71-0.452l0.129-0.065 0.258 0.065q0.677 0 1.161-1.032l-0.129 0.065-0.129-0.065q0.242-1.032 0.903-1.032h0.323v-0.065q0-0.065-0.065-0.065l0.065-0.323v-0.194h0.194q0.468 0.903 2.516 0.903 0 0.21 0.968 0.516 0.258 0.194 0.258 0.258l-0.323 1.29h-0.194q0-0.339-0.452-0.387h-0.129q-0.516 0.065-0.516 0.581v0.194q0.258 0.516 0.645 0.516 0.145 0 0.452-0.516 0.161 0.145 0.452 1.226 0.097 0 0.194 0.194v0.065l-0.839-0.129q-0.21 0.129-0.387 0.129h-0.065q-1.419-0.323-1.419-0.71 0-0.226-0.065-0.581h-0.065q0 0.468-0.194 1.032h0.194q0.694 0 0.774 0.645 0 0.097 0.258 0.194 0.403-0.081 0.71-0.387h0.129q0.323 0.177 0.323 0.387h0.065l0.194-0.129h0.258q0.629 0.581 0.71 0.581 0.419-0.048 1.29-1.032 0 0.065 0.065 0.065-0.194 0.677-0.194 0.839 0 0.645 0.774 0.645h0.581l0.323-0.065q0 0.065 0.065 0.065 0 0.548-1.548 0.839-0.726-0.194-1.548-0.194h-0.194l-0.129 0.065 0.065 0.129v0.065q0 0.468-0.774 1.355v0.258q0 0.661 0.774 0.903v0.129q0 0.129-0.129 0.129-0.758 0-1.226-0.839h-0.065v0.258q0.129 0.629 0.129 0.71h-0.194q-0.452-0.403-0.516-0.774h-0.065q-0.306 1.161-0.774 1.161 0-0.065-0.065-0.065l0.065-0.645v-0.258q0-0.129-0.129-0.129-0.403 0.968-1.097 0.968h-0.323q-0.839-0.048-0.839-0.258v-0.065q0.581 0 0.839-0.323h-0.065q-0.065 0-0.194 0.065-1.032-0.194-1.032-1.097v-0.065q0.016-0.129 0.129-0.129 0.21 0.5 0.452 0.581h0.258q0.097 0 0.194-0.194-1.29-1.758-1.29-2.258 0.097 0 0.323-0.387v-0.065q-0.323 0.194-0.452 0.194l-0.516-0.258v0.065q0.323 0.742 0.323 1.548 0 1.097-1.226 3.806-0.129 0.726-0.129 1.032 0 1.565 1.161 1.806h0.258q0.081 0 0.323-1.097 0.629-0.871 1.677-1.935 0.258-0.323 0.516-1.032 0.226 0 0.516-0.258 0.129 0.016 0.129 0.129v0.065q0 0.274-0.129 0.516h0.129q0.5-0.21 1.097-0.903 0.403 0.452 0.774 0.452h0.065l-0.065-0.129v-0.258q0.016-0.129 0.129-0.129 0 0.194 0.903 0.323l0.129-0.065h0.323q0.839 0.113 0.839 0.258 0 0.355-2.452 0.903-1.548 0.629-1.548 2 0 0.258 0.71 2.839v0.71q-0.065 1.161-0.323 1.161-0.194-0.548-0.194-0.71-0.403 0.645-0.645 0.645 0-0.613-1.032-0.968 0-0.048-0.645-0.645v0.065q0.097 0.419 0.581 0.903v0.258q0 1.806 1.613 1.806 1.129 0.323 1.548 1.032l0.065 0.129v0.129h-0.129q-0.887-0.323-1.161-0.323v0.065q0.452 0.613 0.452 0.645 0 0.129-0.194 0.129-1.129-0.452-1.355-0.452 0.516 0.613 0.516 1.097l-0.129 0.065q-0.419-0.581-0.968-0.581l-0.581 0.065q-0.403 0-0.839-1.161-0.839-0.306-0.839-0.452 0.323-0.484 0.323-0.645-0.823-0.371-1.097-0.839 0.452-0.145 0.71-0.516-0.387-0.5-0.387-0.71v-0.065q0-0.371 0.903-0.903 0.258-0.532 0.258-0.581-0.065 0-0.065-0.065-0.097 0.065-0.71 0.129-1.032 0-1.935-1.419-0.145 1.161-0.258 1.161-0.323-0.581-0.323-0.968v-0.645q0-0.5 0.581-1.742h-0.065q-0.968-0.694-0.968-1.161l0.129-0.065h0.065q0.339 0.323 0.581 0.323h0.452q-0.516-0.532-0.516-1.097v-0.452q0.161-0.71 0.387-0.71l0.065 0.129q-0.129 0.21-0.129 0.387 0 0.387 0.387 0.516 0.823 0 0.968-2 0-1.661-1.29-2.452l-0.452-0.065q-0.855 0-1.226 2.194-0.532 1.032-1.161 1.032l-0.065-0.129q0.323-0.645 0.323-0.839-0.758 0.774-1.29 0.774-1.161-0.242-1.161-0.839zM8.458 9.258h0.129q0.677-1.565 1.032-2.129h-0.065q-0.516 0-1.097 2.129zM9.296 10.613h0.129q0.258-0.71 0.387-0.71 0.129 0.177 0.194 0.839l-0.065 0.258 0.065 0.258-0.065 0.323v0.065h0.065q0.194-0.581 0.194-0.968v-0.71q0-0.355-0.194-1.355-0.306 0.21-0.71 2zM10.78 12.806h0.065q0.258-0.677 0.258-1.29 0-0.065-0.065-0.516h0.065q-0.065-0.113-0.065-0.323h-0.065q0 0.274-0.194 2.065v0.065zM10.974 5.839l0.452 0.065q0.387-0.065 0.387-0.194v-0.129h-0.129q-0.71 0.097-0.71 0.258zM11.49 17.516q0-1.758 1.677-2.065h0.258q2.323 0 2.323 2.129v0.065l-0.065 0.323h-0.194q-0.129-0.516-0.258-0.516h-0.065v0.065q0 0.21 0.065 0.323-0.097 0.645-0.258 0.645l-0.323-0.387q-0.065 0.339-0.065 0.387 0.177 1.032 1.032 1.032h0.065q0.129 0 1.419-0.323 1.516 0 2.129 1.097v0.065q0 0.129-0.129 0.129-0.435-0.258-0.774-0.258h-0.258q0.452 0.597 0.452 0.903 0 0.129-0.129 0.129-0.726-0.387-1.226-0.387 0.258 0.29 0.258 0.903v0.065q0 0.129-0.129 0.129-0.613-0.581-0.968-0.581-0.323 0.194-0.645 0.194h-0.452q-0.258 0-1.226-0.71-1.129 0-1.484-0.452 0-0.065 0.774-0.387v-0.065h-0.452q-0.516 0-0.968-0.452 0-0.129 0.645-0.194 0.194-0.242 0.194-0.581v-0.129q-0.145-0.323-0.387-0.323-0.484 0.129-0.581 0.129-0.258-0.29-0.258-0.903zM12.264 11q0.048 0.903 0.194 0.903v-1.097q0-0.129-0.129-0.129zM13.554 12.935v-0.129q0.032-0.323 0.774-1.484h0.774q1.016 0 2.129 1.032 0.306 0.323 0.774 0.323 0.452 0 1.032-0.452 0.355 0 0.839 0.645 0.145 0 0.387 0.903l-0.129 0.065q-0.565-0.452-0.774-0.452v0.065q0.258 0.274 0.258 1.032 0 0.129-0.129 0.129-0.339-0.452-0.774-0.645v0.065q0.194 0 0.323 1.29h-0.129q-0.274-0.468-1.935-0.839v0.129q0.065 0.129 0.065 0.194h-0.258q-0.774-0.565-0.774-0.774h-0.129v0.194l0.065 0.452-0.129 0.065q-0.145-0.016-0.774-1.161v0.065q0.129 0.258 0.129 0.387l-0.129 0.065h-0.194q-0.806 0-1.29-1.161zM14.135 5.129v-0.452q0.129-0.968 0.645-0.968 0 0.065 0.065 0.065l-0.065 0.323q0.065 0.516 0.258 0.516 0.306-0.71 0.903-0.71h0.129q0.323 0 0.581 0.323-0.71 0.387-0.71 0.645 0.065 0.387 0.194 0.387 0.371-0.194 0.645-0.194 0.758 0.21 0.774 0.387v0.065q-0.516 0.371-0.516 0.452 0.242 0.339 0.323 0.581 0 0.161-0.516 0.71v0.065q0 0.548 1.032 0.839v0.129q-0.032 0.194-0.516 0.194h-0.452q0.032 0.129 0.903 0.774l-0.194 0.129h-0.387l-0.645-0.065q0 0.387 0.71 0.774 0 0.097-0.194 0.194h-0.71q-0.581-0.097-0.581-0.516l0.065-1.032-0.065-0.323h-0.065q0 0.694-1.29 1.355l-0.065-0.129q0.516-1.452 0.516-2.194 0-0.452-0.774-2.323z" fill="#000000"></path>
</svg>
