<?xml version="1.0" encoding="utf-8"?>
<!-- Generated by IcoMoon.io -->
<!DOCTYPE svg PUBLIC "-//W3C//DTD SVG 1.1//EN" "http://www.w3.org/Graphics/SVG/1.1/DTD/svg11.dtd">
<svg version="1.1" xmlns="http://www.w3.org/2000/svg" xmlns:xlink="http://www.w3.org/1999/xlink" width="14" height="32" viewBox="0 0 14 32">
<g id="icomoon-ignore">
	<line stroke-width="1" x1="" y1="" x2="" y2="" stroke="#449FDB" opacity=""></line>
</g>
	<path d="M0.509 24.662v-0.483q0.020-0.161 0.161-0.161 0.363 0 2.498 0.967 0.161 0.081 0.242 0.081 1.047 0 2.659-3.948 0.242-0.866 0.242-1.45v-0.242q0-0.806-0.242-2.981 0-1.652 1.773-3.626h0.081q-0.322 0.624-0.322 1.047v0.645q0.020 0.161 0.161 0.161 0.544-0.725 0.725-2.659-0.081-0.322-0.081-0.564h0.161q0.161 1.309 0.161 1.692 0 1.209-0.322 3.223 0.806 1.813 0.806 4.029v0.242h-0.161v-0.081q-0.222-2.034-1.611-4.19h-0.081l-0.322 4.431q-0.423 1.41-2.175 4.19l-0.081 0.483v0.081q0 1.088 2.175 1.37 1.853 0.665 1.853 0.886-0.201 0.524-0.403 0.564-1.652-0.645-4.351-1.047-2.558-2.598-3.545-2.659zM0.831 23.534q0.081-0.322 0.322-0.322l1.853 0.725h0.081q0.322-0.846 0.806-1.773-1.853-1.672-1.853-4.19v-0.161h0.161q0 1.652 2.014 2.659h0.242q0.161-0.483 0.161-1.209 0-2.639-1.934-7.654-0.403-1.833-0.403-2.256v-1.45q0-1.128 0.967-3.062h0.161v0.081q-0.645 1.35-0.645 3.142 0 2.115 2.175 6.607h0.081q0.866-1.088 1.45-1.37h0.081v0.081q-0.967 1.329-0.967 2.578 0.242 2.216 0.242 3.062v0.403q0 2.558-2.175 5.076-0.060 0-0.483 0.081-0.624-0.141-2.337-1.047zM3.007 7.661l0.081-0.161q0-0.081-0.081-0.081 0-2.316 1.773-4.351 2.236-1.692 3.384-1.692-1.37 0.806-1.611 1.047l0.806-0.081h0.242q1.632 0 3.142 1.37h-0.081q-1.571-0.967-2.82-0.967-2.115 0-3.706 2.095v0.081q0.564-0.242 1.128-0.403l0.081 0.161q-1.773 1.249-1.773 3.142 0 2.135 2.739 5.076l-1.047 0.806h-0.161q-2.095-3.424-2.095-6.043zM5.263 25.709q0-0.745 1.692-3.303 0.806-1.752 0.806-3.787v-0.081l-0.081-0.403 0.161-0.081q0.645 1.712 0.806 2.901 0.302 0.161 0.645 0.161 1.752 0 2.82-1.611v0.081q-0.383 1.35-2.095 2.498-0.463 0.262-1.934 0.483-0.544 0.786-2.417 3.062l-0.081 0.403h-0.081q-0.081 0-0.242-0.322zM6.069 26.273v-0.081q0-0.725 1.611-2.256 0.584-1.209 1.692-1.209l1.289-0.806h0.081q-0.927 1.128-2.175 1.773-0.463 0.745-1.531 2.095v0.081q0.342 0.322 2.256 0.967v0.161q-0.141 0.403-0.403 0.403zM7.761 2.101v-0.081q0.524-0.725 2.739-1.209 0.322-0.081 0.645-0.081h0.645v0.161h-0.161q-0.927 0-2.014 0.806 0.765 0.584 2.498 2.498 0.242 0 0.403 0.322v0.081q-1.068-0.624-2.82-1.934-1.047-0.564-1.934-0.564z" fill="#000000"></path>
</svg>
