<?xml version="1.0" encoding="utf-8"?>
<!-- Generated by IcoMoon.io -->
<!DOCTYPE svg PUBLIC "-//W3C//DTD SVG 1.1//EN" "http://www.w3.org/Graphics/SVG/1.1/DTD/svg11.dtd">
<svg version="1.1" xmlns="http://www.w3.org/2000/svg" xmlns:xlink="http://www.w3.org/1999/xlink" width="27" height="32" viewBox="0 0 27 32">
<g id="icomoon-ignore">
	<line stroke-width="1" x1="" y1="" x2="" y2="" stroke="#449FDB" opacity=""></line>
</g>
	<path d="M0.5 24.219q0-1.734 2.5-2.25h0.438l0.313 0.063q0-0.078-0.063-0.625 0-2.344 1.938-3.125 0.344-0.063 0.688-0.063 1.313 0.188 1.313 1.188v0.5q-0.328 1.25-1.25 1.25-1.188 0-1.188-1 0.141-0.625 0.625-0.625h0.125q0.094 0 0.188 0.188l-0.063 0.125-0.125-0.063h-0.188q-0.219 0.109-0.313 0.375 0 0.672 0.938 0.75 0.766 0 1-1.188v-0.25q0-1-1.313-1-0.938 0-1.563 1.375-0.25 0.734-0.25 1.125v0.375q0.344 1.438 1.875 1.438 2.016 0 4.063-5.188 1.547-3.063 3.188-3.625l0.875-0.188 0.063 0.125-1.063 0.563q-1.797 1.641-2.438 3.375l-0.938 2.125v0.063h0.063q1.484-2.813 3.188-4.438 0.813-0.875 2.125-0.875 0.563-0.359 0.563-0.688v-0.063q0-0.531-0.813-0.813-0.156 0-0.5 0.25l-0.125-0.063q0-0.313 0.688-0.5h0.313q0.719 0 1 1.188 0 1.313-1.813 1.313-1.406 0.313-3 3.125-1.359 2.422-2.5 3.688-1.188 1.313-2.75 1.313-0.844 0-2.313-0.813-0.594-0.125-0.938-0.125h-0.313q-1.938 0.281-1.938 1.813 0.234 0.938 0.813 0.938h0.375q0.188 0 0.625-0.25l0.063 0.125q-0.5 0.438-1 0.438-0.953 0-1.188-1.375zM0.5 9.281l0.125-0.063h0.063q1.031 0.063 4.313 2.25h0.063v-0.063q-2.141-2.75-4.063-7.063v-0.188h0.063q3.156 0.438 7.063 3.75 0 0.094 0.938 1 1.891 2.297 2.563 5.375v0.625q0 0.125-0.125 0.125-0.375-1.813-0.688-2.188-1.125 0.625-1.875 0.625h-0.188q-0.125 0-0.125-0.125v-0.063q1.313 0 1.75-1v-0.125q-0.172-0.922-2.313-3.375-3.391-2.922-5.563-3.313h-0.125q0.125 1.125 1.563 2.813 1.188 0.938 1.75 0.938 0.375-0.094 0.375-0.438 0-0.328-0.75-0.875 0.125-0.063 0.188-0.063 1 0.516 1 1.063v0.5q-0.25 0.5-0.813 0.5h-0.063q-0.297 0-1.125-0.375 1.516 1.75 2.75 1.75 0 0.063 0.25 0.063h0.375q0.484 0 1.063-0.5 0.125 0.016 0.125 0.125v0.063q-0.75 0.938-2 0.938-0.141 0-0.688-0.063 2.891 3.281 4.063 3.75l0.063 0.125-0.125 0.063q-0.328 0-3.688-2.438-0.781-0.656-2.25-1.563h-0.125q0 0.453 0.375 1.125v0.063h-0.125q-0.563-0.563-0.938-1.625-1.406-0.813-1.563-0.813 1.172 2.125 4.5 4.75v-0.125q-0.438-0.719-0.688-1.688v-0.313h0.063q0.125 0 0.688 1.438 1.625 2.125 3.5 2.125v0.188h-0.438q-1.953 0-4.875-2.188-3.266-3.125-4.063-5-0.094-0.016-0.25-0.5zM11.813 18.531l0.125-0.063q0.828 1.891 2.313 2.5 1.047 0.5 1.875 0.5h0.188q0.125 0.016 0.125 0.125v0.063l-0.563 0.063q-0.984-0.125-1.313-0.125 2.359 1.969 5.688 2.938h0.063v-0.063q-0.063 0-1.188-1.25-2.375-0.391-2.375-0.688 0.016-0.125 0.125-0.125 0.406 0.125 0.563 0.125h0.75v-0.063q-1.266-1.203-4-3.188l-1.313-1.313q0.016-0.125 0.125-0.125 1.891 1.875 4.563 2.75 0 0.063 0.125 0.063v-0.063l-0.313-1.125q0.203-1.75 0.625-1.75 0.063 0.125 0.063 0.188-0.313 0.531-0.313 0.75v0.25q0 0.797 1.375 2.188 1.109 0.688 1.375 0.688-0.563-0.734-0.563-1.188v-0.188q0-0.375 0.563-0.688h0.313q0.5 0 1.25 0.75 0 0.125-0.125 0.125-0.531-0.406-1-0.5-0.375 0.125-0.375 0.5 0 1.203 3.125 2.063 0.734 0.063 1.063 0.063h0.313v-0.063q-0.578-1.406-3.313-3.438-1.938-1.547-4.25-2.125-0.344-0.188-1-0.188-0.813 0.25-0.813 1.313 0.063 0.547 0.188 0.688v0.125h-0.125q-0.25 0-0.375-1.438 0.188-0.656 0.188-0.938-0.109-0.063-0.25-0.063h-1l-0.75 0.063v-0.063q0-0.266 1.813-0.375 5.297 0 10.188 5.375 1.125 1.578 1.125 2l-0.188 0.125q-2.734 0-7.688-1.75 2.766 2.578 3.25 3.438v0.063q0 0.125-0.125 0.125h-0.438q-3.406-0.422-7.375-3.625-2.313-2.406-2.313-3.438zM13.063 9.469v-0.25q0-0.875 0.688-1.188 0.516-0.188 0.75-0.188 1.734 0 2.063 2.563 0.063 0.234 0.063 0.563-0.188 1.938-0.5 1.938h-0.063v-0.125q0.313-1.313 0.313-1.75v-0.188q0-1.813-1.25-2.625l-0.375-0.063h-0.438q-0.859 0-1.063 1.125 0 0.594 0.875 0.813 0.266-0.25 0.5-0.25 0.125 0 0.125 0.188-0.141 0.375-0.625 0.375-1.063-0.375-1.063-0.938zM16.5 13.844v-0.125q0.125 0 0.125-0.063 1.984 0 4.313 2.5 0.766 0.375 1.125 0.375 0.313-0.188 0.5-0.188 0.094 0 0.188 0.188 0 0.094-0.25 0.25h-0.25q-1.219 0-3-1.875-0.938-0.781-2.75-1.063z" fill="#000000"></path>
</svg>
