<?xml version="1.0" encoding="utf-8"?>
<!-- Generated by IcoMoon.io -->
<!DOCTYPE svg PUBLIC "-//W3C//DTD SVG 1.1//EN" "http://www.w3.org/Graphics/SVG/1.1/DTD/svg11.dtd">
<svg version="1.1" xmlns="http://www.w3.org/2000/svg" xmlns:xlink="http://www.w3.org/1999/xlink" width="30" height="32" viewBox="0 0 30 32">
<g id="icomoon-ignore">
	<line stroke-width="1" x1="" y1="" x2="" y2="" stroke="#449FDB" opacity=""></line>
</g>
	<path d="M0.462 14.274v-0.061q0-0.061 0.061-0.061l-0.061-0.121v-0.242q0-1.483 1.453-1.998h0.605q1.559 0 3.996 2.301 1.453 1.816 1.453 2.664v0.424q0 0.091-0.182 0.182-0.076 0-0.303-1.090-2.165-2.967-3.875-2.967-0.499 0-0.666 0.727 0 1.241 2.422 3.391 1.287 0.848 2.059 0.848 0.923 0 1.211-1.453 0-2.77-3.088-4.844-0.394-0.121-0.545-0.121-0.363 0-0.424 0.484h-0.061q-0.242-0.272-0.242-0.424 0.167-0.484 0.605-0.484 1.665 0 3.451 1.998 0.999 1.211 1.332 3.27v0.908q-0.378 1.453-0.848 1.453-0.318 0.303-0.969 0.303h-0.061q-2.558 0-4.904-3.633h-0.061v0.121l0.787 1.393q2.21 2.361 3.148 2.361 0.969 0.227 0.969 0.303 0.363 0.696 1.756 1.574 0.182 0.227 0.182 0.424v0.545q0 0.091-0.242 0.242h-0.242q-0.318 0-0.363-0.182v-0.121q0.030 0 0.242-0.061v-0.121q0-0.424-0.848-0.545-0.318-0.545-0.605-0.666 0.53 0.651 1.211 1.877 0.303 0.303 1.453 0.908 0.303 0.318 0.303 0.545v0.484q-0.197 0.484-0.848 0.484-0.863 0-1.271-1.211v-0.121l0.121-0.061q0.499 0.727 0.848 0.727h0.061q0.091 0 0.182-0.242-0.333-0.605-0.787-0.605h-0.182q-0.076 0-0.666 0.121l-1.332-1.211q-0.59-0.394-0.969-1.695 0.091-0.242 0.182-0.242 0.469 1.044 1.514 1.756 0.061 0 0.182 0.061l0.061-0.121q0-0.696-1.514-1.816-0.469-0.182-0.666-0.182-0.061 0.318-0.061 0.363 0 0.848 1.393 2.906 0.061 0.409 0.061 0.666-0.197 0.605-0.787 0.605h-0.061q-0.636 0-0.908-1.211 0.076-0.424 0.182-0.424l0.424 0.727 0.242 0.121 0.121-0.182v-0.303q-0.469-0.787-1.211-0.787-0.636-2.649-1.816-4.359-1.62-2.225-2.604-4.299zM4.155 9.431q0-0.545 2.24-1.453l3.693-2.482q1.665-0.727 3.572-0.727 3.542 0.303 5.025 0.303h2.967q2.074-0.787 2.24-0.787h0.484q1.256 0 1.635 1.998 0.348 0.621 1.756 1.998 0.363 0.621 0.363 1.15 0 0.893-1.15 1.877-1.241 0.787-3.633 1.271-2.255 0.545-4.904 0.727-2.24 0-2.24-1.090 0.091-0.242 0.182-0.242 0.288 0.605 1.271 0.605h0.424q4.45-0.545 6.236-1.15 1.559-0.575 1.938-1.211v-0.242q-0.333-0.182-0.848-0.242-0.802 0.182-1.393 0.182-0.121-0.227-0.121-0.484v-0.242q0.015-0.121 0.121-0.121h0.484q1.877-0.257 1.877-0.666v-0.363q0-0.151-1.15-2.18-0.378-0.727-0.848-0.727h-0.605q-1.62 0.999-2.543 1.393-1.62 0.484-2.604 0.484-1.544-0.061-1.816-0.061 0-0.136-3.391-0.424-1.302-0.091-1.332-0.121-0.045 0.061-1.15 0.121l-0.061-0.121q0.106-0.288 2.24-0.424h1.15q0.318 0 3.209 0.303 0.333-0.061 0.545-0.061h0.787q0.938-0.242 1.090-0.242v-0.121h-3.391q-0.061 0-0.061-0.061-0.061 0-0.061 0.061-2.967-0.363-3.148-0.363h-0.908q-1.514 0.182-2.24 0.666-1.105 0.651-3.209 2.18-1.332 0.999-1.332 1.393 0 0.787 3.512 1.332 0 0.121 1.574 0.121 1.968 0 5.025-0.969 2.876-0.787 4.057-0.787 0.015 0.121 0.121 0.121h0.061q0-1.968 1.938-2.24h0.121q1.514 0.318 1.514 1.211 0 0.121-0.121 0.121-0.439-0.605-1.574-0.605-0.863 0-1.514 1.15 0 0.484-0.424 0.484v0.424q0 0.121-1.271 0.363-2.604 1.029-2.604 1.816v0.242q0 0.091 0.666 0.969v0.061q-0.621 0.908-3.27 0.908-2.286 0-5.268-1.574l-1.877-1.332v-0.061q0.833 0.166 2.301 0.969 2.422 1.211 4.541 1.211 1.408 0 1.816-0.727v-0.182q0-0.303-1.029-0.545h-0.848q-4.117 0-6.721-1.029l-0.545-0.121h-0.424l-0.727 0.061-0.061-0.121v-0.121q0-0.061 0.061-0.061-0.424-1.12-0.424-1.393zM4.821 8.22q0.182-0.56 0.605-0.848l1.695-0.363h0.061q0.121 0 0.121 0.182 0 0.242-1.695 1.029-0.5 0.182-0.666 0.182zM14.569 16.878q0-0.893 1.635-2.664 0.711-0.848 0.969-0.848l0.061 0.121q-1.695 1.968-1.695 2.967 0 1.801 3.754 3.27 1.256 0.303 1.635 0.303v-0.061q-0.999-0.53-2.24-1.756-1.256-2.059-2.18-2.059-0.242 0-0.242-0.121v-0.061q0.061-0.182 0.363-0.182h0.424q0.515 0 1.877 1.453 0-0.56 0.605-0.787 0.424 0.182 0.424 0.545v0.545q0 0.121-0.121 0.121h-0.182q-0.545-0.303-0.545-0.424h-0.121q0.288 0.394 1.393 0.787 0.257 0.787 0.484 0.848 0.333 0.061 0.484 0.061l0.121-0.182v-0.061q0-0.076-0.545-0.484 0.045-0.182 0.484-0.182 1.029 0.121 1.393 0.121h0.182q0.666 0 2.785-0.363h0.182q1.332 0.106 1.332 0.908 0 0.424-0.848 0.545-0.651 0-0.969-0.424 0.015-0.121 0.121-0.121 0.484 0.076 0.484 0.182 0.303-0.076 0.303-0.182v-0.121q-0.409-0.182-0.545-0.182-1.938 0.424-2.24 0.424h-0.121v0.121q0.288 0 0.605 0.061 0.424-0.121 0.727-0.121 0.121 0.015 0.121 0.121 0 0.242-1.271 0.545v0.121l2.301 0.727q0.605 0.212 0.605 0.666 0 0.378-0.666 0.545h-0.182q-0.802 0-1.271-0.545l0.121-0.061h0.061q0.257 0 0.666 0.061 0.121-0.061 0.182-0.061-0.212-0.227-1.332-0.484h-0.484v0.182q0.303 0.363 0.303 0.424-0.303 0.121-0.424 0.121-3.421 0-6.66-1.574-1.983-1.499-2.301-2.785zM16.265 15.243q0.166 0 1.816-1.816h1.15q0.409 0 1.090-0.182l0.121 0.182q-1.499 1.816-2.543 2.422h-0.121l-0.061-0.121q0.969-1.044 0.969-1.15 0.061-0.106 0.061-0.242v-0.061q0-0.091-0.182-0.182h-0.242q-1.468 1.271-1.938 1.271-0.121 0-0.121-0.121zM20.382 9.915q0.318-1.393 1.029-1.393 0.394-0.121 0.545-0.121 1.816 0.242 1.816 1.635 0 0.984-1.332 1.393h-0.061q-0.954 0-1.332-0.545v-0.061q0.015-0.121 0.121-0.121l0.605 0.182 0.303-0.061v-0.121q-0.727-0.197-0.727-0.424v-0.182h0.121q0.59 0.121 0.666 0.121h0.061q0.333 0 0.666-0.424v-0.061q-0.348-0.484-0.848-0.484-1.090 0.333-1.090 0.908-0.197 0.545-0.303 0.545-0.166 0-0.242-0.787zM20.987 17.786v-0.061q0.212-0.5 1.877-1.15l0.242-0.363q-0.272-0.242-0.303-0.242h-0.182q-0.091 0-0.424 0.424h-0.061q-0.121 0-0.121-0.121 0.288-0.787 0.908-0.787 0.848 0 0.848 0.848 0 0.545-1.271 1.15 0 0.182-0.363 0.424h-1.029q-0.121 0-0.121-0.121z" fill="#000000"></path>
</svg>
