<?xml version="1.0" encoding="utf-8"?>
<!-- Generated by IcoMoon.io -->
<!DOCTYPE svg PUBLIC "-//W3C//DTD SVG 1.1//EN" "http://www.w3.org/Graphics/SVG/1.1/DTD/svg11.dtd">
<svg version="1.1" xmlns="http://www.w3.org/2000/svg" xmlns:xlink="http://www.w3.org/1999/xlink" width="23" height="32" viewBox="0 0 23 32">
<g id="icomoon-ignore">
	<line stroke-width="1" x1="" y1="" x2="" y2="" stroke="#449FDB" opacity=""></line>
</g>
	<path d="M0.801 27.098q1.538-1.135 3.077-2.784h0.073q0.11 0 0.44 0.586 0 0.806-3.516 2.344zM3.731 22.043v-1.099q0-0.604 0.513-1.025 0 0.11 0.22 0.22l-0.073 0.513q0.275 1.392 1.392 3.882 0 0.293 0.073 0.586l-0.073 0.146q0.073 0.146 0.073 0.22l-0.146 0.073q-0.146-0.018-0.806-1.392-1.044-1.227-1.172-2.124zM4.537 17.868v-0.22q0.201-0.879 0.366-0.879l0.146 0.22v0.073q0 0.073-0.073 0.073 0 0.586 1.905 3.003 0.513 0.806 0.513 1.685v0.44q0 1.227-0.879 2.198l-0.073-0.146q0.22-0.659 0.22-0.879v-0.073q0-1.209-1.319-2.857-0.806-1.355-0.806-2.637zM5.196 15.011v-0.293q0-1.154 0.513-1.685 0.11 0 0.44 1.538 0.952 1.392 2.564 3.516 0.806 1.282 0.806 2.637v0.44q0 0.952-0.879 1.905l-0.073-0.146v-0.073q0.293-0.275 0.293-1.319 0-1.19-1.538-3.15-0.641-0.476-1.685-1.978-0.403-0.842-0.44-1.392zM6.075 11.055v-0.366q0-2.857 3.882-6.373 2.051-1.612 4.542-1.612 1.172 0.146 1.172 0.22 1.135-1.025 1.392-1.025 0.165 0 0.44 1.392 0.678 0.513 0.952 0.513l1.245-0.879h0.073q0.146 0.018 0.146 0.146 0 0.311-0.44 1.758 0.293 0.201 1.319 1.831 0.146 0.073 0.22 0.073v0.146q0 0.146-0.146 0.146h-0.293q-0.201 0-0.44-0.146v0.073q0.201 0 0.44 2.417 0.494 1.52 1.538 2.344v0.513q0 2.857-1.465 2.857h-0.366q-1.978 0-1.978-0.879-1.666-1.905-2.93-2.271-1.905-1.41-1.905-3.37 0.037-0.733 0.22-0.733l0.073 0.146v0.366q0 1.428 1.905 2.637 2.637 0.824 3.589 2.491 0.311 0.293 0.586 0.293h0.073q0.293-0.128 0.293-0.513 0-0.641-1.245-1.392v-0.22q0.513-0.275 0.513-0.366 0.22-0.476 0.22-0.879 0-1.465-1.392-3.663-1.3-1.758-2.784-1.758-2.436 0-3.223 1.758-0.293 0.531-0.293 1.172v0.366q0 0.787 1.319 6.007 0.22 1.099 0.366 4.395l-0.073 0.146 0.073 0.146q0 4.157-2.271 7.032h-0.073v-0.22q0.33 0 1.319-4.395 0.073-1.758 0.146-1.758-0.22-3.571-0.806-5.201-0.44-1.557-1.685-4.981-0.22-0.806-0.22-1.172v-0.513q0-2.253 2.564-3.589h-0.146l-1.319 0.44q-2.198 1.52-2.198 3.516 0 1.392 1.538 4.688 0.659 1.941 0.806 3.077l-0.146 0.073q-0.128-0.073-0.879-1.831-0.641-0.971-1.758-2.198-0.586-0.659-0.586-0.806h-0.073v0.22q0 1.465 2.417 5.421 1.099 2.143 1.099 3.003 0.073 0 0.073 0.22v0.879q0 0.146-0.146 0.146-0.586-2.472-2.417-4.395-2.857-2.802-2.857-5.567zM14.646 7.027l0.146-0.073q0.421 0.366 0.733 0.366 0.293 0 0.293-0.146-0.22-0.366-0.22-0.586 0.22-0.366 0.586-0.366 0.696 0 1.538 1.172v0.146q0 0.11-0.293 0.22-0.604-0.073-0.733-0.146-0.44 0-0.44 0.659 0 0.751 1.612 2.564 0 0.146-0.146 0.146-1.428-0.659-2.637-2.564-0.44-1.080-0.44-1.392zM15.378 14.205q0-0.073 0.073-0.073l-0.073-0.366v-0.073q0.055-1.245 0.366-1.245 0 0.751 1.319 3.809 0.146 0.311 0.146 1.172v0.366q2.417 2.747 2.417 5.054v0.586q0 0.952-0.22 0.952-0.128 0-0.366-1.465-0.641-1.795-2.051-2.93-0.824-0.604-1.465-0.952v-0.073q0.293-1.154 0.44-2.051-0.073-0.934-0.586-2.71z" fill="#000000"></path>
</svg>
