<?xml version="1.0" encoding="utf-8"?>
<!-- Generated by IcoMoon.io -->
<!DOCTYPE svg PUBLIC "-//W3C//DTD SVG 1.1//EN" "http://www.w3.org/Graphics/SVG/1.1/DTD/svg11.dtd">
<svg version="1.1" xmlns="http://www.w3.org/2000/svg" xmlns:xlink="http://www.w3.org/1999/xlink" width="23" height="32" viewBox="0 0 23 32">
<g id="icomoon-ignore">
	<line stroke-width="1" x1="" y1="" x2="" y2="" stroke="#449FDB" opacity=""></line>
</g>
	<path d="M0.5 9.531q0-2.391 1.563-4.375 0.516-0.438 1.375-0.438 0.281 0.109 0.438 0.375-0.563 1.344-0.563 1.688v0.75q0 0.469-0.25 2.125v0.313q0.438 1.656 0.438 2.25 0 0.813-0.813 1.75-0.328-0.266-1.25-0.75 0-0.797-0.688-1.563v-0.375q0-0.438-0.25-1.75zM2.75 17.469v-1.25q0.172-1.813 0.5-1.813 0.563 0.188 0.563 0.313-0.75 2.25-0.75 3.438v0.063h-0.188zM3.188 13.906q0.297-0.75 0.438-0.75 0.172 0 0.25 1l-0.188 0.125q-0.5-0.094-0.5-0.375zM3.375 9.406q0.063-0.125 0.063-0.188h0.063l2.938 0.563h0.375l0.188 0.125q-0.359 1.328-0.563 3.313h-0.125q-1.391 0-2.25-0.125 0-0.813-0.625-3 0-0.141-0.063-0.688zM3.5 8.656q0.281-3.063 0.625-3.063 0.281-0.438 1.25-0.438 3.563 0.219 3.938 0.875-0.625 0.813-0.625 2.313-0.672 0.734-1.375 1.125-1.563 0-3.813-0.813zM4.188 13.656h2.188q0.125 0.016 0.125 0.125v2.438q0 0.25-1.5 0.25h-0.25q-0.266 0-0.563-2.813zM4.75 17.094q0.688-0.25 1.375-0.25h0.313q0.188 0 0.188 1.063-0.359 1.25-1 1.25h-0.313q-0.375-1.016-0.563-2.063zM5.438 19.531q1.031-0.25 1.313-0.25 0.188 0.484 0.313 1.938-0.328 0.125-1.063 0.188-0.563-1.344-0.563-1.875zM5.5 24.781q0.469-1.125 0.75-1.125l0.625-0.063 0.063 0.125q-0.313 1.188-0.688 1.375-0.75-0.109-0.75-0.313zM5.938 21.844q0.156-0.063 1.188-0.25 0.016 0.125 0.125 0.125l-0.063 0.313v0.688q0 0.5-0.938 0.5h-0.188l-0.063-0.125 0.063-0.563q0-0.078-0.125-0.688zM6.75 18.156q0.313-1.531 0.313-2.375 0-0.531-0.25-1.313l0.125-0.063h0.125q0.75 0 0.75 0.813v0.25q0 0.141-0.063 0.25l0.063 0.125q-0.391 1.766-1 2.438zM6.875 13.969q0.172-2 0.375-2h0.125q0.469 0.359 0.688 0.813v0.375q-0.156 1.063-0.5 1.063-0.688-0.094-0.688-0.25zM7.125 18.969v-0.125q0.563-0.719 1-2.5 0-0.438 0.125-0.438 0.75 0 0.75 0.313 0.125 0.5 0.125 1.063v0.75l0.063 0.438q-0.125 0.063-0.188 0.063-0.578-0.188-0.688-0.188v0.063l0.375 2.625v0.063q-0.469 1.563-0.688 1.563-0.828-2.484-0.875-3.688zM7.188 11.406v-0.125q0-1.203 1.625-2.438 0.188-0.422 0.5-2l0.313-0.375q0.344 0.25 0.563 1.5v0.688q-0.109 1.547-1.438 3.75l-0.125 0.063h-0.063q-0.922-0.953-1.375-1.063zM7.375 25.031q2.125-4.563 2.125-6.875v-0.875q0-0.5-0.125-1.125 0.063 0 0.063-0.063l0.75 0.063h0.438q0.063 0 0.063 0.063l0.125-0.063q0.125 0.016 0.125 0.125-1.125 4.391-1.125 6.688v0.063q0 1.328 0.625 2.375 0 0.141-0.438 0.188-2.625-0.219-2.625-0.563zM8.188 14.594l0.188-0.125q0.844 0.5 1.25 0.5h0.25q0.531 0 2.125-0.75h0.5q0.125 0.016 0.125 0.125 0 1.313-0.25 1.313-0.406-0.125-0.563-0.125-1.844 0.125-1.938 0.188-1.625-0.125-1.625-0.75 0-0.047-0.063-0.375zM8.313 13.969q1.313-2.5 2-4.188 0.953-2.047 3.75-3.25h0.063q0.938 1.344 0.938 2.25v0.438q0 0.328-0.688 1.75-0.578 2.5-1.5 2.5-2.594 1.125-2.875 1.125-0.641 0-1.688-0.625zM8.313 10.156h0.25q0.391 0 0.75-0.625h-0.125q-0.813 0.422-0.875 0.625zM8.938 5.156v-0.188q0.828-0.313 3.063-0.313 0-0.094 0.813-0.125 0.609 0.188 1.313 1.375-0.047 0.109-1.75 0.75 0 0.047-1.375 1l-0.813-1.438q-1.094-1.063-1.25-1.063zM10.125 22.656q0-2.406 1.313-6.688 0.703 0.109 1 0.375-0.438 2.391-1.313 5.063-0.375 2.438-0.375 3h-0.063q-0.563-0.688-0.563-1.75zM12.625 18.844v-0.063q0.313-2.25 0.5-4.938 1.031-0.406 1.375-1.375 0.25-1.438 0.563-2.063 0.391-0.625 1.188-0.625 1.172 0 3 2.188-1.734 4.234-3.438 5.875-1.609 1-3.188 1zM14.313 19.094q0.953-0.406 1.438-0.75h0.063q0.25 0 0.25 1.188v0.813q0 0.5-0.125 1.125h-0.188q0-0.141-1.375-2.188-0.063-0.125-0.063-0.188zM14.938 6.344v-0.063q0.766-0.188 1.063-0.188h0.313q2.125 1.875 2.313 2.688 0.75 1.453 0.813 2.188v0.188q0 0.125-0.125 0.125-1.328-1.578-2.188-1.75-0.219-0.156-1.313-0.438-0.875-2.594-0.875-2.75zM15.563 25.156q0.875-3.641 0.875-5.375v-0.5l0.063-0.375-0.188-1.063q1.234-1.313 2.313-3.75 0.828-1.797 0.938-1.875h0.063l0.063 0.313v1.125q0 1.625-1.813 5.125-0.875 2.328-0.875 3.313 0 1.391 1.063 1.688 0.313 0.047 0.313 0.188 0 1.625-0.875 1.625h-0.313q-1.625-0.109-1.625-0.438zM17.313 22.281q0-1.672 1.438-4.625h0.125q-0.813 4.172-0.813 5.75l-0.188 0.125q-0.422 0-0.563-1.25zM19.813 11.906q0.063-0.531 0.063-0.875h0.063q1.063 0 1.188 3.125h-0.063q0 0.063 0.063 0.063-0.313 1.875-0.438 4.188 0.063 0.969 0.188 1.688l-0.188 0.125h-0.188q-0.219 0-0.25-2.188v-0.063q0.25-2.922 0.25-3.688 0-1.344-0.688-2.375zM20.5 20.906h0.063l-0.063-0.125v-0.063q0-0.141 0.438-0.188 0.438 0.438 0.688 1.938-0.063 0.375-0.188 0.375-0.938-0.922-0.938-1.938z" fill="#000000"></path>
</svg>
