<?xml version="1.0" encoding="utf-8"?>
<!-- Generated by IcoMoon.io -->
<!DOCTYPE svg PUBLIC "-//W3C//DTD SVG 1.1//EN" "http://www.w3.org/Graphics/SVG/1.1/DTD/svg11.dtd">
<svg version="1.1" xmlns="http://www.w3.org/2000/svg" xmlns:xlink="http://www.w3.org/1999/xlink" width="22" height="32" viewBox="0 0 22 32">
<g id="icomoon-ignore">
	<line stroke-width="1" x1="" y1="" x2="" y2="" stroke="#449FDB" opacity=""></line>
</g>
	<path d="M0.5 25.406v-0.063q1.25-1.719 1.25-4.313 1.109-2.984 2.375-4.75 0.125 0.016 0.125 0.125-0.25 0-1.563 3.813 0 0.234-0.125 0.625h0.125q0.109-1 1.563-3.25 0.438-0.5 0.625-0.5l0.5 0.563q-1.75 1.547-2.188 2.813-0.234 0.328-0.563 1.313h-0.125v0.25q0 0.5 0.188 1.563-0.156 0.938-0.625 0.938v-0.063q0.25-0.266 0.25-0.625l-0.188-0.125q-0.563 0.078-0.563 0.563v0.125q0 0.547 0.875 0.75v0.063q-0.359 0.375-1.188 0.375h-0.063q-0.688 0-0.688-0.188zM1.563 4.969q0.063-0.813 0.188-0.813h0.063q0.359 0.406 1.125 1.063v0.063q-0.047 0-0.375 0.063-0.109-0.063-0.25-0.063v0.063q0.25 0.313 0.25 0.438 0.688-1 1.5-1h0.188q0.438 0 0.438 0.313h0.063q0.078 0 0.813-0.938 0.266 0 0.313 0.875v0.313q0.797 0.375 0.875 0.375 0.25-0.063 0.25-0.25t-0.313-0.188v-0.125h0.438q0.313 0.156 0.313 0.5v0.125q0 0.203-0.188 0.438v0.125q0.406 0.188 0.625 0.188 0.141-0.109 0.438-0.625 0.125 0.203 0.125 0.375 0 0.391-0.438 0.813 0.453 0.625 1 0.625 0.234 0 0.438-0.375-0.094 0-0.188-0.188v-0.125q0.484 0 0.563 0.625v0.125q0 0.359-0.25 0.625h0.063q1.047 0 2.125-1.188l0.375-0.063q0.313 0.078 0.313 0.188v0.063q-0.625 0-1.063 1.063h0.063q0.719-0.031 1.938-1 0.031 0 0.25-0.063v0.188q-0.172 0-1.063 0.938-1.188 0.75-2.5 0.75h-0.125v0.063q0.313 0.25 0.313 0.313 0 0.125-0.125 0.125-0.672 0-1.188-0.375 0 1-0.375 1.313h-0.063v-0.438q0-1.125-0.188-1.125 0 0.703-0.75 2h-0.125q0.125-0.75 0.125-1.188v-0.438q0-0.063 0.063-0.063l-0.063-0.125v-0.125q0-0.438-0.125-1.188h-0.063q-0.047 0.969-1.125 2.688-0.063 0.328-0.063 0.375 0 0.203 0.25 0.5l-0.063 0.125q-0.438-0.188-0.438-0.625v-0.125q0-0.391 0.625-2 0.078-0.797 0.125-0.875-0.188-1.375-1.188-1.375-0.719 0.25-0.813 0.25h-0.063q0.375-0.891 0.5-1.438l-0.125-0.063q-0.469 0.125-0.563 0.125 0-0.125-0.125-0.125-0.172 0-0.313 0.813 0.063 0.859 0.063 1.063-0.156 0.5-0.25 0.5h-0.063v-0.188q0-0.063 0.063-0.063l-0.375-1.813q-0.469 0.266-0.75 1.125h-0.063q-0.125-0.141-0.125-0.438h-0.063v0.25q0.109 1.016 0.25 1.125v0.125q0 0.125-0.375 0.125v0.063q0.625 0 0.625 1.125v0.313q0 0.375-0.188 1.875 0 0.344 0.313 0.438 0.703 0 1.063-3.125l0.125-0.063q0.25 0.609 0.25 1.563v0.063q0.813-0.938 0.813-1.813v-0.25q0-0.094-0.188-0.188-0.156 0.313-0.5 0.313h-0.125q-0.094 0-0.188-0.188v-0.125q0-0.188 0.875-0.25 0.344 0.234 0.438 0.5v0.875q-0.016 0.625-1.313 2.813-0.219 1.25-0.375 1.25h-0.188q-1.5 0-1.5-0.688-0.094 0-0.313-0.563v-0.188l0.25-1.188-0.063-0.125q0-0.063 0.063-0.063 0-1.125-0.563-2.188v-0.188q0.203-0.547 0.375-1.813-0.313-0.719-0.438-1.313zM2.5 21.531h0.063v-0.375h-0.063v0.375zM3.563 13.844v-0.188q0.094-0.25 0.188-0.25 0.281 1.25 1 2.438h0.125v-0.063q0-0.219-0.063-0.563 0-1.594 1.563-2.625l0.313-0.063v0.063q-1.375 1.031-1.375 2.25v0.5q0 1.5 1.813 1.5 1.813-0.625 1.813-1.75v-0.063q-0.078-0.625-0.563-0.625h-0.25q-0.5 0-0.625 0.813 0 0.5 0.688 0.5 0 0.094-0.188 0.188h-0.063q-0.75 0-0.75-0.875v-0.188q0-0.844 1.25-1 0.766 0 1.125 1v0.063q0 1.281-1.375 2.375v0.125q-1 3.203-1 3.438v0.125q0 1.609 1.063 3 0.656 0.375 1.188 0.375v0.063q-0.422 0.188-0.688 0.188-1.641 0-2.313-3.438l-0.063-0.75q1.031-1.594 1.563-2.875h-0.063q-0.484 0.25-1.125 0.25-2.406 0-3.188-3.938zM6.625 15.156q0-1.234 1.438-3.625 1.719-1.875 3.625-1.875h0.125q2.047 0 2.813 1.625h0.063v-0.063q-0.203-1.875-1.688-1.875h-0.125q-0.656 0-2.188 0.25h-0.063v-0.063q0-0.109 1.25-0.5 2.047-1.125 3.063-1.125h0.625q0.938 0 1.938 1.188 0.234 0.188 0.438 0.188h0.063q0.563 0 0.563-0.688v-0.313h0.125l0.063 0.563q-0.188 1-0.875 1h-0.25q0 0.656 1.25 1.5h0.188q0.5-0.063 0.5-0.5h0.125v0.125q-0.156 0.75-0.75 0.75h-0.063q-0.453 0-1-0.438v0.063q0 0.484 1.188 1.313 0.484 0.234 2.25 0.625l0.375 0.5v0.063h-0.063q-0.391-0.563-2-0.563-1.531-0.438-2.063-1.25-0.281-0.578-0.875-2.5-0.469-0.688-0.75-0.688 0.25 0.625 0.438 2.438 0.594 1.5 1.375 1.5 0.313 0.094 0.313 0.188v0.063h-0.188q-1.656 0-2.125-2.625 0-0.844-0.813-1.438h-0.25q0.938 0.969 0.938 2.125v0.188q0 2.438-1.5 5.375-1.625 3.219-1.625 5.125v0.375l0.063 0.625-0.125 0.063q-0.313-0.422-0.313-1.813 0.063-1.016 0.125-1.063v-0.063h-0.063q-0.688 2.469-0.688 2.875v0.125q0 0.438 0.375 0.438l0.313-0.063 0.063 0.125q-0.641 0.484-1.375 0.563-0.125 0-0.125-0.125v-0.438q0-0.547 1.125-3.875 0.375-1.609 0.375-3.375 0.547-0.344 0.875-0.938v-0.063q-1.469 1.391-2.563 1.563h-0.063q-0.125 0-0.125-0.125 2.5-1.5 2.5-3.313v-0.313q-0.234-1.625-1.125-1.625h-0.188l-0.188 0.125h-0.125v-0.063q0.156-0.313 0.5-0.313h0.25q0.938 0 1.313 1.5 0.016 0.125 0.125 0.125 0-0.609 0.063-0.625 0-1.125-1.188-1.625-0.563-0.078-0.688-0.125-1.422 0.094-3 1.563l-0.063 0.125h0.063q0.672-0.375 1.125-0.375h0.188q1.313 0.359 1.313 0.75 0.313 0.359 0.313 1-0.141 1.25-0.375 1.25h-0.063q0-0.063 0.125-0.5v-0.063q0-1.813-1.563-1.813-1.734 0-2.813 2.5l-0.063 0.375h-0.188zM7.438 21.281q0-1.234 1.75-3.563 0.688-1.109 0.688-2.25 0-0.156-0.188-1.875l0.125-0.063q0.5 1.063 0.5 2.188v0.125q0 2.063-1.688 3.75-0.813 0.969-0.813 2v0.063q0 0.422 0.188 1.125l-0.125 0.063q-0.438-0.625-0.438-1.563zM10.063 21.969q0.75-1.406 0.75-2.25l-0.25-2.75q1.063-0.438 1.188-0.438h0.063q-0.125 1.391-0.188 1.688 0 0.063 0.063 0.063-0.203 2-0.563 2.688-0.359 0.469-0.563 1 0.313 0.047 0.313 0.188-0.234 0.125-0.5 0.125h-0.063q-0.25-0.125-0.25-0.313zM12.375 19.344h0.063q1.156-3.266 1.188-3.625-0.563 0.5-1.25 3.563v0.063z" fill="#000000"></path>
</svg>
