<?xml version="1.0" encoding="utf-8"?>
<!-- Generated by IcoMoon.io -->
<!DOCTYPE svg PUBLIC "-//W3C//DTD SVG 1.1//EN" "http://www.w3.org/Graphics/SVG/1.1/DTD/svg11.dtd">
<svg version="1.1" xmlns="http://www.w3.org/2000/svg" xmlns:xlink="http://www.w3.org/1999/xlink" width="23" height="32" viewBox="0 0 23 32">
<g id="icomoon-ignore">
	<line stroke-width="1" x1="" y1="" x2="" y2="" stroke="#449FDB" opacity=""></line>
</g>
	<path d="M0.5 15.656q0-2.172 1.688-2.875 0.156 0 0.313-0.125h0.625q0.094 0 0.188 0.188v0.125q0 0.188-0.063 0.188 0.25 2.125 0.5 2.625l-0.125 0.063q-0.719-0.938-1.25-0.938h-0.313q-0.703 0-1.125 1.688 0 0.25-0.188 0.25-0.156-0.359-0.25-1.188zM1.25 17.281v-0.375q0-0.953 1.063-1.375 1.063 0.219 1.063 0.813-0.438 0.484-0.438 1.313l0.063 0.563q-0.094 0-1.188 0.813h-0.063q-0.5-0.953-0.5-1.75zM2 19.469v-0.188q0-0.094 0.75-0.625h0.063q0.219 0 0.375 1.688 0.25 0.766 0.25 1.125l-0.125 0.063q-0.672-0.828-1.313-2.063zM2.313 7.969v-0.625q0.016-0.125 0.125-0.125l2.25 2.563v0.25q-0.5 0.688-0.563 0.688h-0.188q-1.625-1.281-1.625-2.75zM2.688 6.969q0.016-0.125 0.125-0.125h0.188q1.781 0 3.188 1.688v0.063l-1.125 0.938h-0.125q-1.172-1.156-2.25-2.563zM3.75 13.719q0-3.563 3.875-5.5 0.688-0.188 1.438-0.188 2.531 0 4.875 2.875 1.719 2.906 1.875 5.438 0 2.375-0.813 2.375-0.609 0.313-2.5 0.688l-0.125-0.063q-0.5 0.188-1.5 0.188-1.844 0-4.375-1.438-2.031-1.547-2.625-3.438 0-0.266-0.063-0.5 0.063-0.125 0.063-0.188zM5.063 13.656q0 1.75 2.063 3.125 0-1.516 0.563-2.313v-0.063q-0.563 0.125-0.625 0.125-1.438-0.359-1.438-1.375l0.125-0.063q0.422 0.563 0.938 0.563 0.578 0 0.688-0.813-0.266-0.547-0.875-0.75-0.984 0-1.438 1.563zM7 7.656v-0.375q0-1.688 2.063-2.75 0.406-0.234 1.313-0.375v0.125q-1.188 0.891-1.188 1.5 0.063 0.109 0.063 0.25h-0.063q0.141 0.891 0.875 1.5v0.125l-0.438-0.063h-1.375q-0.844 0.188-1.188 0.188zM7.5 10.656q0 0.641 0.688 0.938h0.313q0.375-0.203 0.375-0.688v-0.063q0-0.359-0.25-0.625v-0.063q0.016-0.125 0.125-0.125h0.188q0.938 0.453 0.938 1.438v0.313q-0.328 0.813-1.313 0.813-0.109-0.063-0.25-0.063l0.063 0.75q0 0.109-0.125 0.688 0.578-0.25 1.063-0.25h0.125q0.297 0.188 0.563 0.688l-0.938 0.5q-0.688 0.719-0.688 1.75v0.375q0 0.063-0.063 0.063 0 0.906 3.25 1.438h0.25q0.563-0.031 0.563-0.188-0.375-1.141-1.5-1.813-0.5-0.156-0.5-0.188-0.438 0.125-0.438 0.5 0.313 0.625 0.938 0.625 0.375 0.094 0.375 0.188 0 0.188-0.563 0.313h-0.125q-1.5 0-1.75-1.5v-0.188q0-0.922 1.188-1.063h0.25q1.156 0.063 3.313 2.25 0.25 0.281 0.25 0.438h0.063q0.453 0 0.688-0.313 0-0.875-0.5-0.875-2.078-0.922-2.625-2.188-0.188-0.484-0.313-1.063v-0.188q0.422-1.063 1-1.063h0.375q1.109 0 1.5 1.875l-0.125 0.063q-0.656-0.938-1.125-0.938h-0.25q-0.453 0.25-0.5 0.438v0.063q0 1.031 2.125 1.563 0.344 0.063 0.688 0.063-0.359-1.797-1.5-3.438-0.141-0.313-0.625-0.313-1.5 0-2 1.625-0.109 0.688-0.25 0.688h-0.063q-0.688-0.422-0.688-0.75 0-1.453 1.625-2.375 0.344-0.125 0.5-0.125v-0.063q-1.563-1.25-2.688-1.25-1.219 0-1.625 1.313zM9.125 24.156v-0.063q0.25-0.922 0.438-2.875-0.063-0.125-0.063-0.188 0.125-0.063 0.188-0.063 0.609 0.25 2.188 0.375h0.938q0.563 0.641 0.688 1.188v0.063q0 0.109-1 0.25-0.875 0.594-0.875 1.313v0.188l0.063 0.75-0.125 0.063q-1 0-2.438-1zM9.563 20.469v-0.563q0.016-0.125 0.125-0.125 2.875 0.344 2.875 0.563v0.5q0 0.125-0.125 0.125h-0.75q-2.125-0.125-2.125-0.5zM9.625 5.844q0.563-1.313 1.688-1.313 0-0.063 0.25-0.063h0.688q0.344 0 0.438 0.25v0.188q-0.125 0.125-0.313 1.25-0.547 0-1.813 0.875-0.938 0-0.938-1.188zM12.063 24.469q0-0.953 1.375-1.25 0.438 0.063 0.438 0.188v0.063q-0.188 0.234-0.188 0.438v0.25q0 0.219 0.688 1.125 0.063 0.109 0.063 0.25-0.063 0-0.063 0.063-2.25-0.109-2.25-0.75 0-0.047-0.063-0.375zM12.813 5.844q0.125-1 0.375-1 1.641 0 2.688 1.063l-0.063 0.125q-0.563-0.063-0.688-0.125-0.063 0-0.063 0.063l-0.313-0.063h-0.188q-0.703 0-1.688 0.125-0.063-0.125-0.063-0.188zM14.188 23.844l0.125-0.063q0.234 0.234 1.563 0.875 0.625 0.391 0.625 0.5v0.063q0 0.25-1.5 0.25-0.813-0.859-0.813-1.625zM15.313 12.531q0-0.172 0.813-0.313 0.875 1.906 0.875 2.625v0.125q0 0.188-0.875 0.188-0.375-1.328-0.813-2.625zM16.625 12.156q1.391-0.219 2.688-0.875l0.438-0.125q0.406 0 1.125 1.875v0.063l-0.125 0.063q-0.328-0.188-0.875-0.188-0.875 0.391-0.875 1.438v0.688q0 0.125-0.125 0.125h-0.75q-0.672 0-0.813-1.375-0.313-0.859-0.688-1.688zM19.375 14.469q0.234-0.938 1-0.938h0.063q1.125 0 1.375 2 0.063 0 0.063 0.063 0 0.094-0.188 0.188-0.188-0.297-0.625-0.5h-0.313q-0.156 0-1.125 0.313-0.25-0.438-0.25-1.125zM20.063 15.906q0.25-0.188 0.688-0.188 1.188 0 1.188 1.688-0.063 0.563-0.188 0.563z" fill="#000000"></path>
</svg>
