<?xml version="1.0" encoding="utf-8"?>
<!-- Generated by IcoMoon.io -->
<!DOCTYPE svg PUBLIC "-//W3C//DTD SVG 1.1//EN" "http://www.w3.org/Graphics/SVG/1.1/DTD/svg11.dtd">
<svg version="1.1" xmlns="http://www.w3.org/2000/svg" xmlns:xlink="http://www.w3.org/1999/xlink" width="25" height="32" viewBox="0 0 25 32">
<g id="icomoon-ignore">
	<line stroke-width="1" x1="" y1="" x2="" y2="" stroke="#449FDB" opacity=""></line>
</g>
	<path d="M0 6.031q0.172-1.375 0.5-1.375h0.188l0.188 0.125q-0.125 1.313-0.125 1.563 0 0.688 1 2.125v0.063q-0.203 0.359-0.438 0.5-1.313-1.109-1.313-3zM1.938 16.281q0.141-1.813 0.5-1.813 0.094 0.016 0.875 0.875-0.234 0.453-0.688 1.875h-0.188q-0.5-0.422-0.5-0.938zM1.938 9.469v-0.125q0.266-0.438 0.375-0.438 1.313 0.313 2.313 0.313h0.063q0.094 0 0.188 0.188v0.125q0 0.5-0.25 0.5-1.547 0-2.688-0.563zM2.688 14.094q0.594-1.438 1.063-1.438 1.719 0 5.375-2.875h0.063q1.188 0.094 1.188 0.313v0.063q-0.938 1.594-3.313 4.063-0.063 0-0.563 0.563-0.359 0-1.563-0.063-0.375 0-1.5 0.25-0.625-0.5-0.75-0.875zM3 17.156q0.844-2 1.063-2h0.313q0.422 0 0.75-0.063 1.563 0 3 0.75v0.063q0 0.297-2.5 0.375v-0.063q-1 0-2.438 1.063h-0.063q-0.125 0-0.125-0.125zM5.25 9.906q0-0.688 0.25-0.688 3 0.094 3 0.375-1.469 1.531-2.313 1.75l-0.063-0.125q0.188-0.641 0.188-1-0.234-0.109-1-0.25 0-0.063-0.063-0.063zM7.25 15.031v-0.125q2.141-2.313 3.813-4.688 1.938 0.453 1.938 0.688 0 0.563-2.375 4.063l-1.188 1.313h-0.063q-0.969-0.703-2.125-1.25zM10 16.594q2.266-2.656 3.625-5.75 1.813 0.156 1.813 0.313v0.063q0 2.234-1.75 6.063-0.203 0.172-1.188 0.5-0.969 0.578-1.313 0.875h-0.063q-0.125 0-0.125-0.125 0.313-1.953 2.188-4h-0.063q-1.203 0.406-2.625 2.438h-0.125q-0.094 0-0.375-0.375zM11.375 19.094v-0.063q1.422-1.125 2.375-1.125 1.188 1.141 1.188 1.25-0.219 1.688-0.5 1.688-2.828-1.563-3.063-1.75zM14.188 17.219v-0.063q0.688-0.859 1.375-3.563 0.313-1.453 0.313-2.5l0.125-0.063h1.438q0.109 0 0.188 0.438 0 0.406-0.75 2.75 0 1.234-0.375 1.75-1.266 1.016-2.25 1.375zM14.313 17.844q0-0.109 2.125-1.313 0.734-0.547 1-1.563h0.063q1.75 1.563 1.75 2.438h-0.063q0 1.625 1.813 4.438 0 0.109 0.125 0.313-0.359 0.828-0.563 0.875h-0.063q-0.156 0-1.5-2.938-0.547-0.797-1.25-2.125l0.188-0.625v-0.125q-1.594 1.375-1.75 1.375-1.75-0.609-1.875-0.75zM14.688 21.469q0.438-1.75 0.563-2h0.063q0.922 0.422 1.25 0.875-0.516 0.656-1.375 1.125-0.359 0.188-0.438 0.188-0.063-0.125-0.063-0.188zM14.875 22.219q0-0.094 0.938-0.563 1.031-0.938 1.063-0.938h0.125q1 0.781 1 1.375-0.375 0.375-0.625 0.375-0.203-0.125-0.375-0.125v0.313q0 0.219-0.688 0.313 0-0.094-0.188-0.188h-0.125q0 0.406-0.188 0.438h-0.438q-0.188 0-0.5-1zM15.438 23.594q0.109-0.25 0.438-0.25l0.125 0.188v0.438l0.063 0.313-0.188 0.125q0-0.094-0.438-0.813zM16.5 23.219q0.359-0.188 0.5-0.188l0.125 0.188v0.813q0 0.125-0.125 0.125-0.5-0.828-0.5-0.938zM16.625 18.906q0-0.063 0.75-0.563h0.125q0.781 0.891 1.813 3.125 0.25 0.328 0.5 1.188v0.125h-0.125q-2.297-1.906-3-3.688-0.063 0-0.063-0.188zM17.375 13.656q0.563-1.875 0.563-2.563v-0.375q0-0.313-0.063-0.938 0.063 0 0.063-0.063 1.047 0.797 1.313 1.563v0.063q-1 0.828-1 1.625 0 0.328 0.188 0.938h0.125q-0.125-0.563-0.125-0.813v-0.125q0.047-0.375 0.188-0.375 1.094 0 1.438 0.875-1.047 0.75-1.313 0.75-0.125-0.156-0.125-0.25h-0.063v0.063q0 0.063 0.25 0.375v0.063q-0.047 0.422-0.438 0.813h-0.063q-0.938-0.734-0.938-1.625zM17.75 22.781v-0.125q0.125-0.234 0.375-0.313 0.5 0.703 0.5 1v0.063q0 0.125-0.125 0.125-0.063 0-0.75-0.75zM18.688 15.594v-0.25q0.25-0.609 0.375-0.625 0.109 0 0.313 1.063 0.875 1.438 1.875 1.438 0.125 0.156 0.125 0.25-0.063 0.266-0.875 1.125-0.125 0-0.188-0.75h-0.125l-0.438 0.063q0-0.578-1.063-2.313zM18.813 12.281v-0.063q0.422-0.563 0.75-0.563h0.063q0.156 0 0.875 0.813 0 0.125-0.125 0.125h-0.5q-0.141 0-0.25 0.063-0.813-0.25-0.813-0.375zM19.375 14.844q0.156-0.438 0.25-0.438h0.25q1.781 0.313 2.75 0.625v0.125q-0.25 0.813-0.375 0.813l-0.313-0.563q-0.125 0-0.125-0.125-0.328 0.109-0.563 0.313-0.297-0.563-0.563-0.563-0.234-0.063-0.5-0.063-0.125 0.016-0.125 0.125v0.063q0 0.234 0.25 0.875 0.359 0 0.625-0.25h0.063q0.125 0.016 0.125 0.125v0.563q0.156 0 0.875-0.25 0 0.063 0.063 0.063-0.266 0.563-0.625 0.813-1.172-0.313-1.563-0.938-0.25-0.297-0.5-1.313zM19.563 11.219q0-0.094 0.188-0.188h0.063q1.938 0 2.75 1.063 0 0.188 0.125 0.625 0 0.078-0.625 0.625h-0.063q-0.609-0.422-2.438-2.125zM19.625 14.156v-0.063q0.297-0.5 1.125-0.5 0.641 0 1.063 0.938-0.125 0.063-0.188 0.063-0.953-0.313-1.688-0.375-0.109 0.063-0.25 0.063zM20 12.844q0.016-0.125 0.125-0.125 0.797 0.125 1.563 0.563v0.063l-0.438 0.313h-0.125q-0.797-0.453-1.125-0.813zM20.75 23.844v-0.25q0-0.094 0.25-0.25h0.125q1.438 0.547 1.438 0.625l0.125 0.188v0.313q0 0.156-1.25 0.25-0.266-0.219-0.688-0.875zM21.063 22.969q0.234-0.547 0.375-0.563h0.063q0.547 0.422 1.75 0.875 0.25 0.375 0.25 0.563v0.125q0 0.125-0.125 0.125h-0.125q-0.188 0-0.75-0.438-1.438-0.422-1.438-0.688zM21.625 13.906v-0.063q0.016-0.125 0.125-0.125 0.813 0.063 0.813 0.25v0.125q-0.094 0.688-0.25 0.688h-0.063q-0.391-0.641-0.625-0.875zM22.313 13.656v-0.125q0-0.078 0.375-0.313h0.125q0.188 0.063 0.188 0.375v0.063q0 0.125-0.188 0.125-0.188-0.125-0.5-0.125zM22.438 14.781q0.391-0.688 0.5-0.688l0.063 0.125v0.188q-0.125 0.563-0.313 0.563-0.25-0.094-0.25-0.188zM22.813 12.031q1-0.625 1.188-0.625v0.125q-0.516 0.703-0.938 1.125h-0.125q-0.125-0.5-0.125-0.625zM22.938 25.469q0.125-0.563 0.125-0.813v-0.25q0.016-0.125 0.125-0.125h0.188q0.125 0.016 0.125 0.125v0.313q-0.266 0.875-0.438 0.875-0.125 0-0.125-0.125zM23.563 23.344l0.125-0.063q0.422 0.172 0.563 0.438v0.125q0 0.125-0.125 0.125h-0.063q-0.5 0-0.5-0.625zM23.75 25.094q0-1 0.188-1h0.188q0.125 0.016 0.125 0.125v0.063q-0.25 0.813-0.438 0.813h-0.063z" fill="#000000"></path>
</svg>
