<?xml version="1.0" encoding="utf-8"?>
<!-- Generated by IcoMoon.io -->
<!DOCTYPE svg PUBLIC "-//W3C//DTD SVG 1.1//EN" "http://www.w3.org/Graphics/SVG/1.1/DTD/svg11.dtd">
<svg version="1.1" xmlns="http://www.w3.org/2000/svg" xmlns:xlink="http://www.w3.org/1999/xlink" width="41" height="32" viewBox="0 0 41 32">
<g id="icomoon-ignore">
	<line stroke-width="1" x1="" y1="" x2="" y2="" stroke="#449FDB" opacity=""></line>
</g>
	<path d="M1.563 11.125q0.359 0.891 1.094 1.578 0.828 0.766 1.688 0.734l0.578-0.031q-0.859-0.125-1.531-0.875-0.281-0.313-1.031-1.5l0.031-0.219q0.422 0.219 1.031 1.313 0.422 0.703 1.797 0.672-0.891-0.359-1.422-1.547-0.422-0.984-0.406-2.109 0-1.063 1.359-3.055t1.359-3.148q0-1.563-1.469-1.563-0.219 0-0.672 0.078t-0.672 0.078q-1.063 0-1.063-0.734l0.031-0.266q0.281-0.094 0.734-0.094l0.203 0.547 1.656-0.156q0.094-0.031 0.281-0.031 1.922 0 1.922 3.094 0 1.406-0.906 2.742t-0.906 2.164 0.609 1.719l0.828 0.297q0.672-0.219 1.156-0.766 0.313-0.391 1.945-0.898t2.242-0.508q0.672 0 1.188 0.281 0.094-0.031 0.563-0.281 0.359-0.219 0.578-0.203h0.203q0.359 0.188 1.203 1.406 2.016 0.188 2.219 0.422 0.281 0.797 0.578 1.594 0.578-0.094 0.984-0.094 2.141 0 5 1.125 3.453 0 6.234 2.594l0.547 0.094q0.797-1.031 1.891-1.375 0.828-0.281 2.328-0.297 1.25 0 2.656 0.359l0.25-0.063q0.859-0.922 1.672-0.922l0.516 0.125q-0.188 0.828-0.766 1.047-0.313 0.125-1.391 0.125-0.516 0-1.484-0.141t-1.453-0.141q-1.344 0-2.141 0.516-0.578 0.391-1.563 1.625 1.344 2.875 1.344 5.953 0.25 0.391 1.297 1.578 0.672 0.281 1.453 1.438 0.703 0.984 1.594 1.141 0.281 0.359 0.281 1.219-0.219 0.422-0.734 1.063-0.672 0.766-0.953 0.766-0.391 0-0.609-0.281-0.125-0.422-0.594-1.109t-0.594-1.109q-0.797-0.953-2.297-1.688-2.469-1.219-2.594-1.281-0.359 0.188-0.766 0.703-0.25 1.031-0.234 2.594 0.094 2.938 0.109 2.594v0.672q-0.547 0.641-1.313 0.641l-2.125-0.078-0.406-0.281q0.859-1.469 0.859-2.844 0-0.188-0.719-2.094t-0.875-2.172q-0.422 0.359-1.375 0.359-1.156 0-1.672-0.422-1.188 0.359-1.656 0.359-0.188 1.125-0.203 1.719 0 2.625 1.797 2.625 0.359 0.313 0.359 1.375 0 1.344-1.422 1.859l-0.641-0.125-0.125-0.828q-0.484-0.828-1.109-1.031-0.859-0.797-1.453-2.297-0.453-1.313-0.891-2.625-1.188 0.609-2.391 1.25-0.953 0.672-1.313 2.141l0.063 0.281q0 0.828-1.063 1.094-0.359 0.094-1.656 0.156l-0.297-0.156-0.156-0.578q0.891-0.797 0.984-1.719 0.094-1.188 0.336-1.586t1.719-1.906 1.539-1.664q-0.125-0.25-0.422-1.313-0.125-0.453-0.891-1.156-0.25-0.281-0.516-0.547-0.359-0.313-0.672-0.313-0.281 0-0.516 0.219l-0.281 0.031q-0.313-0.359-0.328-0.766 0-0.156 0.086-0.539t0.086-0.617q0-0.516-0.391-0.891-0.359-0.063-1.219-0.391-0.703-0.25-1.219-0.25-0.359 0-0.992-0.258t-1.023-0.258l0.516-0.703q-1.344 0-2.625-0.953-1.375-1.031-1.375-2.313z" fill="#000000"></path>
</svg>
