<?xml version="1.0" encoding="utf-8"?>
<!-- Generator: Adobe Illustrator 16.0.0, SVG Export Plug-In . SVG Version: 6.00 Build 0)  -->
<!DOCTYPE svg PUBLIC "-//W3C//DTD SVG 1.1//EN" "http://www.w3.org/Graphics/SVG/1.1/DTD/svg11.dtd">
<svg version="1.1" id="Layer_1" xmlns="http://www.w3.org/2000/svg" xmlns:xlink="http://www.w3.org/1999/xlink" x="0px" y="0px"
	 width="300px" height="300px" viewBox="0 0 300 300" enable-background="new 0 0 300 300" xml:space="preserve">
<path fill-rule="evenodd" clip-rule="evenodd" fill="#070606" d="M193.606,98.258c0.733-3.503-2.373-5.255-9.322-5.255
	c-5.029,0-7.544,1.751-7.544,5.255c0,3.333,2.515,5,7.544,5C189.765,103.258,192.872,101.591,193.606,98.258z M193.268,85.29
	c7.628,3.108,11.441,9.097,11.441,17.968c0,10.114-2.146,19.409-6.44,27.884c-4.182,8.476-8.843,12.713-13.984,12.713
	c-5.029,0-11.781-2.147-20.257-6.442c-8.419-4.181-15.144-8.842-20.172-13.984h30.427c-1.695-4.972-4.266-10.029-7.712-15.17
	c-6.668-10.17-14.239-15.256-22.715-15.256l11.441-5c8.363-3.446,14.691-5.17,18.985-5.17
	C182.758,82.833,189.086,83.652,193.268,85.29z M231.322,98.003c18.531,13.618,29.945,28.902,34.239,45.853
	c5.48,21.584,5.057,40.541-1.271,56.869c-6.949,18.023-20.086,29.494-39.41,34.41c-11.074,2.711-24.776,4.746-41.105,6.102
	c-8.871,0.68-15.68,3.42-20.426,8.221c-5.48,5.482-12.233,13.902-20.257,25.258l-10.339,15.51c0.679-4.633,0.96-9.689,0.848-15.17
	c-0.227-11.246-2.486-19.24-6.78-23.984c-4.294-4.805-11.583-10.482-21.867-17.037l-14.069-8.561l11.95,3.051
	c10.622,1.92,22.63,2.742,36.02,2.459c17.742-0.227,32.772-1.949,45.09-5.17c14.408-3.559,24.013-8.93,28.816-16.104
	c6.328-9.211,9.181-18.814,8.56-28.816c-0.679-12.148-6.949-20.85-18.814-26.105l13.306-5.168
	c8.307-5.537,11.441-13.617,9.407-24.239c-2.486-13.335-6.638-24.41-12.458-33.224l-8.052-9.323L231.322,98.003z M197.335,71.729
	c-10.623-1.921-22.657-2.769-36.105-2.542c-17.798,0.396-32.855,2.147-45.172,5.255c-14.408,3.673-24.014,9.041-28.816,16.103
	c-6.272,9.153-9.126,18.759-8.561,28.816c0.735,12.148,7.007,20.85,18.816,26.104c-4.521,0.735-8.955,2.458-13.307,5.17
	c-8.305,5.479-11.442,13.532-9.407,24.155c2.486,13.504,6.64,24.605,12.459,33.307c2.995,4.408,5.706,7.459,8.136,9.152
	c-8.532-3.334-17.431-8.418-26.697-15.254c-18.533-13.447-29.947-28.646-34.241-45.598c-5.368-21.753-4.944-40.795,1.271-57.124
	c6.949-17.911,20.086-29.296,39.411-34.156c11.074-2.769,24.775-4.802,41.105-6.102c8.871-0.734,15.679-3.475,20.425-8.221
	c8.759-8.701,18.985-22.375,30.682-41.021L166.399,25.2c0.227,11.188,2.486,19.126,6.78,23.815
	c6.895,7.628,18.873,16.16,35.936,25.596C206.517,73.65,202.59,72.69,197.335,71.729z M217.762,132.414
	c-2.543,5.481-7.742,10.001-15.595,13.561l-11.103,3.814l12.034-15.256c7.516-11.921,10.002-22.403,7.459-31.444l5.762,9.832
	C219.767,120.435,220.246,126.933,217.762,132.414z M200.896,167.332c-2.486,0.451-4.973,2.232-7.459,5.34l-2.882,4.492
	c-0.338-2.26,0.027-6.074,1.103-11.443c0.678-3.504,2.514-5.848,5.509-7.033c1.526-0.566,2.966-0.791,4.322-0.678l1.949,4.236
	C204.285,165.127,203.438,166.822,200.896,167.332z M293.445,141.143l-17.543,0.593l-6.951-13.137h21.698L293.445,141.143z
	 M287.344,123.599l-21.104,1.271c-1.526-5.819-3.729-10.17-6.611-13.051l9.153-0.679c6.554,0.113,10.962,1.78,13.222,5
	L287.344,123.599z M287.344,175.893l-10.849-0.508l1.018-7.545l13.561,0.51L287.344,175.893z M274.884,181.996h8.73l-1.103,4.83
	l-9.236,0.508L274.884,181.996z M275.902,147.584l19.662,1.103l-3.729,12.544l-14.322-1.102L275.902,147.584z M199.116,211.488
	c0,4.521-2.318,7.205-6.951,8.053c-3.729,0.732-7.544-1.357-11.441-6.273l-4.831-7.287l2.882,2.117
	c2.881,1.188,6.809,1.02,11.78-0.508C196.262,205.783,199.116,207.08,199.116,211.488z M22.489,132.414L8.928,131.82l3.729-7.628
	l10.932,0.508L22.489,132.414z M8.334,138.854l14.155,1.271l1.611,12.289l-19.664-1.017L8.334,138.854z M25.2,118.26h-8.814
	l1.102-5.001l9.323-0.508L25.2,118.26z M12.658,176.4l21.273-1.016l1.61,4.998c1.468,3.561,3.079,6.244,4.831,8.053
	c-2.711,0.564-5.764,0.791-9.154,0.678c-6.553-0.113-10.96-1.779-13.221-5L12.658,176.4z M9.437,171.57l-2.882-12.545l17.545-0.508
	l6.949,13.053H9.437z M109.446,92.664c-5.706,1.809-8.56,0.509-8.56-3.898c0.113-4.577,2.43-7.26,6.949-8.052
	c3.729-0.735,7.543,1.328,11.442,6.187c2.034,2.429,3.673,4.887,4.917,7.374c-0.508-0.848-1.47-1.554-2.882-2.119
	C118.429,90.969,114.475,91.138,109.446,92.664z M96.817,137.922c-0.847-2.825-0.028-4.492,2.458-5
	c3.955-0.734,7.345-4.012,10.17-9.831v2.712c0,2.373-0.339,5.283-1.017,8.729c-0.735,3.447-2.542,5.792-5.424,7.035l-4.238,0.678
	C97.807,140.945,97.156,139.504,96.817,137.922z M82.24,167.84c2.542-5.48,7.74-10.029,15.595-13.645
	c3.955-1.865,7.656-3.164,11.103-3.899c-4.294,4.182-8.307,9.239-12.036,15.172c-7.514,12.09-10,22.656-7.457,31.695
	c-2.147-2.711-4.069-5.988-5.764-9.83C80.234,179.82,79.754,173.322,82.24,167.84z M135.974,162.84
	c8.475,4.182,15.255,8.842,20.341,13.984h-30.598l7.714,15.172c6.837,10.113,14.465,15.17,22.884,15.17
	c-13.561,6.725-23.759,10.084-30.598,10.084c-8.305,0-14.605-0.848-18.899-2.541c-7.628-3.105-11.442-9.012-11.442-17.713
	c0-10.113,2.119-19.408,6.356-27.885c4.182-8.475,8.843-12.713,13.984-12.713C120.747,156.398,127.499,158.545,135.974,162.84z
	 M123.261,202.166c0-3.447-2.515-5.17-7.543-5.17c-5.481,0-8.503,1.723-9.07,5.17c-0.733,3.334,2.29,5,9.07,5
	C120.747,207.166,123.261,205.5,123.261,202.166z"/>
</svg>
