<?xml version="1.0" encoding="utf-8"?>
<!-- Generator: Adobe Illustrator 16.0.0, SVG Export Plug-In . SVG Version: 6.00 Build 0)  -->
<!DOCTYPE svg PUBLIC "-//W3C//DTD SVG 1.1//EN" "http://www.w3.org/Graphics/SVG/1.1/DTD/svg11.dtd">
<svg version="1.1" id="Layer_1" xmlns="http://www.w3.org/2000/svg" xmlns:xlink="http://www.w3.org/1999/xlink" x="0px" y="0px"
	 width="300px" height="300px" viewBox="0 0 300 300" enable-background="new 0 0 300 300" xml:space="preserve">
<path fill-rule="evenodd" clip-rule="evenodd" fill="#6EC179" d="M257.003,147.723c0-0.419,0.209-0.853,0.629-1.3
	c0.335-0.335,0.719-0.636,1.152-0.901l2.959-1.405c0.278-0.112,0.69-0.154,1.235-0.126c0.519,0,0.909,0.063,1.176,0.189l4.067,1.741
	l1.573,0.125c0.657,0.098,1.371-0.056,2.14-0.461c0.405-0.224,0.929-0.601,1.572-1.132c0.279-0.377,0.565-0.413,0.859-0.105
	s0.315,0.608,0.063,0.902l-0.188,0.104l-0.169,0.567c-0.166,0.559-0.727,1.055-1.678,1.489c-0.853,0.405-1.62,0.587-2.307,0.545
	c-0.571-0.042-0.991-0.084-1.259-0.126c-0.488-0.056-0.894-0.161-1.215-0.314l-3.943-1.594c-0.629-0.266-1.558-0.098-2.789,0.503
	c-0.992,0.49-1.775,1.021-2.348,1.594l-0.21,0.21l-0.189,0.105c-0.195,0.167-0.42,0.147-0.672-0.063
	C257.38,148.184,257.227,148.003,257.003,147.723z M247.523,150.261c0.517,1.817,1.14,2.881,1.866,3.188
	c-0.224-0.125-0.301-0.342-0.23-0.65c0.07-0.447,0.049-0.782-0.063-1.006C248.607,150.799,248.083,150.289,247.523,150.261z
	 M244.755,147.87c0.085-1.678,0.098-2.97,0.042-3.879c-0.084-1.607-0.461-2.789-1.133-3.544c-1.397-1.622-2.46-1.356-3.188,0.796
	c-0.042,0.07-0.377,1.72-1.007,4.949c-0.056,0.28-0.476,0.511-1.258,0.692s-1.174,0.167-1.174-0.042
	c-0.015-2.46-0.218-4.243-0.609-5.348c-0.67-2.041-1.991-2.895-3.964-2.559c-0.796,0.14-1.048,0.063-0.754-0.231
	c0.308-0.307,0.728-0.503,1.258-0.587c2.545-0.434,4.328,0.188,5.348,1.866c0.098,0.168,0.195,0.35,0.294,0.545
	c0.615-1.006,1.51-1.657,2.685-1.95c1.775-0.476,3.194-0.216,4.257,0.776c0.992,0.922,1.531,2.314,1.615,4.174
	c0.015,0.307,0,1.349-0.043,3.125c-0.013,0.993,0.035,1.832,0.147,2.517c1.524-0.266,2.804,0.23,3.837,1.489
	c1.12,1.328,0.868,2.439-0.755,3.334c-1.831,1.008-3.277,0.665-4.34-1.026c-0.196-0.336-0.385-0.692-0.567-1.071
	c-0.265,0.393-0.538,0.868-0.816,1.428c-0.588,1.118-1.027,1.915-1.321,2.39c-0.545,0.84-1.141,1.531-1.783,2.077
	c-0.238,0.182-0.72,0.307-1.447,0.377c-0.755,0.083-1.014,0.028-0.775-0.167c0.699-0.574,1.831-2.259,3.397-5.056
	c0.671-1.202,1.433-2.117,2.285-2.746C244.832,149.471,244.755,148.695,244.755,147.87z M257.967,151.854
	c-0.307-0.056-0.44-0.287-0.398-0.692c0.309-0.74,0.909-1.383,1.805-1.929c0.824-0.517,1.732-0.832,2.726-0.944
	c0.769-0.098,1.587,0,2.453,0.294l4.635,1.741l1.007,0.063c0.056,0,0.175,0.007,0.357,0.022c0.182,0,0.307-0.028,0.376-0.084
	l0.463-0.063l3.544-1.405c0.182,0.965-0.224,1.776-1.218,2.433c-0.88,0.56-1.901,0.859-3.061,0.901
	c-0.979,0.043-2.133-0.188-3.46-0.691c-1.691-0.686-2.79-1.076-3.293-1.174c0-0.042-0.021-0.063-0.063-0.063
	c-0.058,0.028-0.084,0.028-0.084,0l-0.188-0.104h-1.091c-0.295-0.07-0.504-0.057-0.63,0.042c-0.167,0-0.363,0.063-0.587,0.188
	c-0.252,0.126-0.434,0.217-0.546,0.273l-1.51,0.923l-0.041,0.104l-0.127,0.105c-0.363,0.139-0.559,0.209-0.587,0.209
	C258.239,152.058,258.079,152.009,257.967,151.854z M288.04,142.208c0.378,0.293,0.798,1.042,1.258,2.244
	c0.42,1.091,0.931,1.727,1.531,1.909c0.042-0.057,0.111-0.077,0.21-0.063c0.14,0,0.224-0.007,0.252-0.021
	c0.042-0.042,0.077-0.042,0.104,0c0.042,0.042,0.077,0.042,0.105,0l0.629-0.105c0.195-0.098,0.272-0.23,0.23-0.399
	c0.434-1.397,0.755-2.286,0.965-2.663c0.251-0.434,0.565-1.119,0.943-2.056c0.406-0.713,1-1.097,1.782-1.153
	c0.504,0.14,0.811,0.538,0.923,1.195c0.111,0.657-0.133,1.084-0.732,1.279c-0.169,0.14-0.344,0.371-0.525,0.692
	c-0.195,0.364-0.336,0.588-0.419,0.671c-0.378,1.161-0.573,1.769-0.587,1.824c0.027,0.098,0.32,0.301,0.879,0.608
	c0.462,0.237,0.693,0.566,0.693,0.985v0.797c0,0.182-0.146,0.308-0.441,0.377c-0.278,0.083-0.523,0.069-0.733-0.042
	c-0.629-0.153-0.999-0.027-1.111,0.378c-0.07,0.21-0.105,0.608-0.105,1.195c0.308,2.125,0.776,3.532,1.406,4.215
	c0.083,0,0.125,0.042,0.125,0.126c0.112,0.126,0.252,0.286,0.419,0.482c0.155,0.195,0.238,0.385,0.252,0.565
	c0,0.042,0.021,0.147,0.063,0.315c0.015,0.127-0.021,0.252-0.105,0.377c-1.327,0.224-2.341-0.565-3.04-2.37
	c-0.364-0.978-0.706-2.627-1.027-4.948c-0.351-0.056-0.679-0.056-0.985,0c-0.379,0.07-0.651,0.104-0.819,0.104
	c0,1.734-0.229,3.223-0.692,4.467c-0.544,1.468-1.376,2.469-2.495,2.999c-0.251,0.112-0.532,0.118-0.839,0.021
	c-0.335-0.098-0.503-0.287-0.503-0.566l-0.189-0.104c0.014-0.072,0.008-0.141-0.02-0.211c-0.057-0.056-0.078-0.119-0.063-0.189
	c-0.056-0.042-0.063-0.076-0.021-0.105c0.028-0.026,0.035-0.062,0.021-0.104l2.076-2.538c0.266-0.447,0.461-0.992,0.587-1.635
	l0.294-1.636c-0.476-0.167-0.832-0.321-1.069-0.461c-0.475-0.293-0.748-0.664-0.818-1.112c0-0.251,0.057-0.489,0.168-0.713
	c0.098-0.279,0.224-0.419,0.377-0.419h1.343c-0.126-1.146-0.531-2.076-1.216-2.789c-0.952-0.741-1.686-1.364-2.203-1.866
	l-0.252-0.273c-0.069-0.083-0.118-0.238-0.146-0.461c0-0.237-0.014-0.392-0.042-0.461c0.07-0.392,0.462-0.483,1.175-0.273
	C286.586,140.831,287.384,141.467,288.04,142.208z M190.795,142.208c0.629-0.461,1.286-0.692,1.972-0.692
	c1.216,0.042,2.02,1.14,2.411,3.293c0.183,1.021,0.141,2.698-0.125,5.033c-0.07,2.628,0.615,3.215,2.055,1.761
	c0.797-0.797,1.776-2.16,2.936-4.089c0.029,0,0.05-0.063,0.063-0.188c0.028-0.07,0.077-0.105,0.146-0.105
	c0-0.112,0.021-0.168,0.063-0.168c0.266-0.349,0.3-0.524,0.104-0.524c-0.182,0-0.405,0.105-0.671,0.314
	c-0.308,0.07-0.496,0.105-0.565,0.105c-0.238,0.028-0.399-0.007-0.482-0.105c-0.267-0.112-0.44-0.217-0.525-0.314
	c-0.167-0.154-0.287-0.356-0.355-0.608c-0.015-0.224,0.118-0.427,0.397-0.608c0.168-0.098,0.434-0.217,0.797-0.356l0.588-0.566
	c0.056,0,0.104-0.035,0.146-0.105c0.027-0.014,0.041-0.014,0.041,0c0.379-0.154,0.806-0.629,1.281-1.426
	c0.432-0.727,0.874-1.112,1.32-1.153c0.266,0,0.476,0.09,0.629,0.273c0.07,0.111,0.202,0.272,0.398,0.482l0.272,0.293
	c0.028,0.517,0.155,1.314,0.378,2.391c0.237,1.272,0.384,2.132,0.44,2.58c0.126,0.308,0.063,0.622-0.188,0.944
	c-0.252,0.308-0.51,0.391-0.776,0.251c-0.377-0.042-0.664-0.167-0.859-0.377c-0.098-0.167-0.175-0.412-0.23-0.734
	c0-0.279-0.12-0.224-0.357,0.167c-0.308,0.573-0.503,0.888-0.587,0.944c-0.839,1.636-1.747,2.929-2.727,3.879l-0.146,0.273
	l-0.125,0.083c-0.21,0.07-0.596,0.385-1.154,0.944c-0.405,0.391-0.902,0.587-1.489,0.587c-0.756,0.07-1.426-0.196-2.014-0.797
	c-0.558-0.573-0.839-1.258-0.839-2.055l0.043-6.376c0-0.475-0.049-0.895-0.147-1.258c-0.14-0.629-0.384-0.769-0.734-0.419
	c-0.461,0.21-0.866,0.657-1.215,1.343c-0.351,0.657-0.525,1.335-0.525,2.034v2.852c0,2.377-0.419,3.307-1.258,2.789l-1.069-0.67
	v-3.67c0.042-0.336,0.063-0.993,0.063-1.971l-0.126-1.28c-0.056-0.643-0.265-0.811-0.629-0.503
	c-0.015,0.083-0.069,0.146-0.168,0.188c-0.07,0.014-0.105,0.056-0.105,0.126c-0.46,0.419-0.831,1.23-1.11,2.432
	c-0.238,0.993-0.357,1.909-0.357,2.748v1.404c0,1.146-0.146,1.853-0.439,2.118l-0.146,0.168c-0.21-0.111-0.379-0.133-0.504-0.063
	c-0.504,0.028-0.853-0.125-1.049-0.461c-0.139-0.266-0.209-0.706-0.209-1.321v-2.034c0-1.077,0.021-1.761,0.062-2.055
	c0.183-2.293-0.055-3.53-0.712-3.712c-0.504-0.168-1.503,0.342-2.999,1.53c-0.279-0.139-0.455-0.244-0.524-0.314
	c-0.168-0.153-0.237-0.37-0.209-0.649c0.055,0,0.076-0.049,0.063-0.147l-0.063-0.21c0.139-0.07,0.209-0.167,0.209-0.293
	c0.084-0.112,0.126-0.224,0.126-0.335c0.657-0.867,1.133-1.405,1.426-1.615c0.657-0.559,1.434-0.79,2.328-0.692
	c0,0.042,0.049,0.063,0.146,0.063c0.21,0.154,0.504,0.364,0.882,0.629c0.294,0.238,0.489,0.49,0.587,0.755
	c0.126,0.014,0.266,0.23,0.419,0.65c0.112,0.279,0.218,0.287,0.315,0.021l0.146-0.083c0.28-0.126,0.587-0.392,0.923-0.797
	c0.363-0.293,0.839-0.413,1.426-0.356c0.504,0.167,0.916,0.412,1.237,0.734l0.294,0.293
	C189.72,143.214,190.18,142.809,190.795,142.208z M177.079,148.458c0.029,0.545-0.153,0.908-0.545,1.09
	c-0.294,0.168-0.804,0.231-1.531,0.189l-1.069-0.105c-1.188-0.056-2.383,0.021-3.586,0.23c-0.531,0.196-0.985,0.133-1.362-0.188
	c-0.363-0.294-0.573-0.699-0.63-1.216c0.126-0.057,0.175-0.147,0.146-0.273c-0.055-0.237-0.068-0.412-0.042-0.524
	c-0.069,0-0.104-0.049-0.104-0.146c0.057,0,0.084-0.07,0.084-0.21c0-0.168-0.027-0.252-0.084-0.252
	c0.043-0.112,0.028-0.209-0.042-0.293c-0.042-0.098-0.063-0.188-0.063-0.272c-0.04,0-0.084-0.014-0.125-0.042l-0.063-0.063
	c0-0.07-0.048-0.273-0.146-0.609l-0.125-0.083c-0.084-0.042-0.294-0.224-0.629-0.545c-0.224-0.21-0.518-0.314-0.883-0.314
	c-1.537-0.251-2.642,0.168-3.312,1.258c-0.574,1.412-1.028,2.439-1.364,3.083c-0.084,0.083-0.251,0.104-0.503,0.063
	c-0.21-0.027-0.35-0.084-0.42-0.167h-6.668c-0.252-0.224-0.427-0.455-0.525-0.692c-0.098-0.266-0.14-0.552-0.125-0.86
	c0.014-0.336,0.111-0.587,0.294-0.755l5.683-0.083c0.615,0,0.965-0.105,1.049-0.314c0.083-0.154,0.229-0.496,0.439-1.028
	l0.147-0.209c0.545-0.895,1.105-1.545,1.678-1.951c0.644-0.434,1.546-0.734,2.705-0.902c1.314,0,2.447,0.469,3.397,1.406
	c0.966,0.964,1.447,2.132,1.447,3.502l6.229-0.083c0.167,0,0.32,0.188,0.46,0.566C176.961,147.87,177.024,148.136,177.079,148.458z
	 M177.311,152.338c0.112,0.46,0.035,0.804-0.231,1.026c-0.167,0.168-0.37,0.279-0.607,0.336c-0.251,0.083-0.483,0.035-0.692-0.146
	c-0.965-0.084-1.629-0.099-1.992-0.042c-1.244-0.126-2.202-0.126-2.872,0c-0.546-0.099-1.203-0.14-1.973-0.126
	c-1.02,0.056-1.838,0.098-2.454,0.126l-8.367,0.271c-1.174,0.112-2.041,0.147-2.6,0.105c-1.049-0.083-1.671-0.398-1.866-0.944
	l-0.169-0.083c-0.083-0.14-0.098-0.307-0.041-0.504c0.21-0.712,1.343-1.11,3.396-1.195c1.175-0.056,2.971-0.035,5.391,0.063
	l14.7-0.146C177.018,151.372,177.143,151.792,177.311,152.338z M208.266,149.799l2.852-1.678l1.824-0.335
	c0.308-0.056,0.699-0.077,1.174-0.063c0.266,0.014,0.651,0.049,1.153,0.105l1.699,0.356c0.504,0.238,0.775,0.168,0.817-0.209
	c0.084,0.056,0.146,0.035,0.189-0.063l0.084-0.272l0.125-0.063l0.357-0.692l0.21-0.083c0-0.014,0.014-0.028,0.041-0.042
	c0-0.042-0.014-0.09-0.041-0.147c0.069-0.042,0.146-0.125,0.229-0.251l0.44-0.671c0.197-0.322,0.309-0.531,0.335-0.629
	c0.044-0.042,0.112-0.139,0.21-0.293c0.183-0.182,0.134-0.182-0.146,0l-0.21,0.147c-0.097,0.056-0.146,0.125-0.146,0.21
	l-0.252,0.083c-0.209,0.294-0.53,0.532-0.964,0.713c-0.434,0-0.763-0.098-0.985-0.294c-0.21-0.195-0.266-0.433-0.169-0.713
	c0-0.14,0.078-0.273,0.231-0.399c0.237-0.209,0.37-0.321,0.398-0.335l5.809-5.034c0.35-0.308,0.728-0.209,1.133,0.293
	c0.393,0.518,0.546,0.93,0.461,1.238c-0.042,0.28-0.153,0.727-0.336,1.342c-0.152,0.503-0.229,0.951-0.229,1.342
	c-0.112,0.182-0.175,0.524-0.189,1.028c-0.014,0.517-0.076,0.873-0.188,1.069c-0.057,0.084-0.12,0.105-0.188,0.063
	c-0.267,0.182-0.483,0.238-0.65,0.167l-0.818-0.356l-0.043-0.273c-0.069,0-0.104-0.048-0.104-0.146l-0.105-0.147
	c0-0.126-0.048-0.147-0.146-0.063c-0.559,0.727-1.006,1.307-1.341,1.74c-0.602,0.797-0.944,1.405-1.029,1.825l-0.083,0.251
	l-0.126,0.083c-0.111,0.602,0.385,1.413,1.49,2.434c1.216,1.132,1.894,2.104,2.033,2.915l0.146,0.083
	c0,0.197,0.057,0.413,0.168,0.65c0.057,0.126,0.141,0.315,0.252,0.565l-0.146,0.147c-0.07,0.28-0.188,0.483-0.356,0.608
	c-0.154,0.083-0.427,0.125-0.817,0.125c-0.546-0.125-0.973-0.474-1.279-1.048c-0.127-0.279-0.309-0.832-0.547-1.657
	c-0.405-0.629-0.726-1.069-0.964-1.321c-0.392-0.475-0.818-0.831-1.279-1.068c-0.183-0.14-0.356-0.077-0.524,0.188
	c-0.14,0.336-0.258,0.566-0.356,0.692l-0.146,0.125c0,0.099-0.042,0.146-0.127,0.146c-0.349,0.63-0.643,1.154-0.881,1.574
	c-0.475,0.74-0.83,1.167-1.069,1.277h-0.166c-0.044,0.043-0.176,0.219-0.4,0.525c-0.153,0.21-0.384,0.336-0.692,0.377
	c-0.292,0.169-0.565,0.077-0.817-0.272c-0.265-0.335-0.21-0.566,0.169-0.691c0.307-0.629,0.824-1.461,1.551-2.495
	c0.742-1.021,1.238-1.797,1.489-2.328c-0.099-0.14-0.294-0.224-0.587-0.252c-0.405-0.042-0.644-0.077-0.712-0.105
	c-1.902,0-3.146,0.3-3.734,0.901l-2.58,2.244l-1.698,2.895c-0.644-0.195-1.033-0.342-1.174-0.44
	c-0.392-0.237-0.546-0.572-0.462-1.006c0.14-0.195,0.252-0.539,0.335-1.028c0.071,0,0.105-0.076,0.105-0.23
	C206.649,151.358,207.481,150.247,208.266,149.799z M112.781,145.417c-0.783-0.405-1.461-0.602-2.034-0.587
	c-0.825,0.014-1.335,0.524-1.531,1.531c-0.21,1.104-0.105,2.027,0.314,2.768c0.392,0.713,0.979,1.175,1.762,1.385
	c0.853,0.251,1.384-0.091,1.594-1.028c0.167-0.797,0.167-1.818,0-3.062C112.844,146.087,112.809,145.752,112.781,145.417z
	 M116.325,137.887c1.077-0.153,2.104-0.077,3.083,0.231c1.231,0.35,1.972,0.979,2.224,1.887c0.279,1.021,0.217,2.182-0.188,3.481
	c-0.21,0.783-0.671,1.88-1.384,3.293c-1.035,2.083-1.678,3.453-1.93,4.11c-0.602,1.719-0.699,3.202-0.294,4.446
	c0.392,1.286,1,1.972,1.825,2.056c0.504,0.027,0.888-0.419,1.154-1.343c0.168-0.671,0.245-1.293,0.23-1.866
	c0-0.377,0.363-0.644,1.091-0.797c0.74-0.168,1.111-0.105,1.111,0.188c0,1.288-0.384,2.377-1.154,3.272
	c-0.727,0.811-1.607,1.301-2.642,1.468c-1.062,0.169-1.958-0.056-2.684-0.67c-0.826-0.686-1.266-1.741-1.321-3.168
	c-0.056-1.537,0.447-3.383,1.51-5.536c1.356-2.754,2.139-4.53,2.348-5.327c0.294-1.133,0.343-2.077,0.147-2.831
	c-0.266-1.007-0.958-1.587-2.076-1.741c-1.272-0.168-2.104,0.112-2.496,0.839c-0.308,0.531-0.377,1.454-0.209,2.768
	c0.042,0.476,0.14,1.153,0.293,2.035c0,0.112,0.021,0.238,0.063,0.377c0.07,0.476,0.154,1.014,0.251,1.615
	c0.126,1.664-0.175,2.922-0.902,3.775c-0.671,0.727-1.656,1.153-2.957,1.279c-1.328,0.141-2.37-0.111-3.125-0.755
	c-0.839-0.755-1.292-1.727-1.363-2.915c-0.084-1.175,0.245-2.209,0.986-3.104c0.796-0.979,1.908-1.447,3.334-1.405
	c0.462,0.027,0.902,0.083,1.322,0.167c-0.112-1.272-0.112-2.188,0-2.748C112.949,139.181,114.2,138.153,116.325,137.887z
	 M136.709,142.963c-0.363,0.643-0.545,1.265-0.545,1.866v3.502c0,0.364-0.056,0.685-0.167,0.964
	c-0.167,0.434-0.434,0.58-0.796,0.441l-0.671-0.315l-0.462-0.545c-0.139-0.14-0.195-0.336-0.167-0.588l-0.063-1.593
	c-0.056-0.014-0.077-0.105-0.063-0.273c0.028-0.153,0.007-0.251-0.063-0.293c0.028-0.07,0.028-0.154,0-0.252l-0.063-0.23v-0.755
	c-0.013,0.042-0.021,0.021-0.021-0.063v-0.021c-0.07-0.238-0.104-0.566-0.104-0.986c-0.057,0-0.078-0.042-0.063-0.126
	c0-0.14-0.007-0.231-0.021-0.272l-0.167-0.252c0.042-0.084,0.042-0.188,0-0.314c-0.042-0.098-0.042-0.196,0-0.293
	c-0.14-0.112-0.21-0.252-0.21-0.419c-0.042-0.294-0.182-0.531-0.419-0.713c-0.265-0.168-0.559-0.168-0.881,0
	c-0.279,0.042-0.51,0-0.692-0.125c-0.112-0.07-0.252-0.217-0.419-0.44c-0.335-0.252-0.329-0.503,0.021-0.755
	c0.266-0.195,0.587-0.314,0.965-0.356c0.783,0.098,1.58,0.447,2.391,1.048c0.098,0.042,0.287,0.245,0.566,0.609
	c0.154,0.238,0.322,0.224,0.504-0.042c0.308-0.615,0.866-1.035,1.678-1.258c0.615,0.042,1.314,0.252,2.097,0.629
	c0.643,0.167,1.174-0.105,1.593-0.818l0.588-0.252c0.014-0.014,0.062-0.014,0.146,0c0.07,0.028,0.104,0.007,0.104-0.063l0.504-0.063
	l0.314,0.126c0.014,0.028,0.042,0.042,0.084,0.042c0.014-0.028,0.021-0.014,0.021,0.042c0.182,0,0.37,0.077,0.565,0.23l0.252,0.084
	v0.105l0.315,0.063c0.32,0.112,0.587-0.021,0.797-0.398c0.224-0.433,0.53-0.65,0.922-0.65c0.126-0.168,0.434-0.252,0.923-0.252
	c0.923,0,1.72,0.371,2.392,1.112c0.643,0.727,0.894,1.509,0.754,2.349c-0.111,1.369-0.447,2.614-1.006,3.732
	c-0.335,0.657-0.979,1.649-1.93,2.978l-2.453,3.313c-0.322,0.434-0.896,1.286-1.72,2.559c-0.797,1.133-1.461,1.888-1.993,2.265
	l-0.377-0.104l-0.231-0.125c-0.251-0.085-0.44-0.246-0.565-0.483c-0.14-0.266-0.161-0.531-0.063-0.797
	c0.336-0.63,0.832-1.37,1.489-2.223l2.139-2.748c-0.027-0.028-0.027-0.063,0-0.105c0.043-0.014,0.063-0.035,0.063-0.063l0.545-0.608
	c0-0.126-0.14-0.342-0.419-0.65c-0.238-0.28-0.321-0.545-0.252-0.797l0.126-0.524c0-0.126,0.028-0.188,0.083-0.188
	c-0.042-0.168-0.042-0.335,0-0.503c0.028-0.224,0.043-0.371,0.043-0.441c-0.028-0.447-0.008-0.699,0.063-0.755
	c0.015-0.028,0.021-0.063,0.021-0.105c0.014-0.028-0.014-0.042-0.084-0.042c0-0.266,0.021-0.398,0.063-0.398
	c0-0.713-0.035-1.342-0.105-1.887c0-0.266-0.118-0.853-0.355-1.762c-0.321-0.294-0.728-0.133-1.217,0.482
	c-0.476,0.587-0.713,1.167-0.713,1.741v4.949c0,0.153-0.133,0.279-0.398,0.377c-0.21,0.07-0.384,0.105-0.524,0.105
	c-0.896,0.028-1.342-0.699-1.342-2.181v-0.881c-0.028,0-0.042-0.133-0.042-0.398c0.07,0,0.084-0.049,0.042-0.147v-0.901h0.063
	c0.014-0.057,0.021-0.098,0.021-0.126c0-0.084-0.027-0.126-0.083-0.126c0-0.084,0.021-0.125,0.063-0.125
	c0-0.126-0.021-0.189-0.063-0.189c0-0.279-0.035-0.608-0.105-0.985c-0.098-0.448-0.168-0.77-0.21-0.965
	C137.422,142.173,137.087,142.305,136.709,142.963z M144.973,142.103c-0.28,0.587-0.356,1.182-0.23,1.783
	c0.098,0.308,0.111,0.972,0.042,1.992c-0.07,0.965-0.042,1.56,0.083,1.783c0.112-0.237,0.336-0.615,0.671-1.132
	c0.309-0.475,0.532-0.874,0.672-1.195c0.07-0.112,0.104-0.196,0.104-0.251l0.126-0.126c0.321-0.377,0.545-1.209,0.672-2.496
	c0.125-0.629,0.104-1.118-0.063-1.468c-0.21-0.406-0.58-0.469-1.112-0.189C145.462,141.334,145.14,141.768,144.973,142.103z
	 M59.535,137.615c0.545,0.251,1.286,0.817,2.223,1.699c0.993,0.699,2.118,0.964,3.376,0.796c0.378-0.027,0.986-0.048,1.825-0.063
	c0.755-0.042,1.314-0.14,1.678-0.294l2.747-1.363c0.21,0.126,0.384,0.314,0.524,0.566c0.167,0.238,0.252,0.448,0.252,0.629
	c-0.028,0.392-0.28,0.707-0.755,0.944c-0.266,0.14-0.741,0.329-1.427,0.566l-0.629,0.315v3.292c0,0.251-0.042,0.657-0.125,1.216
	v2.474c0,1.692,0.021,2.894,0.063,3.607c0.083,1.133,0.244,2.146,0.482,3.04c1.035,0.756,1.832,1.524,2.391,2.309
	c0.027,0.237-0.126,0.53-0.461,0.881c-0.587-0.057-0.972-0.23-1.154-0.524c0-0.111-0.125-0.231-0.377-0.356
	c-0.252-0.112-0.44-0.168-0.566-0.168l-2.831-0.23c-0.755-0.057-1.671,0.104-2.748,0.482c-0.979,0.363-1.713,0.74-2.202,1.132
	c-0.462,0.07-0.805-0.105-1.028-0.524c-0.182-0.378-0.209-0.762-0.084-1.153c0.209-0.099,0.664-0.293,1.363-0.587
	c0.545-0.224,0.951-0.44,1.217-0.65c-0.084-0.336-0.126-0.692-0.126-1.069c0.028-0.629,0.028-1.027,0-1.195
	c-0.042-0.084-0.063-0.272-0.063-0.566c-0.042-0.308-0.042-0.481,0-0.524c-0.07-0.112-0.098-0.343-0.084-0.692
	c0.056-0.35,0.035-0.573-0.063-0.67c0-0.112,0.021-0.168,0.063-0.168v-4.404c0-0.014,0.028-0.259,0.084-0.734
	c0-0.28-0.028-0.503-0.084-0.671c0.084-0.21,0.112-0.601,0.084-1.175c0-0.544,0.021-0.93,0.063-1.153
	c-0.014-0.027-0.035-0.258-0.063-0.692c-0.042-0.321-0.196-0.44-0.462-0.356c0-0.042-0.014-0.063-0.042-0.063
	c-0.056,0.014-0.105,0.014-0.146,0l-0.168-0.104c-0.769-0.489-1.307-0.832-1.615-1.028c-0.476-0.363-0.867-0.846-1.174-1.447
	c-0.07-0.336-0.126-0.587-0.167-0.755C59.325,137.944,59.395,137.754,59.535,137.615z M43.596,141.033
	c0.279-0.111,0.566-0.72,0.86-1.824c0.196-0.853,0.699-1.063,1.51-0.629c0.154,0.112,0.28,0.335,0.378,0.671
	c0.14,0.434,0.23,0.686,0.272,0.755c-0.083,1.216-0.468,2.23-1.153,3.041c-0.027,0.168-0.314,0.448-0.86,0.839
	c-0.391,0.294-0.342,0.545,0.147,0.755l0.063,0.126c0.056,0,0.084,0.049,0.084,0.147l0.189,0.23c0.629,0.629,0.999,1.133,1.111,1.51
	c0.405,0.643,0.678,1.216,0.817,1.72c0.21,0.615,0.315,1.293,0.315,2.035c-0.251,2.194-1.028,3.949-2.328,5.263
	c-1.384,1.427-3.209,2.153-5.474,2.183c-2.321-0.21-4.195-1.078-5.621-2.603c-1.384-1.468-2.132-3.299-2.244-5.494
	c-0.014-0.909,0.203-1.796,0.65-2.663c0.14-0.293,0.601-0.993,1.384-2.097l0.063-0.042c0.042-0.042,0.091-0.056,0.147-0.042
	l0.063-0.147c0.14-0.252-0.084-0.615-0.671-1.09c-0.657-0.545-0.986-1.069-0.986-1.573c-0.042-0.014-0.07-0.069-0.084-0.167
	c-0.028-0.07-0.063-0.105-0.104-0.105c0-0.084-0.049-0.259-0.147-0.524c0.056-0.042,0.077-0.112,0.063-0.21
	c-0.042-0.14-0.063-0.217-0.063-0.23c-0.07-0.014-0.105-0.112-0.105-0.293c0.028-0.14,0.007-0.231-0.063-0.273
	c0-0.084-0.021-0.126-0.063-0.126c-0.07-0.307-0.063-0.594,0.021-0.859c0.098-0.294,0.259-0.497,0.483-0.609
	c0.447,0.112,0.916,0.888,1.404,2.328c0.462,1.286,1.293,1.86,2.496,1.72c0.35,0.07,0.839,0.077,1.468,0.021
	c0.657-0.042,1.125-0.049,1.405-0.021c0.251,0.279,0.44,0.434,0.566,0.461c0.112,0,0.308-0.104,0.587-0.315
	c0-0.097,0.083-0.146,0.251-0.146c0-0.07,0.098-0.077,0.293-0.021c0.209,0.056,0.321,0.063,0.335,0.021l0.21-0.231
	c0.069,0,0.174-0.021,0.314-0.063c0.083-0.042,0.195-0.035,0.335,0.021c0.056-0.097,0.154-0.167,0.293-0.21l0.629-0.377
	c0.083-0.028,0.217-0.132,0.398-0.314c0.168-0.196,0.252-0.308,0.252-0.336C43.561,141.243,43.596,141.173,43.596,141.033z
	 M42.59,145.731c-0.042-0.014-0.063-0.042-0.063-0.083h-0.67l-0.21-0.231l-1.741-0.357c-1.356-0.265-2.705,0.301-4.048,1.699
	c-1.271,1.315-1.943,2.671-2.013,4.069c0,0.644,0.161,1.202,0.482,1.678l0.86,1.32c0.084,0.112,0.272,0.245,0.566,0.399
	c0.266,0.168,0.469,0.265,0.609,0.293c0.419,0.322,0.943,0.566,1.573,0.733c0.685,0.169,1.314,0.169,1.887,0
	c1.566-0.223,2.831-0.83,3.796-1.824c0.965-1.021,1.454-2.292,1.468-3.816c0.126-0.727-0.035-1.427-0.483-2.097
	c-0.279-0.419-0.754-0.895-1.426-1.426c-0.182-0.182-0.356-0.237-0.524-0.167C42.681,145.822,42.66,145.759,42.59,145.731z
	 M67.483,142.208c0-0.308-0.098-0.44-0.293-0.398c-0.224-0.042-0.503-0.042-0.839,0c-0.392,0.056-0.644,0.07-0.755,0.042
	l-0.86-0.042l-0.063,11.094c0,0.545,0.035,0.894,0.105,1.049c0.083,0.797,0.125,1.265,0.125,1.404l2.895-0.419
	c-0.07-1.146-0.119-2.027-0.146-2.643c-0.042-0.419-0.099-1.405-0.168-2.957l-0.063-6.438
	C67.462,142.606,67.483,142.375,67.483,142.208z M88.433,145.144c0.084,0,0.126,0.042,0.126,0.126
	c0.07,0.028,0.154,0.049,0.252,0.063c0.056,0.014,0.083,0.063,0.083,0.146l0.209,0.21c0.029,0.028,0.091,0.105,0.189,0.231
	c0.027,0.069,0.195,0.238,0.503,0.503c0.238,0.182,0.356,0.391,0.356,0.629c0.084,0,0.127,0.063,0.127,0.189
	c0.083,0.112,0.125,0.203,0.125,0.273c0.099,0.139,0.147,0.293,0.147,0.461c0.069,0.07,0.083,0.287,0.042,0.65
	c0.042,0.168,0.027,0.455-0.042,0.86v0.252c-0.084,0-0.126,0.007-0.126,0.021c-0.014,0.028-0.021,0.084-0.021,0.168
	c-0.601,1.706-1.782,2.586-3.544,2.642c-1.44-0.14-2.614-0.74-3.523-1.803c-0.895-1.09-1.3-2.328-1.216-3.712
	c0.195-2.334,0.985-4.18,2.369-5.536c1.356-1.314,3.174-2.118,5.453-2.412c0.951-0.07,1.79,0.063,2.517,0.398l2.685,1.237
	c0.294,0.14,0.587,0.426,0.881,0.86c0.308,0.447,0.489,0.867,0.545,1.258c0.07,0.182,0.063,0.35-0.021,0.503
	c-0.098,0.168-0.224,0.189-0.377,0.063c-0.07,0-0.238-0.063-0.503-0.188c-0.825-0.574-1.524-0.993-2.097-1.258
	c-0.923-0.448-1.762-0.636-2.517-0.566l-1.363,0.042l-2.685,1.531c-0.377,0.182-0.706,0.455-0.985,0.817
	c-0.308,0.434-0.209,0.686,0.293,0.755c0,0.056,0.091,0.083,0.272,0.083c0-0.056,0.022-0.083,0.063-0.083s0.091,0,0.146,0
	c0.084,0.07,0.224,0.112,0.419,0.126c0.238,0,0.385,0.021,0.441,0.063c0,0.042,0.049,0.063,0.146,0.063
	c0.027,0.098,0.175,0.146,0.44,0.146L88.433,145.144z M85.561,147.912c-0.141,0.252-0.321,0.636-0.546,1.153
	c-0.042,0.35,0.084,0.636,0.378,0.86c0.293,0.251,0.671,0.343,1.132,0.273c0.224-0.084,0.335-0.175,0.335-0.273
	c0.098,0,0.146-0.042,0.146-0.126l0.21-0.188c0,0.014,0.015,0.007,0.042-0.021c0.042-0.042,0.091-0.063,0.147-0.063l0.167-0.105
	l0.126-0.356c0.028-0.014,0.042-0.042,0.042-0.084c-0.027-0.014-0.007-0.021,0.063-0.021c0.266-0.56,0.287-1.063,0.063-1.51
	c-0.225-0.461-0.651-0.552-1.28-0.272C86.154,147.233,85.812,147.479,85.561,147.912z M84.679,154.203
	c-0.21-0.503-0.042-0.797,0.503-0.88c0.503-0.113,0.93-0.015,1.279,0.292c1.356,0.812,2.824,1.189,4.404,1.134
	c1.747-0.28,2.866-0.657,3.355-1.134l0.314-0.251c0.056,0.042,0.126-0.041,0.209-0.251h0.126c-0.825-0.588-1.461-1.07-1.908-1.447
	c-0.839-0.685-1.216-1.552-1.133-2.601c-0.098-0.951,0.175-1.775,0.818-2.475c0.56-0.629,1.322-1.069,2.286-1.321
	c0.07,0,0.203-0.014,0.399-0.042c0.167-0.014,0.279,0,0.335,0.042c1.245,0.098,2.209,0.538,2.894,1.321
	c0.699,0.797,1,1.867,0.902,3.208c0,1.105-0.287,2.16-0.86,3.167c-0.266,0.46-0.874,1.272-1.824,2.432
	c-0.07-0.042-0.14-0.042-0.21,0c-0.056,0.028-0.091,0.043-0.104,0.043l-0.084,0.167c-0.042,0.153-0.35,0.321-0.923,0.504
	c0,0.055-0.042,0.083-0.125,0.083c0,0.07-0.049,0.105-0.147,0.105c-0.098,0.013-0.154,0.042-0.167,0.085
	c-0.811,0.265-1.399,0.446-1.762,0.544c-0.531,0.111-1.083,0.168-1.657,0.168c-1.258,0-2.419-0.175-3.481-0.525
	c-1.063-0.335-1.916-0.811-2.558-1.426l-0.797-0.734C84.763,154.273,84.735,154.203,84.679,154.203z M95.668,147.576
	c-0.797,0.168-1.279,0.818-1.447,1.951c0.014,0.014,0.063,0.175,0.147,0.482c0.056,0.252,0.139,0.406,0.251,0.462
	c0,0.083,0.084,0.139,0.252,0.167c0.182,0.042,0.287,0.07,0.314,0.084c1.175-0.113,1.79-0.728,1.845-1.846
	c0.057-0.503-0.027-0.896-0.251-1.175C96.528,147.381,96.158,147.338,95.668,147.576z M3.436,144.158c0.14-0.196,0.14-0.293,0-0.293
	c0.014-0.112,0.021-0.301,0.021-0.566c-0.014-0.224,0.007-0.371,0.063-0.44c-0.057-0.07-0.049-0.224,0.021-0.461
	c0.07-0.308,0.105-0.476,0.105-0.504c0-0.167,0.056-0.252,0.167-0.252c0.657-2.307,1.922-3.327,3.796-3.062
	c1.09,0.224,1.824,0.503,2.202,0.839l2.769,2.223c0.098,0.07,0.231,0.322,0.398,0.756c0.042,0.042,0.119,0.146,0.23,0.314
	c0.14,0.125,0.251,0.125,0.336,0l2.852-3.104c0.238-0.238,0.629-0.44,1.174-0.608c0.322-0.112,0.776-0.251,1.363-0.419
	c2.754,0.406,4.048,1.783,3.879,4.132c-0.027,0.182-0.112,0.649-0.251,1.405c-0.154,0.671-0.314,1.048-0.483,1.132l-0.146,0.063
	c-0.168,0.098-0.524,0.454-1.069,1.07c-0.378,0.419-0.923,0.629-1.636,0.629c-0.084-0.042-0.23-0.084-0.44-0.126
	c-0.182-0.014-0.3-0.077-0.357-0.188c-0.153-0.056-0.286-0.168-0.398-0.335c-0.182-0.252-0.293-0.398-0.336-0.44
	c0.042-0.084,0.028-0.175-0.042-0.272c-0.028-0.084-0.035-0.168-0.021-0.252l0.125-0.377c0.084-0.126,0.287-0.217,0.608-0.273
	c0.363-0.056,0.58-0.105,0.65-0.146c0.685-0.545,1.14-1.545,1.363-2.999c-0.111-0.699-0.377-0.916-0.796-0.65
	c-0.196-0.07-0.524-0.021-0.986,0.147c-0.447,0.14-0.748,0.308-0.902,0.503l-2.831,3.355c-0.028,0.643,0.147,1.853,0.524,3.628
	c0.364,1.664,0.496,3.006,0.398,4.026c0.098,1.482-0.161,2.747-0.776,3.796c-0.685,1.258-1.643,1.553-2.873,0.881
	c-0.014-0.014-0.147-0.118-0.399-0.313c-0.153-0.085-0.272-0.217-0.356-0.4c-0.224-0.292-0.391-0.761-0.503-1.404
	c-0.182-1.091-0.273-1.643-0.273-1.656c0-0.35-0.028-0.602-0.084-0.755c0.182-2.811,0.594-5.047,1.237-6.711
	c0.434-0.531,0.392-1.083-0.126-1.656l-0.063-0.231l-0.734-1.3l-0.147-0.146c0.015-0.084,0.007-0.133-0.021-0.147l-0.063-0.084
	c-0.517-0.517-0.916-0.895-1.195-1.132c-0.503-0.405-1.035-0.608-1.594-0.608c-0.238,0-0.44,0.077-0.608,0.23
	c-0.112,0.098-0.28,0.259-0.504,0.482l-0.042,0.063c-0.042,0.042-0.042,0.084,0,0.125l-0.231,0.252l-0.23,0.504
	c-0.042,0.083-0.084,0.279-0.126,0.587c0,0.098-0.021,0.147-0.063,0.147c-0.014,0.07-0.021,0.223-0.021,0.461
	c0.014,0.154-0.007,0.266-0.063,0.335c0.056,0.126,0.091,0.343,0.104,0.65c0.042,0.251,0.161,0.377,0.356,0.377l0.042-0.146h0.734
	c0.266,0.013,0.455,0.063,0.567,0.146c0.013,0.028,0.077,0.049,0.188,0.063c0.083,0.028,0.126,0.063,0.126,0.105
	c0.098,0,0.146,0.014,0.146,0.042c0.083,0,0.126,0.049,0.126,0.147c0.126,0,0.209,0.035,0.252,0.105
	c0.013,0.042,0.027,0.112,0.042,0.209l0.168,0.294c0.265,0.377,0.182,0.691-0.252,0.943c-0.377,0.21-0.783,0.259-1.216,0.147
	c-1.231-0.266-1.923-0.426-2.077-0.482c-0.518-0.21-0.923-0.636-1.216-1.279L3.436,144.158z M12.454,153.637
	c0,0.728,0.084,1.161,0.252,1.301c0.139,0.141,0.272-0.217,0.398-1.07c0.182-1.076,0.258-2.075,0.23-2.998
	c0-0.336-0.056-0.706-0.168-1.112c-0.126-0.419-0.188-0.315-0.188,0.314c-0.167,0.504-0.287,1.119-0.357,1.846
	C12.58,152.338,12.523,152.91,12.454,153.637z"/>
</svg>
