<?xml version="1.0" encoding="utf-8"?>
<!-- Generator: Adobe Illustrator 16.0.0, SVG Export Plug-In . SVG Version: 6.00 Build 0)  -->
<!DOCTYPE svg PUBLIC "-//W3C//DTD SVG 1.1//EN" "http://www.w3.org/Graphics/SVG/1.1/DTD/svg11.dtd">
<svg version="1.1" id="Layer_1" xmlns="http://www.w3.org/2000/svg" xmlns:xlink="http://www.w3.org/1999/xlink" x="0px" y="0px"
	 width="300px" height="300px" viewBox="0 0 300 300" enable-background="new 0 0 300 300" xml:space="preserve">
<path fill-rule="evenodd" clip-rule="evenodd" fill="#327B74" d="M286.425,76.667c-1.773,2.873-4.529,5.299-8.282,7.286v10.935
	l-3.979,5.629l-11.265,1.327l-1.32,34.455l0.33,4.309c0,5.08-2.763,9.382-8.282,12.915l0.33,14.908c0,4.199-0.22,7.952-0.66,11.265
	c-1.553,10.825-5.086,19.768-10.604,26.833c-6.846,8.172-14.021,12.262-21.534,12.262l-3.973-0.33
	c-1.767,3.533-4.31,8.502-7.622,14.908c-2.427,5.739-3.643,10.378-3.643,13.911c0,1.767,0.659,4.419,1.986,7.952
	c9.278,0,16.454,1.767,21.533,5.299c4.64,3.093,6.956,7.066,6.956,11.925c0,2.653-0.771,5.3-2.316,7.953
	c-2.434,2.433-4.64,3.643-6.626,3.643h-39.425c-4.419,0-6.625-0.66-6.625-1.986c-6.18-5.966-9.272-15.238-9.272-27.83v-4.303
	c0-6.186-0.557-10.055-1.656-11.595c-6.186,1.32-11.155,2.427-14.911,3.313c-7.066,1.101-12.809,1.657-17.228,1.657
	c-9.052,0-16.121-1.877-21.201-5.636c-0.443,8.392-5.742,14.247-15.901,17.561c-1.326,0.66-4.419,1.656-9.278,2.982
	c6.186,1.986,12.038,2.977,17.561,2.977c3.753,0,9.052-0.22,15.901-0.66c6.846-0.66,11.595-0.996,14.245-0.996
	c12.148,0,18.221,4.969,18.221,14.908v3.313c0,5.306-7.065,7.952-21.204,7.952c-27.826-2.427-46.38-3.643-55.655-3.643H70.092
	c-2.873,0-6.406,0.439-10.602,1.326c-4.416,0.66-8.612,0.99-12.588,0.99l-11.595-0.33c-4.196-0.44-6.295-2.536-6.295-6.296
	c1.106-3.093,1.989-5.52,2.652-7.286c-1.106-8.392-4.529-14.907-10.271-19.547c-5.962-4.859-9.056-9.162-9.275-12.921l-0.663-0.99
	c0-2.433,1.656-5.966,4.969-10.605c2.873-4.633,4.306-7.835,4.306-9.602v-2.653c-7.066-9.719-11.262-21.203-12.588-34.455
	c-0.44-3.532-0.663-7.285-0.663-11.265c0-17.444,3.866-36.552,11.595-57.309c6.186-15.904,12.702-28.709,19.547-38.428
	c-4.639-9.938-6.956-17.781-6.956-23.526c0-7.065,3.09-14.571,9.275-22.523c5.963-7.732,9.166-13.918,9.605-18.551
	C59.601,21.345,64.13,33.49,64.13,44.535c0,10.599-4.97,20.317-14.908,29.149c-9.938,11.925-17.781,26.949-23.523,45.054
	c-5.299,16.344-7.949,32.249-7.949,47.707c0,4.859,0.33,9.278,0.994,13.251c1.326,13.698,5.299,22.42,11.925,26.173
	c0.663-1.106,2.873-7.622,6.625-19.547c1.106-2.427,2.32-4.64,3.646-6.626c5.299-7.285,14.685-12.921,28.16-16.895
	c21.2-6.186,37.655-16.344,49.359-30.475c-6.846-7.512-10.269-15.128-10.269-22.86c0-13.698,8.502-27.939,25.51-42.737
	c13.691-12.372,27.497-21.094,41.408-26.173c4.419-13.252,11.711-22.524,21.87-27.83c6.186-3.313,12.812-4.969,19.877-4.969h2.316
	c11.705,0,21.533,2.873,29.485,8.619c9.272,6.625,14.578,16.344,15.898,29.149c3.532,1.986,11.711,5.965,24.517,11.925v6.296
	C289.071,69.265,288.185,73.574,286.425,76.667z"/>
</svg>
