<?xml version="1.0" encoding="utf-8"?>
<!-- Generator: Adobe Illustrator 16.0.0, SVG Export Plug-In . SVG Version: 6.00 Build 0)  -->
<!DOCTYPE svg PUBLIC "-//W3C//DTD SVG 1.1//EN" "http://www.w3.org/Graphics/SVG/1.1/DTD/svg11.dtd">
<svg version="1.1" id="Layer_1" xmlns="http://www.w3.org/2000/svg" xmlns:xlink="http://www.w3.org/1999/xlink" x="0px" y="0px"
	 width="300px" height="300px" viewBox="0 0 300 300" enable-background="new 0 0 300 300" xml:space="preserve">
<path fill-rule="evenodd" clip-rule="evenodd" fill="#333333" d="M292.36,136.591l0.104,0.103c0.11,0.124,0.276,0.255,0.496,0.392
	c0.096,0.096,0.158,0.207,0.186,0.33c0,0.069-0.007,0.138-0.021,0.207c-0.192,0.578-0.516,1.074-0.971,1.486
	c-0.577,0.44-1.018,0.806-1.321,1.095l-0.123,0.124c-0.55,0.124-1.102,0.378-1.651,0.764c-0.62,0.426-1.114,0.702-1.485,0.826
	c-0.11-0.193-0.015-0.543,0.288-1.053c0.331-0.537,0.667-0.874,1.011-1.012l0.042-0.083h0.165l0.228-0.577
	c0.068-0.111,0.104-0.173,0.104-0.186c0.068,0,0.102-0.014,0.102-0.042c0.193,0,0.255,0.103,0.187,0.31
	c-0.097,0.289-0.145,0.454-0.145,0.495c-0.068,0.207,0.034,0.31,0.31,0.31c0.179,0,0.345-0.076,0.496-0.228l0.144-0.083
	c0.11-0.124,0.317-0.275,0.619-0.454c0.303-0.207,0.503-0.372,0.6-0.495c0.536-0.221,0.784-0.613,0.742-1.177
	c-0.014-0.082-0.034-0.158-0.061-0.227c-0.139-0.399-0.51-0.578-1.115-0.536c-0.44,0-0.936,0.083-1.486,0.248
	c-0.33,0.083-0.604,0.179-0.826,0.289c-0.205,0.097-0.363,0.207-0.475,0.331l-2.023,1.961l-0.371,0.64
	c-0.385,0.743-0.64,1.431-0.763,2.064c-0.11,0.51-0.186,1.28-0.228,2.312c0.124,0.798,0.365,1.569,0.722,2.312
	c0.042,0,0.049,0.027,0.021,0.082l0.104,0.124l0.104,0.268c0.192,0.33,0.508,0.785,0.949,1.362c0.44,0.578,0.75,1.018,0.929,1.321
	c0.123,0.124,0.31,0.481,0.557,1.073c0.206,0.468,0.42,0.701,0.64,0.701c1.253-0.701,1.954-1.691,2.106-2.971
	c0.083-0.798-0.014-1.81-0.288-3.034c-0.304-1.321-0.456-2.229-0.456-2.724c0.11-1.184,0.386-2.113,0.827-2.787
	c0.453-0.674,1.209-1.334,2.269-1.981c0.552-0.399,0.991-0.605,1.322-0.619c0.399-0.028,0.771-0.131,1.114-0.31
	c0.028-0.027,0.062-0.027,0.104,0c0.027,0.014,0.055,0.014,0.083,0c0.04,0.014,0.096-0.013,0.164-0.083
	c0.027-0.013,0.056-0.028,0.082-0.042c0.042-0.014,0.083-0.014,0.125,0c0.014,0,0.021,0.007,0.021,0.021l-1.775,1.217
	c-0.784,0.551-1.355,1.087-1.713,1.61c-0.44,0.756-0.619,1.713-0.537,2.87c0.097,1.018,0.358,1.961,0.785,2.827
	c0.357,0.771,0.577,1.63,0.659,2.58c0.139,1.032,0.083,1.988-0.165,2.869c-0.33,0.785-0.831,1.514-1.507,2.188
	c-0.687,0.701-1.472,1.246-2.352,1.631c-0.042,0.055-0.207,0.805-0.497,2.249c-0.343,1.473-0.763,2.325-1.258,2.56l-0.062,0.041
	c0,0.042-0.028,0.042-0.083,0c-0.056-0.026-0.048-0.041,0.021-0.041c0.563-1.526,0.859-2.925,0.887-4.19v-0.434
	c-1.94,0.371-3.57,0.338-4.893-0.103c-0.866-0.303-1.327-0.818-1.383-1.548c0.056-0.605,0.269-1.148,0.641-1.631
	c0.206-0.248,0.612-0.654,1.218-1.218c0.041-0.041,0.323-0.302,0.847-0.783c0.371-0.317,0.454-0.564,0.247-0.744
	c-0.702-0.908-1.211-1.72-1.527-2.436c-0.455-0.977-0.66-1.981-0.62-3.013c0.248-2.395,1.687-4.438,4.314-6.13
	c0.248-0.151,0.488-0.282,0.723-0.393c1.197-0.563,2.388-0.86,3.57-0.888C292.21,136.57,292.277,136.591,292.36,136.591z
	 M264.684,141.42c0.082-0.096,0.143-0.144,0.185-0.144c0.248,0.316,0.42,0.502,0.517,0.557c0.274,0.207,0.598,0.269,0.97,0.187
	c0.042-0.193,0.068-0.337,0.083-0.434c0.055-0.152,0.15-0.227,0.289-0.227c0.054-0.097,0.103-0.125,0.144-0.083
	c0.056,0.083,0.104,0.109,0.146,0.083c0.109,0.302,0.392,0.247,0.845-0.166c0.481-0.385,0.42-0.523-0.186-0.413l-0.412-0.578
	c0.055-0.042,0.138-0.104,0.248-0.186c0.081-0.042,0.137-0.125,0.164-0.249c0.234,0.055,0.447,0.234,0.641,0.537
	c0.068,0,0.104,0.069,0.104,0.207c-0.014,0.11-0.042,0.192-0.083,0.248l0.145-0.042c0.399-0.179,0.495-0.585,0.289-1.218
	c-0.206-0.619-0.551-0.784-1.032-0.495c-0.895,0.069-1.699,0.474-2.415,1.217c-0.716,0.895-1.301,1.514-1.754,1.858
	c-2.985,0.661-5.064,2.635-6.234,5.924c-0.123,0.124-0.186,0.255-0.186,0.393c-0.109,0.206-0.165,0.384-0.165,0.536
	c0,0.262,0.104,0.447,0.311,0.557c0.233,0.111,0.495,0.096,0.783-0.042c1.446-0.33,2.643-0.75,3.592-1.259l4.396-2.25
	c0.564-0.234,1.32-0.158,2.271,0.227c0.963,0.385,1.081,0.674,0.352,0.867c-0.33,0.013-0.559,0.021-0.682,0.021
	c-0.179,0-0.371-0.034-0.578-0.104c-1.17-0.096-2.27,0.117-3.302,0.64l-4.995,2.56c-0.234,0.137-0.605,0.241-1.115,0.309
	c-0.481,0.055-0.88,0.069-1.196,0.041c-0.592-0.083-0.991-0.164-1.198-0.247c-0.356-0.138-0.536-0.51-0.536-1.115
	c0.866-4.514,2.808-7.031,5.82-7.554c0.124-0.056,0.372-0.138,0.744-0.249c0.262-0.082,0.453-0.185,0.576-0.309l2.643-2.456
	c0.275-0.248,0.785-0.448,1.528-0.598c0.591-0.138,1.203-0.207,1.836-0.207c0.372,0.069,0.826,0.138,1.363,0.207
	c0.371,0.109,0.549,0.454,0.536,1.032c-0.026,0.564-0.076,0.97-0.146,1.217c-0.067,0.358-0.22,0.723-0.453,1.094
	c-0.44,0.441-0.792,0.792-1.053,1.053c-0.481,0.44-1.163,0.757-2.043,0.95c-0.688,0.137-1.308,0.021-1.857-0.351
	c-0.579-0.413-0.613-0.874-0.104-1.383C264.531,141.572,264.6,141.517,264.684,141.42z M261.029,145.383
	c1.156-0.784,2.249-1.121,3.282-1.012c-0.097,0.854-0.743,1.438-1.94,1.755c-1.651,0.468-2.573,0.771-2.766,0.909
	C259.495,146.664,259.97,146.113,261.029,145.383z M256.819,151.204c0.633-0.234,1.211-0.172,1.732,0.186
	c0.455,0.289,0.806,0.729,1.054,1.321c0.165,0.454,0.784,0.474,1.857,0.062c1.404-0.563,2.408-0.819,3.014-0.764l1.589,0.228
	c0.482,0.11,1.066,0.33,1.755,0.66c0.949,0.468,1.5,0.729,1.651,0.785c1.114,0.288,2.022,0.35,2.724,0.186
	c0.221-0.069,0.593-0.173,1.115-0.311c0.33-0.15,0.358-0.365,0.082-0.64c-0.096-0.137-0.124-0.275-0.082-0.412
	c-0.11-0.11-0.11-0.358,0-0.743l0.207-0.063c0.371,0.441,0.556,0.827,0.556,1.156c0.069,0,0.104,0.022,0.104,0.063
	c0,0.027-0.007,0.076-0.021,0.145c0.027,0.041,0.063,0.097,0.104,0.165c0.027,0.055,0.104,0.062,0.228,0.021
	c-0.042-0.014-0.084-0.076-0.124-0.187c0-0.096-0.021-0.145-0.063-0.145l-0.145-0.681l-0.083-0.145c0-0.096,0.035-0.186,0.104-0.269
	c0.056-0.069,0.097-0.028,0.124,0.123c0.041,0.043,0.131,0.173,0.27,0.393l0.165,0.247c0.014,0.043,0.014,0.104,0,0.187
	c-0.016,0.056,0.006,0.082,0.061,0.082c0.11,0.33,0.146,0.33,0.104,0c-0.027-0.303-0.083-0.522-0.164-0.659
	c-0.042-0.578,0.061-0.641,0.308-0.187c0.317,0.592,0.482,0.874,0.497,0.846c0.302-0.097,0.618-0.164,0.949-0.206
	c0.386-0.082,0.481-0.068,0.289,0.042c-1.913,1.995-3.771,3.089-5.573,3.281c-1.073,0.234-2.001,0.255-2.786,0.063
	c-0.235-0.069-0.867-0.345-1.899-0.826c0.028,0.041-0.123,0.166-0.454,0.371c1.046,0.303,1.658,0.489,1.837,0.558
	c0.742,0.165,1.438,0.207,2.084,0.124c0.744,0.041,1.549-0.055,2.416-0.289c0.495-0.15,1.231-0.378,2.208-0.681
	c0.042-0.014,0.139-0.042,0.289-0.083c0.138-0.013,0.214-0.041,0.228-0.082l0.227-0.145c0.11,0.041,0.481-0.042,1.114-0.249
	c0.413-0.109,0.42-0.026,0.021,0.249c-1.114,0.798-1.968,1.341-2.56,1.631c-1.252,0.494-2.387,0.818-3.406,0.97
	c-1.17,0.164-2.435,0.131-3.797-0.104c-0.895-0.123-1.576-0.199-2.043-0.227c-0.841-0.096-1.57-0.09-2.189,0.021
	c-0.66,0.055-1.396,0.234-2.208,0.536c-1.018,0.372-1.734,0.6-2.146,0.682c-0.784,0.193-1.279,0.31-1.485,0.351
	c-0.688,0.11-1.212,0.055-1.569-0.164c-0.014-0.029-0.262-0.152-0.743-0.372c-0.262-0.124-0.393-0.413-0.393-0.867
	c0.056-0.234-0.021-0.399-0.226-0.495c-0.372-0.249-0.633-0.455-0.785-0.62c-0.248-0.275-0.234-0.673,0.042-1.196
	c0.179-0.262,0.46-0.517,0.846-0.765c0.496-0.302,0.812-0.522,0.949-0.66l0.31-0.288c0.109,0.04,0.206,0.014,0.289-0.083
	c0.179-0.165,0.412-0.558,0.702-1.177C256.296,151.658,256.544,151.342,256.819,151.204z M264.373,149.181
	c0-0.192,0.117-0.316,0.35-0.371c0.235-0.069,0.482-0.055,0.744,0.042c0.33,0.137,0.399,0.351,0.207,0.64
	c-0.192,0.275-0.44,0.413-0.743,0.413c0-0.22-0.097-0.331-0.289-0.331C264.463,149.367,264.373,149.236,264.373,149.181z
	 M291.062,137.623c0.123,0,0.186,0.179,0.186,0.537c0,0.33-0.248,0.495-0.744,0.495h-0.144c0-0.096-0.027-0.158-0.083-0.185
	c-0.096-0.207-0.048-0.406,0.146-0.599C290.613,137.706,290.826,137.623,291.062,137.623z M235.91,140.637
	c-0.234,0.289-0.405,0.563-0.517,0.825c-0.494,1.252-0.659,2.498-0.494,3.736c0.191,1.362,0.812,2.043,1.857,2.043h2.291
	c1.251,0,2.463,0.227,3.633,0.681c1.06,0.427,1.838,0.936,2.332,1.527c0.95,1.102,1.424,2.146,1.424,3.137
	c0.042,1.858-0.434,3.475-1.424,4.852c-1.046,1.389-2.264,1.974-3.654,1.754c-0.591-0.096-1.368-0.144-2.332-0.144
	c-0.867,0.137-1.609,0.467-2.229,0.99c-0.178-0.056-0.344-0.007-0.494,0.145c-0.179,0.179-0.33,0.262-0.454,0.247
	c-0.041-1.004,0.24-1.926,0.846-2.765c0.551-0.758,1.184-1.211,1.898-1.363c0.11-1.046,0.317-1.845,0.62-2.395
	c0.413-0.716,1.066-1.183,1.961-1.402c0.453-0.138,0.543,0.104,0.269,0.722l-0.393,0.455c-0.056,0.026-0.145,0.123-0.269,0.288
	c-0.564,0.537-0.867,0.853-0.908,0.949l-0.124,0.702c-0.055,0.413-0.027,0.564,0.082,0.454c0.07-0.303,0.152-0.585,0.249-0.846
	c0.261-0.511,0.494-0.881,0.701-1.115c0.275-0.164,0.441-0.247,0.495-0.247c0.056,0,0.069,0.034,0.042,0.103
	c0.04,0.097,0.021,0.22-0.063,0.371l0.187,0.124c-0.303,0.261-0.455,0.668-0.455,1.218l0.063,0.289
	c0.426,0.757,0.936,1.135,1.527,1.135c1.073,0,1.74-0.426,2.002-1.278c0.11-0.744-0.041-1.418-0.454-2.023
	c-0.372-0.495-0.853-0.867-1.444-1.114c-0.66-0.304-1.08-0.481-1.26-0.537c-0.399-0.097-0.86-0.13-1.384-0.104l-1.918,0.165
	c-0.179,0.785-0.806,1.26-1.879,1.425c-0.757,0.096-1.32,0.09-1.692-0.021l-0.847-0.228c-0.398-0.082-0.715-0.04-0.949,0.125
	c-0.33,0.082-0.682,0.026-1.052-0.165c-0.345-0.152-0.585-0.193-0.723-0.125l-0.414,0.165c-0.151,0.097-0.337-0.014-0.556-0.33
	c-0.221-0.274-0.332-0.536-0.332-0.784c0.042-0.082,0.063-0.131,0.063-0.145c0.302,0.11,0.537,0.166,0.701,0.166l0.351-0.084
	c0.262-0.041,0.461-0.041,0.599,0c0.096,0.014,0.214,0.076,0.351,0.187c0.125,0.082,0.234,0.138,0.33,0.165
	c0.29-0.109,0.578-0.165,0.868-0.165c0.247,0,0.481,0.034,0.701,0.104c0.083,0,0.165-0.035,0.248-0.104
	c0.041-0.083,0.034-0.145-0.021-0.187c-0.082-0.041-0.137-0.075-0.165-0.103c-0.232-0.123-0.481-0.186-0.742-0.186
	c-0.619,0.014-1.019,0.014-1.197,0l-0.724-0.042c-0.15-0.123-0.268-0.199-0.351-0.227c-0.124,0-0.309,0.048-0.557,0.145
	c-0.22,0.097-0.413,0.124-0.578,0.082c-0.178-0.274-0.323-0.48-0.434-0.619c-0.123-0.247-0.199-0.502-0.227-0.764l0.082-0.062
	c0.29,0,0.523,0.028,0.701,0.083c0.042,0.014,0.18,0.076,0.414,0.186c0.151,0.083,0.296,0.116,0.434,0.103
	c0.109,0,0.199,0.014,0.268,0.042c0.028,0.041,0.213,0.097,0.558,0.166c0.908-0.125,1.418-0.207,1.527-0.248
	c-0.165-0.385-0.289-0.702-0.371-0.949c-0.124-0.427-0.124-0.805,0-1.135l0.082-0.331c-0.262-0.551-0.427-0.922-0.495-1.114
	c-0.179-0.55-0.234-1.053-0.165-1.507c0.247-1.363,0.784-2.532,1.609-3.509c0.619-0.716,1.576-1.473,2.87-2.271
	C236.322,140.12,236.158,140.347,235.91,140.637z M241.07,137.561c0.082-0.042,0.159-0.089,0.227-0.145
	c0.744-0.55,1.61-0.956,2.602-1.217c-0.345,0.165-0.895,0.571-1.651,1.217c-0.413,0.345-0.889,0.757-1.425,1.238
	c-1.073,0.95-2.022,1.37-2.849,1.26l-0.68-0.063l-0.29-0.083c0.055-0.124,0.131-0.234,0.228-0.33
	c0.082-0.083,0.24-0.193,0.474-0.331C239.082,138.833,240.203,138.318,241.07,137.561z M243.836,137.354
	c-0.056,0.014-0.103,0.035-0.145,0.062c-0.22,0.097-0.406,0.242-0.557,0.434c-0.041,0.041-0.228,0.296-0.558,0.763
	c-0.482,0.729-0.882,1.259-1.198,1.59c-0.179,0.178-0.659,0.475-1.444,0.887l0.29,0.661c0.137,0,0.357-0.055,0.659-0.165
	c-0.068,0.289-0.233,0.474-0.495,0.557l0.826,1.465c0.097,0.275,0.15,0.502,0.164,0.681c0.083,0.303,0,0.53-0.246,0.682
	c-0.207,0.095-0.496,0.144-0.867,0.144c-0.124-0.193-0.213-0.364-0.269-0.516l0.269-0.021c0.109,0,0.227-0.034,0.351-0.103
	c0.165-0.262,0.104-0.653-0.186-1.177c-0.206-0.454-0.413-0.749-0.619-0.887c-0.221,0.11-0.399,0.179-0.537,0.207
	c-0.233,0.083-0.446,0.069-0.639-0.042c-0.249-0.11-0.338-0.274-0.269-0.495c0.026-0.22,0.144-0.372,0.35-0.454
	c0.097-0.028,0.18-0.014,0.248,0.042c0.151,0.054,0.304,0.082,0.454,0.082c-0.138-0.289-0.371-0.606-0.702-0.95l-0.31-0.289
	c0.124-0.041,0.44-0.131,0.95-0.268c0.522-0.152,0.977-0.365,1.362-0.64c0.536-0.357,1.155-0.901,1.857-1.63
	c0.193-0.221,0.405-0.406,0.64-0.558c0.109-0.082,0.233-0.151,0.371-0.206c0.221-0.11,0.55-0.248,0.991-0.413
	c0.33-0.027,0.351,0.035,0.063,0.187C244.435,137.121,244.167,137.244,243.836,137.354z M269.327,144.909
	c0.248,0.138,0.316,0.207,0.206,0.207c-0.262,0-0.523-0.069-0.785-0.207c-0.316-0.124-0.316-0.213,0-0.269
	C268.927,144.709,269.12,144.798,269.327,144.909z M268.15,145.053c0.371-0.042,0.812,0.103,1.321,0.433
	c0.495,0.317,0.688,0.585,0.578,0.806c-0.138-0.124-0.523-0.331-1.156-0.62C268.398,145.425,268.15,145.218,268.15,145.053z
	 M268.15,145.549c0.371,0.083,0.785,0.248,1.238,0.495c0.494,0.303,0.523,0.461,0.083,0.475c-0.469-0.235-0.847-0.42-1.136-0.558
	C267.827,145.686,267.765,145.549,268.15,145.549z M270.771,148.252c1.39,1.404,2.153,3.068,2.291,4.996
	c-0.674-1.033-1.169-1.838-1.486-2.416C271.04,149.814,270.771,148.954,270.771,148.252z M268.232,149.656
	c0.125,0.44-0.041,0.694-0.495,0.763c-0.109,0.455-0.288,0.358-0.537-0.288c-0.248-0.592-0.145-0.888,0.311-0.888
	C267.883,149.05,268.122,149.188,268.232,149.656z M265.962,148.376c-0.124-0.385,0.035-0.543,0.476-0.475
	c0.289-0.041,0.488-0.028,0.598,0.041c0.124,0.055,0.172,0.206,0.146,0.455c0,0.123-0.069,0.281-0.207,0.474
	c-0.164,0.206-0.316,0.269-0.454,0.186C266.286,148.947,266.1,148.72,265.962,148.376z M266.065,150.978
	c-0.206,0-0.371-0.207-0.495-0.62c-0.082-0.399,0.041-0.55,0.371-0.454c0.371,0.027,0.529,0.145,0.475,0.351
	C266.375,150.419,266.258,150.661,266.065,150.978z M267.86,151.514c-0.15-0.51,0-0.715,0.455-0.62
	c0.179,0.028,0.31,0.166,0.392,0.414c0.097,0.233,0.056,0.385-0.123,0.454C268.254,152.119,268.012,152.036,267.86,151.514z
	 M25.586,139.006c0.109,0.206,0.316,0.537,0.62,0.99l0.082,0.454c0.027,0.207,0.089,0.344,0.186,0.413
	c0.055,0.097,0.034,0.206-0.063,0.33c-0.083,0.096-0.124-0.014-0.124-0.33c-0.027-0.014-0.124-0.172-0.289-0.475
	c-0.096-0.151-0.11-0.042-0.041,0.33c0.096,0.124,0.158,0.392,0.186,0.805c0.042,0.468,0.069,0.743,0.083,0.826
	c0,0.275-0.062,0.517-0.186,0.722c-0.11,0.179-0.357,0.482-0.743,0.909c-0.509,0.179-0.894,0.013-1.156-0.496
	c-0.068-0.124-0.22-0.626-0.454-1.506c-0.151-0.261-0.144-0.537,0.021-0.826c0.165-0.303,0.323-0.365,0.475-0.186
	c0.302,0,0.474,0.062,0.516,0.186c0.069,0.069,0.158,0.213,0.269,0.434l0.186,0.144c0.055,0.069,0.083,0.379,0.083,0.929
	c-0.165,0-0.275-0.041-0.33-0.124c0.124-0.233,0.014-0.447-0.331-0.639c-0.33-0.166-0.481,0.006-0.454,0.516h0.02
	c0,0.124,0.104,0.248,0.31,0.372c0.248,0.193,0.537,0.151,0.867-0.124c0.316-0.261,0.448-0.509,0.393-0.743
	c-0.015-0.055,0-0.186,0.041-0.393c0.028-0.123-0.007-0.207-0.103-0.247l-0.352-1.012c-0.068-0.234-0.116-0.358-0.144-0.372
	c-0.083-0.151-0.186-0.144-0.31,0.021c-0.303-0.165-0.578-0.2-0.826-0.103c-0.261,0.068-0.461,0.22-0.599,0.454
	c-0.083,0.193-0.137,0.44-0.165,0.743c-0.014,0.262,0.007,0.454,0.062,0.578c-0.055,0.083-0.076,0.316-0.062,0.702
	c0.041,0.302-0.014,0.44-0.165,0.413c-0.165-0.192-0.378-0.323-0.64-0.392c-0.413-0.303-0.674-0.736-0.784-1.3
	c-0.124-0.097-0.22-0.145-0.29-0.145c-0.042,0.193-0.137,0.482-0.289,0.867c-0.262,0.756-0.495,1.231-0.702,1.424
	c-0.179,0.041-0.331,0-0.454-0.124c-0.11-0.165-0.186-0.248-0.227-0.248c-0.055-0.165-0.062-0.42-0.021-0.763
	c0.042-0.331,0.048-0.517,0.021-0.558c0-0.468-0.041-0.502-0.124-0.103c-0.069,0.578-0.138,0.908-0.207,0.99
	c-0.014,0.083-0.103,0.255-0.268,0.517c-1.349,1.266-1.534,1.582-0.557,0.949c0.206,0.345-0.097,0.551-0.908,0.62
	c-0.455-0.124-0.729-0.475-0.826-1.053c-0.069-0.798-0.158-1.472-0.268-2.022c0-0.936,0.193-1.734,0.578-2.395
	c0.454-0.743,1.053-1.19,1.795-1.342c0.633-0.207,1.225,0.131,1.775,1.012c0.454,0.715,0.702,1.039,0.743,0.97
	c0.083-0.234,0.289-0.496,0.62-0.784c0.413-0.276,0.688-0.482,0.826-0.62c0.137-0.083,0.406-0.158,0.805-0.227
	c0.44-0.11,0.949,0.027,1.527,0.412c0.661,0.427,0.764,0.585,0.31,0.475L25.586,139.006z M23.191,145.032
	c-0.537,0.055-0.826-0.068-0.866-0.371c0.109-0.413,0.179-0.736,0.206-0.97c0.275,0.069,0.475,0.234,0.599,0.495
	C23.268,144.461,23.288,144.744,23.191,145.032z M18.052,146.684c-0.055,0.249-0.124,0.661-0.207,1.239
	c-0.096,0.55-0.262,0.991-0.495,1.321l-0.454,0.66c-1.197,0.041-2.229,0.172-3.096,0.392c-0.936,0.234-2.099,0.702-3.488,1.403
	c-0.372,0.291-0.591,0.49-0.661,0.601c-0.096,0.137-0.22,0.446-0.372,0.928c-0.124,0.151-0.227,0.44-0.309,0.866
	c-0.028,0.222-0.062,0.51-0.103,0.868c0.013,0.11-0.021,0.295-0.104,0.557c-0.069,0.207-0.069,0.378,0,0.517
	c-0.097-0.11-0.289-0.165-0.578-0.165c-0.207,0-0.31-0.041-0.31-0.125c-0.068-0.247-0.26-0.763-0.577-1.548
	c-0.261-0.646-0.407-1.184-0.434-1.61c0-0.798-0.035-1.375-0.103-1.733c-0.097-0.605-0.296-1.024-0.599-1.259
	c0-0.331,0.062-0.564,0.186-0.702c-0.11-0.977,0.399-1.823,1.527-2.539c1.087-0.646,2.168-0.895,3.241-0.743
	c0.344,0.055,0.819,0.131,1.425,0.227c0.536,0.056,1.032,0.056,1.486,0c0.454-0.055,1.08-0.117,1.878-0.186
	c0.66-0.11,1.259-0.351,1.796-0.722c0.275,0,0.412,0.248,0.412,0.743C18.101,145.92,18.08,146.257,18.052,146.684z M21.437,144.042
	c0.454,0.88,0.31,1.21-0.433,0.99c-0.014-0.124-0.117-0.254-0.31-0.392c-0.178-0.138-0.233-0.261-0.165-0.372
	c0.069-0.454,0.207-0.674,0.413-0.66C21.107,143.608,21.272,143.753,21.437,144.042z M21.086,146.292
	c0.068,0,0.261,0.13,0.578,0.392c0.316,0.193,0.537,0.097,0.661-0.289c0.165-0.316,0.309-0.241,0.433,0.228
	c0.124,0.454,0.089,0.729-0.104,0.825c-0.027,0.069-0.137,0.152-0.33,0.248c-0.152,0.069-0.2,0.213-0.146,0.434
	c-0.027,0.013-0.048,0.096-0.062,0.248c-0.014,0.137-0.042,0.22-0.083,0.248c-0.109-0.427-0.213-0.771-0.31-1.032
	c-0.165-0.509-0.406-0.88-0.722-1.114C21.004,146.354,21.031,146.292,21.086,146.292z M20.322,152.195
	c-0.137-0.028,0.027-0.358,0.496-0.991c0.674-0.922,1.045-1.459,1.115-1.61c0.192,0.192,0.11,0.564-0.248,1.115
	c-0.179,0.261-0.447,0.667-0.806,1.218c-0.041,0-0.13,0.063-0.268,0.186C20.488,152.195,20.392,152.222,20.322,152.195z
	 M17.99,155.766c-0.083,0.206-0.2,0.523-0.351,0.95c-0.056,0.179-0.131,0.371-0.228,0.577c-0.042,0-0.062,0.063-0.062,0.186
	c-0.028,0.124-0.007,0.434,0.062,0.93c0,0.453-0.096,0.659-0.289,0.619l-0.062-0.166c-0.179,0-0.248,0.055-0.207,0.166
	c-0.083,0.096-0.186,0.075-0.31-0.063c-0.096-0.069-0.172-0.206-0.227-0.413c-0.069-0.151-0.104-0.275-0.104-0.371
	c0-0.468,0.11-0.777,0.33-0.929c0.289,0.413,0.543,0.281,0.764-0.394c0.165-0.798,0.275-1.237,0.331-1.32
	c0.357-1.169,0.915-2.009,1.671-2.518c0.11,0.357,0.014,0.674-0.289,0.949c-0.358,0.371-0.564,0.702-0.619,0.991
	C18.252,155.14,18.114,155.408,17.99,155.766z M29.301,148.686c0.166-0.937,0.469-1.734,0.908-2.394
	c0.262-0.358,0.792-0.929,1.59-1.713c0.715-0.537,1.727-1.135,3.034-1.796c0.73-0.399,1.693-1.004,2.89-1.816
	c0.922-0.606,1.692-1.045,2.312-1.321c0.55-0.303,0.908-0.496,1.073-0.578c0.427-0.165,0.757-0.199,0.99-0.103
	c1.913,0.495,4.142,1.39,6.688,2.683c0.165,0.069,0.337,0.104,0.516,0.104c0.22,0,0.818-0.097,1.796-0.289
	c0.178,0,0.811-0.117,1.899-0.351c0.743-0.165,1.382-0.234,1.919-0.206c1.074-0.083,2.105,0.275,3.096,1.073
	c0.661,0.537,1.101,1.052,1.321,1.548c-0.124-0.083-0.392-0.289-0.805-0.619c-0.344-0.289-0.661-0.434-0.95-0.434
	c-0.068-0.234-0.282-0.427-0.64-0.578c-0.33-0.151-0.613-0.193-0.847-0.124c-0.688,0.027-1.121,0.089-1.3,0.185
	c-0.399,0-0.509,0.021-0.33,0.063c0.151,0.082,0.303,0.082,0.454,0c0.138-0.083,0.234-0.124,0.289-0.124
	c0.042,0,0.2,0.027,0.475,0.083c0.206,0.027,0.378,0.021,0.516-0.021c0.385,0.042,0.605,0.083,0.66,0.124h-0.887
	c-0.303,0-0.557,0.062-0.764,0.186c-1.238,0.386-2.043,0.619-2.415,0.702c-1.169,0.289-2.146,0.399-2.931,0.33
	c-0.11,0-0.165,0.028-0.165,0.083c-0.138,0.069-0.262,0.103-0.372,0.103c-0.097,0-0.289-0.021-0.578-0.062l-1.073-0.125
	c-0.33,0.056-1.115,0.089-2.353,0.104c-0.771,0.014-1.445,0.207-2.022,0.579l-4.81,2.249c-1.348,1.569-3.24,2.278-5.676,2.126
	c-0.137,0.083-0.365,0.145-0.681,0.186c-0.303,0.014-0.488,0.062-0.558,0.145c-0.11,0.289-0.31,0.722-0.598,1.3
	c-0.193,0.509-0.213,0.998-0.062,1.466c0,0.026,0.007,0.302,0.021,0.825c0.027,0.371-0.034,0.48-0.186,0.331
	c-0.261-0.317-0.467-0.765-0.619-1.343c-0.11-0.509-0.152-0.977-0.124-1.403c0-0.578-0.048-0.695-0.145-0.351
	c-0.124,0.33-0.145,0.694-0.062,1.093c-0.027,0.22,0.055,0.702,0.248,1.444c0,0.11-0.062,0.132-0.186,0.063
	c-0.192-0.495-0.316-0.915-0.372-1.259C29.363,149.697,29.301,148.975,29.301,148.686z M12.376,157.19
	c0.097,0,0.166,0.095,0.206,0.288c0.249,0.427,0.338,0.847,0.269,1.259c-0.068,0.29-0.254,0.33-0.557,0.124
	c-0.138,0.11-0.324,0.138-0.558,0.083c-0.275-0.055-0.509-0.214-0.702-0.476c-0.262-0.274-0.323-0.536-0.186-0.783
	c0.151-0.275,0.564-0.447,1.239-0.517L12.376,157.19z M16.05,158.677c-0.069,0.04-0.234,0.02-0.496-0.063
	c-0.137,0.29-0.289,0.345-0.454,0.166c-0.165-0.357-0.255-0.578-0.269-0.661c0.069-0.358,0.213-0.604,0.434-0.743
	c0.179-0.109,0.351-0.075,0.516,0.104c0.096,0.139,0.172,0.352,0.227,0.64C16.078,158.394,16.091,158.58,16.05,158.677z
	 M63.647,141.462c0.302,0,0.467-0.228,0.495-0.681c-0.028-0.55-0.028-0.922,0-1.115c0.055-0.055,0.075-0.158,0.062-0.31
	c-0.028-0.151-0.021-0.261,0.021-0.33l0.103-0.206c0.289-0.44,0.715-0.909,1.28-1.404c0.082-0.068,0.165-0.137,0.248-0.206
	c0.028-0.014,0.042-0.042,0.042-0.083c0.027-0.055,0.048-0.096,0.062-0.124c0.317-0.124,0.599-0.083,0.846,0.124
	c0.138,0.124,0.261,0.22,0.372,0.289c0.138,0.097,0.234,0.145,0.289,0.145c0.358,0.289,0.584,0.805,0.682,1.547
	c-0.193,0.166-0.042,0.703,0.454,1.61c0.522,0.936,0.784,1.197,0.784,0.784v-2.188c0-0.399,0.213-0.771,0.64-1.115
	c0.399-0.303,0.833-0.489,1.3-0.558c1.72,1.473,2.105,3.186,1.156,5.14c0.357,0.372,0.708,0.833,1.052,1.383
	c0.166,0.316,0.42,0.771,0.764,1.362c0.192,0.316,0.33,0.805,0.413,1.465c0.096,0.606,0.124,1.122,0.083,1.548
	c-0.179,2.009-0.468,3.695-0.867,5.057c-0.262,0.921-0.798,2.353-1.61,4.293l0.083,0.104c0.15,0.041,0.509,0,1.073-0.124
	c0.042-0.041,0.062-0.007,0.062,0.103c0,0.371-0.109,0.729-0.33,1.074c-0.454,0.123-0.798,0.186-1.032,0.186
	c-0.44-0.027-0.743-0.249-0.908-0.66c-0.124-0.427-0.021-0.888,0.31-1.383c0.179-0.51,0.269-0.847,0.269-1.012
	c0.083-0.552,0.275-1.404,0.578-2.56c0.551-2.587,0.833-4.08,0.846-4.479c0-2.023-0.819-3.908-2.456-5.656
	c-0.027-0.302,0.048-0.626,0.227-0.969c0.193-0.372,0.317-0.661,0.372-0.868c0.193-0.523,0.179-1.066-0.041-1.63
	c-0.166-0.014-0.248-0.056-0.248-0.125c0-0.082,0.047-0.144,0.144-0.186c-0.097-0.193-0.165-0.289-0.206-0.289
	c-0.083-0.192-0.179-0.269-0.29-0.227c-0.096,0.041-0.186,0.213-0.268,0.516c0,0.042,0.027,0.062,0.083,0.062
	c0.207,0,0.31,0.063,0.31,0.186c-0.083,0.138-0.227,0.173-0.433,0.104c0,0.041-0.014,0.364-0.042,0.97
	c0.083,0.495,0.014,0.922-0.207,1.28l-0.103,0.207l-0.104,0.061c-0.166,0.069-0.372,0.22-0.62,0.454
	c-0.261,0.234-0.392,0.399-0.392,0.496l0.227,0.331c0.055,0.151,0.09,0.323,0.103,0.515c0.083,0.358,0.083,0.716,0,1.074
	c-0.042,0.482-0.083,0.764-0.124,0.847c-0.096,0.357-0.282,0.777-0.557,1.259c-0.083,0.095-0.131,0.158-0.145,0.185
	c-0.192,0.385-0.006,0.812,0.558,1.28l0.475,0.412c0.013,0.069,0.076,0.2,0.186,0.393c0.096,0.165,0.15,0.323,0.165,0.474
	c-0.042,0-0.062,0.049-0.062,0.145l-0.269-0.062c-0.151-0.372-0.392-0.771-0.723-1.198c-0.385-0.522-0.674-0.722-0.867-0.598
	c-0.138,0.151-0.323,0.31-0.557,0.475c-0.441,0.316-0.695,0.495-0.764,0.537c-0.166,0-0.097-0.166,0.206-0.496
	c0.165-0.151,0.316-0.337,0.455-0.557c0.165-0.262,0.282-0.468,0.35-0.619c-0.013-0.124-0.082-0.386-0.206-0.785
	c-0.138-0.33-0.206-0.612-0.206-0.846c-0.427,0.151-0.819,0.282-1.177,0.392c-0.674,0.207-1.252,0.172-1.734-0.103
	c-0.192,0.303-0.303,0.482-0.33,0.537c-0.014,0.042-0.042,0.199-0.083,0.475l-0.083,1.837c0.055,0.55,0.124,1.412,0.206,2.58
	c0.11,1.004,0.248,1.845,0.413,2.519c0.22,0.757,0.351,1.424,0.392,2.002v0.413l-0.062,0.413c-0.11,0.688-0.392,1.148-0.846,1.382
	c-0.33,0.234-0.888,0.399-1.671,0.496c-0.124,0-0.255-0.035-0.393-0.104c-0.165-0.056-0.22-0.137-0.165-0.247
	c0.083-0.345,0.151-0.6,0.206-0.765c0.083-0.303,0.186-0.516,0.31-0.64l0.042-0.062c0.027-0.028,0.075-0.028,0.144,0v0.062
	c0.083,0,0.103-0.021,0.062-0.062c0.275,0,0.468-0.028,0.578-0.083c0.192-0.11,0.22-0.33,0.083-0.66
	c-1.032-3.357-1.589-6.481-1.672-9.371c0.014-0.909,0.035-1.583,0.063-2.022c0.041-0.771,0.171-1.3,0.392-1.59
	c0.578-1.046,1.135-1.748,1.672-2.105L63.647,141.462z M57.95,144.909c-0.839-0.646-1.472-0.86-1.899-0.64
	c-0.605-0.055-1.342,0.097-2.208,0.455c-0.895,0.372-1.596,0.543-2.106,0.516c-0.358-0.743-0.027-1.267,0.991-1.569
	c0.165-0.055,1.066-0.207,2.704-0.454c0.757,0.068,1.465,0.344,2.126,0.826c0.372,0.289,0.881,0.736,1.527,1.341
	C59.03,145.631,58.652,145.473,57.95,144.909z M51.551,147.035c0.069,0.137,0.048,0.309-0.062,0.516
	c-0.495,0.688-0.867,1.086-1.114,1.197c-0.372,0.096-0.599-0.303-0.681-1.197c-0.069-0.551,0.062-1.025,0.392-1.425
	c0.44-0.344,0.736-0.592,0.887-0.743c0.166,0,0.296,0.234,0.393,0.702C51.448,146.664,51.51,146.979,51.551,147.035z
	 M48.786,149.449c-0.097,0.276-0.268,0.695-0.516,1.26c-1.17,0.949-2.154,1.638-2.952,2.063l-0.372,1.197
	c0.055,0.138,0.028,0.303-0.083,0.495l-0.764-0.124c0-0.165-0.055-0.192-0.166-0.081c-0.192,0.164-0.336,0.191-0.433,0.081
	c-0.056-0.248-0.22-0.337-0.496-0.268c-0.22,0.068-0.351-0.049-0.392-0.352c-0.014-0.082-0.117-0.137-0.31-0.165
	c-0.138,0-0.179-0.11-0.124-0.33c-0.042-0.178-0.172-0.303-0.392-0.372c-0.221-0.067-0.351-0.02-0.393,0.146
	c-0.027,0.013-0.041-0.014-0.041-0.083c-0.068,0.027-0.124,0.027-0.165,0c-0.028-0.056-0.055-0.082-0.083-0.082
	c0.028-0.083,0.042-0.206,0.042-0.372c-0.027-0.151-0.014-0.254,0.041-0.31c0.358-1.06,0.633-1.748,0.825-2.064l0.434-0.826
	c0.303-0.591,0.571-1.004,0.805-1.238c0.124-0.083,0.495-0.344,1.115-0.784c0.756-0.275,1.61-0.337,2.56-0.186
	c1.018,0.164,1.665,0.557,1.94,1.176C49.005,148.576,48.979,148.982,48.786,149.449z M48.27,151.803
	c0.042-0.33,0.09-0.605,0.145-0.825c0.11-0.455,0.316-0.75,0.619-0.888c0.33-0.178,0.585-0.062,0.764,0.351
	c0.192,0.413,0.103,0.592-0.269,0.537c-0.028,0.082-0.007,0.158,0.062,0.227c0.028,0,0.042,0.055,0.042,0.165
	c0,0.069,0.048,0.109,0.144,0.125c0.165,0.013,0.351-0.125,0.558-0.414c0.138-0.22,0.323-0.213,0.557,0.021
	c0.069,0.151,0.083,0.275,0.041,0.372c-0.013,0.027-0.075,0.109-0.186,0.248c-0.138,0.097-0.336,0.232-0.598,0.412
	c-0.234,0.138-0.454,0.145-0.661,0.021C49.075,152.25,48.668,152.133,48.27,151.803z M33.057,155.744
	c0-0.412,0.325-0.653,0.971-0.722c0.399-0.165,0.681-0.075,0.846,0.269c0.11,0.193,0.248,0.475,0.413,0.846
	c0.069,0.275,0.048,0.461-0.062,0.557c-0.11,0.056-0.31,0.063-0.599,0.022c0.027-0.056,0.027-0.104,0-0.146
	c-0.056-0.026-0.083-0.055-0.083-0.083c-0.138-0.44-0.213-0.569-0.227-0.392c-0.042,0.455-0.166,0.716-0.372,0.785
	c-0.331,0.067-0.585-0.042-0.764-0.33C33.057,156.302,33.016,156.034,33.057,155.744z M41.293,156.57
	c0,0.206-0.062,0.446-0.186,0.723c0.083,0.165,0.096,0.269,0.042,0.31c-0.027,0.027-0.138,0.068-0.331,0.124
	c-0.138,0.027-0.241,0.007-0.309-0.062l-0.145-0.021c0-0.11-0.021-0.165-0.062-0.165c-0.207-0.248-0.276-0.653-0.207-1.218
	c0.11-0.564,0.33-0.936,0.66-1.115c0.578-0.261,1.005,0,1.28,0.785c0.316,0.826,0.234,1.142-0.248,0.95
	c-0.042,0.067-0.11,0.02-0.207-0.146C41.5,156.558,41.403,156.502,41.293,156.57z M43.212,155.477
	c0.633-0.289,0.95,0.117,0.95,1.217c0,0.387-0.055,0.613-0.165,0.682c-0.124,0.11-0.268-0.082-0.434-0.577l-0.041-0.021
	c0-0.067,0.013-0.09,0.041-0.061c0-0.056-0.02-0.083-0.062-0.083c-0.056,0.027-0.097,0.041-0.125,0.041
	c-0.124,0.124-0.254,0.343-0.392,0.66c-0.083,0.221-0.193,0.151-0.331-0.207c-0.137-0.302-0.207-0.591-0.207-0.866
	C42.394,155.931,42.648,155.669,43.212,155.477z M93.265,155.538c-0.467,0.331-0.674,0.2-0.619-0.393
	c0.042-0.549,0.316-0.694,0.826-0.433c0.262,0.083,0.358,0.316,0.289,0.701C93.692,155.828,93.527,155.869,93.265,155.538z
	 M92.316,152.854c0.247,0.18,0.302,0.33,0.165,0.455c-0.11,0.137-0.31,0.207-0.599,0.207c-0.124-0.139-0.103-0.29,0.062-0.455
	C92.082,152.883,92.206,152.813,92.316,152.854z M90.293,151.369c0.124-0.042,0.213-0.027,0.269,0.041
	c0.316,0.165,0.475,0.427,0.475,0.785c0,0.385-0.159,0.55-0.475,0.495l-0.537-0.104c-0.096-0.439-0.11-0.783-0.041-1.031
	C90.08,151.485,90.183,151.424,90.293,151.369z M91.243,146.684c-0.331-0.11-0.406-0.302-0.227-0.578
	c0.207-0.303,0.378-0.331,0.516-0.083c0.303,0.069,0.372,0.255,0.207,0.558C91.545,146.883,91.38,146.918,91.243,146.684z
	 M94.111,140.966c0.441-0.743,0.709-0.661,0.805,0.248c0.097,0.537,0.337,1.142,0.723,1.816c0.096,0.097,0.171,0.159,0.227,0.186
	c0.069,0,0.152-0.062,0.248-0.186c-0.055-0.302,0.021-0.53,0.228-0.681c0.371-0.178,0.729-0.178,1.073,0
	c0.399,0.166,0.441,0.496,0.125,0.991c-0.055,0.343-0.159,0.626-0.31,0.846c-0.22,0.331-0.516,0.427-0.887,0.29
	c-0.372-0.152-0.75-0.468-1.135-0.95c-0.041-0.042-0.309-0.413-0.805-1.115c-0.083-0.509-0.282-0.605-0.598-0.289
	c-0.317,0.372-0.785,0.908-1.404,1.61c-0.536,0.578-1.039,1.039-1.507,1.383c-0.068,0.069-0.227,0.193-0.475,0.371
	c-0.193,0.179-0.289,0.324-0.289,0.434c0,0.069,0.096,0.124,0.289,0.165c-0.068,0.262,0.021,0.681,0.268,1.259
	c0,0.179-0.041,0.31-0.124,0.392c-0.166,0.097-0.241,0.248-0.228,0.454c0.028,0.29,0.028,0.454,0,0.496
	c-0.055-0.027-0.034,0.028,0.062,0.165c0.124,0.234,0.131,0.447,0.021,0.64c-0.055,0.248-0.131,0.372-0.227,0.372
	c-0.042,0-0.11-0.042-0.207-0.124c-0.207-0.028-0.31,0.014-0.31,0.124l-0.041,0.289c-0.097,0.11-0.165,0.186-0.207,0.227
	c0,0.041-0.021,0.117-0.062,0.227c-0.124,0.165-0.166,0.303-0.124,0.413c0.096,0.412,0.46,1.148,1.093,2.208
	c0.523,0.455,1.363,1.335,2.519,2.643c1.115,1.031,2.277,1.444,3.488,1.237c0.454,0,0.997-0.206,1.63-0.619
	c0.716-0.467,1.128-0.715,1.238-0.743c0.399-0.302,0.709-0.24,0.929,0.187c0.11,0.248,0.227,0.64,0.351,1.176l0.103,0.084
	c0,0.013-0.096,0.068-0.289,0.165c-0.509,0-0.991-0.214-1.445-0.64c-0.166-0.097-0.379,0.007-0.64,0.309
	c-0.138,0.151-0.324,0.357-0.557,0.619c-0.358,0.317-1.025,0.592-2.003,0.825c-0.701,0.179-1.348,0.29-1.94,0.331
	c-1.555,0.357-3.151,0.096-4.789-0.785c-1.568-1.06-2.573-1.74-3.013-2.043c-0.069-0.027-0.158-0.027-0.269,0
	c-0.151,0.069-0.282,0.104-0.392,0.104c-0.358,0.124-0.716,0.056-1.073-0.206c-0.151-0.11-0.433-0.365-0.846-0.764
	c-0.262-0.344-0.186-0.641,0.227-0.888l0.887-0.517c0.097-0.068,0.179-0.103,0.248-0.103c0.042,0,0.068,0.007,0.083,0.021
	c-0.014-0.055-0.021-0.158-0.021-0.31c-0.385,0-0.86-0.118-1.424-0.351c-0.646-0.248-1.087-0.537-1.321-0.867
	c-0.137-0.22-0.055-0.455,0.248-0.702c0.289-0.221,0.509-0.33,0.661-0.33h1.28l-0.083-0.207c-0.936-0.523-1.741-1.19-2.415-2.002
	c-0.097-0.192-0.117-0.371-0.063-0.537c0.372-0.207,0.647-0.31,0.826-0.31c0.193,0,0.44,0.103,0.743,0.31
	c0.413,0.22,0.778,0.213,1.094-0.021c0.041-0.042,0.275-0.323,0.702-0.847c0.303-0.138,0.406-0.33,0.31-0.578
	c-0.028-0.082-0.159-0.295-0.393-0.64c-0.496-0.495-0.716-1.094-0.661-1.795c0.028-0.606,0.248-1.169,0.661-1.692
	c1.073-1.225,1.74-1.947,2.002-2.167c0.097-1.019,0.612-1.741,1.548-2.167c0.138-0.055,0.406-0.2,0.806-0.433
	c0.371-0.193,0.653-0.29,0.846-0.29c0.165,0,0.248,0.104,0.248,0.31c-0.124,0.413-0.336,0.792-0.639,1.135
	c-0.372,0.454-0.75,0.647-1.136,0.578c-0.22,0.193-0.206,0.33,0.041,0.413c0.207,0.069,0.475,0.055,0.805-0.041
	c0.027-0.014,0.351-0.241,0.97-0.681c0.399-0.29,0.654-0.303,0.764-0.042l-0.228,0.248c-0.068,0.165-0.062,0.282,0.021,0.351
	c0.109,0.11,0.137,0.207,0.082,0.29l-0.309,0.371c-0.481,0.055-0.943,0.372-1.383,0.95c-0.372,0.44-0.902,0.55-1.589,0.331
	c0.068,0.041-0.117,0.378-0.558,1.011c-0.523,0.757-0.791,1.369-0.805,1.837c0,0.537,0.056,0.867,0.165,0.991l3.839-2.312
	c0.261-0.125,0.495-0.441,0.702-0.95s0.399-0.833,0.578-0.97c0.248,0,0.434,0.09,0.557,0.269c0.152,0.233,0.269,0.371,0.352,0.412
	l0.206,0.042C93.073,142.391,93.506,141.971,94.111,140.966z M70.478,149.449c0.097,0.234,0.145,0.44,0.145,0.62
	c0,0.124-0.048,0.2-0.145,0.227c-0.137-0.316-0.248-0.57-0.33-0.763c-0.151-0.33-0.165-0.502-0.041-0.516
	C70.245,149.071,70.368,149.216,70.478,149.449z M70.086,149.635c0.124,0.234,0.186,0.44,0.186,0.62
	c0,0.124-0.055,0.165-0.165,0.124c-0.014-0.041-0.131-0.254-0.352-0.64c-0.151-0.262-0.172-0.44-0.062-0.537
	C69.846,149.229,69.977,149.374,70.086,149.635z M71.799,151.864c-0.096,0.647-0.344,1.362-0.743,2.146
	c-0.564,1.129-0.881,1.782-0.949,1.961c-0.276,0.757-0.641,1.41-1.095,1.961c-0.206,0.317-0.371,0.496-0.495,0.536l0.227,0.269
	c0.166,0.138,0.255,0.228,0.268,0.269c0.055,0.082-0.047,0.082-0.309,0l-0.331-0.123c-0.151-0.015-0.159,0.04-0.021,0.165
	c0.11,0.137,0.062,0.198-0.145,0.186c-0.275,0-0.523-0.042-0.743-0.124l-0.206,0.124c-0.207,0.192-0.427,0.345-0.661,0.454
	c-0.303,0.123-0.316,0.007-0.042-0.352c0.083-0.055,0.207-0.213,0.372-0.475c-0.33-0.33-0.612-0.77-0.846-1.321l-0.433-1.383
	c-0.207-0.825-0.393-1.823-0.558-2.992c0-0.579,0-0.983,0-1.219c0.013-0.384,0.103-0.681,0.268-0.887
	c1.307,0.234,1.961,0.887,1.961,1.961c-0.166,1.308,0.041,2.772,0.619,4.396c0.124-0.207,0.31-0.701,0.557-1.486
	c0.22-0.743,0.393-1.438,0.516-2.085c-0.068-0.963,0.2-1.699,0.806-2.209c0.344-0.316,0.942-0.611,1.795-0.886
	c0.166,0.013,0.283,0.185,0.351,0.515C71.992,151.568,71.937,151.769,71.799,151.864z M67.568,149.656
	c-0.014,0.069-0.048,0.165-0.104,0.289c-0.055,0-0.083,0.041-0.083,0.124c0.055-0.11,0.083-0.103,0.083,0.021l-0.083,0.042
	c-0.151,0.274-0.44,0.446-0.867,0.516l-0.31,0.104c0-0.193,0.165-0.461,0.495-0.806c0.331-0.343,0.599-0.529,0.805-0.557
	C67.561,149.47,67.582,149.56,67.568,149.656z M101.376,153.97c-0.784-0.221-1.224-0.592-1.32-1.115
	c-0.166-0.536,0.337-0.805,1.506-0.805s1.631,0.304,1.383,0.909l-0.165,0.351c-0.152,0-0.248,0.007-0.29,0.021
	c-0.028,0.014-0.006,0.076,0.062,0.187c0.056-0.028,0.083-0.015,0.083,0.04s-0.027,0.055-0.083,0
	C102.54,154.066,102.147,154.204,101.376,153.97z M103.317,148.48c0.096-0.152,0.186-0.228,0.268-0.228
	c0.179,0,0.303,0.082,0.371,0.248c0.083,0.165,0.062,0.337-0.062,0.516l-0.826,1.032l-0.764,0.371
	c-0.041,0.056-0.151,0.131-0.33,0.228c-0.097,0.124-0.042,0.22,0.165,0.289l-0.743,0.269c-0.234,0.041-0.461,0.021-0.681-0.063
	c-0.233-0.151-0.434-0.274-0.598-0.371c0-0.097-0.083-0.179-0.248-0.248c-0.179-0.096-0.275-0.166-0.289-0.207
	c-0.207-0.068-0.31-0.24-0.31-0.516c0.014-0.274,0.138-0.44,0.372-0.495c0.192-0.344,0.406-0.509,0.64-0.496
	c0.069,0,0.324,0.083,0.764,0.248c0.151,0.096,0.351,0.145,0.598,0.145C102.306,149.202,102.863,148.961,103.317,148.48z
	 M102.306,140.409c0,0.069,0.062,0.103,0.186,0.103l0.186,0.289l0.806,2.725c0.372,1.197-0.186,2.263-1.672,3.199
	c-1.293,0.812-2.257,1.114-2.89,0.908c0.124-0.027,0.158-0.117,0.103-0.268c0.908-0.207,1.645-0.496,2.208-0.868
	c0.674-0.481,1.011-1.066,1.011-1.754v-0.558c-0.22-0.44-0.337-0.702-0.351-0.784l-1.858-0.722c-0.303-0.11-0.488-0.427-0.557-0.95
	c-0.082-0.509,0-0.915,0.248-1.218c0.138-0.124,0.31,0.027,0.517,0.454c0.261,0.496,0.46,0.764,0.598,0.806
	c0.137,0,0.207,0.041,0.207,0.124c0.399,0.083,0.488-0.159,0.268-0.722c-0.22-0.565-0.461-0.847-0.723-0.847
	c-0.812-0.715-0.757-0.984,0.165-0.805C101.707,139.714,102.223,140.01,102.306,140.409z M113.493,141.751
	c-0.11-0.014-0.13-0.069-0.062-0.165c0-0.083-0.165-0.241-0.496-0.475c-0.344-0.22-0.413-0.419-0.206-0.599
	c0.661-0.068,0.991,0.145,0.991,0.64v0.97c0,0.055-0.028,0.186-0.083,0.393c-0.028,0.15,0.048,0.213,0.227,0.185
	c0.055,0.028,0.179,0.014,0.372-0.042c0.138,0,0.151,0.124,0.041,0.372l-0.145,0.041c-0.068,0.207-0.103,0.316-0.103,0.331
	c0,0.124,0.076,0.213,0.228,0.269c0.055,0,0.137-0.048,0.248-0.145c0.082-0.069,0.124-0.09,0.124-0.062
	c0,0.042-0.021,0.11-0.062,0.207c0.042,0.124-0.034,0.186-0.227,0.186c-0.179,0.013-0.31-0.007-0.392-0.063
	c-0.096-0.082-0.158-0.138-0.186-0.165c-0.055-0.014-0.083,0.041-0.083,0.165l-0.125,0.124c-0.316,0-0.522-0.034-0.619-0.103
	c-0.068,0-0.103-0.047-0.103-0.144s0.021-0.186,0.062-0.269c0.097,0.138,0.228,0.228,0.393,0.269
	c0.179,0.042,0.31-0.027,0.393-0.207l-0.351-0.434c-0.068-0.137-0.048-0.343,0.062-0.619
	C113.5,142.123,113.534,141.902,113.493,141.751z M115.247,154.59c-0.042-0.083-0.096-0.11-0.165-0.083
	c0.069,0.274,0.027,0.412-0.124,0.412s-0.241-0.089-0.268-0.268c-0.22-0.151-0.365-0.083-0.433,0.206
	c-0.055,0.248-0.166,0.269-0.331,0.062c0-0.123-0.021-0.187-0.062-0.187l-0.083-0.081c-0.042,0-0.062-0.028-0.062-0.083
	c0-0.068-0.028-0.089-0.083-0.062c0.042,0.055,0.055,0.109,0.042,0.165c-0.028,0.027-0.069,0.076-0.125,0.144l-0.227,0.207
	l-0.103,0.248c-0.124-0.055-0.22-0.173-0.29-0.352c-0.109-0.233-0.199-0.385-0.268-0.454c0.179-0.454,0.268-0.936,0.268-1.444
	c0-0.454-0.082-1.156-0.247-2.106c-0.166-0.99-0.255-1.734-0.268-2.229c-0.028-0.096-0.007-0.241,0.062-0.434
	c0.055-0.179,0.083-0.282,0.083-0.31c0.11,0.455,0.399,1.225,0.867,2.312c0.289,0.633,0.358,1.286,0.207,1.96
	c0,0.579-0.13,1.163-0.392,1.755c0.083,0.151,0.213,0.193,0.392,0.123c0.592,0.07,1.107-0.068,1.548-0.411
	C115.295,153.833,115.316,154.135,115.247,154.59z M117.58,154.196c-0.179,0.042-0.29,0.145-0.331,0.311
	c-0.137-0.069-0.454-0.05-0.949,0.062c-0.358,0.068-0.544-0.089-0.558-0.476c0.096-0.521,0.227-0.715,0.392-0.576
	c0.331,0.191,0.537,0.262,0.62,0.205l0.083-0.186l0.041-0.02v-0.125c0.055-0.027,0.083,0.042,0.083,0.207l0.124,0.269
	c0.042,0.027,0.097,0.061,0.165,0.103c0.014,0,0.035-0.035,0.063-0.103c-0.042-0.166,0-0.296,0.123-0.393
	c0.138-0.097,0.228-0.041,0.269,0.165c0.097-0.028,0.193-0.014,0.289,0.042c0.192-0.304,0.282-0.269,0.269,0.103
	c0,0.014-0.041,0.357-0.124,1.031l-0.228-0.083l-0.103-0.143C117.82,154.3,117.745,154.17,117.58,154.196z M115.247,140.698
	c-0.042,0.138-0.158,0.29-0.351,0.455c-0.179,0.124-0.344,0.179-0.495,0.165c-0.151-0.233-0.089-0.419,0.186-0.557
	C114.834,140.637,115.055,140.615,115.247,140.698z M116.383,140.863c-0.358-0.578-0.723-0.942-1.095-1.094
	c-0.275-0.124-0.75-0.165-1.424-0.124l-1.3-0.166l0.083,0.042c0.027,0.027,0.027,0.069,0,0.124c-0.055-0.027-0.103-0.027-0.144,0
	l-0.063,0.021l-0.083,0.352c-0.014,0.041-0.089,0.11-0.227,0.206c-0.096,0.124-0.199,0.303-0.31,0.537
	c0.11,0.427,0.241,1.073,0.392,1.94c0.138,0.771,0.207,1.431,0.207,1.981c0,0.414-0.069,0.805-0.207,1.176
	c-0.055,0.11,0.035,0.426,0.269,0.95c0.137,0.357-0.007,0.481-0.434,0.372l-1.671-2.972c-0.234-0.454-0.344-1.308-0.331-2.56
	c0.014-1.527,0.014-2.366,0-2.518c-0.097-0.702,0.11-1.273,0.619-1.713c0.096-0.082,0.2-0.158,0.309-0.227l0.125-0.062
	c0.633-0.165,1.362-0.22,2.188-0.165c1.087,0.055,1.782,0.069,2.085,0.041c0.303,0.138,0.592,0.275,0.867,0.413
	c0.854,0.427,1.458,0.826,1.816,1.197c0.647,0.633,0.778,1.356,0.393,2.167c-0.192,0.798-0.351,1.431-0.475,1.899
	c-0.041,0.151-0.034,0.365,0.021,0.64c0.069,0.399,0.172,0.667,0.31,0.805c0.096,0.11,0.268,0.268,0.516,0.475l0.557,0.516
	c0.564,0.44,1.328,1.032,2.291,1.775c0.661,0.688,1.177,1.307,1.548,1.858c0.22,1.115,0.344,1.74,0.372,1.878
	c0,0.316,0.062,0.612,0.186,0.887c0.068,0.825-0.193,1.623-0.785,2.394c-0.591,0.799-1.225,1.198-1.899,1.198l-4.21,0.742
	c-0.303,0.083-0.55,0.166-0.744,0.248c-0.33,0.179-0.509,0.378-0.536,0.598c0.027,0.262,0.186,0.51,0.475,0.744
	c0.165,0.138,0.42,0.316,0.764,0.536c0.027,0.055,0.227,0.069,0.598,0.041c0.303-0.013,0.427,0.09,0.372,0.311
	c-0.11,0-0.199,0.048-0.269,0.144c-0.027,0.043-0.068,0.111-0.124,0.208l-0.268,0.206c-0.124,0.096-0.241,0.15-0.351,0.165
	c-0.027,0-0.165-0.028-0.412-0.083c0,0.028-0.021,0.055-0.063,0.083c-0.041,0.026-0.048,0.055-0.02,0.082
	c0.055,0,0.083,0.055,0.083,0.165c-0.166,0-0.249,0.015-0.249,0.041c-0.371,0.234-0.667,0.289-0.887,0.165
	c-0.042,0.193-0.179,0.255-0.413,0.187c-0.261-0.083-0.406-0.117-0.433-0.104c-0.22-0.069-0.426-0.186-0.619-0.351
	c-0.165-0.152-0.262-0.282-0.289-0.393c-0.083,0.055-0.165,0.021-0.248-0.104c-0.069-0.124-0.124-0.213-0.165-0.269
	c-0.069-0.054-0.103-0.13-0.103-0.227l0.02-0.124l0.083-0.041c0.027,0.027,0.048,0.063,0.062,0.104
	c0.068,0.096,0.117,0.027,0.144-0.207l0.207-0.722c-0.11-0.11-0.261-0.165-0.454-0.165c-0.152,0-0.207-0.07-0.166-0.206
	c0.042-0.015,0.062-0.063,0.062-0.146c0.262-0.371,0.448-0.592,0.558-0.66c1.17-0.633,1.831-1.004,1.981-1.114l0.723-0.104
	c0.179,0.192,0.481,0.303,0.908,0.33c0.22,0.014,0.488,0.014,0.805,0c1.403-0.042,2.539-0.261,3.406-0.66
	c1.101-0.51,1.603-1.253,1.507-2.229l-0.331-0.889c-0.344-0.908-0.784-1.541-1.321-1.898c-0.468-0.427-1.307-1.019-2.518-1.776
	c-1.005-0.633-1.638-1.135-1.899-1.507c-0.33-0.137-0.557-0.302-0.681-0.495c-0.11-0.233-0.207-0.633-0.289-1.197
	c0-0.633,0.042-1.039,0.124-1.217c0.11-0.193,0.172-0.461,0.186-0.805c0-0.029-0.035-0.338-0.103-0.929
	C115.949,141.366,116.08,141.125,116.383,140.863z M113.08,158.077c-0.097-0.165-0.076-0.172,0.062-0.021L113.08,158.077z
	 M163.318,137.416c0.055-0.151,0.123-0.275,0.207-0.371c0.261-0.372,0.798-0.557,1.609-0.557s1.506,0.275,2.085,0.825
	c0.041,0.042,0.075,0.076,0.104,0.103c0.604,0.633,0.907,1.466,0.907,2.498c0,0.357-0.026,0.598-0.082,0.723
	c-0.096-0.125-0.165-0.187-0.206-0.187l0.061,1.507c0,0.124-0.027,0.337-0.083,0.641c-0.081,0.316-0.123,0.577-0.123,0.784
	l-0.145,0.103l-0.392-1.589c-0.069-0.207-0.31-0.31-0.723-0.31l-0.599,0.083c0-0.097-0.055-0.186-0.165-0.269
	c-0.124-0.097-0.187-0.173-0.187-0.227c0-0.097,0.151-0.166,0.454-0.207c0.331-0.068,0.537-0.137,0.62-0.206
	c-0.536-0.455-0.956-0.681-1.26-0.681c-0.248,0-0.522,0.062-0.825,0.186c-0.33,0.166-0.496,0.33-0.496,0.496
	c0,0.055,0.043,0.124,0.124,0.206c0.111,0.137,0.222,0.207,0.331,0.207c0.068,0,0.179-0.028,0.33-0.083
	c0.082,0.152,0.124,0.275,0.124,0.372c0,0.248-0.158,0.371-0.476,0.371c-0.15-0.082-0.254-0.124-0.31-0.124
	c-0.055,0-0.081,0.035-0.081,0.103c0,0.166,0.075,0.269,0.226,0.31c0,0.303,0.165,0.605,0.497,0.908
	c0.33,0.331,0.495,0.53,0.495,0.599c0,0.11-0.117,0.227-0.352,0.351c-0.233,0.123-0.495,0.186-0.785,0.186
	c-0.563-0.083-0.982-0.124-1.258-0.124c-0.895,0-1.92,0.365-3.076,1.094c-1.046,0.647-1.567,1.142-1.567,1.486
	c0,0.069,0.04,0.137,0.123,0.207c0.082,0.082,0.165,0.124,0.247,0.124c1.872,0,3.737-0.419,5.594-1.259
	c1.844-0.84,3.145-1.259,3.901-1.259c0.495,0,1.079,0.227,1.755,0.681c0.659,0.44,0.99,0.812,0.99,1.114
	c0,0.11-0.055,0.207-0.165,0.29c-0.138,0.11-0.31,0.165-0.517,0.165c-0.124,0-0.398-0.089-0.825-0.268
	c-0.44-0.165-0.743-0.248-0.908-0.248c-0.302,0-1.073,0.24-2.312,0.722l4.727,0.908c0.605,0,1.135-0.083,1.59-0.247
	c0.646-0.207,0.921-0.53,0.825-0.971c-0.605-0.771-1.19-1.321-1.755-1.651c-0.812-0.344-1.555-0.674-2.229-0.99
	c-0.468-0.207-0.653-0.393-0.557-0.558c-0.151-0.097-0.063-0.165,0.269-0.207c0.33-0.027,0.405,0.014,0.228,0.124
	c1.045,0.22,1.994,0.647,2.849,1.28c1.044,0.77,1.678,1.638,1.897,2.601c0.275,0.88-0.55,1.445-2.477,1.692
	c-1.169-0.014-1.954-0.075-2.353-0.186c-0.317-0.166-0.688-0.296-1.115-0.392c-0.468-0.069-0.818-0.124-1.052-0.165
	c-0.634-0.042-0.868,0.145-0.702,0.557c0.014,0,0.041,0.021,0.083,0.062c0.013,0,0.054-0.014,0.123-0.042
	c0,0.11,0.056,0.213,0.165,0.31c0.069,0.082,0.083,0.24,0.041,0.474c0.262,0.055,1.246,0.125,2.952,0.207
	c0.068-0.069,0.221-0.09,0.453-0.062c0.139,0,0.317,0.007,0.537,0.021h0.619c0.427,0,0.695-0.028,0.805-0.083
	c0.386,0.124,0.366,0.227-0.062,0.31c-0.357,0.069-0.777,0.103-1.259,0.103l-3.138-0.123c-0.77,0-1.21,0.041-1.32,0.123h-2.415
	l-0.97,0.104c-0.055,0.027-0.543,0.083-1.467,0.166c-0.633,0.041-1.107,0.13-1.424,0.268c-0.04,0.068-0.033,0.131,0.021,0.186
	c0.055,0.083,0.081,0.144,0.081,0.185c0.097,0.056,0.152,0.2,0.167,0.433c0.027,0.207,0.006,0.352-0.063,0.435
	c-0.11,0.618,0.041,1.507,0.455,2.662c0.48,1.404,0.749,2.353,0.804,2.849l1.031,0.083c0.042,0.55-0.075,1.06-0.351,1.527
	c-0.619,0.867-1.857,1.196-3.714,0.99c-0.551-0.123-0.95-0.282-1.199-0.475c-0.329-0.247-0.508-0.633-0.536-1.156
	c-0.15-0.206-0.171-0.399-0.062-0.577c0.098-0.165,0.255-0.248,0.475-0.248c0-0.042,0.028-0.062,0.084-0.062l1.897,0.123
	c0.316,0.042,0.723,0.021,1.218-0.062c0.537-0.083,0.806-0.179,0.806-0.29c-0.578-2.146-0.99-3.681-1.238-4.602
	c-0.152-0.289-0.337-0.146-0.557,0.434c-0.317,0.756-0.49,1.142-0.517,1.155l-0.187,0.207c0-0.097,0.048-0.33,0.145-0.702
	c0-0.151,0.014-0.255,0.042-0.31c0.262-0.923,0.446-1.569,0.557-1.94l-0.166-0.104c-0.095-0.082-0.164-0.165-0.206-0.247
	c-0.081-0.11-0.081-0.199,0-0.268c0-0.029,0.028-0.063,0.084-0.104c0.054-0.014,0.062-0.056,0.02-0.124
	c0.069-0.069,0.056-0.213-0.04-0.434c-0.165-0.22-0.248-0.364-0.248-0.433c0-0.11,0.097-0.2,0.288-0.269l0.103-0.186l6.399,0.227
	c0-0.124-0.041-0.206-0.124-0.248c-0.095-0.041-0.282-0.061-0.557-0.061c-0.564,0-0.846-0.179-0.846-0.537
	c0-0.096,0.151-0.317,0.453-0.661c0.331-0.331,0.633-0.599,0.909-0.805v-0.041c-2.588,0.88-4.362,1.321-5.327,1.321
	c-0.632,0-1.319-0.2-2.063-0.599c-0.743-0.44-1.114-0.853-1.114-1.238c0-0.316,0.323-0.743,0.97-1.279
	c0.564-0.496,1.107-0.854,1.631-1.074l3.88-1.445c-0.261-0.563-0.393-1.686-0.393-3.364
	C163.07,138.517,163.153,137.856,163.318,137.416z M149.696,153.517c0,0.453-0.075,1.073-0.227,1.857
	c-0.193,0.908-0.413,1.588-0.661,2.043c0-0.097,0.083-0.495,0.248-1.197c0.178-0.688,0.268-1.232,0.268-1.63
	c0-0.606-0.096-1.315-0.288-2.127c-0.207-0.771-0.31-1.19-0.31-1.259c0-0.33,0.048-0.564,0.144-0.702
	c0.207,0.097,0.406,0.517,0.599,1.26C149.621,152.395,149.696,152.979,149.696,153.517z M147.075,141.523
	c0.743,2.711,1.114,5.057,1.114,7.039c-0.041,0.22-0.076,0.331-0.104,0.331l-0.124-0.186c-0.056-0.206-0.316-0.399-0.785-0.578
	l-1.217-0.682c-0.179-0.096-0.269-0.302-0.269-0.619c0-0.22,0.109-0.42,0.33-0.599c0.179-0.137,0.268-0.227,0.268-0.268
	c0-0.014-0.344-0.151-1.032-0.413c-0.729-0.248-1.149-0.64-1.258-1.177l-0.785-3.508c-0.041-0.261-0.118-0.392-0.227-0.392
	c-0.151,0.11-0.323,0.166-0.516,0.166c-0.083,0-0.193-0.042-0.331-0.125c-0.165-0.11-0.248-0.207-0.248-0.289
	c0-0.206,0.138-0.337,0.413-0.392c0.275-0.042,0.413-0.124,0.413-0.248c0-0.302-0.137-0.564-0.413-0.784
	c-0.303-0.234-0.626-0.351-0.97-0.351h-0.743c0-0.262,0.289-0.606,0.868-1.033c0.055-0.027,0.116-0.068,0.185-0.124
	c0.743-0.523,1.431-0.784,2.064-0.784c0.55,0,1.066,0.302,1.548,0.907C145.918,138.228,146.523,139.597,147.075,141.523z
	 M140.841,140.905l-0.516-0.104l-0.041-0.165c0-0.152,0.118-0.276,0.351-0.372c0.166-0.083,0.303-0.124,0.414-0.124
	c0.151,0,0.247,0.069,0.289,0.207C141.145,140.719,140.979,140.905,140.841,140.905z M141.089,142.824
	c0.289,0.426,0.461,0.812,0.516,1.156c0,0.522-0.158,1.011-0.476,1.465c-0.192,0.235-0.639,0.695-1.341,1.383
	c-0.109,0.11-0.295,0.372-0.557,0.784c-0.304,0.469-0.523,0.785-0.661,0.95l-0.041-0.207c0-0.151,0.074-0.378,0.227-0.681
	c0.124-0.331,0.185-0.516,0.185-0.558l-0.041-0.434c0-0.178,0.062-0.33,0.186-0.454c0.138-0.137,0.206-0.282,0.206-0.433
	c0-0.097-0.116-0.302-0.351-0.619c-0.248-0.303-0.371-0.585-0.371-0.846c0-0.11,0.097-0.289,0.289-0.537
	c0.262-0.275,0.461-0.496,0.599-0.66c0.221-0.358,0.364-0.6,0.434-0.723c0.123-0.22,0.268-0.33,0.433-0.33
	C140.532,142.081,140.786,142.329,141.089,142.824z M138.446,151.204c0,0.345,0.063,0.723,0.186,1.135
	c0.125,0.413,0.186,0.64,0.186,0.682c0,0.454-0.708,1.019-2.126,1.692c-1.486,0.688-2.298,1.321-2.436,1.899
	c0.662,0.976,1.405,1.644,2.229,2.001c0.977,0.386,2.545,0.578,4.707,0.578c0.935,0,1.486,0.069,1.651,0.207
	c-0.139,0.192-0.392,0.371-0.764,0.536c-0.33,0.138-0.578,0.207-0.743,0.207h-3.612c-1.197,0-2.374-0.398-3.529-1.197
	c-1.142-0.798-1.734-1.624-1.775-2.477c0.95-1.968,2.621-3.262,5.016-3.882v-0.391c0-0.537,0.213-0.957,0.64-1.26
	c0.069-0.193,0.158-0.289,0.269-0.289c0.083,0,0.124,0.069,0.124,0.206L138.446,151.204z M136.919,156.57
	c0.372-0.123,0.792-0.186,1.259-0.186c0.867,0,1.596,0.145,2.188,0.434l3.426,1.795c0.289,0.152,0.564,0.228,0.826,0.228
	c0.385,0,0.84-0.124,1.362-0.372c0.551-0.233,0.839-0.351,0.867-0.351c0.082,0,0.137,0.021,0.165,0.063
	c-0.481,0.44-0.854,0.742-1.115,0.907c-0.563,0.371-1.101,0.559-1.61,0.559c-0.207,0-0.502-0.076-0.887-0.227l-4.955-2.375
	c-0.179-0.083-0.343-0.123-0.495-0.123c-0.192,0-0.461,0.04-0.805,0.123c-0.357,0.082-0.583,0.124-0.68,0.124
	s-0.146-0.042-0.146-0.124C136.32,156.866,136.521,156.709,136.919,156.57z M145.918,148.066c0.303,0.881,0.694,1.927,1.177,3.138
	c0.316,0.978,0.474,1.864,0.474,2.663c0,2.573-0.943,3.859-2.828,3.859c0-0.124,0.228-0.543,0.682-1.259
	c0.427-0.729,0.64-1.396,0.64-2.003c0-0.839-0.364-2.14-1.093-3.9c-0.125,0.055-0.331,0.083-0.62,0.083
	c-0.068,0-0.55-0.096-1.444-0.29c-0.29,0.179-0.627,0.269-1.012,0.269c-1.142,0-1.713-0.351-1.713-1.053
	c0-0.413,0.172-0.818,0.516-1.218c0.262-0.372,0.564-0.64,0.908-0.804c0.096,0.055,0.145,0.171,0.145,0.351
	c0,0.192-0.049,0.488-0.145,0.887c0,0.275,0.145,0.413,0.434,0.413c0.247,0,0.501-0.172,0.763-0.516
	c0.262-0.358,0.42-0.537,0.475-0.537c0.11,0,0.269,0.186,0.475,0.558c0.207,0.371,0.386,0.557,0.537,0.557
	c0.344,0,0.619-0.192,0.826-0.578C145.306,148.273,145.574,148.066,145.918,148.066z M146.353,158.965
	c0.055-0.026,0.241-0.186,0.557-0.475c0.233-0.207,0.44-0.31,0.619-0.31c0.097,0,0.186,0.034,0.269,0.103
	c-0.151,0.139-0.364,0.29-0.64,0.454c-0.316,0.179-0.55,0.269-0.702,0.269L146.353,158.965z M146.848,157.417
	c-0.11,0.233-0.379,0.509-0.806,0.825c-0.385,0.289-0.654,0.435-0.805,0.435l-0.103-0.063c0.151-0.082,0.412-0.323,0.784-0.722
	c0.331-0.345,0.605-0.517,0.826-0.517L146.848,157.417z M219.355,153.907c-0.067,0-0.102-0.047-0.102-0.144
	c0-0.138,0.048-0.255,0.144-0.351c0.07-0.097,0.131-0.083,0.187,0.04c0.082,0.015,0.123,0.097,0.123,0.248
	c0,0.138-0.048,0.269-0.144,0.392C219.48,154.204,219.411,154.142,219.355,153.907z M217.313,145.053
	c0.082,0.22,0.09,0.365,0.021,0.433c0,0.042-0.034,0.063-0.104,0.063c-0.468,0.22-1.142,0.378-2.022,0.474
	c-0.357,0.138-0.496,0.29-0.413,0.455c0.041,0.055,0.269,0.241,0.681,0.558c0,0.027,0.042,0.041,0.124,0.041
	c0.179,0.44,0.351,0.66,0.516,0.66l0.579-0.207c0.289-0.096,0.502-0.089,0.64,0.021c0.33,0.247,0.571,0.646,0.723,1.197
	c0.206,0.234,0.309,0.736,0.309,1.507l0.063,0.454c0.026,0.083,0.041,0.517,0.041,1.3v0.393c0,0.605-0.007,0.99-0.021,1.155
	c-0.04,0.427-0.15,0.75-0.33,0.971c-1.293,1.514-1.92,3.681-1.878,6.501c0.164,0.152,0.124,0.331-0.125,0.537
	c-0.247,0.165-0.391,0.083-0.434-0.248c-0.095-0.123-0.143-0.351-0.143-0.681c0.04-0.44,0.061-0.771,0.061-0.99
	c0.082-0.152,0.152-0.406,0.207-0.764c0.082-0.578,0.124-0.875,0.124-0.888c0.109-0.083,0.165-0.193,0.165-0.33
	c-0.068-0.221-0.042-0.503,0.083-0.847c0.082-0.331,0.103-0.571,0.062-0.723c0.055-0.413,0.055-0.805,0-1.177
	c-0.014-0.123-0.097-0.509-0.248-1.155c0-0.028,0.014-0.482,0.041-1.362c0.014-0.619-0.116-0.929-0.391-0.929
	c0-0.138-0.104-0.207-0.311-0.207c-0.138,0-0.289,0.035-0.455,0.104c-0.427-0.179-0.708-0.269-0.846-0.269
	c-0.137,0-0.66,0.138-1.568,0.413c-0.165-0.138-0.599-0.068-1.301,0.207c-0.812,0.371-1.362,0.598-1.651,0.681
	c-0.014,0.068-0.014,0.124,0,0.165l-0.123,0.042l0.187,0.288c1.319,0.743,1.547,1.65,0.68,2.725
	c-0.151,0.207-0.44,0.475-0.866,0.805c-0.33,0.331-0.462,0.743-0.393,1.239c0.056,0.178,0.104,0.467,0.145,0.866
	c0.041,0.344,0.144,0.64,0.31,0.889c0.207,0.316,0.394,0.625,0.558,0.928c0.138,0.193,0.351,0.439,0.64,0.743
	c0.027,0.138-0.028,0.213-0.164,0.227c-0.18,0-0.29,0.049-0.332,0.145c-0.467-0.178-0.805-0.495-1.011-0.949
	c-0.165-0.137-0.33-0.344-0.495-0.62c-0.151-0.329-0.269-0.569-0.352-0.722l-0.04-0.227c-0.304-0.978-0.654-1.534-1.054-1.672
	c-0.068-0.124-0.027-0.282,0.124-0.475c0.207-0.247,0.316-0.427,0.33-0.537c0.222-0.275,0.338-0.557,0.352-0.847
	c0.041-0.385-0.123-0.659-0.495-0.824c-0.18-0.18-0.29-0.283-0.331-0.311c-0.578-0.426-0.818-0.984-0.722-1.671
	c-0.097-0.565,0.227-1.046,0.97-1.446c0.426-0.233,1.163-0.495,2.209-0.784l4.334-1.052l-3.819-1.775l-0.576-0.971
	c-0.112-0.151-0.063-0.268,0.143-0.351c0.111-0.068,0.29-0.144,0.537-0.227c0-0.055,0.035-0.083,0.104-0.083
	c0.468-0.358,1.121-0.626,1.961-0.805c0.495-0.138,1.286-0.282,2.374-0.434l1.053-0.206l1.383,0.062
	C217.128,144.579,217.189,144.751,217.313,145.053z M216.941,140.389c0.193,0.344,0.289,0.764,0.289,1.259
	c0.221,0.509,0.069,1.04-0.454,1.59c-0.536,0.564-1.059,0.66-1.568,0.289c-0.151-0.096-0.228-0.158-0.228-0.186
	c0-0.069,0.068-0.158,0.207-0.269c0.123-0.137,0.199-0.268,0.227-0.392c-0.371,0.124-0.599,0.068-0.68-0.165
	c-0.317-0.029-0.517-0.083-0.6-0.166c-0.11-0.083-0.207-0.275-0.289-0.577c0-1.184,0.611-1.824,1.836-1.92
	C216.247,139.756,216.667,139.935,216.941,140.389z M174.753,157.293h0.764c0.303,0,0.385,0.049,0.247,0.145
	c-0.157,0.021-0.315,0.035-0.474,0.041c0.427,0.083,0.592,0.275,0.495,0.578c-0.056,0.233-0.089,0.557-0.104,0.971
	c-0.812,0.812-1.92,1.196-3.323,1.155c-1.568-0.068-2.38-0.777-2.435-2.126c-0.084-0.316-0.069-0.51,0.04-0.578
	c0.083-0.179,0.248-0.269,0.496-0.269c0.151,0.097,0.289,0.152,0.413,0.165c0.398-0.013,0.839,0,1.32,0.042
	c0.413,0.041,0.936,0.021,1.568-0.062c0.303,0.055,0.414-0.035,0.331-0.269c-0.289-1.156-0.399-1.734-0.331-1.734L174.753,157.293z
	 M172.999,150.089c0,0.042-0.083,0.249-0.248,0.62c-0.097,0.206-0.11,0.392-0.042,0.557c0.11,0.413,0.241,0.923,0.394,1.528
	c0.15,0.701,0.199,1.052,0.144,1.052l-0.64-1.609c-0.11-0.015-0.206,0.082-0.289,0.289c-0.165,0.371-0.371,1.06-0.619,2.064
	c-0.234,1.045-0.399,1.678-0.496,1.897c0.097-0.783,0.262-1.691,0.496-2.724c0.289-1.115,0.495-1.946,0.619-2.498
	c0-0.068-0.02-0.124-0.062-0.165c-0.083-0.068-0.131-0.123-0.146-0.165c-0.646,0.22-0.832,0.097-0.557-0.371
	c0.275-0.455,0.619-0.681,1.032-0.681C172.765,149.883,172.902,149.952,172.999,150.089z M187.756,151.721
	c-0.151-0.207-0.281-0.358-0.391-0.455h-0.909c-0.041,0.069-0.193,0.083-0.454,0.042c-0.207-0.027-0.302,0-0.289,0.082l0.392,0.083
	c-0.261,0.151-0.404,0.268-0.433,0.351c-0.042,0.083-0.097,0.289-0.165,0.619c-0.097,0.18-0.158,0.289-0.187,0.33v0.434
	c0,0.014,0.015,0.056,0.041,0.124c0.015,0.055,0,0.097-0.041,0.123c-0.082,0.427-0.082,1.066,0,1.921
	c0.083,0.508,0.2,1.266,0.352,2.27c-0.233-0.068-0.413-0.227-0.536-0.475c-0.111-0.316-0.214-0.543-0.311-0.682l-0.02-0.062
	c-0.193-0.508-0.297-1.163-0.311-1.961c-0.041-0.743,0.007-1.431,0.145-2.063c0.082-1.184,0.344-1.837,0.784-1.961
	c0.027-0.041,0.083-0.062,0.166-0.062h0.227c0.221,0,0.304-0.041,0.247-0.124c0.027-0.069,0.192-0.103,0.496-0.103
	c0.55-0.042,0.983,0.047,1.3,0.268c0.192,0.124,0.543,0.475,1.053,1.053c0.193,0.357,0.289,0.667,0.289,0.929
	c-0.014,0.233-0.11,0.33-0.289,0.289c-0.22-0.056-0.446-0.207-0.682-0.454C188.094,152.14,187.936,151.967,187.756,151.721z
	 M189.346,149.388c0.206-0.042,0.289,0.021,0.248,0.186c-0.042,0.152-0.021,0.213,0.062,0.186c0.221-0.11,0.406-0.152,0.557-0.124
	c0.111,0,0.166,0.021,0.166,0.062c0.206,0.028,0.31,0.192,0.31,0.495c0,0.248-0.069,0.441-0.206,0.578
	c-0.028,0.165-0.125,0.297-0.29,0.392c-0.179,0.069-0.357,0.069-0.536,0l-0.227-0.412c0.068-0.166,0.068-0.275,0-0.331
	c-0.097-0.041-0.151-0.075-0.165-0.104c0.055-0.082,0.026-0.254-0.083-0.516C189.084,149.594,189.139,149.457,189.346,149.388z
	 M189.882,149.058c-0.109-0.207-0.227-0.413-0.35-0.62c-0.18-0.275-0.242-0.454-0.187-0.536c0.275-0.014,0.523,0.041,0.743,0.165
	c0.151,0.083,0.352,0.207,0.599,0.372c0.166-0.027,0.248-0.007,0.248,0.063c0,0.083,0.034,0.151,0.103,0.206
	c0.028,0.289-0.075,0.474-0.311,0.557c-0.329,0.096-0.508,0.172-0.536,0.227C190.055,149.367,189.952,149.223,189.882,149.058z
	 M188.81,138.944c0.137,0.137,0.206,0.275,0.206,0.413c0,0.275-0.069,0.455-0.206,0.537c-0.069,0.069-0.228,0.186-0.476,0.351
	c-0.179,0.151-0.529,0.11-1.053-0.124c-0.04,0,0.021,0.069,0.187,0.207l0.061,0.145c0.043,0.192,0.125,0.461,0.249,0.805
	c0.082,0.316,0.02,0.55-0.187,0.702c0,0.193-0.041,0.289-0.123,0.289c-0.179,0-0.311,0.048-0.394,0.145
	c-0.082,0.276-0.288,0.558-0.618,0.846c-0.289,0.152-0.316,0.138-0.083-0.041c0.056-0.055-0.062-0.206-0.351-0.454
	c-0.315-0.234-0.405-0.468-0.268-0.702c0.04-0.495,0.104-0.826,0.186-0.991c0.138-0.33,0.371-0.515,0.701-0.557
	c0.179-0.082,0.283-0.171,0.31-0.268c0.123-0.055,0.104-0.193-0.062-0.413c-0.165-0.22-0.187-0.392-0.062-0.516l0.35-0.372
	l0.083-0.124c0.083,0,0.241-0.083,0.476-0.248c0.22-0.165,0.364-0.248,0.434-0.248c0.097,0,0.15,0.083,0.164,0.248
	C188.499,138.668,188.657,138.792,188.81,138.944z M190.315,140.905c0.151-0.042,0.276-0.007,0.372,0.103
	c0.04,0.042,0.103,0.158,0.186,0.351c0.068,0.068,0.11,0.192,0.123,0.371c0.029,0.192,0.022,0.323-0.02,0.393
	c-0.165,0.096-0.249,0.062-0.249-0.103c0-0.29-0.026-0.455-0.081-0.496c-0.083-0.302-0.18-0.309-0.29-0.021
	c-0.096,0.316-0.089,0.55,0.021,0.702c0.096,0.247,0.35,0.709,0.764,1.383c0.33,0.564,0.543,1.011,0.64,1.341
	c0,0.234-0.063,0.454-0.187,0.661c-0.109,0.22-0.247,0.33-0.412,0.33h-1.65c0,0.206-0.097,0.33-0.29,0.372
	c-0.178,0.068-0.379,0.048-0.599-0.063c-0.22-0.096-0.681-0.433-1.383-1.011c-0.329-0.207-0.558-0.365-0.681-0.475
	c-0.207-0.207-0.247-0.447-0.124-0.723c0.11-0.33,0.192-0.57,0.247-0.723c0.097-0.261,0.255-0.337,0.475-0.227
	c0.262,0.111,0.661,0.283,1.198,0.517c0.397,0.22,0.659,0.55,0.784,0.991c-0.165,0.055-0.248,0.117-0.248,0.186
	c0,0.11,0.034,0.165,0.104,0.165c0.206,0.289,0.323,0.475,0.351,0.557c0.027-0.11,0.123-0.241,0.289-0.391
	c0.068-0.235,0.097-0.462,0.083-0.682c0-0.055-0.027-0.33-0.083-0.825c-0.123-0.591-0.123-1.136,0-1.631
	c0.097-0.288,0.172-0.495,0.227-0.62C189.979,141.118,190.123,140.974,190.315,140.905z M191.679,137.416c0,0.014,0,0.028,0,0.042
	l0.103,0.083v0.269c0.068-0.069,0.139-0.09,0.206-0.062c0.028,0.014,0.042,0.055,0.042,0.124c0,0.179-0.109,0.268-0.331,0.268
	l-0.02,0.228c-0.249,0.096-0.372,0.323-0.372,0.681l-1.465,0.062c-0.331,0-0.62-0.116-0.867-0.351
	c-0.275-0.289-0.296-0.605-0.063-0.949l0.021-0.166c0.042-0.082,0.096-0.158,0.166-0.227c0.123-0.165,0.309-0.289,0.557-0.371
	c0.33-0.124,0.701-0.158,1.115-0.103c0,0.097,0.09,0.097,0.268,0c0.041,0.124,0.166,0.206,0.372,0.247
	c0.083,0,0.123,0.021,0.123,0.063C191.616,137.251,191.664,137.306,191.679,137.416z M194.361,140.162
	c0.179,0.192,0.288,0.557,0.331,1.094c0.026,0.578,0.082,0.929,0.165,1.053c0.633,0.399,0.983,0.901,1.052,1.506
	c0.068,0.509-0.048,1.053-0.351,1.631c-0.097,0.193-0.138,0.351-0.124,0.475c0.082,0.124,0.124,0.213,0.124,0.268v0.206
	c0,0.111,0.082,0.166,0.248,0.166c0,0.289,0.041,0.496,0.124,0.619c0.097,0.069,0.336,0.289,0.723,0.66
	c0,0.069,0.033,0.29,0.102,0.661c0.069,0.33,0.084,0.66,0.041,0.99l-0.185,0.207c-0.234,0.042-0.316,0.138-0.248,0.289
	c0.055,0.111,0.151,0.2,0.29,0.269c0.068,0,0.205,0.021,0.411,0.061c0.193,0.096,0.345,0.2,0.454,0.311l0.311,0.288l-0.124,0.104
	l-1.052-0.125l-0.207,0.083c-0.165-0.097-0.248-0.097-0.248,0c-0.261,0.191-0.248,0.33,0.042,0.412
	c0.467,0.11,0.722,0.186,0.763,0.228l0.062,0.186l0.331,0.206c0.123,0.07,0.186,0.18,0.186,0.33
	c0.124,0.303-0.281,0.255-1.218-0.144c-0.027,0.026-0.082,0.041-0.165,0.041c-0.097,0-0.289-0.048-0.578-0.145l-0.186,0.104
	c-0.206,0.137,0.027,0.371,0.702,0.701c0.798,0.385,1.218,0.723,1.259,1.011c0.069,0.289,0,0.605-0.206,0.95l-0.042,0.104
	l-0.352,0.082c0.043-0.082,0.028-0.145-0.041-0.186c-0.041-0.027-0.056-0.09-0.041-0.186c-0.068-0.138-0.261-0.275-0.577-0.412
	c-0.027-0.152-0.242-0.269-0.64-0.353c-0.495-0.096-0.778-0.172-0.848-0.226c-0.04-0.11-0.226-0.015-0.557,0.288
	c-0.317,0.303-0.474,0.503-0.474,0.599c0.494-0.096,1.1-0.096,1.815,0c0.041,0.055,0.11,0.117,0.206,0.187
	c0.111,0.054,0.179,0.075,0.207,0.061c0.04,0.015,0.083,0.049,0.124,0.104c0.026,0.028,0.006,0.068-0.063,0.124
	c0.015,0.055,0.063,0.09,0.145,0.103c0.056,0,0.083,0.042,0.083,0.125c0.233,0,0.392,0.117,0.475,0.351
	c0.096-0.027,0.144,0.11,0.144,0.413c0,0.041,0.015,0.062,0.041,0.062c0.139,0.412,0.139,0.757,0,1.031
	c-0.261,0.579-0.715,1.129-1.361,1.652c-0.991,0.702-1.905,1.018-2.746,0.948c0.676-0.205,1.309-0.536,1.9-0.99
	c0.88-0.716,1.376-1.334,1.485-1.856c0.082-0.386,0.035-0.709-0.144-0.97c-0.166-0.222-0.393-0.365-0.682-0.435
	c-0.027,0.041-0.063,0.055-0.104,0.041c-0.042-0.027-0.068-0.041-0.082-0.041l-0.021-0.165c-0.207,0-0.323-0.014-0.35-0.041
	l-0.269,0.144c-0.015-0.04-0.097-0.082-0.248-0.123c-0.097-0.042-0.11-0.117-0.042-0.228c-0.137-0.027-0.281-0.034-0.433-0.021
	c-0.262,0.014-0.413,0.021-0.454,0.021c-0.386-0.192-0.867-0.096-1.445,0.289c-0.592,0.386-0.846,0.812-0.764,1.28
	c-0.082,0.054-0.138,0.206-0.165,0.454c-0.083,0.026-0.192,0.144-0.33,0.351c-0.124,0.192-0.262,0.296-0.412,0.309
	c-0.098-0.04-0.132-0.096-0.104-0.164c0.139-0.275,0.234-0.476,0.289-0.599c0.083-0.207,0.083-0.413,0-0.619
	c-0.124,0.014-0.199,0.021-0.227,0.021l-0.123-0.124c0-0.068-0.077-0.104-0.228-0.104c-0.11-0.082-0.199-0.123-0.27-0.123
	c0-0.042,0-0.083,0-0.123c0-0.042-0.014-0.063-0.04-0.063l-0.083-0.082c-0.042-0.014-0.075-0.034-0.104-0.062
	c-0.041-0.015-0.062,0.013-0.062,0.081c-0.139,0-0.262,0.049-0.371,0.146c-0.056,0.069-0.117,0.165-0.186,0.289
	c-0.042,0-0.063,0.082-0.063,0.248l-0.102,0.062l0.062,0.206l-0.104,0.063c-0.399,1.045-0.488,0.858-0.269-0.558
	c0.152-1.045,0.523-1.508,1.115-1.383l0.082-0.393c0.014-0.577,0.076-0.983,0.187-1.217c0-0.125,0.04-0.187,0.123-0.187
	c0.068,0,0.117,0.084,0.145,0.248c-0.055,0.262,0,0.481,0.166,0.66c0.165,0.193,0.357,0.193,0.577,0
	c0.592-0.221,1.136-0.571,1.63-1.053c0.304-0.302,0.694-0.792,1.177-1.465l1.156-2.704c0.083-0.179,0.104-0.379,0.062-0.599
	c-0.055-0.206-0.144-0.357-0.269-0.454c-0.233-0.151-0.275-0.385-0.123-0.702c0.055-0.137,0.213-0.358,0.474-0.66
	c0.069-0.275-0.116-0.709-0.557-1.301c-0.44-0.578-0.57-1.121-0.392-1.63c0.097-0.069,0.145-0.172,0.145-0.31
	c-0.042-0.165-0.062-0.296-0.062-0.392c-0.028-0.055,0-0.151,0.081-0.289c0.056-0.124,0.035-0.24-0.062-0.351
	c-0.068-0.096-0.439-0.282-1.115-0.557c-0.577-0.233-0.865-0.523-0.865-0.866v-1.919c0.356-0.179,0.722-0.124,1.094,0.165
	l0.929,0.764C194.189,139.783,194.361,139.955,194.361,140.162z M220.018,136.797c0.151-0.467,0.262-0.557,0.33-0.269
	c-0.098,0.317-0.165,0.613-0.207,0.888c-0.137,0.633-0.151,1.177-0.041,1.631l0.104,0.145c0.302,0.302,0.653,0.853,1.053,1.651
	c0.398,0.784,0.653,1.375,0.764,1.775c0.15,0.151,0.145,0.502-0.021,1.053c-0.123,0.399,0.069,0.578,0.579,0.537l0.577-0.083
	c0.165-0.014,0.398-0.042,0.702-0.083c0.206-0.042,0.241-0.131,0.103-0.269c0.221-0.069,0.447-0.083,0.682-0.041
	c0.151,0.041,0.358,0.124,0.619,0.248c0.44,0.041,1.08,0.144,1.92,0.309c0.138-0.014,0.205,0.034,0.205,0.145
	c0,0.096-0.081,0.11-0.246,0.042c-0.4-0.069-0.702-0.117-0.908-0.145c-0.387-0.083-0.661-0.097-0.827-0.042l-0.144,0.082
	c0.138-0.055,0.357-0.055,0.66,0c0.262,0.042,0.428,0.097,0.496,0.166l-2.065,0.186h-0.453c-0.138,0-0.18-0.027-0.124-0.083
	c0.124-0.138-0.021-0.193-0.434-0.165c-0.165,0.041-0.371,0.041-0.619,0c-0.303-0.028-0.517-0.042-0.64-0.042
	c0.014,0.11,0.11,0.372,0.289,0.784c0.124,0.303,0.172,0.571,0.145,0.805l-0.311,0.929l-0.948,1.135
	c-0.509,0.605-0.88,1.183-1.115,1.734c-0.303,0.674-0.453,1.466-0.453,2.374c-0.124,0.316-0.228,0.439-0.31,0.371
	c-0.097-0.083-0.146-0.241-0.146-0.475c0-0.18,0.028-0.338,0.083-0.475c0.124-0.798,0.378-1.583,0.764-2.354
	c0.164-0.344,0.537-0.998,1.114-1.96c0.303-0.385,0.407-0.867,0.311-1.445c-0.098-0.454-0.324-0.915-0.682-1.382
	c-0.083,0.041-0.248,0.041-0.495,0c-0.165-0.042-0.248,0.014-0.248,0.165c-0.097,0.083-0.145,0.048-0.145-0.103
	c0-0.179,0.069-0.261,0.206-0.248c0.248,0.124,0.517,0.055,0.805-0.207c0.248-0.248,0.331-0.529,0.248-0.846
	s-0.344-0.812-0.784-1.486c-0.413-0.606-0.619-1.101-0.619-1.486v-2.333c0-0.165,0.021-0.337,0.063-0.516
	C219.879,137.224,219.935,137.017,220.018,136.797z"/>
</svg>
