<?xml version="1.0" encoding="utf-8"?>
<!-- Generator: Adobe Illustrator 16.0.0, SVG Export Plug-In . SVG Version: 6.00 Build 0)  -->
<!DOCTYPE svg PUBLIC "-//W3C//DTD SVG 1.1//EN" "http://www.w3.org/Graphics/SVG/1.1/DTD/svg11.dtd">
<svg version="1.1" id="Layer_1" xmlns="http://www.w3.org/2000/svg" xmlns:xlink="http://www.w3.org/1999/xlink" x="0px" y="0px"
	 width="300px" height="300px" viewBox="0 0 300 300" enable-background="new 0 0 300 300" xml:space="preserve">
<g>
	<path fill="#212323" d="M63.956,204.175c0,0,6.012-17.707,16.373-31.406c10.355-13.704,16.039-33.083,14.363-48.789
		c0,0,6.851,22.108-6.514,42.328c0,0,32.912-14.705,44.495-57.919c0,0,22.831-17.816,22.831-61.587c0,0,30.062,24.501-3.23,134.207
		c0,0,48.28-104.187,3.23-149.241c0,0-0.907-1.965-2.869-4.856c-6.274-9.218-23.457-27.964-57.379-23.216
		c0,0-35.197-5.792-56.577,26.289c-20.185,30.279-10.2,69.279,2.972,80.677c0.78,0.677,1.573,1.271,2.374,1.747
		c0,0-2.449-18.933,10.692-32.073c0,0-16.039,24.5,0,62.365c0,0,29.847-33.41,40.092-50.784c0,0-15.589,28.186-28.513,46.328
		c-11.025,15.483-13.359,26.728-13.359,26.728s2.655-23.467-12.499-46.332c-2.619-3.958-5.764-7.896-9.558-11.689
		c0,0-0.664,15.03-7.012,28.731c-3.881,8.38-2.375,25.878,8.159,42.034C38.716,187.966,49.036,197.685,63.956,204.175z"/>
	<path fill="#212323" d="M178.89,232.915c0,0-0.07-28.74-11.918-34.754c-5.97-3.031-10.767-3.149-15.214-2.302
		c-6.823,1.298-12.824,4.849-20.982,3.637c-9.461-1.41-9.017-27.845-7.684-38.313c1.335-10.469,7.577-11.582,12.251-11.582
		c1.97,0,3.539,0.158,4.79,0.038c1.708-0.16,2.805-0.834,3.449-3.161c1.117-4.008,1.785-9.792,5.346-19.375
		c3.563-9.575,3.12-20.936,2.003-26.953c-1.113-6.013,1.562-14.922,1.562-14.922c-1.601,4.126-3.75,7.896-6.018,11.213
		c-5.93,8.686-12.692,14.18-12.692,14.18c-11.355,45.439-32.296,54.346-32.296,54.346c7.067,24.498,4.01,36.307,4.01,36.307
		c17.373,12.031,19.826,34.759,19.826,34.759c2.228-10.921,0.669-20.275,0.669-20.275c20.491,6.909,24.726,29.85,24.726,29.85
		c1.557-12.251-2.229-20.267-2.229-20.267c11.919,3.897,21.608,20.935,21.608,20.935c0.546-4.021,2.132-6.98,3.804-9.085
		C176.299,234.169,178.89,232.915,178.89,232.915z"/>
	<path fill="#212323" d="M95.249,250.96c0,0-5.627-8.956-0.442-25.394c12.414-39.392,1.779-58.369,1.779-58.369
		c-30.397,15.181-23.891,53.772-22.175,61.775c-1.199-4.659-5.896-18.931-19.255-23.014c-6.846-2.094-12.711-6.783-17.192-11.476
		c-6.017-6.296-9.536-12.586-9.536-12.586c0,14.779,2.335,42.869,26.437,55.979c3.886,2.112,8.313,3.849,13.402,5.068
		C92.976,248.835,95.249,250.96,95.249,250.96z"/>
	<path fill="#212323" d="M105.052,207.519c-17.331,32.749,1.672,56.133,1.672,56.133c-14.191-12.252-28.917-12.055-37.629-10.355
		c-4.826,0.939-7.813,2.34-7.813,2.34c10.542,13.171,21.904,17.642,31.813,18.102c2.656,0.127,5.211-0.026,7.616-0.397
		c10.613-1.625,17.705-3.675,17.705-3.675C132.449,224.562,105.052,207.519,105.052,207.519z"/>
	<path fill="#212323" d="M146.48,274.568c8.246-40.539-16.037-53.017-16.037-53.017s3.119,4.679-1.001,21.385
		c-5.513,22.355,0.334,27.733,0.334,27.733c-3.344-1.005-10.744,0.613-16.203,6.071c-4.013,4.005-9.857,3.168-9.857,3.168
		C132.208,291.605,146.48,274.568,146.48,274.568z"/>
	<path fill="#212323" d="M154.362,233.416c1.701,7.409,0.543,11.186-1.421,21.105c-2.894,14.599,9.132,21.604,9.132,21.604
		c-16.26-5.231-24.167,19.938-24.167,19.938c2.12-2.114,8.54-3.68,15.482-5.234c13.389-2.992,17.986-12.807,17.986-12.807
		C177.135,248.869,154.362,233.416,154.362,233.416z"/>
	<path fill="#212323" d="M189.249,258.309c17.82-27.399,0.834-38.258,0.834-38.258s3.247,7.185-8.019,14.703
		c-14.871,9.918-4.008,34.414-4.008,34.414c3.671,6.902,22.66,7.965,32.35-1.724c7.905-7.917,17.148-6.688,17.148-6.688
		C209.076,247.17,189.249,258.309,189.249,258.309z"/>
	<path fill="#212323" d="M228.45,235.813c-15.481-0.893-26.954,13.361-26.954,13.361s4.472,1.131,17.822,2.006
		c22.696,1.484,29.624-18.044,29.624-18.044C248.051,234.025,240.047,236.48,228.45,235.813z"/>
	<path fill="#212323" d="M211.297,217.544c-8.435,4.261-11.689,11.363-10.521,26.394c0,0,22.714-4.675,16.873-31.239
		C217.649,212.698,217.101,214.612,211.297,217.544z"/>
	<path fill="#212323" d="M223.995,232.247c18.373-6.017,15.369-37.764,15.369-37.764
		C215.978,210.522,223.995,232.247,223.995,232.247z"/>
	<path fill="#212323" d="M234.686,227.899c31.796,2.21,34.752-24.396,34.752-24.396
		C247.718,203.504,234.686,227.899,234.686,227.899z"/>
	<path fill="#212323" d="M251.728,170.096c-13.699,26.728-7.016,37.423-7.016,37.423
		C267.429,204.175,251.728,170.096,251.728,170.096z"/>
	<path fill="#212323" d="M258.074,202.173c18.765-5.016,23.056-34.087,23.056-34.087
		C259.074,175.771,258.074,202.173,258.074,202.173z"/>
	<path fill="#212323" d="M260.749,180.12c14.026-16.267-2.899-36.089-2.899-36.089s3.738,5.51-0.221,15.814
		C252.529,173.136,260.749,180.12,260.749,180.12z"/>
	<path fill="#212323" d="M270.434,153.273c-1.35,5.51-1.111,7.243-1.111,16.485c0-3.276,11.748-3.396,11.472-16.264
		c-0.27-12.488,2.646-16.171,2.646-16.171C279.75,139.042,272.433,145.144,270.434,153.273z"/>
	<path fill="#212323" d="M259.411,118.305c0,30.74,7.684,31.407,7.684,31.407C275.446,126.326,259.411,118.305,259.411,118.305z"/>
	<path fill="#212323" d="M273.084,137.324c10.49-5.412,7.018-32.077,7.018-32.077C265.063,116.94,273.084,137.324,273.084,137.324z"
		/>
	<path fill="#212323" d="M267.891,119.027c2.391-18.332-17.106-24.512-17.106-24.512
		C254.513,115.087,267.891,119.027,267.891,119.027z"/>
	<path fill="#212323" d="M273.406,94.061c-2.279-8.95-1.462-18.828-1.462-18.828c-4.374,3.144-6.123,10.543-6.123,10.543
		c-2.357,12.844,4.859,20.826,4.958,21.82C270.779,107.595,275.683,103.003,273.406,94.061z"/>
	<path fill="#212323" d="M242.646,75.611c0,0,4.214,16.103,19.907,18.367C262.553,93.979,257.176,74.5,242.646,75.611z"/>
	<path fill="#212323" d="M262.276,82.771c4.355-8.643-5.677-24.413-5.677-24.413C251.283,75.157,262.276,82.771,262.276,82.771z"/>
	<path fill="#212323" d="M233.4,61.021c0,0,7.075,13.809,18.941,11.507C252.342,72.528,250.437,60.42,233.4,61.021z"/>
	<path fill="#212323" d="M251.339,62.438c2.103-11.868-9.919-20.526-9.919-20.526C241.176,56.804,251.339,62.438,251.339,62.438z"/>
	<path fill="#212323" d="M221.17,50.773c0,0,9.794,10.43,20.067,5.322C241.237,56.094,234.827,47.462,221.17,50.773z"/>
	<path fill="#212323" d="M237.824,47.945c-3.908-11.88-18.381-13.577-18.381-13.577C229.034,50.698,237.824,47.945,237.824,47.945z"
		/>
	<path fill="#212323" d="M207.327,44.16c10.395,4.604,17.776,1.818,17.776,1.818c-2.004-0.068-4.178-1.869-9.239-4.794
		c-10.183-5.888-19.427,6.232-19.427,6.232S202.676,42.096,207.327,44.16z"/>
</g>
</svg>
