<?xml version="1.0" encoding="utf-8"?>
<!-- Generator: Adobe Illustrator 16.0.0, SVG Export Plug-In . SVG Version: 6.00 Build 0)  -->
<!DOCTYPE svg PUBLIC "-//W3C//DTD SVG 1.1//EN" "http://www.w3.org/Graphics/SVG/1.1/DTD/svg11.dtd">
<svg version="1.1" id="Layer_1" xmlns="http://www.w3.org/2000/svg" xmlns:xlink="http://www.w3.org/1999/xlink" x="0px" y="0px"
	 width="300px" height="300px" viewBox="0 0 300 300" enable-background="new 0 0 300 300" xml:space="preserve">
<path fill="#212323" d="M256.279,180.258l-18.688,9.02c14.343-14.347,8.475-29.671,8.475-29.671
	c-0.571-2.363-0.853-4.616-0.903-6.786c-0.412-16.414,12.635-26.669,14.21-27.854c-44.263,28.707-43.11,67.586-42.216,76.407
	c0.116,1.188,0.237,1.834,0.237,1.834c-3.041,4.593-10.58,14.2-31.26,14.2c-34.628,0-39.534-38.917-39.534-38.917
	c-21.954-11.43-7.105-35.861-6.546-36.755c-9.348,30.833,10.224,35.524,24.112,35.524c13.901,0,17.577,12.263,17.577,12.263
	c0.301-1.055,0.53-2.101,0.7-3.134v-0.016c2.416-14.549-7.322-26.598-19.906-31.183c-11.031-4.011-14.407-13.218-15.271-16.432
	c-0.161-0.595-0.236-0.984-0.247-1.102c9.813,17.534,28.587,14.676,28.587,14.676c-48.611-22.47-16.133-64.563-16.133-64.563
	c-12.151,25.648-3.417,42.275,3.679,50.878c9.598,11.637,32.178,12.562,40.448,4.282c8.27-8.271,23.897-12.249,23.897-12.249
	c-4.24-4.237-26.993,4.667-27.563,4.886c13.176-13.156,34.915-13.47,34.915-13.47s0-42.908-47.188-51.486
	c-47.188-8.585-70.48,14.714-70.48,14.714s-13.179-9.2-38.001-0.615c-37.183,12.855-36.16,50.267-47.792,68.649
	c-4.789,7.548-10.192,9.524-14.892,9.223c-6.321-0.397-11.377-4.898-12.014-5.479c1.25,1.353,21.934,22.812,39.467-9.563
	c0,0,13.178-25.441,32.168-15.023c0,0,5.629-21.752,25.824-34.916c2.407-1.577,5.027-3.021,7.862-4.295
	c-1.14,0.851-49.917,37.366-15.916,96.833c15.854,27.713,41.648,37.484,62.146,40.566c0.538,0.087,1.09,0.174,1.65,0.248
	c0.421,0.053,0.83,0.108,1.24,0.164c0.71,0.084,1.401,0.161,2.092,0.233c0.259,0.033,0.527,0.056,0.799,0.08
	c12.086,1.197,21.535,0.193,24.617-0.239c26.15-3.675,38.918-19.303,38.918-19.303c55.588,4.196,68.769-37.732,69.148-38.985
	C276.259,205.438,256.279,180.258,256.279,180.258z M190.747,106.452c0,0-3.438-12.543,4.068-15.442
	c11.731-4.519,21.76,13.835,21.76,13.835S202.384,101.296,190.747,106.452z"/>
</svg>
