<?xml version="1.0" encoding="utf-8"?>
<!-- Generator: Adobe Illustrator 16.0.0, SVG Export Plug-In . SVG Version: 6.00 Build 0)  -->
<!DOCTYPE svg PUBLIC "-//W3C//DTD SVG 1.1//EN" "http://www.w3.org/Graphics/SVG/1.1/DTD/svg11.dtd">
<svg version="1.1" id="Layer_1" xmlns="http://www.w3.org/2000/svg" xmlns:xlink="http://www.w3.org/1999/xlink" x="0px" y="0px"
	 width="300px" height="300px" viewBox="0 0 300 300" enable-background="new 0 0 300 300" xml:space="preserve">
<path fill-rule="evenodd" clip-rule="evenodd" fill="#010101" d="M245.978,127.334c-3.037-7.248-14.925-12.841-35.662-16.779
	c-13.91-2.723-30.595-4.357-50.055-4.901c-19.962-0.587-41.339-0.01-64.13,1.728l-1.005,4.776c-0.168,1.215-2.105,1.592-5.813,1.131
	c-2.409-0.167-5.656-0.356-9.74-0.565c-8.338-0.545-16.549-0.859-24.635-0.943c-16.276-0.293-31.756-0.094-46.44,0.597l-3.048-0.22
	c-1.592-0.252-1.33-0.754,0.786-1.509c2.723-0.963,7.081-2.356,13.071-4.179c9.824-3.037,19.167-5.614,28.027-7.729
	c13.763-3.477,28.29-6.462,43.581-8.955c0-0.167,1.026-0.398,3.079-0.691c2.262-0.293,3.886-0.335,4.871-0.125
	c0.754,0.167,1.089,0.44,1.005,0.817c-0.083,1.424-0.418,3.006-1.005,4.745c24.278-1.278,46.974-1.466,68.089-0.565
	c20.131,0.921,37.58,2.775,52.348,5.562c26.562,5.09,40.701,12.317,42.419,21.68c0.628,3.122-0.199,6.305-2.482,9.552
	c22.854,5.886,34.93,13.186,36.229,21.9c0.146,0.984,0.146,2.011,0,3.079c-1.361,9.091-14.758,18.36-40.188,27.808h-0.095
	c19.125-8.924,27.211-17.365,24.258-25.325c-2.557-7.038-13.072-12.83-31.547-17.376c-6.284,4.168-14.685,8.411-25.2,12.726
	c9.469-4.838,16.13-9.458,19.984-13.857c-13.47-3.016-29.474-5.173-48.012-6.473c-20.13-1.34-41.518-1.561-64.162-0.66l-1.225,4.776
	c-0.146,1.215-2.042,1.508-5.688,0.88c-9.593-1.215-21.052-2.116-34.374-2.702c-8.337-0.461-18.141-0.838-29.411-1.131
	c-9.384-0.167-15.061-0.209-17.03-0.125l-3.047-0.346c-0.691-0.146-0.963-0.377-0.817-0.691c0.168-0.209,0.702-0.429,1.603-0.66
	c1.361-0.607,5.823-1.896,13.385-3.865c9.677-2.577,19.104-4.776,28.279-6.599c13.846-2.933,28.488-5.383,43.926-7.352l3.048-0.472
	c2.283-0.209,3.917-0.209,4.901,0c0.67,0.167,1.005,0.472,1.005,0.911c-0.146,1.362-0.555,2.912-1.225,4.65
	c45.54-0.607,82.993,2.042,112.361,7.95C246.114,127.659,246.04,127.501,245.978,127.334z"/>
</svg>
