<?xml version="1.0" encoding="utf-8"?>
<!-- Generator: Adobe Illustrator 16.0.0, SVG Export Plug-In . SVG Version: 6.00 Build 0)  -->
<!DOCTYPE svg PUBLIC "-//W3C//DTD SVG 1.1//EN" "http://www.w3.org/Graphics/SVG/1.1/DTD/svg11.dtd">
<svg version="1.1" id="Layer_1" xmlns="http://www.w3.org/2000/svg" xmlns:xlink="http://www.w3.org/1999/xlink" x="0px" y="0px"
	 width="300px" height="300px" viewBox="0 0 300 300" enable-background="new 0 0 300 300" xml:space="preserve">
<path fill-rule="evenodd" clip-rule="evenodd" fill="#383635" d="M287.813,161.103c2.747,2.542,5.069,4.803,6.969,6.783
	c-8.235-7.052-15.645-12.563-22.229-16.535c-2.746-1.69-9.061-5.428-18.945-11.216c-8.451-4.936-13.714-8.083-15.788-9.441
	c-2.363-1.515-4.708-3.204-7.031-5.07l-0.248-0.203c0.125,0.217,0.248,0.434,0.373,0.654c5.829,10.307,8.996,15.798,9.505,16.472
	c3.723,5.072,7.063,9.208,10.016,12.413c-4.821-4.097-8.897-8.405-12.225-12.927c-3.85-6.335-7.084-11.593-9.706-15.772
	c-4.938-7.902-9.452-13.434-13.549-16.597c-4.314-3.297-13.02-7.124-26.118-11.479c-14.445-4.345-23.861-7.218-28.246-8.618
	c-5.497-1.638-11.537-3.769-18.123-6.393l-7.614-3.08c-1.341,1.976-3.304,3.909-5.887,5.803c-2.955,2.157-5.319,3.318-7.093,3.484
	c-0.934,0.125-1.799,0.041-2.597-0.249l-0.886-0.451c-1.318,1.565-2.712,2.561-4.185,2.986c-1.524,0.425-4.755,0.55-9.691,0.374
	c-4.987-0.125-8.223-0.461-9.706-1.011c-1.266-0.467-2.634-1.291-4.107-2.474l-1.913-1.71l0.638,1.898
	c0.383,1.482,0.597,2.773,0.638,3.872c0.041,1.856-0.129,3.946-0.514,6.269c-0.507,2.956-1.202,4.941-2.084,5.958
	c-1.1,1.223-3.889,2.405-8.368,3.545l-6.332,1.276l0.56,1.587c0.467,1.225,0.975,2.255,1.525,3.095
	c0.933,1.4,2.115,2.836,3.546,4.31c-2.022-1.1-3.521-2.365-4.496-3.796c-0.632-0.891-1.202-2.142-1.71-3.749l-0.576-2.208
	l6.596-1.773c4.562-1.442,7.264-2.753,8.104-3.936c0.975-1.306,1.696-3.25,2.163-5.833c0.467-2.363,0.591-4.411,0.373-6.143
	c-0.165-1.307-0.585-2.972-1.26-4.993l-0.948-2.675l2.66,2.473c2.021,1.731,3.795,2.831,5.319,3.297
	c1.814,0.633,5.087,1.011,9.816,1.136c4.738,0.134,7.866-0.072,9.378-0.623c1.483-0.508,2.858-1.669,4.124-3.484l1.213,0.436
	c0.965,0.3,1.872,0.43,2.722,0.389c1.515-0.083,3.666-1.12,6.456-3.111c3.132-2.198,5.268-4.522,6.408-6.968
	c0.923-1.898,1.26-3.863,1.012-5.896c-0.219-1.815-0.728-2.915-1.526-3.297c-0.424-0.208-2.135-0.016-5.132,0.575
	c-3.712,0.716-6.373,1.115-7.98,1.197c-1.991,0.094-4.422,0.094-7.296,0c-3.629-0.124-5.635-0.187-6.019-0.187
	c-1.898,0-4.091,0.172-6.581,0.514c-2.705,0.373-4.546,0.813-5.521,1.322c-0.798,0.424-1.452,1.083-1.96,1.976l-0.575,1.135
	l1.711,0.948c1.274,0.757,2.271,1.473,2.986,2.147c0.975,0.892,1.758,1.826,2.349,2.8c0.632,1.099,0.881,2.006,0.746,2.722
	c-0.166,0.799-0.881,1.535-2.147,2.209c-1.306,0.727-2.192,0.834-2.66,0.326c-0.342-0.3,0.016-0.746,1.074-1.336
	c1.224-0.716,1.876-1.327,1.958-1.836c0.177-0.757-0.03-1.644-0.622-2.66c-0.591-0.975-1.375-1.799-2.349-2.474
	c-0.851-0.59-1.97-1.161-3.36-1.711l-1.835-0.56l0.824-2.038c0.798-1.432,1.83-2.442,3.095-3.033c1.4-0.633,3.474-0.997,6.222-1.09
	c0.882-0.041,3.246-0.041,7.093,0c4.429,0.079,8.346-0.059,11.752-0.412c-3.524-1.178-6.913-2.009-10.166-2.497
	c-1.991-0.291-4.972-0.415-8.944-0.373c-3.38,0-5.216-0.089-5.506-0.265c-0.342-0.166-0.788-0.756-1.337-1.773
	c-0.756-1.265-1.348-2.151-1.773-2.659c-0.55-0.634-1.348-1.225-2.395-1.775c-0.893-0.507-1.338-0.783-1.338-0.823
	c0-0.167,0.294-0.379,0.886-0.638c0.591-0.208,1.099-0.25,1.524-0.125c1.017,0.3,1.987,1.316,2.909,3.048
	c0.259,0.467,0.576,1.312,0.95,2.535c0.301,0.881,0.596,1.411,0.886,1.587c0.176,0.083,2.017,0.036,5.521-0.14
	c4.056-0.249,7.478-0.182,10.267,0.202c0.414,0.061,0.823,0.126,1.229,0.195c-1.694-1.661-3.882-3.12-6.564-4.379
	c-5.403-2.323-8.95-3.972-10.64-4.946c-4.853-3.122-8.694-5.423-11.525-6.907c-3.724-1.898-7.254-3.209-10.594-3.935
	c-1.005-0.208-2.058-0.353-3.157-0.436l-1.338-0.125c0.934,0.756,1.271,1.265,1.012,1.524l-5.196-2.038
	c-3.919-1.514-7.129-2.187-9.628-2.021c-2.104,0.166-4.07,0.969-5.896,2.411c-1.69,1.348-2.577,2.022-2.66,2.022
	c-0.374-0.083-0.519-0.591-0.435-1.523l0.249-1.385c-1.307-0.301-2.848-0.347-4.621-0.14c-0.975,0.093-2.561,0.477-4.76,1.151
	c-2.239,0.632-3.634,0.99-4.184,1.074l-2.722,0.264c0.552,0.586,1.08,1.28,1.587,2.084c0.675,1.016,1.183,1.965,1.523,2.847
	c-0.424-0.674-0.974-1.437-1.648-2.287c-1.442-1.638-2.878-2.801-4.309-3.484c-1.441-0.632-3.447-0.798-6.019-0.498l-3.422,0.638
	c-2.665-1.141-5.009-1.607-7.031-1.4c-0.85,0.083-1.654,0.316-2.41,0.7l-0.95,0.559h1.462c1.006,0.135,1.701,0.478,2.084,1.027
	c0.632,0.839,0.715,1.955,0.249,3.344c-0.083-1.555-0.611-2.566-1.586-3.033c-0.715-0.343-1.726-0.343-3.034,0
	c-1.223,0.341-1.923,0.721-2.099,1.135c-0.083,0.259,0.025,0.706,0.326,1.338c0.508,0.882,0.804,1.473,0.888,1.773
	c0.248,0.882,0.311,2.064,0.187,3.548c0.549-0.675,0.928-1.521,1.135-2.537c0.093-0.249,0.161-1.011,0.203-2.287
	c0.042-0.714,0.227-1.052,0.56-1.011c0.549,0.083,1.036,0.467,1.461,1.151c0.467,0.673,0.804,1.032,1.012,1.073
	c0.715,0.208,2.322-0.15,4.822-1.073c0.631-0.26,1.499-0.747,2.597-1.462c0.882-0.549,1.453-0.825,1.711-0.825
	c0.291,0.042,0.478,0.316,0.561,0.825c0.041,0.467-0.042,0.824-0.249,1.073c-0.166,0.207-0.736,0.42-1.711,0.638
	c-1.349,0.29-2.51,0.544-3.485,0.762c-3.504,0.799-5.999,1.98-7.481,3.547c-0.881,0.881-1.555,2.084-2.021,3.608
	c-0.508,1.65-0.57,3.002-0.188,4.061c0.385,1.14,2.012,2.701,4.885,4.682c2.323,1.648,4.475,2.919,6.455,3.811
	c0.841,0.373,2.806,0.964,5.896,1.773c2.707,0.674,4.501,1.307,5.382,1.898c1.265,0.839,3.504,3.375,6.72,7.606
	c3.122,4.138,5.293,7.368,6.517,9.691c1.193,2.24,2.504,5.512,3.936,9.814c1.483,4.314,2.328,7.379,2.536,9.193
	c0.249,1.732,0.015,4.185-0.701,7.358c-0.674,2.872-1.519,5.491-2.535,7.855c-0.757,1.773-2.214,4.2-4.371,7.279
	c-1.182,1.65-2.784,3.868-4.807,6.658c-1.098,1.649-1.715,3.127-1.85,4.432c-0.083,1.059,0.17,1.923,0.762,2.599
	c0.674,0.756,2.089,0.991,4.247,0.699l0.575,0.701c0.55,0.497,1.183,0.855,1.898,1.074c1.224,0.373,2.977,0.435,5.257,0.186
	c2.542-0.248,4.403-0.777,5.584-1.586c0.756-0.509,1.727-2.427,2.909-5.755c1.306-3.64,2.109-5.647,2.411-6.02
	c0.798-0.934,2.991-1.738,6.579-2.411c3.475-0.633,6.077-0.784,7.808-0.452c1.267,0.218,3.884,1.717,7.856,4.496
	c4.427,3.09,9.199,6.875,14.31,11.355c5.112,4.469,10.204,9.515,15.275,15.136c4.687,5.277,7.368,8.782,8.042,10.513
	c0.342,0.81,0.933,4.211,1.774,10.206c0.849,6.004,1.783,10.251,2.8,12.739c1.141,2.748,4.116,7.14,8.928,13.175
	c2.406,3.007,4.688,5.733,6.844,8.183c-2.448-2.075-5.044-4.465-7.794-7.172c-5.455-5.403-8.876-9.684-10.266-12.848
	c-1.265-2.831-2.152-6.974-2.66-12.428c-0.548-5.662-1.057-9.065-1.524-10.206c-0.974-2.321-3.697-6.123-8.166-11.4
	c-4.739-5.486-9.41-10.236-14.015-14.249c-4.469-3.888-9.006-7.291-13.611-10.204c-4.19-2.706-7.274-4.313-9.256-4.822
	c-1.731-0.467-3.971-0.488-6.719-0.063c-2.664,0.384-4.397,0.954-5.195,1.711c-0.425,0.383-1.141,2.328-2.146,5.833
	c-0.975,3.38-1.93,5.409-2.862,6.083c-1.265,0.923-3.417,1.515-6.456,1.773c-2.581,0.208-4.588,0.146-6.02-0.188
	c-0.85-0.217-1.591-0.58-2.224-1.087l-0.701-0.748c-2.488-0.135-4.131-0.643-4.931-1.525c-0.342-0.424-0.555-0.952-0.638-1.584
	l-0.062-0.888c-0.674-0.083-1.183-0.378-1.525-0.887c-0.208-0.301-0.311-0.679-0.311-1.135l0.062-0.638
	c-2.032-1.141-3.915-2.894-5.646-5.258c-1.224-1.648-2.028-3.276-2.412-4.883c-0.331-1.483-0.244-2.37,0.264-2.661
	c0.333-0.208,1.131,0.108,2.396,0.948c0.725,0.467,1.867,1.229,3.421,2.287c1.483,0.881,2.878,1.493,4.184,1.835
	c0.727-2.625,1.509-5.371,2.35-8.244c1.731-5.745,2.997-9.188,3.795-10.329c1.317-1.815,3.048-3.671,5.195-5.57
	c-1.006-8.575-2.121-14.067-3.344-16.472c-0.727-1.525-2.841-4.293-6.347-8.307l-5.009-5.631c-0.798,2.23-1.643,3.345-2.535,3.345
	c-0.963,0.053-1.975-1.192-3.033-3.733l-1.338-3.795c-0.964,1.348-1.872,2.043-2.722,2.084c-0.715,0-1.39-0.632-2.022-1.897
	l-0.763-1.96c-0.424,0.591-0.912,1.307-1.461,2.146c-1.099,1.69-1.965,3.21-2.598,4.558c-0.25,0.508-0.84,2.136-1.773,4.884
	C9.69,86.595,9.12,87.42,8.569,87.42c-0.714,0-1.327-0.928-1.834-2.785c-0.466-1.773-0.679-3.738-0.638-5.895
	c0.042-1.732,0.254-3.573,0.638-5.521l0.575-2.396c-1.265,1.649-2.15,2.427-2.66,2.333c-0.424-0.084-0.788-0.545-1.088-1.385
	c-0.333-0.85-0.498-1.716-0.498-2.597c0-0.768,0.125-1.571,0.373-2.412l0.327-1.073c-0.259-0.509-0.368-1.058-0.327-1.649
	c0-0.384,0.109-0.788,0.327-1.214c0.125-0.166,0.229-0.311,0.311-0.435c-0.508-0.715-0.803-1.368-0.886-1.959
	c-0.083-1.017,0.171-2.225,0.762-3.625c0.674-1.514,1.011-2.38,1.011-2.597c0-0.716-0.358-2.085-1.074-4.107
	c-0.675-1.774-0.908-2.852-0.7-3.236c0.383-0.715,1.25-1.519,2.598-2.411c1.565-1.017,3.022-1.607,4.371-1.773
	c2.033-0.291,4.376-0.077,7.031,0.638l3.546-0.451c2.707-0.208,4.885,0.025,6.534,0.7c0.432,0.169,0.851,0.393,1.259,0.669
	l0.965,0.093c1.39,0.124,2.525,0.124,3.406,0c0.426-0.083,2.012-0.509,4.759-1.276c2.53-0.757,4.434-1.177,5.709-1.26
	c2.188-0.208,4.106-0.228,5.755-0.062l1.648-0.7c1.441-0.508,2.987-0.741,4.635-0.7c1.556,0.042,3.583,0.317,6.083,0.825
	c2.872,0.55,4.391,0.824,4.557,0.824c2.406,0.26,3.821,0.41,4.247,0.451c2.198,0.333,4.267,0.814,6.207,1.447
	c3.723,1.193,9.151,4.024,16.286,8.493c2.022,1.224,3.499,2.089,4.433,2.598c0.715,0.342,2.13,0.953,4.246,1.835
	c5.195,2.157,9.312,4.19,12.35,6.098c1.227,0.774,2.516,1.813,3.875,3.11c1.999,0.533,3.919,1.173,5.763,1.921
	c1.37-0.272,3.25-0.705,5.639-1.298c3.132-0.674,5.158-0.783,6.081-0.327c1.266,0.685,2.007,2.23,2.225,4.635
	c0.182,2.184-0.187,4.351-1.104,6.502l8.632,3.888c7.104,3.123,12.387,5.274,15.851,6.456c2.79,0.933,11.998,3.469,27.627,7.606
	c15.201,4.521,25.021,8.809,29.461,12.864c2.945,2.675,6.047,6.54,9.301,11.596l2.162,1.968c3.889,3.339,7.271,5.979,10.141,7.917
	c2.241,1.525,7.565,4.61,15.976,9.256c8.784,4.895,14.847,8.42,18.185,10.578C277.68,152.242,282.409,156.085,287.813,161.103z
	 M130.924,74.121c-1.39,1.555-3.011,2.778-4.868,3.67c-1.868,0.881-4.169,1.514-6.907,1.898L115.666,80
	c0.799,1.058,1.115,1.882,0.948,2.473c-0.176,0.425-0.747,0.783-1.71,1.074c-1.059,0.3-2.158,0.368-3.299,0.201
	c-1.099-0.176-2.053-0.663-2.861-1.461c-0.757-0.674-1.005-1.161-0.746-1.462c0.166-0.125,0.626,0.025,1.384,0.451
	c1.017,0.591,1.778,0.928,2.286,1.011c0.841,0.208,1.686,0.291,2.537,0.249c0.881,0,1.369-0.146,1.462-0.435
	c0.042-0.177-0.281-0.664-0.964-1.463c-0.673-0.798-0.924-1.348-0.747-1.648c0.124-0.208,1.493-0.461,4.106-0.762
	c3.132-0.333,5.564-0.835,7.295-1.51c3.038-1.275,5.402-2.841,7.093-4.696C132.148,72.611,131.64,73.312,130.924,74.121z
	 M113.565,146.342c2.914,2.582,5.449,5.75,7.606,9.504c1.059,1.865,1.821,3.475,2.287,4.821c-4.272-5.277-8.582-9.819-12.925-13.625
	c-2.707-2.365-7.166-5.828-13.378-10.391l-8.493-6.144l9.831,5.631C105.626,140.369,110.652,143.77,113.565,146.342z
	 M128.654,154.834c1.638-4.812,3.811-8.949,6.517-12.413c2.281-2.914,5.347-5.744,9.194-8.492c1.939-1.4,3.65-2.499,5.133-3.298
	c-5.331,5.32-9.493,10.006-12.491,14.061c-2.323,3.133-4.242,6.829-5.755,11.091c-1.607,4.522-2.308,8.452-2.101,11.791
	c0.167,2.872,1.581,8.342,4.247,16.41c1.306,4.013,2.597,7.752,3.874,11.214c-1.692-3.338-3.403-6.993-5.134-10.965
	c-3.463-7.892-5.305-13.402-5.523-16.535C126.408,163.893,127.088,159.605,128.654,154.834z M52.871,51.752
	c-1.183-0.053-2.494,0.223-3.936,0.825c-1.348,0.673-2.234,1.051-2.66,1.135c-0.715,0.125-1.54,0.083-2.473-0.125
	c-0.975-0.26-1.483-0.622-1.524-1.089c-0.041-0.291,0.234-0.539,0.824-0.747c0.301-0.135,0.597-0.223,0.888-0.265
	c-0.375-1.141-1.048-1.986-2.023-2.536c-0.633-0.29-1.328-0.519-2.084-0.685l-1.027-0.202l1.462-0.312
	c1.099-0.125,1.965,0,2.598,0.373c1.016,0.55,1.924,1.437,2.722,2.66l1.649-0.949c1.306-0.591,2.448-0.798,3.422-0.622
	c0.809,0.124,1.317,0.398,1.524,0.825l1.323,0.062c0.975,0.124,1.757,0.332,2.348,0.622c1.016,0.55,1.737,1.395,2.163,2.536
	C56.5,52.297,54.768,51.794,52.871,51.752z M48.997,46.93c0.808-0.343,1.716-0.405,2.722-0.186c0.975,0.206,1.503,0.502,1.586,0.885
	c0.083,0.208-0.274,0.312-1.073,0.312c-1.183-0.042-2.069,0-2.66,0.124c-0.758,0.176-1.582,0.492-2.473,0.948l-1.074,0.639
	l0.825-1.074C47.566,47.77,48.282,47.221,48.997,46.93z M64.023,56.885c0.498-0.975,0.518-2.624,0.062-4.947
	c1.348,2.448,1.768,4.393,1.26,5.834c-0.291,0.799-1.156,1.473-2.597,2.022c-1.224,0.424-2.028,0.57-2.412,0.436
	c-0.249-0.084-0.523-0.359-0.824-0.825c-0.291-0.457-0.352-0.772-0.187-0.949c0.083-0.125,0.845-0.27,2.287-0.436
	C62.918,57.803,63.723,57.425,64.023,56.885z M30.751,51.877c1.017,1.648,1.587,3.972,1.71,6.969
	c-0.632-2.582-1.478-4.631-2.535-6.145c-0.633-0.891-1.898-1.757-3.795-2.597c-1.825-0.809-2.738-1.234-2.738-1.275
	c-0.041-0.208,0.171-0.441,0.639-0.701c0.466-0.249,0.892-0.353,1.274-0.311c0.509,0.041,1.333,0.44,2.474,1.197
	C29.127,49.907,30.119,50.86,30.751,51.877z M17.187,51.488c0.176-0.042,0.348,0,0.513,0.124c0.125,0.135,0.188,0.285,0.188,0.452
	c0.082,0.466-0.11,0.699-0.576,0.699c-0.456,0.083-0.684-0.109-0.684-0.575c-0.042-0.166,0-0.338,0.124-0.514
	C16.876,51.549,17.021,51.488,17.187,51.488z M20.998,51.815c0.457,0,0.731,0.228,0.825,0.684c0,0.509-0.233,0.762-0.701,0.762
	c-0.166,0.042-0.336,0-0.513-0.124c-0.166-0.125-0.249-0.291-0.249-0.498C20.277,52.172,20.49,51.897,20.998,51.815z M24.218,52.639
	c0.177-0.042,0.348,0,0.513,0.125c0.125,0.125,0.188,0.27,0.188,0.436c0,0.467-0.213,0.7-0.638,0.7
	c-0.416,0-0.623-0.213-0.623-0.638c-0.041-0.166,0-0.311,0.125-0.435C23.907,52.701,24.052,52.639,24.218,52.639z M25.043,57.259
	c-0.167,0.042-0.312,0-0.436-0.125s-0.187-0.274-0.187-0.451c-0.094-0.467,0.093-0.701,0.56-0.701
	c0.175-0.042,0.347,0.005,0.513,0.14c0.125,0.125,0.187,0.27,0.187,0.435C25.68,57.026,25.467,57.259,25.043,57.259z M22.445,56.497
	c0,0.466-0.228,0.741-0.685,0.824c-0.508,0-0.763-0.233-0.763-0.699c-0.082-0.468,0.125-0.742,0.623-0.825
	C22.087,55.796,22.362,56.03,22.445,56.497z M23.783,60.043c0.207-0.042,0.373,0.021,0.498,0.187
	c0.176,0.134,0.265,0.306,0.265,0.513c0.041,0.207,0,0.378-0.125,0.514c-0.135,0.166-0.306,0.249-0.514,0.249
	c-0.467,0-0.741-0.234-0.824-0.7C23.083,60.298,23.316,60.043,23.783,60.043z M26.816,60.619c0-0.467,0.192-0.701,0.575-0.701
	c0.467,0,0.7,0.213,0.7,0.638c0.042,0.166,0,0.312-0.124,0.436c-0.125,0.135-0.275,0.203-0.452,0.203
	c-0.166,0.041-0.332-0.005-0.498-0.141C26.883,60.929,26.816,60.784,26.816,60.619z M19.162,55.983c0,0.467-0.233,0.741-0.7,0.825
	c-0.508,0-0.762-0.229-0.762-0.685c-0.041-0.217,0.021-0.389,0.188-0.513c0.124-0.166,0.295-0.249,0.512-0.249
	C18.815,55.278,19.069,55.485,19.162,55.983z M15.29,55.921c-0.384,0.092-0.618-0.093-0.7-0.561c0-0.467,0.212-0.7,0.638-0.7
	c0.384,0,0.617,0.213,0.7,0.638C15.927,55.714,15.714,55.921,15.29,55.921z M15.539,59.918c-0.083-0.466,0.15-0.74,0.699-0.825
	c0.426,0,0.679,0.234,0.763,0.701c0,0.508-0.234,0.762-0.701,0.762c-0.166,0.042-0.332,0-0.498-0.124
	C15.627,60.298,15.539,60.125,15.539,59.918z M20.174,61.381c-0.466,0.083-0.742-0.13-0.825-0.638c0-0.467,0.233-0.742,0.701-0.825
	c0.498,0,0.746,0.233,0.746,0.701C20.89,61.126,20.682,61.381,20.174,61.381z M15.102,63.978c-0.124,0.166-0.295,0.249-0.513,0.249
	c-0.466,0.083-0.742-0.129-0.824-0.637c0-0.457,0.233-0.732,0.699-0.825c0.508,0,0.763,0.233,0.763,0.7
	C15.269,63.683,15.228,63.854,15.102,63.978z M19.723,64.927c0,0.508-0.233,0.763-0.701,0.763c-0.456,0.083-0.731-0.13-0.825-0.638
	c0-0.467,0.234-0.741,0.7-0.825C19.365,64.227,19.64,64.461,19.723,64.927z M26.893,64.166c0.374-0.083,0.561,0.087,0.561,0.513
	c0.083,0.374-0.084,0.56-0.498,0.56c-0.384,0.084-0.575-0.083-0.575-0.498C26.297,64.356,26.468,64.166,26.893,64.166z
	 M24.156,65.503c0,0.456-0.188,0.683-0.561,0.683c-0.466,0-0.7-0.207-0.7-0.621c-0.083-0.385,0.109-0.618,0.576-0.7
	C23.928,64.866,24.156,65.077,24.156,65.503z M39.556,54.785c-0.25,0.259-0.544,0.685-0.887,1.275
	c-0.374,0.592-0.628,0.949-0.763,1.074c-0.166,0.166-0.42,0.311-0.762,0.436l-0.436,0.063l0.498,2.473
	c0.467,1.866,1.063,3.454,1.788,4.761c0.551,0.964,2.174,3.033,4.87,6.206c2.499,3.039,3.852,4.792,4.06,5.257
	c0.633,1.441,1.265,5.352,1.898,11.729c0.259,2.612,0.596,6.201,1.011,10.763c0.135,0.716,0.725,2.049,1.773,3.998
	c1.1,2.063,2.137,3.688,3.111,4.868c1.431,1.69,3.354,3.361,5.772,5.009c-2.666-1.182-4.802-2.489-6.409-3.92
	c-1.182-1.099-2.385-2.493-3.609-4.184c-1.182-1.649-1.856-2.852-2.022-3.609c-0.083-0.507-0.042-1.058,0.125-1.649l0.249-0.7
	c0.083-2.033-0.021-4.418-0.312-7.156c-0.673-6.169-1.628-10.732-2.863-13.688c-0.591-1.441-1.876-3.407-3.856-5.896
	c-2.324-2.872-3.759-4.796-4.309-5.77c-0.892-1.515-1.565-3.433-2.023-5.755c-0.383-1.868-0.533-3.075-0.45-3.626
	c0.166-0.549,0.715-1.162,1.648-1.835c1.183-0.882,2.469-1.364,3.858-1.447C40.758,53.837,40.106,54.277,39.556,54.785z
	 M28.091,55.61c0.384,0,0.576,0.192,0.576,0.575c0.084,0.373-0.087,0.56-0.514,0.56c-0.341,0-0.555-0.166-0.637-0.497
	C27.516,55.906,27.708,55.693,28.091,55.61z M28.028,77.465c-0.041-0.457-0.253-0.98-0.637-1.571
	c-0.383-0.643-0.824-1.109-1.323-1.4c-0.507-0.342-1.145-0.535-1.912-0.576c-0.799-0.042-1.261,0.088-1.386,0.389
	c-0.216,0.508,0.12,1.856,1.013,4.044c0.88,2.24,1.575,3.359,2.084,3.359c0.508-0.042,1.016-0.633,1.524-1.773
	C27.858,78.88,28.07,78.055,28.028,77.465z M30.751,73.031c-0.632-0.881-0.803-1.409-0.513-1.587
	c0.383-0.208,1.125,0.156,2.224,1.09c1.017,0.838,1.945,1.83,2.785,2.97c1.016,1.349,2.329,3.458,3.936,6.331
	c1.815,3.257,3.163,6.025,4.044,8.307c1.234,3.174,2.375,7.482,3.421,12.927c-1.471-4.729-2.97-8.867-4.494-12.413
	c-1.1-2.458-2.577-5.185-4.433-8.182c-1.691-2.789-3.127-4.858-4.309-6.207C31.98,74.535,31.093,73.457,30.751,73.031z
	 M17.514,74.182c0.456,1.265,0.918,1.918,1.384,1.96c0.467,0.083,1.017-0.253,1.649-1.011c0.59-0.727,0.845-1.296,0.762-1.711
	c-0.042-0.384-0.654-0.809-1.836-1.276c-1.224-0.466-1.985-0.549-2.287-0.249C16.897,72.187,17.005,72.949,17.514,74.182z
	 M12.754,57.896c0.166-0.042,0.337,0,0.514,0.125c0.125,0.124,0.187,0.27,0.187,0.436c0,0.467-0.192,0.7-0.575,0.7
	c-0.468,0-0.7-0.186-0.7-0.56c-0.042-0.176,0.005-0.348,0.14-0.514C12.443,57.958,12.588,57.896,12.754,57.896z M12.381,55.298
	c-0.384,0-0.576-0.17-0.576-0.513c0-0.332,0.171-0.544,0.514-0.637c0.332,0,0.539,0.192,0.622,0.575
	C12.94,55.107,12.754,55.298,12.381,55.298z M9.394,58.145c-0.373,0-0.56-0.171-0.56-0.513c0-0.332,0.166-0.54,0.498-0.623
	c0.342,0,0.554,0.187,0.637,0.56C9.969,57.953,9.777,58.145,9.394,58.145z M11.354,61.692c0,0.424-0.208,0.637-0.623,0.637
	c-0.384,0.083-0.618-0.108-0.7-0.575c0-0.467,0.213-0.7,0.638-0.7C11.043,61.054,11.271,61.266,11.354,61.692z M48.562,110.161
	l0.824,4.573c0.498,3.328,0.582,5.713,0.249,7.155c-0.384,1.649-1.586,3.717-3.609,6.207l-2.862,3.298
	c2.915-4.729,4.604-8.068,5.071-10.018c0.3-1.223,0.452-3.458,0.452-6.704L48.562,110.161z M54.581,115.995l-1.648-4.06l2.333,4.246
	c1.524,3.049,2.267,5.144,2.225,6.285c-0.042,1.141-0.716,2.723-2.022,4.743c-0.425,0.632-1.337,1.857-2.737,3.672
	c-0.498,0.726-0.835,1.571-1.011,2.535c-0.208,1.016-0.14,1.674,0.202,1.975c0.414,0.373,1.68,0.286,3.795-0.264
	c-2.53,1.648-4.179,2.26-4.946,1.835c-0.425-0.207-0.591-0.965-0.498-2.271c0.083-1.358,0.399-2.583,0.949-3.671
	c0.042-0.133,0.969-1.529,2.784-4.184c1.307-1.95,2.001-3.496,2.084-4.636C56.183,120.977,55.68,118.909,54.581,115.995z
	 M13.065,69.484c-1.473-0.881-2.588-1.176-3.344-0.886c-0.425,0.166-0.954,1.286-1.587,3.36c-0.632,2.156-0.97,4.184-1.011,6.081
	c-0.053,1.94,0.093,3.8,0.435,5.585c0.343,1.638,0.679,2.503,1.01,2.597c0.219,0.083,0.582-0.68,1.09-2.287
	c0.675-2.199,1.286-3.868,1.835-5.009c0.549-1.057,1.415-2.515,2.598-4.37c0.799-1.307,1.198-2.153,1.198-2.535
	C15.29,71.264,14.549,70.418,13.065,69.484z M4.385,66.887c-0.289,0.757-0.435,1.499-0.435,2.224
	c-0.042,0.632,0.042,1.245,0.249,1.835c0.166,0.632,0.377,0.97,0.637,1.012c0.25,0.041,0.84-0.55,1.773-1.774
	c0.933-1.223,1.38-2.068,1.337-2.535c-0.052-0.508-0.394-0.995-1.026-1.463c-0.633-0.456-1.183-0.643-1.65-0.56
	C4.981,65.711,4.687,66.13,4.385,66.887z M48.173,108.387c-0.291-0.631-0.544-1.265-0.762-1.896
	c-0.416-1.266-0.457-1.918-0.125-1.96C47.835,104.447,48.132,105.733,48.173,108.387z M24.358,130.942
	c-1.183-0.798-1.841-1.135-1.975-1.011c-0.208,0.259-0.037,1.063,0.512,2.411c0.55,1.483,1.287,2.795,2.209,3.937
	c0.975,1.222,2.012,2.213,3.112,2.97c1.057,0.798,1.881,1.156,2.473,1.072c0.632-0.083,1.286-0.631,1.959-1.648
	c0.715-1.047,1.032-2.017,0.949-2.909c-1.69-0.507-3.547-1.312-5.569-2.41C27.355,132.98,26.131,132.177,24.358,130.942z
	 M43.366,114.797l0.249-2.8c-2.116,1.607-3.93,3.681-5.444,6.221c-1.017,1.69-2.157,4.563-3.422,8.618
	c-1.183,3.754-1.753,5.988-1.711,6.704c0,0.424,0.274,0.767,0.824,1.026c0.333-1.441,0.965-2.944,1.899-4.51
	c0.249-0.415,1.238-1.893,2.97-4.433c1.525-2.147,2.583-3.921,3.174-5.32C42.537,118.778,43.024,116.943,43.366,114.797z"/>
</svg>
