<?xml version="1.0" encoding="utf-8"?>
<!-- Generator: Adobe Illustrator 16.0.0, SVG Export Plug-In . SVG Version: 6.00 Build 0)  -->
<!DOCTYPE svg PUBLIC "-//W3C//DTD SVG 1.1//EN" "http://www.w3.org/Graphics/SVG/1.1/DTD/svg11.dtd">
<svg version="1.1" id="Layer_1" xmlns="http://www.w3.org/2000/svg" xmlns:xlink="http://www.w3.org/1999/xlink" x="0px" y="0px"
	 width="300px" height="300px" viewBox="0 0 300 300" enable-background="new 0 0 300 300" xml:space="preserve">
<path fill-rule="evenodd" clip-rule="evenodd" fill="#070606" d="M133.102,210.995l15.782-11.404h0.114l28.801-20.967l5.992,18.547
	L59.716,287.374l32.489-99.651l15.667,11.521l-12.673,39.286l38.017-27.534H133.102z M103.264,136.229H61.905l82.6,59.906
	l-15.782,11.634L109.6,193.829v0.23L4.65,117.682h104.718L103.264,136.229z M181.255,112.267h-19.584l-12.673-39.285l-31.566,97.002
	l-15.782-11.521l47.348-145.615L181.255,112.267z M171.118,141.527h19.584l47.464,145.847l-84.675-61.634l15.668-11.52l33.64,24.309
	l-23.501-71.772C177.913,162.303,175.188,153.893,171.118,141.527z M202.452,160.651l33.639-24.423H133.907l6.107-18.547h153.22
	l-84.674,61.518L202.452,160.651z"/>
</svg>
