<?xml version="1.0" encoding="utf-8"?>
<!-- Generator: Adobe Illustrator 16.0.0, SVG Export Plug-In . SVG Version: 6.00 Build 0)  -->
<!DOCTYPE svg PUBLIC "-//W3C//DTD SVG 1.1//EN" "http://www.w3.org/Graphics/SVG/1.1/DTD/svg11.dtd">
<svg version="1.1" id="Layer_1" xmlns="http://www.w3.org/2000/svg" xmlns:xlink="http://www.w3.org/1999/xlink" x="0px" y="0px"
	 width="300px" height="300px" viewBox="0 0 300 300" enable-background="new 0 0 300 300" xml:space="preserve">
<path fill-rule="evenodd" clip-rule="evenodd" fill="#010101" d="M172.597,8.027c0.294,0.084-0.148,4.742-1.329,13.974
	c-0.379,2.655-1.707,12.372-3.982,29.147c-1.012-0.168-2.002-0.316-2.973-0.442l1.013-5.564c4.341-24.785,6.723-37.178,7.144-37.178
	L172.597,8.027z M183.597,10.177c0.339,0.042-0.483,4.7-2.465,13.973c-0.211,1.181-2.298,10.791-6.26,28.832
	c-0.97-0.295-1.896-0.527-2.782-0.696l1.455-5.69c6.237-24.279,9.568-36.419,9.989-36.419H183.597z M194.536,13.274
	c0.464,0.169-3.626,14.206-12.267,42.11c-0.886-0.337-1.792-0.674-2.718-1.012l1.959-5.627
	c8.135-23.647,12.435-35.471,12.899-35.471H194.536z M243.347,40.589c0.339,0.38-9.104,12.182-28.325,35.408l-2.213-1.96
	l4.932-5.564c16.48-18.589,24.975-27.884,25.48-27.884H243.347z M234.495,33.698c0.295,0.168-2.339,4.299-7.903,12.392
	c-2.107,3.077-7.903,11.36-17.388,24.848l-2.339-1.833l4.3-5.69c14.964-19.812,22.697-29.717,23.204-29.717H234.495z
	 M251.566,48.303c0.211,0.253-3.055,3.941-9.8,11.065c-2.191,2.276-9.315,9.632-21.37,22.067l-2.024-2.087l5.502-5.311
	c17.745-17.156,26.935-25.734,27.566-25.734H251.566z M159.382,50.01c-0.928-0.126-1.876-0.232-2.846-0.316l0.569-5.501
	c2.36-24.996,3.771-37.494,4.235-37.494c0.38,0,0.316,4.658-0.189,13.973C160.983,23.665,160.393,33.444,159.382,50.01z
	 M225.138,27.438c0.254,0.168-2.065,4.447-6.955,12.835c-1.434,2.529-6.491,11.191-15.174,25.987
	c-0.802-0.59-1.602-1.117-2.403-1.581l3.668-5.754C217.551,37.933,224.506,27.438,225.138,27.438z M193.967,60.695l2.908-5.753
	c11.803-22.045,17.936-33.068,18.399-33.068c0.506,0.21-5.796,13.594-18.905,40.149C195.526,61.56,194.726,61.117,193.967,60.695z
	 M189.352,51.591c9.947-22.973,15.175-34.459,15.68-34.459c0.464,0.21-4.721,13.952-15.554,41.225
	c-0.844-0.38-1.665-0.759-2.466-1.139L189.352,51.591z M236.329,104.133l7.334-3.667c21.92-10.664,33.301-15.997,34.143-15.997
	l0.128,0.063c0.167,0.295-4.215,2.866-13.152,7.714c-1.054,0.548-10.116,5.374-27.188,14.479
	C237.172,105.882,236.75,105.018,236.329,104.133z M247.205,107.99c22.423-8.852,34.185-13.278,35.28-13.278h0.127
	c0.168,0.379-4.405,2.634-13.722,6.765c-1.306,0.548-10.748,4.658-28.325,12.329c-0.338-0.927-0.696-1.833-1.075-2.718
	L247.205,107.99z M230.069,93.448c-0.591-0.801-1.18-1.581-1.77-2.34l6.512-4.615c19.98-14.079,30.391-21.118,31.234-21.118h0.063
	c0.17,0.295-3.688,3.478-11.569,9.547C243.874,83.057,235.718,89.232,230.069,93.448z M225.454,87.314
	c-0.421-0.506-0.802-0.948-1.139-1.328l-0.695-1.011l6.007-4.932c18.969-15.681,28.811-23.521,29.526-23.521
	c0.212,0.295-3.392,3.751-10.812,10.37C245.392,69.59,237.763,76.397,225.454,87.314z M244.043,125.694l8.472-1.96
	c22.762-5.059,35.028-7.587,36.8-7.587c0.168,0,0.253,0.021,0.253,0.063c0.084,0.379-4.849,1.854-14.796,4.426
	c-2.107,0.59-12.141,3.225-30.096,7.904C244.423,127.527,244.211,126.579,244.043,125.694z M255.36,139.983
	c19.812-1.181,31.593-1.771,35.344-1.771l2.403,0.19c0,0.379-5.163,1.095-15.49,2.15c-13.742,1.348-24.175,2.381-31.298,3.098
	c-0.042-1.013-0.104-2.024-0.19-3.035L255.36,139.983z M254.286,131.763c22.171-3.035,34.438-4.552,36.798-4.552
	c0.464,0,0.696,0.021,0.696,0.063c0.042,0.337-4.995,1.433-15.111,3.287l-30.981,5.501c-0.128-1.012-0.232-2.003-0.316-2.972
	L254.286,131.763z M242.082,118.232l8.157-2.466c22.931-7.04,34.944-10.559,36.039-10.559l0.254,0.127
	c0.084,0.337-4.68,2.192-14.29,5.563c-12.856,4.468-22.656,7.862-29.4,10.18C242.589,120.151,242.336,119.202,242.082,118.232z
	 M232.599,97.494l6.892-4.173c21.118-12.435,32.057-18.652,32.815-18.652l0.126,0.063c0.169,0.295-3.982,3.161-12.455,8.599
	c-1.433,0.927-10.075,6.471-25.924,16.629C233.589,99.116,233.104,98.294,232.599,97.494z M127.705,7.964
	c0.547,0,2.95,12.393,7.207,37.178l0.885,4.869c-0.969,0.084-1.917,0.189-2.845,0.316c-3.961-28.115-5.711-42.215-5.247-42.299
	V7.964z M27.994,74.669c0.632,0,11.571,6.217,32.815,18.652l3.161,1.833c-0.548,0.759-1.053,1.56-1.518,2.403
	C39.186,82.762,27.657,75.133,27.868,74.669H27.994z M48.796,48.176c0.674,0,9.863,8.62,27.567,25.86l2.908,2.719l-2.023,2.023
	C57.985,58.756,48.501,48.598,48.796,48.303V48.176z M17.815,94.712c1.053,0,12.793,4.426,35.217,13.278l3.352,1.328
	c-0.379,0.843-0.737,1.708-1.075,2.592c-25.291-11.001-37.853-16.734-37.685-17.198H17.815z M22.494,84.469
	c0.843,0,12.224,5.333,34.143,15.997l3.162,1.707c-0.379,0.759-0.781,1.581-1.202,2.465C34.233,91.656,22.178,84.954,22.431,84.532
	L22.494,84.469z M13.895,105.208c1.559,0,13.636,3.52,36.229,10.559l3.415,1.075c-0.295,0.885-0.569,1.77-0.823,2.655
	c-26.133-9.021-39.116-13.742-38.948-14.163L13.895,105.208z M10.986,116.146c1.729,0,13.974,2.529,36.736,7.587l3.667,0.822
	c-0.211,0.885-0.4,1.792-0.569,2.719c-16.397-4.3-25.521-6.682-27.376-7.146c-8.599-2.318-12.857-3.625-12.773-3.919
	C10.669,116.167,10.776,116.146,10.986,116.146z M9.153,127.211c2.402,0,14.689,1.518,36.861,4.552l3.921,0.632
	c-0.127,0.885-0.253,1.792-0.38,2.719c-27.482-4.764-41.161-7.377-41.034-7.84L9.153,127.211z M9.595,138.212
	c3.751,0,15.533,0.59,35.344,1.771l4.11,0.316l-0.19,2.782c-16.944-1.644-26.407-2.55-28.39-2.719
	c-8.894-0.927-13.32-1.581-13.278-1.959L9.595,138.212z M148.696,49.378c0.464-28.706,0.948-43.059,1.455-43.059
	c0.505,0,0.99,14.374,1.453,43.122L148.696,49.378z M140.792,49.63c-1.686-28.621-2.318-42.931-1.897-42.931
	c0.379,0,1.813,12.498,4.3,37.494l0.442,5.248c-0.211,0-0.506,0.021-0.886,0.063h-0.316
	C141.889,49.504,141.341,49.546,140.792,49.63z M110.064,56.459C99.82,30.452,94.89,17.342,95.269,17.132
	c0.421,0,5.648,11.486,15.681,34.459l1.707,3.856C111.729,55.743,110.864,56.08,110.064,56.459z M128.021,51.148
	c-1.013,0.169-1.961,0.358-2.845,0.569c-6.029-27.567-8.852-41.414-8.473-41.541c0.463,0,3.814,12.14,10.053,36.419L128.021,51.148z
	 M117.461,53.804c-8.177-26.893-12.055-40.402-11.634-40.529c0.464,0,4.764,11.824,12.898,35.471l1.518,4.236
	C119.274,53.234,118.347,53.509,117.461,53.804z M85.026,21.874c0.547,0,6.639,11.023,18.271,33.068l1.961,3.604
	c-0.801,0.379-1.623,0.801-2.466,1.265C94.952,43.667,90.822,35.152,90.4,34.266C86.521,26.173,84.731,22.042,85.026,21.874z
	 M57.079,40.589c0.548,0,9.042,9.295,25.481,27.884l2.718,3.035c-0.758,0.548-1.496,1.159-2.213,1.833
	c-17.662-21.54-26.344-32.457-26.049-32.752H57.079z M65.805,33.634c0.59,0,8.346,9.927,23.267,29.781l2.466,3.224
	c-0.758,0.506-1.518,1.054-2.276,1.644C73.287,45.479,65.468,33.95,65.805,33.698V33.634z M96.091,58.925l2.213,3.351
	c-0.843,0.464-1.645,0.97-2.403,1.518c-8.852-15.048-13.657-23.226-14.417-24.532c-4.468-7.714-6.554-11.655-6.258-11.824
	C75.689,27.438,82.644,37.933,96.091,58.925z M71.875,84.659c-20.823-18.42-31.065-27.799-30.729-28.136
	c0.716,0,10.559,7.84,29.527,23.521l3.035,2.465L71.875,84.659z M65.489,86.493l3.098,2.213c-0.59,0.716-1.16,1.454-1.708,2.213
	C44.834,74.226,33.938,65.711,34.191,65.375C34.949,65.375,45.382,72.414,65.489,86.493z M147.557,58.546
	c24.744,0,45.862,8.767,63.355,26.302c17.534,17.493,26.302,38.611,26.302,63.354s-8.768,45.861-26.302,63.354
	c-17.493,17.452-38.611,26.177-63.355,26.177c-24.701,0-45.798-8.725-63.291-26.177c-17.535-17.492-26.302-38.61-26.302-63.354
	s8.768-45.861,26.302-63.354C101.759,67.313,122.856,58.546,147.557,58.546z M56.637,198.784
	c-21.708,10.665-33.089,15.997-34.143,15.997h-0.063c-0.211-0.38,12.223-7.271,37.304-20.676c0.463,0.844,0.926,1.666,1.39,2.466
	L56.637,198.784z M65.426,203.336l-4.742,2.656c-20.865,12.435-31.762,18.652-32.689,18.652h-0.126
	c-0.295-0.421,11.676-8.324,35.913-23.71C64.245,201.777,64.793,202.578,65.426,203.336z M57.522,189.616l-4.49,1.644
	c-22.424,8.853-34.164,13.278-35.217,13.278h-0.19c-0.168-0.379,12.752-6.218,38.759-17.514
	C56.721,187.868,57.1,188.731,57.522,189.616z M84.962,224.645c0.59,0.463,1.202,0.97,1.834,1.518l-4.236,4.678
	c-16.397,18.506-24.912,27.758-25.544,27.758c-0.379-0.295,8.789-11.739,27.504-34.332L84.962,224.645z M93.056,230.714
	l-3.984,5.059c-14.921,19.854-22.677,29.78-23.267,29.78c-0.421-0.254,7.861-12.414,24.848-36.482
	C91.454,229.576,92.255,230.124,93.056,230.714z M99.694,234.824l-3.604,5.564c-13.447,20.991-20.402,31.486-20.865,31.486v-0.126
	c-0.464-0.211,6.828-13.004,21.876-38.38C97.946,233.834,98.809,234.317,99.694,234.824z M70.041,209.596l-4.552,3.162
	c-20.191,14.163-30.624,21.244-31.298,21.244v-0.063c-0.295-0.379,11.086-9.23,34.143-26.556
	C68.924,208.101,69.494,208.838,70.041,209.596z M75.226,215.54l-4.553,3.73c-18.926,15.596-28.769,23.394-29.527,23.394
	c-0.337-0.337,10.391-10.095,32.183-29.274c0.252,0.295,0.526,0.633,0.821,1.012L75.226,215.54z M76.363,225.214
	c-17.746,17.155-26.935,25.733-27.567,25.733c-0.253-0.253,2.866-3.772,9.358-10.559c1.096-1.181,7.925-8.284,20.485-21.309
	l2.15,1.896L76.363,225.214z M113.73,241.272l-2.781,6.45c-10.032,22.888-15.26,34.332-15.681,34.332h-0.063
	c-0.337-0.126,4.931-14.058,15.807-41.793C111.898,240.557,112.804,240.894,113.73,241.272z M128.716,245.319l-1.96,7.271
	c-6.239,24.279-9.59,36.419-10.053,36.419c-0.379-0.042,0.463-4.91,2.529-14.605c0.421-1.98,2.613-11.886,6.576-29.717
	C126.734,244.898,127.705,245.108,128.716,245.319z M118.284,242.854c0.927,0.211,1.875,0.485,2.845,0.822l-2.403,6.765
	c-8.134,23.647-12.434,35.472-12.898,35.472C105.406,285.785,109.558,271.433,118.284,242.854z M151.604,246.837
	c-0.504,30.729-0.99,46.094-1.453,46.094c-0.38,0-0.696-5.017-0.948-15.049c-0.211-13.573-0.401-23.899-0.569-30.981
	L151.604,246.837z M133.395,246.015c0.97,0.127,1.939,0.253,2.908,0.381l-1.392,7.713c-4.257,24.743-6.66,37.114-7.207,37.114
	c-0.338-0.042,0.147-4.994,1.454-14.858C129.454,274.383,130.866,264.267,133.395,246.015z M140.982,246.711
	c0.97,0.084,1.96,0.147,2.971,0.189l-0.758,8.094c-2.487,25.038-3.921,37.558-4.3,37.558
	C138.517,292.51,139.211,277.229,140.982,246.711z M106.586,238.364l-3.289,5.881c-11.633,22.045-17.725,33.067-18.271,33.067
	c-0.464-0.21,5.837-13.615,18.904-40.213C104.773,237.521,105.659,237.943,106.586,238.364z M49.303,159.014l-4.363,0.254
	c-19.812,1.181-31.593,1.771-35.344,1.771c-1.602,0-2.403-0.064-2.403-0.19c-0.042-0.379,13.91-1.938,41.857-4.679
	C49.091,157.139,49.175,158.087,49.303,159.014z M52.148,174.632l-4.426,1.012c-22.468,5.016-34.712,7.524-36.736,7.524h-0.316
	c-0.084-0.339,4.279-1.688,13.089-4.047c5.184-1.392,14.394-3.794,27.63-7.208C51.642,172.798,51.895,173.704,52.148,174.632z
	 M48.796,151.048c-28.031-0.464-42.046-0.928-42.046-1.391c0-0.506,14.015-0.991,42.046-1.455V151.048z M50.44,166.854l-4.426,0.632
	c-22.551,3.162-34.838,4.742-36.861,4.742c-0.422,0-0.632-0.063-0.632-0.189c-0.042-0.294,4.362-1.286,13.213-2.972
	c1.518-0.253,10.918-1.918,28.201-4.995C50.103,165,50.272,165.927,50.44,166.854z M13.768,193.916
	c-0.126-0.38,13.173-5.185,39.896-14.416c0.211,0.97,0.485,1.896,0.822,2.782l-4.363,1.327
	c-22.804,6.955-34.88,10.433-36.229,10.433L13.768,193.916z M290.704,161.038c-3.751,0-15.532-0.59-35.344-1.771l-9.357-0.507
	c0.042-1.012,0.084-2.022,0.126-3.034c18.168,1.728,28.664,2.74,31.488,3.034c10.327,1.055,15.49,1.75,15.49,2.087
	C293.107,160.974,292.307,161.038,290.704,161.038z M291.084,172.229c-1.939,0-14.204-1.58-36.798-4.742l-9.358-1.201
	c0.169-1.012,0.338-2.022,0.506-3.034c6.997,1.265,17.346,3.098,31.045,5.5c10.243,1.897,15.344,3.014,15.302,3.352L291.084,172.229
	z M268.449,197.773c9.609,4.214,14.331,6.47,14.163,6.765l-0.127,0.127c-0.928,0-12.688-4.468-35.28-13.405l-8.727-3.414
	c0.38-0.885,0.759-1.77,1.139-2.655C258.712,193.494,268.322,197.688,268.449,197.773z M289.187,183.168
	c-1.938,0-14.162-2.509-36.672-7.524l-9.104-2.024c0.252-1.011,0.484-1.98,0.695-2.908c17.745,4.596,27.883,7.229,30.412,7.903
	c10.116,2.698,15.133,4.215,15.049,4.554H289.187z M259.153,242.664l-0.063,0.126c-0.8,0-10.621-7.84-29.464-23.52l-7.524-6.197
	c0.633-0.8,1.307-1.58,2.024-2.339c5.31,4.806,13.213,11.865,23.71,21.182C255.592,238.871,259.365,242.453,259.153,242.664z
	 M266.108,233.938l-0.063,0.063c-0.759,0-11.17-7.081-31.234-21.244l-7.967-5.501c0.59-0.801,1.181-1.58,1.771-2.34
	C253.864,223.885,266.362,233.56,266.108,233.938z M259.47,215.603c8.81,5.732,13.131,8.747,12.962,9.042h-0.126
	c-0.97,0-11.908-6.218-32.815-18.652l-8.22-4.869c0.549-0.842,1.097-1.706,1.644-2.592C238.9,202.41,247.752,208.101,259.47,215.603
	z M264.276,206.878c9.272,5.017,13.824,7.65,13.657,7.903h-0.128c-1.053,0-12.435-5.332-34.143-15.997l-8.472-4.109
	c0.463-0.886,0.906-1.771,1.328-2.655C242.842,195.433,252.094,200.386,264.276,206.878z M286.532,193.916l-0.254,0.126
	c-1.307,0-13.319-3.478-36.039-10.433l-9.041-2.782c0.379-0.927,0.695-1.896,0.948-2.908c6.744,2.361,16.649,5.816,29.717,10.37
	C281.727,191.745,286.616,193.621,286.532,193.916z M246.382,148.14c31.446,0.505,47.168,1.011,47.168,1.518
	c0,0.463-15.722,0.948-47.168,1.453c0-0.927,0-1.896,0-2.908V148.14z M201.744,231.03c15.933,26.977,23.731,40.592,23.394,40.845
	h-0.127c-0.547,0-7.46-10.495-20.737-31.486l-5.122-7.715C199.994,232.084,200.858,231.537,201.744,231.03z M195.294,234.95
	c8.305,16.987,12.878,26.366,13.721,28.136c4.469,9.316,6.554,14.059,6.26,14.227h-0.063c-0.338,0-6.449-10.979-18.336-32.941
	l-4.173-7.967C193.545,235.94,194.41,235.456,195.294,234.95z M156.283,246.584c1.012-0.084,2.002-0.168,2.971-0.253
	c1.939,30.771,2.636,46.179,2.087,46.221c-0.464,0-1.875-12.52-4.235-37.558L156.283,246.584z M166.716,245.257
	c4.384,30.517,6.302,45.84,5.753,45.966c-0.421,0-2.803-12.371-7.144-37.114l-1.518-8.409
	C164.818,245.489,165.788,245.341,166.716,245.257z M181.511,241.272c2.065,6.829,5.079,16.756,9.041,29.781
	c2.909,9.863,4.195,14.816,3.858,14.858c-0.465,0.084-4.765-11.738-12.899-35.472l-2.845-8.219
	C179.636,241.884,180.584,241.568,181.511,241.272z M174.24,243.55c6.659,30.181,9.779,45.334,9.356,45.46
	c-0.463,0-3.814-12.14-10.052-36.419l-2.15-8.346C172.364,244.034,173.313,243.802,174.24,243.55z M188.592,238.428
	c11.423,28.917,16.903,43.459,16.439,43.627c-0.505,0-5.732-11.444-15.68-34.332l-3.542-8.156
	C186.695,239.146,187.623,238.766,188.592,238.428z M219.004,216.425c14.67,15.133,22.046,22.763,22.13,22.888
	c7.166,7.546,10.644,11.424,10.433,11.635h-0.126c-0.464,0-9.652-8.536-27.566-25.607l-7.019-6.702
	C217.446,218.174,218.162,217.437,219.004,216.425z M211.417,223.633l2.213-1.896c20.148,24.236,30.012,36.523,29.591,36.861
	c-0.59,0-9.084-9.252-25.48-27.758L211.417,223.633z M225.959,252.401c5.902,8.558,8.705,12.939,8.41,13.151
	c-0.507,0-8.24-9.885-23.204-29.654l-5.817-7.46c0.843-0.675,1.686-1.328,2.529-1.96
	C218.078,241.063,224.104,249.703,225.959,252.401z"/>
</svg>
