<?xml version="1.0" encoding="utf-8"?>
<!-- Generator: Adobe Illustrator 16.0.0, SVG Export Plug-In . SVG Version: 6.00 Build 0)  -->
<!DOCTYPE svg PUBLIC "-//W3C//DTD SVG 1.1//EN" "http://www.w3.org/Graphics/SVG/1.1/DTD/svg11.dtd">
<svg version="1.1" id="Layer_1" xmlns="http://www.w3.org/2000/svg" xmlns:xlink="http://www.w3.org/1999/xlink" x="0px" y="0px"
	 width="300px" height="300px" viewBox="0 0 300 300" enable-background="new 0 0 300 300" xml:space="preserve">
<path fill-rule="evenodd" clip-rule="evenodd" fill="#010101" d="M288.77,188.174c2.487,2.23,3.73,4.927,3.73,8.088
	c0,3.16-1.243,5.844-3.73,8.053c-2.463,2.23-5.45,3.346-8.959,3.346c-0.326,0-0.64,0-0.941,0c0.209,1.209,0.314,2.464,0.314,3.766
	c0,5.95-2.115,11.027-6.345,15.234c-4.208,4.23-9.297,6.345-15.27,6.345c-5.95,0-11.04-2.114-15.27-6.345
	c-0.674-0.674-1.29-1.36-1.849-2.057c-0.743,1.232-1.66,2.382-2.753,3.451c-3.277,3.3-7.239,4.95-11.889,4.95
	c-4.647,0-8.622-1.65-11.922-4.95c-1.929-1.929-3.288-4.078-4.079-6.45c-0.395,0.605-0.859,1.175-1.394,1.709
	c-2.022,2.022-4.463,3.032-7.321,3.032c-2.883,0-5.334-1.01-7.355-3.032c-1.79-1.789-2.79-3.904-2.999-6.345
	c-1.672,0.999-3.556,1.499-5.646,1.499c-3.046,0-5.637-1.069-7.774-3.207c-2.138-2.162-3.208-4.764-3.208-7.81
	c0-3.044,1.07-5.635,3.208-7.773s4.729-3.207,7.774-3.207c0.14,0,0.278,0,0.418,0c-0.697-1.372-1.046-2.895-1.046-4.567
	c0-2.882,1.011-5.345,3.033-7.391c2.045-2.022,4.509-3.032,7.391-3.032c0.371,0,0.743,0.022,1.114,0.068
	c-2.138-2.881-3.207-6.216-3.207-10.004c0-4.719,1.651-8.738,4.951-12.063c1.511-1.488,3.149-2.648,4.916-3.486
	c-2.65-5.229-6.206-10.075-10.669-14.537c-10.923-10.923-24.101-16.385-39.532-16.385c-15.432,0-28.609,5.462-39.532,16.385
	c-10.366,10.365-15.805,22.753-16.315,37.162c2.603,0.139,4.846,1.15,6.729,3.033c2.044,2.022,3.067,4.463,3.067,7.32
	c0,0.35-0.023,0.675-0.07,0.977c1.255-0.371,2.591-0.559,4.009-0.559c3.509,0,6.507,1.117,8.995,3.348
	c2.463,2.23,3.695,4.927,3.695,8.088s-1.231,5.856-3.695,8.088c-2.488,2.208-5.485,3.312-8.995,3.312c-0.302,0-0.616,0-0.941,0
	c0.209,1.208,0.313,2.463,0.313,3.765c0,5.95-2.115,11.027-6.344,15.235c-4.207,4.229-9.296,6.345-15.27,6.345
	c-5.95,0-11.04-2.115-15.269-6.345c-0.674-0.675-1.291-1.36-1.848-2.058c-0.721,1.232-1.626,2.382-2.719,3.451
	c-3.3,3.301-7.275,4.951-11.923,4.951s-8.622-1.65-11.922-4.951c-1.906-1.929-3.254-4.078-4.044-6.449
	c-0.418,0.604-0.895,1.174-1.43,1.709c-2.021,2.021-4.462,3.033-7.321,3.033c-2.858,0-5.311-1.012-7.355-3.033
	c-1.79-1.79-2.789-3.904-2.998-6.346c-1.673,0.999-3.556,1.499-5.647,1.499c-3.045,0-5.636-1.069-7.774-3.207
	c-2.138-2.161-3.207-4.764-3.207-7.809c0-3.044,1.069-5.636,3.207-7.774c2.138-2.139,4.729-3.207,7.774-3.207
	c0.14,0,0.279,0,0.418,0c-0.673-1.371-1.011-2.893-1.011-4.566c0-2.883,1.011-5.346,3.033-7.391
	c1.208-1.186,2.568-2.022,4.079-2.511c-0.023-1.022-0.035-2.044-0.035-3.067c0-36.14,12.771-66.969,38.313-92.487
	c25.519-25.519,56.336-38.277,92.452-38.277c36.14,0,66.97,12.759,92.487,38.277c25.519,25.519,38.29,56.348,38.313,92.487
	c0,0.604,0,1.221,0,1.848C285.562,185.884,287.259,186.825,288.77,188.174z M245.542,169.069c0.93,0,1.813,0.104,2.649,0.313
	c-2.534-21.219-11.679-39.707-27.437-55.464c-18.754-18.755-41.38-28.121-67.875-28.098c-26.518-0.023-49.143,9.343-67.875,28.098
	c-14.641,14.619-23.566,31.619-26.773,51.002c2.789,0.14,5.171,1.196,7.146,3.173c0.488,0.487,0.918,0.999,1.29,1.533
	c2.557-18.547,10.772-34.733,24.647-48.562c16.989-17.012,37.511-25.518,61.564-25.518c24.055,0,44.589,8.506,61.6,25.518
	c14.225,14.201,22.498,30.887,24.822,50.062C241.114,169.755,243.194,169.069,245.542,169.069z M227.065,160.319
	c0.023,0,0.047,0,0.069,0c-3.532-12.039-10.052-22.823-19.557-32.352c-15.131-15.107-33.363-22.66-54.698-22.66
	c-21.334,0-39.556,7.553-54.663,22.66c-12.921,12.922-20.312,28.146-22.171,45.669h0.035c2.859,0,5.299,1.011,7.321,3.032
	c2.045,2.022,3.068,4.462,3.068,7.321c0,0.324-0.012,0.639-0.035,0.941c0.116-0.303,0.255-0.594,0.418-0.871
	c-0.046-1.023-0.07-2.047-0.07-3.068c0-18.151,6.415-33.642,19.244-46.471c12.829-12.806,28.308-19.208,46.435-19.208
	c18.151,0,33.629,6.402,46.436,19.208c6.09,6.089,10.737,12.829,13.944,20.221c3.439,0.557,6.449,2.137,9.029,4.74
	c0.488,0.465,0.94,0.965,1.359,1.498C224.416,160.54,225.694,160.319,227.065,160.319z M272.804,177.088
	c0.325,0.325,0.639,0.674,0.94,1.045c-1.464-31.398-13.224-58.137-35.279-80.215c-23.637-23.613-52.164-35.419-85.585-35.419
	c-33.42,0-61.937,11.807-85.549,35.419c-17.965,17.965-29.098,38.743-33.397,62.332c1.976-0.79,4.125-1.185,6.449-1.185
	c3.184,0,6.054,0.767,8.611,2.301c3.835-20.708,13.526-38.824,29.074-54.349c20.661-20.661,45.599-30.992,74.812-30.992
	c29.215,0,54.151,10.331,74.813,30.992c19.43,19.406,29.726,42.624,30.887,69.653c1.93-1.743,4.23-2.614,6.903-2.614
	C268.341,174.055,270.781,175.065,272.804,177.088z"/>
</svg>
