<?xml version="1.0" encoding="utf-8"?>
<!-- Generator: Adobe Illustrator 16.0.0, SVG Export Plug-In . SVG Version: 6.00 Build 0)  -->
<!DOCTYPE svg PUBLIC "-//W3C//DTD SVG 1.1//EN" "http://www.w3.org/Graphics/SVG/1.1/DTD/svg11.dtd">
<svg version="1.1" id="Layer_1" xmlns="http://www.w3.org/2000/svg" xmlns:xlink="http://www.w3.org/1999/xlink" x="0px" y="0px"
	 width="300px" height="300px" viewBox="0 0 300 300" enable-background="new 0 0 300 300" xml:space="preserve">
<path fill-rule="evenodd" clip-rule="evenodd" fill="#010101" d="M173.797,164.711c-6.584-6.78-14.175-12.221-22.771-16.324
	c-13.782-6.534-27.76-8.868-41.934-7.001c-17.073,2.187-31.162,10.44-42.265,24.763c-1.646,2.088-3.771,3.292-6.375,3.61
	c-2.628,0.344-4.987-0.294-7.075-1.916c-2.113-1.646-3.316-3.771-3.611-6.375c-0.344-2.652,0.295-5.011,1.916-7.074
	c13.659-17.614,31.162-28.127,52.508-31.542c18.792-2.997,37.131-0.271,55.015,8.18c9.63,4.569,18.301,10.612,26.015,18.129
	c8.18,7.959,14.519,16.889,19.014,26.789c-5.675,3.316-9.74,7.886-12.197,13.708c-1.13,0.442-1.989,0.761-2.579,0.958
	C186.436,181.084,181.216,172.449,173.797,164.711z M230.396,191.831c5.158-3.709,10.87-5.563,17.134-5.563
	c8.205,0,15.219,2.897,21.04,8.695c5.773,5.798,8.659,12.786,8.659,20.967c0,1.892-0.208,3.832-0.626,5.821
	c4.274,0.737,7.85,2.887,10.723,6.449c2.85,3.587,4.274,7.775,4.274,12.565c0,5.306-1.744,9.826-5.232,13.56
	c-3.488,3.783-7.676,5.675-12.564,5.675h-93.815c-4.938,0-9.139-1.892-12.603-5.675c-3.487-3.733-5.231-8.254-5.231-13.56
	c0-5.159,1.67-9.618,5.011-13.376c3.292-3.66,7.309-5.601,12.05-5.822c0.736-5.257,3.082-9.654,7.037-13.191
	c3.979-3.537,8.66-5.307,14.04-5.307c1.424,0,2.764,0.136,4.017,0.405c-0.147-1.302-0.222-2.088-0.222-2.358
	c0-4.077,1.449-7.578,4.348-10.501c2.924-2.898,6.424-4.348,10.502-4.348c2.26,0,4.409,0.503,6.448,1.51
	C227.3,188.76,228.971,190.111,230.396,191.831z M139.086,89.098c-13.314-2.407-26.297-2.776-38.949-1.105
	c-30.043,3.956-54.842,18.523-74.396,43.703c-1.622,2.088-3.746,3.303-6.375,3.647c-2.604,0.344-4.962-0.307-7.075-1.953
	c-2.063-1.622-3.254-3.746-3.574-6.375c-0.344-2.628,0.283-4.999,1.879-7.111c21.765-28.004,49.646-44.697,83.645-50.077
	c14.887-2.383,30.105-2.358,45.655,0.073c14.739,2.334,28.791,6.683,42.154,13.044c18.62,8.795,34.785,20.819,48.492,36.075
	c14.813,16.507,24.97,34.895,30.473,55.161c-4.839-1.522-9.334-2.284-13.486-2.284c-1.915,0-4.2,0.221-6.854,0.663
	c-5.503-16.336-14.677-31.087-27.525-44.255c-11.398-11.668-24.517-21.028-39.354-28.078
	C162.767,95.019,151.197,91.309,139.086,89.098z M99.179,96.321c12.136-1.941,24.504-1.904,37.106,0.11
	c12.012,1.892,23.459,5.404,34.342,10.539c14.051,6.682,26.432,15.66,37.143,26.937c11.497,12.11,19.824,25.671,24.983,40.68
	c-0.467,0.123-0.811,0.209-1.032,0.258c-4.054-1.965-8.315-2.947-12.786-2.947c-2.138,0-4.557,0.332-7.259,0.994
	c-4.938-10.857-12.05-20.671-21.335-29.441c-8.304-7.86-17.602-14.248-27.895-19.161c-18.964-8.99-38.248-12.196-57.851-9.617
	c-23.534,3.096-42.965,14.506-58.294,34.232c-1.621,2.113-3.746,3.329-6.375,3.648c-2.628,0.345-4.999-0.307-7.112-1.953
	c-2.063-1.621-3.267-3.733-3.611-6.337c-0.319-2.653,0.32-5.011,1.917-7.075C48.833,114.339,71.519,100.718,99.179,96.321z"/>
</svg>
