<?xml version="1.0" encoding="utf-8"?>
<!-- Generator: Adobe Illustrator 16.0.0, SVG Export Plug-In . SVG Version: 6.00 Build 0)  -->
<!DOCTYPE svg PUBLIC "-//W3C//DTD SVG 1.1//EN" "http://www.w3.org/Graphics/SVG/1.1/DTD/svg11.dtd">
<svg version="1.1" id="Layer_1" xmlns="http://www.w3.org/2000/svg" xmlns:xlink="http://www.w3.org/1999/xlink" x="0px" y="0px"
	 width="300px" height="300px" viewBox="0 0 300 300" enable-background="new 0 0 300 300" xml:space="preserve">
<path fill-rule="evenodd" clip-rule="evenodd" fill="#010101" d="M140.181,153.017c5.06-7.807,11.602-13.921,19.626-18.345
	c8.443-4.64,17.516-6.96,27.216-6.96c15.614,0,28.908,5.487,39.881,16.46c10.974,11.174,16.46,24.569,16.46,40.182
	c0,2.111-0.737,3.904-2.211,5.379c-1.692,1.691-3.594,2.537-5.704,2.537c-2.111,0-3.904-0.846-5.378-2.537
	c-1.692-1.475-2.538-3.268-2.538-5.379c0-11.174-3.903-20.773-11.711-28.799c-8.008-8.024-17.607-12.037-28.799-12.037
	c-14.14,0-25.214,5.914-33.222,17.742C149.998,157.457,145.458,154.709,140.181,153.017z M268.996,184.354
	c0,2.111-0.737,3.904-2.212,5.379c-1.691,1.691-3.593,2.537-5.704,2.537c-2.095,0-3.987-0.846-5.679-2.537
	c-1.475-1.475-2.212-3.268-2.212-5.379c0-18.361-6.441-33.975-19.325-46.842c-13.084-13.084-28.698-19.626-46.842-19.626
	c-12.028,0-23.212,3.057-33.548,9.172c-10.119,5.914-18.027,13.938-23.723,24.075c-6.132-0.854-12.783,0.828-19.953,5.051
	c5.914-16.033,15.832-29.008,29.754-38.926c14.139-10.136,29.963-15.204,47.47-15.204c22.583,0,41.892,8.025,57.924,24.074
	C260.979,142.362,268.996,161.771,268.996,184.354z M90.173,148.594l-3.795-0.628c7.59-20.891,20.464-37.879,38.625-50.963
	c18.562-13.302,39.236-19.953,62.02-19.953c29.553,0,54.767,10.445,75.641,31.336C283.555,129.496,294,154.818,294,184.354
	c0,2.111-0.737,3.904-2.212,5.379c-1.691,1.691-3.593,2.537-5.704,2.537c-2.094,0-3.987-0.846-5.679-2.537
	c-1.475-1.475-2.212-3.268-2.212-5.379c0-25.113-8.862-46.632-26.587-64.558c-17.942-17.943-39.471-26.914-64.584-26.914
	c-19.417,0-36.933,5.596-52.546,16.787c-15.396,10.974-26.361,25.323-32.895,43.047C98.197,151.023,94.394,149.65,90.173,148.594z
	 M6.314,213.479c1.474-6.115,4.951-11.183,10.429-15.203c5.06-3.786,10.546-5.68,16.46-5.68l2.84,0.302v-0.302
	c2.111-9.499,7.179-17.306,15.204-23.421c8.025-6.132,16.887-9.197,26.587-9.197c3.167,0,6.333,0.317,9.5,0.954
	c8.443,1.894,15.823,6.007,22.139,12.339c4.657-6.332,10.99-9.499,18.998-9.499c2.329,0,4.121,0.218,5.378,0.653
	c6.131,1.475,10.99,4.741,14.576,9.801c3.585,5.277,4.85,10.973,3.794,17.088c3.367-1.691,6.952-2.537,10.756-2.537
	c2.328,0,4.121,0.217,5.378,0.652c6.551,1.475,11.509,4.951,14.877,10.429c3.585,5.696,4.641,11.711,3.166,18.044
	c-1.273,5.277-4.012,9.708-8.218,13.294c-4.021,3.384-8.669,5.177-13.946,5.377v0.327c-1.475,6.952-5.061,12.757-10.756,17.415
	c-5.696,4.423-12.029,6.634-18.999,6.634l-6.96-0.955c-6.115-1.474-11.284-4.422-15.505-8.846c-4.222-4.222-6.86-9.289-7.916-15.203
	c-7.371,5.696-15.916,8.544-25.632,8.544c-3.167,0-6.224-0.318-9.172-0.955c-5.495-1.256-10.664-3.577-15.505-6.961
	c-5.277,6.551-12.247,9.826-20.908,9.826c-2.731,0-4.733-0.218-6.006-0.653c-7.388-1.676-13.084-5.579-17.088-11.711
	C5.778,227.502,4.623,220.649,6.314,213.479z"/>
</svg>
