<?xml version="1.0" encoding="utf-8"?>
<!-- Generator: Adobe Illustrator 16.0.0, SVG Export Plug-In . SVG Version: 6.00 Build 0)  -->
<!DOCTYPE svg PUBLIC "-//W3C//DTD SVG 1.1//EN" "http://www.w3.org/Graphics/SVG/1.1/DTD/svg11.dtd">
<svg version="1.1" id="Layer_1" xmlns="http://www.w3.org/2000/svg" xmlns:xlink="http://www.w3.org/1999/xlink" x="0px" y="0px"
	 width="300px" height="300px" viewBox="0 0 300 300" enable-background="new 0 0 300 300" xml:space="preserve">
<path fill-rule="evenodd" clip-rule="evenodd" fill="#010101" d="M178.935,77.867c12.72,0,23.427,2.164,32.12,6.492l21.111-23.088
	v-4.516l-2.031-14.565v-2.484c0-6.359,4.008-11.045,12.024-14.055h4.571c6.36,0,10.029,5.343,11.008,16.031v4.516h1.017
	c15.392,0,23.088,2.353,23.088,7.057c0.678,0,1.524,2.672,2.54,8.017c0,11.365-4.365,17.556-13.096,18.572l-12.532-1.976
	c-1.655,0-7.847,6.341-18.572,19.023c10.048,10.048,15.072,19.099,15.072,27.152v8.524l5.532-1.524
	c3.989,4.705,5.983,13.905,5.983,27.604c0,4.365-3.011,7.207-9.032,8.524c-3.688,3.688-5.532,7.714-5.532,12.08l0.509,10.048
	c0,8.354-6.021,13.529-18.064,15.523v1.525c1.017,0,6.699,4.685,17.049,14.056c3.35,3.35,6.039,5.023,8.071,5.023l13.04-1.523
	c7.716,2.032,11.572,8.072,11.572,18.12c0,10.011-5.87,15.016-17.612,15.016l-9.032,1.017v6.04
	c-1.655,9.71-5.833,14.564-12.531,14.564h-1.524c-9.032-3.012-13.548-7.866-13.548-14.564v-3.5l2.031-14.057v-2.031
	c0-2.673-5.531-9.371-16.595-20.097c-1.017,14.075-11.724,33.494-32.121,58.257c-3.35,3.688-10.706,5.532-22.071,5.532l-6.041-1.017
	l-9.541,0.509c-11.704,0-23.257-10.707-34.66-32.121c-3.312-3.688-8.994-12.89-17.048-27.604h-0.508
	c-8.692,8.694-13.04,15.036-13.04,19.024l2.993,15.072c-1.995,11.063-7,16.597-15.016,16.597c-8.731,0-13.097-6.868-13.097-20.604
	c-15.73,0-23.596-2.333-23.596-7c-1.317-2.032-1.976-4.554-1.976-7.564v-2.483c0-7.716,2.841-13.247,8.524-16.597l4.008-0.508
	l12.081,1.523c2.333,0,11.535-8.373,27.604-25.12c-8.054-0.301-16.935-5.137-26.645-14.508c-3.989-4.026-5.983-7.884-5.983-11.572
	v-1.523c0-3.989,3.331-7.339,9.991-10.049v-2.483c0-1.355-4.346-3.537-13.04-6.548v-0.509c0-9.032,3.858-15.373,11.572-19.023
	c1.995,0,3.501-4.196,4.516-12.588c1.995-6.36,6.681-13.378,14.057-21.056c-12.382-14.415-19.25-21.621-20.604-21.621
	c-7.038,0-11.554,0.338-13.548,1.017c-8.355,0-12.532-6.529-12.532-19.589c0-7.339,3.518-11.854,10.556-13.548l15.016-0.508v-0.959
	c0-13.059,4.196-19.588,12.589-19.588h1.467c7.376,0,12.062,5.343,14.057,16.031l-2.993,17.613
	c0.339,2.671,7.527,10.519,21.565,23.54c9.709-4.328,21.263-6.492,34.66-6.492c10.726,0.678,18.252,1.675,22.58,2.993
	c2.033-0.979,5.89-1.468,11.572-1.468H178.935z M240.691,62.286v2.992c0,2.673-1.337,6.36-4.009,11.064l-1.524,6.492h-1.523
	c-0.979,0-1.469-0.489-1.469-1.468v-1.523c2.673,0,4.009-2.842,4.009-8.525c2.672-1.995,4.008-5.004,4.008-9.032H240.691z
	 M240.183,61.271h-1.017v-1.976h1.017V61.271z M232.166,68.777l-16.595,17.613c6.359,2.333,11.892,5.174,16.595,8.524l5.985-5.024
	v-0.508c0-1.016,1.673-2.69,5.022-5.023v-1.016l6.041-7h1.016c-1.693,2.673-4.045,5.344-7.057,8.017v0.507
	c0,0.678-1.674,2.353-5.022,5.024v1.017l-4.517,4.516v1.015c1.354-0.677,7.715-7.883,19.08-21.62l-0.509-0.508l-6.491,3.557v-1.525
	c0.979,0,3.312-1.335,7-4.007l20.096,2.484c3.011,0,5.024-3.669,6.041-11.008v-1.525c0-7.376-3.181-11.064-9.541-11.064h-13.548
	l-0.508,4.516c0,1.017,0.338,1.525,1.017,1.525c0-0.678,1.994-1.355,5.983-2.033V54.27l-3.5-1.016v-1.016h1.016
	c3.989,1.016,5.983,2.013,5.983,2.991c-0.301,2.033-2.464,3.048-6.491,3.048v0.508h5.024c2.334-1.017,3.5-2.032,3.5-3.048v-0.508
	c-0.34-1.316-1.675-1.976-4.009-1.976v-1.016h2.484c2.371,1.016,3.557,2.182,3.557,3.5c0,2.372-2.521,4.045-7.564,5.024
	c-6.359-0.979-9.54-2.653-9.54-5.024l1.017-7c0-12.72-2.842-19.08-8.524-19.08c-7.037,1.995-10.557,6.002-10.557,12.023
	l4.008,20.604c0,1.656-1.674,5.833-5.023,12.533v3.048h-0.508v-9.089H232.166z M231.659,74.818
	c-3.35,3.688-5.024,7.038-5.024,10.047l1.468,6.549l-9.991-5.533c0-1.017,4.516-5.533,13.548-13.548V74.818z M257.23,57.263v1.015
	h1.524v-1.015H257.23z M45.88,55.229v1.525c0.34,1.355,1.845,2.032,4.516,2.032h4.065v-0.508c-4.705,0-7.057-0.847-7.057-2.54
	v-0.508c0-0.978,0.677-1.468,2.032-1.468v-0.508h-0.508C46.897,53.932,45.88,54.59,45.88,55.229z M47.914,52.238l5.023,1.016
	c0,0.678-0.677,1.016-2.032,1.016v0.959c2.372,0,4.554,0.678,6.548,2.033l1.016-2.993c-0.338-2.032-1.016-3.048-2.032-3.048h-7
	c-9.709,0-14.565,2.352-14.565,7.056l-1.015,4.008c0,7.038,2.671,11.215,8.016,12.533h0.508l17.556-2.484
	c3.011,0.677,5.363,2.352,7.056,5.024h-0.508c-0.338-0.338-2.182-1.355-5.531-3.048v0.508c4.705,6.359,10.726,13.567,18.064,21.62
	v-1.015l-0.96-2.032v-0.508c-1.354-0.641-5.042-4.479-11.064-11.516v-0.508c-0.677,0-2.013-1.505-4.008-4.516h0.508
	c0.64,0,1.806,1.167,3.5,3.501v1.015c1.017,0,4.705,3.688,11.064,11.064v0.96c1.318,0,1.976,0.847,1.976,2.541
	c9.71-6.021,15.901-9.032,18.572-9.032c0-0.678-6.021-6.548-18.064-17.613v9.089h-0.508c0-2.71-1.674-7.396-5.023-14.056v-1.525
	l3.5-20.096v-2.484c0-5.043-3.5-8.392-10.5-10.047c-5.72,0-8.581,6.849-8.581,20.548l0.508,5.532v1.017
	c0,1.693-2.841,3.028-8.524,4.008c-5.005,0-7.508-1.844-7.508-5.533C44.884,53.235,46.22,52.238,47.914,52.238z M43.397,60.762
	v-1.468c1.656,1.995,3.989,2.991,6.999,2.991h2.541c5.684,0,8.525-2.671,8.525-8.016h1.015v6.492
	c-2.032,3.011-4.384,4.516-7.056,4.516h-5.983C47.067,65.278,45.054,63.773,43.397,60.762z M62.477,47.214v6.04l-1.523-1.016
	c0-13.737,2.521-20.604,7.564-20.604c3.989,0,6.83,2.69,8.524,8.072c-3.011-3.35-6.021-5.023-9.032-5.023
	C64.322,35.999,62.477,40.176,62.477,47.214z M81.558,79.843l0.508-7.508c0.64,0,5.156,4.686,13.548,14.056l-9.541,3.5l1.016-1.524
	v-1.467c0-5.721-1.354-9.409-4.064-11.065c0,4.667-0.49,7-1.468,7h-1.017c-1.015,0-1.693-1.167-2.032-3.5l1.524,0.508H81.558z
	 M125.193,82.834c-11.704,0-26.757,6.868-45.16,20.604c-10.048,11.064-15.072,20.774-15.072,29.128
	c1.016,2.334,9.559,7.019,25.628,14.056l9.032,5.533h-0.508l-34.661-16.088h-0.959c-4.705,0-8.393,4.026-11.064,12.081
	c0,1.316,3.518,3.143,10.556,5.476c1.656,2.71,2.484,5.72,2.484,9.031c0,3.012-3.011,6.699-9.032,11.064l-0.508,1.017
	c4.366,8.354,11.742,14.545,22.128,18.572c0,1.016,1.656,1.523,4.968,1.523c10.726-2.71,17.086-4.063,19.081-4.063h0.507
	c4.366,0,8.224,2.352,11.572,7.056c0-1.693,1.336-2.859,4.009-3.5v-1.016l5.531-2.033h1.017v0.509l-6.041,2.54h-0.507
	c-3.688,3.688-5.533,6.699-5.533,9.032v1.976l1.524-0.509h3.5v3.557l1.015-1.016h4.009l-1.017,1.524v2.484l6.548-2.484v5.024
	l4.008-1.525h2.484v1.017l-0.959,1.976l1.467-0.508h2.032l3.5,2.54c0.338-1.354,1.843-2.032,4.516-2.032
	c1.693,2.333,2.54,3.839,2.54,4.517h0.959l2.54-2.484h2.484c1.015,0,2.689,0.828,5.023,2.484c0.678-3.011,2.014-4.517,4.008-4.517
	c2.032,0.678,3.049,1.355,3.049,2.032v1.017c1.994-2.371,3.669-3.557,5.023-3.557h1.976v-1.468c2.673,0,4.686,0.658,6.041,1.976
	v-0.508l-0.509-4.516v-0.509h0.509c1.016,0,3.519,0.847,7.507,2.54l-1.467-4.008l4.007,0.509v0.959h1.525l-1.525-3.499h1.525
	c1.994,0,4.159,0.847,6.491,2.54v-5.532c0-3.012-2.164-6.021-6.491-9.032h0.959c1.017,0,3.368,1.845,7.057,5.532
	c0.338-3.35,2.353-5.024,6.041-5.024c8.015,2.333,17.705,4.008,29.071,5.024c9.371-4.027,14.056-7.884,14.056-11.572l-1.976-16.088
	c0-5.683,3.839-10.03,11.516-13.04c2.673,0,4.516-1.336,5.532-4.009c-1.017-12.382-3.519-18.571-7.508-18.571h-1.016
	c-5.344,2.671-16.221,7.019-32.629,13.04h-0.508v-1.017c11.026-3.989,20.905-8.673,29.636-14.056v-2.991
	c0-17.387-7.376-28.94-22.128-34.661c-13.359-9.032-28.582-13.548-45.668-13.548c-6.699,0-15.072,1.016-25.12,3.048v1.976
	l0.847,1.412c-1.899-0.948-3.348-1.908-4.347-2.879v2.991c-10.048-1.995-17.576-2.991-22.58-2.991h-7
	c-10.726,0-24.952,6.51-42.676,19.532c-10.048,10.725-15.073,19.099-15.073,25.12h-0.508v-0.508c0-8.355,5.684-18.064,17.049-29.128
	c17.424-12.382,32.496-18.572,45.216-18.572c5.683,0.338,14.206,1.523,25.572,3.557c-1.656-1.693-4.667-2.541-9.032-2.541
	c-5.006-1.016-10.52-1.524-16.541-1.524H125.193z M106.17,94.915c-11.402,11.365-17.612,20.059-18.628,26.08
	c-5.006,8.054-9.352,12.081-13.04,12.081h-1.467c-1.017,0-1.525-0.508-1.525-1.524v-1.976c0.678-2.032,2.183-3.049,4.516-3.049
	c-0.677,0.677-1.016,1.524-1.016,2.541h1.016c4.667,0,9.521-6.868,14.564-20.604h-1.525c-2.333,1.017-6.341,4.026-12.023,9.032
	v-0.508c3.349-6.021,9.709-10.875,19.079-14.563l8.525-7.508H106.17z M92.565,158.646c0,2.032,5.193,3.876,15.58,5.532h2.541
	c0.639,0,0.959-0.508,0.959-1.524c-2.333-1.317-6.341-2.146-12.023-2.483c-1.017-2.333-2.86-3.5-5.533-3.5h-0.508l-1.016,1.468
	V158.646z M94.089,139.566c30.107,17.086,46.835,25.629,50.185,25.629h1.017l2.032-1.524h0.508c0,1.016-1.187,2.183-3.557,3.5
	h-0.508c-3.311,0-19.87-9.032-49.676-27.096V139.566z M66.485,150.123v1.016c12.382,17.726,27.116,29.43,44.201,35.112l3.5,0.508
	h1.976c2.71,0,11.422-4.177,26.137-12.532h1.017v-0.508h-2.54l-22.58,10.557h-5.024c-8.017,0-20.229-7.865-36.636-23.597
	l-9.541-10.556H66.485z M83.025,174.735c-6.662-5.683-15.016-15.053-25.064-28.113v-0.508h1.976c0,1.355,3.688,6.21,11.064,14.564
	c7.715,8.693,11.893,13.379,12.533,14.057H83.025z M104.646,188.283c-2.672,0-9.878,1.675-21.621,5.024
	c-6.359,0-14.715-5.853-25.064-17.557l-0.508-1.524l1.016-0.508c11.027,10.387,19.212,15.58,24.556,15.58l16.597-3.5
	c2.333,1.318,4.007,1.977,5.024,1.977V188.283z M103.629,158.139c21.075,9.069,33.457,13.604,37.145,13.604h1.523
	c7.677-1.693,11.517-4.873,11.517-9.541c-1.318-3.349-3.821-7.376-7.509-12.079h1.017c5.683,5.043,8.523,9.728,8.523,14.056
	c0,4.366-6.359,9.39-19.08,15.072c-13.397,8.016-21.263,12.023-23.596,12.023l1.524-1.976c-12.382,0-27.773-10.706-46.176-32.119
	l-7.056-10.049c1.994,0,3.838-0.677,5.531-2.032C78.02,148.11,90.232,152.456,103.629,158.139z M152.854,149.615
	c0.979,0,2.484,2.352,4.517,7.056h0.452c0.338-2.371,1.016-3.557,2.031-3.557v-0.959l1.017-2.032h1.524
	c-1.016,1.994-1.862,2.991-2.541,2.991v0.509c-1.354,3.349-2.031,5.701-2.031,7.056v5.024l-1.468-0.508l1.016-3.5v-1.524
	c0-1.995-1.505-5.005-4.517-9.032V149.615z M143.766,152.155c5.721,4.666,8.581,8.674,8.581,12.023l-1.017,2.992h-0.508
	c0-4.666-2.352-8.844-7.056-12.532l-0.451-2.483H143.766z M126.718,189.807v1.977c-1.016,0-1.675-0.658-1.976-1.977H126.718z
	 M152.347,174.735c3.35-2.334,5.023-5.006,5.023-8.017h0.452c0,6.36,6.867,13.548,20.604,21.564c3.688,3.011,5.871,5.344,6.549,7
	v2.54h-1.016c0-2.672-5.683-7.696-17.049-15.072l-9.54-10.048c-6.698,5.382-15.919,11.911-27.661,19.588l-4.516,4.008v-1.016
	C125.871,193.288,134.922,186.438,152.347,174.735z M33.857,241.516c0,7.678,4.008,11.516,12.023,11.516h10.557
	c1.016,0,1.693-1.505,2.032-4.516l-0.508-1.977l-7.056,1.468l3.049,3.049H52.43c-3.35-1.016-5.024-2.032-5.024-3.049v-1.468
	c2.671-0.338,4.008-1.015,4.008-2.031h-0.508c-3.35,1.017-5.024,1.843-5.024,2.483v1.524c0,1.354,1.506,2.201,4.516,2.54v0.508
	h-2.483c-1.693,0-3.03-1.017-4.009-3.048c0-3.688,2.503-5.532,7.508-5.532c5.683,0,8.524,2.183,8.524,6.549l-0.508,3.499
	c0,13.736,2.861,20.604,8.581,20.604h1.467c6.021-1.355,9.032-4.535,9.032-9.54v-2.541l-3.5-21.563
	c3.35-6.699,5.023-11.384,5.023-14.056h0.508v9.031c3.011-2.671,6.869-7.019,11.573-13.039l-1.524-1.017v1.017l0.508,0.508
	l-9.032,8.523c0-4.704-0.678-7.056-2.033-7.056h-1.524c0.677-2.333,1.693-3.5,3.048-3.5c0.978,0.678,1.468,3.199,1.468,7.563
	l4.516-9.088c-2.333-3.989-3.5-6.492-3.5-7.507v-6.041c-1.318,0-9.014,7.546-23.088,22.636v0.961c1.693,0,3.707-0.998,6.04-2.992
	h1.017c-3.011,3.35-5.701,5.023-8.073,5.023h-0.508l-17.047-2.031h-2.993C35.701,231.938,33.857,236.134,33.857,241.516z
	 M52.937,245.016v1.016h1.525v-1.016H52.937z M143.314,201.831c-5.381,0-9.916-1.166-13.605-3.5h-0.959v1.017
	c2.672,2.672,7.019,4.008,13.04,4.008h2.484c1.017,0,3.876-3.858,8.58-11.572l2.992-0.509c1.318,0,1.977,1.017,1.977,3.049h1.016
	v-1.016c0-0.34-1.166-1.675-3.5-4.009c-1.656,0-4.666,3.669-9.032,11.008L143.314,201.831z M131.234,215.379
	c-1.656,1.694-2.484,3.537-2.484,5.532h-0.508v-2.483h-1.016v1.468c1.016,7.376,2.352,11.063,4.008,11.063h0.508v-12.531
	l0.507-5.024c-2.671,0.64-4.008,1.807-4.008,3.5v0.508h0.508c0.338-1.693,1.167-2.54,2.484-2.54V215.379z M133.774,218.879h-0.508
	v1.524c0,9.032,1.675,13.549,5.024,13.549v-16.541c0-1.017-0.508-1.523-1.524-1.523h-1.524l-1.467,1.523v1.017h0.959v-1.524h1.525
	c0.677,0,1.016,0.508,1.016,1.524c-1.694,0-2.541,1.167-2.541,3.5h-0.959V218.879z M140.774,222.944v-2.541
	c1.015-1.995,1.862-2.992,2.54-2.992h0.451c1.017,0.677,1.525,1.167,1.525,1.468v0.508l-1.525-0.508h-1.468l-0.508,4.065H140.774z
	 M140.266,221.928v10.556c0,3.312,2.013,4.968,6.04,4.968v-16.54c0-2.672-1.335-4.008-4.008-4.008
	C140.943,218.221,140.266,219.896,140.266,221.928z M150.822,215.888l2.993-1.976l3.556,1.467v2.032l-3.556-2.032l-1.468,0.509
	H150.822z M147.322,213.912l1.976,2.991v0.508h-1.467c0-1.693-1.506-2.54-4.516-2.54v-0.959H147.322z M152.347,219.387h1.976
	l1.523,1.524v1.017l-1.523-1.017h-1.976l-2.033,1.524v-0.508c0-1.017,0.678-1.693,2.033-2.032V219.387z M131.234,211.879h-1.525
	c0-2.333-0.488-3.5-1.467-3.5h-2.54v-1.016h5.532V211.879z M142.298,204.822c-6.021,0-11.045-1.655-15.072-4.967v-2.032
	c5.004-5.005,14.545-11.874,28.62-20.604c0-0.979,0.509-1.469,1.524-1.469h0.452c2.71,4.667,10.086,10.857,22.128,18.572
	c1.995,1.994,2.992,3.839,2.992,5.532c-1.017,3.011-6.529,4.666-16.541,4.967c-4.703,0-8.053-3.838-10.047-11.515l-1.017-0.509
	h-1.016c-0.678,0-2.841,3.181-6.492,9.541C145.459,203.996,143.616,204.822,142.298,204.822z M120.226,206.348l-1.525,0.508
	c0-2.334-0.338-3.5-1.015-3.5h-1.525v-1.016h4.065v2.991h4.967l-0.451,3.557h-1.525v-0.509l0.508-2.031H120.226z M119.718,208.379
	c-2.71,0.979-4.064,2.653-4.064,5.024v5.983h0.507c0-6.359,0.678-9.54,2.033-9.54h0.507l-2.032,3.557l-0.508,10.5
	c1.017,0,1.525,0.677,1.525,2.032h1.015v-9.032l1.525-8.524H119.718z M118.701,196.299c-2.671,3.35-4.007,5.871-4.007,7.564h-0.508
	v-2.032c0.979-3.011,2.315-4.854,4.009-5.532H118.701z M114.694,206.348c-2.672,0.338-4.008,2.182-4.008,5.531v2.484h0.452
	c0-4.666,0.677-7,2.032-7h1.016v1.016c-2.032,2.673-3.048,6.173-3.048,10.5c0.339,3.35,1.354,5.024,3.048,5.024h0.508v-12.531
	l0.96-5.024H114.694z M112.662,215.888v4.516h-1.017v-4.516H112.662z M125.193,213.403c-2.333,0-3.5,2.842-3.5,8.524v1.017h-0.508
	v-7.565c0-1.655,1.336-2.992,4.008-4.007V213.403z M120.226,218.879c0,4.027,2.165,10.726,6.492,20.096h0.508v-2.482l-2.033-15.581
	l1.524-10.556c-4.327,0-6.492,2.183-6.492,6.548V218.879z M129.709,225.936h-0.959v-1.524h0.959V225.936z M118.701,245.016
	c-9.032-11.366-13.548-24.763-13.548-40.193c-1.354,1.017-2.69,1.525-4.008,1.525h-3.048c0,5.344,3.181,15.881,9.54,31.612h0.508
	v1.523h-0.508v-1.523c-4.666-5.683-8.185-15.543-10.556-29.581v-2.031l0.508-1.017l-1.976-0.509v1.525
	c0,14.075,7.526,30.803,22.58,50.185c10.047,17.423,18.571,26.136,25.571,26.136h8.581c1.656,0,2.652-3.012,2.991-9.032h0.508
	c0,6.36,1.337,9.54,4.008,9.54l6.041,1.017c11.365,0,21.074-8.205,29.128-24.613c12.683-19.758,19.023-36.165,19.023-49.224
	l-1.468,1.017h-1.523c-1.317,0-3.162-0.828-5.532-2.484c0,11.365-3.5,22.729-10.5,34.096v0.508l1.976-1.468h0.509v0.96
	c-1.656,1.694-3.989,5.551-7,11.572h-2.032l0.507,1.977v4.063h-0.507l-1.017-5.532c-1.994,1.995-3.839,2.992-5.532,2.992h-0.507
	v-2.992h-0.961l-0.508,2.992c0.979,0,1.469,0.17,1.469,0.508v5.024h-0.961c0-3.35-0.508-5.024-1.523-5.024
	c0,1.995-1.336,2.991-4.008,2.991h-0.509l-1.524-0.959l-1.016,1.468h1.524l-0.509,5.024h-1.016v-4.517l-4.008,1.524l-1.469-0.508
	v4.008h-0.507v-4.008c-1.354,1.016-2.859,1.523-4.516,1.523h-1.525l-1.523-1.016l-0.508,4.516h-0.452v-3.5h-3.556l-3.501-1.016
	v4.516h-1.016v-4.516h1.016v-0.508c-1.016,0-1.523,0.508-1.523,1.523l-3.5-1.016v-0.508h-1.017l-1.468-1.017v5.024h-0.508
	l-0.508-5.532l-2.54,0.508c-1.656-0.677-2.484-1.336-2.484-1.976h0.508l-0.508-1.017v-1.016h-0.507v-1.524h0.507v1.524
	c1.656,0.678,2.484,1.355,2.484,2.032h-1.467v0.959h2.484v-10.499l0.508-1.523l-1.525,0.508h-0.451l0.451-1.524h-0.451l-1.524,1.017
	l-2.541-1.017l-0.959,1.524l0.959,6.492h0.508v-1.977h0.508v1.977l-0.508,1.523l0.508,2.032l-1.976-1.524l-0.508,5.024h-1.017
	v-1.524l1.017-3.5l-2.541,1.016c-1.656-1.016-2.822-2.032-3.5-3.047l-1.524,0.507c-3.651-0.979-5.476-2.973-5.476-5.983h-0.508
	v2.483l0.508,2.032c-1.017,0-1.525-0.338-1.525-1.016v-3.5l1.017-1.016l-4.516-6.549v-0.508l3.499,3.048V245.016z M120.226,243.491
	v-1.016h-0.508l1.468,8.58h0.508v-1.016l-0.508-3.501v-3.048H120.226z M121.694,243.491c0,5.043,1.167,8.73,3.5,11.064v0.508
	c-1.655-1.016-2.483-2.183-2.483-3.5h-1.017v1.468c1.355,1.355,2.521,2.202,3.5,2.54h1.016l-1.467-13.096l-1.017,0.508l-1.015-0.508
	h-1.525v1.016H121.694z M126.209,248.516c0.339,6.36,1.675,9.54,4.008,9.54h1.017v-0.509l0.508,0.509h0.507v-11.517l-4.008-0.508
	c-0.677,0.641-1.016,1.976-1.016,4.009h-0.508v-4.009h-0.508V248.516z M128.242,251.056v2.483h0.508l2.484,3.5
	c-1.995,0-2.992-0.827-2.992-2.483v-1.017h-1.016v-2.483H128.242z M152.854,238.975c3.313-1.015,4.969-1.843,4.969-2.482v-0.509
	c0-11.403-0.828-17.104-2.484-17.104h-1.523c-3.35,0-5.024,1.845-5.024,5.532v13.04L152.854,238.975z M150.313,251.563v12.024h1.017
	l-0.508-1.524h5.533v-10.5l-1.017,0.452h-4.008L150.313,251.563z M142.806,255.571l-0.508,4.008l2.993,4.009h1.015v-1.017
	c-1.693,0-2.54-0.658-2.54-1.976v-0.508c2.372,0.979,3.557,2.146,3.557,3.5h0.508v-12.024l-5.533,1.468v-1.468h-0.508v4.969h0.508
	v-1.977h0.508V255.571z M152.347,279.168v1.468c0,1.017-0.509,1.523-1.525,1.523c-11.704,0-19.569-4.854-23.596-14.563
	c5.683,7.715,12.55,11.572,20.604,11.572H152.347z M146.306,273.636v-1.016l9.54-1.017c5.345,0,8.016,0.847,8.016,2.54l-9.539-1.523
	l-7,1.016H146.306z M247.183,131.551c0,1.016-0.489,1.524-1.468,1.524h-1.524c-5.005,0-11.365-8.035-19.08-24.104
	c-5.683-7.376-9.69-12.062-12.023-14.056h0.959c8.731,7.677,13.924,11.516,15.58,11.516c3.011,0,7.038,3.518,12.081,10.556h-1.016
	c-5.683-5.683-9.879-8.524-12.589-8.524c5.043,13.737,10.067,20.604,15.071,20.604h0.509v-1.524l-0.509-1.525h0.509
	c2.334,0.339,3.5,2.013,3.5,5.024V131.551z M247.69,123.027c0-5.005-3.838-11.027-11.516-18.064
	c-18.742-11.403-35.318-17.105-49.733-17.105h-3.499c-8.355,0-15.713,0.677-22.072,2.032l-1.524-2.991
	c9.371-1.355,16.239-2.033,20.604-2.033h7c17.086,0,35.337,7.188,54.757,21.565c4.327,6.359,6.661,11.722,7,16.088v0.508H247.69z
	 M258.755,146.623c-6.698,11.366-17.575,22.9-32.628,34.604h-1.017c17.726-15.053,28.263-27.096,31.612-36.128h0.508
	C258.247,145.099,258.755,145.607,258.755,146.623z M246.73,150.123c-7.714,11.703-17.254,20.905-28.619,27.604
	c-7.716,4.366-13.078,6.549-16.089,6.549h-4.516c-1.656,0-8.845-3.52-21.564-10.557l-4.517-1.016h-0.508v1.016
	c15.393,8.693,24.763,13.04,28.112,13.04c15.054,0,31.612-12.212,49.677-36.636H246.73z M251.699,147.131l2.032-1.017v0.508
	c-11.705,19.757-27.435,33.475-47.192,41.153c-4.027,1.017-6.041,2.013-6.041,2.992c1.017,0,1.693,0.677,2.032,2.031v0.509
	c-6.021-4.027-19.399-11.554-40.136-22.58c-2.032-2.033-3.049-4.724-3.049-8.073c0-3.312,2.842-7.488,8.524-12.531h0.508
	c-4.666,5.683-6.999,10.198-6.999,13.548c0.677,1.354,1.335,2.521,1.976,3.5l-0.509-3.5c1.355-4.328,4.216-8.166,8.58-11.516v1.468
	c-4.703,5.381-7.056,9.897-7.056,13.548h-0.509c2.033,3.048,4.555,4.572,7.564,4.572h4.517l67.74-25.629l5.024-1.016
	c0,1.016,0.677,1.694,2.031,2.032H251.699z M246.73,189.299c-5.043,5.683-9.069,8.524-12.08,8.524
	c-7.677,0-17.386-1.506-29.128-4.516h-0.959v-1.524l4.516-1.977c6.999,3.012,16.201,4.517,27.604,4.517l10.048-8.072V189.299z
	 M170.918,165.195h0.508c10.012-3.35,26.569-11.893,49.677-25.629h0.508v0.508c-26.456,16.747-43.033,25.779-49.732,27.096h-0.452
	c-1.015,0-2.031-0.997-3.048-2.992v-0.508L170.918,165.195z M188.981,192.799h-1.523v0.509l3.049,3.499h0.959
	c2.673,2.032,4.008,4.384,4.008,7.057v2.992c-1.316,0-2.482-2.503-3.499-7.508c-0.979,0-1.468-0.509-1.468-1.524v-1.017h-0.509
	c-0.338,0-2.352-1.843-6.039-5.532l5.022,0.509V192.799z M206.03,164.179c10.388-1.316,15.58-3.161,15.58-5.532v-0.508
	c0-0.979-0.677-1.468-2.032-1.468c-1.994,0-3.669,1.167-5.023,3.5c-7.339,0.678-11.347,1.845-12.024,3.5L206.03,164.179z
	 M225.11,216.903c0,3.688,2.183,7.696,6.549,12.024v2.031h-0.508l-13.04-12.08c0.978,0,3.649-2.503,8.016-7.507l-1.017,2.991
	V216.903z M212.578,211.879c0,6.699-3.349,17.067-10.048,31.104h-0.508v1.524h-1.017v-1.524h1.017v-1.468
	c5.683-11.403,8.524-21.281,8.524-29.637H212.578z M238.151,239.483l0.507,2.032l-4.008,20.548
	c1.693,7.714,4.704,11.572,9.032,11.572h3.5c3.688-1.693,5.532-5.043,5.532-10.048c0.678-6.021,1.185-9.032,1.524-9.032l-1.524-6.04
	c0-3.688,3.688-5.532,11.063-5.532c4.027,0.678,6.041,2.86,6.041,6.549c-1.355,1.354-3.368,2.031-6.041,2.031
	c0-1.017,1.337-1.693,4.009-2.031v-1.525c-0.34-1.316-2.013-2.482-5.024-3.499l-4.008,0.508v1.016l6.999,1.469v0.507
	c0,1.355-2.333,2.54-6.999,3.557c0-1.017,1.167-1.693,3.5-2.031v-1.017c-2.333,0-4.497-0.658-6.492-1.977l-0.508,1.468v0.509
	c0,3.011,0.658,4.516,1.976,4.516h2.54c12.382,0,18.572-1.844,18.572-5.531l1.017-4.517v-2.992
	c-1.017-7.376-3.538-11.063-7.564-11.063h-0.508l-17.048,2.031h-2.54c-3.313-1.994-4.969-3.33-4.969-4.007h0.452
	c2.032,1.317,3.707,1.976,5.023,1.976h0.509c-6.359-7.339-15.054-15.204-26.08-23.597c0,4.704-3.35,9.221-10.049,13.548
	c10.388,10.726,15.9,16.088,16.541,16.088v-9.031h0.508C233.635,228.607,235.14,233.124,238.151,239.483z M191.975,208.379
	l0.508,4.008v13.04h1.016c1.995,0,3.162-4.008,3.5-12.023c-0.338-4.027-2.013-6.04-5.023-6.04V208.379z M193.498,208.888
	c1.017,0,2.015,2.164,2.992,6.491h-1.468c0-1.994-0.847-4.158-2.54-6.491H193.498z M188.475,204.822h-1.524l0.508,1.525v1.016
	h-4.008v-0.508h-1.524l1.017,1.523v1.468c-1.995-0.338-2.992-1.505-2.992-3.499h3.5v0.508h2.032l-0.508-1.524v-1.468h3.5V204.822z
	 M181.419,198.331c-3.012,1.995-6.511,2.992-10.501,2.992h-6.04c-3.35,0-5.024-1.505-5.024-4.517h-0.508v1.017
	c1.017,3.688,3.199,5.532,6.549,5.532h0.507c10.012-0.339,15.018-1.506,15.018-3.5V198.331z M179.95,208.888h-2.032l-1.468-0.509
	v0.509l0.452,3.499h-5.984c0,1.017-2.014,2.184-6.04,3.501l-0.508-1.524l4.008-1.977v-1.015h4.516l1.524,0.507v-2.991l-1.016-1.524
	h3.048l3.5,1.016V208.888z M181.926,212.387c2.371,1.017,3.557,2.521,3.557,4.517v7.508h-0.508v-8.523l-3.556-1.976v-1.525H181.926z
	 M180.458,211.879l0.961,10.557l-2.484,17.556c5.344-6.359,8.016-13.059,8.016-20.096c0-5.344-1.844-8.017-5.531-8.017H180.458z
	 M177.918,222.436c0-2.371-0.658-4.554-1.976-6.548v-0.509c1.656,1.016,2.483,2.353,2.483,4.008v3.049H177.918z M178.935,219.896
	c0-3.011-0.828-4.686-2.484-5.024h-1.523l1.016,4.516v2.541l-1.016,10.556h1.016c1.994,0,2.992-3.35,2.992-10.048V219.896z
	 M195.474,215.888v6.04h-0.451v-6.04H195.474z M191.975,215.379c0-1.655-0.997-3.5-2.993-5.532h-2.031l1.524,11.064l-1.017,2.992
	h1.017l-1.017,1.523v2.033h1.523c1.318,0,2.315-3.857,2.993-11.572V215.379z M188.475,211.372c1.016,0,2.014,1.843,2.991,5.531
	v1.976h-0.959c0-3.311-0.678-5.646-2.032-7V211.372z M162.846,213.912v0.959c-2.672,0-4.008,0.847-4.008,2.54h-1.016v-2.032
	l2.031-1.467H162.846z M164.878,220.911h1.017v2.033h-1.017V220.911z M162.395,216.903l-2.541,2.992v17.556h1.017
	c3.688,0,5.531-0.828,5.531-2.484v-13.039l-0.507-3.5l-2.033-0.508L162.395,216.903z M168.378,220.403v13.549h2.54
	c1.656,0,2.484-3.35,2.484-10.049v-3.5l-0.509-3.5h-3.499L168.378,220.403z M171.878,217.411l1.016,2.992v2.032h-1.016
	c0-2.371-0.828-3.557-2.483-3.557c0-0.978,0.508-1.468,1.523-1.468H171.878z M159.854,251.056v0.508h1.525v0.452h-2.033
	l-0.508-0.452v12.024h1.016l-0.508-1.524l5.532-0.509v-9.539h-2.032v-0.452h1.524v-0.508H159.854z M169.395,251.056h2.483v0.508
	h-4.008l-0.96-0.508v11.516h0.96l3.048-4.008h0.508v1.524h0.452v-0.509l-0.452-2.54v-0.507h0.452v1.523h1.016v-1.017l-1.016-4.008
	v-1.016l1.016-0.96l-1.468-1.016h-2.031V251.056z M174.418,248.007v12.081l3.5-2.032v-1.523h0.508v1.523h-0.508l0.508,0.508
	l0.509-0.508l-0.509-3.5v-1.017h0.509v1.524h1.016l-1.016-3.5v-3.048h-2.992L174.418,248.007z M183.959,243.491v1.017h2.991v0.508
	l0.508-0.508l-1.017-1.017H183.959z M186.95,246.991v3.049h0.508v-3.049l-0.508-1.976h-3.5l-2.031-0.508l0.507,12.024h1.017
	c0-0.979,0.847-1.977,2.54-2.993v-0.508l0.959-6.04H186.95z M193.498,239.991c-3.01,0.677-4.517,1.186-4.517,1.524l-1.523,12.023
	h1.523c0.679,0,1.507-0.658,2.484-1.976h-0.959c0,0.979-0.509,1.468-1.525,1.468v-1.016c1.996-2.334,2.993-4.836,2.993-7.508h0.508
	v2.031h1.016v-0.508l-1.016-4.516L193.498,239.991z M186.441,270.136v0.451c-5.343,8.055-12.701,12.081-22.071,12.081h-1.016
	c-3.35,0-5.194-0.678-5.532-2.032v-1.468l3.557,0.509h5.022c7.679,0,14.189-3.182,19.533-9.541H186.441z M236.175,258.563h0.508
	c1.656,7.038,4.667,10.556,9.032,10.556c3.349-1.015,5.023-2.352,5.023-4.008h0.961v1.468c-1.996,3.688-4.497,5.533-7.509,5.533
	c-4.366,0-7.037-3.52-8.016-10.558V258.563z M236.683,256.532h0.508v1.523h-0.508V256.532z"/>
</svg>
