<?xml version="1.0" encoding="utf-8"?>
<!-- Generator: Adobe Illustrator 16.0.0, SVG Export Plug-In . SVG Version: 6.00 Build 0)  -->
<!DOCTYPE svg PUBLIC "-//W3C//DTD SVG 1.1//EN" "http://www.w3.org/Graphics/SVG/1.1/DTD/svg11.dtd">
<svg version="1.1" id="Layer_1" xmlns="http://www.w3.org/2000/svg" xmlns:xlink="http://www.w3.org/1999/xlink" x="0px" y="0px"
	 width="300px" height="300px" viewBox="0 0 300 300" enable-background="new 0 0 300 300" xml:space="preserve">
<path fill="#D71F26" d="M294.214,52.778c0,0.428,0.226,0.64,0.5,0.47c0.274-0.17,0.5-0.52,0.5-0.779s-0.226-0.47-0.5-0.47
	S294.214,52.35,294.214,52.778 M241.592,57.828c-0.52,0.518-0.392,2.165,0.166,2.165c0.275,0,0.5-0.563,0.5-1.249
	C242.258,57.436,242.142,57.277,241.592,57.828 M76.895,84.461c0,0.689,2.456,2.218,2.881,1.793
	c0.193-0.193-0.208-0.781-0.891-1.306C77.498,83.883,76.895,83.735,76.895,84.461 M258.077,87.803
	c-0.607,0.608-0.345,1.666,0.417,1.666c0.416,0,0.749-0.444,0.749-0.999C259.243,87.474,258.711,87.17,258.077,87.803 M5.453,94.155
	c0,2.606,0.072,2.745,2.373,4.59c1.305,1.047,3.525,3.098,4.932,4.557c1.407,1.459,2.792,2.653,3.078,2.653s1.495,1.146,2.687,2.548
	c2.029,2.386,7.178,6.693,8.696,7.275c0.373,0.144,0.802,0.653,0.955,1.133c0.152,0.48,0.891,1.19,1.642,1.578
	c0.751,0.388,1.612,1.02,1.914,1.405c0.337,0.431,0.667,0.508,0.857,0.2c0.169-0.274-0.245-0.796-0.923-1.159
	c-0.677-0.363-1.232-0.846-1.232-1.075s-0.337-0.415-0.749-0.415c-0.413,0-0.704-0.169-0.649-0.375
	c0.056-0.206-1.911-2.365-4.371-4.797c-4.399-4.35-4.419-4.38-1.225-1.871c8.808,6.922,15.305,11.759,20.982,15.624
	c6.565,4.468,16.134,9.991,19.025,10.981c0.939,0.321,1.821,0.744,1.958,0.939c0.6,0.853,18.152,9.974,19.192,9.974
	c0.112,0,1.852,0.756,3.868,1.681c4.774,2.19,12.9,5.866,16.531,7.478c1.581,0.702,2.873,1.542,2.873,1.867
	c0,2.344-25.312-6.891-33.188-12.107c-1.24-0.821-2.484-1.353-2.764-1.18c-0.562,0.348-4.872-1.947-11.758-6.261
	c-6.237-3.906-6.796-4.186-6.423-3.214c0.262,0.684,4.518,3.964,5.174,3.987c0.508,0.018,3.997,2.345,3.998,2.667
	c0.001,0.184,0.958,0.732,2.125,1.218c2.966,1.239,4.437,2.462,3.93,3.272c-0.862,1.377-8.439-1.713-21.344-8.708
	c-4.857-2.632-7.104-2.978-3.44-0.529c3.903,2.61,11.04,6.357,11.406,5.99c0.183-0.183,0.837,0.121,1.454,0.674
	c1.56,1.399,8.158,4.845,11.235,5.866c1.407,0.468,3.528,1.591,4.715,2.496c3.651,2.787,6.387,3.943,9.546,4.037
	c2.348,0.069,3.034,0.29,3.654,1.177c1.12,1.597,3.841,2.791,9.191,4.031c2.61,0.604,5.757,1.335,6.993,1.624
	c1.237,0.289,2.923,0.814,3.748,1.168c4.867,2.089,6.944,2.847,10.921,3.98c2.436,0.693,4.702,1.263,5.039,1.263
	c0.719,0,6.574,1.831,8.02,2.507c0.549,0.258,3.921,1.258,7.493,2.225c3.573,0.966,7.169,1.97,7.994,2.23s3.375,0.824,5.667,1.252
	c2.292,0.427,5.495,1.119,7.118,1.54c4.029,1.044,16.361,3.092,20.938,3.477c2.061,0.174,6.729,0.646,10.374,1.049
	c3.646,0.403,8.816,0.855,11.49,1.005c10.686,0.595,15.39,1.18,20.377,2.533c8.084,2.195,6.912,2.724-5.207,2.344
	c-5.774-0.181-8.154-0.101-7.803,0.262c0.323,0.333,5.722,0.577,14.838,0.673l14.331,0.15l1.427,1.368
	c0.784,0.751,1.947,1.366,2.584,1.366c1.024,0,1.079,0.098,0.473,0.842c-0.579,0.711-0.432,0.694,0.945-0.111
	c1.448-0.848,1.523-0.993,0.675-1.306c-0.524-0.195-1.118-0.619-1.318-0.941c-0.348-0.563,0.415-0.446,2.703,0.416
	c0.43,0.161,0.606,0,0.464-0.424c-0.238-0.716,4.323-4.471,5.432-4.471c0.902,0,1.655,1.671,1.655,3.676
	c0,3.024-5.849,9.89-10.269,12.053c-2.953,1.444-5.219,4.365-5.219,6.724c0,1.911,1.137,2.527,4.668,2.527
	c6.171,0,12.262-3.364,17.907-9.894c2.974-3.438,4.986-4.86,6.211-4.391c0.399,0.153,0.854-0.056,1.013-0.464
	c0.285-0.744,4.15-2.06,6.87-2.339c2.159-0.223,2.764-1.546,1.61-3.531c-0.516-0.888-1.355-2.346-1.867-3.241
	c-0.511-0.896-1.148-2.807-1.417-4.246c-0.269-1.44-0.72-3.743-1.003-5.118c-0.282-1.373-0.637-3.332-0.787-4.354
	c-0.148-1.021-0.646-2.23-1.102-2.688c-0.772-0.772-0.752-0.893,0.32-1.761c3.395-2.749,6.573-5.982,6.307-6.414
	c-0.344-0.555-4.949-2.019-6.349-2.019c-1.505,0-1.026,0.937,0.959,1.871c2.529,1.19,2.646,2.396,0.43,4.425
	c-2.86,2.621-3.259,2.732-5.263,1.474c-0.979-0.616-2.963-1.511-4.407-1.987c-3.105-1.027-4.03-2.275-2.891-3.903
	c1.431-2.041,0.981-4.186-1.524-7.282c-1.265-1.562-3.4-3.813-4.747-5.002c-1.347-1.188-2.449-2.49-2.449-2.892
	c0-1.301-1.971-4.639-3.095-5.239c-0.602-0.322-1.663-0.738-2.359-0.925c-1.129-0.302-1.249-0.56-1.118-2.395
	c0.167-2.302-0.834-3.332-3.82-3.928c-1.75-0.351-2.018,0.145-0.977,1.812c0.876,1.403-0.05,2.676-2.171,2.988
	c-1.283,0.189-1.736,0.523-1.856,1.37c-0.191,1.35-1.88,2.627-3.472,2.627c-0.639,0-1.742,0.581-2.452,1.291
	c-0.709,0.71-2.053,1.415-2.986,1.566c-1.184,0.192-2.154,0.854-3.219,2.2c-1.327,1.676-1.507,2.265-1.386,4.551
	c0.163,3.07-0.504,3.489-3.498,2.193c-2.915-1.262-13.448-4.174-25.543-7.062c-6.183-1.476-15.736-3.839-21.232-5.25
	c-5.495-1.412-11.341-2.867-12.989-3.234c-1.647-0.368-5.471-1.236-8.493-1.93c-5.528-1.271-19.512-3.817-20.956-3.817
	c-1.292,0-0.869,1.342,0.598,1.903c0.755,0.291,2.948,0.779,4.871,1.088c9.546,1.533,28.208,6.196,31.433,7.854
	c0.847,0.436,2.89,1.729,4.537,2.877c1.648,1.148,5.303,3.395,8.118,4.993c3.188,1.811,5.121,3.213,5.121,3.716
	c0,0.446,0.449,1.09,1,1.434c0.549,0.344,0.999,0.823,0.999,1.069c0,0.787-6.596,1.181-8.243,0.491
	c-2.345-0.981-2.799-1.017-15.237-1.183c-6.457-0.088-13.427-0.405-15.488-0.708c-10.474-1.535-13.519-2.117-18.649-3.567
	c-8.848-2.502-20.863-6.455-23.316-7.671c-1.236-0.614-5.396-2.662-9.242-4.552c-3.848-1.889-8.41-4.32-10.141-5.399
	c-1.731-1.081-3.289-1.821-3.463-1.646c-0.319,0.319,2.814,3.752,3.452,3.781c0.986,0.047,7.672,5.013,6.749,5.013
	c-0.284,0-4.306-1.738-8.213-3.548c-1.718-0.796-3.271-1.448-3.452-1.448c-0.655,0-9.45-4.176-10.85-5.152
	c-1.169-0.815-1.615-0.893-2.379-0.416c-1.221,0.763-2.304,0.206-13.169-6.777c-8.942-5.746-11.205-7.284-18.484-12.575
	c-9.405-6.836-25.73-20.693-27.424-23.279C5.986,90.79,5.453,91.211,5.453,94.155 M241.105,94.784
	c-0.399,0.399,0.052,1.179,0.682,1.179c0.26,0,0.471-0.337,0.471-0.749C242.258,94.441,241.668,94.221,241.105,94.784
	 M261.589,99.988c-0.17,0.654-0.056,0.957,0.317,0.833c0.718-0.239,1.093-1.86,0.43-1.86
	C262.073,98.961,261.737,99.423,261.589,99.988 M252.249,104.926c0,0.259,0.226,0.609,0.5,0.779s0.5-0.042,0.5-0.47
	c0-0.429-0.226-0.779-0.5-0.779S252.249,104.667,252.249,104.926 M93.631,106.455c1.375,0.591,1.863,0.591,1.498,0
	c-0.169-0.275-0.8-0.483-1.403-0.465C92.67,106.024,92.667,106.04,93.631,106.455 M266.238,108.703
	c-0.359,0.432-0.407,0.75-0.115,0.75c0.278,0,0.637-0.337,0.795-0.75c0.158-0.412,0.209-0.75,0.114-0.75
	S266.579,108.291,266.238,108.703 M207.786,109.702c0,0.412,0.225,0.75,0.499,0.75c0.275,0,0.499-0.337,0.499-0.75
	s-0.224-0.75-0.499-0.75C208.011,108.952,207.786,109.29,207.786,109.702 M32.931,120.942c0,0.274,0.225,0.5,0.5,0.5
	s0.5-0.225,0.5-0.5s-0.225-0.5-0.5-0.5S32.931,120.668,32.931,120.942 M34.929,122.31c0.412,0.159,1.043,0.704,1.402,1.21
	c0.358,0.506,0.863,0.92,1.121,0.92s-0.021-0.562-0.618-1.249c-0.597-0.688-1.439-1.231-1.87-1.21
	C34.288,122.015,34.284,122.061,34.929,122.31 M103.373,122.638c0,0.108,0.349,0.33,0.774,0.494c0.445,0.17,0.645,0.086,0.471-0.196
	C104.325,122.46,103.373,122.233,103.373,122.638 M208.285,124.939c0,0.275,0.225,0.5,0.499,0.5c0.276,0,0.5-0.225,0.5-0.5
	c0-0.274-0.224-0.5-0.5-0.5C208.51,124.439,208.285,124.665,208.285,124.939 M144.339,125.635c0,0.107,0.337,0.325,0.749,0.484
	c0.412,0.158,0.75,0.069,0.75-0.196c0-0.266-0.337-0.484-0.75-0.484C144.676,125.438,144.339,125.527,144.339,125.635
	 M200.126,126.271c-1.19,1.19,1.371,4.545,4.592,6.014c2.637,1.203,7.064,0.616,7.064-0.937c0-0.556-4.879-3.575-7.379-4.565
	C202.157,125.893,200.681,125.717,200.126,126.271 M41.698,127.839c1.325,1.123,4.199,3.095,4.51,3.095
	c0.195,0-0.675-0.787-1.935-1.748c-1.259-0.962-2.461-1.749-2.67-1.749C41.395,127.437,41.437,127.618,41.698,127.839
	 M222.773,130.297c0,0.52,0.32,1.382,0.714,1.916c0.695,0.945,0.723,0.946,1.078,0.027c0.388-0.999-0.223-2.365-1.203-2.691
	C223.039,129.44,222.773,129.778,222.773,130.297 M33.047,131.434c0.343,0.55,1.075,0.992,1.628,0.983
	c0.947-0.016,0.938-0.072-0.176-1C32.978,130.15,32.25,130.158,33.047,131.434 M47.169,131.933c0.169,0.275,0.533,0.5,0.808,0.5
	s0.361-0.225,0.191-0.5c-0.17-0.274-0.534-0.5-0.808-0.5C47.085,131.434,46.999,131.659,47.169,131.933 M236.263,131.933
	c0,0.275,0.225,0.5,0.499,0.5s0.5-0.225,0.5-0.5c0-0.274-0.226-0.5-0.5-0.5S236.263,131.659,236.263,131.933 M50.416,133.932
	c0,0.275,0.239,0.5,0.529,0.5s0.39-0.225,0.22-0.5c-0.169-0.274-0.408-0.5-0.529-0.5C50.515,133.432,50.416,133.657,50.416,133.932
	 M221.274,134.402c0,0.259,0.223,0.607,0.495,0.775c0.282,0.175,0.365-0.025,0.195-0.47
	C221.633,133.842,221.274,133.683,221.274,134.402 M154.606,135.388c-0.161,0.26-0.079,0.604,0.181,0.766
	c0.26,0.161,0.604,0.079,0.766-0.182c0.16-0.26,0.079-0.604-0.181-0.765S154.768,135.128,154.606,135.388 M218.277,135.888
	c0.687,0.567,1.591,0.98,2.007,0.918c0.418-0.063,1.654,0.154,2.748,0.481c3.494,1.046,9.85,1.725,10.446,1.117
	c1.078-1.093-1.071-1.903-4.37-1.646c-1.974,0.153-4.259-0.058-6.335-0.583c-1.786-0.453-3.81-0.936-4.496-1.072l-1.249-0.249
	L218.277,135.888 M27.769,136.762c-1.212,1.212,0.911,3.705,3.765,4.422c1.509,0.378,4.395-0.924,4.395-1.983
	c0-1.439-2.514-2.771-5.229-2.771C29.27,136.429,27.951,136.58,27.769,136.762 M153.803,138.448
	c-0.972,0.606-0.021,2.168,1.452,2.388c0.799,0.118,1.073-0.102,1.073-0.857C156.328,138.736,154.815,137.819,153.803,138.448
	 M102.873,140.389c0,0.237,0.337,0.56,0.75,0.718c0.412,0.158,0.75,0.094,0.75-0.143c0-0.237-0.337-0.56-0.75-0.718
	C103.21,140.088,102.873,140.153,102.873,140.389 M212.282,143.424c0,0.274,0.225,0.5,0.5,0.5c0.274,0,0.499-0.226,0.499-0.5
	s-0.225-0.5-0.499-0.5C212.507,142.924,212.282,143.149,212.282,143.424 M208.285,145.369c0,1.03,1.875,1.76,3.208,1.25
	c1.018-0.391,1.017-1.501-0.001-1.892C209.825,144.087,208.285,144.395,208.285,145.369 M264.573,145.256
	c-0.729,0.728-0.266,1.224,1.002,1.074c1.72-0.204,2.181-1.407,0.537-1.407C265.448,144.923,264.756,145.072,264.573,145.256
	 M178.561,150.181c4.396,1.218,12.04,3.215,16.985,4.436c9.816,2.425,16.806,4.753,17.123,5.702
	c0.57,1.716-10.439,3.322-14.965,2.183c-1.937-0.488-5.22-1.832-7.403-3.034c-0.412-0.225-3.11-1.563-5.995-2.973
	c-7.306-3.568-17.058-9.229-15.238-8.844C169.893,147.824,174.164,148.962,178.561,150.181 M218.746,148.208
	c-0.542,0.654-0.532,0.866,0.063,1.241c0.394,0.25,0.97,0.458,1.28,0.461c0.817,0.012,1.826-1.358,1.448-1.968
	C221.058,147.163,219.487,147.313,218.746,148.208 M271.748,152.396c-0.405,0.256-0.582,0.617-0.396,0.804
	c0.457,0.457,1.88-0.124,1.88-0.769C273.231,151.797,272.715,151.785,271.748,152.396 M213.781,153.166
	c0,0.458,0.242,0.751,0.536,0.653c0.296-0.099,0.538-0.393,0.538-0.653s-0.242-0.556-0.538-0.653
	C214.023,152.414,213.781,152.708,213.781,153.166 M255.724,158.135c0.545,0.656,0.497,0.776-0.316,0.776
	c-1.112,0-2.158-0.903-2.158-1.865C253.249,156.256,254.691,156.89,255.724,158.135 M198.793,158.412
	c0,0.274,0.338,0.499,0.75,0.499s0.749-0.225,0.749-0.499c0-0.275-0.337-0.5-0.749-0.5S198.793,158.137,198.793,158.412
	 M174.049,159.436c-0.459,0.742-0.094,1.006,0.708,0.51c0.429-0.266,0.479-0.523,0.144-0.729
	C174.616,159.039,174.232,159.139,174.049,159.436 M176.712,160.01c0.466,0.467,0.732,0.467,1.199,0
	c0.465-0.465,0.333-0.599-0.601-0.599C176.379,159.411,176.246,159.545,176.712,160.01 M144.255,160.847
	c1.192,0.756-0.522,0.965-1.916,0.234l-1.248-0.656h1.248C143.027,160.425,143.889,160.615,144.255,160.847 M147.722,161.814
	c0.299,0.899-0.733,0.711-1.082-0.198c-0.187-0.485-0.075-0.715,0.29-0.593C147.256,161.133,147.612,161.488,147.722,161.814
	 M64.655,162.407c-0.17,0.276-0.071,0.5,0.22,0.5c0.29,0,0.529-0.224,0.529-0.5c0-0.274-0.099-0.498-0.22-0.498
	C65.062,161.909,64.824,162.133,64.655,162.407 M101.874,164.77c0,0.446,1.693,1.603,2.373,1.619c1.156,0.03,0.638-0.759-0.874-1.33
	C102.548,164.748,101.874,164.617,101.874,164.77 M291.676,165.931c-0.499,0.309-0.546,0.587-0.163,0.97
	c0.559,0.559,2.202,0.188,2.202-0.496C293.715,165.764,292.429,165.465,291.676,165.931 M39.425,167.379
	c0,0.262,0.388,0.692,0.861,0.958c0.988,0.552,2.841-0.196,2.371-0.958C42.275,166.761,39.425,166.761,39.425,167.379
	 M134.624,170.692c3.545,0.854,6.342,1.233,8.284,1.124c1.613-0.092,2.989,0.007,3.058,0.216c0.07,0.211,2.036,0.82,4.37,1.355
	c8.287,1.896,9.247,2.143,9.74,2.503c0.274,0.199,2.242,0.665,4.372,1.034c2.129,0.367,3.871,0.874,3.871,1.123
	c0,0.25-0.281,0.35-0.624,0.222c-0.344-0.128-2.761-0.619-5.371-1.091c-6.958-1.261-14.319-2.724-17.735-3.524
	c-1.648-0.386-5.408-1.275-8.354-1.978c-2.945-0.701-5.812-1.275-6.369-1.275c-0.558,0-1.015-0.225-1.015-0.499
	C128.851,169.258,128.442,169.203,134.624,170.692 M21.347,177.238c0.361,0.144,0.791,0.125,0.957-0.041s-0.129-0.283-0.655-0.262
	C21.066,176.959,20.948,177.078,21.347,177.238 M86.886,177.396c0,0.274,0.351,0.5,0.779,0.5c0.429,0,0.64-0.226,0.471-0.5
	c-0.17-0.274-0.52-0.5-0.779-0.5S86.886,177.121,86.886,177.396 M139.593,177.396c-0.17,0.274-0.872,0.5-1.559,0.5
	c-0.705,0-1.115,0.217-0.939,0.499c0.454,0.735,3.533,0.608,4.181-0.17c0.306-0.37,0.409-0.819,0.228-1
	C141.011,176.732,139.943,176.829,139.593,177.396 M66.403,178.395c0,0.274,0.224,0.5,0.499,0.5c0.276,0,0.5-0.226,0.5-0.5
	s-0.224-0.499-0.5-0.499C66.627,177.896,66.403,178.12,66.403,178.395 M108.274,178.736c0.361,0.145,0.791,0.126,0.957-0.04
	s-0.128-0.283-0.654-0.262C107.995,178.458,107.876,178.577,108.274,178.736 M41.548,184.016c0.114,0.344,0.508,0.624,0.875,0.624
	s0.76-0.28,0.874-0.624c0.124-0.372-0.23-0.624-0.874-0.624S41.425,183.644,41.548,184.016 M98.876,186.045
	c-2.161,0.685-3.634,2.322-2.894,3.216c0.835,1.007,5.579,0.799,6.563-0.289c1.195-1.32,1.017-2.535-0.455-3.096
	c-0.705-0.268-1.322-0.464-1.374-0.436S99.837,185.741,98.876,186.045 M232.765,186.888l1.25,0.4l-1.25,0.041
	c-0.687,0.024-1.585-0.175-1.997-0.441c-0.666-0.43-0.666-0.479,0-0.442C231.18,186.469,232.078,186.669,232.765,186.888
	 M60.746,187.589c-0.337,0.877,0.066,1.297,1.244,1.297c0.583,0,0.917-0.362,0.917-0.999
	C62.906,186.723,61.169,186.483,60.746,187.589 M242.202,188.104c0.309,0.19,0.906,1.011,1.325,1.822
	c0.687,1.326,0.686,1.506-0.008,1.772c-0.436,0.167-1.502-0.261-2.44-0.976c-0.918-0.7-2.433-1.598-3.366-1.995l-1.7-0.724
	l1.228-0.482C238.412,187.062,241.009,187.365,242.202,188.104 M194.116,188.637c-0.206,0.536-1.109,0.766-3.176,0.809
	c-2.371,0.048-2.621,0.127-1.389,0.44c2.498,0.636,7.036,0.592,6.384-0.062c-0.31-0.308-0.442-0.87-0.298-1.248
	c0.153-0.396-0.053-0.689-0.484-0.689C194.741,187.887,194.274,188.224,194.116,188.637 M177.436,188.731
	c0.481,0.125,1.269,0.125,1.749,0c0.48-0.126,0.088-0.229-0.874-0.229S176.956,188.605,177.436,188.731 M8.95,190.385
	c0,0.274,0.211,0.5,0.47,0.5c0.259,0,0.609-0.226,0.779-0.5c0.17-0.274-0.042-0.499-0.47-0.499S8.95,190.11,8.95,190.385
	 M228.769,190.385c0,0.274-0.338,0.5-0.75,0.5s-0.749-0.226-0.749-0.5s0.337-0.499,0.749-0.499S228.769,190.11,228.769,190.385
	 M170.192,191.759c-1.029,0.233-1.189,1.624-0.187,1.624c0.829,0,2.024-1.325,1.46-1.616
	C171.246,191.653,170.673,191.649,170.192,191.759 M176.124,192.153c-0.334,0.872,0.797,1.486,1.937,1.049
	c0.412-0.158,0.749-0.632,0.749-1.054C178.81,191.133,176.515,191.137,176.124,192.153 M80.142,192.883
	c-0.17,0.274,0.155,0.5,0.72,0.5c0.566,0,1.028-0.226,1.028-0.5s-0.324-0.499-0.72-0.499
	C80.774,192.384,80.312,192.608,80.142,192.883 M217.278,192.574c0,0.426,2.54,0.644,2.789,0.241
	c0.146-0.236-0.421-0.432-1.261-0.432C217.966,192.384,217.278,192.47,217.278,192.574 M72.148,193.383
	c-0.17,0.274-0.084,0.5,0.191,0.5c0.274,0,0.639-0.226,0.808-0.5c0.17-0.274,0.084-0.5-0.191-0.5
	C72.682,192.883,72.318,193.108,72.148,193.383 M183.582,194.339c-0.16,0.261-0.079,0.605,0.182,0.766
	c0.26,0.161,0.604,0.08,0.765-0.182c0.161-0.26,0.08-0.604-0.181-0.765C184.088,193.997,183.744,194.079,183.582,194.339
	 M194.547,195.881c-0.17,0.274,0.042,0.5,0.47,0.5s0.779-0.226,0.779-0.5c0-0.275-0.211-0.5-0.47-0.5
	C195.066,195.381,194.716,195.605,194.547,195.881 M236.263,197.879c0,0.275,0.238,0.499,0.528,0.499
	c0.291,0,0.391-0.224,0.222-0.499c-0.171-0.275-0.408-0.5-0.529-0.5S236.263,197.604,236.263,197.879 M176.563,198.878
	c-0.17,0.274-0.085,0.499,0.189,0.499s0.639-0.225,0.81-0.499c0.169-0.274,0.083-0.5-0.191-0.5S176.731,198.604,176.563,198.878
	 M219.007,201.908c-0.182,0.294-0.224,0.64-0.092,0.771c0.13,0.131,0.37-0.108,0.534-0.533
	C219.786,201.267,219.499,201.111,219.007,201.908 M292.716,202.375c0,0.274,0.337,0.5,0.75,0.5c0.412,0,0.748-0.226,0.748-0.5
	s-0.336-0.5-0.748-0.5C293.053,201.875,292.716,202.101,292.716,202.375 M237.761,203.345c0,0.259,0.226,0.609,0.5,0.778
	c0.274,0.171,0.5-0.041,0.5-0.47c0-0.428-0.226-0.778-0.5-0.778S237.761,203.086,237.761,203.345 M190.8,203.874
	c0,0.274,0.226,0.5,0.5,0.5s0.499-0.226,0.499-0.5s-0.225-0.5-0.499-0.5S190.8,203.6,190.8,203.874 M277.527,206.239
	c-0.696,0.696-0.21,2.167,0.976,2.943c1.48,0.97,2.506,0.366,2.013-1.187C280.193,206.98,278.049,205.719,277.527,206.239
	 M199.792,208.869c0,0.275,0.226,0.5,0.5,0.5s0.5-0.225,0.5-0.5c0-0.274-0.226-0.498-0.5-0.498S199.792,208.595,199.792,208.869
	 M206.017,208.903c-0.181,0.292-0.204,0.657-0.05,0.811c0.41,0.411,1.819-0.23,1.819-0.829
	C207.786,208.207,206.438,208.221,206.017,208.903 M267.744,215.739c0.004,0.206,0.217,0.705,0.473,1.109
	c0.575,0.91,1.251,0.34,0.847-0.713C268.764,215.356,267.73,215.046,267.744,215.739 M193.048,216.363
	c-0.17,0.275-0.069,0.5,0.221,0.5c0.291,0,0.529-0.225,0.529-0.5c0-0.274-0.1-0.499-0.221-0.499S193.219,216.089,193.048,216.363
	 M252.749,219.361c0,0.274,0.226,0.5,0.5,0.5s0.499-0.226,0.499-0.5c0-0.275-0.225-0.499-0.499-0.499
	S252.749,219.086,252.749,219.361 M259.743,222.299c0,0.274,0.225,0.639,0.499,0.81c0.275,0.169,0.5,0.083,0.5-0.191
	s-0.225-0.639-0.5-0.808C259.968,221.939,259.743,222.024,259.743,222.299 M199.93,230.465c-0.926,1.167-1.676,2.885-1.262,2.885
	c0.505,0,2.309-2.979,1.994-3.294C200.537,229.931,200.208,230.115,199.93,230.465"/>
</svg>
