<?xml version="1.0" encoding="utf-8"?>
<!-- Generator: Adobe Illustrator 16.0.0, SVG Export Plug-In . SVG Version: 6.00 Build 0)  -->
<!DOCTYPE svg PUBLIC "-//W3C//DTD SVG 1.1//EN" "http://www.w3.org/Graphics/SVG/1.1/DTD/svg11.dtd">
<svg version="1.1" id="Layer_1" xmlns="http://www.w3.org/2000/svg" xmlns:xlink="http://www.w3.org/1999/xlink" x="0px" y="0px"
	 width="300px" height="300px" viewBox="0 0 300 300" enable-background="new 0 0 300 300" xml:space="preserve">
<path fill="#C52026" d="M88.367,34.367c-0.625,0.752-0.253,1.513,0.738,1.513c0.619,0,0.922-0.165,0.995-0.539
	c0.119-0.618-0.44-1.409-0.995-1.409C88.898,33.932,88.566,34.127,88.367,34.367 M188.291,35.426
	c-0.351,0.142-0.924,0.661-1.274,1.153c-0.351,0.492-1.998,1.872-3.659,3.068c-4.563,3.28-6.571,6.369-6.568,10.102
	c0.002,2.273,0.442,3.753,1.696,5.714c1.337,2.089,2.525,3.175,4.748,4.336c1.641,0.857,2.049,0.941,4.646,0.951
	c2.637,0.011,2.983-0.06,4.697-0.955c3.863-2.019,6.095-5.673,6.095-9.985c0-3.06-0.99-5.415-3.622-8.625
	c-1.176-1.433-2.399-3.117-2.718-3.742c-0.581-1.139-2.11-2.325-2.954-2.292C189.131,35.161,188.642,35.285,188.291,35.426
	 M103.413,39.828c-0.629,0.253-1.331,1.906-1.137,2.678c0.24,0.957,2.13,1.777,3.089,1.34c0.55-0.251,0.677-0.55,0.677-1.598
	C106.042,40.193,104.966,39.203,103.413,39.828 M129.424,42.456c-0.907,0.195-1.851,0.447-2.098,0.56
	c-0.976,0.446-5.253,1.409-6.269,1.411c-0.591,0.002-2.39-0.16-3.997-0.358c-5.09-0.631-8.189,0.21-11.768,3.19
	c-2.067,1.722-3.078,2.08-5.172,1.832c-2.726-0.321-3.351-0.24-4.298,0.557c-1.735,1.46-2.616,1.367-6.711-0.712l-3.672-1.864
	l-2.18,0.179c-1.636,0.134-2.622,0.414-3.949,1.122c-2.342,1.249-3.437,2.394-4.533,4.745c-1.742,3.734-0.98,8.074,1.893,10.792
	c1.862,1.76,2.991,3.472,2.991,4.532c0,3.21,3.623,7.293,7.685,8.663c1.635,0.552,1.971,0.811,3.027,2.331
	c0.653,0.941,1.693,2.624,2.311,3.74c0.619,1.117,1.617,2.544,2.22,3.173c1.427,1.49,4.885,4.241,5.331,4.241
	c0.191,0,1.573,1.167,3.07,2.592c4.937,4.703,6.757,8.912,8.021,18.542c0.455,3.468,0.498,6.522,0.386,27.729
	c-0.068,13.107-0.057,34.961,0.026,48.563c0.082,13.602,0.148,36.399,0.146,50.661c-0.003,23.641-0.054,26.301-0.565,30.127
	c-0.352,2.626-0.558,5.936-0.552,8.844c0.009,3.983,0.117,5.037,0.753,7.396c1.333,4.934,3.779,7.401,7.302,7.368
	c3.298-0.034,5.736-2.46,7.454-7.42c1.189-3.437,1.085-10.798-0.265-18.735c-1.392-8.183-1.504-10.521-2.169-45.265
	c-0.558-29.094-0.827-97.256-0.413-104.57c0.295-5.204,1.012-9.724,2.079-13.091c0.313-0.989,0.65-2.813,0.75-4.051
	c0.244-3.022,1.064-5.595,2.611-8.188c2.161-3.623,5.681-7.511,8.447-9.332c1.905-1.255,2.438-1.917,2.702-3.359
	c0.096-0.521,0.666-2.208,1.269-3.748c0.602-1.539,1.205-3.541,1.341-4.447c0.33-2.208,1.411-6.292,1.783-6.74
	c0.987-1.19,1.962-8.529,1.195-9.002c-0.169-0.105-0.27-0.079-0.225,0.057c0.141,0.423-0.506,0.465-0.71,0.045
	c-0.107-0.219-0.343-1.381-0.526-2.583c-0.771-5.068-3.915-8.141-9.732-9.513C132.298,41.97,131.697,41.969,129.424,42.456
	 M185.273,57.035c1.003,0.278,1.132,0.417,1.051,1.123c-0.077,0.663-0.264,0.822-1.058,0.898c-1.325,0.127-3.154-1.09-2.741-1.827
	C182.856,56.639,183.646,56.583,185.273,57.035 M198.222,73.886c-0.33,0.234-2,0.582-3.711,0.773
	c-1.712,0.191-3.668,0.595-4.347,0.897c-4.533,2.015-6.959,7.714-5.429,12.757c0.49,1.618,2.586,4.551,3.445,4.824
	c0.3,0.095,1.46,1.175,2.579,2.4c2.577,2.823,4.361,3.596,4.747,2.056c0.191-0.763,0.255-0.784,1.864-0.618
	c1.524,0.157,6.041,1.573,6.396,2.006c0.082,0.101,0.622,0.473,1.199,0.827c1.174,0.722,2.853,2.416,2.622,2.646
	c-0.082,0.083-0.668-0.157-1.301-0.531c-2.218-1.308-6.48-2.572-5.988-1.775c0.115,0.188,0.688,0.542,1.272,0.786
	c0.584,0.243,2.092,1.127,3.352,1.963c4.829,3.205,6.615,7.54,7.278,17.668c0.284,4.343,0.284,10.064-0.001,26.38
	c-0.201,11.458-0.476,22.25-0.613,23.982c-0.64,8.119,1.157,14.357,4.585,15.913c1.656,0.752,3.025,0.712,4.866-0.146
	c1.237-0.576,1.708-1.022,2.444-2.32c1.439-2.534,1.867-4.438,1.867-8.296c0-1.888-0.13-3.921-0.289-4.518
	c-0.55-2.056-1.533-6.778-1.816-8.724c-0.156-1.074-0.479-3.234-0.717-4.8c-0.953-6.278-1.193-11.608-1.208-26.831
	c-0.018-16.666,0.067-17.778,1.657-21.597c0.633-1.52,1.301-2.514,2.369-3.521c0.817-0.772,1.753-1.925,2.078-2.563
	c1.502-2.944,1.628-9.507,0.233-12.189c-1.231-2.372-1.782-3.055-3.614-4.477c-1.648-1.279-3.388-1.98-6.037-2.43
	c-2.002-0.341-4.681-1.678-6.951-3.471c-1.185-0.936-2.887-2.047-3.781-2.471c-1.188-0.562-1.733-1.025-2.02-1.716
	C204.388,74.677,199.773,72.783,198.222,73.886 M75.149,75.767c-0.503,0.537-0.72,1.115-0.72,1.925c0,1.552,0.792,2.405,2.229,2.405
	c1.944,0,3.191-2.084,2.29-3.829C78.166,74.756,76.327,74.513,75.149,75.767 M76.664,79.198c0,0.165-0.135,0.299-0.3,0.299
	c-0.165,0-0.299-0.135-0.299-0.299c0-0.165,0.135-0.3,0.299-0.3C76.529,78.897,76.664,79.033,76.664,79.198 M42.502,84.05
	c-0.721,0.774-0.781,1.666-0.17,2.538c0.867,1.237,2.673,0.968,3.468-0.517c0.585-1.094-0.772-2.656-2.323-2.673
	C43.277,83.396,42.838,83.689,42.502,84.05 M43.989,86.692c0,0.165-0.135,0.299-0.3,0.299c-0.165,0-0.3-0.135-0.3-0.299
	c0-0.165,0.135-0.3,0.3-0.3C43.854,86.392,43.989,86.527,43.989,86.692 M57.069,87.613c-1.039,0.817-1.099,2.409-0.115,3.039
	c1.222,0.781,1.667,0.817,2.454,0.198c1.011-0.796,1.046-2.295,0.075-3.207C58.617,86.83,58.074,86.823,57.069,87.613
	 M89.531,88.469c-2.008,0.393-5.527,2.321-6.974,3.824c-4.925,5.109-3.295,14.198,2.999,16.718c2.344,0.938,4.728,0.998,7.364,0.182
	c1.034-0.32,2.24-0.657,2.68-0.749c1.226-0.256,4.016-2.989,4.903-4.803c1.688-3.451,1.246-8.254-1.042-11.314
	c-1.361-1.819-3.773-3.22-6.549-3.802C91.184,88.161,91.111,88.16,89.531,88.469 M165.764,91.479
	c-1.82,0.654-3.308,1.504-5.014,2.862c-0.659,0.525-2.75,1.698-4.646,2.606c-4.055,1.942-5.092,2.915-6.004,5.631
	c-1.545,4.602,0.547,9.393,4.785,10.958c0.753,0.277,2.179,0.942,3.168,1.478c0.99,0.534,2.457,1.217,3.261,1.518
	c1.979,0.739,2.451,1.604,2.704,4.947c0.287,3.804,0.72,5.881,1.578,7.575c0.676,1.332,0.823,1.454,1.579,1.302
	c0.928-0.186,2.119,0.471,2.119,1.167c0,0.53,1.578,0.583,2.966,0.099c1.272-0.443,2.884-2.61,3.503-4.712
	c0.423-1.433,0.472-2.527,0.31-6.985c-0.224-6.164,0.092-8.132,1.691-10.563c4.088-6.21,2.979-12.901-2.751-16.588
	C172.002,90.838,168.793,90.389,165.764,91.479 M128.997,97.954c-0.631,0.63-0.911,1.848-0.531,2.307
	c0.17,0.203,0.889,0.37,1.599,0.37c1.15,0,1.324-0.094,1.593-0.855c0.266-0.754,0.203-0.941-0.533-1.574
	C130.149,97.363,129.646,97.305,128.997,97.954 M136.997,98.442c-0.307,0.375-0.485,1.208-0.412,1.935
	c0.055,0.552,1.588,0.959,2.34,0.623c0.88-0.395,1.074-1.014,0.617-1.973C139.114,98.132,137.546,97.771,136.997,98.442
	 M190.968,103.776c-0.967,0.398-1.682,1.965-1.453,3.183c0.231,1.234,1.214,1.917,1.451,1.009c0.085-0.326,0.317-0.592,0.515-0.592
	c0.235,0,0.295,0.261,0.172,0.75c-0.223,0.889,0.29,0.988,1.602,0.311C195.943,107.045,193.772,102.619,190.968,103.776
	 M88.88,105.766c1.25,0.335,0.458,1.985-0.954,1.985c-0.934,0-2.463-1.318-2.138-1.843C86.008,105.552,87.778,105.471,88.88,105.766
	 M232.6,106.562c-0.176,0.211-0.462,0.76-0.636,1.219c-0.797,2.094,2.042,3.875,3.567,2.237c0.823-0.884,0.802-2.44-0.045-3.229
	C234.747,106.099,233.092,105.969,232.6,106.562 M233.625,109.993c-0.304,0.305-0.556-0.154-0.306-0.559
	c0.189-0.306,0.26-0.306,0.361-0.001C233.75,109.641,233.726,109.893,233.625,109.993 M104.393,110.72
	c-1.92,1.05-1.771,3.508,0.243,4.013c1.199,0.301,2.104-0.036,2.624-0.974c0.604-1.092,0.425-2.029-0.529-2.78
	C105.87,110.302,105.277,110.236,104.393,110.72 M160.506,112.507c1.755,0.885,3.358,2.197,3.056,2.5
	c-0.077,0.077-0.808-0.188-1.625-0.589c-0.816-0.4-1.636-0.732-1.82-0.737c-0.183-0.005-1.194-0.396-2.247-0.867
	c-1.054-0.471-2.32-0.965-2.814-1.098l-0.899-0.24l0.899-0.189C156.397,111.005,158.427,111.458,160.506,112.507 M234.957,113.611
	c-1.411,1.412-1.076,3.618,0.912,6.014c1.793,2.159,4.539,2.425,5.682,0.55c1.729-2.835-0.688-6.915-4.34-7.327
	C236.018,112.714,235.771,112.797,234.957,113.611 M105.047,114.327c-0.096,0.239-0.167,0.168-0.181-0.182
	c-0.013-0.316,0.058-0.493,0.158-0.393S105.134,114.11,105.047,114.327 M59.468,116.391c-1.101,0.866-1.092,2.395,0.019,3.268
	c1.17,0.92,2.46,0.715,3.169-0.504c0.525-0.904,0.529-1.023,0.069-1.994c-0.437-0.921-1.135-1.375-2.133-1.388
	C60.408,115.771,59.902,116.049,59.468,116.391 M141.864,118.72c-2.507,0.742-3.068,1.082-4.958,3.009
	c-1.265,1.29-1.798,2.12-2.238,3.487c-1.592,4.945,0.316,9.987,4.695,12.405c2.23,1.231,4.417,1.642,6.472,1.216
	c6.56-1.362,10.01-7.937,7.576-14.44c-0.872-2.332-3.462-4.891-5.538-5.474C145.295,118.2,143.795,118.148,141.864,118.72
	 M238.182,119.127c0.558,0.559,0.426,0.891-0.313,0.786c-0.369-0.053-0.717-0.332-0.771-0.621
	C236.983,118.69,237.645,118.59,238.182,119.127 M60.776,119.367c0,0.165-0.21,0.3-0.468,0.3c-0.256,0-0.384-0.135-0.282-0.3
	s0.312-0.3,0.467-0.3C60.65,119.067,60.776,119.202,60.776,119.367 M182.597,120.701c-0.229,0.601,0.112,1.063,0.786,1.063
	c0.69,0,0.962-0.387,0.718-1.022C183.872,120.146,182.822,120.117,182.597,120.701 M101.421,122.132
	c-0.319,0.487-0.388,0.967-0.226,1.571c0.226,0.844,0.95,1.442,0.95,0.785c0-0.179,0.13-0.325,0.29-0.325
	c0.159,0,0.208,0.214,0.108,0.476c-0.306,0.795,1.107,0.385,1.778-0.517c0.524-0.705,0.543-0.882,0.178-1.649
	c-0.324-0.68-0.639-0.878-1.514-0.95C102.101,121.449,101.79,121.57,101.421,122.132 M74.086,123.084
	c-1.665,1.664-1.232,3.663,0.947,4.382c1.231,0.406,2.651-0.013,3.141-0.927c0.543-1.015,0.328-2.583-0.488-3.552
	C76.611,121.709,75.43,121.74,74.086,123.084 M254.917,125.737c-0.854,1.353-0.869,1.97-0.071,2.768
	c1.911,1.911,4.27-0.386,2.761-2.688C256.956,124.823,255.52,124.781,254.917,125.737 M75.615,126.561
	c0.102,0.165,0.042,0.3-0.132,0.3c-0.175,0-0.318-0.135-0.318-0.3c0-0.165,0.06-0.299,0.132-0.299S75.513,126.396,75.615,126.561
	 M255.928,128.36c0,0.164-0.135,0.299-0.3,0.299s-0.3-0.135-0.3-0.299c0-0.165,0.135-0.3,0.3-0.3S255.928,128.195,255.928,128.36
	 M95.911,132.333c-0.598,0.72-0.723,1.897-0.244,2.294c0.251,0.208,0.618,0.278,0.815,0.157c0.228-0.141,0.281-0.095,0.144,0.126
	c-0.362,0.585,0.679,0.741,1.474,0.22c0.822-0.539,1.045-2.156,0.387-2.814C98.015,131.844,96.308,131.855,95.911,132.333
	 M142.921,134.814c0.536,0.646-0.08,1.939-0.923,1.939c-0.742,0-2.506-1.655-2.234-2.095
	C140.063,134.174,142.489,134.293,142.921,134.814 M107.559,135.629c-0.193,0.495-0.135,0.774,0.217,1.049
	c0.792,0.619,1.564,0.463,1.564-0.314C109.339,134.998,108.017,134.453,107.559,135.629 M173.716,142.266
	c-0.287,0.219-0.602,0.791-0.697,1.271c-0.2,0.996,0.414,1.736,1.707,2.059c0.626,0.156,0.913,0.032,1.424-0.617
	c0.798-1.015,0.81-1.759,0.039-2.53C175.502,141.763,174.479,141.688,173.716,142.266 M217.413,183.417
	c0.519,0.52,0.43,2.033-0.154,2.618c-0.487,0.485-1.501-0.705-1.501-1.765C215.758,182.824,216.458,182.463,217.413,183.417
	 M93.878,205.092c0,0.913,0.897,1.649,1.995,1.649c1.099,0,1.996-0.736,1.996-1.649c0-0.902-0.897-1.648-1.996-1.648
	C94.775,203.443,93.878,204.189,93.878,205.092 M118.333,288.275c0,1.166-0.542,2.261-1.117,2.259c-0.517,0-1.581-1.484-1.581-2.204
	c0-0.196,0.21-0.658,0.466-1.024c0.44-0.628,0.516-0.64,1.349-0.208C118.057,287.412,118.333,287.78,118.333,288.275"/>
</svg>
