<?xml version="1.0" encoding="utf-8"?>
<!-- Generator: Adobe Illustrator 16.0.0, SVG Export Plug-In . SVG Version: 6.00 Build 0)  -->
<!DOCTYPE svg PUBLIC "-//W3C//DTD SVG 1.1//EN" "http://www.w3.org/Graphics/SVG/1.1/DTD/svg11.dtd">
<svg version="1.1" id="Layer_1" xmlns="http://www.w3.org/2000/svg" xmlns:xlink="http://www.w3.org/1999/xlink" x="0px" y="0px"
	 width="300px" height="300px" viewBox="0 0 300 300" enable-background="new 0 0 300 300" xml:space="preserve">
<path fill="#DE1F26" d="M137.861,28.061c-0.063,0.1-0.005,0.183,0.126,0.184c0.219,0.002,1.069,2.924,1.062,3.655
	c-0.001,0.155,0.159,0.598,0.357,0.985c0.228,0.446,0.303,0.805,0.206,0.978c-0.102,0.181-0.006,0.491,0.284,0.918
	c0.241,0.354,0.609,1.225,0.819,1.935s0.568,1.62,0.794,2.021c0.227,0.402,0.55,1.346,0.719,2.099s0.508,1.711,0.752,2.13
	c0.245,0.42,0.445,0.964,0.445,1.209c0,0.669,0.494,1.939,1.026,2.636c0.567,0.745,0.986,3.16,0.622,3.597
	c-0.177,0.213-0.341,0.132-0.974-0.482c-0.515-0.499-0.745-0.868-0.71-1.136c0.029-0.219-0.148-0.693-0.395-1.055
	c-0.245-0.361-0.497-0.822-0.562-1.025c-0.065-0.202-0.237-0.467-0.383-0.588c-0.147-0.122-0.267-0.419-0.267-0.661
	s-0.205-0.845-0.456-1.34s-0.457-1.058-0.457-1.25s-0.152-0.39-0.339-0.438c-0.431-0.112-2.558-4.271-3.149-6.158
	c-0.262-0.836-0.702-1.719-1.129-2.269c-0.869-1.115-1.324-1.996-1.6-3.09c-0.217-0.86-0.46-1.07-0.653-0.565
	c-0.059,0.155,0.021,0.423,0.18,0.598c0.158,0.175,0.287,0.48,0.286,0.678c-0.005,0.973,0.539,2.555,0.834,2.429
	c0.16-0.068,1.541,2.528,1.55,2.914c0.003,0.131-0.083,0.185-0.189,0.118c-0.107-0.066,0.027,0.318,0.299,0.854
	c0.627,1.239,0.807,1.87,0.62,2.174c-0.235,0.379-0.609-0.043-1.18-1.335c-0.276-0.625-0.738-1.329-1.027-1.561
	c-0.289-0.233-0.524-0.51-0.524-0.616c0-0.118,0.105-0.104,0.274,0.036c0.362,0.301,0.35,0.244-0.183-0.807
	c-0.25-0.494-0.456-0.993-0.456-1.109c0-0.117-0.195-0.317-0.435-0.444c-0.238-0.127-0.621-0.635-0.852-1.126
	c-0.23-0.491-0.479-0.893-0.553-0.893c-0.074,0,0.013,0.308,0.195,0.684c0.181,0.377,0.585,1.575,0.899,2.662
	c0.313,1.087,0.705,2.237,0.87,2.555c0.165,0.317,0.322,0.742,0.349,0.942c0.028,0.201,0.154,0.628,0.282,0.952
	c0.127,0.322,0.169,0.648,0.093,0.724c-0.17,0.169-0.477-0.284-0.481-0.707c-0.001-0.169-0.249-0.578-0.55-0.907
	c-0.742-0.813-0.71-0.455,0.183,2.037c0.401,1.12,0.732,2.174,0.734,2.341s0.165,0.51,0.361,0.761
	c0.197,0.25,0.359,0.593,0.361,0.761s0.33,0.911,0.729,1.651c0.4,0.74,1.047,2.204,1.438,3.253c0.392,1.05,0.855,2.258,1.029,2.686
	c0.253,0.624,0.272,0.832,0.09,1.048c-0.16,0.193-0.166,0.272-0.018,0.272c0.206,0,0.527,0.639,0.889,1.771
	c0.137,0.427,0.125,0.769-0.046,1.265c-0.16,0.466-0.204,1.279-0.137,2.587c0.082,1.585,0.054,1.892-0.158,1.819
	c-0.162-0.056-0.235-0.292-0.2-0.646c0.055-0.559-0.182-0.888-0.497-0.692c-0.101,0.062-0.094,0.368,0.016,0.766
	c0.101,0.364,0.129,0.948,0.064,1.296c-0.108,0.574-0.166,0.625-0.618,0.535c-0.726-0.145-1.029,0.092-0.76,0.596
	c0.187,0.349,0.345,0.395,1.229,0.354c0.991-0.046,1.022-0.032,1.33,0.581c0.173,0.345,0.372,0.863,0.442,1.152
	c0.108,0.453,0.081,0.508-0.198,0.401c-0.265-0.102-0.251-0.046,0.075,0.3c0.5,0.533,0.814,1.956,0.742,3.357
	c-0.051,1.002-0.085,1.074-0.5,1.074c-0.344,0-0.478-0.127-0.591-0.562c-0.08-0.309-0.306-0.707-0.501-0.884
	c-0.196-0.177-0.311-0.438-0.257-0.579c0.054-0.141,0.017-0.256-0.083-0.256c-0.1,0-0.236-0.292-0.303-0.649
	c-0.067-0.356-0.228-0.688-0.357-0.738c-0.129-0.05-0.384-0.738-0.565-1.529c-0.282-1.237-0.389-1.454-0.767-1.548
	c-0.324-0.081-0.606-0.457-1.068-1.422c-0.347-0.722-0.632-1.479-0.634-1.682c-0.005-0.331-0.025-0.338-0.186-0.061
	c-0.132,0.227-0.082,0.471,0.187,0.913c0.445,0.73,0.499,1.462,0.096,1.308c-0.174-0.067-0.274,0.002-0.274,0.188
	c0,0.493-0.512,0.328-1.243-0.403c-0.474-0.473-0.95-1.3-1.496-2.591c-0.829-1.967-1.602-3.076-1.979-2.843
	c-0.119,0.074-0.163,0.219-0.098,0.323c0.076,0.124-0.031,0.142-0.308,0.055l-0.424-0.135l0.346,0.526
	c0.19,0.289,0.591,0.936,0.89,1.438c2.347,3.929,2.387,4.008,2.194,4.319c-0.121,0.196-0.861-0.508-0.915-0.87
	c-0.047-0.319-2.311-3.55-2.415-3.446c-0.049,0.048,0.296,0.643,0.763,1.322c0.469,0.679,0.852,1.311,0.852,1.404
	c0,0.093-0.121,0.01-0.268-0.185c-0.147-0.195-0.271-0.29-0.273-0.21c-0.012,0.286,0.765,1.647,1.17,2.052
	c0.227,0.228,0.464,0.545,0.526,0.707c0.062,0.161,0.212,0.272,0.335,0.247c0.122-0.026,0.25,0.081,0.286,0.238
	c0.068,0.308,1.941,2.36,2.155,2.36c0.071,0,0.039-0.108-0.072-0.241c-0.144-0.173-0.145-0.297-0.003-0.439
	c0.143-0.142,0.089-0.255-0.188-0.404c-0.292-0.157-0.359-0.315-0.274-0.656c0.07-0.274,0.035-0.448-0.089-0.448
	c-0.112,0-0.203-0.093-0.203-0.206c0-0.294,1.459-0.035,1.863,0.332c0.176,0.159,0.579,0.747,0.895,1.305
	c0.314,0.559,0.78,1.178,1.033,1.378c0.253,0.199,0.695,0.879,0.981,1.51c0.289,0.637,0.731,1.286,0.996,1.459
	c0.445,0.292,0.486,0.292,0.648,0.004c0.094-0.169,0.263-0.308,0.373-0.308c0.111,0,0.049,0.17-0.138,0.377
	c-0.268,0.295-0.526,0.366-1.201,0.331c-1.03-0.055-1.633,0.294-1.136,0.657c0.373,0.273,0.178,0.409-0.818,0.568
	c-0.638,0.102-0.759,0.072-0.759-0.187c0-0.272-0.153-0.293-1.322-0.182c-0.728,0.07-1.345,0.145-1.373,0.167
	c-0.027,0.023,0.156,0.484,0.408,1.025c0.326,0.705,0.393,1.005,0.231,1.055c-0.123,0.039-0.326,0.151-0.45,0.249
	c-0.158,0.125-0.262,0.086-0.344-0.128c-0.065-0.169-0.557-0.722-1.091-1.228c-0.536-0.507-1.022-1.096-1.082-1.311
	c-0.178-0.639-0.5-1.21-0.684-1.21c-0.094,0-0.125,0.186-0.068,0.412c0.212,0.847-0.137,0.927-1.041,0.238
	c-0.468-0.357-1.041-0.65-1.273-0.65s-0.826-0.288-1.321-0.639c-0.97-0.69-1.778-0.902-1.016-0.268
	c0.237,0.198,0.535,0.359,0.662,0.359s0.333,0.123,0.458,0.273c0.347,0.417,0.004,0.324-1.003-0.273
	c-0.501-0.297-1.077-0.542-1.277-0.542c-0.205,0,0.196,0.305,0.914,0.697c0.704,0.383,1.608,0.905,2.01,1.158
	c0.402,0.254,1.167,0.683,1.699,0.952c0.683,0.346,1.041,0.662,1.213,1.072c0.285,0.678,0.056,1.388-0.342,1.058
	c-0.133-0.109-0.3-0.122-0.398-0.029c-0.093,0.088-0.333,0.196-0.533,0.241c-0.283,0.062-0.169,0.167,0.5,0.467
	c0.804,0.359,0.852,0.418,0.691,0.843c-0.111,0.291-0.11,0.497,0.001,0.566c0.292,0.18,0.197,0.932-0.175,1.39l-0.35,0.43
	l-0.517-0.479c-0.484-0.45-1.185-0.889-1.417-0.889c-0.211,0-0.094,0.511,0.167,0.727c0.196,0.163,0.221,0.315,0.091,0.558
	c-0.289,0.54-0.825,0.587-1.817,0.16c-1.034-0.445-1.369-0.355-0.767,0.207c0.474,0.441,0.503,0.691,0.101,0.846
	c-0.19,0.073-0.412-0.038-0.614-0.306c-0.178-0.236-0.408-0.363-0.525-0.29c-0.115,0.071-0.425-0.041-0.689-0.249
	c-0.264-0.208-0.695-0.362-0.957-0.344c-0.262,0.019-0.763-0.097-1.114-0.258c-0.352-0.16-0.885-0.331-1.187-0.379
	c-0.301-0.048-0.734-0.133-0.963-0.188c-0.229-0.055-0.371-0.028-0.317,0.059c0.054,0.088,0.775,0.381,1.602,0.654
	c1.818,0.599,1.882,0.633,1.569,0.831c-0.195,0.124-0.182,0.157,0.061,0.16c0.17,0.001,0.359,0.085,0.422,0.186
	c0.069,0.112-0.229,0.182-0.774,0.182c-0.653,0-1.086-0.129-1.643-0.491c-0.416-0.269-0.715-0.557-0.665-0.637
	c0.05-0.081-0.112-0.24-0.36-0.354c-0.248-0.113-0.491-0.359-0.541-0.548c-0.049-0.188-0.172-0.343-0.272-0.343
	c-0.101,0-0.137,0.174-0.082,0.386c0.083,0.32,0.039,0.366-0.265,0.27c-0.935-0.297-1.229,0.524-0.342,0.958
	c0.778,0.381,0.436,0.45-0.962,0.191c-1.007-0.187-1.305-0.315-1.401-0.609c-0.068-0.206-0.113-0.438-0.101-0.518
	c0.045-0.296-0.37-0.859-0.634-0.859c-0.501,0-0.506,0.538-0.009,0.929c0.871,0.685,0.547,1.079-0.884,1.079
	c-0.947,0-1.348,0.354-0.874,0.771c0.175,0.154,0.791,0.501,1.369,0.771c1.792,0.839,1.261,1.625-0.987,1.459
	c-1.534-0.113-1.178,0.24,0.402,0.397c0.647,0.065,1.342,0.206,1.543,0.314s0.786,0.172,1.302,0.142
	c0.805-0.046,0.979,0.005,1.232,0.367l0.295,0.421V83.19v-0.612l0.754,0.121c0.582,0.094,0.835,0.048,1.105-0.197
	c0.394-0.356,0.922-0.166,1.027,0.372c0.045,0.229-0.083,0.3-0.547,0.301c-0.333,0.001-1.046,0.207-1.583,0.456
	c-1.112,0.518-1.786,0.572-2.333,0.188c-0.347-0.244-0.396-0.23-0.576,0.165c-0.269,0.59,0.174,0.965,1.645,1.392
	c2.333,0.677,3.636,1.25,2.285,1.006c-0.532-0.096-0.711-0.06-0.795,0.158c-0.06,0.155-0.243,0.284-0.409,0.285
	c-0.199,0.002-0.039,0.245,0.477,0.723c0.803,0.746,1.027,1.243,0.456,1.008c-0.175-0.072-0.702-0.235-1.169-0.364
	c-0.468-0.127-0.961-0.3-1.096-0.383c-0.134-0.083-0.481-0.154-0.771-0.157c-0.632-0.008-1.043-0.517-0.698-0.862
	c0.179-0.179,0.351-0.18,0.81-0.007c0.401,0.152,0.642,0.161,0.771,0.032c0.246-0.246-0.085-0.454-1.283-0.806
	c-0.665-0.196-0.986-0.403-1.137-0.733c-0.115-0.253-0.294-0.46-0.396-0.46c-0.245,0-0.239,0.312,0.009,0.464
	c0.107,0.066,0.15,0.235,0.097,0.375c-0.056,0.145,0.014,0.256,0.159,0.256c0.314,0,0.383,0.109,0.545,0.867
	c0.106,0.494,0.074,0.593-0.196,0.593c-0.178,0-0.557-0.224-0.842-0.497c-0.499-0.478-0.522-0.482-0.616-0.123
	c-0.087,0.334-0.207,0.365-1.134,0.291c-0.57-0.044-1.182-0.157-1.36-0.25c-0.178-0.092-0.395-0.124-0.484-0.069
	c-0.088,0.055-0.708-0.07-1.377-0.276c-1.239-0.383-2.097-0.387-1.101-0.005c0.301,0.115,0.67,0.261,0.821,0.324
	c0.15,0.063,0.375,0.099,0.499,0.079c0.124-0.02,0.453,0.095,0.73,0.254l0.504,0.291l-0.729-0.11
	c-0.401-0.06-1.223-0.152-1.825-0.204c-1.004-0.087-1.066-0.071-0.75,0.184c0.19,0.154,0.437,0.311,0.548,0.351
	c0.126,0.044,0.073,0.215-0.139,0.456c-0.338,0.38-0.335,0.388,0.319,0.774c0.364,0.214,0.661,0.467,0.661,0.563
	c0,0.094,0.103,0.148,0.229,0.12c0.312-0.072,1.779,0.425,1.779,0.602c0,0.313-0.407,0.365-0.71,0.09
	c-0.187-0.168-0.643-0.292-1.084-0.292c-0.47,0-0.761-0.083-0.761-0.219c0-0.166-0.051-0.167-0.211-0.008
	c-0.16,0.16-0.153,0.282,0.029,0.5c0.217,0.262,0.118,0.278-1.021,0.167c-0.693-0.068-1.542-0.238-1.888-0.378l-0.627-0.254
	l0.418-0.293c0.23-0.161,0.535-0.572,0.678-0.914c0.244-0.584,0.232-0.656-0.202-1.225c-0.253-0.333-0.461-0.693-0.461-0.8
	s-0.414-0.45-0.918-0.76c-0.969-0.596-1.183-0.956-1.472-2.478c-0.373-1.961,0.448-3.822,1.937-4.391
	c0.442-0.169,0.931-0.259,1.084-0.199c0.401,0.154,0.355-0.008-0.289-1.011c-0.789-1.229-1.803-1.876-1.803-1.151
	c0,0.151-0.08,0.273-0.178,0.273c-0.194,0-0.078-1.421,0.178-2.189c0.084-0.251,0.2-1.035,0.257-1.742
	c0.08-0.992,0.04-1.377-0.178-1.688c-0.387-0.552-0.688-0.505-1.214,0.19c-0.409,0.542-0.427,0.642-0.206,1.141
	c0.179,0.403,0.22,1.212,0.158,3.068l-0.086,2.521l-1.644,1.896c-0.904,1.043-1.563,1.946-1.464,2.007
	c0.287,0.177,0.208,0.505-0.094,0.389c-0.15-0.058-0.274-0.023-0.274,0.078c0,0.1,0.124,0.229,0.274,0.287
	c0.316,0.122,0.375,0.454,0.068,0.385c-0.439-0.097-0.334,0.407,0.215,1.033c0.407,0.463,0.728,0.655,1.094,0.655
	c0.285,0,0.749,0.199,1.03,0.441c0.47,0.405,0.495,0.487,0.3,1.003c-0.171,0.455-0.165,0.563,0.032,0.563
	c0.409,0,1.316,0.878,1.798,1.74c0.25,0.448,0.431,0.815,0.4,0.815c-0.192,0-1.371-0.571-1.453-0.703
	c-0.055-0.089-0.438-0.215-0.851-0.281c-0.954-0.153-1.958-0.667-2.542-1.3c-0.412-0.448-0.427-0.515-0.154-0.69
	c0.265-0.171,0.223-0.258-0.345-0.708c-0.745-0.593-1.748-0.683-2.613-0.235c-0.296,0.153-0.538,0.225-0.538,0.16
	s-0.127-0.012-0.283,0.117c-0.155,0.128-0.27,0.406-0.253,0.615c0.056,0.726-0.005,0.878-0.306,0.763
	c-0.234-0.09-0.272-0.025-0.185,0.32c0.071,0.287,0.001,0.527-0.208,0.713c-0.392,0.348-1.618,0.865-2.05,0.865
	c-0.176,0-0.428,0.13-0.559,0.288c-0.449,0.542-1.65,1.006-3.146,1.219c-1.594,0.226-1.764,0.327-1.768,1.057
	c-0.001,0.256-0.089,0.552-0.194,0.657c-0.244,0.244,0.379,0.671,1.439,0.989c1.219,0.365,1.26,0.637,0.086,0.563
	c-0.865-0.054-1.193,0.029-2.312,0.591c-0.717,0.361-1.96,1.189-2.763,1.84c-0.803,0.652-1.507,1.187-1.565,1.188
	s-0.07-0.234-0.028-0.524c0.042-0.289-0.004-0.576-0.103-0.637c-0.357-0.22-0.681,2.691-0.348,3.126
	c0.096,0.126,0.13,0.563,0.076,0.97c-0.072,0.54-0.029,0.767,0.159,0.839c0.256,0.098,0.37,0.607,0.135,0.607
	c-0.067,0-0.271-0.135-0.452-0.299c-0.306-0.276-0.338-0.276-0.446,0.002c-0.063,0.166-0.014,0.423,0.11,0.572
	c0.269,0.324,0.851,0.359,0.952,0.056c0.042-0.126,0.208-0.163,0.399-0.09c0.225,0.086,0.287,0.225,0.197,0.443
	c-0.072,0.175-0.176,0.482-0.23,0.683c-0.086,0.318-0.053,0.309,0.264-0.073c0.442-0.534,1.045-0.442,1.753,0.266
	c0.418,0.418,0.47,0.607,0.439,1.601c-0.033,1.066-0.06,1.129-0.508,1.182c-0.431,0.05-0.493,0.164-0.689,1.277
	c-0.119,0.673-0.262,1.439-0.32,1.703c-0.058,0.265-0.017,0.534,0.088,0.599c0.244,0.151,0.755-0.821,0.755-1.438
	c0-0.258,0.076-0.61,0.169-0.784c0.093-0.175,0.221-0.479,0.283-0.677c0.096-0.301,0.142-0.315,0.284-0.091
	c0.093,0.147,0.171,0.487,0.173,0.755c0.004,0.663,0.186,1.086,0.407,0.949c0.101-0.063,0.252-0.003,0.336,0.132
	c0.084,0.136,0.209,0.19,0.278,0.121c0.069-0.069-0.014-0.338-0.185-0.599c-0.17-0.26-0.276-0.571-0.235-0.69
	c0.041-0.119,0.005-0.461-0.079-0.76c-0.21-0.743-0.034-1.191,0.467-1.191c0.229,0,0.562-0.161,0.74-0.358
	c0.32-0.354,0.341-0.346,1.534,0.488c0.665,0.466,1.4,1.017,1.633,1.224l0.424,0.377l-0.48,0.412
	c-0.264,0.227-0.627,0.413-0.809,0.413c-0.201,0-0.787,0.604-1.496,1.543c-0.641,0.849-1.271,1.547-1.4,1.551
	c-0.13,0.005-0.476,0.185-0.769,0.402c-0.431,0.318-0.583,0.351-0.803,0.169c-0.148-0.124-0.296-0.373-0.327-0.554
	c-0.083-0.486-0.877-0.151-0.877,0.37c0,0.322,0.083,0.376,0.46,0.305c0.588-0.112,0.679,0.047,0.43,0.76
	c-0.155,0.446-0.278,0.55-0.545,0.465c-0.19-0.06-0.345-0.023-0.345,0.081c0,0.377-1.1,0.788-1.616,0.603
	c-0.266-0.094-1.098-0.187-1.851-0.205c-0.752-0.018-1.442-0.107-1.534-0.199c-0.1-0.1,0.067-0.384,0.42-0.714
	c0.616-0.575,0.602-0.915-0.064-1.468c-0.32-0.265-0.377-0.841-0.101-1.012c0.1-0.061,0.186-0.375,0.188-0.695
	c0.003-0.32,0.126-0.741,0.274-0.937c0.301-0.398,0.369-1.281,0.085-1.106c-0.1,0.063-0.183,0.313-0.183,0.558
	c0,0.246-0.072,0.446-0.159,0.446c-0.088,0-0.209,0.308-0.271,0.684s-0.359,1.205-0.662,1.84c-0.494,1.038-0.74,2.402-0.434,2.402
	c0.064,0,0.226-0.143,0.359-0.319c0.222-0.292,0.243-0.293,0.248-0.015c0.009,0.479-0.836,1.361-1.597,1.665
	c-1.548,0.62-2.935,2.955-2.74,4.617c0.068,0.583-0.041,0.723-0.493,0.625c-0.101-0.021-0.716-0.057-1.369-0.079
	c-0.653-0.021-1.432-0.164-1.734-0.318c-0.587-0.298-1.932-0.323-3.878-0.072c-1.046,0.134-1.141,0.119-1.144-0.196
	c-0.002-0.289-0.031-0.3-0.179-0.069c-0.139,0.215-0.178,0.22-0.18,0.023c-0.002-0.202-0.056-0.207-0.276-0.023
	c-0.382,0.317-0.341,0.06,0.086-0.541c0.355-0.499,0.356-0.511,0.009-0.824c-0.334-0.303-0.374-0.3-0.838,0.065
	c-0.268,0.21-0.56,0.336-0.65,0.281c-0.226-0.139-0.014-0.441,0.309-0.441c0.161,0,0.263-0.182,0.263-0.466v-0.465l-0.451,0.486
	l-0.451,0.486l-0.219-0.481c-0.288-0.63-0.609-0.506-0.588,0.226c0.021,0.683-0.165,0.737-0.571,0.169
	c-0.288-0.403-0.298-0.404-0.558-0.056c-0.146,0.194-0.265,0.458-0.265,0.587c0,0.135-0.119,0.188-0.28,0.125
	c-0.155-0.06-0.435,0.031-0.621,0.2c-0.195,0.176-0.386,0.232-0.448,0.133c-0.06-0.097,0.014-0.222,0.165-0.28
	c0.164-0.063,0.272-0.339,0.272-0.693c0-0.55-0.016-0.565-0.258-0.235c-0.142,0.194-0.217,0.417-0.167,0.499
	c0.05,0.081-0.008,0.267-0.13,0.413c-0.121,0.146-0.164,0.265-0.094,0.265c0.07,0-0.004,0.131-0.165,0.292
	c-0.207,0.206-0.259,0.468-0.179,0.891c0.067,0.358,0.032,0.65-0.087,0.724c-0.223,0.137,2.56,4.379,2.977,4.54
	c0.136,0.052,0.586,0.05,1-0.006c0.541-0.073,0.752-0.186,0.752-0.406c0-0.528,1.022-1.945,1.711-2.37
	c0.661-0.409,0.835-0.796,0.462-1.027c-0.109-0.067-0.157-0.283-0.105-0.478c0.055-0.209-0.014-0.397-0.167-0.456
	c-0.414-0.158-0.302-0.331,0.242-0.372c3.257-0.246,3.621-0.233,6.188,0.215c2.502,0.438,3.703,0.842,4.314,1.454
	c0.151,0.151,0.497,0.855,0.767,1.563c0.277,0.725,0.771,1.584,1.13,1.964c0.35,0.372,0.714,0.82,0.809,0.997
	c0.094,0.177,0.321,0.322,0.503,0.322c0.62,0,1.862,1.028,2.884,2.386c0.561,0.745,1.275,1.654,1.587,2.021
	c0.313,0.366,1.102,1.672,1.754,2.904c1.36,2.567,2.689,4.187,3.44,4.19c0.778,0.005,0.987,0.262,1.143,1.409
	c0.082,0.595,0.388,1.691,0.68,2.435c0.415,1.058,0.577,1.878,0.74,3.741c0.115,1.313,0.376,2.956,0.579,3.649
	c0.34,1.163,0.376,1.902,0.448,9.292c0.075,7.672,0.241,15.045,0.375,16.606c0.034,0.402,0.828,4.033,0.144,7.938
	c-0.691,3.949-0.362,7.529-0.293,7.83c0.305,1.341,1.195,2.031,1.623,2.14c0.938,0.233,2.639,0.038,2.557-5.819
	c-0.109-7.68-2.389-12.341-2.036-17.928c-0.093-2.422-0.045-14.305,0.062-15.191c0.073-0.597,0.579-0.103,1.123,1.094
	c1.446,3.184,1.723,3.746,2.27,4.609c1.125,1.772,1.234,2.473,1.311,8.363c0.038,2.927,0.105,5.691,0.148,6.143
	c-2.778,13.308,2.298,11.517,2.298,11.517c0.796-1.194,0.239-2.438-0.331-7.136c-0.14-1.756-0.172-11.147-0.047-13.504
	c0.079-1.488,0.33-2.754,0.598-3.022c0.495-0.496,0.804,3.13,0.854,10.035c0.02,2.603,0.067,4.784,0.108,4.851
	c0.101,0.163,0.119,9.803,0.02,10.492c-0.042,0.301-0.18,1.533-0.304,2.736c-0.138,1.34-0.249,1.75-0.535,2.742
	c0.02,1.979,0.315,2.93,1.068,2.93c0.478,0,2.946,0.326,1.833-5.333c-0.12-3.453,0.007-22.989,0.166-25.67
	c0.157-2.634,0.176-2.726,0.733-3.468c0.315-0.42,0.863-1.195,1.218-1.724c0.355-0.526,0.76-0.956,0.899-0.956
	c0.139,0,0.281-0.086,0.315-0.189c0.042-0.127,0.261-0.118,0.668,0.022c0.46,0.16,0.718,0.16,1.076-0.003
	c0.272-0.124,0.537-0.146,0.63-0.053c0.336,0.335,0.482,5.593,0.444,15.916c-0.031,8.222-0.107,12.697-0.19,14.367
	c-0.063,1.281-0.144,2.945-0.178,3.699c-0.089,1.951-0.125,2.806-0.407,4.278c-0.133,0.702-0.667,5.373-0.718,5.683
	c-0.124,0.748,0.051,4.021,0.635,4.402c0.782,0.512,3.169,0.193,3.483-2.787c0.153-1.455-0.036-3.553,0.066-4.416
	c0.102-0.865-1.046-7.336-0.925-10.205c0.144-3.396,0.418-8.656,0.471-12.695c0.052-4.04,0.081-9.721,0.063-12.624
	c-0.022-3.597,0.026-5.222,0.153-5.093c0.267,0.267,3.813,0.084,4.298-0.223c0.213-0.134,0.553-0.199,0.755-0.146
	c0.202,0.054,0.423,0.007,0.49-0.103c0.174-0.282,0.494-0.239,0.965,0.125c0.381,0.294,0.397,0.392,0.242,1.41
	c-0.091,0.603-0.225,2.614-0.297,4.472c-0.072,1.855-0.152,3.664-0.179,4.014c-0.081,1.066-0.083,4.009-0.004,5.748
	c0.041,0.904,0.124,4.889,0.184,8.853c0.06,3.964,0.198,8.438,0.306,9.945c0.108,1.506,0.22,3.601,0.249,4.653
	c0.138,5.156,0.413,32.33,0.743,32.767c0.139,0.185,0.452,2.799,0.555,3.149c0.103,0.35-1.688,5.49-1.58,6.595
	c0.279,3.716,3.307,2.997,3.982,2.633c3.595-4.49-0.287-11.688-0.423-14.415c-1.157-7.325-0.157-26.012-0.272-27.05
	c-0.14-1.265-0.148-1.949-0.025-2.072c0.117-0.116,0.123-0.392,0.017-0.758c-0.09-0.315-0.157-1.411-0.147-2.437
	c0.01-1.023-0.033-1.941-0.095-2.041c-0.125-0.205-0.146-6.197-0.023-7.047c0.137-0.949,0.099-8.052-0.065-12.136
	c-0.087-2.158-0.127-4.334-0.091-4.836c0.038-0.503,0.147-2.124,0.244-3.604c0.097-1.48,0.228-2.774,0.29-2.877
	c0.063-0.101,0.115-1.42,0.116-2.934c0.001-2.418,0.036-2.734,0.287-2.641c0.172,0.066,0.389-0.037,0.544-0.258
	c0.269-0.385,0.723-0.531,0.494-0.158c-0.08,0.129-0.05,0.16,0.077,0.082c0.584-0.36,1.378,1.096,1.928,3.537
	c0.168,0.754,1.952,3.305,3.127,4.479c1.134,1.131,1.397,1.681,1.648,3.424c0.105,0.733,0.07,0.92-0.216,1.142
	c-0.21,0.164-0.236,0.229-0.067,0.17c0.213-0.071,0.277,0.078,0.292,0.687c0.011,0.427,0.085,2.583,0.164,4.792
	c0.079,2.208,0.168,5.492,0.199,7.299c0.031,1.809,0.068,3.531,0.083,3.833c0.015,0.302,0.03,2.56,0.034,5.019
	c0.003,2.459,0.008,4.636,0.009,4.836c0.003,0.586-0.085,1.859-0.286,4.109c-0.231,2.602-0.115,3.344,0.59,3.762
	c0.52,0.308,0.921,0.936,0.921,1.441c0,0.799,1.796,2.458,2.663,2.458c0.957,0,1.03-2.128,0.12-3.504
	c-0.446-0.673-0.673-1.694-0.846-3.796c-0.021-0.25-0.103-0.76-0.184-1.13c-0.136-0.624-0.098-0.716,0.506-1.247
	c0.359-0.316,0.954-1.08,1.321-1.699c0.367-0.619,0.785-1.313,0.927-1.545l0.259-0.421l0.634,0.558
	c0.748,0.656,0.8,0.672,0.675,0.194c-0.052-0.2-0.161-0.321-0.245-0.271c-0.247,0.152-0.721-0.688-0.719-1.277
	c0.001-0.387,0.188-0.732,0.619-1.15c0.465-0.453,0.646-0.813,0.734-1.462c0.143-1.041,0.641-2.257,0.868-2.116
	c0.09,0.055,0.119,0.246,0.063,0.422c-0.063,0.195,0.112,0.591,0.455,1.021c0.306,0.385,0.514,0.813,0.461,0.951
	c-0.053,0.137-0.024,0.205,0.064,0.15c0.323-0.201,0.421,0.826,0.553,5.752c0.074,2.768,0.187,5.115,0.25,5.219
	c0.063,0.103,0.029,0.629-0.075,1.17c-0.103,0.543-0.182,1.191-0.175,1.441c0.036,1.24-0.897,4.379-1.898,6.389
	c-0.604,1.211-0.922,2.656-0.626,2.839c0.09,0.058,0.165,0.299,0.165,0.537c0,0.733,0.385,0.745,0.96,0.028
	c0.294-0.367,0.65-0.668,0.791-0.668c0.171,0,0.257-0.211,0.257-0.631c0-0.427,0.141-0.768,0.436-1.049
	c0.707-0.678,0.936-3.07,0.377-3.925c-0.233-0.354-0.228-0.529,0.043-1.46c0.263-0.902,0.313-2.121,0.346-8.355
	c0.031-5.774-0.014-7.485-0.214-8.191c-0.147-0.516-0.206-1.192-0.142-1.6c0.083-0.524-0.017-1.061-0.391-2.088
	c-0.482-1.322-0.495-1.438-0.286-2.689c0.121-0.719,0.244-1.965,0.274-2.768c0.029-0.803,0.16-1.707,0.291-2.009
	c0.13-0.301,0.218-0.624,0.196-0.717c-0.103-0.429,0.195-1.017,0.514-1.017c0.188,0,0.39-0.127,0.45-0.28
	c0.136-0.354,1.513-0.99,2.121-0.981c0.454,0.008,0.454,0.01,0.045,0.172c-0.226,0.092-0.41,0.215-0.41,0.273
	c0,0.061,0.082,0.059,0.183-0.004c0.313-0.194,0.202,0.09-0.289,0.732c-0.259,0.34-0.582,0.982-0.716,1.43
	c-0.233,0.775-0.225,0.828,0.198,1.227c0.244,0.229,0.441,0.534,0.441,0.682c0,0.209,0.055,0.218,0.264,0.043
	c0.146-0.119,0.453-0.19,0.685-0.158c0.342,0.05,0.415,0.162,0.388,0.607c-0.018,0.301-0.07,4.131-0.116,8.514
	c-0.045,4.381-0.137,8.056-0.206,8.166c-0.067,0.109-0.036,0.201,0.07,0.201c0.478,0,0.026,2.897-0.665,4.279
	c-0.253,0.508-0.669,1.198-0.925,1.539c-0.255,0.34-0.483,0.854-0.505,1.141c-0.088,1.119,0.827,0.322,1.532-1.33
	c0.291-0.687,0.354-0.741,0.458-0.412c0.067,0.211,0.328,0.492,0.58,0.627c1.911,1.021,3.062-2.956,2.639-9.129
	c-0.073-1.094-0.026-1.491,0.233-1.979c0.269-0.504,0.285-0.662,0.091-0.896c-0.381-0.461-0.195-9.719,0.195-9.717
	c0.248,0.002,1.303,0.733,1.303,0.903c0,0.099,0.129,0.13,0.285,0.07c0.188-0.072,0.318,0.018,0.383,0.267
	c0.057,0.213,0.201,0.336,0.336,0.285c0.131-0.05,0.291-0.003,0.357,0.104c0.066,0.107,0.251,0.194,0.411,0.194
	c0.476,0,2.425,0.767,2.331,0.916c-0.047,0.077-0.122,0.429-0.167,0.779c-0.046,0.351-0.222,0.954-0.394,1.341
	c-0.173,0.389-0.334,0.814-0.361,0.951c-0.066,0.314-1.971,3.72-2.631,4.701c-0.789,1.175-2.238,3.902-2.07,3.898
	c0.083-0.003,0.645-0.869,1.246-1.93s1.361-2.282,1.688-2.723c0.326-0.438,0.594-0.879,0.594-0.978c0-0.098,0.203-0.419,0.451-0.714
	c0.248-0.296,0.533-0.754,0.635-1.018c0.102-0.266,0.287-0.482,0.414-0.482c0.14,0,0.24-0.244,0.25-0.593
	c0.013-0.327,0.17-0.923,0.355-1.323c0.184-0.4,0.346-0.813,0.355-0.912c0.147-1.271,0.643-2.102,0.889-1.494
	c0.066,0.161,0.092,0.158,0.104-0.013c0.008-0.124,0.137-0.228,0.289-0.228c0.148,0,0.273,0.104,0.275,0.228
	c0.002,0.167,0.047,0.16,0.162-0.022c0.088-0.139,0.254-0.19,0.371-0.119c0.209,0.13,0.166,2.91-0.08,5.115
	c-0.128,1.143-0.125,2.732,0.01,6.114c0.1,2.453,0.145,2.722,0.637,3.677c0.307,0.601,0.604,1.558,0.703,2.282
	c0.096,0.687,0.404,1.878,0.686,2.648c0.5,1.368,0.505,1.411,0.191,2.008c-0.174,0.334-0.559,0.937-0.854,1.337
	c-0.354,0.479-0.542,0.954-0.545,1.379c-0.004,0.355-0.077,0.727-0.168,0.82c-0.092,0.1-0.092,0.676,0.004,1.359
	c0.089,0.651,2.418,33.078,2.472,33.932c0.763,1.591,2.378,26.928-1.394,38.249c-0.223,0.848-1.094,3.085-0.51,6.177
	c0.414,1.398,1.805,2.018,3.068,1.364c0.643-0.333,3.412-1.671,3.291-6.513c0.436-2.39,0.453-20.037-0.543-30.771
	c-0.879-7.688-3.217-42.706-0.439-43.782c0.34-0.218,0.813-0.791,1.07-1.301c0.256-0.502,0.582-1.118,0.725-1.369
	c0.379-0.665,0.324-1.271-0.198-2.19c-0.257-0.451-0.513-0.963-0.568-1.14c-0.058-0.176-0.187-0.319-0.287-0.319
	c-0.1,0-0.133-0.123-0.073-0.273c0.063-0.164,0-0.273-0.158-0.273c-0.152,0-0.221-0.108-0.163-0.259
	c0.065-0.17-0.046-0.28-0.318-0.319c-0.346-0.049-0.452-0.23-0.62-1.063c-0.111-0.552-0.332-1.414-0.492-1.916
	c-0.16-0.501-0.297-1.035-0.305-1.187c-0.277-5.011-0.387-6.742-0.449-7.104c-0.097-0.55,0.33-2.019,0.65-2.245
	c0.188-0.132,0.189-0.188,0.009-0.259c-0.125-0.052-0.228-0.374-0.228-0.718c0-0.495,0.072-0.623,0.354-0.623
	c0.389,0,0.674-0.316,0.46-0.514c-0.073-0.068-0.171-0.022-0.216,0.104c-0.152,0.427-0.393,0.229-0.376-0.312
	c0.011-0.396,0.117-0.559,0.397-0.615c0.363-0.069,0.361-0.075-0.026-0.1c-0.39-0.022-0.55-0.371-0.292-0.631
	c0.064-0.064,0.109-0.729,0.1-1.475c-0.015-0.981,0.055-1.416,0.245-1.576c0.188-0.154,0.267-0.159,0.267-0.016
	c0,0.111,0.145,0.207,0.32,0.209c0.196,0,0.241,0.053,0.117,0.137c-0.348,0.23-0.414,1.113-0.104,1.363
	c0.229,0.187,0.256,0.185,0.14-0.008c-0.089-0.148,0.006-0.367,0.254-0.584c0.276-0.238,0.362-0.459,0.279-0.721
	c-0.065-0.206-0.195-0.375-0.29-0.375c-0.286,0-0.189-0.501,0.117-0.619c0.404-0.154,0.386-0.171,0.509,0.447
	c0.12,0.604,0.659,1.307,0.668,0.87c0.002-0.134,0.114,0.005,0.252,0.306c0.137,0.301,0.586,1.273,1,2.162
	c0.413,0.887,0.696,1.709,0.632,1.825c-0.066,0.116-0.05,0.146,0.035,0.067c0.087-0.08,0.266,0.043,0.396,0.273
	c0.209,0.362,0.225,0.266,0.127-0.77c-0.158-1.715-0.554-3.813-0.875-4.654c-0.293-0.773-0.392-1.563-0.111-0.912l0.158,0.363
	l0.016-0.363c0.012-0.305,0.045-0.318,0.191-0.093c0.119,0.184,0.178,0.198,0.18,0.047c0.002-0.126,0.165-0.229,0.363-0.229
	c0.214,0,0.601-0.328,0.957-0.813c0.33-0.447,0.641-0.815,0.69-0.818c0.05-0.001,0.374,1.14,0.72,2.537s0.682,2.509,0.746,2.47
	c0.11-0.068,0.002-1.162-0.289-2.877c-0.121-0.727-0.111-0.75,0.215-0.498c0.238,0.184,0.218,0.123-0.065-0.195
	c-0.474-0.532-0.776-1.676-0.421-1.592c0.123,0.03,0.316-0.088,0.432-0.261c0.168-0.253,0.139-0.382-0.144-0.639
	c-0.22-0.2-0.282-0.22-0.169-0.052c0.16,0.24,0.182,0.429,0.094,0.834c-0.036,0.168-0.57-0.422-0.57-0.627
	c0-0.104,0.197-0.399,0.439-0.662l0.439-0.475l0.137,0.604c0.076,0.33,0.152,0.725,0.174,0.876c0.021,0.149,0.088,0.396,0.15,0.547
	c0.144,0.349,0.564,2.698,1.031,5.749c0.239,1.559,0.325,2.754,0.251,3.482c-0.071,0.719-0.036,1.256,0.104,1.518
	c0.298,0.556,0.367,0.97,0.453,2.663c0.039,0.804,0.138,2.364,0.217,3.469c0.138,1.935,0.148,1.972,0.281,1.003
	c0.076-0.552,0.229-2.029,0.34-3.285c0.109-1.254,0.236-2.609,0.283-3.01c0.045-0.402-0.051-1.484-0.213-2.404
	c-0.267-1.509-0.269-1.763-0.02-2.556c0.375-1.194,0.301-6.19-0.118-7.997c-0.44-1.893-0.793-6.244-0.524-6.511
	c0.158-0.159,0.306,0.009,0.599,0.687c0.215,0.493,0.405,0.979,0.423,1.079c0.018,0.101,0.094,0.278,0.166,0.396
	c0.07,0.115,0.082,0.342,0.02,0.502c-0.061,0.158-0.027,0.289,0.072,0.289s0.324,0.801,0.497,1.779
	c0.408,2.314,0.354,2.183,0.847,2.144c0.309-0.027,0.414-0.134,0.377-0.382c-0.047-0.336-0.041-0.336,0.229,0.007
	c0.151,0.194,0.285,0.442,0.293,0.549c0.036,0.455,0.118,0.964,0.252,1.562l0.144,0.639l-0.387-0.348
	c-0.214-0.19-0.396-0.561-0.406-0.82c-0.019-0.442-0.027-0.438-0.153,0.09c-0.074,0.311-0.193,0.659-0.267,0.775
	c-0.125,0.201,0.086,0.287,0.561,0.229c0.307-0.037,0.992,1.914,0.88,2.502c-0.073,0.383-0.062,0.412,0.062,0.135
	c0.179-0.41,0.281,0.092,0.504,2.438c0.099,1.039,0.078,1.318-0.094,1.212c-0.171-0.104-0.168-0.052,0.006,0.229
	c0.397,0.637,0.766,0.274,0.66-0.652c-0.052-0.449-0.025-1.051,0.055-1.332c0.089-0.305,0.076-0.536-0.028-0.571
	c-0.099-0.032-0.151-0.659-0.12-1.424c0.046-1.163,0.086-1.312,0.271-0.987c0.187,0.325,0.343,0.944,0.408,1.629
	c0.01,0.1,0.086,0.074,0.17-0.058c0.084-0.131,0.068-0.599-0.029-1.034c-0.155-0.677-0.133-0.845,0.142-1.12
	c0.286-0.284,0.312-0.54,0.203-2.067c-0.065-0.959-0.19-2.051-0.278-2.428c-0.121-0.537-0.102-0.684,0.1-0.684
	c0.285,0,0.343-0.289,0.088-0.447c-0.094-0.057-0.201-0.002-0.241,0.12c-0.042,0.124-0.28-0.431-0.532-1.229
	c-0.433-1.379-0.484-2.023-0.147-1.814c0.085,0.051,0.075-0.174-0.019-0.502c-0.307-1.064-0.213-1.725,0.301-2.129
	c0.402-0.316,0.453-0.461,0.342-0.969c-0.107-0.488-0.086-0.562,0.121-0.406c0.14,0.104,0.475,0.283,0.744,0.398
	c0.414,0.176,0.478,0.166,0.392-0.056c-0.056-0.146-0.177-0.267-0.265-0.267c-0.09,0-0.164-0.157-0.164-0.35
	c0-0.509-0.189-0.929-0.42-0.929c-0.135,0-0.127,0.073,0.021,0.22c0.347,0.348,0.272,0.855-0.108,0.756
	c-0.254-0.065-0.311-0.225-0.254-0.711c0.039-0.345,0.133-0.589,0.202-0.547c0.072,0.045,0.097-0.152,0.054-0.438
	c-0.055-0.368,0.047-0.643,0.342-0.938c0.248-0.248,0.334-0.445,0.211-0.486c-0.301-0.101-0.059-0.592,0.295-0.6
	c0.275-0.005,0.275-0.019-0.004-0.182c-0.187-0.108-0.266-0.316-0.206-0.539c0.051-0.201,0.174-0.313,0.272-0.254
	c0.1,0.063,0.152-0.078,0.125-0.321c-0.07-0.595,0.385-2.369,0.577-2.25c0.086,0.054,0.113,0.209,0.062,0.347
	c-0.125,0.328,0.152,0.487,0.386,0.222c0.284-0.325,0.276-0.888-0.009-0.778c-0.334,0.128-0.51-0.501-0.361-1.292
	c0.08-0.431,0.242-0.675,0.488-0.739c0.283-0.074,0.313-0.134,0.125-0.256s-0.092-0.302,0.404-0.765
	c0.356-0.334,0.619-0.724,0.582-0.865c-0.037-0.146,0.058-0.104,0.219,0.097c0.156,0.194,0.285,0.471,0.285,0.615
	c0,0.223,0.045,0.225,0.309,0.012c0.17-0.139,0.253-0.158,0.184-0.043c-0.135,0.226,0.399,0.518,0.584,0.318
	c0.061-0.066,0.008-0.158-0.117-0.202c-0.143-0.051-0.187-0.248-0.117-0.522c0.125-0.495-0.184-0.605-0.436-0.155
	c-0.145,0.26-0.182,0.26-0.396,0c-0.13-0.156-0.181-0.285-0.11-0.285s0.002-0.125-0.152-0.278c-0.152-0.152-0.238-0.386-0.188-0.516
	c0.128-0.332,1.133-0.152,1.231,0.221c0.071,0.271,0.082,0.271,0.101-0.009c0.013-0.17-0.062-0.36-0.161-0.422
	c-0.314-0.194-0.197-0.774,0.178-0.872c0.299-0.078,0.359,0,0.364,0.479c0.002,0.316,0.035,0.739,0.067,0.939
	c0.035,0.202,0.128,1.023,0.205,1.826c0.078,0.803,0.226,1.563,0.326,1.689c0.226,0.279,0.313,2.709,0.41,11.084
	c0.038,3.514,0.122,7.18,0.187,8.147c0.073,1.132,0.048,1.801-0.073,1.876c-0.104,0.064-0.143,0.236-0.085,0.384
	c0.058,0.148,0.01,0.269-0.103,0.269c-0.139,0-0.119,0.138,0.055,0.41c0.176,0.274,0.267,0.98,0.279,2.145
	c0.013,0.953,0.097,2.186,0.188,2.736c0.093,0.554,0.261,2.729,0.373,4.837c0.112,2.108,0.247,3.977,0.297,4.151
	c0.304,1.041,1.035-0.595,0.897-2.008c-0.057-0.576-0.146-1.665-0.197-2.418c-0.055-0.752-0.167-2.23-0.25-3.285
	c-0.148-1.861-0.124-2.248,0.134-2.145c0.068,0.027,0.438-0.258,0.819-0.637l0.695-0.687h-0.547c-0.377,0-0.58,0.106-0.656,0.349
	c-0.184,0.573-0.551,0.781-0.566,0.32c-0.008-0.217-0.066-1.646-0.133-3.176c-0.121-2.839-0.064-3.424,0.303-3.209
	c0.115,0.066,0.064-0.043-0.111-0.244c-0.27-0.311-0.318-0.744-0.318-2.865c0-2.453,0.007-2.498,0.369-2.305
	c0.203,0.107,0.469,0.136,0.593,0.061c0.565-0.346,0.614-0.494,0.39-1.146c-0.197-0.566-0.293-0.643-0.771-0.604l-0.545,0.045
	l0.024-2.736c0.013-1.506,0.07-2.736,0.128-2.736c0.057,0,0.223,0.104,0.366,0.229s0.058-0.01-0.192-0.299
	c-0.312-0.361-0.381-0.553-0.225-0.608c0.126-0.044,0.229-0.16,0.229-0.259c0-0.098-0.082-0.129-0.184-0.064
	c-0.102,0.061-0.183-0.011-0.183-0.161c0-0.442,0.327-0.517,0.46-0.103c0.066,0.21,0.162,0.342,0.21,0.292
	c0.151-0.151-0.313-0.867-0.49-0.759c-0.209,0.131-0.187-4.342,0.024-4.479c0.186-0.122,0.252-3.349,0.072-3.639
	c-0.217-0.352,0.076-1.508,0.354-1.4c0.278,0.106,0.522-0.553,0.265-0.712c-0.092-0.058-0.166-0.196-0.166-0.313
	c0-0.584,0.639,0.549,1.121,1.988c0.301,0.891,0.668,1.813,0.819,2.043c0.349,0.537,0.446,0.95,0.554,2.314
	c0.064,0.854,0.038,1.035-0.128,0.82c-0.173-0.225-0.185-0.207-0.062,0.093c0.176,0.432,0.211,1.183,0.352,7.663
	c0.084,3.775,0.059,4.863-0.104,4.654c-0.18-0.229-0.191-0.213-0.084,0.09c0.069,0.201,0.172,0.728,0.226,1.168
	c0.079,0.656,0.052,0.775-0.157,0.649c-0.218-0.131-0.218-0.106-0.002,0.159c0.207,0.254,0.237,1.16,0.164,4.916
	c-0.068,3.47-0.034,4.74,0.141,5.15c0.127,0.303,0.321,0.89,0.432,1.307c0.109,0.417,0.357,0.95,0.549,1.186l0.346,0.43l0.225-0.496
	c0.187-0.402,0.174-0.721-0.066-1.732c-0.161-0.681-0.33-1.813-0.376-2.516c-0.047-0.702-0.146-2.174-0.219-3.27
	c-0.111-1.637-0.093-1.963,0.106-1.84c0.241,0.149,0.236,0.121-0.13-0.777c-0.052-0.125,0.001-0.228,0.115-0.228
	c0.147,0,0.155-0.101,0.021-0.353c-0.185-0.344-0.125-2.411,0.078-2.74c0.058-0.092,0.021-0.219-0.08-0.28
	c-0.19-0.118-0.209-1.555-0.021-1.554c0.06,0,0.084-1.932,0.056-4.289c-0.039-3.156,0.004-4.289,0.159-4.289
	c0.142,0,0.152-0.076,0.036-0.229c-0.213-0.277-0.311-1.847-0.105-1.722c0.078,0.052,0.115-0.606,0.078-1.461
	c-0.043-1.073,0.006-1.616,0.163-1.761c0.177-0.167,0.205-0.124,0.13,0.189c-0.054,0.222-0.023,0.426,0.063,0.457
	c0.089,0.028,0.214,2.18,0.276,4.778c0.09,3.492,0.064,4.69-0.086,4.599c-0.115-0.071-0.207-0.043-0.207,0.063
	s0.08,0.192,0.178,0.192c0.26,0,0.025,5.348-0.24,5.519c-0.157,0.103-0.157,0.135,0.003,0.138c0.151,0.002,0.188,0.383,0.121,1.325
	c-0.071,0.991-0.028,1.411,0.172,1.675c0.257,0.34,0.274,0.334,0.601-0.162c0.293-0.444,0.342-0.967,0.379-4
	c0.021-1.92,0.045-3.557,0.054-3.637c0.007-0.082,0.114-0.087,0.239-0.011c0.162,0.096,0.156,0.048-0.017-0.166
	c-0.186-0.229-0.229-0.882-0.183-2.662c0.033-1.298,0.133-2.315,0.22-2.265c0.086,0.053,0.097-0.101,0.022-0.338
	c-0.141-0.467-0.144-0.484-0.11-0.873c0.019-0.199,0.103-0.184,0.388,0.074c0.2,0.183,0.365,0.279,0.365,0.217
	c0-0.062-0.168-0.269-0.374-0.459c-0.331-0.309-0.373-0.572-0.379-2.353c-0.007-3.002,0.245-4.049,0.987-4.088
	c0.309-0.017,0.328-0.041,0.085-0.104c-0.409-0.106-0.405-0.166,0.122-1.845c0.244-0.772,0.574-1.881,0.736-2.461
	c0.162-0.582,0.373-1.007,0.471-0.948c0.097,0.061,0.176,0.813,0.176,1.67c0,1.371-0.037,1.545-0.299,1.443
	c-0.228-0.086-0.254-0.057-0.113,0.118c0.104,0.127,0.223,0.749,0.266,1.379c0.067,0.97,0.036,1.131-0.195,1.041
	c-0.211-0.08-0.197-0.021,0.051,0.254c0.305,0.338,0.316,0.806,0.204,7.444c-0.065,3.896-0.11,7.729-0.097,8.517
	c0.014,0.962-0.041,1.392-0.172,1.312c-0.104-0.063-0.19-0.03-0.19,0.076c0,0.105,0.093,0.191,0.206,0.191
	c0.152,0,0.186,1.366,0.121,5.111c-0.068,4.047-0.037,5.152,0.149,5.309c0.938,0.779,0.984-0.191,1.28-26.66
	c0.074-6.515,0.166-9.293,0.313-9.479c0.166-0.209,0.156-0.231-0.047-0.109c-0.211,0.127-0.232,0.015-0.125-0.649
	c0.071-0.442,0.15-0.945,0.176-1.119c0.078-0.527,0.252-0.562,0.881-0.18c0.332,0.202,1.339,0.748,2.236,1.211
	c0.898,0.464,1.803,0.994,2.008,1.175c0.205,0.184,0.654,0.443,0.998,0.578c0.344,0.137,1.282,0.735,2.086,1.332
	c1.465,1.086,2.692,1.754,3.236,1.762c0.16,0.002,0.436-0.154,0.608-0.348c0.301-0.332,0.3-0.39-0.033-1.141
	c-0.438-0.982-1.429-1.888-3.169-2.891c-1.656-0.955-2.455-1.69-2.883-2.653c-0.27-0.611-0.549-0.855-1.605-1.411
	c-1.361-0.715-1.797-1.094-1.609-1.398c0.066-0.107,0.009-0.146-0.135-0.092c-0.138,0.053-0.679-0.174-1.201-0.504
	c-0.797-0.503-0.939-0.674-0.881-1.057c0.078-0.513,0.396-2.197,0.771-4.106c0.139-0.702,0.302-1.544,0.363-1.871
	c0.084-0.437,0.209-0.593,0.482-0.593c0.281,0,0.34-0.077,0.239-0.319c-0.274-0.667-0.31-0.958-0.112-0.958
	c0.113,0,0.374-0.17,0.581-0.378l0.376-0.377l-0.648-0.793c-0.358-0.437-0.651-0.985-0.653-1.22
	c-0.003-0.327-0.041-0.364-0.17-0.162c-0.136,0.213-0.256,0.223-0.636,0.049c-0.395-0.179-0.473-0.341-0.484-0.993
	c-0.008-0.43-0.052-1.004-0.098-1.279c-0.067-0.411-0.024-0.481,0.244-0.399c0.236,0.071,0.215,0.015-0.086-0.208
	c-0.227-0.168-0.41-0.47-0.41-0.67c0-0.335,0.09-0.354,1.185-0.263c0.651,0.055,1.274,0.156,1.388,0.225
	c0.233,0.145,1.99-0.629,1.99-0.876c0-0.558-2.018-1.862-2.777-1.796c-0.492,0.042-1.42-0.654-1.42-1.066
	c0-0.32,0.758-0.7,2.534-1.275c1.796-0.58,2.351-0.863,3.147-1.604c0.31-0.287,0.525-0.377,0.605-0.25
	c0.225,0.366,0.68,0.229,0.557-0.167c-0.182-0.567,0.145-0.427,0.514,0.22c0.264,0.465,0.365,0.529,0.499,0.318
	c0.092-0.145,0.169-0.443,0.17-0.663c0.001-0.235,0.149-0.445,0.368-0.514c0.479-0.152,0.459-0.239-0.244-1.059
	c-0.55-0.644-0.633-0.681-1.119-0.495c-0.586,0.222-1.432,0.099-1.721-0.25c-0.465-0.559,1.093-1.717,1.962-1.459
	c0.267,0.079,0.771,0.151,1.122,0.161c2.38,0.067,2.372,0.064,2.372,0.528c0,0.24-0.13,0.486-0.289,0.547
	c-0.403,0.155-0.44,0.144-0.44-0.141c0-0.451-0.48-0.709-0.9-0.484c-0.504,0.27-0.512,1.1-0.012,1.23
	c0.404,0.107,0.49,0.52,0.137,0.664c-0.318,0.129,0.539,0.804,1.217,0.955c0.293,0.066,0.786,0.275,1.096,0.463
	c1.49,0.909,2.373-0.184,1.637-2.024c-0.16-0.404-0.396-0.734-0.521-0.734c-0.266,0-1.191-0.692-1.191-0.89
	c0-0.315,1.879-0.75,3.649-0.846c3.632-0.195,4.211-0.276,4.157-0.582c-0.028-0.154,0.072-0.346,0.223-0.427
	c0.555-0.295,2.01-0.906,2.16-0.906c0.086,0,0.304-0.162,0.48-0.36c0.308-0.338,0.309-0.39,0.025-0.821
	c-0.205-0.312-0.468-0.461-0.814-0.461c-0.283,0-0.565-0.052-0.629-0.115c-0.063-0.063-0.631-0.139-1.263-0.167
	c-0.63-0.029-1.372-0.139-1.649-0.246c-0.356-0.137-0.629-0.135-0.943,0.008c-0.521,0.238-2.251,0.04-1.982-0.228
	c0.094-0.094,0.74-0.224,1.437-0.287c0.694-0.063,1.305-0.167,1.354-0.231c0.125-0.16,3.768-0.75,4.596-0.745
	c0.371,0.002,0.879,0.083,1.135,0.18c0.299,0.113,0.502,0.112,0.572-0.002c0.064-0.108,0.254-0.076,0.479,0.082
	c0.321,0.225,0.457,0.223,1.021-0.012c0.435-0.182,0.871-0.229,1.307-0.141c0.986,0.198,1.538,0.219,1.842,0.072
	c0.15-0.073,1.096-0.053,2.1,0.045s3.166,0.191,4.806,0.207c2.649,0.027,3.006,0.067,3.222,0.362c0.2,0.273,0.271,0.287,0.396,0.077
	c0.271-0.452,1.313-0.964,1.529-0.749c0.131,0.132,0.476,0.136,1.09,0.014c0.699-0.138,1.092-0.114,1.762,0.106
	c0.793,0.261,0.88,0.259,1.086-0.022c0.122-0.168,0.203-0.325,0.18-0.348c-0.023-0.024-1.021-0.056-2.222-0.07
	c-1.655-0.021-2.254-0.094-2.495-0.305c-0.548-0.477-2.117-0.931-2.329-0.676c-0.124,0.149-0.661,0.199-1.688,0.152
	c-0.826-0.039-2.571-0.06-3.877-0.052c-1.617,0.012-2.808-0.079-3.74-0.29c-2.186-0.491-2.323-0.502-2.862-0.242
	c-0.399,0.191-1.288,0.226-3.981,0.156c-2.963-0.078-3.6-0.046-4.379,0.222c-1.957,0.673-5.186,0.286-7.424-0.891
	c-1.357-0.714-1.975-0.908-1.975-0.622c0,0.092,0.607,0.456,1.352,0.808c0.742,0.353,1.396,0.718,1.453,0.812
	c0.061,0.093,0.335,0.139,0.613,0.101c0.431-0.059,0.451-0.044,0.141,0.103c-0.201,0.095-1.146,0.188-2.099,0.207
	c-1.647,0.033-1.69,0.044-0.866,0.215c0.477,0.099,0.866,0.282,0.866,0.406c0,0.313-0.808,0.647-1.563,0.647
	c-0.498,0-0.68-0.097-0.84-0.451c-0.115-0.251-0.467-0.538-0.795-0.646c-0.324-0.106-0.9-0.464-1.281-0.792l-0.69-0.598l0.43-0.582
	c0.533-0.721,0.779-0.729,1.267-0.045c0.345,0.484,0.435,0.518,0.914,0.351c1.07-0.374,1.041-0.612-0.201-1.562
	c-1.854-1.418-2.348-1.929-2.611-2.7l-0.248-0.727l0.939-0.459c0.52-0.252,0.939-0.574,0.939-0.716s-0.286-0.357-0.638-0.48
	c-0.353-0.123-0.614-0.326-0.584-0.452c0.028-0.126,0.53-0.772,1.114-1.437c1.418-1.608,1.814-2.393,1.215-2.393
	c-0.144,0-0.443,0.267-0.668,0.594c-0.633,0.921-1.303,1.596-1.588,1.596c-0.143,0-0.502,0.205-0.801,0.457
	c-0.703,0.591-0.906,0.575-1.414-0.113c-0.373-0.505-0.498-0.559-1.115-0.475c-0.555,0.074-0.771,0.012-1.073-0.311
	c-0.502-0.535-0.511-1.084-0.015-0.927c0.283,0.089,0.365,0.033,0.365-0.245c0-0.199,0.229-0.553,0.506-0.788
	c0.277-0.235,0.479-0.563,0.445-0.729c-0.031-0.166,0.028-0.355,0.135-0.421c0.244-0.151,0.252-1.316,0.01-1.466
	c-0.26-0.16-0.227-1.107,0.045-1.321c0.205-0.161,1.029-0.44,1.507-0.511c0.101-0.015,0.388-0.111,0.638-0.213
	c0.252-0.103,0.941-0.247,1.535-0.319c0.594-0.073,1.251-0.202,1.46-0.287c0.901-0.364-1.162-0.154-2.722,0.277
	c-2.116,0.585-2.36,0.591-2.084,0.048c0.561-1.108,2.434-4.152,2.552-4.152c0.075,0,0.219,0.226,0.317,0.502
	c0.1,0.276,0.6,0.939,1.107,1.475c0.694,0.73,1.012,0.944,1.277,0.86c0.543-0.173,1.701,1.113,1.566,1.74
	c-0.125,0.598,0.19,1.446,0.543,1.446c0.435,0,0.625-0.537,0.435-1.227c-0.188-0.685-0.033-1.757,0.231-1.593
	c0.092,0.057,0.168,0.021,0.168-0.079s-0.07-0.227-0.158-0.28c-0.287-0.177,0.004-1.103,0.47-1.497
	c0.442-0.375,0.446-0.402,0.149-0.859c-0.328-0.499-0.248-0.853,0.188-0.853c0.382,0,0.322-0.606-0.141-1.404
	c-0.221-0.382-0.449-0.735-0.508-0.785c-0.058-0.051-0.103-0.489-0.099-0.974c0.005-0.712-0.077-0.951-0.425-1.232
	c-0.456-0.369-1.569-0.474-1.76-0.167c-0.063,0.1-0.205,0.183-0.315,0.183s-0.026-0.189,0.188-0.419
	c1.346-1.431-0.056-3.167-1.438-1.785c-0.292,0.293-0.532,0.663-0.532,0.821c0,0.214-0.188,0.288-0.729,0.288
	c-1.076,0-1.468,0.466-1.382,1.652c0.064,0.915,0.125,1.008,1.072,1.656c0.09,0.063,0.114,0.274,0.053,0.47
	c-0.084,0.267-0.271,0.353-0.746,0.342c-0.52-0.011-0.616-0.072-0.532-0.333c0.084-0.271,0.032-0.294-0.333-0.155
	c-0.255,0.097-0.553,0.098-0.727,0c-0.269-0.151-0.269-0.24,0.002-1.082c0.246-0.772,0.259-1.082,0.076-1.947
	c-0.121-0.574-0.396-1.222-0.625-1.466c-0.515-0.547-1.578-1.063-2.061-0.999c-0.324,0.042-0.333,0.022-0.073-0.186
	c0.16-0.129,0.433-0.505,0.604-0.836c0.17-0.332,0.429-0.648,0.574-0.704c0.145-0.056,0.265-0.252,0.265-0.437
	c0-0.46,0.688-0.903,1.405-0.903c0.468,0,0.617-0.09,0.699-0.418c0.113-0.452-0.176-1.408-0.425-1.408
	c-0.239,0-1.012,0.898-1.853,2.156c-0.424,0.633-1.023,1.306-1.334,1.494c-0.602,0.365-1.258,1.544-1.098,1.965
	c0.055,0.14-0.188,0.555-0.537,0.924c-1.425,1.498-2.502,2.539-3.474,3.36c-0.956,0.808-1.096,0.867-2.042,0.867
	c-0.561,0-1.018-0.082-1.018-0.183c0-0.1,0.072-0.182,0.16-0.182s0.158-0.198,0.158-0.44c0-0.687,0.68-1.293,1.377-1.233
	c0.416,0.036,0.928-0.151,1.748-0.638c1.205-0.714,1.483-1.046,1.158-1.373c-0.134-0.134-0.391,0.007-0.85,0.466
	c-0.686,0.685-1.186,0.888-2.27,0.918l-0.643,0.018l-0.045-2.085c-0.045-2.141,0.035-2.504,0.73-3.268
	c0.215-0.234,0.307-0.409,0.206-0.389c-0.465,0.093-0.465-0.054-0.001-0.661c0.367-0.481,0.445-0.708,0.295-0.857
	c-0.279-0.282-0.254-0.774,0.057-1.032c0.144-0.118,0.316-0.547,0.386-0.954c0.067-0.406,0.26-0.874,0.425-1.039
	c0.217-0.218,0.283-0.552,0.243-1.213c-0.063-1.026-0.567-1.733-1.231-1.733c-0.64,0-2.262,1.944-1.99,2.384
	c0.155,0.25-0.25,0.718-0.621,0.719c-0.262,0-0.286-0.22-0.203-1.798c0.08-1.521,0.164-1.899,0.548-2.462
	c0.44-0.646,0.479-0.662,1.315-0.552c0.805,0.105,0.901,0.072,1.416-0.477c0.301-0.324,0.549-0.735,0.549-0.913
	c0-0.702-1.295-1.164-1.637-0.584c-0.158,0.269-0.203,0.273-0.363,0.034c-0.127-0.19-0.112-0.33,0.043-0.457
	c0.123-0.1,0.231-0.286,0.242-0.411c0.01-0.125,0.03-0.331,0.047-0.457c0.015-0.125,0.275-0.392,0.58-0.593
	c0.434-0.287,0.53-0.458,0.447-0.793c-0.058-0.235-0.009-0.542,0.106-0.683c0.163-0.197,0.147-0.278-0.075-0.363
	c-0.436-0.167-0.709,0.097-0.591,0.57c0.06,0.233,0.03,0.472-0.063,0.529c-0.093,0.058-0.201-0.04-0.24-0.217
	c-0.056-0.247-0.168-0.162-0.488,0.363c-0.229,0.376-0.516,0.685-0.635,0.685c-0.328,0-0.643-0.376-0.539-0.645
	c0.05-0.129-0.043-0.495-0.209-0.813c-0.327-0.635-0.125-1.137,0.438-1.084c0.648,0.062,0.801-0.004,0.59-0.258
	c-0.244-0.294-0.09-0.5,0.271-0.362c0.176,0.067,0.223,0.009,0.149-0.182c-0.06-0.155,0.073-0.528,0.297-0.829
	c0.224-0.303,0.354-0.674,0.293-0.833c-0.166-0.436-0.808-0.352-0.949,0.124c-0.066,0.226-0.502,0.8-0.965,1.277
	c-0.91,0.941-1.631,1.127-2.237,0.579c-0.253-0.229-0.397-0.246-0.706-0.082c-0.336,0.181-0.473,0.124-1.02-0.423
	c-0.729-0.729-0.89-1.614-0.265-1.45c0.295,0.077,0.343,0.031,0.243-0.229c-0.102-0.266-0.053-0.306,0.271-0.222
	c0.596,0.155,0.479-0.127-0.334-0.824c-0.756-0.647-0.931-1.046-0.455-1.046c0.346,0,0.354-0.551,0.014-1.015
	c-0.158-0.215-0.219-0.56-0.154-0.879c0.074-0.378,0.02-0.573-0.199-0.696c-0.177-0.098-0.248-0.262-0.17-0.387
	c0.073-0.119,0.146-0.299,0.157-0.399c0.013-0.1,0.036-0.294,0.05-0.431c0.021-0.176,0.172-0.211,0.525-0.123l0.497,0.125
	l-0.36-0.398c-0.197-0.219-0.335-0.55-0.304-0.736c0.067-0.407-0.165-0.863-0.987-1.94c-0.383-0.501-0.619-1.02-0.619-1.353
	c0-0.297-0.133-0.742-0.293-0.988c-0.164-0.247-0.254-0.555-0.203-0.686c0.049-0.13-0.023-0.393-0.162-0.583
	c-0.142-0.191-0.254-0.295-0.254-0.233c0,0.509,0.641,2.957,1.026,3.922c0.556,1.385,0.524,2.792-0.075,3.651
	c-0.193,0.276-0.396,0.858-0.453,1.293c-0.111,0.855-0.557,1.491-1.045,1.491c-0.527,0-0.543,0.201-0.068,0.951l0.461,0.729
	l-0.411,0.437c-0.226,0.241-0.565,0.438-0.755,0.438c-0.19,0-0.297,0.076-0.24,0.168c0.059,0.092-0.123,0.346-0.398,0.564
	c-0.277,0.218-0.515,0.47-0.526,0.562c-0.015,0.092-0.034,0.249-0.048,0.349c-0.012,0.1-0.271,0.182-0.573,0.182h-0.552l0.283,0.547
	c0.258,0.5,0.092,0.809-0.19,0.353c-0.065-0.107-0.249-0.146-0.406-0.084c-0.157,0.06-0.354,0.004-0.438-0.125
	c-0.11-0.172-0.181-0.129-0.26,0.16c-0.123,0.451-0.63,0.657-1.5,0.611l-0.605-0.032l0.3,0.58c0.165,0.319,0.252,0.626,0.196,0.683
	c-0.057,0.056-0.018,0.207,0.089,0.334c0.137,0.165,0.11,0.325-0.091,0.563c-0.153,0.184-0.394,0.49-0.53,0.681
	c-0.306,0.427-0.668,0.239-0.668-0.347c0-0.475-0.29-0.775-0.408-0.421c-0.051,0.154-0.233,0.112-0.608-0.142
	c-0.528-0.357-1.817-0.988-2.021-0.988c-0.06,0-0.062,0.116-0.006,0.258c0.155,0.41-0.397,0.5-0.611,0.1
	c-0.104-0.197-0.282-0.358-0.396-0.358c-0.112,0-0.057,0.165,0.128,0.366c0.54,0.596,0.221,0.588-1.095-0.027
	c-0.976-0.457-1.576-0.604-2.812-0.688l-1.569-0.107l-1.346-2.623c-0.895-1.746-1.273-2.665-1.138-2.749
	c0.135-0.084,0.053-0.27-0.242-0.548c-0.246-0.231-0.789-1.227-1.205-2.214c-1.188-2.821-1.61-2.825-0.933-0.009
	c0.18,0.741,0.461,1.447,0.629,1.569c0.342,0.25,2.134,2.933,2.134,3.194c0,0.093,0.198,0.463,0.444,0.823
	c0.459,0.678,1.117,2.424,0.97,2.572c-0.047,0.047-0.31,0-0.579-0.103c-0.577-0.219-1.382-0.248-1.382-0.05
	c0,0.076,0.245,0.247,0.547,0.38c0.603,0.267,0.694,0.591,0.271,0.944c-0.226,0.187-0.47,0.158-1.319-0.155
	c-0.673-0.248-1.104-0.322-1.22-0.207c-0.289,0.289-0.441,0.202-0.34-0.191c0.072-0.276,0.027-0.341-0.185-0.26
	c-0.155,0.059-0.464,0.01-0.687-0.109c-0.396-0.211-0.403-0.198-0.291,0.513c0.16,0.991-0.218,1.339-0.97,0.895
	c-0.286-0.168-0.643-0.306-0.795-0.306c-0.157,0-0.328-0.233-0.396-0.548c-0.104-0.467-0.205-0.548-0.699-0.549
	c-0.318-0.001-0.982-0.125-1.475-0.274c-1.436-0.436-1.606-0.39-1.461,0.387l0.123,0.659l-0.488-0.319
	c-0.389-0.257-0.719-0.298-1.652-0.211c-0.775,0.073-1.189,0.042-1.234-0.092c-0.047-0.145-0.176-0.143-0.455,0.008
	c-0.656,0.35-0.91,0.24-1.217-0.525c-0.381-0.952-0.369-1.14,0.057-1.004c0.291,0.092,0.332,0.042,0.244-0.292
	c-0.084-0.321-0.043-0.38,0.198-0.287c0.401,0.155,0.386,0.068-0.155-0.788c-0.252-0.4-0.668-1.199-0.922-1.775
	c-0.256-0.577-0.701-1.418-0.99-1.87c-0.328-0.511-0.574-1.202-0.654-1.826c-0.157-1.241-0.741-2.838-1.71-4.678
	c-0.443-0.84-0.741-1.653-0.741-2.022c0-0.34-0.13-0.869-0.289-1.177c-0.16-0.308-0.25-0.711-0.202-0.896
	c0.048-0.186-0.022-0.429-0.156-0.54c-0.134-0.112-0.462-0.856-0.728-1.655c-0.267-0.799-0.67-1.676-0.897-1.948
	c-0.226-0.272-0.374-0.604-0.328-0.737c0.046-0.132-0.083-0.42-0.29-0.638c-0.205-0.219-0.453-0.753-0.55-1.187
	c-0.098-0.434-0.314-0.941-0.483-1.126c-0.167-0.186-0.347-0.693-0.398-1.127c-0.051-0.435-0.214-1.06-0.362-1.392
	c-0.356-0.794-1.705-4.797-1.735-5.147c-0.013-0.15-0.176-0.471-0.363-0.711c-0.188-0.242-0.631-1.37-0.987-2.51
	C138.333,27.993,138.126,27.632,137.861,28.061"/>
</svg>
