<?xml version="1.0" encoding="utf-8"?>
<!-- Generator: Adobe Illustrator 16.0.0, SVG Export Plug-In . SVG Version: 6.00 Build 0)  -->
<!DOCTYPE svg PUBLIC "-//W3C//DTD SVG 1.1//EN" "http://www.w3.org/Graphics/SVG/1.1/DTD/svg11.dtd">
<svg version="1.1" id="Layer_1" xmlns="http://www.w3.org/2000/svg" xmlns:xlink="http://www.w3.org/1999/xlink" x="0px" y="0px"
	 width="300px" height="300px" viewBox="0 0 300 300" enable-background="new 0 0 300 300" xml:space="preserve">
<path fill="#010101" d="M294.949,153.4c-1.325,1.275-2.618,1.725-3.877,1.352c-0.73-0.17-0.96-0.119-0.688,0.152l0.28,0.638
	c0.17,0.205,0.17,0.34,0,0.408c-0.748,0.561-1.7,0.527-2.856-0.103c-0.171-0.101-0.832-0.729-1.989-1.887
	c-0.204-0.187-0.306-0.237-0.306-0.153c-0.067,0.103-0.009,0.238,0.179,0.409c0.356,0.271,0.535,1.164,0.535,2.677
	c-0.204,0.629-0.476,0.91-0.816,0.842c-0.986,0-1.742-0.281-2.27-0.842c-0.271-0.271-0.553-0.306-0.842-0.102
	c-0.425,0.255-0.824,0.11-1.198-0.435c-0.357-0.543-0.493-1.258-0.408-2.141c0.103-0.902,0.638-1.353,1.606-1.353
	c0.289,0,0.469-0.136,0.536-0.408c0-0.152-0.085-0.289-0.255-0.407l-1.479-1.582c-0.17-0.391-0.256-0.45-0.256-0.178l-0.534,1.224
	c-0.204,0.272-0.341,0.408-0.409,0.408c-0.187,0-0.187-0.179,0-0.535c0.272-0.34,0.409-1.403,0.409-3.188
	c-0.103-0.901-0.375-1.81-0.816-2.728c0.441,0.255,0.663,0.169,0.663-0.255c0.459,0.698,0.688,1.497,0.688,2.397
	c0.171,0.884,0.52,1.743,1.047,2.575c0.459,0.629,0.824,0.799,1.096,0.511v-1.76c0-0.697,0.672-1.394,2.016-2.091
	c0.731-0.29,1.266-0.119,1.606,0.51c0,0.357,0.187,0.536,0.561,0.536c0.426,0,1.046,0.221,1.862,0.663
	c0.73,0.459,0.595,1.037-0.409,1.734c-0.713,0.561-1.3,0.841-1.759,0.841c-0.271,0-0.408,0.052-0.408,0.153
	c-0.067,0.068,0.067,0.103,0.408,0.103c0.271,0,1.046-0.4,2.321-1.199c0.9-0.561,1.7-0.467,2.396,0.281
	c0.289,0.153,0.391,0.323,0.306,0.51l-0.306,0.842c-0.34,0.152-0.34,0.229,0,0.229l0.944,0.407c0.814,0.544,1.623,0.502,2.422-0.127
	c0.918-0.697,1.147-1.411,0.688-2.143c-0.355-0.561-0.799-0.561-1.325,0c-0.204,0.188-0.204,0.417,0,0.689
	c0.171,0.17,0.34,0.254,0.511,0.254c0.544,0,0.587,0.128,0.127,0.383c-0.629,0.204-1.08,0.077-1.352-0.383
	c-0.153-0.169-0.229-0.45-0.229-0.841c0-0.425,0.075-0.74,0.229-0.944c0.901-0.628,1.624-0.569,2.168,0.179
	C296.649,150.765,296.378,152.057,294.949,153.4z M9.455,153.553c0.612-0.187,0.79-0.145,0.535,0.128l-0.255,0.536
	c0,0.067-0.051,0.161-0.153,0.279c-0.085,0.086-0.034,0.171,0.153,0.256c0.697,0.527,1.641,0.485,2.831-0.128
	c0.799-0.356,1.462-0.986,1.989-1.887c0.187-0.188,0.281-0.23,0.281-0.128c0.085,0.085,0.042,0.17-0.127,0.255
	c-0.544,0.731-0.68,1.675-0.408,2.831c0,0.629,0.221,0.893,0.663,0.79c1.343-0.356,2.099-0.671,2.27-0.943
	c0.271-0.255,0.543-0.289,0.815-0.103c0.459,0.272,0.867,0.128,1.225-0.433c0.357-0.526,0.493-1.207,0.408-2.04
	c0-1.055-0.544-1.496-1.632-1.326c-0.272,0-0.408-0.119-0.408-0.357c0-0.204,0.094-0.399,0.281-0.586
	c0.442-0.272,0.893-0.799,1.352-1.582c0.697-1.088,0.791-1.088,0.28,0l0.536,1.173c0.153,0.272,0.332,0.408,0.535,0.408
	c0.188,0,0.145-0.17-0.127-0.511c-0.391-0.561-0.484-1.641-0.28-3.238c0-0.884,0.229-1.777,0.689-2.678
	c-0.272,0.17-0.502,0.076-0.689-0.281l-0.663,2.422c-0.119,0.902-0.484,1.743-1.097,2.525c-0.442,0.629-0.799,0.825-1.071,0.587
	v-1.76c0-0.901-0.629-1.615-1.887-2.143c-0.357-0.102-0.723-0.102-1.097,0c-0.34,0.153-0.51,0.332-0.51,0.536
	c-0.188,0.34-0.417,0.51-0.688,0.51c-0.629,0-1.258,0.229-1.888,0.688c-0.527,0.357-0.391,0.944,0.408,1.76
	c0.629,0.442,1.224,0.663,1.785,0.663c0.255,0,0.425,0.034,0.51,0.102c0,0.102-0.137,0.204-0.409,0.306
	c-0.357,0-1.156-0.416-2.397-1.25c-0.561-0.357-1.385-0.255-2.474,0.306l-0.229,0.408l0.229,0.943c0.391,0.188,0.391,0.281,0,0.281
	l-0.918,0.408c-0.153,0.153-0.459,0.272-0.918,0.357c-0.562,0-1.054-0.17-1.479-0.511c-0.969-0.73-1.148-1.495-0.536-2.295
	c0.357-0.544,0.748-0.51,1.174,0.102c0.187,0.205,0.187,0.399,0,0.587c-0.068,0.169-0.238,0.255-0.51,0.255
	c-0.17,0-0.315,0.034-0.434,0.102c0,0.102,0.102,0.204,0.306,0.306c0.527,0.34,1.02,0.238,1.479-0.306
	c0.527-0.697,0.476-1.258-0.153-1.684c-0.884-0.561-1.564-0.527-2.041,0.103c-0.969,0.986-0.731,2.295,0.714,3.928
	C6.751,153.469,8.094,153.91,9.455,153.553z M155.836,198.463c-0.629,0-0.943,0.271-0.943,0.815c0,0.459,0.229,0.731,0.688,0.815
	c-0.067,0.035-0.119,0.077-0.153,0.128c-0.799,0.459-1.513,0.417-2.142-0.128c-0.646-0.543-0.739-1.3-0.281-2.269
	c0.544-0.901,0.816-1.395,0.816-1.48h-0.025c0.595-0.935,0.918-1.784,0.969-2.55c0-1.36-0.442-2.635-1.326-3.824l-2.04-2.679
	l-1.351-3.341l-1.173,3.341l-2.041,2.679c-0.986,1.189-1.436,2.464-1.351,3.824c0,1.241,0.62,2.533,1.862,3.877
	c0.051,0.067,0.119,0.135,0.204,0.204c0.306,0.935,0.152,1.675-0.46,2.218c-0.611,0.545-1.325,0.587-2.141,0.128
	c-0.068-0.051-0.103-0.093-0.103-0.128c0.425-0.051,0.638-0.321,0.638-0.815c0-0.545-0.28-0.815-0.842-0.815
	c-0.612,0-0.917,0.271-0.917,0.815c0,0.084,0.008,0.178,0.025,0.28c-0.017,0.493,0.247,0.944,0.791,1.353
	c1.088,0.696,2.117,0.594,3.086-0.308c0.56-0.493,0.858-1.045,0.892-1.658c0.833,0.953,1.344,1.744,1.531,2.373v0.128l0.153,0.103
	v-0.23c0.204-0.731,0.799-1.667,1.785-2.806c-0.103,0.868,0.145,1.564,0.739,2.091c1.088,1.021,2.125,1.123,3.111,0.308
	c0.562-0.442,0.824-0.918,0.79-1.428c0-0.054,0-0.121,0-0.205C156.626,198.733,156.363,198.463,155.836,198.463z M144.64,106.323
	c0.562,0,0.842-0.263,0.842-0.79s-0.179-0.833-0.535-0.918v-0.026c0.816-0.476,1.53-0.442,2.141,0.103
	c0.8,0.731,0.842,1.7,0.128,2.907c-0.969,1.173-1.453,2.313-1.453,3.417c-0.119,1.343,0.323,2.609,1.325,3.8
	c0.46,0.697,1.132,1.539,2.016,2.524c0.629,1.275,1.037,2.439,1.224,3.494c0.188-1.055,0.596-2.219,1.224-3.494
	c0.902-0.985,1.616-1.827,2.143-2.524c0.901-1.19,1.301-2.457,1.199-3.8c0-1.241-0.63-2.542-1.888-3.902
	c-0.051-0.067-0.102-0.127-0.152-0.178c-0.357-0.901-0.213-1.649,0.434-2.244c0.629-0.544,1.343-0.578,2.142-0.103l0.025,0.026
	c-0.374,0.118-0.561,0.425-0.561,0.918c0,0.527,0.314,0.79,0.943,0.79c0.527,0,0.79-0.263,0.79-0.79c0-0.069,0-0.127,0-0.179
	c0.069-0.493-0.144-0.986-0.638-1.479c-1.088-0.697-2.176-0.595-3.264,0.306c-0.544,0.51-0.842,1.062-0.892,1.658
	c-0.817-0.935-1.318-1.717-1.506-2.346c-0.221,0.663-0.79,1.522-1.708,2.576c0.034-0.731-0.298-1.36-0.995-1.887
	c-0.97-0.901-1.998-1.003-3.086-0.306c-0.526,0.408-0.791,0.858-0.791,1.352c-0.017,0.085-0.025,0.188-0.025,0.307
	C143.723,106.06,144.028,106.323,144.64,106.323z M291.201,174.389c1.24,2.243,1.513,4.403,0.815,6.477
	c-0.73,2.331-2.219,4.021-4.463,5.074c-1.514,0.834-3.299,1.285-5.355,1.353c-1.904,0-3.426-0.349-4.564-1.045
	c-2.125-1.31-3.604-2.933-4.438-4.872l-246.962,0.536c-0.867,1.208-2.014,2.244-3.442,3.111c-1.19,0.612-2.712,0.917-4.565,0.917
	c-2.176,0-3.987-0.389-5.432-1.172c-2.228-1.359-3.707-3.068-4.438-5.125c-0.629-2.348-0.306-4.549,0.969-6.606
	c0.629-1.053,1.607-1.852,2.933-2.396c1.717-0.545,3.255-0.238,4.616,0.917c-1.904-0.969-3.622-0.51-5.151,1.377
	c-1.598,1.854-1.913,3.774-0.944,5.766c0.714,1.63,2.023,2.888,3.928,3.772c1.513,0.731,3,0.995,4.462,0.792
	c2.84-0.358,4.896-1.845,6.172-4.464c1.411-2.839,1.36-6.596-0.153-11.271c-2.856-10.762-4.284-16.593-4.284-17.494
	c0-0.613,0.663-3.605,1.989-8.978c1.258-4.947,2.023-7.778,2.295-8.492c1.513-4.676,1.564-8.45,0.153-11.323
	c-1.275-2.601-3.332-4.08-6.172-4.438c-1.462-0.169-2.95,0.145-4.462,0.944c-1.904,0.799-3.213,2.006-3.928,3.621
	c-0.969,1.99-0.654,3.911,0.944,5.764c1.53,1.921,3.247,2.372,5.151,1.352c-1.445,1.292-2.983,1.623-4.616,0.994
	c-1.326-0.544-2.304-1.402-2.933-2.576c-1.275-1.989-1.598-4.148-0.969-6.477c0.646-2.057,2.125-3.757,4.438-5.101
	c1.445-0.799,3.255-1.199,5.432-1.199c1.853,0,3.375,0.306,4.565,0.918c2.788,1.734,4.522,4.072,5.203,7.013l244.819,0.127
	c0.765-2.448,2.371-4.42,4.82-5.916c1.139-0.629,2.66-0.944,4.564-0.944c2.142,0,3.927,0.408,5.355,1.224
	c2.244,1.258,3.732,3.001,4.463,5.228c0.697,2.057,0.425,4.208-0.815,6.453c-0.715,1.19-1.752,1.998-3.111,2.422
	c-1.599,0.544-3.078,0.23-4.438-0.944c1.87,1.003,3.586,0.562,5.151-1.326c1.513-1.887,1.818-3.825,0.917-5.814
	c-0.73-1.513-2.03-2.72-3.901-3.621c-1.598-0.697-3.12-0.96-4.564-0.791c-2.788,0.255-4.854,1.692-6.197,4.31
	c-1.445,2.958-1.369,6.715,0.229,11.271c0.289,0.731,1.071,3.562,2.347,8.493c1.326,5.372,1.988,8.39,1.988,9.053
	c0,0.884-1.444,6.707-4.335,17.47c-1.599,4.573-1.675,8.381-0.229,11.425c1.343,2.602,3.409,4.038,6.197,4.309
	c1.444,0.188,2.967-0.084,4.564-0.815c1.871-0.901,3.171-2.107,3.901-3.621c0.901-1.988,0.596-3.919-0.917-5.789
	c-1.565-1.989-3.281-2.482-5.151-1.479c1.359-1.157,2.839-1.472,4.438-0.943C289.449,172.399,290.486,173.25,291.201,174.389z
	 M273.833,167.528l1.454-4.311c0.562-0.901,0.979-1.979,1.25-3.237c-1.802,2.277-3.91,3.416-6.324,3.416l1.861-1.785
	c3.792-1.784,5.763-5.228,5.917-10.328c-0.154-5.134-2.125-8.543-5.917-10.227l-1.861-1.938c2.499,0.119,4.606,1.258,6.324,3.417
	l-2.704-7.548c-1.309-4.166-1.818-7.549-1.53-10.15l-0.356,0.306v0.153l-243.722,0.255c-0.136,2.279-0.706,5.007-1.709,8.186
	l-2.677,7.549c1.785-2.227,3.893-3.341,6.324-3.341l-1.888,1.76c-3.858,1.887-5.789,5.33-5.789,10.329
	c0,5.134,1.93,8.552,5.789,10.252l1.888,1.86c-2.5-0.084-4.607-1.206-6.324-3.365l2.677,7.548c1.445,4.573,1.989,8.246,1.632,11.018
	c-0.017,0.204-0.042,0.382-0.076,0.535l244.258,0.279C271.972,175.425,272.474,171.881,273.833,167.528z M33.937,130.117h232.349
	v42.257H33.937V130.117z M35.16,171.277h229.799v-40.217H35.16V171.277z M30.723,127.439h238.673v47.511H30.723V127.439z
	 M32.075,173.854h235.97v-45.19H32.075V173.854z"/>
</svg>
