<?xml version="1.0" encoding="utf-8"?>
<!-- Generator: Adobe Illustrator 16.0.0, SVG Export Plug-In . SVG Version: 6.00 Build 0)  -->
<!DOCTYPE svg PUBLIC "-//W3C//DTD SVG 1.1//EN" "http://www.w3.org/Graphics/SVG/1.1/DTD/svg11.dtd">
<svg version="1.1" id="Layer_1" xmlns="http://www.w3.org/2000/svg" xmlns:xlink="http://www.w3.org/1999/xlink" x="0px" y="0px"
	 width="300px" height="300px" viewBox="0 0 300 300" enable-background="new 0 0 300 300" xml:space="preserve">
<g>
	<path fill-rule="evenodd" clip-rule="evenodd" fill="#010101" d="M120.239,243.416c-1.082-0.564-1.999-1.153-2.752-1.765
		c-1.317-1.034-2.353-2.435-3.105-4.198l7.093-0.776c-2.235-2.611-3.858-4.881-4.869-6.81c-0.612-1.247-0.953-2.999-1.023-5.258
		l0.035-2.928c1.952,2.822,3.246,4.599,3.881,5.327c0.494,0.518,1.188,1.105,2.082,1.765l1.235,0.847
		c1.246-0.259,2.563-0.741,3.951-1.447c2.776-1.34,4.422-3.188,4.939-5.539c0.26-1.247,0.023-2.423-0.705-3.528
		c-0.354-0.588-1.306-1.6-2.858-3.034c-3.175-3.058-5.022-6.375-5.539-9.95c-0.565-4.281-0.565-8.903,0-13.866
		c-1.035,0.281-2.188,0.693-3.458,1.234l-1.2,0.635c-0.399,0.189-0.74,0.389-1.022,0.601c-0.377,0.376-0.706,0.658-0.988,0.847
		c-0.376-1.529-0.94-2.999-1.693-4.41l-0.776-1.447c0.282-0.212,0.741-0.517,1.376-0.917c0.658-0.4,1.271-0.706,1.835-0.918
		c1.082-0.446,2.211-0.87,3.387-1.27l1.447-0.459l-1.87-1.023c-1.341-0.964-2.328-2.152-2.964-3.563
		c-0.659-1.364-1.105-2.999-1.341-4.904l-0.212-2.435c0.683,0.611,1.623,1.141,2.822,1.588c2.377,0.964,4.822,1.117,7.34,0.458
		c1.105-0.305,2.305-0.823,3.599-1.552c2.305-1.364,4.646-3.34,7.021-5.928c2.117-2.211,3.729-4.316,4.834-6.315l8.291-14.114
		c0.377-0.494,0.612-1.094,0.706-1.799c0.212-0.894,0.048-1.541-0.493-1.94c-0.26-0.188-0.636-0.33-1.13-0.424v0.035
		c-0.894-0.094-1.893,0.177-2.999,0.812l-0.671,0.424l-1.059,0.987l-0.035,0.071l-1.657,2.822c-1.459,2.705-2.635,4.799-3.528,6.28
		l-1.271,2.152l-0.036,0.036l-0.67,1.059c-2.164,3.41-4.022,5.551-5.575,6.421c-0.423,0.282-0.882,0.436-1.376,0.459
		c-2.094,0.164-3.751-0.153-4.975-0.953c-0.564-0.353-0.952-0.741-1.165-1.164l-1.728-0.353c-1.436-0.33-2.659-0.706-3.67-1.13
		c-1.012-0.494-1.518-1.188-1.518-2.082l0.282-1.27c-1.411-1.294-2.587-2.812-3.528-4.552c-0.776-1.364-1.223-2.341-1.341-2.929
		c-0.188-0.635-0.07-1.093,0.353-1.376c0.377-0.211,1.212,0.083,2.505,0.883c1.482,0.94,2.541,1.599,3.176,1.976
		c0.659,0.4,1.424,0.835,2.294,1.306l1.023,0.564c0.705-0.212,1.423-0.529,2.151-0.953c1.342-0.776,2.259-1.717,2.753-2.822
		c0.611-1.389,0.529-3.353-0.247-5.893c-0.729-2.493-1.717-4.211-2.964-5.151c-1.388-1.035-3.234-1.858-5.54-2.47
		c-2.587-0.659-4.657-0.671-6.21-0.035c-0.775,0.259-1.399,0.529-1.869,0.811c-1.059,0.612-1.683,1.177-1.87,1.694
		c0.87,1.341,1.518,2.376,1.94,3.104c0.094,0.235,0.553,0.882,1.376,1.94c0.564,0.777,0.776,1.212,0.635,1.307
		c-0.188,0.117-1.035-0.035-2.54-0.459c-1.671-0.471-3.058-1.035-4.164-1.693c-1.575-0.965-2.904-1.694-3.986-2.188
		c1.082,2.282,1.917,3.788,2.505,4.517c0.612,0.8,1.105,1.446,1.481,1.94c0.683,0.941,1.13,1.646,1.342,2.117
		c0.188,0.377,0.223,0.658,0.105,0.848l-0.071,0.034c-0.164,0.094-0.54,0.082-1.128-0.034c-0.636-0.189-1.33-0.471-2.082-0.848
		c-2.329-1.129-4.116-2.588-5.363-4.375c-1.858-2.588-3.082-4.246-3.67-4.975l-1.87-0.212c-1.388-0.353-2.634-1.165-3.739-2.435
		c-1.788-2.07-3.812-5.527-6.069-10.374l-0.635-4.269c-2.753,1.905-4.67,2.27-5.752,1.094c-1.575-1.671-2.575-2.882-2.999-3.635
		c-0.658-1.199-0.822-2.435-0.493-3.705c0.07-0.164,0.129-0.27,0.177-0.316c1.034-2.706,6.115-7.975,15.242-15.808
		c2.987-2.517,5.422-5.704,7.303-9.562c2.307-4.658,3.8-7.398,4.481-8.222c0.635-0.776,1.354-1.399,2.152-1.87
		c0.8-0.447,2.329-0.965,4.587-1.552c2.282-0.636,4.258-1.436,5.928-2.4c1.129-0.657,2.223-1.423,3.281-2.293
		c3.316-2.729,5.34-4.775,6.069-6.14c0.235-0.47,0.247-1.199,0.035-2.188c-0.447-1.035-0.835-1.929-1.165-2.682
		c-0.611-1.458-0.764-2.622-0.458-3.493c0.423-1.058,1.059-1.834,1.905-2.328l0.459-0.212c-0.8-0.635-1.424-1.459-1.871-2.47
		c-0.987-2.023-0.658-3.94,0.988-5.751c0.965-0.988,2.011-1.835,3.141-2.54c1.34-0.777,2.775-1.307,4.305-1.588l1.87-0.248
		c-0.118-0.87,0.035-1.893,0.458-3.069c0.895-2.376,2.718-4.387,5.469-6.033h0.036l0.776-0.424c3.058-1.646,5.928-2.152,8.609-1.517
		c0.87,0.188,1.646,0.481,2.328,0.882l0.776,0.529c0.447-0.823,1.223-1.564,2.329-2.223c1.575-0.965,3.552-1.329,5.927-1.094
		c2.611,0.234,4.847,0.705,6.704,1.411l2.012,0.882l0.458-0.317c1.482-0.847,3.094-1.458,4.835-1.835
		c0.07-0.023,0.152-0.047,0.246-0.07c3.058-0.658,6.175-0.541,9.351,0.353c0.94,0.259,2.387,0.882,4.34,1.87
		c2.634,1.271,6.139,3.176,10.515,5.716c6.516,3.74,11.126,5.457,13.831,5.151c1.176-0.141,2.271-0.282,3.281-0.423
		c2.775-0.4,4.987-0.836,6.634-1.306l0.281-0.105l-0.141,0.282c-1.059,1.575-1.953,2.752-2.682,3.528
		c-0.424,0.423-0.788,0.705-1.094,0.846c-0.964,0.589-2.8,1.941-5.504,4.058c1.411-0.047,3.175,0.225,5.292,0.813
		c4.305,1.176,8.456,3.47,12.456,6.88c4.021,3.388,7.785,8.656,11.29,15.808l3.987,9.703c1.411,0.164,3.093,0.964,5.046,2.398
		c3.999,2.964,7.456,7.681,10.373,14.148c2.705,6.022,3.857,14.737,3.457,26.146c-0.093,3.034-0.281,7.396-0.563,13.09
		c-0.142,4.681,0.023,8.327,0.494,10.938c0.657,3.976,2.293,8.197,4.904,12.667c0.281,0.494,0.588,1,0.917,1.518
		c2.916,4.751,5.963,8.362,9.139,10.832c0.987,0.729,2.011,1.411,3.069,2.046c-2.094,0.494-4.328,1.012-6.704,1.553
		c-4.893,0.399-8.456-0.035-10.691-1.306c-0.047-0.023-0.105-0.047-0.176-0.07c-2.563-1.576-5.986-4.27-10.268-8.08
		c0.706,4.963,1.388,11.373,2.047,19.229c0.211,1.717,0.481,3.305,0.811,4.763c0.777,3.718,1.87,6.599,3.282,8.645
		c3.27,4.682,7.08,9.363,11.432,14.044l-1.799,0.775c-1.389,0.565-2.659,0.965-3.812,1.2c-2.94,0.447-5.646,0.529-8.115,0.247
		c-1.082-0.142-2.622-0.589-4.622-1.341c-1.364-0.588-2.623-1.165-3.775-1.729c-1.812-0.917-3.717-2.234-5.716-3.951
		c-2.328-1.976-4.763-4.469-7.304-7.48c-2.399-2.846-4.423-5.48-6.068-7.903l-0.424,0.635c-0.282,0.659-0.424,1.446-0.424,2.364
		c0.048,2.894,1.494,6.587,4.34,11.079c1.529,2.376,3.234,4.47,5.117,6.28c1.622,1.6,3.41,2.987,5.362,4.164
		c2.047,1.247,3.811,2.046,5.293,2.398l-1.588,0.106c-1.364-0.048-2.787-0.212-4.27-0.494c-2.775-0.611-5.374-1.717-7.798-3.316
		c-1.576-1.059-3.081-2.329-4.517-3.811c-2.916-3.059-5.751-7.057-8.503-11.996c-1.764-3.247-3.316-6.54-4.657-9.88
		c-3.481,3.316-5.821,6.986-7.021,11.009c2.306,0.164,4.634,0.529,6.986,1.094l2.858,0.882l-3.176,0.388
		c-2.611,0.376-5.116,0.87-7.516,1.482c-0.447,2.799-0.553,5.328-0.318,7.586c0.118,1.105,0.248,1.952,0.389,2.54l-2.54-2.398
		c-1.693-1.953-2.575-3.882-2.646-5.787l-0.035-0.529c-6.539,2.188-10.562,4.939-12.067,8.257c-1.74,3.881-2.423,7.444-2.046,10.69
		c0.141,1.623,0.506,2.87,1.094,3.74l-1.377,0.105c-1.151,0.023-2.505-0.023-4.058-0.141c-2.493-0.235-5.279-0.658-8.361-1.271
		c0.635,0.706,1.481,1.435,2.54,2.188c2.07,1.529,4.081,2.564,6.034,3.105c1.928,0.494,4.093,0.835,6.491,1.023l3.035,0.07
		l-8.01,2.011c-5.881,1.199-10.114,1.529-12.702,0.988c-2.588-0.494-5.739-1.505-9.456-3.034c-1.882-0.753-3.481-1.471-4.799-2.152
		l-1.235,2.152c-1.128,1.717-2.481,3.222-4.057,4.517c-3.952,3.104-8.715,4.563-14.29,4.374c-1.765-0.094-3.61-0.329-5.54-0.705
		c-1.012-0.212-4.187-1.117-9.526-2.717h-0.035C123.227,244.862,121.604,244.146,120.239,243.416z M213.812,68.409
		c0.895,0.706,1.54,1.223,1.94,1.553c-0.094-0.283-0.588-1.095-1.481-2.435c-1.481-2.188-2.823-3.835-4.022-4.94
		c-1.223-1.082-2.693-2.14-4.411-3.175c-0.917-0.518-1.692-0.918-2.328-1.2c1.317,0,2.917,0.235,4.798,0.706
		c-1.834-0.564-3.116-1.741-3.845-3.528c-0.518-1.247-0.601-2.482-0.247-3.705c-2.729-0.706-6.163-2.271-10.303-4.693
		c-0.447-0.234-0.883-0.481-1.307-0.74c-0.541,0.117-1.059,0.224-1.552,0.317c-0.118,0-0.235,0.023-0.353,0.07
		c-2.799-0.47-5.104-1.729-6.916-3.775c-1.858-2.07-3.446-3.269-4.764-3.599c-2.141-0.611-4.258-0.693-6.351-0.247
		c-1.271,0.259-2.353,0.658-3.246,1.199l-0.106,0.035l-0.775,0.494c-2.117,1.294-4.128,1.177-6.033-0.353
		c-1.365-0.636-3.364-1.094-5.999-1.376c-0.965-0.047-1.717,0.048-2.258,0.282l-0.142,0.142c-0.564,0.94-1.281,1.658-2.152,2.152
		c-0.705,0.353-1.353,0.588-1.94,0.705c-1.834,0.354-3.481-0.07-4.939-1.27c-0.423-0.189-0.929-0.283-1.518-0.283
		c-1.035-0.047-2.246,0.295-3.634,1.023l-0.459,0.282l-0.847-1.306l0.776,1.306c-1.835,1.059-2.799,2.165-2.894,3.316
		c0.165,1.836-0.306,3.376-1.411,4.622l-0.389,0.389c-0.399,0.377-0.775,0.67-1.128,0.883c-1.012,0.517-2.035,0.764-3.07,0.74
		c-1.176,0.142-2.223,0.471-3.14,0.987c-0.471,0.283-0.895,0.612-1.271,0.988c0.848,0.659,1.447,1.482,1.801,2.47
		c0.376,1.012,0.458,2.082,0.246,3.211c-0.211,1.318-0.882,2.446-2.011,3.388c0.611,1.199,0.976,2.129,1.094,2.787
		c0.423,1.482,0.494,2.905,0.212,4.27c-0.33,1.271-1.012,2.575-2.047,3.917c0.447,1.011,0.048,2.446-1.199,4.304
		c-0.282-0.682-0.518-1.376-0.706-2.081c-1.035,1.058-2.552,2.423-4.552,4.093c-1.317,1.058-2.634,1.976-3.952,2.752
		c-1.458,0.847-2.999,1.553-4.622,2.117c-0.823,0.282-2.011,0.646-3.563,1.094c-1.176,0.282-1.952,0.529-2.328,0.74
		c-0.188,0.071-0.4,0.248-0.636,0.529l-0.105,0.213c0.354,0.211,0.471,1.151,0.354,2.822c-0.165,1.765,0.023,2.905,0.564,3.422
		c0.518,0.612,1.622,0.718,3.316,0.318c2.658-0.612,4.375-0.93,5.151-0.953c3.41-0.188,5.093,0.106,5.045,0.882
		c0,0.095-1.011,0.494-3.034,1.2c-2.117,0.753-3.281,1.482-3.493,2.188c-0.306,0.894-1.07,1.905-2.294,3.034
		c-1.198,1.129-2.081,1.623-2.646,1.481c-0.377-0.117-0.294-0.493,0.247-1.128c0.917-1.012,1.446-1.636,1.588-1.871
		c0.329-0.611,0.212-1.141-0.353-1.588c-0.518-0.423-1.294-0.705-2.329-0.847c-0.705-0.141-1.611-0.012-2.717,0.389
		c-0.611,0.188-1.459,0.481-2.54,0.882c-0.848,0.282-1.494,0.082-1.941-0.6c-0.847,1.435-1.682,2.705-2.505,3.811
		c0.541-0.282,0.883-0.329,1.023-0.141c0.164,0.234-0.354,1.069-1.553,2.505c-0.965,1.105-2.047,2.211-3.246,3.316
		c-0.706,0.659-1.765,1.423-3.176,2.294c-1.34,0.823-2.435,1.388-3.281,1.693c-3.764,3.48-6.315,6.115-7.656,7.903l0.776,0.918
		c0.47-0.26,1.259-0.965,2.363-2.117c0.706-0.706,1.235-0.858,1.588-0.459c0.564,1.717,0.529,3.575-0.105,5.575
		c0.776,0.376,1.471,0.964,2.081,1.764c3.388,4.728,5.917,8.033,7.587,9.915c0.234,0.305,0.446,0.481,0.635,0.529
		c1.646-0.048,3.081,0.458,4.305,1.517c1.6-0.8,3.223-0.917,4.869-0.353c0.8-1.176,1.999-2.246,3.599-3.211
		c0.988-0.541,1.894-0.976,2.718-1.306c2.704-1.059,5.927-1.117,9.667-0.176c3.176,0.799,5.834,1.987,7.975,3.563
		c1.199,0.894,2.305,2.223,3.316,3.987l-0.317-1.095c-0.8-2.61-1.741-5.421-2.823-8.432l-1.341-3.741
		c0.729-0.094,1.588-0.129,2.576-0.105c1.952,0.023,3.622,0.235,5.01,0.635c1.247,0.424,2.611,1.118,4.093,2.082
		c1.177,0.8,1.813,1.153,1.905,1.059c0.941-0.611,1.6-2.528,1.977-5.751c0.282-2.799,0.306-6.093,0.07-9.88
		c-0.141-2.752-0.812-6.645-2.012-11.679l-1.622-6.704c2.681,6.469,4.327,9.633,4.939,9.491c0.353-0.094,1.176-1.446,2.47-4.058
		c1.224-2.658,1.882-4.081,1.976-4.269c-0.07,0.188-0.564,2.657-1.481,7.409c-0.8,5.41-0.788,10.103,0.035,14.078
		c0.446,2.164,1.423,6.033,2.929,11.608c1.035,3.929,1.564,6.821,1.588,8.68c1.223,0.235,2.328,0.718,3.316,1.446
		c0.353,0.26,0.693,0.553,1.023,0.883c0.705-0.518,1.317-1.117,1.835-1.8c2.446-3.152,4.269-6.821,5.469-11.009
		c1.858-6.421,1.729-12.879-0.389-19.37c-2.046-6.234-5.128-11.809-9.244-16.725c-2.023-2.446-3.846-4.258-5.469-5.434
		c0-0.494,0.153-1.059,0.459-1.694c0.588-1.152,1.528-1.976,2.822-2.47c1.176-0.446,1.882-2.305,2.117-5.574
		c0.235-3.646,0.576-5.74,1.022-6.281c0.895-1.223,2.059-2.104,3.493-2.646c1.553-0.588,3.294-0.729,5.223-0.424
		c4.046,0.658,5.728,1.646,5.045,2.964c-0.117,0.282-0.752,0.941-1.904,1.977c-0.895,0.799-1.271,1.458-1.13,1.976
		c0.071,0.376,0.671,0.74,1.8,1.094c0.988,0.259,1.306,0.847,0.953,1.764c-0.26,0.823-1.941,2.212-5.046,4.164
		c-2.87,1.787-4.223,2.928-4.058,3.422c0.117,0.307,1.423,1.399,3.916,3.282c2.775,2.046,4.811,4.058,6.104,6.033
		c1.435,2.117,2.857,4.469,4.27,7.057l1.729,3.141l-4.128-2.753c-2.775-1.693-4.199-2.129-4.27-1.305
		c-0.07,0.423,0.389,1.423,1.376,2.999c1.129,1.882,1.858,4.28,2.188,7.198c0.306,3.198,0.047,7.444-0.776,12.736
		c-0.446,2.682-0.905,5.022-1.376,7.022c0.635-0.213,1.317-0.577,2.047-1.095c1.481-0.964,2.481-2.069,2.999-3.316
		c0.564-1.223,1.328-2.646,2.293-4.27l1.306-2.081l-0.635,4.622c-0.706,3.363-1.788,5.88-3.246,7.551
		c-2.211,2.493-4.305,4.445-6.28,5.856c3.245-1.317,6.374-3.21,9.385-5.681c5.929-4.822,8.845-10.22,8.751-16.195
		c-0.095-6.068-0.636-10.714-1.624-13.937c-0.305-1.035-0.635-1.87-0.987-2.505c-0.211-0.307-0.376-0.494-0.494-0.565l-0.317,0.847
		c-0.306,0.683-0.635,1.283-0.987,1.8c-0.565,0.87-1.647,1.929-3.247,3.176l0.035-0.105c0.353-0.988,0.518-2.082,0.494-3.282
		c-0.118-2.117-0.858-4.058-2.223-5.821c-2.446-3.011-4.646-5.398-6.599-7.162c0.518,0,1.117,0.012,1.8,0.035
		c1.317,0.094,2.353,0.341,3.105,0.74c0.752,0.446,1.693,1.059,2.822,1.835l1.411,0.988l-2.752-3.458
		c-1.999-2.329-3.505-3.575-4.516-3.74c-1.646-0.306-3.164-0.917-4.552-1.835c0.94-0.329,1.894-0.835,2.857-1.518
		c1.929-1.34,2.987-2.857,3.176-4.551c0.118-1.341,0-2.411-0.353-3.211c-0.235-0.518-0.529-0.87-0.883-1.059
		c0.824,0.329,1.6,0.447,2.329,0.353c1.223-0.164,2.012-0.964,2.364-2.398c0.376-1.647,0.458-2.917,0.247-3.812l-0.424-0.847
		c0.306-0.306,0.412-0.753,0.318-1.34c-0.213-1.082-1.436-2.177-3.67-3.282c-2.658-1.317-5.939-1.847-9.845-1.588
		c-3.904,0.235-6.998,1.142-9.279,2.717c-1.481,1.059-3.258,3.94-5.328,8.645c-1.952,4.398-3.587,6.856-4.904,7.374
		c-0.188,0.095-2.422,1.33-6.704,3.705c-2.846,1.576-4.856,2.07-6.033,1.482c-0.494-0.235-0.976-0.612-1.446-1.13
		c2.517-1.669,6.362-6.104,11.537-13.301l0.953-9.668l-1.976,1.023c-1.341,0.894-2.117,1.882-2.329,2.964
		c-0.282,1.059-0.765,2.081-1.446,3.069c-0.354,0.518-0.706,0.917-1.059,1.199c-0.611-0.94-1.059-2.164-1.341-3.669
		c-0.518-3.011,0.164-5.964,2.046-8.856c0.965-1.435,2.165-2.623,3.6-3.563c2.094-1.364,4.669-2.341,7.727-2.929l3.987-0.354
		l-1.94,1.271c-1.224,1.082-1.835,2.247-1.835,3.493c0,1.2,0.977,0.965,2.929-0.705c2.704-2.306,4.163-3.506,4.375-3.6
		c0.8-0.329,0.882,0.506,0.247,2.506c-0.895,2.799-1.341,4.48-1.341,5.045c-0.023,1.223,0.741,1.623,2.294,1.199
		c1.576-0.446,2.751-1.423,3.528-2.928c0.847-1.576,2.575-3.305,5.187-5.188c2.775-2.022,5.245-3.21,7.409-3.563
		c1.858-0.282,3.658-0.388,5.398-0.317l2.011,0.142l-5.892,2.787c-3.905,2.069-5.869,3.717-5.893,4.939
		c-0.094,2.823,0.835,3.752,2.787,2.788c1.671-1.788,3.247-3.446,4.729-4.976c2.987-3.058,5.963-4.963,8.927-5.716
		c0.94-0.235,3.857,0.388,8.75,1.87c-3.552,0.729-5.634,1.423-6.245,2.081c-0.636,0.612,0.023,1.259,1.976,1.941
		c2.682,0.753,4.599,1.341,5.752,1.764c1.481,0.612,3.152,1.917,5.01,3.917c1.6,1.929,2.446,2.94,2.54,3.034
		c-0.141-0.047-2.599-1.164-7.374-3.352c-5.08-2.023-8.551-2.611-10.408-1.765c-1.882,0.941-3.234,2.046-4.058,3.317
		c-0.471,0.611-0.718,1.152-0.741,1.623c0.541,0.023,1.282,0.199,2.223,0.529c1.812,0.588,3.599,1.47,5.363,2.646
		c2.047,1.412,5.41,4.811,10.092,10.197c0.611-0.518,1.398-1,2.363-1.447c1.718-0.729,3.822-1.022,6.316-0.882l3.28,0.459
		c0.118-0.399,0.177-0.87,0.177-1.411c-0.023-1.059-0.388-1.987-1.094-2.788c-1.082-1.246-2.893-2.352-5.434-3.316
		c5.034,0.87,8.491,1.729,10.373,2.576C211.013,66.492,212.33,67.303,213.812,68.409z M219.14,63.681
		c3.999,2.776,7.598,5.681,10.797,8.715c-1.999-3.034-3.964-5.386-5.893-7.057c-2.987-2.54-6.034-4.316-9.139-5.327
		c-1.717-0.611-3.187-0.918-4.41-0.918c-0.452,0.091-0.905,0.079-1.358-0.035C212.833,60.058,216.167,61.599,219.14,63.681z
		 M203.544,72.396c-0.635,0.235-1.212,0.482-1.729,0.741c-1.153,0.588-2.117,1.353-2.894,2.294
		c-0.353,0.423-0.623,0.788-0.812,1.094c0.424,0.188,0.812,0.446,1.164,0.775c0.659,0.729,0.8,1.611,0.424,2.646
		c-0.589,1.671-1.353,3.047-2.293,4.129c0.752,0.212,1.611,0.506,2.575,0.882c1.835,0.776,3.058,1.693,3.67,2.752
		c0.588,1.059,1.388,2.281,2.399,3.67l1.411,1.799c0.047-1.035,0.047-2.27,0-3.705c-0.071-2.799-0.459-5.139-1.165-7.021
		c-0.705-1.857-1.481-3.61-2.328-5.256c-0.447-0.871-0.858-1.588-1.235-2.153c1.035,0.612,2.388,1.765,4.058,3.458
		c2.775,2.822,4.622,5.787,5.54,8.892c0.94,3.128,1.481,6.998,1.622,11.608c0.048,2.281,0.048,4.257,0,5.928
		c0.988-0.142,2-0.518,3.035-1.13c2.164-1.199,3.34-2.881,3.528-5.045c0.235-2.211,0-5.304-0.705-9.28l-1.095-5.292
		c0.376,0.259,0.8,0.718,1.271,1.376c0.965,1.247,1.776,2.693,2.435,4.34c1.035,2.682,1.952,5.904,2.752,9.668
		c0.518,0,1.012-0.094,1.481-0.282c0.965-0.424,1.271-1.212,0.918-2.364c-0.329-1.082-0.658-2.587-0.988-4.516l-0.353-2.506
		c0.965,0.87,1.952,2.059,2.964,3.564c2.046,3.058,3.188,6.209,3.422,9.455c0.212,2.894-1.034,5.481-3.739,7.763
		c-1.952,1.6-2.964,2.423-3.034,2.47c-0.988,0.941-1.541,1.929-1.659,2.964c-0.188,1.529-0.235,3.022-0.141,4.481
		c0.047,1.693,0.224,3.128,0.529,4.305l-2.152-3.211c-1.364-2.541-1.952-4.646-1.765-6.316c0.142-1.246,1.059-3.034,2.753-5.362
		c1.411-2,1.905-3.47,1.481-4.411c-0.611-1.411-2.129-1.552-4.551-0.423c-2.541,1.152-4.341,2.999-5.399,5.539
		c-0.988,2.141-1.693,5.398-2.116,9.773c-0.26,2.141-0.389,4.093-0.389,5.857l-0.776-0.671c-0.611-0.635-1.188-1.375-1.729-2.223
		c-1.601-2.657-2.329-5.928-2.188-9.809c-0.587,1.246-1.376,2.341-2.363,3.281c-2.07,2.022-3.74,4.199-5.011,6.527
		c-1.552,2.752-2.022,4.869-1.411,6.352c0.941,2.046,2.07,4.14,3.388,6.28c-0.071-0.094-1.306-1.353-3.705-3.775
		c-2.376-2.822-3.822-5.352-4.34-7.586c-0.541-2.282-0.317-4.916,0.671-7.903l1.692-3.847l-3.14,0.529
		c-2.164,0.753-3.528,2.082-4.093,3.987c-0.541,1.905-0.953,5.14-1.235,9.703c-0.141,2.282-0.234,4.34-0.281,6.175
		c-1.813-3.082-2.694-5.104-2.646-6.068l0.705-5.364l-1.835,1.482c-1.223,1.341-1.869,2.964-1.94,4.869
		c-0.047,0.612,0.482,3.999,1.588,10.162c0.895,4.939,0.812,8.35-0.247,10.232c-1.059,1.952-2.834,4.069-5.327,6.351
		c-1.247,1.152-2.471,2.164-3.67,3.034c0.917-1.882,1.564-4.493,1.94-7.832c0.329-2.141,0.436-4.399,0.317-6.775l-0.247-2.964
		l-1.094,3.6c-0.987,2.822-2.129,5.386-3.422,7.691c-1.364,2.281-3.141,4.093-5.328,5.434c-1.105,0.636-2.07,1.047-2.894,1.235
		c0.776-1.177,1.588-2.541,2.435-4.093c1.718-3.058,2.8-5.458,3.246-7.198c0.447-1.693,0.389-3.104-0.177-4.234l-0.917-1.199
		l-0.671,0.953c-0.517,0.705-1.082,1.423-1.692,2.151c0.399,3.058,0.281,5.563-0.354,7.516c-0.658,1.929-3.116,5.022-7.374,9.279
		c-2.164,2.141-4.316,4.176-6.457,6.104c0.753,0,1.823-0.141,3.211-0.424c2.306-0.399,4.128-1.035,5.469-1.904
		c1.341-0.895,3.528-2.412,6.563-4.552l4.234-2.964l0.247,0.529c0.118,0.471,0.071,0.988-0.142,1.552
		c-0.775,1.883-3.246,4.128-7.409,6.739c-2.094,1.317-7.586,4.176-16.478,8.574c-6.28,3.081-9.855,5.469-10.727,7.162
		c-1.553,2.823-2.693,5.717-3.422,8.68c1.129-1.458,2.799-2.634,5.01-3.528c2.047-0.869,4.587-1.964,7.621-3.281
		c-2.493,1.364-4.892,2.858-7.197,4.481c-4.375,3.105-6.939,5.634-7.692,7.586c-0.775,2.023-1.128,4.398-1.058,7.128
		c0.047,1.363,0.188,2.54,0.423,3.528c0-0.494,0.082-1.142,0.247-1.941c0.353-1.646,1.035-3.375,2.046-5.187
		c0.988-1.788,2.67-3.552,5.046-5.293c2.188-1.388,3.317-2.129,3.388-2.222c-0.094,0.163-1.152,1.634-3.176,4.41
		c-1.976,3.246-2.87,6.092-2.682,8.538c0.235,2.493,0.823,4.893,1.765,7.198c0.423,1.105,0.847,1.987,1.27,2.646
		c-0.164-3.199,0.165-6.822,0.988-10.868c1.529-8.092,4.587-14.278,9.174-18.559c4.469-4.141,10.067-8.162,16.795-12.067
		c3.481-2.047,6.621-3.717,9.42-5.011c-2.822,1.553-5.927,3.682-9.313,6.387c-6.399,5.151-11.409,10.656-15.032,16.513
		c-3.716,6.021-5.915,11.326-6.598,15.913c-0.329,2.305-0.294,3.987,0.106,5.046c0.047-0.894,0.235-1.988,0.564-3.282
		c0.683-2.493,1.67-4.657,2.964-6.492c1.294-1.787,3.14-3.681,5.539-5.681l3.176-2.363l-1.023,1.023
		c-0.823,0.94-1.54,1.928-2.152,2.963c-2.023,3.294-2.729,6.622-2.117,9.986c0.636,3.293,1.812,6.28,3.529,8.962l2.399,3.104
		c0.658-1.929,1.435-4.058,2.328-6.387c1.858-4.657,3.364-7.95,4.516-9.879c1.153-1.858,2.446-3.364,3.882-4.516
		c0.776-0.565,1.435-0.977,1.977-1.235c-0.023,0.07-0.518,0.905-1.482,2.505c-0.965,1.858-1.588,3.717-1.87,5.574
		c-0.282,1.859-0.353,3.658-0.212,5.398c0.048,0.918,0.141,1.588,0.282,2.012c0.047-1.059,0.259-2.329,0.636-3.811
		c0.729-2.94,1.822-5.246,3.281-6.915c1.435-1.647,3.54-3.235,6.315-4.764c1.6-0.847,2.94-1.471,4.022-1.87
		c-1.27,0.799-2.576,2.034-3.916,3.704c-2.423,3.012-3.693,6.233-3.812,9.668c-0.164,3.552-0.152,6.739,0.035,9.563
		c0.095,1.435,0.188,2.517,0.283,3.245l-1.553-0.035c-1.294-0.164-2.458-0.553-3.493-1.164c-1.6-1.012-2.929-1.729-3.987-2.152
		l-1.022,1.482c-1.059,1.34-2.436,2.964-4.129,4.868c-1.646,1.836-3.61,3.588-5.893,5.258c-1.082,0.87-2.07,1.564-2.964,2.082
		c1.2-1.812,2.082-3.317,2.646-4.517c0.376-0.8,0.659-1.987,0.847-3.563l0.142-2.152l-1.13,2.011
		c-1.105,1.624-2.563,3.199-4.374,4.729c-1.788,1.553-3.917,2.564-6.388,3.034c-1.246,0.235-2.305,0.317-3.175,0.247
		c0.447-0.259,0.953-0.623,1.518-1.094c1.129-0.941,2.023-1.905,2.681-2.894c0.612-1.035,1.047-2.305,1.307-3.811l0.281-1.905
		l-7.197-1.518l0.635,0.883c0.307,0.894,0.2,1.999-0.317,3.316c-0.588,1.294-3.093,2.54-7.515,3.74
		c-2.259,0.635-4.447,1.129-6.563,1.482c0.094,0.588,0.4,1.234,0.918,1.94c0.987,1.435,2.446,2.457,4.374,3.069
		c1.882,0.611,4.07,0.812,6.563,0.6c2.188-0.33,3.34-0.529,3.457-0.6c-0.657,0.423-1.61,0.929-2.857,1.518
		c-2.094,0.94-3.893,1.528-5.398,1.764c-1.6,0.282-3.058,0.354-4.375,0.212c-0.658-0.095-1.141-0.188-1.447-0.282
		c0.542,1.035,1.553,1.999,3.035,2.894c3.011,1.811,6.927,2.41,11.749,1.799c4.799-0.588,9.703-3.093,14.714-7.516
		c1.575-1.388,3.046-2.881,4.41-4.48l1.658-1.976c0.306,0.752,0.882,1.575,1.729,2.47c1.623,1.787,3.646,3.081,6.068,3.881
		c2.446,0.753,4.857,1.011,7.232,0.776l2.823-0.564l-2.858-1.023c-2.093-0.8-3.574-1.671-4.445-2.611
		c-1.317-1.411-2.834-3.787-4.552-7.127c0.541,0.564,1.282,1.164,2.224,1.8c1.717,1.199,3.54,2.034,5.469,2.505
		c1.928,0.541,3.669,0.835,5.222,0.882l1.729-0.035c-0.682-1.012-1.305-2.152-1.87-3.422c-1.059-2.564-1.211-4.435-0.458-5.61
		c0.776-1.2,1.764-2.518,2.964-3.952l1.623-1.693c-1.317-1.6-2.341-3.576-3.07-5.928c-1.435-4.681-0.67-8.998,2.294-12.949
		c0.47-0.636,1.058-1.294,1.764-1.976l0.847-0.847c0.683-2.141,1.718-4.034,3.105-5.681c1.693-2.047,4.081-4.234,7.162-6.563
		c3.834-2.729,6.881-4.975,9.139-6.739c3.693-2.94,6.963-6.092,9.81-9.455c3.269-3.882,5.469-7.539,6.598-10.975
		c3.223-9.784,4.175-16.254,2.857-19.405c-0.682-1.552-1.611-3.493-2.786-5.822c-0.612-1.176-1.142-2.176-1.588-2.999
		c0.917,0.353,1.928,0.977,3.034,1.87c2.14,1.788,3.575,3.987,4.304,6.598c0.706,2.635,0.953,6.305,0.741,11.009
		c-0.117,2.329-0.294,4.411-0.529,6.245c0.447,0.283,0.977,0.694,1.588,1.235c1.176,1.035,2.059,2.035,2.646,2.999
		c0.564,1.012,1.271,1.988,2.116,2.929l1.13,1.235c1.059-1.646,1.987-3.835,2.788-6.563c1.669-5.551,2.022-11.067,1.058-16.548
		c-0.987-5.34-2.058-9.974-3.211-13.901c-0.611-2.141-1.129-3.658-1.552-4.552c0.023,0.141,0.316,2.164,0.882,6.069
		c0.493,4.186,0.729,7.08,0.706,8.68c-0.023,1.646-0.553,3.528-1.588,5.645c-0.518,1.105-1.047,2.094-1.588,2.965
		c0.258-1.576,0.458-3.259,0.6-5.047c0.234-3.621-0.059-6.551-0.882-8.785c-0.824-2.306-1.965-4.48-3.423-6.527
		c-0.776-1.011-1.435-1.8-1.977-2.364c0.518-0.164,1.177-0.482,1.977-0.953c1.575-0.894,3.069-2.081,4.48-3.563
		c1.342-1.458,2.529-3.622,3.564-6.492l1.199-3.811l0.529,2.364c0.259,1.788,0.306,3.176,0.142,4.164
		c-0.26,1.599-0.671,3.81-1.235,6.633c0.706-0.564,1.423-1.481,2.152-2.752c1.388-2.446,2.176-5.363,2.363-8.751
		c0.095-2.869-0.07-5.798-0.493-8.785c-0.518-3.104-1.329-5.916-2.435-8.433c-0.353-0.494-0.671-1.106-0.953-1.835
		c-0.917-1.67-1.999-3.069-3.246-4.199l-18.418-16.512c1.812,1.834,3.458,3.928,4.94,6.279c0.987,1.506,2.223,3.588,3.704,6.246
		c1.035,1.882,1.705,3.152,2.012,3.811c-0.094-0.094-1.553-1.882-4.376-5.363c-3.081-3.575-5.397-5.752-6.95-6.527
		c-2.376-1.317-4.635-2.294-6.775-2.929c1.2,1.105,2.447,2.47,3.741,4.093c0.894,1.012,2.164,2.882,3.81,5.61
		c1.506,2.54,2.306,3.857,2.4,3.952c-0.118-0.095-1.706-1.671-4.764-4.729c-3.387-3.105-6.057-4.939-8.01-5.504
		C204.731,72.231,204.086,72.208,203.544,72.396z M247.366,104.187c0.776,3.128,2.341,5.058,4.692,5.786
		c-1.575-0.211-2.951-0.152-4.128,0.177c-1.717,0.471-2.787,1.471-3.21,2.999c-0.683,2.399-1.553,6.751-2.611,13.055
		c0.376-1.223,1.446-2.811,3.211-4.763c1.199-1.317,2.505-2.576,3.916-3.775c0.471-0.399,1.141-0.952,2.012-1.658
		c-0.754,0.706-1.412,1.717-1.977,3.034c-1.058,2.493-1.411,5.434-1.058,8.821c0.376,3.575,1.657,7.268,3.845,11.079l3.212,4.657
		l-2.683-0.142c-2.069-0.353-3.963-1.234-5.681-2.646c-1.692-1.316-3.222-2.987-4.587-5.01c-0.752-1.035-1.353-1.988-1.799-2.857
		c0.282,0.658,0.658,1.928,1.129,3.81c0.753,2.894,1.258,5.717,1.518,8.469c0.094,1.388-0.2,3.669-0.883,6.845
		c-0.446,1.835-1.246,4.893-2.399,9.174c-1.976,8.444-2.223,14.524-0.74,18.241c1.74,4.353,4.692,8.104,8.855,11.256l-0.564-5.928
		c-0.353-4.328-0.787-8.268-1.305-11.819c-0.235-1.671,0.164-3.212,1.199-4.623c-0.823-0.753-1.399-1.575-1.729-2.47
		c-0.917-2.682-0.858-6.045,0.177-10.091l1.834-5.258l1.729,5.646c1.576,4.258,3.317,7.681,5.223,10.269
		c0.635,0.234,1.212,0.588,1.729,1.059c2.211,1.928,4.305,3.656,6.28,5.186c-3.505-7.174-5.716-13.419-6.633-18.735
		c-0.447-2.681-0.635-6.14-0.564-10.373c0-2.235,0.105-5.022,0.317-8.362c0.282-5.786,0.399-10.079,0.353-12.879
		c-0.07-4.893-0.541-9.033-1.411-12.42c-0.423-1.717-0.952-3.281-1.588-4.692c-1.717-3.787-3.611-6.833-5.681-9.139
		c-1.364-1.553-2.74-2.693-4.128-3.423C245.309,97.553,246.685,101.388,247.366,104.187z M199.346,93.072
		c0.752,2.729,1.352,5.669,1.799,8.821c0.658-0.235,1.282-0.612,1.87-1.13c1.153-1.082,1.553-2.411,1.2-3.986
		c-0.212-1.177-0.365-2.177-0.459-2.999c-1.67-2.235-3.47-3.812-5.398-4.729l-0.882-0.353
		C198.393,90.344,199.017,91.802,199.346,93.072z M202.557,142.963c0,0.847,0.047,2.141,0.141,3.881
		c0.023,1.436-0.035,2.611-0.176,3.529c-0.848,4.986-2.906,9.738-6.175,14.254c-3.294,4.517-6.551,7.692-9.774,9.527
		c-3.246,1.787-7.915,5.245-14.007,10.373c-1.082,1.623-2.306,3.211-3.67,4.764c0.894-3.152,3.611-6.681,8.15-10.585
		c1.623-1.342,3.117-2.553,4.481-3.635c3.622-2.964,6.903-5.633,9.844-8.009c2.94-2.4,5.528-6.352,7.762-11.855
		c2.235-5.527,3.282-9.515,3.141-11.962C202.415,143.245,202.509,143.152,202.557,142.963z M195.746,87.886
		c-2.117-0.918-4.856-2.047-8.221-3.388l-0.424-0.105c0.729-0.212,1.482-0.482,2.259-0.812c3.011-1.153,4.833-2.329,5.469-3.528
		c0.588-1.012,0.411-2.152-0.529-3.423c-0.494-0.611-1.047-1.141-1.658-1.588c-0.095-0.47,0.105-1.011,0.6-1.623
		c-6.045-5.222-9.95-7.868-11.714-7.938c-1.553,0-2.717,0.306-3.493,0.917c-0.4,0.259-0.647,0.529-0.741,0.812
		c1.152,0.776,2.411,1.694,3.775,2.753c2.752,2.117,4.587,3.963,5.504,5.539c0.941,1.576,1.671,3.387,2.188,5.434
		c0.281,1.011,0.481,1.847,0.6,2.505l-3.987-4.833c-2.823-3.199-4.834-4.787-6.033-4.764c-1.2,0-2.494,0.294-3.882,0.882
		c-0.706,0.259-1.293,0.529-1.764,0.812l0.812,1.376c0.494,1.129,0.635,2.294,0.423,3.493c-0.259,1.2-0.717,2.211-1.376,3.034
		c-0.353,0.424-0.693,0.729-1.022,0.918c0.517,0.07,1.082,0.247,1.693,0.529c1.293,0.587,2.328,1.399,3.104,2.435
		c0.8,0.965,1.753,2.046,2.858,3.245l1.411,1.553c0.212-1.363,0.341-2.857,0.388-4.48c0.188-3.199,0.012-5.434-0.529-6.704
		c-0.588-1.317-1.152-2.388-1.692-3.211c-0.307-0.424-0.553-0.693-0.742-0.812c0.447-0.211,1.047-0.047,1.8,0.494
		c1.459,1.152,2.999,3.622,4.622,7.41c1.6,3.739,2.693,8.609,3.281,14.607c0.259,2.963,0.376,5.539,0.353,7.727
		c0.988,0.164,2.012-0.023,3.07-0.564c2.141-0.988,3.423-3.141,3.847-6.457C196.511,96.225,196.429,92.143,195.746,87.886z
		 M253.365,208.203c-1.082-1.553-1.988-3.305-2.718-5.258c-0.188-0.423-0.364-0.858-0.529-1.306
		c-0.683-2.163-1.247-4.728-1.693-7.691c-2.117,0.117-4.14-0.212-6.069-0.988c-3.128-1.223-6.15-2.729-9.067-4.517
		c4.939,7.128,9.115,12.196,12.525,15.207c0.776,0.683,1.671,1.436,2.682,2.259c1.952,1.553,4.306,3.34,7.057,5.363L253.365,208.203
		z M224.891,163.393c0.188,2.588-0.023,4.821-0.635,6.704c-0.659,1.812-1.894,3.976-3.705,6.492
		c-0.894,1.223-1.729,2.293-2.505,3.21c0.493-1.151,0.964-2.458,1.411-3.916c0.988-2.869,1.528-5.128,1.623-6.774
		c0.142-1.623,0.165-3.388,0.07-5.292l-0.035-2.399l-1.481,3.774c-1.576,3.105-3.894,6.258-6.951,9.457
		c-3.058,3.175-5.881,5.539-8.468,7.092c-1.294,0.753-2.271,1.199-2.929,1.341l-1.023,1.729c-0.683,1.459-1.13,2.787-1.341,3.987
		c-0.353,1.882-0.694,4.104-1.023,6.669l-0.458-0.564c-0.33-0.518-0.553-1.271-0.671-2.259c-0.07-1.035-0.023-2.258,0.142-3.67
		l0.317-1.764l-1.376,0.882c-3.435,3.481-5.704,6.469-6.811,8.962c-1.363,2.965-2.363,6.669-2.999,11.115
		c-0.329,2.187-0.494,4.08-0.494,5.68c0.377-1.082,0.988-2.352,1.836-3.81c1.74-2.94,3.704-5.423,5.892-7.445
		c1.765-1.6,4.116-2.905,7.057-3.917c1.858-0.658,3.823-1.141,5.893-1.446c0.776-1.247,2.623-2.952,5.54-5.116
		c3.669-2.635,6.434-4.67,8.291-6.104c7.198-5.48,10.409-10.032,9.633-13.654c-0.776-3.881-1.882-7.08-3.316-9.597
		c-0.729-1.294-1.377-2.188-1.941-2.683L224.891,163.393z M199.875,175.495c-0.777,0.635-1.882,1.34-3.317,2.117
		c-1.528,0.823-2.61,1.47-3.246,1.94c-0.987,0.729-3.34,2.411-7.057,5.045c-2.847,2.493-4.328,4.846-4.445,7.057v-0.564
		c0-2.588,1.353-5.163,4.058-7.727c1.929-1.788,5.045-3.964,9.35-6.528c3.247-1.952,5.74-3.457,7.48-4.516
		C201.568,173.849,200.627,174.907,199.875,175.495z M198.146,202.134c-1.506,1.224-3.046,3.093-4.622,5.61
		c-0.753,1.317-1.376,2.47-1.87,3.458c0.776-0.471,1.858-1,3.246-1.588c2.729-1.152,5.54-1.905,8.433-2.259
		c0.095-3.575,0.965-6.786,2.611-9.632C202.627,199.135,200.027,200.604,198.146,202.134z M135.87,147.303l1.588-2.787
		c-0.588-0.353-1.247-0.212-1.976,0.424c-0.777,0.635-1.365,1.799-1.765,3.492c-0.424,1.671-0.858,2.952-1.306,3.847
		c-0.446,0.894-1.141,1.929-2.082,3.104c-0.94,1.271-2.129,2.388-3.563,3.353c0.329,0.235,0.683,0.553,1.059,0.952h0.106
		c1.059-0.964,2.493-2.987,4.304-6.068C133.106,152.255,134.317,150.149,135.87,147.303z M160.074,142.822
		c-1.505,0.611-2.964,0.952-4.375,1.022c0.259,1.2,0.282,2.458,0.071,3.776c-0.189,1.246-0.612,2.422-1.271,3.528l-4.411,7.444
		c1.647-0.399,2.8-0.717,3.458-0.952c1.459-0.612,2.87-1.494,4.234-2.646c1.834-1.506,3.41-3.681,4.729-6.527
		c-0.848,0.729-1.646,1.329-2.4,1.8c-1.905,1.199-3.398,1.705-4.48,1.517c-0.518-0.047-0.858-0.212-1.023-0.493
		c0.447-0.26,0.94-0.624,1.481-1.095c1.153-0.964,2.082-2.034,2.788-3.211l3.211-5.081
		C162.039,141.976,161.368,142.281,160.074,142.822z M193.312,147.197c0.636,0.87,0.953,1.953,0.953,3.246
		c0,5.293-1.882,9.892-5.646,13.796c-1.035,1.105-2.67,2.693-4.904,4.764c-1.694,1.67-3.022,3.293-3.987,4.869
		c0.729-1.271,1.988-3.223,3.775-5.857c2.282-3.316,3.987-5.975,5.116-7.975c2.54-4.563,4.058-8.938,4.552-13.125
		C193.218,147.033,193.265,147.127,193.312,147.197z"/>
	<path fill-rule="evenodd" clip-rule="evenodd" fill="#D1252B" d="M171.119,33.09c-1.741,0.377-3.353,0.988-4.835,1.835
		l-0.458,0.317l-2.012-0.882c-1.857-0.706-4.093-1.177-6.704-1.411c-2.375-0.235-4.352,0.129-5.927,1.094
		c-1.106,0.658-1.882,1.399-2.329,2.223l-0.776-0.529c-0.683-0.4-1.458-0.693-2.328-0.882c-2.682-0.636-5.552-0.13-8.609,1.517
		l-0.776,0.424h-0.036c-2.751,1.646-4.574,3.657-5.469,6.033c-0.423,1.177-0.576,2.199-0.458,3.069l-1.87,0.248
		c-1.529,0.281-2.965,0.811-4.305,1.588c-1.13,0.705-2.176,1.552-3.141,2.54c-1.646,1.811-1.976,3.728-0.988,5.751
		c0.447,1.011,1.071,1.835,1.871,2.47l-0.459,0.212c-0.847,0.494-1.482,1.271-1.905,2.328c-0.306,0.871-0.153,2.035,0.458,3.493
		c0.33,0.753,0.718,1.646,1.165,2.682c0.212,0.988,0.2,1.718-0.035,2.188c-0.729,1.364-2.753,3.411-6.069,6.14
		c-1.059,0.87-2.152,1.636-3.281,2.293c-1.67,0.965-3.646,1.765-5.928,2.4c-2.258,0.587-3.787,1.104-4.587,1.552
		c-0.799,0.471-1.518,1.094-2.152,1.87c-0.682,0.823-2.175,3.563-4.481,8.222c-1.881,3.857-4.315,7.045-7.303,9.562
		c-9.127,7.833-14.208,13.102-15.242,15.808c-0.048,0.047-0.106,0.152-0.177,0.316c-0.329,1.271-0.165,2.506,0.493,3.705
		c0.424,0.753,1.424,1.964,2.999,3.635c1.082,1.176,2.999,0.812,5.752-1.094l0.635,4.269c2.258,4.847,4.281,8.304,6.069,10.374
		c1.105,1.27,2.352,2.082,3.739,2.435l1.87,0.212c0.588,0.729,1.812,2.387,3.67,4.975c1.247,1.787,3.034,3.246,5.363,4.375
		c0.752,0.377,1.446,0.658,2.082,0.848c0.588,0.116,0.964,0.128,1.128,0.034l0.071-0.034c0.117-0.189,0.082-0.471-0.105-0.848
		c-0.212-0.471-0.659-1.176-1.342-2.117c-0.376-0.494-0.869-1.141-1.481-1.94c-0.588-0.729-1.423-2.234-2.505-4.517
		c1.082,0.494,2.411,1.224,3.986,2.188c1.106,0.658,2.493,1.223,4.164,1.693c1.505,0.424,2.352,0.576,2.54,0.459
		c0.142-0.095-0.07-0.529-0.635-1.307c-0.823-1.059-1.282-1.705-1.376-1.94c-0.423-0.729-1.07-1.764-1.94-3.104
		c0.188-0.518,0.812-1.082,1.87-1.694c0.47-0.281,1.094-0.552,1.869-0.811c1.553-0.636,3.623-0.624,6.21,0.035
		c2.306,0.611,4.152,1.435,5.54,2.47c1.247,0.94,2.235,2.658,2.964,5.151c0.776,2.54,0.858,4.504,0.247,5.893
		c-0.494,1.105-1.411,2.046-2.753,2.822c-0.729,0.424-1.446,0.741-2.151,0.953l-1.023-0.564c-0.87-0.471-1.635-0.905-2.294-1.306
		c-0.635-0.377-1.693-1.035-3.176-1.976c-1.293-0.8-2.128-1.094-2.505-0.883c-0.423,0.283-0.541,0.741-0.353,1.376
		c0.118,0.588,0.564,1.564,1.341,2.929c0.941,1.74,2.117,3.258,3.528,4.552l-0.282,1.27c0,0.895,0.506,1.588,1.518,2.082
		c1.011,0.424,2.234,0.8,3.67,1.13l1.728,0.353c0.213,0.423,0.601,0.812,1.165,1.164c1.224,0.8,2.881,1.117,4.975,0.953
		c0.494-0.023,0.953-0.177,1.376-0.459c1.553-0.87,3.411-3.011,5.575-6.421l0.67-1.059l0.036-0.036l1.271-2.152
		c0.894-1.481,2.069-3.575,3.528-6.28l1.657-2.822l0.035-0.071l1.059-0.987l0.671-0.424c1.106-0.635,2.105-0.905,2.999-0.812v-0.035
		c0.494,0.094,0.87,0.235,1.13,0.424c0.541,0.399,0.705,1.047,0.493,1.94c-0.094,0.705-0.329,1.305-0.706,1.799l-8.291,14.114
		c-1.105,1.999-2.717,4.104-4.834,6.315c-2.376,2.588-4.717,4.563-7.021,5.928c-1.294,0.729-2.493,1.247-3.599,1.552
		c-2.518,0.659-4.963,0.506-7.34-0.458c-1.199-0.447-2.14-0.977-2.822-1.588l0.212,2.435c0.235,1.905,0.682,3.54,1.341,4.904
		c0.636,1.411,1.623,2.6,2.964,3.563l1.87,1.023l-1.447,0.459c-1.176,0.399-2.305,0.823-3.387,1.27
		c-0.564,0.212-1.177,0.518-1.835,0.918c-0.635,0.4-1.094,0.705-1.376,0.917l0.776,1.447c0.753,1.411,1.317,2.881,1.693,4.41
		c0.282-0.188,0.611-0.471,0.988-0.847c0.282-0.212,0.623-0.411,1.022-0.601l1.2-0.635c1.271-0.541,2.423-0.953,3.458-1.234
		c-0.565,4.963-0.565,9.585,0,13.866c0.517,3.575,2.364,6.893,5.539,9.95c1.553,1.435,2.505,2.446,2.858,3.034
		c0.729,1.105,0.965,2.281,0.705,3.528c-0.518,2.352-2.163,4.199-4.939,5.539c-1.388,0.706-2.705,1.188-3.951,1.447l-1.235-0.847
		c-0.894-0.659-1.588-1.247-2.082-1.765c-0.635-0.729-1.929-2.505-3.881-5.327l-0.035,2.928c0.07,2.259,0.411,4.011,1.023,5.258
		c1.011,1.929,2.634,4.198,4.869,6.81l-7.093,0.776c0.753,1.764,1.788,3.164,3.105,4.198c0.753,0.611,1.67,1.2,2.752,1.765
		c-13.549-5.34-25.898-13.584-37.048-24.733c-21.288-21.288-31.932-46.976-31.932-77.06c0-30.109,10.644-55.808,31.932-77.096
		c21.288-21.287,46.985-31.932,77.095-31.932C163.979,32.596,167.59,32.761,171.119,33.09z"/>
</g>
</svg>
