<?xml version="1.0" encoding="utf-8"?>
<!-- Generator: Adobe Illustrator 16.0.0, SVG Export Plug-In . SVG Version: 6.00 Build 0)  -->
<!DOCTYPE svg PUBLIC "-//W3C//DTD SVG 1.1//EN" "http://www.w3.org/Graphics/SVG/1.1/DTD/svg11.dtd">
<svg version="1.1" id="Layer_1" xmlns="http://www.w3.org/2000/svg" xmlns:xlink="http://www.w3.org/1999/xlink" x="0px" y="0px"
	 width="300px" height="300px" viewBox="0 0 300 300" enable-background="new 0 0 300 300" xml:space="preserve">
<path fill-rule="evenodd" clip-rule="evenodd" fill="#010101" d="M180.297,172.688c0.04,0.04,0.086,0.06,0.14,0.06
	c0.066,0,0.133,0,0.199,0c0.079,0,0.146,0,0.199,0c0,0.065,0,0.133,0,0.199c0,0.065,0,0.132,0,0.198c0,0.065,0,0.126,0,0.179
	c0,0.066,0.013,0.126,0.039,0.18c0.04,0.079,0.093,0.152,0.159,0.218c0.066,0,0.132,0,0.199,0c0,0.067,0.013,0.12,0.04,0.159
	c0.039,0.027,0.092,0.04,0.159,0.04c0,0.133,0,0.265,0,0.397c0,0.066,0,0.133,0,0.199c0,0.054,0,0.112,0,0.18
	c0,0.065-0.007,0.132-0.021,0.198c-0.078,0.277-0.013,0.411,0.199,0.397c0,0.054,0,0.113,0,0.18c0,0.065,0,0.132,0,0.198
	s0.021,0.119,0.061,0.16c0.026,0.025,0.073,0.039,0.139,0.039c0,0.597,0,1.18,0,1.75c0,0.066,0,0.132,0,0.198s0,0.134,0,0.199
	s0,0.133,0,0.198c0,0.066,0,0.134,0,0.199c0,0.066,0.014,0.112,0.04,0.139c0.04,0.04,0.093,0.061,0.159,0.061
	c0,0.054,0.02,0.1,0.059,0.139c0.027,0.027,0.074,0.039,0.14,0.039c0,0.452,0,0.909,0,1.373c0,0.066,0,0.133,0,0.198
	c0,0.067,0,0.133,0,0.199c0,0.067,0.014,0.1,0.04,0.1c0.159,0.066,0.345,0.094,0.557,0.08c0,0.132,0,0.265,0,0.397
	c0,0.066,0,0.132,0,0.199c0,0.119,0,0.244,0,0.377c0,0.066,0,0.133,0,0.199s0.014,0.119,0.04,0.159
	c0.026,0.026,0.066,0.04,0.119,0.04h0.02c0.067,0,0.134,0,0.199,0c0,0.066,0,0.133,0,0.199c0,0.065,0.014,0.112,0.04,0.138
	c0.039,0.04,0.093,0.061,0.159,0.061c0,0.066,0.014,0.113,0.04,0.139c0.039,0.04,0.093,0.061,0.158,0.061
	c0,0.052,0.014,0.099,0.04,0.139c0.026,0.027,0.072,0.04,0.14,0.04v0.02c0,0.053,0.02,0.093,0.06,0.12
	c0.026,0.039,0.072,0.06,0.139,0.06c0,0.065,0.02,0.119,0.061,0.158c0.025,0.026,0.072,0.04,0.139,0.04s0.132,0,0.198,0
	c0.067,0,0.127,0,0.18,0c0.663,0,1.318,0,1.969,0c0.052,0,0.112,0,0.179,0c0,0.066,0,0.133,0,0.199c0,0.053,0,0.112,0,0.18
	c0,0.065,0.014,0.105,0.04,0.118c0.158,0.066,0.344,0.093,0.557,0.079c0,0.717,0,1.433,0,2.148c0,0.066,0,0.133,0,0.199
	c0,0.065,0.014,0.105,0.04,0.119c0.105,0.053,0.225,0.08,0.357,0.08c0,0.251,0,0.51,0,0.775c0,0.065,0,0.132,0,0.198v0.1
	c0.253,0.066,0.511,0.1,0.775,0.1c0,0.252,0,0.51,0,0.775c0,0.066,0,0.133,0,0.198c0,0.066,0.007,0.101,0.021,0.101
	c0.318,0.065,0.637,0.099,0.954,0.099c0,0.318,0,0.637,0,0.955c0,0.065,0,0.132,0,0.198c0,0.08,0.007,0.119,0.02,0.119
	c0.239,0.041,0.49,0.066,0.757,0.08c0-2.082,0-4.162,0-6.245c0-0.065,0-0.132,0-0.197c0.066,0,0.119-0.014,0.159-0.04
	c0.025-0.04,0.039-0.087,0.039-0.14c0-0.066,0-0.133,0-0.199c0.066,0,0.113-0.014,0.139-0.04c0.04-0.039,0.061-0.093,0.061-0.158
	c0-0.066,0-0.133,0-0.199s0-0.127,0-0.179c0.053,0,0.099-0.021,0.139-0.061c0.04-0.025,0.061-0.072,0.061-0.139
	c0.066,0,0.112-0.021,0.139-0.061c0.04-0.025,0.06-0.072,0.06-0.138c0-0.066,0.013-0.12,0.039-0.16
	c0.027-0.025,0.074-0.039,0.14-0.039c0.066,0,0.133,0,0.199,0c0.065,0,0.133,0,0.199,0c0.065,0,0.112-0.014,0.139-0.04
	c0.039-0.04,0.06-0.093,0.06-0.159s0-0.133,0-0.199c0-0.065,0-0.133,0-0.198c0.053,0,0.1-0.014,0.14-0.04
	c0.026-0.026,0.039-0.072,0.039-0.139c0.067,0,0.12-0.021,0.159-0.061c0.027-0.025,0.04-0.072,0.04-0.139c0.065,0,0.133,0,0.198,0
	c0.066,0,0.134,0,0.199,0c0,0.066-0.007,0.132-0.02,0.199c-0.08,0.478-0.014,0.801,0.199,0.975c0,0.065,0,0.132,0,0.198
	s0.019,0.113,0.06,0.139c0.039,0.04,0.093,0.061,0.159,0.061c0,0.052,0.013,0.099,0.039,0.139c0.04,0.027,0.087,0.04,0.139,0.04
	c0,0.066,0,0.133,0,0.199c0,0.065,0.021,0.119,0.061,0.158c0.026,0.026,0.073,0.04,0.139,0.04c0,0.066,0,0.133,0,0.199
	c0.014,0.438,0.014,0.888,0,1.353c0,0.066,0,0.132,0,0.198c0,0.518,0,1.041,0,1.571c0,0.066,0,0.126,0,0.179
	c0,0.066,0.014,0.126,0.04,0.18c0.04,0.079,0.094,0.152,0.158,0.219c0,0.065,0.007,0.1,0.021,0.1
	c0.173,0.065,0.358,0.099,0.558,0.099c0.066,0,0.119-0.014,0.159-0.04c0.026-0.04,0.039-0.093,0.039-0.158c0.066,0,0.133,0,0.199,0
	s0.125,0,0.179,0c0.53,0,1.054,0,1.571,0c0.065,0,0.133,0,0.199,0c0.065,0,0.132,0,0.198,0c0,0.065,0.014,0.118,0.04,0.158
	c0.026,0.026,0.08,0.04,0.159,0.04c0.065,0,0.132,0,0.199,0c0,0.066,0.013,0.112,0.039,0.139c0.04,0.04,0.087,0.061,0.139,0.061
	c0,0.053,0,0.112,0,0.179c0,0.265,0,0.53,0,0.795c0,0.066,0,0.133,0,0.199c-0.198,0-0.391,0-0.576,0c-0.066,0-0.133,0-0.198,0
	c-0.199,0-0.385,0.026-0.558,0.08c-0.014,0-0.02,0.032-0.02,0.1c-0.212-0.014-0.252,0.106-0.119,0.357
	c0.013,0.026,0.053,0.039,0.119,0.039v0.1c0.901,0.066,1.81,0.1,2.724,0.1c0,0.716,0,1.432,0,2.147c0,0.053,0,0.113,0,0.18
	c0,1.696,0,3.394,0,5.091c0,0.052,0,0.112,0,0.179c0,0.067,0.014,0.119,0.04,0.159c0.04,0.026,0.087,0.039,0.14,0.039
	c0.08,0,0.152,0,0.218,0c0.12,0,0.246,0,0.379,0c0.066,0,0.099-0.007,0.099-0.02c0.066-0.306,0.101-0.623,0.101-0.954
	c0-0.066,0-0.126,0-0.179c0-1.114,0-2.221,0-3.321c0.066,0,0.132,0,0.198,0c0.822,0,1.651,0,2.485,0
	c0.027-3.46,0.039-6.906,0.039-10.341c0.067,0,0.134,0,0.199,0c0.067,0,0.134,0,0.199,0c0.066,0,0.133,0,0.199,0
	s0.112-0.021,0.14-0.061c0.039-0.025,0.059-0.072,0.059-0.138c0.066,0,0.127,0,0.18,0c0.066,0,0.133,0,0.199,0
	c0.065,0,0.112-0.021,0.139-0.061c0.04-0.026,0.06-0.072,0.06-0.139s0-0.133,0-0.199c0-1.75,0-3.507,0-5.27
	c0.067,0,0.118-0.014,0.159-0.04c0.026-0.026,0.039-0.072,0.039-0.139c0.067,0,0.133,0,0.199,0c0.054,0,0.1-0.02,0.14-0.061
	c0.026-0.025,0.04-0.072,0.04-0.139c0.065,0,0.099-0.007,0.099-0.02c0.067-0.637,0.101-1.279,0.101-1.93
	c0.066,0,0.119-0.02,0.159-0.059c0.025-0.027,0.039-0.074,0.039-0.14c0-0.066,0-0.133,0-0.199c-0.066,0-0.132,0-0.198,0
	c0-0.065,0-0.132,0-0.199c-0.067,0-0.134,0-0.199,0c0-0.065,0-0.132,0-0.199c-0.067,0-0.126,0-0.18,0c0-0.065,0-0.132,0-0.198
	c0-0.053,0-0.113,0-0.179c0-0.066,0-0.133,0-0.198c0.054,0,0.112,0,0.18,0c0,0.065,0.02,0.119,0.06,0.158
	c0.026,0.026,0.072,0.04,0.14,0.04c0.066,0,0.132,0,0.198,0s0.106-0.014,0.12-0.04c0.052-0.105,0.079-0.225,0.079-0.357
	c0.066,0,0.132,0,0.199,0c0.834,0,1.677,0,2.524,0c0,0.065,0,0.133,0,0.199c0,0.065,0,0.132,0,0.198c0,0.065,0.014,0.112,0.04,0.139
	c0.039,0.027,0.093,0.04,0.158,0.04v0.1c0.067,0,0.134-0.033,0.199-0.1c0.067,0,0.113-0.013,0.141-0.04
	c0.039-0.026,0.059-0.073,0.059-0.139c0-0.066,0-0.133,0-0.198c0.054,0,0.112,0,0.18,0c0.066,0,0.119-0.021,0.159-0.06
	c0.026-0.027,0.039-0.074,0.039-0.14c0.066,0,0.133,0,0.199,0c0,0.065,0,0.133,0,0.199c0,0.065,0,0.132,0,0.198
	c0,0.065,0.013,0.112,0.04,0.139c0.04,0.027,0.093,0.04,0.158,0.04c0,0.066,0.013,0.119,0.04,0.159
	c0.039,0.027,0.093,0.039,0.159,0.039s0.113-0.012,0.14-0.039c0.039-0.04,0.059-0.093,0.059-0.159c0.054,0,0.101-0.013,0.14-0.04
	c0.026-0.026,0.04-0.073,0.04-0.139c0.066,0,0.112-0.014,0.139-0.04c0.04-0.039,0.061-0.093,0.061-0.158c0-0.066,0-0.134,0-0.199
	c0.065,0,0.132,0,0.199,0c0.065,0,0.131,0,0.198,0c0.186,0.014,0.378,0.014,0.577,0c0,0.065,0,0.133,0,0.199
	c0,0.132,0,0.257,0,0.377c0,0.066,0,0.133,0,0.198c-0.066,0-0.134,0-0.199,0c-0.066,0-0.112,0.021-0.14,0.061
	c-0.039,0.026-0.06,0.073-0.06,0.139c-0.054,0.067-0.08,0.134-0.08,0.199h0.08c0.066,0,0.133,0,0.199,0c0.065,0,0.133,0,0.199,0
	c0,0.518,0,1.034,0,1.552c0,0.065,0,0.132,0,0.198s0.019,0.119,0.059,0.16c0.027,0.025,0.073,0.039,0.14,0.039s0.133,0,0.199,0
	c0,0.066,0,0.132,0,0.199c0,0.066,0,0.132,0,0.198s0.007,0.1,0.02,0.1c0.172,0.066,0.358,0.1,0.557,0.1c0.067,0,0.133,0,0.199,0
	c0,4.997,0,10.002,0,15.014c0,0.066,0,0.132,0,0.198c0,0.053,0.021,0.1,0.06,0.14c0.026,0.027,0.073,0.04,0.139,0.04
	c0.066,0,0.127,0,0.18,0h0.02c0.053,0,0.1-0.013,0.14-0.04c0.026-0.04,0.04-0.087,0.04-0.14c-0.067,0-0.134,0-0.199,0
	c0-0.066,0-0.132,0-0.198c0.065,0,0.119-0.014,0.159-0.04c0.026-0.039,0.04-0.093,0.04-0.159c-0.067,0-0.134,0-0.199,0
	c0-0.066,0-0.133,0-0.198c0-0.186,0-0.378,0-0.577c0.065,0,0.119-0.02,0.159-0.06c0.026-0.026,0.04-0.073,0.04-0.139
	c0.066,0,0.118-0.014,0.158-0.04c0.039-0.04,0.061-0.093,0.061-0.159c0-0.053,0-0.119,0-0.199h0.079
	c0.065-0.517,0.099-1.034,0.099-1.551c0.067,0,0.134,0,0.199,0c0.955,0,1.909,0,2.864,0c0.079-0.306,0.226-0.504,0.437-0.597
	c0-0.066,0-0.126,0-0.179c0-1.246,0-2.486,0-3.72c0.066,0,0.133,0.008,0.199,0.021c0.889,0.078,1.61,0.006,2.167-0.219
	c0-0.067,0-0.127,0-0.18c0-0.066,0-0.133,0-0.199c0.054,0,0.1-0.014,0.141-0.04c0.025-0.039,0.039-0.093,0.039-0.158
	c-0.066,0-0.126,0-0.18,0c0-0.066,0-0.133,0-0.199c0.054,0,0.113,0,0.18,0c0.914,0,1.829,0,2.744,0c0.054,0,0.1-0.013,0.139-0.04
	c0.027-0.04,0.04-0.087,0.04-0.139c0-0.067,0-0.133,0-0.199s0-0.133,0-0.198c0.066,0,0.133,0,0.199,0s0.119-0.021,0.158-0.061
	c0.028-0.026,0.041-0.072,0.041-0.139c0.066,0,0.133,0,0.198,0c0.054,0,0.112,0,0.18,0c0.079,0,0.152,0,0.219,0
	c0.053,0,0.112,0,0.179,0s0.112-0.014,0.139-0.04c0.04-0.04,0.061-0.093,0.061-0.159c0.065,0,0.112-0.014,0.139-0.04
	c0.04-0.04,0.06-0.093,0.06-0.159c0.066,0,0.133,0,0.198,0c0.067,0,0.127,0,0.18,0c0,0.066,0.014,0.106,0.04,0.119
	c0.105,0.054,0.225,0.08,0.357,0.08c0,0.066,0.02,0.119,0.06,0.159c0.027,0.026,0.073,0.04,0.14,0.04s0.126,0,0.179,0
	c0,0.066,0,0.133,0,0.199c0,0.065,0.021,0.112,0.061,0.138c0.026,0.04,0.079,0.061,0.158,0.061c0.066,0,0.126,0,0.179,0
	c0,0.066,0.014,0.127,0.04,0.179c0.04,0.066,0.093,0.133,0.159,0.199c0.066,0,0.133,0,0.199,0c0.45,0,0.901,0,1.353,0
	c0,0.066-0.007,0.133-0.021,0.199c-0.014,0.145-0.02,0.277-0.02,0.397c0.742,0,1.478,0,2.206,0c0.067,0,0.127,0,0.18,0
	c0.066,0,0.133,0,0.199,0c0,0.053,0.013,0.1,0.04,0.14c0.039,0.026,0.092,0.04,0.159,0.04c0.065,0,0.132,0,0.198,0
	c0,0.065,0.013,0.118,0.04,0.158c0.04,0.026,0.086,0.039,0.139,0.039c0.066,0,0.133,0,0.199,0c0,0.067,0.021,0.12,0.06,0.159
	c0.026,0.027,0.073,0.04,0.14,0.04c0.065,0,0.132,0,0.198,0c0,0.067,0.014,0.113,0.04,0.14c0.04,0.04,0.093,0.059,0.159,0.059
	c0.054,0,0.119,0,0.199,0c0.065,0,0.132,0,0.198,0c0,0.067,0.013,0.113,0.04,0.14c0.026,0.04,0.072,0.06,0.139,0.06
	c0.067,0,0.133,0,0.199,0c0,0.067,0,0.134,0,0.199c0,0.053,0,0.112,0,0.18c0,0.066-0.007,0.132-0.02,0.198
	c-0.079,0.358-0.007,0.551,0.218,0.577c0,0.066,0.014,0.112,0.04,0.138c0.239,0.134,0.352,0.087,0.339-0.138
	c0.065,0,0.132,0,0.198,0s0.133,0,0.199,0c0.132,0,0.259,0,0.378,0c0.079,0,0.152,0,0.218,0c0,0.066,0,0.132,0,0.198
	c0,0.134,0,0.266,0,0.398c0,0.065,0,0.132,0,0.199c0,0.065,0.014,0.111,0.04,0.138c0.04,0.04,0.087,0.061,0.14,0.061
	c0.066,0,0.132,0,0.199,0c0.066,0,0.132,0,0.198,0c0,0.066,0.014,0.112,0.04,0.139c0.04,0.026,0.093,0.04,0.159,0.04
	s0.126,0,0.179,0c0.066,0,0.133,0,0.199,0c0,0.133,0,0.265,0,0.398c0,0.065,0,0.132,0,0.198s0.02,0.112,0.059,0.139
	c0.027,0.04,0.074,0.061,0.14,0.061c0,0.053,0,0.112,0,0.179s0,0.133,0,0.198c0.066,0,0.134,0,0.199,0c0,0.066,0,0.133,0,0.199
	c0.066,0,0.133,0,0.199,0c0,0.332,0,0.657,0,0.974c0.065,0,0.112-0.02,0.139-0.059c0.04-0.026,0.061-0.073,0.061-0.139
	c0.065,0,0.132,0,0.198,0c0.053,0,0.112,0,0.179,0s0.133,0,0.198,0c0.066,0,0.134,0,0.2,0c0,0.065,0,0.132,0,0.197
	c-0.226,0.04-0.299,0.233-0.219,0.578c0.013,0.065,0.019,0.132,0.019,0.198c0,0.08,0.014,0.132,0.04,0.16
	c0.04,0.025,0.094,0.039,0.16,0.039c0.065,0,0.132,0,0.198,0c0,0.397,0,0.789,0,1.173c0,0.066,0,0.133,0,0.199
	s0.007,0.105,0.02,0.119c0.106,0.053,0.227,0.079,0.357,0.079c0.067,0,0.134,0,0.2,0s0.132,0,0.198,0c0,0.053,0,0.113,0,0.18
	s0.014,0.112,0.04,0.139c0.106,0.053,0.226,0.08,0.357,0.08c0.066,0,0.127,0,0.181,0c0.276,0.079,0.41,0.007,0.396-0.219
	c0.066,0,0.133,0,0.198,0c0.187,0.014,0.379,0.014,0.577,0c0,0.066,0.013,0.126,0.04,0.179c0.04,0.08,0.093,0.152,0.159,0.219
	c0,1.816,0,3.64,0,5.469c0,0.053,0,0.112,0,0.18c0,0.265,0,0.529,0,0.794c0,0.067,0,0.134,0,0.199c0,0.066,0.013,0.101,0.04,0.101
	c0.251,0.145,0.371,0.111,0.357-0.101c0-0.065,0-0.132,0-0.199c0-0.065,0-0.132,0-0.198c0.066,0,0.133,0,0.199,0
	c0.119,0,0.245,0,0.378,0c0.065,0,0.099-0.007,0.099-0.02c0.067-0.318,0.1-0.637,0.1-0.955c0.066,0,0.133,0,0.199,0
	c0.716,0,1.426,0,2.128,0c0.066,0,0.132,0,0.199,0c0.463-0.014,0.92-0.014,1.372,0c0.065,0,0.132,0,0.198,0c1.365,0,2.73,0,4.097,0
	c0,0.066,0.013,0.112,0.04,0.14c0.04,0.04,0.092,0.06,0.159,0.06c0,0.053,0.013,0.1,0.039,0.14c0.026,0.026,0.073,0.04,0.14,0.04
	c0,0.065,0.02,0.119,0.059,0.158c0.027,0.039,0.074,0.06,0.14,0.06c0,0.066,0,0.126,0,0.179c0,0.066,0.021,0.113,0.06,0.14
	c0.027,0.04,0.074,0.06,0.14,0.06c0.066,0,0.133,0,0.198,0c0,0.066,0.008,0.1,0.021,0.1c0.252,0.065,0.504,0.099,0.755,0.099
	c0,0.067,0,0.134,0,0.199c0,0.066,0,0.126,0,0.18c0,0.065,0,0.132,0,0.198s0,0.133,0,0.199s0.014,0.125,0.041,0.179
	c0.039,0.079,0.093,0.146,0.159,0.199c0,0.065,0,0.139,0,0.218c0,0.067,0,0.133,0,0.199c0,0.054,0,0.113,0,0.179
	c0,0.066,0,0.133,0,0.199s0.013,0.127,0.039,0.179c0.04,0.08,0.094,0.152,0.159,0.22c0,0.053,0.007,0.079,0.02,0.079
	c0.862,0.159,1.571,0.132,2.128-0.079c0.053,0,0.113,0,0.18,0c0.065,0,0.139,0,0.218,0c0.054,0,0.101-0.021,0.14-0.061
	c0.026-0.026,0.04-0.073,0.04-0.139c0.066,0,0.132,0,0.199,0c0.065,0,0.112-0.021,0.139-0.06c0.04-0.027,0.06-0.073,0.06-0.14
	c0.066,0,0.133,0,0.199,0c0.053,0,0.112,0,0.179,0s0.133,0,0.198,0c0.066,0,0.1-0.007,0.1-0.02c0.067-0.371,0.1-0.756,0.1-1.153
	c0-0.066,0-0.133,0-0.199c0-0.252,0-0.51,0-0.775c-0.065,0-0.133,0-0.199,0c0-0.066,0-0.133,0-0.199c0-0.715,0-1.425,0-2.127
	c0.066,0,0.12-0.021,0.16-0.061c0.025-0.026,0.039-0.079,0.039-0.159c0.066,0,0.113-0.013,0.139-0.039
	c0.04-0.04,0.061-0.087,0.061-0.14c0.065,0,0.112-0.021,0.139-0.06c0.027-0.026,0.04-0.072,0.04-0.139
	c0.067,0,0.119-0.014,0.159-0.04c0.026-0.04,0.039-0.093,0.039-0.159c0.08,0,0.134-0.014,0.16-0.04
	c0.026-0.04,0.039-0.093,0.039-0.158c0.066,0,0.112-0.014,0.14-0.04c0.04-0.04,0.06-0.094,0.06-0.159c0-0.054,0-0.112,0-0.18
	c0-0.199,0-0.396,0-0.596c0-0.054,0-0.113,0-0.18c0-0.079,0-0.152,0-0.219c0.065,0,0.112-0.014,0.14-0.039
	c0.04-0.027,0.059-0.073,0.059-0.14c0.066,0,0.134,0,0.199,0c0.066,0,0.1-0.013,0.1-0.04c0.053-0.106,0.079-0.225,0.079-0.358
	c0-0.065,0-0.132,0-0.198c0-0.186,0-0.378,0-0.577c0-0.065,0-0.132,0-0.198c0-0.384,0-0.775,0-1.173c0.067,0,0.133,0,0.199,0
	c0,0.45,0,0.907,0,1.371c0,0.066,0,0.134,0,0.199c0,0.133,0,0.259,0,0.378c0,0.066,0,0.133,0,0.198c0,0.067,0,0.134,0,0.199
	c0,0.066,0.007,0.101,0.021,0.101c1.193,0.158,2.227,0.126,3.102-0.101c0.065,0,0.099-0.007,0.099-0.02
	c0.067-0.318,0.101-0.637,0.101-0.955c0-0.065,0-0.132,0-0.198c0-0.119,0-0.252,0-0.397c0.066,0,0.133,0,0.198,0
	c0.199,0.014,0.392,0.014,0.577,0c0,0.066,0.02,0.119,0.061,0.158c0.025,0.04,0.072,0.061,0.138,0.061c0.066,0,0.133,0,0.199,0
	c0.397,0,0.789,0,1.173,0c0.067,0,0.133,0,0.199,0c0.384,0,0.776,0,1.173,0c0.067,0,0.126,0,0.18,0c0.331,0,0.656,0,0.974,0
	c0.066,0,0.12-0.021,0.159-0.061c0.026-0.039,0.04-0.092,0.04-0.158s0-0.127,0-0.18c0.066,0,0.133,0,0.199,0
	c0,0.053,0.014,0.106,0.04,0.16c0.039,0.079,0.086,0.158,0.139,0.238c0.066,0,0.14,0,0.219,0c0.066,0,0.1-0.021,0.1-0.061
	c0.066-0.105,0.1-0.218,0.1-0.338c0.053,0,0.113,0,0.179,0c0.199,0,0.397,0,0.597,0c0,0.518,0,1.034,0,1.551
	c0,0.067,0,0.134,0,0.199c0,0.066,0.014,0.112,0.04,0.14c0.026,0.04,0.072,0.06,0.14,0.06c0.065,0,0.132,0,0.199,0
	c0.98,0,1.955,0,2.922,0c0,0.066,0.021,0.112,0.061,0.14c0.025,0.025,0.073,0.039,0.138,0.039c0,0.066,0,0.14,0,0.219
	c-0.091,0.531-0.025,0.915,0.199,1.154c0.066,0,0.134,0,0.199,0c0.066,0,0.133,0,0.199,0c0.45,0,0.901,0,1.353,0
	c0.066,0,0.132,0,0.199,0c0.782,0,1.563,0,2.346,0c0,0.065-0.007,0.131-0.021,0.198c-0.079,0.424-0.006,0.688,0.22,0.796
	c0,0.053,0.014,0.086,0.04,0.099c0.092,0.054,0.205,0.08,0.337,0.08c0.066,0,0.133,0,0.199,0v0.099
	c0.027-0.039,0.054-0.073,0.08-0.099h0.02c0-0.014,0-0.026,0-0.04c0.371-0.531,0.471-1.365,0.298-2.506c0-0.053,0-0.112,0-0.179
	c0.066,0,0.134,0,0.199,0c0,0.066,0.007,0.106,0.021,0.119c0.251,0.133,0.37,0.094,0.356-0.119c0.067,0,0.134,0,0.199,0
	c0.253,0,0.511,0,0.776,0c0.066,0,0.112-0.02,0.139-0.06c0.04-0.027,0.061-0.073,0.061-0.14c0-0.065,0-0.132,0-0.199
	c0.065,0,0.132,0,0.199,0c0.065,0,0.112-0.012,0.138-0.04c0.04-0.039,0.06-0.092,0.06-0.158c0.067,0,0.126,0,0.18,0
	c0.133,0,0.265,0,0.398,0c0.065,0,0.131,0,0.198,0c0.066,0,0.126,0,0.179,0c0.066,0,0.133,0,0.198,0c0.066,0,0.134,0.007,0.2,0.021
	c0.357,0.079,0.557,0.014,0.597-0.199c0.065,0,0.132,0,0.198,0c0,0.054,0.007,0.086,0.02,0.099c0.397,0.146,0.649,0.114,0.756-0.099
	c0.054,0,0.112,0,0.18,0c0.065,0,0.132,0,0.198,0c0,0.054,0.013,0.086,0.04,0.099c0.106,0.054,0.226,0.08,0.357,0.08
	c0,0.066-0.006,0.133-0.02,0.198c-0.08,0.278-0.007,0.412,0.218,0.398c0.067,0,0.134,0.007,0.199,0.021
	c0.346,0.079,0.538,0.007,0.577-0.22c0.066,0,0.132,0,0.199,0c0,0.066,0.013,0.112,0.04,0.14c0.04,0.04,0.085,0.06,0.139,0.06
	c0.066,0,0.133,0,0.199,0c0.782,0,1.564,0,2.346,0c0,1.366,0,2.731,0,4.097c0,0.053,0,0.112,0,0.18c0,1.364,0,2.73,0,4.095
	c0,0.08,0,0.153,0,0.22c0,0.835,0,1.677,0,2.525c0,0.066,0,0.133,0,0.199s0.007,0.099,0.021,0.099c0.504,0.066,1.014,0.1,1.531,0.1
	c0.065,0,0.133,0,0.199,0c0.131,0,0.265,0,0.397,0c0,0.053,0.013,0.1,0.039,0.14c0.04,0.025,0.093,0.039,0.159,0.039
	s0.133,0,0.199,0c0,0.066,0.006,0.1,0.02,0.1c0.372,0.067,0.749,0.1,1.134,0.1h0.1c0.079-0.835,0.119-1.677,0.119-2.525
	c0.053,0,0.1-0.02,0.139-0.06c0.026-0.026,0.04-0.073,0.04-0.14c0.066,0,0.133,0,0.199,0c0.065,0,0.112-0.02,0.14-0.06
	c0.039-0.026,0.059-0.072,0.059-0.139c0.066,0,0.134,0,0.199,0c0.318,0,0.637,0,0.955,0c0,0.066,0.02,0.112,0.059,0.139
	c0.027,0.04,0.073,0.06,0.14,0.06c0.08,0,0.146,0,0.199,0c0.199,0,0.398,0,0.596,0c0.067,0,0.133,0,0.199,0c0.054,0,0.113,0,0.179,0
	c0.199,0,0.398,0,0.598,0c0.053,0,0.112,0,0.178,0c0.08,0,0.12-0.007,0.12-0.02c0.066-1.1,0.1-2.2,0.1-3.301
	c0-0.066,0-0.133,0-0.199c0-0.649,0-1.299,0-1.949c0-0.065,0-0.131,0-0.198c0-1.618,0-3.241,0-4.872c0-0.066,0-0.126,0-0.179
	c-0.067,0-0.14,0-0.22,0c0-0.08,0-0.152,0-0.219c0-0.12,0-0.246,0-0.378c0.08,0,0.134-0.014,0.159-0.04
	c0.041-0.039,0.061-0.093,0.061-0.159c0.053,0,0.112,0,0.179,0s0.133,0,0.199,0c0.331,0,0.655,0,0.974,0
	c0,0.066,0.021,0.12,0.061,0.159c0.026,0.026,0.072,0.04,0.139,0.04c0,0.066,0,0.132,0,0.198c0,0.053,0,0.113,0,0.18
	s0,0.139,0,0.219c0,0.053,0,0.112,0,0.179c-0.066,0-0.112,0.014-0.139,0.039c-0.04,0.041-0.061,0.094-0.061,0.159
	c0,0.134,0,0.266,0,0.398c0,0.054,0,0.112,0,0.179c0,0.266,0,0.523,0,0.775c0,0.066,0,0.14,0,0.219c0,0.066,0.021,0.113,0.061,0.14
	c0.026,0.026,0.072,0.04,0.139,0.04c0,0.396,0,0.789,0,1.173c0,0.066,0,0.132,0,0.199c0,0.198,0,0.397,0,0.597
	c0,0.053,0,0.112,0,0.179c0,0.198,0,0.397,0,0.597c0,0.052,0,0.112,0,0.179c0,0.198,0,0.397,0,0.597c0,0.053,0,0.112,0,0.18
	c0,0.211,0,0.41,0,0.596c0,0.066,0,0.133,0,0.198c0,0.067-0.007,0.127-0.02,0.18c-0.079,0.291-0.014,0.425,0.199,0.397
	c0,0.331,0,0.663,0,0.994c0,0.054,0,0.113,0,0.179c0,0.199,0,0.398,0,0.598c0,0.053,0,0.112,0,0.178c0,0.2,0,0.398,0,0.598
	c0,0.053,0,0.112,0,0.178c0,0.08,0,0.147,0,0.199c-0.08,0.278-0.007,0.411,0.218,0.398c0.066,0,0.126,0,0.179,0
	c0.397,0,0.789,0,1.174,0c0,0.066,0,0.133,0,0.198c0.026,3.129,0.159,6.185,0.398,9.168c0,0.065,0,0.133,0,0.198
	c0,0.066,0,0.133,0,0.199c-11.641,0-23.281,0-34.921,0c-5.209,0-10.413,0-15.61,0h-19.309c-5.197,0-10.4,0-15.61,0h-19.309
	c-5.211,0-10.414,0-15.61,0h-19.31c-5.196,0-10.4,0-15.611,0h-19.309c-5.21,0-10.413,0-15.61,0c-6.443,0-12.879,0-19.309,0h-3.917
	c-3.884,0-7.782,0-11.693,0c-11.64,0-23.279,0-34.919,0c-10.407,0-20.814,0-31.221,0c0-0.066,0-0.133,0-0.199
	c0-4.229,0-8.458,0-12.687c0.08,0,0.146,0,0.199,0c0.066,0,0.133,0,0.199,0c0.066,0,0.132,0,0.199,0c0.066,0,0.106-0.014,0.119-0.04
	c0.053-0.106,0.08-0.226,0.08-0.357c0.066,0,0.126,0.007,0.179,0.02c0.358,0.093,0.557,0.026,0.597-0.199c0.066,0,0.132,0,0.199,0
	c0.053,0,0.112,0,0.179,0c0.066,0,0.14,0,0.219,0c0,0.066,0.013,0.119,0.04,0.159c0.105,0.146,0.285,0.219,0.537,0.219
	c0.066,0,0.133,0,0.199,0c0.053,0,0.113,0,0.179,0c0.067,0,0.12-0.014,0.16-0.039c0.026-0.04,0.04-0.094,0.04-0.159
	c0.066,0,0.132,0,0.199,0s0.133,0,0.199,0c0.066,0,0.126,0,0.179,0c0.066,0,0.14,0,0.219,0c0.066,0,0.113-0.014,0.139-0.04
	c0.026-0.027,0.04-0.073,0.04-0.14h0.1c0.066-2.147,0.099-4.296,0.099-6.443c0.067,0,0.113-0.019,0.14-0.059
	c0.04-0.027,0.06-0.073,0.06-0.14c0.066,0,0.113-0.014,0.139-0.04c0.04-0.04,0.06-0.086,0.06-0.139c0.066,0,0.126-0.021,0.179-0.061
	c0.066-0.039,0.132-0.092,0.199-0.158c0.067,0,0.126-0.007,0.179-0.02c0.08-0.054,0.152-0.107,0.219-0.16c0.066,0,0.125,0,0.179,0
	c0,0.053,0.02,0.1,0.059,0.14c0.026,0.027,0.073,0.04,0.14,0.04c0.079,0,0.152,0,0.219,0c0.053,0,0.113,0,0.179,0
	c0,0.066,0.014,0.119,0.04,0.158c0.04,0.04,0.093,0.061,0.159,0.061c0,0.053,0.014,0.099,0.04,0.139
	c0.04,0.026,0.093,0.04,0.159,0.04c0,0.066,0.014,0.112,0.04,0.14c0.04,0.04,0.093,0.059,0.159,0.059c0,0.066,0,0.134,0,0.199
	c-0.226,0.173-0.265,0.484-0.12,0.935c0.013,0.027,0.053,0.04,0.12,0.04c0,0.066,0.006,0.126,0.02,0.179
	c0.04,0.066,0.092,0.14,0.159,0.219c0,0.066,0.02,0.113,0.06,0.14c0.026,0.026,0.073,0.04,0.139,0.04c0,0.065,0,0.132,0,0.199
	c0,1.364,0,2.73,0,4.096c0,0.066,0,0.133,0,0.198c0,0.067,0.02,0.113,0.06,0.141c0.026,0.039,0.073,0.059,0.139,0.059
	c0,0.066,0.02,0.112,0.06,0.14c0.026,0.026,0.073,0.04,0.139,0.04c0,0.065,0,0.132,0,0.198s-0.006,0.133-0.02,0.199
	c-0.08,0.809-0.014,1.458,0.198,1.949c0.067,0,0.139,0,0.219,0c0.067,0,0.126,0,0.179,0c0,0.065,0,0.132,0,0.198
	c0,0.065,0.02,0.112,0.06,0.139c0.027,0.04,0.073,0.061,0.139,0.061c0.067,0,0.126,0.007,0.179,0.019
	c0.279,0.067,0.411-0.005,0.398-0.218c0.066,0,0.119-0.014,0.159-0.04c0.026-0.04,0.04-0.093,0.04-0.158
	c0.066,0,0.12-0.014,0.159-0.04c0.026-0.04,0.04-0.094,0.04-0.16c0.065,0,0.119-0.013,0.158-0.039c0.027-0.04,0.04-0.086,0.04-0.139
	c-0.066,0-0.133,0-0.198,0c0-0.067,0-0.134,0-0.199c0.065,0,0.099-0.007,0.099-0.021c0.054-0.569,0.086-1.153,0.1-1.749
	c-0.066,0-0.133,0-0.198,0c0-0.054,0-0.113,0-0.18c0.065,0,0.105-0.02,0.119-0.059c0.053-0.094,0.08-0.206,0.08-0.339
	c0.066,0,0.126,0,0.179,0c0.583,0.014,1.173,0.014,1.77,0c0.066,0,0.133,0,0.199,0c0,0.066,0,0.133,0,0.198
	c0,0.067,0.014,0.113,0.04,0.141c0.026,0.039,0.073,0.059,0.139,0.059c0,0.066,0.02,0.112,0.06,0.14
	c0.04,0.026,0.093,0.04,0.159,0.04c0,0.265,0,0.522,0,0.775c0,0.065,0,0.139,0,0.218v0.1c0.451,0.054,0.901,0.087,1.352,0.1
	c0.067,0,0.12-0.02,0.16-0.06c0.026-0.026,0.04-0.072,0.04-0.14c0-0.079,0-0.152,0-0.218c0-0.12,0-0.246,0-0.378
	c0.066,0,0.126,0,0.179,0c0.067,0,0.14,0,0.219,0c0.066,0,0.126,0,0.179,0c0.133,0,0.265,0,0.398,0c0,0.132,0,0.258,0,0.378
	c0,0.065,0,0.139,0,0.218v0.1c0.463,0.054,0.921,0.087,1.372,0.1c0.066,0,0.132,0,0.199,0c0.053,0,0.1-0.02,0.139-0.06
	c0.026-0.026,0.04-0.072,0.04-0.14c0.066,0,0.112-0.02,0.139-0.059c0.04-0.04,0.06-0.094,0.06-0.159c0.066,0,0.133,0,0.198,0h0.1
	c0.066-0.253,0.1-0.511,0.1-0.775c0-0.054,0-0.113,0-0.18c0.066,0,0.126-0.02,0.179-0.059c0.067-0.027,0.133-0.073,0.199-0.141
	c0.066,0,0.119-0.02,0.159-0.06c0.026-0.025,0.04-0.072,0.04-0.139s0-0.133,0-0.199c0.066,0,0.113-0.013,0.14-0.04
	c0.04-0.026,0.06-0.072,0.06-0.139c0-0.079,0-0.152,0-0.218c0.066,0,0.112-0.014,0.139-0.04c0.026-0.04,0.04-0.087,0.04-0.14
	c0-0.066,0-0.133,0-0.199c0.08,0,0.132-0.014,0.159-0.04c0.04-0.039,0.06-0.092,0.06-0.159c0.065,0,0.125,0,0.179,0
	c0.066,0,0.132,0,0.198,0c0,0.067,0.014,0.12,0.04,0.159c0.04,0.026,0.093,0.04,0.159,0.04c0,0.066,0.014,0.112,0.04,0.14
	c0.04,0.04,0.093,0.06,0.159,0.06c0,0.053,0,0.112,0,0.18c0,0.065,0.014,0.119,0.04,0.158c0.04,0.039,0.093,0.06,0.159,0.06
	c0,0.066,0.014,0.112,0.04,0.139c0.027,0.027,0.073,0.04,0.139,0.04c0,0.066,0.02,0.113,0.06,0.14c0.027,0.04,0.073,0.06,0.139,0.06
	c0,0.066,0,0.133,0,0.198c0,0.067,0.02,0.113,0.06,0.141c0.026,0.039,0.073,0.059,0.139,0.059c0,0.066,0.013,0.112,0.04,0.14
	c0.04,0.026,0.093,0.04,0.159,0.04c0.053,0,0.119,0,0.199,0c0.517,0,1.034,0,1.551,0c0,0.065,0,0.132,0,0.198s0,0.133,0,0.199
	s0.02,0.119,0.06,0.159c0.026,0.026,0.073,0.039,0.139,0.039c0.066,0,0.133,0,0.199,0c0.133,0,0.258,0,0.378,0
	c0,0.066,0,0.126,0,0.18c0,0.065,0.02,0.119,0.06,0.159c0.027,0.039,0.073,0.059,0.139,0.059c0.066,0,0.133,0,0.199,0
	c0.57,0,1.153,0,1.75,0c0.066,0,0.112-0.02,0.139-0.059c0.04-0.04,0.06-0.094,0.06-0.159c0-0.054,0-0.113,0-0.18
	c0-0.132,0-0.265,0-0.397c0.067,0,0.132,0.007,0.199,0.021c0.742,0.092,1.325,0.02,1.75-0.219c0-0.054,0-0.113,0-0.18
	c0-0.065,0-0.132,0-0.199c0.065,0,0.112-0.02,0.139-0.06c0.04-0.025,0.06-0.072,0.06-0.139c0.065,0,0.132,0,0.199,0
	c0.066,0,0.125,0,0.179,0c0.066,0,0.12-0.02,0.159-0.06c0.027-0.026,0.04-0.073,0.04-0.14c0.066,0,0.133,0,0.199,0
	c0.066,0,0.133,0,0.199,0c0.067,0,0.133,0,0.199,0c0.067,0,0.133,0,0.199,0s0.133,0,0.199,0c0.053,0,0.112,0,0.179,0
	c0,0.066,0.02,0.113,0.06,0.14c0.026,0.04,0.072,0.06,0.139,0.06s0.133,0,0.199,0c0.066,0,0.132,0,0.198,0
	c0,0.066,0.014,0.113,0.04,0.139c0.027,0.04,0.073,0.06,0.139,0.06c0.066,0,0.133,0,0.199,0c0.133,0,0.266,0,0.398,0
	c0.067,0,0.132,0,0.199,0c0.132,0,0.259,0,0.378,0c0.065,0,0.132,0,0.199,0c0.132,0,0.265,0,0.397,0c0.066,0,0.126,0,0.179,0
	c0.132,0,0.265,0,0.398,0c0.066,0,0.099-0.007,0.099-0.02c0.079-0.835,0.113-1.67,0.1-2.505c0-0.067,0-0.14,0-0.22
	c0.066,0,0.112-0.013,0.139-0.039c0.04-0.04,0.06-0.087,0.06-0.14c0-0.066,0-0.132,0-0.198c0-0.067,0-0.133,0-0.199
	c0-0.067,0-0.133,0-0.198c0-0.318,0-0.644,0-0.975c0.066,0,0.113-0.014,0.139-0.04c0.04-0.026,0.06-0.073,0.06-0.14
	c0.065,0,0.112-0.02,0.139-0.059c0.04-0.04,0.06-0.094,0.06-0.16c0-0.053,0-0.112,0-0.179c0-0.915,0-1.829,0-2.744
	c0-0.054,0-0.112,0-0.179c0.053,0,0.099-0.021,0.139-0.061c0.026-0.026,0.04-0.072,0.04-0.139c0.067,0,0.113-0.02,0.14-0.06
	c0.04-0.026,0.06-0.073,0.06-0.139c0-0.067,0-0.133,0-0.199c0.066,0,0.12-0.014,0.159-0.039c0.027-0.028,0.04-0.08,0.04-0.16
	c0.066,0,0.113-0.014,0.139-0.04c0.04-0.039,0.06-0.093,0.06-0.158c0-0.054,0-0.113,0-0.18c0.053,0,0.1-0.02,0.14-0.06
	c0.026-0.026,0.04-0.072,0.04-0.14c0.067,0,0.119-0.013,0.159-0.039c0.027-0.04,0.04-0.093,0.04-0.16c0.067,0,0.12-0.02,0.159-0.059
	c0.026-0.026,0.04-0.073,0.04-0.139c0.066,0,0.132,0,0.199,0c1.034,0,2.075,0,3.122,0c0,0.065,0.013,0.106,0.04,0.119
	c0.106,0.052,0.219,0.078,0.338,0.078c0,0.067,0.021,0.12,0.06,0.16c0.026,0.026,0.08,0.039,0.159,0.039c0,0.067,0,0.133,0,0.199
	s0.013,0.113,0.04,0.14s0.073,0.04,0.139,0.04c0,0.065,0,0.132,0,0.198c0,0.08,0.021,0.132,0.06,0.16
	c0.027,0.025,0.073,0.039,0.139,0.039c0,0.066,0,0.132,0,0.199c0,0.065,0.014,0.112,0.04,0.139c0.04,0.04,0.093,0.06,0.159,0.06
	c0,0.066,0.014,0.105,0.04,0.119c0.106,0.053,0.219,0.08,0.338,0.08c0.013,0.835,0.013,1.677,0,2.524c0,0.067,0,0.134,0,0.199
	c0,0.066,0.02,0.112,0.06,0.14c0.026,0.04,0.072,0.06,0.139,0.06c0.066,0,0.132,0,0.199,0c0.186,0,0.378,0,0.577,0
	c0,0.066,0.02,0.112,0.06,0.14c0.039,0.025,0.085,0.039,0.139,0.039c0,0.066-0.006,0.14-0.02,0.219
	c-0.08,0.345-0.006,0.537,0.219,0.576c0,0.067,0.014,0.101,0.04,0.101c0.531,0.146,0.908,0.112,1.134-0.101h0.099
	c0.066-1.895,0.1-3.784,0.1-5.666c0.053,0,0.113,0.006,0.179,0.02c0.491,0.079,0.822,0.014,0.995-0.199c0.053,0,0.1-0.02,0.139-0.06
	c0.026-0.026,0.04-0.073,0.04-0.14c-0.066,0-0.126,0-0.179,0c0-0.065,0-0.132,0-0.198c0-0.133,0-0.266,0-0.398
	c0.053,0,0.1-0.012,0.139-0.04c0.026-0.039,0.04-0.092,0.04-0.158c-0.066,0-0.126,0-0.179,0c0-0.066,0-0.126,0-0.179
	c0-0.133,0-0.266,0-0.397c0.053,0,0.113,0.006,0.179,0.02c0.411,0.092,0.669,0.02,0.775-0.22c0.066,0,0.113-0.013,0.14-0.039
	c0.053-0.106,0.079-0.219,0.079-0.338c0.066,0,0.126,0,0.179,0c0.132,0,0.265,0,0.397,0c0,0.066,0.013,0.112,0.041,0.139
	c0.039,0.026,0.092,0.04,0.159,0.04c0,0.066,0.013,0.119,0.04,0.159c0.04,0.026,0.086,0.039,0.139,0.039c0.066,0,0.132,0,0.199,0
	c0.066,0,0.106-0.013,0.119-0.039c0.053-0.106,0.079-0.219,0.079-0.338c0.067,0,0.133,0,0.199,0s0.133,0,0.199,0
	c0,0.066,0.014,0.112,0.04,0.139c0.027,0.026,0.073,0.04,0.14,0.04c0,0.066,0.013,0.105,0.04,0.119
	c0.941,0.238,1.578,0.14,1.909-0.298c0.08,0,0.152,0,0.219,0c0,0.066,0.006,0.1,0.02,0.1c1.18,0.291,2.539,0.384,4.077,0.277
	c0,0.518,0,1.041,0,1.571c0,0.066,0,0.133,0,0.199c0,0.054,0.013,0.1,0.04,0.14c0.04,0.026,0.086,0.04,0.14,0.04
	c0.065,0,0.132,0,0.198,0c0.265,0,0.524,0,0.775,0c0,0.065,0,0.132,0,0.197c0,0.067,0,0.134,0,0.199c0,0.067,0,0.133,0,0.199
	s0,0.126,0,0.18c0,0.065,0.021,0.119,0.06,0.158c0.026,0.026,0.073,0.04,0.139,0.04c0,0.132,0,0.266,0,0.398
	c0,0.065,0,0.131,0,0.198c0,0.066,0.02,0.112,0.06,0.139c0.027,0.04,0.073,0.061,0.139,0.061s0.126,0,0.179,0
	c0.199,0,0.397,0,0.596,0c0,0.119,0,0.244,0,0.378c0,0.065,0,0.132,0,0.198s0,0.133,0,0.199c0,1.696,0,3.388,0,5.07
	c0,0.066,0,0.133,0,0.199s0,0.133,0,0.199c0,1.166,0,2.333,0,3.499c0,0.066,0,0.133,0,0.199s0.014,0.1,0.04,0.1
	c0.53,0.146,0.908,0.112,1.134-0.1c0-0.066,0-0.133,0-0.199c-0.014-0.968-0.014-1.941,0-2.923c0.066,0,0.099-0.007,0.099-0.02
	c0.08-0.849,0.113-1.69,0.1-2.525c0.053,0,0.1-0.014,0.139-0.04s0.06-0.072,0.06-0.14c0.066,0,0.113-0.02,0.139-0.06
	c0.04-0.025,0.06-0.072,0.06-0.14c0-0.065,0-0.132,0-0.197c0-0.518,0-1.034,0-1.552c0.067,0,0.113-0.021,0.139-0.061
	c0.027-0.026,0.04-0.072,0.04-0.139c0.066,0,0.133,0,0.199,0c0.066,0,0.112-0.019,0.139-0.059c0.04-0.027,0.06-0.074,0.06-0.141
	c0-0.065,0-0.132,0-0.198s0-0.126,0-0.179c0.066,0,0.112-0.021,0.139-0.061c0.04-0.039,0.06-0.092,0.06-0.158
	c0.066,0,0.112-0.013,0.139-0.04c0.027-0.04,0.04-0.087,0.04-0.14c0-0.066,0-0.132,0-0.198s0-0.133,0-0.199
	c0.065,0,0.119-0.014,0.159-0.039c0.026-0.04,0.04-0.094,0.04-0.159c0-0.066,0-0.134,0-0.199c0.066,0,0.119-0.014,0.159-0.04
	c0.027-0.026,0.041-0.072,0.041-0.139c0-0.067,0-0.133,0-0.199c0.065,0,0.119-0.02,0.159-0.06c0.026-0.026,0.04-0.073,0.04-0.139
	c0-0.067,0.013-0.113,0.04-0.14c0.04-0.041,0.093-0.06,0.159-0.06c0.066,0,0.113-0.014,0.139-0.039c0.04-0.028,0.06-0.08,0.06-0.16
	c0-0.066,0-0.133,0-0.198c0-0.054,0-0.113,0-0.18c0.066,0,0.113-0.02,0.139-0.06c0.04-0.026,0.06-0.072,0.06-0.14
	c0-0.065,0-0.132,0-0.199c0-0.251,0-0.51,0-0.774c0.053,0,0.112,0,0.179,0s0.133,0,0.199,0c0,0.066,0,0.133,0,0.198
	c0,0.066,0,0.133,0,0.199c0,0.054,0,0.112,0,0.18c0,0.065,0.013,0.112,0.04,0.139c0.04,0.039,0.093,0.059,0.159,0.059
	c0,0.067,0.013,0.12,0.041,0.16c0.039,0.026,0.092,0.039,0.159,0.039c0,0.067,0,0.133,0,0.199s0.013,0.113,0.04,0.14
	c0.026,0.026,0.072,0.04,0.139,0.04c0,0.065,0,0.132,0,0.198c0,0.08,0.02,0.132,0.06,0.16c0.026,0.025,0.073,0.039,0.139,0.039
	c0,0.066,0,0.132,0,0.199c0,0.065,0,0.131,0,0.198c0,0.066,0.02,0.112,0.06,0.139c0.026,0.04,0.073,0.061,0.139,0.061
	c0,0.066,0,0.125,0,0.179c0,0.065,0.02,0.119,0.06,0.159c0.026,0.026,0.073,0.04,0.139,0.04c0,0.065,0,0.132,0,0.198
	s0.014,0.12,0.04,0.159c0.04,0.026,0.093,0.04,0.159,0.04c0,0.066,0,0.132,0,0.198c0,0.053,0.014,0.1,0.04,0.14
	c0.04,0.027,0.092,0.04,0.159,0.04c0,0.066,0.013,0.119,0.041,0.158c0.026,0.04,0.072,0.061,0.139,0.061
	c0.067,0,0.113-0.021,0.139-0.061c0.04-0.039,0.06-0.092,0.06-0.158s0-0.127,0-0.18c0-0.132,0-0.265,0-0.397
	c0.066,0,0.119-0.014,0.159-0.039c0.026-0.04,0.04-0.094,0.04-0.159c0.066,0,0.113-0.014,0.139-0.04
	c0.04-0.04,0.06-0.094,0.06-0.159c0-0.054,0-0.112,0-0.179c0.066,0,0.113-0.021,0.139-0.061c0.027-0.026,0.04-0.072,0.04-0.139
	c0.066,0,0.119-0.02,0.159-0.06c0.027-0.026,0.04-0.073,0.04-0.139c0.066,0,0.132,0,0.199,0c0,0.065,0.02,0.112,0.06,0.139
	c0.027,0.04,0.073,0.06,0.139,0.06c0,0.066,0.014,0.112,0.04,0.139c0.04,0.04,0.092,0.061,0.159,0.061c0,0.066,0,0.125,0,0.179
	c0,0.065,0.013,0.119,0.04,0.159c0.04,0.026,0.093,0.04,0.159,0.04c0,0.065,0.013,0.119,0.04,0.159
	c0.04,0.025,0.086,0.039,0.14,0.039c0,0.133,0,0.266,0,0.397c0,0.053,0,0.113,0,0.18s0.02,0.119,0.06,0.158
	c0.027,0.04,0.073,0.061,0.139,0.061c0,0.053,0.013,0.099,0.04,0.139c0.04,0.026,0.092,0.04,0.159,0.04c0.065,0,0.132,0,0.199,0
	c0,0.066,0.013,0.112,0.04,0.14c0.04,0.04,0.093,0.059,0.159,0.059c0.053,0,0.113,0,0.178,0c0.067,0,0.133,0,0.199,0
	c0,0.066,0,0.134,0,0.199c0,0.066-0.006,0.133-0.02,0.199c-0.08,0.424-0.006,0.683,0.219,0.775c0.067,0,0.133,0,0.199,0
	c0,0.066,0,0.126,0,0.179c-0.106,2.188-0.04,4.203,0.199,6.046c0.067,0,0.133,0,0.199,0c0,0.065-0.006,0.139-0.02,0.218
	c-0.093,1.592-0.027,3.017,0.199,4.276c0.066,0,0.132,0,0.199,0c0.066,0,0.132,0,0.198,0c0.067,0,0.133,0,0.199,0
	c0.067,0,0.126,0,0.179,0c0.066,0,0.133,0,0.199,0s0.132,0,0.199,0c0,0.066,0,0.132,0,0.198s0.02,0.113,0.06,0.14
	c0.026,0.04,0.072,0.06,0.139,0.06c0,0.066,0.013,0.112,0.04,0.139c0.04,0.04,0.093,0.061,0.16,0.061
	c0,0.066,0.013,0.112,0.04,0.139c0.04,0.04,0.092,0.06,0.159,0.06c0.066,0,0.125,0,0.179,0h0.099c0.066-2.93,0.1-5.859,0.1-8.789
	c0.066,0,0.132,0,0.199,0c0.795,0,1.578,0,2.346,0c0.066,0,0.126,0,0.179,0c0.066,0,0.119-0.014,0.159-0.04
	c0.026-0.04,0.04-0.086,0.04-0.139c0-0.067,0-0.14,0-0.22c0.08,0,0.132-0.013,0.159-0.039c0.026-0.04,0.04-0.087,0.04-0.14
	c0.066,0,0.132,0,0.199,0c0.809,0.093,1.458,0.026,1.949-0.198c0.066,0,0.112-0.014,0.139-0.04c0.04-0.04,0.06-0.093,0.06-0.159
	c0.066,0,0.113-0.014,0.139-0.04c0.04-0.04,0.06-0.093,0.06-0.158c0-0.067,0-0.134,0-0.199c0.067,0,0.113-0.014,0.139-0.04
	c0.04-0.026,0.06-0.072,0.06-0.14c0.053,0,0.099-0.02,0.139-0.06c0.027-0.025,0.04-0.072,0.04-0.14c0-0.065,0-0.132,0-0.197
	c0-0.067,0-0.134,0-0.199c0-0.054,0-0.113,0-0.18c0-0.146,0-0.278,0-0.397c0.066,0,0.119-0.02,0.159-0.06
	c0.027-0.027,0.04-0.073,0.04-0.14c0-0.065,0-0.132,0-0.199c0-0.185,0-0.377,0-0.576c0.066,0,0.119-0.019,0.159-0.059
	c0.027-0.027,0.04-0.074,0.04-0.141c0.066,0,0.113-0.019,0.139-0.059c0.04-0.027,0.06-0.073,0.06-0.14c-0.067,0-0.133,0-0.199,0
	c0-0.066,0-0.126,0-0.179c0.066,0,0.113-0.021,0.139-0.061c0.04-0.039,0.06-0.092,0.06-0.158c0.052,0,0.099-0.013,0.139-0.04
	c0.026-0.04,0.04-0.087,0.04-0.14c0-0.066,0-0.132,0-0.198s0-0.133,0-0.199c0.066,0,0.119-0.014,0.159-0.039
	c0.04-0.04,0.06-0.094,0.06-0.159c0-0.066,0-0.134,0-0.199c0-0.054,0-0.112,0-0.179c0-0.067,0-0.133,0-0.199
	c-0.013-0.318-0.013-0.643,0-0.975c0-0.066,0-0.132,0-0.199c0-0.065,0-0.132,0-0.199c0.066,0,0.125,0,0.178,0
	c0.067,0,0.106-0.006,0.12-0.02c0.053-0.238,0.08-0.49,0.08-0.755c0-0.066,0-0.133,0-0.199c0.066,0,0.113-0.013,0.139-0.04
	c0.04-0.04,0.06-0.093,0.06-0.159c0-0.065,0-0.132,0-0.198c0.066,0,0.133,0,0.199,0c0,0.066,0,0.133,0,0.198
	c0,0.066,0,0.133,0,0.199s0.013,0.112,0.04,0.14c0.04,0.039,0.086,0.06,0.139,0.06c0,0.066,0,0.133,0,0.198
	c-0.093,0.345-0.026,0.537,0.199,0.576c0,0.067,0,0.134,0,0.199c-0.093,0.809-0.027,1.459,0.199,1.949
	c0,0.066-0.007,0.126-0.02,0.179c-0.08,0.292-0.007,0.425,0.218,0.398c0,0.066,0,0.139,0,0.219
	c-0.066,0.053-0.099,0.112-0.099,0.179h0.099c0.066,0,0.126,0,0.179,0c0,0.066,0,0.133,0,0.198c0,0.066,0,0.134,0,0.199
	c0,0.066,0.02,0.112,0.06,0.139c0.026,0.04,0.072,0.061,0.139,0.061c0.079,0,0.152,0,0.218,0c0,0.054,0.014,0.099,0.041,0.139
	c0.026,0.027,0.073,0.04,0.139,0.04c0,0.066-0.006,0.133-0.02,0.198c-0.411,1.725,0.186,2.439,1.79,2.148
	c0,0.066,0.014,0.119,0.04,0.159c0.04,0.026,0.086,0.04,0.14,0.04c0.066,0,0.132,0,0.199,0s0.132,0,0.199,0
	c0,0.066,0.007,0.099,0.02,0.099c0.172,0.066,0.358,0.1,0.557,0.1c0.066,0,0.133,0,0.199,0c0.132,0,0.258,0,0.377,0
	c0.066,0,0.139,0,0.219,0c0.12,0,0.246,0,0.378,0c0.066,0,0.132,0,0.199,0c0.132,0,0.265,0,0.398,0c0.053,0,0.113,0,0.179,0
	c0.066,0,0.132,0,0.198,0c0,0.053,0.014,0.106,0.04,0.16c0.04,0.092,0.093,0.171,0.16,0.238c0,0.053,0,0.112,0,0.179
	s0.013,0.105,0.04,0.119c0.106,0.054,0.219,0.079,0.338,0.079c0,0.385,0,0.775,0,1.174c0,0.053,0,0.112,0,0.18
	c0,0.065,0.02,0.119,0.06,0.158c0.04,0.039,0.092,0.06,0.159,0.06c0,0.066,0.013,0.112,0.04,0.139c0.027,0.027,0.073,0.04,0.14,0.04
	c0.066,0,0.132,0,0.199,0c0.013,0.451,0.013,0.908,0,1.372c0,0.066,0,0.126,0,0.18c0,0.065-0.007,0.132-0.02,0.198
	c-0.08,0.292-0.007,0.425,0.219,0.397c0.066,0,0.132,0,0.199,0c0.066,0,0.125,0,0.179,0c0.066,0,0.133,0,0.199,0s0.133,0,0.199,0
	c0,0.066,0.02,0.113,0.06,0.14c0.027,0.04,0.073,0.06,0.14,0.06v0.1c0.066,0,0.126-0.033,0.179-0.1c0-0.066,0-0.133,0-0.199
	c0-0.065,0-0.125,0-0.179c0-0.066,0-0.132,0-0.199c0-0.079,0-0.152,0-0.218c0-0.054,0-0.113,0-0.18c0.066,0,0.139,0,0.219,0
	c0.066,0,0.125,0,0.179,0c0.066,0,0.12-0.013,0.159-0.039c0.026-0.04,0.04-0.093,0.04-0.159s0-0.133,0-0.199
	c0.066,0,0.112-0.014,0.139-0.039c0.04-0.04,0.06-0.094,0.06-0.159c0.066,0,0.133,0,0.198,0h0.1c0.067-3.116,0.1-6.238,0.1-9.366
	c0.053,0,0.113,0,0.179,0c0.133,0,0.266,0,0.398,0c0.066,0,0.106-0.007,0.119-0.021c0.053-0.106,0.08-0.226,0.08-0.358
	c0.053,0,0.119,0.007,0.199,0.021c0.478,0.079,0.802,0.007,0.974-0.22c0.067,0,0.1-0.006,0.1-0.02
	c0.053-0.371,0.08-0.755,0.08-1.153c0.066,0,0.132,0,0.199,0c1.631,0,3.262,0,4.892,0c0,0.066-0.006,0.133-0.02,0.199
	c-0.08,0.543-0.013,0.935,0.199,1.173v0.1c1.431,0.066,2.864,0.1,4.295,0.1c0,0.066,0,0.126,0,0.18
	c-0.106,1.086-0.04,2.001,0.199,2.743c0.066,0,0.132,0,0.199,0c0.464,0,0.921,0,1.372,0c0,0.066,0.013,0.113,0.04,0.141
	c0.026,0.04,0.073,0.059,0.139,0.059c0,0.066-0.007,0.133-0.02,0.199c-0.08,0.344-0.007,0.536,0.219,0.576v0.101
	c0.065,0,0.132-0.034,0.199-0.101c0.066,0,0.113-0.013,0.139-0.04c0.04-0.039,0.06-0.092,0.06-0.159c-0.066,0-0.132,0-0.198,0
	c0-0.065,0-0.132,0-0.198c0.066,0,0.099-0.007,0.099-0.02c0.066-0.371,0.099-0.756,0.099-1.153c-0.066,0-0.132,0-0.198,0
	c0-0.066,0-0.127,0-0.18c0.066,0,0.099-0.007,0.099-0.02c0.066-1.232,0.099-2.466,0.099-3.699c0-0.065,0-0.132,0-0.198h0.079
	c0.067-1.167,0.1-2.333,0.1-3.501c0.067,0,0.12-0.019,0.159-0.059c0.027-0.026,0.04-0.072,0.04-0.14c0-0.066,0-0.132,0-0.199
	c0.066,0,0.133,0,0.199,0c0.066,0,0.133,0,0.199,0c0.067,0,0.113-0.013,0.14-0.039c0.04-0.04,0.06-0.093,0.06-0.158
	c0-0.067,0-0.127,0-0.18c0-0.066,0-0.133,0-0.199s0-0.133,0-0.198c0.066,0,0.112-0.021,0.139-0.06c0.04-0.027,0.06-0.073,0.06-0.14
	s0-0.127,0-0.179c0-0.067,0-0.133,0-0.199s0-0.133,0-0.198c0.066,0,0.113-0.021,0.14-0.061c0.026-0.026,0.04-0.072,0.04-0.139
	s0-0.133,0-0.199s0-0.133,0-0.199c0-0.065,0-0.133,0-0.198c0.066,0,0.132,0,0.199,0c0,0.065,0,0.133,0,0.198
	c0,0.066,0.013,0.119,0.04,0.159c0.04,0.026,0.093,0.04,0.159,0.04c0,0.066,0,0.133,0,0.199s0,0.133,0,0.199
	c0,0.065,0,0.132,0,0.198s0.02,0.113,0.06,0.139c0.027,0.04,0.073,0.061,0.139,0.061c0,0.052,0,0.112,0,0.179s0,0.133,0,0.199
	c0,0.065,0,0.132,0,0.198s0.014,0.112,0.04,0.14c0.04,0.04,0.086,0.06,0.139,0.06c0,0.053,0.02,0.105,0.06,0.159
	c0.026,0.079,0.072,0.152,0.139,0.218c0,0.067,0,0.133,0,0.199c0,0.067,0,0.133,0,0.198c0,0.067-0.007,0.127-0.02,0.18
	c-0.066,0.291,0.007,0.425,0.219,0.398h0.099c0.053-0.318,0.086-0.644,0.1-0.976c-0.067,0-0.132,0-0.199,0c0-0.065,0-0.132,0-0.197
	c0.066,0,0.119-0.014,0.159-0.04c0.026-0.04,0.04-0.087,0.04-0.14c0.066,0,0.132,0,0.199,0c1.75,0,3.506,0,5.27,0
	c0.053,0,0.112,0,0.179,0c0,0.053,0.02,0.1,0.06,0.14c0.026,0.026,0.079,0.04,0.159,0.04c0.053,0,0.113,0,0.179,0
	c-0.013,0.211-0.013,0.41,0,0.595c0,0.067,0,0.134,0,0.199c-0.225,1.141-0.292,2.439-0.198,3.898c0.013,0.066,0.02,0.133,0.02,0.198
	c0,1.3,0,2.599,0,3.897c0,0.066,0,0.134,0,0.199c0,0.066-0.006,0.133-0.02,0.199c-0.093,1.074-0.027,1.982,0.198,2.725
	c0.067,0,0.126-0.014,0.179-0.04c0.451-0.187,0.59-0.689,0.417-1.512c0.053,0,0.086-0.02,0.1-0.059
	c0.053-0.107,0.08-0.22,0.08-0.339c0-0.066,0-0.133,0-0.199c0-0.318,0-0.643,0-0.975c0-0.065,0-0.132,0-0.198
	c0-0.186,0-0.378,0-0.577c0-0.066,0-0.132,0-0.198c0-0.266,0-0.524,0-0.775c0-0.067,0-0.133,0-0.199c0-0.318,0-0.643,0-0.975
	c0-0.066,0-0.132,0-0.199c0-0.583,0-1.166,0-1.749c0.066,0,0.12-0.021,0.159-0.061c0.027-0.026,0.04-0.072,0.04-0.139
	s0-0.133,0-0.198c0-0.266,0-0.524,0-0.775c0-0.067,0-0.134,0-0.199c0-0.318,0-0.644,0-0.975c0-0.066,0-0.133,0-0.199
	c0-0.318,0-0.643,0-0.975c0-0.066,0-0.132,0-0.199c0-0.317,0-0.643,0-0.974c0-0.066,0-0.127,0-0.179c0-0.663,0-1.32,0-1.969
	c0.066,0,0.119-0.014,0.159-0.04c0.026-0.026,0.04-0.072,0.04-0.14c0-0.066,0-0.132,0-0.199c0-0.265,0-0.529,0-0.795
	c0-0.066,0-0.125,0-0.179c0-0.265,0-0.523,0-0.775c0-0.066,0-0.133,0-0.199c-0.014-0.318-0.014-0.649,0-0.994
	c0-0.053,0-0.112,0-0.179c-0.014-0.318-0.014-0.644,0-0.975c0-0.066,0-0.132,0-0.198c-0.014-0.585-0.014-1.167,0-1.751
	c0.066,0,0.099-0.014,0.099-0.039c0.066-0.239,0.1-0.49,0.1-0.757c0-0.065,0-0.132,0-0.198c0-0.252,0-0.511,0-0.775
	c0-0.054,0-0.112,0-0.179c0-0.266,0-0.53,0-0.796c0-0.065,0-0.132,0-0.198c0-0.253,0-0.511,0-0.775c0-0.067,0-0.126,0-0.18
	c0-0.265,0-0.529,0-0.796c0-0.066,0-0.132,0-0.198c0-0.451,0-0.908,0-1.373c0.066,0,0.126,0,0.179,0
	c0.199,0.014,0.397,0.014,0.596,0c0.067,0,0.113-0.012,0.14-0.039c0.039-0.026,0.059-0.073,0.059-0.139c0-0.066,0-0.134,0-0.198
	c0.067,0,0.113-0.014,0.14-0.041c0.04-0.039,0.06-0.093,0.06-0.159c0-0.065,0-0.133,0-0.198c0.066,0,0.112-0.014,0.139-0.04
	c0.026-0.04,0.04-0.086,0.04-0.139c0.067,0,0.119-0.021,0.159-0.061c0.027-0.025,0.04-0.072,0.04-0.139s0-0.133,0-0.198
	c0.066,0,0.12-0.021,0.159-0.061c0.026-0.026,0.04-0.072,0.04-0.139c0.066,0,0.12-0.014,0.16-0.04c0.026-0.04,0.04-0.086,0.04-0.14
	c0-0.066,0-0.139,0-0.218c0.065,0,0.105-0.007,0.119-0.021c0.053-0.106,0.08-0.226,0.08-0.357c0-0.067,0-0.133,0-0.199
	c-0.014-0.186-0.014-0.378,0-0.577c0-0.065,0-0.132,0-0.199c-0.014-0.185-0.014-0.377,0-0.576c0-0.079,0-0.152,0-0.218
	c-0.014-0.187-0.014-0.379,0-0.578c0-0.065,0-0.132,0-0.198c0-0.251,0-0.511,0-0.775c0.053,0,0.085-0.007,0.099-0.021
	c0.054-0.171,0.08-0.357,0.08-0.556c0-0.067,0-0.133,0-0.199c0-0.187,0-0.378,0-0.577c0-0.066,0-0.132,0-0.199
	c0-0.186,0-0.385,0-0.596c0-0.053,0-0.119,0-0.199c0-0.132,0-0.259,0-0.378c0-0.066,0-0.132,0-0.199c0-0.265,0-0.522,0-0.775
	c0.08,0,0.153,0,0.219,0c0,0.066-0.013,0.127-0.04,0.179c-0.08,0.279-0.006,0.411,0.219,0.397c0,0.267,0,0.524,0,0.776
	c0,0.08,0,0.146,0,0.199c0,0.132,0,0.265,0,0.397c0,0.066,0,0.132,0,0.198c0,0.133,0,0.26,0,0.379c0,0.065,0,0.132,0,0.199
	c0,0.131,0,0.265,0,0.397c0,0.052,0,0.112,0,0.179c0,0.079,0.013,0.14,0.04,0.179c0.04,0.079,0.093,0.152,0.16,0.219
	c0,0.265,0,0.524,0,0.775c0,0.066,0,0.133,0,0.198c0,0.134,0,0.266,0,0.398c0,0.065,0,0.126,0,0.18c0,0.065,0,0.139,0,0.218
	c0,0.066,0,0.127,0,0.179c0,0.133,0,0.266,0,0.397c0,0.067,0,0.134,0,0.199c0,0.067,0,0.133,0,0.199c0,0.054-0.007,0.112-0.02,0.18
	c-0.08,0.29-0.007,0.424,0.219,0.397c0,0.132,0,0.258,0,0.378c0,0.079,0,0.151,0,0.218c0,0.054,0.013,0.1,0.04,0.14
	c0.04,0.026,0.093,0.04,0.159,0.04c0,0.066,0.013,0.112,0.04,0.139c0.027,0.04,0.073,0.061,0.14,0.061c0.066,0,0.132,0,0.199,0
	c0,0.065,0.02,0.112,0.06,0.139c0.026,0.039,0.072,0.06,0.139,0.06c0,0.066,0.02,0.113,0.06,0.139
	c0.026,0.04,0.072,0.061,0.139,0.061c0,0.053,0,0.112,0,0.179c0,0.065,0,0.133,0,0.198c0,0.066,0,0.134,0,0.2
	c0,0.064,0,0.132,0,0.198c0,0.065,0,0.126,0,0.178c0,0.08,0.014,0.134,0.04,0.159c0.04,0.04,0.087,0.061,0.139,0.061
	c0,0.066,0.02,0.1,0.06,0.1c0.106,0.053,0.219,0.079,0.339,0.079c0.066,0,0.132,0,0.199,0c0.066,0,0.132,0,0.199,0
	c0,0.133,0,0.266,0,0.397c0,0.066,0,0.133,0,0.199s0,0.127,0,0.18c0,0.065,0,0.132,0,0.198s0,0.132,0,0.198c0,0.267,0,0.531,0,0.796
	c0,0.054,0,0.112,0,0.18c0,0.397,0,0.789,0,1.173c0,0.066,0,0.132,0,0.199c0,0.384,0,0.775,0,1.173c0,0.065,0,0.126,0,0.179
	c0,0.397,0,0.796,0,1.193c0,0.054,0,0.112,0,0.18c0,0.065-0.007,0.132-0.02,0.198c-0.079,0.277-0.006,0.411,0.219,0.397
	c0,0.85,0,1.689,0,2.525c0,0.066,0,0.134,0,0.199c0,0.397,0,0.788,0,1.173c0,0.067,0,0.133,0,0.199
	c-0.014,0.198-0.014,0.391,0,0.577c0,0.066,0,0.132,0,0.198c0,0.385,0,0.776,0,1.174c0,0.066,0,0.125,0,0.179
	c0,0.397,0,0.796,0,1.193c0,0.052,0,0.112,0,0.179s-0.007,0.133-0.02,0.199c-0.08,0.477-0.014,0.802,0.199,0.974
	c0,0.716,0,1.432,0,2.148c0,0.065,0,0.132,0,0.199c0,0.33,0,0.655,0,0.974c0,0.066,0,0.133,0,0.199c0,0.384,0,0.775,0,1.173
	c0,0.054,0,0.112,0,0.18c0,0.396,0,0.787,0,1.173c0,0.066,0,0.132,0,0.199c0,0.265,0,0.522,0,0.775c0,0.065,0,0.132,0,0.198
	s0,0.133,0,0.199c-0.08,0.478-0.014,0.802,0.199,0.974c0,0.066,0,0.134,0,0.199c-0.014,0.08-0.02,0.146-0.02,0.199h0.02
	c0.066,0,0.133,0,0.198,0c0.067,0,0.133,0,0.199,0c0.066,0,0.133,0,0.199,0c0.054,0,0.113,0,0.179,0c0.08,0,0.152,0,0.219,0
	c0.053,0,0.113,0,0.179,0s0.133,0,0.199,0c0-0.98,0-1.962,0-2.943c0-0.066,0-0.133,0-0.198c0-0.054,0-0.113,0-0.18
	c0-0.132,0-0.265,0-0.398c0.066,0,0.112-0.02,0.14-0.059c0.04-0.026,0.059-0.073,0.059-0.139c0.066,0,0.113-0.014,0.14-0.04
	c0.04-0.04,0.06-0.086,0.06-0.14c0-0.066,0-0.133,0-0.199c0.053,0,0.1-0.02,0.139-0.059c0.026-0.027,0.04-0.073,0.04-0.14
	c0.066,0,0.119-0.021,0.159-0.06c0.027-0.027,0.04-0.073,0.04-0.14s0-0.133,0-0.199c0.066,0,0.119-0.012,0.159-0.04
	c0.027-0.039,0.04-0.092,0.04-0.158s0-0.126,0-0.179c0-2.864,0-5.728,0-8.592c0.067,0,0.113-0.019,0.14-0.059
	c0.04-0.026,0.06-0.073,0.06-0.141c0.066,0,0.112-0.012,0.139-0.039c0.027-0.039,0.04-0.085,0.04-0.139
	c0.08,0,0.132-0.021,0.159-0.061c0.04-0.026,0.06-0.072,0.06-0.139c0.066,0,0.112-0.021,0.139-0.06
	c0.027-0.026,0.04-0.073,0.04-0.14c0.066,0,0.133,0,0.199,0c0.066,0,0.112-0.019,0.139-0.059c0.04-0.027,0.06-0.074,0.06-0.14
	c0.066,0,0.119-0.014,0.159-0.04c0.026-0.039,0.04-0.093,0.04-0.159c0.066,0,0.113-0.014,0.139-0.04
	c0.027-0.039,0.04-0.092,0.04-0.158c0.066,0,0.12-0.013,0.159-0.04c0.027-0.04,0.04-0.093,0.04-0.159c0.066,0,0.12-0.013,0.159-0.04
	c0.027-0.026,0.04-0.072,0.04-0.139c0.066,0,0.119-0.014,0.159-0.04c0.027-0.039,0.04-0.093,0.04-0.159c0.066,0,0.132,0,0.199,0
	c0.053,0,0.119,0,0.199,0c0,0.066,0.013,0.12,0.04,0.159c0.04,0.026,0.093,0.04,0.159,0.04c0.053,0,0.113,0,0.179,0
	c0.065,0,0.132,0,0.199,0c0,0.066,0.014,0.112,0.04,0.139c0.04,0.027,0.093,0.04,0.159,0.04c0.067,0,0.133,0,0.199,0
	c0.054,0,0.114,0,0.18,0c0,0.066,0.02,0.119,0.06,0.159c0.026,0.027,0.073,0.04,0.139,0.04c0.067,0,0.132,0,0.199,0
	c0.067,0,0.133,0,0.199,0c0,0.066,0.013,0.119,0.04,0.158c0.026,0.026,0.08,0.04,0.159,0.04c0.066,0,0.133,0,0.199,0
	c0.066,0,0.126,0,0.179,0c0,0.066,0.02,0.12,0.06,0.159c0.026,0.026,0.073,0.04,0.139,0.04c0.067,0,0.133,0,0.199,0
	c0,0.065,0.014,0.112,0.04,0.14c0.04,0.04,0.093,0.059,0.159,0.059c0.067,0,0.126,0,0.179,0c0.067,0,0.132,0,0.199,0
	c0,0.066,0.02,0.113,0.06,0.14c0.027,0.039,0.073,0.06,0.14,0.06c0.066,0,0.132,0,0.199,0c0.066,0,0.125,0,0.179,0
	c0,0.066,0.02,0.112,0.06,0.139c0.04,0.04,0.093,0.061,0.159,0.061c0.066,0,0.132,0,0.198,0c0,3.301,0,6.615,0,9.942
	c0,0.066,0,0.133,0,0.199c0,0.054,0.014,0.1,0.04,0.14c0.027,0.026,0.074,0.04,0.14,0.04c0,0.065,0.014,0.112,0.04,0.139
	c0.04,0.039,0.093,0.059,0.159,0.059c0,0.067,0.014,0.12,0.04,0.16c0.04,0.026,0.093,0.039,0.159,0.039
	c0,0.067,0.013,0.113,0.04,0.14c0.04,0.04,0.093,0.06,0.159,0.06c0,0.066,0.013,0.113,0.04,0.14s0.073,0.04,0.139,0.04
	c0,0.065,0.021,0.119,0.06,0.158c0.026,0.026,0.073,0.04,0.139,0.04c0,0.08,0.021,0.132,0.06,0.16
	c0.026,0.025,0.073,0.039,0.139,0.039c0,0.066,0.02,0.119,0.06,0.159c0.026,0.026,0.073,0.04,0.14,0.04
	c0,0.065,0.013,0.112,0.04,0.139c0.026,0.04,0.08,0.06,0.159,0.06c0,0.066-0.013,0.132-0.04,0.199c-0.08,0.424,0,0.683,0.238,0.775
	v0.099c0.676,0.173,1.193,0.14,1.551-0.099h0.1c0.066-3.314,0.099-6.635,0.099-9.963c0-0.054,0-0.112,0-0.179
	c0.067,0,0.113-0.021,0.139-0.061c0.04-0.025,0.06-0.072,0.06-0.139c0.067,0,0.113-0.014,0.14-0.04
	c0.027-0.039,0.04-0.093,0.04-0.158c0.066,0,0.119-0.021,0.159-0.061c0.027-0.026,0.04-0.073,0.04-0.139
	c0.067,0,0.112-0.014,0.139-0.04c0.04-0.026,0.06-0.072,0.06-0.14c0.067,0,0.12-0.02,0.159-0.059c0.026-0.026,0.04-0.073,0.04-0.141
	c0.066,0,0.113-0.02,0.14-0.059c0.04-0.026,0.06-0.073,0.06-0.14c0.052,0,0.099-0.02,0.139-0.06c0.026-0.026,0.04-0.072,0.04-0.139
	c0.066,0,0.119-0.014,0.159-0.04c0.026-0.04,0.04-0.093,0.04-0.159c0.066,0,0.133,0,0.199,0c0.066,0,0.133,0,0.199,0
	c1.167,0,2.333,0,3.5,0c0.014,0.451,0.014,0.908,0,1.372c0,0.066,0,0.132,0,0.199c0,0.066,0,0.125,0,0.179c0,0.065,0,0.133,0,0.198
	c0,0.066,0,0.133,0,0.199v0.1c0.067,0,0.133-0.033,0.199-0.1c0.066,0,0.119-0.014,0.159-0.04c0.026-0.04,0.04-0.093,0.04-0.159
	c0.066,0,0.113-0.013,0.139-0.04c0.04-0.039,0.06-0.093,0.06-0.158c0.066,0,0.112-0.014,0.139-0.04
	c0.04-0.026,0.06-0.072,0.06-0.139c0.066,0,0.112-0.021,0.139-0.061c0.041-0.025,0.06-0.072,0.06-0.139c0.053,0,0.1-0.014,0.14-0.04
	c0.026-0.039,0.04-0.093,0.04-0.158c0-0.067,0-0.134,0-0.199c0.065,0,0.113-0.014,0.139-0.04c0.04-0.026,0.06-0.072,0.06-0.14
	c0.065,0,0.119-0.02,0.158-0.059c0.027-0.026,0.04-0.073,0.04-0.141c0.066,0,0.113-0.02,0.139-0.059
	c0.04-0.026,0.06-0.073,0.06-0.14c0.066,0,0.126,0,0.179,0c0.199,0.013,0.397,0.013,0.596,0c0.067,0,0.133,0,0.199,0
	c0,0.066,0.014,0.113,0.041,0.14c0.04,0.039,0.093,0.059,0.159,0.059s0.126,0,0.179,0c0,0.067,0.02,0.114,0.06,0.141
	c0.026,0.039,0.072,0.059,0.138,0.059c0.067,0,0.134,0,0.199,0c0,0.067,0.02,0.113,0.06,0.14c0.027,0.026,0.074,0.04,0.139,0.04
	c0.067,0,0.133,0,0.2,0c0,0.065,0.013,0.112,0.04,0.139c0.026,0.04,0.072,0.061,0.139,0.061s0.139,0,0.219,0
	c0,0.065,0.013,0.119,0.04,0.158c0.027,0.026,0.073,0.04,0.139,0.04c0,0.066,0.013,0.113,0.04,0.139
	c0.04,0.04,0.093,0.061,0.159,0.061c0.066,0,0.132,0,0.199,0c0,0.066,0.013,0.112,0.04,0.139c0.04,0.026,0.092,0.04,0.159,0.04
	c0.054,0,0.113,0,0.179,0c0,0.065,0.02,0.119,0.06,0.158c0.027,0.027,0.074,0.04,0.14,0.04c0.066,0,0.133,0,0.199,0
	c0,0.066,0.02,0.119,0.059,0.159c0.027,0.026,0.073,0.04,0.14,0.04c0.053,0,0.113,0,0.179,0c0,0.066,0.02,0.119,0.06,0.159
	c0.027,0.026,0.073,0.04,0.14,0.04c0.079,0,0.146,0,0.199,0c0,0.066,0.02,0.112,0.059,0.139c0.026,0.04,0.073,0.061,0.14,0.061
	c0.065,0,0.132,0,0.198,0c0,0.065,0.014,0.112,0.04,0.138c0.04,0.04,0.093,0.061,0.16,0.061c0.066,0,0.126,0,0.179,0
	c0,0.066,0.02,0.113,0.06,0.139c0.027,0.04,0.073,0.061,0.139,0.061c0.066,0,0.133,0,0.199,0c0,0.702,0,1.412,0,2.128
	c0,0.066,0,0.132,0,0.198v0.1c0.067,0,0.133-0.033,0.199-0.1c0.066,0,0.126,0,0.179,0c0.066,0,0.119-0.021,0.159-0.06
	c0.026-0.026,0.04-0.072,0.04-0.139c0.066,0,0.119-0.014,0.16-0.04c0.039-0.04,0.059-0.087,0.059-0.14c0.053,0,0.1-0.02,0.14-0.059
	c0.026-0.028,0.039-0.073,0.039-0.141c0-2.412,0-4.818,0-7.218c0.066,0,0.133,0,0.199,0c0.133,0,0.266,0,0.397,0
	c0.053,0,0.113,0,0.18,0c0.066,0,0.132,0,0.199,0s0.126-0.014,0.179-0.04c0.08-0.039,0.152-0.093,0.218-0.159
	c0.053,0,0.113,0,0.179,0c0.199,0,0.397,0,0.596,0c0.067,0,0.133,0,0.199,0c0.066,0,0.132,0,0.199,0c0.066,0,0.125,0,0.179,0
	c0.066,0,0.132,0,0.199,0s0.133,0,0.199,0s0.126-0.014,0.179-0.04c0.08-0.039,0.146-0.092,0.199-0.158
	c0.066,0,0.106-0.007,0.12-0.021c0.053-0.172,0.079-0.357,0.079-0.557c0.08,0,0.146,0,0.199,0c0.067,0,0.133,0,0.2,0
	s0.132,0,0.199,0c0.066,0,0.132,0,0.198,0s0.126-0.014,0.18-0.039c0.065-0.04,0.133-0.093,0.198-0.159c0.066,0,0.133,0,0.199,0
	c0.41,0.013,0.544-0.246,0.397-0.776c0.053,0,0.087-0.006,0.1-0.02c0.054-0.252,0.079-0.504,0.079-0.756c0-0.066,0-0.133,0-0.199
	c0-0.133,0-0.265,0-0.397c0-0.065,0-0.132,0-0.199c0.066,0,0.126-0.013,0.18-0.04c0.08-0.039,0.152-0.092,0.218-0.159
	c0.066,0,0.134,0,0.199,0c0.133,0,0.265,0,0.398,0c0.065,0,0.125,0,0.178,0c0.067,0,0.134,0,0.199,0c0.067,0,0.1-0.006,0.1-0.019
	c0.066-0.239,0.1-0.491,0.1-0.756c0.066,0,0.133,0,0.199,0c0.185,0.014,0.378,0.014,0.577,0c0,0.133,0,0.265,0,0.397
	c0,0.065,0,0.126,0,0.179c0,0.066,0.019,0.119,0.059,0.159c0.026,0.027,0.073,0.039,0.14,0.039s0.132,0.008,0.198,0.021
	c0.425,0.079,0.684,0.007,0.776-0.22c0-0.053,0-0.113,0-0.179c0-0.066,0-0.133,0-0.198c0.065,0,0.132,0,0.198,0
	c0,0.065,0.014,0.125,0.04,0.178c0.04,0.079,0.093,0.146,0.159,0.199c0,0.066,0.006,0.106,0.02,0.119
	c0.464,0.146,0.782,0.107,0.955-0.119c0-0.053,0.013-0.106,0.039-0.159c0.04-0.08,0.093-0.152,0.159-0.218
	c0.066,0,0.113-0.021,0.14-0.06c0.026-0.027,0.039-0.074,0.039-0.14c0.067,0,0.133,0,0.199,0c0.385,0,0.775,0,1.173,0
	c0,0.133,0,0.265,0,0.397c0,0.065,0,0.126,0,0.179c0,0.066,0.014,0.106,0.04,0.119c0.106,0.054,0.227,0.079,0.358,0.079
	c0.066,0,0.133,0,0.198,0c0.054,0,0.113,0,0.18,0s0.132,0,0.199,0c0.132,0,0.265,0,0.397,0c0.053,0,0.118,0,0.198,0
	c0.318,0,0.643,0,0.975,0c0.066,0,0.126,0,0.179,0c0.066,0,0.134,0,0.199,0s0.133,0,0.199,0c0,0.067,0.019,0.12,0.059,0.159
	c0.027,0.027,0.074,0.04,0.14,0.04c0.066,0,0.126,0,0.179,0c0.08,0,0.152,0,0.22,0c0.065,0,0.126,0,0.179,0c0.066,0,0.132,0,0.198,0
	s0.133,0,0.199,0s0.133,0,0.198,0c0.066,0,0.127,0,0.18,0c0,0.067,0,0.134,0,0.199c0,1.101,0,2.208,0,3.321c0,0.066,0,0.126,0,0.179
	c0,0.066,0,0.133,0,0.199c-0.079,0.291-0.013,0.424,0.198,0.397c0,0.397,0,0.788,0,1.173c0.465-0.013,0.922-0.013,1.373,0
	c0,2.28,0,4.554,0,6.821c0,0.066,0,0.133,0,0.199c0,0.132,0,0.265,0,0.397c0,0.066,0,0.126,0,0.179c0,1.245,0,2.486,0,3.719
	c0,0.066,0,0.132,0,0.199c0,0.066,0.006,0.099,0.02,0.099c0.252,0.054,0.504,0.08,0.756,0.08c0.065,0,0.119-0.014,0.159-0.04
	c0.026-0.026,0.039-0.072,0.039-0.139c0.066,0,0.113-0.021,0.14-0.061c0.039-0.026,0.06-0.072,0.06-0.139
	c0.066,0,0.113-0.02,0.14-0.06c0.039-0.026,0.06-0.073,0.06-0.139c0-0.067,0-0.133,0-0.199c0-0.133,0-0.266,0-0.397
	c0.065,0,0.132,0,0.199,0c0,0.132,0,0.265,0,0.397c0,0.066,0,0.132,0,0.199c0,0.065,0,0.131,0,0.198c0.065,0,0.112-0.02,0.139-0.06
	c0.026-0.026,0.039-0.073,0.039-0.139c0-0.067,0-0.133,0-0.199c0.066,0,0.119-0.014,0.159-0.039c0.026-0.028,0.04-0.08,0.04-0.16
	c0-0.066,0-0.133,0-0.198c0-0.054,0-0.113,0-0.18c0.066,0,0.112-0.02,0.139-0.06c0.04-0.026,0.061-0.072,0.061-0.14
	c0.065,0,0.133,0,0.199,0c0.065,0,0.126,0,0.178,0c0.067,0,0.101-0.006,0.101-0.02c0.065-0.57,0.099-1.146,0.099-1.729
	c0.067,0,0.1-0.007,0.1-0.021c0.066-0.57,0.1-1.152,0.1-1.75c0.066,0,0.119-0.014,0.159-0.039c0.026-0.04,0.039-0.093,0.039-0.159
	c0.067,0,0.133,0,0.199,0c0.133,0,0.266,0,0.397,0c0.054,0,0.113,0,0.18,0c0,0.066,0.013,0.119,0.039,0.159
	c0.04,0.025,0.093,0.039,0.159,0.039s0.133,0,0.199,0c0,0.066,0.021,0.12,0.06,0.159c0.026,0.026,0.072,0.04,0.139,0.04
	c0,0.066,0.014,0.119,0.04,0.159c0.027,0.026,0.073,0.04,0.14,0.04c0.065,0,0.132,0,0.199,0c0,0.065,0,0.132,0,0.199
	c0,0.065,0,0.131,0,0.198c0,0.119,0,0.245,0,0.377c0,0.066,0,0.134,0,0.2c0,0.065,0.013,0.104,0.04,0.118
	c0.251,0.134,0.37,0.094,0.357-0.118c0-0.066,0-0.134,0-0.2c0-0.716,0-1.431,0-2.146c0.066,0,0.113-0.014,0.139-0.04
	c0.04-0.04,0.061-0.087,0.061-0.14c0-0.065,0-0.132,0-0.199c0-0.265,0-0.529,0-0.794c0.065,0,0.132,0,0.198,0s0.113-0.014,0.14-0.04
	c0.025-0.04,0.039-0.087,0.039-0.14c0-0.066,0-0.133,0-0.199c0-0.185,0-0.378,0-0.576c0.066,0,0.113-0.021,0.139-0.061
	c0.04-0.025,0.061-0.072,0.061-0.139c0.066,0,0.113-0.021,0.139-0.061c0.04-0.025,0.061-0.072,0.061-0.138c0-0.066,0-0.133,0-0.199
	s0-0.133,0-0.199c0.065,0,0.119-0.014,0.159-0.04c0.026-0.04,0.039-0.093,0.039-0.159c0-0.065,0-0.133,0-0.198
	c0.066,0,0.113-0.014,0.14-0.04s0.039-0.072,0.039-0.139c0-0.067,0-0.133,0-0.199c0.067,0,0.119-0.014,0.159-0.04
	c0.027-0.039,0.04-0.093,0.04-0.158c0-0.067,0-0.134,0-0.199c0.066,0,0.119-0.014,0.159-0.04c0.025-0.026,0.039-0.072,0.039-0.14
	c0-0.066,0-0.132,0-0.199c0-0.065,0-0.132,0-0.198c0.066,0,0.12-0.02,0.16-0.06c0.026-0.026,0.039-0.072,0.039-0.139
	c0-0.067,0-0.133,0-0.199s0-0.133,0-0.199s0-0.125,0-0.179c0-0.066,0-0.132,0-0.199c0-0.065,0-0.132,0-0.199
	c0.066,0,0.112-0.019,0.141-0.059c0.039-0.026,0.059-0.073,0.059-0.141c0-0.065,0-0.124,0-0.178c0-0.066,0-0.133,0-0.199
	c0-0.065,0-0.133,0-0.199c0.066,0,0.133,0,0.199,0c0,0.066,0,0.134,0,0.199c0,0.066,0,0.133,0,0.199c0,0.054,0,0.112,0,0.178
	c0,0.067,0,0.134,0,0.199c0,0.067,0,0.134,0,0.199c0,0.067,0.013,0.112,0.04,0.14c0.039,0.04,0.093,0.06,0.158,0.06
	c0,0.054,0,0.112,0,0.179s0,0.133,0,0.199s0,0.132,0,0.199c0,0.066,0,0.132,0,0.198s0,0.133,0,0.198c0,0.067,0.014,0.114,0.04,0.141
	c0.026,0.039,0.073,0.059,0.139,0.059c0,0.067,0,0.126,0,0.18c0.067,0,0.113-0.014,0.14-0.04c0.04-0.026,0.06-0.072,0.06-0.14
	c0.066,0,0.119-0.02,0.159-0.059c0.027-0.026,0.04-0.073,0.04-0.141c0-0.065,0-0.132,0-0.198s0-0.132,0-0.198
	c0-0.067,0-0.133,0-0.199s0-0.133,0-0.199s0-0.125,0-0.179c0-0.066,0-0.132,0-0.199c0-0.065,0-0.132,0-0.199
	c0.066,0,0.112-0.019,0.14-0.059c0.039-0.026,0.059-0.073,0.059-0.141c0.054,0,0.101-0.012,0.14-0.039
	c0.026-0.039,0.04-0.085,0.04-0.139c0-0.066,0-0.133,0-0.199c0-0.065,0-0.133,0-0.199c0-0.065,0-0.133,0-0.198
	c0-0.186,0-0.384,0-0.597c0-0.053,0-0.112,0-0.179c0-0.266,0-0.524,0-0.775c0-0.066,0-0.133,0-0.199s0-0.132,0-0.198
	c0.066,0,0.099-0.007,0.099-0.021c0.066-0.504,0.101-1.014,0.101-1.531c0.066,0,0.132,0,0.198,0s0.132,0,0.198,0
	c0.067,0,0.107-0.02,0.119-0.06c0.054-0.093,0.08-0.205,0.08-0.338c0-0.066,0-0.133,0-0.199c0-0.065,0-0.132,0-0.199
	c0.067,0,0.133,0,0.199,0s0.112-0.013,0.139-0.04c0.027-0.039,0.04-0.092,0.04-0.159c0-0.065,0-0.132,0-0.198
	c0-0.12,0-0.245,0-0.377c0-0.066,0-0.134,0-0.199c0.066,0,0.133,0,0.199,0c0.132,0,0.265,0,0.398,0c0.065,0,0.124,0.007,0.178,0.021
	c0.278,0.065,0.412-0.007,0.398-0.22c0.065,0,0.133,0,0.198,0c0.186,0.014,0.384,0.014,0.597,0c0.053,0,0.113,0,0.179,0
	c0.067,0,0.133,0,0.199,0s0.133,0,0.198,0c0.066,0,0.134,0,0.199,0c0.054,0,0.112,0,0.179,0c0.067,0,0.133,0,0.199,0
	c0.067,0,0.132,0,0.198,0c0.067,0,0.134,0,0.199,0c0.067,0,0.133,0,0.199,0s0.133,0,0.199,0s0.125,0,0.179,0
	c0.066,0,0.132,0,0.199,0c0.132,0,0.265,0,0.397,0C180.258,172.614,180.271,172.661,180.297,172.688z"/>
</svg>
