<?xml version="1.0" encoding="utf-8"?>
<!-- Generator: Adobe Illustrator 16.0.0, SVG Export Plug-In . SVG Version: 6.00 Build 0)  -->
<!DOCTYPE svg PUBLIC "-//W3C//DTD SVG 1.1//EN" "http://www.w3.org/Graphics/SVG/1.1/DTD/svg11.dtd">
<svg version="1.1" id="Layer_1" xmlns="http://www.w3.org/2000/svg" xmlns:xlink="http://www.w3.org/1999/xlink" x="0px" y="0px"
	 width="300px" height="300px" viewBox="0 0 300 300" enable-background="new 0 0 300 300" xml:space="preserve">
<path id="imagebot_4" inkscape:connector-curvature="0" fill="#0C0F18" d="M140.857,39.5v1.943l6.844,8.254v3.173l-10.991-5.117
	h-2.073v13.442h2.073l10.991-4.51v7.666c-7.583,0.792-13.414,5.456-13.414,11.088c0,6.189,7.016,11.213,15.687,11.213
	s15.711-5.024,15.711-11.213c0-5.452-5.46-9.979-12.688-10.981V57.22l10.939,4.493h1.948V48.984h-1.948l-10.939,5.08v-4.367
	l6.844-8.254V39.5H140.857L140.857,39.5z M147.702,67.15v6.686c-2.992-0.373-5.721-1.284-8.018-2.568
	C141.364,69.163,144.262,67.627,147.702,67.15z M152.998,67.275c3.447,0.65,6.28,2.379,7.742,4.653
	c-2.27,1.059-4.916,1.741-7.742,1.979V67.275z M120.575,77.704c-3.941,0-7.144,2.286-7.144,5.1c0,2.812,3.203,5.081,7.144,5.081
	c3.942,0,7.144-2.269,7.144-5.081C127.719,79.99,124.517,77.704,120.575,77.704z M179.399,77.704c-3.94,0-7.144,2.286-7.144,5.1
	c0,2.812,3.203,5.081,7.144,5.081c3.942,0,7.145-2.269,7.145-5.081C186.544,79.99,183.342,77.704,179.399,77.704z M147.127,78.898
	c4.148,0,7.959,1,11.016,2.674c-2.125,1.441-5.006,2.317-8.168,2.317c-4.218,0-7.917-1.57-10.017-3.939
	C142.155,79.276,144.585,78.898,147.127,78.898z M101.742,81.163c-3.626,0-6.569,2.1-6.569,4.689c0,2.587,2.943,4.689,6.569,4.689
	c3.626,0,6.569-2.102,6.569-4.689C108.311,83.263,105.368,81.163,101.742,81.163z M198.233,81.163c-3.626,0-6.569,2.1-6.569,4.689
	c0,2.587,2.943,4.689,6.569,4.689s6.569-2.102,6.569-4.689C204.803,83.263,201.859,81.163,198.233,81.163z M84.606,86.974
	c-3.232,0-5.845,1.865-5.845,4.172c0,2.307,2.613,4.189,5.845,4.189c3.232,0,5.845-1.882,5.845-4.189
	C90.451,88.839,87.838,86.974,84.606,86.974z M215.369,86.974c-3.231,0-5.847,1.865-5.847,4.172c0,2.307,2.615,4.189,5.847,4.189
	s5.845-1.882,5.845-4.189C221.214,88.839,218.601,86.974,215.369,86.974z M129.842,88.615l-2.648,0.285
	c-22.411,2.408-43.436,8.702-60.148,15.331c-16.712,6.631-28.97,13.478-34.37,17.631l5.096,3.37
	c4.346-3.344,16.496-10.252,32.672-16.669c15.495-6.147,34.828-11.916,55.128-14.404c2.972,4.751,5.79,9.137,8.717,19.877h6.819
	c-3.382-12.412-6.939-18.344-10.216-23.675L129.842,88.615z M170.133,88.615l-1.049,1.747c-3.277,5.331-6.835,11.263-10.217,23.675
	h6.819c2.928-10.741,5.746-15.126,8.718-19.877c20.3,2.488,39.633,8.257,55.127,14.404c16.176,6.417,28.326,13.325,32.673,16.669
	l5.095-3.37c-5.398-4.154-17.657-11-34.369-17.631c-16.713-6.629-37.738-12.923-60.149-15.331L170.133,88.615L170.133,88.615z
	 M149.975,88.953c-3.311,0-5.995,1.916-5.995,4.279c0,2.362,2.684,4.279,5.995,4.279s5.996-1.917,5.996-4.279
	C155.971,90.869,153.286,88.953,149.975,88.953z M69.469,92.376c-2.995,0-5.42,1.731-5.42,3.869s2.425,3.868,5.42,3.868
	c2.996,0,5.445-1.73,5.445-3.868S72.465,92.376,69.469,92.376z M230.506,92.376c-2.995,0-5.444,1.731-5.444,3.869
	s2.449,3.868,5.444,3.868c2.996,0,5.42-1.73,5.42-3.868S233.502,92.376,230.506,92.376z M54.057,99.293
	c-2.838,0-5.121,1.646-5.121,3.672c0,2.026,2.283,3.672,5.121,3.672c2.838,0,5.146-1.646,5.146-3.672
	C59.203,100.94,56.896,99.293,54.057,99.293z M245.918,99.293c-2.839,0-5.146,1.646-5.146,3.672c0,2.026,2.307,3.672,5.146,3.672
	c2.837,0,5.12-1.646,5.12-3.672C251.038,100.94,248.755,99.293,245.918,99.293z M149.975,99.864c-2.838,0-5.121,1.646-5.121,3.672
	c0,2.025,2.283,3.654,5.121,3.654c2.837,0,5.146-1.628,5.146-3.654C155.121,101.51,152.813,99.864,149.975,99.864z M40.369,106.638
	c-2.522,0-4.571,1.462-4.571,3.263c0,1.8,2.049,3.262,4.571,3.262s4.571-1.462,4.571-3.262
	C44.94,108.1,42.892,106.638,40.369,106.638z M259.605,106.638c-2.522,0-4.57,1.462-4.57,3.263c0,1.8,2.048,3.262,4.57,3.262
	c2.523,0,4.57-1.462,4.57-3.262C264.176,108.1,262.129,106.638,259.605,106.638z M75.764,107.458
	c-6.604,7.313-6.331,16.726-2.298,27.293c-30.672-9.316-41.23,18.759-17.985,27.294c-1.776-6.814-0.074-14.084,10.291-14.869
	c5.544-0.419,12.056,0.7,12.839,7.952c0.551,5.101-5.506,17.28-24.554,17.114c-11.902-0.105-24.612-3.286-30.249-16.901
	c-2.101-5.074-2.065-4.827,4.921-2.763c2.733,0.808,6.198,2.483,11.915,6.009c-0.405-5.701-4.268-20.167-8.269-24.442
	c-5.341,2.696-5.912,5.872-15.986,7.934c3.58-4.946,6.9-9.992,11.99-15.476c-10.604,0.565-16.982,2.379-23.979,3.458
	c1.641,4.858,3.308,9.651,5.694,13.443c-5.25,7.263-0.856,10.528,4.571,14.066c2.21,1.439,12.19,22.396,7.144,29.54
	c-2.66,3.767-1.104,7.795,2.573,9.573c4.114,1.99,7.811,4.547,11.166,7.185c4.295,3.377,3.296,3.725,8.567,1.658
	c18.556-7.279,59.012-12.283,105.884-12.283c46.872,0,87.329,5.004,105.884,12.283c5.271,2.066,4.272,1.719,8.568-1.658
	c3.354-2.638,7.051-5.194,11.165-7.185c3.678-1.778,5.232-5.807,2.573-9.573c-5.047-7.144,4.933-28.101,7.144-29.54
	c5.427-3.538,9.82-6.803,4.57-14.066c2.389-3.792,4.055-8.585,5.695-13.443c-6.997-1.079-13.376-2.894-23.979-3.458
	c5.09,5.484,8.411,10.529,11.99,15.476c-10.074-2.062-10.645-5.238-15.986-7.934c-4,4.275-7.863,18.741-8.268,24.442
	c5.716-3.525,9.18-5.201,11.915-6.009c6.985-2.064,7.021-2.312,4.92,2.763c-5.638,13.615-18.347,16.796-30.248,16.901
	c-19.049,0.167-25.105-12.014-24.555-17.114c0.783-7.252,7.295-8.371,12.838-7.952c10.367,0.785,12.068,8.054,10.293,14.869
	c23.244-8.535,12.687-36.61-17.985-27.294c4.033-10.567,4.306-19.98-2.299-27.293c-7.983,5.726-17.339,10.575-14.263,26.063
	c-5.774-2.956-10.801-5.933-15.985-5.081c-6.99,1.148-13.351,3.173-14.563,11c-0.847,5.464,3.557,10.674,9.417,14.048
	c0.78-5.362,2.171-10.036,10.565-10.179c9.64-0.165,11.431,5.517,11.141,9.984c-0.401,6.184-12.122,13.438-27.127,12.639
	c-15.04-0.801-28.074-9.95-27.851-21.036c4.761,0.815,10.752,4.349,13.514,6.044c0.531,0.326,2.39,0.302,2.923,0.32v-23.175
	c-0.699,0.01-2.132-0.131-2.973,0.231c-4.313,1.863-9.442,7.779-12.439,7.257c2.329-6.794,8.691-14.965,8.842-17.738h-30.873
	c0.149,2.773,6.513,10.944,8.842,17.738c-2.999,0.522-8.125-5.394-12.439-7.257c-0.841-0.362-2.274-0.221-2.972-0.231v23.175
	c0.533-0.019,2.39,0.006,2.922-0.32c2.762-1.695,8.752-5.229,13.514-6.044c0.224,11.086-12.812,20.235-27.852,21.036
	c-15.005,0.8-26.726-6.455-27.127-12.639c-0.29-4.467,1.5-10.149,11.141-9.984c8.396,0.144,9.785,4.817,10.566,10.179
	c5.86-3.374,10.263-8.584,9.417-14.048c-1.212-7.826-7.573-9.851-14.563-11c-5.185-0.853-10.211,2.125-15.987,5.081
	C93.103,118.034,83.747,113.184,75.764,107.458L75.764,107.458z M149.975,109.543c-2.05,0-3.697,1.176-3.697,2.639
	c0,1.463,1.647,2.656,3.697,2.656c2.049,0,3.722-1.192,3.722-2.656C153.697,110.72,152.024,109.543,149.975,109.543z
	 M29.229,114.375c-2.05,0-3.722,1.193-3.722,2.656s1.672,2.638,3.722,2.638s3.722-1.175,3.722-2.638S31.278,114.375,29.229,114.375z
	 M270.747,114.375c-2.051,0-3.724,1.193-3.724,2.656s1.673,2.638,3.724,2.638c2.048,0,3.722-1.175,3.722-2.638
	S272.795,114.375,270.747,114.375z M149.975,137.444c1.735,0,3.148,1.008,3.148,2.247c0,1.238-1.413,2.246-3.148,2.246
	c-1.734,0-3.123-1.008-3.123-2.246C146.853,138.452,148.241,137.444,149.975,137.444z M13.067,146.215
	c1.266-0.019,2.794,1.454,3.522,3.44c0.777,2.118,0.334,4.025-0.974,4.262c-1.308,0.234-2.995-1.287-3.772-3.406
	c-0.777-2.118-0.333-4.026,0.974-4.261C12.9,146.236,12.983,146.216,13.067,146.215L13.067,146.215z M286.933,146.215
	c0.084,0,0.168,0.021,0.25,0.035c1.307,0.235,1.75,2.143,0.975,4.261c-0.777,2.119-2.465,3.64-3.771,3.406
	c-1.309-0.237-1.752-2.145-0.976-4.262C284.139,147.669,285.667,146.196,286.933,146.215L286.933,146.215z M149.975,168.321
	l7.37,8.396l-7.37,8.414l-7.369-8.414L149.975,168.321z M119.426,171.226c2.05,0,3.722,1.177,3.722,2.64s-1.672,2.656-3.722,2.656
	s-3.697-1.193-3.697-2.656S117.376,171.226,119.426,171.226z M180.574,171.226c2.049,0,3.697,1.177,3.697,2.64
	s-1.648,2.656-3.697,2.656c-2.05,0-3.722-1.193-3.722-2.656S178.524,171.226,180.574,171.226z M91.226,171.778
	c7.591,0.107,13.792,2.972,14.512,7.024c0.825,4.634-5.83,9.059-14.862,9.877c-9.032,0.819-17.01-2.284-17.834-6.918
	c-0.825-4.631,5.831-9.039,14.862-9.857C89.032,171.802,90.141,171.765,91.226,171.778L91.226,171.778z M208.774,171.778
	c1.085-0.014,2.194,0.023,3.322,0.126c9.032,0.818,15.687,5.227,14.862,9.857c-0.824,4.634-8.803,7.737-17.835,6.918
	c-9.032-0.818-15.688-5.243-14.861-9.877C194.983,174.75,201.183,171.886,208.774,171.778L208.774,171.778z M54.208,179.267
	c2.049,0,3.721,1.194,3.721,2.656c0,1.463-1.672,2.639-3.721,2.639c-2.05,0-3.722-1.176-3.722-2.639
	C50.485,180.461,52.158,179.267,54.208,179.267z M245.793,179.267c2.05,0,3.721,1.194,3.721,2.656c0,1.463-1.671,2.639-3.721,2.639
	s-3.722-1.176-3.722-2.639C242.071,180.461,243.743,179.267,245.793,179.267z M121.425,182.227c2.049,0,3.722,1.175,3.722,2.639
	c0,1.463-1.672,2.655-3.722,2.655c-2.05,0-3.697-1.192-3.697-2.655C117.728,183.401,119.375,182.227,121.425,182.227z
	 M178.575,182.227c2.051,0,3.697,1.175,3.697,2.639c0,1.463-1.646,2.655-3.697,2.655c-2.049,0-3.722-1.192-3.722-2.655
	C174.854,183.401,176.526,182.227,178.575,182.227z M29.004,184.937l7.918,4.599l-2.298,7.113l-7.943-4.617L29.004,184.937
	L29.004,184.937z M270.996,184.937l2.323,7.095l-7.943,4.617l-2.298-7.113L270.996,184.937L270.996,184.937z M56.93,189.963
	c2.05,0,3.697,1.194,3.697,2.657s-1.647,2.638-3.697,2.638c-2.049,0-3.722-1.175-3.722-2.638S54.88,189.963,56.93,189.963z
	 M243.07,189.963c2.049,0,3.723,1.194,3.723,2.657s-1.674,2.638-3.723,2.638c-2.05,0-3.696-1.175-3.696-2.638
	S241.021,189.963,243.07,189.963z M150,196.345c-57.862,0-104.76,8.45-104.76,13.247c0,4.39,46.898,11.908,104.76,11.908
	c57.861,0,104.76-7.519,104.76-11.908C254.76,204.795,207.861,196.345,150,196.345z"/>
</svg>
