<?xml version="1.0" encoding="utf-8"?>
<!-- Generator: Adobe Illustrator 16.0.0, SVG Export Plug-In . SVG Version: 6.00 Build 0)  -->
<!DOCTYPE svg PUBLIC "-//W3C//DTD SVG 1.1//EN" "http://www.w3.org/Graphics/SVG/1.1/DTD/svg11.dtd">
<svg version="1.1" id="Layer_1" xmlns="http://www.w3.org/2000/svg" xmlns:xlink="http://www.w3.org/1999/xlink" x="0px" y="0px"
	 width="300px" height="300px" viewBox="0 0 300 300" enable-background="new 0 0 300 300" xml:space="preserve">
<path fill-rule="evenodd" clip-rule="evenodd" fill="#5C4124" d="M194.519,51.829c-0.816-1.43-2.13-2.699-3.939-3.808
	c-1.896-1.139-3.735-1.678-5.515-1.62c-1.897,0-3.385,0.861-4.465,2.583c-1.255,1.809-1.298,3.735-0.131,5.777
	c0.992,0.817,0.947,1.546-0.131,2.188c-1.168,0.642-2.072,0.642-2.715,0c-1.984-2.071-2.742-4.377-2.275-6.915
	c-0.993,2.333-2.874,3.91-5.646,4.727c-0.904,0.292-1.679-0.116-2.32-1.225c-0.642-1.138-0.32-1.809,0.963-2.013
	c2.043-1.139,2.977-2.845,2.802-5.122c-0.175-1.955-1.065-3.444-2.671-4.464c-1.517-0.963-3.37-1.401-5.559-1.313
	c-2.159,0-3.953,0.438-5.384,1.313c-4.669,3.151-7.368,7.353-8.098,12.605c0,0.526-0.219,0.832-0.656,0.92c-0.175,0-0.306,0-0.394,0
	c-0.292,0-0.526,0-0.701,0c-0.438-0.088-0.656-0.394-0.656-0.92c-0.729-5.252-3.473-9.455-8.229-12.605
	c-1.459-0.875-3.225-1.313-5.296-1.313c-2.16-0.088-3.999,0.35-5.516,1.313c-1.634,1.021-2.538,2.509-2.713,4.464
	c-0.146,2.276,0.846,3.983,2.977,5.122c1.167,0.204,1.429,0.875,0.787,2.013c-0.613,1.109-1.371,1.518-2.276,1.225
	c-2.772-0.816-4.61-2.393-5.515-4.727c0.35,2.538-0.453,4.844-2.408,6.915c-0.642,0.642-1.503,0.642-2.583,0
	c-1.167-0.642-1.27-1.371-0.307-2.188c1.284-2.042,1.284-3.968,0-5.777c-1.138-1.722-2.656-2.583-4.552-2.583
	c-1.81-0.058-3.648,0.481-5.516,1.62c-1.809,1.108-3.122,2.377-3.939,3.808c-2.422,5.019-2.685,10.009-0.788,14.969
	c0.263,0.526,0.263,0.92,0,1.182c-0.204,0.087-0.394,0.19-0.569,0.306c-0.146,0.175-0.32,0.262-0.525,0.262
	c-0.379,0.175-0.686-0.014-0.919-0.568c-3.531-4.202-7.996-6.449-13.395-6.741c-1.692-0.087-3.442,0.423-5.252,1.532
	c-1.867,0.963-3.254,2.247-4.158,3.853c-0.904,1.721-0.962,3.487-0.174,5.296c1.021,1.955,2.699,2.889,5.034,2.801
	c1.225-0.35,1.838,0.102,1.838,1.357c0,1.371-0.481,2.13-1.445,2.276c-2.801,0.73-5.179,0.292-7.134-1.313
	c1.518,1.984,1.956,4.363,1.313,7.135c-0.175,0.904-0.89,1.357-2.145,1.357s-1.708-0.584-1.357-1.751
	c0.087-2.422-0.846-4.129-2.801-5.121c-1.809-0.817-3.574-0.773-5.296,0.131c-1.604,0.905-2.904,2.291-3.896,4.158
	c-1.08,1.809-1.576,3.575-1.488,5.296c0.292,5.574,2.539,10.023,6.741,13.35c0.554,0.263,0.744,0.627,0.569,1.094
	c-0.088,0.175-0.19,0.292-0.307,0.351c0,0.204-0.087,0.394-0.263,0.569c-0.263,0.35-0.671,0.393-1.226,0.13
	c-4.931-2.071-9.921-1.853-14.969,0.657c-1.429,0.817-2.684,2.13-3.764,3.939c-1.167,1.897-1.75,3.735-1.75,5.515
	c0.087,1.984,0.977,3.516,2.669,4.596c1.809,1.284,3.75,1.284,5.822,0c0.816-0.992,1.546-0.904,2.188,0.263
	c0.612,1.109,0.568,1.97-0.132,2.582c-2.188,2.159-4.668,2.918-7.441,2.276c2.713,0.816,4.509,2.699,5.384,5.647
	c0.262,1.021-0.146,1.838-1.226,2.451c-1.167,0.613-1.882,0.306-2.145-0.919c-1.08-2.16-2.743-3.167-4.99-3.021
	c-2.071,0.205-3.603,1.109-4.596,2.713c-0.875,1.547-1.313,3.386-1.313,5.515c0.059,2.188,0.54,3.999,1.445,5.428
	c2.977,4.668,7.164,7.369,12.562,8.098c0.526,0,0.847,0.219,0.964,0.656c0,0.175,0,0.408,0,0.7c0,0.088,0,0.219,0,0.394
	c-0.117,0.438-0.438,0.657-0.964,0.657c-5.486,0.904-9.673,3.647-12.562,8.229c-0.905,1.46-1.386,3.211-1.445,5.253
	c0,2.188,0.438,4.086,1.313,5.69c0.993,1.634,2.524,2.479,4.596,2.538c2.16,0.204,3.823-0.729,4.99-2.801
	c0.263-1.284,0.978-1.591,2.145-0.92c1.08,0.613,1.488,1.372,1.226,2.276c-0.817,2.772-2.393,4.654-4.728,5.646
	c2.51-0.379,4.771,0.438,6.784,2.451c0.7,0.613,0.744,1.46,0.132,2.538c-0.642,1.08-1.372,1.168-2.188,0.264
	c-2.072-1.255-4.013-1.255-5.822,0c-1.692,1.079-2.583,2.567-2.669,4.464c0,1.78,0.583,3.618,1.75,5.516
	c1.08,1.81,2.335,3.123,3.764,3.939c4.961,2.597,9.951,2.859,14.969,0.788c0.555-0.263,0.963-0.219,1.226,0.131
	c0.087,0.117,0.175,0.292,0.263,0.525c0.117,0.087,0.219,0.233,0.307,0.438c0.174,0.35-0.015,0.7-0.569,1.051
	c-4.202,3.238-6.449,7.704-6.741,13.394c-0.087,1.692,0.409,3.443,1.488,5.253c0.992,1.984,2.291,3.385,3.896,4.202
	c1.722,0.875,3.487,0.919,5.296,0.131c1.955-0.992,2.889-2.714,2.801-5.165c-0.351-1.167,0.102-1.751,1.357-1.751
	s1.97,0.452,2.145,1.357c0.642,2.801,0.204,5.18-1.313,7.135c1.956-1.604,4.333-2.058,7.134-1.357
	c0.963,0.204,1.445,0.978,1.445,2.319c0,1.256-0.613,1.649-1.838,1.183c-2.335-0.059-4.013,0.89-5.034,2.846
	c-0.788,1.896-0.73,3.661,0.174,5.296c0.904,1.604,2.291,2.946,4.158,4.026c1.81,1.08,3.561,1.575,5.252,1.488
	c5.603-0.38,10.067-2.67,13.395-6.872c0.233-0.466,0.54-0.598,0.919-0.394c0.205,0,0.335,0.044,0.395,0.131
	c0.262,0,0.496,0.088,0.7,0.263c0.263,0.351,0.263,0.803,0,1.357c-1.984,4.931-1.722,9.877,0.788,14.838
	c0.73,1.517,2.043,2.816,3.939,3.896c1.868,1.168,3.706,1.707,5.516,1.62c1.896-0.089,3.414-0.948,4.552-2.583
	c1.284-1.78,1.284-3.706,0-5.777c-0.963-0.817-0.86-1.591,0.307-2.32c1.08-0.613,1.941-0.569,2.583,0.132
	c1.955,2.071,2.757,4.361,2.408,6.872c0.904-2.335,2.742-3.896,5.515-4.684c0.905-0.264,1.663,0.131,2.276,1.182
	c0.642,1.108,0.379,1.794-0.787,2.057c-2.131,1.168-3.123,2.831-2.977,4.99c0.175,2.072,1.08,3.59,2.713,4.552
	c1.518,0.905,3.356,1.357,5.516,1.357c2.188,0,3.954-0.452,5.296-1.357c4.756-3.122,7.499-7.294,8.229-12.518
	c0-0.526,0.219-0.832,0.656-0.919c0.175,0,0.409,0,0.701,0c0.087,0,0.219,0,0.394,0c0.438,0.087,0.656,0.393,0.656,0.919
	c0.73,5.224,3.429,9.396,8.098,12.518c1.431,0.905,3.225,1.357,5.384,1.357c2.188,0,4.042-0.452,5.559-1.357
	c1.605-0.962,2.496-2.479,2.671-4.552c0.175-2.159-0.759-3.822-2.802-4.99c-1.283-0.263-1.604-0.948-0.963-2.057
	c0.642-1.051,1.416-1.445,2.32-1.182c2.772,0.787,4.653,2.349,5.646,4.684c-0.467-2.511,0.291-4.801,2.275-6.872
	c0.643-0.701,1.547-0.745,2.715-0.132c1.078,0.729,1.123,1.503,0.131,2.32c-1.167,2.071-1.124,3.997,0.131,5.777
	c1.08,1.635,2.567,2.494,4.465,2.583c1.779,0.087,3.618-0.452,5.515-1.62c1.81-1.079,3.123-2.379,3.939-3.896
	c2.48-4.873,2.743-9.819,0.788-14.838c-0.291-0.555-0.291-1.007,0-1.357c0.176-0.175,0.395-0.263,0.656-0.263
	c0.088-0.087,0.176-0.131,0.263-0.131c0.467-0.204,0.876-0.072,1.227,0.394c3.15,4.202,7.557,6.492,13.218,6.872
	c1.722,0.087,3.517-0.408,5.385-1.488c1.896-1.08,3.297-2.422,4.201-4.026c0.817-1.722,0.817-3.487,0-5.296
	c-0.991-1.956-2.655-2.904-4.99-2.846c-1.166,0.467-1.794,0.073-1.881-1.183c0-1.342,0.452-2.115,1.356-2.319
	c2.772-0.612,5.149-0.204,7.134,1.226c-1.429-1.955-1.838-4.289-1.225-7.003c0.175-0.905,0.904-1.357,2.188-1.357
	c1.254,0,1.691,0.584,1.313,1.751c-0.089,2.451,0.86,4.173,2.845,5.165c1.809,0.788,3.56,0.744,5.253-0.131
	c1.633-0.905,2.991-2.306,4.069-4.202c1.08-1.897,1.532-3.648,1.358-5.253c-0.293-5.689-2.539-10.155-6.741-13.394
	c-0.467-0.351-0.613-0.701-0.438-1.051c0-0.204,0.043-0.351,0.131-0.438c0-0.146,0.103-0.321,0.307-0.525
	c0.35-0.35,0.787-0.394,1.313-0.131c4.961,2.071,9.906,1.809,14.838-0.788c1.547-0.816,2.859-2.13,3.939-3.939
	c1.05-1.897,1.532-3.735,1.444-5.516c0-1.896-0.803-3.385-2.408-4.464c-1.866-1.255-3.808-1.255-5.82,0
	c-0.788,0.904-1.548,0.816-2.276-0.264c-0.613-1.078-0.569-1.925,0.131-2.538c2.071-2.102,4.406-2.918,7.004-2.451
	c-2.422-0.992-4.042-2.874-4.858-5.646c-0.234-0.904,0.174-1.663,1.225-2.276c1.08-0.671,1.722-0.364,1.927,0.92
	c1.138,2.071,2.83,3.005,5.077,2.801c2.013-0.059,3.501-0.904,4.465-2.538c0.904-1.604,1.356-3.502,1.356-5.69
	c0-2.042-0.452-3.793-1.356-5.253c-2.89-4.581-7.077-7.324-12.563-8.229c-0.525,0-0.832-0.219-0.919-0.657c0-0.175,0-0.306,0-0.394
	c0-0.292,0-0.525,0-0.7c0.087-0.438,0.394-0.656,0.919-0.656c5.398-0.729,9.586-3.43,12.563-8.098
	c0.904-1.429,1.356-3.239,1.356-5.428c0-2.129-0.452-3.968-1.356-5.515c-0.964-1.604-2.452-2.509-4.465-2.713
	c-2.247-0.146-3.939,0.861-5.077,3.021c-0.205,1.225-0.847,1.532-1.927,0.919c-1.051-0.613-1.459-1.43-1.225-2.451
	c0.904-2.948,2.757-4.831,5.559-5.647c-2.889,0.642-5.457-0.117-7.704-2.276c-0.7-0.612-0.744-1.473-0.131-2.582
	c0.729-1.167,1.488-1.255,2.276-0.263c2.101,1.284,4.041,1.284,5.82,0c1.605-1.08,2.408-2.612,2.408-4.596
	c0.088-1.78-0.395-3.618-1.444-5.515c-1.08-1.809-2.393-3.122-3.939-3.939c-5.049-2.509-9.994-2.728-14.838-0.657
	c-0.526,0.263-0.964,0.219-1.313-0.13c-0.204-0.175-0.307-0.365-0.307-0.569c-0.088-0.146-0.131-0.263-0.131-0.351
	c-0.176-0.467-0.029-0.831,0.438-1.094c4.202-3.327,6.448-7.776,6.741-13.35c0.174-1.721-0.278-3.487-1.358-5.296
	c-1.078-1.867-2.437-3.253-4.069-4.158c-1.693-0.904-3.444-0.948-5.253-0.131c-1.984,0.992-2.934,2.699-2.845,5.121
	c0.378,1.167-0.06,1.751-1.313,1.751c-1.284,0-2.014-0.453-2.188-1.357c-0.613-2.685-0.161-5.019,1.356-7.003
	c-2.159,1.43-4.581,1.824-7.266,1.182c-0.904-0.146-1.356-0.905-1.356-2.276c0.087-1.255,0.715-1.707,1.881-1.357
	c2.335,0.087,3.999-0.846,4.99-2.801c0.817-1.809,0.817-3.575,0-5.296c-0.904-1.605-2.305-2.89-4.201-3.853
	c-1.868-1.108-3.663-1.619-5.385-1.532c-5.485,0.292-9.892,2.539-13.218,6.741c-0.351,0.554-0.76,0.744-1.227,0.568
	c-0.175,0-0.306-0.087-0.394-0.262c-0.175-0.116-0.35-0.219-0.525-0.306c-0.291-0.262-0.291-0.656,0-1.182
	C197.262,61.663,196.999,56.672,194.519,51.829z M225.114,29.287c3.59-0.087,6.552,1.27,8.886,4.071
	c2.889,4.027,3.794,8.199,2.714,12.519c-0.992,3.677-3.239,6.872-6.741,9.586c-2.597,2.247-5.616,3.632-9.06,4.158
	c2.539,1.896,4.158,4.596,4.858,8.098c0.379,2.8-0.233,5.281-1.839,7.441c2.13-1.635,4.582-2.262,7.354-1.882
	c3.53,0.613,6.201,2.188,8.011,4.728c0.729-3.532,2.115-6.508,4.158-8.93c2.713-3.501,5.952-5.748,9.717-6.741
	c4.231-1.167,8.36-0.263,12.387,2.713c2.802,2.335,4.202,5.297,4.202,8.886c-0.087,3.677-1.794,6.464-5.121,8.36
	c-0.992,0.525-1.984,0.262-2.977-0.788c-0.875-1.08-0.7-1.897,0.525-2.452c2.072-1.809,2.743-3.925,2.014-6.347
	c-0.613-2.159-1.955-3.589-4.027-4.289c-1.896-0.642-4.056-0.686-6.478-0.132c-2.422,0.613-4.305,1.59-5.646,2.933
	c-2.072,2.101-3.604,4.363-4.596,6.785l1.226-1.226c1.722-1.196,3.473-1.736,5.253-1.619c1.604,0.174,2.859,0.802,3.764,1.881
	c0.904,0.993,1.356,1.984,1.356,2.977c0,1.08-0.584,1.881-1.751,2.407c-1.255,0.205-2.203-0.058-2.845-0.788
	c-1.518-1.604-3.035-2.247-4.553-1.926c-1.722,0.468-2.991,2.145-3.808,5.034c0,1.868-0.088,3.444-0.262,4.728l-0.132,0.525
	c-0.351,3.21-1.883,6.347-4.596,9.411c3.968-0.875,7.484-0.642,10.548,0.701l0.395,0.131c0.904,0.351,2.335,1.124,4.29,2.32
	c2.889,0.7,4.96,0.423,6.215-0.832c1.08-1.167,1.313-2.831,0.7-4.99c-0.379-1.08-0.16-2.028,0.656-2.845
	c0.993-0.729,1.984-0.817,2.977-0.263c0.816,0.467,1.489,1.313,2.014,2.539c0.438,1.43,0.306,2.875-0.395,4.333
	c-0.816,1.634-2.159,2.845-4.026,3.633l-1.663,0.569c2.801,0.262,5.544,0.029,8.229-0.701c1.897-0.438,3.662-1.561,5.297-3.37
	c1.692-1.78,2.729-3.662,3.107-5.646c0.438-2.071-0.116-3.968-1.663-5.69c-1.692-1.867-3.838-2.364-6.435-1.488
	c-1.196,0.817-2.014,0.555-2.451-0.787c-0.467-1.342-0.189-2.292,0.832-2.845c3.326-1.955,6.609-2.043,9.849-0.263
	c3.063,1.721,4.901,4.377,5.515,7.966c0.524,4.961-0.744,9.002-3.808,12.124c-2.655,2.714-6.201,4.377-10.637,4.99
	c-3.326,0.642-6.595,0.379-9.805-0.788c1.226,2.86,1.255,6.011,0.088,9.455c-1.255,2.859-3.356,4.742-6.304,5.646
	c2.947-0.73,5.676-0.146,8.186,1.751c2.801,2.509,4.333,5.252,4.596,8.228c2.159-2.597,4.902-4.479,8.229-5.646
	c4.056-1.634,7.922-1.954,11.599-0.962c4.318,1.167,7.514,3.997,9.586,8.492c1.167,3.442,0.86,6.682-0.92,9.717
	c-1.896,3.239-4.785,4.815-8.666,4.727c-1.167,0-1.882-0.715-2.145-2.145c-0.292-1.371,0.291-1.97,1.751-1.794
	c2.597-0.526,4.216-2.042,4.858-4.552c0.555-2.247,0.103-4.188-1.357-5.822c-1.342-1.429-3.18-2.494-5.515-3.194
	c-2.451-0.729-4.566-0.832-6.347-0.307c-2.51,0.526-4.99,1.693-7.441,3.501l1.751-0.393c2.101-0.175,3.867,0.219,5.296,1.182
	c1.343,0.904,2.146,2.086,2.408,3.545c0.204,1.342,0.072,2.422-0.395,3.239c-0.554,0.875-1.443,1.284-2.67,1.226
	c-1.108-0.379-1.794-1.065-2.057-2.058c-0.643-2.247-1.678-3.589-3.108-4.027c-1.604-0.467-3.486,0.35-5.646,2.451
	c-1.284,1.955-2.188,3.297-2.715,4.026l-0.262,0.395c-1.867,2.685-4.786,4.668-8.755,5.953c3.969,1.255,6.888,3.138,8.755,5.646
	l2.977,4.465c2.159,2.16,4.041,2.962,5.646,2.407c1.431-0.438,2.466-1.736,3.108-3.896c0.263-1.167,0.948-1.839,2.057-2.013
	c1.227-0.205,2.116,0.145,2.67,1.05c0.467,0.904,0.599,2.028,0.395,3.37c-0.263,1.46-1.065,2.627-2.408,3.502
	c-1.429,0.991-3.195,1.4-5.296,1.225l-1.751-0.524c2.072,1.635,4.553,2.845,7.441,3.633c1.867,0.438,3.983,0.351,6.347-0.263
	c2.335-0.729,4.173-1.853,5.515-3.37c1.46-1.604,1.912-3.531,1.357-5.777c-0.643-2.452-2.262-3.939-4.858-4.465
	c-1.46,0.175-2.043-0.467-1.751-1.927c0.263-1.429,0.978-2.144,2.145-2.144c3.881-0.088,6.771,1.487,8.666,4.727
	c1.78,3.063,2.087,6.303,0.92,9.718c-2.072,4.58-5.268,7.455-9.586,8.622c-3.677,1.08-7.543,0.773-11.599-0.919
	c-3.152-1.167-5.895-3.063-8.229-5.69c-0.263,3.064-1.795,5.764-4.596,8.098c-2.218,1.81-4.64,2.524-7.266,2.146
	c2.422,0.904,4.216,2.713,5.384,5.427c1.079,3.327,1.05,6.479-0.088,9.455c3.385-1.284,6.653-1.605,9.805-0.964
	c4.436,0.643,7.981,2.306,10.637,4.99c3.063,3.151,4.332,7.193,3.808,12.124c-0.613,3.59-2.451,6.245-5.515,7.967
	c-3.239,1.897-6.522,1.853-9.849-0.131c-1.021-0.525-1.299-1.518-0.832-2.977c0.438-1.342,1.255-1.576,2.451-0.701
	c2.597,0.905,4.742,0.424,6.435-1.443c1.547-1.693,2.101-3.59,1.663-5.69c-0.379-1.955-1.415-3.838-3.107-5.646
	c-1.635-1.78-3.399-2.903-5.297-3.37c-3.034-0.817-5.777-1.036-8.229-0.656l1.663,0.524c1.867,0.788,3.21,1.999,4.026,3.634
	c0.7,1.429,0.832,2.874,0.395,4.332c-0.524,1.255-1.197,2.102-2.014,2.539c-0.992,0.555-1.983,0.467-2.977-0.262
	c-0.816-0.789-1.035-1.736-0.656-2.846c0.613-2.13,0.38-3.793-0.7-4.99c-1.255-1.255-3.326-1.518-6.215-0.788
	c-2.686,1.431-4.115,2.188-4.29,2.276l-0.395,0.176c-2.976,1.342-6.448,1.604-10.417,0.787c2.627,2.859,4.114,5.953,4.465,9.28
	l0.132,0.438c0.174,1.342,0.262,2.961,0.262,4.858c0.816,2.859,2.086,4.523,3.808,4.99c1.518,0.35,3.035-0.278,4.553-1.883
	c0.642-0.729,1.59-1.007,2.845-0.832c2.364,1.08,2.495,2.875,0.395,5.385c-0.904,1.108-2.159,1.751-3.764,1.926
	c-1.78,0.087-3.531-0.453-5.253-1.62l-1.226-1.225c0.991,2.422,2.523,4.668,4.596,6.739c1.342,1.343,3.225,2.335,5.646,2.978
	c2.422,0.524,4.581,0.438,6.478-0.263c2.072-0.729,3.414-2.131,4.027-4.202c0.729-2.423,0.059-4.537-2.014-6.347
	c-1.226-0.525-1.4-1.328-0.525-2.407c0.992-1.109,1.984-1.372,2.977-0.788c3.327,1.867,5.034,4.683,5.121,8.448
	c0,3.53-1.4,6.463-4.202,8.798c-4.026,2.859-8.155,3.764-12.387,2.713c-3.765-1.021-7.004-3.282-9.717-6.784
	c-1.984-2.335-3.37-5.296-4.158-8.885c-1.81,2.509-4.48,4.084-8.011,4.727c-2.771,0.351-5.224-0.277-7.354-1.882
	c1.605,2.159,2.218,4.625,1.839,7.396c-0.788,3.502-2.408,6.201-4.858,8.098c3.443,0.555,6.463,1.955,9.06,4.203
	c3.502,2.684,5.749,5.88,6.741,9.585c1.08,4.29,0.175,8.463-2.714,12.519c-2.334,2.714-5.296,4.07-8.886,4.07
	c-3.793-0.087-6.58-1.809-8.359-5.164c-0.555-0.904-0.292-1.854,0.788-2.846c1.021-0.963,1.794-0.773,2.319,0.569
	c1.81,2.042,3.925,2.714,6.347,2.013c2.159-0.729,3.59-2.115,4.29-4.158c0.642-1.896,0.686-4.07,0.131-6.521
	c-0.525-2.335-1.474-4.174-2.846-5.517c-1.779-1.896-4.07-3.473-6.871-4.727l1.226,1.226c1.254,1.722,1.853,3.473,1.794,5.252
	c-0.204,1.635-0.846,2.948-1.926,3.939c-2.685,1.985-4.523,1.81-5.515-0.524c-0.204-1.109,0.102-2.058,0.919-2.846
	c1.547-1.546,2.145-3.078,1.794-4.596c-0.378-1.722-1.998-2.991-4.858-3.808c-2.334,0-3.953-0.088-4.858-0.264h-0.569
	c-3.239-0.35-6.347-1.882-9.322-4.596c0.816,3.794,0.554,7.267-0.788,10.418l-0.132,0.524l-2.144,4.334
	c-0.73,2.889-0.467,4.902,0.787,6.041c1.079,1.108,2.698,1.342,4.858,0.699c0.992-0.175,1.94,0.044,2.845,0.657
	c0.73,1.021,0.817,2.013,0.264,2.977c-0.438,0.816-1.284,1.503-2.539,2.057c-1.371,0.525-2.772,0.424-4.202-0.306
	c-1.722-0.817-2.991-2.159-3.809-4.027l-0.35-1.751c-0.467,2.686-0.248,5.428,0.656,8.229c0.438,1.867,1.503,3.617,3.195,5.252
	c1.81,1.78,3.706,2.859,5.69,3.239c2.159,0.35,4.056-0.234,5.689-1.751c1.868-1.722,2.394-3.881,1.577-6.479
	c-0.876-1.079-0.643-1.838,0.7-2.275c1.342-0.467,2.29-0.248,2.845,0.656c2.071,3.327,2.159,6.653,0.263,9.979
	c-1.722,3.064-4.377,4.903-7.966,5.515c-4.961,0.556-9.018-0.743-12.169-3.895c-2.685-2.686-4.334-6.245-4.946-10.68
	c-0.642-3.239-0.379-6.508,0.788-9.806c-2.859,1.255-5.953,1.299-9.279,0.132c-2.714-1.168-4.566-3.021-5.56-5.56
	c0.351,2.715-0.32,5.238-2.013,7.573c-2.335,2.597-5.077,4.129-8.229,4.596c2.714,2.422,4.596,5.106,5.646,8.054
	c1.722,4.173,2.087,8.098,1.095,11.774c-1.167,4.318-4.041,7.456-8.623,9.41c-3.414,1.168-6.653,0.861-9.718-0.919
	c-3.238-1.897-4.814-4.786-4.727-8.666c0-1.051,0.715-1.722,2.146-2.015c1.342-0.35,1.983,0.19,1.925,1.62
	c0.525,2.714,1.999,4.334,4.422,4.858c2.159,0.555,4.056,0.103,5.689-1.356c1.605-1.342,2.772-3.181,3.502-5.515
	c0.612-2.248,0.7-4.349,0.263-6.304c-0.904-2.917-2.116-5.398-3.634-7.44l0.395,1.751c0.263,2.071-0.103,3.822-1.095,5.252
	c-0.962,1.43-2.174,2.247-3.633,2.451c-1.343,0.175-2.422,0.029-3.238-0.438c-0.904-0.525-1.313-1.416-1.227-2.67
	c0.467-1.197,1.197-1.883,2.189-2.058c2.159-0.525,3.458-1.503,3.896-2.933c0.524-1.722-0.292-3.662-2.451-5.822
	c-2.423-1.517-3.765-2.362-4.027-2.538l-0.395-0.438c-2.626-1.955-4.566-4.829-5.821-8.623c-1.255,3.794-3.181,6.668-5.778,8.623
	l-0.438,0.438c-0.321,0.263-1.663,1.109-4.027,2.538c-2.072,2.16-2.874,4.101-2.407,5.822c0.438,1.43,1.736,2.407,3.896,2.933
	c0.992,0.175,1.722,0.86,2.188,2.058c0.058,1.254-0.351,2.145-1.226,2.67c-0.816,0.467-1.911,0.612-3.283,0.438
	c-1.429-0.204-2.597-1.021-3.501-2.451c-1.051-1.43-1.459-3.181-1.225-5.252l0.438-1.751c-1.81,2.422-2.977,4.901-3.501,7.44
	c-0.526,1.867-0.482,3.969,0.131,6.304c0.729,2.334,1.853,4.173,3.371,5.515c1.634,1.459,3.56,1.911,5.777,1.356
	c2.539-0.524,4.071-2.145,4.596-4.858c-0.175-1.43,0.423-1.97,1.794-1.62c1.43,0.293,2.145,0.964,2.145,2.015
	c0.087,3.88-1.488,6.769-4.728,8.666c-3.064,1.78-6.347,2.087-9.848,0.919c-4.494-1.954-7.324-5.092-8.491-9.41
	c-0.992-3.677-0.642-7.602,1.05-11.774c0.992-3.034,2.889-5.719,5.69-8.054c-3.151-0.467-5.894-1.999-8.229-4.596
	c-1.722-2.335-2.407-4.815-2.058-7.441c-0.875,2.451-2.67,4.26-5.383,5.428c-3.415,1.05-6.609,1.006-9.586-0.132
	c1.284,3.211,1.604,6.479,0.962,9.806c-0.641,4.435-2.305,7.994-4.989,10.68c-3.152,3.151-7.193,4.45-12.125,3.895
	c-3.618-0.611-6.274-2.45-7.966-5.515c-1.897-3.326-1.854-6.652,0.131-9.979c0.555-0.904,1.547-1.123,2.977-0.656
	c1.342,0.438,1.604,1.196,0.788,2.275c-0.905,2.598-0.453,4.757,1.356,6.479c1.722,1.517,3.648,2.101,5.777,1.751
	c2.014-0.38,3.911-1.459,5.69-3.239c1.693-1.635,2.816-3.385,3.371-5.252c0.729-3.152,0.904-5.895,0.525-8.229l-0.395,1.751
	c-0.816,1.868-2.028,3.21-3.632,4.027c-1.518,0.729-2.962,0.831-4.333,0.306c-1.255-0.554-2.101-1.24-2.539-2.057
	c-0.554-0.964-0.467-1.955,0.263-2.977c0.904-0.613,1.854-0.832,2.845-0.657c2.16,0.643,3.78,0.409,4.859-0.699
	c1.342-1.139,1.605-3.152,0.788-6.041l-2.408-4.858c-1.254-2.889-1.444-6.361-0.568-10.418c-3.064,2.714-6.245,4.246-9.542,4.596
	h-0.438c-0.905,0.176-2.524,0.264-4.858,0.264c-2.86,0.816-4.479,2.086-4.858,3.808c-0.438,1.518,0.204,3.05,1.925,4.596
	c0.701,0.904,0.963,1.854,0.788,2.846c-0.525,1.138-1.342,1.707-2.451,1.707c-0.904,0-1.882-0.395-2.933-1.183
	c-1.167-0.904-1.809-2.218-1.925-3.939c-0.175-1.779,0.379-3.53,1.663-5.252l1.182-1.226c-2.801,1.254-5.092,2.831-6.873,4.727
	c-1.342,1.431-2.29,3.269-2.845,5.517c-0.525,2.45-0.467,4.625,0.175,6.521c0.7,2.043,2.131,3.43,4.29,4.158
	c2.422,0.701,4.537,0.029,6.347-2.013c0.525-1.343,1.342-1.532,2.451-0.569c1.051,0.992,1.313,1.941,0.787,2.846
	c-1.984,3.355-4.829,5.077-8.535,5.164c-3.56,0-6.463-1.356-8.709-4.07c-2.977-4.056-3.881-8.229-2.714-12.519
	c0.992-3.705,3.239-6.901,6.741-9.585c2.51-2.248,5.471-3.648,8.886-4.203c-2.423-1.896-4.042-4.596-4.859-8.098
	c-0.35-2.976,0.38-5.485,2.189-7.528c-2.16,1.78-4.727,2.451-7.704,2.014c-3.502-0.643-6.201-2.218-8.098-4.727
	c-0.642,3.501-1.984,6.463-4.026,8.885c-2.714,3.502-5.909,5.763-9.586,6.784c-4.319,1.051-8.506,0.146-12.562-2.713
	c-2.802-2.335-4.203-5.268-4.203-8.798c0.117-3.766,1.839-6.581,5.165-8.448c0.992-0.584,1.97-0.321,2.933,0.788
	c0.904,1.079,0.73,1.882-0.525,2.407c-2.072,1.81-2.743,3.924-2.014,6.347c0.642,2.071,1.984,3.473,4.027,4.202
	c1.984,0.7,4.187,0.787,6.609,0.263c2.364-0.555,4.217-1.547,5.56-2.978c2.071-2.071,3.604-4.317,4.596-6.739l-1.226,1.225
	c-1.634,1.167-3.399,1.707-5.296,1.62c-1.604-0.175-2.845-0.817-3.72-1.926c-0.905-1.051-1.313-2.072-1.226-3.064
	c0-0.992,0.526-1.765,1.577-2.32c1.284-0.262,2.232,0.015,2.845,0.832c1.634,1.604,3.166,2.232,4.596,1.883
	c1.722-0.467,2.99-2.131,3.808-4.99c0-2.335,0.087-3.954,0.263-4.858v-0.438c0.35-3.327,1.882-6.421,4.596-9.28
	c-3.88,0.7-7.353,0.438-10.417-0.787l-0.394-0.176c-1.635-0.904-3.079-1.663-4.333-2.276c-2.889-0.729-4.946-0.467-6.171,0.788
	c-1.109,1.197-1.299,2.86-0.569,4.99c0.262,1.109,0,2.057-0.788,2.846c-0.992,0.729-1.94,0.816-2.845,0.262
	c-0.905-0.438-1.577-1.284-2.014-2.539c-0.554-1.371-0.467-2.815,0.263-4.332c0.729-1.635,2.028-2.846,3.895-3.634l1.75-0.524
	c-2.333-0.38-5.077-0.161-8.228,0.656c-1.897,0.467-3.648,1.59-5.253,3.37c-1.692,1.809-2.729,3.691-3.107,5.646
	c-0.438,2.101,0.102,3.997,1.619,5.69c1.722,1.867,3.881,2.349,6.479,1.443c1.079-0.875,1.882-0.641,2.407,0.701
	c0.467,1.459,0.204,2.451-0.788,2.977c-3.326,1.983-6.609,2.028-9.848,0.131c-3.064-1.722-4.947-4.377-5.647-7.967
	c-0.554-4.931,0.789-8.973,4.027-12.124c2.685-2.685,6.23-4.348,10.636-4.99c3.005-0.642,6.245-0.32,9.717,0.964
	c-1.139-3.064-1.139-6.216,0-9.455c1.109-2.714,2.961-4.522,5.559-5.427c-2.801,0.379-5.325-0.336-7.573-2.146
	c-2.713-2.159-4.289-4.858-4.727-8.098c-2.13,2.627-4.771,4.523-7.922,5.69c-4.144,1.692-8.054,1.999-11.731,0.919
	c-4.348-1.167-7.499-4.042-9.454-8.622c-1.197-3.415-0.935-6.654,0.787-9.718c1.897-3.239,4.786-4.814,8.667-4.727
	c1.138,0,1.854,0.715,2.145,2.144c0.262,1.46-0.336,2.102-1.794,1.927c-2.685,0.525-4.29,2.013-4.815,4.465
	c-0.467,2.13-0.029,4.056,1.313,5.777c1.458,1.518,3.355,2.641,5.69,3.37c2.247,0.613,4.304,0.701,6.171,0.263
	c2.918-0.788,5.399-1.998,7.441-3.633l-1.62,0.524c-2.072,0.176-3.866-0.233-5.383-1.225c-1.43-0.964-2.232-2.131-2.408-3.502
	c-0.379-3.297,0.686-4.771,3.195-4.42c0.993,0.262,1.635,0.933,1.926,2.013c0.526,2.159,1.561,3.458,3.107,3.896
	c1.693,0.555,3.619-0.247,5.778-2.407c0.816-1.547,1.678-2.89,2.583-4.027c0.174-0.087,0.263-0.233,0.263-0.438
	c1.955-2.509,4.917-4.392,8.885-5.646c-3.968-1.284-6.93-3.268-8.885-5.953l-0.263-0.395c-0.73-0.904-1.591-2.247-2.583-4.026
	c-2.16-2.102-4.085-2.918-5.778-2.451c-1.546,0.438-2.582,1.78-3.107,4.027c-0.175,0.817-0.816,1.503-1.926,2.058
	c-2.509,0.263-3.574-1.226-3.195-4.465c0.175-1.459,0.978-2.641,2.408-3.545c1.429-0.963,3.224-1.357,5.383-1.182l1.62,0.393
	c-2.422-1.809-4.903-2.976-7.441-3.501c-1.78-0.525-3.837-0.422-6.171,0.307c-2.334,0.613-4.232,1.678-5.69,3.194
	c-1.342,1.722-1.78,3.663-1.313,5.822c0.525,2.51,2.13,4.026,4.815,4.552c1.458-0.175,2.057,0.423,1.794,1.794
	c-0.292,1.43-1.007,2.145-2.145,2.145c-3.881,0.088-6.77-1.488-8.667-4.727c-1.722-3.035-1.984-6.274-0.787-9.717
	c1.955-4.495,5.106-7.325,9.454-8.492c3.677-0.992,7.587-0.671,11.731,0.962c3.297,1.255,5.938,3.138,7.922,5.646
	c0.438-3.151,2.013-5.895,4.727-8.228c2.539-1.897,5.326-2.481,8.361-1.751c-3.035-0.905-5.15-2.787-6.347-5.646
	c-1.255-3.356-1.255-6.508,0-9.455c-3.327,1.167-6.565,1.429-9.717,0.788c-4.406-0.613-7.952-2.276-10.636-4.99
	c-3.239-3.122-4.581-7.163-4.027-12.124c0.7-3.589,2.583-6.245,5.647-7.966c3.239-1.781,6.522-1.692,9.848,0.263
	c0.992,0.554,1.255,1.503,0.788,2.845c-0.525,1.342-1.328,1.604-2.407,0.787c-2.597-0.875-4.757-0.378-6.479,1.488
	c-1.517,1.722-2.057,3.619-1.619,5.69c0.379,1.984,1.415,3.867,3.107,5.646c1.605,1.809,3.355,2.933,5.253,3.37
	c2.772,0.73,5.515,0.963,8.228,0.701l-1.75-0.569c-1.867-0.789-3.166-1.999-3.895-3.633c-0.73-1.518-0.817-2.961-0.263-4.333
	c0.438-1.226,1.109-2.072,2.014-2.539c0.904-0.555,1.853-0.467,2.845,0.263c0.788,0.817,1.05,1.765,0.788,2.845
	c-0.729,2.159-0.54,3.823,0.569,4.99c1.138,1.255,3.195,1.532,6.171,0.832c2.335-1.371,3.779-2.145,4.333-2.32l0.394-0.131
	c3.064-1.343,6.566-1.576,10.505-0.701c-2.772-3.064-4.333-6.201-4.684-9.411v-0.525c-0.175-0.817-0.263-2.393-0.263-4.728
	c-0.817-2.889-2.086-4.566-3.808-5.034c-1.518-0.32-3.049,0.322-4.596,1.926c-0.613,0.817-1.561,1.08-2.845,0.788
	c-1.051-0.526-1.577-1.328-1.577-2.407c-0.087-0.993,0.321-1.984,1.226-2.977c0.875-1.08,2.116-1.707,3.72-1.881
	c1.897-0.117,3.663,0.423,5.296,1.619l1.226,1.226c-0.993-2.422-2.525-4.684-4.596-6.785c-1.342-1.343-3.196-2.32-5.56-2.933
	c-2.422-0.554-4.625-0.51-6.609,0.132c-2.042,0.7-3.385,2.13-4.027,4.289c-0.729,2.422-0.059,4.538,2.014,6.347
	c1.255,0.555,1.429,1.372,0.525,2.452c-0.963,1.05-1.941,1.313-2.933,0.788c-3.326-1.896-5.048-4.683-5.165-8.36
	c0-3.589,1.401-6.551,4.203-8.886c4.056-2.976,8.243-3.88,12.562-2.713c3.677,0.993,6.872,3.239,9.586,6.741
	c2.129,2.509,3.472,5.486,4.026,8.93c1.897-2.539,4.596-4.115,8.098-4.728c2.977-0.467,5.544,0.248,7.704,2.145
	c-1.809-2.247-2.539-4.814-2.189-7.703c0.73-3.502,2.35-6.202,4.859-8.098c-3.415-0.526-6.375-1.912-8.886-4.158
	c-3.501-2.714-5.749-5.909-6.741-9.586c-1.167-4.319-0.263-8.492,2.714-12.519c2.247-2.801,5.15-4.158,8.709-4.071
	c3.706,0,6.551,1.707,8.535,5.121c0.526,0.905,0.264,1.839-0.787,2.802c-1.109,0.904-1.926,0.745-2.451-0.481
	c-1.81-2.102-3.925-2.787-6.347-2.057c-2.159,0.729-3.59,2.086-4.29,4.07c-0.642,1.984-0.7,4.173-0.175,6.566
	c0.555,2.364,1.502,4.216,2.845,5.559c1.984,1.984,4.275,3.56,6.873,4.727l-1.182-1.357c-1.284-1.693-1.838-3.443-1.663-5.252
	c0.117-1.634,0.758-2.889,1.925-3.764c0.963-0.817,1.941-1.226,2.933-1.226c1.109,0,1.926,0.541,2.451,1.62
	c0.175,1.167-0.087,2.115-0.788,2.845c-1.722,1.518-2.363,3.034-1.925,4.551c0.379,1.81,1.999,3.079,4.858,3.809
	c1.429,0.087,3.049,0.175,4.858,0.263h0.438c3.297,0.555,6.479,2.159,9.542,4.814c-0.875-4.026-0.686-7.572,0.568-10.636
	l0.263-0.394l2.145-4.333c0.729-2.859,0.467-4.917-0.788-6.171c-1.08-0.993-2.7-1.182-4.859-0.569
	c-1.108,0.292-2.057,0.029-2.845-0.788c-0.729-0.992-0.816-1.94-0.263-2.845c0.438-0.816,1.284-1.487,2.539-2.013
	c1.372-0.525,2.816-0.438,4.333,0.262c1.604,0.817,2.816,2.16,3.632,4.027l0.395,1.794c0.379-2.334,0.204-5.121-0.525-8.36
	c-0.555-1.926-1.678-3.691-3.371-5.296c-1.78-1.693-3.677-2.729-5.69-3.108c-2.129-0.438-4.055,0.146-5.777,1.75
	c-1.81,1.722-2.261,3.881-1.356,6.479c0.816,1.109,0.554,1.882-0.788,2.32c-1.43,0.438-2.422,0.219-2.977-0.657
	c-1.984-3.327-2.028-6.668-0.131-10.023c1.692-3.035,4.348-4.917,7.966-5.647c4.932-0.466,8.973,0.875,12.125,4.027
	c2.684,2.714,4.348,6.274,4.989,10.68c0.642,3.327,0.322,6.565-0.962,9.718c2.889-1.168,6.084-1.168,9.586,0
	c2.626,1.08,4.421,2.917,5.383,5.515c-0.35-2.684,0.336-5.194,2.058-7.529c2.422-2.713,5.165-4.289,8.229-4.727
	c-2.713-2.159-4.61-4.814-5.69-7.967c-1.692-4.144-2.042-8.053-1.05-11.73c1.167-4.319,3.998-7.47,8.491-9.454
	c3.501-1.168,6.784-0.847,9.848,0.962c3.239,1.868,4.815,4.742,4.728,8.623c0,1.08-0.714,1.751-2.145,2.014
	c-1.372,0.263-1.97-0.278-1.794-1.62c-0.525-2.684-2.057-4.303-4.596-4.858c-2.217-0.525-4.144-0.073-5.777,1.357
	c-1.518,1.342-2.642,3.181-3.371,5.515c-0.613,2.335-0.657,4.407-0.131,6.216c0.612,2.713,1.78,5.194,3.501,7.441l-0.438-1.664
	c-0.234-2.042,0.174-3.837,1.225-5.383c0.904-1.343,2.072-2.102,3.501-2.277c1.372-0.175,2.466-0.043,3.283,0.395
	c0.875,0.642,1.284,1.546,1.226,2.713c-0.555,1.08-1.284,1.75-2.188,2.014c-2.16,0.467-3.458,1.458-3.896,2.976
	c-0.467,1.722,0.335,3.648,2.407,5.778c2.364,1.43,3.706,2.291,4.027,2.582l0.438,0.263c2.597,2.071,4.523,5.034,5.778,8.885
	c1.254-3.851,3.195-6.813,5.821-8.885l0.395-0.263c0.263-0.174,1.604-1.036,4.027-2.582c2.159-2.13,2.976-4.056,2.451-5.778
	c-0.438-1.517-1.736-2.509-3.896-2.976c-0.905-0.264-1.635-0.935-2.189-2.014c-0.087-1.167,0.322-2.072,1.227-2.713
	c0.816-0.438,1.896-0.569,3.238-0.395c1.459,0.175,2.671,0.934,3.633,2.277c0.992,1.546,1.357,3.341,1.095,5.383l-0.395,1.664
	c1.518-1.926,2.729-4.406,3.634-7.441c0.438-1.868,0.35-3.939-0.263-6.216c-0.729-2.333-1.896-4.172-3.502-5.515
	c-1.634-1.43-3.53-1.882-5.689-1.357c-2.423,0.555-3.896,2.174-4.422,4.858c0.059,1.342-0.583,1.883-1.925,1.62
	c-1.431-0.263-2.146-0.935-2.146-2.014c-0.088-3.88,1.488-6.754,4.727-8.623c3.064-1.809,6.304-2.13,9.718-0.962
	c4.582,1.984,7.456,5.135,8.623,9.454c0.992,3.677,0.627,7.586-1.095,11.73c-1.167,3.152-3.05,5.808-5.646,7.967
	c3.035,0.438,5.778,2.014,8.229,4.727c1.692,2.334,2.363,4.845,2.013,7.529c0.993-2.597,2.846-4.435,5.56-5.515
	c3.385-1.168,6.478-1.168,9.279,0c-1.167-3.269-1.43-6.508-0.788-9.718c0.612-4.406,2.262-7.966,4.946-10.68
	c3.151-3.151,7.208-4.493,12.169-4.027c3.589,0.729,6.244,2.612,7.966,5.647c1.896,3.355,1.809,6.696-0.263,10.023
	c-0.555,0.875-1.503,1.094-2.845,0.657c-1.343-0.438-1.576-1.211-0.7-2.32c0.816-2.597,0.291-4.757-1.577-6.479
	c-1.722-1.604-3.617-2.188-5.689-1.75c-1.984,0.379-3.881,1.416-5.69,3.108c-1.692,1.721-2.757,3.487-3.195,5.296
	c-0.904,2.771-1.123,5.559-0.656,8.36l0.35-1.794c0.817-1.868,2.087-3.21,3.809-4.027c1.518-0.7,2.918-0.787,4.202-0.262
	c1.255,0.526,2.102,1.197,2.539,2.013c0.554,0.905,0.467,1.854-0.264,2.845c-0.816,0.817-1.766,1.08-2.845,0.788
	c-2.16-0.613-3.779-0.423-4.858,0.569c-1.254,1.254-1.518,3.312-0.787,6.171l2.144,4.333l0.132,0.394
	c1.342,3.239,1.604,6.784,0.788,10.636c2.889-2.655,5.996-4.26,9.322-4.814h0.569c1.343-0.175,2.962-0.263,4.858-0.263
	c2.86-0.73,4.48-1.999,4.858-3.809c0.351-1.517-0.247-3.034-1.794-4.551c-0.817-0.73-1.123-1.678-0.919-2.845
	c0.524-1.08,1.327-1.62,2.407-1.62c0.991,0,2.028,0.409,3.107,1.226c1.08,0.875,1.722,2.13,1.926,3.764
	c0.059,1.897-0.54,3.648-1.794,5.252l-1.226,1.357c2.626-1.167,4.917-2.743,6.871-4.727c1.372-1.343,2.32-3.195,2.846-5.559
	c0.555-2.393,0.511-4.582-0.131-6.566c-0.7-1.984-2.131-3.341-4.29-4.07c-2.422-0.73-4.537-0.045-6.347,2.057
	c-0.525,1.226-1.299,1.386-2.319,0.481c-1.08-0.963-1.343-1.896-0.788-2.802C218.534,30.994,221.321,29.287,225.114,29.287z
	 M214.041,85.007c8.55,8.637,15.203,18.485,19.959,29.545c4.873,11.497,7.31,23.548,7.31,36.155c0,12.576-2.437,24.671-7.31,36.286
	c-4.756,11.059-11.409,20.907-19.959,29.545c-8.638,8.608-18.486,15.261-29.545,19.96c-11.498,4.844-23.593,7.266-36.287,7.266
	c-12.577,0-24.614-2.422-36.111-7.266c-11.176-4.786-21.024-11.439-29.545-19.96c-8.638-8.638-15.291-18.486-19.959-29.545
	c-4.874-11.526-7.311-23.622-7.311-36.286c0-12.606,2.437-24.658,7.311-36.155c4.668-11.06,11.321-20.908,19.959-29.545
	c8.521-8.55,18.369-15.204,29.545-19.96c11.497-4.873,23.534-7.31,36.111-7.31c12.694,0,24.789,2.437,36.287,7.31
	C195.555,69.716,205.403,76.369,214.041,85.007z M114.244,70.125C103.709,74.56,94.4,80.819,86.317,88.902
	c-7.995,7.996-14.211,17.261-18.646,27.794c-4.582,10.797-6.873,22.133-6.873,34.011c0,11.964,2.291,23.329,6.873,34.098
	c4.435,10.534,10.651,19.799,18.646,27.794c8.083,8.112,17.392,14.356,27.926,18.733c10.768,4.61,22.089,6.916,33.966,6.916
	c11.876,0,23.213-2.306,34.009-6.916c10.534-4.377,19.844-10.621,27.927-18.733c8.083-8.083,14.327-17.348,18.733-27.794
	c4.611-10.855,6.916-22.222,6.916-34.098c0-11.877-2.305-23.213-6.916-34.011c-4.406-10.446-10.65-19.711-18.733-27.794
	s-17.393-14.342-27.927-18.777c-10.796-4.582-22.133-6.873-34.009-6.873C136.333,63.252,125.011,65.543,114.244,70.125z"/>
</svg>
