<?xml version="1.0" encoding="utf-8"?>
<!-- Generator: Adobe Illustrator 16.0.0, SVG Export Plug-In . SVG Version: 6.00 Build 0)  -->
<!DOCTYPE svg PUBLIC "-//W3C//DTD SVG 1.1//EN" "http://www.w3.org/Graphics/SVG/1.1/DTD/svg11.dtd">
<svg version="1.1" id="Layer_1" xmlns="http://www.w3.org/2000/svg" xmlns:xlink="http://www.w3.org/1999/xlink" x="0px" y="0px"
	 width="300px" height="300px" viewBox="0 0 300 300" enable-background="new 0 0 300 300" xml:space="preserve">
<path fill="#010101" d="M248.816,124.906c1.091,0.44,2.876,0.44,3.965,0c1.091-0.44,0.199-0.799-1.982-0.799
	C248.618,124.107,247.726,124.466,248.816,124.906 M259.524,125.442l-3.174,1.362l3.174-0.076c1.744-0.042,5.313-0.621,7.931-1.287
	l4.76-1.211l-4.76-0.076C264.837,124.113,261.269,124.691,259.524,125.442 M30.434,126.021c0.365,0.317,4.588,1.006,9.386,1.529
	c5.698,0.622,7.624,0.46,5.552-0.466C42.369,125.74,29.031,124.792,30.434,126.021 M50.528,126.493c1.091,0.44,2.876,0.44,3.966,0
	c1.091-0.44,0.198-0.799-1.983-0.799C50.33,125.693,49.438,126.053,50.528,126.493 M149.3,127.303
	c-0.014,1.461-1.939,4.929-4.278,7.71c-3.845,4.569-4.909,4.98-11.104,4.28c-3.77-0.423-6.851-0.278-6.851,0.324
	c0,0.603,3.052,1.254,6.782,1.447c4.87,0.252,7.662-0.502,9.914-2.683c6.49-6.282,8.335-9.354,6.941-11.555
	C149.603,125.088,149.319,125.185,149.3,127.303 M233.497,129.467l-8.577,3.993l-3.424-3.216c-1.881-1.768-4.07-3.215-4.86-3.215
	c-0.793,0,0.144,1.112,2.084,2.47s3.525,3.514,3.525,4.791c0,1.867,1.302,1.658,6.656-1.074c3.66-1.867,9.191-4.329,12.294-5.473
	c3.101-1.143,4.568-2.119,3.259-2.173C243.145,125.517,238.214,127.27,233.497,129.467 M59.649,128.615
	c4.361,1.874,6.865,1.874,3.966,0c-1.309-0.846-3.45-1.499-4.759-1.45C57.288,127.222,57.557,127.715,59.649,128.615
	 M79.537,130.932c-3.337,3.554-3.962,3.695-6.975,1.586c-1.819-1.274-4.041-2.314-4.938-2.312c-0.896,0.003,0.775,1.471,3.712,3.262
	l5.339,3.255l2.365-3.375c1.299-1.856,3.893-3.993,5.763-4.746c2.271-0.917,2.569-1.406,0.899-1.474
	C84.329,127.074,81.553,128.785,79.537,130.932 M93.384,128.088c1.261,0.507,0.079,2.104-3.172,4.288
	c-6.978,4.687-7.697,11.398-1.951,18.225c2.305,2.74,5.375,4.934,6.825,4.881c1.939-0.074,1.736-0.464-0.764-1.475
	c-4.686-1.889-8.498-7.772-8.498-13.108c0-3.416,1.3-5.227,5.551-7.735c5.178-3.056,6.197-6.296,1.891-6.01
	C91.93,127.242,91.964,127.516,93.384,128.088 M204.031,128.569c-0.524,0.846,0.882,1.998,3.12,2.562
	c4.984,1.25,7.163,5.019,7.163,12.394c0,3.914-0.925,6.095-3.067,7.243c-4.586,2.452-13.815,1.981-16.649-0.85
	c-1.369-1.373-2.492-1.754-2.492-0.85c0,4.857,14.359,6.599,20.27,2.458c6.473-4.532,3.256-21.282-4.099-21.348
	c-2.314-0.022-2.356-0.238-0.308-1.563c2.051-1.325,2.009-1.541-0.304-1.562C206.19,127.04,204.556,127.722,204.031,128.569
	 M246.833,129.351c-6.125,2.805-3.277,2.846,3.966,0.057c3.054-1.176,4.482-2.16,3.173-2.187
	C252.663,127.194,249.451,128.152,246.833,129.351 M54.097,130.534c3.403,1.139,10.909,7.253,19.39,15.792
	c12.529,12.616,20.298,17.687,22.985,14.998c0.541-0.54-0.423-0.983-2.145-0.983c-4.274,0-12.609-6.405-20.05-15.411
	c-7.233-8.753-14.747-14.223-21.165-15.412C49.565,128.864,49.786,129.091,54.097,130.534 M257.656,130.719
	c-2.773,1.025-5.615,2.443-6.313,3.15c-0.698,0.708,0.856,0.471,3.457-0.528c2.598-0.999,7.579-2.394,11.069-3.098
	c5.414-1.091,5.645-1.288,1.586-1.332C264.837,128.88,260.429,129.694,257.656,130.719 M33.902,131.3
	c1.544,0.403,3.685,0.376,4.759-0.058c1.074-0.435-0.188-0.764-2.806-0.732S32.358,130.898,33.902,131.3 M276.635,133.851
	c1.932,2.007,3.806,3.439,4.163,3.183c0.925-0.665-4.847-6.833-6.393-6.833C273.698,130.201,274.702,131.843,276.635,133.851
	 M23.164,133.683c-3.554,2.015-5.516,4.46-5.479,6.829c0.013,0.873,0.787,0.272,1.721-1.332c0.933-1.607,3.946-3.899,6.693-5.094
	c2.749-1.197,3.926-2.182,2.617-2.188C27.408,131.89,24.909,132.693,23.164,133.683 M48.545,135.526
	c4.363,2.04,13.286,8.666,19.829,14.726c15.928,14.752,20.427,18.049,24.405,17.878c2.534-0.107,2.191-0.49-1.403-1.552
	c-2.617-0.774-11.541-7.553-19.829-15.06C57.31,138.62,47.27,131.768,42.66,131.803C41.534,131.812,44.183,133.486,48.545,135.526
	 M98.831,133.691c-4.844,4.844,0.43,13.813,6.708,11.404c1.73-0.663,2.493-0.03,2.493,2.068c0,3.88-2.922,6.781-7.06,7.017
	c-2.839,0.159-2.885,0.279-0.358,0.933c3.915,1.012,9.003-3.89,9.003-8.672c0-3.249-0.593-3.744-3.581-2.993
	c-4.95,1.241-7.901-0.99-7.264-5.493c0.445-3.159,1.445-3.787,6.022-3.787c4.472,0,6.163,1,9.122,5.39
	c1.999,2.965,3.633,4.626,3.633,3.692c0-0.937-1.848-3.896-4.107-6.58C109.096,131.503,102.386,130.136,98.831,133.691
	 M152.492,132.746c-0.068,2.74,7.45,10.146,10.295,10.146c1.407,0,3.941-0.739,5.63-1.643c2.168-1.161,3.066-1.131,3.066,0.105
	c0,3.409-3.312,7.855-7.574,10.167c-2.377,1.289-3.375,2.375-2.217,2.41c3.261,0.098,11.378-8.822,11.378-12.505
	c0-3.773-0.567-3.952-5.012-1.574c-4.58,2.451-9.618,0.706-12.791-4.432C153.764,132.986,152.514,131.783,152.492,132.746
	 M198.847,133.631c4.655,1.7,5.656,5.592,2.381,9.264c-1.687,1.891-1.568,1.91,0.792,0.123c5.298-4.007,1.608-11.527-5.446-11.104
	C195.424,131.981,196.447,132.755,198.847,133.631 M227.592,143.534c-12.968,13.438-16.075,15.463-25.968,16.918l-7.138,1.051
	l6.026,0.213c3.313,0.115,8.312-0.968,11.104-2.406c4.584-2.365,30.376-27.522,28.213-27.522
	C239.332,131.788,233.826,137.073,227.592,143.534 M189.118,136.713c-1.711,1.837-3.922,5.298-4.913,7.694
	c-1.388,3.347-2.643,4.194-5.425,3.663c-3.911-0.747-9.418,3.505-8.436,6.508c0.324,0.989,2.51,1.886,4.85,1.991
	c4.084,0.186,4.095,0.166,0.273-0.502c-2.19-0.382-3.984-1.274-3.984-1.981c0-2.555,4.813-5.205,7.957-4.382
	c2.434,0.636,3.823-0.373,5.744-4.175c1.395-2.759,4.003-6.624,5.797-8.585c1.795-1.962,2.811-3.569,2.256-3.569
	S190.829,134.875,189.118,136.713 M233.934,147.752c-7.735,7.037-16.566,14.144-19.619,15.792c-3.053,1.651-4.768,3.033-3.809,3.071
	c2.996,0.122,14.039-8.189,26.782-20.156c6.735-6.324,11.9-11.5,11.482-11.5C248.347,134.96,241.672,140.717,233.934,147.752
	 M261.606,136.044c1.144,0.458,2.512,0.401,3.039-0.126c0.526-0.527-0.409-0.9-2.081-0.833
	C260.716,135.162,260.342,135.538,261.606,136.044 M284.348,135.753c-0.007,0.872,0.601,3.014,1.351,4.759
	c1.165,2.713,1.38,2.77,1.475,0.396c0.152-3.81,2.612-3.48,5.573,0.75c1.357,1.938,2.47,2.763,2.47,1.831
	c0-2.548-5.921-7.393-7.696-6.296c-0.852,0.529-1.911,0.062-2.354-1.035C284.726,135.063,284.356,134.881,284.348,135.753
	 M9.185,140.997c-5.944,6.202-5.813,14.176,0.339,20.762c3.907,4.185,5.645,4.888,11.5,4.649l6.899-0.277l-6.61-0.601
	c-8.913-0.81-14.805-6.651-14.805-14.677c0-3.685,1.083-6.864,2.901-8.509c3.983-3.605,4.582-3.324,3.831,1.798
	c-0.431,2.946,0.485,5.725,2.749,8.328l3.398,3.905l-2.653-4.355c-1.859-3.054-2.339-6.016-1.607-9.915
	C16.387,135.385,14.836,135.095,9.185,140.997 M249.848,141.087c-3.403,2.497-7.819,6.462-9.817,8.808l-3.632,4.267l6.011-1.021
	c3.402-0.579,7.582-2.743,9.631-4.99c3.164-3.468,5.535-4.656,10.26-5.136c0.653-0.068,1.189-0.799,1.189-1.627
	c0-2.723-9.596,1.738-12.163,5.654c-1.363,2.08-3.802,3.782-5.419,3.782c-4.763,0-1.804-4.608,6.236-9.707
	c3.966-2.513,6.462-4.57,5.55-4.57C256.782,136.546,253.25,138.59,249.848,141.087 M28.899,139.573
	c-1.732,1.098-1.398,1.818,1.586,3.408c3.373,1.796,3.561,1.747,1.733-0.469c-1.674-2.03-1.674-2.634,0-3.307
	c1.128-0.452,1.335-0.867,0.463-0.923C31.81,138.227,30.108,138.807,28.899,139.573 M41.11,139.216
	c1.145,0.458,2.513,0.401,3.04-0.125c0.527-0.527-0.409-0.901-2.081-0.833C40.22,138.334,39.844,138.71,41.11,139.216
	 M270.628,139.719c-0.539,0.873-0.223,1.586,0.7,1.586c0.924,0,1.68-0.714,1.68-1.586c0-0.872-0.314-1.586-0.7-1.586
	C271.923,138.133,271.168,138.847,270.628,139.719 M52.67,144.859c6.07,4.47,6.536,5.205,3.572,5.641
	c-2.041,0.3-5.037-1.126-7.463-3.553c-4.725-4.724-7.425-5.202-7.247-1.278c0.075,1.637,0.452,1.967,0.922,0.805
	c1.067-2.645,6.884,0.408,6.884,3.612c0,1.51,1.621,2.324,4.629,2.324c2.546,0,5.938,0.416,7.535,0.922
	c1.599,0.507-0.553-2.347-4.783-6.345c-4.228-3.996-8.439-7.267-9.359-7.267C46.441,139.719,48.831,142.032,52.67,144.859
	 M146.03,143.028c-0.975,1.82-1.421,3.658-0.993,4.085c0.427,0.427,1.247-0.705,1.821-2.516c1.22-3.846,2.886-4.171,5.462-1.066
	c1.417,1.708,1.372,2.416-0.202,3.048c-1.303,0.521-1.039,0.868,0.727,0.947c3.582,0.162,3.532-1.87-0.125-5.182
	C148.971,138.951,148.168,139.034,146.03,143.028 M192.105,142.941c0,0.845,1.07,1.537,2.381,1.537c1.308,0,2.378-0.28,2.378-0.624
	c0-0.342-1.07-1.034-2.378-1.537C193.176,141.816,192.105,142.097,192.105,142.941 M279.354,142.515
	c0,5.199-11.393,9.283-13.228,4.739c-0.625-1.553-0.827-1.542-0.925,0.05c-0.32,5.195,11.318,4.054,14.234-1.394
	c0.969-1.81,1.346-3.706,0.839-4.211C279.769,141.191,279.354,141.559,279.354,142.515 M128.654,144.002
	c0,0.613,2.252,3.442,5.006,6.283c4.244,4.377,4.695,5.546,2.95,7.648c-1.744,2.101-1.659,2.328,0.545,1.48
	c3.825-1.468,3.238-3.538-2.948-10.386C131.152,145.648,128.654,143.387,128.654,144.002 M17.612,145.466
	c0,2.92,5.631,6.943,9.722,6.943c4.089,0,7.762-2.616,7.68-5.473c-0.027-0.917-0.776-0.417-1.666,1.11
	c-2.351,4.036-10.227,3.59-13.267-0.75C18.725,145.358,17.612,144.534,17.612,145.466 M117.675,148.047
	c-0.144,3.173,1.219,3.473,4.633,1.016c2.034-1.463,1.99-1.586-0.294-0.858c-1.47,0.47-3.02,0.002-3.444-1.039
	C118.146,146.123,117.743,146.52,117.675,148.047 M128.66,149.547c2.773,3.351,1.712,6.034-2.386,6.034
	c-4.145,0-5.274,2.178-2.134,4.119c1.135,0.701,1.401,0.435,0.699-0.701c-0.717-1.162,0.083-1.83,2.184-1.83
	c4.343,0,5.94-4.391,2.646-7.267C128.245,148.657,127.791,148.498,128.66,149.547 M282.979,151.933
	c-4.246,4.411-15.088,4.998-21.119,1.144l-3.923-2.507l3.746,3.3c5.4,4.757,16.099,4.499,21.942-0.532
	c2.446-2.106,4.096-4.104,3.658-4.441C286.848,148.558,284.911,149.926,282.979,151.933 M39.721,152.828
	c-1.489,1.956-5.288,3.709-9.518,4.394l-7.039,1.137l5.86,0.197c4.11,0.14,7.189-0.945,10.311-3.632
	c2.448-2.106,4.094-4.172,3.658-4.591C42.557,149.915,41.085,151.038,39.721,152.828 M146.889,157.183
	c-1.963,3.794-2.089,5.504-0.624,8.328c4.154,8.004,5.145,8.23,7.839,1.802c2.328-5.554,2.331-6.473,0.053-10.484
	C150.983,151.245,149.933,151.297,146.889,157.183 M289.49,158.049c-2.711,3.006-4.441,5.465-3.845,5.465
	c1.195,0,6.858-5.984,8.635-9.121C296.089,151.197,294.753,152.219,289.49,158.049 M153.465,165.323
	c-2.101,5.567-3.161,5.679-5.487,0.569c-1.359-2.982-1.347-4.974,0.05-8.042l1.858-4.079l2.646,3.508
	C154.664,160.106,154.847,161.665,153.465,165.323 M161.966,156.999c0,3.692,12.887,6.874,14.866,3.673
	c0.427-0.69-1.559-0.981-4.409-0.649c-3.374,0.394-6.105-0.313-7.82-2.03C163.153,156.542,161.966,156.095,161.966,156.999
	 M247.291,156.446c-0.477,0.476,1.19,2.919,3.702,5.43c2.669,2.67,4.565,6.264,4.565,8.653c0,5.341-0.729,5.175-6.606-1.518
	c-2.705-3.081-5.183-5.344-5.502-5.022c-0.32,0.32,2.159,3.553,5.509,7.182c3.351,3.63,6.563,6.127,7.139,5.553
	c2.364-2.364,0.792-10.098-2.956-14.552c-3.604-4.283-3.723-4.829-1.189-5.49c2.323-0.604,2.24-0.764-0.491-0.914
	C249.644,155.664,247.766,155.971,247.291,156.446 M48.268,158.285c2.753,0.712,2.76,0.897,0.143,3.791
	c-4.31,4.763-1.966,4.375,3.11-0.515l4.561-4.393l-5.354,0.184C47.782,157.454,46.675,157.872,48.268,158.285 M190.521,158.732
	c0,3.941,7.788,9.541,13.015,9.357l5.227-0.184l-5.606-1.096c-6.975-1.368-9.463-2.86-9.463-5.676c0-1.205-0.714-2.634-1.587-3.173
	C191.234,157.423,190.521,157.77,190.521,158.732 M256.847,158.252c1.146,0.459,2.514,0.402,3.04-0.125s-0.41-0.901-2.08-0.833
	C255.958,157.37,255.583,157.745,256.847,158.252 M38.234,160.341c-2.9,1.875-0.395,1.875,3.966,0
	c2.092-0.898,2.362-1.392,0.793-1.45C41.684,158.842,39.543,159.495,38.234,160.341 M104.859,160.341l-3.966,1.27l3.873,0.159
	c3.75,0.153,3.775,0.229,0.793,2.485c-1.692,1.282-4.506,2.409-6.251,2.505c-1.984,0.111-2.372,0.496-1.033,1.028
	c2.77,1.104,9.573-2.554,11.522-6.193C111.436,158.529,110.921,158.398,104.859,160.341 M128.257,161.392
	c1.091,0.439,2.876,0.439,3.966,0c1.091-0.44,0.198-0.8-1.983-0.8C128.059,160.592,127.167,160.951,128.257,161.392
	 M266.662,161.928c1.31,0.845,3.449,1.5,4.759,1.449c1.568-0.057,1.298-0.551-0.793-1.449
	C266.268,160.053,263.763,160.053,266.662,161.928 M30.303,163.514c-1.309,0.847-1.665,1.536-0.793,1.536
	c0.873,0,2.657-0.689,3.966-1.536c1.309-0.846,1.666-1.536,0.793-1.536C33.396,161.978,31.612,162.668,30.303,163.514
	 M50.88,168.072c-3.736,3.735-4.683,4.095-5.246,1.983c-0.378-1.418-0.77-0.256-0.871,2.578c-0.214,5.983,2.203,6.914,3.591,1.386
	c0.521-2.075,2.74-4.946,4.93-6.382c3.802-2.491,3.985-2.465,3.985,0.598c0,1.766,0.893,3.188,1.983,3.158
	c2.511-0.063,8.771-4.708,6.345-4.708c-0.989,0-2.237,0.714-2.776,1.588c-1.658,2.682-3.966,1.759-3.966-1.588
	C58.856,162.269,56.228,162.727,50.88,168.072 M113.584,167.555c-2.617,2.162-7.435,4.37-10.708,4.907
	c-5.571,0.914-5.948,1.332-5.948,6.596c0,3.092-1.25,7.104-2.776,8.918c-2.772,3.295-2.772,3.295,0.793,0.277
	c2.336-1.979,3.569-4.786,3.569-8.13c0-4.467,0.631-5.235,5.022-6.113c2.764-0.555,7.435-2.843,10.382-5.091
	c4.223-3.223,5.833-3.696,7.592-2.237c1.228,1.021,3.515,1.52,5.084,1.113c2.294-0.596,2.175-0.777-0.624-0.924
	c-1.912-0.103-3.917-0.899-4.456-1.771C120.094,162.799,118.898,163.17,113.584,167.555 M179.416,165.155
	c-1.311,0.878-5.885,1.438-10.171,1.247c-6.776-0.304-8.091,0.157-10.089,3.535c-2.161,3.657-2.146,3.706,0.27,0.793
	c1.964-2.372,4.204-2.994,9.583-2.662c3.86,0.235,8.522-0.376,10.36-1.357c2.794-1.495,4.133-1.125,8.162,2.266
	c2.648,2.229,6.013,4.026,7.473,3.993c1.486-0.034,0.56-0.974-2.105-2.137c-2.617-1.142-5.739-3.254-6.937-4.697
	C183.443,163.103,182.659,162.984,179.416,165.155 M227.432,164.613c1.544,0.403,3.685,0.376,4.76-0.059
	c1.072-0.435-0.189-0.765-2.808-0.731C226.766,163.854,225.888,164.211,227.432,164.613 M276.607,164.613
	c1.544,0.403,3.684,0.376,4.759-0.059c1.072-0.435-0.188-0.765-2.807-0.731C275.941,163.854,275.063,164.211,276.607,164.613
	 M74.185,166.578c7.684,1.254,11.18,3.721,12.122,8.552l0.672,3.454l0.215-3.454c0.313-4.99-6.865-10.073-13.878-9.832l-5.734,0.199
	L74.185,166.578 M142.529,172.905c2.396,4.291,4.625,7.536,4.953,7.208c0.688-0.689-7.5-15.013-8.583-15.013
	C138.499,165.101,140.134,168.611,142.529,172.905 M238.397,169.055c1.889,2.176,3.72,3.67,4.067,3.323
	c0.836-0.84-4.722-7.277-6.285-7.277C235.506,165.101,236.504,166.88,238.397,169.055 M131.43,167.736
	c1.091,0.44,2.876,0.44,3.966,0c1.091-0.439,0.198-0.8-1.983-0.8C131.231,166.937,130.34,167.297,131.43,167.736 M216.219,168.59
	c-1.049,1.046-1.809,3.725-1.688,5.948l0.214,4.046l0.731-3.967c0.4-2.181,1.464-4.856,2.356-5.948
	C219.909,166.138,218.728,166.081,216.219,168.59 M224.626,175.259c0,2.973,0.535,5.068,1.188,4.667
	c0.654-0.405,1.189-2.478,1.189-4.607c0-2.132,0.928-3.873,2.063-3.873c3.379,0,5.87,3.513,5.87,8.272
	c0,3.333-1.305,5.261-5.156,7.607c-2.834,1.73-4.359,3.146-3.386,3.15c3.977,0.013,10.128-6.649,10.128-10.969
	c0-4.969-4.291-9.648-8.851-9.648C225.264,169.858,224.626,170.99,224.626,175.259 M68.691,173.349
	c-1.047,1.046-1.858,3.011-1.804,4.362c0.062,1.507,0.655,1.079,1.535-1.111c1.53-3.804,5.613-4.826,6.666-1.666
	c0.396,1.191,1.021,0.894,1.669-0.793c0.786-2.048,0.171-2.695-2.564-2.695C72.214,171.445,69.738,172.303,68.691,173.349
	 M200.435,174.126c1.847,0.48,2.775,2.279,2.775,5.367c0,4.623,4.719,10.987,8.146,10.987c0.989,0-0.146-1.529-2.526-3.401
	c-3.505-2.76-4.21-4.413-3.704-8.725c0.563-4.846,0.258-5.308-3.424-5.14C199.012,173.337,198.587,173.642,200.435,174.126
	 M153.941,178.823c-0.877,2.313-1.364,4.904-1.081,5.756c0.285,0.852,1.312-1.039,2.283-4.206
	C157.186,173.722,156.312,172.595,153.941,178.823 M75.764,181.36c0.984,1.607,8.083,1.516,9.094-0.117
	c0.442-0.717-1.584-1.253-4.509-1.189C77.426,180.118,75.363,180.705,75.764,181.36 M217.487,180.963
	c1.308,0.845,3.093,1.537,3.966,1.537c0.871,0,0.515-0.692-0.793-1.537c-1.311-0.845-3.095-1.537-3.967-1.537
	S216.178,180.118,217.487,180.963 M66.812,182.83c-0.03,3.459,7.385,9.261,11.69,9.147c2.329-0.063,1.669-0.669-2.156-1.982
	c-3.035-1.043-6.411-3.676-7.511-5.859C67.469,181.426,66.827,181.013,66.812,182.83 M147.745,183.435
	c0.102,2.662,4.592,9.543,4.598,7.046c0.003-1.309-1.044-3.766-2.325-5.458C148.738,183.328,147.715,182.614,147.745,183.435
	 M87.113,191.564c1.145,0.459,2.513,0.4,3.04-0.126c0.527-0.526-0.409-0.899-2.082-0.832
	C86.223,190.683,85.847,191.059,87.113,191.564 M216.297,191.575c1.527,0.399,4.024,0.399,5.553,0
	c1.527-0.401,0.277-0.726-2.777-0.726C216.02,190.85,214.77,191.174,216.297,191.575"/>
</svg>
