<?xml version="1.0" encoding="utf-8"?>
<!-- Generator: Adobe Illustrator 16.0.0, SVG Export Plug-In . SVG Version: 6.00 Build 0)  -->
<!DOCTYPE svg PUBLIC "-//W3C//DTD SVG 1.1//EN" "http://www.w3.org/Graphics/SVG/1.1/DTD/svg11.dtd">
<svg version="1.1" id="Layer_1" xmlns="http://www.w3.org/2000/svg" xmlns:xlink="http://www.w3.org/1999/xlink" x="0px" y="0px"
	 width="300px" height="300px" viewBox="0 0 300 300" enable-background="new 0 0 300 300" xml:space="preserve">
<path fill-rule="evenodd" clip-rule="evenodd" fill="#232021" d="M94.119,172.358c0.719,0.292,1.479,0.539,2.278,0.739l0.1-0.22
	c-0.293-0.067-0.58-0.134-0.86-0.2c0.72,0.066,1.439,0.126,2.159,0.18c1.146,0.08,2.259,0.113,3.338,0.101
	c1.719-0.667,3.731-1.227,6.036-1.68c0-0.066,0.026-0.173,0.08-0.319c-5.01,0.839-8.741,1.232-11.192,1.179
	c-1.066,0.014-1.926-0.087-2.579-0.3c-0.427-0.133-0.819-0.272-1.179-0.42c-0.013-0.013-0.026-0.02-0.04-0.02l-0.021-0.02
	c-1.319-0.786-1.426-2.212-0.32-4.277c-0.652-0.267-1.372-0.619-2.158-1.06c-1.519-0.772-2.352-1.552-2.498-2.338
	c0-0.08-0.041-0.12-0.121-0.12c-0.066-0.066-0.066-0.174,0-0.319c0-0.067,0.041-0.101,0.121-0.101
	c-0.307-1.799,0.22-3.131,1.579-3.997c1.146-0.439,1.972-0.813,2.478-1.119l-0.02-0.101c0.066-0.066,0.173-0.1,0.319-0.1
	c0.067-0.08,0.133-0.153,0.2-0.22c-0.346-1.013-0.353-1.879-0.02-2.599c0.08-0.133,0.153-0.239,0.22-0.319
	c0.293-0.36,0.653-0.68,1.079-0.959c1.426-0.813,3.292-0.979,5.596-0.5c1.786-1.159,3.837-0.713,6.156,1.339
	c0.066,0.08,0.14,0.153,0.22,0.22c0.359,0.36,0.759,0.793,1.199,1.3c2.824,3.277,4.33,6.814,4.517,10.612l-0.1,0.12
	c0.067,0,0.133,0.106,0.2,0.319c0.08,0.2,0.08,0.38,0,0.54c-0.213,0.506-0.426,0.72-0.64,0.64c-0.146-0.066-0.22-0.207-0.22-0.42
	c0-0.293,0.041-0.513,0.121-0.659c0.066-0.213,0.14-0.354,0.22-0.42l-0.44,0.1l-0.22,0.22c-0.36,0.214-0.573,0.467-0.64,0.76
	c-0.373-1.279-1.033-2.531-1.979-3.757c-1.306-1.64-2.538-2.846-3.698-3.618c-1.306-0.999-1.666-1.219-1.079-0.659
	c0.799,0.439,1.925,1.512,3.377,3.218c1.799,1.998,2.818,3.677,3.058,5.036c-1.958-1.705-4.45-3.371-7.475-4.997
	c-1.812-0.985-3.438-1.758-4.877-2.317c3.251,1.332,7.222,3.811,11.912,7.435c-2.745-1.559-5.663-2.752-8.753-3.577l-2.698-0.641
	c2.012,0.561,4.097,1.26,6.255,2.099c2.531,0.986,4.271,1.906,5.216,2.759c0.054-0.134,0.153-0.313,0.3-0.54
	c0.147-0.293,0.293-0.439,0.44-0.439c0.146-0.08,0.253-0.047,0.32,0.1c0.146,0.147,0.18,0.367,0.1,0.66
	c-0.053,0.359-0.187,0.606-0.399,0.739c-0.293,0.227-0.58,0.199-0.86-0.08c-0.066-0.053-0.053-0.16,0.041-0.32l-0.26,0.42
	c-2.079-0.119-3.771-0.106-5.076,0.04c1.652-0.08,3.344,0.014,5.076,0.28l-0.22,0.34l-0.22,0.539
	c0.293-0.439,0.513-0.619,0.659-0.539c0.493,0.267,0.533,0.766,0.121,1.499c0.146-0.067,0.326-0.106,0.539-0.12
	c-0.066-0.213,0-0.54,0.2-0.979c0.213-0.359,0.426-0.5,0.639-0.42c0.36,0.36,0.434,0.68,0.22,0.959
	c0.213-0.065,0.426-0.14,0.64-0.22v-0.1l0.319-0.319c0.08,0.053,0.12,0.119,0.12,0.199c0.28-0.146,0.566-0.293,0.859-0.439
	l-0.1,0.32l-0.12,0.22l-0.54,0.319c-0.053,0.08-0.08,0.153-0.08,0.22c-0.146,0.307-0.293,0.387-0.44,0.24
	c-0.066-0.08-0.1-0.153-0.1-0.22l-0.859,0.319c-0.293,0.146-0.546,0.253-0.76,0.32l-0.1,0.119c-0.586,0.147-1.126,0.333-1.619,0.561
	v0.419l-3.658,1.119c1.439-0.08,2.665-0.306,3.677-0.68l0.1,0.221c0.08-0.146,0.18-0.327,0.3-0.54
	c0.293-0.293,0.473-0.473,0.54-0.539c0.08-0.147,0.227-0.187,0.44-0.12c0.573,0.133,0.613,0.532,0.12,1.199
	c-0.28,0.492-0.6,0.779-0.959,0.859c-2.212,1.731-4.643,3.258-7.295,4.576c2.159-0.879,4.657-2.338,7.495-4.377l0.66,0.22
	c-2.198,2.679-4.836,4.931-7.914,6.756c3.504-1.972,6.322-4.157,8.454-6.556l0.32,0.1c-0.2,0.946-0.62,1.999-1.259,3.158
	c-0.493,0.933-0.913,1.579-1.259,1.938c0.56-0.426,1.299-1.619,2.219-3.577l0.62-1.52c0.359,0,0.686-0.106,0.979-0.319
	c-0.466,3.451-1.552,6.189-3.258,8.214c-1.918,2.319-4.104,2.985-6.556,1.999c-0.439,0.213-0.979,0.366-1.619,0.46
	c-1.159,0.227-2.025-0.094-2.598-0.96c-1.08,0.453-2.012,0.533-2.798,0.24c-0.799-0.347-1.092-1.093-0.879-2.238
	c-0.906-3.744,1.153-6.709,6.176-8.895c-0.213,0-0.393,0-0.539,0c-3.745-0.039-7.742-0.719-11.992-2.038l-1.1-0.439
	c-6.622-2.159-13.69-6.116-21.205-11.872c-3.158,1.612-5.809,2.425-7.955,2.438c2.598,1.266,5.25,0.526,7.955-2.219
	c-3.118,6.063-4.51,7.515-4.177,4.357c-0.493,0.146-1.246,0.153-2.259,0.02c-2.079-0.347-4.21-1.665-6.396-3.957
	c1.093,0.653,3.104,0.387,6.036-0.8c2.638-1.093,4.756-1.146,6.355-0.159c-2.025-1.572-4.057-3.278-6.096-5.117
	c-0.213-0.133-0.393-0.272-0.54-0.42c-2.905-2.638-5.876-5.489-8.914-8.553c-0.067-0.067-0.14-0.134-0.22-0.2
	c-1.119,3.024-1.679,4.177-1.679,3.458c-0.013-0.786-0.093-1.179-0.24-1.179c-0.28,0.213-0.593,0.427-0.939,0.64
	c-1.652,0.733-4.03,0.033-7.135-2.099c0.999,0.227,2.645-0.18,4.937-1.219c1.572-0.733,2.971-0.893,4.197-0.48
	c-6.236-5.823-10.186-9.333-11.852-10.533c-4.836-3.411-8.554-5.536-11.152-6.375c-6.623-2.239-12.298-2.012-17.028,0.679
	c1.079-0.866,2.445-1.486,4.097-1.858c1.066-0.373,2.498-0.6,4.297-0.68c2.652-0.173,5.276,0.126,7.875,0.899
	c-1.306-1.066-1.525-1.425-0.66-1.079c1.08,0.426,0.966-0.107-0.339-1.599c-1.292-1.372-2.338-1.905-3.138-1.599
	c0.706-0.44,1.712-0.446,3.018-0.02c0.653,0.28,1.232,0.56,1.739,0.839l0.54,0.44c0.586,0.413,1.02,0.979,1.299,1.699
	c0.213,0.506,0.26,0.939,0.14,1.299l-0.54,0.54c0.2-1.013,0.014-1.879-0.56-2.598c-0.373-0.413-1.246-1.079-2.618-1.999
	c2.465,1.839,3.451,3.371,2.958,4.597c-0.08,0-0.12,0.033-0.12,0.1c2.318,0.853,4.197,1.739,5.636,2.658
	c2.598,1.333,5.856,3.737,9.773,7.215c-0.946-1.346-1.092-1.805-0.439-1.379c0.933,0.706,0.853-0.013-0.24-2.158
	c-0.946-1.933-1.925-2.858-2.938-2.778c1.572-0.44,3.377,0.367,5.416,2.418c0.64,1.012,1,1.192,1.08,0.539
	c0.066-0.359,0.213,0.507,0.44,2.599c0.093,0.64-0.007,1.179-0.3,1.619c-0.067,0.133-0.32,0.272-0.76,0.419
	c0.56-1.079,0.593-2.192,0.1-3.338c-0.374-0.653-1.213-1.686-2.519-3.098c1.519,1.852,2.318,3.498,2.398,4.937
	c0.093,0.72-0.006,1.219-0.3,1.499c-0.146,0.093-0.287,0.14-0.419,0.14c1.226,1.132,2.531,2.372,3.917,3.717
	c3.331,3.278,6.376,6.163,9.134,8.654c-0.08-0.213,0.133-0.187,0.64,0.08c1.359,0.653,1.313-0.38-0.14-3.098
	c-1.386-2.731-2.798-4.018-4.237-3.858c1.359-0.439,3.011,0.014,4.956,1.359c1.026,0.64,1.859,1.313,2.499,2.019
	c0.453,0.506,0.786,0.866,0.999,1.08c0-0.067,0.034-0.173,0.1-0.32c0.64-1.16,0.959-1.379,0.959-0.66
	c0.026,2.225,0.113,3.658,0.26,4.297c0.146,1.079,0.006,1.838-0.42,2.278c-0.2,0.426-0.553,0.646-1.059,0.659
	c0.772-1.599,0.786-3.145,0.04-4.637c-0.493-1-1.652-2.499-3.478-4.497c2.105,2.638,3.245,4.963,3.418,6.976
	c0.066,1.013-0.067,1.731-0.4,2.158c2.305,2.052,4.29,3.758,5.956,5.116c7.888,5.97,14.963,9.934,21.226,11.893l1.739,0.619
	c1.585,0.347,2.878,0.619,3.877,0.819c-2.226-0.613-4.49-1.525-6.795-2.738c-9.474-4.863-15.436-11.852-17.888-20.965
	c-0.293-1.146-0.546-2.252-0.76-3.317c0.067,0.133,0.1,0.272,0.1,0.419c0.6,2.372,1.412,4.624,2.438,6.755
	c-0.08-0.213-0.12-0.426-0.12-0.64c-0.08-0.999,0.127-2.005,0.62-3.018l0.54-0.959c0.48-0.652,1.046-1.312,1.699-1.979
	c1.425-1.226,2.745-1.772,3.957-1.639c-1.212,0.08-2.239,1.346-3.078,3.797c-0.84,2.518-0.653,3.338,0.559,2.458
	c0.786-0.573,0.613,0.259-0.52,2.499c-0.413,0.799-0.979,1.158-1.699,1.078c-0.373-0.346-0.6-0.945-0.68-1.798
	c-0.226-1.652,0.333-3.711,1.679-6.176c-1.212,1.812-1.958,3.185-2.238,4.117c-0.347,1.372-0.08,2.665,0.799,3.877
	c-0.36,0-0.68-0.14-0.959-0.42c1.013,1.919,2.172,3.777,3.478,5.576c2.985,3.784,6.602,6.843,10.853,9.174
	C87.364,170.473,90.682,171.691,94.119,172.358z M48.071,144.657l-0.12-0.1c-2.132,1.32-4.097,2.019-5.896,2.099
	C44.147,147.562,46.152,146.896,48.071,144.657z M31.043,133.604c0.866-0.293,1.505-0.833,1.918-1.619
	c0.813,0.56,0.646,1.386-0.5,2.478c-0.146-0.227-0.899-0.153-2.258,0.22c-1.359,0.306-2.872-0.327-4.537-1.899
	c0.493,0.08,1.632-0.213,3.417-0.879c1.506-0.653,2.765-0.666,3.777-0.04c-1.639,1.092-3.071,1.679-4.297,1.759
	C29.364,133.904,30.19,133.898,31.043,133.604z M88.063,169.08c0.133-0.213,0.346-0.247,0.639-0.1c0.16,0.213,0.2,0.426,0.12,0.639
	h-0.1v0.12c-0.146,0.067-0.326,0.067-0.54,0c-0.146-0.146-0.22-0.293-0.22-0.439C87.963,169.233,87.997,169.16,88.063,169.08z
	 M90.002,170.459l-0.54,0.12c-0.133-0.146-0.133-0.293,0-0.439v-0.101h0.12c0.146-0.213,0.253-0.213,0.319,0
	c0.147,0,0.22,0.107,0.22,0.32C90.042,170.359,90.002,170.393,90.002,170.459z M83.826,166.002c-0.213,0.147-0.426,0.113-0.64-0.1
	c-0.36-0.293-0.433-0.586-0.22-0.88v-0.1c0.066-0.066,0.167-0.14,0.3-0.22c0.213-0.066,0.433-0.026,0.66,0.12
	c0.36,0.279,0.399,0.566,0.12,0.859C83.966,165.829,83.893,165.936,83.826,166.002z M82.727,164.063c-0.146,0-0.327-0.026-0.54-0.08
	c-0.28-0.227-0.313-0.479-0.1-0.76v-0.119c0.146-0.294,0.4-0.333,0.759-0.12c0.28,0.293,0.313,0.58,0.1,0.859
	C82.88,163.924,82.807,163.997,82.727,164.063z M78.81,134.584c-0.24-2.305-0.946-4.097-2.118-5.376
	c-1.226-1.492-2.912-1.945-5.057-1.359c-1.799,0.52-3.191,1.826-4.177,3.917c-0.906,2.092-1.386,4.397-1.439,6.916
	c0.213,0.359,0.253,0.792,0.12,1.299l-0.12,0.22c0.013,0.426,0.06,0.893,0.14,1.399c-0.08-0.44-0.126-0.873-0.14-1.299
	c-0.067,0-0.173,0.073-0.32,0.22c0.213-1.013-0.006-1.912-0.66-2.698c-0.439-0.493-1.313-1.132-2.618-1.918
	c2.479,1.852,3.464,3.391,2.958,4.617c-0.413,0.213-0.879,0.146-1.399-0.2c-0.44-0.36-0.766-0.646-0.979-0.859
	c-0.36-0.359-0.36-0.54,0-0.54c0.653,0,0.433-0.613-0.66-1.838c-1.092-1.212-2.032-1.666-2.818-1.359
	c0.72-0.439,1.726-0.453,3.018-0.04c0.573,0.213,1.119,0.466,1.639,0.759l0.639,0.52c0.506,0.507,0.866,0.973,1.08,1.399
	c0-0.213,0-0.426,0-0.64c0.453-6.036,2.251-9.546,5.396-10.533c2.372-0.799,4.137-0.453,5.296,1.04
	c1.093,1.212,1.825,2.971,2.199,5.276c0.159,0.853,0.2,1.712,0.12,2.578L78.81,134.584z M115.624,155.249c0.293,0,0.687,0,1.179,0
	c0.506,0.054,1.093,0.334,1.759,0.84c1.519,2.146,1.679,4.591,0.479,7.335c-1.12,2.599-3.005,4.403-5.656,5.416l-0.439-0.719
	c0.933-0.52,1.786-1.326,2.558-2.419c0.853-1.079,1.526-2.305,2.019-3.678c0.493-1.372,0.633-1.951,0.42-1.738
	c-0.973,3.251-2.639,5.716-4.997,7.395c1.772-3.478,2.645-6.295,2.618-8.454c-0.054,2.012-0.959,4.617-2.718,7.814
	c0.053-0.359,0.153-0.692,0.3-0.999c-0.28,0.52-0.526,0.993-0.74,1.419l-0.319-0.319c0.12-1.945,0.106-3.491-0.04-4.637l-0.14-0.76
	c0.013,1.52,0.027,2.491,0.04,2.918l-0.18,2.158l-0.879-0.1c0.12-1.879-0.333-4.424-1.359-7.635
	c-0.666-2.078-0.393-3.305,0.82-3.678c0.279-1.146,0.992-1.905,2.138-2.278C114.205,152.691,115.251,153.397,115.624,155.249z
	 M82.467,158.667c-0.213-0.12-0.253-0.333-0.12-0.64c0.293-0.293,0.546-0.326,0.76-0.1c0.226,0.133,0.267,0.347,0.12,0.64
	C82.947,158.847,82.694,158.881,82.467,158.667z M83.426,156.729c0.213-0.213,0.427-0.246,0.64-0.1
	c0.292,0.133,0.333,0.313,0.12,0.539c-0.147,0.36-0.367,0.394-0.66,0.101C83.247,157.122,83.213,156.941,83.426,156.729z
	 M82.387,161.146c0.36,0.227,0.393,0.479,0.1,0.76c-0.213,0.373-0.46,0.413-0.74,0.119c-0.359-0.213-0.4-0.459-0.12-0.739
	C81.921,160.992,82.174,160.945,82.387,161.146z M82.587,160.187c-0.2,0.213-0.454,0.253-0.76,0.119
	c-0.213-0.213-0.247-0.466-0.1-0.759c0.213-0.214,0.46-0.253,0.74-0.12C82.694,159.64,82.733,159.894,82.587,160.187z
	 M89.882,156.349c-0.133,0.213-0.273,0.247-0.42,0.1c-0.146-0.133-0.187-0.272-0.12-0.419c0.067-0.214,0.247-0.247,0.54-0.101
	C90.108,156.143,90.108,156.282,89.882,156.349z M88.143,155.409c0.147-0.146,0.293-0.146,0.44,0c0.213,0.12,0.246,0.261,0.1,0.42
	c-0.133,0.146-0.307,0.187-0.52,0.12C88.003,155.803,87.997,155.623,88.143,155.409z M88.843,158.847v0.221
	c0,0.146-0.073,0.146-0.22,0c-0.08-0.08-0.08-0.153,0-0.221H88.843z M91.081,157.188c-0.08,0.227-0.26,0.272-0.54,0.14
	c-0.146-0.146-0.146-0.293,0-0.439c0.146-0.213,0.287-0.247,0.42-0.1C91.188,156.908,91.228,157.042,91.081,157.188z
	 M86.964,155.729c-0.134,0.213-0.28,0.253-0.44,0.119c-0.213-0.146-0.247-0.286-0.1-0.419c0.067-0.227,0.247-0.273,0.54-0.14
	C87.111,155.437,87.111,155.583,86.964,155.729z M85.465,156.289c-0.134,0.28-0.313,0.313-0.54,0.1
	c-0.359-0.133-0.399-0.347-0.12-0.64c0.213-0.213,0.426-0.253,0.639-0.12C85.605,155.923,85.612,156.143,85.465,156.289z
	 M87.424,158.947c0,0.146-0.067,0.146-0.2,0c-0.146,0-0.146-0.066,0-0.2c0-0.146,0.067-0.146,0.2,0
	C87.57,158.747,87.57,158.813,87.424,158.947z M86.685,159.287c0,0.133-0.074,0.14-0.22,0.02c-0.146,0-0.146-0.073,0-0.22
	c0-0.146,0.073-0.153,0.22-0.02C86.817,159.067,86.817,159.141,86.685,159.287z M85.925,159.946v-0.319h0.22l0.1,0.22
	L85.925,159.946z M85.945,160.706h-0.22c-0.146-0.147-0.146-0.22,0-0.22l0.22-0.101C86.091,160.52,86.091,160.626,85.945,160.706z
	 M85.945,161.346c0,0.146-0.073,0.146-0.22,0c-0.146,0-0.146-0.073,0-0.221c0-0.133,0.074-0.133,0.22,0
	C86.091,161.125,86.091,161.199,85.945,161.346z M85.945,161.885l0.32-0.1c0.146,0.133,0.146,0.239,0,0.319
	c-0.067,0.147-0.173,0.147-0.32,0V161.885z M86.824,162.844l-0.32,0.121c-0.147-0.147-0.18-0.294-0.1-0.44
	c0.12-0.133,0.26-0.14,0.42-0.02C86.971,162.651,86.971,162.765,86.824,162.844z M85.685,167.281c-0.08,0.066-0.153,0.173-0.22,0.32
	c-0.213,0.146-0.466,0.106-0.76-0.12c-0.28-0.2-0.36-0.44-0.24-0.72c0-0.08,0.04-0.16,0.12-0.24c0.066-0.066,0.14-0.1,0.22-0.1
	c0.213-0.227,0.426-0.227,0.639,0C85.872,166.702,85.952,166.988,85.685,167.281z M87.404,168.66h-0.1l-0.12,0.101
	c-0.28,0.146-0.493,0.152-0.64,0.02c-0.293-0.146-0.366-0.327-0.22-0.54c0-0.066,0.041-0.14,0.12-0.22c0-0.066,0.034-0.1,0.1-0.1
	c0.146-0.307,0.36-0.313,0.64-0.021C87.543,168.114,87.617,168.367,87.404,168.66z M90.762,170.679c0.146-0.066,0.253-0.066,0.319,0
	l0.12,0.2v0.1l-0.12,0.14h-0.319c-0.067-0.08-0.1-0.152-0.1-0.22C90.662,170.832,90.695,170.759,90.762,170.679z M117.583,166.762
	c1.639-0.879,2.718-0.566,3.237,0.939c0.853-0.08,1.393,0.273,1.619,1.06c0.146,0.572,0.113,1.039-0.1,1.398
	c-0.147,0.227-0.107,0.659,0.12,1.3c0.146,0.572-0.066,1.086-0.64,1.538c-0.706,1.359-1.992,1.612-3.857,0.76
	c-2.172-1.266-3.691-2.146-4.557-2.639l-0.02-0.22l0.12-0.319l4.876,1.898c-2.318-0.985-3.73-1.659-4.237-2.019
	c1.239,0.427,2.651,0.666,4.237,0.72c-1.452-0.133-2.685-0.406-3.697-0.819c1.373-0.16,2.271-0.347,2.698-0.56
	c-0.719,0-1.719,0.08-2.998,0.239c0.106-0.026,0.893-0.359,2.358-0.999c0.919-0.439,0.666-0.366-0.76,0.22
	c-0.933,0.373-1.759,0.633-2.478,0.779l-0.12-0.539v-0.22C114.252,168.987,115.651,168.147,117.583,166.762z M111.547,168.121
	c0.146,0,0.146,0.106,0,0.319c0,0.146-0.041,0.18-0.121,0.1c-0.213,0-0.213-0.106,0-0.319L111.547,168.121z M110.388,169.96
	c-0.293-0.147-0.333-0.394-0.12-0.74c0.133-0.293,0.233-0.439,0.3-0.439c0.306,0.133,0.386,0.387,0.24,0.76
	C110.661,169.819,110.521,169.96,110.388,169.96z M109.648,172.438c0.146-0.213,0.253-0.286,0.32-0.22
	c0.293,0.146,0.326,0.44,0.1,0.88c-0.12,0.359-0.293,0.466-0.52,0.319C109.255,173.271,109.289,172.944,109.648,172.438z
	 M110.927,172.558c0.147-0.013,0.147,0.093,0,0.32l-0.1,0.1c-0.213,0-0.213-0.106,0-0.319
	C110.828,172.591,110.861,172.558,110.927,172.558z M112.766,172.638l0.32-0.32c1.732,0.547,3.185,1.753,4.357,3.618
	c1.159,1.998,1.139,3.65-0.061,4.956c-0.066,0.866-0.239,1.333-0.52,1.399c-0.506,0.08-0.833,0.187-0.979,0.319
	c-0.493,1.319-1.286,1.366-2.378,0.141c-0.213-0.2-0.426-0.3-0.64-0.3c-0.427,0-0.786-0.073-1.079-0.221
	c-0.8-0.492-1.206-1.565-1.219-3.218c-0.067-0.639,0.026-2.038,0.28-4.196l0.32-0.141l0.759-0.859
	c0.146,0.933,0.153,1.905,0.02,2.918c0.146-0.359,0.213-1.398,0.2-3.117l0.1-0.12c0.733,1.785,1.252,3.537,1.559,5.257
	c0.066,0.079,0.02-0.42-0.14-1.499c-0.227-1.293-0.6-2.652-1.119-4.077c1.239,1.492,2.165,3.71,2.778,6.654
	c-0.453-2.73-1.226-4.876-2.318-6.435c0.506,0.133,1.153,0.732,1.939,1.799c0.653,0.786,1.092,1.392,1.319,1.818
	c-0.52-1.146-1.286-2.219-2.298-3.218c-0.506-0.493-0.939-0.807-1.299-0.939L112.766,172.638z M108.909,174.496l0.1-0.439
	c0.227-0.213,0.373-0.286,0.44-0.22c0.213,0.227,0.18,0.406-0.1,0.54C109.202,174.59,109.056,174.63,108.909,174.496z
	 M207.92,171.658c3.451-0.746,6.743-2.032,9.874-3.857c4.224-2.479,7.788-5.636,10.692-9.474c1.358-1.745,2.531-3.591,3.518-5.536
	h-0.1c-0.294,0.294-0.62,0.439-0.979,0.439c0.933-1.226,1.172-2.518,0.719-3.877c-0.213-0.853-0.979-2.212-2.298-4.077
	c1.386,2.438,2.019,4.483,1.898,6.135c-0.066,0.853-0.279,1.459-0.64,1.818c-0.786,0.014-1.365-0.332-1.738-1.039
	c-1.093-2.145-1.279-2.978-0.56-2.498c1.238,0.933,1.379,0.107,0.419-2.478c-0.825-2.438-1.885-3.684-3.178-3.737
	c1.227-0.227,2.565,0.3,4.018,1.579c0.732,0.64,1.346,1.286,1.839,1.939l0.439,0.939c0.52,1.013,0.786,2.019,0.8,3.018
	c0,0.147,0,0.293,0,0.44c0.839-2.105,1.539-4.304,2.099-6.596c0.12-0.546,0.233-1.073,0.34-1.579
	c-0.228,1.359-0.514,2.852-0.86,4.477c-2.278,9.154-8.107,16.249-17.487,21.286c-2.852,1.532-5.643,2.638-8.374,3.317
	c1.506-0.307,3.338-0.753,5.496-1.339l1.719-0.66c6.155-1.998,13.117-6.089,20.886-12.271c1.639-1.372,3.638-3.111,5.996-5.216
	c-0.373-0.493-0.521-1.213-0.44-2.159c0.12-2.012,1.213-4.357,3.278-7.035c-1.853,1.972-2.991,3.491-3.418,4.557
	c-0.772,1.519-0.76,3.064,0.04,4.637c-0.573-0.147-0.939-0.36-1.1-0.64c-0.426-0.413-0.539-1.166-0.34-2.259
	c0.08-0.573,0.107-2.012,0.08-4.317c0-0.719,0.327-0.506,0.979,0.64c0.08,0.146,0.12,0.26,0.12,0.34
	c0.213-0.227,0.526-0.586,0.939-1.079c0.719-0.733,1.538-1.432,2.458-2.099c1.945-1.373,3.598-1.852,4.957-1.439
	c-1.359-0.133-2.745,1.173-4.157,3.918c-1.426,2.745-1.453,3.79-0.08,3.138c0.346-0.227,0.486-0.16,0.42,0.2
	c2.704-2.678,5.77-5.723,9.193-9.134c1.346-1.372,2.658-2.638,3.937-3.797c-0.213,0-0.393-0.04-0.539-0.12
	c-0.213-0.279-0.28-0.779-0.2-1.499c0.054-1.439,0.786-3.098,2.199-4.976c-1.279,1.452-2.092,2.498-2.438,3.138
	c-0.493,1.159-0.453,2.272,0.12,3.337c-0.427-0.12-0.68-0.253-0.76-0.399c-0.28-0.8-0.394-1.339-0.34-1.619
	c0.146-0.652,0.286-1.519,0.42-2.598c0.08,0.653,0.473,0.466,1.179-0.56c0-0.213,0.566-0.72,1.699-1.519
	c1.372-0.946,2.558-1.279,3.558-1c-1-0.066-1.959,0.88-2.878,2.838c-0.986,2.158-1.053,2.871-0.2,2.139
	c0.64-0.426,0.54,0.047-0.3,1.419c3.838-3.558,7.009-6.029,9.514-7.415c1.572-1.026,3.464-1.945,5.676-2.758
	c-0.066-0.067-0.133-0.1-0.199-0.1c-0.08-0.293-0.021-0.726,0.18-1.299c0.359-1.08,1.292-2.199,2.798-3.358
	c-1.359,0.879-2.219,1.566-2.578,2.059c-0.64,0.733-0.847,1.599-0.62,2.598l-0.539-0.52c-0.014-0.652,0.013-1.086,0.08-1.299
	c0.213-0.52,0.639-1.099,1.279-1.739l0.639-0.439c0-0.213,0.58-0.507,1.739-0.879c1.212-0.44,2.179-0.447,2.897-0.02
	c-0.786-0.28-1.818,0.266-3.098,1.639c-1.278,1.519-1.386,2.059-0.319,1.619c0.786-0.293,0.572,0.067-0.64,1.08
	c2.571-0.813,5.223-1.159,7.954-1.039c1.732,0.066,3.178,0.273,4.337,0.62c1.586,0.346,2.912,0.939,3.978,1.779
	c-4.677-2.612-10.346-2.738-17.009-0.38c-2.584,0.893-6.269,3.084-11.052,6.575c-2.212,1.732-6.096,5.356-11.652,10.873
	c1.159-0.52,2.565-0.426,4.218,0.28c2.305,0.999,3.964,1.386,4.977,1.159c-3.078,2.172-5.443,2.905-7.096,2.199
	c-0.572-0.347-0.906-0.553-0.999-0.62c-0.133,0-0.193,0.393-0.18,1.179c0,0.72-0.553-0.419-1.659-3.417
	c-0.146,0.067-0.246,0.14-0.3,0.22c-2.852,3.038-5.669,5.83-8.454,8.375c-0.293,0.279-0.58,0.566-0.859,0.859
	c-2.039,1.839-4.051,3.558-6.036,5.156c1.612-1.053,3.751-1.046,6.416,0.021c3.024,1.052,5.069,1.278,6.136,0.679
	c-2.198,2.332-4.304,3.685-6.315,4.058c-1.586-0.133-2.379-0.126-2.379,0.02c0.387,3.092-1.025,1.666-4.237-4.276
	c2.759,2.705,5.424,3.397,7.995,2.078c-2.078,0.027-4.704-0.766-7.874-2.378c-7.462,5.929-14.504,10.046-21.126,12.352l-1.079,0.439
	c-4.157,1.398-8.067,2.151-11.732,2.259c-0.213,0.013-0.386,0.02-0.52,0.02c4.97,2.105,7.002,5.029,6.096,8.774
	c0.307,1.146,0.027,1.898-0.839,2.258c-0.786,0.307-1.719,0.214-2.799-0.279c-0.506,0.933-1.365,1.299-2.577,1.099
	c-1.013-0.359-1.553-0.506-1.619-0.439c-2.358,1.039-4.523,0.413-6.496-1.879c-1.799-2.052-2.938-4.77-3.417-8.154
	c0.227,0.227,0.52,0.34,0.879,0.34l0.66,1.479c0.959,1.945,1.725,3.124,2.298,3.537c-0.359-0.359-0.799-0.999-1.319-1.919
	c-0.652-1.226-1.092-2.305-1.318-3.237h0.319c2.172,2.358,5.063,4.49,8.674,6.396c-3.104-1.772-5.815-3.978-8.134-6.615l0.639-0.2
	c2.972,1.985,5.497,3.392,7.575,4.217c-2.665-1.266-5.116-2.744-7.355-4.437l0.101-0.12c-0.359-0.066-0.72-0.313-1.079-0.739
	c-0.507-0.652-0.473-1.053,0.1-1.199c0.28-0.066,0.606,0.153,0.979,0.66c0.146,0.133,0.293,0.266,0.439,0.399v-0.1
	c1,0.359,2.219,0.565,3.657,0.619c-1.292-0.267-2.512-0.619-3.657-1.06l-0.02-0.539c-0.653-0.2-1.299-0.406-1.938-0.62h-0.12
	c-0.134-0.066-0.24-0.1-0.32-0.1l-0.859-0.42c0,0.08-0.073,0.153-0.22,0.22c-0.066,0.214-0.206,0.14-0.42-0.22
	c0-0.146,0-0.253,0-0.32l-0.56-0.22l-0.119-0.1c0-0.08-0.033-0.12-0.101-0.12l-0.1-0.319c0.279,0.146,0.566,0.293,0.859,0.439
	c0-0.08,0.033-0.153,0.1-0.22s0.174,0.04,0.32,0.319l0.14,0.12c0.133,0.066,0.313,0.133,0.54,0.2c-0.16-0.427-0.061-0.753,0.3-0.979
	c0.146-0.08,0.326,0.06,0.539,0.42c0.227,0.439,0.34,0.766,0.34,0.979c0.146,0,0.286,0.034,0.42,0.101
	c-0.44-0.72-0.407-1.22,0.1-1.499c0.214-0.146,0.5,0.06,0.859,0.62c-0.066-0.214-0.213-0.42-0.439-0.62l-0.1-0.319
	c1.585-0.307,3.271-0.44,5.056-0.4c-1.358-0.12-3.044-0.1-5.056,0.061l-0.44-0.52c0.146,0.213,0.187,0.353,0.12,0.419
	c-0.213,0.36-0.499,0.394-0.859,0.101c-0.146-0.134-0.253-0.38-0.319-0.74c-0.094-0.293-0.101-0.513-0.021-0.659
	c0.066-0.133,0.173-0.167,0.32-0.1l-0.54-0.76l-0.319-0.2l-0.34-0.1c0.08,0.146,0.152,0.293,0.22,0.439
	c0.213,0.573,0.14,0.933-0.22,1.079c-0.213,0.067-0.427-0.152-0.64-0.659c-0.066-0.146-0.066-0.326,0-0.54
	c0.066-0.213,0.173-0.319,0.319-0.319l-0.22-0.1c0.107-3.811,1.546-7.382,4.317-10.713c0.426-0.506,0.853-0.946,1.278-1.319
	c0.08-0.146,0.154-0.22,0.221-0.22c2.291-2.092,4.33-2.571,6.115-1.438c2.226-0.521,4.064-0.394,5.517,0.379
	c0.439,0.28,0.799,0.6,1.079,0.96c0.08,0.066,0.187,0.173,0.319,0.319c0.374,0.706,0.38,1.566,0.021,2.579
	c0.093,0.065,0.213,0.14,0.359,0.22l0.101,0.1c0.506,0.293,1.332,0.68,2.479,1.159c1.372,0.853,1.998,2.211,1.878,4.077
	c0.066,0.08,0.027,0.193-0.12,0.34c-0.133,0.853-0.952,1.686-2.458,2.498c-0.772,0.439-1.52,0.766-2.238,0.979
	c1.825,3.291,0.513,5.03-3.938,5.217c-5.609-0.521-9.387-0.847-11.332-0.979c0.08,0.146,0.193,0.253,0.34,0.319
	c2.225,0.413,4.197,0.939,5.916,1.579c1.079-0.014,2.158-0.061,3.237-0.141c0.786-0.079,1.572-0.199,2.358-0.359
	c-0.279,0.146-0.6,0.26-0.959,0.34l0.02,0.2C206.455,172.204,207.201,171.951,207.92,171.658z M211.378,170.239l-0.12,0.1h-0.2
	l-0.119-0.1l-0.021-0.12c-0.066-0.066-0.066-0.14,0-0.22c0.147-0.133,0.294-0.133,0.439,0L211.378,170.239z M212.218,169.779
	c-0.08-0.066-0.153-0.093-0.22-0.08v-0.119c-0.067-0.147-0.033-0.293,0.1-0.44c0.146-0.146,0.326-0.113,0.539,0.101
	c0,0.066,0.041,0.14,0.12,0.22c-0.079,0.066-0.153,0.14-0.22,0.22C212.391,169.746,212.284,169.779,212.218,169.779z
	 M213.517,169.02c-0.08-0.066-0.153-0.14-0.22-0.22c-0.146-0.133-0.113-0.347,0.1-0.639c0.293-0.147,0.473-0.107,0.54,0.119
	c0.08,0.067,0.153,0.173,0.22,0.32c0,0.066-0.073,0.173-0.22,0.319C213.723,168.987,213.583,169.02,213.517,169.02z
	 M216.714,166.622c-0.133-0.08-0.239-0.146-0.319-0.2c-0.279-0.293-0.247-0.586,0.1-0.88c0.214-0.146,0.46-0.146,0.74,0l0.119,0.101
	c0.08,0.066,0.12,0.14,0.12,0.22c0.146,0.359,0.073,0.613-0.22,0.76C217.041,166.688,216.861,166.688,216.714,166.622z
	 M215.535,167.062c0.066,0,0.1,0.04,0.1,0.12c0.08,0.066,0.12,0.133,0.12,0.199c0.066,0.146,0,0.327-0.2,0.54
	c-0.213,0.146-0.426,0.187-0.639,0.12c-0.08-0.08-0.16-0.153-0.24-0.22c-0.293-0.28-0.26-0.533,0.1-0.76
	C215.068,166.849,215.322,166.849,215.535,167.062z M218.313,165.103c-0.147-0.066-0.287-0.173-0.42-0.319
	c-0.227-0.213-0.193-0.5,0.1-0.859c0.214-0.146,0.467-0.193,0.76-0.14c0.066,0.08,0.14,0.152,0.22,0.22
	c0.066,0.08,0.101,0.152,0.101,0.22c0.066,0.293-0.008,0.546-0.221,0.76C218.64,165.143,218.46,165.183,218.313,165.103z
	 M271.157,132.825c-1.293-0.347-2.006-0.453-2.14-0.32c-0.226,0.24-0.525,0-0.899-0.719c-0.359-0.72-0.286-1.259,0.221-1.619
	c0.506,0.773,1.152,1.306,1.938,1.599c0.866,0.267,1.732,0.22,2.598-0.14c-1.226,0.013-2.704-0.513-4.437-1.579
	c1-0.652,2.252-0.666,3.758-0.04c1.812,0.639,2.971,0.913,3.478,0.819C274.035,132.438,272.529,133.105,271.157,132.825z
	 M253.688,142.898c-0.08,0.08-0.152,0.153-0.22,0.22c1.959,2.211,3.978,2.838,6.056,1.878
	C257.646,144.943,255.7,144.244,253.688,142.898z M184.356,161.745c0.493,1.359,1.18,2.571,2.059,3.638
	c0.733,0.933,1.605,1.719,2.618,2.358l-0.199,0.42l-0.22,0.339c-2.665-0.985-4.591-2.765-5.776-5.336
	c-1.239-2.718-1.112-5.163,0.38-7.335c0.64-0.506,1.206-0.8,1.698-0.88c0.294-0.065,0.687-0.072,1.18-0.02
	c0.492-1.799,1.532-2.524,3.118-2.179c1.158,0.28,1.892,1.033,2.198,2.259c1.212,0.333,1.506,1.546,0.879,3.638
	c-0.985,3.237-1.392,5.796-1.219,7.675l-0.859,0.1l-0.24-2.139c-0.014-0.427,0.014-1.398,0.08-2.918c0-0.72-0.066-0.466-0.2,0.76
	c-0.133,1.159-0.119,2.672,0.04,4.537l-0.319,0.419c-0.359-0.719-0.666-2.012-0.92-3.877c-0.213-1.572-0.293-3.051-0.239-4.437
	l-0.1,1.419c0.093,2.092,0.366,4.25,0.819,6.476c-1.106-1.999-1.732-3.178-1.879-3.538c0.373,1.227,0.966,2.618,1.778,4.178
	c-2.385-1.626-4.097-4.051-5.136-7.275C183.684,159.8,183.837,160.373,184.356,161.745z M176.702,163.864
	c0.227,0.199,0.159,0.306-0.2,0.319c-0.213,0.227-0.319,0.159-0.319-0.2c-0.014-0.227,0.053-0.34,0.199-0.34
	C176.596,163.431,176.702,163.504,176.702,163.864z M125.297,163.464l0.22,0.32c-0.146,0.213-0.292,0.286-0.439,0.22
	c-0.213,0-0.247-0.14-0.1-0.42C124.978,163.291,125.084,163.251,125.297,163.464z M152.858,172.258
	c-0.507,0.16-0.833-0.013-0.979-0.52c-0.279-0.573-0.106-0.933,0.52-1.079c0.507-0.293,0.84-0.12,1,0.52
	C153.611,171.604,153.432,171.965,152.858,172.258z M149.741,171.658c-0.227,0.493-0.586,0.673-1.079,0.54
	c-0.506-0.214-0.687-0.566-0.54-1.06c0.12-0.507,0.473-0.692,1.059-0.56C149.688,170.792,149.874,171.151,149.741,171.658z
	 M155.956,170.519c0.507-0.146,0.84,0.033,1,0.54c0.146,0.347,0,0.666-0.44,0.959c-0.506,0.147-0.826-0.033-0.959-0.539
	C155.41,171.118,155.543,170.799,155.956,170.519z M141.027,174.416c0.146-0.426,0.433-0.572,0.859-0.439
	c0.506,0.146,0.686,0.467,0.54,0.959c-0.28,0.587-0.6,0.74-0.959,0.46C140.88,175.249,140.734,174.923,141.027,174.416z
	 M141.167,178.094c0.147-0.439,0.433-0.593,0.86-0.46c0.506,0.213,0.686,0.54,0.539,0.979c-0.28,0.573-0.6,0.72-0.959,0.44
	C141.034,178.92,140.887,178.601,141.167,178.094z M144.625,178.594c0.146-0.439,0.466-0.587,0.959-0.439
	c0.573,0.133,0.719,0.459,0.44,0.979c-0.134,0.573-0.413,0.713-0.84,0.42C144.664,179.42,144.478,179.1,144.625,178.594z
	 M144.464,174.916c0.147-0.427,0.473-0.566,0.979-0.42c0.573,0.134,0.719,0.453,0.439,0.96c-0.133,0.439-0.42,0.586-0.859,0.439
	C144.531,175.749,144.344,175.422,144.464,174.916z M145.503,170.499c0.507,0.133,0.693,0.46,0.56,0.979
	c-0.213,0.426-0.533,0.566-0.959,0.42c-0.572-0.134-0.719-0.453-0.439-0.96C144.797,170.513,145.077,170.366,145.503,170.499z
	 M141.546,171.418c-0.44-0.146-0.593-0.473-0.46-0.979c0.147-0.427,0.473-0.58,0.979-0.46c0.426,0.146,0.573,0.473,0.439,0.979
	C142.439,171.385,142.119,171.538,141.546,171.418z M155.896,174.496c0.427-0.066,0.746,0.113,0.959,0.54
	c0.16,0.439-0.013,0.766-0.52,0.979c-0.493,0.146-0.813-0.033-0.959-0.54C155.217,175.036,155.39,174.709,155.896,174.496z
	 M152.799,176.255c-0.587,0.146-0.946-0.026-1.08-0.52c-0.159-0.586,0.014-0.946,0.52-1.079c0.573-0.307,0.934-0.134,1.08,0.52
	C153.465,175.669,153.291,176.028,152.799,176.255z M149.681,179.313c-0.133,0.573-0.486,0.747-1.059,0.52
	c-0.573-0.119-0.72-0.466-0.44-1.039c0.133-0.506,0.493-0.692,1.079-0.56C149.754,178.594,149.894,178.953,149.681,179.313z
	 M149.001,174.557c0.573,0.293,0.76,0.652,0.56,1.079c-0.146,0.506-0.506,0.686-1.079,0.539c-0.506-0.267-0.659-0.619-0.459-1.059
	C148.168,174.609,148.495,174.423,149.001,174.557z M152.938,179.912c-0.507,0.16-0.872-0.013-1.099-0.52
	c-0.147-0.572,0.033-0.933,0.539-1.079c0.572-0.159,0.933,0.014,1.079,0.52C153.618,179.34,153.445,179.699,152.938,179.912z
	 M156.036,178.273c0.439-0.213,0.767-0.066,0.979,0.439c0.16,0.48-0.013,0.8-0.52,0.96c-0.439,0.066-0.772-0.113-1-0.54
	C155.363,178.707,155.543,178.42,156.036,178.273z M134.471,176.315c0.147-0.36,0.4-0.474,0.76-0.34
	c0.359,0.146,0.466,0.359,0.32,0.64c-0.147,0.359-0.4,0.479-0.76,0.359C134.432,176.828,134.324,176.608,134.471,176.315z
	 M137.709,177.255c0.133-0.44,0.42-0.587,0.859-0.44c0.36,0.213,0.473,0.5,0.34,0.859c-0.146,0.439-0.4,0.587-0.759,0.439
	C137.722,177.968,137.576,177.681,137.709,177.255z M129.275,174.517c-0.28-0.134-0.353-0.307-0.22-0.52
	c0-0.227,0.146-0.34,0.439-0.34c0.28,0.146,0.386,0.326,0.32,0.539C129.668,174.557,129.488,174.663,129.275,174.517z
	 M131.773,175.795c-0.36-0.146-0.473-0.359-0.339-0.639c0.146-0.293,0.359-0.4,0.639-0.32c0.293,0.134,0.374,0.347,0.24,0.64
	c0,0.146-0.073,0.253-0.22,0.319C132.026,175.875,131.92,175.875,131.773,175.795z M129.674,170.539
	c-0.08,0.213-0.26,0.32-0.539,0.32c-0.213-0.067-0.32-0.247-0.32-0.54c0.133-0.213,0.307-0.32,0.52-0.32
	C129.562,170.146,129.674,170.326,129.674,170.539z M131.313,171.498c0.133-0.293,0.346-0.406,0.64-0.339
	c0.28,0.146,0.353,0.366,0.22,0.659c-0.147,0.279-0.326,0.386-0.54,0.319C131.273,171.991,131.167,171.778,131.313,171.498z
	 M126.996,172.718c0.147-0.294,0.287-0.367,0.42-0.22c0.293,0.146,0.367,0.293,0.22,0.439c0.013,0.279-0.121,0.347-0.4,0.199
	C126.943,173.137,126.863,172.997,126.996,172.718z M124.938,171.338c0.08-0.146,0.227-0.22,0.439-0.22
	c0.147,0.147,0.18,0.294,0.1,0.44c0,0.279-0.106,0.313-0.32,0.1C125.011,171.658,124.938,171.552,124.938,171.338z M127.516,169.26
	c0,0.293-0.146,0.366-0.439,0.22c-0.28,0-0.353-0.14-0.22-0.419c0.133-0.294,0.28-0.367,0.439-0.221
	C127.589,168.84,127.663,168.98,127.516,169.26z M127.476,164.843c0.147,0,0.22,0.146,0.22,0.44
	c-0.146,0.279-0.293,0.353-0.439,0.22c-0.293,0-0.367-0.147-0.22-0.44C127.037,164.77,127.183,164.696,127.476,164.843z
	 M125.238,167.461c0.213,0,0.246,0.141,0.1,0.42c0,0.293-0.107,0.333-0.32,0.12c-0.293,0-0.366-0.146-0.22-0.439
	C124.798,167.348,124.945,167.314,125.238,167.461z M129.754,166.542c0,0.227-0.18,0.34-0.54,0.34c-0.28-0.146-0.36-0.327-0.24-0.54
	c0.146-0.293,0.326-0.399,0.54-0.319C129.808,166.155,129.888,166.328,129.754,166.542z M131.693,168.141
	c-0.213-0.066-0.319-0.279-0.319-0.64c0.146-0.359,0.36-0.466,0.639-0.319c0.36,0.146,0.466,0.359,0.32,0.64
	C132.266,168.034,132.053,168.141,131.693,168.141z M137.569,173.577c0.133-0.427,0.387-0.566,0.76-0.42
	c0.426,0.146,0.573,0.433,0.439,0.859c-0.146,0.427-0.399,0.566-0.759,0.42C137.569,174.303,137.422,174.017,137.569,173.577z
	 M137.649,169.6c0.133-0.426,0.42-0.573,0.859-0.439c0.427,0.146,0.566,0.433,0.42,0.859c-0.133,0.439-0.42,0.586-0.859,0.439
	C137.709,170.166,137.569,169.88,137.649,169.6z M134.671,173.297c-0.36-0.146-0.473-0.399-0.339-0.76
	c0.133-0.359,0.379-0.466,0.739-0.319c0.36,0.133,0.466,0.38,0.32,0.74C135.271,173.317,135.031,173.431,134.671,173.297z
	 M134.491,168.561c0.146-0.293,0.366-0.406,0.66-0.34c0.359,0.146,0.473,0.399,0.339,0.76c0,0.346-0.22,0.459-0.659,0.34
	C134.484,169.174,134.371,168.92,134.491,168.561z M184.396,166.482c0.933,0.492,2.339,1.306,4.218,2.438v0.22l-0.101,0.54
	l-2.479-0.739c-0.506-0.2-0.866-0.333-1.079-0.4l2.679,1.159c-0.786,0.067-1.572,0.033-2.358-0.1l2.158,0.42
	c-0.933,0.399-1.999,0.687-3.198,0.859c1.399-0.16,2.605-0.413,3.618-0.76c-0.493,0.44-1.319,0.913-2.479,1.419l3.238-1.319
	l0.119,0.32l-0.1,0.22c-1.932,1.372-3.431,2.285-4.497,2.738c-1.799,0.866-3.058,0.626-3.777-0.72
	c-0.666-0.439-0.926-0.946-0.779-1.519c0.199-0.72,0.267-1.146,0.199-1.279c-0.213-0.36-0.253-0.826-0.119-1.399
	c0.213-0.799,0.713-1.159,1.499-1.079C181.652,165.969,182.731,165.629,184.396,166.482z M174.464,165.723l-0.54-0.22
	c0-0.214,0.106-0.394,0.32-0.54l0.419,0.2L174.464,165.723z M176.642,167.861l-0.22,0.319c-0.199,0.213-0.306,0.14-0.319-0.22
	c-0.227-0.213-0.193-0.32,0.1-0.32C176.349,167.574,176.495,167.647,176.642,167.861z M174.063,168.96c0.293,0,0.44,0.106,0.44,0.32
	c0.133,0.133,0.06,0.272-0.221,0.419c-0.213,0-0.359-0.066-0.439-0.199C173.711,169.273,173.784,169.094,174.063,168.96z
	 M174.004,173.157c-0.146-0.213-0.08-0.393,0.2-0.54c0.279,0,0.426,0.106,0.439,0.32c0.146,0.133,0.073,0.279-0.22,0.439
	C174.291,173.444,174.15,173.37,174.004,173.157z M176.242,171.738c-0.066-0.146-0.033-0.293,0.1-0.439
	c0.227,0,0.374,0.073,0.44,0.22l-0.22,0.319C176.349,172.051,176.242,172.018,176.242,171.738z M184.836,180.592
	c-1.238-1.279-1.252-2.931-0.039-4.956c1.065-1.879,2.451-3.111,4.156-3.698l0.44,0.32v0.22l-1.279,0.979
	c-0.786,0.866-1.426,1.766-1.919,2.698c0.214-0.36,0.54-0.786,0.979-1.279c0.772-1.093,1.445-1.712,2.019-1.858
	c-0.786,1.146-1.419,2.658-1.898,4.537c0.546-1.879,1.286-3.465,2.219-4.757c-0.707,2.225-1.086,4.097-1.14,5.615
	c0.267-1.731,0.753-3.497,1.459-5.296l0.12,0.12c0.013,1.719,0.093,2.751,0.239,3.098c-0.146-0.986-0.12-1.952,0.08-2.898v0.101
	c0.146,0.359,0.36,0.612,0.64,0.76l0.32,0.1c0.759,4.171,0.499,6.648-0.78,7.435c-0.279,0.16-0.6,0.24-0.959,0.24
	c-0.213,0-0.434,0.106-0.659,0.319c-0.573,0.587-1,0.92-1.279,1c-0.439,0.066-0.84-0.294-1.199-1.08
	c-0.134-0.146-0.453-0.253-0.959-0.319C185.103,181.925,184.916,181.458,184.836,180.592z M169.627,167.381
	c0.359-0.146,0.539-0.073,0.539,0.221c0.147,0.346,0.041,0.56-0.319,0.639c-0.2,0.147-0.38,0.04-0.539-0.319
	C169.16,167.562,169.267,167.381,169.627,167.381z M172.105,166.162c0.293-0.013,0.473,0.093,0.539,0.32
	c0.147,0.213,0.073,0.399-0.22,0.559c-0.359,0-0.54-0.113-0.54-0.339C171.739,166.488,171.813,166.309,172.105,166.162z
	 M167.169,168.7c0.146,0.347,0,0.593-0.44,0.739c-0.279,0.146-0.492,0.04-0.64-0.319c-0.146-0.347-0.039-0.6,0.32-0.76
	C166.756,168.228,167.009,168.341,167.169,168.7z M166.329,172.358c0.28-0.08,0.493,0.026,0.64,0.319
	c0.16,0.359,0.06,0.612-0.3,0.759c-0.359,0.147-0.613,0.047-0.76-0.3C165.896,172.697,166.036,172.438,166.329,172.358z
	 M170.106,171.679c0.066,0.226-0.047,0.406-0.34,0.539c-0.279,0.146-0.493,0.04-0.64-0.319c0-0.214,0.107-0.394,0.32-0.54
	C169.807,171.292,170.026,171.398,170.106,171.679z M171.706,170.699c-0.014-0.214,0.093-0.394,0.319-0.54
	c0.28,0,0.459,0.101,0.539,0.3c0.014,0.293-0.093,0.479-0.319,0.56C172.032,171.019,171.852,170.912,171.706,170.699z
	 M159.514,170.039c0.507-0.146,0.833,0.034,0.979,0.54c0.16,0.439-0.014,0.767-0.52,0.979c-0.439,0.146-0.727-0.027-0.859-0.521
	C158.954,170.679,159.088,170.346,159.514,170.039z M162.651,170.14c-0.146-0.44-0.006-0.733,0.42-0.88
	c0.427-0.146,0.713-0.007,0.859,0.42s0.007,0.72-0.419,0.88C163.085,170.706,162.799,170.565,162.651,170.14z M163.751,173.677
	c0.146,0.427,0.007,0.72-0.42,0.88c-0.359,0.133-0.612-0.014-0.76-0.44c-0.146-0.426,0-0.713,0.44-0.858
	C163.371,173.11,163.618,173.25,163.751,173.677z M163.911,177.334c0.146,0.427,0,0.72-0.44,0.88c-0.359,0.146-0.605,0-0.739-0.439
	c-0.08-0.28,0.054-0.566,0.4-0.859C163.491,176.781,163.751,176.921,163.911,177.334z M159.594,177.794
	c0.439-0.28,0.727-0.133,0.859,0.439c0.227,0.507,0.087,0.833-0.42,0.979c-0.492,0.146-0.819-0.026-0.979-0.52
	C158.907,178.254,159.088,177.954,159.594,177.794z M159.454,174.036c0.426-0.146,0.713,0.034,0.859,0.54
	c0.159,0.359,0.02,0.68-0.42,0.959c-0.493,0.16-0.819-0.013-0.979-0.52C158.768,174.59,158.947,174.264,159.454,174.036z
	 M169.607,175.036c0.346-0.08,0.559,0.026,0.639,0.319c0.067,0.146,0.067,0.253,0,0.32c-0.066,0.146-0.173,0.22-0.319,0.22
	c-0.293,0.146-0.513,0.073-0.66-0.22C169.267,175.383,169.38,175.169,169.607,175.036z M171.846,174.356
	c0-0.279,0.106-0.42,0.319-0.42c0.213-0.146,0.394-0.087,0.54,0.18c0,0.294-0.107,0.48-0.32,0.56
	C172.172,174.822,171.992,174.716,171.846,174.356z M166.469,176.016c0.293-0.067,0.514,0.08,0.66,0.439
	c0.133,0.279,0.02,0.492-0.34,0.64c-0.333,0.146-0.58,0.04-0.739-0.32C166.05,176.349,166.189,176.096,166.469,176.016z
	 M241.857,134.384c-0.72-0.28-1.612,0.193-2.679,1.419c-1.065,1.239-1.272,1.852-0.619,1.838c0.426,0,0.066,0.473-1.079,1.419
	c-0.427,0.36-0.887,0.434-1.38,0.22c-0.16-0.28-0.133-0.713,0.08-1.299c0.347-1.08,1.267-2.199,2.758-3.358
	c-1.278,0.799-2.099,1.452-2.458,1.958c-0.626,0.8-0.826,1.706-0.6,2.718l-0.56-0.54c-0.146-0.506-0.113-0.939,0.1-1.299l0.12-0.1
	c-0.173-2.451-0.732-4.717-1.679-6.795c-1.039-2.065-2.418-3.344-4.137-3.837c-2.238-0.626-3.965-0.14-5.177,1.459
	c-1.065,1.292-1.726,3.098-1.979,5.416l-0.1,1.499l0.079-2.578c0.347-2.318,1.047-4.084,2.099-5.296
	c1.293-1.452,3.059-1.832,5.297-1.139c3.157,0.906,5.017,4.377,5.576,10.413c0,0.213,0.04,0.426,0.119,0.64
	c0.2-0.573,0.554-1.046,1.06-1.419l0.54-0.54l1.698-0.779C240.165,133.964,241.138,133.958,241.857,134.384z M219.912,162.185
	c0.146,0.36,0.113,0.646-0.1,0.859c-0.227,0.067-0.406,0.1-0.54,0.1c-0.146-0.065-0.253-0.14-0.319-0.22
	c-0.227-0.279-0.193-0.566,0.1-0.858C219.412,161.918,219.699,161.958,219.912,162.185z M198.447,160.006
	c-1.146,0.787-2.358,2.013-3.638,3.678c-0.986,1.52-1.619,2.785-1.898,3.798c0.133,0,0.239,0.073,0.319,0.22
	c0.2-1.373,1.192-3.071,2.979-5.097c1.492-1.732,2.598-2.818,3.317-3.258C200.086,158.761,199.727,158.98,198.447,160.006z
	 M200.625,162.564c-3.011,1.679-5.476,3.391-7.395,5.137c0.066,0,0.1,0.033,0.1,0.1c0.16,0.293,0.273,0.513,0.34,0.66
	c1-0.88,2.752-1.839,5.257-2.878c2.438-1.013,4.764-1.819,6.976-2.419c-0.787,0.146-1.926,0.446-3.418,0.899
	c-3.091,0.893-5.996,2.139-8.714,3.737c3.424-2.812,6.495-4.977,9.214-6.495C202.225,161.705,201.438,162.125,200.625,162.564z
	 M219.452,160.246c0.293-0.293,0.547-0.26,0.76,0.1c0.293,0.28,0.26,0.533-0.1,0.76c-0.2,0.213-0.453,0.174-0.76-0.12
	C219.14,160.772,219.173,160.526,219.452,160.246z M215.176,161.686c0.146-0.08,0.253-0.08,0.319,0
	c0.146,0.133,0.113,0.272-0.1,0.419l-0.34-0.1C214.989,161.925,215.028,161.818,215.176,161.686z M215.915,161.245
	c-0.067,0.147-0.18,0.147-0.34,0l0.12-0.319l0.22,0.1C215.981,161.172,215.981,161.245,215.915,161.245z M215.915,160.486v-0.2
	c0.133-0.08,0.239-0.08,0.319,0l-0.119,0.2C215.981,160.633,215.915,160.633,215.915,160.486z M216.115,159.847h-0.2
	c-0.08-0.066-0.08-0.173,0-0.32l0.2,0.101C216.262,159.627,216.262,159.7,216.115,159.847z M215.675,158.768h0.22
	c0.134,0.146,0.134,0.253,0,0.319l-0.22-0.1C215.528,158.987,215.528,158.914,215.675,158.768z M215.136,158.447v-0.22
	c0.146-0.066,0.253-0.066,0.319,0l-0.1,0.22C215.355,158.594,215.282,158.594,215.136,158.447z M214.596,157.908
	c0.146,0.146,0.146,0.22,0,0.22c-0.146,0.133-0.22,0.133-0.22,0c-0.146-0.134-0.146-0.207,0-0.22
	C214.522,157.761,214.596,157.761,214.596,157.908z M213.836,157.928c0.147,0,0.147,0.073,0,0.22l-0.22-0.12v-0.1
	C213.764,157.781,213.836,157.781,213.836,157.928z M213.696,154.59c0.08,0.214,0.047,0.394-0.1,0.54
	c-0.066,0.066-0.247,0.026-0.54-0.12c-0.066-0.066-0.033-0.206,0.1-0.42C213.37,154.443,213.55,154.443,213.696,154.59z
	 M216.295,155.43c-0.147-0.214-0.106-0.434,0.119-0.659c0.12-0.08,0.333-0.047,0.64,0.1c0.147,0.279,0.107,0.492-0.119,0.64
	C216.654,155.656,216.441,155.629,216.295,155.43z M215.315,154.57c0.146,0.146,0.153,0.286,0.02,0.42
	c-0.293,0.146-0.473,0.113-0.539-0.101c-0.16-0.146-0.133-0.293,0.08-0.439C215.022,154.317,215.169,154.357,215.315,154.57z
	 M219.332,158.508c0.294-0.147,0.547-0.107,0.76,0.119c0.214,0.214,0.181,0.46-0.1,0.74c-0.28,0.146-0.526,0.113-0.74-0.101
	C219.093,158.974,219.119,158.721,219.332,158.508z M218.573,157.647c-0.134-0.266-0.094-0.479,0.12-0.639
	c0.199-0.214,0.446-0.181,0.739,0.1c0.293,0.293,0.26,0.506-0.101,0.64C219.119,157.975,218.866,157.941,218.573,157.647z
	 M217.693,155.729c0.294-0.293,0.514-0.26,0.66,0.1c0.213,0.213,0.173,0.394-0.12,0.54c-0.146,0.227-0.359,0.192-0.64-0.1
	C217.381,156.056,217.414,155.876,217.693,155.729z M212.978,158.247l0.1-0.22h0.12c0.146,0.147,0.146,0.22,0,0.22
	C213.197,158.395,213.123,158.395,212.978,158.247z M210.799,156.429c-0.147-0.133-0.147-0.272,0-0.42
	c0.293-0.146,0.473-0.113,0.539,0.101c0.146,0.146,0.113,0.293-0.1,0.439C211.092,156.695,210.945,156.655,210.799,156.429z
	 M212.317,155.67c-0.146,0.133-0.293,0.1-0.439-0.101c-0.146-0.146-0.146-0.286,0-0.42c0.293-0.159,0.473-0.133,0.539,0.08
	C212.564,155.376,212.53,155.522,212.317,155.67z M192.751,173.417c0.066,0,0.173,0.066,0.319,0.2l0.101,0.439
	c-0.066,0.146-0.207,0.106-0.42-0.12C192.604,173.804,192.604,173.63,192.751,173.417z M191.112,172.138
	c0.066,0,0.14,0.033,0.22,0.1l0.02,0.32l-0.239-0.1C191.045,172.245,191.045,172.138,191.112,172.138z M192.511,171.998
	c0.227,0.586,0.233,0.913,0.021,0.979c-0.146,0.159-0.326,0.06-0.54-0.3c-0.227-0.44-0.192-0.727,0.101-0.859
	C192.158,171.738,192.298,171.798,192.511,171.998z M191.412,168.36l0.439,0.439c0.146,0.36,0.073,0.606-0.22,0.74l-0.32-0.42
	C191.165,168.827,191.199,168.574,191.412,168.36z M92.021,154.71c-0.067,0.08-0.14,0.187-0.22,0.319
	c-1.666-1.345-2.572-3.098-2.718-5.256c-0.16-1.359,0.04-2.725,0.6-4.097c0.64-1.359,1.486-2.478,2.538-3.358
	c2.079-1.386,4.311-1.725,6.695-1.019c1.292,0.413,2.266,1.192,2.918,2.338c0.733,1.212,0.926,2.498,0.58,3.857
	c-0.346,1.532-1.166,2.618-2.458,3.257c-0.839,0.52-1.806,0.713-2.898,0.58c-1.439-0.133-2.445-0.739-3.018-1.818
	c-0.586-1.426-0.387-2.718,0.6-3.877c0.293,0.08,0.473,0.12,0.54,0.12c-0.72,0.786-1,1.719-0.84,2.798
	c0.16,0.999,0.707,1.746,1.639,2.239c1.159,0.64,2.345,0.633,3.557-0.02c0.786-0.52,1.426-1.279,1.919-2.279
	c0.919-2.172,0.687-4.044-0.699-5.616c-1.812-1.919-3.897-2.398-6.256-1.439c-1.292,0.52-2.398,1.426-3.318,2.718
	c-0.853,1.226-1.346,2.558-1.479,3.997C89.436,150.819,90.208,153.005,92.021,154.71z M104.852,154.59
	c1.132-1.092,2.085-2.392,2.857-3.897c1.359-2.531,1.812-5.196,1.359-7.995c-0.466-2.865-1.719-5.183-3.757-6.955
	c-2.159-1.999-4.75-3.205-7.775-3.618c-3.104-0.453-6.049,0.007-8.834,1.379c-2.505,1.319-4.644,3.171-6.415,5.556
	c-1.706,2.332-2.832,4.896-3.378,7.695c-1.239,5.903-0.287,11.212,2.858,15.929c0.066,0.146,0.173,0.326,0.32,0.539
	c-0.213,0.28-0.18,0.533,0.1,0.76c0.213,0.054,0.393,0.08,0.54,0.08c0.146,0.213,0.327,0.427,0.54,0.64
	c-0.133,0.08-0.233,0.153-0.3,0.22v0.1c-2.039-2.198-3.464-4.803-4.277-7.814c-1.639-5.876-1.04-11.272,1.799-16.188
	c1.412-2.532,3.257-4.59,5.536-6.176c2.359-1.612,4.937-2.571,7.735-2.878c2.718-0.253,5.269,0.046,7.654,0.899
	c2.531,0.907,4.524,2.359,5.976,4.357c1.679,2.212,2.491,4.757,2.438,7.634c-0.04,2.878-0.913,5.47-2.618,7.775
	c-0.706,0.879-1.419,1.605-2.138,2.178C104.992,154.743,104.918,154.67,104.852,154.59z M91.201,170.879
	c0.333,0.133,0.68,0.3,1.039,0.5l0.021,0.02c0.013,0,0.026,0.007,0.04,0.02c0.36,0.147,0.752,0.287,1.179,0.42
	c0.653,0.28,1.372,0.56,2.158,0.84c0.28,0.066,0.566,0.133,0.86,0.2l-0.1,0.22c-0.799-0.2-1.559-0.447-2.278-0.739
	c-0.426-0.134-0.819-0.3-1.179-0.5c-0.653-0.227-1.272-0.474-1.859-0.74l0.12-0.14V170.879z M90.002,170.459
	c0-0.066,0.04-0.1,0.12-0.1c0.213,0.066,0.427,0.173,0.64,0.319c-0.067,0.08-0.1,0.153-0.1,0.22
	C90.449,170.752,90.229,170.605,90.002,170.459z M84.806,166.422c-0.08,0-0.153,0.033-0.22,0.1c-0.08,0.08-0.12,0.16-0.12,0.24
	c-0.213-0.293-0.427-0.547-0.64-0.76c0.067-0.066,0.14-0.173,0.22-0.319C84.259,165.962,84.512,166.209,84.806,166.422z
	 M85.685,167.281c0.28,0.213,0.566,0.427,0.859,0.64c-0.066,0-0.1,0.033-0.1,0.1c-0.08,0.08-0.12,0.153-0.12,0.22
	c-0.066-0.066-0.14-0.14-0.22-0.22c-0.213-0.133-0.426-0.272-0.639-0.419C85.532,167.454,85.605,167.348,85.685,167.281z
	 M88.063,169.08c-0.067,0.08-0.1,0.153-0.1,0.22c-0.293-0.146-0.553-0.326-0.779-0.539l0.12-0.101h0.1
	C87.617,168.807,87.837,168.947,88.063,169.08z M89.583,170.039h-0.12v0.101c-0.28-0.146-0.526-0.28-0.74-0.4v-0.12h0.1
	C89.036,169.753,89.289,169.893,89.583,170.039z M218.753,163.784c0.134-0.214,0.307-0.427,0.52-0.641c0.134,0,0.313-0.032,0.54-0.1
	c0.213-0.213,0.246-0.499,0.1-0.859c0.066-0.146,0.14-0.293,0.22-0.439c2.958-4.837,3.804-10.159,2.538-15.969
	c-0.6-2.878-1.771-5.457-3.518-7.735c-1.825-2.358-3.997-4.137-6.516-5.336c-2.811-1.332-5.723-1.739-8.733-1.219
	c-3.024,0.466-5.637,1.719-7.835,3.757c-1.998,1.813-3.197,4.151-3.598,7.015c-0.399,2.825,0.087,5.483,1.459,7.975
	c0.8,1.505,1.819,2.785,3.059,3.837c-0.066,0-0.141,0.073-0.221,0.22c-0.786-0.626-1.512-1.339-2.178-2.139
	c-1.799-2.265-2.752-4.836-2.858-7.714c-0.093-2.878,0.673-5.436,2.299-7.675c1.426-1.945,3.424-3.438,5.995-4.477
	c2.372-0.879,4.884-1.226,7.535-1.04c2.798,0.253,5.39,1.166,7.774,2.738c2.386,1.559,4.311,3.584,5.776,6.076
	c2.838,4.863,3.497,10.247,1.979,16.149c-0.84,3.104-2.179,5.776-4.017,8.015c0-0.067-0.034-0.14-0.101-0.22
	C218.893,163.937,218.819,163.864,218.753,163.784z M217.474,165.862c0-0.08-0.04-0.153-0.12-0.22l-0.119-0.101
	c0.213-0.292,0.433-0.546,0.659-0.759c0.133,0.146,0.272,0.253,0.42,0.319C218.033,165.396,217.754,165.649,217.474,165.862z
	 M214.676,167.821c0.08,0.066,0.16,0.14,0.24,0.22c-0.294,0.146-0.547,0.333-0.76,0.56c-0.066-0.147-0.14-0.253-0.22-0.32
	C214.149,168.134,214.396,167.98,214.676,167.821z M215.755,167.381c0-0.066-0.04-0.133-0.12-0.199c0-0.08-0.033-0.12-0.1-0.12
	c0.293-0.213,0.58-0.427,0.859-0.64c0.08,0.054,0.187,0.12,0.319,0.2c-0.279,0.227-0.525,0.413-0.739,0.56
	C215.895,167.248,215.821,167.314,215.755,167.381z M213.297,168.8c0.066,0.08,0.14,0.153,0.22,0.22
	c-0.293,0.147-0.547,0.294-0.76,0.44c-0.079-0.08-0.12-0.153-0.12-0.22C212.864,169.094,213.084,168.947,213.297,168.8z
	 M207.92,171.658c-0.719,0.293-1.465,0.546-2.238,0.76l-0.02-0.2c0.359-0.08,0.68-0.193,0.959-0.34
	c1.52-0.506,2.951-1.093,4.297-1.759l0.021,0.12l0.119,0.1c-0.652,0.293-1.306,0.554-1.958,0.779
	C208.753,171.332,208.36,171.512,207.92,171.658z M211.998,169.58v0.119c0.066-0.013,0.14,0.014,0.22,0.08
	c-0.294,0.16-0.573,0.313-0.84,0.46l-0.021-0.34C211.571,169.767,211.784,169.66,211.998,169.58z M210.019,154.29
	c-0.133-0.146-0.239-0.253-0.319-0.319c1.785-1.679,2.519-3.884,2.198-6.616c-0.08-1.413-0.593-2.731-1.539-3.957
	c-0.879-1.279-1.998-2.166-3.357-2.658c-2.305-0.853-4.351-0.333-6.136,1.559c-1.412,1.585-1.646,3.457-0.699,5.616
	c0.506,0.919,1.192,1.666,2.059,2.238c1.238,0.64,2.392,0.626,3.457-0.04c0.933-0.493,1.466-1.246,1.6-2.259
	c0.133-1.092-0.167-2.065-0.899-2.918c0.079,0.08,0.3,0.08,0.659,0c1.013,1.292,1.206,2.545,0.58,3.758
	c-0.427,1.159-1.426,1.818-2.998,1.979c-1.08,0.16-2.059-0.013-2.938-0.52c-1.146-0.626-1.979-1.691-2.498-3.198
	c-0.373-1.359-0.207-2.658,0.5-3.897c0.639-1.146,1.605-1.938,2.897-2.378c2.372-0.746,4.597-0.446,6.676,0.899
	c1.092,0.853,1.965,1.952,2.618,3.298c0.6,1.372,0.833,2.738,0.699,4.097C212.443,151.213,211.592,152.984,210.019,154.29z"/>
</svg>
