<?xml version="1.0" encoding="utf-8"?>
<!-- Generator: Adobe Illustrator 16.0.0, SVG Export Plug-In . SVG Version: 6.00 Build 0)  -->
<!DOCTYPE svg PUBLIC "-//W3C//DTD SVG 1.1//EN" "http://www.w3.org/Graphics/SVG/1.1/DTD/svg11.dtd">
<svg version="1.1" id="Layer_1" xmlns="http://www.w3.org/2000/svg" xmlns:xlink="http://www.w3.org/1999/xlink" x="0px" y="0px"
	 width="300px" height="300px" viewBox="0 0 300 300" enable-background="new 0 0 300 300" xml:space="preserve">
<path fill="#010101" d="M154.681,8.107c-13.095,10.254-23.305,26.975-27.977,45.813c-3.625,14.625-3.358,37.605,0.523,45.069
	c2.368,4.551,9.674,13.027,11.229,13.027c0.452,0-0.528-3.956-2.176-8.793c-5.649-16.581-3.54-37.454,4.81-47.548
	c7.639-9.234,9.663-5.824,8.833,14.875c-0.384,9.539-0.155,12.535,0.827,10.85c7.028-12.055,10.502-10.521,10.412,4.597
	c-0.057,9.597,0.091,10.174,2.138,8.323c3.154-2.853,10.302-16.69,10.302-19.939c0-1.511,0.665-2.748,1.479-2.748
	c1.022,0,1.275,2.575,0.817,8.287c-0.524,6.507-1.952,10.766-6.645,19.806c-3.289,6.334-5.791,11.706-5.561,11.937
	c0.975,0.973,11.377-14.028,14.578-21.021c4.697-10.258,3.956-18.782-3.3-37.899c-2.99-7.881-5.776-17.113-6.19-20.517
	c-0.414-3.403-1.273-6.188-1.908-6.188c-1.912,0-3.688,6.272-3.801,13.437l-0.105,6.754l-2.009-4.56
	c-2.588-5.875-3.728-25.174-1.878-31.843c0.782-2.825,1.278-5.281,1.104-5.458C160.006,4.194,157.53,5.876,154.681,8.107
	 M100.138,122.113c2.754,11.719,14.729,25.331,27.584,31.356c6.664,3.123,8.958,3.491,21.778,3.491
	c12.819,0,15.113-0.368,21.778-3.491c12.854-6.025,24.829-19.637,27.584-31.356l0.841-3.583H149.5H99.297L100.138,122.113
	 M125.4,164.776v3.256h23.448h23.448v-3.256v-3.258h-23.448H125.4V164.776 M132.436,179.431c0.992,9.549,4.032,41.544,6.654,70.02
	c3.093,33.585,2.077,30.613,10.469,30.613c4.811,0,7.11-0.526,7.118-1.629c0.006-0.896,0.606-8.369,1.336-16.609
	c2.257-25.514,7.771-88.956,7.771-89.432c0-0.249-7.68-0.453-17.063-0.453h-17.062L132.436,179.431 M142.335,290.485v6.513h7.165
	h7.165v-6.513v-6.514H149.5h-7.165V290.485"/>
</svg>
