<?xml version="1.0" encoding="utf-8"?>
<!-- Generator: Adobe Illustrator 16.0.0, SVG Export Plug-In . SVG Version: 6.00 Build 0)  -->
<!DOCTYPE svg PUBLIC "-//W3C//DTD SVG 1.1//EN" "http://www.w3.org/Graphics/SVG/1.1/DTD/svg11.dtd">
<svg version="1.1" id="Layer_1" xmlns="http://www.w3.org/2000/svg" xmlns:xlink="http://www.w3.org/1999/xlink" x="0px" y="0px"
	 width="300px" height="300px" viewBox="0 0 300 300" enable-background="new 0 0 300 300" xml:space="preserve">
<path fill-rule="evenodd" clip-rule="evenodd" fill="#F7E9A1" d="M60.841,188.817c-0.281-1.438-0.962-2.658-2.038-3.665
	c-1.226-1.219-2.702-1.832-4.421-1.832c-1.794,0-3.271,0.651-4.421,1.939c-0.932,1.081-1.47,2.338-1.613,3.771
	c0,1.726,0.432,3.089,1.294,4.096c0.857,0.863,1.97,1.295,3.339,1.295c1.22-0.076,2.158-0.507,2.802-1.295
	c0.507-0.501,0.794-1.113,0.857-1.832c0.15-0.856,0.038-1.582-0.319-2.158c-0.506-1.144-0.431-1.97,0.219-2.477
	c0.5-0.5,1.15-0.537,1.938-0.105c0.713,0.507,1.363,1.257,1.939,2.264c0.213,0.357,0.356,0.537,0.425,0.537
	C60.992,189.286,60.992,189.104,60.841,188.817z M109.224,227.501c0.5-0.508,1.181-0.508,2.045,0
	c0.719,0.425,1.325,1.144,1.832,2.15h0.107c0.149,0.357,0.288,0.538,0.437,0.538c0.063,0,0.063-0.181,0-0.538
	c-0.362-1.438-1.05-2.658-2.051-3.665c-1.294-1.144-2.801-1.719-4.527-1.719c-1.795,0-3.227,0.606-4.309,1.826
	c-1.007,1.081-1.544,2.338-1.62,3.776c-0.068,1.72,0.363,3.089,1.3,4.09c0.857,0.932,1.939,1.363,3.227,1.295
	c1.226-0.069,2.158-0.469,2.802-1.182c0.575-0.651,0.863-1.295,0.863-1.945c0.143-0.856,0.075-1.582-0.213-2.151
	C108.61,228.826,108.647,228.001,109.224,227.501z M161.802,268.223c0.506-0.501,1.182-0.501,2.044,0
	c0.72,0.432,1.332,1.15,1.832,2.157c0.22,0.356,0.395,0.5,0.544,0.431c0.069,0,0.069-0.144,0-0.431
	c-0.362-1.438-1.081-2.658-2.156-3.665c-1.22-1.219-2.695-1.832-4.422-1.832c-1.794,0-3.264,0.644-4.415,1.938
	c-0.938,1.082-1.438,2.339-1.513,3.771c-0.069,1.726,0.363,3.089,1.301,4.096c0.788,0.932,1.9,1.363,3.339,1.294
	c1.151-0.075,2.076-0.469,2.802-1.188c0.426-0.575,0.713-1.219,0.863-1.938c0.068-0.863-0.037-1.577-0.326-2.151
	C161.12,269.555,161.157,268.729,161.802,268.223z M219.014,141.305c0.074-0.288,0.074-0.469,0-0.538
	c-0.076-0.075-0.213,0.069-0.432,0.426c-1.939,3.521-3.158,7.797-3.665,12.825c-0.219,2.583-0.219,4.915,0,7.004
	c-1.294,0.212-2.908,0.644-4.846,1.295c-2.015,0.713-3.559,1.362-4.635,1.932c-9.198-3.157-18.027-2.765-26.507,1.188
	c-5.816,2.802-9.844,5.997-12.069,9.594c-0.213,0.287-0.288,0.463-0.213,0.537c0.074,0.138,0.25,0.031,0.537-0.324
	c4.816-5.029,10.919-8.512,18.323-10.449c9.117-2.371,17.091-1.007,23.912,4.095c1.438,1.075,2.377,2.258,2.802,3.552
	c0.287,0.863,0.219,1.938-0.213,3.233c-0.575,2.007-2.626,5.24-6.14,9.698c-3.81,4.879-6.36,8.761-7.654,11.632
	c-0.426,1.226-0.463,2.088-0.1,2.589c0.5,0.5,1.5,0.469,3.014-0.106c3.514-1.294,5.709-2.051,6.571-2.264
	c2.158-0.506,3.771-0.324,4.848,0.538c3.301-4.596,8.479-9.874,15.514-15.84c3.521-3.015,6.716-5.565,9.586-7.647
	c-3.727,0.287-8.467,0.144-14.22-0.432c-1.576-0.145-2.87-0.825-3.877-2.045c-0.65-0.794-1.076-1.62-1.294-2.482
	c-1.295-5.027-1.758-10.269-1.395-15.728C217.074,149.278,217.788,145.182,219.014,141.305z M136.269,140.01
	c0.138-0.288,0.176-0.469,0.101-0.538c-0.069-0.075-0.25,0.106-0.539,0.538c-1.65,2.151-3.088,5.24-4.302,9.268
	c-2.952,3.014-5.353,5.315-7.223,6.891c-2.295,1.945-4.453,3.521-6.466,4.74c-2.946,1.726-6.103,2.77-9.48,3.127
	c-3.233,0.431-5.922,0.212-8.086-0.645c-1.188-0.47-2.339-0.45-3.439,0.05c-0.45,0.2-0.876,0.469-1.301,0.807
	c-5.453,4.603-10.23,10.274-14.326,17.028c-5.459,9.124-8.186,18.315-8.186,27.583c0,9.98,2.402,18.21,7.216,24.67
	c4.815,6.466,10.956,9.698,18.422,9.698c3.521,0,6.648-0.719,9.38-2.157c2.007-1.433,3.051-2.188,3.12-2.258
	c0.287-0.363,0.394-0.574,0.319-0.65c-0.069-0.068-0.25,0-0.539,0.219c-3.089,2.296-6.353,2.621-9.805,0.97
	c-3.446-1.582-5.315-4.383-5.603-8.405c-0.212-3.376,0.863-6.253,3.239-8.622c2.295-2.371,5.24-3.552,8.83-3.552
	c3.09,0,5.753,0.931,7.979,2.801c1.938,1.72,3.301,4.059,4.09,7.004c3.376-10.199,9.411-20.042,18.097-29.522
	c4.103-4.452,6.503-9.479,7.223-15.082c0.506-3.878,1.257-7.723,2.264-11.532c-0.575,0.651-1.47,1.796-2.694,3.452
	c-1.151,1.507-2.152,2.689-3.015,3.553c-0.788,0.862-1.9,1.294-3.339,1.294c-2.226,0.068-3.777-1.476-4.634-4.634
	c-0.075-0.432-0.288-2.369-0.644-5.821c-0.438-3.371-0.65-5.49-0.65-6.354c-0.075-3.589-0.075-6.247,0-7.973
	C132.779,150.497,134.112,145.182,136.269,140.01z M83.691,98.638c-0.075-0.075-0.256,0.106-0.544,0.538
	c-1.651,2.007-3.083,5.097-4.309,9.268c-3.014,2.945-5.421,5.241-7.216,6.891c-1.739,1.463-3.402,2.72-5.015,3.771
	c-0.526,0.351-1.051,0.669-1.563,0.97c-2.864,1.726-6.028,2.77-9.48,3.126c-3.158,0.432-5.816,0.213-7.967-0.644
	c-1.726-0.644-3.339-0.363-4.853,0.857c-5.459,4.603-10.199,10.274-14.22,17.028c-5.465,9.124-8.192,18.316-8.192,27.583
	c0,9.98,2.408,18.203,7.216,24.669c4.815,6.467,10.918,9.699,18.322,9.699c3.514,0,6.642-0.719,9.374-2.157
	c2.083-1.433,3.158-2.189,3.233-2.258c0.288-0.432,0.395-0.65,0.326-0.65c-0.075-0.075-0.256,0-0.544,0.219
	c-3.083,2.295-6.36,2.621-9.799,0.97c-3.526-1.65-5.39-4.453-5.603-8.405c-0.219-3.376,0.857-6.253,3.227-8.622
	c2.301-2.371,5.24-3.553,8.836-3.553c3.158,0,5.822,0.969,7.973,2.908c2.083,1.794,3.451,4.202,4.089,7.216
	c3.308-10.268,9.38-20.18,18.21-29.734c4.027-4.384,6.397-9.374,7.116-14.977c0.575-4.24,1.4-8.298,2.476-12.175
	c-0.575,0.788-1.507,2.013-2.802,3.665c-1.15,1.582-2.188,2.839-3.126,3.771c-0.788,0.863-1.939,1.294-3.446,1.294
	c-2.158,0.069-3.665-1.476-4.521-4.634c-0.075-0.431-0.325-2.37-0.756-5.815c-0.27-2.545-0.432-4.359-0.488-5.446
	c-0.032-0.401-0.057-0.707-0.057-0.914c-0.213-2.945-0.213-5.603,0-7.973c0.506-5.459,1.838-10.774,3.989-15.946
	C83.722,98.813,83.759,98.638,83.691,98.638z M100.063,82.586c-9.118-3.089-17.922-2.658-26.396,1.288
	c-5.891,2.802-9.949,5.997-12.175,9.592c-0.144,0.281-0.175,0.5-0.106,0.645c0.069,0,0.25-0.144,0.538-0.432
	c4.74-5.027,10.85-8.51,18.316-10.449c9.118-2.37,17.059-1.007,23.813,4.09c1.507,1.157,2.438,2.301,2.801,3.452
	c0.288,0.932,0.25,2.045-0.112,3.339c-0.644,2.157-2.583,5.247-5.816,9.268c-3.589,4.527-5.997,8.079-7.216,10.668
	c-0.5,1-0.538,1.757-0.112,2.258c0.438,0.431,0.976,0.543,1.619,0.325c0.432-0.144,1.545-0.538,3.34-1.182
	c1.719-0.576,2.908-0.832,3.558-0.757c3.089-4.74,6.785-8.905,11.094-12.5c3.876-3.233,8.873-6.354,14.983-9.374
	c-2.302,0.075-5.678-0.106-10.131-0.538c-1.513-0.144-2.764-0.826-3.777-2.045c-0.713-0.794-1.182-1.62-1.401-2.482
	c-1.288-5.021-1.757-10.268-1.4-15.727c0.288-4.309,1.044-8.442,2.264-12.388c0.075-0.218,0.075-0.362,0-0.431
	c-0.069,0-0.213,0.138-0.425,0.431c-2.014,3.521-3.239,7.792-3.665,12.82c-0.212,2.589-0.212,4.884,0,6.897
	c-1.294,0.288-2.914,0.75-4.852,1.4C102.726,81.473,101.138,82.08,100.063,82.586z M166.435,100.577
	c0.076-0.288,0.076-0.431,0-0.431c-0.074-0.076-0.213,0.037-0.431,0.325c-1.938,3.515-3.127,7.792-3.559,12.82
	c-0.213,2.582-0.25,4.921-0.106,7.003c-1.294,0.213-2.908,0.644-4.846,1.294c-2.015,0.713-3.59,1.363-4.741,1.938
	c-9.123-3.164-17.922-2.732-26.401,1.288c-5.89,2.733-9.912,5.891-12.068,9.486c-0.213,0.288-0.288,0.5-0.213,0.645
	c0.075,0.075,0.25-0.069,0.538-0.432c4.814-5.028,10.918-8.511,18.322-10.45c9.193-2.37,17.159-1.006,23.913,4.096
	c1.513,1.144,2.445,2.333,2.801,3.552c0.213,0.938,0.15,2.013-0.213,3.233c-0.649,2.157-2.588,5.247-5.814,9.267
	c-3.597,4.521-6.003,8.08-7.223,10.668c-0.432,1-0.432,1.757,0,2.258c0.356,0.431,0.894,0.543,1.619,0.324
	c0.357-0.068,1.364-0.431,3.015-1.075c1.725-0.507,2.907-0.794,3.552-0.863c3.089-4.815,6.828-9.048,11.206-12.712
	c3.739-3.015,8.616-6.035,14.657-9.049c-2.376,0-5.565-0.219-9.593-0.65c-1.575-0.144-2.839-0.826-3.771-2.045
	c-0.719-0.794-1.182-1.613-1.401-2.477c-1.294-5.027-1.794-10.274-1.507-15.733C164.459,108.55,165.209,104.454,166.435,100.577z
	 M150.702,27.851c1.294,0.932,2.05,1.507,2.263,1.72c0.213,0.219,0.288,0.543,0.213,0.976c0,0.212-0.068,0.606-0.213,1.182
	c0,0.144,0.325,0.719,0.97,1.726c0.432,0.644,0.719,1.401,0.863,2.264c0.068,0.932,0.037,1.901-0.106,2.908
	c-0.149,1.22-0.22,1.938-0.22,2.151c0,0.363-0.105,0.65-0.318,0.863c-0.362,0.363-1.044,0.65-2.051,0.863
	c-0.287,0-0.395,0.181-0.326,0.538c0.15,0.576,0,1.076-0.424,1.507c-0.5,0.432-1.264,0.613-2.264,0.544
	c-1.006-0.145-1.763-0.294-2.263-0.432c-0.938-0.075-2.121,0.031-3.553,0.319c-1.869,0.431-3.814,0.613-5.822,0.544
	c-2.158,0-4.096-0.544-5.821-1.62c-0.576-0.356-1.364-0.97-2.364-1.833c-0.219-0.212-0.362-0.288-0.438-0.212
	c-0.068,0.069,0,0.25,0.219,0.538c1.083,1.795,2.621,3.089,4.634,3.877c0.863,0.363,2.051,0.682,3.552,0.97
	c-0.932,0.431-1.789,1.044-2.583,1.832c-0.645,0.719-1.044,1.332-1.182,1.832c0.288,2.802-0.901,7.292-3.558,13.47
	c-3.309,7.541-5.172,12.319-5.604,14.326c-0.356,1.507-0.506,2.514-0.432,3.021c0.144,0.568,0.719,1.038,1.726,1.4
	c1.507,0.576,3.34,0.857,5.49,0.857c1.364,0,2.664-0.319,3.877-0.97c1.945-0.931,4.458-2.764,7.547-5.49
	c2.871-1.794,6.104-1.582,9.699,0.644c0.863,0.576,1.401,1.257,1.613,2.045c0.144,0.65,0.075,1.513-0.212,2.589
	c5.165-1.795,8.654-3.052,10.449-3.771c2.945-1.219,4.739-2.263,5.384-3.126c-2.302-1.72-3.702-3.771-4.202-6.141
	c-0.5-2.151-0.213-4.059,0.862-5.709c0.864-1.363,2.227-2.333,4.096-2.907c2.371-0.794,4.847-0.576,7.436,0.644
	c0.213,0.087,0.369,0.137,0.481,0.162c0.082-0.006,0.132-0.025,0.163-0.056c0.044-0.038,0.024-0.131-0.056-0.269
	c-0.063-0.063-0.151-0.15-0.263-0.269c-1.37-1.219-3.239-1.901-5.604-2.044c0.213-0.576,0.713-1.22,1.5-1.939
	c0.576-0.506,1.083-0.9,1.514-1.188c2.177-1.195,3.896-2.07,5.172-2.639c0.406-0.2,0.763-0.362,1.075-0.481
	c0.795-0.288,1.507-0.432,2.157-0.432c0.714-0.075,1.727,0.031,3.015,0.319c2.801,0.575,6.253,2.263,10.343,5.065
	c1.87,1.294,3.627,2.333,5.278,3.127c0.649,0.287,1.013,0.75,1.081,1.4c0.068,0.575-0.068,1-0.432,1.294
	c-0.287,0.356-0.649,0.682-1.075,0.969c-0.362,0.213-0.575,0.356-0.649,0.426c-0.501,0.575-0.501,1.188,0,1.838
	c0.074,0.138,0.756,0.676,2.051,1.613c1.288,1.007,2.044,1.613,2.264,1.833c0.213,0.213,0.287,0.538,0.213,0.969
	c0,0.288-0.075,0.644-0.213,1.075c0.068,0.145,0.425,0.719,1.075,1.726c0.425,0.719,0.682,1.47,0.75,2.264
	c0.15,1,0.113,2.007-0.105,3.015c-0.145,1.15-0.22,1.832-0.22,2.051c0,0.425-0.101,0.713-0.318,0.856
	c-0.288,0.363-0.932,0.65-1.944,0.863c-0.281,0-0.426,0.181-0.426,0.538c0.145,0.65,0,1.15-0.432,1.507
	c-0.431,0.438-1.182,0.613-2.264,0.544l-2.264-0.325c-0.856-0.144-2.045-0.038-3.558,0.325c-1.789,0.431-3.696,0.606-5.703,0.538
	c-2.158-0.075-4.134-0.644-5.929-1.726c-0.575-0.356-1.362-0.969-2.369-1.832c-0.145-0.212-0.257-0.288-0.326-0.212
	c-0.144,0.068-0.106,0.25,0.106,0.538c1.15,1.794,2.695,3.126,4.641,3.983c0.856,0.288,2.076,0.576,3.657,0.863
	c-1.007,0.507-1.907,1.113-2.695,1.833c-0.644,0.719-1.037,1.332-1.181,1.832c0.355,2.871-0.826,7.36-3.559,13.47
	c-3.302,7.61-5.171,12.388-5.603,14.327c-0.357,1.513-0.501,2.514-0.426,3.02c0.138,0.644,0.713,1.145,1.72,1.507
	c0.719,0.213,1.757,0.394,3.121,0.538c1.013,0.145,1.801,0.213,2.375,0.213c1.438,0,2.727-0.288,3.878-0.856
	c1.938-1.007,4.451-2.876,7.541-5.603c2.876-1.794,6.103-1.582,9.693,0.644c0.862,0.575,1.407,1.219,1.619,1.938
	c0.144,0.65,0.106,1.476-0.106,2.477c5.027-1.72,8.479-2.977,10.344-3.771c2.944-1.22,4.701-2.227,5.277-3.015
	c-2.302-1.794-3.702-3.877-4.202-6.247c-0.426-2.089-0.138-3.952,0.862-5.603c0.863-1.363,2.227-2.37,4.097-3.02
	c2.369-0.713,4.846-0.5,7.436,0.65c0.355,0.213,0.574,0.288,0.644,0.213c0.068-0.069-0.031-0.25-0.319-0.538
	c-1.226-1.219-3.09-1.901-5.604-2.045c0.213-0.65,0.676-1.294,1.401-1.945c0.575-0.5,1.112-0.895,1.613-1.182
	c2.657-1.507,4.74-2.551,6.248-3.126c0.794-0.288,1.507-0.425,2.156-0.425c0.788-0.075,1.796,0.031,3.014,0.319
	c1.727,0.363,3.847,1.22,6.36,2.589c1.433,0.788,2.764,1.614,3.983,2.477c1.938,1.294,3.702,2.301,5.277,3.014
	c0.726,0.363,1.114,0.863,1.188,1.513c0,0.5-0.175,0.931-0.537,1.288c-0.289,0.363-0.651,0.65-1.076,0.863
	c-0.362,0.288-0.575,0.469-0.65,0.538c-0.5,0.575-0.5,1.188,0,1.832c0.149,0.144,0.825,0.688,2.051,1.62
	c1.288,0.932,2.045,1.507,2.264,1.72c0.213,0.219,0.319,0.544,0.319,0.969c-0.068,0.219-0.181,0.613-0.319,1.188
	c0,0.068,0.357,0.644,1.075,1.726c0.357,0.713,0.614,1.469,0.752,2.258c0.149,0.938,0.149,1.907,0,2.914
	c-0.213,1.22-0.326,1.938-0.326,2.151c0,0.362-0.068,0.65-0.213,0.863c-0.355,0.363-1.037,0.644-2.044,0.863
	c-0.356,0.076-0.47,0.25-0.325,0.538c0.068,0.576-0.068,1.076-0.432,1.507c-0.5,0.432-1.257,0.613-2.264,0.538
	c-1.075-0.144-1.863-0.281-2.363-0.426c-0.863-0.075-2.052,0.032-3.565,0.319c-1.788,0.432-3.689,0.644-5.703,0.644
	c-3.239-0.068-6.003-1.25-8.298-3.552c-0.219-0.219-0.324-0.288-0.324-0.219c-0.07,0.075-0.031,0.256,0.105,0.544
	c1.726,2.726,4.49,4.309,8.298,4.74c-1.007,0.5-1.869,1.144-2.582,1.939c-0.651,0.719-1.075,1.326-1.294,1.832
	c0.355,2.801-0.795,7.291-3.446,13.47c-3.377,7.61-5.277,12.388-5.716,14.326c-0.355,1.507-0.463,2.515-0.324,3.015
	c0.074,0.649,0.612,1.112,1.619,1.406c0.719,0.287,1.757,0.5,3.12,0.645c1.082,0.144,1.876,0.219,2.376,0.219
	c1.364,0,2.689-0.325,3.989-0.976c0.926-0.5,2.227-1.438,3.878-2.802c1.726-1.432,3.014-2.4,3.877-2.907
	c3.164-1.795,6.641-1.183,10.449,1.832l2.045-1.075c1.582-0.795,2.952-1.37,4.096-1.727c1.582-0.575,3.127-0.5,4.635,0.22
	c0.574,0.281,1.294,0.712,2.156,1.287c0.788,0.575,1.333,1.045,1.614,1.401c0.719,1.007,0.287,2.082-1.295,3.233
	c-1.363,1.075-3.733,2.332-7.11,3.771c-0.932,0.431-2.257,1.188-3.983,2.264c-1.651,0.932-2.839,1.544-3.558,1.832
	c-5.459,2.301-10.775,5.641-15.946,10.018c-1.219,1.219-2.476,2.407-3.771,3.559c-2.438,2.227-4.847,4.202-7.216,5.929
	c-2.658,1.862-6.216,5.49-10.669,10.88c-3.739,4.597-6.641,8.549-8.729,11.851c-0.576,0.862-1.726,2.695-3.445,5.496
	c-1.651,2.658-3.09,4.777-4.31,6.353c-2.226,3.021-4.99,7.905-8.298,14.652c-2.801,5.535-4.452,9.056-4.959,10.563
	c-0.213,0.862-0.676,1.399-1.4,1.619c-0.638,0.213-1.213,0.068-1.72-0.432c-0.645-0.575-1.438-1.688-2.37-3.346
	c-0.362-0.5-0.5-1.112-0.431-1.832c0.068-0.432,0.249-1.076,0.537-1.938c0.219-0.719,1.257-3.195,3.127-7.429
	c1.432-3.308,2.583-5.609,3.445-6.898c0.432-0.718,2.088-3.339,4.953-7.865c2.801-4.453,4.777-7.543,5.928-9.268
	c0.288-0.5,0.362-0.75,0.219-0.75c-0.069-0.076-0.256,0.03-0.544,0.318c-0.501,0.506-1.501,1.507-3.015,3.021
	c-1.507,1.507-2.876,2.727-4.089,3.664c-1.226,0.856-2.445,1.288-3.665,1.288c-2.227,0.075-3.739-1.432-4.527-4.521
	c-0.144-0.432-0.395-2.371-0.75-5.823c-0.363-3.301-0.575-5.422-0.651-6.353c-0.074-3.521-0.037-6.179,0.107-7.973
	c0.507-5.459,1.795-10.774,3.883-15.946c0.356-0.794,0.175-0.826-0.538-0.106c-1.65,2.226-3.058,5.31-4.202,9.262
	c-2.951,3.021-5.353,5.353-7.223,7.004c-2.227,1.938-4.42,3.521-6.571,4.739c-2.877,1.657-6.034,2.695-9.48,3.127
	c-3.164,0.432-5.815,0.219-7.973-0.644c-1.657-0.651-3.233-0.363-4.74,0.862c-5.534,4.521-10.313,10.199-14.333,17.021
	c-5.459,9.118-8.186,18.317-8.186,27.584c0,9.98,2.401,18.203,7.216,24.67c4.815,6.466,10.956,9.698,18.422,9.698
	c3.521,0,6.61-0.719,9.268-2.156c2.082-1.433,3.164-2.189,3.232-2.264c0.288-0.357,0.395-0.576,0.326-0.645s-0.257,0-0.544,0.213
	c-3.09,2.301-6.354,2.626-9.806,0.969c-3.44-1.651-5.315-4.452-5.597-8.398c-0.219-3.377,0.856-6.253,3.233-8.623
	c2.363-2.37,5.314-3.552,8.829-3.552c3.884,0,6.966,1.401,9.268,4.202c2.226,2.582,3.339,5.854,3.339,9.805
	c0,4.091-1.576,7.754-4.739,10.988c-4.24,4.238-10.449,6.353-18.635,6.353c-8.335,0-15.696-3.445-22.087-10.344
	c-7.328-7.828-10.993-18.172-10.993-31.028c0-2.226,0.145-4.634,0.432-7.216c-1.871,2.369-4.31,4.239-7.323,5.603
	c-3.527,1.507-7.729,2.264-12.606,2.264c-8.267,0-15.627-3.414-22.087-10.237c-7.329-7.903-10.993-18.277-10.993-31.141
	c0-2.515,0.144-5.065,0.431-7.648c-1.794,2.445-4.202,4.347-7.223,5.709c-3.589,1.651-7.866,2.482-12.819,2.482
	c-8.329,0-15.696-3.45-22.086-10.342c-7.329-7.836-10.994-18.179-10.994-31.036c0-8.473,1.514-16.521,4.528-24.131
	c3.452-9.048,9.086-17.816,16.915-26.289c4.021-4.452,6.397-9.449,7.11-14.977c1.013-7.973,2.876-14.977,5.603-21.011
	c3.59-7.973,8.692-14.727,15.302-20.254c6.822-5.678,18.028-11.313,33.611-16.916c3.814-1.363,8.767-3.127,14.871-5.278
	c4.383-1.65,6.935-2.982,7.654-3.989c-2.227-1.794-3.589-3.877-4.096-6.247c-0.506-2.083-0.25-3.952,0.757-5.603
	c0.863-1.363,2.264-2.333,4.202-2.908c2.363-0.862,4.846-0.681,7.429,0.538c0.362,0.212,0.575,0.25,0.65,0.106
	c0.069,0-0.038-0.144-0.325-0.432c-1.226-1.22-3.126-1.901-5.709-2.044c0.287-0.576,0.825-1.226,1.62-1.939
	c0.5-0.575,0.963-0.969,1.4-1.188c3.371-1.795,5.453-2.833,6.241-3.12c0.795-0.294,1.513-0.438,2.158-0.438
	c0.25-0.019,0.519-0.019,0.807,0c0.663,0.025,1.438,0.131,2.32,0.325c2.657,0.506,6.103,2.195,10.343,5.065
	c1.651,1.219,3.377,2.264,5.171,3.126c0.719,0.288,1.113,0.75,1.188,1.401c0.068,0.5-0.076,0.931-0.438,1.288
	c-0.288,0.363-0.645,0.688-1.076,0.976c-0.356,0.212-0.575,0.356-0.644,0.432c-0.506,0.569-0.506,1.182,0,1.826
	C148.725,26.375,149.414,26.913,150.702,27.851z"/>
</svg>
