<?xml version="1.0" encoding="utf-8"?>
<!-- Generator: Adobe Illustrator 16.0.0, SVG Export Plug-In . SVG Version: 6.00 Build 0)  -->
<!DOCTYPE svg PUBLIC "-//W3C//DTD SVG 1.1//EN" "http://www.w3.org/Graphics/SVG/1.1/DTD/svg11.dtd">
<svg version="1.1" id="Layer_1" xmlns="http://www.w3.org/2000/svg" xmlns:xlink="http://www.w3.org/1999/xlink" x="0px" y="0px"
	 width="300px" height="300px" viewBox="0 0 300 300" enable-background="new 0 0 300 300" xml:space="preserve">
<g>
	<path fill="#030404" d="M171.025,11.831c0.215-0.236,0.389-0.441,0.511-0.614c0.479,0.143,1.594,0.205,3.374,0.205h0.041
		c0.165,0.021,0.306,0.032,0.462,0.051c1.43,0.174,2.442,0.563,3.058,1.178c-0.247,0.86-0.205,1.819,0.101,2.904
		c0.021,0.112,0.062,0.236,0.101,0.357c-0.611,0.268-1.02,0.4-1.225,0.4c-1.146-1.351-2.639-2.138-4.481-2.341
		c-2.034-0.132-3.456,0.685-4.273,2.444c3.529,1.298,6.442,3.642,8.755,7.036c0.02,0.032,0.04,0.063,0.051,0.102
		c1.749,2.689,2.913,5.758,3.518,9.215c0.073,0.479,0.143,0.971,0.205,1.482c0.041,0.306,0.071,0.613,0.101,0.91
		c6.588,0.143,11.709,2.895,15.381,8.252c1.992,2.946,3.732,7.067,5.193,12.384c0.226,0.798,0.45,1.637,0.666,2.495
		c0.184,0.789,0.367,1.604,0.552,2.444c2.383,1.553,3.847,2.545,4.388,2.954c1.563,1.219,2.792,2.444,3.671,3.663
		c0.264-0.133,0.715-0.369,1.329-0.706c0.471-0.347,0.899-0.583,1.308-0.717c0.083,0.133,0.246,0.267,0.513,0.41
		c0.205,0.205,0.274,0.438,0.205,0.705c-0.132,0.277-0.429,0.542-0.91,0.818c-0.614,0.276-0.991,0.48-1.113,0.615
		c0.061,0.337,0.264,0.673,0.603,1.012c0.409,0.48,0.646,0.849,0.705,1.125c0.818-0.409,1.708-0.367,2.659,0.102
		c0.677,0.409,1.288,0.951,1.829,1.626c-0.203,0.144-0.306,0.379-0.306,0.716c-1.084,0-2.003-0.306-2.751-0.919
		c0.145,1.36,0.676,2.443,1.638,3.262c1.351-0.265,2.606,0.143,3.763,1.229c1.084,1.013,1.492,2.107,1.225,3.263
		c-0.755-0.143-1.491-0.583-2.248-1.33c-0.878-0.818-1.628-1.288-2.229-1.422c0.204,1.083,1.146,2.545,2.842,4.377
		c1.564,1.698,2.413,3.323,2.556,4.888c-0.143,0.133-0.347,0.379-0.614,0.715c-0.204,0.205-0.479,0.307-0.819,0.307
		c-0.275-0.347-0.675-1.288-1.227-2.854c-0.41-1.226-0.88-2.106-1.423-2.647c4.203,18.744,6.381,37.284,6.516,55.619
		c0.273,21.189-2.271,39.905-7.63,56.133c3.189,0.88,5.769,2.955,7.73,6.205c2.045,3.264,2.68,6.352,1.944,9.277
		c-0.205-0.134-0.378-0.545-0.513-1.229c-0.144-0.674-0.41-1.113-0.818-1.32c0.141,1.215,0.367,3.262,0.714,6.114
		c0.132,2.447-0.265,4.349-1.228,5.697c-0.062,0.143,0.071,0.206,0.408,0.206c0.266-0.063,0.379-0.031,0.306,0.101
		c-3.333,8.223-9.142,15.146-17.424,20.794c-6.106,4.139-14.521,8.075-25.261,11.811c8.429-1.025,16.568-4.009,24.452-8.96
		c7.127-4.417,12.627-9.449,16.495-15.082c0.408,0.479,0.684,0.233,0.818-0.717c1.024,1.635,0.818,4.108-0.614,7.444
		c-1.625,3.867-2.371,6.484-2.229,7.846c-0.205,0-0.348-0.144-0.409-0.41c-0.073-0.277-0.144-0.442-0.205-0.511
		c-4.214,7.332-9.102,12.937-14.676,16.811c-3.201,2.23-6.533,3.829-10.032,4.786h-0.049c-3.734,1.021-7.639,1.308-11.711,0.86
		c-0.447-0.032-0.89-0.081-1.33-0.144c-4.273,2.506-10.86,4.04-19.757,4.581c-9.993,0.674-16.884,1.729-20.689,3.158
		c-0.315,0.173-0.645,0.339-0.971,0.5c-0.102,0.063-0.205,0.106-0.306,0.166c-5.113,2.556-9.89,4.099-14.306,4.632
		c-0.368,0.032-0.746,0.07-1.113,0.102c-0.481-0.408-1.33-0.818-2.557-1.226c0-0.472-0.337-1.115-1.023-1.938
		c-3.865-0.108-6.361-1.162-7.486-3.157c-0.184-0.348-0.347-0.715-0.451-1.125c-1.768-0.337-3.232-1.145-4.376-2.445
		c-0.757-0.808-1.638-2.196-2.659-4.173c-1.227-0.327-2.537-0.552-3.916-0.664c-1.739-0.153-3.589-0.131-5.554,0.053
		c-0.471,0.07-3.467,0.54-8.959,1.429c-1.555,0.234-3.026,0.369-4.387,0.408l-6.372-0.868c-1.82-0.604-3.364-1.534-4.633-2.803
		v-0.102c0-0.953,0.072-1.695,0.204-2.24c0.133-0.204,0.236-0.305,0.307-0.305c0.336,0,0.542-0.031,0.604-0.104
		c-2.167-0.481-3.906-1.668-5.194-3.57c-1.422-2.105-1.187-3.965,0.716-5.604c-0.268-4.813,1.871-8.59,6.422-11.299
		c4.214-2.516,9.612-3.703,16.197-3.57c3.129-4.825,8.283-6.075,15.481-3.772c1.535,0.513,2.985,1.083,4.336,1.738
		c4.109,1.975,7.424,4.623,9.919,7.946c0.328-0.103,0.716-0.195,1.174-0.305c0.41-0.104,0.892-0.204,1.422-0.307
		c0.154-0.04,0.306-0.07,0.472-0.104c-0.961-0.569-1.881-1.185-2.76-1.829c-3.465-2.578-6.28-5.697-8.446-9.379
		c-0.143-0.224-0.265-0.462-0.409-0.705c-0.206-0.389-0.411-0.778-0.613-1.176c-0.041-0.071-0.062-0.132-0.104-0.204
		c-0.02-0.051-0.061-0.105-0.101-0.154c-0.604-1.287-1.104-2.617-1.535-3.968c-0.246-0.837-0.472-1.686-0.655-2.556
		c-0.531-2.525-0.757-5.175-0.653-7.945c-0.962,0.819-1.403,2.108-1.33,3.874c-1.493,0.819-2.249-0.13-2.249-2.853
		c0-0.541,0.02-1.083,0.059-1.625c0.125-1.585,0.411-3.16,0.86-4.744c0.042-0.115,0.062-0.237,0.103-0.351
		c0-0.142,0.347-0.744,1.023-1.841c0.41-0.88,0.573-1.523,0.511-1.933c-0.347-0.072-0.715,0-1.125,0.204
		c-0.542,0.339-1.055,0.514-1.534,0.514c0.205-3.132,1.576-6.119,4.082-8.972c2.382-2.575,5.37-4.652,8.969-6.217
		c3.662-1.493,7.23-2.139,10.696-1.934c3.804,0.275,6.922,1.594,9.368,3.979c0.223-0.41,0.448-0.819,0.664-1.229
		c3.191-6.04,5.041-12.016,5.553-17.926c0.451-5.011-0.203-9.389-1.941-13.138c-0.891-1.937-2.086-3.703-3.56-5.3
		c-0.061-1.021-0.164-1.799-0.306-2.343c-0.063,0.409-0.205,1.015-0.41,1.833c-0.132,0.743-0.409,1.256-0.818,1.531
		c-2.035-2.106-3.458-5.336-4.273-9.684c-0.164-1.002-0.472-3.652-0.921-7.947c-0.009-0.164-0.03-0.326-0.041-0.511
		c-0.113-1.083-0.225-2.271-0.368-3.56c-2.107,2.301-5.154,5.769-9.164,10.389c-3.537,4.07-6.759,7.158-9.674,9.265
		c-1.903,2.107-5.032,4.593-9.378,7.435c0,1.156-0.072,2.042-0.205,2.648c-0.337,1.021-0.982,1.562-1.934,1.635
		c-0.409-0.336-0.511-0.817-0.305-1.43c0.063-0.267,0.267-0.746,0.614-1.421c-0.675,0.335-1.565,1.461-2.648,3.363
		c-0.951,1.624-2.076,2.403-3.364,2.342c-0.337-0.746-0.164-1.393,0.511-1.944c0.878-0.743,1.36-1.215,1.431-1.423
		c-0.685,0-1.698,0.614-3.066,1.833c-1.219,1.155-2.332,1.668-3.355,1.534c-0.073-0.545,0.132-0.953,0.614-1.227
		c0.613-0.412,0.941-0.647,1.013-0.72c-5.226,0.748-9.173-1.113-11.813-5.593c-0.287-0.473-0.562-0.98-0.818-1.534
		c-1.135-2.361-2.044-5.429-2.7-9.212c-0.215-1.136-0.4-2.343-0.563-3.621c0.521-9.256,2.7-17.2,6.515-23.837l0.409-0.715
		c0-0.265,0.042-0.613,0.102-1.014c0.143-0.347,0.174-0.684,0.104-1.021c5.165-5.912,8.733-14.809,10.695-26.691
		c0.277-1.975,1.288-12.222,3.068-30.761c0.531-1.975,1.718-4.419,3.558-7.342c1.965-3.058,3.191-5.256,3.662-6.616
		c0.347,0.059,0.552,0.337,0.615,0.818c0,0.541,0.041,0.878,0.101,1.013c2.249-1.565,4.929-4.214,8.057-7.946
		c0.205-0.246,0.409-0.479,0.604-0.715c0.051-0.062,0.112-0.132,0.153-0.205l2.189-2.545c0.449-0.511,0.879-0.99,1.268-1.422
		c1.33-1.462,2.33-2.475,3.007-3.058c-1.556,3.468-4.818,8.284-9.778,14.471c-4.746,6.044-8.017,11.033-9.778,14.972
		c0.409-0.073,0.715-0.337,0.92-0.818c0.132-0.604,0.265-1.053,0.409-1.32c0.41-0.073,0.911-0.306,1.525-0.716
		c0.541-0.204,0.982-0.03,1.318,0.513c-0.939,2.107-1.45,3.263-1.523,3.466c-0.409,1.423-0.44,2.711-0.101,3.867
		c0.069-0.063,0.705-1.117,1.934-3.16c0.878-1.36,1.8-1.933,2.76-1.729c-0.41,0.612-0.687,1.423-0.819,2.444
		c-0.205,1.361-0.378,2.239-0.513,2.647c0.472-0.132,1.187-0.541,2.138-1.227c0.951-0.809,1.667-1.319,2.138-1.523
		c1.493-5.707,5.236-9.775,11.208-12.222c6.177-2.515,11.577-1.841,16.197,2.034c2.444-1.361,3.427-3.026,2.945-4.992
		c-0.399-1.767-1.82-3.332-4.274-4.683c-2.372-1.43-4.888-2.208-7.537-2.352c-2.464-0.112-4.488,0.43-6.063,1.637
		c1.431-1.146,3.21-1.934,5.358-2.343c2.506-0.479,5.022-0.336,7.527,0.41c6.053,1.832,8.937,5.359,8.671,10.595
		c3.519-1.563,4.48-4.181,2.844-7.853c-1.556-3.396-4.01-5.697-7.333-6.925c-1.902-0.674-4.551-1.013-7.946-1.013
		c-3.129,0-5.153-0.306-6.115-0.92c0.277-0.277,0.86-0.439,1.739-0.512c0.736,0,1.217-0.233,1.422-0.716
		c9.583,0.073,16.678,3.335,21.292,9.787c1.298-7.404-1.934-12.261-9.686-14.573c-3.19-0.951-6.646-1.29-10.389-1.022
		c-3.599,0.275-6.75,1.052-9.47,2.353c0-0.205-0.103-0.409-0.305-0.614c-0.164-0.174-0.267-0.337-0.306-0.513v-0.101
		c0.072-0.072,0.142-0.143,0.205-0.205c1.985-2.148,4.091-3.845,6.321-5.092c2.311-1.217,5.133-2.239,8.458-3.058
		c0.071,0,0.101,0.071,0.101,0.204s-0.03,0.236-0.101,0.307c1.011-0.879,2.382-0.982,4.068-0.307c2.18,0.89,3.569,1.288,4.182,1.227
		c0.411-0.07,0.921-0.48,1.525-1.227c0.604-0.839,0.993-1.36,1.177-1.575l0.041-0.051l4.49-1.882c1.665-0.42,3.63-0.674,5.899-0.768
		c-0.06-0.889-0.572-1.637-1.513-2.239c-0.962-0.553-2.076-0.889-3.374-1.021c-0.011-0.227-0.032-0.43-0.042-0.615
		c-0.082-0.501-0.163-0.868-0.266-1.114c1.37-1.228,2.72-1.022,4.079,0.604c0.748,0.89,1.771,2.28,3.059,4.183
		c1.903-0.951,3.19-2.28,3.866-3.979c0.276,0.206,0.48,0.306,0.615,0.306c0.41-0.205,0.653-0.306,0.716-0.306
		c0.205,0.747,0.142,1.535-0.205,2.342c-0.613,1.299-0.921,1.973-0.921,2.046c0,0.062,0.175,0.103,0.514,0.103
		c0.274,0,0.409,0.063,0.409,0.205c0.409-0.685,1.083-1.462,2.045-2.35C170.032,12.873,170.615,12.301,171.025,11.831z
		 M172.354,45.146c0.554,0.604,1.228,1.729,2.044,3.356c0.736,1.493,1.319,2.485,1.728,2.954c0.34-0.951,1.22-1.861,2.65-2.751
		c1.697-1.011,2.885-1.799,3.559-2.341c3.068-0.267,6.156,0,9.274,0.819c3.058,0.747,5.503,1.902,7.332,3.468
		c-0.613-2.586-2.005-4.899-4.173-6.935c-2.106-1.965-4.551-3.323-7.342-4.07c-6.514-1.841-11.168,0-13.948,5.502
		c-0.142,0-0.346-0.073-0.613-0.205C172.601,44.8,172.426,44.871,172.354,45.146z M189.575,48.195
		c-4.214-0.471-7.506,0.48-9.878,2.853c3.733-0.951,6.485,0.687,8.242,4.898c0.757,1.697,1.023,3.322,0.819,4.887
		c-0.205,1.698-0.879,2.916-2.035,3.662c1.77-2.853,1.423-5.769-1.021-8.751c-2.445-3.131-5.194-3.641-8.253-1.535
		c2.312,4.48,4.048,8.457,5.195,11.924c1.565,4.551,2.312,8.692,2.25,12.424c5.224-0.674,9.233-3.805,12.017-9.366
		c2.71-5.44,3.059-10.666,1.013-15.697c-0.062-0.337,0-0.501,0.204-0.501c0.276,0.063,0.38,0,0.307-0.204
		C196.671,50.198,193.717,48.675,189.575,48.195z M152.801,26.198c2.517-1.697,5.052-1.433,7.629,0.809
		c0.349,0.274,2.209,2.516,5.604,6.728c0.555-4.346-0.774-7.505-3.966-9.48c-2.986-1.892-6.587-2.198-10.802-0.909
		C151.677,23.957,152.188,24.9,152.801,26.198z M143.016,26.403c2.179,0.337,4.725,1.35,7.64,3.058
		c-0.133-4.213-2.985-6.699-8.55-7.445c-5.369-0.674-9.449,0.379-12.231,3.159c3.262-0.274,5.645-0.368,7.137-0.306
		C139.323,25.001,141.328,25.512,143.016,26.403z M131.818,53.288c3.926,0.892,7.668,2.353,11.198,4.388
		c4.009,2.167,7.108,4.755,9.274,7.741c1.351,0.747,2.62,2.208,3.764,4.377c0.615,1.229,1.493,3.13,2.658,5.707
		c2.024,4.274,4.95,5.532,8.754,3.773c0.265,0.132,0.553,0.44,0.82,0.91c0.336,0.48,0.572,0.789,0.715,0.921
		c0.409-1.156,0.409-2.618,0-4.378c-0.348-1.768-0.348-2.985,0-3.669c1.349,0.41,2.433,1.462,3.251,3.159
		c0.41,0.951,0.881,2.444,1.432,4.479c0.613-1.156,0.879-2.575,0.818-4.273c-0.277-1.975-0.45-3.467-0.513-4.481
		c0.205,0,0.409-0.071,0.614-0.205c0.124-0.072,0.369-0.101,0.704-0.101c2.107,1.829,3.396,4.991,3.877,9.47
		c0.615-1.626,1.083-2.853,1.423-3.67c0.542-1.493,0.716-2.711,0.514-3.662c0.41,0.132,0.604,0.646,0.604,1.523
		c-0.063,0.819,0.102,1.188,0.513,1.125c-0.809-8.355-3.252-16.578-7.323-24.656c-3.405-6.585-8.018-13.313-13.867-20.165
		c-0.409-1.299-1.423-2.138-3.047-2.545c-1.566-0.41-3.061-0.348-4.481,0.205c-0.082,0.205-0.102,0.5-0.102,0.91
		c0.063,0.276,0,0.438-0.205,0.511c2.23,0.818,3.908,2.545,4.991,5.196c0.736,2.853,0.329,5.675-1.225,8.456
		c-2.239,4.009-3.438,6.279-3.56,6.82c-0.756,0.339-1.841,0.952-3.272,1.842c-0.265-0.142-0.736-0.479-1.423-1.024
		c-0.541-0.409-1.156-0.613-1.829-0.613c0,0.073-0.073,0.378-0.205,0.921c-0.141,0.409-0.061,0.673,0.205,0.818
		c-1.431,1.423-3.294,1.861-5.602,1.318c-0.951-0.267-3.09-1.155-6.422-2.647c-2.72-1.216-4.848-1.801-6.423-1.729
		c-2.372,0.062-4.408,1.29-6.105,3.661c1.77-0.41,3.325-0.604,4.695-0.604C127.635,53.021,129.231,53.093,131.818,53.288z
		 M146.789,67.758c-1.156,1.829-2.721,3.118-4.684,3.877c-2.311,0.951-4.081,0.399-5.296-1.637c0-0.133,0.132-0.265,0.409-0.411
		c0.205-0.061,0.305-0.203,0.305-0.398c-0.276-0.277-0.378-0.687-0.305-1.228c0-0.674-0.042-1.125-0.104-1.319
		c-5.235,0.878-9.304,3.936-12.229,9.164c-2.784,5.092-3.734,10.932-2.854,17.527c-0.338,0.339-0.705,0.471-1.116,0.399
		c-0.613-2.649-0.684-5.603-0.205-8.856c0.409-3.2,1.249-6.012,2.537-8.456c-2.372-0.411-4.336-1.768-5.901-4.08
		c-1.36-2.035-2.341-4.685-2.955-7.946c-4.141,2.312-6.935,5.808-8.355,10.492c-1.36,4.346-1.493,9.174-0.399,14.471
		c1.012,5.022,2.944,9.716,5.796,14.062c2.916,4.408,6.29,7.64,10.095,9.674c-1.167,4.551,0.326,6.963,4.48,7.23
		c1.625,0.073,3.252-0.305,4.888-1.114c1.625-0.818,2.75-1.944,3.354-3.364c0-0.071,0.143-0.573,0.41-1.523
		c0.072-0.41,0.246-0.348,0.513,0.205c0.614-0.073,1.052-0.104,1.329-0.104c0.266,0.063,0.542,0.298,0.819,0.706
		c0,1.359-0.347,2.648-1.023,3.876c-0.205,0.204-0.92,1.156-2.148,2.853c4.284,2.648,9.101,2.854,14.471,0.604
		c4.818-1.964,8.417-5.022,10.798-9.164c-0.204-0.073-0.338-0.173-0.398-0.306c2.302-2.034,3.896-5.838,4.784-11.413
		c0.677-6.38,1.351-10.83,2.023-13.346c-0.397-0.062-0.499-0.572-0.297-1.523c0.205-0.881,0.48-1.464,0.808-1.728
		c-2.912,0.878-5.255,0.438-7.022-1.33c-1.291-1.29-2.579-3.672-3.876-7.129c-1.762-4.887-2.844-7.782-3.253-8.661
		c-1.492-3.058-3.292-5.061-5.398-6.012c0.264,0.612,0.306,1.564,0.102,2.854C146.688,66.131,146.646,67.145,146.789,67.758z
		 M128.146,70.509c1.767-2.167,3.016-3.601,3.773-4.273c3.117-2.996,5.932-3.129,8.446-0.41c-0.132,0.41-0.164,0.85-0.103,1.32
		c0.072,0.479,0,1.022-0.205,1.635c2.985-0.275,4.755-2.209,5.296-5.808c-1.082-2.178-3.22-4.009-6.411-5.502
		c-3.057-1.36-6.248-2.034-9.582-2.034c-3.527,0-6.311,0.878-8.345,2.648c-2.25,1.902-3.089,4.683-2.557,8.355
		c0.142,1.145,0.961,2.781,2.454,4.888c1.698,2.313,2.946,3.19,3.763,2.648C125.497,73.434,126.643,72.278,128.146,70.509z
		 M140.672,216.386l-1.627-1.013c-1.707,4.203-1.77,8.754-0.204,13.641c1.564,4.697,3.978,8.02,7.23,9.994
		c-2.106-2.794-3.599-6.118-4.48-9.994C140.643,225.149,140.335,220.934,140.672,216.386z M114.392,111.771
		c-0.205-0.205-0.368-0.306-0.513-0.306c-1.759,8.754-2.444,16.391-2.034,22.917c-0.205-0.132-0.339-0.207-0.411-0.207
		c-0.132,0-0.193,0.103-0.193,0.306c0.265,0.543,0.471,1.43,0.604,2.648c0.205,1.902,0.337,2.923,0.41,3.058
		c0.398,0,0.847-0.174,1.318-0.51c0.479-0.411,0.86-0.646,1.125-0.719c0.063-2.71-0.042-7.435-0.306-14.153
		C114.188,119.234,114.188,114.888,114.392,111.771z M93.203,234.719c-4.213-0.205-8.018,0.646-11.413,2.547
		c-4.141,2.31-6.217,5.676-6.217,10.094c2.106,1.696,4.459,1.76,7.036,0.205c2.783-2.181,4.828-3.67,6.116-4.489
		c0.41,0.276,0.573,0.686,0.511,1.228c0,0.334-0.101,0.951-0.306,1.831c0.531,0,1.596-0.104,3.148-0.306
		c1.229-0.133,2.18-0.104,2.864,0.102c-0.818,0.953-2.25,1.635-4.287,2.035c-2.312,0.408-3.732,0.042-4.284-1.115
		c-1.555,1.963-3.906,3.322-7.025,4.071c-3.395,0.891-5.839,0.479-7.332-1.219c0.267,3.323,2.578,4.583,6.935,3.763
		c1.146-0.265,2.916-0.705,5.297-1.318c1.964-0.543,3.395-0.717,4.273-0.511c-2.718,0.951-4.784,1.696-6.217,2.238
		c-2.444,0.951-4.346,1.872-5.706,2.751c1.083,0.07,2.853-0.03,5.297-0.305c2.179-0.061,3.744,0.334,4.685,1.228
		c-0.808,0.267-2.127,0.44-3.968,0.509c-2.166,0-3.599,0.062-4.273,0.207c0.819,1.829,2.812,2.741,6.013,2.741
		c1.76,0.068,4.54-0.033,8.344-0.3c1.566-0.408,3.805-0.508,6.728-0.307c1.698,0.062,4.315,0.238,7.833,0.5
		c-2.024-6.38,1.065-10.797,9.276-13.228c0-1.77,0.583-3.404,1.728-4.899c0.757-1.013,2.003-2.138,3.774-3.355
		c-3.121-3.057-7.374-5.337-12.732-6.831c-6.659-1.831-10.654-0.408-12.025,4.283c1.697,1.014,3.907,1.861,6.627,2.546
		c1.638,0.397,3.804,0.85,6.524,1.323c0,0.128,0.06,0.404,0.205,0.817c0.133,0.336,0.133,0.54,0,0.613
		c-5.092-0.757-8.765-1.36-11.004-1.844C95.617,239.444,93.468,237.574,93.203,234.719z M120.713,246.236
		c-0.142,0.275-0.174,0.511-0.101,0.715c0.336,0.207,1.423,0.267,3.252,0.207c1.288,0,2.044,0.307,2.249,0.908
		c0.205-0.06,0.265-0.162,0.205-0.305c0-0.197,0.06-0.338,0.206-0.398c0.267-0.073,0.43,0.131,0.513,0.602
		c-7.199,1.771-11.147,2.822-11.823,3.16c-4.355,1.902-6.053,4.859-5.092,8.868c1.146-1.975,3.496-3.398,7.025-4.287
		c1.975-0.602,4.784-1.248,8.456-1.935c-0.143,0.279-0.143,0.481,0,0.616c0.063,0.07,0.236,0.174,0.511,0.306l-1.431,0.409
		c-0.471,0.131-1.023,0.104-1.627-0.103c-3.527,1.082-6.349,2.544-8.456,4.377c-2.985,2.516-2.955,4.855,0.103,7.022
		c1.432-2.648,4.041-4.582,7.842-5.799c3.058-1.021,6.249-1.462,9.582-1.329c-1.637,0-3.538,0.479-5.708,1.43
		c-2.311,1.014-4.213,2.239-5.706,3.663c-1.638,1.493-2.312,2.823-2.045,3.978c0.347,1.349,1.944,2.241,4.787,2.649
		c1.431-2.045,3.066-3.6,4.897-4.696c2.239-1.289,4.652-1.8,7.23-1.522c-0.676,0.278-1.226,0.407-1.637,0.407
		c-0.06,0.133,0.041,0.267,0.306,0.41c0.205,0.131,0.205,0.236,0,0.305c-1.759-0.276-3.425,0.34-4.991,1.833
		c-1.555,1.423-2.229,3.017-2.035,4.784c0.747,0.336,1.627,0.571,2.649,0.717c0.673,0.06,1.666,0.103,2.954,0.103
		c0.41-0.134,0.687-0.276,0.818-0.41c0.339-0.205,0.542-0.407,0.604-0.611c11.351-3.529,25.271-6.075,41.775-7.641
		c1.563-0.541,2.853-1.594,3.876-3.16c1.219-1.901,1.188-3.66-0.101-5.295c-0.072-0.132-0.041-0.268,0.101-0.411
		c0.124-0.061,0.205-0.204,0.205-0.395c-0.083-0.145-0.287-0.383-0.615-0.72c-0.203-0.204-0.306-0.44-0.306-0.715
		c0-0.072,0.103-0.276,0.306-0.613c0.135-0.267,0.103-0.474-0.101-0.604c-1.083,1.145-2.955,1.655-5.604,1.52
		c-2.453-0.13-4.314-0.715-5.602-1.724c0.131-0.546,0.715-0.894,1.728-1.025c0.818-0.132,1.156-0.572,1.021-1.316
		c-1.297,0.262-2.719-0.073-4.285-1.026c-1.696-1.021-2.432-2.179-2.238-3.467c1.36,0.337,3.017,0.337,5,0
		c2.302-0.406,3.6-1.155,3.865-2.239c-0.346,0.278-1.083,0.511-2.248,0.719c-1.014,0.059-1.697,0.232-2.024,0.51
		c-3.947,0.338-8.365,0.092-13.253-0.718c-5.502-1.084-9.674-1.872-12.528-2.342c-4.755-1.636-9.069-2.311-12.936-2.044
		c-4.826,0.408-7.977,2.414-9.47,6.014C120.813,245.828,120.772,246.03,120.713,246.236z M212.595,143.248
		c-2.853,9.366-4.96,15.653-6.311,18.844c-2.862,6.514-6.422,11.505-10.694,14.975c-1.639,0.817-3.569,1.079-5.81,0.817
		c-2.383-0.276-3.877-1.094-4.481-2.446c-2.107-0.542-4.048-1.975-5.808-4.283c-2.578-3.663-3.979-5.636-4.184-5.91
		c-3.998-6.311-7.097-14.257-9.274-23.837c-1.759-8.15-2.78-16.974-3.048-26.485c-1.155,14.336,0.164,27.231,3.968,38.714
		c4.418,13.113,11.577,22.582,21.495,28.42c5.369,0.95,9.95-1.112,13.754-6.217c2.311-3.049,4.755-8.182,7.331-15.377
		c3.263-8.828,5.85-18.104,7.751-27.806c2.025-10.535,3.017-20.137,2.946-28.829c-0.878,8.619-1.759,15.309-2.637,20.063
		C216.369,130.883,214.702,137.336,212.595,143.248z M200.373,136.108c0.543-1.156,0.678-3.048,0.41-5.696
		c-4.284-5.573-7.783-12.906-10.49-22.007c-2.107-6.935-3.909-15.379-5.4-25.371c0.94,11.822,2.371,21.434,4.272,28.828
		C191.609,121.313,195.343,129.391,200.373,136.108z M126.316,109.021c0.878,1.83,0.878,3.048,0,3.662
		c-0.892,0.613-1.697-0.061-2.454-2.035c0.072-0.747,0.274-1.288,0.611-1.625C124.885,108.611,125.497,108.611,126.316,109.021z
		 M212.503,68.27c-0.144,0-0.184,0.031-0.115,0.101c0,0.073,0.032,0.104,0.115,0.104V68.27z"/>
	<path fill="#F7E9A1" d="M177.447,16.31c-0.941-1.043-2.045-1.74-3.314-2.087c-1.073,0.132-2.045,0.625-2.904,1.482
		c3.477,1.423,6.289,3.834,8.467,7.23c2.107,3.324,3.455,7.363,4.07,12.119c5.769,0.142,10.287,2.75,13.547,7.842
		c2.303,3.496,3.836,7.793,4.583,12.896c-1.461-5.317-3.201-9.439-5.193-12.385c-3.672-5.357-8.793-8.109-15.381-8.251
		c-0.032-0.298-0.062-0.604-0.101-0.91c0.174-3.662-0.851-6.953-3.058-9.89c-0.205-0.275-0.431-0.542-0.665-0.808
		c-0.011-0.041-0.031-0.073-0.051-0.102c-2.313-3.395-5.226-5.737-8.755-7.036c0.82-1.76,2.239-2.578,4.273-2.444
		C174.809,14.171,176.301,14.958,177.447,16.31z M171.025,11.831c-0.41,0.472-0.993,1.042-1.718,1.729
		c-0.962,0.888-1.639,1.666-2.046,2.35c0-0.142-0.132-0.205-0.41-0.205c-0.337,0-0.513-0.041-0.513-0.103
		c0-0.073,0.307-0.746,0.921-2.044c0.349-0.809,0.409-1.597,0.204-2.343c-0.061,0-0.306,0.102-0.715,0.305
		c-0.133,0-0.339-0.103-0.614-0.305c-0.676,1.698-1.964,3.026-3.866,3.979c-1.287-1.903-2.311-3.294-3.057-4.183
		c2.31,0.276,4.008,1.196,5.101,2.75c0.736-1.349,1.321-2.342,1.719-2.954c0.687-1.083,1.473-1.596,2.354-1.524
		c0.339,0.277,0.368,0.778,0.104,1.524c-0.348,0.951-0.45,1.604-0.307,1.941C169.102,12.341,170.042,12.033,171.025,11.831z
		 M178.571,15.553c-0.306-1.083-0.348-2.044-0.101-2.905c-0.615-0.615-1.628-1.003-3.058-1.177c0.305,0.01,0.613,0.021,0.919,0.051
		c3.468,0.275,4.347,1.768,2.649,4.478C178.849,15.848,178.715,15.695,178.571,15.553z M202.562,58.287
		c9.059,5.297,13.662,7.977,13.806,8.049c4.949,3.6,8.016,7.843,9.163,12.732c-0.205,0.072-0.572,0.072-1.125,0
		c-0.472-0.133-0.839-0.072-1.117,0.204c-0.205-0.409-0.582-0.819-1.114-1.226c-0.264-0.153-0.49-0.288-0.663-0.41
		c0.327,0.562,0.479,1.146,0.461,1.739c1.073,2.198,1.719,3.69,1.934,4.479c0.808,2.782,0.377,4.858-1.319,6.217
		c-0.347,0-0.685-0.205-1.022-0.614c-0.275-0.479-0.553-0.747-0.818-0.818c0.472,3.731,1.76,12.086,3.866,25.065
		c1.78,10.726,2.926,19.387,3.479,25.974c1.696,20.31-0.616,37.256-6.935,50.834c0.745,1.022,1.654,1.628,2.751,1.829
		c0.133,0.616,0.071,0.894-0.204,0.82c5.573,4.685,7.74,12.057,6.514,22.109c-0.677,5.5-2.842,13.447-6.514,23.834
		c-0.205,2.034-0.786,4.01-1.727,5.901c-1.902,3.742-4.767,7.24-8.57,10.492c-4.131,3.606-8.182,5.849-12.107,6.729
		c-0.89,0.233-2.291,0.336-4.236,0.307c3.5-0.963,6.832-2.561,10.032-4.787c5.575-3.876,10.462-9.48,14.677-16.813
		c0.062,0.073,0.132,0.234,0.205,0.513c0.06,0.267,0.205,0.407,0.408,0.407c-0.143-1.36,0.604-3.977,2.229-7.842
		c1.432-3.336,1.639-5.811,0.614-7.446c-0.132,0.951-0.409,1.198-0.819,0.717c-3.866,5.636-9.366,10.665-16.493,15.084
		c-7.885,4.95-16.024,7.937-24.452,8.958c10.737-3.733,19.154-7.671,25.26-11.813c8.283-5.646,14.091-12.567,17.425-20.79
		c0.071-0.132-0.04-0.164-0.305-0.104c-0.339,0-0.472-0.061-0.41-0.205c0.961-1.35,1.36-3.252,1.229-5.696
		c-0.349-2.854-0.573-4.899-0.716-6.114c0.41,0.204,0.675,0.645,0.819,1.318c0.131,0.688,0.306,1.095,0.513,1.228
		c0.736-2.923,0.102-6.012-1.943-9.273c-1.964-3.254-4.541-5.329-7.732-6.207c5.361-16.23,7.905-34.94,7.63-56.132
		c-0.132-18.335-2.311-36.875-6.514-55.619c0.541,0.541,1.013,1.422,1.422,2.647c0.553,1.565,0.951,2.506,1.229,2.853
		c0.337,0,0.614-0.101,0.818-0.306c0.267-0.339,0.472-0.583,0.615-0.715c-0.144-1.566-0.993-3.19-2.557-4.888
		c-1.697-1.832-2.639-3.293-2.842-4.376c0.603,0.132,1.35,0.604,2.228,1.422c0.758,0.746,1.493,1.186,2.25,1.329
		c0.267-1.155-0.144-2.249-1.227-3.262c-1.156-1.083-2.412-1.493-3.762-1.229c-0.963-0.819-1.494-1.902-1.636-3.263
		c0.745,0.615,1.665,0.921,2.749,0.921c0-0.339,0.104-0.573,0.307-0.716c-0.542-0.675-1.156-1.218-1.83-1.627
		c-0.951-0.471-1.84-0.512-2.659-0.101c-0.06-0.277-0.295-0.645-0.705-1.125c-0.337-0.339-0.54-0.676-0.604-1.014
		c0.122-0.132,0.501-0.338,1.114-0.614c0.479-0.277,0.778-0.541,0.909-0.819c0.073-0.265,0-0.5-0.204-0.705
		c-0.267-0.144-0.431-0.277-0.513-0.41c-0.409,0.133-0.838,0.369-1.309,0.718c-0.614,0.337-1.065,0.572-1.33,0.705
		c-0.879-1.215-2.106-2.443-3.67-3.662c-0.541-0.409-2.005-1.401-4.387-2.954C202.932,59.893,202.745,59.075,202.562,58.287z
		 M128.146,70.509c-1.502,1.77-2.648,2.925-3.467,3.467c-0.819,0.542-2.066-0.336-3.763-2.648c-1.493-2.106-2.312-3.744-2.454-4.888
		c-0.532-3.672,0.306-6.453,2.558-8.355c2.034-1.768,4.817-2.648,8.344-2.648c3.333,0,6.525,0.674,9.583,2.034
		c3.19,1.493,5.328,3.325,6.411,5.502c-0.542,3.599-2.311,5.532-5.296,5.808c0.205-0.613,0.274-1.156,0.205-1.635
		c-0.061-0.472-0.032-0.91,0.103-1.32c-2.516-2.719-5.328-2.586-8.446,0.41C131.162,66.908,129.916,68.339,128.146,70.509z
		 M146.789,67.758c-0.143-0.613-0.101-1.627,0.102-3.058c0.204-1.288,0.163-2.239-0.102-2.853c2.106,0.951,3.906,2.954,5.398,6.012
		c0.409,0.879,1.491,3.774,3.253,8.661c1.297,3.458,2.585,5.839,3.876,7.129c1.768,1.768,4.11,2.208,7.022,1.33
		c-0.325,0.265-0.603,0.847-0.808,1.729c-0.204,0.951-0.101,1.461,0.297,1.523c-0.676,2.517-1.349,6.964-2.023,13.346
		c-0.889,5.573-2.484,9.377-4.784,11.414c0.061,0.132,0.194,0.235,0.398,0.306c-2.382,4.142-5.982,7.199-10.798,9.164
		c-5.37,2.249-10.185,2.044-14.471-0.604c1.226-1.698,1.943-2.649,2.148-2.854c0.676-1.226,1.023-2.517,1.023-3.877
		c-0.275-0.41-0.551-0.645-0.819-0.706c-0.276,0-0.715,0.032-1.329,0.104c-0.267-0.552-0.44-0.615-0.513-0.205
		c-0.265,0.952-0.41,1.452-0.41,1.524c-0.604,1.422-1.729,2.545-3.354,3.364c-1.638,0.809-3.262,1.187-4.888,1.114
		c-4.152-0.265-5.645-2.679-4.48-7.23c-3.805-2.035-7.179-5.266-10.095-9.674c-2.853-4.346-4.784-9.04-5.796-14.062
		c-1.094-5.297-0.961-10.124,0.399-14.472c1.422-4.684,4.214-8.181,8.355-10.492c0.614,3.263,1.594,5.911,2.955,7.945
		c1.565,2.312,3.529,3.67,5.901,4.08c-1.288,2.444-2.128,5.255-2.537,8.457c-0.479,3.252-0.41,6.206,0.205,8.855
		c0.409,0.073,0.777-0.06,1.116-0.398c-0.88-6.595,0.07-12.435,2.854-17.527c2.926-5.228,6.994-8.284,12.229-9.164
		c0.062,0.194,0.104,0.645,0.104,1.319c-0.073,0.542,0.031,0.952,0.305,1.228c0,0.195-0.103,0.337-0.305,0.399
		c-0.277,0.143-0.409,0.276-0.409,0.41c1.215,2.035,2.985,2.586,5.296,1.638C144.068,70.876,145.633,69.587,146.789,67.758z
		 M131.818,53.288c-2.586-0.195-4.183-0.265-4.784-0.195c-1.371,0-2.926,0.195-4.696,0.604c1.697-2.371,3.733-3.6,6.105-3.661
		c1.576-0.073,3.703,0.512,6.422,1.728c3.333,1.492,5.471,2.382,6.423,2.648c2.311,0.542,4.171,0.102,5.603-1.319
		c-0.266-0.143-0.347-0.409-0.205-0.818c0.131-0.542,0.205-0.85,0.205-0.92c0.675,0,1.288,0.205,1.83,0.614
		c0.686,0.542,1.155,0.879,1.422,1.024c1.432-0.892,2.518-1.503,3.273-1.843c0.123-0.542,1.319-2.812,3.56-6.82
		c1.554-2.781,1.964-5.604,1.225-8.457c-1.083-2.648-2.759-4.377-4.99-5.196c0.204-0.073,0.266-0.235,0.204-0.511
		c0-0.409,0.021-0.705,0.102-0.91c1.422-0.552,2.915-0.614,4.48-0.205c1.625,0.41,2.638,1.247,3.047,2.545
		c5.851,6.852,10.462,13.58,13.868,20.166c4.069,8.077,6.512,16.3,7.323,24.655c-0.409,0.062-0.572-0.306-0.514-1.125
		c0-0.879-0.193-1.391-0.604-1.525c0.205,0.952,0.032,2.168-0.513,3.663c-0.338,0.818-0.808,2.044-1.422,3.67
		c-0.48-4.479-1.769-7.639-3.878-9.47c-0.337,0-0.581,0.031-0.704,0.101c-0.204,0.133-0.409,0.206-0.613,0.206
		c0.061,1.013,0.235,2.505,0.512,4.48c0.06,1.697-0.204,3.12-0.818,4.273c-0.552-2.034-1.023-3.527-1.432-4.479
		c-0.818-1.697-1.902-2.752-3.251-3.159c-0.348,0.685-0.348,1.902,0,3.669c0.408,1.76,0.408,3.222,0,4.378
		c-0.143-0.133-0.379-0.439-0.716-0.921c-0.265-0.472-0.553-0.777-0.818-0.91c-3.804,1.76-6.729,0.503-8.754-3.773
		c-1.166-2.578-2.047-4.48-2.66-5.707c-1.146-2.167-2.412-3.63-3.762-4.377c-2.167-2.985-5.267-5.574-9.275-7.74
		C139.486,55.639,135.744,54.177,131.818,53.288z M143.016,26.403c-1.688-0.889-3.692-1.402-6.003-1.534
		c-1.492-0.062-3.876,0.032-7.136,0.306c2.78-2.78,6.862-3.833,12.231-3.159c5.562,0.746,8.415,3.232,8.549,7.445
		C147.74,27.751,145.193,26.74,143.016,26.403z M123.962,27.925c0.042,0.173,0.144,0.339,0.306,0.513
		c0.205,0.205,0.307,0.41,0.307,0.614c2.719-1.298,5.87-2.076,9.469-2.352c3.743-0.267,7.199,0.071,10.39,1.023
		c7.751,2.311,10.982,7.168,9.683,14.572c-4.612-6.453-11.707-9.716-21.291-9.785c-0.206,0.481-0.685,0.715-1.423,0.715
		c-0.878,0.072-1.462,0.236-1.739,0.513c0.961,0.614,2.986,0.919,6.116,0.919c3.395,0,6.043,0.339,7.945,1.014
		c3.322,1.228,5.777,3.529,7.332,6.924c1.638,3.672,0.676,6.29-2.844,7.853c0.265-5.235-2.616-8.762-8.67-10.594
		c-2.504-0.746-5.021-0.89-7.527-0.409c-2.148,0.409-3.926,1.196-5.358,2.342c1.575-1.206,3.599-1.75,6.064-1.638
		c2.648,0.142,5.166,0.919,7.537,2.354c2.454,1.35,3.877,2.914,4.273,4.682c0.479,1.964-0.5,3.631-2.945,4.991
		c-4.621-3.877-10.021-4.55-16.197-2.035c-5.972,2.446-9.715,6.515-11.208,12.222c-0.471,0.204-1.186,0.715-2.137,1.524
		c-0.951,0.687-1.667,1.093-2.139,1.229c0.133-0.41,0.306-1.289,0.513-2.649c0.132-1.021,0.409-1.829,0.819-2.444
		c-0.961-0.204-1.882,0.369-2.76,1.729c-1.229,2.045-1.861,3.099-1.934,3.159c-0.339-1.156-0.306-2.446,0.101-3.867
		c0.072-0.205,0.583-1.36,1.524-3.465c-0.337-0.542-0.777-0.715-1.319-0.513c-0.612,0.41-1.115,0.646-1.523,0.715
		c-0.143,0.268-0.275,0.716-0.41,1.32c-0.205,0.48-0.513,0.746-0.92,0.819c1.76-3.936,5.033-8.928,9.777-14.972
		c4.96-6.188,8.223-11.003,9.778-14.471c-0.676,0.583-1.677,1.594-3.007,3.058C122.245,30.728,123.382,28.857,123.962,27.925z
		 M152.801,26.198c-0.613-1.298-1.124-2.239-1.535-2.853c4.215-1.289,7.813-0.983,10.802,0.909c3.189,1.975,4.521,5.134,3.966,9.48
		c-3.395-4.214-5.255-6.454-5.604-6.728C157.853,24.766,155.317,24.501,152.801,26.198z M149.896,18.098
		c-0.184,0.215-0.573,0.736-1.176,1.576c-0.604,0.746-1.115,1.156-1.524,1.226c-0.614,0.063-2.003-0.337-4.183-1.226
		c-1.688-0.676-3.058-0.573-4.069,0.306c0.07-0.072,0.101-0.174,0.101-0.306s-0.031-0.205-0.101-0.205
		c-3.323,0.819-6.147,1.843-8.458,3.058c-2.229,1.249-4.336,2.944-6.321,5.092c2.783-3.734,6.556-6.453,11.312-8.15
		c4.909-1.738,9.316-1.718,13.243,0.052C149.324,18.774,149.713,18.292,149.896,18.098z M155.397,11.522
		c0.011,0.185,0.032,0.389,0.043,0.615c1.297,0.132,2.412,0.471,3.373,1.021c0.941,0.604,1.454,1.351,1.514,2.239
		c-2.27,0.092-4.233,0.347-5.9,0.768c0.604-0.164,1.235-0.306,1.933-0.409c0.348-0.143,0.716-0.295,1.126-0.459
		c-0.473-0.614-1.462-0.718-2.956-0.306c-0.072-0.205-0.277-0.513-0.613-0.919c-0.205-0.266-0.298-0.677-0.298-1.217
		C154.131,12.279,154.724,11.841,155.397,11.522z M189.575,48.195c4.142,0.48,7.097,2.003,8.857,4.591
		c0.073,0.206-0.032,0.268-0.306,0.206c-0.205,0-0.267,0.163-0.205,0.5c2.045,5.033,1.697,10.257-1.013,15.696
		c-2.781,5.562-6.791,8.692-12.017,9.367c0.062-3.732-0.685-7.874-2.25-12.425c-1.146-3.467-2.884-7.445-5.195-11.923
		c3.058-2.106,5.808-1.594,8.253,1.534c2.443,2.985,2.791,5.901,1.021,8.752c1.156-0.746,1.832-1.961,2.034-3.662
		c0.206-1.564-0.062-3.19-0.818-4.887c-1.759-4.214-4.509-5.85-8.242-4.898C182.069,48.675,185.361,47.724,189.575,48.195z
		 M172.354,45.146c0.071-0.275,0.246-0.348,0.513-0.205c0.266,0.132,0.472,0.205,0.613,0.205c2.78-5.502,7.437-7.341,13.948-5.502
		c2.794,0.747,5.237,2.107,7.341,4.069c2.171,2.035,3.56,4.346,4.174,6.935c-1.829-1.566-4.274-2.719-7.332-3.468
		c-3.118-0.818-6.206-1.083-9.274-0.818c-0.676,0.542-1.861,1.329-3.559,2.34c-1.431,0.891-2.313,1.801-2.649,2.752
		c-0.408-0.471-0.99-1.461-1.729-2.954C173.58,46.874,172.906,45.749,172.354,45.146z M185.299,263.395
		c-0.143,0.144-0.284,0.3-0.408,0.463c-0.612,0.891-1.063,1.432-1.329,1.635c-2.372,1.832-7.711,2.648-15.994,2.446
		c-1.646-0.031-3.169-0.031-4.582,0c-4.479,0.316-8.291,0.727-11.462,1.219c-0.09,0.029-0.174,0.059-0.258,0.102
		c-4.049,1.555-6.941,2.3-8.711,2.236c0.329-0.161,0.655-0.327,0.972-0.5c3.804-1.43,10.695-2.484,20.688-3.158
		c8.896-0.541,15.48-2.075,19.757-4.581C184.41,263.313,184.851,263.365,185.299,263.395z M127.941,276.291
		c4.417-0.533,9.194-2.075,14.305-4.635c-3.549,2.018-6.484,3.399-8.804,4.124C131.144,276.576,129.312,276.754,127.941,276.291z
		 M115.763,270.072c1.125,1.995,3.621,3.051,7.487,3.159c0.687,0.818,1.022,1.462,1.022,1.936c-0.041-0.257-0.152-0.563-0.347-0.909
		c-1.902,0.521-3.651,0.388-5.255-0.409C116.947,273.038,115.986,271.78,115.763,270.072z M124.629,238.699
		c-0.461,0.111-0.848,0.204-1.174,0.305c-2.496-3.323-5.81-5.972-9.921-7.946C118.114,232.88,121.817,235.427,124.629,238.699z
		 M123.758,236.46c0.878,0.645,1.8,1.257,2.76,1.829c-0.164,0.033-0.317,0.061-0.471,0.104
		C125.25,237.758,124.497,237.115,123.758,236.46z M140.672,216.386c-0.339,4.548-0.03,8.764,0.921,12.628
		c0.878,3.876,2.371,7.198,4.479,9.99c-3.252-1.975-5.665-5.298-7.23-9.99c-1.566-4.887-1.503-9.438,0.205-13.644L140.672,216.386z
		 M104.36,261.667c-0.634-0.011-1.298,0.012-1.993,0.053c-1.014,0.129-3.908,0.581-8.653,1.328c-3.107,0.513-5.85,0.674-8.251,0.513
		c1.36-0.043,2.832-0.174,4.386-0.408c5.492-0.893,8.487-1.36,8.959-1.431C100.771,261.533,102.622,261.514,104.36,261.667z
		 M120.713,246.236c0.061-0.206,0.101-0.408,0.101-0.614c1.494-3.598,4.644-5.604,9.47-6.013c3.867-0.266,8.182,0.408,12.937,2.043
		c2.854,0.474,7.027,1.257,12.528,2.343c4.887,0.808,9.306,1.055,13.253,0.719c0.325-0.278,1.013-0.452,2.024-0.513
		c1.163-0.206,1.902-0.44,2.248-0.715c-0.264,1.082-1.564,1.829-3.866,2.237c-1.982,0.337-3.64,0.337-4.998,0
		c-0.194,1.289,0.541,2.447,2.238,3.469c1.565,0.948,2.986,1.288,4.284,1.021c0.132,0.746-0.204,1.186-1.021,1.32
		c-1.014,0.132-1.596,0.481-1.729,1.021c1.288,1.015,3.149,1.596,5.603,1.729c2.648,0.131,4.52-0.38,5.604-1.523
		c0.205,0.134,0.237,0.338,0.102,0.604c-0.204,0.337-0.307,0.544-0.307,0.614c0,0.276,0.103,0.511,0.307,0.716
		c0.327,0.335,0.532,0.571,0.614,0.717c0,0.194-0.082,0.338-0.205,0.398c-0.142,0.142-0.173,0.274-0.101,0.407
		c1.286,1.636,1.318,3.396,0.101,5.299c-1.023,1.564-2.312,2.619-3.877,3.157c-16.504,1.566-30.42,4.11-41.774,7.64
		c-0.062,0.207-0.265,0.408-0.604,0.612c-0.133,0.132-0.41,0.277-0.819,0.411c-1.288,0-2.281-0.041-2.955-0.106
		c-1.022-0.141-1.902-0.377-2.647-0.715c-0.195-1.766,0.479-3.363,2.034-4.782c1.566-1.496,3.232-2.11,4.992-1.832
		c0.205-0.072,0.205-0.174,0-0.307c-0.265-0.142-0.368-0.276-0.306-0.41c0.409,0,0.961-0.131,1.638-0.406
		c-2.579-0.277-4.991,0.233-7.23,1.521c-1.831,1.095-3.467,2.649-4.898,4.695c-2.843-0.406-4.439-1.297-4.787-2.647
		c-0.264-1.156,0.41-2.483,2.046-3.979c1.492-1.421,3.395-2.646,5.706-3.66c2.167-0.951,4.069-1.433,5.707-1.433
		c-3.333-0.131-6.523,0.307-9.582,1.331c-3.804,1.218-6.412,3.147-7.842,5.801c-3.058-2.17-3.089-4.511-0.104-7.024
		c2.107-1.832,4.929-3.293,8.457-4.377c0.604,0.203,1.155,0.234,1.627,0.103l1.43-0.408c-0.275-0.132-0.448-0.233-0.511-0.307
		c-0.142-0.134-0.142-0.338,0-0.613c-3.671,0.687-6.483,1.33-8.456,1.932c-3.53,0.891-5.881,2.313-7.025,4.287
		c-0.961-4.01,0.736-6.967,5.092-8.868c0.676-0.337,4.623-1.39,11.822-3.158c-0.083-0.472-0.246-0.674-0.513-0.602
		c-0.143,0.06-0.205,0.204-0.205,0.396c0.059,0.143,0,0.247-0.205,0.307c-0.205-0.604-0.961-0.91-2.25-0.91
		c-1.83,0.063-2.916,0-3.252-0.204C120.539,246.747,120.567,246.512,120.713,246.236z M93.203,234.719
		c0.265,2.855,2.414,4.726,6.422,5.605c2.24,0.479,5.912,1.083,11.004,1.842c0.133-0.073,0.133-0.277,0-0.613
		c-0.143-0.411-0.205-0.688-0.205-0.82c-2.721-0.471-4.887-0.921-6.525-1.32c-2.72-0.685-4.929-1.532-6.626-2.544
		c1.371-4.694,5.369-6.114,12.024-4.285c5.358,1.494,9.612,3.772,12.731,6.831c-1.77,1.217-3.017,2.343-3.772,3.355
		c-1.146,1.492-1.729,3.127-1.729,4.899c-8.213,2.433-11.3,6.85-9.276,13.229c-3.516-0.266-6.134-0.438-7.833-0.5
		c-2.926-0.206-5.165-0.102-6.729,0.305c-3.804,0.268-6.585,0.37-8.344,0.297c-3.201,0-5.194-0.908-6.013-2.737
		c0.676-0.145,2.107-0.206,4.273-0.206c1.842-0.072,3.16-0.247,3.967-0.513c-0.94-0.891-2.506-1.289-4.685-1.228
		c-2.444,0.278-4.213,0.379-5.297,0.307c1.36-0.881,3.262-1.799,5.706-2.751c1.431-0.545,3.497-1.287,6.217-2.238
		c-0.878-0.208-2.311-0.034-4.273,0.511c-2.382,0.613-4.151,1.054-5.297,1.318c-4.356,0.817-6.668-0.44-6.935-3.761
		c1.493,1.695,3.938,2.106,7.332,1.215c3.121-0.745,5.471-2.106,7.027-4.07c0.551,1.158,1.974,1.523,4.283,1.114
		c2.034-0.396,3.467-1.082,4.287-2.031c-0.687-0.208-1.639-0.235-2.864-0.105c-1.552,0.206-2.618,0.308-3.149,0.308
		c0.206-0.88,0.306-1.495,0.306-1.831c0.062-0.544-0.101-0.951-0.511-1.23c-1.288,0.82-3.332,2.313-6.116,4.49
		c-2.576,1.556-4.928,1.495-7.036-0.203c0-4.418,2.076-7.784,6.217-10.094C85.186,235.365,88.99,234.517,93.203,234.719z
		 M107.724,209.77c-0.041,0.542-0.059,1.084-0.059,1.625c0,2.719,0.756,3.672,2.249,2.853c-0.072-1.766,0.368-3.058,1.33-3.874
		c-0.101,2.771,0.122,5.42,0.653,7.945c-0.123-0.49-0.225-1.003-0.306-1.524c-0.049-0.193-0.101-0.396-0.152-0.613
		c-0.48,0.207-0.952,0.613-1.422,1.228c-0.613,0.809-1.024,1.287-1.227,1.423c-1.493-1.351-2.006-3.66-1.535-6.924
		C107.376,211.181,107.54,210.464,107.724,209.77z M141.339,187.25c-0.215,0.407-0.441,0.817-0.664,1.229
		c-2.446-2.383-5.564-3.704-9.368-3.978c-3.468-0.209-7.037,0.439-10.695,1.932c-3.6,1.564-6.587,3.64-8.97,6.217
		c-2.506,2.855-3.876,5.839-4.081,8.97c0.479,0,0.992-0.175,1.533-0.509c0.41-0.208,0.777-0.28,1.125-0.208
		c0.063,0.408-0.101,1.053-0.511,1.936c-0.675,1.093-1.022,1.695-1.022,1.839c-0.042,0.113-0.063,0.237-0.104,0.351
		c-0.368,0.203-0.777,0.487-1.226,0.867c-0.941,0.747-1.759,1.054-2.434,0.922c0-4.145,1.289-8.121,3.867-11.925
		c2.516-3.53,5.769-6.384,9.777-8.562c4.08-2.169,8.162-3.149,12.23-2.944C134.844,183.508,138.351,184.797,141.339,187.25z
		 M82.711,155.365c0.256,0.556,0.531,1.066,0.819,1.534c2.638,4.478,6.587,6.341,11.812,5.593c-0.073,0.072-0.399,0.308-1.014,0.719
		c-0.479,0.274-0.686,0.683-0.613,1.228c1.024,0.131,2.138-0.38,3.356-1.534c1.371-1.218,2.381-1.834,3.066-1.834
		c-0.073,0.208-0.552,0.679-1.431,1.424c-0.674,0.556-0.848,1.196-0.511,1.944c1.288,0.06,2.413-0.719,3.364-2.342
		c1.083-1.902,1.975-3.028,2.649-3.364c-0.348,0.675-0.552,1.154-0.615,1.422c-0.204,0.61-0.101,1.094,0.307,1.43
		c0.951-0.071,1.594-0.613,1.933-1.635c0.132-0.607,0.205-1.495,0.205-2.648c4.346-2.842,7.477-5.328,9.378-7.435
		c2.916-2.109,6.134-5.195,9.674-9.265c4.01-4.621,7.057-8.089,9.164-10.39c0.143,1.288,0.256,2.475,0.369,3.561
		c-2.024,0.898-3.948,2.187-5.769,3.874c-1.104,1.064-2.371,2.413-3.763,4.071c-0.153,0.184-0.306,0.367-0.46,0.56l-0.256,0.257
		c-0.063,0.114-0.123,0.205-0.205,0.306c-0.941,1.361-2.313,3.467-4.069,6.311c-1.698,2.312-3.395,4.05-5.093,5.197
		c-2.516,3.129-5.439,5.809-8.764,8.056c-3.876,2.576-7.741,4.171-11.608,4.786c-0.276,0-0.512-0.175-0.715-0.514
		c-0.205-0.408-0.378-0.644-0.513-0.716c-0.073,0.133-0.142,0.44-0.205,0.919c-0.143,0.41-0.44,0.572-0.92,0.511
		c-4.624-1.225-7.71-4.784-9.265-10.694C82.895,156.245,82.794,155.805,82.711,155.365z M85.963,118.693
		c-3.814,6.637-5.992,14.582-6.515,23.837c0.164,1.277,0.347,2.485,0.563,3.62c-0.125-0.521-0.226-1.065-0.306-1.636
		c-0.369,0.255-0.799,0.407-1.268,0.462c-0.204-1.495-0.246-3.121-0.103-4.889c0.132-1.901,0.132-3.293,0-4.174
		c2.034-6.657,4.11-11.82,6.216-15.492c0.306-0.275,0.615-0.562,0.91-0.86C85.626,119.268,85.799,118.97,85.963,118.693z
		 M114.392,111.771c-0.205,3.117-0.205,7.463,0,13.038c0.264,6.718,0.369,11.442,0.306,14.153c-0.267,0.072-0.646,0.305-1.125,0.717
		c-0.472,0.337-0.92,0.511-1.318,0.511c-0.073-0.133-0.205-1.155-0.41-3.058c-0.133-1.218-0.339-2.107-0.604-2.649
		c0-0.205,0.062-0.306,0.193-0.306c0.073,0,0.206,0.073,0.411,0.207c-0.411-6.525,0.274-14.165,2.034-22.917
		C114.024,111.465,114.188,111.566,114.392,111.771z M144.948,156.185c-0.214-0.38-0.45-0.758-0.705-1.128
		c-0.542,0.34-0.951,1.023-1.228,2.045c-0.275,1.014-0.573,1.659-0.91,1.936c-2.578-2.853-4.521-6.626-5.809-11.311
		c-1.188-4.267-1.719-8.745-1.637-13.448c0.45,4.294,0.756,6.942,0.919,7.946c0.819,4.348,2.239,7.577,4.273,9.684
		c0.41-0.274,0.687-0.787,0.818-1.531c0.205-0.819,0.347-1.423,0.41-1.834c0.142,0.545,0.246,1.323,0.306,2.343
		C142.86,152.482,144.058,154.249,144.948,156.185z M126.316,109.021c-0.819-0.41-1.431-0.41-1.843,0
		c-0.337,0.337-0.541,0.878-0.611,1.625c0.757,1.974,1.563,2.648,2.454,2.034C127.194,112.067,127.194,110.851,126.316,109.021z
		 M200.373,136.108c-5.03-6.718-8.764-14.796-11.208-24.247c-1.901-7.394-3.332-17.006-4.272-28.828
		c1.491,9.992,3.293,18.437,5.4,25.371c2.71,9.101,6.206,16.433,10.49,22.007C201.051,133.061,200.916,134.955,200.373,136.108z
		 M212.595,143.248c2.107-5.912,3.774-12.365,5-19.359c0.878-4.755,1.76-11.444,2.638-20.063c0.073,8.692-0.919,18.296-2.945,28.828
		c-1.902,9.703-4.489,18.98-7.753,27.804c-2.574,7.198-5.02,12.333-7.329,15.38c-3.807,5.102-8.388,7.167-13.756,6.216
		c-9.916-5.839-17.078-15.309-21.494-28.417c-3.804-11.484-5.123-24.379-3.967-38.716c0.265,9.511,1.288,18.336,3.047,26.485
		c2.18,9.582,5.277,17.528,9.275,23.837c0.205,0.277,1.604,2.249,4.182,5.908c1.761,2.313,3.703,3.745,5.809,4.284
		c0.604,1.351,2.097,2.168,4.481,2.447c2.238,0.264,4.171,0,5.81-0.819c4.272-3.467,7.833-8.459,10.694-14.971
		C207.635,158.906,209.742,152.614,212.595,143.248z M212.503,68.27v0.205c-0.083,0-0.115-0.031-0.115-0.104
		C212.319,68.298,212.359,68.27,212.503,68.27z M125.549,184.908c0.479-0.089,0.972-0.184,1.482-0.254
		c-0.184-0.008-0.348-0.033-0.513-0.051C126.184,184.704,125.865,184.807,125.549,184.908z"/>
</g>
</svg>
