<?xml version="1.0" encoding="utf-8"?>
<!-- Generator: Adobe Illustrator 16.0.0, SVG Export Plug-In . SVG Version: 6.00 Build 0)  -->
<!DOCTYPE svg PUBLIC "-//W3C//DTD SVG 1.1//EN" "http://www.w3.org/Graphics/SVG/1.1/DTD/svg11.dtd">
<svg version="1.1" id="Layer_1" xmlns="http://www.w3.org/2000/svg" xmlns:xlink="http://www.w3.org/1999/xlink" x="0px" y="0px"
	 width="300px" height="300px" viewBox="0 0 300 300" enable-background="new 0 0 300 300" xml:space="preserve">
<g>
	<path fill-rule="evenodd" clip-rule="evenodd" fill="#383635" d="M125.204,116.078c-0.874,8.194-6.338,11.424-16.407,9.702
		c0.772,0.152,1.83,0.892,3.172,2.229c1.735,1.248,4.224,3.356,7.46,6.346c10.683,10.068,17.769,21.125,21.245,33.18
		c1.247,4.346,2.115,8.265,2.608,11.74c0.374,2.863,0.563,5.72,0.563,8.574c0,4.479-0.063,7.214-0.189,8.208
		c-0.374,4.224-1.432,6.212-3.166,5.965c-1.241-0.126-1.868-0.875-1.868-2.235c0.374-1.989,0.627-3.54,0.747-4.66
		c0.747-8.821,0-17.029-2.235-24.609c-0.874-2.854-1.741-5.224-2.609-7.085c-4.724-9.941-9.878-17.705-15.476-23.303
		c-2.609-2.609-4.964-4.598-7.08-5.965c-14.171-9.449-23.924-17.585-29.268-24.417c-2.115-2.736-3.793-5.845-5.034-9.322
		c-1.741-4.724-2.108-8.826-1.121-12.31c0.874-3.596,2.672-6.022,5.407-7.27c2.116-0.987,4.041-1.052,5.776-0.184
		c-1.988,0.747-3.66,2.115-5.028,4.103c-2.989,3.851-3.166,8.694-0.557,14.54l3.913,5.592c3.35,3.729,6.833,5.781,10.436,6.154
		c-1.114-1.621-1.925-3.482-2.425-5.597c-0.868-4.223,0.374-7.701,3.73-10.436l3.546,3.356c2.855,2.236,5.408,3.42,7.637,3.546
		c3.115,0.12,6.585,1.608,10.448,4.471C123.525,109.492,125.45,112.722,125.204,116.078z M142.542,125.033
		c-0.621-1.369-0.558-2.926,0.183-4.662l4.288-8.954l4.293,8.954c0.741,1.735,0.804,3.293,0.178,4.662
		c-0.621,1.494-2.11,2.235-4.471,2.235C144.656,127.268,143.162,126.526,142.542,125.033z M137.691,133.791
		c0-1.983,1.558-3.35,4.66-4.097c1.621-0.254,3.172-0.375,4.661-0.375l4.661,0.375c3.108,0.747,4.659,2.114,4.659,4.097
		c0,2.735-3.102,3.982-9.32,3.729C140.8,137.773,137.691,136.525,137.691,133.791z M243.947,158.771
		c1.495,3.355,2.863,8.144,4.104,14.354l1.493,7.088c1.988,10.688,4.781,18.388,8.385,23.111c2.862,3.725,6.402,5.774,10.625,6.155
		c2.116,0.247,3.978-0.126,5.6-1.12c2.114-1.741,3.229-3.237,3.355-4.477c0.366-1.496,0.311-2.856-0.19-4.098
		c-0.5-1.368-1.494-2.115-2.982-2.236c0.246,2.609,0,4.218-0.748,4.838c-1.487,1.127-3.045,1.127-4.66,0
		c-0.499-0.492-0.804-1.241-0.931-2.229c-0.127-1.001-0.063-1.806,0.19-2.426c0.74-1.487,2.045-2.424,3.913-2.797
		c1.735-0.248,3.293,0.062,4.66,0.93c2.736,1.622,3.977,4.167,3.724,7.648c-0.367,2.609-2.108,4.902-5.217,6.897
		c-4.104,1.986-8.765,1.678-13.983-0.932c-4.47-2.609-7.889-6.902-10.251-12.867c-0.374-0.868-1.305-3.913-2.792-9.131l-2.8-7.828
		c-5.965,15.034-15.16,23.304-27.59,24.786c-3.977,0.499-7.953,0.252-11.938-0.742l-5.026-1.486
		c-3.604-1.622-6.586-3.915-8.955-6.902c-3.47-3.977-5.154-8.829-5.027-14.539c0-5.84,1.861-10.627,5.591-14.356
		c2.363-2.361,4.971-3.729,7.833-4.097c2.609-0.501,4.972-0.127,7.08,1.114c2.368,1.495,3.546,3.546,3.546,6.155
		c0,1.607-0.557,3.294-1.678,5.028l-1.868,2.242c-1.114-3.857-2.976-6.22-5.592-7.088c-2.234-0.866-4.286-0.62-6.148,0.747
		c-3.356,2.483-5.154,5.72-5.407,9.697c-0.253,2.734,0.189,5.401,1.305,8.015c1.861,4.598,5.407,7.638,10.625,9.131
		c3.978,1.116,6.96,1.242,8.948,0.374c0.994-0.374,1.431-0.931,1.304-1.677c0-0.621-0.31-0.931-0.931-0.931
		c-3.229,0-5.654-1.058-7.27-3.173c-1.121-1.488-1.432-2.737-0.932-3.725c0.374-0.499,0.805-0.811,1.305-0.937
		c1.122,0.126,2.299-0.366,3.541-1.489c0.619-0.625,1.493-1.551,2.607-2.797c3.11-3.352,6.029-5.154,8.765-5.401
		c2.735-0.381,5.281,0.302,7.644,2.05c2.361,1.736,3.539,3.977,3.539,6.707c0,0.621-0.063,1.552-0.184,2.793
		c0.12,1.12,0.684,1.684,1.679,1.684c2.734-0.126,5.091-2.179,7.079-6.155c1.621-2.982,2.609-6.091,2.982-9.321
		c0.994-6.212-0.183-12.36-3.539-18.452c-3.357-5.965-8.081-10.506-14.172-13.607c-6.826-3.483-14.659-4.161-23.48-2.053
		c-6.473,1.615-12.12,4.781-16.971,9.506c-4.964,4.851-8.081,10.441-9.321,16.779c-1.362,6.714-1.615,13.172-0.747,19.392
		c1,6.952,3.236,12.917,6.712,17.896c6.345,8.819,15.603,14.912,27.78,18.262c6.212,1.748,11.746,2.552,16.591,2.431h55.181v11.366
		h-49.773c-5.097,0-9.759-0.435-13.981-1.303c-12.677-2.609-22.992-8.019-30.946-16.219c-3.355-3.356-6.155-6.902-8.384-10.625
		c-1.748-2.735-3.356-6.091-4.851-10.067c-2.242-6.213-3.293-12.742-3.166-19.575c0.12-6.831,1.36-13.297,3.723-19.383
		c2.368-6.091,6.402-11.189,12.12-15.286c5.219-3.736,11.247-6.281,18.079-7.649c8.581-1.615,16.653-0.368,24.233,3.729
		C234.816,144.6,240.345,150.69,243.947,158.771z M212.07,80.845c2.736,1.247,4.541,3.673,5.409,7.27
		c0.994,3.483,0.619,7.586-1.115,12.31c-1.248,3.478-2.926,6.586-5.04,9.322c-3.351,4.223-9.259,9.567-17.706,16.033l-11.557,8.384
		c-2.108,1.367-4.477,3.356-7.085,5.965c-5.472,5.598-10.626,13.361-15.471,23.303c-0.867,1.861-1.741,4.23-2.615,7.085
		c-2.234,7.58-2.977,15.788-2.234,24.609c0.126,1.12,0.373,2.671,0.739,4.66c0,1.36-0.613,2.109-1.861,2.235
		c-1.734,0.247-2.792-1.741-3.167-5.965c-0.126-0.994-0.183-3.729-0.183-8.208c0-2.854,0.183-5.711,0.558-8.574
		c0.619-4.596,1.488-8.511,2.608-11.74c3.477-12.056,10.563-23.112,21.252-33.18c3.229-2.99,5.718-5.098,7.459-6.346
		c1.337-1.336,2.394-2.076,3.167-2.229c-10.069,1.723-15.533-1.507-16.407-9.702c-0.248-3.356,1.74-6.586,5.965-9.688
		c3.736-2.862,7.149-4.351,10.258-4.471c3.604-0.126,7.333-2.432,11.184-6.902c3.482,2.735,4.724,6.212,3.729,10.436
		c-0.501,2.115-1.305,3.977-2.425,5.597c3.603-0.373,7.085-2.425,10.441-6.154c1.615-1.863,2.92-3.724,3.914-5.592
		c2.614-5.845,2.425-10.689-0.563-14.54l-5.028-4.103C208.031,79.793,209.962,79.858,212.07,80.845z M147.013,94.827l3.172,0.38
		c1.981,0.494,2.982,1.551,2.982,3.166c0,2.115-2.052,3.103-6.154,2.982c-4.104,0.12-6.149-0.867-6.149-2.982
		c0-1.741,1.058-2.862,3.166-3.356C145.023,94.764,146.018,94.707,147.013,94.827z M142.909,50.272l4.104-7.08l4.293,7.08
		c2.482,5.598,3.103,10.195,1.861,13.798c-1.247,3.729-1.304,5.845-0.19,6.339c1.242,0.621,1.869,0.126,1.869-1.495
		c0.374-2.114,1.057-3.85,2.045-5.217c1.988-2.736,4.851-3.357,8.574-1.863l-2.977,4.104c-1.861,3.724-2.671,8.137-2.431,13.234
		c0,1.988-0.552,3.914-1.672,5.776c-2.243,3.855-6.029,5.78-11.373,5.78c-5.345,0-9.132-1.925-11.374-5.78l-1.671-5.776
		c0.24-5.097-0.558-9.51-2.426-13.234l-2.982-4.104c3.724-1.495,6.586-0.874,8.574,1.863c0.994,1.367,1.672,3.103,2.052,5.217
		c0,1.621,0.684,2.116,2.052,1.495c0.987-0.494,0.867-2.609-0.374-6.339C139.616,60.468,140.3,55.87,142.909,50.272z M121.1,159.708
		c2.482,6.086,3.724,12.552,3.724,19.383c0.133,6.833-0.925,13.362-3.167,19.575c-1.495,3.977-3.103,7.332-4.844,10.067
		c-2.235,3.723-5.034,7.269-8.391,10.625c-8.2,8.2-18.516,13.609-30.939,16.219c-4.23,0.868-8.891,1.303-13.982,1.303H13.722
		v-11.366h55.181l16.59-2.431c12.177-3.35,21.435-9.442,27.78-18.262c3.483-4.979,5.712-10.943,6.712-17.896
		c0.861-6.22,0.62-12.678-0.748-19.392c-1.241-6.338-4.35-11.929-9.321-16.779c-4.851-4.725-10.5-7.891-16.971-9.506
		c-8.815-2.108-16.655-1.431-23.48,2.053c-6.092,3.102-10.816,7.642-14.172,13.607c-3.229,6.092-4.407,12.24-3.546,18.452
		c0.379,3.23,1.367,6.339,2.989,9.321c1.988,3.977,4.35,6.029,7.08,6.155c1,0,1.494-0.563,1.494-1.684
		c-0.126-1.241-0.19-2.172-0.19-2.793c0-2.73,1.248-4.971,3.729-6.707c2.362-1.748,4.908-2.431,7.644-2.05
		c2.735,0.247,5.655,2.05,8.764,5.401c0.494,0.499,1.368,1.43,2.609,2.797c1.241,1.123,2.419,1.615,3.54,1.489l1.311,0.937
		c0.494,0.987,0.183,2.236-0.938,3.725c-1.614,2.115-4.04,3.173-7.27,3.173c-0.621,0-0.931,0.31-0.931,0.931
		c0,0.746,0.437,1.303,1.304,1.677c2.115,0.868,5.098,0.742,8.948-0.374c5.218-1.493,8.764-4.533,10.626-9.131
		c1.121-2.613,1.558-5.28,1.304-8.015c-0.24-3.978-2.051-7.214-5.407-9.697c-1.862-1.367-3.914-1.613-6.149-0.747
		c-2.609,0.868-4.477,3.23-5.591,7.088l-1.868-2.242c-1.121-1.734-1.678-3.421-1.678-5.028c0-2.609,1.184-4.66,3.546-6.155
		c2.115-1.241,4.471-1.615,7.079-1.114c2.862,0.367,5.472,1.735,7.827,4.097c3.736,3.729,5.598,8.517,5.598,14.356
		c0.126,5.71-1.552,10.563-5.028,14.539c-2.495,3.108-5.535,5.406-9.144,6.902c-4.965,2.229-10.563,2.976-16.775,2.229
		c-12.43-1.482-21.688-9.752-27.78-24.786l-2.602,7.828c-1.495,5.218-2.425,8.263-2.792,9.131
		c-2.369,5.965-5.788,10.258-10.259,12.867c-5.218,2.609-9.878,2.918-13.981,0.932c-3.109-1.995-4.851-4.288-5.218-6.897
		c-0.254-3.481,0.988-6.026,3.723-7.648c1.368-0.868,2.926-1.178,4.66-0.93c1.868,0.373,3.167,1.31,3.914,2.797
		c0.379,0.62,0.443,1.425,0.189,2.426c-0.126,1.115-0.494,1.862-1.114,2.229c-1.368,1.127-2.862,1.127-4.477,0
		c-0.741-0.62-0.994-2.229-0.741-4.838c-1.494,0.121-2.495,0.868-2.989,2.236c-0.494,1.241-0.557,2.602-0.189,4.098
		c0.126,1.239,1.254,2.735,3.362,4.477c1.742,0.994,3.603,1.367,5.591,1.12c4.224-0.381,7.764-2.431,10.625-6.155
		c2.362-2.982,4.23-6.648,5.592-10.998c0.868-2.856,1.805-6.897,2.792-12.113l1.311-7.088c1.488-6.712,2.919-11.492,4.287-14.354
		c3.603-8.081,9.131-14.172,16.59-18.269c7.58-4.097,15.66-5.344,24.234-3.729c6.833,1.368,12.861,3.913,18.08,7.649
		C114.705,148.519,118.745,153.617,121.1,159.708z M147.013,205.751c0.873,0,2.052-0.064,3.545-0.184
		c2.483-0.38,4.472-0.811,5.965-1.311c6.213-2.235,8.822-5.16,7.828-8.757c-0.494-1.862-1.926-3.61-4.293-5.226
		c4.103,0.747,6.774,3.363,8.022,7.832c0.994,3.358,0.994,6.46,0,9.323c-1.988,5.59-5.971,9.383-11.938,11.372
		c-5.837,0.987-8.884,1.488-9.13,1.488c-2.983,0.119-6.029-0.373-9.132-1.488c-5.965-1.989-9.941-5.782-11.93-11.372
		c-0.994-2.863-0.994-5.965,0-9.323c1.241-4.469,3.914-7.085,8.017-7.832c-2.368,1.615-3.8,3.363-4.294,5.226
		c-0.987,3.597,1.615,6.521,7.827,8.757C139.869,205.123,143.035,205.625,147.013,205.751z M151.674,143.675
		c-0.128,0.62-0.932,2.545-2.42,5.775c-0.875,1.988-1.19,4.35-0.937,7.085c0.373,2.489-0.064,3.73-1.305,3.73
		c-0.874,0-1.368-0.438-1.489-1.305c0-1.121,0-1.925,0-2.426c0.374-2.614,0.121-4.971-0.746-7.085
		c-1.495-3.23-2.299-5.155-2.426-5.775c-0.367-2.609,1.178-4.104,4.661-4.478C150.495,139.571,152.047,141.066,151.674,143.675z"/>
</g>
</svg>
