<?xml version="1.0" encoding="utf-8"?>
<!-- Generator: Adobe Illustrator 16.0.0, SVG Export Plug-In . SVG Version: 6.00 Build 0)  -->
<!DOCTYPE svg PUBLIC "-//W3C//DTD SVG 1.1//EN" "http://www.w3.org/Graphics/SVG/1.1/DTD/svg11.dtd">
<svg version="1.1" id="Layer_1" xmlns="http://www.w3.org/2000/svg" xmlns:xlink="http://www.w3.org/1999/xlink" x="0px" y="0px"
	 width="300px" height="300px" viewBox="0 0 300 300" enable-background="new 0 0 300 300" xml:space="preserve">
<g>
	<path fill-rule="evenodd" clip-rule="evenodd" fill="#383635" d="M122.413,130.757h2.623l5.246-0.879
		c5.833,0,9.328,0.29,10.499,0.879c1.75,0.872,3.938,2.914,6.56,6.126c-2.332-3.502-3.203-6.852-2.623-10.064
		c0.581-2.332,2.333-5.244,5.245-8.747l2.623-3.502l1.752-4.374l0.881,2.631l4.809,6.56c2.623,4.083,4.082,6.996,4.373,8.748
		c0.291,2.324-0.436,5.246-2.186,8.748c3.201-3.793,5.68-5.98,7.432-6.562c1.75-0.581,5.254-0.581,10.498,0l4.375,0.436l2.184-0.436
		h2.188l-0.436,0.872l-0.881,0.871l-3.49,7.441c-2.924,4.955-4.811,7.731-5.689,8.312c-1.752,1.453-4.957,2.187-9.619,2.187
		c5.535,0.872,8.893,1.897,10.055,3.059c1.459,1.162,3.211,4.083,5.254,8.748l3.49,6.56l1.316,1.751h-0.871l-1.316-0.436
		l-8.309,0.436c-4.375,0.581-7.725,0.436-10.055-0.436c-2.924-1.17-5.109-3.503-6.561-7.005c0.289,1.171,0.871,2.769,1.742,4.818
		c0.879,2.033,1.17,3.793,0.879,5.245c-0.291,1.162-1.896,4.084-4.809,8.747l-4.373,6.561l-0.881,2.188l-0.871-2.623l-4.375-6.561
		c-2.921-3.502-4.519-6.561-4.809-9.184c-0.299-1.17,0.436-4.237,2.187-9.191c-2.042,3.793-4.083,6.125-6.125,7.005
		c-2.042,0.871-5.399,1.017-10.063,0.436l-7.868-0.436l-1.315,0.436h-1.316l0.88-0.88l2.187-3.494l2.187-4.809
		c2.042-4.373,3.938-7.295,5.681-8.747c1.751-1.172,4.818-2.051,9.191-2.631c-5.253,0-8.602-0.726-10.063-2.188
		c-1.751-1.743-3.502-4.664-5.246-8.747l-3.502-6.562l-1.316-1.743h1.316L122.413,130.757z M118.039,125.948h-3.067l-1.751-0.443
		h-1.307l3.938,6.125c1.162,2.333,2.913,5.98,5.245,10.934c1.17,2.333,2.332,3.938,3.502,4.81c1.743,1.752,3.494,2.631,5.246,2.631
		c-2.042,0.291-4.229,1.606-6.561,3.93c-0.581,0.879-2.477,4.374-5.689,10.498l-3.494,7.876l-2.187,2.188v0.436l3.938-0.871
		l3.929,0.436c2.333,0.291,6.271,0.727,11.815,1.307c4.664,0,8.166-1.452,10.498-4.374c-0.589,2.341-0.444,4.955,0.436,7.877
		c0.291,0.58,2.333,3.938,6.125,10.063l3.494,4.374l1.316,2.623l0.436,1.751l0.871,1.307l0.879-2.187l0.436-1.751l2.188-3.059
		c3.793-5.536,5.98-8.748,6.561-9.619c2.914-4.083,3.648-7.876,2.188-11.379c1.172,1.462,3.355,2.769,6.561,3.938
		c2.623,0.3,6.705,0.145,12.248-0.436l5.682-0.871h2.625l3.064,0.871v-0.436l-1.316-1.315l-7.432-15.743l-3.5-4.81
		c-2.334-1.752-4.23-2.624-5.682-2.624c2.621-0.29,4.811-1.605,6.559-3.938c2.332-2.912,4.23-6.415,5.682-10.499l3.938-7.876
		l0.871-1.307l0.881-0.879l-2.188,0.443h-1.75l-3.502-0.443c-5.244-0.581-9.33-0.872-12.24-0.872c-4.666,0-8.168,1.315-10.5,3.938
		c0.871-2.333,0.871-4.81,0-7.44c-0.871-2.622-3.059-5.979-6.561-10.055l-4.811-7.441l-0.879-3.058l-0.871,2.188l-0.871,1.315
		l-1.752,3.494c-3.501,4.083-5.834,7.287-6.996,9.628c-2.631,4.664-3.357,8.457-2.187,11.37c-1.461-1.752-3.647-2.913-6.56-3.502
		c-2.631-0.581-6.561-0.581-11.814,0L118.039,125.948z M60.736,95.333c1.461,0.872,10.499,1.162,27.123,0.872
		c15.453-0.291,28.139,3.639,38.047,11.805l7.441,6.561c1.162-2.033,1.162-5.391,0-10.055c-2.631-12.541-0.145-24.644,7.432-36.306
		c9.038-13.411,13.557-20.852,13.557-22.304c0,1.452,4.373,8.167,13.121,20.117c8.748,11.08,11.814,24.491,9.184,40.244l-1.307,6.56
		c0.289-0.291,1.307-0.581,3.059-0.88c1.75-0.581,3.064-1.46,3.936-2.622c9.039-10.2,21.434-14.727,37.178-13.557
		c17.785,1.461,27.113,1.888,27.994,1.307c-1.17,0.581-5.545,8.167-13.123,22.749c-6.996,13.412-17.348,22.304-31.051,26.677
		c-6.125,2.333-9.625,3.502-10.498,3.502l10.053,4.374c12.543,3.793,22.604,12.541,30.182,26.243
		c7.875,14.573,12.541,22.305,14.002,23.176c-1.17-0.582-10.209-0.582-27.123,0c-15.453,0.589-28.139-3.648-38.049-12.686
		l-8.746-7.433c0,2.922,0.436,6.562,1.307,10.935c2.631,13.122,0.145,25.508-7.432,37.177c-8.457,12.83-12.686,19.973-12.686,21.433
		c0-1.751-4.519-9.336-13.557-22.748c-8.167-12.541-11.08-24.928-8.748-37.177c0-4.954,0.145-8.014,0.436-9.183
		c-3.203,1.751-5.826,3.938-7.868,6.561c-8.747,9.627-20.125,13.847-34.118,12.686c-15.744-1.162-24.201-1.453-25.371-0.871
		c2.042-1.171,6.416-8.901,13.121-23.185c6.416-13.412,15.018-22.014,25.807-25.807c5.544-2.043,8.603-3.785,9.183-5.246
		c-1.452-0.88-4.374-1.896-8.748-3.066c-12.532-2.913-22.45-11.37-29.736-25.362C66.571,104.08,61.907,95.913,60.736,95.333z
		 M53.741,92.266v0.436c0.879,0.88,2.187,2.478,3.938,4.818l3.938,6.115l6.125,13.122c5.245,12.25,10.199,20.708,14.864,25.371
		c4.962,4.664,14.436,6.997,28.429,6.997c-12.822,1.46-21.57,4.083-26.243,7.876c-5.245,4.074-10.635,12.24-16.18,24.49
		c-3.792,8.457-5.979,13.121-6.561,13.993c-0.872,2.34-2.187,4.663-3.938,7.005l-2.187,3.057l-2.623,2.624h0.436v0.436
		c0.581-0.582,1.896-0.871,3.938-0.871l3.501-0.437l23.176,1.308c13.121,1.75,22.748,1.314,28.865-1.308
		c4.083-1.461,7.731-4.373,10.934-8.747c1.461-2.042,3.793-5.98,7.005-11.814c-0.589,2.631-2.042,6.852-4.375,12.686
		c-1.751,5.544-2.332,10.354-1.751,14.437c0.871,6.126,5.391,14.872,13.557,26.242l12.685,19.245l1.752,3.931
		c0.871,1.461,1.16,2.477,0.871,3.067l0.436,0.436c-0.291-0.871,0.58-3.213,2.623-6.998l3.066-6.124l8.313-11.806
		c8.746-11.959,13.555-20.706,14.428-26.241c0.881-4.084,0.145-9.193-2.188-15.309c-3.494-9.038-5.244-13.702-5.244-14.001
		c4.662,11.079,11.223,18.084,19.68,20.997c6.127,2.622,15.744,3.058,28.867,1.308l23.619-1.308l3.492,0.437
		c0.881,0.289,2.043,0.58,3.504,0.871v-0.436h0.436c-0.871-0.291-2.332-1.889-4.375-4.81l-3.938-6.125l-6.115-13.121
		c-5.256-12.242-10.209-20.698-14.873-25.363c-3.213-3.212-8.166-5.397-14.873-6.56c-7.287-0.582-12.25-1.172-14.873-1.752
		c12.543,0,21.725-2.187,27.561-6.56c5.533-4.374,10.932-12.686,16.178-24.935l12.686-24.056c0.58-0.291,1.461-1.162,2.623-2.623
		l-0.436,0.436v-0.436c-0.871,0.59-2.914,0.88-6.125,0.88c-1.453,0.291-3.793,0.436-6.998,0.436l-13.121-0.88
		c-8.166-1.163-13.119-1.743-14.871-1.743c-5.826-0.581-10.791-0.153-14.873,1.307c-4.371,1.171-8.602,3.938-12.678,8.312
		c-4.373,5.245-7.582,9.038-9.625,11.37c5.543-10.208,7.877-18.511,6.996-24.927c-0.873-6.125-5.391-14.872-13.557-26.242
		l-12.686-19.246l-1.742-3.938c-0.881-1.751-1.172-2.913-0.881-3.494l-0.436,0.436c0,0.872-0.727,2.768-2.188,5.682l-3.058,6.125
		l-7.875,10.934c-8.748,12.25-13.702,20.853-14.873,25.807c-1.751,6.706,0.582,16.47,6.997,29.3
		c-3.494-4.374-6.262-7.722-8.304-10.053c-3.792-4.083-7.295-6.997-10.498-8.748c-5.253-2.623-15.163-3.204-29.745-1.751
		l-15.308,1.751H61.18l-3.938-0.436L53.741,92.266z M150.398,17.041l2.186-4.374c1.172-3.502,1.752-5.389,1.752-5.688l0.436,0.436
		V6.979l3.066,8.312l14.428,20.997c2.332,3.204,5.691,7.868,10.063,13.993c3.793,5.536,6.416,10.644,7.877,15.308
		c2.914,9.038,3.059,16.333,0.436,21.868c6.705-7.875,17.061-11.667,31.053-11.37c7.875,0,19.391,1.017,34.555,3.059l10.496,0.879
		l5.246-0.444c1.17-0.29,3.357-0.726,6.561-1.307l-0.436,0.436h0.436c-0.871,0.291-1.75,1.315-2.623,3.058l-3.066,3.938
		l-10.934,22.304c-5.535,14.002-11.08,24.346-16.615,31.061c-4.953,5.826-11.08,9.474-18.375,10.934
		c4.084,0.291,9.191,2.915,15.307,7.869c3.215,2.912,6.709,7.577,10.5,14c3.793,6.697,8.457,17.204,14,31.488l7.867,13.557
		c1.754,2.622,3.068,4.082,3.939,4.373h-0.436l0.436,0.436c-0.871-0.58-2.332-0.871-4.375-0.871l-13.119-0.436
		c-3.504,0-9.039,0.58-16.625,1.751c-16.324,1.743-27.838,2.033-34.545,0.871c-8.166-1.452-14.582-4.954-19.246-10.497
		c3.793,8.455,1.898,19.536-5.688,33.237c-8.748,11.96-15.309,20.998-19.684,27.122l-6.125,9.619l-2.186,4.373
		c-1.453,2.914-2.188,4.81-2.188,5.689l-0.436,0.436l-3.059-8.312l-14.001-20.989c-9.909-12.829-16.034-22.603-18.366-29.309
		c-2.622-8.157-2.767-15.453-0.436-21.867c-6.415,7.875-16.623,11.813-30.615,11.813c-16.333-1.751-27.849-2.922-34.554-3.502
		l-16.179-0.436c-3.212,0-5.253,0.436-6.125,1.307v-0.436h-0.436l3.058-3.059l6.996-10.934c0.581-0.881,2.768-5.979,6.561-15.308
		c7.295-16.034,12.831-26.243,16.624-30.615c5.245-6.416,11.516-10.209,18.802-11.372c-4.665-0.29-9.764-2.922-15.309-7.875
		c-4.374-3.792-7.867-8.457-10.49-13.993L42.37,96.64l-7.875-13.121c-1.453-2.914-2.768-4.519-3.93-4.81H31v-0.436
		c0.581,0.582,1.896,0.872,3.938,0.872l4.809,0.436l24.926-1.307c15.453-2.332,27.123-2.776,34.99-1.316
		c7.876,1.461,14.147,4.964,18.81,10.498c-3.792-8.746-1.751-19.827,6.125-33.237c3.785-6.706,10.491-16.034,20.118-27.994
		L150.398,17.041z"/>
</g>
</svg>
