<?xml version="1.0" encoding="utf-8"?>
<!-- Generator: Adobe Illustrator 16.0.0, SVG Export Plug-In . SVG Version: 6.00 Build 0)  -->
<!DOCTYPE svg PUBLIC "-//W3C//DTD SVG 1.1//EN" "http://www.w3.org/Graphics/SVG/1.1/DTD/svg11.dtd">
<svg version="1.1" id="Layer_1" xmlns="http://www.w3.org/2000/svg" xmlns:xlink="http://www.w3.org/1999/xlink" x="0px" y="0px"
	 width="300px" height="300px" viewBox="0 0 300 300" enable-background="new 0 0 300 300" xml:space="preserve">
<path fill-rule="evenodd" clip-rule="evenodd" d="M3.309,149.917c0-40.3,14.394-74.818,43.18-103.551
	c28.733-28.732,63.25-43.1,103.552-43.1c40.302,0,74.819,14.368,103.551,43.1c28.734,28.733,43.1,63.251,43.1,103.551
	c0,40.302-14.365,74.819-43.1,103.554c-28.732,28.785-63.249,43.18-103.551,43.18c-40.302,0-74.819-14.395-103.552-43.18
	C17.702,224.736,3.309,190.219,3.309,149.917z M65.146,65.023c-23.41,23.411-35.115,51.708-35.115,84.894
	c0,33.188,11.706,61.485,35.115,84.896c23.409,23.463,51.708,35.195,84.894,35.195c33.188,0,61.485-11.732,84.895-35.195
	c23.41-23.41,35.115-51.707,35.115-84.896c0-33.186-11.705-61.483-35.115-84.894s-51.707-35.114-84.895-35.114
	C116.855,29.909,88.556,41.612,65.146,65.023z M118.918,147.718c0-9.178,3.259-17.028,9.777-23.546
	c6.518-6.518,14.366-9.776,23.546-9.776c9.232,0,17.109,3.259,23.628,9.776c6.518,6.518,9.775,14.368,9.775,23.546
	c0,9.179-3.258,17.028-9.775,23.546c-6.519,6.518-14.396,9.777-23.628,9.777c-9.18,0-17.028-3.26-23.546-9.777
	C122.178,164.746,118.918,156.896,118.918,147.718z"/>
</svg>
