<?xml version="1.0" encoding="utf-8"?>
<!-- Generator: Adobe Illustrator 16.0.0, SVG Export Plug-In . SVG Version: 6.00 Build 0)  -->
<!DOCTYPE svg PUBLIC "-//W3C//DTD SVG 1.1//EN" "http://www.w3.org/Graphics/SVG/1.1/DTD/svg11.dtd">
<svg version="1.1" id="Layer_1" xmlns="http://www.w3.org/2000/svg" xmlns:xlink="http://www.w3.org/1999/xlink" x="0px" y="0px"
	 width="300px" height="300px" viewBox="0 0 300 300" enable-background="new 0 0 300 300" xml:space="preserve">
<path fill-rule="evenodd" clip-rule="evenodd" d="M203.077,21.308c0.48,7.441,1.561,17.043,3.241,28.804
	c7.584-2.928,16.491-6.744,26.715-11.448c1.008-1.44,1.729-2.594,2.16-3.457l-0.503,2.664l2.448-1.295l-2.737,3.312
	c-1.631,9.121-3.001,18.675-4.104,28.661c9.794-1.105,19.297-2.521,28.516-4.249l3.241-2.737l-1.08,2.449l2.52-0.504l-3.456,2.161
	c-4.272,9.216-8.09,18.169-11.452,26.858c10.563,1.538,20.164,2.618,28.804,3.241l3.603-1.8l-1.655,1.945
	c0.575,0.143,1.462,0.215,2.664,0.215c-1.586,0.624-2.906,1.08-3.962,1.368l-18.001,22.754l0.144,0.145
	c7.392,3.215,14.307,5.977,20.739,8.281l6.048,2.375l4.178-0.792c-0.288,0.191-0.984,0.648-2.089,1.368l2.376,0.864l-4.105,0.432
	l-8.712,6.194c-4.515,3.167-7.418,5.328-8.714,6.481l-5.833,4.608c2.497,2.112,4.442,3.647,5.833,4.608l17.426,12.602l4.105,0.36
	l-2.376,0.865l2.089,1.511l-4.178-0.791l-6.048,2.16c-7.058,2.688-13.876,5.473-20.452,8.353l-0.431,0.216
	c0.959,1.153,1.633,2.017,2.017,2.593c0.622,0.912,1.633,2.232,3.023,3.961l3.169,4.176c0.19,0.288,3.432,4.272,9.72,11.953
	l4.034,1.369c-1.202,0-2.089,0.07-2.664,0.217l1.655,1.872l-3.744-1.658c-7.394,0.482-16.947,1.562-28.662,3.241
	c3.409,8.737,7.228,17.642,11.452,26.716l3.456,2.232l-2.52-0.432l1.08,2.376l-3.241-2.81c-9.601-1.679-19.105-3.048-28.516-4.104
	c1.006,9.649,2.376,19.178,4.104,28.587c0.336,0.576,1.25,1.656,2.737,3.241l-2.448-1.152l0.503,2.521
	c-0.961-1.44-1.68-2.568-2.16-3.384c-8.689-4.032-17.595-7.85-26.715-11.45c-1.681,11.713-2.761,21.314-3.241,28.805
	c0.24,0.767,0.793,1.99,1.657,3.672l-1.945-1.584c-0.096,0.575-0.144,1.416-0.144,2.521c-0.816-2.017-1.273-3.313-1.367-3.889
	c-7.634-6.386-15.219-12.362-22.756-17.931c-3.36,7.298-6.938,16.272-10.729,26.932c0.094,0.911,0.312,2.231,0.647,3.96
	l-1.369-2.089L166.208,293l-0.287-4.104c-5.377-7.681-11.187-15.457-17.426-23.33c-7.25,9.263-13.01,17.041-17.282,23.33
	L130.997,293l-0.865-2.449l-1.584,2.089l0.864-3.96c-3.121-8.641-6.722-17.619-10.802-26.932
	c-8.305,6.048-15.842,12.025-22.611,17.931l-1.44,3.889l-0.216-2.521c-1.056,0.911-1.68,1.488-1.872,1.729
	c0.864-1.776,1.464-3.05,1.8-3.816c-1.249-12.819-2.425-22.419-3.528-28.805c-10.321,4.08-19.179,7.897-26.572,11.45
	c-0.96,1.439-1.68,2.568-2.16,3.384c0-0.815,0.096-1.655,0.288-2.521l-2.231,1.152l2.52-3.024c1.489-7.969,2.977-17.57,4.464-28.804
	c-9.601,1.056-19.202,2.425-28.804,4.104l-3.168,2.81l1.152-2.232l-2.52,0.288l3.456-2.232c4.225-9.074,8.017-17.979,11.378-26.716
	c-11.666-1.68-21.268-2.759-28.804-3.241l-3.817,1.658c0.577-0.433,1.2-1.058,1.873-1.872l-2.665-0.217l4.032-1.369l17.787-22.683
	l-0.216-0.216c-6.096-2.689-12.961-5.472-20.594-8.353c-2.641-1.009-4.657-1.729-6.049-2.16l-4.105,0.791l2.161-1.511
	c-0.432-0.098-1.249-0.386-2.448-0.865l4.248-0.36l5.185-3.672c1.824-1.345,2.976-2.161,3.456-2.449l8.641-6.48
	c1.249-0.961,3.169-2.496,5.761-4.608c-2.592-2.063-4.584-3.602-5.977-4.608c-2.016-1.776-4.825-3.937-8.426-6.481l-8.641-6.194
	L5.7,132.491l2.448-0.864c-0.768-0.625-1.488-1.08-2.161-1.368l4.105,0.792l6.192-2.375c5.617-2.017,12.434-4.778,20.451-8.281
	l0.216-0.145l-8.065-10.729c-3.552-4.417-6.865-8.425-9.938-12.025l-3.816-1.368l2.665-0.215c-0.864-0.768-1.489-1.417-1.873-1.945
	l3.745,1.8c8.881-0.672,18.506-1.752,28.876-3.241c-3.313-8.689-7.105-17.642-11.378-26.858l-3.456-2.161
	c0.816,0.192,1.656,0.287,2.52,0.287c-0.48-0.768-0.864-1.512-1.152-2.232c1.392,1.152,2.448,2.064,3.168,2.737
	c9.218,1.776,18.819,3.193,28.804,4.249c-1.488-11.521-2.976-21.123-4.464-28.804l-2.52-3.169l2.231,1.295l-0.288-2.664
	c0.192,0.432,0.912,1.583,2.16,3.457c8.929,4.223,17.787,8.04,26.572,11.448c1.151-6.624,2.328-16.226,3.528-28.804
	c-0.577-0.864-1.176-2.135-1.8-3.816c0.288,0.336,0.913,0.936,1.872,1.8l0.216-2.666L96,20.661
	c7.776,6.672,15.314,12.625,22.611,17.857c3.937-8.689,7.537-17.667,10.802-26.932l-0.864-3.961l1.584,2.017l0.865-2.377
	l0.216,4.249c5.041,7.201,10.801,14.931,17.282,23.188c5.472-6.769,11.281-14.499,17.426-23.188
	c0.048-1.919,0.144-3.335,0.287-4.249l0.864,2.377l1.369-2.017c-0.097,0.961-0.313,2.281-0.647,3.961
	c3.6,10.274,7.176,19.251,10.729,26.932c6.288-4.512,13.874-10.465,22.756-17.857c0.19-0.865,0.647-2.208,1.367-4.034
	c0,1.202,0.048,2.089,0.144,2.666l1.945-1.585C204.351,18.475,203.798,19.676,203.077,21.308z M197.101,35.783l-1.8,1.512
	l-0.073-2.305l-1.296,3.386c-5.808,4.993-12.337,10.2-19.587,15.625c-3.791-8.978-6.841-16.753-9.144-23.332l0.504-3.455l-1.152,1.8
	l-0.721-2.16l-0.359,3.672c-5.474,7.825-10.466,14.473-14.978,19.946c-3.457-4.273-8.425-10.921-14.906-19.946l-0.144-3.672
	l-0.864,2.16c-0.479-0.865-0.912-1.464-1.296-1.8l0.72,3.455c-2.304,6.579-5.353,14.354-9.146,23.332
	c-8.544-6.434-15.098-11.641-19.658-15.625c-0.192-0.479-0.576-1.609-1.152-3.386c-0.144,0.529-0.216,1.297-0.216,2.305
	c-0.625-0.479-1.177-0.985-1.657-1.512l1.44,3.24c-0.528,7.585-1.488,15.842-2.88,24.77c-7.729-2.88-15.362-6.145-22.899-9.792
	l-2.016-2.953c0.192,1.249,0.288,1.992,0.288,2.232l-1.872-1.08l2.16,2.737c1.632,8.496,2.88,16.729,3.745,24.698
	c-6.481-0.624-14.714-1.8-24.699-3.527l-2.809-2.376c0.576,1.249,0.864,1.969,0.864,2.16l-2.088-0.577l2.953,2.089
	c3.504,7.394,6.817,15.026,9.937,22.899c-6.481,1.056-14.81,2.041-24.987,2.952l-3.096-1.583l1.369,1.727l-2.089,0.217
	c1.68,0.479,2.76,0.864,3.24,1.152c1.008,1.056,2.353,2.64,4.033,4.752c1.104,1.201,2.209,2.567,3.313,4.105
	c2.017,2.544,3.168,4.056,3.457,4.536c1.104,1.344,1.68,2.088,1.729,2.233c1.296,1.44,2.304,2.76,3.024,3.96
	c-2.208,1.055-5.617,2.496-10.225,4.321c-0.432,0.239-4.753,1.872-12.962,4.896c-1.248-0.144-2.424-0.36-3.528-0.648l1.944,1.368
	c-0.672,0.048-1.392,0.265-2.16,0.648c0.768,0,1.944,0.072,3.528,0.217l5.473,3.96c4.128,2.976,7.033,5.136,8.713,6.481l5.905,4.608
	l-18.218,13.538c-0.241,0.19-0.864,0.647-1.873,1.369c-1.584,0.143-2.76,0.214-3.528,0.214l2.16,0.794l-1.944,1.295l3.528-0.72
	c6.481,2.353,10.729,3.961,12.745,4.825c0.721,0.286,4.202,1.728,10.442,4.32c-0.768,1.343-1.776,2.688-3.024,4.032l-5.041,6.77
	c-0.769,0.912-1.921,2.304-3.457,4.176c-0.768,1.056-2.112,2.617-4.033,4.681c-1.488,0.576-2.568,1.009-3.24,1.296l2.304,0.072
	l-1.584,1.8l3.241-1.583c9.937,0.863,18.218,1.848,24.843,2.952c-2.592,6.624-5.905,14.257-9.937,22.898l-2.953,2.088l2.088-0.503
	c-0.048,0.336-0.336,1.009-0.864,2.015l2.809-2.446c8.929-1.488,17.162-2.618,24.699-3.386c-0.864,8.019-2.112,16.227-3.745,24.628
	c-0.384,0.673-1.104,1.584-2.16,2.736c1.056-0.528,1.68-0.888,1.872-1.081c0,0.049-0.096,0.817-0.288,2.306l2.016-2.953
	c7.297-3.602,14.93-6.89,22.899-9.865c1.392,8.882,2.352,17.139,2.88,24.771c-0.672,1.393-1.152,2.521-1.44,3.385
	c0.48-0.576,1.032-1.129,1.657-1.657c0,1.105,0.072,1.849,0.216,2.232c0.528-1.537,0.912-2.617,1.152-3.24
	c4.032-3.601,10.585-8.81,19.658-15.626c3.745,8.641,6.793,16.394,9.146,23.259l-0.72,3.457c0.432-0.433,0.864-1.008,1.296-1.728
	l0.864,2.015l0.144-3.601c6.481-8.976,11.45-15.625,14.906-19.946c4.512,5.521,9.504,12.17,14.978,19.946
	c0.096,0.817,0.216,2.017,0.359,3.601l0.721-2.015l1.152,1.728l-0.504-3.457c2.353-6.865,5.4-14.618,9.144-23.259
	c8.113,6.048,14.644,11.258,19.587,15.626l1.296,3.24l0.073-2.232l1.8,1.657l-1.512-3.385c0.576-7.969,1.488-16.226,2.735-24.771
	c7.634,2.832,15.315,6.121,23.044,9.865c0.433,0.72,1.08,1.704,1.944,2.953l-0.361-2.306l2.017,1.081
	c-0.959-1.296-1.752-2.209-2.376-2.736c-1.152-6.769-2.352-14.979-3.601-24.628c8.019,0.865,16.274,1.993,24.772,3.386
	c0.48,0.527,1.393,1.343,2.736,2.446l-1.009-2.015l2.305,0.503c-1.873-1.247-2.857-1.943-2.954-2.088
	c-3.167-6.481-6.479-14.113-9.936-22.898c6.241-1.057,14.475-2.041,24.698-2.952l3.241,1.583c-0.528-0.863-0.984-1.463-1.368-1.8
	l2.232-0.072c-1.489-0.672-2.664-1.104-3.528-1.296l-12.386-15.626c-0.288-0.288-1.273-1.633-2.954-4.032l23.188-9.146l3.53,0.72
	l-1.945-1.295l2.232-0.794c-1.631-0.144-2.832-0.214-3.6-0.214l-5.401-3.818c-5.137-3.841-8.017-6.001-8.641-6.48
	c-1.393-0.961-3.362-2.496-5.904-4.608c2.542-2.063,4.512-3.602,5.904-4.608c1.249-1.153,4.128-3.314,8.641-6.481l3.528-2.594
	c0.768-0.575,1.393-1.032,1.873-1.367c0.768,0,1.969-0.073,3.6-0.217c-0.624-0.289-1.367-0.503-2.232-0.648
	c0.914-0.575,1.562-1.032,1.945-1.368c-1.344,0.336-2.522,0.552-3.53,0.648c-6.96-2.544-11.257-4.176-12.888-4.896
	c-5.089-2.112-8.522-3.553-10.3-4.321l11.38-14.834c2.303-2.592,3.623-4.176,3.96-4.752c0.864-0.241,2.039-0.624,3.528-1.152
	l-2.232-0.217l1.368-1.727l-3.169,1.583c-10.273-0.911-18.529-1.896-24.771-2.952c3.025-7.873,6.336-15.506,9.936-22.899
	c0.865-0.673,1.849-1.369,2.954-2.089c-0.528,0.048-1.296,0.241-2.305,0.577l1.009-2.16l-2.736,2.376
	c-9.554,1.68-17.812,2.855-24.772,3.527c1.249-9.553,2.448-17.786,3.601-24.698c1.009-1.249,1.801-2.161,2.376-2.737l-2.017,1.08
	l0.361-2.232L221.368,54c-8.162,3.792-15.842,7.057-23.044,9.792c-1.247-8.544-2.159-16.801-2.735-24.77L197.101,35.783z
	 M180.539,71.499l0.72-2.377c0.192,0.336,0.288,0.817,0.288,1.44l1.153-0.864l-1.081,2.304c0.432,6.001,1.056,11.786,1.871,17.354
	c6.241-2.352,11.715-4.681,16.419-6.984l1.369-2.089l-0.36,1.585c0.623-0.145,1.079-0.36,1.368-0.648l-1.585,1.872
	c-0.96,5.569-1.824,11.426-2.592,17.571c6.288-0.768,12.146-1.657,17.569-2.665c0.29-0.335,0.937-0.864,1.945-1.584l-0.721,1.512
	l1.585-0.432c-1.345,0.816-2.066,1.271-2.16,1.368l-7.057,16.131c6.239,1.151,12.073,1.848,17.498,2.087l2.232-1.007l-1.081,1.224
	h1.584l-1.873,0.864h-0.288c-0.431,0.335-1.08,1.08-1.942,2.233c-1.249,1.393-3.456,4.152-6.625,8.281l-2.448,3.312
	c5.28,2.256,8.977,3.768,11.088,4.536c1.97,0.817,3.722,1.44,5.258,1.874c0.912,0,1.728-0.097,2.448-0.289l-1.296,0.864l1.367,0.505
	l-2.376,0.215c-3.647,2.544-6.36,4.513-8.137,5.906c-2.208,1.488-4.178,3.024-5.904,4.608c2.544,2.112,4.512,3.647,5.904,4.608
	c1.776,1.393,4.489,3.337,8.137,5.832l2.376,0.146l-1.008,0.503h-0.359c0.287,0.337,0.719,0.649,1.296,0.938l-2.448-0.433
	c-2.305,0.864-4.057,1.512-5.258,1.944c-2.111,0.768-5.808,2.279-11.088,4.536c0.384,0.575,1.199,1.656,2.448,3.241
	c1.873,2.641,4.08,5.425,6.625,8.353l1.655,2.305l1.728,0.504l0.721,0.36h-1.584l1.081,1.152c-1.058-0.433-1.802-0.769-2.232-1.009
	c-7.585,0.672-13.42,1.368-17.498,2.088l7.057,16.131c0.094,0.048,0.815,0.504,2.16,1.367l-1.585-0.286
	c0.24,0.72,0.455,1.176,0.648,1.366c-0.961-0.72-1.583-1.247-1.873-1.583c-5.951-1.057-11.809-1.896-17.569-2.521
	c0.768,6.098,1.632,11.93,2.592,17.499l1.585,1.872l-1.368-0.72l0.36,1.584c-0.817-1.056-1.273-1.752-1.369-2.089
	c-5.713-2.688-11.186-5.016-16.419-6.984c-0.815,5.666-1.439,11.45-1.871,17.354l1.081,2.232l-1.153-0.792
	c0,0.673-0.096,1.199-0.288,1.586l-0.72-2.449c-3.793-3.216-8.401-6.864-13.826-10.946c-1.92,4.272-4.129,9.721-6.625,16.347
	l0.504,2.521l-0.791-1.368l-0.577,1.583l-0.072-2.663c-3.024-4.273-6.576-8.954-10.657-14.042
	c-4.033,5.088-7.465,9.769-10.297,14.042c-0.193,0.624-0.288,1.512-0.288,2.663l-0.504-1.583l-1.08,1.368l0.576-2.521
	c-1.536-4.514-3.672-9.962-6.408-16.347c-4.177,3.025-8.785,6.674-13.826,10.946c-0.336,0.432-0.625,1.248-0.864,2.449v-1.586
	l-1.296,1.009l1.081-2.449c-0.528-5.328-1.249-11.113-2.161-17.354c-5.329,2.112-10.681,4.44-16.058,6.984
	c-0.816,1.105-1.272,1.8-1.368,2.089l0.144-1.584l-1.369,0.72c0.816-0.817,1.393-1.439,1.729-1.872
	c1.104-6.193,1.896-12.025,2.376-17.499c-6.049,0.673-11.81,1.513-17.282,2.521c-0.624,0.384-1.272,0.983-1.944,1.8l0.648-1.583
	l-1.584,0.286l2.16-1.367c1.776-3.601,3.313-7.129,4.609-10.586c0.432-0.672,1.032-2.063,1.8-4.176l0.504-1.369
	c-6.145-0.912-11.978-1.608-17.499-2.088c-0.769,0.432-1.536,0.768-2.304,1.009c0.432-0.337,0.792-0.721,1.081-1.152h-1.584
	l2.376-0.864c0.864-0.961,1.464-1.729,1.8-2.305l9.217-11.594c-3.361-1.487-7.057-3.001-11.089-4.536l-5.4-1.944l-2.377,0.433
	c0.241-0.048,0.696-0.36,1.369-0.938h-0.36l-1.296-0.503l2.665-0.146c4.224-2.976,6.913-4.919,8.064-5.832
	c2.064-1.488,4.057-3.023,5.977-4.608c-0.288-0.239-2.256-1.775-5.904-4.608l-8.137-5.906l-2.665-0.215l1.296-0.36l0.36-0.145
	l-1.369-0.864l2.377,0.289c1.536-0.433,3.336-1.056,5.4-1.874c4.033-1.583,7.729-3.095,11.089-4.536
	c-0.432-0.479-1.249-1.585-2.448-3.312l-6.769-8.281c-0.048-0.145-0.648-0.889-1.8-2.233h-0.288l-2.088-0.864h1.584
	c-0.385-0.577-0.745-0.985-1.081-1.224l2.304,1.007c6.961-0.623,12.793-1.319,17.499-2.087l-2.304-5.474
	c-1.537-3.888-3.072-7.44-4.609-10.657l-2.16-1.368l1.584,0.432l-0.648-1.655l1.944,1.728c4.704,0.864,10.465,1.752,17.282,2.665
	c-0.48-5.233-1.272-11.09-2.376-17.571c-0.865-0.816-1.44-1.44-1.729-1.872l1.369,0.648L96,80.284
	c0.24,0.625,0.696,1.321,1.368,2.089c4.272,2.112,9.625,4.439,16.058,6.984c0.912-6.145,1.632-11.93,2.161-17.354l-1.081-2.375
	l1.296,0.936v-1.44c0.192,0.529,0.48,1.321,0.864,2.377c4.561,3.889,9.169,7.513,13.826,10.874
	c2.736-6.338,4.873-11.738,6.408-16.203l-0.576-2.664l1.08,1.368l0.504-1.584c0,1.2,0.095,2.065,0.288,2.592
	c2.832,4.32,6.264,9.025,10.297,14.113c4.081-5.088,7.632-9.793,10.657-14.113l0.072-2.592l0.577,1.584l0.791-1.368l-0.504,2.664
	c2.593,6.817,4.801,12.218,6.625,16.203C172.858,77.811,177.467,74.187,180.539,71.499z M222.951,92.957l0.864-1.512l-2.086,1.872
	c-8.786,1.488-15.147,2.425-19.084,2.809c0.912-7.824,1.849-14.209,2.808-19.154c0.434-0.384,1.009-1.081,1.729-2.089
	c-0.289,0.289-0.743,0.529-1.369,0.72l0.073-1.584l-1.44,2.376c-4.37,2.017-10.225,4.537-17.571,7.561
	c-0.959-5.904-1.729-12.266-2.305-19.083l1.296-2.664c-0.72,0.815-1.175,1.249-1.367,1.296v-1.728l-1.08,2.52
	c-4.416,3.889-9.458,7.824-15.122,11.81c-1.824-4.177-4.2-10.057-7.129-17.642l0.505-2.666c-0.097,0.384-0.385,0.817-0.865,1.296
	l-0.504-1.656c-0.048,0.192-0.144,1.152-0.288,2.88c-4.512,6.24-8.354,11.306-11.521,15.194c-3.505-4.273-7.321-9.336-11.45-15.194
	l-0.145-2.88l-0.576,1.656l-1.008-1.368l0.503,2.737c-1.728,5.136-4.08,11.016-7.057,17.642c-5.569-3.986-10.609-7.921-15.122-11.81
	c-0.336-1.104-0.624-1.945-0.864-2.52c0,0.672-0.048,1.247-0.144,1.728l-1.297-1.296c0.625,1.393,1.057,2.28,1.297,2.664
	c-0.384,4.513-1.128,10.801-2.233,18.867c-6.384-2.305-12.289-4.752-17.713-7.346l-1.584-2.376l0.288,1.584l-1.44-0.72l1.656,2.089
	c1.152,5.472,2.064,11.857,2.736,19.154c-4.465-0.432-10.753-1.369-18.867-2.809l-2.16-1.872l0.792,1.512
	c-0.527,0-1.08-0.12-1.656-0.36l2.16,1.585c1.969,4.032,4.225,9.145,6.769,15.337l0.864,2.448
	c-7.105,0.961-11.857,1.512-14.258,1.657l-4.897,0.503l-0.792-0.503l-1.584-0.648l0.721,0.648l0.288,0.503
	c-0.336,0.145-0.864,0.217-1.584,0.217l2.448,0.864l2.448,2.952c0.192,0.145,0.864,0.889,2.016,2.233
	c1.345,1.872,3.433,4.633,6.265,8.281l1.296,1.584c-5.184,2.255-10.273,4.344-15.266,6.264c-1.393,0.481-2.28,0.768-2.664,0.865
	l-2.521-0.577c0.24,0.288,0.696,0.648,1.368,1.081l-1.583,0.504c0.576,0.144,1.464,0.215,2.664,0.215l0.504,0.505
	c4.225,2.976,7.225,5.136,9.001,6.481c3.649,2.833,5.593,4.369,5.833,4.608l-5.833,4.608c-4.752,3.505-7.753,5.665-9.001,6.48
	l-0.504,0.433l-2.664,0.072l1.583,0.575l-1.368,1.009l2.521-0.503l2.664,0.863c3.985,1.488,9.073,3.576,15.266,6.264l-1.296,1.514
	c-1.824,2.641-3.913,5.425-6.265,8.353l-2.304,2.809c-0.864,0.863-1.513,1.704-1.944,2.521c-0.72,0.047-1.608,0.312-2.665,0.791
	c0.72,0,1.344,0.023,1.872,0.072l-1.296,1.296l1.584-0.72l0.792-0.576l4.897,0.576c4.369,0.335,9.121,0.936,14.258,1.8l-0.864,2.376
	c-3.024,7.105-5.28,12.193-6.769,15.267l-2.16,1.512c0.384-0.047,0.937-0.145,1.656-0.288l-0.792,1.584l2.16-1.943
	c7.921-1.297,14.21-2.232,18.867-2.809c-0.672,7.248-1.584,13.634-2.736,19.154l-1.656,2.087l1.44-0.72l-0.288,1.513l1.584-2.16
	c7.104-3.313,13.009-5.833,17.713-7.562c1.104,8.114,1.849,14.427,2.233,18.939l-1.297,2.592l1.297-1.224
	c0.096,0.479,0.144,1.081,0.144,1.801c0.336-1.199,0.625-2.089,0.864-2.666c5.233-4.416,10.273-8.353,15.122-11.808
	c3.169,7.248,5.521,13.152,7.057,17.713l-0.503,2.735l1.008-1.366l0.576,1.583l0.145-2.736c3.889-5.663,7.705-10.753,11.45-15.266
	c3.409,4.225,7.249,9.313,11.521,15.266c0.145,1.633,0.24,2.546,0.288,2.736l0.504-1.583c0.529,0.72,0.816,1.176,0.865,1.366
	l-0.505-2.735l7.129-17.713c4.896,3.455,9.938,7.392,15.122,11.808l1.08,2.666v-1.801c0.337,0.289,0.793,0.696,1.367,1.224
	c-0.239-0.336-0.671-1.199-1.296-2.592c0.576-6.816,1.346-13.178,2.305-19.083c7.49,3.071,13.347,5.642,17.571,7.705l1.44,2.16
	l-0.073-1.513l1.369,0.72l-1.729-2.087c-0.959-4.944-1.896-11.33-2.808-19.154c3.744,0.431,10.104,1.367,19.084,2.809l2.086,1.943
	l-0.864-1.584c0.097,0,0.674,0.096,1.729,0.288l-2.232-1.512c-2.545-5.233-4.753-10.322-6.626-15.267l-1.08-2.376
	c5.33-0.864,10.01-1.465,14.042-1.8l5.042-0.576l0.864,0.576l1.583,0.72l-1.08-1.368h1.871l-2.663-1.08l-2.089-2.232l-2.015-2.809
	c-2.545-2.928-4.777-5.712-6.697-8.353c-0.432-0.673-0.815-1.177-1.152-1.514c4.8-2.16,9.936-4.247,15.411-6.264l2.446-0.863
	l2.737,0.503l-1.512-1.009l1.728-0.575l-2.735-0.072l-0.577-0.433c-3.167-2.159-6.12-4.32-8.856-6.48
	c-0.336-0.24-2.378-1.776-6.122-4.608l6.122-4.608c0.575-0.434,3.528-2.593,8.856-6.481l0.577-0.505c1.248,0,2.16-0.072,2.735-0.215
	l-1.728-0.504l1.512-1.081l-2.737,0.577c-0.144,0-0.959-0.289-2.446-0.865c-5.476-2.063-10.611-4.151-15.411-6.264
	c0.337-0.336,0.721-0.864,1.152-1.584l10.801-13.25l2.663-1.08h-1.871l1.08-1.368l-2.447,1.151l-5.042-0.503
	c-1.871-0.145-6.552-0.696-14.042-1.657l1.08-2.448c3.025-7.345,5.233-12.457,6.626-15.337l2.232-1.585
	C224.2,92.837,223.625,92.957,222.951,92.957z M188.099,52.92l1.009-2.952l0.217,1.944l1.368-1.295l-1.226,2.88
	c0.48,6.672,1.273,13.801,2.378,21.386c8.017-3.023,14.737-5.833,20.162-8.424l1.728-2.666c-0.095,0.481-0.216,1.105-0.359,1.874
	l1.801-0.793l-2.089,2.376c-1.536,8.737-2.592,15.938-3.169,21.603c7.44-0.864,14.619-1.92,21.531-3.168l2.377-2.016l-0.793,1.655
	c0.527,0,1.152-0.096,1.873-0.288l-2.594,1.657c-2.208,4.752-5.112,11.402-8.712,19.946c6.962,1.201,14.21,2.088,21.747,2.665
	l2.735-1.369l-1.222,1.584l2.015,0.073l-3.025,1.08c-0.624,0.527-1.489,1.512-2.592,2.952l-3.456,4.536
	c-0.432,0.335-1.009,1.08-1.729,2.233l-5.761,7.273l2.378,1.008c3.647,1.632,9.624,4.032,17.932,7.201
	c0.431-0.145,1.462-0.385,3.095-0.72c-0.721,0.384-1.296,0.792-1.729,1.224l1.945,0.432l-3.169,0.432
	c-1.344,0.817-2.255,1.44-2.735,1.873c-4.513,3.167-7.417,5.328-8.715,6.481c-2.16,1.488-4.128,3.024-5.904,4.608h-0.216
	c3.746,2.832,5.786,4.368,6.12,4.608c0.625,0.479,3.528,2.64,8.715,6.48l2.735,1.946l3.169,0.143l-1.08,0.36l-0.865,0.432
	l1.729,0.938l-3.095-0.433c-5.476,1.823-11.452,4.104-17.932,6.841c-0.48,0.384-1.273,0.743-2.378,1.08l13.538,16.994l3.025,1.08
	l-1.009,0.144h-1.006l1.222,1.585l-2.735-1.439c-6.336,0.479-13.588,1.366-21.747,2.663c2.976,7.296,5.882,13.946,8.712,19.946
	l2.594,1.729l-1.873-0.36l0.793,1.729l-2.377-2.088c-6.625-1.057-13.801-2.112-21.531-3.169c0.624,5.905,1.68,13.082,3.169,21.531
	c0,0.097,0.696,0.912,2.089,2.448l-1.801-0.864l0.359,1.944l-1.728-2.592c-4.849-2.306-11.57-5.138-20.162-8.499
	c-1.104,7.442-1.897,14.619-2.378,21.532l1.226,2.736l-1.368-1.225l-0.217,1.945l-1.009-2.954
	c-4.368-3.791-10.057-8.255-17.065-13.394c-3.072,6.865-5.761,13.587-8.064,20.163c0.145,1.104,0.36,2.113,0.647,3.024l-1.152-1.439
	l-0.576,1.655l-0.287-3.023c-5.137-7.201-9.505-13.01-13.106-17.428c-4.705,5.905-9.025,11.715-12.962,17.428l-0.216,3.023
	l-0.648-1.655l-1.08,1.439l0.576-3.024c-2.688-7.345-5.377-14.065-8.065-20.163c-5.953,4.226-11.666,8.689-17.139,13.394
	l-1.007,2.954v-1.945l-1.584,1.368l1.44-2.88c-1.152-10.658-2.041-17.834-2.664-21.532c-7.393,2.881-14.042,5.714-19.947,8.499
	l-1.656,2.592l0.216-1.944l-1.584,0.864c0.816-0.864,1.44-1.682,1.873-2.448c1.248-6.624,2.328-13.803,3.24-21.531l-21.747,3.169
	c-0.384,0.479-1.104,1.177-2.16,2.088l0.792-1.729l-1.872,0.36l2.449-1.729c3.408-7.201,6.265-13.85,8.569-19.946
	c-7.777-1.297-14.978-2.184-21.603-2.663l-2.736,1.439l1.368-1.585h-1.368l-0.721-0.144l2.953-0.864l2.664-3.168
	c1.44-1.729,2.521-3.049,3.241-3.961l2.16-2.809c2.496-3.216,4.32-5.641,5.473-7.272l-2.449-1.08
	c-6.336-2.689-12.242-4.969-17.714-6.841l-3.097,0.433l1.584-0.938l-1.728-0.792l2.88-0.143l17.498-13.035
	c-0.24-0.239-2.185-1.775-5.833-4.608c-1.008-0.768-3.984-2.928-8.929-6.481c-0.912-0.817-1.824-1.44-2.736-1.873l-2.88-0.432
	l0.792-0.289l0.936-0.143l-1.584-1.224c1.632,0.335,2.617,0.575,2.953,0.72c9.362-3.552,15.314-5.953,17.858-7.201
	c1.249-0.481,2.064-0.817,2.449-1.008c-1.153-1.633-2.977-4.058-5.473-7.273l-8.065-9.866c-0.768-0.384-1.752-0.696-2.953-0.936
	l1.872-0.073l-1.151-1.584l2.736,1.369c7.777-0.577,14.978-1.464,21.603-2.665c-2.064-5.568-4.92-12.217-8.569-19.946l-2.449-1.657
	l1.872,0.288l-0.792-1.655l2.16,2.016c7.489,1.249,14.738,2.305,21.747,3.168c-0.864-7.489-1.944-14.69-3.24-21.603
	c-0.865-1.056-1.489-1.848-1.873-2.376l1.584,0.793c-0.145-0.577-0.216-1.201-0.216-1.874l1.656,2.666
	c6.337,3.023,12.986,5.833,19.947,8.424c0.623-3.6,1.512-10.73,2.664-21.386l-1.44-3.025l1.584,1.44v-1.944l1.007,2.952
	c6.529,5.425,12.242,9.866,17.139,13.322c2.688-5.904,5.376-12.578,8.065-20.018l-0.576-3.24l1.08,1.655l0.648-1.8l0.216,3.169
	c4.128,5.952,8.449,11.712,12.962,17.282c3.504-4.321,7.873-10.082,13.106-17.282l0.287-3.169l0.576,1.8l1.152-1.655l-0.647,3.24
	c2.399,6.72,5.088,13.394,8.064,20.018C176.89,62.018,182.578,57.577,188.099,52.92z M182.987,130.259l3.385-0.504l0.647-1.368
	h-0.864l0.504-0.505l-1.513-0.36L182.987,130.259z M188.099,139.116l-1.079,0.647l3.24,0.576l0.937-1.224l0.144-0.145h-0.864
	l0.721-0.575l-1.585-0.648L188.099,139.116z M182.555,139.116l0.936-2.594l0.289-0.36l0.145-0.72l-0.505-0.287l-3.168-1.08
	l-2.737,4.247c0.432,0,1.969,0.264,4.609,0.793H182.555z M183.419,142.717l-3.816,3.384c1.872,0.768,3.36,1.512,4.465,2.232
	l2.088-2.664l0.217-0.072l0.144-0.434l-0.576-0.575L183.419,142.717z M192.852,150.422l-0.791-0.217l0.791-0.287l-1.296-1.08
	l-3.168,1.367l3.168,1.296C191.845,151.117,192.276,150.757,192.852,150.422z M183.419,157.551l2.521-1.945l0.576-0.575
	l-0.144-0.217l-2.305-2.664l-4.465,2.089l0.648,0.575C180.923,155.486,181.979,156.398,183.419,157.551z M183.49,163.743
	l-0.936-2.449v-0.072l-5.041,1.01l2.737,4.176l3.168-1.295l0.505-0.361l-0.145-0.576L183.49,163.743z M190.26,159.926l-3.24,0.505
	l2.592,2.16l1.585-0.792l-0.504-0.505h0.504C191.148,161.103,190.837,160.646,190.26,159.926z M186.875,171.521l-0.503-1.009
	c-2.113-0.24-3.241-0.36-3.385-0.36c0.576,0.433,1.009,0.888,1.296,1.369l0.863,1.295l1.513-0.359l-0.504-0.504h0.864
	L186.875,171.521z M117.458,118.665l0.288,0.648l-0.576-0.145l0.072,1.656l3.169,1.081l-1.296-3.097L117.458,118.665z
	 M138.701,109.52v-1.081l-1.296-1.08l-0.216,0.793l-0.289-0.576l-0.647,1.512l2.016,2.377
	C138.269,110.985,138.413,110.336,138.701,109.52z M118.322,127.018l-0.144,0.503l0.432,3.097l5.113,0.503
	c0-0.144-0.288-0.959-0.865-2.447l-0.863-2.377c-1.057,0.191-2.113,0.288-3.169,0.288L118.322,127.018z M110.401,128.675l0.289,1.08
	l3.313,0.504l-1.945-2.737l-1.512,0.36l0.36,0.505h-0.72L110.401,128.675z M143.67,112.256l-0.576,0.504l-1.873,2.449l3.24,3.96
	l2.161-4.681l-2.448-1.943L143.67,112.256z M147.342,107.144l1.153,3.24l1.368-3.24l-0.936-1.151l-0.432,0.647l-0.073-0.647
	L147.342,107.144z M126.604,111.753l0.288,0.72l-0.576-0.433l-0.288,1.585l2.521,1.872l-0.072-1.872l-0.217-1.152L126.604,111.753z
	 M133.588,115.425l-1.008,2.736l-0.216,0.216l4.176,2.809l0.864-4.969l-2.952-1.224l-0.504-0.145L133.588,115.425z M129.124,120.249
	c-1.44-0.288-2.472-0.432-3.096-0.432h-0.792l-0.145,0.577c-0.096,0.672-0.216,1.801-0.36,3.384c1.68,0.384,3.313,0.937,4.896,1.657
	l-0.504-5.041V120.249z M130.348,125.649h-0.504l-0.216,0.505v-0.505l-5.112,0.505l-0.504,4.968h0.504l-0.504,0.216v0.577
	l-0.144-0.505l-4.825,1.585c0.048,0.864,0.265,2.04,0.648,3.527l0.432,1.585h0.289l-0.289,0.215v0.505l-0.216-0.432l-0.865,0.72
	c-1.2,0.575-2.28,1.319-3.24,2.232c0.192,0.72,0.816,2.136,1.873,4.249l0.071,0.287l0.576-0.215l-0.288,0.432l0.144,0.503
	l-0.432-0.359l-3.24,3.961l3.24,3.816l0.432-0.359l-0.144,0.576l0.288,0.287l-0.576-0.071l-0.071,0.359
	c-1.009,1.823-1.633,3.192-1.873,4.105c0.768,0.575,1.849,1.366,3.24,2.375l0.865,0.505l0.216-0.288v0.504l0.289,0.217h-0.289
	c-0.288,0.575-0.432,1.079-0.432,1.512c-0.048,0.863-0.264,2.017-0.648,3.456c2.065,0.624,3.673,1.225,4.825,1.802l0.144-0.506
	v0.506l0.504,0.143h-0.504l0.504,5.041l5.112,0.503v-0.503l0.216,0.503h0.504l-0.504,0.217l1.656,4.681l5.041-0.864l-0.216-0.504
	l0.36,0.504l0.504-0.217l-0.289,0.289l2.665,3.889l0.288,0.36l4.537-2.089l-0.216-0.505l0.288,0.288l0.577-0.144l-0.36,0.36
	l3.816,3.241l4.033-3.241l-0.36-0.36l0.576,0.144l0.288-0.288l-0.216,0.288l4.536,2.306l2.952-4.249l-0.503-0.289l0.503,0.217
	l0.288-0.504v0.504l4.897,0.864c0.383-0.864,0.983-2.425,1.799-4.681l-0.359-0.217h0.433l0.216-0.503v0.503l5.112-0.503l0.072-2.664
	c0.144-0.528,0.216-1.32,0.216-2.377h-0.288l0.288-0.143l0.216-0.506l0.071,0.506c1.057-0.481,2.642-1.081,4.755-1.802l-0.865-4.968
	h-0.505l0.505-0.217l-0.145-0.504l0.289,0.288l4.248-2.88l-2.377-4.465l-0.287,0.071l0.287-0.287l-0.287-0.576l0.503,0.359
	l3.169-3.816l-3.385-3.961l-0.287,0.359l0.287-0.503l-0.287-0.432l0.287,0.215l0.216-0.287l2.161-4.249l-3.384-2.232l-0.864-0.72
	l-0.289,0.432l0.145-0.505l-0.505-0.215h0.505l0.865-4.825c-1.058-0.527-2.642-1.151-4.755-1.872l-0.071,0.505l-0.216-0.577
	l-0.288-0.216h0.288c0-1.055-0.072-1.872-0.216-2.447l-0.072-2.521l-5.112-0.505v0.505l-0.216-0.505h-0.433l0.359-0.215
	c-0.72-2.112-1.319-3.648-1.799-4.609c-1.536,0.096-3.169,0.36-4.897,0.792v0.577l-0.288-0.577l-0.503,0.143l0.503-0.36l-2.447-3.24
	l-0.505-0.864l-1.729,0.864c-0.576,0.192-1.512,0.648-2.808,1.368l0.216,0.288l-0.288-0.288l-0.576,0.217l0.36-0.432l-4.033-3.24
	c-0.433,0.479-1.176,1.176-2.232,2.087l-1.584,1.153l0.36,0.432l-0.577-0.217l-0.288,0.288l0.216-0.503l-2.952-1.153l-1.584-0.864
	l-0.792,0.864l-2.161,3.24l0.289,0.36l-0.504-0.143l-0.36,0.577l0.216-0.577c-2.016-0.479-3.696-0.744-5.041-0.792l-1.656,4.609
	L130.348,125.649z M168.874,112.473l-0.217,1.152c0,0.912-0.073,1.536-0.216,1.872c0.815-0.479,1.68-1.104,2.592-1.872l-0.145-1.585
	l-0.575,0.433v-0.72C169.641,111.992,169.161,112.232,168.874,112.473z M159.801,107.359l-1.369,1.08l0.504,3.314l1.872-2.666
	l-0.504-1.512l-0.503,0.576V107.359z M153.535,112.256l-3.168,2.232l2.376,4.681l3.24-3.96l-1.872-2.449L153.535,112.256z
	 M163.257,114.848l-0.721,0.145c-1.776,0.768-2.761,1.176-2.952,1.224l0.937,4.969l1.367-0.792c0.239-0.145,1.153-0.817,2.737-2.017
	v-0.216l-1.009-2.736L163.257,114.848z M151.446,128.675c0.385,4.368,0.625,6.984,0.721,7.848c1.776-2.16,3.337-4.344,4.681-6.552
	l-1.225,8.137l6.265-5.185c-0.335,0.625-0.936,1.825-1.8,3.6l-1.656,3.817l7.489-3.529c-0.432,0.432-1.081,1.2-1.944,2.305
	l-3.385,4.032l8.282-1.368c-2.354,1.392-4.153,2.664-5.401,3.817l-1.368,1.006l8.137,0.648c-2.354,0.721-4.92,1.705-7.705,2.953
	l7.705,2.736l-8.137,0.721l1.368,1.151c1.008,0.721,2.809,1.97,5.401,3.746c-4.081-0.769-6.841-1.227-8.282-1.369l5.329,6.192
	l-4.753-2.089c-0.721-0.432-1.633-0.815-2.736-1.151l1.656,3.601c0.624,1.488,1.224,2.712,1.8,3.672l-6.265-5.184l1.225,8.136
	c-1.152-1.92-2.688-4.128-4.608-6.624l-0.072-0.072v0.072c-0.096,0.768-0.336,3.359-0.721,7.777h-0.071
	c-1.248-3.266-2.209-5.714-2.88-7.346l-2.736,7.346l-0.864-7.777l-4.753,6.624c0.625-2.88,1.057-5.089,1.297-6.624l0.215-1.512
	l-6.336,5.184c0.624-1.393,1.2-2.616,1.728-3.672l1.152-2.449c0.048-0.336,0.216-0.72,0.503-1.151l-7.488,3.24
	c0.912-0.911,1.536-1.609,1.872-2.089l3.241-4.104c-2.16,0.289-4.776,0.744-7.849,1.369l6.48-4.897l-8.065-0.721l7.777-2.736h-0.216
	c-2.736-1.152-5.257-2.135-7.561-2.953l8.065-0.648c-0.192-0.238-0.648-0.575-1.368-1.006c-1.152-1.008-2.856-2.281-5.112-3.817
	l7.849,1.368c-1.584-2.113-2.665-3.457-3.241-4.032c-0.144-0.241-0.768-1.009-1.872-2.305l7.488,3.385l-1.656-3.674
	c-0.336-0.575-0.913-1.775-1.728-3.6l6.336,5.185l-0.215-1.585c-0.577-2.88-1.009-5.064-1.297-6.552l4.753,6.552l0.864-7.848
	l2.736,7.488c1.248-3.36,2.208-5.856,2.88-7.488H151.446z M176.794,121.906l2.952-1.081l0.145-0.432v-1.225l-0.505,0.145
	l0.217-0.648l-1.583,0.144L176.794,121.906z M171.897,120.394l-0.072-0.577h-0.503c-0.865,0-1.993,0.144-3.385,0.432v0.145
	c-0.097,1.007-0.216,2.688-0.36,5.041c1.487-0.72,3.096-1.273,4.825-1.657l-0.289-3.384H171.897z M178.163,126.586
	c-1.009,0-2.042-0.097-3.097-0.288l-1.802,4.824l5.114-0.503c0.191-0.479,0.287-1.128,0.287-1.944l0.217-1.153v-0.503
	L178.163,126.586z M137.405,184.05l-0.864-5.041c-0.479,0.528-0.936,0.817-1.368,0.864l-2.809,2.089l0.433,0.72
	c0.047,0.335,0.312,1.08,0.792,2.232l0.36,0.503L137.405,184.05z M144.461,181.169l-1.368,1.513c0,0.096-0.625,0.936-1.873,2.521
	l1.873,2.375l0.576,0.431l2.952-2.231c-0.288-0.816-0.744-1.848-1.368-3.096L144.461,181.169z M122.858,171.521
	c0.577-1.393,0.865-2.187,0.865-2.377l-5.113,0.504c-0.048,0.336-0.144,0.96-0.288,1.873l-0.144,1.295l0.144,0.649l0.504,0.143
	l3.169,0.36C122.475,172.624,122.763,171.807,122.858,171.521z M126.027,180.593l3.096-0.504v-0.216l0.504-4.969l-4.896,1.729
	l0.36,3.239l0.145,0.575L126.027,180.593z M128.548,184.697c-0.48,0.384-1.296,1.032-2.448,1.945h-0.072l0.288,1.583l0.576-0.287
	l-0.288,0.576c0.576-0.048,1.128-0.24,1.656-0.576l0.217-1.296L128.548,184.697z M147.342,193.05l1.08,1.297l0.073-0.72l0.432,0.72
	l0.936-1.297l-1.368-3.023L147.342,193.05z M138.701,191.897v-1.079c-0.288-0.961-0.432-1.655-0.432-2.088l-2.016,2.447l0.647,1.586
	l0.289-0.505l0.216,0.72C137.549,192.836,137.981,192.475,138.701,191.897z M178.666,171.521c0-0.673-0.096-1.297-0.287-1.873
	l-5.114-0.504l1.802,4.824l3.313-0.36l0.504-0.143v-0.649L178.666,171.521z M171.897,179.873h0.216l0.289-3.239l-4.825-1.729
	c0.145,1.152,0.264,2.809,0.36,4.969v0.216l3.385,0.359h0.503L171.897,179.873z M179.603,181.673l-0.217-0.72l0.505,0.216v-1.296
	l-0.145-0.288l-2.952-1.296l1.226,3.168L179.603,181.673z M152.743,181.169c-0.144,0.192-0.385,0.695-0.721,1.513l-1.656,3.096
	l3.168,2.231l0.576-0.359l0.648-1.007c0.671-0.865,1.08-1.345,1.224-1.439c-1.008-1.298-1.704-2.138-2.088-2.521L152.743,181.169z
	 M164.625,181.962l-2.737-2.089c-0.576-0.336-1.031-0.624-1.367-0.864l-0.937,5.041l2.952,1.224l0.721,0.144l0.359-0.503
	c0.24-0.913,0.553-1.657,0.937-2.232L164.625,181.962z M159.801,192.979v-0.72l0.503,0.505l0.504-1.586l-1.872-2.447l-0.504,3.167
	L159.801,192.979z M168.441,184.697c0.143,0.384,0.216,1.032,0.216,1.945l0.217,1.296l1.439,0.576v-0.576l0.575,0.287l0.145-1.583
	C169.593,185.489,168.729,184.842,168.441,184.697z M114.794,139.116c2.64-0.481,4.272-0.745,4.896-0.793
	c-0.288-0.72-0.672-1.319-1.152-1.8c-0.72-1.151-1.32-1.967-1.8-2.447l-2.952,1.08l-0.504,0.287l0.145,0.72h-0.145l0.145,0.36
	c0.384,0.577,0.816,1.44,1.296,2.594H114.794z M107.449,137.748l-1.513,0.648l0.577,0.575h-0.648v0.145l0.864,1.224l3.241-0.576
	L107.449,137.748z M112.921,148.333l4.753-2.232l-0.72-0.503l-3.313-2.88l-2.592,1.872l-0.36,0.575l0.216,0.434l0.144,0.072h-0.144
	L112.921,148.333z M106.729,159.926l-0.864,1.368h0.648l-0.577,0.505l1.513,0.792l2.521-2.16L106.729,159.926z M105.649,151.501
	l2.952-1.296l-2.952-1.367c-0.433,0.286-0.817,0.646-1.152,1.08l0.504,0.287l-0.504,0.217L105.649,151.501z M120.411,178.289
	l-3.169,1.296l-0.072,1.584l0.576-0.216l-0.288,0.72c0.384-0.145,0.937-0.216,1.657-0.216L120.411,178.289z M110.545,172.456
	l1.512,0.359l1.945-2.809l-3.313,0.505l-0.289,1.009l-0.215,0.432h0.72L110.545,172.456z M113.281,164.175h0.145l-0.145,0.576
	l0.504,0.361l2.952,1.295l2.953-4.176c-1.488-0.384-3.121-0.696-4.896-0.938l-0.073-0.072v0.072L113.281,164.175z M116.955,154.813
	l0.72-0.575l-4.753-2.089l-2.016,2.376h0.144l-0.144,0.288l-0.216,0.217l0.36,0.575c0.576,0.481,1.44,1.128,2.592,1.945
	C115.418,156.11,116.522,155.197,116.955,154.813z"/>
</svg>
