<?xml version="1.0" encoding="utf-8"?>
<!-- Generator: Adobe Illustrator 16.0.0, SVG Export Plug-In . SVG Version: 6.00 Build 0)  -->
<!DOCTYPE svg PUBLIC "-//W3C//DTD SVG 1.1//EN" "http://www.w3.org/Graphics/SVG/1.1/DTD/svg11.dtd">
<svg version="1.1" id="Layer_1" xmlns="http://www.w3.org/2000/svg" xmlns:xlink="http://www.w3.org/1999/xlink" x="0px" y="0px"
	 width="300px" height="300px" viewBox="0 0 300 300" enable-background="new 0 0 300 300" xml:space="preserve">
<path fill-rule="evenodd" clip-rule="evenodd" d="M287.22,66.553c3.802,8.089,5.705,17.536,5.705,28.34
	c0,16.178-2.687,29.939-8.059,41.288c-4.346,8.634-11.892,18.864-22.637,30.694c-10.262,10.806-20.25,19.438-29.97,25.896
	c-17.264,13.462-27.797,21.823-31.601,25.082l-46.813,47.717l-2.444,4.89l-0.452-0.815V56.864c0.12,0.302,0.272,0.575,0.452,0.815
	c9.175-12.435,19.135-21.338,29.88-26.71c11.35-4.829,24.026-7.244,38.029-7.244c10.805,0,20.524,1.6,29.154,4.799
	c9.177,3.26,16.993,8.119,23.453,14.578C278.921,50.103,284.021,57.919,287.22,66.553z M118.716,30.968
	c10.745,5.373,20.705,14.276,29.879,26.71c0.183-0.24,0.333-0.513,0.453-0.815v212.78l-0.453,0.815l-2.445-4.89l-46.811-47.717
	c-3.802-3.259-14.336-11.62-31.6-25.082c-9.719-6.458-19.708-15.09-29.971-25.896c-10.745-11.83-18.29-22.061-22.636-30.694
	c-5.372-11.349-8.058-25.11-8.058-41.288c0-10.804,1.901-20.251,5.704-28.34c3.199-8.633,8.3-16.45,15.302-23.451
	c6.458-6.459,14.276-11.318,23.451-14.578c8.632-3.199,18.351-4.799,29.156-4.799C94.692,23.725,107.368,26.139,118.716,30.968z"/>
</svg>
