<?xml version="1.0" encoding="utf-8"?>
<!-- Generator: Adobe Illustrator 16.0.0, SVG Export Plug-In . SVG Version: 6.00 Build 0)  -->
<!DOCTYPE svg PUBLIC "-//W3C//DTD SVG 1.1//EN" "http://www.w3.org/Graphics/SVG/1.1/DTD/svg11.dtd">
<svg version="1.1" id="Layer_1" xmlns="http://www.w3.org/2000/svg" xmlns:xlink="http://www.w3.org/1999/xlink" x="0px" y="0px"
	 width="300px" height="300px" viewBox="0 0 300 300" enable-background="new 0 0 300 300" xml:space="preserve">
<path fill-rule="evenodd" clip-rule="evenodd" fill="#FF2A0C" d="M232.293,41.238c-13.493-7.622-27.722-9.344-42.683-5.166
	c-12.816,3.614-22.497,9.965-29.048,19.055c-5.758,8.073-10.246,20.24-13.465,36.5c-11.009-12.251-21.085-20.297-30.232-24.136
	c-10.388-4.347-22.047-4.714-34.976-1.1c-14.905,4.122-26.14,12.928-33.705,26.422c-7.454,13.438-9.147,27.607-5.081,42.512
	c6.719,23.995,25.518,47.792,56.4,71.392c18.462,14.113,50.728,34.155,96.796,60.126c25.857-46.068,43.021-79.971,51.489-101.707
	c14.001-36.303,17.644-66.451,10.924-90.445C254.593,59.897,245.787,48.748,232.293,41.238z M278.107,57.244
	c8.13,28.905,3.728,65.265-13.21,109.077c-10.219,26.477-30.967,67.437-62.244,122.879c-55.669-31.392-94.624-55.527-116.868-72.406
	c-37.375-28.568-60.127-57.361-68.257-86.38c-5.025-18.011-2.964-35.173,6.182-51.49c9.204-16.203,22.725-26.845,40.565-31.926
	c15.639-4.348,29.696-3.868,42.173,1.439c11.008,4.686,23.288,14.368,36.837,29.048c3.728-19.478,9.118-34.157,16.177-44.037
	c7.847-11.066,19.534-18.773,35.059-23.121c18.011-5.024,35.175-2.963,51.49,6.183C262.385,25.712,273.084,39.291,278.107,57.244z"
	/>
</svg>
