<?xml version="1.0" encoding="utf-8"?>
<!-- Generator: Adobe Illustrator 16.0.0, SVG Export Plug-In . SVG Version: 6.00 Build 0)  -->
<!DOCTYPE svg PUBLIC "-//W3C//DTD SVG 1.1//EN" "http://www.w3.org/Graphics/SVG/1.1/DTD/svg11.dtd">
<svg version="1.1" id="Layer_1" xmlns="http://www.w3.org/2000/svg" xmlns:xlink="http://www.w3.org/1999/xlink" x="0px" y="0px"
	 width="300px" height="300px" viewBox="0 0 300 300" enable-background="new 0 0 300 300" xml:space="preserve">
<path fill-rule="evenodd" clip-rule="evenodd" fill="#FF0000" d="M59.889,143.603c0.173,0,0.324,0.065,0.454,0.195
	c0.13,0.13,0.195,0.281,0.195,0.454c0,0.173-0.064,0.324-0.195,0.454c-0.129,0.13-0.28,0.195-0.454,0.195h-2.594
	c-0.173,0-0.324-0.065-0.454-0.195c-0.129-0.129-0.194-0.281-0.194-0.454c0-0.173,0.065-0.324,0.194-0.454
	c0.13-0.129,0.281-0.195,0.454-0.195H59.889z M49.512,143.603c0.173,0,0.324,0.065,0.454,0.195c0.129,0.13,0.194,0.281,0.194,0.454
	c0,0.173-0.065,0.324-0.194,0.454c-0.13,0.13-0.281,0.195-0.454,0.195h-2.595c-0.173,0-0.324-0.065-0.454-0.195
	c-0.13-0.129-0.194-0.281-0.194-0.454c0-0.173,0.064-0.324,0.194-0.454c0.13-0.129,0.281-0.195,0.454-0.195H49.512z M51.651,143.798
	c0.13-0.129,0.281-0.195,0.455-0.195H54.7c0.173,0,0.324,0.065,0.454,0.195c0.13,0.13,0.195,0.281,0.195,0.454
	c0,0.173-0.065,0.324-0.195,0.454c-0.129,0.13-0.281,0.195-0.454,0.195h-2.594c-0.173,0-0.324-0.065-0.455-0.195
	c-0.129-0.129-0.194-0.281-0.194-0.454C51.457,144.079,51.522,143.928,51.651,143.798z M46.463,137.291
	c0.13-0.129,0.281-0.194,0.454-0.194h2.595c0.173,0,0.324,0.065,0.454,0.194c0.129,0.13,0.194,0.281,0.194,0.454
	s-0.065,0.324-0.194,0.454c-0.13,0.13-0.281,0.195-0.454,0.195h-2.595c-0.173,0-0.324-0.065-0.454-0.195
	c-0.13-0.129-0.194-0.281-0.194-0.454S46.333,137.42,46.463,137.291z M49.512,131.475c0.177,0.001,0.329,0.066,0.454,0.195
	c0.128,0.125,0.192,0.276,0.194,0.454c-0.002,0.178-0.066,0.329-0.194,0.454c-0.125,0.128-0.277,0.193-0.454,0.195h-2.595
	c-0.177-0.001-0.328-0.066-0.454-0.195c-0.128-0.125-0.193-0.276-0.194-0.454c0.001-0.178,0.066-0.329,0.194-0.454
	c0.125-0.128,0.276-0.194,0.454-0.195H49.512z M55.154,137.291c0.13,0.13,0.195,0.281,0.195,0.454s-0.065,0.324-0.195,0.454
	c-0.129,0.13-0.281,0.195-0.454,0.195h-2.594c-0.173,0-0.324-0.065-0.455-0.195c-0.129-0.129-0.194-0.281-0.194-0.454
	s0.065-0.324,0.194-0.454c0.13-0.129,0.281-0.194,0.455-0.194H54.7C54.873,137.096,55.024,137.161,55.154,137.291z M56.646,137.745
	c0-0.173,0.065-0.324,0.194-0.454c0.13-0.129,0.281-0.194,0.454-0.194h2.594c0.173,0,0.324,0.065,0.454,0.194
	c0.13,0.13,0.195,0.281,0.195,0.454s-0.064,0.324-0.195,0.454c-0.129,0.13-0.28,0.195-0.454,0.195h-2.594
	c-0.173,0-0.324-0.065-0.454-0.195C56.711,138.069,56.646,137.917,56.646,137.745z M55.154,131.67
	c0.128,0.125,0.193,0.276,0.195,0.454c-0.002,0.178-0.066,0.329-0.195,0.454c-0.125,0.128-0.276,0.193-0.454,0.195h-2.594
	c-0.177-0.001-0.329-0.066-0.455-0.195c-0.128-0.125-0.193-0.276-0.194-0.454c0.001-0.178,0.066-0.329,0.194-0.454
	c0.125-0.128,0.277-0.194,0.455-0.195H54.7C54.877,131.476,55.029,131.542,55.154,131.67z M59.889,131.475
	c0.178,0.001,0.329,0.066,0.454,0.195c0.128,0.125,0.193,0.276,0.195,0.454c-0.001,0.178-0.066,0.329-0.195,0.454
	c-0.125,0.128-0.276,0.193-0.454,0.195h-2.594c-0.178-0.001-0.329-0.066-0.454-0.195c-0.128-0.125-0.193-0.276-0.194-0.454
	c0.001-0.178,0.066-0.329,0.194-0.454c0.125-0.128,0.276-0.194,0.454-0.195H59.889z M39.134,144.9h-2.594
	c-0.173,0-0.325-0.065-0.454-0.195c-0.13-0.129-0.195-0.281-0.195-0.454c0-0.173,0.065-0.324,0.195-0.454
	c0.129-0.129,0.281-0.195,0.454-0.195h2.594c0.173,0,0.325,0.065,0.454,0.195c0.129,0.13,0.195,0.281,0.195,0.454
	c0,0.173-0.065,0.324-0.195,0.454C39.459,144.835,39.307,144.9,39.134,144.9z M41.081,144.252c0-0.173,0.064-0.324,0.194-0.454
	c0.129-0.129,0.281-0.195,0.454-0.195h2.594c0.173,0,0.324,0.065,0.454,0.195c0.129,0.13,0.194,0.281,0.194,0.454
	c0,0.173-0.065,0.324-0.194,0.454c-0.13,0.13-0.281,0.195-0.454,0.195h-2.594c-0.173,0-0.325-0.065-0.454-0.195
	C41.145,144.576,41.081,144.425,41.081,144.252z M33.946,143.603c0.173,0,0.325,0.065,0.454,0.195
	c0.129,0.13,0.195,0.281,0.195,0.454c0,0.173-0.065,0.324-0.195,0.454c-0.129,0.13-0.281,0.195-0.454,0.195h-2.594
	c-0.173,0-0.324-0.065-0.455-0.195c-0.129-0.129-0.194-0.281-0.194-0.454c0-0.173,0.065-0.324,0.194-0.454
	c0.13-0.129,0.281-0.195,0.455-0.195H33.946z M30.897,137.291c0.13-0.129,0.281-0.194,0.455-0.194h2.594
	c0.173,0,0.325,0.065,0.454,0.194c0.129,0.13,0.195,0.281,0.195,0.454s-0.065,0.324-0.195,0.454
	c-0.129,0.13-0.281,0.195-0.454,0.195h-2.594c-0.173,0-0.324-0.065-0.455-0.195c-0.129-0.129-0.194-0.281-0.194-0.454
	S30.768,137.42,30.897,137.291z M33.946,131.475c0.178,0.001,0.329,0.066,0.454,0.195c0.128,0.125,0.193,0.276,0.195,0.454
	c-0.002,0.178-0.067,0.329-0.195,0.454c-0.125,0.128-0.276,0.193-0.454,0.195h-2.594c-0.178-0.001-0.329-0.066-0.455-0.195
	c-0.128-0.125-0.193-0.276-0.194-0.454c0.001-0.178,0.066-0.329,0.194-0.454c0.125-0.128,0.277-0.194,0.455-0.195H33.946z
	 M44.323,138.394h-2.594c-0.173,0-0.325-0.065-0.454-0.195c-0.13-0.129-0.194-0.281-0.194-0.454s0.064-0.324,0.194-0.454
	c0.129-0.129,0.281-0.194,0.454-0.194h2.594c0.173,0,0.324,0.065,0.454,0.194c0.129,0.13,0.194,0.281,0.194,0.454
	s-0.065,0.324-0.194,0.454C44.647,138.328,44.496,138.394,44.323,138.394z M39.588,138.198c-0.129,0.13-0.281,0.195-0.454,0.195
	h-2.594c-0.173,0-0.325-0.065-0.454-0.195c-0.13-0.129-0.195-0.281-0.195-0.454s0.065-0.324,0.195-0.454
	c0.129-0.129,0.281-0.194,0.454-0.194h2.594c0.173,0,0.325,0.065,0.454,0.194c0.129,0.13,0.195,0.281,0.195,0.454
	S39.718,138.069,39.588,138.198z M39.588,132.578c-0.125,0.128-0.276,0.193-0.454,0.195h-2.594
	c-0.178-0.001-0.329-0.066-0.454-0.195c-0.128-0.125-0.193-0.276-0.195-0.454c0.001-0.178,0.066-0.329,0.195-0.454
	c0.125-0.128,0.276-0.194,0.454-0.195h2.594c0.178,0.001,0.329,0.066,0.454,0.195c0.128,0.125,0.193,0.276,0.195,0.454
	C39.782,132.301,39.717,132.453,39.588,132.578z M41.729,132.772c-0.178-0.001-0.329-0.066-0.454-0.195
	c-0.128-0.125-0.193-0.276-0.194-0.454c0.001-0.178,0.066-0.329,0.194-0.454c0.125-0.128,0.276-0.194,0.454-0.195h2.594
	c0.178,0.001,0.329,0.066,0.454,0.195c0.128,0.125,0.193,0.276,0.194,0.454c-0.001,0.178-0.066,0.329-0.194,0.454
	c-0.125,0.128-0.276,0.193-0.454,0.195H41.729z M23.569,143.603c0.173,0,0.324,0.065,0.453,0.195c0.13,0.13,0.195,0.281,0.195,0.454
	c0,0.173-0.065,0.324-0.195,0.454c-0.129,0.13-0.28,0.195-0.453,0.195h-2.595c-0.173,0-0.324-0.065-0.454-0.195
	c-0.129-0.129-0.194-0.281-0.194-0.454c0-0.173,0.065-0.324,0.194-0.454c0.13-0.129,0.281-0.195,0.454-0.195H23.569z M26.163,144.9
	c-0.173,0-0.324-0.065-0.454-0.195c-0.129-0.129-0.194-0.281-0.194-0.454c0-0.173,0.065-0.324,0.194-0.454
	c0.13-0.129,0.281-0.195,0.454-0.195h2.595c0.173,0,0.324,0.065,0.454,0.195c0.13,0.13,0.194,0.281,0.194,0.454
	c0,0.173-0.064,0.324-0.194,0.454c-0.129,0.13-0.281,0.195-0.454,0.195H26.163z M13.192,143.603c0.173,0,0.325,0.065,0.454,0.195
	c0.129,0.13,0.195,0.281,0.195,0.454c0,0.173-0.065,0.324-0.195,0.454c-0.129,0.13-0.281,0.195-0.454,0.195h-2.594
	c-0.173,0-0.324-0.065-0.454-0.195c-0.13-0.129-0.194-0.281-0.194-0.454c0-0.173,0.064-0.324,0.194-0.454
	c0.13-0.129,0.281-0.195,0.454-0.195H13.192z M15.333,143.798c0.129-0.129,0.28-0.195,0.454-0.195h2.594
	c0.173,0,0.324,0.065,0.454,0.195c0.129,0.13,0.195,0.281,0.195,0.454c0,0.173-0.065,0.324-0.195,0.454
	c-0.13,0.13-0.281,0.195-0.454,0.195h-2.594c-0.173,0-0.324-0.065-0.454-0.195c-0.13-0.129-0.195-0.281-0.195-0.454
	C15.138,144.079,15.202,143.928,15.333,143.798z M13.646,138.198c-0.129,0.13-0.281,0.195-0.454,0.195h-2.594
	c-0.173,0-0.324-0.065-0.454-0.195c-0.13-0.129-0.194-0.281-0.194-0.454s0.064-0.324,0.194-0.454
	c0.13-0.129,0.281-0.194,0.454-0.194h2.594c0.173,0,0.325,0.065,0.454,0.194c0.129,0.13,0.195,0.281,0.195,0.454
	S13.775,138.069,13.646,138.198z M13.646,132.578c-0.125,0.128-0.276,0.193-0.454,0.195h-2.594
	c-0.178-0.001-0.329-0.066-0.454-0.195c-0.128-0.125-0.193-0.276-0.194-0.454c0.001-0.178,0.066-0.329,0.194-0.454
	c0.125-0.128,0.276-0.194,0.454-0.195h2.594c0.178,0.001,0.329,0.066,0.454,0.195c0.128,0.125,0.193,0.276,0.195,0.454
	C13.839,132.301,13.774,132.453,13.646,132.578z M25.515,137.745c0-0.173,0.065-0.324,0.194-0.454
	c0.13-0.129,0.281-0.194,0.454-0.194h2.595c0.173,0,0.324,0.065,0.454,0.194c0.13,0.13,0.194,0.281,0.194,0.454
	s-0.064,0.324-0.194,0.454c-0.129,0.13-0.281,0.195-0.454,0.195h-2.595c-0.173,0-0.324-0.065-0.454-0.195
	C25.58,138.069,25.515,137.917,25.515,137.745z M19.029,137.745c0,0.173-0.065,0.324-0.195,0.454
	c-0.13,0.13-0.281,0.195-0.454,0.195h-2.594c-0.173,0-0.324-0.065-0.454-0.195c-0.13-0.129-0.195-0.281-0.195-0.454
	s0.064-0.324,0.195-0.454c0.129-0.129,0.28-0.194,0.454-0.194h2.594c0.173,0,0.324,0.065,0.454,0.194
	C18.964,137.42,19.029,137.572,19.029,137.745z M20.326,137.745c0-0.173,0.065-0.324,0.194-0.454
	c0.13-0.129,0.281-0.194,0.454-0.194h2.595c0.173,0,0.324,0.065,0.453,0.194c0.13,0.13,0.195,0.281,0.195,0.454
	s-0.065,0.324-0.195,0.454c-0.129,0.13-0.28,0.195-0.453,0.195h-2.595c-0.173,0-0.324-0.065-0.454-0.195
	C20.391,138.069,20.326,137.917,20.326,137.745z M19.029,132.124c-0.001,0.178-0.067,0.329-0.195,0.454
	c-0.125,0.128-0.277,0.193-0.454,0.195h-2.594c-0.177-0.001-0.329-0.066-0.454-0.195c-0.129-0.125-0.193-0.276-0.195-0.454
	c0.001-0.178,0.066-0.329,0.195-0.454c0.125-0.128,0.276-0.194,0.454-0.195h2.594c0.177,0.001,0.329,0.066,0.454,0.195
	C18.962,131.795,19.028,131.946,19.029,132.124z M25.709,131.67c0.125-0.128,0.277-0.194,0.454-0.195h2.595
	c0.177,0.001,0.328,0.066,0.454,0.195c0.128,0.125,0.193,0.276,0.194,0.454c-0.001,0.178-0.066,0.329-0.194,0.454
	c-0.125,0.128-0.276,0.193-0.454,0.195h-2.595c-0.177-0.001-0.329-0.066-0.454-0.195c-0.128-0.125-0.193-0.276-0.194-0.454
	C25.516,131.946,25.581,131.795,25.709,131.67z M23.569,131.475c0.177,0.001,0.329,0.066,0.453,0.195
	c0.129,0.125,0.193,0.276,0.195,0.454c-0.002,0.178-0.066,0.329-0.195,0.454c-0.125,0.128-0.276,0.193-0.453,0.195h-2.595
	c-0.177-0.001-0.329-0.066-0.454-0.195c-0.128-0.125-0.192-0.276-0.194-0.454c0.002-0.178,0.066-0.329,0.194-0.454
	c0.125-0.128,0.277-0.194,0.454-0.195H23.569z M8.003,143.603c0.173,0,0.325,0.065,0.454,0.195c0.129,0.13,0.194,0.281,0.194,0.454
	c0,0.173-0.065,0.324-0.194,0.454c-0.129,0.13-0.281,0.195-0.454,0.195H5.409c-0.173,0-0.324-0.065-0.454-0.195
	c-0.129-0.129-0.194-0.281-0.194-0.454c0-0.173,0.065-0.324,0.194-0.454c0.13-0.129,0.281-0.195,0.454-0.195H8.003z M4.761,137.745
	c0-0.173,0.065-0.324,0.194-0.454c0.13-0.129,0.281-0.194,0.454-0.194h2.594c0.173,0,0.325,0.065,0.454,0.194
	c0.129,0.13,0.194,0.281,0.194,0.454s-0.065,0.324-0.194,0.454c-0.129,0.13-0.281,0.195-0.454,0.195H5.409
	c-0.173,0-0.324-0.065-0.454-0.195C4.826,138.069,4.761,137.917,4.761,137.745z M8.003,131.475c0.178,0.001,0.329,0.066,0.454,0.195
	c0.128,0.125,0.193,0.276,0.194,0.454c-0.001,0.178-0.066,0.329-0.194,0.454c-0.125,0.128-0.276,0.193-0.454,0.195H5.409
	c-0.178-0.001-0.329-0.066-0.454-0.195c-0.128-0.125-0.193-0.276-0.194-0.454c0.001-0.178,0.066-0.329,0.194-0.454
	c0.125-0.128,0.276-0.194,0.454-0.195H8.003z M127.339,143.603c0.173,0,0.324,0.065,0.454,0.195c0.129,0.13,0.195,0.281,0.195,0.454
	c0,0.173-0.065,0.324-0.195,0.454c-0.13,0.13-0.281,0.195-0.454,0.195h-2.594c-0.173,0-0.324-0.065-0.454-0.195
	c-0.13-0.129-0.194-0.281-0.194-0.454c0-0.173,0.064-0.324,0.194-0.454c0.13-0.129,0.281-0.195,0.454-0.195H127.339z
	 M122.151,143.603c0.173,0,0.325,0.065,0.454,0.195c0.129,0.13,0.194,0.281,0.194,0.454c0,0.173-0.065,0.324-0.194,0.454
	c-0.129,0.13-0.281,0.195-0.454,0.195h-2.594c-0.173,0-0.324-0.065-0.454-0.195c-0.129-0.129-0.194-0.281-0.194-0.454
	c0-0.173,0.065-0.324,0.194-0.454c0.13-0.129,0.281-0.195,0.454-0.195H122.151z M118.908,137.745c0-0.173,0.065-0.324,0.194-0.454
	c0.13-0.129,0.281-0.194,0.454-0.194h2.594c0.173,0,0.325,0.065,0.454,0.194c0.129,0.13,0.194,0.281,0.194,0.454
	s-0.065,0.324-0.194,0.454c-0.129,0.13-0.281,0.195-0.454,0.195h-2.594c-0.173,0-0.324-0.065-0.454-0.195
	C118.973,138.069,118.908,137.917,118.908,137.745z M122.151,131.475c0.178,0.001,0.329,0.066,0.454,0.195
	c0.128,0.125,0.193,0.276,0.194,0.454c-0.001,0.178-0.066,0.329-0.194,0.454c-0.125,0.128-0.276,0.193-0.454,0.195h-2.594
	c-0.178-0.001-0.329-0.066-0.454-0.195c-0.128-0.125-0.193-0.276-0.194-0.454c0.001-0.178,0.066-0.329,0.194-0.454
	c0.125-0.128,0.276-0.194,0.454-0.195H122.151z M127.793,138.198c-0.13,0.13-0.281,0.195-0.454,0.195h-2.594
	c-0.173,0-0.324-0.065-0.454-0.195c-0.13-0.129-0.194-0.281-0.194-0.454s0.064-0.324,0.194-0.454
	c0.13-0.129,0.281-0.194,0.454-0.194h2.594c0.173,0,0.324,0.065,0.454,0.194c0.129,0.13,0.195,0.281,0.195,0.454
	S127.923,138.069,127.793,138.198z M127.793,132.578c-0.125,0.128-0.276,0.193-0.454,0.195h-2.594
	c-0.178-0.001-0.329-0.066-0.454-0.195c-0.128-0.125-0.193-0.276-0.194-0.454c0.001-0.178,0.066-0.329,0.194-0.454
	c0.125-0.128,0.276-0.194,0.454-0.195h2.594c0.178,0.001,0.329,0.066,0.454,0.195c0.128,0.125,0.193,0.276,0.195,0.454
	C127.986,132.301,127.921,132.453,127.793,132.578z M111.774,143.603c0.173,0,0.324,0.065,0.454,0.195
	c0.13,0.13,0.195,0.281,0.195,0.454c0,0.173-0.065,0.324-0.195,0.454c-0.129,0.13-0.281,0.195-0.454,0.195h-2.594
	c-0.173,0-0.324-0.065-0.455-0.195c-0.129-0.129-0.194-0.281-0.194-0.454c0-0.173,0.065-0.324,0.194-0.454
	c0.13-0.129,0.281-0.195,0.455-0.195H111.774z M114.368,144.9c-0.173,0-0.324-0.065-0.454-0.195
	c-0.129-0.129-0.194-0.281-0.194-0.454c0-0.173,0.065-0.324,0.194-0.454c0.13-0.129,0.281-0.195,0.454-0.195h2.594
	c0.173,0,0.324,0.065,0.454,0.195c0.13,0.13,0.195,0.281,0.195,0.454c0,0.173-0.064,0.324-0.195,0.454
	c-0.129,0.13-0.28,0.195-0.454,0.195H114.368z M101.851,143.798c0.129,0.13,0.194,0.281,0.194,0.454
	c0,0.173-0.065,0.324-0.194,0.454c-0.13,0.13-0.281,0.195-0.454,0.195h-2.594c-0.173,0-0.325-0.065-0.454-0.195
	c-0.13-0.129-0.194-0.281-0.194-0.454c0-0.173,0.064-0.324,0.194-0.454c0.129-0.129,0.281-0.195,0.454-0.195h2.594
	C101.57,143.603,101.721,143.668,101.851,143.798z M103.537,143.798c0.13-0.129,0.281-0.195,0.454-0.195h2.595
	c0.173,0,0.324,0.065,0.454,0.195c0.129,0.13,0.194,0.281,0.194,0.454c0,0.173-0.065,0.324-0.194,0.454
	c-0.13,0.13-0.281,0.195-0.454,0.195h-2.595c-0.173,0-0.324-0.065-0.454-0.195c-0.13-0.129-0.194-0.281-0.194-0.454
	C103.343,144.079,103.407,143.928,103.537,143.798z M98.803,138.394c-0.173,0-0.325-0.065-0.454-0.195
	c-0.13-0.129-0.194-0.281-0.194-0.454s0.064-0.324,0.194-0.454c0.129-0.129,0.281-0.194,0.454-0.194h2.594
	c0.173,0,0.324,0.065,0.454,0.194c0.129,0.13,0.194,0.281,0.194,0.454s-0.065,0.324-0.194,0.454c-0.13,0.13-0.281,0.195-0.454,0.195
	H98.803z M101.851,131.67c0.128,0.125,0.193,0.276,0.194,0.454c-0.001,0.178-0.066,0.329-0.194,0.454
	c-0.125,0.128-0.276,0.193-0.454,0.195h-2.594c-0.178-0.001-0.329-0.066-0.454-0.195c-0.128-0.125-0.193-0.276-0.194-0.454
	c0.001-0.178,0.066-0.329,0.194-0.454c0.125-0.128,0.276-0.194,0.454-0.195h2.594C101.575,131.476,101.726,131.542,101.851,131.67z
	 M113.72,137.745c0-0.173,0.065-0.324,0.194-0.454c0.13-0.129,0.281-0.194,0.454-0.194h2.594c0.173,0,0.324,0.065,0.454,0.194
	c0.13,0.13,0.195,0.281,0.195,0.454s-0.064,0.324-0.195,0.454c-0.129,0.13-0.28,0.195-0.454,0.195h-2.594
	c-0.173,0-0.324-0.065-0.454-0.195C113.785,138.069,113.72,137.917,113.72,137.745z M107.04,137.291
	c0.129,0.13,0.194,0.281,0.194,0.454s-0.065,0.324-0.194,0.454c-0.13,0.13-0.281,0.195-0.454,0.195h-2.595
	c-0.173,0-0.324-0.065-0.454-0.195c-0.13-0.129-0.194-0.281-0.194-0.454s0.064-0.324,0.194-0.454
	c0.13-0.129,0.281-0.194,0.454-0.194h2.595C106.758,137.096,106.91,137.161,107.04,137.291z M108.531,137.745
	c0-0.173,0.065-0.324,0.194-0.454c0.13-0.129,0.281-0.194,0.455-0.194h2.594c0.173,0,0.324,0.065,0.454,0.194
	c0.13,0.13,0.195,0.281,0.195,0.454s-0.065,0.324-0.195,0.454c-0.129,0.13-0.281,0.195-0.454,0.195h-2.594
	c-0.173,0-0.324-0.065-0.455-0.195C108.596,138.069,108.531,137.917,108.531,137.745z M107.04,131.67
	c0.128,0.125,0.192,0.276,0.194,0.454c-0.002,0.178-0.066,0.329-0.194,0.454c-0.125,0.128-0.277,0.193-0.454,0.195h-2.595
	c-0.177-0.001-0.328-0.066-0.454-0.195c-0.128-0.125-0.193-0.276-0.194-0.454c0.001-0.178,0.066-0.329,0.194-0.454
	c0.125-0.128,0.276-0.194,0.454-0.195h2.595C106.763,131.476,106.914,131.542,107.04,131.67z M113.914,131.67
	c0.125-0.128,0.276-0.194,0.454-0.195h2.594c0.178,0.001,0.329,0.066,0.454,0.195c0.128,0.125,0.193,0.276,0.195,0.454
	c-0.001,0.178-0.066,0.329-0.195,0.454c-0.125,0.128-0.276,0.193-0.454,0.195h-2.594c-0.178-0.001-0.329-0.066-0.454-0.195
	c-0.128-0.125-0.193-0.276-0.194-0.454C113.721,131.946,113.786,131.795,113.914,131.67z M111.774,131.475
	c0.177,0.001,0.329,0.066,0.454,0.195c0.128,0.125,0.193,0.276,0.195,0.454c-0.002,0.178-0.066,0.329-0.195,0.454
	c-0.125,0.128-0.276,0.193-0.454,0.195h-2.594c-0.177-0.001-0.329-0.066-0.455-0.195c-0.128-0.125-0.193-0.276-0.194-0.454
	c0.001-0.178,0.066-0.329,0.194-0.454c0.125-0.128,0.277-0.194,0.455-0.195H111.774z M93.614,144.9
	c-0.173,0-0.325-0.065-0.454-0.195c-0.13-0.129-0.195-0.281-0.195-0.454c0-0.173,0.065-0.324,0.195-0.454
	c0.129-0.129,0.281-0.195,0.454-0.195h2.594c0.173,0,0.325,0.065,0.454,0.195c0.129,0.13,0.195,0.281,0.195,0.454
	c0,0.173-0.065,0.324-0.195,0.454c-0.129,0.13-0.281,0.195-0.454,0.195H93.614z M85.831,143.603c0.173,0,0.325,0.065,0.454,0.195
	c0.13,0.13,0.194,0.281,0.194,0.454c0,0.173-0.064,0.324-0.194,0.454c-0.129,0.13-0.281,0.195-0.454,0.195h-2.594
	c-0.173,0-0.324-0.065-0.454-0.195c-0.129-0.129-0.194-0.281-0.194-0.454c0-0.173,0.065-0.324,0.194-0.454
	c0.13-0.129,0.281-0.195,0.454-0.195H85.831z M87.971,143.798c0.13-0.129,0.281-0.195,0.455-0.195h2.594
	c0.173,0,0.325,0.065,0.454,0.195c0.129,0.13,0.195,0.281,0.195,0.454c0,0.173-0.065,0.324-0.195,0.454
	c-0.129,0.13-0.281,0.195-0.454,0.195h-2.594c-0.173,0-0.325-0.065-0.455-0.195c-0.129-0.129-0.194-0.281-0.194-0.454
	C87.777,144.079,87.842,143.928,87.971,143.798z M82.588,137.745c0-0.173,0.065-0.324,0.194-0.454
	c0.13-0.129,0.281-0.194,0.454-0.194h2.594c0.173,0,0.325,0.065,0.454,0.194c0.13,0.13,0.194,0.281,0.194,0.454
	s-0.064,0.324-0.194,0.454c-0.129,0.13-0.281,0.195-0.454,0.195h-2.594c-0.173,0-0.324-0.065-0.454-0.195
	C82.653,138.069,82.588,137.917,82.588,137.745z M85.831,131.475c0.178,0.001,0.329,0.066,0.454,0.195
	c0.128,0.125,0.193,0.276,0.194,0.454c-0.001,0.178-0.066,0.329-0.194,0.454c-0.125,0.128-0.276,0.193-0.454,0.195h-2.594
	c-0.177-0.001-0.329-0.066-0.454-0.195c-0.128-0.125-0.193-0.276-0.194-0.454c0.001-0.178,0.066-0.329,0.194-0.454
	c0.125-0.128,0.277-0.194,0.454-0.195H85.831z M93.614,138.394c-0.173,0-0.325-0.065-0.454-0.195
	c-0.13-0.129-0.195-0.281-0.195-0.454s0.065-0.324,0.195-0.454c0.129-0.129,0.281-0.194,0.454-0.194h2.594
	c0.173,0,0.325,0.065,0.454,0.194c0.129,0.13,0.195,0.281,0.195,0.454s-0.065,0.324-0.195,0.454
	c-0.129,0.13-0.281,0.195-0.454,0.195H93.614z M91.474,137.291c0.129,0.13,0.195,0.281,0.195,0.454s-0.065,0.324-0.195,0.454
	c-0.129,0.13-0.281,0.195-0.454,0.195h-2.594c-0.173,0-0.325-0.065-0.455-0.195c-0.129-0.129-0.194-0.281-0.194-0.454
	s0.065-0.324,0.194-0.454c0.13-0.129,0.281-0.194,0.455-0.194h2.594C91.192,137.096,91.344,137.161,91.474,137.291z M91.474,131.67
	c0.128,0.125,0.193,0.276,0.195,0.454c-0.002,0.178-0.067,0.329-0.195,0.454c-0.125,0.128-0.276,0.193-0.454,0.195h-2.594
	c-0.178-0.001-0.329-0.066-0.455-0.195c-0.128-0.125-0.193-0.276-0.194-0.454c0.001-0.178,0.066-0.329,0.194-0.454
	c0.125-0.128,0.277-0.194,0.455-0.195h2.594C91.197,131.476,91.349,131.542,91.474,131.67z M93.614,131.475h2.594
	c0.178,0.001,0.329,0.066,0.454,0.195c0.128,0.125,0.193,0.276,0.195,0.454c-0.001,0.178-0.066,0.329-0.195,0.454
	c-0.125,0.128-0.276,0.193-0.454,0.195h-2.594c-0.178-0.001-0.329-0.066-0.454-0.195c-0.128-0.125-0.193-0.276-0.195-0.454
	c0.001-0.178,0.066-0.329,0.195-0.454C93.285,131.542,93.437,131.476,93.614,131.475z M75.908,143.798
	c0.129,0.13,0.195,0.281,0.195,0.454c0,0.173-0.065,0.324-0.195,0.454c-0.13,0.13-0.281,0.195-0.454,0.195H72.86
	c-0.173,0-0.324-0.065-0.454-0.195c-0.13-0.129-0.195-0.281-0.195-0.454c0-0.173,0.064-0.324,0.195-0.454
	c0.129-0.129,0.28-0.195,0.454-0.195h2.594C75.627,143.603,75.778,143.668,75.908,143.798z M78.048,144.9
	c-0.173,0-0.324-0.065-0.454-0.195c-0.129-0.129-0.194-0.281-0.194-0.454c0-0.173,0.065-0.324,0.194-0.454
	c0.13-0.129,0.281-0.195,0.454-0.195h2.595c0.173,0,0.324,0.065,0.453,0.195c0.13,0.13,0.195,0.281,0.195,0.454
	c0,0.173-0.065,0.324-0.195,0.454c-0.129,0.13-0.28,0.195-0.453,0.195H78.048z M62.483,143.603h2.594
	c0.173,0,0.325,0.065,0.454,0.195c0.129,0.13,0.194,0.281,0.194,0.454c0,0.173-0.065,0.324-0.194,0.454
	c-0.129,0.13-0.281,0.195-0.454,0.195h-2.594c-0.173,0-0.324-0.065-0.454-0.195c-0.129-0.129-0.194-0.281-0.194-0.454
	c0-0.173,0.065-0.324,0.194-0.454C62.159,143.668,62.31,143.603,62.483,143.603z M70.266,143.603c0.173,0,0.324,0.065,0.454,0.195
	c0.129,0.13,0.195,0.281,0.195,0.454c0,0.173-0.065,0.324-0.195,0.454c-0.13,0.13-0.281,0.195-0.454,0.195h-2.594
	c-0.173,0-0.324-0.065-0.454-0.195c-0.13-0.129-0.194-0.281-0.194-0.454c0-0.173,0.064-0.324,0.194-0.454
	c0.13-0.129,0.281-0.195,0.454-0.195H70.266z M70.72,138.198c-0.13,0.13-0.281,0.195-0.454,0.195h-2.594
	c-0.173,0-0.324-0.065-0.454-0.195c-0.13-0.129-0.194-0.281-0.194-0.454s0.064-0.324,0.194-0.454
	c0.13-0.129,0.281-0.194,0.454-0.194h2.594c0.173,0,0.324,0.065,0.454,0.194c0.129,0.13,0.195,0.281,0.195,0.454
	S70.849,138.069,70.72,138.198z M65.077,138.394h-2.594c-0.173,0-0.324-0.065-0.454-0.195c-0.129-0.129-0.194-0.281-0.194-0.454
	s0.065-0.324,0.194-0.454c0.13-0.129,0.281-0.194,0.454-0.194h2.594c0.173,0,0.325,0.065,0.454,0.194
	c0.129,0.13,0.194,0.281,0.194,0.454s-0.065,0.324-0.194,0.454C65.402,138.328,65.25,138.394,65.077,138.394z M65.077,132.772
	h-2.594c-0.178-0.001-0.329-0.066-0.454-0.195c-0.128-0.125-0.193-0.276-0.194-0.454c0.001-0.178,0.066-0.329,0.194-0.454
	c0.125-0.128,0.276-0.194,0.454-0.195h2.594c0.178,0.001,0.329,0.066,0.454,0.195c0.128,0.125,0.193,0.276,0.194,0.454
	c-0.001,0.178-0.066,0.329-0.194,0.454C65.406,132.706,65.255,132.771,65.077,132.772z M70.72,131.67
	c0.128,0.125,0.193,0.276,0.195,0.454c-0.002,0.178-0.067,0.329-0.195,0.454c-0.125,0.128-0.276,0.193-0.454,0.195h-2.594
	c-0.178-0.001-0.329-0.066-0.454-0.195c-0.128-0.125-0.193-0.276-0.194-0.454c0.001-0.178,0.066-0.329,0.194-0.454
	c0.125-0.128,0.276-0.194,0.454-0.195h2.594C70.443,131.476,70.595,131.542,70.72,131.67z M77.4,137.745
	c0-0.173,0.065-0.324,0.194-0.454c0.13-0.129,0.281-0.194,0.454-0.194h2.595c0.173,0,0.324,0.065,0.453,0.194
	c0.13,0.13,0.195,0.281,0.195,0.454s-0.065,0.324-0.195,0.454c-0.129,0.13-0.28,0.195-0.453,0.195h-2.595
	c-0.173,0-0.324-0.065-0.454-0.195C77.465,138.069,77.4,137.917,77.4,137.745z M72.406,137.291c0.129-0.129,0.28-0.194,0.454-0.194
	h2.594c0.173,0,0.324,0.065,0.454,0.194c0.129,0.13,0.195,0.281,0.195,0.454s-0.065,0.324-0.195,0.454
	c-0.13,0.13-0.281,0.195-0.454,0.195H72.86c-0.173,0-0.324-0.065-0.454-0.195c-0.13-0.129-0.195-0.281-0.195-0.454
	S72.276,137.42,72.406,137.291z M77.594,131.67c0.125-0.128,0.277-0.194,0.454-0.195h2.595c0.177,0.001,0.329,0.066,0.453,0.195
	c0.129,0.125,0.193,0.276,0.195,0.454c-0.002,0.178-0.066,0.329-0.195,0.454c-0.125,0.128-0.276,0.193-0.453,0.195h-2.595
	c-0.177-0.001-0.329-0.066-0.454-0.195c-0.128-0.125-0.192-0.276-0.194-0.454C77.402,131.946,77.466,131.795,77.594,131.67z
	 M75.908,131.67c0.128,0.125,0.193,0.276,0.195,0.454c-0.002,0.178-0.067,0.329-0.195,0.454c-0.125,0.128-0.277,0.193-0.454,0.195
	H72.86c-0.177-0.001-0.329-0.066-0.454-0.195c-0.129-0.125-0.193-0.276-0.195-0.454c0.001-0.178,0.066-0.329,0.195-0.454
	c0.125-0.128,0.276-0.194,0.454-0.195h2.594C75.631,131.476,75.783,131.542,75.908,131.67z M199.979,143.603
	c0.173,0,0.324,0.065,0.454,0.195c0.13,0.13,0.195,0.281,0.195,0.454c0,0.173-0.065,0.324-0.195,0.454
	c-0.13,0.13-0.281,0.195-0.454,0.195h-2.594c-0.174,0-0.325-0.065-0.454-0.195c-0.13-0.129-0.195-0.281-0.195-0.454
	c0-0.173,0.065-0.324,0.195-0.454c0.129-0.129,0.28-0.195,0.454-0.195H199.979z M189.602,143.603c0.173,0,0.325,0.065,0.454,0.195
	c0.13,0.13,0.194,0.281,0.194,0.454c0,0.173-0.064,0.324-0.194,0.454c-0.129,0.13-0.281,0.195-0.454,0.195h-2.594
	c-0.174,0-0.324-0.065-0.454-0.195c-0.131-0.129-0.195-0.281-0.195-0.454c0-0.173,0.064-0.324,0.195-0.454
	c0.13-0.129,0.28-0.195,0.454-0.195H189.602z M191.742,143.798c0.13-0.129,0.281-0.195,0.454-0.195h2.594
	c0.173,0,0.324,0.065,0.454,0.195c0.129,0.13,0.194,0.281,0.194,0.454c0,0.173-0.065,0.324-0.194,0.454
	c-0.13,0.13-0.281,0.195-0.454,0.195h-2.594c-0.173,0-0.324-0.065-0.454-0.195c-0.13-0.129-0.194-0.281-0.194-0.454
	C191.548,144.079,191.612,143.928,191.742,143.798z M186.554,137.291c0.13-0.129,0.28-0.194,0.454-0.194h2.594
	c0.173,0,0.325,0.065,0.454,0.194c0.13,0.13,0.194,0.281,0.194,0.454s-0.064,0.324-0.194,0.454c-0.129,0.13-0.281,0.195-0.454,0.195
	h-2.594c-0.174,0-0.324-0.065-0.454-0.195c-0.131-0.129-0.195-0.281-0.195-0.454S186.423,137.42,186.554,137.291z M189.602,131.475
	c0.177,0.001,0.329,0.066,0.454,0.195c0.128,0.125,0.193,0.276,0.194,0.454c-0.001,0.178-0.066,0.329-0.194,0.454
	c-0.125,0.128-0.277,0.193-0.454,0.195h-2.594c-0.178-0.001-0.33-0.066-0.454-0.195c-0.129-0.125-0.194-0.276-0.195-0.454
	c0.001-0.178,0.066-0.329,0.195-0.454c0.124-0.128,0.276-0.194,0.454-0.195H189.602z M195.244,137.291
	c0.129,0.13,0.194,0.281,0.194,0.454s-0.065,0.324-0.194,0.454c-0.13,0.13-0.281,0.195-0.454,0.195h-2.594
	c-0.173,0-0.324-0.065-0.454-0.195c-0.13-0.129-0.194-0.281-0.194-0.454s0.064-0.324,0.194-0.454
	c0.13-0.129,0.281-0.194,0.454-0.194h2.594C194.963,137.096,195.114,137.161,195.244,137.291z M196.735,137.745
	c0-0.173,0.065-0.324,0.195-0.454c0.129-0.129,0.28-0.194,0.454-0.194h2.594c0.173,0,0.324,0.065,0.454,0.194
	c0.13,0.13,0.195,0.281,0.195,0.454s-0.065,0.324-0.195,0.454c-0.13,0.13-0.281,0.195-0.454,0.195h-2.594
	c-0.174,0-0.325-0.065-0.454-0.195C196.801,138.069,196.735,137.917,196.735,137.745z M195.244,131.67
	c0.128,0.125,0.192,0.276,0.194,0.454c-0.002,0.178-0.066,0.329-0.194,0.454c-0.125,0.128-0.276,0.193-0.454,0.195h-2.594
	c-0.179-0.001-0.329-0.066-0.454-0.195c-0.128-0.125-0.193-0.276-0.194-0.454c0.001-0.178,0.066-0.329,0.194-0.454
	c0.125-0.128,0.275-0.194,0.454-0.195h2.594C194.968,131.476,195.119,131.542,195.244,131.67z M199.979,131.475
	c0.178,0.001,0.329,0.066,0.454,0.195c0.129,0.125,0.193,0.276,0.195,0.454c-0.002,0.178-0.066,0.329-0.195,0.454
	c-0.125,0.128-0.276,0.193-0.454,0.195h-2.594c-0.178-0.001-0.329-0.066-0.454-0.195c-0.129-0.125-0.193-0.276-0.195-0.454
	c0.002-0.178,0.066-0.329,0.195-0.454c0.125-0.128,0.276-0.194,0.454-0.195H199.979z M179.225,144.9h-2.594
	c-0.174,0-0.324-0.065-0.454-0.195c-0.131-0.129-0.195-0.281-0.195-0.454c0-0.173,0.064-0.324,0.195-0.454
	c0.13-0.129,0.28-0.195,0.454-0.195h2.594c0.173,0,0.324,0.065,0.453,0.195c0.13,0.13,0.195,0.281,0.195,0.454
	c0,0.173-0.065,0.324-0.195,0.454C179.549,144.835,179.397,144.9,179.225,144.9z M181.171,144.252c0-0.173,0.064-0.324,0.193-0.454
	c0.13-0.129,0.282-0.195,0.454-0.195h2.595c0.173,0,0.324,0.065,0.454,0.195c0.13,0.13,0.194,0.281,0.194,0.454
	c0,0.173-0.064,0.324-0.194,0.454c-0.13,0.13-0.281,0.195-0.454,0.195h-2.595c-0.172,0-0.324-0.065-0.454-0.195
	C181.235,144.576,181.171,144.425,181.171,144.252z M174.036,143.603c0.173,0,0.324,0.065,0.454,0.195
	c0.13,0.13,0.194,0.281,0.194,0.454c0,0.173-0.064,0.324-0.194,0.454c-0.13,0.13-0.281,0.195-0.454,0.195h-2.595
	c-0.173,0-0.324-0.065-0.453-0.195c-0.13-0.129-0.195-0.281-0.195-0.454c0-0.173,0.065-0.324,0.195-0.454
	c0.129-0.129,0.28-0.195,0.453-0.195H174.036z M170.988,137.291c0.129-0.129,0.28-0.194,0.453-0.194h2.595
	c0.173,0,0.324,0.065,0.454,0.194c0.13,0.13,0.194,0.281,0.194,0.454s-0.064,0.324-0.194,0.454c-0.13,0.13-0.281,0.195-0.454,0.195
	h-2.595c-0.173,0-0.324-0.065-0.453-0.195c-0.13-0.129-0.195-0.281-0.195-0.454S170.858,137.42,170.988,137.291z M174.036,131.475
	c0.178,0.001,0.329,0.066,0.454,0.195c0.128,0.125,0.193,0.276,0.194,0.454c-0.001,0.178-0.066,0.329-0.194,0.454
	c-0.125,0.128-0.276,0.193-0.454,0.195h-2.595c-0.177-0.001-0.328-0.066-0.453-0.195c-0.129-0.125-0.194-0.276-0.195-0.454
	c0.001-0.178,0.066-0.329,0.195-0.454c0.125-0.128,0.276-0.194,0.453-0.195H174.036z M184.413,138.394h-2.595
	c-0.172,0-0.324-0.065-0.454-0.195c-0.129-0.129-0.193-0.281-0.193-0.454s0.064-0.324,0.193-0.454
	c0.13-0.129,0.282-0.194,0.454-0.194h2.595c0.173,0,0.324,0.065,0.454,0.194c0.13,0.13,0.194,0.281,0.194,0.454
	s-0.064,0.324-0.194,0.454C184.737,138.328,184.586,138.394,184.413,138.394z M179.678,138.198c-0.129,0.13-0.28,0.195-0.453,0.195
	h-2.594c-0.174,0-0.324-0.065-0.454-0.195c-0.131-0.129-0.195-0.281-0.195-0.454s0.064-0.324,0.195-0.454
	c0.13-0.129,0.28-0.194,0.454-0.194h2.594c0.173,0,0.324,0.065,0.453,0.194c0.13,0.13,0.195,0.281,0.195,0.454
	S179.808,138.069,179.678,138.198z M179.678,132.578c-0.124,0.128-0.276,0.193-0.453,0.195h-2.594
	c-0.179-0.001-0.33-0.066-0.454-0.195c-0.129-0.125-0.193-0.276-0.195-0.454c0.002-0.178,0.066-0.329,0.195-0.454
	c0.124-0.128,0.275-0.194,0.454-0.195h2.594c0.177,0.001,0.329,0.066,0.453,0.195c0.129,0.125,0.193,0.276,0.195,0.454
	C179.871,132.301,179.807,132.453,179.678,132.578z M181.818,132.772c-0.178-0.001-0.328-0.066-0.454-0.195
	c-0.127-0.125-0.192-0.276-0.193-0.454c0.001-0.178,0.066-0.329,0.193-0.454c0.126-0.128,0.276-0.194,0.454-0.195h2.595
	c0.178,0.001,0.328,0.066,0.454,0.195c0.129,0.125,0.192,0.276,0.194,0.454c-0.002,0.178-0.065,0.329-0.194,0.454
	c-0.126,0.128-0.276,0.193-0.454,0.195H181.818z M163.658,143.603c0.174,0,0.325,0.065,0.454,0.195
	c0.13,0.13,0.195,0.281,0.195,0.454c0,0.173-0.065,0.324-0.195,0.454c-0.129,0.13-0.28,0.195-0.454,0.195h-2.593
	c-0.174,0-0.325-0.065-0.454-0.195c-0.13-0.129-0.195-0.281-0.195-0.454c0-0.173,0.065-0.324,0.195-0.454
	c0.129-0.129,0.28-0.195,0.454-0.195H163.658z M166.253,144.9c-0.173,0-0.324-0.065-0.454-0.195
	c-0.13-0.129-0.193-0.281-0.193-0.454c0-0.173,0.063-0.324,0.193-0.454c0.13-0.129,0.281-0.195,0.454-0.195h2.595
	c0.172,0,0.324,0.065,0.454,0.195c0.129,0.13,0.194,0.281,0.194,0.454c0,0.173-0.065,0.324-0.194,0.454
	c-0.13,0.13-0.282,0.195-0.454,0.195H166.253z M153.282,143.603c0.173,0,0.324,0.065,0.453,0.195c0.13,0.13,0.195,0.281,0.195,0.454
	c0,0.173-0.065,0.324-0.195,0.454c-0.129,0.13-0.28,0.195-0.453,0.195h-2.595c-0.173,0-0.324-0.065-0.454-0.195
	c-0.13-0.129-0.195-0.281-0.195-0.454c0-0.173,0.064-0.324,0.195-0.454c0.129-0.129,0.281-0.195,0.454-0.195H153.282z
	 M155.422,143.798c0.13-0.129,0.281-0.195,0.454-0.195h2.595c0.173,0,0.323,0.065,0.454,0.195c0.13,0.13,0.193,0.281,0.193,0.454
	c0,0.173-0.063,0.324-0.193,0.454c-0.131,0.13-0.281,0.195-0.454,0.195h-2.595c-0.173,0-0.324-0.065-0.454-0.195
	c-0.13-0.129-0.194-0.281-0.194-0.454C155.228,144.079,155.292,143.928,155.422,143.798z M153.735,138.198
	c-0.129,0.13-0.28,0.195-0.453,0.195h-2.595c-0.173,0-0.324-0.065-0.454-0.195c-0.13-0.129-0.195-0.281-0.195-0.454
	s0.064-0.324,0.195-0.454c0.129-0.129,0.281-0.194,0.454-0.194h2.595c0.173,0,0.324,0.065,0.453,0.194
	c0.13,0.13,0.195,0.281,0.195,0.454S153.865,138.069,153.735,138.198z M153.735,132.578c-0.125,0.128-0.276,0.193-0.453,0.195
	h-2.595c-0.178-0.001-0.329-0.066-0.454-0.195c-0.128-0.125-0.193-0.276-0.195-0.454c0.001-0.178,0.066-0.329,0.195-0.454
	c0.125-0.128,0.276-0.194,0.454-0.195h2.595c0.177,0.001,0.328,0.066,0.453,0.195c0.129,0.125,0.193,0.276,0.195,0.454
	C153.929,132.301,153.864,132.453,153.735,132.578z M165.605,137.745c0-0.173,0.063-0.324,0.193-0.454
	c0.13-0.129,0.281-0.194,0.454-0.194h2.595c0.172,0,0.324,0.065,0.454,0.194c0.129,0.13,0.194,0.281,0.194,0.454
	s-0.065,0.324-0.194,0.454c-0.13,0.13-0.282,0.195-0.454,0.195h-2.595c-0.173,0-0.324-0.065-0.454-0.195
	C165.669,138.069,165.605,137.917,165.605,137.745z M159.118,137.745c0,0.173-0.063,0.324-0.193,0.454
	c-0.131,0.13-0.281,0.195-0.454,0.195h-2.595c-0.173,0-0.324-0.065-0.454-0.195c-0.13-0.129-0.194-0.281-0.194-0.454
	s0.064-0.324,0.194-0.454c0.13-0.129,0.281-0.194,0.454-0.194h2.595c0.173,0,0.323,0.065,0.454,0.194
	C159.055,137.42,159.118,137.572,159.118,137.745z M160.416,137.745c0-0.173,0.065-0.324,0.195-0.454
	c0.129-0.129,0.28-0.194,0.454-0.194h2.593c0.174,0,0.325,0.065,0.454,0.194c0.13,0.13,0.195,0.281,0.195,0.454
	s-0.065,0.324-0.195,0.454c-0.129,0.13-0.28,0.195-0.454,0.195h-2.593c-0.174,0-0.325-0.065-0.454-0.195
	C160.481,138.069,160.416,137.917,160.416,137.745z M159.118,132.124c-0.001,0.178-0.065,0.329-0.193,0.454
	c-0.125,0.128-0.277,0.193-0.454,0.195h-2.595c-0.178-0.001-0.329-0.066-0.454-0.195c-0.128-0.125-0.193-0.276-0.194-0.454
	c0.001-0.178,0.066-0.329,0.194-0.454c0.125-0.128,0.276-0.194,0.454-0.195h2.595c0.177,0.001,0.329,0.066,0.454,0.195
	C159.053,131.795,159.117,131.946,159.118,132.124z M165.799,131.67c0.126-0.128,0.276-0.194,0.454-0.195h2.595
	c0.178,0.001,0.329,0.066,0.454,0.195c0.128,0.125,0.192,0.276,0.194,0.454c-0.002,0.178-0.066,0.329-0.194,0.454
	c-0.125,0.128-0.276,0.193-0.454,0.195h-2.595c-0.178-0.001-0.328-0.066-0.454-0.195c-0.127-0.125-0.192-0.276-0.193-0.454
	C165.606,131.946,165.672,131.795,165.799,131.67z M163.658,131.475c0.178,0.001,0.33,0.066,0.454,0.195
	c0.129,0.125,0.194,0.276,0.195,0.454c-0.001,0.178-0.066,0.329-0.195,0.454c-0.124,0.128-0.276,0.193-0.454,0.195h-2.593
	c-0.178-0.001-0.329-0.066-0.454-0.195c-0.129-0.125-0.194-0.276-0.195-0.454c0.001-0.178,0.066-0.329,0.195-0.454
	c0.125-0.128,0.276-0.194,0.454-0.195H163.658z M148.093,143.603c0.173,0,0.325,0.065,0.454,0.195
	c0.129,0.13,0.195,0.281,0.195,0.454c0,0.173-0.065,0.324-0.195,0.454c-0.129,0.13-0.281,0.195-0.454,0.195H145.5
	c-0.173,0-0.325-0.065-0.454-0.195c-0.13-0.129-0.195-0.281-0.195-0.454c0-0.173,0.065-0.324,0.195-0.454
	c0.129-0.129,0.281-0.195,0.454-0.195H148.093z M132.528,143.603c0.173,0,0.324,0.065,0.454,0.195
	c0.129,0.13,0.195,0.281,0.195,0.454c0,0.173-0.065,0.324-0.195,0.454c-0.13,0.13-0.281,0.195-0.454,0.195h-2.594
	c-0.173,0-0.324-0.065-0.454-0.195c-0.13-0.129-0.195-0.281-0.195-0.454c0-0.173,0.064-0.324,0.195-0.454
	c0.129-0.129,0.28-0.195,0.454-0.195H132.528z M137.717,143.603c0.172,0,0.324,0.065,0.453,0.195c0.13,0.13,0.195,0.281,0.195,0.454
	c0,0.173-0.065,0.324-0.195,0.454c-0.129,0.13-0.281,0.195-0.453,0.195h-2.595c-0.173,0-0.324-0.065-0.454-0.195
	c-0.13-0.129-0.194-0.281-0.194-0.454c0-0.173,0.064-0.324,0.194-0.454c0.13-0.129,0.281-0.195,0.454-0.195H137.717z
	 M139.856,143.798c0.13-0.129,0.281-0.195,0.454-0.195h2.594c0.173,0,0.325,0.065,0.454,0.195c0.13,0.13,0.194,0.281,0.194,0.454
	c0,0.173-0.064,0.324-0.194,0.454c-0.129,0.13-0.281,0.195-0.454,0.195h-2.594c-0.173,0-0.324-0.065-0.454-0.195
	c-0.129-0.129-0.194-0.281-0.194-0.454C139.662,144.079,139.727,143.928,139.856,143.798z M133.177,137.745
	c0,0.173-0.065,0.324-0.195,0.454c-0.13,0.13-0.281,0.195-0.454,0.195h-2.594c-0.173,0-0.324-0.065-0.454-0.195
	c-0.13-0.129-0.195-0.281-0.195-0.454s0.064-0.324,0.195-0.454c0.129-0.129,0.28-0.194,0.454-0.194h2.594
	c0.173,0,0.324,0.065,0.454,0.194C133.111,137.42,133.177,137.572,133.177,137.745z M134.668,137.291
	c0.13-0.129,0.281-0.194,0.454-0.194h2.595c0.172,0,0.324,0.065,0.453,0.194c0.13,0.13,0.195,0.281,0.195,0.454
	s-0.065,0.324-0.195,0.454c-0.129,0.13-0.281,0.195-0.453,0.195h-2.595c-0.173,0-0.324-0.065-0.454-0.195
	c-0.13-0.129-0.194-0.281-0.194-0.454S134.538,137.42,134.668,137.291z M133.177,132.124c-0.002,0.178-0.067,0.329-0.195,0.454
	c-0.125,0.128-0.277,0.193-0.454,0.195h-2.594c-0.177-0.001-0.329-0.066-0.454-0.195c-0.129-0.125-0.193-0.276-0.195-0.454
	c0.001-0.178,0.066-0.329,0.195-0.454c0.125-0.128,0.276-0.194,0.454-0.195h2.594c0.177,0.001,0.329,0.066,0.454,0.195
	C133.11,131.795,133.175,131.946,133.177,132.124z M137.717,131.475c0.177,0.001,0.328,0.066,0.453,0.195
	c0.129,0.125,0.193,0.276,0.195,0.454c-0.002,0.178-0.066,0.329-0.195,0.454c-0.125,0.128-0.276,0.193-0.453,0.195h-2.595
	c-0.177-0.001-0.329-0.066-0.454-0.195c-0.128-0.125-0.193-0.276-0.194-0.454c0.001-0.178,0.066-0.329,0.194-0.454
	c0.125-0.128,0.277-0.194,0.454-0.195H137.717z M143.359,137.291c0.13,0.13,0.194,0.281,0.194,0.454s-0.064,0.324-0.194,0.454
	c-0.129,0.13-0.281,0.195-0.454,0.195h-2.594c-0.173,0-0.324-0.065-0.454-0.195c-0.129-0.129-0.194-0.281-0.194-0.454
	s0.065-0.324,0.194-0.454c0.13-0.129,0.281-0.194,0.454-0.194h2.594C143.078,137.096,143.229,137.161,143.359,137.291z
	 M144.851,137.745c0-0.173,0.065-0.324,0.195-0.454c0.129-0.129,0.281-0.194,0.454-0.194h2.594c0.173,0,0.325,0.065,0.454,0.194
	c0.129,0.13,0.195,0.281,0.195,0.454s-0.065,0.324-0.195,0.454c-0.129,0.13-0.281,0.195-0.454,0.195H145.5
	c-0.173,0-0.325-0.065-0.454-0.195C144.916,138.069,144.851,137.917,144.851,137.745z M143.359,131.67
	c0.128,0.125,0.193,0.276,0.194,0.454c-0.001,0.178-0.066,0.329-0.194,0.454c-0.125,0.128-0.276,0.193-0.454,0.195h-2.594
	c-0.178-0.001-0.329-0.066-0.454-0.195c-0.128-0.125-0.193-0.276-0.194-0.454c0.001-0.178,0.066-0.329,0.194-0.454
	c0.125-0.128,0.276-0.194,0.454-0.195h2.594C143.083,131.476,143.234,131.542,143.359,131.67z M148.093,131.475
	c0.178,0.001,0.329,0.066,0.454,0.195c0.128,0.125,0.193,0.276,0.195,0.454c-0.002,0.178-0.066,0.329-0.195,0.454
	c-0.125,0.128-0.276,0.193-0.454,0.195H145.5c-0.178-0.001-0.329-0.066-0.454-0.195c-0.128-0.125-0.193-0.276-0.195-0.454
	c0.001-0.178,0.066-0.329,0.195-0.454c0.125-0.128,0.276-0.194,0.454-0.195H148.093z M267.43,143.603
	c0.172,0,0.324,0.065,0.453,0.195c0.13,0.13,0.195,0.281,0.195,0.454c0,0.173-0.065,0.324-0.195,0.454
	c-0.129,0.13-0.281,0.195-0.453,0.195h-2.595c-0.173,0-0.323-0.065-0.454-0.195c-0.13-0.129-0.194-0.281-0.194-0.454
	c0-0.173,0.064-0.324,0.194-0.454c0.131-0.129,0.281-0.195,0.454-0.195H267.43z M262.241,143.603c0.173,0,0.323,0.065,0.453,0.195
	c0.131,0.13,0.195,0.281,0.195,0.454c0,0.173-0.064,0.324-0.195,0.454c-0.13,0.13-0.28,0.195-0.453,0.195h-2.595
	c-0.173,0-0.324-0.065-0.453-0.195c-0.131-0.129-0.195-0.281-0.195-0.454c0-0.173,0.064-0.324,0.195-0.454
	c0.129-0.129,0.28-0.195,0.453-0.195H262.241z M258.998,137.745c0-0.173,0.064-0.324,0.195-0.454
	c0.129-0.129,0.28-0.194,0.453-0.194h2.595c0.173,0,0.323,0.065,0.453,0.194c0.131,0.13,0.195,0.281,0.195,0.454
	s-0.064,0.324-0.195,0.454c-0.13,0.13-0.28,0.195-0.453,0.195h-2.595c-0.173,0-0.324-0.065-0.453-0.195
	C259.063,138.069,258.998,137.917,258.998,137.745z M262.241,131.475c0.177,0.001,0.329,0.066,0.453,0.195
	c0.129,0.125,0.194,0.276,0.195,0.454c-0.001,0.178-0.066,0.329-0.195,0.454c-0.124,0.128-0.276,0.193-0.453,0.195h-2.595
	c-0.177-0.001-0.329-0.066-0.453-0.195c-0.129-0.125-0.194-0.276-0.195-0.454c0.001-0.178,0.066-0.329,0.195-0.454
	c0.124-0.128,0.276-0.194,0.453-0.195H262.241z M267.883,138.198c-0.129,0.13-0.281,0.195-0.453,0.195h-2.595
	c-0.173,0-0.323-0.065-0.454-0.195c-0.13-0.129-0.194-0.281-0.194-0.454s0.064-0.324,0.194-0.454
	c0.131-0.129,0.281-0.194,0.454-0.194h2.595c0.172,0,0.324,0.065,0.453,0.194c0.13,0.13,0.195,0.281,0.195,0.454
	S268.013,138.069,267.883,138.198z M267.883,132.578c-0.124,0.128-0.276,0.193-0.453,0.195h-2.595
	c-0.178-0.001-0.329-0.066-0.454-0.195c-0.128-0.125-0.193-0.276-0.194-0.454c0.001-0.178,0.066-0.329,0.194-0.454
	c0.125-0.128,0.276-0.194,0.454-0.195h2.595c0.177,0.001,0.329,0.066,0.453,0.195c0.129,0.125,0.193,0.276,0.195,0.454
	C268.076,132.301,268.012,132.453,267.883,132.578z M251.863,143.603c0.174,0,0.325,0.065,0.454,0.195
	c0.13,0.13,0.195,0.281,0.195,0.454c0,0.173-0.065,0.324-0.195,0.454c-0.129,0.13-0.28,0.195-0.454,0.195h-2.594
	c-0.173,0-0.324-0.065-0.453-0.195c-0.131-0.129-0.195-0.281-0.195-0.454c0-0.173,0.064-0.324,0.195-0.454
	c0.129-0.129,0.28-0.195,0.453-0.195H251.863z M254.458,144.9c-0.174,0-0.324-0.065-0.454-0.195
	c-0.13-0.129-0.194-0.281-0.194-0.454c0-0.173,0.064-0.324,0.194-0.454c0.13-0.129,0.28-0.195,0.454-0.195h2.595
	c0.172,0,0.324,0.065,0.454,0.195c0.129,0.13,0.194,0.281,0.194,0.454c0,0.173-0.065,0.324-0.194,0.454
	c-0.13,0.13-0.282,0.195-0.454,0.195H254.458z M241.94,143.798c0.13,0.13,0.195,0.281,0.195,0.454c0,0.173-0.065,0.324-0.195,0.454
	c-0.129,0.13-0.281,0.195-0.454,0.195h-2.594c-0.173,0-0.324-0.065-0.454-0.195c-0.13-0.129-0.194-0.281-0.194-0.454
	c0-0.173,0.064-0.324,0.194-0.454c0.13-0.129,0.281-0.195,0.454-0.195h2.594C241.659,143.603,241.812,143.668,241.94,143.798z
	 M243.627,143.798c0.13-0.129,0.281-0.195,0.454-0.195h2.595c0.172,0,0.324,0.065,0.454,0.195c0.129,0.13,0.193,0.281,0.193,0.454
	c0,0.173-0.064,0.324-0.193,0.454c-0.13,0.13-0.282,0.195-0.454,0.195h-2.595c-0.173,0-0.324-0.065-0.454-0.195
	c-0.13-0.129-0.194-0.281-0.194-0.454C243.433,144.079,243.497,143.928,243.627,143.798z M238.893,138.394
	c-0.173,0-0.324-0.065-0.454-0.195c-0.13-0.129-0.194-0.281-0.194-0.454s0.064-0.324,0.194-0.454
	c0.13-0.129,0.281-0.194,0.454-0.194h2.594c0.173,0,0.325,0.065,0.454,0.194c0.13,0.13,0.195,0.281,0.195,0.454
	s-0.065,0.324-0.195,0.454c-0.129,0.13-0.281,0.195-0.454,0.195H238.893z M241.94,131.67c0.129,0.125,0.193,0.276,0.195,0.454
	c-0.002,0.178-0.066,0.329-0.195,0.454c-0.125,0.128-0.276,0.193-0.454,0.195h-2.594c-0.178-0.001-0.329-0.066-0.454-0.195
	c-0.128-0.125-0.193-0.276-0.194-0.454c0.001-0.178,0.066-0.329,0.194-0.454c0.125-0.128,0.276-0.194,0.454-0.195h2.594
	C241.664,131.476,241.815,131.542,241.94,131.67z M253.81,137.745c0-0.173,0.064-0.324,0.194-0.454
	c0.13-0.129,0.28-0.194,0.454-0.194h2.595c0.172,0,0.324,0.065,0.454,0.194c0.129,0.13,0.194,0.281,0.194,0.454
	s-0.065,0.324-0.194,0.454c-0.13,0.13-0.282,0.195-0.454,0.195h-2.595c-0.174,0-0.324-0.065-0.454-0.195
	C253.874,138.069,253.81,137.917,253.81,137.745z M247.13,137.291c0.129,0.13,0.193,0.281,0.193,0.454s-0.064,0.324-0.193,0.454
	c-0.13,0.13-0.282,0.195-0.454,0.195h-2.595c-0.173,0-0.324-0.065-0.454-0.195c-0.13-0.129-0.194-0.281-0.194-0.454
	s0.064-0.324,0.194-0.454c0.13-0.129,0.281-0.194,0.454-0.194h2.595C246.848,137.096,247,137.161,247.13,137.291z M248.621,137.745
	c0-0.173,0.064-0.324,0.195-0.454c0.129-0.129,0.28-0.194,0.453-0.194h2.594c0.174,0,0.325,0.065,0.454,0.194
	c0.13,0.13,0.195,0.281,0.195,0.454s-0.065,0.324-0.195,0.454c-0.129,0.13-0.28,0.195-0.454,0.195h-2.594
	c-0.173,0-0.324-0.065-0.453-0.195C248.686,138.069,248.621,137.917,248.621,137.745z M247.13,131.67
	c0.127,0.125,0.192,0.276,0.193,0.454c-0.001,0.178-0.066,0.329-0.193,0.454c-0.126,0.128-0.277,0.193-0.454,0.195h-2.595
	c-0.178-0.001-0.329-0.066-0.454-0.195c-0.128-0.125-0.193-0.276-0.194-0.454c0.001-0.178,0.066-0.329,0.194-0.454
	c0.125-0.128,0.276-0.194,0.454-0.195h2.595C246.853,131.476,247.004,131.542,247.13,131.67z M254.004,131.67
	c0.126-0.128,0.276-0.194,0.454-0.195h2.595c0.178,0.001,0.328,0.066,0.454,0.195c0.128,0.125,0.192,0.276,0.194,0.454
	c-0.002,0.178-0.066,0.329-0.194,0.454c-0.126,0.128-0.276,0.193-0.454,0.195h-2.595c-0.178-0.001-0.328-0.066-0.454-0.195
	c-0.129-0.125-0.192-0.276-0.194-0.454C253.812,131.946,253.875,131.795,254.004,131.67z M251.863,131.475
	c0.178,0.001,0.33,0.066,0.454,0.195c0.129,0.125,0.193,0.276,0.195,0.454c-0.002,0.178-0.066,0.329-0.195,0.454
	c-0.124,0.128-0.276,0.193-0.454,0.195h-2.594c-0.178-0.001-0.329-0.066-0.453-0.195c-0.129-0.125-0.194-0.276-0.195-0.454
	c0.001-0.178,0.066-0.329,0.195-0.454c0.124-0.128,0.275-0.194,0.453-0.195H251.863z M233.704,144.9
	c-0.173,0-0.324-0.065-0.454-0.195c-0.13-0.129-0.194-0.281-0.194-0.454c0-0.173,0.064-0.324,0.194-0.454
	c0.13-0.129,0.281-0.195,0.454-0.195h2.594c0.174,0,0.324,0.065,0.454,0.195c0.13,0.13,0.195,0.281,0.195,0.454
	c0,0.173-0.065,0.324-0.195,0.454c-0.13,0.13-0.28,0.195-0.454,0.195H233.704z M225.921,143.603c0.173,0,0.324,0.065,0.454,0.195
	c0.13,0.13,0.195,0.281,0.195,0.454c0,0.173-0.065,0.324-0.195,0.454c-0.13,0.13-0.281,0.195-0.454,0.195h-2.594
	c-0.173,0-0.325-0.065-0.454-0.195c-0.13-0.129-0.194-0.281-0.194-0.454c0-0.173,0.064-0.324,0.194-0.454
	c0.129-0.129,0.281-0.195,0.454-0.195H225.921z M228.062,143.798c0.13-0.129,0.28-0.195,0.454-0.195h2.595
	c0.172,0,0.324,0.065,0.454,0.195c0.129,0.13,0.193,0.281,0.193,0.454c0,0.173-0.064,0.324-0.193,0.454
	c-0.13,0.13-0.282,0.195-0.454,0.195h-2.595c-0.174,0-0.324-0.065-0.454-0.195c-0.13-0.129-0.194-0.281-0.194-0.454
	C227.867,144.079,227.932,143.928,228.062,143.798z M222.679,137.745c0-0.173,0.064-0.324,0.194-0.454
	c0.129-0.129,0.281-0.194,0.454-0.194h2.594c0.173,0,0.324,0.065,0.454,0.194c0.13,0.13,0.195,0.281,0.195,0.454
	s-0.065,0.324-0.195,0.454c-0.13,0.13-0.281,0.195-0.454,0.195h-2.594c-0.173,0-0.325-0.065-0.454-0.195
	C222.743,138.069,222.679,137.917,222.679,137.745z M225.921,131.475c0.178,0.001,0.33,0.066,0.454,0.195
	c0.129,0.125,0.193,0.276,0.195,0.454c-0.002,0.178-0.066,0.329-0.195,0.454c-0.124,0.128-0.276,0.193-0.454,0.195h-2.594
	c-0.178-0.001-0.329-0.066-0.454-0.195c-0.128-0.125-0.193-0.276-0.194-0.454c0.001-0.178,0.066-0.329,0.194-0.454
	c0.125-0.128,0.276-0.194,0.454-0.195H225.921z M233.704,138.394c-0.173,0-0.324-0.065-0.454-0.195
	c-0.13-0.129-0.194-0.281-0.194-0.454s0.064-0.324,0.194-0.454c0.13-0.129,0.281-0.194,0.454-0.194h2.594
	c0.174,0,0.324,0.065,0.454,0.194c0.13,0.13,0.195,0.281,0.195,0.454s-0.065,0.324-0.195,0.454c-0.13,0.13-0.28,0.195-0.454,0.195
	H233.704z M231.564,137.291c0.129,0.13,0.193,0.281,0.193,0.454s-0.064,0.324-0.193,0.454c-0.13,0.13-0.282,0.195-0.454,0.195
	h-2.595c-0.174,0-0.324-0.065-0.454-0.195c-0.13-0.129-0.194-0.281-0.194-0.454s0.064-0.324,0.194-0.454
	c0.13-0.129,0.28-0.194,0.454-0.194h2.595C231.282,137.096,231.435,137.161,231.564,137.291z M231.564,131.67
	c0.127,0.125,0.192,0.276,0.193,0.454c-0.001,0.178-0.066,0.329-0.193,0.454c-0.126,0.128-0.277,0.193-0.454,0.195h-2.595
	c-0.178-0.001-0.328-0.066-0.454-0.195c-0.129-0.125-0.193-0.276-0.194-0.454c0.001-0.178,0.065-0.329,0.194-0.454
	c0.126-0.128,0.276-0.194,0.454-0.195h2.595C231.287,131.476,231.438,131.542,231.564,131.67z M233.704,131.475h2.594
	c0.178,0.001,0.329,0.066,0.454,0.195c0.129,0.125,0.192,0.276,0.195,0.454c-0.003,0.178-0.066,0.329-0.195,0.454
	c-0.125,0.128-0.276,0.193-0.454,0.195h-2.594c-0.178-0.001-0.329-0.066-0.454-0.195c-0.128-0.125-0.193-0.276-0.194-0.454
	c0.001-0.178,0.066-0.329,0.194-0.454C233.375,131.542,233.526,131.476,233.704,131.475z M215.998,143.798
	c0.13,0.13,0.195,0.281,0.195,0.454c0,0.173-0.065,0.324-0.195,0.454c-0.129,0.13-0.281,0.195-0.454,0.195h-2.594
	c-0.174,0-0.324-0.065-0.454-0.195c-0.13-0.129-0.195-0.281-0.195-0.454c0-0.173,0.065-0.324,0.195-0.454
	c0.13-0.129,0.28-0.195,0.454-0.195h2.594C215.717,143.603,215.869,143.668,215.998,143.798z M218.139,144.9
	c-0.173,0-0.324-0.065-0.454-0.195c-0.13-0.129-0.194-0.281-0.194-0.454c0-0.173,0.064-0.324,0.194-0.454
	c0.13-0.129,0.281-0.195,0.454-0.195h2.594c0.173,0,0.324,0.065,0.454,0.195c0.129,0.13,0.194,0.281,0.194,0.454
	c0,0.173-0.065,0.324-0.194,0.454c-0.13,0.13-0.281,0.195-0.454,0.195H218.139z M202.573,143.603h2.595
	c0.172,0,0.323,0.065,0.453,0.195c0.13,0.13,0.194,0.281,0.194,0.454c0,0.173-0.064,0.324-0.194,0.454
	c-0.13,0.13-0.281,0.195-0.453,0.195h-2.595c-0.174,0-0.324-0.065-0.454-0.195c-0.131-0.129-0.195-0.281-0.195-0.454
	c0-0.173,0.064-0.324,0.195-0.454C202.249,143.668,202.399,143.603,202.573,143.603z M210.355,143.603
	c0.173,0,0.324,0.065,0.454,0.195c0.13,0.13,0.194,0.281,0.194,0.454c0,0.173-0.064,0.324-0.194,0.454
	c-0.13,0.13-0.281,0.195-0.454,0.195h-2.595c-0.172,0-0.323-0.065-0.453-0.195c-0.13-0.129-0.194-0.281-0.194-0.454
	c0-0.173,0.064-0.324,0.194-0.454c0.13-0.129,0.281-0.195,0.453-0.195H210.355z M210.81,138.198c-0.13,0.13-0.281,0.195-0.454,0.195
	h-2.595c-0.172,0-0.323-0.065-0.453-0.195c-0.13-0.129-0.194-0.281-0.194-0.454s0.064-0.324,0.194-0.454
	c0.13-0.129,0.281-0.194,0.453-0.194h2.595c0.173,0,0.324,0.065,0.454,0.194c0.13,0.13,0.194,0.281,0.194,0.454
	S210.939,138.069,210.81,138.198z M205.168,138.394h-2.595c-0.174,0-0.324-0.065-0.454-0.195c-0.131-0.129-0.195-0.281-0.195-0.454
	s0.064-0.324,0.195-0.454c0.13-0.129,0.28-0.194,0.454-0.194h2.595c0.172,0,0.323,0.065,0.453,0.194
	c0.13,0.13,0.194,0.281,0.194,0.454s-0.064,0.324-0.194,0.454C205.491,138.328,205.34,138.394,205.168,138.394z M205.168,132.772
	h-2.595c-0.178-0.001-0.329-0.066-0.454-0.195c-0.129-0.125-0.193-0.276-0.195-0.454c0.002-0.178,0.066-0.329,0.195-0.454
	c0.125-0.128,0.276-0.194,0.454-0.195h2.595c0.176,0.001,0.328,0.066,0.453,0.195c0.128,0.125,0.193,0.276,0.194,0.454
	c-0.001,0.178-0.066,0.329-0.194,0.454C205.496,132.706,205.344,132.771,205.168,132.772z M210.81,131.67
	c0.129,0.125,0.192,0.276,0.194,0.454c-0.002,0.178-0.065,0.329-0.194,0.454c-0.125,0.128-0.276,0.193-0.454,0.195h-2.595
	c-0.177-0.001-0.328-0.066-0.453-0.195c-0.128-0.125-0.193-0.276-0.194-0.454c0.001-0.178,0.066-0.329,0.194-0.454
	c0.125-0.128,0.276-0.194,0.453-0.195h2.595C210.533,131.476,210.685,131.542,210.81,131.67z M217.49,137.745
	c0-0.173,0.064-0.324,0.194-0.454c0.13-0.129,0.281-0.194,0.454-0.194h2.594c0.173,0,0.324,0.065,0.454,0.194
	c0.129,0.13,0.194,0.281,0.194,0.454s-0.065,0.324-0.194,0.454c-0.13,0.13-0.281,0.195-0.454,0.195h-2.594
	c-0.173,0-0.324-0.065-0.454-0.195C217.555,138.069,217.49,137.917,217.49,137.745z M212.496,137.291
	c0.13-0.129,0.28-0.194,0.454-0.194h2.594c0.173,0,0.325,0.065,0.454,0.194c0.13,0.13,0.195,0.281,0.195,0.454
	s-0.065,0.324-0.195,0.454c-0.129,0.13-0.281,0.195-0.454,0.195h-2.594c-0.174,0-0.324-0.065-0.454-0.195
	c-0.13-0.129-0.195-0.281-0.195-0.454S212.366,137.42,212.496,137.291z M217.685,131.67c0.125-0.128,0.275-0.194,0.454-0.195h2.594
	c0.178,0.001,0.329,0.066,0.454,0.195c0.128,0.125,0.193,0.276,0.194,0.454c-0.001,0.178-0.066,0.329-0.194,0.454
	c-0.125,0.128-0.276,0.193-0.454,0.195h-2.594c-0.179-0.001-0.329-0.066-0.454-0.195c-0.128-0.125-0.193-0.276-0.194-0.454
	C217.491,131.946,217.557,131.795,217.685,131.67z M215.998,131.67c0.129,0.125,0.193,0.276,0.195,0.454
	c-0.002,0.178-0.066,0.329-0.195,0.454c-0.125,0.128-0.276,0.193-0.454,0.195h-2.594c-0.178-0.001-0.329-0.066-0.454-0.195
	c-0.129-0.125-0.193-0.276-0.195-0.454c0.002-0.178,0.066-0.329,0.195-0.454c0.125-0.128,0.276-0.194,0.454-0.195h2.594
	C215.722,131.476,215.873,131.542,215.998,131.67z M293.372,143.603c0.173,0,0.324,0.065,0.453,0.195
	c0.13,0.13,0.195,0.281,0.195,0.454c0,0.173-0.065,0.324-0.195,0.454c-0.129,0.13-0.28,0.195-0.453,0.195h-2.594
	c-0.174,0-0.324-0.065-0.454-0.195c-0.131-0.129-0.195-0.281-0.195-0.454c0-0.173,0.064-0.324,0.195-0.454
	c0.13-0.129,0.28-0.195,0.454-0.195H293.372z M293.825,138.198c-0.129,0.13-0.28,0.195-0.453,0.195h-2.594
	c-0.174,0-0.324-0.065-0.454-0.195c-0.131-0.129-0.195-0.281-0.195-0.454s0.064-0.324,0.195-0.454
	c0.13-0.129,0.28-0.194,0.454-0.194h2.594c0.173,0,0.324,0.065,0.453,0.194c0.13,0.13,0.195,0.281,0.195,0.454
	S293.955,138.069,293.825,138.198z M293.825,132.578c-0.124,0.128-0.276,0.193-0.453,0.195h-2.594
	c-0.179-0.001-0.33-0.066-0.454-0.195c-0.129-0.125-0.193-0.276-0.195-0.454c0.002-0.178,0.066-0.329,0.195-0.454
	c0.124-0.128,0.275-0.194,0.454-0.195h2.594c0.177,0.001,0.329,0.066,0.453,0.195c0.129,0.125,0.193,0.276,0.195,0.454
	C294.019,132.301,293.954,132.453,293.825,132.578z M288.184,143.603c0.173,0,0.324,0.065,0.454,0.195
	c0.13,0.13,0.194,0.281,0.194,0.454c0,0.173-0.064,0.324-0.194,0.454c-0.13,0.13-0.281,0.195-0.454,0.195h-2.595
	c-0.173,0-0.324-0.065-0.453-0.195c-0.13-0.129-0.195-0.281-0.195-0.454c0-0.173,0.065-0.324,0.195-0.454
	c0.129-0.129,0.28-0.195,0.453-0.195H288.184z M272.618,143.603c0.173,0,0.324,0.065,0.454,0.195c0.13,0.13,0.194,0.281,0.194,0.454
	c0,0.173-0.064,0.324-0.194,0.454c-0.13,0.13-0.281,0.195-0.454,0.195h-2.595c-0.173,0-0.324-0.065-0.454-0.195
	c-0.129-0.129-0.194-0.281-0.194-0.454c0-0.173,0.065-0.324,0.194-0.454c0.13-0.129,0.281-0.195,0.454-0.195H272.618z
	 M277.806,143.603c0.174,0,0.325,0.065,0.454,0.195c0.13,0.13,0.195,0.281,0.195,0.454c0,0.173-0.065,0.324-0.195,0.454
	c-0.129,0.13-0.28,0.195-0.454,0.195h-2.593c-0.174,0-0.325-0.065-0.454-0.195c-0.131-0.129-0.195-0.281-0.195-0.454
	c0-0.173,0.064-0.324,0.195-0.454c0.129-0.129,0.28-0.195,0.454-0.195H277.806z M279.946,143.798
	c0.13-0.129,0.281-0.195,0.454-0.195h2.595c0.172,0,0.324,0.065,0.454,0.195c0.129,0.13,0.194,0.281,0.194,0.454
	c0,0.173-0.065,0.324-0.194,0.454c-0.13,0.13-0.282,0.195-0.454,0.195H280.4c-0.173,0-0.324-0.065-0.454-0.195
	c-0.13-0.129-0.193-0.281-0.193-0.454C279.753,144.079,279.816,143.928,279.946,143.798z M273.267,137.745
	c0,0.173-0.064,0.324-0.194,0.454c-0.13,0.13-0.281,0.195-0.454,0.195h-2.595c-0.173,0-0.324-0.065-0.454-0.195
	c-0.129-0.129-0.194-0.281-0.194-0.454s0.065-0.324,0.194-0.454c0.13-0.129,0.281-0.194,0.454-0.194h2.595
	c0.173,0,0.324,0.065,0.454,0.194C273.202,137.42,273.267,137.572,273.267,137.745z M274.759,137.291
	c0.129-0.129,0.28-0.194,0.454-0.194h2.593c0.174,0,0.325,0.065,0.454,0.194c0.13,0.13,0.195,0.281,0.195,0.454
	s-0.065,0.324-0.195,0.454c-0.129,0.13-0.28,0.195-0.454,0.195h-2.593c-0.174,0-0.325-0.065-0.454-0.195
	c-0.131-0.129-0.195-0.281-0.195-0.454S274.628,137.42,274.759,137.291z M273.267,132.124c-0.002,0.178-0.066,0.329-0.194,0.454
	c-0.126,0.128-0.276,0.193-0.454,0.195h-2.595c-0.178-0.001-0.328-0.066-0.454-0.195c-0.128-0.125-0.192-0.276-0.194-0.454
	c0.002-0.178,0.066-0.329,0.194-0.454c0.126-0.128,0.276-0.194,0.454-0.195h2.595c0.178,0.001,0.328,0.066,0.454,0.195
	C273.2,131.795,273.265,131.946,273.267,132.124z M277.806,131.475c0.178,0.001,0.33,0.066,0.454,0.195
	c0.129,0.125,0.194,0.276,0.195,0.454c-0.001,0.178-0.066,0.329-0.195,0.454c-0.124,0.128-0.276,0.193-0.454,0.195h-2.593
	c-0.179-0.001-0.33-0.066-0.454-0.195c-0.129-0.125-0.194-0.276-0.195-0.454c0.001-0.178,0.066-0.329,0.195-0.454
	c0.124-0.128,0.275-0.194,0.454-0.195H277.806z M283.449,137.291c0.129,0.13,0.194,0.281,0.194,0.454s-0.065,0.324-0.194,0.454
	c-0.13,0.13-0.282,0.195-0.454,0.195H280.4c-0.173,0-0.324-0.065-0.454-0.195c-0.13-0.129-0.193-0.281-0.193-0.454
	s0.063-0.324,0.193-0.454c0.13-0.129,0.281-0.194,0.454-0.194h2.595C283.167,137.096,283.319,137.161,283.449,137.291z
	 M284.94,137.745c0-0.173,0.065-0.324,0.195-0.454c0.129-0.129,0.28-0.194,0.453-0.194h2.595c0.173,0,0.324,0.065,0.454,0.194
	c0.13,0.13,0.194,0.281,0.194,0.454s-0.064,0.324-0.194,0.454c-0.13,0.13-0.281,0.195-0.454,0.195h-2.595
	c-0.173,0-0.324-0.065-0.453-0.195C285.006,138.069,284.94,137.917,284.94,137.745z M283.449,131.67
	c0.128,0.125,0.192,0.276,0.194,0.454c-0.002,0.178-0.066,0.329-0.194,0.454c-0.125,0.128-0.276,0.193-0.454,0.195H280.4
	c-0.178-0.001-0.328-0.066-0.454-0.195c-0.127-0.125-0.192-0.276-0.193-0.454c0.001-0.178,0.066-0.329,0.193-0.454
	c0.126-0.128,0.276-0.194,0.454-0.195h2.595C283.173,131.476,283.324,131.542,283.449,131.67z M288.184,131.475
	c0.178,0.001,0.329,0.066,0.454,0.195c0.128,0.125,0.193,0.276,0.194,0.454c-0.001,0.178-0.066,0.329-0.194,0.454
	c-0.125,0.128-0.276,0.193-0.454,0.195h-2.595c-0.177-0.001-0.328-0.066-0.453-0.195c-0.129-0.125-0.194-0.276-0.195-0.454
	c0.001-0.178,0.066-0.329,0.195-0.454c0.125-0.128,0.276-0.194,0.453-0.195H288.184z"/>
</svg>
