<?xml version="1.0" encoding="utf-8"?>
<!-- Generator: Adobe Illustrator 16.0.0, SVG Export Plug-In . SVG Version: 6.00 Build 0)  -->
<!DOCTYPE svg PUBLIC "-//W3C//DTD SVG 1.1//EN" "http://www.w3.org/Graphics/SVG/1.1/DTD/svg11.dtd">
<svg version="1.1" id="Layer_1" xmlns="http://www.w3.org/2000/svg" xmlns:xlink="http://www.w3.org/1999/xlink" x="0px" y="0px"
	 width="300px" height="300px" viewBox="0 0 300 300" enable-background="new 0 0 300 300" xml:space="preserve">
<path fill-rule="evenodd" clip-rule="evenodd" fill="#FF0000" d="M292.5,121.79c0,0.473-0.172,0.874-0.516,1.203
	c-0.329,0.343-0.73,0.515-1.202,0.515c-0.474,0-0.882-0.172-1.226-0.515c-0.328-0.33-0.492-0.73-0.492-1.203
	s0.164-0.881,0.492-1.225c0.344-0.329,0.752-0.494,1.226-0.494c0.472,0,0.873,0.165,1.202,0.494
	C292.328,120.909,292.5,121.317,292.5,121.79z M291.984,141.465c-0.329,0.343-0.73,0.515-1.202,0.515
	c-0.474,0-0.882-0.172-1.226-0.515c-0.328-0.33-0.492-0.73-0.492-1.204c0-0.472,0.164-0.88,0.492-1.224
	c0.344-0.329,0.752-0.494,1.226-0.494c0.472,0,0.873,0.165,1.202,0.494c0.344,0.344,0.516,0.752,0.516,1.224
	C292.5,140.735,292.328,141.136,291.984,141.465z M291.984,132.443c-0.329,0.343-0.73,0.515-1.202,0.515
	c-0.474,0-0.882-0.172-1.226-0.515c-0.328-0.329-0.492-0.73-0.492-1.203s0.164-0.88,0.492-1.225
	c0.344-0.329,0.752-0.494,1.226-0.494c0.472,0,0.873,0.165,1.202,0.494c0.344,0.344,0.516,0.752,0.516,1.225
	S292.328,132.114,291.984,132.443z M14.993,121.79c0-0.473,0.165-0.881,0.494-1.225c0.344-0.329,0.752-0.494,1.225-0.494
	c0.473,0,0.874,0.165,1.203,0.494c0.344,0.344,0.516,0.752,0.516,1.225s-0.172,0.874-0.516,1.203
	c-0.329,0.343-0.73,0.515-1.203,0.515c-0.472,0-0.881-0.172-1.225-0.515C15.157,122.664,14.993,122.263,14.993,121.79z
	 M13.188,122.993c-0.33,0.343-0.73,0.515-1.203,0.515c-0.472,0-0.881-0.172-1.224-0.515c-0.329-0.33-0.494-0.73-0.494-1.203
	s0.165-0.881,0.494-1.225c0.343-0.329,0.752-0.494,1.224-0.494c0.473,0,0.874,0.165,1.203,0.494
	c0.344,0.344,0.516,0.752,0.516,1.225S13.533,122.664,13.188,122.993z M19.718,121.79c0-0.473,0.165-0.881,0.494-1.225
	c0.344-0.329,0.752-0.494,1.225-0.494c0.472,0,0.874,0.165,1.203,0.494c0.344,0.344,0.516,0.752,0.516,1.225
	s-0.172,0.874-0.516,1.203c-0.329,0.343-0.73,0.515-1.203,0.515c-0.473,0-0.881-0.172-1.225-0.515
	C19.883,122.664,19.718,122.263,19.718,121.79z M24.938,120.565c0.343-0.329,0.752-0.494,1.225-0.494
	c0.472,0,0.873,0.165,1.203,0.494c0.343,0.344,0.515,0.752,0.515,1.225s-0.172,0.874-0.515,1.203
	c-0.33,0.343-0.73,0.515-1.203,0.515c-0.473,0-0.881-0.172-1.225-0.515c-0.329-0.33-0.494-0.73-0.494-1.203
	S24.608,120.909,24.938,120.565z M29.663,120.565c0.344-0.329,0.752-0.494,1.225-0.494c0.472,0,0.873,0.165,1.203,0.494
	c0.344,0.344,0.516,0.752,0.516,1.225s-0.172,0.874-0.516,1.203c-0.33,0.343-0.73,0.515-1.203,0.515
	c-0.473,0-0.881-0.172-1.225-0.515c-0.329-0.33-0.494-0.73-0.494-1.203S29.333,120.909,29.663,120.565z M33.895,121.79
	c0-0.473,0.165-0.881,0.494-1.225c0.343-0.329,0.752-0.494,1.225-0.494c0.472,0,0.873,0.165,1.203,0.494
	c0.343,0.344,0.515,0.752,0.515,1.225s-0.172,0.874-0.515,1.203c-0.33,0.343-0.73,0.515-1.203,0.515
	c-0.473,0-0.881-0.172-1.225-0.515C34.059,122.664,33.895,122.263,33.895,121.79z M41.541,120.565
	c0.344,0.344,0.516,0.752,0.516,1.225s-0.172,0.874-0.516,1.203c-0.33,0.343-0.73,0.515-1.203,0.515
	c-0.472,0-0.88-0.172-1.224-0.515c-0.33-0.33-0.494-0.73-0.494-1.203s0.164-0.881,0.494-1.225c0.344-0.329,0.752-0.494,1.224-0.494
	C40.811,120.071,41.211,120.236,41.541,120.565z M46.266,120.565c0.344,0.344,0.515,0.752,0.515,1.225s-0.171,0.874-0.515,1.203
	c-0.33,0.343-0.73,0.515-1.203,0.515s-0.88-0.172-1.224-0.515c-0.33-0.33-0.494-0.73-0.494-1.203s0.164-0.881,0.494-1.225
	c0.344-0.329,0.751-0.494,1.224-0.494S45.937,120.236,46.266,120.565z M50.992,120.565c0.343,0.344,0.515,0.752,0.515,1.225
	s-0.172,0.874-0.515,1.203c-0.33,0.343-0.73,0.515-1.203,0.515s-0.881-0.172-1.224-0.515c-0.33-0.33-0.494-0.73-0.494-1.203
	s0.165-0.881,0.494-1.225c0.343-0.329,0.751-0.494,1.224-0.494S50.662,120.236,50.992,120.565z M54.514,120.071
	c0.473,0,0.874,0.165,1.203,0.494c0.344,0.344,0.516,0.752,0.516,1.225s-0.172,0.874-0.516,1.203
	c-0.33,0.343-0.73,0.515-1.203,0.515s-0.88-0.172-1.224-0.515c-0.33-0.33-0.494-0.73-0.494-1.203s0.164-0.881,0.494-1.225
	C53.633,120.236,54.041,120.071,54.514,120.071z M58.015,120.565c0.343-0.329,0.752-0.494,1.224-0.494
	c0.473,0,0.874,0.165,1.203,0.494c0.343,0.344,0.515,0.752,0.515,1.225s-0.172,0.874-0.515,1.203
	c-0.33,0.343-0.73,0.515-1.203,0.515c-0.472,0-0.881-0.172-1.224-0.515c-0.33-0.33-0.495-0.73-0.495-1.203
	S57.686,120.909,58.015,120.565z M62.74,120.565c0.344-0.329,0.752-0.494,1.224-0.494c0.473,0,0.874,0.165,1.203,0.494
	c0.344,0.344,0.516,0.752,0.516,1.225s-0.172,0.874-0.516,1.203c-0.329,0.343-0.729,0.515-1.203,0.515
	c-0.472,0-0.88-0.172-1.224-0.515c-0.33-0.33-0.494-0.73-0.494-1.203S62.411,120.909,62.74,120.565z M66.972,121.79
	c0-0.473,0.165-0.881,0.494-1.225c0.344-0.329,0.751-0.494,1.224-0.494s0.874,0.165,1.203,0.494
	c0.344,0.344,0.516,0.752,0.516,1.225s-0.171,0.874-0.516,1.203c-0.329,0.343-0.73,0.515-1.203,0.515s-0.88-0.172-1.224-0.515
	C67.136,122.664,66.972,122.263,66.972,121.79z M71.697,121.79c0-0.473,0.165-0.881,0.495-1.225
	c0.343-0.329,0.751-0.494,1.224-0.494s0.874,0.165,1.202,0.494c0.344,0.344,0.516,0.752,0.516,1.225s-0.172,0.874-0.516,1.203
	c-0.329,0.343-0.729,0.515-1.202,0.515s-0.881-0.172-1.224-0.515C71.862,122.664,71.697,122.263,71.697,121.79z M76.917,120.565
	c0.344-0.329,0.751-0.494,1.224-0.494s0.874,0.165,1.203,0.494c0.344,0.344,0.516,0.752,0.516,1.225s-0.172,0.874-0.516,1.203
	c-0.329,0.343-0.73,0.515-1.203,0.515s-0.88-0.172-1.224-0.515c-0.33-0.33-0.494-0.73-0.494-1.203S76.587,120.909,76.917,120.565z
	 M81.642,120.565c0.343-0.329,0.752-0.494,1.225-0.494c0.472,0,0.874,0.165,1.203,0.494c0.344,0.344,0.516,0.752,0.516,1.225
	s-0.172,0.874-0.516,1.203c-0.329,0.343-0.73,0.515-1.203,0.515c-0.473,0-0.881-0.172-1.225-0.515
	c-0.329-0.33-0.494-0.73-0.494-1.203S81.313,120.909,81.642,120.565z M85.873,121.79c0-0.473,0.165-0.881,0.494-1.225
	c0.344-0.329,0.752-0.494,1.225-0.494c0.473,0,0.874,0.165,1.203,0.494c0.344,0.344,0.516,0.752,0.516,1.225
	s-0.172,0.874-0.516,1.203c-0.329,0.343-0.729,0.515-1.203,0.515c-0.473,0-0.881-0.172-1.225-0.515
	C86.038,122.664,85.873,122.263,85.873,121.79z M93.52,120.565c0.344,0.344,0.515,0.752,0.515,1.225s-0.171,0.874-0.515,1.203
	c-0.329,0.343-0.73,0.515-1.203,0.515s-0.881-0.172-1.225-0.515c-0.329-0.33-0.494-0.73-0.494-1.203s0.165-0.881,0.494-1.225
	c0.343-0.329,0.752-0.494,1.225-0.494S93.19,120.236,93.52,120.565z M98.245,120.565c0.344,0.344,0.516,0.752,0.516,1.225
	s-0.172,0.874-0.516,1.203c-0.329,0.343-0.729,0.515-1.202,0.515c-0.473,0-0.881-0.172-1.225-0.515
	c-0.329-0.33-0.494-0.73-0.494-1.203s0.165-0.881,0.494-1.225c0.344-0.329,0.752-0.494,1.225-0.494
	C97.515,120.071,97.916,120.236,98.245,120.565z M102.97,122.993c-0.33,0.343-0.73,0.515-1.203,0.515s-0.88-0.172-1.224-0.515
	c-0.33-0.33-0.494-0.73-0.494-1.203s0.165-0.881,0.494-1.225c0.344-0.329,0.751-0.494,1.224-0.494s0.873,0.165,1.203,0.494
	c0.344,0.344,0.516,0.752,0.516,1.225S103.314,122.664,102.97,122.993z M106.493,120.071c0.472,0,0.873,0.165,1.203,0.494
	c0.343,0.344,0.515,0.752,0.515,1.225s-0.172,0.874-0.515,1.203c-0.33,0.343-0.73,0.515-1.203,0.515
	c-0.473,0-0.881-0.172-1.225-0.515c-0.329-0.33-0.494-0.73-0.494-1.203s0.165-0.881,0.494-1.225
	C105.612,120.236,106.021,120.071,106.493,120.071z M109.994,120.565c0.344-0.329,0.752-0.494,1.224-0.494
	c0.473,0,0.874,0.165,1.203,0.494c0.344,0.344,0.516,0.752,0.516,1.225s-0.172,0.874-0.516,1.203
	c-0.33,0.343-0.73,0.515-1.203,0.515c-0.472,0-0.88-0.172-1.224-0.515c-0.329-0.33-0.494-0.73-0.494-1.203
	S109.665,120.909,109.994,120.565z M114.719,120.565c0.343-0.329,0.752-0.494,1.224-0.494c0.473,0,0.874,0.165,1.203,0.494
	c0.343,0.344,0.515,0.752,0.515,1.225s-0.172,0.874-0.515,1.203c-0.33,0.343-0.73,0.515-1.203,0.515
	c-0.472,0-0.881-0.172-1.224-0.515c-0.33-0.33-0.494-0.73-0.494-1.203S114.39,120.909,114.719,120.565z M120.668,120.071
	c0.473,0,0.874,0.165,1.203,0.494c0.344,0.344,0.516,0.752,0.516,1.225s-0.172,0.874-0.516,1.203
	c-0.33,0.343-0.73,0.515-1.203,0.515c-0.472,0-0.88-0.172-1.224-0.515c-0.33-0.33-0.494-0.73-0.494-1.203s0.164-0.881,0.494-1.225
	C119.788,120.236,120.196,120.071,120.668,120.071z M124.17,120.565c0.344-0.329,0.752-0.494,1.224-0.494
	c0.473,0,0.874,0.165,1.203,0.494c0.344,0.344,0.515,0.752,0.515,1.225s-0.171,0.874-0.515,1.203
	c-0.33,0.343-0.73,0.515-1.203,0.515c-0.472,0-0.88-0.172-1.224-0.515c-0.33-0.33-0.494-0.73-0.494-1.203
	S123.84,120.909,124.17,120.565z M128.896,120.565c0.343-0.329,0.752-0.494,1.225-0.494c0.472,0,0.873,0.165,1.203,0.494
	c0.343,0.344,0.515,0.752,0.515,1.225s-0.172,0.874-0.515,1.203c-0.33,0.343-0.73,0.515-1.203,0.515
	c-0.473,0-0.881-0.172-1.225-0.515c-0.329-0.33-0.494-0.73-0.494-1.203S128.566,120.909,128.896,120.565z M133.621,120.565
	c0.344-0.329,0.752-0.494,1.225-0.494c0.472,0,0.873,0.165,1.203,0.494c0.344,0.344,0.516,0.752,0.516,1.225
	s-0.172,0.874-0.516,1.203c-0.33,0.343-0.73,0.515-1.203,0.515c-0.473,0-0.881-0.172-1.225-0.515
	c-0.329-0.33-0.494-0.73-0.494-1.203S133.292,120.909,133.621,120.565z M137.852,121.79c0-0.473,0.166-0.881,0.495-1.225
	c0.343-0.329,0.752-0.494,1.224-0.494c0.473,0,0.874,0.165,1.203,0.494c0.344,0.344,0.516,0.752,0.516,1.225
	s-0.172,0.874-0.516,1.203c-0.329,0.343-0.73,0.515-1.203,0.515c-0.472,0-0.881-0.172-1.224-0.515
	C138.017,122.664,137.852,122.263,137.852,121.79z M142.578,121.79c0-0.473,0.164-0.881,0.494-1.225
	c0.344-0.329,0.751-0.494,1.224-0.494c0.473,0,0.874,0.165,1.203,0.494c0.344,0.344,0.516,0.752,0.516,1.225
	s-0.172,0.874-0.516,1.203c-0.329,0.343-0.729,0.515-1.203,0.515c-0.473,0-0.88-0.172-1.224-0.515
	C142.742,122.664,142.578,122.263,142.578,121.79z M150.739,121.79c0,0.473-0.172,0.874-0.516,1.203
	c-0.329,0.343-0.729,0.515-1.202,0.515c-0.474,0-0.881-0.172-1.225-0.515c-0.329-0.33-0.494-0.73-0.494-1.203
	s0.165-0.881,0.494-1.225c0.344-0.329,0.751-0.494,1.225-0.494c0.473,0,0.873,0.165,1.202,0.494
	C150.567,120.909,150.739,121.317,150.739,121.79z M154.949,122.993c-0.329,0.343-0.73,0.515-1.203,0.515s-0.88-0.172-1.224-0.515
	c-0.33-0.33-0.494-0.73-0.494-1.203s0.164-0.881,0.494-1.225c0.344-0.329,0.751-0.494,1.224-0.494s0.874,0.165,1.203,0.494
	c0.344,0.344,0.516,0.752,0.516,1.225S155.293,122.664,154.949,122.993z M158.472,120.071c0.473,0,0.874,0.165,1.203,0.494
	c0.344,0.344,0.516,0.752,0.516,1.225s-0.172,0.874-0.516,1.203c-0.329,0.343-0.73,0.515-1.203,0.515s-0.881-0.172-1.224-0.515
	c-0.33-0.33-0.495-0.73-0.495-1.203s0.165-0.881,0.495-1.225C157.591,120.236,157.999,120.071,158.472,120.071z M164.4,120.565
	c0.344,0.344,0.515,0.752,0.515,1.225s-0.171,0.874-0.515,1.203c-0.33,0.343-0.73,0.515-1.203,0.515
	c-0.474,0-0.881-0.172-1.225-0.515c-0.329-0.33-0.494-0.73-0.494-1.203s0.165-0.881,0.494-1.225
	c0.344-0.329,0.751-0.494,1.225-0.494C163.67,120.071,164.07,120.236,164.4,120.565z M166.698,120.565
	c0.343-0.329,0.752-0.494,1.224-0.494c0.474,0,0.874,0.165,1.204,0.494c0.343,0.344,0.515,0.752,0.515,1.225
	s-0.172,0.874-0.515,1.203c-0.33,0.343-0.73,0.515-1.204,0.515c-0.472,0-0.881-0.172-1.224-0.515
	c-0.329-0.33-0.494-0.73-0.494-1.203S166.369,120.909,166.698,120.565z M172.646,120.071c0.474,0,0.876,0.165,1.204,0.494
	c0.344,0.344,0.516,0.752,0.516,1.225s-0.172,0.874-0.516,1.203c-0.328,0.343-0.73,0.515-1.204,0.515
	c-0.471,0-0.879-0.172-1.223-0.515c-0.33-0.33-0.495-0.73-0.495-1.203s0.165-0.881,0.495-1.225
	C171.768,120.236,172.176,120.071,172.646,120.071z M177.373,120.071c0.473,0,0.873,0.165,1.203,0.494
	c0.344,0.344,0.515,0.752,0.515,1.225s-0.171,0.874-0.515,1.203c-0.33,0.343-0.73,0.515-1.203,0.515s-0.88-0.172-1.224-0.515
	c-0.33-0.33-0.494-0.73-0.494-1.203s0.164-0.881,0.494-1.225C176.493,120.236,176.9,120.071,177.373,120.071z M182.099,120.071
	c0.473,0,0.873,0.165,1.204,0.494c0.343,0.344,0.514,0.752,0.514,1.225s-0.171,0.874-0.514,1.203
	c-0.331,0.343-0.731,0.515-1.204,0.515c-0.474,0-0.882-0.172-1.226-0.515c-0.328-0.33-0.492-0.73-0.492-1.203
	s0.164-0.881,0.492-1.225C181.217,120.236,181.625,120.071,182.099,120.071z M185.6,120.565c0.344-0.329,0.752-0.494,1.224-0.494
	c0.473,0,0.874,0.165,1.204,0.494c0.344,0.344,0.516,0.752,0.516,1.225s-0.172,0.874-0.516,1.203
	c-0.33,0.343-0.731,0.515-1.204,0.515c-0.472,0-0.88-0.172-1.224-0.515c-0.329-0.33-0.494-0.73-0.494-1.203
	S185.271,120.909,185.6,120.565z M189.83,121.79c0-0.473,0.166-0.881,0.495-1.225c0.344-0.329,0.751-0.494,1.224-0.494
	s0.874,0.165,1.203,0.494c0.344,0.344,0.516,0.752,0.516,1.225s-0.172,0.874-0.516,1.203c-0.329,0.343-0.73,0.515-1.203,0.515
	s-0.88-0.172-1.224-0.515C189.996,122.664,189.83,122.263,189.83,121.79z M194.557,121.79c0-0.473,0.164-0.881,0.493-1.225
	c0.344-0.329,0.751-0.494,1.225-0.494s0.873,0.165,1.203,0.494c0.344,0.344,0.515,0.752,0.515,1.225s-0.171,0.874-0.515,1.203
	c-0.33,0.343-0.729,0.515-1.203,0.515s-0.881-0.172-1.225-0.515C194.721,122.664,194.557,122.263,194.557,121.79z M202.718,121.79
	c0,0.473-0.171,0.874-0.515,1.203c-0.33,0.343-0.73,0.515-1.203,0.515s-0.882-0.172-1.225-0.515c-0.329-0.33-0.493-0.73-0.493-1.203
	s0.164-0.881,0.493-1.225c0.343-0.329,0.752-0.494,1.225-0.494s0.873,0.165,1.203,0.494
	C202.547,120.909,202.718,121.317,202.718,121.79z M205.727,120.071c0.471,0,0.873,0.165,1.201,0.494
	c0.344,0.344,0.517,0.752,0.517,1.225s-0.173,0.874-0.517,1.203c-0.328,0.343-0.73,0.515-1.201,0.515
	c-0.474,0-0.882-0.172-1.226-0.515c-0.328-0.33-0.494-0.73-0.494-1.203s0.166-0.881,0.494-1.225
	C204.845,120.236,205.253,120.071,205.727,120.071z M211.653,120.565c0.344,0.344,0.516,0.752,0.516,1.225s-0.172,0.874-0.516,1.203
	c-0.329,0.343-0.73,0.515-1.202,0.515c-0.473,0-0.881-0.172-1.225-0.515c-0.329-0.33-0.494-0.73-0.494-1.203
	s0.165-0.881,0.494-1.225c0.344-0.329,0.752-0.494,1.225-0.494C210.923,120.071,211.324,120.236,211.653,120.565z M216.38,120.565
	c0.343,0.344,0.514,0.752,0.514,1.225s-0.171,0.874-0.514,1.203c-0.331,0.343-0.73,0.515-1.204,0.515
	c-0.472,0-0.881-0.172-1.224-0.515c-0.33-0.33-0.494-0.73-0.494-1.203s0.164-0.881,0.494-1.225c0.343-0.329,0.752-0.494,1.224-0.494
	C215.649,120.071,216.049,120.236,216.38,120.565z M221.104,120.565c0.344,0.344,0.516,0.752,0.516,1.225s-0.172,0.874-0.516,1.203
	c-0.33,0.343-0.73,0.515-1.203,0.515s-0.881-0.172-1.225-0.515c-0.329-0.33-0.494-0.73-0.494-1.203s0.165-0.881,0.494-1.225
	c0.344-0.329,0.752-0.494,1.225-0.494S220.774,120.236,221.104,120.565z M224.627,120.071c0.472,0,0.873,0.165,1.202,0.494
	c0.344,0.344,0.516,0.752,0.516,1.225s-0.172,0.874-0.516,1.203c-0.329,0.343-0.73,0.515-1.202,0.515
	c-0.473,0-0.881-0.172-1.225-0.515c-0.329-0.33-0.495-0.73-0.495-1.203s0.166-0.881,0.495-1.225
	C223.746,120.236,224.154,120.071,224.627,120.071z M229.352,120.071c0.474,0,0.873,0.165,1.203,0.494
	c0.344,0.344,0.515,0.752,0.515,1.225s-0.171,0.874-0.515,1.203c-0.33,0.343-0.729,0.515-1.203,0.515
	c-0.471,0-0.88-0.172-1.223-0.515c-0.331-0.33-0.495-0.73-0.495-1.203s0.164-0.881,0.495-1.225
	C228.472,120.236,228.881,120.071,229.352,120.071z M234.077,120.071c0.474,0,0.873,0.165,1.204,0.494
	c0.344,0.344,0.514,0.752,0.514,1.225s-0.17,0.874-0.514,1.203c-0.331,0.343-0.73,0.515-1.204,0.515
	c-0.472,0-0.882-0.172-1.224-0.515c-0.33-0.33-0.494-0.73-0.494-1.203s0.164-0.881,0.494-1.225
	C233.195,120.236,233.605,120.071,234.077,120.071z M238.804,120.071c0.472,0,0.873,0.165,1.201,0.494
	c0.344,0.344,0.517,0.752,0.517,1.225s-0.173,0.874-0.517,1.203c-0.328,0.343-0.729,0.515-1.201,0.515
	c-0.474,0-0.882-0.172-1.226-0.515c-0.328-0.33-0.494-0.73-0.494-1.203s0.166-0.881,0.494-1.225
	C237.922,120.236,238.33,120.071,238.804,120.071z M241.81,121.79c0-0.473,0.165-0.881,0.494-1.225
	c0.344-0.329,0.752-0.494,1.225-0.494c0.472,0,0.873,0.165,1.202,0.494c0.344,0.344,0.517,0.752,0.517,1.225
	s-0.173,0.874-0.517,1.203c-0.329,0.343-0.73,0.515-1.202,0.515c-0.473,0-0.881-0.172-1.225-0.515
	C241.975,122.664,241.81,122.263,241.81,121.79z M246.535,121.79c0-0.473,0.164-0.881,0.495-1.225
	c0.344-0.329,0.751-0.494,1.223-0.494c0.474,0,0.874,0.165,1.204,0.494c0.343,0.344,0.515,0.752,0.515,1.225
	s-0.172,0.874-0.515,1.203c-0.33,0.343-0.73,0.515-1.204,0.515c-0.472,0-0.879-0.172-1.223-0.515
	C246.699,122.664,246.535,122.263,246.535,121.79z M251.755,120.565c0.344-0.329,0.751-0.494,1.224-0.494
	c0.474,0,0.873,0.165,1.204,0.494c0.344,0.344,0.515,0.752,0.515,1.225s-0.171,0.874-0.515,1.203
	c-0.331,0.343-0.73,0.515-1.204,0.515c-0.473,0-0.88-0.172-1.224-0.515c-0.329-0.33-0.494-0.73-0.494-1.203
	S251.426,120.909,251.755,120.565z M258.907,120.565c0.344,0.344,0.516,0.752,0.516,1.225s-0.172,0.874-0.516,1.203
	c-0.329,0.343-0.73,0.515-1.202,0.515c-0.474,0-0.882-0.172-1.226-0.515c-0.328-0.33-0.495-0.73-0.495-1.203
	s0.167-0.881,0.495-1.225c0.344-0.329,0.752-0.494,1.226-0.494C258.177,120.071,258.578,120.236,258.907,120.565z M262.429,120.071
	c0.474,0,0.875,0.165,1.204,0.494c0.343,0.344,0.516,0.752,0.516,1.225s-0.173,0.874-0.516,1.203
	c-0.329,0.343-0.73,0.515-1.204,0.515c-0.471,0-0.88-0.172-1.223-0.515c-0.33-0.33-0.495-0.73-0.495-1.203s0.165-0.881,0.495-1.225
	C261.549,120.236,261.958,120.071,262.429,120.071z M268.358,120.565c0.344,0.344,0.514,0.752,0.514,1.225s-0.17,0.874-0.514,1.203
	c-0.33,0.343-0.73,0.515-1.204,0.515c-0.472,0-0.879-0.172-1.223-0.515c-0.331-0.33-0.495-0.73-0.495-1.203s0.164-0.881,0.495-1.225
	c0.344-0.329,0.751-0.494,1.223-0.494C267.628,120.071,268.028,120.236,268.358,120.565z M271.881,120.071
	c0.473,0,0.873,0.165,1.203,0.494c0.344,0.344,0.515,0.752,0.515,1.225s-0.171,0.874-0.515,1.203
	c-0.33,0.343-0.73,0.515-1.203,0.515c-0.474,0-0.881-0.172-1.225-0.515c-0.329-0.33-0.494-0.73-0.494-1.203s0.165-0.881,0.494-1.225
	C271,120.236,271.407,120.071,271.881,120.071z M277.809,120.565c0.344,0.344,0.516,0.752,0.516,1.225s-0.172,0.874-0.516,1.203
	c-0.329,0.343-0.73,0.515-1.203,0.515s-0.881-0.172-1.225-0.515c-0.328-0.33-0.493-0.73-0.493-1.203s0.165-0.881,0.493-1.225
	c0.344-0.329,0.752-0.494,1.225-0.494S277.479,120.236,277.809,120.565z M281.33,120.071c0.474,0,0.874,0.165,1.204,0.494
	c0.343,0.344,0.515,0.752,0.515,1.225s-0.172,0.874-0.515,1.203c-0.33,0.343-0.73,0.515-1.204,0.515
	c-0.471,0-0.879-0.172-1.223-0.515c-0.33-0.33-0.495-0.73-0.495-1.203s0.165-0.881,0.495-1.225
	C280.451,120.236,280.859,120.071,281.33,120.071z M286.057,120.071c0.473,0,0.872,0.165,1.203,0.494
	c0.344,0.344,0.515,0.752,0.515,1.225s-0.171,0.874-0.515,1.203c-0.331,0.343-0.73,0.515-1.203,0.515s-0.881-0.172-1.225-0.515
	c-0.329-0.33-0.494-0.73-0.494-1.203s0.165-0.881,0.494-1.225C285.176,120.236,285.584,120.071,286.057,120.071z M7.26,120.071
	c0.472,0,0.873,0.165,1.203,0.494c0.344,0.344,0.516,0.752,0.516,1.225s-0.172,0.874-0.516,1.203
	c-0.33,0.343-0.73,0.515-1.203,0.515c-0.473,0-0.881-0.172-1.225-0.515c-0.329-0.33-0.494-0.73-0.494-1.203s0.165-0.881,0.494-1.225
	C6.379,120.236,6.788,120.071,7.26,120.071z M6.036,130.016c0.344-0.329,0.752-0.494,1.225-0.494c0.472,0,0.873,0.165,1.203,0.494
	c0.344,0.344,0.516,0.752,0.516,1.225s-0.172,0.874-0.516,1.203c-0.33,0.343-0.73,0.515-1.203,0.515
	c-0.473,0-0.881-0.172-1.225-0.515c-0.329-0.329-0.494-0.73-0.494-1.203S5.707,130.36,6.036,130.016z M10.761,132.443
	c-0.329-0.329-0.494-0.73-0.494-1.203s0.165-0.88,0.494-1.225c0.343-0.329,0.752-0.494,1.224-0.494c0.473,0,0.874,0.165,1.203,0.494
	c0.344,0.344,0.516,0.752,0.516,1.225s-0.171,0.874-0.516,1.203c-0.33,0.343-0.73,0.515-1.203,0.515
	C11.513,132.958,11.104,132.787,10.761,132.443z M11.985,138.543c0.473,0,0.874,0.165,1.203,0.494
	c0.344,0.344,0.516,0.752,0.516,1.224c0,0.474-0.171,0.875-0.516,1.204c-0.33,0.343-0.73,0.515-1.203,0.515
	c-0.472,0-0.881-0.172-1.224-0.515c-0.329-0.33-0.494-0.73-0.494-1.204c0-0.472,0.165-0.88,0.494-1.224
	C11.104,138.708,11.513,138.543,11.985,138.543z M7.26,138.543c0.472,0,0.873,0.165,1.203,0.494
	c0.344,0.344,0.516,0.752,0.516,1.224c0,0.474-0.172,0.875-0.516,1.204c-0.33,0.343-0.73,0.515-1.203,0.515
	c-0.473,0-0.881-0.172-1.225-0.515c-0.329-0.33-0.494-0.73-0.494-1.204c0-0.472,0.165-0.88,0.494-1.224
	C6.379,138.708,6.788,138.543,7.26,138.543z M283.049,131.241c0,0.473-0.172,0.874-0.515,1.203c-0.33,0.343-0.73,0.515-1.204,0.515
	c-0.471,0-0.879-0.172-1.223-0.515c-0.33-0.329-0.495-0.73-0.495-1.203s0.165-0.88,0.495-1.225c0.344-0.329,0.752-0.494,1.223-0.494
	c0.474,0,0.874,0.165,1.204,0.494C282.877,130.36,283.049,130.768,283.049,131.241z M284.832,132.443
	c-0.329-0.329-0.494-0.73-0.494-1.203s0.165-0.88,0.494-1.225c0.344-0.329,0.752-0.494,1.225-0.494s0.872,0.165,1.203,0.494
	c0.344,0.344,0.515,0.752,0.515,1.225s-0.171,0.874-0.515,1.203c-0.331,0.343-0.73,0.515-1.203,0.515
	S285.176,132.787,284.832,132.443z M274.888,131.241c0-0.473,0.165-0.88,0.493-1.225c0.344-0.329,0.752-0.494,1.225-0.494
	s0.874,0.165,1.203,0.494c0.344,0.344,0.516,0.752,0.516,1.225s-0.172,0.874-0.516,1.203c-0.329,0.343-0.73,0.515-1.203,0.515
	s-0.881-0.172-1.225-0.515C275.053,132.114,274.888,131.713,274.888,131.241z M281.33,138.543c0.474,0,0.874,0.165,1.204,0.494
	c0.343,0.344,0.515,0.752,0.515,1.224c0,0.474-0.172,0.875-0.515,1.204c-0.33,0.343-0.73,0.515-1.204,0.515
	c-0.471,0-0.879-0.172-1.223-0.515c-0.33-0.33-0.495-0.73-0.495-1.204c0-0.472,0.165-0.88,0.495-1.224
	C280.451,138.708,280.859,138.543,281.33,138.543z M276.605,138.543c0.473,0,0.874,0.165,1.203,0.494
	c0.344,0.344,0.516,0.752,0.516,1.224c0,0.474-0.172,0.875-0.516,1.204c-0.329,0.343-0.73,0.515-1.203,0.515
	s-0.881-0.172-1.225-0.515c-0.328-0.33-0.493-0.73-0.493-1.204c0-0.472,0.165-0.88,0.493-1.224
	C275.725,138.708,276.133,138.543,276.605,138.543z M286.057,138.543c0.473,0,0.872,0.165,1.203,0.494
	c0.344,0.344,0.515,0.752,0.515,1.224c0,0.474-0.171,0.875-0.515,1.204c-0.331,0.343-0.73,0.515-1.203,0.515
	s-0.881-0.172-1.225-0.515c-0.329-0.33-0.494-0.73-0.494-1.204c0-0.472,0.165-0.88,0.494-1.224
	C285.176,138.708,285.584,138.543,286.057,138.543z M267.154,129.522c0.474,0,0.874,0.165,1.204,0.494
	c0.344,0.344,0.514,0.752,0.514,1.225s-0.17,0.874-0.514,1.203c-0.33,0.343-0.73,0.515-1.204,0.515
	c-0.472,0-0.879-0.172-1.223-0.515c-0.331-0.329-0.495-0.73-0.495-1.203s0.164-0.88,0.495-1.225
	C266.275,129.687,266.683,129.522,267.154,129.522z M271.881,132.958c-0.474,0-0.881-0.172-1.225-0.515
	c-0.329-0.329-0.494-0.73-0.494-1.203s0.165-0.88,0.494-1.225c0.344-0.329,0.751-0.494,1.225-0.494c0.473,0,0.873,0.165,1.203,0.494
	c0.344,0.344,0.515,0.752,0.515,1.225s-0.171,0.874-0.515,1.203C272.754,132.787,272.354,132.958,271.881,132.958z M258.907,132.443
	c-0.329,0.343-0.73,0.515-1.202,0.515c-0.474,0-0.882-0.172-1.226-0.515c-0.328-0.329-0.495-0.73-0.495-1.203
	s0.167-0.88,0.495-1.225c0.344-0.329,0.752-0.494,1.226-0.494c0.472,0,0.873,0.165,1.202,0.494c0.344,0.344,0.516,0.752,0.516,1.225
	S259.251,132.114,258.907,132.443z M263.633,132.443c-0.329,0.343-0.73,0.515-1.204,0.515c-0.471,0-0.88-0.172-1.223-0.515
	c-0.33-0.329-0.495-0.73-0.495-1.203s0.165-0.88,0.495-1.225c0.343-0.329,0.752-0.494,1.223-0.494c0.474,0,0.875,0.165,1.204,0.494
	c0.343,0.344,0.516,0.752,0.516,1.225S263.976,132.114,263.633,132.443z M263.633,139.037c0.343,0.344,0.516,0.752,0.516,1.224
	c0,0.474-0.173,0.875-0.516,1.204c-0.329,0.343-0.73,0.515-1.204,0.515c-0.471,0-0.88-0.172-1.223-0.515
	c-0.33-0.33-0.495-0.73-0.495-1.204c0-0.472,0.165-0.88,0.495-1.224c0.343-0.329,0.752-0.494,1.223-0.494
	C262.902,138.543,263.304,138.708,263.633,139.037z M257.705,138.543c0.472,0,0.873,0.165,1.202,0.494
	c0.344,0.344,0.516,0.752,0.516,1.224c0,0.474-0.172,0.875-0.516,1.204c-0.329,0.343-0.73,0.515-1.202,0.515
	c-0.474,0-0.882-0.172-1.226-0.515c-0.328-0.33-0.495-0.73-0.495-1.204c0-0.472,0.167-0.88,0.495-1.224
	C256.823,138.708,257.231,138.543,257.705,138.543z M273.084,139.037c0.344,0.344,0.515,0.752,0.515,1.224
	c0,0.474-0.171,0.875-0.515,1.204c-0.33,0.343-0.73,0.515-1.203,0.515c-0.474,0-0.881-0.172-1.225-0.515
	c-0.329-0.33-0.494-0.73-0.494-1.204c0-0.472,0.165-0.88,0.494-1.224c0.344-0.329,0.751-0.494,1.225-0.494
	C272.354,138.543,272.754,138.708,273.084,139.037z M268.358,139.037c0.344,0.344,0.514,0.752,0.514,1.224
	c0,0.474-0.17,0.875-0.514,1.204c-0.33,0.343-0.73,0.515-1.204,0.515c-0.472,0-0.879-0.172-1.223-0.515
	c-0.331-0.33-0.495-0.73-0.495-1.204c0-0.472,0.164-0.88,0.495-1.224c0.344-0.329,0.751-0.494,1.223-0.494
	C267.628,138.543,268.028,138.708,268.358,139.037z M251.755,130.016c0.344-0.329,0.751-0.494,1.224-0.494
	c0.474,0,0.873,0.165,1.204,0.494c0.344,0.344,0.515,0.752,0.515,1.225s-0.171,0.874-0.515,1.203
	c-0.331,0.343-0.73,0.515-1.204,0.515c-0.473,0-0.88-0.172-1.224-0.515c-0.329-0.329-0.494-0.73-0.494-1.203
	S251.426,130.36,251.755,130.016z M249.457,130.016c0.343,0.344,0.515,0.752,0.515,1.225s-0.172,0.874-0.515,1.203
	c-0.33,0.343-0.73,0.515-1.204,0.515c-0.472,0-0.879-0.172-1.223-0.515c-0.331-0.329-0.495-0.73-0.495-1.203s0.164-0.88,0.495-1.225
	c0.344-0.329,0.751-0.494,1.223-0.494C248.727,129.522,249.127,129.687,249.457,130.016z M241.81,131.241
	c0-0.473,0.165-0.88,0.494-1.225c0.344-0.329,0.752-0.494,1.225-0.494c0.472,0,0.873,0.165,1.202,0.494
	c0.344,0.344,0.517,0.752,0.517,1.225s-0.173,0.874-0.517,1.203c-0.329,0.343-0.73,0.515-1.202,0.515
	c-0.473,0-0.881-0.172-1.225-0.515C241.975,132.114,241.81,131.713,241.81,131.241z M240.005,132.443
	c-0.328,0.343-0.729,0.515-1.201,0.515c-0.474,0-0.882-0.172-1.226-0.515c-0.328-0.329-0.494-0.73-0.494-1.203
	s0.166-0.88,0.494-1.225c0.344-0.329,0.752-0.494,1.226-0.494c0.472,0,0.873,0.165,1.201,0.494c0.344,0.344,0.517,0.752,0.517,1.225
	S240.349,132.114,240.005,132.443z M244.73,139.037c0.344,0.344,0.517,0.752,0.517,1.224c0,0.474-0.173,0.875-0.517,1.204
	c-0.329,0.343-0.73,0.515-1.202,0.515c-0.473,0-0.881-0.172-1.225-0.515c-0.329-0.33-0.494-0.73-0.494-1.204
	c0-0.472,0.165-0.88,0.494-1.224c0.344-0.329,0.752-0.494,1.225-0.494C244,138.543,244.401,138.708,244.73,139.037z
	 M240.005,141.465c-0.328,0.343-0.729,0.515-1.201,0.515c-0.474,0-0.882-0.172-1.226-0.515c-0.328-0.33-0.494-0.73-0.494-1.204
	c0-0.472,0.166-0.88,0.494-1.224c0.344-0.329,0.752-0.494,1.226-0.494c0.472,0,0.873,0.165,1.201,0.494
	c0.344,0.344,0.517,0.752,0.517,1.224C240.521,140.735,240.349,141.136,240.005,141.465z M246.535,140.261
	c0-0.472,0.164-0.88,0.495-1.224c0.344-0.329,0.751-0.494,1.223-0.494c0.474,0,0.874,0.165,1.204,0.494
	c0.343,0.344,0.515,0.752,0.515,1.224c0,0.474-0.172,0.875-0.515,1.204c-0.33,0.343-0.73,0.515-1.204,0.515
	c-0.472,0-0.879-0.172-1.223-0.515C246.699,141.136,246.535,140.735,246.535,140.261z M254.183,139.037
	c0.344,0.344,0.515,0.752,0.515,1.224c0,0.474-0.171,0.875-0.515,1.204c-0.331,0.343-0.73,0.515-1.204,0.515
	c-0.473,0-0.88-0.172-1.224-0.515c-0.329-0.33-0.494-0.73-0.494-1.204c0-0.472,0.165-0.88,0.494-1.224
	c0.344-0.329,0.751-0.494,1.224-0.494C253.452,138.543,253.852,138.708,254.183,139.037z M234.077,129.522
	c0.474,0,0.873,0.165,1.204,0.494c0.344,0.344,0.514,0.752,0.514,1.225s-0.17,0.874-0.514,1.203
	c-0.331,0.343-0.73,0.515-1.204,0.515c-0.472,0-0.882-0.172-1.224-0.515c-0.33-0.329-0.494-0.73-0.494-1.203s0.164-0.88,0.494-1.225
	C233.195,129.687,233.605,129.522,234.077,129.522z M230.555,132.443c-0.33,0.343-0.729,0.515-1.203,0.515
	c-0.471,0-0.88-0.172-1.223-0.515c-0.331-0.329-0.495-0.73-0.495-1.203s0.164-0.88,0.495-1.225c0.343-0.329,0.752-0.494,1.223-0.494
	c0.474,0,0.873,0.165,1.203,0.494c0.344,0.344,0.515,0.752,0.515,1.225S230.898,132.114,230.555,132.443z M222.907,131.241
	c0-0.473,0.166-0.88,0.495-1.225c0.344-0.329,0.752-0.494,1.225-0.494c0.472,0,0.873,0.165,1.202,0.494
	c0.344,0.344,0.516,0.752,0.516,1.225s-0.172,0.874-0.516,1.203c-0.329,0.343-0.73,0.515-1.202,0.515
	c-0.473,0-0.881-0.172-1.225-0.515C223.073,132.114,222.907,131.713,222.907,131.241z M229.352,138.543
	c0.474,0,0.873,0.165,1.203,0.494c0.344,0.344,0.515,0.752,0.515,1.224c0,0.474-0.171,0.875-0.515,1.204
	c-0.33,0.343-0.729,0.515-1.203,0.515c-0.471,0-0.88-0.172-1.223-0.515c-0.331-0.33-0.495-0.73-0.495-1.204
	c0-0.472,0.164-0.88,0.495-1.224C228.472,138.708,228.881,138.543,229.352,138.543z M224.627,138.543
	c0.472,0,0.873,0.165,1.202,0.494c0.344,0.344,0.516,0.752,0.516,1.224c0,0.474-0.172,0.875-0.516,1.204
	c-0.329,0.343-0.73,0.515-1.202,0.515c-0.473,0-0.881-0.172-1.225-0.515c-0.329-0.33-0.495-0.73-0.495-1.204
	c0-0.472,0.166-0.88,0.495-1.224C223.746,138.708,224.154,138.543,224.627,138.543z M234.077,138.543
	c0.474,0,0.873,0.165,1.204,0.494c0.344,0.344,0.514,0.752,0.514,1.224c0,0.474-0.17,0.875-0.514,1.204
	c-0.331,0.343-0.73,0.515-1.204,0.515c-0.472,0-0.882-0.172-1.224-0.515c-0.33-0.33-0.494-0.73-0.494-1.204
	c0-0.472,0.164-0.88,0.494-1.224C233.195,138.708,233.605,138.543,234.077,138.543z M216.38,130.016
	c0.343,0.344,0.514,0.752,0.514,1.225s-0.171,0.874-0.514,1.203c-0.331,0.343-0.73,0.515-1.204,0.515
	c-0.472,0-0.881-0.172-1.224-0.515c-0.33-0.329-0.494-0.73-0.494-1.203s0.164-0.88,0.494-1.225c0.343-0.329,0.752-0.494,1.224-0.494
	C215.649,129.522,216.049,129.687,216.38,130.016z M219.901,132.958c-0.473,0-0.881-0.172-1.225-0.515
	c-0.329-0.329-0.494-0.73-0.494-1.203s0.165-0.88,0.494-1.225c0.344-0.329,0.752-0.494,1.225-0.494s0.873,0.165,1.203,0.494
	c0.344,0.344,0.516,0.752,0.516,1.225s-0.172,0.874-0.516,1.203C220.774,132.787,220.374,132.958,219.901,132.958z M206.928,132.443
	c-0.328,0.343-0.73,0.515-1.201,0.515c-0.474,0-0.882-0.172-1.226-0.515c-0.328-0.329-0.494-0.73-0.494-1.203
	s0.166-0.88,0.494-1.225c0.344-0.329,0.752-0.494,1.226-0.494c0.471,0,0.873,0.165,1.201,0.494c0.344,0.344,0.517,0.752,0.517,1.225
	S207.271,132.114,206.928,132.443z M211.653,132.443c-0.329,0.343-0.73,0.515-1.202,0.515c-0.473,0-0.881-0.172-1.225-0.515
	c-0.329-0.329-0.494-0.73-0.494-1.203s0.165-0.88,0.494-1.225c0.344-0.329,0.752-0.494,1.225-0.494c0.472,0,0.873,0.165,1.202,0.494
	c0.344,0.344,0.516,0.752,0.516,1.225S211.997,132.114,211.653,132.443z M211.653,139.037c0.344,0.344,0.516,0.752,0.516,1.224
	c0,0.474-0.172,0.875-0.516,1.204c-0.329,0.343-0.73,0.515-1.202,0.515c-0.473,0-0.881-0.172-1.225-0.515
	c-0.329-0.33-0.494-0.73-0.494-1.204c0-0.472,0.165-0.88,0.494-1.224c0.344-0.329,0.752-0.494,1.225-0.494
	C210.923,138.543,211.324,138.708,211.653,139.037z M205.727,138.543c0.471,0,0.873,0.165,1.201,0.494
	c0.344,0.344,0.517,0.752,0.517,1.224c0,0.474-0.173,0.875-0.517,1.204c-0.328,0.343-0.73,0.515-1.201,0.515
	c-0.474,0-0.882-0.172-1.226-0.515c-0.328-0.33-0.494-0.73-0.494-1.204c0-0.472,0.166-0.88,0.494-1.224
	C204.845,138.708,205.253,138.543,205.727,138.543z M221.104,139.037c0.344,0.344,0.516,0.752,0.516,1.224
	c0,0.474-0.172,0.875-0.516,1.204c-0.33,0.343-0.73,0.515-1.203,0.515s-0.881-0.172-1.225-0.515c-0.329-0.33-0.494-0.73-0.494-1.204
	c0-0.472,0.165-0.88,0.494-1.224c0.344-0.329,0.752-0.494,1.225-0.494S220.774,138.708,221.104,139.037z M215.176,138.543
	c0.474,0,0.873,0.165,1.204,0.494c0.343,0.344,0.514,0.752,0.514,1.224c0,0.474-0.171,0.875-0.514,1.204
	c-0.331,0.343-0.73,0.515-1.204,0.515c-0.472,0-0.881-0.172-1.224-0.515c-0.33-0.33-0.494-0.73-0.494-1.204
	c0-0.472,0.164-0.88,0.494-1.224C214.295,138.708,214.704,138.543,215.176,138.543z M197.478,130.016
	c0.344,0.344,0.515,0.752,0.515,1.225s-0.171,0.874-0.515,1.203c-0.33,0.343-0.729,0.515-1.203,0.515s-0.881-0.172-1.225-0.515
	c-0.329-0.329-0.493-0.73-0.493-1.203s0.164-0.88,0.493-1.225c0.344-0.329,0.751-0.494,1.225-0.494S197.147,129.687,197.478,130.016
	z M201,132.958c-0.473,0-0.882-0.172-1.225-0.515c-0.329-0.329-0.493-0.73-0.493-1.203s0.164-0.88,0.493-1.225
	c0.343-0.329,0.752-0.494,1.225-0.494s0.873,0.165,1.203,0.494c0.344,0.344,0.515,0.752,0.515,1.225s-0.171,0.874-0.515,1.203
	C201.873,132.787,201.473,132.958,201,132.958z M190.325,130.016c0.344-0.329,0.751-0.494,1.224-0.494s0.874,0.165,1.203,0.494
	c0.344,0.344,0.516,0.752,0.516,1.225s-0.172,0.874-0.516,1.203c-0.329,0.343-0.73,0.515-1.203,0.515s-0.88-0.172-1.224-0.515
	c-0.329-0.329-0.495-0.73-0.495-1.203S189.996,130.36,190.325,130.016z M188.543,131.241c0,0.473-0.172,0.874-0.516,1.203
	c-0.33,0.343-0.731,0.515-1.204,0.515c-0.472,0-0.88-0.172-1.224-0.515c-0.329-0.329-0.494-0.73-0.494-1.203s0.165-0.88,0.494-1.225
	c0.344-0.329,0.752-0.494,1.224-0.494c0.473,0,0.874,0.165,1.204,0.494C188.371,130.36,188.543,130.768,188.543,131.241z
	 M192.752,139.037c0.344,0.344,0.516,0.752,0.516,1.224c0,0.474-0.172,0.875-0.516,1.204c-0.329,0.343-0.73,0.515-1.203,0.515
	s-0.88-0.172-1.224-0.515c-0.329-0.33-0.495-0.73-0.495-1.204c0-0.472,0.166-0.88,0.495-1.224c0.344-0.329,0.751-0.494,1.224-0.494
	S192.423,138.708,192.752,139.037z M188.027,139.037c0.344,0.344,0.516,0.752,0.516,1.224c0,0.474-0.172,0.875-0.516,1.204
	c-0.33,0.343-0.731,0.515-1.204,0.515c-0.472,0-0.88-0.172-1.224-0.515c-0.329-0.33-0.494-0.73-0.494-1.204
	c0-0.472,0.165-0.88,0.494-1.224c0.344-0.329,0.752-0.494,1.224-0.494C187.296,138.543,187.697,138.708,188.027,139.037z
	 M194.557,140.261c0-0.472,0.164-0.88,0.493-1.224c0.344-0.329,0.751-0.494,1.225-0.494s0.873,0.165,1.203,0.494
	c0.344,0.344,0.515,0.752,0.515,1.224c0,0.474-0.171,0.875-0.515,1.204c-0.33,0.343-0.729,0.515-1.203,0.515
	s-0.881-0.172-1.225-0.515C194.721,141.136,194.557,140.735,194.557,140.261z M201,138.543c0.473,0,0.873,0.165,1.203,0.494
	c0.344,0.344,0.515,0.752,0.515,1.224c0,0.474-0.171,0.875-0.515,1.204c-0.33,0.343-0.73,0.515-1.203,0.515
	s-0.882-0.172-1.225-0.515c-0.329-0.33-0.493-0.73-0.493-1.204c0-0.472,0.164-0.88,0.493-1.224
	C200.118,138.708,200.527,138.543,201,138.543z M180.873,130.016c0.344-0.329,0.752-0.494,1.226-0.494
	c0.473,0,0.873,0.165,1.204,0.494c0.343,0.344,0.514,0.752,0.514,1.225s-0.171,0.874-0.514,1.203
	c-0.331,0.343-0.731,0.515-1.204,0.515c-0.474,0-0.882-0.172-1.226-0.515c-0.328-0.329-0.492-0.73-0.492-1.203
	S180.545,130.36,180.873,130.016z M178.576,132.443c-0.33,0.343-0.73,0.515-1.203,0.515s-0.88-0.172-1.224-0.515
	c-0.33-0.329-0.494-0.73-0.494-1.203s0.164-0.88,0.494-1.225c0.344-0.329,0.751-0.494,1.224-0.494s0.873,0.165,1.203,0.494
	c0.344,0.344,0.515,0.752,0.515,1.225S178.92,132.114,178.576,132.443z M170.929,131.241c0-0.473,0.165-0.88,0.495-1.225
	c0.344-0.329,0.752-0.494,1.223-0.494c0.474,0,0.876,0.165,1.204,0.494c0.344,0.344,0.516,0.752,0.516,1.225
	s-0.172,0.874-0.516,1.203c-0.328,0.343-0.73,0.515-1.204,0.515c-0.471,0-0.879-0.172-1.223-0.515
	C171.094,132.114,170.929,131.713,170.929,131.241z M177.373,138.543c0.473,0,0.873,0.165,1.203,0.494
	c0.344,0.344,0.515,0.752,0.515,1.224c0,0.474-0.171,0.875-0.515,1.204c-0.33,0.343-0.73,0.515-1.203,0.515s-0.88-0.172-1.224-0.515
	c-0.33-0.33-0.494-0.73-0.494-1.204c0-0.472,0.164-0.88,0.494-1.224C176.493,138.708,176.9,138.543,177.373,138.543z
	 M172.646,138.543c0.474,0,0.876,0.165,1.204,0.494c0.344,0.344,0.516,0.752,0.516,1.224c0,0.474-0.172,0.875-0.516,1.204
	c-0.328,0.343-0.73,0.515-1.204,0.515c-0.471,0-0.879-0.172-1.223-0.515c-0.33-0.33-0.495-0.73-0.495-1.204
	c0-0.472,0.165-0.88,0.495-1.224C171.768,138.708,172.176,138.543,172.646,138.543z M182.099,138.543
	c0.473,0,0.873,0.165,1.204,0.494c0.343,0.344,0.514,0.752,0.514,1.224c0,0.474-0.171,0.875-0.514,1.204
	c-0.331,0.343-0.731,0.515-1.204,0.515c-0.474,0-0.882-0.172-1.226-0.515c-0.328-0.33-0.492-0.73-0.492-1.204
	c0-0.472,0.164-0.88,0.492-1.224C181.217,138.708,181.625,138.543,182.099,138.543z M164.4,130.016
	c0.344,0.344,0.515,0.752,0.515,1.225s-0.171,0.874-0.515,1.203c-0.33,0.343-0.73,0.515-1.203,0.515
	c-0.474,0-0.881-0.172-1.225-0.515c-0.329-0.329-0.494-0.73-0.494-1.203s0.165-0.88,0.494-1.225
	c0.344-0.329,0.751-0.494,1.225-0.494C163.67,129.522,164.07,129.687,164.4,130.016z M167.922,132.958
	c-0.472,0-0.881-0.172-1.224-0.515c-0.329-0.329-0.494-0.73-0.494-1.203s0.165-0.88,0.494-1.225
	c0.343-0.329,0.752-0.494,1.224-0.494c0.474,0,0.874,0.165,1.204,0.494c0.343,0.344,0.515,0.752,0.515,1.225
	s-0.172,0.874-0.515,1.203C168.796,132.787,168.396,132.958,167.922,132.958z M154.949,132.443c-0.329,0.343-0.73,0.515-1.203,0.515
	s-0.88-0.172-1.224-0.515c-0.33-0.329-0.494-0.73-0.494-1.203s0.164-0.88,0.494-1.225c0.344-0.329,0.751-0.494,1.224-0.494
	s0.874,0.165,1.203,0.494c0.344,0.344,0.516,0.752,0.516,1.225S155.293,132.114,154.949,132.443z M159.675,132.443
	c-0.329,0.343-0.73,0.515-1.203,0.515s-0.881-0.172-1.224-0.515c-0.33-0.329-0.495-0.73-0.495-1.203s0.165-0.88,0.495-1.225
	c0.343-0.329,0.751-0.494,1.224-0.494s0.874,0.165,1.203,0.494c0.344,0.344,0.516,0.752,0.516,1.225
	S160.019,132.114,159.675,132.443z M158.472,138.543c0.473,0,0.874,0.165,1.203,0.494c0.344,0.344,0.516,0.752,0.516,1.224
	c0,0.474-0.172,0.875-0.516,1.204c-0.329,0.343-0.73,0.515-1.203,0.515s-0.881-0.172-1.224-0.515c-0.33-0.33-0.495-0.73-0.495-1.204
	c0-0.472,0.165-0.88,0.495-1.224C157.591,138.708,157.999,138.543,158.472,138.543z M153.746,138.543
	c0.473,0,0.874,0.165,1.203,0.494c0.344,0.344,0.516,0.752,0.516,1.224c0,0.474-0.172,0.875-0.516,1.204
	c-0.329,0.343-0.73,0.515-1.203,0.515s-0.88-0.172-1.224-0.515c-0.33-0.33-0.494-0.73-0.494-1.204c0-0.472,0.164-0.88,0.494-1.224
	C152.866,138.708,153.273,138.543,153.746,138.543z M169.126,139.037c0.343,0.344,0.515,0.752,0.515,1.224
	c0,0.474-0.172,0.875-0.515,1.204c-0.33,0.343-0.73,0.515-1.204,0.515c-0.472,0-0.881-0.172-1.224-0.515
	c-0.329-0.33-0.494-0.73-0.494-1.204c0-0.472,0.165-0.88,0.494-1.224c0.343-0.329,0.752-0.494,1.224-0.494
	C168.396,138.543,168.796,138.708,169.126,139.037z M163.197,138.543c0.473,0,0.873,0.165,1.203,0.494
	c0.344,0.344,0.515,0.752,0.515,1.224c0,0.474-0.171,0.875-0.515,1.204c-0.33,0.343-0.73,0.515-1.203,0.515
	c-0.474,0-0.881-0.172-1.225-0.515c-0.329-0.33-0.494-0.73-0.494-1.204c0-0.472,0.165-0.88,0.494-1.224
	C162.316,138.708,162.724,138.543,163.197,138.543z M145.498,130.016c0.344,0.344,0.516,0.752,0.516,1.225s-0.172,0.874-0.516,1.203
	c-0.329,0.343-0.729,0.515-1.203,0.515c-0.473,0-0.88-0.172-1.224-0.515c-0.33-0.329-0.494-0.73-0.494-1.203s0.164-0.88,0.494-1.225
	c0.344-0.329,0.751-0.494,1.224-0.494C144.769,129.522,145.169,129.687,145.498,130.016z M149.021,132.958
	c-0.474,0-0.881-0.172-1.225-0.515c-0.329-0.329-0.494-0.73-0.494-1.203s0.165-0.88,0.494-1.225
	c0.344-0.329,0.751-0.494,1.225-0.494c0.473,0,0.873,0.165,1.202,0.494c0.344,0.344,0.516,0.752,0.516,1.225
	s-0.172,0.874-0.516,1.203C149.895,132.787,149.494,132.958,149.021,132.958z M137.852,131.241c0-0.473,0.166-0.88,0.495-1.225
	c0.343-0.329,0.752-0.494,1.224-0.494c0.473,0,0.874,0.165,1.203,0.494c0.344,0.344,0.516,0.752,0.516,1.225
	s-0.172,0.874-0.516,1.203c-0.329,0.343-0.73,0.515-1.203,0.515c-0.472,0-0.881-0.172-1.224-0.515
	C138.017,132.114,137.852,131.713,137.852,131.241z M136.048,132.443c-0.33,0.343-0.73,0.515-1.203,0.515
	c-0.473,0-0.881-0.172-1.225-0.515c-0.329-0.329-0.494-0.73-0.494-1.203s0.165-0.88,0.494-1.225
	c0.344-0.329,0.752-0.494,1.225-0.494c0.472,0,0.873,0.165,1.203,0.494c0.344,0.344,0.516,0.752,0.516,1.225
	S136.392,132.114,136.048,132.443z M140.773,139.037c0.344,0.344,0.516,0.752,0.516,1.224c0,0.474-0.172,0.875-0.516,1.204
	c-0.329,0.343-0.73,0.515-1.203,0.515c-0.472,0-0.881-0.172-1.224-0.515c-0.329-0.33-0.495-0.73-0.495-1.204
	c0-0.472,0.166-0.88,0.495-1.224c0.343-0.329,0.752-0.494,1.224-0.494C140.043,138.543,140.444,138.708,140.773,139.037z
	 M136.048,139.037c0.344,0.344,0.516,0.752,0.516,1.224c0,0.474-0.172,0.875-0.516,1.204c-0.33,0.343-0.73,0.515-1.203,0.515
	c-0.473,0-0.881-0.172-1.225-0.515c-0.329-0.33-0.494-0.73-0.494-1.204c0-0.472,0.165-0.88,0.494-1.224
	c0.344-0.329,0.752-0.494,1.225-0.494C135.317,138.543,135.718,138.708,136.048,139.037z M142.578,140.261
	c0-0.472,0.164-0.88,0.494-1.224c0.344-0.329,0.751-0.494,1.224-0.494c0.473,0,0.874,0.165,1.203,0.494
	c0.344,0.344,0.516,0.752,0.516,1.224c0,0.474-0.172,0.875-0.516,1.204c-0.329,0.343-0.729,0.515-1.203,0.515
	c-0.473,0-0.88-0.172-1.224-0.515C142.742,141.136,142.578,140.735,142.578,140.261z M149.021,138.543
	c0.473,0,0.873,0.165,1.202,0.494c0.344,0.344,0.516,0.752,0.516,1.224c0,0.474-0.172,0.875-0.516,1.204
	c-0.329,0.343-0.729,0.515-1.202,0.515c-0.474,0-0.881-0.172-1.225-0.515c-0.329-0.33-0.494-0.73-0.494-1.204
	c0-0.472,0.165-0.88,0.494-1.224C148.141,138.708,148.548,138.543,149.021,138.543z M128.896,130.016
	c0.343-0.329,0.752-0.494,1.225-0.494c0.472,0,0.873,0.165,1.203,0.494c0.343,0.344,0.515,0.752,0.515,1.225
	s-0.172,0.874-0.515,1.203c-0.33,0.343-0.73,0.515-1.203,0.515c-0.473,0-0.881-0.172-1.225-0.515
	c-0.329-0.329-0.494-0.73-0.494-1.203S128.566,130.36,128.896,130.016z M126.597,132.443c-0.33,0.343-0.73,0.515-1.203,0.515
	c-0.472,0-0.88-0.172-1.224-0.515c-0.33-0.329-0.494-0.73-0.494-1.203s0.164-0.88,0.494-1.225c0.344-0.329,0.752-0.494,1.224-0.494
	c0.473,0,0.874,0.165,1.203,0.494c0.344,0.344,0.515,0.752,0.515,1.225S126.941,132.114,126.597,132.443z M118.951,131.241
	c0-0.473,0.164-0.88,0.494-1.225c0.344-0.329,0.752-0.494,1.224-0.494c0.473,0,0.874,0.165,1.203,0.494
	c0.344,0.344,0.516,0.752,0.516,1.225s-0.172,0.874-0.516,1.203c-0.33,0.343-0.73,0.515-1.203,0.515
	c-0.472,0-0.88-0.172-1.224-0.515C119.115,132.114,118.951,131.713,118.951,131.241z M117.146,132.443
	c-0.33,0.343-0.73,0.515-1.203,0.515c-0.472,0-0.881-0.172-1.224-0.515c-0.33-0.329-0.494-0.73-0.494-1.203s0.164-0.88,0.494-1.225
	c0.343-0.329,0.752-0.494,1.224-0.494c0.473,0,0.874,0.165,1.203,0.494c0.343,0.344,0.515,0.752,0.515,1.225
	S117.49,132.114,117.146,132.443z M125.394,138.543c0.473,0,0.874,0.165,1.203,0.494c0.344,0.344,0.515,0.752,0.515,1.224
	c0,0.474-0.171,0.875-0.515,1.204c-0.33,0.343-0.73,0.515-1.203,0.515c-0.472,0-0.88-0.172-1.224-0.515
	c-0.33-0.33-0.494-0.73-0.494-1.204c0-0.472,0.164-0.88,0.494-1.224C124.514,138.708,124.922,138.543,125.394,138.543z
	 M120.668,138.543c0.473,0,0.874,0.165,1.203,0.494c0.344,0.344,0.516,0.752,0.516,1.224c0,0.474-0.172,0.875-0.516,1.204
	c-0.33,0.343-0.73,0.515-1.203,0.515c-0.472,0-0.88-0.172-1.224-0.515c-0.33-0.33-0.494-0.73-0.494-1.204
	c0-0.472,0.164-0.88,0.494-1.224C119.788,138.708,120.196,138.543,120.668,138.543z M117.146,141.465
	c-0.33,0.343-0.73,0.515-1.203,0.515c-0.472,0-0.881-0.172-1.224-0.515c-0.33-0.33-0.494-0.73-0.494-1.204
	c0-0.472,0.164-0.88,0.494-1.224c0.343-0.329,0.752-0.494,1.224-0.494c0.473,0,0.874,0.165,1.203,0.494
	c0.343,0.344,0.515,0.752,0.515,1.224C117.662,140.735,117.49,141.136,117.146,141.465z M131.323,139.037
	c0.343,0.344,0.515,0.752,0.515,1.224c0,0.474-0.172,0.875-0.515,1.204c-0.33,0.343-0.73,0.515-1.203,0.515
	c-0.473,0-0.881-0.172-1.225-0.515c-0.329-0.33-0.494-0.73-0.494-1.204c0-0.472,0.165-0.88,0.494-1.224
	c0.343-0.329,0.752-0.494,1.225-0.494C130.592,138.543,130.993,138.708,131.323,139.037z M112.421,130.016
	c0.344,0.344,0.516,0.752,0.516,1.225s-0.172,0.874-0.516,1.203c-0.33,0.343-0.73,0.515-1.203,0.515
	c-0.472,0-0.88-0.172-1.224-0.515c-0.329-0.329-0.494-0.73-0.494-1.203s0.165-0.88,0.494-1.225c0.344-0.329,0.752-0.494,1.224-0.494
	C111.69,129.522,112.091,129.687,112.421,130.016z M102.97,132.443c-0.33,0.343-0.73,0.515-1.203,0.515s-0.88-0.172-1.224-0.515
	c-0.33-0.329-0.494-0.73-0.494-1.203s0.165-0.88,0.494-1.225c0.344-0.329,0.751-0.494,1.224-0.494s0.873,0.165,1.203,0.494
	c0.344,0.344,0.516,0.752,0.516,1.225S103.314,132.114,102.97,132.443z M107.696,132.443c-0.33,0.343-0.73,0.515-1.203,0.515
	c-0.473,0-0.881-0.172-1.225-0.515c-0.329-0.329-0.494-0.73-0.494-1.203s0.165-0.88,0.494-1.225
	c0.343-0.329,0.752-0.494,1.225-0.494c0.472,0,0.873,0.165,1.203,0.494c0.343,0.344,0.515,0.752,0.515,1.225
	S108.039,132.114,107.696,132.443z M106.493,138.543c0.472,0,0.873,0.165,1.203,0.494c0.343,0.344,0.515,0.752,0.515,1.224
	c0,0.474-0.172,0.875-0.515,1.204c-0.33,0.343-0.73,0.515-1.203,0.515c-0.473,0-0.881-0.172-1.225-0.515
	c-0.329-0.33-0.494-0.73-0.494-1.204c0-0.472,0.165-0.88,0.494-1.224C105.612,138.708,106.021,138.543,106.493,138.543z
	 M101.768,138.543c0.473,0,0.873,0.165,1.203,0.494c0.344,0.344,0.516,0.752,0.516,1.224c0,0.474-0.172,0.875-0.516,1.204
	c-0.33,0.343-0.73,0.515-1.203,0.515s-0.88-0.172-1.224-0.515c-0.33-0.33-0.494-0.73-0.494-1.204c0-0.472,0.165-0.88,0.494-1.224
	C100.887,138.708,101.295,138.543,101.768,138.543z M111.218,138.543c0.473,0,0.874,0.165,1.203,0.494
	c0.344,0.344,0.516,0.752,0.516,1.224c0,0.474-0.172,0.875-0.516,1.204c-0.33,0.343-0.73,0.515-1.203,0.515
	c-0.472,0-0.88-0.172-1.224-0.515c-0.329-0.33-0.494-0.73-0.494-1.204c0-0.472,0.165-0.88,0.494-1.224
	C110.337,138.708,110.746,138.543,111.218,138.543z M92.317,129.522c0.473,0,0.874,0.165,1.203,0.494
	c0.344,0.344,0.515,0.752,0.515,1.225s-0.171,0.874-0.515,1.203c-0.329,0.343-0.73,0.515-1.203,0.515s-0.881-0.172-1.225-0.515
	c-0.329-0.329-0.494-0.73-0.494-1.203s0.165-0.88,0.494-1.225C91.436,129.687,91.844,129.522,92.317,129.522z M97.042,132.958
	c-0.473,0-0.881-0.172-1.225-0.515c-0.329-0.329-0.494-0.73-0.494-1.203s0.165-0.88,0.494-1.225
	c0.344-0.329,0.752-0.494,1.225-0.494c0.473,0,0.874,0.165,1.202,0.494c0.344,0.344,0.516,0.752,0.516,1.225
	s-0.172,0.874-0.516,1.203C97.916,132.787,97.515,132.958,97.042,132.958z M85.873,131.241c0-0.473,0.165-0.88,0.494-1.225
	c0.344-0.329,0.752-0.494,1.225-0.494c0.473,0,0.874,0.165,1.203,0.494c0.344,0.344,0.516,0.752,0.516,1.225
	s-0.172,0.874-0.516,1.203c-0.329,0.343-0.729,0.515-1.203,0.515c-0.473,0-0.881-0.172-1.225-0.515
	C86.038,132.114,85.873,131.713,85.873,131.241z M84.069,132.443c-0.329,0.343-0.73,0.515-1.203,0.515
	c-0.473,0-0.881-0.172-1.225-0.515c-0.329-0.329-0.494-0.73-0.494-1.203s0.165-0.88,0.494-1.225
	c0.343-0.329,0.752-0.494,1.225-0.494c0.472,0,0.874,0.165,1.203,0.494c0.344,0.344,0.516,0.752,0.516,1.225
	S84.413,132.114,84.069,132.443z M88.794,139.037c0.344,0.344,0.516,0.752,0.516,1.224c0,0.474-0.172,0.875-0.516,1.204
	c-0.329,0.343-0.729,0.515-1.203,0.515c-0.473,0-0.881-0.172-1.225-0.515c-0.329-0.33-0.494-0.73-0.494-1.204
	c0-0.472,0.165-0.88,0.494-1.224c0.344-0.329,0.752-0.494,1.225-0.494C88.064,138.543,88.465,138.708,88.794,139.037z
	 M84.069,139.037c0.344,0.344,0.516,0.752,0.516,1.224c0,0.474-0.172,0.875-0.516,1.204c-0.329,0.343-0.73,0.515-1.203,0.515
	c-0.473,0-0.881-0.172-1.225-0.515c-0.329-0.33-0.494-0.73-0.494-1.204c0-0.472,0.165-0.88,0.494-1.224
	c0.343-0.329,0.752-0.494,1.225-0.494C83.338,138.543,83.74,138.708,84.069,139.037z M98.245,139.037
	c0.344,0.344,0.516,0.752,0.516,1.224c0,0.474-0.172,0.875-0.516,1.204c-0.329,0.343-0.729,0.515-1.202,0.515
	c-0.473,0-0.881-0.172-1.225-0.515c-0.329-0.33-0.494-0.73-0.494-1.204c0-0.472,0.165-0.88,0.494-1.224
	c0.344-0.329,0.752-0.494,1.225-0.494C97.515,138.543,97.916,138.708,98.245,139.037z M93.52,139.037
	c0.344,0.344,0.515,0.752,0.515,1.224c0,0.474-0.171,0.875-0.515,1.204c-0.329,0.343-0.73,0.515-1.203,0.515
	s-0.881-0.172-1.225-0.515c-0.329-0.33-0.494-0.73-0.494-1.204c0-0.472,0.165-0.88,0.494-1.224c0.343-0.329,0.752-0.494,1.225-0.494
	S93.19,138.708,93.52,139.037z M76.917,130.016c0.344-0.329,0.751-0.494,1.224-0.494s0.874,0.165,1.203,0.494
	c0.344,0.344,0.516,0.752,0.516,1.225s-0.172,0.874-0.516,1.203c-0.329,0.343-0.73,0.515-1.203,0.515s-0.88-0.172-1.224-0.515
	c-0.33-0.329-0.494-0.73-0.494-1.203S76.587,130.36,76.917,130.016z M74.618,132.443c-0.329,0.343-0.729,0.515-1.202,0.515
	s-0.881-0.172-1.224-0.515c-0.33-0.329-0.495-0.73-0.495-1.203s0.165-0.88,0.495-1.225c0.343-0.329,0.751-0.494,1.224-0.494
	s0.874,0.165,1.202,0.494c0.344,0.344,0.516,0.752,0.516,1.225S74.962,132.114,74.618,132.443z M66.972,131.241
	c0-0.473,0.165-0.88,0.494-1.225c0.344-0.329,0.751-0.494,1.224-0.494s0.874,0.165,1.203,0.494c0.344,0.344,0.516,0.752,0.516,1.225
	s-0.171,0.874-0.516,1.203c-0.329,0.343-0.73,0.515-1.203,0.515s-0.88-0.172-1.224-0.515
	C67.136,132.114,66.972,131.713,66.972,131.241z M65.167,132.443c-0.329,0.343-0.729,0.515-1.203,0.515
	c-0.472,0-0.88-0.172-1.224-0.515c-0.33-0.329-0.494-0.73-0.494-1.203s0.165-0.88,0.494-1.225c0.344-0.329,0.752-0.494,1.224-0.494
	c0.473,0,0.874,0.165,1.203,0.494c0.344,0.344,0.516,0.752,0.516,1.225S65.511,132.114,65.167,132.443z M73.416,138.543
	c0.473,0,0.874,0.165,1.202,0.494c0.344,0.344,0.516,0.752,0.516,1.224c0,0.474-0.172,0.875-0.516,1.204
	c-0.329,0.343-0.729,0.515-1.202,0.515s-0.881-0.172-1.224-0.515c-0.33-0.33-0.495-0.73-0.495-1.204c0-0.472,0.165-0.88,0.495-1.224
	C72.535,138.708,72.943,138.543,73.416,138.543z M68.69,138.543c0.473,0,0.874,0.165,1.203,0.494
	c0.344,0.344,0.516,0.752,0.516,1.224c0,0.474-0.171,0.875-0.516,1.204c-0.329,0.343-0.73,0.515-1.203,0.515
	s-0.88-0.172-1.224-0.515c-0.33-0.33-0.494-0.73-0.494-1.204c0-0.472,0.165-0.88,0.494-1.224
	C67.81,138.708,68.217,138.543,68.69,138.543z M65.167,141.465c-0.329,0.343-0.729,0.515-1.203,0.515
	c-0.472,0-0.88-0.172-1.224-0.515c-0.33-0.33-0.494-0.73-0.494-1.204c0-0.472,0.165-0.88,0.494-1.224
	c0.344-0.329,0.752-0.494,1.224-0.494c0.473,0,0.874,0.165,1.203,0.494c0.344,0.344,0.516,0.752,0.516,1.224
	C65.683,140.735,65.511,141.136,65.167,141.465z M79.343,139.037c0.344,0.344,0.516,0.752,0.516,1.224
	c0,0.474-0.172,0.875-0.516,1.204c-0.329,0.343-0.73,0.515-1.203,0.515s-0.88-0.172-1.224-0.515c-0.33-0.33-0.494-0.73-0.494-1.204
	c0-0.472,0.165-0.88,0.494-1.224c0.344-0.329,0.751-0.494,1.224-0.494S79.014,138.708,79.343,139.037z M58.015,130.016
	c0.343-0.329,0.752-0.494,1.224-0.494c0.473,0,0.874,0.165,1.203,0.494c0.343,0.344,0.515,0.752,0.515,1.225
	s-0.172,0.874-0.515,1.203c-0.33,0.343-0.73,0.515-1.203,0.515c-0.472,0-0.881-0.172-1.224-0.515
	c-0.33-0.329-0.495-0.73-0.495-1.203S57.686,130.36,58.015,130.016z M48.564,130.016c0.343-0.329,0.751-0.494,1.224-0.494
	s0.874,0.165,1.203,0.494c0.343,0.344,0.515,0.752,0.515,1.225s-0.172,0.874-0.515,1.203c-0.33,0.343-0.73,0.515-1.203,0.515
	s-0.881-0.172-1.224-0.515c-0.33-0.329-0.494-0.73-0.494-1.203S48.235,130.36,48.564,130.016z M55.717,130.016
	c0.344,0.344,0.516,0.752,0.516,1.225s-0.172,0.874-0.516,1.203c-0.33,0.343-0.73,0.515-1.203,0.515s-0.88-0.172-1.224-0.515
	c-0.33-0.329-0.494-0.73-0.494-1.203s0.164-0.88,0.494-1.225c0.344-0.329,0.751-0.494,1.224-0.494S55.387,129.687,55.717,130.016z
	 M55.717,139.037c0.344,0.344,0.516,0.752,0.516,1.224c0,0.474-0.172,0.875-0.516,1.204c-0.33,0.343-0.73,0.515-1.203,0.515
	s-0.88-0.172-1.224-0.515c-0.33-0.33-0.494-0.73-0.494-1.204c0-0.472,0.164-0.88,0.494-1.224c0.344-0.329,0.751-0.494,1.224-0.494
	S55.387,138.708,55.717,139.037z M50.992,139.037c0.343,0.344,0.515,0.752,0.515,1.224c0,0.474-0.172,0.875-0.515,1.204
	c-0.33,0.343-0.73,0.515-1.203,0.515s-0.881-0.172-1.224-0.515c-0.33-0.33-0.494-0.73-0.494-1.204c0-0.472,0.165-0.88,0.494-1.224
	c0.343-0.329,0.751-0.494,1.224-0.494S50.662,138.708,50.992,139.037z M59.239,138.543c0.473,0,0.874,0.165,1.203,0.494
	c0.343,0.344,0.515,0.752,0.515,1.224c0,0.474-0.172,0.875-0.515,1.204c-0.33,0.343-0.73,0.515-1.203,0.515
	c-0.472,0-0.881-0.172-1.224-0.515c-0.33-0.33-0.495-0.73-0.495-1.204c0-0.472,0.165-0.88,0.495-1.224
	C58.358,138.708,58.767,138.543,59.239,138.543z M40.337,129.522c0.473,0,0.874,0.165,1.203,0.494
	c0.344,0.344,0.516,0.752,0.516,1.225s-0.172,0.874-0.516,1.203c-0.33,0.343-0.73,0.515-1.203,0.515
	c-0.472,0-0.88-0.172-1.224-0.515c-0.33-0.329-0.494-0.73-0.494-1.203s0.164-0.88,0.494-1.225
	C39.457,129.687,39.865,129.522,40.337,129.522z M45.063,132.958c-0.473,0-0.88-0.172-1.224-0.515
	c-0.33-0.329-0.494-0.73-0.494-1.203s0.164-0.88,0.494-1.225c0.344-0.329,0.751-0.494,1.224-0.494s0.874,0.165,1.203,0.494
	c0.344,0.344,0.515,0.752,0.515,1.225s-0.171,0.874-0.515,1.203C45.937,132.787,45.536,132.958,45.063,132.958z M33.895,131.241
	c0-0.473,0.165-0.88,0.494-1.225c0.343-0.329,0.752-0.494,1.225-0.494c0.472,0,0.873,0.165,1.203,0.494
	c0.343,0.344,0.515,0.752,0.515,1.225s-0.172,0.874-0.515,1.203c-0.33,0.343-0.73,0.515-1.203,0.515
	c-0.473,0-0.881-0.172-1.225-0.515C34.059,132.114,33.895,131.713,33.895,131.241z M32.09,132.443
	c-0.33,0.343-0.73,0.515-1.203,0.515c-0.473,0-0.881-0.172-1.225-0.515c-0.329-0.329-0.494-0.73-0.494-1.203s0.165-0.88,0.494-1.225
	c0.344-0.329,0.752-0.494,1.225-0.494c0.472,0,0.873,0.165,1.203,0.494c0.344,0.344,0.516,0.752,0.516,1.225
	S32.434,132.114,32.09,132.443z M36.815,139.037c0.343,0.344,0.515,0.752,0.515,1.224c0,0.474-0.172,0.875-0.515,1.204
	c-0.33,0.343-0.73,0.515-1.203,0.515c-0.473,0-0.881-0.172-1.225-0.515c-0.329-0.33-0.494-0.73-0.494-1.204
	c0-0.472,0.165-0.88,0.494-1.224c0.343-0.329,0.752-0.494,1.225-0.494C36.085,138.543,36.486,138.708,36.815,139.037z
	 M32.09,139.037c0.344,0.344,0.516,0.752,0.516,1.224c0,0.474-0.172,0.875-0.516,1.204c-0.33,0.343-0.73,0.515-1.203,0.515
	c-0.473,0-0.881-0.172-1.225-0.515c-0.329-0.33-0.494-0.73-0.494-1.204c0-0.472,0.165-0.88,0.494-1.224
	c0.344-0.329,0.752-0.494,1.225-0.494C31.359,138.543,31.76,138.708,32.09,139.037z M46.266,139.037
	c0.344,0.344,0.515,0.752,0.515,1.224c0,0.474-0.171,0.875-0.515,1.204c-0.33,0.343-0.73,0.515-1.203,0.515s-0.88-0.172-1.224-0.515
	c-0.33-0.33-0.494-0.73-0.494-1.204c0-0.472,0.164-0.88,0.494-1.224c0.344-0.329,0.751-0.494,1.224-0.494
	S45.937,138.708,46.266,139.037z M41.541,139.037c0.344,0.344,0.516,0.752,0.516,1.224c0,0.474-0.172,0.875-0.516,1.204
	c-0.33,0.343-0.73,0.515-1.203,0.515c-0.472,0-0.88-0.172-1.224-0.515c-0.33-0.33-0.494-0.73-0.494-1.204
	c0-0.472,0.164-0.88,0.494-1.224c0.344-0.329,0.752-0.494,1.224-0.494C40.811,138.543,41.211,138.708,41.541,139.037z
	 M22.639,130.016c0.344,0.344,0.516,0.752,0.516,1.225s-0.172,0.874-0.516,1.203c-0.329,0.343-0.73,0.515-1.203,0.515
	c-0.473,0-0.881-0.172-1.225-0.515c-0.329-0.329-0.494-0.73-0.494-1.203s0.165-0.88,0.494-1.225
	c0.344-0.329,0.752-0.494,1.225-0.494C21.909,129.522,22.31,129.687,22.639,130.016z M24.443,131.241
	c0-0.473,0.165-0.88,0.494-1.225c0.343-0.329,0.752-0.494,1.225-0.494c0.472,0,0.873,0.165,1.203,0.494
	c0.343,0.344,0.515,0.752,0.515,1.225s-0.172,0.874-0.515,1.203c-0.33,0.343-0.73,0.515-1.203,0.515
	c-0.473,0-0.881-0.172-1.225-0.515C24.608,132.114,24.443,131.713,24.443,131.241z M14.993,131.241c0-0.473,0.165-0.88,0.494-1.225
	c0.344-0.329,0.752-0.494,1.225-0.494c0.473,0,0.874,0.165,1.203,0.494c0.344,0.344,0.516,0.752,0.516,1.225
	s-0.172,0.874-0.516,1.203c-0.329,0.343-0.73,0.515-1.203,0.515c-0.472,0-0.881-0.172-1.225-0.515
	C15.157,132.114,14.993,131.713,14.993,131.241z M16.711,138.543c0.473,0,0.874,0.165,1.203,0.494
	c0.344,0.344,0.516,0.752,0.516,1.224c0,0.474-0.172,0.875-0.516,1.204c-0.329,0.343-0.73,0.515-1.203,0.515
	c-0.472,0-0.881-0.172-1.225-0.515c-0.329-0.33-0.494-0.73-0.494-1.204c0-0.472,0.165-0.88,0.494-1.224
	C15.83,138.708,16.239,138.543,16.711,138.543z M19.718,140.261c0-0.472,0.165-0.88,0.494-1.224
	c0.344-0.329,0.752-0.494,1.225-0.494c0.472,0,0.874,0.165,1.203,0.494c0.344,0.344,0.516,0.752,0.516,1.224
	c0,0.474-0.172,0.875-0.516,1.204c-0.329,0.343-0.73,0.515-1.203,0.515c-0.473,0-0.881-0.172-1.225-0.515
	C19.883,141.136,19.718,140.735,19.718,140.261z M27.365,139.037c0.343,0.344,0.515,0.752,0.515,1.224
	c0,0.474-0.172,0.875-0.515,1.204c-0.33,0.343-0.73,0.515-1.203,0.515c-0.473,0-0.881-0.172-1.225-0.515
	c-0.329-0.33-0.494-0.73-0.494-1.204c0-0.472,0.165-0.88,0.494-1.224c0.343-0.329,0.752-0.494,1.225-0.494
	C26.634,138.543,27.035,138.708,27.365,139.037z"/>
</svg>
