<?xml version="1.0" encoding="utf-8"?>
<!-- Generator: Adobe Illustrator 16.0.0, SVG Export Plug-In . SVG Version: 6.00 Build 0)  -->
<!DOCTYPE svg PUBLIC "-//W3C//DTD SVG 1.1//EN" "http://www.w3.org/Graphics/SVG/1.1/DTD/svg11.dtd">
<svg version="1.1" id="Layer_1" xmlns="http://www.w3.org/2000/svg" xmlns:xlink="http://www.w3.org/1999/xlink" x="0px" y="0px"
	 width="300px" height="300px" viewBox="0 0 300 300" enable-background="new 0 0 300 300" xml:space="preserve">
<path d="M106.756,144.289c-0.165-0.274-0.137-0.467,0.083-0.577c0.183-0.091,0.32-0.073,0.412,0.056c0.037,0,0.055-0.01,0.055-0.027
	c0.275-0.166,0.495-0.118,0.66,0.139c0.183,0.236,0.156,0.447-0.083,0.631c-0.238,0.201-0.449,0.165-0.632-0.109
	C107.067,144.564,106.902,144.527,106.756,144.289z M108.679,143.878c-0.183-0.257-0.156-0.459,0.083-0.605
	c0.256-0.165,0.466-0.128,0.632,0.109c0.165,0.257,0.137,0.468-0.083,0.633c-0.037,0-0.064,0.019-0.083,0.054
	c0.11,0.275,0.056,0.449-0.165,0.523c-0.238,0.109-0.421,0.055-0.549-0.166C108.404,144.225,108.459,144.042,108.679,143.878z
	 M110.52,143.574c0.312-0.146,0.55-0.082,0.714,0.192c0.165,0.313,0.119,0.586-0.137,0.825c-0.238,0.237-0.477,0.173-0.714-0.192
	C110.145,144.015,110.19,143.738,110.52,143.574z M112.003,143.438c0.147-0.092,0.266-0.119,0.357-0.083
	c-0.055-0.165,0.009-0.302,0.192-0.411c0.238-0.147,0.439-0.102,0.604,0.137c0.165,0.221,0.137,0.412-0.082,0.577
	c-0.147,0.11-0.284,0.128-0.413,0.055c0.092,0.275,0.083,0.495-0.027,0.659v0.028c0.165,0.457,0.073,0.75-0.274,0.879
	c-0.33,0.108-0.596,0.018-0.797-0.275c-0.201-0.311-0.146-0.566,0.166-0.77C111.582,143.887,111.674,143.621,112.003,143.438z
	 M102.415,142.668c0.11,0.312,0.055,0.504-0.165,0.577c-0.238,0.092-0.422,0.036-0.55-0.165c-0.128-0.22-0.073-0.412,0.165-0.577
	C102.122,142.339,102.305,142.394,102.415,142.668z M101.646,143.492c0.293-0.184,0.531-0.138,0.714,0.138
	c0.183,0.257,0.156,0.485-0.083,0.687c-0.257,0.201-0.494,0.156-0.714-0.137C101.362,143.887,101.389,143.657,101.646,143.492z
	 M103.569,143.904c0.384-0.202,0.677-0.119,0.879,0.246c0.037,0.057,0.064,0.119,0.083,0.192c0.036-0.019,0.055-0.036,0.055-0.055
	c-0.091-0.201-0.037-0.375,0.165-0.522c0.22-0.109,0.367-0.046,0.439,0.192c0.037,0.147,0.046,0.266,0.028,0.356
	c0.037,0.056,0.064,0.119,0.083,0.192c0.146,0.366,0.082,0.604-0.192,0.715c-0.293,0.108-0.522,0.046-0.687-0.192
	c-0.018,0.056-0.055,0.101-0.11,0.138c-0.33,0.293-0.632,0.202-0.907-0.274C103.111,144.436,103.166,144.107,103.569,143.904z
	 M102.772,149.289c-0.201-0.311-0.137-0.576,0.192-0.797c0.33-0.201,0.586-0.155,0.77,0.138c0.183,0.312,0.119,0.577-0.192,0.797
	C103.212,149.646,102.956,149.602,102.772,149.289z M101.289,151.624c-0.33,0.146-0.586,0.092-0.77-0.165
	c-0.183-0.293-0.128-0.566,0.165-0.823c0.33-0.257,0.595-0.202,0.796,0.164C101.682,151.148,101.618,151.423,101.289,151.624z
	 M104.833,149.646c0.184-0.019,0.339,0.063,0.467,0.248c0.146,0.273,0.082,0.502-0.192,0.687c-0.019,0.021-0.037,0.028-0.055,0.028
	c0.147,0.348,0.092,0.612-0.165,0.797c-0.11,0.072-0.229,0.108-0.357,0.108c-0.275,0.185-0.485,0.165-0.632-0.056
	c-0.165-0.221-0.128-0.402,0.11-0.549c0-0.146,0.101-0.293,0.302-0.439c0-0.02,0.01-0.027,0.028-0.027l0.027-0.027h-0.027
	c-0.092-0.02-0.183-0.092-0.275-0.221c-0.146-0.236-0.092-0.457,0.165-0.658C104.485,149.335,104.686,149.372,104.833,149.646z
	 M107.525,145.801c-0.165-0.386-0.083-0.679,0.248-0.88c0.33-0.185,0.559-0.082,0.687,0.303c0.146,0.401,0.073,0.694-0.22,0.88
	C107.965,146.249,107.727,146.148,107.525,145.801z M108.624,149.536c0.256-0.185,0.467-0.138,0.632,0.138v0.027l0.028-0.027
	c0.274-0.165,0.485-0.129,0.632,0.109c0.128,0.256,0.073,0.477-0.165,0.66c-0.275,0.164-0.485,0.127-0.632-0.109
	c-0.274,0.127-0.485,0.072-0.632-0.166c-0.055-0.073-0.083-0.146-0.083-0.219C108.404,149.82,108.478,149.684,108.624,149.536z
	 M107.168,151.322c-0.183-0.201-0.137-0.402,0.137-0.604c0.257-0.202,0.458-0.165,0.604,0.11c0.11,0.273,0.055,0.484-0.165,0.631
	C107.544,151.607,107.352,151.561,107.168,151.322z M112.003,149.482c0.147,0.238,0.11,0.42-0.11,0.549
	c-0.11,0.056-0.21,0.072-0.302,0.056c-0.147,0.092-0.266,0.137-0.357,0.137c0.037,0.037,0.083,0.093,0.138,0.165
	c0.11,0.313,0.045,0.551-0.192,0.715c-0.22,0.146-0.439,0.102-0.66-0.138c-0.201-0.257-0.146-0.494,0.165-0.714
	c0.11-0.092,0.22-0.139,0.33-0.139c-0.019-0.019-0.037-0.035-0.056-0.055c-0.165-0.238-0.128-0.431,0.11-0.576
	c0.146-0.109,0.284-0.146,0.412-0.109C111.701,149.207,111.875,149.242,112.003,149.482z M120.191,142.668
	c0.146,0.201,0.119,0.385-0.083,0.55c-0.2,0.146-0.376,0.101-0.522-0.138c-0.201-0.201-0.183-0.376,0.056-0.521
	C119.841,142.411,120.025,142.447,120.191,142.668z M117.828,144.262c-0.202,0.201-0.402,0.146-0.604-0.166
	c-0.201-0.328-0.165-0.558,0.11-0.687c0.257-0.146,0.458-0.091,0.604,0.165C118.084,143.831,118.047,144.061,117.828,144.262z
	 M118.432,143.382c0.312-0.201,0.54-0.101,0.687,0.303c0.129,0.403,0.056,0.687-0.219,0.852c-0.293,0.165-0.531,0.064-0.714-0.303
	C118.001,143.887,118.084,143.603,118.432,143.382z M120.216,144.811c0.13,0.275,0.074,0.449-0.163,0.521
	c-0.093,0.038-0.185,0.047-0.275,0.027c0,0.093-0.046,0.176-0.137,0.248c-0.146,0.146-0.284,0.108-0.412-0.11
	c-0.128-0.22-0.11-0.375,0.055-0.468c0.073-0.019,0.128-0.026,0.165-0.026c0-0.146,0.082-0.284,0.247-0.411
	C119.934,144.443,120.108,144.518,120.216,144.811z M121.207,143.738c-0.108-0.256-0.045-0.458,0.192-0.604
	c0.222-0.146,0.386-0.073,0.495,0.22c0.092,0.275,0.036,0.477-0.165,0.604C121.509,144.068,121.333,143.995,121.207,143.738z
	 M122.416,143.822c0.092,0.164,0.072,0.293-0.056,0.385c-0.128,0.109-0.248,0.082-0.356-0.083c-0.129-0.146-0.109-0.267,0.056-0.356
	C122.187,143.676,122.306,143.694,122.416,143.822z M123.294,143.878c0.055-0.038,0.102-0.056,0.138-0.056
	c-0.128-0.35-0.036-0.596,0.274-0.742c0.365-0.201,0.65-0.128,0.853,0.221c0.201,0.347,0.146,0.668-0.165,0.961
	c-0.257,0.256-0.514,0.229-0.77-0.082c0,0.072-0.045,0.128-0.138,0.164c-0.129,0.037-0.229,0-0.303-0.109
	C123.093,144.107,123.13,143.986,123.294,143.878z M114.311,143.904c-0.146,0.146-0.302,0.101-0.467-0.139
	c-0.146-0.237-0.11-0.412,0.11-0.521c0.183-0.11,0.339-0.073,0.467,0.109C114.513,143.557,114.476,143.738,114.311,143.904z
	 M114.943,143.657c0.238-0.128,0.422-0.092,0.55,0.109c0.146,0.202,0.128,0.377-0.055,0.522c-0.201,0.164-0.385,0.128-0.549-0.109
	C114.723,143.959,114.741,143.785,114.943,143.657z M115.41,142.916c-0.219,0.092-0.394,0.036-0.521-0.165
	c-0.11-0.201-0.055-0.376,0.165-0.522c0.238-0.164,0.412-0.11,0.522,0.165C115.685,142.668,115.63,142.842,115.41,142.916z
	 M115.932,145.801c-0.238,0.146-0.431,0.073-0.577-0.221c-0.146-0.313-0.083-0.568,0.192-0.77c0.275-0.146,0.467-0.056,0.577,0.274
	C116.252,145.436,116.189,145.672,115.932,145.801z M117.553,147.806c0.183-0.146,0.33-0.11,0.439,0.109
	c0.109,0.2,0.073,0.349-0.11,0.44c-0.165,0.09-0.302,0.063-0.413-0.084C117.342,148.109,117.37,147.952,117.553,147.806z
	 M113.322,148.273c0.201,0.349,0.11,0.649-0.275,0.905c-0.385,0.274-0.687,0.222-0.907-0.164c-0.22-0.366-0.137-0.678,0.247-0.935
	C112.791,147.842,113.102,147.906,113.322,148.273z M113.927,150.525c-0.183,0-0.357-0.101-0.522-0.303
	c-0.275-0.328-0.202-0.648,0.219-0.962c0.403-0.293,0.696-0.229,0.879,0.192c0.091,0.203,0.128,0.376,0.11,0.521
	c0.037,0.038,0.073,0.084,0.11,0.139c0.165,0.273,0.11,0.485-0.165,0.632c-0.257,0.128-0.449,0.092-0.578-0.109
	C113.945,150.6,113.927,150.563,113.927,150.525z M117.333,149.316c0.238-0.164,0.458-0.164,0.66,0
	c0.22,0.185,0.183,0.386-0.11,0.604c-0.275,0.201-0.495,0.211-0.66,0.028l-0.055,0.025c-0.202,0.146-0.394,0.129-0.577-0.055
	c-0.055,0.055-0.119,0.102-0.192,0.139c-0.312,0.236-0.577,0.247-0.797,0.026c-0.146,0.055-0.274,0.009-0.384-0.138
	c-0.165-0.238-0.128-0.432,0.11-0.576c0.037-0.02,0.064-0.037,0.082-0.057c0.074-0.127,0.184-0.237,0.33-0.328
	c0.385-0.258,0.687-0.202,0.907,0.164v0.026h0.027c0.312-0.22,0.531-0.183,0.659,0.11V149.316z M119.037,148.521
	c0.293-0.185,0.522-0.139,0.687,0.137c0.165,0.273,0.109,0.514-0.164,0.715c-0.294,0.182-0.531,0.146-0.715-0.111
	C118.679,148.968,118.744,148.722,119.037,148.521z M119.943,149.783c0.439-0.313,0.751-0.247,0.936,0.191
	c0.201,0.422,0.137,0.742-0.192,0.963c-0.33,0.236-0.649,0.174-0.962-0.192C119.449,150.415,119.522,150.095,119.943,149.783z
	 M122.196,149.783c-0.293,0.238-0.54,0.238-0.741,0c-0.019,0.037-0.056,0.063-0.109,0.082c-0.238,0.129-0.412,0.093-0.521-0.108
	c-0.129-0.203-0.092-0.394,0.109-0.578c0.202-0.146,0.365-0.118,0.495,0.082c0.055-0.054,0.108-0.101,0.163-0.137
	c0.275-0.183,0.521-0.175,0.742,0.026C122.553,149.335,122.507,149.545,122.196,149.783z M123.02,149.674
	c0.128,0.221,0.083,0.403-0.138,0.549c-0.221,0.147-0.395,0.111-0.521-0.109c-0.146-0.2-0.101-0.375,0.139-0.521
	C122.718,149.445,122.892,149.472,123.02,149.674z M123.212,147.695c0.328-0.237,0.559-0.201,0.687,0.109
	c0.147,0.33,0.093,0.577-0.165,0.741c-0.236,0.166-0.467,0.128-0.688-0.108C122.846,148.163,122.901,147.915,123.212,147.695z
	 M87.14,144.207c0.201-0.111,0.366-0.102,0.494,0.027c0.037,0.035,0.074,0.082,0.11,0.137c0.147,0.257,0.11,0.486-0.11,0.687
	c-0.037,0.037-0.073,0.073-0.109,0.11c-0.184,0.074-0.349-0.018-0.495-0.273C86.829,144.564,86.865,144.335,87.14,144.207z
	 M79.805,144.592c0.037-0.146,0.128-0.257,0.275-0.33c0.147-0.072,0.274-0.102,0.384-0.082c-0.055-0.037-0.091-0.084-0.11-0.138
	c-0.128-0.202-0.073-0.385,0.165-0.55c0.238-0.164,0.412-0.101,0.522,0.192c0.11,0.292,0.055,0.476-0.165,0.55
	c-0.073,0.035-0.138,0.055-0.192,0.055c0.037,0.019,0.073,0.055,0.11,0.109c0.019-0.019,0.027-0.037,0.027-0.056
	c0.293-0.164,0.504-0.073,0.632,0.274c0.11,0.349,0.037,0.596-0.219,0.742c-0.202,0.092-0.367,0.074-0.495-0.056
	c-0.018,0.019-0.036,0.026-0.055,0.026c-0.22,0.238-0.439,0.221-0.659-0.055c-0.037,0.109-0.119,0.211-0.248,0.303
	c-0.11,0.072-0.22,0.119-0.329,0.137c-0.055,0.111-0.138,0.184-0.248,0.221c-0.311,0.129-0.558,0.045-0.741-0.248
	c-0.165-0.273-0.101-0.512,0.192-0.714c0-0.183,0.101-0.348,0.302-0.493C79.282,144.279,79.566,144.316,79.805,144.592z
	 M82.552,143.574c0.238-0.165,0.449-0.128,0.632,0.11c0.165,0.255,0.137,0.458-0.082,0.604c-0.22,0.2-0.421,0.164-0.604-0.109
	C82.277,143.941,82.295,143.738,82.552,143.574z M84.228,144.865c0.055,0.092,0.083,0.185,0.083,0.274
	c0.146-0.019,0.266,0.083,0.357,0.304c0.11,0.365,0.046,0.621-0.192,0.769c-0.274,0.146-0.495,0.056-0.66-0.274
	c-0.036-0.108-0.055-0.209-0.055-0.302c-0.073-0.019-0.155-0.101-0.247-0.248c-0.183-0.312-0.155-0.54,0.083-0.687
	C83.871,144.572,84.081,144.628,84.228,144.865z M81.233,149.895c0.165,0.273,0.119,0.484-0.138,0.631
	c-0.275,0.146-0.495,0.103-0.659-0.138c-0.128-0.22-0.073-0.43,0.165-0.631C80.858,149.536,81.068,149.582,81.233,149.895z
	 M79.997,149.838c0.128,0.313,0.074,0.541-0.165,0.688c-0.091,0.074-0.173,0.11-0.247,0.11c-0.037,0.109-0.119,0.21-0.248,0.302
	c-0.274,0.164-0.495,0.119-0.66-0.138c-0.146-0.256-0.082-0.476,0.192-0.659c0.055-0.037,0.11-0.063,0.165-0.082
	c0.037-0.109,0.128-0.229,0.275-0.356C79.621,149.482,79.85,149.527,79.997,149.838z M82.881,151.459
	c0.018,0,0.037-0.01,0.055-0.027c0.201-0.146,0.384-0.137,0.549,0.027c0.165,0.146,0.128,0.303-0.11,0.468
	c-0.202,0.165-0.375,0.165-0.522,0c-0.019,0.019-0.037,0.036-0.055,0.056c-0.219,0.146-0.394,0.127-0.521-0.056
	c-0.128-0.22-0.083-0.396,0.137-0.521C82.616,151.258,82.772,151.275,82.881,151.459z M83.98,149.895
	c0.256-0.201,0.467-0.156,0.632,0.137s0.119,0.514-0.137,0.658c-0.073,0.037-0.147,0.057-0.22,0.057
	c0,0.128-0.064,0.229-0.192,0.303c-0.201,0.146-0.394,0.109-0.577-0.109c-0.183-0.237-0.137-0.449,0.137-0.631
	c0.037-0.037,0.083-0.064,0.137-0.085C83.779,150.113,83.852,150.003,83.98,149.895z M88.926,146.238
	c-0.202-0.401-0.119-0.713,0.247-0.934c0.293-0.184,0.522-0.138,0.687,0.139c0.074,0.018,0.146,0.072,0.22,0.164
	c0.165,0.237,0.137,0.448-0.083,0.631c-0.018,0-0.027,0.011-0.027,0.027c-0.037,0.11-0.137,0.201-0.302,0.275
	C89.375,146.742,89.127,146.643,88.926,146.238z M86.893,145.497c0.165,0.257,0.137,0.468-0.083,0.633
	c-0.22,0.183-0.43,0.146-0.631-0.11c-0.202-0.256-0.174-0.467,0.083-0.632C86.499,145.242,86.709,145.277,86.893,145.497z
	 M85.519,145.828c-0.312,0.109-0.549,0.035-0.714-0.221c-0.165-0.275-0.083-0.514,0.247-0.715c0.312-0.22,0.531-0.146,0.66,0.221
	C85.858,145.48,85.794,145.717,85.519,145.828z M86.536,149.865c-0.055,0.093-0.156,0.185-0.302,0.274
	c-0.367,0.274-0.668,0.229-0.907-0.138c-0.22-0.385-0.137-0.695,0.247-0.934c0.385-0.256,0.696-0.203,0.934,0.164
	c0.019,0.056,0.037,0.102,0.055,0.139c0.018,0,0.037-0.01,0.055-0.027c0.201-0.148,0.348-0.119,0.439,0.082
	c0.109,0.221,0.083,0.385-0.083,0.494C86.81,150.014,86.664,149.994,86.536,149.865z M84.887,150.388
	c0.238-0.165,0.467-0.155,0.687,0.027c0.184,0.185,0.138,0.376-0.137,0.577c-0.274,0.201-0.495,0.191-0.66-0.027
	C84.612,150.745,84.649,150.553,84.887,150.388z M88.624,149.372c-0.037,0.036-0.083,0.073-0.137,0.108
	c0.073,0.201,0.009,0.356-0.192,0.469c-0.256,0.146-0.458,0.108-0.604-0.111c-0.128-0.164-0.137-0.32-0.028-0.466v-0.027
	c-0.256-0.33-0.192-0.614,0.193-0.853c0.348-0.238,0.668-0.229,0.961,0.027C89.09,148.777,89.026,149.061,88.624,149.372z
	 M89.859,148.738c0.275-0.2,0.485-0.164,0.632,0.11c0.11,0.274,0.056,0.485-0.165,0.632c-0.201,0.146-0.394,0.11-0.577-0.108
	C89.566,149.134,89.604,148.923,89.859,148.738z M95.629,144.865c-0.11,0.092-0.21,0.119-0.302,0.084
	c-0.201,0.035-0.366-0.037-0.494-0.221c-0.146-0.221-0.083-0.422,0.192-0.604c0.055-0.073,0.128-0.146,0.22-0.22
	c0.274-0.166,0.467-0.073,0.577,0.274C95.95,144.527,95.886,144.756,95.629,144.865z M97.525,144.234
	c0.055-0.11,0.165-0.229,0.33-0.356c0.22-0.11,0.394-0.129,0.522-0.056h0.027c0.256-0.185,0.449-0.12,0.577,0.191
	c0.128,0.329,0.064,0.54-0.192,0.631l-0.055,0.028c0.019,0.257-0.092,0.457-0.33,0.604c-0.348,0.183-0.632,0.063-0.852-0.357
	c-0.073-0.184-0.091-0.355-0.055-0.521C97.461,144.324,97.47,144.271,97.525,144.234z M100.41,143.959
	c0.22-0.146,0.375-0.092,0.467,0.165c0.091,0.274,0.045,0.468-0.138,0.577c-0.201,0.109-0.357,0.045-0.467-0.192
	C100.163,144.252,100.208,144.068,100.41,143.959z M92.497,143.959c0.037-0.055,0.092-0.102,0.165-0.137
	c0.293-0.146,0.531-0.073,0.714,0.22c0.165,0.293,0.12,0.56-0.137,0.797l-0.027,0.026c-0.018,0.201-0.119,0.357-0.302,0.467
	c-0.348,0.186-0.623,0.074-0.824-0.329c-0.202-0.421-0.11-0.751,0.275-0.988C92.415,143.995,92.46,143.979,92.497,143.959z
	 M92.415,143.521c0.092,0.2,0.046,0.338-0.138,0.411c-0.165,0.073-0.302,0.027-0.412-0.138c-0.11-0.164-0.064-0.312,0.138-0.439
	C92.186,143.245,92.323,143.301,92.415,143.521z M90.547,145.388c0.238-0.128,0.421-0.073,0.549,0.165
	c0.128,0.221,0.101,0.421-0.083,0.604c-0.202,0.201-0.394,0.156-0.577-0.137C90.254,145.729,90.29,145.518,90.547,145.388z
	 M92.717,149.895c-0.128-0.201-0.092-0.357,0.109-0.468c0.037-0.037,0.073-0.063,0.11-0.082c-0.11-0.221-0.027-0.431,0.248-0.632
	c0.312-0.239,0.541-0.191,0.687,0.137c0.128,0.312,0.073,0.551-0.165,0.715c-0.126,0.09-0.246,0.116-0.357,0.082
	c0.111,0.039,0.202,0.131,0.274,0.274c0.184,0.312,0.128,0.55-0.165,0.715c-0.293,0.128-0.512,0.072-0.659-0.165
	c-0.11-0.164-0.12-0.33-0.028-0.494C92.753,149.958,92.735,149.93,92.717,149.895z M92.415,149.757
	c0.239,0.22,0.183,0.457-0.165,0.714c-0.348,0.274-0.623,0.274-0.824,0c-0.22-0.293-0.174-0.55,0.137-0.77
	C91.875,149.518,92.158,149.536,92.415,149.757z M90.932,149.592c0.146-0.109,0.265-0.083,0.357,0.082
	c0.091,0.164,0.063,0.293-0.083,0.385c-0.165,0.073-0.283,0.036-0.357-0.109C90.757,149.838,90.785,149.721,90.932,149.592z
	 M90.437,150.828c-0.257,0.183-0.467,0.146-0.632-0.11c-0.146-0.237-0.083-0.438,0.192-0.604c0.257-0.184,0.449-0.146,0.577,0.109
	C90.721,150.461,90.675,150.663,90.437,150.828z M95.162,149.838c0.092,0.184,0.11,0.34,0.055,0.469
	c0.146-0.02,0.274,0.036,0.384,0.164c0.202,0.184,0.156,0.395-0.137,0.631c-0.312,0.239-0.549,0.229-0.714-0.027
	c-0.11-0.146-0.146-0.273-0.11-0.385c-0.146-0.018-0.266-0.101-0.357-0.246c-0.183-0.293-0.128-0.541,0.165-0.741
	C94.759,149.518,94.997,149.564,95.162,149.838z M100.053,146.047c-0.183-0.273-0.147-0.484,0.11-0.632
	c0.238-0.128,0.43-0.072,0.577,0.165c0.128,0.238,0.092,0.449-0.11,0.632C100.446,146.414,100.254,146.359,100.053,146.047z
	 M100.986,148.328c0.202,0.182,0.156,0.375-0.137,0.576c-0.293,0.238-0.522,0.238-0.687,0c-0.184-0.238-0.138-0.439,0.137-0.604
	C100.538,148.115,100.767,148.126,100.986,148.328z M95.986,145.553c-0.183-0.257-0.155-0.458,0.083-0.604
	c0.256-0.166,0.458-0.129,0.604,0.107c0.166,0.238,0.138,0.439-0.083,0.605C96.389,145.828,96.188,145.79,95.986,145.553z
	 M98.102,150.031c0.293-0.166,0.567-0.156,0.824,0.026c0-0.073,0.055-0.146,0.166-0.221c0.183-0.128,0.32-0.108,0.412,0.056
	c0.11,0.146,0.073,0.274-0.11,0.385c-0.128,0.109-0.248,0.119-0.357,0.028c0.019,0.146-0.073,0.293-0.274,0.438
	c-0.33,0.256-0.596,0.248-0.797-0.027C97.781,150.461,97.827,150.232,98.102,150.031z M97.58,151.13
	c0.146,0.349,0.092,0.604-0.165,0.771c-0.257,0.164-0.495,0.108-0.714-0.166c-0.22-0.237-0.165-0.484,0.165-0.74
	C97.195,150.754,97.433,150.8,97.58,151.13z M96.646,149.729c0.237,0.385,0.173,0.668-0.193,0.853
	c-0.348,0.184-0.622,0.128-0.824-0.165c-0.201-0.313-0.128-0.604,0.22-0.879C96.161,149.279,96.426,149.345,96.646,149.729z
	 M100.822,149.592c0.165,0.385,0.091,0.678-0.22,0.879c-0.293,0.201-0.568,0.156-0.824-0.137c-0.275-0.331-0.21-0.633,0.192-0.907
	C100.354,149.15,100.639,149.207,100.822,149.592z M97.635,156.295c0.256-0.238,0.458-0.221,0.604,0.055
	c0.165,0.293,0.137,0.514-0.083,0.659c-0.22,0.165-0.421,0.138-0.604-0.082c-0.091-0.092-0.128-0.192-0.11-0.303
	c-0.018,0.019-0.046,0.038-0.083,0.056c-0.348,0.184-0.604,0.155-0.77-0.082c-0.146-0.238-0.082-0.439,0.192-0.604
	c0.257-0.165,0.504-0.129,0.742,0.109C97.598,156.177,97.635,156.24,97.635,156.295z M96.014,157.751
	c0.274-0.222,0.521-0.165,0.742,0.165c0.22,0.329,0.201,0.549-0.055,0.66c-0.22,0.146-0.458,0.091-0.714-0.166
	C95.748,158.172,95.757,157.952,96.014,157.751z M95.767,157.064c-0.293,0.185-0.513,0.129-0.659-0.164
	c-0.128-0.275-0.074-0.469,0.165-0.578c0.257-0.108,0.476-0.055,0.66,0.166C96.133,156.727,96.078,156.917,95.767,157.064z
	 M99.942,155.525c-0.183-0.184-0.174-0.367,0.028-0.549c0.201-0.147,0.394-0.084,0.577,0.191c0.165,0.238,0.156,0.411-0.027,0.521
	C100.336,155.781,100.144,155.729,99.942,155.525z M100.602,156.268c0.109,0.164,0.146,0.32,0.109,0.467
	c0.074,0,0.146,0.037,0.22,0.109c0.146,0.165,0.101,0.32-0.137,0.469c-0.256,0.127-0.44,0.102-0.55-0.084
	c-0.037-0.035-0.064-0.072-0.082-0.108c-0.128-0.019-0.248-0.082-0.357-0.192c-0.202-0.238-0.165-0.484,0.11-0.742
	C100.208,155.893,100.437,155.92,100.602,156.268z M99.173,156.871c0.202-0.092,0.384-0.045,0.549,0.138
	c0.165,0.201,0.119,0.376-0.137,0.521c-0.257,0.129-0.44,0.074-0.55-0.164C98.908,157.128,98.954,156.964,99.173,156.871z
	 M90.904,156.486c0.33-0.164,0.623-0.129,0.879,0.11c0.238,0.255,0.165,0.485-0.22,0.687c-0.348,0.201-0.623,0.174-0.824-0.082
	c-0.037,0.056-0.083,0.092-0.138,0.109c-0.238,0.129-0.485,0.073-0.742-0.166c-0.237-0.236-0.219-0.457,0.055-0.658
	c0.275-0.221,0.513-0.164,0.714,0.164c0.019,0.021,0.037,0.047,0.055,0.084C90.721,156.643,90.794,156.561,90.904,156.486z
	 M91.179,157.643c0.146-0.13,0.265-0.111,0.357,0.053c0.091,0.166,0.073,0.293-0.055,0.386c-0.109,0.092-0.229,0.073-0.357-0.054
	C91.014,157.898,91.032,157.77,91.179,157.643z M92.195,157.201c-0.109-0.274-0.064-0.457,0.138-0.551
	c0.219-0.108,0.421-0.063,0.604,0.139c0.165,0.22,0.11,0.412-0.165,0.576C92.497,157.494,92.305,157.439,92.195,157.201z
	 M94.283,156.68c-0.239,0.164-0.449,0.146-0.632-0.056c-0.201-0.201-0.174-0.431,0.083-0.687c0.256-0.238,0.467-0.211,0.632,0.082
	C94.512,156.314,94.485,156.533,94.283,156.68z M94.64,155.855c-0.183,0.073-0.385,0.019-0.604-0.164
	c-0.183-0.201-0.165-0.377,0.055-0.521c0.202-0.184,0.403-0.146,0.604,0.109C94.86,155.553,94.842,155.745,94.64,155.855z
	 M93.486,157.365c0.293-0.182,0.558-0.155,0.797,0.084c0.202,0.22,0.128,0.421-0.22,0.604c-0.33,0.202-0.577,0.166-0.742-0.109
	C93.157,157.706,93.211,157.513,93.486,157.365z M87.195,155.607c0.165-0.108,0.302-0.1,0.412,0.028
	c0.128,0.128,0.101,0.237-0.082,0.329c-0.184,0.129-0.33,0.119-0.44-0.027C87.012,155.791,87.048,155.681,87.195,155.607z
	 M88.239,156.734c-0.22,0.164-0.44,0.146-0.66-0.056c-0.202-0.237-0.174-0.478,0.082-0.715c0.275-0.256,0.495-0.237,0.66,0.056
	C88.486,156.331,88.458,156.568,88.239,156.734z M119.833,156.816c-0.238,0.166-0.45,0.14-0.632-0.082h-0.027
	c0.201,0.312,0.183,0.522-0.056,0.633c-0.219,0.109-0.449,0.055-0.687-0.165c-0.22-0.237-0.21-0.457,0.027-0.659
	c0.22-0.184,0.431-0.146,0.632,0.109c-0.109-0.183-0.046-0.395,0.192-0.631c0.055-0.037,0.101-0.074,0.138-0.111
	c0.018-0.164,0.138-0.311,0.356-0.438c0.349-0.184,0.66-0.147,0.935,0.109c0.274,0.274,0.201,0.532-0.219,0.771
	c-0.166,0.092-0.33,0.146-0.494,0.164C120,156.624,119.943,156.727,119.833,156.816z M118.047,155.965
	c-0.274,0.129-0.549,0.064-0.824-0.191c-0.274-0.274-0.256-0.531,0.055-0.771c0.312-0.237,0.586-0.164,0.824,0.22
	C118.359,155.57,118.34,155.818,118.047,155.965z M118.047,156.68c0.11,0.201-0.009,0.395-0.357,0.577
	c-0.403,0.22-0.705,0.183-0.907-0.11c-0.201-0.312-0.128-0.567,0.22-0.769c0.201-0.093,0.384-0.11,0.55-0.056
	c0.018-0.092,0.073-0.166,0.165-0.221c0.165-0.091,0.321-0.046,0.467,0.139C118.313,156.404,118.268,156.551,118.047,156.68z
	 M122.635,156.295c-0.349,0.2-0.604,0.137-0.769-0.191c0,0.092-0.057,0.174-0.166,0.246c-0.22,0.146-0.421,0.12-0.604-0.082
	c-0.184-0.201-0.155-0.412,0.082-0.632c0.257-0.237,0.458-0.22,0.604,0.056c0,0.019,0,0.037,0,0.055
	c0.036-0.165,0.139-0.283,0.303-0.357c0.274-0.146,0.531-0.082,0.77,0.192C123.093,155.873,123.02,156.111,122.635,156.295z
	 M123.324,154.701c0.182-0.184,0.338-0.165,0.467,0.056c0.127,0.237,0.108,0.412-0.057,0.521c-0.164,0.109-0.32,0.093-0.467-0.056
	C123.103,155.059,123.121,154.885,123.324,154.701z M114.751,155.965c-0.019,0.037-0.037,0.057-0.056,0.057
	c0.074,0.035,0.147,0.092,0.22,0.164c0.165,0.201,0.11,0.385-0.165,0.549c-0.275,0.146-0.476,0.082-0.604-0.191
	c-0.11-0.237-0.055-0.412,0.165-0.521c0.037,0,0.064-0.009,0.083-0.026c0-0.021-0.018-0.037-0.055-0.056
	c-0.128-0.146-0.101-0.293,0.083-0.439c0.165-0.164,0.302-0.155,0.412,0.027C114.925,155.729,114.897,155.873,114.751,155.965z
	 M112.498,156.624c-0.183,0.092-0.367,0.047-0.55-0.138c-0.183-0.183-0.174-0.356,0.028-0.521c0.201-0.146,0.385-0.102,0.549,0.139
	C112.69,156.341,112.681,156.515,112.498,156.624z M116.015,155.443c0.201,0.201,0.128,0.401-0.22,0.604
	c-0.33,0.184-0.577,0.146-0.742-0.109c-0.165-0.238-0.11-0.439,0.165-0.604C115.511,155.169,115.776,155.205,116.015,155.443z
	 M108.596,156.268c0.275-0.109,0.513-0.055,0.715,0.164c0.22,0.275,0.156,0.504-0.192,0.688c-0.33,0.165-0.568,0.108-0.714-0.164
	c-0.22,0.146-0.449,0.108-0.687-0.111h-0.027c-0.037,0.021-0.083,0.037-0.138,0.056c-0.275,0.166-0.476,0.146-0.604-0.056
	c-0.146-0.22-0.101-0.393,0.137-0.521c0.184-0.109,0.357-0.109,0.522,0c0.037-0.092,0.109-0.192,0.22-0.303
	c0.311-0.274,0.549-0.248,0.714,0.082C108.578,156.156,108.596,156.213,108.596,156.268z M111.481,156.432
	c0.202,0.313,0.192,0.523-0.027,0.633c-0.202,0.109-0.403,0.082-0.605-0.082c-0.018-0.019-0.045-0.047-0.082-0.082
	c-0.22-0.201-0.211-0.412,0.027-0.633c0.092-0.072,0.183-0.102,0.275-0.082C111.216,156.166,111.353,156.249,111.481,156.432z
	 M110.437,156.515c0.165,0.274,0.137,0.494-0.083,0.659c-0.22,0.146-0.421,0.119-0.604-0.082c-0.184-0.201-0.156-0.421,0.082-0.66
	C110.071,156.213,110.272,156.24,110.437,156.515z M106.591,155.113c0.128,0.183,0.119,0.312-0.028,0.385
	c-0.146,0.055-0.284,0.018-0.412-0.11c-0.146-0.128-0.138-0.256,0.027-0.385C106.325,154.876,106.463,154.912,106.591,155.113z
	 M102.553,156.378c-0.312,0.164-0.623,0.092-0.935-0.222c-0.311-0.312-0.293-0.604,0.055-0.879c0.33-0.274,0.632-0.2,0.907,0.221
	C102.873,155.92,102.864,156.213,102.553,156.378z M103.432,155.143c0.22-0.222,0.394-0.193,0.522,0.08
	c0.146,0.239,0.128,0.432-0.055,0.578c-0.202,0.128-0.385,0.107-0.55-0.056C103.166,155.544,103.193,155.343,103.432,155.143z
	 M101.893,157.092c-0.109-0.275-0.055-0.458,0.165-0.55c0.22-0.11,0.421-0.056,0.605,0.165c0.165,0.201,0.109,0.385-0.165,0.55
	C102.223,157.402,102.021,157.349,101.893,157.092z M105.657,156.789c-0.366,0.22-0.641,0.191-0.824-0.082
	c-0.201-0.293-0.146-0.53,0.166-0.715c0.329-0.164,0.623-0.129,0.879,0.109C106.115,156.359,106.041,156.588,105.657,156.789z
	 M104.942,157.257c0.22-0.073,0.413-0.021,0.577,0.164c0.146,0.202,0.092,0.376-0.165,0.522c-0.275,0.146-0.458,0.101-0.549-0.139
	C104.677,157.55,104.723,157.365,104.942,157.257z M67.304,143.904c0.366-0.238,0.632-0.119,0.796,0.356
	c0.165,0.457,0.074,0.777-0.275,0.962c-0.348,0.2-0.613,0.092-0.796-0.33C66.81,144.453,66.901,144.124,67.304,143.904z
	 M65.628,143.768c0.33-0.185,0.595-0.129,0.796,0.164c0.22,0.293,0.193,0.551-0.082,0.771c-0.293,0.22-0.55,0.165-0.77-0.165
	C65.317,144.225,65.335,143.969,65.628,143.768z M63.952,144.4c0.165,0.256,0.128,0.494-0.11,0.713
	c-0.202,0.22-0.412,0.156-0.632-0.191c-0.202-0.329-0.165-0.568,0.11-0.714C63.614,144.078,63.824,144.143,63.952,144.4z
	 M61.507,144.701c0.109,0.311,0.055,0.529-0.165,0.658c-0.22,0.129-0.395,0.056-0.522-0.22c-0.128-0.274-0.073-0.483,0.165-0.632
	C61.242,144.344,61.416,144.408,61.507,144.701z M59.282,144.756c0.165,0.256,0.137,0.468-0.083,0.632
	c-0.219,0.185-0.43,0.147-0.631-0.108c-0.202-0.275-0.174-0.485,0.083-0.633C58.888,144.482,59.099,144.518,59.282,144.756z
	 M60.573,145.828c-0.202,0.219-0.403,0.173-0.604-0.139c-0.183-0.312-0.146-0.539,0.11-0.688c0.255-0.128,0.448-0.072,0.576,0.165
	C60.802,145.424,60.775,145.645,60.573,145.828z M62.112,145.113c0.256-0.164,0.439-0.11,0.549,0.164
	c0.11,0.312,0.055,0.504-0.165,0.576c-0.239,0.092-0.421,0.039-0.55-0.164C61.819,145.488,61.874,145.296,62.112,145.113z
	 M58.32,146.432c-0.11,0.036-0.202,0-0.275-0.109c-0.091-0.109-0.073-0.211,0.055-0.303c0.146-0.108,0.247-0.082,0.302,0.084
	C58.476,146.268,58.448,146.377,58.32,146.432z M57.276,144.949c0.275-0.186,0.476-0.103,0.604,0.246
	c0.128,0.365,0.064,0.613-0.192,0.742c-0.238,0.127-0.421,0.092-0.55-0.109c-0.018,0.035-0.055,0.072-0.109,0.109
	c-0.202,0.219-0.403,0.164-0.605-0.166c-0.055-0.092-0.091-0.184-0.109-0.274c-0.166,0.056-0.321-0.019-0.467-0.22
	c-0.202-0.256-0.174-0.457,0.083-0.604c0.238-0.165,0.449-0.129,0.632,0.109c0.055,0.092,0.083,0.184,0.083,0.273
	c0.165-0.072,0.302-0.046,0.412,0.083C57.111,145.066,57.185,145.003,57.276,144.949z M57.826,151.515
	c-0.055-0.036-0.101-0.073-0.137-0.108c-0.165-0.239-0.119-0.459,0.137-0.66c0.055-0.037,0.11-0.063,0.165-0.082
	c0.183-0.055,0.33,0.02,0.439,0.219c0.165,0.275,0.119,0.486-0.137,0.633C58.091,151.607,57.936,151.607,57.826,151.515z
	 M56.864,151.515c-0.219,0.13-0.412,0.093-0.577-0.108c-0.183-0.221-0.138-0.432,0.137-0.633c0.275-0.164,0.467-0.119,0.577,0.138
	C57.13,151.166,57.084,151.367,56.864,151.515z M59.584,151.377c-0.183-0.221-0.137-0.432,0.138-0.632
	c0.274-0.201,0.466-0.192,0.577,0.026c0.036-0.091,0.11-0.184,0.22-0.273c0.257-0.221,0.467-0.174,0.632,0.138
	c0.165,0.274,0.119,0.485-0.138,0.632c-0.257,0.127-0.458,0.109-0.604-0.055c-0.018,0.109-0.092,0.201-0.22,0.273
	C59.969,151.634,59.767,151.597,59.584,151.377z M62.139,150.828c0.202-0.129,0.384-0.129,0.55,0
	c0.183,0.164,0.155,0.338-0.083,0.521c-0.256,0.183-0.439,0.175-0.549-0.026C61.91,151.139,61.937,150.975,62.139,150.828z
	 M67.194,146.212c0.128,0.256,0.092,0.485-0.109,0.688c-0.22,0.201-0.421,0.146-0.604-0.166c-0.202-0.33-0.174-0.566,0.082-0.715
	C66.819,145.893,67.029,145.956,67.194,146.212z M65.683,146.238c0.073,0.24,0.028,0.395-0.137,0.469
	c-0.11,0.018-0.202,0.027-0.275,0.027c0,0.183-0.082,0.319-0.248,0.412c-0.256,0.127-0.448,0.045-0.577-0.248
	c-0.146-0.313-0.082-0.56,0.192-0.742c0.201-0.109,0.357-0.092,0.467,0.056c0.037-0.037,0.073-0.073,0.109-0.108
	C65.417,145.956,65.573,146.001,65.683,146.238z M63.485,145.745c-0.165,0.108-0.302,0.083-0.412-0.082
	c-0.11-0.166-0.091-0.293,0.055-0.386c0.165-0.109,0.302-0.092,0.412,0.055C63.65,145.497,63.632,145.636,63.485,145.745z
	 M64.09,149.592c0.348-0.22,0.668-0.202,0.961,0.055c0.275,0.238,0.21,0.514-0.192,0.824c-0.019,0.018-0.046,0.036-0.083,0.055
	c0.037,0.037,0.074,0.074,0.11,0.11c0.036,0.072,0.054,0.146,0.054,0.22c0.037-0.129,0.138-0.246,0.303-0.356
	c0.311-0.238,0.531-0.19,0.659,0.138c0.147,0.311,0.101,0.549-0.138,0.715c-0.256,0.164-0.485,0.117-0.687-0.138
	c-0.073-0.074-0.119-0.147-0.138-0.22c-0.018,0.107-0.091,0.21-0.219,0.302c-0.275,0.183-0.485,0.138-0.632-0.138
	c-0.128-0.184-0.128-0.35,0-0.494c-0.055-0.036-0.119-0.092-0.192-0.165c0,0.019-0.019,0.037-0.055,0.055
	c-0.274,0.13-0.485,0.083-0.632-0.138c-0.146-0.221-0.1-0.43,0.137-0.631c0.202-0.166,0.375-0.166,0.522,0
	C63.925,149.729,63.998,149.665,64.09,149.592z M63.293,151.707c0.147,0.329,0.091,0.586-0.165,0.77
	c-0.202,0.129-0.395,0.137-0.577,0.026c0.018,0.165-0.073,0.321-0.275,0.468c-0.293,0.201-0.531,0.156-0.714-0.137
	s-0.119-0.532,0.192-0.715c0.201-0.129,0.367-0.156,0.494-0.083c0.019-0.164,0.12-0.32,0.303-0.466
	C62.899,151.331,63.146,151.377,63.293,151.707z M74.914,144.729c0.146,0,0.256,0.11,0.33,0.33c0.11,0.313,0.055,0.541-0.165,0.688
	c-0.256,0.109-0.449,0.019-0.577-0.274c0-0.019-0.01-0.019-0.028,0c-0.092-0.036-0.165-0.11-0.22-0.22
	c-0.146-0.221-0.082-0.412,0.193-0.577C74.649,144.527,74.804,144.545,74.914,144.729z M74.2,143.492
	c0.092,0.129,0.074,0.239-0.055,0.331c-0.11,0.108-0.229,0.092-0.357-0.057c-0.11-0.146-0.092-0.266,0.055-0.357
	C73.971,143.318,74.09,143.346,74.2,143.492z M78.156,144.921c-0.238,0.165-0.431,0.091-0.578-0.22
	c-0.146-0.313-0.082-0.559,0.193-0.742c0.293-0.165,0.495-0.072,0.604,0.275C78.484,144.581,78.413,144.811,78.156,144.921z
	 M76.315,144.783c0.146,0.22,0.128,0.395-0.055,0.521c-0.183,0.129-0.348,0.102-0.494-0.082c-0.184-0.238-0.165-0.412,0.055-0.521
	C76.022,144.555,76.187,144.582,76.315,144.783z M68.705,144.15c0.275-0.183,0.467-0.119,0.577,0.192
	c0.128,0.313,0.064,0.504-0.192,0.577c-0.238,0.091-0.421,0.027-0.549-0.191C68.394,144.509,68.449,144.316,68.705,144.15z
	 M71.672,145.91c-0.329,0.164-0.585,0.055-0.769-0.33c-0.184-0.385-0.092-0.688,0.274-0.906c0.348-0.221,0.586-0.109,0.714,0.329
	C72.039,145.424,71.965,145.729,71.672,145.91z M69.392,146.212c-0.146-0.201-0.128-0.366,0.055-0.495
	c0.202-0.146,0.367-0.117,0.495,0.084c0.128,0.2,0.109,0.366-0.056,0.493C69.704,146.423,69.539,146.396,69.392,146.212z
	 M70.024,145.497c-0.165,0.166-0.32,0.128-0.467-0.109s-0.119-0.411,0.082-0.521c0.202-0.092,0.348-0.047,0.439,0.137
	C70.207,145.188,70.189,145.352,70.024,145.497z M68.321,151.102c0.128,0.239,0.091,0.422-0.11,0.551
	c-0.202,0.092-0.375,0.047-0.522-0.138c-0.11-0.165-0.064-0.329,0.137-0.493C68.028,150.855,68.192,150.882,68.321,151.102z
	 M69.337,150.609c-0.037-0.201,0.055-0.377,0.275-0.522c0.311-0.201,0.549-0.165,0.714,0.108c0.055,0.057,0.082,0.129,0.082,0.221
	c0.037,0.02,0.056,0.046,0.056,0.083c0.146,0.312,0.1,0.55-0.138,0.715c-0.165,0.091-0.32,0.091-0.467,0
	c-0.275,0.219-0.495,0.219-0.66,0c-0.165-0.22-0.128-0.413,0.11-0.577L69.337,150.609z M72.606,149.949
	c0.146,0.236,0.11,0.41-0.11,0.521c-0.202,0.109-0.366,0.073-0.495-0.11c-0.11-0.183-0.073-0.347,0.11-0.494
	C72.313,149.701,72.478,149.729,72.606,149.949z M71.425,149.427c0.202-0.128,0.394-0.118,0.577,0.026
	c0.165,0.164,0.128,0.33-0.11,0.496c-0.128,0.109-0.247,0.164-0.357,0.164c-0.037,0.055-0.101,0.108-0.192,0.164
	c-0.275,0.201-0.495,0.166-0.66-0.109c-0.183-0.293-0.128-0.521,0.165-0.688C71.086,149.316,71.279,149.299,71.425,149.427z
	 M77.332,146.047c-0.239,0.257-0.476,0.202-0.715-0.165c-0.219-0.364-0.174-0.631,0.138-0.796c0.293-0.146,0.522-0.083,0.687,0.191
	C77.606,145.57,77.57,145.828,77.332,146.047z M73.706,150.277c0.312-0.219,0.54-0.174,0.687,0.138c0,0.036,0.009,0.073,0.028,0.11
	c0.018,0.073,0.027,0.146,0.027,0.22c0,0.165-0.073,0.284-0.22,0.356c-0.238,0.185-0.458,0.146-0.66-0.109
	C73.367,150.736,73.413,150.498,73.706,150.277z M75.875,150.992c-0.165-0.238-0.127-0.43,0.11-0.577
	c0.239-0.164,0.458-0.155,0.66,0.028c0.202,0.164,0.165,0.348-0.11,0.549c-0.018,0.019-0.037,0.037-0.055,0.056
	c0.037,0.019,0.064,0.046,0.083,0.082c0.165,0.257,0.101,0.485-0.192,0.687c-0.275,0.221-0.504,0.185-0.687-0.108
	c-0.184-0.293-0.128-0.532,0.165-0.714h0.026V150.992z M77.057,150.113c0.202-0.129,0.357-0.155,0.467-0.082
	c0.165-0.019,0.302,0.072,0.412,0.274c0.037,0.072,0.055,0.146,0.055,0.22c0.037,0,0.064,0.019,0.083,0.055
	c0.183,0.146,0.146,0.32-0.11,0.521c-0.22,0.146-0.412,0.146-0.577,0c-0.055,0-0.102-0.019-0.138-0.055
	c-0.128-0.02-0.247-0.102-0.357-0.248C76.691,150.58,76.746,150.352,77.057,150.113z M72.991,145.415
	c-0.202-0.329-0.174-0.567,0.083-0.714c0.275-0.109,0.476-0.045,0.604,0.191c0.165,0.258,0.128,0.485-0.11,0.688
	C73.367,145.781,73.174,145.729,72.991,145.415z M38.375,145.855c0.128,0.313,0.073,0.504-0.165,0.576
	c-0.238,0.092-0.431,0.028-0.577-0.191c-0.128-0.221-0.064-0.411,0.192-0.576C38.082,145.48,38.265,145.544,38.375,145.855z
	 M39.501,145.497c0.037-0.019,0.064-0.036,0.082-0.054c-0.018-0.147,0.046-0.258,0.193-0.33c0.274-0.146,0.485-0.092,0.632,0.164
	c0.147,0.258,0.11,0.485-0.11,0.688c-0.037,0.018-0.064,0.036-0.083,0.055c-0.037,0.074-0.091,0.139-0.165,0.192
	c-0.22,0.185-0.43,0.146-0.632-0.108C39.217,145.863,39.244,145.663,39.501,145.497z M37.33,146.486
	c-0.183,0.109-0.329,0.045-0.439-0.192c-0.128-0.256-0.083-0.438,0.137-0.549c0.22-0.146,0.375-0.093,0.467,0.165
	C37.587,146.186,37.532,146.377,37.33,146.486z M35.655,145.277c0.201-0.092,0.357-0.055,0.467,0.109
	c0.073,0.184,0.036,0.34-0.11,0.467c-0.128,0.146-0.265,0.11-0.412-0.108C35.49,145.525,35.508,145.37,35.655,145.277z
	 M44.474,145.636c-0.128-0.239-0.073-0.431,0.165-0.577c0.275-0.201,0.476-0.146,0.604,0.165c0.11,0.313,0.045,0.513-0.192,0.604
	C44.812,145.918,44.621,145.855,44.474,145.636z M43.1,147.888c-0.293,0.185-0.531,0.083-0.714-0.302
	c-0.183-0.385-0.101-0.678,0.247-0.879c0.33-0.221,0.577-0.12,0.742,0.302C43.503,147.43,43.411,147.724,43.1,147.888z
	 M41.424,145.965c0.055,0.109,0.064,0.21,0.027,0.303c-0.018,0.072-0.073,0.155-0.165,0.247c-0.073,0.072-0.155,0.109-0.247,0.109
	c0.055,0.185,0,0.319-0.165,0.412c-0.183,0.11-0.33,0.046-0.439-0.192c-0.128-0.22-0.074-0.395,0.165-0.521h0.027
	c-0.128-0.219-0.083-0.394,0.137-0.521c0.201-0.129,0.385-0.11,0.549,0.054c-0.146-0.254-0.073-0.483,0.22-0.687
	c0.293-0.201,0.504-0.129,0.632,0.22c0.074,0.165,0.092,0.303,0.056,0.413c-0.037,0.109-0.12,0.19-0.248,0.246
	C41.736,146.139,41.553,146.111,41.424,145.965z M51.067,144.783c-0.256,0.256-0.503,0.191-0.742-0.191
	c-0.238-0.422-0.192-0.714,0.138-0.88c0.33-0.183,0.586-0.118,0.769,0.192C51.416,144.234,51.36,144.527,51.067,144.783z
	 M54.941,144.756c0.055,0.037,0.092,0.092,0.11,0.165c0.11,0.312,0.046,0.515-0.192,0.604c-0.238,0.092-0.431,0.026-0.578-0.193
	c-0.091-0.164-0.091-0.311,0-0.438c-0.036-0.056-0.082-0.119-0.137-0.192c-0.128-0.313-0.056-0.56,0.219-0.742
	c0.275-0.165,0.477-0.072,0.605,0.274C55.041,144.453,55.033,144.628,54.941,144.756z M49.996,145.801
	c0.056-0.111,0.138-0.201,0.247-0.275c0.312-0.201,0.532-0.109,0.66,0.275c0.128,0.385,0.055,0.641-0.22,0.768
	c-0.274,0.166-0.494,0.084-0.659-0.246c-0.037-0.072-0.064-0.146-0.083-0.219l-0.027,0.026c-0.073,0.073-0.147,0.101-0.22,0.082
	c-0.037,0.128-0.137,0.22-0.302,0.274c-0.348,0.146-0.614,0.063-0.797-0.248c-0.183-0.293-0.101-0.559,0.247-0.795
	c0.348-0.221,0.604-0.139,0.769,0.246c0.128-0.109,0.248-0.091,0.357,0.056C49.987,145.764,49.996,145.781,49.996,145.801z
	 M51.04,146.35c0.312-0.201,0.577-0.156,0.797,0.139c0.201,0.312,0.165,0.576-0.11,0.797c-0.274,0.201-0.531,0.146-0.769-0.166
	C50.701,146.789,50.728,146.531,51.04,146.35z M47.606,145.415c0.274-0.164,0.467-0.083,0.576,0.248
	c0.11,0.329,0.037,0.567-0.219,0.714c-0.238,0.129-0.431,0.046-0.577-0.247C47.257,145.818,47.331,145.58,47.606,145.415z
	 M46.424,145.938c0.22-0.108,0.394-0.056,0.522,0.166c0.11,0.2,0.073,0.394-0.11,0.575c-0.183,0.185-0.357,0.13-0.522-0.164
	C46.149,146.258,46.186,146.066,46.424,145.938z M45.985,145.745c-0.202,0.147-0.375,0.108-0.522-0.109
	c-0.184-0.239-0.166-0.422,0.055-0.55c0.202-0.146,0.385-0.109,0.55,0.109C46.195,145.396,46.168,145.58,45.985,145.745z
	 M53.87,146.268c-0.238,0.221-0.467,0.155-0.687-0.193c-0.22-0.365-0.184-0.621,0.109-0.769c0.293-0.165,0.522-0.101,0.687,0.191
	C54.145,145.773,54.108,146.029,53.87,146.268z M53.924,151.35c-0.165-0.236-0.109-0.457,0.165-0.66
	c0.239-0.219,0.458-0.183,0.66,0.11c0.092,0.201,0.11,0.356,0.056,0.468c0.165-0.072,0.33-0.027,0.494,0.139
	c0.183,0.164,0.146,0.347-0.11,0.549c-0.293,0.201-0.512,0.191-0.659-0.027c-0.128-0.146-0.156-0.275-0.083-0.385
	C54.227,151.615,54.053,151.551,53.924,151.35z M54.859,153.08c-0.257,0.146-0.467,0.111-0.632-0.109
	c-0.146-0.257-0.091-0.477,0.165-0.66c0.275-0.146,0.476-0.101,0.604,0.139C55.143,152.668,55.097,152.879,54.859,153.08z
	 M57.386,152.559c-0.128-0.164-0.101-0.312,0.083-0.438c0.183-0.11,0.339-0.103,0.467,0.026c0.147,0.129,0.128,0.267-0.055,0.412
	C57.661,152.723,57.496,152.723,57.386,152.559z M193.846,146.047c0.129,0.202,0.092,0.376-0.109,0.521
	c-0.199,0.129-0.365,0.092-0.492-0.108c-0.111-0.185-0.064-0.339,0.137-0.468C193.582,145.846,193.736,145.863,193.846,146.047z
	 M191.293,147.229c0.164-0.127,0.301-0.154,0.41-0.082c-0.072-0.221,0.02-0.412,0.275-0.578c0.328-0.219,0.621-0.201,0.879,0.057
	c0.273,0.22,0.229,0.477-0.139,0.77c-0.293,0.221-0.539,0.267-0.74,0.137c0.055,0.166,0.035,0.304-0.057,0.414
	c0.129,0,0.221,0.082,0.275,0.246c0.127,0.274,0.082,0.484-0.139,0.633c-0.201,0.146-0.402,0.108-0.604-0.109
	c-0.164-0.203-0.139-0.404,0.082-0.604c-0.164,0.018-0.303-0.057-0.412-0.222C190.98,147.65,191.037,147.43,191.293,147.229z
	 M170.879,147.613c-0.275,0.164-0.521,0.119-0.742-0.139c-0.219-0.293-0.164-0.55,0.166-0.769c0.348-0.257,0.604-0.211,0.768,0.137
	C171.201,147.174,171.135,147.43,170.879,147.613z M169.918,146.542c0.107,0.165,0.072,0.302-0.111,0.411
	c-0.164,0.111-0.293,0.083-0.383-0.081c-0.092-0.147-0.064-0.275,0.082-0.386C169.689,146.377,169.826,146.396,169.918,146.542z
	 M170.439,148.217c0.184,0.186,0.146,0.376-0.109,0.578c-0.275,0.201-0.494,0.201-0.658,0c-0.166-0.238-0.121-0.439,0.137-0.605
	C170.027,148.044,170.238,148.053,170.439,148.217z M167.885,150.003c-0.275,0.185-0.494,0.147-0.66-0.108
	c-0.184-0.275-0.127-0.505,0.166-0.688l0.027-0.028c-0.186,0.056-0.34-0.019-0.469-0.22c-0.092-0.128-0.109-0.266-0.055-0.412
	c-0.273-0.313-0.211-0.604,0.193-0.879c0.383-0.273,0.666-0.219,0.85,0.165c0.166,0.348,0.129,0.623-0.109,0.823
	c0.057,0.201-0.025,0.357-0.246,0.468c0.201-0.072,0.355-0.009,0.467,0.192C168.213,149.592,168.16,149.82,167.885,150.003z
	 M172.691,148.63c-0.035-0.165,0.047-0.302,0.248-0.413c0.238-0.164,0.432-0.137,0.578,0.083c0.107,0.238,0.053,0.431-0.166,0.577
	c-0.145,0.109-0.273,0.138-0.385,0.082c-0.018,0.037-0.055,0.072-0.109,0.111c-0.184,0.125-0.32,0.125-0.412,0
	c-0.109-0.147-0.092-0.269,0.055-0.357C172.574,148.656,172.637,148.63,172.691,148.63z M171.154,148.768
	c0.164-0.109,0.303-0.082,0.412,0.082c0.092,0.184,0.055,0.321-0.109,0.411c-0.166,0.074-0.293,0.047-0.387-0.082
	C170.998,149.031,171.025,148.896,171.154,148.768z M177.391,148.217c-0.037,0-0.074,0-0.109,0v0.057
	c-0.074,0.109-0.186,0.211-0.33,0.301c-0.367,0.275-0.668,0.229-0.906-0.137c-0.221-0.385-0.139-0.695,0.248-0.935
	c0.311-0.201,0.566-0.21,0.768-0.026c0.057,0.055,0.102,0.118,0.139,0.191c0.184-0.146,0.313-0.119,0.385,0.083
	c0.092,0.185,0.063,0.312-0.082,0.385C177.463,148.189,177.426,148.217,177.391,148.217z M175.219,148.136
	c0.074,0.128,0.074,0.237,0,0.329c0.166,0.165,0.129,0.338-0.109,0.521c-0.256,0.185-0.457,0.174-0.604-0.027
	c-0.146-0.164-0.146-0.32,0-0.467c-0.092-0.036-0.164-0.092-0.221-0.164c-0.199-0.258-0.154-0.495,0.139-0.715
	c0.313-0.221,0.541-0.174,0.688,0.138c0.057,0.128,0.082,0.237,0.082,0.329C175.191,148.099,175.203,148.115,175.219,148.136z
	 M178.021,149.015c0.146-0.092,0.268-0.092,0.357,0c0.109,0.093,0.092,0.192-0.055,0.302c-0.146,0.129-0.268,0.129-0.357,0
	C177.875,149.189,177.895,149.088,178.021,149.015z M183.078,148.08c0.145,0.129,0.201,0.248,0.164,0.357
	c-0.02,0.127-0.119,0.266-0.303,0.411c-0.385,0.312-0.688,0.312-0.906,0c-0.236-0.329-0.184-0.596,0.164-0.797
	c0.258-0.183,0.496-0.211,0.715-0.082C182.986,148.007,183.041,148.044,183.078,148.08z M183.818,147.695
	c0.166-0.109,0.305-0.109,0.412,0c-0.092-0.166-0.045-0.303,0.139-0.412c0.201-0.166,0.385-0.166,0.549,0
	c0.166,0.146,0.139,0.312-0.082,0.494c-0.201,0.146-0.365,0.166-0.494,0.056v0.026c0.129,0.275,0.082,0.485-0.137,0.633
	c-0.201,0.109-0.387,0.092-0.551-0.055c-0.018-0.037-0.035-0.056-0.055-0.056c-0.166-0.237-0.119-0.448,0.137-0.632
	C183.754,147.714,183.783,147.695,183.818,147.695z M181.264,146.789c0.275-0.221,0.496-0.174,0.66,0.137
	c0.145,0.275,0.092,0.485-0.164,0.633c-0.203,0.109-0.367,0.109-0.496,0c0.109,0.313,0.037,0.551-0.219,0.715
	c-0.275,0.184-0.533,0.129-0.771-0.164c-0.256-0.275-0.199-0.543,0.166-0.799c0.236-0.182,0.439-0.209,0.604-0.082
	C181.025,147.064,181.1,146.917,181.264,146.789z M179.287,149.097c-0.221-0.348-0.139-0.632,0.246-0.852
	c0.35-0.238,0.623-0.192,0.824,0.138c0.201,0.348,0.119,0.641-0.248,0.878C179.781,149.5,179.506,149.445,179.287,149.097z
	 M183.709,148.932c0.146,0.239,0.092,0.449-0.164,0.633c-0.275,0.183-0.486,0.146-0.633-0.11c-0.164-0.257-0.109-0.476,0.164-0.658
	C183.352,148.63,183.563,148.675,183.709,148.932z M188.818,148.136c0.074,0.036,0.129,0.093,0.164,0.164
	c0.148,0.274,0.094,0.495-0.164,0.659c-0.273,0.201-0.494,0.165-0.658-0.109c-0.035-0.035-0.057-0.063-0.057-0.082
	c-0.145-0.019-0.264-0.109-0.355-0.274c-0.201-0.294-0.139-0.558,0.191-0.798c0.313-0.272,0.578-0.229,0.797,0.139
	C188.793,147.943,188.818,148.044,188.818,148.136z M189.396,146.926c0.184,0.166,0.137,0.357-0.139,0.577
	c-0.275,0.201-0.494,0.192-0.658-0.026c-0.166-0.22-0.129-0.422,0.109-0.604C188.947,146.725,189.176,146.742,189.396,146.926z
	 M186.594,146.238c0.33-0.237,0.568-0.191,0.715,0.139s0.092,0.576-0.164,0.74c-0.24,0.166-0.477,0.119-0.715-0.137
	C186.227,146.725,186.283,146.479,186.594,146.238z M188.875,153.273c-0.129,0.092-0.248,0.082-0.357-0.027
	c-0.107-0.109-0.092-0.229,0.055-0.357c0.131-0.146,0.248-0.137,0.357,0.028C189.002,153.08,188.982,153.199,188.875,153.273z
	 M189.258,154.592c-0.035-0.037-0.072-0.074-0.109-0.109c-0.256-0.258-0.246-0.496,0.027-0.715c0.293-0.22,0.541-0.156,0.742,0.191
	c0.238,0.33,0.229,0.559-0.027,0.688c-0.109,0.056-0.201,0.073-0.273,0.056c0.035,0.092,0,0.175-0.109,0.247
	c-0.055,0.019-0.104,0.037-0.139,0.055c0.02,0.038,0.047,0.057,0.084,0.057c0.182,0.219,0.127,0.411-0.166,0.576
	c-0.313,0.146-0.541,0.119-0.688-0.083c-0.129-0.219-0.074-0.411,0.164-0.575c0.166-0.074,0.313-0.093,0.439-0.057
	c0-0.02-0.01-0.036-0.027-0.055C189.104,154.72,189.131,154.628,189.258,154.592z M185.412,154.4
	c-0.092,0.056-0.191,0.082-0.303,0.082c0.02,0.019,0.037,0.035,0.057,0.055c0.146,0.146,0.102,0.293-0.139,0.439
	c-0.256,0.129-0.447,0.102-0.576-0.082c-0.109-0.185-0.063-0.34,0.139-0.468c0.072-0.036,0.137-0.055,0.191-0.055
	c-0.072-0.056-0.156-0.119-0.248-0.192c-0.273-0.273-0.256-0.55,0.057-0.824c0.328-0.22,0.621-0.138,0.879,0.248
	C185.725,153.986,185.707,154.253,185.412,154.4z M186.209,154.042c-0.164-0.366-0.092-0.622,0.221-0.771
	c0.311-0.146,0.594-0.072,0.852,0.221c0.236,0.312,0.164,0.566-0.221,0.77C186.676,154.482,186.393,154.408,186.209,154.042z
	 M187.254,154.921c0.145,0.237,0.127,0.413-0.057,0.522c-0.201,0.09-0.395,0.035-0.576-0.166c-0.184-0.184-0.176-0.356,0.025-0.521
	C186.85,154.609,187.051,154.665,187.254,154.921z M186.209,154.536c0.184,0.293,0.154,0.522-0.082,0.687
	c-0.238,0.186-0.467,0.165-0.689-0.054c-0.199-0.222-0.164-0.459,0.111-0.714C185.826,154.18,186.045,154.207,186.209,154.536z
	 M182.445,153.768l0.027,0.027c0.164,0.22,0.109,0.402-0.164,0.549c-0.256,0.129-0.449,0.073-0.578-0.164
	c0-0.037-0.008-0.056-0.025-0.056l-0.029-0.054c-0.182-0.203-0.164-0.414,0.057-0.633c0.258-0.221,0.447-0.192,0.576,0.082
	C182.381,153.593,182.428,153.676,182.445,153.768z M180.219,154.921c0.221,0.201,0.156,0.401-0.191,0.604
	c-0.348,0.184-0.596,0.146-0.74-0.109c-0.184-0.238-0.129-0.439,0.164-0.604C179.744,154.646,180,154.684,180.219,154.921z
	 M179.533,154.729c-0.221,0.147-0.422,0.119-0.604-0.082c-0.146-0.164-0.156-0.338-0.027-0.521
	c-0.111-0.018-0.193-0.102-0.248-0.246c-0.129-0.257-0.072-0.449,0.164-0.578c0.238-0.107,0.449-0.045,0.633,0.193
	c0.146,0.146,0.154,0.293,0.027,0.438c0.055,0.02,0.102,0.064,0.139,0.139C179.781,154.344,179.752,154.564,179.533,154.729z
	 M181.182,154.372c-0.201,0.108-0.402,0.063-0.604-0.138s-0.201-0.395,0-0.578c0.238-0.164,0.447-0.108,0.633,0.166
	C181.393,154.098,181.383,154.279,181.182,154.372z M176.291,154.977c-0.273,0.166-0.477,0.109-0.604-0.164
	c-0.129-0.275-0.074-0.469,0.164-0.578c0.219-0.109,0.422-0.055,0.605,0.166C176.66,154.619,176.604,154.813,176.291,154.977z
	 M177.445,154.234c0.129-0.092,0.246-0.082,0.357,0.026c0.035-0.019,0.072-0.037,0.109-0.055c0.238-0.128,0.447-0.101,0.633,0.082
	c0.182,0.184,0.127,0.348-0.166,0.495c-0.238,0.146-0.43,0.146-0.576,0c-0.129,0.037-0.256-0.01-0.385-0.139
	C177.271,154.5,177.281,154.361,177.445,154.234z M174.617,153.85c0.199,0.221,0.127,0.43-0.221,0.633
	c-0.057,0.019-0.102,0.035-0.139,0.055c0.111,0.221,0.074,0.394-0.109,0.521c-0.184,0.146-0.365,0.119-0.551-0.082
	c-0.182-0.184-0.164-0.385,0.057-0.604v-0.028c-0.166-0.237-0.109-0.43,0.164-0.577C174.111,153.585,174.377,153.611,174.617,153.85
	z M171.621,154.234c-0.127-0.146-0.109-0.293,0.055-0.439c0.184-0.165,0.32-0.156,0.414,0.027c0.018,0.037,0.035,0.082,0.053,0.137
	c0.186-0.018,0.35,0.083,0.496,0.303c0.256,0.366,0.246,0.604-0.027,0.715c-0.275,0.165-0.531,0.109-0.77-0.164
	c-0.201-0.185-0.258-0.356-0.166-0.522C171.658,154.271,171.639,154.253,171.621,154.234z M168.984,154.482
	c-0.186-0.238-0.146-0.459,0.107-0.66c0.293-0.219,0.561-0.155,0.799,0.192c0.236,0.349,0.229,0.587-0.029,0.714
	c-0.07,0.037-0.154,0.064-0.246,0.084c0.037,0.146-0.055,0.273-0.273,0.383c-0.148,0.074-0.266,0.119-0.357,0.14
	c-0.146-0.021-0.266-0.093-0.355-0.22c0-0.037-0.01-0.057-0.029-0.057c-0.018,0.036-0.055,0.063-0.107,0.084
	c-0.02,0.018-0.049,0.035-0.084,0.053c-0.258,0.147-0.504,0.102-0.74-0.137c-0.275-0.273-0.238-0.586,0.109-0.935
	c0.348-0.312,0.631-0.274,0.852,0.11c0,0.019,0,0.037,0,0.055c0.055,0.109,0.092,0.211,0.109,0.303
	c0.02-0.02,0.047-0.037,0.082-0.056C168.875,154.518,168.928,154.5,168.984,154.482z M172.527,155.745
	c0.313,0.312,0.229,0.586-0.246,0.823c-0.459,0.258-0.807,0.211-1.045-0.138c-0.221-0.329-0.129-0.604,0.275-0.823
	C171.877,155.388,172.217,155.436,172.527,155.745z M172.857,156.021c-0.109-0.221-0.064-0.367,0.139-0.44
	c0.199-0.109,0.375-0.072,0.521,0.11c0.164,0.183,0.117,0.338-0.139,0.467C173.141,156.305,172.967,156.258,172.857,156.021z
	 M212.063,152.943c0.256-0.258,0.475-0.229,0.658,0.08c0.055,0.094,0.084,0.186,0.084,0.275c0.018-0.02,0.035-0.027,0.053-0.027
	c0.111-0.055,0.211-0.063,0.305-0.026c0.09,0.019,0.182,0.083,0.273,0.192c0.184,0.2,0.137,0.385-0.137,0.549
	c-0.057,0.037-0.119,0.063-0.193,0.084c-0.184,0.018-0.318-0.074-0.412-0.275c0-0.037-0.01-0.064-0.027-0.082
	c-0.018,0-0.027,0.009-0.027,0.025c-0.238,0.146-0.457,0.121-0.658-0.082C211.76,153.438,211.787,153.199,212.063,152.943z
	 M210.385,152.723c-0.164-0.273-0.1-0.484,0.193-0.631c0.293-0.165,0.559-0.138,0.797,0.082c0.219,0.238,0.154,0.457-0.191,0.66
	C210.834,153.018,210.57,152.98,210.385,152.723z M209.287,152.477c0.146,0.293,0.119,0.512-0.082,0.659
	c-0.221,0.146-0.42,0.119-0.604-0.083c-0.186-0.183-0.156-0.395,0.082-0.632C208.92,152.201,209.123,152.22,209.287,152.477z
	 M208.051,153.492c0.035-0.092,0.109-0.164,0.221-0.221c0.311-0.127,0.584-0.055,0.822,0.221c0.24,0.273,0.166,0.521-0.219,0.742
	c-0.074,0.037-0.139,0.063-0.191,0.082c0.109,0.184,0.08,0.312-0.084,0.385c-0.184,0.109-0.365,0.072-0.549-0.109
	c-0.109-0.128-0.156-0.238-0.137-0.33c-0.129,0-0.23-0.055-0.303-0.164c-0.129-0.22-0.084-0.404,0.137-0.55
	C207.857,153.511,207.959,153.492,208.051,153.492z M209.371,154.015c0.363-0.293,0.693-0.22,0.986,0.22
	c0.293,0.44,0.275,0.752-0.055,0.936c-0.33,0.165-0.658,0.082-0.988-0.248S209.002,154.289,209.371,154.015z M206.869,153.465
	c-0.33,0.165-0.566,0.102-0.715-0.191c-0.145-0.33-0.08-0.551,0.193-0.66c0.273-0.127,0.512-0.071,0.715,0.166
	C207.281,153.053,207.217,153.281,206.869,153.465z M204.973,154.152c-0.385,0.22-0.668,0.19-0.852-0.082
	c-0.164-0.275-0.092-0.504,0.221-0.688c0.311-0.164,0.586-0.127,0.824,0.11C205.404,153.73,205.34,153.949,204.973,154.152z
	 M206.375,155.031c0.074,0.146,0.055,0.265-0.055,0.355c-0.109,0.074-0.211,0.057-0.303-0.054c-0.092-0.093-0.082-0.202,0.027-0.331
	C206.191,154.895,206.301,154.902,206.375,155.031z M203.902,152.777c0.184,0.33,0.154,0.586-0.082,0.771
	c-0.238,0.183-0.477,0.155-0.715-0.083c-0.221-0.236-0.184-0.484,0.109-0.742C203.508,152.43,203.736,152.449,203.902,152.777z
	 M202.584,153.3c0.127,0.129,0.174,0.248,0.137,0.356c0,0.109-0.119,0.229-0.357,0.357h-0.027c-0.365,0.201-0.641,0.156-0.822-0.137
	c-0.203-0.257-0.129-0.486,0.219-0.688C202.043,153.007,202.328,153.044,202.584,153.3z M202.557,154.482
	c0-0.129,0.072-0.221,0.219-0.274c0.201-0.093,0.375-0.047,0.521,0.137l0.027,0.056c0.109,0.166,0.055,0.303-0.164,0.412
	c-0.258,0.146-0.432,0.102-0.521-0.138C202.602,154.602,202.574,154.536,202.557,154.482z M200.688,154.372
	c-0.236,0.146-0.484,0.092-0.742-0.165c-0.256-0.258-0.236-0.494,0.057-0.715c0.273-0.2,0.521-0.137,0.742,0.191
	C200.98,154.015,200.963,154.242,200.688,154.372z M198.957,154.344c-0.256,0.202-0.514,0.186-0.77-0.055
	c-0.221-0.256-0.174-0.521,0.139-0.797c0.293-0.293,0.529-0.266,0.713,0.082C199.242,153.904,199.213,154.16,198.957,154.344z
	 M197.445,153.08c-0.221,0.111-0.447,0.056-0.686-0.164c-0.238-0.258-0.23-0.486,0.027-0.688c0.256-0.201,0.492-0.146,0.713,0.164
	C197.721,152.723,197.703,152.952,197.445,153.08z M195.852,154.455c-0.236,0.182-0.477,0.146-0.713-0.111
	c-0.02-0.018-0.037-0.035-0.057-0.055c-0.402,0.22-0.695,0.201-0.879-0.055c0,0.108-0.064,0.191-0.191,0.246
	c-0.238,0.11-0.467,0.056-0.688-0.164c-0.238-0.237-0.229-0.449,0.027-0.633c0.256-0.22,0.484-0.164,0.688,0.166
	c0,0.018,0.01,0.027,0.025,0.027c0-0.165,0.111-0.313,0.33-0.439c0.33-0.184,0.633-0.146,0.906,0.109
	c0.275-0.238,0.496-0.202,0.66,0.109C196.145,154.006,196.109,154.271,195.852,154.455z M196.375,154.124
	c0.256-0.128,0.484-0.073,0.688,0.165c0.109,0.146,0.139,0.283,0.082,0.412c0.238,0.275,0.146,0.531-0.273,0.77
	c-0.496,0.258-0.854,0.21-1.072-0.137c-0.219-0.35-0.137-0.633,0.248-0.854c0.018,0,0.035-0.009,0.055-0.025
	C196.119,154.309,196.209,154.197,196.375,154.124z M192.363,152.916c0.02,0.036,0.037,0.072,0.055,0.107
	c0.109,0.021,0.201,0.074,0.275,0.168c0.221,0.199,0.164,0.394-0.166,0.574c-0.293,0.165-0.52,0.165-0.688,0
	c-0.254,0.129-0.438,0.074-0.547-0.164c-0.111-0.238-0.064-0.402,0.137-0.494c0.072-0.037,0.127-0.056,0.164-0.056
	c0.037-0.073,0.102-0.146,0.193-0.219C192.025,152.613,192.217,152.643,192.363,152.916z M149.451,147.998
	c0.108,0.055,0.209,0.165,0.301,0.33c0.185,0.385,0.11,0.687-0.219,0.906c-0.294,0.201-0.568,0.146-0.824-0.164
	c-0.274-0.313-0.221-0.614,0.164-0.907c0.021-0.019,0.037-0.027,0.057-0.027c-0.057-0.036-0.102-0.083-0.139-0.138
	c-0.184-0.221-0.146-0.412,0.109-0.576c0.221-0.166,0.439-0.156,0.659,0.027C149.744,147.631,149.707,147.816,149.451,147.998z
	 M150.795,147.146c0.02-0.018,0.039-0.037,0.057-0.055c0.164-0.109,0.301-0.074,0.412,0.109c0.109,0.184,0.072,0.32-0.111,0.412
	c-0.129,0.072-0.229,0.082-0.301,0.025c-0.092,0.02-0.174-0.009-0.248-0.08c-0.074-0.147-0.055-0.267,0.055-0.357
	C150.713,147.184,150.76,147.165,150.795,147.146z M150.686,148.109c0.109,0.199,0.064,0.375-0.137,0.521
	c-0.185,0.129-0.348,0.092-0.495-0.108c-0.11-0.185-0.057-0.35,0.165-0.496C150.402,147.915,150.559,147.943,150.686,148.109z
	 M147.938,149.536c0.129,0.329,0.074,0.577-0.165,0.741c-0.236,0.166-0.466,0.129-0.688-0.109c-0.2-0.256-0.146-0.503,0.166-0.741
	C147.563,149.189,147.792,149.225,147.938,149.536z M147.388,149.179c-0.311,0.166-0.549,0.12-0.715-0.137
	c-0.018-0.036-0.035-0.063-0.053-0.083c-0.037,0.056-0.103,0.111-0.193,0.165c-0.275,0.2-0.494,0.165-0.659-0.109
	s-0.101-0.505,0.192-0.687c0.274-0.202,0.494-0.165,0.66,0.109c0.018,0.019,0.026,0.035,0.026,0.055
	c0.054-0.055,0.118-0.109,0.19-0.164c0.274-0.238,0.514-0.192,0.715,0.137C147.737,148.795,147.681,149.031,147.388,149.179z
	 M152.033,148.768c0.256-0.184,0.457-0.146,0.604,0.109c0.146,0.238,0.092,0.447-0.164,0.632s-0.457,0.147-0.604-0.108
	C151.684,149.143,151.738,148.932,152.033,148.768z M153.461,148.932c-0.221-0.33-0.146-0.632,0.219-0.906
	c0.35-0.293,0.643-0.229,0.879,0.191c0.074,0.111,0.111,0.221,0.111,0.33c0.018-0.02,0.035-0.037,0.055-0.055
	c0.184-0.109,0.338-0.102,0.467,0.027c0.164,0.146,0.146,0.293-0.055,0.438c-0.221,0.147-0.385,0.138-0.494-0.027l-0.027-0.026
	c-0.018,0.037-0.057,0.074-0.109,0.109c0.037,0.037,0.055,0.073,0.055,0.109c0.146,0.313,0.092,0.541-0.166,0.688
	c-0.219,0.164-0.438,0.118-0.658-0.138c-0.146-0.185-0.164-0.356-0.055-0.522C153.607,149.097,153.535,149.023,153.461,148.932z
	 M156.291,149.646c0.166,0.256,0.102,0.485-0.191,0.688c-0.293,0.201-0.531,0.164-0.715-0.11c-0.164-0.294-0.1-0.531,0.193-0.715
	C155.887,149.309,156.127,149.354,156.291,149.646z M160.275,148.136c0.127,0.312,0.072,0.55-0.166,0.714
	c-0.238,0.165-0.459,0.118-0.658-0.137c-0.221-0.257-0.176-0.484,0.137-0.688C159.898,147.806,160.127,147.842,160.275,148.136z
	 M160.521,146.982c0.164,0.312,0.109,0.549-0.164,0.713c-0.295,0.129-0.521,0.074-0.688-0.164c-0.164-0.237-0.109-0.477,0.164-0.715
	C160.109,146.615,160.338,146.67,160.521,146.982z M158.68,148.025c-0.164-0.273-0.109-0.494,0.166-0.658
	c0.293-0.184,0.512-0.146,0.66,0.109c0.145,0.256,0.09,0.477-0.166,0.659C159.064,148.318,158.846,148.281,158.68,148.025z
	 M157.609,147.915c0.092,0.237,0.082,0.431-0.025,0.577c0.018,0,0.035,0,0.053,0c0.037-0.072,0.111-0.164,0.221-0.275
	c0.256-0.199,0.467-0.154,0.631,0.139c0.166,0.312,0.111,0.541-0.164,0.688c-0.109,0.055-0.229,0.082-0.357,0.082
	c0,0.02-0.018,0.036-0.053,0.055c-0.293,0.221-0.514,0.221-0.66,0c-0.146-0.183-0.146-0.355,0-0.521
	c-0.166,0.057-0.32-0.008-0.467-0.191c-0.184-0.256-0.129-0.477,0.164-0.658C157.244,147.566,157.463,147.604,157.609,147.915z
	 M161.457,149.372c-0.094-0.13-0.074-0.229,0.055-0.302c0.109-0.074,0.229-0.074,0.357,0c0.072,0.072,0.045,0.172-0.084,0.302
	C161.639,149.482,161.529,149.482,161.457,149.372z M163.215,148.328c0.127,0.219,0.072,0.41-0.166,0.576
	c-0.221,0.166-0.412,0.138-0.578-0.082c-0.145-0.238-0.1-0.432,0.139-0.577C162.885,148.08,163.086,148.109,163.215,148.328z
	 M164.369,148.189c-0.404,0.313-0.725,0.295-0.963-0.054c-0.236-0.313-0.174-0.587,0.191-0.825c0.35-0.236,0.67-0.229,0.963,0.027
	C164.854,147.595,164.791,147.879,164.369,148.189z M164.176,149.015c-0.201-0.274-0.156-0.522,0.137-0.741
	c0.293-0.221,0.541-0.164,0.742,0.164c0.164,0.313,0.102,0.551-0.191,0.715C164.551,149.316,164.32,149.271,164.176,149.015z
	 M163.242,149.509c0.146,0.293,0.092,0.522-0.164,0.687c-0.221,0.166-0.432,0.119-0.635-0.137c-0.219-0.238-0.172-0.467,0.141-0.687
	C162.893,149.15,163.113,149.195,163.242,149.509z M131.042,142.805c0.018,0.037,0.035,0.074,0.055,0.111
	c0.035-0.093,0.101-0.165,0.191-0.221c0.238-0.146,0.412-0.073,0.521,0.221c0.092,0.292,0.037,0.503-0.164,0.631
	c-0.221,0.11-0.395,0.027-0.521-0.246v-0.028c-0.037,0.073-0.102,0.146-0.192,0.22c-0.165,0.129-0.32,0.146-0.468,0.055
	c-0.019,0.11-0.082,0.211-0.191,0.304c-0.2,0.219-0.402,0.164-0.604-0.166c-0.184-0.312-0.146-0.54,0.109-0.688
	c0.146-0.054,0.266-0.072,0.357-0.054c0.018-0.111,0.091-0.203,0.219-0.275C130.612,142.522,130.839,142.567,131.042,142.805z
	 M129.724,144.756c0.164,0.477,0.072,0.788-0.275,0.934c-0.365,0.111-0.658,0.01-0.88-0.302c-0.09-0.164-0.127-0.319-0.108-0.467
	c-0.072-0.185-0.063-0.339,0.027-0.468c-0.184,0.037-0.33-0.072-0.439-0.329c-0.146-0.293-0.082-0.53,0.191-0.715
	c0.293-0.164,0.495-0.081,0.604,0.248c0.073,0.257,0.056,0.449-0.056,0.578c0.146-0.037,0.275,0,0.385,0.108
	C129.412,144.309,129.595,144.443,129.724,144.756z M134.203,143.026c-0.313,0.22-0.604,0.155-0.879-0.193
	c-0.275-0.347-0.238-0.622,0.108-0.823c0.349-0.22,0.642-0.165,0.879,0.164C134.533,142.503,134.496,142.787,134.203,143.026z
	 M131.976,143.878c0.275-0.184,0.477-0.12,0.605,0.19c0.107,0.313,0.045,0.504-0.193,0.576c-0.256,0.092-0.448,0.028-0.577-0.191
	C131.666,144.234,131.72,144.042,131.976,143.878z M133.735,143.355c0.274-0.128,0.484-0.073,0.632,0.166
	c0.146,0.254,0.109,0.494-0.109,0.713c-0.201,0.201-0.402,0.138-0.604-0.191C133.469,143.73,133.498,143.501,133.735,143.355z
	 M125.905,143.492c0.036-0.128,0.138-0.238,0.304-0.33c0.055-0.036,0.108-0.063,0.164-0.082h-0.027
	c-0.221-0.275-0.191-0.485,0.082-0.633c0.257-0.164,0.468-0.127,0.633,0.111c0.184,0.237,0.154,0.449-0.083,0.631
	c-0.092,0.074-0.174,0.111-0.247,0.111c0.02,0.036,0.037,0.072,0.055,0.108c0.11,0.331,0.036,0.569-0.219,0.715
	c-0.109,0.056-0.212,0.072-0.303,0.056c0,0.128-0.082,0.229-0.247,0.302c-0.274,0.092-0.485,0.01-0.634-0.246
	c-0.146-0.221-0.08-0.432,0.193-0.632C125.722,143.529,125.832,143.492,125.905,143.492z M124.723,149.674
	c-0.274,0.146-0.484,0.102-0.632-0.138c-0.146-0.201-0.102-0.412,0.139-0.632c0.255-0.201,0.475-0.155,0.659,0.138
	C125.035,149.335,124.98,149.545,124.723,149.674z M126.041,148.986c0.02-0.02,0.039-0.027,0.057-0.027
	c0.293-0.2,0.504-0.164,0.632,0.111c0.11,0.164,0.129,0.302,0.056,0.41c-0.037,0.11-0.109,0.211-0.22,0.303
	c-0.239,0.146-0.433,0.146-0.577,0c-0.146,0.019-0.266-0.045-0.357-0.191c-0.146-0.184-0.109-0.35,0.109-0.495
	C125.832,149.042,125.932,149.006,126.041,148.986z M128.762,149.042c0.202,0.183,0.163,0.385-0.109,0.604
	c-0.274,0.2-0.504,0.183-0.688-0.056c-0.055-0.056-0.082-0.11-0.082-0.165c-0.036,0.02-0.072,0.037-0.108,0.055
	c-0.185,0.092-0.321,0.072-0.413-0.055c-0.109-0.166-0.082-0.32,0.083-0.468c0.183-0.108,0.319-0.073,0.411,0.11
	c0.02,0.037,0.037,0.072,0.057,0.108c0.035-0.055,0.092-0.108,0.164-0.164C128.332,148.867,128.561,148.877,128.762,149.042z
	 M132.664,148.328c0.221,0.182,0.184,0.385-0.109,0.604c-0.274,0.221-0.494,0.211-0.659-0.027c-0.165-0.237-0.128-0.43,0.108-0.575
	C132.244,148.163,132.46,148.163,132.664,148.328z M133.845,147.915c0.146,0.274,0.092,0.485-0.165,0.632s-0.468,0.102-0.634-0.137
	c-0.146-0.221-0.09-0.432,0.166-0.633C133.451,147.577,133.662,147.622,133.845,147.915z M130.74,148.932
	c-0.164-0.219-0.128-0.422,0.11-0.604c0.274-0.202,0.467-0.165,0.575,0.109c0.13,0.274,0.093,0.467-0.108,0.576
	C131.117,149.16,130.923,149.134,130.74,148.932z M129.285,149.372c0.256-0.165,0.457-0.13,0.604,0.108
	c0.146,0.258,0.092,0.469-0.164,0.633c-0.258,0.201-0.458,0.164-0.605-0.11C128.936,149.765,128.992,149.554,129.285,149.372z
	 M130,150.168c0.256-0.201,0.467-0.154,0.631,0.139c0.166,0.293,0.119,0.502-0.137,0.631c-0.274,0.146-0.484,0.102-0.633-0.138
	C129.714,150.58,129.76,150.37,130,150.168z M133.158,149.261c-0.109-0.164-0.072-0.302,0.11-0.411
	c0.183-0.128,0.319-0.109,0.412,0.055c0.108,0.147,0.073,0.285-0.11,0.412c-0.072,0.057-0.146,0.084-0.22,0.084
	c-0.036-0.02-0.082-0.047-0.138-0.084C133.195,149.299,133.175,149.279,133.158,149.261z M136.73,143.162
	c0.092,0.128,0.128,0.239,0.109,0.33c0,0.037-0.01,0.073-0.028,0.11c0.147,0.036,0.269,0.164,0.356,0.384
	c0.092,0.201,0.119,0.365,0.084,0.494c-0.037,0.146-0.119,0.256-0.248,0.33c-0.019,0-0.045,0.01-0.082,0.027
	c-0.11,0.036-0.211,0.055-0.303,0.055c-0.201-0.019-0.375-0.129-0.521-0.328c-0.109-0.203-0.118-0.386-0.026-0.551
	c0.019-0.037,0.046-0.074,0.082-0.109c-0.018-0.019-0.036-0.026-0.056-0.026c-0.036-0.056-0.082-0.11-0.139-0.166
	c-0.219-0.274-0.19-0.504,0.084-0.687C136.317,142.86,136.546,142.906,136.73,143.162z M135.521,144.207
	c-0.257,0.128-0.459,0.045-0.604-0.248c-0.129-0.312-0.064-0.558,0.191-0.741c0.293-0.165,0.494-0.073,0.604,0.274
	C135.824,143.84,135.759,144.078,135.521,144.207z M138.844,147.806c0.093,0.091,0.129,0.183,0.11,0.274
	c0.274-0.128,0.477-0.082,0.604,0.137c0.072,0.111,0.102,0.221,0.083,0.33l0.026-0.025c0.33-0.258,0.576-0.213,0.742,0.137
	c0.146,0.349,0.082,0.613-0.193,0.796c-0.256,0.165-0.504,0.12-0.74-0.138c-0.109-0.146-0.156-0.283-0.139-0.412
	c-0.221,0.147-0.401,0.093-0.549-0.164c-0.056-0.073-0.092-0.146-0.109-0.219c-0.055,0.053-0.109,0.101-0.165,0.137
	c0.019,0.164-0.056,0.283-0.22,0.356c-0.185,0.093-0.34,0.109-0.467,0.056c0.053,0.22-0.011,0.395-0.192,0.521
	c-0.239,0.165-0.458,0.118-0.66-0.139c-0.146-0.182-0.165-0.356-0.056-0.521c-0.073,0-0.146-0.055-0.219-0.164
	c-0.109-0.184-0.072-0.339,0.108-0.468c0.203-0.128,0.356-0.101,0.468,0.083c0.073,0.091,0.094,0.184,0.055,0.273
	c0.11-0.035,0.192-0.035,0.248,0c0-0.109,0.063-0.219,0.191-0.328c-0.072-0.202,0.01-0.385,0.248-0.551
	C138.314,147.595,138.587,147.604,138.844,147.806z M135.878,147.422c0.201-0.129,0.375-0.12,0.521,0.027
	c0.183,0.146,0.154,0.302-0.083,0.466c-0.22,0.184-0.402,0.184-0.549,0C135.639,147.714,135.675,147.549,135.878,147.422z
	 M142.636,147.806c0.109,0.146,0.082,0.284-0.083,0.411c-0.183,0.111-0.329,0.083-0.438-0.081c-0.092-0.165-0.056-0.303,0.109-0.412
	C142.408,147.613,142.544,147.64,142.636,147.806z M142.444,149.427c-0.274,0.22-0.521,0.19-0.741-0.082
	c-0.201-0.274-0.146-0.522,0.164-0.743c0.313-0.199,0.586-0.182,0.825,0.057c0.22,0.164,0.229,0.365,0.026,0.604
	c-0.037,0.057-0.109,0.111-0.219,0.166L142.444,149.427L142.444,149.427z M144.669,149.564c0.183,0.183,0.138,0.365-0.139,0.549
	c-0.257,0.201-0.467,0.201-0.632,0c-0.146-0.219-0.101-0.411,0.138-0.576C144.257,149.39,144.466,149.4,144.669,149.564z
	 M144.147,148.795c-0.091-0.202-0.019-0.385,0.22-0.55c0.258-0.185,0.448-0.138,0.577,0.138c0.109,0.256,0.063,0.448-0.137,0.576
	c-0.036,0.072-0.093,0.129-0.165,0.165c-0.165,0.092-0.303,0.055-0.413-0.109C144.173,148.941,144.147,148.867,144.147,148.795z
	 M142.664,154.701c0.222,0.238,0.156,0.449-0.19,0.633c-0.33,0.199-0.568,0.146-0.716-0.165c-0.146-0.33-0.082-0.55,0.193-0.66
	C142.224,154.361,142.462,154.427,142.664,154.701z M140.3,155.965c-0.108-0.184-0.108-0.338,0-0.467
	c0-0.128,0.063-0.238,0.193-0.329c0.018-0.037,0.045-0.056,0.082-0.056c0.219-0.166,0.42-0.092,0.604,0.221
	c0.037,0.036,0.072,0.063,0.109,0.082c0.221,0.22,0.155,0.43-0.192,0.632C140.75,156.249,140.485,156.222,140.3,155.965z
	 M144.697,155.443c0.184,0,0.34,0.09,0.467,0.273c0.238,0.256,0.184,0.484-0.164,0.688c-0.367,0.184-0.623,0.119-0.771-0.191
	c-0.036-0.092-0.063-0.175-0.082-0.248c-0.037,0-0.082,0-0.138,0l0.027,0.027c0.164,0.293,0.137,0.514-0.082,0.658
	c-0.074,0.076-0.175,0.102-0.303,0.084c0,0.035-0.02,0.063-0.055,0.082c-0.238,0.109-0.477,0.055-0.715-0.166
	c-0.221-0.236-0.211-0.448,0.027-0.631c0.184-0.146,0.348-0.164,0.494-0.056c0.018,0,0.027-0.009,0.027-0.026
	c0.091-0.093,0.183-0.146,0.273-0.166c-0.019,0-0.026-0.009-0.026-0.026c-0.128-0.237-0.073-0.431,0.165-0.576
	c0.275-0.147,0.521-0.11,0.74,0.108C144.66,155.334,144.697,155.388,144.697,155.443z M138.046,154.427
	c0.275-0.165,0.523-0.128,0.742,0.109c0.238,0.221,0.185,0.431-0.164,0.633c-0.348,0.165-0.604,0.127-0.77-0.11
	C137.691,154.802,137.753,154.592,138.046,154.427z M137.085,154.592c0.238,0.273,0.166,0.514-0.219,0.714
	c-0.35,0.222-0.604,0.156-0.771-0.19l-0.026-0.057c-0.02,0.02-0.047,0.036-0.083,0.057c-0.184,0.072-0.349,0.027-0.493-0.139
	c-0.166-0.146-0.156-0.293,0.026-0.439c0.165-0.129,0.319-0.092,0.467,0.109c0.019,0.02,0.027,0.037,0.027,0.056
	c0.036-0.146,0.128-0.246,0.274-0.302C136.601,154.253,136.867,154.316,137.085,154.592z M134.585,155.908
	c-0.146-0.146-0.119-0.311,0.082-0.492c0.185-0.184,0.33-0.165,0.44,0.055c0.128,0.221,0.108,0.395-0.056,0.521
	C134.888,156.104,134.733,156.074,134.585,155.908z M138.817,155.223c0.222-0.107,0.413-0.063,0.577,0.139
	c0.184,0.22,0.139,0.402-0.137,0.549s-0.469,0.093-0.577-0.164C138.552,155.488,138.597,155.314,138.817,155.223z M134.285,155.113
	c0.238,0.221,0.174,0.438-0.191,0.658c-0.184,0.092-0.34,0.137-0.469,0.137v0.029c0.222,0.293,0.213,0.504-0.026,0.631
	c-0.238,0.11-0.468,0.056-0.687-0.164c-0.238-0.238-0.229-0.448,0.026-0.633c0.092-0.092,0.192-0.137,0.302-0.137
	c-0.146-0.257-0.072-0.467,0.221-0.633C133.772,154.839,134.044,154.876,134.285,155.113z M131.152,156.24
	c-0.477,0.273-0.833,0.246-1.07-0.084c-0.146,0.037-0.293-0.019-0.439-0.164c-0.018,0.02-0.037,0.037-0.055,0.056
	c-0.092,0.073-0.176,0.108-0.248,0.108c0.056,0.037,0.109,0.093,0.164,0.166c0.258,0.293,0.185,0.549-0.219,0.77
	c-0.402,0.221-0.688,0.137-0.853-0.248c-0.165-0.365-0.093-0.622,0.221-0.77c0.109-0.055,0.209-0.082,0.302-0.082v-0.027
	c-0.183-0.184-0.146-0.395,0.11-0.631c0.22-0.221,0.411-0.202,0.576,0.054c0.019,0.037,0.036,0.063,0.056,0.083
	c0.108-0.072,0.211-0.083,0.303-0.027c0.074-0.072,0.183-0.155,0.33-0.248c0.401-0.236,0.769-0.191,1.098,0.14
	C131.757,155.663,131.666,155.965,131.152,156.24z M131.425,156.156c0.35-0.348,0.643-0.312,0.882,0.109
	c0.108,0.221,0.146,0.413,0.108,0.577c0.109,0.021,0.211,0.083,0.303,0.193c0.164,0.183,0.119,0.339-0.137,0.466
	c-0.238,0.146-0.414,0.102-0.522-0.137c0-0.019-0.009-0.036-0.026-0.055c-0.238,0.108-0.478,0.036-0.716-0.221
	C131.024,156.816,131.06,156.506,131.425,156.156z M125.576,156.432c-0.349,0.202-0.596,0.129-0.742-0.219
	c-0.056-0.129-0.082-0.229-0.082-0.305c-0.019,0.074-0.082,0.147-0.191,0.222c-0.02,0-0.027,0.009-0.027,0.026
	c-0.037,0.021-0.092,0.045-0.164,0.084c-0.35,0.201-0.605,0.174-0.771-0.084c-0.146-0.236-0.129-0.43,0.056-0.576
	c0.018-0.092,0.092-0.192,0.221-0.303c0.254-0.22,0.494-0.164,0.713,0.166c0.109,0.164,0.166,0.302,0.166,0.412
	c0.018-0.129,0.108-0.229,0.273-0.304c0.293-0.146,0.551-0.082,0.77,0.192C126.015,156.021,125.941,156.249,125.576,156.432z
	 M127.305,155.691c0.239,0.312,0.229,0.539-0.026,0.688c-0.238,0.109-0.484,0.045-0.74-0.193c-0.258-0.256-0.248-0.483,0.026-0.687
	C126.858,155.277,127.105,155.343,127.305,155.691z M127.305,156.432c0.313-0.164,0.587-0.127,0.825,0.11
	c0.22,0.237,0.156,0.458-0.192,0.659c-0.366,0.201-0.642,0.164-0.824-0.109C126.949,156.816,127.012,156.598,127.305,156.432z
	 M166.127,153.604c0.164,0.274,0.154,0.467-0.027,0.576c-0.203,0.073-0.404,0.02-0.605-0.165c-0.184-0.2-0.164-0.385,0.057-0.55
	C165.75,153.3,165.943,153.346,166.127,153.604z M163.9,154.646c0.037-0.055,0.092-0.101,0.164-0.138
	c0.129-0.073,0.248-0.108,0.357-0.108c0.037-0.037,0.084-0.084,0.139-0.139c0.219-0.201,0.402-0.174,0.549,0.082
	c0.129,0.258,0.102,0.449-0.082,0.577c-0.02,0-0.037,0.009-0.057,0.026c-0.035,0.111-0.145,0.211-0.328,0.304
	c-0.037,0.019-0.072,0.036-0.109,0.055c0.146,0.238,0.129,0.403-0.055,0.495c-0.201,0.072-0.402,0.02-0.605-0.165
	c-0.109-0.108-0.154-0.211-0.137-0.302c-0.293,0.146-0.504,0.072-0.633-0.221c-0.127-0.293-0.072-0.494,0.166-0.604
	C163.506,154.4,163.717,154.445,163.9,154.646z M161.564,154.234c0.186,0.183,0.129,0.348-0.164,0.494
	c-0.273,0.164-0.477,0.137-0.604-0.084c-0.146-0.199-0.102-0.365,0.137-0.492C161.172,154.023,161.383,154.051,161.564,154.234z
	 M157.307,153.959c-0.184,0.111-0.365,0.074-0.549-0.109c-0.201-0.201-0.193-0.376,0.027-0.521c0.199-0.165,0.385-0.119,0.549,0.137
	C157.5,153.703,157.492,153.867,157.307,153.959z M158.982,154.646c0.238-0.074,0.439-0.019,0.605,0.166
	c0.238,0.237,0.184,0.447-0.164,0.631c-0.348,0.201-0.615,0.174-0.797-0.082c-0.02-0.019-0.027-0.047-0.027-0.082
	c-0.055-0.037-0.092-0.092-0.109-0.164c-0.109-0.221-0.074-0.377,0.109-0.469C158.746,154.572,158.873,154.572,158.982,154.646z
	 M157.885,154.921c0.201,0.349,0.174,0.612-0.084,0.797c-0.256,0.202-0.504,0.175-0.742-0.082c-0.236-0.237-0.201-0.504,0.111-0.797
	C157.48,154.564,157.719,154.592,157.885,154.921z M159.807,156.268c-0.221-0.238-0.211-0.447,0.027-0.632
	c0.238-0.2,0.467-0.146,0.688,0.165c0.201,0.293,0.191,0.494-0.027,0.604C160.256,156.515,160.027,156.47,159.807,156.268z
	 M160.906,156.104c-0.236-0.238-0.199-0.515,0.109-0.824c0.293-0.293,0.541-0.258,0.742,0.108c0.203,0.33,0.164,0.597-0.109,0.798
	C161.393,156.387,161.143,156.359,160.906,156.104z M156.18,154.757c0.148-0.11,0.275-0.063,0.385,0.138
	c0.129,0.237,0.102,0.42-0.082,0.549c-0.109,0.072-0.211,0.092-0.303,0.056c-0.201,0.055-0.348-0.019-0.438-0.22
	c-0.111-0.237-0.064-0.402,0.137-0.494C155.988,154.748,156.09,154.738,156.18,154.757z M154.506,154.947
	c0.219,0.222,0.164,0.412-0.166,0.578c-0.092,0.055-0.184,0.09-0.275,0.109c-0.236,0.109-0.477,0.045-0.713-0.191
	c-0.258-0.258-0.238-0.485,0.055-0.688c0.221-0.186,0.432-0.175,0.633,0.027C154.203,154.729,154.357,154.783,154.506,154.947z
	 M152.307,153.713c0.146-0.074,0.285-0.037,0.412,0.109c0.129,0.146,0.092,0.274-0.109,0.385c-0.201,0.092-0.34,0.046-0.412-0.137
	C152.105,153.886,152.143,153.768,152.307,153.713z M151.316,155.58c-0.035,0.035-0.082,0.072-0.137,0.109
	c-0.201,0.146-0.402,0.129-0.604-0.055c-0.184-0.22-0.157-0.458,0.082-0.715c0.184-0.146,0.34-0.184,0.469-0.109
	c0.164-0.037,0.301,0.019,0.41,0.166c0.221,0.2,0.176,0.375-0.139,0.521C151.381,155.533,151.355,155.563,151.316,155.58z
	 M149.585,154.757c0.185,0.274,0.176,0.466-0.026,0.577c-0.183,0.072-0.386,0.018-0.604-0.165c-0.184-0.202-0.164-0.376,0.055-0.522
	C149.21,154.464,149.403,154.5,149.585,154.757z M148.625,154.619c0.057,0.035,0.103,0.101,0.14,0.191
	c0.146,0.293,0.108,0.504-0.11,0.633c-0.22,0.184-0.422,0.164-0.604-0.057h-0.027c0,0.074-0.047,0.128-0.137,0.165
	c-0.165,0.093-0.331,0.056-0.496-0.108c-0.164-0.166-0.154-0.33,0.027-0.496c0.037-0.019,0.074-0.035,0.11-0.055
	c-0.128-0.312-0.056-0.513,0.22-0.604c0.293-0.146,0.549-0.082,0.77,0.191C148.571,154.518,148.607,154.564,148.625,154.619z
	 M146.208,156.763c-0.201-0.312-0.129-0.561,0.22-0.741c0.348-0.201,0.659-0.176,0.935,0.082c0.274,0.293,0.201,0.56-0.22,0.797
	C146.72,157.119,146.41,157.072,146.208,156.763z M257.502,151.404c-0.201-0.201-0.191-0.385,0.027-0.549
	c0.201-0.185,0.402-0.139,0.605,0.137c0.164,0.257,0.145,0.438-0.057,0.55C257.896,151.634,257.705,151.588,257.502,151.404z
	 M259.947,150.525c0.221-0.092,0.412-0.037,0.576,0.164c0.186,0.203,0.141,0.385-0.137,0.551l-0.027,0.027
	c0.164,0.238,0.156,0.412-0.027,0.521c-0.236,0.109-0.447,0.063-0.631-0.139c-0.238-0.201-0.238-0.394,0-0.576
	c0.035-0.019,0.064-0.026,0.084-0.026C259.691,150.809,259.746,150.636,259.947,150.525z M262.365,151.048
	c0-0.128,0.064-0.267,0.193-0.412c0.256-0.221,0.457-0.202,0.604,0.054c0.164,0.275,0.137,0.496-0.082,0.66
	c-0.074,0.057-0.146,0.092-0.221,0.109c0.127,0.238,0.02,0.449-0.33,0.633c-0.385,0.201-0.658,0.128-0.822-0.22
	c-0.186-0.386-0.111-0.65,0.219-0.798C262.072,151.021,262.219,151.011,262.365,151.048z M261.102,153.191
	c0.313-0.166,0.576-0.129,0.797,0.108c0.256,0.238,0.201,0.458-0.164,0.659c-0.367,0.201-0.643,0.165-0.824-0.109
	C260.746,153.574,260.809,153.355,261.102,153.191z M258.877,152.365c0.035-0.108,0.107-0.209,0.219-0.303
	c0.256-0.256,0.459-0.229,0.605,0.082c0.162,0.275,0.137,0.485-0.082,0.633c-0.221,0.166-0.434,0.146-0.635-0.056
	c-0.035-0.036-0.063-0.073-0.082-0.108c-0.018,0.035-0.055,0.082-0.109,0.138c0.092,0.019,0.174,0.073,0.248,0.165
	c0.201,0.164,0.146,0.339-0.164,0.521c-0.275,0.146-0.486,0.118-0.633-0.082c-0.072-0.146-0.092-0.268-0.057-0.357
	c-0.164-0.02-0.283-0.128-0.355-0.33c-0.146-0.313-0.082-0.531,0.191-0.659c0.293-0.146,0.549-0.082,0.77,0.192
	C258.832,152.257,258.857,152.311,258.877,152.365z M247.998,151.186c0.201-0.092,0.393-0.037,0.576,0.164
	c0.164,0.201,0.119,0.385-0.139,0.551c-0.293,0.127-0.504,0.063-0.631-0.192C247.695,151.468,247.758,151.295,247.998,151.186z
	 M252.201,151.156c0.293,0.312,0.211,0.596-0.248,0.853c-0.477,0.257-0.814,0.211-1.018-0.137c-0.219-0.33-0.137-0.604,0.248-0.824
	S251.908,150.863,252.201,151.156z M244.15,151.156c0.166,0.166,0.129,0.312-0.109,0.439s-0.402,0.083-0.494-0.138
	c-0.092-0.201-0.045-0.347,0.137-0.438C243.867,150.945,244.023,150.992,244.15,151.156z M225.799,151.542
	c0.092,0.128,0.154,0.257,0.191,0.385c0.035,0,0.063,0.019,0.082,0.056h0.027c0.092,0.035,0.184,0.092,0.275,0.164
	c0.201,0.221,0.145,0.403-0.166,0.549c-0.313,0.185-0.531,0.156-0.66-0.082c-0.018-0.019-0.035-0.035-0.053-0.055
	c-0.24,0.036-0.486-0.082-0.742-0.356c-0.35-0.313-0.33-0.622,0.055-0.935C225.176,150.992,225.506,151.084,225.799,151.542z
	 M232.035,152.559c-0.109,0.072-0.211,0.109-0.303,0.109l0.027,0.027c0.146,0.293,0.119,0.514-0.082,0.66
	c-0.221,0.164-0.422,0.137-0.605-0.084c-0.02-0.018-0.035-0.026-0.055-0.026c-0.02-0.019-0.045-0.036-0.084-0.054l-0.053,0.025
	c-0.148,0.074-0.293,0.037-0.441-0.109c-0.164-0.146-0.154-0.293,0.027-0.439c0.146-0.109,0.285-0.082,0.414,0.083
	c0.035-0.056,0.092-0.103,0.164-0.138c0.092-0.055,0.174-0.082,0.246-0.082c0.057-0.02,0.092-0.028,0.109-0.028
	c0-0.036-0.008-0.073-0.025-0.108c-0.129-0.293-0.064-0.494,0.191-0.604c0.236-0.128,0.457-0.063,0.658,0.192
	C232.428,152.201,232.363,152.395,232.035,152.559z M234.48,152.559c0.02,0,0.037,0,0.055,0c0.348-0.201,0.66-0.164,0.936,0.109
	c0.201,0.202,0.219,0.385,0.055,0.55c-0.055,0.056-0.146,0.128-0.275,0.22c-0.365,0.201-0.658,0.192-0.879-0.026
	c-0.037,0.019-0.064,0.026-0.082,0.026c-0.328,0.129-0.65,0.036-0.961-0.273c-0.35-0.329-0.33-0.65,0.055-0.963
	c0.385-0.312,0.73-0.229,1.045,0.248C234.443,152.503,234.461,152.541,234.48,152.559z M229.205,153.355
	c-0.293,0.166-0.494,0.109-0.604-0.164c-0.127-0.274-0.074-0.459,0.166-0.549c0.219-0.111,0.42-0.057,0.604,0.163
	C229.57,153.025,229.516,153.209,229.205,153.355z M229.096,152.395c-0.111,0.072-0.221,0.072-0.33,0
	c-0.092-0.109-0.074-0.229,0.055-0.357c0.146-0.109,0.258-0.1,0.33,0.027C229.223,152.21,229.205,152.32,229.096,152.395z
	 M226.896,153.713c-0.164-0.275-0.1-0.504,0.193-0.688c0.313-0.164,0.586-0.127,0.824,0.11c0.109,0.109,0.154,0.21,0.137,0.302
	c0.074,0.166,0.027,0.284-0.137,0.357c-0.094,0.055-0.184,0.072-0.275,0.055C227.309,153.996,227.063,153.949,226.896,153.713z
	 M225.195,153.382c-0.166,0.11-0.313,0.092-0.439-0.054c-0.166-0.147-0.146-0.313,0.055-0.494c0.184-0.186,0.338-0.156,0.467,0.082
	C225.385,153.099,225.359,153.255,225.195,153.382z M222.42,153.328c0.107,0.164,0.045,0.32-0.193,0.467
	c-0.273,0.146-0.477,0.091-0.604-0.165c-0.129-0.257-0.074-0.431,0.164-0.522c0.02-0.019,0.037-0.026,0.055-0.026
	c-0.035-0.056-0.053-0.101-0.055-0.138c0,0.11-0.109,0.229-0.328,0.356c-0.146,0.093-0.283,0.138-0.412,0.138
	c0.037,0.11,0.01,0.185-0.084,0.221c-0.146,0.056-0.273,0.019-0.385-0.109c-0.127-0.128-0.127-0.248,0-0.355
	c0-0.021,0.01-0.028,0.027-0.028c-0.129-0.257-0.055-0.458,0.221-0.604c0.311-0.184,0.586-0.146,0.824,0.109
	c0.074,0.074,0.119,0.146,0.137,0.22c0-0.146,0.074-0.293,0.221-0.438c0.293-0.275,0.521-0.257,0.688,0.054
	c0.164,0.313,0.139,0.55-0.082,0.715C222.557,153.273,222.492,153.311,222.42,153.328z M220,152.998
	c-0.311,0.165-0.521,0.109-0.631-0.164c-0.129-0.275-0.072-0.469,0.166-0.577c0.236-0.11,0.447-0.056,0.631,0.164
	C220.369,152.643,220.313,152.834,220,152.998z M218.766,153.163c0.201,0.293,0.211,0.513,0.027,0.659
	c-0.02,0-0.047,0.009-0.082,0.026c-0.074,0.036-0.146,0.056-0.221,0.056c0.092,0.037,0.174,0.109,0.246,0.22
	c0.146,0.274,0.119,0.485-0.082,0.633c-0.184,0.146-0.377,0.128-0.576-0.056c-0.201-0.201-0.184-0.412,0.055-0.631
	c0.092-0.074,0.174-0.129,0.246-0.166c-0.127-0.02-0.266-0.102-0.41-0.248c-0.129-0.127-0.193-0.256-0.193-0.385
	c0.037-0.108,0.121-0.209,0.248-0.302C218.299,152.751,218.545,152.816,218.766,153.163z M216.76,153.08
	c0.311-0.164,0.596-0.092,0.852,0.22c0.02,0.019,0.037,0.046,0.055,0.082c0.129,0.185,0.129,0.349,0,0.496
	c-0.072,0.091-0.164,0.164-0.273,0.22c-0.402,0.201-0.688,0.118-0.852-0.248C216.375,153.484,216.449,153.229,216.76,153.08z
	 M215.193,153.191c0.184,0.22,0.102,0.412-0.246,0.576c-0.35,0.201-0.604,0.174-0.77-0.082c-0.184-0.257-0.119-0.468,0.191-0.633
	c0.035-0.018,0.072-0.035,0.109-0.055c-0.074-0.146-0.01-0.303,0.191-0.467c0.238-0.221,0.43-0.193,0.578,0.082
	C215.395,152.852,215.377,153.044,215.193,153.191z M254.865,152.283c0.402-0.221,0.76-0.174,1.072,0.138
	c0.035,0.037,0.063,0.073,0.082,0.11c0.201-0.184,0.375-0.156,0.521,0.082c0.129,0.238,0.102,0.431-0.082,0.578
	c-0.186,0.125-0.357,0.107-0.521-0.057c-0.074,0.036-0.156,0.082-0.248,0.137c-0.494,0.275-0.852,0.238-1.07-0.108
	C254.379,152.796,254.463,152.503,254.865,152.283z M253.41,152.668c0.199-0.091,0.385-0.037,0.549,0.166
	c0.146,0.201,0.092,0.357-0.164,0.466c-0.238,0.146-0.412,0.101-0.521-0.137C253.162,152.924,253.209,152.76,253.41,152.668z
	 M253.217,152.668c-0.02,0.166-0.102,0.294-0.246,0.385c-0.275,0.202-0.541,0.176-0.799-0.082c-0.236-0.275-0.201-0.568,0.109-0.879
	c0.238-0.22,0.449-0.268,0.633-0.138c0.109,0.019,0.211,0.091,0.303,0.22C253.381,152.412,253.381,152.577,253.217,152.668z
	 M250.387,152.613c-0.33,0.164-0.65,0.092-0.961-0.221c-0.313-0.312-0.293-0.604,0.055-0.879c0.35-0.275,0.658-0.201,0.936,0.221
	C250.709,152.174,250.699,152.467,250.387,152.613z M249.645,152.971c0.166,0.311,0.139,0.551-0.082,0.715
	c-0.127,0.092-0.256,0.129-0.385,0.109c-0.018,0.128-0.139,0.247-0.355,0.357c-0.439,0.237-0.762,0.199-0.963-0.11
	c-0.184-0.312-0.109-0.568,0.221-0.771c0.236-0.127,0.459-0.154,0.658-0.08c0.037-0.039,0.057-0.074,0.057-0.111
	c-0.148,0.019-0.266-0.063-0.357-0.246c-0.109-0.257-0.055-0.432,0.164-0.523c0.223-0.108,0.412-0.054,0.578,0.166
	c0.092,0.073,0.127,0.154,0.109,0.246C249.416,152.705,249.537,152.787,249.645,152.971z M247.063,153.878
	c-0.293,0.164-0.586,0.091-0.879-0.222c-0.109-0.09-0.184-0.191-0.219-0.301c-0.166,0.129-0.34,0.101-0.523-0.084
	c-0.092-0.092-0.127-0.191-0.109-0.302c-0.055,0.054-0.139,0.109-0.246,0.165c-0.35,0.201-0.605,0.174-0.77-0.083
	c-0.184-0.274-0.121-0.493,0.191-0.659c0.293-0.164,0.549-0.128,0.77,0.109c0.109,0.092,0.164,0.184,0.164,0.275
	c0.02-0.037,0.045-0.073,0.082-0.11c0.238-0.238,0.432-0.22,0.578,0.055c0.018,0.037,0.035,0.083,0.055,0.138
	c0.02-0.018,0.037-0.025,0.055-0.025c0.33-0.258,0.633-0.186,0.906,0.219C247.393,153.456,247.375,153.73,247.063,153.878z
	 M244.041,153.713c0.203-0.165,0.395-0.12,0.578,0.137c0.182,0.274,0.174,0.458-0.029,0.551c-0.201,0.108-0.402,0.063-0.604-0.139
	C243.785,154.061,243.803,153.878,244.041,153.713z M240.58,154.124c-0.385,0.185-0.66,0.101-0.824-0.246
	c-0.164-0.367-0.092-0.614,0.219-0.742c0.314-0.147,0.588-0.073,0.824,0.22C241.037,153.648,240.965,153.904,240.58,154.124z
	 M242.805,152.503c0.201,0.313,0.174,0.567-0.082,0.771c0.109,0.02,0.229,0.082,0.357,0.191c0.219,0.221,0.154,0.432-0.193,0.633
	c-0.348,0.164-0.596,0.127-0.742-0.111c-0.164-0.236-0.129-0.43,0.109-0.575c-0.109-0.037-0.209-0.11-0.301-0.22
	c-0.238-0.238-0.201-0.504,0.107-0.797C242.355,152.102,242.602,152.137,242.805,152.503z M239.178,152.338
	c0.184-0.164,0.367-0.128,0.549,0.111c0.166,0.256,0.156,0.43-0.025,0.521c-0.184,0.073-0.367,0.027-0.551-0.137
	C238.967,152.65,238.977,152.484,239.178,152.338z M238.08,152.777c0.293-0.164,0.559-0.137,0.797,0.082
	c0.219,0.238,0.145,0.457-0.221,0.66c-0.348,0.184-0.604,0.155-0.77-0.082c-0.146-0.238-0.129-0.422,0.055-0.551
	c-0.219,0.092-0.447,0.028-0.688-0.191c-0.219-0.258-0.209-0.485,0.027-0.688c0.258-0.201,0.504-0.146,0.742,0.165
	C238.189,152.449,238.209,152.65,238.08,152.777z M237.447,154.4c-0.293,0.146-0.504,0.092-0.633-0.166
	c-0.107-0.274-0.055-0.447,0.166-0.521c0.219-0.11,0.412-0.063,0.576,0.138C237.74,154.07,237.705,154.253,237.447,154.4z
	 M239.396,154.482c-0.219,0.164-0.438,0.138-0.658-0.082c-0.221-0.221-0.191-0.459,0.082-0.715c0.275-0.257,0.506-0.229,0.688,0.082
	C239.672,154.079,239.637,154.316,239.396,154.482z"/>
</svg>
