<?xml version="1.0" encoding="utf-8"?>
<!-- Generator: Adobe Illustrator 16.0.0, SVG Export Plug-In . SVG Version: 6.00 Build 0)  -->
<!DOCTYPE svg PUBLIC "-//W3C//DTD SVG 1.1//EN" "http://www.w3.org/Graphics/SVG/1.1/DTD/svg11.dtd">
<svg version="1.1" id="Layer_1" xmlns="http://www.w3.org/2000/svg" xmlns:xlink="http://www.w3.org/1999/xlink" x="0px" y="0px"
	 width="300px" height="300px" viewBox="0 0 300 300" enable-background="new 0 0 300 300" xml:space="preserve">
<path fill="#010101" d="M168.387,59.526c-0.768-1.146-1.439-2.153-1.988-2.982c-1.27-2.081-5.628-2.547-10.242-3.04
	c-4.692-0.501-9.544-1.02-11.911-3.142c-0.082-0.638-0.18-1.261-0.277-1.873c-0.459-2.897-0.855-5.399,0.593-8.296
	c2.699-3.892,4.506-13.699,1.144-20.119c-1.989-3.8-5.534-5.81-10.251-5.813c-3.479,0.031-6.244,1.839-7.999,5.225
	c-3.207,6.189-2.381,16.657,0.545,20.885c1.26,2.524,0.684,5.059,0.073,7.744c-0.217,0.952-0.439,1.935-0.569,2.911
	c-2.36,2.121-7.282,2.811-12.042,3.479c-4.735,0.665-9.209,1.293-10.488,3.387c-3.268,6.711-7.33,39.368-5.679,45.32
	c-3.316,5.919,0.412,23.199,3.139,35.839c1.21,5.604,2.164,10.03,2.162,11.904c-1.68,9.756,0.502,14.821,2.628,17.345
	c1.546,1.832,3.615,2.927,5.533,2.927c0.084,0,0.164-0.032,0.224-0.092c0.059-0.061,0.092-0.142,0.092-0.225
	c-0.009-1.3-0.955-2.67-1.957-4.122c-1.295-1.878-2.632-3.817-1.828-5.537c0.471-0.285,0.558-0.215,1.003,0.343
	c0.353,0.442,0.886,1.111,1.918,1.732c0.02,0.011,0.038,0.021,0.059,0.027c1.174,9.274,2.738,18.039,4.025,25.248
	c1.348,7.552,2.413,13.518,2.238,15.894c-3.516,17.148-0.188,43.925,1.066,54.004c0.198,1.595,0.341,2.745,0.377,3.245
	c-0.086,0.985-0.313,2.154-0.556,3.393c-0.499,2.56-1.015,5.204-0.205,6.709c-0.573,2.404-1.188,4.122-1.683,5.505
	c-0.923,2.582-1.479,4.141-0.56,6.905c1.07,3.208,6.875,4.982,10.479,4.982c1.313,0,3.038-0.215,3.804-1.236
	c0.031-0.041,0.052-0.089,0.06-0.141c0.585-3.8-0.857-14.281-2.237-16.552c0.561-1.258,2.397-5.99,0.896-10.922
	c2.728-5.028,5.975-41.969,4.766-46.725c1.307-2.15,3.447-11.764,1.599-13.877c-0.404-1.968,0.152-17.779,0.983-32.804
	c0.838,15.178,1.398,31.145,0.969,32.736c-0.008,0.027-0.011,0.055-0.011,0.083c0.009,3.131,0.829,10.019,1.375,12.331
	c-2.494,5.848-1.531,20.521-0.756,32.324c0.524,7.986,0.978,14.883,0.291,17.244c-1.513,4.786-0.615,10.136,0.07,11.832
	c-1.387,2.253-2.294,11.721-1.712,15.503c0.008,0.052,0.027,0.1,0.06,0.141c0.718,0.957,2.446,1.507,4.739,1.507
	c3.691,0,8.108-1.473,9.017-4.201c1.145-3.433,0.559-5.737-0.607-10.329c-0.257-1.01-0.541-2.13-0.842-3.396
	c0.738-1.328,0.291-2.757-0.227-4.402c-0.316-1.006-0.674-2.146-0.777-3.384c0.048-0.622,0.485-2.703,1.09-5.582
	c2.502-11.92,8.359-39.822,5.066-55.562c0.09-2.27,0.871-6.857,1.857-12.658c2.586-15.188,6.896-40.511,5.063-61.119
	c0.533,0.222,1.244,0.334,2.123,0.334c0.932,0,2.068-0.133,3.119-0.366c0.061-0.014,0.115-0.044,0.158-0.088
	c7.502-7.744,19.875-29.844,20.058-35.828C187.302,87.812,174.997,69.412,168.387,59.526z M166.997,129.422
	c-0.981,0.21-2.029,0.331-2.89,0.331c-0.996,0-1.749-0.155-2.193-0.448c-0.266-2.747-0.64-5.359-1.113-7.774
	c0.42-0.096,0.994-0.032,1.615,0.055c0.352,0.049,0.715,0.1,1.107,0.123c0.1,0.004,0.199-0.036,0.262-0.114
	c3.82-4.641,7.719-21.794,8.37-25.759c0.011-0.07-0.001-0.142-0.036-0.204c-1.291-2.335-2.435-4.974-3.646-7.766
	c-1.938-4.47-4.135-9.536-7.619-15.015c-0.069-0.112-0.202-0.166-0.333-0.139c-0.129,0.029-0.228,0.135-0.245,0.266
	c-0.333,2.502-0.748,5.295-1.188,8.252c-1.656,11.123-3.531,23.731-2.345,29.305c0.005,0.023,0.013,0.045,0.022,0.066
	c1.387,3.025,2.502,6.568,3.313,10.537c-0.014,0.007-0.027,0.016-0.043,0.024c-0.123,0.073-0.182,0.219-0.145,0.357
	c0.408,1.456,0.623,2.948,0.874,4.675c0.151,1.051,0.308,2.137,0.525,3.328c0.003,0.021,0.009,0.041,0.018,0.06
	c1.947,20.619-2.405,46.193-5.007,61.481c-1.035,6.087-1.785,10.483-1.868,12.781c0,0.024,0.001,0.051,0.007,0.076
	c3.283,15.601-2.563,43.447-5.059,55.34c-0.632,3.01-1.05,5-1.102,5.715c0.109,1.354,0.479,2.531,0.804,3.569
	c0.507,1.61,0.907,2.883,0.225,3.999c-0.044,0.07-0.056,0.156-0.038,0.237c0.312,1.321,0.607,2.483,0.873,3.527
	c1.137,4.474,1.707,6.718,0.62,9.976c-0.815,2.448-4.946,3.77-8.418,3.77c-2.009,0-3.564-0.445-4.188-1.194
	c-0.591-4.051,0.468-13.443,1.712-15.103c0.07-0.094,0.083-0.218,0.033-0.323c-0.637-1.37-1.605-6.818-0.11-11.549
	c0.72-2.474,0.263-9.423-0.265-17.468c-0.775-11.801-1.739-26.489,0.746-32.127c0.028-0.064,0.034-0.136,0.018-0.204
	c-0.523-2.113-1.366-9.147-1.382-12.247c0.536-2.318-0.408-24.055-1.272-38.328c-0.01-0.167-0.148-0.297-0.314-0.297
	c-0.167,0-0.306,0.13-0.315,0.297c-0.876,14.406-1.83,36.411-1.262,38.513c0.014,0.054,0.042,0.102,0.081,0.141
	c1.668,1.668-0.381,11.391-1.688,13.269c-0.057,0.08-0.072,0.184-0.042,0.277c1.206,3.696-2.061,42.097-4.734,46.476
	c-0.047,0.079-0.059,0.173-0.031,0.261c1.616,5.108-0.636,10.197-0.899,10.762c-0.05,0.105-0.035,0.229,0.033,0.321
	c1.311,1.746,2.775,12.376,2.238,16.155c-0.499,0.588-1.676,0.924-3.252,0.924c-3.948,0-9.013-1.947-9.88-4.551
	c-0.854-2.558-0.353-3.955,0.554-6.492c0.509-1.423,1.142-3.192,1.731-5.695c0.02-0.081,0.006-0.166-0.037-0.237
	c-0.775-1.271-0.271-3.864,0.219-6.374c0.234-1.2,0.477-2.441,0.564-3.51c-0.035-0.565-0.173-1.664-0.38-3.326
	c-1.249-10.053-4.568-36.753-1.067-53.841c0.186-2.494-0.832-8.197-2.241-16.09c-1.458-8.162-3.271-18.32-4.466-28.933l-0.009-0.153
	c-0.18-2.899-0.365-5.897-0.782-8.208c-1.385-18.541,0.245-31.838,4.986-40.617c0.027-0.054,0.041-0.113,0.037-0.173
	c-0.212-2.821-0.229-7.179-0.251-12.224c-0.034-8.43-0.077-18.921-1.121-25.974c-0.024-0.171-0.179-0.285-0.352-0.267
	c-0.171,0.022-0.292,0.176-0.273,0.348c0.469,4.225-1.644,30.582-4.563,38.275c-0.021,0.056-0.025,0.117-0.014,0.176
	c1.053,5.055,0.694,14.895,0.378,23.577c-0.328,9.004-0.487,14.632,0.356,16.043c0.07,0.299,0.136,0.617,0.195,0.95
	c0.193,2.619,0.459,5.43,0.786,8.318c0.058,0.953,0.116,1.901,0.184,2.802c-0.598-0.447-0.949-0.889-1.222-1.23
	c-0.492-0.617-0.933-1.064-1.911-0.435c-0.047,0.03-0.084,0.073-0.11,0.123c-1.052,2.074,0.481,4.297,1.835,6.257
	c0.853,1.235,1.662,2.409,1.817,3.438c-1.638-0.121-3.374-1.108-4.708-2.691c-2.04-2.42-4.128-7.313-2.483-16.882
	c0.007-1.995-0.955-6.451-2.173-12.091c-2.57-11.913-6.454-29.917-3.144-35.505c0.047-0.077,0.057-0.17,0.029-0.255
	c-1.674-5.32,2.454-38.518,5.591-44.963c1.108-1.813,5.439-2.421,10.023-3.064c4.914-0.69,9.995-1.403,12.469-3.719
	c0.054-0.051,0.088-0.119,0.097-0.191c0.123-0.983,0.352-1.991,0.573-2.965c0.607-2.674,1.235-5.44-0.146-8.204
	c-2.852-4.125-3.641-14.266-0.527-20.273c1.665-3.211,4.168-4.855,7.442-4.885c4.528,0.002,7.79,1.844,9.69,5.475
	c3.254,6.214,1.506,15.703-1.126,19.506c-1.562,3.116-1.13,5.835-0.674,8.714c0.102,0.643,0.206,1.296,0.29,1.968
	c0.009,0.073,0.043,0.141,0.097,0.191c2.489,2.33,7.504,2.866,12.355,3.385c4.457,0.476,8.665,0.926,9.779,2.751
	c0.554,0.84,1.227,1.849,1.996,2.995c6.104,9.131,18.813,28.132,18.948,34.222C186.632,99.957,174.441,121.686,166.997,129.422z
	 M160.676,120.913c-0.816-3.96-1.934-7.506-3.323-10.542c-1.147-5.48,0.714-18,2.358-29.047c0.39-2.624,0.762-5.119,1.073-7.398
	c3.192,5.156,5.27,9.944,7.11,14.19c1.201,2.77,2.336,5.387,3.621,7.725c-0.8,4.75-4.631,20.775-8.116,25.228
	c-0.31-0.025-0.606-0.066-0.896-0.107C161.834,120.868,161.191,120.799,160.676,120.913z M110.742,110.703
	c2.284-6.138,4.073-23.561,4.522-32.926c0.476,6.365,0.507,13.987,0.534,20.409c0.021,5.003,0.038,9.331,0.244,12.176
	c-2.246,4.188-3.797,9.372-4.664,15.635C111.516,119.956,111.458,114.234,110.742,110.703z"/>
</svg>
