<?xml version="1.0" encoding="utf-8"?>
<!-- Generator: Adobe Illustrator 16.0.0, SVG Export Plug-In . SVG Version: 6.00 Build 0)  -->
<!DOCTYPE svg PUBLIC "-//W3C//DTD SVG 1.1//EN" "http://www.w3.org/Graphics/SVG/1.1/DTD/svg11.dtd">
<svg version="1.1" id="Layer_1" xmlns="http://www.w3.org/2000/svg" xmlns:xlink="http://www.w3.org/1999/xlink" x="0px" y="0px"
	 width="300px" height="300px" viewBox="0 0 300 300" enable-background="new 0 0 300 300" xml:space="preserve">
<path fill-rule="evenodd" clip-rule="evenodd" fill="#010101" d="M180.367,187.303c-0.927-5.554-3.395-10.2-7.406-13.937
	c-3.326-3.086-7.149-5.007-11.469-5.76l6.224,47.365c4.011-2.605,7.217-6.12,9.616-10.543
	C180.35,198.874,181.361,193.166,180.367,187.303z M127.138,166.217c1.303-3.086,3.034-6.017,5.194-8.794
	c2.057-2.674,4.441-5.058,7.149-7.149c2.605-2.057,5.298-3.651,8.074-4.782c0-0.034,0.018-0.052,0.052-0.052
	c0.274-0.137,0.583-0.257,0.925-0.36v-0.051l-2.417-18.771c-10.423,8.537-18.189,16.08-23.298,22.629
	c-8.229,10.628-12.258,21.515-12.086,32.657c0.104,5.383,1.337,10.509,3.704,15.378v0.051c2.262,4.663,5.417,8.761,9.462,12.292
	c3.978,3.531,8.469,6.153,13.475,7.868c5.177,1.783,10.439,2.469,15.788,2.057c1.612-0.136,3.189-0.376,4.732-0.72
	c-0.069-0.343-0.104-0.634-0.104-0.874l-6.273-49.27c-1.613,0.652-3.155,1.526-4.629,2.624c-2.263,1.646-4.148,3.651-5.657,6.017
	c-1.543,2.365-2.555,4.852-3.035,7.457c-0.48,2.708-0.325,5.314,0.463,7.817c0.686,2.16,1.886,4.184,3.6,6.068
	c0.789,0.857,1.715,1.68,2.777,2.47c0.309,0.238,0.908,0.634,1.8,1.182c1.097,0.618,1.902,1.184,2.417,1.698
	c1.097,1.063,1.492,2.313,1.184,3.753c-0.275,1.372-1.081,2.349-2.418,2.933c-1.063,0.548-2.349,0.514-3.857-0.104
	c-0.068,0-0.137-0.018-0.206-0.052c-0.103-0.034-0.753-0.376-1.954-1.028c-2.914-1.646-5.538-3.686-7.869-6.12
	c-4.663-4.868-7.629-10.662-8.896-17.383C123.897,178.834,124.532,172.354,127.138,166.217z M146.475,119.777
	c0.446-0.377,0.978-0.566,1.594-0.566c0.583,0.034,1.098,0.257,1.543,0.669c0.446,0.378,0.703,0.857,0.771,1.44l2.983,23.091
	c0,0.275,0.068,0.635,0.206,1.081c0.034,0.137,0.052,0.274,0.052,0.411c0.205,1.646-0.583,2.76-2.366,3.343
	c-0.618,0.206-1.2,0.429-1.749,0.669h-0.051c-2.366,0.995-4.698,2.383-6.994,4.166c-2.367,1.851-4.475,3.959-6.326,6.326
	c-1.885,2.399-3.394,4.954-4.526,7.662c-2.228,5.28-2.776,10.834-1.645,16.663c0.926,4.663,2.76,8.813,5.502,12.446
	c-0.583-1.132-1.063-2.297-1.439-3.497c-1.029-3.223-1.217-6.584-0.565-10.08v-0.052c0.548-3.223,1.782-6.292,3.703-9.206
	c1.851-2.88,4.131-5.314,6.84-7.303c2.811-2.092,5.794-3.514,8.948-4.269c0.445-0.104,0.892-0.069,1.338,0.103
	c0.444,0.138,0.822,0.378,1.131,0.72c0.274,0.378,0.445,0.789,0.514,1.235l6.635,52.149c0.068,0.41,0.188,1.01,0.359,1.8
	c0.034,0.103,0.052,0.223,0.052,0.359c0.104,2.023-0.806,3.274-2.726,3.755c-2.229,0.548-4.456,0.925-6.686,1.131
	c-6.035,0.48-11.966-0.291-17.794-2.314h0.051c-5.589-1.954-10.628-4.886-15.12-8.794c-4.526-3.978-8.074-8.589-10.646-13.835
	c-2.675-5.555-4.08-11.365-4.218-17.435c-0.274-12.205,4.114-24.12,13.166-35.743C124.772,138.462,133.926,129.753,146.475,119.777z
	 M161.029,9.873c2.4-1.68,4.629-2.538,6.687-2.572c1.748-0.24,3.445,0.618,5.091,2.572h-0.052c0.651,0.686,1.423,1.851,2.314,3.498
	c1.783,3.154,3.497,7.406,5.143,12.753c3.601,11.761,5.28,22.287,5.041,31.578c-0.172,6.411-1.286,12.96-3.344,19.646h0.052
	c-1.92,6.206-4.577,12.256-7.972,18.154c-3.428,5.897-7.491,11.435-12.188,16.612c-2.297,2.502-4.628,4.834-6.994,6.994
	c0.171,0.034,0.274,0.189,0.309,0.463v0.051c0.068,0.651,0.223,1.542,0.463,2.674c0.034,0.069,0.052,0.138,0.052,0.206l2.725,20.675
	c5.555-0.138,10.818,0.874,15.789,3.034v-0.051c5.76,2.503,10.544,6.309,14.35,11.417v0.052c3.6,4.8,6.033,10.319,7.303,16.56
	c1.234,5.966,1.285,11.966,0.154,18c-1.132,6.035-3.549,11.623-7.252,16.766v0.053c-3.531,4.867-7.938,9.034-13.217,12.496
	c-2.023,1.269-4.166,2.47-6.429,3.601l1.388,11.006c0.344,2.605,0.943,6.583,1.8,11.931v0.053c0.721,4.937,1.063,9.085,1.029,12.445
	c-0.034,6.206-1.114,11.727-3.24,16.56c-2.435,5.657-6.12,10.047-11.057,13.167v-0.053c-5.109,3.258-10.749,4.904-16.92,4.938
	c-6.24,0.034-11.897-1.561-16.972-4.783c-5.555-3.566-9.6-8.246-12.137-14.041c-2.846-6.548-3.018-12.805-0.514-18.771
	c1.303-3.12,3.239-5.726,5.811-7.816c2.469-2.023,5.229-3.326,8.281-3.908c3.154-0.618,6.188-0.361,9.103,0.771
	c3.051,1.165,5.657,3.205,7.817,6.12v0.051c2.537,3.463,3.806,7.388,3.806,11.777c0.034,4.697-1.422,8.623-4.372,11.776
	c-1.954,2.058-4.371,3.601-7.251,4.629c-1.406,0.48-2.726,0.771-3.96,0.875c0.549,0.515,1.268,0.994,2.16,1.439
	c2.503,1.269,5.006,1.869,7.509,1.8c3.326-0.137,6.395-0.806,9.206-2.005c2.949-1.269,5.383-3.068,7.303-5.4h-0.052
	c3.737-4.662,5.504-10.938,5.298-18.823c-0.069-2.229-0.309-4.868-0.721-7.92c-0.582-3.669-0.994-6.411-1.234-8.229l-2.006-14.04
	c-11.794,2.263-23.057,0.309-33.789-5.863c-5.279-3.052-10.011-6.96-14.194-11.726c-4.149-4.766-7.527-10.081-10.132-15.942
	c-2.571-5.829-4.302-11.881-5.194-18.155c-0.891-6.514-0.823-12.823,0.206-18.927c1.885-11.074,7.372-22.302,16.458-33.686
	c3.498-4.389,7.714-9.051,12.651-13.988c3.085-3.086,7.612-7.389,13.577-12.909h0.051l3.137-2.88h-0.051
	c0.034-0.034,0.069-0.069,0.104-0.104l-0.463-2.571c-0.652-4.32-1.132-8.554-1.44-12.703c-0.686-8.469-0.702-15.994-0.051-22.578
	c0.48-4.971,1.406-9.978,2.777-15.017c1.337-4.938,3.051-9.703,5.143-14.297h0.051c2.503-5.485,5.246-9.857,8.229-13.115h0.051
	C157.823,12.444,159.417,11.004,161.029,9.873z M169.104,13.009c-0.411-0.48-0.771-0.771-1.08-0.874h-0.051
	c-1.269,0.103-2.657,0.686-4.166,1.749c-1.338,0.925-2.675,2.125-4.012,3.6c-2.674,2.914-5.16,6.857-7.457,11.829
	c-1.989,4.354-3.617,8.879-4.886,13.578c-1.303,4.765-2.178,9.514-2.623,14.245c-0.618,6.308-0.6,13.543,0.051,21.703
	c0.308,4.012,0.788,8.126,1.44,12.343l0.462,2.881V94.01c0.24,1.338,0.138,2.263-0.309,2.777c-0.137,0.206-0.583,0.652-1.337,1.337
	l-3.137,2.881c-5.897,5.451-10.39,9.702-13.475,12.754c-4.799,4.834-8.897,9.378-12.291,13.628
	c-8.469,10.664-13.594,21.155-15.377,31.476c-0.994,5.623-1.063,11.434-0.206,17.434c0.789,5.795,2.383,11.4,4.784,16.818
	c2.399,5.451,5.52,10.371,9.359,14.76c3.84,4.354,8.178,7.937,13.012,10.748h-0.052c10.389,5.966,21.326,7.561,32.812,4.783
	c0.48-0.137,0.926-0.12,1.337,0.052c0.446,0.137,0.823,0.377,1.132,0.72c0.309,0.377,0.496,0.789,0.565,1.234l2.314,16.611
	c0.274,1.817,0.687,4.544,1.234,8.178h0.052c0.445,3.292,0.702,6.138,0.771,8.537c0.24,9.257-1.886,16.594-6.378,22.012
	c-2.399,2.948-5.451,5.211-9.154,6.788c-3.291,1.406-6.925,2.194-10.903,2.366h-0.051c-3.257,0.138-6.532-0.634-9.823-2.314
	c-4.458-2.264-6.651-5.177-6.583-8.743c0-0.549,0.155-1.046,0.463-1.491c0.343-0.445,0.771-0.737,1.286-0.874
	c0.548-0.172,1.08-0.155,1.594,0.051c1.611,0.618,3.479,0.549,5.606-0.206c2.091-0.719,3.857-1.834,5.296-3.343
	c2.057-2.262,3.086-5.057,3.086-8.382c0-3.36-0.959-6.36-2.88-9h-0.051c-1.543-2.127-3.411-3.617-5.606-4.476
	c-2.057-0.788-4.2-0.959-6.429-0.514c-2.263,0.411-4.302,1.372-6.12,2.881c-1.954,1.576-3.428,3.565-4.423,5.965
	c-1.954,4.731-1.783,9.702,0.515,14.915c2.161,4.937,5.589,8.896,10.286,11.88c4.286,2.743,9.051,4.097,14.298,4.063
	c5.245-0.034,10.046-1.423,14.4-4.165c4.08-2.605,7.148-6.258,9.206-10.955c1.851-4.286,2.794-9.188,2.828-14.708
	c0-3.155-0.326-7.063-0.978-11.727v0.051c-0.856-5.417-1.457-9.444-1.8-12.085l-1.646-12.754c-0.068-0.515,0.034-1.012,0.31-1.492
	c0.239-0.446,0.6-0.788,1.08-1.028c0.137-0.068,0.257-0.121,0.359-0.155c-0.137,0-0.274-0.017-0.411-0.051
	c-0.514-0.103-0.96-0.343-1.338-0.72c-0.343-0.377-0.548-0.823-0.616-1.338l-7.098-54.052c-0.068-0.479,0-0.942,0.206-1.388
	c0.205-0.446,0.531-0.79,0.977-1.028c0.412-0.24,0.857-0.344,1.337-0.31c6.721,0.378,12.532,2.847,17.435,7.406
	c4.801,4.456,7.766,10.028,8.898,16.714c1.165,6.926-0.019,13.663-3.549,20.212c-2.504,4.629-5.761,8.383-9.771,11.264
	c0.342-0.206,0.668-0.412,0.977-0.618c4.766-3.086,8.743-6.839,11.932-11.263c3.292-4.56,5.451-9.496,6.479-14.812
	c0.995-5.417,0.943-10.8-0.153-16.148c-1.166-5.521-3.326-10.406-6.48-14.657c-3.291-4.457-7.424-7.749-12.395-9.874
	c-4.938-2.161-10.183-2.983-15.737-2.469c-0.65,0.068-1.234-0.103-1.749-0.514c-0.514-0.412-0.806-0.926-0.874-1.543l-2.983-22.835
	c-0.274-1.303-0.463-2.331-0.565-3.085c-0.309-2.366,0.103-3.926,1.235-4.68h0.051c2.263-2.057,4.492-4.269,6.686-6.634
	c4.423-4.903,8.263-10.166,11.521-15.789c3.188-5.555,5.691-11.28,7.509-17.177c1.92-6.24,2.965-12.36,3.137-18.36
	c0.172-8.813-1.439-18.806-4.835-29.984c-1.542-4.971-3.119-8.915-4.73-11.829c-0.721-1.234-1.303-2.125-1.749-2.674V13.009z"/>
</svg>
