<?xml version="1.0" encoding="utf-8"?>
<!-- Generator: Adobe Illustrator 16.0.0, SVG Export Plug-In . SVG Version: 6.00 Build 0)  -->
<!DOCTYPE svg PUBLIC "-//W3C//DTD SVG 1.1//EN" "http://www.w3.org/Graphics/SVG/1.1/DTD/svg11.dtd">
<svg version="1.1" id="Layer_1" xmlns="http://www.w3.org/2000/svg" xmlns:xlink="http://www.w3.org/1999/xlink" x="0px" y="0px"
	 width="300px" height="300px" viewBox="0 0 300 300" enable-background="new 0 0 300 300" xml:space="preserve">
<path fill-rule="evenodd" clip-rule="evenodd" fill="#ED2224" d="M116.067,123.762c10.354-4.383,21.208-6.575,32.563-6.575
	c11.355,0,22.209,2.192,32.563,6.575c10.03,4.265,18.914,10.266,26.65,18.002c7.737,7.736,13.737,16.604,18.003,26.606
	c4.383,10.383,6.574,21.238,6.574,32.563c0,1.854-0.06,3.529-0.177,5.03H218.17c-1.03-18.326-8.251-33.843-21.665-46.551
	c-13.443-12.737-29.4-19.106-47.874-19.106c-18.473,0-34.417,6.369-47.83,19.106c-13.414,12.708-20.635,28.225-21.665,46.551h-14.12
	c-0.088-1.678-0.133-3.354-0.133-5.03c0-11.325,2.192-22.181,6.575-32.563c4.265-10.002,10.252-18.87,17.959-26.606
	C97.154,134.028,106.037,128.027,116.067,123.762z M102.478,161.135c12.972-12.267,28.356-18.4,46.153-18.4
	c17.826,0,33.21,6.133,46.153,18.4c12.914,12.237,19.885,27.181,20.915,44.83h-16.591c-1.029-13.12-6.368-24.165-16.018-33.137
	c-9.707-9.031-21.193-13.547-34.46-13.547c-13.266,0-24.753,4.516-34.46,13.547c-9.648,8.972-14.987,20.017-16.017,33.137H81.607
	C82.637,188.315,89.593,173.372,102.478,161.135z M109.273,98.083c12.53-5.324,25.65-7.986,39.358-7.986
	c13.708,0,26.842,2.662,39.402,7.986c12.09,5.118,22.812,12.354,32.166,21.708c9.354,9.325,16.591,20.047,21.709,32.166
	c5.324,12.531,7.986,25.651,7.986,39.358c0,4.766-0.368,9.649-1.104,14.649h-13.457c0.088-1.678,0.133-3.354,0.133-5.03
	c0-11.767-2.28-23.018-6.84-33.755c-4.412-10.384-10.618-19.576-18.62-27.577c-8.03-8.03-17.237-14.237-27.621-18.62
	c-10.737-4.56-21.989-6.839-33.755-6.839c-11.766,0-23.018,2.279-33.754,6.839c-10.384,4.383-19.577,10.59-27.577,18.62
	c-8.03,8.001-14.237,17.193-18.62,27.577c-4.56,10.737-6.839,21.988-6.839,33.755c0,1.677,0.044,3.353,0.132,5.03H48.47
	c-0.706-5.118-1.059-10.002-1.059-14.649c0-13.707,2.662-26.827,7.986-39.358c5.119-12.119,12.354-22.841,21.709-32.166
	C86.431,110.437,97.154,103.201,109.273,98.083z M257.396,139.603c6.207,14.62,9.31,29.916,9.31,45.889
	c0,6.824-0.588,13.648-1.765,20.474h-12.398c0.677-4.912,1.016-9.796,1.016-14.649c0-14.208-2.751-27.813-8.252-40.814
	c-5.324-12.531-12.825-23.65-22.503-33.358c-9.707-9.678-20.826-17.179-33.357-22.503c-13.002-5.5-26.607-8.251-40.814-8.251
	c-14.208,0-27.798,2.75-40.771,8.251c-12.561,5.324-23.679,12.825-33.357,22.503C64.825,126.851,57.324,137.97,52,150.501
	c-5.5,13-8.25,26.606-8.25,40.814c0,4.854,0.338,9.737,1.014,14.649H32.365c-1.176-6.59-1.765-13.414-1.765-20.474
	c0-15.973,3.104-31.269,9.31-45.889c5.971-14.12,14.399-26.636,25.283-37.549c10.913-10.913,23.43-19.355,37.549-25.327
	c14.62-6.207,29.917-9.31,45.889-9.31c16.002,0,31.313,3.103,45.933,9.31c14.119,5.972,26.636,14.414,37.549,25.327
	C242.997,112.967,251.424,125.483,257.396,139.603z M270.986,185.491c0-16.562-3.207-32.416-9.619-47.565
	c-6.207-14.649-14.959-27.622-26.254-38.917c-11.296-11.295-24.269-20.046-38.917-26.253c-15.149-6.413-31.004-9.619-47.565-9.619
	c-16.561,0-32.416,3.207-47.565,9.619c-14.649,6.207-27.621,14.958-38.917,26.253c-11.295,11.296-20.047,24.268-26.253,38.917
	c-6.413,15.149-9.619,31.003-9.619,47.565c0,6.707,0.574,13.53,1.721,20.474H10.436c-2.324-10.384-3.486-20.797-3.486-31.24
	c0-19.178,3.721-37.549,11.163-55.11c7.178-16.943,17.297-31.96,30.357-45.05c13.09-13.09,28.106-23.224,45.05-30.401
	C111.082,36.721,129.452,33,148.631,33c19.208,0,37.593,3.721,55.154,11.163c16.944,7.178,31.961,17.312,45.05,30.401
	c13.09,13.09,23.225,28.107,30.401,45.05c7.443,17.561,11.164,35.932,11.164,55.11c0,10.443-1.162,20.856-3.486,31.24h-17.605
	C270.427,199.199,270.986,192.374,270.986,185.491z"/>
</svg>
