<?xml version="1.0" encoding="utf-8"?>
<!-- Generator: Adobe Illustrator 16.0.0, SVG Export Plug-In . SVG Version: 6.00 Build 0)  -->
<!DOCTYPE svg PUBLIC "-//W3C//DTD SVG 1.1//EN" "http://www.w3.org/Graphics/SVG/1.1/DTD/svg11.dtd">
<svg version="1.1" id="Layer_1" xmlns="http://www.w3.org/2000/svg" xmlns:xlink="http://www.w3.org/1999/xlink" x="0px" y="0px"
	 width="300px" height="300px" viewBox="0 0 300 300" enable-background="new 0 0 300 300" xml:space="preserve">
<path fill-rule="evenodd" clip-rule="evenodd" fill="#010101" d="M233.49,225.003c0.091-1.604,0.136-3.229,0.136-4.876
	c-0.016-23.094-8.187-42.812-24.511-59.15c-16.355-16.34-36.08-24.51-59.174-24.51c-23.095,0-42.812,8.17-59.152,24.51
	c-16.34,16.339-24.51,36.057-24.51,59.15c-0.015,1.647,0.022,3.272,0.112,4.876c0.075,1.438-0.375,2.703-1.348,3.796
	c-0.973,1.095-2.186,1.679-3.639,1.754c-1.453,0.075-2.726-0.375-3.819-1.35c-1.093-0.974-1.677-2.185-1.752-3.638
	c-0.089-1.798-0.134-3.609-0.134-5.438c0-26.029,9.204-48.239,27.61-66.632c18.392-18.407,40.603-27.61,66.633-27.61
	c26.03,0,48.249,9.203,66.655,27.61c18.393,18.393,27.596,40.603,27.61,66.632c-0.015,1.829-0.066,3.641-0.157,5.438
	c-0.075,1.453-0.659,2.664-1.752,3.638c-1.093,0.975-2.366,1.425-3.819,1.35s-2.666-0.659-3.64-1.754
	C233.864,227.706,233.415,226.441,233.49,225.003z M209.699,224.8c0.195-2.127,0.292-4.282,0.292-6.468
	c-0.015-16.701-5.923-30.959-17.726-42.775c-11.816-11.817-26.074-17.719-42.774-17.704c-16.7-0.015-30.958,5.887-42.775,17.704
	c-11.817,11.816-17.718,26.074-17.703,42.775c0,2.171,0.105,4.312,0.315,6.424c0.135,1.453-0.262,2.74-1.19,3.864
	c-0.929,1.123-2.12,1.761-3.572,1.908c-1.453,0.15-2.741-0.237-3.864-1.167c-1.138-0.929-1.774-2.12-1.909-3.571
	c-0.255-2.441-0.375-4.929-0.36-7.458c0-19.62,6.935-36.373,20.803-50.257c13.898-13.869,30.651-20.803,50.256-20.803
	c19.635,0,36.386,6.934,50.255,20.803c13.719,13.719,20.66,30.472,20.826,50.257c0,0.223,0,0.455,0,0.695
	c-0.046,2.485-0.158,4.733-0.338,6.739c-0.149,1.453-0.786,2.645-1.909,3.572c-1.123,0.944-2.412,1.349-3.864,1.214
	c-1.452-0.15-2.643-0.787-3.571-1.911C209.961,227.52,209.564,226.238,209.699,224.8z M289.789,229.092
	c-1.048,1.003-2.299,1.497-3.751,1.482c-1.469-0.046-2.704-0.591-3.707-1.64c-1.019-1.049-1.513-2.307-1.483-3.774
	c0-0.509,0.008-1.378,0.023-2.605c0.015-37.158-12.762-68.521-38.327-94.086c-25.565-25.566-56.434-38.341-92.603-38.327
	c-36.155-0.015-67.008,12.76-92.559,38.327c-25.581,25.565-38.363,56.426-38.349,92.581c0,1.361,0.022,2.718,0.067,4.065
	c0.03,1.438-0.449,2.695-1.438,3.775c-1.003,1.062-2.231,1.616-3.684,1.662c-1.453,0.044-2.711-0.427-3.774-1.415
	c-1.078-1.005-1.64-2.233-1.685-3.687c-0.06-1.451-0.083-2.919-0.067-4.401c0-39.091,13.817-72.445,41.449-100.063
	c27.603-27.618,60.949-41.426,100.04-41.426c39.105,0,72.466,13.809,100.083,41.426c27.618,27.618,41.435,60.972,41.45,100.063
	c0,1.468-0.016,2.912-0.045,4.336C291.384,226.839,290.838,228.074,289.789,229.092z M253.71,225.047
	c0.074-1.916,0.119-3.856,0.135-5.816c0-28.682-10.147-53.17-30.441-73.464s-44.781-30.434-73.462-30.418
	c-28.681-0.015-53.168,10.125-73.462,30.418S46.045,190.549,46.06,219.23c-0.015,1.945,0.03,3.871,0.135,5.772
	c0.075,1.438-0.374,2.703-1.348,3.796c-0.973,1.095-2.187,1.679-3.64,1.754s-2.726-0.375-3.819-1.35
	c-1.094-0.974-1.677-2.185-1.752-3.638c-0.09-1.572-0.142-3.416-0.157-5.527c0-0.075,0-0.144,0-0.202
	c0.045-32.065,11.218-59.249,33.519-81.55c22.346-22.346,49.327-33.519,80.944-33.519s58.597,11.173,80.944,33.519
	c22.36,22.345,33.54,49.327,33.54,80.944c0,2.11-0.044,4.208-0.134,6.289c-0.075,1.453-0.652,2.674-1.729,3.662
	c-1.094,0.974-2.359,1.432-3.797,1.371c-1.468-0.061-2.689-0.63-3.663-1.708C254.099,227.752,253.635,226.485,253.71,225.047z"/>
</svg>
