<?xml version="1.0" encoding="utf-8"?>
<!-- Generator: Adobe Illustrator 16.0.0, SVG Export Plug-In . SVG Version: 6.00 Build 0)  -->
<!DOCTYPE svg PUBLIC "-//W3C//DTD SVG 1.1//EN" "http://www.w3.org/Graphics/SVG/1.1/DTD/svg11.dtd">
<svg version="1.1" id="Layer_1" xmlns="http://www.w3.org/2000/svg" xmlns:xlink="http://www.w3.org/1999/xlink" x="0px" y="0px"
	 width="300px" height="300px" viewBox="0 0 300 300" enable-background="new 0 0 300 300" xml:space="preserve">
<path fill-rule="evenodd" clip-rule="evenodd" fill="#040305" d="M283.578,106.178c5.414,10.323,8.122,21.138,8.122,32.442
	c0,8.202-1.615,16.466-4.846,24.795c-4.623-7.759-10.688-14.092-18.191-19c0.284-2.343,0.428-4.275,0.428-5.795
	c0-8.961-2.122-17.543-6.365-25.745c-4.054-7.949-9.802-14.979-17.243-21.09s-15.991-10.846-25.65-14.203
	c-9.975-3.483-20.409-5.225-31.303-5.225c-8.897,0-17.59,1.219-26.076,3.658c-8.424,2.438-16.182,5.938-23.276,10.498
	c-7.283-3.864-15.121-6.081-23.512-6.65c9.722-7.885,20.868-13.965,33.44-18.24c12.667-4.307,25.808-6.46,39.424-6.46
	c13.966,0,27.329,2.185,40.091,6.554c12.35,4.244,23.29,10.213,32.822,17.908C270.974,87.32,278.353,96.171,283.578,106.178z
	 M262.487,141.945l-0.095,2.185c-7.125-3.483-14.503-5.431-22.135-5.842c-1.141-11.115-6.65-20.457-16.53-28.025
	c-9.911-7.569-21.644-11.353-35.198-11.353c-10.766,0-20.662,2.66-29.688,7.98c-3.673-5.067-8.138-9.468-13.394-13.206
	c12.919-7.6,27.281-11.4,43.082-11.4c20.394,0,37.812,5.826,52.25,17.48c6.841,5.51,12.13,11.827,15.865,18.952
	C260.54,126.128,262.487,133.87,262.487,141.945z M286.285,202.792c0,14.504-5.146,26.886-15.438,37.146
	c-10.26,10.291-22.643,15.438-37.145,15.438H59.235c-14.472,0-26.853-5.146-37.145-15.438C11.83,229.678,6.7,217.296,6.7,202.792
	c0-13.489,4.48-25.223,13.442-35.197c8.993-10.007,20.188-15.707,33.583-17.1l2.422-0.522v-2.469c0-14.472,5.13-26.854,15.39-37.146
	c10.292-10.26,22.673-15.39,37.145-15.39c9.944,0,19.111,2.581,27.503,7.743c8.423,5.162,14.883,12.175,19.379,21.043l0.998,1.994
	l2.138-0.618c4.908-1.394,9.801-2.089,14.678-2.089c9.531,0,18.43,2.438,26.694,7.314c8.233,4.846,14.662,11.448,19.285,19.808
	l0.95,1.757l1.995-0.428c8.201-1.805,16.276-1.71,24.226,0.285c7.535,1.9,14.328,5.336,20.376,10.308
	c6.018,4.94,10.72,10.894,14.108,17.859C284.528,187.134,286.285,194.748,286.285,202.792z M162.404,115.678
	c7.949-4.561,16.642-6.84,26.078-6.84c11.622,0,21.771,3.182,30.447,9.547c8.646,6.301,13.537,14.044,14.678,23.228
	c-2.944,0.222-5.353,0.522-7.22,0.903c-5.225-8.74-12.271-15.627-21.138-20.663c-8.866-5.036-18.397-7.553-28.596-7.553
	c-4.56,0-9.23,0.585-14.012,1.757L162.404,115.678z"/>
</svg>
