<?xml version="1.0" encoding="utf-8"?>
<!-- Generator: Adobe Illustrator 16.0.0, SVG Export Plug-In . SVG Version: 6.00 Build 0)  -->
<!DOCTYPE svg PUBLIC "-//W3C//DTD SVG 1.1//EN" "http://www.w3.org/Graphics/SVG/1.1/DTD/svg11.dtd">
<svg version="1.1" id="Layer_1" xmlns="http://www.w3.org/2000/svg" xmlns:xlink="http://www.w3.org/1999/xlink" x="0px" y="0px"
	 width="300px" height="300px" viewBox="0 0 300 300" enable-background="new 0 0 300 300" xml:space="preserve">
<path fill-rule="evenodd" clip-rule="evenodd" fill="#010101" d="M79.541,171.964c-0.013,0-0.026,0-0.04,0h-2.696l0.322-2.637
	c1.851-17.526,9.239-32.754,22.167-45.682c15.1-15.1,33.318-22.644,54.654-22.63c21.335-0.013,39.561,7.53,54.675,22.63v0.02
	c9.521,9.521,16.045,20.303,19.571,32.345l0.946,3.059h-3.239c-0.026,0-0.053,0-0.079,0c-1.033-0.013-1.991,0.148-2.877,0.482
	l-1.649,0.583l-1.066-1.327c-0.349-0.442-0.725-0.864-1.126-1.268c-2.132-2.132-4.613-3.438-7.443-3.923l-1.287-0.24l-0.503-1.167
	c-2.99-6.88-7.329-13.156-13.016-18.829c-11.948-11.949-26.385-17.923-43.309-17.923c-16.897,0-31.333,5.975-43.31,17.923
	c-11.948,11.962-17.923,26.399-17.923,43.309c0,0.966,0.021,1.925,0.061,2.876l0.02,0.685l-0.342,0.604
	c-0.094,0.175-0.174,0.342-0.242,0.503l-3.379,8.67l-1.629-0.362l0.402-9.253c0-0.269,0.007-0.529,0.021-0.784
	c-0.014-2.119-0.771-3.93-2.273-5.432C83.464,172.707,81.66,171.964,79.541,171.964z M106.858,130.022l0.02-0.02
	c12.901-12.888,28.457-19.325,46.668-19.311c18.238-0.014,33.801,6.423,46.688,19.311c5.807,5.807,10.299,12.197,13.478,19.17
	c3.299,0.778,6.223,2.441,8.771,4.989c0.067,0.066,0.128,0.135,0.182,0.201c-3.474-10.085-9.281-19.197-17.421-27.337
	c-14.176-14.161-31.272-21.242-51.295-21.242c-20.021,0-37.114,7.081-51.275,21.242c-11.533,11.533-18.365,25.003-20.498,40.413
	c2.092,0.429,3.97,1.395,5.632,2.896C89.15,154.818,95.5,141.38,106.858,130.022z M218.037,113.407
	c-17.701-17.702-39.064-26.546-64.088-26.533c-25.024-0.014-46.387,8.831-64.089,26.533c-13.196,13.195-21.47,28.437-24.823,45.722
	c1.341,0.35,2.602,0.919,3.782,1.71c3.191-16.602,11.124-31.232,23.796-43.892h-0.02c16.938-16.951,37.389-25.419,61.353-25.406
	c23.964-0.014,44.423,8.455,61.373,25.406c13.316,13.316,21.402,28.813,24.259,46.488c1.235-0.43,2.556-0.65,3.964-0.664
	C240.661,143.982,232.159,127.528,218.037,113.407z M235.177,97.917c-22.423-22.422-49.499-33.627-81.228-33.613
	c-31.716-0.014-58.778,11.191-81.187,33.613c-16.093,16.079-26.412,34.545-30.958,55.398c1.005-0.16,2.052-0.24,3.138-0.24
	c2.36,0,4.566,0.381,6.618,1.146c4.171-19.271,13.578-36.235,28.223-50.893c20.478-20.478,45.2-30.71,74.167-30.697
	c28.967-0.013,53.688,10.219,74.166,30.697c18.306,18.292,28.438,39.983,30.396,65.074c1.395-0.536,2.903-0.804,4.526-0.804
	c1.917-0.014,3.674,0.362,5.27,1.126C265.906,141.206,254.862,117.604,235.177,97.917z M153.949,82.106
	c26.339-0.026,48.828,9.28,67.468,27.92c15.649,15.664,24.735,34.042,27.257,55.137l0.483,3.42l-3.42-0.824
	c-0.645-0.161-1.314-0.235-2.011-0.222c-1.731-0.014-3.26,0.489-4.588,1.509L235.9,171.4l-0.563-3.963
	c-2.214-18.024-10.012-33.728-23.395-47.111c-16.013-16.012-35.344-24.018-57.994-24.018s-41.975,8.006-57.973,24.018
	c-13.035,13.022-20.76,28.25-23.174,45.683l-0.925,5.773l-3.379-4.707c-0.294-0.402-0.63-0.791-1.006-1.167
	c-1.488-1.501-3.279-2.3-5.371-2.394l-2.696-0.201l0.463-2.575c3.178-19.257,12.042-36.161,26.593-50.711
	C105.121,91.387,127.611,82.08,153.949,82.106z M153.949,50.062c35.672-0.013,66.106,12.579,91.305,37.777
	c25.199,25.198,37.805,55.627,37.817,91.286c0,0.04,0,0.08,0,0.12c1.503,0.63,2.885,1.516,4.144,2.655
	c2.938,2.642,4.406,5.841,4.406,9.596s-1.469,6.953-4.406,9.595c-2.426,2.187-5.276,3.439-8.549,3.762
	c0.014,0.442,0.027,0.885,0.04,1.328c-0.013,6.437-2.292,11.929-6.839,16.474c-4.547,4.547-10.038,6.826-16.475,6.84
	c-6.396,0-11.861-2.246-16.394-6.738c-0.376,0.429-0.766,0.851-1.167,1.267v-0.021c-3.647,3.648-8.054,5.479-13.216,5.492
	c-5.164,0-9.576-1.831-13.237-5.492c-1.166-1.167-2.139-2.399-2.916-3.701c-2.227,1.838-4.828,2.757-7.806,2.757
	c-3.434,0-6.369-1.221-8.811-3.661c-1.34-1.341-2.313-2.844-2.916-4.506c-1.181,0.335-2.434,0.509-3.762,0.523
	c-3.608,0-6.686-1.274-9.233-3.822c-2.548-2.549-3.814-5.626-3.802-9.233c-0.013-3.607,1.254-6.686,3.802-9.233
	c1.864-1.863,4.016-3.044,6.457-3.541c-0.134-0.737-0.2-1.508-0.2-2.313c0-3.447,1.206-6.383,3.62-8.811v-0.021h0.02
	c1.717-1.716,3.695-2.823,5.935-3.318c-1.019-2.32-1.528-4.849-1.528-7.584c-0.015-5.217,1.823-9.669,5.512-13.357v-0.02h0.02
	c1.006-1.006,2.079-1.872,3.219-2.595c-2.32-4.091-5.264-7.919-8.831-11.486c-10.111-10.112-22.315-15.161-36.61-15.147
	c-14.295-0.013-26.5,5.036-36.611,15.147c-9.092,9.079-14.088,19.841-14.986,32.285c2.132,0.523,4.03,1.616,5.692,3.279
	c1.972,1.972,3.145,4.271,3.521,6.899c0.523-0.04,1.053-0.06,1.589-0.06c4.01,0,7.436,1.279,10.279,3.842
	c2.937,2.643,4.405,5.84,4.405,9.595s-1.468,6.953-4.405,9.596c-2.427,2.186-5.277,3.438-8.549,3.761
	c0.013,0.443,0.027,0.886,0.04,1.328c-0.013,6.438-2.293,11.929-6.839,16.475c-4.546,4.547-10.038,6.826-16.475,6.84
	c-6.396,0-11.861-2.247-16.394-6.739c-0.375,0.429-0.765,0.852-1.167,1.268v-0.021c-3.648,3.648-8.054,5.479-13.216,5.492
	c-5.163,0-9.575-1.831-13.236-5.492c-1.167-1.166-2.139-2.399-2.917-3.701c-2.226,1.838-4.828,2.757-7.805,2.757
	c-3.434,0-6.37-1.222-8.811-3.662c-1.341-1.341-2.313-2.843-2.917-4.506c-1.18,0.336-2.434,0.51-3.761,0.523
	c-3.607,0-6.686-1.274-9.233-3.822c-2.548-2.548-3.815-5.626-3.802-9.233c-0.013-3.607,1.254-6.685,3.802-9.232
	c1.864-1.864,4.016-3.045,6.457-3.54c-0.134-0.738-0.201-1.509-0.201-2.313c0-3.446,1.207-6.384,3.621-8.812v-0.021h0.02
	c0.993-0.991,2.072-1.776,3.239-2.353c-0.014-0.456-0.014-0.918,0-1.388v-0.021c0-35.659,12.599-66.08,37.797-91.265
	C87.869,62.641,118.291,50.049,153.949,50.062z M241.875,91.219c-24.26-24.259-53.568-36.389-87.926-36.389
	c-34.344,0-63.64,12.13-87.886,36.389c-24.272,24.26-36.409,53.561-36.409,87.906v0.04c-0.014,0.938,0,1.884,0.04,2.836l0.06,1.79
	l-1.729,0.583c-1.126,0.362-2.132,0.993-3.018,1.892v-0.021c-1.502,1.503-2.246,3.319-2.232,5.452
	c-0.014,1.246,0.234,2.38,0.744,3.399l1.791,3.802l-4.205-0.382c-0.04,0-0.081,0-0.121,0c-2.293,0-4.245,0.804-5.854,2.413
	c-1.609,1.61-2.414,3.561-2.414,5.854c0,2.294,0.805,4.245,2.414,5.854c1.609,1.61,3.561,2.422,5.854,2.435
	c1.569,0,2.984-0.375,4.245-1.126l3.198-1.871l0.402,3.701c0.162,1.797,0.899,3.353,2.213,4.667c1.502,1.502,3.313,2.26,5.432,2.272
	c2.119-0.013,3.922-0.764,5.411-2.252v-0.021c0.416-0.416,0.777-0.845,1.086-1.288l2.675-3.882l1.569,4.466
	c0.657,1.958,1.777,3.728,3.359,5.311c2.723,2.722,6.008,4.09,9.857,4.104c3.849,0,7.127-1.361,9.837-4.083l0.02-0.021
	c0.898-0.898,1.657-1.857,2.273-2.877l1.811-2.957l2.112,2.695c0.483,0.604,1.02,1.2,1.609,1.791
	c3.621,3.62,7.993,5.438,13.115,5.451c5.123,0,9.488-1.811,13.095-5.432v-0.02h0.021c3.621-3.607,5.431-7.973,5.431-13.096
	c0-1.126-0.087-2.212-0.262-3.259l-0.442-2.877l2.917,0.121c0.254,0,0.516,0.007,0.784,0.02c2.776,0,5.143-0.878,7.101-2.635
	c1.864-1.676,2.803-3.694,2.816-6.055c-0.014-2.36-0.953-4.379-2.816-6.054c-1.958-1.758-4.325-2.629-7.101-2.616
	c-1.14-0.013-2.206,0.135-3.198,0.443l-3.34,0.966l0.282-3.461c0.027-0.241,0.041-0.489,0.041-0.744
	c-0.014-2.118-0.771-3.929-2.273-5.432c-1.381-1.381-3.024-2.119-4.929-2.212l-2.414-0.181l0.14-2.294
	c0.51-14.604,6.008-27.149,16.495-37.637c11.05-11.05,24.38-16.562,39.99-16.535c15.61-0.027,28.939,5.485,39.99,16.535
	c4.519,4.52,8.112,9.428,10.781,14.725l1.107,2.153l-2.213,1.086c-1.476,0.684-2.836,1.644-4.085,2.876
	c-2.749,2.763-4.123,6.096-4.123,9.998c-0.013,3.138,0.872,5.9,2.656,8.288l3.138,4.364l-5.311-0.563
	c-0.281-0.028-0.563-0.041-0.845-0.041c-2.133-0.013-3.95,0.73-5.451,2.233c-1.503,1.501-2.247,3.319-2.233,5.451
	c-0.014,1.247,0.234,2.381,0.744,3.399l1.79,3.802l-4.204-0.382c-0.041,0-0.079,0-0.12,0c-2.293,0-4.245,0.804-5.854,2.414
	c-1.609,1.608-2.414,3.561-2.414,5.854s0.805,4.244,2.414,5.854c1.608,1.609,3.561,2.421,5.854,2.434
	c1.568,0,2.984-0.375,4.244-1.126l3.198-1.871l0.402,3.701c0.161,1.797,0.898,3.353,2.213,4.667c1.502,1.501,3.313,2.26,5.431,2.273
	c2.12-0.014,3.923-0.765,5.412-2.253v-0.021c0.415-0.416,0.778-0.845,1.086-1.287l2.675-3.883l1.569,4.466
	c0.657,1.958,1.777,3.729,3.359,5.311c2.723,2.723,6.008,4.091,9.857,4.104c3.849,0,7.127-1.36,9.836-4.084l0.021-0.02
	c0.898-0.897,1.656-1.857,2.272-2.876l1.811-2.958l2.112,2.695c0.482,0.604,1.019,1.201,1.609,1.791
	c3.621,3.621,7.992,5.438,13.115,5.451c5.122,0,9.487-1.811,13.095-5.431v-0.021h0.021c3.621-3.607,5.432-7.972,5.432-13.095
	c0-1.127-0.087-2.214-0.262-3.26l-0.442-2.876l2.917,0.121c0.254,0,0.517,0.007,0.784,0.02c2.775,0,5.143-0.878,7.101-2.635
	c1.865-1.677,2.803-3.695,2.816-6.055c-0.014-2.361-0.951-4.379-2.816-6.055c-1.181-1.061-2.507-1.798-3.982-2.214l-1.75-0.503
	v-1.79c0-0.603,0-1.207,0-1.81C278.277,144.78,266.135,115.479,241.875,91.219z M224.736,106.708
	c-19.54-19.539-43.135-29.309-70.787-29.309s-51.248,9.77-70.788,29.309c-14.711,14.698-23.883,31.836-27.518,51.415l-0.684,3.28
	l-2.897-1.671c-2.105-1.273-4.479-1.904-7.121-1.891c-1.918-0.014-3.695,0.315-5.331,0.986l-4.104,1.609l0.865-4.245
	c4.238-23.347,15.241-43.899,33.01-61.654c23.348-23.361,51.537-35.028,84.567-35.001c33.043-0.027,61.246,11.64,84.606,35.001
	c21.806,21.805,33.433,48.237,34.881,79.296l0.503,7.664l-4.768-6.095c-0.228-0.281-0.47-0.55-0.724-0.805
	c-1.488-1.488-3.293-2.233-5.411-2.233c-1.959-0.013-3.648,0.624-5.07,1.912l-3.681,3.157l-0.302-4.827
	C252.871,147.047,243.122,125.081,224.736,106.708z"/>
</svg>
