<?xml version="1.0" encoding="utf-8"?>
<!-- Generator: Adobe Illustrator 16.0.0, SVG Export Plug-In . SVG Version: 6.00 Build 0)  -->
<!DOCTYPE svg PUBLIC "-//W3C//DTD SVG 1.1//EN" "http://www.w3.org/Graphics/SVG/1.1/DTD/svg11.dtd">
<svg version="1.1" id="Layer_1" xmlns="http://www.w3.org/2000/svg" xmlns:xlink="http://www.w3.org/1999/xlink" x="0px" y="0px"
	 width="300px" height="300px" viewBox="0 0 300 300" enable-background="new 0 0 300 300" xml:space="preserve">
<path fill-rule="evenodd" clip-rule="evenodd" fill="#010101" d="M29.1,273.375c-0.767-0.799-1.15-1.732-1.15-2.799
	c0.067-49.668,10.534-92.051,31.4-127.151c21.434-36.166,47.384-54.149,77.85-53.95c30.467-0.2,56.399,17.784,77.8,53.95
	c20.867,35.1,31.334,77.483,31.4,127.151c0,1.066-0.383,2-1.15,2.799c-0.766,0.768-1.699,1.15-2.799,1.15
	c-1.066,0-1.984-0.383-2.75-1.15c-0.801-0.766-1.201-1.699-1.201-2.799c-0.066-48.066-10.166-89.1-30.299-123.1
	c-19.668-33.2-43.334-49.9-71.001-50.101c-27.667,0.2-51.35,16.9-71.05,50.101c-20.133,34-30.233,75.034-30.3,123.1
	c0,1.1-0.383,2.033-1.15,2.799c-0.8,0.768-1.733,1.15-2.8,1.15C30.8,274.525,29.867,274.143,29.1,273.375z M17.05,270.676
	c-0.033-2.033-0.05-4.084-0.05-6.15c0-58.566,12.267-108.516,36.8-149.85c25.1-42.333,55.467-63.4,91.1-63.2
	c35.6-0.2,65.934,20.867,91,63.2c24.334,40.967,36.617,90.916,36.85,149.85c0,0.533,0,1.084,0,1.65
	c-0.033,2.033-0.049,3.533-0.049,4.5c-0.033,1.066-0.434,1.982-1.201,2.75c-0.766,0.732-1.699,1.1-2.799,1.1
	c-1.102,0-2.018-0.4-2.75-1.199c-0.768-0.801-1.15-1.734-1.15-2.801c0.033-2,0.049-4,0.049-6c0-56.967-11.916-105.566-35.75-145.799
	C205.768,79.359,177.7,59.576,144.9,59.375c-32.833,0.2-60.934,19.983-84.3,59.351c-23.8,40.233-35.7,88.833-35.7,145.799
	c0,2,0.017,4,0.05,6c0,1.066-0.367,2-1.1,2.801c-0.767,0.799-1.7,1.199-2.8,1.199s-2.033-0.367-2.8-1.1
	C17.484,272.658,17.083,271.742,17.05,270.676z M14.95,265.176c-0.033,0.367-0.033,0.75,0,1.15c0,2.166,0,3.566,0,4.199
	c0,1.1-0.367,2.033-1.1,2.801c-0.767,0.799-1.7,1.199-2.8,1.199s-2.033-0.367-2.8-1.1c-0.767-0.768-1.167-1.699-1.2-2.801
	c-0.033-2.166-0.05-4.365-0.05-6.6c0-65.6,13.75-121.567,41.25-167.9c28.033-47.3,61.95-70.85,101.75-70.65
	c39.8-0.2,73.701,23.35,101.701,70.65c27.533,46.333,41.299,102.3,41.299,167.9c0,2.234-0.016,4.434-0.049,6.6
	c-0.033,1.102-0.434,2.033-1.201,2.801c-0.766,0.732-1.699,1.1-2.799,1.1c-1.102,0-2.018-0.4-2.75-1.199
	c-0.768-0.768-1.15-1.701-1.15-2.801c0.033-2.166,0.049-4.332,0.049-6.5c0-64-13.398-118.617-40.199-163.85
	c-26.266-44.333-57.9-66.6-94.9-66.8c-37,0.2-68.65,22.467-94.95,66.8C28.45,145.142,15.083,200.143,14.95,265.176z"/>
</svg>
