<?xml version="1.0" encoding="utf-8"?>
<!-- Generator: Adobe Illustrator 16.0.0, SVG Export Plug-In . SVG Version: 6.00 Build 0)  -->
<!DOCTYPE svg PUBLIC "-//W3C//DTD SVG 1.1//EN" "http://www.w3.org/Graphics/SVG/1.1/DTD/svg11.dtd">
<svg version="1.1" id="Layer_1" xmlns="http://www.w3.org/2000/svg" xmlns:xlink="http://www.w3.org/1999/xlink" x="0px" y="0px"
	 width="300px" height="300px" viewBox="0 0 300 300" enable-background="new 0 0 300 300" xml:space="preserve">
<path fill-rule="evenodd" clip-rule="evenodd" fill="#010101" d="M257.183,102.765c-0.751,1.299-1.606,2.563-2.563,3.794
	c-2.529,3.349-5.125,5.912-7.792,7.69l-0.103,0.102h-0.103l-0.409,0.204h-0.206c-0.205,5.948-0.546,10.802-1.024,14.561
	c-0.206,1.297-0.411,2.563-0.615,3.792l3.588,5.846c1.436-0.549,2.871-1.368,4.306-2.461c5.127-3.897,7.689-10.185,7.689-18.865
	C259.95,111.822,259.027,106.935,257.183,102.765z M174.443,55.09l-7.484,0.821c-0.752,1.503-1.607,2.939-2.563,4.306
	c-0.137,0.068-0.204,0.138-0.204,0.206c17.839,0.615,34.141,2.289,48.905,5.025c-5.947-4.922-13.534-8.134-22.762-9.638
	c-4.989-0.821-10.252-1.06-15.789-0.719H174.443z M52.436,114.043v-0.102c-2.597-1.708-5.092-4.169-7.484-7.381
	c-0.958-1.231-1.777-2.461-2.461-3.69c-1.913,4.101-2.87,8.953-2.87,14.558c0,8.681,2.529,14.968,7.586,18.865
	c1.504,1.093,2.974,1.912,4.41,2.461l2.563-4.102l1.127,0.717c-0.342-2.05-0.649-4.135-0.924-6.253
	c-0.546-3.759-0.922-8.613-1.126-14.561l-0.206-0.204C52.846,114.284,52.642,114.181,52.436,114.043z M109.236,55.809
	c-9.228,1.504-16.746,4.682-22.556,9.534c14.628-2.666,30.792-4.306,48.496-4.92c-0.069-0.068-0.137-0.138-0.205-0.206v-0.103
	c-1.025-1.298-1.879-2.7-2.563-4.203l-0.513-0.102C124.991,54.51,117.438,54.51,109.236,55.809z M71.813,32.638
	c10.048-8.819,20.335-13.192,30.861-13.124c7.177-0.068,14.286,1.778,21.326,5.537c2.803,1.435,5.16,2.905,7.075,4.407
	c0.956-2.666,2.255-5.09,3.896-7.279c4.033-5.469,8.92-8.168,14.661-8.1c5.742-0.068,10.665,2.631,14.764,8.1
	c1.708,2.257,3.077,4.784,4.102,7.588c1.845-1.572,4.237-3.144,7.177-4.716c6.903-3.759,13.979-5.605,21.222-5.537
	c10.528-0.068,20.78,4.305,30.76,13.124c9.637,8.407,18.283,20.505,25.939,36.293l4.716,1.846c4.921,2.255,9.536,4.886,13.841,7.894
	v0.104c13.533,9.911,20.266,21.906,20.197,35.987c0,15.172-6.629,25.425-19.889,30.758h-0.104
	c-6.288,2.461-12.063,3.589-17.326,3.382c6.289,6.016,13.534,8.578,21.736,7.689l2.255-0.204l-10.149,23.89l-1.129-0.206
	c-3.008-0.615-6.458-2.425-10.354-5.433v0.103c-6.835-5.266-12.304-12.748-16.404-22.454c-3.145,14.625-7.006,27.271-11.586,37.934
	c-15.858,36.843-42.446,68.215-79.766,94.121c-37.251-25.906-63.84-57.278-79.765-94.121c-4.512-10.524-8.306-23.034-11.381-37.524
	c-4.032,9.5-9.466,16.815-16.301,21.942l-0.103,0.103c-3.896,2.937-7.348,4.715-10.355,5.33l-1.128,0.206l-10.252-23.89l2.358,0.204
	c8.202,0.889,15.447-1.674,21.736-7.689c-5.263,0.207-11.004-0.921-17.225-3.382c-13.329-5.333-19.993-15.585-19.993-30.758
	c-0.068-14.082,6.699-26.076,20.301-35.987c4.169-3.075,8.749-5.743,13.737-7.998c1.777-0.821,3.35-1.47,4.717-1.948
	C53.633,53.04,62.245,40.977,71.813,32.638z"/>
</svg>
