<?xml version="1.0" encoding="utf-8"?>
<!-- Generator: Adobe Illustrator 16.0.0, SVG Export Plug-In . SVG Version: 6.00 Build 0)  -->
<!DOCTYPE svg PUBLIC "-//W3C//DTD SVG 1.1//EN" "http://www.w3.org/Graphics/SVG/1.1/DTD/svg11.dtd">
<svg version="1.1" id="Layer_1" xmlns="http://www.w3.org/2000/svg" xmlns:xlink="http://www.w3.org/1999/xlink" x="0px" y="0px"
	 width="300px" height="300px" viewBox="0 0 300 300" enable-background="new 0 0 300 300" xml:space="preserve">
<path fill-rule="evenodd" clip-rule="evenodd" fill="#010101" d="M257.543,249.06L148.318,59.803L38.894,249.06H257.543z
	 M227.654,175.482l0.199,0.496l1.786,3.078c0.134,0.263,0.299,0.563,0.496,0.894c0.266,0.464,0.497,0.96,0.697,1.49
	c15.225,26.08,30.351,52.195,45.376,78.344H20.227l128.091-221.53L227.654,175.482z M136.998,41.334
	c-1.92,1.986-3.343,4.005-4.27,6.057L20.227,241.017h0.198c-2.383,3.839-3.574,8.142-3.574,12.908c0,2.45,0.464,4.766,1.391,6.951
	c0.993,1.786,2.381,3.275,4.17,4.469c1.19,0.859,3.343,1.456,6.454,1.786c2.516,0.531,5.13,0.795,7.845,0.795h223.017l7.944-0.596
	c2.383-0.331,4.533-0.992,6.454-1.985c1.522-0.928,2.879-2.482,4.07-4.668c0.993-2.118,1.489-4.368,1.489-6.752v-0.595
	c0-4.37-1.19-8.541-3.573-12.513c-12.909-22.375-25.817-44.684-38.727-66.924L163.808,47.191c-0.993-1.787-2.383-3.739-4.172-5.857
	c-1.785-2.317-3.341-3.774-4.666-4.369c-1.324-0.927-3.54-1.391-6.651-1.391h-0.299c-2.78-0.264-4.932,0.198-6.454,1.391
	C140.241,37.692,138.719,39.148,136.998,41.334z M136.104,107.662c1.257-1.059,3.311-2.249,6.156-3.574
	c1.059-0.332,2.12-0.497,3.179-0.497c1.125,0,2.019,0.099,2.68,0.299h0.397v2.184h-0.197l-2.087,0.497
	c-2.052,0.463-3.508,0.96-4.367,1.489c-0.861,0.463-1.821,1.489-2.88,3.078l-0.199,0.696c-0.066,0.33,0.066,1.092,0.397,2.283
	l0.398,0.894h3.873l1.688,1.588v0.2c-0.264,1.455-1.29,2.548-3.078,3.275l-1.489,0.696l-0.694,1.489l-0.298,1.191
	c0,0.264,0.164,1.226,0.496,2.88c0,0.727,0.132,1.556,0.397,2.482l1.092,3.078c0.595,2.384,1.887,5.561,3.873,9.532
	c1.325,2.383,3.905,5.595,7.744,9.633c1.324,1.454,3.409,2.913,6.256,4.367c2.647,1.193,5.162,2.021,7.546,2.482
	c1.193,0.266,3.045,0.497,5.561,0.696c2.383,0.264,4.533,0.629,6.454,1.092c3.245,0.861,6.852,2.946,10.823,6.257
	c2.581,2.051,4.304,4.269,5.165,6.652l0.198,1.291c0,0.462-0.233,1.06-0.695,1.786l-1.688,1.985
	c-0.332,0.729-0.497,1.489-0.497,2.285c0,2.052,0.96,4.502,2.881,7.349c0.926,1.454,1.886,2.548,2.88,3.275l5.361,3.773
	c0.33,0.198,0.497,0.563,0.497,1.093v0.894c0.132,1.19,0.431,4.236,0.892,9.134c0.266,1.06,0.828,2.317,1.689,3.775
	c0.464,0.727,1.158,1.852,2.085,3.376c0.464,0.993,1.556,2.447,3.277,4.367c1.523,1.854,2.581,2.913,3.178,3.179
	c0.595,0.331,1.189,1.424,1.787,3.275l0.892,4.072v0.396c0,0.927-0.329,1.524-0.993,1.788l-0.892,0.198h-0.199l-3.972-2.78
	c-0.728-0.463-1.391-1.059-1.986-1.788l-10.427-14.496c-0.727-1.059-1.851-4.235-3.375-9.532c-0.463-1.059-0.761-1.654-0.893-1.788
	c-0.266-0.332-1.358-0.76-3.277-1.29c-1.986-0.463-3.641-1.094-4.966-1.887c-1.521-0.861-4.104-3.344-7.745-7.447l-4.666-5.858
	l-3.077-2.185c-2.384-1.656-3.808-2.78-4.271-3.375c-0.264-0.332-0.562-0.993-0.895-1.986c-0.328-0.332-0.793-0.497-1.388-0.497
	h-1.689c-3.177,0-8.904-0.86-17.177-2.581c-3.244-0.531-5.925-0.795-8.044-0.795c-4.899,0-8.54,0.595-10.923,1.788l-0.396,0.296
	l0.892,1.292l1.789,1.786c0.131,0.134,1.621,0.96,4.468,2.482c2.647,1.325,4.37,2.482,5.163,3.476l3.674,3.575
	c0.794,1.06,1.391,2.185,1.787,3.375l0.298,1.788c0,0.861-0.232,1.391-0.694,1.589l-0.199,0.2h-2.482l-0.398-0.2l-0.198-0.198
	l-2.979-4.668c-1.125-1.786-4.8-4.566-11.021-8.339c-4.501-3.045-9.499-6.059-14.993-9.038l-4.172-2.282
	c-1.059-0.134-1.588-0.762-1.588-1.887c0-1.522,1.026-2.45,3.078-2.781v0.199c0.595-0.397,1.126-0.595,1.588-0.595l8.64,0.595
	c5.163,0,8.506-0.199,10.029-0.595c0.927-0.464,1.522-1.059,1.788-1.788c0.198-0.596,0.497-2.581,0.892-5.958l0.2-5.56
	c0-2.516-0.2-5.362-0.595-8.539c-0.332-4.833-1.623-8.078-3.873-9.732c-1.127-0.729-2.647-1.324-4.567-1.788
	c-1.986-0.396-3.343-0.826-4.073-1.29c-0.926-0.595-1.388-1.489-1.388-2.682v-0.497c0-0.53-0.134-0.893-0.397-1.092
	c-0.397-0.332-0.596-0.629-0.596-0.895c0-0.396,0.198-0.595,0.596-0.595l2.979-0.496c1.588-0.132,4.236-1.257,7.944-3.377
	c1.325-0.595,2.383-1.323,3.177-2.184c0.266-0.332,1.059-1.457,2.383-3.376l1.49-3.475
	C135.575,108.888,135.906,108.06,136.104,107.662z M128.657,34.482c2.383-2.979,4.866-5.263,7.447-6.852
	c3.243-1.854,7.25-2.781,12.014-2.781h0.2c4.766,0,8.771,0.927,12.014,2.781c2.647,1.588,5.163,3.873,7.547,6.852
	c1.92,2.25,3.64,4.699,5.162,7.348l112.305,193.526c3.375,5.693,5.064,11.685,5.064,17.974v0.694c0,4.235-0.828,8.01-2.482,11.32
	c-2.053,3.972-4.866,7.082-8.44,9.334c-2.781,1.588-6.19,2.681-10.229,3.275c-2.979,0.463-6.155,0.696-9.532,0.696H36.907
	c-3.442,0-6.652-0.233-9.631-0.696c-4.567-0.993-7.976-2.084-10.228-3.275c-3.972-2.384-6.786-5.496-8.44-9.334
	c-1.72-3.311-2.582-7.115-2.582-11.42c0-6.487,1.688-12.677,5.064-18.568L123.394,42.029
	C124.85,39.381,126.605,36.866,128.657,34.482z"/>
</svg>
