<?xml version="1.0" encoding="utf-8"?>
<!-- Generator: Adobe Illustrator 16.0.0, SVG Export Plug-In . SVG Version: 6.00 Build 0)  -->
<!DOCTYPE svg PUBLIC "-//W3C//DTD SVG 1.1//EN" "http://www.w3.org/Graphics/SVG/1.1/DTD/svg11.dtd">
<svg version="1.1" id="Layer_1" xmlns="http://www.w3.org/2000/svg" xmlns:xlink="http://www.w3.org/1999/xlink" x="0px" y="0px"
	 width="300px" height="300px" viewBox="0 0 300 300" enable-background="new 0 0 300 300" xml:space="preserve">
<g>
	<path fill-rule="evenodd" clip-rule="evenodd" fill="#EED924" d="M241.006,160.174c0,1.853-0.655,3.436-1.97,4.748l-90.315,90.314
		c-1.312,1.314-2.895,1.971-4.747,1.971s-3.436-0.656-4.747-1.971l-90.315-90.314c-1.313-1.313-1.969-2.896-1.969-4.748
		c0-1.929,0.656-3.551,1.969-4.861l90.315-90.316c1.467-1.314,3.049-1.97,4.747-1.97s3.279,0.656,4.747,1.97l90.315,90.316
		C240.351,156.623,241.006,158.245,241.006,160.174z"/>
	<path fill-rule="evenodd" clip-rule="evenodd" d="M243.322,160.174c0-2.546-0.889-4.708-2.664-6.483l-90.316-90.316
		c-1.852-1.698-3.976-2.548-6.368-2.548s-4.517,0.85-6.368,2.548L47.29,153.69c-1.699,1.775-2.548,3.938-2.548,6.483
		c0,2.471,0.849,4.594,2.548,6.369l90.316,90.316c1.852,1.697,3.976,2.545,6.368,2.545s4.517-0.848,6.368-2.545l90.316-90.316
		C242.434,164.768,243.322,162.645,243.322,160.174z M253.974,158.668c0.077,0.464,0.115,0.966,0.115,1.506
		c0,0.464-0.038,0.967-0.115,1.507c-0.308,1.774-1.158,3.317-2.547,4.632l-101.2,101.197c-1.698,1.777-3.783,2.664-6.253,2.664
		c-2.393,0-4.478-0.887-6.253-2.664l-101.2-101.197c-1.698-1.699-2.547-3.746-2.547-6.139c0-2.469,0.849-4.555,2.547-6.252
		l101.2-101.201c1.775-1.696,3.86-2.546,6.253-2.546c2.47,0,4.555,0.851,6.253,2.546l101.2,101.201
		C252.815,155.235,253.666,156.816,253.974,158.668z"/>
	<path fill-rule="evenodd" clip-rule="evenodd" d="M133.668,130.185h5.674l1.622,6.253l3.01,0.81l4.168-4.631l4.979,2.895
		l-1.736,5.907l2.2,2.431l6.021-1.622l2.779,4.862l-4.286,4.401l0.813,3.01l6.02,1.621v5.675l-6.02,1.504l-0.813,3.243l4.286,4.4
		l-2.779,4.862l-5.79-1.737L151.5,176.5l1.853,6.022l-5.096,2.777l-4.168-4.515l-3.125,0.926l-1.622,6.138h-5.674l-1.389-6.138
		l-3.127-0.926l-4.284,4.515l-4.747-2.777l1.621-6.138l-2.316-2.316l-5.904,1.737l-2.663-4.862l4.283-4.4l-0.81-3.243l-6.021-1.504
		v-5.675l6.137-1.621l0.694-3.01l-4.283-4.401l2.778-4.862l6.021,1.622l2.2-2.201l-1.737-6.138l4.747-2.895l4.517,4.631l2.895-0.81
		L133.668,130.185z M195.036,153.111l-3.01,5.441l1.621,3.822l5.79,1.389v4.285l-6.022,1.619l-1.389,3.707l3.243,5.211l-3.243,3.24
		l-5.326-3.24l-3.589,1.736l-1.506,5.904h-4.283l-1.854-6.137l-3.356-1.62l-5.095,3.241l-3.128-3.241l2.895-5.443l-1.158-3.474
		l-6.02-1.621v-4.398l6.02-1.737l1.622-3.358l-3.241-5.441l3.241-3.012l5.443,3.012l3.356-1.275l1.275-6.135h4.283l1.736,6.135
		l3.589,1.391l5.096-3.127L195.036,153.111z M179.521,157.279c-2.239,0-4.168,0.851-5.79,2.547
		c-1.619,1.777-2.431,3.822-2.431,6.138c0,2.393,0.812,4.401,2.431,6.021c1.622,1.621,3.551,2.434,5.79,2.434
		c2.238,0,4.17-0.813,5.789-2.434c1.7-1.619,2.549-3.628,2.549-6.021c0-2.315-0.849-4.36-2.549-6.138
		C183.844,158.13,181.913,157.279,179.521,157.279z M153.121,159.017c0-4.632-1.621-8.607-4.864-11.927
		c-3.24-3.241-7.14-4.862-11.694-4.862c-4.477,0-8.374,1.622-11.694,4.862c-3.165,3.32-4.747,7.295-4.747,11.927
		s1.582,8.606,4.747,11.927c3.32,3.241,7.218,4.862,11.694,4.862c4.555,0,8.454-1.621,11.694-4.862
		C151.5,167.623,153.121,163.648,153.121,159.017z"/>
</g>
</svg>
