<?xml version="1.0" encoding="utf-8"?>
<!-- Generator: Adobe Illustrator 16.0.0, SVG Export Plug-In . SVG Version: 6.00 Build 0)  -->
<!DOCTYPE svg PUBLIC "-//W3C//DTD SVG 1.1//EN" "http://www.w3.org/Graphics/SVG/1.1/DTD/svg11.dtd">
<svg version="1.1" id="Layer_1" xmlns="http://www.w3.org/2000/svg" xmlns:xlink="http://www.w3.org/1999/xlink" x="0px" y="0px"
	 width="300px" height="300px" viewBox="0 0 300 300" enable-background="new 0 0 300 300" xml:space="preserve">
<g>
	<path fill-rule="evenodd" clip-rule="evenodd" d="M242.276,49.053H53.877c-9.035-0.073-13.551,4.885-13.551,14.874v182.009
		c0,9.916,4.517,14.837,13.551,14.765h188.399c9.109,0.072,13.662-4.849,13.662-14.765V63.927
		C255.938,53.938,251.386,48.979,242.276,49.053z M250.431,245.936c0,6.097-2.719,9.183-8.154,9.256H53.877
		c-5.362-0.073-8.042-3.159-8.042-9.256V63.927c0-6.172,2.68-9.292,8.042-9.365h188.399c5.436,0.073,8.154,3.193,8.154,9.365
		V245.936z M118.881,190.957l-14.543-11.127l5.179-17.737c0.073-0.222,0.073-0.405,0-0.552c-0.074-0.221-0.185-0.404-0.331-0.551
		c-0.22-0.148-0.44-0.221-0.661-0.221s-0.403,0.072-0.551,0.221L92.77,171.457L77.675,160.99c-0.221-0.148-0.44-0.221-0.661-0.221
		c-0.221,0-0.405,0.072-0.551,0.221c-0.22,0.146-0.367,0.33-0.441,0.551c-0.073,0.146-0.073,0.33,0,0.552l5.288,17.737
		l-14.653,11.127c-0.221,0.149-0.367,0.332-0.44,0.552c-0.074,0.222-0.074,0.404,0,0.551c0.073,0.222,0.22,0.404,0.44,0.551
		c0.147,0.148,0.33,0.222,0.551,0.222l18.509,0.551l6.06,17.297c0.074,0.219,0.221,0.404,0.441,0.551
		c0.146,0.146,0.33,0.22,0.551,0.22s0.441-0.073,0.66-0.22c0.147-0.146,0.258-0.332,0.332-0.551l6.169-17.297l18.399-0.551
		c0.221,0,0.403-0.073,0.551-0.222c0.221-0.146,0.367-0.329,0.44-0.551c0.074-0.146,0.074-0.329,0-0.551
		C119.248,191.289,119.102,191.106,118.881,190.957z M99.159,191.289c-0.294,0-0.515,0.073-0.66,0.22
		c-0.147,0.148-0.258,0.331-0.331,0.551l-5.398,15.205L87.37,192.06c-0.073-0.22-0.183-0.402-0.33-0.551
		c-0.146-0.146-0.331-0.22-0.551-0.22l-16.306-0.441l12.891-9.916c0.22-0.072,0.367-0.219,0.44-0.44c0.074-0.22,0.074-0.402,0-0.552
		l-4.626-15.533l13.331,9.145c0.146,0.146,0.33,0.221,0.551,0.221s0.441-0.074,0.66-0.221l13.222-9.145l-4.518,15.533
		c-0.072,0.149-0.072,0.332,0,0.552c0.073,0.222,0.185,0.368,0.331,0.44l12.891,9.916L99.159,191.289z M91.116,131.022
		c0.146,0.148,0.367,0.222,0.661,0.222l18.399,0.551l6.171,17.296c0.073,0.222,0.183,0.405,0.33,0.551
		c0.221,0.073,0.44,0.109,0.66,0.109c0.147,0,0.331-0.037,0.551-0.109c0.221-0.146,0.367-0.33,0.441-0.551l6.06-17.296l18.51-0.551
		c0.146,0,0.33-0.073,0.551-0.222c0.146-0.146,0.257-0.33,0.33-0.551c0.074-0.219,0.074-0.402,0-0.551
		c-0.073-0.219-0.184-0.402-0.33-0.551l-14.653-11.237l5.179-17.628c0.073-0.219,0.073-0.441,0-0.661
		c-0.074-0.222-0.185-0.368-0.332-0.441c-0.219-0.146-0.439-0.22-0.66-0.22s-0.404,0.073-0.551,0.22l-15.095,10.357l-15.204-10.357
		c-0.22-0.146-0.44-0.22-0.66-0.22c-0.221,0-0.404,0.073-0.551,0.22c-0.221,0.073-0.368,0.219-0.441,0.441
		c-0.073,0.22-0.073,0.441,0,0.661l5.288,17.628l-14.653,11.237c-0.146,0.148-0.257,0.332-0.33,0.551
		c-0.074,0.148-0.074,0.332,0,0.551C90.859,130.692,90.971,130.875,91.116,131.022z M107.533,119.344
		c0.22-0.146,0.367-0.293,0.44-0.441c0.074-0.219,0.074-0.439,0-0.661l-4.628-15.534l13.332,9.255
		c0.221,0.073,0.44,0.109,0.66,0.109c0.147,0,0.331-0.037,0.551-0.109l13.222-9.255l-4.517,15.534c-0.074,0.222-0.074,0.441,0,0.661
		c0.073,0.148,0.184,0.295,0.33,0.441l12.891,9.916l-16.196,0.441c-0.221,0-0.44,0.073-0.66,0.219
		c-0.147,0.073-0.257,0.222-0.331,0.441l-5.289,15.205l-5.509-15.205c-0.073-0.22-0.184-0.368-0.33-0.441
		c-0.146-0.146-0.33-0.219-0.551-0.219l-16.196-0.441L107.533,119.344z M227.734,189.637l-14.654-11.239l5.18-17.628
		c0.073-0.22,0.073-0.439,0-0.661c0-0.22-0.109-0.402-0.331-0.551c-0.146-0.073-0.329-0.11-0.551-0.11
		c-0.22,0-0.441,0.037-0.661,0.11l-15.093,10.467l-15.205-10.467c-0.22-0.073-0.441-0.11-0.661-0.11
		c-0.222,0-0.404,0.037-0.551,0.11c-0.222,0.148-0.368,0.331-0.441,0.551c0,0.222,0,0.441,0,0.661l5.29,17.628l-14.654,11.239
		c-0.146,0.146-0.259,0.293-0.332,0.441c-0.073-0.148-0.219-0.295-0.438-0.441l-14.545-11.239l5.18-17.628
		c0.073-0.22,0.073-0.439,0-0.661c-0.073-0.22-0.185-0.402-0.331-0.551c-0.22-0.073-0.404-0.11-0.551-0.11
		c-0.293,0-0.515,0.037-0.661,0.11l-15.205,10.467l-15.093-10.467c-0.221-0.073-0.441-0.11-0.662-0.11s-0.403,0.037-0.551,0.11
		c-0.221,0.148-0.367,0.331-0.44,0.551c-0.074,0.222-0.074,0.441,0,0.661l5.289,17.628l-14.653,11.239
		c-0.221,0.146-0.368,0.293-0.441,0.441c-0.073,0.219-0.073,0.438,0,0.66c0.073,0.219,0.221,0.402,0.441,0.551
		c0.146,0.146,0.33,0.22,0.551,0.22l18.509,0.551l6.06,17.299c0.073,0.22,0.221,0.402,0.44,0.551c0.147,0.073,0.331,0.11,0.551,0.11
		c0.221,0,0.441-0.037,0.662-0.11c0.146-0.148,0.257-0.331,0.33-0.551l6.169-17.299l18.401-0.551c0.219,0,0.404-0.073,0.551-0.22
		c0.22-0.148,0.365-0.332,0.438-0.551c0.073,0.219,0.186,0.402,0.332,0.551c0.146,0.146,0.365,0.22,0.66,0.22l18.4,0.551
		l6.17,17.299c0.073,0.22,0.183,0.402,0.329,0.551c0.222,0.073,0.441,0.11,0.663,0.11c0.219,0,0.404-0.037,0.551-0.11
		c0.219-0.148,0.365-0.331,0.438-0.551l6.06-17.299l18.511-0.551c0.146,0,0.331-0.073,0.551-0.22
		c0.146-0.148,0.258-0.332,0.331-0.551c0.073-0.222,0.073-0.441,0-0.66C227.992,189.93,227.881,189.783,227.734,189.637z
		 M154.909,189.966c-0.295,0-0.515,0.038-0.661,0.112c-0.146,0.146-0.258,0.328-0.331,0.551l-5.399,15.203l-5.397-15.203
		c-0.074-0.223-0.185-0.404-0.331-0.551c-0.147-0.074-0.331-0.112-0.551-0.112l-16.307-0.438l13.002-9.916
		c0.146-0.148,0.256-0.332,0.33-0.551c0.073-0.148,0.073-0.332,0-0.551l-4.628-15.537l13.331,9.256
		c0.147,0.072,0.331,0.109,0.551,0.109c0.221,0,0.441-0.037,0.662-0.109l13.22-9.256l-4.517,15.537
		c-0.073,0.219-0.073,0.402,0,0.551c0.075,0.219,0.183,0.402,0.331,0.551l12.89,9.916L154.909,189.966z M207.903,189.966
		c-0.22,0-0.441,0.038-0.661,0.112c-0.148,0.146-0.256,0.328-0.331,0.551l-5.287,15.203l-5.399-15.203
		c-0.075-0.223-0.183-0.404-0.331-0.551c-0.22-0.074-0.441-0.112-0.661-0.112l-16.194-0.438l12.779-9.916
		c0.22-0.148,0.368-0.332,0.441-0.551c0.073-0.148,0.073-0.332,0-0.551l-4.629-15.537l13.331,9.256
		c0.222,0.072,0.441,0.109,0.663,0.109c0.219,0,0.404-0.037,0.551-0.109l13.33-9.256l-4.628,15.537
		c-0.073,0.219-0.073,0.402,0,0.551c0.073,0.219,0.185,0.402,0.331,0.551l12.89,9.916L207.903,189.966z M146.865,129.701
		c0.147,0.146,0.331,0.219,0.551,0.219l18.511,0.441l6.169,17.408c0.073,0.22,0.22,0.403,0.441,0.551
		c0.146,0.073,0.329,0.109,0.551,0.109c0.22,0,0.402-0.037,0.551-0.109c0.22-0.148,0.368-0.332,0.441-0.551l6.06-17.408
		l18.508-0.441c0.222,0,0.404-0.073,0.551-0.219c0.148-0.146,0.256-0.332,0.332-0.551c0.073-0.219,0.073-0.441,0-0.66
		c-0.076-0.222-0.184-0.368-0.332-0.441l-14.651-11.237l5.177-17.628c0.073-0.294,0.073-0.514,0-0.663
		c-0.073-0.22-0.185-0.402-0.331-0.551c-0.22-0.146-0.439-0.22-0.661-0.22c-0.219,0-0.402,0.073-0.551,0.22l-15.093,10.466
		l-15.205-10.466c-0.22-0.146-0.441-0.22-0.661-0.22c-0.219,0-0.404,0.073-0.551,0.22c-0.219,0.148-0.365,0.331-0.44,0.551
		c0,0.148,0,0.368,0,0.663l5.289,17.628l-14.654,11.237c-0.22,0.073-0.367,0.22-0.44,0.441c-0.074,0.219-0.074,0.441,0,0.66
		C146.498,129.369,146.646,129.554,146.865,129.701z M163.392,118.022c0.148-0.148,0.256-0.332,0.331-0.551
		c0.073-0.222,0.073-0.405,0-0.551l-4.629-15.534l13.443,9.253c0.146,0.073,0.329,0.112,0.551,0.112c0.22,0,0.402-0.039,0.551-0.112
		l13.221-9.253l-4.517,15.534c-0.073,0.146-0.073,0.33,0,0.551c0.073,0.219,0.183,0.402,0.329,0.551l12.893,9.916l-16.197,0.33
		c-0.22,0-0.441,0.073-0.661,0.222c-0.146,0.146-0.258,0.329-0.331,0.551l-5.287,15.203l-5.509-15.203
		c-0.075-0.222-0.183-0.405-0.331-0.551c-0.146-0.149-0.33-0.222-0.552-0.222l-16.305-0.33L163.392,118.022z"/>
</g>
</svg>
