<?xml version="1.0" encoding="utf-8"?>
<!-- Generator: Adobe Illustrator 16.0.0, SVG Export Plug-In . SVG Version: 6.00 Build 0)  -->
<!DOCTYPE svg PUBLIC "-//W3C//DTD SVG 1.1//EN" "http://www.w3.org/Graphics/SVG/1.1/DTD/svg11.dtd">
<svg version="1.1" id="Layer_1" xmlns="http://www.w3.org/2000/svg" xmlns:xlink="http://www.w3.org/1999/xlink" x="0px" y="0px"
	 width="300px" height="300px" viewBox="0 0 300 300" enable-background="new 0 0 300 300" xml:space="preserve">
<g>
	<path fill-rule="evenodd" clip-rule="evenodd" d="M266.102,31.299c-5.966-5.966-13.129-8.949-21.49-8.949H50.188
		c-8.361,0-15.524,2.983-21.491,8.949c-5.965,5.965-8.948,13.128-8.948,21.489v194.424c0,8.361,2.983,15.524,8.948,21.489
		c5.966,5.966,13.129,8.949,21.491,8.949h194.423c8.361,0,15.524-2.983,21.49-8.949c5.965-5.965,8.948-13.128,8.948-21.489V52.788
		C275.05,44.427,272.066,37.264,266.102,31.299z M269.897,247.212c0,7.006-2.463,12.971-7.39,17.897
		c-4.925,4.925-10.892,7.388-17.896,7.388H50.188c-7.006,0-12.972-2.463-17.897-7.388c-4.926-4.927-7.39-10.892-7.39-17.897V52.788
		c0-6.869,2.464-12.835,7.39-17.897c5.062-4.926,11.026-7.388,17.897-7.388h194.423c7.005,0,12.972,2.462,17.896,7.388
		c4.927,5.062,7.39,11.028,7.39,17.897V247.212z M249.289,112.58c1.221,1.219,1.831,2.711,1.831,4.474
		c0,1.672-0.521,3.095-1.56,4.27l-30.912,30.914v102.363c0,1.942-0.678,3.502-2.034,4.677c-1.176,1.355-2.734,2.033-4.678,2.033
		c-1.808,0-3.39-0.678-4.745-2.033c-1.311-1.175-1.967-2.734-1.967-4.677v-55.521h-5.423v55.521c0,1.942-0.655,3.502-1.966,4.677
		c-1.22,1.355-2.802,2.033-4.746,2.033c-1.807,0-3.298-0.678-4.474-2.033c-1.355-1.175-2.033-2.734-2.033-4.677V152.238
		l-30.913-30.914c-1.176-1.175-1.762-2.598-1.762-4.27c0.135-1.763,0.813-3.255,2.033-4.474c1.175-1.176,2.575-1.695,4.203-1.56
		c1.807,0,3.231,0.588,4.271,1.762l29.556,29.625h17.287l29.354-29.625c1.175-1.174,2.667-1.762,4.475-1.762
		C246.714,110.885,248.114,111.404,249.289,112.58z M194.243,136.307c-2.395-2.35-3.593-5.175-3.593-8.474
		c0-3.299,1.198-6.056,3.593-8.271c2.214-2.395,4.972-3.592,8.271-3.592s6.056,1.197,8.271,3.592
		c2.395,2.215,3.592,4.972,3.592,8.271c0,3.298-1.197,6.124-3.592,8.474c-2.216,2.259-4.973,3.39-8.271,3.39
		S196.457,138.565,194.243,136.307z M105.777,85.26c-3.3-3.299-4.949-7.253-4.949-11.863s1.649-8.496,4.949-11.66
		c3.118-3.299,6.981-4.949,11.591-4.949c4.655,0,8.609,1.65,11.864,4.949c3.299,3.164,4.949,7.049,4.949,11.66
		c0,4.791-1.65,8.745-4.949,11.863c-3.118,3.3-7.073,4.949-11.864,4.949C112.758,90.209,108.895,88.56,105.777,85.26z
		 M183.668,64.177l-43.454,43.454V251.89c0,2.53-0.881,4.769-2.644,6.711c-1.943,1.809-4.181,2.711-6.711,2.711
		c-2.577,0-4.837-0.902-6.779-2.711c-1.763-1.942-2.645-4.181-2.645-6.711v-78.163h-7.591v78.163c0,2.53-0.905,4.769-2.712,6.711
		c-1.944,1.809-4.181,2.711-6.711,2.711c-2.532,0-4.768-0.902-6.711-2.711c-1.808-1.942-2.712-4.181-2.712-6.711V107.631
		L51.544,64.177c-1.627-1.762-2.44-3.841-2.44-6.237c0.135-2.259,1.017-4.203,2.643-5.83c1.809-1.627,3.91-2.44,6.305-2.44
		c2.214,0.135,4.157,1.017,5.83,2.644l41.624,41.691h24.405l41.217-41.691c1.671-1.627,3.705-2.509,6.102-2.644
		c2.349,0,4.361,0.813,6.032,2.44c1.764,1.492,2.644,3.435,2.644,5.83C186.086,60.336,185.339,62.415,183.668,64.177z"/>
</g>
</svg>
