<?xml version="1.0" encoding="utf-8"?>
<!-- Generator: Adobe Illustrator 16.0.0, SVG Export Plug-In . SVG Version: 6.00 Build 0)  -->
<!DOCTYPE svg PUBLIC "-//W3C//DTD SVG 1.1//EN" "http://www.w3.org/Graphics/SVG/1.1/DTD/svg11.dtd">
<svg version="1.1" id="Layer_1" xmlns="http://www.w3.org/2000/svg" xmlns:xlink="http://www.w3.org/1999/xlink" x="0px" y="0px"
	 width="300px" height="300px" viewBox="0 0 300 300" enable-background="new 0 0 300 300" xml:space="preserve">
<g>
	<path fill-rule="evenodd" clip-rule="evenodd" d="M268.288,33.545c-5.817-5.861-12.929-8.792-21.333-8.792H55.54
		c-8.231,0-15.342,2.93-21.333,8.792c-5.861,5.947-8.792,13.058-8.792,21.333v191.35c0,8.404,2.931,15.537,8.792,21.396
		c5.991,5.818,13.102,8.729,21.333,8.729h191.416c8.404,0,15.516-2.91,21.333-8.729c5.818-5.859,8.728-12.992,8.728-21.396V54.878
		C277.016,46.603,274.106,39.492,268.288,33.545z M271.908,246.229c0,6.852-2.414,12.779-7.241,17.777
		c-4.998,4.826-10.902,7.24-17.712,7.24H55.54c-6.809,0-12.649-2.414-17.519-7.24c-4.956-4.998-7.435-10.926-7.435-17.777V54.878
		c0-6.982,2.479-12.886,7.435-17.713c4.87-4.87,10.709-7.304,17.519-7.304h191.416c6.81,0,12.714,2.435,17.712,7.304
		c4.827,4.827,7.241,10.731,7.241,17.713V246.229z M158.068,86.037c-2.845-2.843-4.268-6.249-4.268-10.213
		c0-4.009,1.423-7.499,4.268-10.474c2.974-2.843,6.464-4.266,10.472-4.266s7.435,1.423,10.279,4.266
		c2.845,2.845,4.266,6.336,4.266,10.474c0,3.964-1.421,7.37-4.266,10.213c-2.845,2.845-6.271,4.268-10.279,4.268
		S161.042,88.881,158.068,86.037z M169.187,125.793c-2.586,0-4.654-1.206-6.206-3.62l-9.373-14.933l-19.652,19.394l18.165,9.632
		c3.104,1.552,5.086,3.684,5.948,6.4c0.431,1.422,0.58,2.629,0.452,3.62v41.242c0,2.285-0.862,4.268-2.586,5.949
		c-1.552,1.594-3.534,2.391-5.947,2.391c-2.285,0-4.225-0.861-5.818-2.586c-1.682-1.551-2.521-3.469-2.521-5.754v-32.902
		l-31.417-17.521c-4.268-2.413-6.4-5.968-6.4-10.667c0-3.145,1.055-5.925,3.167-8.338l31.03-30.965
		c2.412-2.845,5.386-4.052,8.92-3.62c4.439,0,7.801,1.918,10.085,5.752l15.968,25.212l24.371-0.193c4.396,0,6.595,1.918,6.595,5.754
		c0,3.834-2.198,5.752-6.595,5.752H169.187z M208.038,142.473c-10.946,0-20.342,3.836-28.185,11.508
		c-7.844,7.843-11.766,17.238-11.766,28.186c0,10.988,3.922,20.385,11.766,28.184c7.843,7.844,17.238,11.766,28.185,11.766
		c10.99,0,20.385-3.922,28.186-11.766c7.714-7.799,11.571-17.195,11.571-28.184c0-10.947-3.857-20.343-11.571-28.186
		C228.423,146.309,219.028,142.473,208.038,142.473z M228.337,202.658c-5.559,5.73-12.325,8.598-20.299,8.598
		s-14.804-2.867-20.492-8.598c-5.689-5.689-8.534-12.521-8.534-20.492c0-7.975,2.845-14.805,8.534-20.494
		c5.688-5.559,12.519-8.338,20.492-8.338s14.74,2.779,20.299,8.338c5.689,5.689,8.533,12.52,8.533,20.494
		C236.87,190.137,234.026,196.969,228.337,202.658z M93.552,142.473c-10.947,0-20.342,3.836-28.186,11.508
		c-7.671,7.843-11.507,17.238-11.507,28.186c0,10.988,3.836,20.385,11.507,28.184c7.843,7.844,17.238,11.766,28.186,11.766
		c10.989,0,20.385-3.922,28.185-11.766c7.844-7.799,11.766-17.195,11.766-28.184c0-10.947-3.922-20.343-11.766-28.186
		C113.937,146.309,104.541,142.473,93.552,142.473z M114.043,202.658c-5.688,5.73-12.519,8.598-20.492,8.598
		c-7.974,0-14.804-2.867-20.492-8.598c-5.561-5.689-8.34-12.521-8.34-20.492c0-7.975,2.779-14.805,8.34-20.494
		c5.688-5.559,12.519-8.338,20.492-8.338c7.973,0,14.804,2.779,20.492,8.338c5.732,5.689,8.599,12.52,8.599,20.494
		C122.642,190.137,119.776,196.969,114.043,202.658z"/>
</g>
</svg>
