<?xml version="1.0" encoding="utf-8"?>
<!-- Generator: Adobe Illustrator 16.0.0, SVG Export Plug-In . SVG Version: 6.00 Build 0)  -->
<!DOCTYPE svg PUBLIC "-//W3C//DTD SVG 1.1//EN" "http://www.w3.org/Graphics/SVG/1.1/DTD/svg11.dtd">
<svg version="1.1" id="Layer_1" xmlns="http://www.w3.org/2000/svg" xmlns:xlink="http://www.w3.org/1999/xlink" x="0px" y="0px"
	 width="300px" height="300px" viewBox="0 0 300 300" enable-background="new 0 0 300 300" xml:space="preserve">
<g>
	<path fill-rule="evenodd" clip-rule="evenodd" d="M265.93,38.67c-5.483-5.646-12.187-8.47-20.108-8.47H63.379
		c-7.881,0-14.584,2.823-20.109,8.47c-5.646,5.606-8.47,12.37-8.47,20.292V241.16c0,7.922,2.824,14.645,8.47,20.169
		c5.646,5.647,12.349,8.471,20.109,8.471h182.442c7.922,0,14.625-2.823,20.108-8.471c5.646-5.524,8.471-12.247,8.471-20.169V58.962
		C274.4,51.04,271.576,44.276,265.93,38.67z M269.586,241.16c0,6.581-2.356,12.167-7.068,16.757
		c-4.55,4.672-10.116,7.008-16.696,7.008H63.379c-6.541,0-12.106-2.336-16.697-7.008c-4.671-4.59-7.007-10.176-7.007-16.757V58.962
		c0-6.581,2.336-12.208,7.007-16.879c4.591-4.712,10.156-7.069,16.697-7.069h182.442c6.58,0,12.146,2.356,16.696,7.069
		c4.712,4.671,7.068,10.298,7.068,16.879V241.16z M240.153,225.072c3.495,1.626,7.395,2.438,11.701,2.438v17.489
		c-4.307,0-8.206-0.792-11.701-2.376c-3.452-1.747-7.474-2.621-12.064-2.621c-4.55,0-8.571,0.874-12.065,2.621
		c-3.616,1.584-7.516,2.376-11.699,2.376c-4.266,0-8.227-0.792-11.883-2.376c-3.494-1.747-7.455-2.621-11.882-2.621
		c-4.551,0-8.572,0.874-12.066,2.621c-3.615,1.584-7.495,2.376-11.639,2.376c-4.306,0-8.267-0.792-11.882-2.376
		c-3.494-1.747-7.536-2.621-12.127-2.621c-4.427,0-8.45,0.874-12.065,2.621c-3.33,1.584-7.23,2.376-11.699,2.376
		c-4.145,0-8.023-0.792-11.639-2.376c-3.494-1.747-7.516-2.621-12.066-2.621c-4.427,0-8.388,0.874-11.882,2.621
		c-3.656,1.584-7.617,2.376-11.882,2.376V227.51c4.265,0,8.226-0.812,11.882-2.438c3.494-1.747,7.455-2.619,11.882-2.619
		c4.55,0,8.572,0.872,12.066,2.619c3.616,1.626,7.494,2.438,11.639,2.438c4.469,0,8.369-0.812,11.699-2.438
		c3.616-1.747,7.638-2.619,12.065-2.619c4.591,0,8.633,0.872,12.127,2.619c3.615,1.626,7.576,2.438,11.882,2.438
		c4.144,0,8.023-0.812,11.639-2.438c3.494-1.747,7.516-2.619,12.066-2.619c4.427,0,8.388,0.872,11.882,2.619
		c3.656,1.626,7.617,2.438,11.883,2.438c4.184,0,8.083-0.812,11.699-2.438c3.494-1.747,7.516-2.619,12.065-2.619
		C232.68,222.453,236.701,223.325,240.153,225.072z M61.612,213.008h-0.426l-0.183-43.691l28.396,3.596l30.591,11.882l16.087,11.273
		l23.155,0.609l15.904,11.518c-3.616,0.649-6.703,1.584-9.263,2.803c-3.33,1.341-6.337,2.011-9.019,2.011
		c-3.087,0-6.176-0.67-9.263-2.011c-4.996-2.153-9.911-3.229-14.746-3.229c-4.956,0-9.79,1.076-14.503,3.229
		c-3.33,1.341-6.418,2.011-9.262,2.011c-2.926,0-5.932-0.67-9.019-2.011c-4.427-2.153-9.323-3.229-14.686-3.229
		c-4.834,0-9.75,1.076-14.746,3.229C67.543,212.338,64.537,213.008,61.612,213.008z M248.015,184.003l-42.046-19.927
		c3.088-0.69,4.631-2.498,4.631-5.424c0-1.625-0.549-2.966-1.645-4.021c-1.179-1.096-2.58-1.645-4.205-1.645
		c-1.463,0-2.803,0.549-4.021,1.645c-1.097,1.056-1.646,2.396-1.646,4.021c0,1.057,0.203,1.85,0.609,2.377l-42.472-20.109
		c-3.332-1.625-6.825-1.828-10.481-0.609c-3.494,1.219-6.114,3.494-7.86,6.825l116.022,54.964c1.461-3.454,1.522-6.927,0.182-10.42
		C253.743,188.188,251.387,185.627,248.015,184.003z M202.13,158.652c0-1.747,0.873-2.619,2.62-2.619
		c1.869,0,2.803,0.872,2.803,2.619c0,1.748-0.934,2.621-2.803,2.621C203.003,161.273,202.13,160.4,202.13,158.652z M137.477,151.219
		l114.987,54.721c-2.032,2.274-4.592,3.758-7.68,4.448c-3.087,0.65-6.031,0.305-8.835-1.036l-90.795-43.264
		c-2.803-1.342-4.895-3.412-6.275-6.217C137.416,157.191,136.949,154.307,137.477,151.219z M69.229,161.273
		c-0.244-2.031,0.305-3.84,1.646-5.424l14.868-18.524l-6.825-14.503l-0.609-0.609l-1.219-3.046l-0.365-1.585v-0.243l-0.244-2.377
		c0.285-4.306,2.377-7.739,6.277-10.298l28.152-17.306c2.437-1.34,4.996-1.95,7.677-1.828c2.682,0.284,5.018,1.299,7.008,3.046
		c0.691,0.285,1.301,0.813,1.828,1.584l30.59,33.819c1.097,1.219,1.645,2.641,1.645,4.266c-0.161,1.747-0.833,3.087-2.011,4.022
		c-1.219,1.056-2.64,1.584-4.266,1.584c-1.584-0.122-2.924-0.792-4.021-2.011l-22.119-24.74l-21.755,13.285l17.489,13.101
		c2.153,1.462,3.229,3.534,3.229,6.215l-0.609,32.236c-0.122,1.989-0.914,3.736-2.376,5.24c-1.502,1.341-3.25,2.011-5.241,2.011
		c-2.153,0-3.9-0.751-5.24-2.255c-1.462-1.462-2.193-3.188-2.193-5.18l0.609-28.64l-9.689-7.007l0.426,1.584l-0.426,2.803
		l-0.609,1.462l-0.609,0.975l-17.732,22.182c-1.178,1.584-2.783,2.518-4.814,2.803c-2.153,0.244-4.021-0.305-5.605-1.646
		C70.467,164.93,69.513,163.264,69.229,161.273z M121.208,76.694c-0.285-3.372,0.65-6.317,2.803-8.835
		c2.032-2.56,4.713-3.981,8.043-4.266c3.209-0.244,6.093,0.629,8.654,2.62c2.559,2.153,3.98,4.834,4.266,8.043
		c0.405,3.25-0.468,6.134-2.621,8.653c-2.031,2.721-4.732,4.204-8.104,4.448c-3.21,0.285-6.094-0.589-8.654-2.62
		C123.076,82.584,121.613,79.904,121.208,76.694z"/>
</g>
</svg>
