<?xml version="1.0" encoding="utf-8"?>
<!-- Generator: Adobe Illustrator 16.0.0, SVG Export Plug-In . SVG Version: 6.00 Build 0)  -->
<!DOCTYPE svg PUBLIC "-//W3C//DTD SVG 1.1//EN" "http://www.w3.org/Graphics/SVG/1.1/DTD/svg11.dtd">
<svg version="1.1" id="Layer_1" xmlns="http://www.w3.org/2000/svg" xmlns:xlink="http://www.w3.org/1999/xlink" x="0px" y="0px"
	 width="300px" height="300px" viewBox="0 0 300 300" enable-background="new 0 0 300 300" xml:space="preserve">
<g>
	<path fill-rule="evenodd" clip-rule="evenodd" fill="#FF0000" d="M148.352,25.042c0.875-0.389,1.8-0.389,2.771,0
		c0.877,0.389,1.604,0.973,2.188,1.751l127.081,219.583c0.486,0.777,0.684,1.704,0.584,2.772c-0.195,0.972-0.682,1.798-1.459,2.479
		c-0.779,0.681-1.701,1.022-2.773,1.022H23.168c-1.07,0-1.946-0.342-2.627-1.022c-0.875-0.682-1.361-1.508-1.459-2.479
		c-0.194-1.068-0.048-1.995,0.438-2.772L146.016,26.793C146.504,26.016,147.281,25.432,148.352,25.042z M30.463,244.188h238.986
		L149.664,37.299L30.463,244.188z"/>
	<polygon fill-rule="evenodd" clip-rule="evenodd" points="192.414,182.47 181.762,193.561 177.096,208.297 172.863,205.814 
		171.258,191.372 146.309,178.532 141.349,220.404 133.761,216.176 133.761,216.027 128.801,169.193 115.961,162.044 
		115.524,161.753 114.065,161.023 113.335,160.295 112.313,159.565 110.563,157.815 109.833,156.792 109.104,154.896 
		109.104,154.313 108.812,153.584 109.833,151.395 110.125,151.101 110.854,150.665 111.729,150.665 112.751,150.371 
		114.939,150.371 119.464,151.686 133.761,160.003 177.531,141.327 184.975,145.413 150.541,170.652 174.906,185.682 
		187.744,179.99 	"/>
	<path fill-rule="evenodd" clip-rule="evenodd" fill="#FFFFFF" d="M192.414,182.47l-4.67-2.479l-12.838,5.691l-24.365-15.029
		l34.434-25.239l-7.443-4.086l-43.77,18.676l-14.297-8.317l-4.524-1.314h-2.188l-1.022,0.294h-0.875l-0.729,0.436l-0.292,0.294
		l-1.021,2.189l0.292,0.729v0.583l0.729,1.896l0.729,1.023l1.751,1.75l1.021,0.729l0.73,0.729l1.459,0.729l0.437,0.291l12.84,7.149
		l4.96,46.834v0.148l7.587,4.229l4.96-41.872l24.949,12.84l1.605,14.442l4.232,2.482l4.666-14.736L192.414,182.47z M38.778,239.372
		L149.519,47.22l111.176,192.152H38.778z"/>
</g>
</svg>
