<?xml version="1.0" encoding="utf-8"?>
<!-- Generator: Adobe Illustrator 16.0.0, SVG Export Plug-In . SVG Version: 6.00 Build 0)  -->
<!DOCTYPE svg PUBLIC "-//W3C//DTD SVG 1.1//EN" "http://www.w3.org/Graphics/SVG/1.1/DTD/svg11.dtd">
<svg version="1.1" id="Layer_1" xmlns="http://www.w3.org/2000/svg" xmlns:xlink="http://www.w3.org/1999/xlink" x="0px" y="0px"
	 width="300px" height="300px" viewBox="0 0 300 300" enable-background="new 0 0 300 300" xml:space="preserve">
<g>
	<path fill-rule="evenodd" clip-rule="evenodd" fill="#2B2B2A" d="M33.982,149.931c0,2.976,1.036,5.456,3.109,7.437l105.471,105.471
		c1.894,2.076,4.372,3.111,7.437,3.111c2.886,0,5.364-1.035,7.437-3.111l105.471-105.471c2.073-1.98,3.111-4.461,3.111-7.437
		c0-2.884-1.038-5.363-3.111-7.436L157.437,37.024c-2.073-2.074-4.551-3.11-7.437-3.11c-3.065,0-5.543,1.036-7.437,3.11
		L37.092,142.495C35.019,144.567,33.982,147.047,33.982,149.931z M21.542,149.931c0-2.793,0.992-5.229,2.975-7.301L142.699,24.449
		c2.073-1.983,4.506-2.975,7.3-2.975c2.797,0,5.184,0.992,7.167,2.975L275.483,142.63c1.983,2.072,2.974,4.508,2.974,7.301
		c0,2.885-0.99,5.318-2.974,7.302L157.167,275.414c-1.983,2.073-4.37,3.111-7.167,3.111c-2.794,0-5.228-1.038-7.3-3.111
		L24.517,157.232C22.534,155.249,21.542,152.815,21.542,149.931z M89.558,97.331h74.236c-4.237,8.113-8.161,15.326-11.767,21.635
		c6.762,3.425,12.757,7.527,17.985,12.306c13.25,12.078,21.501,28.351,24.744,48.813c1.083,6.851,1.624,13.431,1.624,19.741
		c0,6.761-0.676,13.207-2.028,19.337H165.28c0.361-5.591,0.361-17.714,0-36.374c-0.182-11.629-5.14-22.084-14.874-31.371
		l-14.604-10.412l-10.277,19.741L89.558,97.331z"/>
	<path fill-rule="evenodd" clip-rule="evenodd" fill="#EED924" d="M36.687,149.931c0-2.163,0.768-4.011,2.299-5.544l105.47-105.47
		c1.532-1.532,3.38-2.298,5.543-2.298c2.163,0,4.012,0.766,5.543,2.298l105.471,105.47c1.531,1.533,2.301,3.381,2.301,5.544
		c0,2.255-0.77,4.104-2.301,5.546L155.543,260.947c-1.531,1.531-3.381,2.298-5.543,2.298c-2.163,0-4.011-0.767-5.543-2.298
		L38.986,155.477C37.454,154.034,36.687,152.186,36.687,149.931z M89.558,97.331l35.968,63.417l10.277-19.741l14.604,10.412
		c9.734,9.287,14.692,19.742,14.874,31.371c0.361,18.66,0.361,30.783,0,36.374h29.072c1.353-6.13,2.028-12.576,2.028-19.337
		c0-6.311-0.541-12.891-1.624-19.741c-3.243-20.463-11.494-36.735-24.744-48.813c-5.229-4.779-11.224-8.881-17.985-12.306
		c3.605-6.31,7.529-13.522,11.767-21.635H89.558z"/>
</g>
</svg>
