<?xml version="1.0" encoding="utf-8"?>
<!-- Generator: Adobe Illustrator 16.0.0, SVG Export Plug-In . SVG Version: 6.00 Build 0)  -->
<!DOCTYPE svg PUBLIC "-//W3C//DTD SVG 1.1//EN" "http://www.w3.org/Graphics/SVG/1.1/DTD/svg11.dtd">
<svg version="1.1" id="Layer_1" xmlns="http://www.w3.org/2000/svg" xmlns:xlink="http://www.w3.org/1999/xlink" x="0px" y="0px"
	 width="300px" height="300px" viewBox="0 0 300 300" enable-background="new 0 0 300 300" xml:space="preserve">
<g>
	<path fill-rule="evenodd" clip-rule="evenodd" d="M173.028,121.358c3.893,3.438,6.47,6.922,7.736,10.451
		c1.087,3.438,1.403,9.231,0.949,17.376c-0.36,4.613-0.405,8.055-0.135,10.316c0.183,2.172,0.679,3.847,1.492,5.021
		c0.907,1.357,1.315,2.67,1.223,3.938c0,1.177-0.544,3.393-1.628,6.651c-1.357,4.072-2.535,6.604-3.529,7.602
		c-1.177,0.997-3.531,1.811-7.06,2.444c-3.349,0.541-5.157,1.764-5.43,3.664c-0.544,3.438-0.859,5.34-0.949,5.7
		c-0.363,1.357-1.178,2.265-2.444,2.715c-1.448,0.634-8.1,0.952-19.954,0.952c-11.765,0-18.417-0.318-19.954-0.952
		c-1.178-0.45-1.946-1.357-2.309-2.715c-0.09-0.36-0.406-2.262-0.95-5.7c-0.181-0.997-0.679-1.766-1.492-2.307
		c-0.906-0.634-2.218-1.087-3.938-1.357c-3.619-0.634-5.972-1.447-7.059-2.444c-1.086-0.997-2.262-3.529-3.529-7.602
		c-1.086-3.349-1.674-5.565-1.765-6.651c0-1.178,0.497-2.49,1.493-3.938c0.905-1.447,1.402-2.896,1.494-4.343
		c0-1.448-0.317-4.027-0.951-7.739c-1.719-9.139-0.769-17.193,2.851-24.161c3.62-6.877,9.321-11.493,17.104-13.848
		c4.614-1.357,10.588-2.081,17.917-2.171c7.421,0,13.484,0.679,18.19,2.036C164.927,115.655,169.137,118.01,173.028,121.358z
		 M178.458,142.939c0-5.791-1.132-10.497-3.394-14.115c-2.264-3.712-5.883-6.697-10.859-8.961c-3.078-1.448-5.883-2.396-8.418-2.85
		c-2.622-0.36-6.787-0.543-12.487-0.543c-9.864,0.09-17.376,1.313-22.534,3.667c-5.158,2.262-8.913,6.154-11.267,11.674
		c-1.72,3.982-2.353,9.547-1.9,16.697c0.453,7.328,1.629,10.995,3.529,10.995c0.543,0,1.041-0.453,1.493-1.357
		c0.453-0.904,0.724-2.036,0.815-3.394c0.271-2.715,0.903-4.118,1.899-4.208c0.995-0.09,1.629,1.22,1.901,3.935
		c0.271,1.901-0.317,3.938-1.765,6.108c-1.449,2.084-2.941,3.123-4.48,3.123c-1.72,0-2.985,0.859-3.801,2.58
		c-0.814,1.628-0.814,3.304,0,5.021c0.995,1.9,1.674,3.893,2.036,5.973c0.271,1.901,2.443,3.35,6.516,4.344
		c3.349,0.816,5.656,1.855,6.924,3.123c1.357,1.357,2.036,3.303,2.036,5.838c0,2.172,0.95,3.256,2.85,3.256
		c0.815,0,1.494-0.226,2.036-0.679c0.544-0.36,0.815-0.859,0.815-1.493c0-0.543,0.135-1.039,0.407-1.492
		c0.271-0.453,0.588-0.679,0.95-0.679c0.452,0,0.814,0.226,1.086,0.679c0.271,0.36,0.407,0.859,0.407,1.492
		c0,0.634,0.227,1.133,0.679,1.493c0.451,0.453,0.95,0.679,1.492,0.679c0.634,0,1.132-0.226,1.494-0.679
		c0.452-0.36,0.679-0.859,0.679-1.493c0-0.633,0.18-1.132,0.542-1.492c0.453-0.453,0.996-0.679,1.629-0.679
		c0.544,0,1.041,0.226,1.494,0.679c0.362,0.36,0.542,0.859,0.542,1.492c0,0.634,0.182,1.133,0.544,1.493
		c0.271,0.453,0.589,0.679,0.95,0.679c0.362,0,0.679-0.226,0.949-0.679c0.362-0.36,0.544-0.859,0.544-1.493
		c0-0.633,0.182-1.132,0.543-1.492c0.454-0.453,0.949-0.679,1.493-0.679c0.634,0,1.129,0.226,1.492,0.679
		c0.453,0.36,0.679,0.859,0.679,1.492c0,0.634,0.226,1.133,0.679,1.493c0.454,0.453,0.952,0.679,1.493,0.679
		c0.636,0,1.132-0.181,1.495-0.541c0.271-0.273,0.36-0.634,0.271-1.087c0-0.454,0.09-0.904,0.271-1.357
		c0.363-0.454,0.769-0.769,1.222-0.949c0.544-0.183,0.952-0.091,1.223,0.271c0.36,0.271,0.543,0.724,0.543,1.357
		c0,0.724,0.271,1.268,0.814,1.628c0.543,0.453,1.223,0.679,2.036,0.679c1.991,0,2.985-1.084,2.985-3.256
		c0-2.535,0.679-4.48,2.036-5.838c1.268-1.268,3.531-2.307,6.787-3.123c4.072-0.994,6.246-2.442,6.517-4.344
		c0.451-2.08,1.178-4.072,2.172-5.973c0.813-1.718,0.813-3.394,0-5.021c-0.904-1.721-2.217-2.58-3.938-2.58
		c-1.628,0-3.12-1.039-4.478-3.123c-1.357-2.171-1.946-4.297-1.766-6.379c0.363-2.805,1.042-4.162,2.036-4.072
		c0.903,0.181,1.492,1.719,1.766,4.616c0.09,1.267,0.315,2.396,0.679,3.394c0.363,0.904,0.724,1.357,1.084,1.357
		c1.087,0,1.946-1.583,2.58-4.751C178.141,151.582,178.458,147.646,178.458,142.939z M169.905,134.389
		c0-0.543,0.36-0.814,1.087-0.814c2.535,0,4.208,1.538,5.021,4.613c0.724,2.898,0.091,5.385-1.9,7.466
		c-1.628,1.63-2.851,2.126-3.664,1.495c-0.814-0.726-0.499-1.946,0.949-3.667c1.177-1.174,1.766-2.081,1.766-2.715
		c0-0.724-0.544-1.901-1.631-3.529C170.629,135.882,170.086,134.933,169.905,134.389z M258.004,157.466
		c2.081-2.081,3.121-4.571,3.121-7.466c0-2.988-1.04-5.52-3.121-7.601L152.123,36.517c-2.171-1.991-4.66-2.987-7.466-2.987
		s-5.294,0.996-7.466,2.987L31.311,142.398c-1.991,2.082-2.987,4.613-2.987,7.601c0,2.895,0.996,5.385,2.987,7.466l105.88,105.881
		c2.172,1.991,4.66,2.985,7.466,2.985s5.295-0.994,7.466-2.985L258.004,157.466z M270.627,157.192L151.988,275.834
		c-1.994,2.081-4.436,3.123-7.331,3.123c-2.806,0-5.249-1.042-7.33-3.123L18.686,157.192c-1.99-1.988-2.985-4.388-2.985-7.193
		c0-2.897,0.996-5.339,2.985-7.331L137.327,24.028c2.081-1.991,4.524-2.985,7.33-2.985c2.896,0,5.337,0.994,7.331,2.985
		l118.639,118.641c2.084,1.991,3.123,4.433,3.123,7.331C273.75,152.805,272.711,155.204,270.627,157.192z M134.068,151.492
		c-2.623-1.991-4.932-2.625-6.923-1.901c-2.081,0.814-2.669,2.625-1.764,5.43c0.634,1.99,1.719,3.123,3.257,3.394
		c1.449,0.272,3.123-0.36,5.022-1.901c1.63-1.357,2.443-2.262,2.443-2.715C136.196,153.348,135.518,152.58,134.068,151.492z
		 M140.448,179.455c0,0.363,0.272,0.589,0.815,0.679c0.633,0.091,1.312,0,2.036-0.271c1.628-0.363,2.532-0.724,2.715-1.087
		c0.181-0.36-0.045-1.267-0.679-2.715c-0.182-0.634-0.498-1.175-0.95-1.628c-0.362-0.453-0.724-0.679-1.086-0.679
		c-0.543,0-1.177,0.679-1.9,2.036C140.766,177.148,140.448,178.371,140.448,179.455z M138.956,172.803
		c0.904-1.718,1.81-3.165,2.715-4.342c0.904-1.268,1.538-1.901,1.899-1.901c0.996,0,2.444,2.171,4.346,6.517
		c1.898,4.343,2.625,7.148,2.171,8.415c-0.543,1.54-2.808,2.31-6.787,2.31c-3.802,0-6.019-0.816-6.651-2.445
		C136.104,179.729,136.875,176.875,138.956,172.803z M161.217,155.156c0.634-1.809,0.679-3.256,0.136-4.343
		c-0.722-0.997-1.946-1.447-3.664-1.357c-1.809,0.181-3.529,0.859-5.159,2.036c-1.357,1.088-2.036,1.855-2.036,2.307
		c0.09,0.453,0.951,1.357,2.579,2.715c0.904,0.727,1.856,1.313,2.851,1.766c1.087,0.361,1.9,0.453,2.444,0.271
		C159.635,158.01,160.584,156.877,161.217,155.156z M153.751,146.741l5.16-1.628c0.633-0.183,1.763,0.361,3.394,1.628
		c1.628,1.268,2.622,2.354,2.985,3.258c0.813,1.901,0.543,4.208-0.814,6.922s-2.985,4.298-4.886,4.752
		c-2.445,0.633-4.797,0.359-7.061-0.814c-2.352-1.178-3.8-2.85-4.343-5.024c-0.634-2.624-0.544-4.612,0.271-5.97
		C149.273,148.597,151.036,147.555,153.751,146.741z M130.812,146.063c2.895,0.454,5.022,1.222,6.38,2.307
		c1.266,0.997,1.854,2.715,1.765,5.159c-0.182,2.534-0.95,4.571-2.308,6.108c-1.448,1.629-3.394,2.49-5.837,2.58
		c-2.535,0-4.661-0.77-6.381-2.309c-1.719-1.539-2.579-3.891-2.579-7.059s0.815-5.204,2.444-6.108
		C125.653,145.927,127.824,145.702,130.812,146.063z M114.794,133.302c0.632-0.361,1.131-0.454,1.492-0.271
		c0.452,0.18,0.589,0.634,0.407,1.357c-0.181,0.634-0.589,1.313-1.221,2.036c-1.539,1.718-2.309,2.94-2.309,3.664
		s0.77,1.946,2.309,3.667c1.447,1.628,1.719,2.76,0.813,3.394c-0.905,0.541-2.126,0.045-3.665-1.495
		c-1.447-1.448-2.172-3.21-2.172-5.292c0-2.084,0.725-3.937,2.172-5.567C113.255,134.164,113.979,133.666,114.794,133.302z"/>
	<path fill-rule="evenodd" clip-rule="evenodd" fill="#EED924" d="M169.905,134.389c0.181,0.543,0.724,1.493,1.628,2.85
		c1.087,1.628,1.631,2.805,1.631,3.529c0,0.634-0.589,1.541-1.766,2.715c-1.448,1.721-1.764,2.94-0.949,3.667
		c0.813,0.631,2.036,0.135,3.664-1.495c1.991-2.081,2.624-4.568,1.9-7.466c-0.813-3.076-2.486-4.613-5.021-4.613
		C170.266,133.575,169.905,133.846,169.905,134.389z M178.458,142.939c0,4.706-0.317,8.643-0.951,11.812
		c-0.634,3.168-1.493,4.751-2.58,4.751c-0.36,0-0.721-0.453-1.084-1.357c-0.363-0.997-0.589-2.127-0.679-3.394
		c-0.273-2.897-0.862-4.436-1.766-4.616c-0.994-0.09-1.673,1.268-2.036,4.072c-0.181,2.082,0.408,4.208,1.766,6.379
		c1.357,2.084,2.85,3.123,4.478,3.123c1.721,0,3.033,0.859,3.938,2.58c0.813,1.628,0.813,3.304,0,5.021
		c-0.994,1.9-1.721,3.893-2.172,5.973c-0.271,1.901-2.444,3.35-6.517,4.344c-3.256,0.816-5.52,1.855-6.787,3.123
		c-1.357,1.357-2.036,3.303-2.036,5.838c0,2.172-0.994,3.256-2.985,3.256c-0.813,0-1.493-0.226-2.036-0.679
		c-0.544-0.36-0.814-0.904-0.814-1.628c0-0.634-0.183-1.087-0.543-1.357c-0.271-0.361-0.679-0.453-1.223-0.271
		c-0.453,0.181-0.858,0.495-1.222,0.949c-0.181,0.453-0.271,0.903-0.271,1.357c0.09,0.453,0,0.813-0.271,1.087
		c-0.363,0.36-0.859,0.541-1.495,0.541c-0.541,0-1.039-0.226-1.493-0.679c-0.453-0.36-0.679-0.859-0.679-1.493
		c0-0.633-0.226-1.132-0.679-1.492c-0.363-0.453-0.858-0.679-1.492-0.679c-0.544,0-1.039,0.226-1.493,0.679
		c-0.361,0.36-0.543,0.859-0.543,1.492c0,0.634-0.182,1.133-0.544,1.493c-0.271,0.453-0.587,0.679-0.949,0.679
		c-0.361,0-0.679-0.226-0.95-0.679c-0.362-0.36-0.544-0.859-0.544-1.493c0-0.633-0.18-1.132-0.542-1.492
		c-0.453-0.453-0.95-0.679-1.494-0.679c-0.633,0-1.176,0.226-1.629,0.679c-0.362,0.36-0.542,0.859-0.542,1.492
		c0,0.634-0.227,1.133-0.679,1.493c-0.362,0.453-0.86,0.679-1.494,0.679c-0.542,0-1.041-0.226-1.492-0.679
		c-0.452-0.36-0.679-0.859-0.679-1.493c0-0.633-0.136-1.132-0.407-1.492c-0.271-0.453-0.634-0.679-1.086-0.679
		c-0.362,0-0.679,0.226-0.95,0.679c-0.272,0.453-0.407,0.949-0.407,1.492c0,0.634-0.271,1.133-0.815,1.493
		c-0.542,0.453-1.221,0.679-2.036,0.679c-1.899,0-2.85-1.084-2.85-3.256c0-2.535-0.679-4.48-2.036-5.838
		c-1.268-1.268-3.575-2.307-6.924-3.123c-4.072-0.994-6.244-2.442-6.516-4.344c-0.362-2.08-1.041-4.072-2.036-5.973
		c-0.814-1.718-0.814-3.394,0-5.021c0.815-1.721,2.081-2.58,3.801-2.58c1.539,0,3.031-1.039,4.48-3.123
		c1.447-2.171,2.036-4.207,1.765-6.108c-0.272-2.715-0.906-4.024-1.901-3.935c-0.996,0.09-1.629,1.493-1.899,4.208
		c-0.092,1.357-0.362,2.489-0.815,3.394c-0.452,0.904-0.95,1.357-1.493,1.357c-1.9,0-3.076-3.667-3.529-10.995
		c-0.452-7.15,0.181-12.715,1.9-16.697c2.354-5.52,6.108-9.412,11.267-11.674c5.158-2.354,12.67-3.576,22.534-3.667
		c5.7,0,9.865,0.183,12.487,0.543c2.535,0.454,5.34,1.402,8.418,2.85c4.977,2.264,8.596,5.25,10.859,8.961
		C177.326,132.443,178.458,137.149,178.458,142.939z M173.028,121.358c-3.892-3.349-8.102-5.703-12.625-7.061
		c-4.706-1.357-10.77-2.036-18.19-2.036c-7.329,0.09-13.303,0.814-17.917,2.171c-7.783,2.354-13.484,6.97-17.104,13.848
		c-3.619,6.967-4.569,15.022-2.851,24.161c0.634,3.712,0.951,6.291,0.951,7.739c-0.092,1.447-0.589,2.896-1.494,4.343
		c-0.996,1.447-1.493,2.76-1.493,3.938c0.091,1.086,0.679,3.303,1.765,6.651c1.268,4.072,2.443,6.604,3.529,7.602
		c1.087,0.997,3.439,1.811,7.059,2.444c1.72,0.271,3.031,0.724,3.938,1.357c0.813,0.541,1.312,1.31,1.492,2.307
		c0.544,3.438,0.86,5.34,0.95,5.7c0.362,1.357,1.131,2.265,2.309,2.715c1.537,0.634,8.189,0.952,19.954,0.952
		c11.854,0,18.506-0.318,19.954-0.952c1.267-0.45,2.081-1.357,2.444-2.715c0.09-0.36,0.405-2.262,0.949-5.7
		c0.272-1.9,2.081-3.123,5.43-3.664c3.528-0.634,5.883-1.447,7.06-2.444c0.994-0.997,2.172-3.529,3.529-7.602
		c1.084-3.259,1.628-5.475,1.628-6.651c0.093-1.268-0.315-2.58-1.223-3.938c-0.813-1.175-1.31-2.85-1.492-5.021
		c-0.271-2.262-0.226-5.703,0.135-10.316c0.454-8.145,0.138-13.938-0.949-17.376C179.498,128.281,176.921,124.797,173.028,121.358z
		 M258.41,150c0,2.171-0.77,4.028-2.307,5.565L150.223,261.445c-1.538,1.538-3.394,2.307-5.565,2.307
		c-2.173,0-4.027-0.769-5.566-2.307L33.21,155.564c-1.538-1.537-2.308-3.394-2.308-5.565c0-2.261,0.771-4.162,2.308-5.703
		l105.88-105.879c1.72-1.539,3.575-2.308,5.566-2.308s3.848,0.769,5.565,2.308l105.881,105.879
		C257.641,145.837,258.41,147.738,258.41,150z M114.794,133.302c-0.815,0.363-1.539,0.861-2.173,1.493
		c-1.447,1.63-2.172,3.483-2.172,5.567c0,2.082,0.725,3.844,2.172,5.292c1.539,1.541,2.76,2.036,3.665,1.495
		c0.905-0.633,0.634-1.766-0.813-3.394c-1.539-1.721-2.309-2.943-2.309-3.667s0.77-1.946,2.309-3.664
		c0.632-0.724,1.04-1.402,1.221-2.036c0.182-0.724,0.045-1.177-0.407-1.357C115.925,132.849,115.426,132.941,114.794,133.302z
		 M130.812,146.063c-2.987-0.36-5.158-0.135-6.516,0.679c-1.629,0.904-2.444,2.94-2.444,6.108s0.86,5.52,2.579,7.059
		c1.72,1.539,3.846,2.309,6.381,2.309c2.443-0.09,4.389-0.951,5.837-2.58c1.357-1.537,2.126-3.574,2.308-6.108
		c0.09-2.444-0.499-4.162-1.765-5.159C135.834,147.285,133.706,146.516,130.812,146.063z M153.751,146.741
		c-2.715,0.814-4.478,1.856-5.294,3.124c-0.814,1.358-0.904,3.346-0.271,5.97c0.543,2.175,1.991,3.847,4.343,5.024
		c2.264,1.174,4.615,1.447,7.061,0.814c1.9-0.454,3.528-2.037,4.886-4.752s1.628-5.021,0.814-6.922
		c-0.363-0.904-1.357-1.991-2.985-3.258c-1.631-1.267-2.761-1.811-3.394-1.628L153.751,146.741z M161.217,155.156
		c-0.633,1.721-1.582,2.854-2.85,3.394c-0.544,0.183-1.357,0.091-2.444-0.271c-0.994-0.453-1.946-1.039-2.851-1.766
		c-1.628-1.357-2.489-2.262-2.579-2.715c0-0.451,0.679-1.219,2.036-2.307c1.63-1.177,3.351-1.855,5.159-2.036
		c1.718-0.09,2.942,0.361,3.664,1.357C161.896,151.9,161.851,153.348,161.217,155.156z M138.956,172.803
		c-2.081,4.072-2.852,6.926-2.308,8.553c0.633,1.629,2.85,2.445,6.651,2.445c3.979,0,6.244-0.77,6.787-2.31
		c0.454-1.267-0.272-4.072-2.171-8.415c-1.901-4.346-3.35-6.517-4.346-6.517c-0.361,0-0.995,0.634-1.899,1.901
		C140.766,169.638,139.86,171.085,138.956,172.803z M140.448,179.455c0-1.084,0.317-2.307,0.951-3.664
		c0.724-1.357,1.357-2.036,1.9-2.036c0.362,0,0.724,0.226,1.086,0.679c0.452,0.453,0.769,0.994,0.95,1.628
		c0.634,1.448,0.859,2.354,0.679,2.715c-0.183,0.363-1.087,0.724-2.715,1.087c-0.725,0.271-1.403,0.361-2.036,0.271
		C140.721,180.044,140.448,179.818,140.448,179.455z M134.068,151.492c1.449,1.088,2.128,1.855,2.036,2.307
		c0,0.453-0.813,1.357-2.443,2.715c-1.899,1.541-3.573,2.174-5.022,1.901c-1.538-0.271-2.623-1.403-3.257-3.394
		c-0.905-2.805-0.317-4.616,1.764-5.43C129.137,148.868,131.445,149.501,134.068,151.492z"/>
</g>
</svg>
