<?xml version="1.0" encoding="utf-8"?>
<!-- Generator: Adobe Illustrator 16.0.0, SVG Export Plug-In . SVG Version: 6.00 Build 0)  -->
<!DOCTYPE svg PUBLIC "-//W3C//DTD SVG 1.1//EN" "http://www.w3.org/Graphics/SVG/1.1/DTD/svg11.dtd">
<svg version="1.1" id="Layer_1" xmlns="http://www.w3.org/2000/svg" xmlns:xlink="http://www.w3.org/1999/xlink" x="0px" y="0px"
	 width="300px" height="300px" viewBox="0 0 300 300" enable-background="new 0 0 300 300" xml:space="preserve">
<g>
	<path fill-rule="evenodd" clip-rule="evenodd" d="M157.796,19.153l127.376,127.375c2.235,2.138,3.354,4.761,3.354,7.871
		c0,3.01-1.118,5.586-3.354,7.724L157.796,289.498c-2.135,2.234-4.759,3.351-7.869,3.351c-3.012,0-5.635-1.116-7.869-3.351
		L14.682,162.122c-2.138-2.138-3.207-4.714-3.207-7.724c0-3.109,1.069-5.733,3.207-7.871L142.058,19.153
		c2.234-2.138,4.857-3.207,7.869-3.207C153.037,15.946,155.661,17.015,157.796,19.153z M157.944,32.56
		c-2.334-2.138-5.004-3.205-8.018-3.205c-3.012,0-5.683,1.067-8.016,3.205L28.235,146.236c-2.138,2.235-3.207,4.956-3.207,8.163
		c0,3.107,1.069,5.782,3.207,8.014l113.676,113.677c2.333,2.141,5.004,3.208,8.016,3.208c3.014,0,5.684-1.067,8.018-3.208
		L271.62,162.412c2.231-2.231,3.351-4.906,3.351-8.014c0-3.207-1.119-5.928-3.351-8.163L157.944,32.56z M130.544,132.829h-26.378
		v29.438h8.598L130.544,132.829z M158.673,132.829h-20.55l-17.781,29.438h20.549L158.673,132.829z M185.635,132.829H166.25
		l-17.78,29.438h19.383L185.635,132.829z M195.543,209.342c0.777,0.486,1.167,1.119,1.167,1.893c0,1.07-0.828,1.751-2.479,2.041
		c-1.65,0.391-4.907,0.584-9.763,0.584c-4.76,0-8.016-0.193-9.764-0.584c-1.651-0.29-2.479-0.922-2.479-1.893
		c0-0.779,0.487-1.457,1.457-2.041c0.874-0.584,1.993-0.925,3.354-1.021l4.808-0.581l1.022-39.349h-63.252l1.021,39.349l4.81,0.581
		c1.36,0.097,2.478,0.438,3.352,1.021c0.972,0.584,1.457,1.262,1.457,2.041c0,1.845-3.983,2.768-11.95,2.768
		c-8.064,0-12.437-0.923-13.117-2.768c-0.776-1.65,0.438-2.673,3.644-3.063l4.811-0.581l0.874-39.349H98.773v-40.226h15.739v-4.956
		c0-0.582,0.193-1.117,0.584-1.603c0.485-0.389,1.019-0.583,1.603-0.583c0.583,0,1.068,0.195,1.457,0.583
		c0.485,0.485,0.729,1.021,0.729,1.603v4.956H183.3v-4.956c0-0.582,0.194-1.117,0.584-1.603c0.486-0.389,1.021-0.583,1.603-0.583
		c0.584,0,1.07,0.195,1.457,0.583c0.487,0.485,0.729,1.021,0.729,1.603v4.956h16.031v40.226h-15.738v40.223h4.372
		C193.695,208.613,194.766,208.855,195.543,209.342z M198.167,132.829h-4.811l-17.924,29.438h22.734V132.829z"/>
	<path fill-rule="evenodd" clip-rule="evenodd" fill="#EED924" d="M143.952,34.601c1.846-1.651,3.837-2.478,5.975-2.478
		s4.129,0.827,5.977,2.478l113.676,113.676c1.651,1.651,2.477,3.692,2.477,6.122c0,2.332-0.825,4.325-2.477,5.977L155.903,274.051
		c-1.654,1.65-3.644,2.477-5.977,2.477c-2.331,0-4.323-0.826-5.975-2.477L30.276,160.375c-1.652-1.651-2.478-3.645-2.478-5.977
		c0-2.43,0.825-4.471,2.478-6.122L143.952,34.601z M198.167,132.829v29.438h-22.734l17.924-29.438H198.167z M195.543,209.342
		c-0.777-0.486-1.848-0.729-3.205-0.729h-4.372v-40.223h15.738v-40.226h-16.031v-4.956c0-0.582-0.242-1.117-0.729-1.603
		c-0.387-0.389-0.873-0.583-1.457-0.583c-0.581,0-1.116,0.195-1.603,0.583c-0.39,0.485-0.584,1.021-0.584,1.603v4.956h-64.415
		v-4.956c0-0.582-0.243-1.117-0.729-1.603c-0.389-0.389-0.874-0.583-1.457-0.583c-0.584,0-1.117,0.195-1.603,0.583
		c-0.391,0.485-0.584,1.021-0.584,1.603v4.956H98.773v40.226h15.739l-0.874,39.349l-4.811,0.581c-3.205,0.39-4.42,1.412-3.644,3.063
		c0.681,1.845,5.053,2.768,13.117,2.768c7.967,0,11.95-0.923,11.95-2.768c0-0.779-0.485-1.457-1.457-2.041
		c-0.874-0.584-1.991-0.925-3.352-1.021l-4.81-0.581l-1.021-39.349h63.252l-1.022,39.349l-4.808,0.581
		c-1.36,0.097-2.479,0.438-3.354,1.021c-0.97,0.584-1.457,1.262-1.457,2.041c0,0.971,0.828,1.603,2.479,1.893
		c1.748,0.391,5.004,0.584,9.764,0.584c4.855,0,8.112-0.193,9.763-0.584c1.651-0.29,2.479-0.971,2.479-2.041
		C196.71,210.461,196.32,209.828,195.543,209.342z M185.635,132.829l-17.782,29.438H148.47l17.78-29.438H185.635z M158.673,132.829
		l-17.782,29.438h-20.549l17.781-29.438H158.673z M130.544,132.829l-17.78,29.438h-8.598v-29.438H130.544z"/>
</g>
</svg>
