<?xml version="1.0" encoding="utf-8"?>
<!-- Generator: Adobe Illustrator 16.0.0, SVG Export Plug-In . SVG Version: 6.00 Build 0)  -->
<!DOCTYPE svg PUBLIC "-//W3C//DTD SVG 1.1//EN" "http://www.w3.org/Graphics/SVG/1.1/DTD/svg11.dtd">
<svg version="1.1" id="Layer_1" xmlns="http://www.w3.org/2000/svg" xmlns:xlink="http://www.w3.org/1999/xlink" x="0px" y="0px"
	 width="300px" height="300px" viewBox="0 0 300 300" enable-background="new 0 0 300 300" xml:space="preserve">
<g>
	<path fill-rule="evenodd" clip-rule="evenodd" fill="#534858" d="M214.728,30.245c5.5,1.7,9.712,4.574,12.638,8.625
		c2.725,3.8,4.086,8.199,4.086,13.199c0,2.875-0.799,6.7-2.398,11.475c-1.125,3.399-2.45,5.987-3.976,7.762
		c1.775,3.8,3,7.387,3.675,10.762c0.6,3.15,0.9,7.749,0.9,13.799c0,6.125-0.863,12.724-2.588,19.798
		c5.1,3.175,9.05,7.588,11.85,13.237c2.475,4.949,4.087,10.924,4.837,17.923c0.4,3.575,0.6,8.837,0.6,15.787
		c0,0.25-0.375,6.399-1.124,18.449c-0.775,7.574-1.787,12.749-3.038,15.523c3.601,0.2,7.663,1.425,12.188,3.675
		c5.299,3.925,8.824,8.138,10.574,12.637c1.2,3.05,1.8,7.325,1.8,12.824c0,6.2-1.537,12.737-4.612,19.612
		c-2.774,6.273-6.537,12.224-11.287,17.849c-4.524,5.399-9.262,9.725-14.212,12.974c-5.074,3.351-9.536,5.025-13.386,5.025
		c-2.801,0-4.95-0.476-6.45-1.426c-1.1-1.049-1.8-1.675-2.1-1.875c-0.65-0.425-1.75-0.899-3.3-1.424
		c-1.7-0.55-3.55-1.025-5.55-1.426c-4.999-0.975-8.574-1.912-10.725-2.813c-2.05-0.875-3.262-1.874-3.637-2.999
		c-0.726,0.199-1.612,0.412-2.663,0.638c-3.399,0.699-8.174,1.375-14.324,2.024l-8.887,0.15
		c-4.925,10.699-11.812,16.049-20.661,16.049c-3.8,0-7.624-1.588-11.475-4.763c-1.85-1.524-3.649-3.412-5.399-5.662
		c-0.925-1.175-2.888-3.149-5.887-5.924c-2.8-2.575-4.687-4.551-5.662-5.925c-0.575-0.95-1.087-1.813-1.537-2.588
		c-0.85,0.175-2.563,0.263-5.138,0.263c-6,0-11.699-1.763-17.099-5.287c-1.625-1.075-3.237-2.325-4.837-3.75
		c-2.65,0.65-5.275,0.575-7.875-0.225c-9.649,0.45-17.312-5.7-22.986-18.449c-2.05-4.649-3.663-9.8-4.837-15.449
		c-0.95-4.649-1.425-8.574-1.425-11.774c0-18.124,3.163-31.498,9.487-40.122c7.125-9.625,12.887-16.362,17.286-20.211
		c8.4-7.35,18.549-12.399,30.448-15.149c-2.375-4.625-3.674-7.137-3.899-7.537c-1.4-2.4-2.388-4.512-2.962-6.337
		c-1.4-4.425-2.3-7.95-2.7-10.574c-0.7-4.825-1.162-8.525-1.387-11.1c-0.274-2.924-0.412-6.162-0.412-9.711
		c0-2.3,0.037-3.712,0.112-4.237c0.026-0.25,0.063-0.488,0.113-0.713c-4.425-1.999-7.562-6.199-9.412-12.599
		c-1.275-4.325-1.913-9.399-1.913-15.224c0-3.65,1.9-7.937,5.7-12.862c4.225-5.5,8.925-8.874,14.099-10.125
		c10.799-2.6,19.161-1.212,25.086,4.162c0.175,0.175,0.362,0.35,0.563,0.525c1.625-1.15,4.5-2.475,8.625-3.975
		c2.774-1.025,5.462-1.863,8.062-2.512c4.25-1.075,8.287-1.675,12.112-1.8v-0.15h8.1c2.899-0.125,6.399,0.525,10.499,1.95
		c0.774,0.274,1.587,0.587,2.438,0.938c0.375,0.1,0.725,0.212,1.05,0.337c0.425,0.15,0.813,0.35,1.162,0.601
		c3.95,1.75,6.213,3.037,6.787,3.862c0.176-0.35,0.375-0.675,0.601-0.975c1.499-2.05,3.774-3.637,6.824-4.762
		c1.525-0.55,3.237-1,5.138-1.351h8.099C210.729,29.195,212.803,29.645,214.728,30.245z M186.154,43.144
		c0-2.25,0.351-4.199,1.05-5.849h-0.149c-1.85-0.8-3.662-1.9-5.438-3.299c-0.05,0-0.088,0-0.112,0c-0.274,0-1.563-0.313-3.862-0.938
		c-2.524-0.725-4.287-1.163-5.287-1.313h-11.174c-9.35,1.449-16.262,3.112-20.737,4.987c-1.625,0.65-4.274,2.175-7.949,4.575
		c0.351,0.6,0.662,1.237,0.938,1.912c0.95,2.174,1.425,4.112,1.425,5.812c0,3.274-1.275,5.537-3.824,6.787
		c-1.601,0.8-4.426,1.375-8.475,1.725c-4.15,0.375-6.962,0.9-8.437,1.576c-2.575,1.174-3.863,3.299-3.863,6.375
		c0,0.825,0.15,2.05,0.45,3.674c0.3,1.625,0.451,3.138,0.451,4.537c0,2.625-0.325,4.475-0.975,5.55
		c-0.925,1.475-3.15,3.188-6.675,5.137h-2.25c-0.025,1.175-0.125,2.825-0.3,4.95c-0.2,2.4-0.299,4.162-0.299,5.287
		c0,5.6,0.4,11.337,1.2,17.212c0.2,1.375,1.075,4.412,2.625,9.111c0.6,1.825,1.075,3.337,1.425,4.538
		c6.25,18.074,22.812,29.073,49.685,32.999c3.05,0.273,6.1,0.399,9.149,0.375c-1.774,0.148-3.638,0.299-5.587,0.449
		c-18.274,1.375-35.336-6.424-51.185-23.399c-0.775,0.4-2.15,1.038-4.125,1.912c-3.774,1.675-6.462,3.325-8.062,4.95l-0.15,0.075
		c3.75,1.325,6.1,2.837,7.05,4.537c0.4,0.7,0.6,2.25,0.6,4.649c0,1.725-0.438,3.913-1.313,6.563c-0.05,0.15-1.013,2.713-2.888,7.688
		c-2.774,7.499-4.162,14.174-4.162,20.023c0,6.475,1.35,15.699,4.05,27.674c2.675,11.974,4.012,18.637,4.012,19.986
		c0,4.399-0.987,8.162-2.963,11.286c-0.324,0.525-0.674,1.025-1.049,1.5c0.5,0.55,1.049,1.188,1.65,1.913
		c3.274,3.524,5.962,5.762,8.062,6.712c-2.05-4.5-3.362-7.899-3.937-10.199c-0.525-2.25-0.788-5.351-0.788-9.3
		c0-7.475,2-13.599,6-18.374c6.3-7.475,17.45-11.999,33.449-13.574c12.049,0.126,20.224,3.938,24.523,11.438
		c2.35,4.124,3.524,9.949,3.524,17.474c0,9.574-1.399,19.286-4.199,29.136c-0.475,1.675-0.975,3.287-1.5,4.837
		c7.675,2.101,16.386,1.226,26.136-2.625c-0.324,0.375-0.649,0.737-0.975,1.088c2.249-1.275,4.013-2.375,5.287-3.3
		c6.225-4.525,10.474-10.725,12.749-18.6c0.601-2.124,1.2-6.437,1.8-12.937c0.5-5.624,1.45-10.012,2.85-13.161
		c1.25-2.85,2.45-5.125,3.6-6.824c1.625-2.375,3.576-4.4,5.851-6.075c1.325-0.95,3.999-2.774,8.023-5.475
		c0.976-0.649,2.013-1.162,3.113-1.537c-0.1-0.75-0.225-1.713-0.375-2.888c-0.6-4.449-1.487-8.825-2.662-13.124
		c-0.9-3.175-2.688-6.112-5.362-8.812c-3.325-3.301-7.487-5.588-12.486-6.862c-10.85-2.751-19.312-5.7-25.387-8.85
		c-0.575,0.15-4.35,0.512-11.324,1.088c3.225-0.476,6.437-1.139,9.637-1.988c-1.95-1.1-3.612-2.225-4.987-3.375
		c-4.925-4.125-7.387-9.799-7.387-17.024c0-5.825,1.162-10.787,3.487-14.886c1.1-1.95,2.45-3.625,4.049-5.025
		c-2.524-2.475-4.437-5.787-5.736-9.937c-1.025-3.3-1.625-7.063-1.8-11.287c0-3.925,0-6.2,0-6.825
		c0-7.699,1.125-13.899,3.374-18.599c4.075-8.45,11.05-8.362,20.925,0.263c6.899,6.05,12.199,11.887,15.898,17.511
		c4,6.125,6,11.887,6,17.287c0,2.9-0.575,5.45-1.726,7.649c2.351,0.725,4.551,1.625,6.601,2.7c0.425-1.849,0.837-3.874,1.237-6.074
		c0.899-4.774,1.274-8.262,1.124-10.462c-0.375-5.85-1.874-11.85-4.499-17.999c-1.15-2.35-2.038-4.25-2.662-5.7
		c-0.226,0.025-0.45,0.038-0.676,0.038c-3.499,0-5.786-1.3-6.861-3.9c-0.6-1.525-0.9-4.399-0.9-8.625c0-4.125-0.362-7-1.088-8.625
		c-1.199-2.6-3.661-3.9-7.387-3.9c-1.225,0-2.712,0.525-4.462,1.575c-1.725,1.049-3.675,1.575-5.85,1.575
		c-3.101,0-5.15-1.475-6.149-4.424c-0.325-0.925-0.525-1.963-0.601-3.113C186.154,43.757,186.154,43.219,186.154,43.144z
		 M200.104,91.441c0-2.325-0.824-4.313-2.475-5.962c-1.625-1.625-3.6-2.438-5.925-2.438s-4.313,0.813-5.962,2.438
		c-1.625,1.65-2.438,3.638-2.438,5.962s0.813,4.3,2.438,5.925c1.649,1.649,3.637,2.475,5.962,2.475s4.3-0.825,5.925-2.475
		C199.279,95.741,200.104,93.766,200.104,91.441z M192.305,91.141c0,0.9-0.325,1.675-0.976,2.325
		c-0.649,0.649-1.425,0.975-2.325,0.975c-0.899,0-1.675-0.325-2.324-0.975c-0.65-0.65-0.976-1.425-0.976-2.325
		c0-0.899,0.325-1.674,0.976-2.325c0.649-0.649,1.425-0.975,2.324-0.975c0.9,0,1.676,0.325,2.325,0.975
		C191.979,89.467,192.305,90.242,192.305,91.141z M176.067,110.19c0.025,0.95-0.362,1.725-1.162,2.324
		c-0.399,0.3-1.7,0.976-3.899,2.025c-0.501,0.275-1.313,1.149-2.438,2.625c-1,1.4-1.55,2.1-1.65,2.1
		c-0.324,0-0.763-0.575-1.313-1.725c-0.625-1.399-1.725-2.4-3.299-3c-2.65-1.025-4.001-2.55-4.051-4.575
		c-0.05-2.325,2.487-3.85,7.612-4.575c4.15-0.425,7.062,0.125,8.737,1.65C175.555,107.866,176.043,108.915,176.067,110.19z
		 M150.157,85.479c-1.626-1.625-3.601-2.438-5.926-2.438c-2.324,0-4.312,0.813-5.962,2.438c-1.624,1.65-2.438,3.638-2.438,5.962
		s0.813,4.3,2.438,5.925c1.65,1.649,3.638,2.475,5.962,2.475c2.325,0,4.3-0.825,5.926-2.475c1.649-1.625,2.475-3.6,2.475-5.925
		S151.807,87.129,150.157,85.479z M233.627,241.282c-1.95,1.851-3.188,4.263-3.713,7.237c-0.55,2.976-0.225,5.65,0.975,8.025
		c1.226,2.424,2.95,3.837,5.176,4.236c2.25,0.4,4.35-0.313,6.3-2.137c1.975-1.825,3.237-4.226,3.787-7.2
		c0.525-2.975,0.175-5.662-1.051-8.063c-1.199-2.374-2.924-3.762-5.174-4.162C237.702,238.82,235.602,239.508,233.627,241.282z
		 M231.189,232.358c1.45,0.175,2.775-0.35,3.975-1.575c1.176-1.25,1.875-2.837,2.1-4.762c0.226-1.95-0.074-3.663-0.899-5.138
		c-0.851-1.5-2-2.337-3.45-2.513c-1.425-0.175-2.736,0.363-3.938,1.613c-1.199,1.225-1.912,2.813-2.137,4.762
		c-0.225,1.925,0.087,3.637,0.938,5.137C228.627,231.358,229.765,232.184,231.189,232.358z M250.426,225.158
		c-1.075,0.9-1.787,2.125-2.138,3.676c-0.35,1.574-0.237,3.012,0.338,4.312s1.45,2.088,2.625,2.362
		c1.149,0.275,2.237-0.037,3.262-0.938c1.075-0.899,1.788-2.137,2.138-3.712c0.351-1.55,0.237-2.975-0.338-4.274
		c-0.55-1.301-1.399-2.088-2.55-2.363C252.588,223.946,251.476,224.259,250.426,225.158z M247.276,209.672
		c-1.426-0.175-2.726,0.362-3.9,1.612c-1.199,1.25-1.912,2.837-2.137,4.763c-0.226,1.925,0.1,3.637,0.975,5.137
		c0.85,1.5,1.987,2.337,3.412,2.513c1.45,0.175,2.775-0.375,3.975-1.649c1.15-1.25,1.838-2.838,2.063-4.763s-0.074-3.638-0.9-5.137
		C249.889,210.672,248.727,209.847,247.276,209.672z M139.207,88.816c0.65-0.649,1.425-0.975,2.325-0.975s1.675,0.325,2.324,0.975
		c0.65,0.65,0.976,1.425,0.976,2.325c0,0.9-0.325,1.675-0.976,2.325c-0.649,0.649-1.424,0.975-2.324,0.975s-1.675-0.325-2.325-0.975
		c-0.649-0.65-0.975-1.425-0.975-2.325C138.232,90.242,138.558,89.467,139.207,88.816z M156.756,94.404
		c-0.175,4.224-0.774,7.987-1.8,11.287c-3.2,10.199-9.999,15.299-20.398,15.299c-10.124,0-17.1-2.425-20.924-7.274
		c-2.05-2.6-3.075-5.825-3.075-9.675c0-5.4,2-11.162,6-17.287c3.7-5.625,9-11.461,15.898-17.511
		c9.875-8.625,16.85-8.712,20.925-0.263c2.249,4.7,3.374,10.899,3.374,18.599C156.756,88.204,156.756,90.479,156.756,94.404z
		 M146.407,139.664c-1.075,2.8-2.625,4.2-4.65,4.2c-2.2,0-3.837-0.988-4.912-2.963c-0.675-1.25-1.013-2.412-1.013-3.487
		c0-3.425,2.875-7.237,8.625-11.437c2.3-1.675,4.274-2.749,5.925-3.225c1.8-0.5,2.699-0.125,2.699,1.125
		c0,1.15-0.774,2.938-2.324,5.362c-1.774,2.75-2.75,4.399-2.926,4.95C147.657,134.764,147.182,136.589,146.407,139.664z
		 M119.108,232.396c-1.7,0-3.15,0.601-4.35,1.8c-1.2,1.226-1.8,2.676-1.8,4.351c0,1.699,0.601,3.149,1.8,4.35
		c1.2,1.199,2.649,1.799,4.35,1.799c1.7,0,3.149-0.6,4.35-1.799c1.2-1.2,1.8-2.65,1.8-4.35c0-1.675-0.6-3.125-1.8-4.351
		C122.258,232.996,120.808,232.396,119.108,232.396z M147.644,246.157c-2.149-2.149-4.762-3.225-7.836-3.225
		c-3.075,0-5.7,1.075-7.875,3.225c-2.15,2.175-3.225,4.8-3.225,7.875s1.074,5.687,3.225,7.837c2.175,2.175,4.8,3.262,7.875,3.262
		c3.074,0,5.687-1.087,7.836-3.262c2.176-2.15,3.263-4.762,3.263-7.837S149.819,248.332,147.644,246.157z M141.157,224.334
		c0-1.9-0.675-3.525-2.025-4.875c-1.35-1.35-2.975-2.025-4.874-2.025c-1.9,0-3.525,0.676-4.875,2.025s-2.025,2.975-2.025,4.875
		c0,1.899,0.676,3.524,2.025,4.875c1.35,1.35,2.975,2.024,4.875,2.024c1.899,0,3.524-0.675,4.874-2.024
		C140.482,227.858,141.157,226.233,141.157,224.334z M160.355,232.958c0-1.675-0.6-3.125-1.799-4.35c-1.2-1.2-2.65-1.8-4.351-1.8
		s-3.149,0.6-4.35,1.8c-1.199,1.225-1.8,2.675-1.8,4.35c0,1.7,0.601,3.15,1.8,4.35c1.2,1.2,2.649,1.801,4.35,1.801
		s3.15-0.601,4.351-1.801C159.756,236.108,160.355,234.658,160.355,232.958z"/>
	<path fill-rule="evenodd" clip-rule="evenodd" fill="#E4DDCB" d="M186.154,43.144c0,0.076,0,0.613,0,1.613
		c0.075,1.15,0.275,2.188,0.601,3.113c0.999,2.949,3.049,4.424,6.149,4.424c2.175,0,4.125-0.525,5.85-1.575
		c1.75-1.05,3.237-1.575,4.462-1.575c3.726,0,6.188,1.3,7.387,3.9c0.726,1.625,1.088,4.5,1.088,8.625c0,4.225,0.301,7.1,0.9,8.625
		c1.075,2.6,3.362,3.9,6.861,3.9c0.226,0,0.45-0.013,0.676-0.038c0.624,1.45,1.512,3.35,2.662,5.7
		c2.625,6.149,4.124,12.149,4.499,17.999c0.15,2.2-0.225,5.688-1.124,10.462c-0.4,2.2-0.813,4.225-1.237,6.074
		c-2.05-1.074-4.25-1.975-6.601-2.7c1.15-2.2,1.726-4.75,1.726-7.649c0-5.4-2-11.162-6-17.287
		c-3.699-5.625-8.999-11.461-15.898-17.511c-9.875-8.625-16.85-8.712-20.925-0.263c-2.249,4.7-3.374,10.899-3.374,18.599
		c0,0.625,0,2.9,0,6.825c0.175,4.224,0.774,7.987,1.8,11.287c1.3,4.15,3.212,7.462,5.736,9.937
		c-1.599,1.399-2.949,3.075-4.049,5.025c-2.325,4.1-3.487,9.062-3.487,14.886c0,7.225,2.462,12.899,7.387,17.024
		c1.375,1.15,3.037,2.275,4.987,3.375c-3.2,0.85-6.412,1.513-9.637,1.988c6.975-0.576,10.749-0.938,11.324-1.088
		c6.075,3.149,14.537,6.099,25.387,8.85c4.999,1.274,9.161,3.562,12.486,6.862c2.675,2.699,4.462,5.637,5.362,8.812
		c1.175,4.299,2.063,8.675,2.662,13.124c0.15,1.175,0.275,2.138,0.375,2.888c-1.101,0.375-2.138,0.888-3.113,1.537
		c-4.024,2.7-6.698,4.524-8.023,5.475c-2.274,1.675-4.226,3.7-5.851,6.075c-1.149,1.699-2.35,3.975-3.6,6.824
		c-1.399,3.149-2.35,7.537-2.85,13.161c-0.6,6.5-1.199,10.813-1.8,12.937c-2.275,7.875-6.524,14.074-12.749,18.6
		c-1.274,0.925-3.038,2.024-5.287,3.3c0.325-0.351,0.65-0.713,0.975-1.088c-9.75,3.851-18.461,4.726-26.136,2.625
		c0.525-1.55,1.025-3.162,1.5-4.837c2.8-9.85,4.199-19.562,4.199-29.136c0-7.524-1.175-13.35-3.524-17.474
		c-4.3-7.5-12.475-11.312-24.523-11.438c-15.999,1.575-27.148,6.1-33.449,13.574c-4,4.775-6,10.899-6,18.374
		c0,3.949,0.263,7.05,0.788,9.3c0.575,2.3,1.887,5.699,3.937,10.199c-2.1-0.95-4.788-3.188-8.062-6.712
		c-0.601-0.725-1.149-1.363-1.65-1.913c0.375-0.475,0.725-0.975,1.049-1.5c1.976-3.124,2.963-6.887,2.963-11.286
		c0-1.35-1.337-8.013-4.012-19.986c-2.7-11.975-4.05-21.199-4.05-27.674c0-5.85,1.388-12.524,4.162-20.023
		c1.875-4.975,2.838-7.537,2.888-7.688c0.875-2.649,1.313-4.838,1.313-6.563c0-2.399-0.2-3.949-0.6-4.649
		c-0.95-1.7-3.3-3.212-7.05-4.537l0.15-0.075c1.6-1.625,4.288-3.275,8.062-4.95c1.975-0.875,3.35-1.512,4.125-1.912
		c15.849,16.975,32.91,24.774,51.185,23.399c1.949-0.15,3.813-0.301,5.587-0.449c-3.05,0.024-6.1-0.102-9.149-0.375
		c-26.873-3.926-43.435-14.925-49.685-32.999c-0.35-1.201-0.825-2.713-1.425-4.538c-1.549-4.7-2.425-7.737-2.625-9.111
		c-0.8-5.875-1.2-11.612-1.2-17.212c0-1.125,0.1-2.887,0.299-5.287c0.175-2.125,0.275-3.775,0.3-4.95h2.25
		c3.525-1.95,5.75-3.662,6.675-5.137c0.65-1.075,0.975-2.925,0.975-5.55c0-1.399-0.15-2.912-0.451-4.537
		c-0.299-1.625-0.45-2.85-0.45-3.674c0-3.075,1.288-5.2,3.863-6.375c1.475-0.675,4.287-1.201,8.437-1.576
		c4.049-0.35,6.874-0.925,8.475-1.725c2.549-1.25,3.824-3.513,3.824-6.787c0-1.7-0.475-3.638-1.425-5.812
		c-0.275-0.675-0.587-1.313-0.938-1.912c3.675-2.4,6.324-3.925,7.949-4.575c4.476-1.875,11.388-3.538,20.737-4.987h11.174
		c1,0.149,2.763,0.587,5.287,1.313c2.3,0.625,3.588,0.938,3.862,0.938c0.024,0,0.063,0,0.112,0c1.775,1.399,3.588,2.5,5.438,3.299
		h0.149C186.505,38.944,186.154,40.894,186.154,43.144z M200.104,91.441c0,2.325-0.824,4.3-2.475,5.925
		c-1.625,1.649-3.6,2.475-5.925,2.475s-4.313-0.825-5.962-2.475c-1.625-1.625-2.438-3.6-2.438-5.925s0.813-4.313,2.438-5.962
		c1.649-1.625,3.637-2.438,5.962-2.438s4.3,0.813,5.925,2.438C199.279,87.129,200.104,89.117,200.104,91.441z M176.067,110.19
		c-0.024-1.275-0.513-2.325-1.462-3.15c-1.676-1.524-4.587-2.075-8.737-1.65c-5.125,0.725-7.662,2.25-7.612,4.575
		c0.05,2.025,1.4,3.55,4.051,4.575c1.574,0.6,2.674,1.6,3.299,3c0.55,1.15,0.988,1.725,1.313,1.725c0.101,0,0.65-0.7,1.65-2.1
		c1.125-1.475,1.937-2.349,2.438-2.625c2.199-1.05,3.5-1.725,3.899-2.025C175.705,111.915,176.093,111.14,176.067,110.19z
		 M192.305,91.141c0-0.899-0.325-1.674-0.976-2.325c-0.649-0.649-1.425-0.975-2.325-0.975c-0.899,0-1.675,0.325-2.324,0.975
		c-0.65,0.65-0.976,1.425-0.976,2.325c0,0.9,0.325,1.675,0.976,2.325c0.649,0.649,1.425,0.975,2.324,0.975
		c0.9,0,1.676-0.325,2.325-0.975C191.979,92.816,192.305,92.041,192.305,91.141z M247.276,209.672c1.45,0.175,2.612,1,3.486,2.476
		c0.826,1.499,1.125,3.212,0.9,5.137s-0.912,3.513-2.063,4.763c-1.199,1.274-2.524,1.824-3.975,1.649
		c-1.425-0.176-2.563-1.013-3.412-2.513c-0.875-1.5-1.2-3.212-0.975-5.137c0.225-1.926,0.938-3.513,2.137-4.763
		C244.551,210.034,245.851,209.497,247.276,209.672z M250.426,225.158c1.05-0.899,2.162-1.212,3.337-0.938
		c1.15,0.275,2,1.063,2.55,2.363c0.575,1.3,0.688,2.725,0.338,4.274c-0.35,1.575-1.063,2.813-2.138,3.712
		c-1.024,0.9-2.112,1.213-3.262,0.938c-1.175-0.274-2.05-1.063-2.625-2.362s-0.688-2.737-0.338-4.312
		C248.639,227.283,249.351,226.059,250.426,225.158z M231.189,232.358c-1.425-0.175-2.563-1-3.412-2.476
		c-0.851-1.5-1.162-3.212-0.938-5.137c0.225-1.949,0.938-3.537,2.137-4.762c1.201-1.25,2.513-1.788,3.938-1.613
		c1.45,0.176,2.6,1.013,3.45,2.513c0.825,1.475,1.125,3.188,0.899,5.138c-0.225,1.925-0.924,3.512-2.1,4.762
		C233.965,232.009,232.64,232.533,231.189,232.358z M233.627,241.282c1.975-1.774,4.075-2.462,6.3-2.063
		c2.25,0.4,3.975,1.788,5.174,4.162c1.226,2.4,1.576,5.088,1.051,8.063c-0.55,2.975-1.813,5.375-3.787,7.2
		c-1.95,1.824-4.05,2.537-6.3,2.137c-2.226-0.399-3.95-1.813-5.176-4.236c-1.199-2.375-1.524-5.05-0.975-8.025
		C230.439,245.545,231.677,243.133,233.627,241.282z M150.157,85.479c1.649,1.65,2.475,3.638,2.475,5.962s-0.825,4.3-2.475,5.925
		c-1.626,1.649-3.601,2.475-5.926,2.475c-2.324,0-4.312-0.825-5.962-2.475c-1.624-1.625-2.438-3.6-2.438-5.925
		s0.813-4.313,2.438-5.962c1.65-1.625,3.638-2.438,5.962-2.438C146.557,83.042,148.531,83.854,150.157,85.479z M146.407,139.664
		c0.774-3.075,1.25-4.9,1.424-5.475c0.176-0.55,1.151-2.2,2.926-4.95c1.55-2.425,2.324-4.212,2.324-5.362
		c0-1.25-0.899-1.625-2.699-1.125c-1.65,0.476-3.625,1.55-5.925,3.225c-5.75,4.2-8.625,8.012-8.625,11.437
		c0,1.075,0.338,2.237,1.013,3.487c1.075,1.975,2.712,2.963,4.912,2.963C143.782,143.864,145.332,142.463,146.407,139.664z
		 M156.756,94.404c0-3.925,0-6.2,0-6.825c0-7.699-1.125-13.899-3.374-18.599c-4.075-8.45-11.05-8.362-20.925,0.263
		c-6.898,6.05-12.199,11.887-15.898,17.511c-4,6.125-6,11.887-6,17.287c0,3.85,1.025,7.075,3.075,9.675
		c3.824,4.85,10.8,7.274,20.924,7.274c10.399,0,17.198-5.1,20.398-15.299C155.981,102.391,156.581,98.628,156.756,94.404z
		 M139.207,88.816c-0.649,0.65-0.975,1.425-0.975,2.325c0,0.9,0.325,1.675,0.975,2.325c0.65,0.649,1.425,0.975,2.325,0.975
		s1.675-0.325,2.324-0.975c0.65-0.65,0.976-1.425,0.976-2.325c0-0.899-0.325-1.674-0.976-2.325
		c-0.649-0.649-1.424-0.975-2.324-0.975S139.857,88.167,139.207,88.816z M160.355,232.958c0,1.7-0.6,3.15-1.799,4.35
		c-1.2,1.2-2.65,1.801-4.351,1.801s-3.149-0.601-4.35-1.801c-1.199-1.199-1.8-2.649-1.8-4.35c0-1.675,0.601-3.125,1.8-4.35
		c1.2-1.2,2.649-1.8,4.35-1.8s3.15,0.6,4.351,1.8C159.756,229.833,160.355,231.283,160.355,232.958z M141.157,224.334
		c0,1.899-0.675,3.524-2.025,4.875c-1.35,1.35-2.975,2.024-4.874,2.024c-1.9,0-3.525-0.675-4.875-2.024
		c-1.35-1.351-2.025-2.976-2.025-4.875c0-1.9,0.676-3.525,2.025-4.875s2.975-2.025,4.875-2.025c1.899,0,3.524,0.676,4.874,2.025
		C140.482,220.809,141.157,222.434,141.157,224.334z M147.644,246.157c2.176,2.175,3.263,4.8,3.263,7.875s-1.087,5.687-3.263,7.837
		c-2.149,2.175-4.762,3.262-7.836,3.262c-3.075,0-5.7-1.087-7.875-3.262c-2.15-2.15-3.225-4.762-3.225-7.837s1.074-5.7,3.225-7.875
		c2.175-2.149,4.8-3.225,7.875-3.225C142.882,242.933,145.494,244.008,147.644,246.157z M119.108,232.396
		c1.7,0,3.149,0.601,4.35,1.8c1.2,1.226,1.8,2.676,1.8,4.351c0,1.699-0.6,3.149-1.8,4.35c-1.2,1.199-2.65,1.799-4.35,1.799
		c-1.7,0-3.15-0.6-4.35-1.799c-1.2-1.2-1.8-2.65-1.8-4.35c0-1.675,0.601-3.125,1.8-4.351
		C115.958,232.996,117.408,232.396,119.108,232.396z"/>
</g>
</svg>
