<?xml version="1.0" encoding="utf-8"?>
<!-- Generator: Adobe Illustrator 16.0.0, SVG Export Plug-In . SVG Version: 6.00 Build 0)  -->
<!DOCTYPE svg PUBLIC "-//W3C//DTD SVG 1.1//EN" "http://www.w3.org/Graphics/SVG/1.1/DTD/svg11.dtd">
<svg version="1.1" id="Layer_1" xmlns="http://www.w3.org/2000/svg" xmlns:xlink="http://www.w3.org/1999/xlink" x="0px" y="0px"
	 width="300px" height="300px" viewBox="0 0 300 300" enable-background="new 0 0 300 300" xml:space="preserve">
<path fill-rule="evenodd" clip-rule="evenodd" fill="#010101" d="M144.226,63.804v21.269c7.862,0,15.379,1.531,22.553,4.593
	c6.923,2.951,13.075,7.104,18.454,12.455c5.353,5.352,9.49,11.49,12.415,18.414c2.896,6.841,4.414,13.973,4.551,21.394h21.311
	c-0.164-10.317-2.248-20.207-6.248-29.669c-4-9.49-9.655-17.89-16.966-25.2c-7.337-7.311-15.752-12.979-25.241-17.007
	c-4.248-1.793-8.565-3.2-12.951-4.22C156.282,64.479,150.322,63.804,144.226,63.804z M143.398,85.115V63.804
	c-5.848,0.055-11.559,0.731-17.131,2.028c-4.414,1.021-8.731,2.427-12.952,4.22c-9.517,4.028-17.917,9.697-25.2,17.007
	c-7.338,7.311-13.021,15.71-17.049,25.2c-4,9.462-6.068,19.352-6.207,29.669h21.269c0.166-7.42,1.683-14.552,4.552-21.394
	c2.951-6.924,7.117-13.062,12.496-18.414c5.324-5.352,11.462-9.504,18.415-12.455C128.543,86.715,135.812,85.197,143.398,85.115z
	 M296.958,142.053c0.084,0.083,0.125,0.179,0.125,0.29s-0.041,0.221-0.125,0.331c-0.109,0.056-0.207,0.083-0.288,0.083h-57.271
	c0,0.138,0,0.276,0,0.414c0,12.911-2.497,25.27-7.49,37.077c-4.827,11.365-11.627,21.449-20.4,30.249
	c-8.799,8.771-18.883,15.572-30.248,20.4c-11.78,4.965-24.124,7.448-37.035,7.448v55.242c0,0.109-0.042,0.22-0.124,0.331
	c-0.11,0.082-0.221,0.123-0.331,0.123c-0.11,0-0.193-0.041-0.248-0.123c-0.11-0.111-0.152-0.222-0.125-0.331v-55.242
	c-12.635-0.084-24.717-2.566-36.249-7.448c-11.42-4.828-21.518-11.629-30.29-20.4c-8.8-8.8-15.601-18.884-20.4-30.249
	c-4.993-11.807-7.489-24.166-7.489-37.077c0-0.138,0-0.276,0-0.414H3.038c-0.11,0-0.193-0.027-0.249-0.083
	c-0.11-0.11-0.152-0.221-0.124-0.331c-0.028-0.11,0.014-0.207,0.124-0.29c0.055-0.083,0.138-0.124,0.249-0.124H48.97
	c0.165-12.441,2.662-24.386,7.489-35.835c4.8-11.393,11.601-21.476,20.4-30.249c3.697-3.697,7.614-7.035,11.752-10.014
	c5.738-4.138,11.917-7.614,18.538-10.428c11.532-4.882,23.614-7.365,36.249-7.448V7.279c-0.027-0.111,0.014-0.193,0.125-0.249
	c0.055-0.11,0.138-0.152,0.248-0.124c0.11-0.028,0.221,0.014,0.331,0.124c0.083,0.055,0.124,0.138,0.124,0.249v40.676
	c12.911,0,25.255,2.483,37.035,7.448c6.62,2.814,12.786,6.29,18.497,10.428c4.139,2.979,8.055,6.317,11.751,10.014
	c8.773,8.772,15.573,18.855,20.4,30.249c4.829,11.449,7.325,23.394,7.49,35.835h57.271
	C296.751,141.929,296.849,141.971,296.958,142.053z M119.563,118.508c-6.538,6.538-9.945,14.345-10.221,23.421h23.297
	c0.249-2.676,1.366-5.007,3.352-6.993c2.069-2.069,4.538-3.2,7.407-3.393v-23.214C134.102,108.494,126.157,111.888,119.563,118.508z
	 M64.818,142.757c0,0.138,0,0.276,0,0.414c0,10.759,2.083,21.049,6.248,30.87c4.028,9.489,9.711,17.904,17.049,25.242
	c7.283,7.282,15.683,12.938,25.2,16.966c9.573,4.055,19.6,6.138,30.083,6.248v-21.27c-7.586-0.11-14.855-1.642-21.807-4.593
	c-6.952-2.951-13.09-7.09-18.415-12.414c-5.379-5.353-9.545-11.504-12.496-18.456c-3.035-7.199-4.552-14.73-4.552-22.593
	c0-0.138,0-0.276,0-0.414H64.818z M135.991,151.363c-2.29-2.289-3.435-5.02-3.435-8.193c0-0.138,0.014-0.276,0.042-0.414h-23.256
	c0,0.138,0,0.276,0,0.414c0,9.6,3.407,17.821,10.221,24.663c6.593,6.592,14.538,9.972,23.834,10.139v-23.214
	C140.529,154.563,138.06,153.433,135.991,151.363z M144.226,177.972c9.628,0,17.821-3.379,24.58-10.139
	c6.786-6.814,10.179-15.035,10.179-24.663c0-0.138,0-0.276,0-0.414h-23.214c0,0.138,0,0.276,0,0.414c0,3.2-1.132,5.931-3.394,8.193
	c-2.233,2.263-4.951,3.395-8.151,3.395V177.972z M144.226,131.543c3.173,0,5.89,1.131,8.151,3.393
	c1.96,1.986,3.077,4.317,3.353,6.993h23.255c-0.274-9.076-3.668-16.883-10.179-23.421c-6.787-6.787-14.979-10.18-24.58-10.18
	V131.543z M197.647,165.764c-2.925,6.952-7.063,13.104-12.415,18.456c-5.379,5.324-11.531,9.463-18.454,12.414
	c-7.146,3.062-14.663,4.593-22.553,4.593v21.27c10.73,0,21.008-2.083,30.828-6.248c9.489-4.027,17.904-9.684,25.241-16.966
	c7.311-7.338,12.966-15.753,16.966-25.242c4.167-9.82,6.248-20.11,6.248-30.87c0-0.138,0-0.276,0-0.414h-21.311
	c0,0.138,0,0.276,0,0.414C202.198,151.033,200.682,158.564,197.647,165.764z"/>
</svg>
