<?xml version="1.0" encoding="utf-8"?>
<!-- Generator: Adobe Illustrator 16.0.0, SVG Export Plug-In . SVG Version: 6.00 Build 0)  -->
<!DOCTYPE svg PUBLIC "-//W3C//DTD SVG 1.1//EN" "http://www.w3.org/Graphics/SVG/1.1/DTD/svg11.dtd">
<svg version="1.1" id="Layer_1" xmlns="http://www.w3.org/2000/svg" xmlns:xlink="http://www.w3.org/1999/xlink" x="0px" y="0px"
	 width="300px" height="300px" viewBox="0 0 300 300" enable-background="new 0 0 300 300" xml:space="preserve">
<path fill-rule="evenodd" clip-rule="evenodd" fill="#010101" d="M3.017,150.344c0-19.833,3.832-38.826,11.495-56.978
	c7.417-17.579,17.886-33.11,31.409-46.591c13.522-13.522,29.052-24.013,46.591-31.47c18.153-7.663,37.165-11.494,57.039-11.494
	c19.915,0,38.949,3.832,57.102,11.494c17.497,7.458,33.006,17.948,46.528,31.47c13.522,13.481,23.993,29.012,31.41,46.591
	c7.661,18.152,11.493,37.146,11.493,56.978c0,19.915-3.832,38.949-11.493,57.101c-7.417,17.538-17.888,33.068-31.41,46.591
	c-13.522,13.48-29.031,23.951-46.528,31.408c-18.152,7.663-37.187,11.494-57.102,11.494c-19.874,0-38.886-3.831-57.039-11.494
	c-17.539-7.457-33.069-17.928-46.591-31.408c-13.522-13.522-23.992-29.053-31.409-46.591C6.849,189.293,3.017,170.259,3.017,150.344
	z M124.288,125.082c-7.007,7.007-10.511,15.428-10.511,25.262c0,9.916,3.503,18.358,10.511,25.324
	c7.007,6.967,15.427,10.449,25.262,10.449c9.917,0,18.358-3.482,25.324-10.449c6.925-6.966,10.387-15.408,10.387-25.324
	c0-9.834-3.462-18.255-10.387-25.262c-6.966-6.966-15.407-10.449-25.324-10.449C139.715,114.633,131.295,118.116,124.288,125.082z
	 M225.398,74.496c-9.916-9.875-21.287-17.518-34.113-22.926c-13.235-5.614-27.146-8.421-41.735-8.421
	c-14.546,0-28.458,2.807-41.735,8.421C94.99,56.979,83.619,64.621,73.702,74.496c-9.875,9.917-17.559,21.288-23.049,34.113
	c-5.573,13.317-8.359,27.229-8.359,41.735c0,14.547,2.787,28.479,8.359,41.795c5.491,12.826,13.174,24.177,23.049,34.053
	c9.917,9.917,21.288,17.578,34.113,22.988c13.277,5.613,27.188,8.42,41.735,8.42c14.589,0,28.5-2.807,41.735-8.42
	c12.826-5.41,24.197-13.071,34.113-22.988c9.875-9.876,17.538-21.227,22.988-34.053c5.572-13.275,8.358-27.207,8.358-41.795
	c0-14.506-2.786-28.417-8.358-41.735C242.937,95.784,235.273,84.413,225.398,74.496z M111.626,112.481
	c10.449-10.49,23.09-15.735,37.923-15.735c14.792,0,27.435,5.245,37.925,15.735c10.449,10.449,15.674,23.07,15.674,37.863
	c0,14.875-5.225,27.537-15.674,37.986s-23.09,15.673-37.925,15.673c-14.833,0-27.475-5.224-37.923-15.673
	c-10.449-10.49-15.674-23.153-15.674-37.986C95.953,135.551,101.177,122.931,111.626,112.481z M167.436,150.344
	c0,4.999-1.74,9.219-5.225,12.663c-3.482,3.523-7.703,5.285-12.661,5.285c-4.917,0-9.137-1.762-12.662-5.285
	c-3.482-3.524-5.225-7.746-5.225-12.663c0-4.917,1.742-9.117,5.225-12.6c3.525-3.524,7.745-5.287,12.662-5.287
	s9.138,1.763,12.661,5.287C165.695,141.227,167.436,145.427,167.436,150.344z"/>
</svg>
