<?xml version="1.0" encoding="utf-8"?>
<!-- Generator: Adobe Illustrator 16.0.0, SVG Export Plug-In . SVG Version: 6.00 Build 0)  -->
<!DOCTYPE svg PUBLIC "-//W3C//DTD SVG 1.1//EN" "http://www.w3.org/Graphics/SVG/1.1/DTD/svg11.dtd">
<svg version="1.1" id="Layer_1" xmlns="http://www.w3.org/2000/svg" xmlns:xlink="http://www.w3.org/1999/xlink" x="0px" y="0px"
	 width="300px" height="300px" viewBox="0 0 300 300" enable-background="new 0 0 300 300" xml:space="preserve">
<path fill-rule="evenodd" clip-rule="evenodd" fill="#112427" d="M151.183,78.084c-0.646,3.146-2.134,6.185-4.461,9.116
	c-2.37,2.888-4.267,4.052-5.69,3.492c-1.206-0.431-1.918-2.565-2.133-6.401c0-4.483-0.021-7.5-0.064-9.052
	c0.129-4.439,2.327-6.4,6.594-5.883C149.609,69.83,151.527,72.739,151.183,78.084z M72.63,106.726
	c1.983-1.293,4.051-1.79,6.207-1.488c2.327,0.259,3.75,1.531,4.267,3.815c0.345,1.724,0.173,3.577-0.517,5.56
	c-0.173,0.345-0.323,0.689-0.454,1.034c-1.207,2.5-2.736,4.073-4.59,4.72c-3.836,1.422-6.358,0-7.564-4.267
	c-1.078-3.75-0.518-6.638,1.681-8.664C71.962,107.178,72.285,106.94,72.63,106.726z M48.321,76.92
	c3.965,1.509,7.37,4.634,10.214,9.375c2.974,4.915,3.965,9.375,2.974,13.384c-0.56,2.413-1.659,4.439-3.297,6.078
	c-2.198,2.111-4.999,3.103-8.405,2.974c-4.396-0.13-8.426-1.768-12.089-4.914c-3.836-3.276-5.711-7.069-5.625-11.379
	c0-5,1.466-9.18,4.397-12.542C39.765,76.145,43.708,75.154,48.321,76.92z M55.69,84.809c-2.241-2.543-4.526-4.288-6.853-5.237
	c-4.051-1.552-7.5-0.646-10.344,2.715c-2.5,2.845-3.772,6.358-3.815,10.539l-0.128-1.164c0,6.422,3.706,10.753,11.12,12.995
	c7.457,2.372,12.026,0.109,13.707-6.789c0.818-3.447-0.021-7.219-2.522-11.314c-1.422-2.37-2.995-4.224-4.72-5.56
	C53.342,82.071,54.527,83.342,55.69,84.809z M88.729,50.543c7.067,0.214,11.702,3.599,13.9,10.15
	c1.853,5.69,1.486,12.198-1.1,19.525C98.9,87.761,95,92.826,89.828,95.412c-3.276,1.551-6.444,2.154-9.503,1.81
	c-4.052-0.431-7.651-2.607-10.798-6.529c-3.749-4.828-5.56-10.625-5.431-17.392c0.13-7.112,2.521-12.564,7.177-16.356
	C76.574,52.461,82.393,50.327,88.729,50.543z M88.211,54.938c-5.474-0.129-10.56,1.725-15.258,5.561l-0.646,0.646
	c-1.896,2.327-3.146,5.279-3.75,8.857c-0.646,4.353-0.107,8.578,1.616,12.671c1.768,4.267,4.288,7.264,7.565,8.987
	c3.706,1.939,7.736,1.832,12.09-0.323c4.396-2.156,7.694-6.379,9.892-12.672c0.388-1.034,0.689-2.004,0.904-2.909
	c0.819-4.699,0.668-8.685-0.452-11.961C98.318,58.106,94.332,55.154,88.211,54.938z M181.569,153.34
	c0.431,0.905-0.841,1.573-3.814,2.004c-1.811,0.302-5.13,1.314-9.957,3.038c-5.818,1.984-9.546,3.19-11.184,3.622
	c-2.933,0.775-5.001,0.948-6.208,0.517c-0.129-0.086-0.236-0.129-0.323-0.129l-0.064-0.064l0.97-0.646
	c-1.207,0.603-2.931,1.379-5.172,2.327c-2.845,1.12-4.655,1.767-5.431,1.939c-2.242,0.345-4.719-0.151-7.435-1.487
	c-2.801-1.595-4.806-2.629-6.012-3.103c-5.043-1.984-8.707-2.35-10.991-1.1c-2.759,1.939-5.065,3.405-6.918,4.396
	c-3.361,1.896-6.68,3.038-9.956,3.426c-4.872,0.475-8.34,1.358-10.41,2.651c-2.499,1.639-4.417,4.418-5.753,8.34
	c-0.734,1.337-1.316,2.823-1.747,4.461c-1.681,6.768-2.995,11.357-3.943,13.771c-1.638,3.922-3.879,6.874-6.724,8.857
	c-3.147,2.198-6.035,2.802-8.664,1.811c-2.629-1.078-5.603-3.988-8.921-8.729c-2.5-3.577-4.785-7.974-6.853-13.189
	c0,0.173,0.043,0.366,0.129,0.582c-1.077-1.509-3.254-3.686-6.53-6.529c-2.759-2.328-4.634-4.741-5.625-7.242
	c-0.559-2.284-1.25-3.771-2.068-4.461c-1.422-1.206-4.397-0.754-8.922,1.358c-3.146,1.422-6.357,1.486-9.632,0.193
	c-3.104-1.207-4.656-2.801-4.656-4.784c0.043-1.336,1.034-2.499,2.974-3.49c2.113-1.164,4.742-1.552,7.889-1.164
	c2.154,0.345,4.181,0.754,6.078,1.229c-7.544-2.759-12.737-2.564-15.583,0.582c-0.904,1.034-1.508,1.874-1.81,2.521
	c-0.087,0.345-0.151,0.776-0.194,1.293c-0.129-0.991,0.043-1.939,0.518-2.844c-1.423,2.542-0.561,5.15,2.586,7.822
	c4.051,3.447,9.375,5.087,15.968,4.914c5.776-0.043,10.194,2.693,13.254,8.21c2.672,4.87,3.449,8.837,2.327,11.896
	c-0.861,2.241-0.366,4.224,1.488,5.948c1.854,1.724,3.706,1.896,5.56,0.517c1.638-1.207,2.996-1.056,4.074,0.454
	c0.689,1.076,1.357,2.931,2.004,5.56c0.561,2.284,1.982,4.051,4.267,5.301c2.759,1.423,5.883,1.509,9.375,0.259
	c2.629-0.991,4.763-4.052,6.401-9.18c1.509-4.699,3.146-7.091,4.913-7.178c3.19-0.129,5.797-0.948,7.823-2.456
	c2.543-1.982,4.699-5.366,6.465-10.151c1.811-4.74,5.583-7.478,11.314-8.21c4.656-0.646,10.862,0,18.621,1.939
	c4.742,1.12,9.676-0.302,14.806-4.267c8.405-6.466,16.593-11.293,24.568-14.482c8.448-3.361,15.861-5.539,22.241-6.53
	C184.607,153.663,182.905,153.555,181.569,153.34z M258.765,131.035c4.051,1.638,6.68,4.202,7.888,7.694
	c1.336,4.051,1.271,7.887-0.195,11.507c-1.638,4.009-4.59,5.928-8.856,5.754c-3.707-0.128-7.393-1.767-11.056-4.913
	c-3.836-3.189-5.883-6.551-6.142-10.085c-0.216-2.155,0.107-4.074,0.97-5.754c1.25-2.457,3.297-4.073,6.142-4.849
	C251.178,129.267,254.929,129.483,258.765,131.035z M282.428,169.762c-1.854-0.087-3.729-0.905-5.626-2.457
	c-1.939-1.638-2.974-3.383-3.103-5.236c-0.087-1.034,0.086-2.025,0.517-2.974c0.646-1.207,1.682-2.027,3.104-2.458
	c1.854-0.561,3.772-0.408,5.755,0.452c2.068,0.777,3.426,2.049,4.072,3.815c0.604,2.155,0.561,4.116-0.129,5.883
	C286.155,168.856,284.626,169.848,282.428,169.762z M276.996,123.988c2.198-1.982,4.547-2.802,7.048-2.458
	c2.888,0.345,5.236,1.531,7.047,3.556c1.982,2.284,2.263,4.699,0.84,7.242c-1.207,2.198-3.318,3.943-6.335,5.236
	c-3.104,1.336-5.798,1.574-8.082,0.711c-1.509-0.604-2.608-1.422-3.298-2.456c-1.077-1.466-1.443-3.189-1.099-5.172
	C273.548,128.147,274.841,125.927,276.996,123.988z M220.554,86.554c-0.604-1.077-0.494-2.327,0.323-3.749
	c10.819-8.621,21.702-13.384,32.65-14.29c5.259,0.13,8.879,1.337,10.861,3.622c1.724,1.983,2.047,4.439,0.97,7.37
	c-0.991,2.673-2.802,4.936-5.431,6.789c-2.845,2.026-5.688,2.823-8.533,2.393c-2.285-0.518-4.958-0.905-8.018-1.164
	c-3.405-0.431-8.426-0.129-15.064,0.905C224.132,89.075,221.545,88.45,220.554,86.554z M165.923,102.006
	c-2.241-1.336-2.564-5.969-0.97-13.9c1.638-7.887,4.224-14.525,7.758-19.914c3.406-4.051,6.854-6.292,10.345-6.723
	c3.061-0.389,5.669,0.603,7.824,2.974c1.982,2.285,2.931,5.129,2.844,8.534c-0.043,3.708-1.422,7.047-4.137,10.021
	c-5.346,5.776-9.548,10.086-12.607,12.931C171.418,101.101,167.733,103.126,165.923,102.006z M122.025,100.002
	c0,1.336-0.194,2.672-0.582,4.008c-0.518,1.854-1.423,3.686-2.716,5.496c-0.043,0.216-0.15,0.432-0.323,0.646
	c-2.111,4.311-3.535,7.371-4.267,9.181c-1.422,3.75-2.133,7.003-2.133,9.763c0.085,5.129,2.263,8.231,6.529,9.31
	c3.361,0.861,5.776-0.237,7.241-3.298c0.345-3.922,0.841-7.758,1.487-11.507c1.422-4.656,3.707-7.435,6.853-8.34
	c2.758-0.775,5.237-0.107,7.435,2.004c2.458,1.509,2.715,4.892,0.775,10.151c-1.896,5.344-5.194,10.388-9.891,15.128
	c-1.078,1.164-2.112,2.134-3.104,2.909c-0.216,0.302-0.43,0.582-0.646,0.841c-2.37,3.62-2.586,7.004-0.646,10.149
	c1.724,2.889,4.526,4.699,8.405,5.432c3.578,0.302,9.741-2.501,18.49-8.405c7.932-5.474,13.211-7.478,15.84-6.012
	c2.717,1.595,4.569,2.09,5.562,1.486c1.206-0.775,2.736-0.84,4.59-0.193c6.206,1.853,12.22,1.745,18.038-0.323
	c3.06-1.078,5.991-2.564,8.793-4.461c3.318-1.423,6.185-2.306,8.598-2.65c3.146-0.518,6.1-0.237,8.858,0.84
	c2.154,0.776,3.9,2.155,5.236,4.138c1.422,1.982,2.111,4.116,2.068,6.4c-0.086,3.06-1.163,5.301-3.232,6.725
	c-1.767,1.293-4.159,1.896-7.176,1.81c-1.553,0.216-7.975-1.357-19.266-4.719c-9.914-2.889-18.212-2.91-24.892-0.066
	c-15.216,3.19-26.702,9.764-34.46,19.72c-3.965,5.172-6.983,10.969-9.051,17.392c-0.086,0.216-0.151,0.432-0.194,0.646
	c-1.939,5.474-6.422,11.207-13.447,17.197c-6.508,5.517-12.284,9.072-17.328,10.667c-7.887,2.415-13.577,4.01-17.068,4.785
	c-6.422,1.336-12.284,1.832-17.585,1.487c-10.344-0.776-19.59-3.362-27.736-7.758c-1.81-0.991-4.029-2.458-6.658-4.397
	c-2.845-2.154-4.979-3.728-6.401-4.719c-5.302-3.75-8.75-7.264-10.345-10.539c-1.121-2.284-1.143-4.59-0.064-6.917
	c1.034-2.457,2.843-3.771,5.43-3.945c2.329-0.214,4.849,1.381,7.565,4.785c1.982,2.543,4.051,2.564,6.207,0.064
	c2.888-3.318,3.771-6.68,2.65-10.086c-1.077-3.146-3.492-5.538-7.241-7.176c-7.845-0.474-13.318-1.186-16.422-2.134
	c-2.931-0.861-5.065-2.285-6.401-4.268c-2.456-3.749-2.543-6.702-0.259-8.856c0.087-0.13,0.194-0.259,0.323-0.388
	c0.302-0.302,0.582-0.604,0.841-0.905c3.276-3.062,8.944-3.232,17.004-0.518c7.585,2.586,12.197,5.689,13.834,9.31
	c1.079,2.241,2.652,6.358,4.72,12.349c1.681,4.354,3.534,8.19,5.56,11.509c1.552,2.198,3.254,4.202,5.107,6.012
	c4.138,3.924,7.823,5.281,11.056,4.073c6.206-2.37,10.064-9.137,11.573-20.301c1.25-9.612,0.668-17.865-1.745-24.761
	c-2.329-6.768-3.643-10.927-3.945-12.479c-0.991-5.388-0.086-9.482,2.716-12.284c2.111-2.112,4.806-2.672,8.082-1.681
	c3.146,0.991,5.129,2.801,5.947,5.431c0.863,2.586,0.625,5.603-0.711,9.051c-1.552,4.481-2.091,8.253-1.616,11.314
	c0.646,4.137,3.211,6.594,7.694,7.369c1.552,0.216,2.931-0.043,4.138-0.775c1.638-1.034,2.995-3.017,4.072-5.947
	c1.165-3.277,1.875-7.264,2.134-11.961c0.128-2.759-0.109-9.548-0.711-20.366c-0.173-1.337-0.28-2.759-0.323-4.268
	c-0.734-10.3-0.389-18.274,1.034-23.921c0.861-3.404,2.392-5.71,4.59-6.917c1.939-0.991,3.965-0.884,6.078,0.323
	C120.3,93.083,122.111,95.864,122.025,100.002z"/>
</svg>
