<?xml version="1.0" encoding="utf-8"?>
<!-- Generator: Adobe Illustrator 16.0.0, SVG Export Plug-In . SVG Version: 6.00 Build 0)  -->
<!DOCTYPE svg PUBLIC "-//W3C//DTD SVG 1.1//EN" "http://www.w3.org/Graphics/SVG/1.1/DTD/svg11.dtd">
<svg version="1.1" id="Layer_1" xmlns="http://www.w3.org/2000/svg" xmlns:xlink="http://www.w3.org/1999/xlink" x="0px" y="0px"
	 width="300px" height="300px" viewBox="0 0 300 300" enable-background="new 0 0 300 300" xml:space="preserve">
<path fill-rule="evenodd" clip-rule="evenodd" fill="#35C6F4" d="M290.229,126.083l0.115,1c-0.076,0.77-0.487,1.423-1.23,1.962
	c-0.668,0.488-1.425,0.667-2.271,0.539c-1.334-0.206-2.348-0.27-3.04-0.192c-1.309,0.154-2.22,0.333-2.732,0.539
	c-0.282,0.128-0.667,0.385-1.154,0.77c-0.437,0.333-0.872,0.397-1.308,0.192c-0.462-0.231-0.591-0.718-0.386-1.462
	c0.231-0.873,0.616-1.628,1.155-2.271c0.59-0.692,1.5-1.398,2.731-2.116c2.771-1.385,4.951-1.628,6.541-0.731
	C289.446,124.775,289.972,125.365,290.229,126.083z M287.612,124.929c-0.154-0.179-0.41-0.295-0.77-0.346
	c-0.488-0.078-0.987-0.025-1.501,0.154c-0.514,0.18-0.834,0.398-0.962,0.654c-0.051,0.128-0.051,0.243,0,0.346
	c0.076,0.077,0.218,0.064,0.423-0.038c0.282-0.154,0.552-0.231,0.808-0.231c0.18,0,0.398,0.052,0.655,0.154
	c0.744,0.333,1.218,0.27,1.423-0.192C287.767,125.274,287.74,125.108,287.612,124.929z M277.8,139.704
	c-0.282,0.154-0.437,0.359-0.462,0.616c-0.051,0.282,0.025,0.525,0.231,0.73c0.205,0.231,0.475,0.372,0.808,0.424
	c0.333,0.025,0.629-0.04,0.885-0.193c0.257-0.154,0.397-0.359,0.424-0.616c0.051-0.256-0.026-0.5-0.231-0.73
	c-0.205-0.205-0.461-0.333-0.77-0.385C278.352,139.499,278.057,139.551,277.8,139.704z M278.954,138.974
	c1.026,0.256,1.783,0.795,2.271,1.616c0.513,0.821,0.615,1.706,0.308,2.655c-0.334,0.924-0.975,1.616-1.924,2.078
	c-1.231,0.641-2.693,1.09-4.387,1.347c-2.026,0.333-3.258,0.141-3.694-0.577c-0.461-0.77-0.076-1.989,1.154-3.655
	c1.129-1.54,2.232-2.579,3.31-3.118C276.94,138.833,277.928,138.717,278.954,138.974z M293.191,150.556l-0.115,0.731
	c-0.205,0.538-0.629,0.923-1.27,1.154c-0.591,0.23-1.181,0.218-1.771-0.039c-0.897-0.41-1.616-0.654-2.155-0.73
	c-0.975-0.129-1.667-0.167-2.078-0.116c-0.23,0-0.563,0.104-1,0.309c-0.385,0.153-0.706,0.115-0.962-0.116
	c-0.282-0.256-0.282-0.628,0-1.116c0.334-0.59,0.757-1.051,1.271-1.385c0.564-0.41,1.359-0.756,2.385-1.039
	c2.258-0.437,3.887-0.179,4.888,0.77C292.871,149.439,293.14,149.966,293.191,150.556z M291.46,149.594
	c0.256-0.283,0.115-0.539-0.423-0.77c-0.359-0.154-0.744-0.218-1.154-0.192c-0.411,0.025-0.681,0.128-0.809,0.307
	c-0.052,0.078-0.077,0.154-0.077,0.232c0.051,0.076,0.154,0.089,0.309,0.038c0.41-0.103,0.77-0.025,1.076,0.23
	C290.87,149.825,291.229,149.875,291.46,149.594z M296,161.406L3.561,161.484c0-0.309,0.449-0.719,1.347-1.232
	c0.923-0.513,2.09-1,3.501-1.462c3.515-1.181,6.811-1.744,9.889-1.693h0.077c1.411,0.052,2.642-0.218,3.694-0.808
	c0.975-0.539,1.603-1.206,1.885-2.001c0.308-0.821,0.192-1.552-0.346-2.193c-0.59-0.719-1.604-1.167-3.04-1.347
	c-1.796-0.205-3.117-0.423-3.964-0.654c-1.128-0.282-1.975-0.68-2.54-1.193c-1.359-1.129-1.885-2.693-1.577-4.694
	c0.282-1.949,1.154-3.386,2.616-4.31c4.13-2.565,9.158-2.449,15.084,0.347c3.592,1.693,7.926,4.708,13.005,9.042
	c2.335,2.001,5.426,3.424,9.274,4.271c2.052,0.437,4.181,0.68,6.387,0.731h0.039c3.309-0.308,6.529-0.334,9.658-0.077
	c3.488,0.308,6.67,0.988,9.543,2.039c4.129,1.488,8.593,2.091,13.39,1.81c3.412-0.206,7.888-0.976,13.429-2.31
	c3.104-0.744,5.387-2.104,6.85-4.078c1.309-1.822,1.706-3.797,1.193-5.926c-0.514-2.129-1.809-3.861-3.886-5.195
	c-2.334-1.462-5.195-2.129-8.581-2.001c-3.335,0.128-5.939-0.654-7.811-2.347c-1.693-1.513-2.501-3.438-2.424-5.771
	c0.051-2.309,0.937-4.348,2.655-6.119c1.873-1.924,4.374-3.026,7.503-3.309c5.233-0.487,9.658,0.962,13.275,4.349
	c1.411,1.309,2.886,3.078,4.425,5.31c0.923,1.283,2.271,3.323,4.04,6.118c1.642,2.489,3.117,4.49,4.425,6.003
	c1.795,2.052,3.694,3.707,5.694,4.964c4.875,3.053,11.031,4.079,18.47,3.078c5.541-0.77,10.082-0.884,13.622-0.346
	c2.463,0.359,4.822,1.142,7.08,2.348c0.615,0.333,1.488,0.82,2.617,1.462c1,0.539,1.924,0.949,2.77,1.231
	c2.283,0.743,5.104,0.923,8.466,0.538c10.363-1.154,20.124-5.63,29.282-13.428c8.414-7.158,15.609-12.147,21.586-14.969
	c9.8-4.643,18.125-4.835,24.974-0.577c1.514,0.949,2.642,2.117,3.386,3.501c0.744,1.385,1.077,2.886,1.001,4.502
	c-0.18,3.668-1.309,6.169-3.387,7.503c-1,0.642-2.373,1.154-4.117,1.539c-1.334,0.308-3.309,0.629-5.926,0.962
	c-2.129,0.257-3.655,0.949-4.579,2.078c-0.795,0.949-1.013,2.014-0.653,3.194c0.358,1.154,1.103,2.001,2.231,2.539
	c1.257,0.591,2.629,0.578,4.117-0.038c3.463-1.411,6.85-2.065,10.158-1.962c2.72,0.102,5.694,0.73,8.927,1.885
	c1.001,0.385,3.912,1.629,8.735,3.732c3.745,1.616,6.978,2.783,9.696,3.502L296,161.406z M9.179,126.622l0.154-1.077
	c0.308-0.795,0.91-1.437,1.809-1.924c1.821-0.949,4.245-0.616,7.272,1c1.36,0.873,2.36,1.693,3.001,2.463
	c0.59,0.719,0.988,1.565,1.193,2.54c0.205,0.846,0.051,1.385-0.462,1.616c-0.487,0.231-0.975,0.142-1.462-0.269
	c-0.513-0.436-0.924-0.718-1.231-0.846c-0.564-0.257-1.564-0.488-3.001-0.693c-0.795-0.128-1.937-0.103-3.424,0.077
	c-0.923,0.128-1.757-0.089-2.501-0.654C9.705,128.212,9.256,127.468,9.179,126.622z M14.874,124.198
	c-0.59-0.205-1.167-0.283-1.731-0.231c-0.385,0.051-0.667,0.18-0.846,0.385c-0.154,0.18-0.192,0.372-0.116,0.577
	c0.256,0.513,0.795,0.59,1.616,0.231c0.282-0.128,0.526-0.18,0.731-0.154c0.257,0,0.551,0.09,0.885,0.269
	c0.205,0.154,0.359,0.167,0.461,0.04c0.077-0.078,0.077-0.192,0-0.347C15.746,124.685,15.413,124.428,14.874,124.198z
	 M17.067,141.744c0.231,0.436,0.706,0.718,1.424,0.846c0.847,0.103,1.847-0.051,3.001-0.461c0.744-0.282,1.424-0.423,2.039-0.423
	c0.795-0.025,1.655,0.141,2.579,0.5c0.641,0.257,1.077,0.27,1.308,0.039c0.206-0.206,0.219-0.462,0.039-0.77
	c-0.385-0.617-1.424-1.142-3.117-1.579c-1.744-0.41-3.412-0.512-5.002-0.307c-0.924,0.127-1.591,0.423-2.001,0.884
	C16.952,140.885,16.862,141.308,17.067,141.744z M10.295,154.211c-1.026-0.18-1.924-0.449-2.694-0.808
	c-0.564-0.282-0.936-0.706-1.116-1.271c-0.205-0.564-0.154-1.103,0.154-1.615c0.308-0.488,0.77-0.809,1.385-0.962
	c0.616-0.154,1.219-0.09,1.809,0.192c0.642,0.333,1.309,0.962,2.001,1.885c0.744,1.001,0.975,1.731,0.692,2.193
	C12.27,154.288,11.526,154.416,10.295,154.211z M100.874,123.313c-0.411,0.077-0.744,0.257-1,0.539
	c-0.256,0.282-0.359,0.59-0.308,0.924c0.052,0.359,0.257,0.628,0.616,0.808c0.333,0.205,0.718,0.269,1.154,0.192
	c0.436-0.077,0.782-0.256,1.039-0.539c0.256-0.282,0.347-0.59,0.269-0.924c-0.051-0.358-0.256-0.628-0.615-0.808
	C101.694,123.325,101.31,123.261,100.874,123.313z M8.756,149.979c-0.18-0.103-0.359-0.128-0.539-0.077
	c-0.205,0.026-0.372,0.103-0.5,0.231c-0.128,0.127-0.18,0.269-0.154,0.423c0.026,0.154,0.116,0.282,0.27,0.385
	c0.18,0.103,0.359,0.128,0.539,0.077c0.206,0,0.372-0.064,0.5-0.193c0.128-0.154,0.18-0.307,0.154-0.461
	C8.999,150.209,8.909,150.081,8.756,149.979z M97.988,126.506c-0.205-0.283-0.551-0.462-1.039-0.539
	c-0.898-0.129-1.783,0.321-2.655,1.347c-0.873,1.051-1.385,2.283-1.539,3.694c-0.128,1,0.025,1.809,0.461,2.424
	c0.359,0.539,0.834,0.821,1.424,0.846c0.564,0.025,1-0.23,1.309-0.77c0.358-0.59,0.436-1.411,0.23-2.463
	c-0.154-0.77-0.154-1.398,0-1.885c0.18-0.616,0.641-1.154,1.385-1.617C98.104,127.186,98.245,126.84,97.988,126.506z
	 M93.102,142.359c1.59,0.744,3.232,2.207,4.925,4.387c1.873,2.385,2.488,4.144,1.847,5.271c-0.616,1.104-2.412,1.449-5.387,1.039
	c-2.463-0.359-4.604-0.962-6.425-1.809c-1.412-0.641-2.361-1.629-2.848-2.963c-0.488-1.359-0.385-2.655,0.307-3.886
	c0.693-1.205,1.784-2.014,3.271-2.424C90.254,141.564,91.69,141.693,93.102,142.359z M90.484,143.014
	c-0.385-0.231-0.808-0.308-1.269-0.231c-0.488,0.077-0.873,0.282-1.154,0.616c-0.283,0.307-0.398,0.654-0.347,1.039
	c0.077,0.385,0.307,0.68,0.692,0.885c0.411,0.231,0.847,0.307,1.308,0.231c0.488-0.078,0.873-0.283,1.154-0.616
	c0.283-0.308,0.385-0.655,0.308-1.04C91.126,143.514,90.895,143.219,90.484,143.014z M133.851,122.235
	c0.436-0.052,0.872-0.039,1.308,0.039c1.36,0.282,2.463,1.142,3.31,2.578c0.795,1.309,1,2.719,0.615,4.232
	c-0.385,1.514-0.577,2.283-0.577,2.309c-0.205,1.052-0.282,2.129-0.23,3.232c0.077,2.385,0.256,4.066,0.538,5.041
	c0.154,0.513,0.539,1.245,1.154,2.194c0.564,0.872,0.616,1.68,0.154,2.423c-0.461,0.795-1.359,0.949-2.693,0.462
	c-1.539-0.539-2.821-1.347-3.848-2.424c-1.18-1.206-2.322-2.976-3.425-5.311c-2.026-5.259-2.104-9.273-0.231-12.043
	c0.924-1.412,2.065-2.296,3.425-2.655L133.851,122.235z M130.733,128.122c-0.051,0.949,0.192,1.604,0.731,1.962
	c0.283,0.18,0.552,0.244,0.808,0.192c0.308-0.077,0.424-0.32,0.347-0.73c-0.128-0.564-0.077-1.052,0.154-1.462
	c0.205-0.334,0.552-0.667,1.039-1c0.744-0.488,1.193-0.987,1.347-1.5c0.129-0.461,0.013-0.808-0.346-1.039
	c-0.359-0.257-0.809-0.321-1.347-0.192c-0.616,0.153-1.154,0.513-1.617,1.077C131.183,126.224,130.811,127.122,130.733,128.122z
	 M149.78,135.01c1.206-1.411,3.015-2.835,5.426-4.271c5.516-2.745,9.876-3.22,13.083-1.424c1.616,0.898,2.667,2.065,3.155,3.502
	l0.154,0.578c0.102,0.461,0.127,0.923,0.076,1.385c-0.154,1.539-0.975,2.848-2.463,3.925c-0.846,0.615-1.641,0.987-2.385,1.116
	c-0.59,0.103-1.309,0.089-2.155-0.038l-2.539-0.385c-1.154-0.128-2.348-0.116-3.579,0.038c-2.564,0.308-4.361,0.654-5.387,1.039
	c-0.564,0.231-1.321,0.731-2.271,1.501c-0.897,0.693-1.77,0.834-2.616,0.423c-0.924-0.436-1.181-1.411-0.77-2.924
	C147.972,137.729,148.729,136.241,149.78,135.01z M37.922,125.314L39,124.697c0.897-0.41,1.847-0.59,2.847-0.538
	c3.207,0.128,6.234,2.437,9.082,6.926c1.154,2.155,1.859,4.028,2.116,5.618c0.205,1.411,0.089,2.848-0.346,4.31
	c-0.385,1.309-1.026,1.924-1.924,1.847c-0.795-0.077-1.372-0.577-1.731-1.5c-0.359-1-0.706-1.706-1.039-2.117
	c-0.59-0.744-1.757-1.821-3.501-3.232c-0.846-0.667-1.732-1.218-2.655-1.654l-2.039-0.847c-1.359-0.539-2.321-1.475-2.886-2.809
	c-0.641-1.488-0.667-2.834-0.078-4.04c0.18-0.359,0.411-0.693,0.693-1.001L37.922,125.314z M29.38,142.667
	c-0.077,0.231-0.039,0.474,0.115,0.731c0.128,0.23,0.346,0.41,0.654,0.538c0.308,0.103,0.59,0.116,0.846,0.039
	c0.283-0.078,0.462-0.231,0.539-0.462c0.102-0.23,0.077-0.474-0.077-0.731c-0.153-0.231-0.385-0.411-0.692-0.538
	c-0.283-0.103-0.564-0.116-0.847-0.039C29.637,142.283,29.457,142.437,29.38,142.667z M42.848,126.006
	c-0.359,0.103-0.552,0.321-0.577,0.655c-0.052,0.333,0.089,0.654,0.423,0.962c0.359,0.333,0.885,0.538,1.578,0.615
	c0.436,0.051,0.795,0.167,1.078,0.347c0.359,0.205,0.68,0.551,0.962,1.039c0.206,0.359,0.411,0.5,0.616,0.423
	c0.154-0.051,0.244-0.206,0.269-0.461c0.052-0.488-0.205-1.091-0.77-1.809c-0.616-0.743-1.321-1.282-2.116-1.616
	C43.72,125.904,43.233,125.852,42.848,126.006z M64.012,121.196c0.461,0.257,1.142,0.308,2.039,0.154
	c0.564-0.103,1.027-0.089,1.385,0.039c0.462,0.128,0.847,0.436,1.154,0.923c0.231,0.359,0.475,0.461,0.731,0.308
	c0.23-0.128,0.385-0.359,0.462-0.693c0.153-0.615-0.116-1.257-0.809-1.924c-0.718-0.693-1.59-1.09-2.616-1.193
	c-0.744-0.103-1.385,0.013-1.924,0.347c-0.488,0.282-0.77,0.628-0.847,1.039C63.485,120.632,63.627,120.965,64.012,121.196z
	 M60.471,141.513l0.577-0.347c0.513-0.23,1.052-0.346,1.616-0.346c1.77,0.025,3.489,1.283,5.156,3.771
	c0.667,1.18,1.078,2.219,1.232,3.117c0.154,0.77,0.115,1.565-0.116,2.386c-0.18,0.744-0.513,1.104-1,1.077
	c-0.461-0.025-0.795-0.295-1-0.808c-0.23-0.564-0.436-0.962-0.615-1.192c-0.334-0.411-1.001-0.988-2.001-1.732
	c-0.564-0.437-1.449-0.885-2.655-1.347c-0.77-0.283-1.32-0.796-1.654-1.539c-0.359-0.821-0.385-1.565-0.078-2.232L60.471,141.513z
	 M63.165,117.579l1.193-0.423c1.026-0.256,2.052-0.269,3.078-0.038c3.258,0.744,5.926,3.719,8.004,8.927
	c0.795,2.437,1.18,4.502,1.154,6.195c-0.051,1.513-0.436,2.988-1.154,4.425c-0.641,1.282-1.411,1.795-2.309,1.539
	c-0.846-0.231-1.36-0.847-1.539-1.847c-0.18-1.129-0.398-1.937-0.654-2.424c-0.462-0.897-1.462-2.231-3.001-4.001
	c-0.744-0.847-1.552-1.578-2.424-2.194c-0.026-0.025-0.68-0.449-1.962-1.269c-1.309-0.847-2.129-2.014-2.463-3.502
	c-0.358-1.641-0.115-3.026,0.731-4.155c0.23-0.359,0.526-0.68,0.885-0.962L63.165,117.579z M62.934,142.245
	c-0.051,0.487,0.321,0.757,1.116,0.808c0.256,0.051,0.461,0.115,0.616,0.192c0.205,0.128,0.385,0.32,0.539,0.577
	c0.128,0.206,0.244,0.282,0.347,0.231c0.077-0.051,0.127-0.142,0.153-0.269c0.026-0.283-0.128-0.616-0.461-1.001
	c-0.359-0.411-0.757-0.705-1.193-0.885c-0.333-0.103-0.603-0.128-0.808-0.077C63.037,141.898,62.934,142.039,62.934,142.245z
	 M222.852,121.234c0.463,1.488,0.218,3.027-0.73,4.618c-0.513,0.873-1.09,1.526-1.732,1.963c-0.486,0.333-1.154,0.603-2,0.808
	c-1.643,0.436-2.476,0.667-2.501,0.692c-1.104,0.359-2.181,0.847-3.232,1.462c-2.231,1.334-3.732,2.385-4.502,3.155
	c-0.437,0.437-0.949,1.193-1.539,2.27c-0.539,1-1.283,1.488-2.232,1.463c-1-0.051-1.629-0.847-1.886-2.386
	c-0.256-1.77-0.141-3.451,0.347-5.041c0.539-1.745,1.643-3.771,3.31-6.08c3.95-4.72,7.747-6.913,11.39-6.58
	c1.847,0.179,3.284,0.821,4.31,1.924l0.385,0.462C222.492,120.35,222.698,120.773,222.852,121.234z M188.105,123.928
	c0.821-0.077,1.219-0.358,1.193-0.846c-0.025-0.18-0.142-0.308-0.347-0.385c-0.205-0.103-0.475-0.089-0.808,0.039
	c-0.488,0.18-0.911,0.475-1.271,0.885c-0.359,0.385-0.526,0.718-0.5,1c0,0.154,0.052,0.256,0.153,0.308
	c0.104,0.051,0.218-0.026,0.347-0.231c0.18-0.282,0.372-0.487,0.577-0.615C187.631,124.005,187.849,123.954,188.105,123.928z
	 M160.632,132.047c0.564-0.308,1.077-0.475,1.539-0.5c0.41,0,0.847,0.116,1.309,0.347c0.718,0.333,1.347,0.449,1.885,0.346
	c0.487-0.103,0.821-0.333,1.001-0.693c0.153-0.333,0.103-0.667-0.154-1c-0.308-0.359-0.821-0.59-1.539-0.693
	c-0.975-0.154-1.988-0.051-3.04,0.308c-1,0.359-1.615,0.795-1.847,1.308c-0.128,0.282-0.128,0.5,0,0.654
	C159.913,132.304,160.195,132.278,160.632,132.047z M237.474,131.663c-0.154-0.385-0.461-0.642-0.924-0.77
	c-0.436-0.128-0.91-0.103-1.423,0.077c-0.488,0.18-0.847,0.474-1.078,0.885c-0.256,0.411-0.308,0.808-0.153,1.193
	c0.153,0.385,0.449,0.641,0.885,0.77c0.462,0.154,0.937,0.128,1.424-0.077c0.513-0.18,0.885-0.475,1.115-0.885
	C237.577,132.445,237.628,132.047,237.474,131.663z M240.706,129.7c-0.334,0.513-0.334,0.937,0,1.27
	c0.385,0.411,1.129,0.397,2.232-0.038c1.513-0.616,2.911-0.911,4.193-0.885c1.052,0.025,2.193,0.27,3.425,0.731
	c1.924,0.693,3.579,0.937,4.964,0.731c1.18-0.18,1.962-0.642,2.347-1.385c0.359-0.693,0.219-1.398-0.423-2.116
	c-0.719-0.744-1.834-1.219-3.348-1.424c-2.642-0.359-5.413-0.192-8.312,0.5C243.015,127.776,241.321,128.648,240.706,129.7z
	 M216.695,120.426c0-0.385-0.192-0.667-0.577-0.846c-0.41-0.23-0.962-0.257-1.654-0.077c-0.976,0.283-1.86,0.796-2.655,1.539
	c-0.795,0.744-1.192,1.398-1.192,1.963c0,0.282,0.089,0.474,0.269,0.577c0.205,0.128,0.449,0,0.731-0.385
	c0.385-0.513,0.808-0.873,1.27-1.078c0.359-0.154,0.782-0.23,1.271-0.23c0.795,0.025,1.423-0.129,1.885-0.462
	C216.452,121.17,216.67,120.837,216.695,120.426z M192.415,123.236c0.309,0.692,0.257,1.461-0.154,2.309
	c-0.358,0.744-0.936,1.27-1.731,1.578c-1.256,0.461-2.18,0.898-2.77,1.308c-1.053,0.77-1.758,1.373-2.116,1.809
	c-0.18,0.205-0.398,0.603-0.655,1.192c-0.205,0.513-0.552,0.783-1.038,0.809c-0.514,0.026-0.86-0.346-1.039-1.116
	c-0.231-0.847-0.257-1.681-0.077-2.501c0.18-0.898,0.628-1.962,1.347-3.194c1.744-2.54,3.553-3.81,5.426-3.81
	c0.923,0,1.667,0.257,2.231,0.77L192.415,123.236z M187.605,141.128c-0.462-0.025-0.886,0.077-1.271,0.307
	c-0.385,0.232-0.603,0.539-0.653,0.924c-0.052,0.385,0.076,0.731,0.385,1.04c0.308,0.307,0.705,0.487,1.192,0.538
	c0.488,0.026,0.911-0.077,1.271-0.308c0.385-0.23,0.603-0.539,0.653-0.923c0.025-0.385-0.102-0.731-0.385-1.039
	C188.49,141.359,188.093,141.18,187.605,141.128z M183.681,140.897c1.359-0.718,2.796-0.923,4.31-0.616
	c1.514,0.334,2.643,1.091,3.387,2.271c0.77,1.18,0.948,2.45,0.538,3.81c-0.437,1.385-1.334,2.438-2.693,3.155
	c-1.771,0.975-3.874,1.693-6.311,2.155c-2.95,0.564-4.759,0.32-5.426-0.731c-0.718-1.078-0.218-2.86,1.501-5.349
	C180.576,143.309,182.142,141.744,183.681,140.897z"/>
</svg>
