<?xml version="1.0" encoding="utf-8"?>
<!-- Generator: Adobe Illustrator 16.0.0, SVG Export Plug-In . SVG Version: 6.00 Build 0)  -->
<!DOCTYPE svg PUBLIC "-//W3C//DTD SVG 1.1//EN" "http://www.w3.org/Graphics/SVG/1.1/DTD/svg11.dtd">
<svg version="1.1" id="Layer_1" xmlns="http://www.w3.org/2000/svg" xmlns:xlink="http://www.w3.org/1999/xlink" x="0px" y="0px"
	 width="300px" height="300px" viewBox="0 0 300 300" enable-background="new 0 0 300 300" xml:space="preserve">
<path fill-rule="evenodd" clip-rule="evenodd" fill="#010101" d="M13.814,96.072l-1.102-4.774c1.854,5.456,4.372,9.828,7.554,13.115
	c3.288,3.427,7.327,6.016,12.118,7.765c8.673,3.252,18.641,4.826,29.902,4.721c1.434,0,3.865-0.14,7.292-0.42
	c3.077-0.174,5.491-0.245,7.239-0.209c6.365,0.209,10.894,1.538,13.587,3.987c1.854,1.678,2.798,3.742,2.833,6.189
	c0.07,2.519-0.822,4.564-2.675,6.139c-0.77,0.734-1.749,1.451-2.938,2.15l-1.469,0.945c-0.209,0.07-0.297,0.297-0.262,0.681
	c0,0.21,0.035,0.507,0.105,0.893c0.419,3.007,0.909,5.385,1.469,7.134c1.679,5.176,4.197,9.408,7.554,12.695
	c3.322,3.288,7.397,5.561,12.223,6.82c2.518,0.665,4.966,1.101,7.344,1.312h7.712c5.631,0.105,10.37,1.259,14.216,3.462
	c2.169,1.12,4.04,2.605,5.613,4.459c0.944,1.015,1.731,1.959,2.361,2.833c0.104,0.21-0.104,0.192-0.629-0.053l-1.836-0.786
	c-4.161-1.784-8.97-2.816-14.426-3.096c-5.246-0.21-10.999,0.351-17.259,1.68c1.994-1.435,4.459-2.554,7.397-3.358
	c2.063-0.63,4.739-1.137,8.026-1.521c-2.973-0.594-8.096-1.084-15.371-1.469c-3.777-0.175-6.208-0.314-7.292-0.419
	c-2.728-0.314-5.124-0.77-7.187-1.364c-4.932-1.504-8.849-3.848-11.751-7.029c-3.252-3.498-5.456-7.852-6.609-13.063
	c-0.49-2.203-0.787-4.756-0.892-7.659c0.209-1.574,0.262-2.781,0.157-3.62c-0.105-0.77-0.752-1.644-1.941-2.623
	c-2.868-2.309-7.432-4.197-13.692-5.666c-1.889-0.489-4.354-0.979-7.397-1.468c-4.407-0.735-6.89-1.155-7.449-1.259
	c-4.546-0.909-9.286-2.571-14.217-4.984c-4.442-2.203-8.289-5.229-11.541-9.076C17.294,105.147,15.038,100.793,13.814,96.072z
	 M15.808,117.212c3.602,2.554,8.131,4.634,13.587,6.243c3.288,0.909,5.771,1.452,7.449,1.626c2.518,0.245,4.827,0.822,6.925,1.731
	c3.952,1.644,8.097,4.633,12.433,8.971c1.574,1.574,3.707,4.162,6.4,7.765c-0.21,0.035-0.63-0.141-1.259-0.525
	c-0.804-0.561-1.242-0.84-1.312-0.84l-3.252-1.626c-1.749-0.839-3.969-1.608-6.663-2.308c-1.504-0.384-3.864-0.716-7.082-0.996
	c-3.217-0.315-5.613-0.683-7.187-1.103c-5.351-1.398-10.055-3.374-14.112-5.927c-3.742-2.378-7.151-5.84-10.229-10.388
	c-2.168-3.182-3.987-7.396-5.456-12.643c0.175,0.035,0.507,0.384,0.997,1.049c0.245,0.35,0.542,0.822,0.892,1.416l2.413,2.729
	C12.03,114.206,13.849,115.814,15.808,117.212z M10.247,132.426c3.498,2.343,5.369,3.585,5.613,3.725
	c1.714,0.875,3.935,1.731,6.663,2.571c4.162,1.225,9.25,2.011,15.266,2.361c0.385,0.035,2.868,0.088,7.449,0.158
	c2.973,0,5.421,0.28,7.345,0.839c3.427,0.909,7.764,3.323,13.01,7.24l2.833,2.307c-4.616-1.608-9.6-2.535-14.951-2.78
	c-1.958-0.035-4.319,0.122-7.082,0.473c-1.749,0.209-3.06,0.419-3.935,0.629l-3.62,0.839c-4.477,0.665-9.233-0.174-14.269-2.518
	c-4.092-1.924-7.782-5.229-11.069-9.915C12.205,136.57,11.121,134.594,10.247,132.426z M20.424,152.309
	c2.273,0.874,4.774,1.521,7.502,1.94c4.546,0.734,9.425,0.823,14.636,0.263c1.644-0.175,4.075-0.577,7.292-1.206
	c2.938-0.386,5.438-0.455,7.502-0.21c4.861,0.524,9.635,2.133,14.321,4.825l2.151,1.312c-2.518-0.488-4.826-0.663-6.925-0.524
	c-2.203,0.28-4.668,0.893-7.396,1.836c-5.806,1.925-10.51,3.113-14.112,3.568c-4.896,0.56-9.774-0.21-14.636-2.309
	c-4.267-1.889-8.376-4.722-12.328-8.498c-1.539-1.435-2.885-2.798-4.04-4.092l2.571,1.469
	C18.046,151.312,19.2,151.854,20.424,152.309z M48.018,126.393c6.121,0.665,10.93,1.609,14.427,2.833
	c2.448,0.874,4.826,1.941,7.135,3.2c0.875,0.49,1.854,1.138,2.938,1.942c0.84,0.629,1.277,0.996,1.312,1.102
	c0.14,0.349,0.123,1.032-0.052,2.046c-0.14,5.316,0.629,10.107,2.308,14.374c1.923,4.896,4.862,8.673,8.813,11.332
	c0.979,0.664,2.22,1.24,3.725,1.73c-4.791-0.49-9.023-2.518-12.695-6.085c-3.183-3.078-5.806-7.1-7.869-12.066
	c-2.133-5.036-4.582-9.128-7.344-12.276c-3.183-3.637-7.1-6.26-11.751-7.869L48.018,126.393z M40.726,168.204
	c1.679,0,4.004-0.21,6.977-0.63c1.889-0.314,4.337-0.927,7.344-1.836c3.672-1.119,6.103-1.819,7.292-2.099
	c6.33-1.434,12.52-1.102,18.57,0.997c-2.938,0.594-7.432,2.099-13.482,4.511c-3.077,1.26-5.42,2.187-7.029,2.781
	c-2.728,0.943-5.141,1.521-7.239,1.73c-6.96,0.734-13.377-1.451-19.253-6.558C35.865,167.837,38.138,168.204,40.726,168.204z
	 M99.481,170.04c-0.105,0.175-0.263,0.35-0.473,0.525l-1.049,1.573c-0.664,1.014-1.206,2.168-1.626,3.462
	c-0.105,0.419-0.14,1.609-0.105,3.567c0.07,1.434-0.228,2.448-0.892,3.043c-0.63,0.56-1.609,0.839-2.938,0.839
	c-0.734,0-1.259-0.069-1.574-0.21c-0.28-0.14-0.577-0.629-0.892-1.469c-0.839-1.959-0.297-3.934,1.626-5.928
	c2.168-2.344,4.914-4.319,8.236-5.928C99.796,169.655,99.691,169.83,99.481,170.04z M83.69,170.722
	c-2.868,1.854-4.843,3.323-5.928,4.407c-1.119,1.118-1.976,1.923-2.57,2.413c-1.014,0.804-2.029,1.346-3.043,1.626
	c-1.224,0.35-2.361,0.367-3.41,0.053c-1.119-0.351-1.871-1.103-2.255-2.256c-0.489-1.574,0.577-3.218,3.2-4.932
	c1.364-0.874,3.567-1.767,6.61-2.675c3.987-1.225,8.638-2.099,13.954-2.623L83.69,170.722z M220.979,178.434
	c0.56,1.084,0.629,2.063,0.209,2.938c-0.455,0.944-1.293,1.382-2.518,1.312c-2.273-0.034-4.005-1.259-5.193-3.672
	c-0.386-1.469-0.822-2.536-1.312-3.2c-0.455-0.699-1.276-1.645-2.465-2.833c-2.449-2.063-4.267-3.654-5.456-4.773
	c2.972,0.909,6.137,2.186,9.495,3.829C217.376,173.992,219.789,176.126,220.979,178.434z M263.104,125.082
	c1.714-0.174,4.214-0.717,7.502-1.626c5.421-1.609,9.932-3.689,13.534-6.243c1.959-1.398,3.777-3.007,5.456-4.826l2.413-2.729
	c0.351-0.594,0.665-1.066,0.944-1.416c0.455-0.665,0.787-1.014,0.997-1.049c-1.504,5.246-3.34,9.46-5.508,12.643
	c-3.078,4.547-6.488,8.01-10.23,10.388c-4.056,2.553-8.761,4.529-14.111,5.927c-1.574,0.42-3.952,0.787-7.135,1.103
	c-3.253,0.28-5.63,0.612-7.134,0.996c-2.693,0.7-4.914,1.469-6.663,2.308l-3.253,1.626c-0.035,0-0.472,0.28-1.311,0.84
	c-0.631,0.384-1.032,0.56-1.207,0.525c2.658-3.603,4.792-6.191,6.4-7.765c4.301-4.337,8.429-7.327,12.38-8.971
	C258.277,125.903,260.586,125.327,263.104,125.082z M209.7,166.735c5.315,0.524,9.967,1.398,13.954,2.623
	c3.042,0.908,5.263,1.801,6.662,2.675c2.588,1.714,3.637,3.357,3.147,4.932c-0.35,1.153-1.102,1.905-2.256,2.256
	c-1.014,0.314-2.133,0.297-3.357-0.053c-1.049-0.28-2.081-0.822-3.095-1.626c-0.56-0.49-1.416-1.295-2.571-2.413
	c-1.084-1.084-3.061-2.554-5.928-4.407L209.7,166.735z M231.522,151.626l2.833-2.307c5.246-3.917,9.6-6.331,13.063-7.24
	c1.889-0.559,4.319-0.839,7.292-0.839c4.581-0.07,7.064-0.123,7.45-0.158c6.049-0.35,11.138-1.136,15.266-2.361
	c2.727-0.839,4.947-1.696,6.661-2.571c0.245-0.139,2.116-1.381,5.614-3.725c-0.875,2.168-1.959,4.145-3.253,5.929
	c-3.288,4.687-6.977,7.991-11.069,9.915c-5.035,2.343-9.793,3.183-14.269,2.518l-3.62-0.839c-0.874-0.21-2.186-0.42-3.935-0.629
	c-2.763-0.351-5.124-0.507-7.082-0.473C241.122,149.091,236.139,150.018,231.522,151.626z M233.045,158.708
	c-2.099-0.139-4.407,0.036-6.926,0.524l2.15-1.312c4.687-2.692,9.462-4.301,14.322-4.825c2.063-0.245,4.563-0.176,7.502,0.21
	c3.218,0.629,5.665,1.031,7.345,1.206c5.176,0.561,10.055,0.472,14.636-0.263c2.692-0.419,5.176-1.066,7.449-1.94
	c1.225-0.455,2.379-0.997,3.463-1.626l2.57-1.469c-1.154,1.294-2.501,2.658-4.04,4.092c-3.951,3.776-8.062,6.609-12.328,8.498
	c-4.86,2.099-9.74,2.868-14.636,2.309c-3.603-0.455-8.307-1.644-14.111-3.568C237.713,159.601,235.247,158.988,233.045,158.708z
	 M232.52,169.147c-6.051-2.412-10.545-3.917-13.482-4.511c6.05-2.099,12.241-2.431,18.571-0.997
	c1.188,0.279,3.619,0.979,7.292,2.099c3.007,0.909,5.456,1.521,7.344,1.836c2.973,0.42,5.316,0.63,7.03,0.63
	c2.554,0,4.809-0.367,6.767-1.103c-5.875,5.106-12.293,7.292-19.253,6.558c-2.098-0.209-4.511-0.787-7.239-1.73
	C237.94,171.334,235.598,170.407,232.52,169.147z M200.938,170.565c-0.21-0.176-0.367-0.351-0.473-0.525
	c-0.209-0.21-0.314-0.385-0.314-0.524c3.357,1.608,6.12,3.584,8.289,5.928c1.889,1.994,2.413,3.969,1.574,5.928
	c-0.314,0.84-0.612,1.329-0.893,1.469c-0.314,0.141-0.839,0.21-1.574,0.21c-1.327,0-2.308-0.279-2.938-0.839
	c-0.665-0.595-0.962-1.609-0.892-3.043c0.035-1.958,0-3.148-0.105-3.567c-0.384-1.294-0.908-2.448-1.573-3.462L200.938,170.565z
	 M227.431,134.368c1.085-0.804,2.063-1.452,2.938-1.942c2.309-1.259,4.705-2.326,7.188-3.2c3.462-1.224,8.253-2.168,14.374-2.833
	l-0.893,0.262c-4.686,1.609-8.619,4.232-11.803,7.869c-2.764,3.147-5.21,7.24-7.345,12.276c-2.027,4.966-4.65,8.988-7.869,12.066
	c-3.672,3.567-7.903,5.595-12.694,6.085c1.503-0.49,2.744-1.066,3.725-1.73c3.951-2.659,6.907-6.436,8.865-11.332
	c1.644-4.267,2.413-9.058,2.309-14.374c-0.21-1.014-0.246-1.697-0.105-2.046C226.189,135.364,226.626,134.997,227.431,134.368z
	 M163.43,168.676c3.848-2.203,8.586-3.356,14.216-3.462h7.713c2.378-0.211,4.826-0.646,7.344-1.312
	c4.826-1.26,8.901-3.532,12.223-6.82c3.358-3.287,5.876-7.519,7.555-12.695c0.561-1.749,1.049-4.127,1.47-7.134
	c0.069-0.385,0.104-0.683,0.104-0.893c0.035-0.384-0.053-0.611-0.263-0.681l-1.468-0.945c-1.155-0.7-2.134-1.416-2.939-2.15
	c-1.817-1.574-2.71-3.62-2.675-6.139c0.036-2.448,0.979-4.511,2.833-6.189c2.692-2.449,7.222-3.778,13.587-3.987
	c1.749-0.036,4.161,0.035,7.239,0.209c3.429,0.28,5.858,0.42,7.292,0.42c11.262,0.104,21.229-1.469,29.902-4.721
	c4.792-1.749,8.831-4.337,12.118-7.765c3.183-3.287,5.701-7.659,7.555-13.115l-1.102,4.774c-1.224,4.722-3.479,9.075-6.768,13.062
	c-3.252,3.847-7.1,6.873-11.541,9.076c-4.932,2.413-9.67,4.075-14.217,4.984c-0.56,0.104-3.043,0.524-7.449,1.259
	c-3.008,0.49-5.474,0.979-7.397,1.468c-6.261,1.469-10.824,3.357-13.691,5.666c-1.189,0.979-1.837,1.854-1.941,2.623
	c-0.105,0.839-0.052,2.046,0.157,3.62c-0.104,2.903-0.384,5.456-0.839,7.659c-1.189,5.211-3.41,9.565-6.662,13.063
	c-2.903,3.182-6.82,5.525-11.751,7.029c-2.064,0.595-4.46,1.05-7.188,1.364c-1.084,0.104-3.515,0.244-7.292,0.419
	c-7.274,0.385-12.398,0.875-15.371,1.469c3.288,0.385,5.964,0.892,8.027,1.521c2.938,0.805,5.402,1.924,7.396,3.358
	c-6.261-1.329-12.014-1.89-17.26-1.68c-5.456,0.279-10.247,1.312-14.374,3.096l-1.889,0.786c-0.524,0.245-0.734,0.263-0.629,0.053
	c0.629-0.874,1.416-1.818,2.36-2.833C159.391,171.281,161.262,169.796,163.43,168.676z M87.783,175.811
	c-0.455,0.664-0.892,1.731-1.312,3.2c-1.189,2.413-2.92,3.638-5.194,3.672c-1.224,0.07-2.063-0.367-2.518-1.312
	c-0.42-0.875-0.35-1.854,0.209-2.938c1.189-2.308,3.603-4.441,7.24-6.4c3.357-1.644,6.522-2.92,9.495-3.829
	c-1.189,1.119-3.008,2.71-5.456,4.773C89.059,174.166,88.237,175.111,87.783,175.811z"/>
</svg>
