<?xml version="1.0" encoding="utf-8"?>
<!-- Generator: Adobe Illustrator 16.0.0, SVG Export Plug-In . SVG Version: 6.00 Build 0)  -->
<!DOCTYPE svg PUBLIC "-//W3C//DTD SVG 1.1//EN" "http://www.w3.org/Graphics/SVG/1.1/DTD/svg11.dtd">
<svg version="1.1" id="Layer_1" xmlns="http://www.w3.org/2000/svg" xmlns:xlink="http://www.w3.org/1999/xlink" x="0px" y="0px"
	 width="400px" height="400px" viewBox="0 0 400 400" enable-background="new 0 0 400 400" xml:space="preserve">
<g>
	<path fill-rule="evenodd" clip-rule="evenodd" fill="#FFFFFF" d="M381.739,176.84c-0.76,0.549-1.585,0.824-2.473,0.824
		c2.325-10.1,0.35-17.327-5.926-21.679c6,6.783,7.089,13.872,3.264,21.267l-77.68,42.976l-81.96,42.186
		c-0.145-0.722-0.372-1.446-0.682-2.172c-0.844-1.937-2.297-3.875-4.358-5.815l151.052-100.722c0.106,1.141,1.206,4.278,3.298,9.413
		c-0.148-0.528-0.308-1.068-0.477-1.617c-0.233-5.979,0.549-9.741,2.347-11.283c5.957-0.233,10.827,3,14.609,9.698
		c2.092,5.346,2.334,9.942,0.729,13.787c0.147-4.247-0.697-8.134-2.535-11.664C382.11,166.856,382.373,171.791,381.739,176.84z
		 M375.654,170.945c0.381-5.388-1.447-8.505-5.483-9.35C373.573,163.434,375.4,166.55,375.654,170.945z M283.268,257.691
		l4.881,1.553l-4.152,2.946l0.063,5.136l-4.151-3.011l-4.785,1.71l1.521-4.912l-3.011-4.151l5.136,0.095l2.945-4.247
		L283.268,257.691z M328.525,187.394l-74.322,46.464l35.973-20.919l57.494-35.401L328.525,187.394z M235.822,165.969l-1.648,3.518
		l-1.49,0.475l0.412-2.884l-0.728-0.031l-1.396,3.612l-1.617,0.667l0.444-3.202h-0.919l-1.332,4.121l-1.394,0.666l0.253-3.011
		l-0.855-0.064l-1.109,4.153l-1.33,0.886l-0.16-2.946l-0.854,0.125l-0.538,3.835l-1.332,1.077l-0.38-2.978l-0.92,0.221l-0.348,3.993
		l-1.078,0.951l-0.538-3.105l-0.856,0.285l-0.096,4.185l-1.045,1.077l-0.698-2.884l-0.919,0.222l0.223,3.2l0.095,0.476v0.506
		l-0.982,1.015l-0.951-2.726l-0.856,0.254l0.445,4.089l-0.888,1.109c-0.486-1.163-0.877-2.018-1.173-2.567l-0.729,0.506l0.856,3.582
		l-0.887,1.331l-1.333-2.536l-0.697,0.38l1.016,3.645l-0.793,1.299l-1.362-2.282l-0.761,0.444l1.173,3.518l-0.825,1.584
		l-1.489-2.187l-0.665,0.57l1.427,3.233l-0.762,1.648l-1.553-2.187l-0.603,0.666l1.585,3.074l-0.603,1.649l-1.9-2.061l-0.572,0.538
		l1.807,3.297l-0.38,1.33l-1.838-1.934l-0.572,0.762l1.965,2.947l-0.411,1.615l-2.093-2.027l-0.507,0.666l2.218,3.231l-0.125,0.285
		c0.57,0.064,1.119,0.095,1.648,0.095v-0.189l3.517-1.361v-0.794l-3.104,0.444l0.412-1.3l3.74-1.395v-0.729l-3.33,0.287l0.445-1.491
		l3.612-1.046l0.127-0.854l-3.265,0.316l0.508-1.426l3.993-1.015l0.095-0.792l-3.391,0.127l0.761-1.49l0.444-0.126l3.454-0.602
		l0.19-0.856h-3.392l0.475-0.856c0.086-0.422,0.201-0.707,0.35-0.855l3.898-0.349l0.157-0.824l-3.2-0.316l0.855-1.395l3.835-0.159
		l0.222-0.824l-3.106-0.539l0.888-1.268c0.085-0.063,0.233-0.063,0.444,0l3.327-0.031l0.381-0.634l-3.073-0.729l0.98-1.426
		l3.487,0.38l0.507-0.761l-2.853-0.855l1.046-1.3l3.646,0.603l0.316-0.824l-2.757-1.047l1.299-1.268l3.264,0.856l0.572-0.697
		l-2.6-1.236l1.109-0.983l3.423,0.983l0.507-0.602l-2.567-1.522l1.3-0.918l3.455,1.299l0.506-0.729l-2.44-1.616l1.554-0.982
		l3.042,1.584l0.603-0.634l-2.123-1.807l1.457-0.855l2.79,1.743l0.665-0.571l-1.838-1.933l1.203-0.539l3.17,2.155l0.698-0.539
		l-2.188-2.282l1.617-0.57l2.789,2.346l0.759-0.412l-1.806-2.377l0.19-0.095l2.124-0.444c-0.085-0.507-0.159-1.036-0.223-1.584
		l-2.662,0.602l0.888-3.042C236.467,165.938,236.18,165.927,235.822,165.969z M235.965,161.009c2.651,4.96,3.978,10.47,3.978,16.528
		c0,9.783-3.455,18.129-10.364,25.038c-6.909,6.91-15.245,10.363-25.006,10.363c-9.783,0-18.129-3.453-25.04-10.363
		c-5.076-5.077-8.288-10.93-9.633-17.558l0.475-0.19l3.454,1.774l0.571-0.666l-2.314-1.775l1.49-0.57l3.328,1.553l0.539-0.665
		l-2.124-1.585l1.395-0.665l3.455,1.362l0.444-0.697l-2.347-1.521l1.522-0.855l3.265,1.268l0.475-0.729l-2.282-1.427l1.522-0.918
		l3.518,0.95l0.348-0.759l-2.345-1.142l1.459-1.014l3.581,0.761l0.38-0.856l-2.535-1.045l1.077-0.951l3.93,0.412l0.222-0.792
		l-2.663-0.951l1.173-1.077l3.74,0.443l0.348-0.856l-2.726-0.855l0.951-1.046l4.057-0.032l0.285-0.919l-2.915-0.57l0.886-1.078
		l4.057-0.254l0.16-0.887l-2.98-0.412l0.951-1.205l4.152-0.665l0.095-0.951l-3.138-0.096l0.823-1.203l3.931-0.951l0.031-0.855
		l-2.978,0.032l0.855-1.458l3.739-1.014v-0.951l-2.885,0.222l0.635-1.427l3.866-1.711l-0.126-0.729l-3.012,0.603l0.477-1.427
		l3.961-1.87l-0.222-0.919c-1.395,0.359-2.451,0.666-3.169,0.919l0.538-1.774l3.232-1.743v-0.919l-2.853,0.951l0.285-1.648
		l3.297-2.124l-0.08-0.459c7.802,0.935,14.601,4.299,20.396,10.094C232.208,155.13,234.338,157.967,235.965,161.009z
		 M201.719,142.357l2.631,2.44l-0.316,1.585l-2.473-1.711l-0.538,0.697l2.63,2.853l-0.412,1.363l-2.187-1.681l-0.443,0.729
		l2.188,2.567l-0.635,1.648l-2.061-1.838l-0.57,0.602l2.061,2.694l-0.73,1.839l-1.964-2.25l-0.666,0.538l1.775,3.296l-0.792,1.49
		l-1.838-2.25l-0.603,0.539l1.522,3.138l-0.762,1.268l-1.584-2.313l-0.696,0.57l1.394,3.169l-1.11,1.458l-1.458-2.535l-0.728,0.476
		l1.078,3.454l-1.078,1.172l-1.173-2.662l-0.761,0.507l0.792,3.455l-1.108,1.236l-1.142-2.884l-0.76,0.317l0.603,3.804l-1.141,1.109
		l-1.047-3.075l-0.697,0.317l0.38,3.867l-1.203,1.077l-0.857-3.105l-0.665,0.253l0.095,3.898l-1.363,1.109l-0.76-3.359l-0.635,0.222
		l-0.221,4.057l-1.364,0.982l-0.411-3.423c-0.021-0.063-0.138-0.042-0.349,0.063l-0.443,0.127l-0.317,4.12l-1.363,0.697
		l-0.095-0.348l-0.064-2.853l-0.856,0.127l-0.505,3.803l-1.522,0.761v-3.392l-0.855,0.096l-0.729,3.962l-1.268,0.539l0.031-3.139
		l-0.856,0.032l-0.792,3.645l-0.316,0.08c-0.296-1.888-0.444-3.837-0.444-5.848c0-9.783,3.455-18.128,10.363-25.038
		c6.238-6.237,13.644-9.66,22.219-10.269L201.719,142.357z M211.101,272.317c2.57-1.427,5.158-2.848,7.765-4.264l62.596,36.131
		c0.866-1.247,1.869-2.197,3.011-2.851c0.952-0.698,1.774-1.089,2.473-1.174c-3.445,3.149-5.611,6.593-6.498,10.333
		c2.262-4.375,5.072-7.417,8.43-9.13c0.275,0.636,0.297,1.627,0.065,2.98c-0.403,1.965-1.385,4.024-2.948,6.181
		c-1.205,1.899-2.494,3.424-3.867,4.564c-0.169-1.247,0.222-2.79,1.173-4.628c-1.479,1.499-2.387,3.412-2.726,5.737
		c-1.31,0.526-2.282,0.612-2.915,0.253c-0.952-0.655-1.236-1.933-0.857-3.836c0.212-0.865,0.529-1.731,0.953-2.598
		c0.591-1.246,1.213-2.473,1.869-3.676c-0.909,1.225-2.071,2.101-3.487,2.63l-65.098-36.291
		C211.055,272.559,211.075,272.437,211.101,272.317z M197.108,270.844c0.329,0.861,0.49,1.771,0.49,2.725l-66.619,38.001
		c0.633,1.396,0.972,2.76,1.013,4.089c0.106,1.121,0.022,2.019-0.253,2.694c-0.971-4.543-2.862-8.145-5.672-10.808
		c2.663,4.143,3.876,8.103,3.645,11.884c-0.634-0.083-1.49-0.559-2.567-1.425c-1.5-1.312-2.799-3.201-3.897-5.672
		c-1.015-1.987-1.659-3.868-1.935-5.644c1.141,0.487,2.282,1.597,3.424,3.329c-0.593-2.05-1.808-3.793-3.645-5.229
		c0.232-1.396,0.654-2.283,1.268-2.665c1.077-0.442,2.324-0.042,3.739,1.205c0.655,0.569,1.257,1.269,1.807,2.093
		c0.739,1.184,1.479,2.376,2.22,3.582c-0.677-1.459-0.857-2.917-0.54-4.375l64.148-37.97
		C195.386,267.905,196.511,269.3,197.108,270.844z M191.545,262.365c-0.26,0.162-0.518,0.328-0.775,0.492L28.164,183.432
		c0.931-0.612,3.074-3.127,6.435-7.543c-0.359,0.38-0.74,0.76-1.141,1.142c-5.028,3.274-8.673,4.51-10.935,3.708
		c-3.19-5.072-2.853-10.914,1.015-17.527c3.612-4.501,7.457-7.015,11.535-7.543c-3.675,2.007-6.613,4.691-8.811,8.051
		c3.613-3.36,7.775-6.054,12.488-8.082c0.844,0.401,1.479,0.951,1.9,1.647c-9.908,3.127-15.149,8.495-15.72,16.101
		c2.854-8.642,8.42-13.174,16.703-13.597l76.288,45.384l77.649,49.54C193.782,256.383,192.44,258.935,191.545,262.365z
		 M119.632,251.415l3.234,4.088l5.07-0.255l-2.853,4.249l1.87,4.722l-4.977-1.456l-3.992,3.326l-0.063-5.196l-4.405-2.79l4.88-1.71
		L119.632,251.415z M116.02,216.425L56.531,184.7l18.096,11.537l77.555,40.695L116.02,216.425z M36.69,163.877
		c-4.839,2.324-6.634,5.462-5.387,9.413C31.26,169.424,33.056,166.286,36.69,163.877z"/>
	<path fill-rule="evenodd" clip-rule="evenodd" fill="#121930" d="M384.909,180.961c-6.001,3.908-12.074,7.627-18.225,11.155
		c-5.008,2.79-10.11,5.44-15.308,7.955c-15.91,8.325-31.862,16.648-47.857,24.976c-10.058,5.154-20.168,10.3-30.331,15.434
		c-1.668,0.804-3.381,1.67-5.135,2.601c-2.177,1.055-4.342,2.133-6.496,3.231c-11.306,5.685-22.503,11.293-33.596,16.831
		c-1.179,0.628-2.352,1.258-3.519,1.885c19.728,11.524,39.136,22.432,58.221,32.724c0.656-0.508,1.332-0.93,2.029-1.269
		c3.021-1.373,5.568-1.383,7.638-0.031c2.028,1.267,3.013,3.57,2.947,6.908c-0.148,3.36-1.309,6.753-3.485,10.174
		c-2.239,3.359-4.923,5.748-8.05,7.164c-3.001,1.414-5.536,1.458-7.607,0.126c-2.006-1.437-2.947-3.759-2.819-6.973
		c0.146-0.508,0.21-0.982,0.189-1.428c-22.142-12.701-44.74-25.071-67.793-37.11c-0.316,0.178-0.632,0.358-0.95,0.538
		c-23.856,13.312-46.771,26.664-68.744,40.06c0.104,0.781,0.104,1.575,0,2.378c-0.317,3.276-1.564,5.474-3.742,6.592
		c-2.176,1.12-4.667,0.824-7.478-0.887c-2.853-1.838-5.188-4.585-7.005-8.24c-1.796-3.614-2.515-7.121-2.155-10.522
		c0.275-3.275,1.49-5.472,3.645-6.593c2.282-1.015,4.786-0.665,7.512,1.045c0.38,0.424,0.77,0.719,1.171,0.89
		c19.554-11.281,39.099-22.987,58.635-35.117c-7.237-3.702-14.504-7.338-21.807-10.903c-12.613-6.254-25.481-12.466-38.601-18.636
		c-4.502-2.134-8.97-4.269-13.408-6.402c-9.825-4.564-19.682-9.074-29.57-13.532c-0.908-0.486-1.807-0.889-2.693-1.205
		l-59.808-29.919c-6.442-7.775-5.715-16.375,2.188-25.799c4.606-5.493,10.532-8.251,17.78-8.272
		c6.36,3.211,12.624,6.572,18.795,10.079c4.943,2.937,9.813,6.032,14.61,9.286c15.234,9.551,30.458,19.111,45.671,28.683
		c9.487,6.106,19.026,12.244,28.62,18.415c1.563,1.036,3.18,2.069,4.848,3.105c1.987,1.374,4.036,2.715,6.149,4.027
		c10.523,6.845,20.96,13.69,31.313,20.535c4.907,2.987,9.766,5.919,14.58,8.795c1.53-0.975,3.063-1.952,4.596-2.931
		c7.69-4.944,15.296-9.932,22.818-14.96c11.79-7.712,23.654-15.709,35.592-23.992c4.079-2.769,8.167-5.504,12.266-8.208
		c8.875-6.276,17.749-12.542,26.623-18.795c0.846-0.486,1.647-1.057,2.409-1.712l56.002-36.574
		c9.932-1.627,16.957,3.359,21.077,14.959C389.124,168.156,388.543,174.643,384.909,180.961z M197.108,270.844
		c-0.597-1.544-1.722-2.938-3.375-4.185l-64.148,37.97c-0.317,1.458-0.137,2.916,0.54,4.375c-0.741-1.206-1.48-2.398-2.22-3.582
		c-0.549-0.824-1.151-1.523-1.807-2.093c-1.415-1.247-2.662-1.647-3.739-1.205c-0.614,0.382-1.036,1.27-1.268,2.665
		c1.837,1.436,3.052,3.179,3.645,5.229c-1.142-1.732-2.284-2.842-3.424-3.329c0.275,1.775,0.92,3.656,1.935,5.644
		c1.099,2.471,2.397,4.36,3.897,5.672c1.078,0.866,1.933,1.342,2.567,1.425c0.232-3.781-0.982-7.741-3.645-11.884
		c2.811,2.663,4.701,6.265,5.672,10.808c0.275-0.676,0.359-1.573,0.253-2.694c-0.042-1.329-0.38-2.693-1.013-4.089l66.619-38.001
		C197.598,272.614,197.437,271.705,197.108,270.844z M211.101,272.317c-0.025,0.119-0.046,0.241-0.063,0.363l65.098,36.291
		c1.416-0.529,2.578-1.405,3.487-2.63c-0.656,1.203-1.278,2.43-1.869,3.676c-0.424,0.866-0.741,1.732-0.953,2.598
		c-0.379,1.903-0.095,3.181,0.857,3.836c0.633,0.359,1.605,0.273,2.915-0.253c0.339-2.325,1.247-4.238,2.726-5.737
		c-0.951,1.838-1.342,3.381-1.173,4.628c1.373-1.141,2.662-2.665,3.867-4.564c1.563-2.156,2.545-4.216,2.948-6.181
		c0.231-1.354,0.21-2.345-0.065-2.98c-3.357,1.713-6.168,4.755-8.43,9.13c0.887-3.74,3.053-7.184,6.498-10.333
		c-0.698,0.085-1.521,0.476-2.473,1.174c-1.142,0.653-2.145,1.604-3.011,2.851l-62.596-36.131
		C216.259,269.47,213.671,270.891,211.101,272.317z M328.525,187.394l19.145-9.856l-57.494,35.401l-35.973,20.919L328.525,187.394z
		 M375.654,170.945c-0.254-4.395-2.081-7.511-5.483-9.35C374.207,162.44,376.035,165.557,375.654,170.945z M240.418,88.446
		l7.447,3.17l-6.909,3.993l-0.633,8.019l-6.022-5.357l-7.828,2.029l3.17-7.448l-4.09-6.91l7.955,0.888l5.261-6.212L240.418,88.446z
		 M257.849,97.923l7.449,2.916l6.781-4.723l-0.508,8.082l6.372,5.008l-7.703,1.996l-2.63,7.607l-4.438-6.719l-8.082-0.063
		l4.977-6.339L257.849,97.923z M215.855,85.309l-5.863,5.419l1.171,7.924l-7.067-3.834l-7.163,3.645l1.458-7.924l-5.546-5.8
		l7.955-0.95l3.708-7.195l3.424,7.29L215.855,85.309z M145.78,113.738l-2.598,7.606l-4.438-6.719l-8.05-0.063l4.944-6.371
		l-2.155-7.733l7.417,2.916l6.783-4.691l-0.507,8.051l6.37,4.976L145.78,113.738z M162.672,85.879l7.417,2.916l6.813-4.691
		l-0.506,8.05l6.338,4.944l-7.733,2.028l-2.631,7.638l-4.438-6.75l-8.05-0.064l4.945-6.339L162.672,85.879z M381.739,176.84
		c0.634-5.05,0.371-9.984-0.792-14.802c1.838,3.529,2.683,7.417,2.535,11.664c1.605-3.845,1.363-8.44-0.729-13.787
		c-3.782-6.698-8.652-9.931-14.609-9.698c-1.798,1.542-2.58,5.303-2.347,11.283c0.169,0.548,0.328,1.088,0.477,1.617
		c-2.092-5.135-3.191-8.272-3.298-9.413L211.925,254.426c2.062,1.94,3.515,3.879,4.358,5.815c0.31,0.726,0.537,1.45,0.682,2.172
		l81.96-42.186l77.68-42.976c3.825-7.395,2.736-14.484-3.264-21.267c6.275,4.353,8.251,11.579,5.926,21.679
		C380.154,177.665,380.979,177.389,381.739,176.84z M191.545,262.365c0.895-3.431,2.237-5.982,4.025-7.652l-77.649-49.54
		l-76.288-45.384c-8.282,0.422-13.849,4.955-16.703,13.597c0.57-7.606,5.812-12.973,15.72-16.101
		c-0.421-0.696-1.056-1.247-1.9-1.647c-4.713,2.028-8.875,4.722-12.488,8.082c2.197-3.36,5.135-6.043,8.811-8.051
		c-4.078,0.528-7.923,3.042-11.535,7.543c-3.868,6.613-4.206,12.455-1.015,17.527c2.262,0.802,5.907-0.434,10.935-3.708
		c0.401-0.381,0.781-0.761,1.141-1.142c-3.36,4.416-5.504,6.931-6.435,7.543l162.606,79.425
		C191.027,262.693,191.285,262.527,191.545,262.365z M356.924,286.374l3.836,23.896c-16.293-3.697-32.782-6.793-49.476-9.286
		l1.87-12.392l17.305,2.757l5.705-31.853c11.832,2.114,23.295,4.417,34.388,6.91C366.896,271.626,362.354,278.281,356.924,286.374z
		 M58.021,264.633c2.557-0.551,5.103-1.099,7.638-1.649l6.625,31.725l17.018-3.264l2.22,12.392
		c-11.094,1.944-22.069,4.142-32.93,6.594c-5.388,1.246-10.766,2.545-16.132,3.899c0.867-7.439,1.923-15.395,3.17-23.866
		l-14.2-19.65C40.07,268.593,48.935,266.533,58.021,264.633z M36.69,163.877c-3.635,2.408-5.431,5.546-5.387,9.413
		C30.056,169.339,31.851,166.201,36.69,163.877z M116.02,216.425l36.163,20.507l-77.555-40.695L56.531,184.7L116.02,216.425z"/>
	<path fill-rule="evenodd" clip-rule="evenodd" fill="#21386E" d="M283.268,257.691l-1.554-4.882l-2.945,4.247l-5.136-0.095
		l3.011,4.151l-1.521,4.912l4.785-1.71l4.151,3.011l-0.063-5.136l4.152-2.946L283.268,257.691z M332.076,242.54l-7.322,44.244
		c-40.927-6.845-82.117-9.992-123.573-9.443c-41.561,0.549-82.71,4.753-123.447,12.613l-8.557-44.086
		c4.078-0.761,8.177-1.521,12.297-2.28c39.342-6.89,79.032-10.608,119.073-11.157c39.976-0.485,79.742,2.208,119.295,8.082
		C323.983,241.168,328.061,241.844,332.076,242.54z M119.632,251.415l-1.236,4.978l-4.88,1.71l4.405,2.79l0.063,5.196l3.992-3.326
		l4.977,1.456l-1.87-4.722l2.853-4.249l-5.07,0.255L119.632,251.415z"/>
	<path fill-rule="evenodd" clip-rule="evenodd" fill="#121930" d="M235.822,165.969c0.357-0.042,0.645-0.032,0.855,0.032
		l-0.888,3.042l2.662-0.602c0.063,0.548,0.138,1.077,0.223,1.584l-2.124,0.444l-0.19,0.095l1.806,2.377l-0.759,0.412l-2.789-2.346
		l-1.617,0.57l2.188,2.282l-0.698,0.539l-3.17-2.155l-1.203,0.539l1.838,1.933l-0.665,0.571l-2.79-1.743l-1.457,0.855l2.123,1.807
		l-0.603,0.634l-3.042-1.584l-1.554,0.982l2.44,1.616l-0.506,0.729l-3.455-1.299l-1.3,0.918l2.567,1.522l-0.507,0.602l-3.423-0.983
		l-1.109,0.983l2.6,1.236l-0.572,0.697l-3.264-0.856l-1.299,1.268l2.757,1.047l-0.316,0.824l-3.646-0.603l-1.046,1.3l2.853,0.855
		l-0.507,0.761l-3.487-0.38l-0.98,1.426l3.073,0.729l-0.381,0.634l-3.327,0.031c-0.211-0.063-0.359-0.063-0.444,0l-0.888,1.268
		l3.106,0.539l-0.222,0.824l-3.835,0.159l-0.855,1.395l3.2,0.316l-0.157,0.824l-3.898,0.349c-0.148,0.148-0.264,0.433-0.35,0.855
		l-0.475,0.856h3.392l-0.19,0.856l-3.454,0.602l-0.444,0.126l-0.761,1.49l3.391-0.127l-0.095,0.792l-3.993,1.015l-0.508,1.426
		l3.265-0.316l-0.127,0.854l-3.612,1.046l-0.445,1.491l3.33-0.287v0.729l-3.74,1.395l-0.412,1.3l3.104-0.444v0.794l-3.517,1.361
		v0.189c-0.529,0-1.078-0.03-1.648-0.095l0.125-0.285l-2.218-3.231l0.507-0.666l2.093,2.027l0.411-1.615l-1.965-2.947l0.572-0.762
		l1.838,1.934l0.38-1.33l-1.807-3.297l0.572-0.538l1.9,2.061l0.603-1.649l-1.585-3.074l0.603-0.666l1.553,2.187l0.762-1.648
		l-1.427-3.233l0.665-0.57l1.489,2.187l0.825-1.584l-1.173-3.518l0.761-0.444l1.362,2.282l0.793-1.299l-1.016-3.645l0.697-0.38
		l1.333,2.536l0.887-1.331l-0.856-3.582l0.729-0.506c0.296,0.549,0.687,1.404,1.173,2.567l0.888-1.109l-0.445-4.089l0.856-0.254
		l0.951,2.726l0.982-1.015v-0.506l-0.095-0.476l-0.223-3.2l0.919-0.222l0.698,2.884l1.045-1.077l0.096-4.185l0.856-0.285
		l0.538,3.105l1.078-0.951l0.348-3.993l0.92-0.221l0.38,2.978l1.332-1.077l0.538-3.835l0.854-0.125l0.16,2.946l1.33-0.886
		l1.109-4.153l0.855,0.064l-0.253,3.011l1.394-0.666l1.332-4.121h0.919l-0.444,3.202l1.617-0.667l1.396-3.612l0.728,0.031
		l-0.412,2.884l1.49-0.475L235.822,165.969z M169.9,185.017c-0.111-0.538-0.206-1.083-0.286-1.632l0.316-0.08l0.792-3.645
		l0.856-0.032l-0.031,3.139l1.268-0.539l0.729-3.962l0.855-0.096v3.392l1.522-0.761l0.505-3.803l0.856-0.127l0.064,2.853
		l0.095,0.348l1.363-0.697l0.317-4.12l0.443-0.127c0.211-0.105,0.328-0.126,0.349-0.063l0.411,3.423l1.364-0.982l0.221-4.057
		l0.635-0.222l0.76,3.359l1.363-1.109l-0.095-3.898l0.665-0.253l0.857,3.105l1.203-1.077l-0.38-3.867l0.697-0.317l1.047,3.075
		l1.141-1.109l-0.603-3.804l0.76-0.317l1.142,2.884l1.108-1.236l-0.792-3.455l0.761-0.507l1.173,2.662l1.078-1.172l-1.078-3.454
		l0.728-0.476l1.458,2.535l1.11-1.458l-1.394-3.169l0.696-0.57l1.584,2.313l0.762-1.268l-1.522-3.138l0.603-0.539l1.838,2.25
		l0.792-1.49l-1.775-3.296l0.666-0.538l1.964,2.25l0.73-1.839l-2.061-2.694l0.57-0.602l2.061,1.838l0.635-1.648l-2.188-2.567
		l0.443-0.729l2.187,1.681l0.412-1.363l-2.63-2.853l0.538-0.697l2.473,1.711l0.316-1.585l-2.631-2.44l0.033-0.126
		c0.414-0.029,0.832-0.049,1.251-0.063l1.505,0.919l0.08-0.951c0.57,0,1.136,0.011,1.694,0.032l-0.062,1.014l2.044-0.871
		c0.308,0.027,0.613,0.059,0.918,0.096l0.08,0.459l-3.297,2.124l-0.285,1.648l2.853-0.951v0.919l-3.232,1.743l-0.538,1.774
		c0.718-0.253,1.774-0.56,3.169-0.919l0.222,0.919l-3.961,1.87l-0.477,1.427l3.012-0.603l0.126,0.729l-3.866,1.711l-0.635,1.427
		l2.885-0.222v0.951l-3.739,1.014l-0.855,1.458l2.978-0.032l-0.031,0.855l-3.931,0.951l-0.823,1.203l3.138,0.096l-0.095,0.951
		l-4.152,0.665l-0.951,1.205l2.98,0.412l-0.16,0.887l-4.057,0.254l-0.886,1.078l2.915,0.57l-0.285,0.919l-4.057,0.032l-0.951,1.046
		l2.726,0.855l-0.348,0.856l-3.74-0.443l-1.173,1.077l2.663,0.951l-0.222,0.792l-3.93-0.412l-1.077,0.951l2.535,1.045l-0.38,0.856
		l-3.581-0.761l-1.459,1.014l2.345,1.142l-0.348,0.759l-3.518-0.95l-1.522,0.918l2.282,1.427l-0.475,0.729l-3.265-1.268
		l-1.522,0.855l2.347,1.521l-0.444,0.697l-3.455-1.362l-1.395,0.665l2.124,1.585l-0.539,0.665l-3.328-1.553l-1.49,0.57l2.314,1.775
		l-0.571,0.666l-3.454-1.774L169.9,185.017z"/>
	
		<path fill-rule="evenodd" clip-rule="evenodd" fill="none" stroke="#010101" stroke-width="2.5" stroke-linecap="round" stroke-linejoin="round" stroke-miterlimit="3" d="
		M209.183,142.405c7.802,0.935,14.601,4.299,20.396,10.094c2.63,2.631,4.76,5.468,6.387,8.51c2.651,4.96,3.978,10.47,3.978,16.528
		c0,9.783-3.455,18.129-10.364,25.038c-6.909,6.91-15.245,10.363-25.006,10.363c-9.783,0-18.129-3.453-25.04-10.363
		c-5.076-5.077-8.288-10.93-9.633-17.558c-0.111-0.538-0.206-1.083-0.286-1.632c-0.296-1.888-0.444-3.837-0.444-5.848
		c0-9.783,3.455-18.128,10.363-25.038c6.238-6.237,13.644-9.66,22.219-10.269c0.414-0.029,0.832-0.049,1.251-0.063
		c0.52-0.021,1.043-0.032,1.569-0.032h0.016c0.57,0,1.136,0.011,1.694,0.032c0.668,0.031,1.328,0.078,1.982,0.143
		C208.572,142.336,208.878,142.368,209.183,142.405z"/>
</g>
</svg>
