<?xml version="1.0" encoding="utf-8"?>
<!-- Generator: Adobe Illustrator 16.0.0, SVG Export Plug-In . SVG Version: 6.00 Build 0)  -->
<!DOCTYPE svg PUBLIC "-//W3C//DTD SVG 1.1//EN" "http://www.w3.org/Graphics/SVG/1.1/DTD/svg11.dtd">
<svg version="1.1" id="Layer_1" xmlns="http://www.w3.org/2000/svg" xmlns:xlink="http://www.w3.org/1999/xlink" x="0px" y="0px"
	 width="400px" height="400px" viewBox="0 0 400 400" enable-background="new 0 0 400 400" xml:space="preserve">
<g>
	<path fill-rule="evenodd" clip-rule="evenodd" fill="#010101" d="M377.325,120.041c0.1-4.029-1.326-7.031-4.278-9.006
		C376.658,112.132,378.083,115.135,377.325,120.041z M382.442,125.847c0.978-4.549,1.127-9.057,0.448-13.525
		c1.417,3.352,1.896,6.962,1.436,10.832c1.756-3.391,1.887-7.61,0.39-12.657c-2.973-6.443-7.19-9.773-12.658-9.993
		c-1.774,1.257-2.771,4.627-2.991,10.113c0.079,0.538,0.17,1.048,0.27,1.526c-1.495-4.868-2.254-7.829-2.273-8.886l-146.107,80.638
		c2.354,2.654,3.681,5.217,3.981,7.69l74.189-30.61l78.589-35.067c4.069-6.483,3.63-13.076-1.316-19.778
		c5.386,4.487,6.632,11.271,3.738,20.346C380.937,126.534,381.705,126.325,382.442,125.847z M385.046,129.886
		c-5.766,3.151-11.62,6.103-17.564,8.856c-4.808,2.174-9.686,4.209-14.631,6.104c-11.262,4.75-22.556,9.492-33.888,14.228
		l35.831,34.814c0.46,0.438,0.688,0.987,0.688,1.645c0,0.679-0.219,1.258-0.657,1.736L199.084,355.763
		c-0.34,0.299-0.7,0.518-1.078,0.658c-0.439,0.099-0.868,0.099-1.287,0c-0.437-0.141-0.787-0.359-1.047-0.658L41.607,198.705
		c-0.459-0.479-0.689-1.026-0.689-1.645c0-0.699,0.25-1.268,0.748-1.706l41.201-40.26c-2.314-0.883-4.629-1.766-6.94-2.648
		c-0.858-0.378-1.715-0.698-2.574-0.957l-56.699-23.967c-6.324-6.782-6.125-14.722,0.597-23.817
		c3.85-5.306,9.126-8.159,15.828-8.558c6.025,2.514,11.969,5.216,17.833,8.109c4.728,2.413,9.356,4.957,13.884,7.63
		c13.58,7.283,27.145,14.654,40.692,22.111l91.41-89.316c0.438-0.458,0.968-0.688,1.586-0.688c0.677,0,1.247,0.229,1.704,0.688
		l96.453,93.7c5.629-3.298,11.249-6.583,16.86-9.859c0.837-0.419,1.626-0.888,2.364-1.407l54.127-29.263
		c9.236-0.698,15.291,4.429,18.162,15.38C389.912,118.516,388.875,124.4,385.046,129.886z M292.333,139.909l-93.847-91.141
		l-88.628,86.652c3.561,1.98,7.126,3.965,10.697,5.954c5.042,2.811,10.092,5.633,15.156,8.468c1.477,0.839,3.012,1.696,4.608,2.574
		c1.936,1.037,3.89,2.124,5.864,3.262c10.173,5.685,20.167,11.319,29.981,16.905c7.222,3.89,14.443,7.629,21.664,11.22
		c2.542,1.288,5.081,2.565,7.615,3.83c4.621-2.388,9.244-4.8,13.869-7.241c7.439-3.949,14.801-7.929,22.082-11.939
		c11.369-6.163,22.84-12.577,34.41-19.239c2.372-1.33,4.751-2.652,7.137-3.964c1.589-0.878,3.18-1.751,4.771-2.618
		C289.254,141.724,290.796,140.817,292.333,139.909z M198.933,103.794c9.157,0,16.986,3.252,23.49,9.754
		c6.463,6.463,9.693,14.263,9.693,23.399c0,9.175-3.23,17.005-9.693,23.489c-6.504,6.462-14.333,9.694-23.49,9.694
		c-9.136,0-16.944-3.232-23.429-9.694c-6.5-6.483-9.752-14.313-9.752-23.489c0-9.136,3.252-16.936,9.752-23.399
		C181.989,107.046,189.797,103.794,198.933,103.794z M220.927,115.014c-5.527-5.505-12.099-8.497-19.718-8.976
		c-0.519-0.04-1.019-0.059-1.497-0.059c-0.28-0.021-0.539-0.03-0.779-0.03c-8.577,0-15.877,3.021-21.902,9.065
		c-6.084,6.064-9.125,13.375-9.125,21.933c0,2.293,0.219,4.488,0.658,6.583c0.1,0.538,0.23,1.058,0.389,1.556
		c1.316,5.187,4.009,9.815,8.079,13.883c5.126,5.126,11.171,8.07,18.132,8.827c0.918,0.1,1.856,0.17,2.814,0.209
		c0.319,0,0.637,0,0.956,0c8.599,0,15.93-3.012,21.994-9.037c6.043-6.083,9.066-13.424,9.066-22.021
		c0-1.696-0.119-3.352-0.359-4.967c-0.079-0.479-0.16-0.948-0.24-1.407C228.236,124.708,225.415,119.522,220.927,115.014z
		 M332.923,131.501l18.281-7.57l-45.003,22.741l-44.97,21.632L332.923,131.501z M225.146,197.373
		c13.006,6.35,25.861,12.438,38.568,18.268c0.439-0.438,1.017-0.819,1.736-1.139c2.692-1.436,5.007-1.604,6.94-0.506
		c1.995,1.017,3.082,3.07,3.262,6.162c0.04,3.071-0.877,6.283-2.753,9.634c-1.854,3.153-4.148,5.466-6.882,6.942
		c-2.692,1.456-5.037,1.656-7.031,0.599c-1.854-1.237-2.843-3.322-2.963-6.254c0.12-0.577,0.171-1.017,0.15-1.315
		c-16.501-8.086-33.251-15.991-50.253-23.713c-20.458,9.374-40.211,18.814-59.259,28.32c0.019,0.697-0.041,1.427-0.181,2.184
		c-0.558,2.973-1.875,4.878-3.949,5.716c-2.095,0.878-4.35,0.419-6.763-1.376c-2.494-1.875-4.429-4.579-5.804-8.109
		c-1.376-3.431-1.767-6.682-1.167-9.755c0.498-2.991,1.765-4.927,3.801-5.805c2.194-0.736,4.487-0.22,6.881,1.557
		c0.299,0.399,0.619,0.698,0.958,0.897c15.333-7.184,30.673-14.634,46.018-22.352c-3.469-1.534-6.95-3.06-10.442-4.577
		c-7.721-3.332-15.43-6.553-23.13-9.665c-11.849-5.087-23.986-10.044-36.414-14.871c-4.268-1.715-8.487-3.421-12.656-5.116
		c-1.316-0.504-2.633-1.008-3.949-1.512c-4.026-1.539-8.046-3.075-12.06-4.608l-41.051,40.14l150.593,153.496l152.331-155.022
		l-35.532-34.5c-2.336,0.978-4.674,1.955-7.017,2.932c-1.138,0.467-2.274,0.936-3.409,1.406
		c-8.511,3.478-17.048,6.949-25.614,10.414c-1.596,0.618-3.23,1.276-4.908,1.975c-2.054,0.798-4.118,1.625-6.191,2.484
		c-10.773,4.348-21.465,8.616-32.077,12.805C231.648,194.522,228.388,195.944,225.146,197.373z M199.173,190.865
		c-1.647,1.379-2.525,3.384-2.633,6.015l61.849,29.533c1.216-0.519,2.232-1.417,3.052-2.694c-0.58,1.198-1.108,2.386-1.587,3.563
		c-0.318,0.797-0.549,1.614-0.688,2.453c-0.258,1.656,0.061,2.802,0.958,3.44c0.598,0.26,1.506,0.14,2.723-0.358
		c0.18-2.176,0.868-4.01,2.066-5.507c-0.68,1.757-0.928,3.193-0.749,4.312c1.236-1.06,2.322-2.495,3.262-4.312
		c1.356-2.114,2.163-4.107,2.424-5.982c0.118-1.238,0.059-2.114-0.182-2.635c-3.052,1.798-5.466,4.778-7.241,8.947
		c0.6-3.551,2.355-6.853,5.268-9.903c-0.639,0.118-1.367,0.507-2.184,1.165c-0.979,0.699-1.836,1.627-2.575,2.784l-63.162-31.268
		C199.562,190.559,199.362,190.708,199.173,190.865z M191.334,199.482l-49.7,24.026c-0.419,1.317-0.379,2.674,0.12,4.07
		c-0.578-1.138-1.157-2.283-1.734-3.44c-0.439-0.779-0.938-1.468-1.497-2.065c-1.197-1.277-2.304-1.745-3.32-1.405
		c-0.599,0.317-1.067,1.098-1.407,2.334c1.596,1.477,2.593,3.16,2.993,5.057c-0.939-1.656-1.906-2.742-2.903-3.263
		c0.12,1.616,0.558,3.381,1.317,5.297c0.858,2.334,1.905,4.168,3.142,5.507c0.917,0.876,1.665,1.384,2.243,1.523
		c0.498-3.47-0.299-7.21-2.394-11.22c2.355,2.693,3.811,6.153,4.368,10.383c0.28-0.6,0.42-1.417,0.42-2.454
		c0.079-1.236-0.12-2.513-0.6-3.829l57.494-26.69C197.037,202.033,194.188,200.756,191.334,199.482z M66.922,134.763l-17.417-9.575
		l56.433,25.733l34.44,16.726L66.922,134.763z M25.749,116.271c-1.356-3.491,0.11-6.474,4.398-8.946
		C26.935,109.739,25.47,112.721,25.749,116.271z M177.81,189.28c0.578-3.511,1.735-6.114,3.471-7.811l-74.206-40.961l-72.619-37.223
		c-7.619,0.897-12.477,5.375-14.571,13.435c0.159-7.002,4.667-12.209,13.524-15.62c-0.439-0.678-1.048-1.147-1.826-1.407
		c-4.229,2.015-7.87,4.728-10.921,8.139c1.696-3.191,4.219-5.845,7.571-7.958c-3.73,0.738-7.101,3.271-10.115,7.6
		c-3.152,6.363-3.122,11.749,0.091,16.157c2.054,0.579,5.285-0.738,9.693-3.95c0.398-0.479,0.748-0.877,1.048-1.197
		c-2.852,4.209-4.678,6.672-5.477,7.39L177.81,189.28z"/>
	<path fill-rule="evenodd" clip-rule="evenodd" fill="#FFFFFF" d="M382.442,125.847c-0.737,0.479-1.506,0.688-2.306,0.628
		c2.894-9.076,1.647-15.859-3.738-20.346c4.946,6.702,5.386,13.295,1.316,19.778l-78.589,35.067l-74.189,30.61
		c-0.301-2.474-1.627-5.037-3.981-7.69l146.107-80.638c0.02,1.057,0.778,4.019,2.273,8.886c-0.1-0.479-0.19-0.988-0.27-1.526
		c0.221-5.485,1.217-8.856,2.991-10.113c5.468,0.22,9.686,3.55,12.658,9.993c1.497,5.047,1.366,9.266-0.39,12.657
		c0.46-3.87-0.019-7.48-1.436-10.832C383.569,116.79,383.42,121.297,382.442,125.847z M377.325,120.041
		c0.758-4.906-0.667-7.909-4.278-9.006C375.999,113.01,377.425,116.012,377.325,120.041z M282.939,145.25
		c-2.386,1.312-4.765,2.634-7.137,3.964c-11.57,6.663-23.041,13.076-34.41,19.239c-7.281,4.01-14.643,7.99-22.082,11.939
		c-4.625,2.441-9.248,4.854-13.869,7.241c-2.534-1.265-5.073-2.542-7.615-3.83c-7.22-3.591-14.441-7.33-21.664-11.22
		c-9.813-5.586-19.808-11.22-29.981-16.905c-1.974-1.138-3.929-2.225-5.864-3.262c-1.596-0.878-3.131-1.735-4.608-2.574
		c-5.063-2.835-10.114-5.657-15.156-8.468l78.979-77.167L282.939,145.25z M332.923,131.501l-71.691,36.803l44.97-21.632
		l45.003-22.741L332.923,131.501z M203.183,109.988l-2.574,0.837l0.24-1.466l2.993-1.915l-0.15-0.808l-2.603,1.107l0.12-1.706
		c7.619,0.479,14.19,3.471,19.718,8.976c4.488,4.508,7.31,9.694,8.467,15.559l-1.734,0.39l0.777-2.753
		c-0.2-0.059-0.449-0.069-0.748-0.03l-1.495,3.172l-1.349,0.419l0.391-2.604l-0.689-0.03l-1.226,3.231l-1.438,0.628l0.359-2.873
		h-0.807l-1.198,3.71l-1.257,0.599l0.24-2.752l-0.778-0.03l-0.987,3.739l-1.226,0.81l-0.15-2.664l-0.749,0.12l-0.447,3.441
		l-1.228,0.987l-0.329-2.693l-0.808,0.211l-0.329,3.56L211.201,140l-0.447-2.753l-0.779,0.239l-0.09,3.77l-0.927,0.958l-0.629-2.573
		l-0.837,0.208l0.179,2.842l0.09,0.449v0.419l-0.897,0.927l-0.838-2.423l-0.778,0.208l0.419,3.651l-0.777,0.987
		c-0.459-1.017-0.809-1.775-1.047-2.274l-0.659,0.419l0.748,3.262l-0.778,1.167l-1.197-2.244l-0.629,0.329l0.899,3.292l-0.718,1.137
		l-1.198-2.035l-0.688,0.359l1.047,3.202l-0.748,1.436l-1.316-1.975l-0.6,0.509l1.226,2.903l-0.626,1.466l-1.407-1.945l-0.569,0.598
		l1.438,2.753l-0.569,1.496l-1.706-1.855l-0.478,0.479l1.617,2.962l-0.36,1.196l-1.645-1.735l-0.479,0.688l1.765,2.633l-0.419,1.466
		l-1.824-1.854l-0.479,0.627l1.675,2.424c-6.961-0.757-13.006-3.701-18.132-8.827c-4.069-4.068-6.763-8.697-8.079-13.883
		l3.021,1.646l0.539-0.627l-2.094-1.587l1.376-0.509l2.963,1.406l0.508-0.598l-1.916-1.466l1.226-0.568l3.114,1.226l0.388-0.658
		l-2.094-1.316l1.376-0.778l2.933,1.137l0.389-0.688l-2.003-1.258l1.346-0.807l3.142,0.837l0.329-0.659l-2.125-1.047l1.346-0.897
		l3.201,0.688l0.359-0.778l-2.303-0.927l0.958-0.869l3.561,0.36l0.209-0.688l-2.394-0.868l1.017-0.958l3.351,0.359l0.36-0.748
		l-2.455-0.748l0.838-0.958l3.65-0.06l0.24-0.779l-2.634-0.508l0.808-0.988l3.651-0.239l0.149-0.778l-2.662-0.359l0.836-1.077
		l3.741-0.599l0.09-0.869l-2.812-0.088l0.718-1.078l3.532-0.838l0.029-0.778l-2.664,0.03l0.778-1.346l3.321-0.897v-0.869
		l-2.603,0.209l0.598-1.256l3.442-1.526l-0.091-0.689l-2.692,0.569l0.388-1.287l3.591-1.675l-0.209-0.838
		c-1.237,0.34-2.185,0.619-2.842,0.838l0.507-1.585l2.903-1.585V109.988z M199.712,105.979l-0.15,1.675l-2.274-1.437l-0.24,0.749
		l2.365,2.214l-0.299,1.436l-2.215-1.556l-0.479,0.599l2.365,2.604l-0.39,1.226l-1.944-1.526l-0.389,0.659l1.975,2.304l-0.598,1.466
		l-1.826-1.646l-0.539,0.568l1.856,2.424l-0.63,1.646l-1.765-2.035l-0.598,0.479l1.586,2.962l-0.718,1.347l-1.647-2.035
		l-0.537,0.479l1.346,2.843l-0.689,1.137l-1.406-2.094l-0.628,0.509l1.226,2.873l-0.988,1.286l-1.286-2.304l-0.659,0.479
		l0.958,3.082l-0.958,1.047l-1.047-2.394l-0.688,0.479l0.716,3.082l-0.986,1.077l-1.078-2.574l-0.658,0.299l0.569,3.441
		l-1.047,0.987l-0.927-2.752l-0.628,0.269l0.299,3.472l-1.078,0.927l-0.748-2.753l-0.567,0.209l0.089,3.501l-1.256,1.017
		l-0.688-3.022l-0.539,0.179l-0.209,3.681l-1.228,0.868l-0.357-3.082c-0.021-0.04-0.141-0.021-0.36,0.059l-0.357,0.12l-0.3,3.709
		l-1.197,0.599l-0.089-0.299l-0.061-2.544l-0.777,0.089l-0.48,3.442l-1.346,0.658v-3.052l-0.748,0.09l-0.657,3.561l-1.138,0.508
		l0.03-2.843l-0.779,0.031l-0.657,3.052c-0.439-2.094-0.658-4.289-0.658-6.583c0-8.558,3.042-15.869,9.125-21.933
		c6.025-6.044,13.325-9.065,21.902-9.065C199.173,105.949,199.432,105.958,199.712,105.979z M216.797,140.538l-2.334-1.377
		l1.197-0.838l3.081,1.197l0.479-0.658l-2.214-1.437l1.406-0.897l2.723,1.436l0.567-0.568l-1.915-1.646l1.317-0.778l2.514,1.584
		l0.568-0.508l-1.646-1.735l1.078-0.479l2.843,1.916l0.628-0.479l-1.944-2.064l1.437-0.478l2.513,2.095l0.659-0.36l-1.617-2.153
		l0.18-0.061l1.317-0.269c0.24,1.615,0.359,3.271,0.359,4.967c0,8.597-3.023,15.938-9.066,22.021
		c-6.063,6.024-13.395,9.037-21.994,9.037c-0.319,0-0.636,0-0.956,0l2.002-0.838v-0.688l-2.751,0.419l0.328-1.167l3.382-1.255
		v-0.689l-2.961,0.3l0.357-1.347l3.262-0.927l0.09-0.778l-2.902,0.27l0.419-1.256l3.62-0.929l0.091-0.688l-3.054,0.09l0.689-1.316
		l0.389-0.15l3.111-0.508l0.15-0.778h-3.021l0.418-0.779c0.06-0.398,0.159-0.647,0.3-0.748l3.529-0.329l0.15-0.719l-2.901-0.329
		l0.748-1.227l3.44-0.15l0.24-0.719l-2.814-0.508l0.778-1.137c0.08-0.04,0.23-0.04,0.45,0h2.961l0.359-0.599l-2.782-0.628
		l0.867-1.286l3.172,0.299l0.449-0.658l-2.574-0.748l0.958-1.197l3.262,0.568l0.299-0.748l-2.483-0.927l1.137-1.137l2.963,0.748
		l0.478-0.628l-2.304-1.107l0.988-0.898l3.081,0.898L216.797,140.538z M198.933,103.794c-9.136,0-16.944,3.252-23.429,9.754
		c-6.5,6.463-9.752,14.263-9.752,23.399c0,9.175,3.252,17.005,9.752,23.489c6.485,6.462,14.293,9.694,23.429,9.694
		c9.157,0,16.986-3.232,23.49-9.694c6.463-6.483,9.693-14.313,9.693-23.489c0-9.136-3.23-16.936-9.693-23.399
		C215.919,107.046,208.09,103.794,198.933,103.794z M225.146,197.373c3.242-1.429,6.503-2.851,9.783-4.264
		c10.612-4.189,21.304-8.457,32.077-12.805c2.073-0.858,4.138-1.686,6.191-2.484c1.678-0.699,3.313-1.357,4.908-1.975
		c8.566-3.465,17.104-6.936,25.614-10.414l31.267,30.37L198.514,334.578L63.568,197.06l36.296-35.473
		c1.316,0.504,2.633,1.007,3.949,1.512c4.169,1.695,8.388,3.401,12.656,5.116c12.428,4.827,24.565,9.784,36.414,14.871
		c7.7,3.112,15.409,6.333,23.13,9.665c3.492,1.518,6.973,3.043,10.442,4.577c-15.345,7.718-30.685,15.168-46.018,22.352
		c-0.339-0.199-0.659-0.498-0.958-0.897c-2.394-1.776-4.687-2.293-6.881-1.557c-2.036,0.878-3.303,2.813-3.801,5.805
		c-0.6,3.073-0.209,6.324,1.167,9.755c1.375,3.53,3.311,6.234,5.804,8.109c2.414,1.795,4.668,2.254,6.763,1.376
		c2.074-0.838,3.391-2.743,3.949-5.716c0.14-0.757,0.199-1.486,0.181-2.184c19.047-9.506,38.801-18.946,59.259-28.32
		c17.002,7.722,33.752,15.627,50.253,23.713c0.021,0.299-0.03,0.738-0.15,1.315c0.12,2.932,1.108,5.017,2.963,6.254
		c1.994,1.058,4.339,0.857,7.031-0.599c2.733-1.477,5.027-3.789,6.882-6.942c1.876-3.351,2.793-6.563,2.753-9.634
		c-0.18-3.092-1.267-5.146-3.262-6.162c-1.934-1.098-4.248-0.93-6.94,0.506c-0.72,0.319-1.297,0.7-1.736,1.139
		C251.007,209.811,238.151,203.723,225.146,197.373z M199.173,190.865c0.189-0.157,0.389-0.306,0.599-0.448l63.162,31.268
		c0.739-1.157,1.597-2.085,2.575-2.784c0.816-0.658,1.545-1.047,2.184-1.165c-2.912,3.051-4.668,6.353-5.268,9.903
		c1.775-4.169,4.189-7.149,7.241-8.947c0.24,0.521,0.3,1.396,0.182,2.635c-0.261,1.875-1.067,3.868-2.424,5.982
		c-0.939,1.816-2.025,3.252-3.262,4.312c-0.179-1.118,0.069-2.555,0.749-4.312c-1.198,1.497-1.887,3.331-2.066,5.507
		c-1.217,0.498-2.125,0.618-2.723,0.358c-0.897-0.639-1.216-1.784-0.958-3.44c0.14-0.839,0.37-1.656,0.688-2.453
		c0.479-1.177,1.007-2.364,1.587-3.563c-0.819,1.277-1.836,2.176-3.052,2.694l-61.849-29.533
		C196.648,194.249,197.526,192.244,199.173,190.865z M191.334,199.482c2.854,1.274,5.703,2.551,8.542,3.83l-57.494,26.69
		c0.48,1.316,0.679,2.593,0.6,3.829c0,1.037-0.14,1.854-0.42,2.454c-0.557-4.229-2.013-7.689-4.368-10.383
		c2.095,4.01,2.892,7.75,2.394,11.22c-0.578-0.14-1.326-0.647-2.243-1.523c-1.237-1.339-2.284-3.173-3.142-5.507
		c-0.759-1.916-1.197-3.681-1.317-5.297c0.998,0.521,1.964,1.606,2.903,3.263c-0.4-1.896-1.397-3.58-2.993-5.057
		c0.339-1.236,0.808-2.017,1.407-2.334c1.017-0.34,2.123,0.128,3.32,1.405c0.559,0.598,1.058,1.286,1.497,2.065
		c0.578,1.157,1.157,2.303,1.734,3.44c-0.499-1.396-0.539-2.753-0.12-4.07L191.334,199.482z M177.81,189.28L23.474,125.875
		c0.799-0.718,2.625-3.181,5.477-7.39c-0.3,0.319-0.649,0.718-1.048,1.197c-4.408,3.211-7.639,4.529-9.693,3.95
		c-3.213-4.408-3.243-9.794-0.091-16.157c3.014-4.329,6.385-6.862,10.115-7.6c-3.352,2.113-5.875,4.767-7.571,7.958
		c3.052-3.411,6.692-6.124,10.921-8.139c0.778,0.26,1.387,0.729,1.826,1.407c-8.857,3.411-13.366,8.617-13.524,15.62
		c2.095-8.06,6.952-12.538,14.571-13.435l72.619,37.223l74.206,40.961C179.545,183.166,178.388,185.769,177.81,189.28z
		 M25.749,116.271c-0.279-3.551,1.186-6.533,4.398-8.946C25.859,109.798,24.393,112.78,25.749,116.271z M66.922,134.763
		l73.457,32.884l-34.44-16.726l-56.433-25.733L66.922,134.763z"/>
	<path fill-rule="evenodd" clip-rule="evenodd" fill="#0D733B" d="M307.129,164.026c2.343-0.978,4.681-1.954,7.017-2.932
		l35.532,34.5L197.347,350.615L46.754,197.119l41.051-40.14c4.013,1.533,8.033,3.069,12.06,4.608L63.568,197.06l134.946,137.519
		l136.472-138.776l-31.267-30.37C304.854,164.962,305.991,164.493,307.129,164.026z M287.711,142.632
		c-1.592,0.867-3.183,1.74-4.771,2.618l-83.407-81.042l-78.979,77.167c-3.571-1.989-7.136-3.974-10.697-5.954l88.628-86.652
		l93.847,91.141C290.796,140.817,289.254,141.724,287.711,142.632z"/>
	<path fill-rule="evenodd" clip-rule="evenodd" fill="#BE2026" d="M199.232,156.396l-1.226-2.903l0.6-0.509l1.316,1.975l0.748-1.436
		l-1.047-3.202l0.688-0.359l1.198,2.035l0.718-1.137l-0.899-3.292l0.629-0.329l1.197,2.244l0.778-1.167l-0.748-3.262l0.659-0.419
		c0.238,0.499,0.588,1.258,1.047,2.274l0.777-0.987l-0.419-3.651l0.778-0.208l0.838,2.423l0.897-0.927v-0.419l-0.09-0.449
		l-0.179-2.842l0.837-0.208l0.629,2.573l0.927-0.958l0.09-3.77l0.779-0.239l0.447,2.753l0.988-0.838l0.329-3.56l0.808-0.211
		l0.329,2.693l1.228-0.987l0.447-3.441l0.749-0.12l0.15,2.664l1.226-0.81l0.987-3.739l0.778,0.03l-0.24,2.752l1.257-0.599
		l1.198-3.71h0.807l-0.359,2.873l1.438-0.628l1.226-3.231l0.689,0.03l-0.391,2.604l1.349-0.419l1.495-3.172
		c0.299-0.04,0.548-0.029,0.748,0.03l-0.777,2.753l1.734-0.39c0.08,0.459,0.161,0.928,0.24,1.407l-1.317,0.269l-0.18,0.061
		l1.617,2.153l-0.659,0.36l-2.513-2.095l-1.437,0.478l1.944,2.064l-0.628,0.479l-2.843-1.916l-1.078,0.479l1.646,1.735l-0.568,0.508
		l-2.514-1.584l-1.317,0.778l1.915,1.646l-0.567,0.568l-2.723-1.436l-1.406,0.897l2.214,1.437l-0.479,0.658l-3.081-1.197
		l-1.197,0.838l2.334,1.377l-0.449,0.538l-3.081-0.898l-0.988,0.898l2.304,1.107l-0.478,0.628l-2.963-0.748l-1.137,1.137
		l2.483,0.927l-0.299,0.748l-3.262-0.568l-0.958,1.197l2.574,0.748l-0.449,0.658l-3.172-0.299l-0.867,1.286l2.782,0.628
		l-0.359,0.599h-2.961c-0.22-0.04-0.37-0.04-0.45,0l-0.778,1.137l2.814,0.508l-0.24,0.719l-3.44,0.15l-0.748,1.227l2.901,0.329
		l-0.15,0.719l-3.529,0.329c-0.141,0.101-0.24,0.35-0.3,0.748l-0.418,0.779h3.021l-0.15,0.778l-3.111,0.508l-0.389,0.15
		l-0.689,1.316l3.054-0.09l-0.091,0.688l-3.62,0.929l-0.419,1.256l2.902-0.27l-0.09,0.778l-3.262,0.927l-0.357,1.347l2.961-0.3
		v0.689l-3.382,1.255l-0.328,1.167l2.751-0.419v0.688l-2.002,0.838c-0.958-0.04-1.896-0.11-2.814-0.209l-1.675-2.424l0.479-0.627
		l1.824,1.854l0.419-1.466l-1.765-2.633l0.479-0.688l1.645,1.735l0.36-1.196l-1.617-2.962l0.478-0.479l1.706,1.855l0.569-1.496
		l-1.438-2.753l0.569-0.598l1.407,1.945L199.232,156.396z M203.842,107.445l-2.993,1.915l-0.24,1.466l2.574-0.837v0.808
		l-2.903,1.585l-0.507,1.585c0.657-0.219,1.604-0.498,2.842-0.838l0.209,0.838l-3.591,1.675l-0.388,1.287l2.692-0.569l0.091,0.689
		l-3.442,1.526l-0.598,1.256l2.603-0.209v0.869l-3.321,0.897l-0.778,1.346l2.664-0.03l-0.029,0.778l-3.532,0.838l-0.718,1.078
		l2.812,0.088l-0.09,0.869l-3.741,0.599l-0.836,1.077l2.662,0.359l-0.149,0.778l-3.651,0.239l-0.808,0.988l2.634,0.508l-0.24,0.779
		l-3.65,0.06l-0.838,0.958l2.455,0.748l-0.36,0.748l-3.351-0.359l-1.017,0.958l2.394,0.868l-0.209,0.688l-3.561-0.36l-0.958,0.869
		l2.303,0.927l-0.359,0.778l-3.201-0.688l-1.346,0.897l2.125,1.047l-0.329,0.659l-3.142-0.837l-1.346,0.807l2.003,1.258
		l-0.389,0.688l-2.933-1.137l-1.376,0.778l2.094,1.316l-0.388,0.658l-3.114-1.226l-1.226,0.568l1.916,1.466l-0.508,0.598
		l-2.963-1.406l-1.376,0.509l2.094,1.587l-0.539,0.627l-3.021-1.646c-0.159-0.498-0.289-1.018-0.389-1.556l0.657-3.052l0.779-0.031
		l-0.03,2.843l1.138-0.508l0.657-3.561l0.748-0.09v3.052l1.346-0.658l0.48-3.442l0.777-0.089l0.061,2.544l0.089,0.299l1.197-0.599
		l0.3-3.709l0.357-0.12c0.219-0.08,0.34-0.099,0.36-0.059l0.357,3.082l1.228-0.868l0.209-3.681l0.539-0.179l0.688,3.022l1.256-1.017
		l-0.089-3.501l0.567-0.209l0.748,2.753l1.078-0.927l-0.299-3.472l0.628-0.269l0.927,2.752l1.047-0.987l-0.569-3.441l0.658-0.299
		l1.078,2.574l0.986-1.077l-0.716-3.082l0.688-0.479l1.047,2.394l0.958-1.047l-0.958-3.082l0.659-0.479l1.286,2.304l0.988-1.286
		l-1.226-2.873l0.628-0.509l1.406,2.094l0.689-1.137l-1.346-2.843l0.537-0.479l1.647,2.035l0.718-1.347l-1.586-2.962l0.598-0.479
		l1.765,2.035l0.63-1.646l-1.856-2.424l0.539-0.568l1.826,1.646l0.598-1.466l-1.975-2.304l0.389-0.659l1.944,1.526l0.39-1.226
		l-2.365-2.604l0.479-0.599l2.215,1.556l0.299-1.436l-2.365-2.214l0.24-0.749l2.274,1.437l0.15-1.675
		c0.478,0,0.978,0.019,1.497,0.059l-0.12,1.706l2.603-1.107L203.842,107.445z"/>
</g>
</svg>
