<?xml version="1.0" encoding="utf-8"?>
<!-- Generator: Adobe Illustrator 16.0.0, SVG Export Plug-In . SVG Version: 6.00 Build 0)  -->
<!DOCTYPE svg PUBLIC "-//W3C//DTD SVG 1.1//EN" "http://www.w3.org/Graphics/SVG/1.1/DTD/svg11.dtd">
<svg version="1.1" id="Layer_1" xmlns="http://www.w3.org/2000/svg" xmlns:xlink="http://www.w3.org/1999/xlink" x="0px" y="0px"
	 width="400px" height="400px" viewBox="0 0 400 400" enable-background="new 0 0 400 400" xml:space="preserve">
<g>
	<path fill-rule="evenodd" clip-rule="evenodd" fill="#B91F3F" d="M380.432,100.524c3.521-7.836,3.471-15.538-0.145-23.101
		c-6.128-13.243-14.896-18.446-26.311-15.607l-64.727,51.425c-0.875,0.72-1.749,1.458-2.625,2.218
		c-5.437,4.692-10.878,9.356-16.319,13.986c0.807,1.964,1.531,3.972,2.173,6.022c0.688,2.202,1.281,4.453,1.779,6.752
		c0.545,2.514,0.979,5.084,1.296,7.715c0.139,1.128,0.255,2.271,0.353,3.428c0.177,2.198,0.278,4.44,0.306,6.723
		c0.004,0.436,0.004,0.874,0,1.313c-0.006,0.392-0.016,0.787-0.029,1.181c-0.063,2.429-0.253,4.863-0.568,7.307
		c16.512-10.495,32.967-21.058,49.368-31.692c1.458-0.948,2.916-1.896,4.375-2.844c1.994-1.295,3.987-2.594,5.979-3.894
		c2.023-1.314,4.045-2.633,6.067-3.953c0-0.038,0.019-0.058,0.058-0.058C355.249,119.221,368.239,110.247,380.432,100.524z
		 M382.241,76.518v-0.03c3.947,8.246,3.976,16.637,0.087,25.174c-0.098,0.118-0.214,0.243-0.35,0.378
		c-12.31,9.86-25.445,18.952-39.408,27.273h0.03c-2.42,1.581-4.843,3.162-7.264,4.74c-1.992,1.295-3.985,2.589-5.979,3.879
		c-1.459,0.952-2.917,1.9-4.375,2.844c-16.538,10.727-33.136,21.377-49.792,31.955c-0.816,4.952-2.15,9.934-3.995,14.949
		c-1.92,5.137-4.264,9.911-7.029,14.321l-3.035-2.202c0.196-0.171,0.419-0.43,0.672-0.773c0.446-0.874,0.671-1.488,0.671-1.836
		c-0.953-2.042-1.721-3.063-2.304-3.063c-0.216-0.079-0.536,0.358-0.964,1.312c-0.292,0.643-0.478,1.108-0.554,1.4v0.116
		l1.034,1.809l-4.563-3.295c0.007-0.01,0.017-0.02,0.029-0.03c0.155-0.37,0.554-0.516,1.195-0.438c0.738,0,1.322-0.223,1.75-0.67
		c0.66-1.089,0.885-1.81,0.67-2.158v-0.118c-0.289-0.292-0.515-0.622-0.67-0.992c-0.292-0.428-0.359-0.786-0.203-1.079
		c1.012,0.213,1.729,0.283,2.157,0.205c0.876-0.428,1.644-1.556,2.304-3.385c0.079-0.506-0.134-1.049-0.641-1.632
		c-0.661-0.585-0.952-1.022-0.875-1.313c1.166-0.292,2.004-0.583,2.508-0.875c0.781-0.494,1.217-1.685,1.313-3.573
		c-0.003-0.044-0.003-0.089,0-0.132c0.214-0.29,0.242-0.505,0.087-0.641c-0.135-0.214-0.388-0.36-0.759-0.438
		c-0.283-0.184-0.509-0.355-0.67-0.511c-0.215-0.213-0.32-0.403-0.32-0.57c1.243-0.446,2.052-0.815,2.42-1.106
		c0.583-0.72,0.943-1.956,1.08-3.706c0-0.583-0.438-1.021-1.313-1.313c-0.58-0.23-0.953-0.486-1.123-0.771
		c-0.099-0.169-0.124-0.349-0.073-0.542c0.214-0.291,0.545-0.436,0.992-0.436l1.518-0.088c0.394-0.122,0.724-0.485,0.991-1.093
		c0.071-0.168,0.141-0.358,0.204-0.57c0.076-0.395,0.102-0.77,0.074-1.123c-0.038-0.365-0.131-0.71-0.278-1.035
		c-0.155-0.234-0.593-0.35-1.313-0.35c-0.719,0.155-1.156-0.02-1.312-0.525c-0.077-0.292,0.32-0.691,1.195-1.196
		c0.952-0.525,1.469-1.333,1.547-2.422c0.058-1.226-0.088-2.022-0.438-2.392h-0.117c-0.262-0.015-0.494-0.045-0.701-0.087
		c-0.823-0.179-1.211-0.586-1.166-1.226c0.954-1.088,1.614-1.846,1.984-2.274c0.35-0.506,0.311-1.486-0.117-2.945
		c-0.155-0.447-0.593-0.672-1.313-0.672c-0.703-0.046-1.169-0.247-1.399-0.598c-0.052-0.081-0.092-0.173-0.118-0.276
		c0.05-0.427,0.342-0.987,0.876-1.678c0.101-0.127,0.208-0.26,0.32-0.393c0.497-0.783,0.716-1.416,0.655-1.896
		c-0.021-0.139-0.064-0.264-0.131-0.378c-0.214-0.505-0.864-0.692-1.954-0.555c-0.66,0.155-1.165-0.138-1.516-0.875
		c0.583-0.934,1.021-1.662,1.312-2.187c0.428-0.934,0.282-1.838-0.438-2.712c-0.215-0.487-0.549-0.696-1.007-0.628
		c-0.141,0.025-0.292,0.073-0.452,0.146c-0.029,0.017-0.06,0.03-0.086,0.045c-0.72,0.078-1.157-0.03-1.313-0.32l0.116-2.072
		c0.052-0.729,0.021-1.376-0.087-1.939c-0.225-1.143-0.779-1.956-1.663-2.437c-0.35-0.292-0.856-0.146-1.517,0.438
		c-0.505,0.583-1.012,0.69-1.517,0.32c-0.292-0.291-0.409-1.234-0.35-2.83c0.29-1.458,0.077-2.362-0.644-2.712
		c-0.583-0.078-0.873,0.283-0.873,1.079c-0.079,0.663-0.37,1.139-0.875,1.431c-0.586,0.349-1.091,0.311-1.519-0.117
		c-0.155-0.213-0.193-1.011-0.115-2.392c0.213-2.995-0.583-4.745-2.395-5.249c-0.368,0-0.698,0.543-0.99,1.632
		c-0.369,1.167-0.913,1.643-1.633,1.43h0.116c-0.37-0.155-0.661-1.07-0.875-2.741c-0.369-2.84-1.244-4.366-2.625-4.581
		c-0.369-0.136-0.583,0.195-0.642,0.993c0.136,1.088,0.059,1.886-0.232,2.392c-0.293,0.446-0.8,0.554-1.518,0.32
		c-0.739,0-1.069-0.69-0.991-2.071c-0.584-3.402-1.674-5.182-3.268-5.337c-0.428,0.155-0.643,0.699-0.643,1.632
		c0.06,0.663,0.06,1.353,0,2.071c-0.233,1.031-0.711,1.508-1.429,1.429c-0.798,0-1.128-0.874-0.993-2.625
		c-0.29-1.166-0.836-2.294-1.632-3.383c-1.226-1.517-2.276-2.129-3.15-1.839c-0.447,0.137-0.7,0.351-0.758,0.643
		c0.058,0.369,0.351,0.846,0.874,1.429c1.012,1.596,1.556,2.83,1.634,3.705c0.136,0.874-0.271,1.458-1.226,1.749
		c-0.506,0.137-0.866-0.048-1.077-0.553c-0.37-0.953-0.625-1.499-0.761-1.634c-2.176-4.433-4.219-6.359-6.124-5.776
		c-0.272,0.214-0.381,0.507-0.32,0.875c0.075,0.272,0.33,0.633,0.758,1.081c1.031,1.458,1.613,2.654,1.749,3.586
		c0,0.955-0.437,1.615-1.312,1.984c-0.505,0.059-0.973-0.165-1.4-0.671c-0.37-0.875-0.621-1.419-0.758-1.634
		c-0.953-2.042-1.645-3.49-2.071-4.346c-0.511-0.672-1.05-1.143-1.619-1.414l-0.568-1.531l-0.074-0.584
		c0.297-0.107,0.535-0.243,0.715-0.408v-0.116c0-0.875,0.107-1.488,0.322-1.838c0-0.525,0.291-1.108,0.874-1.75
		c0.798-0.798,1.419-1.128,1.868-0.992c0.426,0.214,0.611,0.836,0.554,1.867c-0.233,1.44-0.233,2.343,0,2.713
		c0.292,0.369,0.942,0.593,1.954,0.671h2.507l0.118-0.118c1.517-2.333,2.898-3.567,4.142-3.703c0.584,0,0.943,0.146,1.079,0.437
		c0.155,0.292,0.049,0.797-0.32,1.518c-0.37,0.719-0.583,1.302-0.643,1.749c-0.078,0.428,0.029,0.758,0.322,0.991
		c1.381,0.565,2.537,0.701,3.47,0.41c0.818-0.855,1.361-1.546,1.634-2.071c0.951-0.563,1.867-0.67,2.742-0.321
		c0.291,0.213,0.398,0.466,0.32,0.758c0,0.369-0.185,0.778-0.555,1.224c-0.563,0.935-0.699,1.586-0.406,1.956
		c1.592,0.641,2.683,0.894,3.266,0.758c0.798-0.662,1.381-1.166,1.749-1.518c0.643-0.446,1.216-0.485,1.722-0.115
		c0.292,0.136,0.438,0.35,0.438,0.641c-0.059,0.293-0.233,0.663-0.524,1.11c-0.662,0.933-0.808,1.584-0.438,1.954
		c1.38,0.953,2.51,1.283,3.383,0.991c2.024-1.088,3.181-1.566,3.472-1.429c0.66,0.506,0.99,1.011,0.99,1.517
		c0,0.447-0.251,0.883-0.756,1.312c-1.031,0.955-1.431,1.538-1.196,1.751c1.302,1.458,2.432,2.042,3.383,1.751
		c1.439-1.304,2.451-1.664,3.032-1.081h0.117c0.506,0.292,0.759,0.583,0.759,0.876c0.078,0.35-0.136,0.748-0.641,1.196
		c-1.031,0.798-1.431,1.371-1.196,1.721c0.426,1.166,1.478,1.604,3.15,1.312c1.594-0.213,2.614-0.066,3.062,0.438
		c0.294,0.292,0.361,0.545,0.206,0.758c-0.079,0.292-0.371,0.555-0.876,0.788c-0.876,0.505-1.233,1.013-1.079,1.518
		c1.457,2.683,2.693,4.141,3.703,4.374h0.117c0.123,0,0.691-0.028,1.707-0.087c0.114-0.012,0.236-0.021,0.363-0.028
		c0.876-0.155,1.459,0.028,1.751,0.554c0.077,0.125,0.136,0.243,0.175,0.35c0.07,0.193,0.08,0.36,0.029,0.495
		c0,0.293-0.185,0.516-0.555,0.671c-0.646,0.165-1.114,0.315-1.4,0.453c-0.104,0.094-0.211,0.187-0.32,0.277v0.03
		c-0.155,0.719,0.313,1.74,1.4,3.063c1.459,0.505,2.518,0.796,3.181,0.875c0.35,0,0.603-0.08,0.758-0.235
		c0.135-0.078,0.175-0.252,0.117-0.525c0-1.45-0.657-3.502-1.97-6.154c-0.267-0.55-0.564-1.122-0.89-1.721
		c-0.034-0.084-0.069-0.172-0.102-0.261c-2.523-6.089-6.049-12.001-10.574-17.736c-9.477-11.252-21.188-18.913-35.135-22.985
		c-2.533-0.742-5.145-1.363-7.831-1.867c-1.271-0.25-2.535-0.471-3.792-0.655l-2.29-4.171c1.65,0.179,3.31,0.408,4.974,0.686
		c1.644,0.264,3.263,0.575,4.856,0.934c5.321,1.186,10.376,2.879,15.167,5.074c6.323,2.896,12.192,6.668,17.604,11.318
		c7.643,6.688,13.895,14.614,18.755,23.771c0.491,0.978,0.959,1.964,1.399,2.961c5.267-4.478,10.526-8.984,15.782-13.52
		c0.894-0.798,1.799-1.575,2.712-2.333l64.9-51.542c0.117-0.097,0.252-0.156,0.407-0.175
		C365.838,56.46,375.513,62.032,382.241,76.518z M42.541,72.027l53.831,39.028l-3.719,0.015L41.432,73.952
		C29.9,71.617,21.373,77.151,15.85,90.549c-3.228,7.779-2.965,15.518,0.788,23.218c5.251,3.809,10.638,7.484,16.16,11.025
		l1.166,2.102l1.794-0.22c6.813,4.277,13.829,8.357,21.046,12.237v0.116c4.022,2.377,8.047,4.749,12.075,7.118
		c2.012,1.183,4.025,2.364,6.039,3.544c1.458,0.854,2.917,1.711,4.375,2.567c14.527,8.509,29.092,16.972,43.695,25.39
		c-0.676-2.897-1.182-5.814-1.517-8.75c-0.042-0.351-0.081-0.701-0.117-1.05c-0.176-1.745-0.292-3.496-0.35-5.25
		c-0.023-1.007-0.028-2.009-0.014-3.005c0.011-1.218,0.045-2.423,0.102-3.618c0.17-3.388,0.535-6.698,1.095-9.932
		c0.378-2.184,0.844-4.332,1.399-6.446c0.37-1.401,0.779-2.786,1.226-4.156c-4.576-3.578-9.15-7.176-13.724-10.793
		c-0.914-0.759-1.818-1.488-2.712-2.187l-0.292-0.22l2.844-0.54c0.522,0.422,1.033,0.843,1.531,1.255
		c4.366,3.451,8.736,6.883,13.112,10.295c1.748-4.843,3.999-9.491,6.752-13.943c0.01-0.016,0.02-0.037,0.029-0.058l4.798-0.598
		c-0.565,0.856-1.115,1.726-1.647,2.61l-4.26,7.963v0.117c-0.583,1.731-0.875,2.674-0.875,2.83v0.116l0.437,0.758
		c0.798,0.428,1.381,0.282,1.75-0.438c0.37-0.66,0.808-0.951,1.313-0.874c0.505,0,0.719,0.398,0.641,1.196
		c0,0.37-0.146,0.914-0.438,1.634h0.117c0.37,0.739,0.622,1.137,0.758,1.196c0.447,0,0.699-0.545,0.758-1.634
		c0.155-2.606,0.817-3.948,1.984-4.025c0.292,0,0.398,0.506,0.32,1.516c0,0.661-0.107,1.352-0.32,2.072
		c-0.078,0.447-0.049,0.738,0.087,0.875c0.156,0.155,0.379,0.193,0.671,0.116c0.369,0,0.583-0.544,0.642-1.634
		c0.738-2.625,1.468-3.976,2.187-4.054c0.293-0.137,0.517-0.058,0.672,0.233c0.214,0.138,0.281,0.428,0.204,0.875
		c-0.427,1.011-0.641,1.809-0.641,2.392c-0.078,0.661,0.068,1.021,0.438,1.079c0.797,0,1.196-0.28,1.196-0.845l0.087-2.421
		c0.292-0.934,0.982-1.915,2.07-2.945c0.369-0.641,0.701-1.108,0.992-1.399c0.292-0.234,0.623-0.234,0.992,0h-0.116
		c0.505,0.291,0.583,0.981,0.232,2.07c-0.446,0.428-0.884,1.08-1.312,1.954c0,0.953,0.146,1.499,0.438,1.633
		c1.302,0.155,2.168-0.282,2.596-1.313l0.437-1.837c0.233-1.088,0.924-2.469,2.071-4.142c0.583-1.029,1.128-1.614,1.634-1.75
		c0.525,0.078,0.855,0.223,0.991,0.438c0.215,0.212,0.215,0.535,0,0.963c-0.213,0.874-0.942,2.148-2.187,3.82
		c0,0.661,0.078,1.059,0.233,1.196c0.292,0.233,0.652,0.233,1.079,0c1.167-0.292,1.75-0.836,1.75-1.633
		c0.292-1.439,0.438-2.275,0.438-2.509c0.292-1.224,1.341-2.498,3.15-3.821c0.584-0.934,1.138-1.332,1.663-1.196
		c0.506,0.078,0.719,0.516,0.641,1.313c-0.369,0.796-1.06,2.001-2.071,3.616v0.087c0,0.584,0.068,1.021,0.205,1.313
		c0.233,0.292,0.564,0.437,0.992,0.437c0.797-0.213,1.302-0.68,1.516-1.4c-0.058-0.875-0.019-1.575,0.117-2.1
		c0.504-1.887,1.302-3.481,2.391-4.784c0.954-0.875,1.614-1.274,1.984-1.196c0.292,0,0.466,0.107,0.525,0.321
		c0.078,0.214,0.009,0.505-0.205,0.875c-1.166,2.625-1.75,4.005-1.75,4.143c-0.078,1.166,0.253,1.788,0.991,1.865
		c0.351,0,0.963-0.146,1.838-0.438v-0.116c0.953-0.448,1.536-0.846,1.75-1.196l0.117-2.071l0.643-1.897l4.783,9.685l1.561,1.386
		c-0.035-0.005-0.068-0.011-0.102-0.016c-0.583-0.078-1.283-0.593-2.1-1.545c-0.428-0.856-0.71-1.574-0.847-2.158
		c-0.66-1.09-1.283-1.673-1.867-1.75c-0.369-0.155-1.098,0.058-2.188,0.641c-0.214,0.234-0.681,0.487-1.399,0.758
		c-0.37,0.525-0.088,1.546,0.846,3.064c0.816,1.244,0.854,2.187,0.115,2.83c-0.719,0.446-1.37,0.446-1.954,0
		c-0.505-0.507-1.01-1.449-1.516-2.83l-0.351-1.401v-0.117c-0.35-0.369-1.186-0.223-2.508,0.437
		c-1.147,0.293-1.721,0.798-1.721,1.518v0.116l0.525,2.071c0.292,1.594,0.116,2.538-0.525,2.83
		c-0.953,0.213-1.935-0.808-2.946-3.063c0.058-0.798-0.204-1.158-0.787-1.08c-1.089-0.135-1.994,0.049-2.713,0.555
		c-0.953,0.641-1.391,1.401-1.313,2.275c0.078,0.37,0.331,1.031,0.758,1.984c0.078,0.643-0.137,1.148-0.642,1.516
		c-0.875,0.215-1.537-0.368-1.984-1.749c-0.641-1.458-1.215-2.111-1.721-1.956c-2.042,0.875-3.063,1.605-3.063,2.189
		c0,1.304,0.438,2.83,1.313,4.581h-0.116c0.155,0.583-0.136,1.021-0.875,1.312c-1.167,0-2.042-1.312-2.626-3.938
		c-0.427-0.953-0.748-1.391-0.961-1.312c-1.089-0.137-1.711,0.699-1.868,2.507c0.157,0.875,0.089,1.498-0.204,1.867
		c-0.155,0.428-0.447,0.643-0.875,0.643c-0.37,0.078-0.622-0.03-0.758-0.32c-0.234-0.215-0.38-0.585-0.438-1.11
		c-0.233-1.088-0.563-1.662-0.992-1.719c-0.428,0-0.788,0.175-1.08,0.525c-0.155,0.368-0.232,0.914-0.232,1.632v0.117
		c-0.05,0.968-0.181,1.644-0.395,2.027c-0.134,0.221-0.294,0.344-0.481,0.365c-0.292,0.078-0.545,0.01-0.758-0.205
		c-0.214-0.291-0.322-0.729-0.322-1.312c-0.002-0.021-0.007-0.042-0.014-0.058c-0.152-1.128-0.4-1.693-0.744-1.693
		c-0.312-0.127-0.618,0.005-0.919,0.395c-0.212,0.262-0.421,0.646-0.626,1.151c-0.077,0.358-0.155,0.675-0.234,0.948
		c-0.212,0.784-0.425,1.225-0.642,1.326c-0.505,0.08-0.972-0.281-1.4-1.079h-0.118c-0.369-0.155-0.845,0.058-1.429,0.643
		c-0.349-0.078-0.749-0.37-1.195-0.875c-0.412,0.207-0.713,0.754-0.905,1.648c-0.077,0.374-0.135,0.805-0.175,1.297
		c-0.474,1.825-0.833,3.761-1.079,5.804c-0.094,0.811-0.173,1.637-0.233,2.479c-0.249,1.844-0.418,3.68-0.511,5.514
		c-0.057,1.161-0.082,2.324-0.073,3.485c0.015,2.793,0.215,5.573,0.597,8.343c0.06,0.424,0.122,0.848,0.19,1.269
		c0.482,3.046,1.187,6.081,2.114,9.1c0.322,1.057,0.672,2.113,1.051,3.165c0.705,1.972,1.508,3.942,2.405,5.907l1.635,2.713
		c0.369,0.292,0.514,0.836,0.437,1.633v0.117c0.156,0.37,0.594,0.729,1.313,1.079c0.292,0.233,0.504,0.604,0.641,1.108
		c0.234,0.213,0.603,0.283,1.109,0.205v-0.118c0.291-0.135,0.505-0.205,0.641-0.205c0.156,0,0.273,0.069,0.35,0.205
		c0.059,2.334,0.458,3.608,1.196,3.821c0.351,0,0.856-0.398,1.518-1.196c0.428-0.874,0.904-1.088,1.429-0.641
		c0.584,0.136,0.875,1.079,0.875,2.83c0,0.796,0.107,1.419,0.321,1.866c0.35,0.351,0.816,0.525,1.4,0.525
		c0.447,0,0.709-0.72,0.787-2.159c0.058-0.583,0.165-1.021,0.32-1.313c0.136-0.233,0.39-0.272,0.758-0.116
		c0.136,0,0.536,0.613,1.197,1.837c1.245,2.782,2.266,4.278,3.062,4.493c0.37,0.135,0.691,0.096,0.962-0.117
		c0.234-0.214,0.351-0.612,0.351-1.196l0.641-2.071c0.214-0.368,0.467-0.593,0.76-0.671c0.292-0.058,0.661,0.059,1.108,0.351
		c0.291,0.351,0.32,1.041,0.087,2.071c0.156,2.683,1.215,4.104,3.179,4.259c0.37,0,0.807-0.876,1.313-2.625
		c0.136-0.74,0.35-1.256,0.643-1.546c0.291-0.215,0.689-0.175,1.196,0.115c0.583,0.37,0.767,1.245,0.554,2.627
		c0.213,2.837,1.488,4.296,3.821,4.374c0.584,0,0.914-0.807,0.992-2.42c0.136-0.721,0.35-1.227,0.642-1.517
		c0.214-0.215,0.544-0.293,0.992-0.234c0.283,0.228,0.634,1.025,1.05,2.392c0.008,0.04,0.017,0.079,0.029,0.117
		c0.148,0.831,0.357,1.535,0.628,2.114c0.662,1.412,1.688,2.098,3.077,2.057c0.325,0.043,0.568,0.013,0.729-0.088l0.029,0.351
		l0.889,4.871c-0.101-0.155-0.173-0.339-0.219-0.554c0-0.097,0-0.189,0-0.277c-0.038-0.583-0.183-0.966-0.438-1.153
		c-0.875-0.427-1.789-0.505-2.741-0.232c-1.226,0.816-2.092,1.079-2.596,0.788c-0.525-0.448-0.671-0.926-0.438-1.429
		c0.292-0.721,0.32-1.196,0.087-1.431c-0.409-0.276-0.832-0.501-1.269-0.671c-0.978-0.38-2.022-0.485-3.136-0.32
		c-0.056,0.008-0.114,0.018-0.174,0.028c-1.147,0.507-1.906,0.681-2.276,0.525c-0.505-0.136-1.088-0.749-1.75-1.838v-0.116
		c-0.875-0.214-2.043-0.107-3.5,0.32c-0.642-0.428-1.187-1.146-1.634-2.158c-0.933-0.584-1.837-0.914-2.712-0.992
		c-0.37-0.077-0.884-0.038-1.545,0.117c-0.72,0-1.372-0.66-1.954-1.983h-0.117c-1.381-0.059-2.285-0.311-2.712-0.759
		c-0.739-0.934-1.391-1.586-1.954-1.953h-0.117c-1.089-0.078-1.672,0.106-1.75,0.553c0,0.351,0.331,0.896,0.992,1.634l2.83,3.034
		c2.892,3.256,6.46,6.416,10.705,9.479c0.608,0.439,1.23,0.878,1.866,1.313c0.383,0.261,0.771,0.524,1.167,0.786
		c1.428,0.932,2.877,1.808,4.346,2.627c0.497,0.283,0.998,0.562,1.502,0.831c1.328,0.707,2.669,1.367,4.026,1.983
		c0.659,0.301,1.32,0.593,1.984,0.873c1.327,0.561,2.668,1.081,4.025,1.562l-1.853,3.325c-1.113-0.395-2.217-0.813-3.312-1.254
		c-0.427-0.173-0.855-0.349-1.282-0.525c-0.658-0.282-1.315-0.574-1.969-0.875c-1.147-0.53-2.284-1.089-3.414-1.677
		c-0.086-0.052-0.174-0.099-0.262-0.146c-0.324-0.168-0.645-0.338-0.962-0.51c-0.567-0.31-1.125-0.619-1.678-0.936
		c-1.936-1.11-3.807-2.297-5.614-3.558c-19.792,15.095-39.626,29.78-59.505,44.059c-1.041,0.748-2.08,1.499-3.122,2.247
		c-1.625,1.163-3.248,2.325-4.87,3.485c-2.54,1.805-5.077,3.603-7.613,5.396c-0.195,0.098-0.399,0.155-0.613,0.175
		c-0.213,0-0.418-0.058-0.613-0.175c-0.447-0.273-0.914-0.544-1.399-0.815c-3.268-1.675-6.039-1.84-8.313-0.498h-0.059
		c-2.236,1.44-3.345,4.007-3.324,7.7c0.038,3.948,1.312,7.964,3.82,12.047c2.47,4.124,5.464,7.088,8.984,8.896
		c3.286,1.674,6.077,1.848,8.373,0.525l0.029-0.029c2.235-1.439,3.344-3.996,3.325-7.671c-0.019-0.991-0.078-1.955-0.175-2.888
		c-0.039-0.194-0.02-0.379,0.059-0.553c0.058-0.175,0.174-0.333,0.349-0.469c2.977-2.213,5.966-4.429,8.97-6.649
		c1.626-1.195,3.255-2.391,4.886-3.588c0.987-0.718,1.973-1.437,2.961-2.158c20.535-14.982,41.843-30.01,63.923-45.08
		c-0.339,0.617-0.602,1.05-0.787,1.297l-0.059,0.087c-0.292,0.351-0.719,0.69-1.283,1.022c-0.369,0.291-0.739,0.504-1.108,0.642
		h-0.146l-0.175,0.087c-0.681,0.175-2.168,1.731-4.463,4.666l-0.32,0.409l-0.015,0.102c-18.586,12.821-36.618,25.611-54.093,38.371
		c-0.986,0.72-1.968,1.439-2.946,2.16c-1.639,1.198-3.272,2.399-4.901,3.603c-2.903,2.133-5.791,4.267-8.663,6.402
		c0.097,0.835,0.146,1.682,0.146,2.537c0.019,4.608-1.43,7.779-4.347,9.509h-0.059c-2.858,1.83-6.339,1.682-10.442-0.438
		c-3.87-1.983-7.166-5.212-9.889-9.685v0.03c-2.741-4.453-4.122-8.837-4.141-13.155c0-4.628,1.468-7.816,4.404-9.567v-0.029
		c2.898-1.81,6.398-1.652,10.501,0.467h0.029c0.292,0.175,0.583,0.36,0.875,0.553c2.368-1.674,4.736-3.356,7.103-5.044
		c1.628-1.161,3.257-2.324,4.887-3.487c1.044-0.753,2.089-1.507,3.134-2.26c19.66-14.126,39.271-28.647,58.834-43.563
		c-9.683-7.188-17.359-16.555-23.029-28.104c-2.084-4.448-3.747-8.944-4.988-13.492c-14.862-8.566-29.68-17.19-44.454-25.872
		c-1.458-0.859-2.917-1.72-4.375-2.582c-2.014-1.185-4.026-2.371-6.039-3.558c-4.359-2.568-8.715-5.146-13.068-7.729
		c-14.331-7.761-27.846-16.268-40.544-25.524c-0.136-0.135-0.281-0.281-0.438-0.436c-4.22-8.401-4.55-16.792-0.992-25.174
		c6.126-14.74,15.558-20.71,28.294-17.909C42.268,71.852,42.404,71.91,42.541,72.027z M268.133,141.536
		c-0.721,0.155-1.08,0.417-1.08,0.788c-0.063,0.654-0.025,1.242,0.117,1.764c0.213,0.745,0.641,1.353,1.283,1.824
		c0.816,0.505,1.439,0.718,1.867,0.641c0.505,0.078,0.797-0.174,0.875-0.758c0.135-0.35,0.097-1.068-0.117-2.158
		c-0.292-1.109-0.612-1.771-0.964-1.983c-0.25-0.117-0.776-0.162-1.573-0.132C268.409,141.522,268.273,141.527,268.133,141.536z
		 M269.007,149.411c-0.269,0.199-0.348,0.8-0.233,1.809c0.009,0.084,0.017,0.172,0.03,0.263c0.204,0.765,0.422,1.313,0.655,1.647
		c0.1,0.14,0.202,0.243,0.306,0.307c0.155,0.37,0.594,0.729,1.313,1.078c0.292,0.233,0.583,0.351,0.876,0.351
		c0.29,0,0.476-0.146,0.553-0.438v-0.115c0.048-0.988,0.048-1.849,0-2.582c-0.086-1.369-0.34-2.288-0.759-2.757
		c-0.369-0.37-0.845-0.516-1.428-0.438c-0.065,0-0.127,0.005-0.191,0.015C269.574,148.597,269.2,148.885,269.007,149.411z
		 M269.68,157.258c-0.158,0.292-0.235,0.768-0.235,1.429c-0.078,1.226,0.029,2.131,0.32,2.714c0.584,0.719,1.1,1.224,1.546,1.517
		c0.428,0.233,0.789,0.233,1.081,0c0.213-0.058,0.359-0.778,0.436-2.159c0.079-0.953-0.067-1.614-0.436-1.984
		c-0.586-0.933-1.168-1.477-1.751-1.634C270.213,156.927,269.893,156.965,269.68,157.258z M269.765,164.988
		c-0.121,0.111-0.224,0.231-0.306,0.363c-0.263,0.426-0.345,0.97-0.248,1.634c0.054,0.391,0.17,0.824,0.351,1.298
		c0,0.351,0.213,0.896,0.642,1.634c0.583,0.796,1.06,1.196,1.428,1.196c0.216,0,0.323-0.399,0.323-1.196
		c0.505-1.458,0.65-2.586,0.438-3.383c-0.069-0.322-0.38-0.642-0.935-0.963c-0.082-0.049-0.17-0.099-0.262-0.146
		c-0.447-0.264-0.803-0.419-1.066-0.466C269.977,164.927,269.854,164.935,269.765,164.988z M193.184,219.155
		c1.039,0.287,1.735,0.16,2.084-0.381v-0.015c0.372-1.586,0.81-2.709,1.313-3.368c0.505-0.662,1.088-0.876,1.75-0.643
		c0.505,0.215,0.719,0.758,0.642,1.634c-0.136,2.314,0.263,3.588,1.196,3.82c1.108,0.293,1.838-0.038,2.188-0.991
		c0.446-1.088,0.846-1.818,1.194-2.187c0.953-1.226,1.684-1.809,2.188-1.751c0.446,0.077,0.7,0.303,0.758,0.671
		c0,0.153-0.02,0.328-0.058,0.525c-0.02,0.104-0.043,0.216-0.072,0.335c-0.073,0.286-0.174,0.612-0.308,0.978
		c-0.215,0.874-0.32,1.564-0.32,2.07c0.077,0.447,0.33,0.672,0.758,0.672c0.4,0.033,0.765,0.043,1.094,0.028
		c0.991-0.062,1.646-0.362,1.969-0.903v-0.029c0.081-0.429,0.179-0.826,0.292-1.196c0.068-0.248,0.146-0.486,0.233-0.716
		c0.045-0.122,0.093-0.244,0.146-0.363c0.428-1.147,0.856-1.721,1.283-1.721c0.676,0.165,1.074,0.718,1.196,1.663
		c0.033,0.275,0.043,0.588,0.029,0.932c-0.155,1.828,0.058,2.781,0.642,2.859c0.875,0.213,1.711-0.476,2.509-2.069
		c0.661-1.616,1.498-2.316,2.51-2.102c0.582,0.155,0.766,0.855,0.553,2.102c-0.077,1.224,0.175,1.981,0.759,2.274
		c1.09,0.213,1.886-0.584,2.392-2.393c0.37-2.041,1.021-3.132,1.955-3.267c0.524-0.078,0.856,0.098,0.991,0.524
		c0.213,0.291,0.251,0.836,0.116,1.634c-0.214,0.816-0.291,1.438-0.233,1.867c0.078,0.428,0.303,0.641,0.671,0.641
		c1.226,0.077,2.062-0.32,2.509-1.196c0.103-1.573,0.471-2.7,1.108-3.383c0.214-0.223,0.456-0.398,0.729-0.525
		c0.293-0.155,0.555-0.155,0.79,0c0.211,0.136,0.32,0.496,0.32,1.081c0.29,1.379,0.728,1.962,1.312,1.749l1.195-0.438
		c0.374-0.19,0.631-0.429,0.773-0.715c0.134-0.266,0.169-0.571,0.103-0.918c-0.054-0.841-0.086-1.43-0.103-1.765
		c-0.01-0.16-0.015-0.263-0.015-0.307c0.077-0.797,0.263-1.342,0.553-1.634c0.293-0.232,0.73-0.232,1.315,0
		c0.349,0.137,0.563,0.575,0.641,1.313c0.37,0.934,0.729,1.401,1.079,1.401c0.292,0.213,0.835,0.067,1.634-0.438
		c0.815-0.642,1.293-1.147,1.431-1.516c-0.149-0.229-0.276-0.453-0.381-0.671l3.499,1.56c-0.16,0.351-0.288,0.813-0.377,1.386
		c-0.079,0.875-0.37,1.459-0.876,1.751h-0.116c-0.155,0.155-0.341,0.232-0.554,0.232c-0.215-0.077-0.43-0.262-0.643-0.555v0.117
		c-0.37-0.66-0.738-0.913-1.108-0.758c-0.717,0.17-1.388,0.501-2.012,0.991c-0.443,0.347-0.859,0.774-1.256,1.283
		c-0.084,0.101-0.172,0.208-0.263,0.32c-0.342,0.481-0.692,1.104-1.049,1.868c-0.35,0.136-0.935,0.028-1.751-0.322
		c-0.855-0.505-1.575-0.359-2.159,0.438h-0.117l-0.553,1.516c-0.045,0.451-0.27,0.791-0.671,1.021
		c-0.121,0.069-0.258,0.127-0.408,0.175h-0.117c-0.213,0.155-0.428,0.195-0.643,0.117c-0.233-0.155-0.416-0.378-0.554-0.671
		c-0.292-0.563-0.622-0.846-0.992-0.846v-0.117c-1.963,0.292-3.238,0.651-3.819,1.079c-0.215,0.214-0.72,0.729-1.518,1.548
		c-0.293,0.504-0.689,0.758-1.196,0.758c-0.505-0.077-0.835-0.303-0.992-0.671c0-0.507,0.039-0.827,0.117-0.963v-0.117h-0.117
		c-0.506-0.368-0.942-0.407-1.312-0.117c-1.089,0.155-2.393,1.07-3.908,2.742c-1.091,0.428-1.781,0.457-2.071,0.087
		c-0.291-0.35-0.291-0.748,0-1.193c0.35-0.353,0.524-0.643,0.524-0.876c0.078-0.292,0.01-0.468-0.204-0.525
		c-0.427-0.292-0.866-0.079-1.312,0.641c-0.54,0.342-1.229,0.838-2.072,1.488c-0.361,0.271-0.751,0.574-1.165,0.904
		c-0.049,0.038-0.097,0.075-0.147,0.117c-0.824,0.072-1.287-0.277-1.386-1.051c-0.007-0.048-0.011-0.096-0.014-0.146
		c0.026-0.564-0.014-1.002-0.117-1.313c-0.129-0.367-0.352-0.553-0.671-0.553c-0.104-0.012-0.222-0.009-0.35,0.015
		c-0.319,0.06-0.719,0.225-1.196,0.496c-0.292,0.16-0.613,0.359-0.963,0.598c-0.439,0.322-0.849,0.537-1.226,0.641
		c-0.38,0.105-0.73,0.105-1.049,0c-0.385-0.162-0.56-0.452-0.525-0.874c0.007-0.134,0.036-0.279,0.088-0.438
		c0.215-0.292,0.32-0.545,0.32-0.76c0-0.29-0.105-0.506-0.32-0.641c-0.814-0.36-1.729-0.243-2.742,0.351
		c-0.248,0.148-0.501,0.323-0.758,0.524c-1.302,0.934-2.392,1.293-3.268,1.079c-0.369-0.078-0.622-0.263-0.758-0.554
		c-0.056-0.079-0.086-0.17-0.087-0.277c0.009-0.186,0.106-0.413,0.292-0.686c0.446-0.953,0.564-1.498,0.35-1.634
		c-0.218-0.087-0.437-0.152-0.655-0.19c-0.174-0.034-0.351-0.054-0.525-0.057c-0.112,0-0.224,0.005-0.336,0.015l-0.146-1.371
		L193.184,219.155z M268.569,172.309c-0.914,0.72-1.21,1.591-0.89,2.61c0.038,0.112,0.084,0.223,0.131,0.337
		c0.215,0.742,0.448,1.312,0.701,1.707c0.096,0.144,0.193,0.266,0.292,0.363c0.35,0.37,0.815,0.37,1.399,0
		c0.369-0.135,0.661-0.641,0.875-1.516c0.038-0.177,0.066-0.354,0.087-0.525c0.079-0.529,0.089-1.015,0.03-1.459
		c-0.111-0.246-0.304-0.499-0.585-0.758c-0.12-0.104-0.257-0.211-0.407-0.32C269.483,172.319,268.938,172.172,268.569,172.309z
		 M267.053,179.194c-0.447,0.135-0.738,0.456-0.876,0.961c-0.66,2.119-0.913,3.354-0.758,3.705l1.08,2.74v0.117l0.554,0.525
		c0.583,0,0.876-0.466,0.876-1.401c0.933-2.916,1.398-4.481,1.398-4.696c-0.136-0.212-0.456-0.503-0.961-0.874
		c-0.663-0.72-1.062-1.079-1.196-1.079H267.053z M265.74,190.744l-1.635-3.063c-0.368-0.215-0.874,0.185-1.516,1.196
		c-0.368,0.875-0.486,1.496-0.349,1.867c0,0.37,0.114,1.021,0.349,1.954h0.086c0.449,1.167,0.779,1.75,0.993,1.75
		c0.369,0.213,0.847-0.292,1.43-1.517C265.526,191.842,265.74,191.113,265.74,190.744z M242.376,219.84
		c1.882-1.36,3.675-2.805,5.382-4.333l3.66,1.619c-1.918,1.749-3.882,3.386-5.892,4.916c3.563,2.491,7.125,4.97,10.689,7.438
		c-0.181,0.562-0.429,1.271-0.742,2.129c-3.938-2.717-7.871-5.449-11.8-8.196c-1.513,1.08-3.049,2.101-4.609,3.063
		c-0.347,0.218-0.697,0.433-1.049,0.641c-1.654,0.983-3.336,1.896-5.047,2.742c-0.497,0.249-0.998,0.494-1.502,0.729
		c-1.394,0.656-2.803,1.27-4.23,1.838c-1.893,0.715-3.803,1.355-5.731,1.926c26.533,16.263,52.042,32.52,76.525,48.77
		c1.012,0.673,2.021,1.343,3.033,2.012c1.708,1.141,3.409,2.278,5.104,3.413c3.396,2.278,6.771,4.553,10.123,6.827
		c0.155,0.155,0.301,0.33,0.438,0.523c0.098,0.138,0.105,0.313,0.028,0.525c-0.02,0.876-0.038,1.866-0.058,2.976
		c0.155,3.637,1.391,6.097,3.704,7.379v0.118c2.372,1.186,5.153,0.874,8.342-0.934c3.423-1.966,6.282-5.038,8.576-9.218
		c2.353-4.239,3.441-8.284,3.268-12.135c-0.078-3.791-1.274-6.357-3.589-7.699c-2.373-1.227-5.162-0.926-8.372,0.903
		c-0.428,0.311-0.884,0.623-1.37,0.934c-0.136,0.077-0.321,0.117-0.555,0.117c-0.214,0.019-0.389-0.01-0.524-0.088
		c-2.711-1.743-5.42-3.494-8.123-5.251c-1.688-1.093-3.374-2.192-5.062-3.296c-1.073-0.7-2.147-1.399-3.224-2.101
		c-13.76-8.999-27.511-18.183-41.243-27.549c0.409-0.23,0.998-0.706,1.764-1.429c13.54,9.231,27.095,18.289,40.661,27.17
		c1.082,0.706,2.161,1.411,3.238,2.114c1.689,1.101,3.376,2.199,5.062,3.296c2.496,1.614,4.988,3.222,7.482,4.828
		c0.192-0.215,0.438-0.397,0.728-0.555h0.117c3.967-2.295,7.448-2.586,10.441-0.875c3.055,1.595,4.678,4.725,4.873,9.394
		c0.115,4.2-1.071,8.613-3.56,13.242c-2.566,4.608-5.737,7.952-9.51,10.033c-4.044,2.353-7.534,2.645-10.472,0.876h-0.086
		c-2.976-1.614-4.521-4.679-4.639-9.19c-0.038-0.873-0.038-1.738,0-2.595c-3.299-2.233-6.614-4.469-9.946-6.709
		c-1.705-1.142-3.416-2.283-5.134-3.426c-1.004-0.669-2.01-1.335-3.019-1.999c-24.893-16.526-50.814-33.081-77.766-49.66
		c-6.686,1.699-13.556,2.507-20.607,2.422v-3.633c5.454,0.05,10.792-0.485,16.014-1.604c0.963-0.204,1.921-0.427,2.872-0.671
		c3.379-0.864,6.71-1.978,9.99-3.34c0.244-0.102,0.489-0.203,0.73-0.308c0.994-0.421,1.985-0.868,2.977-1.341
		c3.458-1.609,6.702-3.426,9.726-5.455C241.112,220.733,241.75,220.291,242.376,219.84z"/>
	<path fill-rule="evenodd" clip-rule="evenodd" fill="#BC2240" d="M129.872,107.437h0.117l8.488-2.305l22.547-9.479l6.768-5.075
		l0.992-2.947l-1.401-9.218L149.24,88.39c-0.582,0.33-1.132,0.641-1.648,0.933c-3.364,1.891-5.391,2.981-6.082,3.268
		c-1.381,0.37-4.92,2.849-10.617,7.438l-11.639,8.604L129.872,107.437z M164.029,48.604l2.07-6.067l3.151-4.726l5.25-1.487
		l5.25,0.525l6.067,1.662l3.5,2.597l1.546,3.703l0.846,5.659l-1.342,3.675l0.233,4.229l2.596,1.721l1.663,5.484l3.792,8.254
		l2.945,8.196l5.6,10.268l3.006,7.963l1.312,9.948l0.088,0.175l3.615,9.888l0.265,3.996l5.717,7.263l0.788,6.768l-1.691,14.263
		l1.196,7.088l4.403,13.33l1.108,6.154l6.681,7.176l11.171,6.855l18.755,13.505l4.144,6.242l5.248,1.545l4.844,3.472l1.195,1.896
		l-2.129,5.164l-7.205,8.864l0.058-0.085c-1.365,1.511-2.353,2.512-2.96,3.003c-0.129,0.1-0.241,0.177-0.335,0.234
		c-0.494,0.242-1.03,0.596-1.604,1.063c-0.854,0.701-1.797,1.648-2.83,2.845l-2.216,0.583l-1.896-2.071l0.028-2.712
		c0.378-0.972,0.718-1.865,1.022-2.683c0.283-0.78,0.532-1.49,0.743-2.132c0.774-2.32,1.1-3.759,0.976-4.315
		c0-0.313,0.265-1.566,0.788-3.763v-0.088l1.195-4.9l-3.236-2.684l-21.555-9.509l-16.743-10.793l-10.707-11.754l-11.053-13.681
		l-6.009,17.968l-1.605,8.517l-0.292,17.588l-3.15,4.318l0.584,4.929l1.75,3.851l0.087,0.291l2.275,2.802l0.963,3.587l0.029,2.685
		l-16.626,6.94h0.146c-0.643,0.155-2.703,1.381-6.185,3.675l-5.979,1.867l-0.496-0.146l0.38-1.722
		c1.399-1.827,2.275-2.877,2.625-3.149c0.622-0.215,1.273-0.545,1.954-0.991c0.992-0.662,1.75-1.343,2.275-2.041l0.058-0.09
		c0.487-0.563,1.264-1.874,2.334-3.938h-0.059l3.997-7.32l0.058-6.389l-1.808-9.917l-0.233-15.314l-2.392-6.038l-1.196-10.5
		l1.079-7.03l10.646-32.785l0.322-6.213l1.399-2.946l-8.225-7.204l-4.959-10.18l-1.399-9.218l-6.709-0.205l-0.234,0.088
		l-12.426,3.004h-0.146l-0.058,0.028l-13.738,5.076l-15.314,1.954l-4.463-0.175l-0.263,0.029l-11.754,2.217l-2.976-0.351
		l-0.846-0.875l-0.787-1.924h1.254v-4.23l0.292-0.729l1.924-0.498l3.821,1.869l6.184-2.714l4.667-5.542l4.521-3.762l0.087-0.029
		l19.251-19.164l-0.057,0.087l16.072-13.826l5.161-3.237l1.401-6.535l-0.262-2.45l-9.538-2.334l0.058,0.058l-0.175,0.176
		l0.204-0.525l0.233,0.173l1.954-1.194L164.029,48.604z M87.869,115.255l-26.062,3.938l-25.654,3.295l-0.438-0.788l0.146-3.616
		l0.816-2.042l0.525-0.263l5.25-0.35L87.869,115.255z"/>
	<path fill-rule="evenodd" clip-rule="evenodd" fill="#23356D" d="M375.123,79.405c0.642,1.323,0.818,2.752,0.524,4.289
		c-0.271,1.479-0.737,2.081-1.398,1.809c-0.565-0.272-1.653-1.624-3.268-4.055c-1.361-2.1-2.471-3.966-3.326-5.6
		c-0.796-1.653-1.409-3.237-1.837-4.756c-0.466-1.709-0.418-2.449,0.146-2.216c0.721,0.352,2.216,1.838,4.493,4.463
		C372.849,75.983,374.404,78.006,375.123,79.405z M30.64,80.834c0.563-0.271,0.641,0.458,0.233,2.188
		c-0.369,1.537-0.904,3.141-1.604,4.814c-0.778,1.691-1.818,3.615-3.121,5.775c-1.497,2.489-2.529,3.88-3.092,4.17
		c-0.642,0.313-1.137-0.262-1.489-1.721c-0.33-1.536-0.213-2.985,0.352-4.346c0.66-1.419,2.128-3.51,4.404-6.27
		C28.481,82.76,29.921,81.225,30.64,80.834z M31.427,100.028c-0.234,4.376,0.107,7.701,1.021,9.976
		c0.252,0.603,0.505,1.351,0.758,2.247c0.065,0.266,0.143,0.514,0.233,0.743l-0.087,0.044l-0.787,2.114
		c-1.269-2.639-1.814-6.212-1.634-10.72C31.145,102.663,31.31,101.195,31.427,100.028z M36.21,103.441
		c-0.097,2.625,0.321,4.754,1.254,6.387c0.296,0.458,0.723,1.017,1.283,1.679l-1.604,0.101c-0.489-0.583-0.877-1.106-1.167-1.574
		c-0.992-1.634-1.234-3.783-0.729-6.447c0.448-2.43,0.827-3.625,1.138-3.588C36.483,99.999,36.424,101.146,36.21,103.441z
		 M41.461,95.595c0.156-1.673,0.428-3.423,0.817-5.251c0.467-1.982,0.933-3.666,1.4-5.046c0.661-1.924,1.235-2.83,1.721-2.712
		c0.642,0.175,1.43,1.421,2.363,3.733c0.972,2.392,1.302,4.25,0.991,5.571c-0.292,1.284-1.361,2.85-3.208,4.696
		c-1.789,1.789-3.014,2.625-3.675,2.509C41.402,98.94,41.266,97.772,41.461,95.595z M49.57,99.649
		c-0.467,0.74-0.846,1.518-1.137,2.333c-0.447-0.175-0.535-0.923-0.263-2.246c0.273-1.381,0.885-2.139,1.838-2.274
		c1.614-0.331,2.956-0.438,4.026-0.321c2.042,0.213,4.453,1.059,7.234,2.538c3.946,2.003,8.283,4.501,13.008,7.496
		c2.083,1.338,4.028,2.641,5.833,3.909h-4.054c-2.681-1.822-5.763-3.746-9.247-5.776c-5.484-3.228-9.665-5.396-12.542-6.505
		C52.049,97.967,50.484,98.25,49.57,99.649z M361.035,88.302c0.33-0.078,0.768,1.089,1.313,3.5c0.604,2.645,0.445,4.814-0.468,6.505
		c-1.496,2.645-6.076,7.186-13.737,13.621l5.162-5.424c3.813-4.006,6.163-6.786,7.059-8.342c0.876-1.671,1.217-3.82,1.021-6.447
		C361.055,89.44,360.937,88.302,361.035,88.302z M365.993,88.07c0.175,1.186,0.408,2.654,0.701,4.403
		c0.428,5.349-0.216,9.412-1.927,12.194c-1.867,2.837-5.191,6.047-9.976,9.625c-6.222,4.356-11.123,7.847-14.701,10.471
		c-5.872,4.18-14.078,9.821-24.616,16.918c-10.931,7.332-15.802,10.433-14.615,9.305c0.874-0.855,9.053-7.001,24.531-18.435
		c16.586-12.25,26.787-19.94,30.598-23.073c4.666-3.869,7.37-6.357,8.108-7.466c0.312-0.428,0.535-0.973,0.671-1.634
		c0.195-0.914,0.4-1.672,0.613-2.274C366.197,95.771,366.401,92.425,365.993,88.07z M349.104,90.752
		c-0.33-0.796-0.739-1.535-1.225-2.217c-0.992-1.379-2.577-1.604-4.755-0.67c-2.819,1.246-6.895,3.587-12.221,7.03
		c-5.64,3.598-10.182,6.875-13.624,9.83c-3.79,3.19-7.681,7.03-11.666,11.521c-4.123,4.668-5.893,7.283-5.309,7.847
		c0.525,0.409,3.81-1.069,9.858-4.434c3.344-1.847,8.195-4.637,14.555-8.372c2.139-1.206,5.999-3.666,11.579-7.38
		c4.416-2.975,7.255-4.677,8.519-5.104c1.731-0.642,2.635-0.388,2.713,0.759c0.097,1.186-0.953,2.615-3.149,4.287
		c-2.005,1.401-6.115,3.773-12.34,7.118c-7.312,3.831-12.444,6.543-15.4,8.138c-7.06,4.006-12.27,6.951-15.634,8.837
		c-6.009,3.385-9.267,4.707-9.772,3.968c-0.506-0.934,1.527-4.268,6.097-10.005c4.316-5.464,8.507-10.123,12.57-13.973
		c3.462-3.305,7.983-6.913,13.565-10.821c4.608-3.228,8.847-5.931,12.717-8.108c2.703-1.576,5.074-2.519,7.117-2.83
		c1.069-0.155,2.42-0.097,4.054,0.175c0.935,0.098,1.566,0.835,1.896,2.217C349.6,89.848,349.551,90.579,349.104,90.752z
		 M351.292,71.269c0.466-0.137,1.08,0.739,1.838,2.625c0.523,1.381,1.06,3.043,1.604,4.988c0.466,1.827,0.815,3.568,1.051,5.22
		c0.271,2.179,0.184,3.355-0.263,3.53c-0.643,0.137-1.906-0.651-3.792-2.362c-1.906-1.75-3.045-3.257-3.413-4.521
		c-0.352-1.343-0.088-3.229,0.787-5.659C349.941,72.737,350.669,71.462,351.292,71.269z M304.739,106.358
		c3.345-1.711,4.686-2.003,4.025-0.875c-0.293,0.428-3.288,3.092-8.985,7.993c-6.027,5.211-10.345,9.353-12.949,12.425
		c-4.299,5.114-8.411,10.443-12.34,15.985c-0.077,0.111-0.154,0.223-0.232,0.335c-0.498-2.3-1.091-4.551-1.779-6.752
		c2.443-3.271,5.954-7.161,10.528-11.667c4.299-4.24,8.324-7.896,12.077-10.968C298.078,110.306,301.297,108.147,304.739,106.358z
		 M249.26,100.642c-5.412-4.65-11.281-8.423-17.604-11.318h84.212l-27.959,22.199c-0.913,0.758-1.818,1.535-2.712,2.333
		c-5.256,4.536-10.516,9.042-15.782,13.52c-0.44-0.998-0.908-1.984-1.399-2.961C263.154,115.255,256.902,107.33,249.26,100.642z
		 M206.658,82.63l-1.413-2.582l-0.643-1.838h125.25l-7.598,6.04H216.488c-1.594-0.359-3.213-0.669-4.856-0.934
		C209.968,83.038,208.309,82.809,206.658,82.63z M137.018,101.195l-1.459,0.467c3.793-3.072,6.204-4.784,7.234-5.133
		c0.855-0.273,3.685-1.799,8.488-4.581l4.595-2.625h6.752l-3.617,2.684L137.018,101.195z M74.918,84.249v11.259l-6.039-4.376v-9.976
		c0-0.74,0.283-1.438,0.847-2.101c0.68-0.563,1.38-0.846,2.099-0.846h68.489l-6.053,6.04H74.918z M79.292,90.87
		c0-1.031,0.516-1.546,1.546-1.546h48.333l-7.118,7.088l-4.988,4.143l-4.142,4.9l-3.5,1.518l-3.529-1.691l-5.455,1.544l-1.254,3.53
		l-0.059,0.701h-2.756L79.292,98.672V90.87z M335.337,134.054v91.313c0,2.042-0.087,3.996-0.263,5.862
		c-0.565,4.668-1.634,9.489-3.208,14.468c-2.846,8.884-7.052,17.563-12.615,26.033c-1.686-1.097-3.372-2.195-5.062-3.296
		c4.733-7.207,8.416-14.61,11.056-22.211c2.741-7.759,4.112-14.536,4.112-20.331v-87.959
		C331.352,136.643,333.345,135.349,335.337,134.054z M256.407,243.859l0.889,1.021c-1.118-0.567-1.688-0.897-1.707-0.991
		C255.56,243.767,255.83,243.757,256.407,243.859z M245.526,222.042c2.01-1.53,3.974-3.167,5.892-4.916l5.951,2.642l0.699,0.553
		l-0.641,2.51l0.087-0.03c-0.721,2.995-1.031,4.744-0.933,5.252c-0.015,0.237-0.138,0.713-0.366,1.429
		C252.651,227.012,249.09,224.533,245.526,222.042z M276.183,162.581c0.014-0.394,0.023-0.789,0.029-1.181
		c11.889-6.976,15.826-9.095,11.813-6.36C283.84,157.715,279.893,160.229,276.183,162.581z M283.62,219.445l-2.713-4.346
		l-6.096-4.376l-4.404-1.371l-3.733-5.542l-2.508-1.809c2.766-4.41,5.109-9.184,7.029-14.321c1.845-5.015,3.179-9.998,3.995-14.949
		c16.656-10.577,33.254-21.228,49.792-31.955v84.27c0,1.887-0.089,3.703-0.264,5.454c-0.563,4.219-1.555,8.624-2.975,13.213
		c-2.478,7.688-6.075,15.224-10.793,22.606c-13.566-8.881-27.121-17.938-40.661-27.17c0.689-0.659,1.526-1.521,2.509-2.582
		l0.059-0.088l7.671-9.334L283.62,219.445z M314.307,126.805c4.49-2.022,7.164-3.178,8.021-3.47c2.84-1.129,3.21-0.914,1.109,0.643
		c-2.684,1.886-8.527,5.629-17.532,11.229c-9.371,5.814-16.47,10.123-21.292,12.922c-3.473,2.107-6.374,3.854-8.706,5.236
		c-0.098-1.156-0.214-2.299-0.353-3.428c1.617-0.996,3.507-2.221,5.674-3.675c10.309-6.905,15.956-10.637,16.948-11.201
		C304.028,131.638,309.405,128.886,314.307,126.805z M270.058,248.673c1.887,1.129,4.258,3.071,7.118,5.834
		c2.566,2.489,3.887,3.947,3.965,4.375c0.02,0.099-1.147-0.739-3.499-2.509c-2.956-2.177-5.25-3.743-6.884-4.695
		c-1.479-0.914-4.521-2.47-9.132-4.667c-0.843-0.403-1.596-0.768-2.26-1.093l2.349-0.615
		C265.473,246.452,268.255,247.576,270.058,248.673z M238.016,227.116c0.352-0.208,0.702-0.423,1.049-0.641
		c0.275,0.169,0.573,0.354,0.892,0.555c2.079,1.342,3.576,2.479,4.491,3.413c1.147,1.108,2.119,2.304,2.915,3.588
		c0.896,1.437,1.041,2.264,0.44,2.479c-1.13,0.349-4.854-0.798-11.174-3.443c-1.303-0.555-3.022-1.382-5.162-2.479
		c0.504-0.235,1.005-0.48,1.502-0.729c1.813,0.553,3.18,0.953,4.099,1.196c2.449,0.643,3.89,0.845,4.315,0.612
		c0.351-0.272-0.405-1.399-2.274-3.383C238.696,227.845,238.331,227.455,238.016,227.116z M245.381,239.136
		c10.868,5.949,21.06,12.046,30.568,18.289c9.294,5.892,22.801,15.068,40.516,27.535c3.032,2.157,4.355,3.228,3.966,3.208
		c-0.252-0.02-1.419-0.584-3.5-1.691c-3.655-2.142-10.043-6.097-19.164-11.872c-0.971-0.623-7.564-4.949-19.775-12.979
		c-9.275-6.128-16.103-10.551-20.477-13.272c-4.182-2.588-9.51-5.718-15.984-9.393c-5.717-3.189-8.839-4.969-9.364-5.339
		c-1.051-0.835-0.01-0.621,3.122,0.643C238.536,235.567,241.898,237.189,245.381,239.136z M198.156,239.66v-2.144
		c7.051,0.085,13.921-0.723,20.607-2.422c26.951,16.579,52.873,33.134,77.766,49.66c-0.236,0.249-0.475,0.504-0.715,0.758
		c-0.194,0.175-10.938,9.335-32.231,27.478c-24.405,19.641-44.756,33.194-61.052,40.662c-0.447,0.193-0.903,0.193-1.369,0
		c-16.297-7.468-36.54-21.021-60.731-40.662c-21.137-18.221-31.842-27.439-32.114-27.652c-0.362-0.381-0.721-0.759-1.079-1.139
		c17.476-12.76,35.507-25.55,54.093-38.371l-1.269,6.403l5.455,1.457l7.379-2.274l0.466-0.263c3.17-2.041,4.998-3.18,5.484-3.412
		h0.146L198.156,239.66z M285.196,261.828c-0.194-0.33,2.159,0.758,7.058,3.268c5.095,2.624,8.79,4.733,11.084,6.329
		c2.276,1.497,4.931,3.578,7.963,6.242c2.646,2.313,4.113,3.713,4.406,4.201c0.078,0.114-0.924-0.595-3.005-2.13
		c-2.819-2.081-5.192-3.765-7.118-5.047c-1.672-1.128-5.666-3.637-11.987-7.524C288.113,263.782,285.313,262.003,285.196,261.828z
		 M99.186,119.309l2.509,2.654l2.348,0.249c3.675,2.796,7.618,6.106,11.828,9.932c3.008,2.713,5.579,5.197,7.715,7.453
		c-0.555,2.114-1.021,4.262-1.399,6.446c-3.227-4.024-6.567-7.917-10.02-11.682c-2.742-2.937-7.234-6.873-13.477-11.813
		c-2.137-1.687-3.911-3.098-5.323-4.229l3.734-0.758c0.616,0.347,1.224,0.707,1.823,1.079L99.186,119.309z M119.021,120.185
		l4.346,0.205l8.983-1.138c-0.009,0.021-0.019,0.042-0.029,0.058c-2.754,4.452-5.004,9.1-6.752,13.943
		c-4.375-3.412-8.746-6.845-13.112-10.295c-0.498-0.413-1.008-0.833-1.531-1.255L119.021,120.185z M304.681,290.18
		c-0.292,0.313-0.585,0.624-0.876,0.933l-0.145,0.148c-0.76,0.737-12.533,10.791-35.324,30.159
		c-25.902,20.729-47.642,35.13-65.222,43.199c-0.836,0.252-1.722,0.252-2.654,0c-17.58-8.148-39.174-22.548-64.784-43.199
		c-22.538-19.466-34.235-29.566-35.09-30.308h-0.117c-0.363-0.384-0.723-0.77-1.08-1.15c1.629-1.203,3.263-2.404,4.901-3.603
		c0.163,0.174,0.328,0.349,0.495,0.524c0.681,0.681,11.998,10.463,33.953,29.343c25.065,20.283,46.106,34.392,63.122,42.325
		c16.916-7.934,37.986-22.042,63.207-42.325c22.267-18.88,33.721-28.662,34.361-29.343c0.042-0.043,0.081-0.087,0.117-0.13
		C301.265,287.896,302.976,289.038,304.681,290.18z M316.522,289.596c3.578,0.155,5.979-0.067,7.206-0.67
		c0.582-0.311,0.873-0.738,0.873-1.284c0.02-0.272-0.097-0.885-0.349-1.836c-0.331-1.518-1.117-3.326-2.363-5.426
		c3.169,1.983,4.979,3.955,5.427,5.921c0.175,0.972-0.069,2.042-0.73,3.208c-0.681,1.148-1.486,1.886-2.42,2.218
		C322.377,292.271,319.83,291.56,316.522,289.596z M92.973,125.581c-2.067-2.156-4.105-4.147-6.111-5.979l3.21-0.613
		c3.683,3.361,7.489,7.309,11.419,11.842c4.803,5.561,6.98,8.819,6.533,9.772c-0.466,0.72-3.782-0.476-9.946-3.588
		c-3.442-1.711-8.77-4.423-15.984-8.138c-2.743-1.318-7.298-3.482-13.666-6.49l5.455-0.816c6.401,3.372,11.296,5.894,14.686,7.569
		c6.203,3.112,9.548,4.454,10.035,4.025C99.186,132.581,97.31,130.054,92.973,125.581z M123.746,180.636
		c1.241,4.548,2.904,9.044,4.988,13.492c5.67,11.55,13.346,20.917,23.029,28.104c-19.563,14.915-39.175,29.437-58.834,43.563
		c-3.973-6.3-7.119-12.728-9.436-19.281c-2.8-7.661-4.201-14.534-4.201-20.621v-71.129
		C94.066,163.445,108.884,172.07,123.746,180.636z M121.354,167.846c0.036,0.35,0.075,0.7,0.117,1.05
		c-2.945-1.695-6.027-3.474-9.246-5.339C108.458,161.222,111.501,162.653,121.354,167.846z M120.99,159.592
		c-1.693-0.903-3.583-1.925-5.674-3.063c-4.959-2.606-12.222-6.603-21.79-11.989c-9.255-5.211-15.264-8.702-18.026-10.472
		c-2.159-1.459-1.789-1.692,1.108-0.699c0.856,0.271,3.569,1.312,8.139,3.12c4.978,1.847,10.462,4.366,16.451,7.556
		c1.031,0.505,6.845,3.986,17.443,10.441c0.861,0.528,1.678,1.024,2.45,1.488C121.035,157.168,121.001,158.374,120.99,159.592z
		 M55.884,111.112h-5.498c-0.024-0.14-0.034-0.276-0.029-0.408c0.039-1.148,0.933-1.449,2.683-0.904
		C53.636,109.981,54.584,110.419,55.884,111.112z M68.879,148.624c2.012,1.188,4.025,2.374,6.039,3.558v73.711
		c0,5.795,1.351,12.572,4.054,20.331c2.61,7.46,6.217,14.738,10.822,21.831c-1.63,1.163-3.258,2.326-4.887,3.487
		c-4.878-7.43-8.724-15.014-11.536-22.752c-2.995-8.439-4.492-15.928-4.492-22.46V148.624z M58.903,135.556
		c-3.694-2.47-8.75-5.747-15.167-9.83l-0.03-0.015l4.508-0.553c5.549,3.877,14.111,9.725,25.683,17.544
		c15.964,10.755,24.404,16.53,25.318,17.328c1.225,1.089-3.772-1.789-14.993-8.634C73.372,144.744,64.932,139.464,58.903,135.556z
		 M89.356,289.772c-3.208,2.081-5.717,2.887-7.526,2.421c-0.972-0.272-1.809-0.983-2.509-2.129c-0.738-1.129-1.03-2.169-0.875-3.122
		c0.351-2.003,2.061-4.063,5.134-6.184c-1.147,2.158-1.838,4.006-2.072,5.542c-0.233,0.972-0.34,1.585-0.32,1.838
		c0.039,0.524,0.36,0.942,0.963,1.253C83.396,289.938,85.797,290.064,89.356,289.772z M85.418,288.488
		c-0.388,0.02,0.885-1.108,3.821-3.384c17.132-13.224,30.229-22.975,39.291-29.256c9.217-6.631,19.125-13.165,29.723-19.601
		c3.182-1.946,6.269-3.609,9.262-4.989c0.427,0.177,0.855,0.353,1.282,0.525c-1.523,0.96-3.755,2.339-6.694,4.142
		c-6.319,3.947-11.512,7.303-15.576,10.064c-4.259,2.896-10.89,7.611-19.894,14.146c-11.842,8.537-18.23,13.145-19.164,13.825
		c-8.887,6.164-15.1,10.385-18.639,12.66C86.789,287.828,85.652,288.45,85.418,288.488z M162.132,228.707
		c1.129,0.588,2.267,1.146,3.414,1.677c-5.463,2.529-8.74,3.657-9.831,3.385c-0.603-0.215-0.485-1.051,0.352-2.51
		c0.738-1.341,1.652-2.576,2.741-3.705c0.127-0.144,0.268-0.288,0.422-0.438c0.552,0.316,1.111,0.626,1.678,0.936
		c0.318,0.172,0.639,0.342,0.962,0.51c0.012,0.03,0.031,0.053,0.059,0.072C161.98,228.664,162.049,228.688,162.132,228.707z
		 M111.292,266.32c-6.146,4.162-10.015,6.846-11.609,8.05c-1.906,1.361-4.209,3.151-6.914,5.368
		c-2.021,1.613-2.995,2.361-2.916,2.244c0.271-0.485,1.671-1.942,4.2-4.375c2.937-2.799,5.493-4.996,7.671-6.591
		c2.236-1.691,5.853-3.947,10.851-6.768c4.784-2.741,7.079-3.947,6.885-3.617C119.342,260.826,116.62,262.723,111.292,266.32z
		 M148.248,241.469c-0.019,0.174-1.974,1.302-5.862,3.383c-4.531,2.372-7.517,4.044-8.956,5.018
		c-1.575,1.011-3.783,2.664-6.622,4.958c-2.294,1.906-3.433,2.801-3.412,2.685c0.059-0.448,1.313-1.964,3.763-4.551
		c2.722-2.857,5.007-4.891,6.854-6.097c1.848-1.244,4.755-2.547,8.722-3.909C146.488,241.634,148.326,241.137,148.248,241.469z"/>
	<path fill-rule="evenodd" clip-rule="evenodd" fill="#FFFFFF" d="M375.123,79.405c-0.719-1.399-2.274-3.422-4.666-6.067
		c-2.277-2.625-3.772-4.111-4.493-4.463c-0.563-0.233-0.611,0.507-0.146,2.216c0.428,1.519,1.041,3.103,1.837,4.756
		c0.855,1.634,1.965,3.5,3.326,5.6c1.614,2.431,2.702,3.782,3.268,4.055c0.661,0.272,1.127-0.33,1.398-1.809
		C375.941,82.157,375.765,80.729,375.123,79.405z M380.432,100.524c-12.192,9.723-25.183,18.697-38.97,26.923
		c-0.039,0-0.058,0.02-0.058,0.058c-2.022,1.32-4.044,2.638-6.067,3.953c-1.992,1.3-3.985,2.599-5.979,3.894
		c-1.459,0.948-2.917,1.896-4.375,2.844c-16.401,10.634-32.856,21.198-49.368,31.692c0.315-2.443,0.505-4.878,0.568-7.307
		c3.71-2.352,7.657-4.866,11.842-7.541c4.014-2.735,0.076-0.616-11.813,6.36c0.004-0.439,0.004-0.877,0-1.313
		c-0.027-2.283-0.129-4.525-0.306-6.723c2.332-1.383,5.233-3.129,8.706-5.236c4.822-2.8,11.921-7.108,21.292-12.922
		c9.005-5.599,14.849-9.342,17.532-11.229c2.101-1.556,1.73-1.771-1.109-0.643c-0.856,0.292-3.53,1.448-8.021,3.47
		c-4.901,2.082-10.278,4.833-16.131,8.256c-0.992,0.563-6.64,4.296-16.948,11.201c-2.167,1.454-4.057,2.679-5.674,3.675
		c-0.317-2.631-0.751-5.201-1.296-7.715c0.078-0.113,0.155-0.225,0.232-0.335c3.929-5.542,8.041-10.871,12.34-15.985
		c2.604-3.072,6.922-7.213,12.949-12.425c5.697-4.901,8.692-7.565,8.985-7.993c0.66-1.128-0.681-0.836-4.025,0.875
		c-3.442,1.789-6.661,3.948-9.655,6.475c-3.753,3.072-7.778,6.728-12.077,10.968c-4.574,4.506-8.085,8.396-10.528,11.667
		c-0.642-2.05-1.366-4.059-2.173-6.022c5.441-4.63,10.883-9.294,16.319-13.986c0.876-0.76,1.75-1.498,2.625-2.218l64.727-51.425
		c11.414-2.839,20.183,2.364,26.311,15.607C383.902,84.987,383.952,92.688,380.432,100.524z M49.57,99.649
		c0.914-1.399,2.479-1.682,4.697-0.846c2.877,1.108,7.058,3.277,12.542,6.505c3.484,2.03,6.566,3.954,9.247,5.776h4.054
		c-1.806-1.268-3.75-2.571-5.833-3.909c-4.726-2.995-9.062-5.493-13.008-7.496c-2.782-1.479-5.193-2.325-7.234-2.538
		c-1.07-0.117-2.412-0.01-4.026,0.321c-0.953,0.136-1.565,0.894-1.838,2.274c-0.272,1.323-0.184,2.071,0.263,2.246
		C48.724,101.167,49.103,100.389,49.57,99.649z M15.85,90.549c5.523-13.398,14.05-18.932,25.582-16.597l51.221,37.118l6.475-0.015
		l0.059-0.701l1.254-3.53l5.455-1.544l3.529,1.691l3.5-1.518l4.142-4.9l4.988-4.143l19.047-18.987l16.218-13.973l4.172-2.625
		l0.7-3.18l-6.913-1.662l-3.501-3.327l1.721-3.266L157.173,47l3.5-1.488l1.634-4.754l4.316-6.447l7.526-2.187l6.767,0.7l6.739,1.867
		l5.046,3.733l2.188,5.279l1.108,7.233l-1.429,3.88l0.059,1.226l2.1,1.341l2.013,6.738l3.704,8.051l0.06,0.058v0.059l2.742,7.758
		l3.703,6.753c1.257,0.185,2.521,0.405,3.792,0.655c2.687,0.504,5.298,1.125,7.831,1.867c13.947,4.072,25.658,11.733,35.135,22.985
		c4.525,5.735,8.051,11.647,10.574,17.736c0.032,0.089,0.067,0.177,0.102,0.261c0.325,0.599,0.623,1.171,0.89,1.721
		c1.313,2.652,1.97,4.704,1.97,6.154c0.058,0.273,0.018,0.448-0.117,0.525c-0.155,0.155-0.408,0.235-0.758,0.235
		c-0.663-0.08-1.722-0.37-3.181-0.875c-1.088-1.323-1.556-2.344-1.4-3.063v-0.03c0.109-0.09,0.217-0.184,0.32-0.277
		c0.286-0.137,0.754-0.288,1.4-0.453c0.37-0.155,0.555-0.378,0.555-0.671c0.051-0.135,0.041-0.302-0.029-0.495
		c-0.039-0.107-0.098-0.225-0.175-0.35c-0.292-0.525-0.875-0.709-1.751-0.554c-0.127,0.007-0.249,0.017-0.363,0.028
		c-1.016,0.059-1.584,0.087-1.707,0.087h-0.117c-1.01-0.233-2.246-1.691-3.703-4.374c-0.154-0.505,0.203-1.013,1.079-1.518
		c0.505-0.232,0.797-0.496,0.876-0.788c0.155-0.213,0.088-0.466-0.206-0.758c-0.447-0.504-1.468-0.651-3.062-0.438
		c-1.673,0.292-2.725-0.146-3.15-1.312c-0.234-0.351,0.165-0.923,1.196-1.721c0.505-0.448,0.719-0.846,0.641-1.196
		c0-0.293-0.253-0.583-0.759-0.876h-0.117c-0.581-0.583-1.593-0.223-3.032,1.081c-0.951,0.291-2.081-0.293-3.383-1.751
		c-0.234-0.213,0.165-0.796,1.196-1.751c0.505-0.428,0.756-0.864,0.756-1.312c0-0.506-0.33-1.011-0.99-1.517
		c-0.291-0.137-1.447,0.341-3.472,1.429c-0.873,0.292-2.003-0.038-3.383-0.991c-0.37-0.37-0.225-1.021,0.438-1.954
		c0.291-0.448,0.466-0.817,0.524-1.11c0-0.291-0.146-0.505-0.438-0.641c-0.506-0.37-1.079-0.331-1.722,0.115
		c-0.368,0.353-0.951,0.856-1.749,1.518c-0.583,0.136-1.674-0.117-3.266-0.758c-0.293-0.37-0.157-1.021,0.406-1.956
		c0.37-0.446,0.555-0.855,0.555-1.224c0.078-0.292-0.029-0.545-0.32-0.758c-0.875-0.35-1.791-0.243-2.742,0.321
		c-0.272,0.525-0.815,1.216-1.634,2.071c-0.933,0.291-2.089,0.155-3.47-0.41c-0.293-0.233-0.4-0.563-0.322-0.991
		c0.06-0.447,0.272-1.03,0.643-1.749c0.369-0.72,0.476-1.226,0.32-1.518c-0.136-0.291-0.495-0.437-1.079-0.437
		c-1.243,0.136-2.625,1.37-4.142,3.703l-0.118,0.118h-2.507c-1.012-0.078-1.662-0.302-1.954-0.671c-0.233-0.37-0.233-1.273,0-2.713
		c0.058-1.031-0.128-1.652-0.554-1.867c-0.449-0.136-1.07,0.194-1.868,0.992c-0.583,0.642-0.874,1.224-0.874,1.75
		c-0.215,0.35-0.322,0.963-0.322,1.838v0.116c-0.18,0.166-0.418,0.301-0.715,0.408l0.074,0.584l0.568,1.531
		c0.569,0.271,1.108,0.742,1.619,1.414c0.427,0.856,1.118,2.304,2.071,4.346c0.137,0.215,0.388,0.758,0.758,1.634
		c0.428,0.506,0.896,0.73,1.4,0.671c0.875-0.369,1.312-1.029,1.312-1.984c-0.136-0.932-0.718-2.128-1.749-3.586
		c-0.428-0.448-0.683-0.808-0.758-1.081c-0.061-0.368,0.048-0.661,0.32-0.875c1.905-0.583,3.948,1.343,6.124,5.776
		c0.136,0.135,0.391,0.681,0.761,1.634c0.211,0.505,0.571,0.69,1.077,0.553c0.954-0.291,1.361-0.875,1.226-1.749
		c-0.078-0.875-0.622-2.109-1.634-3.705c-0.523-0.583-0.816-1.06-0.874-1.429c0.058-0.292,0.311-0.505,0.758-0.643
		c0.874-0.29,1.925,0.322,3.15,1.839c0.796,1.088,1.342,2.217,1.632,3.383c-0.135,1.751,0.195,2.625,0.993,2.625
		c0.718,0.079,1.195-0.398,1.429-1.429c0.06-0.718,0.06-1.409,0-2.071c0-0.933,0.215-1.477,0.643-1.632
		c1.594,0.155,2.684,1.935,3.268,5.337c-0.078,1.381,0.252,2.071,0.991,2.071c0.718,0.233,1.225,0.125,1.518-0.32
		c0.291-0.505,0.368-1.303,0.232-2.392c0.059-0.798,0.272-1.129,0.642-0.993c1.381,0.215,2.256,1.741,2.625,4.581
		c0.214,1.671,0.505,2.586,0.875,2.741h-0.116c0.72,0.213,1.264-0.262,1.633-1.43c0.292-1.089,0.622-1.632,0.99-1.632
		c1.812,0.504,2.607,2.254,2.395,5.249c-0.078,1.381-0.04,2.179,0.115,2.392c0.428,0.428,0.933,0.466,1.519,0.117
		c0.505-0.292,0.796-0.768,0.875-1.431c0-0.796,0.29-1.156,0.873-1.079c0.721,0.351,0.934,1.254,0.644,2.712
		c-0.06,1.596,0.058,2.539,0.35,2.83c0.505,0.37,1.012,0.263,1.517-0.32c0.66-0.583,1.167-0.73,1.517-0.438
		c0.884,0.481,1.438,1.294,1.663,2.437c0.108,0.563,0.139,1.211,0.087,1.939l-0.116,2.072c0.155,0.291,0.593,0.398,1.313,0.32
		c0.026-0.015,0.057-0.028,0.086-0.045c0.16-0.073,0.312-0.12,0.452-0.146c0.458-0.068,0.792,0.141,1.007,0.628
		c0.72,0.874,0.865,1.779,0.438,2.712c-0.291,0.525-0.729,1.253-1.312,2.187c0.351,0.738,0.855,1.031,1.516,0.875
		c1.09-0.138,1.74,0.05,1.954,0.555c0.066,0.114,0.11,0.24,0.131,0.378c0.061,0.48-0.158,1.113-0.655,1.896
		c-0.112,0.133-0.22,0.266-0.32,0.393c-0.534,0.69-0.826,1.25-0.876,1.678c0.026,0.103,0.066,0.195,0.118,0.276
		c0.23,0.352,0.696,0.552,1.399,0.598c0.72,0,1.157,0.225,1.313,0.672c0.428,1.459,0.467,2.439,0.117,2.945
		c-0.37,0.428-1.03,1.186-1.984,2.274c-0.045,0.64,0.343,1.047,1.166,1.226c0.207,0.042,0.439,0.073,0.701,0.087h0.117
		c0.35,0.37,0.495,1.166,0.438,2.392c-0.078,1.088-0.595,1.897-1.547,2.422c-0.875,0.505-1.272,0.903-1.195,1.196
		c0.155,0.505,0.593,0.681,1.312,0.525c0.721,0,1.158,0.116,1.313,0.35c0.147,0.324,0.24,0.669,0.278,1.035
		c0.027,0.354,0.002,0.728-0.074,1.123c-0.063,0.211-0.133,0.401-0.204,0.57c-0.268,0.608-0.598,0.971-0.991,1.093l-1.518,0.088
		c-0.447,0-0.778,0.145-0.992,0.436c-0.051,0.193-0.025,0.373,0.073,0.542c0.17,0.285,0.543,0.542,1.123,0.771
		c0.875,0.292,1.313,0.73,1.313,1.313c-0.137,1.75-0.497,2.985-1.08,3.706c-0.368,0.291-1.177,0.661-2.42,1.106
		c0,0.167,0.105,0.357,0.32,0.57c0.161,0.155,0.387,0.327,0.67,0.511c0.371,0.078,0.624,0.223,0.759,0.438
		c0.155,0.136,0.127,0.351-0.087,0.641c-0.003,0.043-0.003,0.088,0,0.132c-0.097,1.888-0.532,3.079-1.313,3.573
		c-0.504,0.292-1.342,0.583-2.508,0.875c-0.077,0.291,0.214,0.728,0.875,1.313c0.507,0.583,0.72,1.126,0.641,1.632
		c-0.66,1.829-1.428,2.957-2.304,3.385c-0.428,0.078-1.146,0.008-2.157-0.205c-0.156,0.292-0.089,0.65,0.203,1.079
		c0.155,0.37,0.381,0.7,0.67,0.992v0.118c0.215,0.348-0.01,1.068-0.67,2.158c-0.428,0.447-1.012,0.67-1.75,0.67
		c-0.642-0.078-1.04,0.068-1.195,0.438c-0.013,0.01-0.022,0.02-0.029,0.03l4.563,3.295l-1.034-1.809v-0.116
		c0.076-0.292,0.262-0.758,0.554-1.4c0.428-0.954,0.748-1.391,0.964-1.312c0.583,0,1.351,1.021,2.304,3.063
		c0,0.349-0.225,0.963-0.671,1.836c-0.253,0.344-0.476,0.602-0.672,0.773l5.543,4.01l3.733,5.542l4.404,1.371l6.096,4.376
		l2.713,4.346l-3.092,7.701l-7.671,9.334l-0.059,0.088c-0.982,1.062-1.819,1.923-2.509,2.582c-0.766,0.723-1.354,1.198-1.764,1.429
		c13.732,9.366,27.483,18.55,41.243,27.549c1.076,0.701,2.15,1.4,3.224,2.101c1.688,1.104,3.374,2.203,5.062,3.296
		c2.703,1.757,5.412,3.508,8.123,5.251c0.136,0.078,0.311,0.106,0.524,0.088c0.233,0,0.419-0.04,0.555-0.117
		c0.486-0.311,0.942-0.623,1.37-0.934c3.21-1.829,5.999-2.13,8.372-0.903c2.314,1.342,3.511,3.908,3.589,7.699
		c0.174,3.851-0.915,7.896-3.268,12.135c-2.294,4.18-5.153,7.252-8.576,9.218c-3.188,1.808-5.97,2.119-8.342,0.934v-0.118
		c-2.313-1.282-3.549-3.742-3.704-7.379c0.02-1.109,0.038-2.1,0.058-2.976c0.077-0.213,0.069-0.388-0.028-0.525
		c-0.137-0.193-0.282-0.368-0.438-0.523c-3.353-2.274-6.728-4.549-10.123-6.827c-1.694-1.135-3.396-2.272-5.104-3.413
		c-1.012-0.669-2.021-1.339-3.033-2.012c-24.483-16.25-49.992-32.507-76.525-48.77c1.929-0.57,3.839-1.211,5.731-1.926
		c1.428-0.568,2.837-1.182,4.23-1.838c2.14,1.098,3.859,1.925,5.162,2.479c6.32,2.646,10.044,3.792,11.174,3.443
		c0.601-0.216,0.455-1.043-0.44-2.479c-0.796-1.284-1.768-2.479-2.915-3.588c-0.915-0.934-2.412-2.071-4.491-3.413
		c-0.318-0.201-0.616-0.386-0.892-0.555c1.561-0.962,3.097-1.982,4.609-3.063c3.929,2.747,7.861,5.479,11.8,8.196
		c0.313-0.857,0.562-1.567,0.742-2.129c0.229-0.716,0.352-1.191,0.366-1.429c-0.099-0.508,0.212-2.257,0.933-5.252l-0.087,0.03
		l0.641-2.51l-0.699-0.553l-9.611-4.261c-1.707,1.528-3.5,2.973-5.382,4.333c-0.626,0.451-1.264,0.894-1.911,1.326
		c-3.023,2.029-6.268,3.846-9.726,5.455c-0.991,0.473-1.982,0.92-2.977,1.341c-0.241,0.104-0.486,0.206-0.73,0.308
		c-3.28,1.362-6.611,2.476-9.99,3.34c-0.951,0.244-1.909,0.467-2.872,0.671c-5.222,1.118-10.561,1.653-16.014,1.604v5.776
		l-19.164,8.079h-0.146c-0.487,0.232-2.314,1.371-5.484,3.412l-0.466,0.263l-7.379,2.274l-5.455-1.457l1.284-6.505l0.32-0.409
		c2.295-2.935,3.783-4.491,4.463-4.666l0.175-0.087h0.146c0.369-0.138,0.739-0.351,1.108-0.642c0.564-0.332,0.992-0.672,1.283-1.022
		l0.059-0.087c0.185-0.247,0.447-0.68,0.787-1.297c-22.08,15.07-43.388,30.098-63.923,45.08c-0.988,0.722-1.974,1.44-2.961,2.158
		c-1.631,1.197-3.26,2.393-4.886,3.588c-3.003,2.221-5.993,4.437-8.97,6.649c-0.175,0.136-0.292,0.294-0.349,0.469
		c-0.079,0.174-0.098,0.358-0.059,0.553c0.097,0.933,0.156,1.896,0.175,2.888c0.019,3.675-1.089,6.231-3.325,7.671l-0.029,0.029
		c-2.295,1.322-5.086,1.148-8.373-0.525c-3.52-1.809-6.514-4.772-8.984-8.896c-2.508-4.083-3.782-8.099-3.82-12.047
		c-0.021-3.693,1.088-6.26,3.324-7.7h0.059c2.274-1.342,5.046-1.177,8.313,0.498c0.485,0.271,0.952,0.542,1.399,0.815
		c0.195,0.117,0.399,0.175,0.613,0.175c0.214-0.02,0.418-0.077,0.613-0.175c2.537-1.794,5.074-3.592,7.613-5.396
		c1.622-1.16,3.245-2.322,4.87-3.485c1.042-0.748,2.082-1.499,3.122-2.247c19.879-14.278,39.713-28.964,59.505-44.059
		c1.807,1.261,3.678,2.447,5.614,3.558c-0.155,0.149-0.295,0.294-0.422,0.438c-1.089,1.129-2.003,2.364-2.741,3.705
		c-0.837,1.459-0.954,2.295-0.352,2.51c1.091,0.272,4.368-0.855,9.831-3.385c0.654,0.301,1.311,0.593,1.969,0.875
		c-2.993,1.38-6.08,3.043-9.262,4.989c-10.598,6.436-20.505,12.97-29.723,19.601c-9.062,6.281-22.158,16.032-39.291,29.256
		c-2.936,2.275-4.209,3.403-3.821,3.384c0.233-0.038,1.371-0.66,3.413-1.866c3.539-2.275,9.752-6.496,18.639-12.66
		c0.933-0.681,7.322-5.288,19.164-13.825c9.004-6.535,15.635-11.25,19.894-14.146c4.063-2.762,9.256-6.117,15.576-10.064
		c2.938-1.803,5.17-3.182,6.694-4.142c1.095,0.441,2.198,0.859,3.312,1.254l1.853-3.325c-1.357-0.48-2.698-1.001-4.025-1.562
		c-0.664-0.28-1.325-0.572-1.984-0.873c-1.356-0.616-2.698-1.276-4.026-1.983c-0.504-0.27-1.005-0.548-1.502-0.831
		c-1.469-0.819-2.918-1.695-4.346-2.627c-0.396-0.262-0.784-0.525-1.167-0.786c-0.636-0.436-1.258-0.874-1.866-1.313
		c-4.245-3.063-7.813-6.224-10.705-9.479l-2.83-3.034c-0.662-0.738-0.992-1.283-0.992-1.634c0.079-0.446,0.661-0.631,1.75-0.553
		h0.117c0.563,0.367,1.215,1.02,1.954,1.953c0.427,0.448,1.331,0.7,2.712,0.759h0.117c0.583,1.323,1.234,1.983,1.954,1.983
		c0.662-0.155,1.176-0.194,1.545-0.117c0.875,0.078,1.779,0.408,2.712,0.992c0.447,1.012,0.992,1.73,1.634,2.158
		c1.458-0.428,2.625-0.534,3.5-0.32v0.116c0.662,1.089,1.245,1.702,1.75,1.838c0.37,0.155,1.129-0.019,2.276-0.525
		c0.061-0.011,0.118-0.021,0.174-0.028c1.113-0.165,2.158-0.06,3.136,0.32c0.438,0.17,0.86,0.395,1.269,0.671
		c0.233,0.234,0.205,0.71-0.087,1.431c-0.234,0.503-0.087,0.98,0.438,1.429c0.504,0.291,1.37,0.028,2.596-0.788
		c0.952-0.272,1.866-0.194,2.741,0.232c0.254,0.188,0.4,0.57,0.438,1.153c0,0.088,0,0.181,0,0.277
		c0.045,0.215,0.118,0.398,0.219,0.554l-0.889-4.871l-0.029-0.351c-0.162,0.101-0.405,0.131-0.729,0.088
		c-1.389,0.041-2.416-0.645-3.077-2.057c-0.271-0.579-0.479-1.283-0.628-2.114c-0.012-0.038-0.021-0.077-0.029-0.117
		c-0.416-1.366-0.767-2.164-1.05-2.392c-0.448-0.059-0.778,0.02-0.992,0.234c-0.292,0.29-0.506,0.796-0.642,1.517
		c-0.078,1.613-0.408,2.42-0.992,2.42c-2.333-0.078-3.608-1.537-3.821-4.374c0.213-1.382,0.029-2.257-0.554-2.627
		c-0.507-0.29-0.905-0.33-1.196-0.115c-0.292,0.29-0.507,0.806-0.643,1.546c-0.505,1.749-0.943,2.625-1.313,2.625
		c-1.964-0.155-3.023-1.576-3.179-4.259c0.233-1.03,0.204-1.721-0.087-2.071c-0.448-0.292-0.817-0.408-1.108-0.351
		c-0.292,0.078-0.545,0.303-0.76,0.671l-0.641,2.071c0,0.584-0.117,0.982-0.351,1.196c-0.271,0.213-0.593,0.252-0.962,0.117
		c-0.796-0.215-1.817-1.711-3.062-4.493c-0.661-1.224-1.061-1.837-1.197-1.837c-0.368-0.157-0.622-0.117-0.758,0.116
		c-0.155,0.292-0.262,0.73-0.32,1.313c-0.078,1.439-0.34,2.159-0.787,2.159c-0.584,0-1.05-0.175-1.4-0.525
		c-0.213-0.447-0.321-1.07-0.321-1.866c0-1.751-0.292-2.694-0.875-2.83c-0.525-0.447-1.001-0.233-1.429,0.641
		c-0.662,0.798-1.167,1.196-1.518,1.196c-0.738-0.213-1.137-1.486-1.196-3.821c-0.077-0.135-0.194-0.205-0.35-0.205
		c-0.135,0-0.35,0.069-0.641,0.205v0.118c-0.507,0.078-0.875,0.008-1.109-0.205c-0.137-0.505-0.349-0.875-0.641-1.108
		c-0.719-0.35-1.157-0.708-1.313-1.079v-0.117c0.078-0.797-0.067-1.341-0.437-1.633l-1.635-2.713
		c-0.897-1.965-1.7-3.935-2.405-5.907c-0.378-1.052-0.729-2.107-1.051-3.165c-0.928-3.02-1.632-6.054-2.114-9.1
		c-0.068-0.421-0.13-0.844-0.19-1.269c-0.382-2.77-0.583-5.55-0.597-8.343c-0.009-1.161,0.016-2.324,0.073-3.485
		c0.092-1.833,0.262-3.67,0.511-5.514c0.06-0.842,0.139-1.668,0.233-2.479c0.246-2.043,0.605-3.979,1.079-5.804
		c0.04-0.492,0.098-0.923,0.175-1.297c0.192-0.894,0.493-1.442,0.905-1.648c0.446,0.505,0.846,0.798,1.195,0.875
		c0.584-0.585,1.061-0.798,1.429-0.643h0.118c0.428,0.798,0.895,1.158,1.4,1.079c0.217-0.101,0.429-0.542,0.642-1.326
		c0.08-0.273,0.158-0.59,0.234-0.948c0.205-0.506,0.414-0.889,0.626-1.151c0.301-0.39,0.607-0.522,0.919-0.395
		c0.344,0,0.592,0.565,0.744,1.693c0.006,0.017,0.011,0.037,0.014,0.058c0,0.583,0.108,1.021,0.322,1.312
		c0.213,0.215,0.467,0.283,0.758,0.205c0.187-0.021,0.347-0.144,0.481-0.365c0.213-0.383,0.344-1.059,0.395-2.027v-0.117
		c0-0.719,0.078-1.264,0.232-1.632c0.292-0.35,0.652-0.525,1.08-0.525c0.428,0.058,0.758,0.631,0.992,1.719
		c0.058,0.525,0.204,0.895,0.438,1.11c0.136,0.291,0.388,0.398,0.758,0.32c0.428,0,0.72-0.214,0.875-0.643
		c0.292-0.369,0.36-0.991,0.204-1.867c0.157-1.809,0.779-2.644,1.868-2.507c0.214-0.08,0.534,0.358,0.961,1.312
		c0.584,2.626,1.459,3.938,2.626,3.938c0.739-0.291,1.03-0.729,0.875-1.312h0.116c-0.875-1.751-1.313-3.277-1.313-4.581
		c0-0.583,1.021-1.313,3.063-2.189c0.506-0.155,1.081,0.498,1.721,1.956c0.447,1.381,1.108,1.964,1.984,1.749
		c0.505-0.368,0.719-0.874,0.642-1.516c-0.428-0.953-0.681-1.614-0.758-1.984c-0.078-0.874,0.359-1.634,1.313-2.275
		c0.719-0.505,1.624-0.69,2.713-0.555c0.583-0.078,0.845,0.282,0.787,1.08c1.011,2.255,1.994,3.276,2.946,3.063
		c0.642-0.292,0.817-1.235,0.525-2.83l-0.525-2.071v-0.116c0-0.72,0.574-1.225,1.721-1.518c1.322-0.66,2.158-0.806,2.508-0.437
		v0.117l0.351,1.401c0.506,1.381,1.011,2.323,1.516,2.83c0.584,0.446,1.235,0.446,1.954,0c0.739-0.643,0.701-1.585-0.115-2.83
		c-0.935-1.518-1.216-2.539-0.846-3.064c0.719-0.271,1.186-0.524,1.399-0.758c1.089-0.583,1.819-0.796,2.188-0.641
		c0.583,0.078,1.207,0.66,1.867,1.75c0.136,0.583,0.419,1.302,0.847,2.158c0.817,0.953,1.517,1.468,2.1,1.545
		c0.034,0.005,0.067,0.011,0.102,0.016l-1.561-1.386l-4.783-9.685l-0.643,1.897l-0.117,2.071c-0.214,0.35-0.797,0.748-1.75,1.196
		v0.116c-0.875,0.292-1.487,0.438-1.838,0.438c-0.738-0.078-1.069-0.699-0.991-1.865c0-0.137,0.583-1.518,1.75-4.143
		c0.214-0.37,0.282-0.661,0.205-0.875c-0.059-0.213-0.233-0.321-0.525-0.321c-0.37-0.078-1.031,0.321-1.984,1.196
		c-1.088,1.303-1.886,2.897-2.391,4.784c-0.136,0.525-0.175,1.224-0.117,2.1c-0.214,0.72-0.719,1.187-1.516,1.4
		c-0.428,0-0.759-0.145-0.992-0.437c-0.136-0.293-0.205-0.729-0.205-1.313v-0.087c1.011-1.614,1.702-2.82,2.071-3.616
		c0.078-0.798-0.135-1.236-0.641-1.313c-0.525-0.136-1.079,0.262-1.663,1.196c-1.809,1.323-2.858,2.597-3.15,3.821
		c0,0.234-0.146,1.07-0.438,2.509c0,0.797-0.583,1.341-1.75,1.633c-0.427,0.233-0.787,0.233-1.079,0
		c-0.155-0.137-0.233-0.535-0.233-1.196c1.245-1.671,1.974-2.946,2.187-3.82c0.215-0.428,0.215-0.75,0-0.963
		c-0.136-0.215-0.466-0.36-0.991-0.438c-0.505,0.135-1.05,0.72-1.634,1.75c-1.147,1.673-1.838,3.054-2.071,4.142l-0.437,1.837
		c-0.428,1.03-1.294,1.468-2.596,1.313c-0.292-0.135-0.438-0.68-0.438-1.633c0.428-0.874,0.866-1.526,1.312-1.954
		c0.35-1.088,0.272-1.779-0.232-2.07h0.116c-0.369-0.234-0.7-0.234-0.992,0c-0.292,0.291-0.623,0.758-0.992,1.399
		c-1.088,1.03-1.779,2.012-2.07,2.945l-0.087,2.421c0,0.565-0.399,0.845-1.196,0.845c-0.37-0.057-0.515-0.417-0.438-1.079
		c0-0.583,0.214-1.38,0.641-2.392c0.078-0.448,0.011-0.738-0.204-0.875c-0.155-0.291-0.379-0.37-0.672-0.233
		c-0.719,0.078-1.448,1.429-2.187,4.054c-0.059,1.09-0.272,1.634-0.642,1.634c-0.292,0.078-0.516,0.04-0.671-0.116
		c-0.136-0.137-0.165-0.428-0.087-0.875c0.213-0.72,0.32-1.411,0.32-2.072c0.078-1.01-0.029-1.516-0.32-1.516
		c-1.167,0.078-1.829,1.419-1.984,4.025c-0.059,1.089-0.312,1.634-0.758,1.634c-0.136-0.059-0.389-0.457-0.758-1.196h-0.117
		c0.292-0.72,0.438-1.264,0.438-1.634c0.078-0.798-0.136-1.196-0.641-1.196c-0.506-0.078-0.943,0.213-1.313,0.874
		c-0.369,0.72-0.953,0.866-1.75,0.438l-0.437-0.758v-0.116c0-0.155,0.292-1.098,0.875-2.83v-0.117l4.26-7.963
		c0.532-0.884,1.082-1.754,1.647-2.61l-13.782,1.736l-4.346-0.205l-10.938,2.056l0.292,0.22c0.895,0.698,1.799,1.427,2.712,2.187
		c4.574,3.618,9.148,7.215,13.724,10.793c-0.447,1.37-0.856,2.755-1.226,4.156c-2.136-2.256-4.707-4.74-7.715-7.453
		c-4.21-3.826-8.153-7.136-11.828-9.932l-2.348-0.249l-2.509-2.654l-0.262-0.67c-0.6-0.372-1.208-0.732-1.823-1.079l-3.734,0.758
		c1.412,1.131,3.186,2.542,5.323,4.229c6.243,4.941,10.735,8.877,13.477,11.813c3.453,3.765,6.793,7.658,10.02,11.682
		c-0.56,3.234-0.925,6.544-1.095,9.932c-0.772-0.464-1.589-0.96-2.45-1.488c-10.599-6.455-16.413-9.936-17.443-10.441
		c-5.989-3.19-11.473-5.709-16.451-7.556c-4.57-1.808-7.283-2.849-8.139-3.12c-2.897-0.993-3.267-0.76-1.108,0.699
		c2.762,1.771,8.771,5.261,18.026,10.472c9.567,5.387,16.831,9.383,21.79,11.989c2.09,1.138,3.981,2.159,5.674,3.063
		c-0.014,0.996-0.009,1.998,0.014,3.005c0.057,1.754,0.173,3.505,0.35,5.25c-9.853-5.193-12.896-6.624-9.129-4.289
		c3.219,1.865,6.301,3.644,9.246,5.339c0.335,2.936,0.84,5.853,1.517,8.75c-14.604-8.417-29.168-16.88-43.695-25.39
		c-1.458-0.856-2.917-1.713-4.375-2.567c-2.014-1.181-4.026-2.362-6.039-3.544c-4.028-2.369-8.053-4.741-12.075-7.118v-0.116
		c-7.217-3.88-14.233-7.96-21.046-12.237l-1.794,0.22l-1.166-2.102c-5.522-3.541-10.909-7.216-16.16-11.025
		C12.885,106.066,12.623,98.328,15.85,90.549z M41.461,95.595c-0.195,2.177-0.059,3.345,0.409,3.5
		c0.661,0.116,1.887-0.72,3.675-2.509c1.847-1.846,2.917-3.412,3.208-4.696c0.311-1.321-0.019-3.18-0.991-5.571
		c-0.933-2.313-1.721-3.559-2.363-3.733c-0.486-0.118-1.06,0.788-1.721,2.712c-0.467,1.381-0.933,3.064-1.4,5.046
		C41.889,92.172,41.617,93.922,41.461,95.595z M36.21,103.441c0.214-2.295,0.272-3.442,0.175-3.442
		c-0.311-0.038-0.69,1.158-1.138,3.588c-0.505,2.664-0.263,4.813,0.729,6.447c0.29,0.468,0.678,0.991,1.167,1.574l1.604-0.101
		c-0.56-0.662-0.987-1.221-1.283-1.679C36.531,108.195,36.113,106.066,36.21,103.441z M31.427,100.028
		c-0.117,1.167-0.283,2.635-0.496,4.404c-0.181,4.508,0.365,8.081,1.634,10.72l0.787-2.114l0.087-0.044
		c-0.09-0.229-0.168-0.477-0.233-0.743c-0.253-0.896-0.506-1.644-0.758-2.247C31.534,107.729,31.193,104.404,31.427,100.028z
		 M30.64,80.834c-0.719,0.39-2.159,1.926-4.317,4.61c-2.276,2.76-3.744,4.851-4.404,6.27c-0.564,1.361-0.682,2.81-0.352,4.346
		c0.352,1.459,0.847,2.034,1.489,1.721c0.563-0.291,1.595-1.682,3.092-4.17c1.303-2.16,2.343-4.084,3.121-5.775
		c0.7-1.673,1.235-3.277,1.604-4.814C31.28,81.292,31.203,80.563,30.64,80.834z M164.029,48.604l-4.959,2.159l-1.954,1.194
		l-0.233-0.173l-0.204,0.525l0.175-0.176l-0.058-0.058l9.538,2.334l0.262,2.45l-1.401,6.535l-5.161,3.237l-16.072,13.826
		l0.057-0.087l-19.251,19.164l-0.087,0.029l-4.521,3.762l-4.667,5.542l-6.184,2.714l-3.821-1.869l-1.924,0.498l-0.292,0.729v4.23
		h-1.254l0.787,1.924l0.846,0.875l2.976,0.351l11.754-2.217l0.263-0.029l4.463,0.175l15.314-1.954l13.738-5.076l0.058-0.028h0.146
		l12.426-3.004l0.234-0.088l6.709,0.205l1.399,9.218l4.959,10.18l8.225,7.204l-1.399,2.946l-0.322,6.213l-10.646,32.785l-1.079,7.03
		l1.196,10.5l2.392,6.038l0.233,15.314l1.808,9.917l-0.058,6.389l-3.997,7.32h0.059c-1.07,2.063-1.848,3.375-2.334,3.938
		l-0.058,0.09c-0.525,0.698-1.283,1.379-2.275,2.041c-0.681,0.446-1.333,0.776-1.954,0.991c-0.35,0.272-1.226,1.322-2.625,3.149
		l-0.38,1.722l0.496,0.146l5.979-1.867c3.481-2.294,5.542-3.52,6.185-3.675h-0.146l16.626-6.94l-0.029-2.685l-0.963-3.587
		l-2.275-2.802l-0.087-0.291l-1.75-3.851l-0.584-4.929l3.15-4.318l0.292-17.588l1.605-8.517l6.009-17.968l11.053,13.681
		l10.707,11.754l16.743,10.793l21.555,9.509l3.236,2.684l-1.195,4.9v0.088c-0.523,2.196-0.788,3.45-0.788,3.763
		c0.124,0.557-0.201,1.995-0.976,4.315c-0.211,0.642-0.46,1.352-0.743,2.132c-0.305,0.817-0.645,1.711-1.022,2.683l-0.028,2.712
		l1.896,2.071l2.216-0.583c1.033-1.196,1.977-2.144,2.83-2.845c0.574-0.468,1.11-0.821,1.604-1.063
		c0.094-0.058,0.206-0.135,0.335-0.234c0.607-0.491,1.595-1.492,2.96-3.003l-0.058,0.085l7.205-8.864l2.129-5.164l-1.195-1.896
		l-4.844-3.472l-5.248-1.545l-4.144-6.242l-18.755-13.505l-11.171-6.855l-6.681-7.176l-1.108-6.154l-4.403-13.33l-1.196-7.088
		l1.691-14.263l-0.788-6.768l-5.717-7.263l-0.265-3.996l-3.615-9.888l-0.088-0.175l-1.312-9.948l-3.006-7.963l-5.6-10.268
		l-2.945-8.196l-3.792-8.254l-1.663-5.484l-2.596-1.721l-0.233-4.229l1.342-3.675l-0.846-5.659l-1.546-3.703l-3.5-2.597
		l-6.067-1.662l-5.25-0.525l-5.25,1.487l-3.151,4.726L164.029,48.604z M137.018,101.195l21.994-9.188l5.309-3.938l0.262-0.73
		l-0.438-2.741l-12.863,7.349c-4.803,2.782-7.632,4.308-8.488,4.581c-1.031,0.35-3.441,2.061-7.234,5.133L137.018,101.195z
		 M129.872,107.437l-10.618,1.196l11.639-8.604c5.697-4.588,9.236-7.068,10.617-7.438c0.69-0.287,2.718-1.376,6.082-3.268
		c0.516-0.292,1.066-0.603,1.648-0.933l18.143-9.976l1.401,9.218l-0.992,2.947l-6.768,5.075l-22.547,9.479l-8.488,2.305H129.872z
		 M351.292,71.269c-0.623,0.193-1.351,1.469-2.188,3.821c-0.875,2.43-1.139,4.316-0.787,5.659c0.368,1.264,1.507,2.771,3.413,4.521
		c1.886,1.711,3.149,2.5,3.792,2.362c0.446-0.175,0.533-1.351,0.263-3.53c-0.235-1.651-0.585-3.393-1.051-5.22
		c-0.545-1.945-1.081-3.607-1.604-4.988C352.372,72.007,351.758,71.132,351.292,71.269z M349.104,90.752
		c0.446-0.173,0.495-0.904,0.146-2.187c-0.33-1.381-0.962-2.119-1.896-2.217c-1.634-0.272-2.984-0.33-4.054-0.175
		c-2.043,0.311-4.414,1.254-7.117,2.83c-3.87,2.177-8.108,4.881-12.717,8.108c-5.582,3.908-10.104,7.516-13.565,10.821
		c-4.063,3.85-8.254,8.509-12.57,13.973c-4.569,5.737-6.603,9.072-6.097,10.005c0.506,0.738,3.764-0.583,9.772-3.968
		c3.364-1.886,8.574-4.831,15.634-8.837c2.956-1.595,8.089-4.308,15.4-8.138c6.225-3.345,10.335-5.717,12.34-7.118
		c2.196-1.671,3.246-3.101,3.149-4.287c-0.078-1.147-0.981-1.401-2.713-0.759c-1.264,0.427-4.103,2.129-8.519,5.104
		c-5.58,3.715-9.44,6.174-11.579,7.38c-6.359,3.734-11.211,6.524-14.555,8.372c-6.049,3.365-9.333,4.843-9.858,4.434
		c-0.584-0.564,1.186-3.178,5.309-7.847c3.985-4.491,7.876-8.332,11.666-11.521c3.442-2.955,7.984-6.232,13.624-9.83
		c5.326-3.443,9.401-5.785,12.221-7.03c2.178-0.934,3.763-0.708,4.755,0.67C348.365,89.217,348.774,89.956,349.104,90.752z
		 M365.993,88.07c0.408,4.355,0.204,7.701-0.612,10.035c-0.213,0.603-0.418,1.361-0.613,2.274c-0.136,0.661-0.359,1.206-0.671,1.634
		c-0.738,1.108-3.442,3.597-8.108,7.466c-3.811,3.132-14.012,10.823-30.598,23.073c-15.479,11.434-23.657,17.579-24.531,18.435
		c-1.187,1.128,3.685-1.973,14.615-9.305c10.538-7.097,18.744-12.738,24.616-16.918c3.578-2.625,8.479-6.115,14.701-10.471
		c4.784-3.578,8.108-6.787,9.976-9.625c1.711-2.782,2.354-6.846,1.927-12.194C366.401,90.724,366.168,89.255,365.993,88.07z
		 M361.035,88.302c-0.099,0,0.02,1.138,0.35,3.413c0.195,2.627-0.146,4.775-1.021,6.447c-0.896,1.556-3.246,4.336-7.059,8.342
		l-5.162,5.424c7.661-6.436,12.241-10.976,13.737-13.621c0.913-1.691,1.071-3.86,0.468-6.505
		C361.803,89.391,361.365,88.225,361.035,88.302z M265.74,190.744c0,0.37-0.214,1.098-0.642,2.188
		c-0.583,1.224-1.061,1.73-1.43,1.517c-0.214,0-0.544-0.583-0.993-1.75h-0.086c-0.234-0.934-0.349-1.584-0.349-1.954
		c-0.138-0.371-0.02-0.991,0.349-1.867c0.642-1.011,1.147-1.411,1.516-1.196L265.74,190.744z M267.053,179.194h0.117
		c0.135,0,0.533,0.358,1.196,1.079c0.505,0.37,0.825,0.661,0.961,0.874c0,0.215-0.466,1.781-1.398,4.696
		c0,0.935-0.293,1.401-0.876,1.401l-0.554-0.525v-0.117l-1.08-2.74c-0.155-0.351,0.098-1.586,0.758-3.705
		C266.314,179.649,266.605,179.329,267.053,179.194z M268.569,172.309c0.369-0.137,0.914,0.011,1.634,0.438
		c0.15,0.109,0.287,0.216,0.407,0.32c0.281,0.26,0.474,0.512,0.585,0.758c0.059,0.444,0.049,0.93-0.03,1.459
		c-0.021,0.171-0.049,0.348-0.087,0.525c-0.214,0.875-0.506,1.381-0.875,1.516c-0.584,0.37-1.05,0.37-1.399,0
		c-0.099-0.097-0.196-0.219-0.292-0.363c-0.253-0.395-0.486-0.965-0.701-1.707c-0.047-0.114-0.093-0.225-0.131-0.337
		C267.359,173.9,267.655,173.029,268.569,172.309z M193.184,219.155l-0.541,0.758l0.146,1.371c0.112-0.01,0.224-0.015,0.336-0.015
		c0.175,0.003,0.351,0.022,0.525,0.057c0.219,0.038,0.438,0.104,0.655,0.19c0.214,0.136,0.097,0.681-0.35,1.634
		c-0.185,0.272-0.283,0.5-0.292,0.686c0.001,0.107,0.031,0.198,0.087,0.277c0.136,0.291,0.389,0.476,0.758,0.554
		c0.876,0.214,1.965-0.146,3.268-1.079c0.257-0.201,0.511-0.376,0.758-0.524c1.013-0.594,1.928-0.711,2.742-0.351
		c0.215,0.135,0.32,0.351,0.32,0.641c0,0.215-0.105,0.468-0.32,0.76c-0.052,0.158-0.081,0.304-0.088,0.438
		c-0.034,0.422,0.141,0.712,0.525,0.874c0.318,0.105,0.669,0.105,1.049,0c0.377-0.104,0.786-0.318,1.226-0.641
		c0.35-0.238,0.671-0.438,0.963-0.598c0.478-0.271,0.877-0.437,1.196-0.496c0.128-0.023,0.246-0.026,0.35-0.015
		c0.319,0,0.542,0.186,0.671,0.553c0.104,0.312,0.144,0.749,0.117,1.313c0.003,0.05,0.007,0.098,0.014,0.146
		c0.099,0.773,0.562,1.123,1.386,1.051c0.051-0.042,0.099-0.079,0.147-0.117c0.414-0.33,0.804-0.633,1.165-0.904
		c0.843-0.65,1.532-1.146,2.072-1.488c0.445-0.72,0.885-0.933,1.312-0.641c0.214,0.058,0.282,0.233,0.204,0.525
		c0,0.233-0.175,0.523-0.524,0.876c-0.291,0.445-0.291,0.844,0,1.193c0.29,0.37,0.98,0.341,2.071-0.087
		c1.516-1.672,2.819-2.587,3.908-2.742c0.369-0.29,0.806-0.251,1.312,0.117h0.117v0.117c-0.078,0.136-0.117,0.456-0.117,0.963
		c0.157,0.368,0.487,0.594,0.992,0.671c0.507,0,0.903-0.254,1.196-0.758c0.798-0.818,1.303-1.334,1.518-1.548
		c0.581-0.428,1.856-0.787,3.819-1.079v0.117c0.37,0,0.7,0.283,0.992,0.846c0.138,0.293,0.32,0.516,0.554,0.671
		c0.215,0.078,0.43,0.038,0.643-0.117h0.117c0.15-0.048,0.287-0.105,0.408-0.175c0.401-0.23,0.626-0.57,0.671-1.021l0.553-1.516
		h0.117c0.584-0.798,1.304-0.943,2.159-0.438c0.816,0.351,1.401,0.458,1.751,0.322c0.356-0.765,0.707-1.387,1.049-1.868
		c0.091-0.112,0.179-0.22,0.263-0.32c0.396-0.509,0.813-0.937,1.256-1.283c0.624-0.49,1.295-0.821,2.012-0.991
		c0.37-0.155,0.738,0.098,1.108,0.758v-0.117c0.213,0.293,0.428,0.478,0.643,0.555c0.213,0,0.398-0.077,0.554-0.232h0.116
		c0.506-0.292,0.797-0.876,0.876-1.751c0.089-0.573,0.217-1.035,0.377-1.386l-3.499-1.56c0.104,0.218,0.231,0.441,0.381,0.671
		c-0.138,0.368-0.615,0.874-1.431,1.516c-0.799,0.506-1.342,0.651-1.634,0.438c-0.351,0-0.709-0.468-1.079-1.401
		c-0.077-0.737-0.292-1.176-0.641-1.313c-0.585-0.232-1.022-0.232-1.315,0c-0.29,0.292-0.476,0.837-0.553,1.634
		c0,0.044,0.005,0.146,0.015,0.307c0.017,0.335,0.049,0.924,0.103,1.765c0.066,0.347,0.031,0.652-0.103,0.918
		c-0.143,0.286-0.399,0.524-0.773,0.715l-1.195,0.438c-0.584,0.213-1.021-0.37-1.312-1.749c0-0.585-0.109-0.945-0.32-1.081
		c-0.235-0.155-0.497-0.155-0.79,0c-0.272,0.127-0.515,0.303-0.729,0.525c-0.638,0.683-1.006,1.81-1.108,3.383
		c-0.447,0.876-1.283,1.273-2.509,1.196c-0.368,0-0.593-0.213-0.671-0.641c-0.058-0.429,0.02-1.051,0.233-1.867
		c0.135-0.798,0.097-1.343-0.116-1.634c-0.135-0.427-0.467-0.603-0.991-0.524c-0.935,0.135-1.585,1.226-1.955,3.267
		c-0.506,1.809-1.302,2.605-2.392,2.393c-0.584-0.293-0.836-1.051-0.759-2.274c0.213-1.246,0.029-1.946-0.553-2.102
		c-1.012-0.215-1.849,0.485-2.51,2.102c-0.798,1.594-1.634,2.282-2.509,2.069c-0.584-0.078-0.797-1.031-0.642-2.859
		c0.014-0.344,0.004-0.656-0.029-0.932c-0.122-0.945-0.521-1.498-1.196-1.663c-0.427,0-0.855,0.573-1.283,1.721
		c-0.053,0.119-0.101,0.241-0.146,0.363c-0.088,0.229-0.165,0.468-0.233,0.716c-0.113,0.37-0.211,0.768-0.292,1.196v0.029
		c-0.322,0.541-0.978,0.842-1.969,0.903c-0.329,0.015-0.693,0.005-1.094-0.028c-0.428,0-0.681-0.225-0.758-0.672
		c0-0.506,0.105-1.196,0.32-2.07c0.134-0.365,0.234-0.691,0.308-0.978c0.029-0.119,0.053-0.231,0.072-0.335
		c0.038-0.197,0.058-0.372,0.058-0.525c-0.058-0.368-0.312-0.594-0.758-0.671c-0.505-0.058-1.235,0.525-2.188,1.751
		c-0.349,0.368-0.748,1.099-1.194,2.187c-0.351,0.953-1.08,1.284-2.188,0.991c-0.934-0.232-1.333-1.506-1.196-3.82
		c0.078-0.876-0.136-1.419-0.642-1.634c-0.662-0.233-1.245-0.02-1.75,0.643c-0.504,0.659-0.941,1.782-1.313,3.368v0.015
		C194.918,219.315,194.223,219.442,193.184,219.155z M269.765,164.988c0.09-0.053,0.212-0.061,0.364-0.03
		c0.264,0.046,0.619,0.202,1.066,0.466c0.092,0.047,0.18,0.097,0.262,0.146c0.555,0.321,0.865,0.642,0.935,0.963
		c0.213,0.796,0.067,1.924-0.438,3.383c0,0.796-0.107,1.196-0.323,1.196c-0.368,0-0.845-0.399-1.428-1.196
		c-0.429-0.738-0.642-1.283-0.642-1.634c-0.181-0.474-0.297-0.907-0.351-1.298c-0.097-0.664-0.015-1.208,0.248-1.634
		C269.541,165.219,269.644,165.099,269.765,164.988z M269.68,157.258c0.213-0.292,0.533-0.331,0.961-0.118
		c0.583,0.157,1.165,0.701,1.751,1.634c0.368,0.37,0.515,1.031,0.436,1.984c-0.076,1.381-0.223,2.101-0.436,2.159
		c-0.292,0.233-0.653,0.233-1.081,0c-0.446-0.292-0.962-0.798-1.546-1.517c-0.291-0.583-0.398-1.488-0.32-2.714
		C269.444,158.025,269.521,157.55,269.68,157.258z M269.007,149.411c0.193-0.526,0.567-0.814,1.122-0.86
		c0.064-0.01,0.126-0.015,0.191-0.015c0.583-0.078,1.059,0.068,1.428,0.438c0.419,0.469,0.673,1.388,0.759,2.757
		c0.048,0.733,0.048,1.594,0,2.582v0.115c-0.077,0.292-0.263,0.438-0.553,0.438c-0.293,0-0.584-0.117-0.876-0.351
		c-0.72-0.35-1.158-0.708-1.313-1.078c-0.104-0.064-0.206-0.167-0.306-0.307c-0.233-0.334-0.451-0.882-0.655-1.647
		c-0.014-0.091-0.021-0.179-0.03-0.263C268.659,150.211,268.738,149.61,269.007,149.411z M270.114,141.653
		c0.352,0.213,0.672,0.874,0.964,1.983c0.214,1.089,0.252,1.808,0.117,2.158c-0.078,0.584-0.37,0.836-0.875,0.758
		c-0.428,0.078-1.051-0.136-1.867-0.641c-0.643-0.471-1.07-1.079-1.283-1.824c-0.143-0.522-0.181-1.11-0.117-1.764
		c0-0.371,0.359-0.633,1.08-0.788c0.141-0.009,0.276-0.014,0.408-0.015C269.338,141.491,269.864,141.536,270.114,141.653z
		 M256.407,243.859c-0.577-0.103-0.848-0.093-0.818,0.029c0.02,0.094,0.589,0.424,1.707,0.991L256.407,243.859z M285.196,261.828
		c0.116,0.175,2.917,1.954,8.4,5.339c6.321,3.888,10.315,6.396,11.987,7.524c1.926,1.282,4.299,2.966,7.118,5.047
		c2.081,1.535,3.083,2.244,3.005,2.13c-0.293-0.488-1.761-1.888-4.406-4.201c-3.032-2.664-5.687-4.745-7.963-6.242
		c-2.294-1.596-5.989-3.705-11.084-6.329C287.355,262.586,285.002,261.498,285.196,261.828z M245.381,239.136
		c-3.482-1.946-6.845-3.568-10.093-4.872c-3.132-1.264-4.173-1.478-3.122-0.643c0.525,0.37,3.647,2.149,9.364,5.339
		c6.475,3.675,11.803,6.805,15.984,9.393c4.374,2.722,11.201,7.145,20.477,13.272c12.211,8.03,18.805,12.356,19.775,12.979
		c9.121,5.775,15.509,9.73,19.164,11.872c2.081,1.107,3.248,1.672,3.5,1.691c0.39,0.02-0.934-1.051-3.966-3.208
		c-17.715-12.467-31.222-21.644-40.516-27.535C266.44,251.182,256.249,245.085,245.381,239.136z M259.366,245.918
		c0.664,0.325,1.417,0.689,2.26,1.093c4.61,2.197,7.653,3.753,9.132,4.667c1.634,0.952,3.928,2.519,6.884,4.695
		c2.352,1.77,3.519,2.607,3.499,2.509c-0.078-0.428-1.398-1.886-3.965-4.375c-2.86-2.763-5.231-4.705-7.118-5.834
		c-1.803-1.097-4.585-2.221-8.343-3.37L259.366,245.918z M324.602,287.642c0,0.546-0.291,0.974-0.873,1.284
		c-1.227,0.603-3.628,0.825-7.206,0.67c3.308,1.964,5.854,2.675,7.644,2.131c0.934-0.332,1.739-1.069,2.42-2.218
		c0.661-1.166,0.905-2.236,0.73-3.208c-0.447-1.966-2.258-3.938-5.427-5.921c1.246,2.1,2.032,3.908,2.363,5.426
		C324.505,286.757,324.621,287.369,324.602,287.642z M55.884,111.112c-1.3-0.693-2.248-1.131-2.843-1.312
		c-1.75-0.545-2.645-0.245-2.683,0.904c-0.005,0.132,0.005,0.268,0.029,0.408H55.884z M92.973,125.581
		c4.336,4.473,6.213,7,5.63,7.583c-0.486,0.428-3.832-0.914-10.035-4.025c-3.39-1.675-8.285-4.197-14.686-7.569l-5.455,0.816
		c6.368,3.008,10.923,5.172,13.666,6.49c7.214,3.715,12.542,6.427,15.984,8.138c6.165,3.112,9.48,4.308,9.946,3.588
		c0.447-0.953-1.73-4.211-6.533-9.772c-3.93-4.533-7.736-8.481-11.419-11.842l-3.21,0.613
		C88.868,121.433,90.906,123.425,92.973,125.581z M58.903,135.556c6.029,3.908,14.469,9.188,25.319,15.839
		c11.221,6.845,16.218,9.723,14.993,8.634c-0.914-0.797-9.354-6.572-25.318-17.328c-11.572-7.819-20.134-13.667-25.683-17.544
		l-4.508,0.553l0.03,0.015C50.153,129.809,55.209,133.086,58.903,135.556z M87.869,115.255l-45.416,0.175l-5.25,0.35l-0.525,0.263
		l-0.816,2.042l-0.146,3.616l0.438,0.788l25.654-3.295L87.869,115.255z M81.189,288.139c-0.02-0.253,0.087-0.866,0.32-1.838
		c0.234-1.536,0.924-3.384,2.072-5.542c-3.073,2.12-4.784,4.181-5.134,6.184c-0.155,0.953,0.137,1.993,0.875,3.122
		c0.701,1.146,1.537,1.856,2.509,2.129c1.809,0.466,4.317-0.34,7.526-2.421c-3.559,0.292-5.961,0.165-7.204-0.381
		C81.549,289.081,81.228,288.663,81.189,288.139z M148.248,241.469c0.078-0.332-1.76,0.165-5.513,1.486
		c-3.967,1.362-6.874,2.665-8.722,3.909c-1.847,1.206-4.132,3.239-6.854,6.097c-2.45,2.587-3.704,4.103-3.763,4.551
		c-0.021,0.116,1.118-0.778,3.412-2.685c2.839-2.294,5.047-3.947,6.622-4.958c1.439-0.974,4.424-2.646,8.956-5.018
		C146.274,242.771,148.229,241.643,148.248,241.469z M111.292,266.32c5.328-3.598,8.051-5.494,8.167-5.688
		c0.194-0.33-2.101,0.876-6.885,3.617c-4.998,2.82-8.614,5.076-10.851,6.768c-2.178,1.595-4.734,3.792-7.671,6.591
		c-2.528,2.433-3.928,3.89-4.2,4.375c-0.079,0.117,0.895-0.631,2.916-2.244c2.704-2.217,5.008-4.007,6.914-5.368
		C101.276,273.166,105.146,270.482,111.292,266.32z"/>
</g>
</svg>
