<?xml version="1.0" encoding="utf-8"?>
<!-- Generator: Adobe Illustrator 16.0.0, SVG Export Plug-In . SVG Version: 6.00 Build 0)  -->
<!DOCTYPE svg PUBLIC "-//W3C//DTD SVG 1.1//EN" "http://www.w3.org/Graphics/SVG/1.1/DTD/svg11.dtd">
<svg version="1.1" id="Layer_1" xmlns="http://www.w3.org/2000/svg" xmlns:xlink="http://www.w3.org/1999/xlink" x="0px" y="0px"
	 width="400px" height="400px" viewBox="0 0 400 400" enable-background="new 0 0 400 400" xml:space="preserve">
<g>
	<path fill="#F5A828" d="M360.081,299.048c-1.41,5.278-3.733,10.104-6.97,14.481c-0.922,0.145-1.79,0.035-2.604-0.326
		c7.322-8.497,9.066-16.416,5.234-23.756c2.332,9.617-0.136,16.938-7.404,21.966l-95.973,1.653l-93.017-1.815l-6.563,0.217
		c0.849-2.767,0.506-6.174-1.031-10.224l195.444-19.254c-0.725,1.482-1.383,2.938-1.979,4.365l-180.557,16.326l0.028,0.025
		l179.769-13.725c-0.451,1.467-0.804,2.938-1.057,4.42l-140.665,9.656l45.099-1.438l95.403-6.104
		c-0.126,2.494,0.145,4.881,0.813,7.16l-89.085,3.092l89.735-1.086c0.649,1.446,1.438,2.865,2.358,4.258
		c-0.561-1.5-1.021-2.945-1.384-4.34c0.02-0.035,0.057-0.045,0.108-0.024c2.712-0.615,4.222-2.552,4.528-5.806
		c-0.146-2.818-1.728-4.627-4.745-5.424c-0.072,0.02-0.146,0.01-0.219-0.025c-0.018,0-0.07-0.01-0.163-0.026l0.19-0.055
		c0.253-1.446,0.578-2.722,0.976-3.824c5.496,4.375,6.846,9.563,4.041,15.565c4.067-6.6,2.992-12.547-3.228-17.844
		c1.627-3.291,3.852-5.199,6.672-5.724c5.896,2.784,8.903,8.335,9.03,16.651c-0.813,6.164-2.92,10.676-6.318,13.531
		C358.869,307.682,360.045,303.495,360.081,299.048z M344.922,295.332c2.114,0.452,3.229,1.771,3.335,3.96
		c-0.232,1.735-1.257,2.856-3.063,3.362C344.723,299.941,344.633,297.502,344.922,295.332z M217.111,95.644l-0.096-0.067
		l-20.246-16.61c0.011-0.003,0.021-0.008,0.027-0.014l-0.434-0.353c-0.009,0.003-0.018,0.008-0.027,0.014l-4.244-3.498
		l-104.38,97.058c-0.031,0.059-0.081,0.108-0.148,0.148l-18.889,17.532l126.333,96.733l20.284-18.346
		c0.278-0.089,0.375-0.175,0.285-0.259l7.782-7.051c0.008-0.021,0.021-0.035,0.039-0.041c0.014-0.006,0.031-0.006,0.057,0
		c0-0.019,0-0.035,0-0.056l6.48-5.856c0.097-0.057,0.162-0.119,0.203-0.188l8.395-7.58v0.015c0.01-0.014,0.019-0.026,0.025-0.041
		l22.17-20.041c-0.018-0.045,0.021-0.078,0.107-0.096l5.031-4.542l0.054-0.041l28.99-26.224c0.024-0.09,0.075-0.135,0.149-0.135
		l10.807-9.777c0.043-0.023,0.097-0.074,0.162-0.148l10.184-9.207l-39.919-32.759c-0.03-0.012-0.054-0.029-0.067-0.055l-0.096-0.068
		l-9.749-8.013l-0.04-0.041l-0.177-0.136l-0.026-0.026c-0.035,0.002-0.049-0.007-0.041-0.028L249.966,122.6l0.015-0.014
		l-0.027,0.014L217.111,95.644z M190.616,72.037c0.325-0.308,0.714-0.442,1.166-0.407c0.091,0,0.182,0.01,0.271,0.027
		c0.052-0.013,0.105-0.022,0.164-0.027c0.434-0.054,0.822,0.063,1.165,0.353l126.699,104c0.343,0.271,0.542,0.633,0.597,1.085
		c0.056,0.435-0.063,0.822-0.354,1.166c-0.29,0.344-0.65,0.543-1.084,0.597c-0.096,0.011-0.186,0.016-0.271,0.014l-121.844,110.17
		c-0.344,0.289-0.732,0.434-1.166,0.434c-0.199-0.016-0.38-0.061-0.543-0.137c-0.242,0.229-0.531,0.364-0.867,0.408
		c-0.452,0.055-0.859-0.057-1.221-0.326L65.165,191.251c-0.361-0.271-0.561-0.633-0.597-1.085c-0.072-0.434,0.027-0.822,0.298-1.166
		c0.112-0.156,0.239-0.283,0.38-0.38c0.043-0.048,0.088-0.093,0.136-0.136L190.616,72.037z M42.386,301.217
		c1.175,0.036,2.133,1.094,2.874,3.174c0.308,0.852,0.543,1.844,0.705,2.982c0.181,1.318,0.254,2.721,0.218,4.203
		c0.289-1.717,0.903-3.128,1.844-4.23l80.461-3.715c1.319,3.254,1.347,6.11,0.081,8.569l-82.63,2.358
		c-0.199,1.627-0.606,3.092-1.221,4.395c-0.507,1.139-1.04,1.961-1.601,2.467c1.356-4.826,1.42-9.211,0.19-13.152
		c0.344,5.315-0.561,9.674-2.712,13.071c-0.633-0.416-1.193-1.282-1.682-2.604c-0.777-2.096-1.075-4.547-0.895-7.348
		c0.072-2.369,0.415-4.476,1.03-6.32c0.832,1.031,1.347,2.623,1.546,4.773c0.542-2.115,0.344-4.385-0.597-6.808
		C40.74,301.77,41.535,301.163,42.386,301.217z M137.626,302.654l4.99-0.569c0.47,1.753,0.759,3.362,0.867,4.827
		c0.146,1.88-0.026,3.507-0.515,4.881l-5.912,0.137C138.033,309.436,138.223,306.343,137.626,302.654z"/>
	<path fill="#4F678B" d="M247.701,178.18c-0.163-0.344-0.354-0.66-0.569-0.949l-0.299-0.353c0-0.091,0.026-0.153,0.081-0.189
		c0.091-0.091,0.299,0,0.624,0.271c0.11,0.087,0.214,0.173,0.312,0.258c0.063,0.055,0.121,0.109,0.178,0.162
		c0.484,0.467,0.812,0.941,0.977,1.424c0.146,0.471,0.281,1.148,0.407,2.034c0,0.163,0.034,0.253,0.106,0.271l0.326-0.136
		c-0.072-1.211-0.263-2.105-0.57-2.685l-0.678-1.274h0.354c0.198,0.036,0.344,0.181,0.434,0.434c0.093,0.108,0.154,0.227,0.19,0.353
		c0.217,1.103,0.369,2.241,0.461,3.417l-0.299,0.027l0.244,0.732c0.162,0.561,0.207,1.03,0.137,1.41
		c-0.164,0.65-0.301,1.058-0.407,1.22c0.056-1.229,0.026-2.034-0.081-2.413l-0.218-0.949l-0.599,0.189l0.189,0.679
		c0.127,0.47,0.164,0.84,0.109,1.111c-0.055,0.452-0.082,0.949-0.082,1.491l-0.569,0.217c0.183-1.464,0.208-2.377,0.082-2.738
		c-0.108-0.217-0.208-0.407-0.299-0.569l-0.136-0.163l-0.705,0.298l0.188,0.76c0.108,0.578,0.162,1.039,0.162,1.383
		c0.037,0.435,0.045,0.705,0.026,0.813c-0.055,0.181-0.162,0.353-0.324,0.516l-0.407,0.407c0.199-1.085,0.228-1.944,0.082-2.576
		c-0.091-0.435-0.188-0.787-0.299-1.059l-0.081-0.271l-1.085,0.705l0.244,0.596c0.146,0.453,0.181,0.868,0.106,1.248
		c-0.072,0.543-0.232,1.157-0.488,1.844c-0.034,0.091-0.1,0.199-0.188,0.326v-0.014c0.005-0.011,0.01-0.02,0.016-0.027
		c0.006-0.042,0.012-0.082,0.014-0.122c0.003-0.076-0.006-0.158-0.027-0.244c-0.035-0.958-0.117-1.618-0.244-1.979
		c-0.072-0.289-0.152-0.552-0.244-0.787l-0.136-0.244l-0.976,0.679c-0.109,0.126-0.163,0.334-0.163,0.624
		c0.026,0.107,0.071,0.311,0.136,0.609c0.026,0.103,0.055,0.216,0.081,0.339c0.024,0.08,0.052,0.166,0.081,0.258
		c0.047,0.148,0.102,0.315,0.163,0.502c0.01,0.029,0.019,0.062,0.026,0.095c0.011,0.021,0.02,0.043,0.025,0.068
		c0.057,0.289,0.02,0.533-0.107,0.731c-0.271,0.308-0.531,0.606-0.785,0.896c-0.014-0.26-0.031-0.504-0.055-0.732
		c-0.061-0.68-0.148-1.222-0.271-1.627l-0.436-1.139l-1.328,1.003l0.188,0.325c0.127,0.308,0.208,0.633,0.244,0.977
		c0.056,0.488,0.071,0.841,0.056,1.058c0,0.325-0.101,0.623-0.3,0.895l-0.354,0.597c-0.287-1.482-0.496-2.359-0.623-2.631
		l-0.161-0.487l-1.492,1.247l0.244,0.434c0.146,0.416,0.218,0.868,0.218,1.356l-0.025,0.406c-0.021,0.326-0.027,0.669-0.027,1.031
		c-0.02,0.307-0.107,0.551-0.271,0.731l-0.486,0.624c-0.146-1.193-0.271-2.016-0.381-2.468l-0.434-1.41l-0.436,0.434
		c-0.36,0.308-0.649,0.533-0.866,0.678c-0.345,0.218-0.524,0.371-0.543,0.462l0.299,0.461c0.181,0.506,0.289,1.075,0.325,1.708
		c0.005,0.049,0.01,0.099,0.014,0.149c0.034,0.379,0.043,0.759,0.025,1.14c-0.01,0.157-0.022,0.311-0.039,0.46v0.015
		c-0.008,0.071-0.018,0.144-0.027,0.216c-0.002,0.018-0.002,0.036,0,0.055c-0.014,0.084-0.027,0.171-0.04,0.258
		c-0.049,0.267-0.106,0.533-0.177,0.8c0,0.019-0.018,0.045-0.055,0.081c0.019,0.019,0.019,0.046,0,0.082
		c-0.062-0.275-0.118-0.532-0.176-0.772c-0.011-0.036-0.02-0.072-0.027-0.109c0.009-0.027,0.004-0.051-0.014-0.067
		c-0.102-0.422-0.194-0.792-0.285-1.112c-0.006-0.008-0.01-0.018-0.015-0.027c-0.004-0.016-0.008-0.028-0.014-0.04
		c-0.024-0.089-0.054-0.175-0.082-0.258c-0.039-0.128-0.08-0.246-0.121-0.353c-0.008-0.023-0.019-0.047-0.026-0.067
		c-0.018-0.05-0.035-0.095-0.056-0.136c-0.024-0.076-0.053-0.145-0.081-0.203l-0.461-1.14l-0.746,0.665
		c-0.07,0.038-0.126,0.088-0.163,0.148l-0.743,0.678c-0.035,0.042-0.07,0.078-0.108,0.109l-0.027,0.026
		c-0.044,0.045-0.089,0.081-0.136,0.108c-0.072,0.073-0.117,0.136-0.137,0.189h-0.025c-0.091,0.127-0.1,0.235-0.027,0.326
		c0.021,0.024,0.039,0.047,0.055,0.068c0.129,0.163,0.24,0.335,0.34,0.515c0.101,0.187,0.188,0.381,0.259,0.583l0.015,0.014
		c0.022,0.021,0.031,0.048,0.025,0.082v0.013c0.012,0.025,0.021,0.053,0.025,0.082l0.015,0.026v0.014
		c0.03,0.087,0.06,0.187,0.082,0.299c0.04,0.271,0.06,0.605,0.054,1.003c0.004,0.074,0.004,0.151,0,0.23
		c0,0.597-0.054,0.968-0.16,1.112l-0.164,0.298c-0.396-1.03-0.75-1.826-1.059-2.387l-0.813-1.329l-1.166,1.167
		c-0.125,0.126-0.198,0.244-0.217,0.353c0,0.181,0.055,0.416,0.161,0.705c0.072,0.127,0.138,0.262,0.19,0.406
		c0.072,0.148,0.133,0.271,0.176,0.366c0.038,0.076,0.064,0.135,0.082,0.177l0.014,0.027v0.026c0.006,0.016,0.012,0.029,0.014,0.041
		v0.014c0.031,0.085,0.055,0.157,0.068,0.217c0.107,0.325,0.152,0.642,0.137,0.949c0,0.597-0.037,1.13-0.108,1.6
		c-0.289-0.325-0.543-0.642-0.761-0.949c-0.107-0.126-0.188-0.234-0.243-0.325c0-0.055,0-0.1,0-0.135v-0.028
		c-0.017-0.024-0.034-0.052-0.056-0.081c-0.043-0.072-0.094-0.154-0.147-0.244l-0.326-0.596c-0.03-0.051-0.063-0.104-0.095-0.164
		l-0.325-0.65l-0.162-0.081l-0.76,0.651c-0.542,0.47-0.858,0.768-0.949,0.895c-0.09,0.108-0.09,0.253,0,0.434
		c0.036,0.108,0.188,0.38,0.461,0.813c0.361,0.579,0.57,0.913,0.624,1.004c0.055,0.145,0.1,0.28,0.137,0.406
		c0,0.106,0,0.244,0,0.406c0.019,0.09,0,0.197-0.056,0.324c-0.126,0.471-0.233,0.77-0.325,0.896
		c-0.127,0.109-0.279,0.082-0.461-0.081c-0.125-0.108-0.271-0.316-0.434-0.623c-0.146-0.38-0.344-0.724-0.598-1.031
		c-0.289-0.308-0.487-0.597-0.598-0.867l-0.107-0.326l-1.248,1.383c-0.071,0.091-0.053,0.218,0.056,0.38
		c0.036,0.108,0.181,0.353,0.435,0.731c0.071,0.107,0.279,0.426,0.623,0.948c0.235,0.345,0.371,0.624,0.406,0.843
		c0.036,0.379,0.036,0.687,0,0.922c-0.035,0.252-0.145,0.308-0.324,0.162c-0.634-0.562-1.185-1.177-1.654-1.846
		c-0.162-0.289-0.307-0.551-0.435-0.786l-0.081-0.243l-0.353,0.217c-0.271,0.217-0.498,0.436-0.679,0.65
		c-0.289,0.346-0.67,0.831-1.141,1.464l0.569,0.407c0.416,0.396,0.796,0.822,1.139,1.273c0.056,0.072,0.108,0.154,0.163,0.244
		c0.436,0.613,0.73,1.029,0.896,1.246c-0.289-0.035-0.605-0.106-0.948-0.217c-0.688-0.181-1.167-0.416-1.438-0.705
		c-0.107-0.09-0.181-0.162-0.217-0.217c-0.218-0.197-0.398-0.389-0.543-0.568l-0.189-0.271l-0.405,0.271h-0.026l-0.271,0.244
		c-0.164,0.127-0.309,0.242-0.435,0.354c-0.344,0.344-0.524,0.542-0.543,0.597c-0.108,0.146-0.036,0.289,0.218,0.435
		c0.055,0.037,0.101,0.055,0.135,0.055c0.271,0.145,0.543,0.308,0.813,0.488c0.543,0.416,0.994,0.776,1.356,1.084
		c0.561,0.487,0.856,0.813,0.895,0.978c-0.197,0.036-0.425,0.036-0.678,0c-0.523-0.071-1.04-0.244-1.546-0.517
		c-0.036-0.019-0.072-0.035-0.108-0.053c-0.542-0.346-1.003-0.697-1.383-1.06l-0.406-0.437l-0.381,0.437
		c-0.253,0.38-0.47,0.739-0.65,1.084c-0.127,0.271-0.244,0.534-0.353,0.787c-0.019,0.106,0.036,0.196,0.163,0.271
		c0.055,0.034,0.1,0.053,0.136,0.053c0.035,0.02,0.08,0.047,0.136,0.082c0.254,0.108,0.588,0.234,1.004,0.379
		c0.396,0.164,0.713,0.361,0.949,0.599l1.166,0.978c-0.289,0.071-0.589,0.101-0.896,0.082c-0.669,0.035-1.156-0.082-1.466-0.354
		c-0.344-0.271-0.76-0.542-1.246-0.813l-0.705-0.354l-0.569,0.977c-0.106,0.217-0.151,0.361-0.136,0.436
		c0.036,0.07,0.208,0.217,0.518,0.434c0.217,0.184,0.514,0.346,0.895,0.488c0.561,0.217,0.959,0.371,1.193,0.461l1.248,0.624
		c-0.183,0.071-0.408,0.117-0.681,0.137c-0.522,0.091-0.978,0.071-1.354-0.056c-0.309-0.09-0.813-0.198-1.52-0.325
		c-0.507-0.127-0.796-0.217-0.867-0.271c-0.146-0.071-0.244-0.116-0.299-0.135c-0.035,0.019-0.07,0.025-0.107,0.025l-0.162,0.38
		c-0.09,0.253-0.154,0.461-0.189,0.624c0,0.107,0.199,0.234,0.596,0.379c0.219,0.092,0.633,0.229,1.248,0.407
		c0.361,0.126,0.868,0.217,1.521,0.271c0.688,0.107,1.065,0.172,1.139,0.188c0.199,0.056,0.101,0.163-0.298,0.325
		c-0.325,0.107-0.669,0.199-1.031,0.271c-0.541,0.09-1.437-0.063-2.684-0.463c-0.488-0.145-0.859-0.396-1.112-0.76l-0.323,1.059
		c-0.072,0.234-0.057,0.397,0.053,0.487c0.072,0.092,0.254,0.154,0.543,0.188c0.182,0,0.507,0.092,0.978,0.271
		c0.505,0.199,0.938,0.325,1.302,0.381c0.688,0.09,1.267,0.188,1.734,0.299c-1.104,0.379-1.925,0.516-2.467,0.405
		c-0.814-0.161-1.43-0.37-1.846-0.624c-0.197-0.181-0.354-0.307-0.461-0.379l-0.107-0.027l-0.189,0.406
		c-0.106,0.309-0.172,0.553-0.188,0.732c0,0.181-0.011,0.38-0.026,0.597c0,0.146,0.09,0.228,0.271,0.244
		c1.121,0.198,1.891,0.325,2.307,0.38c0.471,0.036,1.039-0.027,1.708-0.189l-0.705,0.488c-0.506,0.307-0.868,0.416-1.085,0.324
		c-0.271-0.09-0.705-0.217-1.301-0.379c-0.489-0.127-0.805-0.199-0.949-0.217c-0.127-0.055-0.209-0.1-0.244-0.137l-0.244,0.543
		c1.465,0.396,2.422,0.597,2.875,0.597c0.435-0.036,0.912-0.101,1.438-0.188c-0.182,0.146-0.381,0.252-0.598,0.324
		c-0.072,0-0.125,0.01-0.162,0.027c-0.614,0.054-1.238,0.08-1.871,0.08c-0.037-0.019-0.1-0.026-0.189-0.026
		c-0.416-0.091-0.732-0.181-0.949-0.271c-0.197-0.056-0.36-0.127-0.488-0.22l-0.135,0.271c-0.055,0.091-0.09,0.163-0.108,0.217
		c-0.019,0-0.063,0-0.136,0l0.108-0.324h-0.38c-0.271,0-0.488,0.026-0.65,0.08c-0.162,0.073-0.39,0.118-0.679,0.138
		c-0.776-0.072-1.563-0.154-2.358-0.244c-0.107-0.072-0.227-0.153-0.354-0.244l-0.841-0.598c0.091,0.02,0.188,0.036,0.299,0.055
		l0.623,0.137c0.235,0.055,0.472,0.1,0.705,0.137c0.614,0.125,1.12,0.188,1.519,0.188h0.164c0.344,0,0.623-0.045,0.84-0.135
		c0.472-0.183,0.832-0.334,1.084-0.461l0.246-0.108L212,219.21l-0.542,0.136c-0.435,0.072-0.806,0.137-1.112,0.19
		c-0.197,0.019-0.522,0.035-0.977,0.054c-0.071,0-0.145,0-0.217,0c-0.344,0.02-0.623,0-0.84-0.054c-0.057,0-0.109-0.028-0.164-0.082
		l-1.682-1.085c0.649,0.072,1.229,0.154,1.733,0.244h0.028c0.197,0.035,0.39,0.072,0.568,0.109c0.018,0,0.045,0,0.081,0
		c0.036,0.018,0.063,0.024,0.081,0.024c0.182,0,0.316,0.026,0.406,0.081c0.055,0,0.091,0,0.109,0
		c0.576,0.056,1.291,0.025,2.143-0.081c0.054,0.036,0.107,0.036,0.162,0c0.091,0,0.162,0,0.217,0l0.136-0.024l0.218-1.386
		c-0.67,0.126-1.365,0.218-2.088,0.271c-0.471,0.037-0.887,0.037-1.248,0c-0.106,0-0.188,0-0.244,0
		c-0.487-0.07-0.912-0.197-1.272-0.379c-0.437-0.182-0.688-0.344-0.761-0.487c-0.127-0.146-0.063-0.208,0.188-0.189
		c0.452,0.036,1.121,0.091,2.009,0.162c1.155,0.056,1.89,0.072,2.195,0.056c0.307-0.02,0.669-0.117,1.085-0.299l0.515-0.271
		l0.461-0.979c-0.957,0.182-1.762,0.254-2.412,0.217c-0.291-0.035-0.695-0.045-1.221-0.025c-0.379-0.036-0.715-0.153-1.004-0.354
		c-0.271-0.254-0.498-0.406-0.679-0.461l-0.108-0.055c1.015-0.035,2.043,0,3.092,0.107c0.688,0.072,1.349,0.055,1.979-0.055
		l0.786-0.188l0.706-1.354c-1.284,0.162-2.313,0.125-3.093-0.109c-0.668-0.182-1.11-0.324-1.328-0.434
		c-0.309-0.092-0.533-0.182-0.678-0.271c-0.146-0.183-0.127-0.298,0.053-0.354c0.218-0.072,0.525-0.072,0.923,0
		c1.937,0.309,3.28,0.391,4.041,0.244c0.416-0.054,0.678-0.126,0.786-0.217c0.035-0.02,0.117-0.1,0.244-0.244
		c0.451-0.613,0.695-1.003,0.73-1.166c0.02-0.054,0.02-0.091,0-0.107c-0.035-0.055-0.091-0.071-0.162-0.055
		c-0.181,0.035-0.287,0.055-0.324,0.055c-0.234,0.056-0.488,0.063-0.76,0.027c-0.508,0.035-1.021,0-1.547-0.109
		c-0.181-0.035-0.344-0.07-0.486-0.106c-0.02-0.021-0.037-0.021-0.057,0c-0.921-0.199-1.509-0.39-1.763-0.567
		c-0.106-0.093-0.173-0.146-0.188-0.164l0.082-0.056c0.271-0.019,0.551-0.035,0.84-0.054l0.543-0.026
		c0.127-0.021,0.262-0.026,0.405-0.026c0.056,0.019,0.109,0.035,0.163,0.055c0.289-0.036,0.569-0.046,0.842-0.027
		c0.434,0,1.038,0.02,1.815,0.055c0.649,0.037,1.013,0.037,1.085,0c0.107-0.035,0.309-0.278,0.597-0.73
		c0.361-0.579,0.562-0.887,0.599-0.922c0.106-0.108,0.162-0.208,0.162-0.299c0-0.092-0.056-0.117-0.162-0.081
		c-0.524,0.034-1.03,0.081-1.521,0.136c-0.182,0-0.334,0.009-0.461,0.025c-0.091,0-0.163,0-0.217,0
		c-0.109-0.018-0.183-0.018-0.218,0c-0.072-0.018-0.137-0.025-0.189-0.025c-0.705-0.107-1.302-0.289-1.79-0.543
		c-0.38-0.198-0.587-0.391-0.624-0.568c-0.035-0.162,0.174-0.244,0.624-0.244c0.22,0.037,0.832,0.071,1.847,0.108l1.951,0.08
		c0.688,0.036,1.155,0.026,1.409-0.024c0.452-0.037,0.761-0.153,0.922-0.354c0.326-0.325,0.562-0.579,0.705-0.761
		c0.271-0.307,0.361-0.479,0.271-0.516c-0.055-0.035-0.324-0.107-0.813-0.218c-0.506-0.126-0.947-0.217-1.329-0.271
		c-0.649-0.092-1.11-0.154-1.383-0.19c-0.579-0.146-0.978-0.308-1.192-0.487c-0.289-0.218-0.443-0.371-0.461-0.461
		c0.018-0.109,0.217-0.189,0.598-0.244c0.416-0.019,1.916,0.082,4.502,0.299c0.091,0.035,0.181,0.056,0.271,0.056
		c0.18,0.019,0.334,0.063,0.461,0.135c0.162,0,0.315-0.081,0.461-0.244l1.409-1.571c-1.155-0.02-2.159-0.172-3.01-0.461
		c-0.886-0.162-1.481-0.279-1.789-0.354c-0.472-0.107-0.554-0.361-0.244-0.76c0.071-0.036,0.117-0.072,0.136-0.108
		c0.289-0.271,0.614-0.361,0.978-0.271c0.091,0.036,0.181,0.073,0.271,0.109c0.125,0.035,0.244,0.063,0.354,0.081
		c0.126,0.054,0.253,0.081,0.379,0.081c0.361,0.091,0.633,0.145,0.813,0.163v-0.027c0.668,0.072,1.283,0.072,1.845,0
		c0.577-0.018,0.959-0.027,1.14-0.027c0.38,0.019,0.688-0.055,0.922-0.217c0.146-0.127,0.381-0.38,0.705-0.759l0.488-0.516
		c0.07-0.072,0.045-0.136-0.081-0.19c-0.599-0.126-1.166-0.243-1.709-0.352c-0.542-0.127-1.021-0.244-1.438-0.354
		c-0.705-0.126-1.185-0.262-1.438-0.406c-0.326-0.146-0.426-0.425-0.299-0.841c0.107-0.397,0.471-0.542,1.084-0.434
		c0.146,0.018,0.289,0.054,0.436,0.108c0.036,0.019,0.081,0.036,0.137,0.054c0.308,0.091,0.703,0.218,1.191,0.38
		c0.38,0.091,0.967,0.235,1.764,0.435c0.055,0.035,0.116,0.063,0.189,0.081l0.324,0.081c0.345,0.072,0.598,0.1,0.76,0.082
		c0.271,0.018,0.498-0.036,0.68-0.163c0.146-0.091,0.36-0.308,0.649-0.651c0.019-0.018,0.262-0.217,0.731-0.597
		c0.127-0.09,0.055-0.172-0.219-0.243c-0.27-0.087-0.604-0.2-1.003-0.339c-0.051-0.019-0.103-0.036-0.147-0.055
		c-0.416-0.143-0.892-0.311-1.424-0.502l-0.761-0.298c-0.271-0.127-0.479-0.235-0.624-0.326c-0.359-0.271-0.425-0.523-0.188-0.759
		c0.181-0.199,0.506-0.271,0.977-0.217c0.162-0.019,0.307-0.01,0.434,0.026c0.092,0.019,0.162,0.027,0.217,0.027l0.244,0.027
		c0.742,0.217,1.293,0.361,1.654,0.434c0.471,0.127,1.004,0.263,1.603,0.407c0.343,0.054,0.604,0.036,0.784-0.054
		c0.056-0.037,0.101-0.064,0.136-0.082c0.381-0.253,0.625-0.425,0.731-0.516c0.164-0.145,0.127-0.289-0.106-0.434
		c-1.735-0.922-2.729-1.5-2.981-1.735c-0.291-0.235-0.437-0.516-0.437-0.841c0-0.38,0.37-0.452,1.112-0.217
		c0.613,0.199,1.347,0.515,2.195,0.949c0.688,0.379,1.166,0.561,1.438,0.542c0.271-0.012,0.47-0.016,0.599-0.014
		c0.063,0.003,0.108,0.007,0.136,0.014l0.055-0.027c0.037-0.015,0.082-0.042,0.137-0.081c0.113-0.085,0.268-0.225,0.461-0.42
		c0.025-0.033,0.052-0.064,0.082-0.096c0.132-0.146,0.244-0.271,0.339-0.379c0.161-0.185,0.267-0.312,0.312-0.38
		c0.108-0.072,0.172-0.172,0.189-0.299v-0.026c0-0.019-0.005-0.037-0.014-0.055c-0.024-0.071-0.094-0.153-0.203-0.244
		c-0.018-0.013-0.035-0.026-0.055-0.04l-0.015-0.015c-0.021-0.018-0.044-0.036-0.067-0.054c-0.127-0.091-0.451-0.316-0.977-0.678
		c-0.107-0.072-0.229-0.153-0.354-0.244c-0.09-0.054-0.568-0.316-1.438-0.786c-0.326-0.199-0.479-0.407-0.461-0.624
		c0.036-0.235,0.162-0.38,0.379-0.435c0.271-0.071,0.696-0.018,1.274,0.163c0.071,0.019,0.146,0.036,0.218,0.055l0.243,0.108
		c0.397,0.198,0.932,0.516,1.601,0.949c0.832,0.578,1.329,0.813,1.492,0.705c0.775-0.452,1.211-0.823,1.301-1.112
		c0.037-0.162-0.125-0.415-0.486-0.759c-0.117-0.11-0.229-0.219-0.338-0.325c-0.043-0.041-0.084-0.081-0.123-0.123l-0.015-0.013
		c-0.104-0.1-0.21-0.199-0.313-0.299l-0.229-0.217c-0.016-0.016-0.026-0.028-0.04-0.041c-0.229-0.229-0.445-0.451-0.65-0.664
		c-0.668-0.633-0.957-1.058-0.867-1.274c0.088-0.174,0.316-0.206,0.689-0.095c0.014,0.004,0.026,0.009,0.041,0.014
		c0.039,0.012,0.079,0.024,0.123,0.04c0.104,0.041,0.223,0.095,0.354,0.163l0.162,0.095c0.012,0.009,0.024,0.018,0.041,0.027
		c0.197,0.09,0.424,0.226,0.678,0.406c0.091,0.072,0.189,0.127,0.299,0.163c0.092,0.055,0.163,0.1,0.217,0.135
		c0.381,0.235,0.732,0.489,1.059,0.76l0.015,0.014c0.035,0.025,0.072,0.048,0.106,0.068c0.088,0.06,0.17,0.104,0.244,0.136h0.015
		c0.019,0.014,0.034,0.027,0.056,0.04c0.04,0.034,0.081,0.066,0.121,0.096c0.066,0.051,0.137,0.096,0.204,0.135
		c0.106,0.055,0.207,0.091,0.298,0.108c0.198,0.055,0.38,0.027,0.543-0.081h0.026l0.108-0.027c0.041-0.043,0.068-0.078,0.08-0.108
		v-0.026c0.309-0.182,0.471-0.326,0.488-0.435c0.018-0.127-0.208-0.434-0.678-0.922c-0.049-0.049-0.094-0.099-0.137-0.149
		c-0.236-0.235-0.443-0.448-0.623-0.637c-0.313-0.326-0.547-0.579-0.705-0.76c-0.117-0.118-0.224-0.23-0.313-0.339
		c-0.015-0.014-0.028-0.027-0.04-0.041c-0.281-0.323-0.463-0.604-0.543-0.841c-0.162-0.47-0.182-0.841-0.055-1.111
		c0.037-0.091,0.082-0.136,0.137-0.136c0.072-0.054,0.189-0.054,0.354,0c0.119,0.034,0.265,0.134,0.435,0.298
		c0.01,0.01,0.019,0.019,0.026,0.027c0.033,0.028,0.064,0.056,0.095,0.081c0.062,0.054,0.118,0.108,0.178,0.163
		c0.099,0.088,0.197,0.183,0.298,0.285c0.307,0.288,0.631,0.627,0.979,1.017c0.759,0.85,1.139,1.283,1.139,1.302
		c0.561,0.561,1.049,0.705,1.465,0.434c0.198-0.145,0.227-0.506,0.081-1.084c-0.181-0.598-0.506-1.104-0.978-1.52
		c-0.578-0.542-1.021-0.994-1.328-1.355c-0.344-0.398-0.361-0.543-0.055-0.434c0.254,0.108,0.715,0.279,1.383,0.515
		c0.018,0.006,0.035,0.011,0.056,0.014c0.206,0.083,0.396,0.169,0.569,0.258l0.025,0.014c0.02,0.009,0.036,0.018,0.055,0.027
		c0.068,0.036,0.131,0.071,0.189,0.108c0.096,0.054,0.186,0.108,0.271,0.162c0.076,0.059,0.146,0.117,0.217,0.177
		c0.018,0.019,0.035,0.036,0.055,0.054c0.325,0.325,0.561,0.76,0.705,1.302c0.107,0.271,0.172,0.506,0.189,0.705h0.543
		c0.379-0.09,0.586-0.325,0.623-0.705c-0.037-0.415-0.172-0.804-0.406-1.166c-0.361-0.452-0.625-0.805-0.786-1.058
		c-0.127-0.198-0.425-0.578-0.896-1.139c-0.344-0.344-0.479-0.552-0.406-0.624c0.107-0.145,0.271-0.163,0.488-0.054
		c0.217,0.054,0.514,0.253,0.895,0.596c0.309,0.235,0.613,0.453,0.922,0.651l0.027,0.027c0.061,0.056,0.123,0.123,0.188,0.203
		c0.036,0.042,0.072,0.087,0.108,0.136c0.063,0.079,0.133,0.17,0.203,0.271l0.12,0.177c0.382,0.633,0.625,1.085,0.734,1.356
		c0.252,0.035,0.379-0.036,0.379-0.218c0-0.146-0.045-0.334-0.137-0.569c-0.197-0.397-0.37-0.75-0.516-1.058
		c-0.135-0.309-0.273-0.611-0.42-0.908c-0.023-0.039-0.047-0.08-0.067-0.122c-0.173-0.335-0.353-0.66-0.542-0.976
		c-0.109-0.127-0.02-0.127,0.271,0c0.287,0.145,0.604,0.406,0.947,0.785c0.776,0.851,1.213,1.482,1.303,1.898
		c0.055,0.308,0.09,0.57,0.107,0.787l0.217,0.026c0.182-0.036,0.271-0.189,0.271-0.461c0.002-0.017,0.002-0.035,0-0.054
		c0.021-0.188,0.021-0.404,0-0.65c-0.01-0.06-0.02-0.123-0.026-0.19c-0.015-0.113-0.032-0.231-0.054-0.353
		C248.044,179.057,247.882,178.596,247.701,178.18z M238.818,156.091l-0.014-0.013c-0.045-0.04-0.09-0.081-0.137-0.122
		c-0.025-0.024-0.055-0.048-0.08-0.068c-0.042-0.038-0.083-0.074-0.123-0.108c-0.581-0.51-1.169-0.998-1.763-1.464
		c-0.095-0.079-0.188-0.156-0.284-0.231c-0.038-0.027-0.072-0.055-0.107-0.081c-0.063-0.045-0.127-0.091-0.189-0.135
		c-0.055-0.042-0.109-0.083-0.162-0.123c-0.158-0.118-0.316-0.235-0.475-0.352c-0.096-0.068-0.19-0.136-0.285-0.204
		c-0.297-0.213-0.596-0.421-0.895-0.624c-0.068-0.045-0.138-0.09-0.205-0.135c-0.643-0.43-1.291-0.837-1.951-1.221
		c-0.043-0.024-0.082-0.047-0.123-0.067c-0.465-0.27-0.938-0.527-1.409-0.773c-0.109-0.057-0.218-0.11-0.325-0.162
		c-0.627-0.319-1.26-0.618-1.898-0.896c-0.031-0.014-0.063-0.027-0.095-0.041c-2.214-0.956-4.506-1.68-6.875-2.169
		c-0.034-0.011-0.069-0.02-0.108-0.027c-0.244-0.045-0.487-0.09-0.73-0.136h-0.016c-0.047-0.009-0.098-0.018-0.146-0.026
		c-0.215-0.039-0.434-0.074-0.65-0.109c-0.063-0.008-0.125-0.018-0.188-0.026c-0.206-0.032-0.414-0.063-0.624-0.095
		c-0.553-0.075-1.107-0.138-1.668-0.19c-0.512-0.047-1.025-0.083-1.545-0.108l-4.014-0.014c-0.063,0.006-0.127,0.011-0.19,0.014
		c-0.067,0.006-0.136,0.01-0.203,0.014c-0.528,0.031-1.053,0.072-1.573,0.122c-0.055,0.004-0.106,0.008-0.162,0.014
		c-1.338,0.132-2.647,0.326-3.933,0.583c-0.136,0.025-0.271,0.053-0.405,0.081c-3.947,0.83-7.613,2.249-10.998,4.258
		c-0.103,0.061-0.207,0.124-0.313,0.189c-0.293,0.179-0.582,0.359-0.867,0.542c-0.038,0.023-0.074,0.047-0.108,0.068
		c-0.498,0.326-0.991,0.665-1.478,1.017c-0.298,0.217-0.592,0.438-0.882,0.665c-0.101,0.077-0.199,0.153-0.298,0.23
		c-0.138,0.108-0.273,0.217-0.407,0.325c-0.042,0.034-0.083,0.07-0.122,0.108c-0.129,0.105-0.26,0.209-0.394,0.313l-3.077,2.874
		c-0.062,0.066-0.125,0.135-0.19,0.203c-0.089,0.092-0.179,0.183-0.271,0.271l-0.434,0.475c-0.03,0.036-0.062,0.072-0.095,0.108
		c-0.072,0.082-0.145,0.163-0.217,0.244c-0.133,0.148-0.264,0.298-0.394,0.447c-0.266,0.306-0.528,0.613-0.786,0.922
		c-0.054,0.068-0.107,0.137-0.163,0.203l-0.691,0.868c-2.905,3.791-4.984,7.872-6.237,12.245c-0.047,0.164-0.092,0.326-0.136,0.487
		l-0.162,0.597c-0.069,0.291-0.137,0.58-0.204,0.868l-0.365,1.857c-0.009,0.058-0.018,0.116-0.027,0.176
		c-0.477,2.828-0.63,5.771-0.461,8.828c0.133,2.399,0.458,4.709,0.976,6.928c0.282,1.218,0.621,2.406,1.017,3.566
		c0.015,0.041,0.028,0.082,0.041,0.122c0.083,0.237,0.169,0.473,0.258,0.705c0.103,0.279,0.211,0.555,0.325,0.827
		c0.069,0.178,0.142,0.354,0.218,0.529c0.065,0.16,0.133,0.318,0.203,0.475c0.021,0.054,0.043,0.107,0.067,0.162
		c0.021,0.057,0.044,0.11,0.068,0.163c0.165,0.363,0.336,0.726,0.515,1.084c0.016,0.041,0.034,0.082,0.055,0.121
		c0.017,0.043,0.034,0.084,0.054,0.123c0.031,0.063,0.063,0.127,0.095,0.188c0.096,0.192,0.195,0.39,0.299,0.583
		c0.053,0.104,0.106,0.208,0.163,0.313c0.025,0.049,0.054,0.1,0.081,0.148c0.004,0.01,0.009,0.02,0.014,0.025
		c0.883,1.611,1.896,3.162,3.037,4.65l0.38,0.488c1.397,1.758,2.979,3.432,4.745,5.018c0.937,0.832,1.89,1.609,2.861,2.332
		c0.09,0.066,0.18,0.135,0.271,0.203c0.053,0.039,0.106,0.079,0.162,0.122c0.152,0.109,0.306,0.218,0.461,0.325
		c0.152,0.109,0.307,0.218,0.462,0.324c0.097,0.063,0.192,0.127,0.284,0.191c0.056,0.031,0.11,0.063,0.163,0.094
		c0.019,0.017,0.036,0.028,0.054,0.041c0.05,0.033,0.1,0.063,0.149,0.096c0.443,0.289,0.89,0.568,1.343,0.841
		c6.352,3.781,13.438,5.448,21.26,5.003c8.014-0.454,15.002-3.003,20.963-7.646c0.076-0.06,0.152-0.116,0.23-0.178
		c0.209-0.166,0.418-0.338,0.622-0.515l4.163-4c0.092-0.097,0.182-0.196,0.271-0.299c7.016-7.827,10.216-16.994,9.601-27.498
		c-0.218-3.95-0.95-7.646-2.196-11.091c-0.021-0.061-0.045-0.119-0.065-0.177c-0.015-0.034-0.026-0.07-0.041-0.108l-1.126-2.698
		c-0.012-0.022-0.02-0.045-0.026-0.067l-0.517-1.045c-0.174-0.345-0.354-0.688-0.543-1.03c-0.063-0.106-0.127-0.216-0.188-0.325
		c-0.019-0.031-0.034-0.063-0.054-0.096c-0.074-0.123-0.146-0.245-0.219-0.365c-0.021-0.04-0.045-0.081-0.066-0.122
		c-0.01-0.017-0.02-0.034-0.025-0.055c-0.061-0.093-0.117-0.188-0.178-0.284c-0.025-0.042-0.054-0.082-0.082-0.123
		c-0.021-0.031-0.045-0.063-0.066-0.095c-0.008-0.019-0.021-0.036-0.039-0.054v-0.014l-0.028-0.054
		c-0.017-0.028-0.034-0.055-0.054-0.082c-0.282-0.448-0.577-0.891-0.881-1.329c-0.019-0.023-0.035-0.046-0.057-0.067
		c-0.048-0.074-0.097-0.146-0.148-0.217c-0.131-0.192-0.269-0.382-0.405-0.569l-0.041-0.055c-0.039-0.053-0.079-0.106-0.122-0.162
		l-0.162-0.218c-0.263-0.345-0.533-0.688-0.813-1.03l-1.385-1.6c-0.261-0.288-0.527-0.572-0.801-0.854l-0.201-0.203
		c-0.021-0.019-0.037-0.036-0.057-0.055c-0.355-0.36-0.725-0.718-1.1-1.071c-0.064-0.065-0.135-0.129-0.203-0.189l-0.121-0.122
		C239.211,156.442,239.018,156.267,238.818,156.091z M242.833,157.786c0.169,0.183,0.336,0.363,0.502,0.542
		c0.073,0.084,0.146,0.165,0.217,0.244c0.021,0.028,0.044,0.056,0.067,0.082c0.148,0.17,0.299,0.342,0.447,0.515
		c0.072,0.085,0.145,0.172,0.218,0.258c0.146,0.175,0.29,0.352,0.434,0.529c0.05,0.063,0.099,0.125,0.149,0.189l0.014,0.014
		c0.016,0.019,0.028,0.037,0.041,0.055c0.162,0.203,0.319,0.406,0.475,0.61c0.014,0.017,0.025,0.034,0.041,0.054
		c0.514,0.68,1,1.371,1.463,2.074c0.01,0.011,0.019,0.02,0.029,0.027c0.047,0.082,0.096,0.163,0.147,0.244
		c0.058,0.089,0.116,0.179,0.177,0.271c0.158,0.255,0.316,0.512,0.475,0.772c0.388,0.647,0.752,1.304,1.1,1.966
		c0.074,0.16,0.152,0.318,0.229,0.475c0.607,1.218,1.146,2.465,1.613,3.743c0.029,0.073,0.057,0.145,0.082,0.217
		c1.088,3.024,1.798,6.229,2.129,9.613c0.006,0.028,0.012,0.056,0.014,0.081c0.063,0.604,0.113,1.214,0.148,1.831
		c0.286,5.083-0.283,9.864-1.708,14.346c-0.099,0.056-0.12,0.132-0.067,0.23c-1.646,5.074-4.389,9.761-8.229,14.061
		c-1.217,1.354-2.479,2.603-3.796,3.741c-0.078,0.072-0.154,0.14-0.229,0.205c-2.225,1.906-4.588,3.52-7.094,4.841
		c-0.463,0.243-0.934,0.479-1.41,0.704c-0.016,0.009-0.033,0.018-0.054,0.027c-0.024,0.032-0.06,0.047-0.097,0.041
		c-0.045,0.021-0.09,0.043-0.137,0.065c-4.426,2.046-9.273,3.221-14.549,3.524c-4.953,0.271-9.627-0.268-14.021-1.612l-0.025-0.015
		c-1.817-0.559-3.589-1.259-5.314-2.103c-0.032-0.011-0.063-0.024-0.095-0.04c-1.137-0.559-2.253-1.177-3.35-1.857
		c-0.443-0.275-0.883-0.563-1.315-0.854c0.098,0.386,0.192,0.773,0.285,1.166l-10.93-4.285c0.014-0.031,0.027-0.063,0.041-0.095
		c0.524-1.269,1.207-2.749,2.048-4.447c-0.049-0.058-0.099-0.108-0.149-0.163c-0.017-0.021-0.035-0.047-0.054-0.066
		c-0.197-0.234-0.392-0.472-0.584-0.705c-0.065-0.084-0.129-0.164-0.189-0.243c-0.251-0.322-0.495-0.644-0.732-0.964l-0.108,0.218
		c-0.018,0.043-0.036,0.084-0.054,0.122c-4.412-1.844-8.742-2.251-12.99-1.221c-2.514,0.597-4.827,1.619-6.942,3.063
		c-0.434-1.41-0.859-2.449-1.274-3.118c-1.085-1.88-2.703-2.975-4.854-3.28l-0.027-0.026c-1.845-0.151-3.499,0.255-4.962,1.221
		c-0.337,0.218-0.662,0.466-0.977,0.745c-0.279,0.242-0.551,0.51-0.813,0.8c-0.019,0-0.027,0.009-0.027,0.028
		c-0.669,0.831-1.13,1.798-1.383,2.9c-1.646-1.211-2.947-2.313-3.905-3.31c0.438-0.456,0.862-0.917,1.274-1.384l0.014-0.014
		c0.032-0.037,0.063-0.071,0.095-0.107c0.621-0.696,1.218-1.405,1.79-2.129c0.159-0.202,0.317-0.406,0.475-0.61
		c0.31-0.399,0.612-0.809,0.908-1.221c0.009-0.014,0.018-0.027,0.027-0.04c0.431-0.598,0.847-1.203,1.247-1.817
		c2.965-4.483,4.665-8.66,5.099-12.529c0.25-2.076,0.205-4.58-0.136-7.512v-0.026c-0.014-0.122-0.027-0.244-0.041-0.367
		c-0.013-0.103-0.025-0.207-0.04-0.311l-0.014-0.082c-0.018-0.151-0.035-0.301-0.055-0.447c-0.255-1.866-0.617-3.891-1.085-6.075
		c-0.173-0.777-0.358-1.577-0.555-2.399c-0.036-0.141-0.072-0.28-0.109-0.42v-0.014c-0.047-0.209-0.098-0.417-0.149-0.624
		c-0.007-0.032-0.017-0.063-0.026-0.095c-0.014-0.06-0.027-0.119-0.041-0.177c-0.047-0.18-0.092-0.36-0.136-0.542
		c-0.021-0.082-0.044-0.164-0.067-0.244c-0.045-0.176-0.09-0.352-0.136-0.529c-1.252-4.778-2.929-10.18-5.03-16.203v0.055
		c-0.271-0.887-0.624-1.655-1.058-2.306l4.908-2.224l15.051,32.38l0.027,0.041l1.735,3.729c0.018,0.018,0.036,0.045,0.055,0.081
		c0.034,0.045,0.129,0.199,0.284,0.461c0.058,0.103,0.126,0.22,0.203,0.353c0.08,0.144,0.171,0.307,0.271,0.488
		c0.019,0.031,0.036,0.063,0.055,0.095c0.837,1.526,2.328,4.278,4.475,8.258v0.027c0.229,0.383,0.459,0.762,0.691,1.139
		c0.04,0.068,0.081,0.136,0.122,0.203c0.836,1.375,1.646,2.663,2.427,3.864c0.06,0.085,0.119,0.171,0.177,0.259l-0.014-0.028
		c-0.361-1.148-0.668-2.324-0.922-3.525c-0.039-0.178-0.075-0.359-0.108-0.542c-0.199-0.958-0.361-1.935-0.488-2.929
		c-0.017-0.03-0.034-0.058-0.055-0.081c-0.002-0.017-0.007-0.03-0.014-0.041l-0.026-0.027c-1.494-2.737-2.646-4.857-3.458-6.359
		c-0.015-0.022-0.028-0.045-0.041-0.067c-0.299-0.547-0.552-1.009-0.759-1.383c-0.119-0.232-0.223-0.431-0.312-0.597
		c-0.046-0.082-0.086-0.154-0.123-0.217c-0.155-0.288-0.236-0.442-0.244-0.462c-0.018-0.035-0.036-0.054-0.054-0.054l-4.637-9.966
		h-0.015l-0.067-0.149h0.014l-0.217-0.461h-0.014l-0.067-0.149h0.013l-0.067-0.148h-0.014l-0.014-0.041l-0.041-0.082v-0.013
		l-0.148-0.299c-0.012-0.03-0.025-0.063-0.041-0.095l-11.417-24.528c1.826-0.543,3.498-0.462,5.018,0.244v-0.028
		c2.169,1.049,4.302,3.444,6.399,7.187c1.772,3.109,3.896,7.341,6.373,12.692c1.718,3.673,3.28,7.166,4.691,10.481
		c0.134-0.581,0.278-1.155,0.435-1.723c0.063-0.214,0.126-0.427,0.189-0.638c0.2-0.649,0.417-1.291,0.65-1.925v-0.014
		c-1.701-7.057-2.849-11.559-3.444-13.505v-0.027l-0.731-2.169c0.018-0.055,0.026-0.1,0.026-0.136
		c0.127-0.344,0.254-0.813,0.38-1.411c0.488-0.994,1.447-1.717,2.875-2.169l0.597-0.163c0.669,0.38,1.41,1.067,2.224,2.062h0.027
		c1.489,1.676,2.891,3.899,4.203,6.671c0.25-0.313,0.508-0.626,0.772-0.936c0.054-0.064,0.108-0.127,0.163-0.189
		c0.233-0.278,0.473-0.554,0.719-0.827c0.021-0.023,0.043-0.046,0.067-0.068c-0.914-1.823-1.867-3.409-2.86-4.759
		c1.15,1.022,2.275,2.42,3.376,4.189c0.26-0.281,0.522-0.557,0.786-0.827c2.169-2.234,4.488-4.151,6.956-5.749
		c0.108-0.067,0.218-0.135,0.325-0.203c0.026-0.019,0.054-0.037,0.082-0.054c0.825-0.521,1.666-1.004,2.521-1.452
		c0.042-0.023,0.083-0.047,0.122-0.067c1.26-0.654,2.557-1.233,3.892-1.735c0.311-0.119,0.622-0.232,0.936-0.339
		c0.533-0.19,1.069-0.367,1.612-0.529c0.209-0.065,0.423-0.129,0.639-0.189c0.105-0.03,0.216-0.062,0.325-0.095
		c0.173,0.051,0.332,0.01,0.475-0.122c0.789-0.203,1.591-0.384,2.4-0.543c0.051-0.008,0.101-0.018,0.147-0.026
		c1.731-0.324,3.519-0.541,5.355-0.651c0.051-0.006,0.102-0.011,0.148-0.013c0-0.021,0.01-0.021,0.026,0h0.024
		c1.287-0.073,2.554-0.092,3.799-0.055c0.098,0.006,0.191,0.01,0.283,0.014c1.341,0.05,2.66,0.162,3.959,0.339
		c0.066,0.009,0.137,0.018,0.203,0.026c3.537,0.508,6.91,1.494,10.117,2.957c0.014,0.003,0.027,0.008,0.039,0.013
		c0.82,0.378,1.631,0.784,2.428,1.221c0.021,0.013,0.045,0.026,0.067,0.04c0.021,0.012,0.043,0.025,0.067,0.041
		c0.017,0.007,0.033,0.016,0.055,0.027c0.255,0.142,0.508,0.286,0.76,0.434c0.03,0.018,0.063,0.035,0.096,0.055
		c0.545,0.323,1.088,0.662,1.627,1.017c0.322,0.213,0.647,0.435,0.977,0.664c0.044,0.03,0.089,0.063,0.137,0.096l0.014,0.014
		c0.127,0.088,0.252,0.178,0.381,0.271c0.054,0.039,0.107,0.08,0.162,0.122c0.23,0.167,0.463,0.339,0.689,0.516
		c0.135,0.098,0.266,0.197,0.395,0.298c0.037,0.026,0.074,0.055,0.109,0.082c0.045,0.036,0.09,0.072,0.135,0.108
		c0.112,0.09,0.228,0.18,0.34,0.271c0.091,0.071,0.182,0.144,0.271,0.216c0.078,0.065,0.155,0.133,0.229,0.204
		c0.033,0.021,0.064,0.043,0.096,0.067c0.184,0.153,0.361,0.307,0.543,0.461c0.029,0.027,0.063,0.055,0.096,0.082
		c0.172,0.152,0.344,0.307,0.516,0.461c0.123,0.109,0.244,0.218,0.365,0.325c0.021,0.023,0.045,0.046,0.067,0.067
		c0.07,0.064,0.144,0.129,0.218,0.19c0.174,0.167,0.346,0.335,0.516,0.502c0.086,0.081,0.172,0.162,0.258,0.244
		c0.365,0.352,0.723,0.709,1.07,1.07c0.092,0.094,0.182,0.189,0.271,0.285C242.697,157.641,242.766,157.713,242.833,157.786z
		 M218.426,148.023l0.028,0.014c0.315,0.151,0.347,0.219,0.095,0.203c-0.081-0.018-0.181-0.035-0.299-0.055h-0.055
		c-0.23-0.029-0.524-0.057-0.881-0.08c-0.022,0.001-0.045,0.001-0.068,0c-0.813-0.091-1.318-0.127-1.518-0.109
		c-0.398,0.073-0.742,0.154-1.031,0.244c-0.452,0.127-0.768,0.189-0.949,0.189l-0.027,0.218c0.182,0.162,0.416,0.244,0.705,0.244
		c0.651-0.145,1.258-0.182,1.817-0.108c0.091-0.019,0.353-0.01,0.786,0.026c0.271,0.036,0.516,0.063,0.732,0.082
		c0.36,0.162,0.668,0.308,0.922,0.434l0.014,0.014c0.111,0.117,0.043,0.167-0.203,0.149c-0.045-0.008-0.09-0.018-0.137-0.027
		l-0.582-0.095c-0.547-0.077-0.994-0.122-1.342-0.136h-0.449c-0.022,0.007-0.045,0.011-0.066,0.014
		c-0.705,0.072-1.193,0.153-1.464,0.244c-0.086,0-0.172,0.009-0.259,0.026c-0.045,0.012-0.09,0.024-0.135,0.041
		c-0.136,0.044-0.267,0.111-0.396,0.203l-0.106,0.055c-0.072,0.09-0.063,0.271,0.025,0.542l0.081,0.435
		c0.978-0.253,1.637-0.397,1.979-0.435c0.36-0.054,0.903-0.018,1.627,0.108c0.562,0.019,1.014,0.1,1.355,0.244l0.648,0.244
		c-0.342,0.235-0.576,0.361-0.703,0.38c-1.07-0.146-1.881-0.232-2.428-0.258c-0.057-0.003-0.109-0.008-0.164-0.014
		c-0.237-0.004-0.416,0.005-0.526,0.027l-1.546,0.244l-0.381,0.108c-0.035,0.019-0.063,0.027-0.08,0.027l-0.027,0.23v0.041
		l-0.025,0.243c0.035,0.163,0.299,0.208,0.787,0.136c0.469-0.054,1.291-0.027,2.467,0.082c0.506,0.09,0.922,0.153,1.248,0.189
		c0.867,0.199,1.236,0.344,1.11,0.435c-0.091,0.09-0.29,0.162-0.597,0.216h-0.705c-0.079-0.005-0.16-0.014-0.244-0.026
		c0.018-0.109,0.079-0.163,0.188-0.163c-0.034-0.018-0.07-0.063-0.106-0.136c-0.056,0.055-0.117,0.091-0.188,0.109
		c-0.02,0-0.082,0-0.188,0c0.071,0.035,0.08,0.09,0.026,0.162c-1.1-0.108-1.739-0.162-1.926-0.162c-0.508,0-0.843,0-1.004,0
		c-0.271,0.107-0.543,0.18-0.813,0.216s-0.507,0.118-0.705,0.244l-0.106,0.339c-0.008,0.1-0.033,0.181-0.082,0.245l-0.219,0.664
		h0.082c0.057-0.004,0.107-0.009,0.162-0.014c0.029-0.002,0.063-0.002,0.096,0l0.557-0.027c0.283-0.009,0.537-0.009,0.76,0
		c0.105,0.002,0.206,0.006,0.299,0.014c0.117,0.01,0.23,0.02,0.339,0.027c0.048,0.005,0.093,0.009,0.136,0.014
		c0.791,0.08,1.338,0.166,1.643,0.257c0.314,0.063,0.604,0.132,0.865,0.204c0.113,0.03,0.218,0.062,0.313,0.095h0.015
		c0.047,0.017,0.086,0.035,0.121,0.055c0.131,0.049,0.217,0.094,0.258,0.135c-0.258,0.019-0.502,0.037-0.731,0.055
		c-0.021-0.001-0.037-0.001-0.056,0c-0.223,0.016-0.436,0.029-0.637,0.041c-0.051,0.006-0.101,0.01-0.147,0.014
		c-1.106,0.077-1.822,0.122-2.144,0.135c-0.397,0-1.059,0.1-1.979,0.299c-0.163,0.054-0.335,0.136-0.518,0.244
		c-0.233,0.162-0.396,0.353-0.486,0.569c-0.146,0.343-0.172,0.569-0.081,0.678c0.688,0,1.293-0.026,1.815-0.081
		c0.254-0.019,0.569-0.063,0.948-0.136c0.308-0.019,0.579,0.018,0.813,0.108c0.371,0.093,0.982,0.206,1.83,0.339
		c0.056,0.009,0.109,0.018,0.162,0.027c0.096,0.013,0.188,0.026,0.285,0.04c-0.158,0.034-0.313,0.065-0.461,0.096
		c-0.068,0.014-0.138,0.027-0.203,0.04c-0.062,0.009-0.119,0.018-0.177,0.027c-0.077,0.011-0.142,0.024-0.188,0.041
		c-0.084,0.018-0.164,0.036-0.244,0.054l-0.096,0.014c-0.072,0.014-0.146,0.027-0.217,0.041c-0.775,0.138-1.396,0.224-1.857,0.258
		c-0.124,0.022-0.246,0.045-0.366,0.067c-0.246,0.05-0.478,0.1-0.69,0.149c-0.238,0.054-0.455,0.108-0.649,0.162
		c-0.162,0.036-0.345,0.055-0.542,0.055c-0.163,0.055-0.264,0.09-0.301,0.108c-0.018,0.018-0.07,0.091-0.162,0.217
		c-0.09,0.145-0.135,0.235-0.135,0.271c0,0.198,0.152,0.316,0.461,0.353c0.162,0,0.479,0.063,0.949,0.189
		c0.506,0.109,0.84,0.181,1.002,0.217c0.289,0.055,0.479,0.1,0.569,0.136c0.108,0.036,0.271,0.118,0.487,0.244
		c0.219,0.127,0.336,0.253,0.354,0.38c-0.056,0.013-0.109,0.026-0.162,0.041c-0.022,0.005-0.046,0.01-0.068,0.013
		c-0.247,0.055-0.482,0.104-0.703,0.149c-0.102,0.019-0.2,0.036-0.299,0.055c-0.604,0.106-1.098,0.165-1.479,0.176
		c-0.506,0-1.048,0-1.627,0l-0.624-0.026c-0.106,0.018-0.196,0.026-0.271,0.026c-0.02,0-0.045,0-0.082,0
		c-0.146,0-0.353,0.009-0.623,0.027l0.055-0.027c0.055-0.09,0.127-0.189,0.219-0.298v-0.163l-3.607-2.576
		c0.072,0.036,0.335,0,0.785-0.108c0.226-0.056,0.47-0.069,0.732-0.041c0.08,0.011,0.162,0.024,0.244,0.041
		c0.145,0.054,0.471,0.189,0.977,0.407c0.198,0.072,0.543,0.344,1.03,0.813c0.108,0.09,0.199,0.171,0.271,0.244
		c0.183,0.198,0.326,0.28,0.436,0.244l0.137-0.163c0.018-0.019,0.035-0.045,0.055-0.081c0.091-0.145,0.207-0.344,0.353-0.598
		l0.407-0.704c-0.092-0.036-0.172-0.063-0.244-0.081c-0.152-0.065-0.303-0.134-0.447-0.204c-0.078-0.035-0.154-0.07-0.229-0.108
		c-0.351-0.173-0.685-0.357-1.005-0.556c-0.396-0.217-0.877-0.588-1.438-1.112l-0.73-0.65c0.146-0.072,0.479-0.109,1.002-0.109
		c0.109-0.005,0.224-0.005,0.341,0c0.491,0.007,1.039,0.089,1.642,0.244c0.123,0.034,0.25,0.069,0.381,0.109
		c0.055,0.019,0.107,0.037,0.162,0.054c0.271,0.108,0.568,0.181,0.895,0.217c0.326,0.055,0.498,0.055,0.517,0l0.298-0.624h0.027
		l0.055-0.216c-0.275-0.135-0.537-0.252-0.787-0.354c-0.168-0.07-0.33-0.134-0.488-0.189c-0.178-0.063-0.35-0.117-0.514-0.162
		c-0.072-0.019-0.146-0.037-0.219-0.055c-0.035,0-0.055-0.009-0.055-0.027c-0.145,0-0.279-0.036-0.406-0.108
		c-0.055,0-0.107-0.009-0.162-0.027c-0.471-0.108-1.029-0.28-1.682-0.515l-0.271-0.488c0.127-0.07,0.252-0.125,0.381-0.163
		c0.012-0.004,0.025-0.008,0.041-0.014c0.012-0.004,0.025-0.008,0.041-0.014c0.146-0.035,0.295-0.053,0.446-0.054h0.015
		c0.053-0.002,0.106-0.002,0.162,0h0.026c0.457-0.008,0.909,0.028,1.356,0.108c0.105,0.036,0.217,0.072,0.324,0.108
		c0.182,0.036,0.36,0.1,0.541,0.19c0.127,0.054,0.28,0.1,0.463,0.135l0.299,0.109c0.232,0.036,0.469,0.071,0.705,0.107
		c0.053-0.018,0.09-0.026,0.106-0.026h0.026l0.435-1.112c-0.218-0.036-0.425-0.081-0.624-0.136l-2.521-0.569
		c-0.219-0.036-0.442-0.055-0.678-0.055c-0.416,0-0.688-0.018-0.813-0.054c-0.218-0.018-0.271-0.1-0.162-0.244
		c0.106-0.127,0.271-0.208,0.485-0.244c0.235-0.036,0.543-0.081,0.925-0.136c0.343-0.018,0.633-0.018,0.866,0h0.271l2.389,0.38
		c0.106,0.036,0.207,0.046,0.297,0.027l0.164-0.732c-0.326-0.108-0.717-0.217-1.166-0.325c-0.381-0.072-0.979-0.108-1.791-0.108
		l-1.192-0.027c-0.705-0.019-1.121-0.055-1.247-0.108c-0.07-0.023-0.111-0.046-0.122-0.067c-0.011-0.033,0.03-0.064,0.122-0.095
		v-0.015c0.031-0.022,0.136-0.063,0.313-0.121c0.025-0.012,0.054-0.021,0.08-0.027c0.035-0.017,0.071-0.03,0.109-0.041l0.025-0.014
		c0.021-0.01,0.045-0.019,0.067-0.027c0.019-0.003,0.034-0.008,0.056-0.014c0.234-0.051,0.488-0.118,0.76-0.203
		c0.072,0,0.152,0.009,0.244,0.027c0.232-0.055,0.479-0.09,0.729-0.108l0.65-0.027c0.562,0,1.329,0.055,2.306,0.163
		c0.057,0,0.118,0.009,0.188,0.027l-0.162-0.624c-0.106-0.019-0.206-0.027-0.297-0.027c-0.688-0.126-1.203-0.198-1.547-0.217h-0.353
		c-0.019,0-0.036,0-0.056,0c-0.021-0.002-0.041-0.002-0.066,0c-0.156-0.005-0.414,0.018-0.773,0.067
		c-0.135,0.013-0.283,0.03-0.446,0.055c-0.021,0.005-0.046,0.01-0.066,0.014l-0.271,0.027c-0.195,0.018-0.362,0.031-0.502,0.04
		c-0.238,0.019-0.387,0.023-0.446,0.014c-0.308,0-0.542-0.072-0.705-0.217l1.683-0.435h0.025c0.042-0.006,0.098-0.01,0.163-0.013
		c0.065-0.007,0.142-0.011,0.229-0.014c0.127-0.011,0.273-0.021,0.446-0.027c0.073,0.036,0.127,0.054,0.163,0.054
		c0.289,0,0.648,0.01,1.085,0.027c0.599,0.019,1.175,0.063,1.733,0.136l-0.053-0.542c-0.362,0.036-0.725,0.045-1.086,0.027
		c-0.106,0.018-0.207,0.018-0.299,0c-0.09,0.018-0.181,0.018-0.271,0c-0.217,0-0.486-0.009-0.813-0.027
		c-0.705,0.036-1.248,0.09-1.627,0.163c-0.357,0.066-0.736,0.089-1.141,0.067c-0.066-0.004-0.135-0.009-0.202-0.014
		c-0.077-0.009-0.153-0.018-0.229-0.027c-0.09-0.012-0.181-0.025-0.271-0.04c-0.024-0.004-0.054-0.009-0.081-0.015
		c0.027,0,0.061,0,0.096,0c0.061-0.003,0.123-0.008,0.188-0.013c0.129-0.022,0.271-0.055,0.421-0.095
		c0.063-0.009,0.124-0.019,0.188-0.027c0.444-0.063,0.894-0.117,1.342-0.163c0.033-0.004,0.064-0.008,0.098-0.013
		c0.184-0.02,0.361-0.037,0.543-0.055h0.055c0.405-0.038,0.813-0.07,1.221-0.095c0.649-0.019,1.318-0.027,2.008-0.027l-0.055,0.244
		c0.18-0.072,0.369-0.145,0.567-0.217l0.271-0.027c1.41-0.019,2.783,0.072,4.121,0.271
		C218.348,147.988,218.389,148.007,218.426,148.023z M201.18,171.115c-0.037,0.066-0.123,0.233-0.258,0.502
		c-0.055,0.054-0.146,0.181-0.271,0.379c0-0.198,0.063-0.353,0.189-0.461L201.18,171.115z M201.6,166.6
		c0.162,0.127,0.487,0.497,0.978,1.112c0.416,0.47,0.659,0.659,0.731,0.569c0.162-0.146,0.344-0.262,0.541-0.353
		c-0.072,0.108-0.188,0.325-0.352,0.651c-0.145,0.289-0.254,0.479-0.326,0.569c-0.197,0.181,0.063,0.298,0.787,0.353
		c0.198,0.018,0.623,0.09,1.273,0.217c0.199,0.055,0.396,0.1,0.598,0.135c0.271,0.055,0.506,0.082,0.705,0.082
		c0.107,0.036,0.199,0.063,0.271,0.081c0.217,0.019,0.416,0.063,0.596,0.136c0.309,0.108,0.533,0.226,0.68,0.353
		c0.145,0.127,0.171,0.271,0.081,0.434c-0.091,0.091-0.228,0.153-0.407,0.19c-0.091,0.036-0.189,0.054-0.298,0.054
		c-0.036,0-0.056,0.009-0.056,0.027c0-0.019-0.019-0.019-0.053,0h-0.027c-0.021,0-0.036,0-0.055,0l-0.379-0.027
		c-0.289-0.054-0.688-0.091-1.193-0.108c-0.579-0.072-1.004-0.117-1.274-0.136c-0.037,0-0.091,0-0.163,0
		c-0.09,0-0.145-0.009-0.162-0.026c-0.597-0.073-1.4-0.1-2.414-0.082c-0.162,0.019-0.324,0.108-0.488,0.271l0.625-0.76
		c0.091-0.289,0.107-0.588,0.055-0.895c-0.02-0.181-0.162-0.416-0.436-0.705c-0.344-0.38-0.604-0.678-0.785-0.896
		c-0.307-0.307-0.523-0.659-0.65-1.057c-0.145-0.435-0.117-0.678,0.082-0.732C200.479,165.967,200.984,166.148,201.6,166.6z
		 M204.962,161.719c-0.271-0.325-0.442-0.534-0.515-0.624c-0.219-0.271-0.235-0.443-0.055-0.515
		c0.323-0.109,0.775,0.071,1.354,0.542c0.197,0.145,0.497,0.397,0.896,0.759c0.324,0.29,0.551,0.397,0.678,0.326
		c0.218-0.073,0.533-0.289,0.949-0.651c-0.344,0.597-0.541,1.013-0.598,1.247c-0.055,0.109-0.107,0.218-0.163,0.326
		c0.741-0.037,1.446-0.037,2.115,0c0.599,0.018,1.031,0.036,1.304,0.054c0.307,0.013,0.596,0.063,0.866,0.149
		c0.015,0.002,0.024,0.006,0.041,0.014h0.015l0.055,0.026c0.014,0.005,0.027,0.01,0.041,0.015c0.068,0.023,0.137,0.051,0.203,0.081
		l0.025,0.014c0.598,0.253,0.977,0.425,1.141,0.515c-1.771,0.308-3.137,0.47-4.096,0.488c-0.923,0-1.861,0.108-2.82,0.325
		l-0.299,0.218c-0.182,0.181-0.324,0.37-0.435,0.569c-0.183,0.343-0.271,0.569-0.271,0.678c0,0.181,0.146,0.289,0.435,0.325
		c0.506-0.108,0.922-0.172,1.247-0.189c0.65-0.108,1.211-0.091,1.682,0.054l1.438,0.353c0.436,0.109,0.644,0.217,0.623,0.326
		c-0.034,0.145-0.172,0.253-0.404,0.325c-0.107,0.036-0.346,0.108-0.705,0.217c-0.184,0.036-0.751,0.046-1.709,0.027
		c-0.396,0.019-0.741,0.019-1.029,0c-0.199-0.019-0.381-0.019-0.543,0c-0.146,0-0.279,0.009-0.406,0.027
		c-0.252,0-0.604,0.009-1.059,0.026c-0.416-0.054-0.678-0.081-0.785-0.081l0.541-0.298c-0.597-0.579-1.185-1.238-1.763-1.98
		c-0.056,0-0.09-0.018-0.106-0.054l-0.488-0.651c-0.524-0.669-0.696-1.111-0.516-1.329c0.106-0.126,0.352-0.126,0.73,0
		c0.416,0.091,0.74,0.254,0.977,0.489c0.325,0.271,0.904,0.84,1.735,1.708l1.192-1.058l0.026-0.081
		c0.127-0.091,0.199-0.181,0.218-0.271c0.056-0.108,0.08-0.226,0.08-0.353c-0.018-0.145-0.226-0.416-0.623-0.813
		c-0.597-0.561-0.938-0.904-1.031-1.03l-0.053-0.082C205.063,161.809,205.018,161.754,204.962,161.719z M198.752,168.417
		c0.434,0.145,0.687,0.217,0.759,0.217c-0.307,1.682,0.01,2.848,0.949,3.498c0.706,0.488,2.16,0.841,4.366,1.058v0.543
		c-0.182,0.271-0.416,0.442-0.705,0.515c-0.107,0.019-0.434,0.027-0.977,0.027c-0.524,0-1.004-0.072-1.438-0.217
		c-0.452-0.181-0.823-0.325-1.11-0.435c-0.526-0.198-0.86-0.334-1.005-0.406c-0.142-0.074-0.268-0.156-0.38-0.244
		c0.075-1.276-0.078-2.723-0.461-4.339L198.752,168.417L198.752,168.417z M193.273,175.305c0.072,0.163,0.199,0.461,0.38,0.896
		l0.922,2.088c0.034,0,0.075-0.022,0.122-0.068l-0.067,0.068c-0.181,0.181-0.244,0.415-0.19,0.705
		c0.055,0.289,0.235,0.497,0.543,0.624c0.705,0.234,1.066,0.361,1.085,0.379c0.38,0.163,0.795,0.407,1.247,0.732l0.082,0.027
		c1.048,0.795,1.437,1.293,1.165,1.491c-0.09,0.091-0.551,0.019-1.383-0.217l-0.189-0.081c-0.163-0.055-0.344-0.108-0.542-0.163
		c-1.104-0.38-1.972-0.705-2.604-0.977c-0.024-0.01-0.047-0.02-0.068-0.026c-0.078-0.041-0.155-0.086-0.23-0.136
		c-0.093-0.054-0.188-0.117-0.284-0.19l-0.163-0.136c-0.016-0.007-0.028-0.016-0.041-0.026c-0.145-0.108-0.262-0.118-0.353-0.027
		c-0.068,0.068-0.168,0.186-0.298,0.353c-0.144,0.185-0.324,0.429-0.543,0.732l0.434,0.516c0.145,0.15,0.285,0.295,0.421,0.434
		c0.224,0.226,0.437,0.433,0.638,0.624c0.117,0.102,0.234,0.206,0.353,0.312c0.058,0.05,0.117,0.1,0.176,0.149
		c0.008,0.007,0.017,0.011,0.027,0.014l0.298,0.271c0.05,0.045,0.1,0.091,0.149,0.136c0.03,0.025,0.062,0.052,0.095,0.081
		c0.131,0.111,0.262,0.225,0.394,0.339c0.163,0.127,0.253,0.317,0.271,0.569c0.018,0.055,0,0.109-0.055,0.163
		c-0.018,0.072-0.136,0.1-0.353,0.081c-0.048-0.031-0.192-0.09-0.434-0.176c-0.035-0.014-0.071-0.027-0.108-0.04
		c-0.286-0.135-0.656-0.32-1.112-0.557c-0.464-0.24-1.015-0.534-1.654-0.881c-0.025-0.015-0.053-0.028-0.081-0.041
		c-0.226-0.117-0.523-0.248-0.896-0.394c-0.113-0.032-0.213-0.06-0.298-0.081c-0.132-0.034-0.231-0.058-0.298-0.068
		c-0.033-0.008-0.06-0.012-0.082-0.013c-0.09,0.018-0.153,0.036-0.189,0.054c-0.054,0.019-0.189,0.118-0.407,0.299
		c-0.026,0.039-0.139,0.134-0.339,0.284c-0.073,0.063-0.159,0.13-0.257,0.204c-0.182,0.071-0.263,0.189-0.244,0.352
		c0.036,0.182,0.234,0.426,0.596,0.732c0.05,0.043,0.1,0.084,0.149,0.122c0.199,0.16,0.394,0.291,0.584,0.394l0.107,0.108
		c0.037,0.019,0.1,0.027,0.19,0.027c0.091,0.09,0.198,0.162,0.325,0.217c0.012,0.008,0.021,0.018,0.027,0.026
		c0.07,0.047,0.143,0.097,0.217,0.149l0.067,0.055c0.014,0.016,0.027,0.029,0.041,0.04c0.241,0.212,0.494,0.474,0.759,0.787
		l0.299,0.353c0.054,0.048,0.104,0.098,0.149,0.149c0.103,0.117,0.18,0.239,0.229,0.365c0.091,0.163,0.146,0.317,0.164,0.462
		c0,0.036,0.009,0.063,0.026,0.081c0,0.019,0,0.036,0,0.055c0,0.132-0.055,0.19-0.162,0.176c-0.023,0.001-0.05-0.003-0.082-0.014
		c-0.012-0.004-0.025-0.008-0.041-0.014c-0.075-0.027-0.201-0.082-0.38-0.163c-0.235-0.108-0.565-0.267-0.989-0.474
		c-0.458-0.24-0.855-0.452-1.193-0.638c-0.249-0.137-0.466-0.259-0.65-0.366c-0.578-0.38-1.003-0.642-1.274-0.786
		c-0.091-0.073-0.182-0.136-0.271-0.189c-0.217-0.091-0.38-0.145-0.488-0.163c-0.054,0-0.1,0-0.136,0
		c-0.271,0.072-0.515,0.163-0.731,0.271c-0.362,0.182-0.507,0.335-0.435,0.462c0.091,0.253,0.308,0.542,0.651,0.867
		c0.145,0.182,0.325,0.344,0.542,0.488c0.181,0.145,0.597,0.497,1.247,1.058c0.072,0.019,0.118,0.045,0.136,0.081l0.027,0.027
		c0.072,0.072,0.145,0.127,0.217,0.163c0.452,0.434,0.651,0.705,0.597,0.813c-0.126,0.145-0.389,0.217-0.786,0.217
		c-0.036,0-0.063-0.009-0.082-0.027c-0.542,0-0.958-0.145-1.247-0.434c-0.741-0.578-1.4-1.121-1.979-1.627l-0.705-0.597
		l-0.271,0.217c-0.198,0.163-0.343,0.289-0.434,0.38l0.081,0.189c0.055,0.127,0.181,0.316,0.38,0.569
		c0.072,0.127,0.172,0.271,0.299,0.435l0.406,0.569c0.019,0.036,0.055,0.072,0.108,0.108c0.181,0.271,0.488,0.623,0.922,1.058
		c0.235,0.217,0.498,0.461,0.787,0.732c0.325,0.325,0.37,0.542,0.135,0.65c-0.054,0.072-0.37-0.117-0.949-0.569
		c-0.461-0.331-0.786-0.566-0.976-0.705c-0.102-0.071-0.165-0.117-0.19-0.136c-0.253-0.145-0.569-0.353-0.949-0.623
		c-0.018-0.055-0.054-0.082-0.107-0.082c-0.199-0.167-0.375-0.316-0.529-0.447c-0.117-0.096-0.221-0.182-0.313-0.258l-0.04-0.041
		c-0.038-0.046-0.074-0.091-0.108-0.135c-0.075-0.087-0.139-0.168-0.19-0.244c-0.02-0.022-0.038-0.045-0.054-0.068
		c-0.004-0.01-0.009-0.019-0.014-0.026l-0.108-0.19l-0.299,0.136c-0.181,0.072-0.325,0.153-0.434,0.244
		c-0.049,0.05-0.077,0.112-0.081,0.189v0.014c0.001,0.147,0.087,0.346,0.258,0.597v0.014l0.014,0.014
		c0.063,0.09,0.137,0.185,0.217,0.285c0.018,0.036,0.063,0.071,0.135,0.107c0.019,0.055,0.045,0.108,0.082,0.163
		c0.127,0.145,0.289,0.37,0.488,0.679c0.217,0.343,0.416,0.614,0.597,0.813c0.162,0.162,0.307,0.315,0.434,0.461l0.542,0.65h-0.04
		l-0.638-0.027c-0.08-0.018-0.157-0.04-0.23-0.067c-0.134-0.038-0.261-0.088-0.38-0.149h-0.014c-0.248-0.13-0.474-0.302-0.678-0.516
		c-0.271-0.234-0.497-0.461-0.678-0.678c-0.055-0.072-0.118-0.153-0.19-0.244c-0.071-0.09-0.126-0.162-0.162-0.217
		c-0.235-0.38-0.389-0.624-0.461-0.732l-0.461-0.786l-0.108-0.027c-0.091-0.018-0.181,0.036-0.271,0.163
		c-0.127,0.199,0.026,0.85,0.461,1.952c0.38,0.887,0.741,1.537,1.085,1.952c0.524,0.562,0.723,0.878,0.597,0.949
		c-0.108,0.091-0.362-0.035-0.76-0.379c-0.398-0.344-0.723-0.724-0.977-1.14c-0.108-0.198-0.334-0.551-0.678-1.058
		c-0.217-0.325-0.361-0.596-0.434-0.813l-0.407-1.139l-0.081-0.054c-0.072-0.019-0.145-0.019-0.217,0
		c-0.126,0.054-0.19,0.099-0.19,0.136c-0.054,0.09-0.045,0.28,0.028,0.569c0.09,0.397,0.515,1.328,1.274,2.793
		c0.058,0.131,0.121,0.267,0.189,0.406c-0.035-0.075-0.071-0.156-0.108-0.243c0.361,0.126,0.597,0.388,0.705,0.786
		c0.072,0.434-0.108,0.714-0.542,0.841h-0.136c-0.199,0.054-0.389,0.036-0.569-0.055c-0.019,0.036-0.109-0.019-0.271-0.163
		c-0.163-0.126-0.299-0.289-0.407-0.488c-0.397-1.519-0.724-3.055-0.977-4.609l0.38-0.244c0-0.163-0.027-0.371-0.081-0.624h-0.027
		c-0.019-0.181-0.019-0.533,0-1.058c0-0.162,0.009-0.289,0.027-0.38c0.019-0.036,0.027-0.081,0.027-0.136
		c0-0.054-0.009-0.107-0.027-0.162c0.036-0.199,0.072-0.353,0.108-0.461c0.036-0.182,0.108-0.316,0.217-0.407l0.108-0.081
		l-0.054,0.949c0,0.146-0.01,0.262-0.027,0.353c-0.072,0.397,0.027,0.94,0.298,1.627l0.027,0.027c0.019,0,0.046,0.018,0.081,0.054
		c0.037,0.037,0.082,0.055,0.136,0.055c0.037,0,0.218-0.072,0.543-0.217c-0.019-0.127-0.072-0.38-0.163-0.76
		c-0.108-0.217-0.153-0.687-0.136-1.41c0.036-0.162,0.036-0.298,0-0.406c0-0.452,0.027-0.732,0.082-0.841
		c0.036-0.073,0.126-0.172,0.271-0.299l0.271-0.162l-0.027,0.379c0,0.019,0.018,0.317,0.055,0.896c-0.019,0.235-0.019,0.497,0,0.786
		c0.018,0.597,0.207,1.185,0.569,1.763l0.407-0.081l0.379-0.325c0.036-0.108,0.01-0.263-0.081-0.462
		c-0.107-0.245-0.176-0.688-0.204-1.328c-0.006-0.11-0.01-0.228-0.013-0.353c-0.036-0.271,0.018-0.597,0.163-0.977
		c0.022-0.07,0.077-0.197,0.162-0.38l0.027-0.054c0.02-0.037,0.043-0.078,0.067-0.122c0.015-0.036,0.028-0.071,0.041-0.108
		l0.014-0.014l0.013-0.027c0.037-0.126,0.082-0.181,0.136-0.163c0.019,0,0.027,0.028,0.027,0.082
		c-0.011,0.101,0.003,0.376,0.041,0.827c0.01,0.15,0.023,0.317,0.04,0.502c0.017,0.165,0.035,0.346,0.055,0.542
		c0.091,0.507,0.244,0.958,0.461,1.356c0.072,0.162,0.163,0.289,0.271,0.379c0.021-0.011,0.076-0.038,0.162-0.081l0.041-0.014
		c0.049-0.028,0.107-0.06,0.177-0.095c0.198-0.108,0.334-0.208,0.406-0.299l-0.027-0.026c0.037-0.127,0.063-0.199,0.082-0.218
		v-0.054c0-0.036-0.019-0.136-0.055-0.298c-0.054-0.254-0.153-0.697-0.298-1.329l-0.027-0.068c-0.015-0.07-0.027-0.138-0.041-0.203
		c-0.006-0.016-0.011-0.029-0.014-0.041c-0.008-0.017-0.017-0.035-0.026-0.054c-0.146-0.568-0.218-1.07-0.218-1.505
		c0-0.254,0.046-0.479,0.136-0.679c0.127-0.253,0.218-0.451,0.271-0.596c0.091-0.398,0.172-0.633,0.244-0.706
		c0.108-0.271,0.217-0.325,0.325-0.162c0.072,0.055,0.108,0.126,0.108,0.217c0,0.072,0,0.172,0,0.298v0.082
		c-0.036,0.127-0.1,0.353-0.189,0.678c-0.018,0.217,0.036,0.588,0.163,1.112c0.018,0.253,0.099,0.65,0.244,1.193
		c0.054,0.451,0.207,0.994,0.461,1.627l1.003-0.841c0.126-0.055,0.153-0.217,0.081-0.488c-0.072-0.308-0.234-0.977-0.488-2.007
		c-0.09-0.362-0.145-0.777-0.162-1.247c0-0.036,0-0.082,0-0.136c0.018-0.199,0.045-0.443,0.081-0.732
		c0-0.091,0.009-0.181,0.027-0.271l0.271-1.166l0.135,0.217c0.127,0.182,0.19,0.353,0.19,0.516l0.055,0.081
		c0.126,0.325,0.162,0.76,0.108,1.302c-0.037,0.091-0.037,0.19,0,0.299c-0.037,0.09-0.037,0.162,0,0.217
		c0,0.018,0.054,0.226,0.162,0.624c0.217,0.723,0.425,1.256,0.624,1.6l0.189,0.271c0.055-0.055,0.118-0.1,0.189-0.136
		c0.091-0.019,0.263-0.117,0.516-0.299c0.289-0.198,0.434-0.316,0.434-0.353c0.109-0.035,0.145-0.181,0.109-0.434
		c-0.072-0.308-0.145-0.561-0.218-0.76c-0.289-1.283-0.452-2.251-0.487-2.901c0.018-0.289,0.099-0.65,0.244-1.085
		c0.181-0.415,0.307-0.588,0.379-0.515c0.072,0.072,0.146,0.235,0.217,0.487c0.019,0.127,0.082,0.371,0.189,0.732
		c0.109,0.361,0.344,1.519,0.706,3.472l2.115-1.573c-0.091-0.325-0.244-0.868-0.461-1.627c-0.009-0.024-0.019-0.052-0.027-0.081
		c-0.062-0.144-0.151-0.329-0.271-0.556c-0.082-0.157-0.177-0.334-0.285-0.529l-0.177-0.313c-0.01-0.012-0.019-0.025-0.027-0.04
		c-0.023-0.039-0.046-0.075-0.067-0.108c-0.3-0.509-0.458-0.897-0.475-1.166c0-0.052,0.004-0.102,0.014-0.149l0.014-0.095
		c0.033-0.161,0.101-0.297,0.203-0.407l0.108-0.108c0.038-0.028,0.079-0.056,0.122-0.081c0.253-0.198,0.497-0.227,0.732-0.082
		c0.14,0.103,0.248,0.233,0.325,0.394c0.032,0.072,0.06,0.148,0.081,0.23c0.036,0.127,0.1,0.389,0.19,0.787
		c0.162,0.524,0.361,1.094,0.597,1.708c0.325,0.832,0.515,1.229,0.569,1.193c0.06-0.036,0.331-0.253,0.813-0.651
		c0.241-0.206,0.54-0.459,0.895-0.759c-0.271-0.76-0.524-1.383-0.759-1.871c-0.145-0.344-0.253-0.787-0.326-1.329
		c-0.071-0.47-0.09-0.832-0.054-1.085c-0.002-0.019-0.002-0.037,0-0.054v-0.014c0-0.027,0-0.055,0-0.081l0.027-0.096
		c0.025-0.087,0.075-0.159,0.149-0.217c0.018-0.019,0.036-0.036,0.054-0.054h0.014c0.145-0.181,0.316-0.208,0.516-0.082
		C193.039,174.907,193.166,175.07,193.273,175.305z M196.148,172.756h0.027l0.027,0.027c0.018,0.036,0.045,0.072,0.081,0.108
		c0.181,0.217,0.425,0.578,0.731,1.085c0.163,0.289,0.354,0.642,0.57,1.057c-0.344,0.524-0.435,0.823-0.271,0.896
		c0.127,0.054,0.605,0.244,1.438,0.569c0.867,0.308,1.392,0.497,1.572,0.569c0.127,0.108,0.28,0.217,0.462,0.326l0.081,0.026
		c0.055,0.036,0.108,0.091,0.163,0.163c0.162,0.091,0.307,0.181,0.434,0.271c0.072,0.091,0.145,0.172,0.217,0.244
		c0.072,0.055,0.127,0.118,0.163,0.19c0.072,0.055,0.126,0.108,0.162,0.163c0.036,0.072,0.036,0.145,0,0.217
		c-0.071,0.054-0.188,0.1-0.353,0.135h-0.569c-0.146,0-0.315,0-0.517,0c-0.342-0.054-0.659-0.1-0.948-0.135l-0.813-0.244
		l-0.271-0.136c-0.127-0.055-0.254-0.108-0.38-0.163c-0.543-0.289-1.075-0.497-1.6-0.623c-0.235-0.055-0.443-0.082-0.624-0.082
		l-0.354-0.026l0.028-0.055c0.107-0.036,0.217-0.072,0.325-0.108h0.027c0.145-0.055,0.226-0.081,0.244-0.081
		c0.09-0.073,0.108-0.218,0.054-0.435c-0.126-0.361-0.244-0.714-0.353-1.058c-0.091-0.325-0.289-0.769-0.597-1.329
		c-0.036-0.09-0.072-0.18-0.108-0.271l-0.055-0.027c-0.018-0.072-0.035-0.117-0.054-0.136c-0.108-0.271-0.181-0.47-0.217-0.596
		c-0.055-0.235-0.027-0.543,0.081-0.923c0.055-0.108,0.108-0.208,0.163-0.298c0.054-0.182,0.117-0.244,0.189-0.19
		C195.325,171.906,195.606,172.195,196.148,172.756z M164.854,149.108c0.38,0.091,0.75,0.217,1.111,0.38h0.027
		c0.85,0.397,1.618,1.311,2.305,2.738c0.471,1.031,1.14,2.93,2.008,5.695c0,0.018,0,0.045,0,0.081l0.054,0.109l0.813,3.172
		c-1.808-3.869-3.562-7.349-5.261-10.44l-0.027-0.027L164.854,149.108z M149.301,165.664c0.013,0.047,0.026,0.093,0.041,0.136
		c0.153,0.587,0.303,1.16,0.447,1.722c0.032,0.122,0.063,0.243,0.095,0.366c0.019,0.074,0.037,0.146,0.055,0.218
		c0.014,0.051,0.027,0.101,0.04,0.148c0.063,0.253,0.127,0.501,0.19,0.746c0.021,0.106,0.043,0.21,0.067,0.312
		c0.748,3.121,1.287,5.941,1.613,8.462c0.021,0.012,0.021,0.03,0,0.054c0.021,0.155,0.039,0.309,0.055,0.461
		c0.003,0.021,0.007,0.038,0.014,0.055c0.008,0.067,0.018,0.136,0.027,0.203c0.326,2.799,0.381,5.208,0.162,7.228
		c-0.723,6.056-4.42,12.528-11.092,19.417c-0.351-0.459-0.726-0.979-1.125-1.56c-0.012-0.024-0.026-0.047-0.041-0.067
		c-0.051-0.072-0.101-0.146-0.148-0.217c-0.061-0.088-0.119-0.174-0.177-0.259c-0.081-0.121-0.163-0.243-0.244-0.366
		c-0.034-0.059-0.069-0.117-0.108-0.176c-0.989-1.515-2.102-3.354-3.335-5.519c-0.013-0.021-0.026-0.044-0.041-0.068
		c-0.551-0.962-1.125-1.988-1.722-3.078l15.81-7.376l-3.565-7.715c-0.021-0.03-0.034-0.062-0.041-0.096
		c-0.011-0.042-0.028-0.077-0.055-0.107l-9.898-21.452l9.004-4.203C146.929,157.574,148.253,161.818,149.301,165.664z
		 M163.335,215.657c0,0.019,0,0.036,0,0.055c-0.091,0.452-0.163,0.903-0.217,1.354l-1.248-4.717c1.826-1.395,3.86-2.396,6.103-3.013
		c3.94-1.085,7.99-0.771,12.148,0.949c-3.02,6.362-4.438,11.544-4.258,15.539c0.036,0.976,0.227,1.815,0.569,2.521
		c0.142,0.307,0.3,0.588,0.475,0.84c0.036,0.051,0.072,0.103,0.108,0.149c0.563,0.72,1.29,1.175,2.184,1.369
		c0.019,0,0.036,0.01,0.055,0.026c1.735,0.508,3.77-0.045,6.102-1.653c2.188-1.429,4.248-3.57,6.183-6.427
		c-0.741,1.48-1.708,2.893-2.901,4.229c-2.676,3.001-5.894,4.766-9.654,5.288c-1.718,0.233-3.625-0.262-5.723-1.491
		c-0.831-2.604-0.912-5.343-0.244-8.218h0.027c0.38-1.771,0.76-3.199,1.14-4.284v0.027l0.487-1.141
		c0.036-0.107,0.046-0.209,0.027-0.299c-0.018-0.106-0.063-0.199-0.136-0.271c-0.072-0.072-0.153-0.127-0.243-0.162
		c-0.294-0.09-0.588-0.181-0.882-0.271c-0.073-0.022-0.146-0.045-0.217-0.068l-1.478-0.447c-0.076-0.021-0.153-0.043-0.231-0.066
		l-7.01-2.129c-0.108-0.037-0.208-0.045-0.299-0.026c-0.108,0.019-0.198,0.063-0.271,0.136c-0.073,0.072-0.118,0.163-0.136,0.271
		L163.335,215.657z M158.765,210.328c0.031,0.095,0.063,0.189,0.096,0.285c0.307,0.955,0.641,2.115,1.003,3.484
		c0.07,0.274,0.143,0.561,0.218,0.854l-0.244-0.65c-0.426-1.63-0.828-2.891-1.207-3.781c-0.083-0.193-0.164-0.369-0.244-0.529
		c-0.022-0.049-0.046-0.094-0.067-0.137c-0.813-1.571-1.7-2.529-2.658-2.873c-1.266-0.615-2.576-0.442-3.932,0.516
		c-0.76,0.396-1.185,0.984-1.275,1.763c-0.289,0.958,0.253,1.689,1.628,2.196c0.551,0.229,1.106,0.41,1.667,0.542
		c0.041,0.01,0.082,0.019,0.122,0.026c0.921,0.203,1.856,0.274,2.807,0.218c0.031,0.003,0.063,0.003,0.095,0l0.015,0.026
		l0.121,0.517c-0.17-0.007-0.338-0.017-0.501-0.027c-0.055-0.003-0.109-0.008-0.163-0.014c-2.821-0.177-5.212-0.868-7.173-2.074
		c0.013-0.138,0.031-0.272,0.055-0.407c0.007-0.059,0.016-0.117,0.026-0.177c0.161-0.896,0.496-1.651,1.004-2.265
		c0.542-0.633,1.257-1.129,2.142-1.491h-0.026c0.886-0.36,1.718-0.506,2.494-0.435c1.339,0.146,2.351,0.832,3.038,2.063
		c0.222,0.391,0.466,0.96,0.732,1.708C158.608,209.87,158.686,210.092,158.765,210.328z M178.264,224.361
		c0.12-2.299,0.703-4.865,1.749-7.7l10.088,3.851c-1.302,1.973-2.648,3.617-4.04,4.938c-0.025,0.023-0.053,0.047-0.081,0.066
		c-0.075,0.074-0.151,0.147-0.231,0.217c-0.085,0.078-0.17,0.154-0.258,0.23c-0.41,0.363-0.827,0.698-1.247,1.003
		c-0.647,0.461-1.257,0.817-1.83,1.071c-0.056,0.023-0.109,0.046-0.163,0.068c-0.12,0.049-0.238,0.094-0.353,0.135
		c-0.492,0.164-0.953,0.246-1.383,0.244c-0.239,0-0.47-0.027-0.691-0.082c-0.013-0.004-0.026-0.008-0.041-0.014
		c-0.012-0.004-0.025-0.009-0.04-0.015c-0.043-0.015-0.084-0.026-0.123-0.04c-0.01-0.005-0.019-0.01-0.026-0.016
		c-0.011-0.004-0.02-0.008-0.027-0.014c-0.01-0.005-0.019-0.009-0.027-0.014s-0.019-0.01-0.027-0.014
		c-0.008-0.006-0.018-0.01-0.026-0.015c-0.01-0.006-0.019-0.01-0.027-0.015c-0.008-0.005-0.019-0.01-0.027-0.016
		c-0.008-0.004-0.018-0.008-0.027-0.014c-0.008-0.004-0.017-0.009-0.027-0.013c-0.008-0.006-0.017-0.011-0.026-0.015
		c-0.311-0.201-0.555-0.504-0.732-0.907c-0.11-0.239-0.196-0.515-0.258-0.828h-0.014c-0.008-0.039-0.017-0.08-0.026-0.121h0.013
		c-0.03-0.176-0.052-0.36-0.067-0.558h-0.014c0.002-0.027,0.002-0.056,0-0.08c0.001-0.012,0.001-0.024,0-0.041
		c-0.011-0.396-0.006-0.803,0.014-1.221C178.266,224.416,178.266,224.389,178.264,224.361z M126.128,167.413l-3.309,1.546
		l-1.682-4.149l3.092-1.464L126.128,167.413z M126.996,169.312l1.844,3.959l-3.444,1.628l-1.763-3.986L126.996,169.312z
		 M131.552,164.892l-3.553,1.654l-1.898-4.041l3.553-1.654L131.552,164.892z M133.423,164.023l-1.898-4.067l3.579-1.654l1.845,4.067
		L133.423,164.023z M134.29,165.922l3.526-1.654l1.871,3.986l-3.553,1.654L134.29,165.922z M132.42,166.79l1.844,3.986l-3.525,1.654
		l-1.871-3.986L132.42,166.79z M133.423,178.207l-1.816-3.933l3.552-1.627l1.817,3.905L133.423,178.207z M142.372,174.03
		l-3.525,1.627l-1.816-3.878l3.525-1.654L142.372,174.03z M139.999,178.193l-0.285-0.61l3.525-1.654l1.872,3.986l-3.553,1.654
		l-1.519-3.268L139.999,178.193z M129.734,175.169l1.817,3.905l-3.471,1.601l-1.872-3.851L129.734,175.169z M138.847,189.868
		l-1.816-3.905l3.552-1.654l1.817,3.905L138.847,189.868z M144.271,187.318l-1.817-3.878l3.525-1.654l1.817,3.933L144.271,187.318z
		 M135.158,186.83l1.817,3.905l-3.092,1.438l-2.007-3.797L135.158,186.83z M134.264,184.932l-3.39,1.573l-1.898-3.933l3.444-1.6
		L134.264,184.932z M134.29,180.105l3.554-1.654l1.844,3.986l-3.553,1.653L134.29,180.105z M141.059,147.424
		c-0.036,0-0.063-0.009-0.082-0.027c-0.922-0.397-2.305-0.172-4.148,0.678l-9.167,4.313c-0.026-0.063-0.045-0.117-0.054-0.163
		l0.217-0.162c-0.145-0.019-0.263,0.036-0.353,0.162c-0.055,0.109-0.081,0.189-0.081,0.244c-0.036-0.019-0.1-0.009-0.189,0.027
		c-0.091,0.036-0.136,0.018-0.136-0.055c0.072-0.09,0.117-0.271,0.136-0.542c0.018-0.145,0.045-0.253,0.081-0.325l-0.055,0.026
		c-0.055-0.035-0.081-0.071-0.081-0.108c-0.054,0.037-0.063,0.091-0.027,0.163c0,0.055-0.018,0.108-0.054,0.163
		c-0.17-0.016-0.364-0.043-0.583-0.082l9.884-4.637c2.242-1.031,3.933-1.266,5.072-0.705c0.903,0.289,1.663,1.111,2.277,2.468
		c0.019,0,0.027,0.009,0.027,0.026l0.813,2.116c0.036,0.126,0.036,0.262,0,0.406c-0.072,0.108-0.163,0.199-0.271,0.271
		l-24.922,11.579c-0.091,0.055-0.19,0.073-0.298,0.055c-0.108-0.019-0.199-0.063-0.271-0.136c-0.091-0.055-0.145-0.126-0.163-0.217
		l-0.515-1.519v-0.027c-1.031-3.345,0-5.74,3.091-7.187h-0.026l3.525-1.654c0.217,0.108,0.406,0.163,0.568,0.163
		c-0.035,0.108-0.026,0.226,0.028,0.353c0.034,0.051,0.11,0.15,0.23,0.298l-0.529,0.244c-0.121-0.078-0.257-0.132-0.407-0.162
		c-0.162-0.019-0.252,0.035-0.271,0.162c0.054-0.054,0.181-0.072,0.38-0.054c0.103,0.034,0.184,0.062,0.244,0.081l-3.281,1.546
		c-2.531,1.193-3.372,3.154-2.522,5.885l0.325,0.922l23.865-11.092l-0.598-1.654C142.252,148.256,141.69,147.641,141.059,147.424z
		 M344.922,295.332c-0.289,2.17-0.199,4.609,0.271,7.322c1.808-0.506,2.83-1.627,3.063-3.362
		C348.148,297.104,347.036,295.784,344.922,295.332z M347.172,287.143c6.22,5.297,7.295,11.246,3.229,17.844
		c2.803-6.002,1.455-11.189-4.041-15.564c-0.397,1.104-0.725,2.378-0.978,3.824l-0.188,0.055c0.091,0.02,0.146,0.026,0.163,0.026
		c0.07,0.034,0.145,0.045,0.217,0.026c3.02,0.795,4.601,2.604,4.746,5.424c-0.31,3.255-1.817,5.188-4.529,5.805
		c-0.054-0.02-0.091-0.012-0.108,0.025c0.361,1.394,0.823,2.838,1.386,4.338c-0.924-1.391-1.709-2.811-2.36-4.256l-89.735,1.084
		l89.085-3.092c-0.669-2.277-0.938-4.664-0.813-7.158l-95.403,6.103l-45.099,1.438l140.665-9.654c0.253-1.48,0.604-2.955,1.057-4.42
		l-179.769,13.723l-0.028-0.027l180.557-16.326c0.599-1.428,1.259-2.883,1.979-4.363L151.76,301.25
		c1.537,4.05,1.88,7.457,1.031,10.225l6.563-0.218l93.017,1.815l95.973-1.653c7.271-5.024,9.736-12.349,7.404-21.966
		c3.832,7.34,2.088,15.259-5.234,23.756c0.813,0.361,1.684,0.471,2.604,0.325c3.235-4.375,5.56-9.202,6.97-14.479
		c-0.036,4.446-1.212,8.633-3.523,12.557c3.396-2.856,5.505-7.367,6.316-13.532c-0.127-8.315-3.137-13.867-9.029-16.651
		C351.023,281.943,348.799,283.852,347.172,287.143z M354.115,319.251c-7.56,0.687-15.188,1.11-22.891,1.274
		c-6.199,0.072-12.457,0-18.767-0.217c-19.36-0.146-38.778-0.31-58.25-0.488c-12.224-0.198-24.452-0.442-36.69-0.732
		c-2.063-0.036-4.148-0.081-6.266-0.135c-2.643-0.073-5.314-0.118-8.025-0.137c-13.489-0.361-26.967-0.731-40.436-1.111
		c-9.601,0.036-19.092,0.154-28.475,0.354c-29.578,0.578-58.233,1.646-85.967,3.199c-0.344,0.832-0.75,1.6-1.22,2.305
		c-1.972,2.983-4.294,4.448-6.97,4.396c-2.64-0.072-4.827-1.672-6.563-4.8c-1.827-3.164-2.649-6.942-2.468-11.338
		c0.126-4.355,1.192-8.045,3.199-11.063c1.971-3.056,4.276-4.537,6.915-4.445c2.658,0.106,4.863,1.733,6.617,4.881
		c0.217,0.471,0.452,0.904,0.705,1.302c34.007-1.121,68.421-3.056,103.241-5.804c9.744-0.76,19.498-1.572,29.261-2.439
		c15.313-1.465,30.7-3.047,46.157-4.746c5.334-0.597,10.686-1.201,16.055-1.816c11.605-1.318,23.24-2.758,34.901-4.313
		c1.065-0.145,2.089-0.271,3.063-0.38l71.943-6.427c10.308,3.453,14.481,11.787,12.529,25.002
		C364.654,309.217,360.786,315.111,354.115,319.251z M45.26,304.391c-0.741-2.08-1.699-3.138-2.874-3.174
		c-0.851-0.054-1.646,0.553-2.387,1.816c0.94,2.423,1.139,4.691,0.597,6.808c-0.199-2.151-0.714-3.741-1.546-4.772
		c-0.615,1.846-0.958,3.949-1.03,6.318c-0.181,2.803,0.117,5.252,0.895,7.35c0.488,1.32,1.049,2.188,1.682,2.604
		c2.151-3.397,3.056-7.756,2.712-13.069c1.229,3.939,1.166,8.324-0.19,13.15c0.561-0.506,1.094-1.328,1.601-2.467
		c0.614-1.305,1.021-2.768,1.221-4.395l82.63-2.358c1.266-2.459,1.238-5.315-0.081-8.569l-80.461,3.717
		c-0.94,1.103-1.555,2.514-1.844,4.229c0.036-1.48-0.037-2.885-0.218-4.203C45.803,306.234,45.567,305.24,45.26,304.391z
		 M142.969,311.793c0.488-1.374,0.66-3.001,0.515-4.881c-0.108-1.465-0.397-3.074-0.867-4.827l-4.99,0.569
		c0.597,3.688,0.407,6.779-0.569,9.272L142.969,311.793z"/>
</g>
</svg>
