<?xml version="1.0" encoding="utf-8"?>
<!-- Generator: Adobe Illustrator 16.0.0, SVG Export Plug-In . SVG Version: 6.00 Build 0)  -->
<!DOCTYPE svg PUBLIC "-//W3C//DTD SVG 1.1//EN" "http://www.w3.org/Graphics/SVG/1.1/DTD/svg11.dtd">
<svg version="1.1" id="Layer_1" xmlns="http://www.w3.org/2000/svg" xmlns:xlink="http://www.w3.org/1999/xlink" x="0px" y="0px"
	 width="400px" height="400px" viewBox="0 0 400 400" enable-background="new 0 0 400 400" xml:space="preserve">
<g>
	<path fill-rule="evenodd" clip-rule="evenodd" fill="#720E28" d="M244.116,179.684c-1.37-1.003-2.8-1.947-4.284-2.838
		c-7.021-4.226-14.798-6.81-23.327-7.755c-8.51-0.926-16.707-0.1-24.594,2.475c-5.393,1.9-10.457,4.605-15.194,8.118H165.22
		c-4.089-3.109-8.178-6.218-12.266-9.326c-18.483-13.975-37.037-27.861-55.663-41.659l6.201-5.417
		c22.07,10.443,44.541,14.013,67.415,10.712c13.037-1.889,24.686-5.541,34.945-10.954c10.02,5.492,21.688,9.144,35.005,10.954
		c22.773,3.301,45.204-0.27,67.295-10.712l1.298,1.118l-20.491,17.382c-0.966,0.845-1.92,1.72-2.867,2.624
		c-11.044,10.18-22.099,20.23-33.163,30.147c-1.921,1.712-3.843,3.421-5.765,5.131H244.116z M103.403,118.214h-0.031l-0.663-0.364
		l-9.205,8.028c-1.229-0.989-2.463-1.97-3.696-2.943l11-9.612c0.342-0.321,0.754-0.502,1.238-0.543
		c0.442-0.061,0.883,0.021,1.326,0.241l2.052,1.026c0.02,0,0.051,0.01,0.091,0.031c21.063,10.26,42.438,13.861,64.125,10.803
		c12.555-1.79,23.708-5.38,33.466-10.772l-0.061,0.062l1.63-0.967c0.363-0.2,0.744-0.302,1.146-0.302
		c0.422,0,0.806,0.082,1.146,0.243l1.781,0.935c0,0.021,0.01,0.03,0.03,0.03c9.495,5.433,20.62,9.022,33.375,10.772
		c21.666,3.059,42.992-0.542,63.976-10.803c0-0.021,0.01-0.031,0.029-0.031l2.113-1.026c0.422-0.22,0.864-0.302,1.327-0.241
		c0.443,0.041,0.855,0.223,1.237,0.543l5.763,5.01l-3.575,3.033l-4.059-3.516l-0.755,0.364
		c-21.908,10.703-44.149,14.464-66.72,11.286c-13.359-1.891-24.998-5.664-34.915-11.316c-0.041,0-0.071-0.01-0.09-0.031
		l-0.604-0.302l-0.515,0.302c-0.021,0-0.03,0.011-0.03,0.031c-10.219,5.673-21.907,9.444-35.064,11.316
		C147.662,132.679,125.371,128.917,103.403,118.214z M287.843,199.902c5.185-3.555,10.365-7.117,15.542-10.683v93.517
		c-6.295-4.35-12.612-8.757-18.952-13.216v-67.295C285.569,201.448,286.706,200.676,287.843,199.902z M264.667,240.444
		c1.282-4.673,1.977-9.617,2.083-14.832c0.045-3.625-0.256-7.223-0.906-10.787c4.617-3.123,9.233-6.251,13.853-9.385v60.745
		c-1.659-1.167-3.319-2.339-4.979-3.516c-3.344-2.394-6.693-4.792-10.05-7.197V240.444z M223.688,280.113
		c1.671-0.401,3.33-0.885,4.979-1.451c4.778-1.678,9.152-3.845,13.128-6.501v62.389c-6.7,3.24-12.686,6.549-17.955,9.929
		c-0.041,0.04-0.092,0.081-0.151,0.121V280.113z M203.921,281.272c5.105,0.599,10.116,0.524,15.028-0.226v66.752
		c-5.492,3.902-9.877,7.775-13.157,11.617c-0.584-0.685-1.206-1.367-1.871-2.051V281.272z M199.184,280.535v72.362
		c-3.24-2.796-7.041-5.603-11.406-8.419c-0.643-0.402-1.308-0.815-1.992-1.237v-67.052c3.956,1.859,8.181,3.257,12.673,4.194
		C198.702,280.434,198.942,280.483,199.184,280.535z M179.869,272.93c0.391,0.247,0.784,0.488,1.178,0.724v66.752
		c-5.209-2.979-10.995-5.886-17.352-8.722v-46.999C169.04,280.771,174.43,276.853,179.869,272.93z M154.205,219.667
		c-0.081,0.946-0.138,1.893-0.166,2.838c-0.302,9.636,1.308,18.377,4.829,26.223c0.029,0.063,0.06,0.123,0.09,0.181v6.503
		c-5.005,4.136-10.014,8.246-15.027,12.328v-53.956C147.356,215.751,150.782,217.711,154.205,219.667z M309.962,223.078
		c0.604,3.46,1.088,6.478,1.448,9.053c1.51,10.079,2.265,19.122,2.265,27.129c0,10.522-1.328,19.798-3.983,27.821
		c-0.533-0.364-1.065-0.731-1.601-1.1V213.24C308.815,216.842,309.439,220.12,309.962,223.078z M312.92,185.207
		c0.101,3.52,1.137,10.371,3.108,20.55c1.347,6.678,2.443,12.453,3.29,17.321c0.502,2.936,0.905,5.543,1.205,7.816
		c1.51,10.479,2.304,19.936,2.385,28.365c-0.035,12.704-1.766,23.81-5.19,33.314c-1.346-0.918-2.694-1.838-4.043-2.76
		c3.037-8.751,4.576-18.924,4.617-30.524v-0.03c-0.081-8.188-0.855-17.433-2.324-27.733c-0.342-2.454-0.795-5.27-1.357-8.448
		c-0.806-4.668-1.831-10.14-3.079-16.417v-0.029c-1.98-10.064-3.054-17.005-3.213-20.823c1.551-1.068,3.1-2.141,4.646-3.212
		c-0.028,0.748-0.044,1.486-0.044,2.217C312.92,184.934,312.92,185.066,312.92,185.207z M246.531,275.059
		c4.481,2.8,8.948,5.605,13.398,8.417v43.199c-4.729,1.831-9.193,3.722-13.398,5.672V275.059z M181.047,345.837
		c1.468,0.864,2.887,1.729,4.256,2.595c0.161,0.101,0.322,0.212,0.483,0.333c5.411,3.459,9.877,6.929,13.398,10.41
		c1.851,1.791,3.43,3.58,4.737,5.371c0.343,0.443,0.654,0.886,0.937,1.329v-0.03l0.935,1.327l1.057-1.419
		c2.735-4.043,6.77-8.106,12.101-12.19c1.469-1.126,3.048-2.244,4.738-3.351c0.863-0.604,1.761-1.196,2.686-1.78
		c4.606-2.937,9.748-5.814,15.421-8.63c1.528-0.765,3.107-1.53,4.737-2.293c4.205-1.974,8.67-3.903,13.398-5.795
		c1.568-0.624,3.147-1.248,4.737-1.871c4.204-1.63,8.621-3.229,13.248-4.798c0.623-0.201,1.216-0.412,1.781-0.635
		c1.629-0.604,3.207-1.257,4.736-1.96c6.728-3.114,12.445-7.174,17.156-12.177c1.359,0.888,2.719,1.779,4.073,2.67
		c-0.739,0.809-1.498,1.593-2.277,2.354c-5.272,5.069-11.588,9.145-18.952,12.223c-1.529,0.663-3.107,1.268-4.736,1.81
		c-0.082,0.042-0.171,0.072-0.272,0.092c-5.171,1.77-10.09,3.57-14.757,5.401c-1.59,0.603-3.169,1.237-4.737,1.901
		c-4.748,1.911-9.214,3.882-13.398,5.913c-1.63,0.766-3.209,1.539-4.737,2.325c-4.708,2.395-9.023,4.838-12.947,7.331
		c-1.829,1.188-3.549,2.365-5.159,3.531c-1.71,1.229-3.29,2.465-4.738,3.712c-3.54,2.999-6.327,5.976-8.359,8.935
		c-0.02,0-0.03,0.029-0.03,0.089l-2.928,3.982c-0.32,0.404-0.712,0.676-1.175,0.816c-0.483,0.16-0.957,0.16-1.418,0
		c-0.483-0.182-0.865-0.464-1.146-0.846l-2.838-4.042c-0.563-0.807-1.188-1.62-1.871-2.445c-3.178-3.882-7.645-7.798-13.398-11.739
		c-0.946-0.664-1.932-1.327-2.958-1.993c-0.583-0.36-1.177-0.724-1.781-1.085c-5.149-3.158-10.933-6.257-17.352-9.294
		c-1.548-0.725-3.128-1.439-4.738-2.143c-4.707-2.094-9.717-4.145-15.027-6.156c-1.548-0.582-3.129-1.166-4.738-1.75
		c-2.233-0.804-4.517-1.62-6.85-2.444c-2.273-0.765-4.456-1.609-6.549-2.535c-1.648-0.725-3.228-1.498-4.737-2.323
		c-2.058-1.116-4.015-2.324-5.869-3.622c1.325-1.015,2.653-2.03,3.983-3.048c0.619,0.413,1.248,0.817,1.886,1.207
		c1.509,0.906,3.089,1.782,4.737,2.626c2.516,1.247,5.19,2.354,8.028,3.319h0.031c1.831,0.624,3.611,1.257,5.341,1.9
		c1.608,0.544,3.189,1.117,4.738,1.721c5.311,1.971,10.321,3.982,15.027,6.035c1.61,0.724,3.189,1.438,4.738,2.142
		C170.073,339.762,175.856,342.758,181.047,345.837z M264.667,286.479c5.026,3.186,10.037,6.385,15.029,9.596v23.327
		c-1.067,0.422-2.154,0.834-3.261,1.235c-4.083,1.391-8.007,2.788-11.769,4.196V286.479z M284.433,317.198v-18.075
		c4.381,2.822,8.746,5.655,13.097,8.494C293.805,311.413,289.438,314.607,284.433,317.198z M95.586,205.757
		c1.106-5.633,1.942-10.21,2.505-13.732c0.208-1.393,0.385-2.619,0.527-3.681c0.74,0.411,1.488,0.824,2.249,1.237
		c0.694,0.381,1.388,0.765,2.081,1.146c-0.039,0.265-0.08,0.536-0.12,0.816c-0.583,3.742-1.479,8.771-2.686,15.088v0.029
		c-0.765,3.863-1.45,7.424-2.052,10.683c-0.363,2.031-0.704,3.943-1.026,5.734c-0.563,3.179-1.016,5.994-1.359,8.448
		c-1.487,10.28-2.232,19.524-2.232,27.733c0,11.688,1.539,21.948,4.617,30.78c1.308,3.721,2.887,7.182,4.737,10.381
		c0.03,0.053,0.061,0.103,0.09,0.15c-1.271,1.005-2.542,2.004-3.816,3.003c-0.344-0.589-0.682-1.188-1.011-1.795
		c-6.155-11.286-9.234-25.459-9.234-42.52c0-8.389,0.743-17.845,2.232-28.365v-0.062c0.322-2.253,0.745-4.838,1.267-7.755
		C93.183,218.21,94.258,212.435,95.586,205.757z M107.28,193.112c4.608,2.549,9.2,5.111,13.776,7.68v85.401
		c-4.8,3.837-9.602,7.649-14.409,11.436c-1.46-2.552-2.732-5.284-3.818-8.192v-72.394c0.543-2.958,1.157-6.157,1.84-9.597
		C105.828,201.634,106.698,196.855,107.28,193.112z M125.793,203.447c4.483,2.528,8.949,5.064,13.399,7.605v60.549
		c-4.462,3.622-8.93,7.225-13.399,10.805V203.447z M143.93,299.274c4.973-3.704,9.981-7.411,15.027-11.12v41.478
		c-4.707-2.033-9.717-4.003-15.027-5.915V299.274z M135.3,320.638c-3.401-1.187-6.569-2.595-9.507-4.225v-3.545
		c4.436-3.352,8.903-6.706,13.399-10.063v19.191C137.905,321.534,136.608,321.081,135.3,320.638z M179.869,272.93
		c-2.868-1.818-5.573-3.922-8.115-6.307c-5.282-5.084-9.548-10.987-12.796-17.715c-0.03-0.058-0.061-0.118-0.09-0.181
		c-3.521-7.846-5.13-16.587-4.829-26.223c0.028-0.945,0.085-1.892,0.166-2.838c0.171-1.954,0.458-3.915,0.86-5.884
		c0.283-1.395,0.626-2.792,1.026-4.194c0.117-0.413,0.239-0.824,0.361-1.236c0.458-1.459,0.976-2.923,1.556-4.392
		c0.171-0.426,0.347-0.854,0.527-1.282c0.023-0.055,0.049-0.108,0.075-0.167c1.859-4.338,4.147-8.3,6.866-11.89
		c1.303-1.709,2.701-3.333,4.195-4.873c0.514-0.509,1.033-1.007,1.554-1.494c1.781-1.651,3.613-3.175,5.492-4.571
		c4.737-3.513,9.801-6.218,15.194-8.118c7.887-2.574,16.084-3.401,24.594-2.475c8.529,0.945,16.307,3.529,23.327,7.755
		c1.484,0.891,2.914,1.835,4.284,2.838c0.558,0.407,1.107,0.824,1.646,1.251c1.48,1.17,2.889,2.407,4.225,3.713
		c1.001,0.977,1.961,1.993,2.882,3.046c0.288,0.334,0.575,0.67,0.86,1.011c0.953,1.154,1.863,2.352,2.73,3.592
		c0.305,0.448,0.607,0.9,0.906,1.357c1.801,2.75,3.39,5.708,4.768,8.873c0.492,1.167,0.944,2.339,1.358,3.515
		c1.024,2.905,1.809,5.833,2.353,8.783c0.65,3.564,0.951,7.162,0.906,10.787c-0.106,5.215-0.801,10.159-2.083,14.832
		c-1.601,5.84-4.113,11.256-7.545,16.252c-4.185,6.281-9.293,11.437-15.328,15.465c-3.976,2.656-8.35,4.823-13.128,6.501
		c-1.648,0.566-3.308,1.05-4.979,1.451c-1.57,0.383-3.149,0.694-4.738,0.934c-4.912,0.75-9.923,0.824-15.028,0.226
		c-1.568-0.185-3.15-0.431-4.737-0.737c-0.241-0.052-0.481-0.102-0.725-0.151c-4.493-0.938-8.718-2.335-12.673-4.194
		c-1.625-0.771-3.204-1.614-4.739-2.536C180.653,273.418,180.26,273.177,179.869,272.93z M263.52,232.824
		c1.549-8.44,0.77-16.845-2.339-25.212c-0.206-0.549-0.424-1.098-0.647-1.645l-1.208-2.053c-0.2-0.18-0.271-0.573-0.211-1.178
		c-0.102-0.281-0.401-0.583-0.905-0.903c-0.22-0.161-0.362-0.433-0.422-0.816h-0.062c-0.099-0.181-0.372-0.22-0.813-0.12
		c-0.183,0.12-0.343,0.161-0.483,0.12c-0.101,0-0.17-0.051-0.211-0.15c0.041-1.69-0.191-2.644-0.693-2.867
		c-0.281,0-0.654,0.302-1.118,0.906c-0.401,0.583-0.783,0.734-1.146,0.453c-0.36-0.182-0.522-0.905-0.481-2.172
		c0-0.024,0-0.049,0-0.076c0.032-0.526-0.039-0.943-0.212-1.252c-0.07-0.077-0.15-0.143-0.24-0.197
		c-0.21-0.11-0.471-0.167-0.786-0.167c-0.259-0.038-0.44,0.382-0.543,1.253c-0.012,0.072-0.021,0.146-0.03,0.226
		c-0.08,0.443-0.191,0.755-0.333,0.937c-0.139,0.179-0.301,0.209-0.481,0.089h-0.061c-0.048,0-0.129-0.105-0.241-0.317
		c-0.132-0.229-0.304-0.587-0.514-1.07c-0.583-1.456-1.112-2.446-1.584-2.973c-0.196-0.212-0.382-0.35-0.559-0.408
		c-0.281-0.081-0.513-0.051-0.693,0.092c-0.141,0.141-0.23,0.411-0.271,0.814l-0.543,1.507c-0.141,0.282-0.332,0.443-0.573,0.483
		c-0.105,0.019-0.217,0.01-0.332-0.03c-0.124-0.045-0.257-0.125-0.393-0.241c-0.132-0.184-0.183-0.461-0.15-0.832
		c0.017-0.2,0.058-0.426,0.121-0.678c-0.038-1.835-0.678-2.895-1.918-3.183c-0.091-0.017-0.188-0.033-0.286-0.045
		c-0.175-0.013-0.387,0.268-0.635,0.845c-0.121,0.279-0.252,0.63-0.392,1.056c-0.141,0.522-0.322,0.874-0.542,1.056
		c-0.223,0.141-0.514,0.11-0.876-0.09c-0.102-0.066-0.187-0.146-0.256-0.243c-0.235-0.354-0.251-0.917-0.046-1.689
		c-0.039-2.053-0.884-3.127-2.535-3.228c-0.027,0-0.059,0-0.09,0c-0.246-0.025-0.438,0.171-0.573,0.587
		c-0.082,0.271-0.143,0.627-0.182,1.072c-0.161,0.504-0.341,0.866-0.543,1.088c-0.182,0.159-0.433,0.189-0.755,0.09
		c-0.119-0.075-0.237-0.282-0.361-0.619c-0.108-0.287-0.221-0.675-0.333-1.163c-0.301-2.111-1.166-3.178-2.595-3.198
		c-0.281,0-0.473,0.071-0.573,0.211c-0.08,0.142-0.069,0.392,0.03,0.755c-0.201,1.61-0.665,2.374-1.389,2.293
		c-0.241-0.041-0.472-0.704-0.693-1.992c-0.333-1.321-0.816-2.237-1.449-2.746c-0.392-0.322-0.845-0.483-1.358-0.483
		c-0.198-0.01-0.383,0.15-0.559,0.483c-0.155,0.305-0.301,0.758-0.436,1.357c-0.263,1.105-0.695,1.64-1.299,1.599h-0.029
		c-0.344-0.078-0.534-0.409-0.573-0.995c-0.102-0.402-0.171-0.926-0.212-1.569c0-0.137-0.01-0.268-0.03-0.392
		c-0.141-1.085-0.916-1.71-2.324-1.873c-0.401-0.039-0.793,0.573-1.177,1.842c-0.002,0.011-0.007,0.021-0.014,0.031
		c-0.122,0.37-0.258,0.665-0.408,0.889c-0.288,0.431-0.632,0.587-1.025,0.468h-0.061c-0.322-0.039-0.453-0.433-0.392-1.177
		c0.007-0.051,0.012-0.11,0.014-0.18c0.023-0.293,0.019-0.757-0.014-1.389c-0.062-0.684-0.343-1.116-0.847-1.298
		c-1.045-0.501-1.71-0.501-1.991,0c-0.32,1.126-0.684,1.942-1.086,2.445c-0.088,0.097-0.178,0.176-0.271,0.242
		c-0.317,0.22-0.669,0.259-1.057,0.121c-0.068-0.031-0.128-0.07-0.182-0.121c-0.188-0.195-0.26-0.546-0.211-1.057
		c0.18-1.689-0.051-2.626-0.693-2.808c-0.786-0.2-1.338,0.021-1.661,0.665c-0.362,0.704-0.683,1.216-0.965,1.539
		c-0.726,0.824-1.259,1.218-1.6,1.177h-0.061c-0.262-0.061-0.402-0.251-0.423-0.573c-0.041-0.322,0.062-0.755,0.302-1.297
		c0.221-0.604,0.313-1.087,0.271-1.449c-0.041-0.363-0.201-0.543-0.483-0.543c-1.186-0.143-1.921,0.039-2.203,0.543
		c-0.221,0.604-0.41,1.157-0.571,1.659c-0.363,0.865-0.725,1.278-1.087,1.237c-0.584-0.222-0.814-0.885-0.694-1.991
		c0.141-1.289,0.011-1.962-0.394-2.023c-0.643-0.18-1.285,0.283-1.93,1.389c-0.542,1.206-1.167,1.709-1.87,1.507
		c-0.463-0.179-0.594-0.704-0.394-1.568c0.122-0.885-0.019-1.418-0.42-1.6c-0.786-0.22-1.379,0.292-1.781,1.541
		c-0.423,1.467-0.937,2.242-1.541,2.324c-0.402,0.039-0.653-0.092-0.753-0.394c-0.141-0.241-0.141-0.643,0-1.206
		c0.18-0.543,0.251-0.957,0.21-1.238c-0.04-0.323-0.182-0.502-0.422-0.543c-0.945-0.121-1.579,0.141-1.901,0.785
		c-0.16,1.508-0.643,2.404-1.449,2.685c-0.241,0.162-0.433,0.182-0.573,0.061c-0.141-0.141-0.21-0.424-0.21-0.847
		c-0.181-0.965-0.473-1.397-0.875-1.295l-0.847,0.271c-0.542,0.22-0.773,0.593-0.694,1.116c0,0.945,0,1.469,0,1.569
		c-0.008,0.13-0.023,0.252-0.044,0.363c-0.056,0.285-0.152,0.5-0.287,0.648c-0.039,0.041-0.078,0.076-0.12,0.105
		c-0.243,0.181-0.565,0.181-0.967,0v0.062c-0.206-0.155-0.336-0.426-0.392-0.814c-0.014-0.068-0.024-0.138-0.031-0.212
		c-0.181-0.683-0.412-1.036-0.694-1.057c-0.261-0.141-0.673-0.049-1.237,0.272c-0.536,0.426-0.882,0.758-1.042,0.997
		c-0.019,0.02-0.032,0.041-0.044,0.059c0.724,1.227,0.673,2.254-0.151,3.079l-0.603,0.272c-0.241-0.041-0.504-0.382-0.786-1.027
		c-0.321-0.824-0.753-1.206-1.296-1.146c-0.463,0.182-0.765,0.453-0.906,0.814c-0.181,0.404-0.171,0.905,0.03,1.509
		c0.028,0.124,0.053,0.245,0.075,0.361c0.153,0.941-0.013,1.554-0.499,1.842c-0.22,0.08-0.492-0.212-0.814-0.875
		c-0.422-0.704-0.844-0.936-1.267-0.694c-1.448,0.764-2.083,1.539-1.901,2.322c0.221,0.424,0.443,0.856,0.664,1.299
		c0.201,0.502,0.161,0.855-0.121,1.056c-0.282,0.181-0.633,0.081-1.057-0.302c-0.502-0.322-0.904-0.361-1.206-0.121
		c-0.431,0.197-0.768,0.433-1.011,0.709c-0.378,0.447-0.524,0.994-0.438,1.645c0.543,0.825,0.694,1.347,0.454,1.569v0.061
		c-0.162,0.2-0.483,0.272-0.967,0.21c-0.543-0.041-0.955,0.12-1.237,0.483c-0.502,0.704-0.704,1.206-0.604,1.508v0.061
		c0.243,0.281,0.423,0.542,0.542,0.784h-0.059c0.22,0.263,0.271,0.493,0.15,0.695c-0.745-0.182-1.238-0.232-1.479-0.15
		c-0.725,0.319-1.339,1.105-1.84,2.354c-0.082,0.402,0.059,0.814,0.422,1.237c0.443,0.401,0.604,0.714,0.481,0.936
		c-0.738,0.17-1.316,0.352-1.735,0.543c-0.025,0.009-0.049,0.019-0.075,0.03c-0.292,0.171-0.532,0.504-0.724,0.994
		c-0.157,0.426-0.278,0.971-0.363,1.63c-0.06,0.222-0.06,0.403,0,0.545c0.102,0.141,0.283,0.271,0.544,0.392v-0.062
		c0.422,0.282,0.633,0.555,0.633,0.816c-0.925,0.281-1.528,0.532-1.81,0.753c-0.105,0.115-0.202,0.258-0.287,0.424
		c-0.166,0.295-0.302,0.672-0.407,1.131c-0.076,0.333-0.136,0.711-0.182,1.132c-0.04,0.382,0.251,0.663,0.875,0.845
		c0.704,0.363,0.986,0.704,0.845,1.026c-0.142,0.24-0.392,0.332-0.755,0.271l-0.965,0.061c-0.346,0.082-0.622,0.349-0.829,0.799
		c-0.052,0.095-0.097,0.2-0.136,0.317c-0.202,0.643-0.182,1.167,0.06,1.569v0.03c0.102,0.161,0.422,0.271,0.967,0.332
		c0.461-0.061,0.753,0.08,0.874,0.423c0.061,0.262-0.231,0.532-0.874,0.813c-0.686,0.323-1.057,0.876-1.118,1.661
		c-0.121,0.944-0.049,1.538,0.212,1.779c0.965,0.141,1.428,0.514,1.388,1.116c-0.745,0.685-1.267,1.207-1.569,1.57
		c-0.281,0.361-0.292,1.075-0.03,2.143c0.102,0.281,0.422,0.442,0.966,0.481c0.604,0.122,0.955,0.353,1.055,0.695
		c-0.059,0.361-0.361,0.835-0.904,1.418c-0.504,0.745-0.645,1.328-0.422,1.751c0.1,0.302,0.563,0.411,1.388,0.332
		c0.463-0.041,0.804,0.19,1.026,0.693c-0.463,0.725-0.786,1.268-0.967,1.629c-0.32,0.604-0.271,1.269,0.151,1.992
		c0.201,0.384,0.544,0.505,1.026,0.362c0.049-0.021,0.1-0.04,0.15-0.06c0.484-0.062,0.796,0.03,0.937,0.271l-0.182,1.509
		c-0.182,1.57,0.212,2.666,1.177,3.29c0.261,0.18,0.625,0.09,1.086-0.273c0.404-0.461,0.775-0.553,1.118-0.271h-0.031
		c0.241,0.281,0.292,0.977,0.151,2.082c-0.241,1.047-0.121,1.73,0.361,2.053h0.062c0.402,0.06,0.632-0.191,0.693-0.755
		c0.041-0.502,0.263-0.865,0.664-1.085c0.383-0.182,0.755-0.123,1.118,0.179c0.023,0.043,0.039,0.124,0.044,0.243
		c0.027,0.278,0.012,0.772-0.044,1.478c-0.243,2.173,0.281,3.46,1.568,3.863c0.241,0.039,0.474-0.332,0.694-1.115
		c0.363-0.826,0.775-1.159,1.238-0.998c0.14,0.102,0.265,0.404,0.377,0.906c0.059,0.282,0.113,0.636,0.166,1.056
		c0.141,2.112,0.725,3.289,1.75,3.53c0.302,0.04,0.482-0.23,0.543-0.813c-0.101-0.825-0.041-1.397,0.181-1.721
		c0.2-0.322,0.573-0.392,1.116-0.212c0.504,0.081,0.704,0.624,0.604,1.63c0.341,2.495,1.105,3.803,2.293,3.923
		c0.281-0.081,0.463-0.441,0.542-1.085v-0.062c-0.08-0.503-0.08-1.016,0-1.539c0.182-0.725,0.522-1.065,1.026-1.026
		c0.604,0.102,0.834,0.765,0.693,1.993v0.03c0.182,0.804,0.545,1.62,1.087,2.443c0.311,0.434,0.612,0.769,0.906,1.011
		c0.471,0.404,0.914,0.551,1.327,0.438c0.322-0.041,0.483-0.192,0.483-0.453c0-0.228-0.141-0.534-0.422-0.921
		c-0.02-0.023-0.041-0.05-0.061-0.075c-0.704-1.187-1.076-2.104-1.116-2.745c-0.039-0.646,0.261-1.077,0.906-1.299
		c0.402-0.081,0.694,0.081,0.875,0.482c0.181,0.686,0.341,1.098,0.483,1.238c0.196,0.456,0.393,0.878,0.586,1.268
		c1.226,2.398,2.429,3.425,3.608,3.078h0.029c0.222-0.141,0.312-0.322,0.271-0.543c-0.019-0.242-0.201-0.545-0.542-0.905
		c-0.704-1.107-1.057-2.002-1.057-2.688c-0.012-0.206,0.013-0.394,0.076-0.558c0.117-0.349,0.394-0.605,0.83-0.77
		c0.106-0.021,0.212-0.025,0.317-0.014c0.277,0.035,0.533,0.202,0.771,0.497c0.182,0.664,0.322,1.076,0.422,1.238
		c0.604,1.467,1.065,2.534,1.388,3.198c0.786,1.146,1.74,1.528,2.866,1.146c0.282-0.119,0.282-0.663,0-1.629v-0.03
		c-0.804-0.966-1.277-1.761-1.417-2.384c-0.101-0.644,0.121-1.065,0.663-1.268c0.183-0.183,0.373-0.183,0.575,0
		c0.179,0.16,0.382,0.514,0.602,1.056c0.885,2.434,1.832,3.711,2.837,3.834c0.402,0.019,0.945-0.062,1.63-0.242
		c0.704-0.162,1.055-0.392,1.055-0.694c0.082-0.504-0.401-1.398-1.448-2.686c-0.361-0.686-0.522-1.218-0.481-1.6
		c0.039-0.321,0.271-0.533,0.693-0.634c0.502-0.082,0.935,0.473,1.298,1.661c0.115,0.205,0.23,0.402,0.346,0.587
		c1.313,2.079,2.616,2.757,3.908,2.036c0.282-0.101,0.424-0.281,0.424-0.542c0-0.241-0.142-0.543-0.424-0.905
		c-0.726-0.895-1.208-1.633-1.446-2.22c-0.026-0.044-0.046-0.09-0.062-0.134c-0.182-0.583-0.071-0.987,0.332-1.207
		c0.321-0.182,0.694-0.092,1.116,0.271c0.03,0.026,0.062,0.055,0.09,0.089c0.402,0.376,0.855,1.009,1.358,1.901
		c1.147,1.549,2.596,2.032,4.346,1.449c0.282-0.101,0.442-0.293,0.483-0.574c0.039-0.261-0.051-0.602-0.272-1.025
		c-0.248-0.257-0.483-0.522-0.709-0.799c-0.294-0.352-0.57-0.72-0.83-1.103c-0.261-0.522-0.371-0.965-0.332-1.326
		c0.04-0.323,0.222-0.556,0.545-0.696c0.642-0.18,1.175,0.122,1.599,0.906c0.904,2.434,1.95,3.651,3.138,3.651l1.178-0.422
		c1.064-0.281,1.689-0.553,1.871-0.816c0.182-0.241,0.039-0.673-0.423-1.297v0.062c-0.118-0.276-0.495-0.879-1.131-1.81
		c-0.018-0.021-0.032-0.042-0.046-0.062c-0.182-0.402-0.271-0.745-0.271-1.026c0.019-0.241,0.18-0.453,0.481-0.634
		c0.645-0.443,1.339,0.021,2.083,1.389l0.814,1.448c0.321,0.684,0.685,1.047,1.087,1.086c0.241,0.04,0.775-0.11,1.6-0.453
		c1.186-0.2,1.81-0.571,1.87-1.116c0.004-0.032,0.004-0.068,0-0.104c-0.005-0.081-0.024-0.17-0.061-0.272
		c-0.136-0.381-0.488-0.898-1.057-1.555c-0.684-0.824-0.935-1.468-0.753-1.931c0.221-0.543,0.542-0.795,0.965-0.755
		c0.402,0.101,0.865,0.514,1.389,1.238v-0.062c0.321,0.685,0.522,1.228,0.603,1.63c0.423,0.846,0.835,1.288,1.238,1.329
		c0.282,0.141,0.814,0,1.6-0.425c0.18-0.12,0.522-0.281,1.026-0.48l0.059,0.059v-0.059c0.282-0.364,0.102-1.119-0.542-2.265
		c-0.543-0.925-0.543-1.608,0-2.051c0.542-0.283,1.006-0.264,1.387,0.06c0.442,0.362,0.786,1.076,1.026,2.144l0.271,0.964v0.061
		c0.264,0.281,0.875,0.213,1.841-0.211c0.825-0.181,1.248-0.521,1.269-1.025v-0.062l-0.363-1.538
		c-0.139-1.146,0.051-1.83,0.573-2.053c0.014-0.003,0.028-0.003,0.046,0c0.407-0.071,0.829,0.251,1.267,0.967
		c0.225,0.354,0.452,0.808,0.679,1.357c-0.06,0.522,0.122,0.804,0.545,0.844c0.574,0.089,1.082,0.05,1.524-0.119
		c0.166-0.065,0.322-0.145,0.467-0.241c0.724-0.443,1.047-0.987,0.967-1.63v-0.031c0.039-0.261-0.102-0.734-0.425-1.418
		c-0.079-0.503,0.082-0.845,0.483-1.025c0.646-0.162,1.086,0.251,1.328,1.238c0.443,1.145,0.855,1.669,1.237,1.568
		c1.55-0.645,2.344-1.167,2.385-1.568c-0.027-0.593-0.158-1.293-0.394-2.099c-0.114-0.402-0.255-0.83-0.423-1.282
		c-0.08-0.363,0.131-0.635,0.635-0.813c0.865,0,1.459,0.954,1.781,2.866c0.32,0.703,0.532,1.055,0.634,1.055
		c0.824,0.122,1.306-0.481,1.446-1.81c0-0.604,0.092-1.067,0.272-1.388c0.122-0.302,0.342-0.433,0.665-0.394
		c0.24-0.039,0.432,0.03,0.573,0.212c0.141,0.141,0.23,0.412,0.271,0.814c0.141,0.824,0.36,1.238,0.663,1.238
		c0.321,0.039,0.573-0.071,0.754-0.333c0.141-0.201,0.213-0.573,0.213-1.115c0.141-1.108,0.392-1.722,0.755-1.843
		c0.24-0.02,0.411,0.071,0.512,0.271c0.161,0.222,0.251,0.544,0.271,0.967c0.04,0.783,0.19,1.197,0.452,1.236
		c0.382,0.182,0.756-0.171,1.116-1.055c0.242-0.967,0.493-1.51,0.755-1.63c0.384-0.062,0.725,0.23,1.026,0.875h0.031
		c0.115,0.025,0.246,0.01,0.392-0.046c0.186-0.078,0.396-0.224,0.634-0.438c0.262,0.061,0.533,0.292,0.814,0.693h0.12
		c0.383-0.22,0.645-0.924,0.785-2.111C262.907,236.979,263.32,234.978,263.52,232.824z M215.872,178.658
		c0.06,0.181,0.019,0.412-0.122,0.694c-0.063,0.119-0.117,0.229-0.165,0.333c-0.206,0.451-0.251,0.743-0.136,0.875
		c0.743,0.341,1.549,0.231,2.414-0.332c0.303-0.237,0.59-0.417,0.86-0.542c0.473-0.215,0.9-0.267,1.282-0.151
		c0.114,0.041,0.217,0.092,0.302,0.151c0.283,0.195,0.394,0.487,0.332,0.875c-0.141,0.201-0.232,0.372-0.271,0.513
		c0,0.181,0.06,0.333,0.18,0.453c0.504,0.323,1.108,0.241,1.812-0.241c0.804-0.383,1.398-0.554,1.781-0.514
		c0.461,0.182,0.674,0.504,0.633,0.967c-0.06,0.522,0.03,0.865,0.271,1.026c1.407,0.562,2.254,0.723,2.536,0.482
		c0.542-0.08,1.276-0.323,2.201-0.725c0.463,0.082,0.734,0.353,0.815,0.814c-0.081,0.544,0.01,0.906,0.271,1.087
		c0.645,0.322,1.308,0.392,1.991,0.212c0.927-0.544,1.569-0.675,1.932-0.394c0.321,0.302,0.413,0.614,0.272,0.936
		c-0.004,0.011-0.011,0.021-0.017,0.031c-0.208,0.505-0.244,0.828-0.104,0.965c0.965,0.765,2.042,1.076,3.229,0.935
		c0.438-0.189,0.799-0.32,1.086-0.392c0.325-0.074,0.556-0.074,0.693,0c0.343,0.181,0.714,0.664,1.116,1.448l0.061,0.062
		c0.604,0.221,1.438,0.19,2.506-0.091c0.385,0.256,0.705,0.649,0.965,1.176c0.063,0.131,0.123,0.272,0.182,0.423v0.061
		c0.604,0.463,1.226,0.725,1.871,0.783c0.261,0.041,0.652,0.01,1.177-0.09c0.33,0.039,0.645,0.271,0.935,0.694
		c0.146,0.223,0.286,0.494,0.423,0.816h0.061c0.146,0.021,0.286,0.041,0.422,0.06c0.759,0.143,1.291,0.334,1.6,0.573
		c0.443,0.685,0.896,1.188,1.358,1.51h0.06c0.786,0.08,1.197-0.031,1.238-0.333c0.019-0.24-0.202-0.654-0.665-1.236l-1.871-2.295
		c-0.213-0.254-0.429-0.512-0.647-0.768c-0.889-1.006-1.854-2.007-2.898-3.004c-1.289-1.219-2.702-2.433-4.238-3.635
		c-0.626-0.492-1.27-0.98-1.933-1.464c-0.838-0.601-1.688-1.174-2.549-1.72c-6.966-4.438-14.596-7.102-22.89-7.998
		c-9.454-1.047-18.519,0.281-27.189,3.984c-2.716,1.166-5.267,2.502-7.65,4.014c-2.232,1.408-4.32,2.968-6.262,4.676l-2.987,2.746
		c-0.584,0.504-0.824,0.896-0.725,1.177c0.08,0.404,0.302,0.765,0.663,1.087c0.384,0.281,0.725,0.361,1.027,0.241
		c1.146-0.924,1.821-1.689,2.021-2.293c0-0.024,0-0.054,0-0.09c0.006-0.165,0.027-0.457,0.061-0.875
		c0.08-0.363,0.241-0.655,0.483-0.875v-0.03c0.125-0.127,0.256-0.208,0.392-0.241h0.302c0.221,0.039,0.472,0.241,0.753,0.602
		c0.527,0.083,1.006-0.119,1.435-0.602c0.101-0.107,0.195-0.228,0.287-0.363c0.141-0.241,0.32-0.694,0.542-1.359
		c0.08-0.604,0.312-1.006,0.694-1.206c0.141-0.121,0.281-0.162,0.423-0.121c0.12,0.08,0.271,0.22,0.453,0.422v-0.061
		c0.24,0.484,0.503,0.645,0.785,0.484c0.945-0.141,1.769-0.625,2.473-1.449c0.322-0.343,0.645-0.875,0.967-1.599
		c0.261-0.082,0.694,0.03,1.297,0.331c0.604,0.322,1.136,0.252,1.6-0.21l0.542-1.147c0.041-0.381,0.312-0.663,0.814-0.845h0.061
		c0.182-0.12,0.341-0.141,0.483-0.061c0.141,0.061,0.241,0.242,0.3,0.544c0.222,0.422,0.473,0.633,0.754,0.633
		c1.449-0.082,2.385-0.292,2.807-0.633c0.141-0.122,0.512-0.463,1.116-1.028c0.261-0.361,0.583-0.522,0.967-0.482
		c0.361,0.041,0.583,0.182,0.663,0.423c-0.041,0.402-0.061,0.653-0.061,0.754v0.059c0.363,0.282,0.705,0.312,1.026,0.092
		c0.786-0.02,1.75-0.624,2.897-1.812c0.785-0.281,1.267-0.281,1.449,0c0.242,0.241,0.222,0.524-0.06,0.845
		c-0.201,0.263-0.343,0.483-0.424,0.665c-0.08,0.182-0.039,0.302,0.122,0.362c0.422,0.182,0.773,0.02,1.055-0.482
		c0.584-0.322,1.431-0.875,2.536-1.66c0.604-0.039,0.944,0.24,1.025,0.844c-0.12,0.946,0.021,1.429,0.423,1.449
		c0.381,0.082,1.006-0.162,1.871-0.724c0.645-0.443,1.218-0.594,1.72-0.453c0.362,0.181,0.453,0.504,0.271,0.967
		c-0.142,0.261-0.231,0.481-0.271,0.663c-0.041,0.182,0.021,0.302,0.181,0.362c0.745,0.363,1.62,0.201,2.626-0.482
		c0.966-0.644,1.749-0.875,2.354-0.693C215.609,178.335,215.79,178.476,215.872,178.658z M169.279,190.154
		c-0.926,1.328-1.339,2.124-1.238,2.385v0.03c-0.033,0.273,0.057,0.594,0.273,0.965c0.361,0.484,0.612,0.725,0.753,0.725
		c0.235,0.012,0.481-0.108,0.74-0.363c0.18-0.171,0.364-0.415,0.558-0.723h0.062c0.463-0.867,0.632-1.44,0.512-1.722
		c-0.341-1.004-0.593-1.539-0.755-1.598c-0.141-0.183-0.442-0.102-0.903,0.241V190.154z M165.144,196.069
		c0.645,1.55,1.167,2.333,1.569,2.354c0.141,0,0.373-0.302,0.695-0.906c0.321-0.502,0.481-0.874,0.481-1.116l-1.086-2.323
		c-0.281-0.182-0.654,0.04-1.117,0.665v0.028C165.366,195.396,165.185,195.828,165.144,196.069z M164.179,198.062
		c-0.241-0.181-0.604,0.18-1.087,1.086c-0.341,0.745-0.533,1.236-0.573,1.479l1.118,2.263c0.261,0.182,0.643-0.101,1.146-0.845
		c0.323-0.624,0.443-1.077,0.361-1.358c0-0.241-0.089-0.703-0.271-1.388C164.55,198.474,164.319,198.062,164.179,198.062z
		 M256.429,247.642c-0.362-0.021-0.503-0.343-0.422-0.965c0.04-0.243,0.15-0.594,0.331-1.057v-0.062
		c-0.22-0.583-0.401-0.875-0.542-0.875c-0.281-0.019-0.464,0.363-0.544,1.148c-0.128,1.099-0.365,1.89-0.71,2.368
		c-0.239,0.336-0.535,0.51-0.89,0.527c-0.262-0.039-0.342-0.413-0.241-1.117c0.005-0.073,0.012-0.148,0.016-0.225
		c0.056-0.462,0.16-0.909,0.316-1.344c0.039-0.322,0.021-0.533-0.061-0.635c-0.101-0.159-0.261-0.18-0.483-0.059
		c-0.282,0-0.451,0.392-0.513,1.177c-0.03,0.088-0.061,0.175-0.09,0.256c-0.589,1.663-1.121,2.522-1.6,2.58
		c-0.242,0.041-0.401,0.01-0.482-0.09c-0.142-0.141-0.192-0.363-0.151-0.665c0.362-0.824,0.573-1.448,0.634-1.87
		c0.041-0.423-0.081-0.653-0.363-0.694c-0.583-0.041-0.885,0.141-0.905,0.543l-0.18,1.78c-0.202,0.704-0.714,1.398-1.54,2.082
		c-0.3,0.463-0.553,0.784-0.753,0.967c-0.222,0.141-0.453,0.141-0.695,0h0.03c-0.341-0.281-0.352-0.786-0.03-1.51
		c0.281-0.322,0.604-0.804,0.967-1.448c0.059-0.644-0.051-1.037-0.333-1.178v-0.06c-0.924-0.1-1.548,0.222-1.87,0.965l-0.333,1.359
		c-0.097,0.329-0.263,0.702-0.497,1.116c-0.281,0.527-0.67,1.119-1.162,1.781c-0.463,0.703-0.896,1.095-1.297,1.176
		c-0.363-0.04-0.594-0.15-0.694-0.331c-0.102-0.142-0.07-0.352,0.09-0.636c0.182-0.602,0.725-1.497,1.63-2.685l0.061-0.061
		c0.005-0.105,0.005-0.202,0-0.286c-0.013-0.305-0.073-0.511-0.182-0.618c-0.163-0.164-0.394-0.18-0.694-0.046
		c-0.026,0.014-0.058,0.029-0.09,0.046c-0.804,0.18-1.236,0.543-1.298,1.085c-0.261,1.106-0.392,1.73-0.392,1.871
		c-0.242,0.865-1.046,1.741-2.415,2.626l-0.06-0.062v0.062c-0.423,0.684-0.815,0.936-1.177,0.755
		c-0.322-0.041-0.463-0.343-0.423-0.905c0.322-0.624,0.855-1.47,1.6-2.534l0.06-0.062c0.04-0.422-0.011-0.745-0.151-0.965
		c-0.141-0.202-0.371-0.303-0.693-0.303c-0.584,0.101-0.966,0.402-1.146,0.904c0.04,0.645-0.011,1.148-0.151,1.51
		c-0.422,1.349-1.065,2.495-1.93,3.439c-0.726,0.565-1.188,0.825-1.39,0.786c-0.261,0-0.412-0.092-0.453-0.271
		c-0.02-0.143,0.062-0.354,0.241-0.636c0.967-1.83,1.45-2.817,1.45-2.958c0.06-0.783-0.161-1.217-0.665-1.296
		c-0.281-0.02-0.765,0.06-1.448,0.241v0.03c-0.684,0.323-1.096,0.594-1.236,0.813l-0.212,1.57l-0.814,2.021
		c-0.182,0.371-0.351,0.693-0.514,0.965c-0.408,0.707-0.75,1.091-1.024,1.148c-0.463-0.041-0.665-0.313-0.604-0.815
		c-0.032-0.329,0.014-0.736,0.136-1.223c0.117-0.457,0.304-0.986,0.559-1.583c0.079-0.666-0.172-1.036-0.755-1.118l-0.965,0.333
		c-0.886,0.24-1.369,0.432-1.449,0.572c-0.041,0.034-0.074,0.094-0.106,0.183c-0.087,0.22-0.152,0.611-0.195,1.177l-1.087,2.564
		c-0.502,1.006-0.955,1.6-1.356,1.78c-0.322,0.101-0.533,0.07-0.635-0.092c-0.142-0.159-0.19-0.45-0.151-0.875
		c0.041-0.281,0.253-0.975,0.635-2.081c0.1-0.503,0.12-0.885,0.06-1.147c-0.08-0.241-0.262-0.342-0.543-0.3
		c-1.213,0-2.048,0.729-2.505,2.186c-0.043,0.141-0.084,0.287-0.121,0.439c-0.604,1.991-1.308,3.138-2.111,3.44
		c-0.322,0.059-0.554,0.04-0.694-0.062c-0.102-0.141-0.132-0.412-0.091-0.814c0.422-1.107,0.634-1.942,0.634-2.505
		c0-0.624-0.232-0.956-0.693-0.996c-1.431-0.281-2.505,1.106-3.229,4.164c-0.062,0.604-0.202,1.026-0.422,1.269
		c-0.223,0.303-0.515,0.392-0.876,0.271c-0.604-0.202-0.793-1.238-0.573-3.109c0.062-0.684-0.03-1.095-0.271-1.236
		c-0.401-0.182-0.795-0.111-1.177,0.21c-0.824,0.183-1.74,1.329-2.746,3.439c-0.101,0.866-0.463,1.26-1.087,1.179
		c-0.502,0.04-0.764-0.17-0.784-0.635c-0.041-0.502,0.151-1.236,0.573-2.201c0.041-0.423-0.141-0.655-0.542-0.694
		c-0.289-0.035-0.561-0.045-0.816-0.03c-0.777,0.053-1.401,0.344-1.871,0.875v0.06c-0.241,2.395-0.824,3.743-1.75,4.044
		c-0.361,0.062-0.704-0.231-1.026-0.876c0.322-0.924,0.463-1.639,0.424-2.143c-0.068-0.417-0.239-0.673-0.514-0.769
		c-0.056-0.023-0.117-0.038-0.181-0.045c-1.589-0.182-2.595-0.041-3.018,0.422v0.062c-0.059,0.604-0.171,1.036-0.332,1.296
		c-0.019,0.383-0.251,0.815-0.694,1.299c-0.563,0.522-1.026,0.715-1.388,0.574c-0.363-0.141-0.483-0.584-0.363-1.329
		c0.039-0.198,0.073-0.384,0.106-0.558c0.111-0.72,0.126-1.177,0.045-1.374v-0.059c-0.221-0.282-0.725-0.464-1.508-0.545h-1.781
		c-1.208,1.691-2.263,2.535-3.168,2.535c-0.422,0.021-0.674-0.071-0.755-0.271c-0.1-0.261-0.031-0.624,0.21-1.087
		c0.302-0.543,0.483-0.975,0.544-1.298c0.08-0.34,0.03-0.552-0.151-0.633c-1.005-0.503-1.85-0.664-2.535-0.483
		c-0.563,0.604-0.996,1.067-1.296,1.388c-0.549,0.367-1.082,0.473-1.599,0.317c-0.112-0.033-0.224-0.08-0.333-0.135v0.029
		c-0.202-0.141-0.302-0.332-0.302-0.572c0.02-0.261,0.182-0.563,0.483-0.906c0.461-0.622,0.583-1.075,0.361-1.356l-0.061-0.062
		c-1.106-0.504-1.851-0.693-2.232-0.573c-0.583,0.463-1.016,0.804-1.298,1.026c-0.543,0.321-0.976,0.331-1.297,0.03h-0.061
		c-0.2-0.141-0.292-0.312-0.272-0.514c0.041-0.221,0.192-0.474,0.454-0.755c0.503-0.623,0.624-1.097,0.361-1.418
		c-0.965-0.744-1.79-1.025-2.473-0.845c-1.51,0.744-2.364,1.046-2.566,0.905c-0.402-0.363-0.602-0.724-0.602-1.086
		c0.039-0.322,0.261-0.644,0.663-0.966v-0.03c0.704-0.584,0.985-0.945,0.845-1.087c-0.484-0.648-0.937-1.086-1.359-1.312
		c-0.353-0.192-0.685-0.237-0.995-0.136h-0.06c-1.066,0.884-1.84,1.116-2.324,0.693c-0.342-0.22-0.514-0.452-0.514-0.693
		c0-0.242,0.171-0.494,0.514-0.755c0.725-0.604,1.037-1.048,0.937-1.329c-0.324-0.823-1.077-1.187-2.265-1.085
		c-0.089,0.011-0.174,0.021-0.256,0.029c-1.04,0.092-1.71-0.05-2.006-0.423c-0.141-0.2-0.171-0.371-0.092-0.512
		c0.061-0.182,0.271-0.343,0.634-0.484c0.684-0.36,0.965-0.743,0.845-1.146h-0.03l0.03-0.061c-0.875-1.713-1.66-2.739-2.354-3.077
		c-0.071-0.04-0.141-0.071-0.21-0.091c-0.141-0.021-0.665-0.021-1.569,0c-0.644,0.081-1.057-0.08-1.238-0.482
		c-0.182-0.241-0.23-0.473-0.151-0.693c0.041-0.141,0.182-0.264,0.422-0.363c0.824-0.182,1.238-0.343,1.238-0.483
		c0.221-0.502-0.082-1.257-0.906-2.262v-0.061c-1.006-0.383-1.74-0.613-2.204-0.694c-0.042,0-0.082,0-0.121,0
		c-0.196,0.006-0.337,0.026-0.422,0.061c-0.141,0.1-0.21,0.221-0.21,0.361c0,0.773,0.21,1.759,0.632,2.958
		c0.304,0.855,0.716,1.82,1.238,2.896c1.729,4.587,4.154,9.053,7.272,13.398c5.044,6.593,11.148,11.642,18.318,15.15
		c3.727,1.824,7.739,3.232,12.039,4.224c0.455,0.112,0.908,0.218,1.359,0.316c1.589,0.357,3.169,0.646,4.737,0.86
		c5.107,0.705,10.118,0.665,15.028-0.121c1.589-0.254,3.169-0.585,4.738-0.996c3.314-0.871,6.583-2.087,9.808-3.651
		c2-0.951,3.904-1.999,5.718-3.138c6.354-3.985,11.577-9.117,15.677-15.391h0.03l3.289-5.644c0.543-1.246,0.814-1.93,0.814-2.052
		l0.031-0.06l-0.362-0.634c-0.503-0.323-0.915-0.231-1.238,0.271C257.134,247.47,256.791,247.683,256.429,247.642z M161.494,203.162
		c-0.385-0.039-0.611,0.252-0.681,0.875c-0.006,0.027-0.011,0.058-0.015,0.09c-0.176,0.488-0.332,0.927-0.468,1.313
		c-0.451,1.265-0.679,1.943-0.679,2.035v0.031c0.121,0.142,0.363,0.362,0.725,0.664c0.463,0.563,0.765,0.845,0.906,0.845
		c0.281-0.101,0.514-0.333,0.694-0.694c0.215-0.606,0.381-1.115,0.499-1.524c0.179-0.616,0.244-1.005,0.195-1.162h-0.06
		l-0.754-1.991v-0.06l-0.302-0.422H161.494z M158.264,211.398c-0.201,0.483-0.25,0.926-0.15,1.328
		c0.061,0.281,0.292,0.573,0.694,0.875c0.462,0.322,0.834,0.423,1.116,0.302h0.062c0.547-0.426,0.793-0.923,0.739-1.492
		c-0.012-0.192-0.058-0.389-0.135-0.589h0.06c-0.14-0.481-0.285-0.859-0.436-1.133c-0.095-0.161-0.192-0.287-0.289-0.377
		c-0.19-0.178-0.402-0.242-0.632-0.196c-0.105,0.02-0.215,0.064-0.333,0.136c-0.216,0.094-0.404,0.341-0.558,0.739
		C158.351,211.115,158.305,211.251,158.264,211.398z M158.883,216.062c-0.064-0.134-0.141-0.28-0.227-0.438
		c-0.363-0.522-0.673-0.804-0.935-0.844c-0.108-0.031-0.195,0.114-0.258,0.438c-0.015,0.1-0.03,0.217-0.044,0.347
		c-0.402,1.086-0.563,1.902-0.483,2.444c0.1,0.281,0.402,0.584,0.906,0.904c0.502,0.322,0.825,0.435,0.965,0.332
		c0.563-0.481,0.655-1.276,0.271-2.383C159.109,216.686,159.042,216.419,158.883,216.062z M156.483,222.233
		c-0.059,0.643,0.021,1.096,0.243,1.356v0.062c0.461,0.663,0.875,1.086,1.237,1.267c0.322,0.121,0.563,0.07,0.724-0.15
		c0.161-0.182,0.241-0.502,0.241-0.965c0.04-0.596,0.02-1.09-0.06-1.479c-0.045-0.196-0.104-0.368-0.181-0.514
		c-0.383-0.543-0.714-0.914-0.996-1.116c-0.322-0.18-0.593-0.2-0.815-0.06c-0.07,0.021-0.141,0.165-0.21,0.438
		C156.604,221.336,156.543,221.725,156.483,222.233z M158.476,227.605c-0.102-0.283-0.404-0.565-0.905-0.847
		c-0.243-0.18-0.454-0.251-0.635-0.21c-0.141,0-0.271,0.1-0.392,0.302c-0.242,2.051-0.13,3.357,0.331,3.923
		c0.242,0.302,0.583,0.412,1.026,0.331c0.504,0.04,0.845-0.121,1.027-0.482c0.01-0.017,0.022-0.032,0.03-0.046
		c0.138-0.264,0.177-0.771,0.121-1.524c-0.039-0.17-0.08-0.326-0.121-0.467C158.81,228.073,158.649,227.746,158.476,227.605z
		 M158.958,232.96c-0.501-0.311-0.894-0.467-1.177-0.467c-0.323,0-0.512,0.221-0.573,0.663c-0.161,0.202-0.151,0.714,0.03,1.54
		c0.141,0.784,0.363,1.258,0.663,1.418c0.173,0.138,0.526,0.193,1.057,0.167c0.085-0.004,0.177-0.009,0.271-0.018
		c0.543-0.079,0.835-0.241,0.875-0.481c0.101-1.188-0.191-2.063-0.875-2.626l-0.059-0.061
		C159.097,233.048,159.025,233.002,158.958,232.96z"/>
	<path fill-rule="evenodd" clip-rule="evenodd" fill="#EF382C" d="M361.414,100.681c0.423,1.469,1.024,3.059,1.811,4.768
		l-0.241,0.212c0.079-0.061,0.161-0.112,0.241-0.151c0.1-0.022,0.201-0.061,0.302-0.123c3.721-1.408,6.689-0.683,8.903,2.173
		c2.071,3.582,1.899,6.71-0.515,9.385c-0.12,0.102-0.181,0.202-0.181,0.302l0.15-0.21c1.431,1.167,2.989,2.324,4.678,3.47
		c-2.031-0.725-3.902-1.62-5.612-2.687l-92.554,67.023l90.351-68.592c-2.334-1.871-4.346-4.154-6.034-6.851l-94.816,76.318
		l-10.531,7.936c-0.299-0.457-0.602-0.909-0.906-1.357l104.864-85.311c-0.845-1.73-1.59-3.53-2.232-5.4l-105.362,87.119
		c-0.285-0.341-0.572-0.677-0.86-1.011l105.227-89.368c-0.483-1.932-0.896-3.913-1.238-5.945l-106.87,92.267
		c-1.336-1.306-2.744-2.542-4.225-3.713c0.468-0.419,0.937-0.836,1.402-1.251c1.922-1.71,3.844-3.419,5.765-5.131
		c11.064-9.917,22.119-19.967,33.163-30.147c0.947-0.904,1.901-1.779,2.867-2.624l70.16-59.509
		c13.298-3.943,23.771,1.689,31.414,16.898c4.508,8.712,4.819,17.685,0.938,26.918c-7.385,6.277-15.038,12.292-22.964,18.046
		c-6.378,4.666-12.947,9.173-19.706,13.519c-11.909,8.341-23.855,16.656-35.837,24.942c-1.546,1.072-3.095,2.144-4.646,3.212
		c-1.467,1.018-2.936,2.034-4.406,3.048c0.417,4.181,1.438,10.377,3.063,18.59c0.382,2.032,0.755,3.962,1.116,5.794v72.741
		c0.535,0.368,1.067,0.735,1.601,1.1c1.329,0.913,2.657,1.824,3.983,2.733c1.349,0.922,2.697,1.842,4.043,2.76
		c15.96,10.898,31.773,21.449,47.438,31.655c1.026-0.584,2.042-1.065,3.048-1.446c4.387-1.59,7.886-1.35,10.501,0.722
		c2.656,2.073,3.712,5.402,3.169,9.99c-0.584,4.586-2.606,9.073-6.066,13.46c-3.48,4.345-7.342,7.311-11.588,8.9
		c-4.284,1.63-7.775,1.388-10.47-0.725c-2.656-2.031-3.703-5.36-3.14-9.988c0.062-0.624,0.161-1.226,0.302-1.81
		c-14.905-10.218-29.989-20.347-45.25-30.39c-1.354-0.891-2.714-1.782-4.073-2.67c-1.351-0.885-2.704-1.771-4.06-2.656
		c-4.351-2.839-8.716-5.672-13.097-8.494v18.075c-1.529,0.786-3.107,1.521-4.736,2.204v-23.327
		c-4.992-3.211-10.003-6.41-15.029-9.596v38.354c-1.59,0.582-3.169,1.196-4.737,1.841v-43.199c-4.45-2.812-8.917-5.617-13.398-8.417
		v57.288c-1.609,0.706-3.188,1.438-4.737,2.203v-62.389c6.035-4.028,11.144-9.184,15.328-15.465
		c3.432-4.996,5.944-10.412,7.545-16.252v15.028c3.356,2.405,6.706,4.804,10.05,7.197c1.66,1.177,3.32,2.349,4.979,3.516V205.44
		c-4.619,3.134-9.235,6.262-13.853,9.385c-0.544-2.95-1.328-5.878-2.353-8.783l17.441-11.814l98.678-72.062
		c3.883-10.642,1.117-20.078-8.3-28.305c9.375,4.85,13.359,14.354,11.951,28.517c1.065-0.182,2.043-0.694,2.927-1.541
		c0.161-6.959-0.985-13.668-3.439-20.126c3.24,4.625,5.08,9.817,5.521,15.571c1.511-5.452,0.392-11.679-3.349-18.68
		c-6.236-8.551-13.398-12.1-21.486-10.652c-2.594,2.534-3.51,6.104-2.745,10.713c10.319,1.024,15.801,6.447,16.446,16.264
		C375.647,105.661,370.405,101.244,361.414,100.681z M369.983,115.346c1.53-1.871,1.761-3.78,0.696-5.733
		c-1.754-2.213-3.885-2.776-6.398-1.689C365.548,110.437,367.449,112.912,369.983,115.346z M46.821,119.209
		c-2.253-0.885-4.154-0.483-5.703,1.206c-1.548,2.315-1.41,4.506,0.423,6.579C43.532,124.983,45.292,122.388,46.821,119.209z
		 M49.567,111.394c0,2.111-0.241,4.153-0.724,6.125l92.763,66.511l-93.698-63.885c-1.006,2.736-2.495,5.341-4.467,7.815
		l102.36,65.756l12.81,8.796c-0.026,0.059-0.051,0.112-0.075,0.167c-0.18,0.429-0.356,0.856-0.527,1.282L41.541,130.042
		c-1.308,1.408-2.777,2.716-4.407,3.923l119.318,74.387c-0.122,0.412-0.244,0.823-0.361,1.236L34.388,135.896
		c-1.689,1.067-3.45,2.083-5.28,3.048l125.958,74.839c-0.402,1.969-0.689,3.93-0.86,5.884c-3.423-1.956-6.849-3.916-10.275-5.884
		v53.956c5.014-4.082,10.022-8.192,15.027-12.328v-6.503c3.249,6.728,7.514,12.631,12.796,17.715
		c2.542,2.385,5.247,4.488,8.115,6.307c-5.439,3.923-10.829,7.842-16.174,11.755v46.999c-1.548-0.725-3.128-1.407-4.738-2.052
		v-41.478c-5.046,3.709-10.055,7.416-15.027,11.12v24.442c-1.548-0.584-3.129-1.156-4.738-1.72v-19.191
		c-4.496,3.356-8.964,6.711-13.399,10.063v3.545c-0.899-0.498-1.774-1.016-2.624-1.553c-1.335,1.012-2.668,2.022-3.999,3.032
		c-1.33,1.018-2.658,2.033-3.983,3.048c-13.796,10.535-27.291,21.035-40.483,31.505c0.222,1.127,0.363,2.244,0.422,3.349
		c0.141,4.609-1.216,7.847-4.072,9.718c-2.797,1.832-6.267,1.771-10.411-0.18c-4.164-1.993-7.775-5.323-10.834-9.99
		c-3.078-4.626-4.687-9.244-4.828-13.852c-0.141-4.605,1.177-7.844,3.953-9.717c2.836-1.83,6.337-1.748,10.501,0.243
		c0.563,0.281,1.105,0.563,1.63,0.844c12.705-9.607,25.383-19.369,38.038-29.286c1.274-0.999,2.546-1.998,3.816-3.003
		c1.245-0.977,2.487-1.958,3.728-2.942c4.807-3.786,9.609-7.599,14.409-11.436v-85.401c-4.577-2.569-9.168-5.131-13.776-7.68
		c-1.44-0.794-2.883-1.588-4.331-2.385c-0.693-0.382-1.387-0.765-2.081-1.146c-0.761-0.413-1.509-0.826-2.249-1.237
		c-0.38-0.211-0.758-0.424-1.131-0.634l-78.67-47.679c-7.947-11.386-5.915-23.106,6.094-35.156
		c6.801-7.001,15.22-10.14,25.259-9.415c8.289,4.97,16.406,10.319,24.353,16.054c5.177,3.665,10.272,7.473,15.284,11.421
		c1.233,0.973,2.467,1.954,3.696,2.943c0.019,0.022,0.039,0.042,0.061,0.059c1.243,0.919,2.485,1.84,3.727,2.762
		c18.625,13.798,37.18,27.684,55.663,41.659c4.088,3.107,8.177,6.216,12.266,9.326c2.002,1.523,4.003,3.048,6.005,4.571
		c-0.521,0.486-1.04,0.985-1.554,1.494c-1.494,1.54-2.892,3.164-4.195,4.873l-14.394-10.938L50.232,107.923
		c-11.327-0.302-19.435,5.29-24.323,16.778c1.648-10.38,9.446-17.141,23.386-20.279c-0.543-0.965-1.367-1.76-2.475-2.383
		c-6.598,2.132-12.574,5.391-17.925,9.776c3.36-4.527,7.675-7.946,12.946-10.26c-5.694,0.323-11.247,3.379-16.658,9.173
		c-6.116,8.591-7.222,16.496-3.319,23.718c3.237,1.651,6.93,1.39,11.074-0.783c-2.272-10.12,1.146-17.04,10.26-20.763
		c-7.424,4.005-9.978,10.372-7.665,19.102c1.308-0.924,2.636-1.991,3.985-3.199l0.21,0.092c-0.041-0.061-0.09-0.11-0.151-0.15
		c-0.041-0.101-0.11-0.203-0.21-0.302c-2.495-3.038-2.756-6.076-0.785-9.113c2.756-3.079,5.814-3.873,9.174-2.385
		c0.059,0,0.141,0,0.24,0l-0.24-0.06C48.44,115.156,49.044,113.324,49.567,111.394z M370.8,328.063
		c-0.967,0.062-2.174,0.493-3.622,1.297c-1.59,0.865-3.109,2.054-4.557,3.563l-86.577-59.992c-3.099,1.589-5.22,4.588-6.366,8.993
		l85.368,56.853c1.832-0.382,3.541-1.369,5.131-2.959c-1.208,1.531-2.174,2.999-2.896,4.407c-0.685,1.248-1.188,2.475-1.509,3.683
		c-0.826,2.695-0.686,4.485,0.422,5.37c0.925,0.724,2.204,0.724,3.832,0c0.927-3.238,2.475-5.723,4.647-7.453
		c-1.51,2.414-2.192,4.415-2.052,6.007c1.993-1.349,3.923-3.23,5.794-5.646c2.271-2.856,3.793-5.613,4.558-8.269
		c0.48-1.689,0.602-3.006,0.36-3.952c-4.768,1.831-9.032,5.633-12.793,11.406C362.27,336.4,365.688,331.965,370.8,328.063z
		 M143.72,41.384l10.35,7.122l10.35-7.122l-3.56,12.039l9.958,7.636l-12.554,0.331l-4.194,11.831l-4.194-11.831l-12.553-0.331
		l9.958-7.636L143.72,41.384z M95.979,87.281l9.958-7.634l-3.56-12.041l10.352,7.122l10.35-7.122l-3.56,12.041l9.958,7.634
		l-12.554,0.333l-4.194,11.829l-4.194-11.829L95.979,87.281z M242.939,41.384l10.352,7.122l10.351-7.122l-3.562,12.039l9.959,7.636
		l-12.555,0.331l-4.193,11.831l-4.195-11.831l-12.553-0.331l9.958-7.636L242.939,41.384z M193.118,31.695l10.35,7.124l10.352-7.124
		l-3.56,12.041l9.957,7.637l-12.553,0.33l-4.196,11.829l-4.194-11.829l-12.553-0.33l9.958-7.637L193.118,31.695z M309.359,84.537
		l-12.554,0.331l-4.195,11.829l-4.194-11.829l-12.553-0.331l9.957-7.636l-3.56-12.042l10.35,7.123l10.353-7.123l-3.563,12.042
		L309.359,84.537z M287.843,199.902c-1.137,0.774-2.273,1.546-3.41,2.324v67.295c6.34,4.459,12.657,8.866,18.952,13.216v-93.517
		C298.208,192.785,293.027,196.347,287.843,199.902z M259.93,263.439c-1.076,0.992-2.103,2.226-3.077,3.696
		c-1.008,1.548-1.922,3.391-2.748,5.522l5.492,3.319c0.11-0.206,0.222-0.407,0.333-0.604c1.455-2.607,3.034-4.735,4.737-6.38
		c0.863-0.836,1.759-1.544,2.686-2.129l-6.308-4.347C260.669,262.801,260.295,263.106,259.93,263.439z M199.184,280.535
		c1.587,0.307,3.169,0.553,4.737,0.737v76.093c-1.408-1.51-2.987-2.999-4.737-4.468V280.535z M181.047,273.653
		c1.535,0.922,3.114,1.766,4.739,2.536v67.052c-1.53-0.944-3.109-1.892-4.739-2.836V273.653z M218.949,281.047
		c1.589-0.239,3.168-0.551,4.738-0.934V344.6c-1.65,1.065-3.229,2.133-4.738,3.199V281.047z M102.829,217.043v72.394
		c-2.917-7.865-4.486-17.009-4.707-27.43c-0.021-0.686-0.031-1.38-0.031-2.083c0-0.222,0-0.443,0-0.664c0-0.806,0-1.609,0-2.414
		l0.031-1.419c0.141-7.021,0.834-14.787,2.081-23.296c0.383-2.575,0.885-5.593,1.509-9.053
		C102.056,221.187,102.427,219.175,102.829,217.043z M125.793,203.447v78.959c4.47-3.58,8.937-7.183,13.399-10.805v-60.549
		C134.742,208.512,130.276,205.976,125.793,203.447z M64.052,338.233c-0.141,1.869,0.271,3.811,1.238,5.824
		c-1.067-1.63-2.163-3.038-3.291-4.226c-1.005-1.047-2.001-1.922-2.987-2.626c-2.274-1.568-4.013-1.962-5.22-1.177
		c-0.965,0.604-1.367,1.81-1.208,3.621c2.756,1.892,4.616,4.133,5.583,6.729c-1.771-2.153-3.46-3.44-5.07-3.863
		c0.663,2.335,1.84,4.778,3.531,7.333c1.93,3.019,4.053,5.33,6.366,6.941c1.429,1.025,2.646,1.549,3.652,1.567
		c-0.241-5.129-2.515-10.369-6.82-15.722c4.164,3.221,7.314,7.847,9.446,13.882c0.241-0.924,0.212-2.183-0.09-3.772
		c-0.363-1.77-1.026-3.59-1.991-5.461l84.344-63.129c-0.544-3.441-2.707-6.378-6.489-8.813L64.052,338.233z M153.888,267.649
		c2.281,2.335,3.971,4.644,5.069,6.926c0.509,1.056,0.893,2.108,1.146,3.153l6.066-4.497c-0.451-1.562-1.275-3.121-2.475-4.678
		c-0.191-0.253-0.392-0.504-0.604-0.754c-1.099-1.391-2.478-2.788-4.134-4.194c-0.069-0.061-0.141-0.122-0.211-0.181
		L153.888,267.649z"/>
	<path fill-rule="evenodd" clip-rule="evenodd" fill="#F3F0F4" d="M361.414,100.681c8.991,0.563,14.233,4.98,15.723,13.247
		c-0.646-9.817-6.127-15.24-16.446-16.264c-0.765-4.609,0.151-8.179,2.745-10.713c8.088-1.448,15.25,2.101,21.486,10.652
		c3.74,7.001,4.859,13.228,3.349,18.68c-0.441-5.753-2.281-10.946-5.521-15.571c2.454,6.458,3.601,13.167,3.439,20.126
		c-0.884,0.847-1.861,1.359-2.927,1.541c1.408-14.163-2.576-23.667-11.951-28.517c9.417,8.228,12.183,17.664,8.3,28.305
		l-98.678,72.062l-17.441,11.814c-0.414-1.176-0.866-2.348-1.358-3.515c-1.378-3.165-2.967-6.123-4.768-8.873l10.531-7.936
		l94.816-76.318c1.688,2.697,3.7,4.98,6.034,6.851l-90.351,68.592l92.554-67.023c1.71,1.067,3.581,1.962,5.612,2.687
		c-1.688-1.146-3.247-2.304-4.678-3.47l-0.15,0.21c0-0.1,0.061-0.2,0.181-0.302c2.414-2.675,2.586-5.803,0.515-9.385
		c-2.214-2.856-5.183-3.581-8.903-2.173c-0.101,0.062-0.202,0.101-0.302,0.123c-0.08,0.039-0.162,0.09-0.241,0.151l0.241-0.212
		C362.438,103.739,361.837,102.15,361.414,100.681z M370.8,328.063c-5.111,3.902-8.53,8.338-10.26,13.308
		c3.761-5.773,8.025-9.575,12.793-11.406c0.241,0.946,0.12,2.263-0.36,3.952c-0.765,2.655-2.286,5.412-4.558,8.269
		c-1.871,2.415-3.801,4.297-5.794,5.646c-0.141-1.592,0.542-3.593,2.052-6.007c-2.173,1.73-3.721,4.215-4.647,7.453
		c-1.628,0.724-2.907,0.724-3.832,0c-1.107-0.885-1.248-2.675-0.422-5.37c0.32-1.208,0.824-2.435,1.509-3.683
		c0.723-1.408,1.688-2.876,2.896-4.407c-1.59,1.59-3.299,2.577-5.131,2.959l-85.368-56.853c1.146-4.405,3.268-7.404,6.366-8.993
		l86.577,59.992c1.447-1.509,2.967-2.697,4.557-3.563C368.626,328.556,369.833,328.124,370.8,328.063z M49.567,111.394
		c-0.522,1.93-1.126,3.762-1.81,5.492l0.24,0.06c-0.1,0-0.182,0-0.24,0c-3.36-1.488-6.418-0.694-9.174,2.385
		c-1.971,3.038-1.71,6.076,0.785,9.113c0.101,0.1,0.169,0.202,0.21,0.302c0.061,0.041,0.11,0.089,0.151,0.15l-0.21-0.092
		c-1.349,1.208-2.677,2.275-3.985,3.199c-2.313-8.73,0.241-15.097,7.665-19.102c-9.113,3.723-12.532,10.644-10.26,20.763
		c-4.144,2.172-7.836,2.434-11.074,0.783c-3.903-7.222-2.797-15.127,3.319-23.718c5.411-5.794,10.964-8.851,16.658-9.173
		c-5.271,2.314-9.586,5.733-12.946,10.26c5.351-4.386,11.327-7.644,17.925-9.776c1.108,0.623,1.932,1.417,2.475,2.383
		c-13.94,3.138-21.738,9.899-23.386,20.279c4.888-11.488,12.996-17.08,24.323-16.778l100.851,71.761l14.394,10.938
		c-2.719,3.589-5.007,7.551-6.866,11.89l-12.81-8.796L43.44,127.96c1.973-2.475,3.461-5.08,4.467-7.815l93.698,63.885
		l-92.763-66.511C49.326,115.547,49.567,113.505,49.567,111.394z M46.821,119.209c-1.528,3.178-3.289,5.773-5.28,7.785
		c-1.833-2.073-1.971-4.264-0.423-6.579C42.667,118.726,44.568,118.324,46.821,119.209z M358.095,98.327l-105.227,89.368
		c-0.921-1.054-1.881-2.069-2.882-3.046l106.87-92.267C357.199,94.414,357.611,96.395,358.095,98.327z M256.459,192.298
		c-0.867-1.24-1.777-2.438-2.73-3.592l105.362-87.119c0.643,1.87,1.388,3.67,2.232,5.4L256.459,192.298z M259.93,263.439
		c0.365-0.333,0.739-0.639,1.115-0.922l6.308,4.347c-0.927,0.585-1.822,1.293-2.686,2.129c-1.703,1.645-3.282,3.772-4.737,6.38
		c-0.111,0.197-0.223,0.398-0.333,0.604l-5.492-3.319c0.826-2.132,1.74-3.975,2.748-5.522
		C257.827,265.665,258.854,264.432,259.93,263.439z M158.008,203.961c-0.58,1.469-1.098,2.933-1.556,4.392L37.134,133.966
		c1.63-1.208,3.099-2.516,4.407-3.923L158.008,203.961z M156.091,209.589c-0.4,1.402-0.743,2.8-1.026,4.194L29.108,138.944
		c1.83-0.965,3.591-1.981,5.28-3.048L156.091,209.589z M65.29,344.058c-0.967-2.014-1.379-3.955-1.238-5.824l80.994-62.89
		c3.782,2.435,5.945,5.371,6.489,8.813l-84.344,63.129c0.965,1.871,1.628,3.691,1.991,5.461c0.302,1.59,0.331,2.849,0.09,3.772
		c-2.132-6.035-5.282-10.661-9.446-13.882c4.305,5.353,6.579,10.593,6.82,15.722c-1.006-0.019-2.223-0.542-3.652-1.567
		c-2.313-1.611-4.436-3.923-6.366-6.941c-1.691-2.555-2.868-4.998-3.531-7.333c1.61,0.423,3.299,1.71,5.07,3.863
		c-0.967-2.597-2.828-4.838-5.583-6.729c-0.16-1.812,0.242-3.018,1.208-3.621c1.208-0.785,2.946-0.392,5.22,1.177
		c0.986,0.704,1.982,1.579,2.987,2.626C63.127,341.02,64.223,342.428,65.29,344.058z M158.958,263.605
		c1.656,1.406,3.035,2.804,4.134,4.194c0.212,0.25,0.413,0.501,0.604,0.754c1.199,1.557,2.023,3.116,2.475,4.678l-6.066,4.497
		c-0.254-1.045-0.637-2.098-1.146-3.153c-1.099-2.282-2.789-4.591-5.069-6.926l4.858-4.225
		C158.817,263.483,158.889,263.545,158.958,263.605z M164.179,198.062c0.141,0,0.371,0.412,0.694,1.236
		c0.182,0.685,0.271,1.146,0.271,1.388c0.082,0.281-0.039,0.734-0.361,1.358c-0.504,0.744-0.885,1.026-1.146,0.845l-1.118-2.263
		c0.041-0.242,0.232-0.734,0.573-1.479C163.575,198.241,163.938,197.88,164.179,198.062z M165.144,196.069
		c0.041-0.241,0.223-0.673,0.543-1.298v-0.028c0.463-0.625,0.836-0.847,1.117-0.665l1.086,2.323c0,0.243-0.161,0.614-0.481,1.116
		c-0.322,0.604-0.555,0.906-0.695,0.906C166.311,198.402,165.788,197.619,165.144,196.069z M169.279,190.154v-0.06
		c0.461-0.343,0.763-0.424,0.903-0.241c0.162,0.06,0.414,0.594,0.755,1.598c0.121,0.281-0.049,0.855-0.512,1.722h-0.062
		c-0.193,0.308-0.378,0.551-0.558,0.723c-0.258,0.254-0.504,0.375-0.74,0.363c-0.141,0-0.392-0.241-0.753-0.725
		c-0.216-0.371-0.306-0.692-0.273-0.965v-0.03C167.94,192.278,168.353,191.482,169.279,190.154z M215.872,178.658
		c-0.082-0.182-0.263-0.322-0.544-0.422c-0.604-0.181-1.388,0.049-2.354,0.693c-1.006,0.684-1.881,0.845-2.626,0.482
		c-0.16-0.06-0.222-0.18-0.181-0.362c0.04-0.182,0.13-0.402,0.271-0.663c0.182-0.463,0.091-0.786-0.271-0.967
		c-0.502-0.141-1.075,0.01-1.72,0.453c-0.865,0.563-1.49,0.806-1.871,0.724c-0.402-0.02-0.543-0.502-0.423-1.449
		c-0.081-0.604-0.422-0.883-1.025-0.844c-1.105,0.785-1.952,1.338-2.536,1.66c-0.281,0.502-0.633,0.664-1.055,0.482
		c-0.161-0.06-0.202-0.18-0.122-0.362c0.081-0.181,0.223-0.402,0.424-0.665c0.281-0.32,0.302-0.604,0.06-0.845
		c-0.182-0.281-0.664-0.281-1.449,0c-1.146,1.188-2.111,1.792-2.897,1.812c-0.321,0.22-0.663,0.19-1.026-0.092v-0.059
		c0-0.102,0.02-0.353,0.061-0.754c-0.08-0.241-0.302-0.382-0.663-0.423c-0.383-0.041-0.706,0.121-0.967,0.482
		c-0.604,0.565-0.975,0.906-1.116,1.028c-0.422,0.341-1.358,0.551-2.807,0.633c-0.282,0-0.532-0.21-0.754-0.633
		c-0.06-0.302-0.16-0.484-0.3-0.544c-0.143-0.08-0.302-0.06-0.483,0.061h-0.061c-0.502,0.182-0.773,0.464-0.814,0.845l-0.542,1.147
		c-0.463,0.462-0.996,0.532-1.6,0.21c-0.604-0.301-1.036-0.413-1.297-0.331c-0.322,0.724-0.645,1.256-0.967,1.599
		c-0.704,0.824-1.528,1.308-2.473,1.449c-0.282,0.161-0.545,0-0.785-0.484v0.061c-0.182-0.202-0.333-0.342-0.453-0.422
		c-0.142-0.041-0.282,0-0.423,0.121c-0.382,0.2-0.614,0.602-0.694,1.206c-0.222,0.665-0.402,1.118-0.542,1.359
		c-0.092,0.135-0.187,0.256-0.287,0.363c-0.429,0.483-0.907,0.685-1.435,0.602c-0.281-0.361-0.532-0.563-0.753-0.602h-0.302
		c-0.136,0.034-0.267,0.114-0.392,0.241v0.03c-0.243,0.221-0.404,0.513-0.483,0.875c-0.034,0.419-0.055,0.711-0.061,0.875
		c0,0.036,0,0.066,0,0.09c-0.2,0.604-0.875,1.369-2.021,2.293c-0.302,0.121-0.643,0.041-1.027-0.241
		c-0.361-0.323-0.583-0.684-0.663-1.087c-0.1-0.281,0.141-0.673,0.725-1.177l2.987-2.746c1.942-1.708,4.03-3.269,6.262-4.676
		c2.383-1.511,4.934-2.848,7.65-4.014c8.67-3.703,17.735-5.031,27.189-3.984c8.294,0.896,15.924,3.56,22.89,7.998
		c0.861,0.546,1.711,1.119,2.549,1.72c0.663,0.483,1.307,0.972,1.933,1.464c1.536,1.202,2.949,2.416,4.238,3.635
		c1.045,0.997,2.01,1.998,2.898,3.004c0.219,0.256,0.435,0.514,0.647,0.768l1.871,2.295c0.463,0.582,0.684,0.996,0.665,1.236
		c-0.041,0.302-0.452,0.413-1.238,0.333h-0.06c-0.463-0.322-0.915-0.825-1.358-1.51c-0.309-0.239-0.841-0.431-1.6-0.573
		c-0.136-0.019-0.276-0.039-0.422-0.06h-0.061c-0.137-0.322-0.277-0.593-0.423-0.816c-0.29-0.422-0.604-0.655-0.935-0.694
		c-0.524,0.1-0.916,0.131-1.177,0.09c-0.646-0.059-1.268-0.32-1.871-0.783v-0.061c-0.059-0.151-0.119-0.292-0.182-0.423
		c-0.26-0.527-0.58-0.92-0.965-1.176c-1.067,0.281-1.901,0.312-2.506,0.091l-0.061-0.062c-0.402-0.785-0.773-1.267-1.116-1.448
		c-0.138-0.074-0.368-0.074-0.693,0c-0.287,0.071-0.648,0.202-1.086,0.392c-1.188,0.141-2.265-0.169-3.229-0.935
		c-0.14-0.137-0.104-0.459,0.104-0.965c0.006-0.01,0.013-0.02,0.017-0.031c0.141-0.322,0.049-0.634-0.272-0.936
		c-0.362-0.282-1.005-0.151-1.932,0.394c-0.684,0.18-1.347,0.11-1.991-0.212c-0.262-0.181-0.353-0.542-0.271-1.087
		c-0.081-0.461-0.353-0.732-0.815-0.814c-0.925,0.402-1.659,0.645-2.201,0.725c-0.282,0.241-1.129,0.08-2.536-0.482
		c-0.241-0.161-0.331-0.504-0.271-1.026c0.041-0.463-0.172-0.786-0.633-0.967c-0.383-0.04-0.978,0.131-1.781,0.514
		c-0.703,0.482-1.308,0.563-1.812,0.241c-0.12-0.12-0.18-0.271-0.18-0.453c0.039-0.141,0.131-0.312,0.271-0.513
		c0.062-0.388-0.049-0.68-0.332-0.875c-0.085-0.06-0.188-0.11-0.302-0.151c-0.382-0.115-0.81-0.064-1.282,0.151
		c-0.271,0.125-0.558,0.305-0.86,0.542c-0.865,0.563-1.671,0.673-2.414,0.332c-0.115-0.132-0.07-0.424,0.136-0.875
		c0.048-0.104,0.102-0.214,0.165-0.333C215.891,179.07,215.932,178.839,215.872,178.658z M263.52,232.824
		c-0.199,2.153-0.612,4.155-1.236,6.006c-0.141,1.188-0.402,1.892-0.785,2.111h-0.12c-0.281-0.401-0.553-0.633-0.814-0.693
		c-0.237,0.214-0.448,0.359-0.634,0.438c-0.146,0.056-0.276,0.071-0.392,0.046h-0.031c-0.302-0.645-0.643-0.937-1.026-0.875
		c-0.262,0.12-0.513,0.663-0.755,1.63c-0.36,0.884-0.734,1.236-1.116,1.055c-0.262-0.039-0.412-0.453-0.452-1.236
		c-0.021-0.423-0.11-0.745-0.271-0.967c-0.101-0.2-0.271-0.291-0.512-0.271c-0.363,0.121-0.614,0.734-0.755,1.843
		c0,0.542-0.072,0.914-0.213,1.115c-0.181,0.262-0.433,0.372-0.754,0.333c-0.303,0-0.522-0.414-0.663-1.238
		c-0.041-0.402-0.131-0.674-0.271-0.814c-0.142-0.182-0.333-0.251-0.573-0.212c-0.323-0.039-0.543,0.092-0.665,0.394
		c-0.181,0.32-0.272,0.783-0.272,1.388c-0.141,1.328-0.622,1.932-1.446,1.81c-0.102,0-0.313-0.352-0.634-1.055
		c-0.322-1.912-0.916-2.866-1.781-2.866c-0.504,0.179-0.715,0.45-0.635,0.813c0.168,0.452,0.309,0.88,0.423,1.282
		c0.235,0.806,0.366,1.506,0.394,2.099c-0.041,0.401-0.835,0.924-2.385,1.568c-0.382,0.101-0.794-0.424-1.237-1.568
		c-0.242-0.987-0.683-1.4-1.328-1.238c-0.401,0.181-0.563,0.522-0.483,1.025c0.323,0.684,0.464,1.157,0.425,1.418v0.031
		c0.08,0.643-0.243,1.187-0.967,1.63c-0.145,0.097-0.301,0.176-0.467,0.241c-0.442,0.169-0.95,0.208-1.524,0.119
		c-0.423-0.04-0.604-0.321-0.545-0.844c-0.227-0.55-0.454-1.003-0.679-1.357c-0.438-0.716-0.859-1.038-1.267-0.967
		c-0.018-0.003-0.032-0.003-0.046,0c-0.522,0.223-0.712,0.906-0.573,2.053l0.363,1.538v0.062c-0.021,0.504-0.443,0.845-1.269,1.025
		c-0.966,0.424-1.577,0.492-1.841,0.211v-0.061l-0.271-0.964c-0.24-1.067-0.584-1.781-1.026-2.144
		c-0.381-0.323-0.845-0.343-1.387-0.06c-0.543,0.442-0.543,1.126,0,2.051c0.644,1.146,0.824,1.9,0.542,2.265v0.059l-0.059-0.059
		c-0.504,0.199-0.847,0.36-1.026,0.48c-0.785,0.425-1.317,0.565-1.6,0.425c-0.403-0.041-0.815-0.483-1.238-1.329
		c-0.08-0.402-0.281-0.945-0.603-1.63V249c-0.523-0.725-0.986-1.138-1.389-1.238c-0.423-0.04-0.744,0.212-0.965,0.755
		c-0.182,0.463,0.069,1.106,0.753,1.931c0.568,0.656,0.921,1.174,1.057,1.555c0.036,0.103,0.056,0.191,0.061,0.272
		c0.004,0.036,0.004,0.072,0,0.104c-0.061,0.545-0.685,0.916-1.87,1.116c-0.824,0.343-1.358,0.493-1.6,0.453
		c-0.402-0.039-0.766-0.402-1.087-1.086l-0.814-1.448c-0.744-1.367-1.438-1.832-2.083-1.389c-0.302,0.181-0.463,0.393-0.481,0.634
		c0,0.281,0.09,0.624,0.271,1.026c0.014,0.02,0.028,0.04,0.046,0.062c0.636,0.931,1.013,1.533,1.131,1.81v-0.062
		c0.462,0.624,0.604,1.056,0.423,1.297c-0.182,0.264-0.807,0.535-1.871,0.816l-1.178,0.422c-1.188,0-2.233-1.218-3.138-3.651
		c-0.424-0.784-0.957-1.086-1.599-0.906c-0.323,0.141-0.505,0.373-0.545,0.696c-0.039,0.361,0.071,0.804,0.332,1.326
		c0.26,0.383,0.536,0.751,0.83,1.103c0.226,0.276,0.461,0.542,0.709,0.799c0.222,0.424,0.312,0.765,0.272,1.025
		c-0.041,0.281-0.201,0.474-0.483,0.574c-1.75,0.583-3.198,0.1-4.346-1.449c-0.503-0.893-0.956-1.525-1.358-1.901
		c-0.028-0.034-0.06-0.063-0.09-0.089c-0.422-0.363-0.795-0.453-1.116-0.271c-0.403,0.22-0.514,0.624-0.332,1.207
		c0.016,0.044,0.035,0.09,0.062,0.134c0.238,0.587,0.721,1.325,1.446,2.22c0.282,0.362,0.424,0.664,0.424,0.905
		c0,0.261-0.142,0.441-0.424,0.542c-1.292,0.721-2.595,0.043-3.908-2.036c-0.115-0.185-0.23-0.382-0.346-0.587
		c-0.363-1.188-0.796-1.743-1.298-1.661c-0.422,0.101-0.654,0.313-0.693,0.634c-0.041,0.382,0.12,0.914,0.481,1.6
		c1.047,1.287,1.53,2.182,1.448,2.686c0,0.303-0.351,0.532-1.055,0.694c-0.685,0.181-1.228,0.261-1.63,0.242
		c-1.006-0.123-1.952-1.4-2.837-3.834c-0.22-0.542-0.423-0.896-0.602-1.056c-0.202-0.183-0.392-0.183-0.575,0
		c-0.542,0.202-0.764,0.624-0.663,1.268c0.141,0.623,0.614,1.418,1.417,2.384v0.03c0.282,0.966,0.282,1.51,0,1.629
		c-1.126,0.383-2.081,0-2.866-1.146c-0.322-0.664-0.784-1.731-1.388-3.198c-0.1-0.162-0.24-0.574-0.422-1.238
		c-0.238-0.295-0.494-0.462-0.771-0.497c-0.105-0.012-0.21-0.007-0.317,0.014c-0.436,0.164-0.712,0.421-0.83,0.77
		c-0.063,0.164-0.088,0.352-0.076,0.558c0,0.686,0.353,1.58,1.057,2.688c0.342,0.36,0.523,0.663,0.542,0.905
		c0.041,0.221-0.049,0.402-0.271,0.543h-0.029c-1.179,0.347-2.382-0.68-3.608-3.078c-0.193-0.39-0.39-0.812-0.586-1.268
		c-0.143-0.141-0.302-0.553-0.483-1.238c-0.182-0.401-0.474-0.563-0.875-0.482c-0.645,0.222-0.945,0.653-0.906,1.299
		c0.041,0.642,0.412,1.559,1.116,2.745c0.02,0.025,0.041,0.052,0.061,0.075c0.281,0.387,0.422,0.693,0.422,0.921
		c0,0.261-0.161,0.412-0.483,0.453c-0.413,0.112-0.855-0.034-1.327-0.438c-0.293-0.242-0.595-0.577-0.906-1.011
		c-0.542-0.823-0.906-1.64-1.087-2.443v-0.03c0.141-1.229-0.09-1.892-0.693-1.993c-0.504-0.039-0.845,0.302-1.026,1.026
		c-0.08,0.523-0.08,1.036,0,1.539v0.062c-0.08,0.644-0.261,1.004-0.542,1.085c-1.188-0.12-1.952-1.428-2.293-3.923
		c0.1-1.006-0.101-1.549-0.604-1.63c-0.542-0.18-0.916-0.11-1.116,0.212c-0.222,0.323-0.282,0.896-0.181,1.721
		c-0.062,0.583-0.241,0.854-0.543,0.813c-1.026-0.241-1.609-1.418-1.75-3.53c-0.052-0.42-0.106-0.773-0.166-1.056
		c-0.112-0.502-0.237-0.805-0.377-0.906c-0.463-0.161-0.875,0.172-1.238,0.998c-0.22,0.783-0.453,1.154-0.694,1.115
		c-1.287-0.403-1.812-1.69-1.568-3.863c0.056-0.705,0.071-1.199,0.044-1.478c-0.005-0.119-0.021-0.2-0.044-0.243
		c-0.363-0.302-0.735-0.36-1.118-0.179c-0.401,0.22-0.623,0.583-0.664,1.085c-0.061,0.563-0.292,0.814-0.693,0.755h-0.062
		c-0.481-0.322-0.602-1.006-0.361-2.053c0.141-1.105,0.089-1.801-0.151-2.082h0.031c-0.343-0.282-0.714-0.19-1.118,0.271
		c-0.461,0.363-0.825,0.453-1.086,0.273c-0.965-0.624-1.359-1.72-1.177-3.29l0.182-1.509c-0.141-0.24-0.453-0.332-0.937-0.271
		c-0.051,0.02-0.102,0.038-0.15,0.06c-0.482,0.143-0.825,0.021-1.026-0.362c-0.423-0.724-0.472-1.389-0.151-1.992
		c0.181-0.361,0.504-0.904,0.967-1.629c-0.222-0.503-0.563-0.734-1.026-0.693c-0.825,0.079-1.288-0.03-1.388-0.332
		c-0.222-0.423-0.082-1.006,0.422-1.751c0.542-0.583,0.845-1.057,0.904-1.418c-0.1-0.343-0.451-0.573-1.055-0.695
		c-0.544-0.039-0.864-0.2-0.966-0.481c-0.261-1.067-0.251-1.781,0.03-2.143c0.302-0.363,0.824-0.886,1.569-1.57
		c0.041-0.603-0.423-0.976-1.388-1.116c-0.261-0.241-0.333-0.835-0.212-1.779c0.061-0.785,0.432-1.338,1.118-1.661
		c0.643-0.281,0.935-0.552,0.874-0.813c-0.121-0.343-0.413-0.483-0.874-0.423c-0.544-0.061-0.865-0.171-0.967-0.332v-0.03
		c-0.241-0.402-0.261-0.927-0.06-1.569c0.04-0.117,0.084-0.223,0.136-0.317c0.207-0.45,0.483-0.717,0.829-0.799l0.965-0.061
		c0.363,0.061,0.614-0.031,0.755-0.271c0.141-0.322-0.142-0.663-0.845-1.026c-0.624-0.182-0.916-0.463-0.875-0.845
		c0.046-0.421,0.105-0.799,0.182-1.132c0.105-0.459,0.241-0.836,0.407-1.131c0.085-0.166,0.182-0.309,0.287-0.424
		c0.282-0.221,0.885-0.472,1.81-0.753c0-0.262-0.21-0.534-0.633-0.816v0.062c-0.261-0.12-0.443-0.251-0.544-0.392
		c-0.06-0.142-0.06-0.323,0-0.545c0.085-0.659,0.206-1.204,0.363-1.63c0.192-0.49,0.433-0.823,0.724-0.994
		c0.026-0.012,0.05-0.021,0.075-0.03c0.419-0.191,0.998-0.373,1.735-0.543c0.122-0.222-0.039-0.534-0.481-0.936
		c-0.363-0.423-0.504-0.835-0.422-1.237c0.501-1.248,1.116-2.034,1.84-2.354c0.24-0.082,0.734-0.031,1.479,0.15
		c0.121-0.202,0.07-0.433-0.15-0.695h0.059c-0.12-0.241-0.3-0.502-0.542-0.784v-0.061c-0.1-0.302,0.102-0.805,0.604-1.508
		c0.282-0.363,0.694-0.524,1.237-0.483c0.483,0.062,0.805-0.01,0.967-0.21v-0.061c0.24-0.222,0.09-0.745-0.454-1.569
		c-0.086-0.651,0.06-1.198,0.438-1.645c0.243-0.276,0.58-0.512,1.011-0.709c0.302-0.241,0.704-0.201,1.206,0.121
		c0.424,0.383,0.775,0.483,1.057,0.302c0.281-0.2,0.322-0.553,0.121-1.056c-0.221-0.442-0.443-0.875-0.664-1.299
		c-0.181-0.784,0.454-1.559,1.901-2.322c0.423-0.242,0.845-0.01,1.267,0.694c0.323,0.663,0.594,0.955,0.814,0.875
		c0.485-0.289,0.651-0.901,0.499-1.842c-0.022-0.117-0.047-0.237-0.075-0.361c-0.202-0.604-0.211-1.105-0.03-1.509
		c0.141-0.362,0.443-0.633,0.906-0.814c0.543-0.059,0.975,0.322,1.296,1.146c0.281,0.645,0.544,0.986,0.786,1.027l0.603-0.272
		c0.825-0.825,0.875-1.852,0.151-3.079c0.012-0.018,0.025-0.039,0.044-0.059c0.16-0.239,0.506-0.571,1.042-0.997
		c0.564-0.321,0.976-0.413,1.237-0.272c0.282,0.021,0.513,0.374,0.694,1.057c0.007,0.075,0.017,0.145,0.031,0.212
		c0.056,0.389,0.187,0.66,0.392,0.814v-0.062c0.402,0.181,0.724,0.181,0.967,0c0.042-0.029,0.081-0.064,0.12-0.105
		c0.134-0.147,0.231-0.363,0.287-0.648c0.021-0.11,0.036-0.232,0.044-0.363c0-0.101,0-0.625,0-1.569
		c-0.08-0.522,0.151-0.896,0.694-1.116l0.847-0.271c0.402-0.102,0.694,0.331,0.875,1.295c0,0.423,0.07,0.706,0.21,0.847
		c0.141,0.121,0.332,0.101,0.573-0.061c0.806-0.281,1.289-1.177,1.449-2.685c0.322-0.645,0.956-0.906,1.901-0.785
		c0.24,0.041,0.382,0.22,0.422,0.543c0.041,0.281-0.03,0.695-0.21,1.238c-0.141,0.563-0.141,0.965,0,1.206
		c0.101,0.302,0.352,0.433,0.753,0.394c0.604-0.082,1.118-0.856,1.541-2.324c0.402-1.249,0.995-1.761,1.781-1.541
		c0.402,0.182,0.542,0.715,0.42,1.6c-0.2,0.865-0.069,1.389,0.394,1.568c0.704,0.202,1.328-0.302,1.87-1.507
		c0.645-1.106,1.288-1.569,1.93-1.389c0.404,0.061,0.534,0.734,0.394,2.023c-0.12,1.105,0.11,1.769,0.694,1.991
		c0.362,0.041,0.724-0.373,1.087-1.237c0.161-0.502,0.351-1.056,0.571-1.659c0.282-0.504,1.018-0.686,2.203-0.543
		c0.282,0,0.442,0.18,0.483,0.543c0.041,0.361-0.051,0.845-0.271,1.449c-0.24,0.542-0.343,0.975-0.302,1.297
		c0.021,0.322,0.161,0.512,0.423,0.573h0.061c0.341,0.041,0.874-0.353,1.6-1.177c0.282-0.322,0.603-0.834,0.965-1.539
		c0.323-0.644,0.875-0.865,1.661-0.665c0.643,0.182,0.873,1.119,0.693,2.808c-0.049,0.51,0.022,0.861,0.211,1.057
		c0.054,0.051,0.113,0.09,0.182,0.121c0.388,0.139,0.739,0.1,1.057-0.121c0.093-0.066,0.183-0.146,0.271-0.242
		c0.402-0.502,0.766-1.318,1.086-2.445c0.281-0.501,0.946-0.501,1.991,0c0.504,0.182,0.785,0.614,0.847,1.298
		c0.032,0.632,0.037,1.096,0.014,1.389c-0.002,0.07-0.007,0.129-0.014,0.18c-0.062,0.745,0.069,1.138,0.392,1.177h0.061
		c0.394,0.119,0.737-0.037,1.025-0.468c0.15-0.224,0.286-0.519,0.408-0.889c0.007-0.01,0.012-0.02,0.014-0.031
		c0.384-1.269,0.775-1.88,1.177-1.842c1.408,0.163,2.184,0.787,2.324,1.873c0.021,0.124,0.03,0.254,0.03,0.392
		c0.041,0.643,0.11,1.167,0.212,1.569c0.039,0.586,0.229,0.917,0.573,0.995h0.029c0.604,0.041,1.036-0.494,1.299-1.599
		c0.135-0.599,0.28-1.052,0.436-1.357c0.176-0.333,0.36-0.494,0.559-0.483c0.514,0,0.967,0.161,1.358,0.483
		c0.633,0.509,1.116,1.425,1.449,2.746c0.222,1.288,0.452,1.951,0.693,1.992c0.724,0.08,1.188-0.684,1.389-2.293
		c-0.1-0.363-0.11-0.613-0.03-0.755c0.101-0.141,0.292-0.211,0.573-0.211c1.429,0.02,2.294,1.087,2.595,3.198
		c0.112,0.487,0.225,0.875,0.333,1.163c0.124,0.337,0.242,0.544,0.361,0.619c0.322,0.1,0.573,0.069,0.755-0.09
		c0.202-0.222,0.382-0.584,0.543-1.088c0.039-0.444,0.1-0.8,0.182-1.072c0.136-0.416,0.327-0.612,0.573-0.587
		c0.031,0,0.063,0,0.09,0c1.651,0.101,2.496,1.175,2.535,3.228c-0.205,0.771-0.189,1.335,0.046,1.689
		c0.069,0.097,0.154,0.177,0.256,0.243c0.362,0.2,0.653,0.231,0.876,0.09c0.22-0.182,0.401-0.533,0.542-1.056
		c0.14-0.426,0.271-0.777,0.392-1.056c0.248-0.577,0.46-0.858,0.635-0.845c0.099,0.012,0.195,0.028,0.286,0.045
		c1.24,0.288,1.88,1.348,1.918,3.183c-0.063,0.252-0.104,0.479-0.121,0.678c-0.032,0.37,0.019,0.648,0.15,0.832
		c0.136,0.117,0.269,0.196,0.393,0.241c0.115,0.04,0.227,0.049,0.332,0.03c0.241-0.041,0.433-0.201,0.573-0.483l0.543-1.507
		c0.041-0.404,0.131-0.674,0.271-0.814c0.181-0.143,0.412-0.173,0.693-0.092c0.177,0.058,0.362,0.195,0.559,0.408
		c0.472,0.527,1.001,1.518,1.584,2.973c0.21,0.483,0.382,0.841,0.514,1.07c0.112,0.211,0.193,0.317,0.241,0.317h0.061
		c0.181,0.12,0.343,0.09,0.481-0.089c0.142-0.182,0.253-0.494,0.333-0.937c0.009-0.08,0.019-0.154,0.03-0.226
		c0.103-0.872,0.284-1.291,0.543-1.253c0.315,0,0.576,0.056,0.786,0.167c0.09,0.054,0.17,0.12,0.24,0.197
		c0.173,0.309,0.244,0.726,0.212,1.252c0,0.027,0,0.052,0,0.076c-0.041,1.267,0.121,1.991,0.481,2.172
		c0.363,0.282,0.745,0.13,1.146-0.453c0.464-0.604,0.837-0.906,1.118-0.906c0.502,0.223,0.734,1.177,0.693,2.867
		c0.041,0.1,0.11,0.15,0.211,0.15c0.141,0.041,0.301,0,0.483-0.12c0.441-0.1,0.715-0.061,0.813,0.12h0.062
		c0.06,0.384,0.202,0.655,0.422,0.816c0.504,0.32,0.804,0.622,0.905,0.903c-0.06,0.604,0.011,0.998,0.211,1.178l1.208,2.053
		c0.224,0.547,0.441,1.096,0.647,1.645C264.289,215.979,265.068,224.384,263.52,232.824z M256.429,247.642
		c0.362,0.041,0.705-0.172,1.025-0.634c0.323-0.503,0.735-0.595,1.238-0.271l0.362,0.634l-0.031,0.06
		c0,0.122-0.271,0.806-0.814,2.052l-3.289,5.644h-0.03c-4.1,6.273-9.323,11.405-15.677,15.391c-1.813,1.139-3.718,2.187-5.718,3.138
		c-3.225,1.564-6.493,2.78-9.808,3.651c-1.569,0.411-3.149,0.742-4.738,0.996c-4.91,0.786-9.921,0.826-15.028,0.121
		c-1.568-0.215-3.148-0.503-4.737-0.86c-0.451-0.099-0.904-0.204-1.359-0.316c-4.3-0.991-8.313-2.399-12.039-4.224
		c-7.169-3.509-13.274-8.558-18.318-15.15c-3.118-4.346-5.543-8.812-7.272-13.398c-0.522-1.076-0.934-2.041-1.238-2.896
		c-0.422-1.199-0.632-2.185-0.632-2.958c0-0.141,0.069-0.262,0.21-0.361c0.085-0.034,0.226-0.055,0.422-0.061
		c0.039,0,0.079,0,0.121,0c0.463,0.081,1.197,0.312,2.204,0.694v0.061c0.824,1.005,1.126,1.76,0.906,2.262
		c0,0.141-0.414,0.302-1.238,0.483c-0.241,0.1-0.382,0.223-0.422,0.363c-0.08,0.221-0.031,0.452,0.151,0.693
		c0.181,0.402,0.594,0.563,1.238,0.482c0.904-0.021,1.429-0.021,1.569,0c0.07,0.02,0.139,0.051,0.21,0.091
		c0.694,0.338,1.479,1.364,2.354,3.077l-0.03,0.061h0.03c0.121,0.403-0.161,0.786-0.845,1.146c-0.363,0.142-0.573,0.303-0.634,0.484
		c-0.08,0.141-0.049,0.312,0.092,0.512c0.296,0.373,0.966,0.515,2.006,0.423c0.082-0.009,0.167-0.019,0.256-0.029
		c1.188-0.102,1.94,0.262,2.265,1.085c0.1,0.281-0.212,0.725-0.937,1.329c-0.342,0.261-0.514,0.513-0.514,0.755
		c0,0.241,0.171,0.474,0.514,0.693c0.483,0.423,1.257,0.19,2.324-0.693h0.06c0.31-0.102,0.642-0.057,0.995,0.136
		c0.422,0.226,0.875,0.663,1.359,1.312c0.141,0.142-0.141,0.503-0.845,1.087v0.03c-0.402,0.322-0.624,0.644-0.663,0.966
		c0,0.362,0.2,0.723,0.602,1.086c0.202,0.141,1.057-0.161,2.566-0.905c0.684-0.181,1.508,0.101,2.473,0.845
		c0.263,0.321,0.143,0.795-0.361,1.418c-0.261,0.281-0.413,0.534-0.454,0.755c-0.02,0.202,0.072,0.373,0.272,0.514h0.061
		c0.322,0.301,0.754,0.291,1.297-0.03c0.282-0.223,0.714-0.563,1.298-1.026c0.381-0.12,1.125,0.069,2.232,0.573l0.061,0.062
		c0.222,0.281,0.1,0.734-0.361,1.356c-0.302,0.343-0.463,0.646-0.483,0.906c0,0.24,0.1,0.432,0.302,0.572v-0.029
		c0.108,0.055,0.221,0.102,0.333,0.135c0.518,0.155,1.05,0.05,1.599-0.317c0.3-0.32,0.733-0.783,1.296-1.388
		c0.685-0.181,1.53-0.02,2.535,0.483c0.182,0.081,0.231,0.293,0.151,0.633c-0.061,0.323-0.242,0.755-0.544,1.298
		c-0.241,0.463-0.311,0.826-0.21,1.087c0.081,0.2,0.333,0.292,0.755,0.271c0.905,0,1.961-0.844,3.168-2.535h1.781
		c0.784,0.081,1.287,0.263,1.508,0.545v0.059c0.081,0.197,0.066,0.654-0.045,1.374c-0.034,0.174-0.067,0.359-0.106,0.558
		c-0.121,0.745,0,1.188,0.363,1.329c0.362,0.141,0.825-0.052,1.388-0.574c0.443-0.483,0.675-0.916,0.694-1.299
		c0.161-0.26,0.273-0.691,0.332-1.296v-0.062c0.423-0.463,1.429-0.604,3.018-0.422c0.064,0.007,0.125,0.021,0.181,0.045
		c0.274,0.096,0.446,0.352,0.514,0.769c0.039,0.504-0.102,1.219-0.424,2.143c0.322,0.645,0.665,0.938,1.026,0.876
		c0.926-0.301,1.509-1.649,1.75-4.044v-0.06c0.47-0.531,1.094-0.822,1.871-0.875c0.256-0.015,0.527-0.005,0.816,0.03
		c0.401,0.039,0.583,0.271,0.542,0.694c-0.422,0.965-0.614,1.699-0.573,2.201c0.021,0.465,0.282,0.675,0.784,0.635
		c0.624,0.081,0.986-0.313,1.087-1.179c1.006-2.11,1.922-3.257,2.746-3.439c0.382-0.321,0.775-0.392,1.177-0.21
		c0.241,0.142,0.333,0.553,0.271,1.236c-0.22,1.871-0.03,2.907,0.573,3.109c0.361,0.12,0.653,0.031,0.876-0.271
		c0.22-0.242,0.36-0.664,0.422-1.269c0.725-3.058,1.799-4.445,3.229-4.164c0.461,0.04,0.693,0.372,0.693,0.996
		c0,0.563-0.212,1.397-0.634,2.505c-0.041,0.402-0.011,0.674,0.091,0.814c0.141,0.102,0.372,0.12,0.694,0.062
		c0.804-0.303,1.508-1.449,2.111-3.44c0.037-0.152,0.078-0.299,0.121-0.439c0.457-1.456,1.292-2.186,2.505-2.186
		c0.281-0.042,0.463,0.059,0.543,0.3c0.061,0.263,0.04,0.645-0.06,1.147c-0.382,1.106-0.594,1.8-0.635,2.081
		c-0.039,0.425,0.01,0.716,0.151,0.875c0.102,0.162,0.313,0.192,0.635,0.092c0.401-0.181,0.854-0.774,1.356-1.78l1.087-2.564
		c0.043-0.565,0.108-0.957,0.195-1.177c0.032-0.089,0.065-0.148,0.106-0.183c0.08-0.141,0.563-0.332,1.449-0.572l0.965-0.333
		c0.583,0.082,0.834,0.452,0.755,1.118c-0.255,0.597-0.441,1.126-0.559,1.583c-0.122,0.486-0.168,0.894-0.136,1.223
		c-0.061,0.503,0.142,0.774,0.604,0.815c0.274-0.058,0.616-0.441,1.024-1.148c0.163-0.271,0.332-0.594,0.514-0.965l0.814-2.021
		l0.212-1.57c0.141-0.22,0.553-0.49,1.236-0.813v-0.03c0.684-0.182,1.167-0.261,1.448-0.241c0.504,0.079,0.725,0.513,0.665,1.296
		c0,0.141-0.483,1.128-1.45,2.958c-0.18,0.282-0.261,0.493-0.241,0.636c0.041,0.179,0.192,0.271,0.453,0.271
		c0.202,0.039,0.664-0.221,1.39-0.786c0.864-0.944,1.508-2.091,1.93-3.439c0.141-0.361,0.191-0.865,0.151-1.51
		c0.181-0.502,0.563-0.804,1.146-0.904c0.322,0,0.553,0.101,0.693,0.303c0.141,0.22,0.191,0.543,0.151,0.965l-0.06,0.062
		c-0.744,1.064-1.277,1.91-1.6,2.534c-0.04,0.563,0.101,0.864,0.423,0.905c0.361,0.181,0.754-0.071,1.177-0.755v-0.062l0.06,0.062
		c1.369-0.885,2.173-1.761,2.415-2.626c0-0.141,0.131-0.765,0.392-1.871c0.062-0.542,0.494-0.905,1.298-1.085
		c0.032-0.017,0.063-0.032,0.09-0.046c0.301-0.134,0.531-0.118,0.694,0.046c0.108,0.107,0.169,0.313,0.182,0.618
		c0.005,0.084,0.005,0.181,0,0.286l-0.061,0.061c-0.905,1.188-1.448,2.083-1.63,2.685c-0.16,0.284-0.191,0.494-0.09,0.636
		c0.101,0.181,0.331,0.291,0.694,0.331c0.401-0.081,0.834-0.473,1.297-1.176c0.492-0.662,0.881-1.254,1.162-1.781
		c0.234-0.414,0.4-0.787,0.497-1.116l0.333-1.359c0.322-0.743,0.946-1.064,1.87-0.965v0.06c0.282,0.141,0.392,0.534,0.333,1.178
		c-0.363,0.645-0.686,1.126-0.967,1.448c-0.321,0.724-0.311,1.229,0.03,1.51h-0.03c0.242,0.141,0.474,0.141,0.695,0
		c0.2-0.183,0.453-0.504,0.753-0.967c0.826-0.684,1.338-1.378,1.54-2.082l0.18-1.78c0.021-0.402,0.322-0.584,0.905-0.543
		c0.282,0.041,0.404,0.271,0.363,0.694c-0.061,0.422-0.271,1.046-0.634,1.87c-0.041,0.302,0.01,0.524,0.151,0.665
		c0.081,0.1,0.24,0.131,0.482,0.09c0.479-0.058,1.011-0.917,1.6-2.58c0.029-0.081,0.06-0.168,0.09-0.256
		c0.062-0.785,0.23-1.177,0.513-1.177c0.223-0.121,0.383-0.101,0.483,0.059c0.081,0.102,0.1,0.313,0.061,0.635
		c-0.156,0.435-0.261,0.882-0.316,1.344c-0.004,0.076-0.011,0.151-0.016,0.225c-0.101,0.704-0.021,1.078,0.241,1.117
		c0.354-0.018,0.65-0.191,0.89-0.527c0.345-0.479,0.582-1.27,0.71-2.368c0.08-0.785,0.263-1.167,0.544-1.148
		c0.141,0,0.322,0.292,0.542,0.875v0.062c-0.181,0.463-0.291,0.813-0.331,1.057C255.926,247.299,256.066,247.621,256.429,247.642z
		 M158.264,211.398c0.041-0.147,0.087-0.283,0.136-0.407c0.154-0.398,0.341-0.646,0.558-0.739c0.118-0.071,0.228-0.116,0.333-0.136
		c0.23-0.046,0.442,0.019,0.632,0.196c0.097,0.09,0.193,0.216,0.289,0.377c0.151,0.273,0.296,0.651,0.436,1.133h-0.06
		c0.078,0.2,0.124,0.396,0.135,0.589c0.055,0.569-0.191,1.066-0.739,1.492h-0.062c-0.281,0.121-0.653,0.021-1.116-0.302
		c-0.402-0.302-0.633-0.594-0.694-0.875C158.013,212.324,158.063,211.882,158.264,211.398z M161.494,203.162h0.059l0.302,0.422v0.06
		l0.754,1.991h0.06c0.049,0.157-0.016,0.546-0.195,1.162c-0.117,0.409-0.283,0.918-0.499,1.524c-0.18,0.361-0.413,0.594-0.694,0.694
		c-0.141,0-0.443-0.282-0.906-0.845c-0.361-0.302-0.604-0.522-0.725-0.664v-0.031c0-0.092,0.228-0.771,0.679-2.035
		c0.136-0.387,0.292-0.825,0.468-1.313c0.004-0.032,0.009-0.063,0.015-0.09C160.883,203.414,161.109,203.123,161.494,203.162z
		 M158.958,232.96c0.068,0.042,0.14,0.088,0.212,0.136l0.059,0.061c0.684,0.563,0.976,1.438,0.875,2.626
		c-0.04,0.24-0.332,0.402-0.875,0.481c-0.095,0.009-0.187,0.014-0.271,0.018c-0.53,0.026-0.883-0.029-1.057-0.167
		c-0.3-0.16-0.522-0.634-0.663-1.418c-0.182-0.826-0.191-1.338-0.03-1.54c0.061-0.442,0.25-0.663,0.573-0.663
		C158.064,232.493,158.456,232.649,158.958,232.96z M158.476,227.605c0.173,0.141,0.334,0.468,0.481,0.979
		c0.041,0.141,0.082,0.297,0.121,0.467c0.056,0.753,0.017,1.261-0.121,1.524c-0.008,0.014-0.02,0.029-0.03,0.046
		c-0.182,0.361-0.522,0.522-1.027,0.482c-0.443,0.081-0.784-0.029-1.026-0.331c-0.461-0.565-0.573-1.872-0.331-3.923
		c0.121-0.202,0.251-0.302,0.392-0.302c0.181-0.041,0.392,0.03,0.635,0.21C158.072,227.04,158.375,227.322,158.476,227.605z
		 M156.483,222.233c0.06-0.509,0.121-0.897,0.182-1.162c0.07-0.272,0.141-0.417,0.21-0.438c0.222-0.141,0.494-0.12,0.815,0.06
		c0.282,0.202,0.613,0.573,0.996,1.116c0.077,0.146,0.136,0.317,0.181,0.514c0.08,0.39,0.1,0.884,0.06,1.479
		c0,0.463-0.08,0.783-0.241,0.965c-0.162,0.221-0.402,0.271-0.724,0.15c-0.362-0.181-0.775-0.604-1.237-1.267v-0.062
		C156.504,223.329,156.424,222.876,156.483,222.233z M158.883,216.062c0.16,0.357,0.226,0.624,0.195,0.8
		c0.384,1.106,0.292,1.901-0.271,2.383c-0.141,0.103-0.463-0.01-0.965-0.332c-0.503-0.32-0.806-0.623-0.906-0.904
		c-0.08-0.542,0.082-1.358,0.483-2.444c0.014-0.13,0.029-0.247,0.044-0.347c0.063-0.323,0.149-0.469,0.258-0.438
		c0.261,0.04,0.572,0.321,0.935,0.844C158.742,215.781,158.819,215.928,158.883,216.062z"/>
</g>
</svg>
