<?xml version="1.0" encoding="utf-8"?>
<!-- Generator: Adobe Illustrator 16.0.0, SVG Export Plug-In . SVG Version: 6.00 Build 0)  -->
<!DOCTYPE svg PUBLIC "-//W3C//DTD SVG 1.1//EN" "http://www.w3.org/Graphics/SVG/1.1/DTD/svg11.dtd">
<svg version="1.1" id="Layer_1" xmlns="http://www.w3.org/2000/svg" xmlns:xlink="http://www.w3.org/1999/xlink" x="0px" y="0px"
	 width="400px" height="400px" viewBox="0 0 400 400" enable-background="new 0 0 400 400" xml:space="preserve">
<g>
	<path fill-rule="evenodd" clip-rule="evenodd" fill="#19254F" d="M159.476,42.436c-1.873,8.283-5.699,14.417-11.478,18.401
		c-5.779,3.984-12.741,5.374-20.886,4.171c-3.392,2.347-6.765,5.009-10.118,7.988c1.283-0.71,2.387-1.233,3.313-1.568
		c6.646-2.583,13.815-2.229,21.507,1.065c-3.648,7.495-8.776,12.534-15.383,15.117c-5.305,1.934-10.591,2.258-15.856,0.977
		c-1.874-0.395-3.964-1.203-6.272-2.425c-2.584,3.155-5.088,6.597-7.514,10.324c5.463-4.319,12.297-6.183,20.501-5.591
		c-1.025,8.205-4.329,14.584-9.91,19.141c-5.582,4.556-12.504,6.479-20.768,5.769c-2.525,6.173-4.428,12.346-5.71,18.52
		c0.71-3.097,1.706-5.65,2.988-7.663c1.282-1.972,3.205-4.023,5.768-6.153c2.584-2.051,5.701-3.58,9.349-4.585
		c3.708-1.025,7.524-1.41,11.449-1.154c-1.026,8.343-4.329,14.724-9.911,19.141c-5.503,4.555-12.425,6.488-20.768,5.798
		c0.039,0.079-0.256,2.889-0.887,8.432c-0.651,6.173-0.938,10.196-0.858,12.07c0.69-5.088,2.485-9.457,5.384-13.106
		c4.497-5.66,10.857-9.033,19.082-10.118c0.69,8.421-1.184,15.344-5.621,20.768c-4.358,5.463-10.541,8.806-18.549,10.029
		c0.415,7.593,1.756,15.333,4.024,23.223c-1.203-5.602-0.867-10.779,1.006-15.532c2.426-6.607,7.455-11.735,15.087-15.383
		c3.136,7.75,3.452,14.95,0.947,21.596c-2.761,7.297-7.317,12.267-13.667,14.91l-1.45,0.474c1.361,3.983,2.831,7.642,4.408,10.975
		c0.789,1.283,1.439,2.653,1.953,4.112l3.077,5.504c-2.17-4.557-3.067-9.054-2.692-13.491c0.572-7.12,3.935-13.48,10.088-19.082
		c5.207,6.429,7.583,13.243,7.13,20.442c-0.434,6.232-3.136,11.912-8.106,17.04l-1.981,2.101
		c3.786,5.581,8.214,10.937,13.283,16.063c-2.899-3.568-4.724-7.533-5.473-11.893c-1.301-6.863,0.365-13.863,5-21.003
		c6.726,4.969,10.7,10.964,11.922,17.985c1.203,7.022-0.473,13.982-5.029,20.886c4.438,3.887,9.22,7.457,14.348,10.71
		c-2.169-2.249-3.865-4.615-5.088-7.099c-3.057-6.588-3.313-13.787-0.77-21.598c7.791,2.958,13.245,7.643,16.36,14.053
		c2.958,6.31,3.274,13.282,0.946,20.915c5.464,2.623,10.798,4.715,16.005,6.271c-2.879-1.557-5.285-3.5-7.218-5.828
		c-4.615-5.424-6.726-12.315-6.331-20.679c8.323,0.889,14.792,4.024,19.407,9.408c4.378,5.088,6.498,11.488,6.36,19.199
		c4.042,0.493,7.928,1.292,11.656,2.396c-2.564-2.247-4.359-4.112-5.384-5.592c-1.558-2.366-2.169-4.832-1.834-7.395
		c-1.084-0.197-1.854-0.75-2.308-1.656c-0.532-0.77-0.7-1.629-0.502-2.575c0.196-0.907,0.709-1.616,1.538-2.13
		c0.848-0.514,1.716-0.631,2.604-0.355c0.947,0.178,1.687,0.69,2.219,1.538c0.453,0.809,0.553,1.657,0.296,2.544
		c-0.198,0.986-0.671,1.696-1.421,2.132c-0.532,0.336-1.025,0.503-1.479,0.503c-0.571,2.228-0.147,4.546,1.273,6.951
		c0.769,1.203,2.504,3.246,5.207,6.124h0.178c-1.223-3.136-1.934-5.543-2.13-7.219c-0.315-2.701,0.267-5.039,1.746-7.01
		c-0.888-0.652-1.331-1.521-1.331-2.605c-0.08-0.925,0.168-1.735,0.739-2.424c0.651-0.71,1.43-1.124,2.337-1.244
		c0.967-0.06,1.795,0.228,2.485,0.858c0.79,0.593,1.214,1.372,1.272,2.337c0.04,0.946-0.256,1.765-0.887,2.456
		c-0.592,0.73-1.361,1.124-2.308,1.183c-0.532,0.06-1.045-0.01-1.538-0.207c-1.479,1.677-2.12,3.798-1.923,6.361
		c0.059,1.616,0.602,4.123,1.627,7.514c3.353,1.104,6.262,2.229,8.727,3.373c-2.603-2.623-3.865-5.374-3.787-8.253
		c-1.123,0-1.961-0.465-2.515-1.392c-0.571-0.69-0.798-1.52-0.679-2.484c0.059-0.908,0.473-1.688,1.242-2.338
		c0.711-0.572,1.539-0.788,2.485-0.65c0.926,0.139,1.707,0.562,2.338,1.271c0.591,0.77,0.808,1.627,0.65,2.573
		c-0.118,0.908-0.532,1.647-1.242,2.219c-0.434,0.336-0.917,0.563-1.45,0.681c-0.454,3.59,0.956,6.568,4.23,8.935
		c3.53,1.756,6.746,3.649,9.645,5.68c3.018-2.11,6.252-4.004,9.702-5.68c3.274-2.366,4.695-5.345,4.261-8.935
		c-0.532-0.118-1.016-0.345-1.449-0.681c-0.69-0.571-1.114-1.311-1.271-2.219c-0.12-0.946,0.147-1.804,0.798-2.573
		c0.572-0.71,1.331-1.133,2.277-1.271c0.908-0.138,1.745,0.078,2.515,0.65c0.711,0.65,1.134,1.43,1.272,2.338
		c0.139,0.965-0.089,1.843-0.68,2.632c-0.691,0.83-1.549,1.244-2.574,1.244c0.06,2.918-1.242,5.669-3.905,8.253
		c2.524-1.145,5.454-2.269,8.786-3.373c1.025-3.391,1.569-5.897,1.626-7.514c0.198-2.563-0.442-4.685-1.921-6.361
		c-0.513,0.197-1.026,0.267-1.538,0.207c-0.948-0.059-1.717-0.452-2.309-1.183c-0.65-0.691-0.937-1.51-0.858-2.456
		c0.14-0.965,0.553-1.744,1.243-2.337c0.73-0.631,1.528-0.918,2.397-0.858c0.966,0.12,1.784,0.534,2.455,1.244
		c0.63,0.688,0.876,1.499,0.738,2.424c0,1.085-0.463,1.953-1.391,2.605c1.48,1.971,2.071,4.309,1.776,7.01
		c-0.197,1.598-0.878,4.004-2.042,7.219h0.118c2.703-2.878,4.428-4.921,5.177-6.124c1.421-2.405,1.835-4.724,1.243-6.951
		c-0.434,0-0.906-0.167-1.42-0.503c-0.769-0.513-1.282-1.223-1.538-2.132c-0.197-0.887-0.039-1.735,0.474-2.544
		c0.434-0.848,1.143-1.36,2.129-1.538c0.889-0.275,1.746-0.158,2.574,0.355c0.848,0.454,1.361,1.165,1.538,2.13
		c0.257,0.946,0.139,1.806-0.354,2.575c-0.533,0.906-1.37,1.459-2.515,1.656c0.435,2.563-0.147,5.028-1.745,7.395
		c-0.907,1.361-2.663,3.225-5.266,5.592c3.707-1.104,7.553-1.903,11.536-2.396c-0.117-7.592,2.002-13.992,6.361-19.199
		c4.614-5.384,11.095-8.52,19.436-9.408c0.375,8.403-1.705,15.296-6.241,20.679c-2.13,2.426-4.566,4.368-7.308,5.828
		c5.187-1.557,10.503-3.648,15.946-6.271c-2.308-7.633-1.983-14.605,0.976-20.915c3.155-6.41,8.619-11.095,16.39-14.053
		c2.624,7.969,2.357,15.166-0.799,21.598c-1.144,2.483-2.85,4.85-5.118,7.099c5.148-3.253,9.93-6.823,14.348-10.71
		c-4.556-6.903-6.222-13.863-4.999-20.886c1.223-7.001,5.207-12.997,11.951-17.985c4.615,7.06,6.321,14.062,5.119,21.003
		c-0.848,4.418-2.713,8.382-5.593,11.893c5.051-5.127,9.469-10.482,13.254-16.063l-2.012-2.101
		c-4.95-5.128-7.651-10.808-8.105-17.04c-0.415-7.199,1.962-14.013,7.129-20.442c6.174,5.601,9.556,11.962,10.148,19.082
		c0.354,4.477-0.483,8.884-2.515,13.224l4.822-9.349c1.854-4.063,3.323-7.721,4.407-10.975l-1.449-0.474
		c-6.33-2.643-10.887-7.612-13.668-14.91c-2.564-6.686-2.219-13.884,1.035-21.596c7.593,3.648,12.613,8.776,15.059,15.383
		c1.854,4.753,2.17,9.93,0.947,15.532c2.228-7.89,3.579-15.63,4.053-23.223c-8.008-1.224-14.2-4.566-18.579-10.029
		c-4.438-5.562-6.291-12.485-5.562-20.768c8.185,1.085,14.525,4.458,19.021,10.118c3.038,3.767,4.833,8.136,5.385,13.106
		c0.078-1.933-0.197-5.956-0.828-12.07c-0.592-6.213-0.888-9.023-0.888-8.432c-8.343,0.69-15.265-1.243-20.768-5.798
		c-5.522-4.417-8.847-10.798-9.971-19.141c3.945-0.256,7.781,0.128,11.509,1.154c3.648,1.006,6.756,2.535,9.319,4.585
		c2.563,2.071,4.486,4.123,5.768,6.153c1.284,2.012,2.268,4.565,2.96,7.663c-1.243-6.173-3.116-12.346-5.622-18.52
		c-8.282,0.71-15.226-1.213-20.826-5.769c-5.523-4.438-8.825-10.818-9.91-19.141c8.224-0.592,15.066,1.272,20.53,5.591
		c-2.386-3.728-4.892-7.169-7.515-10.324c-2.247,1.223-4.339,2.031-6.271,2.425c-5.267,1.282-10.562,0.957-15.887-0.977
		c-6.606-2.583-11.745-7.623-15.414-15.117c7.692-3.293,14.881-3.648,21.566-1.065c0.771,0.256,1.865,0.779,3.285,1.568
		c-3.216-2.84-6.558-5.502-10.03-7.988c-8.223,1.203-15.215-0.187-20.973-4.171c-5.839-4.023-9.615-10.157-11.332-18.401
		c8.185-1.203,15.236,0.188,21.152,4.171c5.403,3.787,9.063,9.368,10.976,16.745l4.024,2.869c-2.289-2.859-3.848-5.995-4.674-9.407
		c-1.815-7.002-0.701-14.092,3.341-21.271c7.181,4.418,11.606,10.059,13.284,16.922c1.774,6.804,0.681,13.826-3.283,21.063
		c2.76,2.583,5.266,5.128,7.513,7.632c-1.538-3.215-2.406-6.399-2.604-9.555c-0.59-6.982,1.795-13.737,7.16-20.265
		c6.153,5.581,9.507,11.922,10.059,19.022c0.453,7.061-1.883,13.776-7.012,20.146c2.505,3.511,4.497,6.548,5.977,9.112
		c-1.026-3.905-1.153-7.85-0.385-11.833c1.4-7.001,5.542-12.908,12.425-17.721c4.438,7.061,5.936,14.122,4.497,21.182
		c-1.42,6.607-5.257,12.268-11.508,16.981c0.888,2.426,2.327,6.084,4.319,10.975c-0.711-5.147-0.109-9.91,1.804-14.289
		c2.82-6.449,8.115-11.32,15.887-14.614c2.898,7.889,2.869,15.078-0.09,21.566c-2.76,6.41-7.828,11.232-15.205,14.466
		c0.947,3.254,1.835,6.834,2.661,10.739c0.396-2.761,1.274-5.454,2.635-8.077c3.194-6.291,8.776-10.807,16.743-13.549
		c2.308,8.008,1.795,15.186-1.538,21.537c-3.076,6.114-8.411,10.552-16.004,13.313c0.257,4.103,0.384,7.198,0.384,9.289
		c1.183-3.648,3.048-6.853,5.592-9.614c4.95-5.246,11.557-8.066,19.82-8.461c0.159,8.224-2.238,14.989-7.188,20.294
		c-4.614,4.97-10.837,7.801-18.667,8.491c-0.394,4.358-1.064,8.815-2.013,13.372c1.993-4.083,4.715-7.347,8.166-9.792
		c5.699-4.142,12.73-5.65,21.093-4.526c-1.558,8.224-5.244,14.407-11.063,18.548c-5.582,3.984-12.386,5.533-20.413,4.645
		l-0.089,0.355c-0.729,2.584-1.883,5.966-3.462,10.148c2.032-2.131,4.112-3.807,6.243-5.03c6.152-3.53,13.313-4.27,21.478-2.219
		c-2.465,8.087-6.804,13.855-13.017,17.308c-5.956,3.353-12.801,4.17-20.531,2.454c-1.519,2.82-3.304,5.799-5.354,8.935
		c2.349-1.933,5-3.411,7.958-4.438c6.686-2.228,13.846-1.617,21.478,1.834c-3.846,7.396-9.17,12.238-15.976,14.525
		c-6.528,2.269-13.56,1.735-21.093-1.598c-1.676,2.092-3.777,4.459-6.3,7.101c2.622-1.281,5.236-2.12,7.839-2.515
		c7-0.966,13.914,0.996,20.737,5.888c-5.147,6.547-11.281,10.306-18.401,11.271c-6.863,0.967-13.599-0.866-20.204-5.502
		c-3.354,2.702-6.824,5.196-10.414,7.484c3.254-1.005,6.557-1.38,9.911-1.124c7.06,0.651,13.381,4.102,18.963,10.354
		c-6.411,5.167-13.206,7.454-20.384,6.863c-7.08-0.631-13.342-4.004-18.785-10.117c-3.787,1.872-7.348,3.49-10.681,4.851
		c3.393-0.215,6.696,0.257,9.911,1.421c6.725,2.444,11.933,7.386,15.619,14.821c-7.592,3.333-14.751,3.816-21.477,1.449
		c-6.174-2.308-11.056-6.606-14.644-12.898c-7.14-0.077-14.161,0.947-21.063,3.078c3.372-0.455,5.937-0.554,7.691-0.297
		c2.721,0.335,4.921,1.46,6.596,3.372c0.929-0.689,1.864-0.936,2.813-0.739c0.906,0.197,1.646,0.671,2.217,1.42
		c0.514,0.77,0.702,1.637,0.563,2.604c-0.119,0.888-0.563,1.637-1.331,2.249c-0.83,0.492-1.696,0.669-2.604,0.53
		c-0.908-0.176-1.647-0.659-2.219-1.448c-0.572-0.77-0.76-1.597-0.563-2.484c0.138-0.593,0.327-1.075,0.563-1.45
		c-1.321-1.873-3.314-3.057-5.976-3.551c-1.598-0.256-4.251-0.285-7.958-0.088h-0.297c3.058,1.085,5.326,2.14,6.804,3.165
		c2.209,1.598,3.6,3.619,4.173,6.064c1.024-0.315,1.992-0.127,2.897,0.563c0.692,0.572,1.096,1.352,1.214,2.338
		c0.139,0.887-0.05,1.714-0.563,2.484c-0.571,0.769-1.332,1.213-2.277,1.331c-0.986,0.158-1.824-0.059-2.515-0.65
		c-0.769-0.592-1.223-1.331-1.361-2.219c-0.117-0.967,0.099-1.834,0.651-2.604c0.395-0.453,0.779-0.77,1.153-0.947
		c-0.295-2.248-1.47-4.169-3.52-5.769c-1.303-1.024-3.561-2.247-6.775-3.669c-4.3,1.342-8.136,3.009-11.508,5.001
		c5.325-1.224,9.329-0.552,12.011,2.012c0.69-0.75,1.588-1.124,2.692-1.124c0.967,0.039,1.736,0.413,2.309,1.124
		c0.689,0.689,0.984,1.528,0.887,2.515c0,0.906-0.365,1.705-1.096,2.396c-0.689,0.649-1.528,0.937-2.515,0.856
		c-0.945-0.039-1.735-0.414-2.365-1.124c-0.651-0.729-0.947-1.568-0.888-2.515c0.138-0.651,0.295-1.134,0.473-1.449
		c-2.622-3.018-6.695-3.826-12.219-2.424l-5.206,3.282c3.866,2.958,7.377,6.301,10.532,10.027l-2.218,1.954
		c-3.274-3.887-6.875-7.308-10.799-10.267c-3.925,3.038-7.485,6.459-10.679,10.267l-2.22-1.954
		c3.136-3.727,6.627-7.069,10.472-10.027l-5.088-3.282c-5.72-1.402-9.792-0.594-12.218,2.424c0.256,0.651,0.384,1.134,0.384,1.449
		c0.059,0.946-0.216,1.785-0.829,2.515c-0.67,0.71-1.489,1.085-2.455,1.124c-0.887,0.08-1.716-0.207-2.485-0.856
		c-0.69-0.691-1.036-1.49-1.036-2.396c-0.099-0.986,0.177-1.825,0.829-2.515c0.651-0.711,1.43-1.085,2.337-1.124
		c1.203,0,2.101,0.374,2.692,1.124c2.683-2.563,6.715-3.235,12.099-2.012c-3.51-1.992-7.396-3.659-11.655-5.001
		c-3.176,1.422-5.414,2.645-6.716,3.669c-2.051,1.6-3.215,3.521-3.491,5.769c0.276,0.119,0.662,0.435,1.153,0.947
		c0.613,0.77,0.839,1.637,0.682,2.604c-0.197,0.888-0.671,1.627-1.421,2.219c-0.709,0.592-1.547,0.809-2.515,0.65
		c-0.946-0.118-1.725-0.563-2.336-1.331c-0.494-0.771-0.671-1.598-0.533-2.484c0.118-0.986,0.562-1.766,1.332-2.338
		c0.848-0.689,1.785-0.878,2.811-0.563c0.552-2.445,1.952-4.467,4.2-6.064c1.401-0.966,3.658-2.021,6.775-3.165h-0.207
		c-3.728-0.197-6.39-0.168-7.987,0.088c-2.702,0.494-4.694,1.678-5.977,3.551l0.503,1.45c0.178,0.888,0.01,1.715-0.503,2.484
		c-0.571,0.789-1.331,1.272-2.277,1.448c-0.927,0.139-1.765-0.038-2.514-0.53c-0.829-0.612-1.322-1.361-1.479-2.249
		c-0.178-0.967,0.02-1.834,0.591-2.604c0.513-0.749,1.252-1.223,2.219-1.42c1.026-0.196,1.953,0.05,2.782,0.739
		c1.656-1.912,3.875-3.037,6.656-3.372c1.735-0.257,4.299-0.158,7.692,0.297c-6.923-2.131-13.955-3.155-21.093-3.078
		c-3.59,6.331-8.461,10.602-14.615,12.811c-6.666,2.425-13.865,1.972-21.596-1.361c3.926-7.555,9.171-12.495,15.739-14.821
		c3.254-1.164,6.557-1.636,9.91-1.421c-2.821-1.104-6.39-2.722-10.709-4.851c-5.442,6.113-11.676,9.486-18.696,10.117
		c-7.238,0.591-14.062-1.717-20.473-6.923c5.522-6.212,11.844-9.644,18.964-10.295c3.333-0.256,6.646,0.119,9.94,1.124
		c-3.531-2.288-7.001-4.782-10.413-7.484c-6.686,4.636-13.421,6.469-20.206,5.502c-7.139-0.965-13.273-4.724-18.401-11.271
		c6.666-4.892,13.569-6.854,20.708-5.888c2.742,0.395,5.404,1.233,7.988,2.515c-2.426-2.426-4.576-4.794-6.449-7.101
		c-7.514,3.333-14.555,3.866-21.123,1.598c-6.646-2.248-11.961-7.09-15.945-14.525c7.633-3.451,14.812-4.062,21.537-1.834
		c2.879,1.105,5.522,2.583,7.928,4.438c-2.169-3.273-3.944-6.252-5.324-8.935c-7.731,1.716-14.595,0.898-20.59-2.454
		c-6.075-3.373-10.414-9.142-13.017-17.308c8.165-2.051,15.363-1.311,21.596,2.219c2.307,1.341,4.359,3.017,6.153,5.03
		c-1.598-4.182-2.751-7.564-3.461-10.148l-0.118-0.355c-7.948,0.888-14.782-0.661-20.501-4.645
		c-5.7-4.142-9.349-10.325-10.946-18.548c8.342-1.125,15.374,0.384,21.093,4.526c3.451,2.505,6.183,5.77,8.194,9.792
		c-0.848-4.023-1.499-8.481-1.953-13.372c-7.849-0.69-14.111-3.521-18.785-8.491c-4.812-5.207-7.219-11.971-7.219-20.294
		c8.343,0.395,14.96,3.215,19.851,8.461c2.544,2.761,4.408,5.966,5.591,9.614c0-2.801,0.148-5.897,0.444-9.289
		c-7.633-2.761-12.978-7.199-16.034-13.313c-3.294-6.212-3.807-13.391-1.539-21.537c7.929,2.742,13.539,7.258,16.833,13.549
		c1.421,2.9,2.278,5.591,2.574,8.077c0.71-3.787,1.607-7.367,2.692-10.739c-7.455-3.234-12.553-8.056-15.295-14.466
		c-2.82-6.547-2.82-13.736,0-21.566c7.712,3.215,12.978,8.086,15.798,14.614c1.933,4.516,2.544,9.28,1.834,14.289
		c1.972-4.891,3.412-8.549,4.319-10.975c-6.312-4.713-10.167-10.374-11.568-16.981c-1.4-7.06,0.118-14.121,4.557-21.182
		C88.268,74.839,92.4,80.746,93.8,87.788c0.77,3.984,0.641,7.928-0.384,11.833c1.479-2.564,3.471-5.601,5.976-9.112
		c-5.206-6.41-7.514-13.125-6.922-20.146c0.434-7.101,3.777-13.441,10.029-19.022c5.305,6.527,7.671,13.283,7.1,20.265
		c-0.197,3.413-1.065,6.597-2.604,9.555c2.269-2.504,4.763-5.049,7.484-7.632c-3.904-7.1-4.989-14.121-3.254-21.063
		c1.677-6.864,6.075-12.504,13.194-16.922c4.123,7.179,5.276,14.269,3.462,21.271c-0.829,3.412-2.397,6.548-4.704,9.407l4.141-2.869
		c1.775-7.317,5.394-12.899,10.858-16.745C144.033,42.624,151.134,41.233,159.476,42.436z M316.269,102.254l1.924,4.023
		c-0.908-8.915,0.857-18.154,5.294-27.72c-2.168,4.241-3.707,7.711-4.614,10.414C317.394,93.152,316.525,97.58,316.269,102.254z
		 M302.306,70.067c-0.375,4.438-0.089,8.934,0.858,13.49l2.898,3.491c-3.076-8.224-3.678-17.631-1.805-28.223
		C303.152,63.5,302.502,67.247,302.306,70.067z M284.881,75.215c-2.88-0.67-6.567-1.154-11.064-1.45
		c10.846,1.262,19.741,4.487,26.685,9.674c-0.394-0.553-1.431-1.736-3.106-3.55C293.234,77.661,289.063,76.102,284.881,75.215z
		 M286.035,67.109l3.283,3.461c-3.826-8.284-5.395-17.75-4.704-28.4c-0.592,4.693-0.848,8.49-0.77,11.389
		C283.964,57.958,284.693,62.474,286.035,67.109z M305.975,99.148c-2.446-1.361-5.867-2.87-10.268-4.526
		c10.14,4.358,17.771,9.979,22.899,16.863c-0.276-0.966-0.967-2.417-2.071-4.349C313.202,103.881,309.682,101.219,305.975,99.148z
		 M277.604,62.878c-0.591-1.026-1.598-2.505-3.018-4.438c-4.043-3.412-8.116-6.144-12.218-8.195
		c-2.682-1.321-6.281-2.8-10.798-4.437C262.16,50.127,270.839,55.817,277.604,62.878z M336.978,129.115
		c-3.037,3.768-5.542,7.998-7.516,12.692l0.475,4.911c2.307-9.309,7.544-18.174,15.709-26.596
		C341.858,123.732,338.969,126.73,336.978,129.115z M324.079,120.507l1.124,4.349c0.789-8.855,4.259-17.641,10.413-26.359
		c-2.958,3.846-5.139,6.992-6.537,9.438C326.83,111.78,325.164,115.972,324.079,120.507z M329.255,161.51
		c-2.563-4.358-5.601-8.224-9.11-11.596c-2.249-2.131-5.493-4.733-9.733-7.81c9.033,7.179,15.343,15.284,18.934,24.317
		L329.255,161.51z M326.564,135.062c-3.195-3.451-6.727-6.301-10.592-8.549c-2.426-1.479-5.828-3.117-10.206-4.911
		c9.645,4.595,16.961,10.522,21.951,17.78L326.564,135.062z M341.385,152.191c-3.845,3.017-7.247,6.617-10.205,10.797l-0.593,4.793
		c4.379-8.58,11.448-16.055,21.212-22.425C347.163,148.059,343.692,150.337,341.385,152.191z M242.458,270.586
		c3.768-3.453,6.903-7.27,9.408-11.449c1.655-2.743,3.489-6.489,5.502-11.242c-5.088,10.531-11.637,18.489-19.644,23.874
		L242.458,270.586z M247.251,273.101c9.485,0.53,19.14,4.052,28.962,10.561c-4.103-3.057-7.573-5.325-10.413-6.805
		c-4.201-2.366-8.816-4.093-13.847-5.177L247.251,273.101z M340.351,177.81c-4.36,2.13-8.482,4.862-12.366,8.195l-1.598,4.615
		c6.271-7.435,14.83-13.145,25.678-17.129C347.056,175.01,343.15,176.45,340.351,177.81z M319.641,177.928
		c-1.538-2.859-3.846-6.331-6.922-10.413c6.469,9.545,10.029,19.2,10.68,28.962l1.331-4.733
		C323.645,186.755,321.949,182.149,319.641,177.928z M320.824,208.134l-2.218,4.438c6.863-6.744,15.975-11.558,27.334-14.437
		c-5.205,1.065-9.219,2.111-12.039,3.136C329.266,202.887,324.908,205.175,320.824,208.134z M307.423,192.454
		c3.729,11.044,4.625,21.271,2.692,30.68l2.604-4.202c0.196-5.088-0.256-9.969-1.36-14.645
		C310.648,201.212,309.336,197.267,307.423,192.454z M305.767,232.481c8.224-5.207,18.115-7.997,29.672-8.373
		c-5.146-0.058-9.279,0.128-12.396,0.563c-4.832,0.591-9.595,1.903-14.289,3.935L305.767,232.481z M290.177,249.138
		c9.072-3.473,19.307-4.34,30.707-2.604c-5.246-1.025-9.349-1.628-12.307-1.805c-4.871-0.355-9.783,0.03-14.731,1.154
		L290.177,249.138z M277.604,245.112c0.75-3.036,1.439-7.118,2.071-12.247c-1.973,11.439-6.065,20.876-12.277,28.312l4.318-2.396
		C274.34,254.422,276.301,249.865,277.604,245.112z M290.975,245.291l3.461-3.461c1.461-4.872,2.189-9.753,2.189-14.645
		c0.08-3.077-0.226-7.209-0.918-12.396C296.654,226.584,295.078,236.752,290.975,245.291z M268.521,263.188
		c9.507-1.478,19.702-0.128,30.59,4.053c-4.734-2.11-8.57-3.588-11.508-4.437c-4.693-1.342-9.605-2.013-14.733-2.013
		L268.521,263.188z M122.586,75.215c-4.181,0.887-8.363,2.446-12.544,4.674c-1.519,1.538-2.564,2.722-3.136,3.55
		c6.923-5.188,15.808-8.412,26.655-9.674C129.084,74.061,125.425,74.544,122.586,75.215z M121.254,67.109
		c1.399-4.636,2.168-9.152,2.307-13.55c0.059-2.899-0.197-6.696-0.77-11.389c0.691,10.65-0.877,20.116-4.704,28.4L121.254,67.109z
		 M129.833,62.878c6.706-7.061,15.354-12.751,25.945-17.07c-4.477,1.538-8.066,3.018-10.769,4.437
		c-4.023,2.052-8.066,4.783-12.129,8.195C131.48,60.177,130.464,61.656,129.833,62.878z M91.197,102.254
		c-0.256-4.674-1.125-9.102-2.604-13.283c-0.888-2.663-2.456-6.134-4.704-10.414c4.418,9.743,6.192,18.983,5.324,27.72
		L91.197,102.254z M105.102,70.067c-0.217-2.82-0.868-6.567-1.953-11.242c1.874,10.591,1.263,19.999-1.834,28.223l2.87-3.491
		C105.17,79.001,105.476,74.505,105.102,70.067z M101.404,99.148c-3.708,2.071-7.238,4.733-10.592,7.988
		c-1.064,1.932-1.725,3.382-1.982,4.349c5.108-6.883,12.741-12.504,22.898-16.863C107.311,96.278,103.869,97.787,101.404,99.148z
		 M83.357,120.507c-1.125-4.535-2.801-8.727-5.03-12.572c-1.361-2.505-3.52-5.651-6.478-9.438
		c6.035,8.599,9.477,17.386,10.325,26.359L83.357,120.507z M80.842,135.062l-1.183,4.32c4.989-7.297,12.336-13.224,22.039-17.78
		c-4.417,1.794-7.878,3.432-10.383,4.911C87.529,128.761,84.038,131.611,80.842,135.062z M78.121,161.51l-0.089,4.911
		c3.589-9.033,9.921-17.139,18.993-24.317c-4.26,3.077-7.514,5.679-9.762,7.81C83.732,153.286,80.686,157.152,78.121,161.51z
		 M66.938,177.81c-2.761-1.36-6.616-2.8-11.567-4.319c10.867,4.023,19.407,9.733,25.62,17.129l-1.628-4.615
		C75.518,182.672,71.376,179.94,66.938,177.81z M66.08,152.191c-2.366-1.854-5.857-4.132-10.472-6.834
		c9.743,6.37,16.804,13.845,21.182,22.425c-0.256-2.111-0.453-3.708-0.592-4.793C73.24,158.808,69.867,155.208,66.08,152.191z
		 M77.529,146.718l0.385-4.911c-1.993-4.694-4.487-8.924-7.485-12.692c-1.972-2.464-4.861-5.463-8.667-8.993
		C69.906,128.465,75.163,137.331,77.529,146.718z M82.647,191.745l1.45,4.733c0.512-9.486,4.043-19.141,10.59-28.962
		c-3.076,4.082-5.354,7.554-6.834,10.413C85.468,182.149,83.732,186.755,82.647,191.745z M86.612,208.134
		c-4.123-2.959-8.5-5.247-13.135-6.863c-2.8-1.025-6.804-2.071-12.011-3.136c11.36,2.939,20.433,7.75,27.217,14.437L86.612,208.134z
		 M94.688,218.932l2.604,4.202c-1.933-9.409-1.036-19.636,2.692-30.68c-1.933,4.99-3.254,8.935-3.964,11.833
		C94.935,208.963,94.491,213.844,94.688,218.932z M117.29,249.138l-3.757-3.255c-4.93-1.124-9.832-1.51-14.703-1.154
		c-2.958,0.177-7.08,0.779-12.366,1.805C97.903,244.798,108.178,245.665,117.29,249.138z M101.699,232.481l-3.106-3.876
		c-4.674-2.031-9.407-3.344-14.2-3.935c-3.097-0.435-7.238-0.62-12.425-0.563C83.505,224.484,93.416,227.274,101.699,232.481z
		 M116.432,245.291c-4.103-8.796-5.641-18.964-4.615-30.502c-0.71,5.109-1.064,9.24-1.064,12.396c0,4.832,0.74,9.714,2.219,14.645
		L116.432,245.291z M119.894,262.805c-2.959,0.849-6.844,2.326-11.656,4.437c10.965-4.181,21.172-5.53,30.619-4.053l-4.319-2.396
		C129.409,260.792,124.528,261.463,119.894,262.805z M129.921,245.112c1.223,4.753,3.186,9.31,5.888,13.669l4.201,2.396
		c-6.233-7.436-10.334-16.872-12.308-28.312C128.334,237.994,129.074,242.076,129.921,245.112z M164.949,270.586l4.733,1.183
		c-7.908-5.345-14.426-13.304-19.554-23.874c2.051,4.871,3.875,8.619,5.473,11.242C158.125,263.316,161.241,267.133,164.949,270.586
		z M160.215,273.101l-4.792-1.421c-4.951,1.084-9.575,2.811-13.875,5.177c-2.682,1.42-6.144,3.688-10.384,6.805
		C140.966,277.152,150.65,273.631,160.215,273.101z"/>
	<path fill-rule="evenodd" clip-rule="evenodd" fill="#1A244F" d="M263.967,114.709l-0.208,0.059l-7.16-1.953l-0.946-0.118
		l-0.444-0.147l-1.981-0.474l-0.473-0.06l2.485,9.911l0.502,3.669l5.206,2.633l0.681,0.237l9.467,6.449
		c-0.158-0.839-0.337-1.682-0.533-2.529c-0.856-3.683-2.078-7.425-3.668-11.227L263.967,114.709z M268.669,118.022
		c0.41,0.92,0.801,1.847,1.168,2.78c0.252,0.619,0.494,1.241,0.725,1.864c1.352,3.646,2.426,7.394,3.225,11.242h0.06
		c2.209,10.788,2.002,21.547-0.621,32.276c-2.722,11.044-7.741,20.925-15.058,29.643c-5.687,6.816-12.303,12.379-19.851,16.685
		c-2.189,1.25-4.457,2.395-6.804,3.432c-3.681,1.606-7.438,2.904-11.272,3.892c-6.566,1.685-13.359,2.458-20.383,2.321l-0.059-0.03
		c-6.134-0.314-11.587-1.104-16.36-2.365l-0.029,0.028c-1.243-0.354-1.992-0.591-2.249-0.709c-0.039,0-0.088-0.011-0.148-0.03
		c-4.358-1.282-8.264-2.779-11.715-4.496l-0.059-0.029c-2.544-1.204-5.178-2.693-7.899-4.468v-0.03
		c-1.834-1.142-3.6-2.425-5.295-3.845v-0.061l-1.568-1.271c-1.58-1.329-3.099-2.72-4.556-4.172c-1.91-1.9-3.714-3.908-5.414-6.02
		c-2.302-2.868-4.412-5.93-6.331-9.186c-7.593-13.214-10.799-27.444-9.615-42.689c0.834-10.988,3.856-21.086,9.068-30.294
		c0.11-0.203,0.223-0.404,0.34-0.606c2.109-3.646,4.564-7.151,7.366-10.517c1.429-1.698,2.908-3.315,4.438-4.852
		c0.984-0.987,1.99-1.944,3.017-2.869c0.584-0.524,1.176-1.037,1.775-1.539c0.129-0.109,0.258-0.218,0.384-0.325
		c4.434-3.667,9.237-6.749,14.407-9.245c1.962-0.947,3.979-1.81,6.049-2.588c2.537-0.956,5.155-1.784,7.855-2.486
		c4.663-1.206,9.298-1.965,13.904-2.278c6.566-0.452,13.073,0.001,19.525,1.361c3.458,0.725,6.9,1.71,10.324,2.958l0.031-0.03
		c0.907,0.345,1.805,0.705,2.69,1.08c1.323,0.555,2.62,1.142,3.891,1.76c5.554,2.695,10.646,5.989,15.28,9.881v-0.029l1.508,1.301
		c0.994,0.913,1.867,1.731,2.619,2.456c0.127,0.121,0.251,0.239,0.37,0.354c0.711,0.684,1.303,1.276,1.774,1.775
		c0.02,0.021,0.029,0.05,0.029,0.089c1.004,0.965,2.168,2.262,3.491,3.89c0.404,0.498,0.824,1.025,1.257,1.583
		c0.35,0.453,0.709,0.926,1.081,1.419c2.307,3.136,4.476,6.706,6.508,10.709L268.669,118.022z M270.681,164.41
		c1.795-7.731,2.238-15.434,1.331-23.105l-1.095-1.095l-3.639-2.899l-7.751-5.029l-3.284-1.687l0.355,2.9l0.031,9.526l2.247,1.183
		l2.839,2.07l1.214,1.213l0.296,0.414l0.828,0.858l2.101,2.751l2.219,4.615l1.745,5.118L270.681,164.41z M264.527,157.783
		l-2.071-4.083l-1.656-2.248l-2.959-2.811l-1.271-0.74l-0.177-0.177l-1.48,10.177l-3.905,13.076l-5.65,11.833l-7.661,11.212
		l-9.911,10.562l-12.426,9.584l-8.164,4.912c4.46-0.341,8.81-1.07,13.046-2.19c4.108-1.093,8.112-2.552,12.011-4.378
		c0.478-0.221,0.951-0.448,1.421-0.681c8.638-4.358,16.083-10.274,22.336-17.75c4.931-5.857,8.845-12.395,11.744-19.614l-1.834-12.1
		L264.527,157.783z M229.736,83.602c-1.039-0.449-2.093-0.878-3.165-1.287c-0.646-0.244-1.297-0.48-1.952-0.709
		c-2.614-0.864-5.257-1.574-7.929-2.13c-4.038-0.852-8.14-1.354-12.306-1.508c-2.423-0.077-4.83-0.031-7.219,0.133
		c-4.004,0.278-7.963,0.895-11.877,1.85c-0.431,0.104-0.86,0.212-1.288,0.325l7.367,0.148l10.59,1.775l8.906,3.047l7.425,3.875
		l19.702,12.78l8.195,3.787l-1.923-4.793l-7.307-13.667C234.652,85.896,232.247,84.688,229.736,83.602z M216.158,92.758
		l-4.556-2.485l-10.709-3.875l-9.94-1.598l-12.158-0.207l-8.55,0.77c-0.297,0.148-0.594,0.301-0.888,0.458
		c-3.395,1.752-6.6,3.739-9.614,5.961c-1.792,1.322-3.519,2.727-5.177,4.215c-0.193,0.17-0.386,0.343-0.577,0.518
		c-0.404,0.37-0.804,0.744-1.199,1.125c-1.811,1.738-3.537,3.583-5.177,5.532c-2.502,2.998-4.721,6.104-6.656,9.318
		c-1.085,1.811-2.081,3.654-2.987,5.533c-3.564,7.388-5.735,15.307-6.509,23.755l20.975-12.07l19.17-7.367l18.993-4.555l6.567-0.695
		l17.631-0.962l16.982,1.834l5.56,1.154l0.297,0.148l9.94,2.84l3.46,1.509l-2.81-12.07l-0.326-0.829l-1.241-0.415l-10.769-4.733
		L216.158,92.758z M250.326,104.177l1.008,3.046l0.146,0.148l1.302,0.207l0.622,0.237l7.277,1.686l-1.242-1.952
		c-0.24-0.331-0.487-0.662-0.74-0.991c-0.729-0.97-1.508-1.951-2.337-2.943c-0.879-1.06-1.815-2.134-2.812-3.225
		c-0.049-0.05-0.099-0.099-0.146-0.147c-2.09-2.121-3.543-3.561-4.364-4.319c-0.144-0.127-0.267-0.236-0.37-0.326l-3.608-2.988
		L250.326,104.177z M197.254,121.217l-6.598,0.888l-11.656,2.515l-18.519,6.3l-7.692,3.507l-11.005,5.783l-10.532,6.893
		c-0.354,12.564,2.505,24.446,8.579,35.649c1.664,2.894,3.222,5.368,4.675,7.425c0.27,0.377,0.536,0.743,0.798,1.095l12.78-2.277
		l5-1.45l13.134-5.443l4.912-2.751l13.549-8.756l30.353-22.662l3.284-2.041l10.029-4.26l3.49-0.68l6.744-0.236l3.846,0.769
		l-0.177-6.538l0.089-0.622l-0.622-5.917l-10.412-3.845l-5.029-1.332l-1.717-0.267l-3.52-0.917l-16.479-1.687L197.254,121.217z
		 M224.086,153.552l-32.364,24.169l-12.928,7.692l-8.964,4.26l-0.474,0.088l-10.147,3.373l-10.68,2.042
		c1.973,2.155,3.763,3.988,5.37,5.502c0.833,0.788,1.617,1.488,2.352,2.101c0.69,0.591,1.213,0.995,1.567,1.212
		c1.361,1.165,3.196,2.505,5.503,4.024c2.308,1.52,5.009,3.007,8.106,4.468c3.787,1.833,7.859,3.282,12.218,4.348
		c0.65,0.296,1.459,0.532,2.425,0.71c3.175,0.691,6.992,1.244,11.449,1.657l1.361-0.592l14.201-8.046l11.804-9.231l9.406-9.91
		l3.964-5.177l6.42-11.034l3.729-9.615l3.165-13.52l0.562-5.946l0.088-0.147l-1.213-0.385l-2.929-0.562l-2.781-0.148l-2.958,0.326
		l-5.769,1.627l-6.152,2.84L224.086,153.552z"/>
	<path fill-rule="evenodd" clip-rule="evenodd" fill="#F15B3A" d="M365.2,339.456c-0.257,0.116-0.434,0.314-0.532,0.591
		c-0.117,0.257-0.139,0.523-0.06,0.8l5.267,19.643l-34.2-12.78l-0.059-0.029l1.214-8.846c2.781,1.006,5.334,2.14,7.661,3.401
		c0.237,0.119,0.493,0.157,0.769,0.119c0.276-0.061,0.504-0.188,0.681-0.384c0.179-0.218,0.277-0.464,0.298-0.74
		c0.434-7.79,1.252-13.992,2.454-18.609c0.236-0.945,0.552-1.981,0.946-3.105l32.927,11.33L365.2,339.456z M170.245,85.362
		l8.55-0.77l12.158,0.207l6.479,1.065c-0.089,0.016-0.178,0.03-0.267,0.044c-5.857,1.05-11.617,3.007-17.277,5.873
		c-0.711,0.36-1.421,0.735-2.129,1.125c-2.05,1.127-4.008,2.33-5.872,3.608c-0.862,0.596-1.706,1.207-2.53,1.834
		c-5.298,4.035-9.751,8.748-13.357,14.141c-0.492,0.742-0.971,1.496-1.434,2.263c-0.621,1.028-1.212,2.078-1.775,3.151
		c-0.497,0.949-0.971,1.915-1.42,2.899c-1.369,2.974-2.533,6.109-3.491,9.408c-0.237,0.828-0.463,1.667-0.681,2.515l-15.738,9.052
		c0.774-8.449,2.944-16.367,6.509-23.755c0.906-1.878,1.902-3.722,2.987-5.533c1.935-3.214,4.154-6.32,6.656-9.318
		c1.641-1.949,3.366-3.793,5.177-5.532c0.395-0.381,0.794-0.755,1.199-1.125c0.191-0.175,0.384-0.348,0.577-0.518
		c1.658-1.488,3.385-2.894,5.177-4.215c3.015-2.222,6.22-4.209,9.614-5.961C169.651,85.663,169.947,85.51,170.245,85.362z
		 M253.404,100.243c0.048,0.048,0.098,0.097,0.146,0.147c0.996,1.091,1.933,2.166,2.812,3.225c0.829,0.992,1.607,1.973,2.337,2.943
		c0.253,0.33,0.5,0.66,0.74,0.991l1.242,1.952l-3.995-1.035c-1.045-1.334-2.14-2.615-3.282-3.846
		c-0.317-0.339-0.637-0.675-0.962-1.006c-1.323-1.359-2.709-2.651-4.156-3.875l-3.225-7.13l3.608,2.988
		c0.104,0.089,0.227,0.198,0.37,0.326C249.861,96.682,251.314,98.122,253.404,100.243z M229.736,83.602
		c2.511,1.086,4.916,2.295,7.22,3.624l3.786,7.071c-3.421-2.049-7.089-3.785-11.006-5.208c-1.435-0.527-2.904-1.01-4.407-1.449
		c-2.902-0.847-5.782-1.488-8.639-1.923c-2.133-0.333-4.252-0.55-6.359-0.651l-8.374-2.87l-10.59-1.775L184,80.273
		c0.428-0.113,0.857-0.221,1.288-0.325c3.915-0.955,7.874-1.572,11.877-1.85c2.39-0.164,4.796-0.209,7.219-0.133
		c4.166,0.154,8.268,0.657,12.306,1.508c2.672,0.556,5.314,1.266,7.929,2.13c0.655,0.229,1.306,0.466,1.952,0.709
		C227.644,82.723,228.697,83.152,229.736,83.602z M270.118,161.244l-0.769-2.188c1.321-6.627,1.549-13.145,0.681-19.556l0.887,0.71
		l1.095,1.095c0.907,7.671,0.464,15.374-1.331,23.105L270.118,161.244z M271.095,134.914l-2.248-1.687
		c-1.013-4.19-2.512-8.332-4.497-12.425c-0.528-1.088-1.089-2.173-1.687-3.254c-0.69-1.262-1.41-2.485-2.159-3.668l3.255,0.887
		l0.208-0.059l2.927,6.449c1.59,3.802,2.812,7.544,3.668,11.227C270.758,133.232,270.937,134.075,271.095,134.914z M232.251,212.512
		c-3.898,1.826-7.902,3.285-12.011,4.378c-4.236,1.12-8.586,1.85-13.046,2.19l8.164-4.912l7.308-5.591
		c5.208-1.32,10.315-3.361,15.324-6.123c12.243-6.731,21.113-16.198,26.61-28.4c0.82-1.813,1.565-3.688,2.234-5.621l0.917,6.035
		c-2.899,7.219-6.813,13.756-11.744,19.614c-6.253,7.476-13.698,13.392-22.336,17.75
		C233.202,212.063,232.729,212.291,232.251,212.512z M183.646,216.831c-4.359-1.065-8.431-2.515-12.218-4.348
		c-3.097-1.461-5.798-2.948-8.106-4.468c-2.307-1.52-4.142-2.859-5.503-4.024c-0.354-0.217-0.877-0.621-1.567-1.212
		c-0.735-0.613-1.519-1.313-2.352-2.101c-1.607-1.514-3.397-3.347-5.37-5.502l10.68-2.042l4.142-1.39
		c1.884,1.935,3.887,3.725,6.006,5.369c6.067,4.707,13.098,8.223,21.094,10.546c3.658,1.065,7.277,1.811,10.856,2.233
		c4.177,0.501,8.299,0.565,12.366,0.193l-0.591,0.474l-14.201,8.046l-1.361,0.592c-4.457-0.413-8.274-0.966-11.449-1.657
		C185.105,217.363,184.296,217.127,183.646,216.831z M316.505,280.11v0.03c-1.498,4.99-2.386,8.885-2.662,11.685l-0.029,0.089v0.06
		c-0.06,0.632-0.088,1.213-0.088,1.744l0.354,19.911c-7.928-2.131-18.343-4.251-31.24-6.36c-2.406-0.396-4.813-0.759-7.22-1.094
		c-0.019-0.021-0.04-0.03-0.058-0.03c-0.04,0-0.07,0-0.089,0c-0.04-0.021-0.069-0.029-0.09-0.029c-0.04,0-0.068,0-0.088,0
		c-24.812-3.67-49.76-5.426-74.847-5.268c-28.381,0.238-55.193,2.042-80.438,5.414c-0.039,0-0.089,0-0.147,0
		c-0.06,0-0.118,0.012-0.178,0.029c-3.175,0.436-6.312,0.888-9.408,1.361h-0.029l-31.004,6.095c-0.275-8.304-0.572-15-0.887-20.086
		c-0.02-0.376-0.05-0.771-0.089-1.184v-0.03c0-0.039,0-0.09,0-0.148v-0.029c-0.256-3.176-0.838-7.316-1.745-12.426l-0.03-0.029
		l-1.301-6.597l40.056-7.574h-0.03c32.266-5.284,60.547-7.929,84.847-7.929c27.848,0,56.219,2.645,85.111,7.929
		c13.785,2.466,25.008,4.942,33.666,7.426L316.505,280.11z M131.253,147.103l10.532-6.893l4.319-2.278
		c-1.749,10.369-0.866,20.437,2.647,30.205c1.166,3.238,2.62,6.443,4.364,9.615c2.13,3.865,4.517,7.396,7.159,10.591l-2.189,0.651
		l-12.78,2.277c-0.262-0.352-0.529-0.717-0.798-1.095c-1.453-2.057-3.011-4.531-4.675-7.425
		C133.758,171.549,130.898,159.667,131.253,147.103z M118.858,308.776l1.508,19.586c-20.254,0.689-35.362,1.844-45.322,3.46
		c-5.522,0.908-10.837,2.239-15.946,3.995c-0.197,0.02-0.354,0.068-0.473,0.147c-0.67,0.236-1.341,0.481-2.012,0.739h-0.029
		l-5.354,2.337c-0.474-7.198-1.282-12.997-2.426-17.396c-0.335-1.262-0.778-2.673-1.332-4.23c-0.02-0.058-0.039-0.118-0.06-0.178
		c-0.019-0.059-0.039-0.116-0.059-0.177c-0.75-2.091-1.676-4.427-2.781-7.012c0-0.02,0-0.039,0-0.06l-2.337-5.029l6.272-2.751
		c6.016-2.484,11.893-4.456,17.632-5.916l9.852-2.426c0.334,5.345,0.641,12.454,0.917,21.329c0,0.236,0.069,0.454,0.208,0.651
		c0.138,0.196,0.315,0.335,0.532,0.414c0.218,0.08,0.444,0.098,0.68,0.059l32.306-6.331
		C113.355,309.577,116.096,309.172,118.858,308.776z M29.988,339.07l-17.365-8.608l32.955-11.331
		c0.375,1.125,0.691,2.159,0.947,3.106c1.183,4.615,1.991,10.817,2.426,18.609c0.02,0.255,0.119,0.491,0.295,0.709
		c0.158,0.197,0.365,0.325,0.622,0.385c0.237,0.059,0.483,0.039,0.739-0.06l6.894-2.987c0.275-0.118,0.562-0.228,0.857-0.325
		l1.213,8.697l-0.06,0.029l-34.316,12.78l5.414-19.614c0.059-0.277,0.039-0.543-0.06-0.798
		C30.432,339.387,30.245,339.189,29.988,339.07z M350.646,310.375c-0.021,0.021-0.031,0.039-0.031,0.059
		c-1.123,2.644-2.052,5.029-2.781,7.159l-0.029,0.03c-0.592,1.638-1.055,3.105-1.391,4.407c-1.162,4.359-1.973,10.118-2.425,17.277
		c-2.328-1.144-4.844-2.189-7.544-3.136c-0.02,0-0.04-0.01-0.061-0.029c-0.038-0.02-0.088-0.04-0.146-0.061h-0.029
		c-4.734-1.616-10.079-2.898-16.035-3.847c-6.371-1.063-16.034-1.99-28.992-2.779l-16.359-0.829l1.568-19.968
		c2.01,0.296,4.033,0.612,6.064,0.946c13.647,2.228,24.495,4.467,32.542,6.715c0.236,0.06,0.474,0.05,0.709-0.028
		c0.237-0.099,0.425-0.248,0.563-0.444c0.138-0.217,0.208-0.454,0.208-0.71l-0.385-21.448c0-0.06,0-0.109,0-0.147l12.987,3.135
		c8.757,2.15,16.724,5.029,23.902,8.638L350.646,310.375z"/>
	<path fill-rule="evenodd" clip-rule="evenodd" fill="#C64327" d="M268.847,133.228l-7.219-4.762l-0.681-0.237l-5.206-2.633
		l-0.502-3.669l-2.485-9.911l0.473,0.06l1.981,0.474l0.444,0.147l0.946,0.118l3.905,1.065c0.749,1.184,1.469,2.406,2.159,3.668
		c0.598,1.081,1.158,2.166,1.687,3.254C266.335,124.896,267.834,129.038,268.847,133.228z M264.527,157.783l1.391,4.585l0.917,6.065
		c-0.669,1.934-1.414,3.808-2.234,5.621c-5.497,12.203-14.367,21.669-26.61,28.4c-5.009,2.762-10.116,4.803-15.324,6.123
		l5.118-3.993l9.911-10.562l7.661-11.212l5.65-11.833l3.905-13.076l1.48-10.177l0.177,0.177l1.271,0.74l2.959,2.811l1.656,2.248
		L264.527,157.783z M266.154,151.511l-2.101-2.751l-0.828-0.858l-0.296-0.414l-1.214-1.213l-2.839-2.07l-2.247-1.183l-0.031-9.526
		l-0.355-2.9l3.284,1.687l7.751,5.029l2.752,2.189c0.868,6.411,0.641,12.929-0.681,19.556l-0.977-2.929L266.154,151.511z
		 M225.329,87.64c1.503,0.439,2.973,0.922,4.407,1.449c3.917,1.423,7.585,3.158,11.006,5.208l3.521,6.597l1.923,4.793l-8.195-3.787
		l-19.702-12.78l-7.425-3.875l-0.532-0.178c2.107,0.102,4.227,0.318,6.359,0.651C219.547,86.152,222.427,86.793,225.329,87.64z
		 M224.086,153.552l6.332-3.875l6.152-2.84l5.769-1.627l2.958-0.326l2.781,0.148l2.929,0.562l1.213,0.385l-0.088,0.147l-0.562,5.946
		l-3.165,13.52l-3.729,9.615l-6.42,11.034l-3.964,5.177l-9.406,9.91l-11.213,8.758c-4.067,0.372-8.189,0.308-12.366-0.193
		c-3.579-0.423-7.198-1.168-10.856-2.233c-7.996-2.323-15.027-5.84-21.094-10.546c-2.119-1.645-4.122-3.434-6.006-5.369l6.006-1.982
		l0.474-0.088l8.964-4.26l12.928-7.692L224.086,153.552z M197.254,121.217l17.305-0.858l16.479,1.687l3.52,0.917l1.717,0.267
		l5.029,1.332l10.412,3.845l0.622,5.917l-0.089,0.622l0.177,6.538l-3.846-0.769l-6.744,0.236l-3.49,0.68l-10.029,4.26l-3.284,2.041
		l-30.353,22.662l-13.549,8.756l-4.912,2.751l-13.134,5.443l-2.811,0.799c-2.643-3.195-5.029-6.726-7.159-10.591
		c-1.744-3.172-3.198-6.377-4.364-9.615c-3.513-9.768-4.396-19.836-2.647-30.205l6.686-3.505l7.692-3.507l18.519-6.3l11.656-2.515
		L197.254,121.217z M250.326,104.177l-2.04-4.438c1.447,1.224,2.833,2.516,4.156,3.875c0.325,0.331,0.645,0.667,0.962,1.006
		c1.143,1.23,2.237,2.512,3.282,3.846l-3.282-0.651l-0.622-0.237l-1.302-0.207l-0.146-0.148L250.326,104.177z M216.158,92.758
		l19.732,12.81l10.769,4.733l1.241,0.415l0.326,0.829l2.81,12.07l-3.46-1.509l-9.94-2.84l-0.297-0.148l-5.56-1.154l-16.982-1.834
		l-17.631,0.962l-6.567,0.695l-18.993,4.555l-19.17,7.367l-5.236,3.018c0.218-0.848,0.444-1.687,0.681-2.515
		c0.958-3.299,2.122-6.435,3.491-9.408c0.449-0.984,0.923-1.95,1.42-2.899c0.563-1.073,1.155-2.123,1.775-3.151
		c0.463-0.767,0.942-1.521,1.434-2.263c3.606-5.393,8.06-10.105,13.357-14.141c0.824-0.628,1.667-1.239,2.53-1.834
		c1.864-1.279,3.822-2.481,5.872-3.608c0.708-0.39,1.418-0.764,2.129-1.125c5.661-2.866,11.42-4.823,17.277-5.873
		c0.089-0.014,0.177-0.028,0.267-0.044l3.461,0.533l10.709,3.875L216.158,92.758z"/>
</g>
</svg>
