<?xml version="1.0" encoding="utf-8"?>
<!-- Generator: Adobe Illustrator 16.0.0, SVG Export Plug-In . SVG Version: 6.00 Build 0)  -->
<!DOCTYPE svg PUBLIC "-//W3C//DTD SVG 1.1//EN" "http://www.w3.org/Graphics/SVG/1.1/DTD/svg11.dtd">
<svg version="1.1" id="Layer_1" xmlns="http://www.w3.org/2000/svg" xmlns:xlink="http://www.w3.org/1999/xlink" x="0px" y="0px"
	 width="400px" height="400px" viewBox="0 0 400 400" enable-background="new 0 0 400 400" xml:space="preserve">
<g>
	<path fill-rule="evenodd" clip-rule="evenodd" fill="#111730" d="M265.06,104.259c4.475-6.804,6.251-13.415,5.329-19.833
		c-1.021-6.82-4.575-10.817-10.658-11.99c-2.933-0.503-5.555-0.076-7.868,1.282c-2.313,1.34-3.703,3.477-4.173,6.41
		c-0.368,2.497-0.059,4.517,0.931,6.058c0.52,0.737,1.072,1.29,1.659,1.659c0.62,0.352,1.5,0.603,2.64,0.754
		c0.469,0.117,1.399,0.269,2.79,0.453c2.681,0.469,4.223,2.137,4.625,5.002c0.402,2.782-0.444,4.868-2.539,6.259
		c-2.664,1.759-5.338,1.617-8.019-0.428c-2.347-1.81-3.888-4.248-4.625-7.315l-0.428-1.332c-1.072-4.475-2.891-7.332-5.455-8.572
		l-0.653-0.276c0,1.301-0.167,15.055-0.503,41.263c-0.018,1.135-0.034,2.296-0.05,3.481c-0.032,0.313-0.095,0.677-0.188,1.093
		c-0.198,0.886-0.537,2.004-1.019,3.356c-0.804,2.313-1.734,4.332-2.79,6.058l-1.508,1.986c-0.168,0.185-0.218,0.276-0.151,0.276
		l23.63-24.534C258.499,113.107,261.507,109.404,265.06,104.259z M271.771,70.198c-0.117,0.62,0.009,1.315,0.377,2.086
		c0.218,0.402,0.62,1.005,1.207,1.81c2.781,4.424,4.013,9.753,3.695,15.987c-0.486,5.832-2.179,11.312-5.078,16.44
		c-1.331,2.336-3.053,4.888-5.166,7.654c-0.931,1.216-1.937,2.473-3.016,3.771c-0.25,0.298-0.501,0.6-0.755,0.905
		c-0.716,0.838-1.462,1.693-2.237,2.564c-0.956,1.077-1.957,2.179-3.004,3.306c-6.736,7.139-12.619,12.435-17.646,15.887
		c-3.368,2.279-7.768,4.5-13.197,6.661c-2.697,1.123-4.014,2.07-3.946,2.841l0.276,0.503c0.154,0.266,0.335,0.509,0.541,0.729
		c0.547,0.582,1.28,1.017,2.199,1.308c1.071,0.436,1.951,1.123,2.64,2.061c0.179,0.25,0.347,0.518,0.503,0.805
		c0.988,1.642,1.097,3.402,0.326,5.279c-0.703,1.894-1.91,3.226-3.619,3.997c-2.062,0.854-4.131,0.805-6.209-0.151
		c-1.333-0.627-2.317-1.511-2.954-2.652c-0.457-0.804-0.737-1.738-0.842-2.803c-0.117-1.173,0.284-2.916,1.207-5.229l0.653-1.407
		l-4.224,2.79c-3.233,2.564-5.823,5.329-7.768,8.295c-0.771,1.257-1.424,2.522-1.96,3.795c-1.257,2.899-1.844,5.891-1.76,8.974
		c0.101,3.988,0.904,6.971,2.413,8.949c0.284,0.335,1.366,1.231,3.243,2.689c1.089,0.922,1.691,1.969,1.81,3.142
		c0.185,1.575-0.276,2.807-1.383,3.695c-1.726,1.173-2.766,2.069-3.117,2.689c-0.955,1.709-1.399,4.214-1.332,7.516
		c0.15,8.362,1.307,14.446,3.469,18.25c2.347,4.592,6.653,7.616,12.921,9.074c3.519,0.771,6.192,2.899,8.019,6.385h-69.429
		c1.76-3.485,4.415-5.614,7.968-6.385c6.117-1.458,10.457-4.482,13.021-9.074c2.095-3.921,3.234-10.005,3.419-18.25
		c0.033-2.044-0.093-3.745-0.377-5.103h-0.051c0-0.033,0-0.092,0-0.176c-0.234-0.938-0.569-1.684-1.006-2.237
		c-0.284-0.62-1.273-1.517-2.966-2.689c-1.106-0.888-1.601-2.12-1.483-3.695c0.117-1.173,0.704-2.22,1.76-3.142
		c1.91-1.458,3.008-2.354,3.293-2.689c1.542-1.978,2.371-4.961,2.488-8.949c0.034-3.083-0.553-6.075-1.759-8.974
		c-0.486-1.273-1.182-2.539-2.087-3.795c-1.702-2.69-3.977-5.216-6.824-7.579c-0.29-0.238-0.588-0.478-0.893-0.716l-4.273-2.79
		l0.604,1.156c0.955,2.162,1.391,3.989,1.307,5.48c-0.251,2.563-1.441,4.382-3.569,5.455c-2.078,0.956-4.181,1.005-6.31,0.151
		c-1.726-0.872-2.941-2.204-3.645-3.997c-0.805-1.877-0.713-3.637,0.276-5.279c0.804-1.357,1.835-2.313,3.092-2.866
		c1.247-0.37,2.169-0.973,2.765-1.811c0.053-0.073,0.104-0.148,0.151-0.226l0.05-0.654c0.101-0.67-1.365-1.659-4.398-2.966
		c-0.924-0.356-1.815-0.716-2.678-1.081c-3.938-1.667-7.26-3.435-9.967-5.304c-5.094-3.452-10.96-8.748-17.596-15.887
		c-1.776-1.958-3.418-3.835-4.928-5.631c-0.768-0.912-1.501-1.799-2.199-2.665c-0.838-1.038-1.625-2.043-2.362-3.017
		c-0.915-1.213-1.753-2.378-2.514-3.494c-0.812-1.186-1.536-2.317-2.175-3.394c-2.899-5.062-4.55-10.541-4.952-16.44
		c-0.469-6.234,0.688-11.563,3.47-15.987c0.653-0.888,1.072-1.55,1.256-1.986c0.402-0.771,0.478-1.5,0.227-2.187l-0.227-0.779
		c-0.368-0.687-1.281-1.073-2.739-1.157c-1.793-0.184-2.892-0.352-3.293-0.502c-2.279-1.24-3.185-3.067-2.716-5.48
		c0.638-2.832,2.33-4.173,5.078-4.022c2.447,0.067,4.751,1.567,6.913,4.5c1.14,1.508,2.003,2.321,2.589,2.438l0.88-0.176
		c0.871-0.335,2.153-0.922,3.847-1.76c4.071-1.458,8.085-1.383,12.04,0.226c2.815,1.207,6.209,3.536,10.181,6.988l0.604,0.528
		v-9.049h90.871v9.049l0.478-0.377c3.922-3.553,7.315-5.933,10.181-7.139c3.988-1.609,8.053-1.684,12.191-0.226
		c0.805,0.251,2.087,0.838,3.847,1.76l0.679,0.176c0.62-0.117,1.517-0.93,2.689-2.438c2.195-2.933,4.5-4.433,6.913-4.5
		c2.715-0.151,4.382,1.19,5.002,4.022c0.554,2.413-0.285,4.24-2.514,5.48c-0.368,0.151-1.466,0.318-3.293,0.502
		c-1.441,0.084-2.38,0.47-2.815,1.157L271.771,70.198z M167.93,67.609c-5.095-0.335-9.059-0.502-11.891-0.502v24.182
		c0.15,0,0.302,0.075,0.453,0.226c0.15,0.151,0.293,0.226,0.427,0.226c0.269-6.267,1.575-11.873,3.921-16.816
		C162.818,70.885,165.181,68.447,167.93,67.609z M112.702,292.186l4.827-5.027l-6.888-0.804l-3.369-6.108l-2.815,6.334l-6.862,1.282
		l5.153,4.625l-0.93,6.913l6.107-3.443l6.234,3.016L112.702,292.186z M166.094,129.824c-3.553-5.899-5.563-11.906-6.032-18.023
		c-0.302,0.436-0.579,0.913-0.83,1.433c-0.955,1.978-1.634,5.48-2.036,10.507c-0.037,0.43-0.063,0.854-0.075,1.27
		c-0.063,2.041,0.167,3.938,0.691,5.693c0.608,2.045,1.618,3.897,3.028,5.555c1.277,1.509,2.547,2.678,3.809,3.507
		c1.557,1.015,3.103,1.514,4.638,1.495c2.749-0.067,4.509-0.159,5.279-0.276C171.851,138.455,169.026,134.734,166.094,129.824z
		 M148.021,82.39l-0.553,0.276c-1.677,0.804-3.033,2.195-4.073,4.172c-0.653,1.291-1.273,3.201-1.859,5.731l-0.176,0.553
		c-0.805,3-2.38,5.337-4.727,7.013c-2.664,1.81-5.245,1.869-7.742,0.176c-2.011-1.391-2.815-3.478-2.413-6.259
		c0.369-2.866,1.886-4.533,4.55-5.002c2.899-0.453,4.475-0.762,4.726-0.93c1.04-0.553,1.794-1.198,2.263-1.936
		c0.955-1.542,1.249-3.561,0.88-6.058c-0.335-2.933-1.676-5.069-4.022-6.41c-2.262-1.358-4.935-1.785-8.019-1.282
		c-6.05,1.173-9.585,5.17-10.607,11.99c-0.922,6.519,0.888,13.13,5.43,19.833c1.581,2.356,3.063,4.409,4.449,6.159
		c1.645,2.075,3.153,3.726,4.524,4.952l22.548,23.428c0.503,0.553,0.863,0.921,1.081,1.105c0.219,0.185,0.168,0.092-0.15-0.276
		c-1.542-1.726-2.865-4.072-3.972-7.039c-0.989-2.346-1.533-4.164-1.634-5.455c-0.018-1.489-0.035-2.942-0.051-4.361
		c-0.018-1.449-0.034-2.861-0.051-4.236C148.154,95.652,148.021,83.604,148.021,82.39z M124.982,319.259l-22.272,5.431h-0.013
		l-47.459,11.6l3.809-22.887L41.3,296.673l45.071-11.048l-0.565,42.369l1.86-0.955c1.29-0.662,2.605-1.307,3.946-1.936l0.013-0.013
		c3.793-1.829,7.76-3.544,11.902-5.141c6.057-2.353,12.466-4.456,19.23-6.31L124.982,319.259z M123.147,310.913
		c-7.237,1.955-14.079,4.188-20.525,6.699c-4.203,1.62-8.229,3.358-12.078,5.216l0.013-0.012c-0.735,0.344-1.464,0.696-2.188,1.055
		l0.566-41.79c14.591-7.376,31.546-13.04,50.865-16.993c20.378-4.172,41.774-6.107,64.188-5.807
		c20.777,0.284,40.711,2.463,59.803,6.535c18.021,3.916,34.092,9.257,48.213,16.025l-0.566,41.842
		c-5.012-2.354-10.262-4.541-15.748-6.562h-0.013c-6.172-2.255-12.657-4.292-19.456-6.108l-0.025-0.013h-0.013
		c-4.056-1.095-8.212-2.104-12.468-3.028c-19.252-4.105-39.354-6.301-60.305-6.586c-22.699-0.304-44.271,1.648-64.716,5.856
		c-5.344,1.091-10.506,2.306-15.484,3.646l-0.025,0.012L123.147,310.913z M286.427,285.098l-3.368-6.109l-2.816,6.335l-6.861,1.282
		l5.152,4.625l-0.93,6.913l6.108-3.444l6.233,3.018l-1.457-6.787l4.826-5.027L286.427,285.098z M296.582,327.604l-23.215-6.335
		l3.23-7.541c6.351,1.723,12.426,3.641,18.225,5.756h-0.012c6.06,2.23,11.829,4.67,17.307,7.315l1.784,0.854l0.528-38.561
		l43.236,11.853l-18.225,16.239l3.192,22.988l-46.052-12.557V327.604z"/>
	<path fill-rule="evenodd" clip-rule="evenodd" fill="#FFFFFF" d="M248.243,118.512c0.218-0.118,0.436-0.226,0.653-0.327
		c0.436-0.118,0.813-0.285,1.131-0.503c1.812-0.675,3.63-1.254,5.455-1.734l-5.141,5.329c-4.47,1.769-8.621,4.082-12.455,6.938
		l-0.013,0.012c0.094-0.416,0.156-0.78,0.188-1.093c0.016-1.186,0.032-2.346,0.05-3.481c2.161-1.369,4.407-2.596,6.737-3.683
		C246.039,119.417,247.17,118.931,248.243,118.512z M309.955,151.216c-2.045,0.218-4.147,0.168-6.31-0.151
		c0.117,2.162,0.176,4.433,0.176,6.812c3.771,1.291,7.382,2.749,10.835,4.374c1.625,0.637,3.142,1.333,4.549,2.086
		c-0.217-5.078-1.189-10.046-2.915-14.906l-0.176-0.302c-1.291,0.754-2.69,1.34-4.198,1.76
		C311.262,151.006,310.608,151.115,309.955,151.216z M298.467,126.43c1.19,3.352,2.162,6.754,2.916,10.206
		c0.754,3.352,1.35,6.704,1.785,10.055c1.726,0.436,3.402,0.595,5.027,0.478c0.637,0,1.224-0.05,1.76-0.15
		c1.625-0.218,3.192-0.704,4.701-1.458c-2.045-4.541-4.793-8.646-8.246-12.317C304.031,130.645,301.383,128.375,298.467,126.43z
		 M295.225,124.344c-1.408-0.754-2.815-1.458-4.223-2.111c-6.033-2.815-12.451-4.332-19.256-4.55
		c-2.727-0.079-5.378,0.009-7.955,0.264c1.079-1.298,2.085-2.555,3.016-3.771c1.424-0.069,2.853-0.082,4.286-0.038
		c7.34,0.218,14.253,1.726,20.738,4.525c6.368,2.916,12.032,7.021,16.993,12.317c4.977,5.396,8.547,11.388,10.708,17.973
		c2.045,5.833,2.958,11.882,2.74,18.149l-0.151,2.589c0,0.436,0,0.872,0,1.308c-0.436,6.904-2.061,13.54-4.876,19.909
		c-1.608,3.57-3.604,6.863-5.983,9.879c-0.1,0-0.15,0.059-0.15,0.176c-0.871,1.073-1.793,2.153-2.765,3.243
		c-1.19,1.291-2.43,2.531-3.721,3.721l-0.176,0.15c-5.396,4.86-11.438,8.48-18.124,10.859c-6.804,2.38-13.717,3.352-20.738,2.916
		l-0.503,0.151c-0.101,0-0.201-0.051-0.302-0.151c-0.553,0-1.147-0.059-1.785-0.176c-6.703-0.201-13.021-1.601-18.953-4.197
		c-6.485-2.917-12.158-7.022-17.018-12.318c-4.743-5.295-8.195-11.286-10.357-17.973c-0.334-0.972-0.661-1.944-0.979-2.917
		c-1.844-6.049-2.656-12.208-2.438-18.476c0.322-4.054,1.043-7.958,2.161-11.714l2.313-1.533l-0.653,1.407
		c-0.923,2.313-1.324,4.056-1.207,5.229c0.104,1.064,0.385,1.999,0.842,2.803c-0.313,1.78-0.544,3.594-0.691,5.442
		c-0.318,6.804,0.704,13.39,3.067,19.758c1.307,3.452,2.982,6.695,5.027,9.728c0.871,0.101,1.625,0.201,2.263,0.301
		c0.972,0.118,1.834,0.118,2.589,0c0.436-0.1,0.921-0.15,1.458-0.15c1.625-0.318,3.359-0.855,5.203-1.609
		c1.944-0.871,4.098-1.902,6.46-3.092h-0.15l18.953-11.01c4.324-2.38,8.748-4.482,13.273-6.31c0.435-0.117,0.813-0.285,1.131-0.502
		c1.524-0.536,3.041-1.073,4.55-1.609c3.017-0.972,5.874-1.785,8.571-2.438c2.816-0.436,5.354-0.595,7.617-0.478h1.457
		c0.537-3.033,0.973-6.217,1.308-9.552l-1.458-0.327c-8.865-2.279-17.612-3.955-26.243-5.027c-3.134-0.318-6.317-0.586-9.553-0.804
		c-1.307-0.117-2.655-0.226-4.047-0.327c-3.352-0.118-6.703-0.176-10.055-0.176c-0.972,0-1.994,0-3.066,0
		c-5.148,0.111-10.386,0.413-15.711,0.905c-0.688-0.938-1.568-1.625-2.64-2.061c-0.919-0.291-1.652-0.726-2.199-1.308
		c2.238-0.398,4.496-0.758,6.774-1.081c3.988-0.553,8.035-0.93,12.142-1.131c3.451-0.218,6.854-0.276,10.205-0.176
		c0.754,0,1.509,0,2.263,0c0.972,0,1.894,0,2.765,0c4.106,0.218,8.212,0.595,12.317,1.131c4.425,0.436,8.907,1.14,13.448,2.112
		c4.961,1.073,9.385,2.204,13.273,3.394l1.936,0.653c0.117-2.044,0.117-4.206,0-6.485c-4.961-1.609-10.307-4.684-16.038-9.226
		c-0.101,0-0.151-0.05-0.151-0.151l-6.962-6.159c-0.118,0-0.177-0.058-0.177-0.175l-6.31-6.46c-0.101-0.118-0.209-0.176-0.326-0.176
		c-2.63-2.419-5.357-4.418-8.183-5.995c0.775-0.871,1.521-1.726,2.237-2.564c2.771,1.438,5.507,3.319,8.208,5.644h0.176
		l13.448,12.141c2.363,1.944,4.734,3.62,7.114,5.028l0.176,0.176c2.044,1.29,4.256,2.421,6.636,3.394
		c-0.335-3.788-0.88-7.734-1.634-11.84C296.624,130.478,295.979,127.461,295.225,124.344z M228.661,200.636
		c-0.554,0-1.147-0.059-1.784-0.176l2.262,2.765c4.424,4.743,9.61,8.413,15.56,11.011c5.933,2.698,12.142,4.265,18.627,4.7
		c0.536-0.436,1.123-0.871,1.76-1.307c0.972-0.855,2.002-1.659,3.092-2.413c5.832-4.76,10.801-9.729,14.906-14.907
		c2.48-3.033,4.583-6.167,6.31-9.401c0.871-1.408,1.685-2.866,2.438-4.374c1.608-3.452,2.958-7.013,4.048-10.684l0.326-0.98
		c-1.726,0.118-3.562,0.386-5.506,0.804c-2.278,0.436-4.708,1.089-7.289,1.961c-1.408,0.419-2.815,0.905-4.223,1.458
		c-0.654,0.218-1.357,0.486-2.112,0.805c-3.67,1.508-7.984,3.502-12.945,5.982l-12.795,7.139c-5.614,3.017-10.047,5.12-13.298,6.31
		c-2.162,0.754-4.156,1.24-5.982,1.458c-0.537,0-1.022,0-1.458,0C229.943,200.787,229.298,200.736,228.661,200.636z
		 M305.279,177.133l-0.653-0.628l-1.132-0.503c-0.553-0.319-1.206-0.537-1.96-0.654l-0.805,3.092v0.151
		c-1.29,4.106-2.907,8.103-4.851,11.991c-0.219,0.436-0.437,0.921-0.654,1.458c-0.653,1.09-1.299,2.171-1.936,3.243
		c-2.061,3.134-4.224,6.049-6.485,8.748c-1.625,1.943-3.352,3.838-5.179,5.682c-2.598,2.363-5.295,4.625-8.094,6.787
		c-1.19,0.871-2.33,1.684-3.419,2.438c4.76-0.318,9.511-1.29,14.253-2.916c6.485-2.262,12.376-5.773,17.672-10.532l0.15-0.151
		c1.408-1.189,2.648-2.438,3.721-3.745c0.972-0.972,1.835-1.994,2.589-3.066c0.437-3.234,0.604-6.2,0.503-8.899
		c-0.117-1.625-0.285-3.142-0.503-4.55c-0.318-2.162-0.905-4.047-1.76-5.656L305.279,177.133z M319.356,168.887
		c0-0.536,0-1.081,0-1.634c-1.408-0.637-2.865-1.173-4.374-1.609c-3.888-1.408-7.717-2.648-11.488-3.72v2.413
		c-0.117,0.754-0.226,1.517-0.326,2.288c-0.218,1.508-0.436,3.017-0.653,4.525c0.436,0.101,0.871,0.26,1.307,0.478
		c0.101,0,0.151,0.059,0.151,0.176h0.15l1.634,1.131c0.101,0.101,0.26,0.209,0.478,0.327l1.459,1.282
		c0,0.117,0.058,0.176,0.176,0.176c0.972,1.073,1.775,2.363,2.412,3.871c0.654,1.408,1.199,2.975,1.635,4.701
		c0.218,0.972,0.326,1.944,0.326,2.916c0.318,2.061,0.369,4.223,0.151,6.485c0.871-1.291,1.626-2.64,2.263-4.047
		C317.471,182.277,319.038,175.691,319.356,168.887z M116.938,109.916c0.761,1.116,1.599,2.28,2.514,3.494
		c-1.056-0.032-2.115-0.032-3.181,0c-6.787,0.218-13.23,1.726-19.33,4.525c0-0.017-0.008-0.017-0.025,0
		c-1.374,0.62-2.739,1.324-4.098,2.111c-0.771,3.101-1.44,6.125-2.011,9.075c-0.737,4.089-1.257,8.036-1.559,11.84
		c2.313-0.939,4.525-2.086,6.637-3.444c0.033-0.017,0.067-0.025,0.101-0.025c2.362-1.458,4.734-3.142,7.113-5.052l6.737-5.807
		l6.712-6.335c0.033-0.034,0.084-0.075,0.15-0.125c1.68-1.418,3.385-2.667,5.115-3.746c0.698,0.865,1.432,1.753,2.199,2.665
		c-1.699,1.167-3.367,2.499-5.002,3.997c-0.084,0.084-0.176,0.151-0.276,0.201l-6.335,6.486c-0.066,0.083-0.117,0.134-0.15,0.15
		l-6.988,6.259c-0.033,0.017-0.084,0.05-0.15,0.101c-5.782,4.474-11.17,7.574-16.164,9.301c-0.083,2.195-0.083,4.348,0,6.46
		l2.087-0.679v-0.025c3.838-1.189,8.262-2.313,13.272-3.368v0.025c4.475-0.956,8.966-1.701,13.474-2.237
		c4.072-0.47,8.128-0.796,12.167-0.98c0.938-0.034,1.877-0.05,2.814-0.05c0.721-0.051,1.458-0.084,2.213-0.101
		c3.418-0.017,6.828,0.084,10.23,0.301c3.853,0.203,7.618,0.53,11.299,0.98c0.862,0.365,1.754,0.725,2.678,1.081
		c3.033,1.307,4.499,2.296,4.398,2.966l-0.05,0.654c-0.048,0.077-0.099,0.153-0.151,0.226c-1.07-0.117-2.135-0.226-3.192-0.326
		c-5.697-0.536-11.219-0.855-16.565-0.956c-1.039-0.017-2.069-0.025-3.092-0.025c-3.368,0-6.703,0.092-10.005,0.276
		c-1.391,0.033-2.757,0.109-4.097,0.226c-3.252,0.202-6.443,0.495-9.578,0.88c-8.646,1.022-17.378,2.673-26.192,4.952l-1.433,0.402
		c0.268,3.285,0.712,6.452,1.332,9.501l1.332-0.075c2.346-0.084,4.885,0.125,7.616,0.628h0.025c2.682,0.586,5.563,1.365,8.647,2.337
		c1.458,0.502,2.967,1.064,4.524,1.685c0.319,0.15,0.671,0.285,1.056,0.402c4.525,1.843,8.949,3.946,13.272,6.31l0.025-0.025
		l18.903,11.036h-0.024c2.329,1.273,4.474,2.304,6.435,3.092c1.86,0.821,3.586,1.357,5.179,1.609
		c0.519,0.083,1.005,0.15,1.458,0.201h0.024c0.721,0.067,1.567,0.067,2.539,0c0.721-0.051,1.5-0.135,2.338-0.251
		c2.045-3.067,3.729-6.352,5.053-9.854h-0.025c2.313-6.368,3.302-12.913,2.966-19.632c-0.194-3.313-0.697-6.539-1.508-9.678
		l2.74,1.785c0.305,0.239,0.603,0.478,0.893,0.716c0.292,1.792,0.498,3.606,0.615,5.442v0.025
		c0.318,6.335-0.486,12.519-2.413,18.551c-0.251,0.972-0.545,1.952-0.88,2.941c-2.212,6.653-5.706,12.611-10.482,17.873
		c-4.81,5.345-10.448,9.435-16.917,12.267c-5.966,2.682-12.309,4.131-19.029,4.349c-0.569,0.067-1.147,0.109-1.734,0.126
		c-0.101,0.033-0.209,0.066-0.327,0.101l-0.427-0.075c-7.056,0.385-13.993-0.604-20.813-2.967
		c-6.703-2.346-12.729-5.957-18.074-10.834c-0.066-0.033-0.126-0.075-0.176-0.126c-1.324-1.189-2.564-2.438-3.721-3.746
		c-1.021-1.072-1.96-2.195-2.814-3.368c-0.018-0.017-0.042-0.034-0.076-0.051c-2.362-3.066-4.349-6.376-5.957-9.929
		c-2.899-6.368-4.533-12.987-4.902-19.858c-0.033-0.419-0.075-0.847-0.125-1.282l-0.076-2.639
		c-0.234-6.301,0.671-12.359,2.715-18.175c2.213-6.585,5.782-12.585,10.709-17.998c4.927-5.312,10.607-9.384,17.043-12.217
		c6.502-2.849,13.39-4.365,20.663-4.549C116.861,109.914,116.899,109.914,116.938,109.916z M131.605,115.093
		c-0.296,0.112-0.589,0.229-0.88,0.352l-0.075-0.075c-1.371-1.227-2.88-2.877-4.524-4.952c3.987,0.569,7.934,1.591,11.839,3.066
		c0.369,0.151,0.729,0.285,1.082,0.402c0.251,0.101,0.485,0.201,0.703,0.302c1.106,0.486,2.204,0.989,3.293,1.508
		c1.852,0.86,3.645,1.806,5.379,2.84c0.017,1.375,0.033,2.787,0.051,4.236c-3.717-2.55-7.756-4.632-12.116-6.247
		C134.748,115.99,133.164,115.513,131.605,115.093z M157.12,125.01c5.193,4.774,9.24,10.183,12.142,16.226v-0.025
		c0.008,0.017,0.017,0.033,0.024,0.05c-1.535,0.019-3.081-0.48-4.638-1.495c-1.905-3.226-4.185-6.246-6.837-9.063
		C157.287,128.948,157.057,127.051,157.12,125.01z M89.476,122.182c-2.849,1.927-5.479,4.198-7.894,6.813l-0.024,0.05
		c-3.419,3.62-6.185,7.692-8.296,12.216c1.509,0.805,3.084,1.316,4.727,1.533c0.603,0.084,1.189,0.126,1.759,0.126
		c1.609,0.05,3.302-0.134,5.078-0.553c0.402-3.318,0.988-6.645,1.76-9.979C87.339,128.986,88.303,125.584,89.476,122.182z
		 M71.804,144.881l-0.125,0.301c-1.727,4.827-2.724,9.779-2.991,14.856c1.491-0.737,3.008-1.45,4.549-2.137
		c3.503-1.575,7.173-3.016,11.011-4.324c-0.05-2.296,0-4.566,0.15-6.812c-2.229,0.385-4.34,0.436-6.334,0.151
		c-0.653-0.067-1.308-0.167-1.961-0.302C74.578,146.247,73.145,145.669,71.804,144.881z M84.574,160.089l-0.151-2.413
		c-3.754,1.056-7.55,2.288-11.388,3.695c-1.49,0.486-2.966,1.031-4.424,1.634c0,0.519,0.017,1.039,0.051,1.559h-0.025
		c0.318,6.871,1.902,13.457,4.751,19.758c0.637,1.408,1.349,2.782,2.137,4.123c-0.151-2.262-0.101-4.408,0.15-6.436
		c0.084-1.039,0.235-2.019,0.453-2.941c0.352-1.726,0.862-3.276,1.533-4.65c0.671-1.508,1.483-2.798,2.438-3.871
		c0.066-0.083,0.134-0.159,0.201-0.227l1.482-1.357c0.135-0.117,0.277-0.234,0.428-0.352l1.584-1.03
		c0.05-0.034,0.108-0.059,0.176-0.076c0.05-0.05,0.108-0.092,0.176-0.126c0.436-0.201,0.88-0.369,1.332-0.502
		c-0.268-1.525-0.494-3.05-0.679-4.575c-0.101-0.721-0.184-1.45-0.251-2.188L84.574,160.089z M91.813,170.622l0.276,1.005
		c1.056,3.653,2.438,7.198,4.147,10.633c0.688,1.508,1.458,2.983,2.313,4.424c1.794,3.234,3.905,6.368,6.335,9.401
		c4.123,5.212,9.116,10.189,14.981,14.932c0.989,0.754,2.003,1.525,3.042,2.313c0.587,0.469,1.189,0.922,1.811,1.357
		c6.484-0.419,12.651-1.969,18.5-4.65h0.051c5.966-2.648,11.136-6.334,15.51-11.061h0.025l2.313-2.765
		c-0.604,0.101-1.19,0.176-1.76,0.227c-0.688,0.101-1.332,0.15-1.936,0.15c-0.453-0.017-0.938-0.042-1.458-0.075
		c-1.81-0.185-3.804-0.662-5.982-1.433c-3.302-1.156-7.76-3.268-13.373-6.334l-12.694-7.063c-4.978-2.514-9.318-4.533-13.021-6.058
		c-0.704-0.285-1.391-0.57-2.062-0.855c-1.475-0.52-2.891-0.997-4.248-1.433c-2.563-0.837-4.985-1.491-7.265-1.96l-0.05,0.025
		C95.357,170.982,93.539,170.723,91.813,170.622z M83.417,172.306l-0.653,0.603l-1.533,2.288c-0.888,1.642-1.483,3.544-1.785,5.707
		c-0.251,1.357-0.41,2.832-0.477,4.424c-0.067,2.681,0.092,5.665,0.477,8.949c0.788,1.09,1.643,2.128,2.564,3.117
		c1.156,1.274,2.396,2.497,3.721,3.669c0.066,0.051,0.134,0.102,0.201,0.151c5.262,4.759,11.136,8.287,17.621,10.583
		c4.775,1.625,9.568,2.589,14.379,2.891c-1.174-0.805-2.321-1.625-3.444-2.463c-2.883-2.146-5.572-4.424-8.069-6.838
		c-1.86-1.811-3.628-3.695-5.304-5.656c-2.279-2.698-4.399-5.605-6.359-8.722c-0.638-1.089-1.282-2.187-1.937-3.293h-0.024
		c-0.269-0.453-0.52-0.93-0.754-1.433c-1.911-3.804-3.52-7.801-4.827-11.99v-0.025l-0.804-3.218
		c-0.688,0.167-1.333,0.385-1.937,0.653L83.417,172.306z"/>
	<path fill-rule="evenodd" clip-rule="evenodd" fill="#C43B28" d="M295.225,124.344c0.754,3.117,1.399,6.134,1.936,9.05
		c0.754,4.105,1.299,8.052,1.634,11.84c-2.38-0.972-4.592-2.104-6.636-3.394l-0.176-0.176c-2.38-1.408-4.751-3.083-7.114-5.028
		l-13.448-12.141h-0.176c-2.701-2.325-5.437-4.206-8.208-5.644c0.254-0.306,0.505-0.607,0.755-0.905
		c2.577-0.254,5.229-0.343,7.955-0.264c6.805,0.218,13.223,1.734,19.256,4.55C292.409,122.886,293.816,123.59,295.225,124.344z
		 M269.308,127.587l6.31,6.46c0,0.117,0.059,0.175,0.177,0.175l6.962,6.159c0,0.101,0.051,0.151,0.151,0.151
		c5.731,4.542,11.077,7.617,16.038,9.226c0.117,2.279,0.117,4.441,0,6.485l-1.936-0.653c-3.889-1.19-8.313-2.321-13.273-3.394
		c-4.541-0.972-9.023-1.676-13.448-2.112c-4.105-0.536-8.211-0.913-12.317-1.131c-0.871,0-1.793,0-2.765,0c-0.754,0-1.509,0-2.263,0
		c-3.352-0.1-6.754-0.042-10.205,0.176c-4.106,0.201-8.153,0.578-12.142,1.131c-2.278,0.323-4.536,0.683-6.774,1.081
		c-0.206-0.22-0.387-0.463-0.541-0.729l-0.276-0.503c-0.067-0.771,1.249-1.718,3.946-2.841c5.43-2.162,9.829-4.382,13.197-6.661
		c5.027-3.452,10.91-8.748,17.646-15.887c1.047-1.127,2.048-2.229,3.004-3.306c2.825,1.577,5.553,3.576,8.183,5.995
		C269.099,127.411,269.207,127.469,269.308,127.587z M271.093,155.112c8.631,1.073,17.378,2.749,26.243,5.027l1.458,0.327
		c-0.335,3.335-0.771,6.519-1.308,9.552h-1.457c-2.263-0.117-4.801,0.042-7.617,0.478c-2.697,0.654-5.555,1.466-8.571,2.438
		c-1.509,0.536-3.025,1.073-4.55,1.609c-0.318,0.218-0.696,0.385-1.131,0.502c-4.525,1.827-8.949,3.93-13.273,6.31l-18.953,11.01
		h0.15c-2.362,1.189-4.516,2.221-6.46,3.092c-1.844,0.754-3.578,1.291-5.203,1.609c-0.537,0-1.022,0.05-1.458,0.15
		c-0.755,0.118-1.617,0.118-2.589,0c-0.638-0.1-1.392-0.201-2.263-0.301c-2.045-3.033-3.721-6.276-5.027-9.728
		c-2.363-6.368-3.386-12.954-3.067-19.758c0.147-1.848,0.378-3.662,0.691-5.442c0.637,1.141,1.621,2.025,2.954,2.652
		c2.078,0.956,4.147,1.005,6.209,0.151c1.709-0.771,2.916-2.103,3.619-3.997c0.771-1.877,0.662-3.637-0.326-5.279
		c-0.156-0.287-0.324-0.555-0.503-0.805c5.325-0.492,10.563-0.793,15.711-0.905c1.072,0,2.095,0,3.066,0
		c3.352,0,6.703,0.058,10.055,0.176c1.392,0.101,2.74,0.209,4.047,0.327C264.775,154.526,267.959,154.794,271.093,155.112z
		 M298.467,126.43c2.916,1.944,5.564,4.215,7.943,6.813c3.453,3.67,6.201,7.776,8.246,12.317c-1.509,0.754-3.076,1.24-4.701,1.458
		c-0.536,0.101-1.123,0.15-1.76,0.15c-1.625,0.118-3.302-0.042-5.027-0.478c-0.436-3.351-1.031-6.703-1.785-10.055
		C300.629,133.184,299.657,129.782,298.467,126.43z M309.955,151.216c0.653-0.101,1.307-0.209,1.961-0.327
		c1.508-0.419,2.907-1.005,4.198-1.76l0.176,0.302c1.726,4.86,2.698,9.829,2.915,14.906c-1.407-0.754-2.924-1.45-4.549-2.086
		c-3.453-1.625-7.064-3.083-10.835-4.374c0-2.379-0.059-4.65-0.176-6.812C305.808,151.384,307.91,151.434,309.955,151.216z
		 M237.874,128.228l0.013-0.012c3.834-2.856,7.985-5.169,12.455-6.938l-17.936,18.626c-0.066,0-0.017-0.092,0.151-0.276l1.508-1.986
		c1.056-1.726,1.986-3.745,2.79-6.058C237.337,130.232,237.676,129.113,237.874,128.228z M228.661,200.636
		c0.637,0.1,1.282,0.15,1.936,0.15c0.436,0,0.921,0,1.458,0c1.826-0.218,3.82-0.704,5.982-1.458
		c3.251-1.189,7.684-3.293,13.298-6.31l12.795-7.139c4.961-2.479,9.275-4.474,12.945-5.982c0.755-0.319,1.458-0.587,2.112-0.805
		c1.407-0.553,2.814-1.039,4.223-1.458c2.581-0.872,5.011-1.525,7.289-1.961c1.944-0.418,3.78-0.687,5.506-0.804l-0.326,0.98
		c-1.09,3.67-2.439,7.231-4.048,10.684c-0.754,1.508-1.567,2.966-2.438,4.374c-1.727,3.234-3.829,6.368-6.31,9.401
		c-4.105,5.178-9.074,10.147-14.906,14.907c-1.09,0.754-2.12,1.558-3.092,2.413c-0.637,0.436-1.224,0.871-1.76,1.307
		c-6.485-0.436-12.694-2.002-18.627-4.7c-5.949-2.598-11.136-6.268-15.56-11.011l-2.262-2.765
		C227.514,200.577,228.107,200.636,228.661,200.636z M319.356,168.887c-0.318,6.804-1.886,13.39-4.7,19.758
		c-0.637,1.408-1.392,2.757-2.263,4.047c0.218-2.263,0.167-4.424-0.151-6.485c0-0.972-0.108-1.944-0.326-2.916
		c-0.436-1.726-0.98-3.293-1.635-4.701c-0.637-1.508-1.44-2.798-2.412-3.871c-0.118,0-0.176-0.059-0.176-0.176l-1.459-1.282
		c-0.218-0.117-0.377-0.226-0.478-0.327l-1.634-1.131h-0.15c0-0.117-0.051-0.176-0.151-0.176c-0.436-0.218-0.871-0.377-1.307-0.478
		c0.218-1.508,0.436-3.017,0.653-4.525c0.101-0.771,0.209-1.533,0.326-2.288v-2.413c3.771,1.072,7.601,2.313,11.488,3.72
		c1.509,0.436,2.966,0.972,4.374,1.609C319.356,167.806,319.356,168.351,319.356,168.887z M305.279,177.133l1.458,2.287
		c0.854,1.609,1.441,3.494,1.76,5.656c0.218,1.408,0.386,2.924,0.503,4.55c0.101,2.699-0.066,5.665-0.503,8.899
		c-0.754,1.072-1.617,2.095-2.589,3.066c-1.072,1.308-2.313,2.556-3.721,3.745l-0.15,0.151c-5.296,4.759-11.187,8.271-17.672,10.532
		c-4.742,1.626-9.493,2.598-14.253,2.916c1.089-0.754,2.229-1.566,3.419-2.438c2.799-2.162,5.496-4.424,8.094-6.787
		c1.827-1.844,3.554-3.738,5.179-5.682c2.262-2.698,4.425-5.614,6.485-8.748c0.637-1.072,1.282-2.153,1.936-3.243
		c0.218-0.536,0.436-1.022,0.654-1.458c1.943-3.888,3.561-7.885,4.851-11.991v-0.151l0.805-3.092
		c0.754,0.117,1.407,0.335,1.96,0.654l1.132,0.503L305.279,177.133z M119.012,123.087c1.635-1.498,3.303-2.83,5.002-3.997
		c1.51,1.795,3.151,3.672,4.928,5.631c6.636,7.139,12.502,12.435,17.596,15.887c2.707,1.869,6.029,3.637,9.967,5.304
		c-3.681-0.451-7.446-0.777-11.299-0.98c-3.402-0.217-6.813-0.318-10.23-0.301c-0.755,0.017-1.492,0.05-2.213,0.101
		c-0.938,0-1.877,0.017-2.814,0.05c-4.039,0.185-8.095,0.511-12.167,0.98c-4.508,0.536-8.999,1.282-13.474,2.237v-0.025
		c-5.011,1.056-9.435,2.179-13.272,3.368v0.025l-2.087,0.679c-0.083-2.112-0.083-4.265,0-6.46
		c4.994-1.727,10.382-4.827,16.164-9.301c0.066-0.051,0.117-0.084,0.15-0.101l6.988-6.259c0.033-0.017,0.084-0.067,0.15-0.15
		l6.335-6.486C118.836,123.238,118.928,123.171,119.012,123.087z M131.605,115.093c1.559,0.419,3.143,0.897,4.751,1.433
		c4.36,1.615,8.399,3.697,12.116,6.247c0.016,1.419,0.033,2.873,0.051,4.361c0.101,1.291,0.645,3.109,1.634,5.455
		c1.106,2.966,2.43,5.313,3.972,7.039c0.318,0.369,0.369,0.461,0.15,0.276c-0.218-0.184-0.578-0.553-1.081-1.105l-22.473-23.353
		C131.017,115.323,131.31,115.206,131.605,115.093z M121.814,116.426c-1.73,1.079-3.436,2.328-5.115,3.746
		c-0.066,0.05-0.117,0.092-0.15,0.125l-6.712,6.335l-6.737,5.807c-2.379,1.91-4.751,3.595-7.113,5.052
		c-0.033,0-0.067,0.008-0.101,0.025c-2.111,1.358-4.323,2.505-6.637,3.444c0.302-3.804,0.821-7.751,1.559-11.84
		c0.57-2.95,1.24-5.974,2.011-9.075c1.358-0.788,2.724-1.491,4.098-2.111c0.018-0.017,0.025-0.017,0.025,0
		c6.1-2.799,12.543-4.307,19.33-4.525c1.065-0.032,2.125-0.032,3.181,0C120.189,114.382,120.977,115.388,121.814,116.426z
		 M126.428,150.034c1.34-0.117,2.706-0.193,4.097-0.226c3.302-0.184,6.637-0.276,10.005-0.276c1.022,0,2.053,0.008,3.092,0.025
		c5.347,0.101,10.868,0.419,16.565,0.956c1.058,0.101,2.122,0.209,3.192,0.326c-0.596,0.837-1.518,1.441-2.765,1.811
		c-1.257,0.553-2.288,1.508-3.092,2.866c-0.989,1.642-1.081,3.402-0.276,5.279c0.703,1.793,1.919,3.125,3.645,3.997
		c2.129,0.854,4.231,0.805,6.31-0.151c2.128-1.072,3.318-2.891,3.569-5.455c0.084-1.492-0.352-3.318-1.307-5.48l-0.604-1.156
		l1.533,1.005c0.811,3.139,1.313,6.365,1.508,9.678c0.336,6.72-0.653,13.264-2.966,19.632h0.025
		c-1.324,3.502-3.008,6.787-5.053,9.854c-0.838,0.117-1.617,0.201-2.338,0.251c-0.972,0.067-1.818,0.067-2.539,0h-0.024
		c-0.453-0.051-0.939-0.118-1.458-0.201c-1.593-0.251-3.318-0.788-5.179-1.609c-1.961-0.788-4.105-1.818-6.435-3.092h0.024
		l-18.903-11.036l-0.025,0.025c-4.323-2.363-8.747-4.466-13.272-6.31c-0.385-0.117-0.736-0.251-1.056-0.402
		c-1.558-0.62-3.066-1.182-4.524-1.685c-3.084-0.972-5.966-1.751-8.647-2.337h-0.025c-2.731-0.503-5.271-0.712-7.616-0.628
		l-1.332,0.075c-0.62-3.05-1.064-6.217-1.332-9.501l1.433-0.402c8.814-2.279,17.546-3.93,26.192-4.952
		C119.984,150.529,123.176,150.236,126.428,150.034z M160.84,136.259c-1.41-1.658-2.42-3.51-3.028-5.555
		c2.652,2.816,4.932,5.837,6.837,9.063C163.387,138.937,162.117,137.768,160.84,136.259z M84.574,160.089l-0.025,0.025
		c0.067,0.737,0.15,1.467,0.251,2.188c0.185,1.525,0.411,3.05,0.679,4.575c-0.452,0.134-0.896,0.301-1.332,0.502
		c-0.067,0.034-0.126,0.076-0.176,0.126c-0.067,0.017-0.126,0.042-0.176,0.076l-1.584,1.03c-0.15,0.118-0.293,0.235-0.428,0.352
		l-1.482,1.357c-0.067,0.067-0.135,0.143-0.201,0.227c-0.955,1.073-1.768,2.363-2.438,3.871c-0.671,1.375-1.182,2.924-1.533,4.65
		c-0.218,0.922-0.369,1.902-0.453,2.941c-0.251,2.028-0.302,4.173-0.15,6.436c-0.788-1.341-1.5-2.715-2.137-4.123
		c-2.849-6.301-4.433-12.887-4.751-19.758h0.025c-0.034-0.52-0.051-1.04-0.051-1.559c1.458-0.604,2.934-1.148,4.424-1.634
		c3.838-1.407,7.634-2.639,11.388-3.695L84.574,160.089z M71.804,144.881c1.341,0.788,2.774,1.366,4.299,1.734
		c0.653,0.134,1.308,0.235,1.961,0.302c1.994,0.285,4.105,0.234,6.334-0.151c-0.15,2.246-0.2,4.516-0.15,6.812
		c-3.838,1.308-7.508,2.749-11.011,4.324c-1.541,0.687-3.058,1.399-4.549,2.137c0.268-5.078,1.265-10.03,2.991-14.856
		L71.804,144.881z M89.476,122.182c-1.173,3.402-2.137,6.804-2.891,10.206c-0.771,3.334-1.357,6.662-1.76,9.979
		c-1.776,0.418-3.469,0.603-5.078,0.553c-0.569,0-1.156-0.042-1.759-0.126c-1.643-0.217-3.218-0.729-4.727-1.533
		c2.111-4.524,4.877-8.597,8.296-12.216l0.024-0.05C83.996,126.38,86.627,124.109,89.476,122.182z M91.813,170.622
		c1.726,0.101,3.544,0.36,5.455,0.779l0.05-0.025c2.279,0.469,4.701,1.123,7.265,1.96c1.357,0.436,2.773,0.914,4.248,1.433
		c0.671,0.285,1.357,0.57,2.062,0.855c3.703,1.525,8.044,3.544,13.021,6.058l12.694,7.063c5.613,3.066,10.071,5.178,13.373,6.334
		c2.179,0.771,4.173,1.249,5.982,1.433c0.52,0.034,1.005,0.059,1.458,0.075c0.604,0,1.248-0.05,1.936-0.15
		c0.569-0.05,1.156-0.126,1.76-0.227l-2.313,2.765h-0.025c-4.374,4.727-9.544,8.412-15.51,11.061h-0.051
		c-5.849,2.682-12.016,4.231-18.5,4.65c-0.621-0.436-1.224-0.889-1.811-1.357c-1.039-0.787-2.053-1.559-3.042-2.313
		c-5.865-4.742-10.858-9.72-14.981-14.932c-2.43-3.033-4.541-6.167-6.335-9.401c-0.854-1.441-1.625-2.916-2.313-4.424
		c-1.709-3.435-3.092-6.979-4.147-10.633L91.813,170.622z M83.417,172.306l1.056-0.604c0.604-0.268,1.249-0.486,1.937-0.653
		l0.804,3.218v0.025c1.308,4.189,2.916,8.186,4.827,11.99c0.234,0.503,0.485,0.98,0.754,1.433h0.024
		c0.654,1.106,1.299,2.204,1.937,3.293c1.96,3.117,4.08,6.024,6.359,8.722c1.676,1.961,3.443,3.846,5.304,5.656
		c2.497,2.414,5.187,4.692,8.069,6.838c1.123,0.838,2.271,1.658,3.444,2.463c-4.811-0.302-9.604-1.266-14.379-2.891
		c-6.485-2.296-12.359-5.824-17.621-10.583c-0.067-0.05-0.135-0.101-0.201-0.151c-1.324-1.172-2.564-2.396-3.721-3.669
		c-0.922-0.989-1.776-2.027-2.564-3.117c-0.385-3.284-0.544-6.268-0.477-8.949c0.066-1.592,0.226-3.067,0.477-4.424
		c0.302-2.162,0.897-4.064,1.785-5.707l1.533-2.288L83.417,172.306z M117.529,287.158l-4.827,5.027l1.458,6.787l-6.234-3.016
		l-6.107,3.443l0.93-6.913l-5.153-4.625l6.862-1.282l2.815-6.334l3.369,6.108L117.529,287.158z M286.427,285.098l6.888,0.805
		l-4.826,5.027l1.457,6.787l-6.233-3.018l-6.108,3.444l0.93-6.913l-5.152-4.625l6.861-1.282l2.816-6.335L286.427,285.098z"/>
</g>
</svg>
