<?xml version="1.0" encoding="utf-8"?>
<!-- Generator: Adobe Illustrator 16.0.0, SVG Export Plug-In . SVG Version: 6.00 Build 0)  -->
<!DOCTYPE svg PUBLIC "-//W3C//DTD SVG 1.1//EN" "http://www.w3.org/Graphics/SVG/1.1/DTD/svg11.dtd">
<svg version="1.1" id="Layer_1" xmlns="http://www.w3.org/2000/svg" xmlns:xlink="http://www.w3.org/1999/xlink" x="0px" y="0px"
	 width="400px" height="400px" viewBox="0 0 400 400" enable-background="new 0 0 400 400" xml:space="preserve">
<g>
	<path fill="#216098" d="M320.714,179.52c0.116,7.182-5.346,13.7-16.388,19.556c-2.258,2.477-4.442,4.997-6.555,7.56l-9.287,11.865
		c-0.465,0.655-0.945,1.317-1.441,1.988v0.044c-0.076,0.104-0.152,0.209-0.229,0.316c-0.02,0.023-0.037,0.049-0.056,0.076
		c-0.817,1.125-1.618,2.283-2.403,3.475c-0.859,1.252-1.711,2.526-2.558,3.822v-0.043c-0.378,0.568-0.75,1.15-1.114,1.748
		l-7.953,13.48c-3.072,5.551-6.16,11.684-9.264,18.398c-8.145,19.11-13.89,39.125-17.24,60.043
		c-0.043,0.275-0.086,0.567-0.131,0.873c-1.136,7.123-1.996,14.377-2.578,21.764c-0.742,7.269-1.281,14.697-1.617,22.285
		c-6.176-7.502-12.366-15.897-18.571-25.191l-18.923,21.74L186.6,339.242l-14.181,22.134l-19.097-23.772l-12.738,23.205
		c-0.088-2.986-0.196-5.951-0.328-8.894c0.088-6.468-0.291-13.351-1.136-20.647l-1.923-12.17c-0.539-2.842-1.144-5.74-1.813-8.697
		c-3.06-16.387-7.414-32.446-13.066-48.18c-0.175-0.51-0.356-1.02-0.546-1.529c-1.355-3.685-2.775-7.348-4.261-10.989
		c-2.87-7.05-6.009-14.042-9.417-20.976c-4.749-9.629-10.029-19.142-15.842-28.537c-6.919-3.729-11.405-8.186-13.459-13.372
		c-0.598-1.661-0.91-3.343-0.939-5.047c-0.029-10.372,11.799-19.323,35.483-26.854c14.406-4.501,30.678-7.684,48.813-9.548
		l13.962-1.158v0.043c7.473-0.422,15.223-0.677,23.249-0.765c19.009-0.029,40.393,1.69,64.15,5.157v0.174
		c4.239,0.772,8.347,1.667,12.323,2.688l6.557,1.792c0.961,0.292,1.937,0.568,2.928,0.831l0.131,0.043
		c17.597,5.303,28.726,11.515,33.387,18.638C320.029,174.968,320.655,177.204,320.714,179.52z M199.775,204.342
		c-0.029-0.088-0.044-0.197-0.044-0.328c-2.841-11.93-5.396-23.955-7.669-36.074l-11.821,36.074L199.775,204.342z M188.981,158.107
		c-2.986,0.059-5.921,0.153-8.806,0.284l-17.721,1.202l-18.463,2.404c4.429,12.483,9.439,25.819,15.033,40.007l8.762,0.961
		c0.16,0.016,0.328,0.036,0.502,0.064c0.161-0.014,0.313-0.006,0.459,0.022c0.146,0.015,0.299,0.035,0.459,0.064l4.458,0.459
		L188.981,158.107z M288.855,169.862c-1.806-0.743-3.787-1.493-5.941-2.25l0.809,10.291L288.855,169.862z M242.273,166.082
		l-0.197-6.271c-13.008-1.37-27.232-2.032-42.673-1.988h-2.556c2.461,15.732,5.461,31.216,9.002,46.452l15.818-0.523
		L242.273,166.082z M254.574,161.406l-4.282-0.59l-1.464,2.469c-0.088,14.027,0.313,26.605,1.201,37.734l7.43-1.224
		c2.214-0.204,5.439-0.801,9.68-1.792l4.174-1.005l7.166-11.034l-1.508-20.124l-12.455-2.862v0.131
		C261.807,162.237,258.493,161.668,254.574,161.406z M191.429,218.719l-11.537-0.262c-0.903-0.059-2.301-0.132-4.195-0.219
		l-4.348,13.306c2.286,5.304,4.668,10.546,7.145,15.731c2.797,6.352,5.732,12.717,8.806,19.098l0.219-0.393l0.044,0.131l3.277-6.01
		l-0.088,0.021l5.506-10.029l0.088-0.021l10.444-19.205l-3.212-11.908l-10.139-0.219
		C192.769,218.727,192.099,218.719,191.429,218.719z M210.744,223.811l2.818-5.112l-4.151,0.131l1.289,5.091L210.744,223.811z
		 M279.243,195.011v0.087l0.131-0.087H279.243z M300.197,180.678c-0.016-2.971-2.112-5.732-6.293-8.281l-9.461,14.727l0.426,6.052
		l0.055-0.021C295.148,189.439,300.24,185.281,300.197,180.678z M213.169,252.607h0.153l-4.785-15.775l-0.088,0.175
		c0-0.058,0-0.108,0-0.153l-12.957,23.992l-0.152-0.022l-5.332,10.008l0.044,0.088l-0.262,0.479
		c4.719,9.557,9.759,19.104,15.12,28.646l0.24-0.394l0.108,0.24l5.855-9.154l-0.22-0.021l7.998-12.302h0.131l2.055-2.929v-0.043
		c-0.029-0.104-0.064-0.211-0.109-0.328c-1.354-3.643-2.607-7.27-3.759-10.881l-0.131,0.021
		C215.695,260.291,214.393,256.409,213.169,252.607z M218.588,218.457l-6.229,11.447c2.156,7.926,4.502,15.82,7.037,23.687
		l0.131,0.044c1.572,5.287,3.256,10.598,5.048,15.928l8.979-13.852l0.131-0.023l15.187-23.729c-0.772-3.132-1.493-6.424-2.163-9.875
		c-0.395-1.924-0.766-3.912-1.115-5.966L218.588,218.457z M289.818,206.089l-3.867,1.354l0.262,3.539L289.818,206.089z
		 M243.891,201.852c-0.875-8.348-1.348-17.313-1.42-26.897l-15.666,28.427L243.891,201.852z M260.867,213.803l-1.289,0.043
		l-7.953,1.442c0.291,2.258,0.626,4.429,1.005,6.511c0.204,1.137,0.407,2.258,0.611,3.365v0.043L260.867,213.803z M269.936,237.16
		c3.103-5.695,6.388-11.246,9.854-16.65c0.423-0.699,0.859-1.383,1.311-2.053l-0.83-9.374l-11.819,2.993L255.1,233.752
		c1.951,7.341,4.313,13.575,7.08,18.703L269.936,237.16z M135.668,163.438l-7.363,1.573c-19.694,4.647-29.513,10.175-29.454,16.584
		c0.015,1.588,0.619,3.11,1.813,4.566c1.457,1.748,3.81,3.416,7.058,5.004l0.24,0.021c6.555,2.768,14.362,5.062,23.423,6.883
		C133.526,185.645,134.954,174.102,135.668,163.438z M135.646,213.803c-0.904,4.588-1.865,9.17-2.885,13.743
		c-0.815,3.481-1.828,8.069-3.037,13.767c-0.088,0.275-0.16,0.554-0.219,0.828c-0.072,0.277-0.131,0.569-0.175,0.875
		c-0.131,0.495-0.27,0.99-0.415,1.485c2.272,3.657,4.56,7.319,6.861,10.991c0.889,1.456,1.791,2.92,2.709,4.392l2.535,4.042
		c0.029,0.047,0.059,0.094,0.087,0.143c0.012,0.015,0.022,0.027,0.032,0.043c3.661,5.699,6.702,10.4,9.123,14.104l4.545-13.176
		l-1.312,3.54l11.733-37.014l-6.162-14.508c-0.363-0.031-0.735-0.066-1.113-0.109c-1.064-0.117-2.135-0.233-3.213-0.35
		c-4.952-0.556-9.767-1.226-14.442-2.012c-1.573-0.292-3.124-0.583-4.653-0.874C135.646,213.744,135.646,213.773,135.646,213.803z
		 M152.427,201.26c-4.269-10.473-8.019-19.999-11.253-28.579c-0.641,7.75-1.733,16.613-3.277,26.591L152.427,201.26z
		 M107.46,206.613c4.093,7.414,8.135,14.604,12.126,21.566c1.428,2.533,2.855,5.024,4.283,7.473
		c0.131-0.467,0.262-0.932,0.393-1.398l0.612-2.338c0.335-1.369,0.67-2.717,1.005-4.043c1.238-5.084,2.375-10.203,3.408-15.359
		c0-0.029-0.007-0.059-0.021-0.088c-5.463-1.193-10.699-2.557-15.71-4.086l-6.358-2.207
		C107.299,206.277,107.387,206.439,107.46,206.613z M119.608,246.229c0.874-1.588,1.668-3.271,2.382-5.049l-17.24-29.344
		C110.169,223.533,115.122,234.996,119.608,246.229z M123.891,256.277l2.076,6.141c0.567,1.676,0.866,2.57,0.896,2.688
		c1.588,4.517,3.233,9.826,4.938,15.93l-0.852-2.447c2.738,9.046,5.171,18.217,7.298,27.51c0.394,1.82,0.787,3.635,1.18,5.44
		l0.153,0.219l8.674-27.227l-0.043-0.087l0.043-0.045c-5.491-8.594-10.67-17.026-15.535-25.301l-1.354-2.295
		c-1.297-2.258-2.272-3.889-2.928-4.895c-0.83-1.34-1.26-1.98-1.289-1.924l-0.284-0.545c-0.918,2.301-1.879,4.522-2.884,6.664
		C123.92,256.162,123.891,256.221,123.891,256.277z M167.853,223.416l1.792-5.439l-4.261-0.285L167.853,223.416z M154.24,284.377
		l-0.131,0.328l12.848,19.162l0.087-0.088l9.854-18.18l-1.312,2.252l8.521-15.775l-2.818-5.659
		c-0.685-1.397-1.362-2.797-2.032-4.196c-0.175-0.349-0.35-0.705-0.524-1.07c-3.438-7.297-6.729-14.521-9.876-21.674l-14.771,44.727
		C154.116,284.261,154.167,284.318,154.24,284.377z M141.829,322.877l-0.109,0.131l0.132,0.088L141.829,322.877z M145.26,343.59
		l5.266-9.613l-8.674-10.881c0.247,1.252,0.487,2.49,0.721,3.715C143.563,332.374,144.459,337.967,145.26,343.59z M167.263,312.236
		l-11.165,20.275l15.513,19.861l11.56-17.917L167.263,312.236z M153.235,328.863l11.34-20.582l-12.367-17.721l-8.5,26.373
		L153.235,328.863z M246.425,296.197c4.05-13.24,6.86-21.93,8.435-26.066l4.609-11.34c-3.248-5.564-6.023-11.9-8.324-19.01
		l-17.785,27.072l-0.131-0.045l-6.141,9.483v0.043l1.223,3.453c0.293,0.901,0.568,1.771,0.83,2.601
		c1.604,5.055,3.146,9.074,4.633,12.061c0.233,0.48,0.467,0.934,0.699,1.355c2.243,5.549,4.582,11.113,7.014,16.692l0.525,1.333
		l0.676-2.818c1.138-5.012,2.396-9.949,3.78-14.814H246.425L246.425,296.197z M216.971,331.943c-1.253-1.951-2.482-3.926-3.691-5.92
		c-0.524-0.847-1.041-1.689-1.553-2.535c-2.373-3.947-4.776-8.026-7.209-12.236l-15.449,24.166
		c4.661,6.6,9.498,13.234,14.509,19.905l16.431-18.595C218.975,335.156,217.961,333.561,216.971,331.943z M201.393,305.506
		l0.108-0.175c-5.229-9.497-10.182-18.871-14.857-28.12l-17.087,30.698l4.064,5.747c0.394,0.568,0.809,1.165,1.245,1.791
		c0.554,0.758,1.107,1.544,1.661,2.359l9.067,12.893l15.93-24.932C201.465,305.682,201.421,305.594,201.393,305.506z
		 M227.59,293.248l-4.173-11.165l-15.011,23.271c3.379,6.002,6.846,11.938,10.4,17.808c1.748,2.972,3.531,5.937,5.353,8.894
		l13.089-14.88c-0.219-0.539-0.452-1.063-0.7-1.573C233.432,308.143,230.445,300.691,227.59,293.248z M239.957,323.576l0.262-1.529
		l-12.826,15.01l8.414,13.022C236.912,340.99,238.296,332.154,239.957,323.576z"/>
	<path fill="#FFFFFF" d="M242.273,166.082l-20.604,37.67l-15.819,0.523c-3.539-15.236-6.541-30.72-9.001-46.452h2.556
		c15.44-0.044,29.665,0.619,42.673,1.988L242.273,166.082z M254.574,161.406c3.919,0.262,7.232,0.831,9.941,1.705v-0.131
		l12.455,2.862l1.508,20.124L271.313,197l-4.174,1.005c-4.238,0.991-7.466,1.588-9.68,1.792l-7.43,1.223
		c-0.889-11.127-1.289-23.707-1.201-37.733l1.464-2.469L254.574,161.406z M288.855,169.862l-5.133,8.041l-0.81-10.291
		C285.068,168.369,287.051,169.119,288.855,169.862z M188.981,158.107l-15.316,45.469l-4.458-0.459
		c-0.16-0.029-0.313-0.051-0.459-0.064c-0.146-0.029-0.298-0.037-0.459-0.021c-0.174-0.029-0.342-0.051-0.502-0.065l-8.762-0.961
		c-5.594-14.188-10.604-27.524-15.033-40.007l18.463-2.404l17.721-1.202C183.061,158.26,185.995,158.166,188.981,158.107z
		 M199.775,204.342l-19.534-0.328l11.821-36.074c2.272,12.119,4.828,24.144,7.669,36.074
		C199.731,204.145,199.746,204.254,199.775,204.342z M191.429,218.719c0.67,0,1.34,0.008,2.01,0.021l10.139,0.219l3.212,11.908
		l-10.444,19.205l-0.088,0.021l-5.506,10.029l0.088-0.021l-3.277,6.01l-0.044-0.131l-0.219,0.393
		c-3.073-6.381-6.009-12.746-8.806-19.098c-2.477-5.187-4.858-10.43-7.145-15.731l4.348-13.306c1.895,0.087,3.292,0.16,4.195,0.219
		L191.429,218.719z M218.588,218.457l27.006-2.339c0.35,2.054,0.723,4.042,1.115,5.966c0.67,3.451,1.391,6.743,2.163,9.875
		l-15.187,23.729l-0.131,0.023l-8.979,13.852c-1.792-5.33-3.476-10.641-5.048-15.928l-0.131-0.044
		c-2.535-7.866-4.881-15.761-7.037-23.687L218.588,218.457z M210.744,223.811l-0.044,0.108l-1.289-5.091l4.151-0.131
		L210.744,223.811z M213.169,252.607c1.224,3.802,2.526,7.684,3.911,11.646l0.131-0.021c1.15,3.61,2.402,7.238,3.76,10.881
		c0.043,0.115,0.079,0.225,0.108,0.326v0.045l-2.054,2.928h-0.133l-7.996,12.302l0.219,0.021l-5.855,9.156l-0.109-0.24l-0.239,0.393
		c-5.361-9.541-10.401-19.089-15.12-28.645l0.262-0.48l-0.044-0.088l5.332-10.008l0.152,0.023l12.957-23.992
		c0,0.043,0,0.096,0,0.152l0.088-0.175l4.784,15.774h-0.153V252.607z M300.197,180.678c0.043,4.604-5.049,8.762-15.273,12.477
		l-0.055,0.021l-0.426-6.052l9.461-14.727C298.085,174.946,300.184,177.707,300.197,180.678z M289.818,206.089l-3.605,4.896
		l-0.262-3.541L289.818,206.089z M260.867,213.803l-7.626,11.404v-0.043c-0.204-1.107-0.407-2.229-0.611-3.365
		c-0.379-2.082-0.714-4.253-1.005-6.511l7.953-1.442L260.867,213.803z M243.891,201.852l-17.086,1.528l15.666-28.427
		C242.543,184.538,243.016,193.504,243.891,201.852z M269.936,237.16l-7.756,15.295c-2.769-5.128-5.129-11.362-7.08-18.703
		l13.351-21.676l11.819-2.993l0.83,9.374c-0.451,0.67-0.888,1.354-1.311,2.053C276.322,225.914,273.037,231.465,269.936,237.16z
		 M135.668,163.438c-0.714,10.663-2.142,22.207-4.283,34.632c-9.061-1.821-16.868-4.115-23.423-6.883l-0.24-0.021
		c-3.248-1.588-5.601-3.256-7.058-5.004c-1.194-1.457-1.799-2.979-1.813-4.566c-0.059-6.409,9.76-11.938,29.454-16.584
		L135.668,163.438z M107.46,206.613c-0.073-0.174-0.161-0.336-0.263-0.48l6.358,2.207c5.011,1.529,10.247,2.893,15.71,4.086
		c0.015,0.029,0.021,0.059,0.021,0.088c-1.033,5.156-2.17,10.275-3.408,15.359c-0.335,1.326-0.67,2.674-1.005,4.043l-0.612,2.338
		c-0.131,0.467-0.262,0.932-0.393,1.398c-1.428-2.447-2.855-4.938-4.283-7.473C115.595,221.217,111.553,214.027,107.46,206.613z
		 M152.427,201.26l-14.53-1.988c1.544-9.978,2.637-18.841,3.277-26.591C144.408,181.261,148.158,190.787,152.427,201.26z
		 M135.646,213.803c0-0.029,0-0.059,0-0.088c1.529,0.291,3.08,0.582,4.653,0.874c4.676,0.786,9.49,1.456,14.442,2.011
		c1.078,0.116,2.148,0.232,3.213,0.351c0.378,0.043,0.75,0.079,1.113,0.108l6.162,14.508l-11.733,37.015l1.312-3.54l-4.545,13.176
		c-2.421-3.703-5.462-8.404-9.123-14.104c-0.01-0.016-0.021-0.029-0.032-0.043c-0.028-0.049-0.058-0.096-0.087-0.144l-2.535-4.042
		c-0.918-1.472-1.82-2.936-2.709-4.392c-2.302-3.673-4.589-7.334-6.861-10.991c0.146-0.495,0.284-0.99,0.415-1.484
		c0.044-0.307,0.103-0.599,0.175-0.875c0.059-0.275,0.131-0.554,0.219-0.83c1.209-5.695,2.222-10.283,3.037-13.766
		C133.781,222.973,134.742,218.391,135.646,213.803z M119.608,246.229c-4.486-11.231-9.439-22.694-14.858-34.393l17.24,29.344
		C121.276,242.957,120.482,244.641,119.608,246.229z M153.235,328.863l-9.527-11.93l8.5-26.373l12.367,17.721L153.235,328.863z
		 M145.26,343.59c-0.801-5.623-1.697-11.216-2.688-16.779c-0.233-1.225-0.474-2.463-0.721-3.715l8.674,10.881L145.26,343.59z
		 M154.24,284.377c-0.073-0.059-0.124-0.115-0.153-0.175l14.771-44.728c3.146,7.152,6.438,14.379,9.876,21.676
		c0.175,0.365,0.35,0.722,0.524,1.07c0.67,1.398,1.348,2.797,2.032,4.195l2.818,5.659l-8.521,15.774l1.312-2.25l-9.854,18.178
		l-0.087,0.089l-12.848-19.162L154.24,284.377z M167.853,223.416l-2.469-5.725l4.261,0.283L167.853,223.416z M123.891,256.277
		c0-0.059,0.029-0.115,0.088-0.174c1.005-2.142,1.966-4.363,2.884-6.664l0.284,0.545c0.029-0.057,0.459,0.584,1.289,1.924
		c0.655,1.006,1.631,2.637,2.928,4.895l1.354,2.295c4.865,8.273,10.044,16.707,15.535,25.301l-0.043,0.045l0.043,0.087
		l-8.674,27.227l-0.153-0.219c-0.393-1.808-0.786-3.62-1.18-5.44c-2.127-9.293-4.56-18.464-7.298-27.51l0.852,2.447
		c-1.704-6.104-3.35-11.413-4.938-15.93c-0.029-0.116-0.328-1.012-0.896-2.688L123.891,256.277z M167.263,312.236l15.907,22.221
		l-11.56,17.917l-15.513-19.86L167.263,312.236z M246.425,296.197h0.043c-1.384,4.865-2.644,9.804-3.78,14.813l-0.676,2.819
		l-0.525-1.333c-2.432-5.579-4.771-11.144-7.014-16.692c-0.232-0.423-0.466-0.875-0.699-1.355
		c-1.485-2.985-3.029-7.006-4.633-12.061c-0.262-0.83-0.537-1.697-0.83-2.601l-1.223-3.453v-0.043l6.141-9.483l0.131,0.045
		l17.785-27.072c2.301,7.109,5.076,13.445,8.324,19.01l-4.609,11.34C253.285,274.268,250.475,282.957,246.425,296.197z
		 M239.957,323.576c-1.661,8.578-3.045,17.414-4.15,26.503l-8.414-13.022l12.826-15.01L239.957,323.576z M227.59,293.248
		c2.855,7.443,5.842,14.895,8.958,22.354c0.248,0.51,0.481,1.033,0.7,1.572l-13.089,14.879c-1.82-2.957-3.604-5.921-5.353-8.893
		c-3.556-5.87-7.021-11.807-10.4-17.807l15.011-23.271L227.59,293.248z M201.393,305.506c0.028,0.088,0.072,0.176,0.131,0.262
		L185.595,330.7l-9.067-12.892c-0.554-0.816-1.107-1.604-1.661-2.36c-0.437-0.626-0.852-1.224-1.245-1.791l-4.064-5.747
		l17.087-30.698c4.676,9.249,9.628,18.623,14.857,28.12L201.393,305.506z M216.971,331.943c0.99,1.617,2.004,3.213,3.037,4.785
		l-16.431,18.595c-5.011-6.671-9.848-13.306-14.509-19.905l15.448-24.166c2.434,4.21,4.836,8.289,7.211,12.236
		c0.51,0.846,1.026,1.688,1.551,2.535C214.486,328.02,215.718,329.992,216.971,331.943z"/>
	<path fill="#010101" d="M193.744,73.505h0.022c11.056,0.422,20.35,4.69,27.88,12.804c7.531,8.128,11.1,17.735,10.707,28.82v0.022
		c-0.438,11.056-4.721,20.357-12.849,27.902c-8.114,7.517-17.713,11.078-28.798,10.685c-11.086-0.437-20.394-4.712-27.925-12.826
		c-7.531-8.143-11.085-17.749-10.663-28.82c0.423-11.085,4.69-20.393,12.805-27.924C173.067,76.636,182.674,73.082,193.744,73.505z
		 M175.631,79.645c2.17,2.316,4.027,5.003,5.572,8.063c1.879,3.525,3.496,6.162,4.851,7.909c2.505,3.103,5.586,5.434,9.242,6.992
		l9.222-24.712c-3.395-1.151-7.015-1.792-10.859-1.923C187.103,75.711,181.094,76.935,175.631,79.645z M228.005,125.704
		c1.106-3.35,1.733-6.904,1.879-10.663c0.189-4.909-0.458-9.512-1.944-13.809c-3.467,0.524-6.524,1.26-9.176,2.207
		c-3.687,1.544-6.84,2.535-9.462,2.971c-4.341,0.743-8.571,0.437-12.694-0.917l-2.775,7.451L228.005,125.704z M209.018,104.204
		c2.127-0.437,5.063-1.37,8.807-2.797c3.015-1.18,6.104-1.966,9.265-2.36c-1.676-3.962-4.087-7.655-7.231-11.078
		c-3.904-4.195-8.312-7.291-13.221-9.287l-9.221,24.712C201.203,104.633,205.07,104.903,209.018,104.204z M179.148,88.646
		c-1.18-2.287-3.037-4.909-5.571-7.866c-2.433,1.413-4.764,3.139-6.992,5.178c-4.224,3.933-7.334,8.376-9.33,13.329l34.479,12.869
		l2.753-7.451c-3.904-1.631-7.291-4.173-10.16-7.625C182.769,95.187,181.043,92.375,179.148,88.646z M190.882,114.407
		l-34.457-12.891c-1.077,3.35-1.689,6.904-1.835,10.663c-0.117,2.957,0.065,5.819,0.546,8.587c0.16,0.889,0.364,1.777,0.612,2.666
		c0.131,0.48,0.262,0.947,0.393,1.398c0.161,0.466,0.328,0.939,0.503,1.42c3.511-0.394,6.62-1.165,9.33-2.316
		c3.89-1.573,7.043-2.571,9.461-2.994c4.428-0.714,8.652-0.408,12.673,0.918L190.882,114.407z M192.979,115.194l-2.753,7.451
		c3.991,1.675,7.378,4.217,10.16,7.626c1.674,2.039,3.408,4.851,5.2,8.434c1.193,2.331,3.008,4.873,5.441,7.626
		c2.358-1.398,4.623-3.096,6.795-5.091c4.225-3.918,7.341-8.347,9.352-13.285L192.979,115.194z M175.719,123.191
		c-2.243,0.466-5.2,1.435-8.871,2.906c-2.972,1.136-6.089,1.908-9.352,2.316c0.437,1.005,0.902,1.981,1.397,2.928
		c1.501,2.768,3.395,5.39,5.682,7.866c3.991,4.312,8.499,7.465,13.524,9.461l9.243-24.69
		C183.541,122.754,179.666,122.492,175.719,123.191z M198.705,131.756c-2.521-3.103-5.608-5.441-9.265-7.014l-9.221,24.69
		c3.307,1.078,6.831,1.689,10.575,1.835c3.642,0.131,7.115-0.189,10.422-0.961l3.257-0.939c1.092-0.379,2.191-0.823,3.299-1.333
		l0.59-0.24c0.205-0.116,0.4-0.226,0.591-0.328c-1.996-2.17-3.815-4.742-5.462-7.713
		C201.712,136.257,200.117,133.592,198.705,131.756z"/>
	<path fill="#F37D2A" d="M175.631,79.645c5.463-2.709,11.472-3.933,18.026-3.671c3.846,0.131,7.466,0.772,10.858,1.923
		l-9.221,24.712c-3.656-1.559-6.737-3.889-9.242-6.992c-1.354-1.748-2.972-4.384-4.851-7.909
		C179.658,84.648,177.801,81.96,175.631,79.645z M209.018,104.204c-3.947,0.699-7.813,0.43-11.603-0.809l9.222-24.712
		c4.908,1.996,9.314,5.091,13.219,9.287c3.146,3.423,5.558,7.116,7.232,11.078c-3.161,0.394-6.25,1.18-9.265,2.36
		C214.079,102.834,211.145,103.767,209.018,104.204z M228.005,125.704l-34.173-12.76l2.775-7.451
		c4.122,1.354,8.354,1.661,12.694,0.917c2.622-0.437,5.775-1.427,9.461-2.971c2.651-0.947,5.711-1.683,9.178-2.207
		c1.485,4.297,2.134,8.9,1.943,13.809C229.738,118.799,229.111,122.354,228.005,125.704z M179.148,88.646
		c1.895,3.729,3.62,6.54,5.179,8.434c2.869,3.452,6.256,5.994,10.16,7.625l-2.753,7.451l-34.479-12.869
		c1.996-4.953,5.106-9.396,9.33-13.329c2.229-2.04,4.56-3.766,6.992-5.178C176.111,83.737,177.969,86.359,179.148,88.646z
		 M192.979,115.194l34.195,12.76c-2.011,4.938-5.127,9.367-9.352,13.285c-2.172,1.995-4.436,3.692-6.795,5.091
		c-2.435-2.753-4.248-5.295-5.441-7.626c-1.792-3.583-3.525-6.395-5.2-8.434c-2.782-3.409-6.169-5.951-10.16-7.626L192.979,115.194z
		 M198.705,131.756c1.412,1.835,3.007,4.501,4.785,7.997c1.646,2.972,3.466,5.543,5.462,7.713c-0.188,0.102-0.386,0.211-0.591,0.328
		l-0.59,0.24c-1.106,0.51-2.207,0.954-3.299,1.333l-3.257,0.939c-3.307,0.772-6.78,1.093-10.422,0.961
		c-3.744-0.146-7.269-0.757-10.575-1.835l9.221-24.69C193.097,126.315,196.185,128.653,198.705,131.756z M175.719,123.191
		c3.947-0.699,7.822-0.437,11.624,0.787l-9.243,24.69c-5.025-1.996-9.533-5.149-13.524-9.461c-2.287-2.477-4.181-5.099-5.682-7.866
		c-0.495-0.947-0.961-1.923-1.397-2.928c3.263-0.408,6.38-1.18,9.352-2.316C170.519,124.626,173.476,123.657,175.719,123.191z
		 M190.882,114.407l-2.774,7.451c-4.021-1.326-8.245-1.632-12.673-0.918c-2.418,0.422-5.571,1.42-9.461,2.994
		c-2.71,1.151-5.819,1.922-9.33,2.316c-0.175-0.481-0.342-0.954-0.503-1.42c-0.131-0.451-0.262-0.917-0.393-1.398
		c-0.248-0.889-0.452-1.777-0.612-2.666c-0.48-2.768-0.663-5.63-0.546-8.587c0.146-3.758,0.758-7.313,1.835-10.663L190.882,114.407z
		"/>
</g>
</svg>
