<?xml version="1.0" encoding="utf-8"?>
<!-- Generator: Adobe Illustrator 16.0.0, SVG Export Plug-In . SVG Version: 6.00 Build 0)  -->
<!DOCTYPE svg PUBLIC "-//W3C//DTD SVG 1.1//EN" "http://www.w3.org/Graphics/SVG/1.1/DTD/svg11.dtd">
<svg version="1.1" id="Layer_1" xmlns="http://www.w3.org/2000/svg" xmlns:xlink="http://www.w3.org/1999/xlink" x="0px" y="0px"
	 width="400px" height="400px" viewBox="0 0 400 400" enable-background="new 0 0 400 400" xml:space="preserve">
<path fill="#1D4969" d="M242.422,81.458c-13.813-13.813-30.499-20.72-50.058-20.72c-4.54,0-8.929,0.374-13.166,1.118
	c0.005-0.118,0.005-0.214,0-0.293c-0.071-0.061-0.146-0.16-0.223-0.279c-0.114,0.05-0.226,0.104-0.341,0.15
	c0.072,0.236,0.143,0.412,0.207,0.486c-1.611,0.292-3.198,0.638-4.761,1.038l-0.173-0.28c0.053-0.177,0.053-0.293,0-0.345
	c-0.036,0.052-0.044,0.195-0.022,0.443c0.005,0.097,0.005,0.181,0,0.252c-11.794,3.062-22.309,9.211-31.544,18.447
	c-3.77,3.766-7.023,7.746-9.762,11.943c-0.035-0.035-0.051-0.079-0.083-0.115c-0.071,0.087-0.138,0.181-0.211,0.264
	c0.044,0.026,0.083,0.038,0.13,0.072c-0.08,0.121-0.159,0.241-0.24,0.36c-0.005-0.028-0.014-0.059-0.025-0.093
	c-0.02-0.046-0.043-0.081-0.064-0.123c-0.148,0.157-0.302,0.306-0.458,0.448c0.063,0.015,0.136,0.048,0.231,0.119
	c0.03,0.023,0.054,0.043,0.081,0.067c-1.198,1.899-2.293,3.839-3.285,5.824c-0.041-0.062-0.07-0.093-0.093-0.093
	c0.013,0.072,0.025,0.139,0.038,0.201c-0.818,1.654-1.569,3.338-2.247,5.055c-0.063-0.019-0.116-0.024-0.158-0.014
	c-0.178-0.106-0.249-0.045-0.213,0.186c0.117-0.066,0.217-0.061,0.306,0.014c-0.365,0.924-0.706,1.86-1.023,2.806
	c-0.001-0.028-0.001-0.055,0-0.08c0.006-0.063,0.001-0.113,0.006-0.174c-0.159,0.41-0.358,0.855-0.618,1.384
	c-0.16,0.324-0.358,0.629-0.57,0.927c0.014,0.226-0.013,0.409-0.125,0.498c0.157,0.133,0.268,0.316,0.333,0.546
	c-1.319,4.625-2.157,9.447-2.514,14.47c-0.115-0.029-0.23-0.095-0.345-0.201c-0.1-0.071-0.199-0.113-0.299-0.149v2.391
	c0.146-0.077,0.303-0.157,0.486-0.246c0.021-0.01,0.042-0.024,0.066-0.039c-0.062,1.264-0.093,2.535-0.093,3.817
	c0,6.118,0.678,11.956,2.035,17.516l-0.014-0.015c-0.019,0.23,0.035,0.461,0.16,0.691c0.015,0.028,0.027,0.053,0.04,0.08
	c0.078,0.294,0.157,0.586,0.238,0.877l-0.04,0.134c-0.035-0.284-0.168-0.444-0.398-0.479c-0.212-0.072-0.398-0.035-0.558,0.106
	l0.053,0.505c0.072,0.053,0.169,0.01,0.292-0.134c0.107-0.07,0.168-0.019,0.187,0.16c-0.035,0.071-0.072,0.106-0.107,0.106
	c-0.087-0.054-0.176-0.07-0.264-0.054c0.016,0.658,0.007,1.013-0.028,1.065l-0.107,0.213c0.107,0.212,0.372,0.177,0.798-0.107
	l-0.08-0.906c0.136,0.035,0.272,0.021,0.413-0.039c0.266,0.954,0.555,1.898,0.864,2.834c-0.098-0.028-0.197-0.046-0.292-0.054
	c-0.516-0.036-0.835-0.098-0.958-0.187c0,0.106-0.117,0.283-0.347,0.532c-0.04,0.091-0.06,0.171-0.084,0.254
	c0.081,0.277,0.163,0.554,0.248,0.829c0.266-0.073,0.387-0.217,0.342-0.44c0.037,0.054,0.099,0.105,0.187,0.159
	c0.089,0.018,0.142,0.082,0.16,0.189c0.019-0.159,0.15-0.257,0.399-0.292c0.195-0.071,0.337-0.088,0.425-0.053
	c0.019,0.16-0.035,0.284-0.159,0.372c-0.177,0.019-0.302,0.035-0.374,0.054c0.355,0.355,0.567,0.647,0.639,0.878
	c-0.407,0.053-0.656,0.088-0.745,0.107c-0.215-0.019-0.32-0.197-0.32-0.533c-0.107,0.061-0.207,0.186-0.301,0.354
	c0.121,0.368,0.242,0.736,0.371,1.101l0.008-0.02v-0.319c0.125,0.017,0.205,0,0.24-0.053c-0.017-0.178,0.009-0.303,0.082-0.378
	c0.054-0.019,0.195-0.034,0.426-0.052c0.16-0.036,0.267-0.026,0.32,0.027c0.036,0,0.062-0.063,0.08-0.187v-0.239l0.346-0.053
	c0.224,0.608,0.454,1.209,0.692,1.809c-0.025-0.02-0.042-0.037-0.055-0.054c0,0.054,0.009,0.22,0.028,0.504
	c0.019,0.178,0.097,0.32,0.239,0.425c-0.177-0.086-0.292-0.008-0.344,0.241c-0.143,0.302-0.32,0.434-0.532,0.398
	c-0.053-0.14-0.088-0.309-0.107-0.505c-0.035,0-0.229,0.063-0.585,0.187c0.051,0.104,0.068,0.3,0.053,0.58
	c0.041,0.098,0.082,0.196,0.124,0.294c0.034,0.04,0.066,0.081,0.117,0.112c-0.036-0.409,0-0.69,0.107-0.851
	c0.105,0.035,0.194,0.107,0.264,0.212c-0.035,0.125-0.133,0.276-0.292,0.453c-0.046,0.116-0.068,0.232-0.082,0.348
	c0.108,0.25,0.215,0.5,0.327,0.748c0.119,0.053,0.238,0.106,0.393,0.207c0.32,0.212,0.525,0.135,0.613-0.239
	c-0.018-0.053-0.063-0.071-0.135-0.053c-0.088-0.105-0.115-0.187-0.08-0.239c0.071-0.195,0.151-0.347,0.24-0.452
	c-0.036,0-0.082-0.045-0.133-0.133c-0.106-0.09-0.159-0.072-0.159,0.053c-0.162-0.107-0.107-0.293,0.159-0.559
	c0.195-0.319,0.319-0.284,0.372,0.107c-0.124-0.036-0.204-0.019-0.239,0.053c-0.09,0.124-0.072,0.204,0.054,0.238v0.081
	c0.087-0.071,0.176-0.115,0.264-0.132c0.087-0.007,0.169,0.001,0.253,0.027c0.082,0.187,0.166,0.373,0.253,0.558
	c-0.047,0.014-0.072,0.048-0.081,0.106c0.061,0.069,0.127,0.122,0.201,0.159c0.059,0.139,0.122,0.275,0.185,0.413
	c-0.129,0.029-0.241-0.003-0.331-0.093c0.033,0.193,0.07,0.283,0.105,0.266c0.09,0.052,0.151,0.043,0.187-0.027
	c0.053,0.195,0.134,0.354,0.239,0.477c-0.017-0.124-0.045-0.238-0.081-0.346c-0.036-0.053-0.057-0.106-0.066-0.158
	c0.272,0.579,0.549,1.154,0.839,1.728v0.053c0.01,0.074,0.049,0.132,0.119,0.174c0.089,0.181,0.183,0.362,0.28,0.544
	c-0.453,0.406-0.806,0.69-1.065,0.851c0,0.052,0.045,0.036,0.134-0.053c0.09-0.072,0.168-0.081,0.239-0.028
	c-0.105,0.319-0.256,0.452-0.451,0.398c-0.09,0-0.153-0.013-0.235-0.017c0.108,0.183,0.218,0.366,0.33,0.547
	c0.023-0.001,0.042,0.004,0.064,0.001c0.286-0.037,0.684-0.16,1.198-0.373c-0.035-0.105-0.025-0.221,0.027-0.344
	c0.021-0.114,0.075-0.188,0.158-0.227c0.579,1.079,1.187,2.142,1.823,3.191c-0.068,0.139-0.152,0.276-0.253,0.413
	c-0.283,0.467-0.457,0.756-0.536,0.893c0.028,0.035,0.053,0.071,0.081,0.105c0.1,0.065,0.232,0.078,0.429-0.015
	c0.284-0.123,0.488-0.194,0.611-0.211l-0.106,0.292c0.036-0.017,0.115,0.028,0.239,0.133c0.054,0.037,0.089,0.355,0.107,0.958
	c0.028,0.217,0.074,0.382,0.13,0.519c0.104,0.116,0.212,0.23,0.318,0.345c0.012,0.002,0.02,0.012,0.032,0.014
	c-0.003,0.005-0.008,0.003-0.011,0.007c0.393,0.428,0.791,0.854,1.21,1.271c0.933,0.926,1.886,1.881,2.827,2.863
	c0.035-0.065,0.063-0.147,0.103-0.201c0.072,0.092,0.147,0.187,0.226,0.279c-0.032,0.063-0.03,0.143-0.048,0.213
	c0.311,0.327,0.618,0.659,0.922,0.994c0.033-0.01,0.066-0.005,0.098-0.023c0.011,0.018,0.025,0.035,0.039,0.053
	c0.001,0.031-0.02,0.063-0.022,0.095c1.106,1.218,2.164,2.486,3.117,3.81c0.055-0.021,0.131-0.064,0.245-0.146l0.053,0.08
	l-0.014-0.08c0.375,0.382,0.751,0.762,1.132,1.143c7.142,7.141,15.055,12.41,23.72,15.857c0.693-0.228,1.5-0.241,2.406,0.069
	c6.682,2.283,13.457,4.12,20.395,4.968l-0.031-0.26c0.231,0.011,0.462,0.02,0.692,0.027c0.073,0.102,0.115,0.213,0.133,0.33
	c0.979,0.108,1.965,0.189,2.952,0.256c0.074-0.07,0.168-0.125,0.28-0.161c0.002,0.056,0.015,0.124,0.018,0.181
	c1.635,0.102,3.276,0.155,4.931,0.128c-0.065-0.278-0.107-0.503-0.107-0.63c-0.022-0.083-0.028-0.158-0.014-0.225
	c0.104-0.011,0.212-0.021,0.318-0.027c0,0.121-0.006,0.27-0.013,0.439c-0.011,0.235,0.041,0.364,0.122,0.443
	c0.045,0,0.09,0.004,0.135,0.002c0.05-0.002,0.09,0.01,0.138,0.01l-0.077-0.919c17.012-1.272,31.713-8.105,44.099-20.492
	c13.813-13.813,20.722-30.491,20.722-50.031C263.144,111.957,256.235,95.271,242.422,81.458z M240.563,83.322
	c7.796,7.786,13.311,16.517,16.544,26.197l-5.959-8.086l-6.675-6.463l-6.759-4.814l-20.054-11.544l-6.994-5.507l5.079-0.479
	l11.663,0.24C232.059,75.714,236.445,79.199,240.563,83.322z M218.672,68.399l-8.591,0.397l-3.139,0.505l-0.159-0.08l-0.772-1.065
	l-0.504-0.452l-0.852-1.224l-2.17-2.459C208.162,64.805,213.558,66.263,218.672,68.399z M192.365,63.344
	c1.332,0,2.648,0.035,3.951,0.105l3.363,3.725L200.186,68l0.345,0.265l1.306,1.516l0.238,0.346l-9.788,2.341l-3.432,1.198
	l-1.237-0.892l-0.025-0.438c-0.088-0.028-0.18-0.052-0.265-0.086c0.021,0.045,0.041,0.1,0.064,0.112l-0.212,0.092l-3.03-2.195
	l-0.533-0.479l-7.913-4.535C180.993,63.977,186.548,63.344,192.365,63.344z M169.559,67.052l3.737,1.715l7.952,4.602l2.952,2.075
	l-2.685,1.011l-2.918,1.472c-0.632,0.981-1.707,1.671-3.248,1.643l-2.269,1.14l-2.049-1.41l-1.03-0.534
	c-1.255-0.331-2.497-0.731-3.721-1.213c-0.497-0.195-0.953-0.456-1.356-0.768c0.001,0.004,0.006,0.011,0.006,0.015l-0.174-0.039
	v-0.015c-0.069-0.035-0.159-0.053-0.264-0.053v0.014l-3.14-0.546l-5.107,0.107l-4.934,0.744
	C156.962,72.65,163.045,69.328,169.559,67.052z M128.08,154.721c-0.17-0.471-0.333-0.945-0.492-1.424
	c0.225,0.039,0.353,0.233,0.387,0.587c0.09,0.533,0.151,0.798,0.187,0.798C128.132,154.698,128.105,154.711,128.08,154.721z
	 M129.875,144.626c-0.079-0.032-0.1-0.156-0.068-0.374c0.017-0.267,0.009-0.425-0.027-0.477c-0.035-0.161-0.115-0.151-0.24,0.027
	c-0.09,0.142-0.168,0.151-0.24,0.026c0-0.177,0.063-0.265,0.187-0.265c0.072-0.019,0.197-0.045,0.374-0.08
	c0,0.171,0.049,0.309,0.146,0.413L129.875,144.626z M129.064,143.672c0.036,0.071,0,0.124-0.106,0.159
	c-0.178,0.017-0.284-0.008-0.32-0.08c0.053-0.319,0.124-0.567,0.212-0.744c0.035-0.302,0.15-0.514,0.345-0.638
	c-0.105,0.317-0.078,0.504,0.081,0.558c0.035-0.09,0.053-0.213,0.053-0.374c-0.053-0.23-0.08-0.372-0.08-0.425
	c0.088-0.054,0.151-0.011,0.187,0.133l0.08,0.265c-0.071,0.177-0.088,0.311-0.053,0.399l0.133,0.27
	c-0.143-0.019-0.267,0-0.372,0.053c-0.16,0.159-0.275,0.212-0.347,0.159C128.877,143.566,128.939,143.655,129.064,143.672z
	 M131.89,133.773l-1.371,7.396h-0.014l0.014,0.014v0.013c-0.016,0.038-0.082,0.081-0.199,0.133c-0.178,0.161-0.23,0.382-0.161,0.666
	c-0.23,0.107-0.479-0.098-0.744-0.612c0.177-0.07,0.346-0.124,0.505-0.159c0.105-0.017,0.256-0.009,0.45,0.027
	c-0.229-0.371-0.583-0.558-1.064-0.558c-0.034,0.017-0.034,0.168,0,0.453c-0.142-0.055-0.22-0.135-0.239-0.24
	c0.071-0.177,0.071-0.292,0-0.346c-0.035,0.638-0.115,1.188-0.239,1.648c-0.23-0.267-0.409-0.39-0.532-0.372
	c-0.02-0.194,0.035-0.328,0.158-0.399h0.107c0-0.23-0.115-0.39-0.346-0.479c-0.25-0.089-0.374-0.284-0.374-0.586
	c-0.087,0.212-0.187,0.327-0.292,0.345c0.033,0.285,0.115,0.585,0.238,0.904c0.161,0.285,0.23,0.568,0.213,0.851
	c0.018-0.158,0.046-0.273,0.08-0.345c0.107,0.14,0.16,0.423,0.16,0.851c-0.035,0.267-0.107,0.505-0.212,0.717
	c0.052,0.035,0.133,0.23,0.239,0.586c0.07,0.337,0.16,0.522,0.265,0.558c0,0.301-0.062,0.514-0.187,0.638
	c0.178,0.162,0.329,0.399,0.453,0.719c0.036,0,0.098,0.327,0.187,0.984c0.158-0.021,0.304-0.053,0.439-0.092l-0.121,0.612
	c-0.078-0.078-0.156-0.162-0.239-0.253c-0.195,0.072-0.273,0.311-0.238,0.72c0.015,0.229,0.07,0.576,0.158,1.036
	c-0.125,0.072-0.178,0.187-0.158,0.346l-0.427,0.052c-0.087-0.124-0.105-0.292-0.054-0.504c-0.23,0-0.407,0.035-0.532,0.106
	c0,0.105,0.047,0.152,0.135,0.134l0.185,0.08c0.072,0.302,0.01,0.425-0.185,0.372c0.105,0.054,0.15,0.168,0.132,0.346
	c0.018,0.178,0.053,0.232,0.107,0.16c0.125-0.035,0.097-0.15-0.081-0.345c0.09-0.054,0.213-0.098,0.373-0.134
	c0.125-0.017,0.248-0.008,0.374,0.027c-0.036,0.532-0.107,0.86-0.212,0.984c0,0.067,0.097,0.164,0.292,0.292l-0.026,0.425
	c-0.028-0.012-0.054-0.021-0.08-0.026c-0.196-0.105-0.381-0.194-0.559-0.266c0.018,0.339-0.195,0.559-0.638,0.666
	c0.035-0.108,0.018-0.213-0.054-0.32c-0.019-0.177-0.026-0.354-0.026-0.532c-0.16,0.213-0.32,0.275-0.48,0.187
	c-0.046-0.007-0.091-0.019-0.133-0.039c-0.098-0.343-0.197-0.69-0.292-1.036c0.004-0.271,0.093-0.374,0.266-0.308
	c-0.191-0.334-0.359-0.535-0.505-0.598c-0.01-0.025-0.02-0.052-0.027-0.081c0.059-0.119,0.104-0.248,0.134-0.384
	c-0.087-0.144-0.159-0.205-0.212-0.188c-0.008,0.048-0.018,0.093-0.026,0.134c-0.034-0.13-0.07-0.263-0.107-0.399h0.054
	l-0.027-0.318c-0.035-0.039-0.076-0.064-0.121-0.082c-1.232-5.225-1.849-10.703-1.849-16.437c0-1.533,0.045-3.049,0.134-4.549
	c0.054,0.126,0.144,0.276,0.212,0.412c-0.18-0.951-0.041-1.979,0.417-2.924c0.163-0.336,0.292-0.684,0.435-1.028
	c-0.195-0.048-0.374,0.139-0.534,0.588c-0.17,0.473-0.297,0.771-0.384,0.892c0.161-1.809,0.386-3.593,0.677-5.348l0.055-0.012
	l0.027-0.439c2.274-13.253,8.333-24.936,18.178-35.044l8.499-2.818l4.628-0.825l4.556-0.031l2.74,0.426l3.751,1.358l1.25,0.771
	l0.212,0.081l-8.271,5.905l-9.761,9.282l-7.848,10.268l-5.253,9.637c-0.782,2.333-1.99,4.523-3.097,6.716
	c-0.063,0.125-0.152,0.228-0.229,0.342c0.015,0.04,0.022,0.072,0.039,0.114c-0.046,0.035-0.112,0.06-0.173,0.087
	c-0.091,0.116-0.191,0.221-0.295,0.323c0.136,0.095,0.27,0.29,0.402,0.615L131.89,133.773z M134.998,142.66
	c0.07-0.195,0.124-0.143,0.158,0.159c0.035,0.302,0.025,0.507-0.026,0.612c-0.037,0-0.062-0.052-0.081-0.159
	c-0.036-0.125-0.098-0.168-0.187-0.133c0.054,0.23,0.062,0.399,0.027,0.505c0.017,0.141-0.027,0.274-0.134,0.399
	c-0.178,0.014-0.31-0.126-0.398-0.427l0.014-0.08l0.385-0.027c-0.088-0.053-0.151-0.107-0.185-0.16
	c-0.088-0.053-0.044-0.115,0.134-0.187c-0.019-0.051-0.103-0.069-0.254-0.052l0.346-1.769c0.029-0.013,0.06-0.027,0.092-0.04
	c0.125,0.09,0.187,0.284,0.189,0.586c-0.035,0.23-0.105,0.444-0.212,0.639c0.107,0.142,0.159,0.239,0.159,0.292
	C135.113,142.819,135.103,142.765,134.998,142.66z M136.429,145.719c0,0.107,0.053,0.107,0.158,0c0.09-0.017,0.152,0.09,0.187,0.32
	c0.054,0.159,0.178,0.194,0.374,0.105c-0.106,0.195-0.09,0.362,0.053,0.505c0.107,0.177,0.213,0.142,0.319-0.107h-0.052
	c-0.089,0.02-0.142-0.062-0.16-0.239c-0.017-0.229-0.053-0.379-0.105-0.452c0.054,0.068,0.134,0.062,0.239-0.027
	c-0.054-0.053-0.105-0.15-0.159-0.292c-0.053-0.232-0.099-0.347-0.134-0.347c-0.018-0.052,0.018-0.115,0.106-0.185l0.24-0.028
	c0.088,0.602,0.062,1.01-0.084,1.224c0.035,0,0.099,0.08,0.187,0.24c0.034,0.23,0.133,0.3,0.292,0.212
	c0.018,0.124-0.063,0.222-0.241,0.292c-0.124,0.16-0.177,0.293-0.158,0.399c-0.088-0.23-0.337-0.442-0.745-0.638
	c-0.355-0.178-0.523-0.444-0.505-0.797c-0.07,0.018-0.105,0.125-0.105,0.32c0.054,0.087,0.062,0.14,0.026,0.159
	c-0.212-0.07-0.38-0.159-0.504-0.266c-0.248-0.159-0.31-0.453-0.187-0.877c0.267-0.054,0.444,0.125,0.532,0.532
	C136.216,145.63,136.357,145.614,136.429,145.719z M136.378,145.292c0.035-0.053,0.088-0.141,0.16-0.265
	c0.052-0.142,0.105-0.187,0.161-0.134C136.875,145.266,136.769,145.397,136.378,145.292z M138.214,157.419
	c0.07-0.017,0.15-0.027,0.239-0.027c0.09-0.018,0.133-0.053,0.133-0.106c0.159-0.034,0.248,0.071,0.265,0.32
	c-0.035,0.213-0.018,0.32,0.054,0.32c-0.124,0.036-0.471,0.185-1.036,0.451c-0.02-0.177,0.068-0.319,0.265-0.426
	C138.241,157.846,138.266,157.668,138.214,157.419z M138.878,163.141c-0.124,0.088-0.3-0.037-0.532-0.374
	c-0.212-0.335-0.354-0.451-0.425-0.346c-0.019-0.124,0.035-0.204,0.159-0.239l0.4-0.24c0.088,0.072,0.142,0.276,0.16,0.614
	C138.711,162.91,138.79,163.105,138.878,163.141z M138.001,152.766c-0.036-0.177-0.195-0.292-0.479-0.346
	c-0.284-0.018-0.426-0.229-0.426-0.637c0.194-0.053,0.284-0.195,0.266-0.426c-0.036-0.336-0.036-0.532,0-0.585
	c0.087,0.284,0.255,0.611,0.506,0.985C138.047,152.076,138.09,152.412,138.001,152.766z M137.521,155.771
	c-0.052,0.194-0.105,0.205-0.158,0.026c-0.091-0.23-0.152-0.364-0.188-0.399c0.141,0.036,0.274-0.052,0.399-0.266
	c0.071,0.125,0.053,0.276-0.054,0.452C137.45,155.727,137.45,155.788,137.521,155.771z M137.362,153.06
	c0.037,0.887,0.063,1.383,0.081,1.49c-0.125-0.037-0.239-0.045-0.346-0.028c0,0.107,0.063,0.178,0.187,0.213
	c0.087-0.018,0.105,0.071,0.054,0.266c-0.036,0.051-0.151,0.086-0.347,0.105c-0.159,0.035-0.248,0.088-0.264,0.16
	c0.124,0.124,0.167,0.239,0.132,0.345c-0.035,0.23-0.044,0.407-0.027,0.533l-0.292,0.027c0.071-0.23,0.124-0.381,0.159-0.453
	c0.071-0.177,0.009-0.354-0.188-0.532c0.23-0.299,0.364-0.486,0.399-0.558c-0.054-0.036-0.098-0.292-0.134-0.771l0.612-1.143
	c0.373-0.018,0.461,0.266,0.265,0.85L137.362,153.06z M136.458,150.131c0.249,0.197,0.345,0.178,0.293-0.052
	c-0.037-0.267,0.017-0.443,0.159-0.532c0.107,0.603,0.178,0.931,0.212,0.983l-0.584,0.133L136.458,150.131z M136.485,156.729
	c-0.161,0.125-0.302,0.267-0.425,0.425c-0.302,0.197-0.532,0.224-0.693,0.082c-0.051-0.568,0.063-1.109,0.346-1.622l0.187,0.052
	l0.001,0c0.09,0.09,0.151,0.312,0.187,0.665C136.105,156.631,136.236,156.763,136.485,156.729z M135.447,148.059
	c0.285-0.088,0.427-0.159,0.427-0.212c0.125-0.017,0.158,0.205,0.105,0.666c0.248,0.034,0.417-0.107,0.506-0.427
	c0.177-0.3,0.3-0.496,0.372-0.584l-0.158-0.187c-0.037-0.195-0.045-0.32-0.027-0.374c0.068,0.018,0.237,0.284,0.507,0.797
	c0.177,0.319,0.265,0.629,0.265,0.931c-0.125,0.124-0.248,0.194-0.372,0.212c0.017,0.125,0.07,0.206,0.159,0.241
	c0.107,0.035,0.14,0.16,0.107,0.372l-0.241-0.425c-0.302,0.213-0.604,0.16-0.904-0.16
	C136.121,148.875,135.875,148.591,135.447,148.059l-0.373-0.346l0.346-0.08L135.447,148.059z M134.836,145
	c0.124,0.142,0.15,0.461,0.079,0.958c-0.124,0.548-0.177,0.877-0.159,0.983c-0.177-0.089-0.273-0.054-0.292,0.107
	c-0.019,0.372-0.045,0.565-0.08,0.585c0.124,0.034,0.193,0.167,0.212,0.398c-0.054,0.354-0.08,0.559-0.08,0.611
	c-0.179-0.39-0.31-0.709-0.398-0.957c0.194-0.23,0.238-0.604,0.133-1.117c-0.09-0.746-0.115-1.241-0.08-1.49
	c0.195,0.036,0.389-0.027,0.584-0.187c0.037,0,0.064,0.027,0.082,0.081c-0.071-0.284-0.116-0.453-0.133-0.504
	c-0.036-0.159,0.035-0.284,0.212-0.372c0.16,0.247,0.258,0.514,0.293,0.797L134.836,145z M134.157,144.653l0.107-0.572l0.012,0.015
	c0.036,0.053,0.125,0.158,0.266,0.319C134.557,144.566,134.429,144.646,134.157,144.653z M132.654,163.778l0.065-1.531
	c0.069,0.122,0.108,0.304,0.121,0.546C132.854,163.389,132.792,163.716,132.654,163.778z M133.346,153.326
	c-0.091-0.009-0.17-0.036-0.24-0.08l0.027-0.786c0.046,0.039,0.09,0.088,0.132,0.147
	C133.443,152.802,133.469,153.043,133.346,153.326z M133.319,151.783c0.036-0.177,0.009-0.479-0.08-0.904
	c-0.013-0.059-0.022-0.117-0.027-0.174l0.027-0.584c0.22,0.16,0.372,0.448,0.452,0.865
	C133.799,151.463,133.674,151.73,133.319,151.783z M134.516,166.491c0-0.054-0.07-0.044-0.212,0.027
	c-0.177,0.072-0.266-0.062-0.266-0.398c0.034,0.053,0.052,0.141,0.052,0.265c0.07,0,0.098-0.115,0.08-0.346
	C134.473,165.949,134.588,166.101,134.516,166.491z M134.439,154.977c-0.053-0.498,0.043-0.771,0.292-0.824
	c0.035,0.406,0.071,0.637,0.106,0.69c0.249-0.071,0.344-0.407,0.292-1.011c-0.072-0.745-0.018-1.224,0.159-1.436
	c-0.159-0.037-0.238-0.142-0.238-0.32c-0.072,0.088-0.072,0.177,0,0.265c0.07,0.106,0.086,0.193,0.051,0.265
	c-0.195-0.159-0.292-0.327-0.292-0.504c0.125,0,0.222-0.134,0.292-0.399c0.072-0.177,0.135-0.302,0.187-0.374
	c-0.124,0.036-0.274-0.132-0.451-0.504c-0.247-0.337-0.417-0.497-0.505-0.479c-0.019-0.337-0.134-0.612-0.346-0.826
	c-0.23-0.319-0.39-0.559-0.479-0.717c0.087,0.088,0.177,0.105,0.266,0.053c0.053-0.072,0.07-0.197,0.053-0.374
	c0.14,0.16,0.23,0.382,0.264,0.666c0.071,0,0.221-0.081,0.452-0.241c0.162-0.142,0.302-0.186,0.427-0.133
	c-0.019,0.409-0.055,0.816-0.104,1.226c-0.07,0.02-0.125,0.028-0.159,0.028c-0.053,0-0.1,0.07-0.133,0.212
	c0.194,0.265,0.426,0.257,0.691-0.027c-0.125,0.336-0.036,0.699,0.266,1.09c0.23,0.267,0.265,0.407,0.105,0.426
	c0.106,0.336,0.168,0.389,0.187,0.16c0.036,0,0.063,0.062,0.08,0.186c0.037,0.106,0.08,0.151,0.133,0.133
	c-0.071,0.125-0.177,0.134-0.32,0.028c-0.16-0.072-0.267-0.169-0.319-0.294c-0.035,0,0.009,0.232,0.134,0.693
	c0.092-0.063,0.138-0.147,0.133-0.254c0.066,0.797-0.022,1.424-0.265,1.875c0.07,0.144,0.141,0.188,0.212,0.134
	c0.07-0.123,0.125-0.186,0.158-0.186c0.035,0.798-0.008,1.267-0.133,1.411C135.688,155.083,135.289,154.871,134.439,154.977z
	 M135.341,166.835c-0.036,0.052-0.044,0.115-0.026,0.185c-0.195-0.229-0.284-0.512-0.266-0.85c-0.036-0.283,0.052-0.469,0.266-0.558
	c0,0.124-0.045,0.186-0.135,0.183c0.108,0.107,0.117,0.284,0.028,0.533c-0.035,0.23,0.028,0.374,0.187,0.427
	C135.395,166.807,135.377,166.835,135.341,166.835z M137.018,170.108l-0.08,0.187c-0.179,0.019-0.311,0.026-0.399,0.026
	c-0.125-0.07-0.205-0.177-0.24-0.319c0.302,0.266,0.524,0.239,0.666-0.081C137.071,169.958,137.087,170.021,137.018,170.108z
	 M137.708,168.647c0.054-0.231,0-0.338-0.158-0.32c-0.072-0.443-0.134-0.719-0.188-0.824c-0.018-0.125-0.125-0.257-0.319-0.399
	c-0.036,0-0.054,0.062-0.054,0.186c0,0.053-0.087,0.099-0.264,0.133c0.051,0.232,0.123,0.532,0.212,0.906
	c-0.089-0.019-0.177-0.143-0.266-0.374c-0.107-0.159-0.222-0.256-0.347-0.292c0.071-0.125,0.107-0.274,0.107-0.452l0.24-0.053
	c-0.054-0.106-0.124-0.177-0.212-0.211c0.015-0.142,0.087-0.178,0.212-0.107c0.07,0.088,0.124,0.107,0.158,0.052
	c-0.07-0.194-0.14-0.283-0.212-0.265c-0.16,0.055-0.301,0.088-0.425,0.107c-0.268-0.443-0.374-1.002-0.32-1.675
	c0.087-0.585,0.255-0.985,0.504-1.198l-0.878-0.479c0.035-0.071,0.054-0.082,0.054-0.028c0.071-0.054,0.071-0.204,0-0.452
	l-0.134-0.479c0.374-0.353,0.497-0.735,0.374-1.144c0.09,0,0.195,0.055,0.319,0.161c0.036-0.125,0.018-0.187-0.052-0.187
	c-0.09-0.037-0.134-0.081-0.134-0.133c-0.16,0.071-0.229,0.249-0.213,0.532c0,0.23-0.08,0.398-0.238,0.505
	c-0.09-0.302-0.072-0.542,0.053-0.719c0.105-0.249,0.141-0.47,0.105-0.666c0.178,0.107,0.293,0.036,0.346-0.212
	c0.053-0.408,0.1-0.728,0.134-0.958c-0.177-0.035-0.247,0.177-0.213,0.638c-0.158-0.105-0.238-0.364-0.238-0.771
	c0.034-0.453,0.034-0.747,0-0.878c0.037,0.124,0.099,0.177,0.184,0.159c0.089-0.072,0.142-0.195,0.161-0.374
	c0.177,0.071,0.258,0.38,0.238,0.931c0.035,0.443,0.124,0.594,0.266,0.452c0,0.763,0.035,1.348,0.107,1.756
	c-0.266,0.23-0.479,0.292-0.639,0.187l0.213,0.531c0.053,0.16,0.062,0.355,0.026,0.585c0.072-0.195,0.115-0.204,0.134-0.026
	c0.106-0.674,0.364-1.029,0.771-1.065c-0.159,0.32-0.159,0.639,0,0.958c0.302,0.604,0.461,0.993,0.48,1.171
	c-0.177-0.09-0.266-0.053-0.266,0.105c-0.071,0.196-0.151,0.302-0.24,0.32c-0.125-0.159-0.09-0.257,0.107-0.292
	c-0.035-0.108-0.088-0.214-0.161-0.32c-0.036-0.053-0.062-0.134-0.08-0.24c0.106-0.071,0.187-0.081,0.24-0.027l0.08,0.212
	c0.069-0.124,0.043-0.267-0.08-0.426c-0.213-0.124-0.364-0.212-0.453-0.266c-0.017-0.124-0.008-0.212,0.027-0.265
	c0.088-0.07,0.125-0.141,0.107-0.212c-0.373,0.052-0.524,0.346-0.453,0.877c0.019,0.408,0.151,0.62,0.399,0.638
	c0.054,0,0.081,0.15,0.081,0.452l-0.081-0.187c-0.053,0.178-0.105,0.302-0.158,0.374c0.017,0.07,0.087,0.098,0.212,0.08
	c0.071,0.054,0.098,0.134,0.08,0.241c0.071-0.072,0.115-0.197,0.133-0.374c0.177-0.035,0.205,0.17,0.08,0.612
	c-0.462-0.125-0.763-0.079-0.904,0.133l0.08,1.144c0.035,0,0.088-0.08,0.158-0.24c0.09-0.054,0.169-0.062,0.241-0.027
	c-0.053,0.195-0.044,0.337,0.026,0.426c0.214-0.019,0.356-0.177,0.427-0.479c0.105-0.496,0.158-0.779,0.158-0.85
	c0.214-0.017,0.354,0.026,0.426,0.132c0.161-0.142,0.205-0.346,0.134-0.611c-0.107-0.284-0.239-0.452-0.399-0.505
	c0.125-0.07,0.302-0.141,0.532-0.212c0.144-0.037,0.205-0.143,0.187-0.32c0.123-0.072,0.213,0.01,0.266,0.24
	c0.053,0.158,0,0.22-0.16,0.185c0.035,0.035,0.107,0.124,0.213,0.266c0.036,0.16,0.087,0.23,0.159,0.214
	c0.122-0.266,0.212-0.257,0.266,0.026c0.071,0.708,0.107,1.09,0.107,1.143c-0.107-0.125-0.206-0.133-0.294-0.028
	c-0.158,0.125-0.273,0.195-0.345,0.214c-0.072-0.215-0.072-0.32,0-0.32c0.035-0.019,0.15-0.035,0.345-0.053
	c-0.036-0.196-0.177-0.274-0.425-0.24c-0.144,0.09-0.144,0.215,0,0.374c-0.019,0.108-0.062,0.115-0.134,0.026
	c-0.053-0.177-0.115-0.256-0.187-0.239c0.125,0.161,0.08,0.399-0.134,0.719c-0.176,0.316-0.389,0.583-0.637,0.796
	c0.105-0.084,0.159-0.041,0.159,0.134c0.035,0.053,0.072,0.196,0.107,0.426c0.053,0,0.087-0.088,0.105-0.265
	c0.019-0.125,0.099-0.16,0.241-0.107c0.018-0.249-0.054-0.391-0.213-0.425c0.141-0.124,0.292-0.017,0.453,0.319
	c0.088,0.197,0.132,0.47,0.132,0.826c-0.088-0.019-0.168-0.028-0.239-0.028c0.017,0.215,0.087,0.339,0.212,0.374
	c0.037-0.017,0.142-0.008,0.32,0.026c0.088,0.479,0,0.737-0.266,0.772c-0.053,0-0.125-0.088-0.213-0.266
	C138.045,168.771,137.92,168.699,137.708,168.647z M138.399,172.342c-0.087,0.107-0.177,0.161-0.266,0.161
	c-0.088-0.178-0.142-0.355-0.16-0.532c0.284-0.107,0.399-0.241,0.345-0.399c0.054,0.107,0.124,0.213,0.212,0.32
	c0.054,0.159,0.081,0.335,0.081,0.531C138.559,172.299,138.488,172.272,138.399,172.342z M138.639,166.251
	c0.035-0.053,0.105-0.115,0.212-0.187c0.161-0.034,0.284-0.087,0.373-0.158c0.197,0.461,0.224,0.841,0.08,1.143
	c-0.195-0.09-0.373-0.115-0.531-0.079C138.808,166.473,138.763,166.232,138.639,166.251z M167.938,195.35
	c0.023-0.009,0.046-0.018,0.066-0.027c0.249-0.211,0.417-0.328,0.505-0.346c0.019,0.211,0.051,0.415,0.093,0.612
	C168.382,195.51,168.158,195.429,167.938,195.35z M171.554,196.601c-0.266-0.085-0.532-0.167-0.796-0.252
	c-0.097-0.173-0.198-0.248-0.307-0.228c0.107-0.461,0.134-0.815,0.081-1.064c-0.107,0.02-0.24,0.118-0.398,0.293
	c-0.108,0.179-0.214,0.266-0.32,0.266c-0.212-0.23-0.311-0.806-0.292-1.728c0.124,0.017,0.212,0.167,0.265,0.451
	c0.087,0.23,0.025,0.364-0.187,0.399c0.337,0.194,0.551,0.31,0.639,0.345c0.087-0.108,0.123-0.425,0.105-0.957
	c0.035-0.497,0.15-0.763,0.346-0.798c-0.087,0.39-0.063,0.948,0.081,1.676c0.159,0.194,0.345,0.45,0.557,0.771
	c0.214,0.444,0.382,0.736,0.506,0.878C171.747,196.592,171.652,196.573,171.554,196.601z M173.644,148.2
	c-2.081,11.296-2.689,22.533-1.942,33.875c0.027,0.024,0.051,0.029,0.08,0.058l0.012,0.053c-0.041,0.064-0.046,0.137-0.073,0.205
	c0.024,0.353,0.042,0.705,0.069,1.059c0.104,0.35,0.153,0.645,0.099,0.836c0.037-0.071,0.098-0.053,0.187,0.053
	c0.012,0.018,0.027,0.034,0.039,0.054l0.105,0.691c-0.042,0.044-0.09,0.09-0.146,0.133c-0.05,0.1-0.083,0.2-0.113,0.299
	c0.061,0.672,0.134,1.347,0.204,2.019c0.044-0.004,0.096-0.023,0.173-0.085c0,0.158-0.019,0.422-0.054,0.797
	c-0.035,0.248-0.008,0.443,0.081,0.584c-0.02,0.01-0.044,0.027-0.064,0.039c0.032,0.281,0.052,0.562,0.085,0.845
	c0.23,1.933-1.327,3.464-3.11,3.929c0.001,0.067,0,0.151,0.004,0.192c-0.038-0.086-0.083-0.118-0.126-0.166
	c-0.22,0.051-0.441,0.083-0.665,0.101c0.022,0.089,0.064,0.147,0.127,0.174c0.034,0.14-0.063,0.371-0.293,0.69
	c-0.23,0.337-0.442,0.47-0.638,0.399c-0.025,0.083-0.051,0.143-0.08,0.187c-0.069-0.027-0.141-0.053-0.212-0.08
	c0.083-0.184,0.173-0.28,0.264-0.292c-0.052-0.125-0.081-0.331-0.081-0.614c0.028-0.188,0.005-0.353-0.048-0.505
	c-0.009-0.001-0.017-0.002-0.026-0.005c0.024,0.21,0.004,0.326-0.086,0.297c-0.107-0.071-0.204-0.123-0.292-0.159
	c0.055-0.061,0.075-0.125,0.105-0.189c-0.128-0.033-0.252-0.08-0.376-0.127l0.03,0.448l0.159,0.135
	c-0.089-0.02-0.134,0.052-0.134,0.211c0.072,0.125,0.107,0.255,0.107,0.399c0.212-0.374,0.327-0.47,0.346-0.292
	c-0.052,0.309-0.18,0.487-0.385,0.531c-8.333-3.323-15.935-8.421-22.808-15.294c-1.157-1.157-2.265-2.337-3.324-3.538l-0.374-4.549
	l-0.053,0.028l-0.054-0.082c0.02-0.105-0.043-0.283-0.185-0.532c-0.088-0.317-0.062-0.486,0.08-0.504
	c-0.212-0.213-0.364-0.426-0.453-0.638c-0.053,0.052-0.087,0.15-0.107,0.292c0,0.054-0.018,0.08-0.051,0.08
	c-0.124,0.019-0.212-0.097-0.266-0.345c-0.107-0.212-0.257-0.301-0.453-0.265c-0.071-0.159-0.071-0.354,0-0.584
	c0.054-0.265,0.035-0.48-0.053-0.639c0.125,0.087,0.284,0.008,0.48-0.239c0.193-0.232,0.362-0.355,0.504-0.374
	c0.016,0.142,0.053,0.284,0.105,0.425l-0.239,0.054c0,0.23,0.045,0.345,0.134,0.345c0.125-0.087,0.205-0.105,0.238-0.053
	l0.028-0.346c0.036-0.018,0.062,0,0.08,0.054l-0.346-3.803c-0.123,0.087-0.293,0.124-0.504,0.105c0-0.052-0.07-0.346-0.213-0.877
	c0.355-0.196,0.55-0.292,0.586-0.292c-0.017,0.106,0.009,0.267,0.08,0.479c0.019,0.018,0.035,0.062,0.053,0.133l-0.559-6.915
	l-0.081,0.105c-0.07,0.054-0.131-0.008-0.185-0.185c-0.017-0.107-0.072-0.125-0.16-0.053c0.053-0.054,0.082-0.134,0.082-0.24
	c-0.017-0.124-0.088-0.159-0.213-0.107c0.053-0.158,0.142-0.22,0.265-0.185c0.142-0.019,0.179-0.142,0.107-0.374l0.053-0.026
	l-1.064-13.113c-0.071,0.018-0.15,0.027-0.239,0.027l-0.107,0.187c-0.071,0.053-0.053,0.115,0.052,0.187
	c0.017,0.053-0.027,0.105-0.132,0.159c-0.143,0.035-0.205,0.107-0.187,0.212c-0.018,0.09-0.046,0.037-0.08-0.158v-0.426
	c-0.247,0.088-0.398,0.134-0.452,0.134c-0.107,0.018-0.168-0.115-0.187-0.399c-0.214,0.442-0.045,1.027,0.505,1.756
	c-0.072,0.087-0.265,0.123-0.585,0.105c-0.071-0.284-0.124-0.506-0.159-0.665c-0.125-0.285-0.106-0.373,0.052-0.265
	c0.036-0.125,0.019-0.33-0.052-0.614c-0.036-0.177-0.046-0.292-0.028-0.346c-0.105-0.035-0.151,0.062-0.133,0.293
	c0,0.159-0.054,0.212-0.159,0.159c-0.035-0.478-0.024-0.745,0.027-0.798c-0.354-0.124-0.674-0.133-0.958-0.027
	c0.159-0.125,0.222-0.355,0.187-0.692c-0.123-0.407-0.187-0.699-0.187-0.876c-0.115,0.069-0.257,0.104-0.426,0.105l1.17-6.144
	l4.548-12.739l2.792-5.798l6.835-10.613l6.73-7.634l10.479-8.859l5.001-3.191l0.054-0.105l0.897,0.91l1.809,2.341l0.504,1.063
	l0.852,1.331l1.036,2.713l0.613,2.978c-0.043,0.076-0.067,0.165-0.081,0.266c-0.193-0.142-0.283-0.301-0.265-0.479
	c0.09-0.265,0.134-0.514,0.134-0.744c-0.159,0.035-0.293,0.187-0.399,0.452l-0.107,0.504c0.18-0.068,0.322,0.054,0.428,0.374
	c0.071,0.177,0.098,0.382,0.08,0.612c0.247,0.072,0.417,0.346,0.505,0.824c0.106,0.496,0.079,0.806-0.081,0.931
	c0.215,0.23,0.339,0.568,0.374,1.011c-0.114,0.415-0.073,1.088,0.119,2.021l0.009,0.222c0.823,1.626,1.083,3.618,0.444,5.894
	c-0.248,0.884-0.463,1.772-0.691,2.658l-0.174,2.265l-3.191,18.605c-0.041-0.042-0.085-0.056-0.133-0.04
	c0,0.035-0.027,0.14-0.079,0.313c-0.246,0.016-0.439-0.091-0.581-0.32c-0.001-0.007-0.003-0.009-0.005-0.016
	c-0.014,0.085-0.029,0.171-0.042,0.257c0.028,0.042,0.041,0.094,0.074,0.133c0.263,0.191,0.446,0.175,0.553-0.045
	c-0.027,0.095-0.063,0.209-0.105,0.344c0.07,0.021,0.138,0.048,0.2,0.08l-0.692,4.069c-0.228-0.257-0.463-0.408-0.703-0.478
	l-0.08,0.492c0.014,0.044,0.038,0.07,0.05,0.119c0,0.355,0.088,0.577,0.266,0.666c-0.247-0.035-0.3,0.125-0.159,0.479
	c-0.143,0.023-0.256,0-0.356-0.047c-0.147,0.893-0.299,1.786-0.45,2.679c0.025,0.173,0.033,0.305,0.013,0.365
	c-0.01-0.016-0.045-0.018-0.071-0.024c-0.156,0.927-0.319,1.853-0.483,2.779c0.083,0.083,0.156,0.175,0.232,0.264
	c0.037,0.008,0.072,0.039,0.108,0.093c0,0.007,0.001,0.023,0.002,0.032C173.526,145.71,173.893,146.85,173.644,148.2z
	 M182.632,198.382c-0.034-0.177-0.025-0.302,0.027-0.373c0.018-0.159,0.01-0.292-0.027-0.399
	C182.897,198.213,182.897,198.471,182.632,198.382z M184.708,199.272c0.003-0.044,0.021-0.067,0.052-0.067
	c0.07,0.036,0.142,0.053,0.214,0.053c-0.089-0.159-0.223-0.23-0.399-0.211c-0.018-0.055,0.018-0.205,0.105-0.453
	c0.036-0.159,0.115-0.222,0.241-0.187c0.08,0.377,0.112,0.675,0.093,0.892C184.91,199.292,184.808,199.283,184.708,199.272z
	 M191.755,199.66c-0.145-0.005-0.292-0.009-0.439-0.014c0.004-0.021,0.009-0.041,0.014-0.067c-0.019-0.302-0.053-0.541-0.106-0.719
	c0.195-0.088,0.339-0.025,0.427,0.187c0.071,0.248,0.149,0.293,0.239,0.133C191.905,199.376,191.861,199.536,191.755,199.66z
	 M193.432,199.234c-0.136,0.067-0.176,0.211-0.119,0.425c-0.021-0.001-0.042-0.001-0.067,0c-0.019-0.025-0.026-0.061-0.026-0.107
	c0-0.194-0.036-0.31-0.105-0.347c0.125-0.086,0.274-0.141,0.451-0.158C193.601,199.1,193.556,199.163,193.432,199.234z
	 M196.411,202.665c0.053-0.075,0.066-0.244,0.039-0.505c0.181-0.008,0.361-0.016,0.546-0.028
	C196.967,202.471,196.771,202.647,196.411,202.665z M227.195,180.448l-1.131,10.494c-8.264,4.784-17.347,7.584-27.236,8.426
	c-0.207,0.037-0.413,0.058-0.621,0.063c-0.029,0.001-0.057,0.006-0.085,0.008v-0.009c-0.677,0-1.346-0.162-1.92-0.576
	c-0.183-0.132-0.368-0.261-0.556-0.385c-0.002,0.096-0.012,0.18-0.007,0.285c-0.065-0.071-0.113-0.215-0.155-0.39
	c-0.103-0.066-0.211-0.122-0.316-0.182c-0.217,0.027-0.434,0.057-0.649,0.068c-1.313,0.064-2.607,0.107-3.88,0.096
	c-0.047,0.045-0.092,0.078-0.132,0.089c-0.069-0.01-0.129-0.044-0.182-0.093c-0.193-0.002-0.387-0.007-0.578-0.014
	c-0.005,0.184-0.157,0.336-0.492,0.453c0.01-0.17,0.05-0.325,0.122-0.468c-1.42-0.059-2.808-0.21-4.154-0.5
	c0.022,0.239-0.004,0.453-0.116,0.625c-0.071-0.071-0.179-0.099-0.32-0.083c-0.158-0.034-0.273-0.096-0.345-0.184l-0.159,0.743
	c-0.197-0.071-0.312-0.248-0.347-0.532c0.228-0.033,0.394-0.291,0.5-0.754c-0.723-0.189-1.433-0.427-2.128-0.715
	c-0.002,0.146-0.021,0.322-0.074,0.561c-0.124,0.356-0.212,0.631-0.267,0.829c-0.124-0.179-0.249-0.286-0.373-0.321
	c0.161-0.143,0.204-0.381,0.134-0.719c-0.011-0.23,0.014-0.414,0.054-0.577c-1.376-0.629-2.698-1.477-3.95-2.622
	c-4.92-4.5-4.24-12.644-3.526-18.529c0.393-3.235,0.647-6.509,0.86-9.796c-0.021,0.081-0.035,0.165-0.059,0.245
	c-0.041,0-0.085,0.004-0.134,0.014l0.039-1.37c0.063-0.05,0.148-0.051,0.227-0.066c0.026-0.424,0.053-0.848,0.078-1.271
	c-0.019,0.001-0.031,0.01-0.052,0.008c-0.043-0.237-0.09-0.432-0.147-0.584l0.107-1.011c0.011,0.023,0.024,0.05,0.039,0.08
	c0.036,0.125,0.062,0.09,0.08-0.106c0.02,0.023,0.043,0.067,0.063,0.099c0.022-0.38,0.045-0.76,0.067-1.141
	c-0.042-0.015-0.091-0.03-0.128-0.047l0.172-1.702c0.025,0.007,0.037-0.009,0.06-0.007c0.003-0.055,0.008-0.11,0.01-0.165
	c-0.018-0.01-0.022-0.035-0.044-0.041l0.123-1.205c0.479-7.672,1.163-15.306,3.197-22.596l2.798-16.493h0.039
	c0.532-0.016,0.949-0.203,1.251-0.558c-0.019-0.055-0.063-0.161-0.134-0.32c-0.071-0.177-0.098-0.319-0.08-0.426
	c0.214-0.106,0.435-0.239,0.666-0.398c0-0.444-0.054-0.958-0.16-1.543c-0.088-0.674-0.141-1.125-0.158-1.356
	c-0.23,0.036-0.398-0.054-0.506-0.266c0-0.07-0.008-0.195-0.026-0.372l0.253-1.49c0.289-0.001,0.576-0.09,0.864-0.265
	c-0.053-0.196-0.053-0.32,0-0.374c0.141-0.071,0.213-0.134,0.213-0.185c-0.019-0.125-0.144-0.446-0.374-0.959
	c-0.105-0.354-0.098-0.576,0.027-0.665c-0.047-0.205-0.18-0.372-0.398-0.505l0.159-1.809l-0.772-10.667l-0.958-3.404l-2.872-6.064
	l-2.341-3.006l6.331-3.165l5.425-2.182l8.14,7.473l3.43,3.857l0.959,1.383l2.378,2.682l8.912,13.697l7.021,15.613l2.153,6.226
	l3.062,11.329l2.766,19.124l0.396,6.703L227.195,180.448z M240.563,179.681c-3.186,3.186-6.529,5.992-10.029,8.419l1.063-21.719
	l-2.074-20.214l-4.575-18.699l-1.382-3.963l-8.007-18.085l-9.255-14.098l-3.511-4.362l-0.294-0.239l-6.969-7.448l-2.846-2.42
	l11.863-2.954l0.878-0.08l0.904,0.958l8.99,7.342l20.161,11.596l4.229,2.873l8.219,7.688l5.879,8.005l5.611,10.612l0.838,2.076
	c0.187,2.142,0.279,4.324,0.279,6.542C260.538,150.327,253.879,166.381,240.563,179.681z M163.642,45.681l0.824-10.825
	c40.216-9.664,72.302-3.688,96.259,17.929C226.395,36.328,194.032,33.962,163.642,45.681z M298.228,169.657
	c-9.434,22.837-25.481,37.06-48.142,42.664c21.296-12.377,34.072-28.443,38.327-48.196L298.228,169.657z M260.166,290.171
	c0.054-1.79-0.523-3.236-1.729-4.334c-0.887-0.798-2.029-1.394-3.431-1.784c-0.851,2.961-2.189,5.604-4.016,7.926
	c-2.163,2.732-4.946,4.904-8.353,6.519c-2.109,0.993-4.105,1.702-5.984,2.127c-0.497,1.704-0.46,3.148,0.106,4.337
	c0.815,1.773,2.721,2.846,5.719,3.218c4.254,0.551,8.36-1.55,12.314-6.302c1.56-1.933,2.846-4.001,3.856-6.198
	C259.626,293.532,260.13,291.697,260.166,290.171z M95.87,90.818l11.012,2.288c-9.805,17.662-10.763,38.169-2.873,61.522
	C90.639,135.477,87.925,114.207,95.87,90.818z M246.388,267.404c-1.241-0.444-2.589-0.666-4.043-0.666
	c-0.248,4.716-0.912,8.36-1.994,10.931c-1.914,4.487-5.399,7.68-10.453,9.575c0.498,1.756,0.427,4.008-0.211,6.756
	c-0.248,1.029-0.79,2.031-1.621,3.007c0.727,1.064,1.921,1.674,3.59,1.836c2.358,0.213,5.506-0.522,9.443-2.208
	c5.851-2.518,9.459-7.013,10.825-13.484c0.531-2.52,0.629-5.01,0.292-7.475c-0.284-2.287-0.86-4.033-1.729-5.24
	C249.49,269.018,248.126,268.007,246.388,267.404z M206.57,268.946c1.136-0.211,2.11,0.293,2.927,1.517
	c1.684,2.537,2.756,4.063,3.217,4.575c1.138,1.17,2.59,2.376,4.363,3.617c-0.691-2.945-0.605-5.789,0.265-8.538
	c1.367-4.273,4.521-7.678,9.469-10.212l-1.516,1.542c-1.172,1.348-2.218,2.775-3.138,4.282c-2.908,4.842-3.876,9.621-2.899,14.337
	c1.967,1.151,3.67,1.967,5.107,2.446c1.136,0.355,2.005,0.709,2.605,1.064c0.977,0.532,1.729,1.232,2.26,2.101
	c1.597-0.604,3.051-1.524,4.361-2.768c1.915-1.789,3.369-4.111,4.361-6.967c1.67-4.717,2.021-9.088,1.064-13.114
	c-0.993-4.291-3.245-6.986-6.756-8.086c-3.104-0.974-7.784,0.436-14.044,4.229C212.493,262.467,208.609,265.79,206.57,268.946z
	 M180.903,213.41c0.355,1.578,1.18,3.98,2.475,7.208c1.295,3.263,2.093,5.524,2.395,6.782c1.294,5.55,2.243,11.738,2.845,18.565
	c0.763,8.371,0.718,15.357-0.133,20.962c-0.551,3.687-1.252,7.394-2.102,11.117c-0.728,3.173-1.126,5.177-1.197,6.01
	c3.581-3.652,7.828-7.118,12.738-10.399c2.484-1.648,4.399-2.829,5.746-3.538c0.303-15.799,0.729-26.173,1.276-31.12
	c0.303-2.552,0.355-5.595,0.16-9.122c-0.195-4.61-0.797-8.725-1.809-12.343c-2.839-10.284-8.202-14.815-16.092-13.591
	C181.781,204.757,179.68,207.912,180.903,213.41z M177.365,211.07c-0.46-2.449-0.114-4.461,1.037-6.039
	c1.348-1.826,3.946-3.342,7.794-4.548c3.919-1.241,7.473-0.949,10.666,0.878c2.908,1.666,5.338,4.504,7.288,8.512
	c1.844,3.831,3.075,8.369,3.696,13.617c0.586,5.23,0.513,10.615-0.213,16.145c-0.921,6.88-1.338,13.023-1.249,18.433
	c0.035,2.713,0.158,4.736,0.372,6.064c1.561-2.393,3.822-4.709,6.783-6.942c5.885-4.45,12.306-6.277,19.257-5.478
	c2.092,0.23,4.158,1.533,6.196,3.909c2.129,2.446,3.291,4.983,3.483,7.608c3.3-0.266,6.163,0.647,8.591,2.737
	c2.093,1.81,3.547,4.15,4.363,7.022c0.584,2.11,0.69,4.586,0.319,7.421c2.358,0.248,4.371,1.286,6.037,3.112
	c2.182,2.358,2.723,5.363,1.624,9.018c-2.484,8.263-6.422,13.593-11.812,15.984c0.552,10.127-2.507,17.768-9.175,22.928
	c-3.333,2.554-6.721,4.106-10.16,4.655c0.071,6.933-0.754,13.236-2.475,18.911c-0.177,0.584-0.354,1.135-0.531,1.648
	c-0.486,1.431-0.969,2.642-1.45,3.631c-0.21,0.428-0.418,0.813-0.624,1.157l-2.927-0.505c0.197-0.303,0.389-0.622,0.572-0.958
	c0.527-0.968,1.002-2.075,1.425-3.325c1.062-3.246,1.771-7.465,2.127-12.66c0.177-2.466,0.258-5.01,0.24-7.635l-0.082-3.165
	c9.063-1.81,14.977-5.718,17.741-11.73c1.651-3.601,2.059-7.491,1.224-11.677c-1.399,0.23-2.791,0.321-4.175,0.266
	c-3.706-0.105-6.331-1.276-7.873-3.511c-1.012-1.473-1.499-3.307-1.464-5.505c-3.298,0.282-5.938-0.409-7.926-2.076
	c-2.145,1.684-4.717,2.935-7.712,3.749c1.629,1.172,2.986,2.76,4.067,4.762c1.489,2.715,2.234,5.88,2.234,9.498
	c0,4.22-1.595,7.401-4.788,9.548c-1.577,1.064-3.165,1.702-4.761,1.915c0.959-0.336,1.952-1.055,2.979-2.155
	c2.075-2.181,3.314-5.184,3.724-9.016c0.373-3.316-0.285-6.357-1.969-9.123c-1.134-1.844-2.669-3.458-4.601-4.842
	c-4.131,0.461-7.59-0.256-10.374-2.153c-3.314-2.253-5.274-5.939-5.879-11.064l0.586,1.675c0.585,1.367,1.303,2.615,2.154,3.751
	c2.783,3.653,6.533,5.559,11.249,5.719c5.267,0.159,9.461-1.588,12.582-5.24c1.278-1.508,2.067-3.068,2.369-4.683
	c0.3-1.611,0.034-2.943-0.797-3.988c-0.711-0.869-1.818-1.641-3.325-2.313c-1.934-0.745-3.45-1.357-4.549-1.837
	c-4.291-1.86-7.723-4.831-10.293-8.91c-0.798-1.242-1.79-1.914-2.979-2.021c-1.862-0.142-4.318,0.993-7.368,3.406
	c-5.266,4.167-9.167,7.579-11.704,10.24c-4.415,4.627-6.808,8.785-7.18,12.475c-0.834,7.803-0.408,14.088,1.275,18.857
	c2.998,8.512,9.709,13.123,20.136,13.833l-0.771,0.426c-0.674,0.337-1.41,0.611-2.207,0.822c0.762,3.762,0.904,7.627,0.425,11.599
	c-0.565,4.859-2.029,9.113-4.389,12.768c-0.038,0.058-0.078,0.115-0.119,0.173c-0.819,1.212-1.727,2.361-2.726,3.444l-2.021-1.038
	c0.532-0.797,1.057-1.658,1.569-2.579c0.028-0.05,0.054-0.099,0.081-0.146c0.855-1.632,1.664-3.482,2.421-5.545
	c2.429-6.597,2.891-12.644,1.382-18.141c-2.393,0.088-4.726-0.434-6.994-1.569c-2.873-1.4-5.56-3.732-8.06-6.994
	c-2.374-3.068-3.591-8.281-3.645-15.641c-0.035-5.728,0.409-10.206,1.33-13.432c0.604-2.145,2.198-4.763,4.788-7.846
	c1.169-7.695,2.216-14.699,3.138-21.014c0.604-4.219,0.763-9.798,0.479-16.729c-0.319-8.157-1.213-15.338-2.686-21.545
	c-0.567-2.34-1.631-5.462-3.192-9.362C178.491,215.068,177.633,212.523,177.365,211.07z M213.221,335.947
	c1.95-0.407,3.626-1.179,5.024-2.314l-1.116,6.279l-0.878-2.979L215,337.278c-1.204,0.053-2.641-0.302-4.309-1.063
	C211.385,336.249,212.228,336.159,213.221,335.947z"/>
<path fill="#EBA045" d="M196.316,63.449l3.364,3.724l0.507,0.826l0.346,0.265l1.304,1.516l0.238,0.346l-9.788,2.341l-3.432,1.198
	l-4.706-3.406l-0.533-0.479l-7.913-4.535c5.292-1.268,10.846-1.902,16.662-1.902C193.697,63.344,195.015,63.379,196.316,63.449z
	 M260.538,131.515c0,18.813-6.659,34.87-19.975,48.169c-3.186,3.187-6.527,5.993-10.029,8.419l1.063-21.718l-2.074-20.215
	l-4.575-18.698l-1.382-3.963l-8.007-18.085l-9.255-14.098l-3.511-4.362l-0.294-0.239l-6.969-7.448l-2.846-2.421l11.863-2.953
	l0.878-0.081l0.904,0.958l8.99,7.342l20.161,11.596l4.229,2.874l8.219,7.688l5.879,8.005l5.611,10.613l0.838,2.076
	C260.445,127.112,260.538,129.294,260.538,131.515z M227.409,72.866c4.649,2.849,9.036,6.333,13.154,10.454
	c7.797,7.786,13.311,16.518,16.544,26.197l-5.959-8.086l-6.675-6.463l-6.759-4.815l-20.054-11.543l-6.994-5.507l5.079-0.479
	L227.409,72.866z M204.655,66.481l-2.168-2.46c5.677,0.784,11.073,2.242,16.186,4.376l-8.591,0.397l-3.139,0.505l-0.159-0.08
	l-0.771-1.065l-0.504-0.452L204.655,66.481z M199.681,89.729l0.96,1.383l2.366,2.687l8.913,13.697l7.022,15.613l2.151,6.225
	l3.06,11.33l2.768,19.123l0.398,6.703l-0.132,13.963l-1.133,10.493c-10.031,5.809-21.259,8.712-33.686,8.712
	c-4.191,0-8.243-0.333-12.155-0.999l-3.271-10.652l-0.957-5.026l-1.091-14.017l0.159-5.559l1.648-15.826l6.278-36.946l0.32-3.751
	l-0.772-10.667l-0.958-3.404l-2.872-6.064l-2.341-3.005l6.331-3.166l5.425-2.181l8.14,7.473L199.681,89.729z M181.516,76.456
	l-8.432,4.255l-2.049-1.41l-3.083-1.597l-1.569-0.557l-0.559-0.081l-1.09-0.32l-3.377-0.586l-5.108,0.107l-4.934,0.744
	c5.649-4.362,11.732-7.685,18.246-9.961l3.737,1.716l7.953,4.601l2.952,2.076L181.516,76.456z M175.689,90.208l0.852,1.33
	l1.036,2.713l1.198,5.799l0.266,6.677l-0.558,7.314l-6.73,39.286l-1.011,14.869l0.346,9.788l0.134,0.426l1.568,10.479l2.594,8.777
	c-11.693-2.872-22.097-8.866-31.213-17.98c-4.677-4.676-8.528-9.694-11.557-15.055l0.651-15.321l2.767-14.469l4.549-12.74
	l2.792-5.798l6.835-10.613l6.73-7.634l10.479-8.859l5.001-3.19l0.054-0.105l0.904,0.904l1.809,2.341L175.689,90.208z M156.566,80.42
	l4.547-0.027l2.74,0.425l3.751,1.358l1.25,0.771l0.212,0.08l-8.272,5.906l-9.76,9.282l-7.848,10.268l-6.436,11.809l-4.868,13.485
	l-2.82,15.215l-0.466,7.141c-2.916-7.599-4.375-15.806-4.375-24.616c0-18.481,6.407-34.298,19.218-47.452l8.499-2.818L156.566,80.42
	z"/>
<path fill="#FFFFFF" d="M180.903,213.41c-1.224-5.498,0.878-8.653,6.304-9.469c7.891-1.225,13.255,3.305,16.092,13.591
	c1.012,3.618,1.613,7.732,1.81,12.343c0.195,3.527,0.142,6.57-0.161,9.122c-0.549,4.947-0.973,15.321-1.276,31.12
	c-1.347,0.709-3.261,1.89-5.745,3.538c-4.911,3.281-9.158,6.748-12.739,10.399c0.072-0.834,0.471-2.839,1.198-6.01
	c0.85-3.724,1.55-7.431,2.101-11.117c0.85-5.604,0.896-12.591,0.134-20.962c-0.604-6.825-1.551-13.016-2.846-18.565
	c-0.302-1.258-1.1-3.52-2.395-6.782C182.083,217.391,181.259,214.988,180.903,213.41z M205.985,272.246
	c1.188,0.105,2.181,0.78,2.979,2.02c2.57,4.078,6,7.051,10.293,8.911c1.1,0.479,2.613,1.09,4.548,1.835
	c1.507,0.675,2.615,1.445,3.324,2.314c0.834,1.046,1.099,2.376,0.798,3.988c-0.302,1.614-1.089,3.177-2.367,4.683
	c-3.123,3.653-7.315,5.401-12.582,5.24c-4.716-0.16-8.466-2.066-11.251-5.719c-0.852-1.136-1.568-2.385-2.154-3.751l-0.586-1.676
	c0.604,5.125,2.563,8.813,5.879,11.064c2.784,1.899,6.242,2.616,10.374,2.156c1.933,1.383,3.469,2.995,4.602,4.84
	c1.685,2.767,2.341,5.809,1.967,9.123c-0.406,3.831-1.648,6.836-3.723,9.017c-1.028,1.1-2.021,1.818-2.979,2.154
	c1.595-0.213,3.184-0.851,4.761-1.914c3.191-2.146,4.787-5.329,4.787-9.549c0-3.618-0.743-6.783-2.233-9.496
	c-1.082-2.005-2.438-3.591-4.069-4.762c2.998-0.814,5.568-2.066,7.713-3.751c1.986,1.666,4.629,2.357,7.928,2.075
	c-0.036,2.198,0.452,4.035,1.462,5.507c1.544,2.233,4.169,3.405,7.873,3.511c1.381,0.054,2.774-0.036,4.177-0.267
	c0.833,4.187,0.426,8.077-1.224,11.677c-2.768,6.012-8.682,9.92-17.741,11.73l0.081,3.165c0.018,2.624-0.064,5.168-0.24,7.636
	c-0.354,5.193-1.064,9.415-2.129,12.66c-0.421,1.25-0.896,2.358-1.424,3.324l-30.747-3.151c0.04-0.058,0.081-0.115,0.119-0.173
	c2.359-3.652,3.822-7.908,4.389-12.768c0.479-3.972,0.337-7.837-0.426-11.597c0.798-0.213,1.534-0.487,2.208-0.824l0.771-0.426
	c-10.426-0.71-17.138-5.321-20.135-13.833c-1.684-4.77-2.109-11.055-1.276-18.857c0.373-3.689,2.767-7.848,7.181-12.475
	c2.536-2.661,6.438-6.073,11.704-10.24C201.667,273.239,204.123,272.104,205.985,272.246z M206.57,268.946
	c2.039-3.156,5.923-6.479,11.65-9.974c6.26-3.796,10.94-5.206,14.044-4.229c3.511,1.099,5.763,3.793,6.756,8.086
	c0.959,4.024,0.604,8.396-1.064,13.111c-0.993,2.855-2.446,5.179-4.361,6.97c-1.313,1.241-2.765,2.164-4.361,2.767
	c-0.532-0.868-1.283-1.569-2.26-2.102c-0.604-0.354-1.473-0.709-2.606-1.063c-1.437-0.479-3.138-1.296-5.106-2.447
	c-0.976-4.716-0.009-9.494,2.898-14.336c0.921-1.506,1.967-2.935,3.139-4.283l1.516-1.543c-4.947,2.537-8.104,5.94-9.469,10.214
	c-0.87,2.748-0.959,5.594-0.265,8.537c-1.775-1.242-3.229-2.446-4.363-3.616c-0.461-0.515-1.533-2.04-3.218-4.575
	C208.681,269.239,207.706,268.735,206.57,268.946z M250.483,270.436c0.869,1.207,1.445,2.954,1.729,5.24
	c0.336,2.465,0.24,4.955-0.292,7.474c-1.366,6.473-4.975,10.968-10.825,13.485c-3.938,1.686-7.085,2.421-9.442,2.208
	c-1.67-0.16-2.864-0.771-3.592-1.836c0.832-0.974,1.375-1.978,1.622-3.007c0.638-2.748,0.709-5,0.211-6.756
	c5.056-1.897,8.539-5.088,10.453-9.575c1.081-2.57,1.746-6.215,1.994-10.931c1.454,0,2.803,0.221,4.044,0.666
	C248.126,268.007,249.49,269.018,250.483,270.436z M260.166,290.171c-0.036,1.526-0.54,3.361-1.517,5.507
	c-1.013,2.198-2.296,4.264-3.856,6.197c-3.953,4.753-8.06,6.854-12.316,6.304c-2.995-0.373-4.901-1.445-5.718-3.218
	c-0.566-1.19-0.602-2.633-0.105-4.337c1.879-0.426,3.876-1.135,5.985-2.128c3.404-1.613,6.188-3.787,8.351-6.518
	c1.828-2.321,3.166-4.965,4.015-7.927c1.401,0.39,2.547,0.984,3.432,1.783C259.643,286.938,260.22,288.381,260.166,290.171z"/>
</svg>
