<?xml version="1.0" encoding="utf-8"?>
<!-- Generator: Adobe Illustrator 16.0.0, SVG Export Plug-In . SVG Version: 6.00 Build 0)  -->
<!DOCTYPE svg PUBLIC "-//W3C//DTD SVG 1.1//EN" "http://www.w3.org/Graphics/SVG/1.1/DTD/svg11.dtd">
<svg version="1.1" id="Layer_1" xmlns="http://www.w3.org/2000/svg" xmlns:xlink="http://www.w3.org/1999/xlink" x="0px" y="0px"
	 width="400px" height="400px" viewBox="0 0 400 400" enable-background="new 0 0 400 400" xml:space="preserve">
<g>
	<path fill-rule="evenodd" clip-rule="evenodd" fill="#FFFFFF" d="M368.016,331.657c7.512-6.111,11.269-13.547,11.269-22.304
		v-63.142c0-8.602-3.757-15.968-11.269-22.104c-7.489-6.111-16.548-9.168-27.171-9.168H70.475c-10.49,0-19.48,3.057-26.97,9.168
		c-7.49,6.136-11.235,13.502-11.235,22.104v63.142c0,8.757,3.745,16.192,11.235,22.304c7.49,6.133,16.48,9.201,26.97,9.201h270.37
		C351.468,340.858,360.526,337.79,368.016,331.657z M386.584,309.354c0,10.38-4.434,19.259-13.301,26.638
		c-9.002,7.245-19.813,10.868-32.438,10.868H70.475c-12.601,0-23.348-3.623-32.238-10.868c-8.979-7.379-13.468-16.258-13.468-26.638
		v-63.142c0-10.246,4.49-19.047,13.468-26.403c8.89-7.378,19.637-11.069,32.238-11.069h39.005l-44.073-11.601l-4.3-1.867
		l-3.567-2.634l-2.801-3l-3.934-10.135l-1.134-9.168l6.568-66.143l3.367-17.435L59.24,75.156l-6.2-18.002l-0.367-5.968l2.067-4.9
		l4.134-3.533l5.234-1.701l3-0.567l9.935,0.567l9.368,2.067l12.535,5.433l2.833,0.734l2.067-1.3l5.034-2.233h4.134l3.567,0.933
		l5.067,5.435l11.235,4.101l9.935,8.067l1.867,0.934l3,2.633l3.935,7.301l0.367,3.567l3.734,6.934l2.833,2.6l1.3,1.7l3.2,9.368
		l2.601,3.734h0.399l6.534,8.435l0.934,3.2l3.567,4.301l3.566,1.7l0.733,1.866l2.634,1.301l2.267,2.267l0.733,1.667l0.367,1.701
		l4.868,4.101l2.833,0.566l5.6,4.134l2.268,2.633l0.733,1.667l5.267,4.134l3.534,1.3l1.333,0.934l2.802,1.333l4.135,2.801
		l1.298,2.633l2.8,2.234h3.001l2.635,0.933l4.134,2.268l1.1,0.934l2.635,3.934l29.036,13.102l8.27,4.868l3.533,2.834l2.999,4.867
		h0.567l5.066,5.434l3.568,5.068l1.866,5.435l0.15,1.098h47.423c12.625,0,23.437,3.691,32.438,11.069
		c8.867,7.356,13.301,16.157,13.301,26.403V309.354z M223.68,208.739h39.388h8.318l1.083-0.365l2.8-1.7l3.936-4.467v-3.567
		l-0.367-0.935l-1.501-2.433l-0.733-0.933l-0.566-1.134l-2.633-3.2l-3.567-3.167l-4.868-2.634l-1.3-0.2l-2.801-1.867l-9.935-3.568
		l-18.202-9.167h0.966l-1.333-2.633l-4.867-2.801l-3.732-0.199l-6.936-4.501l0.167-0.367l-0.366-1.299l-0.567-0.934l-0.935-0.367
		l-4.866-3.2l-3.2-0.734l-8.968-7.134v-0.2l-0.933-1.867l-2.634-2.234l-3.934-1.9h-0.367l0.166,0.4l-8.8-7.501l0.2-0.367l0.167-0.2
		v-1.3l-1.301-1.334l-3.367-1.867l-0.767-1.3l-0.733-0.934h-1.867l-1.333-1.333l-0.05-0.083l-4.984-6.851l0.367-0.367v-0.934
		l-4.868-6.567l-0.933-0.567l-0.401-0.366v0.366l-4.667-8.234l-1.333-5.234l-2.234-3l-1.134-0.367l-6-11.068v-1.7l-0.366-1.5
		l-1.301-2.967l-2.266-3l-3.001-1.7l0.2,0.767l-6.367-6.201l-5.801-3.367l-9.001-3.201l-2.234-3l-3.567-2.601h-2.268l-1.866,0.567
		l-3.001,1.5l-1.667,0.534l-1.7,0.967l-23.237-7.901l-5.634-0.933h-6.167l-3,0.4l-3.934,1.867l-1.3,1.301l-0.933,1.333l-0.4,1.667
		v1.867l1.333,6.001l3.534,9.201l2.067,8.801v7.5l-0.367,3.368l-1.7,7.501l-6.167,59.575v4.867l0.367,1.867l0.933,2.066l2.634,2.801
		l3.934,2.433l5.634,2.267l31.471,7.301l18.536,7.134l-4.101-0.966l54.34,21.568l2.317,0.733h47.673H223.68z M205.961,161.9
		l0.166-0.733l0.566-1.9l1.5-5.234v3.567l-0.933,3.934l-2.635,6.735l-4.667,6.367l-0.933-0.567l-0.367-0.367l2.799-3.367
		l3.935-6.934L205.961,161.9z M180.857,157.967l4.099-7.868l0.368-0.366l2.067-3.935c-0.111,0.245,0.455-0.377,1.7-1.867
		c-1.378,2.355-2.067,3.723-2.067,4.101l-0.567,0.2l-5.801,12.935l-0.934,0.367l-0.565-0.367l1.3-2.833L180.857,157.967z
		 M54.739,168.668l-0.366,2.434l0.366,2.6l0.934,3.201l2.634,3.934l2.8,2.066l6.734,3.535l8.834,3.2l38.572,8.434l24.937,10.667
		h6.801l-9.801-5.601l-30.538-10.867l-33.904-6.768l-6.768-2.601l-4.867-2.833l-1.868-1.867l-3.567-4.867l-0.934-2.634V168.668z
		 M66.742,47.619h3.933l2.067,0.366l20.969,6.734l8.068,1.134l-9.001,5.234l-4.868,4.5l-1.133,2.633l-12.001-0.933l-7.301-3
		l-3-2.267l-2.6-2.6l-1.7-2.634l-0.567-2.633l0.567-2.033l3.934-3.568L66.742,47.619z M263.067,208.739H223.68l4.183-7.299
		l8.636-10.502l10.302-7.468l3.367-1.5l6.201-0.2l7.3,2.234l1.3,0.2l4.868,2.634l3.567,3.167l2.633,3.2l0.566,1.134l0.733,1.467
		l0.567,1.899v0.935l-0.933,1.867l-3.002,2.632l-6.935,4.503L263.067,208.739z M137.751,70.855l1.134,1.667l0.933,3.001
		l-1.867,4.867l-0.767,0.567l-1.7-1.3l-15.735-18.001l-1.5-2.801l6.201,2.801l11.234,7.5L137.751,70.855z M319.242,238.644
		l-4.467-8.001l9.034,1.368l6.268-6.435l1.465,8.967l8.104,3.835l-8.002,4.034l-1.199,9l-6.468-6.3l-8.968,1.634L319.242,238.644z
		 M356.58,271.683l12.469,5.8l-12.303,6.367l-1.866,13.503l-9.701-9.602l-13.436,2.434l6.201-12.269l-6.534-12.101l13.501,2.266
		l9.436-10.066L356.58,271.683z M325.076,324.188l-9.001,1.802l4.233-8.102l-4.435-8.001l9.001,1.366l6.303-6.635l1.432,8.969
		l8.103,4.034l-7.968,4.033l-1.233,9.035L325.076,324.188z M66.508,236.111l8.102-3.834l1.466-8.968l6.268,6.435l9.034-1.368
		l-4.467,8.002l4.234,8.102l-8.968-1.634l-6.467,6.3l-1.2-9.001L66.508,236.111z M90.278,307.621l-4.435,8l4.234,8.101l-9.001-1.799
		l-6.435,6.501l-1.233-9.035l-7.968-4.032l8.102-4.035l1.434-8.969l6.301,6.636L90.278,307.621z M49.572,269.415l2.233-13.668
		l9.435,10.068l13.502-2.268l-6.534,12.102l6.201,12.267l-13.434-2.432l-9.702,9.602l-1.868-13.503l-12.301-6.366L49.572,269.415z
		 M152.353,91.091l1.134,0.367l2.234,3l1.333,5.234l0.566,1.701l-0.199,1.3l-1.501,1.866l2.267,2.635l1.3,2.233l0.934,2.834
		l0.367-0.567c0.244-0.756,0.555-1.511,0.932-2.268v-1.5v-0.366l0.401,0.366l0.933,0.567l4.868,6.567v0.934l-0.367,0.367l-3.2,6.567
		l0.934,0.367l4.3,5.067l1.333,3.934l3-4.5l0.367-1.299v-0.934l-0.367-0.934h1.867l0.733,0.934l0.767,1.3l3.367,1.867l1.301,1.334
		v1.3l-0.167,0.2l-0.2,0.367l-1.868,3.167l-1.699,1.899h0.2l7.301,5.601l0.767,1.5l-5.635-3.167l-4.867-0.766l-6.2,11.634
		l-3.534,1.301l-5.634-3.734l0.367-1.334l1.333-2.601l2.967-4.701l-0.734,0.2l-9.568,3.935l-11.035,6.167v1.133l-0.567,1.5
		l-1.3,1.667l-2.067,1.333l-2.634,0.934l-2.233-0.934l-2.067-1.333l-1.333-1.667l-0.933-2.801l0.933-2.434l1.333-1.7l2.067-1.3
		l2.233-0.399l1.134,0.2l1.5-1.134l5.601-3.001l8.067-4.3l9.568-3.2l3-0.534l3.934,0.534l-2.067-1.301l-6.202-2.8l-0.932-0.2
		l-0.934,1.333c0,0.11-0.122,0.233-0.367,0.367c-0.16,0.221-0.32,0.443-0.483,0.667c-0.46,0.645-0.921,1.289-1.384,1.934l-1.333,1.5
		l-6.735,3.2l-0.733-0.734l-2.067-2.466l-0.767-1.101l3.2-4.868l-0.2,0.167l-2.233,0.2h-0.4l-5.234,1.299h-0.567l-0.934,0.367
		l0.2,0.2l-9.201,3.367l-0.934,2.067l-2.233,0.933l-2.634,0.567l-2.233-0.567l-2.067-0.933l-1.333-2.634l-0.367-1.1v-2.633
		l1.7-3.001l2.067-1.3l2.233-0.567l1.5,0.367l9.168-3.368l13.135-2.633h7.101l0.016-0.034l3.751-5.567l0.934-2.066l-0.567-0.767
		l-1.667-1.3l-1.9-0.767l-3.534-0.933l-9.569,12.202l-4.3,0.934l-3.401-5.268l6.201-8.435h-1.5l-7.301,1.334h-0.2l-8.801,2.434
		c-0.245,0.133-0.555,0.2-0.934,0.2l-1.5,0.533v0.567l-3.567,3.367l-2.634,0.4l-2.6-0.4l-3.767-3.367l-0.367-1.5v-2.601l0.367-0.967
		l1.901-2.033l1.866-1.334l2.6-0.367c0.267,0,0.589,0.068,0.967,0.2l0.734,0.167l1.133-0.566c0.244-0.111,0.489-0.234,0.733-0.367
		l6.567-1.5l0.367-0.167l2.267-0.567l2.033-0.2l-2.6-7.1l0.566-0.967l1.3-0.934l2.067-2.434c0-0.111,0.056-0.166,0.167-0.166
		l0.967-1.134l-6.767-1.133l-4.667,0.566l-7.135,1.701l-1.3,0.166l-1.333,1.7l-2.434,1.3l-2.234,0.367l-2.267-0.367l-2.234-1.3
		l-1.3-1.866l-0.4-1.334v-2.6l0.4-1.134l1.3-1.866l2.234-1.334l2.267-0.933l1.5,0.767l11.036-2.066h9.201l2.067,0.2l4.1,1.1
		l3.201,1.333l2.8-6.567v-3.734l-0.733-1.5h-0.2l-0.2-0.767l3.001,1.7l2.266,3l1.301,2.967l0.366,1.5v1.7v2.234l-0.933,1.7
		l-1.868,2.633l0.567,0.734l1.867,3.2l1.333,3.568l-6.935-3.202l-3.934,5.801l-4.134,3.767l-2.268,0.733l12.769-1.3h3.534
		l1.133,0.367h0.2l4.301-5.801v-1.7l-0.367-2.233L152.353,91.091z M223.764,163.769l3.732,0.199l4.867,2.801l1.333,2.633h-0.966
		h-2.233l-5.636,1.3l-3.166,1.333l-6.2,3.534l-13.102,11.435c-0.135,0-0.257,0-0.368,0l-0.016,0.017
		c-0.128,0.258-0.312,0.441-0.551,0.55l-0.366,0.566l0.167,0.2v2.601l-2.233,3l-1.867,1.333l-2.634,0.534l-2.634-0.534l-1.667-1.333
		l-1.9-2.233v-0.767l-0.366-1.3l0.366-1.301v-1.5l3.567-3.368l1.701-0.4l6.934-6.734l-0.201-0.367l-1.299-1.333v-0.567l0.933,0.567
		l4.667-6.367l2.635-6.735l0.933-3.934v-3.567l-1.5,5.234l0.2-1.3c0-0.111,0-0.234,0-0.367c0.111-0.512,0.233-1.078,0.367-1.701
		l-0.367,0.767l-3.934-0.934l-8.435-0.399l-5.633,8.634l-3.935,1.5l-5.234-3.367l-0.565-0.934l0.565,0.367l0.934-0.367l5.801-12.935
		l0.567-0.2c0-0.377,0.688-1.745,2.067-4.101l1.133-1.333l0.733-1.667c0-0.133-0.066-0.267-0.2-0.4l-0.368-1.1l-0.166-0.4h0.367
		l3.934,1.9l2.634,2.234l0.933,1.867v0.2v1.5l-0.399,2.234l-0.367,0.566l3,0.201l2.267,1.133l4.301,4.101l0.367,0.767l0.367-3
		l-0.567-0.367l3.2,0.734l4.866,3.2l0.935,0.367l0.567,0.934l0.366,1.299l-0.167,0.367l-0.199,0.966l-1.134,2.801l3.934,0.734
		l1.7,0.766l1.867-0.766H223.764z M206.127,161.167l-0.166,0.733l-4.135,7.301l-1.3,0.2h-0.201l-2.633,0.367l-13.669,4.5
		l-6.167,3.767v1.468l-1.701,3.2l-2.233,1.3l-2.433,0.2l-2.268-0.2l-2.233-1.3l-1.7-3.2v-2.601l0.367-1.333l1.333-2.233l2.233-1.301
		l2.268-0.4l0.933,0.2l0.133-0.15l0.033-0.049l15.37-7.101l10.701-3c0.622-0.134,1.245-0.2,1.867-0.2L206.127,161.167z
		 M185.324,149.733l-0.368,0.366l-4.099,7.868l0.532-1.5l-0.532,1.134l-8.269,2.633l-13.469,6.535l-0.566,1.899l-1.133,2.034
		l-1.701,1.333l-2.801,0.367l-2.633-0.367l-2.234-1.333l-1.299-2.034l-0.4-1.5v-2.067l0.4-1.333l1.299-2.234l2.234-1.301
		l2.633-0.399l0.934,0.2l3-2.434l7.135-3.567l7.667-2.634L185.324,149.733z M106.081,88.257l-0.367-1.3l-0.934-1.867v-1.7
		l-0.934,0.567l-0.766,1.133v2.8l0.766,1.301l1.5,0.766h2.601l0.199-0.2l-1.3-0.566L106.081,88.257z M113.948,106.626l-1.3,0.934
		l-0.934,1.333v2.601l0.934,1.5l1.3,0.767h2.634v-0.4l-0.367-1.3v-1.867l-0.967-1.301l-1.3-0.967l-0.367-0.732l0.567-0.567H113.948z
		 M215.895,166.968l-1.699,0.2l-0.368,1.101L215.895,166.968z M155.92,163.967l-0.2-0.566l-1.5-0.934l-1.3-0.367l-1.3,0.367
		l-2.067,1.5l-0.566,2.067l0.566,1.134l0.734,1.101l2.633,1.133l0.567-0.2l-0.367,0.4c1-0.512,2.001-1.457,3-2.833l0.167-0.734
		L155.92,163.967z M190.958,188.337l-0.367,1.301l0.367,1.3l1.867,2.266h3l0.933-0.933l0.4-0.566h-0.4l-0.367,0.566l-0.933-0.933
		l-1.7-2.268h-1.868l-0.367-1.3v-0.2L190.958,188.337z M171.655,177.27l-0.733-0.733h-0.934l-0.4-0.567l-0.367-0.766l-0.933,1.333
		l-0.367,1.301l0.367,1.299l0.933,1.134l0.767,0.567l1.5,0.566l2.433-1.133h-0.934l0.167-0.2h-0.167l-0.4-0.567v-0.934
		L171.655,177.27z M200.692,176.536h0.567v-0.4L200.692,176.536z M125.75,130.796l-2.067-1.5v-0.733l-2.034,1.5v3l0.934,0.934
		l1.3,0.934l1.3,0.167l1.333-0.167l0.567-0.367l-0.567-0.567L125.75,130.796z M138.117,131.563h-0.166v0.167L138.117,131.563z
		 M146.185,141.098c-0.244,0-0.5,0-0.766,0v0.2L146.185,141.098z M140.185,148.032l-2.434-0.933l-2.8,0.933l-0.767,1.334v2.433
		l0.767,1.301l1.5,0.933l1.3,0.366l1.134-0.366l1.3-0.933l0.367-0.367h-0.167l0.734-1.867v-1.5L140.185,148.032z"/>
	<path fill-rule="evenodd" clip-rule="evenodd" fill="#C43B28" d="M365.414,329.589c-6.756,5.513-14.945,8.27-24.569,8.27H70.475
		c-9.49,0-17.602-2.757-24.337-8.27c-6.889-5.6-10.335-12.345-10.335-20.235v-63.142c0-7.868,3.446-14.546,10.335-20.034
		c6.735-5.492,14.847-8.236,24.337-8.236h270.37c9.624,0,17.813,2.744,24.569,8.236c6.736,5.488,10.102,12.166,10.102,20.034v63.142
		C375.516,317.244,372.15,323.989,365.414,329.589z M181.79,66.354c7.246-7.756,15.802-13.757,25.67-18.002
		c9.735-4.245,20.036-6.301,30.905-6.167c2.621-0.134,5.245-0.011,7.867,0.367c2.245,0.134,4.366,0.378,6.367,0.733
		c0.134,0,0.201,0.067,0.201,0.2c5.621,1.001,11.112,2.745,16.469,5.234c9.755,4.134,18.313,10.069,25.67,17.803
		c1.133,1.267,2.199,2.456,3.199,3.567c-4.489,9.49-9.178,18.302-14.068,26.437l-3.533-3.4c-3.001-3.112-6.257-5.912-9.769-8.401
		c1.001-1.645,1.812-3.278,2.434-4.9l0.967-5.801c-0.133-1.867-0.512-3.801-1.133-5.801c-0.889-3.133-2.513-6.378-4.867-9.734
		c-3.756-5.379-8.88-10.379-15.368-15.002c6.11,5.624,10.788,10.935,14.034,15.936c1.999,3.111,3.378,6.356,4.134,9.735l0.733,4.867
		l-0.166,2.433l-0.934,2.434c-0.511,1.378-1.201,2.756-2.067,4.134l-5.067-3.2c-5.489-3.624-11.234-6.49-17.235-8.603
		c-0.756-0.377-1.501-0.689-2.234-0.933c-7.246-2.512-14.302-4.268-21.169-5.268c-13.49-1.867-27.359-1.3-41.606,1.7L181.79,66.354z
		 M163.054,99.325l-0.433-1.249c0.63-1.915,1.33-3.809,2.1-5.685c3.867-9.49,9.301-17.98,16.302-25.471
		c15.002-1.622,28.804-1.312,41.407,0.934c8.244,1.378,16.179,3.623,23.803,6.734c5.379,2.246,10.5,4.868,15.369,7.868l4.7,3.2
		l-1.5,1.5c-2.511,2.356-5.39,4.478-8.635,6.367c-3.001,1.734-6.367,3.479-10.101,5.234c-2.89,1.378-6.024,2.689-9.401,3.934
		c-5.603,2.134-12.401,4.378-20.403,6.734l-21.37,4.901c-6.955,1.713-12.639,3.387-17.052,5.018l-0.75-0.35l-3.567-4.301l-0.934-3.2
		l-6.534-8.435h-0.399L163.054,99.325z M246.066,102.693c4.354-2.111,8.288-4.234,11.801-6.368c3.489-2.245,6.479-4.623,8.968-7.134
		l1.9-2.034c4.733,3.623,9.29,7.679,13.669,12.167l-2.633,4.668c-7.492,11.757-15.48,22.759-23.971,33.004
		c-3.246,3.623-6.49,7.301-9.734,11.035c-4,4.24-8.166,8.424-12.503,12.552l-3.066-1.684l-2.635-0.933h-3.001l-2.8-2.234
		l-1.298-2.633l-4.135-2.801l-2.802-1.333l-1.333-0.934l-3.534-1.3l-5.267-4.134l-0.733-1.667l-2.268-2.633l-5.6-4.134l-2.833-0.566
		l-4.868-4.101l-0.367-1.701l-0.733-1.667l-2.267-2.267l-2.634-1.301l-0.733-1.866l-0.366-0.167c1.458-0.41,3.015-0.799,4.667-1.167
		l32.039-6.934c7.244-1.867,14.246-4.111,21.002-6.734C240.731,104.693,243.421,103.693,246.066,102.693z M284.27,101.192
		c3.002,3,5.936,6.245,8.803,9.735l0.566,0.4l-0.734,1.299c-4.132,7.001-7.133,16.125-9.001,27.372l-1.7,28.469
		c-0.506,6.47-1.707,12.438-3.6,17.903l-2.933-2.367l-8.27-4.868l-29.036-13.102l-2.434-3.65c3.425-3.14,6.735-6.424,9.934-9.852
		c4.246-4.245,8.368-8.746,12.368-13.502c4.49-5.356,8.669-10.779,12.535-16.269c4.378-6.379,8.134-12.191,11.269-17.436
		L284.27,101.192z M298.34,70.455c5.489,6.757,9.923,14.192,13.302,22.303l1.665,4.334c-3.999,0.355-7.745,1.845-11.233,4.467
		c-2.623,1.89-5.002,4.334-7.134,7.334c-2.867-3.622-5.856-7.123-8.967-10.501C290.839,89.013,294.961,79.701,298.34,70.455z
		 M313.307,97.458c2.892,8.357,4.268,16.914,4.135,25.67c0,7.357-0.933,14.346-2.8,20.97c-4.89-11.869-10.958-22.792-18.202-32.771
		c2.134-3.512,4.389-6.391,6.767-8.635C306.208,100.07,309.575,98.326,313.307,97.458z M311.442,153.467
		c-4.003,9.756-9.748,18.38-17.237,25.87c-4.042,4.042-8.398,7.587-13.067,10.635l-1.602-2.584
		c2.618-5.379,4.385-11.563,5.302-18.553l2.434-28.104c0.754-5,1.821-9.624,3.199-13.868c1.001-4.623,2.557-8.934,4.668-12.935
		v-0.367c6.867,9.001,13.302,19.369,19.303,31.105C313.686,147.666,312.687,150.599,311.442,153.467z M319.242,238.644l-4.233,8.103
		l8.968-1.634l6.468,6.3l1.199-9l8.002-4.034l-8.104-3.835l-1.465-8.967l-6.268,6.435l-9.034-1.368L319.242,238.644z
		 M66.508,236.111l8.001,4.033l1.2,9.001l6.467-6.3l8.968,1.634l-4.234-8.102l4.467-8.002l-9.034,1.368l-6.268-6.435l-1.466,8.968
		L66.508,236.111z M325.076,324.188l6.435,6.502l1.233-9.035l7.968-4.033l-8.103-4.034l-1.432-8.969l-6.303,6.635l-9.001-1.366
		l4.435,8.001l-4.233,8.102L325.076,324.188z M356.58,271.683l-2.233-13.668l-9.436,10.066l-13.501-2.266l6.534,12.101
		l-6.201,12.269l13.436-2.434l9.701,9.602l1.866-13.503l12.303-6.367L356.58,271.683z M49.572,269.415l-12.468,5.802l12.301,6.366
		l1.868,13.503l9.702-9.602l13.434,2.432l-6.201-12.267l6.534-12.102l-13.502,2.268l-9.435-10.068L49.572,269.415z M90.278,307.621
		l-9.001,1.367l-6.301-6.636l-1.434,8.969l-8.102,4.035l7.968,4.032l1.233,9.035l6.435-6.501l9.001,1.799l-4.234-8.101
		L90.278,307.621z"/>
	<path fill-rule="evenodd" clip-rule="evenodd" fill="#111730" d="M368.016,331.657c-7.489,6.133-16.548,9.201-27.171,9.201H70.475
		c-10.49,0-19.48-3.068-26.97-9.201c-7.49-6.111-11.235-13.547-11.235-22.304v-63.142c0-8.602,3.745-15.968,11.235-22.104
		c7.49-6.111,16.48-9.168,26.97-9.168h270.37c10.623,0,19.682,3.057,27.171,9.168c7.512,6.136,11.269,13.502,11.269,22.104v63.142
		C379.284,318.11,375.527,325.546,368.016,331.657z M365.414,329.589c6.736-5.6,10.102-12.345,10.102-20.235v-63.142
		c0-7.868-3.365-14.546-10.102-20.034c-6.756-5.492-14.945-8.236-24.569-8.236H70.475c-9.49,0-17.602,2.744-24.337,8.236
		c-6.889,5.488-10.335,12.166-10.335,20.034v63.142c0,7.891,3.446,14.636,10.335,20.235c6.735,5.513,14.847,8.27,24.337,8.27h270.37
		C350.469,337.858,358.658,335.102,365.414,329.589z M66.742,47.619l-2.634,0.933l-3.934,3.568l-0.567,2.033l0.567,2.633l1.7,2.634
		l2.6,2.6l3,2.267l7.301,3l12.001,0.933l1.133-2.633l4.868-4.5l9.001-5.234l-8.068-1.134l-20.969-6.734l-2.067-0.366H66.742z
		 M73.275,46.285l5.634,0.933l23.237,7.901l1.7-0.967l1.667-0.534l3.001-1.5l1.866-0.567h2.268l3.567,2.601l2.234,3l9.001,3.201
		l5.801,3.367l6.367,6.201h0.2l0.733,1.5v3.734l-2.8,6.567l-3.201-1.333l-4.1-1.1l-2.067-0.2h-9.201l-11.036,2.066l-1.5-0.767
		l-2.267,0.933l-2.234,1.334l-1.3,1.866l-0.4,1.134v2.6l0.4,1.334l1.3,1.866l2.234,1.3l2.267,0.367l2.234-0.367l2.434-1.3l1.333-1.7
		l1.3-0.166l7.135-1.701l4.667-0.566l6.767,1.133l-0.967,1.134c-0.111,0-0.167,0.055-0.167,0.166l-2.067,2.434l-1.3,0.934
		l-0.566,0.967l2.6,7.1l-2.033,0.2l-2.267,0.567l-0.367,0.167l-6.567,1.5c-0.245,0.133-0.489,0.256-0.733,0.367l-1.133,0.566
		l-0.734-0.167c-0.378-0.132-0.7-0.2-0.967-0.2l-2.6,0.367l-1.866,1.334l-1.901,2.033l-0.367,0.967v2.601l0.367,1.5l3.767,3.367
		l2.6,0.4l2.634-0.4l3.567-3.367v-0.567l1.5-0.533c0.378,0,0.689-0.067,0.934-0.2l8.801-2.434h0.2l7.301-1.334h1.5l-6.201,8.435
		l3.401,5.268l4.3-0.934l9.569-12.202l3.534,0.933l1.9,0.767l1.667,1.3l0.567,0.767l-0.934,2.066l-3.751,5.567l-0.016,0.034h-7.101
		l-13.135,2.633l-9.168,3.368l-1.5-0.367l-2.233,0.567l-2.067,1.3l-1.7,3.001v2.633l0.367,1.1l1.333,2.634l2.067,0.933l2.233,0.567
		l2.634-0.567l2.233-0.933l0.934-2.067l9.201-3.367l-0.2-0.2l0.934-0.367h0.567l5.234-1.299h0.4l2.233-0.2l0.2-0.167l-3.2,4.868
		l0.767,1.101l2.067,2.466l0.733,0.734l6.735-3.2l1.333-1.5c0.463-0.645,0.924-1.289,1.384-1.934
		c0.163-0.223,0.323-0.445,0.483-0.667c0.245-0.134,0.367-0.257,0.367-0.367l0.934-1.333l0.932,0.2l6.202,2.8l2.067,1.301
		l-3.934-0.534l-3,0.534l-9.568,3.2l-8.067,4.3l-5.601,3.001l-1.5,1.134l-1.134-0.2l-2.233,0.399l-2.067,1.3l-1.333,1.7
		l-0.933,2.434l0.933,2.801l1.333,1.667l2.067,1.333l2.233,0.934l2.634-0.934l2.067-1.333l1.3-1.667l0.567-1.5v-1.133l11.035-6.167
		l9.568-3.935l0.734-0.2l-2.967,4.701l-1.333,2.601l-0.367,1.334l5.634,3.734l3.534-1.301l6.2-11.634l4.867,0.766l5.635,3.167
		l-0.767-1.5l-7.301-5.601h-0.2l1.699-1.899l1.868-3.167l8.8,7.501l0.368,1.1c0.133,0.133,0.2,0.267,0.2,0.4l-0.733,1.667
		l-1.133,1.333c-1.245,1.489-1.812,2.111-1.7,1.867l-2.067,3.935l-13.669,1.667l-7.667,2.634l-7.135,3.567l-3,2.434l-0.934-0.2
		l-2.633,0.399l-2.234,1.301l-1.299,2.234l-0.4,1.333v2.067l0.4,1.5l1.299,2.034l2.234,1.333l2.633,0.367l2.801-0.367l1.701-1.333
		l1.133-2.034l0.566-1.899l13.469-6.535l8.269-2.633l0.532-1.134l-0.532,1.5l-0.401,0.367l-1.3,2.833l0.565,0.934l5.234,3.367
		l3.935-1.5l5.633-8.634l8.435,0.399l3.934,0.934l0.367-0.767c-0.134,0.623-0.256,1.189-0.367,1.701c0,0.132,0,0.255,0,0.367
		l-0.2,1.3l-0.566,1.9l-5.601,0.167c-0.622,0-1.245,0.066-1.867,0.2l-10.701,3l-15.37,7.101l-0.033,0.049l-0.133,0.15l-0.933-0.2
		l-2.268,0.4l-2.233,1.301l-1.333,2.233l-0.367,1.333v2.601l1.7,3.2l2.233,1.3l2.268,0.2l2.433-0.2l2.233-1.3l1.701-3.2v-1.468
		l6.167-3.767l13.669-4.5l2.633-0.367h0.201l1.3-0.2l4.135-7.301l-0.567,1.501l-3.935,6.934l-2.799,3.367l0.367,0.367v0.567
		l1.299,1.333l0.201,0.367l-6.934,6.734l-1.701,0.4l-3.567,3.368v1.5l-0.366,1.301l0.366,1.3v0.767l1.9,2.233l1.667,1.333
		l2.634,0.534l2.634-0.534l1.867-1.333l2.233-3v-2.601l-0.167-0.2l0.366-0.566c0.239-0.109,0.423-0.292,0.551-0.55l0.016-0.017
		c0.111,0,0.233,0,0.368,0l13.102-11.435l6.2-3.534l3.166-1.333l5.636-1.3h2.233l18.202,9.167l9.935,3.568l2.801,1.867l-7.3-2.234
		l-6.201,0.2l0.366-0.2l-3.733,0.367l-9.369,3.934l-1.867,1.5l-0.366,0.367l-2.834,2.067l-8.034,8.635l-2.268,4.101l-2.083,5.999
		h-47.673l-2.317-0.733l-54.34-21.568l4.101,0.966l-18.536-7.134l-31.471-7.301l-5.634-2.267l-3.934-2.433l-2.634-2.801
		l-0.933-2.066l-0.367-1.867v-4.867l6.167-59.575l1.7-7.501l0.367-3.368v-7.5l-2.067-8.801l-3.534-9.201L57.54,54.72v-1.867
		l0.4-1.667l0.933-1.333l1.3-1.301l3.934-1.867l3-0.4H73.275z M137.751,70.855l-2.067-1.7l-11.234-7.5l-6.201-2.801l1.5,2.801
		l15.735,18.001l1.7,1.3l0.767-0.567l1.867-4.867l-0.933-3.001L137.751,70.855z M113.948,106.626h0.2l-0.567,0.567l0.367,0.732
		l1.3,0.967l0.967,1.301v1.867l0.367,1.3v0.4h-2.634l-1.3-0.767l-0.934-1.5v-2.601l0.934-1.333L113.948,106.626z M106.081,88.257
		l0.766,0.934l1.3,0.566l-0.199,0.2h-2.601l-1.5-0.766l-0.766-1.301v-2.8l0.766-1.133l0.934-0.567v1.7l0.934,1.867L106.081,88.257z
		 M130.049,101.192l2.268-0.733l4.134-3.767l3.934-5.801l6.935,3.202l-1.333-3.568l-1.867-3.2l-0.567-0.734l1.868-2.633l0.933-1.7
		v-2.234l6,11.068l-0.733-0.566l0.367,2.233v1.7l-4.301,5.801h-0.2l-1.133-0.367h-3.534L130.049,101.192z M181.79,66.354
		l-0.567,0.367c14.248-3,28.116-3.567,41.606-1.7c6.867,1,13.923,2.756,21.169,5.268c0.733,0.244,1.479,0.555,2.234,0.933
		c6.001,2.112,11.746,4.979,17.235,8.603l5.067,3.2c0.866-1.377,1.557-2.756,2.067-4.134l0.934-2.434l0.166-2.433l-0.733-4.867
		c-0.756-3.378-2.135-6.624-4.134-9.735c-3.246-5.001-7.924-10.313-14.034-15.936c6.488,4.624,11.612,9.624,15.368,15.002
		c2.354,3.356,3.979,6.601,4.867,9.734c0.621,2,1,3.934,1.133,5.801l-0.967,5.801c-0.622,1.622-1.433,3.255-2.434,4.9
		c3.512,2.489,6.768,5.29,9.769,8.401l3.533,3.4c4.891-8.135,9.579-16.947,14.068-26.437c-1-1.111-2.066-2.3-3.199-3.567
		c-7.356-7.734-15.915-13.669-25.67-17.803c-5.356-2.489-10.848-4.233-16.469-5.234c0-0.133-0.067-0.2-0.201-0.2
		c-2.001-0.355-4.122-0.6-6.367-0.733c-2.622-0.378-5.246-0.5-7.867-0.367c-10.869-0.134-21.17,1.922-30.905,6.167
		C197.592,52.597,189.036,58.598,181.79,66.354z M238.365,41.784c2.756-0.11,5.377,0.022,7.867,0.4
		c8.001,0.733,15.813,2.601,23.437,5.601c10.112,4.001,19.035,9.69,26.771,17.069l2.834,3c6.623,6.979,11.745,14.847,15.368,23.603
		c4.245,9.869,6.367,20.48,6.367,31.838c0,11.135-2.122,21.692-6.367,31.671c-4.268,10.002-10.336,18.814-18.202,26.437
		c-4.022,4.093-8.435,7.683-13.236,10.769l-0.433-0.467h-0.567l-1.065-1.733c4.669-3.048,9.025-6.593,13.067-10.635
		c7.489-7.49,13.234-16.114,17.237-25.87c1.244-2.868,2.243-5.801,2.999-8.801c-6.001-11.736-12.436-22.104-19.303-31.105v0.367
		c-2.111,4.001-3.667,8.312-4.668,12.935c-1.378,4.245-2.445,8.868-3.199,13.868l-2.434,28.104
		c-0.917,6.99-2.684,13.173-5.302,18.553l-0.332-0.55l-0.601-0.467c1.893-5.465,3.094-11.433,3.6-17.903l1.7-28.469
		c1.868-11.247,4.869-20.371,9.001-27.372l0.734-1.299l-0.566-0.4c-2.867-3.49-5.801-6.735-8.803-9.735l-2.232,4.134
		c-3.135,5.245-6.891,11.057-11.269,17.436c-3.866,5.49-8.045,10.913-12.535,16.269c-4,4.756-8.122,9.257-12.368,13.502
		c-3.198,3.428-6.509,6.711-9.934,9.852l-0.201-0.283l-1.1-0.934l-1.067-0.583c4.337-4.128,8.503-8.312,12.503-12.552
		c3.244-3.734,6.488-7.413,9.734-11.035c8.49-10.245,16.479-21.247,23.971-33.004l2.633-4.668
		c-4.379-4.488-8.936-8.545-13.669-12.167l-1.9,2.034c-2.489,2.511-5.479,4.889-8.968,7.134c-3.513,2.134-7.446,4.257-11.801,6.368
		c-2.646,1-5.335,2-8.069,3c-6.756,2.623-13.758,4.867-21.002,6.734l-32.039,6.934c-1.652,0.368-3.208,0.757-4.667,1.167
		l-2.451-1.183c4.414-1.631,10.097-3.304,17.052-5.018l21.37-4.901c8.002-2.356,14.801-4.6,20.403-6.734
		c3.377-1.245,6.512-2.556,9.401-3.934c3.733-1.755,7.1-3.5,10.101-5.234c3.245-1.89,6.124-4.011,8.635-6.367l1.5-1.5l-4.7-3.2
		c-4.869-3-9.99-5.623-15.369-7.868c-7.624-3.112-15.559-5.356-23.803-6.734c-12.603-2.245-26.404-2.556-41.407-0.934
		c-7.001,7.49-12.435,15.98-16.302,25.471c-0.771,1.875-1.47,3.77-2.1,5.685l-1.583-4.668c0.281-0.718,0.575-1.435,0.883-2.15
		c4.245-10.113,10.423-18.981,18.535-26.604c7.756-7.49,16.69-13.169,26.804-17.036C217.129,43.729,227.496,41.784,238.365,41.784z
		 M160.421,112.261l-0.934-2.834l-1.3-2.233l-2.267-2.635l1.501-1.866l0.199-1.3l-0.566-1.701l4.667,8.234v1.5
		c-0.377,0.756-0.688,1.512-0.932,2.268L160.421,112.261z M278.837,197.705l0.367,0.935v3.567l-3.936,4.467l-2.8,1.7l-1.083,0.365
		h-8.318l3.967-1.098l6.935-4.503l3.002-2.632l0.933-1.867v-0.935l-0.567-1.899l-0.733-1.467l0.733,0.933L278.837,197.705z
		 M313.307,97.458c-3.731,0.867-7.099,2.611-10.101,5.234c-2.378,2.244-4.633,5.123-6.767,8.635
		c7.244,9.979,13.313,20.902,18.202,32.771c1.867-6.624,2.8-13.613,2.8-20.97C317.574,114.372,316.198,105.815,313.307,97.458z
		 M298.34,70.455c-3.379,9.246-7.501,18.558-12.367,27.937c3.11,3.379,6.1,6.879,8.967,10.501c2.132-3,4.511-5.444,7.134-7.334
		c3.488-2.622,7.234-4.112,11.233-4.467l-1.665-4.334C308.263,84.646,303.829,77.212,298.34,70.455z M202.593,150.866l-2.267-1.133
		l-3-0.201l0.367-0.566l0.399-2.234v-1.5l8.968,7.134l0.567,0.367l-0.367,3l-0.367-0.767L202.593,150.866z M221.129,164.535
		l-1.7-0.766l-3.934-0.734l1.134-2.801l0.199-0.966l6.936,4.501h-0.768L221.129,164.535z M215.895,166.968l-2.067,1.301l0.368-1.101
		L215.895,166.968z M173.922,127.796l-3,4.5l-1.333-3.934l-4.3-5.067l-0.934-0.367l3.2-6.567l4.984,6.851l0.05,0.083l1.333,1.333
		l0.367,0.934v0.934L173.922,127.796z M200.692,176.536l0.567-0.4v0.4H200.692z M171.655,177.27l0.934,1.3v0.934l0.4,0.567h0.167
		l-0.167,0.2h0.934l-2.433,1.133l-1.5-0.566l-0.767-0.567l-0.933-1.134l-0.367-1.299l0.367-1.301l0.933-1.333l0.367,0.766l0.4,0.567
		h0.934L171.655,177.27z M190.958,188.337l0.566-0.767v0.2l0.367,1.3h1.868l1.7,2.268l0.933,0.933l0.367-0.566h0.4l-0.4,0.566
		l-0.933,0.933h-3l-1.867-2.266l-0.367-1.3L190.958,188.337z M155.92,163.967l0.367,2.067l-0.167,0.734c-1,1.377-2,2.322-3,2.833
		l0.367-0.4l-0.567,0.2l-2.633-1.133l-0.734-1.101l-0.566-1.134l0.566-2.067l2.067-1.5l1.3-0.367l1.3,0.367l1.5,0.934
		L155.92,163.967z M125.75,130.796l0.766,3.201l0.567,0.567l-0.567,0.367l-1.333,0.167l-1.3-0.167l-1.3-0.934l-0.934-0.934v-3
		l2.034-1.5v0.733L125.75,130.796z M54.373,171.102l0.366-2.434v2.034l0.934,2.634l3.567,4.867l1.868,1.867l4.867,2.833l6.768,2.601
		l33.904,6.768l30.538,10.867l9.801,5.601h-6.801l-24.937-10.667l-38.572-8.434l-8.834-3.2l-6.734-3.535l-2.8-2.066l-2.634-3.934
		l-0.934-3.201L54.373,171.102z M140.185,148.032l0.934,1.334v1.5l-0.734,1.867h0.167l-0.367,0.367l-1.3,0.933l-1.134,0.366
		l-1.3-0.366l-1.5-0.933l-0.767-1.301v-2.433l0.767-1.334l2.8-0.933L140.185,148.032z M146.185,141.098l-0.766,0.2v-0.2
		C145.685,141.098,145.941,141.098,146.185,141.098z M138.117,131.563l-0.166,0.167v-0.167H138.117z"/>
</g>
</svg>
