<?xml version="1.0" encoding="utf-8"?>
<!-- Generator: Adobe Illustrator 16.0.0, SVG Export Plug-In . SVG Version: 6.00 Build 0)  -->
<!DOCTYPE svg PUBLIC "-//W3C//DTD SVG 1.1//EN" "http://www.w3.org/Graphics/SVG/1.1/DTD/svg11.dtd">
<svg version="1.1" id="Layer_1" xmlns="http://www.w3.org/2000/svg" xmlns:xlink="http://www.w3.org/1999/xlink" x="0px" y="0px"
	 width="400px" height="400px" viewBox="0 0 400 400" enable-background="new 0 0 400 400" xml:space="preserve">
<g>
	<path fill-rule="evenodd" clip-rule="evenodd" fill="#272523" d="M390,355.236h-87.401v-14.721H344.7
		c0.371,0,0.696-0.142,0.979-0.423c0.264-0.266,0.396-0.583,0.396-0.953v-29.863H388.6l-14.166,22.702L390,355.236z M169,75.721
		l6.342-0.291l3.304-5.338l2.247,5.919l6.025,1.56l-4.968,3.912l0.45,6.316l-5.181-3.515l-5.841,2.352l1.64-6.105L169,75.721z
		 M214.748,51.3l3.118,8.272l8.563,2.272l-7.03,5.445l0.581,8.906l-7.267-4.968l-8.22,3.303l2.353-8.563l-5.63-6.792l8.854-0.37
		L214.748,51.3z M256.69,77.835l-4.969,3.912l0.451,6.316l-5.182-3.515l-5.84,2.326l1.639-6.079l-3.991-4.81l6.316-0.29l3.304-5.366
		l2.246,5.946L256.69,77.835z M301.093,213.601c0,25.319-8.951,46.932-26.853,64.831c-3.343,3.344-6.813,6.375-10.413,9.094h79.499
		v50.241H64.234v-50.241h90.797c-3.605-2.719-7.081-5.75-10.427-9.094c-17.884-17.899-26.825-39.512-26.825-64.831
		c0-25.318,8.941-46.919,26.825-64.803c17.901-17.901,39.513-26.852,64.832-26.852c25.319,0,46.92,8.951,64.804,26.852
		C292.142,166.681,301.093,188.283,301.093,213.601z M18.83,309.276h42.656v29.863c0,0.37,0.14,0.688,0.423,0.953
		c0.264,0.281,0.581,0.423,0.951,0.423h42.102v14.721H17.455l15.541-23.258L18.83,309.276z"/>
	<path fill-rule="evenodd" clip-rule="evenodd" fill="#EE6A2F" d="M295.04,128.817c23.47,23.399,35.203,51.661,35.203,84.784
		c0,28.108-8.448,52.714-25.346,73.817c-0.148,0.187-0.298,0.371-0.448,0.556h-28.358c0.203-0.184,0.406-0.368,0.607-0.556
		c1.123-1.035,2.233-2.101,3.33-3.197c19.558-19.558,29.336-43.097,29.336-70.62c0-27.521-9.778-51.051-29.336-70.591
		c-9.514-9.514-19.975-16.711-31.385-21.593c-12.017-5.145-25.086-7.717-39.207-7.717c-14.122,0-27.196,2.572-39.221,7.717
		c-11.41,4.881-21.876,12.079-31.398,21.593c-19.522,19.54-29.284,43.07-29.284,70.591c0,27.523,9.761,51.063,29.284,70.62
		c1.097,1.097,2.207,2.162,3.33,3.197c0.202,0.188,0.404,0.372,0.609,0.556h-26.668c-0.151-0.184-0.301-0.369-0.449-0.556
		c-16.845-21.104-25.267-45.709-25.267-73.817c0-33.123,11.7-61.385,35.098-84.784c2.618-2.612,5.295-5.079,8.035-7.4
		c21.769-18.447,47.396-27.671,76.882-27.671c29.425,0,54.976,9.224,76.658,27.671C289.77,123.738,292.436,126.205,295.04,128.817z
		 M208.458,171.5c-1.744,0-3.437,0.097-5.075,0.291c-5.232,0.634-10.096,1.92-14.587,3.858c-1.481,0.723-2.996,1.454-4.547,2.194
		c-6.237,3.488-11.373,7.849-15.408,13.082c-1.744,2.202-3.259,4.448-4.545,6.74c8.352,0,16.976,0.819,25.874,2.457
		c4.863,0.934,9.673,2.133,14.431,3.595c3.771,1.004,7.487,2.238,11.153,3.7c4.228,1.566,8.316,3.268,12.263,5.102
		c4.494,2.112,8.432,4.174,11.813,6.184l2.616,1.664c0.652-2.66,1.208-5.417,1.666-8.271l0.133-0.396l-0.82-0.557
		c-4.405-2.66-8.898-6.836-13.479-12.527l-10.068-15.409C216.58,178.257,212.775,174.355,208.458,171.5z M208.881,171.5
		c4.581,2.308,8.757,5.884,12.528,10.73l10.175,15.012c2.025,2.484,4.044,4.73,6.053,6.739c2.025,2.202,4.271,4.133,6.738,5.788
		l0.16,0.132c1.003-7.153,1.32-14.994,0.949-23.521c-1.461-1.374-2.978-2.661-4.545-3.858c-5.232-4.229-11.153-7.26-17.761-9.092
		C218.511,172.144,213.744,171.5,208.881,171.5z M188.107,174.407c4.864-2.202,9.858-3.629,14.986-4.281
		c7.065-1.004,13.991-0.546,20.773,1.375c6.801,1.832,12.95,4.862,18.447,9.091c5.516,4.229,10.061,9.506,13.637,15.831
		c3.578,6.325,5.728,12.836,6.449,19.531c0.74,6.149,0.335,12.211-1.216,18.184l-0.554,2.457
		c-2.027,6.695-5.199,12.801-9.516,18.316c-3.383,4.034-7.145,7.522-11.285,10.465c-1.374,1.006-2.792,1.922-4.254,2.749
		c-6.149,3.384-12.617,5.542-19.4,6.475c-6.8,1.093-13.637,0.724-20.509-1.108c-6.889-1.657-13.082-4.643-18.58-8.96
		c-5.496-4.299-9.989-9.523-13.478-15.674c-3.401-6.236-5.47-12.755-6.211-19.558c-0.722-6.871-0.167-13.707,1.666-20.509
		c1.92-6.695,4.996-12.791,9.224-18.288c4.405-5.691,9.498-10.237,15.276-13.638C185.024,175.949,186.54,175.13,188.107,174.407z
		 M206.132,206.334c-5.232-1.744-10.606-3.26-16.122-4.546c-7.981-1.833-16.554-3.163-25.715-3.991
		c-1.938,3.401-3.454,7.119-4.545,11.153c-1.833,6.501-2.202,13.197-1.11,20.086c0.545,4.317,1.646,8.449,3.303,12.396
		c2.202,1.005,4.036,1.594,5.498,1.771c1.938,0.369,4.238,0.327,6.898-0.132c2.008-0.369,4.255-0.872,6.739-1.507l19.955-6.21
		c4.686-1.27,9.319-2.272,13.901-3.013c1.92-0.371,3.752-0.645,5.497-0.819c3.225-0.194,6.114-0.248,8.669-0.159
		c2.659,0.106,5.048,0.476,7.162,1.11l1.797,0.555c1.55-3.489,2.881-7.206,3.991-11.152l-3.172-1.508
		c-7.894-4.316-15.831-7.99-23.813-11.021C212.141,208.254,209.163,207.25,206.132,206.334z M244.111,221.478
		c5.691,3.577,10.968,7.427,15.83,11.55c1.005-5.497,1.138-11.091,0.397-16.783l-0.53-2.906c-2.395,1.021-4.879,1.391-7.451,1.109
		c-2.097-0.177-4.3-0.818-6.607-1.928C245.396,215.46,244.851,218.447,244.111,221.478z M259.809,213.073
		c-1.108-5.515-3.083-10.704-5.918-15.566c-2.309-4.123-5.022-7.744-8.141-10.862c1.021,8.263,1.119,16.289,0.291,24.077
		c2.202,1.286,4.308,2.21,6.316,2.774C254.842,214.042,257.325,213.9,259.809,213.073z M259.809,233.292
		c-5.426-3.947-10.755-7.383-15.989-10.309l-0.95,3.014c-0.829,2.66-1.789,5.276-2.882,7.85c1.005,0.546,1.965,1.188,2.882,1.929
		l1.242,1.243l1.11,1.639c0.546,1.021,0.95,2.22,1.215,3.594c0.458,2.114,0.599,4.502,0.423,7.162
		c-0.457,4.123-1.788,8.528-3.99,13.215c2.942-2.485,5.514-5.197,7.717-8.14c4.035-5.497,6.872-11.551,8.511-18.156
		C259.467,235.327,259.704,234.313,259.809,233.292z M229.1,233.583c-2.203-0.194-4.635-0.15-7.295,0.132
		c-2.096,0.088-4.246,0.316-6.449,0.688c-3.858,0.633-8.447,1.55-13.769,2.749l-13.347,3.988c-5.868,1.57-10.457,2.539-13.77,2.909
		c-2.749,0.353-5.136,0.3-7.163-0.159c-1.462-0.369-3.25-1.146-5.365-2.326l3.304,6.316c3.401,5.886,7.761,10.89,13.082,15.013
		c5.127,4.123,10.863,7.153,17.206,9.092c8.897-3.684,16.51-8.141,22.835-13.374c4.123-3.472,7.841-7.276,11.152-11.416
		c2.291-2.925,4.309-6.044,6.054-9.356l1.664-3.172l-1.401-0.264C233.742,233.855,231.496,233.583,229.1,233.583z M243,238.128
		l-1.083-1.109c-0.827-0.547-1.752-1.049-2.775-1.506l-1.638,3.303c-2.026,3.754-4.37,7.188-7.031,10.307
		c-0.263,0.458-0.581,0.916-0.951,1.376c-3.206,3.576-6.599,6.748-10.175,9.515c-6.89,5.214-14.782,9.205-23.681,11.972l0.423,0.131
		c6.414,2.009,13.064,2.652,19.954,1.931c6.784-0.652,13.25-2.766,19.399-6.344c1.462-0.722,2.881-1.594,4.255-2.616
		c1.021-0.723,2.079-1.542,3.172-2.458c1.744-5.058,2.705-9.515,2.881-13.373c0.194-2.468-0.034-4.714-0.688-6.739l-1.084-3.014
		L243,238.128z"/>
	<path fill-rule="evenodd" clip-rule="evenodd" fill="#FFFFFF" d="M241.917,237.019l1.083,1.109l0.979,1.374l1.084,3.014
		c0.653,2.025,0.882,4.271,0.688,6.739c-0.176,3.858-1.137,8.315-2.881,13.373c-1.093,0.916-2.15,1.735-3.172,2.458
		c-1.374,1.022-2.793,1.895-4.255,2.616c-6.149,3.578-12.615,5.691-19.399,6.344c-6.89,0.722-13.54,0.078-19.954-1.931l-0.423-0.131
		c8.898-2.767,16.791-6.758,23.681-11.972c3.576-2.767,6.969-5.938,10.175-9.515c0.37-0.46,0.688-0.918,0.951-1.376
		c2.661-3.118,5.005-6.553,7.031-10.307l1.638-3.303C240.165,235.97,241.09,236.472,241.917,237.019z M229.1,233.583
		c2.396,0,4.643,0.272,6.738,0.819l1.401,0.264l-1.664,3.172c-1.745,3.313-3.763,6.432-6.054,9.356
		c-3.312,4.14-7.029,7.944-11.152,11.416c-6.325,5.233-13.938,9.69-22.835,13.374c-6.342-1.938-12.078-4.969-17.206-9.092
		c-5.321-4.123-9.681-9.127-13.082-15.013l-3.304-6.316c2.115,1.181,3.903,1.957,5.365,2.326c2.026,0.459,4.414,0.512,7.163,0.159
		c3.313-0.37,7.902-1.339,13.77-2.909l13.347-3.988c5.321-1.199,9.91-2.116,13.769-2.749c2.203-0.371,4.354-0.6,6.449-0.688
		C224.465,233.433,226.896,233.389,229.1,233.583z M259.809,233.292c-0.104,1.021-0.342,2.035-0.712,3.04
		c-1.639,6.605-4.476,12.659-8.511,18.156c-2.203,2.942-4.774,5.654-7.717,8.14c2.202-4.687,3.533-9.092,3.99-13.215
		c0.176-2.66,0.035-5.048-0.423-7.162c-0.265-1.374-0.669-2.572-1.215-3.594l-1.11-1.639l-1.242-1.243
		c-0.917-0.74-1.877-1.383-2.882-1.929c1.093-2.573,2.053-5.189,2.882-7.85l0.95-3.014
		C249.054,225.909,254.383,229.345,259.809,233.292z M259.809,213.073c-2.483,0.827-4.967,0.969-7.451,0.423
		c-2.009-0.564-4.114-1.488-6.316-2.774c0.828-7.788,0.73-15.814-0.291-24.077c3.118,3.119,5.832,6.739,8.141,10.862
		C256.726,202.369,258.7,207.559,259.809,213.073z M244.111,221.478c0.739-3.03,1.285-6.018,1.639-8.958
		c2.308,1.109,4.511,1.751,6.607,1.928c2.572,0.281,5.057-0.089,7.451-1.109l0.53,2.906c0.74,5.692,0.607,11.286-0.397,16.783
		C255.079,228.904,249.803,225.055,244.111,221.478z M206.132,206.334c3.031,0.916,6.009,1.92,8.934,3.013
		c7.981,3.03,15.919,6.704,23.813,11.021l3.172,1.508c-1.11,3.946-2.441,7.663-3.991,11.152l-1.797-0.555
		c-2.114-0.635-4.503-1.004-7.162-1.11c-2.555-0.089-5.444-0.035-8.669,0.159c-1.745,0.175-3.577,0.448-5.497,0.819
		c-4.582,0.74-9.216,1.743-13.901,3.013l-19.955,6.21c-2.484,0.635-4.73,1.138-6.739,1.507c-2.661,0.459-4.96,0.501-6.898,0.132
		c-1.462-0.177-3.295-0.766-5.498-1.771c-1.656-3.946-2.757-8.078-3.303-12.396c-1.092-6.889-0.723-13.585,1.11-20.086
		c1.091-4.034,2.607-7.752,4.545-11.153c9.162,0.828,17.734,2.158,25.715,3.991C195.525,203.074,200.899,204.59,206.132,206.334z
		 M208.881,171.5c4.863,0,9.63,0.643,14.298,1.929c6.607,1.832,12.528,4.863,17.761,9.092c1.567,1.198,3.084,2.484,4.545,3.858
		c0.371,8.528,0.054,16.368-0.949,23.521l-0.16-0.132c-2.467-1.655-4.713-3.586-6.738-5.788c-2.009-2.009-4.027-4.255-6.053-6.739
		l-10.175-15.012C217.638,177.385,213.462,173.809,208.881,171.5z M208.458,171.5c4.317,2.854,8.122,6.757,11.418,11.708
		l10.068,15.409c4.581,5.691,9.074,9.867,13.479,12.527l0.82,0.557l-0.133,0.396c-0.458,2.854-1.014,5.611-1.666,8.271l-2.616-1.664
		c-3.382-2.01-7.319-4.071-11.813-6.184c-3.946-1.834-8.035-3.535-12.263-5.102c-3.666-1.462-7.383-2.696-11.153-3.7
		c-4.757-1.462-9.568-2.661-14.431-3.595c-8.898-1.638-17.522-2.457-25.874-2.457c1.287-2.292,2.802-4.538,4.545-6.74
		c4.035-5.233,9.171-9.594,15.408-13.082c1.551-0.74,3.066-1.472,4.547-2.194c4.492-1.938,9.355-3.224,14.587-3.858
		C205.021,171.597,206.714,171.5,208.458,171.5z M230.21,158.973l-1.084,5.472h-32.852l-1.136-5.472H230.21z M235.23,133.31
		c0.406-0.423,0.917-0.634,1.533-0.634c0.617,0,1.137,0.211,1.56,0.634c0.44,0.44,0.661,0.969,0.661,1.586s-0.221,1.119-0.661,1.506
		c-0.423,0.441-0.942,0.661-1.56,0.661l-0.344-0.053l-6.21,20.826h-35.072l-6.237-20.826l-0.318,0.053
		c-0.616,0-1.145-0.22-1.585-0.661c-0.423-0.423-0.633-0.925-0.633-1.506c0-0.617,0.21-1.146,0.633-1.586
		c0.44-0.423,0.97-0.634,1.585-0.634c0.6,0,1.102,0.211,1.507,0.634c0.441,0.44,0.662,0.969,0.662,1.586
		c0,0.898-0.38,1.524-1.138,1.876l14.721,12.289l7.797-14.271c-1.094-0.3-1.639-1.004-1.639-2.114c0-0.616,0.221-1.145,0.661-1.585
		c0.422-0.423,0.924-0.635,1.507-0.635c0.615,0,1.146,0.212,1.585,0.635c0.423,0.44,0.634,0.969,0.634,1.585
		c0,1.075-0.537,1.779-1.612,2.114l7.797,14.271l14.723-12.289c-0.794-0.353-1.19-0.978-1.19-1.876
		C234.597,134.279,234.809,133.75,235.23,133.31z M186.641,116.131c7.27-1.621,14.869-2.431,22.795-2.431s15.52,0.81,22.782,2.431
		c17.961,4.007,33.897,12.967,47.81,26.879c19.558,19.54,29.336,43.07,29.336,70.591c0,27.523-9.778,51.063-29.336,70.62
		c-1.106,1.106-2.226,2.181-3.356,3.224H263.92c3.569-2.698,7.01-5.7,10.32-9.013c17.901-17.899,26.853-39.512,26.853-64.831
		c0-25.318-8.951-46.919-26.853-64.803c-17.884-17.901-39.484-26.852-64.804-26.852c-25.319,0-46.93,8.951-64.832,26.852
		c-17.884,17.883-26.825,39.485-26.825,64.803c0,25.319,8.941,46.932,26.825,64.831c3.314,3.313,6.754,6.314,10.321,9.013h-12.752
		c-1.13-1.043-2.248-2.117-3.356-3.224c-19.522-19.558-29.284-43.097-29.284-70.62c0-27.521,9.761-51.051,29.284-70.591
		C152.742,129.098,168.684,120.138,186.641,116.131z"/>
</g>
</svg>
