<?xml version="1.0" encoding="utf-8"?>
<!-- Generator: Adobe Illustrator 16.0.0, SVG Export Plug-In . SVG Version: 6.00 Build 0)  -->
<!DOCTYPE svg PUBLIC "-//W3C//DTD SVG 1.1//EN" "http://www.w3.org/Graphics/SVG/1.1/DTD/svg11.dtd">
<svg version="1.1" id="Layer_1" xmlns="http://www.w3.org/2000/svg" xmlns:xlink="http://www.w3.org/1999/xlink" x="0px" y="0px"
	 width="400px" height="400px" viewBox="0 0 400 400" enable-background="new 0 0 400 400" xml:space="preserve">
<g>
	<path fill-rule="evenodd" clip-rule="evenodd" fill="#126E38" d="M298.618,74.892l7.192,0.795l-5.022,5.133l1.48,7.049
		l-6.434-3.073l-6.183,3.579l0.904-7.121l-5.35-4.845l7.12-1.265l2.892-6.578L298.618,74.892z M314.052,110.245l-6.145,3.542
		l0.904-7.121l-5.313-4.808l7.05-1.266l2.927-6.579l3.434,6.29l7.122,0.832l-4.987,5.133l1.48,7.085L314.052,110.245z
		 M339.683,169.6l-7.158,0.65l-3.506,6.29l-2.82-6.579l-7.048-1.374l5.35-4.771l-0.832-7.085l6.146,3.615l6.579-3.001l-1.555,6.977
		L339.683,169.6z M327.283,138.295l-3.434,6.325l-2.892-6.578l-6.977-1.41l5.349-4.735l-0.903-7.122l6.218,3.615l6.507-2.964
		l-1.592,6.94l4.882,5.314L327.283,138.295z M271.434,48.829l3.434,6.253l7.195,0.832l-5.062,5.169l1.481,7.049l-6.469-3.108
		l-6.146,3.542l0.903-7.122l-5.313-4.771l7.084-1.302L271.434,48.829z M308.884,235.316l-7.049-1.265l5.277-4.845l-0.939-7.12
		l6.217,3.577l6.508-3.107l-1.482,7.049l4.988,5.205l-7.157,0.759l-3.397,6.29L308.884,235.316z M329.56,204.266l4.882,5.277
		l-7.158,0.688l-3.434,6.217l-2.892-6.543l-6.977-1.337l5.313-4.809l-0.868-7.121l6.145,3.687l6.58-3.037L329.56,204.266z
		 M234.926,280.104l6.253,3.615l6.507-3.145l-1.446,6.977l4.88,5.168l-7.12,0.832l-3.326,6.29l-3-6.471l-7.049-1.302l5.313-4.843
		L234.926,280.104z M278.664,271.03l5.024,5.205l-7.158,0.797l-3.433,6.253l-2.893-6.544l-7.085-1.264l5.314-4.809l-0.976-7.156
		l6.217,3.614l6.47-3.146L278.664,271.03z M209.477,286.684l-1.482,6.977l4.954,5.167l-7.087,0.796l-3.47,6.254l-2.892-6.47
		l-7.084-1.267l5.313-4.88l-0.941-7.05l6.182,3.546L209.477,286.684z M285.207,257.258l5.35-4.771l-0.977-7.194l6.255,3.579
		l6.434-3.072l-1.48,7.048l5.022,5.206l-7.192,0.724l-3.399,6.325l-2.892-6.578L285.207,257.258z M140.072,55.842l-4.916,5.205
		l1.445,7.085l-6.506-3.108l-6.253,3.542l1.012-7.122l-5.35-4.771l7.084-1.337l2.928-6.507l3.436,6.253L140.072,55.842z
		 M106.203,68.566l3.47,6.326l7.122,0.758l-4.953,5.17l1.446,7.049l-6.507-3.073l-6.217,3.579l0.976-7.157l-5.277-4.808l7.048-1.301
		L106.203,68.566z M80.501,99.689l7.05-1.374l2.892-6.506l3.47,6.289l7.122,0.759l-4.954,5.205l1.447,7.049l-6.507-3.108
		l-6.218,3.615l0.976-7.194L80.501,99.689z M81.296,130.162l5.387,4.735l-7.085,1.374l-2.82,6.651l-3.543-6.327l-7.122-0.65
		l4.845-5.242l-1.52-6.977l6.434,2.928l6.219-3.615L81.296,130.162z M77.536,164.936l5.387,4.736l-7.013,1.409l-2.891,6.616
		l-3.506-6.362l-7.122-0.578l4.88-5.315l-1.589-6.976l6.578,3l6.145-3.687L77.536,164.936z M82.092,193.312l-0.868,7.049
		l5.422,4.808l-7.048,1.337l-2.893,6.58l-3.47-6.218l-7.122-0.724l4.845-5.241l-1.555-7.012l6.469,3.073L82.092,193.312z
		 M85.31,231.304l-1.555-6.977l6.506,3.037l6.253-3.65l-0.868,7.049l5.387,4.807l-7.05,1.337l-2.891,6.615l-3.506-6.217
		l-7.085-0.758L85.31,231.304z M101.068,252.885l-1.553-6.977l6.506,3.036l6.253-3.651l-0.868,7.05l5.387,4.808l-7.05,1.337
		l-2.891,6.615l-3.506-6.219l-7.085-0.758L101.068,252.885z M154.351,280.646l6.506,2.964l6.182-3.579l-0.832,7.013l5.387,4.807
		l-7.086,1.337l-2.82,6.653l-3.505-6.29l-7.121-0.651l4.843-5.278L154.351,280.646z M136.602,272.188l5.351,4.735l-7.048,1.337
		l-2.856,6.65l-3.505-6.29l-6.905-0.578l-0.145-0.146l4.807-5.24l-1.589-6.94c2.168,0.988,4.325,1.988,6.469,2.999l6.255-3.613
		L136.602,272.188z"/>
	<path fill-rule="evenodd" clip-rule="evenodd" fill="#111730" d="M176.184,220.821c3.23-0.073,5.29-0.18,6.182-0.326
		c-3.181-2.963-6.495-7.338-9.941-13.121c-4.169-6.916-6.53-13.965-7.084-21.146c-0.361,0.506-0.687,1.072-0.976,1.699
		c-1.108,2.313-1.903,6.421-2.385,12.326c-0.507,5.831,0.916,10.725,4.265,14.676C169.594,218.905,172.908,220.869,176.184,220.821z
		 M282.352,140.03c-3.447-0.602-6.531-0.096-9.254,1.519c-2.724,1.567-4.35,4.073-4.881,7.519c-0.435,2.916-0.071,5.277,1.084,7.085
		c0.604,0.867,1.254,1.518,1.953,1.952c0.723,0.41,1.746,0.711,3.072,0.903c0.554,0.145,1.651,0.325,3.288,0.543
		c3.159,0.53,4.967,2.481,5.424,5.855c0.481,3.253-0.505,5.699-2.964,7.338c-3.133,2.072-6.277,1.904-9.436-0.506
		c-2.745-2.121-4.554-4.976-5.422-8.567l-0.506-1.554c-1.253-5.254-3.386-8.617-6.398-10.086l-0.76-0.325
		c0,1.591-0.217,19.099-0.65,52.523c-0.119,1.155-0.59,2.904-1.408,5.242c-0.941,2.698-2.036,5.06-3.29,7.083l-1.771,2.351
		c-0.194,0.217-0.252,0.326-0.181,0.326l27.762-28.811c2.892-2.651,6.422-7,10.592-13.05c5.253-7.977,7.337-15.736,6.253-23.28
		C293.654,146.091,289.484,141.404,282.352,140.03z M307.041,127.776c0.65,2.843-0.339,4.988-2.965,6.434
		c-0.435,0.193-1.724,0.397-3.869,0.614c-1.686,0.097-2.783,0.542-3.288,1.338l-0.434,1.229c-0.146,0.747,0,1.566,0.434,2.458
		c0.241,0.482,0.71,1.193,1.409,2.133c3.254,5.181,4.699,11.436,4.339,18.761c-0.579,6.844-2.565,13.278-5.965,19.302
		c-3.374,5.928-8.916,13.05-16.628,21.363c-7.905,8.387-14.81,14.604-20.712,18.652c-3.954,2.675-9.124,5.279-15.509,7.809
		c-3.157,1.325-4.698,2.433-4.627,3.326l0.326,0.613c0.649,1.108,1.722,1.905,3.217,2.387c1.59,0.65,2.818,1.771,3.687,3.361
		c1.156,1.928,1.289,3.988,0.396,6.182c-0.843,2.217-2.264,3.783-4.264,4.698c-2.41,1.012-4.845,0.953-7.303-0.18
		c-2.676-1.253-4.157-3.386-4.446-6.398c-0.119-1.375,0.35-3.422,1.41-6.146l0.796-1.662l-4.989,3.289
		c-3.783,3.012-6.819,6.255-9.108,9.725c-0.892,1.493-1.651,2.987-2.277,4.482c-1.495,3.396-2.194,6.903-2.097,10.518
		c0.12,4.678,1.071,8.182,2.854,10.519c0.339,0.386,1.604,1.436,3.796,3.146c1.277,1.084,1.988,2.313,2.134,3.687
		c0.216,1.856-0.326,3.302-1.627,4.337c-2.024,1.374-3.241,2.423-3.651,3.146c-1.132,2.023-1.651,4.963-1.555,8.818
		c0.169,9.833,1.519,16.979,4.049,21.437c2.747,5.399,7.808,8.953,15.182,10.663c4.123,0.893,7.254,3.386,9.399,7.482h-81.479
		c2.049-4.097,5.158-6.59,9.328-7.482c7.18-1.71,12.278-5.264,15.29-10.663c2.458-4.603,3.795-11.748,4.013-21.437
		c0.048-2.385-0.097-4.373-0.434-5.962h-0.071c0-0.051,0-0.121,0-0.218c-0.266-1.109-0.652-1.988-1.157-2.639
		c-0.339-0.724-1.507-1.772-3.507-3.146c-1.3-1.035-1.88-2.48-1.736-4.337c0.145-1.374,0.832-2.603,2.062-3.687
		c2.242-1.711,3.531-2.761,3.868-3.146c1.808-2.337,2.783-5.841,2.928-10.519c0.048-3.614-0.639-7.121-2.06-10.518
		c-0.579-1.495-1.398-2.989-2.459-4.482c-2.192-3.47-5.206-6.713-9.037-9.725l-5.025-3.289l0.687,1.373
		c1.133,2.531,1.65,4.675,1.555,6.435c-0.29,3.013-1.687,5.146-4.193,6.398c-2.434,1.133-4.904,1.191-7.41,0.18
		c-2.024-1.035-3.446-2.603-4.266-4.698c-0.939-2.193-0.831-4.254,0.326-6.182c0.94-1.591,2.145-2.711,3.615-3.361
		c1.59-0.481,2.734-1.278,3.434-2.387l0.037-0.795c0.121-0.771-1.591-1.928-5.133-3.47c-6.025-2.314-10.978-4.809-14.857-7.483
		c-5.977-4.049-12.856-10.266-20.641-18.652c-7.664-8.433-13.217-15.555-16.664-21.363c-3.398-5.952-5.338-12.386-5.819-19.302
		c-0.531-7.326,0.831-13.58,4.084-18.761c0.771-1.037,1.265-1.819,1.483-2.35c0.458-0.892,0.542-1.747,0.252-2.566l-0.252-0.903
		c-0.434-0.796-1.507-1.242-3.218-1.338c-2.096-0.217-3.385-0.421-3.867-0.614c-2.676-1.446-3.735-3.591-3.181-6.434
		c0.746-3.326,2.734-4.892,5.964-4.699c2.866,0.072,5.566,1.832,8.097,5.278c1.349,1.759,2.361,2.711,3.035,2.855l1.049-0.217
		c1.012-0.385,2.518-1.072,4.519-2.061c4.772-1.71,9.483-1.626,14.133,0.254c3.301,1.422,7.278,4.157,11.929,8.205l0.722,0.614
		v-10.59h106.673v10.59l0.542-0.433c4.604-4.17,8.592-6.964,11.966-8.386c4.675-1.88,9.446-1.964,14.314-0.254
		c0.939,0.29,2.434,0.977,4.482,2.061l0.83,0.217c0.724-0.145,1.771-1.096,3.146-2.855c2.578-3.446,5.276-5.206,8.097-5.278
		C304.353,122.884,306.318,124.451,307.041,127.776z M174.594,134.355c-6.001-0.385-10.651-0.579-13.953-0.579v28.376
		c0.168,0,0.337,0.097,0.506,0.29c0.193,0.168,0.362,0.253,0.506,0.253c0.313-7.35,1.844-13.929,4.591-19.736
		C168.581,138.211,171.366,135.343,174.594,134.355z M151.207,151.706l-0.651,0.325c-1.951,0.939-3.542,2.579-4.771,4.916
		c-0.771,1.519-1.494,3.76-2.169,6.724l-0.216,0.65c-0.94,3.518-2.796,6.253-5.566,8.205c-3.11,2.145-6.134,2.218-9.074,0.217
		c-2.362-1.639-3.301-4.084-2.82-7.338c0.434-3.374,2.205-5.326,5.314-5.855c3.422-0.554,5.277-0.929,5.566-1.121
		c1.205-0.65,2.084-1.41,2.639-2.277c1.132-1.808,1.481-4.169,1.049-7.085c-0.386-3.446-1.965-5.952-4.735-7.519
		c-2.652-1.615-5.785-2.121-9.399-1.519c-7.108,1.374-11.267,6.062-12.47,14.062c-1.062,7.665,1.071,15.424,6.398,23.28
		c4.047,6.049,7.554,10.398,10.518,13.05l26.46,27.509c0.602,0.65,1.024,1.084,1.265,1.302c0.266,0.216,0.205,0.106-0.18-0.326
		c-1.808-2.024-3.351-4.784-4.627-8.278c-1.182-2.747-1.832-4.88-1.952-6.397C151.399,170.805,151.207,153.297,151.207,151.706z"/>
	<path fill-rule="evenodd" clip-rule="evenodd" fill="#C43B28" d="M173.763,41.708c4.433-4.289,9.507-7.651,15.218-10.085
		c1.277-0.554,2.603-0.988,3.976-1.301c-1.567,1.349-2.879,2.807-3.94,4.374c-0.626,0.626-1.18,1.325-1.663,2.097
		c-0.771,1.422-1.385,2.783-1.843,4.084c-0.554,1.422-0.856,2.771-0.904,4.048c0.073,0.073,0.073,0.145,0,0.217l0.107,1.735
		c0.097,0.241,0.134,0.422,0.108,0.542l0.326,1.772l0.108,0.072c-0.072,0.048-0.084,0.12-0.035,0.217
		c0.145,0.385,0.337,0.747,0.577,1.084c-1.108,0.868-2.192,1.723-3.252,2.567c-0.531,0.458-1.073,0.891-1.627,1.301l-1.482,1.591
		c-1.734-2.989-3.398-6.158-4.988-9.507c-0.675-1.205-1.242-2.446-1.699-3.723C173.064,42.407,173.402,42.046,173.763,41.708z
		 M188.222,42.576c0.482-1.615,1.302-3.241,2.458-4.88c0.723-1.061,1.555-2.145,2.494-3.253c1.639-1.855,3.592-3.711,5.857-5.567
		c1.132-0.265,2.313-0.409,3.542-0.434c1.471-0.192,3.024-0.24,4.664-0.144l0.18-0.037c6.313,0.121,12.231,1.422,17.749,3.904
		c3.976,1.879,7.566,4.169,10.772,6.868c-1.157-0.168-2.386-0.337-3.688-0.506c-3.109-0.29-6.217-0.458-9.326-0.506
		c-2.289,0.097-4.554,0.277-6.796,0.542c-3.085,0.386-6.253,0.977-9.507,1.772c-1.061,0.313-2.145,0.626-3.252,0.939
		c-0.46,0.218-0.905,0.41-1.339,0.579c-3.615,1.374-7.109,3.012-10.483,4.917l-0.108,0.108l-2.422,1.518
		c-0.408-0.505-0.687-1.048-0.83-1.626l-0.398-1.013l-0.037-0.832L188.222,42.576z M206.368,45.648
		c3.084-1.085,6.351-1.868,9.795-2.35c5.858-0.868,12.075-1.073,18.654-0.615c1.205,0.145,2.361,0.241,3.47,0.289
		c0.674,0.097,1.325,0.168,1.952,0.217c3.808,4.266,6.734,9.109,8.783,14.532c2.169,5.397,3.17,11.001,3,16.809l-0.29,3.217
		c-0.336-0.458-0.662-0.855-0.974-1.192c-0.339-0.458-0.724-0.892-1.157-1.301c-0.266-0.265-0.567-0.579-0.904-0.94
		c-1.325-0.939-2.892-1.831-4.698-2.674c-2.796-1.229-6.906-2.579-12.327-4.048l-12.507-3.145c-4.651-1.422-8.616-2.76-11.894-4.013
		c-0.675-0.241-1.276-0.494-1.808-0.759c-1.253-0.505-2.457-1.048-3.614-1.626c-2.145-1.037-4.084-2.109-5.82-3.218
		c-1.47-0.915-2.783-1.856-3.94-2.82l0.796-0.47c2.964-1.735,6.036-3.253,9.218-4.554C203.501,46.456,204.922,46.01,206.368,45.648z
		 M243.131,75.615c1.615,0.675,3.035,1.397,4.265,2.168c0.362,0.314,0.699,0.579,1.012,0.795c0.532,0.386,1.074,0.929,1.628,1.627
		c0.338,0.458,0.747,0.976,1.229,1.554c-0.578,3.254-1.518,6.423-2.819,9.507c-2.507,5.639-5.964,10.615-10.374,14.929
		c-2.699,2.385-5.531,4.458-8.494,6.218c-2.338-1.688-4.616-3.411-6.834-5.17c-3.903-3.109-7.577-6.29-11.023-9.542
		c-0.676-0.651-1.325-1.278-1.952-1.88c-2.122-2.049-4.206-4.146-6.255-6.29c-0.794-0.939-1.565-1.844-2.313-2.711
		c-1.904-2.121-3.747-4.253-5.531-6.398c-4.82-6.025-9.314-12.496-13.483-19.412l-0.686-1.12c2.264-2,4.506-3.832,6.722-5.495
		l0.94,0.904c1.375,1.47,3.085,2.928,5.132,4.374c2.098,1.229,4.387,2.446,6.869,3.651c1.325,0.578,2.627,1.144,3.903,1.699
		c0.339,0.072,0.676,0.205,1.013,0.397c4.001,1.566,8.109,2.904,12.327,4.012l18.796,4.411l-0.109-0.108
		C239.336,74.386,241.347,75.012,243.131,75.615z M185.837,74.567c2.264,3.446,4.662,6.663,7.191,9.651
		c2.267,2.868,4.617,5.651,7.05,8.35c0.529,0.506,1.109,1.061,1.736,1.663c0.481,0.482,0.963,0.953,1.444,1.41
		c2.073,2.122,4.254,4.169,6.543,6.146c2.723,2.386,5.532,4.615,8.423,6.687c2.699,2,5.446,3.88,8.242,5.639
		c-1.302,0.626-2.628,1.181-3.977,1.663c-5.688,2.241-11.736,3.301-18.146,3.181c-0.866-0.024-1.747-0.061-2.64-0.109
		c-0.673-0.121-1.276-0.229-1.807-0.325c-4.603-0.506-9.049-1.699-13.338-3.579c-1.35-0.626-2.639-1.253-3.868-1.88
		c-1.735-3.879-2.711-8.241-2.928-13.085c-0.072-0.096-0.109-0.217-0.109-0.362V91.52c0.096-0.096,0.109-0.18,0.038-0.252
		l-0.542-8.313c0.047-0.073,0.035-0.133-0.038-0.182c-0.794-6.506-2.252-11.82-4.373-15.941c1.326-1.566,2.663-2.988,4.013-4.266
		l0.831,1.627C181.293,67.373,183.378,70.831,185.837,74.567z M178.606,110.498c-2.313-1.687-4.53-3.638-6.651-5.856
		c-4.146-4.313-7.253-9.254-9.326-14.82c-0.507-1.277-0.965-2.604-1.374-3.977c1.469-2.53,2.939-4.917,4.409-7.158
		c2.073-3.156,4.193-6.072,6.362-8.748c0.892,2.072,1.578,4.169,2.062,6.29v0.217c0.626,2.386,1.084,4.94,1.374,7.663l0.939,16.267
		l0.108,0.072C176.799,104.16,177.499,107.509,178.606,110.498z M167.292,62.854c1.084,0.94,2.036,2.072,2.856,3.398
		c-1.807,2.482-3.506,5.061-5.096,7.735c-1.712,2.748-3.218,5.579-4.519,8.495c-0.627-3.084-0.892-6.205-0.796-9.362
		c0.121-4.555,0.928-8.954,2.422-13.194c1.47,0.433,2.783,1.083,3.94,1.952C166.486,62.144,166.883,62.469,167.292,62.854z
		 M167.221,58.12c-1.181-0.627-2.423-1.097-3.724-1.41l0.072-0.325c1.928-4.266,4.398-8.122,7.41-11.567
		c0.434,1.325,0.963,2.699,1.59,4.12c1.157,3.205,2.531,6.387,4.122,9.543c-1.471,1.59-2.844,3.133-4.122,4.626
		c-1.156-1.566-2.445-2.903-3.868-4.012C168.22,58.758,167.726,58.433,167.221,58.12z"/>
	<path fill-rule="evenodd" clip-rule="evenodd" fill="#D24D28" d="M314.812,307.684c-4.916,1.614-9.988,3.108-15.218,4.482
		l-4.771-15.254l82.416-22.014l-7.807,24.652l22.736,15.508l-51.114,15.146v-33.003l-2.963,1.481
		c-0.289,0.144-0.579,0.265-0.868,0.36l-0.037,0.073h-0.034C330.092,302.251,322.644,305.104,314.812,307.684z M206.477,327.818
		c25.399,0,49.775-2.241,73.127-6.723c6.507-1.278,12.809-2.737,18.906-4.374h0.145l0.071-0.036h0.036
		c0.024,0,0.072-0.012,0.146-0.037c5.928-1.518,11.663-3.204,17.205-5.06c7.278-2.386,14.219-5.026,20.822-7.916v29.134
		c0,0.098,0,0.206,0,0.325v18.111c-17.039,7.591-36.412,13.531-58.126,17.82c-23.11,4.435-47.222,6.652-72.332,6.652
		c-27.086,0-52.944-2.592-77.573-7.772c-23.063-4.868-43.341-11.677-60.838-20.424v-17.496c0-0.096,0-0.205,0-0.326v-29.785
		c6.508,3.207,13.388,6.134,20.641,8.786c5.422,2.023,11.073,3.89,16.953,5.603l0.073,0.035h0.108
		c7.061,2.072,14.46,3.94,22.195,5.603C152.833,325.192,178.98,327.818,206.477,327.818z M12.579,311.806l22.847-15.508
		l-7.809-24.509l82.273,22.051l-4.951,15.941c-5.085-1.543-10.013-3.193-14.785-4.952c-8.17-2.988-15.833-6.313-22.99-9.979
		l-0.289-0.105l0.072,0.035l-3,1.844v30.473L12.579,311.806z"/>
</g>
</svg>
