<?xml version="1.0" encoding="utf-8"?>
<!-- Generator: Adobe Illustrator 16.0.0, SVG Export Plug-In . SVG Version: 6.00 Build 0)  -->
<!DOCTYPE svg PUBLIC "-//W3C//DTD SVG 1.1//EN" "http://www.w3.org/Graphics/SVG/1.1/DTD/svg11.dtd">
<svg version="1.1" id="Layer_1" xmlns="http://www.w3.org/2000/svg" xmlns:xlink="http://www.w3.org/1999/xlink" x="0px" y="0px"
	 width="400px" height="400px" viewBox="0 0 400 400" enable-background="new 0 0 400 400" xml:space="preserve">
<g>
	<path fill="#F8991D" d="M325.138,157.388c0.498-0.081,1.199-0.088,2.104-0.021c1.415,0.606,2.027,1.651,1.84,3.134
		c-0.188,1.456-0.93,2.359-2.225,2.709l-2.082,0.021c-0.108,0.404-0.209,0.978-0.305,1.719c-0.094,0.755-0.202,1.287-0.322,1.598
		l0.444,0.282l-0.102-0.363l0.484,0.182c0.108,0.014,0.169-0.067,0.183-0.242l-0.021-1.031c0.026-0.27,0.102-0.452,0.223-0.546
		c0.162,0.283,0.216,0.634,0.162,1.051l-0.162,0.688c-0.04,0.418,0.073,0.647,0.344,0.688c0.81,0.107,1.389-0.08,1.739-0.565
		c0.593-0.917,1.063-1.503,1.415-1.76c-0.121,0.364-0.438,0.856-0.95,1.477c-0.404,0.472-0.627,0.876-0.667,1.213
		c-0.056,0.378,0.182,0.62,0.707,0.728c0.271,0.081,0.693,0.135,1.273,0.162c-0.041,0.242-0.114,0.451-0.223,0.627
		c-0.054,0.525,0.566,1.476,1.86,2.851c-0.229,0.337-0.352,0.532-0.364,0.586c-0.107,0.85,0.088,1.362,0.587,1.537
		c0.296,0.121,0.862,0.283,1.698,0.485c-0.122,0.081-0.345,0.101-0.667,0.061c-0.271-0.041-0.526-0.121-0.771-0.243
		c-0.094,0.081-0.161,0.283-0.201,0.606c-0.066,0.486,0.102,0.829,0.506,1.031c-0.026,0.136-0.154,0.189-0.385,0.162l-0.403-0.263
		c-0.229-0.027-0.371,0.162-0.426,0.566c-0.026,0.256,0,0.391,0.081,0.404l0.242,0.061l1.335-0.546
		c0.513-0.135,0.842,0.054,0.99,0.566c0.041,0.229,0.034,0.418-0.021,0.565l1.496,0.364c-0.013,0.188-0.208,0.263-0.586,0.223
		c-0.418-0.148-0.802-0.276-1.151-0.385l-1.536,1.052c0.296,0.107,0.62,0.223,0.97,0.344c0.877,0.351,1.308,0.573,1.294,0.667
		c-1.104-0.377-1.979-0.627-2.628-0.748l-0.323,0.202c-0.322,0.216-0.95,0.452-1.881,0.708c-0.579-0.122-0.91-0.311-0.99-0.566
		c-0.054-0.202-0.033-0.404,0.062-0.606c-0.499,0.014-1.188,0.229-2.063,0.646l0.184,0.89c-0.433,0.337-0.661,0.62-0.688,0.85
		l0.061,1.658l1.497,0.344c0.472,0.067,0.802,0.061,0.989-0.021c0.229,0.026,0.33,0.169,0.305,0.425
		c-0.015,0.121-0.155,0.161-0.426,0.121l-2.243-0.404l-0.041,0.283c-0.055,0.377-0.195,0.714-0.425,1.011
		c0.242,1.159,0.418,1.86,0.525,2.103c0.404,0.957,1.031,1.658,1.88,2.103l-1.334,1.699c-0.026,0.147,0.015,0.546,0.121,1.192
		c0.108,0.593,0.142,1.059,0.103,1.395l-0.305,0.162c0.229,0.121,0.323,0.304,0.283,0.546c-0.041,0.378-0.27,0.539-0.688,0.485
		c-0.298-0.04-0.479-0.216-0.547-0.525c-1.146,0.35-1.968,0.613-2.467,0.788c-0.93,0.364-1.429,0.81-1.496,1.335
		c-0.175-0.027-0.297-0.142-0.363-0.344c-0.067-0.203-0.148-0.311-0.242-0.324c-0.458,0.176-0.855,0.243-1.193,0.202
		c-0.31-0.121-0.579-0.215-0.809-0.282c0,0.04,0,0.08,0,0.121c0,0.418-0.195,0.983-0.586,1.698c0.634-0.121,1.354-0.135,2.163-0.04
		c0.363,0.054,0.513,0.343,0.443,0.869c-0.013,0.121-0.106,0.311-0.282,0.566c-0.014,0.148,0.479,0.626,1.477,1.435
		c0.297-0.107,0.734-0.484,1.313-1.132c0.458-0.579,0.851-0.849,1.174-0.809c0.106,0.014,0.249,0.088,0.425,0.223
		c0.161,0.175,0.229,0.351,0.201,0.525c-0.026,0.27-0.223,0.513-0.586,0.728c-0.323,0.189-0.653,0.263-0.99,0.223
		c-0.822,0.796-1.396,1.173-1.719,1.132c0.054,0.312,0.175,0.479,0.362,0.506c0.041,0,0.189-0.103,0.445-0.304
		c0.216,0.027,0.411,0.264,0.586,0.707c0.176,0.473,0.337,0.716,0.485,0.729c0.472,0.055,0.821-0.066,1.052-0.363
		c0.283-0.377,0.572-0.545,0.869-0.506c0.363,0.055,0.52,0.283,0.465,0.688c-0.202,0.565-0.444,0.836-0.729,0.81
		c-0.351-0.136-0.6-0.21-0.748-0.223c-0.619-0.081-1.286,0.384-2.002,1.395c-0.646,0.93-1.018,1.772-1.111,2.527l-0.021,0.566
		c-0.081,0.66-0.573,1.132-1.477,1.414c-0.741,0.244-1.543,0.312-2.405,0.203c-0.229-0.027-0.553-0.283-0.971-0.77
		c-0.539-0.714-0.843-1.1-0.91-1.152l-0.586-0.02l-0.647-0.102c0.177,0.377,0.357,0.801,0.546,1.272
		c-0.188-0.161-0.282-0.315-0.282-0.465c-0.08,0-0.392-0.183-0.931-0.546c-0.081,0.106-0.128,0.201-0.142,0.283
		c-0.054,0.418,0.276,0.93,0.991,1.537c0.835,0.795,1.388,1.488,1.656,2.082l-0.263,0.262c-1.847-0.241-3.12,0.195-3.821,1.314
		c1.537,0.594,2.318,0.924,2.347,0.99c0.014,0.122-0.007,0.316-0.062,0.587c0.055,0.242,0.223,0.438,0.505,0.586
		c0.162,0.081,0.418,0.196,0.77,0.345c-0.067,0.297-0.027,0.7,0.121,1.213c0.107,0.484,0.418,0.877,0.93,1.172
		c-0.053,0.068-0.256,0.271-0.605,0.606c-0.147,0.147-0.176,0.418-0.081,0.81c0.067,0.188,0.21,0.432,0.426,0.729
		c0.215,0.27,0.344,0.499,0.384,0.688c-0.579,0.176-1.045,0.52-1.396,1.031c-0.283,0.404-0.411,0.701-0.385,0.891
		c0.081,0.296,0.257,0.578,0.525,0.849c0.283,0.283,0.432,0.466,0.444,0.547c0.055,0.106,0.067,0.175,0.041,0.201
		c0,0.015-0.055,0.034-0.162,0.062c-0.08,0.014-0.304-0.074-0.667-0.263s-0.722-0.229-1.071-0.122
		c-0.472,0.122-0.856,0.458-1.152,1.012c-0.297,0.553-0.641,0.883-1.03,0.99c-0.393,0.107-0.862,0.067-1.416-0.121
		c-0.579-0.216-1.019-0.283-1.313-0.201c-0.229,0.066-0.492,0.283-0.788,0.646c-0.162,0.188-0.324,0.337-0.484,0.445
		c0.27,0.135,0.384,0.35,0.343,0.646l-0.102,0.426l0.162,0.08c0.822,0.094,1.598,0.067,2.325-0.08
		c0.809,0.107,1.187,0.377,1.132,0.809c-0.025,0.229-0.31,0.964-0.849,2.204c0.161,0.256,0.773,0.714,1.84,1.375
		c0.849,0.552,1.22,1.22,1.111,2.002c-0.121,1.011-1.071,1.696-2.852,2.062c-1.778,0.338-2.75,1.146-2.911,2.428l-0.223,0.688
		l0.303,0.909l-0.08,0.202l0.142,0.404c-0.055,0.336-0.195,0.748-0.424,1.232c-0.298,0.499-0.467,0.883-0.507,1.152l-0.02,1.152
		c-0.055,0.418-0.587,0.641-1.598,0.666c-0.998-0.025-1.523,0.149-1.578,0.526c-0.229,0.015-0.586,0.37-1.07,1.071
		c-0.418,0.58-0.951,0.828-1.598,0.748c-0.283-0.041-0.682-0.188-1.193-0.444c-0.473-0.297-0.835-0.458-1.092-0.485
		c-0.338-0.041-0.633-0.061-0.889-0.061c0.025,0.107,0.054,0.223,0.08,0.344c0.08,0.055,0.113,0.143,0.102,0.264
		c0.04-0.027,0.074-0.067,0.101-0.121c0.257-0.067,0.566,0.304,0.931,1.111l-0.061-0.201c0.026,0,0.303,0.295,0.828,0.889
		c0.525,0.619,0.938,0.89,1.232,0.809c0.056,0.014,0.258,0.034,0.606,0.063l-0.483-0.224l0.223-0.444
		c0.417,0.055,0.605,0.194,0.564,0.424c-0.014,0.162-0.088,0.244-0.223,0.244c0.243,0.025,0.393,0.106,0.445,0.242
		c0.16-0.041,0.431-0.143,0.809-0.305c0.352-0.175,0.627-0.281,0.829-0.322c0.026,0.12,0.101,0.161,0.224,0.12
		c0.391-0.106,0.768-0.262,1.131-0.465l0.183-0.08c-0.04-0.122,0.128-0.223,0.506-0.304c0.512-0.148,1.18-0.473,2.002-0.971
		c0.539-0.121,0.916-0.047,1.132,0.223c0.188,0.311,0.465,0.411,0.829,0.304c0.188-0.041,0.364-0.183,0.525-0.426
		c0.095-0.121,0.223-0.304,0.384-0.545c0.176,0.054,0.654,0.121,1.436,0.202c0-0.189,0.041-0.317,0.122-0.385
		c0.095-0.082,0.297-0.168,0.606-0.264v0.829c0.66,0.242,1.159,0.573,1.496,0.991c0.242,0.146,0.404,0.222,0.484,0.222
		c0.107,0.027,0.297,0.007,0.566-0.062c0.175-0.066,0.781,0.371,1.819,1.314c0.026,0.027,0.061,0.055,0.102,0.081
		c0.04-0.026,0.102-0.034,0.183-0.021c0.106,0.014,0.16,0.128,0.16,0.344c0.741,0.646,1.134,1.059,1.174,1.232
		c-0.014,0.055-0.04,0.229-0.081,0.525c-0.04,0.203-0.135,0.33-0.282,0.385c0.013,0.041,0.182,0.323,0.505,0.85
		c0.162,0.283,0.263,0.539,0.304,0.769c0.107-0.147,0.289-0.263,0.546-0.344c0.282-0.067,0.539-0.021,0.769,0.142
		c0.229,0.148,0.371,0.33,0.425,0.547c0.041,0.174-0.033,0.356-0.223,0.545c0,0.027-0.176,0.188-0.525,0.485
		c-0.229,0.054-0.377,0.081-0.444,0.081c-0.147,0-0.275-0.027-0.384-0.081c-0.014,0.148-0.041,0.425-0.082,0.829
		c-0.066,0.352-0.175,0.594-0.323,0.729c0.474,0.404,0.878,0.902,1.215,1.496c-0.595,0.188-1.013,0.356-1.254,0.506
		c-0.716,0.432-0.998,0.923-0.851,1.476c0,0.04,0.095,0.155,0.283,0.345c0.175,0.188,0.283,0.356,0.323,0.504
		c-0.513,0.297-1.32,0.871-2.427,1.719l-1.495,1.154l2.203,0.564c1.482,0.514,2.318,1.126,2.508,1.84
		c0.066,0.258,0.135,0.789,0.201,1.598c0.081,0.297,0.352,0.741,0.81,1.334c0.499,0.595,0.829,0.871,0.991,0.83
		c0.106-0.041,0.343-0.168,0.707-0.385c0.107-0.041,0.235-0.027,0.384,0.04c0.162,0.041,0.257,0.103,0.283,0.183
		c0.026,0.107-0.229,0.506-0.769,1.192c-0.553,0.716-0.809,1.47-0.769,2.265l0.04,0.082c0.041,0.066,0.102,0.088,0.183,0.061
		c0.391,1.402-0.054,2.266-1.335,2.588l0.283,0.344c-0.337,0.243-0.62,0.869-0.851,1.881c-0.188,0.85-0.754,1.396-1.696,1.637
		c-0.229,0.056-0.438,0.041-0.628-0.039l-0.223-0.162c-0.85,0.229-1.313,0.561-1.396,0.99c-0.094,0.418-0.29,0.675-0.586,0.77
		c-0.081,0.014-0.324-0.021-0.729-0.102c-0.417-0.107-0.788-0.162-1.11-0.162l0.16,0.363c0.041,0.148-0.025,0.357-0.201,0.627
		c-0.161,0.298-0.316,0.466-0.466,0.507l-0.281,0.061c-0.148,0.054-0.386-0.048-0.708-0.304c-0.297-0.256-0.479-0.473-0.546-0.646
		c-0.041-0.162-0.027-0.324,0.04-0.484c-1.874-0.756-3.095-1.28-3.659-1.577c-1.646-0.876-2.622-1.705-2.933-2.487l-2.75-1.496
		c-0.256-0.281-0.425-0.506-0.506-0.666c-0.997-0.107-1.73-0.586-2.203-1.437c-0.459-0.781-0.646-1.375-0.566-1.779
		c0.082-0.351,0.56-1.192,1.437-2.526c0.323-0.162,0.876-0.217,1.657-0.162c0.863,0.066,1.47,0.08,1.82,0.041
		c0.039-0.217,0.16-0.438,0.363-0.668c0.202-0.215,0.397-0.344,0.586-0.385H305c0.055,0,0.094,0.041,0.121,0.123
		c0.188-0.041,0.465-0.548,0.828-1.518c0.364-0.984,1.019-1.604,1.962-1.859c-0.418-0.716-1.24-1.49-2.468-2.326
		c-1.131-0.754-1.731-1.232-1.799-1.436c0.147-0.04,0.183-0.188,0.102-0.443c-0.121-0.445-0.404-1.045-0.85-1.801
		c-0.283,0.161-0.444,0.297-0.485,0.404c-0.04,0.107-0.06,0.363-0.06,0.77c0.121-0.041,0.2,0,0.241,0.121
		c0.136,0.471-0.235,1.165-1.112,2.081c-0.821,0.863-1.664,1.437-2.526,1.72c0.095,0.403,0.114,0.821,0.062,1.254l0.102-0.103
		c-0.243,1.146-0.467,1.706-0.667,1.679l-0.122-0.08l-0.161,0.041c-0.324,1.01-1.522,1.381-3.601,1.11
		c-0.336-0.337-0.553-0.553-0.646-0.647c-0.229-0.025-0.506-0.229-0.829-0.605c-0.472-0.512-0.66-1.118-0.566-1.818
		c0.027-0.188,0.067-0.377,0.123-0.565c-0.148-0.068-0.277-0.103-0.385-0.103c-0.162,0.121-0.601,0.297-1.314,0.525
		c-0.66,0.176-1.455,0.176-2.387,0c-0.93-0.162-1.441-0.234-1.535-0.223c0.094,0.256,0.054,0.606-0.121,1.052
		c0.013,0.106,0.121,0.364,0.322,0.769c0.162,0.404,0.264,0.715,0.304,0.93c0.095,0.298-0.021,0.601-0.343,0.91
		c-0.324,0.324-0.486,0.498-0.486,0.525c-0.594,0.041-1.004,0.008-1.232-0.102c-0.324-0.147-0.547-0.491-0.668-1.03
		c-0.066-0.229,0.041-0.573,0.324-1.031c0.27-0.499,0.352-0.95,0.242-1.354c-0.055-0.229-0.371-0.506-0.95-0.828
		c-0.634-0.338-1.166-0.452-1.599-0.344l0.203-0.062c-0.041-0.135-0.264-0.243-0.668-0.323c-1.104-0.188-1.899-0.344-2.385-0.466
		l0.141-0.263l-1.051,0.162c0.135,0.31,0.275,0.586,0.424,0.828c0.217,0.229,0.844,0.385,1.882,0.466
		c0.862,0.094,1.294,0.384,1.294,0.868c0,0.108-0.352,0.627-1.053,1.558c-0.715,0.957-1.07,1.954-1.07,2.993
		c0,0.296,0.182,0.828,0.546,1.597c0.081,0.081,0.505,0.169,1.272,0.263c0.606,0.082,1.072,0.155,1.396,0.224
		c0.025-0.108,0.08-0.195,0.161-0.263c0.121-0.082,0.235-0.049,0.345,0.101c0.188,0.377,0.223,0.606,0.102,0.688
		c-0.148,0.094-0.338,0.021-0.566-0.224c-0.755,0.661-1.482,1.104-2.184,1.335v1.354c-0.148,0-0.316,0.103-0.506,0.305
		c-0.188,0.202-0.283,0.363-0.283,0.484c0,0.176,0.143,0.363,0.425,0.565c0.243,0.243,0.364,0.499,0.364,0.769
		c0,1.064-1.019,2.933-3.053,5.602l-3.095,4.023c0.539,0,1.341,1.422,2.406,4.267c-0.175-0.188-0.263-0.371-0.263-0.546
		c-0.108,0-0.627-0.352-1.559-1.053c-0.916-0.7-1.631-1.059-2.143-1.07l2.324,1.455c-1.657-0.323-2.856-0.715-3.599-1.172
		c-0.565,0.31-0.924,0.882-1.071,1.718c-0.217,1.335-0.513,2.002-0.891,2.002c-0.322,0-0.667-0.095-1.031-0.283
		c-0.377-0.256-0.66-0.424-0.849-0.505c-0.769,1.59-1.563,2.387-2.386,2.387c-0.096,0-0.223-0.049-0.385-0.143
		c-0.188-0.081-0.33-0.121-0.425-0.121c-0.188,0.337-0.282,0.773-0.282,1.313c0,0.377,0.142,0.903,0.424,1.578
		c0.257,0.633,0.392,1.077,0.404,1.334c0.188-0.121,0.377-0.048,0.565,0.223c0.026,0.041,0.026,0.128,0,0.263
		c-0.013,0.136-0.062,0.224-0.142,0.265l-0.465-0.103l-0.102-0.101c-0.027,0.039-0.055,0.086-0.081,0.141
		c-0.175,0.271-0.377,0.404-0.606,0.404c-0.524,0-0.789-0.182-0.789-0.545c0-0.162,0.056-0.426,0.162-0.789
		c0.082-0.338,0.121-0.601,0.121-0.789c0-0.594-0.142-1.125-0.425-1.598c-0.296-0.525-0.694-0.787-1.192-0.787
		c-0.311,0-0.729,0.08-1.254,0.241c-0.524,0.177-0.822,0.263-0.89,0.263c-0.135,0-0.296-0.047-0.485-0.142
		c0.082,0.472-0.025,0.802-0.322,0.991l-0.223,0.121l-0.021,0.041l-0.081,0.02l-0.143,0.143c-0.054-0.067-0.107-0.088-0.162-0.062
		l-0.221,0.142c-0.096-0.08-0.17-0.106-0.224-0.08c-0.324,0.216-0.586,0.283-0.789,0.201c-0.147-0.039-0.444-0.295-0.89-0.768v0.08
		c-0.026-0.055-0.062-0.094-0.102-0.121c-0.201,0.311-0.385,0.532-0.546,0.667c0.081,0.015,0.155,0.074,0.224,0.183
		c0.135,0.377,0.127,0.613-0.021,0.707c-0.243,0.108-0.396,0.184-0.465,0.224c-0.337,0.216-0.467,0.714-0.385,1.495
		c0.08,0.729,0.25,1.295,0.506,1.699l0.223,0.303c0.242,0.351,0.202,0.774-0.122,1.273c-0.271,0.445-0.64,0.815-1.11,1.112
		c-0.135,0.094-0.397,0.106-0.789,0.04c-0.553-0.121-0.862-0.182-0.931-0.182l-0.282,0.263l-0.606,0.323
		c0.014,0.229,0.041,0.385,0.081,0.465c0.148,0.229,0.525,0.345,1.132,0.345c0.741,0.04,1.301,0.153,1.679,0.343l-0.021,0.223
		c-1.294,0.836-1.665,1.813-1.112,2.933c0.553,1.104,0.762,1.705,0.627,1.8c-0.201,0.135-0.492,0.276-0.869,0.426
		c-0.457,0.147-0.775,0.256-0.949,0.322c-0.364,0.498-0.613,1.104-0.75,1.819c-0.094,0.606-0.242,0.978-0.443,1.112
		c-0.202,0.699-0.559,1.227-1.071,1.576c-0.458,0.297-0.938,0.444-1.437,0.444c-0.578,0.041-0.99-0.136-1.232-0.524l-0.304-0.606
		c-0.283-0.04-0.472-0.128-0.566-0.263l-0.161-0.426l-1.738,0.202c-0.055-0.312-0.121-0.579-0.202-0.809
		c-0.107,0.216-0.067,0.524,0.122,0.93c0.107,0.337,0.025,0.595-0.243,0.769c-0.095,0.055-0.345-0.006-0.748-0.182
		c-0.433-0.203-0.843-0.176-1.233,0.08c-0.229,0.148-0.344,0.352-0.344,0.607c0.066,0.336,0.088,0.564,0.061,0.688
		c0.244,0.201,0.526,0.195,0.851-0.021c0.135-0.08,0.276-0.223,0.425-0.424c0.148-0.217,0.275-0.357,0.385-0.426
		c0.08-0.054,0.41-0.033,0.989,0.061c0.595,0.123,0.991,0.291,1.193,0.507c0.31-0.202,0.491-0.271,0.546-0.202l0.102,0.425
		c0.188,0.282,0.525,0.579,1.012,0.89c0.484,0.283,0.74,0.444,0.769,0.485l-0.283,0.97c0.81-0.31,1.462-0.088,1.962,0.668
		c0.229,0.352,0.329,0.729,0.303,1.133c0.283,0.201,0.438,0.289,0.466,0.263c0.362,0.554,0.356,1.085-0.021,1.599
		c0.201,0.512,0.141,0.875-0.183,1.092c-0.499,0.322-0.991,0.242-1.478-0.244l-0.08-0.262c-0.242-0.136-0.451-0.338-0.627-0.606
		l-0.061-0.103l-0.668-0.101c-0.296-0.04-0.652,0.007-1.07,0.142c-0.027,0.067-0.089,0.135-0.183,0.202l-0.062-0.102
		c-0.107,0.067-0.25,0.344-0.425,0.829c-0.135,0.498-0.297,0.843-0.485,1.031l0.203,0.465c-1.875,1.645-3.176,2.703-3.902,3.175
		l-0.93,0.606c0.31,0.484,0.248,0.868-0.184,1.151c-0.417,0.271-0.788,0.147-1.111-0.364c-0.095,0.068-0.235,0.209-0.425,0.426
		c-0.161,0.229-0.304,0.385-0.425,0.465c-0.081,0.041-0.27,0.054-0.566,0.041c-0.31-0.027-0.531,0.007-0.666,0.101l-0.062,0.081
		c-0.067,0.055-0.224,0.066-0.465,0.04c-0.229-0.04-0.397-0.026-0.507,0.041l-0.061,0.162c-0.066,0.039-0.113,0.032-0.142-0.021
		c0.026,0.055,0.021,0.094-0.021,0.12c-0.162,0.108-0.52-0.094-1.072-0.606c-0.605-0.524-1.084-0.666-1.436-0.424
		c-0.04-0.082-0.061-0.242-0.061-0.485c-0.041-0.188-0.094-0.337-0.161-0.444c-0.081-0.121-0.183-0.142-0.304-0.061
		c-0.229,0.148-0.276,0.6-0.143,1.354c0.148,0.756,0.021,1.295-0.384,1.617l-0.224,0.102c-0.066-0.095-0.026-0.451,0.121-1.071
		c0.135-0.606,0.135-1.011,0-1.214c-0.039-0.053-0.356-0.088-0.949-0.101c-0.606-0.014-1.078-0.256-1.416-0.729
		c0.027,0.217,0.027,0.419,0,0.606l0.324,0.283c0.026,0.026-0.108,0.216-0.404,0.565c-0.324,0.067-0.553,0.143-0.688,0.224
		l-0.282,0.667c0.039,0.081,0.311,0.107,0.809,0.081c0.553,0,0.931,0.067,1.133,0.202l0.605,0.404l0.082-0.082l0.101,0.021
		l0.081,0.242c0.498,0.404,0.829,0.734,0.99,0.99c0.473,0.716,0.565,1.504,0.283,2.365l0.142,0.121l-0.121,0.081l-0.021,0.062
		l0.061,0.021l-0.323,1.254l-0.04-0.04c-0.081,0.311-0.236,0.538-0.465,0.688l-0.243,0.142l0.101,0.062
		c-0.256,0.445-0.692,0.869-1.313,1.273l-0.081-0.021l-0.12,0.143c-0.055-0.081-0.21-0.033-0.466,0.143
		c-0.282,0.174-0.444,0.234-0.485,0.182c-0.135,0.175-0.363,0.404-0.688,0.688c-0.014-0.026-0.385,0.055-1.111,0.243l-0.324,0.161
		l-0.627,0.485h-0.101l-0.526,0.647l-0.465,0.303c-0.135,0.08-0.229,0.27-0.283,0.565l-0.101,0.444
		c0.067,0.095,0.249,0.201,0.545,0.324c0.081,0.121,0.129,0.472,0.144,1.051c0,0.107-0.074,0.304-0.224,0.586
		c-0.459,0.311-0.774,0.466-0.95,0.466c-0.188,0-0.506-0.122-0.949-0.364l0.02-0.121l-0.384-0.242c0.054-0.041,0.054-0.102,0-0.183
		c0.026-0.014,0.032-0.223,0.021-0.627c0.026-0.418,0.176-0.708,0.444-0.868c0.202-0.136,0.579-0.188,1.133-0.162
		c0.282-1.064,0.378-1.672,0.282-1.819c-0.27-0.271-0.652-0.445-1.152-0.525c-0.484-0.026-0.781-0.088-0.889-0.183l-0.021,0.08
		l-0.768-0.262c-0.066-0.095-0.162-0.162-0.283-0.203c-0.135-0.026-0.229-0.08-0.283-0.162c-0.242-0.377-0.336-0.721-0.283-1.029
		c0.041-0.162,0.115-0.393,0.224-0.688c0.015-0.014,0.155-0.432,0.425-1.254l0.081-0.061c-0.067,0.013-0.114,0-0.142-0.041
		l0.08-0.404l-0.264,0.223c-0.106-0.053-0.168-0.066-0.182-0.039c0.055,0.08,0.047,0.134-0.021,0.16
		c-0.121,0.082-0.242,0.027-0.362-0.16c-0.121-0.176,0.27-0.682,1.172-1.518c0.136-0.107,0.235-0.102,0.304,0.02l0.041,0.203
		c0.08-0.135,0.102-0.275,0.061-0.424c-0.338,0.039-0.58,0.012-0.729-0.082c-0.121,0.108-0.216,0.114-0.283,0.021l0.041-0.385
		c-0.106-0.162-0.283-0.297-0.525-0.404c-0.256-0.066-0.411-0.143-0.465-0.223c-0.283-0.418-0.323-0.693-0.121-0.829
		c0.107-0.066,0.223-0.013,0.344,0.161l0.322,0.606c0.352,0.539,0.803,0.634,1.355,0.283c0.094-0.067,0.161-0.215,0.202-0.445
		c0.04-0.269,0.142-0.45,0.304-0.545c0.727,0.296,1.65,0.074,2.77-0.668c-0.094-0.065-0.311-0.065-0.646,0
		c-0.322,0.056-0.566,0.129-0.728,0.224c-0.243,0.162-0.466,0.147-0.668-0.041c-0.229-0.256-0.397-0.385-0.505-0.385
		c-0.271-0.08-0.647-0.087-1.133-0.02c-0.256,0.054-0.561-0.189-0.91-0.729c-0.041-0.055-0.289-0.142-0.748-0.264l-0.242-0.404
		c-0.094-0.351-0.182-0.627-0.264-0.828c-0.094-0.147-0.275-0.25-0.545-0.304c-0.256-0.041-0.426-0.128-0.506-0.263
		c-0.08-0.122-0.048-0.331,0.102-0.627c0.135-0.297,0.154-0.514,0.061-0.647c-0.081-0.12-0.195-0.202-0.344-0.241
		c-0.148-0.096-0.249-0.184-0.305-0.264c-0.106-0.176-0.06-0.33,0.144-0.466c0.147-0.095,0.269-0.121,0.363-0.08
		c0.081-0.056,0.142-0.183,0.182-0.386c0.027-0.174,0.041-0.303,0.041-0.383v-0.082c-0.121-0.039-0.202-0.101-0.241-0.183
		c-0.203-0.296-0.209-0.505-0.021-0.626l0.363-0.201c0.188-0.121,0.194-0.33,0.021-0.628c-0.147-0.337-0.194-0.519-0.142-0.546
		c0.176-0.121,0.371-0.095,0.586,0.081c0.203,0.175,0.371,0.215,0.506,0.121c0.283-0.175,0.363-0.56,0.242-1.151
		c0.041-0.027,0.162-0.027,0.363,0c0.202,0.014,0.338-0.008,0.404-0.062c0.311-0.202,0.398-0.492,0.264-0.869
		c-0.162-0.418-0.209-0.66-0.142-0.729c0.147,0.121,0.242,0.217,0.282,0.283l0.283,0.525c0.176,0.271,0.418,0.304,0.729,0.102
		l0.404-0.404l0.424-0.102l-0.202-0.484c-0.04-0.067-0.175-0.021-0.403,0.142c-0.229,0.147-0.385,0.155-0.465,0.021
		c0.229-0.147,0.606-0.344,1.133-0.586c0.174-0.121,0.242-0.223,0.201-0.304l-0.201-0.162c-0.121-0.377-0.224-0.633-0.305-0.768
		l-0.344-0.224c-0.014-0.026,0.122-0.646,0.404-1.859c0.283-1.213,0.311-1.995,0.08-2.346c-0.066-0.094-0.209-0.168-0.424-0.223
		l0.161,0.021c-0.188-0.283-0.411-0.438-0.667-0.467c-0.418,0.338-1.166,0.863-2.244,1.578c-0.916,0.633-1.576,1.14-1.98,1.517
		c-0.096-0.162,0.377-0.613,1.415-1.354c0.565-0.457,1.382-1.045,2.446-1.759c-0.554,0.095-0.91,0.136-1.071,0.121
		c-0.485,0.106-0.917,0.007-1.294-0.304c-0.379-0.459-0.682-0.795-0.91-1.012c-0.055-0.095-0.242-0.229-0.566-0.403
		c-0.337-0.121-0.6-0.323-0.787-0.606c-0.055-0.08-0.067-0.201-0.041-0.363l-0.565-0.688c-0.229-0.351-0.224-0.916,0.021-1.698
		c0.188-0.714,0.289-1.173,0.303-1.375c-0.121-0.175-0.066-0.431,0.162-0.768c0.256-0.379,0.33-0.676,0.223-0.891
		c-0.107-0.188-0.235-0.324-0.385-0.404h-0.101l-0.323-0.282c-0.352-0.539-0.451-1.247-0.304-2.123l0.242-1.335l-0.101-0.143
		l-0.082,0.062c-0.271,0.312-0.498,0.526-0.688,0.647l-0.646,0.403c0.026,0.202-0.121,0.595-0.444,1.173
		c-0.297,0.553-0.499,0.862-0.606,0.93c-0.351-0.066-0.613-0.106-0.789-0.12c-0.363-0.067-0.634-0.04-0.809,0.081
		c-0.27,0.283-0.505,0.525-0.708,0.728c0.056,0.121,0.115,0.312,0.183,0.566c0.067,0.297,0.135,0.499,0.202,0.606
		c0.08,0.12,0.283,0.297,0.606,0.524c0.337,0.256,0.566,0.506,0.688,0.748l-0.223,0.565c-0.352,0.217-0.635,0.33-0.85,0.344
		c0.121,0.217-0.114,0.547-0.707,0.992c-0.217,0.133-0.553,0.153-1.012,0.061c-0.445-0.055-0.688-0.074-0.729-0.061l-0.768,0.443
		h-0.162l-0.224,0.121c-0.297,0.202-0.479,0.236-0.546,0.102c-0.107-0.215,0.007-0.472,0.344-0.769
		c-0.08-0.271-0.142-0.425-0.182-0.465c-0.066,0.04-0.121,0.021-0.162-0.062c0.027-0.107,0.021-0.209-0.02-0.304l-0.305,0.04
		c-0.08-0.377-0.135-0.842-0.162-1.395c-0.013-1.133,0.202-1.826,0.647-2.082c0.04-0.027,0.073-0.049,0.101-0.063l-0.101-0.222
		c-0.188-0.283-0.472-0.337-0.851-0.162c-0.35,0.147-0.565,0.162-0.646,0.04c0.026-0.161,0.021-0.275-0.021-0.344
		c-0.067-0.107-0.148-0.194-0.242-0.264c0.094,0.148,0.087,0.283-0.021,0.404c-0.041,0.055-0.148,0.128-0.322,0.223
		c0.066,0.176,0.127,0.338,0.182,0.485c0,0.175-0.061,0.356-0.182,0.546c-0.123,0.148-0.236,0.223-0.345,0.223
		c-0.095,0-0.147-0.014-0.161-0.041c-0.027,0-0.041-0.054-0.041-0.16l-0.324-0.851c-0.039-0.026-0.08-0.047-0.121-0.061
		c-0.147-0.108-0.33-0.345-0.545-0.707c0.106-0.068,0.154-0.162,0.142-0.283c0-0.067,0.021-0.135,0.062-0.202l-0.041-0.102
		c-0.363-0.081-0.789-0.148-1.273-0.202c-0.055,0.04-0.264,0.31-0.626,0.81l-0.162-0.041c-0.026-0.121,0.015-0.289,0.121-0.506
		c0.108-0.175,0.095-0.363-0.04-0.566l-0.385-0.524l0.041,0.062c-0.067,0.041-0.264-0.121-0.588-0.485
		c-0.391-0.363-0.728-0.761-1.01-1.192l-0.082,0.061c-0.418-0.471-0.754-0.627-1.011-0.465l-0.142,0.143
		c-0.041,0.025-0.209-0.081-0.506-0.323c0.041-0.229,0.014-0.466-0.08-0.708l-0.184,0.04l0.162,0.041
		c-0.162,0.095-0.256,0.209-0.283,0.345c-0.039,0.147-0.355,0.391-0.95,0.728c-0.107-0.162,0.007-0.351,0.344-0.566l0.85-0.706
		c-0.027-0.068-0.066-0.137-0.122-0.203l-0.282,0.223c-0.095,0.066-0.188,0.027-0.283-0.121l0.971-0.485
		c0.202-0.135,0.404-0.647,0.607-1.536l0.021,0.041c0.026-0.015,0.087-0.183,0.183-0.507c0.014-0.106,0.026-0.194,0.039-0.263
		c-0.135,0.311-0.248,0.466-0.344,0.466c0-0.485,0.107-1.2,0.324-2.144c-0.096-0.067-0.184-0.143-0.264-0.224
		c-0.77-0.634-1.152-1.206-1.152-1.719c0-0.081,0.041-0.161,0.122-0.242c0.079-0.081,0.168-0.121,0.262-0.121
		c0.297,0,0.601,0.04,0.91,0.121c-0.095-0.243-0.067-0.553,0.081-0.931c0.148-0.458,0.195-0.729,0.143-0.809
		c-0.229-0.352-0.621-0.58-1.174-0.688c-0.593-0.175-0.937-0.304-1.031-0.384l0.061-0.103l0.344-0.02l0.041,0.142
		c0.161-0.027,0.377,0.008,0.646,0.102c-0.094-0.202-0.094-0.323,0-0.364c0.177-0.134,0.352-0.04,0.526,0.282
		c0.066,0.096,0.066,0.197,0,0.305l0.525,0.322c0.106,0.068,0.209,0.121,0.303,0.162c-0.026-0.147-0.067-0.303-0.121-0.465
		c-0.081-0.256-0.142-0.479-0.182-0.668c-0.067,0.096-0.142,0.189-0.224,0.283c-0.08-0.16-0.039-0.451,0.121-0.869
		c0-0.121,0.021-0.248,0.063-0.384c-0.081-0.055-0.148-0.122-0.202-0.202c-0.188-0.283-0.115-0.533,0.222-0.748
		c0.067,0.04,0.135,0.073,0.202,0.102c0-0.055,0-0.088,0-0.102c0-0.216-0.021-0.432-0.062-0.646
		c-0.08-0.067-0.168-0.102-0.262-0.102c-0.203-0.121-0.338-0.229-0.404-0.324l0.061-0.303c0.121-0.08,0.249-0.107,0.385-0.08
		c-0.257-0.729-0.707-1.496-1.354-2.307l-1.294,0.525c-0.323-0.351-0.56-0.586-0.707-0.707c-0.283-0.229-0.594-0.344-0.931-0.344
		c-0.135,0-1.052,0.188-2.75,0.565c-0.175,1.024-0.263,1.867-0.263,2.526c0,0.742,0.067,1.309,0.202,1.699
		c0,0.377-0.182,0.565-0.546,0.565c-0.161,0-0.27-0.103-0.323-0.304c-0.202-0.055-0.33-0.121-0.384-0.202
		c-0.055-0.067-0.027-0.161,0.08-0.283c0.014,0.026,0.095,0.056,0.243,0.081c0-0.025,0-0.047,0-0.061l0.061-0.83
		c-0.688-0.146-1.052-0.282-1.092-0.403c-0.027-0.106-0.021-0.202,0.021-0.283c0.175-0.08,0.391-0.175,0.646-0.282
		c0.202-0.014,0.364,0.026,0.485,0.121l0.162-2.184l-0.546,0.061c-0.553,0-1.152-0.162-1.8-0.484
		c-0.997,0.322-1.793,0.613-2.386,0.869c-0.256,0.107-0.472,0.201-0.647,0.283c-0.134,0.066-0.242,0.12-0.323,0.161
		c-1.496,0.862-2.521,2.048-3.073,3.558c-0.296-0.229-0.923-0.612-1.88-1.151l-1.314-0.728c-0.256,0-0.876,0.154-1.86,0.465
		c-0.957,0.297-1.712,0.445-2.265,0.445c-0.107-0.055-0.256-0.177-0.444-0.365c-0.107,0.338-0.357,0.507-0.748,0.507
		c-0.323,0-0.579-0.095-0.769-0.283c-0.04-0.054-0.074-0.088-0.101-0.103c-0.014-0.025-0.021-0.047-0.021-0.061
		c-0.107-0.175-0.162-0.37-0.162-0.586s0.074-0.418,0.223-0.605c0.148-0.217,0.344-0.352,0.586-0.404
		c-0.821-1.86-1.455-3.208-1.9-4.045c-0.781-1.428-1.61-2.144-2.486-2.144c0-0.337,0.154-0.571,0.465-0.706
		c0.31-0.109,0.465-0.244,0.465-0.404c0-0.176-0.101-0.467-0.303-0.871c-0.189-0.403-0.283-0.747-0.283-1.03
		c0-0.229,0.067-0.601,0.202-1.11c0.081-0.338,0.142-0.628,0.182-0.871c0-0.106,0-0.194,0-0.263c0-0.565-0.316-1.125-0.95-1.678
		c-0.202-0.177-0.404-0.337-0.606-0.485c-1.119-0.755-1.719-1.867-1.8-3.336c-0.363-0.404-0.728-0.701-1.092-0.89l-0.344,0.344
		l-1.294,2.729c1.092,0.593,1.948,1.528,2.568,2.811c0.337,0.7,0.579,1.469,0.728,2.305c0,0.067,0.014,0.143,0.041,0.223
		c0.08,0.553,0.121,1.133,0.121,1.738c0,0.271-0.148,0.5-0.445,0.688c-0.27,0.175-0.56,0.263-0.869,0.263
		c-0.081,0-0.182-0.02-0.304-0.061c-0.094-0.041-0.182-0.081-0.263-0.121c-0.256-0.135-0.451-0.202-0.586-0.202
		c-0.122,0-0.438,0.403-0.95,1.213c-0.58,0.917-0.943,1.449-1.093,1.597c0.027,0.055,0.062,0.103,0.102,0.144
		c0.297,0.403,0.998,0.989,2.103,1.759c1.024,0.7,1.537,1.327,1.537,1.88c0,0.177-0.081,0.392-0.243,0.647
		c-0.054,0.08-0.107,0.148-0.161,0.201c0.026,0.377-0.122,0.601-0.445,0.668c-0.148-0.108-0.296-0.143-0.444-0.102
		c-0.027-0.107-0.041-0.21-0.041-0.304c-0.363-0.081-0.714-0.345-1.051-0.788c-0.404-0.514-0.606-1.059-0.606-1.639
		c-0.984-0.741-1.639-1.349-1.962-1.819c-0.135-0.175-0.222-0.345-0.263-0.505c0-0.041,0-0.088,0-0.143
		c-0.014-0.054-0.021-0.115-0.021-0.183c-0.512,0.257-0.768,0.513-0.768,0.769c0,0.041,0.094,0.148,0.283,0.323
		c0.188,0.148,0.282,0.283,0.282,0.404c0,0.323-0.337,0.681-1.011,1.071c-0.714,0.377-1.071,0.715-1.071,1.012
		c0,0.729,0.29,1.287,0.869,1.678c0.553,0.352,0.829,0.796,0.829,1.335c0,0.216-0.081,0.433-0.242,0.646
		c-0.202,0.203-0.432,0.305-0.688,0.305c-1.024-0.256-1.537-0.641-1.537-1.152c0-0.188,0.034-0.418,0.102-0.688
		c0.067-0.297,0.101-0.499,0.101-0.605c0-0.136-0.014-0.265-0.04-0.386c-0.081-0.392-0.29-0.769-0.627-1.132
		c-0.458-0.514-1.146-1.012-2.063-1.496c-1.657-0.876-3.127-1.314-4.407-1.314c-0.135,0-0.297,0.033-0.485,0.102
		c-0.188,0.055-0.351,0.082-0.485,0.082c-1.173,0-2.089-0.723-2.75-2.164c-0.498-1.146-0.762-2.434-0.788-3.861
		c-0.674,0.311-1.415,0.264-2.225-0.142c-0.714-0.513-1.104-0.755-1.172-0.728c-0.027-0.177-0.061-0.283-0.102-0.324
		c-0.188-0.271-0.323-0.498-0.404-0.688c-0.095-0.04-0.168-0.081-0.223-0.121c-0.161-0.081-0.242-0.168-0.242-0.263
		c0-0.998-0.095-1.881-0.283-2.648c-0.027,0-0.047,0-0.061,0c-0.27,0-0.513-0.162-0.729-0.484c-0.147-0.418-0.263-0.709-0.343-0.87
		c-0.148-0.271-0.492-0.565-1.031-0.89c0.323,0.014,0.681,0.033,1.071,0.061c-0.404-0.484-0.89-0.869-1.456-1.15
		c-0.566-0.271-1.206-0.445-1.921-0.527c-0.147,0-0.296-0.006-0.444-0.021c-0.014,0.188-0.021,0.364-0.021,0.526
		c0,0.027,0,0.061,0,0.101c-0.553-0.067-1.038,0.021-1.455,0.263c-0.148,0.082-0.29,0.271-0.425,0.566
		c-0.122,0.27-0.257,0.451-0.404,0.546c-0.176,0.081-0.364,0.081-0.566,0c-0.176-0.095-0.283-0.188-0.323-0.282
		c-0.148-0.283-0.148-0.688,0-1.213c0.067-0.257,0.107-0.473,0.121-0.647c-0.634-0.08-1.031-0.282-1.193-0.605
		c-0.067-0.026-0.128-0.048-0.182-0.062c-0.121-0.04-0.27-0.04-0.445,0c0.041,0.066,0.062,0.154,0.062,0.263
		c0,0.404-0.357,0.782-1.072,1.133c-0.674,0.351-1.341,0.525-2.001,0.525c-0.216,0-0.411-0.054-0.587-0.161
		c-0.161-0.137-0.242-0.297-0.242-0.484c0-0.324,0.357-0.676,1.071-1.053c0.242-0.121,0.479-0.229,0.708-0.322
		c0.026-0.096,0.061-0.189,0.101-0.283c0.148-0.418,0.135-0.789-0.04-1.112c-0.188-0.337-0.499-0.524-0.931-0.565
		c-0.498-0.068-0.869-0.209-1.111-0.425c0.094-0.055,0.114-0.129,0.061-0.223c-0.121-0.121-0.195-0.202-0.223-0.243
		c-0.014-0.053,0.021-0.249,0.102-0.586c0.067-0.337,0.061-0.566-0.021-0.688c-0.216-0.433-1.005-0.855-2.365-1.273
		c0.27,0.525,0.061,0.97-0.627,1.334c-0.095,0.066-0.202,0.102-0.323,0.102c0.08,0.202,0.061,0.323-0.062,0.364
		c-0.175,0.095-0.316,0.128-0.424,0.101c-0.122-0.311-0.088-0.519,0.101-0.627c-0.135-0.066-0.297-0.248-0.485-0.545
		c0.067-0.027,0.195-0.136,0.385-0.324c0.216-0.215,0.31-0.351,0.282-0.403l0.425-0.224c-0.89-0.282-1.382-0.498-1.476-0.646
		c-0.108-0.067-0.316-0.015-0.627,0.161c-0.256,0.148-0.418,0.169-0.485,0.061c-0.107,0.041-0.256,0.148-0.444,0.324
		c0.08,0.363,0.121,0.694,0.121,0.99c0,0.148,0.074,0.283,0.223,0.404c0.067-0.015,0.209-0.047,0.424-0.103
		c0.229-0.04,0.357-0.04,0.385,0c-0.189,0.095-0.371,0.196-0.546,0.304h0.04c0.188,0.082,0.452,0.183,0.789,0.303
		c-0.85,0-1.935,0.527-3.256,1.578c0.067,0.121,0.102,0.311,0.102,0.566c0,1.023-0.357,1.536-1.072,1.536
		c-0.242,0-0.491-0.034-0.748-0.103c-0.054,0.123-0.08,0.25-0.08,0.386c0,0.524,0.074,1.246,0.222,2.163
		c0.122,0.849,0.236,1.367,0.344,1.557c0,0.635-0.114,1.146-0.344,1.537c-0.215,0.35-0.472,0.525-0.768,0.525
		c-0.553,0-1.2-0.103-1.941-0.303c-0.836-0.283-1.442-0.486-1.819-0.607c-0.324,0.201-0.762,0.855-1.314,1.961l2.588,0.708
		l0.283,0.223c0.216,0,0.344,0.062,0.384,0.183c0.041,0.107,0.021,0.209-0.061,0.304c0.176,0.485,0.081,0.821-0.283,1.011
		c-0.107,0.066-0.842-0.188-2.204-0.77c-0.512-0.215-0.923-0.396-1.232-0.545c-0.055,0.107-0.102,0.209-0.142,0.304
		c-0.054,0.12-0.115,0.249-0.183,0.384c0.378-0.094,0.729-0.054,1.052,0.121c0.297,0.107,0.499,0.275,0.606,0.506
		c0.364,0.674,0.385,1.247,0.061,1.719l0.404,0.062c0.148,0.256,0.128,0.499-0.061,0.728c-0.014,0.135-0.067,0.223-0.162,0.264
		c-0.094,0.041-0.208,0.021-0.344-0.062c-0.107-0.067-0.182-0.141-0.222-0.222c-0.041-0.135-0.054-0.243-0.041-0.324l-0.404,0.283
		c-1.118,0.188-1.88-0.094-2.284-0.85c-0.054-0.066-0.014-0.336,0.121-0.81c-0.472,0.283-1.011,0.425-1.617,0.425
		c-0.257,0-0.506-0.02-0.748-0.061c0.026,0.041,0.04,0.08,0.04,0.121c0.014,0.229-0.101,0.41-0.344,0.546
		c-0.094,0.04-0.182-0.013-0.263-0.161c-0.081-0.217-0.114-0.418-0.102-0.605c0-0.041,0.014-0.074,0.041-0.103
		c-0.108-0.04-0.195-0.081-0.263-0.121c0.026,0.081,0.047,0.175,0.061,0.283c0.054,0.337-0.027,0.56-0.243,0.667
		c-0.242-0.256-0.404-0.458-0.484-0.606c-0.148-0.27-0.169-0.573-0.062-0.909c-0.107-0.136-0.216-0.264-0.323-0.385
		c-0.337-0.484-0.762-1.477-1.273-2.972c-0.459-1.402-0.937-2.399-1.436-2.993c-0.755-0.891-1.826-1.334-3.215-1.334
		c-0.297,0-0.701-0.088-1.213-0.264c-0.85,0.513-1.321,0.769-1.416,0.769c-0.148-0.08-0.256-0.121-0.323-0.121
		c-0.04,0-0.081,0.062-0.121,0.183c-0.095,0.107-0.276,0.162-0.546,0.162c-0.513,0-1.207-0.183-2.083-0.547
		c-0.89-0.377-1.59-0.565-2.103-0.565c-0.89,0.147-1.543,0.223-1.961,0.223c-0.701,0-1.159-0.815-1.375-2.446
		c-0.188-1.658-0.613-2.486-1.273-2.486c-0.108-0.418-0.755-0.95-1.941-1.598c-1.064-0.565-1.597-1.423-1.597-2.567
		c0-0.404,0.196-1.064,0.586-1.98c0.351-0.918,0.525-1.577,0.525-1.981c0-0.822-0.101-1.569-0.303-2.244
		c-0.283-0.916-0.688-1.375-1.213-1.375c0.188-0.404,0.465-0.768,0.829-1.092c0.27-0.202,0.681-0.465,1.233-0.789v-1.881
		c0-0.039,0.465-0.127,1.396-0.262c1.024-0.148,1.59-0.242,1.698-0.283c0.714-0.121,1.213-0.498,1.496-1.133
		c0.176-0.404,0.31-1.119,0.404-2.144c-0.646-0.296-1.206-0.688-1.678-1.173c-0.513-0.539-0.769-1.037-0.769-1.495
		c0-2.644,0.755-3.964,2.265-3.964c0.067,0,0.216,0.048,0.444,0.142c0.256,0.054,0.458,0.081,0.606,0.081
		c0.27,0,0.438-0.102,0.506-0.303c0.067-0.217,0.236-0.323,0.506-0.323l0.161,0.161c0.297-0.85,1.213-1.273,2.75-1.273
		c0.081,0,0.195,0.041,0.344,0.121c0.04,0,0.095-0.041,0.162-0.121c0.04-0.095,0.061-0.168,0.061-0.223v-0.102
		c0.121-0.067,0.458-0.107,1.011-0.121c0.512-0.026,0.835-0.096,0.971-0.202l0.222-0.121c0.594,0,1.496,0.263,2.71,0.789
		c1.482,0.688,2.446,1.455,2.891,2.305c0,0.216-0.04,0.472-0.121,0.769c0,0.188,0.188,0.586,0.566,1.192
		c0.363,0.606,0.546,1.085,0.546,1.437c0,0.445-0.142,0.916-0.425,1.414c-0.162,0.297-0.425,0.748-0.788,1.354
		c0.188,0.324,0.391,0.742,0.606,1.254c0.081-0.04,0.175-0.073,0.283-0.102c-0.027-0.04-0.048-0.08-0.062-0.121
		c-0.256-0.688-0.128-1.166,0.385-1.437c0.337-0.175,0.546-0.377,0.627-0.605c0.175-0.377,0.323-0.653,0.444-0.829
		c0.027,0.041,0.729-0.033,2.103-0.224c1.47-0.025,2.44,0.398,2.912,1.274l0.081,0.161c0.215-0.484,0.41-0.729,0.586-0.729
		c0.054,0.121,0.202,0.345,0.444,0.668c0.202,0.311,0.304,0.586,0.304,0.828c0,0.256-0.121,0.485-0.364,0.688
		c-0.107,0.095-0.195,0.188-0.263,0.283c0,0.175-0.02,0.37-0.061,0.586c0.041,0.067,0.095,0.122,0.162,0.161
		c0.107,0.082,0.222,0.121,0.344,0.121c0.418,0,0.862-0.274,1.334-0.828c0.472-0.553,0.964-0.828,1.476-0.828
		c0.755,0,1.133,0.613,1.133,1.84c-0.256,1.793-0.385,2.984-0.385,3.578c0,1.375,0.25,2.063,0.749,2.063
		c0.054,0,0.147-0.033,0.283-0.101l0.343-0.627c0.297-0.147,0.485-0.147,0.566,0c-0.095,0.147-0.263,0.282-0.505,0.403l-0.243,0.143
		c-0.054,0.107-0.081,0.234-0.081,0.385l0.081,0.08c0.054,0.067,0.155,0.102,0.304,0.102c0.107,0,0.417-0.129,0.93-0.385
		l2.446-1.151c0.176,0,0.283,0.014,0.323,0.04c0.027,0.027,0.041,0.08,0.041,0.162c0,0.295-0.344,0.56-1.031,0.787
		c-0.674,0.217-1.011,0.514-1.011,0.891c0,0.62,0.337,0.971,1.011,1.052c0.688,0.108,1.031,0.324,1.031,0.647
		c0,0.039-0.108,0.128-0.324,0.263c-0.256,0.121-0.458,0.289-0.606,0.505c0.081,0,0.189,0.027,0.324,0.081
		c0.229-0.161,0.418-0.283,0.565-0.362c0.513-0.312,0.822-0.379,0.931-0.203c0.107,0.147,0.107,0.242,0,0.282
		c-0.148,0.095-0.317,0.236-0.506,0.425c-0.202,0.121-0.472,0.224-0.809,0.305c-0.04,0.025-0.081,0.061-0.121,0.101
		c-0.135,0.136-0.202,0.229-0.202,0.283c0,0.026,0,0.062,0,0.101c0.175-0.039,0.323-0.094,0.444-0.16
		c0.323-0.188,0.741-0.473,1.254-0.851c0.04,0.054,0.168,0.074,0.384,0.062c0.229-0.041,0.452-0.129,0.667-0.264
		c0.257-0.121,0.459-0.344,0.607-0.666c0.216-0.445,0.195-0.891-0.062-1.335l-0.546-1.011c-0.04-0.096-0.094-0.331-0.161-0.708
		c-0.041-0.403-0.155-0.774-0.344-1.112l-1.415,0.182c-0.607,0-1.233-0.061-1.881-0.182l-0.021,0.021
		c-0.107,0.095-0.222,0.054-0.344-0.121c-0.512-0.148-0.835-0.338-0.97-0.566c-0.054-0.135-0.021-0.229,0.101-0.283
		c0.121-0.066,0.142-0.168,0.061-0.304c0.432-0.202,1.099-0.249,2.002-0.141c0.242,0.013,0.465,0.032,0.667,0.06
		c-0.081-0.256-0.121-0.531-0.121-0.828c0-0.594,0.216-1.064,0.647-1.416c0.377-0.295,0.855-0.443,1.436-0.443
		c0.054,0,0.101,0,0.141,0c-0.04-0.162-0.087-0.33-0.141-0.506c0.08,0,0.161,0,0.242,0c2.211,0,3.633-1.092,4.267-3.275
		c0.687,0.674,1.253,1.335,1.698,1.98c0.014,0,0.033,0,0.061,0c0.404-0.31,0.855-0.498,1.354-0.565
		c0.216-0.106,0.465-0.229,0.748-0.362c1.308-0.635,2.399-0.951,3.275-0.951c0.27,0,0.627,0.121,1.071,0.363
		c0.135-0.296,0.263-0.572,0.385-0.828c0.026-0.216,0.04-0.432,0.04-0.646c0.095-0.026,0.195-0.061,0.304-0.102
		c0.62-1.293,0.957-1.94,1.011-1.94c0.229,0,0.606,0.106,1.132,0.323c0.081-0.08,0.169-0.168,0.263-0.264h0.021
		c-0.364-0.242-0.855-0.418-1.476-0.525c-0.943-0.176-1.416-0.659-1.416-1.455c0-0.297,0.492-0.775,1.477-1.437
		c0.983-0.674,1.476-1.624,1.476-2.851c0-0.715-0.29-1.268-0.869-1.658c-0.701-0.337-1.199-0.627-1.496-0.869
		c-0.796,0.352-1.193,1.004-1.193,1.961c0,0.379,0.128,0.896,0.385,1.559c0.229,0.66,0.344,1.146,0.344,1.455
		c0,0.256-0.533,0.916-1.598,1.98c-1.146,1.146-2.049,1.807-2.709,1.98c0,0.365-0.047,0.709-0.142,1.031
		c-0.054,0.312-0.135,0.465-0.243,0.465c-0.472-0.256-0.849-0.383-1.132-0.383c-0.876,0-1.975,0.322-3.296,0.971
		c-1.32,0.619-2.042,0.93-2.163,0.93c-0.458-0.646-1.024-1.309-1.698-1.98c-0.647,2.196-2.076,3.295-4.287,3.295
		c-0.094,0-0.182,0-0.263,0c-0.983-0.054-1.88-0.356-2.688-0.91c-0.769,0.242-1.193,0.438-1.273,0.586
		c-0.81,0-1.523-0.229-2.144-0.688c-0.121-0.08-0.236-0.168-0.344-0.263c-0.095,0.014-0.195,0.034-0.304,0.062
		c0-0.135,0.007-0.257,0.021-0.363c-0.283-0.312-0.506-0.674-0.667-1.092c-0.526-0.082-1.011-0.338-1.456-0.77
		c-0.472-0.418-0.708-0.842-0.708-1.273c0-0.81,0.236-1.449,0.708-1.92c0.404-0.404,1.052-0.701,1.941-0.891
		c0.107,0,0.377,0.08,0.809,0.242c0.026-0.014,0.061-0.026,0.101-0.04c0-0.067,0.014-0.114,0.041-0.142
		c0-0.027,0.128-0.115,0.384-0.264v0.182c0.472-0.188,1.011-0.281,1.618-0.281l0.282,0.039c0.283-0.457,0.647-0.85,1.092-1.172
		c-0.135-0.108-0.249-0.236-0.344-0.385c0.229,0,0.452,0.021,0.667,0.061c0.392-0.619,0.729-1.422,1.012-2.405
		c-0.108-0.108-0.162-0.356-0.162-0.748l0.323,0.04c-0.04-0.323-0.431-0.957-1.173-1.9l-0.707,0.344
		c0.027,0.121-0.027,0.236-0.162,0.345c-0.054,0.081-0.074,0.142-0.061,0.182c0.081,0,0.176,0,0.283,0
		c0.256,0.474,0.384,0.722,0.384,0.748c0,0.445-0.081,0.796-0.242,1.052c-0.175,0.229-0.391,0.344-0.647,0.344
		c-0.377,0-0.64-0.107-0.788-0.322c-0.04-0.041-0.135-0.283-0.283-0.729c0.202,0,0.317-0.242,0.344-0.729
		c-0.431,0.081-0.774,0.107-1.031,0.081c-0.714-0.041-1.253-0.392-1.617-1.052c-0.27,0.095-0.438,0.066-0.506-0.081
		c-0.444-0.81-0.485-1.657-0.121-2.548c0.418-0.74,0.593-1.166,0.525-1.272c0.553-0.216,1.059-0.353,1.517-0.405
		c-0.323-2.386-0.56-4.212-0.707-5.479c-0.297-2.493-0.445-4.656-0.445-6.49c0-1.307,0.021-2.257,0.061-2.852
		c-0.701-0.025-1.267-0.221-1.698-0.586c-0.418-0.377-0.627-0.89-0.627-1.537c0-1.063,0.627-1.664,1.881-1.799
		c-0.041-0.147-0.061-0.316-0.061-0.506c0.054-0.336,0.08-0.613,0.08-0.828c0.027,0,0.081-0.074,0.162-0.223
		c-0.014-0.027-0.021-0.048-0.021-0.063c-0.216-0.699-0.323-1.227-0.323-1.575c0-0.229,0.249-0.661,0.748-1.295
		c0.458-0.619,0.688-1.159,0.688-1.617l-0.182-0.222c0-0.162,0.094-0.371,0.282-0.628c0.095-0.147,0.216-0.31,0.364-0.484
		c0.404-0.499,0.606-0.883,0.606-1.152c0-0.081-0.033-0.176-0.101-0.283l-0.122-0.142c0-0.108,0.007-0.169,0.021-0.183
		c0.027-0.026,0.095-0.04,0.202-0.04c0-0.054-0.033-0.081-0.101-0.081c-0.081,0-0.122-0.033-0.122-0.101
		c0-0.445,0.971-0.95,2.912-1.517c1.94-0.566,2.911-1.389,2.911-2.467c0.27,0,0.654,0.142,1.152,0.425
		c0.485,0.283,0.87,0.425,1.153,0.425c0.121,0,0.249-0.054,0.384-0.162c0.148-0.108,0.223-0.256,0.223-0.445
		c0-0.755-0.917-1.502-2.75-2.244c-1.9-0.768-2.925-1.826-3.073-3.174c0-0.432,0.074-0.647,0.223-0.647
		c0.296,0,1.011,0.601,2.143,1.8c1.146,1.173,2.022,1.759,2.629,1.759c0.188,0,0.721-0.66,1.597-1.981
		c0.378-0.579,0.822-1.024,1.335-1.334c0.553-0.364,1.186-0.573,1.9-0.627c0.095-0.014,0.209-0.021,0.344-0.021v-0.101
		c-0.081-0.041-0.176-0.081-0.283-0.121c-0.175-0.108-0.357-0.236-0.546-0.385c-0.094-0.067-0.168-0.121-0.223-0.162
		c-0.107-0.066-0.195-0.101-0.263-0.101c-0.175,0-0.391,0.04-0.646,0.121c-0.257,0.067-0.411,0.102-0.465,0.102
		c-0.067,0-0.25-0.553-0.547-1.658c0-0.216,0.074-0.525,0.223-0.93c0.148-0.405,0.223-0.715,0.223-0.931
		c0-0.188-0.182-0.505-0.546-0.95l-0.566-0.606c-0.175,0.041-0.613,0.613-1.313,1.719c-0.755,1.173-1.423,1.887-2.002,2.144
		l-1.84,0.768l0.081,0.263c-0.095,0-0.155,0.007-0.183,0.021c-0.026,0.027-0.04,0.095-0.04,0.202l-0.606-0.223
		c-1.254,0.485-2.446,0.729-3.579,0.729c-1.388,0-2.723-0.458-4.003-1.375l-1.537-1.375c-0.067,0.067-0.216,0.102-0.444,0.102
		v-0.324c0-0.067-0.034-0.101-0.102-0.101c-0.121,0-0.182,0.021-0.182,0.062c-0.216-0.377-0.964-1.207-2.244-2.487h0.101
		l-0.424-0.707c-0.297-0.445-0.445-0.87-0.445-1.274v-0.769l-0.223,0.081c-0.04-0.081-0.08-0.175-0.121-0.283
		c-0.054-0.066-0.088-0.128-0.101-0.182c-0.027-0.067-0.048-0.135-0.062-0.202c-0.094-0.215-0.168-0.438-0.222-0.667
		c-0.257-0.943-0.385-2.042-0.385-3.296c0-0.027,0.007-0.04,0.021-0.04c0.04-0.04,0.107-0.062,0.202-0.062
		c-0.067-0.296-0.142-0.484-0.223-0.565c0.229-0.041,0.357-0.445,0.385-1.213c0.014-0.553,0.067-0.917,0.161-1.092
		c-0.862-0.85-1.638-1.274-2.324-1.274l-0.425,0.991c-0.108,0-0.162-0.33-0.162-0.991c-0.364,0.067-1.119,0.27-2.265,0.606
		c-0.943,0.297-1.738,0.466-2.386,0.506c-0.364-0.849-0.546-1.456-0.546-1.819c0-0.162,0.014-0.27,0.041-0.324
		c0.04-0.08,0.127-0.121,0.263-0.121c0-1.011-0.196-1.517-0.587-1.517v0.283c-0.04,0-0.188-0.242-0.444-0.728
		c-0.297-0.606-0.6-1.045-0.91-1.314c-0.579,0-0.93-0.094-1.052-0.283l-0.04-0.202l-0.101-0.02h-0.021
		c-0.243,0.188-0.485,0.397-0.729,0.626c-1.091,1.024-2.688,1.537-4.791,1.537v-0.162c-0.216-0.08-0.425-0.168-0.627-0.263
		c-0.432-0.188-0.647-0.418-0.647-0.688c0-0.391,0.108-0.714,0.324-0.971c0.256-0.31,0.714-0.633,1.374-0.97
		c0.081,0,0.162,0.04,0.243,0.121c0.067,0,0.162-0.061,0.283-0.183c0.026,0,0.054-0.013,0.081-0.04
		c-0.108-0.175-0.162-0.344-0.162-0.506c0-0.175,0.074-0.397,0.223-0.667c0.216-0.296,0.351-0.519,0.404-0.667
		c0.836,0.27,1.273,0.404,1.313,0.404c0,0.041,0.034,0.317,0.102,0.829c0.121-0.107,0.202-0.202,0.242-0.283
		c0.108-0.175,0.162-0.444,0.162-0.809c0-0.444-0.37-0.89-1.112-1.334c-0.768-0.445-1.152-0.796-1.152-1.052l-0.283,0.142
		c-0.363,0.862-0.822,1.462-1.374,1.8c-0.202,0.135-0.499,0.256-0.89,0.363v0.021c0,0.242-0.062,0.418-0.183,0.525
		c-0.148,0.081-0.223,0.182-0.223,0.304c-0.471-0.055-0.821-0.107-1.051-0.162c-0.175-0.04-0.317-0.102-0.425-0.182
		c-0.054,0.026-0.107,0.047-0.162,0.061c-0.122-0.378-0.202-0.613-0.243-0.708c-0.067-0.121-0.188-0.216-0.364-0.283l-0.142-0.081
		c-0.944-0.31-1.456-0.525-1.537-0.646c-0.526-0.89-0.714-1.772-0.566-2.648c0.256-0.715,0.357-1.119,0.304-1.213
		c-0.054-0.095-0.168-0.081-0.344,0.04c0.229-0.188,0.58-0.6,1.051-1.233c0.431-0.58,0.728-0.923,0.89-1.031
		c0.957-0.566,2.136-0.512,3.539,0.162c-0.58-0.66-1.314-0.991-2.204-0.991c-1.038,0-1.981,0.162-2.831,0.485
		c-0.62,0.216-1.031,0.438-1.233,0.668c-0.108-0.108-0.162-0.533-0.162-1.274c0-1.469,0.094-3.006,0.283-4.609
		c0.081-0.701,0.168-1.268,0.263-1.698c-1.051-0.108-1.577-0.203-1.577-0.283c-0.229,0.121-0.398,0.182-0.506,0.182
		c-0.054,0-0.114-0.027-0.182-0.081c-0.067-0.067-0.135-0.101-0.202-0.101c-0.27,0-0.499-0.088-0.688-0.264
		c-0.243-0.161-0.364-0.37-0.364-0.627c0.431-0.404,0.654-0.606,0.667-0.606c0.243-0.175,0.553-0.263,0.93-0.263
		c0.229,0.243,0.822,0.364,1.779,0.364h0.384c-0.067-0.297-0.101-0.546-0.101-0.748c0.31,0,0.465-0.465,0.465-1.396
		c0-0.336-0.027-0.667-0.081-0.99c-0.054-0.337-0.081-0.525-0.081-0.566c0-0.216,0.054-0.357,0.162-0.425
		c0.081-0.08,0.256-0.121,0.525-0.121l1.86,0.121c0.337,0,0.674-0.188,1.011-0.565c0.337-0.378,0.506-0.748,0.506-1.112
		c0-0.297-0.209-0.519-0.627-0.667c-0.432-0.148-0.647-0.297-0.647-0.445l0.061-0.121l-0.283,0.061v-0.263
		c-0.31-0.04-0.465-0.263-0.465-0.667c0-0.404,0.357-1.065,1.072-1.981c0.7-0.903,1.051-1.888,1.051-2.952
		c-0.296-0.216-0.553-0.6-0.768-1.152c-0.297-0.769-0.465-1.18-0.506-1.233c0.66,0,1.247-0.27,1.759-0.809
		c0.606-0.634,0.91-1.489,0.91-2.568c0-0.66-0.762-1.563-2.285-2.709c-1.766-1.335-2.878-2.493-3.336-3.478
		c0.256,0,1.031,0.492,2.325,1.476c0.742,0.553,1.914,1.456,3.519,2.71l0.08-0.041c0.311-0.229,1.012,0.27,2.104,1.496l0.404,0.122
		l0.182-0.021l0.971-1.779c-0.202-0.095-0.451-0.263-0.748-0.506c0,0.014,0.007,0.027,0.02,0.041
		c-0.363-0.055-0.869-0.432-1.516-1.133c-0.594-0.633-0.89-1.051-0.89-1.253c0.512,0,1.199,0.626,2.063,1.88
		c-0.055-0.094-0.081-0.148-0.081-0.161c-0.067-0.162-0.054-0.425,0.04-0.789c0.095,0.148,0.283,0.263,0.566,0.344
		c0.297,0.095,0.505,0.256,0.627,0.485l0.202,0.344l0.161-0.729c-0.216-0.188-0.451-0.397-0.707-0.626
		c-0.513-0.499-0.789-0.862-0.829-1.092c0-0.404,0.235-0.606,0.707-0.606c0.189,0,0.425,0.142,0.708,0.424
		c0.229,0.243,0.404,0.506,0.526,0.789c0.916-0.323,1.637-0.654,2.163-0.99c-0.148-0.148-0.243-0.277-0.283-0.385
		c-0.256-0.404-0.31-0.815-0.162-1.233c0.148-0.364,0.404-0.66,0.769-0.89c0.404-0.256,0.862-0.29,1.375-0.101
		c0.067-0.067,1.139-0.452,3.215-1.153c1.631-0.525,2.446-1.51,2.446-2.951c0-0.404-0.04-1.052-0.121-1.941
		c-0.108-0.89-0.162-1.55-0.162-1.981c0.404,0,0.863,0.775,1.375,2.325c0.485,1.523,0.971,2.285,1.456,2.285
		c1.24,0,2.325-0.452,3.255-1.355c0.701-0.7,1.112-1.375,1.233-2.021c0-0.377-0.041-0.843-0.121-1.395
		c-0.067-0.311-0.122-0.566-0.162-0.769h-0.021c-0.351-0.041-0.6-0.216-0.748-0.526h0.162c0-0.094,0.142-0.141,0.425-0.141
		c0.107-0.499,0.182-0.782,0.222-0.85c0.122-0.148,0.438-0.223,0.951-0.223c0,0.081-0.041,0.176-0.122,0.283
		c0,0.176,0.041,0.263,0.122,0.263h0.282c0-0.364-0.04-0.546-0.121-0.546c-0.107,0-0.161-0.195-0.161-0.586
		c0-0.27,0.04-0.404,0.121-0.404c0.067,0,0.235,0.297,0.505,0.89c0.243,0.525,0.405,0.93,0.485,1.213h-1.111
		c0.08,0.107,0.121,0.242,0.121,0.404c0,0.095-0.041,0.148-0.121,0.162c0,0.026,0,0.047,0,0.061c-0.041,0-0.074,0.013-0.102,0.04
		c0.539,1.47,1.011,2.372,1.415,2.709c0.122,0.122,0.668,0.351,1.638,0.688c0.257,0,0.601-0.135,1.031-0.404
		c0.404-0.27,0.809-0.404,1.214-0.404c0.013,0,0.963,0.351,2.851,1.052c1.914,0.688,3.403,1.031,4.468,1.031
		c0.257,0,1.065-1.045,2.427-3.134c1.348-2.13,1.94-3.195,1.779-3.195c0.107,0,0.161,0.425,0.161,1.274
		c-0.188,0.148-0.384,0.444-0.586,0.89c-0.188,0.431-0.283,0.795-0.283,1.092c0,0.081,0.054,0.154,0.162,0.223
		c0.081,0.054,0.121,0.154,0.121,0.303c0,1.024-0.276,1.645-0.829,1.86v1.819c0.243,0,0.722,0.324,1.436,0.971
		c0.728,0.66,1.227,0.99,1.496,0.99c0.391,0,0.943-0.444,1.658-1.334c0.728-0.89,1.301-1.334,1.719-1.334
		c0.579,0,0.869,0.33,0.869,0.99c0,0.378-0.236,0.957-0.708,1.738c-0.458,0.769-0.688,1.314-0.688,1.639
		c0,0.633,0.601,1.024,1.8,1.172c0.216-0.296,0.506-0.553,0.869-0.768c0.148-0.081,0.371-0.102,0.668-0.061
		c0.229-0.189,0.438-0.357,0.626-0.506c-0.013-0.04-0.033-0.081-0.061-0.121c0.027,0.014,0.074,0.04,0.142,0.081
		c0.229-0.189,0.425-0.337,0.587-0.445c0.256-0.148,0.505-0.229,0.748-0.242c0.498-0.81,0.909-1.375,1.232-1.698
		c0.526-0.526,1.079-0.789,1.658-0.789c0.674-0.701,1.321-1.368,1.941-2.002c0.674-0.701,1.166-1.341,1.476-1.921
		c0-0.08,0-0.168,0-0.263c0-0.121-0.087-0.222-0.263-0.303c-0.188-0.095-0.283-0.162-0.283-0.202c0-0.108,0.041-0.257,0.121-0.445
		c0.081-0.188,0.169-0.283,0.264-0.283c0.054,0,0.222,0.216,0.505,0.647c0.014-0.148,0.021-0.29,0.021-0.425
		c-0.081-0.297-0.121-0.485-0.121-0.566c0-0.472,0.142-0.707,0.424-0.707l-0.161-0.445c-0.108,0.027-0.216,0.061-0.323,0.102
		c0-0.148,0-0.276,0-0.384c-0.27-0.297-0.432-0.587-0.485-0.87c-0.418-0.337-0.722-0.586-0.91-0.748
		c-0.323-0.323-0.539-0.707-0.647-1.152c0.392,0.067,0.762,0.249,1.112,0.546c0.392,0.297,0.587,0.58,0.587,0.85
		c0.04,0,0.08-0.021,0.121-0.062c0.04-0.067,0.094-0.101,0.161-0.101c0.148,0,0.283,0.094,0.405,0.283
		c0.094-0.054,0.182-0.095,0.263-0.121l-5.54-14.962v-0.506c0.067,0,0.694,1.665,1.88,4.994c0.701,1.968,1.928,5.459,3.68,10.474
		l0.264-0.021c0.256,0,0.438,0.095,0.546,0.283c0.188-0.095,0.377-0.202,0.565-0.324c0.283-0.188,0.634-0.505,1.052-0.95
		l-0.061-0.384l0.323,0.121l0.121-0.121c1.024,0,1.988-0.33,2.892-0.991c0.472-0.323,0.923-0.653,1.354-0.99
		c-0.297-1.32-0.444-2.305-0.444-2.952c-0.095,0-0.513-0.7-1.254-2.103c-0.769-1.442-1.152-2.291-1.152-2.548
		c0.107-0.282,0.161-0.519,0.161-0.707c-0.296-0.176-0.505-0.438-0.626-0.789c-0.095-0.444-0.169-0.788-0.223-1.031
		c0.27,0,0.674,0.492,1.213,1.477c0.499,0.957,0.748,1.591,0.748,1.9c0,0.323,0.479,1.112,1.436,2.365
		c1.092,1.416,2.016,2.123,2.77,2.123c1.254,0,2.15-0.519,2.689-1.557c0.418-1.334,0.741-2.312,0.971-2.932
		c0.283,0.444,0.667,0.849,1.152,1.213v-0.061c0-0.175,0.054-0.323,0.162-0.444c0.121-0.148,0.283-0.223,0.485-0.223
		c0.161,0,0.31,0.128,0.444,0.384c0.108,0.216,0.162,0.458,0.162,0.729l-0.041,0.182l0.485,0.04c1.159,0,1.941-0.263,2.346-0.788
		c0.175-0.27,0.337-0.796,0.485-1.577c-0.661,0-1.213-0.297-1.658-0.89c-0.432-0.606-0.762-0.91-0.991-0.91
		c-0.107,0-0.242,0.061-0.404,0.183c-0.175,0.107-0.323,0.161-0.444,0.161c-0.242,0-0.397-0.087-0.465-0.263
		c-0.041-0.095-0.061-0.323-0.061-0.688c0.147,0,0.222-0.067,0.222-0.202l-0.02-0.121c0.067-0.081,0.27-0.492,0.606-1.233
		c0.418-0.701,0.883-1.052,1.396-1.052c0.256,0,0.39,0.155,0.404,0.466c0.054,0.323,0.182,0.484,0.384,0.484l0.081-0.161
		c0.458,0.107,0.762,0.195,0.909,0.263c0.297,0.095,0.52,0.249,0.668,0.465c-0.081-0.377-0.121-1.18-0.121-2.406
		c0.323,0.297,0.512,0.769,0.565,1.416c0,0.094,0,0.646,0,1.657c-0.081,0-0.142-0.026-0.182-0.08
		c0.081,0.377,0.121,0.754,0.121,1.132l0.223-0.061c0-0.041,0.404,0.674,1.213,2.143c0.957,1.483,1.819,2.225,2.588,2.225
		c2.562,0,4.469-1.698,5.722-5.096c-0.107-0.135-0.202-0.275-0.283-0.424c-0.121,0-0.283,0.026-0.485,0.081
		c-0.08-0.243-0.121-0.627-0.121-1.153c0.027,0,0.102-0.107,0.223-0.323c0.04-0.593,0.297-1.099,0.769-1.517
		c0.256-0.215,0.532-0.391,0.829-0.525c0.148-1.078,0.222-2.177,0.222-3.296c-0.08-0.472-0.121-0.849-0.121-1.132
		c0-0.553,0.276-0.978,0.829-1.273c0,1.132-0.182,1.698-0.546,1.698v2.669l-0.202,1.273c0.242-0.081,0.512-0.121,0.809-0.121
		c0.014,0,0.034,0,0.061,0c0.526,0.014,0.917,0.094,1.173,0.242c0.741,0.432,1.112,1.354,1.112,2.771
		c-0.311,0.606-0.566,1.058-0.769,1.354c-0.242,0.351-0.593,0.593-1.052,0.728c-0.054,0.067-0.128,0.142-0.222,0.223
		c-0.229,0.188-0.438,0.283-0.627,0.283c-0.148,0-0.33-0.061-0.546-0.183c-0.229-0.147-0.344-0.31-0.344-0.484l0.061-0.324
		c-0.148-0.121-0.263-0.202-0.344-0.242l-0.102,0.688c0,0.216,0.095,0.492,0.283,0.829c0.229,0.147,0.539,0.997,0.931,2.547
		c0.674,1.483,1.9,2.225,3.68,2.225c0.135,0,0.479-0.344,1.031-1.031c0.565-0.701,1.253-1.052,2.063-1.052
		c0.107,0.189,0.161,0.513,0.161,0.971l-0.061,0.586c0.216-0.391,0.546-0.586,0.991-0.586c0.525,0.728,0.788,1.187,0.788,1.375
		c0,0.444-0.31,0.755-0.93,0.93c0.606,0.014,1.132,0.371,1.576,1.072l0.122,0.809c0.027,0.014,0.235,0.054,0.627,0.121
		c0.431,0.067,0.781,0.229,1.051,0.485l4.408,0.971c0-0.229,0.114-0.378,0.344-0.445c0.135-0.014,0.35-0.054,0.646-0.121
		c-0.067,0.229-0.485,0.896-1.254,2.002c-0.674,0.997-1.011,1.745-1.011,2.244c0,0.755,0.708,1.166,2.123,1.233l0.546-0.183
		c0.378-0.606,0.694-1.004,0.95-1.192c0.364-0.297,0.843-0.445,1.436-0.445c0.472,0,0.708,0.236,0.708,0.708
		c0,0.27-0.182,0.566-0.546,0.89c0.283,0.188,0.667,0.506,1.152,0.95c0.458,0.432,0.721,0.701,0.789,0.809
		c0.875,0.458,1.979,0.978,3.315,1.557c1.063,0.553,1.946,1.261,2.647,2.123c0.108,0.176,0.168,0.397,0.183,0.667
		c0.404-0.337,0.734-0.505,0.99-0.505c0.107,0,0.195,0.04,0.264,0.121c0.08,0.095,0.121,0.183,0.121,0.263
		c0,0.337-0.129,0.56-0.385,0.668c-0.297,0.107-0.465,0.235-0.506,0.384c-0.256-0.067-0.418-0.162-0.484-0.283
		c-0.015-0.027-0.021-0.061-0.021-0.101c-0.027,0.296-0.095,0.64-0.202,1.03c-0.256,1.012-0.531,1.604-0.829,1.779
		c-0.378,0.122-0.653,0.236-0.829,0.344c-0.457,0.404-0.775,0.661-0.949,0.769c-0.404,0.256-1.193,0.223-2.366-0.102
		c-1.078-0.296-1.699-0.559-1.86-0.788l-0.243-0.646l-0.728,3.053l0.323,0.323c0.067,0,0.324,0.351,0.769,1.052
		c0.553,0.094,0.829,0.276,0.829,0.546c0.377-0.188,0.653-0.283,0.829-0.283c0,0.107,0.303,0.202,0.91,0.283
		c0.594,0.107,0.89,0.492,0.89,1.152c0,0.054-0.722,0.316-2.163,0.788c1.43-0.377,2.291-0.31,2.588,0.202
		c0.107,0.162,0.122,0.264,0.041,0.304c0.04,0.095,0.176,0.242,0.404,0.444c0.256,0.202,0.404,0.344,0.443,0.425
		c0.041,0.067,0.074,0.128,0.103,0.182c0.147-0.147,0.315-0.282,0.505-0.404c0.364-0.242,0.587-0.498,0.668-0.768
		c0-0.122,0.014-0.236,0.04-0.344c0.04-0.257,0.114-0.385,0.222-0.385c0.055,0,0.229,0.041,0.526,0.122
		c0.026,0,0.062,0.014,0.103,0.04c-0.162-0.148-0.332-0.323-0.506-0.525l-0.77-1.133c0.107-0.148,0.162-0.276,0.162-0.384
		c-0.107,0-0.162-0.169-0.162-0.506c0-0.296,0.066-0.566,0.201-0.809c0.229-0.404,0.404-0.775,0.525-1.111l0.041,0.04
		c0.081-0.176,0.377-0.371,0.891-0.587c0.619-0.256,1.26-0.384,1.92-0.384c0.162,0,0.316,0.027,0.466,0.081
		c0.188-0.499,0.356-0.769,0.505-0.809l0.041,0.202c0.148-0.135,0.296-0.257,0.445-0.364c-0.229-0.27-0.346-0.499-0.346-0.688
		s0.041-0.438,0.123-0.748c0.079-0.297,0.12-0.472,0.12-0.525c0.136,0.27,0.37,0.498,0.708,0.688
		c0.188,0.135,0.391,0.223,0.606,0.263c1.063-0.876,1.638-1.321,1.719-1.335h0.04c0-0.04,0-0.074,0-0.101
		c0.04-1.024,0.27-1.537,0.688-1.537c0.041,0,0.235,0.176,0.586,0.526c0.338,0.337,0.654,0.505,0.951,0.505
		c0.821,0,1.232-0.256,1.232-0.769c0-0.188-0.04-0.431-0.121-0.728c-0.081-0.296-0.121-0.479-0.121-0.546
		c0-0.229,0.094-0.411,0.283-0.546c0.146-0.121,0.303-0.182,0.465-0.182c0.352,0,0.646,0.296,0.891,0.89
		c0.256,0.566,0.56,0.849,0.908,0.849c0.405,0,0.775-0.061,1.112-0.182c0.188-0.485,0.282-1.038,0.282-1.658
		c0-0.97-0.586-1.752-1.758-2.345c-1.16-0.607-1.739-1.321-1.739-2.144c0-0.997,0.579-1.604,1.739-1.819
		c1.172-0.202,1.758-0.337,1.758-0.404c0-0.243-0.053-0.499-0.161-0.769c-0.106-0.257-0.161-0.425-0.161-0.506
		c0-0.337,0.055-0.701,0.161-1.092c0.108-0.363,0.161-0.64,0.161-0.829c0-1.253-0.937-2.217-2.811-2.891l-0.061-0.485l0.223-0.121
		l-0.061-0.263c-0.041-0.055-0.357-0.264-0.95-0.627c-0.041-0.108,0.013-0.257,0.161-0.445c0.148-0.175,0.201-0.303,0.162-0.384
		c-0.135,0.067-0.316,0.216-0.547,0.444c-0.147,0-0.33-0.107-0.545-0.323c-0.027-0.054-0.015-0.128,0.041-0.223
		c0.039-0.107,0.039-0.188,0-0.242c-0.068-0.067-0.123-0.081-0.162-0.04l-0.063,0.101c-0.134,0.067-0.256,0.021-0.363-0.142
		c-0.08-0.081-0.162-0.121-0.242-0.121c0.162-0.041,0.351-0.095,0.565-0.162c0.323-0.107,0.587-0.162,0.789-0.162
		c1.28,0.944,3.101,1.584,5.459,1.921c0.403-1.104,1.26-2.783,2.567-5.034c1.064-1.847,1.598-3.053,1.598-3.619
		c0-1.361-1.611-3.457-4.833-6.288c-0.983-0.849-3.322-2.695-7.017-5.54c5.607,2.791,10.09,5.459,13.445,8.007
		c0.863-0.175,1.922-0.634,3.176-1.375c1.293-0.781,1.939-1.401,1.939-1.86c0-0.754-0.479-1.698-1.436-2.83
		c-0.943-1.119-1.416-1.988-1.416-2.608c0-0.337,0.136-0.674,0.404-1.011c0.283-0.391,0.573-0.586,0.87-0.586
		c0.31,0,0.902,0.674,1.778,2.021c0.958,1.442,1.646,2.265,2.063,2.467c0.741,0,2.084-1.112,4.024-3.336
		c1.899-2.252,2.903-3.377,3.012-3.377c-0.418-1.064-0.627-1.921-0.627-2.567c0-0.148,0.317-0.647,0.951-1.496
		c0.633-0.85,0.949-2.157,0.949-3.923c1.133,2.992,1.753,4.597,1.86,4.813c0.943,1.9,2.035,2.851,3.274,2.851
		c1.294,0,2.534-0.223,3.722-0.667c1.36-0.526,2.041-1.159,2.041-1.9c0-0.217-0.054-0.533-0.162-0.951
		c-0.121-0.431-0.182-0.755-0.182-0.97c0-0.903,0.176-1.807,0.525-2.71c0.404-0.862,0.66-1.455,0.769-1.779
		c-0.161-1.631-0.276-4.475-0.344-8.532c-0.067-3.437-0.271-6.024-0.606-7.764c0.66,0,1.086,2.278,1.273,6.834
		c0.107,2.426,0.216,5.58,0.324,9.462c0.849,0.85,1.272,2.029,1.272,3.539c0,0.188-0.054,0.519-0.161,0.99
		c-0.107,0.485-0.162,0.896-0.162,1.233c0,1.105,0.762,1.86,2.284,2.265c0.837,0.215,1.995,0.323,3.478,0.323
		c2.318,0,3.883-1.065,4.691-3.194c0.459-1.227,0.774-1.968,0.95-2.225c0.444-0.66,1.125-0.99,2.042-0.99
		c0.202,0,0.303,0.216,0.303,0.646c0,0.742-0.113,1.705-0.343,2.892c-0.338,1.726-0.54,2.79-0.606,3.194
		c0.701,0.85,2.115,1.672,4.246,2.467c1.819,0.688,3.065,1.031,3.739,1.031c0.364,0,1.112-0.479,2.244-1.436
		c1.104-0.957,1.753-1.436,1.94-1.436c0.148,0,0.298,0.168,0.445,0.506c0.121,0.323,0.183,0.579,0.183,0.768
		c0,0.432-0.155,1.018-0.466,1.76c-0.323,0.741-0.484,1.334-0.484,1.779c0,0.512,0.202,1.051,0.605,1.617
		c0.418,0.62,0.85,0.93,1.295,0.93c0.457,0,1.058-0.424,1.799-1.273c0.742-0.85,1.32-1.273,1.738-1.273
		c0.297,0,0.595,0.114,0.891,0.344c0.256,0.242,0.384,0.444,0.384,0.606l-1.575,4.145c0.497,0.782,1.279,1.591,2.344,2.427
		c0.621,0.484,1.651,1.28,3.095,2.385l2.265-1.496c1.037-0.7,1.873-1.051,2.508-1.051c0.443,0,0.883,0.209,1.313,0.627
		c-0.257,1.55-1.085,2.695-2.487,3.437c-1.334,0.499-2.002,0.85-2.002,1.052c0,0.903,0.316,1.873,0.951,2.911
		c0.443,0.741,0.943,1.354,1.495,1.84c0-0.026,0-0.047,0-0.061c0-0.431,0.21-0.896,0.628-1.395c0.443-0.58,0.902-0.87,1.374-0.87
		c0.553,0,1.166,0.243,1.84,0.729c1.024-0.607,2.271-1.335,3.74-2.184c3.706-2.144,5.702-3.215,5.984-3.215
		c0.162,0,0.363,0.061,0.606,0.182c0.229,0.148,0.344,0.297,0.344,0.445c0-0.216-1.813,1.334-5.438,4.65
		c-3.641,3.315-5.459,5.182-5.459,5.6c0,0.136,0.195,0.297,0.586,0.485c0.216,0.108,0.553,0.264,1.011,0.466
		c0.433,0,0.964-0.155,1.599-0.466c0.633-0.323,1.172-0.485,1.616-0.485c0.701,0,1.173,0.203,1.415,0.607
		c0.122,0.229,0.184,0.667,0.184,1.313c0,0.297-0.723,0.647-2.164,1.052c-1.738,0.458-2.938,0.964-3.6,1.517
		c0,4.502,0.85,7.487,2.549,8.957c1.51,0,3.269,0.593,5.275,1.778c2.049,1.173,3.498,1.76,4.348,1.76
		c0.566,0,1.341-0.108,2.325-0.324c0.943-0.215,1.557-0.323,1.84-0.323c0.216,0,0.425,0.108,0.626,0.323
		c0,0.418-0.519,0.748-1.557,0.991c-0.781,0.188-1.543,0.283-2.284,0.283c-0.108,0-0.323-0.054-0.646-0.162
		c-0.311-0.107-0.52-0.161-0.626-0.161c-0.338,0.337-0.797,0.633-1.375,0.89c-0.62,0.256-1.233,0.384-1.841,0.384
		c-0.322,0-0.803-0.054-1.436-0.162c-0.634-0.107-1.112-0.161-1.437-0.161c-1.617,0-2.75,0.681-3.396,2.042
		c-0.512,1.038-0.768,2.602-0.768,4.69c4.258,0,6.389,0.532,6.389,1.598c0,0.485-1.273,0.99-3.821,1.517
		c-2.562,0.552-3.841,1.22-3.841,2.001c0,1.254,0.908,2.083,2.729,2.487c2.063,0.444,3.282,1.111,3.66,2.002
		c0,0.215-0.102,0.539-0.304,0.97c-0.216,0.418-0.323,0.734-0.323,0.95c0-0.08-1.921-0.93-5.762-2.547
		c-0.148,0.135-0.29,0.27-0.425,0.404c0.106,0,0.216,0,0.323,0c0.336,0.054,0.774,0.404,1.313,1.051
		c0.067-0.026,0.142-0.047,0.222-0.061c0.271-0.081,0.5-0.061,0.688,0.061c0.108-0.013,0.235,0.088,0.385,0.304
		c0.147,0.188,0.242,0.356,0.282,0.505c0.095,0.311,0.055,0.594-0.121,0.85c-0.146,0.243-0.391,0.404-0.729,0.485
		c-0.025,0.014-0.047,0.021-0.061,0.021l-0.041,0.142l-0.061,0.99c-0.055,0.378-0.473,0.869-1.254,1.476
		c-0.74,0.553-1.227,0.815-1.455,0.789l-0.224-0.081c-0.674,0.553-1.004,0.829-0.989,0.829c-0.041,0-0.096,0.014-0.162,0.041
		c0.593,1.253,1.638,2.493,3.134,3.72c-0.067-0.418,0.161-0.694,0.688-0.829c0.432-0.081,0.729,0.162,0.889,0.728
		c0.027,0.148,0.008,0.331-0.061,0.546c-0.054,0.256-0.169,0.418-0.344,0.485c0.822,0.566,1.658,1.071,2.507,1.517l0.081,0.04
		c-0.431,0.122-0.957,0.183-1.577,0.183c-0.89-0.014-1.415-0.014-1.577,0c0.041,0.054,0.17,0.182,0.385,0.384
		c0.203,0.283,0.371,0.653,0.506,1.112l0.344-0.121c0.148-0.041,0.264,0.087,0.344,0.384c0.067,0.297,0.096,0.512,0.081,0.647
		c-0.026,0.188-0.135,0.303-0.323,0.344c-0.095,0.013-0.188-0.129-0.283-0.425l0.062,0.829c-0.971,0.215-1.987,0.323-3.053,0.323
		c0.067,0.081,0.135,0.161,0.202,0.242c0.283,0.472,0.451,0.978,0.505,1.517c-0.095,0.701-0.351,1.254-0.769,1.658
		c-0.484,0.472-1.064,0.667-1.738,0.586c-1.807-0.229-2.596-1.24-2.365-3.032c0.054-0.432,0.377-0.87,0.97-1.314
		c-0.362-0.067-0.721-0.142-1.071-0.223c-0.013,0.095-0.025,0.188-0.039,0.283c-0.082,0.701-0.352,1.328-0.81,1.88
		c-0.539,0.445-0.924,0.822-1.151,1.133c0.295,0.391,0.403,0.883,0.322,1.476c-0.148,1.187-0.641,2.555-1.477,4.104l0.264,1.496
		c-0.135,1.038-0.371,1.537-0.708,1.496l0.081,1.052c-0.107,0.916-0.396,1.341-0.87,1.273c-0.094-0.013-0.202-0.101-0.323-0.263
		c-0.013,0.148-0.484,0.425-1.414,0.829l-0.224,0.546c1.104,1.536,1.731,2.318,1.881,2.346c0.08,0,0.289-0.271,0.628-0.81
		c0.025-0.188-0.015-0.465-0.123-0.828c-0.16-0.283-0.222-0.553-0.182-0.81c0.066-0.512,0.425-0.728,1.07-0.646
		c0.148,0.014,0.271,0.384,0.365,1.112c0.095,0.89,0.256,1.51,0.484,1.859l1.012,0.142l0.021-0.182
		c0.229,0.027,0.384,0.088,0.465,0.182c1.51,0,2.562-0.275,3.153-0.829c0.095-0.754,0.484-1.597,1.173-2.527
		c0.7-0.93,1.079-1.604,1.133-2.021c-0.067-1.064-0.074-1.759-0.021-2.082l0.183-0.264c0.403,0.055,0.524,0.715,0.362,1.982
		l-0.201,0.646c0.363,0.458,0.506,0.997,0.425,1.617l-0.283,1.415c-0.161,1.187,0.595,1.982,2.265,2.387l0.021-0.283l0.729-0.041
		c0.066-0.323,0.142-0.62,0.223-0.889c-0.135-0.189-0.223-0.357-0.264-0.506c-0.147-0.62-0.176-1.396-0.08-2.325l0.443-0.101
		c0.055,0.229,0.17,0.559,0.344,0.99c0.056,0.121,0.108,0.242,0.162,0.363c0.107-0.161,0.217-0.235,0.323-0.222
		c0.298,0.04,0.479,0.707,0.546,2.001c0.121,1.335,0.371,2.022,0.748,2.063l0.223,0.04l0.304-0.687
		c0.122-0.283,0.323-0.404,0.606-0.364l0.223,0.021c0.378-1.133,0.796-1.779,1.254-1.941c0.229,0.027,0.546,0.195,0.95,0.506
		c-0.055,0.472-0.337,0.943-0.85,1.415c-0.459,0.404-0.715,0.822-0.769,1.253c-0.096,0.715,0.586,1.167,2.042,1.355
		c0.013-0.107,0.114-0.148,0.303-0.121l0.85,0.263c0.338-0.095,0.708-0.667,1.112-1.719c0.418-0.917,0.91-1.341,1.477-1.273
		c0.242,0.04,0.579,0.209,1.011,0.505c0.418,0.243,0.789,0.384,1.112,0.425c0.147,0.026,0.282-0.128,0.403-0.465
		c0.162-0.311,0.378-0.445,0.647-0.404c0.296,0.04,0.795-0.263,1.496-0.91c0.699-0.62,1.078-1.132,1.132-1.536
		c-0.229-0.891-0.337-1.375-0.323-1.456c0.242-0.418,0.37-0.714,0.384-0.89c0.378,0.04,0.856,0.263,1.437,0.667
		c0.539,0.378,1.004,0.586,1.396,0.627c0.741,0.095,1.396-0.182,1.961-0.829c0.514-0.606,0.829-1.429,0.95-2.467
		c0.041-0.337-0.175-0.896-0.646-1.678c-0.485-0.742-0.676-1.537-0.566-2.386C323.647,158.257,324.315,157.549,325.138,157.388z"/>
	<path fill="#010101" d="M267.211,157.186c-6.16-7.44-13.385-13.338-21.674-17.691c-6.066-3.101-12.307-5.305-18.725-6.611
		c1.43,1.294,2.812,2.614,4.146,3.963c3.45,3.45,6.618,7.049,9.502,10.796c2.186,2.791,4.191,5.695,6.025,8.715
		c2.574,4.044,4.865,8.377,6.875,13c0.674,1.564,1.326,3.154,1.961,4.771c0.014,0.014,0.027,0.021,0.041,0.021
		c0.256,0.688,0.498,1.382,0.728,2.083h0.021c1.848,5.526,3.242,11.255,4.186,17.186c-0.013,0-0.021,0.007-0.021,0.021l0.507,4.488
		c0.931-0.081,1.819-0.249,2.669-0.505l0.223-0.062l1.334-0.545l0.971-0.668l2.527-2.811c1.469-2.075,2.635-4.535,3.498-7.38
		c0.579-1.819,1.064-3.801,1.456-5.943c0.633-3.6,0.997-7.656,1.093-12.172c-0.851-1.645-1.801-3.229-2.853-4.752
		c-1.308-1.94-2.736-3.835-4.286-5.681C267.359,157.34,267.292,157.267,267.211,157.186z M271.093,154.254
		c1.563,1.873,3.007,3.808,4.327,5.803c1.118,1.631,2.143,3.315,3.073,5.055c0.026,0.026,0.062,0.054,0.101,0.08
		c2.588,4.624,4.617,9.483,6.086,14.578c2.684,9.18,3.6,18.467,2.75,27.861c-0.014,0.579-0.033,1.166-0.061,1.76l-0.385,3.618
		c-0.902,8.56-3.275,16.586-7.117,24.081c-4.245,8.491-10.196,15.926-17.854,22.301c-7.629,6.281-16.033,10.736-25.213,13.364
		c-9.26,2.603-18.775,3.336-28.549,2.204c-9.704-1.052-18.951-4.01-27.74-8.876c-0.444-0.256-0.896-0.513-1.354-0.769
		c-0.296-0.162-0.579-0.33-0.849-0.506c-1.415-0.863-2.817-1.746-4.206-2.648c-4.111-2.695-7.905-5.734-11.383-9.118
		c-0.728-0.701-1.456-1.449-2.184-2.244c-0.916-0.983-1.819-1.987-2.709-3.013c-6.483-7.725-11.147-16.114-13.991-25.172v0.02
		c-1.187-3.761-2.097-7.527-2.729-11.302c-0.014-0.108-0.014-0.236,0-0.384c-0.863-5.514-1.059-11.121-0.587-16.822v-0.021
		c0.782-8.653,3.047-16.883,6.794-24.687c0.553-1.281,1.139-2.555,1.759-3.822c4.272-8.572,10.103-15.979,17.489-22.22
		c7.467-6.349,15.824-10.811,25.071-13.385c8.505-2.521,17.273-3.289,26.305-2.305c0.795,0.04,1.584,0.094,2.365,0.161
		c0.148-0.014,0.303-0.033,0.465-0.061l0.586,0.162c9.53,0.836,18.655,3.512,27.377,8.026c8.52,4.422,15.898,10.433,22.14,18.035
		C270.938,154.092,271.012,154.173,271.093,154.254z M223.498,137.473c-1.159-1.24-2.359-2.48-3.6-3.721
		c-0.7-0.741-1.428-1.463-2.184-2.164c-8.789-0.687-17.375,0.229-25.759,2.75h-0.021c-8.505,2.453-16.154,6.457-22.948,12.011
		c0.014,0.013,0.007,0.02-0.02,0.02l-3.64,3.316c0.835-0.027,1.631-0.034,2.386-0.021c0.971,0.014,1.847,0.081,2.629,0.202
		c0.606,0.121,1.246,0.249,1.92,0.384c2.427,0.594,5.028,1.624,7.805,3.094c4.206,2.197,9.766,5.891,16.681,11.08l15.75,12.01
		l-0.02-0.021c6.187,4.367,11.617,7.933,16.295,10.696c0.903,0.512,1.779,1.018,2.629,1.516c1.859,0.998,3.66,1.921,5.397,2.771
		c3.275,1.631,6.402,2.972,9.382,4.023l0.041-0.021c2.493,0.957,4.894,1.658,7.197,2.104l-0.182-1.396
		c-0.715-5.149-1.881-10.218-3.498-15.205v-0.02c-0.676-2.157-1.43-4.286-2.266-6.39c-1.832-4.73-4.076-9.381-6.732-13.951
		C236.216,152.71,230.467,145.021,223.498,137.473z M225.357,193.923c-0.432-0.256-0.875-0.506-1.334-0.748
		c-5.729-3.384-11.27-7.083-16.619-11.101l-0.062,0.021l-23.231-18.5l0.04-0.021c-2.871-2.17-5.554-3.977-8.047-5.419
		c-2.372-1.441-4.59-2.493-6.652-3.153c-0.66-0.216-1.307-0.398-1.94-0.546h-0.021c-0.943-0.229-2.082-0.392-3.417-0.485
		c-0.957-0.055-2.021-0.081-3.194-0.081c-3.302,3.761-6.18,7.885-8.633,12.374h0.04c-4.341,8.168-6.915,16.842-7.724,26.021
		c-0.458,5.432-0.29,10.797,0.506,16.094c4.326,1.227,8.579,2.354,12.758,3.377c7.548,1.819,14.9,3.295,22.059,4.428
		c1.388,0.229,2.77,0.433,4.145,0.606c4.529,0.66,9.024,1.187,13.486,1.577c1.847,0.175,3.686,0.322,5.52,0.443
		c4.381,0.312,8.721,0.52,13.021,0.627c11.768,0.256,23.791-0.33,36.07-1.759l2.021-0.263c0.271-4.503,0.275-8.876,0.021-13.122
		l-1.819-0.142c-3.154-0.364-6.523-1.127-10.108-2.285v-0.02c-3.505-1.295-7.218-2.913-11.142-4.854
		C229.254,196.065,227.34,195.041,225.357,193.923z M193.494,224.797c-0.958-0.095-1.935-0.201-2.932-0.324
		c-4.61-0.619-9.187-1.388-13.729-2.305c-5.485-1.092-10.837-2.354-16.054-3.781c-5.055-1.4-9.974-2.979-14.759-4.729
		c0.485,2.089,1.071,4.179,1.759,6.268c2.776,8.884,7.339,17.099,13.688,24.646c0.891,1.064,1.8,2.076,2.73,3.033
		c0.688,0.729,1.401,1.442,2.143,2.144c4.96,4.905,10.608,9.085,16.943,12.535c2.035,1.038,4.07,1.995,6.105,2.872
		c6.201-1.43,12.34-4.239,18.42-8.432c0.121-0.082,0.248-0.162,0.383-0.242l9.767-7.582c0.095-0.082,0.175-0.143,0.243-0.184
		l10.533-7.115c0.066-0.041,0.142-0.082,0.223-0.123c8.613-4.974,16.443-8.153,23.494-9.543c0.512-2.912,0.917-5.815,1.213-8.713
		l-2.871,0.484v0.04c-5.404,0.876-11.564,1.563-18.479,2.063l-0.021-0.041c-6.174,0.432-12.34,0.572-18.5,0.424
		c-5.54-0.106-11.039-0.424-16.498-0.949C196.027,225.12,194.761,224.973,193.494,224.797z M276.087,189.07
		c-0.795,2.237-1.786,4.226-2.973,5.964c-1.173,1.914-2.5,3.512-3.982,4.792c-0.12,0.108-0.235,0.195-0.344,0.263l-2.204,1.558
		c-0.216,0.147-0.445,0.283-0.688,0.404l-2.306,1.051c-0.081,0.041-0.169,0.074-0.263,0.103c-0.096,0.04-0.184,0.081-0.264,0.121
		c-0.633,0.188-1.254,0.344-1.859,0.465c0.081,2.09,0.094,4.192,0.04,6.31c-0.026,0.983-0.062,1.98-0.101,2.991l-0.021,0.04
		l-0.243,3.316c5.204-0.756,10.527-1.705,15.974-2.852c2.063-0.392,4.146-0.843,6.248-1.354c0.095-0.7,0.168-1.401,0.223-2.103
		h0.021c0.901-9.354,0.053-18.595-2.549-27.721c-0.619-1.994-1.308-3.977-2.063-5.944c-0.271,3.087-0.762,5.985-1.477,8.694
		C276.923,186.543,276.531,187.844,276.087,189.07z M275.945,218.246c-5.055,1.455-10.266,2.709-15.629,3.76
		c-0.392,3.114-0.891,6.188-1.496,9.221c3.046-0.067,5.869,0.256,8.472,0.971h-0.021c0.902,0.201,1.778,0.472,2.629,0.81
		c1.979,0.781,3.793,1.832,5.438,3.153l0.202-0.364c3.274-6.213,5.56-12.737,6.854-19.571
		C280.277,216.925,278.129,217.6,275.945,218.246z M264.239,237.271c-2.116-0.352-4.415-0.418-6.896-0.203
		c-1.146,4.422-2.561,8.815-4.245,13.184c-1.672,4.475-3.605,8.902-5.804,13.283c4.179-2.063,8.121-4.637,11.828-7.725l0.062-0.02
		c5.312-4.286,9.799-9.294,13.465-15.021c-1.859-1.35-3.867-2.347-6.024-2.992C265.843,237.563,265.048,237.393,264.239,237.271z
		 M241.493,241.578c-3.466,1.523-6.981,3.35-10.556,5.479l-10.148,6.592l-10.17,7.299c-0.067,0.041-0.148,0.095-0.243,0.162
		c-4.718,2.951-9.415,5.121-14.093,6.51c4.341,1.309,8.796,2.218,13.365,2.729l-0.021-0.02c9.166,1.011,18.089,0.188,26.77-2.467
		c0.015,0.025,0.027,0.025,0.041,0c2.008-0.566,3.977-1.254,5.903-2.063c1.658-4.058,3.134-8.04,4.429-11.948
		c1.807-5.379,3.262-10.615,4.367-15.711c-3.263,0.836-6.438,1.969-9.523,3.396C241.573,241.551,241.533,241.564,241.493,241.578z"
		/>
	<path fill="#EC9452" d="M241.493,241.578c0.04-0.014,0.08-0.027,0.12-0.041c3.087-1.43,6.262-2.561,9.523-3.396
		c-1.105,5.096-2.562,10.332-4.367,15.711c-9.287,4.381-19.728,5.815-31.318,4.307c-0.27-0.04-0.539-0.074-0.809-0.102l6.146-4.408
		l10.149-6.59C234.512,244.928,238.027,243.102,241.493,241.578z M258.82,231.227c0.605-3.033,1.104-6.105,1.496-9.221
		c5.363-1.051,10.574-2.305,15.629-3.76c-1.28,5.324-3.297,10.243-6.045,14.76c-0.851-0.338-1.727-0.607-2.629-0.811h0.021
		C264.689,231.482,261.866,231.158,258.82,231.227z M264.239,237.271c0.809,0.121,1.604,0.289,2.385,0.506
		c-2.144,2.763-4.575,5.336-7.299,7.723c-1.981,1.753-4.058,3.336-6.228,4.752c1.686-4.367,3.101-8.762,4.245-13.184
		C259.824,236.854,262.123,236.921,264.239,237.271z M273.114,195.034c1.187-1.738,2.178-3.727,2.973-5.964
		c0.997,4.718,1.496,9.563,1.496,14.538c0,3.463-0.243,6.793-0.728,9.988c-5.446,1.146-10.771,2.096-15.975,2.85l0.243-3.315
		l0.021-0.04c0.041-1.011,0.074-2.008,0.102-2.992c0.054-2.115,0.041-4.219-0.04-6.309c0.606-0.121,1.228-0.275,1.86-0.465
		c0.08-0.04,0.168-0.081,0.263-0.121c0.094-0.027,0.183-0.061,0.263-0.102l2.305-1.052c0.242-0.122,0.473-0.257,0.688-0.403
		l2.204-1.559c0.107-0.067,0.223-0.154,0.344-0.263C270.614,198.546,271.941,196.948,273.114,195.034z M193.494,224.797
		c1.267,0.176,2.533,0.323,3.801,0.444c5.459,0.524,10.958,0.843,16.498,0.95c6.16,0.147,12.326,0.007,18.5-0.426l0.021,0.041
		c6.914-0.498,13.074-1.187,18.479-2.063v-0.04l2.871-0.485c-0.296,2.897-0.701,5.803-1.213,8.715
		c-7.051,1.389-14.881,4.568-23.494,9.543c-0.081,0.041-0.155,0.08-0.223,0.121l-10.533,7.116c-0.068,0.041-0.148,0.103-0.243,0.183
		l-9.767,7.582c-0.135,0.082-0.262,0.162-0.383,0.242c-12.293-2.979-23.171-9.227-32.634-18.742
		c-1.213-1.213-2.399-2.479-3.559-3.802c-4.421-5.041-8.033-10.305-10.838-15.791c5.217,1.429,10.568,2.689,16.054,3.781
		c4.543,0.917,9.119,1.685,13.729,2.306C191.56,224.596,192.536,224.702,193.494,224.797z M225.357,193.923
		c1.981,1.118,3.896,2.143,5.742,3.073c3.924,1.94,7.637,3.559,11.142,4.854v0.02c3.585,1.158,6.954,1.921,10.108,2.285l1.819,0.142
		c0.256,4.246,0.25,8.619-0.021,13.122l-2.021,0.264c-12.279,1.428-24.304,2.014-36.07,1.758c-4.3-0.107-8.64-0.315-13.021-0.627
		c-1.834-0.121-3.673-0.27-5.52-0.443c-4.462-0.393-8.957-0.917-13.486-1.577c-1.375-0.175-2.757-0.378-4.145-0.606
		c-7.158-1.133-14.511-2.607-22.059-4.428c-2.871-7.63-4.3-15.67-4.287-24.121c0.014-13.143,3.525-24.363,10.534-33.664
		c1.335,0.094,2.474,0.256,3.417,0.485h0.021c0.634,0.147,1.28,0.33,1.94,0.546c2.063,0.66,4.28,1.712,6.652,3.153
		c2.493,1.442,5.176,3.249,8.047,5.419l-0.04,0.021l23.231,18.5l0.062-0.021c5.351,4.018,10.891,7.717,16.619,11.101
		C224.482,193.417,224.927,193.667,225.357,193.923z M240.461,147.642c-2.884-3.747-6.052-7.346-9.502-10.796
		c10.702,4.003,20.212,10.742,28.527,20.219c1.16,1.334,2.266,2.668,3.315,4.003c4.638,5.984,8.188,12.3,10.656,18.945
		c-0.392,2.143-0.877,4.124-1.456,5.943c-0.863,2.845-2.029,5.305-3.498,7.38l-2.527,2.811l-0.971,0.668l-1.334,0.545l-0.223,0.062
		c-0.85,0.256-1.738,0.424-2.67,0.505l-0.506-4.488c0-0.014,0.009-0.021,0.021-0.021c-0.943-5.931-2.338-11.659-4.186-17.186h-0.021
		c-0.229-0.701-0.472-1.396-0.728-2.083c-0.014,0-0.027-0.007-0.041-0.021c-0.635-1.617-1.287-3.207-1.961-4.771
		c-2.01-4.623-4.301-8.956-6.875-13C244.652,153.337,242.646,150.433,240.461,147.642z M219.898,133.752
		c1.24,1.24,2.439,2.48,3.6,3.721c6.969,7.548,12.718,15.237,17.246,23.068c2.656,4.57,4.9,9.221,6.732,13.951
		c0.836,2.104,1.59,4.232,2.266,6.39v0.02c1.617,4.987,2.783,10.056,3.498,15.205l0.182,1.396c-2.305-0.445-4.704-1.146-7.197-2.104
		l-0.041,0.021c-2.979-1.052-6.105-2.393-9.381-4.023c-1.738-0.85-3.539-1.772-5.398-2.771c-0.85-0.498-1.725-1.004-2.629-1.516
		c-4.678-2.764-10.108-6.329-16.295-10.696l0.02,0.021l-15.75-12.01c-6.915-5.189-12.475-8.883-16.681-11.08
		c-2.776-1.47-5.378-2.5-7.805-3.094c-0.674-0.135-1.313-0.263-1.92-0.384c-0.782-0.121-1.658-0.188-2.629-0.202
		c1.28-1.348,2.635-2.655,4.064-3.922c12.131-10.649,26.763-14.868,43.895-12.657C217.129,133.273,218.537,133.496,219.898,133.752z
		"/>
	<path fill="#E67225" d="M267.211,157.186c0.081,0.081,0.148,0.154,0.202,0.223c1.55,1.846,2.979,3.74,4.286,5.681
		c1.052,1.523,2.002,3.107,2.852,4.752c-0.095,4.516-0.459,8.572-1.092,12.172c-2.468-6.646-6.02-12.961-10.656-18.945
		c-1.051-1.335-2.156-2.669-3.314-4.003c-8.316-9.477-17.826-16.216-28.528-20.219c-1.335-1.349-2.717-2.669-4.146-3.963
		c6.416,1.307,12.656,3.511,18.724,6.611C253.826,143.848,261.051,149.745,267.211,157.186z M219.898,133.752
		c-1.361-0.256-2.771-0.479-4.226-0.667c-17.132-2.211-31.764,2.008-43.895,12.657c-1.43,1.267-2.784,2.574-4.064,3.922
		c-0.755-0.014-1.551-0.007-2.386,0.021l3.64-3.316c0.026,0,0.033-0.007,0.02-0.02c6.794-5.554,14.443-9.558,22.948-12.011h0.021
		c8.384-2.521,16.97-3.437,25.759-2.75C218.471,132.289,219.198,133.011,219.898,133.752z M236.438,267.861
		c-0.014,0.027-0.026,0.027-0.041,0c-8.681,2.656-17.604,3.479-26.77,2.468l0.021,0.021c-4.569-0.513-9.024-1.423-13.365-2.729
		c4.678-1.388,9.375-3.56,14.093-6.511c0.095-0.066,0.176-0.121,0.243-0.161l4.023-2.892c0.27,0.026,0.539,0.062,0.809,0.102
		c11.592,1.51,22.031,0.074,31.318-4.307c-1.295,3.908-2.771,7.892-4.429,11.948C240.414,266.607,238.445,267.296,236.438,267.861z
		 M259.186,255.792l-0.063,0.021c-3.707,3.086-7.648,5.66-11.828,7.724c2.197-4.38,4.132-8.81,5.803-13.283
		c2.172-1.416,4.246-2.999,6.229-4.752c2.724-2.386,5.156-4.96,7.299-7.724c2.157,0.646,4.165,1.645,6.025,2.992
		C268.982,246.498,264.495,251.506,259.186,255.792z M147.779,219.924c-0.688-2.089-1.273-4.179-1.759-6.268
		c4.785,1.752,9.704,3.328,14.759,4.729c2.805,5.486,6.417,10.75,10.838,15.791c1.159,1.321,2.346,2.589,3.559,3.802
		c9.462,9.517,20.34,15.765,32.633,18.742c-6.078,4.192-12.219,7.004-18.419,8.432c-2.035-0.877-4.07-1.832-6.105-2.871
		c-6.335-3.45-11.983-7.629-16.943-12.535c-0.741-0.7-1.455-1.415-2.143-2.143c-0.931-0.957-1.84-1.97-2.73-3.033
		C155.118,237.021,150.556,228.807,147.779,219.924z M160.881,153.89c1.173,0,2.237,0.026,3.194,0.081
		c-7.009,9.301-10.521,20.521-10.534,33.664c-0.013,8.451,1.416,16.491,4.287,24.121c-4.179-1.023-8.432-2.15-12.758-3.377
		c-0.796-5.297-0.964-10.662-0.506-16.094c0.809-9.18,3.383-17.854,7.724-26.021h-0.04
		C154.701,161.774,157.579,157.65,160.881,153.89z M275.945,218.246c2.184-0.646,4.332-1.321,6.449-2.021
		c-1.295,6.834-3.578,13.357-6.854,19.57l-0.202,0.364c-1.645-1.321-3.458-2.372-5.438-3.153
		C272.648,228.489,274.665,223.57,275.945,218.246z M276.087,189.07c0.444-1.227,0.836-2.527,1.173-3.902
		c0.715-2.709,1.206-5.607,1.477-8.694c0.755,1.968,1.441,3.95,2.063,5.944c2.602,9.126,3.45,18.365,2.549,27.721h-0.021
		c-0.055,0.7-0.128,1.401-0.223,2.103c-2.104,0.513-4.186,0.964-6.248,1.354c0.484-3.195,0.729-6.523,0.729-9.988
		C277.583,198.634,277.084,193.788,276.087,189.07z"/>
</g>
</svg>
