<?xml version="1.0" encoding="utf-8"?>
<!-- Generator: Adobe Illustrator 16.0.0, SVG Export Plug-In . SVG Version: 6.00 Build 0)  -->
<!DOCTYPE svg PUBLIC "-//W3C//DTD SVG 1.1//EN" "http://www.w3.org/Graphics/SVG/1.1/DTD/svg11.dtd">
<svg version="1.1" id="Layer_1" xmlns="http://www.w3.org/2000/svg" xmlns:xlink="http://www.w3.org/1999/xlink" x="0px" y="0px"
	 width="400px" height="400px" viewBox="0 0 400 400" enable-background="new 0 0 400 400" xml:space="preserve">
<path fill="#010101" d="M287.344,40.437c-2.18,4.87-4.055,9.844-5.62,14.924c-1.34,4.25-2.346,8.219-3.015,11.907
	c-0.797,4.352-1.122,8.31-0.984,11.877c0.023,1.505,0.353,3.956,0.984,7.35c0.03,0.166,0.06,0.336,0.095,0.506
	c0.131,0.666,0.268,1.364,0.412,2.096c0.034,0.148,0.065,0.298,0.097,0.444c0.368,1.813,0.8,3.83,1.302,6.049
	c0.034,0.145,0.066,0.289,0.097,0.429c0.261,1.114,0.508,2.194,0.746,3.238c0.061,0.265,0.118,0.529,0.175,0.792
	c0.326,1.419,0.63,2.769,0.904,4.049c0.581,2.655,1.07,5.004,1.461,7.049c0.004,0.031,0.011,0.063,0.015,0.096
	c0.134,0.703,0.257,1.37,0.367,2c0.02,0.087,0.033,0.169,0.046,0.253c0.009,0.041,0.014,0.083,0.018,0.126
	c0.021,0.097,0.034,0.199,0.048,0.302c0.006,0.02,0.012,0.042,0.015,0.065c0.052,0.269,0.102,0.539,0.146,0.81
	c0.493,2.853,0.899,5.589,1.22,8.208c0.414,3.408,0.676,6.622,0.796,9.636c0.003,0.177,0.007,0.35,0.014,0.524v0.014
	c0.021,0.703,0.032,1.396,0.032,2.082c0.066,10.013-1.627,18.455-5.079,25.32c-0.28,0.558-0.57,1.102-0.873,1.639
	c-0.229,0.398-0.461,0.789-0.703,1.174v0.019c-0.152,0.253-0.311,0.5-0.473,0.743c-0.284,0.437-0.574,0.866-0.873,1.29
	c-0.901,1.254-1.874,2.446-2.923,3.571c-3.928,4.21-8.913,7.478-14.954,9.794c-15.629,5.835-28.084,11.925-37.373,18.275
	c-0.15,0.099-0.302,0.199-0.443,0.301l-3.651,2.62c-0.575,0.438-1.131,0.869-1.669,1.298c-3.086,2.482-5.613,4.936-7.572,7.352
	c-2.004-2.234-4.555-4.465-7.654-6.699c-0.856-0.621-1.755-1.236-2.698-1.856c-0.393-0.258-0.795-0.517-1.207-0.775
	c-0.599-0.382-1.212-0.766-1.841-1.145c-9.741-5.886-22.684-11.301-38.835-16.258c-18.353-5.776-27.847-20.437-28.483-43.976
	c-0.12-2.772-0.116-5.721,0.016-8.844c0.057-1.324,0.136-2.68,0.238-4.063c0.166-2.211,0.387-4.504,0.667-6.875
	c0.034-0.288,0.071-0.583,0.111-0.89c0.02-0.155,0.041-0.314,0.063-0.477c0.373-2.974,0.911-6.663,1.62-11.063
	c0.285-1.772,0.597-3.662,0.937-5.667c0.42-2.559,0.775-4.838,1.063-6.844c0.125-0.83,0.234-1.614,0.333-2.349
	c0.482-3.577,0.706-6.048,0.669-7.415c-0.211-6.583-2.086-14.438-5.621-23.56v0.063c-1.862-4.912-4.012-9.77-6.445-14.575
	l7.273-6.73c14.299,6.222,28.693,8.613,43.184,7.176c-0.858,0.521-1.725,1.071-2.605,1.652l-1.841,1.238
	c-3.959,2.879-7.537,6.161-10.733,9.842l-0.03,0.032c-6.309,7.262-10.786,15.539-13.432,24.831
	c-2.71,9.589-3.153,19.285-1.333,29.087c1.799,9.843,5.673,18.774,11.622,26.797c5.735,7.621,12.903,13.74,21.496,18.353
	l0.033,0.033c4.804,2.413,9.292,4.158,13.462,5.239h0.033c1.079,0.275,1.788,0.435,2.127,0.477
	c3.854,0.909,7.472,1.461,10.858,1.652c2.457,0.169,5.113,0.169,7.972,0l-0.033-0.034c1.926-0.085,3.873-0.305,5.842-0.665
	l1.651-0.316c7.261-1.356,14.193-3.94,20.8-7.75c11.451-6.795,20.016-16.248,25.686-28.355c5.866-12.405,7.559-25.336,5.081-38.801
	c-2.495-13.442-8.688-24.947-18.573-34.516c-4.485-4.334-9.342-7.9-14.575-10.7c14.206,0.542,28.103-2.57,41.69-9.336
	c0.299-0.145,0.595-0.292,0.888-0.445L287.344,40.437z M250.193,63.489l-8.986-4.89l-7.906-2.952l-9.461-1.587l-4.385-0.063
	l-19.749,1.174l-9.813-0.984l-1.113-0.254l-0.603,0.508l-7.048,7.653l3.176,0.38l8.414,2l0.317,0.032l4.508,1.46l13.24,5.652
	l14.194,9.146l2.823,2.16l12.037,11.177l10.957,13.335l10.349,17.562c5.021-11.114,6.414-22.768,4.192-34.96
	c-1.522-8.106-4.594-15.591-9.206-22.449L250.193,63.489z M226.444,50.662l7.781,1.46l8.509,3.11l5.43,2.923
	c-4.148-4.044-8.807-7.421-13.973-10.131c-5.165-2.708-10.593-4.625-16.287-5.746c-3.854-0.678-7.654-0.996-11.402-0.953
	l-10.984,6.921l-3.399,2.762l7.589,0.604l19.685-1.208L226.444,50.662z M211.663,39.135c1.763,0.125,3.535,0.328,5.317,0.605v0.031
	c4.507,0.762,8.803,1.958,12.894,3.587c7.367,2.933,14.043,7.271,20.034,13.019c9.464,9.208,15.412,20.29,17.848,33.244
	c2.368,12.936,0.739,25.372-4.891,37.31c-5.462,11.643-13.707,20.724-24.736,27.243c-6.35,3.664-13.009,6.136-19.973,7.429
	l-1.651,0.315h-0.032c-1.821,0.342-3.642,0.55-5.462,0.637h-0.03c-2.731,0.169-5.273,0.179-7.621,0.033l-0.064-0.033
	c-3.261-0.169-6.732-0.676-10.417-1.523c-0.063-0.022-0.116-0.04-0.158-0.062c-0.212-0.024-0.857-0.16-1.938-0.416v-0.033
	c-4.021-1.057-8.339-2.739-12.954-5.048h-0.063c-8.234-4.444-15.094-10.33-20.577-17.652c-5.735-7.707-9.473-16.29-11.208-25.753
	c-1.736-9.441-1.312-18.765,1.271-27.974c2.519-8.953,6.827-16.924,12.923-23.91l0.032,0.033c3.112-3.555,6.563-6.72,10.351-9.494
	l1.748-1.206c2.798-1.857,5.529-3.42,8.192-4.683c0.342-0.158,0.678-0.311,1.016-0.461c2.986-1.292,5.357-2.181,7.114-2.667
	c0.022,0,0.042-0.011,0.063-0.032c1.208-0.359,2.995-0.825,5.365-1.396l1.652-0.319c0.874-0.161,1.747-0.303,2.62-0.429
	C202.717,38.928,207.161,38.797,211.663,39.135z M208.408,137.315l-6.287-11.02l-13.655-31.086l-3.047-5.46l-3.334-4.637
	l-3.526-3.587l-2.032-1.429l-2.096-1.08l-2.382-0.793L171.001,78v0.16l-2.065,4.573l-3.271,11.239l-1.239,8.574l0.095,10.732
	l0.761,5.429l2.763,11.146l4.637,11.049l0.191,0.573l7.08,11.812l0.762,0.984c3.407,1.546,6.425,2.73,9.049,3.555
	c0.804,0.255,1.503,0.423,2.095,0.509c3.641,0.995,7.21,1.599,10.702,1.811c2.877,0.234,5.481,0.275,7.81,0.126
	c2.35-0.17,4.245-0.392,5.685-0.667c0.381-0.022,0.953-0.107,1.715-0.252c2.288-0.405,5.208-1.184,8.765-2.353l-6.954-5.937
	l-6.35-6.954L208.408,137.315z M209.169,74.856l-12.73-5.587l-2.985-0.793l-1.334-0.539l-4.254-1.112l-9.24-1.492l-2.858,4.063
	l-0.222,0.509l-2.826,4.699l3.11,1.047l4.858,2.983l2.285,1.938l5.588,7.271l1.525,2.827l12.83,29.213l6.316,12.002l2.444,4.064
	l7.368,9.43l3.016,3.112l8.479,6.956c2.137-0.955,4.645-2.265,7.522-3.939c9.08-5.695,16.101-13.22,21.056-22.577l-4.83-9.398
	l-6.476-9.97l-3.398-4.572l-10.956-12.289l-7.495-6.668l-4.476-3.399L209.169,74.856z M165.797,77.618l-3.304,0.826l-2.159,0.984
	l-3.238,2.126l-2.891,2.764l-6.381,8.127c-0.868,6.458-0.72,12.861,0.444,19.21c1.48,8.044,4.499,15.464,9.049,22.258
	c4.38,6.478,9.833,11.907,16.351,16.291l-3.938-6.986l-5.144-12.163l-2.858-11.875l-0.98-11.363l0.763-11.021l2.571-11.145
	l3.144-8.097l-0.222,0.063H165.797z M163.574,65.427l-5.144,0.951c-3.809,5.252-6.678,11.084-8.605,17.497l1.746-2.126l3.366-3.017
	l3.588-2.446l4.002-1.618l1.428-0.381l2.923-0.318L169.004,74l4-6.953l1.396-1.97l-3.08-0.128L163.574,65.427z M181.642,46.851
	l-1.717,0.953l6.001,1.746l0.571,0.097l1.048,0.38l0.159-0.032l2-1.844l8.667-6.252l-3.905,0.665
	c-0.804,0.169-2.657,0.667-5.558,1.494C186.225,44.946,183.801,45.878,181.642,46.851z M181.546,51.899l-6.096-1.557l-0.096-0.095
	l-4.825,3.461c-3.345,2.645-6.268,5.438-8.764,8.383l1.27-0.256l8.35-0.572l0.573,0.128l4.923,0.253l1.84-2.507l5.938-6.255
	l-2-0.603l-0.348-0.063L181.546,51.899z"/>
<path fill="#AF5926" d="M234.794,251.558c0.275,0.258,0.415,0.598,0.415,1.018c0,0.148-0.14,0.391-0.415,0.729
	c-0.338,0.34-0.877,0.816-1.619,1.43c-1.482,1.061-2.338,1.59-2.571,1.59c-0.845,0.148-1.57-0.008-2.159-0.477
	c-0.701-0.51-1.046-1.229-1.046-2.158c0.697-0.895,1.501-1.57,2.412-2.035c1.205-0.654,2.285-0.676,3.237-0.064
	c0.169-0.104,0.372-0.264,0.604-0.475C234.14,251.177,234.52,251.325,234.794,251.558z M218.03,305.856
	c-1.122,0.299-1.927,0.605-2.414,0.922c2.352-0.148,4.201-0.613,5.558-1.396c-0.063-0.127-0.201-0.189-0.413-0.189
	C220.358,305.317,219.449,305.538,218.03,305.856z M256.133,67.585l-5.939-4.096l-8.986-4.889l-5.177-1.904
	c4.405,3.62,8.228,8.042,11.464,13.271c7.624,12.363,9.77,25.605,6.444,39.723c-0.168,0.698-0.349,1.408-0.537,2.128l7.745,13.177
	c5.021-11.114,6.414-22.768,4.192-34.961C263.816,81.928,260.746,74.443,256.133,67.585z M166.718,136.075
	c-3.259-3.133-6.159-6.751-8.7-10.858c-7.091-11.473-9.432-23.741-7.017-36.803l-3.176,4.033
	c-0.868,6.459-0.721,12.862,0.446,19.211c1.48,8.042,4.497,15.462,9.049,22.257c4.381,6.479,9.831,11.907,16.351,16.291
	l-3.937-6.986L166.718,136.075z M217.11,148.333c-8.424,2.434-17.242,2.571-26.451,0.412c-6.753-1.587-12.744-4.203-17.972-7.844
	l0.191,0.573l7.081,11.812l0.761,0.984c3.408,1.546,6.425,2.729,9.049,3.555c0.805,0.255,1.503,0.423,2.097,0.509
	c3.641,0.995,7.209,1.599,10.7,1.811c2.878,0.234,5.481,0.275,7.811,0.128c2.35-0.169,4.244-0.393,5.684-0.667
	c0.384-0.02,0.955-0.105,1.718-0.25c2.285-0.405,5.206-1.188,8.764-2.354l-6.957-5.938L217.11,148.333z M252.039,116.073
	c-4.023,11.07-11.242,19.823-21.657,26.26c-3.154,1.947-6.35,3.545-9.589,4.793l1.271,1.366l8.479,6.956
	c2.136-0.955,4.645-2.267,7.521-3.939c9.084-5.695,16.101-13.22,21.057-22.577l-4.827-9.397L252.039,116.073z M286.583,56.857
	c-2.729,8.637-4.001,16.014-3.808,22.131c0.01,0.428,0.056,0.96,0.115,1.542c-0.354,4.322,0.881,8.829,1.948,12.949
	c-0.296,0.218-0.45,0.594-0.182,0.99c0.292,0.432,0.544,0.883,0.771,1.345c0.594,2.333,1.176,4.668,1.743,7.01
	c0.173,1.576,0.288,3.153,0.474,4.653c0.697,5.66,1.923,11.223,2.473,16.917c0.803,8.284,0.634,16.594-0.489,24.793
	c-1.078,4.071-2.093,8.126-2.482,12.105c-0.053,0.008-0.104,0.023-0.157,0.032c-0.656,1.476-1.383,2.889-2.177,4.242
	c0.061,1.95,0.15,4.447,0.271,7.494c0.154,3.505,0.208,6.524,0.159,9.049l0.668,0.73c-0.203-0.16-0.426-0.275-0.668-0.351
	c-0.021,0.815-0.053,1.577-0.096,2.285c-0.043,2.118-0.043,5.326,0,9.624c0.085,4.295,0.063,7.606-0.063,9.938
	c-0.067,0.869-0.124,1.734-0.172,2.604c-0.117,2.123-0.176,4.246-0.176,6.379c0,2.057,0.022,5.039,0.065,8.955
	c-0.278,4.086-0.383,7.111-0.317,9.08c0.083,0.681,0.125,2.339,0.125,4.987c0.087,2.115,0.201,3.746,0.351,4.891
	c0.378,1.967,0.677,3.32,0.891,4.064c0.635,2.496,0.909,3.979,0.825,4.443c-0.235,1.186-1.027,1.705-2.384,1.559
	c-1.374-0.148-2.137-0.783-2.285-1.91c-0.063-0.316,0.169-1.486,0.699-3.525l0.856-3.525c0.169-0.975,0.299-2.336,0.381-4.094
	v-4.191c0.235-3.915,0.306-6.374,0.223-7.368c-0.232-3.174-0.305-6.072-0.223-8.697c0.148-4.912,0.179-7.973,0.096-9.18
	c-0.06-0.582-0.111-1.205-0.159-1.871c-0.196-2.883-0.259-6.536-0.189-10.957c0.134-4.788,0.16-8.455,0.077-11.002
	c-0.356-0.098-0.743-0.006-1.156,0.269c-0.257,0.173-0.485,0.31-0.685,0.398c-0.118,0.468-0.357,0.796-0.713,0.982
	c0.035,0.348,0.196,0.702,0.478,1.065c-0.299,0.316-0.445,0.901-0.445,1.748c-0.529,0-0.866,0.604-1.017,1.808
	c0.552,0.234,1.121,0.838,1.718,1.81c0.083,0.15,0.199,0.295,0.348,0.442c0.146,0.085,0.146,0.191,0,0.317
	c-0.148-0.042-0.519-0.486-1.112-1.333c-0.55-0.743-0.977-1.081-1.269-1.018c-0.318,0.086-0.479,0.341-0.479,0.763v1.048
	l-1.587-0.444c0,0.085-0.104,0.84-0.314,2.256c-0.169,0.827,0.053,1.355,0.666,1.588c0-0.445,0.04-0.71,0.126-0.794
	c0.104,0.101,0.233,0.187,0.382,0.272c0.306,0.169,0.708,0.313,1.207,0.428c0.209,0.298,0.169,0.59-0.129,0.889
	c0.444,0.256,0.56,0.531,0.352,0.828c-0.13-0.225-0.606-0.462-1.43-0.718c-0.12-0.033-0.246-0.072-0.382-0.11l-0.699,0.573
	c0.235,0.739,0.275,1.231,0.127,1.461c-0.085,0.251-0.348,0.635-0.793,1.143c-0.444,0.463-0.637,0.889-0.572,1.266
	c0,0.236,0.149,0.523,0.445,0.861c0.254,0.4,0.335,0.717,0.254,0.951c-0.934,0.424-1.568,1.355-1.908,2.795l-1.174-0.127
	c-0.235,0.781-0.352,1.207-0.352,1.271c-1.056-0.064-1.956,0.135-2.699,0.6c-0.169,0.744,0.136,1.42,0.922,2.037
	c0.211,1.352,0.349,2.104,0.414,2.254c-0.764,0.762-0.84,1.748-0.224,2.951c-0.215,0.299-0.359,0.492-0.445,0.572
	c-0.147,0.234-0.147,0.461,0,0.668c-0.739,0.613-1.153,1.184-1.237,1.717c0.593,0,1.048,0.252,1.365,0.762l0.668,1.268
	c-0.531,1.059-1.165,1.631-1.905,1.717c-0.468,0-0.891-0.201-1.271-0.605c-0.446-0.338-0.645-0.791-0.605-1.365l-1.427-0.189
	c-0.127,0.211-0.467,0.475-1.018,0.793c-0.613,0.299-1.006,0.51-1.176,0.637l-1.111,0.381c-0.445-0.168-0.966-0.553-1.557-1.143
	c-0.677,0.379-1.216,0.508-1.618,0.379c-0.211-0.084-0.423-0.285-0.638-0.604c-0.058-0.055-0.114-0.107-0.171-0.158
	c-0.025,2.27-0.05,4.256-0.082,5.969c2.032-0.236,3.134,1.168,3.303,4.191c0.066,2.989-1.006,4.372-3.208,4.157
	c-0.063,3.178-0.095,17.426-0.095,42.74c0,0.742-0.073,3.727-0.224,8.953c-0.148-3.705-0.223-5.85-0.223-6.445v-45.148
	c-2.582,0.084-3.786-1.229-3.619-3.938c0.044-0.574,0.138-1.066,0.288-1.494c-0.405,0.189-0.901,0.275-1.492,0.254
	c-1.523-0.086-2.36-0.805-2.512-2.156c-0.082-0.934,0.151-2.236,0.701-3.908c0.739-2.414,1.141-3.775,1.204-4.096
	c0.171-1.1,0.254-2.611,0.254-4.539v-4.861c0.052-1.281,0.084-2.729,0.097-4.35c-0.565,0.053-1.031,0.012-1.396-0.127
	c-0.086-0.615,0.14-0.965,0.666-1.049h0.748c0.006-1.93-0.011-4.086-0.049-6.459c-1.313-0.289-2.092-0.432-2.349-0.432
	c-0.718,4.235-1.08,8.249-1.08,12.038l0.253,4.066c0.066,1.967-0.052,4.805-0.349,8.51c-0.063,1.27,0.054,3.227,0.349,5.875
	c0.066,1.035-0.052,2.506-0.349,4.413c-0.233,2.053-0.352,3.523-0.352,4.414v9.336c0,0.828-0.015,2.086-0.043,3.775
	c0.145-0.057,0.318-0.078,0.521-0.063c-0.155,0.48-0.331,0.842-0.521,1.08c0.047,1.053,0.213,2.516,0.49,4.381
	c0,1.973-0.169,5.029-0.507,9.18c-0.104,1.057-0.085,2.602,0.063,4.637c0.169,2.053,0.211,3.564,0.126,4.539
	c-0.126,2.119-0.189,5.523-0.189,10.223c0,2.033-0.095,5.082-0.285,9.145c-0.125,3.746-0.033,6.828,0.285,9.238
	c0.041,0.107,0.298-0.051,0.763-0.477c-0.168,0.236-0.168,0.443,0,0.639c0.149,0.189,0.338,0.393,0.571,0.604
	c0.169,0,0.352-0.15,0.541-0.443c0.233-0.213,0.509-0.32,0.828-0.32c-0.553,0.107-0.828,0.436-0.828,0.984
	c-0.087,0.531,0.233,0.754,0.954,0.668c-0.319,0.086-0.404,0.232-0.256,0.443c0.3,0.381,0.402,0.688,0.319,0.92l1.078,0.666
	c-0.234,0-0.507,0.158-0.826,0.479c0.232,0.168,0.349,0.551,0.349,1.141l0.319,0.094c0.211,0,0.297,0.088,0.253,0.258
	c-0.298-0.17-0.53-0.17-0.699,0c0.296,0.211,0.222,0.539-0.222,0.982c0.063,0.381,0.063,0.613,0,0.697
	c0,0.068-0.148,0.213-0.443,0.447c-0.236,0.086-0.276,0.211-0.13,0.383c-0.146,0.211-0.103,0.42,0.13,0.635
	c-0.17-0.086-0.331-0.129-0.476-0.129c-1.208,0.613-2.046,1.238-2.511,1.873c0.084,1.482,0.021,3.844-0.188,7.08
	c-0.215,3.113-0.288,5.506-0.225,7.176c0.36,7.559,0.325,17.232-0.095,29.025c-0.258,3.533,0.01,6.928,0.79,10.191
	c0.13,0.912,0.383,2.16,0.763,3.744c-0.231,1.357-1.038,1.918-2.412,1.688c-1.035-0.154-1.481-0.936-1.331-2.35
	c0.444-1.674,0.708-2.861,0.792-3.559c0.444-2.246,0.592-5.484,0.444-9.715c-0.212-5.355-0.285-8.766-0.226-10.225
	c0.063-1.27,0.035-3.186-0.092-5.746c-0.17-4.383-0.138-8.324,0.092-11.816c0.063-2.178,0.063-4.779,0-7.809l-0.348-7.523
	c-0.083,0.084-0.148,0.039-0.188-0.127c-0.087-0.105-0.169-0.203-0.257-0.289c-0.296,0.193-0.676,0.162-1.141-0.098
	c-0.423-0.398-0.719-0.598-0.891-0.598c-0.441,0.402-0.75,0.635-0.919,0.695c0.299-0.314,0.341-0.74,0.127-1.266
	c-0.317-0.531-0.647-0.711-0.985-0.541c0.189-0.932-0.189-1.545-1.141-1.844c0.126-0.127,0.232-0.457,0.314-0.982
	c0.064-0.551,0.227-0.922,0.478-1.115c-0.402,0-0.604-0.125-0.604-0.377c0.637-0.234,0.839-0.689,0.604-1.365
	c0.254,0,0.507-0.18,0.763-0.541c0.233-0.402,0.465-0.637,0.698-0.701c0.127-0.168,0.127-0.318,0-0.443
	c-0.169-0.168-0.211-0.285-0.126-0.348c0.379,0.148,0.688,0.148,0.92,0c0.086-0.215,0.043-0.414-0.126-0.604v-0.129
	c0.169,0.318,0.467,0.414,0.889,0.289c0.464-0.213,0.697-0.596,0.697-1.145c0.148,0.063,0.268,0.178,0.352,0.352
	c0.148,0.148,0.327,0.189,0.54,0.125l0.126-3.744c0.086-1.23,0.042-3.123-0.126-5.686c-0.213-2.498-0.275-4.381-0.189-5.648
	c0.031-0.893,0.057-1.781,0.079-2.672c-1.085,0.584-1.982,0.963-2.683,1.145c0.147-0.148,0.476-0.316,0.981-0.508
	c0.405-0.236,0.67-0.479,0.797-0.727c-0.299,0.248-0.604,0.336-0.923,0.248c0.171-0.762,0.742-1.301,1.718-1.619
	c0.296,0.637,0.113,1.016-0.542,1.146c0.063,0.084,0.243,0.084,0.542,0c0.039-0.02,0.084-0.035,0.127-0.047
	c0.197-7.674,0.169-15.287-0.097-22.846c-0.17-2.119-0.213-5.1-0.13-8.955c0.019-0.811,0.035-1.576,0.051-2.303
	c-1.194,0.842-2.693,1.332-4.493,1.479v40.262c-0.084-1.146-0.127-2.059-0.127-2.734v-37.52c-1.524,0-2.698-0.521-3.525-1.557
	c-0.17-0.232-0.307-0.465-0.414-0.701c-0.315,0.236-0.699,0.469-1.144,0.701c0.171,0.381,0.521,0.602,1.048,0.666
	c0.742,0.084,1.183,0.168,1.335,0.256c1.291,0.74,1.597,2.02,0.917,3.84c-0.674,1.82-1.818,2.307-3.426,1.457v23.342
	c-0.063-3.092-0.098-4.773-0.098-5.049l-0.124-13.654c0.23-2.414,0.271-3.883,0.124-4.418c-0.676-0.652-1.176-1.182-1.493-1.584
	c-0.76-0.764-1.099-1.439-1.015-2.033c0.105-0.615,0.443-1.131,1.015-1.555c0.828-0.764,1.282-1.186,1.369-1.27
	c0-0.15-0.099-0.268-0.289-0.354c-0.315-0.125-0.518-0.232-0.603-0.314c-0.234-0.299-0.35-0.721-0.35-1.27
	c-0.128-0.17-0.128-0.254,0-0.254c0.169-0.043,0.287-0.102,0.35-0.188l0.252-0.574c0.341-0.273,0.553-0.572,0.64-0.891
	c0.23-0.912,0.271-2.721,0.124-5.428l-0.124-36.153c-0.28,0.055-0.576,0.305-0.892,0.746c-0.298,0.551-0.711,0.709-1.237,0.479
	c-0.087-0.996,0.252-1.674,1.014-2.033c0.228-0.139,0.597-0.266,1.115-0.383v-1.521c-0.427-0.219-0.754-0.42-0.985-0.604
	c-0.087,0.086-0.573,0.201-1.461,0.35c-0.613,0.064-1.005,0.33-1.173,0.795c0.231,1.439-0.054,2.318-0.858,2.635
	c0.104,1.078,0.115,3.109,0.033,6.098c-0.105,3.006-0.105,5.184,0,6.541c0.082,0.381,0.24,1.037,0.474,1.969
	c0.234,0.824,0.16,1.398-0.223,1.713c-0.44,0.424-0.813,0.299-1.11-0.379c-0.235-0.596-0.203-1.09,0.096-1.492
	c-0.299-0.084-0.592,0.033-0.89,0.348c-0.254,0.234-0.445,0.354-0.571,0.354c-0.764-0.15-1.249-0.383-1.462-0.701
	c-0.084-1.207,1.007-1.621,3.27-1.238c0.171-1.506,0.215-3.695,0.128-6.574c0-3.262,0.043-5.471,0.127-6.637
	c-0.465-0.102-0.783-0.453-0.952-1.047c-0.212-0.764-0.435-1.227-0.668-1.398c-0.593-0.527-1.46-0.549-2.602-0.063
	c-1.184,0.424-1.757,1.018-1.718,1.779c-0.358,0.209-0.772,0.295-1.237,0.254c-0.594-0.086-0.994-0.086-1.207,0
	c-0.486,0.127-0.838,0.539-1.046,1.238c-0.316,1.141-0.52,1.777-0.603,1.906c-0.66-0.297-0.66-1.184,0-2.666
	c0.169-0.703,0.476-1.121,0.92-1.27c0-0.262,0.067-0.521,0.205-0.777c-1.882,1.344-3.579,2.678-5.097,4.002
	c-0.02,6.176-0.048,13.482-0.095,21.926c2.88-0.703,5.346-0.215,7.396,1.455c1.887,1.61,2.83,3.624,2.83,6.034
	c-0.087,2.33-1.188,4.182-3.304,5.559c-1.97,1.355-4.317,1.83-7.049,1.43l-0.063,44.707v6.098c0.041,2.055,0.307,3.82,0.793,5.303
	c0.147,0.486,0.412,1.279,0.794,2.381c0.318,1.104,0.338,1.906,0.063,2.414c-0.275,0.762-0.955,1.113-2.033,1.049
	c-1.122-0.086-1.812-0.574-2.064-1.463c-0.021-0.398,0.065-0.941,0.253-1.619c0.236-0.68,0.352-1.129,0.352-1.365
	c-0.148-0.086-0.361-0.086-0.636,0c-0.486,0.148-0.762,0.221-0.825,0.221c0.063-0.148,0.623-0.486,1.684-1.014
	c0.549-1.441,0.855-3.25,0.918-5.428v-6.225c-0.145-5.76-0.18-13.326-0.095-22.701v-22.42c-1.017-0.527-1.738-0.951-2.162-1.268
	c-1.902-1.59-2.58-3.896-2.03-6.92c0.425-2.922,1.735-4.894,3.939-5.909c0.084-8.15,0.127-14.385,0.127-18.703
	c-0.022-0.805-0.042-1.598-0.063-2.381c-2.262,2.135-4.053,4.254-5.367,6.352l-2.095,2.953l-2.097-2.826
	c-2.181-3.016-5.419-6.012-9.716-8.988c-0.051,3.504-0.041,8.395,0.033,14.668c0,0.912,0.011,1.799,0.032,2.668
	c0.233,0.084,0.581,0.211,1.047,0.383c0.506,0.145,1.026,0.178,1.556,0.092c0.234-0.064,0.498-0.326,0.794-0.793
	c0.297-0.361,0.604-0.582,0.92-0.668c0.298-0.064,0.626,0.096,0.983,0.477c0.531,0.445,0.953,0.701,1.271,0.764
	c0.506,0.236,1.183,0.393,2.031,0.479c0.741,0.361,1.491,1.215,2.257,2.572c0.762,1.377,1.494,2.209,2.19,2.508
	c-0.316,4.698-1.429,7.948-3.335,9.745c-1.185,1.145-2.764,1.801-4.729,1.971c-1.928,0.125-3.633-0.201-5.115-0.982
	c0.023,1.906-0.031,4.898-0.157,8.986c0-3.877-0.043-6.922-0.128-9.145c-0.063-0.043-0.116-0.076-0.158-0.098v41.248
	c0,1.268-0.041,3.238-0.126,5.904c0,0.867,0.305,2.297,0.919,4.285c0.064,0.424,0.253,1.143,0.573,2.156
	c0.211,0.98,0.254,1.688,0.127,2.133c-0.317,0.906-0.995,1.406-2.032,1.492c-1.165,0-1.853-0.416-2.065-1.24
	c-0.125-0.445,0.181-1.916,0.921-4.412c0.529-2.416,0.837-3.93,0.92-4.543v-11.779c0-0.785-0.084-9.338-0.254-25.658l-0.73,0.701
	v-11.178c-1.863-1.393-3.049-2.732-3.555-4.002c-0.126-0.338-0.212-0.709-0.255-1.109c-0.466,0.316-0.929,0.455-1.396,0.41
	c-1.27-0.166-1.861-1.037-1.778-2.601c0-0.615,0.287-1.98,0.855-4.098c0.53-1.736,0.762-3.365,0.699-4.891
	c-0.085-1.266-0.009-4.506,0.224-9.713c0.086-1.463,0.086-3.355,0-5.688c-0.143-2.797-0.221-4.711-0.224-5.746
	c-3.71-2.022-7.827-3.998-12.351-5.922c0.008,1.966,0.114,4.798,0.316,8.497l-0.443,3.619c-0.233,4.082,0.443,9.639,2.032,16.668
	c-1.058-0.086-1.693,0.383-1.905,1.398c-0.319,0.887-0.022,1.521,0.889,1.904c-0.591,0.297-1.121,0.4-1.587,0.316
	c-1.29-0.127-1.937-0.846-1.937-2.158c0-0.447,0.254-1.609,0.762-3.492c0.784-2.732,1.247-6.742,1.397-12.033
	c-0.15-3.176-0.267-5.602-0.349-7.273c0.149-3.04,0.233-5.603,0.254-7.683c-5.216-2.193-10.962-4.32-17.242-6.384
	c0.021,0.126,0.032,0.221,0.032,0.288c-0.445,0.214-0.773,0.171-0.984-0.126c-0.125-0.173-0.173-0.345-0.142-0.507
	c-0.592-0.191-1.191-0.381-1.794-0.574c-0.003,2.004,0.017,4.407,0.063,7.209c0.042,5.187,0,8.987-0.128,11.397
	c-0.168,3.643-0.042,6.531,0.382,8.67c0.317,0.254,0.435,0.561,0.35,0.92l-0.096,0.096c0,0.021,0.01,0.053,0.033,0.098
	c0.168,0.379,0.401,0.982,0.697,1.807c0.233,0.744,0.308,1.389,0.224,1.938c-0.149,0.744-0.785,1.111-1.906,1.111
	c-1.145,0-1.756-0.441-1.842-1.334c-0.063-0.527,0.042-1.289,0.317-2.283c0.401-1.121,0.676-1.957,0.826-2.512
	c0.615-2.41,0.699-4.686,0.253-6.824c0,0.123-0.127,0.242-0.38,0.35c-0.38,0.102-0.678,0.201-0.888,0.287
	c-0.298,0.299-0.562,0.441-0.795,0.441c-0.741,0.148-1.62-0.379-2.634-1.586l-1.334,1.014c-0.465-0.299-0.573-0.676-0.316-1.141
	c0.211-0.424,0.592-0.678,1.144-0.764c-0.086-0.402-0.127-0.75-0.127-1.045c0.951-1.586,2.263-2.191,3.937-1.809
	c0.211,0.357,0.709,0.771,1.492,1.236c-0.095-6.862-0.148-12.715-0.159-17.561c-0.171-0.05-0.341-0.104-0.508-0.16
	c-0.466-0.142-0.925-0.288-1.382-0.441c0.083,0.354,0.024,0.702-0.175,1.045c-0.696,0.169-1.27-0.103-1.715-0.825
	c-0.263-0.338-0.352-0.673-0.27-0.999c-1.785-0.683-3.482-1.449-5.096-2.301c0.128,0.302,0.308,0.692,0.541,1.173
	c0,0.319-0.063,0.73-0.19,1.24c0,0.149,0.147,0.424,0.444,0.825c0.232,0.211,0.264,0.423,0.095,0.635
	c-0.446-0.658-0.772-1.184-0.984-1.585c-0.529-0.743-1.037-1.068-1.523-0.987c-0.338,0.087-0.667,0.393-0.983,0.923
	c-0.296,0.589-0.562,0.991-0.795,1.205c0.382,0.572,0.499,1.64,0.35,3.207v1.333c-0.148,0.465-0.488,0.658-1.015,0.572
	c-0.256-0.085-0.487-0.274-0.7-0.572c-0.317-0.359-0.541-0.581-0.667-0.666c-0.72-0.528-1.408-0.75-2.063-0.667
	c0.084,1.419-0.021,4.096-0.317,8.034c-0.214,3.172-0.182,5.706,0.093,7.588c0.063,0.295,0.18,0.709,0.35,1.238
	c0,1.377-0.042,3.537-0.126,6.477c0.401,0.213,1.005,0.666,1.81,1.365c0.932,0.527,1.768,0.564,2.509,0.098
	c0.148-1.205,0.454-1.854,0.919-1.938c0.361,0.256,0.615,0.902,0.764,1.938c0.168,0.234,0.55,0.352,1.143,0.352
	c0.529,0.889,1.185,1.564,1.969,2.033c1.038,0.549,1.884,0.402,2.54-0.445c0.636,0.383,1.101,1.018,1.398,1.904
	c0.233,0.551,0.499,1.387,0.793,2.508c0.295,0,0.676-0.043,1.144-0.127l-0.826,2.158c0.613,0,1.196,0.383,1.747,1.145
	c0.506,0.316,2.053,0.668,4.634,1.049c0.063,0.213,0.201,0.389,0.414,0.537c0.253,0.086,0.381,0.244,0.381,0.479
	c0.063,0.676-0.434,1.121-1.492,1.332c-1.503,0.232-2.327,0.426-2.476,0.574c-0.466,1.141-1.186,2.018-2.159,2.635
	c0,1.038,0.033,1.642,0.096,1.81c-0.212,0.273-0.657,0.684-1.334,1.238c-0.17,0.527-0.105,1.279,0.191,2.258
	c-0.508,0.93-1.345,1.619-2.509,2.061c-0.043-0.316-0.297-0.436-0.763-0.35c-0.361,0.082-0.699,0.232-1.016,0.443
	c0.149,0.973,0.179,1.535,0.096,1.684c-0.741-0.148-1.683,0.012-2.826,0.479c-0.147-0.32-0.444-0.514-0.889-0.576
	c-0.466,0-0.805,0.162-1.017,0.477c0.171,0.574,0.097,1.094-0.222,1.557c-0.381,0.553-0.888,0.828-1.524,0.828
	c-0.042,0.086-0.104,0.453-0.19,1.115c0,0.441-0.192,0.707-0.572,0.791c0.168-0.232,0.168-0.541,0-0.92
	c-0.317-0.443-0.476-0.73-0.476-0.857v-1.238c0-0.49-0.147-0.803-0.445-0.951c-1.121,0.148-1.768,0.486-1.936,1.014
	c-0.065,0.381-0.065,1.367,0,2.953c0.168,1.586,0.168,2.635,0,3.143l-0.318,0.729c0,0.063,0.074,0.17,0.222,0.318
	c0.232,0.063,0.306,0.182,0.223,0.35c0.233,1.441,0.191,3.215-0.126,5.334c-0.298,2.623-0.445,4.361-0.445,5.207
	c0.084,4.322,0.846,8.598,2.287,12.83c0.359,0.656,0.508,1.059,0.445,1.207c-0.065,0.17-0.212,0.299-0.445,0.377
	c-0.403,0.15-0.657,0.266-0.762,0.354c-0.317,0.127-0.678,0.422-1.08,0.887c-0.298,0.363-0.508,0.541-0.636,0.541
	c-0.529,0.086-1.111-0.098-1.746-0.541c-0.508-0.549-0.805-1.121-0.889-1.715c-0.063-0.744,0.084-1.717,0.444-2.92
	c0.529-1.377,0.879-2.328,1.048-2.855c0.401-1.316,0.688-2.746,0.857-4.289c-0.085,0.043-0.169,0.084-0.254,0.129
	c-0.38-0.172-0.413-0.479-0.095-0.924l0.412,0.033c0.021-0.424,0.042-0.844,0.063-1.27c0.104-1.461,0.042-3.545-0.191-6.256
	c-0.168-2.646-0.253-4.615-0.253-5.906c0.084-1.416,0.063-3.574-0.063-6.477c-0.721,0.488-1.27,0.838-1.652,1.051
	c-0.128,0.762,0.032,1.734,0.476,2.92l-1.143,1.24c-0.678,0.697-1.058,1.045-1.145,1.045c-0.741,0.084-0.953-0.52-0.634-1.809
	c0.233-1.08,0.562-1.875,0.984-2.383c-1.039-2.053-1.629-3.758-1.778-5.113c-0.168-0.17-0.551-0.727-1.145-1.682
	c-0.466-0.719-1.005-1.039-1.618-0.951c-0.042,1.08,0.423,2.117,1.396,3.111c1.121,0.889,1.683,1.48,1.683,1.777
	c0,0.32-0.191,0.623-0.572,0.922c-0.359,0.316-0.539,0.539-0.539,0.666c-0.083,0.168,0.021,0.635,0.319,1.396
	c0.38,1.188,0.539,2.012,0.476,2.477c-0.084,0.299-0.422,0.738-1.016,1.332c-0.147,0.402-0.266,0.975-0.35,1.715
	c-0.168,0.467-0.636,1.027-1.396,1.684c-0.741,0.639-1.185,1.166-1.334,1.584c-0.592,0.109-1.152,0.457-1.683,1.047
	c-0.698,0.762-1.205,1.207-1.524,1.338c-1.396,0.402-2.519,0.338-3.366-0.193c-0.212-0.613-0.508-1.078-0.889-1.396
	c-0.233,0.088-0.392,0.289-0.476,0.604c-0.086,0.318-0.202,0.479-0.35,0.479l-0.571-0.127c-0.232-0.766-0.413-1.25-0.539-1.461
	c-0.932-0.273-1.503-0.539-1.715-0.795c-0.444-1.139-0.751-2.02-0.921-2.635c-1.355-0.74-2.595-1.113-3.716-1.113
	c0.233,0.953,0.075,1.674-0.476,2.16c-0.444,0.426-1.196,0.537-2.254,0.35c-0.613,0.74-1.102,1.068-1.461,0.982
	c0.042-0.146,0.454-0.832,1.237-2.061c-0.253-0.299-0.295-0.73-0.127-1.305c0.317-0.635,0.508-1.057,0.573-1.27l1.364,0.318
	c0.148-0.297,0.455-0.486,0.92-0.572c0.298,0,0.709-0.041,1.239-0.125c0.086-0.572-0.137-1.018-0.667-1.334
	c-0.613-0.385-0.962-0.617-1.048-0.699c0.086-0.234,0.287-0.266,0.604-0.096c0.296,0.064,0.508,0.021,0.636-0.127
	c0-0.127-0.137-0.35-0.412-0.666c-0.317-0.297-0.392-0.561-0.222-0.797c0.148-0.08,0.296-0.049,0.445,0.098
	c0.211,0.254,0.317,0.254,0.317,0c-0.084-0.146-0.497-0.563-1.238-1.238c-0.529-0.527-0.762-1.027-0.699-1.494
	c-0.655-0.105-0.878-0.432-0.667-0.984c0.38-0.613,0.604-1.025,0.667-1.236l0.446-2.316l0.729-0.891
	c-0.085-0.359-0.085-0.648,0-0.855c0.063-0.193,0.539-0.469,1.43-0.828l0.349-0.574l1.716-1.045
	c0.529-0.445,0.942-0.729,1.238-0.855c0.085-0.086,0.275-0.131,0.573-0.131c0.296-0.086,0.487-0.199,0.572-0.348
	c0.148,0.148,0.358,0.189,0.635,0.127c0.402,0,0.646-0.088,0.73-0.252c0.064-0.149,0.021-0.319-0.127-0.509
	c-0.233-0.318-0.434-0.445-0.603-0.383c0.487,0.17,0.529,0.424,0.127,0.762c-0.085-0.211-0.412-0.623-0.984-1.236
	c0.149,0,0.223-0.104,0.223-0.318c0.083-0.232,0.158-0.348,0.223-0.348l0.35,0.666l0.062-0.541c0.318,0.15,0.942,0.742,1.875,1.777
	c0.593,0.784,1.417,1.134,2.476,1.05c0.084-0.297,0.307-0.561,0.667-0.795c0.17-0.084,0.476-0.241,0.921-0.478
	c0.127-0.189,0.349-0.664,0.666-1.428c0.063-0.166,0.296-0.293,0.7-0.379c0.296-0.234,0.518-0.521,0.667-0.859l1.366-0.127
	c0-1.055-0.233-1.934-0.699-2.635c-0.592-0.15-0.963-0.305-1.112-0.473c0.296-0.131,0.402-0.393,0.317-0.797
	c-0.212-0.338-0.36-0.625-0.443-0.855c0.083-0.488,0.348-0.781,0.794-0.891c0.593-0.191,0.974-0.422,1.143-0.697
	c-0.086-0.299-0.338-0.531-0.762-0.699c-0.551-0.148-0.858-0.268-0.921-0.352c0-0.592,0.032-0.922,0.095-0.984
	c0.298-0.168,0.741-0.168,1.336,0c0.634,0.232,1.101,0.354,1.396,0.354c0-0.49,0.296-0.912,0.889-1.273
	c0.613-0.402,0.962-0.813,1.046-1.24c-0.636-0.316-1.101-0.781-1.396-1.396c-0.361-0.654-0.275-1.258,0.254-1.809
	c0.359,0.32,0.952,0.508,1.779,0.574c0.528,0.086,1.291,0.168,2.284,0.254c0.149,0,0.732,0.148,1.748,0.443
	c0.506,0.148,0.921,0.115,1.238-0.098c0.21-3.578,0.275-5.896,0.19-6.953c-1.504,0.848-2.795,0.965-3.875,0.348
	c-0.359-0.613-0.73-0.941-1.112-0.984c-0.676-0.252-1.355-0.072-2.031,0.541l0.159,0.541c-0.212,0-0.422-0.01-0.636-0.035
	c-0.846,0.871-1.375,1.336-1.587,1.398c-0.359-0.275-0.688-0.348-0.983-0.223c-0.317,0.148-0.434,0.732-0.35,1.746
	c0,0.869-0.191,1.387-0.571,1.559c-0.318-0.086-0.688-0.352-1.112-0.793c0.655,0,1.026-0.117,1.112-0.352
	c0.083-0.59-0.075-0.887-0.478-0.887c0.403-1.443-0.601-2.16-3.016-2.16v3.047l0.857,0.221l-0.857,0.131v8.635
	c-0.083,0.211,0.021,0.359,0.317,0.445c-0.211,0-0.317,0.072-0.317,0.221c0.042,0.213,0.149,0.625,0.317,1.238
	c0.128,0.443-0.021,0.711-0.445,0.795c-0.316-0.084-0.434-0.393-0.347-0.922c0.233-0.654,0.347-1.1,0.347-1.33
	c-0.146-0.236-0.634-0.541-1.458-0.92c-0.614-0.404-1.005-0.818-1.176-1.24c-0.359,0-0.699-0.117-1.016-0.352
	c-0.296-0.293-0.444-0.551-0.444-0.762c0.403,0.045,0.857,0.299,1.366,0.762c0.466,0.465,0.889,0.742,1.271,0.83
	c0.212,0.102,0.466,0.314,0.763,0.633c0.063,0,0.221,0.16,0.476,0.477c0.148,0.213,0.221,0.252,0.221,0.127v-8.51
	c-0.317,0.063-0.55-0.023-0.697-0.256c0.55,0,0.783-0.158,0.697-0.475v-2.793c-1.904,0.676-3.271,0.824-4.096,0.441
	c-0.086-0.043-0.18-0.137-0.287-0.285c-1.524-2.688-2.603-4.646-3.238-5.875c0.065-0.402-0.009-1.178-0.221-2.318l-0.159-2.318
	l-0.032,0.033c-0.063-0.129-0.054-0.256,0.032-0.382l-0.032-0.316c-0.55-0.063-0.869-0.212-0.953-0.444
	c0.148-0.235,0.042-0.645-0.318-1.24c0.53,0.148,1.016,0.148,1.462,0c0.379-0.465,0.379-0.889,0-1.271
	c-0.614-0.441-0.954-0.771-1.017-0.981c-0.147-0.637,0.012-1.121,0.477-1.459c0.506-0.488,0.792-0.912,0.856-1.271
	c0.551,0,1.207-0.383,1.969-1.144c-0.465-0.996-0.359-1.706,0.319-2.126c0.466-0.235,1.153-0.604,2.063-1.114
	c0.128-0.189,0.275-0.507,0.445-0.952c0.021-0.125,0.068-0.208,0.11-0.301c0.088-0.085,0.183-0.167,0.271-0.255
	c0.038-0.038,0.076-0.076,0.114-0.113c0.152,0.192,0.408,0.784,0.776,1.781c0.275,0.783,0.763,1.129,1.459,1.044v-5.051
	c0.043-0.044,0.086-0.086,0.13-0.131v5.172c0.889,0,1.408-0.347,1.555-1.044c0.233-0.507,0.276-1.291,0.128-2.349
	c-0.233-1.062-0.38-1.748-0.443-2.065c-0.057-0.307-0.099-0.561-0.15-0.847c0.208-0.221,0.409-0.449,0.613-0.673l0.205,0.885
	c0.508,2.563,0.878,4.055,1.111,4.479c0.403,0.085,0.783-0.022,1.144-0.316c0.254,0,0.487,0.105,0.699,0.316l0.795,0.793
	c0.233,0.167,0.497,0.328,0.793,0.478c0.127,0.23,0.19,0.581,0.19,1.049c0.529,0,0.951,0.104,1.271,0.316l0.699,2.38
	c2.773,0.383,3.673,1.324,2.698,2.829c-0.317-0.086-0.687,0-1.11,0.252c-0.466,0.361-0.816,0.541-1.049,0.541
	c-0.508-0.087-0.877-0.129-1.112-0.129c-1.059,0-2.117,0.464-3.176,1.396c-1.376,1.12-2.296,1.8-2.763,2.032
	c-0.444-0.465-0.73-0.624-0.856-0.475c-0.17,0.168-0.17,0.411,0,0.729c0.126,0.252,0.191,0.464,0.191,0.634
	c-0.065,0.233-0.287,0.499-0.668,0.796c-0.21,0.234-0.36,0.465-0.444,0.697c-0.084,0.275,0.021,0.793,0.317,1.557
	c0.318,0.783,0.393,1.396,0.222,1.842l1.716,2.732c0.698,1.121,1.566,1.313,2.603,0.572c0.149,0.299,0.53,0.338,1.145,0.123
	c0.296-0.17,0.445-0.514,0.445-1.045c0.38-0.316,0.846-0.389,1.396-0.221c0.296,0.061,0.741,0.18,1.333,0.348
	c0.212-0.236,0.212-0.537,0-0.92c0.741-0.127,1.418-0.506,2.033-1.141c0.38-0.383,0.889-0.986,1.523-1.811l1.556,0.697
	c0.233-1.355,0.254-2.975,0.064-4.858c-0.127-2.158-0.232-3.717-0.317-4.668c0-7.608-0.042-13.543-0.127-17.797
	c-1.078-1.012-2.095-2.086-3.047-3.221c-0.638,0.232-1.186,0.645-1.653,1.222c-0.062-0.145-0.131-0.283-0.203-0.419
	c0.234-0.823,0.315-1.781,0.238-2.873c-0.819-1.109-1.586-2.274-2.303-3.491c-0.086,0.124-0.123,0.303-0.173,0.468
	c-0.141-1.468-0.443-2.935-0.813-4.373c-1.412-5.495-3.3-10.71-4.411-16.306c-0.6-3.021-1.087-6.06-1.486-9.111
	c0.3-9.232,0.945-18.442,2.075-27.614c0.438-2.317,0.772-4.647,0.956-6.983c0.881-5.526,3.866-13.331,2.213-19.299
	c0.026-0.813-0.049-1.629-0.272-2.445c0.024,0.005,0.057,0.007,0.08,0.013c-0.422-5.869-2.168-12.765-5.24-20.688
	c-1.989-5.312-4.35-10.552-7.08-15.716l-0.921-1.716l12.511-11.621l1.556,0.761c15.94,7.155,31.964,9.346,48.074,6.574
	c9.313-1.587,17.56-4.52,24.733-8.795l1.177-0.731l1.334,0.667c7.197,3.833,15.579,6.255,25.149,7.273
	c16.213,1.796,32.013-1.349,47.404-9.432c0.021-0.011,0.041-0.021,0.066-0.032l1.488-0.857l13.309,10.858l-0.796,1.748
	C290.3,45.976,288.236,51.353,286.583,56.857z M121.278,241.142c-1.461-1.438-2.382-1.943-2.762-1.52
	c0.254,1.844,1.515,3.248,3.778,4.223C122.677,243.229,122.337,242.331,121.278,241.142z M149.032,231.143
	c0.084,0.299,0.275,0.401,0.571,0.316c0.297-0.064,0.446-0.23,0.446-0.508c-0.086-0.318-0.275-0.434-0.573-0.35
	C149.179,230.664,149.032,230.844,149.032,231.143z M142.826,180.196c-0.859-0.62-1.689-1.271-2.494-1.954
	c0.005,1.836,0.112,3.423,0.317,4.763c0-0.167,0.116-0.285,0.348-0.351c0.17,0,0.403-0.041,0.699-0.126
	c-0.296-0.168-0.392-0.37-0.285-0.604c0.296,0,0.646,0.044,1.049,0.127C142.501,181.195,142.622,180.575,142.826,180.196z
	 M144.044,181.258c-0.022-0.091-0.05-0.18-0.078-0.269c-0.369-0.25-0.733-0.502-1.095-0.762c0.093,0.275,0.189,0.702,0.285,1.286
	C143.431,181.343,143.729,181.258,144.044,181.258z M196.532,210.16h-0.159c-0.487,0.168-0.794,0.135-0.921-0.1
	c-0.125-0.277-0.168-0.688-0.125-1.24c0.084-0.529,0.125-0.93,0.125-1.205c0.15-0.172,0.499-0.297,1.047-0.383
	c-0.021-1.107-0.042-2.191-0.061-3.27c-0.747-0.475-1.519-0.949-2.319-1.43c-0.816-0.48-1.653-0.965-2.511-1.445l-0.03,7.51
	c0,1.672,0.136,4.27,0.413,7.779c0,0.846-0.042,2.248-0.127,4.195c-0.085,1.822-0.085,3.195,0,4.129
	c0.104,1.057,0.361,2.434,0.764,4.129c0.04-0.236,0.084-0.479,0.125-0.732c0.507-2.58,1.683-4.307,3.525-5.176
	c0-0.783,0.011-1.6,0.033-2.445C196.415,215.227,196.489,211.787,196.532,210.16z M198.311,222.6l-0.032-17.416
	c-0.107-0.072-0.214-0.145-0.317-0.221l-0.032,5.32c-0.086,4.93-0.012,9.018,0.22,12.254
	C198.194,222.559,198.248,222.578,198.311,222.6z M243.146,203.756c-0.517,0.139-0.927,0.24-1.24,0.303
	c-0.424,0.082-0.792,0.051-1.112-0.098c0.402,1.441,0.141,2.414-0.791,2.924c-0.403-0.742-0.701-1.271-0.893-1.586
	c-0.302-0.521-0.629-0.836-0.984-0.939c-0.041,20.797-0.063,34.603-0.063,41.423c0.256,0.041,0.48,0.084,0.667,0.125
	c0.256-2.287,1.726-3.576,4.417-3.873V203.756z M238.985,202.914c-0.141-0.404-0.428-0.758-0.856-1.064v1.207
	C238.389,203.006,238.67,202.959,238.985,202.914z M247.717,237.399c-0.232-5.186-0.306-9.042-0.223-11.562
	c-0.146-2.813-0.266-4.959-0.351-6.441c0.296-4.785,0.341-8.301,0.127-10.541c-0.634-0.088-1.395-0.66-2.286-1.719
	c0.319-0.738,0.511-1.469,0.574-2.189c0.507-0.383,0.764-0.68,0.764-0.889c-0.063,0-0.212-0.076-0.443-0.223
	c-0.133-0.146-0.269-0.146-0.414,0.002c-0.319,0-0.508,0.178-0.573,0.537c-0.17,0.467-0.372,0.699-0.602,0.699
	c-0.234-0.086-0.446-0.275-0.64-0.572c-0.161-0.313-0.287-0.527-0.377-0.652v38.185c1.563-0.17,2.94,0.127,4.127,0.889
	c0.109,0.066,0.218,0.137,0.316,0.207C247.633,241.241,247.633,239.329,247.717,237.399z M253.974,195.8
	c0.072,0.142,0.167,0.281,0.287,0.414c-0.012-0.519-0.019-1.049-0.034-1.587c-0.069-2.924-0.117-5.48-0.143-7.668
	c-0.806,0.335-1.605,0.667-2.396,1c-0.137,3.634-0.176,5.73-0.126,6.286c0.823,0.045,1.279,0.446,1.363,1.208
	c-0.613-0.063-0.982,0.348-1.11,1.239c1.12,0.297,1.906,0.369,2.351,0.221c0.104-0.212,0.061-0.423-0.129-0.632
	C253.91,196.025,253.888,195.863,253.974,195.8z M254.846,204.498h0.238c0.088,0,0.612-0.221,1.589-0.664
	c0.609-0.381,1.141-0.414,1.585-0.098c0.295-0.316,0.443-0.887,0.443-1.715c0.149-0.316,0.225-0.541,0.225-0.666
	c-0.064-0.234-0.402-0.646-1.019-1.239c-0.527-0.638-0.749-1.178-0.665-1.622c0.895-0.465,1.542-0.917,1.937-1.347
	c-0.006-1.217-0.01-2.421-0.015-3.622c-0.281-0.384-0.541-0.656-0.778-0.809l-0.699-0.296c0.021,0.222-0.003,0.471-0.063,0.746
	c-0.212,0.38-0.591,0.645-1.143,0.793c-0.655,0.212-1.175,0.136-1.557-0.221c-0.056,0.857-0.1,1.839-0.126,2.935
	c0.638,0.423,1.567,0.776,2.793,1.063c-0.486,0.507-1.364,0.654-2.634,0.442c-0.062-0.013-0.118-0.025-0.173-0.032
	C254.767,199.985,254.789,202.104,254.846,204.498z M255.006,190.277c0.222-0.269,0.511-0.504,0.872-0.7
	c-0.084-0.317,0.033-0.639,0.35-0.954c0.3-0.294,0.445-0.516,0.445-0.664c-0.282-0.645-0.631-1.192-1.05-1.634
	c-0.187,0.079-0.376,0.158-0.571,0.235C254.995,188.004,254.979,189.242,255.006,190.277z M259.274,226.475
	c-0.008-2.201-0.012-4.375-0.015-6.521c-0.82,0.367-1.492,0.361-2.018-0.016c0.063-0.596,0.138-1.006,0.221-1.242
	c0-0.465,0.152-0.846,0.444-1.143c0-1.291-0.103-2.35-0.316-3.174c-0.232,0-0.476-0.193-0.729-0.572
	c-0.212-0.531-0.338-0.816-0.381-0.859c-0.573-0.082-0.89-0.285-0.953-0.602c-0.063-0.297,0.212-0.91,0.826-1.842
	c0.424-0.74,0.424-1.387,0-1.938c0.593-0.063,1.174-0.393,1.747-0.984c0.429-0.471,0.8-0.814,1.112-1.033v-0.998
	c-0.169-0.211-0.38-0.443-0.636-0.699c-0.509,0-1.494,0.191-2.955,0.572c-0.259,0.07-0.509,0.127-0.744,0.174
	c0.043,1.463,0.103,3.025,0.173,4.686v4.732c-0.083,1.902-0.02,3.416,0.189,4.539l0.921,3.969c0.573,2.199,0.88,3.525,0.922,3.971
	C257.634,226.92,258.363,226.582,259.274,226.475z M264.388,184.817c-0.148-0.784-0.529-1.175-1.143-1.175
	C263.01,184.425,263.395,184.817,264.388,184.817z M280.201,173.195c-0.014-0.411-0.031-0.816-0.046-1.208
	c-0.412,0.461-0.84,0.912-1.27,1.351c0.33,0.545,0.766,1.234,1.302,2.063C280.197,174.731,280.201,173.998,280.201,173.195z
	 M283.769,184.943c-0.015-0.661-0.042-1.242-0.075-1.748c-0.012-0.228-0.022-0.461-0.031-0.698c-0.184,0.04-0.373,0.095-0.573,0.158
	c-0.777,0.244-1.185,0.556-1.223,0.939c0.022,0.12,0.036,0.24,0.047,0.351c0.056,0.126,0.14,0.255,0.253,0.395
	c0.17,0.234,0.436,0.348,0.794,0.348C283.355,184.757,283.624,184.842,283.769,184.943z M283.898,167.067
	c-1.004,1.564-2.112,3.041-3.318,4.428c-0.041,1.732-0.044,3.23-0.015,4.494c0.438,0.661,0.932,1.404,1.477,2.222
	c-0.105-0.019-0.224-0.019-0.35,0c-0.148,0.55-0.148,1.018,0,1.397c0.086,0.126,0.244,0.414,0.478,0.856
	c0.38,0.994,0.835,1.609,1.365,1.843c0.038-0.003,0.075-0.012,0.11-0.016c-0.103-2.726-0.085-6.053,0.048-9.988
	C283.778,170.303,283.849,168.559,283.898,167.067z M278.702,67.268c0.672-3.688,1.678-7.657,3.018-11.907
	c1.572-5.082,3.446-10.054,5.624-14.924l-7.747-6.287c-0.297,0.152-0.59,0.299-0.888,0.445c-13.588,6.766-27.485,9.878-41.692,9.336
	c-6.04-3.234-12.579-5.445-19.623-6.637h-0.033c-3.973-0.615-7.905-0.88-11.796-0.792c-0.373,0.006-0.75,0.017-1.127,0.031
	c-3.082,0.116-6.141,0.455-9.177,1.016h-0.032l-1.683,0.318c-2.457,0.571-4.307,1.057-5.558,1.459h-0.096
	c-1.82,0.509-4.286,1.44-7.397,2.795c-2.27,1.026-4.598,2.265-6.986,3.716c-14.489,1.438-28.883-0.954-43.182-7.176l-7.273,6.73
	c2.436,4.807,4.583,9.665,6.445,14.575v-0.063c3.537,9.124,5.408,16.977,5.621,23.56c0.038,1.366-0.185,3.837-0.668,7.415
	c-0.099,0.736-0.209,1.518-0.334,2.349c-0.288,2.004-0.642,4.285-1.063,6.844c-0.341,2.007-0.653,3.895-0.938,5.667
	c-0.06,0.371-0.118,0.735-0.174,1.094c-0.622,3.922-1.104,7.245-1.445,9.97c-0.023,0.163-0.044,0.32-0.063,0.476
	c-0.041,0.305-0.077,0.602-0.112,0.89c-0.28,2.371-0.503,4.664-0.667,6.875c-0.102,1.383-0.182,2.739-0.238,4.063
	c-0.132,3.123-0.136,6.07-0.016,8.844c0.636,23.539,10.129,38.196,28.483,43.976c16.152,4.957,29.095,10.373,38.835,16.258
	c0.63,0.379,1.243,0.763,1.842,1.145c0.411,0.259,0.813,0.518,1.205,0.776c0.943,0.621,1.844,1.236,2.699,1.855
	c3.098,2.234,5.648,4.465,7.652,6.699c1.963-2.416,4.484-4.869,7.576-7.352c0.534-0.43,1.092-0.861,1.665-1.298l3.651-2.62
	c0.145-0.102,0.297-0.202,0.446-0.301c9.285-6.35,21.745-12.44,37.371-18.275c6.041-2.317,11.027-5.584,14.954-9.794
	c1.048-1.125,2.023-2.317,2.922-3.571c0.302-0.424,0.592-0.854,0.876-1.29c0.162-0.243,0.32-0.49,0.475-0.743v-0.019
	c0.238-0.383,0.471-0.776,0.699-1.174c0.306-0.537,0.594-1.081,0.875-1.639c3.451-6.865,5.146-15.307,5.079-25.32
	c0-0.686-0.012-1.38-0.032-2.082v-0.014c-0.007-0.173-0.013-0.348-0.017-0.524c-0.119-3.015-0.382-6.229-0.796-9.636
	c-0.317-2.619-0.727-5.355-1.22-8.208c-0.042-0.272-0.094-0.542-0.143-0.81c-0.005-0.023-0.011-0.043-0.018-0.065
	c-0.014-0.103-0.029-0.203-0.046-0.302c-0.005-0.043-0.011-0.085-0.019-0.126c-0.014-0.084-0.028-0.167-0.047-0.253
	c-0.107-0.63-0.232-1.296-0.365-2c-0.005-0.033-0.011-0.065-0.018-0.096c-0.389-2.045-0.879-4.394-1.458-7.049
	c-0.275-1.281-0.577-2.63-0.905-4.049c-0.056-0.262-0.115-0.528-0.175-0.792c-0.237-1.045-0.485-2.125-0.746-3.238
	c-0.032-0.14-0.062-0.284-0.098-0.429c-0.501-2.22-0.933-4.236-1.299-6.049c-0.033-0.146-0.063-0.296-0.098-0.444
	c-0.146-0.732-0.282-1.43-0.415-2.096c-0.032-0.171-0.063-0.34-0.095-0.506c-0.632-3.396-0.961-5.845-0.982-7.35
	C277.581,75.578,277.909,71.619,278.702,67.268z M226.921,50.757l7.305,1.367l8.509,3.11l5.43,2.923
	c-4.15-4.044-8.81-7.421-13.973-10.13c-5.165-2.71-10.592-4.625-16.287-5.747c-3.854-0.68-7.654-0.995-11.402-0.953l-5.683,3.587
	c4.595-0.107,9.275,0.401,14.034,1.525C219.174,47.455,223.193,48.894,226.921,50.757z M153.032,80.444
	c1.799-5.374,4.34-10.234,7.62-14.574l-2.222,0.507c-3.811,5.251-6.68,11.083-8.605,17.497l1.746-2.126L153.032,80.444z
	 M193.008,45.739l5.365-3.84l-3.905,0.665c-0.804,0.17-2.657,0.667-5.557,1.494c-2.688,0.888-5.111,1.821-7.27,2.793l-1.716,0.953
	l3.366,0.888C186.446,47.379,189.685,46.396,193.008,45.739z M164.08,61.775c3.155-3.345,6.839-6.319,11.052-8.923
	c1.037-0.634,2.074-1.229,3.111-1.778l-2.795-0.729l-0.096-0.095l-4.825,3.461c-3.345,2.645-6.268,5.438-8.765,8.383l1.271-0.256
	L164.08,61.775z M243.65,297.03c-0.082-0.148-0.019-0.189,0.193-0.127l0.477,0.127C244.002,297.327,243.78,297.327,243.65,297.03z"
	/>
<path fill="#F47D20" d="M226.444,50.662l-7.049-0.255l-19.686,1.208l-7.589-0.604l3.398-2.762l5.302-3.333
	c4.595-0.107,9.273,0.401,14.035,1.525c4.317,1.015,8.338,2.454,12.067,4.317L226.444,50.662z M209.169,74.856l12.322,7.779
	l4.476,3.399l7.493,6.668l10.957,12.289l3.399,4.572l4.223,6.508c-4.023,11.071-11.242,19.824-21.657,26.26
	c-3.154,1.948-6.35,3.545-9.589,4.793l-1.748-1.747l-7.364-9.429l-2.447-4.065l-6.316-12.002l-12.83-29.213l-1.524-2.827
	l-5.588-7.271l-2.285-1.938l-4.858-2.983l-3.11-1.047l2.826-4.699l0.221-0.509l2.858-4.063l9.24,1.492l4.255,1.111l1.333,0.539
	l2.987,0.793L209.169,74.856z M197.549,65.966l-4.508-1.46l-0.317-0.032l-8.414-2l-3.176-0.38l7.047-7.652l0.604-0.508l1.114,0.253
	l9.812,0.984l19.749-1.174l4.384,0.063l9.462,1.588l2.729,1.046c4.406,3.62,8.227,8.042,11.465,13.271
	c7.623,12.364,9.769,25.604,6.444,39.723c-0.168,0.7-0.35,1.407-0.538,2.127l-2.604-4.382l-10.955-13.335L227.81,82.92l-2.826-2.16
	l-14.192-9.146L197.549,65.966z M208.408,137.315l4.827,6.793l3.874,4.224c-8.426,2.434-17.241,2.571-26.451,0.413
	c-6.753-1.585-12.745-4.203-17.973-7.844l-4.637-11.049l-2.761-11.145l-0.762-5.43l-0.096-10.732l1.24-8.574l3.27-11.238
	l2.065-4.574v-0.16l1.047,0.223l2.382,0.793l2.096,1.079l2.032,1.429l3.524,3.587l3.335,4.637l3.047,5.46l13.656,31.086
	L208.408,137.315z M181.546,51.899l0.764,0.318l0.348,0.063l2,0.604l-5.938,6.254l-1.84,2.507l-4.923-0.253l-0.573-0.128
	l-7.303,0.508c3.153-3.345,6.838-6.317,11.051-8.922c1.036-0.634,2.074-1.229,3.111-1.779L181.546,51.899z M189.708,48.151l-2,1.844
	l-0.158,0.032l-1.049-0.38l-0.572-0.097l-2.635-0.858c3.153-1.313,6.392-2.296,9.716-2.953L189.708,48.151z M163.574,65.427
	l7.748-0.477l3.08,0.128l-1.397,1.97l-4,6.953l-2.126-0.032l-2.923,0.318l-1.428,0.381l-4.002,1.619l-3.588,2.446l-1.905,1.714
	c1.799-5.375,4.34-10.234,7.62-14.574L163.574,65.427z M165.797,77.618h1.206l0.222-0.063l-3.145,8.097l-2.572,11.145l-0.762,11.021
	l0.983,11.365l2.858,11.874l2.128,5.019c-3.261-3.133-6.161-6.753-8.7-10.858c-7.091-11.472-9.432-23.74-7.017-36.803l3.205-4.094
	l2.891-2.764l3.238-2.126l2.159-0.984L165.797,77.618z"/>
</svg>
