<?xml version="1.0" encoding="utf-8"?>
<!-- Generator: Adobe Illustrator 16.0.0, SVG Export Plug-In . SVG Version: 6.00 Build 0)  -->
<!DOCTYPE svg PUBLIC "-//W3C//DTD SVG 1.1//EN" "http://www.w3.org/Graphics/SVG/1.1/DTD/svg11.dtd">
<svg version="1.1" id="Layer_1" xmlns="http://www.w3.org/2000/svg" xmlns:xlink="http://www.w3.org/1999/xlink" x="0px" y="0px"
	 width="400px" height="400px" viewBox="0 0 400 400" enable-background="new 0 0 400 400" xml:space="preserve">
<g>
	<path fill-rule="evenodd" clip-rule="evenodd" fill="#111730" d="M349.377,160.005c0.721-0.201,1.7-0.494,2.94-0.879l-0.05,0.05
		c0.889-0.218,1.718-0.167,2.488,0.151c2.598,0.938,4.282,1.759,5.053,2.463c-9.1,7.223-20.109,11.555-33.03,12.996
		c-5.095,0.57-10.448,0.687-16.063,0.352c-3.771-0.201-7.532-0.695-11.286-1.483l-0.151,0.729l-0.352,0.679
		c5.697,2.832,14.067,3.971,25.111,3.418c0.989-0.084,1.944-0.151,2.866-0.201c4.775-0.436,8.429-0.821,10.959-1.156h0.026
		c1.524-0.301,2.421-0.436,2.689-0.402h0.075c0.787,0,1.517,0.227,2.187,0.679l0.025,0.025c0.972,0.52,2.221,1.366,3.745,2.54
		c-2.681,1.29-5.496,2.362-8.445,3.217c-3.604,1.073-7.399,1.81-11.388,2.212c-1.743,0.151-3.536,0.251-5.38,0.302
		c-7.121,0.134-14.118-0.704-20.989-2.514c-1.927-0.536-3.854-1.14-5.781-1.81l-9.477-3.57c0.284-0.67,0.511-1.391,0.678-2.162
		v0.025c0.185-0.62,0.294-0.955,0.327-1.006v-0.075c0.101-0.084,0.269-0.134,0.503-0.151l8.044-1.333h0.025
		c3.485-0.771,7.239-2.12,11.262-4.047l-0.327-0.704l0.428-0.578l-2.514-1.785c1.005-0.318,2.044-0.662,3.116-1.03l-0.025,0.553
		l2.916,0.528c4.743,0.888,10.541,0.754,17.396-0.402c2.782-0.486,5.74-1.131,8.873-1.936h0.025L349.377,160.005z M368.33,136.778
		c2.749-1.609,5.799-3.402,9.15-5.38l7.893-4.75c-5.514,6.418-11.479,12.091-17.897,17.018c-6.921,5.329-14.37,9.761-22.347,13.297
		c-5.682,2.48-11.823,4.382-18.426,5.706c-5.362,0.989-11.027,1.601-16.993,1.835l-2.011,0.125
		c5.631-2.062,12.125-4.969,19.481-8.723h0.025l0.05-0.025c0.185-0.117,0.369-0.209,0.553-0.276
		c9.317-3.167,17.605-6.569,24.861-10.206C355.184,144.193,360.404,141.319,368.33,136.778z M353.801,105.809
		c-1.475,1.827-4.231,4.877-8.271,9.15c-0.066,0.067-0.125,0.125-0.176,0.176c-4.071,4.357-7.23,7.491-9.477,9.401h-0.025
		c-2.194,1.894-5.346,4.282-9.451,7.164c-0.335,0.218-0.695,0.453-1.081,0.704v0.025c-3.066,2.179-6.82,4.491-11.262,6.938v-0.025
		c-2.598,1.357-6.494,3.394-11.688,6.108h-0.05l-2.69,1.382l0.578,1.207l2.766-1.207l0.024-0.025
		c7.575-3.268,15.242-7.03,23.001-11.287c0.353-0.184,0.754-0.41,1.207-0.679c2.095-1.257,5.094-3.276,8.999-6.058l0.051-0.05
		c2.027-1.76,3.561-3,4.6-3.721c1.105-0.804,2.137-1.315,3.092-1.533c-3.787,4.022-9.645,9.117-17.571,15.284
		c-0.536,0.436-1.089,0.871-1.659,1.307l-17.018,12.846c-2.346,1.659-4.056,2.564-5.128,2.714l-0.075,0.051
		c-3.653,0.637-8.203,1.206-13.65,1.709l-13.725,1.307c-11.513,1.19-19.305,4.475-23.378,9.854
		c-1.558,1.994-2.572,4.231-3.041,6.711c-0.437,2.162-2.137,3.678-5.104,4.55c-1.595,0.488-3.107,0.459-4.537-0.088
		c-0.577-0.218-1.144-0.524-1.696-0.917c-0.989-0.72-1.65-1.315-1.986-1.785c0.05-0.536,0.059-0.997,0.025-1.383
		c0.581,0.079,1.154,0.117,1.722,0.114c3.16-0.028,6.097-1.356,8.811-3.985c2.112-2.078,4.433-5.555,6.963-10.432
		c2.497-4.843,5.137-7.985,7.919-9.426h0.05c3.369-1.911,7.524-3.67,12.468-5.279c0.88-0.297,1.751-0.599,2.615-0.905
		c0.087-0.031,0.175-0.06,0.264-0.088c0.217-0.081,0.435-0.16,0.653-0.239c0.048-0.017,0.094-0.034,0.139-0.05
		c0.65-0.237,1.295-0.476,1.936-0.716c7.103-2.692,13.437-5.637,19.004-8.835c5.547-3.234,11.981-8.061,19.305-14.479
		c-0.67,2.111-1.793,4.281-3.368,6.51c-1.273,1.844-3.829,4.165-7.667,6.963h-0.025c-2.446,1.827-5.605,3.813-9.477,5.958
		c-2.195,1.173-5.479,2.95-9.854,5.33c-0.017,0-0.042,0.017-0.075,0.05l-0.025,0.025l-2.664,1.458l0.577,1.131l2.716-1.207
		c12.199-5.279,25.506-13.23,39.917-23.855v-0.05c2.431-1.81,4.902-3.695,7.416-5.656h0.051c0.771-0.604,1.558-1.232,2.362-1.885
		c6.368-5.078,13.583-11.086,21.644-18.024C357.588,100.53,355.93,103.111,353.801,105.809z M166.93,71.497
		c-7.926,3.553-15.023,8.278-21.291,14.177c-5.245,4.81-9.669,10.147-13.272,16.013c11.932-4.491,23.889-7.433,35.871-8.823
		c1.123-3.804,1.659-7.29,1.609-10.457C169.796,78.535,168.824,74.898,166.93,71.497z M171.43,82.255
		c0.369,3.185,0.168,6.595-0.604,10.231c4.592-0.419,9.217-0.595,13.876-0.527c3.369-9.704,7.29-18.878,11.765-27.525
		c-8.53,0.402-16.868,2.128-25.012,5.178l-4.173,1.734C169.662,74.53,171.044,78.166,171.43,82.255z M170.374,66.595
		c8.781-3.15,17.897-4.65,27.349-4.5l3.997,0.125c10.608,0.67,20.714,3.318,30.315,7.943c7.207,3.502,13.726,7.894,19.558,13.172
		c1.894,1.709,3.721,3.519,5.48,5.429c7.172,7.81,12.651,16.641,16.438,26.495c3.481,8.837,5.287,18.083,5.418,27.739
		c-0.652,0.252-1.314,0.5-1.986,0.742c0.371-9.593-1.032-18.986-4.21-28.179c-3.369-9.871-8.681-18.727-15.938-26.57
		c-1.726-1.927-3.553-3.729-5.479-5.405c-1.593-1.424-3.227-2.748-4.902-3.972c-8.161-0.804-15.124-0.687-20.889,0.352
		c-3.688,0.67-6.963,1.776-9.829,3.318l-4.122,2.865l-1.609,1.76l-1.206,2.162c-0.653,1.324-1.14,2.773-1.458,4.349l5.58,1.407
		c6.268,1.743,12.2,4.014,17.798,6.813c0.737,0.318,1.458,0.67,2.161,1.056c6.536,3.502,12.436,7.458,17.697,11.865
		c9.585,7.865,17.871,17.446,24.86,28.745c-0.134,0.047-0.268,0.093-0.402,0.138c-8.17-10.825-16.867-19.782-26.092-26.872
		c-6.587-5.078-13.508-9.292-20.764-12.644c-5.195-2.43-10.549-4.408-16.063-5.933l-5.305-1.282l-0.024,2.212
		c-0.051,3.234,0.31,6.67,1.081,10.307c0.637,3.402,1.574,7.013,2.814,10.834c0.956,2.966,2.078,6.083,3.369,9.351
		c1.662,4.162,3.748,8.858,6.259,14.089l-3.218,0.742c-2.212-4.469-4.239-9.01-6.083-13.625c-1.123-2.782-2.128-5.472-3.017-8.069
		c-1.441-4.492-2.538-8.731-3.293-12.72c-0.704-3.938-0.988-7.608-0.854-11.01l0.201-2.715c-5.698-1.123-11.647-1.818-17.848-2.086
		l-1.458,5.103c-3.603,13.272-6.268,26.352-7.994,39.239c-0.604,4.743-1.106,9.552-1.508,14.429
		c-0.478,5.695-0.789,11.464-0.93,17.308l-0.528,0.515l-0.202,0.251c-0.689,0.242-1.389,0.581-2.099,1.019
		c-0.082-5.293,0.032-10.601,0.339-15.925c0.301-6,0.863-12.007,1.684-18.023c0.888-6.687,2.053-13.323,3.494-19.909
		c1.659-7.391,3.402-13.951,5.229-19.683l1.483-4.399c-4.207-0.134-8.521-0.067-12.946,0.202l-0.679,0.025l-0.352,1.282
		c-2.43,7.558-7.113,15.736-14.051,24.534l-9.527,10.558l-9.955,9.678c-1.851,1.989-3.552,4.009-5.103,6.058
		c-0.66-0.265-1.338-0.524-2.036-0.779c1.521-2.359,3.264-4.697,5.229-7.014l9.678-10.155l9.024-10.382
		c3.05-3.787,5.723-7.541,8.019-11.261c2.547-3.821,4.634-7.86,6.259-12.116l0.125-0.126c-10.994,0.972-22.741,3.167-35.243,6.586
		c-1.625,2.581-3.083,5.271-4.374,8.069c-4.441,9.368-6.905,19.247-7.391,29.637c-0.047,1.23-0.068,2.458-0.063,3.683
		c-1.024-0.381-2.034-0.767-3.029-1.156c0.011-0.925,0.036-1.852,0.076-2.778c0.385-10.775,2.782-21.04,7.189-30.793
		c4.374-9.653,10.608-18.216,18.702-25.69C151.454,75.552,160.503,70.081,170.374,66.595z M196.818,64.433
		c-3.821,9.519-7.055,18.71-9.703,27.576l4.826,0.276c4.273,0.268,8.488,0.821,12.645,1.659c0.419-1.86,1.03-3.536,1.835-5.027
		l1.482-2.413l2.087-2.162c1.341-1.173,2.924-2.179,4.751-3.017c3.017-1.441,6.544-2.413,10.583-2.916
		c6.317-0.805,13.306-0.436,20.965,1.106c-4.525-3.385-9.427-6.217-14.706-8.496c-9.552-4.207-19.557-6.418-30.014-6.636
		C199.961,64.332,198.377,64.349,196.818,64.433z M284.623,178.833l1.206,0.854c2.682,1.894,6,3.536,9.955,4.927h0.05
		c3.788,1.307,8.203,2.405,13.248,3.293c1.089,0.167,5.556,0.746,13.397,1.734h0.051c0.604,0.1,1.86,1.198,3.771,3.293v0.025
		c0.051,0.067,0.101,0.126,0.151,0.176h0.05c0.854,0.754,1.332,1.357,1.433,1.81l0.051,0.075c-0.386,0.051-0.696,0.076-0.931,0.076
		h-0.15l-0.101,0.05l-0.151,0.025c-9.636,2.245-18.333,2.446-26.092,0.603c-8.212-1.978-15.904-5.941-23.076-11.89v-0.025h-0.051
		l-0.603-0.478h0.05C280.551,182.813,283.132,181.296,284.623,178.833z M271.25,188.159l0.075-0.05l0.051-0.025
		c0.485-0.536,0.704-0.938,0.653-1.207l-0.125-0.402l-1.534-2.388l-0.352-0.704c1.76,0.184,3.352,0.251,4.776,0.201l0.352,0.403
		c4.122,5.127,9.543,9.167,16.264,12.116h0.05l4.525,1.81l0.05,0.025c0.554,0.268,1.392,0.603,2.515,1.005
		c0.771,0.436,1.323,0.896,1.658,1.382l-0.05-0.05c1.307,2.295,2.379,4.768,3.218,7.416c-11.145-1.224-22.348-7.482-33.608-18.777
		C270.471,188.645,270.965,188.394,271.25,188.159z M276.881,161.94c0.064-0.009,0.127-0.018,0.188-0.025
		c5.366-0.796,12.015-1.524,19.946-2.187c8.949-0.771,19.004-3.712,30.165-8.823c2.078-0.972,4.189-2.02,6.335-3.142
		c-1.341,1.207-2.916,2.371-4.727,3.494c-0.653,0.402-1.433,0.855-2.337,1.358h0.05c-1.826,0.972-4.215,2.153-7.164,3.544h-0.025
		c-2.313,1.173-9.376,4.064-21.19,8.672l-1.458,0.528l4.349,2.69c-5.782,2.329-13.75,3.251-23.905,2.765l-1.986-0.076l1.383,1.408
		c1.072,1.056,3.058,1.911,5.958,2.564c-0.923,2.832-2.892,4.608-5.907,5.329c-0.102,0.033-0.21,0.059-0.327,0.075h0.05
		c-1.724,0.291-3.658,0.261-5.807-0.088c-0.96-0.159-1.961-0.382-3.004-0.666c-0.391-0.109-0.788-0.227-1.193-0.352l-0.83-0.251
		l-0.126,0.855c-0.156,0.813-0.001,1.751,0.465,2.815c0.38,0.873,0.971,1.828,1.772,2.866c0.21,0.281,0.437,0.566,0.679,0.855
		c-0.269,0.151-0.545,0.31-0.829,0.478l-0.076-0.076l-0.2,0.151l0.024,0.051c-0.225,0.102-0.456,0.194-0.69,0.276
		c-1.217,0.447-2.565,0.673-4.048,0.678c-1.891,0-3.997-0.361-6.321-1.081h0.024l-2.891-1.005c-0.503-0.319-1.224,0.067-2.162,1.156
		c-0.972,1.156-1.24,2.916-0.805,5.279c-2.235,0.156-4.539-0.33-6.912-1.458c-0.643-0.301-1.287-0.648-1.936-1.043
		c-0.051-0.027-0.101-0.057-0.15-0.088v0.051c-0.956-0.688-3.763-2.908-8.422-6.662l-0.176-0.138l-0.414-3.281
		c0.199,0.161,0.346,0.27,0.439,0.327v-0.05c2.396,1.525,4.063,2.505,5.002,2.941c0.265,0.109,0.524,0.209,0.779,0.301
		c0.787,0.275,1.554,0.468,2.3,0.579c1.021,0.144,2.006,0.135,2.954-0.025h0.025c1.592-0.352,3.268-1.265,5.027-2.74
		c0.62-0.436,1.366-1.148,2.237-2.137v-0.025c0.386-0.402,0.628-1.064,0.729-1.986c0.084-0.771,0.177-1.265,0.276-1.483l0.051-0.101
		v-0.05c0.955-3.502,3.293-6.243,7.014-8.22c2.547-1.374,6.268-2.598,11.16-3.67c1.226-0.251,2.549-0.494,3.972-0.729
		C275.068,162.221,275.957,162.079,276.881,161.94z M133.171,231.873l-0.453-0.604l-1.282-1.282l-1.609-1.206l-0.075-0.076
		l-0.125-0.075l-1.156-0.905l-1.056-0.428l-0.955-0.603l-3.293-1.282l-2.237-0.201l0.302,0.151l-3.595-0.151l-4.223,1.282
		l1.634-1.081l5.681-2.011l9.225-4.449l1.207-0.779h1.358l3.167,0.779l1.81,0.704l3.544,2.061l7.617,6.512
		c0.033,0.016,0.076,0.041,0.126,0.074c0.101,0.102,0.209,0.21,0.327,0.327l0.276,0.227l-0.076,0.15v1.509l1.282,1.709l1.031,0.729
		l1.483,0.327l1.483-0.327l0.98-0.729l1.082-1.282v-0.427l0.201-0.729l-0.201-0.779v-0.829l-2.062-2.012l-0.879-0.125l-3.997-3.896
		l0.101-0.227l0.779-0.779v-0.352l0.201-0.15l-0.88-1.006c-0.154-0.268-0.309-0.536-0.465-0.805
		c-0.038-0.066-0.076-0.134-0.113-0.201c-0.029-0.05-0.058-0.1-0.088-0.15l-0.251-0.453l0.666,0.126l0.151,0.025v-0.025l1.483,0.226
		l7.868,2.564l3.544,2.111v0.881l0.93,1.81l1.282,0.754l1.483,0.201l1.282-0.201l1.282-0.754l0.955-1.81v-1.483l-0.227-0.729
		l-0.729-1.281l-1.282-0.779l-1.282-0.201l-0.604,0.101l-0.126-0.101l-8.823-4.047l-6.058-1.811c-0.135-0.006-0.265-0.01-0.39-0.012
		c-0.243-0.01-0.474-0.014-0.691-0.014l-1.131-0.05l-0.05-0.126h-2.036l-0.327-1.005v-0.075l-0.125-0.68
		c-0.017-0.084-0.025-0.168-0.025-0.251c-0.067-0.318-0.125-0.638-0.176-0.955l0.176,0.401l2.313-0.527l4.827-0.201l3.243,4.978
		l2.262,0.778l2.966-1.935l0.327-0.528l-0.779-1.608l-0.214-0.428l4.713,1.509l7.743,3.82l0.327,0.98l0.729,1.282l0.956,0.704
		l1.609,0.251l1.483-0.251l1.282-0.704l0.729-1.282l0.251-0.779v-1.231l-0.251-0.78l-0.729-1.281l-1.282-0.729l-1.483-0.227
		l-0.604,0.126l-1.709-1.383l-4.072-2.036l-4.449-1.482l-7.78-1.057l-0.314-0.565c-0.311-0.556-0.621-1.113-0.93-1.672
		c0.067,0.168-0.243-0.167-0.93-1.005l-0.679-0.805l-0.402-0.955c0.017-0.084,0.042-0.151,0.075-0.201l0.277-0.653l5.027-4.324
		l1.081,1.885l1.005,1.005l-0.175,0.076l-4.123,3.167l-0.453,0.854l3.218-1.81l2.74-0.453l3.645,6.736l2.011,0.73l3.167-2.213
		l-0.202-0.754l-0.729-1.482l-1.76-2.641l0.478,0.076l5.43,2.287l6.384,3.57v0.628l0.013,0.024l0.314,0.83l0.704,0.955l1.282,0.729
		l1.483,0.554l1.307-0.554l1.156-0.729l0.754-0.955l0.527-1.609l-0.527-1.482l-0.754-0.955l-1.156-0.729l-1.307-0.201l-0.704,0.125
		l-0.729-0.629l-0.05-0.05l-7.868-4.223l-5.53-1.81l-1.684-0.327l-2.287,0.402l-2.288-3.394l-0.201-0.729v-0.528l0.201-0.553
		l0.754-0.729l2.891-4.047l1.86,3.846l-0.503,0.201l-2.438,2.841l-0.754,2.262l0.503,0.754l1.206-0.754l3.495-1.609l0.527-0.05
		l0.528,0.729c0.006,0.006,0.015,0.015,0.025,0.025c0.044,0.044,0.103,0.103,0.176,0.176c0.369,0.503,0.754,1.014,1.156,1.533
		l-0.075-0.05l0.754,0.93l3.946,2.036l0.528-0.628l-0.125-0.05l1.157-1.357l0.452-0.729l-1.86-2.74l0.125,0.05l0.051,0.05
		c0.159,0.009,0.318,0.018,0.478,0.025l0.754,0.05l-0.277-0.025l0.528,0.025l3.041,0.804l0.553,0.202l0.201,0.076l5.178,1.935
		l0.578,1.156l1.282,0.604l1.483,0.327l1.282-0.327l1.257-0.604l0.754-1.408l0.2-0.729v-1.483l-0.955-1.709l-1.257-0.729
		l-1.282-0.327l-0.879,0.201l-5.179-1.936l-7.542-1.559l-4.072-0.251l0.201,0.251h-0.201l-2.212-3.217l-0.503-1.106l-0.201-0.402
		c-0.152-0.358-0.307-0.706-0.465-1.043c-0.04-0.071-0.078-0.142-0.113-0.213v-0.83l2.664-4.776l-0.326,1.031l0.201,0.754
		l0.83,1.056l-1.357,1.533l-0.729,1.232l-0.503,1.659l0.277-0.502l0.955-0.704l1.043-0.44l0.038-0.012l2.061-0.478l5.505,6.988
		l2.438,0.528l2.011-3.092l-3.62-4.776h0.854l4.198,0.779c0.034,0,0.075,0,0.126,0l5.103,1.383c0.151,0.017,0.327,0.059,0.528,0.125
		l0.88,0.276v0.327l2.011,1.885l1.482,0.301l1.509-0.301l2.137-1.885l0.201-0.905v-1.483l-0.201-0.502l-1.081-1.182l-1.056-0.754
		l-1.509-0.277c-0.167,0.017-0.326,0.059-0.477,0.125l-0.503,0.076l-0.629-0.276c-0.134-0.067-0.269-0.125-0.402-0.176l-2.011-0.477
		v-0.051l-0.44-0.176l-0.088-0.025v0.125l-1.207-0.277l0.05-0.15h-0.327l-0.025,0.075l-1.257-0.327l-8.496-0.93h-2.011l-0.679,0.201
		h-0.101l0.05,0.05h-0.05l-2.514-3.343v-0.955l0.302-1.282l-0.478,0.277l3.469-6.335v1.282l0.502,0.956l1.106,1.533l-0.365,0.465
		l-0.013,0.013l-1.03,1.81l-0.779,2.036l3.972-1.81l2.337,3.293l2.338,2.212l1.282,0.327l1.483-4.022l-0.327-0.553l-0.754-0.528
		l-1.131-1.357c-0.05-0.083-0.101-0.151-0.151-0.201l-0.528-0.604l3.846-0.604l2.74,0.327l4.047,0.955l0.805,0.076l0.678,1.005
		l1.408,0.729l1.357,0.201l1.282-0.201l1.257-0.729l0.754-1.081l0.201-0.754v-1.483l-0.201-0.729l-0.754-1.082l-1.257-0.729
		l-1.282-0.528l-0.88,0.402l-6.334-1.156h-5.304l-1.131,0.125l-2.388,0.628l-1.911,0.804l-1.583-3.771v-2.237l0.503-0.78l0.05-0.025
		l3.695-3.569l3.293-1.885l5.178-1.81l1.282-1.81l2.036-1.483h1.257l1.081,0.327l1.76,0.905l1.005,0.251l0.88,0.553l3.896-1.005
		l9.451-3.494l3.269-0.553h3.494l1.81,0.251l2.212,1.031l0.755,0.754l0.527,0.729l0.201,0.98v1.081l-0.729,3.494l-2.036,5.278
		l-1.156,5.028v4.248l0.226,2.011l0.931,4.248l3.544,34.211v2.564l-0.453,1.282l-1.055,1.685l-0.956,1.105l-1.08,0.704l-9.427,3.269
		l-12.82,2.99l-10.633,4.072l2.362-0.604l-31.195,12.394l-10.583,3.293l-13.6,2.011l-4.474,0.252l-12.87-0.98l-10.332-2.037
		l-6.988-2.338l-1.609-0.955L104.539,237v-2.035l0.251-0.604l0.83-1.408l0.402-0.478v-0.05h0.05l-0.453,0.854l-0.327,1.081v0.604
		l0.528,1.08l1.734,1.484l3.997,2.563l5.354,1.484l8.27,1.256l9.552,0.428l4.249-0.201v-0.201l0.327-0.025l-0.327-0.879v-0.177
		l-0.956-2.966l-0.729-1.483l0.1,0.29l-1.383-2.652L133.171,231.873z M211.474,156.008l2.79,2.563l0.704,1.483l6.837-0.528
		l4.173-1.734l1.811-1.232l1.482-1.533l0.955-1.483l0.327-1.559l-0.327-1.156l-2.212-2.062l-1.508-0.528h-2.338l-1.131,0.201
		l-12.066,3.871l-4.575,0.704L211.474,156.008z M196.064,156.31l0.854-1.559l-3.62,1.559l-6.46,4.273l-1.081,0.956l-0.729,1.03
		l-0.452,1.734l0.98,2.765l0.502,0.327l0.98-0.754L196.064,156.31z M205.616,169.809v1.609l-0.402,0.754l-0.88,0.402h-1.482
		l-0.201-0.125l0.754-0.276l0.528-0.554l0.2-0.729l0.528-1.081v-1.005l0.553,0.276L205.616,169.809z M200.64,183.408v1.483
		l-0.528,0.905l-0.754,0.402h-1.483v-0.201l0.201-0.78v-1.03l0.527-0.779l0.755-0.502l0.201-0.402l-0.276-0.327h0.075l0.754,0.528
		L200.64,183.408z M230.791,164.002l2.477,4.449c1.107,2.015,2.13,3.93,3.066,5.744c-0.619-0.042-1.247-0.138-1.885-0.289
		l-1.156-0.239l-2.69-4.587l0.151-4.978L230.791,164.002z M247.759,203.379l0.013-0.012c0.203,0.26,0.404,0.527,0.604,0.805
		c0.385,0.487,0.762,0.961,1.131,1.42c-0.264,0.206-0.528,0.411-0.791,0.615c-0.069-0.373-0.157-0.741-0.265-1.105l-0.024-0.101
		C248.188,204.429,247.966,203.889,247.759,203.379z M237.214,211.386c-0.259,0.518-0.824,1.233-1.696,2.149l-0.516-3.432
		l-0.904-10.658c0.266,0.851,0.583,1.773,0.954,2.765c1.123,2.966,1.827,5.127,2.112,6.484c0.092,1.225,0.121,2.033,0.088,2.426
		c-0.007,0.113-0.02,0.192-0.038,0.239V211.386z M238.646,208.47c0-0.083-0.008-0.167-0.024-0.251
		c0.308,0.516,0.622,1.019,0.942,1.508c0.423,0.645,0.854,1.265,1.295,1.86c-1.058,0.634-2.131,1.241-3.218,1.822
		c0.442-0.533,0.752-0.974,0.93-1.319c0.127-0.23,0.186-0.85,0.177-1.861c-0.002-0.464-0.02-1.008-0.051-1.633v-0.051
		L238.646,208.47z M253.629,189.566h0.125c0.084,0.017,0.822,0.285,2.213,0.804l0.075,0.025l0.402,2.765
		c0.067,0.548,0.188,1.106,0.364,1.671c0.285,0.927,0.717,1.874,1.295,2.841c0.29,0.486,0.617,0.976,0.98,1.47
		c0.804,1.19,2.077,2.916,3.82,5.179l1.86,2.941c0.201,0.352,0.302,1.29,0.302,2.814c-0.135,3-0.36,4.953-0.679,5.857v-0.051
		c-0.369,0.989-0.637,1.609-0.805,1.86h-0.025c0.151-0.185-0.293-0.737-1.332-1.659v-0.024l-4.575-3.696v-0.049
		c-1.758-1.551-4.079-4.114-6.963-7.692c-0.36-0.444-0.729-0.905-1.105-1.383c-0.21-0.276-0.415-0.565-0.616-0.868
		c-1.296-1.987-2.373-4.572-3.23-7.754c0.989,0.218,2.003,0.327,3.042,0.327l2.739-0.101c1.006-0.101,1.601-0.26,1.785-0.478
		c0.252-0.134,0.386-0.369,0.402-0.704l-0.038-0.013c0.016-0.049,0.028-0.103,0.038-0.164c0.033-0.285,0.009-0.645-0.075-1.081
		l-0.126-2.237L253.629,189.566z M233.28,189.956c0.269-0.404,0.524-0.861,0.767-1.37c1.909,1.687,4.791,3.32,8.647,4.902
		c0.207,0.083,0.417,0.167,0.628,0.251c0.017,0,0.025,0.008,0.025,0.025c0.268,0.117,0.536,0.227,0.805,0.327l-0.025,0.125
		c-0.247,1.292-0.105,2.854,0.428,4.688c0.113,0.4,0.248,0.815,0.401,1.244v-0.025c0.359,1.075,0.887,2.496,1.584,4.261
		c0.152,0.384,0.312,0.782,0.478,1.193l-0.051-0.074c0.164,0.578,0.273,1.174,0.327,1.784c0.176,2.214-0.385,4.651-1.685,7.315
		c-1.209-1.107-2.357-2.381-3.443-3.821c-0.449-0.599-0.889-1.227-1.319-1.886c-2.417-3.711-4.482-8.336-6.196-13.875
		c0-0.05-0.018-0.092-0.051-0.125l-0.93-2.84l-0.201,0.038L233.28,189.956z M233.318,220.637l-0.528,1.81l-1.483,2.237l-1.608,1.256
		l-3.922,2.037l-5.053,1.81l-12.945,2.363l-9.176,2.413l-11.035,4.248l-8.27,4.021l-11.085,7.014l-5.354,2.539l0.251,2.237
		l-0.076,1.483l-0.327,0.779l-0.553,0.527v-1.811l-0.729-5.957l-1.483-4.374l-0.779-0.703l-0.503-0.78l0.955,0.529l1.056,0.954
		l0.226,0.579l0.528,2.186l0.93,2.213l0.352-0.201l1.684-0.201l16.591-9.754l5.078-2.563l17.546-6.26l19.432-3.846l3.896-1.484
		l2.766-1.709l1.056-1.03l2.036-2.765l0.528-1.483v-1.282l0.2,1.482L233.318,220.637z M194.908,195.549v1.709l-0.528,0.528
		l-0.754,0.528l-0.729,0.201l-0.754-0.201l-0.251-0.125l0.251-0.403l0.427-1.734l1.257-0.905v-0.402L194.908,195.549z
		 M184.274,205.855l1.483-0.528l1.609,0.528l0.402,0.754v1.482l-0.402,0.73l-0.854,0.527l-0.754,0.251l-0.729-0.251l-0.754-0.527
		l-0.125-0.201h0.026l-0.428-1.082v-0.93L184.274,205.855z M176.206,214.176l0.83-0.251l0.754,0.251l0.729,0.503l0.452,0.402
		l0.327,1.081l-0.327,0.729l-0.452,0.578l-1.483,0.704l-0.327-0.101l0.201,0.15c-0.604-0.268-1.173-0.779-1.709-1.533l-0.176-0.527
		l0.201-1.081l0.202-0.402L176.206,214.176z M282.135,203.568c0.771,0.586,1.281,1.215,1.533,1.885v0.051
		c0.604,1.726,0.813,3.41,0.628,5.053v-0.076l-0.678,3.494c-0.101-0.066-0.21-0.109-0.327-0.125
		c-4.709-1.844-8.597-3.83-11.664-5.958h-0.05c-4.633-3.177-8.563-7.198-11.79-12.066c-0.559-0.832-1.095-1.691-1.608-2.577
		c-0.111-0.188-0.22-0.376-0.327-0.565l-1.257-2.212l2.79,0.377h0.076c0.215,0.005,0.429,0.01,0.641,0.013
		c1.392-0.004,2.711-0.118,3.959-0.339c0.496-0.093,0.982-0.202,1.458-0.327c1.039-0.268,1.936-0.511,2.689-0.729
		c0.956,2.631,3.193,5.497,6.712,8.597v0.05l4.399,3.721C279.889,202.319,280.827,202.897,282.135,203.568z M130.129,148.555
		c2.674,1.061,5.054,2.179,7.139,3.356h0.025c2.782,1.441,5.421,4.583,7.918,9.426c2.53,4.877,4.859,8.354,6.988,10.432
		c3.184,3.101,6.686,4.391,10.507,3.871c-0.033,0.386-0.017,0.847,0.05,1.383c-0.352,0.469-1.022,1.064-2.011,1.785
		c-1.91,1.357-3.988,1.693-6.233,1.005c-2.967-0.872-4.668-2.388-5.104-4.55c-0.469-2.48-1.483-4.717-3.041-6.711
		c-3.946-5.212-11.378-8.456-22.297-9.729c-0.285-0.036-0.574-0.069-0.868-0.1c-0.063-0.01-0.126-0.019-0.188-0.025l-13.75-1.307
		c-5.447-0.503-9.997-1.072-13.649-1.709l-0.076-0.051c-1.072-0.15-2.782-1.056-5.128-2.714l-17.018-12.846
		c-0.57-0.436-1.123-0.871-1.659-1.307c-7.91-6.167-13.767-11.262-17.571-15.284c0.955,0.218,1.986,0.729,3.092,1.533
		c1.039,0.721,2.572,1.961,4.6,3.721l0.05,0.05c3.905,2.782,6.905,4.801,9,6.058c0.452,0.269,0.854,0.495,1.207,0.679
		c7.759,4.257,15.426,8.019,23,11.287l0.025,0.025l2.791,1.207l0.553-1.207l-2.69-1.382h-0.05
		c-5.195-2.715-9.083-4.751-11.664-6.108v0.025c-4.457-2.447-8.22-4.759-11.286-6.938v-0.025c-0.386-0.251-0.746-0.486-1.081-0.704
		c-4.106-2.882-7.256-5.271-9.452-7.164h-0.025c-2.246-1.91-5.405-5.044-9.477-9.401c-0.05-0.05-0.101-0.109-0.151-0.176
		c-4.056-4.273-6.812-7.324-8.27-9.15c-2.145-2.698-3.804-5.279-4.977-7.742c8.044,6.938,15.25,12.946,21.618,18.024
		c0.804,0.653,1.6,1.282,2.388,1.885h0.025c2.514,1.96,4.994,3.846,7.44,5.656v0.05c14.396,10.625,27.693,18.576,39.893,23.855
		l2.74,1.207l0.553-1.131l-2.665-1.458l-0.025-0.025c-0.033-0.034-0.059-0.05-0.075-0.05c-4.374-2.38-7.659-4.156-9.854-5.33
		c-3.871-2.145-7.021-4.13-9.452-5.958h-0.05c-3.821-2.798-6.377-5.119-7.667-6.963c-1.575-2.229-2.698-4.399-3.369-6.51
		c7.324,6.418,13.758,11.245,19.305,14.479c5.059,2.907,10.757,5.604,17.094,8.094c1.003,0.39,2.021,0.776,3.054,1.156
		c0.271,0.101,0.543,0.202,0.817,0.301c1.19,0.436,2.405,0.863,3.645,1.282c1.187,0.386,2.33,0.78,3.431,1.182
		C128.862,148.059,129.502,148.306,130.129,148.555z M121.23,161.94c0.484,0.073,0.957,0.144,1.42,0.213
		c1.901,0.306,3.64,0.62,5.216,0.943c4.894,1.073,8.614,2.296,11.161,3.67c3.721,1.977,6.059,4.717,7.014,8.22v0.05l0.05,0.101
		c0.1,0.218,0.193,0.712,0.277,1.483c0.101,0.922,0.343,1.584,0.729,1.986v0.025c0.871,0.989,1.617,1.701,2.237,2.137
		c1.776,1.475,3.452,2.388,5.027,2.74h0.025c1.877,0.318,3.888,0.034,6.033-0.854c0.938-0.436,2.614-1.416,5.027-2.941v0.05
		c0.419-0.268,2.02-1.634,4.801-4.097v0.05c0.414-0.376,0.825-0.716,1.231-1.018c0.341-0.25,0.681-0.472,1.018-0.667l-1.32,3.896
		l-1.483,2.187h-0.201l-3.017,3.758c0.018-0.094,0.034-0.19,0.05-0.289l0.226-1.885l-1.483,1.157
		c-4.659,3.753-7.466,5.974-8.421,6.662v-0.051c-3.1,1.928-6.1,2.79-8.999,2.589c0.436-2.363,0.167-4.123-0.805-5.279
		c-0.938-1.089-1.659-1.475-2.162-1.156l-2.891,1.005h0.05c-3.14,0.969-5.884,1.283-8.232,0.943
		c-1.027-0.148-1.979-0.421-2.853-0.817l0.025-0.051l-0.201-0.151l-0.076,0.076c-0.125-0.074-0.246-0.145-0.364-0.214
		c-0.16-0.091-0.314-0.179-0.465-0.264c0.055-0.065,0.109-0.128,0.164-0.188c0.578-0.704,1.068-1.37,1.471-1.999
		c1.082-1.716,1.509-3.166,1.282-4.348l-0.126-0.855l-0.83,0.251c-0.929,0.288-1.825,0.527-2.689,0.716
		c-0.884,0.197-1.734,0.344-2.552,0.44c-1.736,0.209-3.324,0.192-4.764-0.05h0.05c-0.101-0.017-0.209-0.042-0.327-0.075
		c-3.016-0.721-4.985-2.497-5.907-5.329c2.899-0.653,4.885-1.508,5.958-2.564l1.408-1.408l-2.011,0.076
		c-10.139,0.486-18.099-0.436-23.88-2.765l4.323-2.69l-1.433-0.528c-11.831-4.608-18.903-7.499-21.216-8.672h-0.025
		c-2.949-1.391-5.337-2.572-7.164-3.544h0.05c-0.905-0.503-1.684-0.956-2.338-1.358c-1.81-1.123-3.385-2.287-4.726-3.494
		c2.146,1.123,4.257,2.17,6.335,3.142c11.161,5.111,21.216,8.052,30.165,8.823c7.222,0.603,13.381,1.261,18.476,1.973
		C120.136,161.78,120.689,161.86,121.23,161.94z M103.408,173.102l8.044,1.333c0.234,0.017,0.402,0.067,0.502,0.151v0.075
		c0.034,0.051,0.143,0.386,0.327,1.006v-0.025c0.168,0.771,0.395,1.492,0.679,2.162l-9.477,3.57c-1.91,0.67-3.829,1.274-5.756,1.81
		c-6.888,1.81-13.893,2.647-21.015,2.514c-1.843-0.05-3.637-0.151-5.379-0.302c-3.989-0.402-7.784-1.139-11.388-2.212
		c-2.949-0.855-5.765-1.927-8.446-3.217c1.525-1.173,2.773-2.02,3.746-2.54l0.05-0.025c0.654-0.452,1.375-0.679,2.162-0.679h0.075
		c0.269-0.033,1.165,0.101,2.69,0.402h0.05c2.514,0.335,6.167,0.721,10.96,1.156c0.905,0.05,1.852,0.117,2.84,0.201
		c11.044,0.553,19.423-0.586,25.137-3.418l-0.377-0.679l-0.151-0.729c-3.754,0.788-7.516,1.282-11.287,1.483
		c-5.614,0.335-10.968,0.218-16.063-0.352c-12.921-1.441-23.931-5.773-33.031-12.996c0.771-0.704,2.455-1.525,5.053-2.463
		c0.788-0.318,1.617-0.369,2.489-0.151l-0.025-0.05c1.224,0.385,2.195,0.678,2.916,0.879l13.499,3.695h0.025
		c3.134,0.805,6.091,1.45,8.874,1.936c6.854,1.156,12.652,1.291,17.395,0.402l2.916-0.528l-0.025-0.553
		c1.073,0.369,2.112,0.712,3.117,1.03l-2.514,1.785l0.427,0.578l-0.302,0.704c4.005,1.927,7.751,3.276,11.236,4.047H103.408z
		 M102.327,184.615c3.972-1.391,7.29-3.034,9.954-4.927l1.207-0.854c1.508,2.463,4.089,3.98,7.742,4.55h0.05l-0.603,0.478h-0.051
		v0.025c-7.172,5.949-14.864,9.912-23.076,11.89c-7.759,1.843-16.457,1.642-26.093-0.603l-0.151-0.025l-0.075-0.05h-0.176
		c-0.234,0-0.544-0.025-0.93-0.076l0.051-0.075c0.101-0.453,0.578-1.056,1.433-1.81h0.05c0.05-0.05,0.101-0.108,0.151-0.176v-0.025
		c1.911-2.095,3.176-3.193,3.796-3.293h0.025c7.843-0.989,12.317-1.567,13.423-1.734c5.027-0.888,9.443-1.986,13.247-3.293H102.327z
		 M128.093,183.383l-0.352,0.704l-1.534,2.388l-0.101,0.402c-0.067,0.268,0.143,0.67,0.628,1.207l0.05,0.025l0.076,0.05
		c0.285,0.235,0.779,0.486,1.483,0.754c-11.261,11.295-22.464,17.554-33.608,18.777c0.832-2.629,1.896-5.084,3.192-7.365
		c0.318-0.486,0.863-0.947,1.634-1.382c1.123-0.402,1.969-0.737,2.539-1.005l0.025-0.025l4.55-1.81h0.025
		c6.72-2.949,12.142-6.988,16.264-12.116l0.352-0.403C124.741,183.634,126.333,183.567,128.093,183.383z M144.482,189.566
		l0.126,0.604l-0.126,2.237c-0.084,0.436-0.109,0.796-0.075,1.081c0.014,0.061,0.026,0.115,0.038,0.164l-0.038,0.013
		c0.017,0.335,0.15,0.569,0.402,0.704c0.185,0.218,0.788,0.377,1.81,0.478l2.715,0.101c1.056,0,2.078-0.109,3.067-0.327
		c-0.473,1.755-1.013,3.326-1.622,4.713l-1.168,0.993l-1.283,1.483l-0.502,0.955l-2.991,2.338l-1.986,0.754l-0.779,0.527
		l-1.609,0.755l-2.438,1.685l-0.729,1.482l-1.609,1.282H134l-0.854,0.302c-0.038-0.553-0.071-1.156-0.101-1.811
		c0-1.524,0.109-2.463,0.327-2.814l0.025-0.076l1.81-2.865c1.743-2.263,3.016-3.988,3.82-5.179c0.267-0.364,0.515-0.724,0.742-1.081
		c0.359-0.568,0.668-1.129,0.93-1.685c0.517-1.096,0.839-2.168,0.968-3.217l0.402-2.765l0.075-0.025
		c1.391-0.52,2.128-0.788,2.212-0.804H144.482z M29.781,136.778c7.927,4.541,13.147,7.415,15.661,8.622
		c7.256,3.637,15.543,7.039,24.861,10.206c0.184,0.067,0.369,0.159,0.553,0.276l0.05,0.025h0.025
		c7.374,3.754,13.868,6.661,19.481,8.723l-2.011-0.125c-5.966-0.235-11.622-0.847-16.967-1.835
		c-6.62-1.324-12.762-3.226-18.426-5.706c-7.977-3.536-15.435-7.969-22.372-13.297c-6.418-4.927-12.385-10.6-17.898-17.018
		l7.893,4.75C23.982,133.376,27.033,135.169,29.781,136.778z M160.671,191.276l-1.508,0.779l-1.283,1.282l-0.502,0.93l-0.201,0.955
		l-2.79,2.363l-0.528,0.138c0.276-1.333,0.318-2.502,0.126-3.506l-0.025-0.125c0.268-0.101,0.536-0.21,0.805-0.327
		c0-0.017,0.009-0.025,0.025-0.025c2.367-0.938,4.382-1.893,6.045-2.866L160.671,191.276z M139.128,194.581
		c-0.35,0.564-0.71,1.117-1.081,1.66c-3.174,4.681-7.012,8.565-11.513,11.651h-0.025c-3.083,2.128-6.98,4.114-11.689,5.958
		c-0.117,0.016-0.226,0.059-0.327,0.125l-0.679-3.494v0.076c-0.184-1.643,0.025-3.327,0.628-5.053v-0.051
		c0.251-0.67,0.763-1.299,1.533-1.885c1.308-0.671,2.246-1.249,2.815-1.734l4.424-3.721v-0.05c3.502-3.1,5.731-5.966,6.687-8.597
		c0.754,0.218,1.651,0.461,2.689,0.729c0.179,0.047,0.359,0.093,0.541,0.139c0.944,0.215,1.933,0.366,2.967,0.452
		c0.821,0.062,1.671,0.083,2.551,0.063h0.101l2.765-0.377l-1.257,2.212C139.895,193.331,139.518,193.963,139.128,194.581z
		 M151.093,204.322v0.779l0.202,1.281l0.176,0.327l-1.659,0.101l-1.282,0.729l-2.514,2.363l-0.176,0.377l-0.277-1.658
		L151.093,204.322z M136.765,214.879h-0.402l3.997-2.487l0.101,0.478l0.604,1.584l-2.288,0.426l-0.93,0.504L136.765,214.879z
		 M142.069,217.469l-1.157-0.704l0.931,0.126L142.069,217.469z M152.602,230.742l0.956-1.283h1.03l0.251-0.754v-0.176l0.327,0.478
		l0.201,0.779l-0.201,0.729l-1.081,1.281h-1.684l-0.528-0.527l-0.251-0.327h0.251l0.201,0.327L152.602,230.742z M167.232,222.245
		l0.251-0.327l0.201-0.402l0.528,0.729l0.226,0.704l-0.226,0.779l-0.528,0.703l-0.452,0.252l-0.83,0.326l-1.483-0.578l0.277-0.075
		l0.251,0.075l-0.101-0.15l0.101-0.051l0.226-0.301v-0.528l0.528-0.755l0.528-0.401H167.232z"/>
	<path fill-rule="evenodd" clip-rule="evenodd" fill="#EBEBEC" d="M231.797,177.111c0.88,0.752,1.429,1.192,1.646,1.32h0.025
		c1.662,1.06,2.961,1.843,3.896,2.351c0.365,0.197,0.676,0.352,0.93,0.465c0.588,0.241,1.162,0.429,1.722,0.565
		c1.209,0.297,2.361,0.359,3.456,0.188h-0.024c1.357-0.318,2.815-1.114,4.374-2.388v-0.051h0.024c0.57-0.402,1.24-1.047,2.012-1.935
		c0.185-0.235,0.302-0.62,0.352-1.156c0.117-0.939,0.243-1.584,0.377-1.936c1.072-3.905,3.67-6.955,7.793-9.149v0.05
		c2.647-1.441,6.502-2.715,11.563-3.821c1.415-0.305,2.982-0.603,4.7-0.893c0.641-0.105,1.303-0.209,1.985-0.314
		c0.261-0.039,0.524-0.077,0.792-0.113c2.144-0.312,4.46-0.609,6.951-0.893l-9.101,0.804c-0.172,0.019-0.344,0.035-0.515,0.05
		c-10.694,1.202-17.964,4.277-21.807,9.225c-1.391,1.793-2.313,3.813-2.765,6.058c-0.453,2.732-2.506,4.634-6.159,5.707
		c-1.427,0.452-2.801,0.552-4.122,0.301c-0.919-0.175-1.811-0.519-2.678-1.03c-0.249-0.144-0.496-0.303-0.741-0.478
		c-1.391-0.989-2.246-1.818-2.564-2.489l-0.126-0.201l0.051-0.226c0.101-0.938,0.033-1.625-0.201-2.061l-0.754-1.483l1.559,0.327
		c0.638,0.151,1.266,0.248,1.885,0.289c3.081,0.204,5.914-0.965,8.497-3.506c2.044-2.011,4.281-5.371,6.712-10.08v0.05
		c2.681-5.229,5.53-8.589,8.546-10.08l0.051-0.05c3.452-1.927,7.691-3.704,12.719-5.329c0.724-0.254,1.437-0.506,2.137-0.754
		c0.135-0.045,0.269-0.091,0.402-0.138c0.364-0.132,0.725-0.262,1.081-0.39c0.157-0.057,0.313-0.116,0.465-0.176
		c0.672-0.242,1.334-0.49,1.986-0.742c6.812-2.587,12.899-5.423,18.262-8.509c5.916-3.486,12.87-8.79,20.864-15.912l1.685-1.483
		l-0.428,2.162c-0.52,3.05-1.91,6.201-4.173,9.452c-0.889,1.273-2.379,2.782-4.475,4.525c5.095-3.234,10.332-6.829,15.711-10.784
		c2.464-1.827,4.936-3.72,7.416-5.681c0.787-0.604,1.584-1.232,2.388-1.885c6.972-5.581,14.981-12.268,24.031-20.06l2.212-1.885
		l-0.955,2.69c-1.206,3.502-3.359,7.223-6.46,11.161h-0.051c-1.508,1.81-4.281,4.885-8.32,9.226h-0.025v0.05
		c-0.033,0.017-0.075,0.05-0.125,0.101l-0.051,0.05c-4.089,4.391-7.281,7.549-9.577,9.477c-2.229,1.927-5.413,4.349-9.553,7.265
		c-0.268,0.168-0.553,0.352-0.854,0.553c2.061-1.224,4.993-3.201,8.798-5.932c2.061-1.793,3.636-3.067,4.726-3.821
		c2.145-1.542,4.114-2.179,5.907-1.911l1.483,0.202l-1.006,1.081c-3.771,4.256-10.122,9.871-19.055,16.842h0.026
		c-0.537,0.436-1.099,0.871-1.685,1.307l-17.068,12.845v0.025c-2.648,1.877-4.583,2.882-5.807,3.017
		c-2.832,0.502-6.218,0.972-10.156,1.407c1.392-0.117,2.824-0.243,4.299-0.377c8.799-0.771,18.669-3.67,29.612-8.697
		c3.318-1.525,6.729-3.243,10.23-5.153l2.589-1.433l0.201,0.201l-1.81,2.363c-1.877,2.547-4.592,4.902-8.145,7.063
		c-0.653,0.402-1.449,0.872-2.388,1.408c-1.811,0.989-4.215,2.179-7.215,3.57c-2.027,1.055-7.784,3.443-17.27,7.164
		c6.485-1.995,14.413-5.371,23.78-10.13c0.234-0.134,0.47-0.251,0.704-0.352h0.05l0.05-0.05c9.251-3.134,17.479-6.502,24.686-10.105
		h0.025c2.514-1.207,7.691-4.072,15.535-8.597c2.765-1.609,5.814-3.402,9.149-5.379l14.253-8.547l0.326,0.352l-1.834,2.288
		c-6.402,7.977-13.415,14.881-21.041,20.713c-7.021,5.379-14.579,9.879-22.673,13.499c-4.525,1.978-9.36,3.594-14.505,4.851
		c1.392-0.301,2.808-0.637,4.248-1.005l13.499-3.695c0.721-0.184,1.685-0.461,2.891-0.83h0.051c1.223-0.302,2.354-0.227,3.394,0.226
		l-0.025-0.025c2.782,1.005,4.608,1.902,5.48,2.689l1.608,1.081l-0.805,0.628c-9.468,7.826-21.015,12.501-34.64,14.027
		c-5.061,0.553-10.397,0.687-16.012,0.402c3.804,0.402,8.136,0.478,12.995,0.227c1.006-0.084,1.961-0.151,2.866-0.201
		c4.76-0.419,8.388-0.804,10.885-1.156l-0.051,0.05c1.659-0.334,2.673-0.486,3.042-0.452h0.05c1.072,0,2.062,0.31,2.967,0.93
		c1.173,0.67,2.782,1.793,4.826,3.368l0.955,0.754l-1.081,0.528c-3.083,1.575-6.334,2.857-9.753,3.846
		c-3.687,1.123-7.583,1.885-11.689,2.287h-0.024c-1.776,0.167-3.604,0.276-5.479,0.327c-2.431,0.051-4.86-0.017-7.29-0.201
		c2.161,0.268,4.993,0.628,8.496,1.081h0.051c0.854,0.034,2.421,1.291,4.7,3.771h0.024c0.067,0.051,0.109,0.109,0.126,0.176
		c1.123,0.989,1.751,1.818,1.886,2.489c0.318,0.938,0.092,1.566-0.679,1.885l-0.126,0.025h-0.075
		c-0.536,0.117-0.989,0.176-1.357,0.176c-0.084,0.017-0.168,0.025-0.252,0.025c-9.837,2.313-18.744,2.514-26.721,0.604
		c-3.653-0.854-7.205-2.094-10.658-3.72c0.805,0.402,1.626,0.787,2.464,1.156l4.575,1.86h0.05c0.553,0.251,1.365,0.57,2.438,0.955
		l0.075,0.025l0.051,0.051c1.072,0.569,1.817,1.198,2.237,1.885l0.05,0.05c1.525,2.698,2.757,5.64,3.695,8.823l0.302,1.081
		l-1.106-0.126c-10.356-0.771-20.771-5.781-31.246-15.032c0.805,0.854,1.727,1.743,2.766,2.665l4.425,3.745
		c0.502,0.403,1.349,0.914,2.538,1.534l0.075,0.074c1.157,0.822,1.877,1.719,2.162,2.691c0.721,1.977,0.964,3.904,0.729,5.781
		l-0.05,0.024l-0.804,3.997c-0.269,0.604-0.587,0.904-0.956,0.904l-0.678-0.201c-0.034-0.016-0.235-0.092-0.604-0.226
		c-4.811-1.876-8.815-3.913-12.017-6.108c-2.262-1.575-4.374-3.344-6.334-5.304l1.559,2.463c0.436,0.453,0.653,1.718,0.653,3.796
		v0.051c-0.134,3.217-0.386,5.32-0.754,6.309c-0.486,1.258-0.863,2.02-1.132,2.288c-0.436,0.637-1.583,0.142-3.443-1.483
		l-4.575-3.745h-0.05c-1.79-1.597-4.17-4.239-7.14-7.931c-0.369-0.459-0.746-0.933-1.131-1.42c-0.199-0.277-0.4-0.545-0.604-0.805
		c-0.015-0.026-0.031-0.051-0.05-0.076c0.011,0.029,0.023,0.058,0.037,0.088c0.207,0.51,0.429,1.05,0.667,1.622l0.024,0.101
		c0.107,0.364,0.195,0.732,0.265,1.105c0.509,2.939-0.225,6.257-2.199,9.955l-0.428,0.904l-0.729-0.653
		c-1.596-1.349-3.096-2.956-4.499-4.826c-0.44-0.596-0.872-1.216-1.295-1.86c-0.32-0.489-0.635-0.992-0.942-1.508
		c0.017,0.084,0.024,0.168,0.024,0.251l0.051,0.075v0.051c0.031,0.625,0.049,1.169,0.051,1.633c0.009,1.012-0.05,1.631-0.177,1.861
		c-0.178,0.346-0.487,0.786-0.93,1.319c-0.391,0.476-0.886,1.024-1.483,1.646c-0.047,0.061-0.16,0.24-0.339,0.54l-0.302-2.061
		c0.872-0.916,1.438-1.632,1.696-2.149v-0.025c0.019-0.047,0.031-0.126,0.038-0.239c0.033-0.393,0.004-1.201-0.088-2.426
		c-0.285-1.357-0.989-3.519-2.112-6.484c-0.371-0.992-0.688-1.915-0.954-2.765l-0.629-7.353l0.201-0.038l0.93,2.84
		c0.033,0.034,0.051,0.076,0.051,0.125c1.714,5.54,3.779,10.165,6.196,13.875c0.431,0.659,0.87,1.287,1.319,1.886
		c1.086,1.44,2.234,2.714,3.443,3.821c1.3-2.664,1.86-5.102,1.685-7.315c-0.054-0.61-0.163-1.206-0.327-1.784l0.051,0.074
		c-0.166-0.411-0.325-0.81-0.478-1.193c-0.697-1.765-1.225-3.186-1.584-4.261v0.025c-0.153-0.429-0.288-0.844-0.401-1.244
		c-0.533-1.834-0.675-3.396-0.428-4.688l0.025-0.125c-0.269-0.101-0.537-0.21-0.805-0.327c0-0.017-0.009-0.025-0.025-0.025
		c-0.211-0.084-0.421-0.168-0.628-0.251c-3.856-1.582-6.738-3.215-8.647-4.902c-0.242,0.509-0.498,0.966-0.767,1.37l-0.616-7.239
		l0.176,0.138c4.659,3.753,7.466,5.974,8.422,6.662v-0.051c0.05,0.031,0.1,0.061,0.15,0.088c0.648,0.395,1.293,0.743,1.936,1.043
		c2.373,1.128,4.677,1.614,6.912,1.458c-0.436-2.363-0.167-4.123,0.805-5.279c0.938-1.089,1.659-1.475,2.162-1.156l2.891,1.005
		h-0.024c2.324,0.72,4.431,1.08,6.321,1.081c1.482-0.005,2.831-0.231,4.048-0.678c0.234-0.083,0.466-0.174,0.69-0.276l-0.024-0.051
		l0.2-0.151l0.076,0.076c0.284-0.168,0.561-0.327,0.829-0.478c-0.242-0.289-0.469-0.574-0.679-0.855
		c-0.802-1.038-1.393-1.993-1.772-2.866c-0.466-1.063-0.621-2.002-0.465-2.815l0.126-0.855l0.83,0.251
		c0.405,0.125,0.803,0.243,1.193,0.352c1.043,0.284,2.044,0.507,3.004,0.666c2.148,0.349,4.083,0.379,5.807,0.088h-0.05
		c0.117-0.017,0.226-0.042,0.327-0.075c3.016-0.721,4.984-2.497,5.907-5.329c-2.9-0.653-4.886-1.508-5.958-2.564l-1.383-1.408
		l1.986,0.076c10.155,0.486,18.123-0.436,23.905-2.765l-4.349-2.69l1.458-0.528c11.814-4.608,18.878-7.499,21.19-8.672h0.025
		c2.949-1.391,5.338-2.572,7.164-3.544h-0.05c0.904-0.503,1.684-0.956,2.337-1.358c1.811-1.123,3.386-2.287,4.727-3.494
		c-2.146,1.123-4.257,2.17-6.335,3.142c-11.161,5.111-21.216,8.052-30.165,8.823c-7.932,0.663-14.58,1.391-19.946,2.187
		c-0.062,0.007-0.124,0.016-0.188,0.025c-0.924,0.139-1.813,0.281-2.665,0.428c-1.423,0.234-2.746,0.478-3.972,0.729
		c-4.893,1.073-8.613,2.296-11.16,3.67c-3.721,1.977-6.059,4.717-7.014,8.22v0.05l-0.051,0.101c-0.1,0.218-0.192,0.712-0.276,1.483
		c-0.101,0.922-0.343,1.584-0.729,1.986v0.025c-0.871,0.989-1.617,1.701-2.237,2.137c-1.76,1.475-3.436,2.388-5.027,2.74h-0.025
		c-0.948,0.161-1.933,0.169-2.954,0.025c-0.746-0.111-1.513-0.304-2.3-0.579c-0.255-0.092-0.515-0.192-0.779-0.301
		c-0.938-0.436-2.605-1.416-5.002-2.941v0.05c-0.094-0.057-0.24-0.166-0.439-0.327L231.797,177.111z M133.146,211.889l-0.628,0.226
		l-0.868,0.466c-0.055-0.721-0.101-1.529-0.138-2.426v-0.051c0-2.078,0.218-3.343,0.653-3.796l1.559-2.463
		c-1.96,1.96-4.072,3.729-6.334,5.304c-3.184,2.195-7.189,4.232-12.016,6.108c-0.369,0.134-0.57,0.21-0.604,0.226l-0.679,0.201
		c-0.369,0-0.687-0.301-0.955-0.904l-0.804-3.997l-0.051-0.024c-0.234-1.877,0.009-3.805,0.729-5.781
		c0.302-0.973,1.022-1.869,2.162-2.691l0.075-0.074c1.19-0.62,2.037-1.131,2.539-1.534l4.424-3.745
		c1.039-0.922,1.96-1.811,2.765-2.665c-10.474,9.25-20.889,14.261-31.246,15.032l-1.106,0.126l0.302-1.081
		c0.938-3.184,2.17-6.125,3.695-8.823l0.05-0.05c0.436-0.688,1.182-1.316,2.237-1.885l0.051-0.051l0.075-0.025
		c1.073-0.385,1.894-0.704,2.463-0.955h0.025l4.575-1.86c0.842-0.377,1.663-0.767,2.464-1.169
		c-3.451,1.618-6.995,2.862-10.633,3.733c-7.977,1.911-16.892,1.709-26.746-0.604c-0.084,0-0.168-0.008-0.251-0.025
		c-0.369,0-0.821-0.059-1.357-0.176h-0.076l-0.125-0.025c-0.771-0.319-0.997-0.947-0.679-1.885c0.132-0.662,0.761-1.496,1.886-2.501
		c0.036-0.062,0.078-0.116,0.125-0.164h0.025c2.279-2.48,3.846-3.737,4.701-3.771h0.05c3.502-0.452,6.334-0.813,8.497-1.081
		c-2.43,0.184-4.86,0.251-7.29,0.201c-1.877-0.05-3.695-0.159-5.455-0.327h-0.05c-4.089-0.402-7.985-1.165-11.689-2.287
		c-3.418-0.989-6.67-2.271-9.753-3.846l-1.081-0.528l0.955-0.754c2.044-1.575,3.653-2.698,4.826-3.368
		c0.905-0.62,1.894-0.93,2.966-0.93h0.05c0.369-0.034,1.383,0.118,3.042,0.452l-0.025-0.05c2.48,0.352,6.1,0.737,10.859,1.156
		c0.921,0.05,1.877,0.117,2.865,0.201c4.86,0.251,9.192,0.176,12.996-0.227c-5.614,0.285-10.951,0.151-16.012-0.402
		c-13.625-1.525-25.171-6.201-34.639-14.027l-0.805-0.628l1.609-1.081l-0.05,0.025c0.855-0.771,2.698-1.676,5.53-2.715l-0.025,0.025
		c1.039-0.453,2.178-0.528,3.418-0.226h0.025c1.207,0.369,2.17,0.646,2.891,0.83l13.499,3.695c1.441,0.369,2.857,0.704,4.249,1.005
		c-5.145-1.257-9.972-2.874-14.479-4.851c-8.111-3.62-15.677-8.12-22.699-13.499c-7.625-5.832-14.639-12.736-21.04-20.713
		l-1.835-2.288l0.327-0.352l14.253,8.547c3.335,1.978,6.385,3.771,9.15,5.379c7.843,4.525,13.021,7.39,15.535,8.597h0.025
		c7.206,3.603,15.443,6.971,24.71,10.105l0.025,0.05h0.05c0.234,0.101,0.469,0.218,0.704,0.352
		c9.368,4.759,17.294,8.136,23.78,10.13c-9.468-3.721-15.225-6.109-17.269-7.164c-3-1.391-5.405-2.581-7.214-3.57
		c-0.938-0.536-1.727-1.005-2.363-1.408c-3.569-2.162-6.292-4.516-8.169-7.063l-1.81-2.363l0.201-0.201l2.589,1.433
		c3.502,1.911,6.913,3.628,10.231,5.153c10.943,5.027,20.813,7.926,29.612,8.697c1.475,0.134,2.907,0.26,4.298,0.377
		c-3.921-0.436-7.307-0.905-10.156-1.407h0.05c-1.24-0.101-3.192-1.106-5.857-3.017v-0.025l-17.068-12.845
		c-0.587-0.436-1.148-0.872-1.685-1.307h0.05c-8.949-6.972-15.309-12.586-19.079-16.842l-1.006-1.081l1.483-0.202
		c1.793-0.268,3.762,0.369,5.907,1.911c1.089,0.754,2.665,2.028,4.726,3.821c3.804,2.731,6.737,4.708,8.798,5.932
		c-0.285-0.201-0.562-0.385-0.83-0.553c-4.156-2.916-7.348-5.337-9.577-7.265c-2.296-1.927-5.488-5.086-9.577-9.477l-0.051-0.05
		c-0.05-0.05-0.092-0.084-0.125-0.101v-0.05h-0.025c-4.039-4.34-6.813-7.416-8.321-9.226h-0.025
		c-3.117-3.938-5.271-7.658-6.46-11.161l-0.98-2.69l2.212,1.885c9.049,7.792,17.068,14.479,24.056,20.06
		c0.804,0.653,1.592,1.282,2.363,1.885c2.48,1.96,4.952,3.854,7.416,5.681c5.38,3.955,10.617,7.55,15.711,10.784
		c-2.095-1.743-3.586-3.251-4.474-4.525c-2.263-3.251-3.653-6.401-4.173-9.452l-0.427-2.162l1.684,1.483
		c7.994,7.123,14.948,12.426,20.864,15.912c4.856,2.794,10.302,5.387,16.339,7.78c0.996,0.39,2.005,0.775,3.029,1.156
		c0.445,0.164,0.894,0.327,1.345,0.49c1.189,0.419,2.396,0.846,3.62,1.282c1.312,0.424,2.569,0.86,3.771,1.307
		c0.698,0.255,1.376,0.515,2.036,0.779c2.578,1.028,4.882,2.109,6.913,3.243l0.05,0.05c3.017,1.491,5.866,4.852,8.547,10.08v-0.05
		c2.43,4.709,4.667,8.069,6.712,10.08c3.1,3.05,6.561,4.123,10.381,3.217l1.584-0.327l-0.779,1.483
		c-0.235,0.436-0.302,1.123-0.201,2.061l0.05,0.226l-0.125,0.201c-0.319,0.67-1.173,1.5-2.564,2.489
		c-2.329,1.659-4.843,2.062-7.541,1.207c-3.653-1.073-5.706-2.975-6.159-5.707c-0.452-2.245-1.375-4.265-2.765-6.058
		c-3.834-4.937-11.078-8.007-21.731-9.213c-0.196-0.021-0.393-0.042-0.591-0.063h-0.076l-9.012-0.792
		c1.919,0.211,3.729,0.434,5.43,0.666c0.792,0.106,1.558,0.216,2.3,0.327c0.231,0.035,0.461,0.069,0.691,0.101
		c0.165,0.026,0.328,0.052,0.49,0.075c0.197,0.032,0.394,0.066,0.591,0.101c1.803,0.302,3.449,0.612,4.939,0.93
		c5.044,1.106,8.899,2.38,11.563,3.821v-0.05c4.105,2.195,6.694,5.245,7.767,9.149c0.134,0.352,0.26,0.997,0.377,1.936
		c0.05,0.536,0.167,0.921,0.352,1.156c0.771,0.888,1.441,1.533,2.011,1.935h0.05v0.051c1.542,1.273,3,2.069,4.374,2.388h-0.05
		c1.608,0.251,3.334,0,5.178-0.754c0.905-0.402,2.514-1.341,4.826-2.815h0.025c0.403-0.234,1.928-1.534,4.575-3.896
		c0.745-0.652,1.478-1.201,2.2-1.646c0.71-0.438,1.41-0.777,2.099-1.019l-0.553,0.704l-0.49,1.458
		c-0.337,0.194-0.677,0.417-1.018,0.667c-0.407,0.302-0.818,0.642-1.231,1.018v-0.05c-2.782,2.463-4.382,3.829-4.801,4.097v-0.05
		c-2.414,1.525-4.089,2.505-5.027,2.941c-2.145,0.888-4.156,1.173-6.033,0.854h-0.025c-1.575-0.352-3.251-1.265-5.027-2.74
		c-0.62-0.436-1.366-1.148-2.237-2.137v-0.025c-0.386-0.402-0.628-1.064-0.729-1.986c-0.084-0.771-0.177-1.265-0.277-1.483
		l-0.05-0.101v-0.05c-0.955-3.502-3.293-6.243-7.014-8.22c-2.547-1.374-6.267-2.598-11.161-3.67
		c-1.576-0.323-3.314-0.637-5.216-0.943c-0.463-0.069-0.937-0.141-1.42-0.213c-0.541-0.081-1.094-0.16-1.659-0.239
		c-5.095-0.712-11.254-1.37-18.476-1.973c-8.949-0.771-19.003-3.712-30.165-8.823c-2.078-0.972-4.189-2.02-6.335-3.142
		c1.341,1.207,2.917,2.371,4.726,3.494c0.654,0.402,1.433,0.855,2.338,1.358h-0.05c1.827,0.972,4.215,2.153,7.164,3.544h0.025
		c2.313,1.173,9.385,4.064,21.216,8.672l1.433,0.528l-4.323,2.69c5.781,2.329,13.742,3.251,23.88,2.765l2.011-0.076l-1.408,1.408
		c-1.073,1.056-3.058,1.911-5.958,2.564c0.922,2.832,2.891,4.608,5.907,5.329c0.118,0.033,0.226,0.059,0.327,0.075h-0.05
		c1.44,0.243,3.028,0.259,4.764,0.05c0.818-0.096,1.668-0.243,2.552-0.44c0.864-0.189,1.761-0.428,2.689-0.716l0.83-0.251
		l0.126,0.855c0.227,1.183-0.201,2.632-1.282,4.348c-0.402,0.629-0.893,1.295-1.471,1.999c-0.054,0.06-0.108,0.123-0.164,0.188
		c0.151,0.084,0.306,0.173,0.465,0.264c0.118,0.069,0.24,0.14,0.364,0.214l0.076-0.076l0.201,0.151l-0.025,0.051
		c0.875,0.396,1.826,0.668,2.853,0.817c2.348,0.34,5.092,0.026,8.232-0.943h-0.05l2.891-1.005c0.503-0.319,1.224,0.067,2.162,1.156
		c0.972,1.156,1.24,2.916,0.805,5.279c2.899,0.201,5.899-0.662,8.999-2.589v0.051c0.955-0.688,3.762-2.908,8.421-6.662l1.483-1.157
		l-0.226,1.885c-0.016,0.099-0.033,0.195-0.05,0.289l-0.805,1.019l-0.527,1.81l-2.036,2.564l-2.011,0.98l-0.264,0.628
		c-1.663,0.973-3.678,1.928-6.045,2.866c-0.017,0-0.025,0.008-0.025,0.025c-0.269,0.117-0.537,0.227-0.805,0.327l0.025,0.125
		c0.192,1.004,0.15,2.173-0.126,3.506l-1.056,0.264l-1.709,1.081l-0.314,0.264c0.608-1.387,1.149-2.958,1.622-4.713
		c-0.989,0.218-2.011,0.327-3.067,0.327l-2.715-0.101c-1.022-0.101-1.625-0.26-1.81-0.478c-0.251-0.134-0.385-0.369-0.402-0.704
		l1.508-0.377c0.034,0,0.076,0,0.126,0l0.176-0.754c0.502-2.179,0.394-3.762-0.327-4.751l-0.05-0.025
		c-0.318-0.385-0.461-0.612-0.427-0.679h-0.05l-2.891,1.006c-2.346,0.721-4.483,1.106-6.41,1.156
		c0.771,0.084,1.583,0.109,2.438,0.076l3.218-0.427c1.492-0.537,2.363-0.822,2.615-0.855c0.854-0.084,1.382,0.26,1.583,1.03v0.101
		l0.202,0.905l-0.101,2.539c-0.084,0.319-0.176,0.495-0.276,0.528l-1.332,0.352c-0.034-0.285-0.009-0.645,0.075-1.081l0.126-2.237
		l-0.126-0.604h-0.125c-0.084,0.017-0.821,0.285-2.212,0.804l-0.075,0.025l-0.402,2.765c-0.129,1.049-0.451,2.122-0.968,3.217
		c-0.261,0.555-0.571,1.116-0.93,1.685c-0.228,0.356-0.475,0.717-0.742,1.081c-0.804,1.19-2.078,2.916-3.82,5.179l-1.81,2.865
		l-0.025,0.076c-0.217,0.352-0.327,1.29-0.327,2.814C133.074,210.732,133.108,211.336,133.146,211.889z M130.129,148.555
		c-0.626-0.249-1.267-0.496-1.923-0.741c-1.101-0.402-2.245-0.795-3.431-1.182c-1.24-0.419-2.455-0.846-3.645-1.282
		c-0.273-0.1-0.546-0.2-0.817-0.301c-1.033-0.38-2.051-0.766-3.054-1.156c-6.337-2.49-12.035-5.188-17.094-8.094
		c-5.547-3.234-11.981-8.061-19.305-14.479c0.67,2.111,1.793,4.281,3.369,6.51c1.29,1.844,3.846,4.165,7.667,6.963h0.05
		c2.43,1.827,5.581,3.813,9.452,5.958c2.195,1.173,5.48,2.95,9.854,5.33c0.017,0,0.042,0.017,0.075,0.05l0.025,0.025l2.665,1.458
		l-0.553,1.131l-2.74-1.207c-12.2-5.279-25.498-13.23-39.893-23.855v-0.05c-2.447-1.81-4.927-3.695-7.44-5.656h-0.025
		c-0.788-0.604-1.583-1.232-2.388-1.885c-6.368-5.078-13.574-11.086-21.618-18.024c1.173,2.463,2.832,5.044,4.977,7.742
		c1.458,1.827,4.214,4.877,8.27,9.15c0.05,0.067,0.101,0.125,0.151,0.176c4.072,4.357,7.231,7.491,9.477,9.401h0.025
		c2.195,1.894,5.346,4.282,9.452,7.164c0.335,0.218,0.695,0.453,1.081,0.704v0.025c3.066,2.179,6.829,4.491,11.286,6.938v-0.025
		c2.581,1.357,6.469,3.394,11.664,6.108h0.05l2.69,1.382l-0.553,1.207l-2.791-1.207l-0.025-0.025
		c-7.575-3.268-15.242-7.03-23-11.287c-0.352-0.184-0.754-0.41-1.207-0.679c-2.095-1.257-5.095-3.276-9-6.058l-0.05-0.05
		c-2.028-1.76-3.561-3-4.6-3.721c-1.106-0.804-2.137-1.315-3.092-1.533c3.804,4.022,9.661,9.117,17.571,15.284
		c0.536,0.436,1.089,0.871,1.659,1.307l17.018,12.846c2.346,1.659,4.056,2.564,5.128,2.714l0.076,0.051
		c3.653,0.637,8.203,1.206,13.649,1.709l13.75,1.307c0.063,0.007,0.125,0.015,0.188,0.025c0.293,0.031,0.583,0.064,0.868,0.1
		c10.918,1.273,18.351,4.516,22.297,9.729c1.558,1.994,2.572,4.231,3.041,6.711c0.436,2.162,2.137,3.678,5.104,4.55
		c2.245,0.688,4.323,0.352,6.233-1.005c0.989-0.72,1.659-1.315,2.011-1.785c-0.067-0.536-0.083-0.997-0.05-1.383
		c-3.821,0.52-7.323-0.771-10.507-3.871c-2.128-2.078-4.458-5.555-6.988-10.432c-2.497-4.843-5.137-7.985-7.918-9.426h-0.025
		C135.183,150.734,132.803,149.615,130.129,148.555z M353.801,105.809c2.129-2.698,3.787-5.279,4.978-7.742
		c-8.061,6.938-15.275,12.946-21.644,18.024c-0.805,0.653-1.592,1.282-2.362,1.885h-0.051c-2.514,1.96-4.985,3.846-7.416,5.656v0.05
		c-14.411,10.625-27.718,18.576-39.917,23.855l-2.716,1.207l-0.577-1.131l2.664-1.458l0.025-0.025
		c0.033-0.034,0.059-0.05,0.075-0.05c4.374-2.38,7.658-4.156,9.854-5.33c3.871-2.145,7.03-4.13,9.477-5.958h0.025
		c3.838-2.798,6.394-5.119,7.667-6.963c1.575-2.229,2.698-4.399,3.368-6.51c-7.323,6.418-13.758,11.245-19.305,14.479
		c-5.567,3.198-11.901,6.144-19.004,8.835c-0.641,0.24-1.285,0.479-1.936,0.716c-0.045,0.017-0.091,0.033-0.139,0.05
		c-0.219,0.079-0.437,0.159-0.653,0.239c-0.089,0.028-0.177,0.057-0.264,0.088c-0.864,0.306-1.735,0.608-2.615,0.905
		c-4.943,1.609-9.099,3.368-12.468,5.279h-0.05c-2.782,1.441-5.422,4.583-7.919,9.426c-2.53,4.877-4.851,8.354-6.963,10.432
		c-2.714,2.629-5.65,3.957-8.811,3.985c-0.567,0.003-1.141-0.035-1.722-0.114c0.033,0.386,0.024,0.847-0.025,1.383
		c0.336,0.469,0.997,1.064,1.986,1.785c0.553,0.393,1.119,0.699,1.696,0.917c1.43,0.547,2.942,0.576,4.537,0.088
		c2.967-0.872,4.667-2.388,5.104-4.55c0.469-2.48,1.483-4.717,3.041-6.711c4.073-5.379,11.865-8.664,23.378-9.854l13.725-1.307
		c5.447-0.503,9.997-1.072,13.65-1.709l0.075-0.051c1.072-0.15,2.782-1.056,5.128-2.714l17.018-12.846
		c0.57-0.436,1.123-0.871,1.659-1.307c7.927-6.167,13.784-11.262,17.571-15.284c-0.955,0.218-1.986,0.729-3.092,1.533
		c-1.039,0.721-2.572,1.961-4.6,3.721l-0.051,0.05c-3.905,2.782-6.904,4.801-8.999,6.058c-0.453,0.269-0.854,0.495-1.207,0.679
		c-7.759,4.257-15.426,8.019-23.001,11.287l-0.024,0.025l-2.766,1.207l-0.578-1.207l2.69-1.382h0.05
		c5.194-2.715,9.091-4.751,11.688-6.108v0.025c4.441-2.447,8.195-4.759,11.262-6.938v-0.025c0.386-0.251,0.746-0.486,1.081-0.704
		c4.105-2.882,7.257-5.271,9.451-7.164h0.025c2.246-1.91,5.405-5.044,9.477-9.401c0.051-0.05,0.109-0.109,0.176-0.176
		C349.569,110.686,352.326,107.635,353.801,105.809z M368.33,136.778c-7.926,4.541-13.146,7.415-15.66,8.622
		c-7.256,3.637-15.544,7.039-24.861,10.206c-0.184,0.067-0.368,0.159-0.553,0.276l-0.05,0.025h-0.025
		c-7.356,3.754-13.851,6.661-19.481,8.723l2.011-0.125c5.966-0.235,11.631-0.847,16.993-1.835
		c6.603-1.324,12.744-3.226,18.426-5.706c7.977-3.536,15.426-7.969,22.347-13.297c6.419-4.927,12.384-10.6,17.897-17.018
		l-7.893,4.75C374.129,133.376,371.079,135.169,368.33,136.778z M352.317,159.125c-1.24,0.385-2.22,0.678-2.94,0.879l-13.499,3.695
		h-0.025c-3.133,0.805-6.091,1.45-8.873,1.936c-6.854,1.156-12.652,1.291-17.396,0.402l-2.916-0.528l0.025-0.553
		c-1.072,0.369-2.111,0.712-3.116,1.03l2.514,1.785l-0.428,0.578l0.327,0.704c-4.022,1.927-7.776,3.276-11.262,4.047h-0.025
		l-8.044,1.333c-0.234,0.017-0.402,0.067-0.503,0.151v0.075c-0.033,0.051-0.143,0.386-0.327,1.006v-0.025
		c-0.167,0.771-0.394,1.492-0.678,2.162l9.477,3.57c1.927,0.67,3.854,1.274,5.781,1.81c6.871,1.81,13.868,2.647,20.989,2.514
		c1.844-0.05,3.637-0.151,5.38-0.302c3.988-0.402,7.784-1.139,11.388-2.212c2.949-0.855,5.765-1.927,8.445-3.217
		c-1.524-1.173-2.773-2.02-3.745-2.54l-0.025-0.025c-0.67-0.452-1.399-0.679-2.187-0.679h-0.075
		c-0.269-0.033-1.165,0.101-2.689,0.402h-0.026c-2.53,0.335-6.184,0.721-10.959,1.156c-0.922,0.05-1.877,0.117-2.866,0.201
		c-11.044,0.553-19.414-0.586-25.111-3.418l0.352-0.679l0.151-0.729c3.754,0.788,7.516,1.282,11.286,1.483
		c5.614,0.335,10.968,0.218,16.063-0.352c12.921-1.441,23.931-5.773,33.03-12.996c-0.771-0.704-2.455-1.525-5.053-2.463
		c-0.771-0.318-1.6-0.369-2.488-0.151L352.317,159.125z M259.611,189.315c0.57,0.022,1.123,0.019,1.659-0.013
		c0.274-0.014,0.542-0.035,0.804-0.063c-0.24-0.006-0.483-0.019-0.729-0.037c-1.736-0.115-3.639-0.488-5.706-1.119l-2.891-1.006
		h-0.05c0.033,0.067-0.109,0.294-0.428,0.679l-0.051,0.025c-0.721,0.989-0.829,2.572-0.326,4.751l0.176,0.754
		c0.05,0,0.092,0,0.126,0l1.508,0.377c-0.017,0.335-0.15,0.569-0.402,0.704c-0.185,0.218-0.779,0.377-1.785,0.478l-2.739,0.101
		c-1.039,0-2.053-0.109-3.042-0.327c0.857,3.182,1.935,5.767,3.23,7.754c0.201,0.303,0.406,0.592,0.616,0.868
		c0.377,0.478,0.745,0.938,1.105,1.383c2.884,3.578,5.205,6.142,6.963,7.692v0.049l4.575,3.696v0.024
		c1.039,0.922,1.483,1.475,1.332,1.659h0.025c0.168-0.251,0.436-0.871,0.805-1.86v0.051c0.318-0.904,0.544-2.857,0.679-5.857
		c0-1.524-0.101-2.463-0.302-2.814l-1.86-2.941c-1.743-2.263-3.017-3.988-3.82-5.179c-0.363-0.494-0.69-0.984-0.98-1.47
		c-0.578-0.967-1.01-1.914-1.295-2.841c-0.176-0.565-0.297-1.123-0.364-1.671l-0.402-2.765l-0.075-0.025
		c-1.391-0.52-2.129-0.788-2.213-0.804h-0.125l-0.126,0.604l0.126,2.237c0.084,0.436,0.108,0.796,0.075,1.081l-1.308-0.352
		c-0.116-0.033-0.217-0.209-0.301-0.528l-0.101-2.539l0.201-0.905v-0.101c0.2-0.771,0.737-1.114,1.608-1.03
		c0.235,0.033,1.098,0.318,2.589,0.855L259.611,189.315z M273.336,181.85c-1.127-0.03-2.33-0.164-3.606-0.403
		c-0.92-0.171-1.879-0.397-2.879-0.678c0.169,0.869,0.685,1.904,1.546,3.104c0.167,0.232,0.347,0.471,0.541,0.716l-1.458-3.066
		l1.357,0.176c0.242,0.033,0.481,0.063,0.716,0.088c1.446,0.176,2.774,0.264,3.985,0.264L273.336,181.85z M275.071,182
		c0.536-0.017,1.056-0.067,1.558-0.15c4.308-0.637,6.88-2.816,7.718-6.536v-0.051c0.269-0.888,0.444-1.366,0.528-1.433l-0.051,0.025
		c0.234-0.502,0.771-0.821,1.608-0.955l8.02-1.332l-0.025,0.05c1.09-0.251,2.212-0.561,3.368-0.93
		c-4.826,1.307-10.726,1.894-17.696,1.76c0.955,0.352,2.103,0.662,3.443,0.93l0.805,0.151l-0.201,0.779
		c-0.905,3.871-3.318,6.276-7.239,7.214c-0.101,0.033-0.201,0.059-0.302,0.076h-0.05c-0.57,0.083-1.157,0.151-1.76,0.201
		L275.071,182z M270.169,186.625l-0.352,0.251c-0.402,0.318-0.83,0.611-1.282,0.88h0.025c0.804-0.269,1.365-0.528,1.684-0.78
		c0.051-0.017,0.093-0.042,0.126-0.075L270.169,186.625z M271.25,188.159c-0.285,0.235-0.779,0.486-1.482,0.754
		c11.261,11.295,22.464,17.554,33.608,18.777c-0.839-2.647-1.911-5.12-3.218-7.416l0.05,0.05c-0.335-0.486-0.888-0.947-1.658-1.382
		c-1.123-0.402-1.961-0.737-2.515-1.005l-0.05-0.025l-4.525-1.81h-0.05c-6.721-2.949-12.142-6.988-16.264-12.116l-0.352-0.403
		c-1.425,0.051-3.017-0.017-4.776-0.201l0.352,0.704l1.534,2.388l0.125,0.402c0.051,0.268-0.168,0.67-0.653,1.207l-0.051,0.025
		L271.25,188.159z M284.623,178.833c-1.491,2.463-4.072,3.98-7.742,4.55h-0.05l0.603,0.478h0.051v0.025
		c7.172,5.949,14.864,9.912,23.076,11.89c7.759,1.843,16.456,1.642,26.092-0.603l0.151-0.025l0.101-0.05h0.15
		c0.234,0,0.545-0.025,0.931-0.076l-0.051-0.075c-0.101-0.453-0.578-1.056-1.433-1.81h-0.05c-0.051-0.05-0.101-0.108-0.151-0.176
		v-0.025c-1.91-2.095-3.167-3.193-3.771-3.293h-0.051c-7.842-0.989-12.309-1.567-13.397-1.734c-5.045-0.888-9.46-1.986-13.248-3.293
		h-0.05c-3.955-1.391-7.273-3.034-9.955-4.927L284.623,178.833z M300.083,165.661l2.814,1.734l-2.589-1.81
		C300.242,165.619,300.167,165.644,300.083,165.661z M233.167,186.877l0.352-0.93l0.855,0.805c1.407,1.491,3.636,2.966,6.686,4.424
		c-0.184-0.134-0.385-0.268-0.603-0.402h-0.025c-0.889-0.62-3.284-2.48-7.189-5.581C233.259,185.779,233.234,186.34,233.167,186.877
		z M282.135,203.568c-1.308-0.671-2.246-1.249-2.815-1.734l-4.399-3.721v-0.05c-3.519-3.1-5.756-5.966-6.712-8.597
		c-0.754,0.218-1.65,0.461-2.689,0.729c-0.476,0.125-0.962,0.234-1.458,0.327c-1.248,0.222-2.567,0.335-3.959,0.339
		c-0.212-0.003-0.426-0.008-0.641-0.013h-0.076l-2.79-0.377l1.257,2.212c0.107,0.189,0.216,0.377,0.327,0.565
		c0.514,0.886,1.05,1.745,1.608,2.577c3.227,4.868,7.157,8.889,11.79,12.066h0.05c3.067,2.128,6.955,4.114,11.664,5.958
		c0.117,0.016,0.227,0.059,0.327,0.125l0.678-3.494v0.076c0.185-1.643-0.024-3.327-0.628-5.053v-0.051
		C283.416,204.783,282.905,204.154,282.135,203.568z M128.294,186.877l-0.352-0.251l-0.201,0.276
		c0.033,0.034,0.075,0.059,0.125,0.075c0.318,0.251,0.88,0.511,1.684,0.78h0.05C129.132,187.488,128.696,187.195,128.294,186.877z
		 M128.093,183.383c-1.759,0.184-3.352,0.251-4.776,0.201l-0.352,0.403c-4.122,5.127-9.544,9.167-16.264,12.116h-0.025l-4.55,1.81
		l-0.025,0.025c-0.57,0.268-1.416,0.603-2.539,1.005c-0.771,0.436-1.315,0.896-1.634,1.382c-1.296,2.281-2.361,4.736-3.192,7.365
		c11.144-1.224,22.347-7.482,33.608-18.777c-0.704-0.268-1.198-0.52-1.483-0.754l-0.076-0.05l-0.05-0.025
		c-0.486-0.536-0.695-0.938-0.628-1.207l0.101-0.402l1.534-2.388L128.093,183.383z M129.274,181.698l1.357-0.176l-1.433,3.066
		c0.603-0.774,1.08-1.486,1.433-2.136c0.33-0.617,0.548-1.179,0.654-1.684c-0.474,0.132-0.938,0.254-1.396,0.364
		c-0.864,0.202-1.698,0.361-2.501,0.478c-0.912,0.138-1.783,0.218-2.614,0.239l-0.201,0.201c0.932,0,1.925-0.05,2.979-0.151
		C128.11,181.847,128.684,181.78,129.274,181.698z M102.327,184.615h-0.025c-3.804,1.307-8.22,2.405-13.247,3.293
		c-1.106,0.167-5.581,0.746-13.423,1.734h-0.025c-0.62,0.1-1.885,1.198-3.796,3.293v0.025c-0.05,0.067-0.101,0.126-0.151,0.176
		h-0.05c-0.855,0.754-1.332,1.357-1.433,1.81l-0.051,0.075c0.386,0.051,0.696,0.076,0.93,0.076h0.176l0.075,0.05l0.151,0.025
		c9.636,2.245,18.333,2.446,26.093,0.603c8.211-1.978,15.903-5.941,23.076-11.89v-0.025h0.051l0.603-0.478h-0.05
		c-3.653-0.57-6.234-2.086-7.742-4.55l-1.207,0.854C109.617,181.581,106.299,183.224,102.327,184.615z M98.029,165.661
		c-0.067-0.017-0.143-0.042-0.226-0.076l-2.564,1.81L98.029,165.661z M103.408,173.102h-0.025c-3.485-0.771-7.231-2.12-11.236-4.047
		l0.302-0.704l-0.427-0.578l2.514-1.785c-1.005-0.318-2.044-0.662-3.117-1.03l0.025,0.553l-2.916,0.528
		c-4.743,0.888-10.541,0.754-17.395-0.402c-2.782-0.486-5.74-1.131-8.874-1.936h-0.025l-13.499-3.695
		c-0.721-0.201-1.692-0.494-2.916-0.879l0.025,0.05c-0.872-0.218-1.701-0.167-2.489,0.151c-2.598,0.938-4.282,1.759-5.053,2.463
		c9.1,7.223,20.11,11.555,33.031,12.996c5.094,0.57,10.449,0.687,16.063,0.352c3.771-0.201,7.533-0.695,11.287-1.483l0.151,0.729
		l0.377,0.679c-5.714,2.832-14.093,3.971-25.137,3.418c-0.989-0.084-1.936-0.151-2.84-0.201c-4.793-0.436-8.446-0.821-10.96-1.156
		h-0.05c-1.525-0.301-2.421-0.436-2.69-0.402h-0.075c-0.788,0-1.508,0.227-2.162,0.679l-0.05,0.025
		c-0.972,0.52-2.221,1.366-3.746,2.54c2.681,1.29,5.497,2.362,8.446,3.217c3.604,1.073,7.399,1.81,11.388,2.212
		c1.743,0.151,3.536,0.251,5.379,0.302c7.122,0.134,14.127-0.704,21.015-2.514c1.927-0.536,3.846-1.14,5.756-1.81l9.477-3.57
		c-0.285-0.67-0.511-1.391-0.679-2.162v0.025c-0.184-0.62-0.293-0.955-0.327-1.006v-0.075c-0.101-0.084-0.268-0.134-0.502-0.151
		L103.408,173.102z M103.685,171.618l-0.025-0.05l8.019,1.332c0.838,0.134,1.375,0.453,1.609,0.955l-0.025-0.025
		c0.067,0.067,0.235,0.544,0.503,1.433v0.051c0.838,3.72,3.41,5.899,7.717,6.536c0.503,0.083,1.022,0.134,1.558,0.15l0.277-0.201
		c-0.604-0.05-1.19-0.117-1.76-0.201h-0.025c-0.118-0.017-0.227-0.042-0.327-0.076c-3.904-0.938-6.317-3.343-7.239-7.214
		l-0.201-0.779l0.805-0.151c1.34-0.268,2.497-0.578,3.469-0.93c-6.988,0.134-12.896-0.453-17.722-1.76
		C101.473,171.057,102.595,171.367,103.685,171.618z M29.781,136.778c-2.748-1.609-5.798-3.402-9.15-5.38l-7.893-4.75
		c5.513,6.418,11.479,12.091,17.898,17.018c6.938,5.329,14.395,9.761,22.372,13.297c5.664,2.48,11.806,4.382,18.426,5.706
		c5.346,0.989,11.001,1.601,16.967,1.835l2.011,0.125c-5.614-2.062-12.108-4.969-19.481-8.723h-0.025l-0.05-0.025
		c-0.185-0.117-0.369-0.209-0.553-0.276c-9.317-3.167-17.604-6.569-24.861-10.206C42.928,144.193,37.708,141.319,29.781,136.778z
		 M164.944,186.877c-0.067-0.537-0.092-1.098-0.075-1.685c-3.905,3.101-6.301,4.961-7.189,5.581h-0.025
		c-0.218,0.134-0.419,0.268-0.604,0.402c3.05-1.458,5.287-2.933,6.711-4.424l0.83-0.805L164.944,186.877z M139.128,194.581
		c0.39-0.618,0.767-1.25,1.131-1.897l1.257-2.212l-2.765,0.377h-0.101c-0.88,0.021-1.73,0-2.551-0.063
		c-1.034-0.086-2.022-0.237-2.967-0.452c-0.181-0.045-0.361-0.091-0.541-0.139c-1.039-0.268-1.935-0.511-2.689-0.729
		c-0.956,2.631-3.184,5.497-6.687,8.597v0.05l-4.424,3.721c-0.569,0.485-1.508,1.063-2.815,1.734
		c-0.771,0.586-1.282,1.215-1.533,1.885v0.051c-0.604,1.726-0.813,3.41-0.628,5.053v-0.076l0.679,3.494
		c0.101-0.066,0.209-0.109,0.327-0.125c4.709-1.844,8.605-3.83,11.689-5.958h0.025c4.501-3.086,8.339-6.97,11.513-11.651
		C138.418,195.698,138.778,195.145,139.128,194.581z M233.28,189.956l0.188,2.137l0.629,7.353l0.904,10.658l0.516,3.432l0.302,2.061
		l0.465,3.105l-0.704,5.229l-0.578,2.01l-1.684,3.847l-1.609,1.685l-2.011,1.482l-2.438,1.082l-14.052,3.418l-20.311,5.605
		l-11.915,6.084l-7.039,5.73l-4.776,2.74l-7.893,3.066h-0.377c-1.542,0.537-3.066,0.973-4.575,1.307
		c-1.424,0.319-2.833,0.555-4.224,0.705c-3.1,0.268-6.116,0.461-9.049,0.578c-12.937,0.502-24.341-0.361-34.211-2.59h-0.201
		l-2.815-0.703L102,258.166l-1.156-1.281l-1.609-0.98l-1.684-2.766l-0.553-1.609l-0.729-8.471v-1.482l0.201-1.484L97.551,237
		l2.011-2.965l2.966-3.093h0.327l1.684-2.765l2.036-1.685l4.776-2.765l8.999-3.771l7.591-3.795l1.483-2.237l0.729-0.528l1.496-0.816
		l0.868-0.466l0.628-0.226l0.854-0.302h1.685l1.609-1.282l0.729-1.482l2.438-1.685l1.609-0.755l0.779-0.527l1.986-0.754l2.991-2.338
		l0.502-0.955l1.283-1.483l1.168-0.993l0.314-0.264l1.709-1.081l1.056-0.264l0.528-0.138l2.79-2.363l0.201-0.955l0.502-0.93
		l1.283-1.282l1.508-0.779l0.163-0.402l0.264-0.628l2.011-0.98l2.036-2.564l0.527-1.81l0.805-1.019l3.017-3.758h0.201l1.483-2.187
		l1.32-3.896l0.49-1.458l0.553-0.704l0.202-0.251l1.282-1.257l0.402-0.226l2.061-4.022l0.302-2.011l2.212-4.248l1.734-1.483
		l1.056-0.578l5.731-4.575l6.385-2.388l2.966-3.092l2.012-0.528h2.362l2.966,1.232l1.182,0.779l1.559-0.453l7.265-3.092l5.305-1.232
		l5.681-0.251l1.81,0.251l2.967,1.031l2.338,2.011l1.156,2.765l-0.201,3.544l-3.52,10.306l-0.201,6.586l1.244,6.422l0.453,2.325
		l0.414,3.281L233.28,189.956z M184.627,161.061l0.15-0.478l-1.81,0.956l-1.232,1.81l-0.754,1.685l-0.201,0.879v0.93l-3.469,6.335
		l-0.604,0.276l-1.282,1.684l-0.83,2.991l-2.664,4.776v-0.202l-0.201,0.202l-0.553,0.301l-2.74,3.746v0.528l0.126,0.201
		l-2.891,4.047l-0.754,0.729h-1.056l-0.427,0.553l-0.402,0.729l-1.936,1.081l-0.754,0.729v0.754
		c0.017,0.033,0.042,0.075,0.076,0.125l0.125,0.201l-5.027,4.324l0.05-0.202h-0.201l-2.262,1.056l-1.483,1.281l-0.528,1.082v0.15
		l-5.127,4.021l-1.885,0.479l-2.765,1.81l-0.528,0.2l-0.327,0.554l-0.201,0.729l0.101,0.277l-3.997,2.487h-0.88l-1.282,0.202
		l-2.011,1.081l-0.754,0.527l-0.729,1.483h0.453l-1.207,0.779l-9.225,4.449l-5.681,2.011l-1.634,1.081l-0.754,0.201l-2.79,1.483
		l-2.037,1.81l-1.483,1.81l-0.327,0.629v0.05l-0.402,0.478l-0.83,1.408l-0.251,0.604V237l2.237,2.539l1.609,0.955l6.988,2.338
		l10.332,2.037l12.87,0.98l4.474-0.252l13.6-2.011l10.583-3.293l31.195-12.394l-2.362,0.604l10.633-4.072l17.998-4.248l3.318-1.231
		l2.212-1.483l1.483-1.609l0.528-1.181l0.251-1.081v-2.766l-3.544-34.211l-0.931-4.248l-0.226-2.011v-4.248l1.156-5.028l2.036-5.278
		l0.729-3.494v-1.081l-0.201-0.98l-0.527-0.729l-0.755-0.754l-2.212-1.031l-1.81-0.251h-3.494l-3.269,0.553l-9.451,3.494
		l-3.896,1.005l-0.88-0.553l-1.005-0.251l-1.76-0.905l-1.081-0.327h-1.257l-2.036,1.483l-1.282,1.81l-5.178,1.81l-3.293,1.885
		L184.627,161.061z M233.318,220.637l0.2-1.484l-0.2-1.482v1.282l-0.528,1.483l-2.036,2.765l-1.056,1.03l-2.766,1.709l-3.896,1.484
		l-19.432,3.846l-17.546,6.26l-5.078,2.563l-16.591,9.754l-1.684,0.201l-0.352,0.201l-0.93-2.213l-0.528-2.186l-0.226-0.579
		l-1.056-0.954l-0.955-0.529l0.503,0.78l0.779,0.703l1.483,4.374l0.729,5.957v1.811l0.553-0.527l0.327-0.779l0.076-1.483
		l-0.251-2.237l5.354-2.539l11.085-7.014l8.27-4.021l11.035-4.248l9.176-2.413l12.945-2.363l5.053-1.81l3.922-2.037l1.608-1.256
		l1.483-2.237L233.318,220.637z M146.494,213.447l0.125,0.427l0.227,0.805l2.262,4.022l1.684,1.936l-0.201,0.15l-0.528,0.352
		l-2.765-3.67l-1.483-3.871l-0.578-2.212v-2.036l0.93,2.967v0.075l0.327,1.005V213.447z M129.752,257.915l-10.331-1.231
		l-10.307-3.344l-2.539-1.231l-5.002-3.745l-0.528-0.729l0.528,3.896l1.734,1.283l6.259,3.092l4.575,1.508l9.352,1.684l9.426,0.554
		l13.096-0.754l11.362-1.685l1.785-0.527l-16.314,1.482L129.752,257.915z M121.23,225.362l1.936,0.804l5.832,4.35l5.002,6.058
		l2.539,4.449l0.427,1.483l0.528,0.553l1.483-0.201v0.201l-4.249,0.201l-9.552-0.428l-8.27-1.256l-5.354-1.484l-3.997-2.563
		l-1.734-1.484l-0.528-1.08v-0.604l0.327-1.081l0.453-0.854h-0.05l0.327-0.629l1.483-1.81l2.037-1.81l2.79-1.483l0.754-0.201
		l4.223-1.282L121.23,225.362z M196.064,156.31l-9.024,10.332l-0.98,0.754l-0.502-0.327l-0.98-2.765l0.452-1.734l0.729-1.03
		l1.081-0.956l6.46-4.273l3.62-1.559L196.064,156.31z M211.474,156.008l-5.078-2.992l4.575-0.704l12.066-3.871l1.131-0.201h2.338
		l1.508,0.528l2.212,2.062l0.327,1.156l-0.327,1.559l-0.955,1.483l-1.482,1.533l-1.811,1.232l-4.173,1.734l-6.837,0.528
		l-0.704-1.483L211.474,156.008z M150.591,220.787v0.352l-0.779,0.779l-0.101,0.227l3.997,3.896l0.879,0.125l2.062,2.012v0.829
		l0.201,0.779l-0.201,0.729v0.427l-1.082,1.282l-0.98,0.729l-1.483,0.327l-1.483-0.327l-1.031-0.729l-1.282-1.709v-1.509l0.076-0.15
		l-0.276-0.227c-0.117-0.117-0.226-0.226-0.327-0.327c-0.05-0.033-0.093-0.059-0.126-0.074l-7.617-6.512l-3.544-2.061l-1.81-0.704
		l-3.167-0.779h-1.358h-0.453l0.729-1.483l0.754-0.527l2.011-1.081l1.282-0.202h0.88h0.402l1.081,0.504l0.93-0.504l2.288-0.426
		l-0.604-1.584l-0.101-0.478l-0.101-0.277l0.201-0.729l0.327-0.554l0.528-0.2l2.765-1.81l1.885-0.479l-0.403,0.277l0.277,1.658
		l0.176-0.377l2.514-2.363l1.282-0.729l1.659-0.101l-0.176-0.327l-0.202-1.281v-0.779v-0.15l0.528-1.082l1.483-1.281l2.262-1.056
		h0.201l-0.05,0.202l-0.277,0.653c-0.034,0.05-0.059,0.117-0.075,0.201l0.402,0.955l0.679,0.805c0.754,1.34,1.14,2.103,1.157,2.287
		l0.402,0.126l3.293,7.415l0.528,0.201l0.327-0.201l-0.327,0.528l-2.966,1.935l-2.262-0.778l-3.243-4.978l-4.827,0.201l-2.313,0.527
		l-0.176-0.401c0.05,0.317,0.109,0.637,0.176,0.955c0,0.083,0.009,0.167,0.025,0.251l0.125,0.68l-0.93-2.967v2.036l0.578,2.212
		l1.483,3.871l2.765,3.67L150.591,220.787z M164.919,192.457l-0.201,0.553v0.528l0.201,0.729l2.288,3.394l2.287-0.402l1.684,0.327
		l5.53,1.81l7.868,4.223l0.05,0.05l0.729,0.629l0.704-0.125l1.307,0.201l1.156,0.729l0.754,0.955l0.527,1.482l-0.527,1.609
		l-0.754,0.955l-1.156,0.729l-1.307,0.554l-1.483-0.554l-1.282-0.729l-0.704-0.955l-0.314-0.83l-0.013-0.024v-0.628l-6.384-3.57
		l-5.43-2.287l-0.478-0.076l1.76,2.641l0.729,1.482l0.202,0.754l-3.167,2.213l-2.011-0.73l-3.645-6.736l-2.74,0.453l-3.218,1.81
		l0.453-0.854l4.123-3.167l0.175-0.076l-1.005-1.005l-1.081-1.885l-0.125-0.201c-0.034-0.051-0.059-0.092-0.076-0.125v-0.754
		l0.754-0.729l1.936-1.081l0.402-0.729l0.427-0.553H164.919z M168.564,187.681l-0.126-0.201v-0.528l2.74-3.746l0.553-0.301
		l0.201-0.202v0.202v0.83c0.036,0.072,0.073,0.143,0.113,0.213c0.158,0.337,0.313,0.686,0.465,1.043l0.201,0.402l0.503-1.659
		l0.729-1.232l1.357-1.533l-0.83-1.056l-0.201-0.754l0.326-1.031l0.83-2.991l1.282-1.684l0.604-0.276l0.478-0.277l-0.302,1.282
		v0.955l2.514,3.343h0.05l0.05-0.05l0.679-0.201h2.011l8.496,0.93l5.304,1.282c0.134,0.051,0.269,0.109,0.402,0.176l0.629,0.276
		l0.503-0.076c0.15-0.066,0.31-0.108,0.477-0.125l1.509,0.277l1.056,0.754l1.081,1.182l0.201,0.502v1.483l-0.201,0.905l-2.137,1.885
		l-1.509,0.301l-1.482-0.301l-2.011-1.885v-0.327l-0.88-0.276c-0.201-0.067-0.377-0.109-0.528-0.125l-5.103-1.383
		c-0.051,0-0.092,0-0.126,0l-4.198-0.779h-0.854l3.62,4.776l-2.011,3.092l-2.438-0.528l-5.505-6.988l-2.061,0.478l-0.038,0.012
		l-1.043,0.44l-0.955,0.704l-0.277,0.502l0.503,1.106l2.212,3.217h4.072l7.542,1.559l5.179,1.936l0.879-0.201l1.282,0.327
		l1.257,0.729l0.955,1.709v1.483l-0.2,0.729l-0.754,1.408l-1.257,0.604l-1.282,0.327l-1.483-0.327l-1.282-0.604l-0.578-1.156
		l-5.178-1.935l0.05-0.076l-0.553-0.176l-0.251-0.026l-3.041-0.804h-0.251l-1.283-0.125l-0.125-0.05l1.86,2.74l-0.452,0.729
		l-1.559,1.81l-3.946-1.81l-0.679-0.88c-0.402-0.519-0.788-1.03-1.156-1.533c-0.073-0.073-0.132-0.131-0.176-0.176
		c-0.011-0.011-0.019-0.019-0.025-0.025l-0.528-0.729l-0.527,0.05l-3.495,1.609l-1.206,0.754l-0.503-0.754l0.754-2.262l2.438-2.841
		l0.503-0.201L168.564,187.681z M180.781,166.842v-0.93l0.201-0.879l0.754-1.685l1.232-1.81l1.81-0.956l-0.15,0.478l-0.05,0.025
		l-0.503,0.78v2.237l1.583,3.771l1.911-0.804l2.388-0.628l1.131-0.125h5.304l6.334,1.156l0.88-0.402l1.282,0.528l1.257,0.729
		l0.754,1.082l0.201,0.729v1.483l-0.201,0.754l-0.754,1.081l-1.257,0.729l-1.282,0.201l-1.357-0.201l-1.408-0.729l-0.678-1.005
		l-0.805-0.076l-4.047-0.955l-2.74-0.327l-3.846,0.604l0.528,0.604c0.05,0.05,0.101,0.117,0.151,0.201l1.131,1.357l0.754,0.528
		l0.327,0.553l-1.483,4.022l-1.282-0.327l-2.338-2.212l-2.337-3.293l-3.972,1.81l0.779-2.036l1.03-1.81l0.013-0.013l0.365-0.465
		l-1.106-1.533l-0.502-0.956V166.842z M200.64,183.408l-0.528-0.704l-0.754-0.528h-0.075l0.276,0.327l-0.201,0.402l-0.755,0.502
		l-0.527,0.779v1.03l-0.201,0.78v0.201h1.483l0.754-0.402l0.528-0.905V183.408z M205.616,169.809l-0.402-0.729l-0.553-0.276v1.005
		l-0.528,1.081l-0.2,0.729l-0.528,0.554l-0.754,0.276l0.201,0.125h1.482l0.88-0.402l0.402-0.754V169.809z M194.908,195.549
		l-1.082-0.805v0.402l-1.257,0.905l-0.427,1.734l-0.251,0.403l0.251,0.125l0.754,0.201l0.729-0.201l0.754-0.528l0.528-0.528V195.549
		z M183.747,207.539l0.428,1.082h-0.026l0.125,0.201l0.754,0.527l0.729,0.251l0.754-0.251l0.854-0.527l0.402-0.73v-1.482
		l-0.402-0.754l-1.609-0.528l-1.483,0.528l-0.527,0.754V207.539z M181.334,201.959c-0.134,0-0.293-0.025-0.478-0.075l0.428,0.151
		L181.334,201.959z M185.582,196.454l-0.101-0.025l0.076,0.075L185.582,196.454z M176.206,214.176l-0.779,0.503l-0.202,0.402
		l-0.201,1.081l0.176,0.527c0.536,0.754,1.106,1.266,1.709,1.533l-0.201-0.15l0.327,0.101l1.483-0.704l0.452-0.578l0.327-0.729
		l-0.327-1.081l-0.452-0.402l-0.729-0.503l-0.754-0.251L176.206,214.176z M178.519,212.869l1.282,0.729l0.729,1.281l0.251,0.78
		v1.231l-0.251,0.779l-0.729,1.282l-1.282,0.704l-1.483,0.251l-1.609-0.251l-0.956-0.704l-0.729-1.282l-0.327-0.98l-7.743-3.82
		l-4.725-1.509l-0.277-0.578l0.352,0.779l-2.438-4.449l0.427,0.578l-0.603-0.88l7.792,1.057l4.449,1.482l4.072,2.036l1.709,1.383
		l0.604-0.126L178.519,212.869z M146.619,213.874l-0.125-0.427l3.217,0.125c0.218,0,0.448,0.004,0.691,0.014
		c0.125,0.002,0.254,0.006,0.39,0.012l6.058,1.811l8.823,4.047l0.126,0.101l0.604-0.101l1.282,0.201l1.282,0.779l0.729,1.281
		l0.227,0.729v1.483l-0.955,1.81l-1.282,0.754l-1.282,0.201l-1.483-0.201l-1.282-0.754l-0.93-1.81v-0.881l-3.544-2.111l-7.868-2.564
		l-1.483-0.226h-0.151l-0.678-0.126L146.619,213.874z M149.309,222.245h0.302l-0.302-0.201V222.245z M142.069,217.469l-0.226-0.578
		l-0.931-0.126L142.069,217.469z M167.232,222.245h-0.503l-0.528,0.401l-0.528,0.755v0.528l-0.226,0.301l-0.101,0.051l0.101,0.15
		l-0.251-0.075l-0.277,0.075l1.483,0.578l0.83-0.326l0.452-0.252l0.528-0.703l0.226-0.779l-0.226-0.704l-0.528-0.729l-0.201,0.402
		L167.232,222.245z M152.602,230.742l-0.528,0.527l-0.201-0.327h-0.251l0.251,0.327l0.528,0.527h1.684l1.081-1.281l0.201-0.729
		l-0.201-0.779l-0.327-0.478v0.176l-0.251,0.754h-1.03L152.602,230.742z M138.978,242.857l-1.483,0.201l-0.528-0.553l-0.427-1.483
		L134,236.573l-5.002-6.058l-5.832-4.35l-1.936-0.804l-0.302-0.151l2.237,0.201l5.304,2.313l2.966,2.263l4.575,4.978l1.283,2.362
		l2.011,5.505L138.978,242.857z M149.812,218.147v0.025l-0.151-0.025H149.812z M146.494,213.396h2.036l0.05,0.126l-2.086-0.075
		V213.396z M179.373,199.873l0.125,0.05l-0.528,0.628l-3.946-2.036l-0.754-0.93l0.075,0.05l0.679,0.88l3.946,1.81L179.373,199.873z
		 M180.253,195.197l0.277,0.025l-0.754-0.05c-0.16-0.008-0.318-0.016-0.478-0.025l-0.051-0.05L180.253,195.197z M184.074,196.052
		l0.302,0.176l-0.553-0.202L184.074,196.052z M180.102,178.431l-0.05,0.05l-0.05-0.05H180.102z M175.628,189.717l-0.201-0.251
		l2.363,0.251H175.628z M219.518,221.441l9.427-3.269l1.08-0.704l0.956-1.105l1.055-1.685l0.453-1.282v0.201l-0.251,1.081
		l-0.528,1.181l-1.483,1.609l-2.212,1.483l-3.318,1.231L219.518,221.441z M148.995,218.021l0.251,0.453
		c0.03,0.051,0.059,0.101,0.088,0.15c0.037,0.067,0.075,0.135,0.113,0.201c0.156,0.269,0.311,0.537,0.465,0.805l-0.804-0.93
		l-2.262-4.022l-0.227-0.805L148.995,218.021z M184.375,196.228l-0.302-0.176l0.553,0.176l-0.05,0.076L184.375,196.228z
		 M192.847,179.562l-0.302-0.075l0.025-0.075h0.327L192.847,179.562z M194.053,179.838v-0.125l0.088,0.025l0.44,0.176v0.051
		L194.053,179.838z M185.557,196.504l-0.076-0.075l0.101,0.025L185.557,196.504z M181.284,202.035l-0.428-0.151
		c0.185,0.05,0.344,0.075,0.478,0.075L181.284,202.035z M160.96,211.36l0.214,0.428l-0.151-0.227l-0.352-0.779L160.96,211.36z
		 M158.535,207.012l0.477,0.679l-0.427-0.578L158.535,207.012z M149.309,222.245v-0.201l0.302,0.201H149.309z M158.584,207.112
		l2.438,4.449l0.151,0.227l0.779,1.608l-0.327,0.201l-0.528-0.201l-3.293-7.415l-0.402-0.126c-0.017-0.185-0.403-0.947-1.157-2.287
		c0.688,0.838,0.997,1.173,0.93,1.005c0.309,0.559,0.619,1.116,0.93,1.672l0.314,0.565l0.114,0.201L158.584,207.112z
		 M137.394,237.617l-0.1-0.29l0.729,1.483l0.956,2.966v0.177L137.394,237.617z M127.414,227.297l-3.092-1.357l2.137,0.755
		L127.414,227.297z M129.626,228.63l0.125,0.075l0.075,0.076L129.626,228.63z M132.718,231.27l0.453,0.604l-0.931-1.057
		L132.718,231.27z"/>
	<path fill-rule="evenodd" clip-rule="evenodd" fill="#C43B28" d="M209.965,87.911l1.609-1.76l4.122-2.865
		c2.866-1.542,6.142-2.648,9.829-3.318c5.765-1.039,12.728-1.156,20.889-0.352c1.676,1.224,3.31,2.547,4.902,3.972
		c1.927,1.676,3.754,3.478,5.479,5.405c7.257,7.843,12.568,16.699,15.938,26.57c3.178,9.193,4.581,18.586,4.21,28.179
		c-0.152,0.06-0.308,0.119-0.465,0.176c-0.356,0.127-0.717,0.257-1.081,0.39c-6.989-11.298-15.275-20.88-24.86-28.745
		c-5.262-4.407-11.161-8.362-17.697-11.865c-0.703-0.385-1.424-0.737-2.161-1.056c-5.598-2.799-11.53-5.069-17.798-6.813
		l-5.58-1.407c0.318-1.576,0.805-3.025,1.458-4.349L209.965,87.911z M196.818,64.433c1.559-0.084,3.143-0.101,4.751-0.05
		c10.457,0.218,20.462,2.43,30.014,6.636c5.279,2.279,10.181,5.111,14.706,8.496c-7.659-1.542-14.647-1.911-20.965-1.106
		c-4.039,0.503-7.566,1.475-10.583,2.916c-1.827,0.838-3.41,1.843-4.751,3.017l-2.087,2.162l-1.482,2.413
		c-0.805,1.492-1.416,3.167-1.835,5.027c-4.156-0.838-8.371-1.391-12.645-1.659l-4.826-0.276
		C189.763,83.143,192.998,73.952,196.818,64.433z M166.93,71.497c1.894,3.402,2.866,7.038,2.917,10.91
		c0.05,3.167-0.486,6.653-1.609,10.457c-11.982,1.391-23.939,4.332-35.871,8.823c3.603-5.866,8.027-11.203,13.272-16.013
		C151.906,79.775,159.003,75.049,166.93,71.497z M171.43,82.255c-0.386-4.089-1.768-7.725-4.148-10.909l4.173-1.734
		c8.145-3.05,16.482-4.776,25.012-5.178c-4.475,8.647-8.396,17.822-11.765,27.525c-4.659-0.067-9.284,0.108-13.876,0.527
		C171.598,88.85,171.798,85.439,171.43,82.255z M277.421,160.294c-0.268,0.036-0.531,0.074-0.792,0.113
		c-0.683,0.104-1.345,0.209-1.985,0.314c-1.718,0.29-3.285,0.587-4.7,0.893c-5.062,1.106-8.916,2.38-11.563,3.821v-0.05
		c-4.123,2.195-6.721,5.245-7.793,9.149c-0.134,0.352-0.26,0.997-0.377,1.936c-0.05,0.536-0.167,0.921-0.352,1.156
		c-0.771,0.888-1.441,1.533-2.012,1.935h-0.024v0.051c-1.559,1.273-3.017,2.069-4.374,2.388h0.024
		c-1.095,0.171-2.247,0.108-3.456-0.188c-0.56-0.136-1.134-0.325-1.722-0.565c-0.254-0.113-0.564-0.268-0.93-0.465
		c-0.936-0.507-2.234-1.291-3.896-2.351h-0.025c-0.218-0.127-0.767-0.567-1.646-1.32l-1.244-6.422l0.05-1.609l2.69,4.587
		l-0.402-0.088l0.754,1.483c0.234,0.436,0.302,1.123,0.201,2.061l-0.051,0.226l0.126,0.201c0.318,0.67,1.174,1.5,2.564,2.489
		c0.245,0.174,0.492,0.333,0.741,0.478c0.867,0.512,1.759,0.855,2.678,1.03c1.321,0.251,2.695,0.15,4.122-0.301
		c3.653-1.073,5.706-2.975,6.159-5.707c0.451-2.245,1.374-4.265,2.765-6.058c3.843-4.948,11.112-8.023,21.807-9.225
		c0.171-0.015,0.343-0.032,0.515-0.05l2.213-0.201C277.462,160.103,277.44,160.2,277.421,160.294z M261.346,189.202
		c-0.026,0.034-0.052,0.068-0.075,0.1c-0.166,0.01-0.333,0.018-0.503,0.025c-0.377,0.007-0.763,0.002-1.156-0.013l-3.218-0.427
		c-1.491-0.537-2.354-0.822-2.589-0.855c-0.871-0.084-1.408,0.26-1.608,1.03v0.101l-0.201,0.905l0.101,2.539
		c0.084,0.319,0.185,0.495,0.301,0.528l0.554,0.151c0,0.05,0,0.117,0,0.201l-0.754-0.201c-0.034,0-0.076,0-0.126,0l-0.176-0.754
		c-0.503-2.179-0.395-3.762,0.326-4.751l0.051-0.025c0.026-0.032,0.051-0.062,0.075-0.088c0.266-0.333,0.383-0.529,0.353-0.591h0.05
		l2.891,1.006c1.841,0.561,3.55,0.917,5.128,1.068C260.963,189.173,261.155,189.189,261.346,189.202z M274.995,144.445
		c-0.7,0.249-1.413,0.5-2.137,0.754c-5.027,1.625-9.267,3.402-12.719,5.329l-0.051,0.05c-3.016,1.491-5.865,4.852-8.546,10.08v-0.05
		c-2.431,4.709-4.668,8.069-6.712,10.08c-2.583,2.541-5.416,3.71-8.497,3.506c-0.937-1.814-1.959-3.729-3.066-5.744l-2.477-4.449
		l3.482-10.206l0.201-3.544l-1.156-2.765l-2.338-2.011l-2.967-1.031l-1.81-0.251l-5.681,0.251l-0.252,0.063
		c-2.511-5.231-4.597-9.928-6.259-14.089c-1.291-3.268-2.413-6.385-3.369-9.351c-1.24-3.821-2.178-7.432-2.814-10.834
		c-0.771-3.637-1.132-7.072-1.081-10.307l0.024-2.212l5.305,1.282c5.514,1.525,10.867,3.502,16.063,5.933
		c7.256,3.352,14.177,7.566,20.764,12.644C258.128,124.663,266.825,133.62,274.995,144.445z M233.519,185.947l-0.352,0.93
		c0.067-0.537,0.092-1.098,0.075-1.685c3.905,3.101,6.301,4.961,7.189,5.581h0.025c0.218,0.134,0.419,0.268,0.603,0.402
		c-3.05-1.458-5.278-2.933-6.686-4.424L233.519,185.947z M183.672,94.949l-1.483,4.399c-1.827,5.731-3.57,12.292-5.229,19.683
		c-1.441,6.586-2.606,13.222-3.494,19.909c-0.821,6.016-1.383,12.024-1.684,18.023c-0.308,5.324-0.421,10.632-0.339,15.925
		c-0.722,0.445-1.455,0.994-2.2,1.646c-2.647,2.363-4.172,3.662-4.575,3.896h-0.025c-2.313,1.475-3.921,2.414-4.826,2.815
		c-1.844,0.754-3.57,1.005-5.178,0.754h0.05c-1.375-0.318-2.833-1.114-4.374-2.388v-0.051h-0.05c-0.57-0.402-1.24-1.047-2.011-1.935
		c-0.185-0.235-0.302-0.62-0.352-1.156c-0.118-0.939-0.243-1.584-0.377-1.936c-1.073-3.905-3.662-6.955-7.767-9.149v0.05
		c-2.665-1.441-6.52-2.715-11.563-3.821c-1.49-0.318-3.137-0.628-4.939-0.93c-0.197-0.035-0.394-0.068-0.591-0.101
		c-0.162-0.023-0.325-0.049-0.49-0.075c-0.23-0.032-0.46-0.065-0.691-0.101c-0.742-0.111-1.509-0.221-2.3-0.327
		c-0.011-0.063-0.023-0.125-0.038-0.188l3.62,0.314h0.076c0.198,0.021,0.395,0.042,0.591,0.063
		c10.653,1.206,17.896,4.276,21.731,9.213c1.391,1.793,2.313,3.813,2.765,6.058c0.453,2.732,2.505,4.634,6.159,5.707
		c2.698,0.855,5.212,0.452,7.541-1.207c1.391-0.989,2.246-1.818,2.564-2.489l0.125-0.201l-0.05-0.226
		c-0.101-0.938-0.034-1.625,0.201-2.061l0.779-1.483l-1.584,0.327c-3.821,0.905-7.281-0.167-10.381-3.217
		c-2.044-2.011-4.282-5.371-6.712-10.08v0.05c-2.681-5.229-5.53-8.589-8.547-10.08l-0.05-0.05c-2.03-1.134-4.334-2.214-6.913-3.243
		c1.551-2.049,3.252-4.069,5.103-6.058l9.955-9.678l9.527-10.558c6.938-8.798,11.622-16.976,14.051-24.534l0.352-1.282l0.679-0.025
		C175.15,94.882,179.465,94.815,183.672,94.949z M204.008,97.111l-0.201,2.715c-0.134,3.402,0.15,7.072,0.854,11.01
		c0.755,3.988,1.852,8.228,3.293,12.72c0.889,2.597,1.894,5.287,3.017,8.069c1.844,4.614,3.871,9.156,6.083,13.625l-1.835,0.427
		l-7.265,3.092l-1.559,0.453l-1.182-0.779l-2.966-1.232h-2.362l-2.012,0.528l-2.966,3.092l-6.385,2.388l-5.731,4.575l-1.056,0.578
		l-1.734,1.483l-2.212,4.248l-0.302,2.011l-2.061,4.022l-0.402,0.226l-0.754,0.742c0.141-5.843,0.452-11.612,0.93-17.308
		c0.402-4.876,0.905-9.686,1.508-14.429c1.726-12.887,4.391-25.967,7.994-39.239l1.458-5.103
		C192.361,95.293,198.31,95.989,204.008,97.111z M268.396,183.873c-0.861-1.2-1.377-2.235-1.546-3.104
		c1,0.281,1.959,0.507,2.879,0.678c-0.058,0.114-0.115,0.228-0.177,0.34c-0.234-0.026-0.474-0.056-0.716-0.088l-1.357-0.176
		l1.03,2.149C268.472,183.738,268.435,183.805,268.396,183.873z M211.775,240.947c30.701-5.111,41.979-11.789,33.834-20.035
		c21.199,8.949,15.385,16.877-17.444,23.781c-7.156,1.491-15.577,2.949-25.263,4.373c-1.794,0.234-3.637,0.486-5.53,0.754
		L211.775,240.947z M174.446,264.878l15.661-8.472c54.615-3.586,78.957-12.459,73.024-26.62c10.859,18.2-7.181,29.335-54.121,33.407
		c-8.747,0.754-18.493,1.273-29.234,1.559C178.016,264.786,176.239,264.828,174.446,264.878z M167.232,95.578
		c-1.625,4.256-3.712,8.295-6.259,12.116c-2.296,3.72-4.969,7.474-8.019,11.261l-9.024,10.382l-9.678,10.155
		c-1.964,2.316-3.708,4.654-5.229,7.014c-1.202-0.447-2.458-0.883-3.771-1.307c-1.223-0.436-2.43-0.863-3.62-1.282
		c-0.451-0.163-0.899-0.327-1.345-0.49c-0.005-1.224,0.016-2.452,0.063-3.683c0.486-10.39,2.949-20.269,7.391-29.637
		c1.29-2.799,2.748-5.488,4.374-8.069c12.502-3.418,24.249-5.614,35.243-6.586L167.232,95.578z M129.199,184.589l1.433-3.066
		l-1.357,0.176c-0.591,0.082-1.165,0.148-1.722,0.201c-0.054-0.096-0.108-0.192-0.163-0.289c0.803-0.116,1.637-0.275,2.501-0.478
		c0.457-0.11,0.922-0.232,1.396-0.364c-0.106,0.505-0.324,1.067-0.654,1.684C130.279,183.103,129.801,183.815,129.199,184.589z
		 M138.5,189.315c-0.854,0.034-1.667,0.008-2.438-0.076c1.927-0.05,4.064-0.435,6.41-1.156l2.891-1.006h0.05
		c-0.034,0.067,0.109,0.294,0.427,0.679l0.05,0.025c0.721,0.989,0.83,2.572,0.327,4.751l-0.176,0.754c-0.05,0-0.092,0-0.126,0
		l-0.754,0.201c0-0.083,0-0.151,0-0.201l0.578-0.151c0.101-0.033,0.192-0.209,0.276-0.528l0.101-2.539l-0.202-0.905v-0.101
		c-0.201-0.771-0.729-1.114-1.583-1.03c-0.251,0.033-1.123,0.318-2.615,0.855L138.5,189.315z M164.944,186.877l-0.352-0.93
		l-0.83,0.805c-1.424,1.491-3.662,2.966-6.711,4.424c0.184-0.134,0.385-0.268,0.604-0.402h0.025c0.888-0.62,3.285-2.48,7.189-5.581
		C164.852,185.779,164.877,186.34,164.944,186.877z"/>
</g>
</svg>
