<?xml version="1.0" encoding="utf-8"?>
<!-- Generator: Adobe Illustrator 16.0.0, SVG Export Plug-In . SVG Version: 6.00 Build 0)  -->
<!DOCTYPE svg PUBLIC "-//W3C//DTD SVG 1.1//EN" "http://www.w3.org/Graphics/SVG/1.1/DTD/svg11.dtd">
<svg version="1.1" id="Layer_1" xmlns="http://www.w3.org/2000/svg" xmlns:xlink="http://www.w3.org/1999/xlink" x="0px" y="0px"
	 width="400px" height="400px" viewBox="0 0 400 400" enable-background="new 0 0 400 400" xml:space="preserve">
<g>
	<path fill-rule="evenodd" clip-rule="evenodd" fill="#782A1C" d="M224.441,272.478v-21.933l-6.632-7.016h-7.019v14.379
		L224.441,272.478z M227.664,254.035v21.932l13.611,14.493v-21.932L227.664,254.035z M241.275,243.529h-13.611v5.788l13.611,14.455
		V243.529z M224.441,245.828v-2.299h-2.185L224.441,245.828z M258.146,243.529h-10.811l10.811,11.578V243.529z M267.848,243.529
		h-6.442v15.029l12.386,13.268l1.189-2.416v-18.252L267.848,243.529z M258.146,281.757v-21.895l-13.649-14.569v21.932
		L258.146,281.757z M207.532,243.529h-10.237l10.237,10.927V243.529z M272.221,274.932l-10.815-11.579v21.855l4.026,4.295
		C267.453,284.952,269.714,280.096,272.221,274.932z M173.791,243.529h-1.497l1.497,1.608V243.529z M156.957,253.805v-10.275h-9.624
		L156.957,253.805z M210.791,262.623v21.933l13.65,14.571v-21.933L210.791,262.623z M207.532,281.105v-21.933l-13.611-14.456v21.855
		L207.532,281.105z M177.05,253.382v21.934l13.65,14.57v-22.009L177.05,253.382z M156.957,280.491v-21.933l-13.65-14.494v21.934
		L156.957,280.491z M160.216,262.047v21.935l13.575,14.493v-21.856L160.216,262.047z M167.846,243.529h-7.629v13.726l13.575,14.571
		v-21.933L167.846,243.529z M190.7,243.529h-13.65v5.062l13.65,14.531V243.529z M266.236,295.829v0.038l-6.287,15.723l-0.078,0.037
		l-6.44,19.518l-0.038,0.037v0.038c-2.097,7.184-3.771,14.188-5.023,21.014v0.113l-0.537,3.03v0.077l-1.955,21.05H140.162
		l-0.191-3.183c-0.997-9.432-2.53-19.35-4.601-29.755v-0.038l-0.078-0.038l-0.688-3.373V340l-0.499-2.03v-0.077l-2.224-9.586
		l-0.114-0.308l-0.039-0.076v-0.037l-3.528-13.037h-0.039l-2.377-7.862l-0.116-0.23l-2.338-6.978l-0.039-0.038
		c-4.857-13.702-10.417-25.907-16.679-36.618l-0.077-0.038l-2.109-3.604c-2.991-4.832-6.187-9.408-9.586-13.729l-0.038-0.075
		l-0.115-0.153l-0.115-0.115l-0.038-0.114l-1.917-2.38c-0.256-0.279-0.384-0.624-0.384-1.034v-0.152l0.077-0.269l0.115-0.23
		l0.421-0.575c0.281-0.257,0.626-0.383,1.035-0.383h201.267l-8.359,14.072v0.076l-0.038,0.038l-2.108,3.797v0.038l-0.114,0.152
		l-6.174,11.657c-2.89,5.623-5.638,11.311-8.245,17.063L266.236,295.829z M264.014,292.8l-2.608-2.838v9.05l1.805-4.372l0.037-0.075
		v-0.039L264.014,292.8z M177.05,306.718v21.935l13.65,14.57v-21.934L177.05,306.718z M156.957,333.829v-21.856l-13.65-14.571
		v21.932L156.957,333.829z M210.791,316.035v21.935l13.65,14.494v-21.896L210.791,316.035z M193.921,324.741v21.933l13.611,14.455
		v-21.895L193.921,324.741z M156.957,360.516v-21.935l-13.65-14.492v21.894L156.957,360.516z M177.05,333.405v21.856l13.65,14.571
		v-21.934L177.05,333.405z M173.791,351.811v-21.855l-13.575-14.532v21.896L173.791,351.811z M173.791,356.566l-13.575-14.495
		v21.933l9.394,10.046h4.181V356.566z M160.216,288.734v21.935l13.575,14.494v-21.934L160.216,288.734z M156.957,307.18v-21.895
		l-13.65-14.533v21.895L156.957,307.18z M190.7,316.496v-21.932l-13.65-14.496v21.856L190.7,316.496z M207.532,307.793v-21.896
		l-13.611-14.532v21.972L207.532,307.793z M210.791,289.388v21.856l13.65,14.57v-21.856L210.791,289.388z M207.532,312.547
		l-13.611-14.494v21.932l13.611,14.495V312.547z M258.146,307.025v-20.513l-13.649-14.495v21.895l13.267,14.148L258.146,307.025z
		 M244.496,298.705v21.854l6.557,6.98l5.484-16.105L244.496,298.705z M177.05,374.05h13.152l-13.152-13.995V374.05z M160.216,368.76
		v5.29h4.984L160.216,368.76z M207.532,374.05v-8.166l-13.611-14.495v21.933l0.729,0.729H207.532z M210.791,369.372v4.678h4.41
		L210.791,369.372z M227.664,374.05h12.577l-12.577-13.344V374.05z M143.307,372.708l1.304,1.342h12.347v-8.742l-13.65-14.569
		V372.708z M140.048,351.006v-3.757l-0.843-0.92L140.048,351.006z M130.155,310.056l1.151,3.871
		c1.227,4.116,2.377,8.347,3.451,12.692l0.23,0.651v0.116l2.301,9.815l-0.039-0.076l0.536,2.223v0.116l0.153,0.766l2.11,2.264
		v-21.856L130.155,310.056z M126.474,298.896l1.418,3.91l12.155,13.038v-21.933l-13.574-14.494V298.896z M126.474,252.73v21.932
		l13.574,14.496v-21.856L126.474,252.73z M109.564,261.434v0.27c5.035,8.589,9.586,18.086,13.65,28.489v-14.226L109.564,261.434z
		 M106.343,243.529h-9.049l9.049,9.699V243.529z M117.808,243.529h-8.244v13.15l13.65,14.571l0.077-21.934L117.808,243.529z
		 M140.048,243.529h-13.574v4.445l13.574,14.534V243.529z M123.214,244.563v-1.034h-0.919L123.214,244.563z M278.238,263.274
		l2.993-5.521l-2.993-3.146V263.274z M289.357,243.529h-11.119v6.326l4.602,4.869l0.613-1.15h0.039v-0.039l0.499-0.805l0.038-0.077
		L289.357,243.529z M274.98,246.404v-2.875h-2.646L274.98,246.404z M224.441,357.218l-13.65-14.493v21.855l8.858,9.47h4.792V357.218
		z M244.496,355.723l0.499-3.146l-0.499-0.496V355.723z M249.94,331.45l0.041-0.306l-5.485-5.829v22.01l1.266,1.303L249.94,331.45z
		 M227.664,334.057v21.856l13.611,14.533v-21.818L227.664,334.057z M241.275,317.109v-21.894l-13.611-14.571v21.932L241.275,317.109
		z M241.275,321.865l-13.611-14.456v21.895l13.611,14.532V321.865z"/>
	<path fill-rule="evenodd" clip-rule="evenodd" fill="#F37D2A" d="M248.369,73.818c6.596,6.901,11.657,14.813,15.185,23.734
		c3.476,8.896,5.214,18.072,5.214,27.531c0,9.535-1.75,18.712-5.253,27.531c-3.425,8.792-8.5,16.691-15.222,23.696
		c-6.749,7.081-14.545,12.449-23.389,16.104c-8.795,3.758-18.088,5.572-27.878,5.444c-9.712-0.102-18.942-2.069-27.684-5.904
		c-8.615-3.681-16.347-8.985-23.199-15.912c-6.773-6.827-12.014-14.622-15.72-23.39c-3.758-9.049-5.676-18.24-5.751-27.57
		c-0.18-9.817,1.533-19.083,5.138-27.799c3.656-9.075,8.882-16.999,15.682-23.773c6.85-6.901,14.698-12.231,23.543-15.989
		c8.768-3.708,18.112-5.561,28.03-5.561c9.97,0.05,19.274,1.944,27.914,5.674c7.721,3.248,14.66,7.796,20.822,13.651L248.369,73.818
		z M243.769,72.285c-8.309,3.986-16.053,8.09-23.237,12.308l3.03,3.106c2.657,2.812,5.123,5.751,7.399,8.819
		c1.382-0.946,2.799-1.675,4.257-2.186l2.453-0.69l2.684-0.155c1.612,0.027,3.272,0.333,4.985,0.92
		c2.89,0.871,5.803,2.365,8.743,4.487c4.701,3.323,9.111,7.834,13.229,13.535c-0.946-5.01-2.468-9.866-4.563-14.57
		c-3.758-8.616-9.023-16.182-15.798-22.7C245.902,74.163,244.842,73.204,243.769,72.285z M220.032,58.865
		c-0.357,3.552-1.659,6.8-3.911,9.738c-1.687,2.327-3.897,4.461-6.633,6.404c3.323,2.531,6.492,5.241,9.509,8.128
		c8.154-4.371,16.335-8.051,24.541-11.042c-5.88-4.96-12.438-8.896-19.671-11.811L220.032,58.865z M219.727,58.749
		c-7.413-2.48-14.979-3.681-22.7-3.604c-6.39,0-12.577,0.83-18.557,2.491c10.634,4.295,20.334,9.637,29.102,16.028
		c3.067-1.814,5.547-3.783,7.438-5.905C217.311,65.152,218.883,62.148,219.727,58.749z M216.506,84.44
		c-2.709-2.634-5.599-5.203-8.666-7.708l-0.46-0.383l-1.035,0.614c-6.187,3.476-14.277,6.019-24.272,7.63l-12.654,1.189l-12.5,0.344
		c-8.231,0.639-15.517,2.53-21.855,5.675c-1.1,2.046-2.123,4.154-3.069,6.326c-3.681,8.769-5.572,17.754-5.674,26.957
		c-0.128,9.688,1.56,18.75,5.061,27.185c1.458,3.502,3.145,6.852,5.062,10.047c5.625-9.97,12.501-19.735,20.63-29.295
		c7.744-9.229,16.372-17.791,25.881-25.692c4.652-3.885,9.472-7.566,14.456-11.042c5.599-3.86,10.736-7.133,15.415-9.817
		L216.506,84.44z M214.013,88.503c-10.455,6.57-20.181,13.6-29.179,21.089c-9.049,7.516-17.729,15.824-26.036,24.924
		c-7.617,8.333-15.056,17.613-22.316,27.836c2.864,4.679,6.288,9.011,10.276,12.999c6.647,6.57,14.379,11.606,23.199,15.108
		c5.547,2.198,11.248,3.681,17.101,4.448c2.709-2.021,4.678-3.835,5.904-5.446c1.688-2.044,3.171-4.804,4.448-8.282
		c0.998-2.632,1.917-5.674,2.761-9.125l6.174-28.222c1.609-6.289,3.553-12.462,5.827-18.52c2.635-6.826,5.472-12.68,8.514-17.562
		c1.942-3.017,3.988-5.612,6.135-7.784l1.84-1.687c-3.118-4.218-6.646-8.308-10.583-12.271L214.013,88.503z M230.118,100.39
		l-1.42,1.419c-1.993,2.095-3.846,4.588-5.559,7.477c-2.889,4.704-5.624,10.403-8.206,17.101c-1.892,4.984-3.86,11.03-5.904,18.135
		l-4.487,18.714c-2.019,8.077-3.949,14.237-5.79,18.48c-1.508,3.477-3.221,6.25-5.137,8.322c-1.407,1.534-3.516,3.156-6.328,4.87
		l9.74,0.459c9.355-0.025,18.329-1.828,26.919-5.406c8.357-3.4,15.848-8.206,22.47-14.417c1.508-13.192,1.303-25.333-0.613-36.427
		c-2.123-12.627-6.47-24.182-13.038-34.664L230.118,100.39z M232.456,98.511l2.837,4.334c3.451,5.597,6.238,11.374,8.359,17.331
		c2.199,6.289,3.693,12.5,4.487,18.635c1.634,11.836,1.099,24.055-1.611,36.658l0.422-0.46c6.774-6.441,12.065-13.995,15.874-22.661
		c3.759-8.589,5.638-17.677,5.638-27.262c0-4.295-0.384-8.475-1.15-12.538c-4.908-5.522-9.587-9.676-14.034-12.463
		c-2.838-1.814-5.676-3.079-8.513-3.795l-4.485-0.653l-2.148,0.231l-2.108,0.652C234.82,97.029,233.633,97.694,232.456,98.511z
		 M205.27,74.892l0.154-0.039c-7.873-6.059-16.986-11.758-27.339-17.101c-2.632,0.716-5.241,1.598-7.821,2.646
		c-8.614,3.5-16.232,8.537-22.853,15.106c-4.755,4.729-8.755,9.957-12.003,15.683c5.803-3.86,12.896-6.326,21.281-7.401
		l12.577-0.805l12.308-1.381c4.32-0.613,8.372-1.443,12.155-2.491C197.742,78.112,201.589,76.706,205.27,74.892z"/>
	<path fill-rule="evenodd" clip-rule="evenodd" fill="#FBB715" d="M116.389,41.071c0.486-0.946,0.921-1.687,1.304-2.222
		c-0.128,0.741,0.358,2.236,1.457,4.485l1.725,3.145c2.505,5.011,2.812,9.815,0.921,14.417c-0.921,2.25-2.109,4.027-3.566,5.33
		c-4.141-6.16-5.471-12.563-3.987-19.209C114.702,44.92,115.418,42.938,116.389,41.071z M104.81,53.803
		c-0.026,1.251,1.47,3.552,4.487,6.9c3.373,4.474,4.537,9.152,3.489,14.034l-0.076,0.423c4.269-7.44,9.394-14.111,15.375-20.015
		c-2.913-6.75-3.067-13.268-0.46-19.557c1.329-3.143,2.953-5.61,4.87-7.399c-0.306,0.716-0.089,2.274,0.652,4.678l1.189,3.373
		c1.534,5.369,0.971,10.149-1.687,14.341l-0.499,0.729c2.632-2.327,5.355-4.459,8.167-6.404c-2.326-6.978-1.943-13.47,1.151-19.478
		c1.584-3.042,3.412-5.382,5.483-7.016c-0.359,0.688-0.269,2.287,0.268,4.792l0.842,3.451c1.125,5.496,0.18,10.212-2.837,14.149
		l-1.764,1.917c3.247-2.071,6.622-3.936,10.124-5.599l-0.077-0.191l0.269-0.037c-1.586-7.209-0.448-13.639,3.412-19.288
		c1.891-2.837,3.962-4.945,6.212-6.326c-0.435,0.638-0.538,2.211-0.307,4.717l0.46,3.564c0.485,5.574-1.01,10.136-4.487,13.689
		l-3.642,2.875l-1.496,0.768l0.153-0.039l3.604-1.572c-0.973,0.46-1.943,0.945-2.915,1.457l0.499-0.114
		c1.457-0.18,2.926-0.167,4.41,0.037c4.677,0.742,8.448,3.35,11.312,7.823l1.648,2.953c1.304,2.07,2.3,3.207,2.991,3.412
		c-2.48,0.255-5.279-0.14-8.397-1.188c-6.058-2.021-10.582-6.136-13.574-12.347c-4.218,2.197-8.231,4.677-12.04,7.438l0.46-0.23
		c1.431-0.588,2.901-0.971,4.409-1.15c4.959-0.486,9.497,1.15,13.612,4.908l2.53,2.53c1.841,1.738,3.145,2.62,3.911,2.646
		c-2.453,0.945-5.38,1.304-8.779,1.075c-6.75-0.435-12.488-3.427-17.217-8.974c-2.837,2.096-5.547,4.346-8.13,6.748l-1.725,1.688
		l2.609-0.959c4.446-1.278,8.844-0.524,13.189,2.263l2.722,1.955c1.943,1.303,3.286,1.905,4.026,1.803
		c-2.096,1.226-4.742,2.019-7.937,2.376c-6.084,0.639-11.668-1.112-16.757-5.253c-3.042,3.17-5.827,6.518-8.358,10.046l0.344-0.306
		c1.1-0.871,2.301-1.561,3.604-2.071c4.193-1.584,8.525-1.226,12.999,1.074l2.837,1.649c1.969,1.073,3.298,1.545,3.988,1.417
		c-1.917,1.406-4.383,2.416-7.4,3.031c-5.957,1.174-11.645-0.091-17.063-3.797c-2.275,3.17-4.333,6.506-6.173,10.007
		c0.537-0.434,1.125-0.831,1.764-1.188c4.09-2.25,8.589-2.468,13.497-0.652l3.067,1.303c2.224,0.818,3.668,1.125,4.333,0.919
		c-1.79,1.688-4.205,3.042-7.247,4.065c-5.649,1.917-11.349,1.521-17.101-1.19c-1.866,3.81-3.476,7.669-4.832,11.581l2.224-2.262
		c3.554-3.068,7.938-4.243,13.152-3.528l3.375,0.652c2.352,0.357,3.834,0.357,4.448,0c-1.407,2.045-3.502,3.886-6.289,5.521
		c-5.394,3.221-11.311,4.001-17.753,2.34c-1.226,3.961-2.211,8-2.952,12.115l-0.038,0.269l1.802-2.186
		c2.94-3.169,6.864-4.665,11.772-4.486l3.144,0.269c2.224,0.128,3.604-0.012,4.141-0.422c-1.125,2.019-2.875,3.938-5.253,5.751
		c-4.602,3.426-9.931,4.704-15.99,3.835c-0.562,3.961-0.87,7.936-0.92,11.923l0.115-0.267c2.25-3.81,5.79-6.173,10.621-7.094
		c4.013-0.41,6.352-1.024,7.018-1.841c-0.615,2.224-1.892,4.486-3.834,6.786c-3.529,4.193-8.142,6.659-13.843,7.402
		c0.102,3.553,0.422,7.105,0.958,10.659c1.737-4.013,4.934-6.773,9.586-8.282c3.937-0.844,6.187-1.739,6.749-2.685
		c-0.357,2.275-1.342,4.678-2.952,7.208c-2.94,4.474-7.107,7.413-12.501,8.819c0.614,3.145,1.367,6.25,2.263,9.318
		c1.304-3.783,4.064-6.608,8.282-8.473c3.656-1.178,5.727-2.224,6.212-3.145l-0.384,2.108c-0.383,1.764-0.997,3.438-1.84,5.023
		c-2.3,4.397-5.854,7.541-10.659,9.434c1.406,3.783,3.055,7.516,4.946,11.196l0.115,0.23l0.076-2.071
		c0.512-4.243,2.735-7.745,6.672-10.506c3.425-1.866,5.291-3.323,5.598-4.371l0.038,2.224c-0.025,1.789-0.293,3.578-0.805,5.367
		c-1.56,5.266-4.896,9.356-10.008,12.27c1.713,3.068,3.604,6.034,5.675,8.896c-0.153-3.936,1.419-7.464,4.716-10.583
		c2.889-2.224,4.397-3.821,4.525-4.793l0.384,1.995c0.229,1.687,0.217,3.386-0.04,5.098c-0.664,4.781-2.901,8.807-6.709,12.08
		l6.901,7.821l-0.344-1.572c-0.869-4.219,0.153-8.269,3.067-12.154c2.685-2.941,4.027-4.934,4.027-5.982l0.728,2.108
		c0.537,1.791,0.831,3.605,0.883,5.446c0.178,5.52-1.7,10.44-5.638,14.761l6.826,5.868c-1.125-3.58-0.766-7.299,1.073-11.159
		c2.071-3.4,2.979-5.623,2.723-6.672l1.189,1.879c0.869,1.636,1.495,3.362,1.878,5.176c1.201,4.935,0.587,9.728-1.841,14.379
		c3.425,2.327,7.018,4.423,10.776,6.29l-1.879-2.147c-2.556-3.478-3.336-7.58-2.338-12.308c1.201-3.785,1.559-6.148,1.073-7.094
		l1.571,1.573c1.228,1.404,2.263,2.938,3.108,4.601c2.607,5.164,2.888,10.686,0.843,16.563c3.015,1.38,6.057,2.595,9.125,3.644
		l-0.766-0.921c-2.557-3.478-3.336-7.591-2.34-12.347c1.228-3.758,1.585-6.122,1.073-7.094l1.573,1.573
		c1.228,1.406,2.262,2.939,3.106,4.601c2.454,4.831,2.862,9.995,1.228,15.491c5.572,1.662,11.285,2.799,17.14,3.414
		c-5.497-0.385-10.916-1.241-16.259-2.57c-2.095,3.834-4.715,6.839-7.86,9.011c-2.172,1.483-4.575,2.582-7.208,3.298l-6.326,0.844
		l-2.53-0.153c0.919-0.256,2.185-1.586,3.795-3.988l1.457-2.415c3.272-4.499,7.388-6.979,12.347-7.439l2.685-0.076l-0.153-0.153
		c-3.145-0.972-6.225-2.097-9.241-3.375c-4.295,5.904-9.804,9.318-16.527,10.239c-2.122,0.305-4.231,0.331-6.326,0.075l-2.57-0.499
		c1.228-0.179,3.247-2.069,6.06-5.674c3.833-4.039,8.231-5.969,13.19-5.79l3.183,0.384c-4.04-1.892-7.925-4.025-11.658-6.403
		l0.767,0.537c-5.369,5.087-11.464,7.45-18.29,7.093c-2.147-0.103-4.23-0.485-6.25-1.149l-2.377-0.921
		c1.226,0.051,3.552-1.419,6.978-4.409c4.55-3.298,9.229-4.384,14.035-3.259l2.224,0.69l-0.499-0.921
		c-3.17-2.276-6.212-4.742-9.125-7.401c-5.957,4.295-12.245,5.84-18.867,4.641c-2.096-0.384-4.089-1.011-5.98-1.879l-2.301-1.265
		c1.227,0.229,3.719-0.959,7.477-3.566c4.908-2.659,9.689-3.169,14.341-1.533c1.175,0.435,2.211,0.932,3.104,1.495
		c-2.607-2.583-5.06-5.278-7.36-8.09l0.114,0.153c-6.825,2.863-13.37,2.926-19.631,0.191c-1.942-0.869-3.746-1.955-5.407-3.259
		l-1.878-1.725c1.125,0.51,3.808-0.051,8.051-1.688c5.419-1.456,10.187-0.805,14.302,1.956l2.876,2.34
		c-2.709-3.502-5.164-7.222-7.362-11.159c-6.979,1.483-13.229,0.396-18.75-3.259c-1.763-1.201-3.374-2.594-4.832-4.178l-1.534-1.996
		l4.678,0.23l3.605-0.575c5.546-0.485,10.123,0.958,13.728,4.333l0.459,0.46c-1.482-2.99-2.811-6.044-3.988-9.164
		c-7.131,0.281-13.139-1.866-18.021-6.442c-1.534-1.431-2.863-3.054-3.988-4.87l-1.265-2.262c0.588,0.536,2.122,0.894,4.601,1.074
		l3.566,0.038c5.573,0.434,9.854,2.646,12.845,6.632l0.536,0.691c-0.997-3.118-1.802-6.276-2.416-9.471h-0.115v-0.344
		c-7.157-0.741-12.794-3.771-16.909-9.088c-1.33-1.662-2.404-3.464-3.221-5.406l-0.882-2.455c0.793,0.972,3.451,1.764,7.975,2.377
		c5.446,1.278,9.318,4.102,11.619,8.475l0.613,1.188c-0.512-3.502-0.817-6.992-0.919-10.467c-6.8-2.454-11.581-6.723-14.341-12.807
		c-0.869-1.969-1.495-4-1.878-6.097l-0.269-2.531c0.563,1.15,2.953,2.543,7.171,4.179c4.856,2.479,7.962,6.046,9.317,10.697
		c0.077-3.271,0.345-6.557,0.805-9.854c-6.39-3.425-10.506-8.371-12.346-14.838c-0.614-2.046-0.933-4.129-0.959-6.25l0.077-2.569
		c0.333,1.201,2.479,2.914,6.442,5.137c4.55,3.221,7.106,7.312,7.668,12.271l0.039,0.46c0.69-3.63,1.598-7.183,2.722-10.66
		c-5.394-4.193-8.538-9.458-9.433-15.798c-0.281-2.147-0.307-4.269-0.076-6.365l0.459-2.531c0.179,1.228,2.071,3.234,5.675,6.02
		c3.605,3.4,5.573,7.248,5.905,11.541c0.946-2.402,1.994-4.741,3.144-7.017c-4.985-5.214-7.337-11.17-7.056-17.867
		c0.078-2.123,0.422-4.206,1.036-6.251L104.81,53.803z M158.415,34.822l1.188-1.38c1.099-1.125,2.313-2.083,3.642-2.876
		c4.295-2.504,9.087-2.875,14.379-1.112L181,30.834c2.352,0.818,3.885,1.087,4.601,0.805c-1.866,1.841-4.396,3.363-7.593,4.564
		c-6.39,2.377-12.869,1.942-19.439-1.303L158.415,34.822z M205.615,31.678c1.177,0.435,3.836-0.269,7.977-2.108
		c5.316-1.764,10.123-1.393,14.416,1.112c2.097,1.227,3.681,2.607,4.756,4.141l2.529,1.112c-1.047-0.665-2.096-1.534-3.143-2.607
		c-3.425-3.58-4.922-8.156-4.486-13.728c0.791-4.473,0.844-7.208,0.152-8.205l2.071,1.571c1.585,1.355,2.977,2.926,4.18,4.717
		c3.86,5.597,5.01,12.014,3.45,19.248l0.229,0.078v0.038c3.247,1.559,6.443,3.348,9.588,5.367l-1.306-1.571
		c-3.042-3.937-3.999-8.654-2.876-14.149c1.331-4.346,1.714-7.069,1.15-8.168l1.841,1.803c1.432,1.584,2.633,3.31,3.604,5.176
		c3.146,6.007,3.541,12.462,1.189,19.364l6.903,5.291l1.11,1.037l-0.306-0.538c-2.685-4.167-3.245-8.934-1.687-14.303
		c1.661-4.269,2.262-6.966,1.8-8.09l1.688,1.956c1.279,1.661,2.339,3.489,3.184,5.483c2.605,6.211,2.466,12.666-0.421,19.363
		c2.912,2.94,5.635,6.045,8.166,9.317c-0.717-0.972-1.355-2.121-1.918-3.451c-1.892-4.576-1.597-9.382,0.882-14.417
		c2.377-3.86,3.439-6.404,3.183-7.631l1.303,2.224c0.974,1.891,1.702,3.874,2.187,5.943c1.482,6.698,0.167,13.115-3.949,19.25
		l-1.188-1.265c2.326,3.118,4.498,6.403,6.518,9.854l0.115,0.23l-0.038-0.346c-1.022-4.831,0.128-9.483,3.451-13.957
		c3.067-3.399,4.563-5.713,4.486-6.94l0.921,2.416c0.613,2.046,0.957,4.129,1.034,6.25c0.306,6.646-2.019,12.589-6.978,17.83
		l3.181,7.017c0.256-4.294,2.2-8.129,5.83-11.503c3.604-2.785,5.497-4.792,5.675-6.019l0.421,2.53
		c0.256,2.096,0.243,4.192-0.038,6.289c-0.869,6.365-4,11.629-9.394,15.797c1.099,3.451,1.994,6.978,2.684,10.583l0.037,0.114v-0.46
		c0.538-4.934,3.081-9.011,7.631-12.231c3.964-2.274,6.11-4.001,6.443-5.177l0.113,2.57c-0.024,2.147-0.331,4.23-0.92,6.25
		c-1.84,6.493-5.954,11.439-12.347,14.839c0.436,3.246,0.703,6.506,0.807,9.777c1.303-4.651,4.396-8.179,9.279-10.581
		c4.218-1.662,6.595-3.056,7.13-4.18c0,2.632-0.701,5.495-2.108,8.589c-2.786,6.083-7.554,10.353-14.301,12.806
		c-0.13,3.323-0.436,6.634-0.921,9.932l-0.038,0.651l0.573-1.265c2.327-4.372,6.213-7.208,11.658-8.512
		c4.5-0.613,7.145-1.406,7.937-2.378c-0.613,2.557-1.981,5.189-4.103,7.9c-4.116,5.24-9.727,8.269-16.834,9.086v0.269h-0.113
		l-2.416,9.587l0.46-0.768c3.017-3.963,7.298-6.173,12.845-6.634l3.566-0.076c2.505-0.179,4.039-0.537,4.602-1.074
		c-0.997,2.454-2.748,4.858-5.252,7.209c-4.834,4.576-10.841,6.723-18.024,6.441l-3.948,9.088l0.422-0.422
		c3.655-3.4,8.256-4.831,13.805-4.295l3.527,0.538l4.715-0.269c-1.405,2.25-3.538,4.307-6.402,6.174
		c-5.521,3.656-11.746,4.741-18.674,3.259c-2.377,4.191-5.022,8.166-7.938,11.924c0.998-1.149,2.135-2.159,3.414-3.029
		c4.14-2.76,8.895-3.414,14.263-1.956l3.413,1.074c2.429,0.69,4.001,0.87,4.716,0.537c-1.764,1.942-4.192,3.617-7.285,5.023
		c-6.288,2.76-12.845,2.709-19.671-0.153l0.154-0.193l-0.038-0.076c-2.454,3.042-5.087,5.917-7.898,8.626
		c1.098-0.792,2.299-1.43,3.603-1.917c4.653-1.661,9.433-1.15,14.341,1.534l3.106,1.879c2.172,1.226,3.63,1.776,4.371,1.648
		c-2.147,1.483-4.908,2.531-8.281,3.145c-6.648,1.177-12.949-0.396-18.903-4.716l-9.011,7.362l-0.576,1.035l2.224-0.651
		c4.806-1.124,9.484-0.064,14.033,3.182l2.8,2.263c2.045,1.483,3.438,2.212,4.18,2.187c-2.302,1.227-5.163,1.93-8.588,2.108
		c-6.826,0.358-12.936-2.032-18.33-7.171l0.768-0.459l-0.038-0.115c-3.81,2.453-7.771,4.64-11.887,6.557l3.489-0.498
		c4.934-0.18,9.318,1.75,13.152,5.789l2.34,2.762c1.736,1.84,2.976,2.813,3.717,2.914l-8.856,0.459
		c-6.723-0.945-12.22-4.383-16.488-10.314l-9.201,3.337l-0.308,0.307l2.761,0.037c4.933,0.436,9.049,2.929,12.347,7.477l1.954,3.031
		c1.434,2.019,2.532,3.145,3.3,3.374c-2.608,0.384-5.548,0.127-8.819-0.768c-2.71-0.715-5.151-1.827-7.323-3.336
		c-3.146-2.224-5.739-5.241-7.785-9.049c-5.394,1.355-10.852,2.224-16.373,2.608c5.881-0.615,11.619-1.738,17.217-3.375
		c-1.585-5.496-1.163-10.66,1.266-15.491c0.817-1.662,1.84-3.195,3.068-4.602l1.57-1.572c-0.331,0.613-0.242,1.982,0.269,4.104
		l0.807,3.067c1.021,4.729,0.256,8.819-2.302,12.271l-0.727,0.919c3.04-1.047,6.057-2.248,9.048-3.604
		c-2.02-5.904-1.726-11.44,0.882-16.604c0.818-1.687,1.841-3.22,3.068-4.601l1.57-1.571c-0.28,0.613-0.19,1.993,0.269,4.141
		l0.806,2.952c1.048,4.781,0.294,8.897-2.262,12.346l-1.956,2.187c3.757-1.917,7.35-4.025,10.775-6.327
		c-2.378-4.678-2.991-9.484-1.841-14.418c0.434-1.814,1.073-3.528,1.917-5.137l1.188-1.917c-0.154,0.664,0.244,1.967,1.188,3.911
		l1.495,2.76c1.841,3.86,2.225,7.58,1.15,11.159l6.748-5.868c-3.911-4.32-5.764-9.241-5.559-14.763
		c0.025-1.841,0.319-3.642,0.882-5.405l0.729-2.108c-0.025,1.072,1.29,3.054,3.948,5.942c2.941,3.911,3.977,7.976,3.107,12.193
		l-0.385,1.495l6.94-7.744c-3.834-3.272-6.07-7.299-6.71-12.08c-0.23-1.712-0.23-3.4,0-5.062l0.384-2.069
		c0.101,0.971,1.61,2.582,4.524,4.831c3.221,3.067,4.779,6.582,4.679,10.544l5.675-8.858c-5.087-2.888-8.411-6.978-9.97-12.27
		c-0.536-1.764-0.818-3.566-0.844-5.407l0.038-2.223c0.333,1.047,2.186,2.53,5.561,4.447c3.937,2.735,6.16,6.224,6.671,10.469
		l0.115,1.994l0.498-0.92c1.714-3.4,3.222-6.864,4.525-10.391c-4.806-1.917-8.359-5.075-10.661-9.472
		c-0.815-1.611-1.43-3.271-1.839-4.984l-0.308-2.185c0.461,0.945,2.519,2.005,6.174,3.182c4.168,1.815,6.939,4.614,8.319,8.397
		c0.896-3.016,1.65-6.097,2.264-9.241c-5.419-1.38-9.587-4.307-12.499-8.78c-1.049-1.584-1.855-3.259-2.417-5.023l-0.614-2.186
		c0.614,0.921,2.876,1.803,6.788,2.646c4.651,1.534,7.86,4.281,9.624,8.244l0.038-0.499c0.486-3.374,0.792-6.76,0.921-10.161
		c-5.727-0.715-10.366-3.168-13.919-7.361c-1.176-1.457-2.186-3.029-3.028-4.717l-0.807-2.108c0.69,0.871,3.055,1.484,7.094,1.841
		c4.832,0.971,8.359,3.348,10.583,7.131l0.152,0.269c-0.075-4.039-0.383-8.026-0.918-11.964c-6.085,0.845-11.415-0.433-15.991-3.833
		c-1.508-1.125-2.836-2.403-3.987-3.835l-1.304-1.84l4.104,0.422l3.144-0.269c4.908-0.205,8.857,1.278,11.848,4.448l1.727,2.108
		l-0.307-1.726c-0.69-3.605-1.559-7.133-2.607-10.583c-6.492,1.661-12.424,0.895-17.791-2.302c-1.739-1.047-3.312-2.3-4.718-3.756
		l-1.571-1.841c0.997,0.613,3.591,0.421,7.784-0.575c5.239-0.768,9.648,0.383,13.229,3.45l2.225,2.339
		c-1.356-3.988-2.953-7.874-4.793-11.657c-5.804,2.709-11.542,3.106-17.217,1.189c-1.917-0.64-3.681-1.509-5.292-2.607l-1.955-1.458
		c1.074,0.357,3.54-0.383,7.4-2.225c4.933-1.789,9.457-1.57,13.573,0.652l1.725,1.036l-0.805-1.458
		c-1.662-2.913-3.438-5.725-5.33-8.435c-5.419,3.784-11.119,5.062-17.101,3.834c-1.892-0.358-3.694-0.971-5.406-1.84l-2.033-1.15
		c1.1,0.229,3.374-0.793,6.826-3.068c4.474-2.326,8.806-2.685,12.998-1.073c1.533,0.613,2.838,1.329,3.911,2.146
		c-2.557-3.45-5.305-6.736-8.244-9.854c-5.112,4.141-10.724,5.891-16.833,5.253c-1.994-0.205-3.91-0.652-5.751-1.342l-2.146-0.997
		c1.148,0.128,3.386-1.139,6.709-3.796c4.37-2.762,8.78-3.516,13.229-2.263c0.92,0.255,1.777,0.588,2.57,0.998l-3.337-3.145
		c-2.097-1.892-4.243-3.669-6.441-5.33c-4.729,5.599-10.468,8.602-17.218,9.011l-6.326-0.46l-2.492-0.651
		c1.228-0.051,3.374-1.777,6.442-5.176c4.115-3.758,8.64-5.369,13.573-4.833c1.916,0.232,3.579,0.69,4.984,1.381
		c-3.834-2.837-7.861-5.355-12.079-7.553c-2.99,6.263-7.539,10.417-13.648,12.461c-1.918,0.64-3.899,1.035-5.943,1.189h-2.454
		c1.123-0.385,2.683-2.518,4.678-6.404c2.888-4.5,6.671-7.107,11.35-7.823c1.738-0.255,3.31-0.281,4.716-0.077l-3.527-1.648
		c-6.621,3.247-13.152,3.656-19.593,1.227c-1.969-0.716-3.822-1.687-5.561-2.913L205.615,31.678z"/>
</g>
</svg>
