<?xml version="1.0" encoding="utf-8"?>
<!-- Generator: Adobe Illustrator 16.0.0, SVG Export Plug-In . SVG Version: 6.00 Build 0)  -->
<!DOCTYPE svg PUBLIC "-//W3C//DTD SVG 1.1//EN" "http://www.w3.org/Graphics/SVG/1.1/DTD/svg11.dtd">
<svg version="1.1" id="Layer_1" xmlns="http://www.w3.org/2000/svg" xmlns:xlink="http://www.w3.org/1999/xlink" x="0px" y="0px"
	 width="400px" height="400px" viewBox="0 0 400 400" enable-background="new 0 0 400 400" xml:space="preserve">
<g>
	<path fill="#010101" d="M236.934,145.13c5.174,5.189,9.194,10.851,12.06,16.986c-4.958,0.824-9.782,2.25-14.474,4.277
		c-5.795,2.485-10.367,4.127-13.721,4.924c-6.175,1.339-12.29,1.156-18.344-0.547l13.095-39.544
		C223.387,134.091,230.516,138.725,236.934,145.13z M194.896,127.759c6.081,0,11.836,0.792,17.268,2.372l-13.093,39.503
		c-5.852-2.215-10.85-5.701-15-10.458c-2.216-2.662-4.919-6.715-8.108-12.162c-2.594-4.743-5.674-8.865-9.241-12.363
		C175.167,130.029,184.559,127.733,194.896,127.759z M236.143,169.555c4.107-1.635,8.879-2.979,14.311-4.034
		c2.595,6.689,3.891,13.905,3.891,21.648c0,5.958-0.77,11.606-2.309,16.944l-54.646-18.079l3.933-11.898
		c6.594,1.879,13.289,2.108,20.086,0.689C225.502,173.974,230.413,172.216,236.143,169.555z M192.827,188.526l-3.932,11.899
		c-6.419-1.838-13.095-2.068-20.026-0.689c-3.783,0.811-8.695,2.567-14.735,5.27c-4.189,2-9.053,3.405-14.594,4.217
		c-0.284-0.729-0.554-1.453-0.812-2.17c-0.27-0.729-0.513-1.453-0.729-2.168c-0.433-1.406-0.812-2.818-1.136-4.236
		c-0.932-4.31-1.398-8.803-1.398-13.479c0-5.946,0.763-11.575,2.29-16.884L192.827,188.526z M196.213,189.641l54.645,18.08
		c-2.863,7.894-7.506,15.047-13.924,21.467c-3.299,3.295-6.776,6.121-10.438,8.472c-3.972-4.202-6.979-8.107-9.019-11.716
		c-3.016-5.541-5.908-9.87-8.678-12.992c-4.605-5.202-10.113-9.008-16.52-11.412L196.213,189.641z M143.413,217.126
		c-0.825-1.446-1.608-2.959-2.352-4.541c5.108-0.81,9.979-2.216,14.615-4.216c5.675-2.514,10.275-4.215,13.802-5.107
		c6.176-1.337,12.284-1.156,18.323,0.549l-13.073,39.483c-8.041-2.866-15.33-7.567-21.87-14.106
		C149.1,225.43,145.953,221.41,143.413,217.126z M211.293,244.509c-5.177,1.406-10.641,2.109-16.397,2.109
		c-5.892,0-11.487-0.751-16.784-2.252l13.053-39.442c5.877,2.243,10.892,5.743,15.039,10.499c2.325,2.797,5.002,6.905,8.026,12.323
		c2.758,4.568,5.783,8.507,9.08,11.818c-0.297,0.162-0.602,0.328-0.91,0.504l-0.934,0.488c-1.701,0.836-3.406,1.594-5.107,2.27
		L211.293,244.509z M197.956,173.021l-3.931,11.918l-55.111-18.242c2.851-7.932,7.499-15.121,13.945-21.567
		c3.364-3.351,6.925-6.215,10.681-8.594c4.189,4.513,7.277,8.54,9.263,12.08c3.216,5.757,6.108,10.087,8.675,12.992
		C186.207,166.853,191.699,170.656,197.956,173.021z"/>
	<path fill="#F8991D" d="M314.077,176.831c-0.216,1.527-1.081,2.345-2.596,2.453c-1.093-0.174-1.815-0.673-2.169-1.5
		c0.015,0.441,0.021,0.9,0.021,1.379c0,2.361-0.294,4.415-0.882,6.162l-50.968,2.899c-0.02,2.302-0.148,4.558-0.385,6.769
		l40.699,2.452l0.021,0.427c-0.135,0.661-0.426,1.182-0.872,1.56l-0.364,0.222c-0.404,0.258-0.884,0.358-1.439,0.305
		c-0.213-0.028-0.412-0.08-0.597-0.152c-0.089,0.279-0.165,0.567-0.233,0.862c0.525-0.163,0.938-0.243,1.236-0.243l0.061,0.02h0.123
		l0.892,0.303c0.702,0.606,1.073,1.317,1.115,2.129c-0.136,1.474-0.962,2.263-2.474,2.37c-0.475-0.01-0.92-0.155-1.338-0.436
		c0.029,2.045,0.227,4.186,0.588,6.426l-38.813-8.057c-0.531,2.182-1.177,4.315-1.937,6.404l43.354,14.473
		c0.034,0.344,0.05,0.647,0.05,0.911c0,0.813-0.169,1.653-0.506,2.523c0.466,0.557,0.689,1.194,0.668,1.916
		c-0.107,0.702-0.506,1.337-1.195,1.903c-0.621,0.246-1.129,0.353-1.52,0.326c-0.18-0.029-0.352-0.074-0.52-0.133
		c-0.609,0.698-1.308,1.411-2.099,2.139c0.069,0.233,0.103,0.479,0.103,0.73c-0.172,1.501-0.945,2.345-2.319,2.532l-39.362-19.813
		c-1.037,1.943-2.188,3.844-3.455,5.695l35.247,23.288c-0.112,0.048-0.188,0.071-0.224,0.071c-0.363,0.067-0.662-0.008-0.891-0.223
		c-0.219-0.136-0.365-0.326-0.447-0.568c-0.015,0.066-0.034,0.137-0.061,0.203c-0.299,0.418-0.629,0.742-0.994,0.973
		c-0.606,0.203-1.169,0.183-1.682-0.061c-0.121-0.096-0.237-0.188-0.346-0.285c-0.082,0.231-0.243,0.467-0.485,0.711
		c-0.608,0.217-1.067,0.074-1.38-0.426c-0.174-0.404-0.146-0.757,0.082-1.056c0.176-0.269,0.492-0.417,0.953-0.444
		c0.013,0,0.054,0.014,0.121,0.041c-0.079-0.434-0.033-0.84,0.143-1.216c0.089-0.138,0.188-0.266,0.293-0.387
		c-0.131,0.069-0.262,0.137-0.395,0.204c-1.771,0.859-3.244,1.576-4.42,2.146c0.112,0.098,0.215,0.215,0.305,0.344
		c0.203,0.354,0.264,0.615,0.183,0.791c0.041,0.312-0.007,0.582-0.142,0.813c-0.067,0.146-0.236,0.343-0.508,0.588
		c-0.352,0.202-0.764,0.296-1.234,0.282c-0.393-0.147-0.695-0.378-0.913-0.688c-0.188-0.244-0.297-0.519-0.323-0.818
		c-0.662,0.335-1.291,0.662-1.886,0.979c-0.026,0.437-0.271,0.897-0.729,1.38c-0.434,0.188-0.879,0.256-1.336,0.202
		c-0.146-0.042-0.283-0.095-0.407-0.161c-0.069,0.041-0.138,0.082-0.202,0.123c-0.1,0.059-0.202,0.12-0.305,0.182l-23.047-20.553
		c-0.947,1.069-1.939,2.125-2.979,3.161c-0.542,0.544-1.089,1.072-1.643,1.591l20.33,22.935c-0.129,0.013-0.258,0.052-0.385,0.122
		c-0.308,0.021-0.588,0.006-0.842-0.051c-0.747,0.859-1.447,1.752-2.098,2.677c0.25,0.302,0.426,0.696,0.525,1.184
		c0.027,0.042,0.027,0.063,0,0.063c0.027,0.149,0.027,0.312,0,0.485c-0.039,0.217-0.046,0.353-0.019,0.405
		c-0.027,0.015-0.109,0.185-0.243,0.507c-0.434,0.568-0.954,0.92-1.563,1.055c-0.342,0.012-0.652-0.021-0.933-0.092
		c-0.103,0.189-0.204,0.383-0.303,0.578c-0.449,0.856-0.878,1.75-1.288,2.688c0.077,0.167,0.134,0.318,0.171,0.455
		c0.015,0.066-0.013,0.095-0.079,0.08c0.053,0.136,0.079,0.285,0.079,0.447l-0.06,0.445c-0.103,0.223-0.221,0.424-0.354,0.605
		l-19.246-29.338c-1.827,1.338-3.702,2.559-5.624,3.668l21.455,42.951c-0.189,0.075-0.386,0.127-0.587,0.15
		c-0.628-0.023-1.13-0.184-1.511-0.477c-0.122,0.377-0.239,0.724-0.355,1.045c-0.255,0.724-0.529,1.416-0.82,2.076
		c0.259,0.328,0.416,0.736,0.478,1.228c0.04,0.067,0.021,0.087-0.063,0.06l0.043,0.104c-0.028,0.717-0.414,1.344-1.156,1.885
		c-0.35,0.122-0.743,0.195-1.176,0.225c-0.024-0.007-0.047-0.009-0.071-0.012c-0.712,1.018-1.494,1.908-2.351,2.676
		c0.254,0.326,0.42,0.739,0.498,1.245l-0.063,0.062v0.082c-0.026,0.879-0.485,1.5-1.377,1.863c-1.095,0.219-1.897-0.11-2.412-0.982
		c-0.371,0.186-0.757,0.357-1.155,0.52l-16.844-51.068c-2.098,0.842-4.247,1.562-6.445,2.158l10.672,52.184
		c-0.867-0.002-1.472-0.471-1.814-1.409c-0.049-0.16-0.063-0.427-0.039-0.801c-0.666-0.257-1.342-0.513-2.027-0.771
		c0.334,0.219,0.625,0.525,0.87,0.922c0.136,0.324,0.203,0.597,0.203,0.812c0.042,0.026,0.042,0.041,0,0.041
		c0.082,0.216,0.082,0.454,0,0.709c-0.054,0.149-0.12,0.358-0.203,0.628l-0.385,0.527c-0.433,0.434-0.864,0.695-1.297,0.789
		c-0.405,0.082-0.933,0.008-1.58-0.223c0-0.08-0.089-0.134-0.265-0.162l-0.061-0.101c-0.027-0.026-0.081-0.062-0.162-0.103
		c-0.406-0.364-0.656-0.816-0.751-1.357c-0.108-0.566-0.04-1.096,0.203-1.581c0.188-0.203,0.298-0.358,0.324-0.465
		c0.444-0.42,0.905-0.688,1.378-0.813c0.262-0.024,0.508-0.021,0.74,0.012c-0.358-0.133-0.719-0.264-1.084-0.396
		c-0.133-0.046-0.266-0.093-0.396-0.141c-0.451-0.039-0.837-0.178-1.154-0.415c-0.461-0.163-0.9-0.314-1.318-0.457
		c-0.146,0.868-0.664,1.516-1.551,1.944l-0.912,0.144l-0.629-0.04c-0.566-0.216-1.06-0.547-1.479-0.994
		c0-0.121-0.086-0.311-0.262-0.564c-0.136-0.367-0.162-0.873-0.083-1.521c0.043-0.115,0.091-0.227,0.145-0.334
		c-0.229-0.034-0.418-0.052-0.568-0.052c-0.324,0-0.644,0.018-0.952,0.052c0.353,0.264,0.638,0.646,0.853,1.146l0.182,0.709
		l-0.102,0.039v0.082c0,0.162-0.048,0.479-0.143,0.951c-0.336,0.623-0.838,1.041-1.5,1.258c-0.135,0.035-0.264,0.063-0.385,0.082
		l-2.777-48.666c-2.255,0.293-4.555,0.473-6.9,0.537l-3.334,55.242c-0.427,0.502-0.927,0.813-1.5,0.934
		c-1.042,0.069-1.799-0.271-2.27-1.024c-0.206,0.007-0.417,0.009-0.628,0.009c-0.034,0-0.069,0-0.102,0
		c-0.012,0.119-0.026,0.256-0.04,0.407c-0.393,1-1.061,1.594-2.007,1.783c-1.648,0.176-2.669-0.521-3.061-2.089
		c-0.026-0.303-0.023-0.588,0.01-0.85c-1.447-0.428-2.869-1.033-4.267-1.824c-0.292-0.104-0.546-0.254-0.759-0.447
		c-0.469-0.293-0.935-0.607-1.399-0.941l10.691-51.473c-2.402-0.227-4.75-0.579-7.042-1.055l-15.628,46.82
		c-0.351-0.04-0.59-0.061-0.719-0.061c-0.228,0-0.509-0.041-0.841-0.122c-0.329,0.169-0.696,0.271-1.104,0.305
		c-1.182-0.149-1.949-0.711-2.301-1.683c-0.169-0.084-0.342-0.166-0.518-0.254c0.023,0.106,0.044,0.218,0.062,0.334v0.143
		c0,0.299-0.062,0.581-0.183,0.854c-0.203,0.375-0.372,0.613-0.507,0.709l-0.021,0.121h-0.122l-0.04,0.102l-0.325,0.203
		c-0.5,0.31-1.074,0.419-1.723,0.322c-0.649-0.217-1.149-0.561-1.5-1.033c-0.351-0.514-0.473-1.121-0.364-1.824
		c0.216-0.646,0.561-1.146,1.033-1.499c0.122-0.079,0.249-0.147,0.384-0.203c-0.928-0.522-1.928-1.104-3-1.742
		c-0.022,0.146-0.063,0.302-0.121,0.466c-0.042,0.094-0.108,0.264-0.203,0.508c-0.176,0.177-0.44,0.412-0.792,0.709
		c-0.418,0.229-0.892,0.298-1.417,0.203c-0.176-0.028-0.474-0.129-0.892-0.306c-0.173-0.153-0.326-0.296-0.456-0.424l22.72-45.11
		c-2.299-0.852-4.54-1.845-6.718-2.979l-26.248,39.707c-0.117-0.532-0.067-1.096,0.151-1.692c-1.032-0.639-2.083-1.118-3.151-1.438
		c-0.173,0.259-0.438,0.48-0.79,0.669c-0.934,0.229-1.609-0.073-2.027-0.911c-0.024-0.076-0.042-0.153-0.05-0.232
		c-0.638-0.082-1.181-0.156-1.633-0.224c0.068,0.067,0.136,0.14,0.204,0.213c0.256,0.515,0.385,1.026,0.385,1.539
		c0,0.097-0.02,0.188-0.062,0.285c0.285-0.257,0.663-0.44,1.136-0.548c0.837-0.081,1.492,0.223,1.966,0.912l0.182,0.527
		c0.216-0.042,0.521-0.123,0.912-0.244c0.703-0.082,1.358,0.217,1.967,0.893c0.17,0.344,0.285,0.662,0.345,0.963l-1.642,2.493
		c-0.146,0.045-0.302,0.082-0.467,0.11c-0.243-0.041-0.594-0.135-1.054-0.283c-0.378-0.271-0.628-0.473-0.75-0.606
		c-0.269-0.394-0.431-0.785-0.485-1.178c-0.122,0.041-0.25,0.089-0.385,0.143c-0.108,0-0.209,0-0.305,0
		c0.176,0.271,0.318,0.589,0.425,0.952c0.014,0.325-0.021,0.656-0.101,0.994c0.311-0.176,0.662-0.225,1.054-0.143
		c0.42,0.148,0.716,0.345,0.892,0.588c0.107,0.201,0.198,0.465,0.273,0.789l-1,1.519c-0.15,0.054-0.313,0.088-0.486,0.103
		c0.041,0,0.074,0.006,0.101,0.021c0.062,0.065,0.115,0.139,0.162,0.213l-2.209,3.345c-0.428-0.084-0.759-0.263-0.992-0.537
		c-0.216-0.217-0.385-0.513-0.508-0.893c-0.107-0.393-0.142-0.723-0.102-0.994c0.285-0.756,0.643-1.24,1.075-1.458
		c0.285-0.176,0.696-0.265,1.237-0.265c-0.013-0.039-0.027-0.066-0.04-0.08c0-0.041-0.02-0.088-0.061-0.141
		c-0.041-0.069-0.075-0.104-0.102-0.104c-0.093-0.23-0.122-0.453-0.08-0.67c-0.351,0.257-0.758,0.445-1.217,0.568
		c-0.474,0.054-0.892,0.015-1.257-0.123c0.054,0.15,0.116,0.334,0.183,0.549l-0.101,0.039c0.067,0.177,0.04,0.353-0.082,0.527
		c-0.054,0.122-0.142,0.258-0.262,0.405l-0.467,0.365c-1.108,0.215-1.756-0.209-1.945-1.277l-0.062,0.041
		c-0.418,0.433-0.979,0.614-1.682,0.548c-0.338-0.082-0.614-0.195-0.83-0.347l0.122,0.468v0.04c0.094,0.718-0.278,1.218-1.116,1.5
		c-0.811,0.04-1.324-0.344-1.541-1.155c-0.04-0.514,0.156-0.973,0.588-1.377c0.365-0.162,0.743-0.195,1.135-0.103
		c0.135,0.026,0.271,0.089,0.406,0.182l-0.142-0.182c-0.123-0.312-0.183-0.703-0.183-1.175c0.189-0.65,0.514-1.09,0.973-1.318
		l0.02-0.042c0.771-0.323,1.5-0.235,2.189,0.265c0.189,0.203,0.345,0.479,0.466,0.83c0.055,0.271,0.082,0.527,0.082,0.771
		c0.243-0.243,0.568-0.377,0.973-0.405c0.04,0,0.102,0.007,0.183,0.021c-0.094-0.094-0.183-0.202-0.263-0.323l-0.244-0.771
		c-0.067-0.566,0.015-1.094,0.244-1.582c0.338-0.473,0.663-0.795,0.973-0.972l0.082-0.042v-0.061
		c0.418-0.135,0.864-0.229,1.337-0.283c0.054,0.041,0.127,0.068,0.223,0.082c-0.095-0.176-0.149-0.332-0.163-0.469
		c-0.04-0.174-0.04-0.369,0-0.586c-0.107,0.121-0.215,0.234-0.324,0.345c-0.568,0.419-1.162,0.608-1.783,0.565h-0.02
		c0.013,0.096,0.033,0.184,0.06,0.266c0.04,0.08,0.026,0.107-0.041,0.08c0.067,0.162-0.02,0.434-0.264,0.813
		c-0.352,0.27-0.661,0.405-0.932,0.405c-0.607,0-1.02-0.285-1.236-0.853l-0.062-0.445c0.041-0.527,0.318-0.898,0.832-1.115
		c-0.352-0.514-0.527-1.055-0.527-1.621l0.02-0.385l0.061-0.082l-0.04-0.102l0.06-0.082c0.042-0.175,0.183-0.432,0.426-0.77
		c0.176-0.229,0.378-0.412,0.608-0.548l0.101-0.04l0.021-0.021c0.079-0.035,0.157-0.063,0.232-0.091
		c-0.312-0.106-0.614-0.228-0.912-0.354c-0.714-0.041-1.342-0.389-1.885-1.043c-0.232-0.156-0.466-0.323-0.699-0.498l0.082,0.224
		c0.216,1.271-0.257,2.203-1.419,2.798c-1.14,0.361-2.052,0.162-2.737-0.599l36.242-40.64c-1.99-1.453-3.922-3.041-5.798-4.764
		l-35.795,31.741c-0.273-0.44-0.551-0.897-0.83-1.368c0.028,0.443-0.059,0.842-0.264,1.197c-0.296,0.527-0.824,0.863-1.581,1.013
		c-0.865,0.08-1.568-0.25-2.108-0.991c0-0.056-0.027-0.123-0.081-0.203c-0.054-0.057-0.082-0.117-0.082-0.184
		c-0.121-0.404-0.154-0.785-0.101-1.136c0.122-0.716,0.527-1.224,1.217-1.521l0.181-0.082c0.704-0.193,1.296-0.148,1.775,0.133
		c-0.376-0.642-0.758-1.308-1.146-1.996c-0.214,0.281-0.524,0.519-0.933,0.709c-1.203,0.297-2.047-0.096-2.534-1.178
		c-0.162-0.66-0.04-1.296,0.365-1.904c0.027-0.025,0.136-0.107,0.325-0.241c0.107-0.109,0.229-0.196,0.365-0.265l0.061-0.061
		c0.224-0.073,0.444-0.113,0.658-0.123c-0.18-0.331-0.362-0.669-0.547-1.013c-0.106,0.051-0.217,0.099-0.334,0.142l-1.034,0.122
		c-0.568-0.149-1.02-0.386-1.357-0.709c-0.445-0.567-0.655-1.155-0.628-1.765c0.121-0.58,0.338-1.055,0.648-1.418
		c0.068-0.027,0.189-0.107,0.365-0.244c0.073-0.057,0.146-0.104,0.223-0.143c-0.158-0.308-0.317-0.617-0.477-0.933l37.153-24.382
		c-1.683-2.021-3.216-4.102-4.601-6.244l-38.389,19.186c-0.013-0.031-0.021-0.063-0.031-0.092c-0.038-0.17-0.058-0.339-0.06-0.507
		c-1.364-2.91-2.047-4.425-2.047-4.54c0.078-0.087,0.156-0.176,0.234-0.265c-0.034-1.037,0.355-1.808,1.164-2.31l0.122-0.021
		c-0.041-0.068-0.034-0.103,0.021-0.103c0.304-0.115,0.581-0.193,0.831-0.232c0.427-0.578,0.852-1.184,1.276-1.814
		c0.224-0.335,0.438-0.666,0.639-0.992c-0.102-0.127-0.18-0.263-0.232-0.406c-0.068-0.258-0.142-0.439-0.225-0.547
		c-0.093-0.556,0.014-1.127,0.325-1.724l0.324-0.323c0.149-0.136,0.29-0.23,0.425-0.283l0.061-0.062l0.062-0.041l0.627-0.224
		c0.174-0.014,0.339-0.014,0.497,0c0.528-1.285,0.872-2.518,1.034-3.698l28.772-9.496c-1.053-2.415-1.942-4.897-2.666-7.448
		l-38.674,7.904c-0.377-0.424-0.726-0.852-1.043-1.277c-0.212-0.082-0.415-0.193-0.608-0.334c-0.135-0.108-0.291-0.271-0.466-0.486
		l-0.121-0.121c-0.122-0.284-0.217-0.717-0.284-1.299c0.008-0.039,0.015-0.079,0.02-0.12c-0.484-1.009-0.8-2.017-0.941-3.021
		c-0.136-0.107-0.26-0.229-0.376-0.365c-0.15-0.291-0.268-0.58-0.354-0.871c-0.027-0.103-0.051-0.202-0.071-0.305
		c0.108-0.919,0.466-1.566,1.075-1.945h0.101c-0.027-0.039-0.014-0.062,0.04-0.062c0.094-0.038,0.186-0.071,0.274-0.103
		c0.315-0.371,0.724-0.684,1.226-0.932c0.653-0.32,1.797-0.621,3.436-0.9l0.011-0.012l0.061-0.08
		c0.311-0.121,0.77-0.183,1.378-0.183c0.038,0.009,0.076,0.019,0.112,0.029c0.022-0.003,0.047-0.007,0.071-0.011
		c0.847-0.118,1.637-0.24,2.372-0.363c0.013-0.035,0.026-0.069,0.041-0.102c0.175-0.23,0.324-0.406,0.445-0.528
		c0.176-0.188,0.392-0.316,0.649-0.385v-0.08c0.229-0.095,0.521-0.156,0.871-0.183c0.613,0.044,1.116,0.227,1.511,0.547
		c0.336-0.087,0.652-0.175,0.943-0.264c0.086-0.027,0.17-0.054,0.252-0.081c0.062-0.333,0.187-0.657,0.376-0.973
		c0.459-0.392,0.709-0.608,0.75-0.649l0.122-0.02v-0.061l0.689-0.202c0.646-0.055,1.204,0.069,1.672,0.374
		c0.574-0.311,1.128-0.649,1.662-1.013l20.856-1.186c-0.309-2.613-0.468-5.29-0.475-8.026l-13.368-0.801
		c0.044-0.12,0.088-0.241,0.132-0.365c-0.192-0.177-0.361-0.397-0.508-0.658l-0.202-0.548c-0.081-0.419-0.034-0.899,0.142-1.439
		c0.081-0.108,0.209-0.278,0.385-0.507c0.162-0.203,0.338-0.338,0.527-0.405l0.101-0.061v-0.061
		c0.224-0.095,0.458-0.156,0.701-0.184c0.045-0.183,0.089-0.365,0.131-0.546c-0.226,0.155-0.476,0.278-0.75,0.363
		c-0.567,0.149-1.223,0.095-1.967-0.161c-0.77-0.514-1.242-1.094-1.418-1.744c-0.176-0.635-0.108-1.311,0.203-2.027
		c0.378-0.567,0.763-0.952,1.155-1.155l0.122-0.02l0.02-0.062c0.445-0.174,0.877-0.25,1.297-0.222
		c0.311,0.026,0.662,0.108,1.053,0.244c0.455,0.303,0.807,0.631,1.054,0.983c0.162-1.009,0.292-2.008,0.385-3l11.483,2.392
		c0.392-2.725,0.953-5.379,1.683-7.965l-12.527-4.175c0.075-0.684,0.164-1.414,0.263-2.189c-0.333-0.25-0.614-0.61-0.84-1.085
		c-0.257-0.891-0.082-1.709,0.526-2.452c0.163-0.094,0.418-0.25,0.77-0.466l0.042-0.04c0.025-0.01,0.053-0.017,0.081-0.021
		c0.11-0.716,0.226-1.422,0.345-2.119c-0.155,0.268-0.419,0.481-0.79,0.638c-0.865,0.217-1.473-0.094-1.824-0.931
		c-0.04-0.217-0.04-0.514,0-0.892c0.081-0.095,0.183-0.23,0.305-0.406c0.107-0.176,0.256-0.297,0.445-0.365
		c0.406-0.216,0.797-0.243,1.176-0.081c0.324,0.122,0.587,0.385,0.791,0.79c0.028,0.113,0.048,0.22,0.061,0.324
		c0.191-1.065,0.39-2.112,0.597-3.142l14.169,7.136c1.175-2.457,2.526-4.837,4.054-7.145l-18.486-12.202l-0.009-0.153l0.061-0.06
		v-0.061c0.013-0.176,0.142-0.5,0.384-0.974c0.447-0.526,0.979-0.851,1.602-0.973c0.581-0.041,1.013,0.02,1.297,0.183
		c0.216,0.054,0.472,0.208,0.77,0.467l0.009,0.009c0.449-1.153,0.912-2.225,1.389-3.212c-0.055-0.236-0.075-0.473-0.061-0.708h0.02
		v-0.102c0.014-0.229,0.203-0.615,0.568-1.155c0.243-0.187,0.496-0.332,0.76-0.436c0.26-0.434,0.523-0.848,0.79-1.237
		c-0.029,0.005-0.059,0.007-0.091,0.011c-1.257-0.135-1.939-0.845-2.047-2.128l0.041-0.02v-0.121c0.06-0.602,0.35-1.085,0.872-1.45
		l18.353,16.367c0.743-0.816,1.51-1.62,2.303-2.412c1.168-1.169,2.361-2.284,3.576-3.345l-9.12-10.287
		c0.076-0.141,0.141-0.246,0.193-0.313c0.431-0.474,0.992-0.75,1.682-0.832c0.917,0.111,1.566,0.503,1.945,1.176
		c0.573,0,1.195,0,1.865,0c2.416,0,4.183-1.642,5.3-4.926c-0.429-0.144-0.736-0.447-0.921-0.912
		c-0.136-0.283-0.196-0.534-0.182-0.75c0-0.123,0.006-0.242,0.02-0.354l7.327,11.168c2.326-1.456,4.725-2.739,7.195-3.852
		l-11.179-22.357c0.293,0.169,0.526,0.388,0.699,0.66c0.093-0.456,0.191-0.901,0.294-1.339c-0.349,0.136-0.742,0.204-1.175,0.204
		c-0.02,0-0.04,0-0.061,0l-2.362-4.734c0.116-0.157,0.247-0.303,0.396-0.435c0.54-0.5,1.217-0.75,2.027-0.75s1.486,0.25,2.026,0.75
		c0.174,0.154,0.323,0.327,0.445,0.517c0.084-0.228,0.169-0.451,0.253-0.669c-0.017-0.028-0.033-0.059-0.05-0.091
		c-0.405-1.445-0.608-2.188-0.608-2.23c0-1.417,0.46-2.54,1.379-3.364c0.237-0.211,0.491-0.39,0.759-0.537
		c-0.668,0.001-1.273-0.299-1.814-0.903c-0.215-0.485-0.324-0.939-0.324-1.358l0.082-0.04v-0.04
		c0.027-0.189,0.094-0.413,0.203-0.669c0.499-0.567,1-0.906,1.5-1.013h0.485c0.541,0.107,1.027,0.432,1.459,0.973
		c0.392,0.648,0.432,1.291,0.122,1.924c-0.082,0.176-0.209,0.339-0.385,0.487l-0.152,0.192c0.349-0.074,0.717-0.112,1.105-0.112
		c0.155,0,0.307,0.007,0.456,0.021c0.289,0.024,0.566,0.071,0.831,0.142c-0.146-0.145-0.294-0.313-0.446-0.507
		c-0.038-0.045-0.075-0.092-0.111-0.143c-0.054-0.269-0.095-0.458-0.122-0.566c-0.054-0.23-0.074-0.46-0.061-0.689
		c-0.014-0.082,0.007-0.095,0.061-0.04l-0.061-0.082c0.121-0.283,0.203-0.514,0.243-0.689c0.042-0.04,0.109-0.169,0.203-0.385
		c0.461-0.486,0.998-0.787,1.612-0.901l11.704,35.48c2.567-0.661,5.202-1.157,7.906-1.49l-6.872-33.615
		c0.479,0.303,1.006,0.676,1.581,1.115c0.026-0.066,0.061-0.133,0.103-0.204c0.053-0.107,0.142-0.256,0.262-0.445
		c0.5-0.365,0.947-0.567,1.339-0.608c1.162,0.121,1.802,0.75,1.925,1.885c-0.027,0.472-0.203,0.905-0.527,1.297
		c-0.148,0.121-0.293,0.223-0.437,0.305c0.33,0.295,0.671,0.606,1.024,0.932c0.521,0.479,1.002,0.915,1.439,1.307
		c0.007-0.016,0.014-0.032,0.021-0.051c0.418-0.541,0.979-0.864,1.682-0.972c0.514-0.054,0.926,0.006,1.237,0.182
		c0.162,0.096,0.399,0.263,0.708,0.507c0.177,0.123,0.333,0.338,0.466,0.648l0.183,0.405c0.067,0.178,0.103,0.48,0.103,0.913
		c-0.111,0.604-0.352,1.08-0.721,1.43c0.907,0.601,1.627,0.901,2.159,0.901c0.559,0,1.245-0.22,2.057-0.659
		c-0.206,0.066-0.431,0.108-0.678,0.132c-1.271-0.176-1.967-0.906-2.087-2.189v-0.163c0.093-0.77,0.438-1.324,1.033-1.662
		c0.257-0.134,0.627-0.223,1.114-0.263c0.123-0.054,0.271-0.054,0.447,0c0.246,0.074,0.465,0.172,0.659,0.294l1.611,28.073
		c2.686,0.048,5.31,0.244,7.875,0.587l2.117-35.218c0.343-0.189,0.627-0.283,0.852-0.283c1.632,0,3.614,0.564,5.949,1.692
		c0.003-0.011,0.005-0.02,0.011-0.03l0.688-0.385c0.526-0.176,1.015-0.182,1.459-0.02c0.595,0.229,0.988,0.621,1.177,1.175
		c0.126,0.297,0.146,0.678,0.062,1.146c1.152,0.718,2.373,1.541,3.657,2.472l-6.546,31.467c2.477,0.738,4.889,1.634,7.236,2.685
		l9.738-29.197c0.045-0.001,0.094-0.001,0.144,0c1.43,0.243,2.167,1.095,2.207,2.554c-0.125,0.981-0.583,1.659-1.377,2.037
		c0.72,0.694,1.422,1.393,2.108,2.097c0.047-0.114,0.101-0.229,0.16-0.345c0.23-0.323,0.434-0.526,0.608-0.608l0.062-0.081h0.121
		v-0.122l0.385-0.162c0.541-0.216,1.123-0.223,1.744-0.02c0.62,0.338,1.061,0.757,1.316,1.257c0.256,0.594,0.283,1.222,0.081,1.885
		c-0.353,0.621-0.804,1.054-1.358,1.297c-0.058,0.025-0.117,0.05-0.182,0.071c0.971,1.106,1.791,2.12,2.462,3.04
		c-0.013-0.205-0.022-0.365-0.029-0.476v-0.041l0.021-0.122c0.027-0.189,0.095-0.365,0.203-0.526
		c0.08-0.108,0.188-0.284,0.322-0.527c0.19-0.095,0.486-0.264,0.894-0.507c0.085-0.028,0.173-0.053,0.265-0.072l-11.626,23.097
		c2.077,1.354,4.095,2.852,6.05,4.49l11.262-17.057c3.154,2.05,7.197,3.556,12.131,4.521l-16.793,18.84
		c1.679,1.82,3.229,3.694,4.65,5.625l22.65-20.087c0.345,0.306,0.7,0.63,1.064,0.974c0.232,0.217,0.47,0.441,0.709,0.668h0.404
		l0.041,0.102c0.121,0,0.237,0.027,0.344,0.081c0.162,0.068,0.285,0.109,0.365,0.123c0.082,0.122,0.219,0.269,0.405,0.445
		c0.172,0.399,0.26,0.744,0.264,1.035c0.837,0.829,1.701,1.708,2.597,2.634c0.324,0.261,0.662,0.547,1.013,0.861
		c0.069,0,0.14,0.004,0.204,0.011v0.04h0.141c0.364,0.081,0.736,0.378,1.114,0.892c0.096,0.196,0.151,0.401,0.173,0.619
		c0.303,0.307,0.614,0.632,0.934,0.973l-27.658,18.15c1.129,2.11,2.121,4.276,2.979,6.497l33.697-16.844
		c0.022,0.008,0.048,0.019,0.069,0.031c0.826,0.648,1.178,1.52,1.055,2.615c-0.178,0.504-0.413,0.912-0.709,1.226
		c0.441,0.575,0.904,1.181,1.389,1.813c0.146-0.148,0.325-0.317,0.536-0.508c0.528-0.215,0.94-0.343,1.235-0.385
		c-1.377-0.31-2.127-1.162-2.248-2.553c0.039-0.825,0.316-1.466,0.83-1.926c0.527-0.459,1.197-0.668,2.008-0.628
		c1.484,0.31,2.264,1.189,2.331,2.635c-0.149,1.028-0.671,1.784-1.563,2.27l-0.384,0.102c-0.067,0.027-0.153,0.041-0.265,0.041
		c-0.079,0.026-0.154,0.067-0.221,0.121c0.215-0.014,0.443,0.028,0.687,0.123c0.137,0.081,0.334,0.161,0.59,0.243
		c0.771,0.702,1.169,1.493,1.195,2.371c-0.015,0.365-0.156,0.858-0.425,1.479l-0.853,0.832c-0.063,0.024-0.124,0.046-0.183,0.071
		c0.527,0.693,1.074,1.414,1.641,2.158c0.195-0.573,0.566-1.046,1.115-1.419c0.595-0.176,1.063-0.25,1.398-0.222l0.162,0.06
		c0.148,0,0.316,0.035,0.506,0.102c0.203,0.108,0.338,0.169,0.405,0.183c0.181,0.142,0.339,0.294,0.478,0.456l-41.957,13.844
		c0.507,2.23,0.892,4.51,1.154,6.84l50.075-10.235c0.118,0.037,0.246,0.099,0.385,0.183c0.527,0.458,0.824,0.959,0.894,1.5v0.527
		c-0.014,0.059-0.03,0.117-0.051,0.171c0.01,0.026,0.021,0.048,0.029,0.071c0.407,0.938,0.687,2.258,0.83,3.963
		c0.045-0.134,0.101-0.272,0.162-0.416c0.271-0.432,0.664-0.797,1.178-1.094c0.473-0.136,0.87-0.189,1.194-0.163
		c0.069-0.026,0.083-0.02,0.041,0.022c0.189-0.013,0.365,0.019,0.527,0.101c0.093,0.027,0.249,0.06,0.466,0.102
		C313.63,175.095,314.063,175.872,314.077,176.831z M278.585,139.294c0.041-0.514,0.258-1.001,0.649-1.46
		c0.498-0.352,1.021-0.527,1.56-0.527c0.041,0,0.056,0.014,0.041,0.041h0.082c0.196,0.038,0.438,0.135,0.719,0.294l-3,1.966
		C278.611,139.505,278.593,139.401,278.585,139.294z M236.934,145.13c-6.418-6.406-13.547-11.039-21.384-13.904l-13.095,39.544
		c6.054,1.704,12.169,1.886,18.344,0.547c3.354-0.797,7.926-2.439,13.721-4.924c4.69-2.027,9.516-3.453,14.474-4.277
		C246.128,155.981,242.107,150.319,236.934,145.13z M194.896,127.759c-10.337-0.026-19.729,2.27-28.174,6.893
		c3.567,3.499,6.646,7.621,9.241,12.363c3.189,5.446,5.893,9.5,8.108,12.162c4.149,4.757,9.147,8.242,15,10.458l13.093-39.503
		C206.732,128.551,200.977,127.759,194.896,127.759z M236.143,169.555c-5.729,2.662-10.641,4.419-14.735,5.269
		c-6.796,1.419-13.492,1.19-20.087-0.689l-3.932,11.898l54.646,18.078c1.539-5.336,2.309-10.984,2.309-16.943
		c0-7.743-1.296-14.959-3.891-21.648C245.021,166.576,240.25,167.919,236.143,169.555z M192.827,188.526l-55.07-18.242
		c-1.527,5.31-2.29,10.938-2.29,16.884c0,4.675,0.466,9.169,1.398,13.479c0.324,1.418,0.703,2.83,1.136,4.236
		c0.216,0.715,0.459,1.438,0.729,2.168c0.257,0.717,0.527,1.439,0.812,2.17c5.541-0.812,10.404-2.217,14.594-4.217
		c6.04-2.702,10.952-4.459,14.735-5.27c6.931-1.379,13.606-1.148,20.026,0.689L192.827,188.526z M196.213,189.641l-3.934,11.897
		c6.406,2.405,11.913,6.21,16.52,11.412c2.77,3.122,5.662,7.452,8.678,12.991c2.039,3.608,5.047,7.515,9.019,11.717
		c3.662-2.352,7.142-5.176,10.438-8.473c6.418-6.42,11.061-13.572,13.924-21.465L196.213,189.641z M197.956,173.021
		c-6.256-2.365-11.749-6.168-16.479-11.412c-2.567-2.905-5.459-7.235-8.675-12.992c-1.985-3.54-5.074-7.567-9.263-12.08
		c-3.756,2.378-7.317,5.243-10.681,8.594c-6.446,6.446-11.094,13.635-13.945,21.567l55.111,18.242L197.956,173.021z
		 M211.293,244.509l5.066-1.683c1.701-0.676,3.406-1.434,5.107-2.27l0.934-0.488c0.31-0.176,0.613-0.342,0.91-0.504
		c-3.297-3.313-6.322-7.25-9.08-11.818c-3.024-5.418-5.701-9.525-8.026-12.323c-4.147-4.756-9.161-8.256-15.039-10.499
		l-13.053,39.442c5.296,1.501,10.892,2.252,16.784,2.252C200.652,246.618,206.116,245.915,211.293,244.509z M143.413,217.126
		c2.541,4.284,5.688,8.304,9.445,12.062c6.54,6.539,13.829,11.24,21.87,14.106l13.073-39.483
		c-6.039-1.705-12.147-1.886-18.323-0.549c-3.527,0.893-8.127,2.596-13.802,5.107c-4.635,2-9.506,3.406-14.615,4.216
		C141.804,214.167,142.587,215.68,143.413,217.126z"/>
</g>
</svg>
