<?xml version="1.0" encoding="utf-8"?>
<!-- Generator: Adobe Illustrator 16.0.0, SVG Export Plug-In . SVG Version: 6.00 Build 0)  -->
<!DOCTYPE svg PUBLIC "-//W3C//DTD SVG 1.1//EN" "http://www.w3.org/Graphics/SVG/1.1/DTD/svg11.dtd">
<svg version="1.1" id="Layer_1" xmlns="http://www.w3.org/2000/svg" xmlns:xlink="http://www.w3.org/1999/xlink" x="0px" y="0px"
	 width="300px" height="300px" viewBox="0 0 300 300" enable-background="new 0 0 300 300" xml:space="preserve">
<g>
	<path fill-rule="evenodd" clip-rule="evenodd" fill="#1C0C11" d="M267.361,29.744l3.912-3.911
		c-0.066-0.066-0.145-0.155-0.232-0.265l-0.166-0.166l-0.199-0.133c-0.043-0.066-0.099-0.121-0.165-0.166
		c-0.089-0.066-0.166-0.122-0.231-0.166c-0.066-0.044-0.133-0.088-0.199-0.132c-0.088-0.066-0.166-0.111-0.232-0.133l-3.812,3.746
		L267.361,29.744z M263.815,30.639l-47.364,46.967l-1.293-1.193v-0.033l47.432-46.967L263.815,30.639z M263.948,28.053l5.237-5.17
		c0.043-0.044,0.1-0.088,0.165-0.133c0.066-0.022,0.133-0.044,0.199-0.066c0.089-0.022,0.188-0.033,0.298-0.033h0.1
		c0.088,0,0.177,0.011,0.266,0.033c0.066,0.022,0.144,0.044,0.232,0.066c0.088,0.022,0.176,0.055,0.265,0.1
		c0.088,0.022,0.188,0.055,0.298,0.099c0.088,0.044,0.178,0.1,0.266,0.166c0.11,0.044,0.209,0.099,0.298,0.166
		s0.188,0.133,0.298,0.199c0.089,0.066,0.188,0.144,0.299,0.232c0.088,0.088,0.188,0.177,0.299,0.265
		c0.088,0.066,0.176,0.154,0.265,0.265c0.089,0.088,0.177,0.177,0.265,0.265c0.089,0.088,0.178,0.188,0.266,0.298
		c0.066,0.088,0.144,0.188,0.232,0.298c0.066,0.088,0.133,0.177,0.199,0.265c0.043,0.11,0.099,0.21,0.165,0.298
		c0.044,0.088,0.089,0.177,0.132,0.265c0.045,0.088,0.089,0.188,0.133,0.298c0.045,0.088,0.078,0.177,0.1,0.265
		c0.022,0.088,0.045,0.166,0.066,0.232c0.022,0.088,0.033,0.166,0.033,0.232c0,0.088,0,0.166,0,0.232
		c0,0.066-0.011,0.133-0.033,0.199c-0.021,0.088-0.044,0.166-0.066,0.232c-0.044,0.066-0.1,0.132-0.166,0.199
		c-0.043,0.066-0.099,0.122-0.165,0.166l-4.972,5.038l-4.972-4.939V28.053z M218.075,79.163l47.099-47.199l2.42,2.419
		l-46.867,47.563l-1.326-1.425c-0.221-0.221-0.441-0.442-0.662-0.663C218.518,79.616,218.296,79.384,218.075,79.163z
		 M196.465,106.209c0.552,0.619,1.082,1.249,1.591,1.89c0.508,0.663,1.005,1.326,1.491,1.989c0.486,0.685,0.961,1.38,1.426,2.088
		c0.441,0.685,0.873,1.392,1.293,2.122c0.42,0.729,0.816,1.458,1.192,2.187c0.397,0.751,0.774,1.503,1.127,2.254
		c0.354,0.774,0.685,1.547,0.995,2.32c0.331,0.773,0.629,1.569,0.895,2.387c0.287,0.795,0.553,1.602,0.795,2.419
		c0.243,0.795,0.476,1.613,0.696,2.453c0.198,0.84,0.387,1.679,0.563,2.519c0.154,0.839,0.299,1.69,0.432,2.552
		c0.109,0.862,0.221,1.734,0.331,2.619c0.065,0.861,0.121,1.734,0.165,2.618c0.045,0.906,0.066,1.801,0.066,2.685
		c0,1.237-0.033,2.463-0.1,3.679c-0.088,1.216-0.209,2.42-0.364,3.613c-0.177,1.193-0.387,2.375-0.63,3.546
		c-0.242,1.149-0.52,2.299-0.828,3.447c-0.31,1.127-0.652,2.243-1.027,3.348c-0.398,1.105-0.818,2.199-1.26,3.281
		c-0.465,1.061-0.95,2.11-1.459,3.148c-0.529,1.039-1.082,2.056-1.656,3.05c-0.575,0.995-1.193,1.967-1.856,2.917
		c-0.642,0.95-1.304,1.879-1.989,2.784c-0.707,0.906-1.436,1.79-2.188,2.651c-0.773,0.861-1.558,1.701-2.354,2.52
		c-0.816,0.795-1.656,1.58-2.519,2.354c-0.862,0.75-1.745,1.48-2.651,2.188s-1.834,1.381-2.784,2.021s-1.923,1.248-2.917,1.822
		c-0.994,0.598-2.011,1.15-3.049,1.658c-1.039,0.53-2.1,1.016-3.183,1.458c-1.061,0.464-2.144,0.884-3.248,1.26
		s-2.221,0.729-3.348,1.061c-1.149,0.31-2.31,0.585-3.48,0.829c-1.171,0.242-2.354,0.441-3.546,0.596
		c-1.172,0.155-2.365,0.276-3.58,0.365c-1.237,0.088-2.464,0.133-3.68,0.133c-1.237,0-2.463-0.045-3.679-0.133
		c-1.216-0.089-2.419-0.21-3.612-0.365c-1.193-0.154-2.376-0.354-3.547-0.596c-1.172-0.244-2.32-0.52-3.447-0.829
		c-1.148-0.331-2.275-0.685-3.381-1.061c-1.104-0.376-2.188-0.796-3.248-1.26c-1.083-0.442-2.144-0.928-3.182-1.458
		c-1.039-0.508-2.045-1.061-3.017-1.658c-0.994-0.574-1.978-1.182-2.95-1.822c-0.949-0.641-1.878-1.314-2.783-2.021
		c-0.906-0.707-1.791-1.438-2.652-2.188c-0.861-0.773-1.69-1.559-2.486-2.354c-0.816-0.818-1.602-1.658-2.353-2.52
		c-0.774-0.861-1.503-1.745-2.188-2.651c-0.707-0.905-1.381-1.834-2.021-2.784c-0.662-0.95-1.281-1.922-1.855-2.917
		c-0.575-0.994-1.127-2.011-1.658-3.05c-0.508-1.038-0.995-2.088-1.458-3.148c-0.442-1.082-0.862-2.176-1.26-3.281
		c-0.375-1.104-0.718-2.221-1.028-3.348c-0.309-1.148-0.585-2.298-0.829-3.447c-0.243-1.171-0.441-2.353-0.596-3.546
		c-0.177-1.193-0.299-2.397-0.365-3.613c-0.088-1.215-0.133-2.441-0.133-3.679c0-0.686,0.011-1.381,0.033-2.088
		c0.022-0.663,0.066-1.337,0.133-2.022c0.044-0.685,0.099-1.359,0.166-2.021c0.088-0.686,0.177-1.359,0.265-2.022
		c0.111-0.663,0.232-1.315,0.365-1.956c0.11-0.663,0.243-1.315,0.397-1.956c0.155-0.641,0.31-1.293,0.464-1.956
		c0.177-0.618,0.364-1.248,0.563-1.889c0.199-0.619,0.409-1.238,0.629-1.856c0.199-0.619,0.42-1.237,0.663-1.856
		c-0.154,0.619-0.309,1.249-0.464,1.889s-0.288,1.292-0.398,1.956c-0.132,0.641-0.243,1.293-0.331,1.956
		c-0.088,0.685-0.166,1.359-0.232,2.022c-0.066,0.685-0.11,1.381-0.132,2.088c-0.044,0.685-0.066,1.392-0.066,2.122
		c0,1.127,0.044,2.243,0.132,3.347c0.066,1.105,0.177,2.199,0.332,3.282c0.155,1.083,0.354,2.154,0.597,3.215
		c0.221,1.061,0.486,2.11,0.795,3.148c0.288,1.017,0.619,2.022,0.995,3.016c0.354,1.017,0.751,2.011,1.193,2.983
		c0.42,0.95,0.873,1.878,1.359,2.784c0.485,0.928,1.005,1.834,1.557,2.719c-0.132-0.354-0.265-0.707-0.396-1.061
		c-0.133-0.354-0.266-0.719-0.398-1.094c-0.11-0.354-0.221-0.708-0.332-1.061c-0.176-0.575-0.342-1.139-0.496-1.691
		c-0.155-0.574-0.299-1.148-0.432-1.723c-0.133-0.575-0.254-1.161-0.364-1.757c-0.11-0.575-0.21-1.16-0.298-1.757
		c-0.089-0.575-0.166-1.16-0.232-1.756c-0.066-0.619-0.133-1.227-0.199-1.823c-0.044-0.597-0.066-1.205-0.066-1.823
		c-0.044-0.597-0.066-1.205-0.066-1.823c0-1.104,0.044-2.199,0.133-3.281c0.066-1.083,0.177-2.155,0.332-3.215
		c0.133-1.039,0.309-2.077,0.529-3.116c0.199-1.039,0.443-2.066,0.73-3.083c0.265-1.017,0.574-2.011,0.928-2.983
		c0.331-0.994,0.707-1.966,1.127-2.917c0.397-0.95,0.828-1.889,1.292-2.817c0.464-0.906,0.95-1.801,1.459-2.685
		c0.508-0.883,1.05-1.756,1.624-2.618c0.574-0.84,1.171-1.657,1.789-2.453c0.642-0.818,1.293-1.602,1.956-2.354
		c0.685-0.773,1.381-1.525,2.089-2.254c0.729-0.707,1.469-1.403,2.221-2.088c0.773-0.663,1.568-1.304,2.387-1.922
		c0.795-0.641,1.612-1.238,2.451-1.79c0.863-0.597,1.735-1.149,2.619-1.657s1.779-0.995,2.685-1.458
		c0.929-0.464,1.868-0.895,2.817-1.292c0.951-0.42,1.922-0.795,2.917-1.127c0.972-0.332,1.967-0.641,2.983-0.928
		c0.994-0.287,2.011-0.53,3.049-0.729c1.039-0.221,2.088-0.398,3.148-0.531c1.061-0.154,2.133-0.265,3.216-0.331
		c1.083-0.088,2.177-0.132,3.281-0.132c0.817,0,1.624,0.022,2.419,0.066c0.818,0.044,1.625,0.11,2.42,0.199
		c0.773,0.066,1.559,0.166,2.354,0.298c0.795,0.111,1.568,0.243,2.32,0.398c0.773,0.155,1.535,0.332,2.287,0.53
		c0.773,0.199,1.524,0.409,2.254,0.63c0.751,0.221,1.491,0.464,2.221,0.729c0.707,0.265,1.414,0.553,2.121,0.862
		c0.729,0.287,1.436,0.597,2.121,0.928s1.359,0.674,2.021,1.027c0.686,0.354,1.359,0.729,2.022,1.127
		c0.641,0.397,1.271,0.807,1.89,1.226c0.641,0.42,1.27,0.862,1.889,1.326c0.597,0.442,1.193,0.906,1.79,1.392
		c0.574,0.464,1.138,0.95,1.69,1.458c0.553,0.486,1.094,0.994,1.624,1.524c-0.575-0.818-1.171-1.624-1.79-2.419
		c-0.641-0.773-1.293-1.524-1.955-2.254c-0.686-0.751-1.393-1.47-2.121-2.154c-0.729-0.708-1.48-1.381-2.254-2.022
		c-0.773-0.663-1.569-1.292-2.387-1.889c-0.817-0.597-1.646-1.171-2.486-1.724c-0.861-0.531-1.734-1.05-2.618-1.558
		c-0.905-0.486-1.812-0.95-2.718-1.392c-0.928-0.42-1.879-0.817-2.851-1.193c-0.95-0.376-1.923-0.718-2.917-1.028
		c-0.973-0.309-1.967-0.585-2.982-0.829c-1.018-0.265-2.045-0.486-3.083-0.663c0.884,0.044,1.757,0.111,2.618,0.199
		c0.885,0.11,1.757,0.221,2.619,0.332c0.84,0.132,1.689,0.287,2.552,0.464c0.84,0.177,1.679,0.375,2.519,0.597
		c0.818,0.199,1.636,0.431,2.453,0.696c0.796,0.243,1.603,0.508,2.42,0.796c0.773,0.287,1.558,0.597,2.354,0.928
		c0.773,0.31,1.535,0.641,2.287,0.995c0.773,0.375,1.524,0.751,2.254,1.126c0.751,0.398,1.48,0.807,2.188,1.227
		c0.707,0.442,1.414,0.884,2.121,1.326c0.707,0.464,1.392,0.939,2.055,1.425c0.663,0.486,1.326,0.995,1.988,1.525
		c0.641,0.508,1.271,1.039,1.89,1.591c0.642,0.53,1.26,1.094,1.856,1.69c0.597,0.575,1.182,1.16,1.756,1.757
		C195.382,104.95,195.934,105.569,196.465,106.209z M199.248,138.195l-0.065,1.491c-0.089,1.127-0.21,2.243-0.364,3.348
		c-0.178,1.105-0.387,2.199-0.631,3.282c-0.265,1.083-0.563,2.154-0.895,3.215c-0.354,1.039-0.729,2.066-1.127,3.083
		c-0.42,1.016-0.873,2.021-1.359,3.016c-0.508,0.994-1.038,1.955-1.59,2.884c-0.574,0.928-1.172,1.845-1.791,2.751
		c-0.641,0.906-1.303,1.79-1.988,2.651c-0.707,0.84-1.436,1.669-2.188,2.485c-0.773,0.797-1.558,1.569-2.354,2.32
		c-0.817,0.752-1.656,1.471-2.519,2.154c-0.884,0.708-1.778,1.371-2.685,1.989l3.547,3.778c0.773-0.574,1.524-1.182,2.253-1.822
		c0.751-0.619,1.47-1.26,2.155-1.923c0.685-0.685,1.358-1.381,2.021-2.088c0.641-0.729,1.248-1.47,1.822-2.221
		c0.598-0.751,1.16-1.524,1.691-2.32c0.553-0.796,1.071-1.613,1.558-2.452c0.464-0.818,0.905-1.669,1.325-2.553
		c0.42-0.861,0.807-1.734,1.16-2.618s0.674-1.79,0.961-2.718s0.542-1.867,0.764-2.818c0.198-0.928,0.375-1.878,0.529-2.85
		c0.133-0.973,0.232-1.956,0.299-2.95c0.044-0.508,0.066-1.027,0.066-1.558c0.021-0.53,0.033-1.049,0.033-1.558
		c-0.022-0.354-0.033-0.696-0.033-1.027c-0.022-0.354-0.045-0.696-0.066-1.027c-0.045-0.354-0.078-0.696-0.1-1.028
		c-0.045-0.332-0.088-0.652-0.133-0.961c-0.044-0.332-0.088-0.663-0.133-0.995C199.37,138.847,199.314,138.526,199.248,138.195z
		 M217.942,203.756l51.044,51.176c0.066-0.044,0.154-0.121,0.265-0.232l0.729-0.861c0.088-0.11,0.166-0.21,0.232-0.299
		c0.066-0.109,0.132-0.209,0.198-0.298c0.066-0.11,0.133-0.221,0.199-0.331c0.065-0.111,0.132-0.221,0.198-0.332
		c0.045-0.109,0.089-0.221,0.133-0.331c0.045-0.11,0.089-0.231,0.133-0.364l-50.845-50.447l1.193-1.326l51.872,51.375l0.232,0.266
		c0.088,0.088,0.166,0.166,0.232,0.232c0.088,0.088,0.165,0.188,0.23,0.298c0.045,0.066,0.089,0.144,0.133,0.231
		c0.045,0.066,0.089,0.145,0.133,0.232c0,0.045,0.012,0.088,0.033,0.133c0,0.045,0.012,0.1,0.033,0.166c0,0.044,0,0.1,0,0.166
		c0,0.043,0,0.099,0,0.165c0,0.089-0.011,0.188-0.033,0.298c-0.021,0.111-0.044,0.221-0.066,0.332
		c-0.021,0.11-0.055,0.221-0.1,0.332c-0.044,0.109-0.088,0.23-0.133,0.363c-0.065,0.111-0.132,0.232-0.198,0.365
		c-0.044,0.11-0.099,0.232-0.165,0.365c-0.089,0.132-0.166,0.254-0.232,0.363c-0.088,0.133-0.177,0.266-0.266,0.398
		c-0.088,0.11-0.176,0.232-0.265,0.364c-0.11,0.133-0.222,0.266-0.331,0.397c-0.111,0.133-0.222,0.254-0.332,0.365
		c-0.111,0.133-0.232,0.266-0.365,0.397c-0.132,0.133-0.275,0.266-0.43,0.397c-0.155,0.133-0.311,0.266-0.465,0.398
		c-0.154,0.11-0.298,0.232-0.431,0.364c-0.154,0.089-0.31,0.188-0.464,0.298c-0.154,0.089-0.31,0.178-0.465,0.266
		c-0.154,0.088-0.297,0.166-0.43,0.232c-0.155,0.066-0.299,0.133-0.432,0.198c-0.133,0.044-0.265,0.089-0.397,0.133
		c-0.155,0.044-0.287,0.077-0.397,0.1c-0.133,0.022-0.266,0.044-0.398,0.066c-0.066,0-0.133,0-0.198,0c-0.066,0-0.144,0-0.232,0
		c-0.066-0.022-0.132-0.033-0.198-0.033c-0.066-0.022-0.133-0.044-0.199-0.066s-0.121-0.056-0.166-0.099
		c-0.066-0.045-0.121-0.089-0.166-0.133c-0.066-0.045-0.121-0.089-0.166-0.133l-51.805-52.602c0.596-0.53,1.193-1.072,1.789-1.624
		C216.783,204.904,217.368,204.33,217.942,203.756z M153.939,32.13c0.044-0.088,0.1-0.166,0.166-0.232
		c0.044-0.066,0.1-0.132,0.166-0.199c0.065-0.088,0.143-0.155,0.23-0.199c0.066-0.066,0.145-0.122,0.232-0.166
		c0.089-0.044,0.178-0.088,0.266-0.132c0.088-0.022,0.177-0.055,0.266-0.099c0.088-0.022,0.188-0.034,0.298-0.034
		c0.089-0.022,0.188-0.033,0.298-0.033c0.311,0,0.598,0.055,0.862,0.166c0.265,0.11,0.508,0.276,0.729,0.497
		c0.198,0.199,0.354,0.431,0.464,0.696c0.11,0.265,0.165,0.552,0.165,0.862c0,0.11,0,0.209,0,0.298
		c-0.021,0.111-0.044,0.21-0.066,0.299c-0.021,0.088-0.055,0.177-0.099,0.265c-0.044,0.088-0.089,0.176-0.133,0.265
		s-0.1,0.177-0.165,0.265c-0.066,0.066-0.122,0.133-0.166,0.199c-0.066,0.066-0.145,0.132-0.232,0.199
		c-0.066,0.044-0.144,0.088-0.232,0.133c-0.088,0.066-0.176,0.11-0.265,0.132c-0.089,0.044-0.177,0.077-0.265,0.1
		c-0.089,0.022-0.188,0.044-0.299,0.066c-0.111,0.022-0.21,0.034-0.299,0.034c-0.11,0-0.209-0.011-0.298-0.034
		c-0.11-0.022-0.21-0.044-0.298-0.066c-0.089-0.022-0.178-0.055-0.266-0.1c-0.088-0.022-0.177-0.066-0.266-0.132
		c-0.088-0.044-0.166-0.088-0.232-0.133c-0.088-0.066-0.165-0.132-0.23-0.199c-0.066-0.066-0.122-0.133-0.166-0.199
		c-0.066-0.088-0.122-0.177-0.166-0.265c-0.045-0.088-0.088-0.177-0.133-0.265c-0.045-0.088-0.077-0.177-0.1-0.265
		c-0.021-0.088-0.044-0.188-0.066-0.299c0-0.088,0-0.188,0-0.298c0-0.111,0-0.21,0-0.298c0.022-0.088,0.045-0.188,0.066-0.299
		c0.022-0.088,0.055-0.176,0.1-0.265S153.895,32.219,153.939,32.13z M132.229,35.776c0.198,0.199,0.354,0.431,0.464,0.696
		s0.177,0.552,0.199,0.862c0,0.11-0.012,0.221-0.033,0.332c-0.022,0.088-0.045,0.177-0.066,0.265
		c-0.022,0.088-0.055,0.188-0.1,0.298c-0.021,0.088-0.066,0.177-0.133,0.265c-0.044,0.066-0.088,0.144-0.133,0.232
		c-0.066,0.066-0.133,0.132-0.198,0.199c-0.066,0.066-0.133,0.133-0.199,0.199c-0.089,0.044-0.177,0.1-0.265,0.166
		c-0.089,0.044-0.178,0.088-0.266,0.133c-0.088,0.022-0.177,0.055-0.266,0.099c-0.088,0.022-0.188,0.033-0.298,0.033
		c-0.089,0.022-0.188,0.033-0.298,0.033c-0.111,0-0.211-0.011-0.299-0.033c-0.088,0-0.188-0.011-0.299-0.033
		c-0.088-0.044-0.176-0.077-0.265-0.099c-0.089-0.044-0.177-0.088-0.265-0.133c-0.089-0.066-0.166-0.122-0.232-0.166
		c-0.066-0.066-0.133-0.132-0.199-0.199c-0.088-0.066-0.154-0.132-0.199-0.199c-0.065-0.088-0.121-0.166-0.165-0.232
		c-0.044-0.088-0.089-0.177-0.132-0.265c-0.023-0.111-0.056-0.21-0.1-0.298c-0.022-0.088-0.033-0.177-0.033-0.265
		c-0.022-0.111-0.033-0.221-0.033-0.332c0-0.088,0.011-0.188,0.033-0.298c0-0.088,0.011-0.177,0.033-0.265
		c0.044-0.11,0.076-0.21,0.1-0.298c0.043-0.088,0.088-0.177,0.132-0.265c0.044-0.066,0.1-0.144,0.165-0.232
		c0.045-0.066,0.111-0.133,0.199-0.199c0.066-0.066,0.133-0.133,0.199-0.199c0.066-0.066,0.144-0.122,0.232-0.166
		c0.088-0.044,0.176-0.088,0.265-0.133c0.089-0.022,0.177-0.055,0.265-0.099c0.111-0.022,0.211-0.033,0.299-0.033
		c0.088-0.022,0.188-0.033,0.299-0.033c0.309,0,0.596,0.055,0.861,0.166C131.787,35.412,132.03,35.578,132.229,35.776z
		 M132.859,39.853l14.948,2.088l7.987-5.303l0.066-0.099l0.033,0.066l8.021,5.336l14.948-2.088v0.033l-6.729,10.772
		c-0.397-0.088-0.795-0.166-1.192-0.232c-0.398-0.044-0.807-0.099-1.227-0.166s-0.84-0.133-1.26-0.199
		c-0.42-0.044-0.851-0.088-1.293-0.132c-0.441-0.066-0.884-0.122-1.326-0.166c-0.441-0.044-0.895-0.088-1.358-0.133
		c-0.442-0.022-0.896-0.055-1.358-0.1c-0.465-0.022-0.939-0.044-1.426-0.066c-0.464-0.044-0.939-0.077-1.426-0.099
		s-0.972-0.033-1.458-0.033c-0.485-0.022-0.972-0.033-1.458-0.033c-0.508,0-1.006,0-1.492,0h-1.988l-11.932,0.961l-2.42,0.398
		h-0.033l-6.629-10.772V39.853z M90.997,81.947L44.129,34.384l2.42-2.419h0.033l47.066,47.199c-0.221,0.221-0.442,0.453-0.663,0.696
		c-0.221,0.221-0.442,0.442-0.663,0.663L90.997,81.947z M95.272,77.605L47.908,30.639l1.226-1.227l47.431,46.967v0.033
		L95.272,77.605z M182.643,35.776c0.199,0.199,0.365,0.431,0.498,0.696c0.109,0.265,0.166,0.552,0.166,0.862
		c0,0.11-0.012,0.221-0.033,0.332c0,0.088-0.012,0.177-0.033,0.265c-0.045,0.088-0.078,0.188-0.1,0.298
		c-0.045,0.088-0.089,0.177-0.133,0.265c-0.066,0.066-0.121,0.144-0.166,0.232c-0.066,0.066-0.133,0.132-0.199,0.199
		s-0.133,0.133-0.198,0.199c-0.089,0.044-0.166,0.1-0.231,0.166c-0.089,0.044-0.178,0.088-0.266,0.133
		c-0.088,0.022-0.188,0.055-0.299,0.099c-0.088,0.022-0.176,0.033-0.265,0.033c-0.11,0.022-0.21,0.033-0.299,0.033
		c-0.11,0-0.221-0.011-0.331-0.033c-0.088,0-0.177-0.011-0.266-0.033c-0.109-0.044-0.21-0.077-0.299-0.099
		c-0.088-0.044-0.165-0.088-0.23-0.133c-0.089-0.066-0.178-0.122-0.266-0.166c-0.066-0.066-0.133-0.132-0.199-0.199
		s-0.133-0.132-0.199-0.199c-0.044-0.088-0.1-0.166-0.165-0.232c-0.044-0.088-0.089-0.177-0.133-0.265
		c-0.022-0.111-0.044-0.21-0.066-0.298c-0.044-0.088-0.066-0.177-0.066-0.265c-0.022-0.111-0.032-0.221-0.032-0.332
		c0-0.088,0.01-0.188,0.032-0.298c0-0.088,0.022-0.177,0.066-0.265c0.022-0.11,0.044-0.21,0.066-0.298
		c0.044-0.088,0.089-0.177,0.133-0.265c0.065-0.066,0.121-0.144,0.165-0.232c0.066-0.066,0.133-0.133,0.199-0.199
		c0.066-0.066,0.133-0.133,0.199-0.199c0.088-0.066,0.177-0.122,0.266-0.166c0.065-0.044,0.143-0.088,0.23-0.133
		c0.089-0.022,0.189-0.055,0.299-0.099c0.089-0.022,0.178-0.033,0.266-0.033c0.11-0.022,0.221-0.033,0.331-0.033
		c0.31,0,0.597,0.055,0.862,0.166C182.213,35.412,182.444,35.578,182.643,35.776z M169.12,51.354
		c0.397,0.044,0.795,0.099,1.192,0.166c0.377,0.066,0.763,0.133,1.16,0.199l-1.558,2.52c-0.707-0.111-1.437-0.21-2.188-0.299
		c-0.729-0.088-1.48-0.166-2.253-0.232c-0.509-0.044-1.018-0.077-1.525-0.099c-0.53-0.044-1.061-0.078-1.592-0.1
		c-0.529-0.044-1.061-0.066-1.59-0.066c-0.398-0.022-0.807-0.033-1.227-0.033c-0.42-0.022-0.829-0.034-1.227-0.034
		c-0.42,0-0.828,0-1.227,0h-1.16c-0.553,0-1.094,0.011-1.624,0.034c-0.552,0-1.094,0.011-1.624,0.033
		c-0.553,0.022-1.094,0.056-1.624,0.1c-0.552,0.022-1.094,0.055-1.624,0.1c-0.508,0.022-1.027,0.055-1.559,0.099
		c-0.529,0.044-1.049,0.088-1.557,0.132c-0.509,0.044-1.018,0.1-1.525,0.166c-0.508,0.044-1.016,0.1-1.524,0.166
		c-0.486,0.066-0.972,0.133-1.458,0.199l-1.625-2.652l5.635-0.795l10.043-0.497c0.465,0,0.939,0,1.426,0
		c0.464,0.022,0.928,0.033,1.393,0.033c0.463,0.022,0.928,0.044,1.392,0.066c0.464,0.022,0.917,0.044,1.358,0.066
		c0.465,0.022,0.918,0.044,1.359,0.066s0.884,0.056,1.326,0.1c0.441,0.044,0.873,0.077,1.293,0.099
		c0.419,0.044,0.839,0.1,1.259,0.166c0.42,0.044,0.84,0.088,1.259,0.132C168.324,51.233,168.723,51.288,169.12,51.354z
		 M39.555,23.711c0.111-0.088,0.21-0.166,0.299-0.232c0.11-0.066,0.209-0.133,0.298-0.199s0.188-0.121,0.298-0.166
		c0.088-0.066,0.177-0.122,0.265-0.166c0.088-0.044,0.188-0.077,0.298-0.099c0.088-0.044,0.177-0.078,0.265-0.1
		s0.166-0.044,0.232-0.066c0.088-0.022,0.177-0.033,0.265-0.033h0.099c0.111,0,0.21,0.011,0.298,0.033
		c0.088,0.022,0.155,0.044,0.199,0.066c0.066,0.044,0.122,0.088,0.166,0.133c0.044,0.044,0.088,0.088,0.133,0.132l5.104,5.038v0.033
		l-4.972,4.939l-4.972-5.038c-0.066-0.044-0.121-0.1-0.166-0.166c-0.066-0.066-0.11-0.133-0.132-0.199
		c-0.044-0.066-0.078-0.144-0.1-0.232c-0.022-0.066-0.033-0.133-0.033-0.199c0-0.066,0-0.144,0-0.232
		c0-0.066,0.011-0.144,0.033-0.232c0.022-0.066,0.044-0.144,0.066-0.232s0.055-0.177,0.1-0.265c0.044-0.111,0.088-0.21,0.132-0.298
		c0.044-0.088,0.088-0.177,0.133-0.265c0.066-0.088,0.121-0.188,0.166-0.298c0.066-0.088,0.144-0.177,0.232-0.265
		c0.066-0.11,0.133-0.21,0.199-0.298c0.088-0.111,0.177-0.21,0.265-0.298s0.177-0.177,0.265-0.265
		c0.088-0.111,0.188-0.21,0.298-0.298C39.378,23.877,39.467,23.8,39.555,23.711z M40.782,25.468
		c-0.066,0.066-0.133,0.132-0.199,0.199l-0.133,0.166l3.911,3.911l1.326-1.326l-3.812-3.746l-0.298,0.166
		c-0.088,0.066-0.177,0.133-0.266,0.199c-0.11,0.066-0.199,0.144-0.265,0.232C40.958,25.335,40.87,25.402,40.782,25.468z
		 M162.789,107.071c-0.441-0.354-0.895-0.696-1.359-1.027c-0.486-0.31-0.972-0.607-1.458-0.895
		c-0.485-0.287-0.995-0.563-1.524-0.829c-0.508-0.265-1.027-0.508-1.559-0.729c-0.529-0.221-1.071-0.419-1.623-0.596
		c-0.553-0.199-1.105-0.375-1.658-0.53c-0.552-0.155-1.127-0.288-1.723-0.398c-0.574-0.133-1.16-0.232-1.757-0.298
		c-0.575-0.088-1.16-0.154-1.757-0.199c-0.619-0.044-1.238-0.066-1.856-0.066c-0.597,0-1.204,0.022-1.823,0.066
		c-0.596,0.044-1.193,0.11-1.789,0.199c-0.575,0.066-1.16,0.166-1.758,0.298c-0.574,0.11-1.137,0.243-1.689,0.398
		c-0.574,0.155-1.139,0.332-1.691,0.53c-0.529,0.177-1.06,0.375-1.59,0.596c-0.531,0.221-1.05,0.464-1.559,0.729
		c-0.529,0.265-1.038,0.542-1.524,0.829c-0.485,0.288-0.972,0.585-1.458,0.895c-0.465,0.332-0.928,0.674-1.393,1.027
		c-0.883,0.685-1.734,1.437-2.552,2.254c-0.796,0.795-1.547,1.646-2.254,2.552c-0.331,0.442-0.663,0.906-0.994,1.392
		c-0.31,0.464-0.608,0.939-0.896,1.425c-0.287,0.508-0.563,1.017-0.828,1.525c-0.266,0.508-0.508,1.027-0.729,1.558
		s-0.431,1.072-0.63,1.624c-0.177,0.552-0.342,1.105-0.497,1.657c-0.154,0.575-0.298,1.149-0.431,1.724
		c-0.11,0.575-0.21,1.16-0.299,1.756c-0.088,0.575-0.143,1.171-0.165,1.79c-0.044,0.597-0.066,1.204-0.066,1.823
		c0,0.906,0.044,1.812,0.132,2.718c0.089,0.884,0.222,1.768,0.398,2.652c0.177,0.861,0.397,1.712,0.662,2.552
		c0.266,0.817,0.564,1.624,0.896,2.42c0.331,0.795,0.708,1.58,1.127,2.353c0.42,0.751,0.862,1.48,1.326,2.188
		c0.485,0.708,0.994,1.392,1.524,2.055c0.553,0.663,1.127,1.292,1.724,1.889c0.618,0.597,1.249,1.171,1.89,1.724
		c0.662,0.53,1.348,1.039,2.055,1.524c0.707,0.486,1.436,0.928,2.188,1.327c0.773,0.419,1.558,0.795,2.354,1.127
		c0.795,0.331,1.602,0.629,2.419,0.895c0.841,0.266,1.69,0.486,2.552,0.662c0.885,0.178,1.769,0.311,2.652,0.398
		c0.906,0.088,1.813,0.133,2.718,0.133c0.618,0,1.237-0.022,1.856-0.066c0.597-0.045,1.182-0.1,1.757-0.166
		c0.597-0.088,1.183-0.188,1.757-0.299c0.596-0.132,1.171-0.275,1.723-0.431c0.553-0.154,1.105-0.319,1.658-0.497
		c0.552-0.199,1.094-0.408,1.623-0.629c0.531-0.222,1.051-0.465,1.559-0.73c0.529-0.265,1.039-0.541,1.524-0.828
		c0.486-0.287,0.972-0.585,1.458-0.895c0.465-0.331,0.918-0.663,1.359-0.994c0.906-0.707,1.768-1.458,2.586-2.254
		c0.795-0.817,1.535-1.668,2.221-2.552c0.354-0.464,0.695-0.928,1.027-1.392c0.309-0.486,0.607-0.972,0.895-1.458
		c0.287-0.486,0.563-0.983,0.828-1.492c0.244-0.53,0.486-1.061,0.729-1.591c0.222-0.531,0.42-1.061,0.597-1.591
		c0.199-0.552,0.375-1.116,0.53-1.69c0.155-0.552,0.287-1.116,0.397-1.69c0.133-0.597,0.232-1.183,0.299-1.757
		c0.088-0.596,0.154-1.193,0.199-1.79c0.043-0.619,0.066-1.227,0.066-1.823c0-0.619-0.023-1.227-0.066-1.823
		c-0.045-0.619-0.111-1.215-0.199-1.79c-0.066-0.596-0.166-1.182-0.299-1.756c-0.11-0.575-0.242-1.149-0.397-1.724
		c-0.155-0.552-0.331-1.105-0.53-1.657c-0.177-0.552-0.375-1.094-0.597-1.624c-0.243-0.53-0.485-1.05-0.729-1.558
		c-0.265-0.508-0.541-1.017-0.828-1.525c-0.287-0.486-0.586-0.961-0.895-1.425c-0.332-0.486-0.674-0.95-1.027-1.392
		c-0.686-0.906-1.426-1.757-2.221-2.552C164.557,108.508,163.695,107.756,162.789,107.071z M152.083,109.358
		c0.222,0.133,0.42,0.254,0.597,0.364c0.199,0.133,0.398,0.266,0.597,0.398c0.177,0.133,0.354,0.276,0.53,0.431
		c0.177,0.155,0.343,0.31,0.497,0.464c0.177,0.155,0.343,0.31,0.497,0.464c0.155,0.177,0.299,0.354,0.432,0.53
		c0.154,0.155,0.298,0.321,0.43,0.498c0.133,0.199,0.266,0.397,0.398,0.596c0.111,0.199,0.221,0.398,0.332,0.597
		c0.133,0.199,0.242,0.409,0.331,0.63c0.089,0.199,0.177,0.409,0.265,0.63c0.089,0.199,0.166,0.409,0.232,0.63
		c0.066,0.221,0.121,0.442,0.166,0.663c0.066,0.221,0.11,0.453,0.133,0.696c0.043,0.221,0.077,0.453,0.1,0.696
		c0.021,0.221,0.032,0.442,0.032,0.663c0,0.243-0.011,0.475-0.032,0.696c0,0.243-0.022,0.486-0.066,0.729
		c-0.022,0.221-0.066,0.453-0.133,0.696c-0.045,0.221-0.1,0.441-0.166,0.663c-0.066,0.243-0.133,0.464-0.199,0.663
		c-0.088,0.221-0.188,0.442-0.298,0.663c-0.089,0.199-0.188,0.398-0.298,0.597c-0.111,0.199-0.232,0.387-0.365,0.563
		c-0.11,0.199-0.243,0.387-0.397,0.563c-0.133,0.177-0.265,0.354-0.397,0.53c-0.155,0.177-0.32,0.343-0.498,0.497
		c-0.154,0.155-0.32,0.31-0.497,0.464c-0.154,0.155-0.32,0.299-0.497,0.431c-0.199,0.133-0.387,0.265-0.563,0.397
		c-0.198,0.133-0.397,0.254-0.597,0.365c0.133,0.154,0.266,0.309,0.398,0.463c0.132,0.155,0.265,0.321,0.397,0.498
		c0.154,0.199,0.298,0.419,0.431,0.663c0.154,0.221,0.287,0.442,0.398,0.663c0.132,0.221,0.254,0.453,0.363,0.696
		c0.111,0.243,0.211,0.486,0.299,0.729c0.11,0.221,0.199,0.464,0.266,0.729c0.088,0.243,0.154,0.486,0.198,0.729
		c0.066,0.243,0.122,0.497,0.166,0.762c0.022,0.265,0.056,0.52,0.099,0.763c0,0.265,0.012,0.53,0.034,0.795
		c0,0.265-0.011,0.531-0.034,0.796c-0.021,0.265-0.043,0.53-0.065,0.795c-0.044,0.265-0.1,0.52-0.165,0.762
		c-0.045,0.265-0.111,0.53-0.199,0.795c-0.066,0.243-0.145,0.497-0.232,0.762c-0.11,0.243-0.221,0.486-0.332,0.729
		c-0.109,0.221-0.221,0.453-0.331,0.696c-0.265,0.442-0.552,0.873-0.862,1.292c-0.33,0.397-0.674,0.785-1.027,1.16
		c-0.375,0.354-0.773,0.685-1.193,0.995c-0.221,0.155-0.441,0.31-0.662,0.464c-0.221,0.132-0.441,0.265-0.663,0.397
		c-0.221,0.11-0.442,0.221-0.663,0.332c-0.243,0.132-0.486,0.243-0.729,0.332c-0.221,0.088-0.453,0.177-0.696,0.265
		s-0.497,0.166-0.763,0.232c-0.242,0.066-0.497,0.132-0.762,0.199c-0.244,0.044-0.498,0.088-0.763,0.133
		c-0.265,0.044-0.53,0.077-0.796,0.099c-0.265,0.022-0.53,0.033-0.795,0.033h-0.398c-0.198,0-0.408,0-0.629,0
		c-0.199-0.022-0.409-0.044-0.631-0.066c-0.265-0.022-0.541-0.055-0.828-0.099c-0.266-0.044-0.541-0.088-0.828-0.132
		c-0.818-0.199-1.613-0.454-2.387-0.763c-0.752-0.309-1.459-0.685-2.121-1.127c-0.663-0.42-1.281-0.895-1.856-1.425
		c-0.552-0.552-1.061-1.127-1.524-1.724c-0.465-0.641-0.861-1.314-1.193-2.022c-0.332-0.729-0.586-1.469-0.763-2.22
		c-0.177-0.751-0.276-1.514-0.298-2.287c0-0.796,0.088-1.591,0.266-2.387c0.044-0.265,0.109-0.53,0.198-0.795
		c0.066-0.243,0.144-0.486,0.231-0.729c0.111-0.243,0.222-0.486,0.332-0.729c0.111-0.243,0.221-0.475,0.332-0.696
		c0.132-0.221,0.275-0.442,0.43-0.663c0.133-0.221,0.277-0.431,0.432-0.63c0.332-0.419,0.674-0.807,1.027-1.16
		c0.376-0.354,0.773-0.685,1.193-0.995c0.199-0.177,0.408-0.332,0.63-0.464c0.221-0.155,0.452-0.287,0.696-0.397
		c0.176-0.111,0.364-0.21,0.563-0.299c0.178-0.11,0.365-0.199,0.564-0.265c-0.398-0.574-0.74-1.171-1.027-1.79
		c-0.288-0.619-0.509-1.26-0.664-1.922c-0.154-0.663-0.231-1.337-0.231-2.022c-0.022-0.685,0.044-1.37,0.198-2.055
		c0.066-0.243,0.133-0.475,0.199-0.696c0.045-0.243,0.111-0.475,0.199-0.696s0.188-0.431,0.299-0.63
		c0.088-0.199,0.188-0.409,0.297-0.629c0.111-0.199,0.232-0.387,0.365-0.563c0.133-0.199,0.266-0.387,0.398-0.563
		c0.132-0.177,0.275-0.354,0.431-0.53c0.154-0.177,0.319-0.343,0.497-0.497c0.154-0.177,0.32-0.332,0.497-0.464
		c0.177-0.155,0.354-0.298,0.53-0.431c0.177-0.133,0.364-0.265,0.563-0.398c0.198-0.132,0.397-0.254,0.597-0.365
		s0.397-0.221,0.596-0.331c0.222-0.088,0.432-0.177,0.631-0.265c0.198-0.088,0.408-0.166,0.629-0.232
		c0.222-0.066,0.442-0.132,0.663-0.199c0.222-0.066,0.442-0.122,0.663-0.166c0.243-0.044,0.475-0.088,0.696-0.132
		c0.221-0.022,0.452-0.044,0.696-0.066c0.242-0.022,0.475-0.033,0.695-0.033h0.365c0.176,0,0.354,0,0.529,0
		c0.178,0,0.365,0.011,0.564,0.033c0.221,0.022,0.453,0.056,0.695,0.1c0.266,0.022,0.52,0.066,0.764,0.133
		c0.221,0.044,0.452,0.099,0.695,0.166s0.475,0.144,0.696,0.232c0.243,0.066,0.475,0.155,0.696,0.265
		c0.221,0.088,0.43,0.177,0.629,0.265C151.674,109.137,151.885,109.248,152.083,109.358z M147.774,114.363
		c-0.132-0.022-0.265-0.055-0.397-0.1c-0.133-0.022-0.266-0.044-0.398-0.066c-0.154-0.022-0.298-0.044-0.431-0.066h-0.796
		c-0.11,0.022-0.231,0.044-0.364,0.066c-0.132,0-0.254,0.012-0.364,0.034c-0.133,0.044-0.266,0.077-0.398,0.099
		c-0.109,0.044-0.221,0.088-0.331,0.133c-0.11,0.044-0.221,0.088-0.331,0.132c-0.111,0.044-0.21,0.1-0.299,0.166
		c-0.11,0.044-0.199,0.1-0.266,0.166c-0.109,0.044-0.198,0.099-0.265,0.166c-0.089,0.066-0.165,0.133-0.231,0.199
		c-0.089,0.066-0.154,0.132-0.199,0.199c-0.088,0.066-0.154,0.144-0.199,0.232c-0.066,0.066-0.133,0.144-0.199,0.232
		c-0.043,0.088-0.088,0.177-0.132,0.265c-0.044,0.088-0.089,0.176-0.133,0.265s-0.077,0.177-0.099,0.265
		c-0.022,0.088-0.045,0.188-0.066,0.299c-0.111,0.486-0.1,0.972,0.033,1.458c0.109,0.486,0.32,0.939,0.629,1.359
		c0.089,0.11,0.188,0.232,0.299,0.365c0.088,0.088,0.188,0.188,0.298,0.298c0.11,0.11,0.232,0.21,0.364,0.298
		c0.111,0.088,0.244,0.188,0.398,0.298c0.133,0.066,0.266,0.144,0.397,0.232c0.155,0.066,0.31,0.132,0.464,0.199
		c0.155,0.066,0.31,0.122,0.465,0.166c0.176,0.044,0.354,0.088,0.529,0.132c0.133,0.022,0.266,0.044,0.398,0.066
		s0.266,0.044,0.397,0.066h0.796c0.133-0.022,0.265-0.033,0.397-0.033c0.132-0.022,0.254-0.044,0.364-0.066
		c0.133-0.044,0.254-0.078,0.365-0.1c0.11-0.044,0.231-0.077,0.364-0.099c0.11-0.044,0.21-0.1,0.298-0.166
		c0.111-0.044,0.221-0.088,0.332-0.133c0.088-0.066,0.177-0.122,0.266-0.166c0.088-0.066,0.176-0.132,0.265-0.199
		c0.066-0.066,0.144-0.133,0.231-0.199c0.066-0.066,0.133-0.132,0.199-0.199s0.133-0.144,0.199-0.232
		c0.066-0.066,0.121-0.144,0.166-0.232c0.043-0.088,0.1-0.177,0.166-0.265c0.043-0.088,0.088-0.177,0.132-0.265
		c0.022-0.088,0.056-0.177,0.099-0.265c0.023-0.088,0.045-0.188,0.066-0.298c0.022-0.088,0.034-0.177,0.034-0.265
		c0.022-0.11,0.032-0.21,0.032-0.298c0-0.11,0-0.21,0-0.298c0-0.11-0.01-0.21-0.032-0.298c-0.022-0.11-0.044-0.209-0.066-0.298
		s-0.044-0.188-0.066-0.299c-0.044-0.088-0.089-0.176-0.133-0.265s-0.077-0.177-0.1-0.265c-0.065-0.088-0.121-0.177-0.165-0.266
		c-0.066-0.088-0.122-0.177-0.166-0.265c-0.088-0.088-0.166-0.177-0.232-0.265c-0.088-0.11-0.166-0.199-0.231-0.265
		c-0.089-0.088-0.188-0.177-0.299-0.265c-0.088-0.066-0.177-0.144-0.265-0.232c-0.111-0.066-0.221-0.133-0.332-0.199
		c-0.11-0.066-0.221-0.132-0.331-0.199s-0.231-0.121-0.364-0.166c-0.111-0.066-0.232-0.122-0.365-0.166
		C148.039,114.452,147.907,114.408,147.774,114.363z M138.659,130.008c-0.11,0.088-0.21,0.177-0.298,0.265
		c-0.111,0.088-0.21,0.188-0.299,0.298c-0.088,0.088-0.176,0.188-0.265,0.298c-0.089,0.11-0.166,0.221-0.232,0.332
		c-0.089,0.11-0.154,0.221-0.198,0.332c-0.066,0.11-0.122,0.231-0.166,0.364c-0.066,0.133-0.121,0.265-0.166,0.398
		c-0.044,0.11-0.077,0.243-0.1,0.398c-0.044,0.154-0.066,0.32-0.066,0.497c-0.021,0.154-0.033,0.32-0.033,0.497
		c0,0.154,0.012,0.32,0.033,0.497c0.022,0.155,0.056,0.32,0.1,0.498c0.045,0.154,0.089,0.309,0.133,0.463
		c0.066,0.155,0.133,0.31,0.199,0.464c0.088,0.155,0.176,0.31,0.265,0.464c0.089,0.155,0.188,0.298,0.299,0.431
		c0.221,0.309,0.475,0.597,0.763,0.862c0.287,0.287,0.607,0.542,0.961,0.762c0.177,0.11,0.364,0.21,0.563,0.298
		c0.178,0.11,0.365,0.199,0.564,0.265c0.198,0.088,0.408,0.166,0.629,0.232s0.442,0.122,0.664,0.166
		c0.176,0.044,0.354,0.077,0.529,0.099c0.178,0.022,0.354,0.044,0.53,0.066l0.563,0.033l0.232-0.033h0.232
		c0.154-0.022,0.32-0.044,0.496-0.066c0.155-0.022,0.321-0.044,0.498-0.066c0.154-0.044,0.309-0.088,0.464-0.132
		c0.154-0.044,0.298-0.088,0.431-0.133c0.154-0.066,0.31-0.121,0.464-0.166c0.133-0.066,0.265-0.144,0.397-0.232
		c0.133-0.066,0.255-0.133,0.365-0.199c0.11-0.088,0.221-0.177,0.331-0.265s0.21-0.177,0.299-0.266
		c0.11-0.088,0.21-0.177,0.298-0.265c0.089-0.11,0.178-0.221,0.266-0.332c0.088-0.088,0.166-0.188,0.232-0.298
		c0.065-0.111,0.132-0.232,0.198-0.365c0.066-0.11,0.122-0.221,0.165-0.332c0.066-0.132,0.122-0.265,0.166-0.398
		c0.045-0.132,0.078-0.265,0.1-0.397c0.021-0.133,0.045-0.265,0.066-0.398c0.021-0.132,0.033-0.265,0.033-0.397s0-0.265,0-0.398
		c-0.021-0.132-0.044-0.265-0.066-0.398c-0.021-0.132-0.044-0.265-0.066-0.397c-0.044-0.133-0.088-0.265-0.133-0.397
		c-0.021-0.133-0.066-0.254-0.132-0.365c-0.044-0.132-0.1-0.254-0.166-0.364c-0.065-0.133-0.132-0.254-0.198-0.364
		c-0.089-0.133-0.166-0.254-0.232-0.365c-0.111-0.11-0.21-0.221-0.299-0.331c-0.11-0.132-0.221-0.254-0.331-0.365
		s-0.222-0.221-0.331-0.332c-0.133-0.11-0.266-0.21-0.398-0.298s-0.265-0.177-0.397-0.265c-0.155-0.11-0.298-0.199-0.431-0.265
		c-0.154-0.088-0.31-0.166-0.465-0.232c-0.154-0.066-0.32-0.133-0.496-0.199c-0.155-0.044-0.32-0.1-0.498-0.166
		c-0.176-0.044-0.354-0.088-0.529-0.133c-0.178-0.022-0.354-0.055-0.531-0.1c-0.177-0.022-0.354-0.033-0.53-0.033l-0.265-0.033
		h-0.53l-0.232,0.033c-0.177,0-0.343,0.011-0.497,0.033s-0.32,0.055-0.497,0.1c-0.155,0.022-0.31,0.055-0.464,0.099
		c-0.155,0.044-0.31,0.1-0.465,0.166c-0.132,0.044-0.275,0.099-0.431,0.166c-0.132,0.066-0.265,0.144-0.397,0.232
		c-0.133,0.066-0.254,0.132-0.365,0.199C138.881,129.864,138.77,129.941,138.659,130.008z M95.538,205.479
		c0.597,0.552,1.193,1.094,1.79,1.624l-51.806,52.602c-0.044,0.044-0.099,0.088-0.166,0.133c-0.044,0.044-0.1,0.088-0.166,0.133
		c-0.044,0.043-0.099,0.076-0.166,0.099s-0.132,0.044-0.199,0.066c-0.066,0-0.133,0.011-0.199,0.033c-0.088,0-0.166,0-0.232,0
		c-0.066,0-0.132,0-0.199,0c-0.132-0.022-0.265-0.044-0.398-0.066c-0.11-0.022-0.232-0.056-0.364-0.1
		c-0.155-0.044-0.299-0.089-0.431-0.133c-0.132-0.065-0.276-0.132-0.431-0.198c-0.155-0.066-0.298-0.145-0.431-0.232
		c-0.154-0.088-0.309-0.177-0.464-0.266c-0.155-0.109-0.298-0.209-0.431-0.298c-0.155-0.132-0.31-0.254-0.464-0.364
		c-0.155-0.133-0.31-0.266-0.464-0.398c-0.155-0.132-0.298-0.265-0.431-0.397c-0.132-0.132-0.254-0.265-0.364-0.397
		c-0.133-0.111-0.243-0.232-0.332-0.365c-0.111-0.132-0.221-0.265-0.332-0.397c-0.088-0.132-0.177-0.254-0.265-0.364
		c-0.088-0.133-0.177-0.266-0.265-0.398c-0.066-0.109-0.132-0.231-0.199-0.363c-0.088-0.133-0.155-0.255-0.199-0.365
		c-0.066-0.133-0.122-0.254-0.166-0.365c-0.066-0.133-0.122-0.254-0.166-0.363c-0.022-0.111-0.056-0.222-0.1-0.332
		c-0.022-0.111-0.044-0.221-0.066-0.332c-0.022-0.11-0.033-0.209-0.033-0.298c0-0.133,0-0.243,0-0.331
		c0.022-0.111,0.044-0.211,0.066-0.299c0.044-0.088,0.088-0.166,0.133-0.232c0.044-0.088,0.099-0.165,0.166-0.231
		c0.044-0.11,0.11-0.21,0.199-0.298c0.066-0.089,0.144-0.166,0.232-0.232l52.104-51.641l1.226,1.293l-50.878,50.48
		c0.022,0.088,0.056,0.176,0.1,0.265c0.022,0.089,0.055,0.177,0.099,0.265c0.044,0.089,0.088,0.178,0.132,0.266
		c0.044,0.066,0.088,0.144,0.133,0.232l0.133,0.232l0.629,0.895l0.166,0.166l0.265,0.331c0.088,0.089,0.177,0.165,0.266,0.231
		c0.066,0.066,0.122,0.122,0.166,0.166l51.044-51.176C94.355,204.33,94.941,204.904,95.538,205.479z M175.947,175.218
		c-0.861,0.486-1.723,0.938-2.585,1.358c-0.884,0.42-1.778,0.818-2.685,1.193l1.193,4.906c1.104-0.398,2.188-0.829,3.248-1.293
		c1.061-0.486,2.1-1.006,3.115-1.559L175.947,175.218z M138.726,180.223c0.84,0.465,1.702,0.906,2.585,1.326
		c0.885,0.397,1.779,0.773,2.686,1.127c0.928,0.331,1.867,0.629,2.817,0.895c0.972,0.287,1.955,0.53,2.95,0.729
		c0.972,0.199,1.977,0.354,3.016,0.465c1.017,0.133,2.055,0.221,3.115,0.266l0.332-3.846c-0.376,0.045-0.752,0.066-1.127,0.066
		c-0.376,0.022-0.752,0.045-1.127,0.066c-0.376,0-0.74,0-1.094,0c-0.398,0-0.785,0-1.16,0c-0.376-0.021-0.752-0.044-1.127-0.066
		c-0.375,0-0.752-0.021-1.127-0.066c-0.376-0.021-0.74-0.055-1.094-0.1c-0.376-0.021-0.752-0.066-1.127-0.133
		c-0.376-0.043-0.74-0.088-1.094-0.132c-0.354-0.066-0.707-0.122-1.061-0.166c-0.376-0.065-0.74-0.132-1.094-0.198
		c-0.354-0.089-0.707-0.166-1.061-0.232c-0.354-0.088-0.697-0.177-1.027-0.266c-0.354-0.088-0.697-0.176-1.027-0.265
		c-0.354-0.11-0.697-0.21-1.028-0.298c-0.354-0.111-0.696-0.221-1.027-0.332c-0.331-0.11-0.663-0.232-0.995-0.364
		c-0.331-0.11-0.651-0.232-0.961-0.364c-0.331-0.133-0.651-0.266-0.961-0.398c-0.309-0.133-0.618-0.266-0.928-0.397
		c-0.332-0.155-0.641-0.298-0.928-0.431c0.729,0.574,1.48,1.127,2.254,1.657C137.102,179.272,137.908,179.759,138.726,180.223z"/>
	<path fill-rule="evenodd" clip-rule="evenodd" fill="#496531" d="M196.564,77.804l5.602,1.989l-5.602,1.956l-0.166,5.933
		l-3.613-4.706l-5.668,1.657l3.348-4.839l-3.348-4.906l5.668,1.658l3.613-4.707L196.564,77.804z M218.805,91.725l0.165,5.966
		l5.603,1.988l-5.603,1.956l-0.165,5.933l-3.613-4.706l-5.668,1.657l3.348-4.84l-3.348-4.905l5.668,1.657L218.805,91.725z
		 M220.693,122.352l5.668,1.657l3.613-4.707l0.166,5.966l5.602,1.989l-5.602,1.956l-0.166,5.933l-3.613-4.707l-5.668,1.657
		l3.348-4.839L220.693,122.352z M229.146,158.546l-0.165,5.933l-3.613-4.707l-5.668,1.658l3.348-4.84l-3.348-4.905l5.668,1.657
		l3.613-4.707l0.165,5.966l5.602,1.988L229.146,158.546z M218.273,192.486l-3.612-4.707l-5.668,1.658l3.348-4.84l-3.348-4.905
		l5.668,1.657l3.612-4.707l0.166,5.967l5.602,1.988l-5.602,1.956L218.273,192.486z M198.852,203.457l-0.166,5.934l-3.613-4.707
		l-5.668,1.657l3.348-4.839l-3.348-4.905l5.668,1.657l3.613-4.707l0.166,5.967l5.602,1.988L198.852,203.457z M131.069,70.579
		l-3.348-4.905l5.668,1.657l3.612-4.707l0.166,5.966l5.602,1.989l-5.602,1.956l-0.166,5.933l-3.612-4.707l-5.668,1.657
		L131.069,70.579z M114.132,75.882l0.166,5.966l5.602,1.988l-5.602,1.956l-0.166,5.933l-3.612-4.707l-5.668,1.657l3.348-4.839
		l-3.348-4.905l5.668,1.657L114.132,75.882z M158.977,68.921l-3.347-4.905l5.667,1.657l3.613-4.707l0.166,5.966l5.602,1.989
		l-5.602,1.956l-0.166,5.933l-3.613-4.707l-5.667,1.657L158.977,68.921z M76.048,125.036l5.667,1.657l3.613-4.707l0.166,5.966
		l5.602,1.989l-5.602,1.956l-0.166,5.933l-3.613-4.707l-5.667,1.657l3.348-4.839L76.048,125.036z M96.499,105.679l-0.166,5.933
		l-3.613-4.707l-5.668,1.658l3.348-4.839l-3.348-4.905l5.668,1.657l3.613-4.707l0.166,5.966l5.602,1.989L96.499,105.679z
		 M86.655,148.635l0.166,5.966l5.602,1.988l-5.602,1.956l-0.166,5.933l-3.613-4.707l-5.668,1.658l3.348-4.84l-3.348-4.905
		l5.668,1.657L86.655,148.635z M97.924,173.162l0.166,5.967l5.602,1.988l-5.602,1.956l-0.166,5.933l-3.613-4.707l-5.667,1.658
		l3.348-4.84l-3.348-4.904l5.667,1.656L97.924,173.162z M122.584,202.33l-5.602,1.956l-0.166,5.933l-3.612-4.707l-5.668,1.658
		l3.348-4.84l-3.348-4.904l5.668,1.656l3.612-4.707l0.166,5.967L122.584,202.33z M149.1,213.6l-5.602,1.956l-0.165,5.933
		l-3.612-4.707l-5.668,1.658l3.348-4.84l-3.348-4.905l5.668,1.657l3.612-4.707l0.165,5.967L149.1,213.6z M172.633,210.285
		l5.602,1.988l-5.602,1.956l-0.166,5.933l-3.611-4.706l-5.669,1.657l3.349-4.84l-3.349-4.904l5.669,1.656l3.611-4.706
		L172.633,210.285z"/>
</g>
</svg>
