<?xml version="1.0" encoding="utf-8"?>
<!-- Generator: Adobe Illustrator 16.0.0, SVG Export Plug-In . SVG Version: 6.00 Build 0)  -->
<!DOCTYPE svg PUBLIC "-//W3C//DTD SVG 1.1//EN" "http://www.w3.org/Graphics/SVG/1.1/DTD/svg11.dtd">
<svg version="1.1" id="Layer_1" xmlns="http://www.w3.org/2000/svg" xmlns:xlink="http://www.w3.org/1999/xlink" x="0px" y="0px"
	 width="300px" height="300px" viewBox="0 0 300 300" enable-background="new 0 0 300 300" xml:space="preserve">
<g>
	<path fill-rule="evenodd" clip-rule="evenodd" fill="#090B0A" d="M17.137,117.754l0.015-0.285l58.402,5.347l49.206,4.135
		c-0.19,0.808-0.337,1.634-0.442,2.48L17.137,117.754z M18.819,147.126l-0.042-0.3l58.188-7.399l47.196-6.346
		c0.019,0.846,0.08,1.673,0.185,2.481L18.819,147.126z M224.997,119.564l0.999,4.819l32.766-3.665l-0.756-5.503L224.997,119.564z
		 M283.415,118.139l-113.911,12.476c-0.086-1.227-0.261-2.415-0.528-3.565l113.527-15.271l0.085,1.497L283.415,118.139z
		 M282.218,140.168l-0.242,1.483l-0.229,4.933l-112.257-12.234c0.048-0.637,0.071-1.288,0.071-1.953c0-0.57-0.02-1.136-0.057-1.697
		L282.218,140.168z M224.385,135.363l-0.071,4.919l32.78,3.494l0.471-5.547L224.385,135.363z"/>
	<path fill-rule="evenodd" clip-rule="evenodd" fill="#464445" d="M14.813,118.181c-0.361-0.361-0.318-0.85,0.129-1.468l2.238,0.129
		l-0.142,1.597L14.813,118.181z M18.677,146.214l0.2,1.597l-2.224,0.228c-0.438-0.285-0.504-0.775-0.2-1.468L18.677,146.214z
		 M131.491,128.79c-0.266,0.447-0.485,0.898-0.656,1.355c-0.266,0.694-0.419,1.397-0.457,2.11c-0.057,0.855,0.052,1.725,0.328,2.609
		c0.323,1.045,0.87,2.105,1.64,3.179c-1.075-0.931-1.807-1.967-2.196-3.108c-0.143-0.399-0.243-0.813-0.299-1.241
		c-0.058-0.476-0.062-0.932-0.015-1.369c0.076-0.779,0.309-1.517,0.699-2.21C130.792,129.66,131.11,129.217,131.491,128.79z
		 M146.233,128.22c0.01,0.371,0.133,0.694,0.372,0.969l1.225,0.585l1.17-0.699l0.285-0.884c-0.02-0.361-0.143-0.646-0.371-0.855
		c-0.295-0.2-0.693-0.29-1.198-0.271c-0.513,0.019-0.869,0.142-1.068,0.37C146.353,127.664,146.215,127.925,146.233,128.22z
		 M145.506,126.508c0.57-0.389,1.292-0.603,2.167-0.642c0.865-0.038,1.588,0.114,2.168,0.457c0.542,0.409,0.826,0.936,0.854,1.583
		c0.029,0.589-0.095,1.036-0.37,1.341c-0.219,0.446-0.604,0.855-1.155,1.226c0.827,0.409,1.393,0.823,1.696,1.24
		c0.381,0.514,0.585,1.094,0.614,1.74c0.037,0.931-0.257,1.64-0.885,2.125c-0.646,0.532-1.473,0.817-2.48,0.855
		c-0.95,0.038-1.83-0.175-2.638-0.641c-0.608-0.571-0.927-1.288-0.956-2.153c-0.028-0.57,0.128-1.126,0.471-1.668
		c0.343-0.456,0.865-0.917,1.568-1.383c-0.599-0.323-1.017-0.699-1.255-1.126c-0.294-0.275-0.451-0.67-0.47-1.183
		C144.798,127.554,145.022,126.964,145.506,126.508z M146.618,134.736c0.305,0.275,0.785,0.399,1.44,0.37
		c0.646-0.028,1.107-0.189,1.383-0.484c0.352-0.313,0.519-0.722,0.499-1.226c-0.027-0.504-0.189-0.889-0.484-1.155l-1.554-1.055
		l-1.497,1.184c-0.276,0.295-0.399,0.693-0.371,1.197C146.053,134.07,146.248,134.46,146.618,134.736z M141.614,146.143
		c4.734,0.095,8.389-0.347,10.964-1.326c3.375-1.321,6.184-3.845,8.428-7.571c0.816,0.409,1.824,1.168,3.022,2.281
		c-1.91,4.296-4.795,7.4-8.654,9.311c-3.708,1.758-8.052,2.272-13.033,1.54C142.293,149.294,142.052,147.882,141.614,146.143z
		 M224.997,119.564l33.009-4.349l0.756,5.503l-32.766,3.665L224.997,119.564z M161.732,128.034c0.143-2.224-0.39-4.229-1.597-6.017
		c-1.331-2.053-3.213-3.469-5.646-4.249c2.263,0.124,4.202,1.203,5.817,3.237c1.626,2.053,2.157,4.387,1.597,7.001
		c-0.075,0.342-0.171,0.688-0.285,1.041C161.676,128.705,161.714,128.367,161.732,128.034z M282.218,140.168l6.872,0.599
		c0.771,1.122,1.097,2.301,0.983,3.536c-0.019,0.105-0.032,0.205-0.043,0.299c-0.152,0.998-0.584,1.816-1.298,2.453
		c-0.064,0.095-0.175,0.181-0.327,0.256l-6.659-0.727l0.229-4.933L282.218,140.168z M283.415,118.139l-0.827-4.862l-0.085-1.497
		l6.844-0.913c0.988,0.931,1.56,2.015,1.711,3.251c0.009,0.095,0.019,0.185,0.029,0.271c0.064,1.018-0.177,1.916-0.729,2.695
		c-0.038,0.105-0.128,0.209-0.271,0.314L283.415,118.139z M224.385,135.363l33.18,2.866l-0.471,5.547l-32.78-3.494L224.385,135.363z
		"/>
	<path fill-rule="evenodd" clip-rule="evenodd" fill="#2D2C2A" d="M147.517,122.245c-2.461,0.105-4.496,1.07-6.102,2.895
		c-1.673,1.825-2.462,3.931-2.367,6.317c0.104,2.471,1.069,4.51,2.895,6.116c1.758,1.655,3.869,2.429,6.33,2.325
		c2.462-0.104,4.496-1.061,6.103-2.866c1.654-1.749,2.429-3.859,2.324-6.331c-0.095-2.385-1.046-4.42-2.852-6.103
		C152.09,122.925,149.979,122.141,147.517,122.245z M130.863,118.866c0.18-0.228,0.366-0.447,0.556-0.656
		c3.906-4.25,8.745-6.498,14.515-6.745c5.76-0.247,10.765,1.583,15.015,5.49c3.184,2.918,5.245,6.368,6.188,10.351
		c0.305,1.321,0.489,2.705,0.556,4.15c0.038,0.922,0.023,1.82-0.042,2.695c-0.343,4.639-2.153,8.75-5.433,12.333
		c-3.907,4.249-8.741,6.498-14.502,6.744c-5.769,0.247-10.778-1.583-15.028-5.489c-0.323-0.285-0.623-0.575-0.898-0.869
		c-2.025-2.054-3.522-4.354-4.492-6.901c-0.57-1.455-0.96-2.985-1.169-4.591c-0.104-0.694-0.17-1.402-0.199-2.125
		c-0.009-0.133-0.014-0.267-0.014-0.399c-0.029-1.112,0.024-2.186,0.157-3.222c0.104-0.865,0.261-1.706,0.471-2.524
		c0-0.01,0-0.019,0-0.029C127.294,124.084,128.733,121.347,130.863,118.866z M131.491,128.79c-0.38,0.428-0.699,0.871-0.956,1.326
		c-0.39,0.694-0.623,1.431-0.699,2.21c-0.047,0.437-0.043,0.893,0.015,1.369c0.057,0.428,0.156,0.841,0.299,1.241
		c0.389,1.141,1.121,2.177,2.196,3.108c-0.77-1.074-1.317-2.134-1.64-3.179c-0.276-0.884-0.385-1.754-0.328-2.609
		c0.038-0.713,0.19-1.417,0.457-2.11C131.005,129.688,131.225,129.236,131.491,128.79z M141.614,146.143
		c0.438,1.739,0.68,3.151,0.727,4.234c4.981,0.732,9.325,0.219,13.033-1.54c3.859-1.911,6.744-5.015,8.654-9.311
		c-1.198-1.112-2.206-1.872-3.022-2.281c-2.244,3.726-5.053,6.25-8.428,7.571C150.003,145.796,146.348,146.238,141.614,146.143z
		 M161.732,128.034c-0.019,0.333-0.057,0.67-0.114,1.013c0.114-0.353,0.21-0.699,0.285-1.041c0.561-2.614,0.029-4.948-1.597-7.001
		c-1.615-2.034-3.555-3.113-5.817-3.237c2.434,0.78,4.315,2.196,5.646,4.249C161.343,123.805,161.875,125.811,161.732,128.034z"/>
	<path fill-rule="evenodd" clip-rule="evenodd" fill="#E4DAD9" d="M147.517,122.245c2.463-0.104,4.573,0.68,6.331,2.353
		c1.806,1.683,2.757,3.717,2.852,6.103c0.104,2.472-0.67,4.583-2.324,6.331c-1.606,1.806-3.641,2.762-6.103,2.866
		c-2.461,0.104-4.572-0.67-6.33-2.325c-1.826-1.606-2.79-3.645-2.895-6.116c-0.096-2.386,0.693-4.492,2.367-6.317
		C143.021,123.315,145.055,122.35,147.517,122.245z M146.618,134.736c-0.37-0.275-0.565-0.666-0.584-1.169
		c-0.028-0.504,0.095-0.902,0.371-1.197l1.497-1.184l1.554,1.055c0.295,0.266,0.457,0.651,0.484,1.155
		c0.02,0.504-0.147,0.913-0.499,1.226c-0.275,0.295-0.736,0.457-1.383,0.484C147.403,135.135,146.923,135.011,146.618,134.736z
		 M145.506,126.508c-0.484,0.456-0.708,1.045-0.67,1.769c0.019,0.513,0.176,0.908,0.47,1.183c0.238,0.428,0.656,0.803,1.255,1.126
		c-0.703,0.466-1.226,0.927-1.568,1.383c-0.342,0.542-0.499,1.098-0.471,1.668c0.029,0.865,0.347,1.583,0.956,2.153
		c0.808,0.466,1.688,0.679,2.638,0.641c1.008-0.038,1.834-0.323,2.48-0.855c0.628-0.485,0.922-1.193,0.885-2.125
		c-0.029-0.646-0.233-1.227-0.614-1.74c-0.304-0.417-0.869-0.832-1.696-1.24c0.552-0.37,0.937-0.779,1.155-1.226
		c0.275-0.305,0.399-0.751,0.37-1.341c-0.028-0.646-0.313-1.174-0.854-1.583c-0.58-0.343-1.303-0.494-2.168-0.457
		C146.799,125.905,146.076,126.119,145.506,126.508z M146.233,128.22c-0.019-0.294,0.119-0.556,0.414-0.785
		c0.199-0.228,0.556-0.351,1.068-0.37c0.505-0.019,0.903,0.071,1.198,0.271c0.229,0.209,0.352,0.494,0.371,0.855L149,129.075
		l-1.17,0.699l-1.225-0.585C146.366,128.914,146.243,128.59,146.233,128.22z"/>
</g>
</svg>
