<?xml version="1.0" encoding="utf-8"?>
<!-- Generator: Adobe Illustrator 16.0.0, SVG Export Plug-In . SVG Version: 6.00 Build 0)  -->
<!DOCTYPE svg PUBLIC "-//W3C//DTD SVG 1.1//EN" "http://www.w3.org/Graphics/SVG/1.1/DTD/svg11.dtd">
<svg version="1.1" id="Layer_1" xmlns="http://www.w3.org/2000/svg" xmlns:xlink="http://www.w3.org/1999/xlink" x="0px" y="0px"
	 width="300px" height="300px" viewBox="0 0 300 300" enable-background="new 0 0 300 300" xml:space="preserve">
<g>
	<path fill-rule="evenodd" clip-rule="evenodd" fill="#0A485E" d="M71.906,85.681c9.838,1.145,18.605,4.656,26.299,10.533
		c2.531,1.987,4.962,4.226,7.294,6.714c10.454,11.227,15.416,24.505,14.887,39.835c-0.043,0.987-0.093,1.967-0.15,2.939l-1.33,8.452
		l-0.257,0.58c-1.573,5.977-4.097,11.611-7.572,16.904l-0.129,0.32c-0.4,0.529-0.794,1.058-1.18,1.587
		c-0.186,0.229-0.365,0.458-0.536,0.687c-1.903,2.403-4.033,4.706-6.393,6.908c-11.169,10.425-24.39,15.373-39.664,14.845
		c-15.288-0.529-28.152-6.393-38.592-17.591C14.172,167.227,9.231,153.998,9.76,138.71c0.014-0.372,0.035-0.736,0.064-1.095
		c0.758-14.801,6.593-27.293,17.504-37.475c3.619-3.361,7.451-6.164,11.498-8.409l6.8-3.24l9.975-2.51
		c0.243-0.028,0.486-0.057,0.729-0.085c3.446-0.515,7.015-0.708,10.705-0.579c0.414,0.014,0.829,0.029,1.244,0.043
		C69.496,85.432,70.704,85.539,71.906,85.681z M102.281,96.043l-2.124-1.523c1.916,0.485,4.169,0.736,6.757,0.75
		c2.76,0.029,5.62-0.192,8.58-0.665c6.951-1.144,13.05-3.396,18.298-6.757c4.963-3.189,10.776-4.727,17.44-4.612
		c4.491,0.071,9.046,0.851,13.664,2.338c0.144,0.057,0.286,0.114,0.43,0.171c2.617,0.887,6.607,2.667,11.97,5.342
		c2.831,1.401,5.405,2.724,7.723,3.969c-2.546,0.271-5.605,1.143-9.182,2.616c-2.804,1.144-6.22,2.774-10.254,4.892
		c-1.673,0.887-3.189,1.694-4.548,2.424c-2.417,1.301-4.326,2.331-5.727,3.088c-3.833,2.06-6.873,3.554-9.118,4.484
		c-4.547,1.901-10.711,2.388-18.491,1.458c-2.446-0.286-4.898-0.693-7.358-1.223l-2.939-0.729
		c-1.788-3.675-5.199-7.701-10.233-12.077C105.613,98.617,103.983,97.301,102.281,96.043z M50.389,128.799
		c-4.205,3.733-6.4,8.288-6.586,13.665c-0.186,5.363,1.688,10.062,5.621,14.093c4.119,4.034,9.045,6.149,14.78,6.351
		c5.92,0.2,11.069-1.559,15.445-5.277c4.219-3.747,6.421-8.302,6.607-13.664c0.186-5.377-1.694-10.075-5.642-14.094
		c-4.119-3.847-9.138-5.87-15.059-6.07C59.635,123.587,54.58,125.252,50.389,128.799z M91.04,93.061
		c-6.893-3.433-14.494-5.292-22.802-5.578c-15.174-0.529-28.216,4.197-39.127,14.18c-2.718,2.46-5.121,5.063-7.208,7.809
		c-6.407,8.38-9.804,18.076-10.189,29.088c-0.1,2.774-0.015,5.563,0.257,8.366L99.75,99.132c1.959,1.544,3.804,3.239,5.534,5.084
		c-0.015-0.043-0.043-0.086-0.086-0.129C100.894,99.481,96.174,95.807,91.04,93.061z M18.426,166.748
		c0.029,0.056,0.057,0.113,0.086,0.171c0-0.016,0-0.028,0-0.043C18.483,166.833,18.455,166.791,18.426,166.748z M23.296,173.955
		c0.958,1.23,1.995,2.438,3.11,3.626c10.14,10.897,22.646,16.604,37.519,17.117c14.859,0.516,27.73-4.305,38.613-14.459
		c4.59-4.29,8.259-9.009,11.004-14.157c1.116-2.088,2.088-4.24,2.917-6.456c1.902-5.234,2.954-10.848,3.154-16.839l-80.422,43.695
		l-0.923,0.624C32.634,183.601,27.643,179.218,23.296,173.955z M189.932,119.768c-2.531,0.401-4.819,0.944-6.864,1.63
		c-4.317,1.402-9.31,4.133-14.973,8.195c-4.82,3.446-9.933,7.729-15.338,12.849c-3.233,3.06-6.572,6.407-10.018,10.04
		c-8.552,9.066-17.512,16.466-26.879,22.202c-2.917,1.788-5.706,3.297-8.366,4.525c-1.316,0.616-2.338,1.06-3.067,1.33
		c6.936-5.247,12.005-11.747,15.209-19.498c2.56-6.207,3.89-13.086,3.99-20.637c0.058-5.377-0.515-10.819-1.715-16.325
		c-0.373-1.716-0.787-3.332-1.245-4.849l-0.558-1.78c5.306,2.317,10.354,3.654,15.145,4.012c4.376,0.314,8.795-0.193,13.257-1.522
		c3.061-0.901,6.45-2.289,10.168-4.162c0.844-0.429,1.716-0.887,2.617-1.373c2.346-1.288,6.907-3.983,13.686-8.088
		c6.294-3.818,12.801-4.97,19.522-3.454c4.69,1.102,9.352,3.468,13.985,7.101c0.388,0.315,1.095,1.065,2.124,2.252
		c0.429,0.5,0.83,0.951,1.201,1.352c0.672,0.744,1.272,1.358,1.802,1.845c3.074,2.818,6.665,4.59,10.77,5.32
		c2.503,0.443,6.084,0.193,10.747-0.751c2.431-0.486,6.599-1.537,12.505-3.153c1.002-0.272,2.661-0.75,4.979-1.438
		c2.173-0.572,4.218-0.965,6.135-1.18c4.362-0.514,8.873-0.149,13.536,1.094c1.03,0.258,2.08,0.58,3.152,0.965
		c4.719,1.531,8.73,3.854,12.035,6.972c1.659,1.559,2.853,2.967,3.582,4.227c-3.632-1.388-8.495-2.01-14.587-1.867
		c-2.218,0.071-4.405,0.222-6.563,0.451c-2.375,0.257-4.713,0.607-7.016,1.05c-0.629,0.13-1.579,0.351-2.853,0.666
		c-1.716,0.429-2.881,0.722-3.497,0.879c-3.146,0.744-6.034,1.216-8.668,1.416c-7.979,0.602-15.694-1.029-23.145-4.891
		c-4.577-2.388-9.354-4.068-14.33-5.041c-3.431-0.686-6.957-1.059-10.575-1.115C196.489,118.989,193.193,119.239,189.932,119.768z
		 M199.972,126.59c1.659-0.014,3.396,0.05,5.213,0.193c1.215,0.1,2.423,0.251,3.623,0.451c4.521,0.657,8.911,1.844,13.173,3.561
		c0.616,0.228,2.303,0.914,5.063,2.059c2.731,1.101,4.82,1.809,6.264,2.124c3.749,0.844,7.31,1.315,10.683,1.416
		c4.591,0.143,8.603-0.422,12.035-1.694c-2.274,2.216-4.761,4.562-7.465,7.035c-5.407,4.935-9.146,8.031-11.221,9.288
		c-0.413,0.244-1.1,0.694-2.058,1.353c-1.002,0.687-1.804,1.223-2.402,1.608c-2.188,1.358-4.348,2.388-6.48,3.09
		c-6.262,2.13-13.677,2.015-22.244-0.344c-0.616-0.173-1.208-0.33-1.781-0.473c-5.09-1.387-9.237-2.431-12.441-3.131
		c-4.819-1.06-9.194-1.752-13.129-2.081c-4.433-0.359-8.745-0.301-12.935,0.172c-4.476,0.529-9.06,1.566-13.75,3.11h-0.021
		l0.923-1.008c0.8-0.887,1.687-1.796,2.659-2.726c3.089-3.045,6.407-5.906,9.954-8.58c4.977-3.746,10.032-6.857,15.165-9.331
		c6.465-3.074,12.893-5.07,19.285-5.985L199.972,126.59z M98.956,195.45c-8.051,2.416-16.667,2.994-25.849,1.736
		c-1.673-0.229-3.304-0.509-4.891-0.837c8.237-0.414,15.853-2.523,22.846-6.327c8.152-2.188,14.895-4.712,20.229-7.572
		c3.704-1.975,7.58-4.32,11.626-7.037c2.145-1.473,4.562-3.16,7.25-5.062c1.016-0.674,2.953-2.045,5.813-4.119
		c2.889-2.003,5.614-3.654,8.173-4.955c1.645-0.829,3.282-1.559,4.912-2.189c6.021-2.272,12.027-3.109,18.02-2.509
		c7.465,0.744,16.074,2.89,25.827,6.436c2.674,0.957,5.121,1.896,7.337,2.81c1.845,0.773,3.533,1.524,5.063,2.252
		c-1.774-0.486-3.539-0.899-5.298-1.243c-8.61-1.716-17.119-2.087-25.527-1.115c-7.395,0.857-14.416,2.725-21.066,5.599
		c-0.915,0.386-3.554,1.644-7.915,3.776c-0.215,0.1-0.436,0.207-0.665,0.32c-5.992,2.917-10.805,5.242-14.437,6.972
		C116.403,188.978,105.92,193.333,98.956,195.45z"/>
	<path fill-rule="evenodd" clip-rule="evenodd" fill="#090B0A" d="M93.464,89.286c2.875,0.973,4.706,1.573,5.492,1.802
		c1.859,0.572,3.504,0.979,4.934,1.223c3.361,0.586,6.9,0.443,10.618-0.429c4.09-1.016,9.367-3.125,15.832-6.328
		c5.278-2.589,10.583-4.133,15.917-4.634c4.619-0.429,9.396-0.072,14.33,1.073c1.673,0.4,3.418,0.907,5.234,1.522
		c2.46,0.815,5.049,1.823,7.766,3.024c1.687,0.758,3.711,1.716,6.071,2.875c1.315,0.644,3.26,1.595,5.836,2.853
		c2.343,1.144,4.631,2.153,6.863,3.025c1.13,0.443,2.01,0.779,2.639,1.008l-4.871,2.725l1.781,0.279
		c1.502,0.286,3.04,0.687,4.613,1.201c4.962,1.602,9.295,4.047,12.998,7.336c0.814,0.716,1.81,1.616,2.982,2.703
		c0.644,0.602,1.353,1.266,2.124,1.996c1.845,1.602,3.546,2.775,5.105,3.518c1.959,0.915,4.111,1.38,6.457,1.394
		c2.631-0.014,5.713-0.572,9.244-1.673c5.836-1.831,10.477-3.154,13.923-3.969c5.765-1.331,10.126-1.802,13.085-1.416
		c3.733,0.53,7.201,1.31,10.404,2.338c2.288,0.744,4.442,1.623,6.457,2.639c3.862,1.931,7.137,4.319,9.826,7.165
		c1.93,2.031,3.468,4.197,4.61,6.5c0.571,1.145,0.952,2.074,1.138,2.789c-6.665-1.473-12.176-2.224-16.539-2.252
		c-2.989-0.015-5.871,0.35-8.645,1.094c-0.286,0.085-0.579,0.179-0.88,0.279c-2.303,0.701-4.69,1.852-7.164,3.453
		c-2.245,1.473-4.741,3.433-7.487,5.878c-1.13,0.987-3.446,3.154-6.951,6.5c-2.717,2.589-4.847,4.512-6.393,5.771
		c-4.305,3.404-8.9,5.95-13.792,7.637c-3.876,1.346-7.858,2.11-11.948,2.296c-2.904,0.143-5.715-0.008-8.432-0.451
		c-0.857-0.171-1.644-0.344-2.358-0.514l-0.837-0.236l1.8,0.88c1.461,0.8,2.861,1.659,4.207,2.573
		c4.26,2.947,7.099,6.077,8.515,9.397c0.088,0.128-0.944-0.065-3.089-0.581c-3.374-0.857-6.2-1.509-8.473-1.952
		c-2.474-0.486-4.863-0.885-7.165-1.2c-6.68-0.915-12.691-1.073-18.041-0.472c-6.578,0.742-12.17,1.637-16.774,2.682
		c-4.162,0.972-8.238,2.272-12.228,3.903c-1.917,0.787-4.512,1.945-7.788,3.474c-1.301,0.645-2.725,1.338-4.269,2.082
		c-6.735,3.29-12.127,5.856-16.174,7.703c-5.463,2.458-9.425,4.16-11.885,5.104c-4.833,1.816-9.618,3.13-14.351,3.946
		c-5.834,1.016-12.063,1.387-18.685,1.115c-7.536-0.285-15.795-1.423-24.776-3.41c-6.264-1.388-12.106-3.533-17.526-6.436
		c-5.034-2.703-9.553-5.985-13.558-9.848c-3.775-3.631-6.929-7.593-9.459-11.883c-2.432-4.148-4.148-8.352-5.149-12.614
		c-2.131-9.095-2.567-17.561-1.309-25.398c1.43-9.009,5.105-17.34,11.026-24.991c3.646-4.691,7.815-8.673,12.506-11.948
		c4.505-3.118,9.382-5.521,14.63-7.208c5.12-1.645,10.482-2.56,16.089-2.746c5.52-0.201,11.098,0.314,16.732,1.544
		C82.888,85.996,87.958,87.426,93.464,89.286z M102.281,96.043c1.702,1.258,3.332,2.574,4.891,3.947
		c5.034,4.375,8.445,8.401,10.233,12.077l2.939,0.729c2.459,0.53,4.912,0.937,7.358,1.223c7.779,0.93,13.944,0.443,18.491-1.458
		c2.245-0.93,5.285-2.424,9.118-4.484c1.4-0.757,3.31-1.788,5.727-3.088c1.358-0.729,2.875-1.537,4.548-2.424
		c4.034-2.117,7.45-3.748,10.254-4.892c3.576-1.473,6.636-2.345,9.182-2.616c-2.317-1.245-4.892-2.568-7.723-3.969
		c-5.362-2.675-9.353-4.455-11.97-5.342c-0.144-0.057-0.286-0.114-0.43-0.171c-4.618-1.488-9.173-2.267-13.664-2.338
		c-6.664-0.115-12.478,1.423-17.44,4.612c-5.249,3.361-11.348,5.614-18.298,6.757c-2.96,0.473-5.82,0.694-8.58,0.665
		c-2.588-0.015-4.841-0.265-6.757-0.75L102.281,96.043z M71.906,85.681c-1.202-0.143-2.41-0.25-3.625-0.321
		c-0.415-0.014-0.83-0.029-1.244-0.043c-3.69-0.129-7.258,0.064-10.705,0.579c-0.243,0.029-0.486,0.057-0.729,0.085l-9.975,2.51
		l-6.8,3.24c-4.047,2.245-7.879,5.048-11.498,8.409c-10.912,10.182-16.747,22.674-17.504,37.475
		c-0.029,0.359-0.05,0.723-0.064,1.095c-0.529,15.288,4.412,28.516,14.823,39.685c10.44,11.198,23.304,17.062,38.592,17.591
		c15.273,0.528,28.495-4.42,39.664-14.845c2.36-2.202,4.49-4.505,6.393-6.908c0.171-0.229,0.35-0.457,0.536-0.687
		c0.386-0.529,0.779-1.058,1.18-1.587l0.129-0.32c3.475-5.293,5.999-10.928,7.572-16.904l0.257-0.58l1.33-8.452
		c0.057-0.972,0.107-1.952,0.15-2.939c0.528-15.33-4.434-28.609-14.887-39.835c-2.332-2.488-4.763-4.727-7.294-6.714
		C90.511,90.337,81.744,86.826,71.906,85.681z M65.599,133.819c-0.472,0.444-0.723,1.008-0.751,1.695
		c-0.028,0.715,0.208,1.466,0.708,2.252c0.472,0.758,1.43,1.645,2.875,2.66c0.386-0.458,0.672-0.98,0.858-1.566
		c0.186-0.6,0.293-1.258,0.322-1.973c0.043-1.244-0.186-2.209-0.686-2.896c-0.401-0.516-0.958-0.788-1.674-0.815
		C66.607,133.147,66.056,133.361,65.599,133.819z M62.724,133.625c1.159-0.972,2.703-1.423,4.634-1.351
		c1.874,0.071,3.289,0.564,4.248,1.479c0.972,0.916,1.437,1.988,1.395,3.218c-0.029,0.93-0.329,1.738-0.901,2.425
		c-0.557,0.686-1.423,1.293-2.596,1.823c1.345,1.073,2.267,2.052,2.767,2.938c0.487,0.887,0.715,1.888,0.687,3.004
		c-0.057,1.587-0.693,2.91-1.909,3.969c-1.23,1.043-2.867,1.53-4.913,1.458c-1.931-0.057-3.404-0.586-4.419-1.587
		c-1.03-1-1.516-2.188-1.458-3.561c0.029-1.044,0.365-1.952,1.008-2.725c0.629-0.772,1.673-1.458,3.132-2.06
		c-1.53-1.244-2.495-2.245-2.896-3.003c-0.415-0.772-0.601-1.652-0.558-2.639C60.986,135.699,61.58,134.57,62.724,133.625z
		 M63.925,147.57c-0.043,0.901,0.043,1.673,0.257,2.316c0.201,0.614,0.515,1.065,0.944,1.351c0.415,0.286,0.851,0.436,1.309,0.451
		c0.701,0.015,1.301-0.222,1.802-0.708c0.5-0.502,0.765-1.202,0.793-2.103c0.057-1.873-1.145-3.697-3.604-5.47
		c-0.3,0.258-0.515,0.494-0.644,0.708c-0.214,0.329-0.408,0.815-0.579,1.458C64.032,146.205,63.939,146.869,63.925,147.57z
		 M18.426,166.748c0.029,0.043,0.057,0.085,0.086,0.128c0,0.015,0,0.027,0,0.043C18.483,166.861,18.455,166.804,18.426,166.748z
		 M98.956,195.45c6.965-2.117,17.447-6.473,31.448-13.065c3.632-1.729,8.445-4.055,14.437-6.972c0.229-0.113,0.45-0.221,0.665-0.32
		c4.361-2.133,7-3.391,7.915-3.776c6.65-2.874,13.672-4.741,21.066-5.599c8.408-0.972,16.917-0.601,25.527,1.115
		c1.759,0.344,3.523,0.757,5.298,1.243c-1.529-0.728-3.218-1.479-5.063-2.252c-2.216-0.913-4.663-1.853-7.337-2.81
		c-9.753-3.546-18.362-5.691-25.827-6.436c-5.992-0.601-11.998,0.236-18.02,2.509c-1.63,0.631-3.268,1.36-4.912,2.189
		c-2.56,1.301-5.285,2.952-8.173,4.955c-2.86,2.074-4.798,3.445-5.813,4.119c-2.688,1.901-5.105,3.589-7.25,5.062
		c-4.047,2.717-7.923,5.063-11.626,7.037c-5.334,2.86-12.077,5.385-20.229,7.572c-6.993,3.804-14.608,5.913-22.846,6.327
		c1.587,0.328,3.217,0.608,4.891,0.837C82.288,198.444,90.904,197.866,98.956,195.45z M199.972,126.59l-1.889,0.107
		c-6.393,0.915-12.82,2.911-19.285,5.985c-5.133,2.474-10.188,5.585-15.165,9.331c-3.547,2.674-6.865,5.535-9.954,8.58
		c-0.973,0.93-1.859,1.839-2.659,2.726l-0.923,1.008h0.021c4.69-1.544,9.274-2.581,13.75-3.11c4.189-0.473,8.502-0.531,12.935-0.172
		c3.935,0.329,8.31,1.021,13.129,2.081c3.204,0.7,7.352,1.744,12.441,3.131c0.573,0.143,1.165,0.3,1.781,0.473
		c8.567,2.358,15.982,2.474,22.244,0.344c2.133-0.702,4.292-1.731,6.48-3.09c0.599-0.386,1.4-0.922,2.402-1.608
		c0.958-0.658,1.645-1.108,2.058-1.353c2.075-1.257,5.813-4.354,11.221-9.288c2.704-2.474,5.19-4.819,7.465-7.035
		c-3.433,1.272-7.444,1.837-12.035,1.694c-3.373-0.1-6.934-0.572-10.683-1.416c-1.443-0.315-3.532-1.022-6.264-2.124
		c-2.76-1.145-4.446-1.832-5.063-2.059c-4.262-1.717-8.652-2.904-13.173-3.561c-1.2-0.2-2.408-0.351-3.623-0.451
		C203.367,126.64,201.631,126.576,199.972,126.59z M189.932,119.768c3.262-0.529,6.558-0.779,9.89-0.75
		c3.618,0.057,7.145,0.429,10.575,1.115c4.977,0.973,9.753,2.653,14.33,5.041c7.45,3.861,15.166,5.492,23.145,4.891
		c2.634-0.2,5.522-0.671,8.668-1.416c0.616-0.157,1.781-0.45,3.497-0.879c1.273-0.315,2.224-0.536,2.853-0.666
		c2.303-0.443,4.641-0.793,7.016-1.05c2.158-0.229,4.346-0.379,6.563-0.451c6.092-0.144,10.955,0.479,14.587,1.867
		c-0.729-1.259-1.923-2.667-3.582-4.227c-3.305-3.118-7.316-5.441-12.035-6.972c-1.072-0.386-2.122-0.708-3.152-0.965
		c-4.663-1.244-9.174-1.608-13.536-1.094c-1.917,0.215-3.962,0.608-6.135,1.18c-2.317,0.687-3.977,1.166-4.979,1.438
		c-5.906,1.616-10.074,2.667-12.505,3.153c-4.663,0.944-8.244,1.194-10.747,0.751c-4.104-0.729-7.695-2.502-10.77-5.32
		c-0.529-0.486-1.13-1.101-1.802-1.845c-0.371-0.4-0.772-0.851-1.201-1.352c-1.029-1.187-1.736-1.938-2.124-2.252
		c-4.634-3.632-9.295-5.999-13.985-7.101c-6.722-1.516-13.229-0.365-19.522,3.454c-6.778,4.104-11.34,6.8-13.686,8.088
		c-0.901,0.486-1.773,0.943-2.617,1.373c-3.718,1.873-7.107,3.261-10.168,4.162c-4.462,1.329-8.881,1.837-13.257,1.522
		c-4.791-0.357-9.839-1.695-15.145-4.012l0.558,1.78c0.458,1.517,0.872,3.133,1.245,4.849c1.201,5.505,1.773,10.947,1.715,16.325
		c-0.1,7.551-1.43,14.43-3.99,20.637c-3.204,7.751-8.273,14.251-15.209,19.498c0.729-0.271,1.751-0.714,3.067-1.33
		c2.66-1.229,5.449-2.737,8.366-4.525c9.367-5.736,18.328-13.136,26.879-22.202c3.446-3.633,6.785-6.98,10.018-10.04
		c5.405-5.12,10.518-9.403,15.338-12.849c5.663-4.062,10.655-6.793,14.973-8.195C185.112,120.712,187.4,120.169,189.932,119.768z"/>
	<path fill-rule="evenodd" clip-rule="evenodd" fill="#D7DCDF" d="M50.389,128.799c4.19-3.547,9.246-5.212,15.167-4.998
		c5.921,0.2,10.94,2.223,15.059,6.07c3.947,4.019,5.828,8.717,5.642,14.094c-0.186,5.362-2.388,9.917-6.607,13.664
		c-4.376,3.719-9.525,5.478-15.445,5.277c-5.735-0.201-10.661-2.316-14.78-6.351c-3.933-4.031-5.806-8.73-5.621-14.093
		C43.989,137.087,46.185,132.532,50.389,128.799z M63.925,147.57c0.014-0.701,0.107-1.365,0.279-1.995
		c0.171-0.643,0.365-1.13,0.579-1.458c0.129-0.215,0.343-0.451,0.644-0.708c2.459,1.773,3.661,3.597,3.604,5.47
		c-0.029,0.901-0.293,1.601-0.793,2.103c-0.501,0.486-1.101,0.722-1.802,0.708c-0.458-0.016-0.894-0.165-1.309-0.451
		c-0.429-0.286-0.743-0.737-0.944-1.351C63.968,149.243,63.882,148.471,63.925,147.57z M62.724,133.625
		c-1.144,0.944-1.737,2.074-1.78,3.39c-0.042,0.987,0.143,1.866,0.558,2.639c0.4,0.758,1.366,1.759,2.896,3.003
		c-1.458,0.601-2.502,1.288-3.132,2.06c-0.643,0.772-0.979,1.68-1.008,2.725c-0.058,1.373,0.429,2.561,1.458,3.561
		c1.015,1.001,2.488,1.53,4.419,1.587c2.045,0.072,3.683-0.415,4.913-1.458c1.215-1.059,1.852-2.382,1.909-3.969
		c0.029-1.116-0.2-2.117-0.687-3.004c-0.5-0.887-1.422-1.866-2.767-2.938c1.173-0.529,2.039-1.137,2.596-1.823
		c0.572-0.687,0.873-1.495,0.901-2.425c0.042-1.229-0.422-2.302-1.395-3.218c-0.958-0.915-2.374-1.409-4.248-1.479
		C65.427,132.203,63.882,132.654,62.724,133.625z M65.599,133.819c0.458-0.458,1.008-0.671,1.651-0.643
		c0.715,0.028,1.273,0.3,1.674,0.815c0.5,0.686,0.729,1.651,0.686,2.896c-0.028,0.715-0.136,1.373-0.322,1.973
		c-0.186,0.586-0.472,1.109-0.858,1.566c-1.445-1.016-2.403-1.902-2.875-2.66c-0.5-0.786-0.736-1.537-0.708-2.252
		C64.876,134.827,65.126,134.263,65.599,133.819z M91.04,93.061c5.135,2.746,9.854,6.42,14.159,11.026
		c0.042,0.043,0.071,0.086,0.086,0.129c-1.73-1.845-3.575-3.54-5.534-5.084l-87.781,47.794c-0.271-2.803-0.357-5.592-0.257-8.366
		c0.385-11.012,3.782-20.708,10.189-29.088c2.087-2.746,4.49-5.349,7.208-7.809c10.911-9.982,23.954-14.709,39.127-14.18
		C76.546,87.77,84.147,89.628,91.04,93.061z M23.296,173.955c4.347,5.263,9.338,9.646,14.973,13.15l0.923-0.624l80.422-43.695
		c-0.2,5.992-1.251,11.605-3.154,16.839c-0.829,2.216-1.802,4.368-2.917,6.456c-2.746,5.148-6.414,9.867-11.004,14.157
		c-10.883,10.154-23.754,14.975-38.613,14.459c-14.874-0.514-27.379-6.22-37.519-17.117
		C25.291,176.394,24.254,175.186,23.296,173.955z"/>
</g>
</svg>
