<?xml version="1.0" encoding="utf-8"?>
<!-- Generator: Adobe Illustrator 16.0.0, SVG Export Plug-In . SVG Version: 6.00 Build 0)  -->
<!DOCTYPE svg PUBLIC "-//W3C//DTD SVG 1.1//EN" "http://www.w3.org/Graphics/SVG/1.1/DTD/svg11.dtd">
<svg version="1.1" id="Layer_1" xmlns="http://www.w3.org/2000/svg" xmlns:xlink="http://www.w3.org/1999/xlink" x="0px" y="0px"
	 width="300px" height="300px" viewBox="0 0 300 300" enable-background="new 0 0 300 300" xml:space="preserve">
<g>
	<path fill-rule="evenodd" clip-rule="evenodd" fill="#1C0C11" d="M60.022,22.496l59.636,59.077V81.6h-2.532L58.769,23.748
		L60.022,22.496z M52.53,15.617h0.107c0.053,0,0.107,0,0.16,0c0.053,0,0.106,0.009,0.16,0.027c0.07,0.018,0.133,0.045,0.187,0.08
		c0.052,0.036,0.106,0.071,0.159,0.107c0.053,0.053,0.098,0.106,0.134,0.16l0.159,0.133l5.039,5.012l-5.039,5.039H53.57
		l-4.878-4.932l-0.16-0.187c-0.072-0.053-0.134-0.115-0.187-0.187c-0.053-0.053-0.107-0.116-0.16-0.187
		c-0.036-0.07-0.063-0.15-0.08-0.239c-0.018-0.054-0.027-0.116-0.027-0.187c0-0.089,0-0.169,0-0.24c0-0.071,0.009-0.151,0.027-0.24
		c0.017-0.089,0.044-0.178,0.08-0.266c0.035-0.071,0.071-0.161,0.107-0.267c0.035-0.089,0.071-0.178,0.106-0.267
		c0.053-0.088,0.107-0.186,0.16-0.293c0.054-0.089,0.116-0.187,0.186-0.293c0.054-0.089,0.117-0.187,0.187-0.293
		c0.072-0.107,0.151-0.205,0.24-0.294c0.071-0.106,0.151-0.204,0.24-0.293c0.089-0.107,0.186-0.204,0.293-0.293
		c0.09-0.089,0.187-0.178,0.293-0.266c0.09-0.09,0.187-0.178,0.294-0.267c0.089-0.071,0.187-0.142,0.293-0.214
		c0.089-0.071,0.187-0.142,0.294-0.213c0.106-0.053,0.204-0.115,0.293-0.187c0.106-0.052,0.204-0.097,0.293-0.133
		c0.088-0.053,0.178-0.097,0.267-0.133c0.106-0.035,0.204-0.062,0.293-0.08c0.088-0.035,0.168-0.062,0.239-0.08
		C52.353,15.626,52.441,15.617,52.53,15.617z M51.33,18.683l-0.133,0.16l3.972,3.999l1.333-1.333l-3.865-3.839
		c-0.107,0.054-0.204,0.107-0.294,0.16c-0.106,0.071-0.203,0.143-0.293,0.213c-0.088,0.072-0.177,0.142-0.266,0.214
		c-0.089,0.089-0.17,0.169-0.24,0.239C51.455,18.567,51.384,18.63,51.33,18.683z M57.409,25.108l56.358,56.465l-0.027,0.027h-5.545
		l-53.266-54.04L57.409,25.108z M62.634,131.8l-5.651,4.078l2.186,6.666h-0.027l-5.651-4.132l-5.652,4.132l2.159-6.666l-5.651-4.078
		v-0.027l6.984,0.027l2.16-6.665l2.159,6.665l6.984-0.027V131.8z M56.636,256.7l-0.293,0.293c-0.054,0.053-0.107,0.097-0.161,0.133
		c-0.053,0.036-0.106,0.08-0.16,0.133c-0.071,0.036-0.133,0.063-0.187,0.08c-0.052,0.036-0.115,0.063-0.186,0.08
		c-0.071,0.018-0.142,0.027-0.213,0.027c-0.089,0.017-0.168,0.026-0.24,0.026c-0.071,0-0.142-0.01-0.213-0.026
		c-0.125,0-0.249-0.019-0.374-0.054c-0.142-0.018-0.275-0.054-0.4-0.106c-0.142-0.036-0.284-0.08-0.426-0.134
		c-0.142-0.053-0.284-0.115-0.427-0.187c-0.16-0.089-0.311-0.169-0.453-0.239c-0.159-0.09-0.311-0.188-0.453-0.294
		c-0.159-0.089-0.32-0.187-0.48-0.294c-0.159-0.123-0.311-0.248-0.453-0.372c-0.16-0.124-0.32-0.258-0.48-0.399
		c-0.142-0.125-0.293-0.268-0.453-0.428c-0.124-0.123-0.24-0.249-0.346-0.372c-0.125-0.125-0.241-0.259-0.347-0.4
		c-0.107-0.124-0.213-0.249-0.32-0.373c-0.089-0.143-0.178-0.275-0.267-0.4c-0.106-0.124-0.195-0.249-0.266-0.373
		c-0.089-0.142-0.169-0.275-0.24-0.399c-0.071-0.125-0.134-0.249-0.186-0.374c-0.071-0.124-0.134-0.249-0.187-0.373
		c-0.054-0.124-0.098-0.24-0.133-0.347c-0.036-0.124-0.072-0.239-0.107-0.347c-0.036-0.125-0.063-0.24-0.08-0.346
		c-0.018-0.107-0.027-0.205-0.027-0.294c0-0.124,0-0.24,0-0.347c0.018-0.106,0.044-0.204,0.08-0.293
		c0.036-0.089,0.071-0.178,0.106-0.267c0.054-0.089,0.106-0.169,0.16-0.24c0.071-0.089,0.142-0.169,0.213-0.24
		c0.071-0.106,0.151-0.195,0.24-0.266l63.37-62.783h2.56v0.026l-63.423,62.89c0.053,0.178,0.124,0.355,0.213,0.533
		c0.071,0.178,0.16,0.347,0.266,0.506c0.09,0.178,0.187,0.338,0.294,0.48c0.106,0.16,0.213,0.312,0.32,0.453
		c0.107,0.143,0.213,0.275,0.32,0.4c0.106,0.124,0.205,0.23,0.293,0.319l0.24,0.24c0.071,0.07,0.124,0.134,0.16,0.187l65.875-66.035
		h6.825v0.026l-69.289,70.274C56.813,256.495,56.725,256.593,56.636,256.7z M145.439,50.435l-4.506-7.278V43.13l6.318,2.239
		L145.439,50.435z M146.052,51.901c0.302,0.107,0.613,0.223,0.933,0.347c0.302,0.125,0.613,0.231,0.933,0.319
		c0.32,0.107,0.64,0.205,0.959,0.293c0.942,0.284,1.893,0.516,2.853,0.693c0.941,0.178,1.893,0.294,2.853,0.346l1.066,0.027
		c0.284,0,0.578-0.009,0.88-0.027c0.302-0.017,0.604-0.035,0.906-0.052c0.942-0.09,1.884-0.259,2.826-0.508
		c0.942-0.248,1.884-0.577,2.826-0.985c0.924-0.428,1.856-0.952,2.799-1.574c0.907-0.604,1.822-1.314,2.746-2.132l0.027-0.027
		l0.025,0.027c0.907,0.818,1.822,1.528,2.746,2.132c0.925,0.622,1.857,1.146,2.8,1.574c0.924,0.408,1.856,0.737,2.799,0.985
		c0.942,0.249,1.894,0.418,2.853,0.508c0.284,0.017,0.578,0.035,0.88,0.052c0.302,0.018,0.604,0.027,0.906,0.027l1.04-0.027
		c0.96-0.052,1.92-0.168,2.88-0.346c0.941-0.178,1.893-0.409,2.852-0.693c0.303-0.088,0.613-0.187,0.934-0.293
		c0.319-0.088,0.64-0.194,0.959-0.319c0.303-0.124,0.614-0.24,0.934-0.347l-6.532,10.637h-32.15l-6.559-10.637H146.052z
		 M153.224,63.578h30.845v0.026l-1.6,2.613H154.85l-1.626-2.613V63.578z M168.66,38.944l0.025,0.027l4.133,5.146l-4.133,3.306
		l-0.025,0.027l-0.027-0.027l-4.159-3.306l4.159-5.146L168.66,38.944z M196.386,43.156l-4.506,7.278l-1.813-5.065l6.291-2.239
		L196.386,43.156z M217.739,81.573l59.638-59.077l1.254,1.252L220.271,81.6h-2.532V81.573z M223.632,81.573l56.331-56.465h0.027
		l2.479,2.453L229.203,81.6h-5.571V81.573z M289,18.976c0.036,0.089,0.071,0.178,0.107,0.267c0.036,0.106,0.071,0.196,0.106,0.267
		c0.018,0.088,0.035,0.177,0.053,0.266s0.036,0.169,0.054,0.24c0,0.071,0,0.151,0,0.24c0,0.071-0.008,0.133-0.026,0.187
		c-0.018,0.089-0.054,0.169-0.106,0.239c-0.036,0.071-0.08,0.134-0.134,0.187c-0.054,0.071-0.115,0.133-0.187,0.187l-5.038,5.119
		h-0.027l-5.039-5.039l5.332-5.305c0.036-0.036,0.089-0.071,0.16-0.107c0.054-0.035,0.116-0.062,0.187-0.08
		c0.106-0.018,0.214-0.027,0.32-0.027h0.106c0.089,0,0.178,0.009,0.267,0.027c0.071,0.018,0.151,0.045,0.239,0.08
		c0.09,0.018,0.178,0.045,0.268,0.08c0.106,0.036,0.204,0.08,0.293,0.133c0.089,0.036,0.187,0.081,0.294,0.133
		c0.088,0.072,0.186,0.134,0.293,0.187c0.089,0.071,0.186,0.142,0.293,0.213c0.09,0.072,0.187,0.143,0.293,0.214
		c0.106,0.089,0.205,0.177,0.294,0.267c0.105,0.088,0.204,0.177,0.293,0.266s0.177,0.186,0.267,0.293
		c0.089,0.089,0.178,0.187,0.267,0.293c0.071,0.089,0.151,0.187,0.239,0.294c0.071,0.106,0.134,0.204,0.188,0.293
		c0.07,0.106,0.133,0.204,0.187,0.293C288.895,18.79,288.947,18.888,289,18.976z M284.762,17.67l-3.865,3.839l1.333,1.333
		l3.972-3.999c-0.053-0.071-0.133-0.151-0.24-0.24l-0.346-0.346c-0.071-0.054-0.134-0.107-0.187-0.16
		c-0.09-0.054-0.17-0.107-0.24-0.16c-0.071-0.053-0.143-0.098-0.214-0.134C284.904,17.75,284.832,17.706,284.762,17.67z
		 M274.737,131.773l6.985,0.027l2.159-6.665l2.159,6.665l6.985-0.027l-5.652,4.105l2.159,6.666l-5.651-4.132l-5.651,4.132
		l2.159-6.666l-5.652-4.078V131.773z M288.974,249.395c0.054,0.089,0.098,0.169,0.134,0.24c0.053,0.089,0.098,0.178,0.133,0.267
		c0.018,0.089,0.036,0.187,0.054,0.293c0.019,0.054,0.026,0.106,0.026,0.16c0,0.053,0,0.115,0,0.187
		c-0.018,0.089-0.036,0.187-0.054,0.294c-0.018,0.105-0.035,0.221-0.053,0.346c-0.035,0.107-0.07,0.223-0.106,0.347
		c-0.054,0.106-0.098,0.223-0.134,0.347c-0.053,0.124-0.115,0.249-0.187,0.373c-0.071,0.125-0.133,0.249-0.187,0.374
		c-0.071,0.124-0.151,0.258-0.239,0.399c-0.089,0.124-0.179,0.249-0.267,0.373c-0.09,0.125-0.179,0.258-0.268,0.4
		c-0.106,0.124-0.213,0.249-0.32,0.373c-0.105,0.142-0.222,0.275-0.346,0.4c-0.125,0.123-0.249,0.249-0.374,0.372
		c-0.142,0.16-0.293,0.303-0.453,0.428c-0.142,0.142-0.293,0.275-0.453,0.399c-0.159,0.124-0.311,0.249-0.452,0.372
		c-0.161,0.107-0.32,0.205-0.48,0.294c-0.16,0.106-0.311,0.204-0.453,0.294c-0.143,0.07-0.293,0.15-0.453,0.239
		c-0.143,0.071-0.285,0.134-0.427,0.187c-0.16,0.054-0.302,0.098-0.427,0.134c-0.143,0.053-0.274,0.089-0.399,0.106
		c-0.124,0.035-0.249,0.054-0.373,0.054c-0.071,0.017-0.143,0.026-0.214,0.026c-0.088,0-0.169-0.01-0.24-0.026
		c-0.071,0-0.142-0.01-0.212-0.027c-0.072-0.018-0.134-0.044-0.188-0.08c-0.071-0.018-0.134-0.044-0.187-0.08
		c-0.124-0.07-0.231-0.159-0.32-0.266l-0.159-0.134l-69.688-70.728v-0.026h6.824l65.876,66.035c0.054-0.053,0.125-0.133,0.214-0.24
		l0.586-0.64l0.188-0.267c0.07-0.089,0.15-0.188,0.239-0.293c0.071-0.106,0.143-0.204,0.214-0.294
		c0.053-0.106,0.115-0.222,0.187-0.347c0.071-0.105,0.132-0.213,0.187-0.319c0.053-0.124,0.106-0.239,0.159-0.347
		c0.054-0.124,0.099-0.249,0.134-0.373l-63.423-62.89v-0.026h2.559l63.37,62.783c0.071,0.07,0.151,0.159,0.24,0.266
		C288.831,249.226,288.902,249.306,288.974,249.395z M202.544,202.874c-0.036-0.16-0.08-0.311-0.134-0.454
		c-0.07-0.159-0.15-0.311-0.239-0.452c-0.16-0.284-0.356-0.543-0.587-0.773c-0.231-0.231-0.488-0.427-0.773-0.586
		c-0.142-0.09-0.293-0.17-0.454-0.24c-0.141-0.054-0.293-0.107-0.452-0.16c-0.16-0.036-0.329-0.063-0.507-0.081
		c-0.16-0.035-0.329-0.052-0.506-0.052h-0.24c-0.089,0.017-0.169,0.026-0.24,0.026c0.16-0.09,0.329-0.16,0.507-0.214
		c0.16-0.07,0.328-0.134,0.507-0.187c0.178-0.053,0.354-0.098,0.532-0.133c0.179-0.054,0.364-0.089,0.561-0.107
		c0.178-0.035,0.364-0.053,0.56-0.053c0.178-0.018,0.364-0.026,0.561-0.026c0.533,0,1.048,0.053,1.546,0.159
		c0.497,0.089,0.969,0.231,1.412,0.427c0.463,0.195,0.89,0.436,1.281,0.72c0.408,0.267,0.79,0.569,1.146,0.906
		c0.338,0.356,0.648,0.729,0.934,1.12c0.266,0.408,0.497,0.845,0.693,1.307c0.178,0.462,0.319,0.941,0.426,1.439
		c0.106,0.479,0.16,0.986,0.16,1.52c0,0.604-0.071,1.2-0.214,1.786c-0.143,0.568-0.337,1.11-0.586,1.626
		c-0.267,0.516-0.577,0.996-0.934,1.44c-0.373,0.443-0.791,0.835-1.252,1.173c-0.445,0.355-0.934,0.648-1.467,0.879
		c-0.516,0.249-1.066,0.437-1.653,0.561v-0.32c0-0.213-0.009-0.427-0.026-0.64c-0.018-0.214-0.045-0.427-0.08-0.64
		c-0.018-0.213-0.054-0.418-0.106-0.613c-0.035-0.214-0.08-0.427-0.133-0.64c-0.071-0.196-0.144-0.392-0.214-0.586
		c-0.07-0.196-0.15-0.383-0.24-0.561c-0.07-0.195-0.159-0.383-0.267-0.56c-0.089-0.178-0.186-0.355-0.293-0.534
		c-0.106-0.177-0.222-0.346-0.347-0.506c-0.106-0.16-0.231-0.32-0.373-0.48c-0.124-0.159-0.258-0.319-0.4-0.479
		c-0.142-0.143-0.284-0.284-0.426-0.427c0.124-0.053,0.239-0.106,0.346-0.159c0.125-0.054,0.24-0.116,0.348-0.188
		c0.105-0.07,0.204-0.142,0.293-0.213c0.106-0.071,0.204-0.151,0.293-0.24c0.09-0.089,0.178-0.186,0.267-0.293
		c0.071-0.089,0.151-0.187,0.24-0.294c0.07-0.106,0.133-0.213,0.186-0.319c0.071-0.106,0.134-0.223,0.188-0.347
		c0.036-0.106,0.08-0.222,0.133-0.347c0.036-0.124,0.071-0.248,0.106-0.373c0.018-0.124,0.036-0.257,0.054-0.4
		c0.018-0.142,0.027-0.275,0.027-0.399c0-0.178-0.01-0.347-0.027-0.506C202.641,203.202,202.597,203.033,202.544,202.874z
		 M199.397,208.738c0.462,0.462,0.862,0.979,1.2,1.547c0.32,0.568,0.577,1.173,0.772,1.813c0.179,0.658,0.268,1.333,0.268,2.026
		c0,0.64-0.081,1.253-0.241,1.84c-0.142,0.604-0.346,1.173-0.612,1.706c-0.284,0.516-0.622,0.995-1.014,1.44
		c-0.391,0.443-0.817,0.843-1.279,1.199c-0.479,0.354-1.004,0.648-1.572,0.879c-0.552,0.231-1.129,0.391-1.733,0.48
		c-0.018-0.693-0.115-1.359-0.293-2c-0.16-0.639-0.383-1.253-0.667-1.839c-0.302-0.586-0.648-1.129-1.039-1.626
		c-0.409-0.498-0.862-0.96-1.36-1.387h0.027c0.142-0.035,0.284-0.071,0.427-0.106c0.142-0.036,0.284-0.089,0.426-0.16
		c0.143-0.053,0.275-0.116,0.4-0.187c0.124-0.07,0.249-0.151,0.373-0.24c0.125-0.089,0.24-0.178,0.347-0.267
		c0.106-0.106,0.213-0.213,0.32-0.319c0.089-0.125,0.177-0.24,0.266-0.348c0.071-0.124,0.143-0.258,0.213-0.399
		c0.072-0.124,0.134-0.258,0.188-0.4c0.053-0.142,0.097-0.284,0.133-0.426c0.036-0.16,0.063-0.311,0.08-0.453
		c0.018-0.16,0.036-0.32,0.054-0.48c-0.018-0.533-0.125-1.03-0.32-1.492c-0.195-0.463-0.471-0.862-0.826-1.2
		c-0.355-0.355-0.756-0.631-1.199-0.826c-0.462-0.196-0.96-0.293-1.493-0.293H191c-0.089,0-0.169,0.009-0.24,0.026v-0.026
		c0.16-0.071,0.329-0.144,0.507-0.214c0.159-0.07,0.329-0.133,0.507-0.187c0.178-0.053,0.355-0.098,0.533-0.133
		c0.195-0.036,0.382-0.072,0.56-0.106c0.177-0.018,0.364-0.036,0.56-0.054s0.392-0.027,0.587-0.027c0.692,0,1.368,0.099,2.025,0.294
		c0.641,0.159,1.244,0.408,1.813,0.746C198.42,207.877,198.936,208.276,199.397,208.738z M195.079,203.647v0.239
		c0,0.427,0.063,0.827,0.187,1.199v0.027c-0.16-0.036-0.32-0.063-0.48-0.08c-0.16,0-0.319-0.009-0.479-0.026
		c0.196-0.729,0.489-1.404,0.88-2.025L195.079,203.647z M189.854,201.008c0.657,0.516,1.218,1.119,1.68,1.813
		c0.444,0.711,0.773,1.476,0.986,2.293v0.026c-0.267,0.036-0.524,0.09-0.773,0.16c-0.266,0.07-0.524,0.15-0.772,0.24
		c-0.249,0.07-0.489,0.168-0.72,0.293c-0.231,0.089-0.463,0.195-0.694,0.319c-0.443,0.249-0.861,0.543-1.252,0.88
		c-0.409,0.32-0.782,0.667-1.12,1.04c-0.338,0.392-0.648,0.8-0.933,1.227c-0.267,0.444-0.498,0.906-0.694,1.386h-0.025
		c-0.071-0.195-0.151-0.39-0.24-0.586c-0.106-0.196-0.213-0.382-0.32-0.56c-0.106-0.178-0.213-0.355-0.319-0.533
		c-0.124-0.178-0.249-0.348-0.373-0.507c-0.143-0.16-0.284-0.319-0.427-0.479c-0.143-0.161-0.284-0.312-0.427-0.454
		c0.143-0.053,0.276-0.106,0.399-0.159c0.125-0.036,0.249-0.09,0.374-0.16c0.105-0.071,0.223-0.143,0.347-0.214
		c0.106-0.07,0.213-0.15,0.319-0.239c0.089-0.09,0.187-0.179,0.293-0.267c0.09-0.107,0.17-0.213,0.24-0.32
		c0.089-0.106,0.169-0.222,0.24-0.347c0.071-0.106,0.133-0.222,0.187-0.346c0.071-0.125,0.124-0.249,0.16-0.374
		c0.054-0.142,0.098-0.275,0.134-0.4c0.017-0.142,0.035-0.283,0.053-0.426s0.026-0.284,0.026-0.427c0-0.178-0.009-0.347-0.026-0.506
		c-0.036-0.179-0.071-0.348-0.107-0.507c-0.053-0.16-0.105-0.311-0.159-0.454c-0.07-0.159-0.151-0.311-0.24-0.452
		c-0.16-0.284-0.355-0.543-0.586-0.773c-0.231-0.231-0.489-0.427-0.774-0.586c-0.141-0.09-0.283-0.17-0.425-0.24
		c-0.161-0.054-0.321-0.107-0.481-0.16c-0.159-0.036-0.328-0.063-0.507-0.081c-0.159-0.035-0.328-0.052-0.506-0.052h-0.24
		c-0.07,0.017-0.15,0.026-0.239,0.026c0.159-0.09,0.329-0.16,0.507-0.214c0.159-0.07,0.328-0.134,0.507-0.187
		c0.177-0.053,0.354-0.098,0.533-0.133c0.178-0.054,0.363-0.089,0.559-0.107c0.178-0.035,0.365-0.053,0.561-0.053
		c0.195-0.018,0.382-0.026,0.56-0.026c0.907,0,1.75,0.142,2.533,0.426C188.467,200.092,189.196,200.492,189.854,201.008z
		 M187.534,210.125l-0.053,0.214l-0.081,0.692c0,0.16,0.019,0.329,0.055,0.507c0.017,0.143,0.044,0.294,0.079,0.453
		c0.036,0.159,0.089,0.312,0.16,0.453c0.054,0.143,0.115,0.284,0.187,0.427l-1.359-0.188c0.035-0.229,0.088-0.461,0.159-0.692
		c0.072-0.23,0.143-0.443,0.213-0.64c0.09-0.23,0.188-0.444,0.294-0.64c0.107-0.195,0.213-0.392,0.32-0.587H187.534z
		 M191.373,216.47c0.356,0.356,0.676,0.738,0.959,1.146c0.285,0.409,0.525,0.854,0.721,1.333c0.195,0.463,0.347,0.951,0.453,1.466
		c0.107,0.498,0.16,1.014,0.16,1.547c0,0.641-0.071,1.263-0.214,1.866c-0.16,0.586-0.373,1.137-0.639,1.653
		c-0.268,0.533-0.587,1.03-0.96,1.493c-0.373,0.444-0.791,0.844-1.254,1.199c-0.479,0.355-0.985,0.657-1.519,0.906
		c-0.551,0.249-1.129,0.436-1.733,0.56c-0.018-0.249-0.044-0.488-0.08-0.72c-0.035-0.23-0.07-0.452-0.106-0.666
		c-0.054-0.231-0.115-0.453-0.187-0.667c-0.054-0.213-0.125-0.427-0.214-0.64c-0.07-0.214-0.151-0.427-0.239-0.639
		c-0.106-0.197-0.214-0.392-0.32-0.588c-0.106-0.213-0.213-0.408-0.319-0.586c-0.125-0.178-0.249-0.356-0.374-0.533
		c-0.142-0.196-0.284-0.373-0.426-0.533c-0.143-0.178-0.284-0.347-0.427-0.507c-0.16-0.159-0.32-0.311-0.479-0.453
		c-0.161-0.143-0.329-0.284-0.507-0.427c0.142-0.035,0.293-0.079,0.453-0.134c0.142-0.035,0.284-0.079,0.427-0.133
		c0.142-0.07,0.284-0.142,0.426-0.214c0.124-0.07,0.249-0.15,0.373-0.239c0.125-0.089,0.241-0.186,0.347-0.293
		c0.106-0.09,0.214-0.196,0.32-0.32c0.089-0.106,0.178-0.222,0.267-0.347c0.09-0.124,0.169-0.258,0.24-0.399
		c0.053-0.124,0.115-0.258,0.187-0.4c0.053-0.159,0.098-0.311,0.133-0.453c0.036-0.142,0.063-0.293,0.08-0.453
		c0.019-0.16,0.027-0.319,0.027-0.479c0-0.178-0.009-0.355-0.027-0.533c-0.036-0.178-0.071-0.347-0.106-0.507
		c-0.054-0.16-0.115-0.319-0.187-0.48c-0.054-0.159-0.124-0.31-0.213-0.452c-0.178-0.303-0.383-0.569-0.614-0.8
		c-0.23-0.231-0.497-0.436-0.799-0.613c-0.143-0.089-0.293-0.16-0.453-0.214c-0.143-0.07-0.303-0.133-0.48-0.187
		c-0.16-0.035-0.328-0.07-0.507-0.106c-0.177-0.018-0.354-0.026-0.533-0.026c-0.07,0-0.15,0-0.239,0
		c-0.071,0.018-0.151,0.026-0.239,0.026c0.159-0.089,0.328-0.16,0.506-0.213c0.178-0.072,0.355-0.133,0.533-0.188
		c0.177-0.053,0.364-0.105,0.56-0.159c0.178-0.035,0.364-0.07,0.561-0.106c0.177-0.019,0.364-0.036,0.559-0.054
		c0.196-0.018,0.392-0.027,0.587-0.027c0.552,0,1.075,0.054,1.572,0.161c0.517,0.106,1.005,0.257,1.467,0.453
		c0.463,0.195,0.906,0.436,1.333,0.72C190.636,215.795,191.018,216.114,191.373,216.47z M141.973,202.768
		c0.462,0.676,0.81,1.422,1.04,2.239h-0.027c-0.817,0.035-1.599,0.169-2.346,0.399c-0.746,0.231-1.449,0.551-2.105,0.96
		c-0.658,0.392-1.254,0.862-1.787,1.413s-0.995,1.163-1.386,1.839c-0.374,0.657-0.667,1.369-0.88,2.133
		c-0.213,0.765-0.32,1.556-0.32,2.373v0.32c-0.586-0.124-1.137-0.312-1.652-0.561c-0.534-0.23-1.022-0.523-1.467-0.879
		c-0.462-0.338-0.879-0.729-1.253-1.173c-0.355-0.444-0.667-0.925-0.933-1.44c-0.266-0.516-0.462-1.058-0.586-1.626
		c-0.143-0.586-0.213-1.182-0.213-1.786c0-0.178,0.008-0.365,0.026-0.561c0-0.178,0.018-0.354,0.054-0.533
		c0.017-0.159,0.044-0.328,0.079-0.506c0.036-0.179,0.08-0.347,0.134-0.507c0.053-0.178,0.107-0.346,0.159-0.507
		c0.054-0.159,0.116-0.319,0.187-0.479c0.072-0.16,0.152-0.312,0.24-0.453c0.071-0.159,0.151-0.312,0.24-0.452h0.027l-0.054,0.213
		l-0.052,0.453v0.239c0,0.533,0.097,1.031,0.293,1.493c0.195,0.444,0.47,0.845,0.826,1.2c0.338,0.355,0.737,0.63,1.199,0.826
		c0.463,0.195,0.96,0.293,1.493,0.293c0.178,0,0.347-0.009,0.507-0.026c0.178-0.036,0.346-0.071,0.507-0.107
		c0.159-0.053,0.31-0.106,0.452-0.159c0.161-0.071,0.312-0.151,0.454-0.24c0.266-0.16,0.524-0.355,0.773-0.586
		c0.231-0.231,0.426-0.489,0.587-0.773c0.088-0.143,0.159-0.284,0.213-0.427c0.071-0.16,0.124-0.32,0.16-0.479
		c0.053-0.161,0.088-0.32,0.106-0.48c0.018-0.178,0.036-0.354,0.053-0.533c-0.017-0.178-0.035-0.347-0.053-0.506
		c-0.018-0.179-0.053-0.348-0.106-0.507c-0.036-0.16-0.089-0.311-0.16-0.454c-0.054-0.159-0.125-0.311-0.213-0.452
		c-0.161-0.284-0.356-0.543-0.587-0.773c-0.249-0.231-0.507-0.427-0.773-0.586c-0.142-0.09-0.293-0.17-0.454-0.24
		c-0.142-0.054-0.293-0.107-0.452-0.16c-0.161-0.036-0.329-0.063-0.507-0.081c-0.16-0.035-0.329-0.052-0.507-0.052
		c-0.088,0-0.168,0-0.239,0c-0.09,0.017-0.17,0.026-0.24,0.026c0.16-0.09,0.319-0.16,0.479-0.214
		c0.178-0.07,0.355-0.134,0.534-0.187c0.177-0.053,0.355-0.098,0.532-0.133c0.179-0.054,0.356-0.089,0.534-0.107
		c0.195-0.035,0.391-0.053,0.586-0.053c0.178-0.018,0.365-0.026,0.56-0.026c0.889,0,1.724,0.142,2.506,0.426
		c0.8,0.268,1.52,0.658,2.159,1.174C140.96,201.479,141.511,202.074,141.973,202.768z M142.72,206.526
		c0.195-0.018,0.382-0.027,0.56-0.027c0.623,0,1.227,0.071,1.813,0.214c0.569,0.143,1.12,0.347,1.653,0.612
		c0.515,0.249,0.996,0.561,1.44,0.934c0.426,0.374,0.817,0.791,1.172,1.254c0.356,0.462,0.649,0.959,0.88,1.493
		c0.249,0.515,0.436,1.074,0.56,1.678h-0.027c-0.782,0.055-1.537,0.205-2.266,0.454c-0.728,0.23-1.412,0.551-2.052,0.959
		c-0.64,0.392-1.218,0.863-1.733,1.414c-0.516,0.533-0.96,1.128-1.333,1.785c-0.391,0.641-0.693,1.333-0.906,2.08
		c-0.214,0.729-0.329,1.493-0.347,2.293h-0.027c-0.23-0.036-0.452-0.08-0.666-0.134c-0.231-0.053-0.453-0.115-0.667-0.187
		c-0.213-0.089-0.417-0.169-0.613-0.239c-0.213-0.107-0.408-0.214-0.586-0.32c-0.196-0.106-0.391-0.223-0.587-0.346
		c-0.177-0.125-0.355-0.259-0.532-0.4c-0.338-0.284-0.649-0.596-0.934-0.933c-0.142-0.161-0.284-0.329-0.426-0.508
		c-0.125-0.178-0.24-0.364-0.347-0.56c-0.124-0.195-0.23-0.391-0.32-0.586c-0.107-0.196-0.195-0.4-0.266-0.613
		c-0.09-0.214-0.16-0.427-0.214-0.64c-0.07-0.231-0.124-0.454-0.159-0.667c-0.054-0.231-0.09-0.462-0.107-0.693
		c-0.018-0.23-0.027-0.471-0.027-0.72c0-0.178,0.009-0.355,0.027-0.533c0.017-0.178,0.035-0.355,0.053-0.533
		c0.018-0.177,0.054-0.355,0.106-0.533c0.036-0.178,0.071-0.347,0.106-0.507c0.054-0.177,0.116-0.346,0.187-0.506
		c0.054-0.16,0.116-0.32,0.186-0.48c0.072-0.159,0.143-0.319,0.214-0.479c0.089-0.143,0.178-0.284,0.267-0.427l-0.107,0.906
		c0,0.178,0.018,0.356,0.053,0.533c0.018,0.16,0.045,0.32,0.08,0.48c0.053,0.16,0.116,0.319,0.187,0.479
		c0.053,0.143,0.124,0.293,0.213,0.453c0.16,0.268,0.364,0.524,0.613,0.773c0.214,0.214,0.462,0.409,0.746,0.587
		c0.143,0.07,0.294,0.142,0.454,0.213c0.16,0.071,0.32,0.124,0.479,0.16c0.161,0.053,0.32,0.089,0.48,0.106
		c0.179,0.035,0.356,0.054,0.534,0.054c0.177,0,0.346-0.019,0.506-0.054c0.178-0.018,0.347-0.054,0.507-0.106
		c0.159-0.036,0.319-0.089,0.48-0.16c0.142-0.071,0.284-0.143,0.426-0.213c0.284-0.178,0.542-0.373,0.773-0.587
		c0.231-0.249,0.435-0.506,0.613-0.773c0.071-0.16,0.143-0.311,0.213-0.453c0.071-0.16,0.125-0.319,0.161-0.479
		c0.035-0.16,0.07-0.32,0.106-0.48c0.018-0.177,0.026-0.355,0.026-0.533c0-0.533-0.097-1.03-0.293-1.492
		c-0.195-0.463-0.47-0.862-0.826-1.2c-0.356-0.355-0.755-0.631-1.199-0.826c-0.48-0.196-0.978-0.293-1.493-0.293h-0.24
		c-0.089,0-0.169,0.009-0.24,0.026v-0.026c0.16-0.071,0.319-0.144,0.48-0.214c0.177-0.07,0.355-0.133,0.533-0.187
		c0.177-0.053,0.355-0.098,0.533-0.133c0.178-0.036,0.364-0.072,0.56-0.106C142.338,206.563,142.524,206.544,142.72,206.526z
		 M162.208,202.981l-0.054,0.213l-0.08,0.692c0,0.479,0.089,0.934,0.267,1.359v0.027l-0.773-0.16l-0.267-0.027v-0.026
		c0.178-0.746,0.472-1.439,0.881-2.078H162.208z M156.822,200.981c0.641,0.515,1.2,1.11,1.68,1.786
		c0.444,0.692,0.773,1.448,0.986,2.266c-0.586,0.053-1.155,0.151-1.706,0.293c-0.551,0.16-1.075,0.365-1.573,0.613
		c-0.497,0.23-0.968,0.516-1.413,0.854c-0.462,0.319-0.88,0.685-1.253,1.093c-0.373,0.409-0.711,0.844-1.012,1.306
		c-0.304,0.463-0.562,0.96-0.774,1.493h-0.026c-0.071-0.195-0.15-0.382-0.239-0.56c-0.09-0.178-0.188-0.355-0.294-0.533
		s-0.213-0.346-0.32-0.507c-0.107-0.178-0.222-0.337-0.346-0.479c-0.125-0.16-0.249-0.32-0.374-0.479
		c-0.142-0.16-0.275-0.303-0.399-0.427v-0.026c0.159-0.019,0.319-0.045,0.479-0.08c0.143-0.019,0.294-0.054,0.454-0.107
		c0.141-0.053,0.283-0.115,0.426-0.186c0.125-0.071,0.258-0.151,0.4-0.24c0.124-0.089,0.239-0.178,0.347-0.267
		c0.124-0.106,0.239-0.223,0.346-0.347c0.089-0.106,0.188-0.222,0.293-0.347c0.089-0.124,0.169-0.258,0.241-0.4
		c0.071-0.124,0.133-0.257,0.187-0.399c0.053-0.143,0.106-0.293,0.159-0.453c0.035-0.16,0.063-0.319,0.08-0.48
		c0.018-0.159,0.027-0.319,0.027-0.479c0-0.178-0.01-0.347-0.027-0.506c-0.018-0.179-0.053-0.348-0.106-0.507
		c-0.035-0.16-0.089-0.311-0.16-0.454c-0.071-0.159-0.143-0.311-0.213-0.452c-0.178-0.284-0.383-0.543-0.613-0.773
		c-0.213-0.231-0.462-0.427-0.746-0.586c-0.143-0.09-0.294-0.17-0.454-0.24c-0.16-0.054-0.311-0.107-0.453-0.16
		c-0.178-0.036-0.347-0.063-0.507-0.081c-0.177-0.035-0.356-0.052-0.533-0.052h-0.214c-0.088,0.017-0.168,0.026-0.239,0.026h-0.027
		c0.178-0.09,0.347-0.16,0.507-0.214c0.177-0.07,0.355-0.134,0.533-0.187c0.177-0.053,0.356-0.098,0.533-0.133
		c0.178-0.054,0.355-0.089,0.532-0.107c0.197-0.035,0.383-0.053,0.561-0.053c0.195-0.018,0.391-0.026,0.587-0.026
		c0.871,0,1.707,0.142,2.506,0.426C155.463,200.075,156.183,200.466,156.822,200.981z M158.502,206.687
		c0.178-0.036,0.364-0.072,0.561-0.106c0.177-0.018,0.363-0.036,0.56-0.054c0.178-0.018,0.373-0.027,0.586-0.027
		c0.604,0,1.199,0.071,1.786,0.214s1.138,0.347,1.652,0.612c0.517,0.268,0.996,0.587,1.44,0.96c0.444,0.356,0.844,0.773,1.2,1.254
		c0.337,0.443,0.631,0.933,0.879,1.467c0.231,0.532,0.409,1.101,0.533,1.706h-0.026c-0.568,0.052-1.12,0.159-1.653,0.319
		c-0.551,0.159-1.075,0.364-1.572,0.613c-0.498,0.249-0.96,0.542-1.387,0.879c-0.444,0.32-0.853,0.685-1.227,1.094
		c-0.372,0.409-0.711,0.844-1.013,1.306c-0.302,0.463-0.56,0.951-0.773,1.467h-0.026c-0.284-0.693-0.64-1.333-1.066-1.92
		c-0.443-0.587-0.941-1.12-1.492-1.599c0.178,0,0.346-0.019,0.506-0.054c0.179-0.018,0.347-0.054,0.507-0.106
		c0.159-0.054,0.311-0.106,0.453-0.16c0.16-0.071,0.311-0.143,0.453-0.213c0.267-0.178,0.524-0.382,0.772-0.614
		c0.231-0.229,0.427-0.488,0.587-0.772c0.089-0.143,0.16-0.284,0.214-0.427c0.053-0.16,0.106-0.319,0.159-0.479
		c0.054-0.16,0.09-0.32,0.107-0.48c0.018-0.177,0.026-0.355,0.026-0.533c0-0.533-0.099-1.03-0.293-1.492
		c-0.196-0.463-0.472-0.862-0.826-1.2c-0.355-0.355-0.756-0.631-1.2-0.826c-0.462-0.196-0.96-0.293-1.493-0.293h-0.239
		c-0.089,0-0.169,0.009-0.24,0.026l-0.026-0.026c0.178-0.071,0.354-0.144,0.533-0.214c0.159-0.07,0.328-0.133,0.506-0.187
		C158.147,206.767,158.324,206.722,158.502,206.687z M145.599,203.647v0.239c0,0.533,0.097,1.031,0.293,1.493l-1.093-0.24
		l-0.027-0.026c0.054-0.178,0.107-0.364,0.16-0.56c0.071-0.195,0.142-0.373,0.214-0.533c0.07-0.178,0.151-0.356,0.239-0.533
		c0.107-0.178,0.205-0.347,0.293-0.506h0.027l-0.053,0.213L145.599,203.647z M153.09,211.379c0.054-0.144,0.116-0.294,0.187-0.454
		c0.054-0.143,0.116-0.275,0.187-0.4c0.072-0.142,0.152-0.274,0.24-0.399l-0.106,0.906c0,0.374,0.054,0.729,0.16,1.066
		c0.107,0.337,0.249,0.658,0.427,0.96v0.026c-0.125-0.053-0.249-0.088-0.374-0.106c-0.124-0.035-0.239-0.071-0.347-0.106
		c-0.124-0.035-0.248-0.063-0.373-0.08c-0.142-0.018-0.274-0.035-0.399-0.053c0.035-0.16,0.07-0.32,0.106-0.48
		c0.035-0.142,0.08-0.293,0.134-0.453C152.966,211.663,153.019,211.521,153.09,211.379z M149.651,215.03
		c-0.178-0.035-0.347-0.07-0.507-0.106c-0.177-0.018-0.355-0.026-0.533-0.026c-0.089,0-0.178,0-0.267,0
		c-0.071,0.018-0.141,0.026-0.213,0.026h-0.027c0.179-0.089,0.356-0.16,0.534-0.213c0.16-0.072,0.337-0.133,0.532-0.188
		c0.161-0.053,0.339-0.105,0.534-0.159c0.178-0.035,0.364-0.07,0.561-0.106c0.195-0.019,0.391-0.036,0.586-0.054
		c0.178-0.018,0.373-0.027,0.586-0.027c0.231,0,0.463,0.01,0.693,0.027c0.249,0.018,0.48,0.054,0.694,0.106
		c0.229,0.035,0.452,0.08,0.666,0.134c0.23,0.07,0.453,0.15,0.667,0.239c0.194,0.071,0.399,0.151,0.612,0.24
		c0.214,0.106,0.409,0.213,0.587,0.32c0.195,0.105,0.391,0.23,0.587,0.373c0.177,0.124,0.346,0.258,0.506,0.399
		c0.337,0.284,0.648,0.596,0.933,0.934c0.143,0.178,0.284,0.355,0.427,0.533c0.125,0.178,0.24,0.364,0.347,0.56
		c0.124,0.195,0.23,0.391,0.32,0.586c0.089,0.214,0.178,0.427,0.266,0.641c0.072,0.213,0.143,0.427,0.214,0.64
		c0.054,0.213,0.107,0.436,0.16,0.667l-0.026,0.026c-0.817,0.054-1.6,0.195-2.347,0.427c-0.746,0.23-1.448,0.55-2.106,0.96
		c-0.656,0.391-1.262,0.861-1.812,1.413c-0.552,0.533-1.031,1.128-1.44,1.786c-0.409,0.657-0.729,1.358-0.959,2.105
		c-0.249,0.747-0.409,1.528-0.48,2.346c-0.604-0.124-1.173-0.311-1.706-0.56c-0.551-0.249-1.057-0.551-1.52-0.906
		c-0.48-0.355-0.906-0.755-1.279-1.199c-0.373-0.463-0.694-0.96-0.96-1.493c-0.284-0.517-0.489-1.067-0.613-1.653
		c-0.16-0.604-0.24-1.226-0.24-1.866c0-0.178,0.009-0.364,0.027-0.56c0.018-0.178,0.035-0.355,0.053-0.533
		c0.035-0.177,0.071-0.355,0.107-0.533c0.035-0.178,0.08-0.355,0.133-0.533c0.053-0.16,0.106-0.329,0.16-0.507
		c0.053-0.16,0.124-0.319,0.213-0.479c0.053-0.178,0.124-0.338,0.213-0.48c0.089-0.159,0.178-0.311,0.267-0.453l-0.107,0.934
		c0,0.532,0.107,1.04,0.32,1.52c0.196,0.462,0.471,0.87,0.826,1.227c0.356,0.355,0.773,0.639,1.254,0.853
		c0.462,0.196,0.968,0.294,1.519,0.294c0.178,0,0.356-0.01,0.533-0.027c0.16-0.035,0.329-0.07,0.507-0.106
		c0.159-0.053,0.32-0.106,0.48-0.16c0.142-0.07,0.293-0.151,0.453-0.239c0.284-0.161,0.542-0.364,0.773-0.613
		c0.23-0.231,0.436-0.489,0.612-0.773c0.09-0.16,0.17-0.311,0.24-0.453c0.072-0.16,0.125-0.32,0.16-0.479
		c0.036-0.178,0.071-0.347,0.106-0.508c0.019-0.178,0.026-0.354,0.026-0.532s-0.008-0.355-0.026-0.533
		c-0.035-0.178-0.07-0.347-0.106-0.507c-0.035-0.16-0.088-0.319-0.16-0.48c-0.07-0.159-0.15-0.31-0.24-0.452
		c-0.177-0.303-0.382-0.569-0.612-0.8c-0.231-0.231-0.489-0.436-0.773-0.613c-0.16-0.089-0.311-0.16-0.453-0.214
		C149.971,215.146,149.811,215.084,149.651,215.03z M156.476,222.922c-0.089,0-0.178,0.009-0.267,0.026
		c0.178-0.088,0.356-0.169,0.533-0.239c0.178-0.071,0.365-0.134,0.56-0.187c0.196-0.054,0.392-0.107,0.587-0.16
		c0.195-0.036,0.391-0.071,0.587-0.107c0.195-0.035,0.399-0.054,0.613-0.054c0.194-0.017,0.391-0.025,0.586-0.025
		c0.676,0,1.324,0.07,1.946,0.213c0.604,0.159,1.19,0.373,1.76,0.64c0.551,0.284,1.057,0.622,1.519,1.014
		c0.481,0.391,0.907,0.835,1.28,1.333c0.373,0.497,0.693,1.03,0.96,1.6c0.248,0.568,0.436,1.164,0.56,1.786
		c-0.835,0.089-1.644,0.266-2.426,0.533c-0.764,0.266-1.483,0.613-2.159,1.039c-0.693,0.427-1.315,0.933-1.866,1.52
		c-0.552,0.569-1.04,1.199-1.467,1.893c-0.408,0.676-0.737,1.404-0.985,2.187c-0.249,0.782-0.4,1.6-0.454,2.452l-0.026,0.027
		c-0.231-0.054-0.462-0.106-0.693-0.161c-0.249-0.07-0.479-0.141-0.692-0.212c-0.231-0.089-0.454-0.188-0.667-0.293
		c-0.214-0.089-0.417-0.196-0.613-0.321c-0.427-0.23-0.817-0.497-1.173-0.799s-0.693-0.631-1.014-0.986
		c-0.302-0.355-0.568-0.738-0.799-1.146c-0.125-0.195-0.24-0.4-0.347-0.613c-0.107-0.213-0.196-0.436-0.268-0.666
		c-0.089-0.214-0.168-0.445-0.239-0.694c-0.07-0.229-0.125-0.462-0.16-0.692c-0.035-0.249-0.07-0.498-0.106-0.747
		c-0.018-0.248-0.026-0.497-0.026-0.746c0-0.195,0.009-0.391,0.026-0.587c0.018-0.194,0.036-0.382,0.054-0.56
		c0.035-0.195,0.07-0.382,0.106-0.56c0.036-0.195,0.08-0.382,0.133-0.56c0.054-0.178,0.116-0.355,0.187-0.533
		c0.054-0.178,0.125-0.347,0.214-0.507c0.07-0.178,0.142-0.347,0.213-0.507c0.089-0.16,0.187-0.319,0.294-0.479l-0.08,0.479
		c-0.018,0.072-0.027,0.151-0.027,0.24s0,0.178,0,0.267c0,0.373,0.054,0.737,0.16,1.093c0.089,0.338,0.222,0.657,0.4,0.96
		c0.177,0.303,0.39,0.578,0.639,0.827c0.249,0.248,0.525,0.462,0.827,0.64c0.302,0.177,0.631,0.319,0.986,0.426
		c0.338,0.089,0.702,0.134,1.093,0.134c0.373,0,0.738-0.045,1.093-0.134c0.338-0.106,0.657-0.249,0.961-0.426
		c0.302-0.178,0.577-0.392,0.826-0.64c0.248-0.249,0.462-0.524,0.64-0.827s0.319-0.622,0.427-0.96
		c0.089-0.355,0.133-0.72,0.133-1.093c0-0.587-0.106-1.12-0.32-1.6c-0.213-0.497-0.506-0.934-0.879-1.307
		c-0.374-0.373-0.809-0.666-1.307-0.88c-0.48-0.213-1.004-0.319-1.573-0.319C156.653,222.922,156.565,222.922,156.476,222.922z
		 M162.021,217.883l-0.08,0.453c0,0.071,0,0.151,0,0.241c-0.017,0.07-0.026,0.15-0.026,0.239c0,0.391,0.063,0.772,0.188,1.146
		c0.106,0.374,0.266,0.721,0.479,1.04c-0.267-0.071-0.533-0.142-0.8-0.213c-0.267-0.053-0.533-0.097-0.8-0.133
		c0.018-0.178,0.044-0.347,0.08-0.507s0.08-0.32,0.133-0.48c0.054-0.159,0.106-0.32,0.16-0.479c0.071-0.143,0.133-0.293,0.187-0.453
		c0.071-0.143,0.15-0.284,0.24-0.427C161.853,218.149,161.933,218.007,162.021,217.883z M178.63,203.194l-0.054,0.692
		c0,0.444,0.071,0.871,0.214,1.279l-0.24-0.053l-0.746-0.08c0.036-0.196,0.089-0.374,0.159-0.533
		c0.055-0.178,0.116-0.355,0.188-0.533c0.07-0.178,0.16-0.347,0.267-0.507c0.07-0.16,0.159-0.319,0.267-0.479L178.63,203.194z
		 M176.018,205.086c-0.569,0.054-1.111,0.17-1.626,0.348c-0.533,0.159-1.031,0.364-1.493,0.613c-0.48,0.249-0.934,0.533-1.359,0.853
		c-0.427,0.32-0.818,0.685-1.174,1.093c-0.355,0.392-0.675,0.809-0.959,1.254c-0.284,0.462-0.533,0.941-0.746,1.438h-0.027
		c-0.071-0.195-0.151-0.382-0.24-0.56c-0.089-0.195-0.187-0.382-0.294-0.561c-0.105-0.177-0.213-0.346-0.319-0.506
		c-0.124-0.177-0.249-0.346-0.373-0.507c-0.124-0.159-0.249-0.319-0.373-0.479c-0.143-0.142-0.284-0.284-0.427-0.426
		c0.143-0.037,0.284-0.072,0.427-0.107c0.142-0.054,0.284-0.106,0.427-0.159c0.124-0.071,0.249-0.144,0.373-0.214
		s0.249-0.15,0.373-0.24c0.106-0.089,0.214-0.187,0.32-0.293c0.106-0.089,0.204-0.187,0.293-0.293
		c0.089-0.125,0.178-0.24,0.267-0.348c0.071-0.124,0.143-0.248,0.213-0.373c0.054-0.142,0.107-0.275,0.16-0.399
		c0.053-0.143,0.098-0.284,0.134-0.427c0.035-0.159,0.062-0.311,0.079-0.453c0.019-0.143,0.027-0.293,0.027-0.453
		c0-0.178-0.009-0.347-0.027-0.506c-0.018-0.179-0.053-0.348-0.106-0.507c-0.054-0.16-0.106-0.311-0.159-0.454
		c-0.071-0.159-0.143-0.311-0.214-0.452c-0.178-0.284-0.382-0.543-0.612-0.773c-0.232-0.231-0.481-0.427-0.747-0.586
		c-0.16-0.09-0.312-0.17-0.453-0.24c-0.16-0.054-0.32-0.107-0.48-0.16c-0.159-0.036-0.319-0.063-0.479-0.081
		c-0.178-0.035-0.355-0.052-0.533-0.052h-0.24c-0.07,0.017-0.15,0.026-0.24,0.026c0.16-0.09,0.329-0.16,0.507-0.214
		c0.16-0.07,0.329-0.134,0.507-0.187s0.364-0.098,0.56-0.133c0.16-0.054,0.338-0.089,0.533-0.107
		c0.178-0.035,0.365-0.053,0.56-0.053c0.196-0.018,0.383-0.026,0.561-0.026c0.889,0,1.732,0.142,2.532,0.426s1.529,0.685,2.187,1.2
		c0.64,0.497,1.19,1.093,1.652,1.786c0.444,0.693,0.782,1.448,1.014,2.266V205.086z M175.964,206.58
		c0.179-0.018,0.364-0.036,0.561-0.054c0.195-0.018,0.39-0.027,0.586-0.027c0.622,0,1.217,0.071,1.786,0.214
		c0.586,0.143,1.138,0.347,1.653,0.612c0.533,0.268,1.021,0.587,1.466,0.96s0.835,0.791,1.173,1.254
		c0.355,0.462,0.649,0.959,0.88,1.492c0.249,0.552,0.427,1.119,0.533,1.707c-0.551,0.089-1.084,0.213-1.6,0.373
		c-0.533,0.159-1.03,0.373-1.492,0.64c-0.48,0.249-0.934,0.533-1.36,0.854c-0.408,0.337-0.799,0.701-1.173,1.093
		c-0.355,0.391-0.675,0.817-0.959,1.279c-0.303,0.444-0.552,0.916-0.747,1.413h-0.027c-0.284-0.693-0.648-1.333-1.092-1.92
		c-0.427-0.604-0.925-1.137-1.493-1.599v-0.027c0.16-0.018,0.319-0.044,0.479-0.08c0.159-0.035,0.311-0.08,0.453-0.133
		c0.16-0.053,0.312-0.107,0.453-0.16c0.124-0.071,0.258-0.15,0.4-0.24c0.124-0.089,0.249-0.186,0.373-0.293
		c0.106-0.089,0.213-0.187,0.319-0.293c0.106-0.125,0.205-0.249,0.294-0.374c0.089-0.124,0.178-0.258,0.266-0.399
		c0.072-0.124,0.134-0.267,0.188-0.427c0.054-0.142,0.106-0.284,0.159-0.427c0.036-0.16,0.063-0.319,0.08-0.479
		c0.019-0.178,0.027-0.347,0.027-0.507c0-0.533-0.098-1.03-0.293-1.492c-0.196-0.463-0.472-0.862-0.827-1.2
		c-0.337-0.355-0.737-0.631-1.2-0.826c-0.462-0.196-0.96-0.293-1.492-0.293h-0.24c-0.089,0-0.169,0.009-0.239,0.026v-0.026
		c0.16-0.071,0.328-0.144,0.506-0.214c0.161-0.07,0.329-0.133,0.506-0.187c0.178-0.053,0.356-0.098,0.534-0.133
		C175.581,206.65,175.769,206.614,175.964,206.58z M170.632,210.125l-0.106,0.453v0.453c0,0.178,0.01,0.356,0.026,0.533
		c0.019,0.16,0.045,0.32,0.08,0.48c0.054,0.16,0.116,0.319,0.188,0.479c0.053,0.143,0.124,0.284,0.213,0.427v0.026h-0.027
		c-0.213-0.071-0.444-0.124-0.692-0.16c-0.231-0.054-0.463-0.089-0.693-0.105h-0.026c0.035-0.16,0.071-0.321,0.106-0.48
		c0.035-0.142,0.08-0.294,0.133-0.453c0.054-0.143,0.106-0.284,0.161-0.427c0.052-0.143,0.115-0.285,0.186-0.427
		c0.054-0.143,0.115-0.275,0.187-0.4c0.09-0.142,0.17-0.274,0.24-0.399H170.632z M172.019,214.95c0.195,0.09,0.392,0.196,0.586,0.32
		c0.196,0.106,0.383,0.223,0.56,0.347c0.179,0.142,0.356,0.284,0.534,0.427c0.337,0.284,0.648,0.595,0.933,0.933
		c0.143,0.178,0.275,0.364,0.4,0.561c0.124,0.177,0.249,0.363,0.373,0.56c0.106,0.178,0.213,0.373,0.32,0.586
		c0.089,0.214,0.169,0.428,0.239,0.641c0.089,0.213,0.16,0.426,0.214,0.639c0.053,0.232,0.105,0.463,0.159,0.694
		c-0.586,0.07-1.146,0.195-1.679,0.373c-0.534,0.159-1.049,0.373-1.547,0.64c-0.497,0.249-0.969,0.542-1.413,0.879
		c-0.444,0.339-0.854,0.712-1.227,1.12c-0.373,0.392-0.711,0.826-1.013,1.307c-0.32,0.462-0.586,0.951-0.799,1.466h-0.027
		c-0.071-0.195-0.151-0.381-0.24-0.56c-0.089-0.16-0.187-0.328-0.294-0.506c-0.105-0.179-0.213-0.348-0.319-0.507
		c-0.106-0.16-0.213-0.311-0.319-0.454c-0.124-0.159-0.249-0.319-0.373-0.479c-0.143-0.143-0.276-0.285-0.4-0.427
		c-0.142-0.144-0.284-0.276-0.427-0.4s-0.284-0.248-0.427-0.373v-0.026c0.161,0,0.329-0.01,0.507-0.027
		c0.177-0.035,0.355-0.07,0.533-0.106c0.16-0.053,0.32-0.106,0.479-0.16c0.143-0.07,0.284-0.151,0.427-0.239
		c0.303-0.161,0.568-0.364,0.801-0.613c0.23-0.231,0.435-0.489,0.612-0.773c0.089-0.16,0.169-0.311,0.239-0.453
		c0.072-0.16,0.125-0.32,0.161-0.479c0.035-0.178,0.071-0.347,0.106-0.508c0.017-0.178,0.026-0.354,0.026-0.532
		s-0.01-0.355-0.026-0.533c-0.035-0.178-0.071-0.347-0.106-0.507c-0.036-0.16-0.089-0.319-0.161-0.48
		c-0.07-0.159-0.15-0.31-0.239-0.452c-0.178-0.303-0.382-0.569-0.612-0.8c-0.232-0.231-0.498-0.436-0.801-0.613
		c-0.143-0.089-0.284-0.16-0.427-0.214c-0.159-0.07-0.319-0.133-0.479-0.187c-0.178-0.035-0.356-0.07-0.533-0.106
		c-0.178-0.018-0.346-0.026-0.507-0.026c-0.088,0-0.178,0-0.267,0c-0.07,0.018-0.15,0.026-0.239,0.026
		c0.16-0.089,0.328-0.16,0.506-0.213c0.178-0.072,0.355-0.133,0.533-0.188c0.179-0.053,0.364-0.105,0.561-0.159
		c0.178-0.035,0.364-0.07,0.56-0.106c0.178-0.019,0.363-0.036,0.56-0.054s0.392-0.027,0.587-0.027c0.248,0,0.489,0.01,0.72,0.027
		c0.231,0.018,0.462,0.054,0.692,0.106c0.232,0.035,0.463,0.089,0.694,0.16c0.213,0.053,0.426,0.124,0.639,0.213
		C171.592,214.755,171.805,214.844,172.019,214.95z M174.685,222.709c0.16-0.071,0.338-0.134,0.533-0.187
		c0.194-0.054,0.392-0.107,0.586-0.16c0.178-0.036,0.374-0.071,0.587-0.107c0.195-0.035,0.4-0.054,0.613-0.054
		c0.195-0.017,0.391-0.025,0.587-0.025c0.764,0,1.492,0.098,2.186,0.293c0.693,0.178,1.342,0.453,1.946,0.826
		c0.604,0.355,1.155,0.773,1.653,1.253c0.497,0.498,0.924,1.058,1.279,1.68c0.355,0.604,0.631,1.253,0.826,1.946
		s0.293,1.413,0.293,2.159c0,0.676-0.08,1.334-0.239,1.973c-0.16,0.622-0.383,1.218-0.667,1.786
		c-0.284,0.551-0.631,1.067-1.04,1.547c-0.408,0.479-0.87,0.906-1.386,1.279c-0.498,0.373-1.04,0.684-1.627,0.933
		c-0.586,0.249-1.199,0.437-1.839,0.561v-0.027c-0.053-0.728-0.178-1.439-0.373-2.132c-0.196-0.693-0.453-1.342-0.773-1.946
		c-0.319-0.622-0.702-1.209-1.146-1.76c-0.445-0.533-0.934-1.022-1.467-1.467c0.178-0.035,0.337-0.07,0.479-0.106
		c0.161-0.053,0.32-0.106,0.48-0.16c0.142-0.053,0.284-0.124,0.427-0.213c0.141-0.071,0.283-0.15,0.426-0.24
		c0.249-0.195,0.48-0.408,0.693-0.639c0.106-0.125,0.204-0.249,0.294-0.374c0.088-0.143,0.168-0.285,0.239-0.427
		c0.089-0.143,0.16-0.284,0.213-0.427c0.054-0.159,0.106-0.319,0.16-0.479c0.036-0.16,0.063-0.32,0.08-0.479
		c0.019-0.178,0.026-0.347,0.026-0.507c0-0.587-0.106-1.12-0.319-1.6c-0.214-0.497-0.507-0.934-0.881-1.307
		c-0.373-0.373-0.808-0.666-1.306-0.88c-0.497-0.213-1.031-0.319-1.6-0.319c-0.089,0-0.169,0-0.239,0
		c-0.089,0-0.179,0.009-0.268,0.026C174.303,222.86,174.489,222.779,174.685,222.709z M179.189,218.123l-0.053,0.454
		c0,0.07,0,0.15,0,0.239c0,0.178,0.009,0.354,0.026,0.532c0.035,0.161,0.071,0.33,0.107,0.508c0.053,0.159,0.115,0.319,0.187,0.479
		c0.053,0.143,0.123,0.293,0.213,0.453l-1.467-0.187v-0.026c0.018-0.161,0.054-0.32,0.107-0.48c0.035-0.159,0.07-0.311,0.106-0.453
		c0.053-0.16,0.115-0.319,0.187-0.479c0.053-0.16,0.115-0.312,0.187-0.454c0.054-0.142,0.124-0.284,0.213-0.426
		c0.071-0.143,0.143-0.276,0.214-0.4h0.026L179.189,218.123z M176.604,235.691c0.23,0.516,0.399,1.058,0.506,1.627
		c0.124,0.568,0.187,1.155,0.187,1.759c0,0.782-0.106,1.546-0.319,2.293c-0.196,0.729-0.48,1.412-0.854,2.053
		c-0.391,0.641-0.844,1.227-1.359,1.76c-0.533,0.515-1.12,0.96-1.76,1.333c-0.64,0.391-1.324,0.684-2.053,0.879
		c-0.746,0.196-1.521,0.303-2.319,0.321c-0.783-0.019-1.546-0.125-2.293-0.321c-0.729-0.195-1.412-0.488-2.053-0.879
		c-0.641-0.373-1.227-0.818-1.76-1.333c-0.515-0.533-0.96-1.119-1.333-1.76c-0.391-0.641-0.684-1.324-0.88-2.053
		c-0.213-0.747-0.319-1.511-0.319-2.293c0-0.213,0.009-0.426,0.026-0.64c0.018-0.195,0.036-0.399,0.053-0.612
		c0.036-0.197,0.08-0.392,0.134-0.587c0.036-0.196,0.08-0.392,0.134-0.587s0.115-0.382,0.187-0.56s0.143-0.355,0.213-0.533
		c0.089-0.196,0.178-0.374,0.267-0.533c0.09-0.178,0.187-0.348,0.293-0.507l-0.053,0.267c-0.018,0.071-0.026,0.15-0.026,0.24
		c-0.018,0.089-0.027,0.178-0.027,0.267c0,0.07,0,0.16,0,0.267c0,0.586,0.116,1.146,0.347,1.68c0.214,0.516,0.516,0.978,0.906,1.386
		c0.392,0.392,0.854,0.693,1.387,0.907c0.516,0.23,1.075,0.346,1.68,0.346c0.409,0,0.79-0.053,1.146-0.16
		c0.373-0.106,0.72-0.249,1.039-0.427c0.32-0.195,0.613-0.417,0.881-0.666c0.266-0.267,0.497-0.56,0.692-0.879
		c0.178-0.321,0.32-0.667,0.427-1.04c0.089-0.373,0.142-0.756,0.16-1.146c-0.019-0.409-0.071-0.791-0.16-1.146
		c-0.106-0.373-0.249-0.72-0.427-1.039c-0.195-0.338-0.427-0.632-0.692-0.88c-0.268-0.268-0.561-0.498-0.881-0.693
		c-0.319-0.178-0.666-0.32-1.039-0.427c-0.356-0.107-0.737-0.16-1.146-0.16c-0.089,0-0.178,0-0.267,0s-0.178,0.009-0.267,0.026
		c0.178-0.089,0.364-0.169,0.56-0.239c0.195-0.089,0.391-0.16,0.587-0.214c0.195-0.053,0.399-0.106,0.613-0.159
		c0.195-0.054,0.399-0.09,0.612-0.107c0.214-0.035,0.427-0.062,0.641-0.08c0.213-0.017,0.427-0.026,0.64-0.026
		c0.604,0,1.19,0.062,1.76,0.187c0.551,0.107,1.093,0.275,1.626,0.507c0.516,0.213,1.004,0.471,1.467,0.773
		c0.462,0.319,0.888,0.675,1.279,1.065c0.391,0.392,0.746,0.817,1.065,1.28C176.133,234.688,176.391,235.176,176.604,235.691z
		 M170.579,226.521c-0.019,0.072-0.027,0.151-0.027,0.24s0,0.178,0,0.267c0,0.178,0.009,0.355,0.027,0.533
		c0.018,0.16,0.053,0.329,0.106,0.507c0.035,0.159,0.089,0.319,0.159,0.479c0.054,0.16,0.125,0.311,0.214,0.453l-1.466-0.239
		c0.035-0.16,0.071-0.32,0.106-0.48s0.08-0.319,0.133-0.479c0.054-0.16,0.116-0.312,0.187-0.453c0.054-0.16,0.116-0.312,0.188-0.453
		c0.071-0.143,0.142-0.285,0.213-0.427c0.071-0.143,0.151-0.284,0.24-0.427l-0.054,0.239
		C170.605,226.369,170.597,226.449,170.579,226.521z"/>
	<path fill-rule="evenodd" clip-rule="evenodd" fill="#446733" d="M69.166,84.798H268.1v3.786l-0.026,0.026H69.166V84.798z
		 M69.166,179.066H268.1v3.813H69.166V179.066z"/>
</g>
</svg>
