<?xml version="1.0" encoding="utf-8"?>
<!-- Generator: Adobe Illustrator 16.0.0, SVG Export Plug-In . SVG Version: 6.00 Build 0)  -->
<!DOCTYPE svg PUBLIC "-//W3C//DTD SVG 1.1//EN" "http://www.w3.org/Graphics/SVG/1.1/DTD/svg11.dtd">
<svg version="1.1" id="Layer_1" xmlns="http://www.w3.org/2000/svg" xmlns:xlink="http://www.w3.org/1999/xlink" x="0px" y="0px"
	 width="300px" height="300px" viewBox="0 0 300 300" enable-background="new 0 0 300 300" xml:space="preserve">
<g>
	<path fill-rule="evenodd" clip-rule="evenodd" fill="#0A485E" d="M48.629,39.909c-1.812,1.812-2.618,3.9-2.419,6.264
		c0.177,2.144,1.171,4.077,2.983,5.801C46.342,47.642,46.154,43.621,48.629,39.909z M68.417,19.126
		c7.27,0,13.457,2.552,18.562,7.656c5.104,5.192,7.657,11.424,7.657,18.694c0,7.27-2.552,13.445-7.657,18.528
		c-5.104,5.081-11.292,7.623-18.562,7.623c-7.159,0-13.335-2.542-18.528-7.623c-0.288-0.288-0.52-0.531-0.696-0.729
		c-3.115-3.293-5.138-7.016-6.065-11.17c-0.575-2.077-0.862-4.287-0.862-6.629c0-7.271,2.541-13.502,7.624-18.694
		C54.993,21.678,61.169,19.126,68.417,19.126z M63.412,41.068l3.116-2.585h2.022v13.324h-2.022v-11.17l-3.116,2.818V41.068z
		 M65.964,33.677c-3.204,0-5.9,1.115-8.087,3.348c-2.232,2.275-3.348,4.972-3.348,8.087c0,3.227,1.116,5.922,3.348,8.088
		c2.188,2.254,4.883,3.381,8.087,3.381s5.9-1.127,8.087-3.381c2.254-2.166,3.381-4.861,3.381-8.088c0-3.115-1.127-5.812-3.381-8.087
		C71.864,34.792,69.168,33.677,65.964,33.677z M223.437,110.673c-1.989-2.74-4.442-4.242-7.358-4.508
		c3.115,1.127,5.48,3.049,7.094,5.768c1.679,2.739,2.188,5.812,1.523,9.214C226.133,117.28,225.713,113.789,223.437,110.673z
		 M87.674,41.93c1.415-3.867,0.995-7.358-1.26-10.474c-1.988-2.74-4.452-4.254-7.391-4.541c3.116,1.127,5.48,3.06,7.093,5.801
		C87.817,35.456,88.337,38.528,87.674,41.93z M251.543,144.348c1.127,0,2.056,0.244,2.785,0.729
		c0.685,0.553,1.027,1.248,1.027,2.088c0,0.796-0.188,1.37-0.564,1.724c-0.309,0.574-0.828,1.094-1.557,1.558
		c1.038,0.553,1.745,1.116,2.121,1.69c0.464,0.686,0.695,1.447,0.695,2.287c0,1.193-0.42,2.09-1.26,2.686
		c-0.861,0.662-1.943,0.994-3.248,0.994c-1.236,0-2.375-0.332-3.414-0.994c-0.75-0.773-1.127-1.723-1.127-2.85
		c0-0.73,0.244-1.438,0.73-2.123c0.463-0.574,1.159-1.137,2.088-1.69c-0.752-0.464-1.271-0.983-1.559-1.558
		c-0.354-0.354-0.529-0.873-0.529-1.558c0-0.95,0.32-1.701,0.961-2.254C249.444,144.592,250.395,144.348,251.543,144.348z
		 M251.543,145.907c-0.662,0-1.127,0.144-1.392,0.431c-0.42,0.265-0.63,0.597-0.63,0.994c0,0.486,0.145,0.917,0.432,1.293
		l1.59,0.828l1.559-0.828l0.397-1.16c0-0.486-0.133-0.862-0.397-1.127C252.726,146.05,252.207,145.907,251.543,145.907z
		 M259.631,143.056c-2.188-2.254-4.883-3.381-8.088-3.381c-3.203,0-5.899,1.127-8.087,3.381c-2.276,2.275-3.414,4.972-3.414,8.086
		c0,3.205,1.138,5.9,3.414,8.088c2.188,2.254,4.884,3.381,8.087,3.381c3.205,0,5.9-1.127,8.088-3.381
		c2.232-2.188,3.348-4.883,3.348-8.088C262.979,148.028,261.863,145.332,259.631,143.056z M210.211,119.754l-3.414,3.381
		c1.15,0,2.1,0.365,2.852,1.094c0.751,0.774,1.127,1.724,1.127,2.851c0,1.349-0.476,2.398-1.426,3.149
		c-0.861,0.751-2.133,1.127-3.812,1.127l-1.558-0.166l-1.725-0.431v-1.989l1.725,0.729l1.69,0.299c0.928,0,1.679-0.288,2.254-0.862
		c0.574-0.397,0.861-1.061,0.861-1.989c0-0.927-0.331-1.535-0.994-1.822c-0.663-0.464-1.603-0.696-2.817-0.696h-0.133l-0.431,0.133
		v-1.426l3.514-3.679h-5.669v-1.558h7.955V119.754z M218,124.661c0-3.204-1.137-5.889-3.414-8.055
		c-2.275-2.254-4.96-3.381-8.054-3.381c-3.226,0-5.921,1.127-8.087,3.381c-2.254,2.166-3.381,4.851-3.381,8.055
		c0,3.115,1.127,5.812,3.381,8.087c2.166,2.188,4.861,3.281,8.087,3.281c3.094,0,5.778-1.093,8.054-3.281
		C216.863,130.472,218,127.776,218,124.661z M229.701,134.936c0.751-1.039,1.591-2.022,2.519-2.95
		c5.083-5.083,11.27-7.624,18.562-7.624c7.248,0,13.424,2.541,18.528,7.624c5.082,5.192,7.623,11.413,7.623,18.66
		c0,7.292-2.541,13.469-7.623,18.528c-5.104,5.127-11.28,7.689-18.528,7.689c-7.182,0-13.369-2.563-18.562-7.689
		c-0.265-0.264-0.497-0.496-0.696-0.695c-0.972-1.018-1.834-2.088-2.585-3.215c0.53,1.082,0.983,2.197,1.358,3.348
		c0.885,2.674,1.326,5.523,1.326,8.551c0,7.291-2.541,13.479-7.623,18.561c-5.104,5.105-11.28,7.658-18.528,7.658
		c-7.181,0-13.368-2.553-18.562-7.658c-0.265-0.287-0.497-0.52-0.695-0.695c-0.531-0.574-1.017-1.148-1.459-1.723
		c1.172,3.004,1.757,6.264,1.757,9.777c0,7.291-2.541,13.467-7.624,18.527c-5.125,5.127-11.313,7.689-18.561,7.689
		c-7.182,0-13.357-2.563-18.528-7.689c-0.287-0.266-0.519-0.486-0.696-0.662c-1.215-1.281-2.254-2.607-3.115-3.977
		c1.988,3.732,2.982,7.877,2.982,12.428c0,7.293-2.529,13.469-7.59,18.529c-5.127,5.104-11.313,7.656-18.561,7.656
		c-7.182,0-13.369-2.553-18.562-7.656c-0.265-0.287-0.486-0.52-0.663-0.697c-1.149-1.215-2.166-2.486-3.05-3.811
		c1.613,3.402,2.42,7.148,2.42,11.236c0,7.291-2.53,13.479-7.59,18.561c-1.9,1.879-3.933,3.414-6.099,4.607
		c-3.734,2.033-7.889,3.049-12.462,3.049c-4.53,0-8.662-1.016-12.396-3.049c-2.188-1.193-4.231-2.729-6.132-4.607
		c-0.287-0.287-0.519-0.52-0.696-0.695c-3.138-3.293-5.182-7.016-6.132-11.17c-0.553-2.078-0.829-4.311-0.829-6.695
		c0-7.248,2.552-13.469,7.656-18.662c3.845-3.844,8.319-6.23,13.424-7.158c-5.06-0.951-9.535-3.359-13.424-7.227
		c-0.287-0.266-0.519-0.486-0.696-0.662c-3.138-3.314-5.182-7.049-6.132-11.203c-0.553-2.076-0.829-4.299-0.829-6.662
		c0-7.248,2.552-13.469,7.656-18.66c5.06-5.084,11.236-7.625,18.528-7.625c7.248,0,13.435,2.541,18.561,7.625
		c1.127,1.148,2.132,2.352,3.016,3.611c-0.707-1.48-1.249-3.027-1.624-4.641c-0.574-2.076-0.862-4.309-0.862-6.693
		c0-7.248,2.563-13.469,7.69-18.662c4.198-4.221,9.159-6.684,14.882-7.391c-5.635-0.751-10.606-3.215-14.916-7.391
		c-0.288-0.31-0.53-0.553-0.729-0.729c-3.116-3.315-5.138-7.038-6.066-11.17c-0.574-2.1-0.862-4.32-0.862-6.662
		c0-4.221,0.873-8.109,2.619-11.668c-0.95,1.348-2.011,2.619-3.182,3.813c-4.641,4.618-10.176,7.138-16.606,7.557
		c6.143,0.553,11.446,3.071,15.91,7.558c5.104,5.171,7.657,11.391,7.657,18.66c0,7.27-2.552,13.458-7.657,18.561
		c-5.104,5.082-11.28,7.623-18.528,7.623c-7.16,0-13.335-2.541-18.528-7.623c-0.287-0.309-0.53-0.553-0.729-0.729
		c-3.115-3.314-5.137-7.049-6.065-11.203c-0.575-2.076-0.862-4.287-0.862-6.629c0-7.27,2.552-13.489,7.657-18.66
		c4.64-4.685,10.187-7.215,16.639-7.591c-6.099-0.574-11.424-3.082-15.976-7.523c-0.287-0.31-0.519-0.563-0.696-0.763
		c-3.138-3.292-5.171-7.005-6.099-11.137c-0.553-2.099-0.829-4.309-0.829-6.629c0-7.292,2.541-13.523,7.623-18.693
		c5.083-5.104,11.258-7.657,18.528-7.657c7.248,0,13.435,2.553,18.562,7.657c0.994,0.994,1.9,2.055,2.717,3.182
		c-0.552-1.282-0.983-2.597-1.292-3.944c-0.574-2.1-0.862-4.32-0.862-6.662c0-7.271,2.552-13.502,7.657-18.694
		c5.082-5.082,11.258-7.623,18.527-7.623c7.248,0,13.424,2.541,18.529,7.623c5.104,5.192,7.656,11.424,7.656,18.694
		c0,7.27-2.553,13.457-7.656,18.561c-5.017,5.017-11.082,7.546-18.197,7.591c7.115,0.088,13.181,2.651,18.197,7.689
		c5.104,5.171,7.656,11.391,7.656,18.661c0,7.27-2.553,13.457-7.656,18.562c-4.221,4.176-9.171,6.64-14.85,7.391
		c5.701,0.708,10.673,3.17,14.916,7.391c1.414,1.48,2.641,3.027,3.679,4.641c-0.84-1.68-1.48-3.426-1.923-5.236
		c-0.553-2.1-0.828-4.32-0.828-6.663c0-7.271,2.553-13.501,7.656-18.694c4.463-4.485,9.801-6.993,16.01-7.523
		c-6.121-0.53-11.469-3.027-16.043-7.49c-0.287-0.31-0.52-0.564-0.695-0.763c-3.116-3.315-5.149-7.038-6.1-11.17
		c-0.553-2.077-0.828-4.287-0.828-6.629c0-7.292,2.541-13.523,7.623-18.694c5.104-5.104,11.28-7.656,18.528-7.656
		c7.27,0,13.457,2.552,18.562,7.656c5.104,5.171,7.656,11.402,7.656,18.694c0,7.247-2.553,13.435-7.656,18.562
		c-4.508,4.463-9.844,6.96-16.01,7.49c6.166,0.508,11.513,3.016,16.043,7.523c1.59,1.613,2.938,3.337,4.043,5.172
		c-1.038-1.857-1.789-3.824-2.254-5.9c-0.552-2.1-0.828-4.32-0.828-6.662c0-7.271,2.529-13.49,7.59-18.661
		c5.105-5.126,11.291-7.689,18.562-7.689c7.248,0,13.424,2.563,18.528,7.689c5.104,5.171,7.656,11.391,7.656,18.661
		c0,2.651-0.332,5.159-0.994,7.523C230.396,133.124,230.076,134.03,229.701,134.936z M224,143.255
		c-5.016,5.016-11.082,7.545-18.197,7.59c7.115,0.088,13.182,2.639,18.197,7.657c0.287,0.309,0.574,0.617,0.861,0.928
		c0.885,0.973,1.691,1.977,2.42,3.016c-0.84-1.635-1.469-3.348-1.889-5.137c-0.553-2.078-0.829-4.299-0.829-6.663
		c0-3.712,0.685-7.159,2.055-10.341c-0.618,0.795-1.292,1.569-2.021,2.32C224.398,142.846,224.199,143.056,224,143.255z
		 M228.541,151.408c0.177,2.145,1.171,4.078,2.982,5.801c-2.828-4.375-3.027-8.397-0.596-12.065
		C229.138,146.934,228.342,149.022,228.541,151.408z M227.281,134.869c-1.524-1.502-2.807-2.54-3.845-3.115
		c-3.116,4.751-6.884,7.866-11.302,9.347c-3.426,1.127-8.199,1.503-14.319,1.127c0.485,2.276,0.729,4.122,0.729,5.535
		c6.408,1.238,12.064,0.807,16.97-1.293C220.619,144.216,224.541,140.349,227.281,134.869z M218,177.029
		c0-3.115-1.137-5.799-3.414-8.055c-2.275-2.254-4.96-3.379-8.054-3.379c-3.226,0-5.921,1.125-8.087,3.379
		c-2.254,2.256-3.381,4.939-3.381,8.055c0,3.205,1.127,5.9,3.381,8.088c2.166,2.275,4.861,3.414,8.087,3.414
		c3.094,0,5.778-1.139,8.054-3.414C216.863,182.93,218,180.234,218,177.029z M223.172,164.436c1.679,2.738,2.188,5.811,1.523,9.213
		c1.414-3.889,0.995-7.391-1.259-10.506c-1.989-2.74-4.442-4.244-7.358-4.508C219.193,159.762,221.559,161.695,223.172,164.436z
		 M251.543,151.275l-2.021,1.459c-0.354,0.375-0.53,0.883-0.53,1.525c0,0.662,0.231,1.182,0.696,1.557
		c0.398,0.377,1.016,0.564,1.855,0.564s1.448-0.188,1.823-0.564c0.464-0.375,0.696-0.895,0.696-1.557
		c0-0.643-0.188-1.15-0.563-1.525L251.543,151.275z M177.464,85.749c1.702,2.739,2.222,5.811,1.558,9.214
		c1.414-3.867,0.994-7.358-1.259-10.474c-1.989-2.74-4.452-4.254-7.392-4.541C173.486,81.075,175.852,83.008,177.464,85.749z
		 M227.248,187.404c-1.502-1.525-2.773-2.574-3.812-3.148c-3.116,4.707-6.894,7.822-11.336,9.346
		c-3.403,1.127-8.165,1.504-14.285,1.127c0.464,2.277,0.696,4.111,0.696,5.504c6.408,1.258,12.076,0.838,17.003-1.26
		C220.619,196.695,224.53,192.84,227.248,187.404z M270.006,147.132c1.414-3.889,0.994-7.38-1.26-10.474
		c-1.988-2.739-4.441-4.254-7.358-4.54c3.116,1.148,5.479,3.093,7.093,5.833C270.16,140.692,270.668,143.752,270.006,147.132z
		 M243.092,168.213c0.486,2.275,0.729,4.109,0.729,5.502c6.408,1.26,12.065,0.84,16.971-1.26c5.127-2.254,9.049-6.109,11.767-11.566
		c-1.503-1.525-2.773-2.574-3.812-3.15c-3.116,4.707-6.895,7.822-11.336,9.348C254.008,168.213,249.234,168.59,243.092,168.213z
		 M159.665,93.703l0.696-0.298l0.861-0.133c1.326,0,2.32,0.42,2.983,1.26c0.751,0.751,1.127,1.745,1.127,2.982
		c0,1.414-0.376,2.486-1.127,3.215c-0.84,0.884-1.934,1.326-3.281,1.326c-1.392,0-2.464-0.442-3.216-1.326
		c-0.861-0.839-1.292-1.955-1.292-3.347c0-1.238,0.431-2.652,1.292-4.243c0.752-1.326,2.121-2.884,4.11-4.674h2.387l-2.387,2.255
		L159.665,93.703z M158.969,95.659c-0.486,0.464-0.729,1.126-0.729,1.988c0,0.663,0.242,1.326,0.729,1.989
		c0.663,0.464,1.315,0.696,1.956,0.696c0.773,0,1.392-0.232,1.856-0.696c0.486-0.663,0.729-1.37,0.729-2.122
		c0-0.773-0.242-1.392-0.729-1.855c-0.354-0.464-0.973-0.696-1.856-0.696C160.085,94.962,159.434,95.195,158.969,95.659z
		 M169.012,87.14c-2.275-2.254-4.972-3.381-8.087-3.381c-3.204,0-5.889,1.127-8.055,3.381c-2.253,2.188-3.38,4.895-3.38,8.12
		c0,3.094,1.127,5.768,3.38,8.021c2.166,2.275,4.851,3.414,8.055,3.414c3.115,0,5.812-1.139,8.087-3.414
		c2.276-2.254,3.414-4.928,3.414-8.021C172.426,92.035,171.288,89.328,169.012,87.14z M131.79,59.463
		c1.679,2.74,2.198,5.801,1.558,9.182c1.414-3.845,0.984-7.336-1.293-10.474c-1.988-2.74-4.441-4.242-7.357-4.508
		C127.813,54.791,130.178,56.724,131.79,59.463z M181.574,108.684c-1.502-1.524-2.773-2.563-3.812-3.115
		c-3.116,4.729-6.895,7.845-11.336,9.347c-3.403,1.128-8.165,1.503-14.285,1.128c0.464,2.275,0.696,4.121,0.696,5.534
		c6.43,1.216,12.098,0.785,17.003-1.292C174.924,118.032,178.834,114.165,181.574,108.684z M113.793,60.392
		c-3.205,0-5.878,1.138-8.022,3.413c-2.276,2.276-3.414,4.973-3.414,8.088c0,3.204,1.138,5.89,3.414,8.055
		c2.144,2.254,4.817,3.381,8.022,3.381c3.226,0,5.922-1.127,8.086-3.381c2.277-2.165,3.415-4.851,3.415-8.055
		c0-3.115-1.138-5.812-3.415-8.088C119.715,61.53,117.019,60.392,113.793,60.392z M115.383,65.264l-4.11,8.75h3.381v-2.85h1.69v2.85
		h1.856v1.69h-1.856v2.983h-1.69v-2.983h-5.104V73.75l3.978-8.485H115.383z M135.9,134.869c-1.525-1.502-2.807-2.54-3.846-3.115
		c-3.115,4.751-6.883,7.866-11.302,9.347c-3.403,1.127-8.176,1.503-14.319,1.127c0.486,2.276,0.729,4.122,0.729,5.535
		c6.408,1.238,12.065,0.807,16.97-1.293C129.238,144.216,133.16,140.349,135.9,134.869z M132.055,110.673
		c-1.988-2.74-4.441-4.242-7.357-4.508c3.115,1.127,5.48,3.049,7.093,5.768c1.679,2.739,2.198,5.812,1.558,9.214
		C134.762,117.28,134.332,113.789,132.055,110.673z M137.523,99.205c0.199,2.144,1.205,4.077,3.018,5.801
		c-2.852-4.331-3.039-8.353-0.564-12.065C138.165,94.752,137.348,96.84,137.523,99.205z M106.434,89.725
		c0.486,2.276,0.729,4.121,0.729,5.535c6.408,1.215,12.065,0.785,16.97-1.293c5.104-2.253,9.026-6.12,11.767-11.601
		c-1.525-1.502-2.807-2.541-3.846-3.115c-3.115,4.729-6.883,7.845-11.302,9.347C117.35,89.725,112.577,90.101,106.434,89.725z
		 M117.206,119.457h-5.104l-0.132,2.817l0.431-0.133h0.563c1.304,0,2.431,0.42,3.381,1.26c0.861,0.773,1.292,1.823,1.292,3.148
		c0,1.393-0.607,2.564-1.822,3.514c-1.238,0.861-2.983,1.293-5.237,1.293h-0.597v-1.69h0.265l0.464,0.133
		c1.503,0,2.718-0.343,3.646-1.028c0.885-0.552,1.326-1.348,1.326-2.386c0-0.751-0.299-1.359-0.895-1.823
		c-0.465-0.486-1.26-0.729-2.387-0.729l-2.287,0.132l0.464-6.065h6.629V119.457z M125.294,124.528c0-3.115-1.138-5.812-3.415-8.088
		c-2.164-2.254-4.86-3.38-8.086-3.38c-3.205,0-5.878,1.126-8.022,3.38c-2.276,2.276-3.414,4.973-3.414,8.088
		c0,3.204,1.138,5.899,3.414,8.088c2.144,2.275,4.817,3.413,8.022,3.413c3.226,0,5.922-1.138,8.086-3.413
		C124.156,130.427,125.294,127.732,125.294,124.528z M115.383,169.971l-4.11,8.783h3.381v-2.818h1.69v2.818h1.856v1.723h-1.856
		v2.949h-1.69v-2.949h-5.104v-2.021l3.978-8.484H115.383z M149.49,149.552c0,3.225,1.127,5.922,3.38,8.088
		c2.166,2.275,4.851,3.412,8.055,3.412c3.115,0,5.812-1.137,8.087-3.412c2.276-2.166,3.414-4.863,3.414-8.088
		c0-3.203-1.138-5.878-3.414-8.021c-2.275-2.275-4.972-3.413-8.087-3.413c-3.204,0-5.889,1.138-8.055,3.413
		C150.617,143.674,149.49,146.349,149.49,149.552z M113.793,165.164c-3.205,0-5.878,1.127-8.022,3.381
		c-2.276,2.254-3.414,4.938-3.414,8.055c0,3.227,1.138,5.922,3.414,8.086c2.144,2.275,4.817,3.414,8.022,3.414
		c3.226,0,5.922-1.139,8.086-3.414c2.277-2.164,3.415-4.859,3.415-8.086c0-3.117-1.138-5.801-3.415-8.055
		C119.715,166.291,117.019,165.164,113.793,165.164z M131.823,164.004c1.68,2.74,2.198,5.811,1.558,9.215
		c1.393-3.891,0.961-7.402-1.293-10.541c-1.988-2.717-4.441-4.221-7.357-4.508C127.846,159.318,130.211,161.264,131.823,164.004z
		 M137.59,151.475c0.178,2.166,1.16,4.1,2.951,5.801c-2.807-4.332-2.994-8.341-0.564-12.032
		C138.188,147.055,137.392,149.132,137.59,151.475z M140.541,168.611c-1.149-1.238-2.166-2.541-3.05-3.912
		c1.856,3.646,2.784,7.646,2.784,12c0,7.291-2.53,13.479-7.59,18.561c-5.127,5.104-11.314,7.656-18.562,7.656
		c-7.182,0-13.357-2.553-18.528-7.656c-0.287-0.287-0.53-0.52-0.729-0.697c-0.884-0.949-1.679-1.922-2.386-2.916
		c1.657,3.492,2.486,7.303,2.486,11.436c0,7.291-2.53,13.467-7.59,18.527c-3.867,3.867-8.341,6.275-13.424,7.227
		c5.083,0.928,9.557,3.314,13.424,7.158c1.415,1.459,2.63,2.996,3.646,4.607c-0.685-1.459-1.204-2.973-1.558-4.541
		c-0.552-2.076-0.829-4.297-0.829-6.662c0-7.248,2.541-13.479,7.623-18.693c5.083-5.082,11.27-7.623,18.562-7.623
		c7.248,0,13.434,2.541,18.561,7.623c1.437,1.48,2.674,3.049,3.713,4.707c-0.928-1.791-1.636-3.68-2.122-5.668
		c-0.552-2.076-0.829-4.299-0.829-6.662c0-7.248,2.553-13.469,7.657-18.66c4.464-4.486,9.8-6.994,16.009-7.525
		c-6.342-0.441-11.854-2.971-16.539-7.59C140.982,169.02,140.739,168.787,140.541,168.611z M185.65,119.158
		c-1.789,1.79-2.596,3.868-2.419,6.231c0.177,2.166,1.171,4.1,2.983,5.801C183.387,126.859,183.198,122.848,185.65,119.158z
		 M152.142,168.313c0.464,2.275,0.696,4.121,0.696,5.535c6.43,1.238,12.098,0.818,17.003-1.26c5.104-2.275,9.016-6.143,11.733-11.6
		c-1.48-1.525-2.74-2.564-3.779-3.117c-3.115,4.686-6.904,7.789-11.368,9.314C163.046,168.313,158.284,168.688,152.142,168.313z
		 M186.215,142.526c-1.305-1.414-2.432-2.884-3.381-4.408c2.099,3.801,3.148,8.021,3.148,12.661c0,7.27-2.541,13.446-7.623,18.528
		c-4.508,4.486-9.845,7.004-16.01,7.557c6.387,0.42,11.899,2.939,16.539,7.559c0.774,0.773,1.492,1.59,2.154,2.451
		c-0.396-0.994-0.706-2.01-0.928-3.049c-0.574-2.076-0.861-4.297-0.861-6.662c0-7.248,2.553-13.469,7.656-18.66
		c5.017-5.018,11.093-7.569,18.23-7.657c-7.005-0.045-13.082-2.574-18.23-7.59C186.646,142.946,186.413,142.703,186.215,142.526z
		 M158.671,143.089l1.988-0.166c1.415,0,2.453,0.343,3.116,1.027c0.751,0.464,1.127,1.304,1.127,2.519
		c0,0.862-0.188,1.525-0.563,1.989c-0.464,0.773-1.128,1.393-1.989,1.856l-1.293,0.828c-0.729,0.576-1.281,1.105-1.656,1.592
		c-0.376,0.375-0.564,0.883-0.564,1.525v0.43h5.934v1.691h-7.955v-0.83c0-1.502,0.199-2.584,0.597-3.248
		c0.376-0.773,1.083-1.535,2.122-2.286l1.523-0.962c0.862-0.663,1.349-1.138,1.459-1.426l0.432-1.292
		c0-0.553-0.199-1.017-0.598-1.393c-0.574-0.397-1.138-0.597-1.69-0.597c-0.464,0-0.983,0.144-1.558,0.432
		c-1.017,0.486-1.668,0.861-1.955,1.127v-2.089L158.671,143.089z M185.618,171.66c-1.769,1.789-2.563,3.879-2.387,6.264
		c0.177,2.145,1.171,4.066,2.983,5.768C183.387,179.338,183.188,175.328,185.618,171.66z M170.404,132.217
		c3.115,1.149,5.48,3.094,7.094,5.834c1.701,2.74,2.22,5.812,1.557,9.214c1.393-3.89,0.973-7.392-1.26-10.507
		C175.807,134.018,173.343,132.504,170.404,132.217z M201.991,174.643c0-1.215,0.42-2.254,1.26-3.115
		c0.773-0.861,1.812-1.293,3.116-1.293c1.436,0,2.574,0.432,3.414,1.293c0.839,0.861,1.259,2,1.259,3.414
		c0,1.238-0.42,2.553-1.259,3.945c-0.84,1.436-2.21,3.082-4.11,4.938h-2.42l4.541-5.203l-1.69,0.43c-1.127,0-2.121-0.43-2.982-1.291
		C202.367,176.83,201.991,175.793,201.991,174.643z M208.389,172.654c-0.398-0.465-1.017-0.695-1.856-0.695
		c-0.861,0-1.524,0.23-1.988,0.695c-0.376,0.398-0.563,1.061-0.563,1.988c0,0.951,0.188,1.625,0.563,2.021
		c0.663,0.443,1.325,0.664,1.988,0.664c0.729,0,1.349-0.221,1.856-0.664c0.464-0.684,0.695-1.357,0.695-2.021
		C209.084,173.803,208.853,173.141,208.389,172.654z M91.85,72.887c0.199,2.166,1.193,4.1,2.983,5.801
		c-2.829-4.331-3.016-8.342-0.564-12.031C92.458,68.468,91.651,70.545,91.85,72.887z M90.226,55.652
		c-1.502-1.524-2.773-2.563-3.812-3.115c-3.115,4.729-6.883,7.845-11.302,9.347c-3.425,1.127-8.198,1.492-14.319,1.094
		c0.486,2.276,0.729,4.132,0.729,5.568c6.408,1.215,12.065,0.785,16.97-1.293C83.575,65,87.486,61.132,90.226,55.652z M68.35,95.791
		c0.973,0.862,1.458,1.912,1.458,3.149c0,1.503-0.674,2.673-2.021,3.514c-1.127,0.861-2.817,1.292-5.072,1.292h-0.563v-1.558h0.696
		c1.613,0,2.839-0.276,3.679-0.828c0.84-0.598,1.26-1.459,1.26-2.586c0-0.751-0.276-1.359-0.829-1.823
		c-0.663-0.485-1.503-0.729-2.52-0.729l-2.154,0.133l0.431-6.066h6.663v1.559h-5.104l-0.132,2.817h0.994
		C66.351,94.665,67.422,95.04,68.35,95.791z M74.051,88.996c-2.188-2.253-4.883-3.38-8.087-3.38s-5.9,1.127-8.087,3.38
		c-2.232,2.167-3.348,4.851-3.348,8.055c0,3.116,1.116,5.812,3.348,8.088c2.188,2.275,4.883,3.413,8.087,3.413
		s5.9-1.138,8.087-3.413c2.254-2.276,3.381-4.972,3.381-8.088C77.432,93.846,76.305,91.163,74.051,88.996z M88.039,94.73
		c1.414-3.845,0.983-7.324-1.293-10.44c-1.989-2.739-4.441-4.254-7.358-4.541c3.116,1.127,5.48,3.061,7.093,5.801
		C88.16,88.29,88.679,91.35,88.039,94.73z M94.833,89.991c-0.729-0.773-1.393-1.547-1.989-2.32c1.414,3.248,2.121,6.795,2.121,10.64
		c0,4.154-0.84,7.966-2.519,11.436c0.906-1.282,1.945-2.52,3.116-3.713c5.016-5.038,11.082-7.602,18.196-7.689
		c-7.026-0.045-13.092-2.574-18.196-7.591C95.275,90.444,95.032,90.19,94.833,89.991z M86.083,136.593
		c-1.989-2.74-4.441-4.243-7.358-4.509c3.115,1.105,5.479,3.028,7.093,5.768c1.679,2.74,2.199,5.812,1.558,9.215
		C88.79,143.2,88.359,139.708,86.083,136.593z M94.27,119.158c-1.812,1.79-2.618,3.868-2.419,6.231
		c0.199,2.166,1.193,4.1,2.983,5.801C92.005,126.859,91.817,122.848,94.27,119.158z M48.297,145.078
		c-1.79,1.79-2.596,3.867-2.419,6.231c0.199,2.166,1.193,4.1,2.983,5.801C46.033,152.777,45.845,148.768,48.297,145.078z
		 M90.591,108.486c-1.525-1.524-2.806-2.563-3.845-3.116c-3.115,4.707-6.872,7.812-11.269,9.313
		c-3.425,1.128-8.209,1.504-14.352,1.128c0.508,2.275,0.762,4.132,0.762,5.568c6.386,1.193,12.032,0.762,16.938-1.293
		C83.928,117.833,87.851,113.965,90.591,108.486z M61.721,141.664h7.955v1.856l-3.414,3.381c1.392,0.177,2.386,0.563,2.983,1.16
		c0.641,0.84,0.961,1.768,0.961,2.784c0,1.348-0.464,2.442-1.392,3.282c-0.973,0.75-2.254,1.127-3.845,1.127l-1.558-0.133
		l-1.69-0.564v-1.822l1.69,0.695l1.724,0.133c0.84,0,1.58-0.23,2.221-0.695c0.574-0.574,0.862-1.281,0.862-2.122
		c0-0.751-0.288-1.37-0.862-1.856c-0.641-0.354-1.569-0.529-2.784-0.529h-0.696v-1.326l3.48-3.646h-5.635V141.664z M74.051,140.371
		c-2.188-2.253-4.883-3.38-8.087-3.38s-5.9,1.127-8.087,3.38c-2.232,2.166-3.348,4.851-3.348,8.055c0,3.227,1.116,5.922,3.348,8.088
		c2.188,2.275,4.883,3.412,8.087,3.412s5.9-1.137,8.087-3.412c2.254-2.166,3.381-4.861,3.381-8.088
		C77.432,145.221,76.305,142.537,74.051,140.371z M79.421,184.553c3.116,1.129,5.48,3.063,7.093,5.801
		c1.701,2.764,2.22,5.834,1.558,9.215c1.392-3.889,0.961-7.391-1.292-10.508C84.791,186.322,82.337,184.818,79.421,184.553z
		 M46.541,99.006c0.199,2.144,1.205,4.076,3.017,5.801c-2.851-4.331-3.049-8.354-0.597-12.065
		C47.17,94.553,46.364,96.641,46.541,99.006z M94.27,171.195c-1.768,1.813-2.563,3.9-2.386,6.266
		c0.199,2.143,1.193,4.066,2.983,5.768C92.038,178.875,91.839,174.863,94.27,171.195z M60.462,168.146
		c0.486,2.254,0.729,4.1,0.729,5.535c6.408,1.238,12.065,0.807,16.97-1.293c5.104-2.254,9.027-6.119,11.767-11.6
		c-1.525-1.504-2.806-2.541-3.845-3.115c-3.116,4.729-6.883,7.844-11.303,9.346C71.377,168.146,66.604,168.521,60.462,168.146z
		 M74.051,194.598c-2.188-2.277-4.883-3.414-8.087-3.414s-5.9,1.137-8.087,3.414c-2.232,2.164-3.348,4.85-3.348,8.053
		c0,3.115,1.116,5.813,3.348,8.088c2.188,2.254,4.883,3.381,8.087,3.381s5.9-1.127,8.087-3.381c2.254-2.275,3.381-4.973,3.381-8.088
		C77.432,199.447,76.305,196.762,74.051,194.598z M62.152,203.547c0.464-0.598,1.171-1.172,2.121-1.725
		c-0.773-0.465-1.348-0.928-1.724-1.393c-0.265-0.574-0.397-1.148-0.397-1.723c0-0.863,0.32-1.568,0.961-2.121
		c0.773-0.576,1.724-0.863,2.851-0.863c1.215,0,2.166,0.287,2.851,0.863c0.663,0.553,0.994,1.258,0.994,2.121
		c0,0.684-0.188,1.26-0.563,1.723c-0.199,0.465-0.729,0.928-1.591,1.393c1.061,0.553,1.779,1.172,2.154,1.855
		c0.464,0.664,0.696,1.371,0.696,2.121c0,1.215-0.419,2.111-1.259,2.686c-0.685,0.662-1.779,0.994-3.281,0.994
		c-1.525,0-2.663-0.332-3.414-0.994c-0.729-0.574-1.094-1.471-1.094-2.686C61.456,205.049,61.688,204.297,62.152,203.547z
		 M67.356,197.713c-0.265-0.287-0.729-0.432-1.392-0.432c-0.552,0-1.061,0.145-1.525,0.432c-0.287,0.287-0.431,0.674-0.431,1.158
		c0,0.465,0.144,0.842,0.431,1.129c0.354,0.375,0.862,0.707,1.525,0.994L67.521,200c0.288-0.287,0.431-0.664,0.431-1.129
		C67.953,198.387,67.753,198,67.356,197.713z M65.964,202.816c-0.84,0.377-1.491,0.807-1.956,1.293
		c-0.398,0.375-0.597,0.883-0.597,1.525c0,0.75,0.243,1.314,0.729,1.689c0.552,0.375,1.16,0.564,1.823,0.564
		c0.663,0,1.271-0.189,1.823-0.564c0.508-0.375,0.762-0.939,0.762-1.689c0-0.643-0.199-1.15-0.597-1.525
		C67.489,203.623,66.826,203.193,65.964,202.816z M90.591,264.898c-1.502-1.525-2.773-2.564-3.812-3.117
		c-3.094,4.707-6.861,7.813-11.303,9.314c-3.403,1.127-8.176,1.514-14.319,1.16c0.486,2.254,0.729,4.088,0.729,5.502
		c0.111,0.021,0.232,0.045,0.365,0.066c4.464,0.84,8.584,0.84,12.363,0c1.458-0.332,2.873-0.785,4.243-1.359
		C83.962,274.211,87.873,270.355,90.591,264.898z M92.58,230.129c0.199,2.164,1.204,4.098,3.016,5.799
		c-2.851-4.352-3.061-8.363-0.63-12.031C93.198,225.688,92.403,227.764,92.58,230.129z M79.421,236.127
		c3.116,1.15,5.48,3.094,7.093,5.834c1.701,2.74,2.22,5.813,1.558,9.215c1.392-3.891,0.961-7.393-1.292-10.508
		C84.791,237.928,82.337,236.414,79.421,236.127z M61.158,220.648c0.486,2.275,0.729,4.111,0.729,5.502
		c6.386,1.26,12.043,0.84,16.971-1.26c5.104-2.275,9.016-6.131,11.733-11.566c-1.502-1.525-2.773-2.574-3.812-3.148
		c-3.094,4.705-6.861,7.822-11.303,9.346C72.074,220.648,67.301,221.023,61.158,220.648z M70.372,250.811
		c0,1.039-0.519,2.209-1.558,3.514l-0.464,0.299l-0.829,1.127c-0.663,0.861-1.226,1.801-1.69,2.816
		c-0.375,1.348-0.563,2.441-0.563,3.281v1.658h-1.856v-1.658c0-1.127,0.243-2.396,0.729-3.811c0.375-1.127,1.027-2.211,1.955-3.248
		l1.856-2.287l0.132-0.564v-0.133h-6.496v-1.559h8.783V250.811z M74.051,248.822c-2.188-2.275-4.883-3.414-8.087-3.414
		s-5.9,1.139-8.087,3.414c-2.232,2.254-3.348,4.928-3.348,8.021c0,3.248,1.116,5.943,3.348,8.086
		c2.188,2.277,4.883,3.416,8.087,3.416s5.9-1.139,8.087-3.416c2.254-2.143,3.381-4.838,3.381-8.086
		C77.432,253.75,76.305,251.076,74.051,248.822z M170.935,184.553c3.116,1.129,5.479,3.063,7.093,5.801
		c1.701,2.764,2.221,5.834,1.559,9.215c1.414-3.889,0.994-7.391-1.26-10.508C176.314,186.322,173.852,184.818,170.935,184.553z
		 M48.96,249.188c-1.768,1.789-2.563,3.865-2.386,6.23c0.199,2.166,1.204,4.1,3.016,5.801
		C46.74,256.844,46.53,252.832,48.96,249.188z M48.96,197.58c-1.768,1.789-2.563,3.877-2.386,6.264
		c0.199,2.143,1.204,4.066,3.016,5.768C46.74,205.258,46.53,201.248,48.96,197.58z M169.012,195.16
		c-2.275-2.275-4.972-3.414-8.087-3.414c-3.204,0-5.889,1.139-8.055,3.414c-2.253,2.254-3.38,4.939-3.38,8.055
		c0,3.203,1.127,5.898,3.38,8.086c2.166,2.254,4.851,3.383,8.055,3.383c3.115,0,5.812-1.129,8.087-3.383
		c2.276-2.188,3.414-4.883,3.414-8.086C172.426,200.1,171.288,197.414,169.012,195.16z M164.339,198.143h-5.071l-0.166,2.686h0.861
		c1.414,0,2.553,0.432,3.414,1.293c0.84,0.729,1.26,1.768,1.26,3.115c0,1.502-0.619,2.686-1.855,3.547
		c-1.238,0.84-2.928,1.26-5.072,1.26h-0.563v-1.691h0.695c1.592,0,2.807-0.287,3.646-0.861c0.861-0.574,1.293-1.371,1.293-2.387
		c0-0.773-0.276-1.447-0.829-2.021c-0.685-0.377-1.536-0.564-2.552-0.564l-2.254,0.133l0.431-6.064h6.762V198.143z M138.121,203.844
		c0.177,2.143,1.171,4.066,2.982,5.768c-2.85-4.354-3.049-8.363-0.596-12.031C138.718,199.369,137.922,201.457,138.121,203.844z
		 M135.9,186.939c-1.503-1.523-2.773-2.563-3.813-3.115c-3.115,4.707-6.894,7.813-11.335,9.314
		c-3.381,1.127-8.143,1.502-14.286,1.127c0.464,2.275,0.696,4.121,0.696,5.535c6.408,1.238,12.076,0.807,17.002-1.293
		C129.271,196.232,133.182,192.375,135.9,186.939z M170.371,224.891c5.104-2.275,9.016-6.131,11.733-11.566
		c-1.503-1.525-2.763-2.574-3.778-3.148c-3.115,4.705-6.895,7.822-11.336,9.346c-3.402,1.127-8.176,1.502-14.318,1.127
		c0.486,2.275,0.729,4.111,0.729,5.502C159.809,227.41,165.465,226.99,170.371,224.891z M117.902,226.715
		c0,0.596-0.177,1.27-0.53,2.021l-1.989,1.822l-1.293,0.697c-0.949,0.684-1.557,1.215-1.822,1.59
		c-0.287,0.553-0.431,1.115-0.431,1.691v0.396h5.8v1.592h-7.789l-0.166-0.266v-0.465c0-1.324,0.254-2.451,0.762-3.379
		c0.354-0.773,1.05-1.537,2.089-2.287l1.425-0.994c0.751-0.465,1.271-0.885,1.558-1.26c0.287-0.377,0.432-0.852,0.432-1.426
		s-0.232-0.994-0.697-1.26c-0.396-0.375-0.928-0.563-1.59-0.563c-0.465,0-0.984,0.133-1.559,0.396l-2.121,1.127v-2.088l1.724-0.729
		l1.823-0.266c1.436,0,2.52,0.332,3.248,0.994C117.527,224.814,117.902,225.697,117.902,226.715z M113.793,218.361
		c-3.205,0-5.878,1.139-8.022,3.414c-2.276,2.166-3.414,4.85-3.414,8.055c0,3.137,1.138,5.822,3.414,8.055
		c2.144,2.275,4.817,3.412,8.022,3.412c3.226,0,5.922-1.137,8.086-3.412c2.277-2.232,3.415-4.918,3.415-8.055
		c0-3.205-1.138-5.889-3.415-8.055C119.715,219.5,117.019,218.361,113.793,218.361z M136.596,239.607
		c-1.502-1.523-2.772-2.563-3.811-3.115c-3.094,4.707-6.861,7.811-11.303,9.314c-3.426,1.125-8.198,1.514-14.319,1.16
		c0.463,2.252,0.696,4.086,0.696,5.502c6.408,1.236,12.076,0.816,17.004-1.26C129.967,248.934,133.879,245.066,136.596,239.607z
		 M134.077,225.885c1.392-3.889,0.961-7.391-1.292-10.506c-1.989-2.74-4.442-4.254-7.359-4.541c3.116,1.148,5.48,3.094,7.094,5.834
		C134.221,219.41,134.74,222.482,134.077,225.885z"/>
	<path fill-rule="evenodd" clip-rule="evenodd" fill="#E4DAD9" d="M63.412,41.068v2.388l3.116-2.818v11.17h2.022V38.483h-2.022
		L63.412,41.068z M65.964,33.677c3.204,0,5.9,1.115,8.087,3.348c2.254,2.275,3.381,4.972,3.381,8.087
		c0,3.227-1.127,5.922-3.381,8.088c-2.188,2.254-4.883,3.381-8.087,3.381s-5.9-1.127-8.087-3.381
		c-2.232-2.166-3.348-4.861-3.348-8.088c0-3.115,1.116-5.812,3.348-8.087C60.064,34.792,62.76,33.677,65.964,33.677z
		 M251.543,145.907c0.664,0,1.183,0.144,1.559,0.431c0.265,0.265,0.397,0.641,0.397,1.127l-0.397,1.16l-1.559,0.828l-1.59-0.828
		c-0.287-0.376-0.432-0.807-0.432-1.293c0-0.397,0.21-0.729,0.63-0.994C250.416,146.05,250.881,145.907,251.543,145.907z
		 M251.543,144.348c-1.148,0-2.099,0.244-2.85,0.729c-0.641,0.553-0.961,1.304-0.961,2.254c0,0.685,0.176,1.204,0.529,1.558
		c0.287,0.574,0.807,1.094,1.559,1.558c-0.929,0.553-1.625,1.116-2.088,1.69c-0.486,0.686-0.73,1.393-0.73,2.123
		c0,1.127,0.377,2.076,1.127,2.85c1.039,0.662,2.178,0.994,3.414,0.994c1.305,0,2.387-0.332,3.248-0.994
		c0.84-0.596,1.26-1.492,1.26-2.686c0-0.84-0.231-1.602-0.695-2.287c-0.376-0.574-1.083-1.137-2.121-1.69
		c0.729-0.464,1.248-0.983,1.557-1.558c0.377-0.354,0.564-0.928,0.564-1.724c0-0.84-0.343-1.535-1.027-2.088
		C253.599,144.592,252.67,144.348,251.543,144.348z M259.631,143.056c2.232,2.275,3.348,4.972,3.348,8.086
		c0,3.205-1.115,5.9-3.348,8.088c-2.188,2.254-4.883,3.381-8.088,3.381c-3.203,0-5.899-1.127-8.087-3.381
		c-2.276-2.188-3.414-4.883-3.414-8.088c0-3.115,1.138-5.811,3.414-8.086c2.188-2.254,4.884-3.381,8.087-3.381
		C254.748,139.675,257.443,140.802,259.631,143.056z M210.211,119.754v-1.855h-7.955v1.558h5.669l-3.514,3.679v1.426l0.431-0.133
		h0.133c1.215,0,2.154,0.232,2.817,0.696c0.663,0.287,0.994,0.896,0.994,1.822c0,0.929-0.287,1.592-0.861,1.989
		c-0.575,0.574-1.326,0.862-2.254,0.862l-1.69-0.299l-1.725-0.729v1.989l1.725,0.431l1.558,0.166c1.679,0,2.95-0.376,3.812-1.127
		c0.95-0.751,1.426-1.801,1.426-3.149c0-1.127-0.376-2.076-1.127-2.851c-0.752-0.729-1.701-1.094-2.852-1.094L210.211,119.754z
		 M218,124.661c0,3.115-1.137,5.812-3.414,8.087c-2.275,2.188-4.96,3.281-8.054,3.281c-3.226,0-5.921-1.093-8.087-3.281
		c-2.254-2.275-3.381-4.972-3.381-8.087c0-3.204,1.127-5.889,3.381-8.055c2.166-2.254,4.861-3.381,8.087-3.381
		c3.094,0,5.778,1.127,8.054,3.381C216.863,118.772,218,121.457,218,124.661z M218,177.029c0,3.205-1.137,5.9-3.414,8.088
		c-2.275,2.275-4.96,3.414-8.054,3.414c-3.226,0-5.921-1.139-8.087-3.414c-2.254-2.188-3.381-4.883-3.381-8.088
		c0-3.115,1.127-5.799,3.381-8.055c2.166-2.254,4.861-3.379,8.087-3.379c3.094,0,5.778,1.125,8.054,3.379
		C216.863,171.23,218,173.914,218,177.029z M251.543,151.275l1.956,1.459c0.376,0.375,0.563,0.883,0.563,1.525
		c0,0.662-0.232,1.182-0.696,1.557c-0.375,0.377-0.983,0.564-1.823,0.564s-1.457-0.188-1.855-0.564
		c-0.465-0.375-0.696-0.895-0.696-1.557c0-0.643,0.177-1.15,0.53-1.525L251.543,151.275z M158.969,95.659
		c0.465-0.464,1.116-0.696,1.956-0.696c0.884,0,1.503,0.232,1.856,0.696c0.486,0.464,0.729,1.082,0.729,1.855
		c0,0.752-0.242,1.459-0.729,2.122c-0.465,0.464-1.083,0.696-1.856,0.696c-0.641,0-1.293-0.232-1.956-0.696
		c-0.486-0.663-0.729-1.326-0.729-1.989C158.24,96.785,158.482,96.123,158.969,95.659z M159.665,93.703l2.154-2.982l2.387-2.255
		h-2.387c-1.989,1.79-3.358,3.348-4.11,4.674c-0.861,1.591-1.292,3.005-1.292,4.243c0,1.392,0.431,2.508,1.292,3.347
		c0.752,0.884,1.824,1.326,3.216,1.326c1.348,0,2.441-0.442,3.281-1.326c0.751-0.729,1.127-1.801,1.127-3.215
		c0-1.237-0.376-2.231-1.127-2.982c-0.663-0.84-1.657-1.26-2.983-1.26l-0.861,0.133L159.665,93.703z M169.012,87.14
		c2.276,2.188,3.414,4.895,3.414,8.12c0,3.094-1.138,5.768-3.414,8.021c-2.275,2.275-4.972,3.414-8.087,3.414
		c-3.204,0-5.889-1.139-8.055-3.414c-2.253-2.254-3.38-4.928-3.38-8.021c0-3.226,1.127-5.933,3.38-8.12
		c2.166-2.254,4.851-3.381,8.055-3.381C164.04,83.759,166.736,84.886,169.012,87.14z M113.793,60.392
		c3.226,0,5.922,1.138,8.086,3.413c2.277,2.276,3.415,4.973,3.415,8.088c0,3.204-1.138,5.89-3.415,8.055
		c-2.164,2.254-4.86,3.381-8.086,3.381c-3.205,0-5.878-1.127-8.022-3.381c-2.276-2.165-3.414-4.851-3.414-8.055
		c0-3.115,1.138-5.812,3.414-8.088C107.915,61.53,110.588,60.392,113.793,60.392z M115.383,65.264h-1.855l-3.978,8.485v1.955h5.104
		v2.983h1.69v-2.983h1.856v-1.69h-1.856v-2.85h-1.69v2.85h-3.381L115.383,65.264z M117.206,119.457v-1.558h-6.629l-0.464,6.065
		l2.287-0.132c1.127,0,1.922,0.242,2.387,0.729c0.596,0.464,0.895,1.072,0.895,1.823c0,1.038-0.441,1.834-1.326,2.386
		c-0.928,0.686-2.143,1.028-3.646,1.028l-0.464-0.133h-0.265v1.69h0.597c2.254,0,3.999-0.432,5.237-1.293
		c1.215-0.949,1.822-2.121,1.822-3.514c0-1.325-0.431-2.375-1.292-3.148c-0.95-0.84-2.077-1.26-3.381-1.26H112.4l-0.431,0.133
		l0.132-2.817H117.206z M125.294,124.528c0,3.204-1.138,5.899-3.415,8.088c-2.164,2.275-4.86,3.413-8.086,3.413
		c-3.205,0-5.878-1.138-8.022-3.413c-2.276-2.188-3.414-4.884-3.414-8.088c0-3.115,1.138-5.812,3.414-8.088
		c2.144-2.254,4.817-3.38,8.022-3.38c3.226,0,5.922,1.126,8.086,3.38C124.156,118.716,125.294,121.413,125.294,124.528z
		 M115.383,169.971h-1.855l-3.978,8.484v2.021h5.104v2.949h1.69v-2.949h1.856v-1.723h-1.856v-2.818h-1.69v2.818h-3.381
		L115.383,169.971z M113.793,165.164c3.226,0,5.922,1.127,8.086,3.381c2.277,2.254,3.415,4.938,3.415,8.055
		c0,3.227-1.138,5.922-3.415,8.086c-2.164,2.275-4.86,3.414-8.086,3.414c-3.205,0-5.878-1.139-8.022-3.414
		c-2.276-2.164-3.414-4.859-3.414-8.086c0-3.117,1.138-5.801,3.414-8.055C107.915,166.291,110.588,165.164,113.793,165.164z
		 M149.49,149.552c0-3.203,1.127-5.878,3.38-8.021c2.166-2.275,4.851-3.413,8.055-3.413c3.115,0,5.812,1.138,8.087,3.413
		c2.276,2.144,3.414,4.818,3.414,8.021c0,3.225-1.138,5.922-3.414,8.088c-2.275,2.275-4.972,3.412-8.087,3.412
		c-3.204,0-5.889-1.137-8.055-3.412C150.617,155.475,149.49,152.777,149.49,149.552z M158.671,143.089l-1.524,0.729v2.089
		c0.287-0.266,0.938-0.641,1.955-1.127c0.574-0.288,1.094-0.432,1.558-0.432c0.553,0,1.116,0.199,1.69,0.597
		c0.398,0.376,0.598,0.84,0.598,1.393l-0.432,1.292c-0.11,0.288-0.597,0.763-1.459,1.426l-1.523,0.962
		c-1.039,0.751-1.746,1.512-2.122,2.286c-0.397,0.664-0.597,1.746-0.597,3.248v0.83h7.955v-1.691h-5.934v-0.43
		c0-0.643,0.188-1.15,0.564-1.525c0.375-0.486,0.928-1.016,1.656-1.592l1.293-0.828c0.861-0.464,1.525-1.083,1.989-1.856
		c0.376-0.464,0.563-1.127,0.563-1.989c0-1.215-0.376-2.055-1.127-2.519c-0.663-0.685-1.701-1.027-3.116-1.027L158.671,143.089z
		 M208.389,172.654c0.464,0.486,0.695,1.148,0.695,1.988c0,0.664-0.231,1.338-0.695,2.021c-0.508,0.443-1.127,0.664-1.856,0.664
		c-0.663,0-1.325-0.221-1.988-0.664c-0.376-0.396-0.563-1.07-0.563-2.021c0-0.928,0.188-1.59,0.563-1.988
		c0.464-0.465,1.127-0.695,1.988-0.695C207.372,171.959,207.99,172.189,208.389,172.654z M201.991,174.643
		c0,1.15,0.376,2.188,1.128,3.117c0.861,0.861,1.855,1.291,2.982,1.291l1.69-0.43l-4.541,5.203h2.42
		c1.9-1.855,3.271-3.502,4.11-4.938c0.839-1.393,1.259-2.707,1.259-3.945c0-1.414-0.42-2.553-1.259-3.414
		c-0.84-0.861-1.979-1.293-3.414-1.293c-1.305,0-2.343,0.432-3.116,1.293C202.411,172.389,201.991,173.428,201.991,174.643z
		 M68.35,95.791c-0.928-0.751-2-1.126-3.215-1.126h-0.994l0.132-2.817h5.104v-1.559h-6.663l-0.431,6.066l2.154-0.133
		c1.017,0,1.856,0.243,2.52,0.729c0.552,0.464,0.829,1.072,0.829,1.823c0,1.127-0.42,1.988-1.26,2.586
		c-0.84,0.552-2.066,0.828-3.679,0.828h-0.696v1.558h0.563c2.254,0,3.945-0.431,5.072-1.292c1.348-0.841,2.021-2.011,2.021-3.514
		C69.809,97.703,69.323,96.653,68.35,95.791z M74.051,88.996c2.254,2.167,3.381,4.851,3.381,8.055c0,3.116-1.127,5.812-3.381,8.088
		c-2.188,2.275-4.883,3.413-8.087,3.413s-5.9-1.138-8.087-3.413c-2.232-2.276-3.348-4.972-3.348-8.088
		c0-3.204,1.116-5.888,3.348-8.055c2.188-2.253,4.883-3.38,8.087-3.38S71.864,86.743,74.051,88.996z M61.721,141.664v1.724h5.635
		l-3.48,3.646v1.326h0.696c1.215,0,2.144,0.176,2.784,0.529c0.574,0.486,0.862,1.105,0.862,1.856c0,0.84-0.288,1.547-0.862,2.122
		c-0.641,0.465-1.381,0.695-2.221,0.695l-1.724-0.133l-1.69-0.695v1.822l1.69,0.564l1.558,0.133c1.591,0,2.872-0.377,3.845-1.127
		c0.928-0.84,1.392-1.934,1.392-3.282c0-1.017-0.32-1.944-0.961-2.784c-0.597-0.597-1.591-0.983-2.983-1.16l3.414-3.381v-1.856
		H61.721z M74.051,140.371c2.254,2.166,3.381,4.851,3.381,8.055c0,3.227-1.127,5.922-3.381,8.088
		c-2.188,2.275-4.883,3.412-8.087,3.412s-5.9-1.137-8.087-3.412c-2.232-2.166-3.348-4.861-3.348-8.088
		c0-3.204,1.116-5.889,3.348-8.055c2.188-2.253,4.883-3.38,8.087-3.38S71.864,138.118,74.051,140.371z M74.051,194.598
		c2.254,2.164,3.381,4.85,3.381,8.053c0,3.115-1.127,5.813-3.381,8.088c-2.188,2.254-4.883,3.381-8.087,3.381
		s-5.9-1.127-8.087-3.381c-2.232-2.275-3.348-4.973-3.348-8.088c0-3.203,1.116-5.889,3.348-8.053
		c2.188-2.277,4.883-3.414,8.087-3.414S71.864,192.32,74.051,194.598z M65.964,202.816c0.862,0.377,1.525,0.807,1.989,1.293
		c0.397,0.375,0.597,0.883,0.597,1.525c0,0.75-0.254,1.314-0.762,1.689c-0.553,0.375-1.16,0.564-1.823,0.564
		c-0.663,0-1.271-0.189-1.823-0.564c-0.486-0.375-0.729-0.939-0.729-1.689c0-0.643,0.199-1.15,0.597-1.525
		C64.473,203.623,65.124,203.193,65.964,202.816z M67.356,197.713c0.397,0.287,0.597,0.674,0.597,1.158
		c0,0.465-0.144,0.842-0.431,1.129l-1.558,0.994c-0.663-0.287-1.171-0.619-1.525-0.994c-0.287-0.287-0.431-0.664-0.431-1.129
		c0-0.484,0.144-0.871,0.431-1.158c0.464-0.287,0.973-0.432,1.525-0.432C66.627,197.281,67.091,197.426,67.356,197.713z
		 M62.152,203.547c-0.464,0.75-0.696,1.502-0.696,2.252c0,1.215,0.365,2.111,1.094,2.686c0.751,0.662,1.889,0.994,3.414,0.994
		c1.502,0,2.596-0.332,3.281-0.994c0.84-0.574,1.259-1.471,1.259-2.686c0-0.75-0.231-1.457-0.696-2.121
		c-0.375-0.684-1.094-1.303-2.154-1.855c0.862-0.465,1.392-0.928,1.591-1.393c0.376-0.463,0.563-1.039,0.563-1.723
		c0-0.863-0.332-1.568-0.994-2.121c-0.685-0.576-1.635-0.863-2.851-0.863c-1.127,0-2.077,0.287-2.851,0.863
		c-0.641,0.553-0.961,1.258-0.961,2.121c0,0.574,0.132,1.148,0.397,1.723c0.376,0.465,0.95,0.928,1.724,1.393
		C63.323,202.375,62.616,202.949,62.152,203.547z M70.372,250.811v-0.564h-8.783v1.559h6.496v0.133l-0.132,0.564l-1.856,2.287
		c-0.928,1.037-1.58,2.121-1.955,3.248c-0.486,1.414-0.729,2.684-0.729,3.811v1.658h1.856v-1.658c0-0.84,0.188-1.934,0.563-3.281
		c0.464-1.016,1.028-1.955,1.69-2.816l0.829-1.127l0.464-0.299C69.853,253.02,70.372,251.85,70.372,250.811z M74.051,248.822
		c2.254,2.254,3.381,4.928,3.381,8.021c0,3.248-1.127,5.943-3.381,8.086c-2.188,2.277-4.883,3.416-8.087,3.416
		s-5.9-1.139-8.087-3.416c-2.232-2.143-3.348-4.838-3.348-8.086c0-3.094,1.116-5.768,3.348-8.021
		c2.188-2.275,4.883-3.414,8.087-3.414S71.864,246.547,74.051,248.822z M169.012,195.16c2.276,2.254,3.414,4.939,3.414,8.055
		c0,3.203-1.138,5.898-3.414,8.086c-2.275,2.254-4.972,3.383-8.087,3.383c-3.204,0-5.889-1.129-8.055-3.383
		c-2.253-2.188-3.38-4.883-3.38-8.086c0-3.115,1.127-5.801,3.38-8.055c2.166-2.275,4.851-3.414,8.055-3.414
		C164.04,191.746,166.736,192.885,169.012,195.16z M164.339,198.143v-1.557h-6.762l-0.431,6.064l2.254-0.133
		c1.016,0,1.867,0.188,2.552,0.564c0.553,0.574,0.829,1.248,0.829,2.021c0,1.016-0.432,1.813-1.293,2.387
		c-0.84,0.574-2.055,0.861-3.646,0.861h-0.695v1.691h0.563c2.145,0,3.834-0.42,5.072-1.26c1.236-0.861,1.855-2.045,1.855-3.547
		c0-1.348-0.42-2.387-1.26-3.115c-0.861-0.861-2-1.293-3.414-1.293h-0.861l0.166-2.686H164.339z M117.902,226.715
		c0-1.018-0.375-1.9-1.127-2.652c-0.729-0.662-1.813-0.994-3.248-0.994l-1.823,0.266l-1.724,0.729v2.088l2.121-1.127
		c0.574-0.264,1.094-0.396,1.559-0.396c0.662,0,1.193,0.188,1.59,0.563c0.465,0.266,0.697,0.686,0.697,1.26
		s-0.145,1.049-0.432,1.426c-0.287,0.375-0.807,0.795-1.558,1.26l-1.425,0.994c-1.039,0.75-1.735,1.514-2.089,2.287
		c-0.508,0.928-0.762,2.055-0.762,3.379v0.465l0.166,0.266h7.789v-1.592h-5.8v-0.396c0-0.576,0.144-1.139,0.431-1.691
		c0.266-0.375,0.873-0.906,1.822-1.59l1.293-0.697l1.989-1.822C117.726,227.984,117.902,227.311,117.902,226.715z M113.793,218.361
		c3.226,0,5.922,1.139,8.086,3.414c2.277,2.166,3.415,4.85,3.415,8.055c0,3.137-1.138,5.822-3.415,8.055
		c-2.164,2.275-4.86,3.412-8.086,3.412c-3.205,0-5.878-1.137-8.022-3.412c-2.276-2.232-3.414-4.918-3.414-8.055
		c0-3.205,1.138-5.889,3.414-8.055C107.915,219.5,110.588,218.361,113.793,218.361z"/>
</g>
</svg>
