<?xml version="1.0" encoding="utf-8"?>
<!-- Generator: Adobe Illustrator 16.0.0, SVG Export Plug-In . SVG Version: 6.00 Build 0)  -->
<!DOCTYPE svg PUBLIC "-//W3C//DTD SVG 1.1//EN" "http://www.w3.org/Graphics/SVG/1.1/DTD/svg11.dtd">
<svg version="1.1" id="Layer_1" xmlns="http://www.w3.org/2000/svg" xmlns:xlink="http://www.w3.org/1999/xlink" x="0px" y="0px"
	 width="300px" height="300px" viewBox="0 0 300 300" enable-background="new 0 0 300 300" xml:space="preserve">
<g>
	<path fill-rule="evenodd" clip-rule="evenodd" fill="#F58F87" d="M145.026,31.065c0.324-1.765,1.254-2.646,2.792-2.646h26.249
		c1.846,0.307,2.769,1.189,2.769,2.646v39.483c6.119,0.907,9.179,2.04,9.179,3.399c-0.34,1.279-2.784,2.323-7.333,3.133
		c-4.89,0.857-10.813,1.287-17.775,1.287c-7.268-0.064-13.169-0.494-17.702-1.287c-4.904-0.858-7.358-1.903-7.358-3.133
		c0.535-1.441,3.595-2.574,9.179-3.399V31.065z"/>
	<path fill-rule="evenodd" clip-rule="evenodd" fill="#1C0C11" d="M163.578,101.776c0.971,0.049,1.942,0.129,2.914,0.243
		c0.955,0.081,1.909,0.194,2.864,0.34c0.972,0.146,1.91,0.315,2.817,0.51c0.922,0.194,1.854,0.404,2.792,0.631
		c0.923,0.243,1.83,0.494,2.72,0.753c0.907,0.275,1.805,0.574,2.695,0.898c0.858,0.324,1.724,0.672,2.599,1.045
		c0.874,0.339,1.724,0.72,2.55,1.141c0.825,0.388,1.651,0.801,2.477,1.238c0.825,0.421,1.636,0.874,2.428,1.359
		c0.777,0.486,1.547,0.98,2.307,1.481c0.777,0.518,1.547,1.061,2.308,1.627c0.712,0.534,1.433,1.092,2.161,1.676
		c0.695,0.566,1.376,1.165,2.04,1.797c0.68,0.583,1.344,1.198,1.991,1.845c-0.697-0.987-1.426-1.975-2.186-2.962
		c-0.777-0.923-1.563-1.83-2.355-2.72c-0.842-0.907-1.709-1.781-2.599-2.623c-0.89-0.858-1.797-1.675-2.72-2.453
		c-0.955-0.81-1.918-1.57-2.89-2.283c-1.003-0.728-2.007-1.432-3.011-2.112c-1.069-0.647-2.129-1.271-3.181-1.869
		c-1.102-0.583-2.21-1.15-3.327-1.7c-1.117-0.518-2.274-1.004-3.473-1.457c-1.133-0.453-2.307-0.866-3.521-1.239
		c-1.198-0.388-2.412-0.72-3.643-0.996c-1.23-0.324-2.468-0.591-3.715-0.801c1.052,0.032,2.112,0.105,3.182,0.218
		c1.052,0.13,2.104,0.268,3.156,0.413c1.02,0.162,2.048,0.348,3.083,0.558c1.036,0.211,2.064,0.445,3.084,0.705
		c1.005,0.259,1.992,0.542,2.963,0.85c0.972,0.308,1.951,0.631,2.938,0.971c0.955,0.356,1.91,0.737,2.865,1.142
		c0.955,0.373,1.886,0.769,2.792,1.189c0.923,0.454,1.829,0.915,2.72,1.384c0.907,0.486,1.797,0.979,2.671,1.481
		c0.858,0.534,1.708,1.076,2.55,1.626c0.858,0.551,1.691,1.126,2.501,1.725c0.825,0.599,1.635,1.214,2.429,1.846
		c0.776,0.615,1.545,1.262,2.307,1.942c0.776,0.647,1.521,1.327,2.234,2.04c0.744,0.695,1.456,1.408,2.137,2.136
		c0.695,0.712,1.367,1.457,2.015,2.234c0.664,0.761,1.304,1.529,1.919,2.307c0.631,0.809,1.238,1.619,1.82,2.428
		c0.6,0.825,1.183,1.675,1.749,2.549c0.518,0.81,1.036,1.659,1.554,2.55c0.519,0.89,1.005,1.78,1.457,2.671
		c0.47,0.906,0.924,1.813,1.359,2.719c0.438,0.955,0.843,1.894,1.215,2.817c0.404,0.955,0.769,1.926,1.093,2.914
		c0.34,0.955,0.655,1.926,0.946,2.914c0.292,0.987,0.567,1.983,0.826,2.987c0.259,1.02,0.502,2.04,0.729,3.06
		c0.179,1.02,0.348,2.056,0.51,3.108c0.13,1.036,0.259,2.096,0.389,3.181c0.097,1.035,0.162,2.096,0.194,3.181
		c0.064,1.101,0.098,2.178,0.098,3.229c0,1.521-0.041,3.02-0.122,4.492c-0.113,1.474-0.267,2.931-0.461,4.371
		c-0.211,1.457-0.462,2.897-0.753,4.322c-0.292,1.408-0.623,2.8-0.995,4.177c-0.39,1.392-0.811,2.752-1.264,4.079
		c-0.47,1.344-0.979,2.663-1.529,3.958c-0.567,1.312-1.149,2.59-1.749,3.837c-0.647,1.279-1.319,2.509-2.015,3.69
		c-0.713,1.214-1.466,2.405-2.259,3.569c-0.776,1.15-1.578,2.275-2.403,3.376c-0.874,1.1-1.765,2.169-2.672,3.205
		c-0.938,1.036-1.886,2.056-2.84,3.06c-1.005,0.971-2.032,1.934-3.085,2.89c-1.035,0.906-2.104,1.781-3.205,2.622
		c-1.101,0.858-2.226,1.685-3.375,2.477c-1.166,0.778-2.348,1.507-3.545,2.187c-1.214,0.743-2.453,1.416-3.716,2.015
		c-1.263,0.647-2.55,1.247-3.86,1.798c-1.279,0.55-2.591,1.052-3.934,1.505c-1.344,0.453-2.704,0.89-4.08,1.312
		c-1.392,0.372-2.801,0.704-4.225,0.995c-1.425,0.292-2.866,0.534-4.323,0.729c-1.392,0.194-2.84,0.34-4.347,0.437
		c-1.488,0.114-2.97,0.171-4.443,0.171c-1.505,0-2.994-0.057-4.468-0.171c-1.473-0.097-2.93-0.242-4.37-0.437
		c-1.458-0.194-2.898-0.437-4.323-0.729c-1.424-0.291-2.816-0.623-4.177-0.995c-1.408-0.422-2.784-0.858-4.127-1.312
		c-1.344-0.453-2.655-0.955-3.935-1.505c-1.311-0.551-2.59-1.15-3.836-1.798c-1.279-0.599-2.501-1.271-3.667-2.015
		c-1.214-0.68-2.42-1.408-3.619-2.187c-1.133-0.792-2.258-1.618-3.375-2.477c-1.101-0.841-2.17-1.716-3.205-2.622
		c-1.052-0.956-2.056-1.919-3.011-2.89c-0.987-1.004-1.942-2.023-2.865-3.06c-0.939-1.036-1.822-2.105-2.646-3.205
		c-0.875-1.101-1.7-2.226-2.478-3.376c-0.793-1.164-1.545-2.355-2.258-3.569c-0.696-1.182-1.368-2.411-2.016-3.69
		c-0.599-1.247-1.182-2.525-1.749-3.837c-0.534-1.295-1.044-2.614-1.53-3.958c-0.454-1.327-0.874-2.688-1.263-4.079
		c-0.373-1.377-0.704-2.769-0.996-4.177c-0.292-1.425-0.534-2.865-0.729-4.322c-0.21-1.44-0.355-2.897-0.437-4.371
		c-0.113-1.473-0.17-2.971-0.17-4.492c0-0.81,0.025-1.651,0.074-2.525c0.016-0.793,0.057-1.603,0.121-2.428
		c0.064-0.842,0.137-1.659,0.219-2.453c0.113-0.858,0.227-1.684,0.34-2.477c0.129-0.793,0.267-1.579,0.413-2.355
		c0.13-0.81,0.292-1.603,0.486-2.38c0.194-0.776,0.389-1.562,0.583-2.355c0.195-0.761,0.421-1.53,0.68-2.306
		c0.243-0.761,0.494-1.522,0.753-2.283c0.227-0.729,0.494-1.473,0.801-2.234c-0.194,0.761-0.381,1.529-0.559,2.307
		c-0.194,0.777-0.356,1.563-0.485,2.355c-0.162,0.776-0.3,1.57-0.414,2.38c-0.113,0.825-0.202,1.643-0.267,2.452
		c-0.081,0.826-0.129,1.676-0.146,2.55c-0.064,0.81-0.097,1.66-0.097,2.549c0,1.393,0.048,2.752,0.146,4.079
		c0.097,1.345,0.242,2.663,0.437,3.959c0.162,1.327,0.396,2.639,0.705,3.933c0.259,1.279,0.583,2.559,0.971,3.837
		c0.356,1.23,0.761,2.453,1.214,3.667c0.42,1.23,0.906,2.429,1.457,3.594c0.486,1.165,1.027,2.291,1.627,3.375
		c0.599,1.149,1.23,2.25,1.894,3.303c-0.163-0.437-0.324-0.857-0.486-1.263c-0.162-0.438-0.323-0.883-0.485-1.336
		c-0.13-0.437-0.259-0.866-0.389-1.286c-0.21-0.696-0.413-1.376-0.607-2.04c-0.194-0.729-0.372-1.433-0.534-2.112
		c-0.162-0.696-0.308-1.408-0.437-2.138c-0.129-0.695-0.251-1.399-0.364-2.112c-0.113-0.712-0.21-1.424-0.291-2.137
		c-0.064-0.761-0.138-1.497-0.219-2.21c-0.064-0.744-0.098-1.489-0.098-2.234c-0.048-0.712-0.072-1.447-0.072-2.209
		c0-1.344,0.057-2.679,0.17-4.007c0.081-1.312,0.21-2.605,0.388-3.885c0.163-1.247,0.373-2.51,0.632-3.788
		c0.243-1.263,0.542-2.509,0.898-3.74c0.324-1.23,0.696-2.437,1.117-3.618c0.42-1.214,0.874-2.396,1.359-3.545
		c0.502-1.149,1.037-2.299,1.604-3.448c0.566-1.068,1.149-2.145,1.748-3.229c0.631-1.085,1.287-2.145,1.966-3.181
		c0.697-1.02,1.425-2.016,2.186-2.987c0.777-0.987,1.563-1.934,2.356-2.841c0.857-0.939,1.715-1.854,2.573-2.744
		c0.891-0.858,1.789-1.708,2.695-2.55c0.923-0.809,1.886-1.578,2.891-2.307c0.971-0.777,1.967-1.497,2.986-2.161
		c1.036-0.745,2.097-1.433,3.182-2.064c1.067-0.599,2.144-1.182,3.229-1.748c1.133-0.55,2.283-1.077,3.448-1.579
		c1.133-0.502,2.308-0.955,3.521-1.359c1.198-0.389,2.412-0.761,3.643-1.117c1.214-0.356,2.444-0.656,3.691-0.899
		c1.262-0.259,2.542-0.477,3.836-0.655c1.279-0.178,2.574-0.307,3.885-0.388c1.327-0.114,2.655-0.17,3.982-0.17
		C161.619,101.679,162.606,101.711,163.578,101.776z M149.591,111.902c-0.729,0-1.465,0.032-2.21,0.097
		c-0.729,0.049-1.449,0.13-2.161,0.243c-0.713,0.082-1.425,0.195-2.137,0.34c-0.696,0.162-1.376,0.324-2.04,0.486
		c-0.729,0.194-1.425,0.413-2.088,0.656c-0.631,0.21-1.271,0.445-1.919,0.704c-0.647,0.292-1.271,0.599-1.87,0.923
		c-0.647,0.324-1.279,0.655-1.894,0.996c-0.583,0.355-1.166,0.712-1.749,1.068c-0.566,0.421-1.125,0.842-1.676,1.263
		c-1.084,0.826-2.12,1.741-3.108,2.744c-0.955,0.971-1.87,2.007-2.744,3.108c-0.404,0.518-0.801,1.077-1.19,1.675
		c-0.388,0.566-0.76,1.141-1.117,1.724c-0.34,0.631-0.672,1.247-0.995,1.845c-0.324,0.631-0.616,1.263-0.875,1.894
		c-0.275,0.647-0.534,1.303-0.777,1.967c-0.21,0.68-0.404,1.352-0.583,2.015c-0.194,0.712-0.38,1.417-0.558,2.113
		c-0.13,0.695-0.251,1.408-0.365,2.136c-0.097,0.697-0.162,1.417-0.194,2.162c-0.032,0.728-0.049,1.465-0.049,2.209
		c0,1.101,0.049,2.209,0.146,3.327c0.113,1.052,0.267,2.12,0.461,3.205c0.226,1.036,0.501,2.064,0.825,3.083
		c0.324,0.987,0.688,1.968,1.092,2.938c0.389,0.972,0.842,1.927,1.361,2.865c0.517,0.906,1.06,1.789,1.626,2.646
		c0.583,0.874,1.199,1.708,1.846,2.502c0.664,0.809,1.359,1.578,2.087,2.307c0.745,0.712,1.506,1.4,2.283,2.063
		c0.81,0.664,1.643,1.287,2.501,1.87c0.875,0.599,1.764,1.133,2.671,1.603c0.922,0.502,1.87,0.963,2.84,1.384
		c0.955,0.405,1.927,0.77,2.914,1.094c1.052,0.307,2.097,0.565,3.133,0.776c1.084,0.21,2.153,0.372,3.205,0.485
		c1.101,0.113,2.202,0.17,3.303,0.17c0.76,0,1.505-0.024,2.234-0.072c0.744-0.065,1.465-0.13,2.161-0.194
		c0.729-0.114,1.44-0.243,2.137-0.389c0.712-0.146,1.4-0.316,2.063-0.51c0.696-0.179,1.376-0.373,2.04-0.583
		c0.68-0.259,1.327-0.518,1.942-0.777c0.664-0.275,1.304-0.574,1.918-0.898c0.632-0.324,1.247-0.655,1.847-0.995
		c0.599-0.341,1.189-0.704,1.772-1.093c0.55-0.389,1.101-0.793,1.65-1.214c1.102-0.858,2.146-1.765,3.133-2.72
		c0.971-0.987,1.87-2.023,2.695-3.108c0.438-0.567,0.858-1.133,1.263-1.7c0.373-0.583,0.729-1.173,1.069-1.772
		c0.355-0.582,0.695-1.182,1.019-1.797c0.292-0.647,0.584-1.295,0.875-1.942c0.275-0.647,0.518-1.295,0.729-1.942
		c0.242-0.664,0.461-1.345,0.655-2.04c0.178-0.664,0.332-1.344,0.461-2.04c0.179-0.745,0.308-1.457,0.39-2.137
		c0.112-0.712,0.186-1.441,0.218-2.186c0.065-0.761,0.097-1.497,0.097-2.209c0-0.745-0.031-1.481-0.097-2.209
		c-0.032-0.745-0.105-1.465-0.218-2.162c-0.082-0.728-0.211-1.441-0.39-2.136c-0.129-0.696-0.283-1.401-0.461-2.113
		c-0.194-0.664-0.413-1.335-0.655-2.015c-0.211-0.664-0.453-1.32-0.729-1.967c-0.291-0.631-0.583-1.263-0.875-1.894
		c-0.323-0.599-0.663-1.214-1.019-1.845c-0.341-0.583-0.696-1.158-1.069-1.724c-0.404-0.599-0.825-1.157-1.263-1.675
		c-0.825-1.101-1.725-2.137-2.695-3.108c-0.987-1.003-2.031-1.918-3.133-2.744c-0.55-0.42-1.101-0.841-1.65-1.263
		c-0.583-0.356-1.174-0.712-1.772-1.068c-0.6-0.34-1.215-0.672-1.847-0.996c-0.614-0.324-1.254-0.631-1.918-0.923
		c-0.615-0.259-1.263-0.494-1.942-0.704c-0.664-0.243-1.344-0.461-2.04-0.656c-0.663-0.162-1.352-0.324-2.063-0.486
		c-0.696-0.146-1.408-0.259-2.137-0.34c-0.696-0.112-1.417-0.194-2.161-0.243C151.097,111.934,150.352,111.902,149.591,111.902z
		 M146.216,119.891c0.291-0.064,0.574-0.122,0.85-0.17c0.259-0.016,0.542-0.048,0.85-0.097c0.275-0.017,0.55-0.024,0.826-0.024
		h0.461c0.194,0,0.405,0,0.632,0c0.209,0,0.444,0.008,0.703,0.024c0.259,0.049,0.543,0.089,0.85,0.122
		c0.292,0.032,0.591,0.089,0.898,0.17c0.275,0.064,0.559,0.129,0.85,0.194c0.308,0.082,0.592,0.179,0.851,0.292
		c0.291,0.097,0.566,0.21,0.825,0.34c0.291,0.098,0.551,0.203,0.777,0.316c0.259,0.129,0.51,0.259,0.753,0.388
		c0.275,0.179,0.525,0.333,0.752,0.461c0.227,0.146,0.462,0.308,0.705,0.486c0.226,0.146,0.445,0.316,0.655,0.51
		c0.21,0.195,0.413,0.381,0.607,0.559c0.193,0.194,0.389,0.389,0.582,0.583c0.194,0.21,0.373,0.42,0.534,0.631
		c0.194,0.178,0.364,0.38,0.511,0.607c0.178,0.227,0.34,0.461,0.485,0.705c0.146,0.259,0.283,0.51,0.412,0.752
		c0.163,0.227,0.292,0.47,0.39,0.729c0.113,0.259,0.227,0.518,0.339,0.777c0.114,0.243,0.211,0.502,0.292,0.777
		c0.064,0.275,0.13,0.542,0.193,0.801c0.082,0.275,0.139,0.55,0.171,0.826c0.032,0.291,0.073,0.575,0.121,0.85
		c0.016,0.275,0.024,0.542,0.024,0.801c0,0.308-0.009,0.591-0.024,0.85c0,0.307-0.032,0.615-0.097,0.922
		c-0.017,0.259-0.073,0.535-0.17,0.826c-0.033,0.259-0.098,0.534-0.194,0.826c-0.081,0.275-0.154,0.534-0.219,0.777
		c-0.113,0.276-0.243,0.543-0.389,0.802c-0.113,0.243-0.234,0.494-0.364,0.753c-0.13,0.242-0.267,0.469-0.412,0.68
		c-0.162,0.243-0.324,0.469-0.485,0.68c-0.179,0.21-0.341,0.429-0.486,0.656c-0.194,0.194-0.405,0.389-0.632,0.583
		c-0.193,0.194-0.389,0.389-0.582,0.583c-0.194,0.162-0.397,0.332-0.607,0.51c-0.242,0.146-0.47,0.308-0.68,0.486
		c-0.243,0.146-0.486,0.292-0.729,0.437c0.162,0.195,0.315,0.389,0.462,0.583c0.177,0.162,0.34,0.356,0.484,0.583
		c0.194,0.227,0.373,0.494,0.535,0.801c0.194,0.259,0.355,0.526,0.485,0.802c0.162,0.259,0.308,0.542,0.438,0.85
		c0.129,0.308,0.25,0.599,0.364,0.874c0.129,0.292,0.234,0.583,0.315,0.874c0.112,0.308,0.194,0.615,0.242,0.923
		c0.082,0.275,0.154,0.575,0.219,0.898c0.016,0.324,0.049,0.64,0.098,0.947c0,0.324,0.023,0.647,0.073,0.971
		c0,0.324-0.025,0.64-0.073,0.947c-0.017,0.324-0.041,0.647-0.073,0.971c-0.065,0.324-0.129,0.632-0.194,0.923
		c-0.064,0.324-0.146,0.64-0.243,0.947c-0.064,0.308-0.153,0.623-0.267,0.947c-0.146,0.307-0.284,0.599-0.413,0.874
		c-0.13,0.275-0.259,0.559-0.389,0.85c-0.323,0.534-0.671,1.061-1.044,1.578c-0.421,0.485-0.841,0.955-1.263,1.409
		c-0.453,0.42-0.938,0.816-1.457,1.189c-0.259,0.194-0.518,0.389-0.776,0.582c-0.292,0.146-0.566,0.309-0.826,0.486
		c-0.275,0.13-0.543,0.259-0.801,0.389c-0.308,0.178-0.6,0.315-0.874,0.412c-0.292,0.098-0.575,0.195-0.851,0.292
		c-0.307,0.113-0.623,0.21-0.947,0.292c-0.292,0.097-0.591,0.186-0.899,0.267c-0.308,0.048-0.623,0.105-0.946,0.17
		c-0.324,0.049-0.647,0.081-0.972,0.097c-0.324,0.017-0.647,0.024-0.972,0.024h-0.461c-0.259,0-0.518,0-0.776,0
		c-0.227-0.017-0.485-0.032-0.777-0.049c-0.324-0.031-0.655-0.081-0.995-0.146c-0.324-0.032-0.664-0.081-1.021-0.146
		c-0.987-0.242-1.95-0.55-2.89-0.923c-0.906-0.389-1.756-0.842-2.549-1.359c-0.827-0.519-1.587-1.101-2.283-1.749
		c-0.663-0.68-1.278-1.376-1.845-2.088c-0.55-0.777-1.036-1.595-1.457-2.452c-0.389-0.891-0.688-1.789-0.898-2.695
		c-0.227-0.907-0.349-1.837-0.364-2.793c0-0.955,0.105-1.918,0.315-2.89c0.049-0.324,0.129-0.647,0.243-0.971
		c0.081-0.275,0.178-0.566,0.292-0.874c0.129-0.308,0.258-0.599,0.388-0.874c0.129-0.308,0.268-0.591,0.413-0.85
		c0.162-0.275,0.34-0.542,0.535-0.801c0.146-0.275,0.315-0.534,0.51-0.777c0.388-0.502,0.8-0.971,1.238-1.409
		c0.453-0.421,0.938-0.826,1.457-1.214c0.243-0.194,0.494-0.38,0.752-0.559c0.276-0.194,0.567-0.355,0.875-0.485
		c0.194-0.129,0.421-0.251,0.68-0.364c0.211-0.129,0.438-0.234,0.68-0.315c-0.501-0.696-0.923-1.425-1.263-2.185
		c-0.356-0.745-0.632-1.522-0.826-2.332c-0.162-0.793-0.243-1.611-0.243-2.453c-0.032-0.826,0.041-1.651,0.219-2.477
		c0.081-0.308,0.17-0.599,0.267-0.874c0.033-0.276,0.105-0.559,0.219-0.85c0.113-0.259,0.235-0.502,0.364-0.729
		c0.097-0.243,0.21-0.502,0.34-0.777c0.162-0.243,0.316-0.469,0.461-0.68c0.178-0.243,0.34-0.478,0.486-0.704
		c0.146-0.21,0.315-0.421,0.51-0.631c0.194-0.227,0.404-0.421,0.631-0.583c0.162-0.227,0.356-0.421,0.583-0.583
		c0.21-0.178,0.429-0.356,0.655-0.534c0.21-0.146,0.438-0.308,0.68-0.485c0.227-0.146,0.47-0.283,0.729-0.413
		c0.243-0.146,0.485-0.284,0.729-0.413c0.259-0.113,0.518-0.227,0.777-0.34c0.226-0.097,0.478-0.178,0.753-0.243
		c0.275-0.097,0.542-0.186,0.801-0.267C145.673,119.988,145.94,119.923,146.216,119.891z M144.054,130.429
		c-0.048,0.113-0.081,0.235-0.097,0.364c-0.129,0.583-0.121,1.174,0.024,1.773c0.146,0.583,0.405,1.133,0.778,1.651
		c0.113,0.13,0.234,0.275,0.364,0.437c0.113,0.097,0.235,0.21,0.364,0.34c0.146,0.162,0.292,0.291,0.437,0.388
		c0.13,0.113,0.292,0.235,0.486,0.364c0.162,0.064,0.324,0.153,0.486,0.267c0.194,0.081,0.38,0.162,0.559,0.243
		c0.195,0.097,0.389,0.162,0.583,0.195c0.194,0.064,0.396,0.121,0.607,0.169c0.178,0.016,0.348,0.049,0.51,0.097
		c0.162,0.016,0.324,0.041,0.486,0.073h0.971c0.146-0.033,0.308-0.049,0.486-0.049c0.146-0.016,0.291-0.049,0.437-0.097
		c0.162-0.032,0.308-0.064,0.438-0.097c0.13-0.065,0.275-0.105,0.438-0.122c0.129-0.065,0.251-0.13,0.364-0.195
		c0.129-0.064,0.259-0.121,0.388-0.169c0.114-0.081,0.228-0.154,0.34-0.219c0.098-0.065,0.203-0.138,0.315-0.218
		c0.082-0.098,0.179-0.179,0.292-0.243c0.081-0.081,0.154-0.162,0.219-0.243c0.097-0.097,0.186-0.195,0.268-0.292
		c0.081-0.065,0.145-0.154,0.193-0.268c0.065-0.113,0.13-0.218,0.195-0.315c0.063-0.113,0.12-0.226,0.169-0.34
		c0.016-0.097,0.058-0.202,0.122-0.316c0.016-0.113,0.04-0.234,0.072-0.364c0.032-0.113,0.049-0.218,0.049-0.316
		c0.032-0.129,0.049-0.25,0.049-0.364c0-0.13,0-0.251,0-0.365c0-0.145-0.017-0.275-0.049-0.388c-0.032-0.13-0.064-0.243-0.097-0.34
		c-0.017-0.114-0.033-0.235-0.049-0.364c-0.064-0.113-0.122-0.219-0.171-0.316c-0.064-0.113-0.104-0.227-0.12-0.34
		c-0.098-0.097-0.162-0.202-0.195-0.315c-0.097-0.114-0.161-0.219-0.193-0.316c-0.114-0.113-0.211-0.227-0.292-0.34
		c-0.113-0.129-0.21-0.227-0.291-0.291c-0.113-0.113-0.235-0.219-0.364-0.316c-0.113-0.097-0.227-0.194-0.34-0.291
		c-0.13-0.098-0.259-0.186-0.389-0.267c-0.13-0.065-0.267-0.138-0.413-0.219c-0.129-0.098-0.268-0.162-0.412-0.194
		c-0.162-0.097-0.316-0.162-0.462-0.194c-0.146-0.065-0.308-0.121-0.485-0.17c-0.146-0.048-0.308-0.088-0.486-0.121
		c-0.145-0.032-0.307-0.064-0.485-0.097c-0.178-0.033-0.348-0.057-0.51-0.073h-0.996c-0.129,0.017-0.267,0.041-0.413,0.073
		c-0.178,0-0.331,0.016-0.461,0.048c-0.146,0.048-0.308,0.081-0.485,0.097c-0.13,0.064-0.259,0.122-0.389,0.17
		c-0.129,0.065-0.267,0.122-0.413,0.17c-0.129,0.064-0.25,0.138-0.364,0.218c-0.129,0.049-0.234,0.113-0.315,0.195
		c-0.129,0.048-0.234,0.113-0.315,0.194c-0.113,0.081-0.202,0.154-0.267,0.218c-0.114,0.098-0.203,0.187-0.268,0.268
		c-0.097,0.081-0.17,0.178-0.218,0.292c-0.081,0.064-0.17,0.153-0.268,0.267c-0.049,0.114-0.105,0.219-0.169,0.316
		c-0.032,0.113-0.082,0.227-0.146,0.34C144.103,130.21,144.071,130.316,144.054,130.429z M214.57,98.376v-0.024l46.404-45.967
		l1.214,1.214l-46.354,45.942L214.57,98.376z M217.412,101.072L263.5,54.887l2.379,2.355l-45.868,46.55l-1.287-1.385
		c-0.228-0.226-0.446-0.444-0.655-0.655C217.856,101.509,217.639,101.282,217.412,101.072z M97.238,99.542L50.907,53.6l1.19-1.214
		l46.404,45.967v0.024L97.238,99.542z M93.062,103.792l-45.87-46.55l2.379-2.355h0.024l46.063,46.185
		c-0.209,0.21-0.428,0.437-0.655,0.68c-0.21,0.211-0.429,0.429-0.655,0.655L93.062,103.792z M138.47,148.374
		c-0.064,0.146-0.129,0.291-0.195,0.438c-0.064,0.162-0.129,0.323-0.194,0.485c-0.048,0.129-0.089,0.291-0.122,0.486
		c-0.048,0.194-0.073,0.388-0.073,0.582c-0.016,0.194-0.024,0.405-0.024,0.632c0,0.194,0.008,0.396,0.024,0.607
		c0.016,0.178,0.057,0.373,0.122,0.583c0.048,0.194,0.105,0.389,0.17,0.582c0.064,0.179,0.137,0.364,0.218,0.559
		c0.113,0.194,0.227,0.381,0.34,0.559c0.098,0.194,0.211,0.373,0.341,0.534c0.291,0.373,0.606,0.721,0.946,1.044
		c0.356,0.34,0.745,0.648,1.166,0.923c0.227,0.146,0.454,0.26,0.681,0.34c0.227,0.162,0.453,0.275,0.68,0.341
		c0.243,0.097,0.494,0.193,0.752,0.291c0.275,0.081,0.542,0.146,0.801,0.194c0.227,0.064,0.445,0.105,0.656,0.121
		c0.227,0.017,0.445,0.041,0.655,0.073l0.68,0.049l0.292-0.049h0.267c0.194-0.032,0.397-0.057,0.607-0.073
		c0.194-0.016,0.397-0.04,0.607-0.072c0.178-0.064,0.364-0.113,0.559-0.146c0.194-0.065,0.372-0.122,0.534-0.171
		c0.194-0.08,0.373-0.153,0.534-0.218c0.178-0.065,0.341-0.154,0.486-0.268c0.178-0.081,0.332-0.17,0.461-0.267
		c0.13-0.098,0.259-0.203,0.389-0.316c0.145-0.113,0.275-0.226,0.388-0.34c0.13-0.097,0.251-0.202,0.364-0.315
		c0.098-0.13,0.203-0.259,0.315-0.389c0.113-0.113,0.203-0.234,0.268-0.364c0.081-0.129,0.162-0.274,0.243-0.438
		c0.097-0.129,0.161-0.259,0.193-0.389c0.098-0.178,0.162-0.34,0.194-0.485c0.064-0.161,0.113-0.323,0.146-0.485
		c0.016-0.162,0.032-0.324,0.049-0.485c0.048-0.162,0.072-0.324,0.072-0.486c0-0.161,0-0.331,0-0.51
		c-0.048-0.146-0.081-0.291-0.098-0.438c-0.016-0.177-0.04-0.339-0.072-0.485c-0.065-0.178-0.113-0.34-0.146-0.486
		c-0.032-0.178-0.089-0.332-0.171-0.461c-0.064-0.146-0.129-0.3-0.193-0.462c-0.081-0.146-0.171-0.283-0.268-0.413
		c-0.097-0.178-0.194-0.332-0.291-0.461c-0.13-0.13-0.243-0.259-0.34-0.389c-0.13-0.162-0.26-0.307-0.389-0.437
		c-0.13-0.129-0.275-0.267-0.438-0.413c-0.146-0.146-0.291-0.259-0.437-0.34c-0.178-0.113-0.34-0.227-0.485-0.34
		c-0.195-0.146-0.373-0.251-0.535-0.316c-0.194-0.113-0.388-0.21-0.583-0.291c-0.194-0.082-0.389-0.154-0.583-0.219
		c-0.194-0.065-0.397-0.146-0.607-0.243c-0.227-0.032-0.445-0.081-0.656-0.146c-0.21-0.032-0.429-0.065-0.656-0.097
		c-0.21-0.048-0.42-0.073-0.631-0.073l-0.34-0.024l-0.898,0.024c-0.227,0-0.437,0.024-0.632,0.073
		c-0.162,0.016-0.355,0.048-0.583,0.097c-0.194,0.032-0.389,0.073-0.583,0.122c-0.162,0.064-0.34,0.129-0.534,0.194
		c-0.162,0.065-0.339,0.13-0.534,0.194c-0.162,0.082-0.324,0.179-0.486,0.292c-0.146,0.081-0.292,0.17-0.437,0.268
		c-0.13,0.096-0.259,0.178-0.389,0.243c-0.146,0.113-0.267,0.227-0.364,0.339c-0.129,0.098-0.251,0.219-0.364,0.364
		c-0.114,0.097-0.219,0.227-0.315,0.389c-0.114,0.129-0.21,0.259-0.292,0.388C138.624,148.115,138.534,148.244,138.47,148.374z
		 M99.253,226.271L48.552,277.75c-0.032,0.049-0.081,0.089-0.146,0.122c-0.048,0.049-0.105,0.097-0.17,0.146
		c-0.048,0.032-0.105,0.064-0.17,0.098c-0.064,0.016-0.13,0.032-0.194,0.048c-0.065,0-0.129,0.017-0.194,0.049
		c-0.081,0-0.154,0-0.219,0c-0.064,0-0.13,0-0.194,0c-0.13-0.032-0.259-0.057-0.389-0.073c-0.113-0.016-0.235-0.049-0.364-0.097
		c-0.146-0.048-0.283-0.089-0.413-0.121c-0.13-0.064-0.275-0.13-0.438-0.194c-0.146-0.064-0.283-0.146-0.413-0.243
		c-0.146-0.081-0.3-0.162-0.461-0.243c-0.146-0.113-0.283-0.21-0.413-0.291c-0.146-0.13-0.3-0.25-0.462-0.364
		c-0.145-0.13-0.291-0.259-0.436-0.389c-0.163-0.129-0.309-0.259-0.438-0.389c-0.129-0.129-0.243-0.259-0.34-0.388
		c-0.129-0.113-0.243-0.235-0.34-0.365c-0.097-0.129-0.203-0.258-0.315-0.388c-0.081-0.13-0.17-0.251-0.267-0.365
		c-0.082-0.129-0.17-0.258-0.268-0.388c-0.064-0.097-0.129-0.211-0.194-0.34c-0.082-0.13-0.146-0.251-0.194-0.364
		c-0.064-0.13-0.114-0.252-0.146-0.364c-0.064-0.13-0.121-0.243-0.169-0.34c-0.016-0.113-0.049-0.228-0.098-0.34
		c-0.016-0.113-0.04-0.219-0.073-0.315c-0.016-0.114-0.024-0.211-0.024-0.292c0-0.13,0-0.243,0-0.34
		c0.017-0.098,0.041-0.195,0.073-0.291c0.032-0.081,0.073-0.154,0.122-0.219c0.048-0.081,0.105-0.154,0.169-0.219
		c0.032-0.113,0.097-0.21,0.194-0.292c0.064-0.097,0.138-0.178,0.218-0.242l50.993-50.531l1.19,1.263l-49.78,49.414
		c0.017,0.081,0.049,0.162,0.098,0.243c0.016,0.097,0.048,0.186,0.097,0.267s0.089,0.17,0.122,0.268
		c0.049,0.064,0.097,0.137,0.145,0.219l0.122,0.218l0.607,0.899l0.17,0.145l0.268,0.34c0.081,0.082,0.162,0.154,0.242,0.219
		c0.064,0.064,0.122,0.122,0.17,0.171l49.948-50.095c0.567,0.566,1.142,1.133,1.724,1.699
		C98.088,225.228,98.67,225.754,99.253,226.271z M137.207,205.753c0.955,0.599,1.927,1.182,2.914,1.749
		c1.036,0.55,2.088,1.084,3.157,1.603c1.083,0.485,2.176,0.947,3.278,1.384c1.117,0.404,2.25,0.761,3.399,1.068
		c1.182,0.356,2.38,0.656,3.594,0.898c1.166,0.243,2.38,0.429,3.643,0.559c1.247,0.162,2.509,0.268,3.788,0.315l0.413-4.661
		c-0.47,0.064-0.931,0.096-1.385,0.096c-0.453,0.017-0.906,0.033-1.359,0.049c-0.453,0-0.898,0-1.336,0c-0.47,0-0.931,0-1.384,0
		c-0.453-0.016-0.906-0.032-1.359-0.049c-0.486,0-0.955-0.031-1.409-0.096c-0.453-0.033-0.897-0.082-1.335-0.146
		c-0.453-0.017-0.907-0.064-1.36-0.146c-0.454-0.049-0.89-0.106-1.312-0.17c-0.437-0.064-0.866-0.129-1.287-0.195
		c-0.453-0.064-0.89-0.137-1.311-0.218c-0.438-0.113-0.875-0.21-1.312-0.291c-0.421-0.113-0.842-0.228-1.263-0.341
		c-0.404-0.097-0.817-0.202-1.238-0.314c-0.421-0.131-0.826-0.252-1.214-0.364c-0.437-0.131-0.858-0.26-1.262-0.39
		c-0.421-0.129-0.825-0.275-1.214-0.437c-0.405-0.129-0.793-0.283-1.166-0.461c-0.404-0.162-0.793-0.316-1.165-0.463
		c-0.373-0.177-0.753-0.339-1.142-0.484c-0.389-0.195-0.769-0.365-1.141-0.511C135.329,204.418,136.252,205.089,137.207,205.753z
		 M213.624,156.484l-0.073,1.797c-0.097,1.359-0.243,2.712-0.437,4.055c-0.227,1.344-0.486,2.68-0.777,4.007
		c-0.308,1.312-0.672,2.606-1.093,3.885c-0.421,1.247-0.874,2.502-1.36,3.765c-0.518,1.229-1.068,2.436-1.65,3.618
		c-0.616,1.214-1.264,2.388-1.943,3.521c-0.696,1.149-1.416,2.258-2.16,3.326c-0.778,1.102-1.579,2.186-2.404,3.254
		c-0.874,1.021-1.765,2.024-2.671,3.012c-0.955,0.955-1.902,1.894-2.842,2.816c-1.003,0.907-2.022,1.772-3.06,2.599
		c-1.084,0.874-2.177,1.684-3.278,2.428l4.323,4.589c0.923-0.695,1.829-1.432,2.719-2.209c0.907-0.761,1.781-1.538,2.623-2.331
		c0.826-0.842,1.651-1.691,2.477-2.55c0.761-0.874,1.498-1.764,2.21-2.671c0.712-0.939,1.392-1.887,2.039-2.842
		c0.664-0.971,1.287-1.958,1.87-2.962c0.567-1.003,1.109-2.048,1.627-3.133c0.519-1.035,0.979-2.096,1.385-3.181
		c0.437-1.053,0.833-2.145,1.189-3.278c0.355-1.116,0.663-2.258,0.923-3.424c0.243-1.133,0.461-2.29,0.655-3.472
		c0.146-1.166,0.268-2.355,0.364-3.569c0.032-0.632,0.049-1.255,0.049-1.87c0.048-0.664,0.072-1.303,0.072-1.918
		c-0.048-0.422-0.072-0.834-0.072-1.239c-0.017-0.437-0.033-0.857-0.049-1.263c-0.064-0.404-0.112-0.817-0.146-1.238
		c-0.032-0.404-0.082-0.793-0.146-1.165c-0.048-0.404-0.104-0.802-0.169-1.19C213.77,157.261,213.705,156.873,213.624,156.484z
		 M182.202,203.082c-1.085,0.502-2.169,0.979-3.254,1.433l1.433,5.974c1.344-0.485,2.663-1.012,3.958-1.578
		c1.279-0.599,2.534-1.23,3.765-1.895l-2.77-5.585C184.282,202.015,183.238,202.563,182.202,203.082z M217.29,222.994l49.949,50.095
		c0.064-0.049,0.153-0.131,0.268-0.243l0.704-0.851c0.081-0.097,0.153-0.193,0.218-0.291c0.065-0.097,0.131-0.194,0.195-0.291
		c0.063-0.098,0.129-0.202,0.193-0.315c0.065-0.114,0.13-0.219,0.194-0.316c0.049-0.113,0.098-0.227,0.146-0.34
		c0.033-0.097,0.073-0.21,0.122-0.34l-49.755-49.366l1.165-1.311l50.993,50.531c0.081,0.097,0.154,0.178,0.219,0.242
		c0.098,0.082,0.179,0.179,0.243,0.292c0.032,0.064,0.072,0.138,0.121,0.219c0.049,0.064,0.089,0.138,0.122,0.219
		c0,0.048,0.016,0.096,0.048,0.146c0,0.032,0.009,0.081,0.025,0.146c0,0.049,0,0.105,0,0.17c0,0.049,0,0.105,0,0.17
		c0,0.081-0.009,0.178-0.025,0.292c-0.032,0.097-0.057,0.202-0.072,0.315c-0.017,0.112-0.049,0.227-0.098,0.34
		c-0.049,0.097-0.089,0.21-0.121,0.34c-0.064,0.112-0.13,0.234-0.195,0.364c-0.048,0.113-0.104,0.234-0.169,0.364
		c-0.081,0.129-0.154,0.243-0.219,0.34c-0.097,0.13-0.186,0.259-0.268,0.388c-0.08,0.114-0.169,0.235-0.267,0.365
		s-0.202,0.259-0.315,0.388c-0.113,0.13-0.219,0.252-0.315,0.365c-0.114,0.129-0.235,0.259-0.364,0.388
		c-0.13,0.13-0.268,0.26-0.413,0.389c-0.162,0.13-0.315,0.259-0.462,0.389c-0.161,0.114-0.307,0.234-0.437,0.364
		c-0.146,0.081-0.292,0.178-0.437,0.291c-0.163,0.081-0.316,0.162-0.463,0.243c-0.145,0.097-0.282,0.179-0.412,0.243
		c-0.161,0.064-0.308,0.13-0.438,0.194c-0.129,0.032-0.259,0.073-0.388,0.121c-0.146,0.048-0.275,0.081-0.389,0.097
		c-0.13,0.017-0.259,0.041-0.389,0.073c-0.064,0-0.129,0-0.194,0c-0.064,0-0.138,0-0.219,0c-0.064-0.032-0.13-0.049-0.194-0.049
		c-0.064-0.016-0.129-0.032-0.193-0.048c-0.065-0.033-0.122-0.065-0.171-0.098c-0.064-0.049-0.121-0.097-0.17-0.146
		c-0.064-0.033-0.113-0.073-0.146-0.122l-50.701-51.479c0.582-0.518,1.165-1.044,1.748-1.578
		C216.149,224.127,216.724,223.561,217.29,222.994z M268.089,45.781h0.098c0.081,0,0.161,0.008,0.242,0.024
		c0.065,0.017,0.146,0.041,0.243,0.073c0.081,0.016,0.162,0.048,0.243,0.097c0.097,0.016,0.194,0.048,0.292,0.097
		c0.097,0.033,0.185,0.082,0.267,0.146c0.113,0.048,0.21,0.105,0.291,0.17c0.098,0.064,0.194,0.129,0.291,0.195
		c0.098,0.064,0.194,0.137,0.291,0.218c0.098,0.097,0.195,0.187,0.292,0.268c0.097,0.064,0.187,0.154,0.268,0.267
		c0.081,0.081,0.17,0.162,0.267,0.243c0.081,0.097,0.162,0.194,0.243,0.291c0.064,0.097,0.146,0.195,0.242,0.292
		c0.065,0.097,0.13,0.186,0.195,0.267c0.031,0.113,0.08,0.21,0.146,0.291c0.048,0.081,0.097,0.17,0.146,0.267
		c0.032,0.081,0.072,0.178,0.121,0.292c0.049,0.082,0.081,0.17,0.098,0.267c0.016,0.081,0.04,0.154,0.072,0.219
		c0.017,0.081,0.025,0.153,0.025,0.219c0,0.097,0,0.178,0,0.243c0,0.064-0.009,0.129-0.025,0.194
		c-0.032,0.082-0.057,0.154-0.072,0.219c-0.049,0.064-0.105,0.129-0.17,0.194c-0.032,0.064-0.081,0.122-0.146,0.17l-4.881,4.93
		l-4.856-4.833V51.05l5.124-5.05c0.049-0.049,0.105-0.089,0.171-0.122c0.063-0.033,0.128-0.057,0.193-0.073
		C267.879,45.789,267.977,45.781,268.089,45.781z M265.661,52.701l3.813-3.812c-0.065-0.065-0.138-0.154-0.219-0.268l-0.17-0.17
		l-0.194-0.122c-0.049-0.064-0.105-0.121-0.17-0.169c-0.081-0.065-0.154-0.113-0.219-0.146c-0.064-0.048-0.13-0.096-0.194-0.146
		c-0.08-0.064-0.154-0.105-0.219-0.121l-3.739,3.667L265.661,52.701z M42.724,46.8c0.113-0.081,0.21-0.153,0.292-0.218
		c0.113-0.065,0.209-0.13,0.291-0.195c0.081-0.064,0.178-0.122,0.291-0.17c0.081-0.064,0.17-0.113,0.267-0.146
		c0.082-0.048,0.178-0.081,0.292-0.097c0.081-0.049,0.162-0.081,0.242-0.097c0.098-0.033,0.178-0.057,0.243-0.073
		c0.082-0.016,0.162-0.024,0.243-0.024h0.097c0.113,0,0.21,0.008,0.292,0.024c0.097,0.017,0.162,0.041,0.194,0.073
		c0.065,0.032,0.122,0.073,0.17,0.122c0.048,0.048,0.088,0.088,0.121,0.122l5.003,4.929v0.049l-4.856,4.833l-4.882-4.93
		c-0.064-0.048-0.113-0.105-0.145-0.17c-0.065-0.065-0.114-0.13-0.146-0.194s-0.064-0.137-0.097-0.219
		c-0.016-0.064-0.024-0.129-0.024-0.194c0-0.065,0-0.146,0-0.243c0-0.065,0.009-0.138,0.024-0.219
		c0.033-0.065,0.057-0.138,0.073-0.219c0.017-0.097,0.049-0.186,0.098-0.267c0.048-0.113,0.088-0.21,0.122-0.292
		c0.048-0.097,0.096-0.186,0.145-0.267c0.064-0.081,0.114-0.178,0.146-0.291c0.064-0.081,0.145-0.17,0.243-0.267
		c0.064-0.097,0.129-0.195,0.194-0.292c0.081-0.097,0.169-0.194,0.267-0.291c0.082-0.081,0.162-0.162,0.243-0.243
		c0.097-0.113,0.194-0.21,0.291-0.292C42.555,46.979,42.643,46.897,42.724,46.8z M48.722,51.414l-3.74-3.667l-0.291,0.17
		c-0.082,0.064-0.162,0.129-0.243,0.194c-0.113,0.065-0.203,0.138-0.268,0.218c-0.08,0.065-0.169,0.129-0.267,0.195
		c-0.064,0.064-0.129,0.129-0.194,0.194l-0.122,0.17l3.836,3.812L48.722,51.414z"/>
	<path fill-rule="evenodd" clip-rule="evenodd" fill="#842648" d="M202.113,249.656l1.094-0.851l2.622-2.768
		c1.312-1.603,2.226-3.132,2.743-4.59c0.778-0.841,1.53-3.554,2.259-8.135c0.777,6.589,0.332,11.995-1.336,16.221
		c-2.007,4.209-4.33,7.253-6.968,9.131c-4.307,2.234-8.476,3.407-12.506,3.521c-6.54-0.421-12.142-1.894-16.804-4.42
		c-0.13,0.017-0.308-0.104-0.534-0.363l-0.194-0.049l-4.589-3.084l-0.244-0.097l-0.436-0.438c-3.157-2.72-4.841-4.362-5.052-4.93
		l-0.121-0.024l-0.098,0.024c-0.437,1.263-2.558,3.254-6.361,5.974c-4.031,3.383-9.058,5.657-15.08,6.824l-8.693,0.412
		c-2.153-0.211-4.378-0.761-6.678-1.651l-0.461-0.194l-3.714-2.282c-1.781-1.246-2.963-2.283-3.545-3.108
		c-4.208-5.86-5.609-12.797-4.201-20.811l-0.17-0.631h0.413l-0.024,0.729c0.583,2.396,1.23,4.654,1.943,6.775l0.194,0.606
		c0.501,1.263,1.182,2.493,2.04,3.691c1.15,1.57,2.25,2.792,3.303,3.666c5.018,2.282,9.324,2.445,12.918,0.486l1.335-0.826
		l8.79-7.867v-0.049l0.049,0.049c1.327-1.198,2.889-2.186,4.686-2.963c2.412-1.068,4.905-1.384,7.479-0.947
		c2.348,0.713,4.306,1.952,5.876,3.716c1.359-2.072,3.327-3.311,5.9-3.716c2.429-0.389,4.752-0.138,6.97,0.754l0.048-0.098
		l0.049,0.146l0.364,0.146h0.024c2.622,1.36,4.97,3.012,7.041,4.954l0.244,0.316l0.097-0.025l-0.073,0.097
		c2.121,2.526,4.654,4.63,7.601,6.314C194.731,251.526,198.666,251.646,202.113,249.656z"/>
</g>
</svg>
