<?xml version="1.0" encoding="utf-8"?>
<!-- Generator: Adobe Illustrator 16.0.0, SVG Export Plug-In . SVG Version: 6.00 Build 0)  -->
<!DOCTYPE svg PUBLIC "-//W3C//DTD SVG 1.1//EN" "http://www.w3.org/Graphics/SVG/1.1/DTD/svg11.dtd">
<svg version="1.1" id="Layer_1" xmlns="http://www.w3.org/2000/svg" xmlns:xlink="http://www.w3.org/1999/xlink" x="0px" y="0px"
	 width="300px" height="300px" viewBox="0 0 300 300" enable-background="new 0 0 300 300" xml:space="preserve">
<path fill-rule="evenodd" clip-rule="evenodd" fill="#1C0C11" d="M154.614,34.573l4.015,5.019l-4.015,3.203l-0.023,0.023
	l-0.024-0.023l-4.039-3.203l4.039-5.019l0.024-0.023L154.614,34.573z M154.614,43.989c0.876,0.796,1.769,1.49,2.677,2.079
	c0.892,0.605,1.792,1.107,2.701,1.505c0.908,0.415,1.824,0.741,2.748,0.98c0.908,0.239,1.832,0.398,2.771,0.478
	c0.271,0.032,0.558,0.056,0.86,0.072c0.287,0.016,0.573,0.024,0.861,0.024l1.027-0.024c0.924-0.064,1.848-0.175,2.771-0.334
	c0.924-0.176,1.849-0.399,2.773-0.669c0.302-0.096,0.612-0.191,0.932-0.287c0.303-0.112,0.613-0.223,0.931-0.335
	c0.304-0.111,0.606-0.223,0.909-0.334l-6.357,10.348c-1.306-0.175-2.613-0.334-3.919-0.478c-1.307-0.127-2.613-0.231-3.919-0.311
	c-1.291-0.096-2.59-0.167-3.896-0.215c-1.307-0.032-2.605-0.048-3.896-0.048c-1.291,0-2.59,0.016-3.896,0.048
	c-1.305,0.047-2.612,0.119-3.918,0.215c-1.291,0.08-2.589,0.183-3.896,0.311c-1.306,0.144-2.613,0.303-3.919,0.478l-6.381-10.348
	h0.024c0.302,0.112,0.605,0.223,0.908,0.334c0.302,0.112,0.613,0.223,0.932,0.335c0.303,0.096,0.605,0.191,0.908,0.287
	c0.924,0.271,1.849,0.494,2.772,0.669c0.924,0.159,1.856,0.271,2.796,0.334l1.004,0.024c0.302,0,0.597-0.008,0.884-0.024
	c0.287-0.016,0.582-0.04,0.884-0.072c0.909-0.08,1.825-0.238,2.749-0.478c0.908-0.239,1.816-0.565,2.725-0.98
	c0.908-0.398,1.816-0.9,2.724-1.505c0.893-0.589,1.784-1.283,2.677-2.079l0.024-0.024L154.614,43.989z M133.775,40.811l-1.745,4.899
	h-0.024l-4.374-7.074l6.142,2.151V40.811z M134.922,78.69c1.036-0.366,2.095-0.693,3.179-0.98c1.083-0.303,2.183-0.565,3.298-0.789
	c1.099-0.223,2.214-0.415,3.346-0.574c1.131-0.159,2.278-0.279,3.441-0.358c1.163-0.064,2.327-0.096,3.489-0.096
	c1.752,0,3.481,0.08,5.186,0.239c1.705,0.175,3.387,0.43,5.043,0.765c1.625,0.334,3.234,0.749,4.827,1.243
	c1.594,0.478,3.147,1.043,4.661,1.697c1.513,0.637,2.995,1.338,4.444,2.103c1.435,0.765,2.828,1.601,4.183,2.51
	c1.339,0.892,2.629,1.848,3.871,2.867c1.243,1.004,2.438,2.072,3.585,3.203c-0.605-0.877-1.242-1.729-1.912-2.558
	c-0.684-0.829-1.386-1.633-2.103-2.414c-0.717-0.797-1.467-1.57-2.246-2.318c-0.797-0.749-1.602-1.466-2.414-2.15
	c-0.828-0.702-1.682-1.371-2.558-2.008c-0.876-0.653-1.769-1.275-2.676-1.864c-0.909-0.574-1.841-1.123-2.797-1.649
	c-0.956-0.525-1.928-1.02-2.915-1.481c-0.988-0.462-2-0.9-3.035-1.314c-1.02-0.398-2.057-0.757-3.106-1.076
	c-1.053-0.334-2.12-0.637-3.203-0.908c-1.1-0.271-2.198-0.502-3.299-0.693c1.881,0.095,3.745,0.287,5.594,0.573
	c1.848,0.287,3.647,0.662,5.4,1.124c1.784,0.446,3.529,0.98,5.233,1.601c1.705,0.605,3.37,1.298,4.995,2.079
	c1.609,0.765,3.188,1.602,4.732,2.51c1.545,0.908,3.035,1.88,4.469,2.916c1.434,1.051,2.828,2.167,4.183,3.346
	c1.338,1.163,2.613,2.39,3.823,3.68c1.211,1.291,2.374,2.637,3.489,4.039c1.099,1.386,2.136,2.828,3.107,4.326
	c0.955,1.498,1.855,3.043,2.7,4.636c0.828,1.593,1.577,3.227,2.246,4.899c0.685,1.657,1.29,3.361,1.816,5.114
	c0.526,1.752,0.964,3.537,1.314,5.353c0.366,1.8,0.638,3.633,0.813,5.497c0.191,1.88,0.287,3.776,0.287,5.688
	c0,0.86-0.017,1.721-0.048,2.581c-0.048,0.86-0.104,1.713-0.168,2.557c-0.079,0.844-0.175,1.689-0.286,2.533
	c-0.111,0.829-0.239,1.657-0.383,2.485c-0.159,0.813-0.326,1.625-0.502,2.438c-0.19,0.829-0.39,1.642-0.597,2.438
	c-0.224,0.781-0.454,1.569-0.694,2.366c-0.255,0.781-0.524,1.562-0.812,2.342c-0.271,0.749-0.566,1.505-0.885,2.271
	c-0.318,0.749-0.645,1.49-0.979,2.223c-0.335,0.732-0.693,1.466-1.075,2.198c-0.367,0.701-0.749,1.41-1.147,2.127
	c1.259,0.669,2.47,1.37,3.633,2.104c1.131,0.733,2.198,1.481,3.202,2.246s1.936,1.562,2.796,2.391
	c0.861,0.813,1.641,1.641,2.343,2.484c0.701,0.845,1.322,1.713,1.863,2.605c0.542,0.893,0.996,1.792,1.362,2.7
	c0.367,0.908,0.646,1.832,0.837,2.772c0.19,0.94,0.286,1.888,0.286,2.844c0,0.686-0.047,1.37-0.143,2.056s-0.239,1.354-0.431,2.008
	l-0.023,0.023c-0.239-1.227-0.63-2.414-1.172-3.561c-0.558-1.163-1.25-2.303-2.078-3.418c-0.86-1.115-1.841-2.19-2.94-3.227
	c-1.115-1.052-2.35-2.055-3.704-3.011c-0.685-0.494-1.402-0.98-2.151-1.458c-0.748-0.462-1.513-0.916-2.294-1.362
	c-0.796-0.446-1.625-0.876-2.485-1.29c-0.86-0.431-1.736-0.845-2.629-1.243c-0.987,1.338-2.031,2.629-3.13,3.872
	c0.445,0.19,0.884,0.397,1.314,0.621c0.445,0.207,0.876,0.422,1.29,0.646c0.43,0.207,0.845,0.43,1.242,0.669
	c1.212,0.653,2.358,1.346,3.442,2.079c1.067,0.717,2.063,1.466,2.986,2.246c0.925,0.766,1.77,1.554,2.534,2.366
	c0.749,0.813,1.418,1.649,2.007,2.51c0.574,0.86,1.067,1.729,1.481,2.604c0.398,0.877,0.701,1.776,0.908,2.7
	c0.192,0.908,0.296,1.833,0.312,2.773c-0.016,1.259-0.2,2.492-0.55,3.703c-0.367,1.211-0.908,2.398-1.626,3.562
	c-0.7,1.146-1.561,2.271-2.58,3.369c-1.02,1.084-2.191,2.135-3.514,3.155c-0.637,0.51-1.322,1.004-2.055,1.481
	c-0.733,0.494-1.49,0.972-2.271,1.434c-0.78,0.462-1.601,0.908-2.461,1.338c-0.86,0.446-1.744,0.869-2.652,1.268
	c-0.908,0.414-1.84,0.813-2.797,1.195c-0.987,0.397-1.983,0.772-2.986,1.123c-1.02,0.351-2.063,0.692-3.131,1.027
	c-1.084,0.318-2.184,0.629-3.299,0.932c-1.114,0.287-2.254,0.565-3.417,0.837c-1.163,0.271-2.35,0.518-3.561,0.74
	c-1.195,0.239-2.414,0.454-3.657,0.646c-1.258,0.19-2.517,0.365-3.775,0.524c-1.29,0.159-2.59,0.303-3.896,0.431
	c-1.322,0.112-2.652,0.215-3.991,0.311c-1.339,0.08-2.685,0.135-4.039,0.168c-1.37,0.048-2.748,0.071-4.135,0.071
	c-1.402,0-2.78-0.023-4.134-0.071c-1.386-0.033-2.74-0.088-4.063-0.168c-1.339-0.096-2.661-0.198-3.968-0.311
	c-1.323-0.128-2.62-0.271-3.896-0.431c-1.274-0.159-2.533-0.334-3.776-0.524c-1.258-0.192-2.485-0.407-3.68-0.646
	c-1.195-0.223-2.374-0.47-3.536-0.74c-1.18-0.271-2.327-0.55-3.442-0.837c-1.099-0.303-2.19-0.613-3.274-0.932
	c-1.083-0.335-2.126-0.677-3.13-1.027c-1.02-0.351-2.016-0.726-2.988-1.123c-0.972-0.383-1.912-0.781-2.819-1.195
	c-0.908-0.398-1.785-0.821-2.629-1.268c-0.86-0.43-1.688-0.876-2.486-1.338c-0.78-0.462-1.529-0.939-2.246-1.434
	c-0.733-0.478-1.426-0.972-2.079-1.481c-1.306-1.021-2.47-2.071-3.489-3.155c-1.02-1.099-1.888-2.223-2.605-3.369
	c-0.701-1.163-1.234-2.351-1.601-3.562c-0.367-1.211-0.55-2.444-0.55-3.703c0-1.243,0.183-2.463,0.55-3.657
	c0.351-1.195,0.868-2.366,1.553-3.513c0.685-1.147,1.529-2.255,2.533-3.322c0.988-1.083,2.126-2.127,3.417-3.131
	c0.637-0.51,1.307-1.004,2.007-1.481c0.717-0.478,1.458-0.948,2.223-1.41s1.57-0.908,2.414-1.338
	c0.829-0.431,1.688-0.853,2.581-1.268c-0.287-0.303-0.557-0.613-0.812-0.932c-0.287-0.318-0.558-0.637-0.813-0.956
	c-0.255-0.318-0.51-0.645-0.765-0.979c-0.271-0.319-0.525-0.646-0.765-0.98c-1.003,0.447-1.975,0.909-2.915,1.387
	c-0.94,0.478-1.84,0.964-2.701,1.458c-0.861,0.51-1.688,1.027-2.486,1.554c-0.813,0.541-1.577,1.083-2.294,1.625
	c-1.45,1.099-2.733,2.246-3.847,3.44c-1.132,1.195-2.08,2.431-2.844,3.705c-0.781,1.259-1.378,2.557-1.792,3.896
	c-0.398,1.322-0.597,2.668-0.597,4.038c0,0.781,0.063,1.546,0.191,2.294c0.127,0.765,0.318,1.522,0.573,2.271
	c0.255,0.732,0.574,1.465,0.957,2.198c0.367,0.717,0.797,1.434,1.291,2.15c-1.003-0.765-1.928-1.553-2.772-2.365
	c-0.829-0.813-1.585-1.633-2.271-2.462c-0.686-0.844-1.299-1.705-1.84-2.581c-0.526-0.876-0.964-1.769-1.314-2.676
	c-0.367-0.893-0.646-1.801-0.836-2.725c-0.175-0.94-0.263-1.889-0.263-2.845c0-0.717,0.056-1.434,0.167-2.15
	c0.111-0.733,0.271-1.442,0.478-2.127c0.206-0.717,0.47-1.418,0.788-2.104c0.319-0.685,0.686-1.362,1.1-2.031
	c0.828-1.339,1.848-2.637,3.059-3.896c0.589-0.637,1.228-1.259,1.912-1.864c0.686-0.605,1.418-1.202,2.199-1.792
	c0.765-0.59,1.569-1.163,2.414-1.721c0.861-0.558,1.753-1.1,2.677-1.625c0.924-0.526,1.888-1.044,2.892-1.554
	c1.004-0.51,2.04-0.996,3.107-1.458c-0.224-0.43-0.446-0.868-0.669-1.313c-0.223-0.447-0.43-0.9-0.621-1.363
	c-0.207-0.446-0.415-0.9-0.622-1.362c-0.19-0.446-0.375-0.9-0.549-1.362c-0.192-0.478-0.367-0.948-0.526-1.41
	c-0.175-0.479-0.343-0.956-0.502-1.434c-0.159-0.462-0.311-0.932-0.454-1.41c-0.143-0.494-0.279-0.979-0.406-1.458
	c-0.143-0.494-0.271-0.988-0.382-1.481c-0.127-0.494-0.247-0.979-0.358-1.458c-0.111-0.51-0.215-1.012-0.311-1.506
	c-0.096-0.51-0.183-1.012-0.263-1.505c-0.08-0.51-0.151-1.02-0.215-1.53c-0.08-0.51-0.143-1.02-0.191-1.529
	c-0.064-0.526-0.112-1.044-0.144-1.554c-0.048-0.526-0.087-1.043-0.12-1.554c-0.032-0.525-0.048-1.051-0.048-1.577
	c-0.016-0.525-0.023-1.051-0.023-1.577c0-0.494,0.008-0.988,0.023-1.482c0-0.494,0.016-0.987,0.048-1.481
	c0.016-0.478,0.048-0.956,0.096-1.434c0.032-0.494,0.072-0.979,0.12-1.458s0.104-0.956,0.167-1.434
	c0.063-0.478,0.127-0.956,0.191-1.434c0.064-0.462,0.143-0.932,0.239-1.41c0.08-0.462,0.167-0.924,0.263-1.386
	c0.096-0.478,0.199-0.948,0.311-1.41c0.096-0.462,0.207-0.916,0.334-1.362c0.112-0.462,0.231-0.924,0.358-1.386
	c0.127-0.446,0.263-0.892,0.406-1.339c0.127-0.446,0.271-0.892,0.43-1.338c0.144-0.446,0.294-0.892,0.454-1.338
	c0.159-0.43,0.327-0.86,0.502-1.291h0.024c-0.208,0.653-0.382,1.331-0.526,2.031c-0.16,0.685-0.303,1.37-0.43,2.055
	c-0.143,0.701-0.255,1.41-0.334,2.127c-0.112,0.717-0.199,1.434-0.263,2.151c-0.08,0.732-0.127,1.474-0.143,2.223
	c-0.032,0.749-0.048,1.505-0.048,2.27c0,1.195,0.04,2.39,0.119,3.584c0.08,1.179,0.208,2.35,0.383,3.513
	c0.159,1.147,0.358,2.294,0.597,3.441c0.255,1.131,0.534,2.247,0.836,3.346c0.318,1.099,0.678,2.19,1.076,3.274
	c0.398,1.067,0.82,2.119,1.266,3.154c0.462,1.004,0.956,2,1.482,2.987c0.525,0.988,1.075,1.952,1.648,2.892
	c-0.287-0.717-0.549-1.434-0.788-2.151c-0.255-0.717-0.486-1.442-0.693-2.175c-0.223-0.765-0.422-1.529-0.597-2.294
	c-0.191-0.765-0.358-1.537-0.502-2.318c-0.143-0.781-0.271-1.562-0.382-2.342c-0.128-0.796-0.223-1.601-0.287-2.414
	c-0.08-0.796-0.143-1.602-0.191-2.414c-0.016-0.557-0.032-1.243-0.048-2.055c0-0.032,0-0.064,0-0.096c0-1.402,0.039-2.669,0.12-3.8
	c0.08-1.164,0.199-2.311,0.358-3.442c0.143-1.131,0.327-2.254,0.55-3.37c0.239-1.115,0.51-2.207,0.813-3.274
	c0.287-1.083,0.613-2.151,0.979-3.203c0.367-1.067,0.765-2.103,1.195-3.107c0.43-1.02,0.892-2.023,1.387-3.011
	c0.494-0.988,1.02-1.951,1.577-2.892c0.542-0.94,1.123-1.864,1.744-2.772c0.605-0.908,1.244-1.792,1.913-2.653
	c0.668-0.876,1.362-1.721,2.079-2.533c0.733-0.813,1.481-1.601,2.246-2.366c0.765-0.781,1.562-1.529,2.39-2.246
	c0.813-0.733,1.657-1.426,2.534-2.08c0.844-0.669,1.721-1.314,2.629-1.936c0.907-0.605,1.84-1.187,2.795-1.745
	c0.94-0.542,1.904-1.06,2.892-1.554c0.988-0.51,1.992-0.979,3.011-1.41C132.835,79.455,133.871,79.056,134.922,78.69z
	 M150.862,57.54c1.243-0.032,2.486-0.048,3.729-0.048c1.242,0,2.485,0.016,3.728,0.048c1.243,0.048,2.486,0.111,3.728,0.191
	c1.244,0.096,2.494,0.208,3.753,0.335s2.518,0.279,3.776,0.454h0.023l-1.578,2.558c-1.114-0.144-2.229-0.263-3.345-0.358
	c-1.115-0.112-2.238-0.199-3.37-0.263c-1.114-0.08-2.23-0.135-3.346-0.167c-1.131-0.032-2.254-0.048-3.369-0.048
	c-1.116,0-2.239,0.016-3.37,0.048c-1.131,0.032-2.254,0.087-3.37,0.167c-1.115,0.064-2.23,0.151-3.346,0.263
	c-1.115,0.095-2.23,0.215-3.345,0.358l-1.578-2.558h0.024c1.242-0.175,2.493-0.326,3.751-0.454s2.518-0.239,3.776-0.335
	C148.376,57.651,149.619,57.588,150.862,57.54z M115.755,102.278c-0.494,1.147-0.908,2.326-1.243,3.537
	c-0.319,1.195-0.565,2.43-0.741,3.704c-0.175,1.258-0.263,2.541-0.263,3.848s0.088,2.597,0.263,3.872
	c0.176,1.259,0.422,2.493,0.741,3.704c0.334,1.211,0.749,2.382,1.243,3.513c0.478,1.147,1.019,2.247,1.625,3.298
	c0.621,1.052,1.313,2.063,2.079,3.036c0.733,0.956,1.53,1.872,2.39,2.748c0.86,0.844,1.776,1.641,2.749,2.39
	c0.956,0.749,1.958,1.434,3.011,2.056c1.052,0.605,2.151,1.155,3.298,1.649c1.147,0.478,2.318,0.884,3.513,1.219
	c1.211,0.334,2.446,0.582,3.705,0.741c1.259,0.175,2.549,0.271,3.872,0.287c1.306-0.016,2.596-0.111,3.872-0.287
	c1.258-0.159,2.493-0.406,3.705-0.741c1.21-0.334,2.381-0.741,3.513-1.219c1.131-0.494,2.23-1.044,3.298-1.649
	c1.052-0.622,2.055-1.307,3.011-2.056c0.972-0.749,1.888-1.545,2.749-2.39c0.86-0.876,1.657-1.792,2.39-2.748
	c0.749-0.972,1.441-1.984,2.08-3.036c0.604-1.051,1.146-2.151,1.624-3.298c0.493-1.131,0.908-2.302,1.243-3.513
	c0.318-1.211,0.565-2.445,0.74-3.704c0.176-1.274,0.264-2.565,0.264-3.872c0-0.972-0.048-1.944-0.144-2.916
	c-0.096-0.956-0.239-1.896-0.431-2.82c-0.19-0.924-0.43-1.832-0.717-2.724c-0.271-0.909-0.59-1.785-0.956-2.629
	c-0.351-0.844-0.748-1.673-1.195-2.485c-0.445-0.813-0.916-1.593-1.41-2.342c-0.525-0.765-1.075-1.498-1.648-2.199
	c-0.589-0.701-1.203-1.378-1.84-2.031c-0.653-0.637-1.33-1.25-2.032-1.84c-0.7-0.574-1.434-1.115-2.198-1.625
	c-0.749-0.51-1.529-0.988-2.343-1.434c-0.813-0.446-1.641-0.844-2.484-1.195c-0.86-0.366-1.736-0.685-2.629-0.956
	c-0.892-0.287-1.8-0.525-2.724-0.717c-0.924-0.175-1.864-0.311-2.82-0.406c-0.956-0.111-1.928-0.167-2.916-0.167
	c-1.323,0-2.613,0.088-3.872,0.263c-1.258,0.175-2.494,0.43-3.705,0.765c-1.195,0.334-2.366,0.741-3.513,1.219
	c-1.147,0.478-2.246,1.027-3.298,1.649c-1.052,0.622-2.055,1.307-3.011,2.055c-0.973,0.749-1.889,1.546-2.749,2.39
	c-0.86,0.86-1.657,1.776-2.39,2.748c-0.765,0.956-1.458,1.968-2.079,3.036C116.774,100.055,116.233,101.146,115.755,102.278z
	 M94.629,91.667L45.063,42.531v-0.024l1.219-1.219L95.848,90.4v0.024L94.629,91.667z M92.215,94.272
	c-0.27,0.318-0.55,0.645-0.836,0.979c-0.287,0.319-0.565,0.646-0.836,0.98L41.311,46.283V46.26l2.414-2.414l49.351,49.47
	L92.215,94.272z M153.707,96.255c0.126,0.032,0.246,0.072,0.358,0.12c0.127,0.047,0.255,0.103,0.382,0.167
	c0.111,0.048,0.223,0.104,0.335,0.167c0.095,0.047,0.19,0.111,0.286,0.191s0.191,0.151,0.287,0.215
	c0.096,0.08,0.191,0.167,0.287,0.263c0.063,0.063,0.135,0.143,0.215,0.239c0.079,0.096,0.151,0.191,0.215,0.287
	c0.079,0.095,0.151,0.191,0.215,0.287c0.048,0.08,0.096,0.167,0.144,0.263c0.048,0.08,0.096,0.167,0.144,0.263
	c0.032,0.096,0.071,0.191,0.119,0.287c0.032,0.08,0.056,0.175,0.072,0.287l0.167,0.573l0.071,0.885l-0.096,0.884
	c-0.016,0.127-0.039,0.247-0.071,0.359c-0.032,0.111-0.071,0.231-0.119,0.358c-0.032,0.111-0.072,0.223-0.12,0.334
	c-0.048,0.096-0.104,0.199-0.167,0.311c-0.048,0.112-0.111,0.223-0.191,0.334c-0.063,0.096-0.135,0.191-0.215,0.287
	c-0.08,0.096-0.159,0.191-0.239,0.287c-0.079,0.095-0.167,0.184-0.263,0.263c-0.096,0.095-0.199,0.175-0.312,0.238
	c-0.095,0.08-0.199,0.16-0.31,0.239l-1.793,1.124c-0.51,0.334-1.012,0.685-1.506,1.051c-0.493,0.334-0.972,0.677-1.434,1.028
	s-0.916,0.709-1.362,1.075c-0.446,0.351-0.876,0.709-1.291,1.076c-0.844,0.749-1.633,1.514-2.367,2.294
	c-0.764,0.797-1.473,1.625-2.126,2.486c-0.653,0.844-1.259,1.729-1.816,2.653c-0.573,0.924-1.099,1.896-1.577,2.915
	c-0.239,0.494-0.462,1.012-0.669,1.554c-0.223,0.526-0.439,1.067-0.645,1.625c-0.127,0.366-0.247,0.741-0.358,1.123
	c-0.127,0.382-0.247,0.772-0.359,1.171c-0.111,0.398-0.214,0.796-0.311,1.195l-0.334,1.506c-0.031,0.127-0.064,0.255-0.096,0.382
	c-0.048,0.127-0.087,0.247-0.119,0.358c-0.064,0.127-0.12,0.255-0.168,0.383c-0.048,0.111-0.104,0.222-0.167,0.334
	c-0.063,0.08-0.119,0.167-0.167,0.263c-0.079,0.096-0.151,0.184-0.214,0.263c-0.064,0.096-0.136,0.183-0.216,0.263
	c-0.064,0.08-0.144,0.16-0.239,0.239c-0.08,0.064-0.159,0.127-0.239,0.191c-0.096,0.063-0.183,0.127-0.263,0.191
	c-0.526,0.334-1.067,0.558-1.625,0.669c-0.144,0.032-0.279,0.056-0.406,0.072c-0.144,0-0.287,0-0.43,0c-0.144,0-0.287,0-0.431,0
	c-0.143-0.016-0.286-0.04-0.429-0.072c-0.558-0.111-1.075-0.327-1.554-0.645c-0.494-0.319-0.908-0.725-1.243-1.219
	c-0.286-0.415-0.494-0.869-0.621-1.362c-0.032-0.144-0.056-0.287-0.071-0.43c-0.032-0.127-0.048-0.255-0.048-0.382
	c-0.016-0.127-0.016-0.255,0-0.382c0-0.127,0.008-0.247,0.024-0.358l0.287-1.53c0.159-0.669,0.343-1.346,0.549-2.032
	c0.191-0.685,0.407-1.37,0.646-2.055c0.255-0.686,0.518-1.371,0.789-2.056c0.287-0.685,0.589-1.362,0.909-2.031
	c0.637-1.37,1.345-2.708,2.127-4.015c0.764-1.306,1.585-2.573,2.461-3.8c0.876-1.227,1.808-2.382,2.796-3.465
	c0.973-1.099,1.976-2.111,3.012-3.035l-8.818-1.672c-0.175-0.032-0.343-0.072-0.502-0.12c-0.175-0.048-0.334-0.104-0.478-0.167
	c-0.143-0.063-0.287-0.127-0.431-0.191c-0.144-0.08-0.279-0.16-0.406-0.239c-0.111-0.08-0.223-0.167-0.334-0.263
	c-0.127-0.096-0.238-0.191-0.334-0.287c-0.096-0.111-0.183-0.215-0.263-0.31c-0.095-0.128-0.175-0.248-0.239-0.359
	c-0.08-0.111-0.151-0.231-0.215-0.358c-0.063-0.127-0.119-0.247-0.167-0.358c-0.047-0.127-0.088-0.263-0.12-0.406
	c-0.047-0.144-0.087-0.279-0.119-0.406c-0.032-0.144-0.048-0.287-0.048-0.43c-0.015-0.16-0.024-0.319-0.024-0.479
	c0-0.159,0.009-0.318,0.024-0.478c0-0.144,0.016-0.295,0.048-0.454c0.032-0.144,0.072-0.295,0.119-0.454
	c0.032-0.159,0.08-0.303,0.144-0.43c0.048-0.144,0.111-0.287,0.191-0.431c0.08-0.143,0.159-0.279,0.239-0.406
	c0.063-0.111,0.144-0.223,0.24-0.334c0.08-0.111,0.167-0.215,0.262-0.311c0.08-0.111,0.176-0.215,0.287-0.311
	c0.111-0.08,0.224-0.159,0.334-0.239c0.096-0.095,0.207-0.175,0.334-0.239s0.255-0.127,0.382-0.191
	c0.127-0.063,0.263-0.111,0.407-0.143c0.127-0.064,0.263-0.104,0.406-0.12c0.144-0.032,0.295-0.063,0.454-0.096
	c0.159-0.016,0.319-0.023,0.478-0.023h0.048c0.143,0,0.303,0.008,0.478,0.023c0.159,0.016,0.327,0.04,0.501,0.072l18.641,3.537
	C153.452,96.2,153.578,96.223,153.707,96.255z M177.15,45.71l-1.744-4.899v-0.024l6.142-2.151L177.15,45.71z M215.221,96.231
	l-1.242-1.481c-0.208-0.239-0.422-0.478-0.646-0.717c-0.207-0.239-0.414-0.478-0.622-0.717l49.327-49.47h0.024l2.413,2.414v0.023
	l-49.23,49.948H215.221z M209.916,90.4l49.565-49.111h0.023l1.219,1.219v0.024l-49.565,49.136h-0.024l-1.218-1.243V90.4z
	 M198.324,125.722c-0.079,1.211-0.207,2.406-0.381,3.585c-0.192,1.195-0.423,2.374-0.694,3.537
	c-0.271,1.147-0.581,2.287-0.932,3.417c-0.366,1.116-0.772,2.215-1.219,3.298c-0.446,1.099-0.932,2.175-1.458,3.226
	s-1.092,2.079-1.696,3.083c-0.606,1.004-1.243,1.992-1.912,2.963c-0.686,0.972-1.395,1.912-2.127,2.82
	c-0.75,0.908-1.53,1.792-2.343,2.652s-1.656,1.689-2.533,2.485c-0.859,0.797-1.753,1.569-2.676,2.318
	c-0.94,0.749-1.896,1.466-2.868,2.151l3.776,3.99c0.828-0.604,1.641-1.242,2.438-1.911c0.796-0.67,1.561-1.362,2.294-2.079
	c0.733-0.733,1.45-1.481,2.151-2.247c0.685-0.765,1.346-1.553,1.982-2.365c0.622-0.813,1.22-1.642,1.793-2.486
	c0.589-0.859,1.139-1.729,1.648-2.604c0.511-0.892,0.989-1.801,1.435-2.725c0.446-0.924,0.86-1.864,1.243-2.82
	c0.366-0.956,0.708-1.928,1.027-2.916c0.303-0.988,0.565-1.983,0.788-2.987c0.239-1.02,0.431-2.047,0.574-3.083
	c0.159-1.035,0.271-2.079,0.334-3.13c0.032-0.382,0.056-0.757,0.072-1.123c0.016-0.382,0.023-0.757,0.023-1.124
	c0-0.382,0-0.749,0-1.099c-0.016-0.558-0.04-1.107-0.071-1.649c-0.032-0.558-0.079-1.1-0.144-1.625
	c-0.048-0.526-0.111-1.052-0.19-1.578c-0.081-0.525-0.168-1.043-0.264-1.553L198.324,125.722z M268.156,35.003
	c0.096,0.047,0.199,0.103,0.311,0.167c0.096,0.064,0.191,0.136,0.287,0.215c0.096,0.063,0.191,0.135,0.287,0.215
	c0.096,0.08,0.19,0.167,0.286,0.263c0.096,0.079,0.191,0.167,0.288,0.263c0.095,0.096,0.182,0.191,0.262,0.287
	c0.096,0.096,0.184,0.191,0.263,0.287c0.08,0.096,0.151,0.191,0.216,0.287c0.063,0.096,0.128,0.191,0.19,0.287
	c0.064,0.096,0.128,0.191,0.191,0.287c0.048,0.096,0.096,0.191,0.144,0.287s0.088,0.183,0.119,0.263
	c0.033,0.096,0.063,0.184,0.097,0.263c0.031,0.095,0.056,0.183,0.071,0.263c0.016,0.08,0.024,0.16,0.024,0.239
	c0.015,0.064,0.015,0.136,0,0.215c0,0.064,0,0.127,0,0.191c-0.033,0.079-0.064,0.159-0.096,0.239
	c-0.048,0.064-0.097,0.127-0.145,0.191c-0.063,0.063-0.127,0.119-0.191,0.167l-4.946,5.042h-0.023l-4.947-4.947l4.947-4.923
	c0.095-0.111,0.19-0.207,0.286-0.287c0.048-0.048,0.104-0.087,0.167-0.119c0.049-0.032,0.112-0.056,0.191-0.072
	c0.08-0.016,0.176-0.023,0.287-0.023h0.119c0.08,0,0.16,0.008,0.239,0.023c0.08,0.016,0.167,0.04,0.263,0.072
	c0.08,0.032,0.167,0.063,0.263,0.095s0.191,0.072,0.287,0.12C267.974,34.908,268.061,34.956,268.156,35.003z M267.917,37.465
	l-0.334-0.311c-0.063-0.064-0.136-0.12-0.215-0.167c-0.064-0.048-0.136-0.104-0.216-0.167c-0.063-0.048-0.127-0.095-0.19-0.143
	c-0.08-0.032-0.159-0.064-0.239-0.096l-3.776,3.728l1.315,1.314l3.895-3.896C268.093,37.648,268.013,37.56,267.917,37.465z
	 M270.642,263.617l0.119,0.12l0.096,0.143c0.048,0.079,0.104,0.159,0.168,0.238c0.031,0.064,0.063,0.144,0.095,0.24
	c0.033,0.096,0.057,0.191,0.073,0.287c0,0.047,0,0.103,0,0.167c0,0.047,0,0.104,0,0.166c0,0.097-0.009,0.2-0.024,0.312
	c-0.016,0.096-0.04,0.199-0.071,0.311c-0.033,0.111-0.063,0.23-0.097,0.358c-0.048,0.111-0.096,0.224-0.144,0.335
	c-0.047,0.111-0.104,0.23-0.167,0.358s-0.128,0.255-0.191,0.383c-0.079,0.127-0.159,0.255-0.238,0.382
	c-0.08,0.128-0.159,0.255-0.239,0.383c-0.096,0.111-0.191,0.238-0.287,0.382c-0.096,0.127-0.199,0.255-0.311,0.382
	c-0.111,0.112-0.223,0.231-0.335,0.358c-0.111,0.129-0.23,0.255-0.358,0.383c-0.143,0.145-0.294,0.287-0.454,0.43
	c-0.143,0.129-0.294,0.255-0.453,0.384c-0.144,0.11-0.287,0.23-0.431,0.357c-0.159,0.096-0.318,0.2-0.478,0.312
	c-0.144,0.096-0.287,0.183-0.431,0.262c-0.159,0.08-0.311,0.159-0.454,0.239c-0.144,0.064-0.286,0.12-0.431,0.168
	c-0.143,0.063-0.277,0.119-0.406,0.167c-0.144,0.032-0.278,0.063-0.406,0.096c-0.127,0.016-0.247,0.032-0.358,0.048
	c-0.063,0-0.127,0.007-0.19,0.023c-0.096-0.017-0.176-0.023-0.238-0.023c-0.081-0.016-0.152-0.032-0.216-0.048
	c-0.08-0.016-0.144-0.032-0.191-0.048c-0.063-0.032-0.12-0.063-0.167-0.096c-0.064-0.048-0.12-0.087-0.168-0.119
	c-0.063-0.048-0.119-0.097-0.167-0.145c-0.096-0.095-0.183-0.19-0.263-0.285l-59.269-60.13c0.637-0.51,1.259-1.027,1.863-1.554
	c0.623-0.525,1.228-1.051,1.817-1.577l58.646,58.791c0.064-0.063,0.144-0.145,0.239-0.238l0.168-0.168l0.597-0.717
	c0.063-0.096,0.136-0.191,0.216-0.287c0.063-0.096,0.127-0.191,0.19-0.287c0.064-0.111,0.128-0.223,0.191-0.334
	s0.128-0.223,0.191-0.335c0.063-0.111,0.119-0.223,0.167-0.335c0.032-0.111,0.071-0.223,0.12-0.334l-58.409-57.954l1.243-1.267
	h0.024l59.578,59.053C270.498,263.449,270.578,263.537,270.642,263.617z M169.121,171.703c1.179-0.414,2.334-0.876,3.466-1.386
	c1.131-0.494,2.237-1.036,3.321-1.626l-2.462-4.946c-0.893,0.51-1.809,0.995-2.748,1.458c-0.94,0.461-1.888,0.892-2.844,1.29
	L169.121,171.703z M136.403,170.508c0.941,0.431,1.904,0.829,2.892,1.195s1.992,0.693,3.011,0.979
	c1.036,0.287,2.08,0.542,3.131,0.766c1.051,0.223,2.135,0.397,3.25,0.525c1.084,0.127,2.183,0.223,3.298,0.286l0.382-4.11
	l-3.608,0.12c-0.717,0-1.441-0.017-2.174-0.048c-0.733-0.032-1.458-0.08-2.175-0.144c-0.462-0.032-0.932-0.08-1.41-0.144
	c-0.462-0.048-0.924-0.111-1.386-0.191c-0.478-0.079-0.948-0.151-1.41-0.215c-0.462-0.096-0.916-0.191-1.362-0.287
	c-0.462-0.095-0.917-0.198-1.362-0.311c-0.447-0.111-0.893-0.223-1.339-0.334c-1.323-0.367-2.613-0.789-3.872-1.267
	c-0.414-0.159-0.82-0.319-1.218-0.479c-0.399-0.175-0.805-0.351-1.219-0.525c-0.398-0.191-0.789-0.375-1.171-0.55
	c0.78,0.605,1.585,1.187,2.413,1.744c0.845,0.558,1.706,1.084,2.582,1.577C134.547,169.607,135.463,170.078,136.403,170.508z
	 M96.206,205.567l-58.384,57.954c0.032,0.111,0.072,0.223,0.12,0.334c0.048,0.112,0.104,0.224,0.167,0.335
	c0.049,0.112,0.104,0.224,0.167,0.335s0.136,0.223,0.215,0.334c0.064,0.096,0.128,0.191,0.191,0.287
	c0.063,0.096,0.135,0.191,0.216,0.287l0.597,0.717l0.167,0.168c0.096,0.094,0.176,0.175,0.239,0.238l58.623-58.791
	c0.605,0.526,1.219,1.052,1.841,1.577c0.605,0.526,1.218,1.044,1.84,1.554l-59.245,60.13c-0.096,0.095-0.191,0.19-0.287,0.285
	c-0.048,0.048-0.095,0.097-0.144,0.145c-0.063,0.032-0.119,0.071-0.167,0.119c-0.048,0.032-0.104,0.063-0.167,0.096
	c-0.063,0.016-0.127,0.032-0.191,0.048c-0.08,0.016-0.151,0.032-0.215,0.048c-0.08,0-0.159,0.007-0.239,0.023
	c-0.096-0.017-0.191-0.023-0.287-0.023c-0.096-0.016-0.191-0.032-0.287-0.048c-0.383-0.08-0.796-0.223-1.242-0.431
	c-0.431-0.223-0.877-0.494-1.339-0.813c-0.462-0.334-0.916-0.725-1.362-1.171c-0.175-0.191-0.351-0.374-0.525-0.55
	c-0.159-0.191-0.311-0.382-0.454-0.573c-0.159-0.207-0.303-0.398-0.431-0.573c-0.127-0.191-0.239-0.383-0.334-0.573
	c-0.112-0.191-0.208-0.375-0.287-0.551c-0.096-0.19-0.167-0.366-0.216-0.525c-0.063-0.191-0.11-0.366-0.143-0.525
	c-0.032-0.159-0.056-0.311-0.071-0.455c0-0.063,0-0.119,0-0.166c0-0.064,0-0.12,0-0.167c0.016-0.096,0.04-0.191,0.071-0.287
	c0.032-0.097,0.072-0.176,0.12-0.24c0.048-0.079,0.096-0.159,0.143-0.238c0.064-0.096,0.135-0.183,0.215-0.263
	c0.08-0.08,0.159-0.168,0.239-0.264l59.603-59.053L96.206,205.567z M151.34,230.876c0.112-0.048,0.231-0.088,0.358-0.119
	c0.128-0.016,0.264-0.041,0.406-0.071c0.128-0.017,0.255-0.033,0.383-0.048c0.144,0,0.278,0,0.406,0
	c0.637,0,1.235,0.096,1.793,0.286c0.558,0.207,1.06,0.485,1.505,0.837c0.462,0.366,0.853,0.796,1.171,1.29
	c0.335,0.478,0.574,1.012,0.717,1.602c-0.19,0.016-0.382,0.048-0.573,0.096s-0.374,0.095-0.55,0.143
	c-0.19,0.064-0.374,0.136-0.55,0.215c-0.175,0.064-0.35,0.144-0.525,0.239c-0.159,0.08-0.318,0.176-0.478,0.288
	c-0.159,0.095-0.319,0.198-0.479,0.31c-0.143,0.111-0.286,0.23-0.431,0.358c-0.127,0.127-0.255,0.263-0.382,0.406
	c-0.128,0.128-0.246,0.271-0.358,0.431c-0.128,0.159-0.238,0.318-0.335,0.478c-0.096,0.144-0.19,0.303-0.286,0.478
	c-0.079,0.176-0.159,0.352-0.239,0.526c-0.063-0.144-0.128-0.278-0.191-0.406c-0.063-0.127-0.127-0.256-0.191-0.382
	c-0.079-0.129-0.159-0.248-0.238-0.359c-0.08-0.127-0.16-0.247-0.239-0.357c-0.096-0.112-0.191-0.224-0.287-0.336
	c-0.096-0.111-0.19-0.215-0.286-0.31v-0.024c0.096-0.017,0.199-0.04,0.311-0.071c0.096-0.032,0.191-0.064,0.287-0.096
	c0.095-0.048,0.183-0.096,0.263-0.144c0.079-0.063,0.159-0.12,0.238-0.168c0.096-0.063,0.176-0.135,0.24-0.215
	c0.079-0.063,0.15-0.136,0.214-0.215c0.063-0.08,0.12-0.159,0.167-0.239c0.064-0.096,0.12-0.183,0.168-0.263
	c0.048-0.096,0.087-0.191,0.119-0.286c0.032-0.096,0.063-0.191,0.096-0.287c0.032-0.111,0.049-0.223,0.049-0.335
	c0.015-0.095,0.022-0.199,0.022-0.311c0-0.127-0.008-0.247-0.022-0.358c-0.017-0.127-0.041-0.247-0.072-0.358
	c-0.032-0.111-0.072-0.223-0.12-0.335c-0.048-0.096-0.096-0.198-0.144-0.311c-0.063-0.095-0.127-0.19-0.19-0.286
	c-0.08-0.081-0.16-0.168-0.239-0.264c-0.08-0.079-0.167-0.15-0.263-0.215c-0.08-0.079-0.176-0.143-0.287-0.19
	c-0.096-0.064-0.191-0.112-0.287-0.144c-0.111-0.048-0.223-0.089-0.334-0.12c-0.128-0.031-0.247-0.056-0.358-0.072
	c-0.128-0.015-0.247-0.023-0.359-0.023h-0.167l-0.167,0.023l-0.024-0.023c0.127-0.048,0.248-0.095,0.358-0.143
	C151.085,230.947,151.213,230.907,151.34,230.876z M148.353,233.17l-0.048,0.168l-0.023,0.167v0.311
	c0,0.335,0.056,0.653,0.167,0.956v0.024h-0.024l-0.167-0.048l-0.55-0.096c0.128-0.542,0.334-1.036,0.622-1.482H148.353z
	 M140.466,230.686c0.127-0.017,0.255-0.033,0.382-0.048c0.144,0,0.279,0,0.406,0c0.622,0,1.211,0.096,1.769,0.286
	c0.558,0.207,1.068,0.485,1.53,0.837c0.461,0.366,0.852,0.788,1.171,1.267c0.319,0.478,0.558,1.011,0.717,1.601
	c-0.207,0.016-0.406,0.04-0.597,0.072c-0.207,0.031-0.406,0.079-0.598,0.143c-0.207,0.048-0.398,0.104-0.573,0.168
	c-0.192,0.079-0.375,0.159-0.55,0.238c-0.175,0.096-0.35,0.191-0.526,0.287c-0.159,0.097-0.318,0.207-0.478,0.335
	c-0.159,0.111-0.311,0.23-0.454,0.358c-0.144,0.127-0.279,0.263-0.406,0.405c-0.144,0.144-0.271,0.295-0.382,0.455
	c-0.128,0.159-0.247,0.318-0.358,0.478c-0.112,0.16-0.207,0.326-0.287,0.502c-0.096,0.175-0.175,0.358-0.239,0.55h-0.024
	c-0.063-0.144-0.12-0.278-0.167-0.406c-0.064-0.127-0.136-0.247-0.215-0.358c-0.08-0.127-0.151-0.255-0.215-0.383
	c-0.08-0.111-0.159-0.223-0.239-0.334c-0.096-0.112-0.191-0.224-0.287-0.335c-0.096-0.096-0.191-0.198-0.287-0.311h0.024
	c0.096-0.017,0.199-0.04,0.311-0.071c0.111-0.017,0.223-0.041,0.334-0.071c0.096-0.049,0.191-0.097,0.287-0.145
	s0.191-0.096,0.287-0.144c0.095-0.063,0.183-0.135,0.263-0.215c0.08-0.063,0.159-0.136,0.239-0.214
	c0.063-0.081,0.127-0.168,0.191-0.264c0.064-0.08,0.128-0.168,0.191-0.264c0.048-0.095,0.088-0.198,0.12-0.31
	c0.047-0.096,0.088-0.2,0.12-0.312c0.016-0.111,0.032-0.215,0.047-0.311c0.016-0.127,0.024-0.247,0.024-0.358
	c0-0.127-0.008-0.247-0.024-0.358c-0.016-0.127-0.04-0.247-0.071-0.358c-0.032-0.111-0.072-0.223-0.12-0.335
	c-0.032-0.096-0.08-0.198-0.143-0.311c-0.064-0.095-0.128-0.19-0.191-0.286c-0.08-0.081-0.159-0.168-0.239-0.264
	c-0.08-0.079-0.159-0.15-0.239-0.215c-0.096-0.079-0.191-0.143-0.287-0.19c-0.112-0.064-0.215-0.112-0.311-0.144
	c-0.111-0.048-0.223-0.089-0.334-0.12c-0.127-0.031-0.247-0.056-0.358-0.072c-0.111-0.015-0.231-0.023-0.358-0.023h-0.167
	l-0.167,0.023l-0.024-0.023c0.127-0.048,0.255-0.095,0.382-0.143c0.111-0.049,0.231-0.089,0.358-0.12
	c0.111-0.048,0.239-0.088,0.382-0.119C140.211,230.741,140.339,230.716,140.466,230.686z M146.537,235.68
	c0.127-0.017,0.255-0.024,0.382-0.024c0.446,0,0.876,0.056,1.291,0.168c0.398,0.095,0.781,0.238,1.147,0.43
	c0.366,0.175,0.709,0.391,1.028,0.646c0.318,0.271,0.597,0.573,0.836,0.908c0.239,0.303,0.446,0.645,0.621,1.027
	c0.176,0.383,0.303,0.781,0.383,1.195c-0.207,0.016-0.406,0.048-0.598,0.096c-0.207,0.048-0.406,0.096-0.598,0.144
	c-0.19,0.048-0.375,0.111-0.549,0.19c-0.191,0.08-0.375,0.159-0.55,0.239c-0.176,0.096-0.343,0.191-0.502,0.287
	s-0.319,0.207-0.478,0.334c-0.159,0.112-0.311,0.239-0.454,0.383c-0.143,0.128-0.279,0.255-0.406,0.383
	c-0.128,0.143-0.255,0.294-0.383,0.453c-0.111,0.144-0.223,0.303-0.334,0.479c-0.111,0.159-0.207,0.326-0.287,0.502
	c-0.096,0.175-0.183,0.351-0.263,0.525c-0.207-0.494-0.462-0.94-0.764-1.338c-0.303-0.431-0.654-0.813-1.052-1.147
	c0.111,0,0.231-0.016,0.358-0.048c0.127-0.016,0.247-0.031,0.358-0.048c0.112-0.048,0.223-0.096,0.335-0.144
	c0.095-0.031,0.191-0.079,0.287-0.143c0.095-0.064,0.191-0.128,0.287-0.191c0.095-0.08,0.183-0.151,0.263-0.216
	c0.08-0.095,0.151-0.183,0.215-0.262c0.08-0.096,0.152-0.191,0.215-0.287c0.048-0.111,0.096-0.216,0.143-0.311
	c0.048-0.112,0.088-0.224,0.12-0.335c0.032-0.111,0.056-0.23,0.072-0.358c0-0.111,0.008-0.231,0.024-0.358
	c-0.016-0.383-0.087-0.733-0.215-1.052c-0.143-0.318-0.334-0.605-0.573-0.86c-0.255-0.255-0.542-0.446-0.86-0.573
	c-0.318-0.144-0.669-0.216-1.051-0.216h-0.168l-0.167,0.024c0.111-0.063,0.223-0.12,0.334-0.168
	c0.127-0.048,0.255-0.087,0.382-0.119c0.127-0.048,0.255-0.079,0.382-0.096c0.127-0.031,0.255-0.056,0.382-0.071
	C146.258,235.695,146.393,235.68,146.537,235.68z M142.306,238.523c-0.016,0.111-0.023,0.224-0.023,0.335
	c0,0.127,0.008,0.255,0.023,0.382c0.032,0.128,0.064,0.255,0.096,0.383c0.032,0.111,0.072,0.223,0.12,0.334
	c0.048,0.112,0.104,0.224,0.167,0.335l-1.051-0.239c0.016-0.111,0.04-0.223,0.071-0.334c0.032-0.112,0.064-0.215,0.096-0.311
	c0.032-0.111,0.072-0.216,0.12-0.311c0.032-0.112,0.072-0.216,0.119-0.311c0.048-0.096,0.096-0.191,0.144-0.287
	c0.048-0.097,0.104-0.192,0.167-0.287L142.306,238.523z M138.459,236.898c0.303,0.271,0.582,0.566,0.836,0.885
	c0.239,0.317,0.446,0.668,0.621,1.051c0.176,0.367,0.303,0.757,0.382,1.171c-0.557,0.048-1.099,0.16-1.625,0.335
	c-0.511,0.159-0.989,0.382-1.435,0.669s-0.852,0.621-1.218,1.004c-0.368,0.382-0.686,0.797-0.957,1.242
	c-0.271,0.463-0.478,0.956-0.622,1.481c-0.159,0.51-0.247,1.053-0.263,1.626c-0.653-0.111-1.259-0.318-1.816-0.621
	c-0.542-0.303-1.02-0.693-1.434-1.171c-0.415-0.479-0.733-1.021-0.956-1.626c-0.223-0.589-0.334-1.219-0.334-1.888
	c-0.016-0.144-0.016-0.278,0-0.406c0-0.127,0.016-0.247,0.048-0.358c0.016-0.127,0.032-0.255,0.048-0.382
	c0.032-0.128,0.063-0.247,0.096-0.358c0.032-0.128,0.071-0.247,0.119-0.359c0.033-0.111,0.081-0.223,0.144-0.334
	c0.048-0.111,0.096-0.224,0.143-0.335c0.064-0.111,0.127-0.216,0.191-0.311l-0.048,0.311v0.168l-0.024,0.167
	c0,0.127,0.008,0.247,0.024,0.358c0.016,0.128,0.04,0.247,0.072,0.358s0.072,0.223,0.12,0.335c0.047,0.095,0.104,0.199,0.167,0.311
	c0.048,0.096,0.111,0.191,0.191,0.287c0.063,0.079,0.135,0.167,0.215,0.262c0.096,0.08,0.183,0.152,0.264,0.216
	c0.096,0.079,0.19,0.144,0.287,0.191c0.096,0.063,0.199,0.119,0.311,0.167c0.112,0.048,0.223,0.088,0.334,0.119
	c0.112,0.032,0.231,0.056,0.359,0.071c0.111,0.017,0.231,0.024,0.358,0.024s0.247-0.008,0.358-0.024
	c0.127-0.016,0.247-0.039,0.358-0.071c0.111-0.031,0.223-0.071,0.334-0.119s0.215-0.104,0.311-0.167
	c0.096-0.048,0.191-0.112,0.287-0.191c0.095-0.063,0.183-0.136,0.263-0.216c0.08-0.095,0.151-0.183,0.215-0.262
	c0.079-0.096,0.143-0.191,0.191-0.287c0.064-0.111,0.119-0.216,0.167-0.311c0.047-0.112,0.087-0.224,0.119-0.335
	s0.056-0.23,0.072-0.358c0.016-0.111,0.024-0.231,0.024-0.358c0-0.383-0.072-0.733-0.215-1.052c-0.144-0.318-0.335-0.605-0.574-0.86
	c-0.255-0.255-0.542-0.446-0.86-0.573c-0.319-0.144-0.669-0.216-1.051-0.216h-0.167l-0.167,0.024
	c0.112-0.063,0.231-0.12,0.358-0.168c0.112-0.048,0.231-0.087,0.359-0.119c0.127-0.048,0.255-0.079,0.382-0.096
	c0.127-0.031,0.254-0.056,0.382-0.071c0.128-0.032,0.263-0.048,0.407-0.048c0.127-0.017,0.255-0.024,0.382-0.024
	c0.446,0,0.876,0.056,1.291,0.168c0.398,0.095,0.78,0.23,1.146,0.406C137.797,236.421,138.14,236.644,138.459,236.898z
	 M140.323,241.104c0.143-0.016,0.287-0.023,0.43-0.023c0.669,0,1.307,0.111,1.912,0.334c0.605,0.224,1.147,0.542,1.625,0.956
	c0.478,0.398,0.883,0.876,1.219,1.434c0.318,0.542,0.534,1.14,0.645,1.792c-0.573,0.033-1.123,0.136-1.649,0.312
	c-0.526,0.159-1.027,0.383-1.505,0.669c-0.462,0.287-0.884,0.622-1.267,1.004s-0.717,0.805-1.003,1.267
	c-0.287,0.446-0.518,0.939-0.693,1.482c-0.175,0.525-0.287,1.075-0.334,1.648c-0.43-0.079-0.836-0.208-1.219-0.382
	c-0.382-0.176-0.741-0.392-1.075-0.646c-0.319-0.255-0.614-0.541-0.885-0.859c-0.271-0.319-0.494-0.662-0.669-1.028
	c-0.191-0.382-0.343-0.78-0.455-1.194c-0.095-0.414-0.143-0.845-0.143-1.291c0-0.144,0-0.278,0-0.406
	c0.016-0.127,0.032-0.255,0.048-0.382c0.016-0.128,0.04-0.255,0.072-0.383c0.016-0.127,0.048-0.247,0.096-0.358
	c0.032-0.128,0.072-0.247,0.119-0.358c0.032-0.127,0.072-0.238,0.12-0.334c0.063-0.128,0.12-0.247,0.167-0.359
	c0.064-0.111,0.128-0.215,0.191-0.311h0.024c-0.032,0.096-0.056,0.208-0.071,0.334c-0.017,0.096-0.025,0.208-0.025,0.336
	c0,0.366,0.08,0.717,0.239,1.051c0.128,0.335,0.319,0.63,0.574,0.885s0.55,0.454,0.884,0.598c0.318,0.127,0.677,0.198,1.076,0.215
	c0.127,0,0.247-0.008,0.358-0.024c0.127-0.031,0.247-0.063,0.358-0.096c0.111-0.031,0.223-0.063,0.334-0.095
	c0.111-0.064,0.223-0.12,0.334-0.168c0.096-0.063,0.191-0.135,0.287-0.215c0.096-0.063,0.183-0.136,0.263-0.215
	c0.08-0.08,0.159-0.167,0.239-0.263c0.063-0.096,0.127-0.191,0.191-0.287c0.064-0.111,0.12-0.224,0.167-0.335
	c0.032-0.111,0.063-0.223,0.096-0.334c0.032-0.111,0.063-0.231,0.095-0.358c0.016-0.128,0.024-0.247,0.024-0.358
	c0-0.128-0.008-0.255-0.024-0.383c-0.032-0.128-0.063-0.247-0.095-0.358c-0.032-0.128-0.064-0.248-0.096-0.359
	c-0.048-0.096-0.104-0.198-0.167-0.311c-0.063-0.096-0.127-0.19-0.191-0.286c-0.08-0.096-0.159-0.184-0.239-0.264
	c-0.08-0.079-0.167-0.159-0.263-0.238c-0.095-0.064-0.191-0.128-0.287-0.191c-0.112-0.063-0.223-0.119-0.334-0.167
	s-0.223-0.088-0.334-0.12c-0.112-0.031-0.231-0.056-0.358-0.071c-0.112-0.016-0.231-0.023-0.358-0.023h-0.191l-0.167,0.023
	c0.11-0.063,0.23-0.119,0.358-0.168c0.127-0.047,0.255-0.087,0.382-0.119c0.127-0.048,0.255-0.087,0.382-0.119
	c0.127-0.032,0.263-0.056,0.406-0.071C140.068,241.112,140.195,241.104,140.323,241.104z M146.584,246.697
	c0.462,0,0.908,0.056,1.338,0.167c0.446,0.111,0.868,0.263,1.267,0.454c0.383,0.207,0.741,0.446,1.075,0.717
	c0.334,0.287,0.63,0.598,0.885,0.932c0.271,0.351,0.493,0.726,0.669,1.124c0.19,0.397,0.334,0.82,0.43,1.266h-0.023
	c-0.59,0.064-1.155,0.192-1.697,0.384c-0.558,0.189-1.067,0.438-1.529,0.74c-0.494,0.303-0.932,0.653-1.314,1.052
	c-0.398,0.397-0.749,0.844-1.051,1.338c-0.287,0.494-0.518,1.012-0.693,1.554c-0.175,0.558-0.28,1.131-0.311,1.72l-0.023,0.024
	c-0.686-0.127-1.314-0.358-1.889-0.693c-0.589-0.334-1.099-0.757-1.529-1.267c-0.43-0.493-0.765-1.059-1.004-1.696
	c-0.239-0.637-0.366-1.314-0.382-2.031c0-0.144,0.008-0.278,0.023-0.406c0.016-0.145,0.032-0.287,0.048-0.43
	c0.016-0.129,0.04-0.255,0.072-0.384c0.032-0.144,0.063-0.27,0.096-0.382c0.032-0.128,0.071-0.255,0.12-0.383
	c0.047-0.127,0.095-0.246,0.143-0.358c0.048-0.127,0.104-0.247,0.167-0.358c0.063-0.111,0.135-0.223,0.215-0.335l-0.047,0.168v0.167
	l-0.048,0.358c0,0.128,0.016,0.255,0.048,0.383c0.016,0.128,0.04,0.255,0.071,0.383c0.032,0.111,0.072,0.23,0.12,0.357
	c0.048,0.111,0.104,0.225,0.167,0.336c0.063,0.095,0.135,0.19,0.215,0.286c0.063,0.112,0.144,0.206,0.239,0.287
	c0.08,0.096,0.175,0.176,0.287,0.239c0.08,0.079,0.175,0.151,0.287,0.215c0.111,0.063,0.224,0.119,0.334,0.167
	c0.111,0.048,0.231,0.088,0.358,0.119c0.127,0.032,0.255,0.057,0.382,0.072c0.127,0.015,0.255,0.023,0.382,0.023
	c0.144,0,0.279-0.009,0.407-0.023c0.127-0.016,0.255-0.04,0.382-0.072c0.112-0.031,0.223-0.071,0.335-0.119
	c0.127-0.048,0.239-0.104,0.334-0.167c0.111-0.063,0.215-0.136,0.311-0.215c0.096-0.063,0.191-0.144,0.287-0.239
	c0.08-0.081,0.159-0.175,0.239-0.287c0.063-0.096,0.135-0.191,0.215-0.286c0.048-0.111,0.104-0.225,0.167-0.336
	c0.047-0.127,0.087-0.246,0.119-0.357c0.032-0.128,0.056-0.255,0.072-0.383c0.016-0.128,0.024-0.255,0.024-0.383
	c0-0.414-0.072-0.787-0.215-1.123c-0.159-0.351-0.367-0.661-0.622-0.932c-0.271-0.271-0.582-0.478-0.932-0.621
	c-0.351-0.144-0.725-0.216-1.124-0.216h-0.167l-0.192,0.024c0.127-0.063,0.255-0.12,0.382-0.167
	c0.127-0.049,0.255-0.096,0.383-0.144c0.127-0.048,0.262-0.088,0.406-0.119c0.144-0.032,0.287-0.057,0.43-0.072
	c0.144-0.016,0.287-0.032,0.43-0.048C146.282,246.705,146.425,246.697,146.584,246.697z M153.85,239.072
	c0.031-0.095,0.071-0.19,0.12-0.285c0.047-0.096,0.096-0.191,0.143-0.287c0.048-0.097,0.104-0.192,0.168-0.287l-0.048,0.311
	c-0.017,0.111-0.024,0.224-0.024,0.335c0,0.127,0.008,0.247,0.024,0.358c0.015,0.128,0.039,0.247,0.071,0.358
	s0.072,0.223,0.12,0.335c0.047,0.095,0.095,0.19,0.143,0.286v0.024l-1.004-0.191c0.032-0.111,0.057-0.223,0.071-0.334
	c0.032-0.112,0.064-0.216,0.096-0.312C153.762,239.288,153.802,239.185,153.85,239.072z M150.551,241.606
	c0.127-0.063,0.248-0.119,0.358-0.168c0.127-0.047,0.255-0.087,0.382-0.119c0.128-0.048,0.255-0.087,0.383-0.119
	s0.263-0.056,0.406-0.071c0.127-0.017,0.263-0.024,0.406-0.024c0.128-0.016,0.263-0.023,0.406-0.023
	c0.685,0,1.331,0.111,1.936,0.334c0.605,0.224,1.147,0.542,1.626,0.956c0.493,0.414,0.892,0.9,1.194,1.457
	c0.318,0.559,0.542,1.163,0.669,1.817c-0.207,0.032-0.406,0.071-0.598,0.119c-0.206,0.032-0.397,0.08-0.573,0.144
	c-0.191,0.048-0.382,0.111-0.573,0.191c-0.191,0.079-0.367,0.167-0.526,0.263c-0.19,0.096-0.358,0.191-0.501,0.287
	c-0.177,0.096-0.343,0.207-0.502,0.334c-0.144,0.128-0.296,0.255-0.454,0.383c-0.144,0.127-0.279,0.263-0.407,0.406
	c-0.127,0.127-0.255,0.271-0.382,0.43c-0.128,0.159-0.239,0.319-0.335,0.479c-0.11,0.159-0.214,0.326-0.311,0.502
	c-0.096,0.175-0.183,0.351-0.263,0.525c-0.08-0.159-0.159-0.327-0.239-0.502c-0.096-0.159-0.191-0.318-0.287-0.479
	c-0.11-0.143-0.215-0.286-0.31-0.43c-0.128-0.159-0.247-0.303-0.359-0.43c-0.127-0.144-0.255-0.279-0.382-0.406
	c-0.144-0.128-0.279-0.247-0.407-0.358c0.127,0,0.248-0.008,0.359-0.024c0.127-0.031,0.247-0.063,0.358-0.096
	c0.127-0.031,0.247-0.063,0.358-0.095c0.111-0.064,0.215-0.12,0.311-0.168c0.096-0.063,0.191-0.135,0.287-0.215
	c0.096-0.063,0.183-0.136,0.263-0.215c0.079-0.08,0.159-0.167,0.239-0.263c0.063-0.096,0.127-0.191,0.19-0.287
	c0.063-0.111,0.12-0.224,0.168-0.335s0.087-0.223,0.119-0.334s0.057-0.231,0.071-0.358c0.017-0.128,0.024-0.247,0.024-0.358
	c0-0.128-0.008-0.255-0.024-0.383c-0.015-0.128-0.039-0.247-0.071-0.358c-0.032-0.128-0.071-0.248-0.119-0.359
	c-0.048-0.096-0.104-0.198-0.168-0.311c-0.063-0.096-0.127-0.19-0.19-0.286c-0.08-0.096-0.16-0.184-0.239-0.264
	c-0.08-0.079-0.167-0.159-0.263-0.238c-0.096-0.064-0.191-0.128-0.287-0.191s-0.199-0.119-0.311-0.167s-0.231-0.088-0.358-0.12
	c-0.111-0.031-0.231-0.056-0.358-0.071c-0.111-0.016-0.231-0.023-0.359-0.023h-0.167L150.551,241.606z M148.233,243.686
	c-0.032,0.096-0.056,0.208-0.072,0.334c-0.016,0.096-0.024,0.208-0.024,0.336c0,0.126,0.016,0.263,0.048,0.405
	c0.016,0.128,0.048,0.264,0.096,0.407c0.032,0.127,0.08,0.246,0.143,0.358c0.064,0.127,0.128,0.247,0.191,0.358v0.023
	c-0.191-0.063-0.382-0.119-0.574-0.167c-0.191-0.048-0.374-0.08-0.549-0.096h-0.024c0.128-0.718,0.375-1.371,0.741-1.96H148.233z
	 M128.063,230.876c0.111-0.048,0.239-0.088,0.382-0.119c0.127-0.016,0.255-0.041,0.382-0.071c0.127-0.017,0.255-0.033,0.382-0.048
	c0.144,0,0.279,0,0.406,0c0.621,0,1.211,0.096,1.769,0.286s1.067,0.47,1.529,0.837c0.446,0.351,0.836,0.772,1.171,1.267
	c0.318,0.478,0.558,1.004,0.717,1.577c-0.589,0.031-1.147,0.127-1.673,0.286c-0.525,0.16-1.02,0.383-1.481,0.67
	c-0.462,0.286-0.884,0.621-1.267,1.003c-0.366,0.383-0.685,0.813-0.956,1.291c-0.271,0.462-0.478,0.963-0.621,1.506
	c-0.143,0.541-0.215,1.106-0.215,1.696v0.191h-0.023c-0.414-0.08-0.805-0.207-1.171-0.383c-0.366-0.159-0.708-0.366-1.027-0.621
	c-0.318-0.239-0.613-0.518-0.885-0.836c-0.255-0.303-0.469-0.638-0.645-1.005c-0.192-0.365-0.334-0.748-0.431-1.146
	c-0.095-0.415-0.144-0.837-0.144-1.268c0-0.127,0-0.255,0-0.383c0.016-0.127,0.033-0.254,0.049-0.382
	c0.015-0.127,0.039-0.247,0.071-0.358c0.017-0.128,0.048-0.247,0.096-0.358c0.031-0.128,0.072-0.247,0.12-0.358
	c0.032-0.112,0.072-0.224,0.119-0.335c0.048-0.111,0.104-0.223,0.168-0.334c0.048-0.112,0.111-0.216,0.19-0.312l-0.072,0.479v0.167
	c0,0.366,0.064,0.717,0.192,1.052c0.144,0.318,0.334,0.605,0.574,0.86c0.255,0.238,0.542,0.422,0.86,0.55
	c0.334,0.144,0.685,0.215,1.051,0.215c0.127,0,0.247-0.008,0.358-0.023c0.127-0.017,0.247-0.041,0.358-0.072
	c0.112-0.032,0.223-0.071,0.335-0.119c0.095-0.032,0.199-0.08,0.31-0.144c0.096-0.063,0.191-0.128,0.287-0.191
	c0.08-0.079,0.167-0.151,0.263-0.215c0.064-0.095,0.136-0.184,0.215-0.263c0.063-0.096,0.127-0.191,0.191-0.287
	c0.064-0.111,0.111-0.215,0.144-0.311c0.048-0.111,0.087-0.224,0.119-0.335c0.032-0.111,0.056-0.23,0.072-0.358
	c0.016-0.111,0.024-0.231,0.024-0.358s-0.008-0.247-0.024-0.358c-0.016-0.127-0.04-0.247-0.072-0.358
	c-0.032-0.111-0.071-0.223-0.119-0.335c-0.032-0.096-0.08-0.198-0.144-0.311c-0.063-0.095-0.127-0.19-0.191-0.286
	c-0.08-0.081-0.151-0.168-0.215-0.264c-0.096-0.079-0.183-0.15-0.263-0.215c-0.096-0.079-0.191-0.143-0.287-0.19
	c-0.111-0.064-0.215-0.112-0.31-0.144c-0.112-0.048-0.223-0.089-0.335-0.12c-0.111-0.031-0.231-0.056-0.358-0.072
	c-0.111-0.015-0.231-0.023-0.358-0.023h-0.167l-0.167,0.023v-0.023c0.111-0.048,0.231-0.095,0.358-0.143
	C127.816,230.947,127.936,230.907,128.063,230.876z M136.667,233.338l-0.024,0.167v0.311c0,0.366,0.063,0.717,0.191,1.052
	l-0.765-0.167l-0.024-0.024c0.144-0.542,0.358-1.043,0.645-1.506h0.024L136.667,233.338z M154.328,249.444l-0.048,0.168
	l-0.024,0.167v0.168l-0.023,0.19c0,0.128,0.007,0.255,0.023,0.383c0.016,0.111,0.039,0.223,0.072,0.335
	c0.031,0.111,0.07,0.231,0.119,0.357c0.047,0.096,0.095,0.2,0.144,0.312v0.024l-0.239-0.072l-0.789-0.12
	c0.016-0.11,0.04-0.223,0.071-0.333c0.032-0.129,0.064-0.239,0.096-0.335c0.032-0.111,0.072-0.224,0.12-0.336
	c0.048-0.111,0.096-0.215,0.144-0.311c0.047-0.11,0.095-0.215,0.143-0.311s0.104-0.191,0.168-0.287H154.328z M152.439,252.528
	c0.144,0,0.295,0,0.454,0c0.207,0,0.414,0.007,0.622,0.023c0.206,0.017,0.405,0.048,0.597,0.096
	c0.208,0.048,0.406,0.096,0.598,0.144c0.191,0.063,0.374,0.135,0.55,0.215c0.191,0.08,0.374,0.168,0.55,0.263
	c0.159,0.08,0.326,0.184,0.502,0.311c0.318,0.208,0.621,0.455,0.908,0.741c0.271,0.271,0.518,0.574,0.74,0.908
	c0.111,0.159,0.215,0.326,0.311,0.503c0.08,0.158,0.159,0.333,0.239,0.524c0.08,0.176,0.151,0.358,0.215,0.55
	c0.048,0.191,0.096,0.391,0.144,0.598c0.048,0.191,0.08,0.391,0.096,0.598s0.023,0.414,0.023,0.621c0,0.558-0.071,1.1-0.215,1.625
	c-0.144,0.51-0.343,0.996-0.598,1.458c-0.271,0.446-0.589,0.86-0.955,1.242c-0.383,0.367-0.797,0.678-1.243,0.933
	c-0.446,0.271-0.932,0.479-1.458,0.621c-0.51,0.145-1.052,0.224-1.625,0.238c-0.558-0.015-1.1-0.094-1.625-0.238
	c-0.51-0.143-0.996-0.35-1.458-0.621c-0.446-0.255-0.86-0.565-1.243-0.933c-0.367-0.382-0.677-0.796-0.932-1.242
	c-0.271-0.462-0.478-0.948-0.621-1.458c-0.144-0.525-0.215-1.067-0.215-1.625c0-0.144,0.008-0.286,0.023-0.43
	c0-0.144,0.008-0.287,0.024-0.431c0.016-0.143,0.04-0.287,0.072-0.431c0.032-0.127,0.072-0.263,0.12-0.406
	c0.032-0.126,0.071-0.255,0.12-0.381c0.047-0.144,0.104-0.279,0.167-0.407c0.048-0.128,0.104-0.247,0.167-0.358
	c0.063-0.128,0.135-0.247,0.215-0.358l-0.072,0.55v0.19c0,0.414,0.08,0.805,0.239,1.171c0.143,0.367,0.358,0.694,0.645,0.98
	c0.287,0.271,0.613,0.486,0.979,0.646c0.367,0.159,0.765,0.239,1.195,0.239c0.128,0,0.263-0.008,0.407-0.024
	c0.127-0.016,0.255-0.04,0.382-0.071c0.144-0.048,0.271-0.096,0.383-0.144c0.127-0.048,0.246-0.104,0.358-0.167
	c0.111-0.064,0.223-0.136,0.334-0.216c0.096-0.096,0.191-0.183,0.287-0.263c0.096-0.095,0.184-0.199,0.263-0.311
	c0.08-0.096,0.151-0.2,0.215-0.312c0.064-0.111,0.129-0.229,0.192-0.358c0.031-0.11,0.071-0.229,0.118-0.358
	c0.032-0.144,0.057-0.278,0.073-0.406c0.015-0.143,0.031-0.277,0.047-0.406c-0.016-0.159-0.032-0.303-0.047-0.429
	c-0.017-0.145-0.041-0.279-0.073-0.407c-0.047-0.128-0.087-0.247-0.118-0.358c-0.063-0.128-0.128-0.247-0.192-0.358
	c-0.063-0.111-0.135-0.223-0.215-0.335c-0.079-0.096-0.167-0.19-0.263-0.286s-0.191-0.184-0.287-0.264
	c-0.111-0.079-0.223-0.15-0.334-0.215c-0.112-0.063-0.231-0.119-0.358-0.167c-0.112-0.063-0.239-0.111-0.383-0.144
	c-0.127-0.032-0.255-0.056-0.382-0.071c-0.144-0.017-0.279-0.024-0.407-0.024h-0.191l-0.19,0.024l-0.024-0.024
	c0.143-0.063,0.279-0.119,0.405-0.167c0.145-0.048,0.28-0.096,0.407-0.144c0.143-0.048,0.286-0.088,0.43-0.12
	c0.159-0.031,0.311-0.055,0.454-0.071C152.129,252.568,152.28,252.544,152.439,252.528z M179.588,231.855
	c0.128,0.112,0.255,0.224,0.383,0.335c0.111,0.128,0.224,0.255,0.334,0.383c0.112,0.143,0.216,0.286,0.312,0.43
	c0.095,0.144,0.183,0.287,0.263,0.431c0.08,0.159,0.159,0.318,0.239,0.478c0.063,0.159,0.119,0.327,0.166,0.502
	c0.049,0.159,0.096,0.326,0.145,0.502c0.032,0.175,0.056,0.351,0.071,0.525c0.017,0.192,0.032,0.375,0.048,0.55
	c-0.016,0.431-0.071,0.853-0.168,1.268c-0.096,0.397-0.23,0.78-0.405,1.146c-0.191,0.367-0.415,0.702-0.67,1.005
	c-0.27,0.318-0.565,0.597-0.883,0.836c-0.319,0.255-0.662,0.462-1.028,0.621c-0.383,0.176-0.772,0.303-1.171,0.383h-0.024
	l0.024-0.191c-0.017-0.191-0.024-0.382-0.024-0.573c-0.031-0.176-0.056-0.351-0.071-0.526c-0.032-0.175-0.072-0.351-0.119-0.525
	c-0.049-0.175-0.096-0.342-0.144-0.502c-0.064-0.175-0.128-0.343-0.191-0.502c-0.08-0.159-0.159-0.311-0.239-0.453
	c-0.079-0.16-0.167-0.312-0.263-0.455s-0.199-0.287-0.311-0.43c-0.111-0.128-0.224-0.255-0.335-0.383
	c-0.112-0.127-0.23-0.247-0.358-0.357v-0.024c0.08-0.032,0.159-0.064,0.239-0.096c0.096-0.048,0.175-0.096,0.239-0.144
	c0.079-0.048,0.159-0.096,0.238-0.144c0.064-0.063,0.128-0.119,0.191-0.167c0.063-0.064,0.128-0.128,0.191-0.191
	c0.048-0.08,0.096-0.151,0.144-0.215c0.063-0.08,0.111-0.159,0.144-0.239c0.047-0.079,0.096-0.159,0.143-0.239
	c0.032-0.079,0.057-0.159,0.072-0.238c0.031-0.096,0.063-0.191,0.096-0.287c0-0.08,0.008-0.167,0.023-0.263s0.024-0.191,0.024-0.287
	c0-0.127-0.009-0.247-0.024-0.358c-0.016-0.127-0.04-0.247-0.071-0.358c-0.032-0.111-0.072-0.223-0.12-0.335
	c-0.047-0.096-0.096-0.198-0.143-0.311c-0.064-0.095-0.128-0.19-0.191-0.286c-0.08-0.081-0.159-0.168-0.239-0.264
	c-0.08-0.079-0.167-0.15-0.263-0.215c-0.08-0.079-0.176-0.143-0.287-0.19c-0.096-0.064-0.199-0.112-0.311-0.144
	c-0.096-0.048-0.199-0.089-0.312-0.12c-0.127-0.031-0.246-0.056-0.358-0.072c-0.127-0.015-0.247-0.023-0.358-0.023h-0.19
	l-0.144,0.023l-0.024-0.023c0.111-0.048,0.231-0.095,0.358-0.143c0.129-0.049,0.255-0.089,0.384-0.12
	c0.11-0.048,0.229-0.088,0.358-0.119c0.127-0.016,0.255-0.041,0.382-0.071c0.128-0.017,0.263-0.033,0.406-0.048
	c0.127,0,0.263,0,0.406,0c0.191,0,0.374,0.007,0.55,0.023c0.175,0.016,0.351,0.039,0.525,0.072c0.176,0.03,0.351,0.078,0.526,0.143
	c0.159,0.048,0.318,0.112,0.478,0.19c0.159,0.064,0.318,0.137,0.478,0.216c0.144,0.079,0.287,0.168,0.431,0.264
	C179.302,231.641,179.444,231.744,179.588,231.855z M176.004,242.347c-0.112,0.415-0.264,0.813-0.454,1.196
	c-0.191,0.365-0.422,0.708-0.693,1.027c-0.271,0.303-0.573,0.582-0.908,0.836c-0.334,0.239-0.701,0.445-1.099,0.622
	c-0.399,0.159-0.813,0.271-1.243,0.334c-0.017-0.493-0.08-0.964-0.191-1.41c-0.128-0.462-0.287-0.893-0.478-1.29
	c-0.224-0.415-0.471-0.797-0.741-1.147c-0.287-0.366-0.605-0.693-0.956-0.98l0.024-0.023c0.096-0.016,0.199-0.04,0.311-0.072
	c0.096-0.031,0.19-0.063,0.286-0.095c0.096-0.048,0.191-0.096,0.287-0.144s0.184-0.104,0.263-0.167
	c0.08-0.063,0.159-0.128,0.239-0.191c0.079-0.079,0.151-0.151,0.215-0.215c0.08-0.096,0.144-0.184,0.191-0.264
	c0.063-0.079,0.119-0.167,0.167-0.263s0.096-0.19,0.144-0.286c0.032-0.096,0.056-0.199,0.071-0.311
	c0.032-0.096,0.057-0.199,0.072-0.312c0.016-0.111,0.023-0.223,0.023-0.334c-0.016-0.383-0.088-0.733-0.215-1.052
	c-0.144-0.318-0.335-0.605-0.573-0.86c-0.255-0.255-0.542-0.446-0.86-0.573c-0.335-0.144-0.686-0.216-1.052-0.216h-0.167
	l-0.168,0.024c0.112-0.063,0.224-0.12,0.335-0.168c0.127-0.048,0.255-0.087,0.382-0.119c0.112-0.048,0.239-0.079,0.383-0.096
	c0.128-0.031,0.255-0.056,0.383-0.071c0.127-0.032,0.255-0.048,0.382-0.048c0.144-0.017,0.287-0.024,0.431-0.024
	c0.493,0,0.964,0.064,1.409,0.191c0.462,0.128,0.893,0.311,1.291,0.55c0.397,0.238,0.765,0.518,1.099,0.836
	c0.319,0.319,0.599,0.686,0.837,1.1c0.238,0.398,0.423,0.829,0.55,1.291c0.128,0.446,0.191,0.924,0.191,1.434
	C176.171,241.487,176.115,241.917,176.004,242.347z M169.025,233.075c0.318,0.493,0.558,1.027,0.717,1.601l-0.023,0.024
	c-0.176,0.031-0.351,0.071-0.526,0.119c-0.19,0.031-0.374,0.079-0.55,0.144c-0.159,0.063-0.326,0.136-0.502,0.215
	c-0.175,0.08-0.342,0.159-0.502,0.239c-0.159,0.096-0.31,0.19-0.453,0.286c-0.145,0.112-0.288,0.224-0.431,0.335
	s-0.279,0.223-0.406,0.335c-0.144,0.127-0.271,0.262-0.383,0.405c-0.111,0.129-0.223,0.264-0.335,0.407
	c-0.11,0.143-0.215,0.294-0.31,0.453c-0.096,0.159-0.184,0.318-0.264,0.479c-0.096,0.16-0.175,0.327-0.238,0.502
	c-0.064-0.144-0.128-0.278-0.191-0.406c-0.063-0.144-0.136-0.278-0.215-0.406c-0.08-0.127-0.16-0.255-0.239-0.382
	c-0.08-0.128-0.167-0.248-0.263-0.358c-0.08-0.111-0.176-0.224-0.287-0.336c-0.096-0.111-0.199-0.215-0.311-0.31v-0.024
	c0.096-0.032,0.191-0.063,0.286-0.096c0.096-0.032,0.184-0.071,0.264-0.119c0.079-0.048,0.159-0.096,0.239-0.144
	c0.079-0.048,0.159-0.103,0.238-0.167c0.063-0.064,0.128-0.128,0.191-0.191c0.063-0.08,0.127-0.159,0.191-0.239
	c0.063-0.063,0.119-0.144,0.167-0.239c0.048-0.079,0.088-0.159,0.119-0.238c0.048-0.096,0.088-0.184,0.12-0.263
	c0.031-0.096,0.056-0.191,0.071-0.287c0.032-0.096,0.048-0.191,0.048-0.287c0.016-0.111,0.023-0.215,0.023-0.311
	c0-0.127-0.008-0.247-0.023-0.358c-0.016-0.127-0.04-0.247-0.071-0.358c-0.032-0.111-0.072-0.223-0.12-0.335
	c-0.048-0.096-0.096-0.198-0.144-0.311c-0.063-0.095-0.127-0.19-0.19-0.286c-0.08-0.081-0.159-0.168-0.239-0.264
	c-0.08-0.079-0.167-0.15-0.263-0.215c-0.08-0.079-0.176-0.143-0.287-0.19c-0.096-0.064-0.19-0.112-0.286-0.144
	c-0.112-0.048-0.224-0.089-0.335-0.12c-0.128-0.031-0.247-0.056-0.358-0.072c-0.128-0.015-0.247-0.023-0.358-0.023h-0.192
	l-0.143,0.023l-0.023-0.023c0.127-0.048,0.247-0.095,0.358-0.143c0.127-0.049,0.255-0.089,0.382-0.12
	c0.112-0.048,0.231-0.088,0.358-0.119c0.128-0.016,0.263-0.041,0.407-0.071c0.11-0.017,0.238-0.033,0.382-0.048
	c0.127,0,0.263,0,0.406,0c0.621,0,1.219,0.104,1.792,0.31c0.559,0.191,1.068,0.47,1.53,0.837
	C168.316,232.15,168.707,232.581,169.025,233.075z M171.534,233.815c0,0.144,0.017,0.287,0.048,0.43
	c0.016,0.144,0.048,0.287,0.096,0.431l-0.167-0.023h-0.168l-0.358-0.048c0.032-0.128,0.072-0.255,0.12-0.383
	c0.048-0.127,0.096-0.247,0.143-0.358c0.049-0.111,0.104-0.23,0.168-0.358c0.063-0.111,0.127-0.223,0.191-0.335l-0.048,0.335v0.144
	L171.534,233.815z M159.92,233.815c0,0.318,0.048,0.621,0.144,0.908l-0.718-0.096c0.128-0.525,0.336-1.012,0.622-1.458l-0.048,0.335
	V233.815z M162.31,236.922c0.318,0.271,0.605,0.566,0.86,0.885c0.239,0.318,0.446,0.669,0.621,1.052
	c0.159,0.382,0.279,0.78,0.358,1.194c-0.19,0.032-0.382,0.072-0.573,0.12c-0.19,0.048-0.382,0.096-0.573,0.144
	c-0.176,0.063-0.351,0.135-0.525,0.215c-0.177,0.063-0.351,0.144-0.526,0.238c-0.16,0.096-0.318,0.191-0.478,0.287
	s-0.311,0.199-0.454,0.311c-0.159,0.128-0.304,0.255-0.431,0.383c-0.144,0.127-0.279,0.255-0.406,0.382
	c-0.128,0.144-0.246,0.295-0.358,0.454c-0.111,0.144-0.224,0.295-0.335,0.454c-0.096,0.159-0.191,0.326-0.286,0.503
	c-0.08,0.158-0.16,0.326-0.239,0.501c-0.207-0.494-0.462-0.948-0.765-1.362c-0.319-0.414-0.669-0.788-1.052-1.123v-0.024
	c0.111-0.016,0.223-0.031,0.335-0.047c0.111-0.017,0.215-0.049,0.311-0.096c0.111-0.032,0.215-0.072,0.311-0.12
	c0.096-0.047,0.191-0.104,0.287-0.167s0.183-0.128,0.263-0.191c0.079-0.079,0.159-0.159,0.238-0.238
	c0.064-0.08,0.128-0.16,0.191-0.239c0.063-0.096,0.128-0.191,0.191-0.287c0.049-0.096,0.096-0.191,0.144-0.287
	c0.032-0.111,0.064-0.223,0.096-0.334s0.056-0.215,0.071-0.311c0-0.127,0.008-0.247,0.024-0.358
	c-0.017-0.383-0.088-0.733-0.216-1.052c-0.143-0.318-0.334-0.605-0.573-0.86c-0.255-0.255-0.542-0.446-0.86-0.573
	c-0.335-0.144-0.685-0.216-1.052-0.216h-0.167l-0.167,0.024c0.111-0.063,0.223-0.12,0.334-0.168
	c0.128-0.048,0.255-0.087,0.383-0.119c0.111-0.048,0.23-0.079,0.358-0.096c0.128-0.031,0.263-0.056,0.406-0.071
	c0.127-0.032,0.263-0.048,0.406-0.048c0.128-0.017,0.263-0.024,0.406-0.024c0.43,0,0.853,0.056,1.267,0.168
	c0.415,0.095,0.805,0.238,1.171,0.43C161.673,236.428,162.007,236.652,162.31,236.922z M165.488,240.005
	c0.127-0.652,0.366-1.25,0.717-1.792l-0.071,0.479v0.167c0,0.462,0.11,0.892,0.334,1.29l-0.956-0.144H165.488z M160.373,243.686
	l-0.07,0.478v0.192c0,0.111,0.007,0.23,0.023,0.358c0.016,0.127,0.039,0.247,0.072,0.358c0.031,0.111,0.07,0.223,0.119,0.334
	c0.047,0.111,0.095,0.215,0.143,0.311v0.024l-1.027-0.145c0.016-0.11,0.04-0.23,0.071-0.358c0.017-0.11,0.048-0.223,0.096-0.334
	c0.033-0.095,0.072-0.198,0.12-0.311c0.031-0.112,0.072-0.215,0.12-0.311c0.047-0.112,0.104-0.216,0.166-0.311
	c0.048-0.096,0.097-0.191,0.145-0.287H160.373z M159.203,246.697c0.541,0,1.06,0.071,1.554,0.215
	c0.478,0.143,0.931,0.343,1.361,0.598c0.431,0.238,0.821,0.533,1.172,0.884c0.35,0.351,0.652,0.741,0.907,1.171
	c0.255,0.431,0.446,0.884,0.574,1.363c0.127,0.493,0.199,1.011,0.215,1.553c-0.016,0.478-0.072,0.939-0.167,1.386
	c-0.111,0.431-0.271,0.845-0.479,1.243c-0.207,0.397-0.454,0.765-0.741,1.099c-0.286,0.336-0.604,0.638-0.955,0.909
	c-0.367,0.254-0.757,0.469-1.171,0.645c-0.414,0.191-0.846,0.327-1.291,0.406l-0.023-0.024c-0.032-0.509-0.112-1.012-0.239-1.504
	c-0.144-0.479-0.327-0.933-0.55-1.363c-0.239-0.446-0.51-0.86-0.813-1.242c-0.319-0.383-0.661-0.726-1.027-1.028v-0.023
	c0.111-0.016,0.23-0.04,0.358-0.072c0.095-0.031,0.199-0.063,0.311-0.095c0.111-0.049,0.215-0.096,0.311-0.145
	c0.096-0.063,0.191-0.127,0.286-0.19c0.096-0.064,0.184-0.135,0.264-0.215c0.079-0.063,0.159-0.144,0.238-0.24
	c0.064-0.079,0.136-0.166,0.216-0.262c0.064-0.096,0.119-0.191,0.168-0.287c0.047-0.111,0.095-0.216,0.143-0.311
	c0.031-0.112,0.063-0.223,0.096-0.334c0.031-0.112,0.056-0.225,0.072-0.336c0.015-0.127,0.022-0.246,0.022-0.358
	c0-0.414-0.078-0.787-0.238-1.123c-0.144-0.351-0.35-0.661-0.621-0.932c-0.255-0.271-0.559-0.478-0.908-0.621
	c-0.351-0.144-0.726-0.216-1.123-0.216h-0.168l-0.19,0.024c0.127-0.063,0.255-0.12,0.382-0.167c0.128-0.049,0.255-0.096,0.383-0.144
	c0.127-0.048,0.263-0.088,0.406-0.119c0.143-0.032,0.286-0.057,0.43-0.072c0.128-0.016,0.263-0.032,0.406-0.048
	S159.06,246.697,159.203,246.697z M165.607,241.104c0.176,0.016,0.358,0.04,0.55,0.072c0.175,0.031,0.351,0.079,0.525,0.143
	c0.176,0.048,0.344,0.112,0.503,0.191c0.158,0.063,0.317,0.144,0.477,0.239c0.16,0.08,0.312,0.167,0.454,0.263
	c0.145,0.096,0.288,0.199,0.432,0.311c0.127,0.111,0.254,0.231,0.382,0.358c0.127,0.128,0.247,0.255,0.358,0.383
	c0.111,0.143,0.215,0.286,0.311,0.43c0.096,0.145,0.191,0.295,0.287,0.454c0.079,0.16,0.151,0.318,0.215,0.478
	c0.08,0.16,0.144,0.335,0.191,0.526c0.048,0.159,0.096,0.335,0.144,0.525c0.031,0.176,0.056,0.351,0.071,0.526
	c0.016,0.191,0.032,0.382,0.048,0.573c-0.016,0.446-0.071,0.877-0.167,1.291s-0.239,0.813-0.431,1.194
	c-0.191,0.366-0.422,0.709-0.692,1.028c-0.271,0.318-0.566,0.604-0.885,0.859c-0.334,0.255-0.692,0.471-1.076,0.646
	c-0.382,0.174-0.787,0.303-1.219,0.382c-0.016-0.175-0.031-0.343-0.047-0.502c-0.032-0.159-0.064-0.318-0.096-0.479
	c-0.032-0.158-0.072-0.317-0.12-0.478c-0.047-0.144-0.096-0.287-0.143-0.43c-0.064-0.159-0.128-0.312-0.191-0.455
	c-0.063-0.143-0.128-0.285-0.191-0.43c-0.08-0.128-0.159-0.263-0.239-0.406c-0.096-0.127-0.19-0.255-0.286-0.382
	c-0.096-0.128-0.191-0.247-0.287-0.359c-0.096-0.127-0.199-0.246-0.311-0.357c-0.111-0.112-0.224-0.224-0.335-0.335
	c-0.111-0.096-0.23-0.191-0.358-0.287l0.024-0.024c0.095-0.016,0.199-0.039,0.311-0.071c0.096-0.031,0.191-0.063,0.287-0.095
	c0.111-0.048,0.215-0.096,0.311-0.144c0.079-0.064,0.167-0.128,0.263-0.191c0.079-0.063,0.159-0.128,0.238-0.191
	c0.08-0.079,0.152-0.159,0.216-0.238c0.079-0.08,0.151-0.16,0.215-0.239c0.048-0.081,0.096-0.168,0.144-0.264
	c0.048-0.095,0.096-0.198,0.143-0.31c0.032-0.096,0.064-0.2,0.096-0.312c0.017-0.111,0.032-0.224,0.049-0.335
	c0.016-0.095,0.023-0.198,0.023-0.31c0-0.128-0.008-0.255-0.023-0.383c-0.017-0.128-0.04-0.247-0.072-0.358
	c-0.032-0.128-0.072-0.248-0.119-0.359c-0.048-0.096-0.104-0.198-0.168-0.311c-0.048-0.096-0.111-0.19-0.19-0.286
	c-0.08-0.096-0.151-0.184-0.216-0.264c-0.096-0.079-0.19-0.159-0.286-0.238c-0.096-0.064-0.191-0.128-0.287-0.191
	s-0.199-0.119-0.311-0.167s-0.223-0.088-0.335-0.12c-0.127-0.031-0.255-0.056-0.382-0.071c-0.111-0.016-0.231-0.023-0.358-0.023
	h-0.168l-0.19,0.023c0.127-0.063,0.255-0.119,0.382-0.168c0.111-0.047,0.231-0.087,0.358-0.119c0.128-0.048,0.255-0.087,0.383-0.119
	c0.127-0.032,0.263-0.056,0.406-0.071c0.127-0.017,0.263-0.024,0.406-0.024c0.127-0.016,0.263-0.023,0.406-0.023
	C165.226,241.081,165.416,241.089,165.607,241.104z M42.841,40.309l-3.8-3.728l-0.287,0.144c-0.096,0.063-0.191,0.135-0.287,0.215
	c-0.095,0.064-0.182,0.135-0.263,0.215c-0.096,0.063-0.175,0.135-0.239,0.215c-0.08,0.063-0.144,0.127-0.191,0.191l-0.143,0.167
	l3.896,3.896L42.841,40.309z M39.973,35.051l4.97,4.923l-4.97,4.947l-4.971-5.042c-0.063-0.048-0.12-0.104-0.167-0.167
	c-0.064-0.064-0.112-0.127-0.144-0.191c-0.048-0.08-0.08-0.16-0.096-0.239c-0.016-0.064-0.023-0.127-0.023-0.191
	c0-0.08,0-0.151,0-0.215c0-0.079,0.016-0.159,0.047-0.239c0-0.08,0.016-0.167,0.048-0.263c0.032-0.08,0.064-0.167,0.096-0.263
	c0.032-0.08,0.08-0.167,0.143-0.263c0.032-0.096,0.08-0.191,0.144-0.287c0.048-0.095,0.104-0.191,0.167-0.287
	c0.063-0.095,0.127-0.191,0.191-0.287c0.08-0.096,0.16-0.191,0.239-0.287c0.063-0.096,0.143-0.191,0.239-0.287
	c0.08-0.095,0.167-0.191,0.263-0.287c0.095-0.096,0.191-0.184,0.286-0.263c0.096-0.096,0.2-0.183,0.311-0.263
	c0.096-0.08,0.191-0.152,0.287-0.215c0.096-0.08,0.191-0.151,0.287-0.215c0.095-0.064,0.191-0.12,0.287-0.167
	c0.096-0.048,0.192-0.096,0.287-0.144c0.096-0.048,0.191-0.088,0.287-0.12c0.08-0.032,0.167-0.063,0.263-0.095
	c0.08-0.032,0.159-0.056,0.239-0.072c0.08-0.016,0.159-0.023,0.239-0.023h0.12c0.063,0,0.12,0,0.167,0
	c0.048,0,0.095,0.008,0.144,0.023c0.063,0.016,0.127,0.04,0.19,0.072c0.048,0.032,0.104,0.071,0.168,0.119
	c0.032,0.048,0.079,0.096,0.143,0.144L39.973,35.051z"/>
</svg>
