<?xml version="1.0" encoding="utf-8"?>
<!-- Generator: Adobe Illustrator 16.0.0, SVG Export Plug-In . SVG Version: 6.00 Build 0)  -->
<!DOCTYPE svg PUBLIC "-//W3C//DTD SVG 1.1//EN" "http://www.w3.org/Graphics/SVG/1.1/DTD/svg11.dtd">
<svg version="1.1" id="Layer_1" xmlns="http://www.w3.org/2000/svg" xmlns:xlink="http://www.w3.org/1999/xlink" x="0px" y="0px"
	 width="300px" height="300px" viewBox="0 0 300 300" enable-background="new 0 0 300 300" xml:space="preserve">
<g>
	<path fill-rule="evenodd" clip-rule="evenodd" fill="#BFA22F" d="M271.008,41.384c0.088,0.044,0.178,0.099,0.266,0.165
		c0.11,0.044,0.209,0.1,0.298,0.166s0.188,0.132,0.298,0.199c0.089,0.065,0.188,0.144,0.299,0.231
		c0.088,0.089,0.188,0.177,0.299,0.266c0.088,0.065,0.176,0.154,0.265,0.265c0.089,0.089,0.177,0.177,0.265,0.266
		c0.089,0.088,0.178,0.188,0.266,0.298c0.066,0.088,0.144,0.188,0.232,0.299c0.066,0.088,0.133,0.177,0.199,0.265
		c0.043,0.11,0.099,0.21,0.165,0.299c0.044,0.088,0.089,0.177,0.132,0.265c0.045,0.088,0.089,0.188,0.133,0.298
		c0.045,0.089,0.078,0.178,0.1,0.266c0.022,0.088,0.045,0.166,0.066,0.231c0.022,0.089,0.033,0.166,0.033,0.232
		c0,0.088,0,0.166,0,0.232s-0.011,0.133-0.033,0.198c-0.021,0.089-0.044,0.166-0.066,0.232c-0.044,0.066-0.1,0.133-0.166,0.199
		c-0.043,0.065-0.099,0.121-0.165,0.165l-4.972,5.038l-4.972-4.938v-0.033l5.237-5.171c0.043-0.044,0.1-0.088,0.165-0.132
		c0.066-0.022,0.133-0.045,0.199-0.066c0.089-0.022,0.188-0.033,0.298-0.033h0.1c0.088,0,0.177,0.011,0.266,0.033
		c0.066,0.021,0.144,0.044,0.232,0.066c0.088,0.021,0.176,0.055,0.265,0.1C270.798,41.306,270.897,41.339,271.008,41.384z
		 M270.08,43.24c-0.088-0.066-0.166-0.11-0.232-0.133l-3.812,3.746l1.325,1.326l3.912-3.912c-0.066-0.065-0.145-0.154-0.232-0.266
		l-0.166-0.165l-0.199-0.132c-0.043-0.067-0.099-0.122-0.165-0.166c-0.089-0.066-0.166-0.122-0.231-0.166
		C270.213,43.328,270.146,43.284,270.08,43.24z M267.594,52.819l-46.867,47.563l-1.326-1.426c-0.221-0.221-0.441-0.441-0.662-0.662
		c-0.221-0.244-0.442-0.476-0.663-0.696l47.099-47.199L267.594,52.819z M216.551,95.941l-0.1,0.099l-1.293-1.192v-0.033
		l47.432-46.967l1.226,1.227l-47.198,46.801L216.551,95.941z M39.29,42.378c0.088-0.066,0.177-0.144,0.265-0.232
		c0.111-0.088,0.21-0.166,0.299-0.231c0.11-0.067,0.209-0.133,0.298-0.199s0.188-0.122,0.298-0.166
		c0.088-0.066,0.177-0.121,0.265-0.165c0.088-0.045,0.188-0.078,0.298-0.1c0.088-0.045,0.177-0.078,0.265-0.1
		c0.088-0.022,0.166-0.045,0.232-0.066c0.088-0.022,0.177-0.033,0.265-0.033h0.099c0.111,0,0.21,0.011,0.298,0.033
		c0.088,0.021,0.155,0.044,0.199,0.066c0.066,0.044,0.122,0.088,0.166,0.132c0.044,0.045,0.088,0.089,0.133,0.133l5.104,5.038v0.033
		l-4.972,4.938l-4.972-5.038c-0.066-0.044-0.121-0.1-0.166-0.165c-0.066-0.066-0.11-0.133-0.132-0.199
		c-0.044-0.066-0.078-0.144-0.1-0.232c-0.022-0.065-0.033-0.132-0.033-0.198s0-0.145,0-0.232c0-0.066,0.011-0.144,0.033-0.232
		c0.022-0.065,0.044-0.144,0.066-0.231s0.055-0.177,0.1-0.266c0.044-0.109,0.088-0.21,0.132-0.298
		c0.044-0.088,0.088-0.177,0.133-0.265c0.066-0.089,0.121-0.188,0.166-0.299c0.066-0.088,0.144-0.177,0.232-0.265
		c0.066-0.111,0.133-0.211,0.199-0.299c0.088-0.11,0.177-0.21,0.265-0.298c0.088-0.089,0.177-0.177,0.265-0.266
		C39.08,42.566,39.18,42.466,39.29,42.378z M41.047,43.705c-0.088,0.065-0.177,0.132-0.265,0.198
		c-0.066,0.066-0.133,0.133-0.199,0.199l-0.133,0.165l3.911,3.912l1.326-1.326l-3.812-3.746l-0.298,0.166
		c-0.088,0.066-0.177,0.133-0.266,0.199C41.202,43.539,41.113,43.616,41.047,43.705z M46.582,50.399l47.066,47.199
		c-0.221,0.221-0.442,0.452-0.663,0.696c-0.221,0.221-0.442,0.441-0.663,0.662l-1.326,1.426L44.129,52.819l2.42-2.42H46.582z
		 M49.134,47.847l47.431,46.967v0.033l-1.292,1.192L47.908,49.074L49.134,47.847z M91.527,219.838l-50.878,50.479
		c0.022,0.09,0.056,0.178,0.1,0.266c0.022,0.088,0.055,0.178,0.099,0.266c0.044,0.088,0.088,0.176,0.132,0.266
		c0.044,0.066,0.088,0.143,0.133,0.23l0.133,0.232l0.629,0.896l0.166,0.164l0.265,0.332c0.088,0.088,0.177,0.166,0.266,0.232
		c0.066,0.066,0.122,0.121,0.166,0.166l51.044-51.176c0.574,0.574,1.16,1.148,1.756,1.723c0.597,0.553,1.193,1.094,1.79,1.625
		l-51.806,52.6c-0.044,0.045-0.099,0.09-0.166,0.133c-0.044,0.045-0.1,0.088-0.166,0.133c-0.044,0.045-0.099,0.078-0.166,0.1
		s-0.132,0.045-0.199,0.066c-0.066,0-0.133,0.012-0.199,0.033c-0.088,0-0.166,0-0.232,0c-0.066,0-0.132,0-0.199,0
		c-0.132-0.021-0.265-0.045-0.398-0.066c-0.11-0.021-0.232-0.055-0.364-0.1c-0.155-0.043-0.299-0.088-0.431-0.133
		c-0.132-0.066-0.276-0.133-0.431-0.199c-0.155-0.064-0.298-0.143-0.431-0.23c-0.154-0.09-0.309-0.178-0.464-0.266
		c-0.155-0.111-0.298-0.209-0.431-0.299c-0.155-0.133-0.31-0.254-0.464-0.363c-0.155-0.133-0.31-0.266-0.464-0.398
		c-0.155-0.133-0.298-0.266-0.431-0.398c-0.132-0.133-0.254-0.264-0.364-0.396c-0.133-0.111-0.243-0.232-0.332-0.365
		c-0.111-0.133-0.221-0.266-0.332-0.398c-0.088-0.133-0.177-0.254-0.265-0.363c-0.088-0.133-0.177-0.266-0.265-0.398
		c-0.066-0.111-0.132-0.232-0.199-0.365c-0.088-0.131-0.155-0.254-0.199-0.363c-0.066-0.133-0.122-0.254-0.166-0.365
		c-0.066-0.133-0.122-0.254-0.166-0.365c-0.022-0.109-0.056-0.221-0.1-0.33c-0.022-0.111-0.044-0.221-0.066-0.332
		s-0.033-0.211-0.033-0.299c0-0.133,0-0.244,0-0.332c0.022-0.109,0.044-0.209,0.066-0.297c0.044-0.088,0.088-0.166,0.133-0.232
		c0.044-0.088,0.099-0.166,0.166-0.232c0.044-0.109,0.11-0.209,0.199-0.299c0.066-0.088,0.144-0.164,0.232-0.23l52.104-51.641
		L91.527,219.838z M221.423,218.545l51.872,51.375l0.232,0.266c0.088,0.088,0.166,0.164,0.232,0.23
		c0.088,0.09,0.165,0.189,0.23,0.299c0.045,0.066,0.089,0.145,0.133,0.232c0.045,0.066,0.089,0.145,0.133,0.232
		c0,0.043,0.012,0.088,0.033,0.133c0,0.043,0.012,0.1,0.033,0.164c0,0.045,0,0.1,0,0.166c0,0.045,0,0.1,0,0.166
		c0,0.088-0.011,0.188-0.033,0.299c-0.021,0.111-0.044,0.221-0.066,0.332c-0.021,0.109-0.055,0.221-0.1,0.33
		c-0.044,0.111-0.088,0.232-0.133,0.365c-0.065,0.111-0.132,0.232-0.198,0.365c-0.044,0.109-0.099,0.232-0.165,0.363
		c-0.089,0.133-0.166,0.254-0.232,0.365c-0.088,0.133-0.177,0.266-0.266,0.398c-0.088,0.109-0.176,0.23-0.265,0.363
		c-0.11,0.133-0.222,0.266-0.331,0.398c-0.111,0.133-0.222,0.254-0.332,0.365c-0.111,0.133-0.232,0.264-0.365,0.396
		c-0.132,0.133-0.275,0.266-0.43,0.398c-0.155,0.133-0.311,0.266-0.465,0.398c-0.154,0.109-0.298,0.23-0.431,0.363
		c-0.154,0.09-0.31,0.188-0.464,0.299c-0.154,0.088-0.31,0.176-0.465,0.266c-0.154,0.088-0.297,0.166-0.43,0.23
		c-0.155,0.066-0.299,0.133-0.432,0.199c-0.133,0.045-0.265,0.09-0.397,0.133c-0.155,0.045-0.287,0.078-0.397,0.1
		c-0.133,0.021-0.266,0.045-0.398,0.066c-0.066,0-0.133,0-0.198,0c-0.066,0-0.144,0-0.232,0c-0.066-0.021-0.132-0.033-0.198-0.033
		c-0.066-0.021-0.133-0.045-0.199-0.066s-0.121-0.055-0.166-0.1c-0.066-0.045-0.121-0.088-0.166-0.133
		c-0.066-0.043-0.121-0.088-0.166-0.133l-51.805-52.6c0.596-0.531,1.193-1.072,1.789-1.625c0.598-0.574,1.183-1.148,1.757-1.723
		l51.044,51.176c0.066-0.045,0.154-0.121,0.265-0.232l0.729-0.861c0.088-0.111,0.166-0.211,0.232-0.299
		c0.066-0.111,0.132-0.209,0.198-0.299c0.066-0.111,0.133-0.221,0.199-0.332c0.065-0.109,0.132-0.221,0.198-0.33
		c0.045-0.111,0.089-0.221,0.133-0.332c0.045-0.111,0.089-0.232,0.133-0.365l-50.845-50.445L221.423,218.545z"/>
	<polygon fill-rule="evenodd" clip-rule="evenodd" fill="#F58F87" points="216.551,95.941 216.617,95.875 216.518,96.04 	"/>
	<path fill-rule="evenodd" clip-rule="evenodd" fill="#854364" d="M223.213,175.158H86.555c-0.641-2.188-1.193-4.441-1.657-6.762
		c-2.409-12.309-1.812-24.008,1.79-35.101c0.199-0.574,0.397-1.149,0.596-1.724h134.968c0.154,0.574,0.32,1.149,0.496,1.724
		c0.773,2.497,1.414,5.082,1.923,7.756C226.991,152.984,226.505,164.352,223.213,175.158z M169.219,141.184
		c-1.656-1.393-3.778-2.089-6.363-2.089c-2.939,0-5.038,0.818-6.298,2.453l1.79,2.718c1.061-1.148,2.464-1.724,4.209-1.724
		c3.205,0,4.807,1.592,4.807,4.773c0,2.982-1.713,4.475-5.138,4.475h-0.165v3.314h0.331c1.79,0,3.237,0.52,4.342,1.557
		c1.104,1.039,1.657,2.41,1.657,4.111c0,3.668-1.889,5.502-5.668,5.502c-2.011,0-3.68-0.74-5.005-2.221l-1.956,3.115
		c0.752,0.662,1.769,1.26,3.05,1.789c1.26,0.465,2.552,0.697,3.878,0.697c3.115,0,5.558-0.73,7.325-2.189
		c1.745-1.523,2.618-3.656,2.618-6.396c0-1.9-0.497-3.502-1.491-4.805c-0.994-1.371-2.353-2.332-4.077-2.885
		c1.238-0.42,2.31-1.248,3.215-2.486c0.906-1.304,1.359-2.772,1.359-4.408C171.639,144.299,170.832,142.532,169.219,141.184z
		 M145.951,139.494h-1.193c-0.973,1.193-2.309,2.475-4.01,3.845c-1.725,1.348-3.337,2.419-4.84,3.215v3.778l6-3.778v22.738h4.043
		V139.494z"/>
	<path fill-rule="evenodd" clip-rule="evenodd" fill="#6A354F" d="M87.284,131.572c2.033-5.701,4.851-11.236,8.452-16.605
		c10.982-16.33,26.118-26.384,45.408-30.162c19.27-3.734,37.068-0.11,53.398,10.871c13.545,9.126,22.781,21.092,27.709,35.896
		H87.284z M223.213,175.158c-0.199,0.574-0.376,1.148-0.531,1.723c-2.055,6.033-4.993,11.889-8.816,17.566
		c-11.004,16.33-26.141,26.385-45.408,30.162c-19.269,3.758-37.067,0.145-53.396-10.838c-13.855-9.324-23.18-21.621-27.975-36.891
		c-0.199-0.574-0.375-1.148-0.53-1.723H223.213z M148.338,205.486c-1.26-0.156-2.508-0.365-3.746-0.631l-2.221,6.1
		c1.48,0.354,2.939,0.662,4.376,0.928c1.48,0.266,2.972,0.453,4.475,0.563l0.829-6.529
		C150.791,205.807,149.553,205.662,148.338,205.486z M166.27,205.418c-1.393,0.223-2.807,0.377-4.242,0.465
		c-1.459,0.133-2.885,0.199-4.276,0.199l1.061,6.596c1.26-0.066,2.497-0.176,3.712-0.332c1.238-0.109,2.453-0.275,3.646-0.496
		c1.26-0.266,2.486-0.52,3.68-0.762c1.215-0.354,2.396-0.719,3.546-1.096c1.193-0.352,2.354-0.773,3.479-1.26
		c1.128-0.463,2.266-0.949,3.415-1.457c1.083-0.553,2.165-1.148,3.248-1.789c1.061-0.643,2.088-1.305,3.083-1.99
		c1.038-0.684,2.032-1.414,2.982-2.188c0.994-0.795,1.944-1.613,2.851-2.451c0.862-0.863,1.734-1.758,2.618-2.686
		c0.818-0.906,1.625-1.891,2.42-2.949c0.397-0.51,0.795-1.051,1.193-1.625c0.397-0.508,0.784-1.049,1.16-1.625
		c0.221-0.396,0.441-0.762,0.662-1.092c0.266-0.377,0.498-0.764,0.696-1.16c0.198-0.398,0.409-0.775,0.63-1.127
		c0.199-0.377,0.387-0.764,0.563-1.16c0.177-0.377,0.376-0.764,0.597-1.16c0.177-0.332,0.332-0.709,0.464-1.127l-1.094,1.557
		c-0.928,1.127-1.867,2.221-2.817,3.281c-0.994,1.084-2,2.121-3.016,3.115c-1.061,0.93-2.144,1.846-3.248,2.752
		c-1.149,0.861-2.299,1.689-3.447,2.486c-1.172,0.773-2.387,1.523-3.646,2.254c-1.237,0.684-2.464,1.324-3.68,1.922
		c-1.303,0.574-2.617,1.127-3.943,1.658c-1.326,0.484-2.652,0.938-3.978,1.357c-1.392,0.398-2.773,0.752-4.144,1.061
		C169.054,204.9,167.661,205.176,166.27,205.418z M106.045,177.842c0.354,1.172,0.751,2.311,1.193,3.414
		c0.508,1.105,1.028,2.199,1.558,3.281c0.552,1.105,1.149,2.188,1.79,3.248c0.685,1.061,1.381,2.123,2.088,3.182
		c0.707,0.996,1.48,1.979,2.32,2.951c0.84,1.016,1.712,1.977,2.618,2.883c0.884,0.906,1.834,1.801,2.851,2.686
		c1.039,0.861,2.1,1.701,3.182,2.52l3.148-3.879c-0.441-0.221-0.873-0.463-1.293-0.729c-0.419-0.244-0.839-0.486-1.259-0.729
		c-0.397-0.289-0.784-0.555-1.16-0.797c-0.42-0.287-0.829-0.563-1.227-0.828c-0.376-0.309-0.751-0.607-1.126-0.895
		c-0.398-0.266-0.797-0.564-1.193-0.896c-0.398-0.309-0.763-0.607-1.094-0.895c-0.376-0.264-0.73-0.574-1.062-0.928
		c-0.375-0.309-0.751-0.619-1.126-0.928c-0.311-0.311-0.631-0.619-0.962-0.928c-0.376-0.332-0.718-0.664-1.027-0.994
		c-0.354-0.332-0.685-0.674-0.994-1.027c-0.31-0.332-0.619-0.676-0.929-1.029c-0.287-0.33-0.574-0.662-0.861-0.994
		c-0.31-0.375-0.607-0.717-0.895-1.027c-0.287-0.396-0.586-0.773-0.895-1.127c-0.244-0.354-0.498-0.717-0.764-1.094
		c-0.287-0.375-0.541-0.729-0.762-1.061c-0.265-0.396-0.52-0.783-0.763-1.16c-0.199-0.332-0.431-0.686-0.696-1.061
		C106.464,178.582,106.244,178.195,106.045,177.842z"/>
	<path fill-rule="evenodd" clip-rule="evenodd" fill="#A71E22" d="M169.021,21.397c2.121,0.31,3.182,1.216,3.182,2.718v40.338
		c7.049,0.928,10.573,2.088,10.573,3.48c-0.397,1.304-3.215,2.364-8.451,3.182c-5.635,0.884-12.475,1.326-20.518,1.326
		c-8.375-0.066-15.18-0.509-20.417-1.326c-5.679-0.861-8.519-1.923-8.519-3.182c0.641-1.48,4.176-2.641,10.606-3.48V24.115
		c0.376-1.812,1.447-2.718,3.216-2.718H169.021z M123.147,258.584l0.364-27.047l25.82,8.32c1.083-0.752,2.309-1.115,3.68-1.094
		c1.834,0.109,3.325,0.717,4.475,1.822l25.289-8.484l-0.331,27.047l-25.124-8.885c-1.26,1.127-2.729,1.691-4.408,1.691
		c-1.48-0.066-2.762-0.498-3.846-1.293L123.147,258.584z"/>
	<path fill-rule="evenodd" clip-rule="evenodd" fill="#FAFDFA" d="M145.951,139.494v29.797h-4.043v-22.738l-6,3.778v-3.778
		c1.503-0.796,3.115-1.867,4.84-3.215c1.701-1.37,3.037-2.651,4.01-3.845H145.951z M169.219,141.184
		c1.613,1.348,2.42,3.115,2.42,5.303c0,1.636-0.453,3.104-1.359,4.408c-0.905,1.238-1.977,2.066-3.215,2.486
		c1.725,0.553,3.083,1.514,4.077,2.885c0.994,1.303,1.491,2.904,1.491,4.805c0,2.74-0.873,4.873-2.618,6.396
		c-1.768,1.459-4.21,2.189-7.325,2.189c-1.326,0-2.618-0.232-3.878-0.697c-1.281-0.529-2.298-1.127-3.05-1.789l1.956-3.115
		c1.325,1.48,2.994,2.221,5.005,2.221c3.779,0,5.668-1.834,5.668-5.502c0-1.701-0.553-3.072-1.657-4.111
		c-1.104-1.037-2.552-1.557-4.342-1.557h-0.331v-3.314h0.165c3.425,0,5.138-1.493,5.138-4.475c0-3.182-1.602-4.773-4.807-4.773
		c-1.745,0-3.148,0.575-4.209,1.724l-1.79-2.718c1.26-1.635,3.358-2.453,6.298-2.453
		C165.44,139.095,167.563,139.792,169.219,141.184z M106.045,177.842c0.199,0.354,0.419,0.74,0.663,1.16
		c0.265,0.375,0.497,0.729,0.696,1.061c0.243,0.377,0.498,0.764,0.763,1.16c0.221,0.332,0.475,0.686,0.762,1.061
		c0.266,0.377,0.52,0.74,0.764,1.094c0.309,0.354,0.607,0.73,0.895,1.127c0.287,0.311,0.585,0.652,0.895,1.027
		c0.287,0.332,0.574,0.664,0.861,0.994c0.31,0.354,0.619,0.697,0.929,1.029c0.31,0.354,0.641,0.695,0.994,1.027
		c0.31,0.33,0.651,0.662,1.027,0.994c0.331,0.309,0.651,0.617,0.962,0.928c0.375,0.309,0.751,0.619,1.126,0.928
		c0.331,0.354,0.686,0.664,1.062,0.928c0.331,0.287,0.695,0.586,1.094,0.895c0.396,0.332,0.795,0.631,1.193,0.896
		c0.375,0.287,0.75,0.586,1.126,0.895c0.397,0.266,0.807,0.541,1.227,0.828c0.376,0.242,0.763,0.508,1.16,0.797
		c0.42,0.242,0.84,0.484,1.259,0.729c0.42,0.266,0.852,0.508,1.293,0.729l-3.148,3.879c-1.082-0.818-2.143-1.658-3.182-2.52
		c-1.017-0.885-1.967-1.779-2.851-2.686c-0.906-0.906-1.778-1.867-2.618-2.883c-0.84-0.973-1.613-1.955-2.32-2.951
		c-0.707-1.059-1.403-2.121-2.088-3.182c-0.641-1.061-1.238-2.143-1.79-3.248c-0.53-1.082-1.05-2.176-1.558-3.281
		C106.796,180.152,106.398,179.014,106.045,177.842z M166.27,205.418c1.392-0.242,2.784-0.518,4.176-0.828
		c1.37-0.309,2.752-0.662,4.144-1.061c1.325-0.42,2.651-0.873,3.978-1.357c1.326-0.531,2.641-1.084,3.943-1.658
		c1.216-0.598,2.442-1.238,3.68-1.922c1.26-0.73,2.475-1.48,3.646-2.254c1.148-0.797,2.298-1.625,3.447-2.486
		c1.104-0.906,2.188-1.822,3.248-2.752c1.016-0.994,2.021-2.031,3.016-3.115c0.95-1.061,1.89-2.154,2.817-3.281l1.094-1.557
		c-0.132,0.418-0.287,0.795-0.464,1.127c-0.221,0.396-0.42,0.783-0.597,1.16c-0.177,0.396-0.364,0.783-0.563,1.16
		c-0.221,0.352-0.432,0.729-0.63,1.127c-0.198,0.396-0.431,0.783-0.696,1.16c-0.221,0.33-0.441,0.695-0.662,1.092
		c-0.376,0.576-0.763,1.117-1.16,1.625c-0.398,0.574-0.796,1.115-1.193,1.625c-0.795,1.059-1.602,2.043-2.42,2.949
		c-0.884,0.928-1.756,1.822-2.618,2.686c-0.906,0.838-1.856,1.656-2.851,2.451c-0.95,0.773-1.944,1.504-2.982,2.188
		c-0.995,0.686-2.022,1.348-3.083,1.99c-1.083,0.641-2.165,1.236-3.248,1.789c-1.149,0.508-2.287,0.994-3.415,1.457
		c-1.126,0.486-2.286,0.908-3.479,1.26c-1.149,0.377-2.331,0.742-3.546,1.096c-1.193,0.242-2.42,0.496-3.68,0.762
		c-1.193,0.221-2.408,0.387-3.646,0.496c-1.215,0.156-2.452,0.266-3.712,0.332l-1.061-6.596c1.392,0,2.817-0.066,4.276-0.199
		C163.463,205.795,164.877,205.641,166.27,205.418z M148.338,205.486c1.215,0.176,2.453,0.32,3.713,0.43l-0.829,6.529
		c-1.503-0.109-2.994-0.297-4.475-0.563c-1.437-0.266-2.896-0.574-4.376-0.928l2.221-6.1
		C145.83,205.121,147.078,205.33,148.338,205.486z"/>
</g>
</svg>
