<?xml version="1.0" encoding="utf-8"?>
<!-- Generator: Adobe Illustrator 16.0.0, SVG Export Plug-In . SVG Version: 6.00 Build 0)  -->
<!DOCTYPE svg PUBLIC "-//W3C//DTD SVG 1.1//EN" "http://www.w3.org/Graphics/SVG/1.1/DTD/svg11.dtd">
<svg version="1.1" id="Layer_1" xmlns="http://www.w3.org/2000/svg" xmlns:xlink="http://www.w3.org/1999/xlink" x="0px" y="0px"
	 width="300px" height="300px" viewBox="0 0 300 300" enable-background="new 0 0 300 300" xml:space="preserve">
<g>
	<path fill-rule="evenodd" clip-rule="evenodd" fill="#14172D" d="M261.415,101.579c0.262,0.819,0.483,1.712,0.663,2.679
		c0.164,0.967,0.279,1.974,0.344,3.023c0.018,0.344,0.042,0.704,0.074,1.082c0,0.344,0,0.704,0,1.081c0,0.36,0,0.729,0,1.106
		c0,0.344-0.009,0.705-0.024,1.082c-0.017,0.377-0.032,0.746-0.05,1.106c-0.032,0.377-0.064,0.754-0.098,1.131
		c-0.033,0.36-0.065,0.721-0.099,1.082c-0.049,0.36-0.098,0.721-0.147,1.081c-0.064,0.377-0.123,0.746-0.172,1.106
		c-0.065,0.344-0.131,0.688-0.196,1.033s-0.14,0.696-0.222,1.057c-0.065,0.328-0.139,0.664-0.221,1.008
		c-0.082,0.312-0.164,0.631-0.246,0.958c-0.099,0.328-0.196,0.639-0.295,0.934s-0.205,0.59-0.319,0.885
		c-0.312,0.869-0.647,1.655-1.008,2.359c-0.377,0.705-0.771,1.311-1.18,1.819c-0.427,0.492-0.877,0.86-1.352,1.106
		c-0.427-0.328-0.812-0.762-1.156-1.302c-0.343-0.557-0.646-1.212-0.908-1.966c-0.263-0.753-0.477-1.59-0.64-2.507
		c-0.065-0.295-0.122-0.598-0.173-0.909c-0.048-0.311-0.09-0.631-0.122-0.958c-0.049-0.328-0.09-0.664-0.123-1.008
		c-0.032-0.328-0.058-0.672-0.073-1.032c-0.033-0.344-0.05-0.696-0.05-1.057c-0.016-0.36-0.024-0.712-0.024-1.057
		c-0.017-0.361-0.017-0.729,0-1.106c0-0.36,0.009-0.729,0.024-1.105c0.017-0.361,0.033-0.729,0.05-1.106
		c0.032-0.377,0.065-0.746,0.098-1.106c0.017-0.36,0.05-0.721,0.099-1.082c0.049-0.376,0.09-0.746,0.122-1.106
		c0.034-0.147,0.059-0.303,0.074-0.467c0.033-0.213,0.065-0.417,0.099-0.614c0.065-0.36,0.123-0.721,0.172-1.082
		c0.082-0.344,0.164-0.688,0.246-1.032c0.213-1.032,0.475-2.015,0.787-2.95c0.311-0.917,0.654-1.769,1.032-2.556
		c0.048-0.099,0.106-0.197,0.171-0.295c0.328-0.656,0.697-1.237,1.106-1.745c0.476-0.606,0.983-1.082,1.524-1.426
		c0.491,0.443,0.917,0.992,1.277,1.647C260.842,100.006,261.153,100.744,261.415,101.579z M242.637,85.824
		c0.229,0.295,0.459,0.59,0.688,0.885c0.229,0.295,0.459,0.606,0.688,0.934c0.229,0.311,0.45,0.639,0.663,0.983
		c0.213,0.328,0.426,0.663,0.64,1.007c0.212,0.344,0.426,0.696,0.639,1.057c0.196,0.36,0.393,0.721,0.59,1.082
		c0.196,0.377,0.385,0.753,0.564,1.13c0.181,0.361,0.361,0.738,0.541,1.13c0.181,0.361,0.354,0.738,0.517,1.131
		c0.147,0.377,0.304,0.754,0.467,1.131c0.147,0.376,0.295,0.762,0.442,1.155c0.132,0.377,0.262,0.754,0.394,1.13
		c0.131,0.361,0.246,0.729,0.344,1.106c0.115,0.377,0.222,0.746,0.319,1.106c0.082,0.36,0.164,0.713,0.246,1.057
		c0.099,0.36,0.172,0.712,0.222,1.057c0.064,0.328,0.114,0.656,0.146,0.983c0.05,0.328,0.083,0.647,0.099,0.958
		c0.033,0.311,0.058,0.606,0.074,0.885c0,0.295-0.009,0.582-0.024,0.86c-0.033,0.541-0.115,1.032-0.246,1.475
		c-0.115,0.442-0.278,0.836-0.491,1.18c-0.541-0.065-1.09-0.254-1.647-0.565c-0.573-0.312-1.163-0.721-1.77-1.229
		c-0.606-0.524-1.213-1.139-1.818-1.843c-0.606-0.688-1.204-1.45-1.795-2.286c-0.196-0.279-0.385-0.565-0.565-0.86
		c-0.213-0.278-0.409-0.573-0.589-0.885c-0.181-0.295-0.361-0.598-0.541-0.91c-0.196-0.311-0.386-0.631-0.565-0.958
		c-0.181-0.311-0.353-0.63-0.517-0.958c-0.18-0.328-0.353-0.655-0.516-0.983c-0.164-0.327-0.319-0.663-0.467-1.007
		c-0.164-0.328-0.319-0.655-0.468-0.983c-0.147-0.36-0.295-0.705-0.442-1.032c-0.146-0.344-0.278-0.688-0.393-1.032
		c-0.132-0.328-0.254-0.664-0.369-1.008c-0.114-0.344-0.229-0.68-0.344-1.007c-0.312-1-0.573-1.983-0.786-2.95
		c-0.181-0.95-0.304-1.86-0.369-2.729c-0.065-0.868-0.041-1.671,0.073-2.408c0.099-0.753,0.304-1.417,0.615-1.991
		c0.475,0.099,0.95,0.271,1.426,0.516c0.475,0.23,0.958,0.524,1.449,0.885c0.492,0.376,0.975,0.794,1.45,1.253
		c0.229,0.246,0.467,0.492,0.713,0.738C242.17,85.275,242.407,85.546,242.637,85.824z M237.696,104.651
		c0.705,0.262,1.425,0.623,2.162,1.082c0.738,0.476,1.476,1.032,2.213,1.671c0.721,0.606,1.434,1.278,2.139,2.015
		c0.017,0.033,0.041,0.058,0.073,0.074c0.722,0.77,1.426,1.589,2.114,2.458c0.704,0.852,1.368,1.737,1.99,2.655
		c0.213,0.311,0.418,0.623,0.615,0.934c0.212,0.295,0.409,0.598,0.59,0.91c0.196,0.312,0.393,0.623,0.59,0.934
		c0.181,0.311,0.352,0.623,0.517,0.934c0.163,0.311,0.327,0.623,0.491,0.934c0.164,0.311,0.318,0.614,0.467,0.909
		c0.442,0.934,0.819,1.835,1.131,2.704c0.327,0.868,0.573,1.687,0.737,2.458c0.163,0.786,0.245,1.499,0.245,2.138
		c-0.016,0.655-0.122,1.229-0.319,1.721c-0.082,0-0.163,0-0.246,0c-0.181,0-0.352-0.008-0.516-0.025
		c-0.164-0.016-0.336-0.049-0.517-0.098c-0.458-0.115-0.925-0.287-1.401-0.516c-0.262-0.115-0.507-0.246-0.736-0.393
		c-0.263-0.148-0.524-0.303-0.787-0.467c-0.262-0.18-0.524-0.369-0.786-0.565c-0.262-0.196-0.524-0.401-0.786-0.614
		c-0.279-0.213-0.549-0.442-0.812-0.688c-0.278-0.245-0.549-0.491-0.811-0.737c-0.279-0.263-0.55-0.533-0.812-0.812
		c-0.262-0.278-0.533-0.557-0.811-0.835c-0.263-0.312-0.525-0.614-0.787-0.91c-0.278-0.295-0.541-0.606-0.786-0.934
		c-0.263-0.312-0.525-0.631-0.787-0.959c-0.246-0.328-0.492-0.664-0.737-1.007c-0.245-0.328-0.483-0.664-0.713-1.008
		c-0.262-0.344-0.5-0.696-0.712-1.057c-0.23-0.328-0.451-0.672-0.664-1.032c-0.23-0.36-0.435-0.705-0.615-1.032
		c-0.212-0.36-0.409-0.721-0.59-1.082c-0.196-0.344-0.377-0.696-0.541-1.057c-0.163-0.344-0.318-0.688-0.467-1.032
		c-0.163-0.344-0.311-0.688-0.441-1.032c-0.131-0.344-0.255-0.68-0.369-1.008c-0.099-0.294-0.188-0.582-0.271-0.86
		c0-0.049-0.009-0.09-0.024-0.123c-0.098-0.328-0.181-0.647-0.246-0.959c-0.065-0.311-0.114-0.614-0.147-0.909
		c-0.099-0.606-0.139-1.171-0.123-1.696c0.033-0.557,0.123-1.065,0.271-1.523C236.336,104.242,237.009,104.389,237.696,104.651z
		 M240.94,126.748h0.024c0.46,0.098,0.935,0.262,1.427,0.491c0.475,0.229,0.958,0.524,1.449,0.885
		c0.492,0.361,0.983,0.771,1.476,1.229c0.245,0.229,0.49,0.475,0.737,0.737c0.229,0.246,0.467,0.508,0.712,0.787
		c0.229,0.278,0.468,0.565,0.713,0.86c0.229,0.312,0.467,0.623,0.713,0.935c0.213,0.311,0.435,0.63,0.664,0.958
		c0.213,0.344,0.435,0.68,0.663,1.007c0.197,0.344,0.401,0.688,0.614,1.033c0.213,0.36,0.427,0.721,0.639,1.082
		c0.197,0.376,0.386,0.753,0.566,1.13c0.196,0.36,0.385,0.729,0.564,1.106c0.181,0.377,0.36,0.754,0.541,1.131
		c0.164,0.377,0.328,0.754,0.491,1.131c0.148,0.376,0.295,0.753,0.443,1.13c0.147,0.393,0.286,0.77,0.417,1.13
		c0.132,0.377,0.255,0.746,0.369,1.106c0.115,0.36,0.222,0.721,0.319,1.082c0.099,0.36,0.188,0.721,0.271,1.081
		c0.098,0.344,0.181,0.696,0.246,1.057c0.049,0.328,0.106,0.655,0.172,0.983c0.049,0.328,0.082,0.647,0.099,0.959
		c0.032,0.295,0.058,0.589,0.073,0.885c0,0.295,0,0.581,0,0.86c-0.033,0.523-0.106,1.007-0.221,1.45
		c-0.099,0.458-0.255,0.852-0.468,1.179c-0.524-0.049-1.081-0.213-1.671-0.491c-0.573-0.312-1.172-0.721-1.794-1.229
		c-0.606-0.524-1.213-1.122-1.819-1.795c-0.622-0.704-1.236-1.466-1.844-2.285c-0.605-0.819-1.188-1.696-1.744-2.63
		c-0.197-0.295-0.386-0.606-0.565-0.935c-0.197-0.312-0.378-0.631-0.541-0.958c-0.181-0.312-0.353-0.639-0.517-0.983
		c-0.18-0.328-0.352-0.655-0.516-0.983c-0.164-0.344-0.319-0.68-0.468-1.008c-0.146-0.344-0.295-0.68-0.441-1.007
		c-0.147-0.328-0.287-0.664-0.418-1.008c-0.147-0.328-0.279-0.672-0.394-1.032c-0.115-0.328-0.229-0.655-0.345-0.983
		c-0.327-1-0.598-1.983-0.81-2.95c-0.23-0.934-0.378-1.835-0.443-2.704c-0.065-0.868-0.049-1.68,0.05-2.433
		C240.474,128.001,240.662,127.338,240.94,126.748z M259.228,132.13c0.376-1,0.795-1.933,1.253-2.802
		c0.442-0.869,0.91-1.655,1.401-2.36c0.508-0.704,1.04-1.319,1.598-1.843c0.54-0.508,1.105-0.893,1.695-1.155h0.025
		c0.409,0.492,0.745,1.098,1.008,1.819c0.262,0.688,0.458,1.466,0.59,2.335c0.131,0.852,0.204,1.762,0.221,2.729
		c0.016,0.983-0.024,2.007-0.123,3.072c-0.032,0.344-0.073,0.696-0.122,1.057c-0.033,0.344-0.082,0.696-0.148,1.057
		c-0.032,0.36-0.081,0.729-0.147,1.106c-0.065,0.344-0.13,0.696-0.196,1.057c-0.082,0.361-0.163,0.729-0.246,1.106
		c-0.081,0.36-0.172,0.713-0.271,1.057c-0.081,0.36-0.171,0.721-0.27,1.082s-0.197,0.713-0.295,1.057
		c-0.115,0.344-0.222,0.697-0.32,1.057c-0.131,0.344-0.253,0.68-0.368,1.008c-0.114,0.328-0.229,0.664-0.344,1.008
		c-0.148,0.311-0.287,0.622-0.418,0.934c-0.394,0.935-0.812,1.811-1.254,2.63s-0.901,1.549-1.377,2.188
		c-0.475,0.64-0.958,1.172-1.449,1.598c-0.492,0.409-0.991,0.705-1.5,0.885c-0.377-0.377-0.695-0.868-0.958-1.475
		c-0.245-0.59-0.435-1.286-0.565-2.089c-0.147-0.771-0.237-1.614-0.271-2.532c-0.017-0.311-0.024-0.622-0.024-0.934
		c0-0.328,0.008-0.655,0.024-0.983c0.017-0.327,0.033-0.663,0.05-1.008c0.016-0.344,0.04-0.688,0.073-1.032
		c0.033-0.361,0.065-0.713,0.099-1.057c0.049-0.344,0.098-0.696,0.147-1.057c0.049-0.36,0.106-0.721,0.171-1.081
		c0.066-0.361,0.141-0.721,0.222-1.082c0.05-0.361,0.115-0.713,0.197-1.057c0.082-0.376,0.172-0.746,0.271-1.105
		c0.082-0.361,0.171-0.722,0.27-1.082c0.083-0.344,0.181-0.696,0.295-1.057c0.115-0.344,0.222-0.688,0.32-1.032
		c0.131-0.361,0.253-0.705,0.368-1.032C258.973,132.77,259.097,132.441,259.228,132.13z M244.186,151.376
		c0.573,0.491,1.131,1.073,1.671,1.744c0.558,0.673,1.082,1.435,1.573,2.286c0.508,0.836,0.983,1.737,1.426,2.704
		c0.131,0.312,0.27,0.631,0.417,0.958c0.148,0.328,0.287,0.664,0.418,1.008c0.132,0.345,0.255,0.68,0.369,1.008
		c0.132,0.344,0.262,0.696,0.393,1.057c0.115,0.345,0.23,0.697,0.345,1.057c0.099,0.345,0.205,0.697,0.319,1.058
		c0.099,0.36,0.188,0.721,0.271,1.081c0.099,0.36,0.188,0.722,0.271,1.082c0.099,0.344,0.18,0.696,0.245,1.057
		c0.066,0.344,0.132,0.688,0.197,1.032c0.064,0.344,0.123,0.696,0.171,1.057c0.051,0.345,0.099,0.681,0.149,1.008
		c0.032,0.344,0.064,0.681,0.098,1.008c0.033,0.328,0.057,0.655,0.073,0.983c0.017,0.312,0.033,0.622,0.05,0.934
		c0.016,0.918-0.025,1.77-0.123,2.557c-0.082,0.803-0.238,1.508-0.467,2.113c-0.214,0.623-0.491,1.131-0.836,1.524
		c-0.393-0.115-0.778-0.287-1.155-0.517c-0.394-0.263-0.778-0.581-1.155-0.958c-0.394-0.378-0.786-0.812-1.18-1.303
		c-0.181-0.247-0.36-0.5-0.541-0.763c-0.197-0.278-0.385-0.557-0.565-0.835c-0.18-0.312-0.368-0.623-0.564-0.935
		c-0.164-0.311-0.337-0.631-0.517-0.958c-0.181-0.328-0.344-0.664-0.492-1.008c-0.18-0.36-0.352-0.713-0.516-1.057
		c-0.147-0.377-0.303-0.754-0.467-1.131c-0.147-0.36-0.295-0.737-0.442-1.131s-0.287-0.778-0.418-1.155
		c-0.147-0.393-0.278-0.786-0.394-1.18c-0.132-0.409-0.254-0.812-0.369-1.204c-0.114-0.41-0.221-0.812-0.319-1.204
		c-0.098-0.41-0.196-0.812-0.295-1.205c-0.081-0.409-0.172-0.811-0.271-1.204c-0.065-0.41-0.13-0.803-0.196-1.18
		c-0.065-0.41-0.122-0.803-0.172-1.18c-0.049-0.394-0.082-0.771-0.098-1.131c-0.034-0.377-0.066-0.754-0.099-1.131
		c-0.017-0.36-0.025-0.713-0.025-1.057c0-0.36,0.009-0.704,0.025-1.032c0.032-0.344,0.064-0.672,0.099-0.983
		c0.032-0.312,0.073-0.622,0.122-0.934c0.115-0.574,0.271-1.123,0.467-1.647c0.197-0.491,0.435-0.934,0.714-1.326v-0.025
		C242.997,150.548,243.596,150.9,244.186,151.376z M257.949,161.576c0.491-0.983,1.008-1.926,1.548-2.827
		c0.541-0.901,1.106-1.745,1.696-2.531c0.59-0.771,1.196-1.467,1.819-2.09c0.606-0.622,1.229-1.139,1.867-1.548
		c0.623-0.394,1.254-0.672,1.894-0.836c0.312,0.558,0.532,1.204,0.663,1.941c0.147,0.737,0.213,1.54,0.196,2.409
		c-0.016,0.868-0.106,1.786-0.271,2.753c-0.131,0.967-0.335,1.958-0.614,2.974c-0.098,0.344-0.195,0.688-0.294,1.032
		s-0.205,0.688-0.32,1.032c-0.114,0.345-0.237,0.688-0.369,1.032c-0.114,0.345-0.245,0.688-0.393,1.032
		c-0.131,0.361-0.263,0.705-0.394,1.032c-0.146,0.345-0.295,0.688-0.442,1.033c-0.146,0.327-0.295,0.663-0.442,1.007
		c-0.181,0.328-0.344,0.656-0.491,0.983c-0.164,0.328-0.336,0.647-0.517,0.959c-0.18,0.327-0.353,0.647-0.516,0.958
		c-0.181,0.295-0.353,0.599-0.517,0.91c-0.197,0.295-0.385,0.581-0.565,0.86c-0.54,0.852-1.098,1.646-1.671,2.384
		c-0.574,0.737-1.155,1.368-1.745,1.893c-0.573,0.557-1.131,1.008-1.671,1.352c-0.574,0.328-1.123,0.524-1.647,0.59
		c-0.312-0.426-0.541-0.959-0.688-1.598c-0.147-0.622-0.221-1.336-0.221-2.138c0-0.804,0.057-1.655,0.172-2.557
		c0.049-0.311,0.098-0.614,0.147-0.909c0.065-0.328,0.123-0.655,0.172-0.983c0.065-0.328,0.14-0.647,0.222-0.958
		c0.082-0.345,0.163-0.681,0.246-1.008c0.099-0.345,0.205-0.681,0.319-1.009c0.082-0.359,0.18-0.712,0.295-1.056
		c0.131-0.328,0.254-0.664,0.368-1.008c0.115-0.361,0.237-0.713,0.368-1.058c0.132-0.328,0.271-0.663,0.418-1.008
		c0.132-0.36,0.279-0.704,0.442-1.032c0.132-0.344,0.279-0.68,0.442-1.008C257.605,162.239,257.769,161.903,257.949,161.576z
		 M217.984,213.658c-0.18,0.852-0.427,1.745-0.737,2.679c-0.082,0.181-0.156,0.377-0.222,0.59c-0.278,0.721-0.589,1.466-0.934,2.236
		c-0.164,0.312-0.319,0.623-0.467,0.935c-0.18,0.327-0.353,0.647-0.516,0.959c-0.165,0.327-0.345,0.654-0.541,0.982
		c-0.181,0.312-0.361,0.623-0.541,0.935c-0.196,0.311-0.394,0.622-0.591,0.933c-0.196,0.312-0.4,0.623-0.614,0.935
		c-0.081,0.131-0.163,0.246-0.246,0.345c-0.131,0.196-0.262,0.385-0.393,0.564c-0.213,0.312-0.426,0.607-0.639,0.886
		c-0.213,0.294-0.435,0.589-0.664,0.885c-0.672,0.836-1.36,1.63-2.064,2.384c-0.688,0.754-1.376,1.442-2.064,2.064
		c-0.704,0.59-1.385,1.105-2.041,1.549c-0.671,0.459-1.31,0.794-1.916,1.008c-0.574,0.229-1.106,0.344-1.598,0.344h-0.123
		c-0.229-0.492-0.353-1.064-0.368-1.721c-0.033-0.639,0.016-1.352,0.146-2.138c0.132-0.786,0.337-1.622,0.615-2.507
		c0.294-0.885,0.646-1.795,1.057-2.729c0.098-0.181,0.188-0.377,0.271-0.59c0.049-0.099,0.098-0.214,0.147-0.345
		c0.146-0.312,0.303-0.623,0.467-0.935c0.164-0.311,0.327-0.63,0.492-0.958c0.18-0.328,0.36-0.647,0.54-0.958
		c0.164-0.328,0.353-0.647,0.565-0.958c0.181-0.312,0.368-0.623,0.564-0.935c0.197-0.312,0.402-0.623,0.615-0.935
		c0.197-0.312,0.402-0.614,0.614-0.909c0.229-0.312,0.451-0.614,0.664-0.909c0.655-0.886,1.327-1.721,2.016-2.508
		c0.704-0.802,1.417-1.532,2.138-2.187c0.722-0.672,1.435-1.254,2.139-1.745c0.722-0.492,1.426-0.885,2.114-1.18
		c0.376-0.181,0.762-0.312,1.154-0.394c0.279-0.049,0.565-0.091,0.86-0.123v0.024c0.213,0.606,0.328,1.286,0.345,2.04
		C218.23,212.011,218.148,212.806,217.984,213.658z M244.186,177.773c0.18,0.966,0.327,1.974,0.441,3.022
		c0.018,0.345,0.041,0.696,0.074,1.057c0.017,0.361,0.032,0.722,0.05,1.082c0.016,0.361,0.024,0.729,0.024,1.106
		c0,0.049,0,0.098,0,0.146c0,0.312,0,0.623,0,0.935c0,0.376-0.017,0.754-0.05,1.131c-0.017,0.36-0.032,0.729-0.049,1.105
		c-0.016,0.36-0.05,0.729-0.098,1.106c-0.033,0.36-0.066,0.721-0.099,1.082c-0.049,0.36-0.091,0.729-0.123,1.105
		c-0.065,0.344-0.123,0.696-0.172,1.057c-0.065,0.345-0.132,0.688-0.197,1.032c-0.064,0.345-0.131,0.681-0.196,1.009
		c-0.082,0.327-0.156,0.654-0.221,0.982c-0.099,0.328-0.188,0.64-0.271,0.934c-0.081,0.295-0.172,0.591-0.27,0.886
		c-0.312,0.884-0.639,1.687-0.983,2.408c-0.36,0.704-0.745,1.311-1.155,1.818c-0.393,0.492-0.827,0.869-1.303,1.131
		c-0.442-0.295-0.836-0.721-1.18-1.278c-0.36-0.523-0.681-1.163-0.958-1.916c-0.279-0.738-0.517-1.566-0.714-2.482
		c-0.081-0.296-0.139-0.599-0.171-0.91c-0.066-0.328-0.123-0.647-0.173-0.959c-0.049-0.327-0.099-0.663-0.146-1.008
		c-0.034-0.327-0.066-0.663-0.099-1.008c-0.033-0.36-0.058-0.713-0.074-1.056c-0.033-0.361-0.049-0.722-0.049-1.082
		c-0.017-0.36-0.025-0.722-0.025-1.082c-0.016-0.377-0.016-0.745,0-1.105c0-0.36,0.009-0.729,0.025-1.106
		c0-0.376,0.016-0.746,0.049-1.106c0.017-0.376,0.041-0.745,0.074-1.104c0.016-0.165,0.032-0.336,0.049-0.518
		c0.016-0.196,0.041-0.393,0.073-0.589c0.033-0.361,0.074-0.722,0.123-1.082c0.066-0.36,0.123-0.721,0.173-1.081
		c0.049-0.345,0.114-0.696,0.196-1.057c0.196-1.017,0.434-1.992,0.712-2.926c0.279-0.934,0.607-1.802,0.983-2.605
		c0.377-0.786,0.787-1.482,1.229-2.089c0.442-0.59,0.934-1.073,1.475-1.45c0.491,0.426,0.935,0.959,1.327,1.598
		c0.377,0.639,0.713,1.377,1.008,2.212C243.775,175.921,244.005,176.807,244.186,177.773z M259.276,181.804
		c0.804-0.36,1.565-0.63,2.286-0.812c0.54-0.131,1.064-0.196,1.573-0.196l0.491,0.049c0.115,0.623,0.115,1.312,0,2.065
		c-0.132,0.737-0.345,1.507-0.639,2.311c-0.312,0.819-0.705,1.662-1.18,2.531c-0.459,0.836-0.992,1.696-1.598,2.581
		c-0.591,0.852-1.238,1.712-1.942,2.581c-0.54,0.654-1.105,1.302-1.696,1.94c-0.163,0.181-0.327,0.36-0.491,0.542
		c-0.771,0.818-1.557,1.589-2.359,2.31c-0.819,0.737-1.63,1.418-2.434,2.04c-0.818,0.64-1.614,1.196-2.384,1.672
		c-0.786,0.491-1.54,0.901-2.261,1.229c-0.738,0.312-1.426,0.533-2.064,0.663c-0.182,0.034-0.353,0.059-0.517,0.074
		s-0.328,0.024-0.491,0.024c-0.132,0-0.255-0.009-0.369-0.024c-0.115,0-0.237-0.008-0.368-0.024
		c-0.132-0.524-0.165-1.114-0.099-1.771c0.065-0.639,0.229-1.335,0.491-2.088c0.278-0.754,0.631-1.532,1.057-2.335
		c0.41-0.836,0.901-1.68,1.475-2.531c0.541-0.853,1.147-1.705,1.819-2.557c0.672-0.885,1.385-1.729,2.139-2.531
		c0.736-0.853,1.499-1.656,2.285-2.409c0.803-0.771,1.614-1.483,2.434-2.139c0.327-0.278,0.663-0.549,1.008-0.812
		c0.475-0.343,0.959-0.679,1.45-1.007C257.695,182.64,258.49,182.181,259.276,181.804z M231.773,192.029
		c0.377,0.523,0.663,1.146,0.859,1.867c0.082,0.279,0.156,0.573,0.221,0.885c0.099,0.476,0.165,0.976,0.197,1.499
		c0.065,0.868,0.065,1.787,0,2.753c-0.032,0.656-0.099,1.319-0.197,1.991c-0.048,0.344-0.106,0.688-0.171,1.032
		c-0.05,0.344-0.106,0.696-0.172,1.057c-0.066,0.36-0.147,0.713-0.246,1.057c-0.065,0.361-0.147,0.722-0.246,1.082
		c-0.098,0.344-0.188,0.697-0.271,1.057c-0.114,0.36-0.229,0.721-0.344,1.081c-0.098,0.345-0.205,0.688-0.319,1.033
		s-0.229,0.688-0.344,1.032c-0.132,0.36-0.263,0.713-0.394,1.057c-0.147,0.328-0.287,0.664-0.418,1.008
		c-0.132,0.327-0.278,0.655-0.442,0.983c-0.147,0.327-0.287,0.647-0.418,0.958c-0.164,0.312-0.319,0.623-0.467,0.935
		c-0.476,0.9-0.967,1.736-1.475,2.507c-0.492,0.787-0.999,1.475-1.524,2.064c-0.524,0.606-1.049,1.098-1.573,1.475
		c-0.523,0.394-1.048,0.655-1.572,0.786c-0.344-0.409-0.615-0.926-0.812-1.548c-0.213-0.623-0.36-1.327-0.442-2.114
		c-0.082-0.786-0.099-1.639-0.049-2.556c0-0.312,0.008-0.623,0.024-0.935c0.049-0.327,0.082-0.655,0.099-0.983
		c0.032-0.327,0.082-0.663,0.146-1.007c0.033-0.328,0.082-0.664,0.148-1.008c0.049-0.345,0.114-0.688,0.196-1.032
		c0.065-0.361,0.14-0.713,0.221-1.058c0.082-0.343,0.164-0.696,0.246-1.057c0.099-0.359,0.188-0.721,0.271-1.081
		c0.098-0.345,0.205-0.696,0.319-1.058c0.099-0.36,0.213-0.712,0.344-1.056c0.099-0.361,0.213-0.714,0.345-1.057
		c0.132-0.345,0.262-0.689,0.394-1.033c0.131-0.345,0.271-0.68,0.417-1.008c0.131-0.344,0.271-0.68,0.418-1.008
		c0.147-0.311,0.296-0.63,0.442-0.958c0.459-0.951,0.951-1.835,1.476-2.654c0.49-0.836,1.023-1.59,1.598-2.262
		c0.54-0.671,1.105-1.245,1.695-1.72c0.591-0.459,1.188-0.795,1.794-1.008H231.773z M234.477,212.404
		c0.295-0.196,0.599-0.394,0.91-0.59c0.311-0.213,0.622-0.418,0.934-0.614c0.327-0.196,0.646-0.394,0.958-0.59
		c0.312-0.181,0.631-0.36,0.959-0.541c0.312-0.181,0.631-0.352,0.958-0.517c0.328-0.163,0.647-0.328,0.959-0.491
		c0.312-0.164,0.631-0.319,0.959-0.467c0.967-0.426,1.917-0.795,2.851-1.106c0.918-0.312,1.811-0.54,2.68-0.688
		c0.753-0.164,1.475-0.246,2.162-0.246l0.222,0.024c0.753,0,1.434,0.115,2.04,0.345c-0.049,0.654-0.229,1.326-0.541,2.015
		c-0.278,0.672-0.68,1.368-1.204,2.09c-0.492,0.704-1.073,1.409-1.745,2.113c-0.672,0.705-1.409,1.409-2.213,2.114
		c-0.802,0.688-1.654,1.36-2.556,2.015c-0.295,0.197-0.599,0.401-0.909,0.614c-0.295,0.23-0.598,0.435-0.909,0.615
		c-0.312,0.213-0.623,0.417-0.935,0.614c-0.311,0.181-0.631,0.369-0.959,0.565c-0.311,0.181-0.622,0.36-0.934,0.541
		c-0.327,0.18-0.655,0.352-0.982,0.516c-0.312,0.164-0.631,0.328-0.959,0.491c-0.312,0.148-0.622,0.295-0.934,0.443
		c-0.328,0.147-0.647,0.286-0.959,0.417c-0.509,0.213-0.999,0.409-1.476,0.591c-0.426,0.146-0.844,0.286-1.252,0.417
		c-0.886,0.262-1.721,0.468-2.508,0.615c-0.295,0.032-0.582,0.065-0.86,0.098c-0.295,0.017-0.565,0.025-0.811,0.025h-0.492
		c-0.639-0.05-1.195-0.181-1.671-0.394c-0.016-0.541,0.099-1.122,0.344-1.745c0.229-0.591,0.565-1.213,1.008-1.868
		c0.442-0.672,0.975-1.352,1.598-2.04s1.311-1.368,2.064-2.04c0.753-0.688,1.565-1.368,2.434-2.04
		c0.049-0.033,0.099-0.065,0.146-0.098c0.247-0.182,0.492-0.361,0.738-0.541C233.871,212.854,234.165,212.635,234.477,212.404z
		 M59.28,83.833c0.639-0.59,1.278-1.073,1.917-1.45c0.655-0.377,1.302-0.631,1.941-0.762c0.295,0.574,0.491,1.238,0.59,1.991
		c0.066,0.442,0.107,0.901,0.123,1.376c0,0.328-0.016,0.672-0.049,1.032c-0.049,0.869-0.172,1.778-0.369,2.729
		c-0.196,0.967-0.458,1.95-0.787,2.95c-0.098,0.328-0.212,0.664-0.344,1.007c-0.115,0.344-0.229,0.68-0.344,1.008
		c-0.131,0.344-0.262,0.688-0.393,1.032c-0.148,0.328-0.303,0.672-0.467,1.032c-0.131,0.328-0.278,0.656-0.442,0.983
		c-0.147,0.344-0.311,0.68-0.492,1.007c-0.164,0.328-0.327,0.656-0.491,0.983c-0.18,0.328-0.353,0.647-0.516,0.958
		c-0.197,0.328-0.385,0.647-0.565,0.958c-0.18,0.312-0.369,0.615-0.565,0.91c-0.18,0.312-0.369,0.606-0.565,0.885
		c-0.196,0.295-0.393,0.582-0.59,0.86c-0.295,0.41-0.589,0.811-0.885,1.205c-0.294,0.377-0.598,0.737-0.909,1.082
		c-0.606,0.704-1.205,1.319-1.794,1.843c-0.606,0.508-1.196,0.917-1.77,1.229c-0.574,0.311-1.123,0.5-1.647,0.565
		c-0.295-0.458-0.508-1.008-0.639-1.646c-0.099-0.639-0.131-1.352-0.099-2.139c0.017-0.803,0.107-1.655,0.271-2.556
		c0.065-0.311,0.131-0.614,0.196-0.909c0.066-0.328,0.139-0.647,0.222-0.958c0.082-0.328,0.171-0.655,0.27-0.983
		c0.082-0.328,0.181-0.655,0.295-0.983c0.098-0.328,0.212-0.664,0.344-1.008c0.099-0.328,0.213-0.664,0.344-1.008
		c0.131-0.328,0.271-0.672,0.418-1.032c0.131-0.328,0.271-0.655,0.418-0.983c0.147-0.361,0.302-0.697,0.467-1.008
		c0.147-0.36,0.303-0.696,0.467-1.007c0.164-0.344,0.335-0.68,0.516-1.008c0.164-0.328,0.336-0.647,0.516-0.958
		c0.541-0.967,1.098-1.893,1.672-2.777c0.147-0.213,0.294-0.418,0.442-0.614c0.459-0.656,0.918-1.271,1.376-1.844
		c0.263-0.295,0.516-0.574,0.762-0.836C58.502,84.579,58.887,84.194,59.28,83.833z M39.519,99.367
		c0.377-0.655,0.803-1.204,1.278-1.647h0.024c0.393,0.262,0.778,0.598,1.155,1.008c0.36,0.393,0.696,0.852,1.007,1.376
		c0.165,0.246,0.32,0.516,0.467,0.811c0.131,0.279,0.271,0.565,0.418,0.86c0.147,0.311,0.279,0.631,0.394,0.958
		c0.082,0.164,0.147,0.336,0.196,0.516c0.066,0.164,0.131,0.328,0.197,0.491c0.098,0.344,0.205,0.705,0.32,1.082
		c0.098,0.36,0.196,0.729,0.294,1.106c0.082,0.377,0.164,0.762,0.246,1.155c0.099,0.393,0.181,0.787,0.246,1.18
		c0.066,0.393,0.123,0.778,0.172,1.155c0,0.017,0,0.033,0,0.049c0.066,0.41,0.123,0.819,0.172,1.229
		c0.049,0.41,0.099,0.828,0.147,1.253c0.016,0.41,0.041,0.819,0.074,1.229c0.033,0.426,0.057,0.844,0.074,1.253
		c0,0.41,0.008,0.819,0.024,1.229c0,0.41-0.008,0.819-0.024,1.229c0,0.393-0.008,0.795-0.025,1.204
		c-0.033,0.394-0.065,0.779-0.099,1.156c-0.016,0.393-0.049,0.778-0.098,1.155c-0.033,0.376-0.082,0.737-0.147,1.081
		c-0.049,0.361-0.107,0.705-0.172,1.032c-0.066,0.345-0.139,0.68-0.221,1.008c-0.082,0.312-0.164,0.614-0.246,0.91
		c-0.082,0.311-0.172,0.598-0.27,0.86c-0.115,0.279-0.229,0.541-0.345,0.787c-0.229,0.492-0.475,0.926-0.737,1.303
		c-0.279,0.36-0.582,0.664-0.91,0.909c-0.459-0.246-0.91-0.614-1.352-1.106c-0.41-0.508-0.803-1.114-1.18-1.819
		s-0.721-1.491-1.032-2.359c-0.099-0.295-0.189-0.59-0.271-0.885c-0.115-0.295-0.212-0.606-0.295-0.934
		c-0.098-0.328-0.18-0.647-0.246-0.958c-0.099-0.344-0.18-0.68-0.246-1.008c-0.082-0.36-0.147-0.712-0.196-1.057
		c-0.082-0.344-0.147-0.688-0.197-1.033c-0.065-0.36-0.123-0.729-0.172-1.106c-0.049-0.36-0.098-0.721-0.147-1.081
		c-0.033-0.361-0.065-0.721-0.099-1.082c-0.033-0.377-0.065-0.754-0.098-1.131c-0.017-0.36-0.033-0.729-0.049-1.106
		c-0.033-0.377-0.049-0.737-0.049-1.082c0-0.377,0-0.746,0-1.106c0-0.377,0.008-0.737,0.024-1.081
		c0.016-0.377,0.033-0.738,0.049-1.082c0.082-1.049,0.205-2.057,0.369-3.023c0.148-0.967,0.361-1.86,0.64-2.679
		C38.847,100.744,39.158,100.006,39.519,99.367z M57.953,107.404c0.721-0.639,1.458-1.196,2.212-1.671
		c0.721-0.459,1.434-0.819,2.139-1.082s1.376-0.41,2.016-0.442h0.024c0.181,0.606,0.262,1.294,0.246,2.064
		c-0.016,0.737-0.131,1.532-0.344,2.384c-0.049,0.246-0.115,0.5-0.196,0.762c-0.18,0.607-0.394,1.229-0.639,1.868
		c-0.361,0.917-0.779,1.843-1.254,2.777c-0.475,0.951-1.008,1.893-1.598,2.827c-0.196,0.295-0.393,0.598-0.589,0.91
		c-0.213,0.311-0.426,0.622-0.64,0.934c-0.212,0.295-0.426,0.59-0.639,0.885c-0.671,0.901-1.36,1.77-2.065,2.605
		c-0.212,0.246-0.426,0.492-0.639,0.737c-0.492,0.557-0.991,1.09-1.499,1.598c-0.721,0.705-1.434,1.352-2.138,1.942
		c-0.721,0.59-1.426,1.09-2.114,1.499c-0.688,0.41-1.335,0.713-1.941,0.91c-0.525,0.18-1.024,0.271-1.5,0.271
		c-0.082,0-0.156,0-0.221,0c-0.213-0.492-0.32-1.065-0.32-1.721c-0.017-0.639,0.057-1.352,0.221-2.138
		c0.164-0.771,0.401-1.589,0.713-2.458c0.327-0.869,0.712-1.77,1.155-2.704c0.147-0.295,0.302-0.598,0.467-0.909
		c0.164-0.312,0.327-0.623,0.491-0.934c0.164-0.312,0.345-0.623,0.541-0.934c0.181-0.312,0.369-0.623,0.565-0.934
		c0.196-0.312,0.393-0.615,0.59-0.91c0.196-0.311,0.401-0.623,0.615-0.934c0.639-0.917,1.302-1.803,1.991-2.655
		c0.688-0.868,1.4-1.688,2.138-2.458c0.016-0.017,0.041-0.041,0.074-0.074c0.049-0.049,0.106-0.106,0.172-0.172
		C56.625,108.576,57.281,107.961,57.953,107.404z M59.625,128.739c0.098,0.753,0.114,1.565,0.049,2.433
		c-0.065,0.869-0.205,1.77-0.418,2.704c-0.213,0.967-0.491,1.95-0.836,2.95c-0.098,0.328-0.213,0.655-0.344,0.983
		c-0.115,0.36-0.246,0.705-0.393,1.032c-0.131,0.344-0.262,0.68-0.394,1.008c-0.147,0.328-0.303,0.664-0.467,1.007
		c-0.147,0.328-0.303,0.664-0.467,1.008c-0.115,0.246-0.237,0.5-0.369,0.762c-0.033,0.065-0.073,0.139-0.123,0.221
		c-0.18,0.344-0.352,0.672-0.516,0.983c-0.18,0.327-0.36,0.646-0.541,0.958c-0.197,0.328-0.385,0.64-0.565,0.935
		c-0.574,0.934-1.163,1.811-1.77,2.63c-0.606,0.819-1.212,1.581-1.819,2.285c-0.623,0.673-1.237,1.271-1.843,1.795
		c-0.623,0.508-1.212,0.917-1.77,1.229c-0.59,0.278-1.147,0.451-1.671,0.517v-0.025c-0.278-0.441-0.475-0.99-0.59-1.646
		c-0.115-0.622-0.147-1.335-0.098-2.139c0.049-0.803,0.156-1.646,0.32-2.531c0.082-0.311,0.155-0.622,0.221-0.934
		c0.065-0.312,0.147-0.623,0.246-0.934c0.082-0.328,0.172-0.656,0.271-0.983c0.098-0.328,0.204-0.656,0.319-0.983
		c0.099-0.328,0.213-0.655,0.345-0.983c0.115-0.344,0.237-0.68,0.368-1.007c0.147-0.344,0.288-0.68,0.418-1.008
		c0.147-0.344,0.295-0.68,0.442-1.008c0.164-0.344,0.32-0.68,0.467-1.008c0.164-0.344,0.336-0.68,0.516-1.007
		c0.164-0.328,0.336-0.656,0.516-0.983c0.165-0.311,0.345-0.631,0.542-0.958c0.541-0.951,1.114-1.86,1.72-2.729
		c0.59-0.869,1.213-1.68,1.868-2.433c0.639-0.737,1.278-1.393,1.917-1.966c0.278-0.246,0.549-0.467,0.811-0.664
		c0.376-0.295,0.753-0.549,1.13-0.762c0.656-0.36,1.303-0.606,1.942-0.737h0.024C59.362,127.338,59.542,128.001,59.625,128.739z
		 M41.854,135.178c0.083,0.361,0.172,0.713,0.27,1.057c0.099,0.36,0.197,0.721,0.296,1.082c0.081,0.36,0.164,0.729,0.245,1.105
		c0.082,0.344,0.156,0.696,0.222,1.057c0.065,0.36,0.131,0.721,0.196,1.082c0.066,0.36,0.123,0.721,0.172,1.081
		c0.049,0.361,0.098,0.713,0.147,1.057c0.033,0.344,0.065,0.696,0.099,1.057c0.032,0.344,0.065,0.688,0.098,1.032
		c0.017,0.345,0.033,0.681,0.049,1.008c0,0.328,0,0.655,0,0.983c0,0.312,0,0.623,0,0.934c-0.049,0.918-0.139,1.762-0.271,2.532
		c-0.147,0.803-0.344,1.499-0.59,2.089c-0.262,0.606-0.573,1.098-0.934,1.475c-0.393-0.131-0.77-0.336-1.13-0.614
		c-0.393-0.278-0.762-0.614-1.106-1.008c-0.197-0.196-0.385-0.401-0.566-0.614c-0.18-0.246-0.352-0.492-0.516-0.737
		c-0.18-0.263-0.353-0.533-0.516-0.812c-0.18-0.295-0.353-0.59-0.516-0.885c-0.164-0.295-0.32-0.606-0.467-0.934
		c-0.18-0.328-0.344-0.655-0.491-0.983c-0.147-0.344-0.295-0.696-0.443-1.057c-0.147-0.36-0.287-0.729-0.417-1.106
		c-0.147-0.376-0.287-0.753-0.418-1.131c-0.114-0.376-0.237-0.762-0.369-1.155c-0.131-0.393-0.246-0.794-0.344-1.204
		c-0.131-0.394-0.238-0.795-0.32-1.205c-0.099-0.393-0.188-0.795-0.271-1.204c-0.099-0.41-0.188-0.811-0.27-1.205
		c-0.083-0.41-0.156-0.819-0.221-1.229c-0.083-0.41-0.14-0.819-0.172-1.229c-0.049-0.393-0.098-0.787-0.147-1.18
		c-0.033-0.393-0.065-0.787-0.098-1.18c-0.017-0.394-0.033-0.778-0.049-1.155c-0.016-0.376-0.016-0.753,0-1.13
		c0-0.344,0.008-0.697,0.024-1.057c0.033-0.36,0.066-0.696,0.098-1.008c0.033-0.36,0.083-0.688,0.147-0.983
		c0.05-0.328,0.106-0.631,0.172-0.91c0.164-0.606,0.353-1.147,0.565-1.622c0.229-0.492,0.5-0.926,0.811-1.303
		c0.59,0.262,1.163,0.647,1.721,1.155c0.541,0.524,1.065,1.139,1.573,1.843c0.492,0.705,0.967,1.491,1.425,2.36
		c0.443,0.869,0.852,1.802,1.229,2.802c0.148,0.311,0.279,0.639,0.394,0.983c0.115,0.328,0.229,0.671,0.344,1.032
		C41.608,134.49,41.723,134.834,41.854,135.178z M34.677,152.31c0.459,0.262,0.925,0.581,1.401,0.958
		c0.459,0.394,0.926,0.836,1.401,1.328c0.212,0.245,0.434,0.508,0.663,0.786c0.23,0.262,0.459,0.541,0.688,0.836
		c0.213,0.295,0.426,0.598,0.639,0.909s0.426,0.622,0.639,0.934c0.213,0.328,0.417,0.664,0.614,1.008
		c0.197,0.36,0.393,0.713,0.59,1.057c0.196,0.361,0.393,0.722,0.59,1.082c0.18,0.377,0.361,0.754,0.541,1.131
		c0.18,0.36,0.353,0.737,0.517,1.13c0.164,0.377,0.328,0.763,0.491,1.155c0.147,0.377,0.295,0.763,0.443,1.155
		c0.147,0.377,0.286,0.762,0.417,1.155c0.147,0.394,0.287,0.778,0.418,1.155c0.115,0.394,0.221,0.778,0.319,1.155
		c0.115,0.394,0.221,0.771,0.319,1.131c0.082,0.377,0.164,0.745,0.246,1.106c0.082,0.36,0.156,0.721,0.221,1.081
		s0.115,0.713,0.147,1.057c0.049,0.344,0.09,0.68,0.123,1.008c0.016,0.327,0.033,0.647,0.049,0.959s0.016,0.605,0,0.884
		c0,0.295-0.016,0.574-0.049,0.837c-0.066,0.54-0.165,1.031-0.295,1.475c-0.147,0.441-0.327,0.818-0.541,1.13
		c-0.541-0.065-1.09-0.262-1.646-0.59c-0.557-0.344-1.123-0.795-1.696-1.352c-0.59-0.524-1.164-1.155-1.721-1.893
		c-0.59-0.737-1.156-1.532-1.696-2.384c-0.18-0.279-0.36-0.565-0.541-0.86c-0.18-0.312-0.36-0.615-0.541-0.91
		c-0.164-0.311-0.336-0.631-0.516-0.958c-0.164-0.312-0.328-0.631-0.492-0.959c-0.164-0.327-0.328-0.655-0.492-0.983
		c-0.147-0.344-0.294-0.68-0.443-1.007c-0.164-0.345-0.319-0.688-0.466-1.033c-0.131-0.327-0.263-0.671-0.394-1.032
		c-0.131-0.344-0.262-0.688-0.393-1.032c-0.131-0.344-0.246-0.688-0.344-1.032c-0.115-0.344-0.221-0.688-0.319-1.032
		c-0.115-0.344-0.213-0.688-0.295-1.032c-0.278-1.016-0.492-2.007-0.639-2.974c-0.164-0.967-0.253-1.885-0.27-2.753
		c-0.016-0.869,0.049-1.672,0.197-2.409c0.131-0.737,0.36-1.384,0.688-1.941C33.727,151.858,34.202,152.047,34.677,152.31z
		 M57.608,150.318l0.025,0.025c0.36,0.523,0.655,1.146,0.885,1.867c0.213,0.705,0.361,1.491,0.442,2.359
		c0.082,0.869,0.106,1.786,0.074,2.753c-0.065,0.983-0.18,1.999-0.344,3.048c-0.049,0.328-0.098,0.672-0.147,1.032
		c-0.066,0.361-0.14,0.722-0.222,1.082c-0.065,0.344-0.139,0.696-0.221,1.057c-0.098,0.36-0.188,0.721-0.271,1.081
		c-0.098,0.345-0.196,0.697-0.294,1.057c-0.115,0.361-0.221,0.722-0.32,1.082c-0.131,0.345-0.246,0.696-0.344,1.057
		c-0.115,0.345-0.246,0.681-0.393,1.008c-0.131,0.36-0.262,0.705-0.394,1.032c-0.033,0.099-0.065,0.188-0.098,0.271
		c-0.098,0.246-0.196,0.492-0.294,0.737c-0.131,0.328-0.271,0.647-0.418,0.959c-0.164,0.311-0.319,0.623-0.467,0.934
		c-0.442,0.901-0.909,1.753-1.401,2.557c-0.492,0.77-1,1.458-1.524,2.064c-0.508,0.623-1.024,1.122-1.548,1.5
		c-0.508,0.393-1.016,0.663-1.524,0.811c-0.36-0.394-0.656-0.901-0.885-1.524c-0.213-0.605-0.369-1.311-0.467-2.113
		c-0.082-0.787-0.106-1.639-0.074-2.557c0-0.312,0.008-0.622,0.024-0.934c0.017-0.328,0.042-0.655,0.074-0.983
		c0.032-0.327,0.074-0.664,0.123-1.008c0.033-0.327,0.074-0.663,0.123-1.008c0.049-0.36,0.115-0.713,0.197-1.057
		c0.049-0.344,0.115-0.688,0.196-1.032c0.066-0.36,0.139-0.713,0.222-1.057c0.082-0.36,0.171-0.722,0.27-1.082
		c0.082-0.36,0.181-0.721,0.295-1.081c0.098-0.36,0.196-0.713,0.294-1.058c0.115-0.359,0.229-0.712,0.344-1.057
		c0.131-0.36,0.262-0.713,0.393-1.057c0.115-0.328,0.246-0.663,0.394-1.008c0.131-0.344,0.27-0.68,0.418-1.008
		c0.131-0.327,0.27-0.646,0.417-0.958c0.443-0.967,0.909-1.868,1.401-2.704c0.508-0.852,1.033-1.613,1.573-2.286
		c0.542-0.671,1.098-1.253,1.672-1.744c0.049-0.05,0.106-0.091,0.172-0.123C56.527,150.843,57.068,150.531,57.608,150.318z
		 M58.862,171.309c0.524,0.377,1.007,0.86,1.45,1.45c0.459,0.606,0.877,1.303,1.254,2.089c0.36,0.804,0.68,1.672,0.958,2.605
		s0.524,1.909,0.737,2.926c0.066,0.36,0.124,0.712,0.172,1.057c0.065,0.36,0.124,0.721,0.172,1.081s0.098,0.721,0.147,1.082
		c0.033,0.36,0.066,0.729,0.099,1.106c0.033,0.359,0.065,0.729,0.098,1.104c0.016,0.36,0.025,0.73,0.025,1.106
		c0.032,0.377,0.049,0.746,0.049,1.106s0,0.729,0,1.105c0,0.033,0,0.065,0,0.099c0,0.345-0.017,0.672-0.049,0.983
		c0,0.36-0.009,0.721-0.025,1.082c-0.033,0.343-0.065,0.695-0.098,1.056c-0.033,0.345-0.065,0.681-0.099,1.008
		c-0.032,0.345-0.073,0.681-0.123,1.008c-0.049,0.312-0.106,0.631-0.171,0.959c-0.049,0.312-0.107,0.614-0.172,0.91
		c-0.213,0.916-0.451,1.744-0.713,2.482c-0.295,0.753-0.614,1.393-0.958,1.916c-0.361,0.558-0.754,0.983-1.18,1.278
		c-0.361-0.18-0.696-0.442-1.008-0.786c-0.327-0.328-0.639-0.722-0.934-1.181c-0.131-0.229-0.263-0.475-0.394-0.737
		c-0.131-0.245-0.262-0.516-0.394-0.811c-0.131-0.278-0.253-0.574-0.369-0.885c-0.115-0.312-0.229-0.631-0.344-0.958
		c-0.114-0.312-0.212-0.64-0.294-0.983c-0.115-0.36-0.213-0.721-0.295-1.082c-0.082-0.36-0.164-0.729-0.246-1.106
		c-0.066-0.262-0.123-0.516-0.172-0.762c-0.016-0.13-0.041-0.262-0.073-0.393c-0.066-0.394-0.123-0.787-0.172-1.18
		c-0.065-0.41-0.123-0.812-0.172-1.205c-0.049-0.426-0.099-0.835-0.147-1.229c-0.033-0.426-0.058-0.845-0.074-1.254
		c-0.049-0.409-0.074-0.827-0.074-1.253c-0.016-0.426-0.024-0.836-0.024-1.229c-0.017-0.409-0.017-0.827,0-1.253
		c0-0.426,0.008-0.836,0.024-1.229c0.033-0.409,0.058-0.811,0.074-1.204c0.049-0.394,0.099-0.778,0.147-1.155
		c0.033-0.393,0.074-0.778,0.123-1.154c0.066-0.378,0.131-0.746,0.197-1.106c0.049-0.263,0.106-0.516,0.172-0.763
		c0.017-0.098,0.042-0.196,0.074-0.295c0.065-0.327,0.155-0.655,0.27-0.982c0.098-0.328,0.197-0.64,0.294-0.935
		c0.115-0.295,0.238-0.581,0.369-0.86c0.246-0.557,0.525-1.048,0.836-1.475c0.312-0.459,0.647-0.844,1.008-1.155H58.862z
		 M42.198,182.614c0.312,0.164,0.623,0.354,0.934,0.566c0.295,0.196,0.598,0.401,0.91,0.614c0.311,0.229,0.622,0.467,0.934,0.713
		c0.294,0.229,0.597,0.475,0.909,0.737c0.295,0.246,0.598,0.508,0.909,0.786c0.312,0.263,0.614,0.533,0.91,0.812
		c0.294,0.277,0.59,0.573,0.885,0.885c0.295,0.278,0.59,0.573,0.885,0.885c0.278,0.312,0.557,0.623,0.835,0.935
		c0.278,0.294,0.558,0.598,0.836,0.909c0.262,0.327,0.524,0.646,0.786,0.958c0.246,0.328,0.492,0.655,0.738,0.982
		c0.246,0.312,0.483,0.632,0.712,0.959c0.229,0.312,0.451,0.632,0.664,0.959s0.418,0.647,0.615,0.959
		c0.196,0.327,0.385,0.647,0.565,0.959c0.18,0.311,0.353,0.622,0.516,0.934c0.082,0.164,0.164,0.327,0.246,0.491
		c0.065,0.131,0.123,0.262,0.172,0.394c0.147,0.294,0.279,0.59,0.393,0.885c0.049,0.114,0.099,0.229,0.147,0.344
		c0.049,0.164,0.106,0.328,0.172,0.491c0.082,0.295,0.156,0.574,0.221,0.836c0.131,0.524,0.205,1.017,0.222,1.476
		c0,0.031,0,0.064,0,0.098c0,0.427-0.049,0.811-0.148,1.155c-0.114,0.033-0.229,0.049-0.344,0.049c-0.049,0-0.09,0.009-0.123,0.024
		c-0.098,0-0.189,0-0.271,0c-0.131,0-0.278-0.009-0.442-0.024h-0.024c-0.18-0.016-0.361-0.04-0.541-0.074
		c-0.64-0.13-1.319-0.352-2.041-0.663c-0.295-0.131-0.598-0.287-0.909-0.467c-0.442-0.229-0.893-0.483-1.352-0.762
		c-0.787-0.476-1.581-1.032-2.384-1.672c-0.819-0.622-1.63-1.303-2.434-2.04c-0.803-0.721-1.589-1.491-2.359-2.31
		c-0.77-0.804-1.507-1.631-2.212-2.482c-0.688-0.869-1.335-1.729-1.941-2.581c-0.589-0.885-1.123-1.745-1.598-2.581
		c-0.475-0.869-0.86-1.712-1.155-2.531c-0.312-0.804-0.532-1.573-0.664-2.311c-0.098-0.754-0.098-1.442,0-2.065l0.541-0.049
		c0.147,0,0.303,0.009,0.467,0.025c0.18,0.017,0.353,0.04,0.516,0.073c0.541,0.082,1.098,0.229,1.672,0.442
		c0.278,0.099,0.564,0.213,0.86,0.344c0.278,0.132,0.573,0.278,0.884,0.443C41.608,182.271,41.903,182.436,42.198,182.614z
		 M49.277,208.423c-0.181-0.509-0.295-1.009-0.345-1.499c0.607-0.229,1.286-0.345,2.04-0.345l0.246-0.024
		c0.672,0,1.394,0.082,2.163,0.246c0.82,0.147,1.688,0.368,2.605,0.663c0.017,0,0.042,0.009,0.074,0.024
		c0.196,0.066,0.409,0.147,0.639,0.246c0.705,0.246,1.434,0.532,2.188,0.86c0.311,0.147,0.631,0.303,0.959,0.467
		c0.311,0.163,0.639,0.328,0.983,0.491c0.311,0.165,0.623,0.336,0.934,0.517c0.229,0.131,0.459,0.262,0.688,0.394
		c0.099,0.049,0.196,0.098,0.295,0.147c0.311,0.196,0.63,0.394,0.958,0.59c0.295,0.196,0.598,0.401,0.909,0.614
		c0.312,0.196,0.623,0.394,0.935,0.59c0.294,0.23,0.59,0.45,0.884,0.664c0.295,0.213,0.59,0.426,0.885,0.639
		c0.049,0.049,0.098,0.09,0.148,0.123c0.508,0.393,0.991,0.786,1.45,1.18c0.279,0.246,0.549,0.491,0.812,0.737
		c0.753,0.672,1.442,1.352,2.064,2.04c0.508,0.557,0.958,1.105,1.352,1.647c0.082,0.13,0.164,0.262,0.246,0.393
		c0.459,0.655,0.803,1.277,1.032,1.868c0.098,0.262,0.18,0.508,0.246,0.737c0.082,0.345,0.115,0.672,0.099,0.983
		c-0.033,0.016-0.066,0.032-0.099,0.049c-0.344,0.147-0.721,0.246-1.13,0.295c-0.147,0.032-0.303,0.057-0.467,0.074
		c-0.164,0-0.319,0-0.467,0h-0.565c-0.262-0.018-0.542-0.05-0.836-0.099c-0.279-0.033-0.574-0.082-0.885-0.147
		c-0.312-0.065-0.623-0.14-0.934-0.222c-0.147-0.032-0.303-0.073-0.467-0.123c-0.164-0.049-0.327-0.099-0.492-0.147
		c-0.311-0.099-0.631-0.204-0.958-0.318c-0.017,0-0.033-0.009-0.05-0.025c-0.344-0.114-0.688-0.238-1.032-0.369
		c-0.361-0.147-0.713-0.295-1.057-0.441c-0.36-0.164-0.721-0.328-1.082-0.492s-0.721-0.336-1.081-0.516
		c-0.229-0.132-0.467-0.255-0.713-0.369c-0.115-0.082-0.229-0.147-0.344-0.196c-0.36-0.196-0.721-0.401-1.082-0.615
		c-0.18-0.098-0.353-0.204-0.516-0.318c-0.18-0.099-0.36-0.206-0.541-0.32c-0.36-0.229-0.721-0.458-1.082-0.688
		c-0.344-0.229-0.68-0.459-1.008-0.688c-0.344-0.246-0.68-0.483-1.008-0.713c-0.065-0.049-0.123-0.099-0.172-0.147
		c-0.246-0.181-0.483-0.36-0.713-0.541c-0.033-0.032-0.065-0.058-0.098-0.074c-0.311-0.262-0.623-0.516-0.934-0.762
		c-0.312-0.245-0.606-0.499-0.884-0.762c-0.312-0.262-0.598-0.524-0.86-0.787c-0.263-0.278-0.525-0.549-0.787-0.811
		c-0.229-0.263-0.467-0.524-0.713-0.787c-0.229-0.277-0.442-0.549-0.639-0.811c-0.409-0.524-0.762-1.049-1.057-1.573
		C49.703,209.446,49.457,208.931,49.277,208.423z M72.184,195.273c0.196,0.262,0.393,0.532,0.59,0.811
		c0.196,0.312,0.393,0.623,0.59,0.935c0.164,0.278,0.328,0.564,0.492,0.86c0.032,0.016,0.057,0.049,0.073,0.098
		c0,0.017,0.008,0.032,0.025,0.049c0.164,0.312,0.336,0.623,0.516,0.935c0.065,0.131,0.131,0.262,0.196,0.394
		c0.099,0.229,0.205,0.459,0.32,0.688c0.18,0.36,0.344,0.722,0.492,1.082c0.18,0.377,0.336,0.762,0.467,1.155
		c0.164,0.376,0.319,0.762,0.467,1.154c0.131,0.377,0.263,0.771,0.394,1.18c0.131,0.378,0.262,0.771,0.394,1.18
		c0.098,0.395,0.213,0.796,0.344,1.205c0.098,0.393,0.196,0.795,0.295,1.204c0.098,0.394,0.188,0.786,0.271,1.181
		c0.082,0.393,0.164,0.786,0.246,1.179c0.065,0.378,0.131,0.763,0.197,1.155c0.049,0.377,0.098,0.754,0.147,1.132
		c0.032,0.376,0.074,0.745,0.123,1.104c0.016,0.345,0.032,0.697,0.049,1.058c0,0.345,0,0.68,0,1.008c0,0.312,0,0.623,0,0.935
		c-0.033,0.312-0.065,0.613-0.098,0.909c-0.033,0.278-0.082,0.557-0.148,0.835c-0.098,0.525-0.237,1.008-0.417,1.45
		c-0.18,0.409-0.401,0.771-0.664,1.081c-0.508-0.131-1.024-0.393-1.549-0.786c-0.442-0.328-0.884-0.721-1.327-1.18
		c-0.082-0.099-0.172-0.197-0.27-0.295c-0.147-0.164-0.295-0.344-0.442-0.541c-0.377-0.459-0.738-0.967-1.082-1.523
		c-0.508-0.771-0.991-1.606-1.45-2.507c-0.147-0.312-0.303-0.623-0.467-0.935c-0.147-0.311-0.295-0.631-0.443-0.958
		c-0.147-0.328-0.295-0.656-0.442-0.983c-0.131-0.344-0.262-0.68-0.393-1.008c-0.147-0.344-0.279-0.696-0.394-1.057
		c-0.131-0.345-0.254-0.688-0.369-1.032c0-0.017,0-0.033,0-0.05c-0.115-0.327-0.221-0.655-0.319-0.983
		c-0.115-0.36-0.221-0.721-0.32-1.081c-0.098-0.359-0.196-0.713-0.294-1.057c-0.082-0.36-0.172-0.721-0.27-1.082
		c-0.066-0.344-0.131-0.696-0.197-1.057c-0.016-0.065-0.033-0.131-0.049-0.196c-0.05-0.279-0.099-0.565-0.148-0.86
		c-0.18-1.032-0.294-2.04-0.344-3.023c-0.082-0.966-0.082-1.885,0-2.753c0.049-0.868,0.188-1.663,0.418-2.384
		c0.196-0.721,0.483-1.344,0.86-1.867c0.229,0.081,0.451,0.171,0.663,0.27c0.229,0.131,0.459,0.271,0.688,0.418
		c0.442,0.312,0.885,0.68,1.327,1.105C71.34,194.249,71.758,194.732,72.184,195.273z M82.138,209.209
		c0.639,0.049,1.311,0.222,2.015,0.517c0.672,0.295,1.369,0.688,2.089,1.18c0.721,0.491,1.442,1.073,2.163,1.745
		c0.705,0.654,1.409,1.385,2.114,2.187c0.705,0.787,1.384,1.622,2.04,2.508c0.213,0.295,0.426,0.598,0.639,0.909
		c0.213,0.295,0.426,0.598,0.639,0.909c0.197,0.312,0.401,0.623,0.615,0.935c0.18,0.312,0.369,0.623,0.565,0.935
		c0.196,0.311,0.385,0.63,0.565,0.958c0.18,0.311,0.352,0.63,0.517,0.958c0.049,0.099,0.098,0.196,0.147,0.295
		c0.114,0.213,0.229,0.435,0.344,0.663c0.164,0.312,0.319,0.623,0.467,0.935c0.05,0.131,0.106,0.246,0.172,0.345
		c0.082,0.213,0.172,0.409,0.27,0.59c0.41,0.934,0.754,1.844,1.032,2.729c0.279,0.885,0.492,1.721,0.64,2.507
		c0.131,0.786,0.18,1.499,0.147,2.138c-0.033,0.656-0.165,1.229-0.393,1.721h-0.123c-0.36,0-0.737-0.065-1.131-0.197
		c-0.458-0.13-0.926-0.318-1.401-0.564c-0.016,0-0.024-0.009-0.024-0.024c-0.229-0.114-0.467-0.246-0.713-0.394
		c-0.229-0.147-0.476-0.312-0.738-0.492c-0.246-0.18-0.5-0.376-0.762-0.589s-0.516-0.426-0.762-0.64
		c-0.263-0.229-0.525-0.467-0.787-0.713c-0.262-0.263-0.516-0.532-0.762-0.812c-0.278-0.262-0.548-0.531-0.811-0.811
		c-0.262-0.294-0.516-0.59-0.762-0.885c-0.246-0.295-0.5-0.598-0.762-0.909c-0.262-0.328-0.516-0.655-0.762-0.982
		c-0.246-0.328-0.483-0.656-0.713-0.984c-0.164-0.229-0.319-0.459-0.467-0.688c-0.099-0.115-0.188-0.23-0.271-0.345
		c-0.229-0.343-0.459-0.688-0.688-1.032c-0.212-0.36-0.426-0.721-0.639-1.081c-0.229-0.345-0.434-0.696-0.614-1.057
		c-0.213-0.361-0.417-0.722-0.615-1.082c-0.18-0.36-0.352-0.721-0.516-1.081c-0.18-0.36-0.344-0.721-0.492-1.082
		c-0.164-0.345-0.32-0.696-0.467-1.057c-0.131-0.361-0.254-0.704-0.369-1.032c-0.115-0.344-0.221-0.688-0.319-1.032
		c-0.114-0.328-0.205-0.655-0.271-0.983c-0.082-0.327-0.156-0.655-0.221-0.983c-0.05-0.312-0.09-0.613-0.123-0.909
		c-0.066-0.606-0.074-1.172-0.025-1.696c0.049-0.557,0.156-1.057,0.32-1.499V209.209z M168.434,232.043
		c0.328-0.131,0.664-0.246,1.008-0.345c0.344-0.114,0.68-0.229,1.008-0.344c1.016-0.328,1.999-0.581,2.95-0.763
		c0.966-0.213,1.875-0.344,2.728-0.393l0.885-0.024c0.262,0,0.523,0.008,0.786,0.024s0.508,0.041,0.738,0.074
		c0.753,0.114,1.425,0.311,2.015,0.59v0.024c-0.146,0.639-0.409,1.277-0.786,1.917c-0.377,0.655-0.86,1.294-1.45,1.917
		c-0.59,0.656-1.254,1.295-1.991,1.917c-0.754,0.623-1.573,1.229-2.458,1.819s-1.802,1.155-2.752,1.695
		c-0.328,0.164-0.655,0.336-0.983,0.517c-0.328,0.163-0.664,0.327-1.008,0.491c-0.312,0.164-0.64,0.319-0.983,0.468
		c-0.344,0.163-0.688,0.319-1.032,0.466c-0.263,0.132-0.532,0.246-0.811,0.345c-0.066,0.032-0.131,0.058-0.197,0.074
		c-0.327,0.146-0.663,0.277-1.008,0.393c-0.344,0.132-0.68,0.255-1.008,0.369c-0.344,0.13-0.68,0.245-1.008,0.344
		c-0.327,0.098-0.655,0.196-0.982,0.295c-0.328,0.099-0.647,0.188-0.959,0.271c-0.328,0.081-0.646,0.155-0.959,0.221
		c-0.312,0.066-0.622,0.123-0.934,0.172c-0.901,0.182-1.754,0.287-2.556,0.32h-0.467c-0.312,0-0.606-0.009-0.886-0.024
		c-0.278-0.033-0.541-0.074-0.786-0.123c-0.64-0.115-1.18-0.312-1.622-0.59c0.049-0.541,0.229-1.098,0.54-1.671l0.025-0.05
		c0.295-0.558,0.696-1.122,1.204-1.696c0.524-0.606,1.139-1.212,1.844-1.818c0.688-0.605,1.449-1.204,2.285-1.795
		c0.278-0.196,0.565-0.393,0.86-0.59c0.278-0.196,0.574-0.385,0.885-0.564c0.296-0.197,0.606-0.394,0.935-0.59
		c0.294-0.165,0.605-0.336,0.934-0.517c0.312-0.181,0.631-0.36,0.958-0.54c0.328-0.165,0.656-0.328,0.983-0.492
		c0.345-0.164,0.681-0.328,1.008-0.491c0.328-0.148,0.664-0.296,1.008-0.443c0.344-0.164,0.688-0.311,1.032-0.441
		C167.754,232.329,168.09,232.189,168.434,232.043z M141.791,237.573c0.295,0.229,0.582,0.45,0.86,0.663
		c0.295,0.229,0.574,0.459,0.836,0.688c0.246,0.229,0.491,0.459,0.737,0.688c0.246,0.213,0.476,0.434,0.688,0.663
		c0.41,0.458,0.778,0.901,1.106,1.327c0.196,0.278,0.368,0.558,0.516,0.836c0.082,0.164,0.155,0.319,0.222,0.467
		c0.18,0.426,0.295,0.844,0.344,1.254c-0.459,0.278-1.008,0.475-1.646,0.59c-0.246,0.049-0.509,0.09-0.787,0.123
		c-0.278,0.016-0.565,0.024-0.86,0.024h-0.492c-0.803-0.033-1.655-0.139-2.556-0.32c-0.295-0.049-0.598-0.105-0.91-0.172
		c-0.328-0.065-0.647-0.14-0.958-0.221c-0.328-0.082-0.656-0.172-0.983-0.271c-0.312-0.099-0.639-0.197-0.983-0.295
		c-0.328-0.099-0.656-0.214-0.983-0.344c-0.345-0.114-0.688-0.237-1.033-0.369c-0.327-0.115-0.663-0.246-1.008-0.393
		c-0.049-0.017-0.106-0.042-0.172-0.074c-0.294-0.099-0.573-0.213-0.835-0.345c-0.344-0.146-0.68-0.303-1.007-0.466
		c-0.345-0.148-0.681-0.304-1.008-0.468c-0.344-0.164-0.68-0.328-1.008-0.491c-0.312-0.181-0.631-0.353-0.958-0.517
		c-0.967-0.54-1.893-1.105-2.777-1.695c-0.885-0.59-1.696-1.196-2.434-1.819c-0.754-0.622-1.425-1.261-2.015-1.917
		c-0.589-0.623-1.064-1.262-1.425-1.917c-0.394-0.655-0.656-1.294-0.786-1.917v-0.024c0.426-0.213,0.909-0.377,1.45-0.492
		c0.524-0.115,1.089-0.18,1.696-0.196h0.369c0.246,0,0.5,0,0.763,0c0.245,0.017,0.507,0.041,0.786,0.073
		c0.328,0.05,0.664,0.091,1.007,0.123c0.344,0.066,0.696,0.14,1.057,0.221c0.361,0.066,0.721,0.148,1.082,0.247
		c0.376,0.098,0.754,0.196,1.13,0.295c0.361,0.114,0.738,0.229,1.13,0.344c0.376,0.114,0.754,0.246,1.131,0.394
		c0.376,0.13,0.762,0.278,1.155,0.441c0.377,0.148,0.754,0.304,1.13,0.468c0.394,0.164,0.771,0.336,1.131,0.516
		c0.393,0.164,0.769,0.345,1.13,0.541c0.377,0.181,0.753,0.369,1.131,0.565c0.361,0.196,0.721,0.393,1.081,0.59
		c0.344,0.213,0.697,0.418,1.058,0.614c0.327,0.213,0.663,0.435,1.007,0.663c0.328,0.197,0.655,0.41,0.983,0.641
		C141.192,237.123,141.495,237.344,141.791,237.573z M154.276,246.962c0.393-0.213,0.86-0.394,1.401-0.541
		c0.262-0.065,0.532-0.123,0.811-0.172c0.279-0.065,0.573-0.106,0.885-0.123c0.296-0.049,0.614-0.081,0.959-0.099
		c0.327-0.032,0.663-0.049,1.008-0.049h0.541c0.278-0.017,0.549-0.017,0.811,0c0.263,0.017,0.533,0.032,0.812,0.049
		c0.36,0.018,0.737,0.042,1.13,0.074c0.394,0.032,0.786,0.073,1.181,0.122c0.394,0.05,0.786,0.107,1.18,0.173
		c0.393,0.049,0.794,0.107,1.204,0.172c0.409,0.082,0.819,0.164,1.229,0.247c0.394,0.098,0.804,0.188,1.229,0.269
		c0.394,0.099,0.794,0.206,1.204,0.32c0.394,0.099,0.786,0.213,1.18,0.344c0.41,0.099,0.812,0.213,1.204,0.345
		c0.377,0.132,0.762,0.262,1.156,0.393c0.376,0.147,0.753,0.295,1.13,0.442c0.361,0.148,0.713,0.296,1.057,0.442
		c0.36,0.165,0.721,0.328,1.081,0.492c0.328,0.164,0.656,0.336,0.983,0.516c0.328,0.164,0.639,0.336,0.935,0.517
		c0.295,0.18,0.59,0.36,0.885,0.541c0.54,0.376,1.04,0.771,1.499,1.18s0.853,0.819,1.18,1.229c0.327,0.426,0.59,0.869,0.786,1.327
		c-0.507,0.409-1.113,0.738-1.818,0.983c-0.704,0.246-1.491,0.434-2.359,0.565c-0.836,0.115-1.737,0.172-2.704,0.172h-0.049
		c-0.982-0.017-1.999-0.073-3.048-0.172c-0.344-0.049-0.688-0.09-1.032-0.123c-0.36-0.049-0.721-0.106-1.081-0.172
		s-0.722-0.131-1.082-0.197c-0.36-0.065-0.721-0.13-1.081-0.196c-0.36-0.082-0.722-0.164-1.082-0.245
		c-0.376-0.099-0.737-0.197-1.081-0.296c-0.36-0.099-0.722-0.196-1.081-0.295c-0.345-0.098-0.688-0.204-1.033-0.319
		c-0.36-0.114-0.704-0.229-1.031-0.345c-0.361-0.114-0.697-0.229-1.008-0.343c-0.345-0.147-0.681-0.287-1.008-0.419
		c-0.313-0.13-0.623-0.262-0.935-0.393c-0.934-0.409-1.803-0.844-2.605-1.303s-1.524-0.926-2.163-1.401
		c-0.639-0.475-1.163-0.966-1.572-1.474c-0.41-0.509-0.697-1.009-0.86-1.5C153.498,247.404,153.851,247.158,154.276,246.962z
		 M140.66,245.979c0.918,0.017,1.778,0.091,2.581,0.222c0.77,0.131,1.466,0.319,2.089,0.565c0.59,0.229,1.073,0.532,1.45,0.909
		c-0.147,0.508-0.435,1.016-0.86,1.524c-0.41,0.508-0.935,0.999-1.573,1.474c-0.623,0.476-1.336,0.942-2.138,1.401
		c-0.82,0.459-1.688,0.894-2.605,1.303c-0.328,0.131-0.647,0.263-0.958,0.393c-0.312,0.132-0.64,0.271-0.983,0.419
		c-0.328,0.114-0.664,0.229-1.008,0.343c-0.344,0.115-0.688,0.23-1.032,0.345c-0.361,0.115-0.713,0.222-1.056,0.319
		c-0.36,0.099-0.721,0.196-1.082,0.295c-0.36,0.099-0.712,0.197-1.057,0.296c-0.36,0.081-0.721,0.163-1.082,0.245
		c-0.376,0.066-0.745,0.131-1.105,0.196c-0.345,0.066-0.697,0.132-1.057,0.197c-0.376,0.065-0.737,0.123-1.081,0.172
		c-0.361,0.033-0.713,0.074-1.058,0.123c-1.048,0.099-2.064,0.155-3.047,0.172h-0.05c-0.95,0-1.843-0.057-2.679-0.172
		c-0.885-0.132-1.67-0.319-2.359-0.565c-0.705-0.245-1.311-0.574-1.819-0.983h-0.025c0.262-0.605,0.64-1.188,1.13-1.745
		c0.508-0.557,1.115-1.09,1.819-1.598c0.688-0.508,1.474-0.991,2.359-1.45c0.852-0.476,1.77-0.909,2.753-1.302
		c0.311-0.132,0.647-0.255,1.008-0.369c0.312-0.147,0.646-0.278,1.007-0.393c0.344-0.115,0.688-0.23,1.033-0.345
		c0.344-0.099,0.696-0.205,1.057-0.319c0.344-0.099,0.696-0.196,1.057-0.295c0.361-0.083,0.721-0.173,1.081-0.271
		c0.361-0.081,0.721-0.163,1.081-0.245c0.361-0.065,0.729-0.139,1.107-0.221c0.343-0.05,0.696-0.107,1.056-0.173
		c0.361-0.064,0.721-0.114,1.082-0.147c0.345-0.049,0.688-0.098,1.033-0.146c0.344-0.033,0.688-0.058,1.033-0.074
		c0.409-0.032,0.811-0.058,1.203-0.073c0.394-0.018,0.779-0.025,1.156-0.025H140.66z M147.96,252.641
		c0.065,0.048,0.114,0.098,0.147,0.146c0.065,0.114,0.114,0.221,0.147,0.319c0.017,0.065,0.032,0.123,0.049,0.173
		c0,0.064-0.009,0.123-0.024,0.172c-0.017,0.114-0.049,0.22-0.099,0.318c-0.032,0.05-0.065,0.099-0.098,0.148
		c-0.05,0.064-0.091,0.114-0.123,0.147c-0.197,0.213-0.41,0.45-0.64,0.713c-0.213,0.229-0.441,0.475-0.688,0.736l-9.61,9.758
		c-0.214,0.23-0.41,0.443-0.59,0.64s-0.344,0.377-0.492,0.541c-0.148,0.147-0.287,0.286-0.418,0.418
		c-0.13,0.131-0.253,0.261-0.368,0.393c-0.132,0.099-0.262,0.204-0.394,0.319c-0.13,0.082-0.262,0.164-0.393,0.246
		c-0.132,0.082-0.262,0.156-0.394,0.222c-0.13,0.064-0.261,0.114-0.393,0.147c-0.114,0.032-0.237,0.057-0.369,0.074
		c-0.13,0.016-0.253,0.023-0.368,0.023h-0.074c-0.099-0.017-0.197-0.023-0.295-0.023c-0.114-0.018-0.213-0.034-0.295-0.05
		c-0.115-0.033-0.213-0.058-0.294-0.074c-0.115-0.049-0.222-0.089-0.32-0.123c-0.099-0.033-0.196-0.073-0.294-0.123
		c-0.082-0.049-0.172-0.098-0.271-0.146c-0.083-0.05-0.164-0.115-0.246-0.197c-0.099-0.049-0.18-0.114-0.246-0.196
		c-0.082-0.065-0.156-0.139-0.221-0.222c-0.066-0.082-0.132-0.163-0.197-0.245c-0.049-0.082-0.099-0.173-0.148-0.271
		c-0.049-0.099-0.09-0.188-0.123-0.271c-0.016-0.082-0.041-0.155-0.074-0.222c0-0.081-0.008-0.147-0.025-0.196
		c0-0.082-0.007-0.164-0.024-0.245c0-0.066,0-0.132,0-0.197c0-0.082,0.008-0.155,0.024-0.222c0.017-0.081,0.033-0.155,0.05-0.22
		c0.017-0.083,0.032-0.157,0.048-0.222c0.033-0.066,0.066-0.132,0.099-0.197c0.033-0.065,0.074-0.139,0.123-0.222
		c0.049-0.049,0.098-0.114,0.147-0.196c0.049-0.065,0.099-0.131,0.147-0.196c0.066-0.049,0.14-0.107,0.222-0.172l6.169-5.039
		c0.344-0.278,0.696-0.549,1.057-0.812c0.344-0.277,0.695-0.54,1.056-0.786c0.345-0.262,0.689-0.516,1.033-0.762
		c0.345-0.262,0.688-0.508,1.033-0.737c0.327-0.229,0.664-0.45,1.007-0.663c0.312-0.23,0.631-0.451,0.959-0.664
		c0.311-0.181,0.615-0.369,0.909-0.565c0.312-0.18,0.615-0.353,0.91-0.516c0.277-0.164,0.557-0.312,0.835-0.443
		c0.278-0.131,0.549-0.245,0.811-0.344c0.083-0.049,0.156-0.09,0.222-0.123c0.066-0.017,0.139-0.033,0.222-0.049
		c0.049-0.033,0.106-0.049,0.172-0.049c0.065-0.017,0.123-0.025,0.172-0.025h0.049c0.099,0,0.197,0.009,0.295,0.025
		c0.099,0.049,0.205,0.114,0.319,0.196C147.837,252.542,147.894,252.591,147.96,252.641z M157.151,254.385
		c0.312,0.213,0.632,0.434,0.959,0.664c0.328,0.213,0.656,0.434,0.983,0.663c0.344,0.229,0.688,0.476,1.033,0.737
		c0.343,0.246,0.688,0.5,1.031,0.762c0.361,0.246,0.722,0.509,1.082,0.786c0.344,0.263,0.696,0.533,1.056,0.812l6.17,5.039
		c0.082,0.064,0.148,0.123,0.196,0.172c0.05,0.065,0.106,0.131,0.173,0.196c0.049,0.082,0.098,0.147,0.147,0.196
		c0.032,0.083,0.065,0.156,0.099,0.222c0.032,0.065,0.065,0.131,0.098,0.197c0.017,0.064,0.041,0.139,0.074,0.222
		c0,0.064,0.016,0.139,0.048,0.22c0,0.066,0.009,0.14,0.025,0.222c0,0.065,0,0.131,0,0.197c-0.017,0.081-0.025,0.163-0.025,0.245
		c-0.032,0.049-0.048,0.115-0.048,0.196c-0.017,0.066-0.041,0.14-0.074,0.222c-0.032,0.082-0.074,0.172-0.123,0.271
		c-0.049,0.098-0.098,0.188-0.147,0.271c-0.049,0.082-0.106,0.163-0.172,0.245c-0.082,0.083-0.155,0.156-0.221,0.222
		c-0.083,0.082-0.164,0.147-0.246,0.196c-0.082,0.082-0.164,0.147-0.246,0.197c-0.099,0.049-0.196,0.098-0.295,0.146
		c-0.098,0.05-0.196,0.09-0.295,0.123c-0.082,0.034-0.18,0.074-0.295,0.123c-0.099,0.017-0.197,0.041-0.295,0.074
		c-0.099,0.016-0.196,0.032-0.295,0.05c-0.114,0-0.221,0.007-0.319,0.023h-0.074c-0.114,0-0.237-0.008-0.368-0.023
		c-0.132-0.018-0.246-0.042-0.345-0.074c-0.131-0.033-0.262-0.083-0.393-0.147c-0.147-0.065-0.287-0.14-0.418-0.222
		s-0.254-0.164-0.369-0.246c-0.131-0.115-0.262-0.221-0.393-0.319c-0.131-0.132-0.254-0.262-0.369-0.393
		c-0.147-0.132-0.286-0.271-0.418-0.418c-0.164-0.164-0.327-0.345-0.491-0.541c-0.197-0.196-0.394-0.409-0.59-0.64l-10.323-10.494
		c-0.229-0.263-0.435-0.5-0.614-0.713c-0.065-0.065-0.123-0.123-0.172-0.173c-0.05-0.081-0.082-0.147-0.099-0.196
		c-0.032-0.081-0.05-0.147-0.05-0.196c-0.016-0.082-0.023-0.156-0.023-0.221c0.016-0.066,0.023-0.132,0.023-0.197
		c0.033-0.065,0.074-0.131,0.123-0.197c0.033-0.081,0.074-0.146,0.123-0.196c0.082-0.082,0.165-0.146,0.246-0.196
		c0.099-0.082,0.196-0.147,0.295-0.196c0.099-0.017,0.204-0.025,0.319-0.025h0.025c0.049,0,0.114,0.009,0.196,0.025
		c0.05,0,0.106,0.016,0.172,0.049c0.065,0.016,0.131,0.032,0.196,0.049c0.083,0.033,0.155,0.074,0.222,0.123
		c0.262,0.099,0.532,0.213,0.811,0.344c0.263,0.132,0.541,0.279,0.836,0.443c0.295,0.163,0.599,0.336,0.91,0.516
		C156.529,254.016,156.841,254.204,157.151,254.385z M178.684,242.71c0.016-0.082,0.032-0.172,0.048-0.271
		c0.099-0.573,0.263-1.181,0.492-1.819c0.262-0.737,0.615-1.523,1.058-2.359c0.442-0.802,0.941-1.631,1.499-2.482
		c0.573-0.852,1.196-1.704,1.868-2.556c0.671-0.852,1.384-1.688,2.138-2.508c0.755-0.819,1.532-1.605,2.335-2.358
		c0.803-0.771,1.622-1.475,2.458-2.114c0.459-0.377,0.918-0.729,1.377-1.057c0.36-0.262,0.721-0.509,1.081-0.737
		c0.819-0.524,1.622-0.976,2.408-1.353c0.804-0.36,1.565-0.622,2.286-0.786c0.524-0.115,1.032-0.172,1.524-0.172l0.54,0.024
		c0.115,0.639,0.115,1.327,0,2.064c-0.065,0.312-0.14,0.631-0.221,0.959c-0.115,0.441-0.263,0.9-0.442,1.376
		c-0.328,0.803-0.729,1.631-1.205,2.482c-0.491,0.852-1.031,1.712-1.622,2.581c-0.622,0.869-1.286,1.729-1.99,2.581
		c-0.705,0.835-1.442,1.654-2.213,2.458c-0.786,0.802-1.589,1.563-2.408,2.285c-0.803,0.721-1.606,1.385-2.408,1.991
		c-0.754,0.54-1.475,1.04-2.163,1.499c-0.099,0.065-0.189,0.123-0.271,0.173c-0.787,0.475-1.541,0.868-2.262,1.179
		c-0.737,0.312-1.425,0.533-2.064,0.664c-0.164,0.017-0.327,0.032-0.491,0.049c-0.164,0.033-0.328,0.049-0.491,0.049
		c-0.131,0-0.263-0.016-0.395-0.049c-0.114-0.017-0.237-0.024-0.368-0.024C178.65,243.955,178.617,243.365,178.684,242.71z
		 M100.228,224.227c-0.115-0.737-0.123-1.426-0.025-2.064l0.566-0.024c0.164,0,0.319,0.008,0.467,0.024
		c0.164,0,0.328,0.024,0.491,0.073c0.541,0.065,1.098,0.197,1.672,0.394c0.278,0.099,0.565,0.213,0.86,0.345
		c0.279,0.131,0.574,0.27,0.885,0.417c0.295,0.164,0.598,0.337,0.91,0.516c0.294,0.165,0.598,0.345,0.91,0.542
		c0.311,0.196,0.622,0.401,0.934,0.614c0.049,0.032,0.106,0.074,0.171,0.123c0.246,0.18,0.5,0.368,0.762,0.564
		c0.312,0.23,0.623,0.468,0.935,0.713c0.311,0.246,0.614,0.509,0.909,0.786c0.312,0.263,0.614,0.533,0.91,0.812
		c0.295,0.278,0.598,0.565,0.909,0.86c0.278,0.278,0.574,0.573,0.885,0.885c0.278,0.296,0.565,0.599,0.86,0.909
		c0.262,0.312,0.533,0.623,0.812,0.935c0.262,0.312,0.524,0.623,0.786,0.935c0.278,0.312,0.542,0.63,0.788,0.958
		c0.229,0.328,0.466,0.647,0.711,0.959c0.23,0.327,0.459,0.646,0.689,0.958c0.213,0.311,0.418,0.631,0.615,0.958
		c0.197,0.312,0.385,0.623,0.565,0.935s0.352,0.614,0.516,0.909c0.181,0.312,0.336,0.623,0.467,0.935
		c0.131,0.295,0.262,0.59,0.393,0.885c0.099,0.263,0.196,0.532,0.295,0.812c0.099,0.277,0.181,0.549,0.246,0.811
		c0.065,0.246,0.114,0.491,0.147,0.737c0.033,0.263,0.066,0.516,0.099,0.762c0.017,0.459-0.025,0.876-0.123,1.254
		c-0.131,0.017-0.262,0.032-0.394,0.049c-0.131,0.033-0.262,0.049-0.392,0.049c-0.148,0-0.304-0.016-0.468-0.049
		c-0.164-0.017-0.336-0.032-0.515-0.049c-0.639-0.131-1.32-0.353-2.041-0.664c-0.737-0.311-1.499-0.704-2.285-1.179
		c-0.082-0.05-0.164-0.107-0.246-0.173c-0.705-0.459-1.426-0.959-2.163-1.499c-0.82-0.606-1.63-1.271-2.434-1.991
		c-0.803-0.722-1.598-1.483-2.384-2.285c-0.787-0.804-1.532-1.623-2.236-2.458c-0.705-0.853-1.36-1.712-1.966-2.581
		s-1.155-1.729-1.647-2.581c-0.476-0.852-0.876-1.68-1.205-2.482c-0.18-0.476-0.327-0.935-0.442-1.376
		C100.343,224.857,100.277,224.538,100.228,224.227z M116.352,244.676c0.279,0.147,0.541,0.304,0.787,0.468
		c0.246,0.147,0.483,0.303,0.712,0.467c0.426,0.311,0.794,0.639,1.106,0.983c0.311,0.327,0.549,0.679,0.712,1.057
		c-0.327,0.426-0.778,0.794-1.352,1.105c-0.573,0.312-1.237,0.582-1.991,0.812c-0.77,0.229-1.605,0.409-2.506,0.54
		c-0.295,0.033-0.598,0.074-0.91,0.123c-0.327,0.033-0.655,0.058-0.983,0.074c-0.327,0.049-0.664,0.073-1.008,0.073
		c-0.294,0.017-0.59,0.033-0.884,0.049c-0.312,0-0.623,0-0.935,0l-1.352-0.024c-0.36-0.016-0.721-0.024-1.081-0.024
		c-0.377-0.049-0.746-0.081-1.106-0.098c-0.361-0.033-0.729-0.074-1.106-0.123c-0.376-0.033-0.746-0.073-1.106-0.123
		c-0.36-0.049-0.721-0.098-1.082-0.147c-0.376-0.049-0.745-0.114-1.106-0.197c-0.361-0.064-0.721-0.131-1.082-0.196
		c-0.361-0.081-0.705-0.164-1.032-0.246c-0.36-0.081-0.712-0.163-1.057-0.245c-0.606-0.164-1.188-0.344-1.745-0.54
		c-0.394-0.132-0.77-0.263-1.131-0.395c-0.934-0.344-1.778-0.729-2.532-1.154c-0.753-0.409-1.417-0.86-1.991-1.353
		c-0.557-0.491-1.008-1.015-1.352-1.572v-0.025c0.36-0.344,0.762-0.655,1.204-0.934c0.377-0.213,0.778-0.409,1.204-0.59
		c0.115-0.049,0.229-0.099,0.344-0.147c0.295-0.099,0.59-0.188,0.885-0.271c0.312-0.099,0.631-0.188,0.958-0.27
		c0.328-0.083,0.664-0.148,1.008-0.197c0.344-0.065,0.705-0.114,1.082-0.147c0.098-0.017,0.205-0.033,0.32-0.05
		c0.262-0.032,0.524-0.057,0.786-0.073c0.377-0.049,0.754-0.073,1.131-0.073c0.262-0.017,0.524-0.025,0.787-0.025
		c0.262-0.017,0.532-0.024,0.811-0.024l0.787,0.024c0.409,0,0.819,0.009,1.229,0.025c0.41,0.032,0.819,0.065,1.229,0.098
		c0.426,0.017,0.844,0.049,1.253,0.099c0.41,0.049,0.82,0.106,1.229,0.172c0.426,0.05,0.844,0.106,1.253,0.173
		c0.41,0.064,0.812,0.13,1.205,0.196c0.41,0.081,0.812,0.171,1.204,0.27c0.311,0.066,0.639,0.14,0.983,0.222
		c0.065,0.016,0.131,0.032,0.196,0.05c0.377,0.098,0.746,0.204,1.106,0.319c0.376,0.098,0.745,0.204,1.105,0.319
		c0.361,0.098,0.705,0.221,1.033,0.369c0.344,0.114,0.68,0.237,1.008,0.367c0.312,0.132,0.614,0.263,0.909,0.395
		C115.786,244.405,116.073,244.546,116.352,244.676z M87.422,230.52c0.361,0.163,0.729,0.319,1.106,0.467
		c0.36,0.18,0.713,0.352,1.057,0.516c0.344,0.163,0.68,0.336,1.008,0.517c0.344,0.164,0.672,0.335,0.983,0.516
		c0.311,0.197,0.615,0.386,0.909,0.565c0.279,0.181,0.558,0.369,0.836,0.565c0.262,0.18,0.516,0.368,0.762,0.565
		c0.491,0.377,0.926,0.762,1.303,1.155c0.344,0.36,0.631,0.721,0.86,1.081c0.016,0.033,0.041,0.065,0.073,0.099
		c0.246,0.376,0.418,0.762,0.517,1.155c-0.181,0.147-0.377,0.286-0.59,0.417c-0.278,0.182-0.59,0.328-0.934,0.442
		c-0.623,0.196-1.328,0.345-2.114,0.442c-0.294,0.034-0.606,0.059-0.934,0.074c-0.327,0.016-0.663,0.024-1.007,0.024h-0.615
		c-0.311-0.017-0.623-0.033-0.934-0.049c-0.328-0.016-0.656-0.041-0.983-0.074c-0.328-0.032-0.664-0.073-1.008-0.123
		c-0.327-0.049-0.664-0.099-1.008-0.147c-0.344-0.049-0.696-0.105-1.057-0.172c-0.344-0.065-0.688-0.139-1.033-0.221
		c-0.36-0.065-0.713-0.139-1.056-0.222c-0.36-0.099-0.721-0.188-1.082-0.27c-0.213-0.066-0.418-0.123-0.615-0.172
		c-0.147-0.05-0.295-0.099-0.442-0.148c-0.361-0.098-0.721-0.204-1.082-0.319c-0.36-0.098-0.712-0.213-1.057-0.344
		c-0.344-0.115-0.688-0.238-1.033-0.369c-0.344-0.13-0.68-0.262-1.007-0.394c-0.345-0.131-0.68-0.27-1.008-0.417
		c-0.328-0.148-0.647-0.295-0.959-0.443c-0.213-0.098-0.417-0.196-0.614-0.294c-0.737-0.361-1.434-0.737-2.089-1.132
		c-0.835-0.507-1.589-1.023-2.261-1.548c-0.524-0.459-0.991-0.909-1.401-1.352c-0.115-0.115-0.221-0.237-0.319-0.369
		c-0.099-0.114-0.188-0.221-0.27-0.318c-0.344-0.477-0.614-0.959-0.812-1.451h0.025c0.393-0.294,0.844-0.541,1.352-0.737h0.024
		c0.491-0.18,1.024-0.327,1.598-0.442c0.312-0.049,0.631-0.09,0.958-0.123c0.312-0.049,0.631-0.081,0.958-0.098h0.959
		c0.18,0,0.361,0,0.541,0c0.213,0,0.418,0.008,0.615,0.024c0.032,0,0.074,0.009,0.123,0.024c0.312,0,0.639,0.016,0.983,0.049
		c0.376,0.033,0.762,0.074,1.155,0.123c0.377,0.05,0.762,0.106,1.155,0.173c0.393,0.065,0.786,0.139,1.18,0.22
		c0.18,0.033,0.369,0.074,0.565,0.123c0.213,0.05,0.426,0.099,0.639,0.148c0.41,0.081,0.811,0.18,1.204,0.295
		c0.115,0.017,0.222,0.049,0.32,0.098c0.295,0.066,0.59,0.14,0.885,0.221c0.41,0.115,0.812,0.238,1.205,0.37
		c0.393,0.131,0.778,0.27,1.155,0.418c0.393,0.131,0.787,0.27,1.18,0.417C86.668,230.225,87.045,230.371,87.422,230.52z
		 M226.07,227.373c0.181,0,0.369,0,0.565,0c0.263,0,0.533,0,0.811,0c0.132,0,0.255,0.008,0.369,0.024
		c0.148,0.017,0.287,0.033,0.418,0.049c0.868,0.065,1.655,0.205,2.359,0.418c0.722,0.213,1.353,0.517,1.893,0.909
		c-0.229,0.591-0.581,1.18-1.057,1.77c-0.458,0.573-1.032,1.147-1.721,1.721c-0.573,0.443-1.204,0.885-1.893,1.328
		c-0.131,0.065-0.262,0.139-0.393,0.22c-0.82,0.509-1.713,0.983-2.68,1.426c-0.327,0.148-0.647,0.295-0.958,0.443
		c-0.344,0.147-0.681,0.286-1.008,0.417c-0.344,0.132-0.688,0.264-1.033,0.394c-0.327,0.131-0.672,0.254-1.031,0.369
		c-0.345,0.131-0.697,0.246-1.057,0.344c-0.361,0.115-0.714,0.222-1.058,0.319c-0.359,0.115-0.722,0.222-1.081,0.32
		c-0.164,0.032-0.328,0.073-0.492,0.122c-0.196,0.049-0.384,0.099-0.565,0.147c-0.36,0.083-0.712,0.156-1.057,0.222
		c-0.36,0.082-0.712,0.155-1.057,0.221c-0.345,0.066-0.696,0.123-1.057,0.172c-0.344,0.049-0.681,0.099-1.008,0.147
		c-0.345,0.05-0.673,0.091-0.983,0.123c-0.345,0.033-0.672,0.059-0.983,0.074c-0.328,0.016-0.639,0.032-0.934,0.049h-0.639
		c-0.345,0-0.681-0.009-1.009-0.024c-0.327-0.016-0.639-0.04-0.934-0.074c-0.787-0.098-1.491-0.246-2.113-0.442
		c-0.606-0.213-1.106-0.499-1.5-0.859c0.131-0.524,0.386-1.041,0.762-1.549c0.394-0.524,0.902-1.049,1.524-1.573
		c0.59-0.507,1.278-1.007,2.064-1.499c0.787-0.491,1.64-0.975,2.556-1.45c0.296-0.147,0.599-0.287,0.91-0.418
		c0.312-0.163,0.631-0.312,0.959-0.442c0.327-0.131,0.664-0.27,1.008-0.418c0.327-0.131,0.663-0.262,1.007-0.393
		c0.345-0.132,0.697-0.263,1.057-0.394c0.328-0.115,0.672-0.229,1.033-0.344c0.311-0.099,0.631-0.188,0.958-0.271
		c0.033-0.016,0.065-0.032,0.099-0.049c0.36-0.099,0.721-0.196,1.081-0.295c0.345-0.098,0.697-0.188,1.058-0.27
		c0.36-0.099,0.713-0.181,1.057-0.247c0.36-0.081,0.721-0.154,1.081-0.221c0.344-0.065,0.696-0.122,1.058-0.172
		c1.031-0.164,2.031-0.271,2.998-0.319C225.652,227.381,225.857,227.373,226.07,227.373z M196.724,241.333
		c0.36-0.032,0.729-0.065,1.106-0.098c0.409-0.017,0.819-0.032,1.229-0.05c0.394-0.017,0.795-0.024,1.204-0.024l0.787,0.024
		c1.064,0.018,2.081,0.091,3.048,0.222c0.967,0.115,1.868,0.286,2.703,0.516c0.573,0.148,1.106,0.319,1.598,0.517
		c0.229,0.099,0.459,0.204,0.688,0.319c0.672,0.344,1.229,0.745,1.671,1.204v0.025c-0.327,0.558-0.778,1.081-1.351,1.572
		c-0.574,0.492-1.238,0.943-1.992,1.353c-0.754,0.426-1.589,0.811-2.507,1.154c-0.917,0.328-1.884,0.64-2.9,0.935
		c-0.344,0.082-0.688,0.164-1.031,0.245c-0.345,0.082-0.697,0.165-1.058,0.246c-0.344,0.065-0.696,0.132-1.057,0.196
		c-0.377,0.083-0.746,0.148-1.105,0.197c-0.378,0.05-0.746,0.099-1.106,0.147c-0.361,0.05-0.721,0.09-1.082,0.123
		c-0.377,0.049-0.754,0.09-1.13,0.123c-0.36,0.017-0.722,0.049-1.082,0.098c-0.377,0-0.745,0.009-1.105,0.024l-1.353,0.024
		c-0.312,0-0.614,0-0.908,0c-0.296-0.016-0.591-0.032-0.886-0.049c-0.345,0-0.681-0.024-1.008-0.073
		c-0.327-0.017-0.655-0.041-0.983-0.074c-0.312-0.049-0.614-0.09-0.909-0.123c-0.918-0.131-1.762-0.311-2.532-0.54
		c-0.753-0.229-1.417-0.5-1.99-0.812c-0.574-0.312-1.024-0.68-1.352-1.105c0.229-0.492,0.582-0.959,1.057-1.401
		s1.057-0.868,1.745-1.277c0.672-0.395,1.442-0.763,2.311-1.107c0.852-0.344,1.77-0.663,2.753-0.958
		c0.327-0.098,0.654-0.196,0.982-0.294c0.229-0.05,0.468-0.107,0.714-0.173c0.099-0.017,0.204-0.04,0.318-0.074
		c0.345-0.081,0.696-0.155,1.058-0.221c0.344-0.082,0.696-0.155,1.057-0.222c0.361-0.065,0.729-0.122,1.106-0.171
		c0.36-0.083,0.72-0.14,1.081-0.173c0.36-0.049,0.729-0.099,1.105-0.147C195.978,241.382,196.347,241.35,196.724,241.333z"/>
	<path fill-rule="evenodd" clip-rule="evenodd" fill="#8C2923" d="M199.674,47.285l8.822,3.834l6.366-7.25l-0.908,9.585l8.848,3.81
		l-9.39,2.114l-0.884,9.586l-4.916-8.283l-9.389,2.138v-0.024l6.365-7.227l-4.94-8.283H199.674z M204.736,90.052
		c0.803,0.836,1.589,1.696,2.359,2.581c0.754,0.884,1.499,1.786,2.236,2.704c0.706,0.917,1.401,1.852,2.09,2.802
		c0.672,0.951,1.327,1.917,1.967,2.9c0.639,0.967,1.253,1.958,1.843,2.974c0.59,1.016,1.155,2.048,1.696,3.097
		c0.032,0.065,0.064,0.123,0.098,0.172c0.36,0.704,0.722,1.417,1.082,2.138c0.132,0.279,0.262,0.566,0.394,0.86
		c0.491,1.065,0.958,2.147,1.4,3.245c0.459,1.082,0.885,2.188,1.278,3.318c0.394,1.13,0.762,2.269,1.105,3.416
		c0.328,1.147,0.64,2.294,0.935,3.441c0.295,1.196,0.557,2.376,0.786,3.54c0.229,1.196,0.442,2.4,0.64,3.613
		c0.164,1.212,0.303,2.425,0.417,3.637c0.132,1.229,0.229,2.466,0.296,3.711c0.064,1.245,0.098,2.499,0.098,3.761
		c0,1.721-0.065,3.433-0.196,5.137c-0.099,1.721-0.271,3.417-0.517,5.088c-0.229,1.672-0.5,3.326-0.811,4.965
		c-0.36,1.639-0.754,3.261-1.18,4.866c-0.442,1.59-0.934,3.163-1.475,4.72c-0.557,1.54-1.147,3.064-1.771,4.571
		c-0.622,1.508-1.303,2.99-2.039,4.449c-0.148,0.295-0.295,0.59-0.443,0.885c-0.605,1.146-1.229,2.277-1.868,3.392
		c-0.835,1.393-1.704,2.762-2.604,4.104c0,0.018-0.009,0.033-0.024,0.049c-0.902,1.328-1.836,2.614-2.803,3.859
		c-0.982,1.262-2.007,2.499-3.072,3.711c-1.065,1.213-2.171,2.393-3.317,3.54c-1.131,1.13-2.294,2.229-3.49,3.293
		c-1.229,1.065-2.475,2.089-3.736,3.072c-1.277,0.983-2.589,1.934-3.933,2.852c-1.344,0.886-2.712,1.745-4.104,2.58
		c-1.393,0.804-2.811,1.574-4.252,2.312c-1.476,0.737-2.958,1.425-4.449,2.064c-1.491,0.622-3.023,1.204-4.596,1.744
		c-1.558,0.541-3.13,1.033-4.72,1.476s-3.203,0.827-4.842,1.155c-1.654,0.327-3.318,0.613-4.989,0.86
		c-1.655,0.213-3.343,0.385-5.063,0.515c-1.704,0.099-3.425,0.157-5.161,0.173c-1.737-0.016-3.457-0.074-5.162-0.173
		c-1.721-0.13-3.408-0.302-5.063-0.515c-1.671-0.247-3.326-0.533-4.964-0.86c-1.655-0.328-3.278-0.713-4.867-1.155
		c-1.589-0.442-3.163-0.935-4.719-1.476c-1.573-0.54-3.105-1.122-4.597-1.744c-1.491-0.64-2.966-1.327-4.423-2.064
		c-1.459-0.737-2.884-1.508-4.277-2.312c-1.393-0.835-2.761-1.694-4.104-2.58c-1.344-0.918-2.655-1.868-3.933-2.852
		c-1.262-0.983-2.499-2.007-3.711-3.072c-1.213-1.064-2.385-2.163-3.515-3.293c-0.147-0.147-0.287-0.287-0.417-0.418
		c-1-1.016-1.967-2.057-2.901-3.122c-1.065-1.212-2.081-2.449-3.047-3.711c-1-1.278-1.95-2.58-2.851-3.908
		c-0.901-1.343-1.762-2.712-2.581-4.104c-0.835-1.409-1.614-2.835-2.335-4.276c-0.721-1.459-1.401-2.941-2.04-4.449
		c-0.623-1.507-1.205-3.031-1.746-4.571c-0.557-1.557-1.048-3.13-1.475-4.72c-0.442-1.605-0.835-3.228-1.179-4.866
		c-0.328-1.639-0.606-3.293-0.835-4.965c-0.23-1.671-0.402-3.367-0.516-5.088c-0.115-1.704-0.172-3.416-0.172-5.137
		c-0.017-0.983,0-1.958,0.049-2.925c0.033-0.967,0.09-1.917,0.172-2.851c0.065-0.967,0.155-1.917,0.27-2.851
		c0.099-0.951,0.221-1.885,0.369-2.802c0.131-0.934,0.287-1.868,0.467-2.802c0.164-0.934,0.36-1.852,0.59-2.753
		c0.197-0.901,0.417-1.802,0.664-2.704c0.246-0.885,0.508-1.77,0.787-2.654c0.262-0.885,0.549-1.762,0.86-2.63
		c0.295-0.869,0.615-1.729,0.959-2.581c-0.131,0.442-0.246,0.885-0.344,1.327c-0.131,0.443-0.238,0.885-0.32,1.327
		c-0.115,0.442-0.221,0.894-0.319,1.352c-0.098,0.442-0.189,0.893-0.271,1.352c-0.082,0.459-0.156,0.926-0.221,1.401
		c-0.083,0.458-0.156,0.925-0.222,1.401c-0.082,0.459-0.139,0.926-0.172,1.401c-0.065,0.475-0.115,0.951-0.147,1.426
		c-0.049,0.475-0.09,0.958-0.123,1.45c-0.033,0.492-0.058,0.983-0.074,1.475c-0.033,0.475-0.058,0.967-0.074,1.475
		c0,0.491,0,0.983,0,1.475c0,1.589,0.057,3.163,0.172,4.719s0.279,3.097,0.491,4.621c0.213,1.524,0.483,3.023,0.812,4.499
		c0.312,1.507,0.672,2.974,1.082,4.398c0.426,1.442,0.893,2.868,1.401,4.277c0.524,1.426,1.089,2.811,1.696,4.154
		c0.606,1.343,1.246,2.662,1.917,3.957c0.688,1.311,1.417,2.58,2.187,3.81c-0.295-0.737-0.573-1.483-0.835-2.237
		c-0.279-0.77-0.533-1.54-0.763-2.311c-0.246-0.786-0.466-1.572-0.663-2.358c-0.229-0.804-0.435-1.606-0.615-2.409
		c-0.18-0.803-0.352-1.622-0.516-2.458c-0.165-0.819-0.304-1.646-0.418-2.482c-0.131-0.819-0.246-1.646-0.344-2.482
		s-0.181-1.68-0.246-2.532c-0.066-0.852-0.115-1.703-0.148-2.556c-0.033-0.869-0.049-1.729-0.049-2.581
		c0-1.54,0.058-3.072,0.172-4.596c0.098-1.524,0.246-3.023,0.442-4.498c0.213-1.491,0.467-2.966,0.762-4.424
		c0.278-1.458,0.623-2.901,1.033-4.326c0.393-1.409,0.827-2.802,1.302-4.178c0.476-1.376,1-2.737,1.573-4.08
		c0.558-1.327,1.163-2.638,1.819-3.933c0.311-0.623,0.631-1.237,0.959-1.844c0.36-0.671,0.729-1.327,1.105-1.966
		c0.721-1.245,1.483-2.458,2.286-3.638c0.803-1.196,1.639-2.359,2.507-3.49c0.885-1.131,1.802-2.229,2.752-3.293
		c0.935-1.098,1.91-2.146,2.925-3.146c1.016-1.016,2.065-1.991,3.146-2.925c1.065-0.95,2.164-1.868,3.294-2.752
		c1.13-0.869,2.294-1.705,3.491-2.507c1.179-0.819,2.392-1.581,3.637-2.286c1.246-0.737,2.516-1.434,3.81-2.089
		c1.295-0.639,2.613-1.237,3.958-1.794c1.327-0.589,2.679-1.122,4.055-1.597c1.394-0.475,2.794-0.901,4.203-1.278
		c1.409-0.41,2.843-0.762,4.302-1.058c1.474-0.294,2.949-0.54,4.424-0.737c1.475-0.197,2.974-0.352,4.498-0.467
		c1.523-0.099,3.057-0.148,4.597-0.148c1.146,0,2.285,0.025,3.416,0.074c1.146,0.066,2.278,0.156,3.392,0.271
		c1.114,0.098,2.221,0.229,3.318,0.393c1.098,0.18,2.188,0.377,3.269,0.59c1.081,0.229,2.155,0.475,3.221,0.737
		c1.064,0.279,2.113,0.574,3.146,0.885c1.032,0.328,2.056,0.68,3.072,1.057c1.032,0.36,2.04,0.754,3.023,1.18
		c0.999,0.41,1.982,0.844,2.949,1.303c0.967,0.459,1.926,0.95,2.876,1.475c0.95,0.491,1.876,1.016,2.777,1.573
		c0.934,0.541,1.844,1.114,2.729,1.721c0.884,0.59,1.762,1.204,2.63,1.843c0.852,0.623,1.688,1.27,2.507,1.941
		c0.819,0.672,1.613,1.352,2.384,2.04c0.787,0.705,1.557,1.426,2.311,2.164c-0.819-1.147-1.672-2.27-2.557-3.368
		c-0.885-1.098-1.802-2.163-2.752-3.195c-0.951-1.048-1.934-2.064-2.95-3.047c-1.031-0.983-2.089-1.926-3.171-2.827
		c-1.098-0.917-2.22-1.794-3.366-2.629c-1.147-0.852-2.312-1.663-3.491-2.434c-1.212-0.754-2.44-1.475-3.687-2.163
		c-1.262-0.705-2.531-1.36-3.81-1.966c-1.311-0.606-2.638-1.172-3.981-1.696c-1.36-0.541-2.728-1.024-4.104-1.45
		c-1.377-0.442-2.777-0.827-4.203-1.155c-1.425-0.361-2.868-0.664-4.326-0.91v-0.024c1.229,0.082,2.467,0.18,3.711,0.295
		c1.213,0.131,2.426,0.295,3.639,0.491c1.18,0.181,2.375,0.385,3.588,0.615c1.18,0.262,2.352,0.541,3.516,0.835
		c1.163,0.295,2.31,0.615,3.44,0.958c1.146,0.361,2.277,0.746,3.392,1.155c1.114,0.394,2.229,0.812,3.343,1.254
		c1.081,0.475,2.154,0.958,3.22,1.45c1.065,0.508,2.122,1.032,3.171,1.573c1.032,0.557,2.048,1.13,3.048,1.72
		c1.016,0.59,2.015,1.221,2.998,1.893c0.984,0.623,1.942,1.278,2.876,1.966c0.935,0.688,1.859,1.393,2.777,2.113
		c0.918,0.738,1.819,1.491,2.704,2.261c0.868,0.754,1.721,1.541,2.557,2.36C203.114,88.372,203.934,89.2,204.736,90.052z
		 M210.979,137.562l-0.099,2.114c-0.098,1.574-0.271,3.138-0.516,4.695c-0.229,1.557-0.524,3.088-0.885,4.596
		c-0.361,1.523-0.771,3.031-1.229,4.522c-0.475,1.475-1.007,2.934-1.598,4.375c-0.59,1.409-1.229,2.81-1.917,4.203
		c-0.688,1.376-1.426,2.72-2.212,4.03c-0.803,1.328-1.646,2.631-2.531,3.908c-0.886,1.262-1.819,2.491-2.803,3.688
		c-0.983,1.195-2.007,2.359-3.072,3.49c-1.064,1.113-2.162,2.203-3.293,3.269c-1.147,1.049-2.327,2.056-3.539,3.022
		c-0.312,0.247-0.614,0.484-0.91,0.713c-0.934,0.722-1.884,1.418-2.851,2.09l4.965,5.309c1.098-0.818,2.171-1.671,3.22-2.557
		c1.016-0.884,2.015-1.794,2.998-2.728c0.705-0.688,1.393-1.393,2.065-2.114c0.245-0.262,0.491-0.532,0.736-0.811
		c0.918-1.016,1.786-2.057,2.606-3.121c0.835-1.049,1.63-2.139,2.384-3.27c0.754-1.114,1.466-2.253,2.139-3.416
		c0.671-1.164,1.302-2.352,1.892-3.564c0.591-1.229,1.131-2.466,1.622-3.711c0.492-1.262,0.942-2.531,1.353-3.81
		c0.409-1.311,0.762-2.63,1.057-3.957c0.312-1.328,0.565-2.663,0.763-4.007c0.195-1.376,0.344-2.753,0.442-4.129
		c0.032-0.737,0.064-1.475,0.098-2.212c0.017-0.737,0.024-1.467,0.024-2.188c-0.032-0.737-0.065-1.459-0.098-2.163
		c-0.05-0.721-0.115-1.434-0.197-2.139c-0.065-0.704-0.147-1.393-0.246-2.064C211.234,138.922,211.11,138.234,210.979,137.562z
		 M154.351,32.612l13.642-0.025L156.955,40.6l4.229,12.928v0.025l-11.012-8.038l-10.987,8.038h-0.024l4.228-12.953l-11.036-7.988
		l13.616,0.024l4.203-12.977L154.351,32.612z M101.752,62.818l-9.389-2.138l-4.892,8.283l-0.024,0.024l-0.86-9.61l-9.414-2.114
		l8.848-3.81l-0.909-9.585h0.024l6.342,7.25l8.849-3.834l-4.94,8.283l6.366,7.227V62.818z M124.659,88.135
		c-0.754,0.262-1.507,0.549-2.261,0.86c-0.754,0.328-1.483,0.671-2.188,1.032c-0.721,0.344-1.434,0.721-2.139,1.131
		c-0.687,0.409-1.367,0.835-2.039,1.277c-0.656,0.459-1.295,0.926-1.917,1.401c-0.639,0.492-1.262,1-1.868,1.524
		c-0.59,0.541-1.172,1.098-1.745,1.671c-0.557,0.541-1.098,1.114-1.622,1.72s-1.033,1.221-1.524,1.844
		c-0.491,0.622-0.958,1.27-1.4,1.942c-0.443,0.671-0.869,1.352-1.279,2.04c-0.409,0.688-0.794,1.393-1.155,2.114
		c-0.361,0.737-0.705,1.475-1.032,2.212c-0.066,0.164-0.14,0.336-0.222,0.516c-0.213,0.574-0.426,1.156-0.639,1.746
		c-0.279,0.786-0.525,1.565-0.737,2.334c-0.213,0.787-0.402,1.598-0.565,2.434c-0.181,0.803-0.32,1.622-0.418,2.458
		c-0.115,0.819-0.197,1.655-0.246,2.507c-0.065,0.852-0.098,1.704-0.098,2.556c0,1.278,0.057,2.556,0.172,3.834
		c0.131,1.261,0.328,2.499,0.59,3.711c0.245,1.212,0.548,2.408,0.909,3.588c0.377,1.164,0.794,2.303,1.254,3.417
		c0.475,1.114,1.007,2.212,1.597,3.293c0.573,1.049,1.196,2.073,1.868,3.073c0.671,0.982,1.384,1.941,2.138,2.875
		c0.77,0.935,1.573,1.819,2.409,2.655c0.852,0.852,1.737,1.654,2.654,2.408c0.934,0.771,1.893,1.483,2.876,2.139
		c1,0.688,2.032,1.318,3.097,1.892c1.066,0.574,2.155,1.099,3.27,1.573c1.114,0.476,2.261,0.894,3.44,1.254
		c1.18,0.377,2.376,0.688,3.589,0.935c1.212,0.245,2.449,0.434,3.71,0.564c1.262,0.132,2.541,0.197,3.834,0.197
		c0.836,0,1.68-0.033,2.533-0.099c0.852-0.065,1.696-0.147,2.531-0.246c0.819-0.114,1.647-0.254,2.482-0.417
		c0.804-0.164,1.599-0.361,2.384-0.591c0.787-0.213,1.565-0.45,2.336-0.712c0.77-0.279,1.531-0.574,2.285-0.886
		c0.738-0.312,1.467-0.647,2.188-1.008c0.737-0.359,1.442-0.745,2.114-1.154c0.704-0.41,1.385-0.845,2.04-1.303
		c0.672-0.442,1.327-0.901,1.966-1.377c0.623-0.508,1.229-1.024,1.819-1.548c0.606-0.525,1.196-1.065,1.769-1.622
		c0.541-0.574,1.082-1.156,1.623-1.746c0.524-0.605,1.032-1.22,1.524-1.843c0.491-0.64,0.958-1.287,1.4-1.941
		c0.459-0.672,0.886-1.353,1.278-2.041c0.409-0.688,0.795-1.393,1.154-2.114c0.361-0.721,0.697-1.458,1.008-2.212
		c0.312-0.737,0.606-1.491,0.886-2.261c0.262-0.771,0.499-1.548,0.712-2.335c0.213-0.803,0.41-1.605,0.591-2.408
		c0.18-0.819,0.319-1.647,0.418-2.482c0.114-0.82,0.196-1.655,0.246-2.507c0.064-0.852,0.098-1.704,0.098-2.556
		s-0.033-1.704-0.098-2.556c-0.05-0.852-0.132-1.688-0.246-2.507c-0.099-0.836-0.238-1.655-0.418-2.458
		c-0.181-0.835-0.378-1.646-0.591-2.434c-0.213-0.77-0.45-1.548-0.712-2.334c-0.213-0.59-0.435-1.172-0.664-1.746
		c-0.065-0.18-0.14-0.352-0.222-0.516c-0.311-0.738-0.646-1.475-1.008-2.212c-0.359-0.721-0.745-1.426-1.154-2.114
		c-0.393-0.688-0.819-1.368-1.278-2.04c-0.442-0.672-0.909-1.32-1.4-1.942c-0.492-0.623-1-1.237-1.524-1.844
		c-0.541-0.606-1.082-1.179-1.623-1.72c-0.572-0.574-1.162-1.13-1.769-1.671c-0.59-0.524-1.196-1.032-1.819-1.524
		c-0.639-0.475-1.294-0.942-1.966-1.401c-0.655-0.442-1.336-0.868-2.04-1.277c-0.672-0.41-1.377-0.787-2.114-1.131
		c-0.721-0.361-1.449-0.705-2.188-1.032c-0.754-0.312-1.516-0.598-2.285-0.86c-0.771-0.279-1.549-0.524-2.336-0.738
		c-0.785-0.213-1.58-0.409-2.384-0.589c-0.835-0.164-1.663-0.295-2.482-0.394c-0.835-0.131-1.679-0.221-2.531-0.27
		c-0.853-0.049-1.697-0.074-2.533-0.074c-0.868,0-1.729,0.025-2.58,0.074c-0.852,0.049-1.688,0.139-2.507,0.27
		c-0.836,0.099-1.656,0.229-2.458,0.394c-0.82,0.18-1.631,0.376-2.433,0.589C126.208,87.61,125.429,87.856,124.659,88.135z
		 M136.457,94.918c0.246-0.017,0.5-0.017,0.762,0c0.262,0.033,0.517,0.057,0.762,0.074c0.345,0.033,0.689,0.074,1.033,0.123
		c0.345,0.049,0.688,0.115,1.033,0.197c0.328,0.065,0.655,0.147,0.983,0.246c0.343,0.099,0.679,0.197,1.007,0.295
		c0.312,0.115,0.622,0.246,0.934,0.393c0.312,0.115,0.622,0.246,0.934,0.393c0.295,0.147,0.59,0.303,0.885,0.467
		c0.262,0.164,0.541,0.336,0.836,0.516c0.263,0.164,0.524,0.353,0.786,0.565c0.262,0.18,0.517,0.376,0.762,0.59
		c0.491,0.393,0.959,0.827,1.402,1.303c0.212,0.229,0.417,0.467,0.613,0.712c0.213,0.229,0.41,0.475,0.59,0.737
		c0.197,0.263,0.377,0.533,0.541,0.812c0.181,0.262,0.353,0.541,0.517,0.835c0.146,0.279,0.294,0.574,0.442,0.885
		c0.131,0.278,0.262,0.565,0.393,0.86c0.115,0.312,0.213,0.623,0.295,0.934c0.099,0.311,0.189,0.623,0.271,0.934
		c0.065,0.311,0.123,0.623,0.172,0.934c0.05,0.312,0.091,0.631,0.123,0.959c0.017,0.262,0.033,0.508,0.049,0.737
		c0,0.082,0,0.164,0,0.246c0,0.312-0.008,0.631-0.023,0.958c-0.018,0.344-0.05,0.68-0.099,1.008
		c-0.05,0.328-0.115,0.655-0.196,0.983c-0.131,0.655-0.313,1.286-0.541,1.893c-0.229,0.606-0.501,1.188-0.812,1.745
		c-0.312,0.557-0.664,1.09-1.057,1.598c-0.377,0.507-0.795,0.983-1.254,1.425c-0.442,0.442-0.926,0.86-1.45,1.253
		c-0.246,0.197-0.499,0.385-0.762,0.565c-0.278,0.18-0.558,0.344-0.835,0.492l1.105,1.376c0.442,0.59,0.844,1.213,1.204,1.868
		c0.344,0.639,0.647,1.294,0.909,1.966c0.263,0.688,0.476,1.384,0.64,2.089c0.164,0.688,0.286,1.4,0.368,2.138
		c0.049,0.737,0.058,1.475,0.025,2.212c-0.05,0.737-0.156,1.483-0.32,2.237c-0.163,0.737-0.376,1.45-0.639,2.138
		c-0.262,0.688-0.573,1.36-0.934,2.016c-0.361,0.623-0.763,1.221-1.205,1.794c-0.442,0.573-0.926,1.114-1.449,1.622
		c-0.525,0.508-1.082,0.983-1.671,1.425c-0.591,0.427-1.205,0.828-1.844,1.204c-0.312,0.164-0.631,0.328-0.959,0.492
		c-0.312,0.147-0.639,0.286-0.983,0.418c-0.327,0.147-0.664,0.278-1.007,0.393c-0.344,0.115-0.688,0.222-1.032,0.319
		c-0.361,0.099-0.722,0.189-1.082,0.271c-0.361,0.066-0.729,0.132-1.106,0.197c-0.36,0.049-0.721,0.098-1.081,0.147
		c-0.394,0.016-0.771,0.032-1.131,0.049h-0.541c-0.311,0-0.606-0.008-0.884-0.024c-0.296-0.017-0.591-0.033-0.885-0.049
		c-0.377-0.033-0.771-0.082-1.18-0.147c-0.376-0.066-0.762-0.14-1.155-0.222c-0.573-0.114-1.146-0.262-1.72-0.442
		c-0.558-0.18-1.098-0.377-1.622-0.59c-1.049-0.459-2.049-0.991-3-1.598c-0.934-0.606-1.802-1.278-2.605-2.015
		c-0.787-0.754-1.491-1.565-2.114-2.434c-0.672-0.901-1.246-1.843-1.721-2.827c-0.459-1-0.811-2.023-1.057-3.072
		c-0.115-0.541-0.213-1.082-0.295-1.622c-0.066-0.541-0.099-1.09-0.099-1.647c-0.016-0.541,0.008-1.098,0.074-1.671
		c0.049-0.541,0.139-1.098,0.27-1.671c0.147-0.738,0.353-1.45,0.615-2.139c0.261-0.688,0.573-1.352,0.934-1.991
		c0.36-0.639,0.762-1.245,1.204-1.819c0.442-0.573,0.925-1.114,1.45-1.622s1.082-0.983,1.672-1.425
		c0.59-0.443,1.205-0.844,1.843-1.205l1.573-0.762c-0.574-0.803-1.057-1.639-1.45-2.507s-0.697-1.77-0.91-2.704
		c-0.18-0.771-0.287-1.548-0.319-2.335c-0.017-0.164-0.024-0.328-0.024-0.491c0-0.983,0.106-1.958,0.319-2.925
		c0.131-0.672,0.32-1.311,0.565-1.917c0.246-0.606,0.524-1.196,0.836-1.769c0.311-0.574,0.663-1.106,1.056-1.598
		c0.394-0.524,0.82-1.008,1.279-1.45c0.458-0.459,0.95-0.885,1.475-1.278c0.262-0.196,0.524-0.377,0.787-0.541
		c0.278-0.18,0.565-0.352,0.86-0.516c0.262-0.148,0.54-0.287,0.835-0.418c0.278-0.148,0.565-0.287,0.86-0.418
		c0.294-0.115,0.598-0.222,0.909-0.32c0.295-0.098,0.598-0.188,0.911-0.271c0.294-0.098,0.605-0.171,0.933-0.221
		c0.312-0.082,0.631-0.147,0.958-0.197c0.328-0.033,0.656-0.074,0.983-0.123c0.328-0.016,0.656-0.032,0.983-0.049H136.457z
		 M132.917,104.651c-0.131,0.065-0.254,0.14-0.369,0.221c-0.131,0.082-0.254,0.164-0.369,0.246
		c-0.115,0.098-0.221,0.188-0.319,0.271c-0.098,0.098-0.197,0.196-0.295,0.294c-0.099,0.115-0.188,0.222-0.27,0.32
		c-0.099,0.115-0.18,0.229-0.246,0.344c-0.083,0.115-0.156,0.238-0.222,0.369c-0.049,0.098-0.106,0.213-0.172,0.344
		c-0.049,0.131-0.098,0.271-0.147,0.418c-0.049,0.131-0.082,0.262-0.098,0.394c-0.05,0.18-0.075,0.352-0.075,0.516
		c-0.032,0.181-0.041,0.361-0.024,0.541c0,0.164,0.007,0.328,0.024,0.491c0.017,0.164,0.05,0.336,0.099,0.517
		c0.048,0.164,0.106,0.328,0.172,0.491c0.049,0.164,0.115,0.328,0.197,0.492c0.066,0.164,0.147,0.328,0.246,0.492
		c0.099,0.131,0.197,0.271,0.294,0.418c0.247,0.344,0.533,0.664,0.86,0.958c0.148,0.147,0.312,0.287,0.493,0.418
		c0.164,0.131,0.343,0.254,0.54,0.368c0.197,0.115,0.394,0.23,0.59,0.345c0.213,0.098,0.426,0.196,0.639,0.294
		c0.213,0.082,0.434,0.156,0.664,0.221c0.229,0.083,0.466,0.14,0.712,0.172c0.197,0.049,0.394,0.098,0.59,0.147
		c0.18,0.017,0.369,0.033,0.565,0.049l1.131,0.025c0.164-0.033,0.335-0.057,0.517-0.074c0.18-0.033,0.36-0.065,0.54-0.099
		c0.164-0.033,0.336-0.073,0.516-0.123c0.148-0.049,0.304-0.107,0.468-0.172c0.164-0.049,0.319-0.106,0.466-0.172
		c0.164-0.082,0.32-0.164,0.468-0.246c0.115-0.065,0.238-0.139,0.368-0.221c0.115-0.065,0.23-0.148,0.345-0.246
		c0.114-0.082,0.221-0.172,0.318-0.27c0.115-0.098,0.222-0.197,0.32-0.295c0.082-0.115,0.164-0.221,0.246-0.32
		c0.099-0.114,0.18-0.221,0.246-0.32c0.082-0.131,0.156-0.253,0.221-0.369c0.066-0.115,0.123-0.237,0.172-0.368
		c0.066-0.131,0.115-0.262,0.148-0.394c0.049-0.131,0.082-0.262,0.099-0.393c0.048-0.147,0.074-0.287,0.074-0.418
		c0.016-0.147,0.032-0.287,0.048-0.418c0-0.147-0.008-0.287-0.024-0.417c0-0.017,0-0.041,0-0.074
		c-0.017-0.114-0.024-0.229-0.024-0.344c-0.033-0.131-0.067-0.271-0.099-0.418c-0.033-0.131-0.074-0.262-0.123-0.393
		c-0.033-0.131-0.074-0.262-0.123-0.393c-0.082-0.132-0.148-0.254-0.197-0.369c-0.065-0.132-0.139-0.254-0.221-0.369
		c-0.082-0.131-0.165-0.254-0.246-0.369c-0.098-0.147-0.197-0.278-0.295-0.393c-0.114-0.131-0.237-0.254-0.369-0.369
		c-0.114-0.131-0.237-0.246-0.369-0.344c-0.131-0.115-0.27-0.229-0.417-0.344c-0.132-0.098-0.271-0.196-0.418-0.295
		c-0.164-0.098-0.319-0.188-0.467-0.27c-0.18-0.083-0.352-0.156-0.516-0.221c-0.18-0.098-0.352-0.172-0.516-0.221
		c-0.18-0.082-0.369-0.14-0.565-0.172c-0.181-0.065-0.361-0.115-0.541-0.147c-0.213-0.049-0.417-0.09-0.614-0.123
		c-0.18-0.032-0.36-0.049-0.54-0.049l-1.131-0.025c-0.18,0.016-0.36,0.042-0.541,0.074c-0.18,0.017-0.353,0.041-0.516,0.074
		c-0.18,0.032-0.352,0.074-0.516,0.123c-0.165,0.049-0.328,0.106-0.492,0.172c-0.165,0.065-0.319,0.131-0.467,0.197
		C133.212,104.496,133.064,104.569,132.917,104.651z M140.856,131.246c-0.032-0.164-0.066-0.319-0.098-0.467
		c-0.033-0.164-0.074-0.311-0.124-0.442c-0.048-0.164-0.105-0.319-0.171-0.467s-0.123-0.295-0.172-0.442
		c-0.082-0.147-0.164-0.287-0.246-0.417c-0.082-0.148-0.164-0.287-0.246-0.418c-0.081-0.131-0.172-0.262-0.27-0.394
		c-0.115-0.147-0.229-0.295-0.344-0.442c-0.114-0.147-0.229-0.278-0.345-0.393c-0.13-0.131-0.269-0.262-0.417-0.394
		c-0.131-0.131-0.271-0.254-0.418-0.369c-0.147-0.131-0.294-0.246-0.442-0.344c-0.164-0.115-0.32-0.23-0.467-0.345
		c-0.181-0.098-0.361-0.196-0.541-0.294c-0.164-0.082-0.336-0.172-0.516-0.271c-0.181-0.082-0.361-0.164-0.541-0.246
		c-0.196-0.082-0.393-0.147-0.59-0.197c-0.196-0.082-0.393-0.147-0.589-0.196c-0.197-0.049-0.41-0.099-0.64-0.148
		c-0.196-0.049-0.401-0.09-0.615-0.123c-0.212-0.033-0.417-0.058-0.614-0.074c-0.179-0.033-0.352-0.049-0.515-0.049
		c-0.164,0-0.336,0-0.517,0h-0.197c-0.196,0-0.394,0.008-0.59,0.024c-0.197,0.017-0.393,0.033-0.59,0.049
		c-0.181,0.033-0.369,0.074-0.566,0.123c-0.18,0.033-0.36,0.074-0.54,0.123c-0.18,0.049-0.361,0.098-0.541,0.147
		c-0.18,0.065-0.352,0.131-0.516,0.197c-0.181,0.065-0.353,0.139-0.517,0.221c-0.164,0.082-0.327,0.164-0.491,0.246
		c-0.131,0.082-0.262,0.172-0.394,0.27c-0.147,0.082-0.287,0.172-0.417,0.271c-0.132,0.082-0.254,0.172-0.37,0.271
		c-0.13,0.115-0.253,0.229-0.369,0.344c-0.114,0.115-0.221,0.221-0.319,0.32c-0.114,0.131-0.221,0.254-0.319,0.369
		c-0.098,0.131-0.188,0.254-0.27,0.369c-0.083,0.131-0.164,0.262-0.246,0.393c-0.065,0.147-0.139,0.287-0.222,0.418
		c-0.065,0.147-0.123,0.295-0.171,0.442c-0.066,0.147-0.123,0.295-0.172,0.442c-0.049,0.164-0.09,0.319-0.123,0.467
		c-0.099,0.475-0.139,0.95-0.123,1.425c0.017,0.459,0.074,0.917,0.172,1.376c0.131,0.458,0.294,0.909,0.492,1.352
		c0.213,0.426,0.458,0.836,0.737,1.229c0.327,0.443,0.696,0.852,1.105,1.229c0.41,0.377,0.86,0.729,1.352,1.057
		c0.492,0.312,1.024,0.573,1.598,0.786c0.557,0.246,1.155,0.435,1.794,0.565c0.197,0.049,0.402,0.09,0.615,0.123
		s0.417,0.057,0.615,0.074c0.18,0.016,0.352,0.033,0.516,0.049c0.181,0,0.36,0,0.541,0h0.171c0.197,0,0.394-0.009,0.59-0.025
		c0.197-0.016,0.393-0.033,0.59-0.049c0.197-0.033,0.385-0.073,0.565-0.123c0.18-0.033,0.36-0.074,0.54-0.123
		c0.197-0.049,0.377-0.098,0.541-0.147c0.18-0.065,0.361-0.131,0.541-0.197c0.18-0.065,0.353-0.139,0.516-0.221
		c0.147-0.082,0.303-0.164,0.467-0.246c0.147-0.082,0.287-0.164,0.417-0.246c0.131-0.099,0.262-0.197,0.394-0.295
		c0.131-0.098,0.262-0.189,0.394-0.271c0.115-0.115,0.229-0.229,0.343-0.344c0.115-0.098,0.23-0.205,0.345-0.32
		c0.082-0.13,0.181-0.253,0.295-0.369c0.098-0.115,0.188-0.237,0.27-0.368c0.082-0.131,0.164-0.271,0.246-0.418
		c0.082-0.131,0.155-0.262,0.222-0.393c0.065-0.147,0.13-0.303,0.196-0.467c0.05-0.131,0.098-0.27,0.147-0.417
		c0.049-0.164,0.09-0.32,0.123-0.467c0.034-0.164,0.058-0.319,0.074-0.467c0.016-0.164,0.032-0.328,0.049-0.492
		c0.016-0.147,0.016-0.303,0-0.467c0-0.148-0.009-0.295-0.025-0.442C140.889,131.549,140.873,131.393,140.856,131.246z
		 M137.366,201.319c1.36,0.377,2.737,0.704,4.129,0.982c1.377,0.296,2.786,0.525,4.228,0.688c1.426,0.181,2.885,0.304,4.376,0.369
		l0.467-5.383c-0.787,0.049-1.573,0.091-2.36,0.123c-0.786,0.017-1.572,0.032-2.359,0.049c-0.803-0.017-1.598-0.032-2.384-0.049
		c-0.819-0.032-1.606-0.074-2.359-0.123c-0.804-0.082-1.582-0.156-2.335-0.221c-0.803-0.099-1.581-0.205-2.335-0.32
		c-0.754-0.114-1.516-0.245-2.286-0.393c-0.754-0.147-1.491-0.304-2.211-0.468c-0.755-0.164-1.492-0.343-2.213-0.54
		c-0.72-0.181-1.441-0.386-2.162-0.614c-0.705-0.213-1.401-0.451-2.089-0.713c-0.721-0.246-1.417-0.5-2.09-0.763
		c-0.672-0.262-1.335-0.54-1.991-0.835c-0.671-0.295-1.335-0.599-1.99-0.91c1.033,0.819,2.105,1.599,3.22,2.336
		c1.098,0.721,2.229,1.417,3.392,2.088c1.18,0.64,2.384,1.246,3.613,1.819c1.246,0.574,2.507,1.106,3.785,1.598
		C134.704,200.517,136.022,200.942,137.366,201.319z M170.892,193.159l1.695,6.882c1.524-0.557,3.032-1.163,4.522-1.819
		c1.491-0.671,2.95-1.393,4.376-2.162l-3.221-6.464c-1.196,0.654-2.407,1.286-3.637,1.893
		C173.399,192.078,172.153,192.635,170.892,193.159z"/>
</g>
</svg>
