<?xml version="1.0" encoding="utf-8"?>
<!-- Generator: Adobe Illustrator 16.0.0, SVG Export Plug-In . SVG Version: 6.00 Build 0)  -->
<!DOCTYPE svg PUBLIC "-//W3C//DTD SVG 1.1//EN" "http://www.w3.org/Graphics/SVG/1.1/DTD/svg11.dtd">
<svg version="1.1" id="Layer_1" xmlns="http://www.w3.org/2000/svg" xmlns:xlink="http://www.w3.org/1999/xlink" x="0px" y="0px"
	 width="300px" height="300px" viewBox="0 0 300 300" enable-background="new 0 0 300 300" xml:space="preserve">
<g>
	<g>
		<path fill-rule="evenodd" clip-rule="evenodd" fill="#19264C" d="M10.009,75.428c0.123,0.077,0.253,0.161,0.391,0.253
			c0.139,0.092,0.269,0.199,0.392,0.322l2.44,2.026c0.016,0.169,0.031,0.353,0.046,0.553c0.016,0.184,0.039,0.384,0.069,0.599
			c0.015,0.184,0.046,0.391,0.092,0.621c0.03,0.215,0.061,0.445,0.092,0.691c0.123,0.783,0.276,1.574,0.46,2.372
			c0.2,0.783,0.415,1.574,0.645,2.372c0.246,0.783,0.522,1.566,0.829,2.349c0.307,0.783,0.637,1.558,0.99,2.326
			s0.737,1.535,1.151,2.303c0.415,0.737,0.844,1.481,1.29,2.233c0.476,0.722,0.967,1.443,1.474,2.165
			c0.507,0.722,1.044,1.436,1.612,2.142c0.568,0.691,1.151,1.374,1.75,2.049c0.614,0.676,1.244,1.328,1.888,1.958
			c0.645,0.645,1.32,1.274,2.026,1.888c0.691,0.614,1.405,1.213,2.142,1.796l-8.935-0.668c-0.69-0.583-1.358-1.174-2.003-1.773
			c-0.645-0.629-1.267-1.259-1.865-1.888c-0.614-0.629-1.198-1.274-1.75-1.934s-1.09-1.32-1.612-1.98
			c-0.491-0.66-0.975-1.343-1.45-2.05c-0.46-0.69-0.898-1.389-1.313-2.095c-0.399-0.706-0.79-1.419-1.174-2.141
			c-0.354-0.722-0.699-1.451-1.037-2.188c-0.307-0.737-0.599-1.481-0.875-2.234c-0.277-0.768-0.522-1.527-0.737-2.28
			c-0.215-0.767-0.414-1.535-0.598-2.302c-0.169-0.783-0.323-1.566-0.461-2.349c-0.03-0.322-0.069-0.629-0.115-0.921
			c-0.046-0.291-0.085-0.568-0.116-0.829c-0.015-0.262-0.03-0.515-0.045-0.76c-0.031-0.246-0.047-0.468-0.047-0.668
			c0-0.215,0-0.421,0-0.621c0-0.2,0.008-0.384,0.023-0.553c0.016-0.168,0.031-0.322,0.046-0.46c0.03-0.153,0.061-0.291,0.092-0.414
			c0.031-0.124,0.069-0.238,0.115-0.345c0.031-0.107,0.069-0.208,0.115-0.299c0.107-0.169,0.223-0.3,0.345-0.392
			c0.138-0.107,0.292-0.177,0.46-0.208c0.031-0.015,0.069-0.031,0.116-0.046c0.061,0,0.122,0,0.184,0s0.13,0,0.208,0
			c0.092,0.015,0.184,0.039,0.276,0.07c0.092,0.015,0.192,0.045,0.3,0.092c0.107,0.031,0.207,0.069,0.299,0.115
			c0.123,0.061,0.23,0.123,0.322,0.184c0.139,0.046,0.261,0.107,0.369,0.185c0.107,0.061,0.223,0.13,0.345,0.207
			c0.123,0.077,0.246,0.161,0.368,0.253C9.764,75.229,9.886,75.321,10.009,75.428z M21.177,81.346
			c0.399,0.077,0.852,0.246,1.358,0.506c0.507,0.277,1.067,0.622,1.681,1.036c0.214,0.153,0.43,0.308,0.645,0.461
			c0.23,0.153,0.46,0.315,0.691,0.483c0.23,0.169,0.468,0.345,0.713,0.53l2.303,1.773c0.261,0.185,0.522,0.384,0.783,0.599
			c0.276,0.199,0.553,0.399,0.829,0.599c0.276,0.199,0.552,0.399,0.829,0.598c0.292,0.215,0.583,0.43,0.875,0.646
			c0.292,0.199,0.591,0.399,0.898,0.598c0.292,0.215,0.591,0.43,0.898,0.645c0.307,0.2,0.614,0.407,0.921,0.622
			c0.322,0.215,0.637,0.43,0.944,0.645c0.338,0.2,0.668,0.407,0.99,0.622c0.323,0.215,0.653,0.422,0.99,0.622
			c0.353,0.23,0.691,0.453,1.013,0.668c0.353,0.2,0.699,0.407,1.037,0.622c0.337,0.2,0.691,0.407,1.059,0.622
			c0.354,0.23,0.707,0.445,1.06,0.645c0.368,0.2,0.737,0.407,1.105,0.622c0.354,0.215,0.722,0.422,1.105,0.622
			c0.369,0.199,0.745,0.407,1.128,0.622c0.369,0.2,0.745,0.399,1.129,0.599c0.384,0.199,0.768,0.399,1.151,0.599
			c0.383,0.214,0.768,0.415,1.151,0.598c0.399,0.2,0.791,0.392,1.174,0.576c0.399,0.2,0.798,0.399,1.197,0.599
			c0.414,0.169,0.821,0.354,1.22,0.553c0.415,0.185,0.814,0.368,1.198,0.553c0.414,0.185,0.829,0.361,1.243,0.53
			c0.4,0.184,0.814,0.361,1.244,0.529c0.415,0.169,0.829,0.338,1.244,0.507c0.415,0.153,0.836,0.314,1.267,0.484
			c0.415,0.168,0.836,0.33,1.267,0.483c0.43,0.153,0.852,0.307,1.266,0.46c0.43,0.153,0.859,0.299,1.29,0.438
			c0.415,0.138,0.836,0.276,1.267,0.415c0.43,0.153,0.868,0.292,1.313,0.415c0.43,0.123,0.86,0.246,1.29,0.368
			c0.445,0.123,0.882,0.246,1.313,0.369c0.43,0.107,0.867,0.222,1.313,0.345l1.98,0.53c0.307,0.077,0.599,0.161,0.875,0.253
			c0.276,0.092,0.545,0.185,0.806,0.276c0.261,0.077,0.507,0.161,0.737,0.253c0.23,0.092,0.445,0.177,0.645,0.253
			c0.215,0.092,0.422,0.184,0.622,0.276c0.2,0.092,0.384,0.177,0.553,0.254c0.169,0.091,0.322,0.184,0.46,0.276
			c0.169,0.092,0.314,0.185,0.437,0.276c0.139,0.092,0.261,0.185,0.369,0.277c0.123,0.092,0.23,0.192,0.322,0.299
			c0.107,0.092,0.2,0.185,0.277,0.276c0.092,0.092,0.176,0.184,0.253,0.276c0.062,0.108,0.123,0.208,0.185,0.3
			c0.046,0.107,0.092,0.207,0.138,0.299c0.046,0.107,0.092,0.207,0.138,0.299c0.03,0.107,0.053,0.215,0.069,0.323
			c0.031,0.107,0.046,0.214,0.046,0.322c0.015,0.107,0.023,0.215,0.023,0.322c0.016,0.107,0.016,0.222,0,0.345
			c0,0.107-0.008,0.215-0.023,0.323c0,0.138-0.015,0.261-0.046,0.368c0,0.124-0.007,0.246-0.023,0.369l-0.69,3.293
			c-0.123,0.722-0.184,1.443-0.184,2.165c0.016,0.706,0.077,1.404,0.184,2.095c0.123,0.691,0.292,1.374,0.507,2.049
			c0.215,0.661,0.476,1.321,0.783,1.98c0.307,0.66,0.652,1.305,1.037,1.934c0.399,0.63,0.821,1.251,1.266,1.865
			c0.476,0.614,0.967,1.221,1.474,1.819c0.261,0.291,0.529,0.583,0.806,0.875c0.277,0.292,0.63,0.583,1.06,0.875
			c1.305,0.982,2.372,1.528,3.2,1.635c0.445,7.691,4.222,12.564,11.33,14.622c1.627,5.48,6.585,9.894,14.875,13.24
			c-5.511,0.814-11.306-0.998-17.385-5.434c-0.215,0.092-0.438,0.176-0.668,0.252c-0.261,0.107-0.537,0.217-0.829,0.324
			c-0.276,0.092-0.568,0.184-0.875,0.275c-0.292,0.092-0.591,0.191-0.898,0.299l-3.891,1.014l-5.25,0.898
			c-0.2,0.031-0.415,0.053-0.645,0.068c-0.292,0.047-0.591,0.07-0.898,0.07c-0.292,0.029-0.583,0.053-0.875,0.068h-0.621
			c-0.154,0-0.315,0-0.484,0c-0.169-0.016-0.33-0.023-0.484-0.023c-0.246-0.029-0.483-0.053-0.713-0.068
			c-0.23-0.031-0.446-0.07-0.645-0.115c-0.415-0.076-0.783-0.176-1.105-0.299c-0.323-0.154-0.576-0.324-0.76-0.508
			c-0.214-0.199-0.322-0.43-0.322-0.689c0-0.262,0.092-0.553,0.276-0.877c0.2-0.336,0.476-0.721,0.829-1.15
			c0.185-0.215,0.384-0.445,0.599-0.691c0.23-0.26,0.468-0.529,0.714-0.805c-0.906,0.244-1.804,0.467-2.694,0.668
			c-0.906,0.184-1.796,0.338-2.671,0.459c-0.891,0.139-1.773,0.246-2.648,0.324c-0.89,0.061-1.772,0.1-2.648,0.113l-0.599,0.023
			c-0.783,0-1.574-0.029-2.372-0.092c-0.798-0.045-1.589-0.115-2.372-0.207c-0.906-0.107-1.819-0.246-2.74-0.414
			c-0.906-0.17-1.827-0.361-2.763-0.576c-0.246-0.063-0.491-0.123-0.737-0.184c-0.246-0.063-0.476-0.123-0.69-0.186
			c-0.23-0.076-0.445-0.145-0.645-0.207c-0.323-0.092-0.622-0.191-0.898-0.299c-0.261-0.092-0.514-0.184-0.76-0.275
			c-0.23-0.107-0.453-0.207-0.667-0.301c-0.215-0.092-0.407-0.191-0.576-0.299c-0.353-0.199-0.645-0.398-0.875-0.6
			c-0.246-0.199-0.438-0.398-0.576-0.598c-0.123-0.215-0.2-0.422-0.23-0.621c-0.046-0.2-0.046-0.4,0-0.599
			c0.015-0.107,0.045-0.215,0.092-0.322c0.03-0.093,0.076-0.185,0.138-0.276c0.062-0.107,0.123-0.216,0.185-0.322
			c0.077-0.093,0.153-0.185,0.23-0.277c0.092-0.107,0.185-0.215,0.276-0.322c0.092-0.076,0.192-0.168,0.3-0.276
			c0.107-0.092,0.214-0.191,0.322-0.299c0.123-0.092,0.246-0.185,0.369-0.276c0.123-0.092,0.253-0.185,0.391-0.276
			c0.138-0.092,0.269-0.184,0.392-0.276l3.178-2.003c-0.276,0.016-0.56,0.03-0.852,0.046c-0.292,0.015-0.583,0.022-0.875,0.022
			s-0.575,0.008-0.852,0.023l-2.694-0.023c-0.307,0-0.606-0.008-0.898-0.022c-0.292-0.03-0.591-0.046-0.897-0.046
			c-0.292-0.031-0.592-0.054-0.898-0.069s-0.614-0.038-0.921-0.068c-0.292-0.031-0.591-0.063-0.898-0.093
			c-0.292-0.031-0.591-0.062-0.898-0.092c-0.307-0.031-0.606-0.069-0.898-0.115c-0.307-0.046-0.614-0.085-0.921-0.115
			c-0.292-0.062-0.591-0.115-0.897-0.161c-0.292-0.047-0.592-0.092-0.898-0.139c-0.307-0.062-0.606-0.122-0.898-0.184
			c-0.292-0.062-0.583-0.123-0.875-0.185c-0.307-0.062-0.606-0.131-0.897-0.207c-0.292-0.062-0.583-0.139-0.875-0.23
			c-0.292-0.077-0.583-0.146-0.875-0.207c-0.292-0.092-0.583-0.177-0.875-0.254c-0.276-0.091-0.568-0.184-0.875-0.275
			c-0.276-0.093-0.561-0.192-0.852-0.3c-0.277-0.092-0.553-0.184-0.829-0.276c-0.292-0.107-0.568-0.215-0.829-0.322
			c-0.292-0.107-0.576-0.223-0.852-0.346c-0.261-0.123-0.53-0.237-0.806-0.345c-0.261-0.123-0.53-0.246-0.806-0.369
			c-0.261-0.138-0.53-0.269-0.806-0.392c-0.383-0.2-0.768-0.407-1.151-0.622c-0.383-0.215-0.768-0.438-1.151-0.667
			c-0.737-0.461-1.458-0.937-2.165-1.428c-0.323-0.246-0.622-0.476-0.898-0.69c-0.292-0.215-0.56-0.422-0.806-0.622
			c-0.246-0.215-0.491-0.415-0.737-0.599c-0.23-0.199-0.438-0.391-0.622-0.576c-0.215-0.168-0.407-0.345-0.576-0.529
			c-0.169-0.169-0.33-0.33-0.484-0.483c-0.138-0.154-0.268-0.308-0.391-0.461c-0.123-0.153-0.238-0.299-0.346-0.438
			c-0.107-0.153-0.199-0.292-0.276-0.415c-0.077-0.138-0.146-0.261-0.208-0.368c-0.062-0.138-0.107-0.261-0.138-0.369
			c-0.046-0.107-0.077-0.215-0.092-0.323c0-0.107-0.007-0.207-0.022-0.299c0.015-0.107,0.022-0.207,0.022-0.299
			c0.046-0.169,0.116-0.331,0.208-0.484c0.107-0.153,0.238-0.292,0.391-0.415c0.077-0.061,0.161-0.123,0.253-0.185
			c0.092-0.045,0.185-0.091,0.277-0.138c0.107-0.061,0.214-0.115,0.322-0.161c0.123-0.046,0.238-0.084,0.345-0.115
			c0.123-0.046,0.254-0.084,0.392-0.115c0.123-0.046,0.253-0.077,0.391-0.092c0.138-0.031,0.277-0.061,0.415-0.092
			c0.153-0.015,0.299-0.038,0.438-0.069c0.168-0.015,0.322-0.039,0.46-0.069c0.153-0.015,0.307-0.031,0.46-0.046l1.957-0.138v0.023
			c-0.092,0.184-0.131,0.414-0.115,0.69c0.015,0.246,0.099,0.522,0.253,0.829c0.153,0.307,0.368,0.637,0.645,0.99
			c0.276,0.354,0.622,0.729,1.036,1.128c0.415,0.415,0.891,0.853,1.428,1.313c0.2,0.138,0.399,0.292,0.599,0.461
			c0.199,0.153,0.407,0.307,0.621,0.46c0.2,0.169,0.415,0.337,0.645,0.506c0.445,0.323,0.898,0.63,1.358,0.921
			c0.445,0.292,0.906,0.568,1.382,0.829c0.46,0.261,0.937,0.515,1.427,0.76c0.491,0.23,0.983,0.46,1.474,0.69
			c0.491,0.215,0.998,0.422,1.52,0.622c0.507,0.2,1.021,0.384,1.543,0.553c0.507,0.153,1.021,0.307,1.542,0.46
			c0.522,0.138,1.052,0.269,1.589,0.392c-0.107-0.046-0.222-0.092-0.345-0.138l-0.415-0.184c-0.153-0.062-0.322-0.13-0.506-0.208
			c-0.169-0.077-0.338-0.161-0.507-0.253c-0.184-0.092-0.376-0.192-0.576-0.299c-0.199-0.092-0.392-0.192-0.576-0.3
			c-0.199-0.107-0.407-0.215-0.622-0.322c-0.2-0.124-0.399-0.238-0.599-0.345c-0.23-0.124-0.445-0.254-0.645-0.392
			c-0.215-0.123-0.422-0.246-0.622-0.368c-0.214-0.138-0.43-0.276-0.645-0.415c-0.2-0.123-0.399-0.253-0.599-0.391
			c-0.214-0.153-0.415-0.299-0.598-0.438c-0.215-0.153-0.415-0.299-0.599-0.438c-0.184-0.153-0.369-0.299-0.553-0.438
			c-0.185-0.153-0.361-0.307-0.53-0.46c-0.153-0.139-0.315-0.285-0.483-0.438c-0.153-0.153-0.3-0.299-0.438-0.438
			c-0.138-0.154-0.269-0.299-0.392-0.438c-0.123-0.154-0.238-0.307-0.345-0.46c-0.2-0.292-0.361-0.583-0.483-0.875
			c-0.107-0.276-0.169-0.545-0.185-0.806c0-0.307,0.085-0.583,0.253-0.829c0.169-0.23,0.422-0.429,0.76-0.599
			c0.338-0.184,0.745-0.338,1.22-0.46c0.261-0.061,0.522-0.123,0.783-0.184c0.277-0.046,0.568-0.092,0.875-0.138
			c0.215-0.031,0.43-0.054,0.645-0.069c0.215-0.031,0.438-0.054,0.668-0.069c0.215-0.015,0.445-0.039,0.691-0.069l16.441-0.438
			c0.338-0.015,0.675-0.039,1.013-0.069c0.323-0.015,0.652-0.038,0.99-0.069c0.338-0.015,0.668-0.039,0.991-0.069
			c0.322-0.03,0.645-0.061,0.967-0.092c0.322-0.03,0.645-0.069,0.967-0.115c0.322-0.046,0.645-0.092,0.967-0.138
			c0.307-0.031,0.614-0.069,0.921-0.115c0.307-0.061,0.614-0.115,0.921-0.161c0.307-0.062,0.614-0.124,0.921-0.185
			c0.445-0.092,0.883-0.192,1.313-0.3c0.429-0.107,0.852-0.222,1.267-0.345c0.783-0.23,1.535-0.499,2.256-0.806
			c-0.476,0.139-0.967,0.269-1.473,0.392c-0.491,0.092-0.998,0.184-1.52,0.276c-0.537,0.092-1.09,0.169-1.658,0.23
			c-0.553,0.062-1.121,0.115-1.704,0.162c-0.568,0.046-1.151,0.084-1.75,0.115c-0.583,0.015-1.182,0.023-1.796,0.023l-3.661-0.023
			c-0.414-0.015-0.821-0.031-1.22-0.046c-0.415-0.015-0.829-0.038-1.244-0.069c-0.415,0-0.829-0.015-1.244-0.046l-7.184-0.483
			L32.783,127.1c-0.307,0-0.606,0.008-0.898,0.023c-0.292,0.031-0.576,0.054-0.852,0.069c-0.277,0.03-0.545,0.061-0.806,0.092
			c-0.277,0.03-0.545,0.061-0.806,0.092c-0.23,0.046-0.468,0.092-0.714,0.138c-0.214,0.061-0.422,0.123-0.622,0.184
			c-0.399,0.123-0.744,0.261-1.036,0.415c-1.09-0.399-2.165-0.821-3.224-1.266c-1.044-0.476-2.065-0.959-3.063-1.451
			c-0.997-0.521-1.972-1.067-2.924-1.635c-0.937-0.568-1.85-1.159-2.74-1.773c-0.891-0.629-1.75-1.274-2.579-1.934
			c-0.845-0.676-1.659-1.375-2.441-2.096c-0.798-0.722-1.558-1.474-2.279-2.257c-0.737-0.783-1.451-1.581-2.142-2.395
			c-0.122-0.184-0.253-0.369-0.391-0.552c-0.123-0.185-0.23-0.354-0.322-0.507c-0.107-0.168-0.208-0.33-0.3-0.484
			c-0.076-0.153-0.153-0.307-0.23-0.46c-0.061-0.138-0.123-0.269-0.184-0.391c-0.046-0.139-0.084-0.269-0.115-0.392
			c-0.031-0.123-0.062-0.238-0.092-0.346C4.007,110.067,4,109.96,4,109.853c0-0.092,0.007-0.184,0.023-0.276
			c0-0.108,0.015-0.2,0.045-0.276c0.016-0.077,0.039-0.154,0.07-0.23c0.046-0.092,0.092-0.161,0.138-0.207
			c0.092-0.138,0.207-0.262,0.345-0.369c0.077-0.062,0.161-0.107,0.253-0.139c0.077-0.045,0.154-0.091,0.23-0.138
			c0.092-0.031,0.192-0.061,0.299-0.092c0.092-0.03,0.192-0.061,0.3-0.092c0.107-0.015,0.214-0.039,0.322-0.069
			c0.107-0.015,0.23-0.03,0.369-0.046c0.107-0.015,0.223-0.031,0.346-0.046c0.123,0,0.253-0.007,0.391-0.022l4.237,0.207
			c-0.046,0.261-0.031,0.553,0.046,0.875c0.077,0.307,0.222,0.66,0.438,1.06c0.092,0.168,0.207,0.36,0.345,0.576
			c0.123,0.199,0.261,0.406,0.415,0.621c0.153,0.215,0.322,0.445,0.506,0.691c0.185,0.23,0.376,0.46,0.576,0.691
			c0.185,0.246,0.376,0.483,0.576,0.714c0.185,0.215,0.376,0.438,0.576,0.667c0.2,0.215,0.399,0.43,0.599,0.645
			c0.2,0.215,0.392,0.43,0.576,0.645c0.2,0.215,0.399,0.422,0.599,0.622c0.2,0.199,0.399,0.406,0.599,0.622
			c0.599,0.583,1.22,1.151,1.865,1.704c0.613,0.538,1.251,1.067,1.911,1.589c0.675,0.491,1.366,0.975,2.072,1.45
			c0.246,0.138,0.492,0.284,0.737,0.438s0.491,0.308,0.737,0.461c0.246,0.138,0.499,0.284,0.76,0.438
			c0.245,0.138,0.499,0.276,0.759,0.414c0.276,0.139,0.545,0.276,0.806,0.415c0.276,0.138,0.56,0.276,0.852,0.415
			c0.261,0.123,0.529,0.246,0.806,0.368c0.292,0.123,0.576,0.246,0.852,0.369c0.292,0.123,0.591,0.245,0.898,0.368
			c-0.108-0.061-0.215-0.123-0.323-0.184c-0.092-0.062-0.2-0.13-0.322-0.207c-0.123-0.092-0.253-0.192-0.392-0.3
			c-0.153-0.092-0.307-0.199-0.46-0.323c-0.153-0.123-0.307-0.246-0.46-0.368c-0.168-0.138-0.338-0.276-0.506-0.414
			c-0.169-0.154-0.345-0.3-0.53-0.438c-0.169-0.168-0.354-0.33-0.553-0.483c-0.168-0.169-0.345-0.338-0.53-0.507
			c-0.199-0.169-0.391-0.346-0.576-0.529c-0.184-0.185-0.376-0.369-0.575-0.553c-0.2-0.184-0.384-0.368-0.553-0.552
			c-0.2-0.2-0.399-0.4-0.599-0.599c-0.169-0.2-0.354-0.392-0.553-0.576c-0.185-0.215-0.368-0.415-0.553-0.599
			c-0.185-0.214-0.361-0.422-0.53-0.622c-0.184-0.199-0.361-0.407-0.529-0.622c-0.169-0.2-0.338-0.399-0.507-0.599
			c-0.153-0.2-0.307-0.399-0.461-0.599c-0.153-0.199-0.307-0.399-0.46-0.599c-0.138-0.199-0.269-0.391-0.392-0.576
			c-0.138-0.199-0.261-0.391-0.369-0.576c-0.123-0.184-0.23-0.368-0.322-0.553c-0.092-0.169-0.185-0.345-0.276-0.529
			c-0.292-0.598-0.445-1.113-0.461-1.543c0-0.43,0.108-0.791,0.322-1.082c0.215-0.292,0.53-0.521,0.945-0.691
			c0.414-0.153,0.897-0.261,1.45-0.322c0.184-0.031,0.376-0.046,0.575-0.046c0.2,0,0.4,0,0.599,0h0.668
			c0.23,0.015,0.46,0.03,0.69,0.046c0.23,0.015,0.468,0.038,0.714,0.069c0.246,0.015,0.484,0.046,0.714,0.092
			c0.261,0.03,0.506,0.061,0.736,0.091c0.246,0.031,0.499,0.069,0.76,0.115c0.261,0.046,0.514,0.1,0.759,0.162
			c0.261,0.045,0.515,0.092,0.76,0.138c0.261,0.046,0.514,0.1,0.76,0.161c0.246,0.062,0.499,0.124,0.76,0.185l4.075,1.105
			c0.307,0.077,0.592,0.161,0.853,0.253c0.261,0.077,0.506,0.153,0.736,0.23s0.438,0.146,0.622,0.208
			c0.184,0.076,0.345,0.138,0.483,0.184l2.809,1.059c0.307,0.124,0.622,0.239,0.944,0.345c0.323,0.108,0.645,0.215,0.968,0.323
			c0.322,0.123,0.645,0.23,0.967,0.323c0.338,0.123,0.668,0.23,0.99,0.322c0.338,0.107,0.668,0.215,0.99,0.323
			c0.337,0.091,0.683,0.176,1.036,0.253c0.338,0.092,0.676,0.184,1.013,0.276c0.338,0.092,0.684,0.177,1.037,0.253
			c0.338,0.092,0.691,0.177,1.059,0.254c0.522,0.107,1.06,0.207,1.612,0.299c0.537,0.107,1.083,0.2,1.635,0.277
			c0.552,0.061,1.12,0.13,1.704,0.207c0.568,0.062,1.144,0.107,1.727,0.139c0.307,0.015,0.614,0.031,0.921,0.046
			c0.323,0.015,0.637,0.023,0.944,0.023c0.322,0,0.645,0,0.967,0h0.76c0.613,0,1.228-0.015,1.842-0.046
			c0.629-0.046,1.259-0.1,1.888-0.162c-0.215-0.015-0.438-0.031-0.668-0.046c-0.246-0.015-0.483-0.038-0.714-0.069
			c-0.246-0.015-0.491-0.038-0.737-0.069c-0.261-0.031-0.522-0.061-0.783-0.092c-0.261-0.03-0.53-0.069-0.806-0.115
			s-0.552-0.1-0.829-0.161c-0.292-0.046-0.576-0.1-0.853-0.162c-0.292-0.046-0.583-0.1-0.875-0.161
			c-0.307-0.062-0.607-0.123-0.898-0.185c-0.292-0.077-0.591-0.146-0.898-0.207l-0.898-0.207c-0.307-0.077-0.614-0.154-0.921-0.23
			l-10.224-3.178l-7.921-3.247c-0.322-0.153-0.637-0.307-0.944-0.46s-0.591-0.299-0.852-0.438c-0.568-0.506-1.121-1.014-1.658-1.52
			c-0.538-0.506-1.06-1.021-1.566-1.543c-0.491-0.521-0.975-1.051-1.451-1.588c-0.461-0.553-0.905-1.098-1.335-1.635
			c-0.43-0.552-0.852-1.112-1.267-1.681c-0.399-0.568-0.775-1.136-1.128-1.704c-0.369-0.583-0.707-1.167-1.013-1.75
			c-0.338-0.599-0.645-1.198-0.921-1.796c-0.276-0.614-0.537-1.229-0.783-1.842c-0.23-0.614-0.445-1.236-0.645-1.865
			c-0.199-0.629-0.375-1.259-0.529-1.888c-0.138-0.645-0.261-1.297-0.369-1.957c-0.092-0.553-0.161-1.067-0.207-1.543
			c-0.062-0.476-0.092-0.905-0.092-1.289c-0.031-0.752,0.016-1.351,0.138-1.796c0.123-0.46,0.314-0.774,0.576-0.944
			c0.184-0.123,0.407-0.176,0.668-0.161c0.031,0,0.077,0,0.138,0C21.077,81.346,21.131,81.346,21.177,81.346z M78.882,154.225
			c-0.092,0.092-0.184,0.184-0.276,0.277c-0.092,0.092-0.169,0.184-0.23,0.275c-0.077,0.107-0.146,0.207-0.208,0.299
			c-0.062,0.094-0.107,0.186-0.138,0.277c-0.092,0.168-0.138,0.346-0.138,0.529c0,0.17,0.038,0.338,0.115,0.508
			c0.077,0.184,0.199,0.359,0.369,0.527c0.184,0.17,0.414,0.33,0.69,0.484c0.154,0.076,0.315,0.162,0.484,0.254
			c0.168,0.076,0.353,0.152,0.552,0.23c-0.123-0.107-0.222-0.23-0.299-0.369c-0.03-0.045-0.054-0.115-0.069-0.207
			c-0.031-0.063-0.046-0.131-0.046-0.207c-0.016-0.076-0.016-0.162,0-0.254c0.03-0.076,0.046-0.152,0.046-0.23
			c0.031-0.092,0.069-0.184,0.115-0.275c0.031-0.092,0.069-0.184,0.115-0.277c0.046-0.092,0.099-0.184,0.161-0.275
			c0.061-0.092,0.123-0.191,0.184-0.299c0.062-0.094,0.13-0.193,0.207-0.301s0.161-0.207,0.253-0.299
			c0.077-0.107,0.153-0.215,0.23-0.322c0.092-0.107,0.184-0.215,0.276-0.322l2.97-3.27c0.092-0.107,0.176-0.207,0.253-0.299
			c0.077-0.107,0.153-0.207,0.23-0.3c0.077-0.107,0.146-0.207,0.208-0.299c0.076-0.093,0.138-0.185,0.184-0.276
			c0.046-0.107,0.092-0.2,0.139-0.276c0.046-0.093,0.092-0.185,0.138-0.276c0.031-0.092,0.053-0.169,0.069-0.23
			c0.016-0.092,0.031-0.177,0.046-0.254c-0.077,0.107-0.154,0.216-0.23,0.323c-0.062,0.092-0.146,0.191-0.253,0.299
			c-0.092,0.107-0.192,0.208-0.3,0.299c-0.092,0.108-0.2,0.216-0.322,0.323c-0.123,0.092-0.246,0.199-0.368,0.322
			c-0.123,0.092-0.246,0.192-0.369,0.3c-0.138,0.106-0.277,0.206-0.415,0.299c-0.138,0.107-0.276,0.214-0.415,0.322l-2.533,1.797
			c-0.138,0.107-0.269,0.207-0.392,0.299c-0.123,0.107-0.253,0.199-0.391,0.277c-0.108,0.107-0.215,0.207-0.323,0.299
			C79.097,154.033,78.989,154.133,78.882,154.225z M75.335,137.438c0.553-0.568,1.075-1.189,1.566-1.865
			c-0.598,0.568-1.244,1.097-1.934,1.589c-0.353,0.23-0.722,0.46-1.105,0.69c-0.369,0.23-0.752,0.453-1.151,0.667
			c-0.384,0.215-0.783,0.422-1.198,0.622c-0.399,0.215-0.813,0.415-1.244,0.599c-0.276,0.123-0.552,0.246-0.829,0.368
			c-0.291,0.123-0.583,0.246-0.875,0.369c-0.292,0.123-0.576,0.246-0.852,0.369l-5.296,2.049c-0.276,0.107-0.561,0.223-0.852,0.345
			c-0.292,0.124-0.583,0.246-0.875,0.369c-0.276,0.107-0.553,0.223-0.829,0.346c-0.276,0.138-0.553,0.268-0.829,0.391
			c-0.277,0.123-0.553,0.254-0.829,0.392c-0.261,0.139-0.522,0.27-0.783,0.392c-0.092,0.046-0.177,0.092-0.253,0.139
			c-0.077,0.046-0.154,0.092-0.23,0.138c-0.092,0.046-0.185,0.107-0.276,0.185c-0.077,0.046-0.153,0.1-0.23,0.161
			c-0.092,0.076-0.176,0.146-0.253,0.207c-0.077,0.061-0.146,0.131-0.208,0.207c-0.076,0.062-0.146,0.131-0.207,0.208
			c-0.062,0.061-0.123,0.138-0.184,0.229c-0.046,0.077-0.092,0.161-0.138,0.254c-0.046,0.061-0.077,0.138-0.092,0.23
			c-0.03,0.076-0.046,0.16-0.046,0.253c-0.015,0.077-0.015,0.161,0,0.253c0,0.169,0.054,0.346,0.162,0.529
			c0.092,0.185,0.238,0.376,0.438,0.576c0.199,0.184,0.46,0.368,0.783,0.553c0.154,0.092,0.33,0.191,0.53,0.299
			c0.168,0.093,0.368,0.185,0.598,0.277c0.23,0.091,0.469,0.19,0.714,0.299c0.261,0.092,0.545,0.185,0.852,0.276
			c0.2,0.062,0.407,0.123,0.622,0.184c0.215,0.062,0.438,0.123,0.668,0.185c0.246,0.062,0.491,0.123,0.736,0.185
			c0.507,0.123,1.021,0.238,1.543,0.345c0.506,0.092,1.013,0.176,1.519,0.254c-0.23-0.063-0.453-0.115-0.667-0.162
			c-0.215-0.076-0.422-0.139-0.622-0.184c-0.215-0.078-0.422-0.146-0.622-0.207c-0.184-0.078-0.361-0.147-0.529-0.208
			c-0.184-0.077-0.353-0.146-0.507-0.208c-0.153-0.077-0.292-0.146-0.414-0.207c-0.138-0.076-0.276-0.146-0.415-0.207
			c-0.107-0.062-0.215-0.139-0.323-0.23c-0.091-0.062-0.184-0.123-0.276-0.184c-0.077-0.077-0.161-0.146-0.253-0.208
			c-0.062-0.076-0.123-0.146-0.185-0.207c-0.045-0.076-0.092-0.153-0.138-0.23c-0.046-0.062-0.092-0.13-0.138-0.207
			c-0.031-0.062-0.054-0.13-0.069-0.207c-0.015-0.062-0.03-0.131-0.046-0.207c0-0.062,0-0.123,0-0.185s0-0.131,0-0.207
			c0.016-0.062,0.031-0.123,0.046-0.185c0.015-0.061,0.039-0.131,0.069-0.207c0.03-0.046,0.061-0.107,0.092-0.184
			c0.03-0.047,0.069-0.101,0.115-0.162s0.084-0.122,0.116-0.184c0.045-0.047,0.091-0.1,0.138-0.162
			c0.046-0.061,0.1-0.114,0.161-0.16c0.062-0.047,0.115-0.093,0.161-0.139c0.046-0.062,0.108-0.115,0.184-0.161l0.162-0.138
			l0.713-0.461l6.631-3.293c0.23-0.107,0.461-0.222,0.691-0.346c0.215-0.123,0.43-0.237,0.645-0.346
			c0.23-0.122,0.453-0.253,0.668-0.391c0.215-0.123,0.43-0.253,0.645-0.392c0.23-0.123,0.453-0.253,0.668-0.392
			c0.215-0.138,0.422-0.276,0.622-0.414c0.629-0.43,1.236-0.883,1.819-1.359C74.223,138.536,74.799,138.007,75.335,137.438z
			 M282.046,75.428c0.122-0.107,0.245-0.199,0.368-0.276c0.123-0.092,0.245-0.176,0.368-0.253c0.123-0.077,0.238-0.146,0.346-0.207
			c0.107-0.077,0.23-0.138,0.368-0.185c0.092-0.061,0.2-0.123,0.322-0.184c0.092-0.046,0.192-0.084,0.3-0.115
			c0.107-0.046,0.208-0.077,0.299-0.092c0.093-0.031,0.185-0.055,0.276-0.07c0.077,0,0.146,0,0.208,0c0.061,0,0.122,0,0.184,0
			c0.047,0.015,0.085,0.031,0.115,0.046c0.169,0.031,0.322,0.1,0.461,0.208c0.123,0.092,0.237,0.222,0.345,0.392
			c0.047,0.092,0.085,0.192,0.115,0.299c0.047,0.107,0.085,0.222,0.115,0.345c0.031,0.123,0.062,0.261,0.092,0.414
			c0.016,0.138,0.031,0.292,0.047,0.46c0.015,0.169,0.022,0.353,0.022,0.553c0,0.2,0,0.406,0,0.621c0,0.2-0.015,0.422-0.046,0.668
			c-0.016,0.246-0.03,0.499-0.046,0.76c-0.031,0.261-0.069,0.538-0.115,0.829c-0.047,0.292-0.084,0.599-0.115,0.921
			c-0.139,0.783-0.291,1.566-0.46,2.349c-0.185,0.768-0.384,1.535-0.599,2.302c-0.215,0.752-0.461,1.512-0.737,2.28
			c-0.276,0.752-0.568,1.497-0.875,2.234c-0.338,0.737-0.683,1.466-1.036,2.188c-0.385,0.722-0.775,1.435-1.175,2.141
			c-0.414,0.706-0.852,1.405-1.313,2.095c-0.476,0.707-0.959,1.39-1.451,2.05c-0.521,0.66-1.059,1.32-1.611,1.98
			s-1.136,1.305-1.75,1.934c-0.599,0.629-1.22,1.259-1.865,1.888c-0.645,0.599-1.312,1.19-2.003,1.773l-8.935,0.668
			c0.736-0.583,1.451-1.182,2.142-1.796c0.706-0.614,1.382-1.243,2.026-1.888c0.645-0.63,1.273-1.282,1.889-1.958
			c0.599-0.675,1.182-1.358,1.749-2.049c0.568-0.706,1.105-1.42,1.612-2.142c0.506-0.722,0.998-1.443,1.474-2.165
			c0.445-0.752,0.875-1.497,1.29-2.233c0.413-0.768,0.798-1.535,1.151-2.303c0.353-0.768,0.683-1.543,0.989-2.326
			c0.308-0.783,0.584-1.566,0.829-2.349c0.23-0.798,0.446-1.589,0.645-2.372c0.185-0.798,0.338-1.589,0.461-2.372
			c0.031-0.246,0.062-0.476,0.092-0.691c0.047-0.23,0.077-0.437,0.093-0.621c0.03-0.215,0.054-0.415,0.068-0.599
			c0.016-0.2,0.031-0.383,0.047-0.553l2.44-2.026c0.123-0.123,0.253-0.23,0.392-0.322C281.792,75.589,281.923,75.504,282.046,75.428
			z M271.038,81.346c0.063,0,0.108,0,0.139,0c0.262-0.015,0.484,0.038,0.668,0.161c0.261,0.169,0.453,0.483,0.576,0.944
			c0.122,0.445,0.169,1.044,0.138,1.796c0,0.384-0.031,0.813-0.092,1.289c-0.046,0.476-0.115,0.991-0.207,1.543
			c-0.108,0.66-0.23,1.313-0.368,1.957c-0.154,0.629-0.331,1.259-0.53,1.888c-0.2,0.629-0.414,1.251-0.646,1.865
			c-0.245,0.614-0.506,1.228-0.782,1.842c-0.276,0.598-0.584,1.197-0.921,1.796c-0.308,0.583-0.646,1.167-1.013,1.75
			c-0.354,0.568-0.729,1.136-1.129,1.704c-0.415,0.568-0.837,1.128-1.267,1.681c-0.43,0.538-0.875,1.083-1.335,1.635
			c-0.477,0.537-0.96,1.067-1.451,1.588c-0.507,0.522-1.028,1.037-1.565,1.543c-0.538,0.506-1.091,1.014-1.658,1.52
			c-0.262,0.138-0.545,0.284-0.853,0.438c-0.307,0.153-0.621,0.307-0.943,0.46l-7.922,3.247l-10.223,3.178
			c-0.308,0.077-0.615,0.153-0.922,0.23l-0.898,0.207c-0.307,0.062-0.606,0.13-0.897,0.207c-0.291,0.062-0.591,0.123-0.898,0.185
			c-0.291,0.061-0.583,0.115-0.875,0.161c-0.275,0.062-0.561,0.115-0.852,0.162c-0.276,0.062-0.553,0.115-0.829,0.161
			s-0.545,0.084-0.807,0.115c-0.26,0.031-0.521,0.062-0.782,0.092c-0.246,0.031-0.491,0.054-0.736,0.069
			c-0.23,0.031-0.469,0.054-0.715,0.069c-0.229,0.015-0.452,0.031-0.667,0.046c0.63,0.062,1.259,0.115,1.888,0.162
			c0.614,0.031,1.229,0.046,1.842,0.046h0.76c0.323,0,0.645,0,0.968,0c0.307,0,0.622-0.008,0.944-0.023
			c0.307-0.015,0.614-0.031,0.921-0.046c0.583-0.031,1.159-0.077,1.727-0.139c0.584-0.076,1.151-0.146,1.704-0.207
			c0.553-0.077,1.098-0.169,1.635-0.277c0.553-0.092,1.091-0.192,1.612-0.299c0.368-0.077,0.722-0.162,1.06-0.254
			c0.354-0.077,0.698-0.161,1.036-0.253c0.337-0.092,0.675-0.184,1.013-0.276c0.354-0.077,0.699-0.162,1.036-0.253
			c0.322-0.108,0.652-0.215,0.99-0.323c0.322-0.092,0.652-0.2,0.99-0.322c0.322-0.092,0.645-0.2,0.968-0.323
			c0.322-0.107,0.645-0.215,0.967-0.323c0.322-0.106,0.637-0.222,0.944-0.345l2.809-1.059c0.139-0.045,0.3-0.107,0.483-0.184
			c0.185-0.062,0.392-0.131,0.622-0.208s0.476-0.153,0.737-0.23c0.261-0.092,0.545-0.177,0.852-0.253l4.076-1.105
			c0.261-0.061,0.514-0.123,0.76-0.185c0.245-0.061,0.499-0.115,0.76-0.161c0.245-0.045,0.498-0.092,0.76-0.138
			c0.245-0.062,0.499-0.115,0.76-0.162c0.261-0.046,0.514-0.084,0.76-0.115c0.23-0.03,0.477-0.061,0.736-0.091
			c0.231-0.046,0.469-0.077,0.714-0.092c0.246-0.031,0.484-0.054,0.715-0.069c0.229-0.016,0.46-0.031,0.69-0.046h0.668
			c0.199,0,0.398,0,0.599,0c0.199,0,0.391,0.015,0.575,0.046c0.553,0.062,1.037,0.169,1.451,0.322
			c0.414,0.169,0.729,0.399,0.944,0.691c0.214,0.292,0.322,0.652,0.322,1.082c-0.016,0.43-0.169,0.945-0.461,1.543
			c-0.093,0.184-0.184,0.36-0.276,0.529c-0.092,0.185-0.199,0.369-0.322,0.553c-0.107,0.185-0.23,0.376-0.368,0.576
			c-0.123,0.185-0.253,0.376-0.393,0.576c-0.153,0.2-0.307,0.399-0.46,0.599c-0.153,0.2-0.307,0.399-0.46,0.599
			c-0.169,0.199-0.338,0.399-0.507,0.599c-0.169,0.215-0.346,0.422-0.53,0.622c-0.168,0.2-0.346,0.407-0.529,0.622
			c-0.185,0.185-0.368,0.384-0.552,0.599c-0.2,0.184-0.385,0.375-0.554,0.576c-0.199,0.199-0.398,0.399-0.599,0.599
			c-0.169,0.184-0.353,0.368-0.553,0.552c-0.199,0.184-0.391,0.369-0.575,0.553c-0.185,0.184-0.376,0.36-0.575,0.529
			c-0.185,0.169-0.361,0.338-0.529,0.507c-0.2,0.153-0.385,0.314-0.554,0.483c-0.184,0.138-0.36,0.284-0.529,0.438
			c-0.169,0.138-0.338,0.276-0.507,0.414c-0.153,0.123-0.307,0.246-0.46,0.368c-0.153,0.124-0.308,0.23-0.461,0.323
			c-0.139,0.107-0.269,0.208-0.392,0.3c-0.122,0.077-0.23,0.146-0.322,0.207c-0.107,0.061-0.215,0.123-0.322,0.184
			c0.307-0.123,0.606-0.246,0.897-0.368c0.276-0.123,0.561-0.246,0.853-0.369c0.276-0.123,0.545-0.246,0.806-0.368
			c0.291-0.139,0.575-0.277,0.852-0.415c0.262-0.139,0.53-0.276,0.807-0.415c0.261-0.138,0.515-0.276,0.76-0.414
			c0.261-0.153,0.515-0.299,0.76-0.438c0.246-0.153,0.491-0.308,0.737-0.461c0.245-0.153,0.491-0.299,0.736-0.438
			c0.706-0.476,1.397-0.959,2.072-1.45c0.66-0.522,1.298-1.051,1.912-1.589c0.645-0.552,1.266-1.12,1.865-1.704
			c0.199-0.215,0.398-0.422,0.598-0.622c0.2-0.2,0.4-0.407,0.6-0.622c0.184-0.215,0.376-0.429,0.575-0.645
			c0.199-0.215,0.398-0.43,0.599-0.645c0.199-0.23,0.391-0.453,0.575-0.667c0.2-0.23,0.392-0.468,0.576-0.714
			c0.199-0.23,0.392-0.46,0.575-0.691c0.185-0.246,0.354-0.476,0.507-0.691c0.153-0.215,0.292-0.422,0.415-0.621
			c0.138-0.215,0.253-0.407,0.345-0.576c0.216-0.399,0.361-0.752,0.438-1.06c0.076-0.322,0.091-0.614,0.046-0.875l4.236-0.207
			c0.138,0.015,0.269,0.022,0.392,0.022c0.123,0.016,0.237,0.031,0.346,0.046c0.138,0.016,0.261,0.031,0.368,0.046
			c0.107,0.031,0.215,0.054,0.322,0.069c0.107,0.031,0.208,0.062,0.299,0.092c0.108,0.031,0.208,0.062,0.3,0.092
			c0.077,0.046,0.153,0.092,0.23,0.138c0.092,0.031,0.177,0.077,0.254,0.139c0.138,0.107,0.253,0.23,0.345,0.369
			c0.046,0.046,0.092,0.115,0.138,0.207c0.031,0.077,0.054,0.153,0.069,0.23c0.031,0.076,0.046,0.168,0.046,0.276
			c0.016,0.092,0.023,0.184,0.023,0.276c0,0.107-0.008,0.215-0.023,0.322c-0.03,0.107-0.062,0.223-0.092,0.346
			s-0.069,0.253-0.115,0.392c-0.062,0.123-0.123,0.253-0.185,0.391c-0.076,0.153-0.153,0.307-0.23,0.46
			c-0.091,0.154-0.19,0.315-0.299,0.484c-0.092,0.153-0.199,0.322-0.322,0.507c-0.139,0.184-0.269,0.368-0.392,0.552
			c-0.69,0.814-1.405,1.612-2.141,2.395c-0.723,0.783-1.482,1.535-2.28,2.257c-0.783,0.721-1.597,1.42-2.44,2.096
			c-0.829,0.66-1.689,1.305-2.579,1.934c-0.891,0.614-1.804,1.205-2.74,1.773c-0.952,0.568-1.927,1.113-2.925,1.635
			c-0.998,0.492-2.019,0.975-3.063,1.451c-1.059,0.445-2.134,0.867-3.224,1.266c-0.292-0.153-0.637-0.292-1.036-0.415
			c-0.199-0.062-0.407-0.123-0.622-0.184c-0.245-0.046-0.483-0.092-0.714-0.138c-0.261-0.031-0.529-0.062-0.806-0.092
			c-0.261-0.031-0.529-0.062-0.806-0.092c-0.276-0.016-0.561-0.039-0.852-0.069c-0.292-0.015-0.591-0.023-0.898-0.023l-10.132,0.322
			l-7.184,0.483c-0.415,0.031-0.83,0.046-1.244,0.046c-0.414,0.031-0.829,0.054-1.243,0.069c-0.399,0.015-0.807,0.031-1.221,0.046
			l-3.661,0.023c-0.614,0-1.213-0.008-1.796-0.023c-0.599-0.031-1.183-0.069-1.75-0.115c-0.584-0.046-1.151-0.1-1.704-0.162
			c-0.568-0.061-1.121-0.138-1.657-0.23c-0.522-0.092-1.029-0.184-1.521-0.276c-0.507-0.123-0.998-0.253-1.474-0.392
			c0.722,0.307,1.474,0.576,2.256,0.806c0.415,0.123,0.838,0.238,1.267,0.345c0.431,0.107,0.868,0.208,1.313,0.3
			c0.307,0.061,0.613,0.123,0.92,0.185c0.308,0.045,0.614,0.1,0.922,0.161c0.307,0.046,0.614,0.084,0.921,0.115
			c0.322,0.046,0.645,0.092,0.967,0.138c0.322,0.046,0.646,0.085,0.967,0.115c0.323,0.031,0.646,0.062,0.968,0.092
			c0.322,0.031,0.652,0.054,0.99,0.069c0.338,0.031,0.668,0.054,0.99,0.069c0.338,0.031,0.676,0.054,1.013,0.069l16.441,0.438
			c0.245,0.03,0.477,0.054,0.69,0.069c0.23,0.015,0.453,0.038,0.668,0.069c0.215,0.015,0.43,0.038,0.645,0.069
			c0.308,0.046,0.599,0.092,0.876,0.138c0.26,0.062,0.521,0.123,0.782,0.184c0.476,0.123,0.883,0.277,1.22,0.46
			c0.338,0.169,0.592,0.369,0.761,0.599c0.168,0.246,0.253,0.522,0.253,0.829c-0.016,0.261-0.076,0.53-0.185,0.806
			c-0.122,0.292-0.283,0.583-0.483,0.875c-0.107,0.153-0.223,0.307-0.346,0.46c-0.122,0.138-0.253,0.284-0.391,0.438
			c-0.139,0.138-0.284,0.284-0.438,0.438c-0.17,0.153-0.33,0.299-0.483,0.438c-0.169,0.153-0.346,0.307-0.53,0.46
			c-0.185,0.138-0.368,0.284-0.553,0.438c-0.184,0.138-0.383,0.284-0.599,0.438c-0.185,0.138-0.383,0.284-0.598,0.438
			c-0.2,0.138-0.4,0.269-0.6,0.391c-0.214,0.139-0.43,0.277-0.645,0.415c-0.2,0.123-0.407,0.246-0.621,0.368
			c-0.2,0.138-0.415,0.269-0.646,0.392c-0.199,0.107-0.399,0.222-0.599,0.345c-0.215,0.107-0.422,0.215-0.622,0.322
			c-0.184,0.107-0.376,0.208-0.576,0.3c-0.198,0.107-0.391,0.207-0.575,0.299c-0.169,0.092-0.337,0.176-0.507,0.253
			c-0.184,0.077-0.353,0.146-0.506,0.208l-0.414,0.184c-0.123,0.046-0.238,0.092-0.346,0.138c0.537-0.123,1.066-0.253,1.589-0.392
			c0.521-0.153,1.036-0.307,1.543-0.46c0.521-0.169,1.036-0.353,1.543-0.553c0.521-0.199,1.027-0.406,1.52-0.622
			c0.491-0.23,0.982-0.46,1.474-0.69c0.491-0.246,0.967-0.499,1.427-0.76c0.477-0.261,0.937-0.537,1.383-0.829
			c0.46-0.291,0.913-0.598,1.357-0.921c0.231-0.169,0.446-0.337,0.645-0.506c0.216-0.154,0.423-0.307,0.623-0.46
			c0.199-0.169,0.398-0.323,0.598-0.461c0.538-0.46,1.014-0.897,1.428-1.313c0.415-0.399,0.761-0.775,1.036-1.128
			c0.277-0.353,0.491-0.683,0.645-0.99s0.238-0.583,0.254-0.829c0.016-0.276-0.022-0.507-0.115-0.69v-0.023l1.957,0.138
			c0.153,0.015,0.308,0.031,0.461,0.046c0.138,0.031,0.292,0.054,0.46,0.069c0.139,0.031,0.284,0.054,0.438,0.069
			c0.138,0.031,0.275,0.062,0.414,0.092c0.138,0.015,0.269,0.046,0.392,0.092c0.138,0.03,0.269,0.069,0.391,0.115
			c0.108,0.031,0.223,0.069,0.346,0.115c0.108,0.046,0.215,0.1,0.323,0.161c0.092,0.046,0.184,0.092,0.276,0.138
			c0.091,0.062,0.176,0.124,0.253,0.185c0.153,0.123,0.284,0.261,0.392,0.415c0.092,0.153,0.161,0.314,0.207,0.484
			c0,0.092,0.008,0.192,0.023,0.299c-0.016,0.092-0.023,0.192-0.023,0.299c-0.016,0.108-0.046,0.215-0.092,0.323
			c-0.031,0.107-0.078,0.23-0.139,0.369c-0.062,0.107-0.131,0.23-0.207,0.368c-0.077,0.123-0.169,0.261-0.276,0.415
			c-0.107,0.138-0.223,0.284-0.345,0.438c-0.123,0.153-0.254,0.307-0.393,0.461c-0.153,0.153-0.314,0.314-0.483,0.483
			c-0.169,0.184-0.36,0.36-0.575,0.529c-0.185,0.185-0.392,0.377-0.622,0.576c-0.245,0.185-0.491,0.384-0.736,0.599
			c-0.246,0.2-0.515,0.407-0.807,0.622c-0.276,0.214-0.575,0.445-0.897,0.69c-0.706,0.491-1.428,0.967-2.165,1.428
			c-0.384,0.23-0.768,0.453-1.15,0.667c-0.385,0.215-0.769,0.422-1.151,0.622c-0.277,0.123-0.546,0.253-0.807,0.392
			c-0.276,0.123-0.545,0.246-0.806,0.369c-0.276,0.107-0.546,0.222-0.806,0.345c-0.277,0.123-0.561,0.238-0.853,0.346
			c-0.261,0.107-0.537,0.215-0.829,0.322c-0.276,0.093-0.553,0.185-0.829,0.276c-0.291,0.107-0.575,0.207-0.852,0.3
			c-0.307,0.092-0.599,0.185-0.875,0.275c-0.292,0.077-0.583,0.162-0.875,0.254c-0.292,0.062-0.584,0.13-0.875,0.207
			c-0.292,0.092-0.583,0.169-0.875,0.23c-0.292,0.076-0.592,0.146-0.898,0.207c-0.291,0.062-0.583,0.123-0.875,0.185
			s-0.591,0.122-0.898,0.184c-0.307,0.047-0.605,0.092-0.897,0.139c-0.307,0.046-0.606,0.1-0.898,0.161
			c-0.307,0.03-0.613,0.069-0.921,0.115c-0.291,0.046-0.591,0.084-0.897,0.115c-0.308,0.03-0.606,0.061-0.898,0.092
			c-0.307,0.03-0.606,0.062-0.898,0.093c-0.307,0.03-0.613,0.053-0.92,0.068c-0.308,0.016-0.607,0.038-0.898,0.069
			c-0.308,0-0.606,0.016-0.898,0.046c-0.291,0.015-0.591,0.022-0.897,0.022l-2.694,0.023c-0.276-0.016-0.561-0.023-0.852-0.023
			c-0.292,0-0.584-0.008-0.876-0.022c-0.291-0.016-0.575-0.03-0.852-0.046l3.178,2.003c0.123,0.093,0.254,0.185,0.392,0.276
			s0.269,0.185,0.392,0.276c0.122,0.092,0.245,0.185,0.368,0.276c0.107,0.107,0.215,0.207,0.322,0.299
			c0.107,0.108,0.207,0.2,0.3,0.276c0.092,0.107,0.184,0.215,0.276,0.322c0.076,0.093,0.153,0.185,0.229,0.277
			c0.062,0.106,0.123,0.215,0.185,0.322c0.062,0.092,0.107,0.184,0.138,0.276c0.046,0.107,0.077,0.215,0.093,0.322
			c0.046,0.199,0.046,0.399,0,0.599c-0.031,0.199-0.107,0.406-0.23,0.621c-0.139,0.199-0.33,0.398-0.576,0.598
			c-0.229,0.201-0.521,0.4-0.875,0.6c-0.168,0.107-0.36,0.207-0.575,0.299c-0.215,0.094-0.438,0.193-0.668,0.301
			c-0.245,0.092-0.499,0.184-0.76,0.275c-0.276,0.107-0.576,0.207-0.898,0.299c-0.199,0.063-0.414,0.131-0.645,0.207
			c-0.215,0.063-0.445,0.123-0.69,0.186c-0.246,0.061-0.491,0.121-0.737,0.184c-0.937,0.215-1.856,0.406-2.764,0.576
			c-0.92,0.168-1.834,0.307-2.74,0.414c-0.782,0.092-1.573,0.162-2.371,0.207c-0.798,0.063-1.589,0.092-2.371,0.092l-0.6-0.023
			c-0.875-0.014-1.758-0.053-2.647-0.113c-0.875-0.078-1.758-0.186-2.648-0.324c-0.875-0.121-1.765-0.275-2.671-0.459
			c-0.89-0.201-1.788-0.424-2.694-0.668c0.246,0.275,0.483,0.545,0.714,0.805c0.215,0.246,0.415,0.477,0.6,0.691
			c0.353,0.43,0.629,0.814,0.828,1.15c0.185,0.324,0.276,0.615,0.276,0.877c0,0.26-0.107,0.49-0.322,0.689
			c-0.185,0.184-0.438,0.354-0.76,0.508c-0.322,0.123-0.691,0.223-1.105,0.299c-0.199,0.045-0.414,0.084-0.645,0.115
			c-0.23,0.016-0.469,0.039-0.715,0.068c-0.153,0-0.313,0.008-0.482,0.023c-0.169,0-0.331,0-0.484,0h-0.621
			c-0.292-0.016-0.583-0.039-0.875-0.068c-0.308,0-0.606-0.023-0.898-0.07c-0.229-0.016-0.445-0.037-0.645-0.068l-5.25-0.898
			l-3.892-1.014c-0.307-0.107-0.606-0.207-0.897-0.299c-0.307-0.092-0.6-0.184-0.876-0.275c-0.291-0.107-0.567-0.217-0.828-0.324
			c-0.23-0.076-0.453-0.16-0.668-0.252c-6.079,4.436-11.874,6.248-17.385,5.434c8.289-3.346,13.247-7.76,14.874-13.24
			c7.108-2.058,10.885-6.931,11.33-14.622c0.828-0.107,1.896-0.652,3.2-1.635c0.431-0.292,0.783-0.583,1.06-0.875
			s0.545-0.584,0.806-0.875c0.507-0.599,0.998-1.206,1.474-1.819c0.445-0.614,0.867-1.235,1.267-1.865
			c0.384-0.629,0.729-1.274,1.036-1.934c0.308-0.66,0.568-1.32,0.783-1.98c0.215-0.675,0.384-1.358,0.506-2.049
			c0.107-0.691,0.169-1.389,0.185-2.095c0-0.722-0.061-1.443-0.185-2.165l-0.69-3.293c-0.016-0.123-0.022-0.245-0.022-0.369
			c-0.031-0.107-0.047-0.23-0.047-0.368c-0.015-0.108-0.022-0.215-0.022-0.323c-0.015-0.123-0.015-0.238,0-0.345
			c0-0.107,0.008-0.215,0.022-0.322c0-0.108,0.016-0.215,0.047-0.322c0.015-0.108,0.038-0.215,0.068-0.323
			c0.047-0.092,0.093-0.192,0.139-0.299c0.046-0.092,0.092-0.192,0.138-0.299c0.062-0.092,0.123-0.192,0.185-0.3
			c0.077-0.092,0.161-0.184,0.253-0.276c0.077-0.092,0.169-0.184,0.276-0.276c0.093-0.107,0.199-0.207,0.322-0.299
			c0.108-0.092,0.23-0.185,0.368-0.277c0.124-0.092,0.27-0.184,0.438-0.276c0.139-0.092,0.293-0.185,0.461-0.276
			c0.169-0.077,0.353-0.162,0.553-0.254c0.2-0.092,0.406-0.184,0.622-0.276c0.199-0.077,0.414-0.161,0.645-0.253
			s0.476-0.177,0.736-0.253c0.262-0.092,0.53-0.184,0.806-0.276c0.277-0.092,0.568-0.176,0.876-0.253l1.98-0.53
			c0.444-0.123,0.882-0.238,1.313-0.345c0.43-0.123,0.867-0.246,1.312-0.369c0.431-0.123,0.86-0.246,1.29-0.368
			c0.445-0.123,0.883-0.261,1.313-0.415c0.43-0.139,0.852-0.277,1.267-0.415c0.43-0.138,0.859-0.284,1.289-0.438
			c0.415-0.154,0.837-0.307,1.267-0.46s0.852-0.315,1.267-0.483c0.43-0.169,0.852-0.331,1.267-0.484
			c0.414-0.169,0.829-0.337,1.243-0.507c0.43-0.168,0.845-0.345,1.244-0.529c0.414-0.169,0.829-0.345,1.243-0.53
			c0.384-0.185,0.783-0.368,1.197-0.553c0.399-0.199,0.807-0.383,1.22-0.553c0.4-0.199,0.799-0.399,1.198-0.599
			c0.384-0.184,0.775-0.376,1.174-0.576c0.384-0.184,0.769-0.384,1.152-0.598c0.383-0.2,0.768-0.4,1.151-0.599
			c0.383-0.2,0.759-0.399,1.128-0.599c0.384-0.215,0.759-0.422,1.128-0.622c0.384-0.2,0.752-0.407,1.105-0.622
			c0.368-0.215,0.737-0.422,1.105-0.622c0.354-0.199,0.706-0.414,1.059-0.645c0.368-0.215,0.722-0.422,1.06-0.622
			c0.338-0.215,0.683-0.422,1.036-0.622c0.322-0.215,0.66-0.438,1.013-0.668c0.338-0.199,0.669-0.406,0.99-0.622
			c0.323-0.215,0.652-0.422,0.99-0.622c0.308-0.215,0.622-0.43,0.944-0.645c0.307-0.215,0.613-0.422,0.921-0.622
			c0.308-0.215,0.606-0.43,0.898-0.645c0.308-0.199,0.606-0.399,0.898-0.598c0.291-0.215,0.583-0.43,0.874-0.646
			c0.277-0.199,0.553-0.399,0.829-0.598c0.276-0.2,0.553-0.4,0.829-0.599c0.262-0.215,0.521-0.415,0.783-0.599l2.303-1.773
			c0.245-0.185,0.483-0.361,0.714-0.53c0.23-0.168,0.46-0.33,0.69-0.483c0.215-0.153,0.43-0.308,0.645-0.461
			c0.614-0.414,1.175-0.759,1.682-1.036c0.506-0.261,0.959-0.429,1.358-0.506C270.924,81.346,270.978,81.346,271.038,81.346z
			 M217.088,137.163c-0.69-0.492-1.336-1.021-1.935-1.589c0.491,0.675,1.013,1.297,1.565,1.865c0.538,0.568,1.113,1.098,1.728,1.589
			c0.583,0.476,1.189,0.929,1.818,1.359c0.2,0.138,0.407,0.276,0.622,0.414c0.216,0.138,0.438,0.269,0.668,0.392
			c0.215,0.139,0.43,0.269,0.646,0.392c0.214,0.138,0.437,0.269,0.667,0.391c0.215,0.108,0.43,0.223,0.645,0.346
			c0.23,0.124,0.461,0.238,0.69,0.346l6.632,3.293l0.714,0.461l0.161,0.138c0.077,0.046,0.139,0.1,0.185,0.161
			c0.047,0.046,0.101,0.092,0.161,0.139c0.062,0.046,0.115,0.1,0.161,0.16c0.046,0.063,0.093,0.115,0.138,0.162
			c0.031,0.062,0.069,0.122,0.116,0.184c0.046,0.062,0.084,0.115,0.115,0.162c0.03,0.076,0.061,0.138,0.091,0.184
			c0.031,0.076,0.055,0.146,0.07,0.207c0.015,0.062,0.03,0.123,0.046,0.185c0,0.076,0,0.146,0,0.207s0,0.123,0,0.185
			c-0.016,0.076-0.031,0.146-0.046,0.207c-0.016,0.077-0.039,0.146-0.07,0.207c-0.045,0.077-0.091,0.146-0.138,0.207
			c-0.046,0.077-0.092,0.154-0.138,0.23c-0.062,0.062-0.123,0.131-0.185,0.207c-0.092,0.062-0.176,0.131-0.253,0.208
			c-0.092,0.061-0.185,0.122-0.276,0.184c-0.107,0.092-0.215,0.169-0.322,0.23c-0.139,0.062-0.277,0.131-0.415,0.207
			c-0.122,0.062-0.261,0.13-0.414,0.207c-0.153,0.062-0.322,0.131-0.507,0.208c-0.169,0.061-0.346,0.13-0.53,0.208
			c-0.198,0.061-0.406,0.129-0.621,0.207c-0.199,0.045-0.406,0.107-0.621,0.184c-0.216,0.047-0.438,0.1-0.668,0.162
			c0.506-0.078,1.013-0.162,1.52-0.254c0.521-0.107,1.036-0.223,1.542-0.345c0.246-0.062,0.492-0.123,0.738-0.185
			c0.229-0.062,0.453-0.123,0.667-0.185c0.215-0.061,0.422-0.122,0.621-0.184c0.308-0.092,0.592-0.185,0.853-0.276
			c0.246-0.108,0.483-0.208,0.715-0.299c0.229-0.093,0.429-0.185,0.598-0.277c0.2-0.107,0.376-0.207,0.529-0.299
			c0.323-0.185,0.584-0.369,0.783-0.553c0.2-0.2,0.346-0.392,0.438-0.576c0.107-0.184,0.161-0.36,0.161-0.529
			c0.016-0.092,0.016-0.176,0-0.253c0-0.093-0.016-0.177-0.046-0.253c-0.015-0.093-0.046-0.17-0.092-0.23
			c-0.046-0.093-0.093-0.177-0.138-0.254c-0.062-0.092-0.123-0.169-0.185-0.229c-0.062-0.077-0.131-0.146-0.207-0.208
			c-0.062-0.076-0.131-0.146-0.208-0.207c-0.076-0.062-0.161-0.131-0.253-0.207c-0.076-0.062-0.154-0.115-0.229-0.161
			c-0.093-0.077-0.185-0.139-0.277-0.185c-0.076-0.046-0.153-0.092-0.229-0.138c-0.078-0.047-0.162-0.093-0.254-0.139
			c-0.261-0.122-0.521-0.253-0.783-0.392c-0.276-0.138-0.552-0.269-0.828-0.392s-0.553-0.253-0.829-0.391
			c-0.277-0.123-0.553-0.238-0.829-0.346c-0.292-0.123-0.584-0.245-0.875-0.369c-0.291-0.122-0.575-0.237-0.852-0.345l-5.297-2.049
			c-0.276-0.123-0.561-0.246-0.852-0.369c-0.292-0.123-0.584-0.246-0.875-0.369c-0.276-0.123-0.553-0.246-0.83-0.368
			c-0.429-0.184-0.844-0.384-1.242-0.599c-0.415-0.2-0.814-0.407-1.197-0.622c-0.399-0.215-0.783-0.437-1.151-0.667
			C217.809,137.623,217.44,137.393,217.088,137.163z M211.055,154.57c0.076,0.107,0.153,0.215,0.23,0.322
			c0.092,0.092,0.177,0.191,0.253,0.299c0.077,0.107,0.146,0.207,0.207,0.301c0.062,0.107,0.123,0.207,0.185,0.299
			c0.061,0.092,0.115,0.184,0.161,0.275c0.047,0.094,0.084,0.186,0.115,0.277c0.046,0.092,0.084,0.184,0.115,0.275
			c0,0.078,0.015,0.154,0.046,0.23c0.016,0.092,0.016,0.178,0,0.254c0,0.076-0.015,0.145-0.046,0.207
			c-0.016,0.092-0.039,0.162-0.069,0.207c-0.077,0.139-0.177,0.262-0.299,0.369c0.199-0.078,0.383-0.154,0.553-0.23
			c0.168-0.092,0.329-0.178,0.482-0.254c0.276-0.154,0.507-0.314,0.691-0.484c0.169-0.168,0.291-0.344,0.368-0.527
			c0.077-0.17,0.115-0.338,0.115-0.508c0-0.184-0.046-0.361-0.138-0.529c-0.03-0.092-0.077-0.184-0.139-0.277
			c-0.062-0.092-0.13-0.191-0.207-0.299c-0.062-0.092-0.138-0.184-0.23-0.275c-0.092-0.094-0.185-0.186-0.276-0.277
			c-0.106-0.092-0.215-0.191-0.322-0.299c-0.107-0.092-0.215-0.191-0.322-0.299c-0.138-0.078-0.269-0.17-0.391-0.277
			c-0.124-0.092-0.254-0.191-0.393-0.299l-2.532-1.797c-0.139-0.107-0.276-0.215-0.415-0.322c-0.139-0.093-0.276-0.192-0.414-0.299
			c-0.123-0.107-0.246-0.208-0.369-0.3c-0.122-0.123-0.245-0.23-0.368-0.322c-0.123-0.107-0.229-0.215-0.322-0.323
			c-0.107-0.091-0.207-0.191-0.3-0.299c-0.107-0.107-0.192-0.207-0.253-0.299c-0.077-0.107-0.153-0.216-0.23-0.323
			c0.016,0.077,0.031,0.162,0.047,0.254c0.015,0.062,0.038,0.139,0.069,0.23c0.045,0.092,0.092,0.184,0.138,0.276
			c0.046,0.076,0.092,0.169,0.138,0.276c0.047,0.092,0.107,0.184,0.185,0.276c0.062,0.092,0.131,0.191,0.207,0.299
			c0.077,0.093,0.153,0.192,0.23,0.3c0.077,0.092,0.161,0.191,0.253,0.299l2.971,3.27
			C210.87,154.355,210.962,154.463,211.055,154.57z"/>
		<path fill-rule="evenodd" clip-rule="evenodd" fill="#1C0C11" d="M104.349,113.514c0.707,1.044,1.228,2.195,1.566,3.454
			l-0.023,0.023c-1.274,0.046-2.487,0.246-3.639,0.599c-1.151,0.353-2.241,0.844-3.269,1.473c-0.998,0.614-1.912,1.351-2.741,2.211
			c-0.829,0.844-1.535,1.788-2.118,2.833c-0.599,1.028-1.06,2.133-1.381,3.315c-0.323,1.167-0.484,2.387-0.484,3.662v0.46
			c-0.905-0.185-1.758-0.46-2.556-0.829c-0.829-0.369-1.589-0.821-2.279-1.358c-0.707-0.553-1.343-1.167-1.911-1.842
			c-0.568-0.691-1.052-1.428-1.451-2.21c-0.399-0.798-0.706-1.643-0.921-2.533c-0.215-0.875-0.322-1.789-0.322-2.74
			c0-0.292,0.007-0.576,0.023-0.853c0.016-0.291,0.046-0.567,0.092-0.829c0.031-0.261,0.077-0.529,0.138-0.806
			c0.046-0.261,0.115-0.522,0.207-0.783c0.062-0.261,0.138-0.514,0.23-0.759c0.092-0.261,0.192-0.507,0.299-0.737
			c0.123-0.246,0.246-0.483,0.368-0.713c0.107-0.246,0.238-0.483,0.392-0.714h0.023l-0.162,1.059v0.368
			c0,0.814,0.146,1.574,0.438,2.28c0.307,0.706,0.737,1.328,1.29,1.865c0.537,0.538,1.159,0.959,1.866,1.266
			c0.706,0.307,1.465,0.46,2.279,0.46c0.277,0,0.545-0.015,0.806-0.046c0.262-0.045,0.515-0.1,0.76-0.161
			c0.246-0.077,0.491-0.162,0.737-0.254c0.23-0.107,0.453-0.222,0.668-0.345c0.43-0.261,0.829-0.567,1.197-0.921
			c0.354-0.353,0.66-0.752,0.921-1.197c0.123-0.215,0.23-0.438,0.322-0.668c0.107-0.23,0.199-0.476,0.276-0.736
			c0.061-0.246,0.107-0.499,0.138-0.76c0.03-0.261,0.053-0.522,0.069-0.783c-0.016-0.276-0.039-0.544-0.069-0.806
			c-0.031-0.261-0.077-0.514-0.138-0.76c-0.077-0.261-0.169-0.507-0.276-0.737c-0.092-0.246-0.2-0.469-0.322-0.668
			c-0.261-0.445-0.568-0.845-0.921-1.197c-0.369-0.353-0.768-0.66-1.197-0.921c-0.215-0.138-0.438-0.253-0.668-0.345
			c-0.246-0.092-0.491-0.176-0.737-0.253c-0.246-0.077-0.499-0.131-0.76-0.161c-0.26-0.031-0.529-0.046-0.806-0.046
			c-0.123,0-0.246,0-0.368,0c-0.123,0.015-0.246,0.031-0.368,0.046c0.245-0.139,0.499-0.254,0.76-0.346
			c0.261-0.107,0.529-0.2,0.806-0.276c0.276-0.092,0.552-0.169,0.829-0.23c0.276-0.061,0.553-0.115,0.829-0.161
			c0.292-0.031,0.591-0.062,0.898-0.092c0.292-0.031,0.583-0.039,0.875-0.023c1.351,0,2.64,0.215,3.868,0.645
			c1.229,0.43,2.341,1.036,3.339,1.819C102.768,111.534,103.628,112.455,104.349,113.514z M115.816,109.07
			c0.261-0.107,0.529-0.2,0.806-0.276c0.276-0.092,0.552-0.169,0.829-0.23c0.276-0.061,0.561-0.115,0.852-0.161
			c0.275-0.031,0.56-0.062,0.852-0.092c0.292-0.031,0.591-0.039,0.898-0.023c1.351,0,2.647,0.215,3.891,0.645
			c1.212,0.43,2.318,1.036,3.316,1.819c0.998,0.783,1.857,1.712,2.579,2.786c0.691,1.06,1.212,2.219,1.566,3.478
			c-0.906,0.076-1.789,0.23-2.648,0.46c-0.859,0.23-1.673,0.537-2.441,0.921c-0.783,0.383-1.52,0.829-2.21,1.335
			c-0.691,0.507-1.328,1.074-1.911,1.704c-0.583,0.63-1.105,1.305-1.565,2.027c-0.476,0.721-0.875,1.481-1.198,2.279h-0.023
			c-0.122-0.291-0.253-0.575-0.391-0.852c-0.139-0.276-0.284-0.553-0.438-0.829c-0.153-0.261-0.314-0.522-0.483-0.783
			c-0.185-0.261-0.361-0.515-0.53-0.76c-0.2-0.245-0.399-0.483-0.599-0.714c-0.215-0.23-0.43-0.453-0.645-0.668l0.023-0.022
			c0.246-0.031,0.491-0.069,0.737-0.115c0.231-0.062,0.461-0.13,0.691-0.208c0.23-0.076,0.453-0.168,0.667-0.276
			c0.215-0.123,0.422-0.246,0.622-0.369c0.184-0.138,0.368-0.276,0.552-0.415c0.185-0.168,0.353-0.338,0.506-0.506
			c0.154-0.169,0.307-0.353,0.46-0.553c0.139-0.185,0.27-0.384,0.392-0.599c0.108-0.215,0.208-0.43,0.3-0.645
			c0.077-0.23,0.153-0.46,0.23-0.69c0.046-0.246,0.092-0.491,0.139-0.737c0.03-0.246,0.045-0.492,0.045-0.737
			c-0.015-0.276-0.038-0.544-0.069-0.806c-0.03-0.261-0.084-0.514-0.161-0.76c-0.062-0.261-0.146-0.507-0.253-0.737
			c-0.092-0.246-0.199-0.469-0.322-0.668c-0.261-0.445-0.568-0.845-0.921-1.197c-0.353-0.353-0.752-0.66-1.198-0.921
			c-0.214-0.138-0.437-0.253-0.667-0.345c-0.246-0.092-0.491-0.176-0.737-0.253c-0.246-0.077-0.5-0.131-0.76-0.161
			c-0.277-0.031-0.545-0.046-0.806-0.046h-0.368c-0.139,0.015-0.261,0.031-0.369,0.046h-0.023
			C115.294,109.277,115.556,109.162,115.816,109.07z M110.06,113.836h0.023l-0.092,0.345l-0.069,0.714v0.368
			c0,0.814,0.153,1.574,0.46,2.28l-0.023,0.023l-1.681-0.391l-0.023-0.023c0.077-0.292,0.161-0.583,0.253-0.875
			c0.092-0.291,0.2-0.576,0.323-0.852c0.107-0.262,0.23-0.522,0.369-0.783C109.753,114.366,109.906,114.097,110.06,113.836z
			 M140.547,109.416h-0.023c0.261-0.139,0.53-0.254,0.806-0.346c0.246-0.107,0.507-0.2,0.783-0.276
			c0.261-0.092,0.538-0.169,0.829-0.23c0.276-0.061,0.56-0.115,0.852-0.161c0.276-0.031,0.561-0.062,0.852-0.092
			c0.292-0.031,0.583-0.039,0.875-0.023c1.382,0,2.687,0.215,3.915,0.645c1.229,0.445,2.341,1.067,3.338,1.865
			c0.999,0.783,1.857,1.712,2.58,2.786c0.706,1.059,1.221,2.218,1.543,3.477v0.023c-0.859,0.107-1.689,0.292-2.488,0.553
			c-0.813,0.246-1.588,0.56-2.325,0.944c-0.736,0.384-1.435,0.829-2.095,1.336c-0.646,0.491-1.244,1.044-1.796,1.657
			c-0.568,0.614-1.067,1.267-1.497,1.958c-0.445,0.706-0.829,1.443-1.151,2.21h-0.023c-0.123-0.291-0.253-0.575-0.391-0.852
			c-0.139-0.292-0.284-0.576-0.437-0.852c-0.17-0.277-0.338-0.545-0.507-0.806c-0.184-0.262-0.376-0.515-0.576-0.76
			c-0.184-0.261-0.375-0.506-0.576-0.737c-0.214-0.245-0.43-0.476-0.645-0.69c0.215-0.062,0.43-0.115,0.645-0.162
			c0.215-0.077,0.43-0.161,0.645-0.253c0.2-0.108,0.399-0.215,0.599-0.323c0.184-0.107,0.368-0.23,0.553-0.368
			c0.169-0.138,0.338-0.285,0.506-0.438c0.154-0.153,0.308-0.314,0.461-0.483c0.138-0.169,0.269-0.345,0.392-0.53
			c0.123-0.184,0.237-0.376,0.345-0.576c0.092-0.199,0.184-0.406,0.276-0.621c0.077-0.215,0.138-0.43,0.185-0.645
			c0.045-0.23,0.084-0.461,0.114-0.691c0.031-0.23,0.046-0.46,0.046-0.691c0-0.276-0.016-0.544-0.046-0.806
			c-0.03-0.261-0.084-0.514-0.161-0.76c-0.061-0.261-0.138-0.507-0.23-0.737c-0.108-0.246-0.223-0.469-0.345-0.668
			c-0.276-0.445-0.591-0.845-0.945-1.197c-0.353-0.353-0.744-0.66-1.174-0.921c-0.214-0.138-0.437-0.253-0.667-0.345
			c-0.246-0.092-0.491-0.176-0.737-0.253c-0.26-0.077-0.521-0.131-0.783-0.161c-0.261-0.031-0.522-0.046-0.783-0.046h-0.368
			C140.792,109.384,140.67,109.4,140.547,109.416z M135.39,115.264c0,0.737,0.13,1.436,0.391,2.096v0.023l-1.612-0.3v-0.023
			c0.292-1.151,0.752-2.226,1.381-3.224h0.023l-0.092,0.345L135.39,115.264z M160.234,115.379c0.107-0.276,0.23-0.537,0.369-0.783
			c0.138-0.261,0.283-0.514,0.438-0.76l-0.162,1.427c0,0.675,0.115,1.328,0.346,1.958v0.023l-0.391-0.092l-1.151-0.138
			c0.062-0.292,0.138-0.568,0.229-0.83C160.021,115.909,160.127,115.64,160.234,115.379z M170.137,108.31
			c0.291-0.031,0.583-0.039,0.874-0.023c1.382,0,2.695,0.223,3.938,0.667c1.228,0.43,2.349,1.044,3.361,1.842
			c0.998,0.798,1.85,1.734,2.556,2.809c0.707,1.09,1.221,2.272,1.543,3.546v0.023c-0.414,0.077-0.813,0.161-1.197,0.253
			c-0.414,0.108-0.806,0.223-1.175,0.346c-0.384,0.138-0.76,0.292-1.128,0.46c-0.353,0.169-0.706,0.345-1.059,0.53
			c-0.691,0.383-1.344,0.829-1.958,1.335c-0.613,0.491-1.182,1.028-1.704,1.612c-0.537,0.599-1.013,1.236-1.427,1.911
			c-0.43,0.676-0.798,1.382-1.105,2.118h-0.023c-0.122-0.291-0.253-0.591-0.392-0.897c-0.153-0.292-0.307-0.576-0.46-0.853
			c-0.169-0.276-0.346-0.552-0.529-0.829c-0.185-0.276-0.377-0.538-0.576-0.783c-0.199-0.261-0.407-0.514-0.622-0.759
			c-0.23-0.23-0.461-0.46-0.69-0.691l0.022-0.023c0.2-0.046,0.392-0.115,0.576-0.207c0.215-0.077,0.406-0.169,0.576-0.276
			c0.184-0.092,0.368-0.192,0.552-0.299c0.169-0.123,0.33-0.253,0.484-0.392c0.169-0.138,0.322-0.276,0.461-0.414
			c0.138-0.169,0.275-0.33,0.413-0.484c0.123-0.168,0.238-0.345,0.346-0.529c0.107-0.169,0.208-0.346,0.3-0.53
			c0.092-0.199,0.168-0.399,0.23-0.599c0.076-0.2,0.138-0.407,0.184-0.622c0.047-0.215,0.085-0.43,0.115-0.645
			c0.016-0.215,0.023-0.43,0.023-0.645c0-0.276-0.016-0.544-0.047-0.806c-0.03-0.261-0.084-0.514-0.16-0.76
			c-0.077-0.261-0.162-0.507-0.254-0.737c-0.092-0.246-0.207-0.469-0.345-0.668c-0.262-0.445-0.568-0.845-0.922-1.197
			c-0.353-0.353-0.744-0.66-1.175-0.921c-0.229-0.138-0.46-0.253-0.69-0.345s-0.468-0.176-0.714-0.253
			c-0.261-0.077-0.521-0.131-0.783-0.161c-0.26-0.031-0.521-0.046-0.782-0.046h-0.369c-0.122,0.015-0.245,0.031-0.368,0.046h-0.022
			c0.261-0.139,0.522-0.254,0.782-0.346c0.262-0.107,0.53-0.2,0.807-0.276c0.261-0.092,0.537-0.169,0.829-0.23
			c0.261-0.061,0.545-0.115,0.852-0.161C169.561,108.371,169.845,108.34,170.137,108.31z M30.779,30.756
			c0.046,0.031,0.092,0.069,0.138,0.115l5.135,5.112l-4.997,4.974l-4.997-5.043c-0.061-0.061-0.115-0.123-0.161-0.184
			c-0.062-0.062-0.115-0.13-0.161-0.207c-0.046-0.062-0.077-0.138-0.092-0.23c-0.016-0.062-0.023-0.13-0.023-0.207
			c0-0.062,0-0.131,0-0.208s0.016-0.153,0.046-0.23c0.016-0.092,0.039-0.184,0.07-0.276c0.015-0.077,0.045-0.162,0.091-0.253
			c0.031-0.092,0.069-0.184,0.115-0.276c0.046-0.092,0.1-0.184,0.162-0.276c0.046-0.107,0.1-0.207,0.161-0.299
			c0.062-0.092,0.131-0.184,0.208-0.276c0.077-0.107,0.153-0.207,0.23-0.299c0.077-0.092,0.161-0.192,0.253-0.299
			c0.077-0.092,0.161-0.184,0.253-0.276c0.092-0.092,0.192-0.184,0.299-0.276c0.092-0.077,0.192-0.162,0.3-0.253
			c0.091-0.077,0.184-0.154,0.276-0.23c0.107-0.062,0.208-0.124,0.3-0.185c0.107-0.077,0.207-0.138,0.299-0.185
			c0.092-0.061,0.185-0.115,0.277-0.161c0.092-0.045,0.184-0.084,0.276-0.115c0.092-0.03,0.185-0.061,0.276-0.092
			c0.092-0.031,0.177-0.046,0.253-0.046c0.077-0.031,0.153-0.046,0.23-0.046h0.138c0.046,0,0.1,0,0.161,0
			c0.046,0,0.092,0.008,0.138,0.023c0.077,0.015,0.139,0.046,0.185,0.092C30.68,30.672,30.733,30.71,30.779,30.756z M29.835,32.737
			c-0.092,0.061-0.184,0.123-0.276,0.184l-0.277,0.23c-0.092,0.077-0.176,0.146-0.253,0.208c-0.061,0.077-0.123,0.146-0.184,0.207
			l-0.162,0.161l3.938,3.938l1.313-1.335l-3.799-3.777C30.027,32.598,29.927,32.66,29.835,32.737z M34.832,39.898h0.023
			L92.33,97.487c-1.259,0.599-2.495,1.229-3.708,1.888l-56.231-57.06L34.832,39.898z M36.19,38.563v-0.023l1.221-1.22l58.925,58.373
			c-0.583,0.246-1.167,0.499-1.75,0.76L36.19,38.563z M96.244,127.1c0.031,0.261,0.077,0.515,0.139,0.76
			c0.077,0.245,0.161,0.491,0.253,0.736c0.107,0.23,0.23,0.46,0.369,0.691c0.246,0.43,0.552,0.821,0.921,1.174
			c0.353,0.354,0.745,0.668,1.174,0.945c0.215,0.107,0.445,0.215,0.691,0.322c0.23,0.107,0.476,0.192,0.737,0.253
			c0.246,0.077,0.499,0.13,0.76,0.161c0.261,0.031,0.529,0.046,0.806,0.046c0.261,0,0.522-0.016,0.783-0.046
			c0.261-0.03,0.521-0.084,0.782-0.161c0.246-0.062,0.484-0.146,0.714-0.253c0.246-0.107,0.476-0.215,0.691-0.322
			c0.429-0.277,0.829-0.591,1.197-0.945c0.354-0.353,0.66-0.744,0.921-1.174c0.138-0.23,0.253-0.46,0.345-0.691
			c0.107-0.246,0.192-0.491,0.253-0.736c0.062-0.246,0.115-0.499,0.162-0.76c0.03-0.261,0.053-0.529,0.069-0.806
			c-0.016-0.813-0.177-1.581-0.484-2.303c-0.307-0.721-0.729-1.35-1.267-1.888c-0.537-0.522-1.167-0.937-1.888-1.244
			c-0.707-0.307-1.466-0.468-2.28-0.483l-0.368,0.023c-0.139,0-0.262,0.007-0.369,0.023h-0.023c0.261-0.123,0.522-0.238,0.783-0.346
			c0.261-0.107,0.53-0.199,0.806-0.276c0.261-0.077,0.538-0.146,0.829-0.208c0.276-0.077,0.561-0.138,0.852-0.184
			c0.276-0.031,0.568-0.062,0.875-0.092c0.292-0.031,0.583-0.039,0.875-0.023c0.952,0,1.88,0.107,2.786,0.323
			c0.891,0.214,1.735,0.529,2.533,0.944c0.798,0.399,1.542,0.883,2.233,1.451c0.676,0.568,1.291,1.212,1.843,1.935
			c0.537,0.69,0.99,1.45,1.358,2.279c0.369,0.829,0.646,1.696,0.829,2.602h-0.023c-1.212,0.092-2.378,0.33-3.5,0.713
			c-1.121,0.369-2.172,0.86-3.155,1.474c-0.982,0.614-1.873,1.343-2.671,2.188c-0.813,0.829-1.512,1.75-2.095,2.763
			c-0.583,0.998-1.044,2.064-1.381,3.201c-0.338,1.136-0.522,2.326-0.553,3.569h-0.022c-0.354-0.062-0.699-0.131-1.037-0.208
			c-0.353-0.092-0.69-0.191-1.013-0.299c-0.322-0.123-0.645-0.254-0.967-0.392c-0.322-0.153-0.629-0.308-0.921-0.461
			c-0.307-0.168-0.598-0.353-0.875-0.552c-0.276-0.199-0.553-0.407-0.829-0.622c-0.522-0.43-1.006-0.898-1.451-1.404
			c-0.23-0.277-0.444-0.545-0.645-0.806c-0.2-0.276-0.384-0.561-0.553-0.852c-0.184-0.307-0.353-0.614-0.506-0.921
			c-0.154-0.307-0.292-0.622-0.415-0.944c-0.123-0.338-0.23-0.668-0.322-0.99c-0.092-0.354-0.168-0.699-0.23-1.036
			c-0.077-0.354-0.13-0.706-0.161-1.06c-0.03-0.368-0.046-0.737-0.046-1.105c0-0.292,0.016-0.568,0.046-0.829
			c0.015-0.292,0.046-0.576,0.092-0.852c0.031-0.261,0.076-0.529,0.138-0.806c0.046-0.276,0.107-0.538,0.184-0.783
			c0.077-0.261,0.162-0.521,0.254-0.782c0.092-0.246,0.192-0.492,0.299-0.737s0.23-0.491,0.368-0.737
			c0.107-0.23,0.238-0.453,0.392-0.667l-0.162,1.404C96.174,126.57,96.198,126.839,96.244,127.1z M97.165,190.93l6.839,6.816v0.021
			l-69.656,70.67c-0.092,0.092-0.184,0.191-0.276,0.299l-0.276,0.275c-0.107,0.109-0.215,0.193-0.322,0.254
			c-0.062,0.031-0.123,0.063-0.185,0.094c-0.061,0.029-0.123,0.053-0.184,0.068c-0.077,0.014-0.154,0.031-0.23,0.045
			c-0.062,0-0.139,0-0.23,0c-0.062,0-0.131,0-0.207,0c-0.123-0.014-0.246-0.031-0.369-0.045c-0.123-0.031-0.254-0.068-0.392-0.115
			c-0.138-0.031-0.276-0.078-0.415-0.139s-0.284-0.123-0.438-0.184c-0.138-0.078-0.284-0.162-0.438-0.254
			c-0.153-0.076-0.307-0.162-0.46-0.254c-0.153-0.107-0.307-0.215-0.46-0.322s-0.3-0.221-0.438-0.346
			c-0.169-0.123-0.323-0.252-0.461-0.391c-0.153-0.139-0.307-0.285-0.46-0.438c-0.123-0.123-0.245-0.246-0.368-0.369
			c-0.107-0.123-0.215-0.252-0.323-0.391c-0.107-0.123-0.214-0.246-0.322-0.369c-0.092-0.137-0.184-0.268-0.276-0.391
			c-0.092-0.139-0.177-0.268-0.253-0.391c-0.077-0.125-0.154-0.246-0.23-0.369c-0.077-0.139-0.138-0.27-0.184-0.393
			c-0.077-0.107-0.138-0.223-0.184-0.346c-0.046-0.121-0.092-0.244-0.139-0.367c-0.03-0.107-0.061-0.223-0.091-0.346
			c-0.031-0.107-0.054-0.215-0.07-0.322c-0.03-0.107-0.046-0.207-0.046-0.299c0-0.123,0-0.238,0-0.346
			c0.016-0.107,0.046-0.199,0.092-0.277c0.031-0.092,0.069-0.176,0.115-0.252c0.046-0.092,0.092-0.17,0.139-0.23
			c0.061-0.092,0.13-0.184,0.207-0.277c0.077-0.076,0.162-0.16,0.254-0.252l70.715-70.07H97.165z M169.377,126.316
			c0.367,0.83,0.637,1.697,0.806,2.603c-0.859,0.123-1.688,0.314-2.487,0.576c-0.798,0.261-1.565,0.583-2.303,0.966
			c-0.736,0.4-1.436,0.853-2.096,1.359c-0.645,0.506-1.242,1.059-1.796,1.658c-0.553,0.614-1.052,1.274-1.496,1.98
			c-0.461,0.691-0.845,1.42-1.151,2.188h-0.023c-0.461-1.059-1.021-2.05-1.682-2.971c-0.674-0.921-1.449-1.75-2.325-2.487
			c0.261-0.031,0.507-0.069,0.737-0.115c0.245-0.061,0.483-0.13,0.713-0.207c0.23-0.077,0.453-0.169,0.669-0.276
			c0.214-0.107,0.422-0.23,0.621-0.369c0.2-0.138,0.392-0.284,0.576-0.438c0.184-0.153,0.36-0.314,0.529-0.483
			c0.153-0.185,0.3-0.368,0.438-0.553c0.138-0.199,0.269-0.399,0.392-0.599c0.123-0.215,0.23-0.438,0.322-0.668
			c0.077-0.23,0.146-0.46,0.207-0.691c0.063-0.245,0.115-0.491,0.161-0.736c0.031-0.262,0.046-0.515,0.046-0.76
			c-0.015-0.813-0.168-1.581-0.459-2.303c-0.309-0.721-0.73-1.35-1.268-1.888c-0.553-0.522-1.182-0.937-1.889-1.244
			c-0.705-0.307-1.473-0.468-2.303-0.483l-0.368,0.023c-0.123,0-0.245,0.007-0.368,0.023c0.245-0.123,0.506-0.238,0.783-0.346
			c0.261-0.107,0.529-0.199,0.806-0.276c0.261-0.077,0.53-0.146,0.806-0.208c0.292-0.077,0.584-0.138,0.875-0.184
			c0.276-0.031,0.561-0.062,0.853-0.092c0.292-0.031,0.591-0.039,0.897-0.023c0.951,0,1.881,0.115,2.786,0.345
			c0.891,0.2,1.742,0.507,2.557,0.921c0.798,0.415,1.543,0.913,2.233,1.497c0.675,0.568,1.29,1.213,1.842,1.934
			C168.555,124.697,169.008,125.472,169.377,126.316z M156.459,138.129c0.137,0.307,0.268,0.63,0.391,0.967
			c0.123,0.322,0.23,0.66,0.322,1.013c0.093,0.338,0.17,0.684,0.23,1.037v0.022c-0.891,0.107-1.758,0.292-2.602,0.553
			c-0.814,0.262-1.604,0.599-2.372,1.014c-0.768,0.384-1.489,0.837-2.165,1.358c-0.69,0.521-1.328,1.098-1.911,1.728
			c-0.583,0.613-1.112,1.273-1.589,1.979c-0.476,0.722-0.882,1.481-1.22,2.28h-0.023c-0.123-0.276-0.253-0.553-0.391-0.829
			c-0.139-0.276-0.284-0.545-0.437-0.806c-0.154-0.262-0.315-0.515-0.484-0.761c-0.169-0.261-0.345-0.506-0.53-0.736
			c-0.185-0.245-0.376-0.484-0.576-0.714c-0.199-0.23-0.406-0.453-0.621-0.668c-0.215-0.215-0.422-0.422-0.622-0.622
			c-0.245-0.199-0.476-0.391-0.691-0.575v-0.023c0.277-0.015,0.545-0.038,0.806-0.069c0.277-0.03,0.545-0.076,0.806-0.138
			c0.246-0.092,0.491-0.184,0.738-0.276c0.246-0.107,0.476-0.223,0.69-0.345c0.461-0.262,0.867-0.576,1.22-0.944
			c0.369-0.369,0.691-0.775,0.968-1.221c0.123-0.23,0.238-0.468,0.345-0.713c0.108-0.23,0.192-0.476,0.254-0.737
			c0.061-0.246,0.114-0.506,0.161-0.783c0.03-0.276,0.046-0.552,0.046-0.829c0-0.261-0.016-0.529-0.046-0.806
			c-0.046-0.276-0.1-0.537-0.161-0.783c-0.062-0.261-0.146-0.507-0.254-0.737c-0.107-0.246-0.223-0.483-0.345-0.714
			c-0.276-0.445-0.599-0.852-0.968-1.221c-0.353-0.368-0.759-0.682-1.22-0.944c-0.215-0.123-0.445-0.238-0.69-0.345
			c-0.247-0.108-0.492-0.192-0.738-0.253c-0.26-0.077-0.529-0.13-0.806-0.161c-0.261-0.031-0.529-0.046-0.806-0.046
			c-0.138-0.015-0.268-0.015-0.391,0c-0.123,0-0.246,0.016-0.369,0.046v-0.023c0.246-0.138,0.506-0.253,0.782-0.345
			c0.277-0.107,0.553-0.207,0.829-0.299c0.277-0.077,0.561-0.146,0.852-0.208c0.276-0.061,0.568-0.115,0.875-0.161
			c0.276-0.046,0.568-0.084,0.875-0.115c0.307-0.016,0.606-0.023,0.898-0.023c0.384,0,0.752,0.015,1.106,0.046
			c0.369,0.03,0.729,0.083,1.082,0.161c0.353,0.062,0.698,0.138,1.036,0.23c0.353,0.092,0.69,0.2,1.013,0.323
			c0.338,0.123,0.661,0.26,0.968,0.414c0.306,0.153,0.614,0.314,0.92,0.483c0.308,0.184,0.599,0.376,0.876,0.576
			c0.275,0.2,0.553,0.407,0.828,0.622c0.522,0.445,1.006,0.937,1.451,1.474c0.215,0.261,0.422,0.537,0.621,0.829
			c0.186,0.292,0.369,0.583,0.553,0.875C156.144,137.493,156.305,137.807,156.459,138.129z M161.916,136.863l-0.139,0.714
			l-0.023,0.368c-0.015,0.124-0.021,0.238-0.021,0.346c0,0.277,0.021,0.553,0.068,0.829c0.031,0.276,0.085,0.537,0.161,0.783
			c0.062,0.261,0.146,0.507,0.253,0.737c0.108,0.246,0.223,0.483,0.346,0.713l-2.257-0.299h-0.022c0.046-0.261,0.1-0.514,0.161-0.76
			s0.13-0.483,0.207-0.714c0.077-0.245,0.161-0.484,0.253-0.714c0.092-0.246,0.185-0.476,0.276-0.691
			c0.107-0.23,0.223-0.453,0.346-0.667c0.107-0.215,0.229-0.43,0.368-0.645H161.916z M172.14,131.152
			c0.828,0,1.635,0.084,2.418,0.253c0.782,0.153,1.543,0.384,2.279,0.691c0.706,0.307,1.382,0.675,2.027,1.105
			c0.644,0.43,1.242,0.921,1.795,1.474s1.044,1.151,1.474,1.796c0.431,0.629,0.798,1.312,1.105,2.049
			c0.307,0.706,0.537,1.458,0.69,2.257c0.169,0.783,0.254,1.589,0.254,2.417c0,0.982-0.115,1.935-0.345,2.855
			c-0.216,0.906-0.53,1.766-0.944,2.579c-0.415,0.813-0.914,1.573-1.497,2.28c-0.583,0.69-1.236,1.311-1.957,1.864
			c-0.737,0.553-1.521,1.021-2.349,1.404c-0.845,0.385-1.728,0.668-2.649,0.854h-0.022c-0.03-0.369-0.068-0.729-0.115-1.082
			c-0.046-0.369-0.106-0.723-0.185-1.061c-0.076-0.352-0.16-0.689-0.253-1.012c-0.106-0.354-0.223-0.691-0.345-1.014
			c-0.123-0.322-0.253-0.645-0.392-0.967c-0.154-0.308-0.308-0.614-0.461-0.921c-0.169-0.308-0.345-0.606-0.529-0.898
			s-0.368-0.575-0.553-0.852c-0.214-0.276-0.43-0.545-0.645-0.806c-0.23-0.262-0.461-0.515-0.69-0.761
			c-0.23-0.245-0.477-0.483-0.737-0.714c-0.246-0.23-0.507-0.452-0.782-0.668h0.022c0.23-0.046,0.46-0.106,0.691-0.184
			c0.229-0.062,0.452-0.138,0.667-0.23c0.215-0.092,0.422-0.191,0.621-0.299c0.2-0.123,0.399-0.254,0.599-0.392
			c0.185-0.138,0.361-0.284,0.53-0.438s0.33-0.322,0.483-0.507c0.153-0.169,0.292-0.354,0.415-0.553
			c0.138-0.184,0.261-0.384,0.368-0.598c0.107-0.2,0.207-0.415,0.299-0.645c0.077-0.215,0.146-0.438,0.208-0.668
			c0.046-0.246,0.092-0.483,0.138-0.714c0.016-0.245,0.031-0.499,0.046-0.76c-0.015-0.261-0.039-0.529-0.069-0.806
			c-0.03-0.276-0.084-0.537-0.16-0.783c-0.077-0.261-0.162-0.507-0.254-0.737c-0.107-0.246-0.222-0.483-0.345-0.714
			c-0.262-0.445-0.576-0.852-0.944-1.221c-0.368-0.368-0.775-0.682-1.221-0.944c-0.23-0.123-0.468-0.238-0.714-0.345
			c-0.229-0.108-0.477-0.192-0.736-0.253c-0.262-0.077-0.522-0.13-0.784-0.161c-0.276-0.031-0.552-0.046-0.828-0.046
			c-0.123-0.015-0.254-0.015-0.392,0c-0.123,0-0.238,0.016-0.345,0.046l-0.023-0.023c0.261-0.138,0.529-0.253,0.806-0.345
			c0.276-0.107,0.545-0.207,0.807-0.299c0.291-0.077,0.575-0.146,0.852-0.208c0.292-0.061,0.583-0.115,0.875-0.161
			c0.291-0.046,0.583-0.084,0.875-0.115C171.526,131.16,171.833,131.152,172.14,131.152z M148.56,124.889h0.024l-0.139,0.69
			l-0.022,0.714c0,0.277,0.015,0.545,0.046,0.806c0.031,0.246,0.084,0.499,0.161,0.76c0.062,0.23,0.146,0.468,0.253,0.713
			c0.092,0.23,0.2,0.46,0.323,0.691v0.023h-0.023c-0.353-0.107-0.706-0.192-1.059-0.253c-0.369-0.077-0.737-0.13-1.106-0.161
			c0.031-0.246,0.078-0.484,0.139-0.714c0.062-0.246,0.138-0.476,0.23-0.691c0.062-0.246,0.138-0.476,0.23-0.69
			c0.077-0.215,0.169-0.43,0.276-0.645c0.108-0.215,0.215-0.43,0.322-0.646C148.322,125.273,148.438,125.073,148.56,124.889z
			 M137.807,120.56c0.799,0.415,1.543,0.906,2.233,1.474c0.676,0.568,1.29,1.213,1.842,1.934c0.537,0.707,0.99,1.474,1.359,2.303
			c0.368,0.813,0.645,1.681,0.829,2.602h-0.023c-0.891,0.091-1.758,0.261-2.602,0.506c-0.829,0.246-1.62,0.568-2.372,0.967
			c-0.768,0.384-1.497,0.83-2.187,1.336c-0.676,0.506-1.305,1.074-1.889,1.704c-0.583,0.629-1.098,1.297-1.543,2.003
			c-0.476,0.706-0.875,1.458-1.197,2.257h-0.047c-0.444-1.059-0.997-2.042-1.657-2.948c-0.676-0.921-1.444-1.75-2.303-2.487v-0.023
			c0.276,0,0.545-0.016,0.806-0.046c0.246-0.045,0.499-0.1,0.76-0.161c0.23-0.077,0.468-0.161,0.714-0.253
			c0.23-0.107,0.46-0.222,0.69-0.346c0.415-0.261,0.806-0.568,1.174-0.921c0.354-0.368,0.66-0.767,0.921-1.197
			c0.124-0.23,0.239-0.46,0.346-0.691c0.092-0.23,0.168-0.468,0.23-0.713c0.077-0.262,0.138-0.515,0.185-0.76
			c0.016-0.261,0.023-0.529,0.023-0.806c0-0.813-0.154-1.581-0.46-2.303c-0.307-0.721-0.722-1.35-1.244-1.888
			c-0.553-0.522-1.182-0.937-1.888-1.244c-0.722-0.307-1.488-0.468-2.302-0.483l-0.369,0.023c-0.122,0-0.246,0.007-0.368,0.023
			h-0.023c0.261-0.123,0.522-0.238,0.783-0.346c0.26-0.107,0.529-0.199,0.806-0.276c0.276-0.077,0.552-0.146,0.829-0.208
			c0.276-0.077,0.561-0.138,0.852-0.184c0.292-0.031,0.583-0.062,0.875-0.092c0.292-0.031,0.583-0.039,0.875-0.023
			c0.967,0,1.896,0.115,2.786,0.345C136.141,119.838,136.993,120.146,137.807,120.56z M135.159,137.945
			c-0.015,0.124-0.023,0.238-0.023,0.346c0,0.629,0.092,1.235,0.276,1.819c0.169,0.568,0.422,1.09,0.76,1.566l-0.023,0.023
			c-0.399-0.123-0.806-0.23-1.221-0.323c-0.414-0.092-0.836-0.16-1.266-0.207v-0.022c0.046-0.261,0.1-0.514,0.161-0.76
			c0.046-0.261,0.115-0.515,0.207-0.76c0.063-0.246,0.147-0.483,0.254-0.713c0.092-0.246,0.185-0.484,0.277-0.714
			c0.107-0.23,0.223-0.46,0.345-0.691c0.123-0.215,0.253-0.43,0.392-0.645l-0.115,0.714
			C135.167,137.699,135.159,137.822,135.159,137.945z M148.537,150.218c-0.031,0.123-0.045,0.246-0.045,0.368
			c0,0.139,0,0.276,0,0.416c0,0.26,0.015,0.529,0.045,0.805c0.03,0.262,0.077,0.521,0.138,0.783c0.077,0.262,0.162,0.514,0.254,0.76
			c0.091,0.23,0.207,0.461,0.345,0.691l-0.023,0.023l-2.256-0.369h-0.023c0.061-0.262,0.123-0.514,0.184-0.76
			c0.062-0.262,0.138-0.508,0.23-0.736c0.062-0.246,0.146-0.484,0.254-0.715c0.091-0.23,0.184-0.461,0.276-0.69
			c0.108-0.23,0.223-0.453,0.345-0.668c0.123-0.215,0.246-0.43,0.369-0.645h0.023l-0.068,0.368
			C148.553,149.973,148.537,150.095,148.537,150.218z M139.764,146.396c0.737,0.614,1.39,1.305,1.958,2.072
			c0.583,0.752,1.074,1.565,1.473,2.441c0.399,0.875,0.699,1.803,0.898,2.786h-0.023c-1.305,0.123-2.548,0.393-3.73,0.807
			c-1.198,0.398-2.318,0.936-3.362,1.611c-1.06,0.66-2.019,1.436-2.879,2.326c-0.859,0.889-1.612,1.865-2.257,2.924
			c-0.645,1.059-1.159,2.195-1.543,3.408c-0.384,1.213-0.621,2.471-0.713,3.775v0.023c-0.369-0.061-0.737-0.139-1.105-0.23
			c-0.368-0.107-0.721-0.223-1.059-0.346c-0.353-0.123-0.69-0.26-1.014-0.414c-0.338-0.152-0.659-0.322-0.967-0.506
			c-0.645-0.369-1.251-0.783-1.819-1.244c-0.553-0.459-1.066-0.967-1.542-1.52c-0.477-0.553-0.89-1.143-1.244-1.773
			c-0.2-0.322-0.376-0.645-0.53-0.967s-0.299-0.66-0.438-1.014c-0.123-0.338-0.238-0.689-0.346-1.059
			c-0.092-0.354-0.168-0.715-0.23-1.082c-0.076-0.369-0.138-0.744-0.183-1.129c-0.031-0.383-0.046-0.768-0.046-1.15
			c0-0.322,0.015-0.631,0.046-0.922c0.015-0.307,0.045-0.605,0.091-0.898c0.031-0.291,0.077-0.574,0.139-0.852
			c0.061-0.291,0.138-0.576,0.23-0.852c0.077-0.277,0.162-0.553,0.253-0.828c0.107-0.277,0.223-0.539,0.346-0.783
			c0.107-0.277,0.23-0.538,0.368-0.784c0.122-0.245,0.261-0.491,0.415-0.736h0.022l-0.138,0.736
			c-0.016,0.123-0.024,0.246-0.024,0.368c-0.015,0.139-0.022,0.276-0.022,0.416c0,0.568,0.077,1.127,0.23,1.68
			c0.139,0.523,0.353,1.021,0.646,1.496c0.276,0.477,0.606,0.906,0.99,1.291c0.384,0.383,0.813,0.713,1.29,0.99
			c0.461,0.275,0.959,0.49,1.497,0.645c0.538,0.139,1.098,0.207,1.681,0.207c0.583,0,1.144-0.068,1.681-0.207
			c0.538-0.154,1.037-0.369,1.497-0.645c0.477-0.277,0.907-0.607,1.29-0.99c0.383-0.385,0.713-0.814,0.99-1.291
			c0.276-0.475,0.491-0.973,0.645-1.496c0.154-0.553,0.23-1.111,0.23-1.68c0-0.891-0.168-1.72-0.506-2.488
			c-0.323-0.768-0.776-1.435-1.359-2.003c-0.583-0.583-1.251-1.036-2.003-1.358s-1.574-0.483-2.464-0.483c-0.138,0-0.268,0-0.391,0
			c-0.139,0-0.277,0.015-0.416,0.045c0.277-0.153,0.561-0.275,0.853-0.368c0.261-0.107,0.537-0.207,0.828-0.299
			c0.307-0.092,0.607-0.169,0.898-0.23c0.307-0.077,0.614-0.139,0.921-0.185c0.292-0.046,0.598-0.084,0.921-0.114
			c0.321-0.016,0.636-0.023,0.944-0.023c1.028,0,2.026,0.115,2.994,0.346c0.951,0.229,1.857,0.567,2.716,1.013
			C138.237,145.283,139.027,145.797,139.764,146.396z M140.27,157.494c-0.138,0-0.275,0.008-0.414,0.023
			c0.276-0.152,0.568-0.283,0.875-0.391c0.307-0.123,0.607-0.23,0.898-0.322c0.307-0.094,0.622-0.17,0.944-0.23
			c0.307-0.078,0.629-0.139,0.967-0.184c0.323-0.063,0.652-0.102,0.99-0.117c0.337-0.029,0.667-0.045,0.99-0.045
			c0.937,0,1.834,0.092,2.694,0.275c0.875,0.186,1.719,0.445,2.533,0.783c0.798,0.338,1.551,0.744,2.256,1.221
			c0.707,0.49,1.367,1.037,1.98,1.635c0.6,0.613,1.144,1.273,1.635,1.98c0.477,0.721,0.883,1.48,1.221,2.279s0.6,1.635,0.783,2.51
			c0.168,0.861,0.261,1.758,0.276,2.695c-0.016,1.227-0.177,2.41-0.483,3.545c-0.308,1.121-0.76,2.18-1.359,3.178
			c-0.582,0.998-1.273,1.904-2.072,2.717c-0.813,0.799-1.711,1.49-2.693,2.072c-0.998,0.584-2.065,1.037-3.201,1.359
			c-1.136,0.307-2.326,0.469-3.569,0.484c-1.228-0.016-2.41-0.178-3.546-0.484c-1.136-0.322-2.195-0.775-3.177-1.359
			c-0.998-0.582-1.896-1.273-2.694-2.072c-0.829-0.813-1.528-1.719-2.096-2.717c-0.583-0.998-1.036-2.057-1.359-3.178
			c-0.322-1.135-0.483-2.318-0.483-3.545c0-0.322,0.015-0.645,0.045-0.969c0.016-0.322,0.047-0.637,0.092-0.943
			c0.047-0.307,0.1-0.605,0.162-0.898c0.062-0.322,0.138-0.629,0.23-0.92c0.092-0.293,0.192-0.576,0.3-0.852
			c0.092-0.309,0.2-0.592,0.322-0.854c0.124-0.291,0.253-0.568,0.392-0.828c0.153-0.277,0.307-0.537,0.46-0.783h0.023l-0.092,0.414
			c-0.015,0.123-0.03,0.254-0.046,0.393c-0.015,0.121-0.023,0.252-0.023,0.391c-0.015,0.139-0.022,0.277-0.022,0.414
			c0,0.922,0.177,1.789,0.53,2.604c0.338,0.797,0.813,1.512,1.427,2.141c0.614,0.6,1.32,1.066,2.118,1.404
			c0.798,0.354,1.674,0.529,2.625,0.529c0.614,0,1.197-0.076,1.75-0.23c0.568-0.168,1.105-0.391,1.612-0.668
			c0.491-0.291,0.944-0.637,1.358-1.035c0.4-0.414,0.752-0.875,1.059-1.383c0.277-0.49,0.5-1.02,0.668-1.588
			c0.154-0.568,0.23-1.158,0.23-1.773c0-0.613-0.076-1.205-0.23-1.773c-0.169-0.582-0.392-1.119-0.668-1.611
			c-0.307-0.506-0.659-0.959-1.059-1.357c-0.414-0.4-0.867-0.746-1.358-1.037c-0.507-0.307-1.044-0.529-1.612-0.668
			c-0.552-0.168-1.136-0.252-1.75-0.252C140.555,157.473,140.409,157.479,140.27,157.494z M170.274,149.758
			c0.553,0.936,0.975,1.941,1.267,3.015c0.292,1.061,0.445,2.182,0.461,3.363c-0.016,1.027-0.139,2.025-0.369,2.992
			c-0.245,0.984-0.591,1.912-1.036,2.787c-0.445,0.859-0.982,1.658-1.611,2.395c-0.63,0.736-1.336,1.396-2.119,1.98
			c-0.783,0.568-1.627,1.045-2.533,1.428c-0.905,0.398-1.85,0.684-2.832,0.852l-0.022-0.023c-0.077-1.135-0.262-2.232-0.553-3.293
			c-0.307-1.059-0.713-2.064-1.221-3.016c-0.49-0.967-1.074-1.865-1.75-2.693c-0.675-0.83-1.428-1.582-2.256-2.258v-0.045
			c0.261-0.031,0.514-0.078,0.76-0.139c0.229-0.076,0.46-0.162,0.689-0.254c0.246-0.092,0.477-0.199,0.691-0.322
			s0.43-0.254,0.645-0.391c0.385-0.293,0.744-0.623,1.082-0.99c0.17-0.186,0.322-0.377,0.461-0.576
			c0.123-0.199,0.246-0.414,0.369-0.645c0.123-0.215,0.229-0.438,0.322-0.668c0.076-0.246,0.152-0.484,0.229-0.713
			c0.062-0.262,0.108-0.516,0.139-0.76c0.03-0.262,0.046-0.523,0.046-0.783c-0.016-0.891-0.185-1.72-0.507-2.488
			s-0.775-1.435-1.358-2.003c-0.583-0.583-1.251-1.036-2.003-1.358c-0.769-0.322-1.589-0.483-2.464-0.483c-0.139,0-0.27,0-0.393,0
			c-0.137,0-0.268,0.015-0.391,0.045h-0.022c0.276-0.153,0.56-0.275,0.852-0.368c0.276-0.107,0.56-0.207,0.853-0.299
			c0.291-0.092,0.582-0.169,0.875-0.23c0.307-0.077,0.613-0.139,0.92-0.185c0.308-0.046,0.621-0.084,0.945-0.114
			c0.307-0.016,0.613-0.023,0.92-0.023c1.183,0,2.303,0.153,3.362,0.461c1.075,0.291,2.079,0.714,3.017,1.266
			c0.937,0.553,1.788,1.213,2.557,1.98C169.062,147.954,169.722,148.806,170.274,149.758z M122.31,125.925v0.368
			c0,0.568,0.077,1.121,0.23,1.658c0.154,0.521,0.369,1.013,0.645,1.474v0.023c-0.185-0.062-0.376-0.115-0.576-0.162
			c-0.185-0.062-0.368-0.107-0.552-0.138c-0.2-0.061-0.392-0.107-0.576-0.138c-0.2-0.031-0.399-0.062-0.599-0.092
			c0.045-0.246,0.1-0.483,0.161-0.714c0.062-0.246,0.123-0.483,0.185-0.714c0.077-0.23,0.161-0.46,0.253-0.691
			c0.092-0.215,0.185-0.438,0.277-0.667c0.107-0.215,0.214-0.422,0.322-0.622c0.122-0.215,0.246-0.422,0.368-0.622h0.023
			l-0.092,0.345L122.31,125.925z M125.004,132.81c0.307,0.169,0.599,0.354,0.875,0.553c0.277,0.2,0.552,0.407,0.829,0.622
			c0.506,0.445,0.982,0.929,1.427,1.451c0.23,0.261,0.445,0.537,0.645,0.829c0.185,0.276,0.369,0.561,0.552,0.852
			c0.169,0.292,0.331,0.599,0.484,0.921c0.153,0.322,0.292,0.645,0.414,0.968c0.107,0.322,0.215,0.659,0.323,1.012
			c0.092,0.323,0.168,0.668,0.23,1.037c-1.258,0.077-2.472,0.299-3.639,0.667c-1.166,0.368-2.248,0.868-3.246,1.497
			c-1.044,0.614-1.98,1.336-2.81,2.164c-0.844,0.829-1.581,1.758-2.21,2.786c-0.645,0.998-1.151,2.073-1.52,3.224
			c-0.384,1.152-0.622,2.363-0.714,3.639c-0.936-0.186-1.827-0.469-2.671-0.854c-0.829-0.383-1.604-0.852-2.326-1.404
			c-0.737-0.553-1.389-1.174-1.957-1.864c-0.583-0.707-1.083-1.467-1.497-2.28c-0.43-0.813-0.752-1.673-0.968-2.579
			c-0.23-0.921-0.345-1.873-0.345-2.855c0-0.291,0.008-0.583,0.023-0.875c0.031-0.276,0.061-0.552,0.092-0.828
			c0.046-0.276,0.1-0.553,0.161-0.83c0.062-0.276,0.123-0.545,0.185-0.806c0.092-0.276,0.184-0.544,0.276-0.806
			c0.077-0.245,0.176-0.499,0.299-0.76c0.107-0.246,0.23-0.483,0.369-0.714c0.123-0.246,0.253-0.483,0.391-0.714h0.023l-0.161,1.082
			v0.346c0,0.844,0.154,1.627,0.46,2.349c0.307,0.736,0.745,1.381,1.313,1.934c0.538,0.537,1.174,0.967,1.911,1.289
			c0.722,0.308,1.504,0.469,2.349,0.483c0.276-0.015,0.553-0.038,0.828-0.069c0.262-0.03,0.522-0.076,0.784-0.138
			c0.245-0.092,0.49-0.184,0.737-0.276c0.23-0.107,0.46-0.223,0.691-0.345c0.444-0.262,0.851-0.576,1.22-0.944
			c0.368-0.369,0.683-0.775,0.944-1.221c0.122-0.23,0.237-0.468,0.345-0.713c0.108-0.23,0.2-0.476,0.277-0.737
			c0.061-0.246,0.107-0.506,0.138-0.783c0.045-0.276,0.069-0.552,0.069-0.829c0-0.261-0.024-0.529-0.069-0.806
			c-0.031-0.276-0.077-0.537-0.138-0.783c-0.077-0.261-0.169-0.507-0.277-0.737c-0.107-0.246-0.223-0.483-0.345-0.714
			c-0.261-0.445-0.576-0.852-0.944-1.221c-0.369-0.368-0.775-0.682-1.22-0.944c-0.231-0.123-0.461-0.238-0.691-0.345
			c-0.247-0.108-0.492-0.192-0.737-0.253c-0.261-0.077-0.522-0.13-0.784-0.161c-0.275-0.031-0.552-0.046-0.828-0.046
			c-0.138-0.015-0.269-0.015-0.392,0c-0.123,0-0.246,0.016-0.369,0.046v-0.023c0.261-0.138,0.522-0.253,0.782-0.345
			c0.277-0.107,0.554-0.207,0.83-0.299c0.276-0.077,0.56-0.146,0.851-0.208c0.277-0.061,0.561-0.115,0.853-0.161
			c0.292-0.046,0.591-0.084,0.898-0.115c0.292-0.016,0.599-0.023,0.921-0.023c0.353,0,0.714,0.015,1.082,0.046
			c0.369,0.03,0.729,0.083,1.082,0.161c0.338,0.062,0.676,0.131,1.014,0.208c0.353,0.092,0.691,0.207,1.013,0.346
			c0.322,0.123,0.645,0.26,0.967,0.414C124.413,132.465,124.712,132.626,125.004,132.81z M111.879,178.863l-11.375,11.26h-0.023
			l-1.244-1.266l10.615-10.5C110.513,178.525,111.188,178.695,111.879,178.863z M102.691,192.311l12.619-12.641
			c1.811,0.383,3.645,0.729,5.502,1.035l-14.759,14.969l-3.362-3.34V192.311z M97.05,193.531L28.891,261.16
			c0.015,0.076,0.046,0.162,0.092,0.254c0.03,0.092,0.069,0.176,0.115,0.254c0.031,0.092,0.069,0.184,0.115,0.275
			c0.046,0.078,0.092,0.154,0.138,0.23l0.783,1.129l0.438,0.506c0.092,0.092,0.168,0.176,0.23,0.254
			c0.076,0.061,0.138,0.115,0.184,0.16l68.297-68.48L97.05,193.531z M259.825,30.572c0.092,0,0.176,0.016,0.253,0.046
			c0.093,0.031,0.185,0.062,0.276,0.092c0.092,0.031,0.185,0.07,0.276,0.115c0.092,0.046,0.192,0.1,0.299,0.161
			c0.093,0.046,0.185,0.107,0.277,0.185c0.092,0.061,0.191,0.123,0.299,0.185c0.092,0.076,0.192,0.153,0.299,0.23
			c0.093,0.092,0.185,0.176,0.276,0.253c0.107,0.092,0.208,0.184,0.3,0.276c0.093,0.092,0.185,0.185,0.276,0.276
			c0.076,0.107,0.161,0.207,0.254,0.299c0.076,0.092,0.153,0.192,0.229,0.299c0.062,0.092,0.123,0.184,0.184,0.276
			c0.063,0.092,0.123,0.192,0.185,0.299c0.047,0.092,0.093,0.184,0.139,0.276s0.092,0.185,0.138,0.276
			c0.031,0.092,0.062,0.176,0.093,0.253c0.016,0.092,0.03,0.184,0.046,0.276c0.03,0.077,0.046,0.153,0.046,0.23s0,0.146,0,0.208
			c0,0.077-0.008,0.146-0.022,0.207c-0.016,0.092-0.047,0.168-0.093,0.23c-0.031,0.077-0.076,0.146-0.138,0.207
			c-0.062,0.061-0.123,0.123-0.185,0.184l-4.997,5.043l-4.996-4.974l5.272-5.227c0.046-0.046,0.1-0.084,0.161-0.115
			c0.062-0.046,0.123-0.077,0.185-0.092c0.061-0.015,0.115-0.023,0.161-0.023s0.092,0,0.139,0h0.138
			C259.672,30.526,259.748,30.541,259.825,30.572z M259.917,32.829c-0.077-0.061-0.153-0.107-0.23-0.138
			c-0.076-0.061-0.153-0.107-0.229-0.138l-3.8,3.777l1.336,1.335l3.914-3.938c-0.062-0.077-0.146-0.161-0.254-0.253l-0.345-0.322
			c-0.062-0.061-0.123-0.123-0.185-0.184C260.048,32.921,259.979,32.875,259.917,32.829z M254.76,39.898l2.44,2.418l-56.323,57.198
			c-1.229-0.66-2.464-1.297-3.707-1.911L254.76,39.898z M253.4,38.539v0.023l-58.487,58.004c-0.584-0.276-1.167-0.537-1.75-0.783
			l59.017-58.465L253.4,38.539z M186.37,115.264c0,0.645,0.1,1.259,0.299,1.842v0.023c-0.245-0.046-0.498-0.077-0.76-0.092
			c-0.229-0.016-0.476-0.031-0.736-0.046l-0.023-0.023c0.308-1.12,0.768-2.165,1.382-3.131L186.37,115.264z M198.873,108.517
			c0.768,0.153,1.505,0.376,2.211,0.668c0.706,0.307,1.366,0.676,1.98,1.105c0.629,0.415,1.212,0.891,1.75,1.428
			c0.537,0.522,1.021,1.098,1.451,1.727c0.413,0.629,0.767,1.297,1.059,2.003s0.521,1.443,0.69,2.21
			c0.153,0.752,0.231,1.543,0.231,2.372c0,0.951-0.101,1.865-0.3,2.74c-0.23,0.89-0.545,1.735-0.944,2.533
			c-0.414,0.783-0.898,1.52-1.451,2.21c-0.567,0.676-1.205,1.29-1.91,1.842c-0.706,0.537-1.459,0.99-2.258,1.358
			c-0.813,0.369-1.665,0.645-2.556,0.829h-0.022v-0.46c0-0.338-0.008-0.676-0.023-1.014c-0.031-0.322-0.069-0.645-0.115-0.967
			c-0.046-0.337-0.107-0.66-0.184-0.967c-0.062-0.338-0.139-0.66-0.23-0.967c-0.093-0.307-0.192-0.606-0.3-0.897
			c-0.106-0.308-0.23-0.607-0.368-0.898c-0.123-0.292-0.253-0.576-0.392-0.852c-0.153-0.277-0.314-0.553-0.482-0.829
			c-0.17-0.277-0.347-0.538-0.53-0.783c-0.185-0.261-0.377-0.514-0.576-0.76s-0.407-0.476-0.621-0.691
			c-0.215-0.246-0.438-0.468-0.668-0.668l0.022-0.023c0.185-0.077,0.361-0.161,0.53-0.253c0.184-0.092,0.354-0.185,0.507-0.276
			c0.168-0.107,0.329-0.223,0.482-0.345c0.154-0.107,0.3-0.23,0.438-0.369c0.153-0.138,0.292-0.276,0.416-0.415
			c0.122-0.153,0.244-0.314,0.367-0.483c0.108-0.154,0.208-0.315,0.299-0.484c0.108-0.184,0.2-0.36,0.277-0.529
			c0.076-0.185,0.146-0.368,0.207-0.553c0.046-0.2,0.101-0.391,0.161-0.576c0.03-0.2,0.062-0.407,0.093-0.622
			c0.015-0.2,0.022-0.399,0.022-0.599c0-0.276-0.016-0.544-0.046-0.806c-0.046-0.261-0.1-0.514-0.161-0.76
			c-0.077-0.261-0.161-0.507-0.253-0.737c-0.093-0.246-0.208-0.469-0.346-0.668c-0.246-0.445-0.546-0.845-0.898-1.197
			c-0.368-0.353-0.768-0.66-1.197-0.921c-0.23-0.138-0.461-0.253-0.69-0.345c-0.23-0.092-0.469-0.176-0.714-0.253
			c-0.262-0.077-0.515-0.131-0.76-0.161c-0.276-0.031-0.546-0.046-0.807-0.046h-0.391c-0.107,0.015-0.223,0.031-0.346,0.046h-0.023
			c0.246-0.139,0.507-0.254,0.782-0.346c0.262-0.107,0.53-0.2,0.807-0.276c0.261-0.092,0.538-0.169,0.829-0.23
			c0.261-0.061,0.537-0.115,0.829-0.161c0.291-0.031,0.583-0.062,0.875-0.092c0.292-0.031,0.591-0.039,0.898-0.023
			C197.323,108.287,198.105,108.364,198.873,108.517z M194.89,125.119c0.507,0.891,0.906,1.834,1.197,2.833
			c0.276,0.998,0.415,2.042,0.415,3.132c0,0.982-0.115,1.926-0.346,2.832c-0.23,0.921-0.56,1.796-0.99,2.625
			c-0.414,0.798-0.921,1.551-1.52,2.257c-0.614,0.675-1.289,1.289-2.026,1.842c-0.737,0.538-1.535,0.982-2.395,1.334
			c-0.86,0.354-1.758,0.607-2.694,0.761c-0.031-1.075-0.176-2.111-0.438-3.109c-0.261-0.982-0.613-1.927-1.06-2.832
			c-0.445-0.906-0.982-1.743-1.612-2.51c-0.613-0.783-1.304-1.497-2.071-2.142l0.022-0.022c0.23-0.031,0.46-0.077,0.691-0.138
			c0.215-0.062,0.438-0.139,0.667-0.23c0.199-0.092,0.407-0.192,0.622-0.3c0.185-0.123,0.369-0.246,0.553-0.368
			c0.185-0.138,0.369-0.285,0.553-0.438c0.153-0.169,0.307-0.33,0.461-0.483c0.153-0.184,0.291-0.368,0.414-0.553
			c0.123-0.199,0.237-0.399,0.346-0.598c0.107-0.2,0.199-0.407,0.276-0.623c0.092-0.215,0.161-0.437,0.206-0.667
			c0.063-0.23,0.108-0.461,0.139-0.691c0.03-0.246,0.046-0.492,0.046-0.737c0-0.813-0.153-1.581-0.46-2.303
			c-0.307-0.721-0.729-1.35-1.267-1.888c-0.553-0.522-1.183-0.937-1.889-1.244s-1.474-0.468-2.303-0.483l-0.368,0.023
			c-0.123,0-0.237,0.007-0.346,0.023h-0.022c0.245-0.123,0.507-0.238,0.783-0.346c0.261-0.107,0.521-0.199,0.782-0.276
			c0.276-0.077,0.561-0.146,0.853-0.208c0.276-0.077,0.553-0.138,0.829-0.184c0.292-0.031,0.591-0.062,0.898-0.092
			c0.291-0.031,0.582-0.039,0.874-0.023c1.091,0,2.134,0.146,3.132,0.438c0.998,0.261,1.935,0.653,2.81,1.174
			c0.875,0.507,1.674,1.121,2.395,1.842C193.77,123.454,194.383,124.244,194.89,125.119z M174.58,127.054
			c0.031,0.246,0.077,0.483,0.139,0.714c0.061,0.246,0.139,0.483,0.23,0.713c0.076,0.215,0.176,0.43,0.299,0.645v0.023l-2.096-0.322
			h-0.022c0.076-0.354,0.161-0.706,0.253-1.059c0.107-0.353,0.23-0.691,0.368-1.013c0.108-0.323,0.246-0.645,0.415-0.967
			c0.153-0.307,0.322-0.606,0.507-0.898h0.022l-0.161,1.036v0.368C174.534,126.539,174.55,126.792,174.58,127.054z M186.899,192.311
			v0.023l-3.361,3.34l-14.783-15.014c1.842-0.307,3.661-0.66,5.457-1.061L186.899,192.311z M177.688,178.795
			c0.66-0.17,1.32-0.346,1.98-0.529l10.685,10.592l-1.243,1.266L177.688,178.795z M185.61,197.746l6.839-6.816L263.187,261
			c0.077,0.092,0.153,0.176,0.23,0.252l0.208,0.277c0.061,0.061,0.114,0.139,0.16,0.23c0.031,0.076,0.069,0.16,0.115,0.252
			c0.016,0.047,0.031,0.094,0.047,0.139c0,0.047,0.007,0.092,0.022,0.139c0,0.061,0,0.115,0,0.16c0,0.063,0,0.123,0,0.186
			c0,0.092-0.008,0.191-0.022,0.299c-0.031,0.107-0.054,0.215-0.069,0.322c-0.031,0.123-0.069,0.238-0.115,0.346
			c-0.046,0.123-0.093,0.246-0.138,0.367c-0.047,0.123-0.101,0.238-0.162,0.346c-0.061,0.123-0.13,0.254-0.207,0.393
			c-0.076,0.123-0.153,0.244-0.23,0.369c-0.076,0.123-0.161,0.252-0.253,0.391c-0.093,0.123-0.184,0.254-0.276,0.391
			c-0.107,0.123-0.215,0.246-0.322,0.369c-0.107,0.139-0.216,0.268-0.322,0.391c-0.123,0.123-0.246,0.246-0.369,0.369
			c-0.153,0.152-0.299,0.299-0.438,0.438c-0.153,0.139-0.307,0.268-0.46,0.391c-0.154,0.125-0.308,0.238-0.461,0.346
			s-0.307,0.215-0.46,0.322c-0.153,0.092-0.307,0.178-0.461,0.254c-0.153,0.092-0.299,0.176-0.437,0.254
			c-0.154,0.061-0.3,0.123-0.438,0.184c-0.138,0.061-0.276,0.107-0.415,0.139c-0.138,0.047-0.268,0.084-0.391,0.115
			c-0.123,0.014-0.245,0.031-0.368,0.045c-0.077,0-0.146,0-0.208,0c-0.076,0-0.153,0-0.229,0c-0.077-0.014-0.153-0.031-0.23-0.045
			c-0.063-0.016-0.123-0.039-0.185-0.068c-0.062-0.031-0.123-0.063-0.185-0.094c-0.046-0.031-0.092-0.068-0.138-0.115
			c-0.062-0.029-0.115-0.076-0.161-0.139l-70.208-71.244V197.746z M190.308,195.742l68.319,68.48c0.062-0.061,0.14-0.137,0.23-0.23
			l0.346-0.391c0.077-0.076,0.146-0.162,0.207-0.254l0.208-0.254c0.076-0.092,0.146-0.184,0.207-0.275
			c0.077-0.107,0.146-0.215,0.207-0.322c0.076-0.107,0.146-0.215,0.207-0.322s0.123-0.215,0.185-0.322
			c0.061-0.123,0.115-0.238,0.161-0.346c0.046-0.123,0.092-0.238,0.138-0.346l-68.182-67.629L190.308,195.742z"/>
	</g>
</g>
</svg>
