<?xml version="1.0" encoding="utf-8"?>
<!-- Generator: Adobe Illustrator 16.0.0, SVG Export Plug-In . SVG Version: 6.00 Build 0)  -->
<!DOCTYPE svg PUBLIC "-//W3C//DTD SVG 1.1//EN" "http://www.w3.org/Graphics/SVG/1.1/DTD/svg11.dtd">
<svg version="1.1" id="Layer_1" xmlns="http://www.w3.org/2000/svg" xmlns:xlink="http://www.w3.org/1999/xlink" x="0px" y="0px"
	 width="300px" height="300px" viewBox="0 0 300 300" enable-background="new 0 0 300 300" xml:space="preserve">
<g>
	<path fill-rule="evenodd" clip-rule="evenodd" fill="#292E33" d="M23.999,160.189h21.349v18.576h20.38v-18.576h-20.38v-20.357
		h20.38v-18.576h-20.38v18.576H23.999V160.189z M254.719,139.832v20.357h-20.38v18.576h20.38v-18.576h20.358v-20.357h19.456v20.357
		h-19.456v18.576h-20.358v21.305h-20.38v17.586H65.728V200.07h-20.38v-21.305H23.999v-18.576H5.467v-20.357h18.532v-18.576h21.349
		V99.951h20.38V82.344h168.611v17.607h20.38v21.305h20.358v18.576H254.719z M147.975,101.381l0.572-0.704
		c1.716-1.702,2.978-2.149,3.786-1.342c0.808,0.616,0.36,1.886-1.343,3.808l-0.682,0.681c1.071,0.617,2.194,0.925,3.368,0.925
		c1.027,0,2.171-0.308,3.434-0.925l-0.837-0.681c-1.731-1.922-2.179-3.192-1.342-3.808c0.703-0.895,1.966-0.448,3.785,1.342
		l0.704,0.704c0.528-0.894,0.793-2.024,0.793-3.389c0-1.262-0.265-2.45-0.793-3.565l-0.704,0.682
		c-0.646,0.719-1.364,1.262-2.156,1.629c-0.72,0.278-1.262,0.234-1.629-0.132c-0.28-0.337-0.28-0.88,0-1.628
		c0.277-0.808,0.77-1.578,1.474-2.312l0.573-0.55c-1.086-0.616-2.188-0.924-3.302-0.924c-1.07,0-2.15,0.308-3.235,0.924l0.683,0.682
		c1.613,1.82,2.061,3.089,1.342,3.808c-0.703,0.733-1.965,0.286-3.785-1.343l-0.705-0.836c-0.616,1.262-0.924,2.45-0.924,3.565
		C147.051,99.166,147.359,100.296,147.975,101.381z M158.716,105.585h-10.741c-0.982,0-1.474,0.543-1.474,1.629v1.343h-3.235
		c-1.541,0-2.854,0.55-3.939,1.65c-1.116,1.174-1.673,2.538-1.673,4.094c0,1.071,0.462,2.333,1.386,3.786l6.911,10.432l-0.506,9.816
		h-1.804c-0.25,0-0.654,0.212-1.211,0.638c-0.645,0.558-1.005,1.285-1.078,2.18c-0.089,1.261,0.549,2.215,1.915,2.861h3.653
		l0.418,0.528c-0.469,7.161-1.431,13.103-2.883,17.828c-0.542,1.6-2.223,5.576-5.04,11.93v0.285l-0.088,0.133h-0.132
		c-1.027,0-1.628,0.498-1.805,1.496c-0.25,0.895,0.117,1.482,1.1,1.76v0.264l-0.132,0.287c-2.539,4.166-3.852,7.051-3.939,8.65
		c-0.279,3.096,0.447,5.816,2.179,8.164h0.132l-0.132,0.551h-0.154l-1.343,1.475c-0.176,0.557-0.264,1.328-0.264,2.311h37.173
		l-0.352-2.311l-1.255-1.475v-0.969c1.453-2.068,2.128-4.459,2.025-7.174c-0.279-2.906-1.496-5.936-3.653-9.09l-0.132-0.42
		l0.264-0.264c0.278,0,0.542-0.189,0.793-0.572c0.277-0.365,0.373-0.762,0.285-1.188c-0.19-0.998-0.777-1.496-1.761-1.496h-0.286
		v-0.418c-3.419-7.719-5.128-11.65-5.128-11.797c-1.731-4.725-2.817-10.441-3.258-17.146l0.242-1.342h3.698
		c1.364-0.646,1.995-1.556,1.892-2.729c-0.087-0.895-0.454-1.665-1.1-2.311c-0.527-0.426-0.932-0.638-1.211-0.638h-1.605
		l-0.573-10.058l6.911-10.19c0.837-1.262,1.254-2.524,1.254-3.786c0-1.556-0.543-2.92-1.629-4.094
		c-1.114-1.101-2.428-1.65-3.938-1.65h-3.147v-1.343C160.345,106.128,159.802,105.585,158.716,105.585z M132.195,127.353h-8.562
		l0.551,6.294h-5.921l0.55-6.294h-7.682l0.595,6.294h-5.986l0.616-6.294h-8.627l0.374,2.398c0.381,1.923,0.91,3.712,1.584,5.371
		c1.232,2.597,2.729,4.512,4.49,5.745h0.087c0,0.074-0.367,0.228-1.101,0.462c-0.777,0.47-1.166,1.152-1.166,2.047
		c-0.088,1.453,0.792,2.179,2.641,2.179l0.22,0.462h-0.132l-2.399,25.421l-0.242,0.703h-0.88c-1.013,0-1.673,0.564-1.98,1.695
		c-0.059,0.439,0.095,0.857,0.462,1.254c0.308,0.367,0.616,0.551,0.924,0.551h0.462c0,0.102-0.88,1.482-2.641,4.137
		c-1.76,2.965-2.67,5.137-2.729,6.516c-0.25,2.904,0.579,5.73,2.487,8.473c0,0.074-0.521,0.881-1.563,2.422l-0.594,2.486h38.01
		l-0.594-2.266c-0.074-0.309-0.367-0.814-0.881-1.52c-0.558-0.676-0.836-1.049-0.836-1.123c1.849-2.742,2.729-5.568,2.642-8.473
		c-0.059-1.438-0.866-3.609-2.421-6.516c-1.453-2.654-2.179-4.035-2.179-4.137c0.25,0,0.564-0.184,0.946-0.551
		c0.367-0.396,0.47-0.857,0.308-1.387c-0.205-1.041-0.807-1.563-1.805-1.563h-1.386l-2.399-26.586h0.837
		c1.511-0.528,2.186-1.284,2.025-2.267c-0.147-0.617-0.639-1.189-1.476-1.717l-1.166-0.704c1.981-1.658,3.507-3.574,4.578-5.745
		c0.69-1.291,1.232-2.957,1.629-4.996L132.195,127.353z M177.026,174.826c-0.894,0-1.422,0.49-1.584,1.475
		c-0.088,0.396-0.007,0.762,0.242,1.1c0.146,0.309,0.389,0.514,0.727,0.617v0.463h-0.132c-2.348,3.975-3.595,6.844-3.742,8.604
		c-0.249,2.994,0.47,5.709,2.157,8.145l-0.221,0.484l-1.21,1.563c-0.249,0.498-0.374,1.27-0.374,2.311h33.387
		c-0.087-1.041-0.205-1.813-0.351-2.311c-0.104-0.309-0.507-0.83-1.212-1.563l-0.241-0.484c1.701-2.334,2.428-4.842,2.179-7.527
		c-0.088-2.598-1.262-5.67-3.521-9.221v-0.463h0.088c0.353,0,0.646-0.168,0.881-0.506c0.249-0.309,0.33-0.713,0.242-1.211
		c-0.162-0.984-0.733-1.475-1.718-1.475v-0.705l1.344-11.443c-3.243-2.656-5.987-5.877-8.231-9.662
		c-2.598-4.388-3.852-8.576-3.765-12.567c0.059-0.705,0.294-1.057,0.705-1.057c0.396,0,0.639,0.279,0.727,0.836
		c0,1.395,0.403,2.568,1.21,3.522c0.983,1.232,2.451,1.555,4.402,0.968c2.597-0.807,4.82-0.888,6.669-0.242
		c1.144,0.498,2.347,1.276,3.608,2.333c1.087-0.998,2.025-2.252,2.817-3.764c0.661-1.292,0.938-2.231,0.836-2.817
		c-0.059-0.895-0.733-1.819-2.024-2.773c-1.306-0.894-2.699-2.193-4.182-3.895c-1.511-1.79-2.561-3.411-3.147-4.864
		c-0.792-2.01-1.886-3.338-3.278-3.984c0.425-0.836,0.638-1.481,0.638-1.937c0-0.836-0.535-1.688-1.606-2.553
		c-1.204,1.042-1.959,1.717-2.268,2.025c-2.2-0.645-4.717-0.719-7.549-0.22c-3.096,0.558-5.723,1.651-7.879,3.279
		c-5.84,4.445-8.878,12.861-9.112,25.244c-0.161,11.269,1.409,19.126,4.71,23.571l-0.088,0.705H177.026z M254.719,121.256h-20.38
		v18.576h20.38V121.256z"/>
	<path fill-rule="evenodd" clip-rule="evenodd" fill="#DBA05B" d="M177.026,174.826h0.133l0.088-0.705
		c-3.301-4.445-4.871-12.303-4.71-23.571c0.234-12.383,3.272-20.799,9.112-25.244c2.156-1.628,4.783-2.722,7.879-3.279
		c2.832-0.499,5.349-0.425,7.549,0.22c0.309-0.308,1.063-0.983,2.268-2.025c1.071,0.866,1.606,1.717,1.606,2.553
		c0,0.456-0.213,1.101-0.638,1.937c1.393,0.646,2.486,1.974,3.278,3.984c0.587,1.453,1.637,3.074,3.147,4.864
		c1.482,1.702,2.876,3.001,4.182,3.895c1.291,0.954,1.966,1.879,2.024,2.773c0.103,0.586-0.175,1.526-0.836,2.817
		c-0.792,1.511-1.73,2.766-2.817,3.764c-1.262-1.057-2.465-1.834-3.608-2.333c-1.849-0.646-4.072-0.565-6.669,0.242
		c-1.951,0.586-3.419,0.264-4.402-0.968c-0.807-0.954-1.21-2.127-1.21-3.522c-0.088-0.557-0.331-0.836-0.727-0.836
		c-0.411,0-0.646,0.352-0.705,1.057c-0.087,3.991,1.167,8.179,3.765,12.567c2.244,3.785,4.988,7.006,8.231,9.662l-1.344,11.443
		v0.705c0.984,0,1.556,0.49,1.718,1.475c0.088,0.498,0.007,0.902-0.242,1.211c-0.235,0.338-0.528,0.506-0.881,0.506h-0.088v0.463
		c2.26,3.551,3.434,6.623,3.521,9.221c0.249,2.686-0.478,5.193-2.179,7.527l0.241,0.484c0.705,0.732,1.108,1.254,1.212,1.563
		c0.146,0.498,0.264,1.27,0.351,2.311H172.89c0-1.041,0.125-1.813,0.374-2.311l1.21-1.563l0.221-0.484
		c-1.688-2.436-2.406-5.15-2.157-8.145c0.147-1.76,1.395-4.629,3.742-8.604h0.132v-0.463c-0.338-0.104-0.58-0.309-0.727-0.617
		c-0.249-0.338-0.33-0.703-0.242-1.1C175.604,175.316,176.133,174.826,177.026,174.826z M132.195,127.353l-0.33,2.773
		c-0.396,2.04-0.939,3.705-1.629,4.996c-1.07,2.171-2.597,4.086-4.578,5.745l1.166,0.704c0.837,0.528,1.328,1.101,1.476,1.717
		c0.161,0.983-0.514,1.739-2.025,2.267h-0.837l2.399,26.586h1.386c0.998,0,1.6,0.521,1.805,1.563
		c0.162,0.529,0.059,0.99-0.308,1.387c-0.382,0.367-0.696,0.551-0.946,0.551c0,0.102,0.726,1.482,2.179,4.137
		c1.555,2.906,2.362,5.078,2.421,6.516c0.087,2.904-0.792,5.73-2.642,8.473c0,0.074,0.279,0.447,0.836,1.123
		c0.514,0.705,0.807,1.211,0.881,1.52l0.594,2.266h-38.01l0.594-2.486c1.042-1.541,1.563-2.348,1.563-2.422
		c-1.908-2.742-2.736-5.568-2.487-8.473c0.059-1.379,0.968-3.551,2.729-6.516c1.761-2.654,2.641-4.035,2.641-4.137h-0.462
		c-0.308,0-0.616-0.184-0.924-0.551c-0.367-0.396-0.521-0.814-0.462-1.254c0.308-1.131,0.968-1.695,1.98-1.695h0.88l0.242-0.703
		l2.399-25.421h0.132l-0.22-0.462c-1.849,0-2.729-0.726-2.641-2.179c0-0.895,0.389-1.577,1.166-2.047
		c0.734-0.234,1.101-0.388,1.101-0.462h-0.087c-1.761-1.232-3.258-3.148-4.49-5.745c-0.675-1.658-1.203-3.447-1.584-5.371
		l-0.374-2.398h8.627l-0.616,6.294h5.986l-0.595-6.294h7.682l-0.55,6.294h5.921l-0.551-6.294H132.195z M158.716,105.585
		c1.086,0,1.629,0.543,1.629,1.629v1.343h3.147c1.511,0,2.824,0.55,3.938,1.65c1.086,1.174,1.629,2.538,1.629,4.094
		c0,1.262-0.417,2.524-1.254,3.786l-6.911,10.19l0.573,10.058h1.605c0.279,0,0.684,0.212,1.211,0.638
		c0.646,0.646,1.013,1.417,1.1,2.311c0.104,1.174-0.527,2.084-1.892,2.729h-3.698l-0.242,1.342
		c0.44,6.705,1.526,12.422,3.258,17.146c0,0.146,1.709,4.078,5.128,11.797v0.418h0.286c0.983,0,1.57,0.498,1.761,1.496
		c0.088,0.426-0.008,0.822-0.285,1.188c-0.251,0.383-0.515,0.572-0.793,0.572l-0.264,0.264l0.132,0.42
		c2.157,3.154,3.374,6.184,3.653,9.09c0.103,2.715-0.572,5.105-2.025,7.174v0.969l1.255,1.475l0.352,2.311h-37.173
		c0-0.982,0.088-1.754,0.264-2.311l1.343-1.475h0.154l0.132-0.551h-0.132c-1.731-2.348-2.458-5.068-2.179-8.164
		c0.088-1.6,1.401-4.484,3.939-8.65l0.132-0.287v-0.264c-0.983-0.277-1.35-0.865-1.1-1.76c0.176-0.998,0.778-1.496,1.805-1.496
		h0.132l0.088-0.133v-0.285c2.816-6.354,4.497-10.33,5.04-11.93c1.453-4.725,2.414-10.667,2.883-17.828l-0.418-0.528h-3.653
		c-1.365-0.646-2.003-1.6-1.915-2.861c0.073-0.895,0.433-1.622,1.078-2.18c0.558-0.426,0.961-0.638,1.211-0.638h1.804l0.506-9.816
		l-6.911-10.432c-0.924-1.453-1.386-2.715-1.386-3.786c0-1.556,0.557-2.92,1.673-4.094c1.085-1.101,2.398-1.65,3.939-1.65h3.235
		v-1.343c0-1.086,0.492-1.629,1.474-1.629H158.716z M147.975,101.381c-0.616-1.085-0.924-2.215-0.924-3.389
		c0-1.115,0.309-2.303,0.924-3.565l0.705,0.836c1.82,1.629,3.082,2.076,3.785,1.343c0.719-0.719,0.271-1.988-1.342-3.808
		l-0.683-0.682c1.085-0.616,2.165-0.924,3.235-0.924c1.114,0,2.216,0.308,3.302,0.924l-0.573,0.55
		c-0.704,0.734-1.196,1.504-1.474,2.312c-0.28,0.748-0.28,1.291,0,1.628c0.367,0.367,0.909,0.41,1.629,0.132
		c0.792-0.367,1.51-0.91,2.156-1.629l0.704-0.682c0.528,1.115,0.793,2.303,0.793,3.565c0,1.365-0.265,2.495-0.793,3.389
		l-0.704-0.704c-1.819-1.79-3.082-2.237-3.785-1.342c-0.837,0.616-0.39,1.886,1.342,3.808l0.837,0.681
		c-1.263,0.617-2.406,0.925-3.434,0.925c-1.174,0-2.297-0.308-3.368-0.925l0.682-0.681c1.703-1.922,2.15-3.192,1.343-3.808
		c-0.808-0.807-2.069-0.36-3.786,1.342L147.975,101.381z"/>
</g>
</svg>
