<?xml version="1.0" encoding="utf-8"?>
<!-- Generator: Adobe Illustrator 16.0.0, SVG Export Plug-In . SVG Version: 6.00 Build 0)  -->
<!DOCTYPE svg PUBLIC "-//W3C//DTD SVG 1.1//EN" "http://www.w3.org/Graphics/SVG/1.1/DTD/svg11.dtd">
<svg version="1.1" id="Layer_1" xmlns="http://www.w3.org/2000/svg" xmlns:xlink="http://www.w3.org/1999/xlink" x="0px" y="0px"
	 width="300px" height="300px" viewBox="0 0 300 300" enable-background="new 0 0 300 300" xml:space="preserve">
<g>
	<path fill-rule="evenodd" clip-rule="evenodd" fill="#F37E25" d="M146.281,48.735c0.397-4.626,0.262-7.822-0.411-9.587
		c-0.374-0.92-1.131-1.617-2.275-2.09c-1.193-0.447-1.964-1.255-2.313-2.425l-4.065,0.672c-0.623-0.025-1.195-0.074-1.718-0.149
		c-1.292-0.075-2.424,0.509-3.394,1.753c-0.996,1.169-2.016,2.325-3.06,3.469c-0.324,3.134-0.597,5.472-0.821,7.015
		c-0.447,0.149-2.015,0.944-4.701,2.387c-1.916,1.02-3.594,1.555-5.037,1.604c-1.989,1.792-4.427,5.037-7.312,9.737
		c-2.711,4.353-4.999,7.225-6.864,8.619l-0.374,4.402c2.363,0.498,3.42,2.226,3.17,5.186l-1.268,15.408
		c0.821,0.598,1.157,1.803,1.007,3.619c-0.298,3.084-0.409,4.452-0.336,4.104l2.799,3.768c1.144,0.223,2.063,0.684,2.761,1.38
		c0.597,0.747,1.728,1.181,3.394,1.306c0.896,0.075,2.264-0.186,4.104-0.784c1.866-0.521,3.284-0.732,4.254-0.634l4.588,1.567
		c1.518,7.76,3.57,14.687,6.155,20.78c0.199,0.671,1.17,1.716,2.911,3.134c1.492,1.292,2.213,2.387,2.163,3.283l-0.373,1.792
		c0.497,0.348,4.588,2.81,12.273,7.386c5.025,3.084,8.892,5.981,11.604,8.692l-2.276,2.052c2.836,0.099,5.409,0.448,7.724,1.045
		c0.845,2.86,1.715,5.72,2.611,8.581c1.392,3.904,3.021,5.894,4.887,5.969h0.672l2.462,2.052l1.529-0.709l4.775,3.469l0.672-8.318
		c-2.909-4.229-5.708-11.516-8.395-21.862c-2.785-10.77-5.434-18.169-7.945-22.197l0.298-0.858c0.994-0.224,2.437,0.149,4.328,1.119
		c1.864,1.045,3.046,1.58,3.543,1.604c1.22,0.074,3.221-2.139,6.007-6.641c2.812-4.477,4.278-7.474,4.402-8.991
		c0.075-0.92-0.236-1.902-0.933-2.948c-0.722-1.045-1.095-1.915-1.12-2.611c-1.541,3.159-3.146,6.318-4.813,9.477
		c-2.263,4.079-4.713,5.993-7.35,5.745l-4.774-1.455c0.299-7.512,0.051-13.294-0.746-17.348c-1.145-6.393-3.719-11.341-7.723-14.849
		c1.119-8.257,1.294-14.313,0.522-18.168c-0.198-0.847-1.095-2.177-2.688-3.992c-1.615-1.815-2.373-3.283-2.275-4.402l0.188-0.522
		l-4.104-3.954C148.048,54.965,145.933,52.739,146.281,48.735z M115.465,36.909c-0.224-0.026-0.409-0.063-0.559-0.112
		c-2.388,0-5.061,0.298-8.021,0.896c-3.009,0.945-5.397,2.126-7.162,3.544c-2.065,1.119-2.947,2.275-2.65,3.469
		c0.25,1.195,1.568,1.953,3.956,2.276c0.049,0,0.111,0,0.186,0C105.692,42.977,110.442,39.62,115.465,36.909z M143.036,28.403
		c-1.568-0.298-3.371-0.448-5.41-0.448c-3.033-0.373-5.746-0.286-8.133,0.261c-1.989,0.946-2.984,1.978-2.984,3.097
		c-0.074,0.249-0.074,0.485,0,0.708C131.756,30.182,137.266,28.975,143.036,28.403z M117.332,76.229l0.671,0.039l-0.709,4.178
		l-0.671-0.037L117.332,76.229z M65.885,148.121c0.223,2.015,1.106,4.416,2.648,7.201c1.766,2.61,3.557,4.676,5.373,6.192
		c1.84,1.492,3.195,1.928,4.066,1.307c1.094-0.573,1.529-2.04,1.306-4.402c-0.621-2.064-1.692-4.49-3.208-7.275
		c-1.444-2.487-3.196-4.489-5.262-6.006c-1.765-1.543-3.17-1.99-4.215-1.343C65.499,144.266,65.264,145.708,65.885,148.121z
		 M76.48,116.708c-1.467,0.423-2.486,1.679-3.058,3.769c-0.547,2.412-0.547,5.248,0,8.506c0.869,2.959,2.225,5.359,4.065,7.2
		c1.767,1.741,3.357,2.325,4.775,1.753c0.274-0.049,0.548-0.136,0.82-0.261C79.826,131.134,77.624,124.145,76.48,116.708z
		 M62.677,97.347c-1.12,1.815-2.003,4.352-2.648,7.609c-0.25,2.96-0.25,5.621,0,7.984c0.646,2.015,1.529,3.221,2.648,3.619
		c1.193,0,2.263-0.883,3.208-2.649c1.292-2.139,2.176-4.725,2.648-7.759c0.647-3.159,0.647-5.795,0-7.91
		c-0.249-2.362-1.02-3.706-2.313-4.029C65.052,94.212,63.871,95.256,62.677,97.347z M68.161,83.094
		c1.767-1.442,3.519-3.519,5.261-6.23c1.765-2.362,2.972-4.75,3.619-7.163c0.621-2.014,0.298-3.531-0.97-4.551
		c-0.896-0.472-2.202,0.038-3.918,1.53c-2.189,1.119-4.166,3.009-5.932,5.671c-1.318,2.362-2.3,4.787-2.947,7.275
		c-0.647,2.313-0.523,3.78,0.373,4.402C64.891,84.525,66.396,84.214,68.161,83.094z M126.771,102.345l-0.262,3.246
		c-1.94-3.482-3.394-6.168-4.364-8.059l1.976,0.187C125.887,100.753,126.771,102.295,126.771,102.345z M120.391,93.616
		c0.672,1.119,1.244,1.741,1.716,1.865l-0.149,2.051c-1.069-0.447-2.064-1.268-2.985-2.463l0.261-3.319
		C119.383,91.949,119.768,92.571,120.391,93.616z M139.866,21.538c22.582,0,42.206,7.275,58.869,21.824
		c1.717,1.543,3.308,3.022,4.776,4.44c17.857,17.608,26.786,38.849,26.786,63.721c0,24.945-8.929,46.186-26.786,63.719
		c-10.621,10.77-22.621,18.219-36.001,22.348c-8.682,3.034-17.896,4.551-27.644,4.551c-9.801,0-19.04-1.517-27.721-4.551
		c-3.804-1.244-7.511-2.6-11.116-4.066c-8.905-4.453-17.224-10.546-24.958-18.281c-17.56-17.533-26.339-38.774-26.339-63.719
		c0-24.872,8.779-46.112,26.339-63.721C93.604,30.292,114.869,21.538,139.866,21.538z M203.623,159.798
		c0.895,0.473,2.212,0.013,3.954-1.38c2.063-1.542,3.842-3.457,5.333-5.746c1.768-2.785,2.925-5.297,3.471-7.536
		c0.075-0.324,0.125-0.621,0.149-0.896c-3.06,4.801-6.739,9.352-11.043,13.654C204.841,158.542,204.22,159.176,203.623,159.798z
		 M104.236,174.906c-0.994-0.895-2.063-1.964-3.208-3.208c-0.623-0.82-1.493-1.591-2.611-2.313
		c-2.388-1.766-4.789-2.886-7.201-3.357c-2.363-0.647-3.843-0.522-4.44,0.373c-0.521,0.944-0.223,2.45,0.896,4.514
		c1.491,1.767,3.444,3.532,5.856,5.297c2.611,1.742,4.961,2.936,7.051,3.583c0.298,0,0.448,0.111,0.448,0.335
		c2.138,0.348,3.506,0.074,4.104-0.821C105.654,178.438,105.356,176.972,104.236,174.906z M122.068,178.003
		c2.96,0.548,5.647,0.398,8.06-0.447c0.124-0.05,0.248-0.087,0.374-0.111c-6.468-1.791-12.586-4.478-18.356-8.059
		c-0.248,1.915,0.51,3.594,2.275,5.036C116.187,176.263,118.736,177.456,122.068,178.003z M154.116,191.396
		c0-1.293-0.996-2.326-2.984-3.097c-2.239-1.193-4.95-1.79-8.133-1.79c-3.035-0.249-5.733-0.137-8.096,0.335
		c-2.063,0.647-3.095,1.517-3.095,2.611c-0.274,1.294,0.758,2.5,3.095,3.619c2.14,0.871,4.676,1.492,7.612,1.866
		c3.356,0,6.031-0.3,8.02-0.896C152.922,193.398,154.116,192.516,154.116,191.396z M180.38,179.795
		c1.766-1.742,2.326-3.048,1.679-3.918c-0.1-0.598-0.397-1.045-0.895-1.343c-5.423,2.288-11.143,3.88-17.162,4.774
		c-0.199,0.15-0.385,0.312-0.559,0.486c-1.766,1.417-2.475,2.773-2.128,4.065c0.548,0.871,1.965,1.306,4.255,1.306
		c2.485,0,4.997-0.435,7.535-1.306C176.139,182.568,178.564,181.212,180.38,179.795z"/>
	<path fill-rule="evenodd" clip-rule="evenodd" fill="#E9C31E" d="M146.281,48.735c-0.349,4.004,1.767,6.23,6.342,6.679l4.104,3.954
		l-0.188,0.522c-0.098,1.119,0.66,2.587,2.275,4.402c1.593,1.815,2.489,3.146,2.688,3.992c0.771,3.855,0.597,9.911-0.522,18.168
		c4.004,3.507,6.578,8.456,7.723,14.849c0.797,4.053,1.045,9.836,0.746,17.348l4.774,1.455c2.637,0.249,5.087-1.666,7.35-5.745
		c1.667-3.159,3.271-6.318,4.813-9.477c0.025,0.697,0.398,1.566,1.12,2.611c0.696,1.045,1.008,2.027,0.933,2.948
		c-0.124,1.517-1.591,4.514-4.402,8.991c-2.786,4.502-4.787,6.715-6.007,6.641c-0.497-0.025-1.679-0.56-3.543-1.604
		c-1.892-0.97-3.334-1.343-4.328-1.119l-0.298,0.858c2.512,4.028,5.16,11.428,7.945,22.197c2.687,10.346,5.485,17.633,8.395,21.862
		l-0.672,8.318l-4.775-3.469l-1.529,0.709l-2.462-2.052h-0.672c-1.866-0.075-3.495-2.064-4.887-5.969
		c-0.896-2.861-1.767-5.721-2.611-8.581c-2.314-0.597-4.888-0.946-7.724-1.045l2.276-2.052c-2.712-2.711-6.578-5.608-11.604-8.692
		c-7.685-4.576-11.776-7.039-12.273-7.386l0.373-1.792c0.05-0.896-0.671-1.99-2.163-3.283c-1.741-1.418-2.712-2.463-2.911-3.134
		c-2.585-6.093-4.638-13.02-6.155-20.78l-4.588-1.567c-0.97-0.099-2.388,0.112-4.254,0.634c-1.84,0.598-3.208,0.859-4.104,0.784
		c-1.666-0.125-2.797-0.559-3.394-1.306c-0.697-0.697-1.617-1.157-2.761-1.38l-2.799-3.768c-0.073,0.348,0.038-1.02,0.336-4.104
		c0.15-1.816-0.186-3.021-1.007-3.619l1.268-15.408c0.25-2.96-0.807-4.688-3.17-5.186l0.374-4.402
		c1.865-1.394,4.153-4.266,6.864-8.619c2.885-4.701,5.323-7.946,7.312-9.737c1.442-0.049,3.121-0.584,5.037-1.604
		c2.686-1.442,4.254-2.238,4.701-2.387c0.225-1.543,0.497-3.88,0.821-7.015c1.043-1.144,2.063-2.3,3.06-3.469
		c0.97-1.244,2.101-1.829,3.394-1.753c0.523,0.075,1.095,0.124,1.718,0.149l4.065-0.672c0.349,1.17,1.12,1.978,2.313,2.425
		c1.144,0.473,1.902,1.169,2.275,2.09C146.543,40.913,146.679,44.109,146.281,48.735z M117.332,76.229l-0.709,4.179l0.671,0.037
		l0.709-4.178L117.332,76.229z M120.391,93.616c-0.623-1.045-1.007-1.667-1.157-1.866l-0.261,3.319
		c0.921,1.195,1.916,2.016,2.985,2.463l0.149-2.051C121.634,95.356,121.063,94.734,120.391,93.616z M126.771,102.345
		c0-0.05-0.883-1.592-2.65-4.626l-1.976-0.187c0.97,1.891,2.424,4.576,4.364,8.059L126.771,102.345z"/>
	<path fill-rule="evenodd" clip-rule="evenodd" fill="#35479D" d="M141.655,14.935c-27.134,0-50.115,9.414-68.942,28.241
		C53.91,61.979,44.508,84.674,44.508,111.262s9.401,49.27,28.205,68.047c18.828,18.753,41.509,28.13,68.047,28.13
		c26.586,0,49.245-9.377,67.973-28.13c18.902-18.777,28.664-41.459,29.286-68.047c0.224-12.411-1.555-23.876-5.336-34.397
		c4.676,11.64,7.014,24.312,7.014,38.017c0,27.905-9.873,51.781-29.621,71.629c-19.798,19.847-43.699,29.771-71.704,29.771
		s-51.932-9.924-71.778-29.771c-19.749-19.848-29.623-43.724-29.623-71.629c0-28.056,9.875-51.957,29.623-71.705
		c19.846-19.772,43.774-29.659,71.778-29.659c16.713,0,31.922,3.507,45.625,10.521C171.314,17.969,157.2,14.935,141.655,14.935z"/>
	<path fill-rule="evenodd" clip-rule="evenodd" fill="#C92628" d="M238.206,195.501c32.406-2.189,45.29,9.624,38.649,35.44
		c-2.687-24.921-26.849-31.001-72.487-18.243c-43.151,9.875-88.269,35.516-135.349,76.928
		C116.2,236.202,172.595,204.827,238.206,195.501z"/>
</g>
</svg>
