<?xml version="1.0" encoding="utf-8"?>
<!-- Generator: Adobe Illustrator 16.0.0, SVG Export Plug-In . SVG Version: 6.00 Build 0)  -->
<!DOCTYPE svg PUBLIC "-//W3C//DTD SVG 1.1//EN" "http://www.w3.org/Graphics/SVG/1.1/DTD/svg11.dtd">
<svg version="1.1" id="Layer_1" xmlns="http://www.w3.org/2000/svg" xmlns:xlink="http://www.w3.org/1999/xlink" x="0px" y="0px"
	 width="400px" height="400px" viewBox="0 0 400 400" enable-background="new 0 0 400 400" xml:space="preserve">
<g>
	<path fill-rule="evenodd" clip-rule="evenodd" fill="#FAAC26" d="M313.297,218.108c-1.818,0.897-4.449,2.361-7.895,4.396
		l-3.391,2.044c-1.051,0.718-1.686,1.118-1.9,1.202c-0.275,0.084-0.963,0.191-2.063,0.322c-4.15,0.491-9.807,1.794-16.97,3.911
		c-2.044,0.622-4.808,1.53-8.287,2.727c-3.946,1.363-6.709,2.29-8.287,2.78c-0.323-0.837-0.526-1.494-0.61-1.974
		c-0.048-0.107,0.156-0.293,0.61-0.556c0.49-0.216,0.771-0.364,0.843-0.448l3.91-2.26c5.262-2.835,10.5-5.179,15.715-7.032
		c4.866-1.806,10.309-3.391,16.322-4.754c5.383-1.255,11.199-2.056,17.455-2.403C317.193,216.458,315.377,217.14,313.297,218.108z
		 M316.416,213.408l-1.344,0.144c-2.463,0.299-5.25,0.742-8.359,1.328c-6.039,1.053-11.648,2.422-16.826,4.107
		c-5.871,1.901-11.282,3.994-16.234,6.278c-1.721,0.801-4.311,2.093-7.767,3.874l-1.776,0.987c-1.243,0.837-1.931,1.214-2.063,1.13
		c-0.048,0-1.088-0.975-3.121-2.924c3.623-2.655,6.387-4.557,8.287-5.704c4.641-2.823,9.92-5.543,15.84-8.162
		c4.424-1.901,9.908-3.868,16.449-5.901c4.771-1.447,10.477-2.786,17.113-4.019c5.262-0.992,10.982-1.77,17.166-2.331
		c-4.246,1.231-8.133,3.306-11.66,6.225c-1.602,1.326-2.781,2.35-3.533,3.066l-1.578,1.453
		C316.686,213.259,316.488,213.408,316.416,213.408z M353.262,184.582c-1.758,0.348-3.342,0.766-4.754,1.256
		c-6.637,1.901-11.545,4.64-14.727,8.216l-1.471,1.65c-0.516,0.885-0.902,1.351-1.166,1.398l-13.273,2.853
		c-4.916,1.16-10.441,2.709-16.576,4.646c-5.346,1.627-10.846,3.595-16.502,5.902c-6.686,2.643-11.93,5.112-15.732,7.408
		c-2.869,1.77-5.297,3.408-7.282,4.915l-3.319,2.852c-1.458,1.28-2.451,2.339-2.977,3.176c1.949,0.933,3.766,2.571,5.453,4.915
		c1.71,2.392,2.588,4.95,2.636,7.677c0,3.11-1.188,5.412-3.569,6.906c-3.803,2.344-9.334,2.876-16.593,1.597l-5.22-1.185
		c-0.131-0.06-0.244,0.007-0.341,0.198c-0.036,0.132-0.107,0.305-0.216,0.52l-0.662,1.866c-0.574,1.938-0.904,3.324-0.986,4.161
		c-0.133,1.459-0.109,2.858,0.07,4.197h-0.125v-0.09c-1.59-2.594-2.632-5.243-3.121-7.946c-0.49-2.69-0.27-5.411,0.664-8.162
		c-1.639,1.543-2.948,3.002-3.929,4.378c-0.97,1.279-1.896,2.941-2.78,4.986c-0.491-3.54,0.023-6.841,1.543-9.901
		c2.248-4.855,6.266-8.742,12.054-11.659c-1.544,2.833-1.985,5.464-1.327,7.892c0.621,2.261,2.631,3.852,6.026,4.772
		c1.459,0.395,2.828,0.525,4.108,0.395c1.686-0.18,2.882-0.771,3.588-1.776c0.406-0.586,0.609-1.226,0.609-1.919
		c0.035-0.718-0.167-1.34-0.609-1.866c-0.658-0.872-1.783-1.645-3.373-2.313c-2.786-1.16-5.482-1.148-8.09,0.035
		c0.537-1.938,1.262-3.761,2.171-5.471c1.028-1.865,2.798-4.168,5.31-6.906c2.225-2.344,4.328-4.311,6.314-5.901
		c4.807-4.066,9.716-7.402,14.727-10.009c4.544-2.393,9.752-4.915,15.623-7.57c5.143-2.249,10.584-4.3,16.324-6.152
		c5.656-1.817,11.199-3.408,16.629-4.772c4.951-1.195,10.875-2.325,17.775-3.39C340.951,185.616,346.648,185.024,353.262,184.582z
		 M46.738,186.843c6.625,0.442,12.323,1.034,17.095,1.775c6.888,1.064,12.814,2.194,17.777,3.391
		c5.429,1.363,10.972,2.953,16.628,4.771c5.752,1.854,11.193,3.904,16.324,6.152c5.883,2.655,11.098,5.179,15.642,7.57
		c4.999,2.607,9.902,5.943,14.709,10.009c1.997,1.591,4.102,3.559,6.314,5.902c2.523,2.738,4.293,5.04,5.31,6.905
		c0.921,1.711,1.644,3.534,2.17,5.472c-2.607-1.185-5.298-1.196-8.072-0.036c-1.591,0.67-2.721,1.441-3.391,2.314
		c-0.454,0.526-0.651,1.147-0.592,1.865c0,0.693,0.197,1.333,0.592,1.919c0.706,1.005,1.896,1.597,3.57,1.776
		c1.292,0.131,2.667,0,4.126-0.395c3.396-0.921,5.405-2.512,6.027-4.771c0.67-2.428,0.227-5.059-1.328-7.893
		c5.8,2.918,9.824,6.804,12.073,11.659c1.495,3.062,2.003,6.362,1.524,9.902c-0.885-2.045-1.812-3.708-2.78-4.987
		c-0.98-1.375-2.29-2.834-3.928-4.377c0.933,2.751,1.16,5.472,0.682,8.162c-0.491,2.702-1.531,5.352-3.122,7.946v0.09h-0.144
		c0.191-1.339,0.222-2.738,0.09-4.197c-0.096-0.837-0.437-2.225-1.022-4.162l-0.646-1.865c-0.096-0.216-0.161-0.389-0.197-0.521
		c-0.096-0.191-0.215-0.257-0.359-0.197l-5.22,1.184c-7.247,1.279-12.772,0.748-16.575-1.597c-2.392-1.494-3.587-3.796-3.587-6.906
		c0.048-2.726,0.933-5.285,2.654-7.677c1.687-2.344,3.498-3.982,5.436-4.914c-0.514-0.838-1.507-1.896-2.978-3.176l-3.301-2.853
		c-1.997-1.507-4.431-3.145-7.3-4.915c-3.803-2.296-9.047-4.765-15.732-7.408c-5.645-2.308-11.146-4.274-16.503-5.901
		c-6.135-1.938-11.654-3.485-16.557-4.646l-13.274-2.853c-0.275-0.048-0.669-0.515-1.184-1.399l-1.471-1.65
		c-3.181-3.575-8.09-6.313-14.727-8.215C50.092,187.607,48.508,187.189,46.738,186.843z M267.159,243.257
		c0.036-0.405,0.078-0.717,0.126-0.932c0.048-0.443,0.156-0.683,0.322-0.719l15.194-3.39c5.13-0.849,10.899-1.669,17.31-2.457
		l-1.273,0.537c-1.984,0.706-4.508,1.979-7.57,3.821l-3.695,2.332c-0.968,0.622-1.56,0.957-1.775,1.004
		c-0.454,0.084-1.143,0.043-2.063-0.125c-2.355,0-5.166,0.107-8.431,0.322c-1.854,0.084-4.634,0.265-8.342,0.539L267.159,243.257z
		 M262.656,250.414c0.3-0.095,0.957-0.095,1.975,0l3.982,0.395c3.049,0.228,5.648,0.622,7.803,1.185
		c-2.811,0.132-5.412,0.509-7.803,1.13l-2.064,0.664c-0.035,0.048-0.257-0.042-0.663-0.27l-4.771-1.973
		c0.166-0.048,0.412-0.228,0.734-0.539C262.148,250.695,262.418,250.498,262.656,250.414z M265.563,246.845l0.521-0.933
		c0-0.06,0.312-0.09,0.933-0.09c1.018-0.083,2.541-0.161,4.575-0.233c4.903-0.19,10.78-0.083,17.632,0.323
		c-3.181,0.3-5.877,0.783-8.09,1.453c-0.92,0.311-2.289,0.748-4.107,1.31c-1.279,0.537-1.938,0.825-1.973,0.861
		c-0.802,0.274-1.49,0.364-2.063,0.269c-3.181-0.526-6.032-0.903-8.556-1.13C264.828,247.933,265.205,247.324,265.563,246.845z
		 M267.069,240.603c-0.382-1.1-0.711-2.271-0.986-3.516c-0.036-0.048,0.407-0.245,1.327-0.592c0.85-0.359,1.424-0.587,1.723-0.682
		c2.571-1.017,4.891-1.854,6.96-2.512c5.178-1.722,10.751-3.139,16.718-4.251c5.035-0.969,10.912-1.716,17.633-2.242
		c-3.182,0.933-6.779,2.499-10.799,4.7c-1.781,0.968-2.977,1.704-3.588,2.206c-0.705,0.526-1.285,0.807-1.739,0.843l-1.974,0.089
		c-3.396,0.216-6.266,0.521-8.609,0.916C277.85,236.483,272.297,238.163,267.069,240.603z M258.064,210.897
		c0.049,0.442,0.114,1.13,0.197,2.063c0.096,0.395,0.072,0.658-0.07,0.789l-6.172,4.969c-0.789,0.802-1.255,1.178-1.398,1.131
		c0.191-4.162,0.729-7.546,1.613-10.153c1.053-2.821,2.351-5.346,3.893-7.569c1.376-2.033,3.415-3.994,6.117-5.884
		c-2.164,4.065-3.443,7.492-3.838,10.278C258.095,208.243,257.981,209.702,258.064,210.897z M282.658,183.703l-2.584,2.009
		c-2.248,2.117-3.994,4.252-5.236,6.404c-1.281,2.225-2.256,4.903-2.924,8.036c-0.265,1.16-0.438,2.554-0.521,4.18l-0.07,1.13
		c-0.037,0.263-0.162,0.461-0.378,0.592l-5.848,3.122c-1.196,0.621-1.859,0.969-1.991,1.04c-0.538,0.358-0.85,0.521-0.933,0.484
		c-0.084-0.048-0.126-0.21-0.126-0.484c0.084-0.263,0.126-0.437,0.126-0.521c0.753-5.298,3.097-10.314,7.032-15.05
		c2.068-2.464,4.167-4.568,6.296-6.314C277.318,186.801,279.705,185.258,282.658,183.703z M117.342,185.964
		c2.965,1.554,5.352,3.097,7.157,4.627c2.128,1.747,4.227,3.852,6.296,6.314c3.934,4.736,6.278,9.753,7.031,15.05
		c0,0.084,0.042,0.258,0.125,0.521c0,0.275-0.042,0.438-0.125,0.484c-0.083,0.036-0.395-0.125-0.933-0.484
		c-0.131-0.071-0.795-0.418-1.991-1.04l-5.83-3.122c-0.215-0.131-0.34-0.328-0.376-0.591l-0.089-1.131
		c-0.084-1.626-0.257-3.02-0.521-4.18c-0.669-3.133-1.644-5.812-2.924-8.035c-1.244-2.153-2.99-4.288-5.238-6.404L117.342,185.964z
		 M77.896,210.7c-3.552-2.918-7.444-4.993-11.678-6.225c6.195,0.563,11.923,1.339,17.185,2.332
		c6.613,1.231,12.311,2.57,17.095,4.018c6.542,2.033,12.024,4,16.449,5.901c5.931,2.619,11.211,5.34,15.839,8.162
		c1.913,1.147,4.682,3.05,8.305,5.704c-2.044,1.95-3.091,2.924-3.139,2.924c-0.131,0.085-0.813-0.293-2.045-1.13l-1.776-0.986
		c-3.456-1.782-6.045-3.073-7.767-3.875c-4.951-2.283-10.368-4.376-16.251-6.277c-5.178-1.687-10.787-3.057-16.826-4.108
		c-3.098-0.586-5.89-1.028-8.377-1.327l-1.309-0.145c-0.096,0-0.299-0.148-0.61-0.448l-1.579-1.453
		C80.659,213.05,79.486,212.027,77.896,210.7z M94.596,224.764c-3.444-2.033-6.075-3.498-7.893-4.396
		c-2.069-0.968-3.881-1.65-5.435-2.045c6.23,0.348,12.042,1.148,17.436,2.404c6.015,1.363,11.45,2.948,16.306,4.753
		c5.226,1.854,10.47,4.198,15.731,7.032l3.911,2.26c0.083,0.084,0.365,0.233,0.843,0.448c0.455,0.264,0.658,0.449,0.61,0.557
		c-0.083,0.479-0.287,1.136-0.61,1.973c-1.59-0.49-4.353-1.417-8.287-2.779c-3.48-1.196-6.236-2.105-8.27-2.728
		c-7.163-2.116-12.826-3.42-16.987-3.91c-1.1-0.132-1.782-0.239-2.045-0.322c-0.215-0.084-0.855-0.485-1.919-1.202L94.596,224.764z
		 M99.906,238.02c6.398,0.789,12.162,1.608,17.292,2.458l15.193,3.39c0.167,0.035,0.275,0.275,0.323,0.718
		c0.048,0.215,0.096,0.526,0.144,0.933l0.197,0.933c-3.707-0.275-6.494-0.454-8.359-0.538c-3.265-0.216-6.075-0.323-8.431-0.323
		c-0.921,0.168-1.603,0.21-2.045,0.126c-0.216-0.048-0.807-0.383-1.776-1.005l-3.713-2.331c-3.049-1.842-5.567-3.115-7.552-3.821
		L99.906,238.02z M89.556,229.068c6.721,0.526,12.604,1.273,17.651,2.243c5.955,1.111,11.522,2.528,16.7,4.251
		c2.069,0.657,4.389,1.494,6.96,2.511c0.299,0.096,0.873,0.323,1.723,0.682c0.932,0.347,1.381,0.544,1.345,0.592
		c-0.275,1.244-0.616,2.416-1.022,3.516c-5.202-2.439-10.751-4.119-16.646-5.04c-2.332-0.395-5.202-0.699-8.61-0.915l-1.991-0.09
		c-0.442-0.035-1.016-0.316-1.722-0.843c-0.61-0.502-1.8-1.238-3.569-2.206C96.354,231.567,92.749,230.001,89.556,229.068z
		 M128.409,247.85c2.033,0.071,3.564,0.149,4.592,0.233c0.622,0,0.933,0.03,0.933,0.09l0.52,0.932
		c0.347,0.479,0.724,1.089,1.13,1.831c-2.523,0.227-5.381,0.604-8.574,1.129c-0.562,0.096-1.244,0.006-2.045-0.269
		c-0.036-0.036-0.7-0.323-1.991-0.86c-1.817-0.563-3.181-0.999-4.09-1.311c-2.224-0.669-4.921-1.153-8.09-1.452
		C117.635,247.766,123.506,247.658,128.409,247.85z M141.612,208.781c-0.407-2.787-1.692-6.213-3.857-10.279
		c2.703,1.89,4.736,3.851,6.099,5.884c1.555,2.224,2.864,4.747,3.928,7.569c0.873,2.607,1.405,5.992,1.597,10.153
		c-0.132,0.048-0.604-0.329-1.417-1.13l-6.153-4.969c-0.131-0.132-0.156-0.395-0.072-0.79c0.083-0.932,0.149-1.62,0.197-2.063
		C142.018,211.962,141.911,210.503,141.612,208.781z M152.482,255.976l-6.691,1.937l2.78-1.864c0.921-0.61,1.938-1.053,3.05-1.328
		c1.507-0.347,3.761-0.831,6.763-1.453C156.889,254.367,154.922,255.271,152.482,255.976z M140.732,257.105
		c-2.87,0.131-5.004,0.287-6.404,0.467l3.624-1.597c0.455-0.168,1.1-0.431,1.938-0.789c0.969-0.491,1.584-0.735,1.848-0.735
		c1.1,0.048,2.78,0.232,5.041,0.556c-0.49,0.12-1.483,0.509-2.978,1.166C142.557,256.663,141.534,256.975,140.732,257.105z
		 M138.885,253.805l-4.753,1.974c-0.406,0.227-0.633,0.316-0.682,0.27l-2.045-0.664c-2.392-0.622-4.999-0.999-7.821-1.13
		c2.153-0.563,4.76-0.957,7.821-1.185l3.982-0.395c1.004-0.096,1.663-0.096,1.973,0c0.227,0.084,0.49,0.281,0.79,0.592
		C138.473,253.577,138.717,253.757,138.885,253.805z M248.379,252.46c1.111,0.274,2.135,0.717,3.066,1.327l2.764,1.865l-6.691-1.938
		c-2.428-0.705-4.395-1.607-5.902-2.709C244.617,251.629,246.872,252.113,248.379,252.46z M262.047,253.715l3.623,1.597
		c-1.398-0.179-3.533-0.335-6.403-0.466c-0.802-0.132-1.817-0.442-3.05-0.934c-1.506-0.657-2.498-1.046-2.977-1.165
		c2.248-0.323,3.922-0.509,5.021-0.557c0.264,0,0.879,0.245,1.848,0.735C260.947,253.285,261.592,253.548,262.047,253.715z"/>
	<path fill-rule="evenodd" clip-rule="evenodd" fill="#010101" d="M172.949,186.699c-1.028-0.216-2.051-0.442-3.067-0.682
		l-10.063,13.471c1.268,5.801,3.318,11.396,6.152,16.79c0.156-0.035,0.311-0.035,0.466,0l19.194,5.813
		c2.296-4.149,5.154-8.222,8.574-12.216l-7.821-19.481C181.757,188.923,177.278,187.691,172.949,186.699z M173.739,147.522
		c-3.085,1.985-6.016,4.371-8.79,7.157c-3.815,3.815-6.889,7.94-9.22,12.377c3.743-1.303,7.366-1.966,10.87-1.991
		c1.794-2.547,3.749-4.903,5.866-7.068c2.786-2.942,5.824-5.495,9.112-7.659l2.493-7.713
		C180.448,143.821,177.003,145.453,173.739,147.522z M198.493,236.279c-1.447-0.18-2.87-0.484-4.27-0.914h-0.018l-7.462,2.672
		c3.779,1.005,7.755,1.566,11.929,1.687c0.49,0.024,0.993,0.036,1.507,0.036c8.12,0,15.571-1.723,22.351-5.167l-6.207-1.129
		C210.009,236.082,204.066,237.021,198.493,236.279z M217.131,209.193l-21.275,1.901c-3.348,3.946-6.141,7.929-8.377,11.946
		l7.624,10.423c1.208,0.358,2.428,0.609,3.66,0.753c5.119,0.67,10.529-0.144,16.234-2.439c0-0.036,0.018-0.055,0.053-0.055
		l10.926-13.722C223.319,214.58,220.371,211.645,217.131,209.193z M246.656,190.824c-0.454,7.26-2.271,14.105-5.453,20.539
		l0.735,5.866c5.357-7.977,8.037-17.077,8.037-27.302c0-2.451-0.156-4.837-0.468-7.157L246.656,190.824z M244.629,190.502
		l-9.399-10.422l-11.552,7.444l-4.861,20.341c3.205,2.523,6.135,5.466,8.789,8.826l11.84-6.35
		c3.037-6.171,4.766-12.736,5.184-19.696C244.629,190.586,244.629,190.537,244.629,190.502z M234.691,158.536l4.988,0.951
		c-1.305-1.663-2.721-3.265-4.253-4.808c-6.876-6.84-14.728-11.271-23.552-13.292c1.698,1.998,3.48,4.4,5.345,7.211
		c5.513,2.056,11.302,5.351,17.364,9.883h0.107V158.536z M201.506,158.339c-1.099-0.358-2.158-0.7-3.174-1.022
		c-5.931-1.938-11.396-3.402-16.396-4.395c-0.107-0.036-0.197-0.084-0.269-0.144c-2.75,1.973-5.339,4.179-7.767,6.619
		c-2.081,2.212-4.024,4.61-5.83,7.193l2.439,17.472c0.98,0.19,1.949,0.395,2.906,0.609c4.412,1.028,8.963,2.267,13.65,3.713
		l16.145-13.488C202.912,167.864,202.344,162.345,201.506,158.339z M216.27,150.464c-4.139,2.033-8.383,4.545-12.736,7.534
		c0.838,4.078,1.43,9.711,1.776,16.898l17.31,10.798l11.605-7.462l-1.165-18.333C227.188,155.547,221.592,152.402,216.27,150.464z
		 M250.872,178.447v0.036c0.789,3.671,1.184,7.486,1.184,11.444c0,11.6-3.325,21.83-9.974,30.692l-0.036,0.053
		c-1.578,2.046-3.323,4.024-5.237,5.938c-3.313,3.36-6.859,6.141-10.637,8.341l-0.055,0.054h-0.053
		c-7.702,4.545-16.33,6.816-25.885,6.816c-0.55,0-1.076-0.019-1.579-0.054c-5.453-0.132-10.602-1.011-15.445-2.637v-0.054
		c-0.036,0-0.06,0-0.071,0c-3.66-1.269-7.146-2.96-10.458-5.077c-3.217-2.021-6.266-4.473-9.148-7.354
		c0-0.023-0.018-0.035-0.054-0.035c-10.129-10.129-15.193-22.356-15.193-36.684c0-0.251,0-0.496,0-0.735
		c0.131-7.463,1.614-14.356,4.448-20.683l0.054-0.036c2.5-5.5,6.063-10.577,10.691-15.229c2.918-2.918,5.985-5.399,9.202-7.444
		c3.982-2.547,8.216-4.473,12.7-5.776c0.036,0,0.072-0.018,0.107-0.054c4.162-1.172,8.55-1.817,13.167-1.937
		c0.502,0,1.028,0,1.579,0c3.073,0,6.051,0.239,8.933,0.718h0.071c10.512,1.734,19.72,6.565,27.625,14.494
		c2.296,2.261,4.341,4.646,6.135,7.157v0.037C246.854,165.951,249.496,171.954,250.872,178.447z M157.63,199.291l-7.265-7.516
		c0.491,12.413,4.909,23.086,13.256,32.02l1.166-5.472c-3.348-5.99-5.716-12.251-7.104-18.78v-0.09
		C157.648,199.381,157.63,199.327,157.63,199.291z"/>
	<path fill-rule="evenodd" clip-rule="evenodd" fill="#FBFCFC" d="M216.27,150.464c5.322,1.938,10.918,5.083,16.79,9.436
		l1.165,18.333l-11.605,7.462l-17.31-10.798c-0.347-7.188-0.938-12.82-1.776-16.898C207.887,155.009,212.131,152.497,216.27,150.464
		z M201.506,158.339c0.838,4.006,1.406,9.525,1.705,16.558l-16.145,13.488c-4.688-1.446-9.238-2.685-13.65-3.713
		c-0.957-0.215-1.926-0.419-2.906-0.609l-2.439-17.472c1.806-2.583,3.749-4.981,5.83-7.193c2.428-2.44,5.017-4.646,7.767-6.619
		c0.072,0.06,0.162,0.107,0.269,0.144c4.999,0.993,10.464,2.457,16.396,4.395C199.348,157.639,200.407,157.98,201.506,158.339z
		 M234.691,158.536v-0.054h-0.107c-6.063-4.532-11.852-7.827-17.364-9.883c-1.864-2.811-3.646-5.214-5.345-7.211
		c8.824,2.021,16.676,6.452,23.552,13.292c1.532,1.543,2.948,3.145,4.253,4.808L234.691,158.536z M244.629,190.502
		c0,0.035,0,0.084,0,0.144c-0.418,6.96-2.146,13.525-5.184,19.696l-11.84,6.35c-2.654-3.36-5.584-6.303-8.789-8.826l4.861-20.341
		l11.552-7.444L244.629,190.502z M246.656,190.824l2.852-8.054c0.312,2.32,0.468,4.706,0.468,7.157
		c0,10.225-2.68,19.325-8.037,27.302l-0.735-5.866C244.385,204.93,246.202,198.084,246.656,190.824z M217.131,209.193
		c3.24,2.451,6.188,5.387,8.844,8.808l-10.926,13.722c-0.035,0-0.053,0.019-0.053,0.055c-5.705,2.296-11.115,3.109-16.234,2.439
		c-1.232-0.144-2.452-0.395-3.66-0.753l-7.624-10.423c2.236-4.018,5.029-8,8.377-11.946L217.131,209.193z M198.493,236.279
		c5.573,0.741,11.516-0.197,17.83-2.815l6.207,1.129c-6.78,3.444-14.231,5.167-22.351,5.167c-0.514,0-1.017-0.012-1.507-0.036
		c-4.174-0.12-8.149-0.682-11.929-1.687l7.462-2.672h0.018C195.623,235.795,197.046,236.1,198.493,236.279z M173.739,147.522
		c3.265-2.069,6.709-3.701,10.332-4.897l-2.493,7.713c-3.289,2.164-6.326,4.717-9.112,7.659c-2.117,2.165-4.072,4.521-5.866,7.068
		c-3.504,0.024-7.127,0.688-10.87,1.991c2.332-4.437,5.405-8.562,9.22-12.377C167.723,151.893,170.653,149.508,173.739,147.522z
		 M172.949,186.699c4.329,0.992,8.808,2.224,13.436,3.694l7.821,19.481c-3.42,3.994-6.278,8.066-8.574,12.216l-19.194-5.813
		c-0.155-0.035-0.311-0.035-0.466,0c-2.834-5.394-4.885-10.989-6.152-16.79l10.063-13.471
		C170.898,186.257,171.921,186.483,172.949,186.699z M157.63,199.291c0,0.036,0.018,0.09,0.054,0.162v0.09
		c1.387,6.529,3.755,12.79,7.104,18.78l-1.166,5.472c-8.347-8.934-12.766-19.606-13.256-32.02L157.63,199.291z"/>
</g>
</svg>
