<?xml version="1.0" encoding="utf-8"?>
<!-- Generator: Adobe Illustrator 16.0.0, SVG Export Plug-In . SVG Version: 6.00 Build 0)  -->
<!DOCTYPE svg PUBLIC "-//W3C//DTD SVG 1.1//EN" "http://www.w3.org/Graphics/SVG/1.1/DTD/svg11.dtd">
<svg version="1.1" id="Layer_1" xmlns="http://www.w3.org/2000/svg" xmlns:xlink="http://www.w3.org/1999/xlink" x="0px" y="0px"
	 width="400px" height="400px" viewBox="0 0 400 400" enable-background="new 0 0 400 400" xml:space="preserve">
<g>
	<path fill-rule="evenodd" clip-rule="evenodd" fill="#B41F24" d="M249.463,157.724c-0.016,0.016-0.023,0.031-0.023,0.047
		l-3.645,9.087c-22.3-0.437-42.863-5.279-61.691-14.529c-18.267-7.74-36.923-7.194-55.969,1.635
		c16.024-13.891,34.463-16.577,55.315-8.059C212.354,156.463,234.357,160.402,249.463,157.724z M198.213,197.412
		c0.062-1.309,0.078-2.633,0.046-3.972c-0.062-2.367-0.288-4.727-0.677-7.078c-0.063-0.265-0.117-0.521-0.164-0.771
		c-2.616-11.976-11.158-17.449-25.625-16.422c-5.543,0.872-11.204,2.663-16.982,5.373l-22.145,8.479
		c-1.635,0.498-3.231,0.934-4.789,1.308c-16.165,3.769-28.825,0.507-37.982-9.787c12.567,6.961,26.232,7.443,40.996,1.448
		c1.837-0.732,3.69-1.581,5.56-2.547l24.527-12.777c13.533-5.232,28.459-2.289,44.78,8.83l36.113,14.39
		c-0.42,2.663-0.623,5.419-0.607,8.27l0.047,0.771c-0.031,3.41,0.172,6.821,0.607,10.231c0.778,6.104,2.305,12.186,4.578,18.243
		c2.726,7.319,6.549,14.6,11.47,21.841c0.358,0.28,0.584,0.6,0.677,0.958c0.172,0.016,0.203,0.07,0.094,0.164
		c-21.708,18.235-40.24,24.9-55.595,19.995c-12.521-4.142-24.216-9.981-35.086-17.52c-0.063-0.031-0.117-0.07-0.164-0.116
		c-15.713,10.932-36.051,9.397-61.015-4.603c-0.125-0.063-0.249-0.132-0.374-0.21c-29.262-16.569-61.225-20.782-95.89-12.638
		c30.196-12.318,58.196-13.229,84-2.732c5.263,2.211,10.395,4.555,15.394,7.03c2.507,1.262,4.983,2.555,7.428,3.878
		c16.46,7.834,26.225,6.735,29.292-3.294c-10.262-5.217-21.007-9.538-32.236-12.964c-2.273-0.701-4.578-1.363-6.914-1.985
		c2.305-0.047,4.796,0.093,7.475,0.42c8.892,1.121,19.739,4.407,32.54,9.857c0.031,0.017,0.063,0.032,0.094,0.048
		c0.016-0.577,0.023-1.146,0.023-1.706c0.156-17.955-8.62-26.489-26.326-25.602c-4.688,0.233-9.99,1.129-15.908,2.687l-13.408,4.578
		c-23.157,7.817-44.118,5.17-62.883-7.942c21.646,10.808,49.164,7.833,82.552-8.923c4.781-1.511,9.484-2.406,14.109-2.687
		c9.764-0.576,19.178,1.611,28.241,6.564l16.141,12.146c8.223,5.45,16.048,5.411,23.477-0.117c2.554-2.134,4.041-5.638,4.461-10.512
		c0-0.031,0-0.063,0-0.093v-0.023C198.182,197.747,198.197,197.583,198.213,197.412z M210.336,220.678
		c-10.558-0.748-22.62,6.486-36.184,21.7c1.854,1.075,3.543,2.032,5.069,2.873c9.655,5.03,17.963,8.651,24.925,10.862
		c9.686,3.909,16.266,1.511,19.738-7.194c3.006-8.705,0.67-17.169-7.008-25.392C215.631,222.391,213.451,221.44,210.336,220.678z
		 M237.994,271.577c-16.025,4.891-29.223,5.481-39.595,1.775c17.862,0.95,33.677-2.749,47.442-11.096
		c8.457-5.762,15.465-10.006,21.023-12.73l8.41,5.092c-5.03,1.838-8.924,3.762-11.68,5.771
		C254.454,265.667,245.92,269.397,237.994,271.577z"/>
	<path fill-rule="evenodd" clip-rule="evenodd" fill="#209FDA" d="M282.68,189.913c-1.386-0.296-2.771-0.592-4.158-0.888
		l-13.594,18.15c1.696,7.833,4.492,15.362,8.385,22.589c0.156-0.016,0.335,0,0.537,0.046l25.906,7.849
		c3.083-5.574,6.93-11.057,11.539-16.444l-10.488-26.373C294.578,192.896,288.535,191.253,282.68,189.913z M294.289,140.882
		l3.388-10.441c-4.89,1.619-9.53,3.831-13.923,6.634c-4.188,2.694-8.152,5.91-11.889,9.647c-5.14,5.14-9.273,10.698-12.404,16.679
		c5.045-1.744,9.928-2.624,14.646-2.64c2.444-3.457,5.076-6.649,7.895-9.577C285.756,147.243,289.852,143.81,294.289,140.882z
		 M321.176,151.697c-1.447-0.498-2.881-0.98-4.298-1.448c-7.989-2.601-15.339-4.578-22.051-5.934
		c-0.156-0.03-0.296-0.078-0.421-0.14c-3.707,2.616-7.171,5.591-10.395,8.923c-2.834,2.959-5.482,6.198-7.942,9.718l3.317,23.522
		c1.293,0.265,2.601,0.546,3.924,0.841c5.934,1.355,12.069,3.021,18.407,4.999l21.794-18.15
		C323.092,164.514,322.313,157.07,321.176,151.697z M386.582,194.258c0-3.302-0.202-6.509-0.607-9.624l-3.854,10.862
		c-0.607,9.78-3.053,19.022-7.336,27.728l0.958,7.872C382.969,220.319,386.582,208.04,386.582,194.258z M366.68,180.967
		l-15.604,10.021l-6.518,27.517c4.299,3.364,8.238,7.312,11.82,11.844l15.978-8.526c4.096-8.332,6.423-17.192,6.984-26.583
		c0-0.063,0-0.125,0-0.188L366.68,180.967z M349.697,188.559l15.651-10.068l-1.589-24.714c-7.926-5.887-15.471-10.138-22.635-12.754
		c-5.575,2.771-11.314,6.175-17.216,10.208c1.168,5.481,1.97,13.065,2.405,22.752L349.697,188.559z M377.075,154.454l0.046,0.069
		c5.232,7.382,8.791,15.464,10.676,24.247l0.023,0.047v0.047c1.027,4.921,1.549,10.053,1.564,15.394
		c-0.016,15.667-4.508,29.479-13.478,41.439c-0.016,0.016-0.032,0.039-0.048,0.07c-2.086,2.757-4.414,5.419-6.983,7.988
		c-4.501,4.517-9.313,8.277-14.437,11.283l-0.047,0.023l-0.023,0.023c-0.016,0-0.031,0.008-0.047,0.023
		c-10.387,6.089-22.035,9.141-34.945,9.156c-0.716,0-1.416-0.016-2.102-0.046c-7.351-0.188-14.288-1.387-20.813-3.598h-0.023
		l-0.023-0.023c-0.016,0-0.03,0-0.046,0c-4.953-1.697-9.656-3.971-14.109-6.821c-4.346-2.771-8.456-6.089-12.334-9.951l-0.023-0.022
		c0-0.017-0.008-0.032-0.023-0.048c-13.673-13.672-20.51-30.172-20.51-49.498c0-0.327,0-0.646,0-0.958v-0.046
		c0.125-10.061,2.118-19.35,5.98-27.868l0.023-0.07c3.395-7.443,8.23-14.304,14.506-20.579c3.894-3.894,8.021-7.226,12.381-9.998
		c5.357-3.426,11.057-6.011,17.099-7.755c0.063-0.016,0.125-0.031,0.187-0.047c5.607-1.604,11.517-2.491,17.73-2.663
		c0.686-0.016,1.386-0.023,2.102-0.023c4.158,0,8.184,0.319,12.077,0.958h0.047c0.016,0,0.039,0.008,0.069,0.023
		c14.172,2.32,26.607,8.821,37.306,19.505C371.959,147.835,374.691,151.074,377.075,154.454z M365.909,151.885l0.023,0.022h0.023
		v0.023l6.728,1.285c-1.76-2.228-3.684-4.392-5.77-6.494c-9.25-9.219-19.832-15.199-31.746-17.939
		c2.289,2.693,4.695,5.94,7.219,9.74c7.428,2.772,15.253,7.218,23.477,13.339C365.878,151.861,365.894,151.869,365.909,151.885z
		 M262.054,207.105c-0.016-0.063-0.023-0.125-0.023-0.187l-9.812-10.161c0.639,16.756,6.596,31.153,17.871,43.191l1.588-7.358
		c-4.547-8.082-7.748-16.539-9.601-25.368c0-0.031,0-0.055,0-0.07L262.054,207.105z M317.346,261.463
		c0.669,0.016,1.347,0.023,2.031,0.023c11.01,0,21.07-2.313,30.181-6.938l-8.409-1.519c-8.488,3.504-16.492,4.757-24.014,3.761
		c-1.946-0.249-3.869-0.654-5.77-1.215c-0.031-0.016-0.055-0.023-0.07-0.023l-9.998,3.621
		C306.39,260.528,311.738,261.291,317.346,261.463z M342.246,220.257l-28.639,2.569c-4.563,5.295-8.347,10.667-11.353,16.118
		l10.302,14.063c1.619,0.467,3.263,0.802,4.929,1.004c6.899,0.889,14.21-0.21,21.935-3.293c0.016-0.016,0.031-0.039,0.047-0.07
		l14.763-18.523C350.617,227.545,346.622,223.59,342.246,220.257z"/>
	<path fill-rule="evenodd" clip-rule="evenodd" fill="#F3BB2F" d="M365.956,151.907h-0.023l-0.023-0.022
		c-0.016-0.016-0.031-0.023-0.046-0.023c-8.224-6.121-16.049-10.566-23.477-13.339c-2.523-3.8-4.93-7.047-7.219-9.74
		c11.914,2.74,22.496,8.721,31.746,17.939c2.086,2.103,4.01,4.267,5.77,6.494l-6.728-1.285V151.907z M366.68,180.967l12.661,14.085
		c0,0.063,0,0.125,0,0.188c-0.562,9.391-2.889,18.251-6.984,26.583l-15.978,8.526c-3.582-4.532-7.521-8.479-11.82-11.844
		l6.518-27.517L366.68,180.967z M349.697,188.559l-23.383-14.576c-0.436-9.687-1.237-17.271-2.405-22.752
		c5.901-4.033,11.641-7.437,17.216-10.208c7.164,2.616,14.709,6.867,22.635,12.754l1.589,24.714L349.697,188.559z M386.582,194.258
		c0,13.782-3.613,26.062-10.839,36.838l-0.958-7.872c4.283-8.705,6.729-17.947,7.336-27.728l3.854-10.862
		C386.38,187.749,386.582,190.956,386.582,194.258z M321.176,151.697c1.137,5.373,1.916,12.816,2.336,22.331l-21.794,18.15
		c-6.338-1.978-12.474-3.644-18.407-4.999c-1.323-0.295-2.631-0.576-3.924-0.841l-3.317-23.522c2.46-3.52,5.108-6.759,7.942-9.718
		c3.224-3.332,6.688-6.307,10.395-8.923c0.125,0.062,0.265,0.109,0.421,0.14c6.712,1.355,14.062,3.333,22.051,5.934
		C318.295,150.717,319.729,151.199,321.176,151.697z M297.677,130.44l-3.388,10.441c-4.438,2.928-8.533,6.361-12.287,10.302
		c-2.818,2.928-5.45,6.12-7.895,9.577c-4.719,0.016-9.602,0.896-14.646,2.64c3.131-5.98,7.265-11.539,12.404-16.679
		c3.736-3.737,7.7-6.953,11.889-9.647C288.146,134.271,292.787,132.06,297.677,130.44z M282.68,189.913
		c5.855,1.34,11.898,2.982,18.127,4.929l10.488,26.373c-4.609,5.388-8.456,10.87-11.539,16.444l-25.906-7.849
		c-0.202-0.046-0.381-0.062-0.537-0.046c-3.893-7.227-6.688-14.756-8.385-22.589l13.594-18.15
		C279.908,189.321,281.294,189.617,282.68,189.913z M262.054,207.105l0.023,0.047c0,0.016,0,0.039,0,0.07
		c1.853,8.829,5.054,17.286,9.601,25.368l-1.588,7.358c-11.275-12.038-17.232-26.436-17.871-43.191l9.812,10.161
		C262.03,206.98,262.038,207.043,262.054,207.105z M342.246,220.257c4.376,3.333,8.371,7.288,11.983,11.867l-14.763,18.523
		c-0.016,0.031-0.031,0.055-0.047,0.07c-7.725,3.083-15.035,4.182-21.935,3.293c-1.666-0.202-3.31-0.537-4.929-1.004l-10.302-14.063
		c3.006-5.451,6.79-10.823,11.353-16.118L342.246,220.257z M317.346,261.463c-5.607-0.172-10.956-0.935-16.049-2.289l9.998-3.621
		c0.016,0,0.039,0.008,0.07,0.023c1.9,0.561,3.823,0.966,5.77,1.215c7.521,0.996,15.525-0.257,24.014-3.761l8.409,1.519
		c-9.11,4.625-19.171,6.938-30.181,6.938C318.692,261.486,318.015,261.479,317.346,261.463z"/>
</g>
</svg>
