<?xml version="1.0" encoding="utf-8"?>
<!-- Generator: Adobe Illustrator 16.0.0, SVG Export Plug-In . SVG Version: 6.00 Build 0)  -->
<!DOCTYPE svg PUBLIC "-//W3C//DTD SVG 1.1//EN" "http://www.w3.org/Graphics/SVG/1.1/DTD/svg11.dtd">
<svg version="1.1" id="Layer_1" xmlns="http://www.w3.org/2000/svg" xmlns:xlink="http://www.w3.org/1999/xlink" x="0px" y="0px"
	 width="400px" height="400px" viewBox="0 0 400 400" enable-background="new 0 0 400 400" xml:space="preserve">
<g>
	<path fill-rule="evenodd" clip-rule="evenodd" fill="#FFFFFF" d="M248.153,236.125l-30.217-1.57l-4.755-8.102
		c5.247-1.232,10.51-1.848,15.789-1.848c9.111,0,17.89,1.731,26.339,5.194L248.153,236.125z M187.281,238.363
		c6.957-5.17,14.627-8.902,23.015-11.195l5.124,8.703l-17.797,26.984l-2.631-2.631c-3.278-3.678-5.533-8.064-6.764-13.158
		C187.489,244.035,187.173,241.134,187.281,238.363z M186.081,250.184c1.431,4.478,3.67,8.447,6.717,11.91l3.231,3.162l-1.408,2.125
		c-4.094-3.863-7.379-8.473-9.857-13.828c-1.601-3.385-2.762-6.786-3.485-10.203l3.163-2.746
		C184.549,243.881,185.096,247.074,186.081,250.184z M198.338,273.498c10.126,8.311,17.867,18.875,23.222,31.693
		c4.078,9.834,6.332,19.706,6.764,29.617l-4.039-0.047c0.508-9.834-3.117-21.053-10.873-33.656
		c-7.064-11.557-13.989-20.067-20.775-25.53l2.793-4.247L198.338,273.498z M198.269,267.012c7.725,5.646,18.275,8.578,31.648,8.795
		c14.604,0,26.093-1.747,34.464-5.24l1.754,3.324c-8.633,4.186-20.305,6.278-35.018,6.278c-14.065,0-25.508-3.624-34.325-10.873
		L198.269,267.012z M190.352,273.844c-5.356-3.862-10.55-5.794-15.582-5.794h-0.092c-4.555,0.03-8.672,1.593-12.35,4.687
		l1.039-3.002c3.201-2.77,6.825-4.447,10.873-5.031c5.924-0.862,12.204,0.799,18.836,4.986L190.352,273.844z M199.862,264.656
		l18.029-27.262l29.893,1.57l15.236,28.97c-8.08,3.354-19.098,5.032-33.057,5.032C217.221,272.752,207.188,269.981,199.862,264.656z
		 M282.594,249.514c0.108,3.678-0.584,7.194-2.076,10.549c-2.264,5.109-6.203,9.28-11.819,12.512l-1.686-3.209
		c4.587-2.339,8.049-5.24,10.388-8.702c2.646-3.971,3.701-8.449,3.162-13.435L282.594,249.514z M277.84,249.421
		c0.03,3.57-0.916,6.794-2.84,9.673c-2.078,3.047-5.194,5.609-9.35,7.687l-15.188-28.901l7.756-6.832
		c6.771,3.062,12.996,7.217,18.675,12.465C277.523,245.373,277.84,247.344,277.84,249.421z M270.337,281.809
		c-6.663,4.955-14.497,13.441-23.499,25.461c-7.465,10.064-11.52,19.298-12.166,27.7l-3.186-0.092l0.115-0.946
		c1.416-9.834,5.24-20.398,11.474-31.694c7.171-13.005,15.136-21.961,23.892-26.87L270.337,281.809z M269.459,274.098
		c9.373-4.217,18.591-3.008,27.655,3.624l1.038,4.848c-4.154-4.478-8.525-6.718-13.111-6.718h-0.115
		c-3.739,0-7.817,1.439-12.234,4.317L269.459,274.098z M291.989,281c2.217,1.492,4.524,3.824,6.925,6.994l0.324,6.926
		c0,4.416-0.416,8.825-1.247,13.227l-9.279,2.47l-14.659-27.885c4.018-2.693,7.641-4.04,10.873-4.04h0.115
		C287.441,278.737,289.758,279.508,291.989,281z M174.77,270.936c4.479,0,9.141,1.77,13.989,5.309l-19.229,29.109h-10.042
		c-0.523-3.57-0.784-7.049-0.784-10.434c0-5.464,0.607-10.742,1.823-15.836c1.416-2.186,3.231-4.009,5.448-5.471
		c2.739-1.785,5.656-2.678,8.749-2.678H174.77z M159.973,308.216h9.441l14.866,27.308l-3.601,10.389
		c-5.279-5.033-9.688-10.719-13.228-17.06C163.882,322.373,161.389,315.495,159.973,308.216z M271.006,335.686l-33.494-0.646
		c0.723-7.941,4.602-16.628,11.635-26.062c8.525-11.403,16.043-19.605,22.553-24.607l14.589,27.815L271.006,335.686z
		 M288.873,313.502l8.473-2.239c-1.678,7.003-4.379,13.597-8.104,19.782c-3.631,6.08-8.109,11.488-13.435,16.229l-2.517-9.88
		L288.873,313.502z M273.406,349.352c-6.263,5.094-13.148,8.986-20.66,11.68c-2.508-1.262-4.854-2.916-7.04-4.963
		c-3.785-3.57-6.286-7.633-7.502-12.188c-0.462-1.894-0.731-3.895-0.808-6.002l33.287,0.646L273.406,349.352z M228.37,337.717
		c0,5.648-1.8,11.088-5.401,16.32c-3.247,4.709-6.764,7.771-10.549,9.188l-6.395-1.916c3.139-1.523,5.986-3.471,8.541-5.84
		c3.602-3.309,6.217-7.172,7.849-11.588c0.769-2.108,1.3-4.201,1.593-6.279l4.362,0.047V337.717z M234.557,337.809
		c0.078,2.479,0.385,4.74,0.924,6.787c1.139,4.232,3.216,8.057,6.232,11.473c2.108,2.4,4.57,4.463,7.387,6.188l-3.186,0.854
		c-3.862-1.523-7.063-3.855-9.604-6.994c-3.831-4.771-5.531-10.889-5.101-18.352L234.557,337.809z M202.217,359.9
		c-7.08-2.955-13.497-6.926-19.252-11.911l3.878-11.149l34.28,0.716c-0.292,1.893-0.754,3.655-1.386,5.286
		c-1.784,4.879-4.932,9.033-9.44,12.465C207.711,357.277,205.018,358.809,202.217,359.9z M186.681,334l-14.75-27.169l19.067-28.832
		c6.448,5.232,13.12,13.427,20.014,24.585c7.464,12.234,10.918,22.945,10.364,32.132L186.681,334z"/>
	<path fill-rule="evenodd" clip-rule="evenodd" fill="#020202" d="M186.635,333.932l34.695,0.715
		c0.554-9.172-2.908-19.883-10.389-32.133c-6.878-11.141-13.542-19.336-19.99-24.584l-19.067,28.855L186.635,333.932z
		 M202.146,359.832c2.816-1.094,5.518-2.617,8.104-4.571c4.508-3.432,7.655-7.587,9.441-12.466c0.615-1.646,1.068-3.416,1.361-5.309
		l-34.256-0.693l-3.878,11.127C188.674,352.922,195.083,356.893,202.146,359.832z M234.511,337.764l-3.347-0.047
		c-0.432,7.464,1.262,13.581,5.078,18.352c2.555,3.14,5.764,5.471,9.626,6.994l3.162-0.877c-2.801-1.708-5.255-3.762-7.364-6.163
		c-3.031-3.432-5.108-7.256-6.232-11.473C234.881,342.503,234.572,340.24,234.511,337.764z M228.324,337.602l-4.363-0.046
		c-0.291,2.077-0.822,4.171-1.592,6.278c-1.632,4.402-4.256,8.264-7.872,11.588c-2.539,2.37-5.379,4.316-8.519,5.84l6.395,1.917
		c3.785-1.432,7.303-4.493,10.55-9.188c3.601-5.247,5.401-10.696,5.401-16.343V337.602z M273.361,349.305l-2.748-10.826
		l-33.264-0.67c0.062,2.124,0.332,4.133,0.809,6.025c1.199,4.556,3.701,8.618,7.502,12.188c2.186,2.031,4.532,3.687,7.041,4.963
		C260.195,358.293,267.082,354.398,273.361,349.305z M288.805,313.455l-15.559,23.869l2.516,9.903
		c5.309-4.74,9.787-10.149,13.435-16.228c3.725-6.203,6.417-12.797,8.079-19.783L288.805,313.455z M270.938,335.639l15.305-23.498
		l-14.59-27.816c-6.51,4.986-14.027,13.181-22.553,24.584c-7.033,9.434-10.918,18.121-11.657,26.062L270.938,335.639z
		 M169.368,308.146h-9.441c1.416,7.295,3.909,14.182,7.479,20.66c3.54,6.34,7.949,12.02,13.228,17.036l3.601-10.364L169.368,308.146
		z M174.677,270.889c-3.093,0-6.009,0.893-8.749,2.678c-2.216,1.463-4.04,3.286-5.471,5.471c-1.201,5.095-1.8,10.373-1.8,15.836
		c0,3.387,0.253,6.864,0.762,10.434h10.064l19.229-29.131c-4.848-3.524-9.511-5.287-13.989-5.287H174.677z M125.924,244.504
		l-4.248-4.27c-0.908,2.908-1.508,5.57-1.801,7.986c-0.661,5.387-0.192,10.734,1.408,16.043c0.877,2.955,2.155,6.033,3.832,9.234
		c0.323-5.818,1.616-11.55,3.878-17.197c1.308-3.433,3.055-7.041,5.24-10.827l-6.164-18.467c-0.8,1.276-1.624,2.677-2.47,4.2
		c-1.462,2.555-2.662,5.256-3.601,8.104C123.416,241.496,124.724,243.227,125.924,244.504z M114.89,206.462
		c-1.231,4.34-1.523,8.787-0.877,13.343c0.554,3.816,1.631,7.51,3.232,11.08l2.354,4.594c0.646-1.893,1.539-3.916,2.678-6.071
		c1.046-2.077,2.485-4.463,4.316-7.155l-7.594-25.185C117.106,200.314,115.736,203.445,114.89,206.462z M137.997,214.656
		l-0.808,0.878c-2.77,3.093-5.209,6.063-7.317,8.91l0.092,0.208l5.632,18.467c1.678-2.646,3.17-4.848,4.478-6.602l3.947-5.079
		L137.997,214.656z M175.324,202.814l-6.164-12.303l-0.069,0.046c-5.864,3.247-11.473,7.018-16.829,11.311l-7.917,6.626
		l-4.594,4.408l5.518,17.059l6.071-6.786l8.356-8.241l9.026-7.433L175.324,202.814z M139.913,176.684l-9.118,6.948l7.548,24.792
		l11.242-9.879c5.463-4.34,11.311-8.203,17.543-11.588l0.231-0.162l-9.349-20.106c-3.971,1.785-7.564,3.624-10.78,5.517
		L139.913,176.684z M121.677,193.143l-0.6,0.808l7.363,25.692l8.034-9.349l-7.918-24.654
		C125.862,188.118,123.569,190.619,121.677,193.143z M113.32,146.306c-1.385,2.585-2.224,5.463-2.516,8.633l8.957,34.488
		c2.37-3.063,4.863-5.779,7.479-8.149l-4.64-15.905c-2.216-8.125-3.816-14.212-4.802-18.259l-1.315-5.448
		C115.128,143.297,114.074,144.843,113.32,146.306z M141.552,127.192l-3.924,1.293c-1.493,0.508-2.439,0.877-2.839,1.108
		l-5.355,2.401c-3.894,2-7.079,4.078-9.557,6.232l-1.154,1.131l10.827,39.958l8.079-6.187l7.479-4.64
		c3.54-2.077,7.271-3.932,11.196-5.563l-0.254-0.669c-2.478-5.571-4.632-10.557-6.463-14.958L141.552,127.192z M168.606,125.207
		l-5.194-1.039l-11.357,0.438c-2.293,0.339-4.902,0.908-7.826,1.708l14.381,35.618l2.517-0.993c5.494-2,11.118-3.201,16.874-3.601
		l10.596,0.6L168.606,125.207z M301.593,286.84l0.231,0.208l-0.162,0.115c0.292,2.692,0.438,5.263,0.438,7.71
		c0,20.145-7.163,37.373-21.49,51.686c-14.266,14.28-31.494,21.421-51.686,21.421c-20.175,0-37.403-7.141-51.684-21.421
		c-14.312-14.313-21.468-31.541-21.468-51.686s7.156-37.373,21.468-51.685s31.541-21.468,51.684-21.468
		c18.729,0,35.049,6.279,48.961,18.836C291.689,253.053,299.592,268.48,301.593,286.84z M284.995,278.645h-0.115
		c-3.247,0-6.872,1.348-10.872,4.04l14.635,27.862l9.303-2.446c0.831-4.417,1.246-8.826,1.246-13.228l-0.322-6.947
		c-2.401-3.171-4.717-5.502-6.949-6.995C289.705,279.438,287.396,278.676,284.995,278.645z M270.291,281.762l-3.394-6.44
		c-8.741,4.909-16.697,13.866-23.868,26.869c-6.233,11.296-10.058,21.86-11.473,31.694l-0.116,0.924l3.163,0.115
		c0.661-8.418,4.725-17.651,12.188-27.701C255.794,295.204,263.627,286.717,270.291,281.762z M269.414,274.052l3.231,6.071
		c4.401-2.879,8.479-4.316,12.234-4.316h0.115c4.586,0,8.956,2.238,13.111,6.717l-1.038-4.871
		C288.004,271.035,278.785,269.835,269.414,274.052z M277.77,249.352c0-2.077-0.308-4.039-0.923-5.886
		c-5.679-5.248-11.903-9.403-18.675-12.466l-7.779,6.833l15.213,28.901c4.139-2.078,7.248-4.648,9.325-7.711
		C276.869,256.146,277.816,252.922,277.77,249.352z M282.525,249.467l-2.008-2.285c0.537,4.986-0.523,9.465-3.187,13.436
		c-2.323,3.462-5.778,6.355-10.364,8.679l1.686,3.231c5.617-3.246,9.549-7.417,11.795-12.511
		C281.941,256.662,282.633,253.146,282.525,249.467z M217.844,237.325l-18.028,27.285c7.309,5.31,17.343,8.071,30.101,8.287
		c13.942,0,24.962-1.67,33.056-5.009l-15.258-28.971L217.844,237.325z M190.305,273.774l2.724-4.155
		c-6.633-4.186-12.919-5.84-18.859-4.963c-4.032,0.585-7.656,2.263-10.873,5.033l-1.039,3c3.678-3.094,7.795-4.663,12.35-4.709
		h0.115C179.756,267.98,184.95,269.912,190.305,273.774z M198.269,273.451l-2.886-2.193l-2.793,4.271
		c6.771,5.463,13.697,13.965,20.775,25.508c7.757,12.604,11.381,23.83,10.873,33.679l4.039,0.046
		c-0.445-9.91-2.707-19.783-6.785-29.616C216.136,292.326,208.395,281.762,198.269,273.451z M198.223,266.941l-1.477,2.309
		c8.818,7.248,20.26,10.873,34.326,10.873c14.712,0,26.385-2.094,35.019-6.279l-1.755-3.348c-8.372,3.51-19.868,5.264-34.487,5.264
		C216.49,275.529,205.948,272.59,198.223,266.941z M187.235,238.318c-0.107,2.77,0.2,5.662,0.923,8.679
		c1.247,5.11,3.509,9.503,6.787,13.181l2.631,2.632l17.799-27.008l-5.125-8.68C201.862,229.415,194.191,233.146,187.235,238.318z
		 M186.034,250.113c-0.984-3.094-1.531-6.278-1.639-9.557l-3.162,2.725c0.723,3.432,1.885,6.84,3.485,10.227
		c2.478,5.354,5.756,9.964,9.833,13.826l1.432-2.123l-3.232-3.186C189.689,258.578,187.451,254.607,186.034,250.113z
		 M248.107,236.078l7.156-6.348c-8.449-3.447-17.229-5.17-26.34-5.17c-5.277,0-10.541,0.615-15.789,1.846l4.756,8.08
		L248.107,236.078z M186.357,179.754c5.618-1.216,11.104-1.493,16.459-0.831l-11.588-16.99c-3.893-0.954-8.21-1.231-12.95-0.831
		c-4.878,0.4-10.126,1.639-15.743,3.716l-2.285,0.947l8.633,20.268C174.562,183.109,180.387,181.016,186.357,179.754z
		 M208.104,183.078l5.354,7.987l1.386,0.092c5.017,0.339,10.133,1.523,15.35,3.555c-3.062-2.693-6.14-4.917-9.232-6.671l1.038,3.347
		l-1.639-3.717C216.451,185.563,212.365,184.032,208.104,183.078z M193.675,193.904l5.355-1.546l10.619-1.362h1.801v-0.046
		l-6.117-8.426l-0.231-0.046c-5.571-0.877-11.542-0.569-17.913,0.923c-5.401,1.247-10.957,3.378-16.667,6.395l5.518,12.581
		C181.533,198.806,187.412,195.982,193.675,193.904z M213.458,176.684c-2.616-3.201-5.363-5.917-8.241-8.148
		c-2.954-2.216-6.324-4.017-10.11-5.402l10.55,16.228c4.34,0.77,8.51,2.193,12.512,4.271
		C216.629,181.047,215.059,178.73,213.458,176.684z M99.77,107.57L97.9,88.711l5.24,31.532l6.117,27.978
		c0.293-1.169,0.693-2.262,1.201-3.278c1.093-2.555,2.755-5.086,4.986-7.595l-5.194-24.815l-4.363-27.978l-1.754-18.583
		l6.602,38.412l6.902,30.817c2.908-2.616,6.202-4.909,9.879-6.879l5.748-2.678l6.764-2.447l-8.079-22.737l-8.264-27.747
		l-2.608-11.311c-0.338-1.354-0.908-4.271-1.708-8.749l-1.316-7.664l7.226,27.285l4.085,12.996l13.343,37.096
		c2.77-0.8,5.686-1.416,8.749-1.847c4.155-0.662,8.302-0.685,12.442-0.069l2.308,0.438l-6.395-11.75l-12.742-26.547l-4.363-10.873
		c-0.539-1.277-1.1-2.808-1.685-4.593l-3.878-11.427l17.636,38.643l15.143,27.585c1.97,0.739,3.647,1.539,5.032,2.401
		c3.047,1.832,5.633,4.163,7.756,6.994c1.631,2.155,3.047,4.686,4.247,7.595c0.77,1.97,1.394,4.086,1.871,6.348l0.6,4.201
		l0.046,1.478c-0.216-1.385-0.708-3.209-1.478-5.471c-0.723-2.062-1.577-4.024-2.563-5.886c-1.385-2.585-2.916-4.824-4.594-6.717
		c-2.216-2.416-4.693-4.332-7.433-5.748l-0.646-0.323l19.621,32.017l1.731,0.6c4.556,1.523,8.764,3.932,12.626,7.225
		c2.924,2.432,5.603,5.471,8.033,9.118c1.709,2.478,3.201,5.171,4.479,8.08l0.23,0.484l2.17,1.316
		c3.756,2.293,7.441,5.371,11.059,9.234l1.453,1.639c4.125,2.047,8.265,4.855,12.42,8.426c3.093,2.771,5.932,5.702,8.518,8.795
		c1.678,2.001,3.225,4.108,4.64,6.325l1.431,2.354c-1.431-2.14-3.67-4.848-6.717-8.126c-2.77-3-5.74-5.701-8.91-8.102
		c-2.447-1.848-5.056-3.555-7.826-5.125l5.311,8.68l1.038,2.309c-1.062-2.078-2.809-4.725-5.239-7.941l-3.671-4.409l-2.886-1.385
		c-5.355-2.247-10.88-3.555-16.574-3.924l13.227,19.298l-15.027-19.414c-6.217-0.185-12.55,0.877-18.998,3.186
		c-5.755,2.031-11.48,4.94-17.174,8.726l3.347,7.502l-3.832-7.226l-1.523,1.039c-1.031,0.661-2.524,1.771-4.479,3.323l-8.703,7.271
		l-12.026,12.188l-3.647,4.271l-0.046,0.047l8.956,26.338l-10.064-24.977l-2.286,3.002c-2.231,3-4.293,6.086-6.186,9.256
		l12.304,38.135l-3.278-8.148c-3.54-9.142-6.256-16.39-8.149-21.746l-2.124-6.001c-1.416,2.585-2.585,4.985-3.509,7.202
		c-2.771,6.771-4.186,13.289-4.247,19.552v1.386c1.893,2.646,3.708,4.901,5.447,6.764c2.739,2.954,5.056,5.124,6.948,6.51
		l-2.078-1.432c-1.785-1.277-3.608-2.77-5.471-4.479L128.325,281c0.37,4.693,1.5,9.303,3.394,13.827
		c2.046,4.802,4.709,9.187,7.987,13.157c2.401,3.032,5.187,5.91,8.356,8.634c3.386,2.909,6.209,5.024,8.472,6.349l-2.471-1.316
		l-6.555-4.386c-3.417-2.647-6.44-5.394-9.072-8.241c-3.678-3.939-6.664-8.349-8.957-13.227c-1.093-2.217-2.146-5.109-3.163-8.68
		l-1.27-9.903v-0.484c-2.647-3.709-4.686-7.626-6.117-11.75c-0.754-2.108-1.423-4.802-2.008-8.079l-0.23-9.025
		c0.338-3.57,1.123-7.249,2.354-11.035l-3.277-5.193c-1.97-3.57-3.355-7.371-4.155-11.404c-0.431-2.047-0.685-4.4-0.762-7.063
		c0.077-2.662,0.384-5.156,0.923-7.479c1.062-4.632,3.016-9.095,5.863-13.389l-6.51-24.861l-1.431-3.67
		c-0.877-2.616-1.331-5.378-1.362-8.287l-4.155-19.621l-2.678-15.305L99.77,107.57z"/>
</g>
</svg>
