<?xml version="1.0" encoding="utf-8"?>
<!-- Generator: Adobe Illustrator 16.0.0, SVG Export Plug-In . SVG Version: 6.00 Build 0)  -->
<!DOCTYPE svg PUBLIC "-//W3C//DTD SVG 1.1//EN" "http://www.w3.org/Graphics/SVG/1.1/DTD/svg11.dtd">
<svg version="1.1" id="Layer_1" xmlns="http://www.w3.org/2000/svg" xmlns:xlink="http://www.w3.org/1999/xlink" x="0px" y="0px"
	 width="400px" height="400px" viewBox="0 0 400 400" enable-background="new 0 0 400 400" xml:space="preserve">
<g>
	<path fill-rule="evenodd" clip-rule="evenodd" fill="#B9242A" d="M343.559,128.542c-0.902,1.753-1.55,3.89-1.941,6.41l-0.791,7.329
		c-0.342,3.133-1.627,7.789-3.857,13.97c-0.242,0.674-0.472,1.32-0.689,1.941l-1.34,5.018l-0.32,2.414
		c-0.063,0.767-0.054,1.447,0.026,2.043c3.626-6.913,6.188-12.974,7.687-18.184c0.077-0.262,0.149-0.521,0.217-0.779l1.865-9.756
		l0.127-8.836c-0.08-0.97-0.188-1.937-0.318-2.898l-0.307,0.715L343.559,128.542z M255.041,192.298
		c-0.015,0.03-0.031,0.06-0.051,0.089c2.043,0.937,4.572,3.176,7.585,6.717c2.673,3.218,5.177,5.107,7.509,5.669
		c3.49,0.818,8.02,0.74,13.586-0.229c5.346-0.902,9.518-2.205,12.514-3.909c3.338-1.873,6.615-5.252,9.833-10.139l6.665-10.42
		c-0.021-0.007-0.043-0.016-0.063-0.025c-1.748-0.598-4.051-2.3-6.909-5.107c-2.64-2.605-5.142-4.111-7.509-4.521
		c-2.809-0.442-7.381,0.188-13.713,1.89c-6.675,1.754-11.706,2.503-15.094,2.248l-7.33,8.811
		C258.937,186.938,256.596,189.914,255.041,192.298z M219.543,170.91l6.589,11.9c7.287,3.712,16.438,6.462,27.454,8.249
		c0.902-2.043,3.627-4.954,8.172-8.733c3.951-3.304,6.053-6.359,6.309-9.169c0.012-0.13,0.016-0.266,0.013-0.408
		c-0.026-2.47-1.929-7.05-5.708-13.74c-4.307-7.645-6.547-11.833-6.717-12.564l-27.453-6.896c-2.571,2.061-5.092,4.801-7.561,8.224
		c-1.426,1.953-3.482,5.137-6.167,9.551l-0.013,0.025C215.517,161.708,217.211,166.228,219.543,170.91z M224.037,184.764
		l-0.982-5.031c-0.674-1.816-1.666-3.778-2.976-5.887c-1.081-1.752-2.013-3.416-2.796-4.992c-2.375-4.628-3.537-8.463-3.486-11.506
		c-2.247-1.055-5.201-3.779-8.861-8.172c-3.318-3.995-6.072-6.289-8.262-6.883c-0.013-0.005-0.026-0.009-0.039-0.013
		c0.868,9.364,3.865,18.218,8.99,26.561c4.596,7.491,10.513,13.978,17.748,19.46c0.34-0.818,0.549-1.695,0.627-2.63L224.037,184.764
		z M204.143,92.915v-0.076l-0.051,0.128c-3.626,8.376-6.129,15.562-7.508,21.555c-0.934,4.055-1.546,8.085-1.839,12.092
		l0.434,12.438c0.005,0.147,0.009,0.297,0.013,0.447l0.039,1.455h0.127c1.725-0.527,2.819-1.66,3.282-3.396
		c0.153-0.559,0.243-1.18,0.268-1.864c0-0.013,0-0.025,0-0.038c-0.03-0.323-0.056-0.638-0.077-0.945
		c-0.168-1.96-0.253-3.611-0.255-4.954l0.025-1.238c0.016-0.226,0.033-0.438,0.051-0.639c0.17-1.499,1.592-7.151,4.266-16.958
		c0.063-0.23,0.123-0.46,0.178-0.689l1.494-7.892l0.09-6.129C204.564,95.065,204.385,93.966,204.143,92.915z M230.959,66.048
		c-1.924,0.442-4.572,2.009-7.943,4.699l-2.145,1.762l-9.398,9.475l-0.178,0.307l-0.256,0.23c-0.563,0.697-1.064,1.455-1.508,2.272
		c-1.549,2.469-2.672,5.278-3.371,8.428c-0.092,0.45-0.182,0.91-0.268,1.379l-0.447,4.533v5.389c0.02,0.67,0.055,1.355,0.103,2.056
		v1.405c0.731,0.612,2.18,0.877,4.342,0.791l11.466-0.127c1.227-3.338,5.296-7.424,12.208-12.259
		c6.93-4.887,10.862-8.59,11.799-11.109c0.251-0.634,0.45-1.434,0.601-2.4l0.37-5.849c0-0.043,0-0.085,0-0.128l0.612-7.56
		c0.142-0.683,0.303-1.313,0.486-1.89c-0.014,0.002-0.027,0.002-0.039,0c-1.924,0.284-4.678,0.02-8.262-0.791
		C235.59,65.844,232.865,65.639,230.959,66.048z M306.451,139.548c-0.01,0.166-0.023,0.332-0.039,0.498l-2.387,15.489
		c-0.01,0.034-0.018,0.067-0.026,0.102c-0.009,0.043-0.017,0.085-0.026,0.128l-3.639,11.939c-0.219,0.639-0.449,1.285-0.689,1.94
		c-0.011,0.037-0.023,0.075-0.038,0.115c2.128,0.8,4.589,2.341,7.381,4.623c3.218,2.52,5.559,4.171,7.022,4.954
		c2.096-0.906,4.054-1.941,5.874-3.104c12.69-7.795,19.202-20.943,19.537-39.444l-5.005-7.329c-2.078-2.639-4.3-4.546-6.666-5.721
		C319.203,130.805,312.104,136.075,306.451,139.548z M274.221,95.596c-2.435-0.408-6.972-2.137-13.611-5.185
		c-5.5-2.485-9.893-3.507-13.178-3.064c-1.788,0.238-4.069,1.524-6.845,3.856L234.355,97c-5.602,5.21-9.262,9.093-10.982,11.646
		c0.154,9.683,1.402,18.404,3.742,26.164c0.33,1.149,0.692,2.277,1.086,3.384c3.217,0.085,8.138,1.464,14.761,4.137
		c5.856,2.401,10.317,3.304,13.382,2.708c1.209-0.256,2.997-1.559,5.363-3.908l17.265-16.677c-0.004-0.03-0.009-0.061-0.013-0.089
		c-0.33-2.972-1.16-7.7-2.49-14.187C275.294,104.203,274.545,99.342,274.221,95.596z M294.779,80.503
		c-2.877,0.34-6.375,2.545-10.496,6.614c-4.953,4.903-8.074,7.721-9.359,8.453c-0.014,0.01-0.025,0.019-0.039,0.025
		c0.409,3.048,1.227,7.603,2.452,13.663c1.175,5.908,1.966,10.505,2.374,13.791c2.572,2.128,6.888,4.674,12.949,7.636
		c6.215,3.048,10.59,5.551,13.127,7.509c8.257-4.239,15.357-9.978,21.299-17.213v-1.354c0.029-0.291,0.05-0.585,0.063-0.881
		l-0.063-3.295c-0.086-0.854-0.214-1.735-0.383-2.644c-0.647-3.337-0.988-5.414-1.021-6.231c-0.375,0.085-0.596-0.136-0.664-0.664
		c0-0.042,0-0.085,0-0.127c0.046-2.956-0.848-5.905-2.682-8.85c-1.865-2.933-4.658-5.865-8.377-8.798
		C306.758,82.401,300.363,79.856,294.779,80.503z M278.307,61.298c-0.008-0.042-0.012-0.084-0.012-0.127
		c-0.004-0.084,0.006-0.173,0.025-0.268c0.125-0.651,0.734-1.625,1.826-2.924c0.419-0.526,0.623-0.965,0.613-1.315
		c-0.022-0.427-0.371-0.721-1.049-0.881c-9.107-1.175-17.816-0.885-26.125,0.868c-8.309,1.689-14.902,4.566-19.779,8.632
		c-0.037,0.035-0.076,0.069-0.115,0.103c6.18,1.464,13.468,1.098,21.861-1.098C264.984,61.8,272.57,60.804,278.307,61.298z
		 M305.851,82.725c1.127,0.49,2.246,1.018,3.358,1.583c3.66,1.873,7.789,4.495,12.386,7.866c1.09-0.647,3.099-1.541,6.028-2.682
		c1.912-1.028,2.896-2.182,2.949-3.461c0.016-0.246-0.006-0.497-0.064-0.753c-2.229-3.016-4.725-5.901-7.482-8.657
		c-9.918-9.977-21.203-16.562-33.852-19.754l0.064-0.268c-0.613,0.681-1.669,0.86-3.168,0.536l-3.6-0.664l-2.76,4.827
		c3.457,2.758,6.224,5.355,8.301,7.79c2.69,3.099,4.725,6.436,6.104,10.011c2.326,0.444,4.624,1.04,6.896,1.788
		C302.569,81.292,304.182,81.905,305.851,82.725z M343.763,114.457c1.771,7.194,2.393,14.639,1.864,22.333
		c-0.937,13.264-5.27,25.386-12.999,36.367c-5.124,7.372-11.306,13.621-18.541,18.746c-3.133,2.196-6.47,4.188-10.011,5.976
		c-6.436,3.268-13.008,5.592-19.717,6.971l-6.844,0.971l-14.762,0.051l-11.287-1.889c-3.338-0.801-6.598-1.84-9.781-3.116
		c-1.907-0.767-3.78-1.618-5.619-2.554c-3.133-1.499-6.206-3.244-9.22-5.236c-0.408,0.068-0.647-0.161-0.715-0.689
		c-8.751-5.567-16.141-13.518-22.167-23.853c-5.891-10.216-9.245-20.576-10.063-31.08c-0.937-12.242,0.834-23.998,5.312-35.27
		c4.341-11.066,10.871-20.55,19.588-28.449c5.737-5.21,12.063-9.382,18.975-12.514c3.865-1.754,7.892-3.175,12.08-4.265
		c11.476-3.048,23.461-3.439,35.958-1.175l3.448,0.689l0.038-0.141c12.753,3.209,24.131,9.836,34.132,19.882
		c3.109,3.111,5.884,6.384,8.326,9.819l1.813,2.21c0.919,0.758,2.516,3.729,4.789,8.913c0.031,0.061,0.064,0.133,0.102,0.217
		c0.059,0.14,0.119,0.28,0.18,0.421c0.133,0.308,0.265,0.618,0.396,0.933c0.042,0.098,0.085,0.2,0.128,0.307
		c0.046,0.1,0.093,0.206,0.141,0.318C340.504,102.226,341.99,107.261,343.763,114.457z"/>
	<path fill-rule="evenodd" clip-rule="evenodd" fill="#1B2550" d="M349.125,260.32c-1.804-9.193-5.976-17.758-12.514-25.691
		c-13.075-15.902-31.412-20.781-55.01-14.635v-12.463h76.054v52.789H349.125z M186.215,151.679
		c4.512,3.218,6.649,13.493,6.411,30.825c-0.137,8.666-0.732,17.009-1.788,25.027h23.266v10.063
		c-5.823,0.324-11.441,4.436-16.856,12.336c-2.724,3.984-4.861,7.908-6.41,11.773l-33.379,82.234l-7.764-17.086l27.173-72.146
		c0-9.041-3.09-14.719-9.271-17.033c-1.958-0.732-4.095-1.082-6.411-1.049l-2.937,0.256l-0.664-22.908
		c6.146,0.34,12.752-6.615,19.818-20.865C180.946,165.99,183.883,158.847,186.215,151.679z M349.918,301.412h8.529v52.787h-76.055
		v-12.385c23.598,6.146,41.936,1.242,55.011-14.711C343.941,319.17,348.113,310.605,349.918,301.412z M233.513,218.387h-13.97
		V206.74h55.112v149.783h-58.228v-13.178h17.877c0.902,0.119,1.821-0.068,2.758-0.563c1.787-1.055,2.682-3.191,2.682-6.41V225.408
		c0.238-1.174,0.17-2.332-0.205-3.473C238.739,219.57,236.73,218.387,233.513,218.387z M109.676,74.297l-1.916,3.652v101.617
		c0.34,6.47,2.971,11.008,7.891,13.612c2.435,1.311,4.853,1.967,7.253,1.967l28.271-1.175l-0.307,12.769l-23.266,1.227v9.27
		l-10.496,1.15c-3.371,0-5.346,2.137-5.925,6.408c-0.272,2.164-0.229,4.301,0.128,6.412l41.883,100.111l-11.595,25.563
		l-16.319,1.227L72.85,225.408c-2.401-3.898-6.427-6.418-12.08-7.559l-7.688-0.613v-20.635l22.167-0.307V72.509l-22.167-0.791
		V58.974l81.494-1.175v12.77h-15.145C115.073,70.569,111.821,71.812,109.676,74.297z M317.305,243.234v72.146h-10.063
		c0-5.039-1.055-10.088-3.166-15.145c-4.273-10.078-11.766-15.117-22.475-15.117l0.791-11.596l3.678-0.383
		c2.93-0.527,5.653-1.566,8.173-3.115c8.019-4.922,12.353-13.852,12.999-26.791H317.305z"/>
	<path fill-rule="evenodd" clip-rule="evenodd" fill="#FFFFFF" d="M343.559,128.542l0.357-0.613l0.307-0.715
		c0.131,0.962,0.238,1.929,0.318,2.898l-0.127,8.836l-1.865,9.756c-0.063,0.215-0.127,0.432-0.191,0.651
		c-1.515,5.21-4.077,11.279-7.687,18.209c-0.077-0.568-0.094-1.215-0.052-1.94l0.32-2.414l1.34-5.018
		c0.218-0.621,0.447-1.268,0.689-1.941c2.23-6.181,3.516-10.837,3.857-13.97l0.791-7.329
		C342.009,132.431,342.656,130.294,343.559,128.542z M327.648,89.365c-2.93,1.141-4.947,2.035-6.054,2.682
		c-4.597-3.371-8.726-5.993-12.386-7.866c-4.887-2.485-9.909-4.222-15.068-5.209c-1.396-3.576-3.431-6.913-6.104-10.012
		c-2.07-2.427-4.824-5.015-8.262-7.764l2.695-4.725l3.6,0.664c1.499,0.324,2.555,0.145,3.168-0.536l-0.064,0.268
		c12.648,3.193,23.934,9.778,33.852,19.754c2.758,2.756,5.253,5.642,7.482,8.657c0.059,0.256,0.08,0.507,0.064,0.753
		C330.473,87.26,329.498,88.372,327.648,89.365z M278.295,61.17c-5.734-0.488-13.314,0.508-22.742,2.988
		c-8.323,2.182-15.572,2.557-21.746,1.123c4.877-4.065,11.471-6.943,19.779-8.632c8.309-1.753,17.018-2.043,26.125-0.868
		c0.678,0.16,1.026,0.454,1.049,0.881c-0.039,0.328-0.244,0.724-0.613,1.188c-1.166,1.387-1.774,2.404-1.826,3.052
		C278.301,60.997,278.291,61.086,278.295,61.17z M294.779,80.503c5.584-0.647,11.979,1.897,19.18,7.636
		c3.719,2.933,6.512,5.865,8.377,8.798c1.834,2.944,2.728,5.894,2.682,8.85c0,0.042,0,0.085,0,0.127
		c0.068,0.528,0.289,0.749,0.664,0.664c0.033,0.817,0.374,2.895,1.021,6.231c0.169,0.908,0.297,1.789,0.383,2.644l0.063,3.295
		c-0.017,0.261-0.038,0.521-0.063,0.778v1.328c-5.941,7.253-13.042,12.99-21.299,17.213c-2.52-1.958-6.896-4.461-13.127-7.508
		c-6.062-2.963-10.369-5.509-12.922-7.637c-0.41-3.285-1.21-7.883-2.401-13.791c-1.195-5.991-1.999-10.512-2.413-13.561
		c1.285-0.732,4.406-3.55,9.359-8.453C288.404,83.048,291.902,80.843,294.779,80.503z M285.815,55.782
		c-12.497-2.265-24.482-1.873-35.958,1.175c-4.188,1.09-8.215,2.511-12.08,4.265c9.772-4.683,20.499-7.023,32.179-7.023
		C275.438,54.198,280.725,54.726,285.815,55.782z M274.221,95.596c0.324,3.746,1.073,8.606,2.248,14.583
		c1.33,6.486,2.16,11.215,2.49,14.187l-17.252,16.638c-2.35,2.35-4.137,3.652-5.363,3.908c-3.047,0.612-7.5-0.281-13.356-2.682
		c-6.64-2.69-11.569-4.078-14.786-4.163c-0.381-1.068-0.742-2.153-1.086-3.256c-2.34-7.76-3.588-16.481-3.742-26.164
		c1.721-2.554,5.381-6.437,10.982-11.646l6.231-5.797c2.775-2.332,5.057-3.618,6.845-3.856c3.285-0.442,7.678,0.579,13.178,3.064
		C267.249,93.459,271.786,95.188,274.221,95.596z M306.451,139.548c5.652-3.474,12.752-8.743,21.299-15.809
		c2.366,1.175,4.588,3.082,6.666,5.721l5.005,7.329c-0.335,18.501-6.847,31.649-19.537,39.444c-1.833,1.09-3.782,2.082-5.849,2.976
		c-1.463-0.766-3.805-2.417-7.022-4.954c-2.801-2.258-5.257-3.795-7.368-4.61c0.24-0.655,0.471-1.302,0.689-1.94l3.639-11.939
		c0.01-0.043,0.018-0.085,0.026-0.128c0.009-0.034,0.017-0.067,0.026-0.102l2.387-15.489
		C306.428,139.88,306.441,139.714,306.451,139.548z M230.959,66.048c1.906-0.409,4.631-0.204,8.172,0.613
		c3.584,0.811,6.338,1.075,8.262,0.791c-0.177,0.577-0.325,1.207-0.447,1.89l-0.612,7.56c0,0.043,0,0.085,0,0.128l-0.37,5.849
		c-0.16,0.909-0.36,1.666-0.601,2.272c-0.937,2.521-4.86,6.223-11.773,11.109c-6.929,4.835-10.999,8.922-12.207,12.259
		l-11.492,0.128c-2.146,0.085-3.584-0.179-4.316-0.792v-1.404c-0.048-0.657-0.09-1.3-0.128-1.929v-5.389l0.447-4.533
		c0.086-0.469,0.176-0.929,0.268-1.379c0.699-3.149,1.822-5.959,3.371-8.428c0.443-0.817,0.945-1.575,1.508-2.272l0.256-0.23
		l0.178-0.307l9.398-9.475l2.145-1.762C226.387,68.057,229.035,66.491,230.959,66.048z M204.143,92.915
		c0.242,1.052,0.422,2.15,0.537,3.295l-0.09,6.129l-1.494,7.892c-0.05,0.187-0.102,0.374-0.152,0.562
		c-2.69,9.808-4.121,15.46-4.291,16.958c-0.021,0.238-0.038,0.494-0.051,0.767l-0.025,1.238c0.002,1.343,0.087,2.994,0.255,4.954
		c0.021,0.308,0.047,0.622,0.077,0.945c0,0.013,0,0.025,0,0.038c-0.025,0.685-0.115,1.306-0.268,1.864
		c-0.503,1.664-1.597,2.754-3.282,3.27h-0.102l-0.064-1.328c-0.003-0.15-0.007-0.3-0.013-0.447l-0.434-12.438
		c0.292-4.007,0.905-8.037,1.839-12.092c1.379-5.993,3.882-13.179,7.508-21.555l0.051-0.128V92.915z M224.037,184.764L224,185.671
		c-0.094,0.887-0.303,1.721-0.627,2.502c-7.235-5.482-13.152-11.969-17.748-19.46c-5.1-8.302-8.083-17.108-8.952-26.42
		c2.19,0.594,4.944,2.888,8.262,6.883c3.66,4.393,6.614,7.117,8.861,8.172c-0.051,3.043,1.111,6.878,3.486,11.506
		c0.783,1.576,1.715,3.24,2.796,4.992c1.31,2.108,2.302,4.07,2.976,5.887L224.037,184.764z M219.543,170.782
		c-2.303-4.656-3.992-9.142-5.069-13.459c2.685-4.414,4.741-7.598,6.167-9.551c2.469-3.423,4.989-6.163,7.561-8.224l27.453,6.896
		c0.17,0.731,2.41,4.92,6.717,12.564c3.779,6.69,5.682,11.271,5.708,13.74c0,0.104-0.005,0.207-0.013,0.307
		c-0.238,2.809-2.332,5.856-6.283,9.143c-4.563,3.779-7.287,6.691-8.172,8.734c-11.032-1.788-20.192-4.538-27.479-8.249
		L219.543,170.782z M312.619,180.052l-6.576,10.318c-3.219,4.886-6.496,8.266-9.833,10.138c-3.014,1.72-7.185,3.023-12.514,3.908
		c-5.585,0.988-10.122,1.072-13.612,0.256c-2.315-0.58-4.818-2.477-7.509-5.696c-2.997-3.522-5.509-5.749-7.534-6.678
		c1.555-2.385,3.896-5.36,7.023-8.926l7.33-8.811c3.388,0.255,8.419-0.494,15.094-2.248c6.332-1.702,10.904-2.332,13.713-1.89
		c2.367,0.409,4.869,1.915,7.509,4.521C308.568,177.752,310.871,179.455,312.619,180.052z M314.087,191.903
		c-8.956,6.64-18.864,10.955-29.728,12.947c6.709-1.379,13.281-3.703,19.717-6.971C307.617,196.09,310.954,194.099,314.087,191.903z
		"/>
</g>
</svg>
