<?xml version="1.0" encoding="utf-8"?>
<!-- Generator: Adobe Illustrator 16.0.0, SVG Export Plug-In . SVG Version: 6.00 Build 0)  -->
<!DOCTYPE svg PUBLIC "-//W3C//DTD SVG 1.1//EN" "http://www.w3.org/Graphics/SVG/1.1/DTD/svg11.dtd">
<svg version="1.1" id="Layer_1" xmlns="http://www.w3.org/2000/svg" xmlns:xlink="http://www.w3.org/1999/xlink" x="0px" y="0px"
	 width="400px" height="400px" viewBox="0 0 400 400" enable-background="new 0 0 400 400" xml:space="preserve">
<g>
	<path fill="#10101F" d="M339.178,146.599c1.934,2.606,3.161,6.063,3.688,10.368c0.384,4.832,0.82,8.419,1.317,10.764
		c-0.087,0.38,0.074,0.659,0.484,0.834c0.527,0.177,0.806,0.322,0.834,0.438c0.41,1.814,0.688,3.223,0.835,4.219
		c0.354,1.671,0.091,2.857-0.789,3.558c0.702,0.353,1.099,1.215,1.187,2.593c0,1.758,0.104,2.826,0.31,3.208
		c-0.441-0.762-1.275-1.654-2.506-2.681c-1.257-0.937-2.11-1.873-2.55-2.81c-0.379-1.085-0.669-2.666-0.875-4.744
		c-0.41-1.815-1.173-3.09-2.288-3.823c-0.758-3.28-1.712-5.373-2.854-6.282c-1.288-4.335-3.295-9.562-6.018-15.684
		c-1.086-1.61-2.681-4.317-4.789-8.126c-1.933-3.456-3.738-6.136-5.409-8.038c-0.581-0.614-2.914-2.753-6.982-6.413
		c-3.045-2.578-5.055-4.98-6.02-7.206c-0.383-0.791-0.686-1.991-0.923-3.602c-0.206-0.587-0.616-1.216-1.23-1.889l-1.803-1.583
		c-1.962-2.343-4.406-6.429-7.334-12.256c-1.144-1.728-2.988-3.501-5.535-5.315c-1.437-1.085-3.471-2.535-6.106-4.349
		c-0.997-0.76-2.244-1.891-3.735-3.383c-1.437-1.142-2.856-1.756-4.262-1.844c-4.657-4.011-9.986-6.955-15.991-8.83
		c-1.521-0.731-3.586-1.891-6.195-3.471c-2.374-1.434-4.686-2.224-6.942-2.374c-0.028-0.145-0.276-0.54-0.746-1.186
		c-13.442-3.367-20.795-5.258-22.052-5.668c-4.041-0.379-10.471-0.645-19.286-0.791c-0.379-0.057-1.653-0.234-3.82-0.528
		c-1.438-0.175-2.639-0.175-3.603,0c-0.527,0.058-1.113,0.264-1.76,0.616c-0.731,0.38-1.42,0.484-2.063,0.306
		c-3.196-0.409-6.077-0.409-8.657,0c-2.314,0.527-4.583,0.881-6.809,1.055c-2.84,0.323-6.723,1.26-11.644,2.813
		c-5.593,1.844-9.368,2.971-11.33,3.38c-2.522,0.527-5.976,1.701-10.367,3.516c-6.736,2.667-10.854,5.301-12.346,7.909
		c-0.705-0.498-1.657-0.557-2.856-0.175c-1.29,0.499-1.918,1.245-1.892,2.241c-4.599,1.2-9.648,4.23-15.154,9.093
		c-1.026,1.553-1.935,2.638-2.727,3.252c-0.439,0.439-1.067,0.792-1.89,1.055c-1.022,0.409-1.669,0.703-1.933,0.88
		c-1.345,0.937-2.868,2.855-4.57,5.754c-1.579,0.997-3.833,3.164-6.764,6.504c-2.398,3.013-4.669,4.875-6.809,5.58
		c-0.47,4.48-2.034,7.292-4.703,8.432c-0.993,2.578-2.619,5.537-4.874,8.875c-2.58,3.661-4.47,6.456-5.669,8.39
		c-0.206,1.171-0.115,2.096,0.26,2.769c-0.346,0.234-0.67,0.676-0.965,1.318c-0.292,0.528-0.612,0.896-0.966,1.1
		c-0.525,2.346-1.579,5.273-3.161,8.787c-1.902,3.777-3.105,6.576-3.602,8.391c0.175,1.991-0.542,4.246-2.153,6.765
		c0.177,1.992,0.276,3.428,0.307,4.306c0.146,1.728-0.031,3.017-0.525,3.865c0.058,1.962-0.264,4.467-0.966,7.513
		c-0.792,2.988-1.07,5.592-0.834,7.82c-0.12,0-0.295,0.146-0.528,0.438c-0.058,0.234-0.292,0.338-0.705,0.308
		c1.376,2.315,1.086,3.91-0.878,4.79c0.701,3.193,1.245,5.082,1.626,5.666c-0.703,2.227-0.983,4.964-0.834,8.215
		c0.321,3.837,0.499,6.736,0.527,8.699c0.086,0.38,0.233,0.426,0.437,0.133c0.354-0.144,0.544-0.104,0.573,0.133
		c-0.029,0.409-0.427,0.717-1.187,0.922c-0.676,0.353-0.911,0.779-0.705,1.274c-0.058,0.498,0.029,0.6,0.264,0.307
		c0.206-0.117,0.354,0.059,0.441,0.527c-0.208,0.41-0.441,0.631-0.705,0.661c-0.499,0.056-0.862,0.173-1.099,0.351
		c1.669,0.878,2.78,2.271,3.336,4.173c-0.292-0.204-0.612-0.264-0.964-0.175c-0.379,0.144-0.47,0.47-0.262,0.966
		c0.056,0.233,0.13,0.221,0.216-0.043c0.177-0.41,0.412-0.453,0.705-0.132c0.528,3.454,0.792,6.001,0.792,7.644
		c0.177,0.319,0.63,0.364,1.362,0.13c0.587-0.204,0.892-0.248,0.925-0.13c-0.354,0.789-0.322,1.786,0.086,2.985
		c0.47,1.319,0.571,2.314,0.307,2.988c0.381,0.178,0.6,0.511,0.657,1.01c0.206,0.499,0.458,0.837,0.748,1.012
		c-0.058,0.525-0.235,0.614-0.527,0.264c-0.439-0.294-0.629-0.645-0.571-1.055c-0.47,0.089-0.499,0.484-0.087,1.188
		c0.289,0.557,0.058,0.835-0.705,0.835l3.031,1.271c-0.118,0.733,0.06,1.453,0.527,2.155c0.674,1.173,1.041,1.95,1.099,2.329
		c-0.964,0.847-1.479,1.669-1.537,2.46c0.585,0.38,0.995,0.598,1.23,0.66c0.292,0.23,0.67,0.132,1.142-0.31
		c0.616,1.639,1.055,2.885,1.317,3.736c0.437,1.316,0.367,2.473-0.221,3.468c2.228,1.438,3.456,3.252,3.691,5.449
		c0.998,0.849,2.077,2.621,3.25,5.316c1.201,2.959,2.271,4.936,3.208,5.931l0.396,3.12c1.319,0.177,2.329,0.965,3.034,2.374
		c0.7,1.257,0.995,2.46,0.877,3.603c0.528-0.295,0.878-0.209,1.055,0.264c0.319,0.437,0.631,0.57,0.923,0.394
		c0.876,1.114,1.039,2.079,0.482,2.899c0.645-0.206,1.275,0.144,1.892,1.055c0.878,0.997,1.611,1.566,2.195,1.715
		c0.208,1.492,1.055,3.12,2.549,4.878c1.727,2.137,2.844,4,3.338,5.578c-0.703-0.408-1.727-0.952-3.075-1.626
		c-1.376-0.67-2.283-1.548-2.724-2.634c-2.605-1.847-4.538-4.247-5.799-7.206c-0.703,0.145-1.42-0.046-2.151-0.573
		c-0.12-1.873-1.305-3.936-3.561-6.194c-2.401-2.547-3.821-4.48-4.262-5.797c-1.698-5.974-4.072-9.56-7.118-10.764l-0.348-2.066
		c-0.324-0.643-0.983-1.713-1.977-3.209c-0.705-1.374-1.012-2.506-0.925-3.384c-1.379-0.819-2.331-2.518-2.858-5.094
		c-0.672-3.75-1.144-5.988-1.408-6.722c-0.554-1.171-1.535-2.654-2.942-4.439c-1.229-1.582-1.991-2.855-2.284-3.822
		c-0.468-1.319-0.806-3.514-1.012-6.588c-0.321-1.23-1.142-3.31-2.46-6.24c-0.995-2.341-1.55-4.274-1.669-5.799
		c0.058-0.614,0.161-1.99,0.307-4.13c0.206-1.814,0.233-3.278,0.089-4.396c-0.292-0.291-0.866-0.276-1.714,0.044
		c-0.909,0.439-1.525,0.541-1.847,0.309c0.557-1.936,1.583-3.134,3.075-3.603c-0.909-4.158-1.156-9.343-0.746-15.551
		c0.499-8.201,0.746-13.194,0.746-14.98c-0.086-3.017,0.573-6.822,1.978-11.421c1.847-6.064,2.885-9.854,3.12-11.378
		c0.091-0.411,0.309-1.903,0.662-4.48c0.264-1.671,0.6-3.047,1.012-4.132c1.756-4.274,3.998-7.746,6.722-10.412
		c3.075-10.103,7.876-18.698,14.404-25.784l-0.173-1.274c10.135-12.828,25.479-26.166,46.037-40.017
		c0.497-0.733,1.084-1.891,1.756-3.47c1.261,0.175,2.947-0.264,5.053-1.319c2.519-1.435,4.554-2.462,6.108-3.077
		c5.301-2.196,8.729-3.483,10.279-3.866c-0.585-0.789-0.688-1.539-0.305-2.239c0.494-0.821,0.598-1.45,0.305-1.891
		c1.23,0.703,2.064,0.454,2.506-0.747c0.408-1.2,0.28-1.992-0.396-2.372c0.115-0.03,1.316,0.088,3.602,0.352
		c1.525-1.61,3.219-1.989,5.097-1.142c1.786,0.848,3.105,2.342,3.952,4.482c1.173,0.352,2.401,0.276,3.688-0.22
		c1.698-0.616,2.974-0.981,3.823-1.099c2.374-0.614,5.535-1.172,9.487-1.669c4.453-0.469,7.468-0.878,9.051-1.23
		c13.354-0.323,23.344,0.03,29.961,1.055c3.837,0.644,6.94,0.908,9.311,0.792c1.055,0.353,6.942,2.285,17.66,5.799
		c7.233,2.255,12.81,4.64,16.737,7.16c2.695,0.468,4.555,1.508,5.579,3.119c3.074,0.673,6.677,2.387,10.808,5.141
		c4.688,3.131,8.052,5.109,10.103,5.932c1.463,1.521,3.779,3.57,6.942,6.15c3.308,2.605,5.636,4.614,6.985,6.017
		c1.142,0.821,2.09,1.246,2.854,1.274c1.902,2.724,4.993,5.757,9.273,9.093c6.85,8.61,11.754,15.126,14.716,19.549
		c0.789,2.021,2.649,5.888,5.58,11.598C336.557,138.662,338.24,142.852,339.178,146.599z M339.178,246.803
		c0.321,1.2-0.146,2.152-1.407,2.856c0.559,1.142,0.472,2.593-0.262,4.351c-0.705,1.873-0.981,3.369-0.835,4.478
		c-0.498-0.058-0.836,0.235-1.012,0.88c-0.145,0.674-0.468,0.981-0.966,0.926c0.262,1.578-0.145,3.087-1.23,4.525
		c-1.523,2.105-2.314,3.293-2.374,3.557c-0.349,0.177-0.569,0.091-0.657-0.264c-0.061-0.495-0.204-0.746-0.439-0.746
		c-0.498,1.142-0.865,2.034-1.101,2.679c-0.47,1.086-0.598,1.921-0.396,2.508l-1.714,1.229l0.438,0.527
		c0.295,0.178,0.338,0.41,0.134,0.703c-0.29-0.235-0.731-0.293-1.316-0.178c-0.031,0.616,0.204,0.88,0.7,0.792
		c-0.847,1.055-2.137,3.396-3.866,7.028c-1.405,3.106-2.944,5.271-4.613,6.502c-0.204,1.199-0.278,1.859-0.219,1.979
		c-0.847,0.496-2.37,2.168-4.566,5.008c-1.845,2.666-3.471,4.232-4.88,4.702c-3.866,6.149-10.133,11.829-18.798,17.042l0.132-0.964
		c-0.499,0.086-1.01,0.218-1.537,0.394c-0.382,0.177-0.775,0.177-1.186,0c-0.765,0.735-1.071,1.597-0.923,2.595
		c-1.23,0.203-2.389,0.892-3.475,2.064c-1.024,1.521-1.858,2.604-2.504,3.25c-0.381-0.233-1.174-0.134-2.372,0.307
		c-0.733,0.382-1.201,0.208-1.405-0.527c-0.41,0.587-0.587,1.496-0.527,2.725c-0.381,0.058-1.261,0.498-2.636,1.318
		c-0.878,0.644-1.669,0.775-2.37,0.396c-0.563,1.348-1.992,2.14-4.307,2.372c-2.372,0.382-3.779,1.099-4.218,2.153
		c-0.468,0.178-1.828,0.82-4.087,1.934c-1.725,1.023-3.132,1.552-4.218,1.582c-0.172-1.846-0.276-2.578-0.306-2.196
		c-0.589-0.41-0.412-0.822,0.525-1.229c0.818-0.472,1.509-0.499,2.065-0.091c-0.089-0.614,0.559-1.348,1.933-2.196
		c1.403-0.701,2.446-0.865,3.122-0.482c0.291-1.171,0.965-1.715,2.02-1.628c-0.087-0.379-0.204-0.685-0.351-0.921
		c-0.146-0.204-0.117-0.472,0.089-0.792l0.087,0.398c0.321,0.583,0.645,0.731,0.966,0.437c0.555-0.468,0.967-0.598,1.229-0.394
		l-0.262-2.021c0.117,0.234,0.351,0.206,0.703-0.089c0.41-0.323,0.834-0.468,1.273-0.438c1.64-2.372,3.985-4.612,7.026-6.723
		c1.496-0.936,4.322-2.563,8.482-4.875l2.021-1.451c1.9-1.789,4.787-4.744,8.653-8.873c3.571-3.691,6.868-6.327,9.885-7.907
		c2.108,0.817,3.835-0.074,5.186-2.682c1.988-3.573,3.163-5.506,3.513-5.799c0.794-2.868,1.478-4.801,2.065-5.799
		c1.114-1.901,2.563-3.063,4.353-3.47c1.11-3.458,3.074-7.396,5.883-11.82c0.262-0.056,0.441,0.234,0.527,0.878
		c0.091,0.44,0.324,0.63,0.705,0.572c0.23-3.161,0.264-4.859,0.087-5.094c0.614-0.353,1.038-0.544,1.275-0.573l-1.053-0.57
		c1.229-0.555,1.714-1.682,1.45-3.382c-0.353-1.991,0.087-3.516,1.314-4.571c-0.055-1.257,0.734-2.267,2.372-3.029l-0.305,0.837
		c-0.089,0.26-0.266,0.365-0.529,0.305c0.44,0.265,0.938,0.12,1.494-0.437c0.496-0.702,1.025-0.849,1.58-0.44l-0.264-0.746
		c0.383-0.033,0.602-0.12,0.659-0.264c-1.144-1.729-0.544-2.871,1.802-3.43l0.266,1.804c0.351,0.06,0.57-0.159,0.657-0.658
		c0.058-0.531,0.177-0.894,0.353-1.1C337.42,246.832,338.24,246.919,339.178,246.803z M328.677,254.094
		c0.354-0.206,0.659-0.191,0.923,0.046c-0.087-0.614-0.191-0.907-0.307-0.878c-0.118,0-0.336,0.145-0.662,0.437
		C328.398,254.108,328.413,254.24,328.677,254.094z M328.765,257.082c-0.146-0.763-0.338-1.127-0.572-1.101l-0.482,0.484
		c-0.115,0.146-0.072,0.397,0.132,0.748L328.765,257.082z M66.374,251.593c0.354-0.178,0.458-0.441,0.309-0.796l-1.405-0.396
		c0.144,0.266,0.194,0.646,0.132,1.144c0.091,0.351,0.321,0.559,0.701,0.614C66.11,252.072,66.201,251.883,66.374,251.593z
		 M173.872,346.827c-23.225-4.217-41.427-11.507-54.605-21.877c-0.233-0.82-0.674-1.624-1.317-2.415
		c-1.022-0.354-1.538-0.98-1.538-1.89c3.633,0.964,6.327,2.562,8.086,4.787c0.26-0.029,0.466-0.173,0.61-0.437
		c0.208-0.41,0.515-0.586,0.925-0.528c4.569,2.78,7.148,4.464,7.732,5.054c3.221,0.702,8.947,2.443,17.176,5.226
		c7.146,2.287,12.917,3.866,17.311,4.748c1.463,1.492,3.733,2.504,6.811,3.031c3.6,0.351,6.237,0.629,7.902,0.835
		c0.178,0.383,0.809,0.791,1.89,1.231c0.909,0.38,1.466,0.848,1.672,1.401c0.733-0.346,1.611-0.407,2.636-0.173
		c1.055,0.233,1.877,0.672,2.46,1.319c-0.088,0.23-0.017,0.643,0.221,1.228c-1.607-0.47-4.245-0.787-7.909-0.964
		c-3.66-0.063-6.265-0.412-7.818-1.056C175.407,346.668,174.661,346.827,173.872,346.827z M220.348,346.479
		c-0.789,0-1.669-0.06-2.634-0.177c-0.266-0.85,0.161-1.23,1.271-1.142c-0.906,0.527-0.806,0.7,0.31,0.527
		c0.906,0,1.156-0.369,0.746-1.099l0.834,0.614c0.267-0.148,0.69-0.325,1.276-0.527C222.443,345.908,221.84,346.508,220.348,346.479
		z M251.273,335.716c0.321,0.41,0.496,0.804,0.527,1.187c-0.058,0.293-0.499,0.365-1.316,0.219c-0.47-0.056-0.573,0-0.31,0.173
		c-0.645,0.765-0.746,0.47-0.307-0.878c0.407-1.197,0.949-1.77,1.626-1.712C251.144,335.145,251.071,335.477,251.273,335.716z
		 M244.203,338.833c0.643,0.178,1.142,0.146,1.492-0.088c0.058,0.353-0.219,0.598-0.835,0.746c-0.585,0.086-1.039,0.045-1.362-0.132
		C243.587,338.951,243.821,338.773,244.203,338.833z M209.851,345.599c2.374-0.089,3.911,0.189,4.614,0.837
		c-0.031,0.523-0.439,0.717-1.23,0.57c-0.733-0.147-1.199-0.397-1.405-0.748c-0.264,0.82-0.998,1.245-2.197,1.276
		c-0.234-0.473-0.234-0.835,0-1.099C209.808,346.141,209.879,345.86,209.851,345.599z M216.132,344.853l0.527,0.66
		c0,0.117-0.264,0.218-0.791,0.309c0.03,0.264,0.175,0.367,0.438,0.308c-0.295,0.702-0.6,0.63-0.921-0.221
		C215.15,345.203,215.398,344.853,216.132,344.853z"/>
	<path fill="#4067B1" d="M331.446,106.054c-0.354-0.264-0.761-0.57-1.23-0.922c-0.646-0.323-1.245-0.439-1.801-0.352
		c-1.405-2.754-2.24-4.48-2.504-5.185c-0.703-1.758-0.895-3.516-0.571-5.273c-0.762-0.116-1.743-0.952-2.944-2.505
		c-1.082-1.405-2.417-2.123-3.996-2.152c0.115-0.937-0.309-2.051-1.275-3.34c-0.145-0.175-0.264-0.338-0.353-0.483
		c-1.346-1.347-1.899-2.621-1.667-3.824c-0.293,0.735-0.733,0.675-1.314-0.175c-0.208-0.558-0.561-1.391-1.058-2.505
		c1.058-0.439,2.14-0.673,3.25-0.703c0.789-0.057,1.611,0.032,2.46,0.266c0.382,1.23,1.054,2.342,2.02,3.338
		c1.2,1.144,2.053,2.021,2.55,2.636c2.02,1.933,4.537,4.891,7.555,8.875c3.425,4.599,6.007,7.761,7.731,9.488
		c-0.264,1.434,0.41,3.209,2.021,5.315c1.639,1.99,2.355,3.72,2.153,5.185c0.734,0.292,1.245,0.864,1.538,1.712
		c0.292,0.938,0.659,1.596,1.098,1.978c0.264,0.381,0.219,0.818-0.132,1.316c-0.527,0.499-0.76,0.807-0.704,0.924
		c-0.528-0.468-1.317-1.408-2.372-2.811c-1.084-1.289-2.11-2.153-3.077-2.592c-0.175-0.644-0.13-1.419,0.134-2.328
		c-0.264,0.174-0.776,0.103-1.539-0.219c-0.733-0.294-1.232-0.338-1.496-0.134c-0.23-3.133-1.42-5.226-3.555-6.281
		C331.809,105.511,331.504,105.761,331.446,106.054z M345.414,119.277c0.646,0.175,1.112,0.746,1.405,1.712
		c0.266,1.113,0.496,1.727,0.702,1.844c-0.405,0.177-0.845-0.264-1.316-1.319C345.795,120.755,345.531,120.008,345.414,119.277z
		 M362.153,166.368c0.175,0.381-0.017,0.556-0.573,0.527c0.527,0.731,1.069,0.995,1.628,0.791c0.909,4.043,1.523,7.029,1.847,8.961
		c0.641,3.457,0.672,6.093,0.086,7.909c1.022-0.175,1.245,0.294,0.66,1.405c-0.324,0.732-0.835,1.524-1.537,2.374
		c-0.265-0.673-1.143-1.772-2.636-3.293c0.643-0.205,0.789-1.068,0.438-2.595c-0.353-1.229-0.791-2.239-1.318-3.031
		c0.758-0.702,1.098-1.391,1.01-2.063c-1.113-1.408-1.23-2.108-0.351-2.108c-1.197-1.085-1.832-2.345-1.89-3.777
		c-0.058-0.412,0.028-2.198,0.264-5.361c-0.703,0.117-1.275-0.366-1.715-1.45c-0.557-1.23-1.172-1.771-1.847-1.625
		c0.061-0.646,0.265-1.627,0.616-2.945c0.293-0.997,0-1.596-0.88-1.801c-0.204-0.352,0.118-0.584,0.967-0.702
		c-0.41-0.703-1.024-1.481-1.845-2.33c0.324-0.616,0.545-1.449,0.662-2.503c-0.791-0.557-1.405-0.894-1.845-1.011
		c0.293-2.722,0.598-4.334,0.921-4.832c0.176-0.03,0.631,0.074,1.364,0.308c0.646,0.176,1.041,0.015,1.188-0.482
		c1.492,2.196,2.621,5.227,3.384,9.093c0.557,4.51,1.158,8.008,1.801,10.5C362.107,166.089,361.976,166.104,362.153,166.368z
		 M355.299,144.271c-0.266-0.791-0.208-1.802,0.176-3.032c0.438-0.087,0.819,0.865,1.142,2.855L355.299,144.271z M359.865,207.179
		c0.206-0.323,0.586-0.673,1.145-1.056c0.381-0.293,0.57-0.878,0.57-1.756c0.029,0.265,0.295,0.514,0.791,0.747
		c0.439,0.205,0.763,0.483,0.967,0.836c0.907-0.527,1.539-1.538,1.89-3.03c0.175-0.91,0.28-2.065,0.308-3.472
		c1.58,6.589,0.76,16.986-2.461,31.19l-1.405-2.153c-0.674-0.878-1.319-1.42-1.934-1.626c0.059-1.318,0.38-2.02,0.967-2.11
		c-0.995,0.091-1.611-0.568-1.847-1.976c-0.117-0.88-0.292-2.505-0.525-4.879l1.845-1.405c-0.703-0.997-0.777-2.052-0.219-3.164
		c0.351-0.586,1.022-1.377,2.02-2.374c0.029-0.877-0.527-1.173-1.669-0.877c-0.175-0.383-0.193-0.952-0.045-1.714
		C360.468,207.807,360.336,207.412,359.865,207.179z M361.755,236.04c-1.023,4.42-1.784,8.303-2.283,11.641
		c-0.204,1.317-0.894,3.339-2.064,6.062c-1.348,3.221-2.168,5.302-2.461,6.239c-0.146,0.847-0.262,1.507-0.35,1.977
		c-0.061,0.559-0.425,0.952-1.101,1.187c0.379,1.408-0.029,2.329-1.23,2.77c-2.868,8.289-6.092,14.352-9.665,18.185l0.616,1.012
		l-1.45,0.264c-0.174,0.847-0.221,1.539-0.132,2.066c-0.82,0.029-1.756,0.835-2.813,2.416c-0.377-0.528-0.643-1.214-0.789-2.065
		c0.058-0.559,0.103-1.199,0.134-1.933l1.494-0.219c-0.47-1.084-0.323-2.053,0.438-2.899c0.468-0.353,1.375-0.98,2.725-1.89
		c-0.089-0.527-0.121-1.158-0.089-1.89c0.029-0.441-0.088-0.761-0.35-0.967c0-0.878,0.396-1.463,1.185-1.758
		c-0.262-1.494,0.384-3.369,1.933-5.621c1.23-2.051,1.628-3.604,1.189-4.657c0.145-0.88,0.98-3.222,2.502-7.029
		c1.201-2.604,1.717-5.053,1.539-7.336c1.142-0.618,1.947-0.748,2.415-0.396c0.616-1.786,0.893-3.297,0.837-4.525
		c1.407-0.206,2.868-0.863,4.394-1.978c-0.087-0.557-0.117-1.36-0.087-2.415c0-0.703,0.406-1.171,1.229-1.406
		c-0.822-0.618-1.012-1.45-0.573-2.506c0.586-1.521,0.837-2.562,0.748-3.117c0.206,0.556,0.69,0.834,1.451,0.834
		C361.405,236.172,361.609,236.157,361.755,236.04z M329.688,301.317c0.437,1.202,1.201,1.583,2.283,1.142
		c-0.291,0.878-1.156,2.156-2.593,3.825c-1.199,1.463-1.858,2.856-1.979,4.175c-0.23,0.145-3.717,3.896-10.454,11.243
		c-4.273,4.48-8.478,7.766-12.607,9.841c-0.674,0.117-1.229-0.295-1.669-1.229c-0.293-0.089-0.219,0.406,0.221,1.492
		c-0.264,0.177-0.687,0.088-1.275-0.264c-0.938-0.439-1.626-0.629-2.063-0.571c1.082-1.437,2.751-3.618,5.006-6.547
		c2.051-2.285,4.438-3.926,7.161-4.921c0.264-1.142,1.144-2.739,2.636-4.787c1.494-1.76,2.183-3.473,2.064-5.142
		c4.276-0.791,6.444-2.825,6.502-6.106c2.491-1.438,4.264-2.93,5.316-4.483C328.532,299.051,329.015,299.824,329.688,301.317z
		 M145.539,41.873c-0.412,0.733-0.47,1.304-0.177,1.713c-0.412,0.059-0.895-0.015-1.451-0.219c-3.105,1.023-4.991,1.319-5.669,0.88
		c-2.051,1.436-3.221,1.609-3.514,0.528c0.585-0.382,1.933-0.792,4.043-1.23c1.373-0.234,2.281-0.821,2.723-1.756
		c2.4-0.059,3.705-0.322,3.909-0.791C145.844,40.936,145.888,41.229,145.539,41.873z M153.444,38.667
		c0.292-0.059,0.602-0.308,0.923-0.747c0.384-0.528,0.85-0.821,1.405-0.88c-0.527,0.498-0.234,0.661,0.882,0.483
		c1.401-0.175,2.197-0.219,2.37-0.133c-0.295,1.025-1.244,1.802-2.856,2.33c-1.817,0.584-2.709,1.302-2.683,2.152
		c-1.286-0.057-1.99-0.439-2.106-1.142c-0.47,0.79-1.364,1.07-2.681,0.835c-1.319-0.38-1.741-1.026-1.271-1.933
		c0.437,0.32,1.298,0.03,2.588-0.88C151.479,37.964,152.624,37.935,153.444,38.667z M167.676,34.977l0.218,1.494
		c-0.609,0.087-1.216,0.03-1.799-0.177C166.683,35.504,167.21,35.065,167.676,34.977z M186.478,33.791
		c0.733,0.175,1.422,0.074,2.067-0.308c-0.176,0.439-0.135,0.717,0.13,0.835l-3.558,0.133
		C185.293,33.805,185.748,33.585,186.478,33.791z M194.871,33.791c-1.144-0.086-2.125,0.131-2.945,0.661
		c0-0.146,0.044-0.365,0.133-0.661c0.088-0.146,0.074-0.294-0.046-0.439c0.264,0.088,0.527-0.015,0.791-0.308
		c0.468-0.644,0.909-0.997,1.319-1.053c0.672-0.264,1.902-0.175,3.688,0.264c2.079,0.38,3.619,0.586,4.614,0.616
		c0.264-0.059,0.88-0.308,1.845-0.747c0.643-0.382,1.273-0.483,1.892-0.308c-0.12,0.322,0.074,0.806,0.57,1.45
		c1.902-0.733,3.953-0.908,6.151-0.528l0.396,2.722c-1.023,0.733-2.916,0.937-5.669,0.616c-2.339-0.35-3.806-0.044-4.392,0.924
		c-0.234,0.03-0.895-0.145-1.978-0.527c-0.82-0.469-1.377-0.469-1.67,0c-0.82-0.586-1.552-1.524-2.196-2.813
		C196.993,33.805,196.155,33.847,194.871,33.791z M234.538,37.086c-0.056-0.411,0.321-0.675,1.142-0.791
		c0.703-0.089,0.952,0.161,0.748,0.747c-0.235,0.293-0.573,0.396-1.012,0.308C235.268,37.378,234.977,37.29,234.538,37.086z
		 M240.644,37.832c0.439,0.057,0.761-0.119,0.967-0.527c-0.03-0.323-0.221-0.586-0.572-0.792c-0.41-0.088-0.588-0.322-0.528-0.703
		c1.375-0.38,2.914-0.22,4.614,0.483c1.522,0.763,2.652,1.23,3.384,1.407c1.465,0.207,2.65,0.382,3.561,0.527
		c1.459,0.353,2.504,1.055,3.116,2.11c4.364,0.732,9.68,2.899,15.948,6.5c8.115,4.6,13.238,7.366,15.375,8.304
		c-0.117,0.792,0.295,1.523,1.23,2.197c1.144,0.82,1.964,1.494,2.458,2.021c0.649-0.41,1.352-0.513,2.11-0.308
		c1.173,0.204,1.892,0.278,2.155,0.22c1.054,1.407,3.337,3.353,6.853,5.845c3.219,2.342,5.326,4.361,6.324,6.062
		c0.966,0.703,1.86,1.053,2.679,1.053c0.122,1.729,0.412,3.119,0.88,4.174c-0.789,0.119-1.362-0.498-1.713-1.844
		c-0.147,0-0.279,0.219-0.397,0.658c-0.058,0.439-0.218,0.747-0.482,0.924c-1.667-0.878-3.369-2.665-5.096-5.358
		c-1.084,0.146-2.064-0.206-2.942-1.055c-0.705-0.761-0.952-1.583-0.746-2.462c-1.583,0.235-2.123,0.104-1.628-0.394
		c-0.967,0-1.934,0.307-2.899,0.923c-0.176-1.144-0.732-2.137-1.67-2.987c-1.316-0.938-2.094-1.758-2.326-2.46
		c-0.148,1.023-0.338,1.142-0.573,0.353c-0.292-0.821-0.189-1.494,0.31-2.021c-1.086,0.322-2.197,0.088-3.339-0.703
		c-0.966-0.88-1.554-1.891-1.758-3.032c-0.614,0.409-1.479,0.264-2.592-0.439c-1.408-0.762-2.535-1.085-3.384-0.966
		c-0.967,0-2.344,0.292-4.13,0.88c-0.527-0.792-0.82-1.26-0.878-1.408c-0.412,1.084-2.725,1.243-6.94,0.483
		c0.06-0.499,0.232-1.113,0.525-1.844c0.235-0.469,0.161-0.952-0.221-1.45c0.12-0.177,0.441-0.365,0.967-0.572
		c0.383-0.205,0.561-0.455,0.529-0.747c0.614,0.057,0.82,0.453,0.614,1.186c-0.175,0.761-0.482,1.099-0.923,1.011
		c0.266,0.527,0.82,0.806,1.669,0.835c1.29-0.058,1.992-0.03,2.108,0.089c-1.641-4.188-3.825-5.066-6.547-2.636
		c-0.233-0.558-0.644-0.924-1.23-1.1c-0.818-0.293-1.243-0.661-1.271-1.099c-1.643,0.409-3.588,0.791-5.845,1.142l-1.714-2.944
		c-2.051,0.468-3.487,0.951-4.308,1.45c-0.585-1.026-1.259-1.613-2.021-1.758c-0.408-0.057-1.389-0.19-2.94-0.395
		c-0.087-0.587-0.722-1.23-1.892-1.933c-1.346-0.558-2.168-1.274-2.461-2.154c-0.554-0.03-1.082,0.207-1.578,0.703
		c-0.88-1.025-1.438-2.796-1.671-5.316C239.78,37.817,240.059,37.773,240.644,37.832z M122.735,50.265
		c0.561-0.821,1.438-1.379,2.638-1.671c1.375-0.499,2.535-0.894,3.472-1.186l0.22,1.45c-0.264,0.029-0.6,0.089-1.012,0.175
		c-0.437,0.057-0.54,0.35-0.307,0.88c-0.144-0.119-0.276-0.527-0.396-1.23c-0.82,0.118-1.259,0.468-1.319,1.053
		c-0.058,0.731-0.35,1.128-0.88,1.188c1,0.731,0.952,1.392-0.13,1.978c-1.288,0.907-1.877,1.728-1.756,2.46
		c-1.232-0.558-2.697-0.264-4.394,0.878c-1.789,1.261-3.004,1.713-3.649,1.363c-0.175,0.498-0.336,0.806-0.484,0.924
		c-0.206,0.353-0.482,0.337-0.834-0.044c-0.556,0.204-0.717,0.512-0.484,0.922c0.235,0.527,0.208,0.895-0.086,1.1
		c-1.405,0.059-2.312,0.616-2.724,1.669c-0.379,1.201-0.907,1.917-1.579,2.152c-0.969-0.557-2.023-0.878-3.166-0.966
		c-4.303,2.665-8.099,5.314-11.375,7.952c-0.561,0.205-1.026,0.072-1.405-0.396c-0.091,0.03-0.177,0.175-0.264,0.439
		c-0.148,0.293-0.441,0.412-0.882,0.353l0.264,1.45c-0.787-0.146-1.626,0.483-2.503,1.891c-1.377,2.197-2.125,3.398-2.24,3.6
		c-1.113,0.323-1.64,0.543-1.583,0.66c-0.412,0.175-1.07,1.48-1.979,3.911c-1.29,0.088-2.197,0.66-2.724,1.715
		c-0.734,0.964-0.734,1.978,0,3.032c-0.202,0.439-0.701,0.425-1.494-0.044c-0.645-0.321-1.012-0.762-1.098-1.319
		c-0.351,0.205-0.981,0.527-1.89,0.966c-0.847,0.38-1.216,0.997-1.099,1.844c-0.321-0.32-0.748-0.264-1.275,0.175
		c-0.497,0.38-0.893,0.453-1.189,0.219c3.458-6.24,9.154-12.682,17.092-19.329c4.567-3.837,11.569-9.417,20.999-16.736
		c1.698-0.121,2.984-0.528,3.866-1.232c0.996-0.878,1.962-1.522,2.897-1.933c-0.177,0.469-0.206,0.689-0.086,0.661
		c0.26-0.207,0.466-0.163,0.614,0.133c1.11-1.2,2.43-2.051,3.952-2.549L122.735,50.265z M68.179,96.345
		c-0.148,0.877,0.045,1.802,0.569,2.769c-0.408-0.119-0.581,0.03-0.523,0.439c-0.058,0.584-0.163,0.892-0.309,0.922
		c-0.353-0.41-0.688-0.292-1.01,0.353c-0.233,0.322-0.379,0.189-0.437-0.396c-0.532,0.264-0.705,0.951-0.532,2.065
		c0.177,1.112-0.156,1.802-1.01,2.066c-0.058,0.439,0.12,0.747,0.526,0.924c0.325,0.146,0.455,0.425,0.397,0.833
		c-0.647,0.558-1.039,0.91-1.189,1.055c-0.319,0.353-0.233,0.91,0.264,1.669c-1.933,0.177-2.969,1.215-3.118,3.121
		c-0.297-0.146-0.532-0.338-0.705-0.572c-0.206-0.409-0.453-0.527-0.748-0.352c-0.525,0.204-1.012,0.776-1.449,1.713
		c-0.408,0.82-0.804,1.319-1.187,1.494c0.06,0.409,0.207,0.601,0.439,0.572c-0.527,0.35-0.98,1.492-1.362,3.425
		c-0.354,1.494-1.158,2.253-2.417,2.285c-0.204-0.235-0.117-0.454,0.264-0.66c0.472-0.235,0.674-0.425,0.614-0.573
		c-0.086-0.613-0.484-1.243-1.185-1.888c1.346-2.519,3.265-6.268,5.754-11.246c2.372-4.189,4.863-7.426,7.468-9.711
		c-0.321-1.347,0.192-2.253,1.538-2.723C68.575,95.07,68.354,95.876,68.179,96.345z M52.233,125.117
		c0.321,0.851,0.086,1.246-0.703,1.188c-0.208-0.703-0.105-1.583,0.307-2.638C52.07,124.254,52.205,124.738,52.233,125.117z
		 M53.902,122.352c-0.383,1.055-0.544,1.728-0.482,2.021c-0.969-0.909-0.985-2.078-0.045-3.515
		C53.931,121.063,54.106,121.562,53.902,122.352z M50.476,257.521c1.902,0.674,3.104,2.107,3.602,4.305
		c-1.172,4.273-3.312,5.609-6.413,3.998c1.142,1.142,2.075,2.712,2.811,4.702c-0.439-0.033-0.893-0.249-1.362-0.659
		c-0.47-0.499-0.925-0.705-1.364-0.618c0.381-0.495,0.367-1.039-0.045-1.624c-0.292-0.878-0.307-1.479-0.043-1.801
		c-0.353-0.12-0.676-0.295-0.967-0.528c-3.635-2.254-3.998-4.613-1.1-7.074C47.123,256.965,48.747,256.729,50.476,257.521z
		 M61.764,289.547c-0.056,0.733,0.321,1.682,1.144,2.856c0.703,1.021,1.097,1.813,1.187,2.369c-0.206-0.407-1.803-2.295-4.791-5.667
		c-2.02-2.254-3.118-4.437-3.295-6.544c1.203,1.376,2.081,2.427,2.633,3.163c1.055,1.283,1.76,2.603,2.11,3.952
		c0.058,0.293,0.194,0.353,0.397,0.175C61.385,289.53,61.589,289.428,61.764,289.547z M81.751,319.02
		c-0.732-0.321-1.259-0.891-1.583-1.715c1.437,0.647,2.067,0.408,1.892-0.702c-0.88,0-2.419-0.614-4.616-1.845
		c-0.379-0.525-0.247-1.038,0.398-1.537c-1.791-1.29-2.595-2.316-2.417-3.074c1.022,0,1.989-0.148,2.897-0.441
		c2.254,4.043,4.276,6.734,6.063,8.082c0,1.264-0.264,2.007-0.791,2.242C83.42,319.914,82.806,319.578,81.751,319.02z
		 M79.248,334.792c0.735-2.811,2.726-4.628,5.974-5.446c3.285-0.031,5.671,1.478,7.163,4.523c1.611,3.165,1.405,6.034-0.618,8.609
		c-1.435,0.82-3.26,1.262-5.49,1.319c-1.494,0.087-3.238,0.072-5.226-0.043C79.146,340.443,78.545,337.455,79.248,334.792z
		 M102.577,335.934c-0.087,0.439-0.354,0.614-0.792,0.528c-0.177-1.113-0.527-1.919-1.055-2.416
		c0.091,0.406,0.045,0.922-0.132,1.536c-1.024-1.024-1.29-1.713-0.791-2.067l2.592,0.045c0.76,0.616,1.187,1.286,1.275,2.02
		l0.748-1.228c0.495,0.23,0.934,0.731,1.315,1.492c0.292,0.819,0.379,1.45,0.264,1.892c-0.585-0.326-1.566-0.295-2.945,0.086
		c0.118-1.055,0.307-1.669,0.571-1.842l-0.571-0.791C102.795,335.248,102.633,335.495,102.577,335.934z M93.745,343.928
		c-0.379-0.525-0.556-1.069-0.527-1.626c0.585-0.849,1.286-0.965,2.11-0.351l0.219,1.275
		C95.022,343.313,94.417,343.551,93.745,343.928z M65.28,324.514c-2.139,1.199-3.794,0.702-4.968-1.496
		c-1.607-3.073-1.051-4.95,1.673-5.622c2.928-0.616,4.774,0.161,5.535,2.329C68.043,321.628,67.299,323.224,65.28,324.514z
		 M145.758,355.132c-0.058,0.733,0.189,1.478,0.748,2.238c0.377,0.704,0.774,0.849,1.185,0.44c0.705,0.351,0.837,0.779,0.396,1.275
		c-0.789,0.822-1.156,1.319-1.096,1.494c-0.588-0.088-1.202-0.511-1.847-1.273c-0.674-0.614-1.375-0.863-2.11-0.748
		c-0.173-0.381-0.074-0.674,0.31-0.878c0.407-0.232,0.598-0.484,0.568-0.748c-0.23-0.41-0.468-0.44-0.7-0.086
		c-0.384,0.35-0.631,0.468-0.748,0.35c-0.087-0.44,0.117-0.836,0.613-1.187c0.53-0.381,0.835-0.717,0.922-1.01
		C144.381,355.499,144.966,355.54,145.758,355.132z M131.349,350.518l0.173,1.01c0.41,0.089,0.585-0.13,0.528-0.657
		c-0.087-0.557,0.086-0.733,0.527-0.527c0,0.702,0.206,1.01,0.618,0.923c0.466-0.204,0.818-0.247,1.051-0.132
		c0.031,0.293-0.206,0.688-0.704,1.188c-0.408,0.35-0.569,0.76-0.482,1.228c-0.441-0.117-0.688-0.394-0.746-0.834
		c0.056-0.439,0.012-0.72-0.134-0.837c-0.705,0.117-0.999,0.527-0.877,1.23c-0.208,0.321-0.822-0.425-1.847-2.24
		c-0.115-0.703,0.146-0.896,0.792-0.573c0.468,0.351,0.657,0.248,0.571-0.307C131.085,349.786,131.262,349.964,131.349,350.518z
		 M117.072,353.768c-0.792-0.408-0.966-1.084-0.528-2.02c1.377-0.351,2.156,0.104,2.329,1.362
		C118.403,353.871,117.802,354.093,117.072,353.768z M171.279,362.159c0.176,0.146,0.353,0.323,0.528,0.527
		c2.545,1.875,4.583,1.847,6.105-0.087c0.82,0.583,1.245,1.024,1.273,1.317c0.499-0.497,1.276-0.616,2.331-0.351
		c1.026,0.262,1.667,0.307,1.935,0.134c0.231,0.495,0.449,0.965,0.655,1.401c0.386,0.618,0.94,0.952,1.67,1.012
		c0.148-0.028,0.164-0.381,0.045-1.055c1.671-0.264,2.654,0.645,2.947,2.724c-0.351,0.204-0.911,0.176-1.67-0.088
		c-0.643-0.38-0.923-0.291-0.836,0.264c-0.586,0-1.216-0.408-1.888-1.23c-0.297,0.058-1.218,0.571-2.77,1.539
		c-0.618-0.5-1.585-0.704-2.899-0.618c-0.734-0.056-1.713-0.043-2.943,0.046c0.087-0.38,0.102-0.759,0.044-1.142
		c-0.087-0.557-0.219-0.893-0.396-1.01c-0.407,0.058-0.875,0.35-1.403,0.878c-0.323,0.494-0.661,0.556-1.012,0.177
		c-0.028-0.119,0.091-0.297,0.354-0.527c0.264-0.206,0.231-0.41-0.091-0.618c-0.556,0.351-0.717,0.748-0.481,1.188
		c-0.297-0.264-0.746-0.422-1.364-0.484c-0.731-0.028-1.113,0.194-1.142,0.662c-0.471-0.117-0.734-0.308-0.792-0.571
		c-0.028-0.146,0.017-0.426,0.134-0.836c-1.964,0.407-4.058,0.453-6.283,0.132c-0.03,0.058-0.073,0.134-0.132,0.22
		c-0.997,0.439-1.729,0.221-2.198-0.661c-0.087-0.028-0.159-0.056-0.217-0.087c-3.575-0.878-5.786-1.314-6.638-1.314
		c-0.381-0.618-1.229-1.071-2.547-1.364c-1.35-0.206-2.3-0.688-2.858-1.45c-0.028-0.38,0.338-0.85,1.101-1.406
		c0.439-0.527,0.439-1.025,0-1.491c0.293,0.058,0.701-0.089,1.229-0.441c0.585-0.525,1.273-0.702,2.064-0.525
		c3.634,1.581,5.729,2.326,6.283,2.238c1.407-0.233,2.899,0.03,4.482,0.791c2.313,1.053,3.895,1.688,4.741,1.892l-0.13,0.659
		c0.265,0.176,0.878,0.118,1.847-0.177C170.62,362.336,170.93,362.247,171.279,362.159z M242.49,359.523
		c1.197,0.117,1.713-0.382,1.535-1.492c0.295,0.204,0.499,0.221,0.616,0.043c0.293-0.173,0.586-0.275,0.878-0.307
		c0.204,0.583,0.674,0.806,1.405,0.657c0.674,0.031,1.101,0.235,1.276,0.618c-0.499,0.379-0.748,0.909-0.748,1.578
		c-0.555,0.384-1.33,0.512-2.327,0.398c-0.849-0.029-1.597,0.234-2.244,0.791L242.49,359.523z M224.741,363.346l-0.309-0.221
		c0.585-0.204,1.522-0.277,2.813-0.22c1.286-0.056,2.24-0.26,2.856-0.614c0.76,1.261,1.727,1.951,2.899,2.066
		c-0.208,0.468-0.514,0.748-0.926,0.835c-0.556,0.091-0.952-0.07-1.185-0.482c-0.386,0.087-0.499,0.557-0.354,1.405l-1.756-1.537
		c-0.849,1.171-1.012,1.713-0.484,1.624c-0.056,0.297-0.396,0.338-1.01,0.132c-0.763-0.178-1.175-0.247-1.23-0.219l-0.309-2.11
		c-0.583,0.089-0.934,0.367-1.056,0.837c-0.438-0.379-0.789-0.557-1.053-0.527c-0.086-0.437-0.028-0.791,0.176-1.055
		C223.936,363.199,224.242,363.23,224.741,363.346z M221.578,365.279c0.88,0.144,1.333,0.717,1.362,1.712
		c-0.351-0.206-0.936-0.249-1.758-0.134c-0.233-0.672-0.308-1.171-0.219-1.492c-0.295,0.058-0.527,0.321-0.702,0.791
		c0.086,0.413-0.122,0.571-0.616,0.482c0.028-0.704-0.087-1.405-0.351-2.107L221.578,365.279z M225.226,365.146l0.221,1.494
		c-0.674,0.233-1.23-0.191-1.672-1.275L225.226,365.146z M279.436,346.302l0.173-1.494c0.293-0.206,0.482-0.017,0.57,0.573
		c0.118,0.232,0.25,0.407,0.396,0.527c0.117,0.028,0.23,0.069,0.352,0.132c-0.121,0.321-0.397,0.453-0.836,0.396
		C279.946,346.436,279.726,346.391,279.436,346.302z M286.592,342.61c-0.29,0.059-1.067,0.557-2.324,1.494
		c-0.44,0.056-0.563-0.162-0.354-0.661c0.233-0.321,0.145-0.437-0.264-0.351l1.273-0.437c0.206-0.148,0.525-0.748,0.965-1.804
		c0.616,0.176,0.63,0.308,0.045,0.394L286.592,342.61z M34.354,192.329c0.527,0.497,0.76,2.401,0.701,5.71
		C33.503,197.544,33.269,195.64,34.354,192.329z"/>
	<path fill="#E72925" d="M326.043,183.457c0.089,0.645,0.175,1.272,0.262,1.889c2.491,18.245,1.465,35.555-3.072,51.925
		l-0.135,0.132c-4.01,14.293-10.687,27.954-20.03,40.983c-6.031,8.288-12.636,15.48-19.812,21.574
		c-8.667,7.729-18.231,14.013-28.686,18.846c-0.06,0-0.089,0.028-0.089,0.086c-9.753,4.451-20.179,7.629-31.277,9.533
		c-1.286,0.177-2.65,0.381-4.087,0.614c-7.408,1.142-14.687,1.7-21.833,1.669l-0.177,0.091c-26.122-0.382-50.299-8.67-72.526-24.865
		c-6.5-4.6-12.371-9.606-17.617-15.022l-0.084-0.219c-11.454-11.919-20.092-25.495-25.92-40.724
		c-3.338-8.726-5.753-17.92-7.248-27.586c-4.334-28.205-0.122-54.296,12.651-78.284l0.175-0.176
		c3.074-5.507,6.576-10.968,10.499-16.388c6.737-9.4,14.306-17.498,22.713-24.292l0.307-0.044
		c16.987-14.059,37.045-22.858,60.184-26.403c1.436-0.234,2.781-0.379,4.043-0.439c13.234-1.758,26.064-1.508,38.478,0.747
		l0.089,0.175l0.175-0.089c3.254,0.616,6.487,1.334,9.713,2.155c5.943,1.612,11.756,3.676,17.439,6.195
		c8.668,3.748,17.03,8.578,25.084,14.495l0.264-0.044C303.845,120.842,320.681,148.665,326.043,183.457z"/>
	<path fill="#FFFFFF" d="M275.215,120.812l0.791-13.924c23.606,18.684,38.336,42.963,44.19,72.835l-20.381-15.463
		c0-0.146-0.073-0.277-0.22-0.395l-0.044-0.309C293.665,148.269,285.554,134.022,275.215,120.812z M273.238,126.259
		c8.845,11.979,15.874,24.793,21.086,38.438l-19.33,36.462c-2.545-0.264-5.137-0.439-7.772-0.527
		c-10.925-0.792-22.289-2.11-34.089-3.955l-26.271-44.324c6.734-11.07,12.184-22.081,16.342-33.034l48.807,7.118
		C272.358,126.377,272.771,126.32,273.238,126.259z M214.463,80.97l-17.222,9.445c-3.514-0.557-7.102-0.791-10.764-0.703
		c-13.794,0.264-27.894,4.758-42.303,13.487l-15.42-0.439c15.112-10.952,32.537-17.953,52.275-20.999
		c1.288-0.204,2.563-0.335,3.82-0.395C194.988,80.164,204.855,80.033,214.463,80.97z M195.792,95.29l22.623,22.447
		c-3.985,10.603-9.27,21.379-15.855,32.333l-51.137,12.387c-8.814-4.775-17.09-10.749-24.818-17.924l21.393-37.601
		c0.086,0,0.134-0.044,0.134-0.133c13.059-7.615,25.874-11.598,38.437-11.95C189.7,94.706,192.775,94.853,195.792,95.29z
		 M274.116,206.299l12.435,41.382c-3.31,6.938-7.146,13.544-11.509,19.813c-4.948,6.854-10.415,13.137-16.385,18.848
		c-0.178-0.089-0.369-0.12-0.573-0.089c-8.169-0.351-16.912-1.16-26.223-2.417c-4.921-0.614-10.051-1.377-15.377-2.283
		c-2.517-0.413-5.241-0.792-8.169-1.143c-3.46-9.458-6.823-22.698-10.104-39.714l33.954-38.919
		c12.01,1.787,23.61,3.133,34.794,4.043C269.301,205.904,271.687,206.066,274.116,206.299z M92.121,166.368
		c-5.389,16.779-7.25,34.087-5.581,51.923L82.5,239.026c-1.552-5.564-2.799-11.38-3.736-17.441
		c-3.835-24.746-0.792-47.809,9.137-69.187L92.121,166.368z M96.733,168.083l26.4-19.769c7.763,7.086,15.975,13.09,24.645,18.011
		l-4.26,51.308L118.3,239.994l-26.839-21.57c0-0.146-0.029-0.338-0.088-0.572c-0.528-6.15-0.616-12.241-0.264-18.274
		C91.667,188.919,93.539,178.419,96.733,168.083z M146.768,221.851l46.301,19.636c3.455,17.311,6.983,30.724,10.588,40.242
		c-5.481,5.21-10.881,9.982-16.21,14.318c-4.015,3.221-8.013,6.206-11.995,8.96c-13.646-2.723-28.422-8.301-44.325-16.735
		l-9.62-44.238L146.768,221.851z M127.788,292.489h0.354c16.34,8.668,31.6,14.422,45.772,17.261
		c5.593,6.27,10.821,11.471,15.683,15.596c-22.198-1.461-42.962-9.311-62.292-23.542c-4.249-3.048-8.271-6.4-12.082-10.064
		l12.519,0.532L127.788,292.489z M316.467,242.014c-3.955,11.627-9.9,22.742-17.836,33.343c-5.68,7.963-11.876,14.92-18.584,20.867
		c-7.113,6.324-14.891,11.581-23.327,15.769l3.163-19.635c7.235-6.59,13.632-14,19.198-22.227
		c4.479-6.007,8.403-12.42,11.774-19.243C299.29,249.453,307.826,246.494,316.467,242.014z"/>
	<path fill="#F58820" d="M265.288,125.427l-42.084-6.107c-4.158,10.953-9.607,21.965-16.342,33.033l26.271,44.324
		c11.802,1.845,23.167,3.163,34.089,3.955c2.636,0.086,5.228,0.264,7.772,0.527l14.983-28.289c0.468,0.557,0.924,1.1,1.362,1.625
		c4.188,5.478,6.957,12.623,8.305,21.437c1.082,7,0,13.677-3.249,20.03c-2.696,5.273-7.178,10.835-13.444,16.695
		c-0.208,0.146-0.454,0.338-0.748,0.571l-8.085-26.929c-2.427-0.232-4.813-0.395-7.158-0.483
		c-11.187-0.908-22.784-2.256-34.794-4.043l-33.954,38.921c3.28,17.014,6.644,30.254,10.104,39.71
		c2.928,0.351,5.652,0.733,8.169,1.142c5.326,0.911,10.456,1.67,15.377,2.288c-2.693,4.245-4.353,6.646-4.969,7.202
		c-4.158,3.983-8.243,6.617-12.253,7.907c-1.379,0.498-2.947,0.863-4.702,1.1c-0.998,0.118-2.42,0.278-4.264,0.482
		c-1.23,0.178-2.696,0.482-4.394,0.924c-1.437,0.177-3.031-0.059-4.787-0.701c-1.904-0.674-4.921-2.244-9.051-4.702
		c5.329-4.336,10.732-9.108,16.212-14.318c-3.604-9.521-7.133-22.932-10.591-40.24l-46.298-19.638l-25.259,22.188l1.801,8.346
		c-7.79-2.403-12.257-3.763-13.399-4.089c-6.149-2.021-10.617-3.763-13.399-5.226c-3.075-1.583-5.288-3.398-6.636-5.446
		c-1.199-1.847-2.065-4.527-2.592-8.039c-0.964-6.385-0.177-14.632,2.374-24.733c0.408-1.758,0.89-3.516,1.449-5.273
		c-0.353,6.033-0.264,12.124,0.264,18.274c0.06,0.234,0.089,0.427,0.089,0.572l26.839,21.57l25.217-22.361l4.26-51.308
		c-8.668-4.921-16.882-10.925-24.645-18.011l-15.857,11.861c1.29-2.607,2.617-5.126,3.998-7.557
		c3.895-6.794,6.751-11.027,8.569-12.697c2.164-2.02,4.286-4.098,6.37-6.237c1.111-1.144,2.504-2.562,4.173-4.261
		c2.197-2.226,4.554-3.748,7.073-4.568c0.148-0.059,0.297-0.118,0.44-0.174l-11.289,19.854c7.728,7.175,16.003,13.148,24.818,17.925
		l51.137-12.388c6.586-10.954,11.87-21.73,15.855-32.332l-4.967-4.833c2.374-0.38,4.382-0.703,6.023-0.966
		c9.455-1.408,17.014-2.328,22.664-2.769c6.942-0.557,13.311-0.587,19.111-0.088c1.787,0.147,3.557,0.338,5.313,0.572
		C266.854,113.611,266.43,118.865,265.288,125.427z"/>
</g>
</svg>
