<?xml version="1.0" encoding="utf-8"?>
<!-- Generator: Adobe Illustrator 16.0.0, SVG Export Plug-In . SVG Version: 6.00 Build 0)  -->
<!DOCTYPE svg PUBLIC "-//W3C//DTD SVG 1.1//EN" "http://www.w3.org/Graphics/SVG/1.1/DTD/svg11.dtd">
<svg version="1.1" id="Layer_1" xmlns="http://www.w3.org/2000/svg" xmlns:xlink="http://www.w3.org/1999/xlink" x="0px" y="0px"
	 width="300px" height="300px" viewBox="0 0 300 300" enable-background="new 0 0 300 300" xml:space="preserve">
<g>
	<path fill-rule="evenodd" clip-rule="evenodd" fill="#0E0A0B" d="M253.131,60.751l26.672-33.293l-33.896,26.408l-0.112,0.114
		c-0.477-1.079-0.917-2.169-1.316-3.273c-1.33-3.962-1.756-7.8-1.279-11.512l9.104,5.944l-8.127-9.066
		c0.228-1.354,0.516-2.408,0.866-3.16c0.326-0.651,0.978-1.718,1.956-3.198c4.816-6.696,18.334-13.505,40.554-20.427l4.739,8.991
		l-2.256-9.217c4.689-1.404,8.815-2.708,12.377-3.913l0.037,0.038c-1.655,5.718-3.661,11.712-6.019,17.982
		c-4.364,11.437-8.704,20.302-13.017,26.598l-9.48-6.358l8.013,9.443c-2.407,3.185-4.564,5.405-6.47,6.658
		c-5.318,3.386-11.098,4.353-17.343,2.898C256.402,61.981,254.735,61.429,253.131,60.751z M76.507,52.814L42.423,27.27
		l27.575,33.105c-1.027,0.502-2.094,0.966-3.198,1.392c-3.911,1.455-7.724,2.02-11.436,1.693l5.605-9.292l-8.802,8.427
		c-1.355-0.226-2.409-0.49-3.161-0.791c-0.653-0.276-1.744-0.89-3.273-1.843c-6.872-4.564-14.132-17.844-21.781-39.839l8.802-5.042
		l-9.103,2.559c-1.581-4.64-3.01-8.716-4.289-12.227L19.4,5.375c5.743,1.455,11.788,3.248,18.132,5.379
		c11.562,3.988,20.566,8.038,27.012,12.152l-6.021,9.667l9.143-8.351c3.286,2.307,5.593,4.401,6.922,6.282
		c3.537,5.192,4.678,10.947,3.423,17.267C77.685,49.503,77.184,51.184,76.507,52.814z"/>
	<path fill-rule="evenodd" clip-rule="evenodd" fill="#EE3724" d="M240.377,73.091l2.332-2.897l-10.156-3.235l13.242-12.979
		l0.112-0.114l33.896-26.408l-26.672,33.293l-1.13,1.354L240.377,73.091z M229.994,69.479l10.119,3.837l-0.451,0.433l-3.235,3.066
		l-10.532-3.311L229.994,69.479z M223.712,75.611l9.932,3.799l-3.462,3.292l-0.301,0.282l-3.01-0.941l-1.598,1.524
		c-1.013-0.903-2.034-1.78-3.065-2.634l0.262-0.245l-0.921-0.301c-0.488-0.396-0.978-0.785-1.468-1.166L223.712,75.611z
		 M266.824,241.927l1.543,2.408l-1.694,1.618c-0.827-0.527-1.642-1.066-2.445-1.618l0.565-0.489l-25.056-24.115
		c0.401-0.522,0.796-1.049,1.186-1.578l25.035,24.603L266.824,241.927z M269.495,246.103l1.541,2.333l-0.075,0.112l-2.52-1.467
		L269.495,246.103z M78.312,220.653c0.4,0.512,0.808,1.021,1.223,1.523l-22.59,21.48l0.79,0.903l-2.445,1.468l-1.618-1.768
		c0.577-0.805,1.142-1.582,1.693-2.334l0.488,0.527L78.312,220.653z M53.484,247.081l-2.409,1.504l-0.15-0.112l1.579-2.482
		L53.484,247.081z M82.563,59.999L54.386,38.932l25.055,29.982L82.563,59.999z M89.297,65.152l-2.935-2.257l-2.896,10.27
		l-3.763-3.573l-0.733-0.696l-8.972-8.521L42.423,27.27l34.083,25.544l1.429,1.091L89.297,65.152z M86.1,75.611l3.423-10.271
		l3.612,3.612L90.2,79.599L86.1,75.611z M92.42,81.705l3.46-10.044l3.687,3.649l-0.771,2.709c-1.875,1.417-3.719,2.909-5.531,4.477
		L92.42,81.705z M245.72,66.507l21.969-27.425l-30.772,24.001L245.72,66.507z"/>
	<path fill-rule="evenodd" clip-rule="evenodd" fill="#070606" d="M240.113,73.316l-10.119-3.837l-0.226-0.113l2.596-2.521
		l0.188,0.113l10.156,3.235l-2.332,2.897l-0.188,0.226H240.113z M225.273,83.568l1.598-1.524l3.01,0.941l0.113,0.038l-2.614,2.464
		C226.683,84.833,225.979,84.195,225.273,83.568z M264.228,244.335l-0.677,0.715l-24.979-23.813c0.393-0.498,0.78-1,1.166-1.506
		l25.056,24.115L264.228,244.335z M266.824,241.927l-0.866,0.828l-25.035-24.603c0.43-0.588,0.85-1.178,1.261-1.77l25.205,24.941
		L266.824,241.927z M268.367,244.335l1.053-1.054l1.467,1.43l-1.392,1.392l-1.054,0.979l-1.354,1.203l-1.469-1.316l1.054-1.015
		L268.367,244.335z M270.961,248.548l0.075-0.112l1.807-1.807l1.316,1.316l-3.724,3.612l-1.242-1.278L270.961,248.548z
		 M57.734,244.561l-0.79-0.903l22.59-21.48c0.436,0.55,0.882,1.097,1.335,1.637l-22.609,21.349L57.734,244.561z M55.29,246.028
		l0.978,1.09l-1.467,1.43l-1.316-1.467l-0.979-1.091l-1.166-1.393l1.392-1.392l0.94,1.055L55.29,246.028z M51.076,248.585
		l1.73,1.844l-1.392,1.242l-3.46-3.8l1.317-1.205l1.655,1.807L51.076,248.585z M78.312,220.653l-22.459,21.801l-0.488-0.527
		l-0.64-0.752l22.44-22.026C77.542,219.649,77.924,220.151,78.312,220.653z M92.42,81.705l-0.039,0.15l-2.256-1.993l0.075-0.264
		l2.935-10.646l0.037-0.076l2.746,2.633l-0.038,0.151L92.42,81.705z M86.1,75.611l-0.114,0.226l-2.595-2.483l0.075-0.188
		l2.896-10.27l2.935,2.257l0.226,0.151v0.037L86.1,75.611z M82.563,59.999l-3.122,8.916L54.386,38.932L82.563,59.999z
		 M100.902,76.476c-0.707,0.505-1.409,1.019-2.106,1.543l0.771-2.709l0.038-0.112L100.902,76.476z M225.895,73.504l10.532,3.311
		l0.076,0.038l-2.71,2.671l-0.149-0.113l-9.932-3.799l-0.15-0.038l2.069-2.183L225.895,73.504z M245.72,66.507l-8.804-3.424
		l30.772-24.001L245.72,66.507z M221.549,80.388l0.921,0.301l-0.262,0.245C221.988,80.753,221.769,80.572,221.549,80.388z
		 M276.116,249.864l0.64,0.603l6.47,9.932l-3.386-1.994c-2.607-1.655-4.99-3.235-7.148-4.739l-0.262-0.227L276.116,249.864z
		 M38.699,260.323l2.106-3.312c1.706-2.558,3.361-4.876,4.966-6.96l0.264-0.263l3.423,3.762l-0.677,0.64L38.699,260.323z"/>
	<path fill-rule="evenodd" clip-rule="evenodd" fill="#B11F24" d="M236.427,76.815l3.235-3.066l0.038,1.862l5.906,2.106L239.7,79.75
		l-0.15,6.282l-3.799-4.965l-5.569,1.636l3.462-3.292l0.149,0.113l2.71-2.671L236.427,76.815z M79.535,222.177
		c-0.415-0.503-0.823-1.012-1.223-1.523c-0.388-0.502-0.771-1.004-1.147-1.505c-12.954-17.229-19.431-37.135-19.431-59.721
		c0-27.864,9.856-51.652,29.569-71.364c1.95-1.95,3.938-3.806,5.962-5.567c1.812-1.568,3.656-3.06,5.531-4.477
		c0.697-0.524,1.399-1.038,2.106-1.543c16.775-11.987,36.031-17.982,57.765-17.982c23.329,0,43.802,6.91,61.414,20.728
		c0.49,0.381,0.979,0.77,1.468,1.166c0.22,0.184,0.439,0.365,0.659,0.546c1.031,0.854,2.053,1.731,3.065,2.634
		c0.706,0.627,1.409,1.266,2.106,1.918c0.891,0.842,1.775,1.701,2.651,2.578c19.713,19.712,29.569,43.5,29.569,71.364
		c0,21.381-5.806,40.366-17.417,56.955c-0.411,0.592-0.831,1.182-1.261,1.77c-0.39,0.529-0.784,1.056-1.186,1.578
		c-0.386,0.506-0.773,1.008-1.166,1.506c-2.607,3.285-5.454,6.47-8.54,9.556c-19.713,19.712-43.5,29.569-71.364,29.569
		c-27.862,0-51.65-9.857-71.364-29.569c-2.274-2.273-4.417-4.601-6.433-6.979C80.417,223.273,79.971,222.727,79.535,222.177z
		 M78.97,68.896l0.733,0.696l0.114,4.627l5.907,2.106l-5.907,2.032l-0.151,6.282l-3.799-4.965l-6.019,1.768l3.574-5.117
		l-3.574-5.154l6.019,1.769L78.97,68.896z M223.6,58.532l-5.907,2.069l-0.149,6.245l-3.801-4.966l-5.981,1.768l3.537-5.116
		l-3.537-5.154l5.981,1.768l3.801-4.965l0.149,6.282L223.6,58.532z M222.47,90.114c-0.691-0.643-1.388-1.276-2.087-1.9
		c-1.001-0.874-2.012-1.727-3.028-2.559c-0.773-0.62-1.551-1.228-2.333-1.825c-16.21-12.377-34.995-18.564-56.354-18.564
		c-19.85,0-37.481,5.348-52.892,16.044c-0.787,0.551-1.571,1.115-2.351,1.693c-1.068,0.789-2.121,1.604-3.161,2.445
		c-0.753,0.606-1.5,1.228-2.238,1.862c-2.027,1.729-4.009,3.561-5.943,5.492c-18.383,18.409-27.575,40.617-27.575,66.625
		c0,20.744,5.849,39.052,17.548,54.924c0.375,0.52,0.757,1.033,1.148,1.543c0.415,0.535,0.835,1.069,1.26,1.599
		c0.444,0.555,0.896,1.105,1.354,1.655c1.952,2.331,4.04,4.607,6.264,6.827c18.382,18.409,40.578,27.613,66.585,27.613
		c26.009,0,48.204-9.204,66.588-27.613c3.045-3.041,5.835-6.188,8.37-9.441c0.401-0.514,0.796-1.027,1.186-1.543
		c0.41-0.55,0.818-1.1,1.222-1.655c0.425-0.599,0.846-1.2,1.261-1.805c10.356-15.217,15.535-32.585,15.535-52.104
		c0-26.008-9.191-48.216-27.573-66.625C224.337,91.886,223.408,90.99,222.47,90.114z M256.591,93.669l5.907,2.068l-5.907,2.069
		l-0.149,6.245l-3.801-4.966l-5.981,1.769l3.537-5.117l-3.537-5.154l5.981,1.769l3.801-4.966L256.591,93.669z M271.112,116.691
		l0.15,6.283l5.906,2.069l-5.906,2.069l-0.15,6.245l-3.8-4.966l-6.02,1.805l3.574-5.153l-3.574-5.155l6.02,1.769L271.112,116.691z
		 M271.827,149.872l3.801-4.966l0.149,6.282l5.906,2.069l-5.906,2.069l-0.149,6.244l-3.801-4.965l-6.019,1.805l3.535-5.153
		l-3.535-5.154L271.827,149.872z M268.517,181.999l3.799-4.928l0.151,6.245l5.906,2.068l-5.906,2.069l-0.151,6.245l-3.799-4.929
		l-6.019,1.769l3.574-5.154l-3.574-5.153L268.517,181.999z M188.049,56.124l-3.8-4.965l-6.02,1.806l3.574-5.154l-3.574-5.153
		l6.02,1.768l3.8-4.928l0.15,6.245l5.906,2.069l-5.906,2.069L188.049,56.124z M166.491,45.553l-5.942,2.069l-0.113,6.244l-3.8-4.928
		l-6.019,1.769l3.537-5.154l-3.537-5.154l6.019,1.768l3.8-4.928l0.113,6.245L166.491,45.553z M135.495,48.938l-5.906,2.069
		l-0.151,6.245l-3.799-4.966l-5.983,1.807l3.537-5.155l-3.537-5.154l5.983,1.769l3.799-4.928l0.151,6.245L135.495,48.938z
		 M103.667,56.462l5.907,2.069l-5.907,2.069l-0.15,6.245l-3.8-4.966l-6.019,1.768l3.574-5.116l-3.574-5.154l6.019,1.768l3.8-4.965
		L103.667,56.462z M99.079,250.655l0.112,6.244l5.944,2.107l-5.944,2.031l-0.112,6.282l-3.838-4.966l-5.981,1.768l3.537-5.115
		l-3.537-5.192l5.981,1.807L99.079,250.655z M115.781,276.236l3.537-5.117l-3.537-5.152l5.981,1.768l3.838-4.966l0.112,6.245
		l5.944,2.105l-5.944,2.031l-0.112,6.283l-3.838-4.966L115.781,276.236z M185.341,281.126l-3.801-4.966l-6.019,1.77l3.572-5.117
		l-3.572-5.153l6.019,1.768l3.801-4.966l0.149,6.245l5.906,2.106l-5.906,2.031L185.341,281.126z M164.912,275.635l-5.943,2.031
		l-0.112,6.282l-3.801-4.966l-6.019,1.768l3.537-5.115l-3.537-5.155l6.019,1.769l3.801-4.965l0.112,6.243L164.912,275.635z
		 M263.287,223.606l-3.799-4.966l-5.981,1.769l3.536-5.117l-3.536-5.191l5.981,1.807l3.799-4.966l0.151,6.245l5.905,2.105
		l-5.905,2.031L263.287,223.606z M212.538,261.15l5.906,2.068l-5.906,2.069l-0.149,6.246l-3.801-4.967l-5.981,1.769l3.537-5.117
		l-3.537-5.152l5.981,1.768l3.801-4.966L212.538,261.15z M242.445,233.989l0.151,6.245l5.905,2.105l-5.905,2.033l-0.151,6.282
		l-3.799-4.967l-6.019,1.769l3.574-5.117l-3.574-5.153l6.019,1.769L242.445,233.989z M53.671,99.425l-3.537-5.155l6.021,1.769
		l3.799-4.966l0.112,6.283l5.944,2.069l-5.944,2.069l-0.112,6.245l-3.799-4.967l-6.021,1.806L53.671,99.425z M44.793,124.027
		l3.8-4.966l0.112,6.245l5.944,2.069l-5.944,2.069l-0.112,6.245l-3.8-4.928l-6.019,1.769l3.537-5.155l-3.537-5.153L44.793,124.027z
		 M34.259,153.258l6.019,1.768l3.8-4.927l0.15,6.245l5.906,2.068l-5.906,2.069l-0.15,6.245l-3.8-4.966l-6.019,1.806l3.574-5.154
		L34.259,153.258z M48.593,183.354l0.112,6.245l5.944,2.068l-5.944,2.069l-0.112,6.245l-3.8-4.929l-6.019,1.768l3.537-5.153
		l-3.537-5.152l6.019,1.805L48.593,183.354z M51.489,224.923l3.537-5.154l-3.537-5.153l5.982,1.807l3.836-4.968l0.113,6.245
		l5.944,2.069l-5.944,2.07l-0.113,6.245l-3.836-4.929L51.489,224.923z M67.817,237.187l6.019,1.769l3.799-4.966l0.151,6.245
		l5.905,2.105l-5.905,2.033l-0.151,6.282l-3.799-4.967l-6.019,1.769l3.573-5.117L67.817,237.187z"/>
	<path fill-rule="evenodd" clip-rule="evenodd" fill="#F04B23" d="M222.47,90.114c0.938,0.876,1.867,1.772,2.785,2.689
		c18.382,18.409,27.573,40.617,27.573,66.625c0,19.519-5.179,36.887-15.535,52.104c-0.415,0.604-0.836,1.206-1.261,1.805
		c-0.403,0.556-0.812,1.105-1.222,1.655c-0.39,0.516-0.784,1.029-1.186,1.543c-2.535,3.254-5.325,6.4-8.37,9.441
		c-18.384,18.409-40.579,27.613-66.588,27.613c-26.008,0-48.204-9.204-66.585-27.613c-2.224-2.22-4.312-4.496-6.264-6.827
		c-0.459-0.55-0.91-1.101-1.354-1.655c-0.425-0.529-0.846-1.063-1.26-1.599c-0.391-0.51-0.773-1.023-1.148-1.543
		c-11.699-15.872-17.548-34.18-17.548-54.924c0-26.008,9.192-48.216,27.575-66.625c1.934-1.931,3.916-3.763,5.943-5.492
		c0.738-0.634,1.485-1.255,2.238-1.862c1.04-0.841,2.093-1.656,3.161-2.445c0.78-0.578,1.564-1.142,2.351-1.693
		c15.411-10.697,33.042-16.044,52.892-16.044c21.359,0,40.145,6.188,56.354,18.564c0.782,0.597,1.56,1.205,2.333,1.825
		c1.017,0.832,2.027,1.685,3.028,2.559C221.082,88.837,221.778,89.471,222.47,90.114z M207.687,105.18
		c-0.126,0.577-0.215,1.73-0.264,3.461c-0.126,1.455-0.276,2.583-0.451,3.386c-0.502,1.103-1.13,1.98-1.882,2.633
		c0.325-1.932,0.288-3.737-0.112-5.417c0-1.204-0.314-2.044-0.94-2.521l-0.339-0.488c-0.301-0.426-0.627-0.515-0.978-0.264
		c-1.205,0.928-2.095,2.697-2.671,5.305c-0.753,3.36-1.305,5.354-1.655,5.981c-1.104,2.208-2.697,4.377-4.777,6.509
		c-0.527,0.577-2.471,2.408-5.832,5.492l-1.128,0.865c-0.702,0.3-1.405,0.477-2.107,0.527l-1.806,0.338
		c-1.153,0.126-2.082,0.188-2.784,0.188l0.264-0.526h0.075l0.452-1.317c1.429-4.289,2.646-7.474,3.648-9.556
		c1.505-3.36,2.219-5.969,2.145-7.825c0-1.33-0.49-2.194-1.467-2.596c-0.979-0.477-1.73-0.05-2.258,1.279
		c-0.401,1.053-1.041,2.822-1.919,5.304c-0.752,2.333-1.392,4.101-1.919,5.305c-1.378,3.36-3.549,6.608-6.507,9.743l-0.075,0.076
		c-1.506,0.125-2.873,0.539-4.102,1.241c-0.702-4.515-1.053-7.913-1.053-10.195l0.264-3.8l0.527-2.633
		c0-0.05,0.701-1.868,2.105-5.455c0.853-2.156,1.077-4.037,0.678-5.643c-0.051-0.352-0.339-0.527-0.866-0.527
		c-0.401,0.101-0.84,0.276-1.316,0.527h-0.414l-0.187,0.339c-1.154,0.877-2.171,2.407-3.049,4.589
		c-0.226,0.577-0.738,2.257-1.543,5.041c-0.399,1.354-0.688,2.872-0.864,4.553l-0.376,2.407l-0.339,6.771
		c-0.226,2.106-0.539,3.8-0.94,5.079c-0.351,0.451-0.991,1.027-1.919,1.73c-1.103,0.677-1.919,1.192-2.444,1.542l-0.151-0.075
		l-0.112,0.188l-0.864,0.602c-1.029-3.185-2.797-5.855-5.306-8.012c-3.937-3.36-7.673-8.665-11.209-15.913l-0.79-2.333
		c-0.628-1.806-1.23-2.997-1.807-3.574v-0.264c-0.301-0.226-0.677-0.401-1.129-0.527l-0.79-0.075c-0.476,0-0.714,0.238-0.714,0.714
		v0.263c-0.626,0.978-0.878,2.195-0.752,3.649l0.075,0.941c-0.051,2.031,0.677,4.664,2.181,7.9c1.104,2.257,2.633,4.438,4.59,6.545
		l1.655,1.618c0.478,0.602,1.292,1.505,2.445,2.708c0.978,1.054,1.531,2.006,1.657,2.859c-0.929-0.501-1.744-0.877-2.446-1.128
		c-1.378-0.452-2.596-0.677-3.648-0.677c-0.401-0.05-1.017-0.075-1.844-0.075h-0.151c-1.754,0.1-4.1-0.276-7.035-1.129
		c-0.476-0.603-0.915-0.992-1.316-1.167c-0.577-0.226-0.979-0.075-1.205,0.452c-1.98-1.379-3.573-2.946-4.777-4.702
		c-2.559-3.762-3.374-7.549-2.445-11.361c0.451-1.454,0.801-2.558,1.053-3.31c0.451-1.405,0.614-2.571,0.488-3.499
		c-0.05-0.677-0.388-0.966-1.015-0.865c-0.527-0.227-1.167-0.113-1.92,0.338c-0.752,0.928-1.453,2.27-2.106,4.026
		c-0.401,0.928-0.827,2.482-1.279,4.665c-0.476,2.031-0.94,3.574-1.392,4.627c-2.081-1.229-3.248-3.95-3.499-8.163
		c-0.05-1.931-0.162-3.411-0.337-4.44c-0.277-1.906-0.915-3.185-1.919-3.836c-0.677-0.453-1.405-0.276-2.182,0.526
		c-0.502,0.577-0.965,1.279-1.392,2.107c-0.803,1.604-0.966,3.398-0.488,5.378l0.262,1.995c0.151,0.752,0.527,1.856,1.129,3.311
		l0.677,2.257l-0.076,1.203l-1.392-1.128c-1.329-1.104-2.457-2.546-3.386-4.326c-0.577-1.104-1.303-2.784-2.183-5.042
		c-1.628-4.414-3.423-6.534-5.378-6.358c-0.828,0.051-1.242,0.804-1.242,2.258v0.076c-0.101,1.003,0.138,2.257,0.714,3.762
		c0.351,1.429,1.191,3.95,2.52,7.562c-2.557-0.928-4.564-2.119-6.019-3.574c-1.028-1.104-1.831-1.919-2.407-2.445
		c-1.053-0.928-2.02-1.567-2.897-1.918l-0.489-0.151c-1.228-0.401-1.755,0.577-1.58,2.935c1.153,2.908,3.361,5.266,6.621,7.072
		c2.257,1.204,5.468,2.357,9.63,3.461l3.047,3.197c1.805,1.855,4.478,3.775,8.013,5.755c2.483,1.33,5.756,2.433,9.819,3.312
		c5.493,1.103,8.815,1.831,9.969,2.181c0.175,0.501,0.464,1.655,0.865,3.461c0.352,1.455,0.74,2.583,1.167,3.386
		c0.752,1.455,1.73,2.621,2.935,3.498c0.803,0.627,2.106,1.117,3.913,1.468l1.917,0.526c-0.4,1.956-0.426,3.636-0.075,5.042
		c0.226,0.928,0.652,1.856,1.279,2.783c-0.752,3.011-0.313,5.793,1.317,8.352c-2.382,3.411-0.39,7.662,5.981,12.753l0.188,0.188
		l0.451,0.602c-0.126,0.703-0.163,1.317-0.112,1.844c0.075,0.802,0.425,2.245,1.053,4.326c0.351,1.329,0.577,3.071,0.678,5.23v3.385
		c-0.101,3.812,0.539,7.311,1.917,10.495c0.353,0.878,0.94,1.868,1.77,2.973c0.226,0.401,1.203,1.704,2.935,3.912l1.128,1.467
		c0.578,1.179,0.927,2.107,1.053,2.785c0.101,0.525,0.452,2.619,1.055,6.282c0.401,2.482,0.864,4.539,1.392,6.169
		c0.502,1.379,1.191,2.646,2.068,3.8c1.054,2.031,2.207,3.75,3.461,5.153l0.64,1.016c0.051,0.252,0.275,0.376,0.677,0.376
		c0.353,0,0.527-0.175,0.527-0.525c0.176-0.878,0.903-1.894,2.183-3.047c0.752-0.628,1.768-1.469,3.047-2.521
		c1.254-1.279,2.471-3.311,3.647-6.094c2.084-4.867,3.476-7.963,4.177-9.292c1.731-3.311,3.724-6.032,5.981-8.164
		c2.659-2.433,6.885-4.376,12.679-5.832l2.52-0.187c7.072-0.353,13.432-2.835,19.074-7.448l1.467-0.979
		c0.226-0.176,0.338-0.401,0.338-0.676c0.351-0.479,0.289-0.854-0.188-1.13c-4.288-3.084-7.586-5.355-9.893-6.809
		c-3.989-2.533-7.612-4.15-10.872-4.854c-2.785-0.526-4.841-0.928-6.171-1.204c-2.382-0.477-4.414-1.116-6.094-1.918
		c-5.141-2.332-7.862-3.549-8.164-3.649c-0.225-0.251-0.539-0.426-0.94-0.526l-0.451-1.242c-0.275-1.955-0.853-4.063-1.73-6.319
		c-0.476-1.279-1.379-3.285-2.708-6.02c-1.605-3.36-2.446-6.056-2.521-8.088c-0.051-1.68,0.302-3.875,1.054-6.583l0.452-0.113
		c0.502,0.175,1.077,0.264,1.73,0.264c1.905-0.452,3.435-1.543,4.59-3.273l0.714-0.979c0.451-0.577,1.379-2.433,2.784-5.568h0.074
		c0.929-1.33,2.232-2.395,3.913-3.197l2.258-1.73l2.257-0.903c4.94-1.956,8.164-3.26,9.668-3.912
		c3.638-1.555,6.733-3.11,9.292-4.665c4.163-2.508,7.462-5.354,9.895-8.54c3.26-4.339,3.787-8.25,1.58-11.737
		c-0.352-0.527-0.728-0.577-1.129-0.15c-2.834,3.286-5.004,5.718-6.509,7.298c-2.508,2.658-4.952,4.715-7.336,6.17
		c2.107-5.693,1.77-9.781-1.016-12.264c-0.4-0.401-0.777-0.376-1.128,0.075l-1.128,2.446L207.687,105.18z"/>
	<path fill-rule="evenodd" clip-rule="evenodd" fill="#093846" d="M207.687,105.18l-0.075-0.79l1.128-2.446
		c0.351-0.451,0.728-0.476,1.128-0.075c2.785,2.483,3.123,6.571,1.016,12.264c2.384-1.455,4.828-3.512,7.336-6.17
		c1.505-1.58,3.675-4.012,6.509-7.298c0.401-0.426,0.777-0.377,1.129,0.15c2.207,3.486,1.68,7.398-1.58,11.737
		c-2.433,3.186-5.731,6.032-9.895,8.54c-2.559,1.555-5.654,3.109-9.292,4.665c-1.504,0.652-4.728,1.957-9.668,3.912l-2.257,0.903
		l-2.258,1.73c-1.681,0.803-2.984,1.868-3.913,3.197h-0.074c-1.405,3.135-2.333,4.991-2.784,5.568l-0.714,0.979
		c-1.155,1.73-2.685,2.821-4.59,3.273c-0.653,0-1.229-0.088-1.73-0.264l-0.452,0.113c-0.752,2.708-1.104,4.903-1.054,6.583
		c0.075,2.032,0.916,4.728,2.521,8.088c1.329,2.734,2.232,4.74,2.708,6.02c0.878,2.257,1.455,4.364,1.73,6.319l0.451,1.242
		c0.401,0.101,0.716,0.275,0.94,0.526c0.302,0.101,3.023,1.317,8.164,3.649c1.68,0.802,3.712,1.441,6.094,1.918
		c1.33,0.276,3.386,0.678,6.171,1.204c3.26,0.703,6.883,2.32,10.872,4.854c2.307,1.453,5.604,3.725,9.893,6.809
		c0.478,0.275,0.539,0.651,0.188,1.13c0,0.274-0.112,0.5-0.338,0.676l-1.467,0.979c-5.643,4.613-12.002,7.096-19.074,7.448
		l-2.52,0.187c-5.794,1.456-10.02,3.399-12.679,5.832c-2.258,2.132-4.25,4.854-5.981,8.164c-0.701,1.329-2.093,4.425-4.177,9.292
		c-1.177,2.783-2.394,4.814-3.647,6.094c-1.279,1.053-2.295,1.894-3.047,2.521c-1.279,1.153-2.007,2.169-2.183,3.047
		c0,0.351-0.175,0.525-0.527,0.525c-0.401,0-0.626-0.124-0.677-0.376l-0.64-1.016c-1.254-1.403-2.407-3.122-3.461-5.153
		c-0.877-1.153-1.566-2.421-2.068-3.8c-0.527-1.63-0.99-3.687-1.392-6.169c-0.603-3.663-0.954-5.757-1.055-6.282
		c-0.126-0.678-0.475-1.606-1.053-2.785l-1.128-1.467c-1.731-2.208-2.709-3.511-2.935-3.912c-0.829-1.104-1.417-2.095-1.77-2.973
		c-1.378-3.185-2.018-6.684-1.917-10.495v-3.385c-0.101-2.159-0.327-3.901-0.678-5.23c-0.627-2.081-0.978-3.524-1.053-4.326
		c-0.051-0.526-0.014-1.141,0.112-1.844l-0.451-0.602l-0.188-0.188c-6.371-5.091-8.363-9.342-5.981-12.753
		c-1.63-2.559-2.069-5.341-1.317-8.352c-0.627-0.927-1.053-1.855-1.279-2.783c-0.351-1.405-0.325-3.086,0.075-5.042l-1.917-0.526
		c-1.807-0.351-3.11-0.84-3.913-1.468c-1.204-0.877-2.182-2.043-2.935-3.498c-0.427-0.802-0.815-1.931-1.167-3.386
		c-0.4-1.806-0.689-2.96-0.865-3.461c-1.153-0.351-4.476-1.078-9.969-2.181c-4.063-0.878-7.336-1.982-9.819-3.312
		c-3.536-1.98-6.208-3.9-8.013-5.755l-3.047-3.197c-4.163-1.104-7.373-2.257-9.63-3.461c-3.26-1.806-5.468-4.164-6.621-7.072
		c-0.175-2.358,0.352-3.336,1.58-2.935l0.489,0.151c0.877,0.352,1.844,0.99,2.897,1.918c0.577,0.526,1.379,1.341,2.407,2.445
		c1.455,1.455,3.462,2.646,6.019,3.574c-1.329-3.611-2.169-6.132-2.52-7.562c-0.577-1.504-0.815-2.759-0.714-3.762v-0.076
		c0-1.454,0.414-2.207,1.242-2.258c1.955-0.175,3.75,1.944,5.378,6.358c0.879,2.257,1.606,3.938,2.183,5.042
		c0.929,1.78,2.057,3.222,3.386,4.326l1.392,1.128l0.076-1.203l-0.677-2.257c-0.602-1.455-0.978-2.559-1.129-3.311l-0.262-1.995
		c-0.478-1.98-0.314-3.774,0.488-5.378c0.427-0.828,0.89-1.53,1.392-2.107c0.777-0.803,1.505-0.979,2.182-0.526
		c1.004,0.651,1.642,1.931,1.919,3.836c0.175,1.029,0.288,2.509,0.337,4.44c0.251,4.212,1.418,6.934,3.499,8.163
		c0.451-1.053,0.916-2.596,1.392-4.627c0.453-2.182,0.878-3.736,1.279-4.665c0.653-1.756,1.354-3.098,2.106-4.026
		c0.753-0.451,1.393-0.564,1.92-0.338c0.626-0.101,0.965,0.188,1.015,0.865c0.125,0.928-0.038,2.094-0.488,3.499
		c-0.252,0.752-0.603,1.856-1.053,3.31c-0.929,3.812-0.114,7.599,2.445,11.361c1.204,1.756,2.796,3.323,4.777,4.702
		c0.226-0.526,0.628-0.677,1.205-0.452c0.401,0.175,0.84,0.564,1.316,1.167c2.935,0.853,5.28,1.229,7.035,1.129h0.151
		c0.827,0,1.442,0.024,1.844,0.075c1.052,0,2.27,0.226,3.648,0.677c0.703,0.251,1.518,0.627,2.446,1.128
		c-0.126-0.853-0.679-1.806-1.657-2.859c-1.153-1.204-1.967-2.107-2.445-2.708l-1.655-1.618c-1.957-2.107-3.486-4.288-4.59-6.545
		c-1.504-3.236-2.232-5.869-2.181-7.9l-0.075-0.941c-0.126-1.454,0.125-2.671,0.752-3.649v-0.263c0-0.476,0.238-0.714,0.714-0.714
		l0.79,0.075c0.452,0.126,0.828,0.301,1.129,0.527v0.264c0.577,0.577,1.179,1.768,1.807,3.574l0.79,2.333
		c3.537,7.248,7.272,12.553,11.209,15.913c2.509,2.157,4.277,4.828,5.306,8.012l0.864-0.602l0.112-0.188l0.151,0.075
		c0.525-0.351,1.342-0.865,2.444-1.542c0.928-0.703,1.568-1.279,1.919-1.73c0.401-1.279,0.715-2.973,0.94-5.079l0.339-6.771
		l0.376-2.407c0.176-1.681,0.465-3.198,0.864-4.553c0.805-2.784,1.317-4.464,1.543-5.041c0.878-2.182,1.895-3.712,3.049-4.589
		l0.187-0.339h0.414c0.477-0.25,0.915-0.426,1.316-0.527c0.527,0,0.815,0.175,0.866,0.527c0.399,1.605,0.175,3.486-0.678,5.643
		c-1.404,3.587-2.105,5.405-2.105,5.455l-0.527,2.633l-0.264,3.8c0,2.282,0.351,5.68,1.053,10.195
		c1.229-0.702,2.596-1.116,4.102-1.241l0.075-0.076c2.958-3.135,5.129-6.383,6.507-9.743c0.527-1.204,1.167-2.972,1.919-5.305
		c0.878-2.482,1.518-4.251,1.919-5.304c0.527-1.329,1.279-1.755,2.258-1.279c0.977,0.401,1.467,1.266,1.467,2.596
		c0.074,1.856-0.64,4.464-2.145,7.825c-1.003,2.082-2.22,5.267-3.648,9.556l-0.452,1.317h-0.075l-0.264,0.526
		c0.702,0,1.631-0.062,2.784-0.188l1.806-0.338c0.702-0.051,1.405-0.227,2.107-0.527l1.128-0.865
		c3.361-3.084,5.305-4.916,5.832-5.492c2.08-2.132,3.673-4.301,4.777-6.509c0.351-0.627,0.902-2.621,1.655-5.981
		c0.576-2.608,1.466-4.377,2.671-5.305c0.351-0.25,0.677-0.162,0.978,0.264l0.339,0.488c0.626,0.477,0.94,1.317,0.94,2.521
		c0.4,1.68,0.438,3.485,0.112,5.417c0.752-0.652,1.38-1.53,1.882-2.633c0.175-0.804,0.325-1.932,0.451-3.386
		C207.472,106.91,207.561,105.757,207.687,105.18z"/>
</g>
</svg>
