<?xml version="1.0" encoding="utf-8"?>
<!-- Generator: Adobe Illustrator 16.0.0, SVG Export Plug-In . SVG Version: 6.00 Build 0)  -->
<!DOCTYPE svg PUBLIC "-//W3C//DTD SVG 1.1//EN" "http://www.w3.org/Graphics/SVG/1.1/DTD/svg11.dtd">
<svg version="1.1" id="Layer_1" xmlns="http://www.w3.org/2000/svg" xmlns:xlink="http://www.w3.org/1999/xlink" x="0px" y="0px"
	 width="300px" height="300px" viewBox="0 0 300 300" enable-background="new 0 0 300 300" xml:space="preserve">
<g>
	<path fill-rule="evenodd" clip-rule="evenodd" fill="#E9396F" d="M221.371,76.277c-0.157,0.407-0.328,0.83-0.516,1.271
		c-1.129,2.626-1.694,4.664-1.694,6.112c0,1.424,0.074,2.394,0.222,2.909c0.122,0.466,1.104,0.7,2.946,0.7
		c1.816,0,3.448-0.528,4.896-1.583c0.799-0.605,1.56-1.109,2.283-1.51c0.34-0.195,0.672-0.367,0.993-0.516
		c0.213-0.095,0.422-0.181,0.626-0.257c0.173,0.54,0.258,1.141,0.258,1.804c0,0.023,0,0.047,0,0.074
		c-0.019,0.463-0.221,0.899-0.607,1.307c-0.601,0.642-1.65,1.213-3.148,1.712c-2.822,0.958-4.344,1.633-4.564,2.025
		c0.393,0.393,1.313,0.601,2.761,0.626c1.13,0.025,1.694,0.466,1.694,1.326c0,0.858-0.553,1.289-1.657,1.289
		c-1.816,0-2.847,0.037-3.093,0.11c-0.044,0.168-0.063,0.328-0.056,0.479c0.051,0.952,1.125,1.566,3.222,1.841
		c0.299,0.045,0.746,0.082,1.344,0.11c1.024,0.049,2.491,0.074,4.4,0.074c0.288,0,0.57,0.006,0.847,0.019
		c0.38,0.017,0.748,0.047,1.104,0.092c0.819,0.093,1.568,0.252,2.246,0.478c1.006,0.344,2.197,0.981,3.572,1.915
		c-0.639,0.736-1.143,1.166-1.511,1.289c-0.146,0.073-0.662,0.11-1.546,0.11c-0.353,0-1.383-0.221-3.093-0.663
		c-0.329-0.093-0.685-0.191-1.068-0.295c-0.26-0.07-0.529-0.144-0.81-0.221c-2.16-0.589-3.744-1.031-4.75-1.325h-3.902
		c0,0.146-0.037,0.405-0.111,0.773c-0.098,0.344-0.146,0.638-0.146,0.884c0,1.963,1.779,3.792,5.339,5.486
		c0.532,0.253,1.231,0.572,2.099,0.958c0.312,0.146,0.65,0.299,1.013,0.46c0.473,0.213,0.982,0.44,1.528,0.681
		c1.841,0.858,3.239,1.669,4.197,2.43c0.638,0.688,0.699,1.215,0.184,1.583c-0.54,0.343-1.51,0.393-2.908,0.147
		c-1.04-0.179-2.537-1.008-4.493-2.485c-0.284-0.211-0.579-0.439-0.883-0.681c-0.469-0.373-0.959-0.777-1.473-1.214
		c-3.143-2.701-5.609-4.05-7.401-4.05c-0.319,0-0.688,0.282-1.104,0.846c-0.368,0.516-0.355,1.007,0.037,1.473
		c0.368,0.442,1.398,1.104,3.093,1.988c1.67,0.859,2.209,1.742,1.62,2.651c-0.073,0-0.159,0.049-0.258,0.147
		c-0.147,0.098-0.344,0.147-0.589,0.147c-0.368,0-0.773-0.196-1.215-0.589c-0.59-0.564-1.253-0.7-1.989-0.405
		c-0.27-0.222-0.478,0.049-0.625,0.81c-0.05,0.344-0.074,1.142-0.074,2.394c0,0.27,0.013,0.552,0.037,0.847
		c0.028,0.833,0.103,1.729,0.221,2.688c0.051,0.359,0.105,0.727,0.166,1.104c0.063,0.359,0.131,0.727,0.202,1.104
		c0.049,0.295,0.099,0.577,0.147,0.847c0.417,1.963,0.908,3.571,1.473,4.823c0.564,1.718,0.185,2.626-1.142,2.725
		c-0.146,0.024-0.282,0.037-0.405,0.037c-0.859,0-1.742-2.295-2.65-6.885c-0.074-0.246-0.123-0.479-0.147-0.7
		c-0.083-0.38-0.162-0.748-0.239-1.104c-0.089-0.362-0.175-0.712-0.258-1.049c-0.353-1.401-0.702-2.598-1.049-3.59
		c-0.541-1.498-1.08-2.516-1.62-3.057h-0.736h-0.368v4.418c-0.05,0-0.099,0.012-0.147,0.037c-0.099,0.049-0.147,0.135-0.147,0.258
		c-0.584,0.076-1.013-0.064-1.289-0.423c-0.165-0.208-0.276-0.497-0.331-0.865c0-0.123,0-0.246,0-0.368
		c-0.024-1.13-0.05-1.964-0.074-2.504c-0.196,0-0.294-0.099-0.294-0.295c-0.442,0.564-0.896,1.497-1.362,2.799
		c-0.122,0.318-0.233,0.638-0.332,0.957c-0.236,0.71-0.556,1.692-0.957,2.946c-0.102,0.334-0.213,0.69-0.331,1.068
		c-0.086,0.246-0.172,0.504-0.258,0.773c-0.025,0.024-0.037,0.073-0.037,0.147c-1.497,4.025-3.596,6.038-6.296,6.038
		c-0.859,0-1.46-0.65-1.804-1.951l-0.295-1.915c0-0.663,0.404-1.436,1.215-2.319c0.024-0.05,0.062-0.099,0.11-0.147
		c0.148-0.17,0.885-0.876,2.209-2.117c0.209-0.188,0.43-0.39,0.663-0.607c0.08-0.074,0.159-0.147,0.239-0.221
		c0.946-0.905,1.725-1.789,2.338-2.651c1.056-1.473,1.583-2.873,1.583-4.198c0-0.982-0.466-1.719-1.398-2.209
		c-0.712-0.368-1.596-0.552-2.651-0.552c-0.981,0-1.841,0.577-2.577,1.73c-0.688,1.375-1.265,2.283-1.73,2.725
		c-0.736,0.54-1.375,0.54-1.915,0c-0.933-0.565-0.933-1.4,0-2.504c1.081-0.221,2.147-0.712,3.203-1.473
		c1.007-0.736,1.792-1.546,2.357-2.43v-2.209c-0.172,0-0.418-0.049-0.737-0.147c-0.294-0.098-0.564-0.146-0.81-0.146
		c-0.564,0-1.301,0.736-2.21,2.209c-0.932,1.521-1.816,2.368-2.65,2.54c-0.933,0.368-1.669,0.368-2.209,0
		c0-0.073-0.049-0.257-0.147-0.552c-0.099-0.319-0.147-0.601-0.147-0.847c0-0.442,0.552-1.191,1.656-2.246
		c0.369-0.54,0.369-1.092,0-1.657h-3.055c-0.451,0.106-0.998,0.351-1.64,0.737c-0.293,0.172-0.606,0.375-0.938,0.607
		c-0.294,0.208-0.601,0.435-0.92,0.682c-0.688,0.564-1.768,1.497-3.241,2.798c-0.049,0.073-0.109,0.134-0.184,0.184
		c-0.467,0.368-0.933,0.368-1.398,0c0-0.172-0.049-0.479-0.147-0.921s-0.147-0.786-0.147-1.031c0-0.957,0.625-1.804,1.877-2.541
		c0.246-0.146,0.504-0.282,0.773-0.405c0.407-0.188,1.347-0.52,2.817-0.994c0.321-0.105,0.665-0.215,1.031-0.332
		c0.603-0.191,1.271-0.399,2.006-0.625c0.474-0.145,0.921-0.292,1.344-0.442l12.316-0.552c0-2.037,0-3.105,0-3.203
		c-0.024-0.147-0.258-0.246-0.699-0.294c-1.752,0.031-3.494,0.061-5.229,0.092c0.103-0.162,0.194-0.327,0.276-0.497
		c0.307-0.659,0.46-1.371,0.46-2.136c0-1.055-0.245-1.816-0.736-2.283c-0.516-0.516-1.571-0.969-3.166-1.362
		c0-0.172-0.087-0.258-0.258-0.258c0-0.761,0.073-1.178,0.221-1.252c0.123-0.098,0.602-0.146,1.437-0.146
		c0.81,0,1.668,0.184,2.577,0.552c0.907,0.368,1.902,0.552,2.982,0.552c1.497,0,2.356-0.038,2.577-0.111
		c0.073-0.049,0.135-0.086,0.184-0.111v-3.092c-0.27-0.934-1.301-2.884-3.093-5.854c-0.615-1.054-1.101-2.011-1.454-2.872
		c-0.153-0.374-0.282-0.73-0.387-1.068c-0.221-0.719-0.331-1.358-0.331-1.915c0-0.564,0.085-0.933,0.258-1.104
		c0.221-0.196,0.602-0.295,1.142-0.295c0.882,0,1.729,0.651,2.54,1.952c0.024,0.035,0.05,0.071,0.073,0.111
		c0.132,0.216,0.292,0.511,0.479,0.883c0.392,0.825,0.907,2.028,1.546,3.608c0.884,2.111,1.645,3.609,2.282,4.492
		c0.569,0.796,1.17,1.361,1.805,1.694c0.461,0.245,0.939,0.368,1.437,0.368c0.177,0,0.348-0.006,0.516-0.019
		c1.506-0.147,2.636-0.938,3.387-2.375c0.589-1.08,1.08-2.836,1.473-5.266c0.127-0.802,0.244-1.52,0.351-2.154
		c0.071-0.402,0.14-0.771,0.202-1.104c0.178-0.961,0.324-1.63,0.442-2.007c0.563-1.595,1.448-2.393,2.65-2.393
		c0.516,0,0.884,0.282,1.104,0.847c0.196,0.417,0.295,0.92,0.295,1.509c0,0.948-0.252,2.169-0.755,3.664
		C221.641,75.553,221.512,75.909,221.371,76.277z M229.029,94.154l-0.404-0.368c0.859-0.344,1.447-0.516,1.767-0.516
		c0.442,0,0.7,0,0.773,0c0.074,0.049,0.196,0.233,0.368,0.552v0.332v0.626c-0.417,0.835-1.019,0.835-1.804,0L229.029,94.154z
		 M210.656,65.508c0.266-0.123,0.56-0.184,0.884-0.184c0.401,0,0.758,0.129,1.068,0.387c0.354,0.304,0.647,0.777,0.884,1.417
		c0.27,0.785,0.404,1.571,0.404,2.356c0,0.509-0.429,1.447-1.288,2.817c-0.178,0.281-0.375,0.582-0.59,0.902
		c-0.598,0.888-1.053,1.71-1.362,2.467c-0.084,0.199-0.157,0.395-0.221,0.589c-0.196-0.368-0.43-0.786-0.7-1.252
		c-0.221-0.384-0.398-0.833-0.533-1.344c-0.089-0.336-0.156-0.699-0.203-1.086c-0.073-0.54-0.109-1.129-0.109-1.768
		C208.89,67.824,209.479,66.057,210.656,65.508z M224.408,78.377c0.1,0.081,0.197,0.167,0.295,0.257
		c0.177,0.301,0.231,0.872,0.165,1.712l-0.846,0.663c-0.245,0.27-0.627,0.442-1.142,0.515c-0.074,0.024-0.184,0.05-0.331,0.074
		c0.073-0.368,0.196-1.167,0.368-2.394C223.58,78.564,224.077,78.288,224.408,78.377z M193.351,94.762
		c-1.115,0.017-2.227,0.035-3.331,0.055c0.262-0.21,0.611-0.431,1.049-0.663c0.025-0.012,0.05-0.024,0.073-0.037
		c1.179-0.589,2.185-0.835,3.02-0.736h0.294c-0.224,0.266-0.438,0.523-0.644,0.773c-0.145,0.188-0.286,0.373-0.424,0.552
		C193.373,94.723,193.361,94.742,193.351,94.762z M234.663,91.172c0.441-0.368,0.834-0.552,1.178-0.552
		c0.295,0,1.043,0.134,2.246,0.405c0.295,0.81-0.27,0.957-1.693,0.441c-0.614,0-1.265-0.037-1.952-0.11
		C234.516,91.306,234.589,91.245,234.663,91.172z M197.622,79.353c1.153-0.319,1.89,0.27,2.209,1.767
		c0.099,0.393,0.173,0.872,0.222,1.436c-0.491-0.271-0.859-0.467-1.104-0.589c-0.688-0.393-1.129-0.749-1.326-1.068V79.353z"/>
	<path fill-rule="evenodd" clip-rule="evenodd" fill="#E22433" d="M212.608,65.71c-0.311-0.257-0.667-0.387-1.068-0.387
		c-0.324,0-0.618,0.062-0.884,0.184v-9.352c-0.049,0-0.11,0-0.184,0c-10.629-0.025-19.699,3.73-27.211,11.267
		c-7.412,7.413-11.168,16.323-11.267,26.731h16.054c0.246-5.793,2.455-10.789,6.627-14.985c1.896-1.885,3.958-3.37,6.187-4.456
		c0.104,0.338,0.233,0.694,0.387,1.068c-2.073,1.03-3.994,2.429-5.763,4.198c-3.977,3.952-6.087,8.677-6.333,14.175h1.915
		c-0.438,0.232-0.787,0.453-1.049,0.663c-6.174,0.12-12.243,0.243-18.208,0.368c-5.498,0.123-11.059,0.171-16.68,0.147
		c-5.057-0.049-7.266-0.098-6.627-0.147c0.427-0.024,0.79-0.368,1.086-1.031h20.454c0.098-10.948,4.051-20.312,11.856-28.094
		c7.879-7.904,17.402-11.856,28.572-11.856c0.073,0,0.135,0,0.184,0V37.156c0-0.27,0.086-0.49,0.258-0.662
		c0.196-0.196,0.43-0.295,0.699-0.295c0.271,0,0.504,0.099,0.7,0.295c0.172,0.172,0.27,0.393,0.295,0.662v17.084
		c10.26,0.467,19.085,4.406,26.474,11.819c7.781,7.782,11.733,17.146,11.855,28.094h21.944c0.27,0,0.491,0.098,0.663,0.295
		c0.196,0.196,0.294,0.429,0.294,0.699s-0.098,0.491-0.294,0.663c-0.172,0.196-0.394,0.294-0.663,0.294h-21.944
		c-0.368,10.555-4.32,19.601-11.855,27.136c-7.389,7.389-16.214,11.328-26.474,11.819v20.03c-0.025,0.271-0.123,0.491-0.295,0.663
		c-0.196,0.196-0.43,0.294-0.7,0.294c-0.27,0-0.503-0.098-0.699-0.294c-0.172-0.172-0.258-0.393-0.258-0.663v-19.993
		c-0.049,0-0.11,0-0.184,0c-11.17,0-20.693-3.952-28.572-11.856c-6.703-6.682-10.563-14.549-11.58-23.602l1.97-0.092
		c0.983,8.556,4.641,16,10.972,22.332c7.512,7.511,16.582,11.267,27.211,11.267c0.073,0,0.135,0,0.184,0v-15.023
		c-1.268-0.01-2.495-0.108-3.682-0.294c0.118-0.377,0.229-0.733,0.331-1.068c1.088,0.163,2.203,0.248,3.351,0.257v-2.927
		c0.276,0.359,0.705,0.5,1.289,0.423c0-0.123,0.049-0.209,0.147-0.258c0.049-0.024,0.098-0.037,0.147-0.037v-4.418h0.368v7.144
		c1.168-0.083,2.305-0.248,3.405-0.497c0.083,0.337,0.169,0.688,0.258,1.049c-1.185,0.278-2.405,0.462-3.663,0.552v15.06
		c9.721-0.467,18.09-4.21,25.11-11.23c7.168-7.168,10.923-15.759,11.267-25.774h-15.354c-0.002,0.06-0.002,0.121,0,0.185
		c-0.356-0.045-0.725-0.075-1.104-0.092c-0.001-0.031-0.001-0.062,0-0.092h-5.247c-0.598-0.028-1.045-0.065-1.344-0.11
		c-2.097-0.275-3.171-0.889-3.222-1.841h6.314l0.7,0.626c0.785,0.835,1.387,0.835,1.804,0v-0.626h0.994
		c-0.133-2.709-0.716-5.231-1.749-7.566c0.387-0.408,0.589-0.844,0.607-1.307c1.337,2.712,2.074,5.67,2.21,8.874h15.39
		c-0.098-10.408-3.853-19.318-11.267-26.731c-7.021-7.021-15.39-10.764-25.11-11.23V65.71z M212.608,72.301v0.276
		c1.889,0.126,3.692,0.463,5.412,1.013c-0.063,0.334-0.131,0.703-0.202,1.104c-1.649-0.546-3.386-0.885-5.21-1.013v10.807
		c-0.168,0.012-0.339,0.019-0.516,0.019c-0.497,0-0.976-0.123-1.437-0.368V75.67c0.31-0.757,0.765-1.579,1.362-2.467
		C212.233,72.883,212.431,72.583,212.608,72.301z M224.703,78.634c-0.098-0.09-0.195-0.176-0.295-0.257
		c-0.971-0.801-1.983-1.5-3.037-2.1c0.141-0.368,0.27-0.724,0.387-1.067c1.854,1.028,3.59,2.347,5.21,3.958
		c1.4,1.408,2.578,2.905,3.534,4.492c-0.321,0.149-0.653,0.321-0.993,0.516c-0.914-1.486-2.031-2.886-3.352-4.197
		C225.684,79.501,225.198,79.053,224.703,78.634z M229.95,105.679c1.125-2.032,1.887-4.217,2.282-6.554
		c0.384,0.104,0.739,0.202,1.068,0.295c-0.41,2.394-1.189,4.633-2.338,6.72C230.601,105.978,230.262,105.824,229.95,105.679z
		 M228.588,107.814c0.304,0.242,0.599,0.47,0.883,0.681c-0.736,1.019-1.57,1.995-2.503,2.928c-2.387,2.372-5.032,4.115-7.935,5.228
		c-0.061-0.377-0.115-0.746-0.166-1.104c2.669-1.059,5.099-2.691,7.29-4.897C227.063,109.744,227.872,108.799,228.588,107.814z
		 M147.584,137.859c0.199-0.098,0.407-0.196,0.625-0.294c2.243,2.979,4.747,5.85,7.511,8.616
		c14.654,14.654,32.365,21.994,53.131,22.019c20.767-0.024,38.49-7.364,53.169-22.019c14.654-14.679,21.993-32.401,22.019-53.168
		c-0.025-20.767-7.364-38.477-22.019-53.131c-14.679-14.679-32.402-22.018-53.169-22.018c-20.766,0-38.477,7.339-53.131,22.018
		c-7.233,7.222-12.683,15.188-16.348,23.896c-0.276,0.02-0.534,0.044-0.773,0.073c3.698-8.914,9.246-17.063,16.643-24.448
		c14.802-14.827,32.671-22.227,53.609-22.203c20.938-0.024,38.821,7.376,53.647,22.203c14.802,14.801,22.202,32.671,22.202,53.61
		c0,20.938-7.4,38.821-22.202,53.646c-14.826,14.802-32.709,22.203-53.647,22.203s-38.808-7.401-53.609-22.203
		C152.42,143.836,149.867,140.904,147.584,137.859z M133.058,95.295c-0.013-0.757-0.02-1.519-0.018-2.283c0-0.286,0-0.568,0-0.847
		c0.22,0,0.441,0,0.663,0c0,0.282,0,0.564,0,0.847c0,0.751,0.012,1.5,0.037,2.246L133.058,95.295z M199.242,94.651
		c-1.975,0.037-3.938,0.073-5.892,0.111c0.011-0.02,0.022-0.039,0.037-0.056c0.138-0.18,0.279-0.364,0.424-0.552h5.707
		C199.437,94.324,199.345,94.489,199.242,94.651z M208.999,72.578c0.047,0.387,0.114,0.75,0.203,1.086
		c-1.448,0.098-2.841,0.324-4.179,0.681c-0.188-0.373-0.348-0.667-0.479-0.883c-0.023-0.04-0.049-0.076-0.073-0.111
		C205.918,72.945,207.428,72.687,208.999,72.578z M189.504,99.677c-0.366,0.116-0.71,0.227-1.031,0.332
		c-0.076-0.39-0.144-0.783-0.202-1.179l1.086-0.054C189.397,99.078,189.446,99.378,189.504,99.677z M189.043,102.236
		c0.332-0.232,0.646-0.435,0.938-0.607c0.991,3.35,2.826,6.358,5.505,9.021c2.179,2.179,4.591,3.799,7.235,4.86
		c-0.08,0.073-0.159,0.146-0.239,0.221c-0.233,0.217-0.454,0.42-0.663,0.607c-2.597-1.112-4.979-2.75-7.144-4.915
		C191.967,108.713,190.089,105.651,189.043,102.236z"/>
	<path fill-rule="evenodd" clip-rule="evenodd" fill="#070605" d="M149.59,94.154c-0.296,0.663-0.659,1.007-1.086,1.031
		c-0.639,0.049,1.571,0.098,6.627,0.147c5.621,0.024,11.182-0.024,16.68-0.147c5.965-0.125,12.034-0.248,18.208-0.368
		c1.104-0.02,2.216-0.039,3.331-0.055c1.953-0.038,3.917-0.074,5.892-0.111c1.734-0.031,3.477-0.061,5.229-0.092
		c0.441,0.049,0.675,0.147,0.699,0.294c0,0.098,0,1.166,0,3.203l-12.316,0.552l-3.497,0.167l-1.086,0.054l-15.98,0.719l-1.97,0.092
		l-13.863,0.626c-0.344,0.638-0.552,0.995-0.626,1.068c-0.221,0.147-0.589,0.368-1.104,0.663l0.699,7.437
		c0.418,0.246,1.326,0.43,2.726,0.552c1.104,0.098,1.853,0.454,2.245,1.068c0.418,0.638,0.565,3.252,0.442,7.842
		c-0.099,2.701-0.245,7.267-0.442,13.698c-1.228,0.981-3.792,2.086-7.695,3.314c-1.772,0.548-3.27,1.1-4.492,1.657
		c-0.218,0.098-0.427,0.196-0.625,0.294c-1.047,0.512-1.857,1.028-2.431,1.547c1.547,0.81,0.565,5.535-2.946,14.176
		c-3.436,8.223-5.867,12.923-7.29,14.102c-1.792,1.448-5.695,2.848-11.709,4.197c-5.842,1.276-9.868,2.909-12.077,4.897
		c3.142,0.589,6.112,2.062,8.911,4.418c1.57,1.375,3.878,3.474,6.922,6.296c0.098,4.492-0.835,9.132-2.799,13.919
		c-2.749,6.873-4.271,10.935-4.565,12.188c-0.417,1.865-0.921,5.007-1.51,9.426c-0.466,3.437-1.08,6.148-1.841,8.137
		c-1.668,3.927-2.945,7.781-3.829,11.562c-0.54,2.332-1.264,6.039-2.172,11.119c-0.663,0.467-1.952,1.903-3.866,4.309
		c-2.234,2.332-4.75,3.939-7.548,4.823c-0.098,0.81,0.81,2.442,2.725,4.897c1.399,1.865,2.541,3.239,3.424,4.123
		c1.178,1.154,3.461,2.75,6.849,4.787c2.798,1.645,4.112,2.467,3.94,2.467c3.264,1.473,5.412,3.657,6.443,6.554
		c1.055,2.946,0.54,5.584-1.547,7.917c-2.995,3.142-8.076,3.547-15.243,1.215c-4.958-1.596-12.543-5.241-22.755-10.936
		c-1.055-0.589-3.608-1.645-7.658-3.167c-3.437-1.228-5.83-2.43-7.18-3.608c-2.16-1.742-2.479-3.902-0.958-6.48
		c2.529-4.319,3.879-7.008,4.05-8.063c-3.903-2.503-8.174-4.271-12.813-5.302c-4.713-1.056-10.457-1.497-17.232-1.326l-0.552-1.066
		c0.147-1.056,1.141-2.946,2.982-5.671c1.473-2.233,1.976-4.333,1.51-6.296c-1.448-3.854-2.443-6.604-2.983-8.248
		c-0.933-2.848-0.871-5.94,0.184-9.279l-7.364-8.505c-2.676,2.233-5.105,5.658-7.291,10.272c-1.841,3.83-3.178,7.585-4.013,11.268
		c-1.203-0.049-2.246,0.073-3.129,0.368c-0.172,0.049-1.203,0.491-3.093,1.325l-1.73-3.977c0.884-0.908,1.988-1.522,3.314-1.841
		c1.816-0.564,3.167-1.08,4.05-1.547l10.752-18.078v-2.872h-7.364c-2.553-1.326-3.854-4.971-3.903-10.936
		c0-5.303,0.724-9.414,2.172-12.335c-2.209-1.645-3.032-3.927-2.467-6.849c0.466-2.504,1.669-4.75,3.609-6.738l-3.351-2.798
		l2.799-8.505c1.006-0.639,3.252-1.166,6.738-1.584c3.412-0.417,5.143-0.65,5.191-0.699l11.304-28.867
		c2.676-6.137,6.198-11.046,10.568-14.728c1.399-1.179,3.62-2.528,6.664-4.05c3.265-1.669,5.511-2.945,6.738-3.83
		c0.467-0.344,1.142-1.313,2.025-2.909c0.834-1.571,1.473-2.503,1.915-2.798c0.884-0.589,2.148-1.166,3.792-1.73
		c-0.294-9.573,1.338-17.134,4.897-22.682c3.092-4.86,7.351-7.732,12.776-8.615c5.008-0.811,10.064,0.159,15.17,2.908
		c5.18,2.799,9.206,6.799,12.077,12.004c0.295,0.515,1.08,1.57,2.356,3.166c1.007,1.276,1.669,2.406,1.989,3.387
		c0.123,0.295,0.098,0.761-0.074,1.399c-0.123,0.663-0.171,1.142-0.147,1.436l4.068-0.258l0.681-0.037l9.684-0.626l0.589-1.179
		l-1.142-2.761c-2.725,0.663-4.884,1.104-6.48,1.325c-0.917,0.097-1.813,0.146-2.688,0.147c-0.221,0-0.442,0-0.663,0
		c-1.104-0.035-2.172-0.145-3.204-0.332c0-7.879,0.638-13.096,1.915-15.648c-1.153-0.981-1.62-2.356-1.399-4.124
		c0.147-1.228,0.54-2.394,1.178-3.498c1.228-2.7,3.584-4.271,7.07-4.713c0.24-0.029,0.497-0.054,0.773-0.073
		c1.978-0.161,4.814-0.112,8.505,0.147c1.13-0.663,3.388-0.773,6.775-0.332c3.73,0.564,6.591,1.645,8.579,3.241
		c0.907,0.564,1.46,1.055,1.657,1.473c0.221,0.343,0.441,1.19,0.662,2.54c-4.541,4.91-9.843,9.635-15.906,14.176
		c0.711,1.448,0.92,3.498,0.625,6.149C150.111,92.491,149.884,93.485,149.59,94.154z M128.511,101.555
		c-0.737-0.393-1.277-0.773-1.621-1.141l-0.294-0.516c-2.75,6.824-4.382,10.42-4.897,10.789c-0.295,0.245-0.577,0.564-0.847,0.957
		l-0.294,0.589l-0.258,2.762l1.326,0.405c0.932,0.368,1.546,0.872,1.841,1.51c0.515,1.03,0.896,2.319,1.142,3.866h2.945
		c-0.516-3.584-0.356-6.627,0.479-9.131c0.516-1.571,1.264-3.007,2.247-4.308c0.466-0.639,0.883-1.13,1.251-1.473
		C130.696,103.531,129.689,102.095,128.511,101.555z M149.204,107.078c-0.073,0.761-0.748,1.46-2.025,2.099
		c-0.761,0.368-1.424,0.638-1.987,0.81l-0.552,0.147h5.155L149.204,107.078z M114.52,132.594c0.884,1.202,1.988,2.271,3.313,3.203
		c0.786,0.54,2.136,1.363,4.05,2.467h0.589l2.836-10.789c-1.866,1.768-3.277,2.946-4.234,3.535
		C119.454,132.042,117.269,132.57,114.52,132.594z M97.545,177.33l-2.835,0.59c0.883,0.294,1.411,0.417,1.583,0.368
		C96.49,178.238,96.907,177.92,97.545,177.33z"/>
</g>
</svg>
