<?xml version="1.0" encoding="utf-8"?>
<!-- Generator: Adobe Illustrator 16.0.0, SVG Export Plug-In . SVG Version: 6.00 Build 0)  -->
<!DOCTYPE svg PUBLIC "-//W3C//DTD SVG 1.1//EN" "http://www.w3.org/Graphics/SVG/1.1/DTD/svg11.dtd">
<svg version="1.1" id="Layer_1" xmlns="http://www.w3.org/2000/svg" xmlns:xlink="http://www.w3.org/1999/xlink" x="0px" y="0px"
	 width="300px" height="300px" viewBox="0 0 300 300" enable-background="new 0 0 300 300" xml:space="preserve">
<g>
	<path fill-rule="evenodd" clip-rule="evenodd" fill="#CDCCCC" d="M292.377,187.863L7.735,207.135l-0.112-0.074l48.178-81.178
		l0.93,1.414h2.046l-41.965,74.258l120.836-8.893l5.283-81.623l0.595,0.781l0.224,0.037l0.298-0.223l0.111-0.186l-0.633-0.707
		l0.335-0.261l0.112-0.149l-0.894-1.079l0.224-3.274l0.223-0.632l2.195,2.567l-0.707,2.046c-0.1,0.05-0.1,0.137,0,0.261l0.186,0.111
		l0.298,0.038l-0.223,0.669c-0.1,0.099-0.124,0.186-0.075,0.261l0.225,0.148h0.297l0.223-0.148l0.744-2.121l0.855,1.042
		l-0.334,81.735l134.006-10.119l0.037-0.037l-36.124-76.527l3.757-2.976L292.377,187.863z M67.409,107.728l-0.521-0.447v-0.111
		l0.521,0.409V107.728z M69.641,104.714l-0.855-0.669v-0.037L69.641,104.714z M73.696,100.883l-0.074,0.074
		c-0.125,0.272-0.273,0.545-0.447,0.818l-0.26-0.186l-0.075-0.781l-1.674,0.335l0.93,0.781v0.186l-0.707,0.111l0.744,0.633
		l0.074,0.707h-0.074l-0.856,1.6l-2.158-1.711l1.228-2.195l-22.88,4.204l-0.074-0.037l-1.339-2.344l1.19-0.223l0.409-0.112
		l1.339-0.223l0.521-0.112l2.79-0.483l0.335-0.075l1.563-0.26l0.372-0.075l2.53-0.446l0.595-0.112l1.376-0.26l0.558-0.149
		l2.53-0.372l0.446-0.075l1.451-0.26l0.484-0.112l2.529-0.521l0.447-0.074l1.637-0.261h0.074l0.261-0.074l2.567-0.447l0.595-0.148
		l-0.148-0.038h-0.298l10.157-17.188l62.911-12.761c-0.174,0.695-0.298,1.389-0.372,2.084L84.039,82.467l-0.41,0.781l-8.11,14.398
		l27.344-4.948l0.037,0.037l10.12-1.897l0.037,0.074l31.511-5.729l0.112-1.86l0.074-0.855c0.173,1.116,0.385,2.245,0.632,3.385
		c0.397,1.885,0.905,3.695,1.525,5.432l-0.446,1.451l-2.158-2.939l0.111-2.046h-0.074l-0.371,0.112l-0.781,0.111l-0.112,0.075
		l-0.893,0.111l-3.237,0.595l-0.781,0.149l-0.297,0.037l-0.931,0.223l-3.236,0.521l-0.67,0.186H132.7l-0.855,0.186l-3.273,0.558
		l-0.781,0.224h-0.074l-0.893,0.148l-3.387,0.558l-0.707,0.186l-0.223,0.038l-0.818,0.186l-3.423,0.632l-0.707,0.075h-0.149
		l-0.893,0.26l-3.348,0.558l-0.818,0.149h-0.111l-0.781,0.112l-3.387,0.669l-1.748,0.297l-3.348,0.596l-0.67,0.111l-0.112,0.075
		l-0.93,0.148l-3.422,0.633l-0.633,0.111h-0.111l-0.893,0.149l-3.199,0.595l-0.781,0.111l-0.186,0.075l-0.893,0.149l-3.274,0.632
		l-0.707,0.112l-0.037-0.038l-0.855,0.186l-3.348,0.596l-0.819,0.186h-0.037l-0.856,0.148L77.9,99.915l-1.749,0.335l-2.27,0.372
		h-0.037L73.696,100.883z M61.047,116.954l2.232,1.674l0.074,0.595l-0.037,0.037l-0.446,0.782c-0.05,0.074-0.099,0.148-0.149,0.223
		l-2.567-1.711L61.047,116.954z M66.516,107.877l0.967,0.707l0.111,2.716l-2.195-1.6L66.516,107.877z M74.515,97.906l-0.111-0.149
		l-0.261,0.149H74.515z M228.982,72.385l-0.744,0.112c-0.074-0.843-0.198-1.687-0.372-2.53l0.447-0.037h0.037l-0.781-1.749
		c-0.051-0.174-0.1-0.348-0.149-0.521c-1.216-5.581-3.36-10.516-6.437-14.807l2.493-0.483l8.557,16.89l7.403-1.339l0.148,2.493
		l-6.398,1.153l0.186,0.223l-0.26,0.261l-0.074-0.447l-0.781,0.112l0.223,1.19l-1.637,2.307l-1.34-2.939h-0.111L228.982,72.385z
		 M144.159,91.73l1.785,2.344l-1.264,3.944l-0.819-1.042L144.159,91.73z M143.75,98.688l3.646,4.725l-1.228,3.237l-2.716-3.423
		L143.75,98.688z M147.619,101.701l-2.009-2.53l1.339-3.794l0.67,0.967V101.701z M159.71,104.193
		c0.348,0.075,0.67,0.174,0.967,0.298c0.621,0.347,1.203,0.757,1.749,1.228c0,0.024,0.013,0.037,0.038,0.037
		c1.363,1.488,2.045,3.125,2.045,4.911c0,0.645-0.062,1.24-0.186,1.786c-0.322,1.191-0.942,2.208-1.859,3.051
		c-0.025,0-0.038,0.012-0.038,0.037c-1.314,1.364-2.964,2.046-4.948,2.046c-1.859,0-3.447-0.682-4.762-2.046l-0.037-0.037
		c-1.34-1.265-2.01-2.877-2.01-4.836c0-1.91,0.67-3.546,2.01-4.911l0.037-0.037c0.57-0.521,1.178-0.93,1.823-1.228h0.074
		c0.149-0.074,0.298-0.136,0.446-0.186c0.273-0.124,0.546-0.211,0.818-0.26c0.223-0.05,0.447-0.074,0.67-0.074
		c0.297-0.05,0.607-0.075,0.93-0.075C158.296,103.896,159.04,103.995,159.71,104.193z M70.013,107.43l-0.596,0.967l-1.153-0.967
		v-2.604l0.111-0.149l2.195,1.786L70.013,107.43z M68.265,108.397l0.855,0.558l-0.037,0.038L68.265,108.397z M68.786,109.625
		l-0.261,0.521l-0.037,0.075l-0.037-0.819L68.786,109.625z M67.372,112.081v0.075l-2.344-1.786v-0.112L67.372,112.081z
		 M63.837,113.83l1.749,1.339v0.038l-1.749-1.265V113.83z M66.665,113.309l-0.707,1.228l-2.158-1.6v-0.521l0.818-1.488l2.344,1.86
		L66.665,113.309z M58.927,126.181h0.372l-1.786-3.199l0.26-0.447l1.488,1.154l0.186,1.339c0,0.075,0.025,0.137,0.075,0.186
		l0.111,0.596l-0.26,0.446l-0.223,0.335L58.927,126.181z M59.745,119.224l0.038-0.111l2.604,1.823l-0.038,0.075L59.745,119.224z
		 M59.968,122.237l-0.224-2.158l2.27,1.6l-0.819,1.339L59.968,122.237z M61.457,116.285v-0.037l0.893,0.707L61.457,116.285z
		 M63.056,114.164l0.149,2.418l-1.376-0.93l1.042-1.637L63.056,114.164z M64.098,117.215l-0.074-2.27l1.228,0.893l-0.893,1.563
		L64.098,117.215z M58.517,121.232l0.41-0.669l0.148,1.042L58.517,121.232z"/>
	<path fill-rule="evenodd" clip-rule="evenodd" fill="#076A8A" d="M281.216,181.837L147.21,191.956l0.334-81.735l-0.855-1.042
		l-0.744,2.121l-0.223,0.148h-0.297L145.2,111.3c-0.049-0.075-0.024-0.162,0.075-0.261l0.223-0.669l0.633-1.972l-0.409-0.483
		l-2.195-2.567l-0.223,0.632l-0.111,0.149l-0.187,3.05l-0.632-0.781l-0.262,0.596l1.414,1.749l0.633,0.707l-0.111,0.186
		l-0.298,0.223l-0.224-0.037l-0.595-0.781l-5.283,81.623l-120.836,8.893l41.965-74.258h-2.046l-0.93-1.414l-15.774-21.838
		l5.394-1.302l2.195,3.832l0.037-0.038h0.075l0.707-0.111l0.111,0.669l4.539,3.274l-0.372-3.795l-1.042-0.707l0.781-0.148h0.075
		v-0.038l0.707-0.148v0.632l4.762,3.386l-0.558-3.906l-0.856-0.707l1.451-0.26v0.595l4.762,3.423l-0.409-3.869l-0.93-0.781
		l1.042-0.149v-0.037l0.595-0.074v0.669l3.794,2.827l0.521,0.447l0.186,0.149v-3.832l-1.153-0.967l1.749-0.223l0.075,0.781
		l0.521,0.409l0.855,0.669l0.26,0.223c0.1,0.099,0.223,0.211,0.372,0.335l2.158,1.749l-0.037-2.344h0.037l-0.074-1.674l-0.223-0.148
		l-0.744-0.633l0.707-0.111l1.005-0.186l0.037,0.707l3.906,3.237v0.112l0.223,0.149l0.112-3.907l-0.261-0.186l-0.074,3.013
		l-3.869-3.274c0.174-0.273,0.322-0.546,0.447-0.818l0.074-0.074l0.186-0.261l2.27-0.372l1.004,0.893v0.037l1.004-0.149
		l-0.074,0.818l1.823,1.488c0.322,0.298,0.645,0.583,0.967,0.855l1.302,1.042l0.186-3.98l-0.224-0.224l-0.148,3.088l-4.092-3.385
		v-0.819l3.311-0.632l0.93,0.893v0.074h0.186l0.819-0.149l-0.037,0.782l3.943,3.46l0.26-4.056l-0.223-0.186l-0.26,3.125
		l-3.981-3.498l0.075-0.781l3.348-0.596l0.855,0.818v0.224l0.186-0.112l0.112,0.112l0.669-0.186l-0.074,0.818l4.092,3.758
		l0.223-4.278l-0.297-0.224l-0.112,3.348l-3.832-3.422l-0.297-0.26l0.074-0.856l3.274-0.632l0.967,0.967v0.037l0.112-0.037
		l0.186,0.149v-0.149l0.669-0.149l-0.149-0.149l0.075-1.004l3.199-0.595l0.893,0.893v0.112h0.186l0.074,0.037l0.037-0.074
		l0.633-0.112l-0.112,0.781l3.906,3.609l0.484-4.241l-0.335-0.298l-0.409,3.423l-3.869-3.609l0.149-0.781l3.422-0.633l0.819,0.782
		v0.26l0.372-0.074v0.037l0.074-0.112l0.484-0.074l-0.224-0.186l0.187-0.967l3.348-0.596l0.707,0.782l-0.037,0.26l1.153-0.186
		l-0.261-0.26l0.186-0.893l3.387-0.669l0.781,0.893v0.149h0.26l0.111-0.075l0.596-0.074l-0.261-0.297l0.224-0.856l3.348-0.558
		l0.781,0.781v0.186l0.261-0.074l0.149,0.149l0.074-0.223l0.483-0.038l-0.261-0.26l0.261-0.856l3.423-0.632l0.744,0.781
		l-0.037,0.223l0.371-0.037l0.075,0.112l0.074-0.186l0.409-0.075l-0.111-0.111l0.223-1.116l3.387-0.558l0.78,0.782l-0.074,0.26
		l0.372-0.074l0.037,0.074l0.037-0.074l0.521-0.149l-0.187-0.261l0.261-0.93l3.273-0.558l0.67,0.856l-0.037,0.26l0.483-0.148
		l0.149,0.223l0.074-0.298l0.297-0.037l-0.111-0.186l0.335-1.042l3.236-0.521l0.819,1.004l0.334-0.112l0.187,0.335l0.074-0.335
		l0.298-0.074l-0.074-0.112l0.371-1.116l3.237-0.595l0.558,0.93l-0.037,0.148l0.596-0.074l0.111,0.112l0.037-0.186l0.298-0.075
		l-0.112-0.186l0.336-0.967l0.371-0.112l-0.111,1.935l-0.223-0.261l-0.149,0.521l2.79,3.906l0.596-1.711
		c0.545,1.414,1.166,2.79,1.859,4.129l-1.748-2.344l-0.186,0.595l2.678,3.572l0.149-0.26c0.124,0.223,0.261,0.459,0.409,0.707
		l-0.074,0.261l2.455,3.348l0.074-0.111c0.174,0.272,0.359,0.533,0.559,0.781l-0.037,0.075l0.186,0.297
		c0.05-0.024,0.087-0.062,0.111-0.111c0.074,0,0.149-0.025,0.224-0.075c0.024-0.024,0.062-0.049,0.112-0.074
		c0.818-0.322,1.661-0.533,2.529-0.632c0.174,0,0.372-0.025,0.596-0.075c0.123,0,0.234,0,0.334,0c0.322,0,0.621,0.025,0.893,0.075
		c0.224,0,0.435,0.025,0.633,0.075c0.62,0.074,1.203,0.21,1.748,0.409c0.225,0.075,0.422,0.149,0.596,0.223
		c0.818,0.397,1.575,0.93,2.27,1.6c0.125,0.148,0.236,0.285,0.335,0.409c0.174,0.173,0.335,0.372,0.483,0.595
		c1.141,1.563,1.711,3.249,1.711,5.06c0,0.769-0.074,1.476-0.223,2.121v0.074c-0.024,0.05-0.063,0.112-0.111,0.186
		c3.373,1.811,6.87,3.125,10.491,3.944l27.977-17.337l0.261,0.521l0.148-0.186l-0.186-0.483l1.785-1.042l-0.633,0.856l0.187,0.334
		v0.186l0.372,0.149l0.074-0.075l1.525-2.381v-0.037l4.725-2.902l0.818,2.121v0.334l-1.971,1.302l1.19-1.711l-0.298-0.893
		l-1.935,2.753v0.112c-0.024,0.05,0.037,0.136,0.187,0.26l-30.284,18.862c4.589,0.669,9.586,0.446,14.993-0.67l8.222-2.604
		l17.337,30.283h1.414l10.379-7.515l-14.509-22.954l-4.65-5.99c3.175-2.778,5.866-5.94,8.073-9.487
		c1.909-2.902,3.571-6.164,4.984-9.785v0.075l0.075-0.075l-0.037-0.149v-0.037v-0.037l3.199-4.241l-0.224-0.967l-3.236,4.39
		l-0.446-1.6l1.711-1.042c0.397-1.711,0.657-3.435,0.782-5.171l0.26-0.372l-0.186-0.744c0.049-0.893,0.074-1.761,0.074-2.604
		l0.707,2.604l2.009-3.051l0.037,0.075l0.036-0.075l-0.036-0.037l1.45-2.195l-0.186-0.855l0.781-0.149l0.074,0.446l0.037-0.037
		l-0.037-0.224l0.373-0.521l0.111,0.26l0.93-0.26l-0.633,0.893l1.154,2.307l-1.043,1.414l-0.632-3.013l-0.037,0.037l0.855,4.13
		l0.074-0.038l-0.074-0.223l1.228-1.674l0.111,0.223l2.493-3.385l-0.261-1.228l0.633-0.149l0.111,0.558l0.409-0.633l0.707-0.111
		l-0.074-0.669l0.074-0.112l-0.372-4.39l7.255,0.112l-2.344,26.972l4.501,8.854l-3.757,2.976l-6.511-13.728v0.112L281.216,181.837z
		 M147.173,107.802l-0.224,0.595l1.228,1.563l0.261-0.074l0.037-0.26l-0.037-0.224L147.173,107.802z M236.944,88.084l-0.074,0.037
		l0.93,1.86l-0.521,0.67l0.261,1.116l0.112-0.112l-0.037-0.112l0.558-0.781l0.074,0.075h0.037l-0.037-0.112l1.749-2.493
		l-0.187-0.372h-0.074l-0.409,0.148l-1.488,1.935L236.944,88.084z M235.865,87.936l-0.149-0.855l-3.199,4.316l-0.707-2.307
		l-0.111,0.074l1.041,3.349l0.075-0.075l-0.075-0.074L235.865,87.936z M71.278,105.161l0.856-1.6h0.074v2.307L71.278,105.161z
		 M66.516,107.877l-3.311-2.418l0.446,3.869l1.376,1.042l2.344,1.786v-0.075l0.409,0.372l-0.111-3.72l-0.186-0.149L66.516,107.877z
		 M63.279,118.628l-2.232-1.674l-1.637-1.19l0.223,3.385l0.111,0.074l2.604,1.786l0.038-0.075l1.116,0.855l0.037,0.112l0.112,0.074
		l-0.149-1.6l0.037-0.074l-0.111-1.6L63.279,118.628z M49.514,102.408l-0.521,0.112v-0.037l0.298-0.261L49.514,102.408z
		 M47.654,102.743l-0.409,0.112l0.149-0.112H47.654z M64.061,99.841l0.186-0.186h0.298v0.074L64.061,99.841z M62.609,100.101
		l-0.446,0.075l0.074-0.186l0.186-0.075L62.609,100.101z M59.633,100.548l-0.558,0.149c0-0.099,0.038-0.149,0.112-0.149
		c0.124-0.075,0.248-0.075,0.372,0H59.633z M57.699,100.957l-0.595,0.112v-0.112c0.124-0.149,0.211-0.173,0.261-0.074
		L57.699,100.957z M54.574,101.515l-0.372,0.075c0.049-0.124,0.112-0.186,0.186-0.186L54.574,101.515z M52.639,101.85l-0.335,0.075
		c0.025-0.124,0.099-0.174,0.224-0.149L52.639,101.85z M67.074,99.208l0.261-0.223l0.186,0.149L67.074,99.208z M69.492,98.799
		l-0.261,0.074c0-0.024,0-0.05,0-0.074c-0.099-0.124-0.062-0.162,0.112-0.112L69.492,98.799z M72.208,98.167h0.298l0.148,0.038
		l-0.595,0.148v-0.148L72.208,98.167z M74.515,97.906h-0.372l0.261-0.149L74.515,97.906z M233.894,78.858l-0.261-0.968l-0.894,1.228
		l-1.115-2.344l-0.037,0.112l1.078,2.306l-2.529,3.534l-0.633-2.715v0.074l0.855,3.757l0.112-0.111l-0.037-0.223l2.679-3.497v-0.075
		L233.894,78.858z M235.009,80.458l-0.297-1.414h-0.037L235.009,80.458z M239.102,78.04l-0.707-4.093l-2.307,3.163l1.116,2.195
		l-1.896,2.53l0.223,0.967l2.046-2.79l0.038,0.111L239.102,78.04z M239.734,80.347l-0.149-0.186l-0.223-1.228l-1.377,1.897
		l1.079,2.195l-2.642,3.311l-0.633-2.418l-0.074,0.037l0.856,3.2l2.827-3.46l0.074,0.111l0.111-0.111l0.149-0.112h0.372v0.632
		l-0.261,0.335l1.19,2.27l0.484,6.101l0.111,0.037l-1.266-15.402l-0.558,0.595l0.446,1.749v0.372l-0.186,0.149L239.734,80.347z
		 M239.809,77.221c0.05-0.173,0.136-0.248,0.261-0.223l0.223,0.037l-0.409-5.097l-0.855,1.265l0.707,4.056L239.809,77.221z
		 M234.601,82.951l-1.042-2.158l-0.112,0.074l1.042,2.158l-3.124,4.129l-0.633-2.53l-0.074,0.074l0.893,3.608h0.037l-0.074-0.26
		l3.311-4.353l0.111,0.223v-0.112l-0.074-0.111l0.074-0.038l-0.186-0.93L234.601,82.951z M233.001,93.405l-0.037,0.037l0.334,1.265
		V94.67L233.001,93.405z M237.911,92.586l-0.074,0.112l0.335,1.376l0.074-0.111L237.911,92.586z M236.944,92.177l-0.149-0.707
		l-2.493,2.865l-0.074,0.111l0.112,0.335h0.335l0.26-0.149L236.944,92.177z M197.174,15.947l-1.042,0.707l-0.446-0.707H197.174z
		 M117.409,92.661h0.149l-0.074,0.149L117.409,92.661z M118.415,93.888l-0.224,0.707l3.46,3.832l1.004-4.539l-0.371-0.409
		l-0.894,3.757L118.415,93.888z M112.351,93.628v0.074l-0.111-0.074H112.351z M144.681,83.323l-0.112,1.86l-31.511,5.729
		l-0.037-0.074l-10.12,1.897l-0.037-0.037l-27.344,4.948l8.11-14.398l0.41-0.632l60.827-12.166
		c-0.62,3.819-0.657,7.751-0.111,11.793L144.681,83.323z M122.507,91.768l0.223-0.038l-0.074,0.224L122.507,91.768z M123.623,93.107
		l-0.187,0.633l3.125,3.683l1.229-4.501l-0.41-0.446l-1.041,3.795L123.623,93.107z M112.499,95.749l-0.371-0.372l-0.744,3.423
		l-3.089-3.163l-0.187,0.744l3.461,3.534L112.499,95.749z M113.392,94.781l-0.223,0.707l3.497,3.794l0.893-4.427l-0.409-0.41
		l-0.744,3.683L113.392,94.781z M122.284,98.874l3.013,3.534l1.042-4.167l-0.372-0.447l-0.894,3.535l-2.641-3.125L122.284,98.874z
		 M137.872,88.94l0.297-0.037l-0.074,0.334L137.872,88.94z M132.7,89.87h0.335l-0.148,0.261L132.7,89.87z M138.802,90.986
		l2.79,3.906l1.488-4.688l-0.446-0.632l-1.229,4.241l-2.418-3.348L138.802,90.986z M132.7,92.028l-0.371-0.484l-1.042,3.832
		l-2.604-3.311l-0.186,0.669l2.977,3.795L132.7,92.028z M133.817,91.284l-0.225,0.595l6.475,8.073l1.265-4.278l-0.409-0.558
		l-1.005,3.683L133.817,91.284z M127.157,98.167l3.014,3.312l1.116-4.093l-0.335-0.521l-0.967,3.498l-2.643-2.902L127.157,98.167z
		 M132.217,97.199l3.2,3.981l0.26,0.075l-0.037,0.186l2.753,3.273l1.451-3.943l-0.446-0.521l-1.229,3.311l-2.752-3.236v-0.224
		h-0.187l-2.827-3.497L132.217,97.199z M143.08,88.048l0.112-0.075v0.148L143.08,88.048z M145.944,94.074l-1.785-2.344l-0.037-0.074
		l-0.335,5.208l-1.525-1.897l-0.149,0.595l2.754,3.497l1.451-4.464L145.944,94.074z M147.396,103.413l-3.646-4.725l-0.038-0.074
		l-0.334,4.576l-0.186-0.186l-0.112-0.037l-0.261,0.223l0.261-0.483l-2.194-2.604l-0.187,0.633l2.567,3.051l-0.261,0.521
		l0.261-0.186l0.371,0.186l2.754,3.497l1.488-3.869L147.396,103.413z M145.61,99.171l-0.224,0.521l2.642,3.385l1.488-4.092
		l-0.41-0.558l-1.302,3.572l-0.186-0.298v-5.357l-0.67-0.967L145.61,99.171z M228.313,69.93l-0.447,0.037
		c-0.074-0.521-0.161-1.042-0.26-1.563L228.313,69.93z M228.462,76.068c0-0.869-0.05-1.761-0.148-2.679l0.669-1.005l0.409-0.111
		l1.414,2.939l-1.897,2.716L228.462,76.068z M208.781,97.311l-0.149,0.223l0.67,1.6l0.224-0.261L208.781,97.311z M217.71,94.409
		l-4.018,2.455l-0.447-1.042l-0.037,0.112l-0.037-0.112V95.6l-0.446-1.116l4.315-2.642l-0.111,0.149L217.71,94.409z M225.783,89.35
		l-0.187-0.558l-0.781,1.153l-6.994,4.39l-0.781-2.493l4.167-2.604l0.224,0.632c0.049-0.049,0.062-0.111,0.037-0.186l-0.148-0.521
		l4.426-2.79l0.707,2.53L225.783,89.35z M226.75,89.945l0.931,3.46l0.148-0.186l-0.037-0.075l3.199-4.315l-0.223-0.967l-3.349,4.39
		l-0.595-2.381L226.75,89.945z M228.127,94.186l-0.149,0.149l0.484,1.488v-0.334L228.127,94.186z M227.159,94l-0.297-0.967
		l-1.973,2.902c-0.174,0.149-0.223,0.285-0.148,0.409c-0.1,0.075-0.049,0.112,0.148,0.112l0.187,0.149l0.409-0.112L227.159,94z
		 M232.033,93.144l-0.187-0.893l-2.27,2.791v0.446l0.112,0.111c0.074,0.1,0.187,0.1,0.335,0l0.074-0.111L232.033,93.144z
		 M159.71,104.193c-0.67-0.198-1.414-0.297-2.232-0.297c-0.322,0-0.633,0.025-0.93,0.075c-0.223,0-0.447,0.024-0.67,0.074
		c-0.272,0.049-0.545,0.136-0.818,0.26c-0.148,0.05-0.297,0.112-0.446,0.186h-0.074c-0.646,0.298-1.253,0.707-1.823,1.228
		l-0.037,0.037c-1.34,1.364-2.01,3.001-2.01,4.911c0,1.959,0.67,3.571,2.01,4.836l0.037,0.037c1.314,1.364,2.902,2.046,4.762,2.046
		c1.984,0,3.634-0.682,4.948-2.046c0-0.025,0.013-0.037,0.038-0.037c0.917-0.843,1.537-1.86,1.859-3.051
		c0.124-0.545,0.186-1.141,0.186-1.786c0-1.786-0.682-3.423-2.045-4.911c-0.025,0-0.038-0.013-0.038-0.037
		c-0.546-0.471-1.128-0.881-1.749-1.228C160.38,104.367,160.058,104.268,159.71,104.193z M152.53,102.929l-0.373-0.521l-1.041,2.642
		c0.124-0.149,0.248-0.298,0.372-0.446l0.074-0.038c0.173-0.173,0.347-0.322,0.521-0.446L152.53,102.929z M150.669,105.607
		l-1.896-2.418l-0.186,0.521l1.822,2.344C150.483,105.88,150.57,105.731,150.669,105.607z M142.56,104.045l-1.116,3.236
		l-2.195-2.641l-0.224,0.632l2.605,3.125l1.339-3.794L142.56,104.045z M134.449,101.143l-1.079,3.311l-2.418-2.865l-0.186,0.596
		l2.826,3.348l1.266-3.944L134.449,101.143z M136.83,108.137l-2.53-2.642l-0.223,0.669l2.977,3.088l1.041-3.832l-0.334-0.484
		L136.83,108.137z M129.464,101.924l-0.707,3.348l-2.641-2.865l-0.149,0.67l2.976,3.348l0.931-4.055L129.464,101.924z
		 M129.687,106.314l-0.148,0.707l2.679,3.05l1.079-3.757l-0.372-0.447l-0.931,3.125L129.687,106.314z M128.385,106.649l-1.042,3.05
		l-2.344-2.53l-0.148,0.707l2.679,2.939h0.074l1.228-3.646L128.385,106.649z M136.718,110.146l-0.371-0.446l-0.484,1.823
		l-0.186,0.298l0.334,0.26c0.051,0.05,0.137,0.025,0.262-0.074L136.718,110.146z M138.95,111.522l0.111-0.074l0.187-0.223v-0.223
		l-1.413-1.674l-0.224,0.67L138.95,111.522z M140.997,108.658l-0.707,2.083v0.297l0.148,0.148l0.298,0.038l0.669-2.121
		L140.997,108.658z M129.91,113.048l0.149-0.074l0.074-0.298l-0.111-0.223l-1.6-1.674l-0.225,0.669l1.488,1.563L129.91,113.048z
		 M133.11,109.998l-0.149,0.669l1.339,1.525l0.224-0.037l0.149-0.335l-0.037-0.186L133.11,109.998z M124.851,102.854l-0.893,3.348
		l-6.511-7.032l-0.111,0.67l6.882,7.515l1.042-4.055L124.851,102.854z M123.623,107.691l-0.633,2.902l-2.901-2.791l-0.187,0.744
		l3.274,3.237l0.855-3.646L123.623,107.691z M119.902,103.859l-0.78,2.977l-2.754-2.716l-0.186,0.707l3.125,3.125l0.967-3.646
		L119.902,103.859z M116.183,99.655l-0.781,3.348l-3.051-3.088l-0.186,0.819l3.459,3.385l0.893-4.018L116.183,99.655z
		 M114.546,107.691l-2.939-2.865l-0.148,0.818l3.311,3.199l0.633-3.869l-0.372-0.372L114.546,107.691z M119.122,108.658
		l-0.336-0.261l-0.521,3.014l-2.79-2.753l-0.148,0.781l3.088,3.088L119.122,108.658z M113.615,112.229l-2.79-2.828l-0.074,0.819
		l3.088,3.125l0.781-3.534l-0.373-0.372L113.615,112.229z M123.81,111.56l-0.224,0.707l1.711,1.674h0.298l0.111-0.372l-0.111-0.26
		L123.81,111.56z M119.196,112.304l-0.149,0.819l1.638,1.488l0.186,0.112l0.297-0.372l-0.074-0.26L119.196,112.304z
		 M117.745,115.057l0.521-1.711l-0.446-0.409l-0.483,1.674l0.111,0.372l0.187,0.075
		C117.658,115.107,117.694,115.107,117.745,115.057z M114.583,113.123l-0.149,0.781l1.749,1.563l0.186-0.149
		c0.148-0.124,0.198-0.21,0.148-0.26l-0.074-0.186L114.583,113.123z M111.941,116.21l0.037-0.409l-0.037-0.223l-5.804-5.208
		l-0.111,0.781l5.506,4.985l0.148,0.074H111.941z M113.728,114.164l-0.373-0.409l-0.409,1.786l0.112,0.297l0.223,0.186
		L113.728,114.164z M87.126,98.167l0.037,0.038l0.038,0.074L87.126,98.167z M92.224,97.236l-0.038,0.224l-0.148-0.149L92.224,97.236
		z M93.228,98.353l-0.111,0.856l3.795,3.497l0.372-4.167l-0.261-0.297l-0.334,3.348L93.228,98.353z M97.097,96.381h0.111
		l-0.074,0.075L97.097,96.381z M103.161,96.642l-0.148,0.744l3.608,3.498l0.632-4.353l-0.334-0.297l-0.559,3.534L103.161,96.642z
		 M111.085,100.473l-0.483,3.386l-3.162-2.976l-0.111,0.781l3.497,3.311l0.633-4.167L111.085,100.473z M106.138,101.441
		l-0.447,3.199l-3.162-3.051l-0.148,0.855l3.534,3.312l0.558-4.018L106.138,101.441z M106.658,105.719l-0.074,0.818l3.534,3.014
		h0.074l0.559-3.571l-0.336-0.335l-0.482,2.865L106.658,105.719z M105.431,106.389l-0.372,3.051l-3.125-2.902l-0.112,0.819
		l0.372,0.335c0.049,0,0.087,0.037,0.112,0.111c0.174,0.174,0.335,0.335,0.483,0.484c0.372,0.322,0.757,0.669,1.153,1.042
		c0.074,0.05,0.161,0.124,0.26,0.223l1.043,0.967l0.52-3.869L105.431,106.389z M101.227,102.445l-0.298,3.051l-3.348-3.013
		l-0.037,0.855l3.609,3.237l0.372-3.869L101.227,102.445z M97.022,108.211l3.572,3.162l0.558-3.757l-0.335-0.26l-0.372,2.902
		l-3.311-2.902L97.022,108.211z M101.264,111.969l2.864,2.567v0.074l0.41,0.372l0.669-3.497l-0.372-0.335l-0.558,2.679l-2.865-2.642
		L101.264,111.969z M100.148,111.969l-0.41,2.53l-3.162-2.753l-0.074,0.856l3.422,2.977l0.521-3.312L100.148,111.969z
		 M108.667,114.61l-0.186,1.749l0.148,0.335l0.148,0.111l0.224-1.935L108.667,114.61z M107.067,117.066h0.186l0.149-0.112
		l0.224-0.26l-2.195-1.972l-0.111,0.744L107.067,117.066z M104.091,117.401l0.111,0.111l0.187-1.86l-0.298-0.223l-0.148,1.711
		L104.091,117.401z M100.817,115.429l-0.111,0.818l1.859,1.6l0.112,0.075l0.186-0.149l0.037-0.149v-0.372L100.817,115.429z
		 M99.813,116.471l-0.335-0.261l-0.26,1.637l0.223,0.372l0.111,0.075L99.813,116.471z M91.703,104.305l-0.372,2.939l-3.646-3.273
		v0.855l3.795,3.571l0.558-3.794L91.703,104.305z M92.744,104.268l3.609,3.274l0.558-3.832l-0.298-0.26l-0.446,3.014l-3.348-3.014
		L92.744,104.268z M81.918,105.979l-0.149,3.014l-3.683-3.125v0.893l3.906,3.311l0.148-3.943L81.918,105.979z M82.923,105.868
		l3.906,3.386l0.074-3.981l-0.186-0.186l-0.074,3.051l-3.72-3.162V105.868z M86.568,110.035l-0.186,2.641l-3.572-2.902v0.968
		l0.074,0.037c0.05,0.05,0.125,0.099,0.224,0.149l0.93,0.818c0.57,0.397,1.128,0.819,1.674,1.265
		c0.025,0.025,0.062,0.062,0.112,0.112l0.818,0.632l0.186-3.534L86.568,110.035z M87.61,109.886
		c0.272,0.248,0.558,0.484,0.855,0.707l2.418,2.009v0.074l0.298,0.261l0.335-3.609l-0.261-0.223l-0.26,2.716l-3.385-2.865V109.886z
		 M81.807,110.853l-0.149,2.493l-3.571-2.753v0.855l3.832,3.014l0.149-3.423L81.807,110.853z M82.551,114.238v0.782l3.571,2.827
		v0.149l0.261,0.186l0.074-3.646l-0.26-0.149l-0.075,2.679L82.551,114.238z M81.658,115.317l-0.075,2.418l-3.608-2.642v0.893
		l1.749,1.339c0.198,0.149,0.396,0.285,0.595,0.41c0.124,0.124,0.235,0.223,0.335,0.297l1.153,0.855l0.111-3.385L81.658,115.317z
		 M87.35,114.276l3.498,2.976l0.297-3.534l-0.297-0.224l-0.186,2.642l-3.237-2.791L87.35,114.276z M96.316,108.546l-0.335-0.335
		l-0.447,2.791l-3.199-2.865l-0.111,0.781l3.534,3.162L96.316,108.546z M95.423,112.713l-0.149,2.753l-3.236-2.902l-0.075,0.893
		l3.497,3.125l0.186-3.608L95.423,112.713z M81.769,121.418l0.075-1.488l-0.261-0.186l-0.074,1.451l0.074,0.149L81.769,121.418z
		 M84.708,120.935l0.186-0.037l0.148-0.372c0.075-0.099,0.025-0.173-0.148-0.223l-2.307-1.823v0.893L84.708,120.935z
		 M86.271,118.963l-0.149-0.186v1.86h0.149V118.963z M90.4,119.521l0.037,0.223l0.224,0.112l0.074-1.749l-0.186-0.186L90.4,119.521z
		 M89.582,119.745l-0.186-0.335l-2.232-1.637l-0.037,0.893l2.158,1.525l0.112-0.111C89.569,119.98,89.632,119.869,89.582,119.745z
		 M93.674,119.335l0.223-0.112L94.009,119l-0.149-0.26l-2.158-1.935l-0.112,0.855l1.935,1.711L93.674,119.335z M95.349,117.401
		l-0.261-0.186l-0.148,1.488l0.111,0.261l0.223,0.149L95.349,117.401z M96.241,116.136l-0.074,0.855l1.786,1.451l0.224,0.112
		l0.223-0.112l0.112-0.26l-0.148-0.335L96.241,116.136z M77.119,106.835l0.149,2.976l-4.018-3.162v0.93l1.339,1.079
		c0.174,0.124,0.322,0.235,0.447,0.335l2.455,1.935l-0.223-3.906L77.119,106.835z M68.265,104.826v2.604v0.967l0.818,0.596
		l0.037,0.037l0.038-0.037l3.162,2.529v0.112l0.111,0.074l-0.037-3.794l-0.186-0.186v2.865l-2.716-2.195l0.521-0.967l0.558-0.967
		l-2.195-1.786l-0.111-0.074V104.826z M67.372,106.761l-0.148-0.186l0.186-0.26L67.372,106.761z M72.357,112.49v2.307l-3.832-2.641
		v0.893l4.055,2.865l-0.074-3.237L72.357,112.49z M73.287,112.267l3.757,2.977v0.074l0.223,0.112l0.186-3.535l-0.26-0.186
		l-0.112,2.642l-3.794-3.05V112.267z M68.525,110.146l0.261-0.483v-0.037l-0.335-0.224l0.037,0.819L68.525,110.146z M66.665,113.309
		l0.297-0.521l-2.344-1.86l-0.893-0.707l0.075,2.195v0.521l0.037,0.893v0.111l1.749,1.265v-0.038l2.195,1.637v0.074l0.149,0.186
		l-0.149-3.608l-0.111-0.112l0.074,2.567l-1.749-1.376L66.665,113.309z M68.711,117.401l3.795,2.79l0.037,0.112l0.111,0.112v-3.46
		l-0.223-0.148v2.455l-3.72-2.716V117.401z M73.25,116.545l3.794,2.939v0.037l0.112,0.149l0.111-3.311l-0.223-0.149l-0.112,2.344
		l-3.646-2.79L73.25,116.545z M52.528,114.35l1.228,0.744l-0.521-3.646l-4.65-3.274l3.646,6.436
		c0.025-0.049,0.074-0.099,0.149-0.148C52.429,114.387,52.478,114.35,52.528,114.35z M58.927,126.181l0.223,0.409l0.223-0.335
		l0.26-0.409v-0.037l-0.111-0.596l-0.223-1.488l-0.038-0.037l-1.488-1.154l-0.669-0.483c-0.198-0.025-0.236-0.075-0.111-0.149
		l-0.075-0.372l0.298-0.112l0.335,0.038l1.711,1.302l-0.446-3.237v-0.037l-3.907-2.865l-0.111,0.707l-0.223,0.149l-0.223-0.074
		l-0.149-0.186l-0.223-1.042l-1.525-1.19L58.927,126.181z M54.09,112.081l0.446,3.684l4.278,2.79l-0.149-3.46L54.09,112.081z
		 M58.034,110.593l-4.539-3.349l0.447,3.684l4.576,3.348L58.034,110.593z M59.968,122.237l0.112,0.93l2.307,1.637l0.297-0.037
		l0.186-0.112l0.149-0.334l-0.224-0.186l-1.6-1.116l0.819-1.339l-2.27-1.6L59.968,122.237z M62.721,120.266
		c0.05-0.075,0.099-0.149,0.149-0.223l0.446-0.782l0.112,1.6L62.721,120.266z M62.349,116.954l1.042,0.744l-0.186-3.422
		l-0.149-0.112l-0.186-0.148l-3.943-2.828l0.334,3.535l2.195,1.563L62.349,116.954z M64.098,117.215l0.038,0.893l3.906,2.902v0.074
		l0.111,0.111l-0.149-3.273l-0.186-0.075l0.112,2.27l-3.571-2.716l0.893-1.563l-1.228-0.893L64.098,117.215z M62.795,109.551
		l-4.501-3.236l0.521,3.943l4.39,3.125L62.795,109.551z M60.229,124.655v0.112l0.223-0.372L60.229,124.655z M64.358,121.307
		l0.111,1.004l2.418,1.674l0.261-0.037l0.186-0.149l-0.075-0.186l-0.037-0.372L64.358,121.307z M63.763,122.833h-0.038l0.261,1.6
		h0.037L63.763,122.833z M72.766,121.307l-0.186-0.112l0.074,1.451l0.186,0.186L72.766,121.307z M76.152,122.051
		c0.049-0.248,0-0.335-0.149-0.261l-2.642-1.748v0.744l2.456,1.674l0.26-0.186L76.152,122.051z M77.044,120.415v1.6l0.223,0.111
		v-1.563L77.044,120.415z M79.983,121.604l0.298,0.075c0.024,0.024,0.124-0.012,0.297-0.112l0.112-0.26l-0.298-0.297l-2.53-1.749
		v0.782L79.983,121.604z M68.265,122.125l-0.149-0.111l0.149,1.525l0.111,0.075L68.265,122.125z M68.972,120.712l0.111,0.967
		l2.083,1.414l0.409,0.074l0.112-0.148l0.037-0.298l-0.149-0.148L68.972,120.712z"/>
	<path fill-rule="evenodd" clip-rule="evenodd" fill="#222222" d="M7.735,207.135l284.642-19.271l-0.187,11.05L9.037,213.422
		L7.735,207.135z M152.864,102.036c-0.917-1.116-1.736-2.282-2.455-3.498c-0.148-0.248-0.285-0.483-0.409-0.707
		c-0.323-0.521-0.62-1.042-0.894-1.563c-0.693-1.339-1.314-2.716-1.859-4.129c-0.1-0.298-0.211-0.583-0.335-0.856
		c-0.62-1.736-1.128-3.547-1.525-5.432c-0.247-1.141-0.459-2.27-0.632-3.385c0-0.075,0-0.149,0-0.224
		c-0.546-4.042-0.509-7.974,0.111-11.793c0-0.049,0.012-0.099,0.037-0.148c0.074-0.695,0.198-1.389,0.372-2.084
		c1.091-4.613,3.013-9.065,5.767-13.355c6.398-9.698,15.24-15.799,26.525-18.304c11.235-2.455,21.702-0.645,31.4,5.432
		c4.936,2.976,8.94,6.597,12.016,10.863c3.076,4.291,5.221,9.227,6.437,14.807c0.05,0.173,0.099,0.347,0.149,0.521
		c0,0.074,0.012,0.149,0.037,0.223c0.099,0.521,0.186,1.042,0.26,1.563c0.174,0.843,0.298,1.687,0.372,2.53
		c0.024,0.322,0.05,0.62,0.075,0.893c0.099,0.917,0.148,1.81,0.148,2.679c0,0.124,0,0.248,0,0.372c0,0.843-0.025,1.711-0.074,2.604
		c-0.025,0.396-0.051,0.769-0.074,1.116c-0.125,1.736-0.385,3.459-0.782,5.171l-1.711,1.042h-0.075l-4.426,2.79l-0.112,0.074
		l-4.167,2.604l-4.315,2.642l-0.187,0.111l-4.725,2.902l-1.525,0.967l-1.785,1.042l-0.224,0.148l-27.977,17.337
		c-3.621-0.819-7.118-2.133-10.491-3.944c0.049-0.074,0.087-0.136,0.111-0.186v-0.074c0.148-0.645,0.223-1.352,0.223-2.121
		c0-1.811-0.57-3.497-1.711-5.06c-0.148-0.223-0.31-0.422-0.483-0.595c-0.099-0.124-0.21-0.261-0.335-0.409
		c-0.694-0.67-1.451-1.203-2.27-1.6c-0.174-0.074-0.371-0.148-0.596-0.223c-0.545-0.198-1.128-0.335-1.748-0.409
		c-0.198-0.05-0.409-0.075-0.633-0.075c-0.271-0.05-0.57-0.075-0.893-0.075c-0.1,0-0.211,0-0.334,0
		c-0.224,0.05-0.422,0.075-0.596,0.075c-0.868,0.099-1.711,0.31-2.529,0.632c-0.051,0.025-0.088,0.05-0.112,0.074
		c-0.074,0.05-0.149,0.075-0.224,0.075c-0.074-0.099-0.16-0.186-0.26-0.261C153.224,102.569,153.038,102.309,152.864,102.036z
		 M226.527,88.829v0.037c0,0.05-0.013,0.099-0.038,0.149c-1.413,3.621-3.075,6.883-4.984,9.785
		c-2.207,3.546-4.898,6.708-8.073,9.487l4.65,5.99l14.509,22.954l-10.379,7.515h-1.414l-17.337-30.283l-8.222,2.604
		c-5.407,1.116-10.404,1.339-14.993,0.67l30.284-18.862l0.855-0.521l1.971-1.302h0.112v-0.037l0.224-0.149l4.018-2.455l0.111-0.074
		l6.994-4.39l0.968-0.595l0.669-0.446L226.527,88.829z"/>
</g>
</svg>
