<?xml version="1.0" encoding="utf-8"?>
<!-- Generator: Adobe Illustrator 16.0.0, SVG Export Plug-In . SVG Version: 6.00 Build 0)  -->
<!DOCTYPE svg PUBLIC "-//W3C//DTD SVG 1.1//EN" "http://www.w3.org/Graphics/SVG/1.1/DTD/svg11.dtd">
<svg version="1.1" id="Layer_1" xmlns="http://www.w3.org/2000/svg" xmlns:xlink="http://www.w3.org/1999/xlink" x="0px" y="0px"
	 width="300px" height="300px" viewBox="0 0 300 300" enable-background="new 0 0 300 300" xml:space="preserve">
<g>
	<path fill-rule="evenodd" clip-rule="evenodd" fill="#202020" d="M231.195,125.621l-6.306,7.904
		c3.434,0.591,7.37,1.153,11.812,1.686l5.417-8.525C240.045,126.567,236.403,126.213,231.195,125.621z M236.878,117.805
		c-3.847-0.414-8.318-1.006-13.41-1.776c-1.834,2.487-3.848,4.973-6.039,7.459l13.767,2.132
		C232.497,123.962,234.392,121.357,236.878,117.805z M248.808,116.917h1.511l-22.854,35.968l-0.531-0.089
		c-5.211-0.769-14.596-2.369-28.153-4.795c-17.763-3.256-30.353-5.21-37.774-5.862c-12.018-1.184-20.248-0.503-24.688,2.044
		c-2.369,1.125-4.116,2.663-5.24,4.617c-0.71,1.184-1.362,3.168-1.954,5.951l-0.355,1.243c-0.119,0.948-0.325,1.747-0.622,2.398
		l-0.71,2.22c-0.533,1.657-1.717,2.961-3.553,3.908c-1.598,0.909-3.849,1.598-6.749,2.07c-4.737,0.771-11.644,0.86-20.723,0.267
		c-11.309-0.848-29.277-3.313-53.907-7.4c-17.071-2.781-28.36-4.381-33.867-4.795l-1.42-0.09l0.711-1.153
		c1.657-2.724,5.477-8.586,11.456-17.584c5.112-7.757,9.059-14.062,11.842-18.917l0.266-0.533l0.533,0.088
		c5.328,0.593,15.098,2.163,29.307,4.708c19.657,3.671,33.788,5.832,42.392,6.483c6.454,0.533,11.605,0.502,15.453-0.09
		c3.908-0.709,6.099-2.011,6.572-3.906h0.089c0.415-1.186,0.947-3.079,1.599-5.684c0.651-2.902,1.391-5.063,2.22-6.484
		c1.244-2.131,3.197-3.877,5.861-5.239c4.737-2.665,13.292-3.404,25.667-2.221c7.243,0.711,19.626,2.665,37.15,5.862
		c12.139,2.249,20.96,3.789,26.467,4.618C234.392,115.939,242.395,116.74,248.808,116.917z M194.427,110.878
		c-1.835,2.428-3.877,4.885-6.128,7.372c3.256,0.532,8.112,1.42,14.565,2.663c2.073-2.19,4.145-4.617,6.218-7.282L194.427,110.878z
		 M143.687,105.549c-1.243,3.613-2.516,6.839-3.819,9.68c2.96-0.769,6.129-1.184,9.503-1.242c1.718-2.724,3.287-5.655,4.707-8.792
		C149.993,105.016,146.529,105.135,143.687,105.549z M161.005,114.341c4.086,0.355,8.477,0.888,13.174,1.598
		c2.604-3.255,4.53-5.772,5.773-7.548c-5.329-0.889-9.868-1.569-13.619-2.043C165.03,108.658,163.256,111.322,161.005,114.341z
		 M149.371,113.987c-2.665,4.736-4.233,7.608-4.706,8.613c3.196-0.354,6.749-0.444,10.656-0.266
		c0.593-0.947,2.487-3.612,5.684-7.993C157.099,113.987,153.221,113.869,149.371,113.987z M167.755,123.489
		c-5.093-0.651-9.236-1.036-12.434-1.154l-5.24,8.97c3.613-0.059,7.52,0.118,11.722,0.533L167.755,123.489z M175.067,133.525
		l14.12,2.485l6.839-7.727l-14.389-2.663L175.067,133.525z M181.551,125.621c1.479-1.777,3.729-4.234,6.748-7.372
		c-5.563-1.007-10.271-1.777-14.12-2.31c-2.803,3.08-4.943,5.595-6.424,7.549C172.273,124.022,176.873,124.732,181.551,125.621z
		 M161.804,131.838c-2.188,3.138-3.995,5.86-5.417,8.17c3.316,0.236,7.49,0.651,12.523,1.244l6.066-7.726
		C170.872,132.874,166.482,132.311,161.804,131.838z M136.317,124.644c-1.125,3.671-2.103,7.253-2.931,10.746
		c1.717-1.303,4.056-2.339,7.017-3.109v0.09c1.183-3.02,2.605-6.276,4.263-9.77C141.23,122.957,138.448,123.637,136.317,124.644z
		 M139.868,115.319c-2.901,0.77-5.15,1.864-6.749,3.285c-0.947,3.612-1.688,7.075-2.22,10.391c1.183-1.776,2.99-3.227,5.417-4.351
		C136.79,123.104,137.975,119.995,139.868,115.319z M136.938,141.962c2.309-0.948,5.181-1.599,8.615-1.954
		c1.538-3.138,3.048-6.04,4.528-8.703c-4.025,0.118-7.253,0.473-9.679,1.065C139.158,135.508,138.004,138.705,136.938,141.962z
		 M224.89,133.613c-6.929-1.184-11.664-2.044-14.209-2.576l-6.841,7.816l14.478,2.665L224.89,133.613z M217.342,123.489
		l-14.478-2.576l-6.838,7.372l14.565,2.753L217.342,123.489z M189.188,136.011l-6.306,7.371l14.563,2.665l6.308-7.193
		L189.188,136.011z M226.666,151.02l4.706-7.459c-3.551-0.474-7.904-1.155-13.055-2.042l-6.128,7.193L226.666,151.02z
		 M130.455,113.897l-0.977,10.479c0.593-2.309,1.807-4.232,3.642-5.772l2.397-10.39c-1.954,1.184-3.403,2.574-4.351,4.174
		L130.455,113.897z M75.718,125.531l-14.476-2.665c-1.717,4.145-3.907,7.431-6.572,9.858l14.565,2.487
		C71.899,132.784,74.06,129.558,75.718,125.531z M69.235,135.211c-0.769,0.71-1.924,1.718-3.463,3.019
		c-1.422,1.186-2.606,2.339-3.553,3.463l14.388,2.576c0.888-1.125,2.013-2.308,3.375-3.552c2.072-1.896,3.197-2.931,3.375-3.108
		L69.235,135.211z M83.445,137.61l13.055,1.864c2.27-2.544,4.145-5.949,5.625-10.213c-3.572-0.295-7.756-0.799-12.552-1.51
		c-1.539,3.73-3.285,6.69-5.239,8.881L83.445,137.61z M46.589,120.292c-5.683-0.948-10.39-1.628-14.12-2.042
		c-2.132,3.67-4.54,7.608-7.224,11.811l0.977-0.976c3.809,0.236,8.437,0.709,13.883,1.42
		C42.771,127.958,44.931,124.554,46.589,120.292z M47.654,139.119l-6.838,8.615l14.476,2.398l6.927-8.438L47.654,139.119z
		 M40.105,130.505c-0.769,0.71-1.924,1.717-3.463,3.021c-1.303,1.184-2.398,2.368-3.286,3.552c4.263,0.473,8.999,1.153,14.21,2.042
		c0.947-1.125,2.131-2.279,3.552-3.463c2.191-1.835,3.346-2.813,3.464-2.931C50.2,131.955,45.375,131.215,40.105,130.505z
		 M48.365,158.658c4.44,0.71,9.325,1.51,14.653,2.398l6.839-8.35l-14.565-2.575L48.365,158.658z M77.762,163.187
		c5.151,0.65,9.769,1.154,13.854,1.51l5.506-7.993c-4.677-0.473-9.058-1.036-13.144-1.688L77.762,163.187z M69.857,152.707
		c2.19,0.414,6.897,1.185,14.121,2.309c2.427-3.078,4.559-5.95,6.395-8.613l-13.677-2.133L69.857,152.707z M126.725,125.709
		c-0.355,4.084-1.007,7.816-1.954,11.189c1.776-1.243,3.02-2.931,3.73-5.061c0.355-3.672,0.503-7.935,0.444-12.79
		c-0.415,1.895-0.918,3.611-1.51,5.151C127.376,124.732,127.139,125.236,126.725,125.709z M129.034,128.018
		c0,1.481-0.177,2.784-0.533,3.908c-0.296,3.138-0.77,6.602-1.421,10.391c1.222-1.666,1.872-3.645,1.954-5.936
		c-0.013,3.663-0.161,7.625-0.444,11.886c0.296-1.065,0.444-2.162,0.444-3.286c0-1.48,0.177-2.843,0.533-4.086
		c0.178-2.841,0.622-6.808,1.333-11.9c-1.153,1.757-1.775,3.868-1.865,6.335c0.014-3.404,0.161-7.026,0.443-10.864
		C129.182,125.65,129.034,126.834,129.034,128.018z M112.87,129.794c-1.243,4.381-2.782,7.845-4.618,10.391
		c3.73,0.119,6.897-0.088,9.503-0.621c1.48-2.959,2.605-6.513,3.375-10.657l-1.688,0.355
		C118.141,129.499,115.949,129.677,112.87,129.794z M129.567,140.984c-0.177,1.836-0.326,4.53-0.444,8.082
		c0.592-1.303,1.332-2.427,2.221-3.374c0.829-4.619,1.509-8.053,2.042-10.302C131.551,136.811,130.277,138.675,129.567,140.984z
		 M117.755,139.563c-0.888,1.835-2.309,4.588-4.263,8.259c3.316-0.295,6.069-0.858,8.259-1.688c1.362-4.026,2.338-7.104,2.931-9.236
		C122.965,138.143,120.657,139.031,117.755,139.563z M93.48,142.761c-1.243,1.302-2.279,2.515-3.108,3.642
		c4.322,0.591,8.477,1.035,12.462,1.331c2.428-3.316,4.204-5.802,5.329-7.459c-3.611-0.06-7.47-0.326-11.575-0.8
		C96.411,139.652,95.375,140.748,93.48,142.761z M104.079,165.496c3.907,0.139,7.371,0.049,10.391-0.267l3.73-8.881
		c-3.079,0.593-6.247,0.888-9.503,0.888C107.749,159.071,106.21,161.824,104.079,165.496z M97.122,156.703
		c4.223,0.356,8.082,0.533,11.575,0.533c1.421-2.605,3.02-5.743,4.796-9.414c-2.783,0.237-6.335,0.207-10.657-0.089
		C102.066,149.096,100.161,152.085,97.122,156.703z M128.323,151.107l0.267-2.752c-0.592,2.072-1.806,3.79-3.641,5.151
		c-1.007,4.203-1.865,7.52-2.576,9.946l0.711-0.442c1.479-0.771,2.397-1.747,2.753-2.932v-0.088c0.473-1.244,0.947-2.783,1.42-4.618
		C127.909,152.767,128.264,151.346,128.323,151.107z M118.199,156.259c2.605-0.473,4.855-1.391,6.75-2.753
		c0.651-2.545,1.361-6.275,2.131-11.189c-1.184,1.657-2.96,2.931-5.329,3.818C120.922,148.74,119.738,152.115,118.199,156.259z
		 M21.337,135.922l-5.95,9.059c4.145,0.177,7.963,0.474,11.457,0.888l6.512-8.792C29.686,136.604,25.68,136.219,21.337,135.922z
		 M34.067,156.349c2.724-3.612,4.944-6.484,6.661-8.615l-13.883-1.865l-5.951,8.526C24.149,154.868,28.541,155.52,34.067,156.349z"
		/>
	<path fill-rule="evenodd" clip-rule="evenodd" fill="#F26322" d="M236.878,117.805c-2.486,3.552-4.381,6.157-5.683,7.816
		l-13.767-2.132c2.191-2.486,4.205-4.973,6.039-7.459C228.56,116.799,233.031,117.392,236.878,117.805z M231.195,125.621
		c5.208,0.592,8.85,0.946,10.923,1.065l-5.417,8.525c-4.441-0.533-8.378-1.095-11.812-1.686L231.195,125.621z M226.666,151.02
		l-14.477-2.309l6.128-7.193c5.15,0.887,9.504,1.569,13.055,2.042L226.666,151.02z M189.188,136.011l14.565,2.842l-6.308,7.193
		l-14.563-2.665L189.188,136.011z M217.342,123.489l-6.75,7.548l-14.565-2.753l6.838-7.372L217.342,123.489z M224.89,133.613
		l-6.572,7.904l-14.478-2.665l6.841-7.816C213.226,131.569,217.961,132.429,224.89,133.613z M136.938,141.962
		c1.066-3.257,2.22-6.454,3.464-9.592c2.426-0.592,5.654-0.948,9.679-1.065c-1.48,2.663-2.99,5.565-4.528,8.703
		C142.119,140.363,139.247,141.014,136.938,141.962z M139.868,115.319c-1.894,4.676-3.078,7.786-3.551,9.325
		c-2.428,1.125-4.234,2.575-5.417,4.351c0.532-3.316,1.272-6.779,2.22-10.391C134.718,117.183,136.967,116.088,139.868,115.319z
		 M136.317,124.644c2.131-1.007,4.913-1.688,8.348-2.044c-1.658,3.494-3.08,6.75-4.263,9.77v-0.09
		c-2.961,0.77-5.299,1.807-7.017,3.109C134.214,131.897,135.191,128.315,136.317,124.644z M161.804,131.838
		c4.679,0.473,9.068,1.036,13.173,1.688l-6.066,7.726c-5.033-0.592-9.207-1.008-12.523-1.244
		C157.809,137.698,159.615,134.976,161.804,131.838z M181.551,125.621c-4.678-0.889-9.277-1.599-13.796-2.132
		c1.48-1.954,3.621-4.469,6.424-7.549c3.849,0.533,8.557,1.303,14.12,2.31C185.279,121.387,183.03,123.844,181.551,125.621z
		 M175.067,133.525l6.57-7.904l14.389,2.663l-6.839,7.727L175.067,133.525z M167.755,123.489l-5.951,8.349
		c-4.202-0.416-8.109-0.592-11.722-0.533l5.24-8.97C158.519,122.453,162.662,122.838,167.755,123.489z M149.371,113.987
		c3.85-0.118,7.728,0,11.634,0.354c-3.196,4.381-5.091,7.046-5.684,7.993c-3.907-0.179-7.46-0.089-10.656,0.266
		C145.138,121.595,146.707,118.723,149.371,113.987z M161.005,114.341c2.251-3.019,4.025-5.683,5.328-7.993
		c3.751,0.474,8.29,1.154,13.619,2.043c-1.243,1.775-3.169,4.293-5.773,7.548C169.481,115.229,165.091,114.696,161.005,114.341z
		 M143.687,105.549c2.842-0.414,6.306-0.533,10.391-0.354c-1.42,3.138-2.989,6.068-4.707,8.792
		c-3.374,0.058-6.542,0.473-9.503,1.242C141.171,112.388,142.444,109.162,143.687,105.549z M194.427,110.878l14.655,2.753
		c-2.073,2.665-4.145,5.092-6.218,7.282c-6.453-1.243-11.31-2.131-14.565-2.663C190.55,115.763,192.592,113.306,194.427,110.878z
		 M34.067,156.349c-5.526-0.829-9.917-1.48-13.173-1.954l5.951-8.526l13.883,1.865C39.011,149.865,36.791,152.736,34.067,156.349z
		 M21.337,135.922c4.342,0.297,8.348,0.682,12.019,1.155l-6.512,8.792c-3.494-0.414-7.313-0.711-11.457-0.888L21.337,135.922z
		 M118.199,156.259c1.539-4.144,2.723-7.519,3.552-10.124c2.369-0.888,4.145-2.162,5.329-3.818c-0.77,4.914-1.48,8.644-2.131,11.189
		C123.054,154.868,120.804,155.786,118.199,156.259z M128.323,151.107c-0.06,0.238-0.414,1.659-1.066,4.265
		c-0.473,1.835-0.947,3.374-1.42,4.618v0.088c-0.355,1.185-1.273,2.161-2.753,2.932l-0.711,0.442
		c0.711-2.427,1.569-5.743,2.576-9.946c1.835-1.361,3.049-3.079,3.641-5.151L128.323,151.107z M97.122,156.703
		c3.04-4.618,4.944-7.607,5.713-8.969c4.322,0.295,7.875,0.326,10.657,0.089c-1.776,3.67-3.375,6.808-4.796,9.414
		C105.204,157.236,101.345,157.06,97.122,156.703z M104.079,165.496c2.132-3.672,3.67-6.425,4.618-8.26
		c3.256,0,6.424-0.295,9.503-0.888l-3.73,8.881C111.45,165.545,107.986,165.635,104.079,165.496z M93.48,142.761
		c1.895-2.013,2.931-3.109,3.108-3.287c4.105,0.474,7.963,0.741,11.575,0.8c-1.125,1.657-2.901,4.144-5.329,7.459
		c-3.986-0.296-8.141-0.74-12.462-1.331C91.201,145.276,92.237,144.063,93.48,142.761z M117.755,139.563
		c2.901-0.533,5.21-1.421,6.927-2.665c-0.592,2.132-1.568,5.21-2.931,9.236c-2.19,0.829-4.943,1.392-8.259,1.688
		C115.446,144.152,116.867,141.399,117.755,139.563z M129.567,140.984c0.71-2.309,1.984-4.173,3.819-5.594
		c-0.533,2.249-1.214,5.684-2.042,10.302c-0.889,0.947-1.628,2.071-2.221,3.374C129.241,145.514,129.39,142.82,129.567,140.984z
		 M112.87,129.794c3.079-0.117,5.271-0.295,6.572-0.533l1.688-0.355c-0.77,4.144-1.895,7.698-3.375,10.657
		c-2.605,0.533-5.772,0.74-9.503,0.621C110.088,137.639,111.627,134.175,112.87,129.794z M129.034,128.018
		c0-1.184,0.148-2.368,0.443-3.552c-0.282,3.838-0.43,7.46-0.443,10.864c0.09-2.467,0.712-4.578,1.865-6.335
		c-0.711,5.092-1.155,9.059-1.333,11.9c-0.355,1.243-0.533,2.605-0.533,4.086c0,1.125-0.148,2.221-0.444,3.286
		c0.284-4.262,0.432-8.223,0.444-11.886c-0.082,2.292-0.732,4.271-1.954,5.936c0.651-3.79,1.125-7.253,1.421-10.391
		C128.857,130.801,129.034,129.499,129.034,128.018z M126.725,125.709c0.414-0.473,0.651-0.977,0.71-1.51
		c0.592-1.541,1.095-3.256,1.51-5.151c0.059,4.855-0.088,9.117-0.444,12.79c-0.71,2.13-1.954,3.818-3.73,5.061
		C125.718,133.525,126.37,129.794,126.725,125.709z M69.857,152.707l6.838-8.437l13.677,2.133c-1.835,2.663-3.967,5.535-6.395,8.613
		C76.755,153.892,72.048,153.121,69.857,152.707z M77.762,163.187l6.216-8.171c4.085,0.651,8.466,1.215,13.144,1.688l-5.506,7.993
		C87.53,164.341,82.913,163.837,77.762,163.187z M48.365,158.658l6.927-8.526l14.565,2.575l-6.839,8.35
		C57.69,160.168,52.806,159.368,48.365,158.658z M40.105,130.505c5.27,0.71,10.095,1.45,14.477,2.22
		c-0.118,0.119-1.273,1.096-3.464,2.931c-1.42,1.184-2.605,2.339-3.552,3.463c-5.211-0.889-9.947-1.569-14.21-2.042
		c0.888-1.184,1.983-2.368,3.286-3.552C38.182,132.222,39.336,131.215,40.105,130.505z M47.654,139.119l14.565,2.575l-6.927,8.438
		l-14.476-2.398L47.654,139.119z M46.589,120.292c-1.658,4.263-3.818,7.667-6.483,10.213c-5.446-0.711-10.075-1.185-13.883-1.42
		l-0.977,0.976c2.684-4.203,5.092-8.141,7.224-11.811C36.199,118.664,40.906,119.344,46.589,120.292z M83.445,137.61l0.888-0.977
		c1.954-2.191,3.7-5.151,5.239-8.881c4.796,0.71,8.98,1.214,12.552,1.51c-1.48,4.264-3.355,7.668-5.625,10.213L83.445,137.61z
		 M69.235,135.211l14.121,2.398c-0.178,0.178-1.303,1.213-3.375,3.108c-1.362,1.244-2.486,2.427-3.375,3.552l-14.388-2.576
		c0.947-1.125,2.131-2.278,3.553-3.463C67.311,136.93,68.466,135.922,69.235,135.211z M75.718,125.531
		c-1.658,4.027-3.819,7.253-6.483,9.68l-14.565-2.487c2.665-2.427,4.855-5.713,6.572-9.858L75.718,125.531z M130.455,113.897
		l0.711-1.51c0.947-1.6,2.397-2.99,4.351-4.174l-2.397,10.39c-1.835,1.54-3.049,3.464-3.642,5.772L130.455,113.897z"/>
	<path fill-rule="evenodd" clip-rule="evenodd" fill="#271C2D" d="M201.976,178.107c0.04,0.078-0.039,0.236-0.236,0.474
		c-0.236,0.275-0.415,0.473-0.533,0.591c-0.198,0.258-0.996,1.076-2.396,2.459c-1.442,1.458-2.479,2.476-3.109,3.047
		c13.242-3.334,27.68-5.988,43.309-7.963c8.823-1.105,17.921-1.854,27.295-2.249c6.257-0.237,10.943-0.306,14.063-0.208
		c0.138,0.157,0.267,0.386,0.385,0.682c0.157,0.473,0.245,0.74,0.267,0.799c0,0.04-0.01,0.069-0.03,0.09
		c-2.447-0.119-7.224,0.029-14.328,0.444c-9.256,0.532-18.167,1.36-26.732,2.485c-9.848,1.343-18.305,2.703-25.37,4.085
		c-8.071,1.559-15.916,3.436-23.534,5.625c-6.215,4.757-11.811,8.812-16.784,12.166c-2.092,1.402-4.076,2.686-5.951,3.85
		c-5.801,3.593-10.695,6.236-14.683,7.935c-0.75,0.334-1.292,0.542-1.629,0.621c-0.591,0.158-1.075,0.138-1.451-0.061
		c-0.177-0.078-0.275-0.255-0.295-0.532c-0.039-0.277,0.01-0.583,0.149-0.917c0.098-0.258,0.444-0.839,1.036-1.747
		c1.48-2.27,3.789-4.647,6.927-7.135c2.587-2.032,5.844-4.203,9.77-6.512c1.874-1.087,3.918-2.151,6.128-3.198
		c1.657-0.809,3.404-1.599,5.239-2.367c3-1.284,6.72-2.703,11.16-4.263c1.284-1.026,2.162-1.746,2.636-2.161
		c0.967-0.83,1.786-1.589,2.456-2.28v-0.06c-3.57,1.815-7.262,3.404-11.071,4.766c-3.453,1.243-5.803,2.053-7.046,2.428
		c-1.204,0.356-2.328,0.643-3.374,0.858c-1.54,0.297-2.911,0.436-4.114,0.416c-0.81,0-1.431-0.207-1.865-0.622
		c-0.474-0.474-0.533-1.075-0.178-1.806c0.274-0.613,0.8-1.322,1.568-2.132c0.631-0.671,1.293-1.283,1.984-1.835
		c-0.277,0.019-1.48,0.443-3.612,1.273c-3.217,1.242-4.834,1.864-4.855,1.864c-1.164,0.395-2.052,0.581-2.663,0.563
		c-0.494-0.02-0.849-0.079-1.066-0.178c-0.179-0.079-0.297-0.227-0.354-0.444c-0.061-0.178-0.021-0.425,0.118-0.74
		c0.119-0.335,0.296-0.67,0.533-1.007c0.473-0.67,1.104-1.401,1.893-2.189c0.455-0.473,1.105-1.115,1.954-1.925
		c-2.9,1.204-5.189,2.18-6.866,2.931c-3.059,1.362-5.349,2.585-6.869,3.67c-0.079,0.021-0.158,0.021-0.237,0
		c-0.099-0.039-0.148-0.088-0.148-0.146c0.04-0.572,0.059-1.026,0.059-1.363c0.533-0.452,1.737-1.549,3.611-3.284
		c1.461-1.363,2.645-2.398,3.554-3.11c-1.837,0.612-4.539,1.648-8.111,3.11c-1.303,0.531-2.714,1.124-4.234,1.774
		c-6.414,2.744-10.894,4.639-13.439,5.685c-0.711,0.297-1.352,0.444-1.925,0.444c-0.375,0-0.622-0.009-0.74-0.029
		c-0.236-0.039-0.414-0.129-0.533-0.268c-0.02-0.06-0.049-0.108-0.089-0.147c-0.098-0.237-0.069-0.572,0.089-1.006
		c0.079-0.198,0.188-0.425,0.326-0.682c0.355-0.632,0.967-1.45,1.835-2.457c0.829-0.968,1.608-1.805,2.338-2.517
		c-1.717,0.85-3.216,1.569-4.5,2.161c-0.79,0.376-1.5,0.71-2.131,1.008c-2.25,1.026-4.727,2.092-7.43,3.197
		c-0.317,0.118-0.632,0.246-0.948,0.383c-2.566,1.048-4.963,1.937-7.193,2.665c-1.954,0.651-3.266,1.018-3.937,1.096
		c-0.534,0.06-0.928,0.06-1.184,0c-0.217-0.06-0.395-0.196-0.533-0.414c-0.177-0.237-0.108-0.878,0.208-1.925
		c0.276-0.81,1.065-1.904,2.368-3.286c1.205-1.263,2.694-2.604,4.471-4.024c-0.415,0.116-1.007,0.315-1.776,0.592
		c-3.237,1.262-6.266,2.574-9.088,3.937c-1.836,0.908-3.967,2.052-6.395,3.434c-2.526,1.401-4.677,2.684-6.454,3.848
		c-0.355,0.199-0.671,0.179-0.947-0.059l-0.533-0.563c-0.039-0.098-0.009-0.314,0.089-0.649c0.118-0.376,0.276-0.741,0.473-1.096
		c0.178-0.277,0.435-0.691,0.77-1.243c0.335-0.474,0.671-0.889,1.007-1.243h-0.148c-2.842,1.677-4.993,2.92-6.453,3.729
		c-2.526,1.382-4.806,2.448-6.839,3.197c-0.256,0.119-0.542,0.207-0.858,0.267c-0.356,0.059-0.622,0.059-0.799,0
		c-0.198-0.1-0.346-0.228-0.444-0.385c-0.08-0.139-0.158-0.355-0.237-0.651c-0.04-0.277-0.049-0.513-0.029-0.711l0.147-0.414
		c0.514-1.185,1.362-2.447,2.546-3.789c0.869-0.967,2.013-2.072,3.434-3.315c-4.954,2.171-9.523,4.371-13.707,6.601
		c-2.762,1.441-5.22,2.832-7.371,4.175l0.267,0.118c0.828,0.256,1.677,0.523,2.545,0.799c7.243,2.251,14.495,4.815,21.758,7.697
		c1.599,0.633,3.197,1.283,4.796,1.955l3.997,1.628c0.276,0.137,0.572,0.354,0.887,0.649c0.573,0.691,0.978,1.294,1.214,1.807
		c-0.059,0.139-0.167,0.178-0.325,0.118c-0.335-0.138-0.829-0.297-1.48-0.473c-0.652-0.158-1.085-0.267-1.303-0.325l-1.835-0.741
		c-1.914-0.769-3.897-1.539-5.95-2.309c-3.257-1.204-6.7-2.398-10.332-3.583c-3.888-1.283-9.67-3.078-17.348-5.388
		c-0.394,0.257-1.164,0.958-2.309,2.102c-0.967,0.927-1.806,1.521-2.516,1.776c-0.099-0.099-0.119-0.237-0.06-0.413
		c0.06-0.199,0.079-0.336,0.06-0.416c0-0.986,0.157-1.963,0.474-2.931c0.119-0.137,0.345-0.315,0.681-0.531
		c0.335-0.238,0.572-0.415,0.711-0.534c-0.119-0.039-0.228-0.068-0.326-0.089c-2.724-0.829-5.122-1.549-7.194-2.16
		c-2.309-0.691-4.224-1.255-5.743-1.688c-0.06-0.019-0.079-0.079-0.06-0.178l2.368-1.717c1.185-0.373,2.329-0.739,3.435-1.095
		c6.374-2.092,11.881-4.046,16.518-5.86c5.527-2.173,9.217-3.929,11.072-5.27c1.204-0.891,2.111-1.748,2.723-2.576
		c0.908-1.205,1.066-2.261,0.474-3.168c-0.454-0.729-1.392-1.213-2.812-1.45c-1.302-0.218-2.802-0.208-4.5,0.03
		c-3.316,0.434-6.71,1.341-10.184,2.723c-3.098,1.204-6.739,2.96-10.923,5.27c-0.809,0.454-1.599,0.907-2.368,1.362
		c-3.691,2.13-6.908,4.214-9.651,6.245c-3.354,2.467-6.987,5.596-10.894,9.386c-1.224,1.183-2.358,2.367-3.404,3.551
		c-0.573,0.672-1.431,1.668-2.576,2.991c-0.079,0.059-0.128,0.088-0.148,0.088c-0.335,0-0.69,0.05-1.065,0.148l-0.119-0.09
		c0.158-1.064,0.523-2.18,1.096-3.345c0.138-0.276,0.474-0.789,1.006-1.54c0.572-0.769,1.223-1.558,1.954-2.367
		c0.592-0.652,1.658-1.776,3.197-3.375c6.69-6.966,13.558-12.955,20.604-17.969c0.177-0.14,0.365-0.276,0.563-0.415
		c2.842-2.033,5.101-3.581,6.779-4.647c2.428-1.559,4.677-2.86,6.75-3.908h0.325c-0.256,0.436-0.513,0.939-0.77,1.51
		c-0.04,0.079-0.069,0.13-0.089,0.148c-0.04,0.04-0.108,0.09-0.207,0.148c-0.04,0.139-0.217,0.296-0.533,0.473
		c-2.053,1.185-5.388,3.495-10.006,6.928c-1.006,0.73-1.944,1.431-2.812,2.102c-2.98,2.251-5.29,4.076-6.927,5.478l-0.06,0.355
		c2.111-1.382,4.44-2.813,6.986-4.293c0.908-0.533,1.844-1.065,2.812-1.599c4.421-2.428,8.092-4.194,11.012-5.3
		c2.585-0.985,4.954-1.716,7.105-2.189c2.526-0.554,5.062-0.83,7.608-0.83c1.559,0,2.852,0.237,3.878,0.711
		c1.204,0.572,1.924,1.382,2.161,2.428c0.316,1.421-0.218,2.91-1.599,4.469c-1.342,1.501-2.931,2.874-4.766,4.117
		c-1.875,1.242-4.431,2.634-7.667,4.172c-2.191,1.027-5.289,2.34-9.295,3.938c-3.868,1.559-7.016,2.753-9.443,3.582l8.318,2.663
		c3.908-2.189,8.17-4.409,12.789-6.66c5.013-2.447,9.315-4.391,12.907-5.831c3.079-1.204,6.029-2.231,8.851-3.079
		c2.21-0.632,3.917-1.036,5.121-1.213c0.81-0.119,1.529-0.062,2.162,0.177c0.216,0.059,0.414,0.158,0.592,0.296
		c0.217,0.178,0.354,0.384,0.414,0.621c0,0.079-0.04,0.158-0.118,0.238c-0.217,0.236-0.543,0.453-0.978,0.65
		c-0.512,0.218-0.858,0.385-1.036,0.503c-2.29,0.237-4.194,0.632-5.713,1.185c-3.118,1.145-5.506,2.31-7.164,3.493
		c-1.342,0.869-2.901,2.161-4.677,3.878c-0.671,0.611-0.948,1.007-0.83,1.185c0.06,0.118,0.208,0.148,0.444,0.089
		c0.158-0.04,0.395-0.128,0.711-0.267c0.394-0.138,1.333-0.592,2.812-1.361c2.151-1.025,4.816-2.39,7.993-4.087
		c1.756-0.926,4.372-2.318,7.845-4.172c0.118,0.078,0.296,0.196,0.533,0.354c0.217,0.158,0.375,0.314,0.473,0.473
		c-0.335,0.434-1.342,1.353-3.02,2.753c-1.658,1.401-2.694,2.368-3.108,2.902c5.565-3.04,10.4-5.418,14.505-7.134
		c2.526-1.067,5.102-2.014,7.727-2.843c1.421-0.453,2.95-0.898,4.589-1.333c1.045-0.295,2.141-0.582,3.285-0.857
		c1.164-0.276,2.151-0.464,2.96-0.563c1.125-0.099,2.151-0.06,3.079,0.119c0.04,0,0.089,0.028,0.148,0.088
		c0.04,0.138,0.01,0.297-0.088,0.473c-0.06,0.158-0.069,0.267-0.029,0.328c-0.099,0.314-0.267,0.601-0.504,0.856
		c-0.276,0.277-0.474,0.465-0.592,0.563c-0.079,0.079-0.187,0.1-0.326,0.06c-0.434-0.118-0.809-0.178-1.125-0.178
		c-1.243,0-3.088,0.503-5.536,1.511c-0.434,0.177-0.858,0.354-1.272,0.531c-1.915,0.869-3.652,1.836-5.21,2.902
		c-2.349,1.599-4.165,3.336-5.448,5.21c0.06,0.078,0.208,0.068,0.444-0.03c1.835-0.474,3.986-1.164,6.453-2.071
		c1.026-0.376,2.28-0.859,3.761-1.451c1.006-0.375,2.111-0.81,3.315-1.303c1.816-0.71,3.897-1.549,6.246-2.516
		c3.119-1.303,6.7-2.803,10.746-4.5c0.138,0.02,0.326,0.04,0.563,0.059c0.218,0.04,0.385,0.129,0.503,0.267
		c0.375,0.354,0.543,0.74,0.503,1.155c0.02,0.04-0.02,0.088-0.119,0.148c-0.059,0.098-0.158,0.167-0.297,0.206
		c-1.677,0.751-3.217,1.638-4.617,2.665c-1.619,1.185-2.911,2.467-3.878,3.848c0.079,0.021,0.188,0.011,0.325-0.029
		c0.1-0.04,0.287-0.108,0.563-0.207c2.013-0.771,5.94-2.398,11.783-4.884c1.698-0.691,3.296-1.333,4.796-1.926
		c3.513-1.361,6.501-2.407,8.969-3.138c0.928-0.276,1.795-0.452,2.604-0.531c0.158,0,0.385,0.088,0.681,0.266
		c0.396,0.216,0.603,0.474,0.622,0.77c-0.06,0.059-0.097,0.196-0.118,0.414c-0.021,0.198-0.079,0.336-0.178,0.415
		c-1.381,0.967-2.368,1.707-2.96,2.22c2.467-1.085,4.696-1.904,6.69-2.456c1.046-0.276,2.023-0.454,2.931-0.534
		c0.454-0.038,0.926-0.069,1.421-0.088c0.039,0.019,0.088,0.088,0.148,0.206c0.058,0.158,0.118,0.277,0.177,0.356
		c0.1,0.139,0.118,0.296,0.06,0.473c-0.039,0.157-0.1,0.267-0.179,0.326c-1.479,1.025-2.623,1.826-3.433,2.398
		c-1.461,1.064-2.556,2.032-3.285,2.901c-0.079,0.059-0.062,0.088,0.058,0.088c0.118-0.021,0.227-0.049,0.326-0.088
		c1.145-0.296,4.855-1.51,11.131-3.642c1.046-0.356,2.151-0.729,3.315-1.125c3.829-1.244,5.95-1.933,6.365-2.073
		c2.9-0.748,5.171-1.292,6.809-1.628c2.525-0.533,4.854-0.878,6.986-1.035c2.13-0.158,3.442-0.079,3.937,0.235
		c0.454,0.317,0.75,0.73,0.889,1.243c0,0.079-0.109,0.148-0.326,0.209c-0.296,0.079-0.531,0.148-0.71,0.207
		c-0.179,0.079-0.435,0.196-0.771,0.354c-0.235,0.139-0.385,0.208-0.443,0.208l-0.474-0.06c-0.75-0.039-1.805,0.01-3.168,0.148
		c-1.578,0.217-2.713,0.366-3.404,0.444c-3.275,0.414-6.67,1.204-10.184,2.368c-3.493,1.164-6.435,2.478-8.821,3.937
		c-0.672,0.414-1.293,0.839-1.865,1.272c-0.473,0.376-0.809,0.71-1.006,1.007c-0.179,0.296-0.198,0.523-0.059,0.681
		c0.196,0.217,0.648,0.307,1.361,0.267c0.354,0,0.877-0.04,1.568-0.119c0.059-0.02,0.129-0.028,0.208-0.028
		c0.57-0.1,2.269-0.583,5.09-1.451c3.12-0.947,5.765-1.826,7.935-2.636c2.685-1.006,4.885-1.854,6.602-2.546
		c2.132-0.906,4.047-1.805,5.743-2.693c0.178-0.038,0.612-0.235,1.303-0.591c0.139,0.039,0.297,0.138,0.473,0.295
		C201.79,177.9,201.917,178.048,201.976,178.107z M174.238,198.355c3.059-2.111,6.385-4.51,9.977-7.194
		c-3.435,1.342-6.76,2.832-9.977,4.471c-2.032,1.006-4.026,2.072-5.979,3.198c-2.447,1.421-5.071,3.155-7.874,5.208
		c-3.08,2.251-5.35,4.166-6.809,5.744c0.827-0.139,2.753-0.978,5.772-2.516c3.117-1.58,6.088-3.247,8.91-5.004
		C170.133,201.098,172.127,199.796,174.238,198.355z"/>
</g>
</svg>
