<?xml version="1.0" encoding="utf-8"?>
<!-- Generator: Adobe Illustrator 16.0.0, SVG Export Plug-In . SVG Version: 6.00 Build 0)  -->
<!DOCTYPE svg PUBLIC "-//W3C//DTD SVG 1.1//EN" "http://www.w3.org/Graphics/SVG/1.1/DTD/svg11.dtd">
<svg version="1.1" id="Layer_1" xmlns="http://www.w3.org/2000/svg" xmlns:xlink="http://www.w3.org/1999/xlink" x="0px" y="0px"
	 width="300px" height="300px" viewBox="0 0 300 300" enable-background="new 0 0 300 300" xml:space="preserve">
<g>
	<path fill-rule="evenodd" clip-rule="evenodd" fill="#00314A" d="M177.592,121.472c0.18,0,0.451,0.033,0.813,0.099l11.422,2.393
		c0.657,0.132,0.986,0.206,0.986,0.222c0,0.016-0.32,0.107-0.962,0.271l-1.604,0.42c-0.378,0.082-0.699,0.123-0.962,0.123
		c-0.182,0-0.51-0.033-0.986-0.099l-12.557-1.85c-0.805-0.099-1.25-0.164-1.332-0.198c-0.049-0.016,0.305-0.131,1.061-0.345
		l3.306-0.888C177.139,121.538,177.41,121.488,177.592,121.472z M214.679,104.143l0.012,0.013c0.174-0.194,0.363-0.371,0.568-0.53
		c0.608-0.473,1.357-0.79,2.244-0.95c1.069-0.181,2.146-0.14,3.231,0.123c0.23,0.065,0.543,0.181,0.938,0.346
		c0.642,0.329,1.209,0.765,1.702,1.307l0.395,0.592l0.222,0.666l0.05,0.715c-0.065,0.378-0.173,0.741-0.32,1.086
		c-0.07,0.133-0.157,0.277-0.26,0.432l-0.036,0.062c-0.052,0.083-0.109,0.169-0.173,0.259l-0.037,0.049
		c-0.035,0.054-0.072,0.107-0.11,0.16l-0.1,0.124l-0.246,0.32l0.012,0.013l0.234,0.16l0.47,0.321l0.418,0.21l0.445,0.234l2.047,0.74
		l2.442,0.542c1.022,0.148,2.087,0.275,3.194,0.382c0.37,0.029,0.744,0.058,1.122,0.086l3.256,0.173
		c0.823,0.033,2.96,0.09,6.414,0.172c2.615,0.066,4.745,0.132,6.389,0.198c1.711,0.115,3.667,0.263,5.871,0.443l5.847,0.888
		l3.873,0.913l3.749,1.233l0.592,0.296l4.452,2.158l0.284,0.136c0.872,0.526,1.916,1.201,3.133,2.023
		c1.003,0.756,1.719,1.308,2.146,1.653c0.403,0.341,0.822,0.711,1.258,1.11c0.438,0.388,0.889,0.807,1.356,1.258
		c0.168,0.185,0.345,0.386,0.53,0.604c0.322,0.357,0.671,0.756,1.049,1.196c0.021,0.026,0.042,0.051,0.062,0.074
		c0.021,0.025,0.041,0.05,0.062,0.074c0.239,0.301,0.486,0.625,0.74,0.974c0.265,0.339,0.536,0.705,0.814,1.098
		c0.46,0.757,0.896,1.513,1.307,2.27c0.428,0.904,0.781,1.71,1.061,2.417c0.247,0.658,0.519,1.521,0.814,2.59
		c0.297,1.184,0.535,2.451,0.715,3.799c0.059,0.675,0.099,1.241,0.124,1.702c0.032,0.451,0.048,0.797,0.05,1.036v0.024
		c-0.004,0.208-0.013,0.43-0.025,0.666l-0.123,1.825c-0.034,0.402-0.075,0.829-0.124,1.282c-0.028,0.242-0.065,0.525-0.11,0.852
		l-0.518,3.972c-0.093,0.705-0.195,1.474-0.309,2.307l-0.037,0.233c-0.02,0.096-0.04,0.19-0.063,0.284
		c-0.015,0.076-0.032,0.154-0.048,0.234l-1.69,6.364h0.025c-0.149,0.574-0.297,1.035-0.445,1.382
		c0.008,0.059,0.017,0.121,0.025,0.185l0.062,0.42c0.018,0.085,0.034,0.175,0.049,0.271v0.024c0.04,0.556,0.015,1.065-0.073,1.529
		c-0.022,0.1-0.048,0.198-0.074,0.296c-0.099,0.319-0.185,0.604-0.259,0.852l-0.271,0.888c-0.072,0.226-0.117,0.369-0.136,0.432
		c-0.182,0.51-0.42,1.077-0.716,1.702c-0.114,0.229-0.403,0.781-0.863,1.652l-1.505,2.368l-0.9,1.135l-2.528,3.207l-0.233,0.209
		l-3.787,3.59c-1.217,0.971-2.327,1.817-3.33,2.541c-0.095,0.064-0.19,0.13-0.284,0.196l-0.752,0.493
		c-0.25,0.166-0.497,0.326-0.74,0.482l-0.938,0.591c-0.301,0.186-0.598,0.362-0.888,0.53c-0.506,0.301-1.012,0.596-1.518,0.889
		l-1.689,0.938c-0.181,0.1-0.361,0.198-0.542,0.296c-0.238,0.121-0.473,0.24-0.703,0.358l-4.577,2.183
		c-0.115,0.052-0.23,0.105-0.345,0.16l-6.314,2.628c-0.528,0.202-1.063,0.408-1.604,0.616c-2.385,0.871-4.054,1.472-5.008,1.801
		c-0.425,0.139-0.861,0.283-1.308,0.432l-3.996,1.222c-0.187,0.058-0.376,0.115-0.567,0.172c-0.142,0.041-0.286,0.077-0.432,0.111
		l-10.792,2.688c-0.597,0.119-1.213,0.247-1.851,0.383c-2.269,0.477-4.579,0.92-6.932,1.332c-2.137,0.362-4.497,0.723-7.08,1.085
		c-2.17,0.296-4.521,0.575-7.055,0.839c-0.627,0.054-1.272,0.111-1.936,0.173l-10.016,0.542c-0.556,0.008-1.11,0.018-1.665,0.025
		l-1.086-0.013l-2.836-0.037l0.246,0.074l-0.419-0.074l-8.499-0.813l-1.788-0.197l-1.233-0.271l-2.984-0.666l-0.777-0.247
		l-2.973-0.949l0.063,0.024l-1.196-0.382c-0.091-0.013-0.183-0.024-0.271-0.037c0.079-0.016,0.157-0.033,0.234-0.05l-3.171-1.196
		l-5.697-2.861l-7.228-4.687l-6.784-5.478l-3.256-2.984c-1.431-1.382-3.018-2.952-4.76-4.712c-1.71-1.809-3.742-4.028-6.094-6.66
		c-2.039-2.318-4.48-5.196-7.326-8.633c-0.608-0.757-1.119-1.456-1.53-2.097c-0.378-0.593-0.723-1.226-1.035-1.899l-0.395-1.185
		l-0.222-1.135l0.048-1.037l0.247-0.986l0.223-0.468l0.271-0.42l0.691-0.666c0.309-0.205,0.621-0.378,0.938-0.518
		c0.091-0.033,0.182-0.067,0.271-0.099c0.466-0.112,0.872-0.178,1.221-0.198l2.8,7.302c0.69,1.165,3.029,1.621,7.018,1.37
		c0.219-0.014,0.445-0.031,0.679-0.05c0.075-0.003,0.153-0.007,0.234-0.012c1.933-0.163,4.211-0.472,6.833-0.926
		c0.289-0.054,0.581-0.107,0.875-0.16l6.981,6.463l-1.715-1.85c-0.972-2.194-1.996-4.816-3.071-7.869
		c-2.252-6.464-3.478-11.923-3.675-16.38c-0.641-0.395-1.159-0.757-1.554-1.085c-0.74-0.642-0.469-0.889,0.814-0.741
		c-0.938,0.05-1.094,0.289-0.469,0.716c0.806,0.56,1.208,0.765,1.208,0.617c-0.148-5.164,1.192-8.601,4.021-10.312
		c-1.25,0.806-2.154,2.105-2.713,3.897c-0.46,1.431-0.715,3.289-0.765,5.575l0.838,0.296c0.033-0.279,0.09-0.575,0.173-0.889
		c0.164-0.608,0.428-0.937,0.789-0.986c-0.395,0.214-0.617,0.608-0.666,1.185c-0.065,0.493-0.049,0.772,0.049,0.839
		c0.494,0.164,0.74,0.238,0.74,0.222c0-0.428,0-0.731,0-0.913c0-0.313,0.049-0.559,0.148-0.74c0.099-0.246,0.493-0.229,1.184,0.05
		c0.197,0.065,0.601,0.247,1.208,0.543c1.184,0.625,1.735,1.554,1.653,2.788c0.56,0.525,0.838,0.797,0.838,0.813
		c-3.782-1.727-6.101-2.788-6.956-3.183v1.086c0,0.032,0.444,0.304,1.332,0.813c1.036,0.625,1.982,1.143,2.837,1.555
		c2.615,1.25,3.586,1.167,2.911-0.247c0.429,0.724,0.552,1.209,0.37,1.455c-0.147,0.198-0.534,0.214-1.159,0.05
		c-0.033,0-0.033,0.115,0,0.345c0,0.214-0.075,0.338-0.222,0.37c-0.674,0.099-1.415,0.025-2.221-0.222
		c-0.904-0.279-1.595-0.699-2.072-1.258c-0.083-0.115-0.14-0.395-0.173-0.839c-0.033-0.411-0.049-0.625-0.049-0.642l-0.518-0.296
		c-0.115-0.082-0.139,0.206-0.074,0.863c0.066,0.658,0.37,1.159,0.913,1.505c-0.559-0.099-0.904-0.551-1.036-1.356
		c-0.049-0.773-0.09-1.168-0.123-1.184l-0.715-0.42c0.065,3.996,1.184,8.896,3.354,14.701c1.126,3.041,2.824,6.914,5.094,11.619
		l2.479,2.294c1.482,10.885,4.754,18.844,9.818,23.879c0.064,0.064,0.131,0.131,0.197,0.197c0.396,0.381,0.803,0.748,1.221,1.098
		c0.054,0.047,0.107,0.092,0.161,0.136c0.06,0.045,0.122,0.09,0.185,0.136c0.266,0.188,0.543,0.364,0.826,0.53
		c0.059,0.034,0.116,0.067,0.172,0.099c3.055,1.753,6.916,2.25,11.582,1.493c0.228-0.031,0.458-0.068,0.691-0.111
		c0.196-0.037,0.393-0.078,0.592-0.123l4.365-1.16c0.201-0.063,0.402-0.129,0.605-0.197c0.583-0.334,1.138-0.68,1.665-1.036
		c0.281,0.041,0.565,0.082,0.851,0.123c10.226,1.407,20.726,1.687,31.501,0.84c11.496-0.905,21.576-2.985,30.243-6.241
		c1.907-0.707,5.14-1.9,9.694-3.577c4.111-1.579,7.605-3.116,10.483-4.613c7.604-3.966,12.62-8.496,15.048-13.592
		c0.009-0.017,0.017-0.034,0.024-0.049c0.131-0.277,0.255-0.559,0.37-0.839c-0.02,0.02-0.04,0.04-0.062,0.062
		c-0.06,0.059-0.121,0.116-0.185,0.173c-5.104,5.01-12.555,9.676-22.35,13.998c-11.281,4.95-22.612,7.936-33.992,8.955
		c-3.125,0.51-7.384,0.896-12.778,1.159c-4.999,0.247-10.45,0.321-16.354,0.222c3.864-0.048,7.392-0.132,10.582-0.246
		c8.108-0.329,15.73-1.102,22.868-2.319c5.064-0.871,10.195-2.072,15.393-3.601c7.482-2.221,14.628-4.991,21.436-8.313
		c-6.446,2.977-13.436,5.566-20.968,7.771c-5.689,1.661-10.968,2.91-15.836,3.749c-6.709,1.168-14.431,1.965-23.163,2.393
		c-7.713,0.396-15.36,0.469-22.941,0.223c10.985-0.049,21.075-0.584,30.268-1.604c3.01-0.329,5.665-0.683,7.968-1.061
		c1.809-0.313,2.713-0.493,2.713-0.543c-0.147-1.661-0.147-2.729,0-3.207c1.579-0.296,4.663-1.044,9.251-2.245
		c6.496-1.71,12.597-3.543,18.304-5.501c17.58-6.019,27.883-11.938,30.908-17.761c0.115-0.559,0.493-1.496,1.135-2.812
		c0.608-1.267,0.971-2.229,1.086-2.887l0.543-4.365c-1.728,6.545-10.492,12.68-26.297,18.402c-5.048,1.825-10.549,3.51-16.502,5.057
		c-3.372,0.855-6.118,1.497-8.239,1.924c0.674-0.247,3.988-1.185,9.94-2.813c6.76-1.99,12.672-4.013,17.737-6.067
		c16.23-6.529,23.819-13.23,22.768-20.104c-0.675-0.083-1.397-0.214-2.171-0.396c-1.545-0.345-2.582-0.822-3.107-1.43
		c0.789,0.624,1.924,1.068,3.403,1.332c1.036,0.196,1.735,0.271,2.098,0.222c0.098,0,0.263,0,0.493,0
		c0.197-0.017,0.304-0.041,0.32-0.074c0.114-1.315,0.173-2.327,0.173-3.034c-0.148-2.714-0.608-5.173-1.382-7.376l-0.271-0.814
		c-0.065-0.131-0.123-0.189-0.172-0.172c-0.066,0.017-0.091,0.099-0.074,0.247l0.074,0.913c0.181,2.171-0.025,4.021-0.617,5.551
		c-0.378,0.953-0.822,1.645-1.332,2.072c1.628-1.744,2.056-5.247,1.283-10.509c-0.099-0.197-0.189-0.288-0.271-0.271
		c-0.065,0.016-0.115,0.115-0.148,0.296c-0.016,0.148-0.058,0.403-0.123,0.765c-0.182,0.888-0.584,1.571-1.209,2.047
		c-0.822,0.625-2.006,0.839-3.553,0.642c2.418,0.082,3.75-0.921,3.997-3.01c0.082-0.707,0.033-1.464-0.148-2.269
		c-0.132-0.658-0.271-1.077-0.419-1.258c-2.022-2.747-4.671-5.229-7.942-7.45c-1.497-0.987-2.632-1.48-3.405-1.48
		c-1.2,0.066-1.381,0.337-0.543,0.814c0.429,0.263,1.045,0.617,1.851,1.061c-1.185-0.625-2.302-1.052-3.354-1.283
		c-1.2-0.247-2.426-0.247-3.676,0c-1.677,0.329-3.256,0.756-4.736,1.283c-0.049,0.017,0.567,0.452,1.851,1.308
		c1.15-1.135,2.211-1.39,3.182-0.765c0.889,0.592,1.423,1.636,1.604,3.133c-0.197-1.349-0.781-2.221-1.751-2.615
		c-0.938-0.378-1.76-0.156-2.467,0.666c0.624,0.46,1.554,1.127,2.787,1.999c1.267,0.855,2.303,1.595,3.108,2.22
		c-0.477-4.079,0.255-6.134,2.195-6.167c0.724-0.017,1.431,0.255,2.121,0.813c0.675,0.56,1.036,1.126,1.086,1.703
		c-0.115-0.444-0.478-0.888-1.086-1.333c-0.674-0.46-1.308-0.674-1.899-0.641c-1.693,0.165-2.22,2.253-1.579,6.266l2.023,1.579
		c0.822,0.115,1.537-0.37,2.146-1.456c0.592-1.036,0.855-2.171,0.79-3.404c0.181,1.316-0.008,2.508-0.568,3.577
		c-0.574,1.085-1.29,1.57-2.146,1.456c1.908,1.529,3.767,3.116,5.575,4.761l-1.356-1.037c-0.115-0.099-0.255-0.156-0.419-0.172
		c-0.149-0.033-0.238-0.024-0.272,0.024c-0.296,0.329-0.501,0.534-0.616,0.617c-0.329,0.279-0.264,0.601,0.197,0.962
		c1.349,1.134,2.385,2.039,3.108,2.713c1.447,1.349,2.738,2.705,3.873,4.07c-0.823-0.922-1.916-1.99-3.281-3.207
		c-1.15-1.02-2.754-2.343-4.811-3.971c-6.019-4.802-12.58-9.226-19.685-13.271c-7.581-4.309-13.197-6.677-16.849-7.105
		c4.688,0.412,11.61,3.438,20.771,9.078c5.082,3.125,10.205,6.628,15.369,10.508c0.46,0.346,0.846,0.378,1.158,0.099
		c0.23-0.181,0.354-0.411,0.37-0.691c0.017-0.329-0.148-0.617-0.493-0.864c-3.272-2.434-6.685-4.867-10.237-7.301
		c-3.338-2.302-5.073-3.421-5.204-3.354c1.397-0.741,3.091-1.431,5.081-2.073c1.513-0.493,2.895-0.863,4.144-1.11
		c0.33-0.082,0.486-0.197,0.469-0.345c-0.016-0.148-0.172-0.288-0.469-0.419c-1.546-0.625-2.894-1.11-4.045-1.455
		c-3.371-1.02-7.31-1.727-11.816-2.122c-2.697-0.247-6.619-0.419-11.767-0.518c-4.934-0.115-8.428-0.279-10.483-0.493
		c-3.437-0.346-6.077-0.995-7.918-1.949c-0.033-0.033-2.525,0.37-7.475,1.209c1.464,0.181,3.313,0.534,5.55,1.061
		c2.286-0.049,3.462-0.065,3.528-0.049c2.138,0.509,3.453,0.831,3.946,0.962c1.464,0.411,2.977,0.937,4.539,1.579
		c0.033,0-0.23,0.132-0.789,0.395c-0.576,0.247-0.848,0.378-0.814,0.395c4.621,1.908,8.461,4.161,11.521,6.759
		c-2.994-2.385-8.239-4.852-15.739-7.4c-3.173-1.085-6.093-1.933-8.757-2.541c-2.696-0.625-4.53-0.872-5.5-0.74
		c-15.063,2.533-27.447,4.671-37.15,6.414c-0.033,0.017,1.875,0.337,5.723,0.962c4.836,0.855,9.341,1.718,13.518,2.59
		c13.716,2.861,22.489,5.55,26.321,8.066c-10.524-3.305-21.766-6.142-33.721-8.51c-3.865-0.756-7.491-1.406-10.879-1.948
		c-2.681-0.428-4.079-0.625-4.193-0.592c-3.7,0.674-6.783,1.266-9.251,1.776c2.977-0.921,13.707-3.009,32.191-6.266
		c9.21-1.612,18.066-3.157,26.567-4.638c-0.509-0.329-0.945-0.683-1.307-1.061c-0.05-0.329,0.073-0.699,0.37-1.11
		c0.164-0.247,0.436-0.617,0.813-1.11c0.592-0.905,0.329-1.727-0.789-2.467c-0.971-0.658-2.171-0.855-3.602-0.592
		c-1.414,0.264-2.212,0.814-2.393,1.653c-0.017,0.033,0.847,0.6,2.59,1.702c1.727,1.102,2.59,1.669,2.59,1.702
		c-0.197-0.099-2.253-1.267-6.166-3.503c-3.322-1.645-5.872-2.903-7.647-3.774c-3.174-1.529-5.888-2.615-8.141-3.256
		c-5.065,0.165-10.771,0.551-17.119,1.159c-12.597,1.2-22.332,2.837-29.207,4.909l-0.469,0.124c-0.346,0.115-0.576,0.263-0.69,0.444
		c-0.083,0.148-0.099,0.436-0.05,0.863l0.05,0.567c0.23,1.776,0.625,4.506,1.185,8.19c0.559,3.503,0.986,6.036,1.282,7.598
		c0.017,0.066,0.519,0.09,1.505,0.074c1.168-0.049,2.697-0.156,4.588-0.321l-3.256,0.593c-1.004,0.165-1.85,0.929-2.541,2.294
		c-0.41,0.872-0.748,1.949-1.012,3.231c2.4-0.773,6.2-1.036,11.396-0.789c5.525,0.263,11.578,1.093,18.155,2.491
		c16.396,3.42,30.917,9.028,43.564,16.823c-0.264,0.608-0.921,1.185-1.974,1.727c-0.922,0.478-1.497,0.675-1.728,0.593
		c-3.305-3.026-7.935-6.027-13.888-9.004c-5.805-2.895-12.111-5.395-18.92-7.5c-7.039-2.17-13.683-3.601-19.932-4.292
		c-6.809-0.79-12.482-0.625-17.021,0.493c0.048-0.872,0.247-1.784,0.592-2.738c0.509-1.398,1.258-2.451,2.245-3.158l-1.926,0.271
		c-0.854-3.338-1.594-7.582-2.219-12.729c-0.23-1.908-0.428-3.207-0.592-3.897c-0.214-1.02-0.526-1.661-0.938-1.924
		c5.739-1.99,15.319-3.684,28.738-5.082c6.677-0.707,12.688-1.225,18.032-1.554c-0.723-0.132-1.439-0.23-2.146-0.296
		c-6.677-0.641-14.841-0.353-24.495,0.864c-8.305,1.053-15.746,2.483-22.325,4.292c0.807,0.658,1.522,3.174,2.147,7.548
		c0.888,6.25,1.644,10.558,2.27,12.926c-0.479-1.414-0.987-3.429-1.53-6.043c-0.576-3.01-1.012-5.213-1.308-6.611
		c-1.052-4.999-2.113-7.441-3.182-7.326c-1.102,0.329-2.047,0.633-2.837,0.913l-0.74,0.271c-0.477,0.247-0.658,0.46-0.543,0.642
		c0.116,0.164,0.362,0.247,0.74,0.247c0.345-0.017,0.682,0.033,1.011,0.148c1.151,0.395,2.047,1.604,2.689,3.626
		c0.757,2.385,1.217,6.019,1.381,10.903c0.065,1.431,0.091,2.327,0.075,2.689c0,0.148,0.041,0.263,0.123,0.345
		c0.098,0.099,0.181,0.115,0.247,0.05c0.937-0.691,1.958-1.349,3.058-1.973c-1.315,0.888-2.121,1.488-2.417,1.8
		c-0.674,0.707-1.037,1.595-1.086,2.664c0-0.592-0.124-1.85-0.37-3.774c-0.313-2.434-0.666-4.3-1.061-5.599
		c0.444,0.938,0.855,2.697,1.233,5.279l0.124,0.74c0.016,0.082,0.033,0.131,0.049,0.148c0.017,0,0.025-0.049,0.025-0.148
		l-0.025-0.74c-0.559-11.117-2.771-15.927-6.635-14.431c-1.283,0.51-2.672,1.686-4.169,3.527c-1.069,1.332-1.833,2.492-2.294,3.479
		c-0.378,0.806-0.79,1.965-1.233,3.478c0.559-0.049,1.324-0.066,2.294-0.049c1.381,0.049,2.491,0.066,3.33,0.049
		c0.823,0.329,1.628,1.061,2.417,2.196c0.954,1.381,1.464,2.104,1.529,2.17c0.477,0.395,0.955-0.09,1.431-1.455
		c0.839-2.352,1.398-3.782,1.677-4.292c-0.263,0.575-0.731,1.949-1.406,4.119c-0.658,1.776-1.241,2.442-1.751,1.998
		c-0.083-0.082-0.633-0.822-1.653-2.22c-0.854-1.151-1.628-1.875-2.318-2.17c-1.628-0.034-3.758,0.033-6.389,0.197
		c-1.004,0.066-1.957,0.271-2.861,0.617c-1.103,0.428-1.448,1.381-1.037,2.861c0.395,1.431,1.143,2.319,2.245,2.665
		c1.217,0.395,2.606,0.592,4.169,0.592c2.417-0.016,4.498-0.518,6.241-1.504c-0.625,0.411-1.003,0.74-1.135,0.986
		c-0.115,0.197-0.049,0.296,0.197,0.296c1.891,0.033,3.659,0.304,5.303,0.814c-2.17-0.576-4.802-0.699-7.893-0.37
		c-2.993,0.328-5.28,0.254-6.857-0.223c-1.201-0.378-2.122-1.16-2.764-2.343c-0.444-0.839-0.666-1.604-0.666-2.294
		c-1.003,0.313-1.768,0.625-2.294,0.938c-0.576,0.312-1.036,0.715-1.381,1.208c-0.099,0.148-0.329,1.093-0.69,2.837
		c-0.362,1.825-0.773,3.157-1.234,3.996c-0.443,0.839-0.6,1.817-0.468,2.936c0.18,1.497,0.855,3.33,2.022,5.5
		c-1.069-3.272-1.538-5.345-1.406-6.216c0.098-0.74,0.575-0.584,1.431,0.468c0.789,0.987,1.644,2.368,2.565,4.144
		c0.954,1.858,1.595,3.438,1.924,4.736c0.855,3.339,1.776,5.838,2.763,7.5c1.103,1.759,2.829,3.486,5.181,5.18l1.801,1.208
		c0.411,0.297,0.674,0.338,0.79,0.123c0.115-0.181,0.082-0.418-0.099-0.715l-0.888-1.554c-1.744-3.239-3.101-6.619-4.07-10.139
		c-1.398-5.114-1.858-10.188-1.381-15.22c-0.478,6.25,0.97,13.099,4.341,20.548c1.101,2.418,2.318,4.703,3.65,6.858
		c1.052,1.693,1.685,2.605,1.899,2.737c-0.247,0.347-0.674,0.608-1.283,0.79c0.017-0.313,0.008-0.543-0.024-0.69
		c-0.033-0.214-0.124-0.47-0.271-0.766c0.131,0.526,0.156,0.938,0.074,1.233c-0.066,0.214-0.148,0.329-0.247,0.346
		c-0.526,0.132-0.937,0.23-1.233,0.297c0.066-0.33,0.057-0.766-0.024-1.309c-0.066-0.41-0.197-1.02-0.395-1.825
		c0.164,1.102,0.197,1.916,0.099,2.442c-0.066,0.246-0.206,0.518-0.419,0.814l-1.554,0.271c0.049-0.478,0.016-1.226-0.099-2.245
		c-0.083-0.872-0.172-1.612-0.271-2.221c0.181,2.154,0.082,3.667-0.296,4.539l-1.381,0.099c0.082-0.478,0.066-1.546-0.049-3.207
		c-0.099-1.677-0.223-2.828-0.37-3.454c0.296,2.896,0.254,5.123-0.125,6.686l-1.085,0.025c0.016-0.461-0.041-1.546-0.172-3.257
		c-0.148-1.677-0.239-2.516-0.271-2.516c0.082,1.085,0.099,2.293,0.048,3.626c-0.032,1.332-0.106,2.056-0.222,2.171l-1.11-0.024
		c0.099-2.648-0.008-4.827-0.32-6.537c0.115,1.661,0.165,2.96,0.147,3.897c-0.033,1.168-0.172,2.048-0.418,2.64
		c-0.905,0.065-1.555-0.28-1.95-1.036c-0.921-1.743-1.809-4.013-2.664-6.81c-1.118-3.765-1.866-7.646-2.245-11.643
		c0.213,3.964,0.896,7.894,2.047,11.791c0.707,2.418,1.563,4.711,2.565,6.883c0.296,0.675,0.642,1.077,1.036,1.209
		c0.148,0.065,0.559,0.099,1.234,0.099c4.456,0,8.436-0.42,11.938-1.259c0.184,0.222,0.381,0.452,0.592,0.691
		c0.002,0.01,0.007,0.018,0.012,0.024c-4.875,1.033-9.681,1.33-14.417,0.888c-1.458-1.809-2.7-4.365-3.726-7.672
		c-0.037-0.131-0.075-0.262-0.111-0.395c-0.747-2.667-1.368-5.273-1.862-7.819c-0.016-0.091-0.033-0.182-0.049-0.271
		c-0.181-0.97-0.419-2.434-0.715-4.391l-0.197-1.455c-0.592-0.872-1.028-1.661-1.308-2.368c-0.189-0.501-0.349-1.085-0.481-1.751
		c-0.127-0.667-0.222-1.415-0.284-2.246v-0.024c0.001-0.335,0.025-0.631,0.073-0.888c0.069-0.486,0.156-1.009,0.26-1.566
		l0.665-2.948c0.101-0.368,0.204-0.746,0.309-1.135c0.151-0.556,0.291-1.049,0.42-1.48l0.395-1.234
		c0.043-0.116,0.084-0.222,0.123-0.32c0.032-0.06,0.065-0.122,0.099-0.185c0.13-0.232,0.303-0.475,0.518-0.728l0.974-0.789
		c0.373-0.261,0.796-0.5,1.271-0.716c0.143-0.064,0.299-0.13,0.469-0.197l0.53-0.197c0.446-0.169,0.96-0.342,1.542-0.518
		l0.432-0.555c0.152-0.169,0.304-0.313,0.457-0.432c0.117-0.075,0.245-0.146,0.383-0.21c0.332-0.146,0.723-0.265,1.171-0.357
		c0.361-0.083,0.912-0.189,1.652-0.321l0.148-0.024c0.074-0.239,0.156-0.477,0.247-0.716l2.529-5.353l0.666-1.11
		c0.086-0.129,0.173-0.261,0.259-0.395c0.007-0.012,0.019-0.028,0.037-0.049l0.863-1.246c0.044-0.06,0.09-0.122,0.136-0.185
		c0.082-0.108,0.164-0.215,0.247-0.321l1.764-2.011l0.259-0.247c0.26-0.256,0.522-0.499,0.789-0.728l0.814-0.617
		c0.371-0.204,0.709-0.376,1.011-0.518c0.111-0.055,0.218-0.104,0.32-0.148l0.284-0.074l14.247-3.824
		c2.828-0.559,5.771-1.077,8.83-1.554c0.791-0.115,1.581-0.222,2.368-0.321l7.006-0.839c0.009,0,0.017,0,0.024,0
		c2.096-0.198,3.986-0.346,5.674-0.444c0.304-0.016,0.607-0.033,0.913-0.05l3.478-0.136c0.397-0.014,0.792-0.026,1.185-0.037
		c1.036,0,1.998,0.012,2.886,0.037c0.878,0.013,1.685,0.033,2.418,0.062c1.138,0.072,2.101,0.142,2.886,0.209
		c0.467,0.038,0.87,0.074,1.209,0.111l2.195,0.395c1.167,0.28,2.36,0.625,3.577,1.036c2.401,0.855,5.566,2.278,9.497,4.268
		c1.066,0.545,2.119,1.068,3.157,1.566C214.018,103.832,214.35,103.988,214.679,104.143z M146.583,148.236
		c0.148-0.263,0.337-0.395,0.567-0.395c0.247,0,0.46,0.148,0.641,0.444c0.198,0.279,0.313,0.625,0.346,1.036
		c0.016,0.411-0.041,0.765-0.173,1.061c-0.148,0.296-0.345,0.443-0.591,0.443h-0.05c0.197-0.032,0.362-0.181,0.494-0.443
		c0.132-0.246,0.181-0.56,0.148-0.938c-0.016-0.361-0.115-0.674-0.296-0.938c-0.165-0.263-0.362-0.395-0.592-0.395
		c-0.18,0-0.345,0.106-0.493,0.321c-0.115,0.197-0.181,0.46-0.197,0.789C146.369,148.829,146.435,148.5,146.583,148.236z
		 M124.851,136.52c-0.312,0.065-0.378,1.126-0.197,3.183c0.181,2.056,0.567,4.48,1.16,7.276c0.592,2.813,1.208,5.197,1.85,7.154
		c0.658,1.939,1.151,2.877,1.48,2.812c0.33-0.082,0.395-1.143,0.198-3.182c-0.181-2.056-0.567-4.481-1.16-7.277
		c-0.592-2.828-1.208-5.213-1.85-7.153C125.689,137.392,125.196,136.454,124.851,136.52z M161.557,157.537
		c-2.188-3.371-4.063-4.745-5.625-4.121c-1.545,0.626-2.335,3.068-2.367,7.328c-0.033,4.259,0.707,9.068,2.22,14.43
		c1.513,5.377,3.363,9.753,5.55,13.123c2.188,3.355,4.063,4.721,5.625,4.095c1.563-0.625,2.359-3.066,2.393-7.325
		c0.033-4.244-0.707-9.054-2.22-14.432C165.617,165.273,163.76,160.907,161.557,157.537z M180.798,144.931
		c0.904-1.102,1.989-1.652,3.256-1.652c0.624,0,1.249,0.165,1.875,0.493c-1.479-0.904-2.845-1.546-4.095-1.924
		c-1.514-0.477-2.591-0.444-3.232,0.099c-0.51,0.428-0.879,0.839-1.109,1.233c-0.494,0.806-0.675,1.965-0.543,3.478
		c0.132,1.316,0.443,2.468,0.938,3.454c0.641,1.349,1.998,2.475,4.07,3.38c0.51,0.196,0.814,0.313,0.912,0.346
		c0.56,0.181,1.086,0.287,1.58,0.319c0.607,0.05,1.068-0.049,1.381-0.295c0.246-0.182,0.469-0.37,0.666-0.568
		c0.986-1.068,1.479-2.376,1.479-3.922c0-1.431-0.419-2.647-1.258-3.65c-0.822-1.036-1.825-1.555-3.009-1.555
		c-1.135,0-2.121,0.485-2.961,1.456c-0.806,0.97-1.241,2.146-1.307,3.527v-0.222C179.441,147.382,179.893,146.049,180.798,144.931z
		 M223.621,167.478c-2.418,0.279-3.586,0.395-3.503,0.346c1.168-0.56,2.845-1.275,5.032-2.146c2.434-0.378,3.684-0.575,3.75-0.592
		c0.081-0.033-0.938,0.074-3.059,0.321c1.528-0.609,2.646-1.069,3.354-1.382c0.016-0.017,0.09,0.879,0.222,2.688
		c0.065,1.02,0.173,2.582,0.32,4.687c-3.602,0.921-7.622,1.563-12.063,1.925c2.977-0.148,5.904-0.444,8.782-0.889
		c1.414-0.213,2.517-0.395,3.306-0.542c0.081,0.838,0.131,1.25,0.147,1.233c0.032-0.017,0.032-0.486,0-1.406l3.626-0.74
		c3.059-0.642,5.871-1.291,8.438-1.948c-2.748,0.624-5.543,1.191-8.388,1.701c-2.45,0.461-3.676,0.666-3.676,0.617v-1.282
		c0-0.033,1.241-0.289,3.725-0.765c3.075-0.642,5.814-1.283,8.215-1.925c-2.747,0.593-5.518,1.159-8.313,1.702
		c-2.434,0.444-3.65,0.642-3.65,0.592l-0.025-1.208c0-0.018,1.201-0.264,3.603-0.74c3.025-0.642,5.821-1.3,8.387-1.974
		c-2.714,0.642-5.485,1.217-8.313,1.727c-2.45,0.444-3.684,0.633-3.699,0.567v-1.282l3.576-0.765
		c3.01-0.625,5.756-1.267,8.238-1.924c-2.68,0.607-5.418,1.159-8.214,1.652c-2.417,0.444-3.626,0.642-3.626,0.592l-0.024-1.258
		c0-0.017,1.217-0.255,3.65-0.715c3.01-0.593,5.74-1.242,8.189-1.949c-2.68,0.657-5.435,1.233-8.263,1.727
		c-2.385,0.395-3.577,0.567-3.577,0.519c0-0.593,0.017-0.889,0.05-0.889l0.789-0.37c0.92-0.444,1.636-0.938,2.146-1.479
		c0.313-0.346,0.806-1.045,1.48-2.098c0.772-1.595,3.272-3.412,7.499-5.451c3.354-1.612,8.206-3.544,14.554-5.797
		c4.078-1.447,8.609-2.879,13.592-4.293c5.526-1.546,9.448-2.441,11.767-2.688c-1.315,0.182-4.589,1.062-9.817,2.64
		c-4.571,1.382-9.752,3.018-15.541,4.909c-9.193,3.42-15.146,6.208-17.859,8.362c0.214-0.148,0.699-0.403,1.455-0.765
		c0.757-0.361,1.374-0.707,1.851-1.036c0.032,0,0.065,0.468,0.099,1.406c0,0.049-0.502,0.238-1.505,0.567
		c-1.02,0.329-1.817,0.567-2.393,0.715c2.598-0.543,3.897-0.765,3.897-0.666l0.073,1.11c0,0.033-0.797,0.255-2.393,0.666
		c-1.578,0.428-2.869,0.757-3.872,0.986c1.052-0.214,2.31-0.468,3.773-0.765c1.661-0.295,2.491-0.428,2.491-0.395l0.051,1.185
		c0,0.064-0.807,0.287-2.419,0.666c-1.989,0.477-4.267,0.954-6.832,1.431c2.302-0.313,4.555-0.707,6.759-1.184
		c1.068-0.215,1.899-0.395,2.492-0.543c0.229,6.364,0.36,9.529,0.394,9.497c0.033,0,0.058-0.412,0.074-1.233
		c0-0.018,1.184-0.354,3.552-1.012c2.845-0.789,5.181-1.497,7.006-2.121c-2.056,0.592-4.382,1.216-6.981,1.874
		c-2.368,0.593-3.551,0.864-3.551,0.814v-1.258c0.016-0.018,1.217-0.329,3.602-0.938c2.812-0.725,5.122-1.406,6.931-2.047
		c-1.957,0.592-4.259,1.199-6.906,1.825c-2.401,0.559-3.603,0.813-3.603,0.765v-1.308l3.677-0.938
		c2.861-0.773,5.146-1.455,6.856-2.047c-1.809,0.525-4.069,1.109-6.783,1.751c-2.499,0.592-3.75,0.871-3.75,0.839l-0.023-1.258
		c0-0.034,1.027-0.306,3.083-0.814c2.647-0.675,5.131-1.381,7.449-2.121c-2.352,0.642-4.769,1.233-7.253,1.776
		c-2.186,0.493-3.279,0.706-3.279,0.64l-0.025-1.158l3.38-0.888c2.729-0.757,5.081-1.456,7.055-2.097
		c-2.056,0.592-4.366,1.2-6.932,1.825c-2.352,0.558-3.528,0.813-3.528,0.765l-0.024-1.185c0-0.033,1.11-0.32,3.331-0.863
		c2.729-0.707,5.139-1.423,7.228-2.146c-2.286,0.675-4.695,1.291-7.228,1.851c-2.237,0.509-3.355,0.731-3.355,0.666l-0.074-1.159
		c0-0.017,1.103-0.313,3.307-0.888c2.762-0.725,5.188-1.432,7.276-2.123c-2.204,0.626-4.597,1.234-7.178,1.826
		c-2.271,0.526-3.405,0.765-3.405,0.715l-0.024-1.307c0-0.033,1.151-0.321,3.454-0.863c2.796-0.691,5.18-1.357,7.153-1.998
		c-2.204,0.592-4.588,1.176-7.153,1.75c-2.303,0.527-3.454,0.767-3.454,0.717c0-1.021,0.009-1.529,0.024-1.529
		c2.73-1.233,6.332-2.641,10.805-4.219l0.05,1.307c0,0.051-0.938,0.347-2.813,0.889c-2.006,0.592-4.267,1.233-6.784,1.925
		c2.221-0.494,4.522-1.054,6.908-1.679c1.792-0.459,2.688-0.682,2.688-0.665c0,0.559,0.049,3.42,0.147,8.585
		c0.05,3.666,0.091,5.508,0.124,5.525l0.024-1.012c0-0.017,1.004-0.345,3.009-0.986c2.401-0.807,4.466-1.596,6.192-2.368
		c-1.874,0.723-3.938,1.438-6.192,2.146c-2.005,0.642-3.009,0.93-3.009,0.864l0.024-1.332c0-0.018,0.954-0.33,2.861-0.938
		c2.336-0.773,4.424-1.58,6.267-2.418c-1.908,0.772-3.988,1.505-6.242,2.195c-1.924,0.593-2.886,0.854-2.886,0.79v-1.332
		l2.861-0.889c2.336-0.739,4.399-1.505,6.192-2.294c-1.76,0.674-3.774,1.348-6.044,2.022c-2.007,0.625-3.01,0.904-3.01,0.839
		l0.024-1.282l2.813-0.888c2.27-0.725,4.276-1.473,6.02-2.246c-1.876,0.707-3.89,1.383-6.044,2.023
		c-1.858,0.559-2.788,0.805-2.788,0.74v-1.233c0-0.017,0.962-0.321,2.887-0.913c2.352-0.773,4.432-1.57,6.241-2.393
		c-1.941,0.756-4.029,1.471-6.267,2.146c-1.906,0.592-2.861,0.854-2.861,0.79v-1.333c0-0.016,0.938-0.312,2.813-0.888
		c2.336-0.724,4.448-1.488,6.34-2.294c-1.907,0.74-3.988,1.431-6.24,2.072c-1.941,0.559-2.912,0.798-2.912,0.715v-1.184
		c0-0.017,0.955-0.313,2.861-0.888c2.353-0.74,4.408-1.48,6.168-2.221c-1.826,0.658-3.865,1.308-6.117,1.949
		c-1.941,0.559-2.912,0.813-2.912,0.765v-1.356c0-0.017,0.922-0.28,2.763-0.79c2.254-0.674,4.343-1.414,6.267-2.22
		c-1.957,0.707-4.03,1.365-6.217,1.974c-1.875,0.509-2.813,0.739-2.813,0.689v-1.233c0-0.016,1.028-0.328,3.084-0.937
		c2.418-0.773,4.44-1.505,6.068-2.195c-1.76,0.641-3.791,1.282-6.093,1.923c-2.039,0.593-3.051,0.856-3.034,0.791
		c0-0.938,0.008-1.407,0.024-1.407c2.729-0.97,5.813-2.014,9.251-3.132c0.016,0,0.033,2.664,0.049,7.992
		c0.017,5.312,0.032,7.959,0.05,7.943l0.049-1.061c0-0.018,0.822-0.362,2.467-1.037c1.974-0.839,3.61-1.595,4.909-2.269
		c-1.267,0.592-2.854,1.266-4.761,2.022c-1.743,0.674-2.606,0.995-2.59,0.962v-1.356c0-0.017,0.756-0.313,2.269-0.888
		c1.858-0.74,3.527-1.497,5.008-2.271c-1.546,0.707-3.198,1.407-4.958,2.097c-1.547,0.576-2.318,0.839-2.318,0.79l0.049-1.356
		l2.22-0.814c1.81-0.724,3.512-1.488,5.106-2.294c-1.645,0.756-3.347,1.472-5.106,2.146c-1.479,0.56-2.22,0.815-2.22,0.765v-1.332
		l2.22-0.838c1.81-0.725,3.462-1.456,4.958-2.196c-1.513,0.675-3.141,1.332-4.884,1.974c-1.529,0.559-2.294,0.806-2.294,0.74
		l0.05-1.258c0-0.017,0.748-0.329,2.244-0.938c1.858-0.756,3.511-1.496,4.958-2.22c-1.595,0.724-3.256,1.405-4.982,2.047
		c-1.48,0.576-2.22,0.838-2.22,0.789l0.024-1.208c0-0.017,0.74-0.337,2.22-0.963c1.907-0.789,3.552-1.513,4.934-2.17
		c-1.628,0.674-3.273,1.314-4.934,1.923c-1.479,0.56-2.22,0.807-2.22,0.74v-1.258c0-0.016,0.772-0.312,2.318-0.889
		c1.858-0.723,3.479-1.422,4.859-2.096c-1.479,0.658-3.1,1.291-4.859,1.898c-1.529,0.527-2.294,0.766-2.294,0.716l0.024-1.209
		c0-0.016,0.748-0.304,2.245-0.863c1.842-0.723,3.478-1.422,4.908-2.096c-1.611,0.657-3.264,1.291-4.958,1.899
		c-1.464,0.51-2.195,0.74-2.195,0.689l0.025-1.381c0-0.017,0.756-0.287,2.269-0.813c1.81-0.691,3.413-1.341,4.811-1.949
		c-1.546,0.608-3.166,1.201-4.859,1.776c-1.48,0.51-2.22,0.748-2.22,0.715c0.016-1.167,0.04-1.751,0.073-1.751
		c1.003-0.263,2.253-0.642,3.75-1.135c1.939-0.642,3.116-1.027,3.527-1.159c0.049-0.017,0.058,2.458,0.024,7.424
		c-0.017,4.968-0.008,7.451,0.024,7.451c0.05,0,0.066-0.288,0.05-0.863l2.047-1.062c1.547-0.854,2.771-1.604,3.676-2.244
		c-0.987,0.625-2.228,1.323-3.725,2.097c-1.332,0.674-1.99,0.986-1.974,0.938l0.024-1.283c0-0.017,0.684-0.379,2.048-1.085
		c1.546-0.839,2.729-1.563,3.553-2.171c-0.971,0.625-2.172,1.299-3.603,2.022c-1.314,0.657-1.974,0.962-1.974,0.913l0.025-1.233
		c0-0.017,0.583-0.313,1.751-0.889c1.431-0.74,2.73-1.537,3.897-2.393c-1.052,0.691-2.302,1.397-3.749,2.122
		c-1.266,0.64-1.899,0.945-1.899,0.912l0.049-1.332l1.825-0.863c1.447-0.74,2.723-1.464,3.824-2.171
		c-1.201,0.691-2.483,1.356-3.848,1.997c-1.201,0.544-1.802,0.791-1.802,0.74l0.024-1.331c0-0.017,0.601-0.287,1.801-0.813
		c1.431-0.708,2.689-1.448,3.774-2.221c-1.184,0.739-2.45,1.414-3.798,2.022c-1.168,0.527-1.752,0.765-1.752,0.715l0.049-1.209
		c0-0.016,0.552-0.286,1.653-0.813c1.381-0.691,2.664-1.432,3.848-2.221c-1.315,0.789-2.614,1.456-3.897,1.998
		c-1.068,0.478-1.604,0.674-1.604,0.593l0.05-1.16c0-0.017,0.625-0.313,1.874-0.888c1.48-0.707,2.673-1.365,3.577-1.974
		c-1.02,0.592-2.22,1.185-3.602,1.776c-1.233,0.542-1.85,0.789-1.85,0.74l0.049-1.185l1.851-0.888
		c1.464-0.724,2.647-1.365,3.552-1.925c-0.921,0.526-2.088,1.094-3.503,1.702c-1.266,0.56-1.899,0.807-1.899,0.74l0.05-1.332
		c0-0.017,0.634-0.288,1.899-0.813c1.479-0.642,2.656-1.217,3.528-1.727c-0.938,0.476-2.122,1.003-3.554,1.578
		c-1.249,0.51-1.874,0.748-1.874,0.716l0.074-1.283l5.575-1.653c0.016,0,0.016,2.237,0,6.711c-0.017,4.473-0.017,6.709,0,6.709
		c0.016,0,0.032-0.296,0.049-0.888c0-0.017,0.616-0.494,1.851-1.432c1.332-1.02,2.146-1.701,2.441-2.047
		c-0.526,0.46-1.39,1.126-2.59,1.998c-1.135,0.806-1.702,1.192-1.702,1.158l0.05-1.257l1.875-1.381
		c1.315-0.955,2.097-1.563,2.343-1.826c-0.313,0.279-1.102,0.848-2.368,1.702c-1.233,0.839-1.85,1.233-1.85,1.185l0.024-1.16
		c0-0.016,0.642-0.46,1.924-1.332c1.299-0.937,2.023-1.513,2.171-1.727c-0.395,0.362-1.185,0.913-2.368,1.653
		c-1.135,0.707-1.702,1.027-1.702,0.962v-1.013l1.775-1.159c1.251-0.821,2.016-1.389,2.295-1.701
		c-0.543,0.461-1.373,1.036-2.491,1.727c-1.037,0.641-1.555,0.938-1.555,0.888l0.024-1.233l1.432-0.986
		c1.135-0.772,2.014-1.414,2.64-1.924c-0.758,0.526-1.646,1.102-2.664,1.727c-0.938,0.559-1.407,0.822-1.407,0.789l0.025-1.036
		l1.752-1.135c1.249-0.806,1.998-1.348,2.244-1.628c-0.378,0.313-1.15,0.79-2.318,1.431c-1.103,0.625-1.653,0.913-1.653,0.863
		l0.049-1.159c0-0.017,0.485-0.304,1.456-0.863c1.102-0.657,1.908-1.192,2.418-1.604c-0.543,0.379-1.341,0.839-2.394,1.382
		c-0.987,0.51-1.48,0.748-1.48,0.715l0.024-1.085l1.432-0.839c0.987-0.56,1.587-0.938,1.801-1.135
		c-0.46,0.313-1.118,0.674-1.974,1.086c-0.822,0.378-1.233,0.542-1.233,0.493l0.025-1.062l0.839-0.419
		c0.641-0.313,1.061-0.543,1.258-0.69c-0.361,0.197-0.807,0.387-1.332,0.567c-0.511,0.181-0.765,0.255-0.765,0.222v-0.37
		c0.46-0.197,1.117-0.387,1.973-0.566c0.148-0.05,0.411,0.023,0.79,0.222c0.246,0.131,0.674,0.378,1.282,0.74
		c0.017,0.016,0.041,1.644,0.074,4.884c0.049,3.223,0.074,4.843,0.074,4.859c0.016,0,0.033-0.772,0.049-2.318
		c0-0.017,0.469-0.428,1.406-1.233c0.971-0.905,1.546-1.637,1.727-2.195c-0.46,0.938-1.496,1.965-3.108,3.083v-1.061
		c0.017-0.017,0.51-0.469,1.48-1.356c1.003-0.954,1.563-1.637,1.678-2.048c-0.396,0.772-1.439,1.768-3.133,2.984v-0.888l1.159-1.036
		c0.839-0.789,1.406-1.431,1.702-1.924c-0.395,0.559-0.979,1.167-1.752,1.825c-0.739,0.608-1.109,0.872-1.109,0.789
		c0.033-2.795,0.058-4.193,0.074-4.193c0.361,0.198,0.724,0.379,1.085,0.543c0.033,0.017-0.123,0.181-0.469,0.493
		c-0.329,0.313-0.485,0.469-0.469,0.469c0.017,0.017,0.229-0.115,0.642-0.395c0.411-0.279,0.625-0.419,0.642-0.419
		c0.147,0.049,0.369,0.106,0.666,0.173c0.016,0-0.642,0.665-1.974,1.997c1.446-1.299,2.187-1.948,2.22-1.948
		c0.28,0.05,0.633,0.099,1.061,0.148c0.296,0.049,0.46,0.131,0.493,0.246c1.283,6.002-6.34,12.317-22.866,18.945
		c-1.678,0.674-4.391,1.595-8.141,2.763c-4.457,1.397-8.814,2.647-13.074,3.749c-11.938,3.043-19.636,4.029-23.089,2.96
		c-0.346-0.115-0.543-0.131-0.592-0.049c-0.05,0.066,0.033,0.288,0.246,0.666c0.593,0.938,2.541,1.324,5.847,1.159
		c1.858-0.082,4.021-0.337,6.487-0.765c-3.568,0.724-6.217,1.103-7.943,1.135c-3.798,0.066-5.673-0.979-5.624-3.133
		c-0.114-0.181-0.247-0.477-0.395-0.888l3.676-0.37c3.141-0.378,6.298-0.921,9.473-1.628c-3.043,0.542-6.118,0.979-9.227,1.307
		c-2.647,0.279-3.971,0.37-3.971,0.271c0-0.427,0.173-0.863,0.518-1.307c0.017-0.017,1.308-0.173,3.873-0.469
		c3.157-0.428,6.043-0.913,8.658-1.456c-2.911,0.428-5.764,0.814-8.56,1.16c-2.467,0.312-3.677,0.443-3.626,0.395
		c0.559-0.56,1.381-1.127,2.467-1.702c0.049-0.033,1.545-0.222,4.489-0.567c2.993-0.395,4.662-0.699,5.008-0.913
		C227.938,166.927,226.17,167.182,223.621,167.478z M209.708,182.205c0-1.284-0.534-2.518-1.604-3.701
		c0.888,1.103,1.332,2.237,1.332,3.404c0,1.874-1.036,3.371-3.108,4.49c-2.071,1.118-4.563,1.521-7.474,1.207
		c-2.039-0.212-3.923-0.772-5.649-1.676c-1.693-0.855-2.977-1.9-3.848-3.134c0.839,1.283,2.121,2.377,3.848,3.281
		c1.793,0.938,3.75,1.514,5.871,1.727c2.928,0.296,5.436-0.106,7.523-1.208C208.672,185.509,209.708,184.046,209.708,182.205z
		 M208.992,171.351c-1.891,0.806-4.432,1.233-7.621,1.282c-2.287,0.033-5.469-0.147-9.547-0.542
		c-6.084-0.592-9.555-0.922-10.41-0.987c-4.013-0.279-7.416-0.296-10.213-0.049l1.875,4.095c0.379,0.839,0.642,1.842,0.789,3.009
		c0.05,0.511,0.115,1.579,0.197,3.207c0.083-0.657,0.074-1.595-0.023-2.812c-0.1-1.069-0.141-1.579-0.124-1.53L175,179.54
		c0.379,0.855,0.635,1.834,0.766,2.936c0.049,0.494,0.115,1.521,0.197,3.084c0.066-0.576,0.057-1.456-0.025-2.641
		c-0.099-1.036-0.139-1.537-0.123-1.504c1.35,3.142,2.754,6.528,4.218,10.164c0.181,0.427,0.552,0.896,1.11,1.405
		c0.609,0.56,1.109,0.806,1.506,0.74c-0.609,0.247-1.391,0.519-2.344,0.814c0.115-0.264,0.139-0.634,0.073-1.11
		c-0.049-0.493-0.181-0.913-0.396-1.259c0.166,0.379,0.166,0.88,0,1.506c-0.164,0.574-0.361,0.952-0.592,1.135l-1.479,0.395
		c0.247-0.445,0.362-1.661,0.345-3.651c0-1.842-0.09-3.305-0.271-4.391c0.148,1.052,0.116,2.614-0.098,4.687
		c-0.23,2.104-0.485,3.297-0.766,3.577l-1.898,0.419c0.23-0.395,0.412-1.669,0.543-3.823c0.115-2.122,0.123-3.89,0.023-5.304
		c0.033,1.217-0.123,2.96-0.468,5.23c-0.362,2.384-0.707,3.74-1.036,4.069c-0.756,0.148-1.414,0.263-1.974,0.346
		c0.56-0.609,1.021-1.99,1.382-4.145c0.395-2.385,0.526-4.975,0.395-7.771c0.049,2.138-0.23,4.621-0.839,7.449
		c-0.608,2.879-1.159,4.399-1.653,4.564c-1.102,0.049-1.924-0.033-2.466-0.247c-0.56-0.197-1.233-0.535-2.022-1.011
		c-1.02-0.609-1.982-1.3-2.887-2.073c5.049,1.975,7.531-0.403,7.449-7.129c-0.049-4.638-1.168-10.336-3.354-17.095
		c0.723,2.499,1.322,5.082,1.8,7.746c0.624,3.552,0.888,6.61,0.79,9.177c-0.264,6.66-2.846,8.772-7.746,6.339
		c-1.25-1.249-2.245-2.564-2.985-3.946c0.069,0.141,0.14,0.28,0.21,0.419c-2.912-4.678-5.107-10.61-6.586-17.798
		c0.044,0.054,0.088,0.106,0.136,0.16c-0.034-0.102-0.067-0.205-0.099-0.308c-0.047-0.127-0.092-0.255-0.137-0.383
		c-1.104-3.453-2.104-7.704-2.996-12.753c-1.349-7.681-1.126-11.898,0.666-12.655c1.578-0.657,3.346-0.131,5.303,1.579
		c-2.943,1.085-4.415,4.612-4.415,10.582c0.017,3.635,0.51,7.532,1.479,11.693c-0.739-3.65-1.086-7.393-1.035-11.224
		c0.049-5.855,1.273-9.202,3.676-10.04c0.361-0.132,0.838-0.009,1.43,0.37c0.461,0.279,0.799,0.567,1.012,0.863
		c1.348,1.874,2.236,3.148,2.664,3.822c1.678,2.615,3.486,5.831,5.428,9.646c0.871,1.679,2.441,3.06,4.711,4.145
		c2.039,0.987,4.391,1.629,7.055,1.925c2.549,0.296,4.877,0.229,6.981-0.197c2.187-0.428,3.667-1.167,4.44-2.221
		c-1.102,1.645-3.413,2.623-6.932,2.936c-2.484,0.197-5.477,0.057-8.979-0.419c-0.543-0.066-1.431-0.197-2.664-0.395
		c-1.2-0.198-1.456,0.501-0.765,2.097c0.346,0.361,6.816,0.674,19.413,0.937C196.47,171.121,202.743,171.235,208.992,171.351z
		 M191.38,175.198c2.072-1.102,4.563-1.504,7.475-1.208c2.22,0.246,4.243,0.871,6.068,1.874c1.661,0.807,2.984,1.776,3.971,2.911
		c1.003,1.184,1.506,2.409,1.506,3.676c0,1.908-1.069,3.428-3.207,4.563c-2.155,1.135-4.745,1.546-7.771,1.234
		c-2.647-0.281-4.991-1.062-7.03-2.345c-2.007-1.267-3.257-2.738-3.75-4.416c-0.23-0.592-0.345-1.191-0.345-1.801
		C188.297,177.813,189.324,176.317,191.38,175.198z M198.707,174.729c-1.069-0.131-2.319-0.099-3.751,0.099
		c-1.282,0.181-2.063,0.807-2.343,1.875c-0.263,0.971-0.082,1.99,0.543,3.059c0.658,1.119,1.513,1.817,2.565,2.097
		c1.217,0.329,2.434-0.032,3.651-1.085c-0.725,1.118-1.646,1.842-2.763,2.171c-1.037,0.313-2.081,0.256-3.134-0.173
		c-1.036-0.428-1.858-1.102-2.467-2.022c-0.642-1.003-0.904-2.122-0.789-3.355c-0.51,0.708-0.765,1.48-0.765,2.319
		c0,1.645,0.904,3.142,2.713,4.49c1.81,1.348,3.988,2.162,6.538,2.441c2.532,0.263,4.711-0.09,6.536-1.061
		c1.81-0.971,2.714-2.277,2.714-3.923c0-1.645-0.904-3.141-2.714-4.489C203.418,175.808,201.239,174.993,198.707,174.729z
		 M217.553,155.907c-0.329,0.084-0.748,0.158-1.259,0.224c-0.558,0.082-0.986,0.139-1.282,0.172
		c-1.431,0.148-3.018,0.288-4.761,0.42c-1.858,0.114-3.257,0.188-4.193,0.222c-1.514,0.065-3.025,0.107-4.539,0.123
		c-2.139-0.016-4.301,0.963-6.488,2.937c-1.216,1.118-2.54,2.672-3.971,4.662c1.167-2.27,2.984-4.334,5.452-6.192
		c0.854-0.642,1.314-1.027,1.381-1.159c0.115-0.214-0.223-0.337-1.012-0.37l-7.549-0.667l-5.303-1.134l-2.295-0.813l-1.949-1.013
		l-1.577-1.282l-0.616-0.716l-0.494-0.788l-0.271-0.642c-0.625-1.694-0.863-3.363-0.716-5.008c0.05-0.51,0.157-1.003,0.321-1.48
		c0.115-0.295,0.23-0.525,0.345-0.69l0.296-0.468l0.395-0.444l0.913-0.839l1.085-0.765c0.511-0.329,1.135-0.683,1.875-1.062
		l1.381-0.665c0.774-0.313,1.514-0.601,2.221-0.863c1.021-0.362,2.031-0.691,3.034-0.987c1.021-0.279,2.007-0.518,2.96-0.715
		c0.707-0.115,1.374-0.214,1.998-0.296c0.642-0.083,1.21-0.132,1.703-0.148l0.986,0.049l0.789,0.198
		c1.233,0.476,2.714,1.208,4.44,2.195c2.104,1.201,5.221,3.01,9.349,5.428c4.145,2.434,7.262,4.242,9.35,5.427
		c1.036,0.625,2.22,0.757,3.553,0.395c1.315-0.346,2.334-1.061,3.058-2.146c0.361-0.525,2.771-1.604,7.229-3.231
		c4.292-1.578,9.258-3.206,14.899-4.884c14.225-4.292,22.579-6.093,25.062-5.402c-3.223-0.329-11.363,1.529-24.42,5.575
		c-5.148,1.595-9.835,3.165-14.062,4.711c-4.275,1.563-6.874,2.665-7.794,3.306c-0.051,0.017,1.512,1.012,4.687,2.985
		c3.157,1.94,4.728,2.927,4.711,2.96c-0.016,0.017-1.652-0.904-4.908-2.763c-3.273-1.858-4.918-2.779-4.935-2.763
		c-0.822,0.938-1.727,1.636-2.713,2.097c-0.032,0.016,1.644,1.627,5.032,4.834c3.388,3.191,5.064,4.786,5.032,4.786
		c-0.066,0.033-1.883-1.514-5.451-4.638c-3.569-3.125-5.378-4.679-5.427-4.662c-0.313,0.099-0.658,0.188-1.037,0.271
		c-0.345,0.082-0.542,0.131-0.592,0.147l0.37,0.716l0.099,0.395l0.05,0.444l-0.099,0.888c-0.066,0.181-0.148,0.379-0.247,0.593
		l-0.346,0.518C220.463,154.823,219.214,155.498,217.553,155.907z M218.539,150.383c-0.329-0.361-0.978-0.822-1.948-1.382
		l-15.072-9.719c-2.385-1.397-4.177-2.318-5.377-2.763c-0.412-0.148-1.021-0.214-1.826-0.197c-0.855,0-1.719,0.09-2.59,0.271
		c-1.102,0.23-0.962,0.633,0.42,1.209c0.772,0.328,2.162,0.821,4.168,1.479c1.003,0.395,1.817,1.069,2.442,2.022
		c0.624,0.954,0.938,2.023,0.938,3.207c0,1.529-0.502,2.845-1.505,3.947c-1.02,1.069-2.237,1.604-3.651,1.604h-0.271
		c1.233-0.066,2.269-0.584,3.108-1.555c0.854-0.953,1.281-2.097,1.281-3.429c0-1.382-0.46-2.557-1.38-3.527
		c-0.905-0.971-1.99-1.455-3.257-1.455c-1.233,0-2.294,0.46-3.183,1.381c-0.888,0.904-1.365,2.015-1.431,3.33l-0.024-0.296
		c0-1.447,0.46-2.713,1.382-3.799c0.921-1.052,2.047-1.636,3.38-1.751l0.394-0.024c0.115,0,0.182-0.017,0.198-0.05
		c0.032-0.017-0.025-0.05-0.174-0.099l-0.37-0.123c-1.463-0.444-2.713-0.724-3.749-0.839c-1.595-0.182-3.018-0.05-4.267,0.395
		c-1.975,0.724-3.289,1.258-3.948,1.604c-0.64,0.329-0.312,0.971,0.987,1.924c0.707,0.543,1.801,1.34,3.281,2.393
		c0.838,0.642,1.446,1.497,1.825,2.565c0.214,0.625,0.666,1.226,1.356,1.801c0.148,0.132,0.731,0.56,1.751,1.283
		c-0.312-0.197-0.698-0.428-1.159-0.691c-0.509-0.312-0.847-0.525-1.011-0.641c-0.182-0.099-0.321-0.115-0.42-0.049
		c-0.099,0.098-0.147,0.271-0.147,0.518c0,1.052-0.206,2.021-0.617,2.91c-0.428,0.855-1.035,1.588-1.825,2.195
		c-0.395,0.33-0.419,0.576-0.073,0.74c0.098,0.05,0.402,0.132,0.912,0.247c4.292,0.872,9.357,1.257,15.195,1.159
		c4.489-0.082,8.683-0.411,12.581-0.986c0.839-0.115,1.669-0.396,2.491-0.839c0.986-0.544,1.57-1.144,1.751-1.802
		C219.32,151.731,219.132,151.008,218.539,150.383z"/>
	<path fill-rule="evenodd" clip-rule="evenodd" fill="#02476C" d="M142.13,103.193l-0.284,0.074
		c-0.103,0.044-0.209,0.093-0.32,0.148c0.102-0.053,0.2-0.103,0.296-0.148L142.13,103.193z M136.889,107.535
		c-0.083,0.106-0.165,0.213-0.247,0.321c-0.046,0.063-0.092,0.125-0.136,0.185l0.111-0.16
		C136.706,107.763,136.795,107.647,136.889,107.535z M135.643,109.286c-0.018,0.021-0.029,0.038-0.037,0.049
		c-0.086,0.134-0.173,0.265-0.259,0.395c0.076-0.122,0.154-0.245,0.234-0.37L135.643,109.286z M121.014,126.307
		c0.09-0.36,0.185-0.73,0.285-1.11c0.153-0.567,0.301-1.069,0.444-1.504c-0.129,0.431-0.269,0.924-0.42,1.48
		C121.218,125.561,121.115,125.939,121.014,126.307z M128.094,118.253c0.141-0.165,0.285-0.309,0.432-0.432
		c0.124-0.075,0.26-0.145,0.408-0.21c-0.138,0.065-0.266,0.135-0.383,0.21C128.398,117.94,128.246,118.084,128.094,118.253z
		 M223.004,109.089l0.888,0.531l-0.418-0.21L223.004,109.089z M223.004,108.596l-0.234,0.333l-0.012-0.013L223.004,108.596z
		 M214.679,104.143c0.178-0.189,0.371-0.362,0.58-0.518c-0.205,0.159-0.395,0.336-0.568,0.53L214.679,104.143z M177.592,121.472
		c-0.182,0.017-0.453,0.066-0.815,0.148l-3.306,0.888c-0.756,0.213-1.109,0.329-1.061,0.345c0.082,0.034,0.527,0.099,1.332,0.198
		l12.557,1.85c0.477,0.066,0.805,0.099,0.986,0.099c0.263,0,0.584-0.041,0.962-0.123l1.604-0.42
		c0.642-0.164,0.962-0.255,0.962-0.271c0-0.017-0.329-0.09-0.986-0.222l-11.422-2.393
		C178.043,121.505,177.771,121.472,177.592,121.472z M123.05,144.216c-0.017-0.083-0.033-0.165-0.049-0.246
		c-0.181-0.987-0.419-2.451-0.715-4.392l-0.223-1.479c-0.575-0.855-1.01-1.645-1.306-2.368c-0.19-0.502-0.342-1.086-0.457-1.751
		c0.132,0.666,0.292,1.25,0.481,1.751c0.279,0.707,0.715,1.496,1.308,2.368l0.197,1.455c0.296,1.957,0.534,3.421,0.715,4.391
		C123.018,144.034,123.035,144.125,123.05,144.216z M287.733,153.774c0.016-0.08,0.033-0.158,0.048-0.234
		c0.022-0.094,0.043-0.188,0.063-0.284C287.812,153.427,287.774,153.6,287.733,153.774z M269.133,115.922l3.01,1.332l1.442,0.826
		L269.133,115.922z M193.218,203.961c-0.563,0.021-1.126,0.037-1.689,0.05l-1.062-0.037l1.086,0.013
		C192.107,203.979,192.662,203.969,193.218,203.961z M228.086,199.607c-0.595,0.135-1.212,0.271-1.851,0.407
		c-2.285,0.461-4.604,0.904-6.956,1.332c-2.121,0.346-4.473,0.708-7.056,1.085c-2.187,0.279-4.538,0.56-7.055,0.839
		c-0.67,0.058-1.315,0.106-1.936,0.148c0.663-0.062,1.309-0.119,1.936-0.173c2.533-0.264,4.885-0.543,7.055-0.839
		c2.583-0.362,4.943-0.723,7.08-1.085c2.353-0.412,4.663-0.855,6.932-1.332C226.873,199.854,227.489,199.727,228.086,199.607z
		 M178.959,203.123l5.379,0.629l-1.147-0.037l-6.02-0.765l-1.233-0.296l1.233,0.271L178.959,203.123z M172.176,201.741l-1.319-0.32
		l-1.011-0.383l-0.58-0.222l-0.063-0.024L172.176,201.741z M178.318,196.537c-0.436,0.089-0.863,0.166-1.283,0.234
		c-4.666,0.757-8.527,0.26-11.582-1.493c-0.056-0.031-0.113-0.064-0.172-0.099c-0.283-0.166-0.561-0.343-0.826-0.53
		c-0.063-0.046-0.125-0.091-0.185-0.136c-0.054-0.044-0.107-0.089-0.161-0.136c-0.418-0.35-0.824-0.717-1.221-1.098
		c-0.066-0.066-0.133-0.133-0.197-0.197c-5.064-5.035-8.336-12.994-9.818-23.879l-2.479-2.294c-2.27-4.705-3.968-8.578-5.094-11.619
		c-2.171-5.805-3.289-10.705-3.354-14.701l0.715,0.42c0.033,0.016,0.074,0.41,0.123,1.184c0.132,0.806,0.477,1.258,1.036,1.356
		c-0.543-0.346-0.847-0.847-0.913-1.505c-0.065-0.657-0.041-0.945,0.074-0.863l0.518,0.296c0,0.017,0.016,0.23,0.049,0.642
		c0.033,0.444,0.09,0.724,0.173,0.839c0.477,0.559,1.167,0.979,2.072,1.258c0.806,0.247,1.546,0.32,2.221,0.222
		c0.147-0.032,0.222-0.156,0.222-0.37c-0.033-0.229-0.033-0.345,0-0.345c0.625,0.164,1.011,0.148,1.159-0.05
		c0.182-0.246,0.059-0.731-0.37-1.455c0.675,1.414-0.295,1.497-2.911,0.247c-0.855-0.412-1.801-0.93-2.837-1.555
		c-0.888-0.51-1.332-0.781-1.332-0.813v-1.086c0.854,0.395,3.173,1.456,6.956,3.183c0-0.017-0.279-0.288-0.838-0.813
		c0.083-1.234-0.469-2.163-1.653-2.788c-0.608-0.296-1.011-0.478-1.208-0.543c-0.691-0.279-1.085-0.296-1.184-0.05
		c-0.099,0.182-0.148,0.428-0.148,0.74c0,0.182,0,0.485,0,0.913c0,0.017-0.247-0.058-0.74-0.222
		c-0.099-0.066-0.115-0.346-0.049-0.839c0.049-0.576,0.271-0.971,0.666-1.185c-0.361,0.05-0.625,0.378-0.789,0.986
		c-0.083,0.313-0.14,0.609-0.173,0.889l-0.838-0.296c0.049-2.286,0.304-4.144,0.765-5.575c0.559-1.792,1.463-3.092,2.713-3.897
		c-2.828,1.71-4.168,5.147-4.021,10.312c0,0.147-0.403-0.058-1.208-0.617c-0.625-0.427-0.469-0.666,0.469-0.716
		c-1.283-0.147-1.554,0.1-0.814,0.741c0.395,0.328,0.913,0.69,1.554,1.085c0.197,4.457,1.423,9.916,3.675,16.38
		c1.075,3.053,2.099,5.675,3.071,7.869l1.715,1.85l-6.981-6.463c-0.294,0.053-0.586,0.106-0.875,0.16
		c-2.622,0.454-4.899,0.763-6.833,0.926c-0.081,0.005-0.159,0.009-0.234,0.012c-0.234,0.019-0.459,0.036-0.679,0.05
		c-3.989,0.251-6.328-0.205-7.018-1.37l-2.8-7.302c0.216-0.019,0.409-0.019,0.58,0c1.025,3.307,2.267,5.863,3.726,7.672
		c4.737,0.442,9.543,0.146,14.417-0.888c-0.005-0.007-0.01-0.015-0.012-0.024c-0.211-0.239-0.409-0.47-0.592-0.691
		c-3.502,0.839-7.482,1.259-11.938,1.259c-0.675,0-1.086-0.033-1.234-0.099c-0.394-0.132-0.74-0.534-1.036-1.209
		c-1.003-2.172-1.858-4.465-2.565-6.883c-1.151-3.897-1.834-7.827-2.047-11.791c0.378,3.996,1.126,7.878,2.245,11.643
		c0.855,2.797,1.743,5.066,2.664,6.81c0.395,0.756,1.044,1.102,1.95,1.036c0.247-0.592,0.386-1.472,0.418-2.64
		c0.017-0.938-0.033-2.236-0.147-3.897c0.312,1.71,0.418,3.889,0.32,6.537l1.11,0.024c0.115-0.115,0.189-0.839,0.222-2.171
		c0.05-1.333,0.033-2.541-0.048-3.626c0.032,0,0.123,0.839,0.271,2.516c0.131,1.711,0.188,2.796,0.172,3.257l1.085-0.025
		c0.379-1.563,0.42-3.79,0.125-6.686c0.147,0.626,0.271,1.777,0.37,3.454c0.115,1.661,0.131,2.729,0.049,3.207l1.381-0.099
		c0.378-0.872,0.478-2.385,0.296-4.539c0.099,0.608,0.188,1.349,0.271,2.221c0.115,1.02,0.148,1.768,0.099,2.245l1.554-0.271
		c0.213-0.297,0.354-0.568,0.419-0.814c0.099-0.526,0.065-1.341-0.099-2.442c0.197,0.806,0.328,1.415,0.395,1.825
		c0.082,0.543,0.09,0.979,0.024,1.309c0.296-0.066,0.707-0.165,1.233-0.297c0.099-0.017,0.181-0.132,0.247-0.346
		c0.083-0.296,0.057-0.707-0.074-1.233c0.148,0.296,0.238,0.552,0.271,0.766c0.033,0.147,0.042,0.378,0.024,0.69
		c0.608-0.182,1.036-0.443,1.283-0.79c-0.214-0.132-0.847-1.044-1.899-2.737c-1.332-2.155-2.549-4.44-3.65-6.858
		c-3.372-7.449-4.819-14.299-4.341-20.548c-0.478,5.033-0.017,10.106,1.381,15.22c0.97,3.52,2.327,6.899,4.07,10.139l0.888,1.554
		c0.181,0.297,0.214,0.534,0.099,0.715c-0.116,0.215-0.379,0.174-0.79-0.123l-1.801-1.208c-2.352-1.693-4.078-3.421-5.181-5.18
		c-0.987-1.662-1.908-4.161-2.763-7.5c-0.329-1.299-0.97-2.878-1.924-4.736c-0.921-1.776-1.776-3.157-2.565-4.144
		c-0.855-1.052-1.333-1.208-1.431-0.468c-0.132,0.871,0.337,2.943,1.406,6.216c-1.167-2.17-1.842-4.004-2.022-5.5
		c-0.132-1.118,0.025-2.097,0.468-2.936c0.461-0.839,0.873-2.171,1.234-3.996c0.361-1.744,0.592-2.689,0.69-2.837
		c0.345-0.493,0.806-0.896,1.381-1.208c0.526-0.313,1.291-0.625,2.294-0.938c0,0.691,0.222,1.456,0.666,2.294
		c0.642,1.184,1.563,1.965,2.764,2.343c1.578,0.477,3.864,0.551,6.857,0.223c3.091-0.329,5.723-0.206,7.893,0.37
		c-1.644-0.51-3.413-0.781-5.303-0.814c-0.247,0-0.313-0.099-0.197-0.296c0.132-0.247,0.51-0.575,1.135-0.986
		c-1.743,0.986-3.824,1.488-6.241,1.504c-1.563,0-2.953-0.197-4.169-0.592c-1.102-0.345-1.85-1.233-2.245-2.665
		c-0.411-1.48-0.066-2.434,1.037-2.861c0.904-0.345,1.857-0.551,2.861-0.617c2.631-0.164,4.761-0.23,6.389-0.197
		c0.69,0.295,1.464,1.02,2.318,2.17c1.02,1.398,1.57,2.138,1.653,2.22c0.51,0.444,1.094-0.222,1.751-1.998
		c0.674-2.17,1.143-3.544,1.406-4.119c-0.279,0.51-0.838,1.94-1.677,4.292c-0.476,1.365-0.954,1.85-1.431,1.455
		c-0.065-0.065-0.576-0.789-1.529-2.17c-0.789-1.135-1.595-1.867-2.417-2.196c-0.838,0.017-1.948,0-3.33-0.049
		c-0.971-0.017-1.735,0-2.294,0.049c0.443-1.513,0.855-2.672,1.233-3.478c0.46-0.987,1.225-2.146,2.294-3.479
		c1.497-1.842,2.886-3.018,4.169-3.527c3.864-1.497,6.076,3.314,6.635,14.431l0.025,0.74c0,0.099-0.008,0.148-0.025,0.148
		c-0.016-0.017-0.033-0.066-0.049-0.148l-0.124-0.74c-0.377-2.582-0.789-4.341-1.233-5.279c0.395,1.299,0.748,3.166,1.061,5.599
		c0.247,1.924,0.37,3.183,0.37,3.774c0.049-1.069,0.412-1.957,1.086-2.664c0.295-0.313,1.102-0.913,2.417-1.8
		c-1.101,0.625-2.121,1.282-3.058,1.973c-0.066,0.065-0.148,0.049-0.247-0.05c-0.083-0.082-0.123-0.197-0.123-0.345
		c0.016-0.362-0.009-1.258-0.075-2.689c-0.165-4.884-0.625-8.519-1.381-10.903c-0.642-2.022-1.538-3.231-2.689-3.626
		c-0.329-0.115-0.666-0.165-1.011-0.148c-0.378,0-0.625-0.083-0.74-0.247c-0.115-0.181,0.066-0.395,0.543-0.642l0.74-0.271
		c0.79-0.279,1.735-0.583,2.837-0.913c1.069-0.115,2.13,2.327,3.182,7.326c0.296,1.398,0.732,3.602,1.308,6.611
		c0.542,2.614,1.051,4.629,1.53,6.043c-0.626-2.368-1.382-6.677-2.27-12.926c-0.625-4.374-1.34-6.89-2.147-7.548
		c6.579-1.809,14.021-3.239,22.325-4.292c9.654-1.217,17.818-1.505,24.495-0.864c0.706,0.066,1.423,0.165,2.146,0.296
		c-5.344,0.329-11.355,0.847-18.032,1.554c-13.419,1.398-22.999,3.091-28.738,5.082c0.412,0.264,0.724,0.905,0.938,1.924
		c0.164,0.69,0.361,1.989,0.592,3.897c0.625,5.147,1.365,9.39,2.219,12.729l1.926-0.271c-0.987,0.707-1.736,1.76-2.245,3.158
		c-0.345,0.954-0.544,1.866-0.592,2.738c4.538-1.118,10.212-1.283,17.021-0.493c6.249,0.691,12.893,2.122,19.932,4.292
		c6.809,2.105,13.115,4.605,18.92,7.5c5.953,2.977,10.583,5.978,13.888,9.004c0.23,0.082,0.806-0.115,1.728-0.593
		c1.053-0.542,1.71-1.118,1.974-1.727c-12.647-7.795-27.168-13.403-43.564-16.823c-6.577-1.398-12.63-2.229-18.155-2.491
		c-5.196-0.247-8.996,0.016-11.396,0.789c0.264-1.283,0.602-2.36,1.012-3.231c0.691-1.365,1.537-2.129,2.541-2.294l3.256-0.593
		c-1.891,0.165-3.42,0.272-4.588,0.321c-0.986,0.016-1.488-0.008-1.505-0.074c-0.296-1.562-0.724-4.095-1.282-7.598
		c-0.56-3.684-0.954-6.414-1.185-8.19l-0.05-0.567c-0.049-0.428-0.033-0.715,0.05-0.863c0.114-0.181,0.345-0.329,0.69-0.444
		l0.469-0.124c6.875-2.072,16.61-3.708,29.207-4.909c6.348-0.608,12.054-0.995,17.119-1.159c2.253,0.641,4.967,1.727,8.141,3.256
		c1.775,0.872,4.325,2.13,7.647,3.774c3.913,2.236,5.969,3.404,6.166,3.503c0-0.033-0.863-0.6-2.59-1.702
		c-1.743-1.102-2.606-1.669-2.59-1.702c0.181-0.839,0.979-1.389,2.393-1.653c1.431-0.263,2.631-0.066,3.602,0.592
		c1.118,0.74,1.381,1.563,0.789,2.467c-0.378,0.493-0.649,0.863-0.813,1.11c-0.297,0.411-0.42,0.781-0.37,1.11
		c0.361,0.378,0.798,0.732,1.307,1.061c-8.501,1.48-17.357,3.026-26.567,4.638c-18.484,3.256-29.215,5.345-32.191,6.266
		c2.468-0.51,5.551-1.102,9.251-1.776c0.114-0.033,1.513,0.165,4.193,0.592c3.388,0.542,7.014,1.192,10.879,1.948
		c11.955,2.368,23.196,5.206,33.721,8.51c-3.832-2.516-12.605-5.205-26.321-8.066c-4.177-0.872-8.682-1.735-13.518-2.59
		c-3.848-0.625-5.756-0.945-5.723-0.962c9.703-1.743,22.087-3.881,37.15-6.414c0.97-0.131,2.804,0.115,5.5,0.74
		c2.664,0.608,5.584,1.456,8.757,2.541c7.5,2.549,12.745,5.016,15.739,7.4c-3.06-2.599-6.899-4.852-11.521-6.759
		c-0.033-0.017,0.238-0.148,0.814-0.395c0.559-0.263,0.822-0.395,0.789-0.395c-1.563-0.642-3.075-1.168-4.539-1.579
		c-0.493-0.131-1.809-0.453-3.946-0.962c-0.066-0.017-1.242,0-3.528,0.049c-2.236-0.526-4.086-0.88-5.55-1.061
		c4.949-0.839,7.441-1.242,7.475-1.209c1.841,0.954,4.481,1.604,7.918,1.949c2.056,0.214,5.55,0.378,10.483,0.493
		c5.147,0.099,9.069,0.271,11.767,0.518c4.507,0.395,8.445,1.102,11.816,2.122c1.151,0.345,2.499,0.831,4.045,1.455
		c0.297,0.131,0.453,0.271,0.469,0.419c0.018,0.148-0.139,0.263-0.469,0.345c-1.249,0.247-2.631,0.617-4.144,1.11
		c-1.99,0.642-3.684,1.332-5.081,2.073c0.131-0.066,1.866,1.052,5.204,3.354c3.553,2.434,6.965,4.868,10.237,7.301
		c0.345,0.247,0.51,0.535,0.493,0.864c-0.017,0.28-0.14,0.51-0.37,0.691c-0.313,0.279-0.698,0.247-1.158-0.099
		c-5.164-3.88-10.287-7.384-15.369-10.508c-9.16-5.641-16.083-8.667-20.771-9.078c3.651,0.428,9.268,2.796,16.849,7.105
		c7.104,4.045,13.666,8.469,19.685,13.271c2.057,1.628,3.66,2.952,4.811,3.971c1.365,1.217,2.458,2.285,3.281,3.207
		c-1.135-1.365-2.426-2.722-3.873-4.07c-0.724-0.675-1.76-1.579-3.108-2.713c-0.461-0.362-0.526-0.683-0.197-0.962
		c0.115-0.083,0.32-0.288,0.616-0.617c0.034-0.049,0.123-0.057,0.272-0.024c0.164,0.017,0.304,0.074,0.419,0.172l1.356,1.037
		c-1.809-1.645-3.667-3.232-5.575-4.761c0.855,0.115,1.571-0.37,2.146-1.456c0.561-1.068,0.749-2.261,0.568-3.577
		c0.065,1.233-0.198,2.368-0.79,3.404c-0.608,1.085-1.323,1.571-2.146,1.456l-2.023-1.579c-0.641-4.013-0.114-6.101,1.579-6.266
		c0.592-0.033,1.226,0.181,1.899,0.641c0.608,0.444,0.971,0.888,1.086,1.333c-0.05-0.576-0.411-1.143-1.086-1.703
		c-0.69-0.559-1.397-0.831-2.121-0.813c-1.94,0.033-2.672,2.088-2.195,6.167c-0.806-0.625-1.842-1.365-3.108-2.22
		c-1.233-0.872-2.163-1.538-2.787-1.999c0.707-0.822,1.529-1.044,2.467-0.666c0.97,0.394,1.554,1.266,1.751,2.615
		c-0.181-1.497-0.715-2.541-1.604-3.133c-0.971-0.625-2.031-0.37-3.182,0.765c-1.283-0.855-1.899-1.291-1.851-1.308
		c1.48-0.526,3.06-0.954,4.736-1.283c1.25-0.247,2.476-0.247,3.676,0c1.053,0.23,2.17,0.658,3.354,1.283
		c-0.806-0.444-1.422-0.797-1.851-1.061c-0.838-0.477-0.657-0.749,0.543-0.814c0.773,0,1.908,0.494,3.405,1.48
		c3.271,2.22,5.92,4.703,7.942,7.45c0.147,0.181,0.287,0.6,0.419,1.258c0.182,0.805,0.23,1.562,0.148,2.269
		c-0.247,2.089-1.579,3.091-3.997,3.01c1.547,0.197,2.73-0.017,3.553-0.642c0.625-0.477,1.027-1.159,1.209-2.047
		c0.065-0.362,0.107-0.617,0.123-0.765c0.033-0.181,0.083-0.28,0.148-0.296c0.082-0.017,0.173,0.074,0.271,0.271
		c0.772,5.262,0.345,8.765-1.283,10.509c0.51-0.428,0.954-1.119,1.332-2.072c0.592-1.53,0.798-3.38,0.617-5.551l-0.074-0.913
		c-0.017-0.148,0.008-0.23,0.074-0.247c0.049-0.017,0.106,0.041,0.172,0.172l0.271,0.814c0.773,2.203,1.233,4.662,1.382,7.376
		c0,0.707-0.059,1.719-0.173,3.034c-0.017,0.033-0.123,0.058-0.32,0.074c-0.23,0-0.396,0-0.493,0
		c-0.362,0.049-1.062-0.025-2.098-0.222c-1.479-0.264-2.614-0.708-3.403-1.332c0.525,0.607,1.563,1.085,3.107,1.43
		c0.773,0.182,1.496,0.313,2.171,0.396c1.052,6.874-6.537,13.575-22.768,20.104c-5.065,2.055-10.978,4.077-17.737,6.067
		c-5.952,1.628-9.267,2.565-9.94,2.813c2.121-0.427,4.867-1.068,8.239-1.924c5.953-1.547,11.454-3.231,16.502-5.057
		c15.805-5.723,24.569-11.857,26.297-18.402l-0.543,4.365c-0.115,0.658-0.478,1.62-1.086,2.887c-0.642,1.315-1.02,2.253-1.135,2.812
		c-3.025,5.822-13.328,11.742-30.908,17.761c-5.707,1.958-11.808,3.791-18.304,5.501c-4.588,1.201-7.672,1.949-9.251,2.245
		c-0.147,0.478-0.147,1.546,0,3.207c0,0.05-0.904,0.23-2.713,0.543c-2.303,0.378-4.958,0.731-7.968,1.061
		c-9.192,1.02-19.282,1.555-30.268,1.604c7.581,0.246,15.229,0.173,22.941-0.223c8.732-0.428,16.454-1.225,23.163-2.393
		c4.868-0.839,10.146-2.088,15.836-3.749c7.532-2.204,14.521-4.794,20.968-7.771c-6.808,3.322-13.953,6.093-21.436,8.313
		c-5.197,1.528-10.328,2.729-15.393,3.601c-7.138,1.218-14.76,1.99-22.868,2.319c-3.19,0.114-6.718,0.198-10.582,0.246
		c5.904,0.1,11.355,0.025,16.354-0.222c5.395-0.263,9.653-0.649,12.778-1.159c11.38-1.02,22.711-4.005,33.992-8.955
		c9.795-4.322,17.245-8.988,22.35-13.998c0.063-0.057,0.125-0.114,0.185-0.173c0.021-0.021,0.042-0.042,0.062-0.062
		c-0.115,0.28-0.239,0.562-0.37,0.839c-0.008,0.015-0.016,0.032-0.024,0.049c-2.428,5.096-7.443,9.626-15.048,13.592
		c-2.878,1.497-6.372,3.034-10.483,4.613c-4.555,1.677-7.787,2.87-9.694,3.577c-8.667,3.256-18.747,5.336-30.243,6.241
		c-10.775,0.847-21.275,0.567-31.501-0.84c-0.285-0.041-0.569-0.082-0.851-0.123c-0.527,0.356-1.082,0.702-1.665,1.036
		c-0.203,0.068-0.404,0.135-0.605,0.197L178.318,196.537z M251.792,192.565c-0.527,0.214-1.062,0.429-1.604,0.642
		c-2.385,0.871-4.054,1.472-5.008,1.8c-0.424,0.135-0.86,0.271-1.308,0.407c0.446-0.148,0.883-0.293,1.308-0.432
		c0.954-0.329,2.623-0.93,5.008-1.801C250.729,192.974,251.264,192.768,251.792,192.565z M268.368,184.584
		c-0.301,0.194-0.598,0.38-0.888,0.556c-0.502,0.297-1.007,0.585-1.518,0.863c0.506-0.293,1.012-0.588,1.518-0.889
		C267.771,184.946,268.067,184.77,268.368,184.584z M274.412,180.28l-0.025,0.024c-1.003,0.823-2.112,1.67-3.33,2.541
		c-0.085,0.058-0.172,0.115-0.259,0.172c0.094-0.066,0.189-0.132,0.284-0.196C272.085,182.098,273.195,181.251,274.412,180.28z
		 M285.353,165.098c0.074-0.248,0.16-0.532,0.259-0.852c0.026-0.098,0.052-0.196,0.074-0.296c-0.021,0.106-0.046,0.214-0.074,0.321
		C285.516,164.581,285.429,164.857,285.353,165.098z M280.961,173.274l0.198-0.234l-0.926,1.369l-1.801,2.097l-0.579,0.53
		l0.346-0.346l0.233-0.209L280.961,173.274z M146.583,148.236c-0.148,0.264-0.214,0.593-0.197,0.987
		c0.016-0.329,0.082-0.592,0.197-0.789c0.148-0.215,0.313-0.321,0.493-0.321c0.23,0,0.428,0.132,0.592,0.395
		c0.181,0.264,0.28,0.576,0.296,0.938c0.033,0.378-0.016,0.691-0.148,0.938c-0.131,0.263-0.296,0.411-0.494,0.443h0.05
		c0.247,0,0.443-0.147,0.591-0.443c0.132-0.296,0.189-0.649,0.173-1.061c-0.033-0.411-0.148-0.757-0.346-1.036
		c-0.181-0.296-0.395-0.444-0.641-0.444C146.92,147.842,146.731,147.974,146.583,148.236z M124.851,136.52
		c0.346-0.065,0.839,0.872,1.48,2.813c0.641,1.94,1.258,4.325,1.85,7.153c0.592,2.796,0.979,5.222,1.16,7.277
		c0.197,2.039,0.132,3.1-0.198,3.182c-0.329,0.065-0.822-0.872-1.48-2.812c-0.641-1.957-1.258-4.342-1.85-7.154
		c-0.592-2.796-0.979-5.221-1.16-7.276C124.472,137.646,124.539,136.585,124.851,136.52z M218.539,150.383
		c0.593,0.625,0.781,1.349,0.567,2.17c-0.181,0.658-0.765,1.258-1.751,1.802c-0.822,0.443-1.652,0.724-2.491,0.839
		c-3.898,0.575-8.092,0.904-12.581,0.986c-5.838,0.098-10.903-0.287-15.195-1.159c-0.51-0.115-0.814-0.197-0.912-0.247
		c-0.346-0.164-0.321-0.41,0.073-0.74c0.79-0.607,1.397-1.34,1.825-2.195c0.411-0.889,0.617-1.858,0.617-2.91
		c0-0.247,0.049-0.42,0.147-0.518c0.099-0.066,0.238-0.05,0.42,0.049c0.164,0.115,0.502,0.329,1.011,0.641
		c0.461,0.264,0.848,0.494,1.159,0.691c-1.02-0.724-1.603-1.151-1.751-1.283c-0.69-0.575-1.143-1.176-1.356-1.801
		c-0.379-1.068-0.987-1.924-1.825-2.565c-1.48-1.053-2.574-1.85-3.281-2.393c-1.299-0.953-1.627-1.595-0.987-1.924
		c0.659-0.346,1.974-0.88,3.948-1.604c1.249-0.444,2.672-0.576,4.267-0.395c1.036,0.115,2.286,0.395,3.749,0.839l0.37,0.123
		c0.148,0.049,0.206,0.082,0.174,0.099c-0.017,0.033-0.083,0.05-0.198,0.05l-0.394,0.024c-1.333,0.115-2.459,0.699-3.38,1.751
		c-0.922,1.086-1.382,2.352-1.382,3.799l0.024,0.296c0.065-1.315,0.543-2.426,1.431-3.33c0.889-0.921,1.949-1.381,3.183-1.381
		c1.267,0,2.352,0.484,3.257,1.455c0.92,0.971,1.38,2.146,1.38,3.527c0,1.332-0.427,2.476-1.281,3.429
		c-0.84,0.971-1.875,1.488-3.108,1.555h0.271c1.414,0,2.632-0.534,3.651-1.604c1.003-1.103,1.505-2.418,1.505-3.947
		c0-1.184-0.313-2.253-0.938-3.207c-0.625-0.953-1.439-1.628-2.442-2.022c-2.006-0.658-3.396-1.151-4.168-1.479
		c-1.382-0.576-1.521-0.979-0.42-1.209c0.871-0.182,1.734-0.271,2.59-0.271c0.806-0.017,1.414,0.049,1.826,0.197
		c1.2,0.444,2.992,1.365,5.377,2.763l15.072,9.719C217.562,149.561,218.21,150.021,218.539,150.383z M217.553,155.907
		c1.661-0.409,2.91-1.084,3.749-2.021l0.346-0.518c0.099-0.214,0.181-0.412,0.247-0.593l0.099-0.888l-0.05-0.444l-0.099-0.395
		l-0.37-0.716c0.05-0.017,0.247-0.065,0.592-0.147c0.379-0.083,0.724-0.173,1.037-0.271c0.049-0.017,1.857,1.537,5.427,4.662
		c3.568,3.124,5.385,4.671,5.451,4.638c0.032,0-1.645-1.595-5.032-4.786c-3.389-3.207-5.064-4.818-5.032-4.834
		c0.986-0.461,1.891-1.159,2.713-2.097c0.017-0.017,1.661,0.904,4.935,2.763c3.256,1.858,4.893,2.779,4.908,2.763
		c0.017-0.033-1.554-1.02-4.711-2.96c-3.175-1.974-4.737-2.969-4.687-2.985c0.92-0.641,3.519-1.743,7.794-3.306
		c4.227-1.546,8.913-3.116,14.062-4.711c13.057-4.046,21.197-5.904,24.42-5.575c-2.482-0.691-10.837,1.11-25.062,5.402
		c-5.642,1.678-10.607,3.306-14.899,4.884c-4.457,1.628-6.867,2.706-7.229,3.231c-0.724,1.086-1.742,1.801-3.058,2.146
		c-1.333,0.362-2.517,0.23-3.553-0.395c-2.088-1.185-5.205-2.993-9.35-5.427c-4.128-2.418-7.244-4.227-9.349-5.428
		c-1.727-0.986-3.207-1.719-4.44-2.195l-0.789-0.198l-0.986-0.049c-0.493,0.016-1.062,0.065-1.703,0.148
		c-0.624,0.082-1.291,0.181-1.998,0.296c-0.953,0.198-1.939,0.436-2.96,0.715c-1.003,0.296-2.014,0.625-3.034,0.987
		c-0.707,0.263-1.446,0.55-2.221,0.863l-1.381,0.665c-0.74,0.379-1.364,0.732-1.875,1.062l-1.085,0.765l-0.913,0.839l-0.395,0.444
		l-0.296,0.468c-0.114,0.165-0.229,0.396-0.345,0.69c-0.164,0.478-0.271,0.971-0.321,1.48c-0.147,1.645,0.091,3.313,0.716,5.008
		l0.271,0.642l0.494,0.788l0.616,0.716l1.577,1.282l1.949,1.013l2.295,0.813l5.303,1.134l7.549,0.667
		c0.789,0.033,1.127,0.156,1.012,0.37c-0.066,0.132-0.526,0.518-1.381,1.159c-2.468,1.858-4.285,3.923-5.452,6.192
		c1.431-1.99,2.755-3.544,3.971-4.662c2.188-1.974,4.35-2.952,6.488-2.937c1.514-0.016,3.025-0.058,4.539-0.123
		c0.937-0.033,2.335-0.107,4.193-0.222c1.743-0.132,3.33-0.271,4.761-0.42c0.296-0.033,0.725-0.09,1.282-0.172
		C216.805,156.065,217.224,155.991,217.553,155.907z M198.707,174.729c2.532,0.264,4.711,1.078,6.536,2.442
		c1.81,1.349,2.714,2.845,2.714,4.489c0,1.646-0.904,2.952-2.714,3.923c-1.825,0.971-4.004,1.323-6.536,1.061
		c-2.55-0.279-4.729-1.094-6.538-2.441c-1.809-1.349-2.713-2.846-2.713-4.49c0-0.839,0.255-1.611,0.765-2.319
		c-0.115,1.233,0.147,2.353,0.789,3.355c0.608,0.921,1.431,1.595,2.467,2.022c1.053,0.429,2.097,0.485,3.134,0.173
		c1.117-0.329,2.038-1.053,2.763-2.171c-1.218,1.053-2.435,1.414-3.651,1.085c-1.053-0.279-1.907-0.978-2.565-2.097
		c-0.625-1.068-0.806-2.088-0.543-3.059c0.279-1.068,1.061-1.694,2.343-1.875C196.388,174.631,197.638,174.599,198.707,174.729z
		 M191.38,175.198c-2.056,1.119-3.083,2.615-3.083,4.489c0,0.609,0.114,1.209,0.345,1.801c0.493,1.678,1.743,3.149,3.75,4.416
		c2.039,1.283,4.383,2.063,7.03,2.345c3.025,0.312,5.615-0.1,7.771-1.234c2.138-1.136,3.207-2.655,3.207-4.563
		c0-1.267-0.503-2.492-1.506-3.676c-0.986-1.135-2.31-2.104-3.971-2.911c-1.825-1.003-3.849-1.628-6.068-1.874
		C195.943,173.694,193.452,174.097,191.38,175.198z M208.992,171.351c-6.249-0.115-12.522-0.229-18.821-0.346
		c-12.597-0.263-19.067-0.575-19.413-0.937c-0.691-1.596-0.436-2.295,0.765-2.097c1.233,0.197,2.121,0.328,2.664,0.395
		c3.503,0.476,6.495,0.616,8.979,0.419c3.519-0.313,5.83-1.291,6.932-2.936c-0.773,1.054-2.254,1.793-4.44,2.221
		c-2.104,0.427-4.433,0.493-6.981,0.197c-2.664-0.296-5.016-0.938-7.055-1.925c-2.27-1.085-3.84-2.466-4.711-4.145
		c-1.941-3.814-3.75-7.03-5.428-9.646c-0.428-0.674-1.316-1.948-2.664-3.822c-0.213-0.296-0.551-0.584-1.012-0.863
		c-0.592-0.379-1.068-0.502-1.43-0.37c-2.402,0.838-3.627,4.185-3.676,10.04c-0.051,3.831,0.296,7.573,1.035,11.224
		c-0.97-4.161-1.463-8.059-1.479-11.693c0-5.97,1.472-9.497,4.415-10.582c-1.957-1.71-3.725-2.236-5.303-1.579
		c-1.792,0.757-2.015,4.975-0.666,12.655c0.893,5.049,1.892,9.3,2.996,12.753c0.045,0.128,0.09,0.256,0.137,0.383
		c0.031,0.103,0.064,0.206,0.099,0.308c-0.048-0.054-0.092-0.106-0.136-0.16c1.479,7.188,3.674,13.12,6.586,17.798
		c-0.07-0.139-0.141-0.278-0.21-0.419c0.74,1.382,1.735,2.697,2.985,3.946c4.9,2.434,7.482,0.321,7.746-6.339
		c0.098-2.566-0.166-5.625-0.79-9.177c-0.478-2.664-1.077-5.247-1.8-7.746c2.186,6.759,3.305,12.457,3.354,17.095
		c0.082,6.726-2.4,9.104-7.449,7.129c0.904,0.773,1.867,1.464,2.887,2.073c0.789,0.476,1.463,0.813,2.022,1.011
		c0.542,0.214,1.364,0.296,2.466,0.247c0.494-0.165,1.045-1.686,1.653-4.564c0.608-2.828,0.888-5.312,0.839-7.449
		c0.132,2.796,0,5.386-0.395,7.771c-0.361,2.154-0.822,3.535-1.382,4.145c0.56-0.083,1.218-0.197,1.974-0.346
		c0.329-0.329,0.674-1.686,1.036-4.069c0.345-2.271,0.501-4.014,0.468-5.23c0.1,1.414,0.092,3.182-0.023,5.304
		c-0.131,2.154-0.313,3.429-0.543,3.823l1.898-0.419c0.28-0.28,0.535-1.473,0.766-3.577c0.214-2.072,0.246-3.635,0.098-4.687
		c0.182,1.086,0.271,2.549,0.271,4.391c0.018,1.99-0.098,3.206-0.345,3.651l1.479-0.395c0.23-0.183,0.428-0.561,0.592-1.135
		c0.166-0.626,0.166-1.127,0-1.506c0.215,0.346,0.347,0.766,0.396,1.259c0.065,0.477,0.042,0.847-0.073,1.11
		c0.953-0.296,1.734-0.567,2.344-0.814c-0.396,0.065-0.896-0.181-1.506-0.74c-0.559-0.51-0.93-0.979-1.11-1.405
		c-1.464-3.636-2.868-7.022-4.218-10.164c-0.016-0.033,0.024,0.468,0.123,1.504c0.082,1.185,0.092,2.064,0.025,2.641
		c-0.082-1.563-0.148-2.59-0.197-3.084c-0.131-1.102-0.387-2.08-0.766-2.936l-1.085-2.517c-0.017-0.049,0.024,0.461,0.124,1.53
		c0.098,1.217,0.106,2.154,0.023,2.812c-0.082-1.628-0.147-2.696-0.197-3.207c-0.147-1.167-0.41-2.17-0.789-3.009l-1.875-4.095
		c2.797-0.247,6.2-0.23,10.213,0.049c0.855,0.065,4.326,0.396,10.41,0.987c4.078,0.395,7.26,0.575,9.547,0.542
		C204.561,172.584,207.102,172.156,208.992,171.351z M209.708,182.205c0,1.841-1.036,3.304-3.108,4.391
		c-2.088,1.102-4.596,1.504-7.523,1.208c-2.121-0.213-4.078-0.789-5.871-1.727c-1.727-0.904-3.009-1.998-3.848-3.281
		c0.871,1.233,2.154,2.278,3.848,3.134c1.727,0.903,3.61,1.464,5.649,1.676c2.911,0.313,5.402-0.089,7.474-1.207
		c2.072-1.119,3.108-2.616,3.108-4.49c0-1.167-0.444-2.302-1.332-3.404C209.174,179.688,209.708,180.921,209.708,182.205z
		 M223.621,167.478c2.549-0.296,4.317-0.551,5.304-0.765c-0.346,0.214-2.015,0.519-5.008,0.913c-2.944,0.346-4.44,0.534-4.489,0.567
		c-1.086,0.575-1.908,1.143-2.467,1.702c-0.051,0.049,1.159-0.083,3.626-0.395c2.796-0.346,5.648-0.732,8.56-1.16
		c-2.615,0.543-5.501,1.028-8.658,1.456c-2.565,0.296-3.856,0.452-3.873,0.469c-0.345,0.443-0.518,0.88-0.518,1.307
		c0,0.099,1.323,0.008,3.971-0.271c3.108-0.328,6.184-0.765,9.227-1.307c-3.175,0.707-6.332,1.25-9.473,1.628l-3.676,0.37
		c0.147,0.411,0.28,0.707,0.395,0.888c-0.049,2.153,1.826,3.199,5.624,3.133c1.727-0.032,4.375-0.411,7.943-1.135
		c-2.467,0.428-4.629,0.683-6.487,0.765c-3.306,0.165-5.254-0.222-5.847-1.159c-0.213-0.378-0.296-0.6-0.246-0.666
		c0.049-0.082,0.246-0.066,0.592,0.049c3.453,1.069,11.15,0.083,23.089-2.96c4.26-1.102,8.617-2.352,13.074-3.749
		c3.75-1.168,6.463-2.089,8.141-2.763c16.526-6.628,24.149-12.943,22.866-18.945c-0.033-0.115-0.197-0.197-0.493-0.246
		c-0.428-0.05-0.78-0.099-1.061-0.148c-0.033,0-0.773,0.649-2.22,1.948c1.332-1.332,1.989-1.997,1.974-1.997
		c-0.297-0.066-0.519-0.124-0.666-0.173c-0.017,0-0.23,0.14-0.642,0.419c-0.412,0.279-0.625,0.411-0.642,0.395
		c-0.017,0,0.14-0.156,0.469-0.469c0.346-0.313,0.502-0.477,0.469-0.493c-0.361-0.164-0.724-0.345-1.085-0.543
		c-0.017,0-0.041,1.398-0.074,4.193c0,0.083,0.37-0.181,1.109-0.789c0.773-0.658,1.357-1.267,1.752-1.825
		c-0.296,0.493-0.863,1.135-1.702,1.924l-1.159,1.036v0.888c1.693-1.217,2.737-2.212,3.133-2.984
		c-0.115,0.411-0.675,1.094-1.678,2.048c-0.971,0.888-1.464,1.34-1.48,1.356v1.061c1.612-1.118,2.648-2.146,3.108-3.083
		c-0.181,0.559-0.756,1.29-1.727,2.195c-0.938,0.806-1.406,1.217-1.406,1.233c-0.016,1.546-0.033,2.318-0.049,2.318
		c0-0.017-0.025-1.637-0.074-4.859c-0.033-3.24-0.058-4.868-0.074-4.884c-0.608-0.362-1.036-0.609-1.282-0.74
		c-0.379-0.198-0.642-0.271-0.79-0.222c-0.855,0.18-1.513,0.369-1.973,0.566v0.37c0,0.033,0.254-0.041,0.765-0.222
		c0.525-0.181,0.971-0.37,1.332-0.567c-0.197,0.147-0.617,0.378-1.258,0.69l-0.839,0.419l-0.025,1.062
		c0,0.049,0.411-0.115,1.233-0.493c0.855-0.412,1.514-0.773,1.974-1.086c-0.214,0.197-0.813,0.575-1.801,1.135l-1.432,0.839
		l-0.024,1.085c0,0.033,0.493-0.205,1.48-0.715c1.053-0.543,1.851-1.003,2.394-1.382c-0.51,0.411-1.316,0.946-2.418,1.604
		c-0.971,0.56-1.456,0.847-1.456,0.863l-0.049,1.159c0,0.05,0.551-0.238,1.653-0.863c1.168-0.641,1.94-1.118,2.318-1.431
		c-0.246,0.28-0.995,0.822-2.244,1.628l-1.752,1.135l-0.025,1.036c0,0.033,0.469-0.23,1.407-0.789
		c1.019-0.625,1.906-1.2,2.664-1.727c-0.626,0.51-1.505,1.151-2.64,1.924l-1.432,0.986l-0.024,1.233c0,0.05,0.518-0.247,1.555-0.888
		c1.118-0.69,1.948-1.266,2.491-1.727c-0.279,0.313-1.044,0.88-2.295,1.701l-1.775,1.159v1.013c0,0.065,0.567-0.255,1.702-0.962
		c1.184-0.74,1.974-1.291,2.368-1.653c-0.147,0.214-0.872,0.79-2.171,1.727c-1.282,0.872-1.924,1.316-1.924,1.332l-0.024,1.16
		c0,0.049,0.616-0.346,1.85-1.185c1.267-0.854,2.056-1.423,2.368-1.702c-0.246,0.264-1.027,0.871-2.343,1.826l-1.875,1.381
		l-0.05,1.257c0,0.034,0.567-0.353,1.702-1.158c1.2-0.872,2.063-1.538,2.59-1.998c-0.296,0.346-1.109,1.027-2.441,2.047
		c-1.234,0.938-1.851,1.415-1.851,1.432c-0.017,0.592-0.033,0.888-0.049,0.888c-0.017,0-0.017-2.236,0-6.709
		c0.016-4.474,0.016-6.711,0-6.711l-5.575,1.653l-0.074,1.283c0,0.032,0.625-0.206,1.874-0.716c1.432-0.575,2.615-1.103,3.554-1.578
		c-0.872,0.51-2.049,1.085-3.528,1.727c-1.266,0.525-1.899,0.797-1.899,0.813l-0.05,1.332c0,0.066,0.634-0.181,1.899-0.74
		c1.415-0.608,2.582-1.176,3.503-1.702c-0.904,0.56-2.088,1.201-3.552,1.925l-1.851,0.888l-0.049,1.185
		c0,0.049,0.616-0.198,1.85-0.74c1.382-0.592,2.582-1.185,3.602-1.776c-0.904,0.608-2.097,1.267-3.577,1.974
		c-1.249,0.575-1.874,0.871-1.874,0.888l-0.05,1.16c0,0.081,0.535-0.115,1.604-0.593c1.283-0.542,2.582-1.209,3.897-1.998
		c-1.184,0.789-2.467,1.529-3.848,2.221c-1.102,0.526-1.653,0.797-1.653,0.813l-0.049,1.209c0,0.05,0.584-0.188,1.752-0.715
		c1.348-0.608,2.614-1.283,3.798-2.022c-1.085,0.772-2.344,1.513-3.774,2.221c-1.2,0.526-1.801,0.797-1.801,0.813l-0.024,1.331
		c0,0.051,0.601-0.196,1.802-0.74c1.364-0.641,2.646-1.306,3.848-1.997c-1.102,0.707-2.377,1.431-3.824,2.171l-1.825,0.863
		l-0.049,1.332c0,0.033,0.634-0.272,1.899-0.912c1.447-0.725,2.697-1.431,3.749-2.122c-1.167,0.855-2.467,1.652-3.897,2.393
		c-1.168,0.576-1.751,0.872-1.751,0.889l-0.025,1.233c0,0.049,0.659-0.256,1.974-0.913c1.431-0.724,2.632-1.397,3.603-2.022
		c-0.823,0.608-2.007,1.332-3.553,2.171c-1.364,0.706-2.048,1.068-2.048,1.085l-0.024,1.283c-0.017,0.049,0.642-0.264,1.974-0.938
		c1.497-0.773,2.737-1.472,3.725-2.097c-0.904,0.641-2.129,1.39-3.676,2.244l-2.047,1.062c0.017,0.575,0,0.863-0.05,0.863
		c-0.032,0-0.041-2.483-0.024-7.451c0.033-4.966,0.024-7.44-0.024-7.424c-0.411,0.132-1.588,0.518-3.527,1.159
		c-1.497,0.493-2.747,0.872-3.75,1.135c-0.033,0-0.058,0.584-0.073,1.751c0,0.033,0.739-0.205,2.22-0.715
		c1.693-0.575,3.313-1.168,4.859-1.776c-1.397,0.608-3.001,1.258-4.811,1.949c-1.513,0.526-2.269,0.797-2.269,0.813l-0.025,1.381
		c0,0.051,0.731-0.18,2.195-0.689c1.694-0.608,3.347-1.242,4.958-1.899c-1.431,0.674-3.066,1.373-4.908,2.096
		c-1.497,0.56-2.245,0.848-2.245,0.863l-0.024,1.209c0,0.05,0.765-0.188,2.294-0.716c1.76-0.607,3.38-1.24,4.859-1.898
		c-1.381,0.674-3.001,1.373-4.859,2.096c-1.546,0.577-2.318,0.873-2.318,0.889v1.258c0,0.066,0.74-0.181,2.22-0.74
		c1.66-0.608,3.306-1.249,4.934-1.923c-1.382,0.657-3.026,1.381-4.934,2.17c-1.479,0.626-2.22,0.946-2.22,0.963l-0.024,1.208
		c0,0.049,0.739-0.213,2.22-0.789c1.727-0.642,3.388-1.323,4.982-2.047c-1.447,0.724-3.1,1.464-4.958,2.22
		c-1.496,0.608-2.244,0.921-2.244,0.938l-0.05,1.258c0,0.065,0.765-0.182,2.294-0.74c1.743-0.642,3.371-1.299,4.884-1.974
		c-1.496,0.74-3.148,1.472-4.958,2.196l-2.22,0.838v1.332c0,0.051,0.74-0.205,2.22-0.765c1.76-0.674,3.462-1.39,5.106-2.146
		c-1.595,0.806-3.297,1.57-5.106,2.294l-2.22,0.814l-0.049,1.356c0,0.049,0.771-0.214,2.318-0.79c1.76-0.689,3.412-1.39,4.958-2.097
		c-1.48,0.773-3.149,1.53-5.008,2.271c-1.513,0.575-2.269,0.871-2.269,0.888v1.356c-0.017,0.033,0.847-0.288,2.59-0.962
		c1.906-0.757,3.494-1.431,4.761-2.022c-1.299,0.674-2.936,1.43-4.909,2.269c-1.645,0.675-2.467,1.02-2.467,1.037l-0.049,1.061
		c-0.018,0.016-0.033-2.632-0.05-7.943c-0.016-5.328-0.033-7.992-0.049-7.992c-3.438,1.118-6.521,2.162-9.251,3.132
		c-0.017,0-0.024,0.469-0.024,1.407c-0.017,0.065,0.995-0.198,3.034-0.791c2.302-0.641,4.333-1.282,6.093-1.923
		c-1.628,0.69-3.65,1.422-6.068,2.195c-2.056,0.608-3.084,0.921-3.084,0.937v1.233c0,0.05,0.938-0.181,2.813-0.689
		c2.187-0.608,4.26-1.267,6.217-1.974c-1.924,0.806-4.013,1.546-6.267,2.22c-1.841,0.51-2.763,0.773-2.763,0.79v1.356
		c0,0.048,0.971-0.206,2.912-0.765c2.252-0.642,4.291-1.291,6.117-1.949c-1.76,0.74-3.815,1.48-6.168,2.221
		c-1.906,0.575-2.861,0.871-2.861,0.888v1.184c0,0.083,0.971-0.156,2.912-0.715c2.252-0.642,4.333-1.332,6.24-2.072
		c-1.892,0.806-4.004,1.57-6.34,2.294c-1.875,0.576-2.813,0.872-2.813,0.888v1.333c0,0.064,0.955-0.198,2.861-0.79
		c2.237-0.675,4.325-1.39,6.267-2.146c-1.81,0.822-3.89,1.619-6.241,2.393c-1.925,0.592-2.887,0.896-2.887,0.913v1.233
		c0,0.064,0.93-0.182,2.788-0.74c2.154-0.641,4.168-1.316,6.044-2.023c-1.743,0.773-3.75,1.521-6.02,2.246l-2.813,0.888
		l-0.024,1.282c0,0.065,1.003-0.214,3.01-0.839c2.27-0.675,4.284-1.349,6.044-2.022c-1.793,0.789-3.856,1.555-6.192,2.294
		l-2.861,0.889v1.332c0,0.064,0.962-0.197,2.886-0.79c2.254-0.69,4.334-1.423,6.242-2.195c-1.843,0.838-3.931,1.645-6.267,2.418
		c-1.907,0.607-2.861,0.92-2.861,0.938l-0.024,1.332c0,0.065,1.004-0.223,3.009-0.864c2.254-0.707,4.318-1.423,6.192-2.146
		c-1.727,0.772-3.791,1.562-6.192,2.368c-2.005,0.642-3.009,0.97-3.009,0.986l-0.024,1.012c-0.033-0.018-0.074-1.859-0.124-5.525
		c-0.099-5.165-0.147-8.026-0.147-8.585c0-0.017-0.896,0.206-2.688,0.665c-2.386,0.625-4.688,1.185-6.908,1.679
		c2.518-0.691,4.778-1.333,6.784-1.925c1.875-0.542,2.813-0.838,2.813-0.889l-0.05-1.307c-4.473,1.578-8.074,2.985-10.805,4.219
		c-0.016,0-0.024,0.509-0.024,1.529c0,0.05,1.151-0.189,3.454-0.717c2.565-0.574,4.949-1.158,7.153-1.75
		c-1.974,0.641-4.357,1.307-7.153,1.998c-2.303,0.542-3.454,0.83-3.454,0.863l0.024,1.307c0,0.05,1.135-0.188,3.405-0.715
		c2.581-0.592,4.974-1.2,7.178-1.826c-2.088,0.691-4.515,1.398-7.276,2.123c-2.204,0.575-3.307,0.871-3.307,0.888l0.074,1.159
		c0,0.065,1.118-0.157,3.355-0.666c2.532-0.56,4.941-1.176,7.228-1.851c-2.089,0.724-4.498,1.439-7.228,2.146
		c-2.221,0.543-3.331,0.83-3.331,0.863l0.024,1.185c0,0.049,1.177-0.207,3.528-0.765c2.565-0.625,4.876-1.233,6.932-1.825
		c-1.974,0.641-4.325,1.34-7.055,2.097l-3.38,0.888l0.025,1.158c0,0.066,1.094-0.146,3.279-0.64
		c2.484-0.543,4.901-1.135,7.253-1.776c-2.318,0.74-4.802,1.446-7.449,2.121c-2.056,0.509-3.083,0.78-3.083,0.814l0.023,1.258
		c0,0.032,1.251-0.247,3.75-0.839c2.714-0.642,4.975-1.226,6.783-1.751c-1.71,0.592-3.995,1.273-6.856,2.047l-3.677,0.938v1.308
		c0,0.049,1.201-0.206,3.603-0.765c2.647-0.626,4.949-1.233,6.906-1.825c-1.809,0.641-4.119,1.322-6.931,2.047
		c-2.385,0.608-3.586,0.92-3.602,0.938v1.258c0,0.05,1.183-0.222,3.551-0.814c2.6-0.658,4.926-1.282,6.981-1.874
		c-1.825,0.624-4.161,1.332-7.006,2.121c-2.368,0.658-3.552,0.994-3.552,1.012c-0.017,0.821-0.041,1.233-0.074,1.233
		c-0.033,0.032-0.164-3.133-0.394-9.497c-0.593,0.148-1.424,0.328-2.492,0.543c-2.204,0.477-4.457,0.871-6.759,1.184
		c2.565-0.477,4.843-0.954,6.832-1.431c1.612-0.379,2.419-0.602,2.419-0.666l-0.051-1.185c0-0.033-0.83,0.1-2.491,0.395
		c-1.464,0.297-2.722,0.551-3.773,0.765c1.003-0.229,2.294-0.559,3.872-0.986c1.596-0.411,2.393-0.633,2.393-0.666l-0.073-1.11
		c0-0.099-1.3,0.123-3.897,0.666c0.575-0.147,1.373-0.386,2.393-0.715c1.003-0.329,1.505-0.519,1.505-0.567
		c-0.033-0.938-0.066-1.406-0.099-1.406c-0.477,0.329-1.094,0.675-1.851,1.036c-0.756,0.361-1.241,0.616-1.455,0.765
		c2.713-2.154,8.666-4.942,17.859-8.362c5.789-1.892,10.97-3.527,15.541-4.909c5.229-1.578,8.502-2.458,9.817-2.64
		c-2.318,0.247-6.24,1.143-11.767,2.688c-4.982,1.414-9.514,2.846-13.592,4.293c-6.348,2.253-11.199,4.185-14.554,5.797
		c-4.227,2.039-6.727,3.856-7.499,5.451c-0.675,1.053-1.168,1.752-1.48,2.098c-0.51,0.542-1.226,1.035-2.146,1.479l-0.789,0.37
		c-0.033,0-0.05,0.296-0.05,0.889c0,0.049,1.192-0.124,3.577-0.519c2.828-0.493,5.583-1.069,8.263-1.727
		c-2.449,0.707-5.18,1.356-8.189,1.949c-2.434,0.46-3.65,0.698-3.65,0.715l0.024,1.258c0,0.05,1.209-0.147,3.626-0.592
		c2.796-0.493,5.534-1.045,8.214-1.652c-2.482,0.657-5.229,1.299-8.238,1.924l-3.576,0.765v1.282
		c0.016,0.065,1.249-0.123,3.699-0.567c2.828-0.51,5.6-1.085,8.313-1.727c-2.565,0.674-5.361,1.332-8.387,1.974
		c-2.401,0.477-3.603,0.723-3.603,0.74l0.025,1.208c0,0.05,1.217-0.147,3.65-0.592c2.796-0.543,5.566-1.109,8.313-1.702
		c-2.4,0.642-5.14,1.283-8.215,1.925c-2.483,0.476-3.725,0.731-3.725,0.765v1.282c0,0.049,1.226-0.156,3.676-0.617
		c2.845-0.51,5.64-1.077,8.388-1.701c-2.566,0.657-5.379,1.307-8.438,1.948l-3.626,0.74c0.032,0.92,0.032,1.39,0,1.406
		c-0.017,0.017-0.066-0.396-0.147-1.233c-0.789,0.147-1.892,0.329-3.306,0.542c-2.878,0.444-5.806,0.74-8.782,0.889
		c4.44-0.362,8.461-1.004,12.063-1.925c-0.147-2.104-0.255-3.667-0.32-4.687c-0.132-1.81-0.206-2.705-0.222-2.688
		c-0.708,0.313-1.826,0.772-3.354,1.382c2.121-0.247,3.14-0.354,3.059-0.321c-0.066,0.017-1.316,0.214-3.75,0.592
		c-2.188,0.871-3.864,1.587-5.032,2.146C220.035,167.872,221.203,167.757,223.621,167.478z M180.798,144.931
		c-0.905,1.118-1.356,2.451-1.356,3.997v0.222c0.065-1.382,0.501-2.558,1.307-3.527c0.84-0.971,1.826-1.456,2.961-1.456
		c1.184,0,2.187,0.519,3.009,1.555c0.839,1.003,1.258,2.22,1.258,3.65c0,1.546-0.493,2.854-1.479,3.922
		c-0.197,0.198-0.42,0.387-0.666,0.568c-0.313,0.246-0.773,0.345-1.381,0.295c-0.494-0.032-1.021-0.139-1.58-0.319
		c-0.098-0.033-0.402-0.149-0.912-0.346c-2.072-0.905-3.43-2.031-4.07-3.38c-0.494-0.986-0.806-2.138-0.938-3.454
		c-0.132-1.513,0.049-2.672,0.543-3.478c0.23-0.395,0.6-0.806,1.109-1.233c0.642-0.543,1.719-0.575,3.232-0.099
		c1.25,0.378,2.615,1.02,4.095,1.924c-0.626-0.328-1.251-0.493-1.875-0.493C182.787,143.278,181.702,143.829,180.798,144.931z
		 M161.557,157.537c2.203,3.37,4.061,7.736,5.575,13.098c1.513,5.378,2.253,10.188,2.22,14.432c-0.033,4.259-0.83,6.7-2.393,7.325
		c-1.563,0.626-3.438-0.739-5.625-4.095c-2.187-3.37-4.037-7.746-5.55-13.123c-1.513-5.361-2.253-10.171-2.22-14.43
		c0.032-4.26,0.822-6.702,2.367-7.328C157.494,152.792,159.369,154.166,161.557,157.537z"/>
	<path fill-rule="evenodd" clip-rule="evenodd" fill="#EF8F21" d="M169.266,200.816l0.58,0.222l-5.156-0.653l-4.219-0.938
		l-4.884-1.554c-12.054-1.547-23.789-1.834-35.201-0.863c-2.796,0.131-5.904,0.081-9.325-0.148c-3.454-0.214-6.431-0.56-8.93-1.036
		c-3.898-1.135-7.434-1.94-10.607-2.417c-6.101-0.922-10.706-0.387-13.814,1.604c0.395-1.25,1.735-2.312,4.021-3.183
		c1.53-0.56,3.849-1.134,6.957-1.727c3.305-0.626,5.319-1.045,6.043-1.258c1.579-0.493,2.039-1.103,1.381-1.826
		c-1.859-1.989-4.761-2.434-8.708-1.332c-1.134,0.313-2.705,0.872-4.711,1.678c-1.924,0.773-3.231,1.249-3.922,1.431
		c-3.437,0.921-6.158,1.57-8.165,1.948c-2.647,0.51-5.583,0.617-8.806,0.321c-1.99-0.197-5.155-0.699-9.498-1.505
		c-6.874-1.283-12.481-2.056-16.823-2.318c-6.623-0.41-13.504-0.106-20.647,0.912c-0.893,0.131-1.788,0.27-2.688,0.42
		c-0.543,0.099-0.954,0.148-1.233,0.148c0.131-0.148,0.444-0.347,0.938-0.593c0.955-0.454,1.95-0.873,2.984-1.258
		c4.473-1.682,9.695-2.741,15.664-3.183c7.482-0.56,15.45-0.09,23.904,1.405h0.024c4.424,0.544,7.746,0.503,9.966-0.123
		c0.921-0.247,1.621-0.607,2.097-1.085c0.411-0.46,0.551-0.97,0.419-1.529c-0.132-0.575-0.509-1.135-1.135-1.678
		c-0.625-0.51-1.406-0.945-2.343-1.308c-2.088-0.739-4.325-0.912-6.709-0.518c-8.962,1.728-17.531,1.99-25.704,0.789
		c-2.779-0.41-5.551-0.994-8.313-1.751c-0.066-0.017-1.793-0.551-5.181-1.604c4.786,1.25,9.168,1.735,13.148,1.455
		c1.431-0.099,3.173-0.328,5.23-0.69c3.355-0.56,5.171-0.863,5.452-0.913c7.285-1.282,13.731-1.66,19.339-1.134
		c4.9,0.476,10.886,1.874,17.958,4.192c4.209,1.48,8.115,2.378,11.717,2.689c3.651,0.313,6.768-0.025,9.349-1.012h0.025v-0.024
		c1.76-1.002,2.574-2.072,2.442-3.207c-0.065-0.525-0.353-1.061-0.863-1.604c-0.477-0.493-1.143-0.953-1.998-1.381
		c-1.611-0.789-3.543-1.332-5.797-1.628c-2.352-0.313-4.711-0.328-7.079-0.05c-5.345,0.807-11.569,0.962-18.674,0.469
		c-7.269-0.51-14.241-1.628-20.918-3.354c-1.135-0.329-2.179-0.658-3.133-0.986c0.806,0.099,1.743,0.254,2.812,0.469
		c3.897,0.757,8.009,1.043,12.334,0.863c2.582-0.116,6.348-0.502,11.298-1.159c3.568-0.494,6.274-0.814,8.115-0.963
		c3.059-0.264,5.904-0.337,8.536-0.222c1.907,0.148,4.127,0.624,6.66,1.431c1.612,0.493,3.98,1.356,7.104,2.59
		c4.079,1.596,7.096,2.647,9.054,3.157c3.305,0.889,6.092,1.119,8.362,0.691c0.889-0.181,1.563-0.494,2.023-0.938
		c0.411-0.412,0.625-0.929,0.642-1.555c-0.017-0.608-0.214-1.24-0.593-1.898c-0.427-0.708-0.987-1.349-1.677-1.925
		c-0.74-0.658-1.604-1.241-2.59-1.751c-1.069-0.525-2.171-0.938-3.306-1.233c-2.615-0.658-5.271-0.658-7.967,0
		c-1.563,0.361-3.527,0.477-5.896,0.346c-2.285-0.116-4.752-0.437-7.4-0.962c-4.555-0.905-8.823-2.213-12.803-3.923
		c4.292,1.563,8.388,2.384,12.285,2.467c2.352,0.05,5.575-0.246,9.67-0.888c4.374-0.675,8.468-1.151,12.284-1.432l-0.617-0.739
		c-0.646-0.188-1.303-0.41-1.973-0.666c-2.877-1.086-5.838-1.76-8.881-2.023v-0.246c1.119-0.197,2.648-0.461,4.589-0.79
		c1.381-0.395,2.072-1.076,2.072-2.048c0-1.495-1.463-2.326-4.391-2.491c-3.322,0.133-5.394,0.182-6.217,0.148
		c-1.825-0.065-3.741-0.657-5.747-1.776c-2.187-1.431-3.807-2.482-4.86-3.157h0.247c1.217,0.214,3.067,0.535,5.551,0.962
		c2.154,0.346,3.962,0.519,5.426,0.519c1.842,0,4.153-0.37,6.932-1.11c2.795-0.74,4.884-1.11,6.266-1.11
		c3.354,0,6.282,0.855,8.781,2.565c0.829,0.574,1.865,1.372,3.109,2.394c-0.316,0.14-0.628,0.313-0.938,0.518l-0.691,0.666
		l-0.271,0.42l-0.223,0.468l-0.247,0.986l-0.048,1.037l0.222,1.135l0.395,1.185c0.312,0.674,0.657,1.307,1.035,1.899
		c0.412,0.641,0.922,1.34,1.53,2.097c2.845,3.437,5.287,6.314,7.326,8.633c2.352,2.632,4.383,4.852,6.094,6.66
		c1.743,1.76,3.33,3.33,4.76,4.712l3.256,2.984l6.784,5.478l7.228,4.687l5.697,2.861l3.171,1.196
		c-0.077,0.017-0.155,0.034-0.234,0.05c0.089,0.013,0.181,0.024,0.271,0.037L169.266,200.816z"/>
</g>
</svg>
