<?xml version="1.0" encoding="utf-8"?>
<!-- Generator: Adobe Illustrator 16.0.0, SVG Export Plug-In . SVG Version: 6.00 Build 0)  -->
<!DOCTYPE svg PUBLIC "-//W3C//DTD SVG 1.1//EN" "http://www.w3.org/Graphics/SVG/1.1/DTD/svg11.dtd">
<svg version="1.1" id="Layer_1" xmlns="http://www.w3.org/2000/svg" xmlns:xlink="http://www.w3.org/1999/xlink" x="0px" y="0px"
	 width="300px" height="300px" viewBox="0 0 300 300" enable-background="new 0 0 300 300" xml:space="preserve">
<g>
	<path fill-rule="evenodd" clip-rule="evenodd" fill="#1E1E1E" d="M39.862,145.533c2.352-0.748,4.795-1.467,7.33-2.16h0.033
		l57.1-13.317c0.613-0.608,1.229-1.22,1.849-1.833c1.71-1.707,3.439-3.44,5.186-5.204c2.034-2.061,3.675-3.74,4.925-5.039
		c1.725-1.787,2.701-2.845,2.928-3.174c0.417-0.994,1.387-2.025,2.913-3.092c1.363-0.958,3.162-1.945,5.399-2.961
		c0.83-0.438,3.044-0.863,6.642-1.276c1.85-0.214,4.063-0.427,6.642-0.638c4.404-0.351,9.868-0.695,16.396-1.03h0.229
		c0.72,0,5.147-0.077,13.284-0.23c2.662-0.057,5.297-0.111,7.903-0.164c1.41-0.034,2.811-0.067,4.204-0.097h0.328
		c7.308,0.486,13.182,0.889,17.62,1.21c5.717,0.401,9.06,0.663,10.028,0.786c0.718,0.037,2.01,0.425,3.879,1.161
		c1.434,0.563,3.206,1.332,5.317,2.308c1.919,0.895,3.773,1.778,5.563,2.65l7.951,0.295c0.857,0.044,1.664,0.088,2.422,0.131
		c5.245,0.329,8.2,0.721,8.867,1.178h0.032c0.971,0.351,1.832,1.121,2.585,2.307c0.392,0.614,0.751,1.345,1.08,2.192
		c0.024,0.047,0.046,0.096,0.065,0.147v0.033c0.438,1.156,0.775,2.465,1.015,3.927v0.032c0.153,0.393,1.069,2.225,2.749,5.497
		c2.27,4.429,3.415,7.047,3.436,7.853v0.066c0.327,1.091-0.316,3.555-1.931,7.395c-0.633,1.462-1.266,2.858-1.898,4.188
		l-1.833,4.417l-0.063,0.065c-1.311,2.813-2.455,4.112-3.437,3.895c-0.458,0.174-0.895,0.261-1.309,0.261
		c0,0.764-0.021,1.561-0.065,2.389c-0.24,4.45-1.266,8.214-3.076,11.289c-0.043,0.088-0.099,0.175-0.164,0.263
		c-0.087,0.131-0.163,0.271-0.229,0.425l-0.064,0.099c-0.372,0.522-0.731,1.003-1.081,1.439c-1.396,1.549-2.891,2.378-4.482,2.487
		c-2.072,0.763-5.105,1.156-9.098,1.178c-2.007,0-4.154-0.099-6.445-0.295l-2.814-0.295c-1.287-0.173-2.804-0.108-4.549,0.197
		c-1.745,0.326-3.195,0.785-4.352,1.374l-30.039,15.772c-1.156,0.589-2.083,1.537-2.781,2.847c-0.021,0.043-0.044,0.087-0.065,0.131
		c0.021,1.178,0,2.378-0.065,3.599v0.034c-0.065,0.937-0.153,1.863-0.262,2.78c-0.72,5.978-2.541,11.093-5.465,15.348v0.031
		l-0.032,0.033c-0.044,0.044-0.088,0.099-0.131,0.164l-0.065,0.131c-0.044,0.044-0.088,0.098-0.131,0.164
		c-0.022,0.021-0.044,0.054-0.066,0.098l-1.406,1.734c-1.2,1.33-2.477,2.41-3.829,3.239c-2.29,1.439-4.646,2.083-7.067,1.931
		c-1.157-0.065-2.279-0.306-3.37-0.72c-0.852,0.152-2.574-0.065-5.17-0.655c-0.677,0.109-1.375,0.229-2.095,0.36
		c-7.788,1.309-14.725,0.928-20.812-1.145l-7.166-2.16l-24.869,8.638c-1.222,0.438-2.727,0.688-4.515,0.753
		c-1.768,0.088-3.283-0.032-4.549-0.36l-38.939-9.881c-1.243-0.328-2.694-0.872-4.352-1.637c-1.636-0.764-2.978-1.526-4.025-2.29
		l-21.367-15.478c-1.047-0.764-1.484-1.517-1.309-2.259c0.153-0.742,0.872-1.242,2.16-1.505l15.445-3.469
		c0.785-0.173,1.614-0.437,2.486-0.785l-17.997-11.518l-1.472-2.422l-0.131-0.393c-0.197-0.61-0.393-1.232-0.589-1.865
		c-0.48-1.767-0.895-3.665-1.244-5.693c-1.025-6.283-0.622-10.775,1.211-13.481l0.196-0.296l0.197-0.229
		c2.792-3.402,9.904-7.002,21.335-10.798C37.615,146.245,38.728,145.885,39.862,145.533z M30.373,161.632l7.363,2.028H37.67
		c0.045,0.002,0.089,0.013,0.131,0.033v0.033c0.131,0,0.272,0.021,0.425,0.066l1.014,0.293c0.044,0,0.087,0.012,0.131,0.033h-0.033
		l3.992,1.112l10.503,2.88c1.026,0.196,2.061,0.403,3.108,0.622c5.587,1.049,11.254,2.107,17,3.174c1.3,0.238,2.603,0.478,3.91,0.72
		c0.938,0.175,1.843,0.338,2.716,0.49c1.527,0.284,2.978,0.557,4.352,0.818c0.218,0.043,0.437,0.087,0.654,0.131
		c0.851,0.131,1.669,0.284,2.454,0.459l-0.032-0.034c0.613,0.108,2.696,0.519,6.25,1.228c3.548,0.713,5.565,1.034,6.054,0.966
		l0.033,0.032c0.064,0,0.142,0.011,0.229,0.032c2.116,0.35,3.479,0.558,4.09,0.623c1.07-0.087,2.019,0.262,2.847,1.046
		c0.496,0.475,0.949,1.107,1.358,1.898c0.822,1.606,1.461,3.862,1.914,6.773c0.262,1.789,0.425,3.677,0.491,5.661
		c0.087,1.854,0.065,3.076-0.065,3.664v0.066c0,1.919-1.582,3.042-4.745,3.37l-0.098,0.033l-2.552,0.032l-4.188-0.572
		c-1.298-0.285-5.443-0.857-12.435-1.718l-40.15-5.497l-14.823-8.443c-0.131-0.043-0.251-0.109-0.36-0.196l-11.976-6.806
		l-0.294-0.426c-0.851-1.156-1.56-2.334-2.127-3.534c0.327,1.549,0.698,3.011,1.113,4.385c0.065,0.24,0.141,0.491,0.229,0.753
		l0.851,1.341l22.775,14.595l0.753,2.455l1.701,0.457l0.622,2.813l13.155,3.666l0.817-2.389l4.679,1.308l0.262-1.013l5.137,1.177
		c0.022,0,0.054,0,0.098,0l0.065,0.033c23.211,5.279,36.125,8.039,38.743,8.278l0.262,0.033l1.375,0.131l-0.491,0.033
		c2.792,0.195,9.282-0.786,19.469-2.945c1.396-1.331,2.869-2.814,4.417-4.45c3.098-3.229,5.017-5.573,5.759-7.035
		c2.095-4.167,4.188-7.668,6.283-10.504c4.123-5.65,8.485-9.381,13.089-11.191l1.538-0.589c1.2-0.437,2.257-0.742,3.174-0.916
		c1.178-0.328,2.159-0.546,2.945-0.655c0.894-0.131,1.657-0.142,2.29-0.031c1.658,0.284,2.88,1.624,3.664,4.024
		c0.633,1.942,1.32,5.922,2.063,11.943l50.719-26.406L227,159.08c0-0.176,0-0.35,0-0.524c0.021-0.566,0.076-1.123,0.163-1.668
		l2.39,0.294c-0.065,0.48-0.11,0.97-0.131,1.474v0.032c-0.218,4.035,0.326,7.526,1.636,10.471v0.033
		c1.134,2.552,2.563,3.926,4.286,4.123h0.033c1.221,0.043,2.355-0.524,3.403-1.702c0.284-0.327,0.578-0.698,0.883-1.112
		c0.088-0.197,0.196-0.381,0.327-0.556v-0.034c0.022-0.021,0.044-0.043,0.065-0.065v-0.031l0.033-0.066
		c0.459-0.784,0.862-1.624,1.211-2.52l-0.033,0.065c-0.044,0.066-0.087,0.131-0.131,0.197l-0.016,0.015l-0.083,0.181
		c-1.483,2.443-3.206,3.567-5.17,3.37c-1.94-0.043-3.522-1.374-4.744-3.991c-1.048-2.27-1.483-4.93-1.309-7.984
		c0.131-2.531,0.644-4.724,1.537-6.577c0.197-0.414,0.415-0.818,0.655-1.21c0.479-0.852,1.003-1.528,1.57-2.03
		c0.61-0.588,1.266-0.981,1.964-1.177h0.032c0.501-0.153,1.024-0.208,1.57-0.164c1.941,0.044,3.513,1.374,4.713,3.992v-0.032
		c0.262,0.546,0.49,1.124,0.687,1.734c-0.283-1.636-0.73-3.153-1.342-4.548c-1.004-2.247-2.235-3.6-3.697-4.058l0.589-2.323
		c0.437,0.086,0.862,0.24,1.276,0.458c0.196-0.044,0.382-0.088,0.557-0.131c1.111-0.241,2.071-0.197,2.879,0.131
		c2.356,0.916,3.239,3.883,2.65,8.9c-0.262,2.246,0.196,2.116,1.374-0.393l1.834-4.451c0.632-1.287,1.264-2.662,1.896-4.123
		c1.222-2.901,1.778-4.745,1.669-5.53c-0.108-0.676-1.134-2.934-3.076-6.773c-1.984-3.861-3.01-6.043-3.075-6.545
		c-0.131-0.741-0.306-1.494-0.523-2.257c-0.111-0.381-0.225-0.735-0.344-1.064c-0.389-1.013-0.836-1.76-1.342-2.241
		c-0.191-0.18-0.394-0.321-0.605-0.424c-0.697-0.328-4.014-0.645-9.947-0.95l-3.894-0.164l-4.777-0.196l-0.131-0.066l-2.03-0.982
		c-2.508-1.222-4.723-2.247-6.642-3.076c-1.626-0.705-2.919-1.224-3.878-1.554c-0.708-0.248-1.236-0.396-1.587-0.441l-2.715-0.229
		c-2.969-0.217-7.984-0.567-15.053-1.047l-9.686-0.654c-2.303,0.038-4.632,0.082-6.986,0.131c-1.703,0.029-3.422,0.062-5.153,0.098
		c-8.225,0.175-12.687,0.262-13.384,0.262c-0.72-0.022-2.967,0.087-6.741,0.327c-4.385,0.262-8.322,0.546-11.813,0.851
		c-0.909,0.084-1.754,0.166-2.536,0.246c-4.071,0.431-6.509,0.828-7.313,1.194c-3.708,1.68-5.922,3.185-6.643,4.516
		c-0.092,0.169-0.338,0.479-0.736,0.933c-1.19,1.38-3.759,4.068-7.706,8.065c-0.443,0.447-0.885,0.895-1.326,1.342
		c-2.177,2.185-4.325,4.327-6.446,6.43l-0.016,0.016l-41.459,9.555l-16.525,3.959c-3.687,1.025-7.188,2.083-10.503,3.174
		c-0.089,0.03-0.176,0.056-0.262,0.082c-8.976,3.003-15.051,5.823-18.227,8.459L30.373,161.632z M52.313,171.547
		c-0.627-0.149-0.884-0.154-0.769-0.017l-16.492-5.219l-0.033-0.065c0.003,0.022,0.009,0.045,0.017,0.065
		c0.229,1.638,0.354,2.544,0.376,2.716v-0.033c0.109,0.633,0.164,1.309,0.164,2.029c-0.022,2.116-0.513,3.915-1.473,5.399
		c-0.371,0.633-1.375,1.526-3.01,2.683c3.58,2.14,6.601,3.935,9.064,5.383c0.71,0.401,1.397,0.789,2.062,1.161l6.479,3.567
		l12.86,1.701c1.357,0.162,2.714,0.326,4.073,0.491c5.446,0.667,10.889,1.332,16.329,1.997l1.227,0.229
		c-0.008-0.026-0.013-0.055-0.016-0.082c-0.861-2.775-1.281-5.039-1.26-6.79c0.044-2.901,0.808-5.421,2.291-7.56l1.652-1.782
		l-25.67-3.403L52.313,171.547z M29.523,168.046c-0.044,0.087-0.109,0.186-0.196,0.295c-0.393,0.719-0.6,1.592-0.622,2.618v0.031
		c-0.022,1.004,0.174,1.866,0.589,2.586v0.032c0.066,0.087,0.109,0.175,0.131,0.262c0.065-0.087,0.12-0.175,0.164-0.262l0.032-0.032
		c0.415-0.72,0.622-1.582,0.622-2.586v-0.031c0.021-0.372,0-0.721-0.066-1.049v-0.032c-0.087-0.566-0.25-1.068-0.491-1.505
		l-0.033-0.032C29.588,168.21,29.544,168.111,29.523,168.046z M21.342,165.656c0.011-0.031,0.022-0.063,0.033-0.098v0.033
		C21.364,165.614,21.353,165.636,21.342,165.656z M26.07,163.48l0.017-0.016l-6.119-1.702c-0.123,4.015,0.116,6.567,0.72,7.657
		c0,0.117,0.065,0.379,0.196,0.785c0.354,1.096,1.056,2.177,2.111,3.239c0.148,0.152,0.307,0.305,0.475,0.459
		c-0.066-1.419-0.099-2.421-0.099-3.011C23.393,168.825,24.292,166.354,26.07,163.48z M234.984,159.406
		c0.044-0.807,0.229-1.483,0.557-2.027c0.326-0.546,0.697-0.808,1.112-0.786c0.415,0.044,0.752,0.349,1.014,0.917
		c0.284,0.588,0.403,1.274,0.36,2.062c-0.044,0.806-0.229,1.483-0.556,2.028c-0.328,0.524-0.698,0.773-1.113,0.753
		c-0.436-0.022-0.785-0.327-1.047-0.917C235.05,160.847,234.94,160.17,234.984,159.406z M236.948,151.619h-0.033
		c-0.981,0-1.865,0.655-2.65,1.964c-0.917,1.526-1.44,3.414-1.571,5.66c-0.109,2.247,0.208,4.188,0.949,5.825
		c0.653,1.396,1.473,2.148,2.454,2.258c0.982,0.021,1.865-0.622,2.65-1.931c0.916-1.527,1.439-3.415,1.571-5.661
		c0.109-2.246-0.207-4.188-0.949-5.824C238.714,152.492,237.907,151.728,236.948,151.619z M165.318,176.325
		c-1.134,0.261-2.606,0.687-4.416,1.275c-4.255,1.418-8.313,4.712-12.173,9.882c-1.243,1.637-2.487,3.523-3.73,5.66l2.028,0.427
		c-0.306,1.614-0.513,3.282-0.622,5.007c-0.392,6.348,0.622,11.855,3.044,16.524c1.068,2.05,2.334,3.676,3.795,4.875
		c0.654,0.503,1.342,0.905,2.063,1.211c0.763,0.327,1.57,0.513,2.421,0.557c1.593,0.087,3.142-0.339,4.646-1.276
		c1.025-0.655,1.996-1.496,2.912-2.52l1.112-1.342c0-0.021,0.011-0.044,0.033-0.066c0.087-0.174,0.186-0.315,0.294-0.425
		c0.022-0.021,0.044-0.055,0.066-0.099l-0.034,0.033c1.2-1.745,2.193-3.653,2.979-5.727c-0.502,0.982-1.069,1.931-1.702,2.847
		c-2.684,3.818-5.792,5.585-9.326,5.302c-3.556-0.109-6.446-2.237-8.671-6.382c-1.985-3.643-2.825-7.962-2.519-12.957
		c0.305-4.995,1.668-9.195,4.09-12.598c2.705-3.818,5.825-5.585,9.358-5.301c3.534,0.13,6.413,2.235,8.638,6.314v0.032
		c0.548,1.004,1.005,2.062,1.375,3.175l-0.229-1.931c-0.436-3.425-0.817-6.097-1.146-8.018l-1.733,1.114
		c-0.872-1.332-1.854-2.444-2.945-3.339l-0.031-0.032c-0.241-0.197-0.481-0.36-0.722-0.491L165.318,176.325z M160.607,196.678
		c0.48,0.938,0.688,2.039,0.622,3.304c-0.088,1.266-0.437,2.335-1.049,3.208c-0.588,0.851-1.286,1.254-2.093,1.21
		c-0.785-0.042-1.418-0.534-1.899-1.472c-0.501-0.916-0.719-2.007-0.653-3.272c0.088-1.266,0.437-2.334,1.047-3.206
		c0.589-0.852,1.287-1.266,2.096-1.244C159.462,195.248,160.105,195.739,160.607,196.678z M165.254,191.082
		c-1.222-2.269-2.771-3.49-4.646-3.665c-1.92-0.044-3.622,0.993-5.104,3.108c-1.68,2.399-2.64,5.366-2.88,8.901
		c-0.197,3.532,0.393,6.588,1.767,9.161c1.222,2.291,2.77,3.513,4.646,3.665c1.92,0.065,3.633-0.972,5.137-3.108
		c1.681-2.422,2.63-5.389,2.849-8.899C167.239,196.71,166.649,193.655,165.254,191.082z M105.176,179.989
		c-0.027-0.008-0.054-0.014-0.082-0.017c-1.046-0.27-2.076-0.448-3.092-0.54c0.017,0.045,0.034,0.091,0.049,0.131
		c1.254,3.381,1.871,5.868,1.849,7.461c-0.022,2.748-1.375,5.552-4.057,8.409l6.855,0.917c0.133-0.352,0.253-0.564,0.36-0.638
		c0.435-0.297,0.495-2.318,0.18-6.071c-0.312-3.647-0.972-6.86-1.98-9.636C105.232,180,105.205,179.993,105.176,179.989z
		 M94.181,183.948v0.033c-0.349-0.458-0.763-0.721-1.243-0.785c-0.458,0.044-0.873,0.294-1.244,0.752
		c-0.632,0.785-0.949,1.757-0.949,2.913c-0.022,1.133,0.284,2.116,0.917,2.945c0.327,0.437,0.73,0.687,1.21,0.752
		c0.458-0.065,0.873-0.315,1.244-0.752c0.632-0.808,0.959-1.768,0.981-2.881C95.119,185.77,94.814,184.777,94.181,183.948z"/>
	<path fill-rule="evenodd" clip-rule="evenodd" fill="#4A4A4A" d="M64.666,142.85c-1.461,1.526-2.214,2.923-2.258,4.188
		c-0.021,0.196-0.021,0.392,0,0.588c0.044,0.24,0.109,0.491,0.196,0.753c-2.334,0.851-4.69,1.745-7.068,2.683
		c-9.642,3.73-18.03,7.254-25.164,10.569l-11.224-3.107c3.176-2.637,9.251-5.456,18.227-8.459c0.086-0.025,0.173-0.052,0.262-0.082
		c3.316-1.091,6.816-2.149,10.503-3.174L64.666,142.85z M216.07,124.199c-0.609-0.066-1.221-0.164-1.832-0.296
		c-0.326-0.064-0.654-0.141-0.981-0.229l4.483,8.442l1.31-1.079c0.17-0.563,0.29-1.107,0.358-1.636
		c0.081-0.613,0.092-1.203,0.033-1.768c-0.057-0.431-0.155-0.824-0.294-1.177C218.649,125.19,217.624,124.437,216.07,124.199z
		 M224.514,116.869c0.283,0.327,0.589,0.633,0.916,0.917l1.243,1.276c0.566,0.567,1.124,1.101,1.669,1.603
		c0.284,0.262,0.578,0.524,0.883,0.786c0.154,0.131,0.295,0.25,0.426,0.359c2.775,2.335,4.962,3.578,6.561,3.73
		c0.226,0.021,0.438,0.021,0.639,0c1.548-0.174,3.381-0.774,5.497-1.799c0.044,0,0.076-0.011,0.099-0.033
		c1.068-0.523,2.105-1.101,3.108-1.734c0.218,0.763,0.393,1.516,0.523,2.257c0.065,0.502,1.091,2.684,3.075,6.545
		c1.942,3.839,2.968,6.097,3.076,6.773c0.109,0.785-0.447,2.629-1.669,5.53c-0.633,1.461-1.265,2.836-1.896,4.123l-1.834,4.451
		c-1.178,2.509-1.636,2.639-1.374,0.393c0.589-5.018-0.294-7.984-2.65-8.9c-0.808-0.328-1.768-0.372-2.879-0.131
		c-0.175,0.043-0.36,0.086-0.557,0.131c-0.414-0.218-0.84-0.372-1.276-0.458l-0.589,2.323c1.462,0.458,2.693,1.811,3.697,4.058
		c0.611,1.395,1.059,2.913,1.342,4.548c-0.196-0.61-0.425-1.188-0.687-1.734v0.032c-1.2-2.618-2.771-3.948-4.713-3.992
		c-0.546-0.043-1.069,0.011-1.57,0.164h-0.032c-0.698,0.196-1.354,0.589-1.964,1.177c-0.567,0.502-1.091,1.178-1.57,2.03
		c-0.24,0.392-0.458,0.796-0.655,1.21c-0.894,1.854-1.406,4.046-1.537,6.577c-0.175,3.055,0.261,5.715,1.309,7.984
		c1.222,2.617,2.804,3.948,4.744,3.991c1.964,0.197,3.687-0.927,5.17-3.37l0.083-0.181l0.016-0.015
		c0.044-0.066,0.087-0.131,0.131-0.197l0.033-0.065c-0.349,0.896-0.752,1.735-1.211,2.52l-0.033,0.066v0.031
		c-0.021,0.022-0.043,0.045-0.065,0.065v0.034c-0.131,0.175-0.239,0.358-0.327,0.556c-0.305,0.414-0.599,0.785-0.883,1.112
		c-1.048,1.178-2.183,1.745-3.403,1.702h-0.033c-1.724-0.197-3.152-1.571-4.286-4.123v-0.033c-1.31-2.944-1.854-6.436-1.636-10.471
		v-0.032c0.021-0.504,0.065-0.993,0.131-1.474l-2.39-0.294c-0.087,0.545-0.142,1.102-0.163,1.668c0,0.175,0,0.349,0,0.524
		l-1.996,2.945l-50.719,26.406c-0.742-6.021-1.43-10.001-2.063-11.943c-0.784-2.4-2.006-3.74-3.664-4.024
		c1.135-0.153,2.236-0.317,3.305-0.492c0.109,0.065,0.207,0.132,0.295,0.197c1.09,0.959,1.8,3.534,2.127,7.722
		c0.196,2.399,0.316,3.753,0.359,4.058c0.153,1.199,0.415,1.812,0.786,1.832c0.523,0.088,1.832-0.349,3.926-1.309
		c1.832-0.851,3.49-1.712,4.974-2.585c1.375-1.156,2.368-2.116,2.978-2.879c0.983-1.266,1.921-3.032,2.814-5.301
		c-1.374,0.545-2.596,0.948-3.665,1.211c-2.071,0.522-2.857,0.229-2.355-0.884c0.654-1.484,2.291-2.183,4.908-2.094
		c0.523,0,1.593,0.075,3.207,0.229c1.222,0.152,2.116,0.185,2.683,0.098c1.725-0.218,4.058-1.396,7.003-3.533
		c1.614-1.156,3.73-2.761,6.348-4.811c-0.458,0.306-3.131,1.036-8.017,2.192c-4.713,1.112-7.058,1.69-7.035,1.733
		c-0.174-0.37-0.239-0.752-0.196-1.145c1.548-0.589,2.988-1.211,4.318-1.865c3.36-1.637,6.382-3.306,9.064-5.006
		c0.132-0.044,0.262-0.088,0.394-0.132c2.378-0.677,3.85-1.2,4.417-1.57c-0.72,0.109-1.581,0.176-2.584,0.196
		c1.635-1.178,3.13-2.367,4.481-3.566c2.618-2.356,4.865-5.05,6.741-8.083c0.567-0.916,1.091-2.159,1.57-3.729
		c0.088-0.262,0.164-0.513,0.229-0.753h0.033l0.033-0.032c0.327-0.109,0.644-0.23,0.949-0.36c0.348-0.175,0.654-0.349,0.916-0.524
		c1.069-0.719,1.439-1.406,1.112-2.061c0.044-0.829-0.502-1.276-1.636-1.342c0.392-0.938,0.817-1.712,1.275-2.323
		c0.83-1.069,1.909-1.821,3.24-2.258c0.895-0.305,1.45-0.938,1.668-1.898c0.108-0.567,0.108-1.266,0-2.094
		c-0.018-0.107-0.039-0.217-0.065-0.328c-0.083-0.43-0.197-0.893-0.343-1.391c-0.133-0.457-0.291-0.942-0.475-1.457
		c-0.088-0.218-0.186-0.436-0.295-0.654c-0.146-0.394-0.305-0.787-0.474-1.178c-0.159-0.373-0.328-0.743-0.508-1.113
		c-0.436-0.872-0.905-1.745-1.407-2.618c-0.807-1.375-1.724-2.737-2.749-4.09c-0.131-0.197-0.271-0.393-0.426-0.589L224.514,116.869
		z M107.499,178.418h0.229c0.415,0.415,0.796,0.862,1.146,1.343c0.15,0.201,0.297,0.407,0.441,0.621
		c2.2,3.387,3.013,8.403,2.438,15.052c-0.371,4.537-1.331,9.402-2.879,14.595c-0.043,0.196-0.098,0.392-0.164,0.589l-0.262-0.033
		c-2.618-0.239-15.532-2.999-38.743-8.278l-0.065-0.033c-0.044,0-0.076,0-0.098,0l-5.137-1.177l-0.262,1.013l-4.679-1.308
		l1.244-3.534l-16.853-5.071l1.015,4.515l-1.701-0.457l-0.753-2.455L19.64,179.203l-0.851-1.341
		c-0.087-0.262-0.163-0.513-0.229-0.753c-0.415-1.374-0.786-2.836-1.113-4.385c0.567,1.2,1.276,2.378,2.127,3.534l0.294,0.426
		l11.976,6.806c0.109,0.087,0.229,0.153,0.36,0.196l14.823,8.443l40.15,5.497c6.991,0.86,11.136,1.433,12.435,1.718l4.188,0.572
		l2.552-0.032l0.098-0.033c3.163-0.328,4.745-1.451,4.745-3.37v-0.066c0.131-0.588,0.153-1.811,0.065-3.664
		c-0.065-1.984-0.229-3.872-0.491-5.661c-0.453-2.911-1.092-5.167-1.914-6.773C108.448,179.525,107.995,178.893,107.499,178.418z
		 M43.332,165.231c7.286-4.493,15.063-8.649,23.331-12.467c0.611,0.589,1.09,1.112,1.439,1.57c0.402,0.487,0.718,0.982,0.949,1.489
		c0.417,0.923,0.548,1.877,0.393,2.863c-0.131,0.785-0.098,1.603,0.098,2.454c-2.596,1.461-5.159,2.967-7.689,4.515
		c-1.876,1.135-3.512,2.161-4.909,3.077c-1.047-0.219-2.083-0.426-3.108-0.622L43.332,165.231z M26.07,163.48
		c-1.778,2.874-2.678,5.345-2.7,7.412c0,0.59,0.033,1.592,0.099,3.011c-0.168-0.154-0.327-0.307-0.475-0.459
		c-1.055-1.063-1.757-2.144-2.111-3.239c-0.131-0.406-0.196-0.668-0.196-0.785c-0.604-1.09-0.843-3.643-0.72-7.657l6.119,1.702
		L26.07,163.48z M21.342,165.656c0.011-0.021,0.022-0.042,0.033-0.064v-0.033C21.364,165.594,21.353,165.625,21.342,165.656z
		 M206.646,112.745c0.545-0.021,0.928-0.032,1.146-0.032c0.817,0.014,1.641,0.068,2.471,0.164c0.449,0.053,0.902,0.119,1.358,0.197
		c1.679,0.262,3.075,0.665,4.188,1.21v0.032c1.048,0.436,3.272,2.64,6.675,6.61c0.681,0.802,1.347,1.592,1.996,2.373
		c0.869,1.058,1.708,2.1,2.521,3.125c0.198,0.234,0.301,0.496,0.312,0.785c-0.003,0.065-0.01,0.131-0.017,0.197
		c-0.044,0.349-0.207,0.643-0.491,0.883l-8.605,6.839c-0.088,0.043-0.165,0.087-0.229,0.131c-0.022,0.022-0.044,0.044-0.064,0.065
		l-0.197,0.066c-0.109,0.021-0.207,0.043-0.295,0.065l-10.797,1.669l-0.034,0.032c-0.043,0-0.087,0-0.131,0l-0.261,0.033
		c-0.263,0.48-0.633,0.927-1.113,1.342c-0.938,0.807-2.05,1.254-3.338,1.342c-0.894,0.042-1.854,0.239-2.879,0.588
		c-0.961,0.284-1.691,0.611-2.193,0.981l-5.234,3.861l-1.277-5.563l1.113-0.392c0.349-0.153,0.676-0.306,0.981-0.458
		c-0.72-0.197-1.353-0.546-1.897-1.048c-0.793-0.674-1.271-1.508-1.439-2.502c-0.087-0.479-0.098-0.997-0.034-1.554l1.375-14.235
		c0.131-1.549,0.829-2.923,2.094-4.124h0.034c1.222-1.156,2.65-1.811,4.285-1.963l5.825-0.458
		C204.324,112.876,205.708,112.789,206.646,112.745z M202.623,115.69l-3.47,0.263c0.203,1.57,0.521,3.222,0.949,4.956
		c0.404,1.626,0.905,3.322,1.505,5.089c0.764,2.204,1.561,4.155,2.389,5.857c0.262,0.109,0.513,0.229,0.753,0.359h0.032
		c1.028,0.579,1.645,1.304,1.85,2.176c0.008,0.017,0.012,0.033,0.016,0.049l8.606-1.342l-5.628-10.667
		c-0.363-0.146-0.718-0.305-1.063-0.475c-0.732-0.351-1.425-0.75-2.078-1.194c-1.174-0.779-2.084-1.591-2.732-2.438
		C203.117,117.479,202.742,116.601,202.623,115.69z M174.481,123.085c0.109-1.417,0.556-2.596,1.341-3.534
		c0.808-0.982,2.116-1.821,3.927-2.52l0.884-0.36l-36.354-1.603c0.472,0.293,0.919,0.588,1.341,0.884
		c0.168,0.118,0.332,0.239,0.491,0.359c0.65,0.478,1.228,0.958,1.734,1.44c1.314,1.274,2.035,2.49,2.16,3.648
		c0.066,0.693-0.076,1.363-0.426,2.013c-0.284,0.514-0.623,1.065-1.015,1.653c-0.383,0.59-0.819,1.218-1.309,1.881
		c-1.047,1.418-1.702,2.345-1.964,2.782c-0.38,0.667-0.604,1.293-0.669,1.881c-0.029,0.218-0.035,0.43-0.018,0.638
		c0.088,0.611,0.349,1.265,0.786,1.963l0.917,0.033c0.065,0,0.141,0.012,0.229,0.033l0.589,0.033c0.087,0,0.164,0.011,0.229,0.032
		l28.403,2.127c0.283-0.654,0.359-1.396,0.229-2.225c-0.153-0.855-0.296-1.641-0.426-2.355c-0.047-0.27-0.091-0.527-0.13-0.77
		c-0.252-1.424-0.437-2.509-0.557-3.256C174.547,125.813,174.415,124.22,174.481,123.085z M141.629,113.597
		c0.043,0.021,0.086,0.054,0.13,0.097v-0.065l0.066-1.341l42.342,1.865c1.658,0.066,3.043,0.687,4.155,1.865v0.033
		c1.09,1.2,1.561,2.617,1.407,4.253l-1.374,13.973c-0.036,0.334-0.097,0.655-0.181,0.965c-0.32,1.183-0.99,2.181-2.012,2.994
		l-0.033,0.033c-1.287,1.003-2.748,1.439-4.384,1.309l-20.256-1.506l-15.117-1.146h-0.065c-0.044-0.021-0.077-0.032-0.098-0.032
		h-0.098l-8.377-0.589l-18.586-1.408l-4.827-0.393h-0.081c-0.437-0.043-0.84-0.098-1.211-0.164
		c-1.068-0.253-1.783-0.722-2.143-1.406c-0.076-0.146-0.136-0.299-0.18-0.458h-0.033c-0.588-1.179-0.174-2.466,1.244-3.861
		l13.415-13.252v0.032c1.004-1.025,2.4-1.876,4.189-2.552c1.767-0.655,3.381-0.95,4.843-0.884l7.33,0.328L141.629,113.597z
		 M197.256,136.109v0.033c0.021,0.654-0.143,1.309-0.491,1.964v0.032c-0.043,0.087-0.099,0.186-0.163,0.295
		c0.437-0.197,0.938-0.371,1.505-0.523h-0.033c1.223-0.393,2.379-0.633,3.47-0.721h0.032c0.676-0.021,1.266-0.25,1.768-0.687
		c0.305-0.239,0.512-0.512,0.621-0.818c0.022-0.022,0.032-0.054,0.032-0.098v-0.033c0.044-0.066,0.065-0.13,0.065-0.196v-0.098
		c-0.012-0.076-0.033-0.146-0.065-0.212c-0.087-0.195-0.251-0.364-0.49-0.508h-0.032c-0.678-0.349-1.518-0.469-2.521-0.36
		l-0.229,0.032c-1.068,0.088-1.975,0.382-2.716,0.884c-0.329,0.234-0.553,0.475-0.671,0.72
		C197.295,135.912,197.269,136.01,197.256,136.109z M165.318,176.325l-1.146,1.733c0.24,0.131,0.48,0.294,0.722,0.491l0.031,0.032
		c1.091,0.895,2.073,2.007,2.945,3.339l1.733-1.114c0.328,1.921,0.71,4.593,1.146,8.018l0.229,1.931
		c-0.37-1.113-0.827-2.171-1.375-3.175v-0.032c-2.225-4.079-5.104-6.185-8.638-6.314c-3.533-0.284-6.653,1.482-9.358,5.301
		c-2.421,3.402-3.785,7.603-4.09,12.598c-0.306,4.995,0.534,9.314,2.519,12.957c2.225,4.145,5.116,6.272,8.671,6.382
		c3.534,0.283,6.643-1.483,9.326-5.302c0.633-0.916,1.2-1.864,1.702-2.847c-0.786,2.073-1.779,3.981-2.979,5.727l0.034-0.033
		c-0.022,0.044-0.044,0.077-0.066,0.099c-0.108,0.109-0.207,0.251-0.294,0.425c-0.022,0.022-0.033,0.045-0.033,0.066l-1.112,1.342
		c-0.916,1.023-1.887,1.864-2.912,2.52c-1.505,0.938-3.054,1.363-4.646,1.276c-0.851-0.044-1.658-0.229-2.421-0.557
		c-0.721-0.306-1.408-0.708-2.063-1.211c-1.461-1.199-2.727-2.825-3.795-4.875c-2.422-4.669-3.436-10.177-3.044-16.524
		c0.109-1.725,0.316-3.393,0.622-5.007l-2.028-0.427c1.243-2.137,2.487-4.023,3.73-5.66c3.861-5.17,7.918-8.464,12.173-9.882
		C162.712,177.012,164.185,176.586,165.318,176.325z"/>
	<path fill-rule="evenodd" clip-rule="evenodd" fill="#606060" d="M108.71,210.617c0.065-0.197,0.12-0.393,0.164-0.589
		c1.549-5.192,2.509-10.058,2.879-14.595c0.575-6.648-0.238-11.665-2.438-15.052c-0.144-0.214-0.292-0.42-0.441-0.621
		c-0.349-0.48-0.731-0.928-1.146-1.343h-0.229c-0.829-0.784-1.777-1.133-2.847-1.046c-0.61-0.065-1.974-0.273-4.09-0.623
		c-0.087-0.021-0.164-0.032-0.229-0.032l-0.033-0.032c-0.488,0.068-2.506-0.253-6.054-0.966c-3.553-0.709-5.636-1.119-6.25-1.228
		l0.032,0.034c-0.785-0.175-1.603-0.328-2.454-0.459c-0.218-0.044-0.437-0.088-0.654-0.131c-1.375-0.262-2.825-0.534-4.352-0.818
		c4.965-3.955,10.217-7.625,15.756-11.011c1.1-0.673,2.212-1.332,3.337-1.979c1.559-0.908,3.14-1.791,4.745-2.651
		c9.233-4.945,19.192-9.178,29.875-12.696c0.04-0.009,0.078-0.021,0.114-0.032c6.697-2.205,13.274-3.983,19.731-5.334
		c3.054-0.655,5.509-1.102,7.362-1.342l20.256,1.506c1.636,0.13,3.097-0.306,4.384-1.309l0.033-0.033
		c1.021-0.813,1.691-1.812,2.012-2.994c0.084-0.31,0.145-0.631,0.181-0.965l1.374-13.973c0.153-1.636-0.317-3.054-1.407-4.253
		v-0.033c-1.112-1.178-2.497-1.799-4.155-1.865l-42.342-1.865l-0.066,1.341l-0.13-0.032l0.065-1.309l-7.33-0.328
		c-1.462-0.065-3.076,0.229-4.843,0.884c-1.789,0.675-3.185,1.526-4.189,2.552v-0.032l-13.415,13.252
		c-1.418,1.395-1.833,2.682-1.244,3.861h0.033c0.044,0.159,0.104,0.312,0.18,0.458c0.36,0.684,1.075,1.153,2.143,1.406
		c-6.615,1.078-13.683,2.633-21.204,4.664c-2.86,0.763-5.783,1.598-8.77,2.502c-6.506,1.966-13.323,4.257-20.451,6.872
		c-0.087-0.262-0.152-0.513-0.196-0.753c-0.021-0.196-0.021-0.393,0-0.588c0.044-1.265,0.796-2.662,2.258-4.188l41.459-9.555
		l0.016-0.016c2.121-2.103,4.27-4.246,6.446-6.43c0.44-0.447,0.882-0.895,1.326-1.342c3.947-3.997,6.516-6.685,7.706-8.065
		c0.398-0.454,0.644-0.764,0.736-0.933c0.72-1.331,2.935-2.836,6.643-4.516c0.804-0.366,3.242-0.763,7.313-1.194
		c0.782-0.08,1.626-0.161,2.536-0.246c17.788,0.228,29.59,0.528,35.405,0.9c1.981,0.128,3.269,0.264,3.86,0.408
		c0.638,0.148,1.51,0.262,2.618,0.344c2.653,0.202,6.656,0.218,12.01,0.049c7.876-0.284,12.849-0.839,14.922-1.669l2.715,0.229
		c0.351,0.045,0.879,0.193,1.587,0.441c0.959,0.331,2.252,0.849,3.878,1.554c1.919,0.829,4.134,1.854,6.642,3.076
		c0.154,0.196,0.295,0.393,0.426,0.589c1.025,1.353,1.942,2.715,2.749,4.09c0.502,0.873,0.972,1.746,1.407,2.618
		c0.18,0.37,0.349,0.74,0.508,1.113c0.169,0.391,0.327,0.784,0.474,1.178c0.109,0.218,0.207,0.436,0.295,0.654
		c0.184,0.515,0.342,1,0.475,1.457c0.146,0.498,0.26,0.961,0.343,1.391c0.026,0.111,0.048,0.22,0.065,0.328
		c0.108,0.828,0.108,1.526,0,2.094c-0.218,0.96-0.773,1.593-1.668,1.898c-1.331,0.437-2.41,1.189-3.24,2.258
		c-0.458,0.611-0.884,1.386-1.275,2.323c-0.132,0-0.263,0-0.393,0c-0.022,0-0.045,0-0.065,0c-0.022,0-0.044,0-0.065,0h-0.066
		c-0.566,0.022-1.188,0.152-1.864,0.393h-0.033c-0.742,0.262-1.353,0.556-1.832,0.883l-0.033,0.034
		c-1.024,0.719-1.406,1.374-1.146,1.963c-0.109,0.96,0.579,1.439,2.063,1.439h0.065c0.545-0.021,1.199-0.152,1.962-0.393
		c-0.064,0.241-0.141,0.492-0.229,0.753c-0.479,1.57-1.003,2.813-1.57,3.729c-1.876,3.033-4.123,5.727-6.741,8.083
		c-1.352,1.199-2.847,2.389-4.481,3.566c-0.742,0-1.55-0.011-2.422-0.032c-2.357-0.132-4.135-0.207-5.334-0.229
		c-4.341-0.109-7.602,0.568-9.784,2.028c-1.135,0.765-2.279,1.746-3.436,2.945c-1.2,1.353-2.095,2.346-2.684,2.979
		c-1.047,1.068-2.084,1.887-3.108,2.454c-1.288,0.72-2.792,1.167-4.516,1.342c2.945-3.774,6.184-7.068,9.719-9.884
		c4.908-3.86,9.216-5.692,12.926-5.496c0.086-0.088-2.618-0.535-8.116-1.342c-1.876-0.087-3.686,0.567-5.433,1.963
		c-0.436,0.35-1.145,0.993-2.125,1.931c-0.896,0.852-1.627,1.484-2.194,1.898c-0.719,0.522-1.951,1.046-3.696,1.57
		c-0.786,0.262-2.487,0.72-5.105,1.374c-4.603,1.135-7.362,2.214-8.278,3.24c-1.527,1.701-2.235,2.978-2.126,3.828
		c0.108,0.699,0.796,1.2,2.061,1.505c0.764,0.176,2.063,0.382,3.894,0.622c1.374,0.218,2.379,0.534,3.011,0.948
		c-1.068,0.175-2.17,0.339-3.305,0.492c-0.633-0.11-1.396-0.1-2.29,0.031c-0.786,0.109-1.768,0.327-2.945,0.655
		c-0.917,0.174-1.974,0.479-3.174,0.916l-1.538,0.589c-4.604,1.811-8.966,5.541-13.089,11.191
		c-2.095,2.836-4.188,6.337-6.283,10.504c-0.742,1.462-2.661,3.807-5.759,7.035c-1.549,1.636-3.021,3.119-4.417,4.45
		c-10.188,2.159-16.677,3.141-19.469,2.945l0.491-0.033L108.71,210.617z M119.148,134.898l18.586,1.408
		c-1.065,0.124-2.14,0.266-3.224,0.426c-1.084,0.283-2.126,0.446-3.125,0.49c-15.238,2.653-32.024,8.587-50.359,17.801
		c-1.015,0.511-2.023,1.022-3.026,1.538c-0.206,0.1-0.408,0.203-0.606,0.311c-2.652,1.391-5.269,2.813-7.853,4.271
		c-0.196-0.852-0.229-1.669-0.098-2.454c0.155-0.986,0.024-1.94-0.393-2.863c-0.23-0.507-0.546-1.002-0.949-1.489
		c-0.349-0.458-0.829-0.981-1.439-1.57c3.445-1.589,6.974-3.116,10.585-4.581c5.452-2.222,11.096-4.305,16.934-6.251
		c0.391-0.131,0.783-0.262,1.178-0.392c5.378-1.774,10.636-3.34,15.772-4.695c0.985-0.267,1.967-0.522,2.945-0.77
		C116.04,135.596,117.73,135.203,119.148,134.898z M206.646,112.745c-0.938,0.044-2.322,0.131-4.155,0.262l-5.825,0.458
		c-1.635,0.152-3.063,0.807-4.285,1.963h-0.034c-1.265,1.201-1.963,2.575-2.094,4.124l-1.375,14.235
		c-0.063,0.557-0.053,1.074,0.034,1.554c0.168,0.994,0.646,1.829,1.439,2.502c0.545,0.502,1.178,0.852,1.897,1.048
		c-0.306,0.152-0.633,0.305-0.981,0.458l-1.113,0.392l1.277,5.563l5.234-3.861c0.502-0.371,1.232-0.698,2.193-0.981
		c1.025-0.349,1.985-0.546,2.879-0.588c1.288-0.088,2.399-0.535,3.338-1.342c0.48-0.415,0.851-0.862,1.113-1.342l0.261-0.033
		c0.044,0,0.088,0,0.131,0l0.034-0.032l10.797-1.669c0.088-0.022,0.186-0.044,0.295-0.065l0.197-0.066
		c0.021-0.021,0.042-0.043,0.064-0.065c0.064-0.043,0.142-0.087,0.229-0.131l8.605-6.839c0.284-0.24,0.447-0.534,0.491-0.883
		c0.007-0.065,0.014-0.131,0.017-0.197c-0.011-0.29-0.113-0.551-0.312-0.785c-0.813-1.025-1.651-2.067-2.521-3.125
		c-0.649-0.781-1.315-1.571-1.996-2.373c-3.402-3.97-5.627-6.174-6.675-6.61v-0.032c-1.112-0.546-2.509-0.949-4.188-1.21
		c-0.456-0.078-0.909-0.144-1.358-0.197c-0.83-0.095-1.653-0.15-2.471-0.164C207.574,112.713,207.191,112.724,206.646,112.745z
		 M193.002,166.704c0.152-1.811,2.542-3.49,7.166-5.039c0.981-0.327,3.054-0.938,6.217-1.832c-2.683,1.7-5.704,3.369-9.064,5.006
		C195.99,165.493,194.55,166.115,193.002,166.704z"/>
	<path fill-rule="evenodd" clip-rule="evenodd" fill="#F47421" d="M248.498,119.535c-0.329-0.847-0.688-1.578-1.08-2.192
		c1.162-0.395,2.176-0.684,3.044-0.867c4.145-0.83,7.863-0.328,11.158,1.505C256.606,117.772,252.232,118.291,248.498,119.535z
		 M245.21,120.909c-0.806,0.427-1.739,0.968-2.799,1.621c-0.718,0.458-1.81,1.124-3.271,1.996c-0.888,0.552-1.863,0.889-2.929,1.014
		c-1.599-0.152-3.785-1.395-6.561-3.73c-0.131-0.109-0.271-0.229-0.426-0.359c-0.305-0.262-0.599-0.524-0.883-0.786
		c-0.545-0.502-1.103-1.036-1.669-1.603l-1.243-1.276c-0.327-0.284-0.633-0.589-0.916-0.917l0.131,0.066l4.777,0.196
		c-0.023,0.531,0.141,1.12,0.49,1.767c0.981,1.811,2.574,2.727,4.777,2.748c1.593,0.044,3.37-0.393,5.334-1.309
		c1.384-0.625,2.666-1.181,3.845-1.668C244.374,119.148,244.821,119.896,245.21,120.909z M216.07,124.199
		c1.554,0.238,2.579,0.991,3.077,2.258c0.139,0.353,0.237,0.746,0.294,1.177c0.059,0.565,0.048,1.154-0.033,1.768
		c-0.068,0.529-0.188,1.073-0.358,1.636l-1.31,1.079l-4.483-8.442c0.327,0.087,0.655,0.164,0.981,0.229
		C214.85,124.035,215.461,124.133,216.07,124.199z M235.934,113.858c-0.758-0.042-1.564-0.086-2.422-0.131l-7.951-0.295
		c-1.789-0.872-3.644-1.755-5.563-2.65c-2.111-0.976-3.884-1.744-5.317-2.308c0.29-0.308,0.578-0.619,0.866-0.932
		c-4.752-1.145-9.676-1.483-14.773-1.015c-4.438-0.321-10.313-0.724-17.62-1.21h-0.328c-1.394,0.03-2.794,0.063-4.204,0.097
		c1.653-2.104,3.218-3.859,4.695-5.268c2.356-2.204,5.039-3.763,8.05-4.68c2.509-0.785,5.606-1.199,9.292-1.243
		c2.661-0.066,5.422-0.982,8.279-2.749c2.531-1.527,4.756-3.468,6.676-5.825c-0.24,1.68-1.189,3.359-2.847,5.04
		c-0.896,0.96-2.346,2.181-4.353,3.665c-1.396,1.025-3.282,1.919-5.661,2.683c-3.512,1.156-5.497,1.833-5.955,2.029
		c-1.222,0.524-2.116,1.287-2.684,2.291c-0.72,1.222-0.175,2.018,1.637,2.389c1.963,0.392,3.959,0.218,5.987-0.523
		c1.658-0.589,3.37-1.604,5.138-3.043c1.505-1.221,3.119-3,4.843-5.333c1.897-2.728,3.327-4.734,4.287-6.021
		c1.701-2.269,3.326-3.971,4.875-5.104c2.007-1.484,4.211-2.334,6.61-2.553c5.192-0.676,9.228-1.549,12.107-2.618
		c4.297-1.614,7.581-4.047,9.849-7.297c-1.396,4.21-4.832,7.592-10.308,10.143c-2.836,1.332-7.504,2.804-14.005,4.418
		c-1.222,0.306-2.116,0.655-2.684,1.048c-1.024,0.676-1.396,1.548-1.112,2.618c0.175,0.763,1.058,1.242,2.651,1.439
		c0.763,0.087,1.843,0.119,3.238,0.098c4.146-0.131,7.875-2.007,11.191-5.628c2.923-3.207,5.476-5.519,7.657-6.937
		c2.901-1.876,6.141-2.923,9.719-3.141c5.213-0.327,9.751-1.091,13.612-2.291c4.668-1.44,8.726-3.599,12.173-6.479
		c-1.331,2.901-3.905,5.421-7.724,7.559c-2.835,1.614-6.194,2.934-10.077,3.959c-0.59,0.131-1.986,0.284-4.189,0.458
		c-2.421,0.196-4.265,0.437-5.53,0.719c-4.493,0.873-6.38,2.749-5.66,5.629c0.35,1.396,1.69,2.072,4.024,2.029
		c1.155-0.022,2.737-0.273,4.745-0.753c1.309-0.327,2.606-0.981,3.893-1.963c1.419-1.221,2.554-2.159,3.405-2.814
		c3.184-2.487,6.794-4.319,10.83-5.497c4.669-1.309,8.748-1.364,12.238-0.164c-4.342,0.043-8.454,0.971-12.336,2.782
		c-1.571,0.698-3.382,1.865-5.433,3.501c-3.075,2.4-4.799,3.73-5.17,3.992c-3.948,2.727-8.115,4.527-12.501,5.399
		c-1.417,0.284-3.686,0.393-6.805,0.327c-2.989-0.108-5.246,0.033-6.774,0.425c-2.05,0.524-3.675,1.255-4.875,2.192
		c-1.832,1.418-1.821,2.945,0.033,4.582c1.417,1.265,3.337,1.516,5.758,0.752c0.896-0.262,2.685-1.113,5.367-2.553
		c2.705-1.417,4.69-2.41,5.956-2.978c2.29-1.003,4.405-1.69,6.348-2.061c4.145-0.807,9.021-0.622,14.626,0.556
		c-1.134,0.241-4.046,0.35-8.736,0.328c-3.141,0.24-5.65,0.872-7.526,1.898c-0.696,0.371-1.516,0.992-2.454,1.864
		c-1.178,1.025-1.963,1.68-2.354,1.963c-2.466,1.745-4.789,3.109-6.971,4.09c-2.989,1.309-5.585,1.843-7.788,1.604
		c-0.697-0.066-1.876-0.262-3.534-0.589c-1.44-0.283-2.563-0.447-3.371-0.491c-2.508-0.153-4.624,0.557-6.347,2.126
		c-0.678,0.612-1.016,1.332-1.016,2.16c0,0.851,0.328,1.647,0.982,2.389c0.829,0.938,1.996,1.472,3.502,1.604
		c1.111,0.087,2.355-0.054,3.729-0.426c4.733-1.287,8.879-3.163,12.435-5.628c3.011-2.051,5.355-3.49,7.035-4.32
		c2.509-1.264,5.148-2.071,7.919-2.42c1.266-0.131,3.152-0.164,5.66-0.099c2.531,0.087,4.43,0.043,5.694-0.131
		c2.728-0.327,5.466-0.959,8.213-1.897c2.683-0.917,5.246-2.083,7.69-3.501c-1.746,2.618-4.582,4.712-8.508,6.283
		c-2.269,0.894-5.694,1.821-10.274,2.781c-0.808,0.175-2.913,0.437-6.315,0.785c-2.684,0.306-4.745,0.742-6.185,1.309
		c-1.375,0.589-1.898,1.506-1.571,2.749c0.328,1.222,1.199,2.018,2.618,2.389c2.53,0.676,5.563,0.316,9.096-1.081
		c1.44-0.567,4.232-1.963,8.377-4.188c2.008-1.157,3.502-1.976,4.483-2.455c1.724-0.873,3.338-1.494,4.843-1.865
		c2.291-0.502,4.636-0.786,7.035-0.851c2.51-0.065,4.897,0.142,7.166,0.622c-4.624-0.021-9.773,1.582-15.444,4.811
		c-1.549,0.872-3.883,2.226-7.003,4.058c-2.748,1.592-5.225,2.77-7.428,3.534c-4.864,1.723-9.893,2.574-15.085,2.552
		c-1.243,0-3.522-0.185-6.839-0.556c-2.857-0.306-5.126-0.382-6.806-0.23C236.408,113.815,236.169,113.837,235.934,113.858z
		 M140.81,106.839c-2.579,0.211-4.792,0.424-6.642,0.638c1.395-1.458,2.497-2.583,3.305-3.371c3.36-3.163,7.275-5.627,11.747-7.395
		c5.127-2.028,9.751-2.541,13.874-1.538c-4.93,0.502-9.512,1.996-13.743,4.483c-1.68,0.96-3.6,2.476-5.759,4.548
		C142.505,105.24,141.578,106.118,140.81,106.839z M116.285,117.981c-3.093,0.229-5.455,0.634-7.084,1.21
		c-2.269,0.786-4.024,1.79-5.268,3.011c-1.92,1.81-1.735,3.544,0.556,5.203c0.519,0.38,1.081,0.653,1.686,0.818
		c-0.62,0.613-1.236,1.224-1.849,1.833l-57.1,13.317h-0.033c-2.535,0.693-4.978,1.412-7.33,2.16
		c2.658-4.71,5.188-8.452,7.592-11.224c2.443-2.749,5.323-4.811,8.639-6.185c2.771-1.156,6.239-1.974,10.406-2.454
		c3.01-0.37,6.042-1.689,9.097-3.959c2.705-2.073,5.006-4.538,6.904-7.396c-0.087,1.92-0.971,3.949-2.65,6.086
		c-0.916,1.157-2.443,2.683-4.582,4.581c-1.461,1.331-3.49,2.564-6.085,3.698c-3.862,1.68-6.043,2.662-6.545,2.945
		c-1.309,0.72-2.236,1.68-2.781,2.879c-0.676,1.462,0.022,2.301,2.094,2.519c2.269,0.241,4.516-0.174,6.741-1.243
		c1.811-0.873,3.643-2.214,5.497-4.025c1.57-1.548,3.218-3.741,4.941-6.576c1.833-3.294,3.229-5.727,4.189-7.297
		c1.679-2.748,3.337-4.864,4.973-6.348c2.094-1.898,4.505-3.098,7.232-3.6c5.824-1.33,10.296-2.771,13.416-4.32
		c4.734-2.29,8.202-5.398,10.406-9.326c-1.113,4.931-4.636,9.152-10.569,12.664c-3.076,1.811-8.213,3.981-15.412,6.512
		c-1.353,0.479-2.345,0.97-2.978,1.472c-1.068,0.873-1.385,1.909-0.949,3.108c0.284,0.83,1.342,1.265,3.174,1.309
		c0.873,0.044,2.105-0.021,3.698-0.196c4.69-0.633,8.705-3.174,12.042-7.624c2.967-3.971,5.617-6.872,7.952-8.705
		c3.097-2.465,6.653-4.013,10.667-4.646c5.89-0.938,10.973-2.291,15.249-4.058c5.126-2.181,9.49-5.083,13.089-8.704
		c-1.179,3.425-3.818,6.565-7.919,9.424c-3.054,2.115-6.73,3.97-11.027,5.563c-0.633,0.239-2.204,0.578-4.712,1.014
		c-2.727,0.48-4.789,0.949-6.184,1.407c-4.996,1.506-6.927,3.851-5.792,7.036c0.36,1.022,1.178,1.639,2.454,1.849
		c-1.526,1.067-2.496,2.099-2.913,3.092C118.986,115.136,118.01,116.194,116.285,117.981z M44.869,196.71l-1.015-4.515l16.853,5.071
		l-1.244,3.534l-0.817,2.389l-13.155-3.666L44.869,196.71z M137.735,136.306l8.377,0.589h0.098c0.021,0,0.054,0.011,0.098,0.032
		h0.065l15.117,1.146c-1.854,0.24-4.309,0.687-7.362,1.342c-6.457,1.351-13.034,3.129-19.731,5.334
		c-0.036,0.011-0.075,0.023-0.114,0.032c-10.684,3.518-20.643,7.751-29.875,12.696c-1.604,0.86-3.186,1.743-4.745,2.651
		c-1.125,0.646-2.237,1.306-3.337,1.979c-5.539,3.386-10.791,7.056-15.756,11.011c-0.873-0.152-1.778-0.315-2.716-0.49
		c-1.307-0.242-2.61-0.481-3.91-0.72c-5.746-1.066-11.412-2.125-17-3.174c1.396-0.916,3.032-1.942,4.909-3.077
		c2.53-1.548,5.094-3.054,7.689-4.515c2.584-1.458,5.201-2.88,7.853-4.271c0.198-0.107,0.4-0.211,0.606-0.311
		c1.003-0.516,2.012-1.027,3.026-1.538c18.335-9.214,35.121-15.148,50.359-17.801c0.999-0.043,2.041-0.207,3.125-0.49
		C135.595,136.571,136.669,136.429,137.735,136.306z M113.029,134.341c0.371,0.066,0.774,0.121,1.211,0.164h0.081l4.827,0.393
		c-1.418,0.305-3.109,0.698-5.072,1.178c-0.979,0.247-1.96,0.503-2.945,0.77c-5.136,1.355-10.394,2.921-15.772,4.695
		c-0.396,0.13-0.788,0.261-1.178,0.392c-5.837,1.946-11.482,4.029-16.934,6.251c-3.612,1.464-7.141,2.992-10.585,4.581
		c-8.268,3.817-16.045,7.974-23.331,12.467l-3.992-1.112h0.033c-0.044-0.021-0.087-0.033-0.131-0.033l-1.014-0.293
		c-0.153-0.045-0.294-0.066-0.425-0.066v-0.033c-0.042-0.021-0.085-0.031-0.131-0.033h0.065l-7.363-2.028
		c7.134-3.315,15.521-6.839,25.164-10.569c2.378-0.938,4.733-1.832,7.068-2.683c7.128-2.615,13.945-4.906,20.451-6.872
		c2.987-0.905,5.91-1.739,8.77-2.502C99.346,136.974,106.414,135.419,113.029,134.341z M29.523,168.046
		c0.021,0.065,0.065,0.164,0.13,0.295l0.033,0.032c0.24,0.437,0.404,0.938,0.491,1.505v0.032c0.066,0.328,0.087,0.677,0.066,1.049
		v0.031c0,1.004-0.208,1.866-0.622,2.586l-0.032,0.032c-0.044,0.087-0.099,0.175-0.164,0.262c-0.022-0.087-0.065-0.175-0.131-0.262
		v-0.032c-0.415-0.72-0.611-1.582-0.589-2.586v-0.031c0.022-1.026,0.229-1.899,0.622-2.618
		C29.414,168.231,29.479,168.133,29.523,168.046z M56.878,197.561l-0.033-0.099l-0.098,0.099c-0.066,0.109-0.12,0.229-0.164,0.36
		l-0.393,1.668v0.197l0.099,0.459l0.163,0.229l0.229,0.163c0.087,0.044,0.186,0.087,0.295,0.132c0.13,0.021,0.239,0.032,0.327,0.032
		l0.262-0.032l0.229-0.1l0.294-0.294l0.033-0.065h0.033l0.458-2.095v-0.229l-0.066-0.065l-0.098,0.131
		c-0.065,0.065-0.12,0.197-0.164,0.394l-0.393,1.439l-0.164,0.326l-0.131,0.132l-0.164,0.065h-0.164l-0.229-0.033l-0.196-0.065
		l-0.13-0.099l-0.099-0.13l-0.065-0.262v-0.066h-0.032l0.359-1.668V197.561z M54.293,196.973l-0.065-0.099l-0.229-0.099
		c-0.065-0.044-0.174-0.087-0.328-0.131l-0.359-0.131c-0.087-0.021-0.218-0.043-0.393-0.064l-0.327-0.066h-0.229l-0.098,0.066v0.064
		l0.098,0.065l0.262,0.131l0.164,0.131c0.044,0.132,0.066,0.241,0.066,0.327c0.022,0.132,0.022,0.273,0,0.426l-0.066,0.523
		c-0.043,0.109-0.087,0.272-0.13,0.49c0,0.088-0.011,0.229-0.033,0.426l-0.032,0.295l0.065,0.099l0.065-0.066l0.131-0.261
		l0.262-0.885c0.022-0.174,0.065-0.338,0.13-0.49c0.022-0.087,0.088-0.218,0.197-0.393c0.044-0.109,0.109-0.186,0.196-0.229
		l0.164-0.1l0.164,0.033h0.262L54.293,196.973z M55.209,198.085l0.033,0.032l0.033,0.098v0.066l-0.033,0.131l-0.098,0.229
		l-0.099,0.164l-0.163,0.131h-0.164l-0.131-0.065v-0.164l0.066-0.196l0.196-0.229l0.261-0.196H55.209z M55.732,197.332l-0.032-0.099
		l-0.098,0.033l-1.538,1.505l-0.098,0.132l0.032,0.065l0.131,0.097l0.557,0.229l0.164,0.132l0.098,0.131v0.424l0.032,0.066
		l0.065,0.065l0.033-0.032l0.066-0.033l0.098-0.098l0.066-0.264l0.131-0.163h0.164l0.13-0.065v-0.195l-0.13-0.065l-0.033-0.098
		l-0.033-0.196l0.196-1.375V197.332z M50.269,196.023l-0.262,0.49v0.327l0.13,0.263l0.065,0.098l0.851,0.523l0.131,0.131
		l0.033,0.099v0.295l-0.033,0.13l-0.098,0.099l-0.13,0.099l-0.099,0.031h-0.098l-0.262-0.031l-0.328-0.164l-0.098-0.131
		l-0.099-0.229v-0.065l-0.065-0.229l-0.098-0.099l-0.132-0.032l-0.032,0.196v0.229l0.032,0.197l0.197,0.327l0.131,0.13l0.392,0.197
		l0.197,0.032h0.328l0.196-0.065l0.262-0.196l0.098-0.196l0.065-0.196l0.033-0.196v-0.164l-0.033-0.163l-0.131-0.197l-0.032-0.032
		v-0.032l-0.917-0.557l-0.131-0.229v-0.098l0.131-0.327l0.098-0.066l0.164-0.064l0.261,0.032l0.164,0.066l0.098,0.064l0.131,0.132
		l0.065,0.098l0.033,0.229l0.065,0.099l0.098,0.065l0.131,0.064l0.033-0.229l-0.065-0.393l-0.196-0.262l-0.131-0.131l-0.327-0.131
		l-0.196-0.032h-0.196l-0.164,0.032l-0.131,0.065L50.269,196.023z M48.861,195.729l0.753,0.131l0.164-0.032l0.065-0.066
		l-0.065-0.065l-0.164-0.098l-0.589-0.229c-0.109-0.021-0.218-0.011-0.327,0.034c-0.109,0.043-0.218,0.13-0.327,0.261
		c-0.109,0.109-0.208,0.239-0.294,0.393c-0.065,0.152-0.131,0.327-0.197,0.523l-0.098,0.557c-0.021,0.109-0.043,0.262-0.065,0.458
		c0,0.087,0,0.196,0,0.327l0.033,0.131l0.065-0.065l0.065-0.099l0.099-0.196l0.163-0.49l0.197-0.164l0.196-0.098l0.458,0.064h0.328
		l0.097-0.031l-0.065-0.099l-0.099-0.099l-0.163-0.098l-0.458-0.164l-0.164-0.131l-0.098-0.164v-0.195l0.098-0.132l0.164-0.131
		L48.861,195.729z M47.029,194.91l-0.229-0.032l-0.196,0.032l-0.164,0.099l-0.262,0.261l-0.033,0.328l0.098,0.098l0.099,0.065
		l0.098-0.327l0.033-0.065l0.098-0.099l0.131-0.064h0.262l0.098,0.032l0.065,0.066l0.098,0.13l0.065,0.229v0.098l-0.033,0.197
		l-0.196,0.261l-0.065,0.034l-0.785,0.294l-0.262,0.195l-0.098,0.099l-0.065,0.132l-0.164,0.458l1.08,0.294l0.36,0.033l0.131-0.033
		l-0.098-0.098l-0.654-0.295c-0.197-0.065-0.35-0.109-0.458-0.131l0.131-0.197l0.065-0.064l0.164-0.099l0.851-0.327l0.295-0.261
		l0.065-0.132l0.098-0.36v-0.13l-0.163-0.459l-0.295-0.195L47.029,194.91z M202.623,115.69c0.119,0.911,0.494,1.789,1.128,2.635
		c0.648,0.847,1.559,1.659,2.732,2.438c0.653,0.444,1.346,0.843,2.078,1.194c0.346,0.169,0.7,0.328,1.063,0.475l5.628,10.667
		l-8.606,1.342c-0.004-0.016-0.008-0.033-0.016-0.049c-0.205-0.872-0.821-1.598-1.85-2.176h-0.032
		c-0.24-0.131-0.491-0.25-0.753-0.359c-0.828-1.703-1.625-3.654-2.389-5.857c-0.6-1.768-1.101-3.463-1.505-5.089
		c-0.429-1.734-0.746-3.386-0.949-4.956L202.623,115.69z M206.385,159.833c-3.163,0.894-5.235,1.505-6.217,1.832
		c-4.624,1.549-7.014,3.229-7.166,5.039c-0.043,0.393,0.022,0.774,0.196,1.145c-0.022-0.043,2.322-0.621,7.035-1.733
		c4.886-1.156,7.559-1.887,8.017-2.192c-2.617,2.05-4.733,3.654-6.348,4.811c-2.945,2.138-5.278,3.315-7.003,3.533
		c-0.566,0.087-1.461,0.055-2.683-0.098c-1.614-0.153-2.684-0.229-3.207-0.229c-2.617-0.089-4.254,0.609-4.908,2.094
		c-0.502,1.112,0.284,1.406,2.355,0.884c1.069-0.263,2.291-0.666,3.665-1.211c-0.894,2.269-1.831,4.035-2.814,5.301
		c-0.609,0.763-1.603,1.723-2.978,2.879c-1.483,0.873-3.142,1.734-4.974,2.585c-2.094,0.96-3.402,1.396-3.926,1.309
		c-0.371-0.021-0.633-0.633-0.786-1.832c-0.043-0.305-0.163-1.658-0.359-4.058c-0.327-4.188-1.037-6.763-2.127-7.722
		c-0.088-0.065-0.186-0.132-0.295-0.197c-0.632-0.414-1.637-0.73-3.011-0.948c-1.831-0.24-3.13-0.446-3.894-0.622
		c-1.265-0.305-1.952-0.806-2.061-1.505c-0.109-0.851,0.599-2.127,2.126-3.828c0.916-1.026,3.676-2.105,8.278-3.24
		c2.618-0.654,4.319-1.112,5.105-1.374c1.745-0.524,2.978-1.048,3.696-1.57c0.567-0.414,1.298-1.047,2.194-1.898
		c0.98-0.938,1.689-1.581,2.125-1.931c1.747-1.396,3.557-2.05,5.433-1.963c5.498,0.807,8.202,1.254,8.116,1.342
		c-3.71-0.196-8.018,1.636-12.926,5.496c-3.535,2.815-6.773,6.109-9.719,9.884c1.724-0.175,3.228-0.622,4.516-1.342
		c1.024-0.567,2.062-1.386,3.108-2.454c0.589-0.633,1.483-1.626,2.684-2.979c1.156-1.199,2.301-2.181,3.436-2.945
		c2.183-1.46,5.443-2.138,9.784-2.028c1.199,0.022,2.977,0.098,5.334,0.229c0.872,0.021,1.68,0.032,2.422,0.032
		c1.003-0.021,1.864-0.087,2.584-0.196c-0.567,0.37-2.039,0.894-4.417,1.57C206.646,159.745,206.517,159.789,206.385,159.833z
		 M174.481,123.085c-0.066,1.134,0.065,2.727,0.393,4.777c0.12,0.747,0.305,1.832,0.557,3.256c0.039,0.243,0.083,0.5,0.13,0.77
		c0.13,0.715,0.272,1.5,0.426,2.355c0.131,0.83,0.055,1.571-0.229,2.225l-28.403-2.127c-0.065-0.021-0.142-0.032-0.229-0.032
		l-0.589-0.033c-0.088-0.021-0.164-0.033-0.229-0.033l-0.917-0.033c-0.437-0.698-0.698-1.352-0.786-1.963
		c-0.017-0.208-0.012-0.42,0.018-0.638c0.066-0.588,0.289-1.215,0.669-1.881c0.262-0.437,0.917-1.363,1.964-2.782
		c0.49-0.663,0.925-1.291,1.309-1.881c0.392-0.587,0.73-1.139,1.015-1.653c0.35-0.649,0.492-1.32,0.426-2.013
		c-0.125-1.159-0.845-2.375-2.16-3.648c-0.506-0.482-1.084-0.962-1.734-1.44c-0.159-0.121-0.323-0.242-0.491-0.359
		c-0.422-0.296-0.87-0.591-1.341-0.884l36.354,1.603l-0.884,0.36c-1.811,0.699-3.119,1.538-3.927,2.52
		C175.037,120.489,174.591,121.668,174.481,123.085z M197.256,136.109c0.013-0.099,0.039-0.197,0.082-0.294
		c0.118-0.245,0.342-0.485,0.671-0.72c0.741-0.502,1.647-0.796,2.716-0.884l0.229-0.032c1.003-0.109,1.843,0.011,2.521,0.36h0.032
		c0.239,0.144,0.403,0.313,0.49,0.508c0.032,0.065,0.054,0.136,0.065,0.212v0.098c0,0.066-0.021,0.13-0.065,0.196v0.033
		c0,0.043-0.01,0.075-0.032,0.098c-0.109,0.306-0.316,0.579-0.621,0.818c-0.502,0.437-1.092,0.666-1.768,0.687h-0.032
		c-1.091,0.087-2.247,0.328-3.47,0.721h0.033c-0.567,0.152-1.068,0.327-1.505,0.523c0.064-0.109,0.12-0.208,0.163-0.295v-0.032
		c0.349-0.655,0.513-1.31,0.491-1.964V136.109z M94.181,183.948c0.633,0.829,0.938,1.821,0.917,2.978
		c-0.022,1.113-0.35,2.073-0.981,2.881c-0.371,0.437-0.786,0.687-1.244,0.752c-0.48-0.065-0.883-0.315-1.21-0.752
		c-0.633-0.829-0.938-1.813-0.917-2.945c0-1.156,0.316-2.128,0.949-2.913c0.371-0.458,0.786-0.708,1.244-0.752
		c0.48,0.064,0.894,0.327,1.243,0.785V183.948z"/>
	<path fill-rule="evenodd" clip-rule="evenodd" fill="#525252" d="M52.313,171.547l7.87,2.471l25.67,3.403l-1.652,1.782
		c-1.483,2.139-2.247,4.658-2.291,7.56c-0.021,1.751,0.399,4.015,1.26,6.79c0.003,0.027,0.008,0.056,0.016,0.082l-1.227-0.229
		c-5.44-0.665-10.883-1.33-16.329-1.997c-1.359-0.165-2.716-0.329-4.073-0.491l-12.86-1.701l-6.479-3.567
		c-0.664-0.372-1.352-0.76-2.062-1.161c-2.463-1.448-5.484-3.243-9.064-5.383c1.636-1.156,2.64-2.05,3.01-2.683
		c0.96-1.484,1.451-3.283,1.473-5.399c0-0.721-0.055-1.396-0.164-2.029v0.033c-0.022-0.172-0.147-1.078-0.376-2.716
		c-0.008-0.021-0.013-0.043-0.017-0.065l0.033,0.065l16.492,5.219C51.43,171.393,51.686,171.397,52.313,171.547z M221.633,142.195
		c-0.763,0.241-1.417,0.371-1.962,0.393h-0.065c-1.483,0-2.172-0.479-2.063-1.439c-0.261-0.589,0.121-1.244,1.146-1.963l0.033-0.034
		c0.479-0.327,1.09-0.621,1.832-0.883h0.033c0.677-0.241,1.298-0.371,1.864-0.393h0.066c0.021,0,0.043,0,0.065,0
		c0.021,0,0.043,0,0.065,0c0.13,0,0.261,0,0.393,0c1.134,0.065,1.68,0.513,1.636,1.342c0.327,0.655-0.043,1.341-1.112,2.061
		c-0.262,0.175-0.568,0.349-0.916,0.524c-0.306,0.13-0.622,0.251-0.949,0.36l-0.033,0.032H221.633z M105.176,179.989
		c0.028,0.004,0.056,0.011,0.081,0.017c1.009,2.775,1.669,5.988,1.98,9.636c0.315,3.753,0.255,5.774-0.18,6.071
		c-0.107,0.073-0.227,0.286-0.36,0.638l-6.855-0.917c2.683-2.857,4.035-5.661,4.057-8.409c0.021-1.593-0.595-4.08-1.849-7.461
		c-0.015-0.04-0.032-0.086-0.049-0.131c1.016,0.092,2.046,0.271,3.092,0.54C105.123,179.976,105.149,179.981,105.176,179.989z"/>
	<path fill-rule="evenodd" clip-rule="evenodd" fill="#010101" d="M55.732,197.332v0.196l-0.196,1.375l0.033,0.196l0.033,0.098
		l0.13,0.065v0.195l-0.13,0.065h-0.164l-0.131,0.163l-0.066,0.264l-0.098,0.098l-0.066,0.033l-0.033,0.032l-0.065-0.065
		l-0.032-0.066v-0.424l-0.098-0.131l-0.164-0.132l-0.557-0.229l-0.131-0.097l-0.032-0.065l0.098-0.132l1.538-1.505l0.098-0.033
		L55.732,197.332z M55.209,198.085h-0.098l-0.261,0.196l-0.196,0.229l-0.066,0.196v0.164l0.131,0.065h0.164l0.163-0.131l0.099-0.164
		l0.098-0.229l0.033-0.131v-0.066l-0.033-0.098L55.209,198.085z M54.293,196.973l-0.065,0.064h-0.262l-0.164-0.033l-0.164,0.1
		c-0.087,0.043-0.152,0.119-0.196,0.229c-0.109,0.175-0.175,0.306-0.197,0.393c-0.065,0.152-0.108,0.316-0.13,0.49l-0.262,0.885
		l-0.131,0.261l-0.065,0.066l-0.065-0.099l0.032-0.295c0.022-0.196,0.033-0.338,0.033-0.426c0.043-0.218,0.087-0.381,0.13-0.49
		l0.066-0.523c0.022-0.152,0.022-0.294,0-0.426c0-0.086-0.022-0.195-0.066-0.327l-0.164-0.131l-0.262-0.131l-0.098-0.065v-0.064
		l0.098-0.066h0.229l0.327,0.066c0.174,0.021,0.306,0.043,0.393,0.064l0.359,0.131c0.153,0.044,0.262,0.087,0.328,0.131l0.229,0.099
		L54.293,196.973z M56.878,197.561v0.524l-0.359,1.668h0.032v0.066l0.065,0.262l0.099,0.13l0.13,0.099l0.196,0.065l0.229,0.033
		h0.164l0.164-0.065l0.131-0.132l0.164-0.326l0.393-1.439c0.043-0.196,0.098-0.328,0.164-0.394l0.098-0.131l0.066,0.065v0.229
		l-0.458,2.095h-0.033l-0.033,0.065l-0.294,0.294l-0.229,0.1l-0.262,0.032c-0.088,0-0.197-0.012-0.327-0.032
		c-0.109-0.045-0.208-0.088-0.295-0.132l-0.229-0.163l-0.163-0.229l-0.099-0.459v-0.197l0.393-1.668
		c0.044-0.131,0.098-0.251,0.164-0.36l0.098-0.099L56.878,197.561z M47.029,194.91l0.164,0.066l0.295,0.195l0.163,0.459v0.13
		l-0.098,0.36l-0.065,0.132l-0.295,0.261l-0.851,0.327l-0.164,0.099l-0.065,0.064l-0.131,0.197c0.109,0.021,0.262,0.065,0.458,0.131
		l0.654,0.295l0.098,0.098l-0.131,0.033l-0.36-0.033l-1.08-0.294l0.164-0.458l0.065-0.132l0.098-0.099l0.262-0.195l0.785-0.294
		l0.065-0.034l0.196-0.261l0.033-0.197v-0.098l-0.065-0.229l-0.098-0.13l-0.065-0.066l-0.098-0.032h-0.262l-0.131,0.064
		l-0.098,0.099l-0.033,0.065l-0.098,0.327l-0.099-0.065l-0.098-0.098l0.033-0.328l0.262-0.261l0.164-0.099l0.196-0.032
		L47.029,194.91z M48.861,195.729l-0.229,0.032l-0.164,0.131l-0.098,0.132v0.195l0.098,0.164l0.164,0.131l0.458,0.164l0.163,0.098
		l0.099,0.099l0.065,0.099l-0.097,0.031h-0.328l-0.458-0.064l-0.196,0.098l-0.197,0.164l-0.163,0.49l-0.099,0.196l-0.065,0.099
		l-0.065,0.065l-0.033-0.131c0-0.131,0-0.24,0-0.327c0.022-0.196,0.044-0.349,0.065-0.458l0.098-0.557
		c0.065-0.196,0.131-0.371,0.197-0.523c0.087-0.153,0.185-0.283,0.294-0.393c0.109-0.131,0.218-0.218,0.327-0.261
		c0.109-0.045,0.218-0.056,0.327-0.034l0.589,0.229l0.164,0.098l0.065,0.065l-0.065,0.066l-0.164,0.032L48.861,195.729z
		 M50.269,196.023l0.13-0.099l0.131-0.065l0.164-0.032h0.196l0.196,0.032l0.327,0.131l0.131,0.131l0.196,0.262l0.065,0.393
		l-0.033,0.229l-0.131-0.064l-0.098-0.065l-0.065-0.099l-0.033-0.229l-0.065-0.098l-0.131-0.132l-0.098-0.064l-0.164-0.066
		l-0.261-0.032l-0.164,0.064l-0.098,0.066l-0.131,0.327v0.098l0.131,0.229l0.917,0.557v0.032l0.032,0.032l0.131,0.197l0.033,0.163
		v0.164l-0.033,0.196l-0.065,0.196l-0.098,0.196l-0.262,0.196l-0.196,0.065h-0.328l-0.197-0.032l-0.392-0.197l-0.131-0.13
		l-0.197-0.327l-0.032-0.197v-0.229l0.032-0.196l0.132,0.032l0.098,0.099l0.065,0.229v0.065l0.099,0.229l0.098,0.131l0.328,0.164
		l0.262,0.031h0.098l0.099-0.031l0.13-0.099l0.098-0.099l0.033-0.13v-0.295l-0.033-0.099l-0.131-0.131l-0.851-0.523l-0.065-0.098
		l-0.13-0.263v-0.327L50.269,196.023z"/>
	<path fill-rule="evenodd" clip-rule="evenodd" fill="#333332" d="M207.662,110.585c-2.073,0.83-7.046,1.385-14.922,1.669
		c-5.354,0.169-9.356,0.153-12.01-0.049c-1.108-0.082-1.98-0.196-2.618-0.344c-0.592-0.144-1.879-0.28-3.86-0.408
		c-5.815-0.373-17.617-0.673-35.405-0.9c3.491-0.305,7.428-0.589,11.813-0.851c3.774-0.24,6.021-0.349,6.741-0.327
		c0.697,0,5.159-0.087,13.384-0.262c1.731-0.036,3.45-0.069,5.153-0.098c2.354-0.049,4.684-0.093,6.986-0.131l9.686,0.654
		C199.678,110.019,204.693,110.368,207.662,110.585z"/>
	<path fill-rule="evenodd" clip-rule="evenodd" fill="#FDFDFE" d="M141.759,113.628v0.065c-0.043-0.043-0.086-0.076-0.13-0.097
		L141.759,113.628z"/>
</g>
</svg>
