<?xml version="1.0" encoding="utf-8"?>
<!-- Generator: Adobe Illustrator 16.0.0, SVG Export Plug-In . SVG Version: 6.00 Build 0)  -->
<!DOCTYPE svg PUBLIC "-//W3C//DTD SVG 1.1//EN" "http://www.w3.org/Graphics/SVG/1.1/DTD/svg11.dtd">
<svg version="1.1" id="Layer_1" xmlns="http://www.w3.org/2000/svg" xmlns:xlink="http://www.w3.org/1999/xlink" x="0px" y="0px"
	 width="300px" height="300px" viewBox="0 0 300 300" enable-background="new 0 0 300 300" xml:space="preserve">
<g>
	<path fill-rule="evenodd" clip-rule="evenodd" fill="#231F20" d="M199.374,92.318c0.211,0.28,0.644,1.098,1.297,2.454
		c0.468,1.075,0.911,1.894,1.333,2.454c1.916,2.431,4.125,4.593,6.626,6.486c0.654,0.468,1.333,0.923,2.033,1.367
		c0.257,0.14,0.818,0.549,1.684,1.227c0.654,0.538,1.238,0.923,1.753,1.157c0.257,0.164,0.889,0.385,1.893,0.667
		c6.008,1.52,11.629,2.489,16.864,2.91c3.6,0.303,5.832,0.514,6.696,0.63c2.478,0.281,4.675,0.62,6.592,1.017
		c2.196,0.584,3.857,1.04,4.979,1.368c2.01,0.491,3.728,0.725,5.153,0.701c2.198-0.28,3.821-0.398,4.873-0.35
		c1.801-0.048,3.25,0.514,4.348,1.683c1.122,1.168,2.021,2.852,2.699,5.048c0.632,1.871,0.982,3.763,1.052,5.681
		c0.071,1.495-0.046,3.271-0.35,5.328c-0.257,1.661-0.666,3.471-1.228,5.435c-0.935,3.226-1.776,4.558-2.523,3.997
		c-0.305-0.257-0.702-0.689-1.192-1.297c-0.911-1.029-2.139-2.104-3.682-3.226c-1.964-1.449-3.296-2.034-3.997-1.753
		c-0.49,0.21-1.379,0.807-2.664,1.788c-1.963,1.589-4.324,3.716-7.082,6.381c-4.161,3.973-6.463,6.16-6.907,6.556
		c-0.187,0.187-0.361,0.374-0.526,0.561c-0.093,0.047-0.198,0.117-0.315,0.21c-2.104,1.846-4.137,3.202-6.1,4.067
		c-2.688,1.24-5.481,1.717-8.38,1.438c-2.384-0.234-4.195-1.18-5.435-2.84c-0.443-0.584-1.437-2.63-2.979-6.135
		c-0.164-0.491-0.397-1.087-0.701-1.789c-0.328-0.771-0.713-1.741-1.158-2.909c-0.794-1.894-1.541-3.389-2.243-4.488
		c-0.397-0.654-1.623-1.285-3.681-1.894c-1.496-0.42-2.922-0.713-4.278-0.876c-0.584-0.116-1.297-0.21-2.138-0.28
		c-1.496-0.14-3.39-0.269-5.68-0.385c-7.644-0.444-14.866-2.197-21.668-5.259c-0.443-0.211-1.017-0.456-1.718-0.737
		c-0.562-0.116-1.041,0.152-1.438,0.807c-0.936,1.635-1.964,3.494-3.085,5.574c-0.982,1.8-2.045,3.763-3.191,5.89
		c-0.631,1.146-1.272,2.349-1.928,3.611c-0.444,0.841-0.888,1.671-1.331,2.489c-0.117,0.211-0.224,0.41-0.316,0.596
		c-0.375,0.678-0.735,1.333-1.087,1.964c-0.725,1.355-1.449,2.7-2.174,4.032c5.117,9.441,10.003,18.43,14.655,26.961l0.035,0.035
		c0.069,0.164,0.151,0.303,0.244,0.42c1.052,1.916,2.011,3.623,2.876,5.119c0.491,0.889,0.351,1.66-0.421,2.314
		c-0.679,0.561-1.496,0.818-2.455,0.771c-0.327,0-0.712-0.316-1.155-0.945c-0.445-0.797-1.006-1.836-1.684-3.123l-1.087-1.998
		c-0.069-0.162-0.152-0.328-0.245-0.49c-4.091-7.549-8.497-15.707-13.218-24.473c-4.722,8.742-9.128,16.898-13.218,24.473
		c-0.093,0.162-0.176,0.328-0.246,0.49l-1.087,1.998c-0.678,1.287-1.239,2.326-1.683,3.123c-0.444,0.629-0.829,0.945-1.157,0.945
		c-0.958,0.047-1.776-0.211-2.455-0.771c-0.771-0.654-0.911-1.426-0.42-2.314c0.865-1.496,1.823-3.203,2.875-5.119
		c0.093-0.117,0.175-0.256,0.245-0.42l0.035-0.035c4.651-8.531,9.537-17.52,14.655-26.961c-0.724-1.332-1.448-2.677-2.173-4.032
		c-0.351-0.631-0.714-1.286-1.088-1.964c-0.093-0.187-0.198-0.385-0.314-0.596c-0.444-0.818-0.889-1.647-1.333-2.489
		c-0.654-1.262-1.297-2.466-1.928-3.611c-1.146-2.127-2.208-4.09-3.19-5.89c-1.122-2.08-2.15-3.939-3.085-5.574
		c-0.397-0.655-0.876-0.923-1.438-0.807c-0.701,0.281-1.273,0.526-1.718,0.737c-6.802,3.062-14.024,4.815-21.667,5.259
		c-2.291,0.116-4.184,0.245-5.68,0.385c-0.842,0.07-1.555,0.164-2.139,0.28c-1.356,0.164-2.782,0.456-4.277,0.876
		c-2.057,0.608-3.284,1.24-3.681,1.894c-0.701,1.099-1.449,2.595-2.244,4.488c-0.444,1.168-0.83,2.138-1.157,2.909
		c-0.305,0.702-0.538,1.298-0.702,1.789c-1.542,3.505-2.536,5.551-2.98,6.135c-1.239,1.66-3.05,2.605-5.434,2.84
		c-2.898,0.279-5.692-0.197-8.38-1.438c-1.963-0.865-3.996-2.221-6.1-4.067c-0.117-0.094-0.222-0.164-0.315-0.21
		c-0.164-0.187-0.339-0.374-0.526-0.561c-0.444-0.396-2.747-2.583-6.907-6.556c-2.758-2.665-5.119-4.792-7.083-6.381
		c-1.285-0.981-2.173-1.578-2.664-1.788c-0.701-0.281-2.034,0.304-3.997,1.753c-1.542,1.122-2.77,2.197-3.682,3.226
		c-0.49,0.608-0.888,1.04-1.191,1.297c-0.748,0.561-1.589-0.771-2.524-3.997c-0.561-1.963-0.97-3.774-1.228-5.435
		c-0.303-2.057-0.42-3.833-0.35-5.328c0.07-1.917,0.42-3.81,1.052-5.681c0.678-2.197,1.578-3.88,2.7-5.048
		c1.099-1.168,2.548-1.73,4.347-1.683c1.052-0.048,2.676,0.07,4.874,0.35c1.426,0.024,3.144-0.21,5.154-0.701
		c1.122-0.328,2.781-0.784,4.979-1.368c1.916-0.397,4.113-0.736,6.591-1.017c0.865-0.117,3.097-0.327,6.697-0.63
		c5.235-0.421,10.857-1.391,16.864-2.91c1.005-0.281,1.636-0.503,1.894-0.667c0.514-0.233,1.098-0.619,1.752-1.157
		c0.865-0.678,1.426-1.087,1.683-1.227c0.701-0.444,1.379-0.899,2.034-1.367c2.501-1.894,4.709-4.056,6.626-6.486
		c0.421-0.561,0.865-1.379,1.332-2.454c0.655-1.356,1.087-2.174,1.297-2.454c0.584-1.052,1.321-2.408,2.209-4.067
		c1.122-2.104,1.613-3.191,1.473-3.261c-0.328-0.07-0.573-0.187-0.736-0.351c-0.607-0.491-0.736-1.145-0.386-1.963
		c0.351-0.724,0.982-1.367,1.894-1.928c2.221-1.426,3.67-1.181,4.348,0.736c0.303,0.842,0.104,1.472-0.596,1.894
		c0.023,0.303,0.292,0.888,0.806,1.752c2.267,4.021,5.949,10.951,11.044,20.791c0.351,0.702,0.701,1.391,1.052,2.069
		c4.978,9.724,9.092,17.273,12.341,22.649c0.327,0.468,0.748,1.204,1.262,2.209c0.211,0.327,0.456,0.759,0.736,1.297
		c0.654,1.146,1.542,2.758,2.665,4.838c0.981,1.776,2.138,3.869,3.471,6.276c0.07,0.14,0.14,0.257,0.21,0.351
		c0.187,0.303,0.362,0.619,0.525,0.946c0.188,0.351,0.387,0.69,0.597,1.017c0.281,0.516,0.562,1.041,0.842,1.579
		c0.28-0.538,0.561-1.063,0.841-1.579c0.211-0.327,0.41-0.666,0.596-1.017c0.165-0.327,0.34-0.643,0.526-0.946
		c0.07-0.094,0.141-0.21,0.21-0.351c1.333-2.408,2.49-4.5,3.471-6.276c1.123-2.08,2.011-3.693,2.665-4.838
		c0.281-0.538,0.526-0.97,0.737-1.297c0.514-1.005,0.935-1.741,1.262-2.209c3.248-5.375,7.362-12.925,12.341-22.649
		c0.351-0.678,0.701-1.367,1.052-2.069c5.096-9.84,8.777-16.77,11.043-20.791c0.516-0.865,0.784-1.45,0.808-1.752
		c-0.701-0.421-0.899-1.052-0.596-1.894c0.678-1.917,2.127-2.162,4.347-0.736c0.912,0.561,1.543,1.204,1.894,1.928
		c0.351,0.818,0.223,1.472-0.385,1.963c-0.164,0.164-0.41,0.281-0.736,0.351c-0.141,0.07,0.35,1.158,1.472,3.261
		C198.054,89.911,198.79,91.267,199.374,92.318z M203.301,101.924c0.421,0.795,0.841,1.741,1.262,2.84
		c0.327,0.981,0.479,1.578,0.457,1.788c-0.024,0.233-0.188,0.876-0.491,1.928c-0.257,0.632-0.257,1.041,0,1.228
		c0.561,0.187,1.04,0.397,1.437,0.631c0.258,0.187,0.41,0.292,0.456,0.315c0.163,0.047,0.141-0.14-0.069-0.561
		c-0.305-0.444-0.479-0.76-0.526-0.947c-0.095-0.281-0.176-0.655-0.245-1.123l-0.07-5.854c-0.047-0.281-0.081-0.491-0.105-0.631
		c-0.07-0.07-0.27-0.233-0.596-0.49c-0.375-0.328-0.971-0.924-1.788-1.789c-0.936-0.935-1.485-1.53-1.647-1.788
		c-0.304-0.561-0.702-1.379-1.193-2.454c-0.351-0.654-0.536-0.994-0.561-1.017c-0.094-0.023-0.21,0.304-0.351,0.982
		c-0.117,0.374-0.327,0.959-0.631,1.753c-0.21,0.655-0.104,1.063,0.315,1.227c1.192,0.538,1.929,0.889,2.208,1.052
		c1.007,0.538,1.556,1.099,1.648,1.684C202.88,100.931,203.044,101.34,203.301,101.924z M199.479,107.99
		c-2.196-0.935-3.587-1.461-4.171-1.578c-0.094,0.023-0.27,0.281-0.526,0.771c-0.211,0.608-0.455,1.286-0.736,2.033
		c-0.536,1.45-1.25,3.144-2.139,5.083c-0.117,0.258-0.104,0.398,0.035,0.421c0.022,0.047,0.198,0.104,0.525,0.175
		c1.075,0.187,2.501,0.561,4.278,1.122c2.079,0.608,3.518,0.994,4.312,1.157c0.258-0.35,0.468-0.935,0.632-1.753
		c0.35-1.123,0.537-1.73,0.561-1.823c0.327-0.935,0.597-1.73,0.807-2.384c0.28-0.936,0.408-1.45,0.385-1.543
		C203.418,109.579,202.098,109.018,199.479,107.99z M201.197,117.877l-0.491,1.682c-0.935,3.25-1.309,5.119-1.121,5.61
		c0.187,0.444,1.39,0.935,3.611,1.473l5.398,1.156c0.818,0.234,1.285,0.258,1.402,0.071c0.14-0.257,0.387-1.566,0.736-3.927
		l0.351-2.314c0.094-0.281-0.619-0.736-2.14-1.368c-1.098-0.444-2.325-0.9-3.681-1.368c-0.468-0.14-0.97-0.303-1.507-0.49
		c-1.075-0.351-1.765-0.562-2.068-0.632C201.407,117.725,201.244,117.76,201.197,117.877z M216.308,109.182
		c-0.304,1.168-0.747,2.735-1.332,4.698c-0.163,0.678-0.375,1.426-0.632,2.244c-0.396,1.239-0.677,2.325-0.841,3.26
		c0,0.071-0.012,0.246-0.035,0.526c-0.023,0.281,0.048,0.433,0.211,0.457c1.636-0.048,3.541-0.316,5.715-0.807
		c0.794-0.141,1.391-0.269,1.788-0.386c0.654-0.233,1.11-0.583,1.367-1.052c0.397-0.818,0.795-1.589,1.192-2.314
		c1.075-1.847,2.279-3.213,3.611-4.102l0.7-0.456l-0.771-0.175c-1.684-0.374-4.23-0.865-7.644-1.473
		c-0.117-0.047-0.713-0.199-1.788-0.456C216.893,108.914,216.379,108.924,216.308,109.182z M228.825,117.947
		c-4.091,0.561-6.265,1.052-6.521,1.472c-0.421,0.608-1.052,2.081-1.894,4.418c-0.935,2.5-1.391,4.102-1.367,4.803
		c-0.094,0.258-0.07,0.409,0.07,0.456c0.257,0.07,1.508-0.374,3.752-1.333c2.383-1.028,3.774-1.613,4.172-1.753
		c0.841-0.351,1.319-0.689,1.437-1.017c1.192-2.688,2.724-5.061,4.594-7.117c0.141-0.141,0.28-0.316,0.42-0.526
		c0.211-0.211,0.105-0.27-0.314-0.176c-0.397,0.093-0.655,0.187-0.772,0.28c-0.07,0.023-0.303,0.058-0.701,0.105
		C231.068,117.654,230.11,117.783,228.825,117.947z M235.907,116.334c1.893-0.397,3.4-0.631,4.521-0.701
		c2.501-0.444,4.372-0.701,5.61-0.772l3.472-0.351c0.677-0.069,0.748-0.198,0.21-0.385c-0.281-0.093-0.701-0.21-1.262-0.351
		c-1.778-0.514-3.309-0.853-4.593-1.017c-1.543-0.234-3.027-0.023-4.454,0.631c-1.052,0.468-2.29,1.309-3.716,2.524l-0.491,0.351
		c-0.069,0.117-0.011,0.164,0.176,0.14C235.591,116.334,235.767,116.311,235.907,116.334z M241.131,119.665
		c-0.397,0.468-0.503,0.678-0.315,0.63l0.631-0.42c0.069-0.023,0.141-0.047,0.21-0.07c0.562-0.328,1.356-0.737,2.385-1.228
		c1.215-0.561,2.104-1.005,2.665-1.333l2.979-1.788c0.538-0.304,0.62-0.456,0.245-0.456c-0.187-0.047-0.525-0.023-1.017,0.07
		c-1.917,0-3.798,0.876-5.645,2.629L241.131,119.665z M255.12,117.982c-1.169,0.818-2.022,1.437-2.56,1.859l-0.562,0.491
		c-0.141,0.14-0.187,0.222-0.141,0.245c1.824-0.023,2.876-0.023,3.156,0l1.298-0.07c0.35,0.07,0.571,0.082,0.665,0.035
		c0.141-0.023,0.164-0.14,0.071-0.351c-0.165-0.374-0.375-0.982-0.632-1.824C256.066,117.737,255.634,117.608,255.12,117.982z
		 M256.137,116.369c-0.608,0.141-2.15,0.655-4.628,1.543c-0.725,0.046-2.665,1.017-5.82,2.91c-0.725,0.397-1.542,0.876-2.454,1.438
		c-4.839,2.898-7.141,4.757-6.906,5.574c0.304,0.936,1.413,2.49,3.331,4.664c0.186,0.21,0.408,0.164,0.665-0.14
		c0.234-0.374,0.409-0.631,0.526-0.771l1.473-1.999c0.583-0.888,1.25-1.789,1.998-2.699c1.238-1.52,2.664-3.05,4.277-4.593
		c2.712-2.548,5.271-4.488,7.678-5.82c0.281-0.141,0.421-0.246,0.421-0.315C256.721,116.112,256.534,116.182,256.137,116.369z
		 M125.082,113.039c-2.291,0.911-3.775,1.438-4.453,1.578c-0.257,0.093-0.386,0.199-0.386,0.316c0,0.07,0.083,0.268,0.246,0.596
		c1.589,3.155,2.571,5.586,2.945,7.293c0.093,0.467,0.456,0.63,1.087,0.491c0.327-0.071,0.771-0.246,1.333-0.526
		c4.908-1.613,7.748-2.571,8.519-2.875c-0.047-0.14-0.502-1.098-1.367-2.875c-0.865-1.8-1.391-2.84-1.578-3.121l-1.052-2.349
		c-0.21-0.398-0.327-0.632-0.35-0.702c-0.117-0.023-0.327,0.024-0.631,0.14C128.81,111.402,127.372,112.08,125.082,113.039z
		 M115.791,97.051c-1.496,0.468-2.279,0.76-2.349,0.877c0.14,0.561,0.573,1.846,1.297,3.856c0.654,1.846,1.122,3.155,1.402,3.927
		c0.164,0.398,1.437,0.047,3.821-1.052c1.613-0.631,2.898-1.18,3.857-1.647c0.865-0.351,1.321-0.584,1.367-0.702
		c0.117-0.187-0.035-0.666-0.456-1.438c-0.842-1.847-1.531-3.237-2.069-4.172c-0.561-1.146-0.912-1.753-1.052-1.824
		c-0.491,0.211-1.098,0.444-1.823,0.701C119.133,95.906,117.8,96.396,115.791,97.051z M109.55,117.771
		c-0.304,0.07-0.994,0.281-2.068,0.632c-0.538,0.187-1.041,0.35-1.508,0.49c-1.355,0.468-2.583,0.924-3.681,1.368
		c-1.52,0.632-2.232,1.086-2.139,1.368l0.351,2.314c0.351,2.361,0.596,3.669,0.736,3.927c0.117,0.187,0.585,0.163,1.402-0.071
		l5.399-1.156c2.221-0.538,3.424-1.028,3.611-1.473c0.187-0.491-0.187-2.36-1.122-5.61l-0.491-1.682
		C109.994,117.76,109.83,117.725,109.55,117.771z M107.796,109.673c-0.023,0.093,0.105,0.607,0.386,1.543
		c0.21,0.654,0.479,1.449,0.807,2.384c0.023,0.093,0.21,0.701,0.561,1.823c0.164,0.818,0.374,1.403,0.631,1.753
		c0.794-0.163,2.232-0.549,4.312-1.157c1.776-0.561,3.202-0.935,4.277-1.122c0.327-0.071,0.503-0.128,0.526-0.175
		c0.14-0.023,0.152-0.164,0.035-0.421c-0.889-1.939-1.602-3.634-2.139-5.083c-0.28-0.748-0.526-1.425-0.736-2.033
		c-0.257-0.491-0.433-0.748-0.526-0.771c-0.584,0.117-1.975,0.643-4.172,1.578C109.141,109.018,107.82,109.579,107.796,109.673z
		 M94.93,109.182c-0.07-0.258-0.584-0.269-1.543-0.035c-1.075,0.257-1.671,0.409-1.788,0.456c-3.412,0.608-5.96,1.099-7.643,1.473
		l-0.771,0.175l0.701,0.456c1.333,0.889,2.537,2.255,3.611,4.102c0.397,0.725,0.795,1.496,1.192,2.314
		c0.257,0.468,0.713,0.818,1.367,1.052c0.397,0.117,0.994,0.245,1.788,0.386c2.174,0.491,4.079,0.759,5.715,0.807
		c0.164-0.024,0.233-0.176,0.21-0.457c-0.023-0.28-0.035-0.455-0.035-0.526c-0.164-0.935-0.444-2.021-0.841-3.26
		c-0.257-0.818-0.467-1.566-0.631-2.244C95.677,111.917,95.233,110.351,94.93,109.182z M107.937,101.924
		c0.257-0.584,0.42-0.993,0.491-1.227c0.093-0.585,0.643-1.146,1.648-1.684c0.28-0.163,1.016-0.514,2.209-1.052
		c0.42-0.163,0.526-0.572,0.315-1.227c-0.304-0.794-0.514-1.379-0.631-1.753c-0.14-0.678-0.257-1.005-0.351-0.982
		c-0.023,0.023-0.21,0.363-0.561,1.017c-0.491,1.075-0.888,1.893-1.192,2.454c-0.164,0.258-0.713,0.854-1.647,1.788
		c-0.819,0.865-1.415,1.461-1.789,1.789c-0.327,0.257-0.526,0.42-0.596,0.49c-0.024,0.141-0.059,0.351-0.105,0.631l-0.07,5.854
		c-0.07,0.468-0.151,0.842-0.245,1.123c-0.047,0.187-0.222,0.503-0.526,0.947c-0.21,0.421-0.233,0.608-0.07,0.561
		c0.047-0.023,0.199-0.128,0.456-0.315c0.397-0.234,0.876-0.444,1.437-0.631c0.257-0.187,0.257-0.596,0-1.228
		c-0.304-1.052-0.467-1.695-0.491-1.928c-0.023-0.21,0.128-0.807,0.456-1.788C107.096,103.666,107.516,102.719,107.937,101.924z
		 M116.211,84.29c-0.07-0.397,0.444-0.842,1.543-1.333c1.098-0.514,1.694-0.561,1.788-0.14c0.023,0.093,0.093,0.128,0.21,0.105
		c0.117-0.094,0.234-0.222,0.351-0.386c0.117-0.374,0.094-0.76-0.07-1.157c-0.21-0.397-0.514-0.642-0.911-0.736
		c-0.911-0.257-1.952,0.094-3.121,1.052c-1.122,0.959-1.426,1.729-0.912,2.314c0.164,0.211,0.398,0.339,0.702,0.386
		C116.118,84.464,116.258,84.43,116.211,84.29z M117.894,83.553c-0.631,0.328-0.947,0.631-0.947,0.912
		c0,0.07,0.888,1.812,2.665,5.225l1.122,2.032c0.327,0.609,1.578,3.063,3.751,7.363c1.566,2.993,2.887,5.528,3.961,7.609
		c1.917,3.786,3.121,6.135,3.612,7.047c0.912,1.87,2.162,4.266,3.751,7.188c2.151,4.067,3.366,6.229,3.646,6.486
		c0.14,0.163,0.573,0.046,1.297-0.351c0.771-0.374,1.192-0.689,1.262-0.946c-0.444-0.935-1.04-2.081-1.788-3.436
		c-0.842-1.449-1.484-2.547-1.928-3.296c-1.683-3.062-4.009-7.503-6.977-13.323c-0.21-0.443-0.444-0.899-0.702-1.367
		c-3.365-6.685-5.925-11.628-7.678-14.831l-3.751-6.662C118.935,83.062,118.502,83.179,117.894,83.553z M191.486,82.922
		c0.117,0.023,0.187-0.012,0.209-0.105c0.094-0.421,0.689-0.374,1.788,0.14c1.1,0.491,1.613,0.936,1.543,1.333
		c-0.047,0.14,0.093,0.175,0.421,0.105c0.305-0.047,0.538-0.175,0.701-0.386c0.516-0.584,0.211-1.355-0.912-2.314
		c-1.169-0.958-2.208-1.309-3.119-1.052c-0.397,0.094-0.702,0.339-0.912,0.736c-0.165,0.397-0.188,0.783-0.07,1.157
		C191.252,82.7,191.369,82.828,191.486,82.922z M193.343,83.553c-0.606-0.374-1.039-0.491-1.296-0.351l-3.752,6.662
		c-1.752,3.202-4.313,8.146-7.678,14.831c-0.257,0.467-0.491,0.923-0.701,1.367c-2.97,5.82-5.294,10.262-6.979,13.323
		c-0.443,0.749-1.085,1.847-1.928,3.296c-0.747,1.355-1.343,2.501-1.788,3.436c0.07,0.257,0.491,0.573,1.263,0.946
		c0.724,0.397,1.157,0.514,1.297,0.351c0.28-0.258,1.496-2.419,3.646-6.486c1.589-2.922,2.84-5.317,3.752-7.188
		c0.49-0.912,1.694-3.261,3.611-7.047c1.075-2.081,2.396-4.616,3.961-7.609c2.174-4.3,3.426-6.754,3.752-7.363l1.122-2.032
		c1.776-3.413,2.664-5.155,2.664-5.225C194.29,84.184,193.975,83.88,193.343,83.553z M191.45,95.578
		c-0.725-0.257-1.332-0.49-1.823-0.701c-0.141,0.07-0.491,0.678-1.052,1.824c-0.537,0.935-1.228,2.325-2.068,4.172
		c-0.421,0.771-0.572,1.25-0.455,1.438c0.046,0.117,0.501,0.351,1.367,0.702c0.957,0.467,2.243,1.017,3.856,1.647
		c2.384,1.099,3.658,1.45,3.821,1.052c0.281-0.771,0.747-2.081,1.402-3.927c0.725-2.01,1.157-3.296,1.298-3.856
		c-0.071-0.117-0.854-0.409-2.35-0.877C193.437,96.396,192.105,95.906,191.45,95.578z M179.811,113.915
		c-0.188,0.281-0.713,1.32-1.578,3.121c-0.864,1.776-1.32,2.734-1.367,2.875c0.771,0.304,3.611,1.262,8.52,2.875
		c0.562,0.28,1.005,0.455,1.333,0.526c0.63,0.14,0.993-0.023,1.086-0.491c0.374-1.707,1.356-4.138,2.946-7.293
		c0.162-0.328,0.245-0.526,0.245-0.596c0-0.117-0.129-0.223-0.386-0.316c-0.679-0.14-2.161-0.667-4.454-1.578
		c-2.289-0.958-3.728-1.636-4.312-2.034c-0.304-0.116-0.515-0.163-0.632-0.14c-0.022,0.07-0.14,0.304-0.35,0.702L179.811,113.915z
		 M185.841,128.149c-0.654,1.612-1.145,2.992-1.474,4.138c1.544,0.443,3.214,0.794,5.016,1.052c1.354,0.256,3.049,0.479,5.083,0.666
		c1.052,0.116,1.635,0.104,1.752-0.036c0.118-0.07,0.316-0.654,0.597-1.753c0.888-2.757,1.543-4.827,1.963-6.206
		c-0.794-0.281-2.348-0.619-4.663-1.017c-3.295-0.561-4.988-0.854-5.083-0.876c-0.14-0.023-0.398-0.093-0.772-0.21
		c-0.35-0.023-0.583,0.105-0.7,0.385C187.207,125.204,186.635,126.49,185.841,128.149z M168.801,126.818
		c-1.122,1.869-2.559,4.359-4.312,7.467c-0.818,1.519-1.718,3.19-2.699,5.014c-0.562,1.029-1.146,2.104-1.755,3.225
		c-0.654,1.192-1.284,2.326-1.892,3.401c-0.141,0.257-0.281,0.502-0.421,0.736c-0.211,0.42-0.433,0.83-0.667,1.227
		c-0.351,0.654-0.7,1.308-1.052,1.962c0.586,1.052,1.158,2.116,1.719,3.192c0.654-1.238,1.32-2.478,1.999-3.717
		c0.35-0.631,0.711-1.286,1.086-1.963c0.048-0.094,0.105-0.21,0.176-0.351c0.748-1.355,1.507-2.734,2.279-4.137
		c0.396-0.771,0.781-1.495,1.155-2.173c1.1-2.127,2.117-4.032,3.052-5.715c1.565-2.875,2.84-5.154,3.821-6.837
		c0-0.117-0.538-0.479-1.613-1.087C169.164,126.712,168.872,126.63,168.801,126.818z M157.371,153.709
		c-0.583-1.053-1.169-2.104-1.752-3.156c-0.585,1.053-1.157,2.104-1.719,3.156c0.585,1.074,1.158,2.137,1.719,3.189
		C156.202,155.846,156.788,154.783,157.371,153.709z M142.437,126.818c-0.071-0.188-0.363-0.106-0.877,0.245
		c-1.075,0.608-1.612,0.97-1.612,1.087c0.981,1.683,2.255,3.962,3.821,6.837c0.935,1.683,1.951,3.588,3.051,5.715
		c0.373,0.678,0.759,1.403,1.156,2.173c0.771,1.403,1.531,2.782,2.279,4.137c0.07,0.141,0.129,0.257,0.175,0.351
		c0.374,0.678,0.736,1.332,1.087,1.963c0.677,1.239,1.345,2.467,1.999,3.68c0.561-1.051,1.133-2.103,1.718-3.155
		c-0.351-0.654-0.702-1.308-1.053-1.962c-0.233-0.397-0.455-0.807-0.665-1.227c-0.141-0.234-0.28-0.479-0.421-0.736
		c-0.607-1.075-1.239-2.209-1.894-3.401c-0.607-1.122-1.192-2.196-1.753-3.225c-0.981-1.824-1.882-3.495-2.699-5.014
		C144.995,131.177,143.559,128.687,142.437,126.818z M141.805,182.387c4.324-7.945,8.811-16.209,13.462-24.785
		c-0.583-1.078-1.156-2.141-1.718-3.191c-6.03,11.055-11.651,21.363-16.864,30.922l-0.105-0.07
		c-0.233,0.422-0.468,0.818-0.701,1.193c-0.374,0.748-0.246,1.32,0.386,1.719c0.467,0.35,1.145,0.525,2.034,0.525
		c0.514-0.912,1.063-1.871,1.648-2.877c0.514-0.957,1.052-1.938,1.612-2.943C141.63,182.738,141.712,182.574,141.805,182.387z
		 M87.216,147.257c-0.047,0.094-0.094,0.198-0.14,0.315c-0.795,1.754-1.438,3.074-1.929,3.963c-0.514,1.238-1.262,2.371-2.244,3.4
		c-0.304,0.373-0.327,0.561-0.07,0.561c1.262,0.188,2.711,0.223,4.348,0.105c1.986-0.188,3.401-0.783,4.243-1.787
		c0.701-1.006,0.935-2.49,0.701-4.454l-0.21-2.559c0.023-0.14,0.046-0.257,0.07-0.351v-0.175c-0.046-0.164-0.175-0.164-0.386,0
		c-0.21,0.187-0.479,0.327-0.806,0.42c-0.164,0.093-0.327,0.152-0.491,0.175c-0.467,0.187-0.923,0.281-1.367,0.281
		C87.835,147.059,87.263,147.094,87.216,147.257z M96.928,140c0,0.093,0.094,0.561,0.281,1.402c0.351-0.655,0.865-1.741,1.543-3.261
		c-0.281,0.094-0.748,0.351-1.402,0.771C97.021,139.193,96.881,139.556,96.928,140z M86.62,137.195
		c-1.168-0.958-2.057-1.683-2.665-2.174c-1.052-0.817-1.601-1.214-1.648-1.191c-0.023,0-0.339,0.619-0.946,1.857
		c-0.608,1.31-1.402,2.665-2.384,4.067c-0.351,0.562-0.549,0.9-0.596,1.017c0.023,0.117,0.269,0.409,0.736,0.876
		c0.584,0.538,1.425,1.169,2.524,1.894c0.538,0.351,1.415,0.899,2.629,1.647c1.496,0.982,2.408,1.438,2.735,1.367
		c0.303-0.771,0.794-2.08,1.472-3.926c0.701-2.058,1.122-3.308,1.262-3.752C88.735,138.527,87.695,137.966,86.62,137.195z
		 M92.195,128.64c0.023-0.701-0.432-2.302-1.367-4.803c-0.841-2.338-1.473-3.81-1.893-4.418c-0.257-0.42-2.431-0.911-6.521-1.472
		c-1.286-0.164-2.244-0.293-2.875-0.386c-0.397-0.047-0.631-0.082-0.701-0.105c-0.117-0.093-0.374-0.187-0.771-0.28
		c-0.421-0.094-0.526-0.035-0.316,0.176c0.14,0.21,0.28,0.385,0.42,0.526c1.87,2.056,3.401,4.429,4.593,7.117
		c0.117,0.327,0.596,0.666,1.438,1.017c0.397,0.14,1.788,0.725,4.172,1.753c2.244,0.958,3.494,1.402,3.751,1.333
		C92.265,129.049,92.289,128.898,92.195,128.64z M102.362,135.337l-0.701-3.576c-0.093-0.655-0.187-1.239-0.28-1.753
		c-0.21-0.912-0.433-1.333-0.667-1.262c-1.426,0.467-2.583,0.946-3.471,1.437c-0.35,0.141-0.572,0.233-0.666,0.28
		c-0.187,0.023-0.257-0.094-0.21-0.351c0.023-0.163,0.023-0.269,0-0.315c-0.327,0.07-0.935,0.093-1.823,0.07
		c-0.888-0.023-1.449-0.117-1.683-0.281c-0.187-0.07-0.374,0.479-0.561,1.648c-0.35,1.285-1.004,3.552-1.963,6.801
		c-0.118,0.304-0.059,0.456,0.175,0.456l0.701-0.105c0.514-0.117,1.391-0.678,2.63-1.683c0.701-0.515,0.865-0.281,0.491,0.701
		c-0.164,0.514-0.362,1.216-0.596,2.104c-0.257,1.192-0.42,1.917-0.491,2.173c-0.21,0.539-0.362,1.029-0.456,1.474
		c-0.256,0.724-0.21,0.818,0.141,0.28l0.175-0.245c0.585-1.005,1.134-1.8,1.648-2.384c0.515-0.561,1.216-1.191,2.104-1.893
		c1.262-1.075,2.641-1.858,4.137-2.349c0.187-0.093,0.515-0.234,0.982-0.421C102.304,135.956,102.433,135.687,102.362,135.337z
		 M98.436,121.838c0.047,0.164,0.094,0.316,0.14,0.456c0,0.093,0.07,0.012,0.21-0.246l0.315-0.49
		c0.257-0.14,0.433-0.246,0.526-0.316c0.024-0.047,0.035-0.222,0.035-0.526c-0.701-0.164-1.099-0.152-1.192,0.035
		C98.447,120.822,98.436,121.185,98.436,121.838z M123.679,124.292c-0.117-0.28-0.351-0.409-0.702-0.385
		c-0.374,0.117-0.631,0.187-0.771,0.21c-0.093,0.023-1.788,0.315-5.083,0.876c-2.314,0.398-3.868,0.736-4.663,1.017
		c0.421,1.379,1.076,3.448,1.963,6.206c0.281,1.099,0.479,1.683,0.596,1.753c0.117,0.14,0.701,0.152,1.753,0.036
		c2.034-0.188,3.728-0.41,5.084-0.666c1.799-0.258,3.471-0.608,5.013-1.052c-0.327-1.146-0.818-2.525-1.472-4.138
		C124.603,126.49,124.03,125.204,123.679,124.292z M169.433,182.387c0.093,0.188,0.176,0.352,0.245,0.492
		c0.562,1.006,1.099,1.986,1.613,2.943c0.584,1.006,1.134,1.965,1.646,2.877c0.89,0,1.567-0.176,2.035-0.525
		c0.631-0.398,0.759-0.971,0.385-1.719c-0.232-0.375-0.467-0.771-0.701-1.193l-0.104,0.07c-5.213-9.559-10.822-19.879-16.829-30.957
		c-0.585,1.074-1.157,2.139-1.719,3.189C160.632,166.166,165.109,174.441,169.433,182.387z M267.917,122.47
		c-0.117-0.281-0.421-0.491-0.912-0.631c-0.7-0.28-2.244-0.561-4.628-0.841c-2.453-0.328-3.997-0.432-4.628-0.315
		c-0.07,0.211,0.013,0.514,0.245,0.912c0.702,1.823,1.063,3.354,1.087,4.593c0.374,0.141,0.667,0.234,0.876,0.281
		c2.012,0.678,3.309,1.133,3.893,1.367c1.473,0.539,2.712,1.123,3.717,1.753c0.326,0.304,0.525,0.468,0.596,0.491
		c0.21,0.07,0.351-0.058,0.421-0.386c0.327-1.496,0.234-3.506-0.28-6.03C268.115,122.938,267.987,122.54,267.917,122.47z
		 M258.591,126.537c-0.233-0.233-1.273-0.42-3.12-0.561c-1.005-0.07-2.222-0.187-3.646-0.351c-2.15-0.257-2.385-0.082-0.701,0.526
		c1.379,0.421,2.652,1.005,3.822,1.753c0.232,0.164,1.391,0.958,3.471,2.383c0.14-0.093,0.245-0.724,0.314-1.893
		C258.777,127.272,258.73,126.654,258.591,126.537z M259.993,131.796c-0.421-0.538-0.795-0.842-1.122-0.912
		c0.094,0.187,0.256,0.514,0.49,0.981c0.258,0.444,0.434,0.806,0.527,1.087c-0.023,0.093-0.397,0.327-1.123,0.701
		c-0.817,0.397-1.273,0.631-1.367,0.701c0,0.047,0.105,0.058,0.315,0.035c0.795-0.281,1.625-0.702,2.49-1.263
		C260.577,132.894,260.507,132.45,259.993,131.796z M239.659,121.313c-0.165-0.046-0.352,0.012-0.563,0.176l-1.086,0.421
		c-1.1,0.584-2.442,1.191-4.032,1.823c-0.047,0.023-1.402,0.538-4.066,1.543c-0.702,0.256-1.1,0.42-1.192,0.491
		c-0.257,0.116-0.479,0.443-0.667,0.98c-0.326,1.029-0.07,2.828,0.772,5.399c0.187,0.491,0.292,0.748,0.315,0.771
		c0.116,0.14,0.327,0.094,0.631-0.14l0.736-0.526c1.004-0.702,2.688-2.197,5.048-4.488c0.164-0.14,0.257-0.233,0.281-0.28
		c0-0.094-0.024-0.257-0.07-0.491c-0.187-0.631,0-1.344,0.562-2.139c0.209-0.303,0.712-0.818,1.507-1.542
		c1.099-1.123,1.729-1.8,1.894-2.034L239.659,121.313z M240.009,133.479c-1.379,1.589-3.495,3.95-6.346,7.082
		c-0.14,0.141-0.116,0.351,0.07,0.632c0.279,0.303,0.468,0.514,0.561,0.63l5.153,7.258c0.701-0.421,1.905-1.473,3.612-3.156
		c2.407-2.268,3.692-3.459,3.855-3.577c0.421-0.351,0.632-0.549,0.632-0.596c0.094-0.141,0.035-0.351-0.176-0.631
		c-0.374-0.561-0.97-1.227-1.788-1.999c-0.42-0.421-1.052-0.981-1.893-1.683c-0.14-0.164-0.608-0.643-1.402-1.438
		C241.703,135.348,240.943,134.507,240.009,133.479z M228.93,133.83c-0.047-0.023-0.596,0.374-1.647,1.191
		c-0.608,0.491-1.495,1.216-2.665,2.174c-1.075,0.771-2.115,1.332-3.12,1.683c0.141,0.444,0.561,1.694,1.262,3.752
		c0.678,1.846,1.169,3.155,1.473,3.926c0.328,0.071,1.238-0.385,2.734-1.367c1.216-0.748,2.093-1.297,2.63-1.647
		c1.099-0.724,1.939-1.356,2.525-1.894c0.466-0.467,0.712-0.759,0.735-0.876c-0.047-0.117-0.245-0.455-0.596-1.017
		c-0.982-1.402-1.777-2.757-2.384-4.067C229.269,134.448,228.952,133.83,228.93,133.83z M212.451,122.049
		c0.141,0.257,0.211,0.339,0.211,0.246c0.047-0.14,0.093-0.292,0.14-0.456c0-0.654-0.011-1.017-0.035-1.087
		c-0.094-0.187-0.491-0.198-1.191-0.035c0,0.304,0.012,0.479,0.035,0.526c0.093,0.07,0.269,0.176,0.525,0.316L212.451,122.049z
		 M214.87,129.798c-0.022,0.046-0.022,0.152,0,0.315c0.048,0.257-0.022,0.374-0.21,0.351c-0.093-0.047-0.316-0.14-0.666-0.28
		c-0.889-0.491-2.045-0.97-3.471-1.437c-0.234-0.071-0.456,0.35-0.666,1.262c-0.094,0.514-0.188,1.099-0.281,1.753l-0.701,3.576
		c-0.07,0.35,0.06,0.619,0.386,0.806c0.468,0.187,0.795,0.328,0.982,0.421c1.496,0.491,2.875,1.274,4.136,2.349
		c0.89,0.702,1.591,1.333,2.104,1.893c0.515,0.584,1.064,1.379,1.647,2.384l0.176,0.245c0.351,0.538,0.397,0.444,0.141-0.28
		c-0.095-0.445-0.246-0.935-0.456-1.474c-0.069-0.257-0.234-0.981-0.491-2.173c-0.233-0.888-0.432-1.589-0.596-2.104
		c-0.375-0.982-0.21-1.215,0.491-0.701c1.237,1.005,2.114,1.565,2.63,1.683l0.701,0.105c0.233,0,0.292-0.152,0.175-0.456
		c-0.959-3.249-1.614-5.517-1.964-6.801c-0.187-1.169-0.374-1.718-0.561-1.648c-0.233,0.164-0.796,0.257-1.683,0.281
		C215.806,129.891,215.197,129.868,214.87,129.798z M214.31,140c0.047-0.444-0.093-0.807-0.421-1.087
		c-0.654-0.421-1.122-0.678-1.401-0.771c0.678,1.52,1.191,2.606,1.541,3.261C214.217,140.561,214.31,140.093,214.31,140z
		 M222.304,147.152c-0.444,0-0.899-0.094-1.368-0.281c-0.163-0.023-0.326-0.082-0.49-0.175c-0.328-0.093-0.596-0.233-0.807-0.42
		c-0.211-0.164-0.339-0.164-0.386,0v0.175c0.024,0.093,0.047,0.21,0.07,0.351l-0.21,2.559c-0.234,1.964,0,3.448,0.7,4.454
		c0.842,1.004,2.257,1.6,4.243,1.787c1.636,0.117,3.085,0.082,4.348-0.105c0.257,0,0.233-0.188-0.07-0.561
		c-0.981-1.029-1.729-2.162-2.244-3.4c-0.491-0.889-1.134-2.209-1.929-3.963c-0.046-0.117-0.094-0.221-0.14-0.315
		C223.975,147.094,223.402,147.059,222.304,147.152z M52.472,133.654c-0.725-0.374-1.099-0.608-1.122-0.701
		c0.093-0.281,0.269-0.643,0.526-1.087c0.234-0.467,0.397-0.794,0.491-0.981c-0.327,0.07-0.701,0.374-1.122,0.912
		c-0.514,0.654-0.584,1.098-0.211,1.332c0.865,0.561,1.695,0.981,2.49,1.263c0.21,0.023,0.315,0.012,0.315-0.035
		C53.745,134.285,53.29,134.051,52.472,133.654z M53.488,120.682c-0.631-0.117-2.174-0.012-4.628,0.315
		c-2.384,0.28-3.926,0.562-4.628,0.841c-0.491,0.141-0.794,0.351-0.912,0.631c-0.07,0.07-0.199,0.468-0.386,1.192
		c-0.514,2.524-0.607,4.534-0.28,6.03c0.07,0.328,0.21,0.456,0.42,0.386c0.07-0.023,0.269-0.187,0.596-0.491
		c1.005-0.631,2.244-1.215,3.717-1.753c0.584-0.233,1.881-0.689,3.892-1.367c0.21-0.047,0.502-0.14,0.876-0.281
		c0.024-1.239,0.386-2.77,1.087-4.593C53.477,121.195,53.559,120.893,53.488,120.682z M60.115,126.151
		c1.683-0.608,1.449-0.783-0.701-0.526c-1.426,0.164-2.641,0.281-3.646,0.351c-1.847,0.14-2.887,0.327-3.12,0.561
		c-0.14,0.117-0.187,0.736-0.14,1.858c0.07,1.168,0.175,1.8,0.315,1.893c2.08-1.425,3.237-2.22,3.471-2.383
		C57.462,127.156,58.735,126.572,60.115,126.151z M71.229,133.479c-0.935,1.028-1.695,1.869-2.279,2.524
		c-0.794,0.794-1.262,1.273-1.402,1.438c-0.841,0.701-1.472,1.262-1.893,1.683c-0.818,0.771-1.414,1.438-1.788,1.999
		c-0.21,0.281-0.269,0.491-0.175,0.631c0,0.046,0.21,0.245,0.631,0.596c0.164,0.117,1.449,1.309,3.857,3.577
		c1.706,1.683,2.91,2.734,3.611,3.156l5.154-7.258c0.093-0.117,0.28-0.327,0.561-0.63c0.187-0.281,0.21-0.491,0.07-0.632
		C74.723,137.429,72.608,135.068,71.229,133.479z M82.518,125.766c-0.093-0.071-0.491-0.235-1.192-0.491
		c-2.665-1.005-4.021-1.52-4.067-1.543c-1.59-0.631-2.934-1.239-4.032-1.823l-1.086-0.421c-0.21-0.164-0.397-0.222-0.561-0.176
		l-0.07-0.035c0.164,0.234,0.794,0.912,1.893,2.034c0.795,0.724,1.297,1.239,1.508,1.542c0.561,0.795,0.748,1.508,0.561,2.139
		c-0.046,0.234-0.07,0.397-0.07,0.491c0.023,0.047,0.117,0.14,0.281,0.28c2.36,2.291,4.043,3.787,5.048,4.488l0.736,0.526
		c0.304,0.233,0.515,0.28,0.632,0.14c0.023-0.023,0.128-0.28,0.315-0.771c0.842-2.571,1.099-4.371,0.771-5.399
		C82.998,126.209,82.775,125.882,82.518,125.766z M58.677,119.841c-0.537-0.422-1.39-1.041-2.559-1.859
		c-0.514-0.374-0.947-0.245-1.297,0.385c-0.257,0.842-0.467,1.45-0.631,1.824c-0.093,0.21-0.07,0.328,0.07,0.351
		c0.094,0.047,0.315,0.035,0.666-0.035l1.297,0.07c0.281-0.023,1.333-0.023,3.156,0c0.047-0.023,0-0.105-0.14-0.245L58.677,119.841z
		 M59.729,117.912c-2.477-0.888-4.02-1.402-4.627-1.543c-0.397-0.187-0.584-0.257-0.561-0.21c0,0.07,0.141,0.175,0.421,0.315
		c2.407,1.332,4.967,3.272,7.678,5.82c1.613,1.543,3.039,3.074,4.277,4.593c0.749,0.911,1.415,1.811,1.999,2.699l1.472,1.999
		c0.117,0.141,0.292,0.397,0.526,0.771c0.257,0.304,0.479,0.35,0.667,0.14c1.916-2.173,3.026-3.728,3.331-4.664
		c0.233-0.817-2.069-2.676-6.907-5.574c-0.912-0.561-1.729-1.04-2.454-1.438C62.394,118.929,60.454,117.958,59.729,117.912z
		 M61.517,114.125c-0.538,0.187-0.468,0.316,0.21,0.385l3.471,0.351c1.239,0.071,3.109,0.328,5.61,0.772
		c1.122,0.07,2.629,0.303,4.522,0.701c0.14-0.023,0.316,0,0.526,0.07c0.188,0.024,0.246-0.023,0.175-0.14l-0.491-0.351
		c-1.425-1.215-2.665-2.056-3.716-2.524c-1.426-0.654-2.91-0.865-4.453-0.631c-1.285,0.164-2.816,0.503-4.593,1.017
		C62.218,113.915,61.798,114.032,61.517,114.125z M61.307,115.002c-0.374,0-0.292,0.152,0.246,0.456l2.98,1.788
		c0.562,0.328,1.449,0.771,2.665,1.333c1.028,0.491,1.822,0.9,2.384,1.228c0.07,0.023,0.14,0.046,0.21,0.07l0.631,0.42
		c0.188,0.047,0.082-0.163-0.315-0.63l-2.139-1.963c-1.846-1.753-3.728-2.629-5.644-2.629
		C61.833,114.979,61.494,114.955,61.307,115.002z"/>
	<path fill-rule="evenodd" clip-rule="evenodd" fill="#6F131B" d="M158.319,44.881l6.38-4.348l-2.244,7.363l6.136,4.733
		l-7.713,0.175l-2.559,7.293l-2.561-7.293l-7.713-0.175l6.101-4.733l-2.21-7.363L158.319,44.881z M127.886,59.431l4.558-3.471
		l-1.648-5.469l4.733,3.226l4.698-3.226l-1.648,5.469l4.523,3.471l-5.715,0.141l-1.858,5.399l-1.929-5.399L127.886,59.431z
		 M188.295,58.063l-5.715,0.141l-1.858,5.399l-1.929-5.399l-5.714-0.141l4.558-3.47l-1.648-5.47l4.733,3.226l4.697-3.226
		l-1.646,5.47L188.295,58.063z M137.983,197.604c0.865,0.117,1.625,0.352,2.279,0.701c0.654,0.328,1.168,0.783,1.542,1.367
		c0.42,0.561,0.631,1.285,0.631,2.176c0,1.588-0.597,2.768-1.789,3.539c-1.168,0.795-2.898,1.193-5.188,1.193h-3.717v5.574h-3.366
		v-14.762h6.907C136.242,197.393,137.142,197.465,137.983,197.604z M131.743,204.055h3.787c0.608,0,1.145-0.047,1.613-0.141
		c0.42-0.094,0.76-0.232,1.017-0.42c0.28-0.188,0.491-0.408,0.63-0.666c0.117-0.258,0.176-0.561,0.176-0.912
		c0-0.42-0.094-0.76-0.28-1.016c-0.187-0.281-0.433-0.492-0.737-0.631c-0.351-0.141-0.736-0.234-1.157-0.281
		c-0.421-0.047-0.865-0.07-1.332-0.07h-3.717V204.055z M123.995,197.393v14.762h-3.261v-9.467l-3.927,9.467h-2.84l-3.856-9.467
		v9.467h-3.261v-14.762h4.383l4.172,10.484l4.208-10.484H123.995z M97.243,197.357l7.363,14.797h-3.787l-1.963-4.242H92.51
		l-1.893,4.242h-3.541l6.942-14.797H97.243z M93.527,205.598h4.277l-2.209-4.697L93.527,205.598z M84.797,212.154h-3.401v-6.557
		h-7.713v6.557h-3.366v-14.762h3.366v5.68h7.713v-5.68h3.401V212.154z M188.189,197.393v14.762h-3.155l-8.099-9.887v9.887h-3.226
		v-14.762h3.191l8.027,9.889v-9.889H188.189z M194.15,198.34c0.584-0.373,1.286-0.666,2.104-0.875
		c0.817-0.213,1.719-0.316,2.699-0.316c0.981,0,1.882,0.104,2.699,0.316c0.819,0.209,1.544,0.514,2.174,0.91
		c0.607,0.375,1.1,0.865,1.474,1.473c0.374,0.561,0.606,1.205,0.701,1.928h-3.296c-0.375-1.402-1.603-2.104-3.682-2.104
		c-1.076,0-1.904,0.152-2.489,0.457c-0.584,0.303-0.877,0.713-0.877,1.227c0,0.209,0.07,0.408,0.212,0.596
		c0.116,0.141,0.314,0.281,0.595,0.422c0.281,0.115,0.631,0.232,1.052,0.35s0.958,0.234,1.612,0.35
		c0.538,0.094,1.088,0.188,1.648,0.281s1.121,0.223,1.683,0.385c0.538,0.164,1.041,0.352,1.509,0.563
		c0.49,0.232,0.922,0.514,1.296,0.842c0.374,0.303,0.654,0.678,0.842,1.121c0.233,0.443,0.351,0.947,0.351,1.508
		c0,0.678-0.176,1.297-0.526,1.857c-0.35,0.561-0.829,1.053-1.438,1.473c-0.608,0.375-1.332,0.689-2.173,0.947
		c-0.842,0.211-1.753,0.314-2.734,0.314c-1.263,0-2.35-0.115-3.261-0.35c-0.959-0.258-1.754-0.619-2.385-1.088
		c-0.654-0.443-1.157-0.98-1.508-1.611c-0.373-0.631-0.596-1.332-0.666-2.104h3.296c0.094,0.443,0.28,0.84,0.561,1.191
		c0.258,0.326,0.585,0.596,0.982,0.807c0.373,0.232,0.817,0.396,1.332,0.49c0.467,0.117,0.971,0.176,1.508,0.176
		c0.561,0,1.075-0.047,1.542-0.141c0.421-0.094,0.808-0.223,1.158-0.385c0.304-0.188,0.537-0.398,0.701-0.631
		c0.186-0.234,0.279-0.504,0.279-0.807c0-0.281-0.081-0.539-0.245-0.771c-0.163-0.211-0.444-0.408-0.842-0.598
		c-0.373-0.139-0.877-0.279-1.508-0.42c-0.63-0.141-1.39-0.293-2.278-0.455c-1.028-0.188-1.928-0.41-2.699-0.666
		c-0.725-0.234-1.332-0.514-1.823-0.842c-0.468-0.352-0.817-0.76-1.052-1.227c-0.234-0.422-0.351-0.936-0.351-1.543
		s0.163-1.168,0.49-1.684C193.145,199.193,193.59,198.738,194.15,198.34z M170.169,204.756c0,1.123-0.222,2.162-0.667,3.121
		c-0.443,0.91-1.039,1.705-1.787,2.383c-0.772,0.68-1.683,1.193-2.735,1.543c-1.075,0.375-2.255,0.561-3.541,0.561
		s-2.441-0.174-3.471-0.525c-1.074-0.373-1.998-0.898-2.77-1.578c-0.771-0.678-1.367-1.473-1.788-2.383
		c-0.444-0.959-0.666-1.998-0.666-3.121c0-1.145,0.222-2.197,0.666-3.156c0.421-0.91,1.017-1.705,1.788-2.383
		c0.795-0.678,1.718-1.191,2.77-1.543c1.075-0.35,2.232-0.525,3.471-0.525c1.264,0,2.432,0.176,3.507,0.525
		c1.052,0.373,1.975,0.889,2.77,1.543c0.748,0.678,1.344,1.473,1.787,2.383C169.947,202.559,170.169,203.611,170.169,204.756z
		 M156.601,206.93c0.257,0.631,0.62,1.18,1.087,1.648c0.443,0.42,0.992,0.76,1.647,1.016c0.654,0.234,1.355,0.352,2.104,0.352
		c0.772,0,1.473-0.117,2.104-0.352c0.655-0.256,1.216-0.596,1.684-1.016c0.467-0.469,0.83-1.018,1.087-1.648
		s0.385-1.355,0.385-2.174c0-0.842-0.128-1.578-0.385-2.209s-0.62-1.168-1.087-1.611c-0.468-0.445-1.028-0.771-1.684-0.982
		c-0.631-0.234-1.319-0.35-2.067-0.35c-0.772,0-1.473,0.115-2.104,0.35c-0.655,0.234-1.216,0.572-1.684,1.016
		c-0.467,0.422-0.83,0.959-1.087,1.613c-0.281,0.631-0.421,1.355-0.421,2.174S156.319,206.299,156.601,206.93z M149.203,197.393
		v14.762h-3.366v-14.762H149.203z M246.215,197.604c0.864,0.117,1.636,0.352,2.313,0.701c0.632,0.328,1.146,0.783,1.544,1.367
		c0.396,0.561,0.596,1.285,0.596,2.176c0,1.588-0.596,2.768-1.788,3.539c-1.146,0.795-2.875,1.193-5.188,1.193h-3.682v5.574h-3.401
		v-14.762h6.943C244.485,197.393,245.373,197.465,246.215,197.604z M245.373,203.914c0.421-0.094,0.76-0.232,1.017-0.42
		c0.281-0.188,0.49-0.408,0.632-0.666c0.115-0.258,0.175-0.561,0.175-0.912c0-0.42-0.094-0.76-0.281-1.016
		c-0.187-0.281-0.433-0.492-0.735-0.631c-0.352-0.141-0.736-0.234-1.157-0.281c-0.42-0.047-0.865-0.07-1.332-0.07h-3.682v4.137
		h3.751C244.368,204.055,244.905,204.008,245.373,203.914z M232.226,197.393v14.762h-3.331v-14.762H232.226z M224.478,197.393
		v14.762h-3.401v-6.557h-7.713v6.557h-3.366v-14.762h3.366v5.68h7.713v-5.68H224.478z M295.685,204.826
		c-0.21,0.211-0.456,0.316-0.736,0.316H255.12c-0.281,0-0.526-0.105-0.736-0.316c-0.211-0.211-0.315-0.455-0.315-0.736
		s0.104-0.525,0.315-0.736c0.21-0.211,0.455-0.314,0.736-0.314h39.828c0.28,0,0.526,0.104,0.736,0.314S296,203.809,296,204.09
		S295.895,204.615,295.685,204.826z M5.316,203.354c0.21-0.211,0.456-0.314,0.736-0.314H45.88c0.28,0,0.526,0.104,0.736,0.314
		c0.21,0.211,0.315,0.455,0.315,0.736s-0.105,0.525-0.315,0.736c-0.21,0.211-0.456,0.316-0.736,0.316H6.052
		c-0.28,0-0.526-0.105-0.736-0.316C5.105,204.615,5,204.371,5,204.09S5.105,203.564,5.316,203.354z M59.273,197.148
		c0.936,0,1.812,0.117,2.629,0.352c0.842,0.209,1.589,0.525,2.244,0.945c0.654,0.445,1.204,0.971,1.648,1.578
		c0.468,0.584,0.771,1.25,0.912,1.998H63.27c-0.093-0.398-0.257-0.736-0.491-1.018c-0.233-0.303-0.526-0.549-0.877-0.734
		c-0.35-0.234-0.748-0.398-1.191-0.492c-0.444-0.094-0.923-0.141-1.438-0.141c-0.771,0-1.472,0.107-2.104,0.316
		c-0.608,0.211-1.134,0.537-1.578,0.982c-0.421,0.443-0.759,0.98-1.017,1.611c-0.234,0.631-0.35,1.367-0.35,2.209
		c0,0.818,0.116,1.543,0.35,2.174c0.257,0.654,0.596,1.203,1.017,1.648c0.444,0.443,0.97,0.783,1.578,1.016
		c0.631,0.234,1.321,0.352,2.069,0.352c1.075,0,1.975-0.234,2.7-0.701s1.169-1.135,1.332-1.998h3.471
		c-0.14,0.818-0.421,1.553-0.841,2.209c-0.421,0.631-0.947,1.168-1.578,1.611c-0.678,0.422-1.438,0.75-2.279,0.982
		c-0.841,0.211-1.764,0.314-2.77,0.314c-1.309,0-2.477-0.174-3.506-0.525c-1.052-0.373-1.952-0.889-2.7-1.543
		c-0.725-0.654-1.285-1.459-1.683-2.418c-0.397-0.912-0.596-1.951-0.596-3.121s0.199-2.221,0.596-3.156
		c0.421-0.934,0.994-1.729,1.718-2.383c0.724-0.678,1.612-1.191,2.664-1.543C56.819,197.324,57.988,197.148,59.273,197.148z"/>
</g>
</svg>
