<?xml version="1.0" encoding="utf-8"?>
<!-- Generator: Adobe Illustrator 16.0.0, SVG Export Plug-In . SVG Version: 6.00 Build 0)  -->
<!DOCTYPE svg PUBLIC "-//W3C//DTD SVG 1.1//EN" "http://www.w3.org/Graphics/SVG/1.1/DTD/svg11.dtd">
<svg version="1.1" id="Layer_1" xmlns="http://www.w3.org/2000/svg" xmlns:xlink="http://www.w3.org/1999/xlink" x="0px" y="0px"
	 width="300px" height="300px" viewBox="0 0 300 300" enable-background="new 0 0 300 300" xml:space="preserve">
<g>
	<path fill-rule="evenodd" clip-rule="evenodd" fill="#101331" d="M67.47,156.838v1.168c0,0.036-0.878-0.19-2.635-0.68
		c-2.082-0.578-4.028-1.194-5.839-1.847c1.792,0.743,3.766,1.44,5.92,2.092c1.702,0.489,2.553,0.742,2.553,0.76l0.054,1.25
		c0,0.037-0.932-0.208-2.797-0.733c-2.083-0.597-3.992-1.195-5.73-1.792c1.647,0.688,3.585,1.376,5.812,2.064
		c1.811,0.542,2.716,0.823,2.716,0.842v1.113c0,0.072-0.923-0.146-2.77-0.652c-2.119-0.598-4.074-1.249-5.867-1.955
		c1.775,0.742,3.757,1.467,5.948,2.173c1.792,0.524,2.689,0.797,2.689,0.814v1.249c0,0.037-0.905-0.217-2.716-0.76
		c-2.137-0.616-4.101-1.285-5.894-2.01c1.684,0.797,3.63,1.548,5.839,2.255c1.847,0.561,2.77,0.851,2.77,0.868v1.141
		c0,0.072-0.887-0.163-2.662-0.706c-2.027-0.562-3.92-1.177-5.676-1.847c1.612,0.688,3.503,1.385,5.676,2.091
		c1.774,0.543,2.662,0.824,2.662,0.842v1.196c0,0.036-0.96-0.228-2.879-0.789c-2.118-0.67-4.001-1.312-5.649-1.928
		c1.72,0.742,3.666,1.476,5.839,2.2l2.689,0.814v1.223c0,0.055-0.905-0.19-2.716-0.733c-2.137-0.635-4.092-1.321-5.866-2.064
		c1.72,0.778,3.675,1.539,5.866,2.281c1.811,0.562,2.716,0.86,2.716,0.897l0.027,1.221c0,0.055-0.941-0.209-2.825-0.787
		c-2.118-0.671-4.064-1.34-5.839-2.01c1.629,0.724,3.567,1.457,5.812,2.199l2.852,0.923c0,0.652,0.009,0.979,0.027,0.979
		l0.244-13.28l2.526,0.624c2.245,0.599,4.409,1.113,6.491,1.548c-6.011-1.61-9.017-2.471-9.017-2.58l0.027-1.249
		c4.074,1.431,7.469,2.743,10.185,3.939c0.019,0.018,0.027,0.496,0.027,1.438c0,0.055-1.078-0.153-3.232-0.624
		c-2.444-0.544-4.698-1.105-6.763-1.686c1.865,0.635,4.11,1.26,6.736,1.876c2.172,0.506,3.259,0.778,3.259,0.814v1.221
		c0,0.055-1.078-0.163-3.232-0.651c-2.408-0.58-4.663-1.158-6.763-1.738c2.01,0.67,4.3,1.341,6.871,2.01
		c2.064,0.525,3.096,0.797,3.096,0.815l-0.082,1.086c0,0.073-1.05-0.127-3.15-0.598c-2.354-0.543-4.626-1.122-6.817-1.737
		c1.974,0.669,4.246,1.339,6.817,2.01c2.1,0.507,3.15,0.778,3.15,0.814l-0.027,1.113c0,0.054-1.104-0.181-3.313-0.706
		c-2.426-0.598-4.609-1.168-6.546-1.712c1.829,0.58,4.047,1.224,6.654,1.929l3.15,0.897v1.059c0,0.035-1.023-0.173-3.069-0.625
		c-2.354-0.508-4.645-1.06-6.871-1.657c2.191,0.707,4.535,1.376,7.034,2.011c1.938,0.488,2.906,0.742,2.906,0.76l-0.027,1.168
		c0,0.055-1.177-0.208-3.531-0.788c-2.517-0.597-4.644-1.14-6.382-1.629c1.575,0.543,3.729,1.177,6.463,1.9
		c2.3,0.58,3.449,0.889,3.449,0.924v1.196c0,0.054-1.131-0.183-3.395-0.707c-2.517-0.598-4.681-1.168-6.491-1.71
		c1.684,0.578,3.856,1.221,6.518,1.927c2.246,0.562,3.368,0.851,3.368,0.87l0.027,1.167c0,0.055-1.123-0.19-3.368-0.732
		c-2.444-0.634-4.625-1.232-6.545-1.793c2.897,0.979,6.201,1.964,9.913,2.96l0.081,1.169c0.018,0,0.136-2.979,0.353-8.937
		c0.562,0.127,1.358,0.299,2.391,0.517c2.082,0.452,4.183,0.824,6.301,1.113c-2.426-0.452-4.563-0.905-6.41-1.358
		c-1.503-0.361-2.254-0.569-2.254-0.623l0.027-1.143c0-0.108,1.964,0.264,5.894,1.114c-3.947-0.96-5.894-1.485-5.839-1.574
		l0.027-1.033c0-0.072,1.213,0.136,3.639,0.625c-0.58-0.145-1.322-0.363-2.227-0.652c-0.941-0.325-1.412-0.516-1.412-0.57
		c0.054-0.851,0.091-1.276,0.108-1.276c0.435,0.309,1.005,0.615,1.711,0.924c0.724,0.362,1.186,0.616,1.385,0.76
		c-1.63-1.286-4.78-2.934-9.452-4.942c-3.584-1.54-6.038-2.508-7.36-2.906c-5.359-1.756-10.229-3.295-14.611-4.617
		c-1.626-0.498-3.052-0.923-4.277-1.276c-2.601-0.748-4.29-1.164-5.065-1.25c1.278,0.119,3.111,0.467,5.5,1.046
		c1.636,0.394,3.532,0.896,5.69,1.508c4.654,1.322,8.908,2.661,12.765,4.02c5.975,2.117,10.547,3.946,13.715,5.484
		c3.947,1.92,6.292,3.631,7.035,5.134c0.651,0.96,1.122,1.612,1.412,1.955c0.471,0.508,1.141,0.97,2.01,1.387l0.733,0.325
		c0.036,0,0.054,0.28,0.054,0.842c0,0.072-1.132-0.091-3.395-0.488c-2.625-0.436-5.214-0.96-7.768-1.575
		c2.3,0.633,4.871,1.239,7.713,1.819l3.449,0.678l-0.054,1.169c0,0.036-1.132-0.146-3.395-0.544
		c-2.607-0.471-5.188-0.995-7.74-1.575c3.911,1.015,7.622,1.856,11.135,2.526l-0.028,1.168c0,0.054-1.14-0.126-3.421-0.543
		c-2.68-0.454-5.296-0.978-7.849-1.576c2.426,0.634,5.061,1.25,7.903,1.848c2.245,0.452,3.367,0.688,3.367,0.705v1.142
		c0,0.054-1.14-0.145-3.421-0.598c-2.626-0.471-5.242-0.996-7.849-1.576c3.748,1.015,7.496,1.856,11.244,2.526v1.195
		c0,0.055-1.159-0.127-3.476-0.543c-2.662-0.508-5.287-1.05-7.876-1.63c4.001,1.032,7.785,1.893,11.352,2.58
		c-0.036,0.507-0.036,0.933,0,1.276c0.018,0.019,0.063-0.362,0.136-1.141c0.761,0.127,1.802,0.3,3.124,0.516
		c2.697,0.417,5.449,0.697,8.255,0.843c-4.182-0.344-7.966-0.95-11.352-1.82c0.326-4.636,0.498-6.943,0.516-6.925l3.123,1.276
		c-1.991-0.235-2.951-0.336-2.879-0.3l3.531,0.544c1.992,0.778,3.567,1.458,4.726,2.037c-4.074-0.362-6.826-0.706-8.256-1.032
		c0.308,0.198,1.883,0.471,4.726,0.814c1.412,0.199,2.807,0.381,4.183,0.544c1.05,0.543,1.828,1.067,2.335,1.575
		c0.036,0.054-1.096-0.055-3.396-0.326c-2.606-0.326-5.286-0.688-8.039-1.086c4.02,0.832,7.939,1.431,11.76,1.791
		c0.29,0.381,0.462,0.788,0.516,1.223c0,0.108-1.25,0.027-3.748-0.244c-2.933-0.29-5.839-0.688-8.718-1.194
		c2.988,0.669,5.966,1.176,8.936,1.521c1.449,0.181,2.598,0.29,3.449,0.326c-0.09,0.307-0.199,0.578-0.325,0.814
		c0,2.046-1.775,3.033-5.324,2.96c-1.611-0.036-4.1-0.39-7.468-1.059c2.227,0.397,4.264,0.643,6.111,0.733
		c3.096,0.162,4.925-0.21,5.486-1.114c0.199-0.326,0.28-0.534,0.244-0.624c-0.054-0.073-0.244-0.055-0.57,0.054
		c-3.259,1.015-10.492,0.082-21.7-2.797c-8.655-2.209-15.309-4.247-19.962-6.11c-12.263-4.94-19.32-9.68-21.17-14.219
		c-0.498-1.211-0.62-2.411-0.367-3.599c0.037-0.108,0.2-0.19,0.489-0.244c0.398-0.055,0.724-0.1,0.978-0.136
		c0.65,0.59,1.153,1.038,1.507,1.345c0.379,0.334,0.583,0.502,0.611,0.502l-1.874-1.901l0.625-0.163
		c0.761,0.543,1.159,0.814,1.195,0.814c-0.615-0.615-0.914-0.932-0.896-0.951l1.059-0.516l0.054,3.938
		c-0.57-0.369-1.068-0.741-1.494-1.113c-0.495-0.44-0.894-0.884-1.195-1.332c0.237,0.415,0.613,0.877,1.127,1.384
		c0.424,0.431,0.945,0.893,1.562,1.387v0.842c-0.893-0.64-1.594-1.214-2.104-1.725c-0.403-0.397-0.688-0.754-0.856-1.073
		c0.085,0.255,0.353,0.63,0.801,1.126c0.213,0.237,0.471,0.504,0.774,0.802c0.489,0.452,0.951,0.878,1.385,1.276l0.054,1.005
		c-1.321-0.918-2.236-1.76-2.743-2.525c-0.084-0.132-0.156-0.259-0.218-0.381c0.041,0.126,0.104,0.261,0.19,0.407
		c0.265,0.446,0.745,0.989,1.44,1.63c0.471,0.452,0.914,0.851,1.33,1.195l0.027,2.172c0.049-0.032,0.09-2.545,0.122-7.536
		c0.005-0.513,0.01-1.052,0.014-1.616c1.159-0.67,1.82-0.986,1.982-0.951c0.569,0.142,1.04,0.278,1.413,0.407
		c0.153,0.057,0.289,0.111,0.407,0.163v0.326c0,0.036-0.227-0.027-0.679-0.191c-0.063-0.021-0.127-0.045-0.19-0.067
		c-0.423-0.156-0.785-0.305-1.086-0.447c0.201,0.137,0.509,0.313,0.923,0.529c0.29,0.147,0.633,0.314,1.032,0.502l0.054,1.005
		c0,0.054-0.389-0.109-1.168-0.489c-0.329-0.157-0.628-0.307-0.896-0.448c-0.379-0.201-0.696-0.387-0.951-0.557
		c0.149,0.141,0.438,0.344,0.869,0.611c0.514,0.321,1.229,0.733,2.146,1.235l0.027,1.005c0,0.054-0.462-0.172-1.385-0.679
		c-0.692-0.34-1.267-0.647-1.725-0.924c-0.198-0.125-0.375-0.243-0.529-0.353c0.148,0.122,0.312,0.249,0.489,0.381
		c0.778,0.566,1.838,1.219,3.178,1.954l0.054,1.061c-1.974-0.979-3.223-1.693-3.748-2.146c0.417,0.453,1.666,1.322,3.748,2.608
		l0.027,0.977c0,0.036-0.444-0.208-1.331-0.732c-0.941-0.58-1.774-1.123-2.499-1.63c0.996,0.814,2.272,1.729,3.83,2.743l0.026,1.142
		c-1.755-0.979-3.023-1.802-3.802-2.473c0.417,0.489,1.684,1.395,3.802,2.717v0.923c-2.009-1.123-3.277-1.938-3.802-2.444
		c0.199,0.326,1.485,1.285,3.857,2.879v1.113c-2.209-1.448-3.531-2.363-3.966-2.744c0.38,0.417,1.702,1.422,3.966,3.016l0.054,1.168
		c-1.938-1.285-3.295-2.264-4.074-2.934c0.489,0.525,1.846,1.612,4.074,3.26l0.027,0.814c0.054,0.036,0.054-4.165,0-12.602
		l5.268,1.548l0.055,1.222c-2.01-0.742-3.711-1.467-5.106-2.173c1.358,0.796,3.069,1.602,5.133,2.417l0.027,1.222
		c0,0.055-0.606-0.172-1.82-0.679c-1.303-0.562-2.39-1.086-3.259-1.575c1.412,0.833,3.105,1.71,5.079,2.633l0.055,1.114
		c0,0.036-0.589-0.199-1.766-0.706c-1.286-0.562-2.408-1.123-3.368-1.684c1.412,0.941,3.123,1.837,5.133,2.688l0.027,1.086
		c0,0.055-0.498-0.127-1.494-0.543c-1.213-0.507-2.435-1.123-3.667-1.847c1.105,0.706,2.317,1.395,3.639,2.064
		c0.633,0.325,1.15,0.578,1.548,0.761l0.054,1.112c-1.738-0.597-3.486-1.457-5.242-2.58c1.014,0.725,2.2,1.422,3.558,2.092
		c0.652,0.326,1.213,0.588,1.684,0.788l0.027,1.249c-1.829-0.725-3.603-1.585-5.323-2.58c1.684,1.104,3.458,2.056,5.323,2.852v1.222
		c0,0.072-0.58-0.198-1.738-0.814c-1.34-0.671-2.517-1.34-3.531-2.009c1.774,1.284,3.549,2.316,5.323,3.096l0.027,1.167
		c-2.136-0.959-3.884-1.883-5.242-2.77c1.231,0.941,2.979,1.965,5.242,3.068l0.027,1.169c0,0.053-0.615-0.228-1.847-0.843
		c-1.394-0.724-2.563-1.385-3.504-1.982c1.358,0.995,3.142,2.037,5.351,3.123c0,0.525,0.027,0.787,0.082,0.787
		c0.018,0,0.018-2.335,0-7.007c-0.055-4.671-0.055-6.998,0-6.979c2.987,1.013,5.278,1.738,6.871,2.172
		c0.055,0,0.082,0.543,0.082,1.63c0,0.035-0.706-0.19-2.119-0.68c-1.557-0.525-3.068-1.077-4.536-1.656
		c1.286,0.579,2.798,1.194,4.536,1.847l2.119,0.76l0.027,1.331c0,0.019-0.697-0.217-2.091-0.706
		c-1.647-0.579-3.205-1.167-4.672-1.765c1.358,0.615,2.906,1.276,4.645,1.982l2.119,0.787l0.027,1.142
		c0,0.053-0.724-0.182-2.173-0.707c-1.647-0.561-3.177-1.149-4.59-1.766c2.155,1.068,4.409,2.011,6.763,2.825v1.222
		c0,0.036-0.688-0.199-2.064-0.706c-1.575-0.579-3.123-1.195-4.645-1.847c2.264,1.067,4.509,2.055,6.735,2.961v1.14
		c0,0.018-0.688-0.234-2.063-0.76c-1.647-0.634-3.205-1.269-4.672-1.901c2.264,1.104,4.509,2.092,6.735,2.961l0.028,1.194
		c0,0.055-0.707-0.19-2.119-0.733c-1.684-0.598-3.214-1.213-4.589-1.847c2.317,1.159,4.553,2.109,6.708,2.852v1.25
		c0,0.054-0.688-0.182-2.064-0.707c-1.648-0.633-3.24-1.304-4.78-2.009c2.427,1.23,4.708,2.209,6.845,2.933l0.054,1.276
		c0,0.055-0.715-0.199-2.146-0.761c-1.702-0.651-3.259-1.313-4.672-1.982c2.282,1.214,4.554,2.209,6.817,2.987l0.027,1.25
		c0,0.036-0.815-0.263-2.445-0.896c-1.792-0.706-3.286-1.34-4.481-1.901c2.028,1.051,4.337,2.092,6.926,3.123l0.027,1.005
		c0.055,0.019,0.091-4.979,0.108-14.991c3.078,0.996,5.984,1.974,8.718,2.933l0.027,1.331c0,0.055-0.959-0.189-2.879-0.732
		c-2.118-0.599-4.01-1.195-5.676-1.793c1.503,0.651,3.395,1.33,5.676,2.037C66.51,156.521,67.47,156.82,67.47,156.838z M72.1,143.87
		c-0.105-0.031-0.209-0.063-0.312-0.095c-12.294-3.82-19.953-5.567-22.977-5.242c2.354-0.651,10.211,1.042,23.574,5.079
		c0.179,0.054,0.355,0.108,0.53,0.163c12.749,3.854,19.516,6.354,20.301,7.496c0.67,1.015,1.621,1.693,2.852,2.037
		c1.268,0.326,2.381,0.199,3.34-0.381c7.768-4.581,13.625-7.993,17.572-10.239c1.811-1.014,3.196-1.692,4.155-2.037l0.76-0.163
		l0.951-0.082l1.575,0.136l4.645,0.95c0.869,0.253,1.837,0.561,2.906,0.923l3.34,1.413c0.543,0.271,1.141,0.607,1.792,1.005
		l1.467,1.114l0.788,0.842l0.271,0.407c0.145,0.217,0.245,0.434,0.298,0.652c0.163,0.417,0.281,0.887,0.354,1.412
		c0.108,1.611-0.127,3.188-0.707,4.726l-0.244,0.598l-1.06,1.412l-1.493,1.195l-1.848,0.978l-4.535,1.358l-9.669,1.113
		c-0.742,0-1.049,0.108-0.923,0.326c0.036,0.108,0.452,0.471,1.249,1.087c2.317,1.755,4.02,3.692,5.106,5.811
		c-3.368-4.779-6.636-7.169-9.804-7.169l-8.229-0.272c-1.521-0.127-2.997-0.262-4.427-0.406c-1.322-0.182-2.127-0.309-2.417-0.381
		c-1.557-0.398-2.725-1.041-3.504-1.929l-0.326-0.434l-0.217-0.57l-0.108-0.436l0.027-0.843l0.108-0.379l0.353-0.652
		c-0.145-0.054-0.652-0.189-1.521-0.407c-0.036,0-1.738,1.457-5.106,4.373c-3.367,2.933-5.079,4.391-5.133,4.372
		c-0.019,0,1.566-1.502,4.752-4.508c3.187-3.006,4.762-4.519,4.726-4.536c-0.978-0.416-1.837-1.077-2.58-1.982
		c-6.12,3.53-9.207,5.27-9.261,5.215c-0.019-0.018,1.466-0.942,4.454-2.771c2.987-1.847,4.455-2.788,4.4-2.824
		C90.302,149.925,83.552,147.44,72.1,143.87z M52.233,123.895c-0.036,0.163,0.108,0.263,0.435,0.298
		c3.404,0.743,6.292,1.748,8.664,3.015c-0.145-0.036-1.774,1.024-4.889,3.178c-3.332,2.281-6.536,4.572-9.614,6.872
		c-0.326,0.217-0.489,0.489-0.489,0.814c0.036,0.272,0.154,0.48,0.353,0.625c0.29,0.253,0.652,0.217,1.086-0.109
		c4.907-3.676,9.723-6.971,14.449-9.886c8.636-5.288,15.146-8.13,19.527-8.528c-3.421,0.417-8.691,2.653-15.806,6.708
		c-6.681,3.82-12.855,7.984-18.522,12.493c-3.893,3.078-6.545,5.441-7.958,7.088c1.757-2.154,4.065-4.391,6.926-6.708
		c0.434-0.38,0.479-0.697,0.135-0.95c-0.235-0.253-0.417-0.435-0.543-0.543c-0.054-0.054-0.154-0.072-0.298-0.054
		c-0.127,0-0.254,0.054-0.381,0.163l-1.276,1.005c1.774-1.629,3.531-3.132,5.269-4.509c-0.797,0.109-1.467-0.344-2.01-1.358
		c-0.562-1.032-0.751-2.154-0.571-3.367c-0.036,1.176,0.227,2.245,0.788,3.205c0.561,1.014,1.231,1.476,2.01,1.385l1.901-1.494
		c0.598-3.765,0.1-5.721-1.494-5.866c-0.543-0.072-1.132,0.117-1.766,0.57c-0.615,0.435-0.959,0.86-1.032,1.277
		c0.036-0.562,0.38-1.096,1.032-1.603c0.652-0.543,1.313-0.815,1.983-0.815c1.81,0.054,2.489,2,2.037,5.839
		c2.499-1.738,4.345-3.069,5.541-3.992c-0.67-0.761-1.448-0.969-2.336-0.625c-0.887,0.398-1.421,1.231-1.603,2.499
		c0.163-1.43,0.661-2.426,1.494-2.987c0.924-0.58,1.929-0.335,3.015,0.733c1.177-0.814,1.756-1.231,1.738-1.249
		c-1.395-0.471-2.879-0.87-4.454-1.195c-2.155-0.416-4.418,0.018-6.79,1.303c0.851-0.488,1.484-0.851,1.901-1.086
		c0.778-0.453,0.616-0.715-0.489-0.787c-0.724,0-1.792,0.471-3.205,1.413c-3.114,2.1-5.604,4.436-7.469,7.007
		c-0.525,0.742-0.706,1.847-0.543,3.313c0.254,1.955,1.512,2.896,3.775,2.825c-2.535,0.343-4.038-0.499-4.508-2.527l-0.108-0.732
		c-0.055-0.381-0.182-0.381-0.38,0c-0.688,4.997-0.29,8.292,1.195,9.886c-0.471-0.398-0.878-1.042-1.222-1.929
		c-0.561-1.448-0.779-3.195-0.652-5.241l0.109-0.842c0.036-0.164,0.018-0.245-0.055-0.245c-0.072-0.018-0.136,0.027-0.19,0.136
		l-0.271,0.76c-0.706,2.173-1.131,4.491-1.276,6.954c0,0.58,0.054,1.539,0.163,2.879c0.326,0.018,0.579,0.036,0.76,0.054
		c0.633-0.019,1.294-0.082,1.982-0.19c1.412-0.272,2.472-0.688,3.178-1.249c-0.471,0.543-1.439,0.986-2.906,1.33
		c-0.742,0.164-1.421,0.281-2.037,0.354c-0.254,1.649,0.022,3.289,0.828,4.917c2.353,4.762,9.22,9.442,20.601,14.041
		c7.804,3.132,16.477,5.902,26.019,8.311c-7.985-1.63-15.743-3.82-23.275-6.572c-13.087-4.735-21.045-9.773-23.873-15.114
		c-0.385-0.722-0.674-1.45-0.869-2.188l0.543,4.103c0.09,0.615,0.425,1.521,1.004,2.715c0.597,1.249,0.951,2.138,1.059,2.661
		c2.861,5.469,12.557,11.027,29.087,16.677c10.792,3.711,19.419,6.138,25.883,7.279c0.126,0.434,0.145,1.448,0.054,3.041
		c-0.091,0.253,3.241,0.761,9.995,1.521c8.013,0.889,16.749,1.382,26.208,1.479c0.755,0.008,1.515,0.012,2.281,0.015
		c-0.792,0.026-1.584,0.049-2.376,0.067c-6.353,0.148-12.749,0.053-19.188-0.285c-8.202-0.398-15.462-1.14-21.782-2.227
		c-4.617-0.797-9.587-1.974-14.91-3.53c-7.098-2.083-13.679-4.518-19.745-7.306c11.171,5.431,22.723,9.171,34.655,11.217
		c6.735,1.14,13.915,1.854,21.538,2.145c3.005,0.127,6.328,0.218,9.967,0.271c-5.576,0.091-10.719,0.02-15.426-0.217
		c-4.997-0.253-8.999-0.624-12.004-1.112c-10.718-0.942-21.383-3.749-31.993-8.42c-9.343-4.11-16.422-8.574-21.238-13.391
		c2.118,5.16,6.971,9.696,14.557,13.606c2.625,1.395,8.944,3.975,18.957,7.741c8.129,3.061,17.599,5.015,28.408,5.866
		c7.85,0.612,15.545,0.591,23.085-0.068c2.48-0.216,4.943-0.502,7.387-0.854c2.553,1.284,5.386,2.191,8.5,2.715
		c2.952,0.507,5.215,0.525,6.79,0.055c1.539-0.488,3.033-1.529,4.481-3.123c1.357-1.431,2.525-3.169,3.504-5.214
		c-0.779,1.412-1.721,2.644-2.825,3.692c-4.599,2.317-7.025,0.344-7.279-5.92c-0.163-4.219,0.507-9.018,2.01-14.395
		c-1.756,5.649-2.67,10.502-2.743,14.557c-0.072,6.302,2.263,8.528,7.007,6.682c-1.593,1.394-3.132,2.372-4.617,2.933
		c-0.543,0.199-1.313,0.264-2.309,0.191c-0.452-0.127-0.96-1.549-1.521-4.265c-0.598-2.662-0.869-4.998-0.815-7.007
		c-0.145,2.643-0.018,5.07,0.38,7.278c0.344,2.047,0.769,3.359,1.277,3.938l-1.847-0.325c-0.326-0.289-0.643-1.565-0.951-3.83
		c-0.326-2.136-0.48-3.784-0.461-4.942c-0.108,1.34-0.108,3.005,0,4.997c0.126,2.047,0.298,3.241,0.516,3.585l-1.738-0.407
		c-0.29-0.253-0.543-1.367-0.761-3.34c-0.181-1.938-0.218-3.413-0.109-4.428c-0.145,1.051-0.216,2.427-0.216,4.128
		c0,1.883,0.107,3.033,0.325,3.45l-1.412-0.354c-0.218-0.199-0.39-0.562-0.516-1.087c-0.163-0.598-0.172-1.068-0.027-1.412
		c-0.2,0.326-0.317,0.725-0.354,1.195c-0.073,0.434-0.054,0.778,0.054,1.032c-0.959-0.271-1.693-0.525-2.2-0.761
		c0.363,0.055,0.833-0.182,1.413-0.706c0.508-0.488,0.842-0.933,1.005-1.331c2.227-5.377,3.557-8.563,3.992-9.56
		c0.018-0.018-0.018,0.452-0.109,1.412c-0.054,1.122-0.063,1.956-0.027,2.499c0.055-1.54,0.118-2.509,0.19-2.906
		c0.126-1.033,0.362-1.956,0.707-2.771l1.059-2.363c0.018-0.018-0.037,0.453-0.163,1.413c-0.091,1.177-0.091,2.064,0,2.662
		c0.109-1.595,0.181-2.581,0.217-2.962c0.109-1.104,0.335-2.063,0.679-2.878l0.028-0.068l0.652-1.344
		c0.29-0.707,0.661-1.503,1.114-2.391c-3.296-0.307-9.769,0-19.419,0.924c-7.858,0.76-13.235,0.525-16.132-0.706
		c5.885-0.072,11.787-0.182,17.708-0.326c10.566-0.21,16.551-0.464,17.952-0.761c0.165-0.035,0.264-0.07,0.299-0.108
		c0.669-1.502,0.425-2.154-0.733-1.956l-2.471,0.408c-8.203,1.087-13.2,0.28-14.992-2.418c0.743,0.997,2.146,1.693,4.209,2.092
		c1.956,0.416,4.138,0.489,6.545,0.218c1.604-0.182,3.047-0.463,4.332-0.842c3.318-0.974,5.56-2.603,6.722-4.89
		c1.938-3.766,3.649-6.798,5.133-9.098c1.177-1.684,2.01-2.879,2.498-3.585c0.199-0.29,0.517-0.562,0.951-0.814
		c0.562-0.345,1.014-0.462,1.357-0.354c2.246,0.797,3.404,3.947,3.477,9.451c0.019,3.603-0.316,7.125-1.005,10.565
		c0.905-3.93,1.367-7.604,1.385-11.026c0-5.596-1.385-8.899-4.155-9.914c1.848-1.629,3.513-2.127,4.998-1.493
		c1.684,0.706,1.883,4.679,0.598,11.922c-0.905,5.159-1.92,9.37-3.042,12.628c1.503-1.683,2.58-2.859,3.231-3.53
		c2.209-4.599,3.856-8.347,4.943-11.243c2.028-5.469,3.06-10.085,3.096-13.851l-0.651,0.407c-0.018,0.018-0.055,0.389-0.108,1.114
		c-0.146,0.742-0.462,1.167-0.951,1.276c0.778-0.507,1.022-1.25,0.733-2.227l-0.434,0.271c-0.019,0-0.046,0.208-0.082,0.625
		c-0.019,0.417-0.055,0.67-0.109,0.76c-0.471,0.543-1.14,0.942-2.01,1.195c-0.742,0.217-1.43,0.281-2.064,0.19
		c-0.145-0.019-0.217-0.135-0.217-0.353v-0.299c-1.23,0.326-1.476-0.154-0.733-1.438c-0.634,1.357,0.281,1.448,2.744,0.271
		c2.589-1.249,3.883-2.01,3.883-2.282v-1.004c-0.036-2.137-0.262-3.884-0.679-5.242c-0.543-1.684-1.403-2.906-2.58-3.666
		c2.662,1.593,3.938,4.825,3.83,9.695c1.846-0.742,2.072-1.167,0.679-1.276c1.213-0.126,1.457,0.127,0.733,0.761
		c-0.363,0.289-0.852,0.625-1.468,1.005c-0.181,4.183-1.33,9.307-3.448,15.372c-1.051,3.041-2.056,5.621-3.015,7.74
		c2.57-2.787,4.372-4.807,5.404-6.056c3.313,0.796,7.062,1.194,11.244,1.194c0.688-0.019,1.077-0.036,1.168-0.055
		c0.344-0.145,0.66-0.525,0.95-1.14c2.554-5.722,4.011-11.589,4.373-17.6c-0.362,3.748-1.087,7.406-2.174,10.971
		c-0.778,2.591-1.593,4.718-2.443,6.384c-0.398,0.706-1.022,1.022-1.874,0.951c-0.398-0.96-0.479-3.006-0.244-6.139
		c-0.309,1.593-0.398,3.657-0.271,6.191h-1.087c-0.108-0.108-0.182-0.797-0.218-2.063c-0.036-1.231-0.009-2.362,0.082-3.395
		c-0.072,0.181-0.154,0.969-0.244,2.362c-0.146,1.63-0.2,2.662-0.163,3.096l-1.06-0.053c-0.345-1.377-0.381-3.459-0.108-6.248
		c-0.127,0.544-0.236,1.612-0.326,3.205c-0.091,1.558-0.118,2.562-0.082,3.015c-0.253,0-0.678-0.019-1.276-0.054
		c-0.38-0.815-0.471-2.236-0.271-4.265c-0.309,1.594-0.436,2.979-0.381,4.154l-1.439-0.243c-0.199-0.271-0.335-0.524-0.407-0.761
		c-0.091-0.507-0.054-1.285,0.108-2.336c-0.344,1.504-0.47,2.49-0.381,2.962l-1.194-0.245c-0.09-0.055-0.162-0.154-0.217-0.299
		c-0.073-0.309-0.045-0.706,0.081-1.194c-0.235,0.416-0.334,0.868-0.299,1.357c-0.58-0.182-0.978-0.426-1.194-0.733
		c0.217-0.146,0.805-1.015,1.765-2.607c1.285-2.027,2.436-4.174,3.449-6.437c3.023-6.663,4.409-12.801,4.156-18.414
		c0.308,4.436-0.154,8.908-1.386,13.417c-0.906,3.295-2.182,6.473-3.83,9.533l-0.814,1.467c-0.163,0.272-0.199,0.498-0.108,0.679
		c0.127,0.218,0.38,0.182,0.761-0.108l1.712-1.141c2.189-1.593,3.792-3.224,4.806-4.889c0.959-1.539,1.838-3.883,2.634-7.034
		c0.779-3.079,2.191-5.867,4.237-8.366c1.938-2.408,1.946-0.598,0.027,5.432c1.901-3.531,2.39-6.183,1.467-7.957
		c-0.435-0.815-0.824-2.083-1.168-3.803c-0.326-1.611-0.553-2.49-0.679-2.635c-0.29-0.452-0.715-0.841-1.276-1.167
		c-0.471-0.253-1.186-0.543-2.146-0.869c0,0.652-0.208,1.367-0.625,2.146c-0.598,1.141-1.466,1.883-2.607,2.227
		c-1.485,0.453-3.63,0.516-6.437,0.19c-2.915-0.29-5.405-0.153-7.469,0.408c1.558-0.489,3.231-0.761,5.024-0.815
		c0.235,0,0.299-0.091,0.189-0.272c-0.144-0.217-0.506-0.525-1.086-0.923c1.667,0.941,3.631,1.413,5.894,1.413
		c1.485,0,2.788-0.181,3.911-0.543c1.032-0.326,1.729-1.168,2.091-2.526c0.399-1.394,0.073-2.29-0.977-2.688
		c-0.852-0.326-1.748-0.526-2.69-0.598c-2.153-0.126-4.154-0.181-6.002-0.163c-0.651,0.308-1.385,0.996-2.198,2.064
		c-0.961,1.303-1.477,1.992-1.549,2.064c-0.471,0.417-1.014-0.208-1.63-1.874c-0.634-2.028-1.076-3.322-1.331-3.883
		c0.29,0.489,0.814,1.847,1.575,4.074c0.453,1.268,0.896,1.71,1.331,1.331c0.109-0.072,0.598-0.742,1.467-2.009
		c0.742-1.086,1.494-1.784,2.254-2.092c0.852,0.036,1.893,0.027,3.124-0.027c0.941-0.055,1.674-0.055,2.199,0
		c-0.398-1.358-0.797-2.435-1.195-3.232c-0.416-0.923-1.131-2.019-2.146-3.286c-1.394-1.738-2.688-2.833-3.884-3.286
		c-3.657-1.449-5.748,3.068-6.272,13.552l-0.028,0.706c0,0.271,0.028,0.271,0.082,0l0.109-0.706c0.325-2.373,0.705-4.029,1.14-4.97
		c-0.344,1.213-0.67,2.96-0.977,5.242c-0.2,1.611-0.318,2.806-0.354,3.585c-0.054-1.033-0.397-1.883-1.031-2.553
		c-0.271-0.271-1.032-0.833-2.281-1.684c0.959,0.579,1.918,1.204,2.879,1.874c0.091,0.072,0.172,0.063,0.244-0.028
		c0.072-0.072,0.107-0.189,0.107-0.352l0.082-2.5c0.146-4.598,0.58-8.021,1.305-10.266c0.597-1.901,1.439-3.033,2.524-3.395
		c0.345-0.109,0.662-0.163,0.951-0.163c0.344,0,0.57-0.064,0.68-0.19c0.144-0.181-0.019-0.39-0.489-0.625l-0.705-0.271
		c-0.979-0.345-1.857-0.634-2.636-0.869c-1.031-0.109-2.027,2.19-2.987,6.898c-1.467,6.953-2.372,10.918-2.716,11.896
		c0.58-2.227,1.295-6.274,2.146-12.141c0.597-4.146,1.268-6.518,2.01-7.115c-6.192-1.702-13.19-3.042-20.994-4.02
		c-9.106-1.159-16.793-1.431-23.058-0.815l-2.009,0.299c5.033,0.308,10.691,0.778,16.974,1.413
		c12.62,1.322,21.627,2.924,27.023,4.807c-0.561,0.363-1.041,2.2-1.439,5.514c-0.579,4.798-1.267,8.772-2.063,11.923l-1.82-0.245
		c0.924,0.67,1.63,1.666,2.119,2.988c0.326,0.905,0.498,1.765,0.516,2.58c-8.492-2.101-19.958-0.951-34.396,3.449
		c-0.122,0.035-0.244,0.071-0.367,0.109c-13.978,4.292-24.244,9.47-30.798,15.534c-0.217,0.073-0.76-0.107-1.629-0.542
		c-0.996-0.507-1.602-1.051-1.819-1.63c9.754-6.031,20.708-10.68,32.862-13.946c2.625-0.702,5.304-1.339,8.039-1.915
		c6.21-1.304,11.905-2.083,17.083-2.336c4.889-0.234,8.464,0.019,10.728,0.761c-0.217-1.195-0.534-2.209-0.95-3.042
		c-0.652-1.304-1.449-2.028-2.391-2.172l-3.041-0.571c3.748,0.362,5.657,0.444,5.73,0.244c0.289-1.538,0.688-3.92,1.194-7.143
		c0.562-3.513,0.934-6.083,1.114-7.713l0.027-0.543c0.054-0.38,0.045-0.643-0.027-0.788c-0.091-0.199-0.309-0.335-0.652-0.408
		l-0.462-0.163c-6.445-1.937-15.599-3.468-27.457-4.589c-5.976-0.562-11.344-0.924-16.105-1.087
		c-2.137,0.616-4.69,1.648-7.659,3.096c-1.666,0.815-4.047,1.992-7.143,3.531c-3.694,2.1-5.64,3.195-5.84,3.286
		c0-0.036,0.824-0.579,2.472-1.629c1.629-1.032,2.444-1.566,2.444-1.603c-0.2-0.779-0.959-1.285-2.281-1.521
		c-1.34-0.254-2.462-0.063-3.368,0.57c-1.032,0.688-1.286,1.458-0.761,2.309c0.778,1.177,1.15,1.874,1.113,2.091
		c-0.398,0.38-0.806,0.697-1.222,0.951c8.003,1.394,16.332,2.861,24.986,4.4c17.381,3.06,27.476,5.033,30.282,5.92
		c-2.516-0.562-5.432-1.123-8.744-1.684c-3.767,0.471-8.483,1.258-14.15,2.363c-8.711,1.75-17.004,3.751-24.877,6.002
		c-2.31,0.657-4.583,1.336-6.817,2.037c1.068-0.71,2.552-1.434,4.454-2.172c4.471-1.731,11.243-3.542,20.315-5.432
		c6.427-1.34,12.448-2.462,18.061-3.368c-11.244-2.009-22.896-4.01-34.954-6.001c-2.028-0.308-6.491,0.715-13.389,3.069
		c-7.061,2.372-11.995,4.689-14.802,6.953c2.879-2.426,6.491-4.545,10.836-6.355c-1.068-0.471-1.575-0.725-1.521-0.761
		c1.485-0.561,2.915-1.041,4.292-1.439c0.452-0.126,1.693-0.435,3.72-0.923c0.055-0.018,1.15-0.009,3.287,0.027
		c1.919-0.453,3.667-0.787,5.242-1.005l-7.034-1.114c-2.571,1.34-8.329,2.101-17.273,2.282c-9.995,0.217-17.4,1.05-22.216,2.499
		c-1.068,0.29-2.335,0.751-3.802,1.385C52.396,123.623,52.252,123.75,52.233,123.895z M109.376,203.77
		c-0.928-0.102-1.969-0.219-3.123-0.354l-6.573-1.06c-2.191-0.362-4.381-0.778-6.572-1.249c-2.952-0.652-5.052-1.122-6.301-1.412
		c-2.155-0.543-4.146-1.068-5.975-1.575l-10.239-3.449c-2.843-1.068-5.432-2.128-7.768-3.178c-1.774-0.815-3.422-1.611-4.942-2.39
		c-1.213-0.634-2.399-1.296-3.559-1.983c-1.032-0.615-2.154-1.34-3.368-2.172c-0.959-0.707-2.009-1.503-3.15-2.39l-3.775-3.586
		l-3.232-4.047l-1.385-2.254c-0.778-1.412-1.286-2.472-1.521-3.177l-0.625-2.038c-0.145-0.507-0.19-1.067-0.136-1.683
		c0.091-0.616,0.164-1.068,0.217-1.358c0.037-0.507,0.018-0.951-0.054-1.331c-0.037-0.254-0.19-0.725-0.462-1.412
		c-0.453-1.032-0.788-1.812-1.005-2.336c-0.227-0.556-0.399-1.081-0.516-1.575c-0.075-0.291-0.129-0.571-0.163-0.842
		c-0.398-2.879-0.688-5.115-0.869-6.708c-0.163-1.286-0.254-2.471-0.271-3.558c0-0.76,0.054-1.629,0.163-2.607
		c0.181-1.322,0.398-2.499,0.651-3.531l1.792-4.752c0.616-1.069,1.032-1.775,1.25-2.119l3.042-3.803
		c0.851-0.814,1.674-1.547,2.472-2.2l2.009-1.521c0.634-0.471,1.603-1.123,2.906-1.956l1.63-0.896l5.16-2.146l7.225-1.738
		l9.234-0.924c1.34-0.054,5.35-0.163,12.031-0.326l3.042-0.19c1.503-0.109,2.861-0.254,4.074-0.435l3.341-0.842l1.711-0.787
		l0.652-0.461l-0.299-0.408c-0.507-0.67-0.806-1.312-0.896-1.928l0.055-0.679l0.217-0.625l0.353-0.57
		c0.435-0.471,0.978-0.878,1.629-1.222l0.87-0.326c1.032-0.253,2.037-0.281,3.015-0.082c1.104,0.199,1.991,0.661,2.662,1.385
		l3.884-1.956c3.893-1.955,6.862-3.295,8.908-4.02c1.485-0.47,2.608-0.796,3.368-0.977l2.091-0.353
		c0.851-0.109,2.127-0.208,3.829-0.299c1.123-0.054,2.797-0.081,5.024-0.081l10.565,0.597c2.552,0.254,5.504,0.625,8.853,1.113
		c2.843,0.453,5.604,0.942,8.284,1.467l13.688,3.667c0.362,0.127,0.771,0.335,1.223,0.625l0.788,0.57
		c1.068,0.941,2.036,1.974,2.905,3.096l0.951,1.412c1.593,2.462,2.751,4.843,3.477,7.143l0.135,0.027
		c0.344,0.091,0.869,0.181,1.575,0.271c0.598,0.126,1.077,0.299,1.44,0.516c0.289,0.199,0.569,0.507,0.842,0.924
		c2.19,0.67,3.685,1.439,4.48,2.309c0.254,0.271,0.453,0.561,0.598,0.869c0.289,0.742,0.589,1.693,0.896,2.852
		c0.598,2.282,0.978,4.047,1.141,5.296c0.036,0.181,0.054,0.461,0.054,0.841c-0.054,1.467-0.281,2.726-0.679,3.775
		c-0.325,0.761-0.741,1.503-1.249,2.227l-0.869,5.486c-0.562,2.825-1.194,5.486-1.901,7.985c0.453-0.036,1.014,0.019,1.684,0.162
		c0.416,0.199,0.797,0.398,1.142,0.599l0.679,0.624l0.435,0.842l0.245,0.896l0.025,1.005l-0.162,1.086l-0.434,1.114
		c-0.2,0.488-0.509,1.077-0.925,1.766c-0.67,0.94-1.148,1.602-1.438,1.982l-1.358,1.575c4.02,0.326,7.867,0.797,11.542,1.412
		c3.93,0.579,6.971,0.851,9.126,0.814c3.675-0.091,7.515-0.869,11.515-2.336c-3.584,1.593-7.586,2.824-12.003,3.694
		c-2.518,0.507-4.844,0.814-6.98,0.923c-2.228,0.127-4.074,0.019-5.541-0.326c-2.588-0.633-5.087-0.633-7.495,0
		c-1.123,0.271-2.164,0.652-3.123,1.143c-0.869,0.47-1.675,1.012-2.417,1.628c-0.651,0.544-1.178,1.149-1.576,1.819
		c-0.344,0.58-0.543,1.187-0.597,1.819c0.054,0.599,0.271,1.087,0.65,1.468c0.453,0.416,1.087,0.696,1.901,0.842
		c2.119,0.397,4.745,0.182,7.877-0.652c1.793-0.471,4.626-1.467,8.501-2.987c2.969-1.142,5.195-1.946,6.681-2.417
		c2.39-0.761,4.481-1.204,6.273-1.331c2.481-0.108,5.151-0.036,8.012,0.218c1.848,0.163,4.393,0.462,7.632,0.896
		c4.653,0.635,8.202,0.997,10.646,1.087c4.056,0.181,7.921-0.082,11.598-0.788c0.978-0.217,1.855-0.37,2.634-0.462h0.028
		l-2.934,0.896c-6.282,1.631-12.847,2.689-19.69,3.178c-6.699,0.471-12.566,0.326-17.6-0.435c-2.209-0.271-4.418-0.253-6.627,0.055
		c-2.154,0.271-3.983,0.787-5.485,1.548c-0.833,0.436-1.458,0.86-1.874,1.276c-0.488,0.489-0.761,0.996-0.814,1.521
		c-0.127,1.05,0.642,2.056,2.308,3.015c2.481,0.959,5.414,1.277,8.8,0.951c3.295-0.29,6.979-1.123,11.054-2.498
		c6.645-2.19,12.275-3.514,16.894-3.966c5.25-0.507,11.315-0.153,18.196,1.06c2.443,0.361,5.784,0.868,10.021,1.52
		c3.747,0.254,7.876-0.199,12.385-1.356c-5.342,1.646-9.569,2.697-12.684,3.15c-7.677,1.104-15.752,0.85-24.226-0.761
		c-2.264-0.362-4.355-0.199-6.273,0.488c-0.906,0.38-1.648,0.797-2.228,1.249c-0.544,0.454-0.896,0.979-1.059,1.576
		c-0.11,0.543,0.026,1.014,0.406,1.411c0.398,0.417,1.06,0.762,1.983,1.033c2.063,0.579,5.178,0.624,9.342,0.135v-0.026h0.055
		c7.948-1.413,15.454-1.856,22.516-1.331c6.897,0.526,12.737,1.929,17.517,4.21c0.453,0.236,0.742,0.426,0.869,0.571l-1.141-0.163
		c-7.64-1.269-14.965-1.676-21.972-1.223c-4.092,0.253-9.37,0.978-15.834,2.172c-4.056,0.76-7.033,1.241-8.935,1.439
		c-3.024,0.271-5.786,0.163-8.284-0.325c-1.756-0.362-4.317-0.979-7.686-1.848c-3.387-1.376-6.093-2.362-8.121-2.959
		c-3.729-1.033-6.454-0.599-8.175,1.302c-0.615,0.671-0.181,1.241,1.304,1.712c0.669,0.199,2.563,0.58,5.677,1.141
		c6.301,1.194,9.741,2.752,10.32,4.672c-2.933-1.901-7.261-2.417-12.982-1.548c-5.667,1.321-8.999,2.082-9.994,2.281
		c-2.354,0.435-5.151,0.751-8.392,0.95c-3.224,0.218-6.147,0.271-8.772,0.162c-10.737-0.886-21.782-0.614-33.134,0.815l-0.707,0.299
		l-7.849,2.063l-9.505,0.951h-0.163l-0.407,0.054l0.244-0.054l-3.693,0.028c-1.883,0-3.983-0.064-6.301-0.191l-6.518-0.516
		C112.002,204.061,110.826,203.935,109.376,203.77z M112.853,179.651c-1.684,1.269-2.526,2.671-2.526,4.21
		c0,1.558,0.842,2.798,2.526,3.721c1.702,0.905,3.748,1.223,6.138,0.951c2.408-0.254,4.454-1.014,6.138-2.282
		c1.701-1.268,2.553-2.68,2.553-4.236c0-0.779-0.235-1.502-0.706-2.172c0.253,2.443-0.761,4.128-3.042,5.051
		c-2.299,0.942-4.156,0.316-5.568-1.874c1.123,0.978,2.272,1.313,3.449,1.004c0.978-0.234,1.766-0.877,2.363-1.928
		c0.598-1.013,0.788-1.973,0.57-2.878c-0.271-1.015-1.014-1.603-2.227-1.767c-1.394-0.198-2.571-0.234-3.531-0.108
		C116.6,177.597,114.554,178.366,112.853,179.651z M109.43,181.173c0.906-1.087,2.146-2.001,3.721-2.743
		c1.648-0.924,3.549-1.521,5.704-1.792c2.716-0.291,5.061,0.099,7.034,1.168c1.938,1.031,2.906,2.425,2.906,4.182
		c0,0.597-0.108,1.168-0.326,1.711c-0.471,1.558-1.648,2.942-3.531,4.155c-1.919,1.195-4.128,1.938-6.627,2.228
		c-2.824,0.307-5.25-0.082-7.278-1.169c-2.028-1.066-3.042-2.507-3.042-4.317C107.991,183.418,108.471,182.278,109.43,181.173z
		 M108.887,184.105c0-1.104,0.417-2.182,1.249-3.231c-0.996,1.141-1.494,2.299-1.494,3.477c0,1.737,0.987,3.123,2.96,4.154
		c1.974,1.051,4.318,1.422,7.034,1.114c2.01-0.199,3.848-0.742,5.513-1.63c1.647-0.833,2.861-1.864,3.639-3.096
		c-0.833,1.194-2.037,2.199-3.612,3.014c-1.612,0.815-3.386,1.331-5.323,1.549c-2.752,0.309-5.106-0.063-7.062-1.114
		C109.856,187.274,108.887,185.862,108.887,184.105z M137.893,146.518c-0.579-0.525-1.583-0.561-3.014-0.108
		c-1.178,0.344-2.463,0.941-3.857,1.792c0.598-0.29,1.177-0.435,1.738-0.435c1.195,0,2.218,0.517,3.069,1.548
		c0.869,1.032,1.304,2.281,1.304,3.747v0.218c-0.055-1.304-0.471-2.417-1.25-3.34c-0.778-0.906-1.702-1.359-2.77-1.359
		c-1.123,0-2.073,0.481-2.852,1.44c-0.796,0.959-1.195,2.11-1.195,3.45c0,1.467,0.471,2.697,1.413,3.693l0.624,0.543
		c0.543,0.417,1.476,0.408,2.797-0.027c0.199-0.054,0.471-0.172,0.815-0.354c1.973-0.85,3.259-1.901,3.856-3.149
		c0.471-0.905,0.761-1.992,0.869-3.259c0.127-1.413-0.045-2.499-0.516-3.259C138.689,147.243,138.346,146.861,137.893,146.518z
		 M123.254,143.421l-0.354,0.109c-0.126,0.018-0.181,0.055-0.163,0.108c0.018,0.018,0.072,0.027,0.163,0.027l0.38,0.027
		c1.25,0.127,2.317,0.679,3.205,1.658c0.851,0.995,1.276,2.181,1.276,3.558v0.271c-0.072-1.231-0.524-2.282-1.357-3.15
		c-0.851-0.869-1.847-1.304-2.987-1.304c-1.195,0-2.228,0.471-3.097,1.412c-0.851,0.924-1.276,2.028-1.276,3.313
		c0,1.249,0.407,2.327,1.222,3.232c0.779,0.906,1.748,1.395,2.906,1.467h-0.272c-1.339,0-2.48-0.516-3.421-1.549
		c-0.96-1.031-1.44-2.263-1.44-3.692c0-1.104,0.299-2.109,0.896-3.015c0.579-0.887,1.349-1.521,2.309-1.901
		c0.76-0.291,2.073-0.752,3.938-1.386c1.268-0.543,1.395-0.914,0.38-1.113c-1.883-0.38-3.268-0.407-4.155-0.081
		c-1.177,0.417-2.86,1.285-5.051,2.607l-14.15,9.125c-0.941,0.543-1.558,0.979-1.847,1.305c-0.561,0.578-0.733,1.267-0.516,2.063
		c0.163,0.599,0.715,1.15,1.657,1.657c0.76,0.381,1.548,0.643,2.362,0.788c3.64,0.524,7.578,0.823,11.815,0.896
		c5.468,0.127,10.211-0.226,14.23-1.059c0.453-0.072,0.743-0.145,0.869-0.218c0.326-0.163,0.299-0.389-0.081-0.679
		c-1.521-1.213-2.281-2.824-2.281-4.835c0.036-0.235,0-0.388-0.109-0.462c-0.108-0.09-0.244-0.071-0.407,0.055
		c-0.363,0.218-1.087,0.652-2.173,1.305c1.032-0.707,1.63-1.133,1.792-1.277c0.634-0.542,1.05-1.113,1.25-1.711
		c0.344-0.959,0.914-1.765,1.711-2.417l-0.055,0.026c1.449-0.995,2.508-1.746,3.178-2.253c1.213-0.924,1.521-1.53,0.923-1.82
		c-0.724-0.38-1.974-0.878-3.748-1.494c-1.177-0.453-2.517-0.588-4.019-0.408C125.816,142.733,124.648,143.005,123.254,143.421z
		 M138.843,127.262c0.146,0,0.407,0.045,0.788,0.136l3.124,0.815c0.706,0.199,1.023,0.309,0.951,0.327
		c-0.362,0.053-0.778,0.108-1.249,0.163l-11.788,1.738c-0.688,0.127-1.294,0.118-1.819-0.027l-1.548-0.354
		c-0.561-0.163-0.842-0.253-0.842-0.271c0-0.036,0.299-0.1,0.896-0.189l10.754-2.227
		C138.418,127.262,138.663,127.226,138.843,127.262z M154.297,162.922c1.774-2.77,3.268-3.894,4.481-3.368
		c1.249,0.579,1.855,2.636,1.819,6.166c-0.054,3.513-0.724,7.478-2.01,11.896c-1.304,4.436-2.843,8.029-4.617,10.782
		c-1.792,2.788-3.304,3.901-4.535,3.34c-1.231-0.543-1.819-2.599-1.765-6.165c0.054-3.494,0.724-7.45,2.009-11.868
		C150.965,169.269,152.505,165.674,154.297,162.922z M159.213,157.301c-1.485-0.58-3.25,0.715-5.296,3.883
		c-2.046,3.169-3.784,7.278-5.215,12.33c-1.43,5.053-2.137,9.561-2.119,13.525c0.019,4.038,0.77,6.347,2.254,6.926
		c1.485,0.597,3.259-0.697,5.323-3.884c2.064-3.169,3.803-7.278,5.215-12.33c1.43-5.034,2.136-9.552,2.118-13.553
		C161.458,160.196,160.697,157.897,159.213,157.301z M166.655,145.948c-0.092-1.159,0.424-2.028,1.547-2.607
		c1.377-0.688,2.128-0.879,2.255-0.57c0.09,0.199,0.135,0.444,0.135,0.733c0,0.145-0.009,0.417-0.026,0.814
		c0,0.054,0.244-0.009,0.732-0.19c0.163-0.959-0.036-1.593-0.596-1.901c0.343,0.054,0.596,0.371,0.759,0.95
		c0.073,0.29,0.118,0.571,0.137,0.842l0.76-0.299c-3.458,1.647-5.63,2.652-6.519,3.015L166.655,145.948z M188.463,141.412
		c-0.308-0.073-0.77,0.806-1.385,2.634c-0.598,1.792-1.178,4.029-1.738,6.708c-0.562,2.645-0.933,4.926-1.113,6.845
		c-0.163,1.919-0.091,2.915,0.218,2.987c0.289,0.073,0.75-0.806,1.385-2.635c0.598-1.792,1.177-4.02,1.738-6.681
		c0.543-2.644,0.896-4.933,1.059-6.871C188.807,142.479,188.753,141.484,188.463,141.412z M188.219,142.363
		c0.217,0.325,0.217,1.457,0,3.395c-0.199,1.919-0.552,4.073-1.059,6.464c-0.508,2.407-1.005,4.336-1.494,5.784
		c-0.508,1.467-0.86,2.037-1.06,1.711s-0.199-1.466,0-3.422c0.217-1.919,0.57-4.065,1.06-6.436c0.507-2.391,1.013-4.318,1.52-5.785
		C187.693,142.606,188.038,142.037,188.219,142.363z M168.04,152.601c-0.146-0.197-0.308-0.298-0.489-0.298
		c-0.218,0-0.398,0.127-0.544,0.38c-0.144,0.235-0.244,0.534-0.298,0.896c-0.018,0.326,0.044,0.615,0.19,0.87
		c0.107,0.234,0.253,0.36,0.434,0.379h-0.027c-0.234,0-0.425-0.136-0.57-0.407c-0.126-0.29-0.181-0.615-0.162-0.978
		c0.036-0.361,0.144-0.697,0.326-1.005c0.162-0.271,0.352-0.407,0.57-0.407c0.234,0,0.425,0.117,0.57,0.353
		c0.126,0.271,0.181,0.589,0.162,0.95C168.202,153.045,168.148,152.8,168.04,152.601z"/>
	<path fill-rule="evenodd" clip-rule="evenodd" fill="#284596" d="M109.376,203.77l-0.271,0.08l-5.377,0.788l-5.514,0.219
		c-1.322,0-2.788-0.046-4.399-0.137l-4.563-0.38c-1.032-0.092-2.59-0.263-4.672-0.516l-4.59-0.734
		c-1.539-0.253-3.078-0.543-4.617-0.869c-2.064-0.453-3.531-0.787-4.399-1.005c-1.521-0.38-2.915-0.742-4.183-1.087l-7.17-2.417
		c-1.992-0.76-3.812-1.502-5.459-2.227c-1.25-0.562-2.399-1.122-3.449-1.684c-0.851-0.435-1.684-0.896-2.499-1.386
		c-0.724-0.434-1.511-0.941-2.362-1.521c-0.67-0.489-1.403-1.051-2.2-1.683l-1.358-1.196l-2.471-2.662l-2.064-3.068
		c-0.543-0.979-0.896-1.711-1.06-2.2l-0.434-1.438c-0.091-0.345-0.118-0.733-0.082-1.168c0.054-0.435,0.1-0.761,0.136-0.979
		c0.036-0.345,0.027-0.643-0.027-0.896c-0.054-0.271-0.163-0.606-0.326-1.004c-0.308-0.725-0.543-1.268-0.707-1.63
		c-0.253-0.634-0.407-1.204-0.461-1.711c-0.29-2.01-0.498-3.566-0.625-4.671c-0.109-0.906-0.172-1.739-0.19-2.499
		c0-0.543,0.045-1.15,0.136-1.819c0.127-0.924,0.272-1.757,0.435-2.498l0.761-2.011c0.117,0.494,0.289,1.02,0.516,1.575
		c0.217,0.524,0.552,1.304,1.005,2.336c0.271,0.688,0.425,1.158,0.462,1.412c0.072,0.38,0.09,0.824,0.054,1.331
		c-0.054,0.29-0.126,0.742-0.217,1.358c-0.054,0.615-0.009,1.176,0.136,1.683l0.625,2.038c0.235,0.705,0.743,1.765,1.521,3.177
		l1.385,2.254l3.232,4.047l3.775,3.586c1.141,0.887,2.19,1.683,3.15,2.39c1.213,0.832,2.336,1.557,3.368,2.172
		c1.159,0.688,2.345,1.35,3.559,1.983c1.521,0.778,3.168,1.574,4.942,2.39c2.336,1.05,4.925,2.109,7.768,3.178l10.239,3.449
		c1.829,0.507,3.82,1.032,5.975,1.575c1.249,0.29,3.349,0.76,6.301,1.412c2.191,0.471,4.381,0.887,6.572,1.249l6.573,1.06
		C107.407,203.551,108.448,203.668,109.376,203.77z M52.233,123.895c0.019-0.145,0.163-0.272,0.435-0.38
		c1.467-0.634,2.734-1.095,3.802-1.385c4.816-1.448,12.222-2.281,22.216-2.499c8.944-0.181,14.702-0.942,17.273-2.282l7.034,1.114
		c-1.575,0.218-3.322,0.552-5.242,1.005c-2.137-0.036-3.232-0.045-3.287-0.027c-2.027,0.488-3.268,0.797-3.72,0.923
		c-1.376,0.398-2.807,0.878-4.292,1.439c-0.054,0.036,0.453,0.29,1.521,0.761c-4.345,1.811-7.958,3.929-10.836,6.355
		c2.807-2.263,7.741-4.581,14.802-6.953c6.898-2.354,11.361-3.376,13.389-3.069c12.059,1.991,23.71,3.992,34.954,6.001
		c-5.613,0.906-11.634,2.028-18.061,3.368c-9.073,1.891-15.845,3.701-20.315,5.432c-1.902,0.739-3.386,1.462-4.454,2.172
		c2.235-0.701,4.507-1.38,6.817-2.037c7.874-2.25,16.166-4.251,24.877-6.002c5.667-1.104,10.384-1.892,14.15-2.363
		c3.313,0.561,6.228,1.122,8.744,1.684c-2.806-0.887-12.9-2.86-30.282-5.92c-8.655-1.539-16.983-3.006-24.986-4.4
		c0.417-0.253,0.824-0.571,1.222-0.951c0.037-0.217-0.335-0.914-1.113-2.091c-0.525-0.851-0.271-1.621,0.761-2.309
		c0.905-0.633,2.028-0.824,3.368-0.57c1.322,0.236,2.082,0.742,2.281,1.521c0,0.036-0.815,0.57-2.444,1.603
		c-1.648,1.05-2.472,1.593-2.472,1.629c0.2-0.091,2.146-1.186,5.84-3.286c3.096-1.539,5.477-2.716,7.143-3.531
		c2.969-1.448,5.522-2.48,7.659-3.096c4.761,0.163,10.13,0.525,16.105,1.087c11.858,1.122,21.012,2.652,27.457,4.589l0.462,0.163
		c0.344,0.073,0.562,0.208,0.652,0.408c0.072,0.145,0.081,0.407,0.027,0.788l-0.027,0.543c-0.181,1.629-0.553,4.2-1.114,7.713
		c-0.507,3.223-0.905,5.604-1.194,7.143c-0.073,0.2-1.982,0.118-5.73-0.244l3.041,0.571c0.941,0.145,1.738,0.869,2.391,2.172
		c0.416,0.833,0.733,1.847,0.95,3.042c-2.264-0.743-5.839-0.996-10.728-0.761c-5.178,0.254-10.873,1.032-17.083,2.336
		c-2.735,0.575-5.415,1.213-8.039,1.915c-12.154,3.266-23.108,7.915-32.862,13.946c0.217,0.579,0.823,1.123,1.819,1.63
		c0.869,0.435,1.413,0.615,1.629,0.542c6.554-6.064,16.821-11.243,30.798-15.534c0.124-0.038,0.246-0.074,0.367-0.109
		c14.439-4.4,25.904-5.55,34.396-3.449c-0.018-0.815-0.189-1.675-0.516-2.58c-0.489-1.322-1.195-2.318-2.119-2.988l1.82,0.245
		c0.797-3.151,1.484-7.125,2.063-11.923c0.398-3.314,0.879-5.151,1.439-5.514c-5.396-1.883-14.403-3.485-27.023-4.807
		c-6.283-0.634-11.941-1.104-16.974-1.413l2.009-0.299c6.265-0.616,13.952-0.344,23.058,0.815c7.804,0.978,14.802,2.318,20.994,4.02
		c-0.742,0.597-1.413,2.97-2.01,7.115c-0.851,5.866-1.565,9.914-2.146,12.141c0.344-0.978,1.249-4.943,2.716-11.896
		c0.96-4.708,1.956-7.007,2.987-6.898c0.778,0.235,1.657,0.524,2.636,0.869l0.705,0.271c0.471,0.235,0.633,0.444,0.489,0.625
		c-0.109,0.126-0.336,0.19-0.68,0.19c-0.289,0-0.606,0.054-0.951,0.163c-1.085,0.362-1.928,1.494-2.524,3.395
		c-0.725,2.245-1.159,5.667-1.305,10.266l-0.082,2.5c0,0.163-0.035,0.28-0.107,0.352c-0.072,0.091-0.153,0.1-0.244,0.028
		c-0.961-0.67-1.92-1.295-2.879-1.874c1.249,0.851,2.011,1.412,2.281,1.684c0.634,0.67,0.978,1.521,1.031,2.553
		c0.036-0.779,0.154-1.974,0.354-3.585c0.307-2.281,0.633-4.029,0.977-5.242c-0.435,0.941-0.814,2.598-1.14,4.97l-0.109,0.706
		c-0.054,0.271-0.082,0.271-0.082,0l0.028-0.706c0.524-10.484,2.615-15.001,6.272-13.552c1.196,0.452,2.49,1.548,3.884,3.286
		c1.015,1.268,1.729,2.363,2.146,3.286c0.398,0.797,0.797,1.874,1.195,3.232c-0.525-0.055-1.258-0.055-2.199,0
		c-1.231,0.054-2.272,0.063-3.124,0.027c-0.76,0.308-1.512,1.005-2.254,2.092c-0.869,1.267-1.357,1.937-1.467,2.009
		c-0.435,0.38-0.878-0.063-1.331-1.331c-0.761-2.227-1.285-3.585-1.575-4.074c0.255,0.561,0.697,1.855,1.331,3.883
		c0.616,1.666,1.159,2.291,1.63,1.874c0.072-0.072,0.588-0.761,1.549-2.064c0.813-1.068,1.547-1.756,2.198-2.064
		c1.848-0.019,3.849,0.037,6.002,0.163c0.942,0.072,1.839,0.272,2.69,0.598c1.05,0.398,1.376,1.294,0.977,2.688
		c-0.361,1.358-1.059,2.2-2.091,2.526c-1.123,0.362-2.426,0.543-3.911,0.543c-2.263,0-4.227-0.471-5.894-1.413
		c0.58,0.398,0.942,0.706,1.086,0.923c0.109,0.181,0.046,0.272-0.189,0.272c-1.793,0.054-3.467,0.326-5.024,0.815
		c2.063-0.561,4.554-0.698,7.469-0.408c2.807,0.326,4.951,0.263,6.437-0.19c1.142-0.344,2.01-1.086,2.607-2.227
		c0.417-0.779,0.625-1.494,0.625-2.146c0.96,0.326,1.675,0.616,2.146,0.869c0.562,0.326,0.986,0.715,1.276,1.167
		c0.126,0.145,0.353,1.023,0.679,2.635c0.344,1.72,0.733,2.987,1.168,3.803c0.923,1.774,0.435,4.426-1.467,7.957
		c1.919-6.029,1.911-7.839-0.027-5.432c-2.046,2.499-3.458,5.287-4.237,8.366c-0.796,3.15-1.675,5.495-2.634,7.034
		c-1.014,1.665-2.616,3.296-4.806,4.889l-1.712,1.141c-0.381,0.29-0.634,0.326-0.761,0.108c-0.091-0.181-0.055-0.406,0.108-0.679
		l0.814-1.467c1.648-3.06,2.924-6.238,3.83-9.533c1.231-4.508,1.693-8.98,1.386-13.417c0.253,5.613-1.133,11.751-4.156,18.414
		c-1.014,2.263-2.164,4.409-3.449,6.437c-0.96,1.593-1.548,2.462-1.765,2.607c0.217,0.308,0.614,0.552,1.194,0.733
		c-0.035-0.489,0.063-0.941,0.299-1.357c-0.126,0.488-0.154,0.886-0.081,1.194c0.055,0.145,0.127,0.244,0.217,0.299l1.194,0.245
		c-0.089-0.472,0.037-1.458,0.381-2.962c-0.162,1.051-0.199,1.829-0.108,2.336c0.072,0.236,0.208,0.49,0.407,0.761l1.439,0.243
		c-0.055-1.175,0.072-2.561,0.381-4.154c-0.2,2.028-0.109,3.449,0.271,4.265c0.599,0.035,1.023,0.054,1.276,0.054
		c-0.036-0.453-0.009-1.457,0.082-3.015c0.09-1.593,0.199-2.661,0.326-3.205c-0.272,2.789-0.236,4.871,0.108,6.248l1.06,0.053
		c-0.037-0.434,0.018-1.466,0.163-3.096c0.09-1.394,0.172-2.182,0.244-2.362c-0.091,1.032-0.118,2.163-0.082,3.395
		c0.036,1.267,0.109,1.955,0.218,2.063h1.087c-0.127-2.534-0.037-4.599,0.271-6.191c-0.235,3.133-0.154,5.179,0.244,6.139
		c0.852,0.071,1.476-0.245,1.874-0.951c0.851-1.666,1.665-3.793,2.443-6.384c1.087-3.565,1.812-7.223,2.174-10.971
		c-0.362,6.011-1.819,11.878-4.373,17.6c-0.29,0.614-0.606,0.995-0.95,1.14c-0.091,0.019-0.48,0.036-1.168,0.055
		c-4.183,0-7.931-0.398-11.244-1.194c-1.032,1.249-2.834,3.269-5.404,6.056c0.959-2.119,1.964-4.699,3.015-7.74
		c2.118-6.065,3.268-11.189,3.448-15.372c0.616-0.38,1.104-0.716,1.468-1.005c0.724-0.634,0.479-0.887-0.733-0.761
		c1.394,0.109,1.167,0.534-0.679,1.276c0.108-4.87-1.168-8.102-3.83-9.695c1.177,0.76,2.037,1.982,2.58,3.666
		c0.417,1.358,0.643,3.105,0.679,5.242v1.004c0,0.272-1.294,1.033-3.883,2.282c-2.463,1.176-3.378,1.086-2.744-0.271
		c-0.742,1.285-0.497,1.765,0.733,1.438v0.299c0,0.218,0.072,0.334,0.217,0.353c0.635,0.091,1.322,0.027,2.064-0.19
		c0.87-0.253,1.539-0.652,2.01-1.195c0.055-0.09,0.091-0.344,0.109-0.76c0.036-0.416,0.063-0.625,0.082-0.625l0.434-0.271
		c0.289,0.977,0.045,1.72-0.733,2.227c0.489-0.109,0.806-0.534,0.951-1.276c0.054-0.725,0.091-1.096,0.108-1.114l0.651-0.407
		c-0.036,3.766-1.067,8.382-3.096,13.851c-1.087,2.896-2.734,6.645-4.943,11.243c-0.651,0.671-1.729,1.848-3.231,3.53
		c1.122-3.258,2.137-7.469,3.042-12.628c1.285-7.243,1.086-11.217-0.598-11.922c-1.485-0.634-3.15-0.136-4.998,1.493
		c2.771,1.014,4.155,4.318,4.155,9.914c-0.018,3.422-0.479,7.097-1.385,11.026c0.688-3.44,1.023-6.963,1.005-10.565
		c-0.072-5.504-1.23-8.654-3.477-9.451c-0.344-0.108-0.796,0.009-1.357,0.354c-0.435,0.253-0.752,0.524-0.951,0.814
		c-0.488,0.706-1.321,1.901-2.498,3.585c-1.484,2.3-3.195,5.332-5.133,9.098c-1.162,2.287-3.404,3.916-6.722,4.89
		c-1.284,0.379-2.728,0.66-4.332,0.842c-2.408,0.271-4.59,0.198-6.545-0.218c-2.064-0.398-3.467-1.095-4.209-2.092
		c1.792,2.698,6.79,3.505,14.992,2.418l2.471-0.408c1.159-0.198,1.403,0.454,0.733,1.956c-0.035,0.038-0.135,0.073-0.299,0.108
		c-1.4,0.297-7.385,0.551-17.952,0.761c-5.92,0.145-11.823,0.254-17.708,0.326c2.897,1.231,8.274,1.466,16.132,0.706
		c9.65-0.924,16.123-1.23,19.419-0.924c-0.453,0.888-0.824,1.684-1.114,2.391l-0.652,1.344l-0.028,0.068
		c-0.344,0.814-0.569,1.774-0.679,2.878c-0.036,0.381-0.108,1.367-0.217,2.962c-0.091-0.598-0.091-1.485,0-2.662
		c0.126-0.96,0.181-1.431,0.163-1.413l-1.059,2.363c-0.345,0.814-0.581,1.737-0.707,2.771c-0.072,0.397-0.135,1.366-0.19,2.906
		c-0.037-0.543-0.027-1.377,0.027-2.499c0.091-0.96,0.127-1.43,0.109-1.412c-0.435,0.996-1.765,4.183-3.992,9.56
		c-0.163,0.398-0.498,0.843-1.005,1.331c-0.579,0.524-1.05,0.761-1.413,0.706c0.507,0.235,1.241,0.489,2.2,0.761
		c-0.108-0.254-0.127-0.599-0.054-1.032c0.037-0.471,0.154-0.869,0.354-1.195c-0.146,0.344-0.136,0.814,0.027,1.412
		c0.126,0.525,0.298,0.888,0.516,1.087l1.412,0.354c-0.218-0.417-0.325-1.567-0.325-3.45c0-1.701,0.072-3.077,0.216-4.128
		c-0.109,1.015-0.072,2.49,0.109,4.428c0.217,1.973,0.471,3.087,0.761,3.34l1.738,0.407c-0.218-0.344-0.39-1.538-0.516-3.585
		c-0.108-1.992-0.108-3.657,0-4.997c-0.019,1.158,0.136,2.807,0.461,4.942c0.308,2.265,0.625,3.541,0.951,3.83l1.847,0.325
		c-0.508-0.578-0.933-1.891-1.277-3.938c-0.398-2.208-0.525-4.636-0.38-7.278c-0.054,2.009,0.217,4.345,0.815,7.007
		c0.561,2.716,1.069,4.138,1.521,4.265c0.996,0.072,1.765,0.008,2.309-0.191c1.485-0.561,3.024-1.539,4.617-2.933
		c-4.744,1.847-7.079-0.38-7.007-6.682c0.073-4.055,0.987-8.907,2.743-14.557c-1.502,5.377-2.173,10.176-2.01,14.395
		c0.254,6.264,2.68,8.237,7.279,5.92c1.104-1.049,2.046-2.28,2.825-3.692c-0.979,2.045-2.146,3.783-3.504,5.214
		c-1.448,1.594-2.942,2.635-4.481,3.123c-1.575,0.471-3.838,0.452-6.79-0.055c-3.114-0.523-5.948-1.431-8.5-2.715
		c-2.444,0.353-4.907,0.639-7.387,0.854c-7.54,0.659-15.235,0.681-23.085,0.068c-10.81-0.852-20.279-2.806-28.408-5.866
		c-10.013-3.767-16.332-6.347-18.957-7.741c-7.586-3.91-12.439-8.446-14.557-13.606c4.816,4.816,11.896,9.28,21.238,13.391
		c10.61,4.671,21.274,7.478,31.993,8.42c3.006,0.488,7.007,0.859,12.004,1.112c4.708,0.236,9.85,0.308,15.426,0.217
		c-3.639-0.054-6.962-0.145-9.967-0.271c-7.623-0.29-14.802-1.005-21.538-2.145c-11.932-2.046-23.483-5.786-34.655-11.217
		c6.065,2.788,12.647,5.223,19.745,7.306c5.323,1.557,10.293,2.733,14.91,3.53c6.319,1.087,13.58,1.828,21.782,2.227
		c6.439,0.338,12.834,0.434,19.188,0.285c0.792-0.019,1.585-0.041,2.376-0.067c-0.766-0.003-1.526-0.007-2.281-0.015
		c-9.459-0.098-18.195-0.591-26.208-1.479c-6.754-0.76-10.085-1.268-9.995-1.521c0.09-1.593,0.072-2.607-0.054-3.041
		c-6.464-1.142-15.091-3.568-25.883-7.279c-16.531-5.649-26.227-11.208-29.087-16.677c-0.108-0.523-0.462-1.412-1.059-2.661
		c-0.58-1.194-0.915-2.1-1.004-2.715l-0.543-4.103c0.195,0.737,0.484,1.466,0.869,2.188c2.827,5.341,10.786,10.379,23.873,15.114
		c7.532,2.752,15.291,4.942,23.275,6.572c-9.542-2.408-18.215-5.179-26.019-8.311c-11.381-4.599-18.248-9.279-20.601-14.041
		c-0.806-1.628-1.082-3.267-0.828-4.917c0.616-0.073,1.295-0.19,2.037-0.354c1.467-0.344,2.436-0.787,2.906-1.33
		c-0.706,0.561-1.766,0.977-3.178,1.249c-0.688,0.108-1.349,0.172-1.982,0.19c-0.181-0.019-0.435-0.037-0.76-0.054
		c-0.109-1.34-0.163-2.299-0.163-2.879c0.145-2.463,0.57-4.78,1.276-6.954l0.271-0.76c0.054-0.109,0.118-0.154,0.19-0.136
		c0.073,0,0.091,0.081,0.055,0.245l-0.109,0.842c-0.127,2.046,0.091,3.793,0.652,5.241c0.344,0.887,0.751,1.53,1.222,1.929
		c-1.485-1.593-1.883-4.889-1.195-9.886c0.199-0.381,0.326-0.381,0.38,0l0.108,0.732c0.471,2.028,1.973,2.87,4.508,2.527
		c-2.263,0.071-3.521-0.87-3.775-2.825c-0.163-1.467,0.018-2.571,0.543-3.313c1.865-2.571,4.355-4.907,7.469-7.007
		c1.412-0.942,2.48-1.413,3.205-1.413c1.105,0.072,1.268,0.334,0.489,0.787c-0.417,0.236-1.05,0.598-1.901,1.086
		c2.372-1.285,4.635-1.719,6.79-1.303c1.575,0.326,3.06,0.724,4.454,1.195c0.018,0.018-0.562,0.435-1.738,1.249
		c-1.086-1.068-2.091-1.313-3.015-0.733c-0.833,0.561-1.331,1.557-1.494,2.987c0.181-1.267,0.715-2.1,1.603-2.499
		c0.888-0.344,1.666-0.136,2.336,0.625c-1.195,0.923-3.042,2.254-5.541,3.992c0.452-3.839-0.227-5.785-2.037-5.839
		c-0.67,0-1.331,0.271-1.983,0.815c-0.651,0.507-0.996,1.041-1.032,1.603c0.072-0.417,0.417-0.842,1.032-1.277
		c0.634-0.453,1.223-0.642,1.766-0.57c1.593,0.145,2.091,2.101,1.494,5.866l-1.901,1.494c-0.778,0.091-1.449-0.371-2.01-1.385
		c-0.561-0.959-0.824-2.028-0.788-3.205c-0.18,1.213,0.009,2.335,0.571,3.367c0.543,1.014,1.213,1.467,2.01,1.358
		c-1.738,1.376-3.495,2.879-5.269,4.509l1.276-1.005c0.127-0.109,0.253-0.163,0.381-0.163c0.145-0.018,0.244,0,0.298,0.054
		c0.126,0.109,0.308,0.291,0.543,0.543c0.344,0.253,0.299,0.57-0.135,0.95c-2.861,2.317-5.169,4.554-6.926,6.708
		c1.413-1.647,4.065-4.011,7.958-7.088c5.667-4.509,11.841-8.673,18.522-12.493c7.115-4.055,12.385-6.292,15.806-6.708
		c-4.381,0.398-10.891,3.241-19.527,8.528c-4.726,2.915-9.542,6.21-14.449,9.886c-0.435,0.326-0.797,0.362-1.086,0.109
		c-0.199-0.145-0.317-0.353-0.353-0.625c0-0.326,0.163-0.597,0.489-0.814c3.078-2.3,6.283-4.59,9.614-6.872
		c3.115-2.154,4.744-3.214,4.889-3.178c-2.372-1.267-5.26-2.272-8.664-3.015C52.342,124.157,52.197,124.058,52.233,123.895z
		 M72.1,143.87c11.452,3.57,18.202,6.055,20.247,7.456c0.055,0.036-1.413,0.978-4.4,2.824c-2.987,1.828-4.472,2.753-4.454,2.771
		c0.054,0.055,3.141-1.685,9.261-5.215c0.743,0.905,1.603,1.566,2.58,1.982c0.037,0.018-1.539,1.53-4.726,4.536
		c-3.187,3.006-4.771,4.508-4.752,4.508c0.054,0.019,1.766-1.439,5.133-4.372c3.368-2.916,5.07-4.373,5.106-4.373
		c0.869,0.218,1.376,0.354,1.521,0.407l-0.353,0.652l-0.108,0.379l-0.027,0.843l0.108,0.436l0.217,0.57l0.326,0.434
		c0.779,0.888,1.947,1.53,3.504,1.929c0.29,0.072,1.095,0.199,2.417,0.381c1.43,0.145,2.906,0.279,4.427,0.406l8.229,0.272
		c3.168,0,6.437,2.39,9.804,7.169c-1.086-2.118-2.789-4.056-5.106-5.811c-0.797-0.616-1.213-0.979-1.249-1.087
		c-0.126-0.218,0.181-0.326,0.923-0.326l9.669-1.113l4.535-1.358l1.848-0.978l1.493-1.195l1.06-1.412l0.244-0.598
		c0.579-1.538,0.815-3.114,0.707-4.726c-0.073-0.525-0.191-0.996-0.354-1.412c-0.053-0.218-0.154-0.435-0.298-0.652l-0.271-0.407
		l-0.788-0.842l-1.467-1.114c-0.651-0.398-1.249-0.733-1.792-1.005l-3.34-1.413c-1.068-0.362-2.037-0.67-2.906-0.923l-4.645-0.95
		l-1.575-0.136l-0.951,0.082l-0.76,0.163c-0.959,0.344-2.345,1.023-4.155,2.037c-3.947,2.246-9.804,5.658-17.572,10.239
		c-0.959,0.58-2.072,0.707-3.34,0.381c-1.231-0.344-2.182-1.022-2.852-2.037c-0.786-1.143-7.553-3.642-20.301-7.496
		c-0.174-0.055-0.351-0.109-0.53-0.163c-13.362-4.038-21.22-5.73-23.574-5.079c3.023-0.326,10.682,1.422,22.977,5.242
		C71.891,143.807,71.995,143.838,72.1,143.87z M67.47,156.838c0-0.018-0.959-0.316-2.879-0.896
		c-2.281-0.707-4.173-1.386-5.676-2.037c1.666,0.598,3.558,1.194,5.676,1.793c1.92,0.543,2.879,0.787,2.879,0.732l-0.027-1.331
		c-2.734-0.959-5.64-1.937-8.718-2.933c-0.018,10.013-0.054,15.01-0.108,14.991l-0.027-1.005c-2.589-1.031-4.898-2.072-6.926-3.123
		c1.195,0.562,2.689,1.195,4.481,1.901c1.629,0.634,2.445,0.933,2.445,0.896l-0.027-1.25c-2.263-0.778-4.536-1.773-6.817-2.987
		c1.413,0.67,2.97,1.331,4.672,1.982c1.43,0.562,2.146,0.815,2.146,0.761l-0.054-1.276c-2.137-0.724-4.418-1.702-6.845-2.933
		c1.54,0.705,3.132,1.376,4.78,2.009c1.376,0.525,2.064,0.761,2.064,0.707v-1.25c-2.155-0.742-4.391-1.692-6.708-2.852
		c1.375,0.634,2.906,1.249,4.589,1.847c1.412,0.543,2.119,0.788,2.119,0.733l-0.028-1.194c-2.226-0.869-4.472-1.856-6.735-2.961
		c1.467,0.633,3.024,1.268,4.672,1.901c1.375,0.525,2.063,0.777,2.063,0.76v-1.14c-2.226-0.906-4.472-1.894-6.735-2.961
		c1.521,0.651,3.069,1.268,4.645,1.847c1.376,0.507,2.064,0.742,2.064,0.706v-1.222c-2.354-0.814-4.608-1.757-6.763-2.825
		c1.413,0.616,2.942,1.205,4.59,1.766c1.449,0.525,2.173,0.76,2.173,0.707l-0.027-1.142l-2.119-0.787
		c-1.738-0.706-3.286-1.367-4.645-1.982c1.467,0.598,3.024,1.186,4.672,1.765c1.394,0.489,2.091,0.725,2.091,0.706l-0.027-1.331
		l-2.119-0.76c-1.738-0.652-3.25-1.268-4.536-1.847c1.467,0.579,2.979,1.131,4.536,1.656c1.413,0.489,2.119,0.715,2.119,0.68
		c0-1.087-0.027-1.63-0.082-1.63c-1.593-0.435-3.884-1.159-6.871-2.172c-0.055-0.019-0.055,2.308,0,6.979
		c0.018,4.672,0.018,7.007,0,7.007c-0.055,0-0.082-0.262-0.082-0.787c-2.209-1.086-3.992-2.128-5.351-3.123
		c0.941,0.598,2.11,1.259,3.504,1.982c1.231,0.615,1.847,0.896,1.847,0.843l-0.027-1.169c-2.264-1.104-4.011-2.127-5.242-3.068
		c1.358,0.887,3.106,1.811,5.242,2.77l-0.027-1.167c-1.774-0.779-3.549-1.812-5.323-3.096c1.014,0.669,2.191,1.338,3.531,2.009
		c1.159,0.616,1.738,0.887,1.738,0.814v-1.222c-1.865-0.796-3.64-1.747-5.323-2.852c1.72,0.995,3.495,1.855,5.323,2.58l-0.027-1.249
		c-0.471-0.2-1.032-0.462-1.684-0.788c-1.357-0.67-2.544-1.367-3.558-2.092c1.756,1.123,3.503,1.983,5.242,2.58l-0.054-1.112
		c-0.398-0.183-0.915-0.436-1.548-0.761c-1.322-0.67-2.534-1.358-3.639-2.064c1.231,0.724,2.453,1.34,3.667,1.847
		c0.996,0.416,1.494,0.598,1.494,0.543l-0.027-1.086c-2.01-0.852-3.721-1.747-5.133-2.688c0.96,0.561,2.082,1.122,3.368,1.684
		c1.177,0.507,1.766,0.742,1.766,0.706l-0.055-1.114c-1.974-0.923-3.667-1.8-5.079-2.633c0.869,0.488,1.956,1.013,3.259,1.575
		c1.213,0.507,1.82,0.733,1.82,0.679l-0.027-1.222c-2.063-0.815-3.775-1.621-5.133-2.417c1.395,0.706,3.096,1.431,5.106,2.173
		l-0.055-1.222l-5.268-1.548c0.054,8.437,0.054,12.638,0,12.602l-0.027-0.814c-2.228-1.647-3.585-2.734-4.074-3.26
		c0.778,0.67,2.136,1.648,4.074,2.934l-0.054-1.168c-2.264-1.594-3.585-2.599-3.966-3.016c0.435,0.381,1.757,1.296,3.966,2.744
		v-1.113c-2.372-1.594-3.658-2.553-3.857-2.879c0.525,0.507,1.792,1.321,3.802,2.444v-0.923c-2.118-1.322-3.385-2.228-3.802-2.717
		c0.778,0.671,2.046,1.494,3.802,2.473l-0.026-1.142c-1.557-1.015-2.834-1.929-3.83-2.743c0.724,0.507,1.557,1.05,2.499,1.63
		c0.887,0.524,1.331,0.769,1.331,0.732l-0.027-0.977c-2.082-1.286-3.332-2.155-3.748-2.608c0.525,0.453,1.774,1.167,3.748,2.146
		l-0.054-1.061c-1.34-0.735-2.4-1.388-3.178-1.954c-0.177-0.132-0.34-0.259-0.489-0.381c0.154,0.11,0.331,0.229,0.529,0.353
		c0.458,0.277,1.033,0.583,1.725,0.924c0.923,0.507,1.385,0.733,1.385,0.679l-0.027-1.005c-0.917-0.502-1.632-0.915-2.146-1.235
		c-0.431-0.268-0.72-0.471-0.869-0.611c0.255,0.169,0.572,0.355,0.951,0.557c0.268,0.142,0.567,0.291,0.896,0.448
		c0.779,0.38,1.168,0.543,1.168,0.489l-0.054-1.005c-0.399-0.188-0.742-0.355-1.032-0.502c-0.415-0.216-0.723-0.393-0.923-0.529
		c0.301,0.142,0.663,0.292,1.086,0.447c0.063,0.022,0.127,0.046,0.19,0.067c0.452,0.164,0.679,0.227,0.679,0.191v-0.326
		c-0.119-0.052-0.254-0.106-0.407-0.163c-0.373-0.129-0.843-0.265-1.413-0.407c-0.163-0.036-0.824,0.28-1.982,0.951
		c-0.003,0.564-0.008,1.103-0.014,1.616c-0.032,4.991-0.073,7.504-0.122,7.536l-0.027-2.172c-0.417-0.345-0.859-0.743-1.33-1.195
		c-0.695-0.641-1.175-1.184-1.44-1.63c-0.086-0.146-0.149-0.281-0.19-0.407c0.062,0.122,0.134,0.249,0.218,0.381
		c0.506,0.766,1.421,1.607,2.743,2.525l-0.054-1.005c-0.435-0.398-0.896-0.824-1.385-1.276c-0.303-0.298-0.561-0.564-0.774-0.802
		c-0.449-0.496-0.716-0.871-0.801-1.126c0.167,0.319,0.453,0.675,0.856,1.073c0.51,0.511,1.212,1.085,2.104,1.725v-0.842
		c-0.617-0.494-1.138-0.956-1.562-1.387c-0.514-0.507-0.89-0.969-1.127-1.384c0.301,0.447,0.7,0.892,1.195,1.332
		c0.426,0.372,0.924,0.744,1.494,1.113l-0.054-3.938l-1.059,0.516c-0.018,0.019,0.28,0.335,0.896,0.951
		c-0.036,0-0.434-0.271-1.195-0.814l-0.625,0.163l1.874,1.901c-0.028,0-0.232-0.168-0.611-0.502
		c-0.354-0.307-0.857-0.754-1.507-1.345c-0.253,0.036-0.58,0.081-0.978,0.136c-0.29,0.054-0.453,0.136-0.489,0.244
		c-0.253,1.188-0.131,2.388,0.367,3.599c1.85,4.539,8.907,9.278,21.17,14.219c4.653,1.863,11.307,3.901,19.962,6.11
		c11.208,2.879,18.44,3.812,21.7,2.797c0.326-0.108,0.516-0.127,0.57-0.054c0.036,0.09-0.045,0.298-0.244,0.624
		c-0.562,0.904-2.39,1.276-5.486,1.114c-1.847-0.091-3.884-0.336-6.111-0.733c3.368,0.669,5.857,1.022,7.468,1.059
		c3.549,0.073,5.324-0.914,5.324-2.96c0.126-0.236,0.235-0.508,0.325-0.814c-0.851-0.036-2-0.146-3.449-0.326
		c-2.969-0.345-5.948-0.852-8.936-1.521c2.879,0.506,5.785,0.904,8.718,1.194c2.499,0.271,3.748,0.353,3.748,0.244
		c-0.054-0.435-0.227-0.842-0.516-1.223c-3.82-0.36-7.74-0.959-11.76-1.791c2.752,0.397,5.432,0.76,8.039,1.086
		c2.3,0.271,3.432,0.38,3.396,0.326c-0.507-0.508-1.286-1.032-2.335-1.575c-1.376-0.163-2.771-0.345-4.183-0.544
		c-2.842-0.344-4.417-0.616-4.726-0.814c1.43,0.326,4.183,0.67,8.256,1.032c-1.159-0.579-2.734-1.259-4.726-2.037l-3.531-0.544
		c-0.072-0.036,0.888,0.064,2.879,0.3l-3.123-1.276c-0.018-0.019-0.19,2.289-0.516,6.925c3.386,0.87,7.17,1.477,11.352,1.82
		c-2.806-0.146-5.558-0.426-8.255-0.843c-1.322-0.216-2.363-0.389-3.124-0.516c-0.072,0.778-0.118,1.159-0.136,1.141
		c-0.036-0.344-0.036-0.77,0-1.276c-3.567-0.688-7.351-1.548-11.352-2.58c2.589,0.58,5.214,1.122,7.876,1.63
		c2.317,0.416,3.476,0.598,3.476,0.543v-1.195c-3.748-0.67-7.496-1.512-11.244-2.526c2.607,0.58,5.223,1.105,7.849,1.576
		c2.281,0.453,3.421,0.651,3.421,0.598v-1.142c0-0.018-1.122-0.253-3.367-0.705c-2.843-0.598-5.477-1.214-7.903-1.848
		c2.553,0.599,5.169,1.122,7.849,1.576c2.281,0.417,3.421,0.597,3.421,0.543l0.028-1.168c-3.513-0.67-7.225-1.512-11.135-2.526
		c2.553,0.58,5.133,1.104,7.74,1.575c2.263,0.398,3.395,0.58,3.395,0.544l0.054-1.169l-3.449-0.678
		c-2.843-0.58-5.414-1.187-7.713-1.819c2.553,0.615,5.143,1.14,7.768,1.575c2.263,0.397,3.395,0.561,3.395,0.488
		c0-0.562-0.019-0.842-0.054-0.842l-0.733-0.325c-0.869-0.417-1.539-0.879-2.01-1.387c-0.29-0.343-0.761-0.995-1.412-1.955
		c-0.743-1.503-3.087-3.214-7.035-5.134c-3.168-1.538-7.74-3.367-13.715-5.484c-3.856-1.359-8.111-2.698-12.765-4.02
		c-2.158-0.611-4.054-1.114-5.69-1.508c-2.388-0.579-4.221-0.927-5.5-1.046c0.776,0.086,2.464,0.502,5.065,1.25
		c1.225,0.353,2.651,0.778,4.277,1.276c4.382,1.322,9.252,2.861,14.611,4.617c1.322,0.398,3.775,1.366,7.36,2.906
		c4.672,2.009,7.822,3.656,9.452,4.942c-0.2-0.144-0.662-0.397-1.385-0.76c-0.707-0.309-1.277-0.615-1.711-0.924
		c-0.018,0-0.054,0.426-0.108,1.276c0,0.055,0.471,0.245,1.412,0.57c0.905,0.289,1.647,0.508,2.227,0.652
		c-2.426-0.489-3.639-0.697-3.639-0.625l-0.027,1.033c-0.054,0.089,1.892,0.614,5.839,1.574c-3.929-0.851-5.894-1.223-5.894-1.114
		l-0.027,1.143c0,0.054,0.751,0.262,2.254,0.623c1.847,0.453,3.983,0.906,6.41,1.358c-2.118-0.289-4.219-0.661-6.301-1.113
		c-1.033-0.218-1.829-0.39-2.391-0.517c-0.217,5.957-0.335,8.937-0.353,8.937l-0.081-1.169c-3.712-0.996-7.016-1.981-9.913-2.96
		c1.919,0.561,4.101,1.159,6.545,1.793c2.246,0.542,3.368,0.787,3.368,0.732l-0.027-1.167c0-0.02-1.122-0.309-3.368-0.87
		c-2.662-0.706-4.834-1.349-6.518-1.927c1.811,0.542,3.975,1.112,6.491,1.71c2.263,0.524,3.395,0.761,3.395,0.707v-1.196
		c0-0.035-1.149-0.344-3.449-0.924c-2.734-0.724-4.888-1.357-6.463-1.9c1.738,0.489,3.865,1.032,6.382,1.629
		c2.354,0.58,3.531,0.843,3.531,0.788l0.027-1.168c0-0.018-0.969-0.271-2.906-0.76c-2.499-0.635-4.843-1.304-7.034-2.011
		c2.227,0.598,4.517,1.149,6.871,1.657c2.046,0.452,3.069,0.66,3.069,0.625v-1.059l-3.15-0.897
		c-2.607-0.705-4.825-1.349-6.654-1.929c1.937,0.544,4.12,1.114,6.546,1.712c2.208,0.525,3.313,0.76,3.313,0.706l0.027-1.113
		c0-0.036-1.05-0.308-3.15-0.814c-2.571-0.671-4.843-1.341-6.817-2.01c2.191,0.615,4.463,1.194,6.817,1.737
		c2.1,0.471,3.15,0.671,3.15,0.598l0.082-1.086c0-0.019-1.032-0.29-3.096-0.815c-2.571-0.669-4.861-1.34-6.871-2.01
		c2.1,0.58,4.355,1.158,6.763,1.738c2.154,0.488,3.232,0.706,3.232,0.651v-1.221c0-0.036-1.086-0.309-3.259-0.814
		c-2.625-0.616-4.871-1.241-6.736-1.876c2.064,0.58,4.318,1.142,6.763,1.686c2.154,0.471,3.232,0.679,3.232,0.624
		c0-0.942-0.009-1.421-0.027-1.438c-2.715-1.196-6.111-2.509-10.185-3.939l-0.027,1.249c0,0.109,3.006,0.97,9.017,2.58
		c-2.082-0.435-4.246-0.949-6.491-1.548l-2.526-0.624l-0.244,13.28c-0.018,0-0.027-0.326-0.027-0.979l-2.852-0.923
		c-2.245-0.742-4.183-1.476-5.812-2.199c1.775,0.67,3.721,1.339,5.839,2.01c1.883,0.578,2.825,0.842,2.825,0.787l-0.027-1.221
		c0-0.037-0.905-0.336-2.716-0.897c-2.191-0.742-4.146-1.503-5.866-2.281c1.774,0.743,3.729,1.43,5.866,2.064
		c1.811,0.543,2.716,0.788,2.716,0.733v-1.223l-2.689-0.814c-2.173-0.725-4.119-1.458-5.839-2.2
		c1.647,0.616,3.531,1.258,5.649,1.928c1.919,0.562,2.879,0.825,2.879,0.789v-1.196c0-0.018-0.887-0.299-2.662-0.842
		c-2.173-0.706-4.064-1.402-5.676-2.091c1.756,0.67,3.649,1.285,5.676,1.847c1.774,0.543,2.662,0.778,2.662,0.706v-1.141
		c0-0.018-0.923-0.308-2.77-0.868c-2.209-0.707-4.156-1.458-5.839-2.255c1.792,0.725,3.757,1.394,5.894,2.01
		c1.811,0.543,2.716,0.797,2.716,0.76v-1.249c0-0.018-0.896-0.29-2.689-0.814c-2.191-0.706-4.173-1.431-5.948-2.173
		c1.792,0.706,3.748,1.357,5.867,1.955c1.847,0.507,2.77,0.725,2.77,0.652v-1.113c0-0.019-0.905-0.3-2.716-0.842
		c-2.227-0.688-4.165-1.377-5.812-2.064c1.738,0.597,3.648,1.195,5.73,1.792c1.865,0.525,2.797,0.771,2.797,0.733l-0.054-1.25
		c0-0.018-0.851-0.271-2.553-0.76c-2.155-0.651-4.128-1.349-5.92-2.092c1.811,0.652,3.757,1.269,5.839,1.847
		c1.757,0.489,2.635,0.716,2.635,0.68V156.838z M138.843,127.262c-0.181-0.036-0.425,0-0.733,0.109l-10.754,2.227
		c-0.598,0.09-0.896,0.153-0.896,0.189c0,0.019,0.281,0.109,0.842,0.271l1.548,0.354c0.525,0.145,1.131,0.154,1.819,0.027
		l11.788-1.738c0.471-0.054,0.887-0.109,1.249-0.163c0.073-0.018-0.245-0.127-0.951-0.327l-3.124-0.815
		C139.25,127.307,138.989,127.262,138.843,127.262z M123.254,143.421c1.394-0.417,2.562-0.688,3.503-0.815
		c1.502-0.181,2.842-0.045,4.019,0.408c1.774,0.616,3.024,1.114,3.748,1.494c0.598,0.29,0.29,0.896-0.923,1.82
		c-0.67,0.507-1.729,1.258-3.178,2.253l0.055-0.026c-0.797,0.652-1.368,1.458-1.711,2.417c-0.199,0.598-0.616,1.169-1.25,1.711
		c-0.163,0.145-0.76,0.57-1.792,1.277c1.086-0.652,1.81-1.087,2.173-1.305c0.163-0.126,0.298-0.145,0.407-0.055
		c0.109,0.074,0.145,0.227,0.109,0.462c0,2.011,0.76,3.622,2.281,4.835c0.38,0.29,0.407,0.516,0.081,0.679
		c-0.126,0.073-0.417,0.146-0.869,0.218c-4.02,0.833-8.763,1.186-14.23,1.059c-4.237-0.072-8.175-0.371-11.815-0.896
		c-0.814-0.146-1.602-0.407-2.362-0.788c-0.941-0.507-1.494-1.059-1.657-1.657c-0.218-0.796-0.045-1.484,0.516-2.063
		c0.29-0.326,0.906-0.762,1.847-1.305l14.15-9.125c2.191-1.322,3.875-2.191,5.051-2.607c0.887-0.326,2.272-0.299,4.155,0.081
		c1.014,0.199,0.887,0.57-0.38,1.113c-1.865,0.634-3.177,1.095-3.938,1.386c-0.959,0.379-1.729,1.014-2.309,1.901
		c-0.598,0.906-0.896,1.911-0.896,3.015c0,1.43,0.48,2.661,1.44,3.692c0.941,1.033,2.082,1.549,3.421,1.549h0.272
		c-1.159-0.072-2.127-0.561-2.906-1.467c-0.815-0.905-1.222-1.983-1.222-3.232c0-1.286,0.425-2.39,1.276-3.313
		c0.869-0.941,1.901-1.412,3.097-1.412c1.14,0,2.136,0.435,2.987,1.304c0.833,0.869,1.286,1.919,1.357,3.15v-0.271
		c0-1.376-0.425-2.563-1.276-3.558c-0.888-0.979-1.956-1.531-3.205-1.658l-0.38-0.027c-0.09,0-0.145-0.009-0.163-0.027
		c-0.018-0.054,0.036-0.09,0.163-0.108L123.254,143.421z M137.893,146.518c0.453,0.344,0.797,0.725,1.033,1.142
		c0.471,0.76,0.643,1.846,0.516,3.259c-0.108,1.267-0.398,2.354-0.869,3.259c-0.597,1.248-1.883,2.3-3.856,3.149
		c-0.345,0.182-0.616,0.3-0.815,0.354c-1.321,0.436-2.254,0.444-2.797,0.027l-0.624-0.543c-0.942-0.996-1.413-2.227-1.413-3.693
		c0-1.34,0.398-2.49,1.195-3.45c0.778-0.959,1.729-1.44,2.852-1.44c1.068,0,1.992,0.453,2.77,1.359
		c0.779,0.924,1.195,2.037,1.25,3.34v-0.218c0-1.466-0.435-2.715-1.304-3.747c-0.851-1.032-1.875-1.548-3.069-1.548
		c-0.562,0-1.141,0.145-1.738,0.435c1.395-0.851,2.68-1.448,3.857-1.792C136.309,145.957,137.313,145.993,137.893,146.518z
		 M108.887,184.105c0,1.757,0.969,3.169,2.906,4.236c1.955,1.051,4.309,1.423,7.062,1.114c1.937-0.218,3.711-0.733,5.323-1.549
		c1.575-0.814,2.779-1.819,3.612-3.014c-0.778,1.231-1.992,2.263-3.639,3.096c-1.666,0.888-3.503,1.431-5.513,1.63
		c-2.716,0.308-5.061-0.063-7.034-1.114c-1.974-1.031-2.96-2.417-2.96-4.154c0-1.178,0.498-2.336,1.494-3.477
		C109.304,181.924,108.887,183.001,108.887,184.105z M109.43,181.173c-0.959,1.105-1.439,2.245-1.439,3.422
		c0,1.811,1.014,3.251,3.042,4.317c2.028,1.087,4.454,1.476,7.278,1.169c2.499-0.29,4.708-1.032,6.627-2.228
		c1.883-1.213,3.06-2.598,3.531-4.155c0.217-0.543,0.326-1.114,0.326-1.711c0-1.757-0.968-3.15-2.906-4.182
		c-1.973-1.069-4.318-1.459-7.034-1.168c-2.155,0.271-4.056,0.868-5.704,1.792C111.576,179.172,110.336,180.086,109.43,181.173z
		 M112.853,179.651c1.702-1.285,3.748-2.055,6.138-2.309c0.96-0.126,2.137-0.09,3.531,0.108c1.213,0.164,1.955,0.752,2.227,1.767
		c0.218,0.905,0.028,1.865-0.57,2.878c-0.598,1.051-1.385,1.693-2.363,1.928c-1.177,0.309-2.327-0.026-3.449-1.004
		c1.412,2.19,3.269,2.816,5.568,1.874c2.281-0.923,3.295-2.607,3.042-5.051c0.471,0.67,0.706,1.393,0.706,2.172
		c0,1.557-0.852,2.969-2.553,4.236c-1.684,1.269-3.73,2.028-6.138,2.282c-2.39,0.271-4.436-0.046-6.138-0.951
		c-1.684-0.923-2.526-2.163-2.526-3.721C110.327,182.322,111.168,180.92,112.853,179.651z M166.655,145.948l-0.816,0.788
		c0.889-0.362,3.061-1.367,6.519-3.015l-0.76,0.299c-0.019-0.271-0.063-0.553-0.137-0.842c-0.163-0.58-0.416-0.896-0.759-0.95
		c0.56,0.308,0.759,0.941,0.596,1.901c-0.488,0.181-0.732,0.244-0.732,0.19c0.018-0.398,0.026-0.67,0.026-0.814
		c0-0.29-0.045-0.534-0.135-0.733c-0.127-0.309-0.878-0.118-2.255,0.57C167.079,143.92,166.563,144.789,166.655,145.948z
		 M168.04,152.601c0.108,0.199,0.162,0.444,0.162,0.733c0.019-0.361-0.036-0.679-0.162-0.95c-0.146-0.235-0.336-0.353-0.57-0.353
		c-0.219,0-0.408,0.136-0.57,0.407c-0.183,0.308-0.29,0.644-0.326,1.005c-0.019,0.362,0.036,0.688,0.162,0.978
		c0.146,0.271,0.336,0.407,0.57,0.407h0.027c-0.181-0.019-0.326-0.145-0.434-0.379c-0.146-0.255-0.208-0.544-0.19-0.87
		c0.054-0.362,0.154-0.661,0.298-0.896c0.146-0.253,0.326-0.38,0.544-0.38C167.732,152.303,167.895,152.403,168.04,152.601z"/>
</g>
</svg>
