<?xml version="1.0" encoding="utf-8"?>
<!-- Generator: Adobe Illustrator 16.0.0, SVG Export Plug-In . SVG Version: 6.00 Build 0)  -->
<!DOCTYPE svg PUBLIC "-//W3C//DTD SVG 1.1//EN" "http://www.w3.org/Graphics/SVG/1.1/DTD/svg11.dtd">
<svg version="1.1" id="Layer_1" xmlns="http://www.w3.org/2000/svg" xmlns:xlink="http://www.w3.org/1999/xlink" x="0px" y="0px"
	 width="300px" height="300px" viewBox="0 0 300 300" enable-background="new 0 0 300 300" xml:space="preserve">
<g>
	<path fill-rule="evenodd" clip-rule="evenodd" fill="#00314A" d="M263.041,155.998c-1.227-0.883-2.994-1.755-5.302-2.613
		l-3.093-1.105c-0.123,0.736-0.356,4.075-0.7,10.016c4.198,1.915,7.254,3.694,9.169,5.339
		C262.747,164.001,262.723,160.122,263.041,155.998z M269.484,134.458c-0.858-0.687-2.467-1.559-4.823-2.614l-3.351-1.399
		c0.835-2.259,2.762-5.044,5.781-8.358c-3.412-1.792-6.996-3.228-10.752-4.308c-0.957,0.957-2.05,2.773-3.277,5.449
		c-0.613,1.326-1.129,2.565-1.546,3.719c-0.613-0.393-2.405-0.749-5.376-1.068l-4.234-0.405l-3.167,11.415l-9.463,0.147
		c1.645-1.89,3.289-3.535,4.935-4.934l1.325-1.215l-1.142-1.436c-0.908-1.056-2.173-1.854-3.793-2.394l0.442-1.51
		c1.619-0.393,5.216-0.417,10.788-0.073l2.762-10.016c-3.903-0.319-7.536-0.405-10.898-0.258l-2.726,10.273l-10.015,1.693
		l3.056-11.01c-3.216,0.491-6.75,1.191-10.604,2.099l-2.688,10.899l-8.358,1.583l2.577-10.273l-8.579,2.725l-1.805,6.444
		l-0.589,0.258c-1.227,0.663-2.872,1.607-4.935,2.835l4.493-5.892l-5.635,0.884l0.443-1.73l-2.689,1.031
		c-1.768,0.688-3.326,1.326-4.676,1.915l-0.957,3.461l-5.523,7.438l-2.43,0.81l-1.031-3.535l-0.222,0.11l3.241-3.13l0.036-0.957
		c0-0.737-0.27-1.387-0.81-1.952c4.271-2.209,8.224-4.026,11.855-5.45l11.673-4.161v0.074c16.496-5.475,30.611-8.088,42.345-7.843
		c13.722,0.319,26.094,4.431,37.115,12.335l0.627,0.368l-0.479,0.552c-6.726,7.291-10.678,16.508-11.855,27.653
		c-0.663,5.621-0.614,10.543,0.146,14.766l-0.037,1.398c-0.81-0.761-2.209-1.767-4.197-3.02c-3.928-2.43-8.69-4.75-14.286-6.959
		l2.099-3.276l3.166,1.067l2.356-11.378c-0.712-0.688-2.454-1.35-5.229-1.988l-3.977-0.736l-1.104,4.16l-7.806-0.957l3.056-10.898
		c0.394-0.074,2.013,0.123,4.86,0.589c1.473,0.221,2.872,0.454,4.198,0.7l3.719-11.23c1.398,0.294,4.664,1.46,9.794,3.498
		c-0.663,0.761-1.559,2.725-2.688,5.891c-0.589,1.571-1.104,3.081-1.546,4.529c1.546,0.515,4.223,1.841,8.027,3.977
		C266.134,141.184,267.595,137.723,269.484,134.458z M198.567,138.545c0.712-0.761,1.301-1.571,1.768-2.43l-1.216,4.308
		l-2.135,0.332C197.745,139.601,198.273,138.864,198.567,138.545z M202.065,140.092c-1.325,1.203-2.381,2.234-3.167,3.093
		l-0.625,0.773l0.846-3.535L202.065,140.092z M201.477,131.844l-0.073-0.332l0.221-0.074L201.477,131.844z M223.422,152.611
		l1.62-5.708l10.642,0.884l-2.063,7.401l4.345,1.215l-3.829,0.368l-9.095-2.504c-2.455-0.564-5.216-0.994-8.285-1.288l0.81-1.142
		C219.752,152.059,221.703,152.316,223.422,152.611z M225.042,146.903l-3.83-0.073c1.646-2.136,3.585-4.566,5.818-7.291
		L225.042,146.903z M220.844,127.609l-0.368,0.184c-3.755,2.013-7.523,4.296-11.304,6.849l1.547-5.486l10.236-1.989L220.844,127.609
		z M162.594,157.287l2.798-2.062l-0.736,1.62L162.594,157.287z M146.429,158.134l1.031-0.699l-0.111,1.252l0.073,1.215h0.038
		c0.049,0.393,0.184,0.822,0.405,1.289l-3.719,1.178c-10.065,7.39-19.822,12.888-29.273,16.496l-11.636,4.161l0.038-0.074
		c-16.496,5.475-30.624,8.089-42.382,7.844c-13.697-0.319-26.081-4.432-37.152-12.335l-0.626-0.406l0.516-0.552
		c6.751-7.29,10.727-16.508,11.93-27.652c0.368-3.511,0.429-6.997,0.184-10.458c-0.295-2.823-0.442-4.247-0.442-4.271l-0.257-1.841
		l7.033,5.229c6.727,3.977,14.987,7.266,24.781,9.868l-0.516,1.031c-3.265-0.908-6.517-1.914-9.757-3.019l-1.51,9.168
		c-0.564-0.123-3.805-1.215-9.721-3.277c0.344-1.914,0.577-5.24,0.7-9.979c-4.173-1.939-7.217-3.719-9.132-5.339
		c0.417,3.633,0.43,7.499,0.037,11.599c2.013,1.424,4.812,2.663,8.396,3.719l-2.43,11.452c-1.547-0.541-4.21-1.865-7.991-3.978
		c-1.03,3.658-2.491,7.107-4.381,10.347c1.423,1.154,4.136,2.529,8.137,4.125c-0.712,1.963-2.626,4.749-5.744,8.357
		c3.412,1.744,6.996,3.167,10.751,4.271c1.546-1.546,3.154-4.603,4.824-9.169c0.982,0.565,4.186,1.031,9.61,1.399l2.688-9.868
		c0.81,0.099,1.816,0.063,3.019-0.109c1.891-0.271,3.511-0.762,4.861-1.474l3.498-0.073l-3.241,11.524
		c-1.03,0.222-3.142,0.295-6.333,0.222l-4.418-0.222l-2.762,10.016c3.461,0.393,7.094,0.479,10.899,0.258l2.688-10.273l10.015-1.583
		l-3.019,10.899c3.878-0.565,7.413-1.252,10.604-2.063l2.688-10.898l5.56-1.068l1.546,4.382l-1.362,5.339
		c1.89-0.516,4.762-1.411,8.616-2.688l0.11-0.516c1.547-0.712,2.541-1.583,2.983-2.614l0.146-0.59l-1.178-3.719l0.7-2.577
		c0.123-0.123,1.448-0.553,3.976-1.289c1.228-0.368,2.468-0.724,3.72-1.067l-2.431,9.573l2.725-0.994
		c1.031-0.368,2.578-1.031,4.64-1.988l2.615-9.684l6.296-1.988l1.03,3.534l2.836-1.546l0.11-0.11
		c0.982,0.295,2.075,0.159,3.277-0.405h0.037l0.147-0.036l5.892-3.757l0.147-0.109C142.734,160.712,144.391,159.582,146.429,158.134
		z M139.396,150.181c1.153-0.344,2.541-0.662,4.16-0.957l-0.699,2.798c-0.467,0.319-1.584,0.896-3.352,1.731l-0.257,0.146
		c-0.368,0.344-0.859,0.614-1.473,0.811l0.442-1.657C138.414,152.414,138.807,151.457,139.396,150.181z M144.146,147.015
		l-3.609,0.92l0.92-1.62c5.032-1.228,9.5-2.491,13.404-3.792l-2.246,3.167c-2.529,1.964-5.033,3.646-7.512,5.045l3.977-3.277
		l-5.523,1.768L144.146,147.015z M181.151,152.795l0.957-0.11l-0.516,1.289l-6.26,0.884c1.007-1.67,2.32-3.4,3.94-5.192l2.908-0.589
		L181.151,152.795z M186.49,143.369c-1.179,2.062-2.123,3.903-2.836,5.523l-1.473,0.185l0.811-3.02
		C184.023,145.124,185.189,144.228,186.49,143.369z M166.385,142.485l-0.367,1.473l-1.105,0.516L166.385,142.485z M172.867,140.792
		l-0.185,0.773c-2.603,2.308-5.192,4.37-7.771,6.187l1.105-3.793L172.867,140.792z M103.495,151.69l-0.7,1.51l-6.701,0.185
		l-0.811-1.474L103.495,151.69z M42.924,163.731c1.252,1.129,4.357,2.036,9.315,2.724l-3.719,11.23
		c-0.908-0.171-2.811-0.81-5.708-1.914l-4.124-1.546C39.77,172.998,41.181,169.5,42.924,163.731z M59.163,166.677l-0.405,0.81
		l-6.518-1.031l2.835-10.898c1.056,0.221,3.792,0.589,8.211,1.104C61.519,160.712,60.144,164.051,59.163,166.677z M130.227,148.708
		l-0.332,0.736l-0.625,0.811l-2.43,0.368l0.699-1.474L130.227,148.708z M101.175,157.655c-0.516,2.283-0.54,4.002-0.073,5.155
		l-2.541-5.008L101.175,157.655z M101.618,164.025l-0.258-0.589l0.442,0.589l0.257,0.258c1.276,1.105,3.351,0.994,6.223-0.331
		l-1.915,6.885l-1.583,0.442C103.532,168.285,102.476,165.866,101.618,164.025z M112.59,161.853l-1.215,0.332l1.142-0.736
		L112.59,161.853z M129.27,163.437l-1.289,0.516l0.625-2.32C128.706,162.123,128.926,162.725,129.27,163.437z M117.083,167.045
		c0.761,0,1.485-0.197,2.172-0.59c0.589-0.393,1.535-1.066,2.835-2.024l-0.405,1.51l-7.548,3.093l0.736-2.614
		C115.511,166.787,116.248,166.996,117.083,167.045z M91.308,165.167l0.478,1.288l-2.467,8.985l-10.273,2.062l3.056-11.23
		l-9.684,0.884l2.578-9.5l9.757,0.222l-2.504,8.321L91.308,165.167z M85.71,153.421l2.32,4.456l-3.535-0.074L85.71,153.421z
		 M76.873,150.623c2.43,0.417,5.008,0.724,7.732,0.92l0.847,1.51c-3.117-0.245-6.063-0.602-8.837-1.067l-1.62,5.67l-1.215-0.036
		L76.873,150.623z"/>
	<path fill-rule="evenodd" clip-rule="evenodd" fill="#0B98CA" d="M184.244,130.15l4.971-0.773l-8.138,10.678l-0.11,0.294
		c5.548-3.977,10.163-6.898,13.846-8.764c2.773-1.424,4.356-1.387,4.749,0.11c0.344,1.375-0.467,3.265-2.431,5.671
		c-1.546,1.865-3.289,4.873-5.229,9.021c-0.957,2.11-1.779,4.013-2.467,5.707l9.684-6.149c0.491-0.688,0.896-1.179,1.216-1.473
		c2.725-3.093,7.058-6.518,12.997-10.273c2.972-1.865,5.646-3.449,8.027-4.75c0.859,1.546,1.24,3.338,1.142,5.375
		c1.424-2.283,2.59-4.357,3.498-6.223c1.964-0.294,3.719-0.037,5.266,0.773c0.761,0.393,1.325,0.822,1.693,1.289
		c-3.583,3.142-7.817,7.917-12.703,14.324l-6.26,8.653c-0.957,1.398-2.417,4.025-4.382,7.88c9.206-1.326,17.981-2.333,26.327-3.021
		l10.126-0.883l-3.277,5.117l-10.641,0.516c-7.242,0.467-15.539,1.387-24.892,2.762l-0.331,0.185
		c-3.167,5.154-8.076,11.55-14.729,19.184c-7.363,8.42-16.115,14.323-26.254,17.711c-3.166,1.056-6.271,1.804-9.315,2.246
		l-3.646,0.331c-3.117-0.195-5.682-1.104-7.695-2.724c-4.05-3.29-3.326-8.629,2.173-16.018c5.94-6.457,13.771-11.734,23.491-15.833
		c7.708-3.266,16.84-5.83,27.396-7.696l5.449-0.957l0.11-0.074c1.547-2.454,2.896-4.663,4.051-6.628
		c-1.08,1.253-3.646,2.885-7.696,4.897c-3.116,1.522-4.958,1.031-5.522-1.473c-0.564-2.356,0.049-5.376,1.841-9.058l-12.556,10.126
		c-0.688,0.613-1.191,0.662-1.51,0.146l-0.332-0.957c0.54-3.731,2.309-8.396,5.303-13.992c1.521-2.823,2.982-5.265,4.382-7.327
		c-6.677,3.093-12.188,7.536-16.533,13.329l-4.529,7.77c-1.963,0.908-3.411,1.19-4.345,0.847l-0.847-0.699
		c1.104-3.094,2.921-6.714,5.45-10.862c-7.34,5.866-12.765,9.77-16.275,11.709c-3.289,1.816-5.13,1.62-5.523-0.59l0.442-3.866
		l1.289-3.387c-3.216,2.577-6.935,5.253-11.157,8.026l-5.375,3.388c-1.718,0.762-2.934,0.246-3.646-1.547l-0.589-2.945
		c-0.147-1.546-0.061-3.216,0.258-5.008c-6.21,5.99-10.248,9.5-12.114,10.531c-0.958,0.516-1.853,0.479-2.688-0.11
		c-1.006-0.736-1.437-2.075-1.289-4.014c0.024-0.761,0.602-2.271,1.73-4.529l-2.578,2.21c-7.535,5.695-11.193,6.432-10.972,2.209
		c0.147-2.405,1.129-5.339,2.946-8.801c2.405-3.928,4.896-7.241,7.474-9.941c2.676-2.848,5.806-5.425,9.39-7.732
		c3.511-2.234,5.352-1.854,5.523,1.142l2.063-3.351c1.498-0.024,3.019,0.319,4.565,1.031c0.712,0.344,1.302,0.688,1.768,1.031
		c-4.345,3.682-7.978,8.8-10.899,15.354c-1.448,3.289-2.467,6.187-3.057,8.69c2.946-0.933,6.002-3.425,9.169-7.475
		c1.056-3.045,2.7-6.052,4.934-9.021c1.841-2.381,3.792-4.406,5.854-6.076c2.16-1.792,4.223-2.97,6.186-3.535
		c0.958-0.246,2.762-0.454,5.414-0.626c1.816-0.123,2.859,0.552,3.129,2.025c0.246,1.399-0.184,3.155-1.289,5.266
		c-0.834,1.669-2.135,2.406-3.903,2.209l-2.393-0.921l2.503-5.523c-2.847,0.736-5.866,3.007-9.057,6.812
		c-3.069,3.682-5.216,7.475-6.444,11.377c-1.031,3.118-0.688,4.542,1.031,4.271c0.859-0.122,1.816-0.564,2.872-1.325
		c5.057-2.356,9.586-5.167,13.587-8.432c2.282-3.486,5.155-6.984,8.616-10.494c1.742-1.768,3.264-3.179,4.564-4.235
		c2.21-0.442,3.721-0.43,4.529,0.037c0.442,0.271,0.639,0.553,0.59,0.847c-3.707,3.388-7.512,8.027-11.414,13.918l-4.677,7.843
		c4.763-1.669,11.255-6.149,19.479-13.439C178.623,137.146,181.495,133.366,184.244,130.15z M179.862,121.387
		c0.271,0.123,0.405,0.27,0.405,0.442l-4.824,5.339l-4.824-0.479l6.482-5.818C178.426,120.871,179.347,121.043,179.862,121.387z
		 M63.729,128.825l5.449-2.762c4.468-2.234,8.973-4.173,13.514-5.818l2.503-4.382l1.878,2.872c6.333-2.086,12.2-3.424,17.6-4.013
		c9.377-1.031,15.084-0.209,17.122,2.467c1.866,2.504,0.442,6.1-4.271,10.789c-3.952,3.928-9.401,7.217-16.349,9.868
		c-5.229,1.964-10.187,3.252-14.876,3.866l6.996,10.567c5.155,8.69,9.034,17.135,11.636,25.333c-0.098,0.295-0.43,0.663-0.994,1.104
		c-1.129,0.762-2.786,1.362-4.971,1.805c-1.521-4.959-3.498-10.322-5.928-16.091c-4.885-11.513-9.525-19.319-13.919-23.418
		L68.073,165.83c-1.227,0.761-2.811,1.252-4.75,1.473l-2.431,0.073c5.646-14.213,11.452-27.149,17.417-38.809
		c-4.075,1.792-8.174,3.731-12.299,5.817L63.729,128.825z M200.888,167.045l-6.591,1.067c-8.765,2.233-17.295,5.916-25.592,11.047
		c-7.094,4.442-12.163,8.652-15.207,12.63c-2.381,3.117-2.982,5.363-1.804,6.738c0.858,1.03,2.786,1.608,5.78,1.73
		c2.873,0.122,5.756-0.344,8.653-1.399c3.854-1.448,8.665-4.186,14.434-8.211C186.158,186.793,192.934,178.926,200.888,167.045z
		 M204.643,147.088c-1.473,1.89-2.737,3.903-3.792,6.039l-1.179,2.613l4.64-2.798c3.535-2.258,6.566-4.419,9.095-6.48
		c2.455-1.915,5.155-5.229,8.101-9.941C214.879,137.625,209.258,141.147,204.643,147.088z M125.735,137.588l-0.59-0.11
		c-4.443,2.308-8.395,6.284-11.856,11.93l-3.83,7.77c1.571-0.393,3.253-1.19,5.045-2.394c1.743-1.153,3.118-2.332,4.124-3.534
		c0.786-0.982,2.086-3.069,3.903-6.26c1.498-2.701,2.541-4.688,3.13-5.965C126.005,138.288,126.029,137.809,125.735,137.588z
		 M115.352,120.466c-1.203-0.589-3.326-0.822-6.37-0.699c-6.063,0.245-13.71,2.124-22.94,5.634l-5.597,12.593
		c5.351-0.688,10.543-2.075,15.575-4.161C103.655,130.666,110.099,126.21,115.352,120.466z"/>
</g>
</svg>
