<?xml version="1.0" encoding="utf-8"?>
<!-- Generator: Adobe Illustrator 16.0.0, SVG Export Plug-In . SVG Version: 6.00 Build 0)  -->
<!DOCTYPE svg PUBLIC "-//W3C//DTD SVG 1.1//EN" "http://www.w3.org/Graphics/SVG/1.1/DTD/svg11.dtd">
<svg version="1.1" id="Layer_1" xmlns="http://www.w3.org/2000/svg" xmlns:xlink="http://www.w3.org/1999/xlink" x="0px" y="0px"
	 width="300px" height="300px" viewBox="0 0 300 300" enable-background="new 0 0 300 300" xml:space="preserve">
<g>
	<path fill-rule="evenodd" clip-rule="evenodd" fill="#010101" d="M209.425,115.634l0.608,0.283l9.379,4.276l-4.473,0.869
		l-7.751-3.191l-0.717-0.304l-12.069-4.929l-5.298-19.67l-5.559,23.579v14.372v1.671v11.138l-2.692-4.863l0.021-2.693l0.022-3.82
		l0.087-16.327l4.559-23.361c-2.604-0.695-4.487-1.81-5.644-3.344l-19.192,5.08l-4.776,0.326l-0.674,0.043l-11.875,0.803
		l-3.909-1.866l16.044-0.956l0.564-0.043l4.104-0.261l18.107-5.341c-1.13-1.39-1.68-2.287-1.651-2.692
		c-0.028-0.231,0.319-0.724,1.043-1.476l-17.065,1.476l-15.327-16.848l-0.74-4.602l17.412,17.673l17.152-1.607l-11.245-5.514
		L164.267,38.3l2.259-0.782l4.212,33.478l13.635,6.73l-0.521,1.128l3.69-2.214l-7.252-13.981l9.249-36.083l3.647-1.781l-9.64,38.081
		l6.514,10.551c0.202-0.435,0.825-2.388,1.866-5.862c0.812-2.807,1.896-5.109,3.258-6.903c2.141-2.895,5.644-4.675,10.507-5.341
		c4.98-0.695,8.917,0.173,11.812,2.605c2.721,2.287,3.75,5.905,3.083,10.855c-0.608,4.574-2.301,8.033-5.081,10.378
		c-1.39,1.129-3.762,1.78-7.121,1.954c-2.837,0.232-5.079,1.375-6.73,3.431l10.986,4.603l35.952-15.719l-1.171,3.821l-34.087,14.937
		l-14.025-4.342l-0.998,0.955l8.293,11.507l33.521-0.998l-0.391,2.344l-35.259,1.911l-9.03-12.635
		c-1.188,0.694-2.128,1.085-2.823,1.172l4.776,18.063L209.425,115.634z"/>
	<path fill-rule="evenodd" clip-rule="evenodd" fill="#383635" d="M156.082,92.708l-0.564,0.043l1.021-8.207l-0.391,6.991
		C156.122,91.925,156.101,92.316,156.082,92.708z M209.425,115.634l2.476-1.607c2.576-1.766,4.501-3.241,5.775-4.429
		c0.694-0.637,1.144-1.115,1.346-1.434h0.044l0.39-0.477l-0.346,0.521c-0.029,0.058-0.175,0.232-0.436,0.521l-0.564,0.651
		c-0.029,0.029-0.057,0.058-0.086,0.086c-0.059,0.059-0.116,0.117-0.175,0.174c-0.028,0-0.042,0.015-0.042,0.043l-4.126,3.561
		c-0.521,0.405-1.042,0.81-1.563,1.216c-0.677,0.479-1.371,0.964-2.084,1.455L209.425,115.634z M183.546,130.918
		c2.41-1.343,4.394-2.458,5.948-3.343c6.108-3.474,11.204-6.456,15.285-8.945c0.144-0.087,0.304-0.174,0.478-0.261l1.215-0.803
		l0.717,0.304c-0.052,0.039-0.104,0.075-0.151,0.109l-0.911,0.651h-0.044c-4.632,3.097-9.973,6.455-16.022,10.074
		c-2.154,1.301-4.325,2.597-6.514,3.886V130.918z M155.931,94.727c-0.378,5.54-0.798,10.598-1.26,15.176
		c-0.059,0.521-0.116,1.042-0.174,1.564c0.491,0.781,1.028,1.591,1.606,2.431c0.956,1.389,2.013,2.822,3.17,4.299
		c0.087,0.087,0.16,0.173,0.217,0.26c0.058,0.058,0.116,0.13,0.175,0.217c2.025,2.489,3.993,4.589,5.904,6.297
		c2.432,2.286,4.791,4.023,7.078,5.21l1.998,0.955l1.996,0.651c0.638,0.202,1.332,0.362,2.085,0.477l2.171,0.088l-0.022,3.82
		c-0.079,0.287-0.158,0.591-0.238,0.912c-0.202,0.724-0.478,1.939-0.824,3.646l-0.565,7.253c-0.058,0.404-0.029,1.026,0.087,1.866
		l0.565,3.475l0.521,1.693c0.115,0.405,0.361,0.927,0.738,1.563c0.261,0.492,0.419,0.768,0.478,0.826l0.477,0.65
		c0.406,0.694,0.753,1.174,1.043,1.434l1.217,1.129l22.969,5.254c9.177,2.084,21.624,5.022,37.343,8.815l36.301,8.986l-36.605-7.728
		c-15.833-3.416-28.295-6.152-37.385-8.207l-22.884-5.254c-0.55,0.463-1.304,1.173-2.258,2.127l-4.386,5.645l-1.736,3.04
		c-0.435,0.84-0.681,1.376-0.739,1.607l-1.172,3.343c-0.231,0.636-0.377,1.216-0.435,1.736l-0.607,3.474
		c-0.087,0.724-0.13,1.797-0.13,3.214c5.962,8.192,11.753,15.95,17.368,23.273l30.396,37.039c0.317,0.347,1.663,1.708,4.037,4.082
		c0.146,0.144,1.303,1.229,3.474,3.256l3.039,2.519c1.188,0.897,1.983,1.447,2.389,1.649l2.042,1.173l-2.128-1.129
		c-0.059-0.029-0.869-0.52-2.432-1.477l-1.564-1.042l-1.563-1.346c-1.823-1.477-3.069-2.533-3.734-3.17
		c-1.766-1.593-3.142-2.909-4.125-3.951c-2.577-2.519-5.718-5.834-9.422-9.943l-10.639-12.288
		c-3.416-4.111-7.194-8.845-11.334-14.199c-5.355-6.832-11.188-14.531-17.498-23.101l-11.029-0.868
		c-0.579,0-1.013,0.028-1.303,0.087l-6.383,0.521c-0.955,0.086-1.65,0.217-2.084,0.391c-1.246,0.232-1.94,0.376-2.085,0.435
		l-1.997,0.564c-0.897,0.347-1.548,0.607-1.954,0.78l-0.955,0.348l-0.957,0.521c-0.405,0.26-0.998,0.608-1.779,1.042l-1.477,1.173
		c-0.144,0.404-0.289,0.825-0.434,1.259c-2.837,8.858-6.237,16.906-10.204,24.143c-3.502,6.339-7.309,11.16-11.419,14.459
		c-0.985,0.84-2.417,1.81-4.299,2.909l-1.693,0.738l1.606-0.825c1.853-1.273,3.213-2.315,4.081-3.126
		c1.882-1.679,3.647-3.662,5.298-5.948c1.738-2.403,3.517-5.342,5.34-8.815c3.214-6.224,6.355-14.256,9.423-24.099
		c0.145-0.405,0.275-0.825,0.391-1.259l-2.084-3.864c-0.406-0.638-1.332-1.896-2.78-3.778l-3.169-3.43l-5.645-4.169l-4.213-1.997
		l-2.257-0.652c-1.216-0.347-1.983-0.55-2.301-0.608l-2.301-0.434c-1.042-0.114-1.81-0.188-2.301-0.217l-1.781-0.087L82.417,186.28
		c-6.252,3.157-17.368,8.599-33.348,16.327c-11.955,5.674-19.843,9.437-23.665,11.289l-9.031,4.126l65.133-33.435
		c5.992-3.04,14.444-7.396,25.358-13.071l0.477-7.076c0.058-0.868,0.029-2.171-0.087-3.907l-0.13-1.955
		c0-0.087-0.072-0.725-0.217-1.91l-0.694-3.865l-1.173-3.648l-1.78-3.386c-0.492-0.696-0.883-1.187-1.172-1.477l-0.999-0.998
		c-2.49-0.608-5.182-1.26-8.076-1.955c-2.808-0.666-5.804-1.375-8.989-2.128c-0.578-0.144-1.143-0.274-1.693-0.39
		c-12.332-3.068-20.538-5.081-24.62-6.036l-9.944-2.519l36.562,7.686c3.734,0.84,8.814,1.969,15.241,3.386
		c0.695,0.145,1.418,0.305,2.171,0.478c0.753-0.116,1.563-0.274,2.432-0.478c0.348-0.086,0.71-0.173,1.085-0.26l5.993-2.389
		c0.405-0.145,1.027-0.492,1.867-1.042c0.405-0.174,0.999-0.564,1.78-1.172l1.693-1.26c0.753-0.579,1.274-1.07,1.564-1.476
		l1.519-1.563l1.259-1.693c0.376-0.492,0.739-1.115,1.086-1.867l1.042-1.911l0.739-2.041c0.202-0.375,0.406-1.057,0.606-2.041
		l0.349-1.346c-0.521-0.782-1.057-1.578-1.606-2.388c-1.391-2.056-3.416-5.167-6.08-9.336c-1.101-1.708-2.316-3.604-3.648-5.688
		c-1.07-1.679-2.213-3.474-3.43-5.384l-4.863-7.773l19.323,27.92h0.042l-0.456-0.673l1.801,2.541h0.044
		c1.902-0.032,4.174-0.19,6.817-0.478l7.643-1.433l5.427-1.91l3.821-2.128l1.173-0.868c0.926-0.724,1.388-1.115,1.388-1.173
		l1.043-1.128l2.063-16.609L155.931,94.727z M158.146,118.673h-0.044c-1.246-1.65-2.505-3.488-3.778-5.515v0.044
		c-0.202,1.881-0.406,3.706-0.608,5.471c-0.578,4.892-1.113,9.264-1.606,13.114l0.131,0.521c0.087,0.607,0.375,1.287,0.869,2.04
		l1.258,1.781l1.564,1.52l3.734,2.562l3.647,1.694c0.316-0.204,0.65-0.391,0.998-0.565c5.326-2.865,9.943-5.355,13.851-7.468
		l-1.953-0.435l-2.257-0.825c-0.928-0.434-1.608-0.796-2.042-1.085c-2.286-1.302-4.719-3.142-7.295-5.514
		c-2.027-1.969-4.053-4.241-6.079-6.818C158.39,119.021,158.26,118.848,158.146,118.673z M164.224,143.598l-0.694,3.04
		c-0.174,1.158-0.262,2.301-0.262,3.431c0.059,1.07,0.262,2.186,0.608,3.342c0.203,0.695,0.405,1.217,0.607,1.564
		c0.087,0.318,0.29,0.723,0.608,1.216l15.806,3.604c-0.116-0.146-0.246-0.318-0.392-0.522l-0.606-0.825l-0.436-0.911
		c-0.55-1.071-0.854-1.68-0.911-1.825l-0.564-1.865l-0.608-3.865l0.087-5.775c0.145-1.13,0.275-2.084,0.391-2.866
		c0.059-0.375,0.116-0.709,0.174-0.998l1.433-5.341c-3.705,2.113-7.438,4.227-11.202,6.339
		C166.93,142.092,165.584,142.844,164.224,143.598z M158.839,141.6l-3.865-2.823l-1.648-1.78c-0.696-0.897-1.159-1.563-1.391-1.998
		c-0.087-0.174-0.158-0.332-0.217-0.477c-0.087,0.434-0.158,0.868-0.217,1.302c-0.261,1.824-0.535,3.662-0.825,5.514
		c-0.434,2.664-0.882,5.341-1.346,8.034c2.663-1.418,5.181-2.78,7.555-4.083c1.505-0.81,2.968-1.592,4.387-2.344L158.839,141.6z
		 M161.922,144.856c-1.36,0.724-2.707,1.448-4.037,2.172c-2.722,1.476-5.733,3.098-9.032,4.862
		c-0.029,0.174-0.059,0.348-0.086,0.521l13.677,3.17c-0.202-0.492-0.391-1.028-0.565-1.607c-0.289-1.013-0.491-2.286-0.606-3.82
		c0-0.84,0.101-2.113,0.303-3.821L161.922,144.856z M177.901,166.004l3.951-4.039l-16.891-3.865l-1.606,2.563l-1.259,3.431
		l-0.436,1.694l-0.39,2.69v2.432c1.736,2.433,3.516,4.907,5.34,7.427c1.332,1.851,2.663,3.69,3.995,5.514
		c0-0.231,0.015-0.435,0.043-0.608l0.651-3.734c0.059-0.636,0.203-1.244,0.435-1.823l1.259-3.561l2.736-4.993
		C175.991,168.694,176.714,167.652,177.901,166.004z M162.791,157.58l-13.157-2.997c3.012,4.285,6.194,8.757,9.554,13.418
		c0-0.29,0-0.507,0-0.652l0.823-3.95c0.202-0.666,0.435-1.273,0.696-1.824l0.737-1.867L162.791,157.58z M158.752,171.735
		l-2.734-1.173l-1.868-0.521c-0.897-0.202-1.563-0.304-1.998-0.304c-0.404-0.115-1.042-0.174-1.91-0.174
		c-0.839,0-1.492,0.059-1.955,0.174l-1.91,0.348l-1.347,0.434c-1.563,6.746-3.257,13.171-5.08,19.279
		c0.52-0.348,0.954-0.636,1.303-0.869l0.954-0.521l5.342-1.911l8.771-1.432l11.03,0.261c0.578,0.058,1.172,0.129,1.779,0.217
		c-1.418-1.911-2.851-3.864-4.298-5.861c-1.824-2.549-3.604-5.052-5.342-7.513L158.752,171.735z M152.804,113.203
		c-0.289,0.318-0.797,0.738-1.52,1.259l-1.65,1.085l-3.561,1.781l-3.69,1.258l-0.174,0.087h-0.346l-1.347,0.435l-7.815,1.215
		c-2.403,0.203-4.675,0.261-6.817,0.174l10.291,14.806c0.869-0.173,1.911-0.405,3.126-0.694l4.169-1.086l4.906-2.083
		c0.203-0.06,0.493-0.233,0.869-0.522l1.215-0.781c0.636-4.053,1.231-7.875,1.781-11.464h-0.088l0.826-5.601l-0.132,0.086
		L152.804,113.203z M148.809,132.309l-3.04,1.215L139.385,135l-3.168,0.348l7.642,10.985c0.984,1.418,1.997,2.865,3.041,4.341
		c0-0.028,0.013-0.043,0.042-0.043c0.579-3.097,1.128-6.195,1.65-9.292c0.318-1.939,0.637-3.879,0.955-5.818
		c0.232-1.361,0.449-2.677,0.651-3.952L148.809,132.309z M123.276,126.75c-0.086,0.405-0.404,1.071-0.954,1.998
		c-0.406,0.897-0.753,1.548-1.043,1.954l-2.648,3.387c-0.348,0.405-0.897,0.926-1.65,1.563c-0.347,0.348-0.912,0.825-1.693,1.433
		c-0.955,0.695-1.549,1.115-1.78,1.258c-1.1,0.637-1.722,0.999-1.867,1.085c-0.897,0.521-1.563,0.854-1.998,1l-4.168,1.606
		c-0.376,0.117-0.767,0.233-1.172,0.348c5.095,1.129,10.899,2.403,17.412,3.822l6.166,1.432l1.042-0.521l3.214-2.475l1.259-1.564
		l0.999-1.736l0.305-0.912c0.174-0.318,0.261-0.651,0.261-1l0.217-0.954l0.042-1.042c0-0.058,0-0.188,0-0.391
		c-2.808-4.197-6.296-9.437-10.464-15.719l-0.738,3.343L123.276,126.75z M135.392,137.432l0.087,1.042l-0.173,1.042
		c0,0.347-0.073,0.695-0.217,1.042l-0.305,0.956c-0.231,0.753-0.521,1.404-0.869,1.954l-1.259,1.694l-1.52,1.476l-1.692,1.259
		c-0.029,0.029-0.059,0.059-0.088,0.088l15.763,3.604c-0.984-1.419-1.954-2.823-2.91-4.212c-0.926-1.36-2.286-3.372-4.08-6.036
		c-0.84-1.215-1.753-2.562-2.736-4.038C135.392,137.359,135.392,137.403,135.392,137.432z M121.366,148.07
		c-2.228-0.521-8.264-1.94-18.106-4.255c0.26,0.317,0.579,0.737,0.955,1.258c0.348,0.406,0.695,1,1.042,1.782l0.913,1.779
		l1.302,3.865c0.058,0.059,0.217,0.71,0.478,1.954l0.955,9.987c0.029,0.897,0,2.243-0.086,4.037
		c-0.029,0.782-0.073,1.478-0.131,2.085c3.329-1.736,6.861-3.575,10.596-5.515c3.531-1.824,6.918-3.562,10.161-5.211l-2.433-10.464
		L121.366,148.07z M129.747,154.279l1.172,4.776c4.111-2.143,7.99-4.184,11.638-6.122l-14.199-3.257l0.564,1.564
		C129.124,151.848,129.399,152.861,129.747,154.279z M145.639,153.629c-3.734,1.996-7.786,4.153-12.158,6.469l2.562,0.564
		l3.214,1.477l1.823,1.434l1.65,1.692c0.348,0.377,0.68,0.811,0.998,1.303c0.117-0.578,0.233-1.157,0.349-1.737
		c0.781-3.646,1.533-7.323,2.257-11.028L145.639,153.629z M119.803,173.515l2.302,0.869l2.17,1.216
		c0.666,0.289,1.375,0.723,2.128,1.302c1.099,0.753,1.766,1.23,1.998,1.435c0.897,0.693,1.547,1.243,1.954,1.648l3.387,3.562
		c1.042,1.273,2.012,2.605,2.909,3.995l1.303,1.996c1.766-5.991,3.445-12.563,5.037-19.713l-0.652-1.65l-2.518-3.126l-1.606-1.259
		l-2.736-1.391l-1.042-0.303c-0.897-0.203-1.578-0.377-2.041-0.521l-1.39-0.13c-3.387,1.766-6.946,3.632-10.681,5.602l-8.946,4.559
		c0.463,0.029,0.839,0.072,1.129,0.131l4.907,0.955C118.515,172.979,119.311,173.255,119.803,173.515z M145.855,168.001l2.128-0.435
		h4.473c0.436,0,1.144,0.102,2.128,0.303l2.476,0.869c-3.099-4.399-6.079-8.668-8.946-12.81c-0.608,3.098-1.244,6.21-1.91,9.336
		c-0.204,0.927-0.406,1.867-0.608,2.823C145.683,168.059,145.769,168.029,145.855,168.001z"/>
</g>
</svg>
