<?xml version="1.0" encoding="utf-8"?>
<!-- Generator: Adobe Illustrator 16.0.0, SVG Export Plug-In . SVG Version: 6.00 Build 0)  -->
<!DOCTYPE svg PUBLIC "-//W3C//DTD SVG 1.1//EN" "http://www.w3.org/Graphics/SVG/1.1/DTD/svg11.dtd">
<svg version="1.1" id="Layer_1" xmlns="http://www.w3.org/2000/svg" xmlns:xlink="http://www.w3.org/1999/xlink" x="0px" y="0px"
	 width="300px" height="300px" viewBox="0 0 300 300" enable-background="new 0 0 300 300" xml:space="preserve">
<g>
	<path fill-rule="evenodd" clip-rule="evenodd" fill="#010101" d="M233.35,114.981c-3.503-1.205-6.766-3.531-9.786-6.978
		l-4.893,10.174L233.35,114.981z M200.628,114.091c2.188-1.39,3.55-3.66,4.087-6.811l-7.062-5.337
		c-0.426,6.339-2.001,10.509-4.726,12.51l4.448,0.723C197.505,115.176,198.59,114.815,200.628,114.091z M237.714,134.107
		c-2.188,0.556-4.217,1.372-6.089,2.447c-3.262,1.816-5.041,3.874-5.337,6.171l3.085,11.788c1.873-2.484,5.106-5.079,9.703-7.785
		c2.65-1.575,5.004-3.077,7.062-4.503C244.636,140.261,241.828,137.555,237.714,134.107z M233.71,130.049l3.81,3.058
		c-0.482-5.3,1.723-11.852,6.616-19.654l-4.254,0.806C235.712,122.005,233.655,127.269,233.71,130.049z M238.242,133.663v0.083
		c3.262,2.724,6.162,5.291,8.701,7.7c-1.26-4.948,0.287-14.734,4.643-29.356l-6.533,1.195c-1.575,2.354-2.938,4.763-4.086,7.228
		C238.668,125.647,237.761,130.03,238.242,133.663z M222.758,130.577c0.853-1.575,2.844-2.808,5.977-3.698l-9.146-6.894
		L222.758,130.577z M223.118,131.578l0.64,2.168c1.075-1.39,4.004-2.66,8.785-3.809l-3.17-2.53
		C225.574,128.372,223.489,129.762,223.118,131.578z M228.011,131.939c-2.242,0.853-3.604,1.733-4.086,2.641l2.001,6.866
		c0.724-2.038,2.502-3.845,5.338-5.421c1.761-0.964,3.697-1.751,5.811-2.363l-3.892-3.169
		C231.422,130.791,229.697,131.272,228.011,131.939z M239.076,114.453l-4.364,0.917c-3.855,4.392-5.486,8.256-4.894,11.593
		l3.28,2.613C233.266,126.259,235.258,121.218,239.076,114.453z M214.14,134.107c-5.616-1.797-10.417-2.696-14.401-2.696
		c-1.445,0-2.715,0.148-3.808,0.445l-0.362,0.083l-4.448,2.53c9.545,0.315,16.765,1.918,21.657,4.81L214.14,134.107z
		 M202.102,127.492l15.123-8.702c-7.135-1.149-13.362-2.085-18.682-2.808C202.306,119.133,203.491,122.969,202.102,127.492z
		 M199.183,115.371l18.042,2.697c-5.374-4.763-9.358-8.201-11.954-10.314C204.474,111.793,202.444,114.333,199.183,115.371z
		 M201.268,127.964c0.611-1.464,0.825-3.04,0.64-4.726c-0.297-2.891-1.835-5.365-4.615-7.422l-4.448-0.723
		c1.928,2.354,3.077,5.337,3.447,8.952c0.297,2.298,0.269,4.568-0.083,6.811L201.268,127.964z M215.223,134.469l-0.444-0.167
		l-1.362,5.337l0.918,0.64h0.64c2.946,0,6.412,0.639,10.396,1.918c-1.204-4.411-1.899-6.895-2.085-7.451
		c-1.26-0.537-2.854-0.806-4.781-0.806c-1.149,0-2.15,0.176-3.003,0.528H215.223z M215.696,130.244l0.083,0.056l-0.806,3.364
		l0.36,0.195c0.891-0.371,1.946-0.556,3.17-0.556c1.445,0,2.984,0.241,4.614,0.723l-0.639-2.251
		c-2.058-1.038-3.716-1.557-4.977-1.557C217.132,130.216,216.53,130.226,215.696,130.244z M205.91,128.13
		c-1.279,0-2.733,0.149-4.364,0.445h-0.084l-4.086,2.363c0.481-0.111,1.27-0.167,2.362-0.167c3.855,0,8.721,0.909,14.596,2.725
		l0.889-3.447C211.962,128.77,208.857,128.13,205.91,128.13z M202.991,127.686c1.334-0.13,2.308-0.194,2.919-0.194
		c3.429,0,6.57,0.639,9.424,1.918c1.149-4.541,1.928-7.923,2.336-10.147C213.87,121.561,208.978,124.368,202.991,127.686z
		 M219.144,118.707l0.083,0.278l9.869,7.422c-0.241-3.317,1.297-6.941,4.614-10.87L219.144,118.707z M218.671,119.346l-0.278-0.194
		l-2.446,10.537c0.574-0.075,1.094-0.111,1.557-0.111c0.964,0,2.53,0.454,4.698,1.362L218.671,119.346z M213.777,108.198
		c-2.224,0-4.791-0.186-7.7-0.556c5.078,4.059,9.063,7.534,11.954,10.425c2.372-5.078,4.068-8.609,5.087-10.592
		C219.856,107.957,216.743,108.198,213.777,108.198z M226.565,102.305l-2.641,5.087c1.038,1.26,2.308,2.493,3.809,3.698
		c2.298,1.816,4.596,3.03,6.895,3.642l3.892-0.834c-1.687-0.778-3.919-2.623-6.699-5.532
		C229.893,106.382,228.142,104.361,226.565,102.305z M229.373,97.217l-2.529,4.448c6.098,7.617,10.389,11.639,12.872,12.065
		l3.809-0.834c-2.854-1.13-5.82-3.698-8.896-7.701C232.626,102.731,230.875,100.071,229.373,97.217z M223.202,106.836l0.194-0.083
		l0.084,0.083l2.641-5.087c-2.058,1.094-5.505,1.64-10.342,1.64s-10.546-0.509-17.125-1.529l6.422,4.893l0.083,0.083l2.28,0.361
		c2.002,0.241,4.114,0.361,6.338,0.361C216.688,107.559,219.828,107.318,223.202,106.836z M226.288,100.942l0.194,0.194l2.53-4.531
		c-2.67,1.557-7.627,2.335-14.873,2.335c-6.95,0-14.354-0.575-22.213-1.724l5.532,3.809c0.315,0.13,2.345,0.436,6.088,0.917
		c4.652,0.538,8.729,0.807,12.232,0.807c4.948,0,8.358-0.538,10.23-1.613L226.288,100.942z M239.521,90.517h0.723
		c5.134,10.768,9.155,17.505,12.065,20.211l0.444,0.556l10.593-2.724l-11.148,3.725c-4.818,16.18-6.236,26.234-4.253,30.163
		c2.242,2.243,3.966,4.18,5.171,5.811l5.56,6.227c-4.726-5.06-8.692-8.775-11.898-11.148c-2.112,0.982-4.504,2.261-7.172,3.836
		c-4.893,2.891-8.063,5.792-9.508,8.701c1.26,6.229,2.316,11.307,3.169,15.234c2.242-2.002,4.81-4.002,7.701-6.004
		c4.596-3.188,8.646-5.422,12.148-6.7l6.449-1.919c-7.803,3.04-14.095,6.246-18.876,9.619c-2.78,2.002-5.115,4.244-7.006,6.729
		c2.502,12.807,3.03,21.295,1.585,25.465c7.617-4.912,13.566-8.146,17.848-9.703v0.641c-2.836,1.074-6.432,2.908-10.787,5.504
		c-3.021,1.76-5.439,3.271-7.256,4.531c8.711,7.432,14.726,14.809,18.043,22.129v1.641c-5.856-14.809-23.353-30.164-52.487-46.064
		c-4.754-2.596-9.712-5.135-14.873-7.617l-9.896,7.004l-4.281-0.818l-0.14,0.18l-0.11,0.057l-14.817,0.834l-1.168-0.307
		l-1.168-0.527l-0.223-0.223l-0.555-0.418l-0.223-0.334l-0.168-0.75c0.02-0.223,0.047-0.426,0.084-0.611l0.195-2.795l-6.339,1.934
		l2.975-7.618l-6.255,3.253l5.921-9.41c-0.203-0.303-0.388-0.604-0.556-0.903l-5.56,3.363l-0.333-0.25
		c-0.779-0.76-1.604-1.761-2.475-3.003l-1-1.668c-0.426-0.741-0.713-1.334-0.862-1.779l-0.167-0.375
		c-1.066-0.188-2.113-0.396-3.141-0.625c-2.854-0.594-5.245-1.334-7.172-2.225l-3.336-1.834l-1.445-1.195
		c-0.575-0.649-0.964-1.168-1.168-1.557l-0.083-0.111l3.823-17.973c-11.547-7.092-26.369-14.037-44.466-20.836
		c-8.155-3.077-16.921-6.069-26.299-8.979l-2.613-0.807c-10.212-3.151-19.126-5.662-26.744-7.534h2.53
		c9.249,2.428,18.228,4.995,26.938,7.701c12.751,1.149,27.402,2.632,43.952,4.448c7.135-2.354,13.02-7.737,17.653-16.152
		l1.251,1.335c-4.633,7.154-10.453,12.158-17.458,15.012c5.671,0.593,16.245,1.797,31.72,3.614c1.872-1.093,4.346-2.873,7.423-5.338
		c4.782-3.818,8.229-7.358,10.342-10.62h0.806c-2.947,4.837-8.803,10.221-17.569,16.152c10.935,1.316,21.99,2.734,33.166,4.254
		l0.083-0.111c7.024-9.545,10.953-16.245,11.787-20.1l-1.807-0.861c4.781,1.723,9.405,3.91,13.872,6.561
		c1.983,0.371,4.819,0.732,8.507,1.084c5.615,0.556,10.601,0.834,14.957,0.834c7.375,0,12.334-0.815,14.873-2.447l0.277-0.194
		l5.311-7.951l2.391-4.003l0.277,1.668c-3.521,4.93-6.032,8.664-7.533,11.204c1.631,2.947,3.475,5.727,5.532,8.34
		c3.373,4.281,6.542,6.875,9.508,7.784l7.061-1.362v-0.167C248.704,108.18,244.599,101.285,239.521,90.517z M126.346,127.992
		c1.141,0.703,2.248,1.402,3.322,2.099l1.654-7.298l-1.432,7.451c2.896,1.885,5.542,3.771,7.937,5.657l0.639-2.029l-0.528,1.821
		l-0.041,0.264c3.113,2.457,5.805,4.917,8.075,7.381c1.374-1.125,3.032-1.06,4.977,0.195c2.002,1.297,2.826,2.863,2.475,4.698
		c1.945-0.315,4.049,0.398,6.311,2.14c0.227,0.176,0.449,0.366,0.667,0.57l6.255-3.489c-1.445-7.506-7.367-16.3-17.764-26.382
		c-10.342-8.877-15.809-13.53-16.402-13.956l-32.999-3.809l2.446,0.167l-5.06-0.445c3.744,2.354,7.126,4.865,10.147,7.534
		c4.763,4.17,7.33,7.821,7.701,10.954c4.171,2.146,8.016,4.292,11.537,6.436l0.695-3.239L126.346,127.992z M175.344,164.535
		c-2.268-1.004-4.569-2-6.908-2.988l-3.475,4.822l0.834,1.488L175.344,164.535z M161.472,162.701c-0.566,0.25-1.22,0.431-1.96,0.541
		l0.195,4.977l4.447-1.223l0.042-0.057L161.472,162.701z M164.001,159.865c-0.21,0.867-0.659,1.576-1.349,2.127
		c-0.038,0.031-0.074,0.063-0.111,0.097l2.281,4.03l3.529-4.614c-0.082-0.03-0.166-0.062-0.25-0.097
		C166.652,160.836,165.286,160.321,164.001,159.865z M158.274,163.367c-1.176,0.057-2.265-0.05-3.267-0.318l-0.556,6.602
		l4.185-1.141L158.274,163.367z M167.018,148.175h-0.194l-5.907,3.294c0.625,0.666,1.213,1.459,1.765,2.377
		c0.815,1.482,1.298,2.9,1.446,4.254c0.026,0.346,0.026,0.676,0,0.986c1.444,0.6,2.974,1.248,4.587,1.947l1.946-2.545l-1.863,2.572
		c0.664,0.283,1.34,0.576,2.029,0.875c1.781,0.771,3.541,1.549,5.282,2.336l1.835-0.64l-1.668,0.708
		c0.965,0.434,1.924,0.869,2.877,1.307l1.654-2.015l-1.585,2.044c2.366,1.084,4.697,2.178,6.992,3.279l1.71-1.125l-1.641,1.152
		c4.537,2.201,8.929,4.439,13.178,6.715c1.687-3.039,3.345-6.533,4.976-10.48c-1.501-3.504-8.146-7.377-19.933-11.621
		C172.958,150.038,167.129,148.23,167.018,148.175z M197.376,146.813c-6.896-3.021-13.363-4.624-19.405-4.81h-0.25l-10.175,5.699
		c5.801,1.464,11.936,3.374,18.404,5.727c10.582,3.93,16.837,7.581,18.765,10.954c1.205-2.893,2.566-6.635,4.087-11.232
		C205.354,150.797,201.546,148.684,197.376,146.813z M190.231,135.025h-0.195l-11.231,6.421c5.912,0.241,12.224,1.845,18.933,4.81
		c3.929,1.816,7.673,3.901,11.23,6.255c0.557-1.687,1.799-5.884,3.726-12.594C207.318,136.841,199.831,135.21,190.231,135.025z
		 M190.592,134.024l4.977-2.808c0.353-2.057,0.445-4.263,0.278-6.617c-0.427-4.04-1.733-7.247-3.92-9.619l-10.23-1.446
		c3.984,3.207,6.645,7.2,7.979,11.982C190.527,128.464,190.833,131.3,190.592,134.024z M169.186,111.812
		c3.151,2.428,5.569,7.506,7.256,15.235c1.021,4.708,1.622,9.359,1.808,13.956l11.704-6.617c0.241-2.78,0-5.56-0.724-8.34
		c-1.334-5.189-4.234-9.415-8.701-12.677L169.186,111.812z M190.036,98.329v-1.474c-3.503-2.224-7.126-4.179-10.87-5.866
		c-1.445,4.281-3.391,8.313-5.838,12.093c-2.465,3.781-3.984,6.469-4.559,8.063l11.759,1.584c1.928-1.279,3.559-2.669,4.894-4.17
		C188.313,105.409,189.851,101.999,190.036,98.329z M197.098,101.582c-1.928-1.39-4.068-2.845-6.422-4.365v1.112
		c-0.186,3.373-1.482,6.598-3.892,9.675c-1.521,1.872-3.309,3.502-5.366,4.893l10.509,1.473c0.853-0.371,1.732-1.307,2.641-2.808
		C196.014,109.078,196.856,105.751,197.098,101.582z M133.852,107.28c6.339,4.782,12.14,9.833,17.403,15.151
		c9.229,9.415,14.577,17.663,16.041,24.742l10.313-5.81c-0.297-4.948-0.927-9.749-1.891-14.4c-1.871-8.34-4.53-13.446-7.979-15.318
		L133.852,107.28z M129.501,130.813c-1.066-0.697-2.165-1.392-3.294-2.085l-3.364,17.861l1.084,1.307l1.417,1.112l3.225,1.64
		c1.983,0.816,4.336,1.483,7.061,2.001c0.825,0.162,1.668,0.311,2.53,0.445l-0.139-0.334c-0.315-0.797-0.509-1.398-0.583-1.807
		c-0.26-0.834-0.408-1.474-0.445-1.918l-0.014-0.069l-1.682-0.904c-0.853-0.593-1.325-0.917-1.417-0.973l-2.585-2.224l-2.141-2.697
		l-1.445-3.141l-0.056-0.056l0.028-0.055L129.501,130.813z M130.405,131.411c-0.218-0.145-0.436-0.289-0.653-0.431l-1.543,7.965
		l0.612,1.474c0.148,0.333,0.426,0.807,0.834,1.418l1.001,1.334l2.363,2.307l3.837,2.474l-0.362-2.78
		c0.037-0.871,0.047-1.501,0.028-1.891c0.037-0.871,0.083-1.519,0.139-1.946l0.25-1.89c0.186-0.871,0.325-1.52,0.417-1.946
		l0.223-0.695C135.383,134.938,133.002,133.14,130.405,131.411z M175.747,175.863l9.925-6.547c-2.229-1.07-4.495-2.133-6.798-3.182
		l-6.894,8.895L175.747,175.863z M159.721,168.678l0.152,3.684l11.634,2.572l7.284-8.842c-1.066-0.49-2.142-0.977-3.225-1.459
		l-10.105,4.281l-1.084-1.682v0.068l-0.084-0.027L159.721,168.678z M154.396,170.305l-0.277,3.225l-0.057,0.027l-0.111,0.223
		l-0.027,0.277l0.084,0.334l0.111,0.166l0.556,0.473c0.204,0.074,0.519,0.223,0.945,0.445l1.112,0.307l-0.14,0.055l14.22-0.432
		l-11.856-2.266l-0.292-4.143L154.396,170.305z M144.889,146.201c0.04-0.482,0.151-0.922,0.334-1.32
		c-2.107-2.765-4.604-5.405-7.493-7.923l-0.736,4.407c-0.037,0.167-0.074,0.797-0.111,1.89l0.306,3.809l0.278,1.223l5.949,2.335
		c0.927,0.371,2.001,0.677,3.225,0.918l1.891,0.319c0.178-0.233,0.391-0.45,0.639-0.653c-1-0.371-1.724-0.658-2.168-0.862
		c-0.723-0.408-1.261-0.982-1.613-1.724C145,147.841,144.833,147.035,144.889,146.201z M137.702,149.356l0.32,1.404l0.695,1.751
		c0.022,0.045,0.125,0.281,0.306,0.709c2.742,0.404,5.679,0.682,8.813,0.834c-0.003-0.359,0.039-0.698,0.125-1.015l-1.626-0.334
		l-6.478-2.196L137.702,149.356z M141.414,157.488c0.797,1.02,1.521,1.834,2.168,2.445l4.893-3.182
		c-0.129-0.313-0.24-0.624-0.333-0.932c-0.058-0.184-0.109-0.364-0.153-0.543c-2.962-0.182-5.797-0.496-8.507-0.945L141.414,157.488
		z M151.811,163.465l1.891-0.875c-0.425-0.191-0.832-0.418-1.223-0.682L151.811,163.465z M151.52,164.132l-3.044,7.146l4.851-1.32
		l0.486-7.007L151.52,164.132z M104.579,109.365c-5.746-4.095-8.804-6.264-9.174-6.504c-13.826-1.464-26.178-2.707-37.058-3.726
		c8.878,2.835,16.699,5.551,23.463,8.145c11.435,4.17,22.194,8.795,32.276,13.873C113.419,117.891,110.25,113.962,104.579,109.365z
		 M205.076,166.662h-0.361v-0.557c-1.557,3.893-2.882,7.313-3.976,10.258c0.056,0.02,0.111,0.047,0.167,0.084
		c13.604,7.377,24.779,14.809,33.527,22.295c1.705-3.742,1.214-12.426-1.474-26.047c-3.299-2.762-8.905-4.561-16.819-5.395
		C208.82,166.875,205.132,166.662,205.076,166.662z M209.607,153.707l-0.277-0.195c-1.687,5.135-3.105,9.035-4.254,11.705
		l0.278,0.807c3.873,0,7.775,0.24,11.704,0.723c7.116,0.852,12.278,2.307,15.484,4.363c-0.908-4.781-2.038-9.795-3.392-15.039
		c-5.227-1.816-10.018-2.725-14.373-2.725c-1.631,0-3.262,0.148-4.893,0.445h-0.084L209.607,153.707z M228.734,154.791
		l-3.086-11.871c-1.204-0.426-2.743-0.852-4.615-1.278c-2.779-0.612-5.05-0.853-6.811-0.724h-0.083l-0.168-0.083l-0.723-0.556
		c-1.945,6.709-3.188,10.907-3.725,12.593l0.361,0.277c1.631-0.296,3.262-0.444,4.893-0.444
		C219.245,152.706,223.897,153.4,228.734,154.791z M151.436,161.074c-0.265-0.248-0.52-0.516-0.764-0.807
		c-0.1-0.121-0.197-0.241-0.292-0.361L146,166.135l4.226-1.934L151.436,161.074z"/>
</g>
</svg>
