<?xml version="1.0" encoding="utf-8"?>
<!-- Generator: Adobe Illustrator 16.0.0, SVG Export Plug-In . SVG Version: 6.00 Build 0)  -->
<!DOCTYPE svg PUBLIC "-//W3C//DTD SVG 1.1//EN" "http://www.w3.org/Graphics/SVG/1.1/DTD/svg11.dtd">
<svg version="1.1" id="Layer_1" xmlns="http://www.w3.org/2000/svg" xmlns:xlink="http://www.w3.org/1999/xlink" x="0px" y="0px"
	 width="300px" height="300px" viewBox="0 0 300 300" enable-background="new 0 0 300 300" xml:space="preserve">
<g>
	<path fill="#F47B20" d="M198.627,203.438c0.393,0.386,0.673,0.734,0.844,1.049c0.021,0.041,0.049,0.078,0.079,0.111
		c0.211,0.305,0.535,0.447,0.97,0.429l0.699-0.19c0.275,0,0.932,0.033,1.973,0.096l1.461,0.128c0.043,0.002,0.086,0.002,0.127,0
		c0.728,0.042,1.488,0.244,2.291,0.604c0.187,0.08,0.365,0.164,0.539,0.254c0.242,0.125,0.471,0.266,0.686,0.414
		c0.068,0.053,0.139,0.105,0.206,0.157c0.901,0.699,1.528,1.622,1.876,2.767c0.551,1.803,0.361,3.158-0.572,4.07
		c-0.23,0.241-0.654,0.532-1.271,0.875c-0.629,0.346-1.453,0.742-2.479,1.191c-0.395,0.172-0.828,0.352-1.305,0.539
		c-0.592,0.23-1.249,0.47-1.973,0.717c-0.053,0.02-0.105,0.034-0.157,0.048c-0.945,0.331-2.001,0.675-3.164,1.033
		c-0.959,0.306-1.992,0.617-3.101,0.938l-0.158,1.525l-0.891,0.572l0.54,0.604c0.255,0.275,0.614,0.584,1.081,0.922
		c0.467,0.34,0.901,0.595,1.305,0.764c0.094,0.043,0.227,0.074,0.396,0.096c0.233,0.025,0.536,0.03,0.907,0.018
		c0.447-0.02,1-0.065,1.652-0.145l0.891-0.145l1.367-0.207v-0.729c0-0.274,0.147-0.562,0.443-0.858c0.01-0.008,0.02-0.02,0.032-0.03
		c0.255-0.263,0.383-0.484,0.383-0.668c0-0.171,0.116-0.296,0.349-0.384c0.266-0.096,0.679-0.138,1.24-0.127
		c1.104,0.045,1.844,0.403,2.227,1.082c0.106,0.187,0.203,0.397,0.287,0.635c0.207,0.605,0.334,1.379,0.381,2.322
		c0.021,0.232,0.031,1.166,0.031,2.799c0,0.31-0.104,0.569-0.317,0.777c-0.205,0.202-0.513,0.356-0.922,0.461
		c-0.743,0.172-1.421,0.139-2.035-0.096c-0.28-0.089-0.545-0.279-0.795-0.572c-0.114-0.127-0.226-0.275-0.334-0.445
		c-0.004-0.01-0.011-0.021-0.017-0.029c-0.041-0.069-0.084-0.145-0.125-0.223c-0.063-0.11-0.121-0.222-0.177-0.336
		c-0.114-0.226-0.216-0.453-0.303-0.683l-4.802,1.146l-5.754,1.367l0.35,0.953c0.148,0.402,0.223,0.848,0.223,1.336
		c0,0.316-0.021,0.826-0.063,1.525c0,0.594-0.253,1.154-0.763,1.686c-0.553,0.551-1.154,0.825-1.813,0.825
		c-0.572,0-1.04-0.485-1.398-1.463l-0.351-1.43l-2.575-0.19l-0.667,0.572c-0.297,0.232-0.743,0.309-1.336,0.223
		c-0.34-0.063-0.827-0.139-1.463-0.223c-0.34,0-0.742-0.318-1.209-0.954c-0.211-0.317-0.381-0.636-0.509-0.955l-0.35,0.097
		c-0.297,0.063-0.584,0.097-0.858,0.097c-0.636,0-1.027,0.021-1.177,0.063c-0.508,0.086-0.984,0.383-1.432,0.891
		c-0.293,0.339-0.791,0.646-1.494,0.922c-0.309,0.123-0.658,0.238-1.05,0.351c-0.153,0.052-0.308,0.099-0.46,0.144
		c-0.463,0.138-0.902,0.238-1.32,0.302v0.985c0,0.444-0.254,0.752-0.763,0.922c-0.424,0.148-1.146,0.223-2.162,0.223
		c-0.849,0-1.335-0.729-1.462-2.191c-0.105-1.125-0.021-2.186,0.254-3.181c0.148-0.614,0.487-1.039,1.018-1.272
		c0.383-0.17,0.902-0.254,1.559-0.254c0.426,0,0.869,0.318,1.336,0.955l0.572,0.951c1.844-0.508,3.338-1.091,4.482-1.748
		c0.168-0.089,0.313-0.185,0.43-0.285c0.173-0.146,0.295-0.305,0.365-0.477c0.095-0.225,0.104-0.466,0.031-0.732l-0.478-0.763
		l-0.858,0.351l-1.207-0.955c-0.488-0.381-0.943-0.496-1.367-0.35c-0.722,0.232-1.135,0.35-1.24,0.35
		c-0.317,0-1.303,0.232-2.957,0.699c-1.674,0.424-2.766,0.637-3.274,0.637c-0.571,0-0.997-0.19-1.271-0.571
		c-0.149-0.19-0.233-0.382-0.254-0.572l-4.483,0.636c-0.772,0.096-1.468,0.174-2.082,0.237c-0.062,0.007-0.12,0.013-0.175,0.017
		c-1.725,0.172-2.764,0.203-3.117,0.097c-1.081-0.36-1.717-2.479-1.907-6.359c-0.063-1.356,0.054-2.563,0.351-3.624l0.509-1.177
		c-0.106-0.17-0.212-0.382-0.318-0.637c-0.17-0.509-0.18-0.995-0.032-1.462c0.149-0.487,0.627-0.637,1.432-0.444l1.146,0.444
		c0-2.035-0.116-3.826-0.35-5.373c-0.128-0.934-0.17-2.545-0.128-4.834c0.086-2.353,0.128-3.815,0.128-4.389
		c0-1.06,0.635-5.531,1.907-13.416c0.021-0.043,0.478-2.514,1.367-7.41c0.678-3.687,1.092-6.336,1.239-7.947
		c0.128-1.676,0.572-3.105,1.336-4.292l1.08-1.272l-0.19-0.667c-0.316-0.53-0.836-1.081-1.558-1.653
		c-0.7-0.551-0.848-1.729-0.444-3.529l0.795-2.607l-1.527-0.35c-0.678-0.169-1.292-0.667-1.844-1.493
		c-0.317-0.489-0.752-1.272-1.303-2.353c-0.318-0.596-0.849-1.029-1.592-1.305c-0.994-0.382-1.662-0.722-2.002-1.019
		c-0.361-0.275-1.346-1.272-2.957-2.988c-1.484-1.59-2.586-2.629-3.308-3.117c-0.699-0.487-1.558-1.473-2.575-2.957
		c-0.429-0.609-0.805-1.123-1.129-1.542c-0.506-0.664-0.883-1.094-1.128-1.288c-0.933-0.763-2.024-1.844-3.274-3.243l-0.701-0.127
		c-0.635-0.169-1.388-0.456-2.256-0.858c-0.849-0.382-2.121-1.304-3.815-2.767c-0.826-0.699-1.579-1.367-2.259-2.003l-0.89-0.032
		c-0.276-0.017-0.53-0.038-0.764-0.063l0.287,12.272c-0.468,0.403-0.923,0.827-1.367,1.272c-0.085-0.064-0.147-0.117-0.192-0.159
		c0.045,0.105,0.064,0.179,0.064,0.223c-0.127,0.084-0.232,0.169-0.317,0.253v-0.413c-1.272,0.402-2.301,0.519-3.085,0.349
		c-0.255,0.828-0.232,1.368,0.064,1.623c0.126-0.615,0.326-0.848,0.604-0.7c-0.189,0.467-0.128,0.7,0.19,0.7
		c0-0.424,0.063-0.816,0.19-1.176c0.17,0.169,0.317,0.498,0.444,0.986c-0.593,0.487-1.177,0.985-1.749,1.494
		c-0.359,0-0.646-0.021-0.857-0.064c0,0.212,0.021,0.435,0.063,0.668c-1.039,0.785-2.058,1.569-3.052,2.353
		c-1.357,0.17-2.385,0.254-3.084,0.254c-0.172,0.381-0.234,0.879-0.191,1.495l1.112-0.127c-0.784,0.572-1.591,1.145-2.417,1.716
		v-0.412c-2.311-0.043-3.75,0.222-4.323,0.795c0.487,0.529,1.271,0.857,2.353,0.984c-0.91,0.614-1.834,1.197-2.767,1.748v-14.594
		c0.359,0.063,0.54-0.202,0.541-0.795c0.003,0.148,0.087,0.223,0.254,0.223l0.415-0.764h-1.21v-9.315
		c0.403-0.106,0.742-0.117,1.019-0.032c0.34-0.614,0.678-1.483,1.018-2.606c-0.297,0.677-0.572,0.847-0.825,0.508v-2.48
		c0.425,0,0.794-0.106,1.112-0.318l0.063,1.303c0.783,0.912,0.783,0.849,0-0.19c0.381-0.148,0.637,0.244,0.762,1.177
		c0.188-0.29,0.283-0.539,0.287-0.748v0.748c-0.443,0.126-0.815,0.296-1.111,0.508c0.169,0.126,1.038,0.021,2.607-0.319
		c0-1.271-0.148-2.098-0.445-2.479c0,1.039-0.266,1.474-0.795,1.303c0.338-0.572,0.338-1.006,0-1.303
		c-0.043,0.297-0.266,0.466-0.668,0.508c-0.424,0-0.637-0.169-0.637-0.508c1.823-0.233,2.797-0.392,2.926-0.477l0.063,4.897
		l1.718-0.636c0.168-0.36,0.254-0.975,0.254-1.844c0.002,0.129,0.352,0.415,1.049,0.859c-0.53-0.17-0.795-0.128-0.795,0.126
		c1.146-0.126,1.718-0.275,1.718-0.445c-0.445,0.128-0.669-0.115-0.669-0.731l0.859-0.126c-0.318,0-0.604-0.329-0.859-0.986
		c-0.084-0.084-0.127-0.17-0.127-0.254c-0.043,0.211-0.147,0.519-0.317,0.921c-0.444,0.339-0.731,0.403-0.858,0.192
		c-0.127-0.212-0.127-0.785,0-1.718c0.297,0.318,0.52,0.498,0.668,0.541c0.127,0.042,0.096-0.064-0.097-0.318
		c0.36-0.19,0.562-0.148,0.604,0.127c0.043-0.19,0.17-0.35,0.382-0.477c-0.084,0-0.191,0-0.317,0
		c-0.171,0.191-0.457,0.148-0.857-0.127c0.613-0.466,1.492-0.636,2.639-0.509c0,0.297-0.159,0.509-0.479,0.636
		c0.446,0,0.69,0.117,0.732,0.35c0.254-1.017,0.529-1.569,0.827-1.653c0.147,0.445,0.222,2.077,0.222,4.897
		c0.467-0.297,1.049-0.361,1.748-0.192l0.064-4.705c0.22,0.045,0.469,0.077,0.746,0.095c-0.137-0.239-0.207-0.461-0.207-0.667
		c0-0.318-0.369-1.357-1.111-3.117c-0.171-0.41-0.336-0.813-0.492-1.208c-0.074,0.06-0.111,0.123-0.111,0.191
		c-0.256-0.211-0.403-0.338-0.445-0.382c-0.17,0.955-0.393,1.611-0.668,1.972c0.085-0.531,0.021-0.838-0.189-0.922
		c-0.992,0.084-1.953,0.126-2.878,0.127c0.433-0.01,0.522-0.625,0.271-1.844c1.483,0.233,2.312,0.296,2.479,0.191l-0.19-0.128
		l1.479,0.128c-0.545-1.448-0.975-2.783-1.287-4.006c-0.509-2.035-0.572-4.197-0.191-6.487c0.553-2.374,0.912-4.048,1.082-5.023
		c0.211-1.208,0.595-2.787,1.146-4.738l0.763-2.543c0.106-1.018,0.159-2.236,0.159-3.656c0-0.89,0.265-2.342,0.796-4.356
		l0.764-2.735c-0.172-0.551-0.351-1.24-0.543-2.066c-0.316-1.611-0.477-3.095-0.477-4.452c0-1.314,0.36-4.027,1.081-8.139
		c0.765-4.133,1.146-6.221,1.146-6.264c0-0.318-0.266-0.509-0.797-0.572c-0.231-0.042-0.484-0.042-0.761,0l-0.541-1.908
		c-0.36-1.505-0.636-2.65-0.827-3.434c-0.382-1.42-0.666-2.321-0.857-2.703c-0.213-0.403-0.764-0.562-1.654-0.477
		c-1.949,0.17-2.967,0.255-3.052,0.255c-0.954,0-2.109-0.339-3.468-1.018c-2.479-1.251-3.855-1.94-4.131-2.067
		c-1.336-0.551-3.213-1.993-5.629-4.325c-1.252-1.229-2.724-2.724-4.419-4.483c-0.55-0.509-1.325-1.07-2.32-1.685
		c-0.849-0.53-1.453-0.986-1.813-1.367c-0.36-0.382-1.071-1.187-2.13-2.417c-0.954-1.059-1.568-1.664-1.844-1.812
		c-0.382-0.233-0.753-0.636-1.113-1.208c-0.381-0.636-0.53-1.134-0.445-1.495c0.254-0.551,0.456-0.986,0.604-1.303
		c0.233-0.552,0.201-0.943-0.096-1.176c-0.275-0.233-0.328-0.562-0.159-0.986l0.35-0.54c0.233-0.785,0.35-1.431,0.35-1.939
		c0-0.318,0.127-0.604,0.381-0.858l0.477-0.286c-0.063-0.085-0.117-0.255-0.16-0.509c-0.084-0.467-0.095-1.061-0.031-1.781
		c0.064-0.742,0.488-1.028,1.272-0.858l1.176,0.445c0.233-0.212,0.457-0.361,0.668-0.445c0.467-0.17,0.7,0.116,0.7,0.858
		c0,0.742,0.381,1.579,1.145,2.512c0.593,0.721,1.187,1.282,1.78,1.686c0.445,0.296,0.964,1.007,1.558,2.13
		c0.636,1.208,1.166,2.544,1.59,4.006c0.339,1.251,0.911,2.173,1.718,2.766c0.975,0.53,1.716,1.018,2.225,1.463
		c0.657,0.551,1.781,1.102,3.371,1.653c1.846,0.636,3.211,1.113,4.103,1.431c1.06,0.402,2.606,1.06,4.642,1.971l2.768,1.272
		c2.311-0.127,4.218-0.191,5.724-0.191c1.08,0,2.246-0.148,3.497-0.445c1.188-0.318,2.1-0.678,2.732-1.081
		c0.511-0.318,0.965-0.509,1.367-0.573h0.51c-0.043,0.085,0.105,0.064,0.445-0.063c0.657-0.254,1.949-0.943,3.879-2.066
		c3.9-2.205,6.307-3.572,7.219-4.102c2.67-1.441,4.599-2.374,5.785-2.798c1.166-0.381,2.703-0.594,4.611-0.636
		c1.801,0.042,2.861,0.064,3.18,0.064c0.487,0,1.049-0.361,1.685-1.081c0.657-0.764,0.668-1.23,0.032-1.399
		c-0.594-0.17-0.911-0.636-0.955-1.398l0.064-1.114c0.19,0.318,0.402,0.646,0.637,0.986c0.51,0.636,0.933,0.954,1.271,0.954
		c0.403,0,0.71-0.286,0.922-0.859c0.19-0.508,0.233-0.933,0.128-1.271c-0.148-0.488-0.213-1.06-0.191-1.717
		c0.043-0.848,0.287-1.229,0.731-1.145c0.425,0.085,0.638-0.053,0.638-0.413l-0.129-0.541c0.106-0.912,0.394-2.035,0.858-3.37
		c0.933-2.692,2.269-5.151,4.007-7.377c1.864-2.438,3.592-3.996,5.184-4.674c1.313-0.53,2.289-0.456,2.926,0.223
		c0.381,0.445,1.123,0.837,2.225,1.176c1.506,0.466,2.555,0.848,3.146,1.145c0.934,0.488,2.418,2.269,4.453,5.342
		c1.42,2.162,2.469,3.9,3.146,5.214c0.189,0.36,0.795,0.317,1.813-0.127c1.271-0.551,2.057-0.827,2.354-0.827
		c0.424,0,0.986-0.265,1.686-0.795c0.679-0.488,1.156-0.731,1.432-0.731c0.318,0,1.495-0.774,3.529-2.321
		c2.289-1.695,3.645-2.66,4.068-2.893c0.68-0.318,1.336-0.424,1.973-0.318c0.359,0.064,0.795,0.244,1.304,0.541
		c0.698,0.382,1.687,0.573,2.957,0.573c0.571,0,1.123,0.169,1.651,0.509c0.467,0.317,0.838,0.72,1.113,1.208
		c0.191,0.339,0.584,0.53,1.178,0.573c0.594,0,0.943,0.127,1.049,0.381c0.127,0.254-0.021,0.657-0.445,1.208
		c-0.381,0.466-0.455,0.763-0.223,0.89c0.256,0.148,0.382,0.583,0.382,1.304c0,0.996,0.042,1.664,0.128,2.003
		c0.148,0.551,0.105,0.922-0.128,1.113c-0.105,0.106-0.351,0.244-0.73,0.413c-0.212,0.169-0.329,0.572-0.35,1.208
		c-0.044,0.318-0.032,0.615,0.03,0.891l-0.539,0.032c-0.36-0.042-0.657-0.18-0.892-0.414c-0.212-0.254-0.329-0.742-0.35-1.462
		v-1.049l-1.113,1.176c-0.806,0.805-1.347,1.25-1.622,1.335c-0.297,0.064-0.412-0.201-0.349-0.795l0.157-0.922h-0.35
		c-0.297,0.042-0.583,0.095-0.857,0.159c-0.297,0.084-0.849,0.392-1.653,0.922c-0.468,0.318-1.356,0.911-2.671,1.78
		c-0.891,0.593-2.045,0.827-3.465,0.699c-0.785-0.063-1.993-0.297-3.627-0.699c-0.933-0.233-1.875-0.043-2.828,0.572
		c-0.488,0.297-0.868,0.615-1.146,0.954l-0.51,1.622c-0.485,1.356-1.134,2.798-1.938,4.324c-0.783,1.526-1.61,2.438-2.479,2.735
		c-0.467,0.127-0.85,0.106-1.146-0.064l-0.89,1.463c-0.7,0.975-1.261,1.462-1.687,1.462c-1.061,0-1.791,1.039-2.192,3.116
		c-0.106,0.53-0.233,1.271-0.382,2.226c-0.148,0.699-0.329,1.092-0.541,1.177c-0.426,0.169-1.018,0.052-1.78-0.351
		c-0.382-0.19-0.71-0.392-0.985-0.604l-0.351,0.572c-0.296,0.382-0.582,0.573-0.856,0.573c-0.467,0-1.166-0.064-2.101-0.19
		l-0.159,1.208c-0.189,0.763-0.529,1.06-1.017,0.89c-0.53-0.169-0.942-0.105-1.239,0.191c-0.213,0.254-0.318,0.573-0.318,0.954
		c0,0.297-0.147,0.562-0.444,0.795c-0.318,0.233-0.7,0.35-1.146,0.35c-0.34,0-0.869-0.254-1.59-0.763
		c-0.383-0.254-0.711-0.509-0.986-0.763l-0.698,1.176c-0.36,0.551-0.658,1.335-0.89,2.353c-0.213,1.039-0.318,2.035-0.318,2.989
		c0,0.996-0.361,3.126-1.082,6.391c-0.741,3.328-1.355,5.554-1.844,6.677c-0.699,1.526-1.686,4.017-2.957,7.472l-0.127,0.891
		c-0.106,0.911-0.244,2.087-0.414,3.529c-0.147,1.441-0.563,3.083-1.239,4.928c-0.339,0.932-0.667,1.717-0.985,2.353l0.159,0.667
		c0.084,0.594,0.095,1.336,0.031,2.227c-0.063,0.742-0.456,1.664-1.177,2.766c-0.678,0.996-0.985,1.664-0.922,2.003
		c0.063,0.466,0.084,1.261,0.063,2.385c-0.041,1.908-0.063,2.967-0.063,3.179c0,1.102,0.297,2.099,0.892,2.989
		c0.528,0.805,1.218,1.42,2.065,1.844c0.637,0.318,1.061,1.018,1.271,2.099c0.106,0.529,0.139,1.039,0.096,1.526
		c2.312,1.293,4.155,2.448,5.533,3.466c1.06,0.784,2.882,2.321,5.468,4.611c2.629,2.289,4.494,4.017,5.598,5.183
		c2.713,2.458,4.99,4.525,6.836,6.2c3.476,3.222,5.353,5.299,5.627,6.232c0.298,1.018,0.467,2.776,0.51,5.278
		c0.021,1.526-0.032,3.804-0.159,6.835c-0.084,1.971-0.371,4.217-0.858,6.741c-0.381,1.95-0.785,3.656-1.207,5.12
		c-0.317,1.08-0.828,3.603-1.526,7.565c-0.638,3.604-1.062,6.201-1.271,7.791c-0.488,4.068-1.051,6.89-1.686,8.457
		c-0.384,0.869-0.086,2.701,0.891,5.5c0.485,1.441,1.049,3,1.685,4.676c0.063,0.402,0,0.879-0.189,1.43
		c-0.106,0.255-0.224,0.488-0.351,0.7c0.042,0.084,0.105,0.18,0.189,0.284c0.17,0.234,0.402,0.395,0.699,0.479
		c0.276,0.063,0.594,0.339,0.954,0.826l0.413,0.7c0.594-0.297,1.188-0.531,1.779-0.7c1.209-0.34,1.889-0.233,2.035,0.317
		c0.129,0.466-0.053,1.07-0.539,1.813c-0.424,0.594-0.541,0.942-0.351,1.049c0.147,0.084,0.593,0.521,1.336,1.305
		c0.636,0.678,1.122,1.017,1.462,1.017c0.424,0,1.07,0.36,1.939,1.081C198.109,202.941,198.393,203.196,198.627,203.438z
		 M93.385,116.047c-1.229-0.128-2.427-0.233-3.593-0.318c0.254-0.212,0.509-0.456,0.763-0.731c0.487-0.467,0.996-0.573,1.526-0.318
		C92.294,114.807,92.728,115.262,93.385,116.047z M76.312,115.347c-3.646,0.127-7.069,0.477-10.271,1.049
		c-0.254-0.657-0.36-1.399-0.318-2.226c-0.127-0.19-0.127-0.35,0-0.477c0.212-3.01,1.918-4.6,5.12-4.769
		c1.505,0,2.787,0.371,3.847,1.113c0.912,0.657,1.473,2.035,1.685,4.133C76.375,114.552,76.354,114.944,76.312,115.347z
		 M82.575,117.033c0.137,0.001,0.274,0.023,0.414,0.063c1.081,0.128,2.098,0.128,3.052,0c1.229,0.043,2.607,0.106,4.133,0.191
		c0.169,0,0.254,0.202,0.254,0.604l1.653-0.126c0.127,2.395,0.212,5.447,0.254,9.158c0.042,4.641,0.042,10.301,0,16.979
		c0.042,1.483,0.106,3.031,0.19,4.642c0.212,7.354,0.339,15.897,0.382,25.627c-0.466,0-0.943,0-1.431,0c-0.869,0-1.738,0-2.607,0
		c-0.445-0.128-0.795-0.351-1.049-0.668c1.823-0.169,3.042,0.054,3.656,0.668V163.52h-0.381c-2.014,0-3.105-0.223-3.275-0.668
		c0,0.699-0.456,0.699-1.367,0c2.311-0.953,3.9-0.89,4.77,0.191c0.53-0.509,0.614-1.622,0.254-3.34
		c-2.522,0.105-4.048-0.146-4.578-0.764h2.226c1.271,0,2.056,0.213,2.353,0.638v-3.595c-2.056,0.36-3.498,0.254-4.324-0.316
		c0.403-0.488,1.166-0.658,2.29-0.509c0.445,0.043,1.124,0.211,2.035,0.509c0.17-2.564,0.084-4.896-0.254-6.995
		c-1.399-0.127-2.777-0.191-4.134-0.191l-0.636,0.127l0.063-0.444c0.382-0.742,1.6-0.859,3.657-0.351
		c0.339,0,0.689,0.265,1.049,0.795c0.042-1.399,0.084-2.798,0.127-4.197c0.085-5.384,0-10.736-0.254-16.057
		c-2.628-0.084-4.112-0.126-4.451-0.126l-0.445-1.654c2.734,0,4.144,0.371,4.229,1.112c0.212,0,0.413-0.253,0.604-0.762h0.127
		c0.042-3.01,0-5.957-0.127-8.84c-1.271,0.128-2.883,0.191-4.833,0.191l-0.667-0.986l0.318,32.178c0,0.699,0,1.367,0,2.003
		c0,5.066,0.042,9.083,0.127,12.051v8.014c0,0.891,0.021,1.77,0.064,2.639c-2.12-0.043-4.208-0.084-6.264-0.128
		c0.255-0.741,1.081-1.026,2.48-0.856c1.887,0.127,2.873,0.127,2.957,0v-1.653c-0.084-0.468-0.169-0.742-0.254-0.827
		c-3.052,0.508-4.886,0.329-5.5-0.54c0.954-0.869,2.788-1.019,5.5-0.444v-2.736c-2.67,0.129-4.504,0.106-5.5-0.063
		c-0.127-0.891,1.707-1.156,5.5-0.796c-0.105-1.356-0.021-2.226,0.254-2.606c-2.755,0.129-4.673-0.031-5.755-0.477
		c0-0.701,0.721-0.977,2.162-0.827c0.467,0,1.58,0.063,3.339,0.19v-2.703c-3.052,0.402-4.928,0.255-5.627-0.444
		c0.339,0,0.339-0.106,0-0.317c0.7-0.529,2.575-0.646,5.627-0.351v-2.606c-3.201,0.445-5.076,0.297-5.627-0.445
		c0.296-0.996,2.172-1.177,5.627-0.54v-2.606c-3.625,0.783-5.5,0.414-5.627-1.112c0.742-0.298,2.618-0.318,5.627-0.064
		c0-0.042,0.021-0.349,0.064-0.921c0.042-0.339,0.021-0.615-0.064-0.827c0-0.53-0.095-0.816-0.286-0.859
		c-1.696,0.212-3.477,0.212-5.342,0v-0.922c1.081-0.339,2.861-0.339,5.342,0c0.127-1.441,0.223-2.311,0.286-2.607
		c-0.317-0.212-1.346-0.17-3.084,0.127c-1.526,0.126-2.396-0.244-2.607-1.113c0.784-0.615,2.682-0.678,5.691-0.19
		c0-1.399-0.095-2.268-0.286-2.608c-2.734,0.212-4.536,0.096-5.405-0.35v-0.317c0.827-0.657,2.628-0.806,5.405-0.445
		c0.19-0.211,0.286-1.038,0.286-2.48c-3.052,0.298-4.949,0.18-5.691-0.35v-0.636c0.742-0.36,2.543-0.36,5.405,0v-3.593
		c-3.477,0.509-5.374,0.245-5.692-0.794c0.36-0.255,2.258-0.318,5.692-0.191v-3.91h-5.692l0.287-1.845h5.405
		c0-4.451-0.042-7.153-0.128-8.108h-5.277c-0.191-0.827-0.562-1.155-1.113-0.986c0.424,11.765,0.636,28.373,0.636,49.824v6.867
		h-2.353l-3.975-0.604c0.085-0.128,0.233-0.254,0.445-0.382c0.191,0.425,1.897,0.486,5.119,0.191v-2.291
		c-3.222,0.34-5.203,0.233-5.945-0.316c0.042,0,0.063-0.075,0.063-0.225c0-0.084-0.021-0.147-0.063-0.188
		c0.042-0.042,2.024-0.233,5.945-0.573c-0.042-0.783-0.042-1.547,0-2.289c-3.137,0.127-5.119,0.021-5.945-0.317
		c0.084-1.483,1.971-1.813,5.66-0.984c0.19-1.019,0.19-1.845,0-2.481c-2.522,0.17-4.409,0.17-5.66,0c0-1.144,0.71-1.631,2.13-1.461
		c2.269,0.147,3.445,0.201,3.53,0.158v-2.513c-2.395,0.53-4.282,0.53-5.66,0c0-0.869,0.668-1.304,2.003-1.304
		c1.526,0.127,2.745,0.191,3.657,0.191v-2.607c-2.65,0.486-4.536,0.486-5.66,0c0-0.911,0.71-1.282,2.13-1.112l3.53,0.127v-2.606
		c-2.989,0.656-4.95,0.552-5.882-0.317c-0.085-0.699,0.657-0.986,2.225-0.858c2.268,0,3.487-0.043,3.657-0.128v-2.416
		c-2.65,0.488-4.61,0.488-5.882,0c0-0.912,0.858-1.303,2.575-1.176c2.035,0,3.137-0.042,3.307-0.127v-2.29
		c-2.819,0.339-4.78,0.339-5.882,0c0.148-0.339,0.222-0.732,0.222-1.176c1.463,0.126,3.328,0.126,5.596,0
		c0.148-1.399,0.169-2.226,0.063-2.48c-2.65,0.381-4.61,0.381-5.882,0c0.233-0.869,1.112-1.303,2.639-1.303l3.18,0.063
		c-0.297-0.784-0.276-1.611,0.063-2.48c-3.349,0.509-5.31,0.393-5.882-0.35c0.275-1.081,2.214-1.292,5.818-0.636v-3.593
		c-2.819,0.467-4.759,0.467-5.818,0c0-0.869,0.742-1.303,2.225-1.303c0.445-0.085,1.643-0.127,3.593-0.127v-3.466
		c-2.819,0.126-4.759,0.169-5.818,0.126v-1.78c2.183-0.127,4.122-0.191,5.818-0.191c0-4.451-0.106-7.153-0.318-8.108
		c-3.562,0.127-5.543,0.127-5.946,0v54.974l-0.572-0.126v-2.101c-1.356,0-3,0.106-4.929,0.318l0.064,1.178
		c-0.424-0.043-0.859-0.105-1.304-0.19v-0.858c-1.993,0.105-3.169,0.127-3.529,0.063v0.158c-0.7-0.147-1.388-0.308-2.067-0.478
		c0-0.17,0.021-0.318,0.063-0.445c0.339-0.084,0.657-0.224,0.954-0.414c0-1.25,0.074-1.896,0.222-1.938
		c-0.36,0.043-0.667,0.085-0.922,0.128c0-0.085,0-0.17,0-0.254c-0.042-0.488-0.084-0.943-0.127-1.367
		c0.169-0.105,0.445-0.105,0.827,0v-2.099c-0.339,0-0.679,0.063-1.018,0.19c-0.064-0.53-0.117-1.028-0.159-1.496
		c0.19-0.041,0.498-0.041,0.922,0c0.53-1.609,0.466-2.416-0.191-2.416c-0.169,0.043-0.477,0.172-0.922,0.382
		c-0.085-1.144-0.148-2.171-0.191-3.083c0.212,0.232,0.276,0.848,0.191,1.844c0.233-0.445,0.688-0.667,1.367-0.667
		c0-1.208,0.074-1.854,0.222-1.94c-1.017,0.086-1.611,0.233-1.78,0.445c-0.127-1.652-0.191-3.053-0.191-4.195
		c0-3.031-0.742-5.661-2.225-7.887c-1.527-2.14-2.29-4.303-2.29-6.486l2.29-3.784c1.039-1.568,1.716-3.136,2.035-4.705v3.275
		c0.699-0.361,1.346-0.604,1.939-0.732v-3.275c-0.594,0.148-1.24,0.393-1.939,0.732c0.127-0.658,0.19-1.314,0.19-1.971
		c-0.615-2.904-0.922-4.865-0.922-5.883c0-2.12,0.593-3.486,1.78-4.101c1.42-0.869,3.858-1.442,7.313-1.717
		c1.781-0.169,3.848-0.255,6.201-0.255c0.169,0,0.954-0.211,2.353-0.636c0.084-0.084,0.244-0.127,0.477-0.127
		c0.254,0.17,0.752,0.17,1.494,0c0.339,0,0.774,0.042,1.304,0.127c0.042,0.17,0.063,0.382,0.063,0.636
		c0.615-0.126,1.918-0.148,3.911-0.063h0.255V117.033z M120.825,170.703c-0.042-8.288-0.084-15.156-0.127-20.604
		c0.043-0.042,0.085-0.063,0.127-0.063c0.042,6.315,0.084,13.206,0.127,20.667C120.91,170.703,120.868,170.703,120.825,170.703z
		 M116.787,152.135c0.169-0.128,0.36-0.232,0.572-0.318c0.127,5.873,0.19,10.928,0.19,15.166v4.42
		c-0.212,0.043-0.445,0.086-0.699,0.129C116.808,162.859,116.787,156.395,116.787,152.135z M118.663,151.085
		c0.127-0.085,0.286-0.169,0.477-0.254l0.064,20.254c-0.191,0-0.371,0.042-0.541,0.126
		C118.621,163.688,118.621,156.979,118.663,151.085z M122.382,149.337c0.149-0.106,0.308-0.18,0.478-0.223
		c0.042,5.108,0.106,12.124,0.191,21.049c-0.212,0.041-0.414,0.083-0.604,0.126C122.404,163.104,122.382,156.119,122.382,149.337z
		 M127.502,147.111c0.296-0.128,0.573-0.245,0.827-0.351l0.063,21.907c-0.169,0.042-0.318,0.085-0.446,0.127
		c-0.126-9.241-0.318-16.278-0.572-21.112L127.502,147.111z M101.811,130.228c0.53,1.929,0.795,3.222,0.795,3.878
		c0,0.955-0.222,3-0.667,6.137C101.854,136.894,101.811,133.555,101.811,130.228z M164.385,117c0.063,2.183,0.012,3.413-0.158,3.688
		v-0.636c-1.188,0.212-2.258,0.318-3.213,0.318c0.446-0.339,0.67-1.102,0.67-2.29c0.295,0.297,1.08,0.445,2.352,0.445
		c-0.232-0.614-0.338-1.124-0.317-1.526L164.385,117L164.385,117z M164.034,127.875c-0.274,0-0.71,0.159-1.304,0.476
		c0.424,0.255,0.742,0.361,0.953,0.319C163.876,128.626,163.993,128.362,164.034,127.875z M169.663,125.935
		c-0.233-0.53-0.456-0.815-0.668-0.858c0.212,0.488,0.212,0.922,0,1.303C169.439,126.253,169.663,126.105,169.663,125.935z
		 M56.566,105.204h-1.494c-1.696,0-2.544-0.827-2.544-2.48c0-0.339,0.657-1.166,1.971-2.48c0.784-0.084,1.918,0.7,3.402,2.353
		C57.711,103.063,57.266,103.933,56.566,105.204z M58.538,123.645c0.212-1.483,0.52-2.31,0.922-2.479
		c0.127,0.042,0.254,0.276,0.381,0.7c-0.084-0.87-0.148-1.304-0.191-1.304c-0.742,0.403-1.156,0.668-1.24,0.795
		C58.41,121.653,58.453,122.416,58.538,123.645z M60.954,120.371v7.854c0.742-0.275,1.897-0.542,3.466-0.795l-0.191-7.726
		C63.741,119.704,62.65,119.925,60.954,120.371z M58.41,127.683v1.177c0.255,0,0.816-0.17,1.686-0.509
		c0-2.098-0.148-3.412-0.445-3.942v2.702L58.41,127.683z M58.729,127.43c0.275-0.912,0.275-1.919,0-3.021
		C58.114,125.766,58.114,126.772,58.729,127.43z M65.533,119.257v7.854c3.137-0.233,4.791-0.296,4.959-0.189v-7.981
		C67.843,119.279,66.189,119.385,65.533,119.257z M65.723,132.803c0.7-0.445,2.375-0.668,5.024-0.668v-3.72l-5.214,0.636
		L65.723,132.803z M64.42,129.178c-1.357,0.445-2.512,0.668-3.466,0.668v3.465c0.784,0,1.939-0.169,3.466-0.508V129.178z
		 M86.708,132.453c0-0.085-0.169-0.127-0.509-0.127c0.742-0.53,2.353-0.53,4.833,0c-0.127,0.361-0.127,0.688,0,0.985L86.2,132.93
		C86.539,132.697,86.708,132.538,86.708,132.453z M88.616,136.841c0,0.445,0.583,0.689,1.749,0.731h-3.911
		c0.424-0.106,0.615-0.223,0.572-0.349c0-0.169-0.254-0.275-0.763-0.319C86.772,136.459,87.556,136.438,88.616,136.841z
		 M86.454,144.09c2.311-0.084,3.836,0.074,4.579,0.478c0,0.635-0.943,0.804-2.83,0.508C87.207,144.588,86.624,144.26,86.454,144.09z
		 M86.263,140.625c2.607-0.508,4.197-0.403,4.77,0.317c-0.784,0.616-2.374,0.616-4.77,0
		C86.476,140.73,86.476,140.625,86.263,140.625z M70.747,133.566c-2.163,0.042-3.9,0.18-5.214,0.413v3.053
		c0.297,0.084,0.911,0.106,1.844,0.063c0.551-0.042,1.675-0.127,3.37-0.254V133.566z M70.747,138.145
		c-2.734,0.444-4.472,0.508-5.214,0.19l0.19,2.607c0.53-0.211,2.205-0.317,5.024-0.317V138.145z M64.674,134.106
		c-1.823,0.425-3.042,0.636-3.657,0.636c-0.042,0.212-0.042,1.304,0,3.275l3.657-0.668V134.106z M65.723,148.478
		c0.318-0.317,1.992-0.541,5.024-0.668c0.106-1.526,0.021-2.353-0.255-2.48c-2.649,0-4.303,0.245-4.959,0.732
		C65.935,146.358,65.999,147.164,65.723,148.478z M64.293,145.871c-0.869,0.126-1.961,0.338-3.275,0.636
		c0.085,0.211,0.127,0.932,0.127,2.162c0.615-0.488,1.706-0.658,3.275-0.508C64.674,146.634,64.632,145.871,64.293,145.871z
		 M64.42,142.119c-0.742,0.402-1.876,0.604-3.402,0.604v2.354c0.7-0.255,1.918-0.542,3.657-0.859
		C64.865,143.264,64.78,142.564,64.42,142.119z M65.723,144.568c0.869-0.318,2.544-0.478,5.024-0.478v-2.29l-5.024,0.318V144.568z
		 M64.674,138.685c-1.569,0.127-2.788,0.339-3.657,0.636c0.085,0.211,0.127,0.975,0.127,2.289c0.572-0.572,1.664-0.794,3.275-0.668
		C64.589,140.815,64.674,140.063,64.674,138.685z M70.843,153.374c0-0.381-0.117-0.646-0.351-0.795
		c-3.052,0.317-4.642,0.478-4.769,0.478v2.479c1.399-0.254,3.074-0.382,5.024-0.382L70.843,153.374z M66.264,151.275
		c0.339,0.317,0.593,0.478,0.763,0.478c0.276-0.36,0.806-0.541,1.59-0.541c0.911-0.127,1.622-0.104,2.13,0.063
		c0-1.124-0.084-1.95-0.255-2.479c-0.954,0.361-2.543,0.541-4.769,0.541c0,0.869,0.063,1.718,0.191,2.543
		C65.914,151.479,66.03,151.275,66.264,151.275z M64.293,149.464c-0.446,0.211-1.537,0.424-3.275,0.636
		c0.212,0.742,0.35,1.505,0.413,2.289c0.424-1.166,1.42-1.334,2.989-0.509C64.674,150.438,64.632,149.633,64.293,149.464z
		 M64.674,153.184c-0.869,0.17-1.516,0.276-1.94,0.318c-0.699,0.084-1.271,0.105-1.717,0.063c0,1.484,0.042,2.291,0.127,2.418
		c1.187-0.424,2.364-0.572,3.529-0.445L64.674,153.184L64.674,153.184z M65.914,162.85c0.042-0.297,1.653-0.445,4.833-0.445
		l0.096-2.161c-1.23-0.169-2.936-0.104-5.12,0.19C65.639,161.471,65.702,162.277,65.914,162.85z M65.914,158.938
		c1.653-0.127,3.264-0.127,4.833,0l0.223-1.845c-0.148-0.423-0.307-0.678-0.478-0.762l-4.769,0.317
		C65.723,157.434,65.787,158.197,65.914,158.938z M64.674,156.84c-2.162,0.212-3.381,0.361-3.657,0.445v2.29
		c1.887-0.425,3.021-0.573,3.402-0.446C64.589,159.002,64.674,158.239,64.674,156.84z M64.674,160.434
		c-1.25,0.297-2.47,0.443-3.657,0.443c0.36,0.531,0.402,1.23,0.127,2.1c1.017-0.381,2.194-0.572,3.529-0.572L64.674,160.434
		L64.674,160.434z M65.723,163.835c0.212,0.657,0.276,1.462,0.191,2.417c1.23,0.043,2.872,0,4.929-0.128v-2.416
		C67.96,163.877,66.253,163.921,65.723,163.835z M87.153,151.753c2.544-0.976,3.858-0.763,3.943,0.636h-3.275
		C87.567,151.965,87.345,151.753,87.153,151.753z M58.41,140.116v2.003c0.382,0,0.943-0.106,1.686-0.318
		c0.275-1.526,0.127-2.311-0.445-2.353C59.078,139.808,58.665,140.032,58.41,140.116z M59.078,140.751l-0.35-0.127
		c0.085-0.17,0.329-0.317,0.731-0.445c0,0.042-0.127,0.191-0.382,0.445L59.078,140.751L59.078,140.751z M60.096,138.145
		c0.233-2.608-0.329-3.456-1.686-2.544l0.127,3.274C58.792,138.431,59.312,138.187,60.096,138.145z M58.41,143.9
		c0.084,0.869,0.191,1.526,0.318,1.971c0.042-0.403,0.498-0.668,1.367-0.795c0.233-0.955,0.19-1.547-0.127-1.781
		C59.671,143.083,59.152,143.284,58.41,143.9z M58.41,147.174v1.94c0.297,0.148,0.859,0,1.686-0.445v-1.844
		C59.417,147.186,58.855,147.302,58.41,147.174z M58.41,150.958v1.748c0.127,0.403,0.604,0.36,1.431-0.127
		c0.487-1.377,0.424-2.141-0.191-2.289C59.481,150.566,59.067,150.789,58.41,150.958z M60.096,155.98v-2.098
		c-0.466,0.317-1.028,0.477-1.686,0.477c0,0.869,0.042,1.568,0.127,2.1C58.983,156.016,59.502,155.854,60.096,155.98z
		 M62.321,170.354c0.191-0.043,0.17-0.148-0.063-0.317c0.742-0.339,1.462-0.339,2.162,0c0.296-1.166,0.382-1.929,0.254-2.289
		c-0.912,0.233-2.088,0.351-3.529,0.351v2.066C61.717,170.354,62.109,170.418,62.321,170.354z M61.431,166.92
		c1.696-0.615,2.692-0.773,2.989-0.479c0.169-0.213,0.254-0.976,0.254-2.289c-2.162,0.127-3.381,0.351-3.657,0.668
		C61.463,164.947,61.601,165.646,61.431,166.92z M88.616,169.718c0.169,0.084,1.039,0.371,2.607,0.858
		c-0.7,0.085-1.611,0.127-2.734,0.127C88.383,170.3,88.425,169.973,88.616,169.718z M88.203,166.252
		c1.145-0.445,2.109-0.223,2.894,0.668l-2.894,0.063V166.252z M70.843,167.428l-4.929,0.191c-0.296,0.697-0.36,1.547-0.191,2.544
		c0.742-0.128,1.113-0.317,1.113-0.573c0.361,0.426,1.696,0.467,4.007,0.128V167.428z M160.156,137.413
		c0.063-0.084-0.043-0.211-0.318-0.381c0,0.36-0.043,0.54-0.127,0.54c0-0.487-0.085-0.773-0.254-0.858l-0.063,0.985
		C159.816,137.614,160.07,137.52,160.156,137.413z M160.951,140.179c0.402-0.869,0.338-1.367-0.191-1.494
		C160.76,139.236,160.824,139.734,160.951,140.179z M164.034,148.796c-0.655,0-2.099,0.18-4.323,0.541
		c0.127-1.569,0.043-2.47-0.254-2.703v2.639c0,0.466,0.084,1.112,0.254,1.939c0.742-0.911,2.184-1.218,4.323-0.921V148.796z
		 M129.918,146.252c-0.084,0.254-0.127,0.604-0.127,1.049c0.17,0.954,0.127,1.558-0.127,1.813c-0.233-0.085-0.35-0.732-0.35-1.94
		c0-0.275-0.021-0.519-0.063-0.731C129.462,146.358,129.685,146.294,129.918,146.252z M130.618,145.998
		c1.018-0.317,1.759-0.476,2.226-0.476c0.615,0,1.42,0.55,2.416,1.653v0.509c0,1.06-0.126,1.759-0.381,2.098
		c-0.403-0.402-0.509-1.102-0.318-2.098c-0.233-1.081-0.583-1.622-1.049-1.622l0.063,1.431c-0.042,0.784-0.148,1.441-0.318,1.971
		c-0.402-0.127-0.604-0.785-0.604-1.971c0.212-1.082-0.033-1.622-0.731-1.622c-0.255,0.084-0.382,0.583-0.382,1.495
		c0.084,1.123,0.021,1.78-0.191,1.971c-0.296-0.191-0.423-0.869-0.381-2.035C130.968,146.687,130.851,146.252,130.618,145.998z
		 M115.006,171.88v-5.119c-0.042-4.876-0.085-8.798-0.127-11.765c0.127-0.553,0.297-1.027,0.509-1.432
		c0.042,4.705,0.116,9.104,0.222,13.195l0.064,5.055C115.441,171.814,115.218,171.837,115.006,171.88z M113.893,172.07
		c-0.169,0.041-0.36,0.085-0.571,0.127v-6.613c0.126-0.594,0.275-1.156,0.445-1.686c0.042,1.483,0.084,3.137,0.126,4.959V172.07z
		 M124.958,169.652c-0.233,0.043-0.435,0.107-0.604,0.191l-0.19-21.367c0.212-0.084,0.403-0.169,0.573-0.254
		C124.821,156.979,124.895,164.122,124.958,169.652z"/>
	<path fill="#010101" d="M62.426,114.647c0.339,0.169,0.381,0.974,0.127,2.416c-1.569-0.825-2.565-0.657-2.989,0.509
		c-0.063-0.783-0.201-1.547-0.413-2.289C60.889,115.072,61.98,114.858,62.426,114.647z M64.397,116.459
		c-0.234,0-0.35,0.201-0.35,0.604c-0.127-0.825-0.191-1.674-0.191-2.543c2.226,0,3.815-0.18,4.769-0.541
		c0.17,0.53,0.255,1.356,0.255,2.479c-0.509-0.17-1.219-0.19-2.13-0.063c-0.784,0-1.314,0.181-1.59,0.541
		C64.99,116.937,64.736,116.777,64.397,116.459z M68.976,118.558l-0.096,1.78c-1.95,0-3.625,0.128-5.024,0.382v-2.479
		c0.127,0,1.717-0.158,4.769-0.478C68.859,117.912,68.976,118.177,68.976,118.558z M62.807,103.869c0,1.377-0.085,2.129-0.254,2.256
		c-1.611-0.125-2.703,0.097-3.275,0.668c0-1.313-0.042-2.076-0.127-2.289C60.02,104.207,61.238,103.996,62.807,103.869z
		 M63.856,109.752v-2.449l5.024-0.318v2.29C66.4,109.273,64.725,109.434,63.856,109.752z M62.553,107.303
		c0.36,0.445,0.445,1.145,0.254,2.098c-1.738,0.317-2.957,0.604-3.657,0.859v-2.354C60.677,107.906,61.811,107.705,62.553,107.303z
		 M149.504,124.729v1.305c0,0.084-0.267,0.127-0.796,0.127c1.188,1.484,1.889,2.312,2.1,2.48c0.316-0.381,0.402-0.922,0.254-1.622
		c0.445,0.383,1.324,0.383,2.639,0c1.082-0.212,1.951-0.212,2.607,0c-0.17,0.297-0.256,0.731-0.256,1.304
		c-0.527-0.084-2.191,0.021-4.99,0.318c0,0.4,0.223,0.838,0.668,1.304c0.572,0,1.092-0.106,1.558-0.317
		c0.403-0.086,0.817,0.021,1.24,0.317c0,0.19-0.276,0.19-0.827,0v1.335c-1.441,0-2.225,0.256-2.354,0.764
		c0.869,0.615,2.522,0.679,4.961,0.19c0.127,0.36,0.189,0.869,0.189,1.526h-1.971c0.043,0.783-0.021,1.304-0.19,1.557
		c1.103-0.253,1.761-0.476,1.972-0.667c0.17,0.614,0.17,1.272,0,1.972c-0.256-0.424-0.562-0.51-0.922-0.254
		c-0.529,0.127-0.815,0.063-0.858-0.19c0,0.34-0.148,0.614-0.444,0.825H153.7c-3.921-0.127-6.453-0.23-7.6-0.316v42.955
		c-0.084,0.383,0.021,0.657,0.317,0.828h-0.188c-0.297-0.128-0.795-0.192-1.494-0.192c0.085,0.275-0.063,0.341-0.446,0.192
		l-0.478-0.318c-1.039,0.126-1.76,0.393-2.162,0.795v1.621h1.781c0.127-0.255,0.148-0.583,0.063-0.984
		c-0.043-0.34,0.085-0.487,0.382-0.445c0.189,0.424,0.169,0.857-0.064,1.303c0.317,0.299,0.869,0.445,1.654,0.445
		c0.254-0.253,0.359-0.624,0.317-1.112c-0.085-0.169-0.085-0.317,0-0.444c0.084-0.127,0.231-0.19,0.444-0.19l0.189,2.544
		c-3.391-0.509-6.029-0.785-7.917-0.827v-60.666c0.043-0.021,0.075-0.041,0.097-0.063c-0.043,0-0.074,0-0.097,0v-3.021
		c0.063-0.021,0.117-0.043,0.16-0.063c0-0.254-0.054-0.435-0.16-0.541v-0.443c0.675-0.189,1.015-0.146,1.019,0.127v-0.764
		c0.785,0.297,1.718,0.445,2.799,0.445c0.254,0.127,0.476-0.021,0.668-0.445c0.169,0.127,0.253,0.563,0.253,1.304
		c-0.231-0.17-0.539-0.17-0.921,0l0.668,1.621c0.91,0.657,1.41,1.028,1.492,1.112c0.297,0.17,0.445,0.457,0.445,0.858
		c0.785-0.127,2.184-0.19,4.198-0.19v-1.303l-2.228,0.19v-1.367l1.813,0.19c0.104-0.086,0.372-0.309,0.796-0.668v4.388
		c-1.781,0.212-2.874,0.233-3.275,0.063c0,0.297-0.043,0.52-0.127,0.668C146.228,125.238,147.362,125.387,149.504,124.729z
		 M171.616,102.234c0.074,10.068,0.111,21.53,0.111,34.387c-1.271-0.254-2.617-0.127-4.039,0.381
		c-0.063,0.233,0.063,0.33,0.383,0.287c0.249-0.146,0.377-0.088,0.382,0.176v-0.111c0.17-0.043,1.324-0.105,3.465-0.191l0.063,1.178
		c0,0.296-0.021,0.443-0.063,0.443c-1.397,0.213-2.331,0.319-2.798,0.319h-0.667v-1.622h-0.636c0.297,1.526,0.445,2.988,0.445,4.389
		v0.699c-0.17-0.128-0.318-0.189-0.445-0.189v27.438c0.509,0.19,1.875,0.232,4.101,0.127v1.526h-3.465
		c0.444-0.826,0.317-1.313-0.382-1.463c-0.318,0.358-0.402,0.849-0.254,1.463c0,0.655,0.084,1.196,0.254,1.622
		c-3.053-0.129-5.034,0.053-5.946,0.54c1.082,0.594,3.784,0.741,8.108,0.444c0.869,0.34,0.934,0.446,0.191,0.317
		c-0.955,0-1.611,0.043-1.973,0.129c-1.398,0-2.268-0.044-2.607-0.129c0.572,0.171,0.657,0.351,0.256,0.541
		c-0.51,0.127-0.797,0.147-0.858,0.063c-0.044-0.043,0.116-0.244,0.478-0.604h-3.148c-0.085,0.7-0.297,1.356-0.637,1.972
		c-1.397,0-2.183,0.17-2.353,0.51c0,0.19,0.063,0.308,0.19,0.351c-1.104-0.192-1.95-0.213-2.543-0.063v-4.865
		c-0.086,0.402-0.33,0.498-0.732,0.287c0.171-0.445,0.085-0.668-0.253-0.668h-1.05c0.086,0.444,0.021,0.729-0.19,0.857
		c0,0.34,0.562,0.444,1.687,0.318c0.316,0.212,0.476,0.498,0.476,0.857c0,0.297-0.157,0.711-0.476,1.24l-1.495-0.255
		c-0.212,0.255-0.275,0.731-0.19,1.431l1.686-0.795c0.211,0.318,0,0.479-0.637,0.479c-0.572,0.169-0.73,0.539-0.476,1.113
		c-1.252-0.149-1.974-0.149-2.164,0c-0.168-0.191-0.168-0.287,0-0.287c0-0.17,0.183-0.297,0.541-0.383
		c-0.042-15.559-0.042-26.432,0-32.621c0-0.17-0.243-0.19-0.729-0.063c0-0.128,0.242-0.276,0.729-0.446l-0.063-5.023
		c-0.127-0.274-0.191-0.604-0.191-0.984c0.213-0.043,0.404,0.021,0.572,0.189c0.17,0.213,0.255,0.478,0.255,0.795
		c0.444-0.189,0.911-0.189,1.399,0l-0.097,0.128c-0.128,0.212-0.19,1.038-0.19,2.479c-0.084-0.275-0.211-0.275-0.383,0
		c-0.445,0-0.527,0.309-0.253,0.922c0,0.553,0.498,0.572,1.493,0.063c-0.911,0.128-1.217-0.054-0.92-0.541
		c0.273,0.255,0.582,0.19,0.92-0.188c0.402,0.74,0.469,1.674,0.191,2.797c-0.424,0.148-0.986,0.106-1.686-0.127
		c0,0.869,0.063,1.347,0.19,1.431h0.856c0.422-0.168,0.633-0.544,0.639-1.128c0.004,0.193,0.09,0.529,0.252,1.001
		c0,0.657-0.084,1.315-0.252,1.972h-1.685c0.127,0.296,0.19,0.709,0.19,1.24c0.572,0,1.07-0.085,1.494-0.255
		c0.317,0.382,0.477,0.753,0.477,1.112c0,0.213-0.158,0.582-0.477,1.113c-0.784,0-1.26-0.085-1.433-0.255
		c0,0.551-0.084,0.985-0.253,1.304h1.303c0.129,0,0.19-0.181,0.19-0.541c-0.126-0.296-0.063-0.445,0.192-0.445v2.926h-1.496
		c-0.127,0.318-0.189,0.689-0.189,1.113c0.426,0.233,0.984,0.233,1.686,0v1.973h-1.685c-0.233,0.338-0.17,0.729,0.19,1.176h1.494
		c0.275,0.954,0.275,1.652,0,2.098c-0.086-0.084-0.584-0.125-1.494-0.125c0.086,0.465,0.021,0.836-0.19,1.111h1.493
		c0.044-0.318-0.104-0.477-0.445-0.477c0.213-0.213,0.426-0.317,0.639-0.317c0.274,0.74,0.274,1.651,0,2.731l-0.639-0.125
		l-0.856,0.125c0.086,0.531,0.021,0.924-0.19,1.179c0.911,0,1.473-0.106,1.686-0.317c-0.572,0.17-0.784-0.012-0.637-0.541
		c0.785,0.232,1.082,0.678,0.891,1.336c0,0.338-0.084,0.984-0.254,1.938v0.478c-0.127,0-0.127-0.265,0-0.795l-1.686-0.127
		c0.213,0.256,0.276,0.689,0.19,1.305c0.042-0.17,0.54-0.297,1.495-0.383v2.004h-1.495c-0.212,0.657-0.212,1.092,0,1.304
		c0.741,0.149,1.239,0.085,1.495-0.19v2.162c0.127-0.466,0.188-1.293,0.188-2.48l0.063-0.793c0-1.951,0.074-3.478,0.223-4.58
		l0.064-10.969c0-1.738,0.041-3.043,0.127-3.912v-10.777c0-7.844-0.043-13.471-0.127-16.883l-0.064-6.772
		c0-2.014-0.074-3.455-0.223-4.323l-0.127-6.361l-0.286-12.271c0.233,0.023,0.487,0.046,0.764,0.063l0.89,0.033
		c0.68,0.635,1.433,1.303,2.258,2.002c1.695,1.463,2.969,2.386,3.815,2.768c0.869,0.402,1.622,0.688,2.257,0.857l0.7,0.127
		c1.251,1.399,2.343,2.48,3.275,3.244C170.733,101.141,171.11,101.57,171.616,102.234z M122.128,148.534
		c0.254,0.743,0.34,2.045,0.254,3.912c-0.445-0.044-0.943-0.044-1.494,0l0.254-3.912H122.128z M112.844,157.342
		c-0.254,0.106-0.562-0.021-0.923-0.381c0.255-0.171,0.541-0.255,0.859-0.255c0.127-0.127,0.211-0.127,0.254,0
		C113.121,157.087,113.056,157.299,112.844,157.342z M110.172,156.387c0.213,0.297,0.606,0.34,1.178,0.129
		c0,0.338-0.394,0.508-1.178,0.508 M110.172,153.686h0.892c0.444,0.826,0.646,1.482,0.604,1.971c0,0.34-0.328,0.51-0.985,0.51
		c-0.127,0-0.231-0.105-0.319-0.318 M112.303,153.686c0.487-0.127,0.731,0.115,0.731,0.73c0.17,0.424,0.17,1.008,0,1.749h-1.113
		l0.063-0.51C111.986,155.127,112.091,154.471,112.303,153.686z M113.703,153.749h1.047l-0.156,3.752
		c-0.467-0.19-0.764-0.243-0.891-0.159V153.749L113.703,153.749z M117.232,155.529c0-0.87,0.105-1.463,0.317-1.78h0.731
		c0.211,0.487,0.274,1.738,0.189,3.752h-1.239L117.232,155.529L117.232,155.529z M115.578,153.749h0.922
		c0.256,0.785,0.382,1.42,0.382,1.907c0,0.34-0.126,0.955-0.382,1.845h-1.111C115.515,155.656,115.578,154.406,115.578,153.749z
		 M119.521,153.749c0.212-0.042,0.508,0.073,0.891,0.349v3.403h-1.494C119.32,156.971,119.521,155.721,119.521,153.749z
		 M117.549,148.534c0.34,0.128,0.71,0.128,1.112,0c-0.317,0.657-0.381,1.961-0.19,3.912h-0.922V148.534z M119.171,148.534h1.238
		v3.912h-1.238V148.534z M115.578,149.84c0-0.785,0.084-1.242,0.256-1.369h0.666c0.256,0.869,0.382,1.547,0.382,2.035
		c0,0.424-0.126,1.071-0.382,1.94c-0.127-0.128-0.435-0.192-0.922-0.192c0-0.084-0.021-0.539-0.063-1.367
		C115.472,150.399,115.494,150.051,115.578,149.84z M113.893,148.471h0.856v3.783h-1.047
		C113.703,150.198,113.766,148.938,113.893,148.471z M112.113,148.471h0.922v3.783h-1.112v-2.289
		C112.006,149.096,112.07,148.598,112.113,148.471z M110.172,148.471c0.552-0.127,0.827-0.211,0.827-0.254
		c0.317,0.297,0.477,0.838,0.477,1.623c0,0.951-0.042,1.758-0.126,2.414c-0.36-0.084-0.753-0.126-1.178-0.126 M113.957,143.098
		c0.34,0.127,0.604,0.127,0.793,0c0.299,0.783,0.447,1.441,0.447,1.971c0,0.488-0.148,1.188-0.447,2.1l-0.856-0.255
		c-0.127-0.657-0.188-1.44-0.188-2.353C113.83,143.712,113.914,143.225,113.957,143.098z M112.113,143.098h0.922
		c0.17,0.189,0.254,0.679,0.254,1.463c0,0.678-0.084,1.463-0.254,2.353h-0.922V143.098z M110.363,143.098h0.987v3.814h-1.178
		 M110.619,137.565h0.731c0.084,0.741,0.19,1.61,0.317,2.606c0,0.699-0.201,1.197-0.604,1.494
		C110.279,141.667,110.131,140.301,110.619,137.565z M111.986,140.174c0.359-1.146,0.402-1.908,0.127-2.291
		c0.869-0.529,1.176,0.731,0.922,3.784c-0.699,0.126-1.049-0.308-1.049-1.304V140.174z M115.197,138.869
		c0,1.081-0.063,2.014-0.19,2.798h-1.05c0.127-1.313,0.127-2.575,0-3.784c0.34,0,0.552-0.104,0.638-0.316
		C114.783,137.734,114.985,138.17,115.197,138.869z M117.549,143.225h1.112v3.942h-1.112V143.225z M117.549,141.667
		c0.085-2.522,0.171-3.784,0.255-3.784h0.857v3.784H117.549z M119.521,143.225h0.891v3.942h-1.239
		C119.406,146.065,119.521,144.75,119.521,143.225z M115.833,143.225c0.572,0,0.941,0.021,1.111,0.063
		c-0.297,0.742-0.382,2.034-0.255,3.88h-0.856V143.225z M115.833,137.883c0.443,0,0.666-0.104,0.666-0.316
		c0.572,0.423,0.723,1.791,0.445,4.102h-1.111V137.883z M119.521,137.883h0.954v3.784h-0.954V137.883z M113.957,130.889v-2.606
		c0-0.912,0.435-1.347,1.304-1.304v3.91H113.957z M118.854,133.432c-0.128,0.486-0.19,1.42-0.19,2.797h-0.858v-3.909h1.05
		L118.854,133.432L118.854,133.432z M120.475,136.229h-0.954c-0.148-0.721-0.223-1.59-0.223-2.606c0-0.996,0.392-1.431,1.177-1.303
		V136.229z M115.833,132.319h1.111v3.909h-1.111V132.319z M113.957,136.229c0.127-1.609,0.127-2.913,0-3.909
		c0.424,0,0.858,0.104,1.304,0.317c-0.042,1.313-0.126,2.512-0.255,3.592H113.957z M110.363,133.622
		c0-0.996,0.371-1.431,1.113-1.303v3.909h-1.113 M112.303,132.319h0.985v3.909c-0.869,0.19-1.304-0.307-1.304-1.494
		C112.303,133.527,112.41,132.721,112.303,132.319z M113.416,127.295v0.986c0,0.869-0.041,1.738-0.127,2.605h-0.985
		c0.106-1.482,0.106-2.787,0-3.91C112.96,126.977,113.332,127.083,113.416,127.295z M110.363,130.887l0.256-3.91h0.857v3.91H110.363
		 M111.476,125.641h-0.857c-0.168-1.293-0.168-2.597,0-3.91c0.955-0.34,1.326,0.318,1.112,1.972
		C111.731,124.359,111.647,125.006,111.476,125.641z M112.303,121.73c0.36,0.128,0.731,0.128,1.112,0c0,1.525-0.041,2.83-0.127,3.91
		l-0.985-0.19V121.73L112.303,121.73z M115.26,121.667v3.783h-1.304v-3.719C114.083,121.773,114.519,121.752,115.26,121.667z
		 M118.854,125.45h-1.05c-0.128-0.783-0.191-1.651-0.191-2.606c0-0.91,0.414-1.304,1.241-1.177V125.45z M117.613,128.281
		c0-0.912,0.414-1.348,1.241-1.305v3.91h-1.05C117.676,130.102,117.613,129.234,117.613,128.281z M120.475,126.977
		c0.104,0.086,0.159,0.52,0.159,1.305c0,0.953-0.055,1.82-0.159,2.605h-0.892c0.213-1.482,0.213-2.787,0-3.91H120.475z
		 M115.833,127.295c0.063-0.212,0.434-0.316,1.111-0.316v3.91h-1.111C115.939,129.659,115.939,128.461,115.833,127.295z
		 M119.583,121.667c0.55,0,0.824-0.085,0.826-0.253l0.064,4.036h-0.891V121.667L119.583,121.667z M122.382,143.225
		c-0.085,0.359-0.17,1.694-0.254,4.006c-0.403-0.127-0.731-0.147-0.986-0.063v-2.607
		C121.142,143.416,121.556,142.971,122.382,143.225z M122.382,137.883c0.127,0.383,0.191,0.859,0.191,1.433l-0.191,2.353h-1.24
		l0.127-3.783h1.113V137.883z M122.574,133.495c0,0.954-0.043,1.865-0.127,2.733h-1.178v-3.909
		C122.138,132.105,122.574,132.498,122.574,133.495z M121.269,126.977l0.859-0.063c0.615,0.338,0.721,1.663,0.316,3.975h-1.177
		L121.269,126.977L121.269,126.977z M122.447,125.45h-0.923v-3.783C122.796,121.096,123.103,122.355,122.447,125.45z
		 M111.476,120.363h-0.857v-3.91c0.402-0.148,0.773-0.085,1.112,0.189C111.562,118.912,111.476,120.152,111.476,120.363z
		 M114.276,116.453c0.317,0,0.476-0.042,0.476-0.128c0.298,0.086,0.51,0.521,0.638,1.304c0,0.954-0.044,1.781-0.128,2.479h-1.305
		c0-0.698,0.043-1.208,0.127-1.525C114.083,117.502,114.148,116.792,114.276,116.453z M112.303,116.453
		c0.487,0,0.731-0.042,0.731-0.128c0.401,0.34,0.604,1.092,0.604,2.258c0,1.271-0.443,1.865-1.335,1.78V116.453z M118.956,135.889
		c0.042,13.672,0.063,31.202,0.063,52.59c0.084,0.402,0.106,1.038,0.063,1.907c-0.042,1.526-0.063,2.417-0.063,2.671l-0.063,0.857
		c-0.127,0-0.191-0.285-0.191-0.857c-0.085,0.742-0.127,1.505-0.127,2.289c-1.357,0.085-2.883,0.127-4.579,0.127
		c0.127,0.7,0.021,1.273-0.318,1.718c-1.314,0.17-2.957,0.255-4.928,0.255c-0.127,6.485-0.149,10.862-0.064,13.131
		c0,0.129-0.085,0.976-0.254,2.543c-0.212-0.297-0.498-0.381-0.859-0.254c-0.466,0.127-0.614,0.394-0.445,0.795
		c-1.229-0.127-1.95,0.043-2.162,0.51c0.361,0,1.082-0.063,2.162-0.19c2.925-0.085,8.246,0.286,15.961,1.113
		c-1.187,0.401-3.021,0.424-5.5,0.063c-3.222-0.34-5.246-0.509-6.073-0.509v3.91c-3.836,0.528-6.274,0.467-7.313-0.19
		c-0.106,0.424-0.286,0.637-0.541,0.637c-0.127-0.424-0.392-0.637-0.795-0.637c0.361,0.571,0.255,1.008-0.317,1.305
		c-0.127-0.043-0.318-0.191-0.573-0.445c-0.042,0.254-0.202,0.466-0.477,0.637l1.781,0.317v1.653
		c-1.357-0.361-2.597-0.467-3.72-0.318c0-0.232-0.074-0.413-0.222-0.541l-2.607,0.191c-1.039-0.127-1.601-0.402-1.685-0.827
		c-7.758,0-16.131-0.423-25.118-1.271l-0.446,0.667l-0.254,0.129c-1.356-0.17-6.041-0.213-14.053-0.129
		c0.382-2.563,0.382-5.352,0-8.361c3.709-0.57,6.582-0.857,8.616-0.857c1.781-0.127,3.487-0.127,5.12,0
		c0.36-0.127,0.551,0.043,0.572,0.509v-72.59V83.461c0.403,0.127,2.385,0.127,5.946,0c0.211,0.955,0.318,3.656,0.318,8.107
		c-1.696,0-3.635,0.064-5.818,0.191v1.779c1.059,0.043,2.999,0,5.818-0.125v3.466c-1.95,0-3.148,0.042-3.593,0.127
		c-1.483,0-2.225,0.434-2.225,1.303c1.059,0.467,2.999,0.467,5.818,0v3.593c-3.604-0.656-5.543-0.445-5.818,0.637
		c0.572,0.742,2.533,0.858,5.882,0.35c-0.339,0.869-0.36,1.697-0.063,2.48l-3.18-0.063c-1.526,0-2.406,0.435-2.639,1.303
		c1.271,0.382,3.232,0.382,5.882,0c0.106,0.255,0.085,1.082-0.063,2.48c-2.269,0.126-4.133,0.126-5.596,0
		c0,0.444-0.074,0.837-0.222,1.176c1.102,0.339,3.063,0.339,5.882,0v2.29c-0.17,0.084-1.271,0.127-3.307,0.127
		c-1.717-0.127-2.575,0.266-2.575,1.176c1.271,0.488,3.232,0.488,5.882,0v2.416c-0.17,0.085-1.389,0.127-3.657,0.127
		c-1.568-0.127-2.31,0.16-2.225,0.859c0.932,0.869,2.893,0.975,5.882,0.316v2.607l-3.53-0.127c-1.42-0.17-2.13,0.201-2.13,1.111
		c1.124,0.488,3.01,0.488,5.66,0v2.607c-0.912,0-2.13-0.064-3.657-0.189c-1.335,0-2.003,0.434-2.003,1.303
		c1.378,0.529,3.265,0.529,5.66,0v2.513c-0.085,0.042-1.261-0.011-3.53-0.159c-1.42-0.17-2.13,0.318-2.13,1.463
		c1.25,0.17,3.137,0.17,5.66,0c0.19,0.637,0.19,1.463,0,2.48c-3.688-0.827-5.575-0.499-5.66,0.984
		c0.827,0.339,2.809,0.445,5.945,0.316c-0.042,0.743-0.042,1.508,0,2.29c-3.921,0.339-5.903,0.531-5.945,0.573
		c0.042,0.041,0.063,0.105,0.063,0.189c0,0.147-0.021,0.224-0.063,0.224c0.742,0.551,2.724,0.657,5.945,0.317v2.289
		c-3.222,0.297-4.928,0.233-5.119-0.19c-0.212,0.128-0.36,0.254-0.445,0.382c-0.254,0.255-0.36,0.563-0.318,0.922
		c0.509,0.338,2.47,0.445,5.882,0.317v2.481h-5.882v0.922c0.636,0.338,2.597,0.401,5.882,0.188v4.453l-5.055,0.126
		c0.148,0,0.222-0.105,0.222-0.318c-0.444-0.402-0.752-0.466-0.921-0.189c-0.127,0.17-0.17,0.731-0.127,1.686
		c0.742,0.445,2.703,0.487,5.882,0.127v2.48c-2.882-0.086-4.737,0.031-5.564,0.35c-0.297,0.212-0.297,0.467,0,0.764
		c0.381,0.275,2.236,0.338,5.564,0.189c0.085,0,0.128,0.266,0.128,0.795c0,0.658-0.043,1.251-0.128,1.78
		c-3.709-0.849-5.564-0.571-5.564,0.827c0.615,0.402,2.47,0.52,5.564,0.35c0.085,0.086,0.128,0.359,0.128,0.827
		c0,0.655-0.043,1.208-0.128,1.653c-3.222-0.53-5.076-0.383-5.564,0.443c0.297,1.188,2.152,1.357,5.564,0.51
		c0.085,0.233,0.128,0.604,0.128,1.113c0,0.571-0.043,1.061-0.128,1.463c-3.179-0.488-5.034-0.275-5.564,0.635
		c0.424,1.146,2.279,1.367,5.564,0.668c0.085,0.043,0.191,0.275,0.318,0.699c0,0.742-0.063,1.336-0.19,1.781
		c-3.053-0.486-4.95-0.382-5.692,0.316c0,0.785,0.763,1.156,2.29,1.113l3.274-0.254c0.043,0.043,0.149,0.35,0.318,0.922
		c0,0.551-0.063,1.049-0.19,1.494l-3.275-0.128c-1.653,0-2.374,0.437-2.162,1.304c0.742,0.297,2.554,0.34,5.437,0.127
		c0,0.998-0.043,1.824-0.128,2.48c-1.441-0.084-3.211-0.084-5.309,0v1.113c0.699,0.169,2.511,0.212,5.437,0.126v2.479h-5.437v0.985
		c0.996,0.403,2.809,0.468,5.437,0.19v2.416c-3.795-0.635-5.607-0.265-5.437,1.113c0.784,0.19,2.596,0.213,5.437,0.064v2.638h-5.374
		l-0.063,0.638c0.657,0.656,2.469,0.815,5.437,0.477c0.127,0.085,0.19,0.359,0.19,0.826c0,0.658-0.063,1.209-0.19,1.652h-5.374
		v0.892c1.102,0.444,2.894,0.52,5.374,0.223c0.254,0.827,0.254,1.654,0,2.479c-3.456-0.656-5.247-0.285-5.374,1.113
		c0.827,0.17,2.703,0.211,5.627,0.127v2.606c-3.625-0.783-5.5-0.498-5.627,0.858c1.145,0.381,2.936,0.445,5.374,0.19
		c0.169,0.212,0.254,0.521,0.254,0.922v1.494c-3.625-0.657-5.5-0.328-5.627,0.986c1.356,0.424,3.232,0.487,5.627,0.19v2.543h-5.5
		v1.051c1.145,0.254,2.978,0.295,5.5,0.125v4.707c-2.84-0.127-4.674-0.127-5.5,0v0.856c0.827,0.468,2.66,0.616,5.5,0.446v2.479
		c-1.081-0.127-1.738-0.084-1.971,0.127v0.668c0,0.531,0.657,0.657,1.971,0.383v2.416c-1.039-0.127-1.696-0.127-1.971,0v1.112
		c0.529,0.275,1.377,0.414,2.543,0.414v-53.29c-0.127-0.783-0.19-1.939-0.19-3.465v-22.193v-6.867
		c0-21.452-0.212-38.06-0.636-49.824c0.551-0.169,0.922,0.158,1.113,0.986h5.277c0.085,0.955,0.128,3.656,0.128,8.107h-5.405
		l-0.287,1.846h5.692v3.909c-3.434-0.127-5.332-0.063-5.692,0.191c0.318,1.038,2.215,1.304,5.692,0.794v3.593
		c-2.862-0.36-4.664-0.36-5.405,0v0.636c0.742,0.53,2.639,0.647,5.691,0.351c0,1.442-0.095,2.269-0.286,2.479
		c-2.777-0.361-4.579-0.211-5.405,0.445v0.316c0.869,0.445,2.671,0.563,5.405,0.351c0.19,0.34,0.286,1.209,0.286,2.608
		c-3.009-0.488-4.907-0.426-5.691,0.189c0.211,0.869,1.081,1.239,2.607,1.113c1.738-0.297,2.767-0.34,3.084-0.127
		c-0.063,0.296-0.159,1.166-0.286,2.607c-2.48-0.34-4.261-0.34-5.342,0v0.922c1.865,0.211,3.646,0.211,5.342,0
		c0.19,0.041,0.286,0.328,0.286,0.858c0.085,0.211,0.106,0.487,0.064,0.827c-0.042,0.572-0.064,0.879-0.064,0.921
		c-3.009-0.253-4.886-0.231-5.627,0.063c0.127,1.526,2.003,1.896,5.627,1.112v2.607c-3.455-0.638-5.331-0.456-5.627,0.54
		c0.551,0.742,2.427,0.891,5.627,0.445v2.606c-3.052-0.296-4.928-0.181-5.627,0.351c0.339,0.211,0.339,0.317,0,0.317
		c0.7,0.699,2.575,0.849,5.627,0.444v2.703c-1.759-0.127-2.872-0.19-3.339-0.19c-1.441-0.147-2.162,0.126-2.162,0.827
		c1.082,0.443,3,0.604,5.755,0.477c-0.275,0.383-0.36,1.25-0.254,2.606c-3.794-0.36-5.627-0.095-5.5,0.796
		c0.996,0.169,2.83,0.189,5.5,0.063v2.735c-2.713-0.571-4.546-0.424-5.5,0.445c0.615,0.868,2.448,1.048,5.5,0.54
		c0.085,0.085,0.17,0.359,0.254,0.826v1.653c-0.084,0.128-1.07,0.128-2.957,0c-1.399-0.17-2.225,0.116-2.48,0.857
		c-0.042,0.044-0.064,0.085-0.064,0.128c0.742,0.508,2.491,0.551,5.247,0.127c0.17,0.297,0.254,1.229,0.254,2.799
		c-2.628-0.171-4.462-0.171-5.501,0c0.212,0.91,1.061,1.281,2.544,1.111c1.696-0.17,2.682-0.17,2.957,0
		c-0.084,2.564-0.084,4.091,0,4.578c-2.925-0.125-4.673-0.125-5.246,0v1.113c0.657,0.529,2.406,0.551,5.246,0.063
		c-0.084,0.827-0.084,1.696,0,2.606c-3.37-0.51-5.119-0.287-5.246,0.668c0.657,0.953,2.406,1.103,5.246,0.444
		c0.127,0.36,0.127,1.282,0,2.767c-2.755-0.274-4.504-0.254-5.246,0.063l0.127,0.763c0.975,0.36,2.724,0.479,5.246,0.351
		c-0.487,0.868-0.487,1.579,0,2.131c-0.402,0.274-1.43,0.317-3.084,0.127c-1.441,0-2.162,0.371-2.162,1.112
		c1.399,0.318,3.148,0.34,5.246,0.063c-0.127,0.615-0.127,1.474,0,2.577c-2.882-0.488-4.631-0.275-5.246,0.635
		c0.445,0.827,2.194,1.051,5.246,0.668c-0.127,0.699-0.127,1.525,0,2.48c-0.996-0.086-2.13-0.128-3.401-0.128
		c-1.357,0-1.972,0.327-1.844,0.985c0.975,0.34,2.724,0.444,5.246,0.317c-0.084,0.297-0.127,1.166-0.127,2.606
		c-3.137-0.656-4.843-0.393-5.119,0.795c0.572,0.467,2.32,0.529,5.246,0.19v2.546c-0.487,0.168-1.398,0.188-2.734,0.063
		c-1.484-0.084-2.247,0.115-2.289,0.604c0.636,0.869,2.31,1.038,5.023,0.51v2.605l-5.373,0.191c0,0.529,1.791,0.794,5.373,0.794
		v2.606c-3.052-0.338-4.727-0.053-5.023,0.859c0.508,0.4,2.183,0.486,5.023,0.254v2.702l-3.02-0.224c-0.7,0-1.155,0.074-1.367,0.224
		c-0.254,0.17-0.382,0.489-0.382,0.954c1.484,0.316,3.031,0.316,4.642,0c0.297,0,0.339,0.879,0.127,2.639l-4.769,0.255
		c0.339,0.339,0.339,0.511,0,0.511c0.7,0.697,2.353,0.815,4.96,0.349c-0.127,0.636-0.191,1.462-0.191,2.479h-2.829
		c-1.251-0.043-1.876,0.328-1.876,1.112c0.657,0.171,2.29,0.212,4.897,0.128v2.605c-2.268-0.444-3.9-0.381-4.897,0.191
		c0.127,0.318,0.127,0.497,0,0.54c0.615,0.552,2.248,0.657,4.897,0.318v2.416c-0.085,0.086-0.35,0.106-0.795,0.063
		c-0.869-0.043-1.473-0.063-1.813-0.063c-1.484-0.127-2.141,0.2-1.971,0.985c0.954,0.424,2.479,0.487,4.579,0.19v2.543
		c-0.17,0.086-1.039,0.086-2.607,0c-1.314,0-1.971,0.351-1.971,1.052c0.699,0.295,2.226,0.338,4.579,0.125
		c0.042,1.272,0.042,2.842,0,4.706h-4.515c0.212,0.911,0.784,1.367,1.717,1.367l2.798-0.19v2.606
		c-2.056-0.297-3.561-0.181-4.515,0.351c0.572,1.082,2.078,1.252,4.515,0.51v2.732h-2.798c-1.145,0-1.717,0.287-1.717,0.858
		c0.127,0.085,1.632,0.022,4.515-0.19h1.113c-0.042-16.682-0.148-34.412-0.318-53.193c-0.085-7.101-0.181-14.318-0.286-21.652
		c0-0.996,0-2.014,0-3.052c-0.043-0.869-0.064-1.748-0.064-2.64v-8.014c-0.084-2.967-0.127-6.982-0.127-12.05
		c0-0.636,0-1.304,0-2.003l-0.318-32.178l0.667,0.985c1.95,0,3.562-0.063,4.833-0.19c0.127,2.883,0.169,5.83,0.127,8.84h-0.127
		c-0.191,0.508-0.392,0.762-0.604,0.762c-0.085-0.74-1.495-1.111-4.229-1.111l0.445,1.653c0.339,0,1.823,0.042,4.451,0.126
		c0.254,5.321,0.339,10.673,0.254,16.057c-0.042,1.399-0.084,2.799-0.127,4.197c-0.36-0.529-0.71-0.795-1.049-0.795
		c-2.057-0.508-3.275-0.393-3.657,0.352l-0.063,0.443l0.636-0.127c1.357,0,2.734,0.064,4.134,0.191
		c0.338,2.098,0.424,4.431,0.254,6.994c-0.911-0.297-1.59-0.465-2.035-0.508c-1.124-0.149-1.887,0.021-2.29,0.508
		c0.827,0.572,2.269,0.679,4.324,0.317v3.595c-0.296-0.426-1.081-0.638-2.353-0.638h-2.226c0.53,0.615,2.056,0.869,4.578,0.763
		c0.36,1.719,0.276,2.832-0.254,3.34c-0.869-1.08-2.459-1.146-4.77-0.19c0.912,0.699,1.367,0.699,1.367,0
		c0.169,0.445,1.261,0.667,3.275,0.667h0.381v10.652c-0.614-0.615-1.833-0.838-3.656-0.668c0.254,0.316,0.604,0.539,1.049,0.668
		c0.657,0.212,1.526,0.254,2.607,0.127v9.348c-0.424-0.954-1.378-1.134-2.861-0.54c0.911,0.36,0.911,0.54,0,0.54
		c0.212,0.51,1.166,0.614,2.861,0.318h0.191l0.063,3.91c0.126,1.654-0.043,2.746-0.509,3.274c0.254-0.339,0.095-0.509-0.478-0.509
		l-1.685-0.127c0.085,0.678,0.763,0.932,2.035,0.763h0.573v3.274l-1.24-0.317c-0.742-0.127-1.176,0.085-1.304,0.636
		c0.784,0.233,1.632,0.297,2.544,0.19v7.155c-0.255-0.573-0.997-0.795-2.226-0.668c0,0.381,0.679,0.668,2.035,0.857
		c0.127,0.127,0.255,0.19,0.381,0.19c-0.126,0.297-0.19,1.388-0.19,3.274c-0.828-0.975-1.547-0.975-2.162,0l2.162,0.254l0.19,0.063
		c-0.126,8.925-0.126,22.841,0,41.747l-0.19-0.127v0.127c-0.509-0.508-0.923-0.508-1.24,0c0.084,0.148,0.561,0.225,1.43,0.225v0.443
		c-1.25-0.296-2.162-0.338-2.734-0.127l2.607,0.51l1.653,0.127c0.297,0.105,0.752,0.158,1.368,0.158l3.911,0.064l-1.685-0.668
		v-0.191c0-0.486-0.18-0.965-0.541-1.432c-1.526,0-2.395,0.213-2.607,0.637c0.53,0.359,0.403,0.626-0.382,0.795
		c-0.487-11.85-0.646-29.23-0.477-52.145c0-4.366,0-8.555,0-12.56c0-3.308-0.021-6.509-0.063-9.603
		c-0.042-9.729-0.17-18.272-0.382-25.627c-0.084-1.611-0.148-3.159-0.19-4.643c0.042-6.677,0.042-12.337,0-16.979
		c-0.042-3.711-0.127-6.764-0.254-9.158l-1.653,0.126c0-0.401-0.085-0.604-0.254-0.604c-1.526-0.084-2.904-0.146-4.133-0.19
		c-1.323-0.041-2.479-0.063-3.466-0.063h-0.254c-1.993-0.086-3.296-0.063-3.911,0.063c0-0.253-0.021-0.466-0.063-0.636
		c-0.085-0.275-0.19-0.456-0.318-0.541c-0.402,0.17-0.731,0.308-0.985,0.414c-0.742,0.17-1.24,0.17-1.494,0
		c-0.148-0.106-0.223-0.243-0.223-0.414c-0.339,0.361-0.858,0.583-1.558,0.668c-3.392,0.084-5.851,0.255-7.377,0.508
		c-2.755,0.128-5.087,0.626-6.995,1.495c-0.912,0.847-1.484,1.272-1.717,1.272c0.361-1.188,2.025-2.109,4.992-2.768
		c1.081-0.253,2.205-0.487,3.37-0.699c3.201-0.572,6.625-0.922,10.271-1.049c4.196-0.191,8.691-0.063,13.481,0.381
		c1.166,0.085,2.364,0.19,3.593,0.318c0.212,0,0.424,0.021,0.636,0.063c0.402,0.234,0.646,0.128,0.731-0.317
		c0.826,0.487,1.982,0.92,3.465,1.303c1.293,0.17,2.289,0.646,2.989,1.431c0,0.445-0.191,0.892-0.572,1.337
		c0.424,0.678,0.774,1.069,1.05,1.176c0.039,3.092,0.082,6.155,0.124,9.209c0,3.328,0.042,6.666,0.127,10.016
		c0.212,21.96,0.52,44.09,0.922,66.389c0.869,0.445,2.066,0.51,3.593,0.19l-0.859,0.479c-1.039,0.38-1.695,0.486-1.971,0.317
		c0,0.988-0.148,1.488-0.445,1.492c0.441,0,0.664-0.096,0.667-0.284v1.081c0.678,0,1.134,0.266,1.367,0.794
		c0.212-0.401,0.127-0.71-0.254-0.923c-0.53-0.401-0.795-0.729-0.795-0.984c0.17,0.043,0.297,0.021,0.382-0.063
		c0.084,0.041,0.328,0.146,0.731,0.316c0.466,0.233,1.006,0.412,1.621,0.54c-0.127-0.212-0.498-0.478-1.113-0.795
		c-0.381,0-0.657-0.104-0.827-0.317c-0.106,0-0.159-0.105-0.159-0.317c0.657,0.508,0.986,0.286,0.986-0.668
		c0.17,0.043,0.912,0.021,2.226-0.064c-0.169,0.341-0.381,0.511-0.636,0.511c0.212,0.571,0.774,0.467,1.686-0.317
		c0.127,0.571,0.233,0.858,0.318,0.858c0.042,0.041,0.159-0.139,0.349-0.541c0.339,2.629,0.446,6.401,0.318,11.317l-0.063,5.692
		c-1.844-0.402-3.911-0.383-6.201,0.063c0.255-0.127,0.361-0.412,0.319-0.857h-1.114c0.17,0.127,0.255,0.435,0.255,0.922
		l-0.255,0.064c0.17,0.211,1.633,0.432,4.388,0.666c2.163,0.127,4.579,0.127,7.25,0l3.656-0.223
		c0.254-0.085,0.562-0.127,0.922-0.127l0.127-2.162c-0.127-0.594-0.127-1.305,0-2.131l-0.127-50.077 M117.335,136.269l-0.064-20.254
		v-4.959c0.509,0.741,0.53,1.239,0.064,1.495l1.431,0.316c0,0.785,0.021,1.59,0.063,2.418c0.043,5.446,0.085,12.314,0.127,20.604
		 M57.529,133.725c0.254-0.043,0.562-0.085,0.922-0.128c-0.148,0.043-0.222,0.688-0.222,1.938c-0.297,0.19-0.615,0.33-0.954,0.414
		c-0.148,0.043-0.286,0.084-0.413,0.127c0-1.229-0.063-1.99-0.191-2.287C56.84,133.789,57.127,133.768,57.529,133.725z
		 M56.671,137.381c0.742,0.128,1.113,0.021,1.113-0.317c0.657,0.126,0.721,0.892,0.191,2.289c-0.127-0.043-0.562-0.043-1.304,0
		V137.381z M57.402,132.104c-0.191,0.084-0.286,0.211-0.286,0.38c-0.084,0-0.233-0.72-0.445-2.161
		c0.169-0.084,0.35-0.127,0.541-0.127c0.339-0.127,0.679-0.189,1.018-0.189v2.099C57.847,131.996,57.571,131.996,57.402,132.104z
		 M57.052,128.701c-0.085,0.043-0.148,0.084-0.191,0.129c0-1.188-0.063-1.889-0.191-2.102c0.084-0.041,0.148-0.063,0.191-0.063
		c0.445-0.211,0.752-0.338,0.922-0.381c0.657,0,0.721,0.806,0.191,2.416C57.55,128.658,57.243,128.658,57.052,128.701z
		 M56.671,123.582c-0.043-0.086-0.085-0.129-0.127-0.129c0-0.084,0.042-0.146,0.127-0.189c0.169-0.212,0.763-0.36,1.78-0.445
		c-0.148,0.085-0.222,0.732-0.222,1.94c-0.679,0-1.134,0.222-1.367,0.667C56.946,124.43,56.883,123.815,56.671,123.582z
		 M59.278,136.871v-0.158c0.36,0.063,1.537,0.043,3.529-0.063v0.859v1.493c-0.509-0.084-1.685-0.031-3.529,0.158V136.871z
		 M64.111,137.699l-0.064-1.177c1.929-0.212,3.572-0.317,4.929-0.317v2.1v0.316c-1.972-0.127-3.593,0-4.865,0.381V137.699z
		 M63.856,143.39c-0.084,0.128-0.296,0.19-0.636,0.19c0.128-0.422,0.212-0.752,0.255-0.984l0.572-2.605l4.929-0.064v2.354
		c-2.459,0.168-4.081,0.211-4.865,0.127C64.301,142.893,64.216,143.221,63.856,143.39z M62.553,94.361v3.625
		c-1.526,0.34-2.682,0.508-3.466,0.508v-3.465C60.041,95.029,61.196,94.808,62.553,94.361z M63.856,97.986l-0.19-3.751L68.88,93.6
		v3.72C66.231,97.318,64.556,97.541,63.856,97.986z M58.229,121.164c-0.594-0.127-1.113,0.033-1.558,0.479
		c-0.085-0.529-0.127-1.23-0.127-2.1c0.657,0,1.219-0.158,1.686-0.477L58.229,121.164L58.229,121.164z M56.543,116.142
		c0.657-0.17,1.071-0.394,1.24-0.668c0.615,0.147,0.678,0.912,0.191,2.289c-0.827,0.487-1.304,0.53-1.431,0.127V116.142z
		 M56.543,112.357c0.445,0.127,1.007,0.012,1.686-0.35v1.844c-0.827,0.445-1.389,0.594-1.686,0.445V112.357z M56.543,109.084
		c0.742-0.616,1.261-0.816,1.558-0.604c0.318,0.233,0.36,0.826,0.127,1.781c-0.869,0.127-1.325,0.392-1.367,0.795
		C56.734,110.609,56.628,109.953,56.543,109.084z M58.229,103.328c-0.784,0.043-1.304,0.287-1.558,0.73l-0.127-3.273
		C57.9,99.873,58.462,100.721,58.229,103.328z M57.211,105.935v-0.127c0.254-0.254,0.382-0.403,0.382-0.444
		c-0.403,0.127-0.646,0.274-0.731,0.444L57.211,105.935z M56.543,105.3c0.255-0.084,0.668-0.308,1.24-0.668
		c0.572,0.042,0.721,0.827,0.445,2.353c-0.742,0.213-1.304,0.318-1.686,0.318L56.543,105.3L56.543,105.3z M63.856,129.019
		c0.53,0.086,2.237,0.042,5.12-0.127v2.416c-2.057,0.128-3.699,0.171-4.929,0.128C64.132,130.48,64.068,129.676,63.856,129.019z
		 M62.807,125.617v1.971c-1.335,0-2.512,0.191-3.529,0.572c0.275-0.869,0.233-1.567-0.127-2.1
		C60.338,126.061,61.557,125.912,62.807,125.617z M62.807,122.023c0,1.399-0.085,2.162-0.254,2.289
		c-0.382-0.127-1.516,0.021-3.402,0.446v-2.29C59.426,122.385,60.645,122.235,62.807,122.023z M64.047,124.121
		c-0.127-0.74-0.191-1.504-0.191-2.289l4.769-0.316c0.17,0.084,0.33,0.339,0.478,0.762l-0.223,1.846
		C67.311,123.996,65.7,123.996,64.047,124.121z M64.047,128.033c-0.212-0.572-0.275-1.379-0.191-2.416
		c2.184-0.297,3.89-0.359,5.12-0.19l-0.096,2.162C65.7,127.588,64.089,127.736,64.047,128.033z M62.807,118.367v2.354
		c-1.166-0.127-2.342,0.021-3.529,0.445c-0.085-0.127-0.127-0.934-0.127-2.418c0.445,0.043,1.018,0.021,1.717-0.063
		C61.291,118.644,61.938,118.537,62.807,118.367z M62.426,111.055c0.339,0,0.381,0.763,0.127,2.29
		c-1.569-0.149-2.66,0.021-3.275,0.508c0-1.229-0.042-1.951-0.127-2.162C60.465,111.393,61.557,111.182,62.426,111.055z
		 M63.856,113.662c0.276-1.314,0.212-2.121-0.19-2.418c0.657-0.486,2.31-0.731,4.959-0.731c0.276,0.128,0.361,0.955,0.255,2.479
		C65.848,113.121,64.174,113.345,63.856,113.662z M62.807,99.289v3.244l-3.657,0.668c-0.042-1.972-0.042-3.063,0-3.275
		C59.765,99.926,60.984,99.715,62.807,99.289z M68.88,103.328v2.479c-2.819,0-4.494,0.106-5.024,0.317l-0.19-2.607
		C64.408,103.836,66.146,103.772,68.88,103.328z M68.88,98.75v3.274c-1.695,0.127-2.819,0.212-3.37,0.254
		c-0.933,0.044-1.547,0.021-1.844-0.063v-3.054C64.98,98.93,66.717,98.791,68.88,98.75z M59.564,132.104
		c0.17-1.271,0.032-1.973-0.413-2.1c0.276-0.317,1.495-0.541,3.657-0.668c0,1.313-0.085,2.076-0.254,2.289
		C62.256,131.33,61.26,131.488,59.564,132.104z M60.454,135.537c-0.212,0.064-0.604,0-1.176-0.189v-2.066
		c1.441,0,2.618-0.117,3.529-0.351c0.127,0.36,0.042,1.123-0.254,2.289c-0.7-0.339-1.42-0.339-2.162,0
		C60.624,135.388,60.645,135.494,60.454,135.537z M56.862,160.91h1.367v2.1c-0.424,0-0.88,0.105-1.367,0.316V160.91z
		 M58.229,157.316v2.29h-1.367v-1.845C56.946,157.168,57.402,157.02,58.229,157.316z M56.862,156.141v-2.29
		c0.912-0.297,1.367,0.425,1.367,2.163C57.974,155.928,57.519,155.971,56.862,156.141z M59.564,156.014
		c0-1.146-0.095-1.93-0.286-2.354c1.06-0.17,2.236-0.254,3.529-0.254c0.19,0.637,0.19,1.323,0,2.066v0.222
		C60.815,155.588,59.734,155.695,59.564,156.014z M59.278,152.357v-2.417c0.445,0.085,1.717,0.042,3.815-0.127l-0.096,0.317
		c-0.127,0.212-0.19,0.869-0.19,1.972C61.896,152.272,60.719,152.357,59.278,152.357z M57.974,152.42h-1.113
		c0-1.696,0.456-2.459,1.367-2.289L57.974,152.42z M58.229,147.65c0.233,0.129,0.211,0.34-0.064,0.637
		c-0.338,0.36-0.689,0.541-1.049,0.541c-0.169-0.275-0.254-0.604-0.254-0.984h0.254c0.36,0.21,0.625,0.273,0.795,0.189
		c0.127-0.086,0.148-0.255,0.063-0.509C58.101,147.524,58.186,147.566,58.229,147.65z M61.122,147.524
		c-0.085,0.298,0.021,0.444,0.317,0.444l-1.876,0.445c0-2.564-0.095-4.061-0.286-4.483c0.911,0.128,2.087,0.106,3.529-0.063
		c0.19,0.383,0.19,1.525,0,3.435C61.811,146.961,61.249,147.037,61.122,147.524z M56.862,144.377
		c0.742,0.211,1.113,0.168,1.113-0.129c0.402,0.213,0.561,1.229,0.477,3.053c-0.19-1.379-0.498-2.131-0.922-2.258
		c-0.275,0.955-0.413,1.824-0.413,2.606C56.946,147.524,56.862,146.433,56.862,144.377z M59.278,142.945v-2.353
		c1.314-0.171,2.342-0.255,3.084-0.255c0.699,0.127,0.848,0.88,0.445,2.258C60.581,142.787,59.404,142.904,59.278,142.945z
		 M56.671,140.783c0.488,0.17,1.007,0.127,1.558-0.127v2.289c-0.551-0.17-1.07-0.17-1.558,0V140.783z M68.976,132.611v2.29
		c-2.311,0.339-3.646,0.298-4.007-0.128c0,0.255-0.371,0.445-1.113,0.573c-0.169-0.997-0.105-1.847,0.191-2.544L68.976,132.611z
		 M59.278,160.91c0.869-0.254,2.141-0.274,3.815-0.063c-0.191,1.399-0.286,2.12-0.286,2.163c-0.997,0.296-1.368,0.189-1.113-0.318
		l-2.131,0.318C59.776,161.863,59.681,161.162,59.278,160.91z M63.411,157.316c0.169,0,0.318,0.52,0.445,1.559
		c0.53-0.424,0.594-1.069,0.191-1.938h5.246v2.353h-3.211c-1.272,0-1.95,0.318-2.035,0.953c0.7,0.36,2.448,0.479,5.246,0.351v2.228
		l-5.246,0.19c0.275-1.399,0.212-2.205-0.191-2.418v2.735c0,1.313,0.063,2.226,0.191,2.733v2.035v1.78
		c0.191-0.361,0.287-0.688,0.287-0.985c0-0.528-0.096-0.795-0.287-0.795c0.742-0.255,2.512-0.317,5.31-0.19
		c-0.127,1.229-0.148,2.055-0.064,2.479h-5.182v0.986c0.826,0.297,2.575,0.338,5.246,0.125c-0.254,0.531-0.275,1.358-0.064,2.481
		c-1.06-0.042-2.691-0.042-4.896,0c-0.042,0.317-0.138,0.731-0.286,1.239h5.246l-0.064,2.48h-4.896
		c-0.191,0.529-0.286,0.922-0.286,1.176h5.246l-0.064,2.416l-4.769-0.127l-0.413,1.306h5.246l-0.064,2.638
		c-2.628-0.042-4.356-0.042-5.182,0v0.954c0.784,0.233,2.532,0.286,5.246,0.159l-0.064,2.479c-2.183-0.146-3.773-0.222-4.769-0.222
		c-0.742,0.444-0.88,1.06-0.413,1.845c0.233-0.658,1.982-0.828,5.246-0.51v2.479l-4.96-0.063c0,0.297-0.096,0.689-0.286,1.178
		c0.742,0.17,2.491,0.211,5.246,0.127v2.606c-2.311-0.572-3.964-0.572-4.96,0v0.858c1.081,0.34,2.734,0.402,4.96,0.19v2.416
		c-2.968-0.782-4.621-0.571-4.96,0.638c0.381,0.848,2.035,1.026,4.96,0.539l-0.064,2.543l-4.896-0.127v0.859
		c0.996,0.424,2.649,0.572,4.96,0.443v4.451c-2.226-0.359-3.974-0.424-5.246-0.188l-0.445,0.188v-19.141
		c-0.169-1.271-0.169-2.471,0-3.593c-0.127-0.892-0.19-2.162-0.19-3.815L63.411,157.316z M63.411,148.287h0.064
		c0.381,0,0.572,0.181,0.572,0.541c-0.084,0.041-0.191,0.297-0.318,0.764l-0.063,0.223v-0.064
		C63.666,149.644,63.581,149.156,63.411,148.287z M69.293,149.591l-0.317,2.161h-3.339c-1.229,0-1.759,0.479-1.59,1.432
		c0.657,0.232,2.406,0.232,5.246,0v2.447c-3.307,0.085-5.055,0.105-5.246,0.063c0,0.636-0.063,1.05-0.191,1.24l-0.19,0.19
		c-0.297-0.742-0.446-1.293-0.446-1.652c0-0.467,0.149-1.009,0.446-1.623c0.254,0.445,0.381,1.039,0.381,1.779
		c0.085-0.613,0.085-1.25,0-1.906c-0.127-0.042-0.191-0.148-0.191-0.316c-0.466-1.062-0.614-2.066-0.445-3.021
		c0.169,0.169,0.254,0.74,0.254,1.717c0.042-0.572,0.169-1.335,0.381-2.289L69.293,149.591z M64.047,143.867l5.246-0.285
		c0,1.61-0.106,3.074-0.317,4.388c-3.498-0.126-5.268-0.17-5.31-0.126C64.153,146.4,64.28,145.076,64.047,143.867z M59.819,208.635
		v-4.578l3.275,0.318v2.925h-1.59c-0.042,0.741,0.488,1.112,1.59,1.112C62.775,208.984,61.684,209.059,59.819,208.635z
		 M59.819,202.529v-2.064c1.25,0,2.342,0.042,3.275,0.127v2.287C61.525,203.22,60.433,203.103,59.819,202.529z M60.391,206.854
		c-0.127,0.043-0.127,0.244,0,0.604c0.233,0.638,0.477,0.563,0.731-0.222C60.761,206.939,60.518,206.812,60.391,206.854z
		 M58.833,206.789c0.169,0,0.275-0.041,0.318-0.125l0.127,0.793c-0.127,0.299-0.276,0.447-0.445,0.447V206.789z M57.116,203.707
		h0.477c0.084,0.188,0.105,0.477,0.063,0.856c-0.042,0.658-0.063,1.029-0.063,1.112c-0.043,0.572,0.244,0.9,0.858,0.986
		c-0.233,0.381-0.307,0.857-0.222,1.432c-0.381-0.128-0.721-0.189-1.018-0.189C57.105,205.379,57.073,203.982,57.116,203.707z
		 M59.819,198.11c-0.042-0.401-0.042-0.815,0-1.239c0.254,0.084,1.346,0.127,3.275,0.127c0,1.484-0.096,2.311-0.286,2.479
		c-1.442,0.127-2.396,0.021-2.862-0.317C59.861,199.011,59.819,198.662,59.819,198.11z M57.116,200.05l1.335,0.413
		c-0.233,0.382-0.307,1.07-0.222,2.066h-1.018C57.105,201.11,57.073,200.283,57.116,200.05z M59.151,197.983l-0.063,1.621
		c-0.169-0.698-0.254-1.42-0.254-2.161c0.297-0.128,0.445,0.053,0.445,0.54C59.278,198.067,59.236,198.067,59.151,197.983z
		 M58.514,197.315c0,0.529-0.095,1.027-0.286,1.494c-0.742,0.127-1.113-0.593-1.113-2.161c0.318-0.086,0.763-0.011,1.335,0.223
		L58.514,197.315z M57.116,193.055h1.335c-0.148,0.359-0.222,1.166-0.222,2.416C57.487,195.578,57.116,194.771,57.116,193.055z
		 M59.564,195.535c0.17-0.297,0.255-1.008,0.255-2.131h2.989c0.19,0.129,0.286,0.446,0.286,0.954c0,0.658-0.096,1.166-0.286,1.526
		L59.564,195.535z M58.451,189.588c-0.148,0.488-0.222,1.271-0.222,2.354c-0.424-0.213-0.795-0.276-1.113-0.19v-2.288
		C57.688,189.463,58.133,189.504,58.451,189.588z M56.862,186.219c0.085-0.402,0.541-0.456,1.367-0.159
		c0.19,0.276,0.19,1.019,0,2.228c-0.339-0.383-0.71-0.426-1.113-0.129C57.221,186.951,57.137,186.304,56.862,186.219z
		 M57.116,182.404c0.487-0.085,0.933-0.063,1.335,0.063c-0.148,0.444-0.222,1.146-0.222,2.098h-1.113
		C56.946,183.781,56.946,183.061,57.116,182.404z M56.862,178.873h1.589c-0.233,0.785-0.307,1.547-0.222,2.289h-1.113
		C57.116,180.338,57.031,179.574,56.862,178.873z M56.862,175.217c0.912,0,1.441,0.021,1.589,0.064
		c-0.148,0.317-0.222,1.08-0.222,2.288h-1.113C56.946,176.701,56.862,175.916,56.862,175.217z M58.451,171.815
		c-0.148,0.085-0.222,0.784-0.222,2.101h-1.113c-0.169-0.383-0.254-1.084-0.254-2.101H58.451z M56.862,164.629
		c1.399-0.784,1.77-0.021,1.113,2.289c-0.509,0-0.88-0.063-1.113-0.189V164.629z M56.862,168.096h1.589
		c-0.148,0.212-0.222,0.975-0.222,2.288c-0.509,0.086-0.965,0.022-1.367-0.189V168.096z M63.093,182.468
		c0,1.44-0.096,2.319-0.286,2.638l-3.244-0.223c0.382-0.51,0.382-1.314,0-2.415H63.093z M63.093,186.219v2.066
		c-1.802-0.129-2.894-0.129-3.275,0v-2.227C60.03,186.06,61.122,186.113,63.093,186.219z M63.093,189.812v2.416l-3.275-0.285v-2.354
		C61.344,189.588,62.436,189.662,63.093,189.812z M63.093,178.873c0,0.742-0.096,1.547-0.286,2.416
		c-1.611-0.082-2.608-0.127-2.989-0.127l-0.255-2.289H63.093z M62.807,171.496c0.127,0.129,0.19,0.416,0.19,0.859
		c0,0.657-0.063,1.198-0.19,1.622c-1.335-0.212-2.332-0.212-2.989,0l-0.255-2.481H62.807z M62.807,175.217
		c0.19,0.275,0.286,0.668,0.286,1.177c0,0.53-0.096,0.965-0.286,1.304l-2.989-0.127c-0.169-0.254-0.255-1.037-0.255-2.354H62.807z
		 M63.093,169.336c0,0.445-0.096,0.795-0.286,1.048c-1.442,0.128-2.523,0.065-3.244-0.189v-2.099
		C61.642,168.053,62.818,168.467,63.093,169.336z M63.093,165.615c0,0.445-0.096,0.816-0.286,1.113h-3.244v-2.417
		C61.642,164.185,62.818,164.619,63.093,165.615z M69.293,164.185l0.064,0.765l-0.064,1.652c-1.271,0.084-2.554,0.127-3.847,0.127
		c-0.572,0-1.017-0.223-1.335-0.668c-0.043-0.509-0.043-1.135,0-1.876H69.293z M123.158,148.637c0-1.398-0.021-5.998-0.063-13.801
		c-0.063-5.53-0.138-12.674-0.222-21.43 M115.007,109.66v76.754 M126.622,177.572l-0.095-43.72l-0.063-21.907 M125.508,112.867
		c0.254,4.832,0.445,11.871,0.572,21.111c0.043,3.923,0.085,8.215,0.128,12.877l-0.064,33.801 M115.747,189.463l-0.063-52.877v-4.42
		c0-4.239-0.063-9.295-0.19-15.166 M116.796,116.269c-0.042,5.894-0.042,12.603,0,20.126c0.042,13.906,0.202,30.557,0.477,49.951
		 M113.998,186.346l-0.19-49.348l-0.064-5.055c-0.106-4.092-0.18-8.49-0.222-13.195 M114.92,117.318
		c0,4.26,0.021,10.725,0.063,19.396c0.042,9.474,0.085,21.566,0.127,36.277 M119.626,188.477
		c-0.233-19.861-0.413-37.393-0.541-52.59c-0.042-7.461-0.084-14.352-0.127-20.667 M120.515,114.521
		c0,6.782,0.021,13.769,0.064,20.952c0.043,17.404,0.159,35.888,0.35,55.453 M121.247,190.926c0-23.148-0.021-41.674-0.063-55.579
		c-0.085-8.925-0.148-15.94-0.191-21.049 M122.297,113.662l0.19,21.367l0.064,13.799 M112.885,113.662
		c0.042,0.869,0.084,3.041,0.127,6.518c0.042,2.967,0.084,6.889,0.127,11.765v5.119v4.832c0,5.66,0.063,10.515,0.191,14.563
		 M112.09,186.22l-0.064-48.966v-3.211c-0.042-1.823-0.084-3.477-0.126-4.959c-0.17-5.702-0.276-8.776-0.318-9.221
		c0-1.082-0.063-2.281-0.19-3.595 M108.498,151.438c0-6.021-0.064-10.556-0.19-13.607v-21.562 M108.561,116.143
		c0.615,0.338,0.922,1.686,0.922,4.038c0,10.938,0.106,32.792,0.318,65.563 M110.785,116.586c0.403,0.529,0.604,1.728,0.604,3.593
		l0.066,10.589v6.613l0.126,51.096 M110.277,185.742c-0.085-16.684-0.127-33.854-0.127-51.51l-0.35-17.965 M107.638,172.355
		c-0.254-32.07-0.381-50.543-0.381-55.419 M107.257,116.937c0.17,0.297,0.255,2.946,0.255,7.948
		c0.084,2.184,0.201,6.498,0.349,12.941v34.848 M66.518,117.35c-0.042-0.084-0.084-0.169-0.127-0.255
		c1.526-0.253,3.985-0.423,7.377-0.508c0.699-0.084,1.219-0.307,1.558-0.668c0,0.17,0.074,0.308,0.223,0.414
		c-0.233,0-0.393,0.042-0.477,0.127c-1.399,0.425-2.183,0.636-2.353,0.636C70.366,117.095,68.299,117.181,66.518,117.35z"/>
</g>
</svg>
