<?xml version="1.0" encoding="utf-8"?>
<!-- Generator: Adobe Illustrator 16.0.0, SVG Export Plug-In . SVG Version: 6.00 Build 0)  -->
<!DOCTYPE svg PUBLIC "-//W3C//DTD SVG 1.1//EN" "http://www.w3.org/Graphics/SVG/1.1/DTD/svg11.dtd">
<svg version="1.1" id="Layer_1" xmlns="http://www.w3.org/2000/svg" xmlns:xlink="http://www.w3.org/1999/xlink" x="0px" y="0px"
	 width="300px" height="300px" viewBox="0 0 300 300" enable-background="new 0 0 300 300" xml:space="preserve">
<path fill-rule="evenodd" clip-rule="evenodd" fill="#EF4036" d="M252.95,133.5c0.133,1.4-0.134,2.25-0.8,2.55
	c-0.733,0.167-1.351-0.233-1.851-1.2c-0.333-0.6-0.75-1.35-1.25-2.25c-0.267-0.434-0.5-0.717-0.7-0.85
	c-0.267-0.1-0.517-0.033-0.75,0.2c-0.267,0.133-0.05,0.883,0.65,2.25c1.3,3.533,1.366,5.716,0.2,6.55
	c-0.334,0.233-0.634,0.217-0.9-0.05c-0.3-0.267-0.583-0.784-0.85-1.55c-0.3-0.833-0.601-1.75-0.9-2.75
	c-0.5-0.867-1.05-1.15-1.649-0.85c-0.101,0.1,0.033,1,0.399,2.7c1.267,3.566,1.434,5.783,0.5,6.65c-0.333,0.4-0.667,0.534-1,0.4
	c-0.333-0.1-0.667-0.483-1-1.15c-0.167-0.333-0.399-1.316-0.7-2.95c-0.166-0.7-0.416-1.15-0.75-1.35c-0.3-0.2-0.666-0.184-1.1,0.05
	c-0.434,0.267-0.65,0.867-0.65,1.8l1.45,2.75c0.4,1.2,0.5,3.066,0.3,5.6c-0.3,2.167-0.783,3.217-1.449,3.15
	c-0.801,0.033-1.351-0.784-1.65-2.45c-0.267-0.9-0.434-2-0.5-3.3c-0.167-0.634-0.367-1.083-0.6-1.35c-0.2-0.233-0.467-0.3-0.801-0.2
	h-0.05c-1.667,0.133-2.434,1.2-2.3,3.2c0.733,1,1.2,1.867,1.4,2.6c0.433,1.6,0.517,3.833,0.25,6.7
	c-0.101,1.699-0.384,2.866-0.851,3.5c-0.5,0.434-0.917,0.583-1.25,0.449c-0.333-0.232-0.633-0.75-0.899-1.55
	c0-0.366-0.018-1.333-0.051-2.899c-0.166-1.301-0.366-2.384-0.6-3.25c-0.267-0.834-0.566-1.301-0.9-1.4
	c-0.366-0.033-0.8,0.267-1.3,0.9c-0.899,1.232-1.184,2.35-0.85,3.35c0.967,1.066,1.533,2.15,1.7,3.25l0.05-0.05
	c0.5,2.134,0.166,4.517-1,7.149c-0.5,1.7-0.917,2.634-1.25,2.801c-0.634,0.333-1.267-0.066-1.9-1.2c-0.366-1.4-0.55-3.366-0.55-5.9
	c-0.033-0.566-0.333-1-0.9-1.3l-0.05-0.05c-0.434-0.434-0.899-0.434-1.399,0c-0.9,0.833-1.101,1.7-0.601,2.6
	c0.533,1.101,0.9,2,1.101,2.7c1.166,2.967,1.366,5.55,0.6,7.75c-0.134,1.7-0.5,2.717-1.1,3.05c-0.567,0.267-0.967,0.284-1.2,0.05
	c-0.3-0.199-0.45-0.649-0.45-1.35c-0.134-0.533-0.25-1.65-0.35-3.35c-0.034-1.2-0.268-2.184-0.7-2.95
	c-0.4-0.767-0.817-1.25-1.25-1.45c-0.4-0.233-0.767-0.2-1.101,0.1h-0.1c-0.434,0.301-1.05,0.95-1.85,1.95
	c-0.967,1.101-1.4,1.917-1.301,2.45c0.801,1.133,1.367,2,1.7,2.6c0.467,0.934,0.816,2.351,1.05,4.25
	c0.233,1.268,0.317,2.217,0.25,2.851h0.101c0.1,1.366-0.184,2.2-0.851,2.5c-0.633,0.366-1.383,0.167-2.25-0.601l0.051-0.05
	c-0.667-0.833-1.317-2.566-1.95-5.2c-0.3-0.6-0.617-0.982-0.95-1.149s-0.65-0.134-0.95,0.1l-1.5,1.7c-0.934,1.133-1.434,2-1.5,2.6
	c0.434,1.2,0.7,2.051,0.8,2.551l-0.05-0.051l1.15,5.101c0.633,2.3,0.633,3.8,0,4.5c-0.5,0.634-0.983,0.866-1.45,0.7
	c-0.434-0.101-0.867-0.551-1.3-1.351c-0.3-0.466-0.7-1.767-1.2-3.899c-0.333-0.967-0.684-1.617-1.05-1.95
	c-0.367-0.333-0.733-0.366-1.101-0.101l-0.05,0.101c-2.066,1.333-2.566,3.649-1.5,6.95c1.467,4,1.601,6.717,0.4,8.149
	c-0.334,0.567-0.7,0.784-1.101,0.65c-0.399-0.134-0.783-0.55-1.149-1.25c-0.267-0.434-0.8-1.65-1.601-3.65h-0.05
	c-0.667-1.533-1.467-2.149-2.399-1.85c-1.567,0.667-2.217,2.2-1.95,4.6c0.133,0.8,0.55,2.317,1.25,4.55
	c0.1,0.301,0.217,0.667,0.35,1.101c0.634,2.7,0.45,4.134-0.55,4.3c-1.2,0.4-2.7-1.117-4.5-4.55c-0.7-1.233-1.3-1.8-1.8-1.7
	c-0.533,0.1-1.117,0.617-1.75,1.55c-0.3,0.434-0.517,0.983-0.65,1.65c-0.133,0.634-0.2,1.35-0.2,2.149
	c-0.033,1.334,0.117,2.917,0.45,4.75c0.5,1.734,0.384,2.884-0.35,3.45h-0.05c-0.768,0.567-1.467,0.434-2.101-0.399
	c-0.667-0.7-1.283-2.066-1.85-4.101c-0.3-0.566-0.75-0.683-1.351-0.35c-0.467,0.233-1.149,0.8-2.05,1.7
	c-0.8,1.033-1.133,1.783-1,2.25h-0.1c0,0.434,0.5,1.866,1.5,4.3c0.633,2.033,0.616,3.55-0.05,4.55h0.05
	c-0.334,0.467-0.733,0.666-1.2,0.6c-0.134-0.033-0.3-0.1-0.5-0.199c-0.333-0.167-0.684-0.417-1.05-0.75v-0.051
	c-0.067-0.166-0.601-1.166-1.601-3c-0.733-1.333-1.467-1.816-2.199-1.449c-2.7,2.266-4.084,3.684-4.15,4.25l1.25,2.35
	c0.233,0.867,0.2,1.983-0.1,3.35c-0.268,1.367-0.834,2.184-1.7,2.45c-0.9,0.267-1.7-0.433-2.4-2.1c-0.667-2-1.233-3.067-1.7-3.2
	c-0.533-0.267-1.566,0-3.1,0.8c-1.5,0.8-2.316,1.434-2.45,1.9h-0.05c-0.2,0.333-0.467,1.667-0.8,4c-0.5,1.7-1.184,2.866-2.05,3.5
	l-0.051,0.05c-0.733,0.467-1.3,0.55-1.699,0.25c-0.434-0.233-0.684-0.934-0.75-2.1c-0.233-2.167-0.7-3.25-1.4-3.25
	c-2.233,0.6-3.65,1.266-4.25,2c-0.333,1.566-0.65,2.816-0.95,3.75h-0.05c-0.367,1.633-1.25,2.399-2.65,2.3
	c-0.633,0.033-1.083-0.167-1.35-0.601c-0.3-0.434-0.417-1.05-0.35-1.85c0.033-1.367-0.284-2.166-0.95-2.4
	c-2.134,0-3.417,0.518-3.851,1.551c-0.533,1.232-0.933,2.133-1.199,2.699c-0.634,1.134-1.417,1.75-2.351,1.851
	c-0.566,0-0.967-0.217-1.2-0.65c-0.199-0.366-0.25-0.95-0.149-1.75c0.2-0.767,0.217-1.35,0.05-1.75c-0.1-0.399-0.35-0.634-0.75-0.7
	c-2.434-0.133-3.967,0.301-4.6,1.301v-0.051c-1.101,2.834-2.351,4.268-3.75,4.301c-0.867-0.066-1.584-0.467-2.15-1.2
	c-0.434-0.8-0.45-1.601-0.05-2.4h-0.05c0.133-0.5,0.366-1,0.699-1.5h-0.05c0.134-0.366,0.134-0.649,0-0.85
	c-0.066-0.167-0.25-0.25-0.55-0.25h-0.05c-2.334-1.101-4.05-1.05-5.15,0.149c-0.7,2.801-1.783,4.167-3.25,4.101
	c-0.866-0.067-1.417-0.317-1.649-0.75c-0.301-0.4-0.301-1,0-1.8c0.566-1.834,0.583-2.9,0.05-3.2c-1.5-0.967-3.033-0.717-4.601,0.75
	c-1.767,1.533-3.133,2.149-4.1,1.85c-0.5-0.134-0.8-0.433-0.9-0.899c-0.033-0.434,0.117-0.984,0.45-1.65
	c0.733-1.166,0.783-1.967,0.15-2.4c-3.167-1.833-5.75-2.616-7.75-2.35c-0.2,0.1-0.95,0.7-2.25,1.8c-1.033,0.8-2.067,0.95-3.101,0.45
	c-0.566-0.233-0.883-0.517-0.949-0.85c-0.134-0.367-0.018-0.816,0.35-1.351c0.9-1.233,1.4-1.966,1.5-2.2
	c-0.367-1-1.684-1.85-3.95-2.55c-0.033,0-0.083,0-0.149,0c-0.768-0.366-1.851-0.183-3.25,0.55c-0.834,0.4-1.384,0.783-1.65,1.15
	c-0.267,0.334-0.283,0.7-0.05,1.1c0,0.033,0.033,0.051,0.1,0.051c1.3,1.666,4.5,4.116,9.601,7.35
	c8.933,5.967,17.866,10.416,26.8,13.35c23.467,7.9,47.033,7.283,70.7-1.85c0.8-0.3,1.566-0.6,2.3-0.9
	c7.666-3.133,14.717-6.916,21.149-11.35c12.533-8.633,22.783-19.767,30.75-33.4c9.834-17.166,14.567-35.184,14.2-54.05l-0.75-13
	c-0.267-0.866-0.566-2.383-0.899-4.55l-1.45-0.4c-0.601-0.067-1.017,0.017-1.25,0.25S252.883,132.967,252.95,133.5z M251.6,115.1
	l-4.75-11.15c-5.133-11.034-12-20.667-20.6-28.9c-3.667-3.566-7.667-6.85-12-9.85c-0.134-0.067-0.233-0.15-0.3-0.25
	c-0.733-0.467-1.467-0.934-2.2-1.4l0.05-0.05c-0.1-0.167-1.533-0.8-4.3-1.9l-1.55-1.8c-0.567-0.267-1.417-0.4-2.55-0.4l-0.051,0.05
	l-0.05-0.05c-0.833-0.5-1.366-0.8-1.6-0.9c-0.367,0-0.783,0.316-1.25,0.95c-0.367,0.433-0.884,0.6-1.55,0.5L198.85,60
	c-0.467-0.1-1.066-0.883-1.8-2.35c-0.767-1.066-1.5-1.55-2.2-1.45h-0.05c-0.333,0.066-0.467,0.85-0.399,2.35
	c-0.067,1.467-0.667,2.284-1.801,2.45c-0.633-0.033-1.616-1.117-2.949-3.25c-0.634-0.934-1.284-1.5-1.95-1.7
	c-0.634-0.267-1.3-0.167-2,0.3c-0.434,0.267-0.2,1.2,0.7,2.8c0.466,0.867,0.683,1.583,0.649,2.15c-0.033,0.5-0.316,0.85-0.85,1.05
	c-0.767,0.2-1.783-0.367-3.05-1.7c-3.4-2.3-5.867-3.25-7.4-2.85c-0.333,0.1-0.517,0.3-0.55,0.6c-0.067,0.4,0.033,0.934,0.3,1.6
	c0.5,1.733,0.717,2.717,0.65,2.95c-0.011,0.42-0.144,0.887-0.4,1.4h-0.05c-0.4,0.433-0.8,0.65-1.2,0.65l-0.05,0.05
	c-0.7-0.233-1.351-1.1-1.95-2.6c-2.1-3.2-4.367-4.134-6.8-2.8c-0.601,0.3-0.55,1.633,0.149,4c0.367,1.133,0.467,1.967,0.301,2.5
	c-0.2,0.6-0.717,0.917-1.551,0.95c-0.6,0.066-1.1-0.3-1.5-1.1c-0.433-0.367-0.85-0.95-1.25-1.75c-1.267-1.667-2.517-2.65-3.75-2.95
	c-1.333-0.366-2.616-0.083-3.85,0.85c-0.4,0.267-0.25,1.434,0.45,3.5c0.433,1.034,0.616,1.817,0.55,2.35
	c-0.134,0.6-0.517,0.95-1.15,1.05c-0.699,0.267-1.85-0.517-3.449-2.35c-2.768-3-5.334-3.784-7.7-2.35v0.05
	c-0.334,0.267-0.467,0.567-0.4,0.9c0.033,0.333,0.267,0.733,0.7,1.2c1.6,3,1.75,4.816,0.45,5.45c-0.467,0.3-1.634-0.567-3.5-2.6
	c-3.167-2.833-5.95-3.417-8.351-1.75c-0.5,0.5-0.25,1.85,0.75,4.05c0.934,2.133,0.75,3.534-0.55,4.2c-1.066,0.6-2.467-0.667-4.2-3.8
	c-1-1.233-2.283-1.75-3.85-1.55c-0.8,0.133-1.684,0.45-2.65,0.95c-0.733,0.366-0.683,1.683,0.15,3.95c0.4,1.133,0.566,2.034,0.5,2.7
	c-0.134,0.7-0.483,1.15-1.05,1.35c-0.867,0.433-1.667-0.067-2.4-1.5c-0.267-0.467-0.833-1.333-1.7-2.6
	c-0.267-0.3-0.55-0.534-0.85-0.7c-0.634-0.367-1.283-0.433-1.95-0.2c-1.733,0.333-2.75,0.966-3.05,1.9c0.3,1.6,0.533,2.966,0.7,4.1
	c0,0.267,0.017,0.517,0.05,0.75c0,1.5-0.517,2.4-1.55,2.7v0.05c-1.101,0.2-1.851-0.4-2.25-1.8v-0.1
	c-0.834-1.566-1.317-2.466-1.45-2.7c-0.8-0.733-1.7-0.934-2.7-0.6c-1.267,0.533-1.917,1.45-1.95,2.75v0.05
	c0.2,1.5,0.351,2.7,0.45,3.6c-0.267,2.2-0.767,3.367-1.5,3.5c-0.6,0.267-1.1,0.15-1.5-0.35c-0.399-0.5-0.717-1.35-0.95-2.55
	c-0.366-1.133-0.75-1.95-1.149-2.45c-0.367-0.466-0.8-0.566-1.3-0.3c-2.301,0.633-3.284,1.633-2.95,3c0.5,1.333,0.833,2.55,1,3.65
	c0.399,1.333,0.383,2.233-0.05,2.7c-0.101,0.167-0.268,0.283-0.5,0.35c-1.067,0.6-2.217-0.2-3.45-2.4
	c-1.101-2.133-2.067-3.1-2.9-2.9c-1.366,0.4-1.8,1.934-1.3,4.6c0.333,2.6-0.167,4.15-1.5,4.65c-0.467,0.2-0.934,0.117-1.4-0.25
	c-0.399-0.433-0.767-1.117-1.1-2.05c-0.366-0.867-0.75-1.467-1.15-1.8c-0.366-0.3-0.716-0.383-1.05-0.25
	c-0.7,0.2-1.083,0.667-1.149,1.4c-0.2,0.767-0.067,1.816,0.399,3.15c0.7,2.867,0.467,4.7-0.7,5.5c-0.666,0.566-1.267,0.667-1.8,0.3
	c-0.533-0.3-1-1.033-1.399-2.2c-0.367-1.2-0.717-2.034-1.051-2.5c-0.199-0.233-0.366-0.367-0.5-0.4c-0.133-0.033-0.3,0-0.5,0.1
	c-1.666,0.934-2.383,2.117-2.149,3.55c0,0.433,0.333,1.45,1,3.05c0.399,1.167,0.366,2.2-0.101,3.1
	c-0.333,0.566-0.733,0.816-1.199,0.75c-0.467-0.067-0.967-0.467-1.5-1.2c-1.134-1.267-2.017-1.667-2.65-1.2l-0.95,1.1
	c-0.566,1.1-0.533,2.05,0.101,2.85c1.199,1.567,1.85,2.417,1.949,2.55c0.301,2.1-0.116,3.25-1.25,3.45v-0.05
	c-0.557,0.131-1.29-0.269-2.199-1.2c-0.018-0.016-0.034-0.033-0.051-0.05c-0.811-0.699-1.46-1.015-1.949-0.95
	c-0.667,0.167-1.25,0.883-1.75,2.15c-0.567,1.1-0.7,1.95-0.4,2.55c0.233,0.433,0.917,1.133,2.05,2.1l0.05,0.05H61.8
	c0.967,0.633,1.3,1.65,1,3.05l-0.45,1.5l-0.05-0.05c-0.566,0.367-1.517,0.1-2.85-0.8c-1.334-1.067-2.283-1.25-2.851-0.55
	c-0.633,0.667-0.899,1.333-0.8,2c0.167,0.7,0.717,1.45,1.65,2.25c1.934,1.733,2.6,3.167,2,4.3c-0.3,0.633-1.233,0.65-2.8,0.05
	c-1.334-0.633-2.167-0.583-2.5,0.15c-0.434,0.633-0.717,1.567-0.851,2.8c-0.066,1.366,0.15,2.333,0.65,2.9
	c2.5,0.867,3.55,1.9,3.149,3.1c0,0.333-0.199,0.566-0.6,0.7c-0.333,0.167-0.816,0.217-1.45,0.15c-1.133,0-1.8,0.35-2,1.05
	c-0.233,0.7-0.399,1.667-0.5,2.9c0.101,1.333,0.367,2.184,0.8,2.55c1.733,0.667,2.601,1.4,2.601,2.2c0.1,0.6-0.417,1.184-1.55,1.75
	c-0.9,0.467-1.317,1.084-1.25,1.85c-0.034,1.367,0.216,2.4,0.75,3.101c0.866,0.2,1.5,0.45,1.899,0.75
	c0.467,0.3,0.65,0.616,0.55,0.95v0.05c-0.166,0.533-0.616,0.884-1.35,1.05c-0.7,0.133-1.15,0.367-1.35,0.7
	c-0.5,0.866-0.483,2.733,0.05,5.6c0.166,0.667,0.783,1.116,1.85,1.351c1.066,0.399,1.684,0.766,1.851,1.1h0.05
	c0.033,0.6-0.283,1.184-0.95,1.75s-1.05,0.967-1.15,1.2c-0.6,1.466-0.267,3.35,1,5.649c0.334,0.601,0.95,0.851,1.851,0.75
	c1.1-0.232,1.717-0.05,1.85,0.551v0.05c0.033,0.433-0.283,1-0.95,1.7c-0.666,0.934-1.017,1.516-1.05,1.75v0.05
	c-0.2,1.1,0.267,2.716,1.4,4.85c0.366,0.634,0.967,0.884,1.8,0.75c0.2,0,0.417-0.033,0.65-0.1c0.699-0.167,1.25-0.184,1.649-0.05
	c0.4,0.066,0.65,0.283,0.75,0.649c0.066,0.567-0.166,1.101-0.7,1.601l-1.35,1.35c-0.533,0.5-0.667,1.35-0.4,2.55
	c0.334,1,0.884,1.784,1.65,2.351l-0.1,0.1c0.333,0.2,1.033,0,2.1-0.6c0.4-0.334,0.767-0.533,1.1-0.601
	c0.367-0.033,0.667,0.116,0.9,0.45c0.5,0.4,0.384,1.283-0.35,2.65c-0.634,1.3-0.717,2.399-0.25,3.3c0.699,1.267,1.233,2.134,1.6,2.6
	c0.233,0.267,0.417,0.4,0.55,0.4c1.967-0.833,3.2-0.784,3.7,0.149c0.366,0.634,0.35,1.351-0.05,2.15c-0.267,1-0.483,1.733-0.65,2.2
	c-0.1,1.2,0.634,2.35,2.2,3.45c0.467,0.5,1.217,0.482,2.25-0.051c1.033-0.766,1.833-0.783,2.4-0.05
	c0.466,0.366,0.6,1.517,0.399,3.45c-0.233,1.467,0.084,2.434,0.95,2.9c0.533,0.3,1.25,0.033,2.15-0.801
	c1.1-0.6,2.017-0.583,2.75,0.051c0.166,0.133,0.3,0.283,0.399,0.449c0.134,0.268,0.2,0.65,0.2,1.15c-0.1,1.2-0.116,1.867-0.05,2v0.1
	c0,1.134,0.783,2.066,2.35,2.801c0.467,0.232,0.851,0.3,1.15,0.199c0.333-0.033,0.633-0.266,0.899-0.699h-0.05
	c0.8-0.867,1.5-1.134,2.101-0.801c0.199,0.066,0.583,0.617,1.149,1.65c0.2,0.334,0.4,0.684,0.601,1.05
	c1.466,2.733,3.283,4.101,5.449,4.101c0.533-0.066,0.917-0.75,1.15-2.051c0.233-1.166,0.8-1.666,1.7-1.5
	c0.7,0.2,1.533,1.367,2.5,3.5c0.967,1.801,1.916,2.65,2.85,2.551c0.3-0.101,0.467-0.283,0.5-0.551c0.066-0.3-0.05-0.717-0.35-1.25
	c-0.434-0.766-0.45-1.482-0.05-2.149c0.399-0.833,1.066-1.184,2-1.05c0.633,0.033,1.383,0.85,2.25,2.449
	c2.033,3.834,4.1,5.351,6.199,4.551c0.367,0,0.417-0.768,0.15-2.301c-0.267-0.899-0.316-1.583-0.15-2.05
	c0.134-0.5,0.483-0.816,1.051-0.95c1.1-0.133,2.133,0.634,3.1,2.301c2.633,3.133,4.95,4.35,6.95,3.649
	c0.333-0.167,0.5-0.366,0.5-0.6c-0.033-0.3-0.3-0.601-0.8-0.9h-0.051c-0.566-0.667-0.866-1.483-0.899-2.45
	c-0.167-1.366,0.2-2.199,1.1-2.5c0.7-0.166,1.783,0.551,3.25,2.15c2.7,3.934,5.2,5.166,7.5,3.7c0.434-0.233,0.4-0.866-0.1-1.9
	c-0.834-0.767-1.45-1.75-1.851-2.95c-0.566-1.366-0.366-2.3,0.601-2.8c0.8-0.399,2.033,0.366,3.7,2.3c1,1.2,2.5,2.167,4.5,2.9
	c2.267,0.967,3.866,0.9,4.8-0.2l0.05-0.1c0.233-0.134,0.383-0.284,0.45-0.45c0.066-0.133,0.033-0.283-0.101-0.45
	c-0.333-0.333-1-0.667-2-1c-2.399-1.3-3.983-2.5-4.75-3.6c-0.767-1.134-0.666-2.167,0.301-3.101v0.051
	c0.466-0.7,1.149-0.75,2.05-0.15l0.05-0.1c0.866,0.967,1.467,1.55,1.8,1.75c5.833,3.566,9.65,4.283,11.45,2.149
	c0.167-0.134,0.233-0.316,0.2-0.55c-0.134-0.133-0.417-0.3-0.851-0.5c-0.3-0.2-0.717-0.45-1.25-0.75
	c-2.333-1.166-3.866-2.283-4.6-3.35c-0.8-1.101-0.833-2.184-0.1-3.25c0.566-0.5,1.383-0.5,2.449,0
	c1.167,0.566,1.884,0.982,2.15,1.25l0.05-0.101c2.566,1.567,4.533,2.7,5.9,3.4c2.399,1.066,4.25,0.667,5.55-1.2
	c0.2-0.3,0.15-0.617-0.15-0.95c-0.267-0.366-0.816-0.783-1.649-1.25c-2.267-0.933-3.884-1.866-4.851-2.8
	c-0.967-0.9-1.199-1.783-0.699-2.65c0.232-0.533,0.649-0.75,1.25-0.649c0.566,0.066,1.35,0.45,2.35,1.149
	c2.2,1.533,4.066,2.5,5.6,2.9c1.301,0.334,2.367,0.25,3.2-0.25c0.8-0.434,1.55-1.05,2.25-1.85c0.833-0.967,1.101-1.768,0.8-2.4
	c-0.433-0.7-2.116-1.434-5.05-2.2l-0.05-0.1c-1.333-0.8-2.184-1.55-2.55-2.25c-0.434-0.7-0.334-1.366,0.3-2l0.05-0.05
	c0.533-0.467,1.333-0.5,2.4-0.101c1.1,0.634,1.816,1.067,2.149,1.3c4.467,2.5,7.533,2.334,9.2-0.5c0.267-0.399,0.3-0.8,0.101-1.199
	c-0.233-0.268-0.667-0.518-1.301-0.75c-0.1-0.066-0.183-0.101-0.25-0.101c-2.433-0.5-4.183-1.1-5.25-1.8
	c-1.066-0.8-1.399-1.717-1-2.75c0.267-0.733,1.017-1.084,2.25-1.05c0.334,0.033,0.684,0.083,1.051,0.149
	c0.666,0.134,1.433,0.351,2.3,0.65c0.467,0.2,0.967,0.416,1.5,0.65c3.233,1.566,5.95,1.016,8.149-1.65
	c0.101-0.133,0.233-0.316,0.4-0.55c0.333-0.467,0.383-0.9,0.15-1.3c-0.2-0.434-0.7-0.816-1.5-1.15
	c-0.301-0.066-0.584-0.166-0.851-0.3c-2.3-0.7-3.934-1.45-4.899-2.25c-1.134-0.9-1.417-1.784-0.851-2.65
	c0.434-0.933,1.351-1.216,2.75-0.85c0.3,0.1,0.617,0.233,0.95,0.399h0.05c4,2.734,6.95,3.5,8.851,2.301l1.699-1.801l0.051,0.051
	c1.333-1.9,1.982-3.051,1.949-3.45c-0.1-0.9-0.717-1.333-1.85-1.3v-0.051c-2.533-0.967-3.9-1.5-4.1-1.6h-0.101
	c-0.833-0.533-1.417-1.084-1.75-1.65c-0.3-0.566-0.283-1.133,0.05-1.699c0.267-0.768,0.867-1.167,1.801-1.2
	c0.866-0.034,2.033,0.3,3.5,1h0.05c1.2,0.733,2.149,1.216,2.85,1.45c1.333,0.666,2.351,0.899,3.05,0.699
	c0.301-0.166,1-1.016,2.101-2.55c1.333-1.866,1.866-3.1,1.6-3.7c-0.467-0.732-1.8-1.416-4-2.05c-2.133-0.466-3.283-1.267-3.45-2.399
	c-0.233-1.134,0.301-1.834,1.601-2.101c0.866-0.267,1.833-0.183,2.899,0.25c0.2,0.067,1.2,0.634,3,1.7c1.467,0.967,2.5,1.3,3.101,1
	l0.05-0.05c0.633-0.134,1.366-0.917,2.2-2.351c0.733-1.166,1.149-1.883,1.25-2.149H215c0.066-0.833-0.95-1.767-3.05-2.8
	c-1.134-0.5-1.934-1.018-2.4-1.551c-0.467-0.566-0.566-1.199-0.3-1.899c0.533-1.267,1.6-1.733,3.2-1.4
	c1.3,0.534,2.399,1.284,3.3,2.25c0.767,0.7,1.333,1.05,1.7,1.05h0.05c0.434,0.134,1.316-0.566,2.65-2.1l0.05,0.05
	c0.866-1.233,1.083-2.3,0.649-3.2l-2.449-2.3c-0.967-0.634-1.518-1.25-1.65-1.85c-0.2-0.601,0-1.233,0.6-1.9v0.05
	c0.5-0.8,1.233-1.066,2.2-0.8c1.033,0.2,2.267,0.917,3.7,2.15l0.05,0.05c0.533,1,1.15,1.3,1.851,0.9c1-0.7,1.75-1.684,2.25-2.95
	c0.566-1.467,0.533-2.617-0.101-3.45c-0.267-0.467-0.899-1.117-1.899-1.95c-0.9-0.933-1.134-1.733-0.7-2.4
	c0.866-1.066,2.166-0.95,3.899,0.35c1.733,1.4,2.867,1.767,3.4,1.1c2-2.2,2.65-3.8,1.95-4.8c-0.767-1.366-2.4-2.883-4.9-4.55
	c-0.366-0.3-0.533-0.633-0.5-1c0.033-0.4,0.233-0.783,0.601-1.15h0.05c0.666-0.6,1.8-0.55,3.399,0.15h0.051
	c1.199,0.8,2.133,1.617,2.8,2.45c1.1,0.933,1.85,1.283,2.25,1.05c1.267-0.833,1.35-2.316,0.25-4.45
	c-0.733-1.133-1.117-2.05-1.15-2.75c-0.1-0.7,0.134-1.216,0.7-1.55c0.366-0.3,0.767-0.367,1.2-0.2c0.467,0.167,0.967,0.55,1.5,1.15
	c1.2,1.133,2,1.583,2.399,1.35c0.967-0.667,0.884-1.866-0.25-3.6c-1.267-2-1.517-3.317-0.75-3.95c0.7-0.533,1.584-0.184,2.65,1.05
	c1.1,1.4,1.866,1.967,2.3,1.7h0.05c0.634-0.2,0.667-1.184,0.101-2.95c-0.601-1.9-0.7-3.066-0.3-3.5c0.6-0.733,1.517-0.733,2.75,0
	c0.5-0.1,0.966-0.65,1.399-1.65c0.3-0.167,0.95-0.233,1.95-0.2C252.8,118.417,252.5,117.133,251.6,115.1z M238.95,215.7
	c-7.134,9.6-15.533,17.683-25.2,24.25c-0.066,0.066-0.117,0.1-0.15,0.1l-0.1,0.101c-6.134,4.133-12.75,7.684-19.85,10.649
	c-0.268,0.067-0.5,0.167-0.7,0.3c-18.967,7.768-38.101,10.167-57.4,7.2c-14.267-2.033-27.633-6.767-40.1-14.2
	c-5.9-3.434-11.483-7.633-16.75-12.6h0.05c-1.033-0.967-2.017-1.934-2.95-2.9v-0.05c-0.066,0-0.1-0.033-0.1-0.1
	c-0.066,0-0.134-0.034-0.2-0.101c-4.233-4.3-8.316-9.133-12.25-14.5c0-0.066-0.017-0.116-0.05-0.149c-0.2-0.3-0.4-0.583-0.601-0.851
	c0-0.033-0.033-0.066-0.1-0.1c-0.3-0.467-0.616-0.916-0.95-1.35c-0.033-0.066-0.033-0.101,0-0.101c-0.8-1.033-1.55-2.134-2.25-3.3
	v-0.05c-0.833-1.2-1.6-2.4-2.3-3.601v-0.05c-1.5-2.433-2.884-4.966-4.15-7.6H52.9c-0.034-0.067-0.067-0.134-0.101-0.2
	c-0.033-0.033-0.05-0.066-0.05-0.1c-1.4-2.834-2.634-5.783-3.7-8.851c-0.1-0.267-0.217-0.55-0.35-0.85l-0.05-0.05
	c-1.667-4.834-3.017-9.884-4.051-15.15c-2.699-13-2.916-25.983-0.649-38.95c0.066-0.267,0.149-0.517,0.25-0.75
	c0-0.033,0-0.066,0-0.1c3.5-17.8,10.083-33.134,19.75-46c4.566-6.2,9.767-11.85,15.6-16.95c0.033,0,0.066-0.017,0.101-0.05
	c5.333-4.634,11.216-8.784,17.649-12.45h0.05c0.9-0.533,1.834-1.066,2.801-1.6c1.333-0.7,2.699-1.4,4.1-2.1v0.05
	c2.533-1.267,5.133-2.434,7.8-3.5c0.101-0.034,0.233-0.083,0.4-0.15V49c10.8-4.267,21.916-6.65,33.35-7.15
	c22.733-1.333,43.851,4.117,63.351,16.35c0.1,0.033,0.216,0.083,0.35,0.15c2.434,1.6,4.816,3.267,7.15,5V63.3
	c4.066,3.1,7.85,6.384,11.35,9.85c0,0.034,0.017,0.067,0.05,0.1c0,0.033,0.05,0.066,0.15,0.1c4.933,5.066,9.399,10.633,13.399,16.7
	c12.167,18.5,18.5,38.45,19,59.85C260.6,174.5,253.383,196.434,238.95,215.7z M79.6,222.15V222.1c-0.899-0.899-1.649-1.25-2.25-1.05
	h-0.1c-0.634-0.066-1.434,0.067-2.4,0.4c-0.899,0.466-1.199,0.983-0.899,1.55c0.166,0.733,0.833,1.584,2,2.55
	c0.533,0.534,1.017,0.917,1.45,1.15c0.466,0.3,0.816,0.433,1.05,0.399c0.5,0.101,1.2-0.283,2.1-1.149c0.8-0.601,1.05-1.2,0.75-1.8
	V224.1c-0.1-0.3-0.267-0.6-0.5-0.899C80.5,222.834,80.1,222.483,79.6,222.15z M66.15,212.85c-0.233,0.234-0.301,0.484-0.2,0.75
	c0.267,0.9,0.967,2.018,2.1,3.351c1.101,1.366,2.033,2.233,2.8,2.6c0.5,0.134,1.15-0.116,1.95-0.75c0.733-0.366,1.033-0.899,0.9-1.6
	c-0.8-2.5-2.134-4.05-4-4.65c-0.566-0.3-1.4-0.35-2.5-0.149C66.7,212.5,66.35,212.65,66.15,212.85z M58.8,199.25
	c1.134,0,1.816-0.184,2.05-0.55c0.134-1.434-0.533-2.833-2-4.2c-0.399-0.367-1.166-0.834-2.3-1.4c-0.3-0.199-0.566-0.35-0.8-0.449
	c-0.6-0.2-1.05-0.167-1.35,0.1c-0.233,0.166-0.217,0.517,0.05,1.05c0.033,0.134,0.083,0.25,0.149,0.351
	c0.801,2.666,1.534,4.232,2.2,4.699C57.134,199.084,57.8,199.217,58.8,199.25z M60.7,202.5c-0.667,0-1.084,0.233-1.25,0.7
	c-0.066,0.233,0.35,1.167,1.25,2.8c0.566,1.1,1.116,1.783,1.649,2.05c0.467,0.233,0.95,0.4,1.45,0.5
	c0.767,0.233,1.483,0.284,2.15,0.15c0.5-0.067,0.783-0.284,0.85-0.65c-0.033-0.366-0.267-0.917-0.7-1.649
	c-0.899-1.7-1.666-2.768-2.3-3.2C62.467,202.733,61.434,202.5,60.7,202.5z M53.3,183.5h-0.05c-1.033-0.2-1.75-0.1-2.15,0.3
	c-0.366,0.4-0.283,1.233,0.25,2.5c0.334,1.4,0.767,2.233,1.301,2.5h0.05c0.399,0.4,1.083,0.616,2.05,0.65v-0.05
	c0.9-0.033,1.5-0.334,1.8-0.9c0.2-0.3,0.134-0.95-0.2-1.95c-0.267-0.833-0.583-1.433-0.949-1.8C55,184.383,54.3,183.967,53.3,183.5z
	 M47.4,171.75h0.05c0.633,4.2,1.25,6.533,1.85,7c0.267,0.066,0.9,0.1,1.9,0.1c0.366,0.033,1.166,0.101,2.399,0.2
	c0.267-0.5,0.233-1.066-0.1-1.7v-0.05c-0.3-2.733-0.8-4.399-1.5-5c-0.7-0.6-1.884-1.366-3.55-2.3l-1.05-0.3
	C46.833,170.066,46.833,170.75,47.4,171.75z M45.2,150.95c-0.033,1.366,0.133,2.233,0.5,2.6v0.101c0.233,0.399,0.967,0.833,2.2,1.3
	l0.05,0.05c1.166,0.733,1.967,0.967,2.399,0.7c1.034-0.534,0.917-2-0.35-4.4c-2.5-1.767-3.917-2.583-4.25-2.45
	C45.217,148.95,45.033,149.65,45.2,150.95z M46.05,158.25c-0.5,0.1-0.566,1.017-0.2,2.75c0.101,1.7,0.351,2.717,0.75,3.05
	l-0.05,0.101c0.2,0.3,0.834,0.75,1.9,1.35h0.05c1.134,0.7,1.767,1.017,1.9,0.95l0.05-0.05c0.5-0.066,0.75-0.851,0.75-2.351
	c-0.134-1.333-0.384-2.167-0.75-2.5v-0.05c-0.3-0.467-0.95-1.117-1.95-1.95C47.2,158.684,46.384,158.25,46.05,158.25z M49.4,139.7
	c-1.5-1.1-2.467-1.667-2.9-1.7c-0.1,0.133-0.3,0.633-0.6,1.5c-0.634,2.9-0.584,4.65,0.149,5.25c1.3,1.267,2.467,1.816,3.5,1.65
	c0.533-0.333,0.8-1.466,0.8-3.4C50.35,141.233,50.033,140.133,49.4,139.7z M122.25,65.8c0.767-1.566,1.517-2.566,2.25-3
	c1-0.3,1.717-0.066,2.15,0.7c0.6,1.066,1.149,1.55,1.649,1.45c2.134-0.134,3.617-0.717,4.45-1.75c0.233-0.333,0.65-1.05,1.25-2.15
	c0.366-0.8,0.85-1.35,1.45-1.65c0.8-0.466,1.6-0.3,2.399,0.5c0.634,0.8,1.233,1.167,1.801,1.1c1.232-0.267,2.316-0.85,3.25-1.75
	c1.333-1.9,2.316-2.816,2.949-2.75c0.634,0.033,1.067,0.483,1.301,1.35c0.267,0.833,0.633,1.316,1.1,1.45
	c0.633,0.1,1.65-0.017,3.05-0.35c1.4-0.4,2.384-0.833,2.95-1.3c1.167-1.8,2.033-2.767,2.6-2.9c0.301-0.167,0.884,0.033,1.75,0.6
	c0.634,0.4,1.217,0.566,1.75,0.5c0.801,0,1.551-0.5,2.25-1.5c0.733-0.767,1.301-1.167,1.7-1.2c1.101-0.167,2.467,0.3,4.101,1.4
	c1.5-0.066,2.716-0.333,3.649-0.8c0.5-0.267,1.217-0.833,2.15-1.7c0.433-0.233,1-0.05,1.7,0.55c0.8,0.367,1.399,0.55,1.8,0.55
	c0.933-0.133,2.3-0.566,4.1-1.3c1.733,0.667,2.983,0.966,3.75,0.9c1.667-0.233,2.233-0.833,1.7-1.8
	c-0.233-0.467-0.95-0.867-2.15-1.2l-5.899-1.6c-7.101-2.133-15.601-3.35-25.5-3.65c-13.834-0.3-27.117,1.983-39.851,6.85
	c-2.767,1.066-5.533,2.25-8.3,3.55c-1.467,0.7-2.917,1.45-4.35,2.25c-0.867,0.434-1.717,0.9-2.55,1.4
	c-6.534,3.733-12.518,8.017-17.95,12.85C73.4,77.867,67.033,85.333,61.6,93.8c-6.133,10.067-10.433,20.034-12.899,29.9l-1.9,7.6
	c-0.3,1.3-0.2,2.233,0.3,2.8c0.4,0.367,1.067,0.7,2,1c1.101,0.2,1.667-0.017,1.7-0.65c1-2.3,1.351-4.267,1.05-5.9
	c0-0.4-0.316-1.017-0.949-1.85c-0.134-0.167-0.233-0.333-0.301-0.5c-0.3-0.534-0.383-1.067-0.25-1.6c0.367-1.2,1.367-1.55,3-1.05
	c0.934-0.533,1.5-1.733,1.7-3.6c0.033-0.6-0.133-1.467-0.5-2.6c-0.6-1.1-0.8-2.017-0.6-2.75c0.434-0.633,1.05-0.767,1.85-0.4
	c1,0.3,1.667,0.233,2-0.2c1.767-1.9,2.55-3.6,2.351-5.1c0.033-0.2-0.101-0.816-0.4-1.85c-0.134-0.933-0.05-1.7,0.25-2.3
	c0.3-0.5,1.167-0.733,2.6-0.7c1.167-0.033,1.834-0.616,2-1.75c0-0.366-0.116-1.167-0.35-2.4c-0.267-0.867-0.1-1.667,0.5-2.4
	c0.5-0.867,1.2-1.017,2.1-0.45c1,0.667,1.684,0.784,2.051,0.35c1.8-1.4,3-2.85,3.6-4.35c0.167-0.1,0.3-0.95,0.4-2.55
	c0.166-1.1,0.649-1.867,1.449-2.3c0.934-0.5,1.7-0.017,2.301,1.45c0.699,0.233,1.316-0.083,1.85-0.95
	c1.2-1.067,2.083-3.134,2.65-6.2c0.633-1.367,1.433-1.9,2.399-1.6c0.634,0.067,0.834,0.65,0.601,1.75
	c0.066,1.167,0.283,1.75,0.649,1.75c1.134-0.2,1.583-0.867,1.351-2c0.199-0.533,0.366-1.033,0.5-1.5
	c0.732-2.133,1.383-3.433,1.949-3.9c1.101-0.967,1.95-0.833,2.551,0.4c0.767,1.4,1.449,1.934,2.05,1.6c0.8-0.4,1.533-1.5,2.2-3.3
	c0.633-1.7,1.416-2.6,2.35-2.7c0.967-0.133,1.483,0.283,1.55,1.25c0.167,1.3,0.5,1.917,1,1.85c1.667-0.267,2.9-1.517,3.7-3.75
	c0.366-1,0.783-1.817,1.25-2.45c0.566-0.8,1.133-1.3,1.7-1.5c1.366-0.333,2.133,0.15,2.3,1.45c0.167,1.5,0.45,2.25,0.85,2.25
	c1.334-0.167,2.367-1.083,3.101-2.75c0.1-0.2,0.183-0.4,0.25-0.6c0.833-2.033,1.767-3.217,2.8-3.55c1.133-0.434,1.833-0.034,2.1,1.2
	c0.301,1.267,0.65,1.883,1.051,1.85c1.066-0.1,1.899-0.667,2.5-1.7C122.033,66.35,122.15,66.1,122.25,65.8z"/>
</svg>
