<?xml version="1.0" encoding="utf-8"?>
<!-- Generator: Adobe Illustrator 16.0.0, SVG Export Plug-In . SVG Version: 6.00 Build 0)  -->
<!DOCTYPE svg PUBLIC "-//W3C//DTD SVG 1.1//EN" "http://www.w3.org/Graphics/SVG/1.1/DTD/svg11.dtd">
<svg version="1.1" id="Layer_1" xmlns="http://www.w3.org/2000/svg" xmlns:xlink="http://www.w3.org/1999/xlink" x="0px" y="0px"
	 width="300px" height="300px" viewBox="0 0 300 300" enable-background="new 0 0 300 300" xml:space="preserve">
<g>
	<path fill-rule="evenodd" clip-rule="evenodd" fill="#516BB3" d="M211.836,93.084c4.422-1.687,8.557-3.075,12.402-4.165
		c6.85-2.016,12.413-3.023,16.691-3.023c1.769,0,3.075,0.144,3.918,0.432c1.069,0.268,1.883,0.73,2.438,1.389l1.543,1.913
		c6.562,8.166,12.7,16.404,18.419,24.713l-5.955,16.074c-0.616-0.104-1.233-0.196-1.851-0.278c-0.412-0.082-0.822-0.144-1.234-0.185
		c-0.082,0-0.144-0.021-0.185-0.062c-1.954-7.015-3.518-12.896-4.69-17.648v-0.123c-0.843-3.044-2.098-6.119-3.764-9.225
		c-1.337-2.776-2.869-4.957-4.597-6.541c-2.077-2.098-4.31-3.147-6.695-3.147l-1.388,0.124l-24.498,4.844
		c-0.596-0.124-1.109-0.309-1.542-0.555c-0.309-0.186-0.587-0.432-0.833-0.741c-0.206-0.185-0.309-0.453-0.309-0.802
		c0-0.844,0.535-1.8,1.604-2.87L211.836,93.084z M251.79,90.523c5.573,4.566,11.683,12.434,18.326,23.603l-0.926-0.247
		c-1.439-2.099-2.982-4.289-4.628-6.572c-2.633-4.051-5.399-7.733-8.299-11.045c-1.07-1.357-2.14-2.746-3.209-4.165L251.79,90.523z
		 M283.167,138.746l-0.063,0.802c-0.102-0.35-0.256-0.679-0.462-0.987L283.167,138.746z M282.858,144.33l-0.154-0.03
		c0.062-0.474,0.134-0.946,0.216-1.42L282.858,144.33z M282.581,147.015c-0.329,1.439-0.679,2.808-1.05,4.103
		c0.288-1.521,0.587-3.208,0.896-5.06l0.277,0.124L282.581,147.015z M279.588,125.047v0.031l-0.37-0.679L279.588,125.047z
		 M274.929,126.22c1.358,2.242,2.562,4.371,3.61,6.387c0.534,0.987,1.008,1.933,1.419,2.838l-0.216-0.123l-0.216,0.463
		c-0.145-0.082-0.299-0.154-0.463-0.216c-1.049-0.597-2.294-1.162-3.733-1.697c-1.233-0.473-2.551-0.895-3.949-1.265l2.716-6.603
		L274.929,126.22z M225.534,174.535c-0.082,0.247,0,0.442,0.247,0.586l0.34,0.154h3.301c0.576,0,0.895-0.021,0.957-0.063
		c0.802-0.143,1.377-0.503,1.728-1.079c1.521-0.164,3.022-0.36,4.504-0.586l7.898,0.154l6.479-0.71
		c0.453-0.145,0.813-0.329,1.08-0.556c0.268-0.205,0.339-0.463,0.217-0.771l-0.032-0.185c-0.164-0.392-0.945-0.669-2.344-0.833
		c5.512-1.625,10.922-3.774,16.228-6.448c0.021,0.144,0.063,0.298,0.124,0.463c-0.268,0.679-0.566,1.378-0.895,2.098
		c-1.852,4.217-4.104,8.197-6.757,11.94h-59.792c0.473-0.494,0.813-1.132,1.018-1.913l-0.154-0.247l0.031-0.123l0.186,0.123
		c0.082-0.576,0.082-1.019,0-1.327l-0.648-0.309v-0.215l0.586,0.123c-0.021-0.226-0.164-0.576-0.432-1.049l-0.463-0.093v-0.216
		h0.309l-0.339-0.556l0.894,0.34v-0.186l-0.123-0.586l0.123-0.031c0.165,0.371,0.248,0.699,0.248,0.987l0.678,0.34l0.094-0.71h0.123
		v0.864c0.493,0.493,0.771,0.792,0.832,0.895c0.186-0.658,0.186-1.368,0-2.129l-0.339-0.03v-0.124
		c1.193,0.247,2.386,0.473,3.579,0.679C212.01,174.299,218.85,174.741,225.534,174.535z M206.745,139.702
		c-33.095,4.299-48.942,12.567-47.544,24.806c1.152,10.161,5.945,19.098,14.377,26.811c11.745,10.757,27.438,13.967,47.082,9.626
		c15.097-3.353,27.272-10.14,36.528-20.362c0.474-0.535,0.946-1.059,1.42-1.573c6.767-8.063,10.264-16.146,10.49-24.25
		c0.226-7.344-5.431-12.321-16.969-14.933c-10.285-2.324-23.716-2.571-40.294-0.741
		C210.088,139.291,208.391,139.497,206.745,139.702z M265.272,147.076c0.124,0.123,0.236,0.247,0.339,0.37
		c1.708,2.036,2.562,4.36,2.562,6.973v0.37c-0.063,2.14-0.422,4.371-1.08,6.695l-0.556-1.82c-0.945-3.209-1.851-6.294-2.715-9.256
		L265.272,147.076z M279.742,155.067c-1.521,7.074-3.229,11.96-5.122,14.654c-6.54,9.297-15.56,17.411-27.057,24.343
		c-12.506,7.466-25.146,11.775-37.918,12.927c-8.7,0.803-17.473-0.792-26.317-4.782c-8.31-3.723-15.107-8.803-20.394-15.24
		l-0.093,0.185c-0.802-0.658-1.779-1.759-2.931-3.302c-2.324-3.002-4.371-6.52-6.14-10.551c-0.309-0.967-1.039-1.975-2.19-3.023
		c-2.222-2.077-5.348-3.147-9.379-3.209c-1.357-0.165-2.879-0.031-4.566,0.401c-3.394,0.843-5.944,2.705-7.651,5.584
		c-3.292,9.544-10.531,17.164-21.72,22.862c-11.519,5.861-23.109,7.477-34.771,4.844c-13.144-3.004-25.166-8.423-36.067-16.26
		c-11.004-7.898-19.118-17-24.343-27.304c-1.501-3.004-2.54-7.354-3.116-13.051c-0.35-6.13-0.586-10.172-0.71-12.125
		c-0.309-4.155,4.731-7.035,15.118-8.639c10.901-1.77,24.507-1.543,40.818,0.679c9.811,1.274,20.064,3.62,30.759,7.034
		c13.781,4.422,25.228,9.78,34.339,16.074l7.682,3.271c6.314,1.419,12.434,0.175,18.357-3.733c0.987-0.679,2.428-1.512,4.32-2.499
		c3.723-2.016,7.877-3.898,12.463-5.646c14.748-5.595,30.863-8.721,48.347-9.379c16.517-0.679,31.048,0.268,43.595,2.839
		c12.073,2.427,17.822,5.368,17.246,8.823C280.904,148.927,280.051,153.668,279.742,155.067z M187.37,168.889
		c-0.185,0.082-0.392,0.186-0.617,0.309l0.556,0.309l-0.031,0.123l-0.771-0.246c-0.781,0.699-1.398,1.429-1.852,2.19l0.865-0.34
		c0.678-0.227,1.357-0.37,2.035-0.432l0.648-0.71l0.092,0.063l-0.432,0.647c0.432,0,0.751,0.03,0.957,0.092l0.555-0.463l0.093,0.124
		c-0.062,0.063-0.185,0.185-0.37,0.37l0.803,0.247c-0.289-0.041-0.598,0.093-0.926,0.401l0.802,0.246l-0.062,0.124l-0.895-0.154
		l-0.525,0.802h0.463v0.186c-0.205,0-0.4,0.051-0.586,0.154h-0.093c-0.246,0.658-0.431,1.666-0.555,3.023l0.802-1.142v-0.74
		l0.123-0.062l0.154,0.647l0.68-0.647l0.309-0.896l0.123,0.093l-0.123,0.556c0.391-0.227,0.688-0.36,0.895-0.401l0.309-0.771
		l0.092,0.063l-0.092,0.647c0.309-0.062,0.576-0.041,0.802,0.062l-0.093,0.186c-0.761,0.638-1.501,1.43-2.221,2.375
		c-0.658,0.885-1.215,1.811-1.666,2.777H172.53c0.411-0.844,0.863-1.636,1.356-2.376c1.379-1.934,3.857-4.515,7.437-7.744
		c0.493-0.452,0.966-0.905,1.419-1.357c0.555,0.206,1.162,0.442,1.82,0.71C185.488,168.262,186.424,168.58,187.37,168.889z
		 M198.601,178.7h-3.055c0.062-0.124,0.134-0.247,0.216-0.37l-0.092-0.587l0.123-0.093l0.154,0.401
		c0.186-0.411,0.34-0.874,0.462-1.388l-0.431-0.71l0.092-0.093l0.371,0.401c0.122-0.638,0.122-1.419,0-2.345l0.646,0.679
		l0.217-0.586l0.092,0.062l-0.092,0.74l0.524,0.863l0.37-0.679l0.123,0.094l-0.339,0.863l0.432,0.987l0.494-0.556l0.122,0.031
		c-0.144,0.164-0.318,0.493-0.523,0.987C198.59,177.938,198.621,178.371,198.601,178.7z M194.096,178.7h-4.937
		c0.411-1.255,1.028-2.355,1.851-3.302c0,0.144,0,0.298,0,0.463l0.463-0.309l0.094,0.123c-0.083,0.041-0.268,0.206-0.557,0.494
		l0.154,1.759l0.402-0.309c0.309-0.288,0.596-0.617,0.863-0.987l-0.217-0.771l0.124-0.093l0.247,0.556
		c0.287-0.432,0.514-0.874,0.679-1.327v-0.215l-0.309-0.771l0.093-0.093l0.4,0.679l0.278-0.926l0.37,0.864l0.679-0.401l0.093,0.093
		l-0.309,0.123l-0.34,0.433l0.094,0.956l0.678-0.525l0.063,0.093l-0.278,0.216l-0.462,0.525l-0.031,1.265
		c0.309-0.227,0.545-0.35,0.709-0.37l0.063,0.031c-0.351,0.226-0.648,0.523-0.895,0.895
		C194.096,178.135,194.075,178.412,194.096,178.7z M30.114,104.685c0.103-0.123,0.207-0.226,0.309-0.309l-0.585,0.648
		L30.114,104.685z M29.189,102.216c1.357-1.398,2.715-2.746,4.073-4.042c3.435-3.312,6.747-6.16,9.935-8.546
		c-0.391,0.309-0.761,0.617-1.111,0.926c-4.134,3.476-8.207,7.364-12.217,11.662H29.189z M57.234,82.286
		c1.111-0.535,2.417-0.802,3.918-0.802c2.53,0,5.687,0.709,9.472,2.128c4.71,1.893,9.513,4.34,14.408,7.343l6.695,4.381
		c0.514,0.987,0.771,1.851,0.771,2.592c0,0.432-0.103,0.74-0.309,0.925c-0.185,0.309-0.586,0.545-1.203,0.709
		c-0.35,0.062-0.833,0.093-1.45,0.093H89.32L66.675,88.641c-0.905-0.493-1.933-0.74-3.085-0.74c-2.036,0-4.216,0.884-6.541,2.653
		c-2.468,1.975-4.967,4.823-7.497,8.546c-1.357,1.913-2.437,3.6-3.24,5.06v0.062c-2.098,4.299-5.091,10.007-8.978,17.123
		c-0.884,0-1.769,0.031-2.653,0.093l-2.561-18.943c3.641-3.846,7.333-7.363,11.076-10.552c3.312-2.756,6.736-5.296,10.274-7.621
		L57.234,82.286z M167.994,178.576c-1.502,0.083-2.385,0.268-2.652,0.556c-0.639-1.131-1.225-2.283-1.759-3.456
		c-0.103-0.268-0.206-0.514-0.309-0.739c-0.987-2.305-1.739-4.474-2.253-6.511c-0.328-1.378-0.555-2.694-0.678-3.949l-0.124-1.357
		c0-1.419,0.267-2.776,0.802-4.072c0.658-1.542,1.677-3.014,3.055-4.412c0.227-0.227,0.473-0.452,0.74-0.679
		c0.021-0.021,0.041-0.052,0.063-0.093c8.063,7.303,13.029,11.364,14.901,12.188c-0.329,0.206-0.648,0.41-0.956,0.616
		c-2.324,1.522-4.494,3.477-6.51,5.862c-1.379,1.604-2.685,3.414-3.919,5.43c-0.062,0.145-0.196,0.381-0.401,0.71
		C168.015,178.607,168.015,178.576,167.994,178.576z M99.564,140.535c-0.864-0.37-1.738-0.709-2.623-1.018
		c-0.967-0.351-1.954-0.699-2.962-1.05c-5.286-1.707-11.075-3.146-17.37-4.319c-16.228-3.064-29.813-3.65-40.756-1.758
		c-12.053,2.077-17.535,6.767-16.445,14.068c0.494,3.146,1.214,6.181,2.16,9.102c0,0.041,0.01,0.082,0.031,0.123
		c0.021,0.062,0.042,0.124,0.062,0.186c0.617,1.871,1.327,3.713,2.129,5.522c4.073,1.81,8.217,3.343,12.434,4.598
		c-1.419,0.185-2.201,0.472-2.345,0.863l-0.093,0.154c-0.103,0.309-0.021,0.565,0.247,0.771c0.247,0.226,0.617,0.411,1.11,0.556
		l6.417,0.74l7.898-0.154c1.48,0.205,2.982,0.391,4.504,0.555c0.37,0.617,0.956,0.988,1.758,1.11
		c0.083,0.021,0.391,0.032,0.925,0.032h3.363l0.339-0.124c0.206-0.144,0.288-0.35,0.247-0.617
		c6.664,0.206,13.482-0.236,20.455-1.327c1.234-0.185,2.447-0.391,3.641-0.616v0.062l-0.37,0.093c-0.206,0.74-0.206,1.439,0,2.098
		c0.082-0.123,0.36-0.411,0.833-0.864v-0.895h0.093l0.124,0.679l0.648-0.339c0-0.288,0.103-0.617,0.309-0.987l0.124,0.062
		l-0.124,0.586v0.186l0.895-0.37l-0.34,0.616h0.247v0.154l-0.463,0.093c-0.227,0.494-0.36,0.854-0.401,1.08l0.617-0.093v0.154
		l-0.679,0.339c-0.062,0.309-0.062,0.762,0,1.358l0.154-0.124l0.093,0.124l-0.186,0.216c0.206,0.761,0.535,1.389,0.987,1.882H31.75
		c6.829,8.248,15.91,14.254,27.243,18.019c1.708,0.555,3.445,1.068,5.214,1.542c11.416,2.982,21.422,3.671,30.02,2.067
		c6.13-1.132,11.539-3.414,16.229-6.85c7.713-5.615,12.578-13.287,14.593-23.016c0.206-0.967,0.288-1.923,0.247-2.869
		c-0.494,2.242-1.306,4.689-2.437,7.343c-0.103,0.247-0.216,0.494-0.34,0.74c-0.534,1.173-1.131,2.324-1.789,3.456
		c-0.247-0.288-1.11-0.453-2.592-0.494c-0.062-0.041-0.083-0.021-0.062,0.062c-0.206-0.329-0.319-0.576-0.34-0.74
		c-1.254-1.995-2.56-3.795-3.918-5.399c-2.036-2.386-4.206-4.34-6.51-5.862c-0.329-0.206-0.659-0.421-0.987-0.647
		c1.666-0.74,5.79-4.032,12.372-9.873c-1.584-1.378-3.445-2.756-5.584-4.134c-1.481-0.987-3.044-1.924-4.689-2.808
		c-1.049-0.576-2.108-1.121-3.178-1.636c-0.185-0.082-0.37-0.154-0.555-0.216c-1.09-0.534-2.222-1.038-3.394-1.512
		c-0.227-0.103-0.453-0.205-0.679-0.309C100.263,140.782,99.914,140.659,99.564,140.535z M103.389,162.563
		c0.432,0.453,0.905,0.905,1.42,1.357c3.537,3.229,5.995,5.821,7.373,7.775c0.515,0.72,0.978,1.502,1.388,2.345H98.453
		c-0.411-0.967-0.966-1.893-1.666-2.776c-0.7-0.926-1.44-1.707-2.222-2.345l-0.062-0.186c0.247-0.123,0.524-0.154,0.833-0.093
		l-0.124-0.647l0.124-0.031l0.278,0.771c0.205,0.021,0.493,0.145,0.864,0.37l-0.093-0.556l0.093-0.092l0.309,0.895l0.74,0.648
		l0.124-0.648l0.124,0.062v0.771l0.833,1.172c-0.123-1.356-0.329-2.375-0.617-3.054h-0.03c-0.206-0.123-0.412-0.186-0.617-0.186
		v-0.154h0.494l-0.586-0.833l-0.154,0.062l-0.71,0.124l-0.031-0.124l0.741-0.216c-0.33-0.35-0.617-0.493-0.864-0.432l0.771-0.246
		c-0.165-0.207-0.298-0.34-0.401-0.401l0.154-0.124l0.494,0.463c0.206-0.021,0.535-0.03,0.987-0.03l-0.401-0.71l0.031-0.031
		l0.555,0.525l0.124,0.216c0.658,0.02,1.348,0.144,2.067,0.369l0.803,0.401c-0.432-0.802-1.029-1.553-1.79-2.252l-0.771,0.277
		l-0.093-0.123l0.586-0.309c-0.206-0.123-0.401-0.227-0.586-0.309c0.926-0.329,1.851-0.658,2.777-0.987
		C102.176,163.047,102.792,162.811,103.389,162.563z M90.555,174.041H87.5c-0.041-0.329-0.021-0.761,0.062-1.296
		c-0.206-0.473-0.36-0.781-0.462-0.926l0.124-0.092l0.493,0.555l0.401-0.926l-0.37-0.894l0.124-0.063l0.432,0.647l0.524-0.863
		l-0.093-0.771l0.093-0.062l0.154,0.617l0.647-0.648c-0.103,0.926-0.103,1.697,0,2.314l0.432-0.433l0.031,0.154l-0.37,0.68
		c0.103,0.514,0.257,0.966,0.463,1.357l0.124-0.34l0.092,0.062l-0.031,0.587C90.431,173.825,90.493,173.938,90.555,174.041z
		 M95.059,170.739c0.823,0.967,1.44,2.068,1.851,3.302h-4.875c0-0.288-0.031-0.556-0.093-0.802
		c-0.226-0.371-0.514-0.669-0.863-0.895l0.031-0.063c0.185,0.041,0.432,0.175,0.74,0.401l-0.093-1.296l-0.462-0.524l-0.216-0.154
		l0.031-0.124l0.647,0.494l0.124-0.956l-0.339-0.401l-0.278-0.093l0.031-0.123l0.709,0.37l0.37-0.864l0.309,0.957l0.339-0.648
		l0.124,0.031l-0.309,0.771v0.277c0.185,0.432,0.401,0.864,0.648,1.296l0.308-0.524l0.124,0.03l-0.247,0.771
		c0.288,0.412,0.586,0.74,0.895,0.987l0.339,0.309l0.216-1.759c-0.288-0.288-0.473-0.442-0.556-0.463l0.031-0.123l0.525,0.277
		C95.121,171.038,95.101,170.885,95.059,170.739z M21.97,122.856c-2.139,0.433-4.031,0.946-5.677,1.543
		c-0.062,0-0.113,0.011-0.154,0.031l-0.432-1.79c2.386-3.353,4.803-6.541,7.25-9.564l1.604,9.318
		c-0.103,0.021-0.206,0.051-0.309,0.092l-1.358,0.216c-0.062,0-0.123,0.011-0.185,0.031l-0.432,0.093
		C22.175,122.826,22.073,122.836,21.97,122.856z M16.2,114.033l-0.185-1.08h1.11C16.817,113.323,16.509,113.684,16.2,114.033z
		 M13.886,122.856l0.556,2.222c-0.124,0.062-0.257,0.113-0.401,0.154l-2.437,1.357c-0.268,0.186-0.504,0.35-0.71,0.494l-0.308,0.277
		l0.647-4.042L13.886,122.856z M19.439,112.953h1.204c-2.036,2.53-4.042,5.163-6.016,7.898l-1.759,0.339l0.031-0.062
		C15.1,118.249,17.28,115.524,19.439,112.953z M27.523,139.085l-6.355,11.354c-0.021-0.021-0.031-0.042-0.031-0.063
		c-0.206-0.863-0.381-1.748-0.524-2.653c-0.062-0.329-0.113-0.647-0.154-0.956c-0.042-0.145-0.072-0.278-0.093-0.401l-0.123-1.573
		c0-1.954,0.668-3.764,2.005-5.43c0.309-0.329,0.658-0.658,1.049-0.987l2.622-1.82c0.33-0.186,0.689-0.36,1.08-0.524L27.523,139.085
		z"/>
	<path fill-rule="evenodd" clip-rule="evenodd" fill="#F4D98A" d="M234.667,146.552c-1.028-0.453-2.006-0.247-2.932,0.617
		c-0.309-0.329-0.761-0.597-1.356-0.803c-1.152-0.432-2.377-0.318-3.672,0.34l2.252,0.309c1.543,0.391,2.438,1.08,2.685,2.066
		l1.141-1.233c0.926-0.762,1.976-0.896,3.147-0.401C235.603,147.035,235.181,146.736,234.667,146.552z M220.999,139.795
		c0.103,0,0.206,0,0.309,0c6.705,0,12.938,0.956,18.696,2.869c2.592,0.864,5.091,1.923,7.498,3.178
		c-5.349,0.638-7.816,1.368-7.405,2.19c0.144,0.288,0.792,0.7,1.943,1.234c1.029,0.452,1.553,0.895,1.573,1.327
		c0.104,0.802-1.583,1.337-5.059,1.604c-1.543,0.145-2.839,0.299-3.888,0.463c-2.077,0.351-3.229,0.833-3.456,1.45
		c-0.309,1.111,1.368,1.8,5.029,2.067c0.596,0.082,3.641,0.154,9.133,0.216c5.203,0.103,7.825,0.432,7.867,0.987
		c0,0.287-0.36,0.699-1.08,1.234c-0.432,0.35-0.247,0.72,0.555,1.11c0.721,0.37,1.78,0.586,3.179,0.647
		c0.802,0.063,1.912,0.063,3.332,0l5.43,0.124c-0.391-0.535-0.751-1.069-1.08-1.604c0.576,0.74,1.142,1.502,1.697,2.283
		c0.267,0.987,0.555,1.995,0.863,3.023c-5.306,2.674-10.716,4.823-16.228,6.448c-0.741-0.104-1.667-0.164-2.777-0.185
		c-2.509-0.104-3.28-0.422-2.313-0.957c0.288-0.164,0.802-0.35,1.542-0.556c0.597-0.226,0.813-0.524,0.648-0.895
		c-0.288-0.576-1.316-0.956-3.086-1.142l-2.591-0.093c-1.851-0.268-3.744-0.216-5.677,0.154c-2.469,0.37-2.469,1.132,0,2.283
		c1.11,0.556-0.71,0.854-5.461,0.896c-5.43,0.021-8.269,0.39-8.516,1.11c-0.164,0.596,0.145,1.069,0.926,1.419
		c0.576,0.288,1.553,0.515,2.931,0.679l0.771,0.062c0.083,0,0.165,0.011,0.247,0.031c0.062,0.082,0.072,0.154,0.031,0.216
		c-0.021,0.062-0.113,0.113-0.278,0.154c-0.206,0.062-0.329,0.093-0.37,0.093c-0.247,0.103-0.381,0.288-0.401,0.556
		c0,0.021,0,0.041,0,0.062c-6.685,0.206-13.524-0.236-20.517-1.327c-1.193-0.206-2.386-0.432-3.579-0.679l0.278-0.062
		c-0.104-0.391-0.299-0.74-0.587-1.049l-0.71-0.063v-0.185h0.494c-0.411-0.392-0.915-0.729-1.512-1.018l-1.296,0.309v-0.154
		l0.803-0.34l-1.697-0.34l0.647-0.463l-0.092-0.123l-0.371-0.186l0.063-0.123c0.328,0.123,0.545,0.236,0.647,0.34
		c0.309-0.083,0.576-0.093,0.803-0.031l-0.463-0.463l0.062-0.154l0.523,0.37l0.248,0.278l0.863,0.432
		c0-0.227-0.041-0.411-0.123-0.556l0.123-0.03l0.277,0.709l1.08,0.926c0.186-0.699,0.031-1.419-0.463-2.16h-0.463v-0.123l0.34-0.062
		c-0.165-0.185-0.535-0.524-1.111-1.019l-0.894,0.247l-0.187,0.093l-0.092-0.093l0.863-0.401l-0.463-0.216
		c-0.492-0.185-0.996-0.277-1.511-0.277l-0.309,0.309l-0.34,0.524h-0.122l0.431-0.771c-0.72,0.082-1.315,0.36-1.789,0.833
		l0.124,0.617l0.123,0.216l-0.123,0.031l-0.309-0.556c-0.289,0.268-0.516,0.71-0.68,1.327c-0.061-0.392-0.226-0.813-0.493-1.266
		l-0.309,0.617l-0.062-0.031l0.154-0.863c-0.412-0.576-0.947-1.039-1.605-1.388l0.217,1.048l-0.063,0.093l-0.586-1.326
		c-0.596-0.227-1.172-0.37-1.728-0.432l0.617,0.894l-0.124,0.093l-1.141-1.049c-0.721-0.082-1.449-0.062-2.19,0.063l0.647,1.079
		l0.648,0.679l1.265-0.216l0.062,0.123l-0.895,0.309c0.412,0.165,1.039,0.319,1.882,0.463l0.062,0.093l0.834-0.247l0.061,0.124
		l-0.617,0.216c0.494,0.186,0.916,0.422,1.266,0.709h0.709l-0.092,0.093l-0.371,0.093c0.186,0.145,0.36,0.37,0.525,0.679
		c-0.782-0.534-1.707-0.915-2.777-1.142l0.525,0.586l-0.063,0.031l-1.049-0.709c-0.576-0.063-1.08-0.031-1.512,0.092l0.432,0.37
		l-0.062,0.124l-0.71-0.463c-0.164,0.062-0.369,0.154-0.616,0.277c-0.946-0.309-1.882-0.627-2.808-0.956
		c-0.658-0.268-1.266-0.504-1.82-0.71c2.715-2.592,4.669-4.741,5.861-6.448c1.111-1.666,1.965-2.962,2.561-3.887
		c0,0.041,0,0.092,0,0.154l0.896-0.556c0.103-0.041,0.164-0.041,0.185,0c0.082,0.041,0.082,0.113,0,0.216l-0.986,0.987
		c0.041,0.74,0.226,1.738,0.555,2.992l0.863-0.863c0.021-0.063,0.072-0.063,0.154,0c0.083,0.021,0.104,0.071,0.063,0.154
		c-0.309,0.35-0.566,0.843-0.771,1.48c0.452,1.193,1.049,2.417,1.789,3.672c0.638-0.782,1.184-2.016,1.636-3.702
		c-0.329-0.72-0.659-1.255-0.987-1.604c0.041-0.206,0.082-0.277,0.123-0.216c0.247,0.164,0.617,0.504,1.111,1.018
		c0.246-1.296,0.391-2.438,0.432-3.424l-0.246-0.494c-0.309-0.494-0.721-0.998-1.234-1.512c-0.042-0.062-0.031-0.123,0.03-0.186
		c0.062-0.082,0.134-0.103,0.216-0.062l1.297,1.234l-0.063-2.314l0.401,0.37c0.37,0.35,0.72,0.762,1.049,1.234
		c0.288-0.514,0.699-0.977,1.234-1.389c0.081-0.082,0.133-0.082,0.153,0c0.041,0.063,0.041,0.134,0,0.217l-0.493,0.555l-0.524,1.173
		l1.018,1.943c0.35-0.699,0.71-1.254,1.08-1.666c0.082-0.082,0.154-0.082,0.217,0c0.041,0.062,0.041,0.124,0,0.186l-0.34,0.556
		l-0.74,1.573c0.369,0.967,0.658,1.943,0.863,2.931c0.391-0.638,0.803-1.162,1.234-1.573c0.082-0.083,0.154-0.083,0.216,0
		c0.062,0.062,0.052,0.134-0.03,0.216c-0.289,0.329-0.71,1.162-1.266,2.499c0.412,1.954,1.131,3.415,2.16,4.381
		c0.679-0.884,1.213-2.098,1.604-3.641c0.391,0.515,0.844,1.028,1.358,1.543c2.427,2.427,5.399,3.641,8.916,3.641
		c3.476,0,6.438-1.214,8.886-3.641c2.468-2.489,3.702-5.472,3.702-8.947s-1.234-6.459-3.702-8.947
		c-2.448-2.489-5.41-3.733-8.886-3.733c-1.049,0-2.047,0.113-2.993,0.34c-0.205-0.124-0.411-0.258-0.617-0.401
		c-0.534,0.041-1.09,0.164-1.666,0.37c-0.061,0.021-0.112-0.021-0.154-0.123c-0.041-0.083-0.02-0.145,0.063-0.186l1.049-0.463
		c-1.111-0.556-2.427-0.895-3.949-1.018l-2.684,1.573c-0.083,0.082-0.124,0.01-0.124-0.216c0.288-0.206,0.71-0.576,1.265-1.11
		c1.79-0.535,3.651-0.987,5.584-1.358c0.227,0.083,0.453,0.175,0.68,0.278c-0.021-0.104-0.041-0.236-0.063-0.401
		C214.016,140.093,217.441,139.815,220.999,139.795z M258.608,178.7c-0.041,0.021-0.072,0.062-0.093,0.123
		c-1.871,2.118-3.332,3.62-4.381,4.505c-1.069,0.863-3.261,2.54-6.571,5.028c-7.549,5.574-16.507,9.492-26.872,11.755
		c-5.431,1.192-10.625,1.789-15.581,1.789c-14.192,0-25.536-4.864-34.03-14.593c-0.309-0.329-0.587-0.658-0.833-0.987
		c0.124-0.863,0.288-1.697,0.493-2.499c0.432-1.872,1.029-3.579,1.79-5.121h15.087c-1.256,2.92-1.43,6.283-0.525,10.088v0.031
		l2.5-0.277c-0.721-1.79-1.05-3.785-0.988-5.985c0-1.419,0.186-2.705,0.556-3.856h4.937c0,0.391,0.104,0.802,0.309,1.233
		c0.411-0.288,0.791-0.698,1.142-1.233h3.055c0,0.082-0.011,0.164-0.031,0.247c0.103-0.083,0.186-0.165,0.247-0.247H258.608z
		 M234.111,161.7c-0.72-0.268-1.367-0.134-1.943,0.4c-0.206-0.226-0.504-0.4-0.895-0.523c-0.803-0.288-1.646-0.216-2.53,0.215
		l1.542,0.217c1.008,0.267,1.604,0.74,1.79,1.419l0.74-0.864c0.638-0.514,1.368-0.597,2.191-0.246
		C234.78,162.05,234.481,161.845,234.111,161.7z M188.326,143.96c0.453,0.103,0.905,0.216,1.357,0.34
		c0.165-0.124,0.648-0.278,1.45-0.463c0.124-0.063,0.165,0.03,0.124,0.277l-0.988,0.401c0.699,0.308,1.286,0.72,1.76,1.233
		c-2.181-0.658-4.535-0.813-7.066-0.463l1.666,0.771c0.124,0.083,0.082,0.186-0.123,0.309l-2.808-0.833
		c-1.09,0.227-2.181,0.689-3.271,1.389l1.234,0.524c0.082,0,0.123,0.052,0.123,0.154c-0.062,0.082-0.123,0.123-0.186,0.123
		l-1.819-0.432c-0.843,0.576-1.604,1.296-2.283,2.159c0.967,0.104,1.46,0.154,1.48,0.154c0.124,0.206,0.124,0.309,0,0.309
		l-1.943,0.217c-1.09,1.707-1.851,3.753-2.283,6.14l1.573-1.389c1.338-1.049,2.716-1.871,4.135-2.468l0.895-2.067
		c0.205,0,0.288,0.03,0.246,0.093c-0.082,0.185-0.215,0.74-0.4,1.666c0.822-0.309,1.502-0.504,2.037-0.587
		c0.123-0.268,0.421-0.729,0.895-1.388c0.041-0.063,0.102-0.083,0.185-0.063c0.082,0.041,0.113,0.104,0.093,0.186l-0.525,1.172
		c0.885-0.082,1.543-0.123,1.975-0.123c-0.596,0.186-1.151,0.71-1.666,1.574c0.206,0,0.443,0,0.711,0
		c0.328,0.021,0.709,0.051,1.141,0.092c0.104-0.062,0.123,0.011,0.063,0.217l-1.82,0.215l-0.402,0.124
		c-0.041,0.123-0.092,0.257-0.154,0.4c-0.144,0.515-0.268,1.111-0.369,1.79l1.203-0.37c0.062,0,0.092,0.041,0.092,0.123
		c0.063,0.062,0.052,0.123-0.03,0.186c-0.329,0.185-0.751,0.483-1.265,0.895l-0.031,0.062c-0.082,1.646,0.123,3.548,0.617,5.708
		c-1.316,1.398-2.705,2.643-4.165,3.733c-1.872-0.823-6.839-4.885-14.901-12.188c3.783-3.332,9.729-6.16,17.832-8.484
		C184.5,144.886,186.372,144.412,188.326,143.96z M188.326,156.116c-0.596,1.131-1.307,2.262-2.129,3.394
		c-0.246,0.37-0.514,0.74-0.802,1.11l-0.741-1.789c-0.02-0.062,0.011-0.113,0.094-0.154c0.082-0.041,0.144-0.021,0.185,0.062
		c0.103,0.206,0.339,0.638,0.71,1.296l1.11-2.067l-0.124-2.036c0.206-0.186,0.309-0.216,0.309-0.093l0.278,1.45
		C187.545,156.856,187.914,156.466,188.326,156.116z M189.221,154.265c-0.144,0.288-0.277,0.565-0.4,0.833
		c-0.021-0.432-0.011-0.864,0.03-1.296c0-0.082,0.042-0.123,0.124-0.123s0.144,0.041,0.185,0.123
		C189.159,153.925,189.18,154.079,189.221,154.265z M59.239,149.914c-0.021,0.021-0.051,0.041-0.092,0.063c0.041,0,0.072,0,0.092,0
		c-0.062,0.452-0.092,0.915-0.092,1.388c0,3.497,1.245,6.479,3.733,8.947c2.448,2.469,5.399,3.703,8.854,3.703
		c3.518,0,6.51-1.234,8.978-3.703c0.494-0.493,0.926-1.008,1.296-1.542c0.391,1.542,0.946,2.776,1.666,3.702
		c1.028-1.008,1.738-2.479,2.128-4.412c-0.535-1.316-0.946-2.149-1.234-2.499c-0.082-0.062-0.113-0.134-0.092-0.216
		c0.082-0.082,0.175-0.082,0.278,0c0.411,0.411,0.822,0.926,1.234,1.543c0.185-0.946,0.452-1.913,0.802-2.9l-0.679-1.604
		l-0.37-0.556c-0.041-0.062-0.041-0.113,0-0.154c0.082-0.062,0.165-0.062,0.247,0c0.329,0.392,0.679,0.946,1.048,1.666l1.019-1.975
		l-0.524-1.172l-0.494-0.556c-0.041-0.082-0.041-0.154,0-0.216c0.042-0.083,0.103-0.083,0.186,0
		c0.514,0.432,0.915,0.905,1.203,1.419c0.35-0.473,0.7-0.885,1.049-1.234l0.401-0.339l-0.031,2.313l1.265-1.295
		c0.103-0.021,0.165,0.01,0.185,0.092c0.082,0.083,0.113,0.134,0.093,0.154c-0.515,0.535-0.947,1.039-1.296,1.512l-0.216,0.525
		c0.041,0.966,0.185,2.107,0.432,3.424c0.514-0.514,0.884-0.843,1.111-0.987c0.041-0.082,0.082-0.03,0.124,0.154
		c-0.309,0.35-0.648,0.885-1.019,1.604c0.494,1.687,1.049,2.932,1.666,3.733c0.761-1.255,1.358-2.469,1.789-3.641
		c-0.206-0.658-0.463-1.162-0.771-1.512c-0.041-0.082-0.021-0.145,0.062-0.186c0.062-0.041,0.124-0.041,0.185,0l0.802,0.926
		c0.371-1.296,0.576-2.314,0.617-3.054l-1.049-0.988c-0.062-0.082-0.062-0.154,0-0.216c0.062-0.021,0.134-0.021,0.216,0l0.864,0.556
		c0-0.062,0-0.103,0-0.123c0.597,0.926,1.471,2.211,2.623,3.856c1.193,1.706,3.147,3.856,5.862,6.447
		c-0.597,0.247-1.213,0.483-1.851,0.71c-0.926,0.329-1.851,0.658-2.777,0.987c-0.247-0.123-0.463-0.205-0.648-0.246l-0.709,0.462
		l-0.062-0.123l0.432-0.433c-0.453-0.123-0.957-0.144-1.512-0.061l-1.049,0.709l-0.062-0.062l0.524-0.587
		c-1.049,0.227-1.974,0.628-2.777,1.204c0.165-0.35,0.35-0.597,0.556-0.741l-0.432-0.03l-0.062-0.124h0.709
		c0.371-0.287,0.782-0.534,1.234-0.74l-0.555-0.216l0.031-0.123l0.833,0.247l0.062-0.063c0.863-0.144,1.491-0.309,1.882-0.493
		l-0.895-0.278l0.093-0.092l1.204,0.154l0.678-0.68l0.648-1.018c-0.741-0.123-1.47-0.154-2.19-0.093l-1.11,1.019l-0.124-0.063
		l0.586-0.863c-0.555,0.021-1.121,0.154-1.697,0.401l-0.617,1.296l-0.063-0.063l0.247-1.079c-0.678,0.37-1.234,0.854-1.666,1.45
		l0.154,0.802l-0.031,0.062l-0.309-0.647c-0.288,0.473-0.442,0.915-0.463,1.326c-0.205-0.658-0.452-1.11-0.74-1.357l-0.247,0.587
		l-0.124-0.093l0.124-0.216l0.092-0.587c-0.473-0.473-1.06-0.761-1.758-0.864l0.432,0.771h-0.154l-0.34-0.493l-0.277-0.309
		c-0.515,0-1.019,0.083-1.512,0.247l-0.463,0.216l0.802,0.432l-0.062,0.124l-0.154-0.124l-0.895-0.247
		c-0.597,0.474-0.967,0.813-1.111,1.019l0.339,0.031v0.123h-0.463c-0.514,0.761-0.679,1.481-0.493,2.16l1.08-0.896l0.309-0.74
		l0.123,0.093c-0.082,0.103-0.123,0.277-0.123,0.524l0.802-0.401l0.309-0.308l0.462-0.371l0.092,0.123l-0.431,0.463
		c0.205-0.021,0.462,0.011,0.771,0.093c0.123-0.144,0.339-0.268,0.648-0.37l0.092,0.123l-0.401,0.154l-0.124,0.124l0.679,0.493
		l-1.666,0.34l0.771,0.34v0.154l-1.327-0.34c-0.576,0.309-1.06,0.657-1.45,1.049h0.463v0.185l-0.679,0.031
		c-0.288,0.309-0.493,0.669-0.617,1.08l0.309,0.062v0.031c-1.193,0.226-2.406,0.432-3.641,0.616
		c-6.973,1.091-13.791,1.533-20.455,1.327v-0.03c-0.062-0.288-0.206-0.463-0.432-0.525c-0.021,0-0.134-0.041-0.339-0.123
		c-0.165-0.062-0.268-0.123-0.309-0.186c-0.041-0.041-0.021-0.092,0.062-0.154c0.083-0.062,0.165-0.092,0.247-0.092l0.771-0.031
		c1.357-0.186,2.314-0.4,2.869-0.647c0.802-0.37,1.121-0.844,0.957-1.42s-1.975-0.936-5.43-1.079
		c-0.905-0.062-1.944-0.093-3.116-0.093c-4.73-0.021-6.53-0.318-5.399-0.895c2.427-1.111,2.427-1.862,0-2.253
		c-1.954-0.369-3.856-0.432-5.708-0.185l-2.623,0.092c-1.769,0.206-2.797,0.587-3.085,1.143c-0.144,0.411,0.093,0.729,0.71,0.956
		c0.741,0.164,1.234,0.339,1.481,0.524c1.007,0.535,0.246,0.854-2.283,0.957c-1.09,0.041-2.006,0.092-2.746,0.154
		c-4.216-1.255-8.361-2.788-12.434-4.598c-0.802-1.81-1.512-3.651-2.129-5.522l5.245-0.093c1.419,0.021,2.52,0.021,3.302,0
		c1.419-0.082,2.488-0.309,3.208-0.679c0.802-0.411,0.967-0.781,0.494-1.11c-0.7-0.556-1.049-0.977-1.049-1.265
		c0.041-0.535,2.674-0.864,7.898-0.988c5.471-0.041,8.516-0.092,9.133-0.154c3.661-0.287,5.327-0.986,4.998-2.098
		c-0.226-0.637-1.368-1.131-3.424-1.48c-1.049-0.165-2.355-0.319-3.919-0.463c-3.476-0.247-5.172-0.762-5.09-1.543
		c0.062-0.432,0.586-0.885,1.574-1.357c1.152-0.556,1.81-0.977,1.974-1.265c0.432-0.823-2.036-1.543-7.404-2.16
		c2.263-1.172,4.597-2.17,7.004-2.992c4.216-1.461,8.679-2.396,13.39-2.808c1.893-0.186,3.826-0.278,5.8-0.278
		c1.419,0,2.828,0.052,4.227,0.154c2.16,0.124,4.278,0.37,6.355,0.741c-0.042,0.123-0.062,0.246-0.062,0.37
		c0.247-0.104,0.473-0.195,0.679-0.278c1.913,0.371,3.784,0.813,5.615,1.327c0.535,0.555,0.946,0.936,1.234,1.142
		c0,0.227-0.041,0.309-0.124,0.247l-2.653-1.636c-1.543,0.145-2.869,0.493-3.98,1.049l1.049,0.463
		c0.083,0.021,0.113,0.072,0.093,0.154c-0.062,0.123-0.134,0.165-0.216,0.123c-0.535-0.185-1.08-0.308-1.635-0.37
		c-0.206,0.145-0.401,0.288-0.586,0.433c-0.946-0.227-1.964-0.34-3.055-0.34c-3.455,0-6.406,1.245-8.854,3.733
		C60.762,144.546,59.548,147.035,59.239,149.914z M97.774,151.457c0.412,0.391,0.781,0.803,1.11,1.234l0.309-1.481
		c0-0.144,0.103-0.123,0.309,0.062l-0.154,2.067l1.142,2.037c0.329-0.659,0.565-1.08,0.709-1.266
		c0.021-0.082,0.083-0.113,0.185-0.093c0.083,0.062,0.093,0.134,0.031,0.216l-0.679,1.759c-0.288-0.391-0.576-0.761-0.863-1.11
		C99.049,153.729,98.35,152.589,97.774,151.457z M97.25,150.439c-0.124-0.268-0.247-0.535-0.371-0.803
		c0.021-0.165,0.031-0.319,0.031-0.463c0.062-0.062,0.124-0.093,0.186-0.093c0.082,0,0.123,0.031,0.123,0.093
		C97.281,149.605,97.291,150.027,97.25,150.439z M108.418,144.577c1.646,0.884,3.208,1.82,4.689,2.808
		c2.139,1.378,4,2.756,5.584,4.134c-6.582,5.841-10.706,9.133-12.372,9.873c-1.481-1.049-2.859-2.283-4.134-3.702
		c0.473-2.181,0.678-4.083,0.617-5.708l-0.062-0.062c-0.514-0.432-0.925-0.74-1.234-0.926c-0.082-0.021-0.113-0.071-0.092-0.154
		c0-0.082,0.041-0.123,0.123-0.123l1.203,0.4c-0.082-0.72-0.215-1.337-0.4-1.851c-0.021-0.124-0.062-0.258-0.124-0.4l-2.222-0.34
		c-0.082-0.206-0.051-0.277,0.093-0.216c0.432-0.041,0.802-0.062,1.11-0.062c0.268-0.021,0.494-0.031,0.679-0.031
		c-0.515-0.844-1.07-1.368-1.666-1.574c0.452,0,1.121,0.042,2.005,0.124l-0.494-1.11c-0.042-0.104-0.031-0.176,0.031-0.217
		c0.082-0.041,0.154-0.021,0.216,0.063c0.473,0.658,0.761,1.11,0.864,1.357c0.576,0.082,1.275,0.288,2.098,0.617
		c-0.206-0.926-0.349-1.491-0.431-1.697c-0.021-0.062,0.051-0.093,0.215-0.093l0.895,2.067c1.439,0.597,2.828,1.429,4.165,2.499
		l1.604,1.357c-0.432-2.365-1.203-4.401-2.314-6.108l-1.943-0.247c-0.124,0-0.124-0.093,0-0.278c0.041,0,0.524-0.062,1.45-0.185
		C108.532,144.711,108.48,144.639,108.418,144.577z M104.686,142.726c0.185,0.062,0.37,0.134,0.555,0.216l-0.74,0.154
		c-0.083,0-0.134-0.041-0.154-0.123c0-0.123,0.041-0.186,0.123-0.186L104.686,142.726z M100.612,140.905
		c0.227,0.104,0.453,0.206,0.679,0.309l-1.666,0.494c-0.206-0.104-0.247-0.186-0.124-0.247L100.612,140.905z M87.253,174.041
		c0.082,0.083,0.175,0.165,0.278,0.247c-0.021-0.082-0.031-0.164-0.031-0.247h3.055c0.35,0.576,0.741,0.997,1.172,1.265
		c0.185-0.432,0.288-0.853,0.309-1.265h4.875c0.391,1.172,0.597,2.458,0.617,3.856c0.021,2.201-0.329,4.217-1.049,6.047l2.53,0.216
		c0.905-3.825,0.72-7.198-0.556-10.119h15.118c0.761,1.543,1.368,3.26,1.821,5.152c0.205,0.802,0.371,1.636,0.493,2.499
		c-0.288,0.35-0.565,0.689-0.833,1.019c-5.677,6.479-12.619,10.798-20.826,12.958c-8.598,1.604-18.604,0.915-30.02-2.067
		c-1.769-0.474-3.506-0.987-5.214-1.542c-11.333-3.765-20.414-9.771-27.243-18.019H87.253z M96.941,139.518
		c0.884,0.309,1.758,0.647,2.623,1.018c-1.913-0.144-3.734,0.062-5.461,0.617c0.473-0.514,1.039-0.946,1.697-1.296l-0.925-0.37
		c-0.041-0.227,0-0.329,0.124-0.309c0.761,0.206,1.244,0.36,1.45,0.463C96.612,139.579,96.776,139.538,96.941,139.518z
		 M49.459,168.92l3.918-0.063c0.103,0.021,0.298,0.206,0.586,0.556v0.062C52.441,169.311,50.94,169.125,49.459,168.92z
		 M54.426,144.453c0.288-0.987,1.183-1.687,2.684-2.098l2.283-0.246c-0.124-0.083-0.257-0.145-0.401-0.186
		c-1.152-0.515-2.242-0.586-3.271-0.216c-0.576,0.205-1.028,0.493-1.357,0.863c-0.905-0.884-1.873-1.101-2.9-0.647
		c-0.515,0.186-0.946,0.473-1.296,0.863c1.173-0.452,2.232-0.309,3.178,0.433L54.426,144.453z M53.995,158.77
		c0.206-0.68,0.823-1.151,1.851-1.419l1.542-0.154c-0.926-0.433-1.769-0.515-2.53-0.247c-0.412,0.103-0.709,0.288-0.895,0.556
		c-0.617-0.576-1.275-0.721-1.975-0.433c-0.35,0.145-0.638,0.34-0.864,0.587c0.823-0.309,1.542-0.207,2.16,0.308L53.995,158.77z"/>
	<path fill-rule="evenodd" clip-rule="evenodd" fill="#E79A24" d="M220.999,139.795c-4.36-0.227-9.111-0.257-14.254-0.093
		c1.646-0.205,3.343-0.411,5.091-0.617c16.578-1.83,30.009-1.583,40.294,0.741c11.538,2.611,17.194,7.589,16.969,14.933
		c-0.227,8.104-3.724,16.187-10.49,24.25l-0.093-0.186c0.021-0.062,0.052-0.103,0.093-0.123c2.653-3.743,4.905-7.724,6.757-11.94
		c0.328-0.72,0.627-1.419,0.895-2.098c-0.062-0.165-0.104-0.319-0.124-0.463c-0.309-1.028-0.597-2.036-0.863-3.023
		c-0.556-0.781-1.121-1.543-1.697-2.283c0.329,0.535,0.689,1.069,1.08,1.604l-5.43-0.124c-1.42,0.063-2.53,0.063-3.332,0
		c-1.398-0.062-2.458-0.277-3.179-0.647c-0.802-0.391-0.986-0.761-0.555-1.11c0.72-0.535,1.08-0.947,1.08-1.234
		c-0.042-0.556-2.664-0.885-7.867-0.987c-5.492-0.062-8.537-0.134-9.133-0.216c-3.661-0.268-5.338-0.956-5.029-2.067
		c0.227-0.617,1.379-1.1,3.456-1.45c1.049-0.164,2.345-0.318,3.888-0.463c3.476-0.267,5.162-0.802,5.059-1.604
		c-0.021-0.433-0.544-0.875-1.573-1.327c-1.151-0.534-1.8-0.946-1.943-1.234c-0.411-0.822,2.057-1.553,7.405-2.19
		c-2.407-1.255-4.906-2.313-7.498-3.178c-5.759-1.913-11.991-2.869-18.696-2.869C221.205,139.795,221.102,139.795,220.999,139.795z
		 M249.908,170.647c1.398,0.164,2.18,0.441,2.344,0.833l0.032,0.185c0.122,0.309,0.051,0.566-0.217,0.771
		c-0.268,0.227-0.627,0.411-1.08,0.556l-6.479,0.71l-7.898-0.154l-3.918-0.093c-0.103,0.062-0.277,0.268-0.524,0.617l-0.062,0.062
		c-0.351,0.576-0.926,0.937-1.728,1.079c-0.063,0.041-0.381,0.063-0.957,0.063h-3.301l-0.34-0.154
		c-0.247-0.144-0.329-0.339-0.247-0.586c0-0.021,0-0.041,0-0.062c0.021-0.268,0.154-0.453,0.401-0.556
		c0.041,0,0.164-0.031,0.37-0.093c0.165-0.041,0.257-0.093,0.278-0.154c0.041-0.062,0.03-0.134-0.031-0.216
		c-0.082-0.021-0.164-0.031-0.247-0.031l-0.771-0.062c-1.378-0.164-2.354-0.391-2.931-0.679c-0.781-0.35-1.09-0.823-0.926-1.419
		c0.247-0.721,3.086-1.09,8.516-1.11c4.751-0.041,6.571-0.34,5.461-0.896c-2.469-1.151-2.469-1.913,0-2.283
		c1.933-0.37,3.826-0.422,5.677-0.154l2.591,0.093c1.77,0.186,2.798,0.565,3.086,1.142c0.164,0.37-0.052,0.669-0.648,0.895
		c-0.74,0.206-1.254,0.392-1.542,0.556c-0.967,0.535-0.195,0.854,2.313,0.957C248.241,170.483,249.167,170.544,249.908,170.647z
		 M265.272,147.076l-1.45,3.332c0.864,2.962,1.77,6.047,2.715,9.256l0.556,1.82c0.658-2.324,1.018-4.556,1.08-6.695v-0.37
		c0-2.612-0.854-4.937-2.562-6.973C265.509,147.323,265.396,147.199,265.272,147.076z M262.526,144.762v-0.03
		c-0.02,0-0.05,0-0.093,0C262.477,144.732,262.507,144.743,262.526,144.762z M53.964,169.475v-0.062
		c-0.288-0.35-0.483-0.534-0.586-0.556l-3.918,0.063l-7.898,0.154l-6.417-0.74c-0.493-0.145-0.864-0.33-1.11-0.556
		c-0.268-0.206-0.35-0.463-0.247-0.771l0.093-0.154c0.144-0.392,0.925-0.679,2.345-0.863c0.74-0.063,1.656-0.113,2.746-0.154
		c2.529-0.104,3.291-0.422,2.283-0.957c-0.247-0.186-0.741-0.36-1.481-0.524c-0.617-0.227-0.854-0.545-0.71-0.956
		c0.288-0.556,1.317-0.937,3.085-1.143l2.623-0.092c1.851-0.247,3.754-0.185,5.708,0.185c2.427,0.391,2.427,1.142,0,2.253
		c-1.131,0.576,0.669,0.874,5.399,0.895c1.172,0,2.211,0.031,3.116,0.093c3.456,0.144,5.266,0.503,5.43,1.079
		s-0.154,1.05-0.957,1.42c-0.555,0.247-1.512,0.462-2.869,0.647l-0.771,0.031c-0.083,0-0.165,0.03-0.247,0.092
		c-0.082,0.063-0.103,0.113-0.062,0.154c0.041,0.063,0.144,0.124,0.309,0.186c0.206,0.082,0.319,0.123,0.339,0.123
		c0.227,0.063,0.371,0.237,0.432,0.525v0.03c0.041,0.268-0.041,0.474-0.247,0.617l-0.339,0.124h-3.363
		c-0.534,0-0.843-0.012-0.925-0.032C54.92,170.463,54.333,170.092,53.964,169.475z M93.979,138.468
		c-8.762-2.036-17.082-3.095-24.959-3.178c-1.399-0.103-2.808-0.154-4.227-0.154c-1.975,0-3.908,0.093-5.8,0.278
		c-4.71,0.411-9.173,1.347-13.39,2.808c-2.407,0.822-4.741,1.82-7.004,2.992c5.368,0.617,7.836,1.337,7.404,2.16
		c-0.165,0.288-0.822,0.709-1.974,1.265c-0.987,0.473-1.512,0.926-1.574,1.357c-0.082,0.781,1.615,1.296,5.09,1.543
		c1.564,0.144,2.87,0.298,3.919,0.463c2.057,0.35,3.198,0.844,3.424,1.48c0.329,1.111-1.337,1.811-4.998,2.098
		c-0.617,0.063-3.662,0.113-9.133,0.154c-5.224,0.124-7.857,0.453-7.898,0.988c0,0.288,0.35,0.709,1.049,1.265
		c0.473,0.329,0.309,0.699-0.494,1.11c-0.72,0.37-1.79,0.597-3.208,0.679c-0.782,0.021-1.882,0.021-3.302,0l-5.245,0.093
		c-0.021-0.062-0.041-0.124-0.062-0.186c0.33-0.493,0.638-0.967,0.926-1.419c-0.329,0.432-0.648,0.864-0.957,1.296
		c-0.946-2.921-1.666-5.955-2.16-9.102c-1.09-7.302,4.392-11.991,16.445-14.068c10.942-1.893,24.528-1.307,40.756,1.758
		C82.904,135.321,88.693,136.761,93.979,138.468z M27.523,139.085l-0.524-3.054c-0.391,0.164-0.75,0.339-1.08,0.524l-2.622,1.82
		c-0.391,0.329-0.74,0.658-1.049,0.987c-1.337,1.666-2.005,3.476-2.005,5.43l0.123,1.573c0.021,0.123,0.051,0.257,0.093,0.401
		c0.041,0.309,0.092,0.627,0.154,0.956c0.144,0.905,0.319,1.79,0.524,2.653c0,0.021,0.01,0.041,0.031,0.063L27.523,139.085z"/>
	<path fill-rule="evenodd" clip-rule="evenodd" fill="#2D1115" d="M234.667,146.552c0.514,0.185,0.936,0.483,1.265,0.895
		c-1.172-0.494-2.222-0.36-3.147,0.401l-1.141,1.233c-0.247-0.986-1.142-1.676-2.685-2.066l-2.252-0.309
		c1.295-0.658,2.52-0.771,3.672-0.34c0.596,0.206,1.048,0.474,1.356,0.803C232.661,146.305,233.639,146.099,234.667,146.552z
		 M182.742,167.223c-0.453,0.452-0.926,0.905-1.419,1.357c-3.579,3.229-6.058,5.811-7.437,7.744
		c-0.493,0.74-0.945,1.532-1.356,2.376c-0.761,1.542-1.358,3.249-1.79,5.121c-0.205,0.802-0.369,1.636-0.493,2.499
		c0.246,0.329,0.524,0.658,0.833,0.987c8.494,9.729,19.838,14.593,34.03,14.593c4.956,0,10.15-0.597,15.581-1.789
		c10.365-2.263,19.323-6.181,26.872-11.755c3.311-2.488,5.502-4.165,6.571-5.028c1.049-0.885,2.51-2.387,4.381-4.505l0.093,0.186
		c-0.474,0.515-0.946,1.038-1.42,1.573c-9.256,10.223-21.432,17.01-36.528,20.362c-19.644,4.341-35.337,1.131-47.082-9.626
		c-8.432-7.713-13.225-16.649-14.377-26.811c-1.398-12.238,14.449-20.507,47.544-24.806c5.143-0.164,9.894-0.134,14.254,0.093
		c-3.558,0.021-6.983,0.298-10.274,0.833c-0.02-0.123-0.061-0.247-0.123-0.37c-0.494,0.041-0.967,0.093-1.419,0.154
		c0.309,0.103,0.616,0.216,0.925,0.339c-1.933,0.371-3.794,0.823-5.584,1.358c0.082-0.083,0.165-0.165,0.248-0.247
		c-1.174,0.062-2.5,0.247-3.98,0.555l0.246-0.555c0.063-0.124,0.134-0.237,0.217-0.34c-2.387,0.35-4.67,0.73-6.85,1.142
		c0,0.206,0,0.411,0,0.617c-0.103-0.164-0.205-0.34-0.309-0.524c-1.996,0.35-3.918,0.751-5.77,1.203
		c-1.954,0.452-3.826,0.926-5.615,1.419c-8.104,2.324-14.049,5.152-17.832,8.484c-0.021,0.041-0.041,0.072-0.063,0.093
		c-0.268,0.227-0.514,0.452-0.74,0.679c-1.378,1.398-2.396,2.87-3.055,4.412c-0.535,1.296-0.802,2.653-0.802,4.072l0.124,1.357
		c0.123,1.255,0.35,2.571,0.678,3.949c0.514,2.037,1.266,4.206,2.253,6.511c0.103,0.226,0.206,0.472,0.309,0.739
		c0.534,1.173,1.12,2.325,1.759,3.456c0.39,0.679,0.791,1.367,1.203,2.067c0.493-0.926,0.977-1.801,1.449-2.623
		c0.021,0,0.021,0.031,0,0.093c0.205-0.329,0.34-0.565,0.401-0.71c1.234-2.016,2.54-3.825,3.919-5.43
		c2.016-2.386,4.186-4.34,6.51-5.862c0.308-0.206,0.627-0.41,0.956-0.616c1.46-1.091,2.849-2.335,4.165-3.733
		c0.103,0.432,0.205,0.874,0.309,1.326c0.246-0.885,0.627-1.892,1.142-3.023c0.288-0.37,0.556-0.74,0.802-1.11
		c0.822-1.132,1.533-2.263,2.129-3.394c0.186-0.186,0.359-0.34,0.524-0.463c-0.021-0.186-0.03-0.371-0.03-0.556
		c0.123-0.268,0.257-0.545,0.4-0.833c0.021,0.288,0.082,0.638,0.186,1.049c0.637-0.309,1.254-0.463,1.852-0.463
		c-0.083,0.844-0.113,1.522-0.094,2.037c-0.596,0.925-1.449,2.221-2.561,3.887C187.411,162.481,185.457,164.631,182.742,167.223z
		 M234.111,161.7c0.37,0.145,0.669,0.35,0.896,0.617c-0.823-0.351-1.554-0.268-2.191,0.246l-0.74,0.864
		c-0.186-0.679-0.782-1.152-1.79-1.419l-1.542-0.217c0.884-0.431,1.728-0.503,2.53-0.215c0.391,0.123,0.688,0.298,0.895,0.523
		C232.744,161.566,233.392,161.433,234.111,161.7z M221.955,155.653c0.598-0.535,1.255-0.679,1.975-0.432
		c0.35,0.164,0.639,0.369,0.864,0.616c-0.802-0.329-1.532-0.236-2.19,0.278l-0.709,0.833c-0.186-0.658-0.793-1.132-1.82-1.42
		l-1.543-0.185c0.904-0.432,1.748-0.515,2.529-0.247C221.451,155.242,221.75,155.427,221.955,155.653z M118.137,173.979
		c0.473,0.823,0.946,1.676,1.419,2.561c0.432-0.658,0.822-1.348,1.172-2.066c0.658-1.132,1.255-2.283,1.789-3.456
		c0.124-0.246,0.237-0.493,0.34-0.74c1.131-2.653,1.943-5.101,2.437-7.343c0.042,0.946-0.041,1.902-0.247,2.869
		c-2.016,9.729-6.88,17.4-14.593,23.016c-4.689,3.436-10.099,5.718-16.229,6.85c8.207-2.16,15.148-6.479,20.826-12.958
		c0.268-0.329,0.544-0.669,0.833-1.019c-0.123-0.863-0.288-1.697-0.493-2.499c-0.453-1.893-1.06-3.609-1.821-5.152
		c-0.411-0.843-0.874-1.625-1.388-2.345c-1.378-1.954-3.836-4.546-7.373-7.775c-0.515-0.452-0.988-0.904-1.42-1.357
		c-2.715-2.591-4.669-4.741-5.862-6.447c-1.152-1.646-2.026-2.931-2.623-3.856c0.042-0.515,0.031-1.204-0.031-2.067
		c0.576,0,1.183,0.154,1.82,0.463c0.103-0.392,0.165-0.73,0.185-1.019c0.124,0.268,0.247,0.535,0.371,0.803
		c0,0.185-0.011,0.37-0.031,0.555c0.206,0.145,0.391,0.299,0.556,0.463c0.576,1.132,1.275,2.272,2.098,3.425
		c0.287,0.35,0.575,0.72,0.863,1.11c0.514,1.111,0.885,2.108,1.111,2.993c0.103-0.453,0.216-0.885,0.34-1.296
		c1.275,1.419,2.653,2.653,4.134,3.702c0.329,0.227,0.659,0.441,0.987,0.647c2.304,1.522,4.474,3.477,6.51,5.862
		c1.358,1.604,2.664,3.404,3.918,5.399c0.021,0.164,0.134,0.411,0.34,0.74C118.054,173.959,118.075,173.938,118.137,173.979z
		 M69.02,135.29c7.877,0.083,16.197,1.142,24.959,3.178c-0.637-0.123-1.285-0.246-1.943-0.37c-0.124,0.186-0.227,0.36-0.309,0.524
		c0-0.205,0-0.391,0-0.555c-2.18-0.432-4.474-0.833-6.88-1.203c0.103,0.123,0.185,0.236,0.247,0.339l0.247,0.556
		c-1.501-0.309-2.828-0.494-3.979-0.556c0.082,0.082,0.165,0.165,0.247,0.247c-1.831-0.515-3.702-0.956-5.615-1.327
		c0.329-0.123,0.637-0.236,0.925-0.339c-0.473-0.082-0.956-0.145-1.45-0.186c-0.021,0.145-0.051,0.288-0.092,0.433
		C73.298,135.66,71.18,135.414,69.02,135.29z M98.453,174.041c1.276,2.921,1.461,6.294,0.556,10.119l-2.53-0.216
		c0.72-1.83,1.069-3.846,1.049-6.047c-0.021-1.398-0.226-2.685-0.617-3.856c-0.411-1.233-1.028-2.335-1.851-3.302
		c-0.021-0.309-0.072-0.605-0.154-0.894l-0.524-0.217v-0.123l0.494,0.123l-0.309-0.709c0.782,0.638,1.522,1.419,2.222,2.345
		C97.486,172.148,98.042,173.074,98.453,174.041z M211.342,143.683c0.535,0.411,1.019,0.915,1.451,1.512l-0.617,0.216
		c-0.063,0.082-0.072,0.164-0.031,0.247c0.02,0.062,0.072,0.082,0.154,0.062l0.833-0.124c1.007,1.543,1.553,3.126,1.635,4.752
		c-0.679-0.515-1.511-0.957-2.499-1.327c-0.164-0.72-0.4-1.367-0.709-1.943c-0.041-0.082-0.123-0.062-0.247,0.062l0.247,1.666
		l-1.729-0.339c-0.102-0.494-0.545-1.132-1.326-1.913c-0.104-0.041-0.195-0.041-0.277,0c-0.021,0.041-0.021,0.092,0,0.154
		l0.678,1.203l0.154,0.401c-0.555-0.082-1.09-0.124-1.604-0.124h-0.586l1.326,0.987l-0.74,0.309
		c-0.083,0.062-0.123,0.144-0.123,0.247c0.062,0.123,0.144,0.154,0.246,0.093c0.246-0.063,0.658-0.093,1.234-0.093
		c0.597,0.638,1.151,1.316,1.666,2.036l-1.326,0.309c-0.124,0.021-0.165,0.072-0.124,0.154c0,0.082,0.052,0.123,0.154,0.123
		c0.35-0.041,0.925,0.021,1.728,0.186c0.535,1.049,0.875,2.005,1.019,2.869l-0.524-0.093c-0.063,0-0.113,0.052-0.154,0.154
		c-0.041,0.123,0,0.206,0.123,0.247c0.206,0.041,0.401,0.164,0.586,0.37c0.205,2.118-0.185,3.99-1.172,5.615
		c-0.165-1.09-0.586-2.201-1.266-3.332c0.063-1.09,0.164-1.893,0.309-2.406c0.063-0.124-0.041-0.165-0.309-0.124l-0.555,1.667
		c-0.453-0.597-1.039-1.214-1.759-1.852c0-0.72,0.072-1.471,0.216-2.253c0.021-0.062-0.063-0.081-0.246-0.062
		c-0.145,0.411-0.309,0.998-0.494,1.759c-0.781-0.617-1.389-1.06-1.82-1.327l-0.34-1.789c0-0.062-0.041-0.093-0.123-0.093
		c-0.062,0-0.092,0.031-0.092,0.093c-0.063,0.474-0.063,0.946,0,1.419l-1.852-0.986c0.884,1.871,1.46,3.568,1.728,5.091
		l-1.233-0.587c-0.083-0.041-0.135-0.03-0.154,0.031c-0.083,0.082-0.083,0.164,0,0.247c0.185,0.123,0.698,0.555,1.542,1.295
		c0.144,0.987,0.144,2.088,0,3.301l-0.556-0.647c-0.021-0.082-0.082-0.082-0.186,0c-0.082,0.063-0.092,0.124-0.03,0.186l0.647,1.326
		c-0.041,0.247-0.092,0.504-0.154,0.771c-0.391,1.543-0.925,2.757-1.604,3.641c-1.029-0.966-1.748-2.427-2.16-4.381
		c0.556-1.337,0.977-2.17,1.266-2.499c0.082-0.082,0.092-0.154,0.03-0.216c-0.062-0.083-0.134-0.083-0.216,0
		c-0.432,0.411-0.844,0.936-1.234,1.573c-0.205-0.987-0.494-1.964-0.863-2.931l0.74-1.573l0.34-0.556
		c0.041-0.062,0.041-0.124,0-0.186c-0.063-0.082-0.135-0.082-0.217,0c-0.37,0.412-0.73,0.967-1.08,1.666l-1.018-1.943l0.524-1.173
		l0.493-0.555c0.041-0.083,0.041-0.154,0-0.217c-0.021-0.082-0.072-0.082-0.153,0c-0.535,0.412-0.946,0.875-1.234,1.389
		c-0.329-0.473-0.679-0.885-1.049-1.234l-0.401-0.37l0.063,2.314l-1.297-1.234c-0.082-0.041-0.154-0.021-0.216,0.062
		c-0.062,0.063-0.072,0.124-0.03,0.186c0.514,0.514,0.926,1.018,1.234,1.512l0.246,0.494c-0.041,0.986-0.186,2.128-0.432,3.424
		c-0.494-0.514-0.864-0.854-1.111-1.018c-0.041-0.062-0.082,0.01-0.123,0.216c0.328,0.35,0.658,0.885,0.987,1.604
		c-0.452,1.687-0.998,2.92-1.636,3.702c-0.74-1.255-1.337-2.479-1.789-3.672c0.205-0.638,0.463-1.131,0.771-1.48
		c0.041-0.083,0.021-0.134-0.063-0.154c-0.082-0.063-0.133-0.063-0.154,0l-0.863,0.863c-0.329-1.254-0.514-2.252-0.555-2.992
		l0.986-0.987c0.082-0.103,0.082-0.175,0-0.216c-0.021-0.041-0.082-0.041-0.185,0l-0.896,0.556c0-0.063,0-0.113,0-0.154
		c-0.02-0.515,0.011-1.193,0.094-2.037c-0.598,0-1.215,0.154-1.852,0.463c-0.104-0.411-0.164-0.761-0.186-1.049
		c-0.041-0.186-0.062-0.34-0.062-0.463c-0.041-0.082-0.103-0.123-0.185-0.123s-0.124,0.041-0.124,0.123
		c-0.041,0.432-0.052,0.864-0.03,1.296c0,0.185,0.01,0.37,0.03,0.556c-0.165,0.123-0.339,0.277-0.524,0.463
		c-0.412,0.35-0.781,0.74-1.11,1.172l-0.278-1.45c0-0.123-0.103-0.093-0.309,0.093l0.124,2.036l-1.11,2.067
		c-0.371-0.658-0.607-1.09-0.71-1.296c-0.041-0.082-0.103-0.103-0.185-0.062c-0.083,0.041-0.113,0.093-0.094,0.154l0.741,1.789
		c-0.515,1.132-0.896,2.139-1.142,3.023c-0.104-0.452-0.206-0.895-0.309-1.326c-0.494-2.16-0.699-4.063-0.617-5.708l0.031-0.062
		c0.514-0.411,0.936-0.71,1.265-0.895c0.082-0.063,0.093-0.124,0.03-0.186c0-0.082-0.03-0.123-0.092-0.123l-1.203,0.37
		c0.102-0.679,0.226-1.275,0.369-1.79c0.063-0.144,0.113-0.277,0.154-0.4l0.402-0.124l1.82-0.215
		c0.061-0.206,0.041-0.278-0.063-0.217c-0.432-0.041-0.813-0.071-1.141-0.092c-0.268,0-0.505,0-0.711,0
		c0.515-0.864,1.07-1.389,1.666-1.574c-0.432,0-1.09,0.041-1.975,0.123l0.525-1.172c0.021-0.082-0.011-0.145-0.093-0.186
		c-0.083-0.021-0.144,0-0.185,0.063c-0.474,0.658-0.771,1.12-0.895,1.388c-0.535,0.083-1.215,0.278-2.037,0.587
		c0.186-0.926,0.318-1.481,0.4-1.666c0.042-0.063-0.041-0.093-0.246-0.093l-0.895,2.067c-1.419,0.597-2.797,1.419-4.135,2.468
		l-1.573,1.389c0.433-2.387,1.193-4.433,2.283-6.14l1.943-0.217c0.124,0,0.124-0.103,0-0.309c-0.021,0-0.514-0.051-1.48-0.154
		c0.679-0.863,1.44-1.583,2.283-2.159l1.819,0.432c0.063,0,0.124-0.041,0.186-0.123c0-0.103-0.041-0.154-0.123-0.154l-1.234-0.524
		c1.09-0.699,2.181-1.162,3.271-1.389l2.808,0.833c0.205-0.123,0.247-0.226,0.123-0.309l-1.666-0.771
		c2.531-0.35,4.886-0.195,7.066,0.463c-0.474-0.514-1.061-0.926-1.76-1.233l0.988-0.401c0.041-0.247,0-0.34-0.124-0.277
		c-0.802,0.185-1.285,0.339-1.45,0.463c-0.452-0.124-0.904-0.237-1.357-0.34c1.852-0.452,3.773-0.854,5.77-1.203
		c0.104,0.185,0.206,0.36,0.309,0.524c0-0.206,0-0.411,0-0.617c2.18-0.411,4.463-0.792,6.85-1.142
		c-0.083,0.103-0.154,0.216-0.217,0.34l-0.246,0.555c1.48-0.308,2.807-0.493,3.98-0.555c-0.083,0.082-0.166,0.164-0.248,0.247
		c-0.555,0.534-0.977,0.904-1.265,1.11c0,0.226,0.041,0.298,0.124,0.216l2.684-1.573c1.522,0.123,2.838,0.462,3.949,1.018
		l-1.049,0.463c-0.082,0.041-0.104,0.103-0.063,0.186c0.042,0.103,0.094,0.144,0.154,0.123c0.576-0.206,1.132-0.329,1.666-0.37
		C210.931,143.425,211.137,143.559,211.342,143.683z M189.159,178.7c-0.37,1.151-0.556,2.438-0.556,3.856
		c-0.062,2.2,0.268,4.195,0.988,5.985l-2.5,0.277v-0.031c-0.904-3.805-0.73-7.168,0.525-10.088c0.451-0.967,1.008-1.893,1.666-2.777
		c0.72-0.945,1.46-1.737,2.221-2.375l0.093-0.186c-0.226-0.103-0.493-0.123-0.802-0.062l0.092-0.647l-0.092-0.063l-0.309,0.771
		c-0.206,0.041-0.504,0.175-0.895,0.401l0.123-0.556l-0.123-0.093l-0.309,0.896l-0.68,0.647l-0.154-0.647l-0.123,0.062v0.74
		l-0.802,1.142c0.124-1.357,0.309-2.365,0.555-3.023h0.093c0.186-0.104,0.381-0.154,0.586-0.154v-0.186h-0.463l0.525-0.802
		l0.895,0.154l0.062-0.124l-0.802-0.246c0.328-0.309,0.637-0.442,0.926-0.401l-0.803-0.247c0.186-0.186,0.309-0.308,0.37-0.37
		l-0.093-0.124l-0.555,0.463c-0.206-0.062-0.525-0.092-0.957-0.092l0.432-0.647l-0.092-0.063l-0.648,0.71
		c-0.678,0.062-1.357,0.205-2.035,0.432l-0.865,0.34c0.453-0.762,1.07-1.491,1.852-2.19l0.771,0.246l0.031-0.123l-0.556-0.309
		c0.226-0.123,0.433-0.227,0.617-0.309c0.247-0.123,0.452-0.216,0.616-0.277l0.71,0.463l0.062-0.124l-0.432-0.37
		c0.432-0.123,0.936-0.154,1.512-0.092l1.049,0.709l0.063-0.031l-0.525-0.586c1.07,0.227,1.995,0.607,2.777,1.142
		c-0.165-0.309-0.34-0.534-0.525-0.679l0.371-0.093l0.092-0.093h-0.709c-0.35-0.287-0.771-0.523-1.266-0.709l0.617-0.216
		l-0.061-0.124l-0.834,0.247l-0.062-0.093c-0.843-0.144-1.47-0.298-1.882-0.463l0.895-0.309l-0.062-0.123l-1.265,0.216l-0.648-0.679
		l-0.647-1.079c0.741-0.124,1.47-0.145,2.19-0.063l1.141,1.049l0.124-0.093l-0.617-0.894c0.556,0.062,1.132,0.205,1.728,0.432
		l0.586,1.326l0.063-0.093l-0.217-1.048c0.658,0.349,1.193,0.812,1.605,1.388l-0.154,0.863l0.062,0.031l0.309-0.617
		c0.268,0.453,0.433,0.874,0.493,1.266c0.164-0.617,0.391-1.06,0.68-1.327l0.309,0.556l0.123-0.031l-0.123-0.216l-0.124-0.617
		c0.474-0.473,1.069-0.751,1.789-0.833l-0.431,0.771h0.122l0.34-0.524l0.309-0.309c0.515,0,1.019,0.093,1.511,0.277l0.463,0.216
		l-0.863,0.401l0.092,0.093l0.187-0.093l0.894-0.247c0.576,0.494,0.946,0.834,1.111,1.019l-0.34,0.062v0.123h0.463
		c0.494,0.741,0.648,1.461,0.463,2.16l-1.08-0.926l-0.277-0.709l-0.123,0.03c0.082,0.145,0.123,0.329,0.123,0.556l-0.863-0.432
		l-0.248-0.278l-0.523-0.37l-0.062,0.154l0.463,0.463c-0.227-0.062-0.494-0.052-0.803,0.031c-0.103-0.104-0.319-0.217-0.647-0.34
		l-0.063,0.123l0.371,0.186l0.092,0.123l-0.647,0.463l1.697,0.34l-0.803,0.34v0.154l1.296-0.309
		c0.597,0.288,1.101,0.626,1.512,1.018h-0.494v0.185l0.71,0.063c0.288,0.309,0.483,0.658,0.587,1.049l-0.278,0.062v0.124l0.339,0.03
		c0.186,0.761,0.186,1.471,0,2.129c-0.061-0.103-0.339-0.401-0.832-0.895v-0.864h-0.123l-0.094,0.71l-0.678-0.34
		c0-0.288-0.083-0.616-0.248-0.987l-0.123,0.031l0.123,0.586v0.186l-0.894-0.34l0.339,0.556h-0.309v0.216l0.463,0.093
		c0.268,0.473,0.411,0.823,0.432,1.049l-0.586-0.123v0.215l0.648,0.309c0.082,0.309,0.082,0.751,0,1.327l-0.186-0.123l-0.031,0.123
		l0.154,0.247c-0.205,0.781-0.545,1.419-1.018,1.913c-0.062,0.082-0.145,0.164-0.247,0.247c0.021-0.083,0.031-0.165,0.031-0.247
		c0.021-0.329-0.011-0.762-0.093-1.296c0.205-0.494,0.38-0.823,0.523-0.987l-0.122-0.031l-0.494,0.556l-0.432-0.987l0.339-0.863
		l-0.123-0.094l-0.37,0.679l-0.524-0.863l0.092-0.74l-0.092-0.062l-0.217,0.586l-0.646-0.679c0.122,0.926,0.122,1.707,0,2.345
		l-0.371-0.401l-0.092,0.093l0.431,0.71c-0.122,0.514-0.276,0.977-0.462,1.388l-0.154-0.401l-0.123,0.093l0.092,0.587
		c-0.082,0.123-0.154,0.246-0.216,0.37c-0.351,0.535-0.73,0.945-1.142,1.233c-0.205-0.432-0.309-0.843-0.309-1.233
		c-0.021-0.288,0-0.565,0.063-0.833c0.246-0.371,0.544-0.669,0.895-0.895l-0.063-0.031c-0.164,0.021-0.4,0.144-0.709,0.37
		l0.031-1.265l0.462-0.525l0.278-0.216l-0.063-0.093l-0.678,0.525l-0.094-0.956l0.34-0.433l0.309-0.123l-0.093-0.093l-0.679,0.401
		l-0.37-0.864l-0.278,0.926l-0.4-0.679l-0.093,0.093l0.309,0.771v0.215c-0.165,0.453-0.392,0.896-0.679,1.327l-0.247-0.556
		l-0.124,0.093l0.217,0.771c-0.268,0.37-0.555,0.699-0.863,0.987l-0.402,0.309l-0.154-1.759c0.289-0.288,0.474-0.453,0.557-0.494
		l-0.094-0.123l-0.463,0.309c0-0.165,0-0.319,0-0.463C190.188,176.345,189.57,177.445,189.159,178.7z M210.725,140.628
		c0.021,0.165,0.041,0.298,0.063,0.401c-0.227-0.104-0.453-0.195-0.68-0.278c-0.309-0.123-0.616-0.236-0.925-0.339
		c0.452-0.062,0.925-0.113,1.419-0.154C210.664,140.381,210.705,140.505,210.725,140.628z M81.607,137.45
		c-0.082-0.082-0.165-0.165-0.247-0.247c1.152,0.062,2.479,0.247,3.979,0.556l-0.247-0.556c-0.062-0.103-0.144-0.216-0.247-0.339
		c2.406,0.37,4.7,0.771,6.88,1.203c0,0.164,0,0.35,0,0.555c0.082-0.164,0.185-0.339,0.309-0.524c0.658,0.124,1.306,0.247,1.943,0.37
		c1.008,0.351,1.995,0.699,2.962,1.05c-0.165,0.021-0.33,0.062-0.494,0.123c-0.206-0.103-0.688-0.257-1.45-0.463
		c-0.124-0.021-0.165,0.082-0.124,0.309l0.925,0.37c-0.658,0.35-1.224,0.782-1.697,1.296c1.728-0.556,3.548-0.761,5.461-0.617
		c0.35,0.124,0.699,0.247,1.048,0.37l-1.11,0.556c-0.124,0.062-0.082,0.144,0.124,0.247l1.666-0.494
		c1.172,0.474,2.304,0.978,3.394,1.512l-0.217,0.062c-0.082,0-0.123,0.063-0.123,0.186c0.021,0.082,0.072,0.123,0.154,0.123
		l0.74-0.154c1.07,0.515,2.129,1.06,3.178,1.636c0.062,0.062,0.113,0.134,0.154,0.216c-0.926,0.123-1.409,0.185-1.45,0.185
		c-0.124,0.186-0.124,0.278,0,0.278l1.943,0.247c1.111,1.707,1.882,3.743,2.314,6.108l-1.604-1.357
		c-1.337-1.07-2.726-1.902-4.165-2.499l-0.895-2.067c-0.164,0-0.237,0.031-0.215,0.093c0.082,0.206,0.226,0.771,0.431,1.697
		c-0.822-0.329-1.522-0.535-2.098-0.617c-0.103-0.247-0.391-0.699-0.864-1.357c-0.062-0.083-0.134-0.104-0.216-0.063
		c-0.062,0.041-0.072,0.113-0.031,0.217l0.494,1.11c-0.885-0.082-1.553-0.124-2.005-0.124c0.596,0.206,1.151,0.73,1.666,1.574
		c-0.186,0-0.412,0.011-0.679,0.031c-0.309,0-0.679,0.021-1.11,0.062c-0.144-0.062-0.175,0.01-0.093,0.216l2.222,0.34
		c0.062,0.143,0.102,0.276,0.124,0.4c0.185,0.514,0.318,1.131,0.4,1.851l-1.203-0.4c-0.082,0-0.123,0.041-0.123,0.123
		c-0.021,0.083,0.01,0.134,0.092,0.154c0.309,0.186,0.72,0.494,1.234,0.926l0.062,0.062c0.062,1.625-0.144,3.527-0.617,5.708
		c-0.124,0.411-0.237,0.843-0.34,1.296c-0.226-0.885-0.597-1.882-1.111-2.993l0.679-1.759c0.062-0.082,0.051-0.154-0.031-0.216
		c-0.103-0.021-0.165,0.011-0.185,0.093c-0.144,0.186-0.38,0.606-0.709,1.266l-1.142-2.037l0.154-2.067
		c-0.206-0.185-0.309-0.205-0.309-0.062l-0.309,1.481c-0.329-0.432-0.699-0.844-1.11-1.234c-0.165-0.164-0.35-0.318-0.556-0.463
		c0.021-0.185,0.031-0.37,0.031-0.555c0.041-0.412,0.031-0.834-0.031-1.266c0-0.062-0.041-0.093-0.123-0.093
		c-0.062,0-0.124,0.031-0.186,0.093c0,0.144-0.01,0.298-0.031,0.463c-0.021,0.288-0.082,0.627-0.185,1.019
		c-0.638-0.309-1.244-0.463-1.82-0.463c0.062,0.863,0.072,1.553,0.031,2.067c0,0.021,0,0.062,0,0.123l-0.864-0.556
		c-0.083-0.021-0.154-0.021-0.216,0c-0.062,0.062-0.062,0.134,0,0.216l1.049,0.988c-0.041,0.739-0.247,1.758-0.617,3.054
		l-0.802-0.926c-0.062-0.041-0.124-0.041-0.185,0c-0.083,0.041-0.103,0.104-0.062,0.186c0.308,0.35,0.565,0.854,0.771,1.512
		c-0.431,1.172-1.028,2.386-1.789,3.641c-0.617-0.802-1.172-2.047-1.666-3.733c0.37-0.72,0.71-1.255,1.019-1.604
		c-0.042-0.185-0.083-0.236-0.124-0.154c-0.227,0.145-0.597,0.474-1.111,0.987c-0.247-1.316-0.391-2.458-0.432-3.424l0.216-0.525
		c0.35-0.473,0.782-0.977,1.296-1.512c0.021-0.021-0.011-0.071-0.093-0.154c-0.021-0.082-0.083-0.113-0.185-0.092l-1.265,1.295
		l0.031-2.313l-0.401,0.339c-0.349,0.35-0.699,0.762-1.049,1.234c-0.288-0.514-0.689-0.987-1.203-1.419
		c-0.083-0.083-0.144-0.083-0.186,0c-0.041,0.062-0.041,0.134,0,0.216l0.494,0.556l0.524,1.172l-1.019,1.975
		c-0.37-0.72-0.719-1.274-1.048-1.666c-0.083-0.062-0.165-0.062-0.247,0c-0.041,0.041-0.041,0.093,0,0.154l0.37,0.556l0.679,1.604
		c-0.35,0.987-0.617,1.954-0.802,2.9c-0.412-0.617-0.823-1.132-1.234-1.543c-0.103-0.082-0.196-0.082-0.278,0
		c-0.021,0.082,0.01,0.154,0.092,0.216c0.288,0.35,0.699,1.183,1.234,2.499c-0.391,1.934-1.1,3.404-2.128,4.412
		c-0.72-0.926-1.275-2.16-1.666-3.702c-0.042-0.268-0.093-0.525-0.154-0.771l0.679-1.265c0.041-0.083,0.021-0.145-0.062-0.186
		c-0.062-0.082-0.124-0.082-0.185,0l-0.525,0.648c-0.165-1.234-0.165-2.346,0-3.333c0.844-0.761,1.368-1.192,1.573-1.295
		c0.083-0.083,0.083-0.154,0-0.217c-0.062-0.082-0.123-0.112-0.185-0.092l-1.203,0.586c0.227-1.502,0.803-3.199,1.728-5.091
		l-1.851,1.018c0.021-0.473,0.021-0.956,0-1.449c0-0.063-0.042-0.093-0.124-0.093c-0.062,0-0.093,0.03-0.093,0.093l-0.339,1.789
		c-0.453,0.268-1.069,0.73-1.851,1.389c-0.165-0.803-0.319-1.399-0.463-1.789c-0.206-0.041-0.288-0.021-0.247,0.061
		c0.103,0.782,0.154,1.522,0.154,2.222c-0.719,0.658-1.295,1.275-1.728,1.852l-0.586-1.636c-0.226-0.041-0.329,0-0.309,0.124
		c0.186,0.514,0.288,1.306,0.309,2.375c-0.658,1.173-1.069,2.294-1.234,3.363c-0.967-1.646-1.357-3.518-1.172-5.615
		c0.206-0.206,0.411-0.318,0.617-0.34c0.103-0.082,0.134-0.175,0.092-0.277c-0.041-0.123-0.103-0.185-0.185-0.185l-0.463,0.093
		c0.103-0.844,0.442-1.801,1.019-2.87c0.761-0.164,1.326-0.216,1.697-0.154c0.124,0,0.185-0.041,0.185-0.123
		c0.021-0.082-0.021-0.144-0.124-0.186l-1.357-0.309c0.494-0.72,1.059-1.388,1.697-2.005c0.576,0,0.978,0.041,1.203,0.123
		c0.124,0.021,0.195-0.021,0.216-0.123c0-0.124-0.031-0.195-0.093-0.216l-0.74-0.309l1.357-1.019h-0.617
		c-0.514,0-1.059,0.041-1.635,0.124l0.864-1.573c0.021-0.083,0.021-0.145,0-0.186c-0.083-0.062-0.165-0.062-0.247,0
		c-0.782,0.781-1.245,1.408-1.389,1.882l-1.697,0.34l0.247-1.667c-0.124-0.103-0.206-0.112-0.247-0.03
		c-0.309,0.597-0.534,1.234-0.678,1.913c-1.008,0.37-1.841,0.812-2.499,1.326c0.082-1.625,0.606-3.209,1.573-4.751l0.864,0.123
		c0.062,0.063,0.123,0.052,0.185-0.03c0.021-0.104-0.01-0.195-0.093-0.278l-0.555-0.216c0.432-0.575,0.915-1.069,1.45-1.48
		c0.185-0.145,0.38-0.288,0.586-0.433c0.555,0.063,1.1,0.186,1.635,0.37c0.083,0.042,0.154,0,0.216-0.123
		c0.021-0.082-0.01-0.134-0.093-0.154l-1.049-0.463c1.111-0.556,2.438-0.904,3.98-1.049l2.653,1.636
		c0.083,0.062,0.124-0.021,0.124-0.247C82.554,138.386,82.143,138.005,81.607,137.45z M92.036,174.041
		c-0.021,0.412-0.124,0.833-0.309,1.265c-0.432-0.268-0.823-0.688-1.172-1.265c-0.062-0.103-0.124-0.216-0.185-0.339l0.031-0.587
		l-0.092-0.062l-0.124,0.34c-0.206-0.392-0.36-0.844-0.463-1.357l0.37-0.68l-0.031-0.154l-0.432,0.433
		c-0.103-0.617-0.103-1.389,0-2.314l-0.647,0.648l-0.154-0.617l-0.093,0.062l0.093,0.771l-0.524,0.863l-0.432-0.647l-0.124,0.063
		l0.37,0.894l-0.401,0.926l-0.493-0.555l-0.124,0.092c0.102,0.145,0.256,0.453,0.462,0.926c-0.083,0.535-0.103,0.967-0.062,1.296
		c0,0.083,0.01,0.165,0.031,0.247c-0.103-0.082-0.196-0.164-0.278-0.247c-0.452-0.493-0.781-1.121-0.987-1.882l0.186-0.216
		l-0.093-0.124l-0.154,0.124c-0.062-0.597-0.062-1.05,0-1.358l0.679-0.339v-0.154l-0.617,0.093c0.042-0.226,0.175-0.586,0.401-1.08
		l0.463-0.093v-0.154h-0.247l0.34-0.616l-0.895,0.37v-0.186l0.124-0.586l-0.124-0.062c-0.206,0.37-0.309,0.699-0.309,0.987
		l-0.648,0.339l-0.124-0.679h-0.093v0.895c-0.473,0.453-0.75,0.741-0.833,0.864c-0.206-0.658-0.206-1.357,0-2.098l0.37-0.093v-0.062
		v-0.031l-0.309-0.062c0.124-0.411,0.329-0.771,0.617-1.08l0.679-0.031v-0.185h-0.463c0.391-0.392,0.874-0.74,1.45-1.049l1.327,0.34
		v-0.154l-0.771-0.34l1.666-0.34l-0.679-0.493l0.124-0.124l0.401-0.154l-0.092-0.123c-0.309,0.103-0.525,0.227-0.648,0.37
		c-0.309-0.082-0.566-0.113-0.771-0.093l0.431-0.463l-0.092-0.123l-0.462,0.371l-0.309,0.308l-0.802,0.401
		c0-0.247,0.041-0.422,0.123-0.524l-0.123-0.093l-0.309,0.74l-1.08,0.896c-0.186-0.679-0.021-1.399,0.493-2.16h0.463v-0.123
		l-0.339-0.031c0.144-0.206,0.514-0.545,1.111-1.019l0.895,0.247l0.154,0.124l0.062-0.124l-0.802-0.432l0.463-0.216
		c0.493-0.164,0.997-0.247,1.512-0.247l0.277,0.309l0.34,0.493h0.154l-0.432-0.771c0.699,0.104,1.285,0.392,1.758,0.864
		l-0.092,0.587l-0.124,0.216l0.124,0.093l0.247-0.587c0.288,0.247,0.535,0.699,0.74,1.357c0.021-0.411,0.175-0.854,0.463-1.326
		l0.309,0.647l0.031-0.062l-0.154-0.802c0.432-0.597,0.988-1.08,1.666-1.45l-0.247,1.079l0.063,0.063l0.617-1.296
		c0.576-0.247,1.142-0.381,1.697-0.401l-0.586,0.863l0.124,0.063l1.11-1.019c0.72-0.062,1.45-0.03,2.19,0.093l-0.648,1.018
		l-0.678,0.68l-1.204-0.154l-0.093,0.092l0.895,0.278c-0.391,0.185-1.019,0.35-1.882,0.493l-0.062,0.063l-0.833-0.247l-0.031,0.123
		l0.555,0.216c-0.453,0.206-0.864,0.453-1.234,0.74h-0.709l0.062,0.124l0.432,0.03c-0.206,0.145-0.391,0.392-0.556,0.741
		c0.803-0.576,1.728-0.978,2.777-1.204l-0.524,0.587l0.062,0.062l1.049-0.709c0.556-0.083,1.06-0.063,1.512,0.061l-0.432,0.433
		l0.062,0.123l0.709-0.462c0.185,0.041,0.401,0.123,0.648,0.246c0.186,0.082,0.381,0.186,0.586,0.309l-0.586,0.309l0.093,0.123
		l0.771-0.277c0.761,0.699,1.357,1.45,1.79,2.252l-0.803-0.401c-0.719-0.226-1.409-0.35-2.067-0.369l-0.124-0.216l-0.555-0.525
		l-0.031,0.031l0.401,0.71c-0.452,0-0.781,0.01-0.987,0.03l-0.494-0.463l-0.154,0.124c0.103,0.062,0.237,0.194,0.401,0.401
		l-0.771,0.246c0.247-0.062,0.535,0.082,0.864,0.432l-0.741,0.216l0.031,0.124l0.71-0.124l0.154-0.062l0.586,0.833h-0.494v0.154
		c0.206,0,0.412,0.063,0.617,0.186h0.03c0.288,0.679,0.494,1.697,0.617,3.054l-0.833-1.172v-0.771l-0.124-0.062L97.527,170
		l-0.74-0.648l-0.309-0.895l-0.093,0.092l0.093,0.556c-0.371-0.226-0.659-0.35-0.864-0.37l-0.278-0.771l-0.124,0.031l0.124,0.647
		c-0.309-0.062-0.586-0.03-0.833,0.093l0.062,0.186l0.309,0.709l-0.494-0.123v0.123l0.524,0.217
		c0.083,0.288,0.134,0.585,0.154,0.894c0.042,0.146,0.062,0.299,0.062,0.463l-0.525-0.277l-0.031,0.123
		c0.083,0.021,0.268,0.175,0.556,0.463l-0.216,1.759l-0.339-0.309c-0.309-0.247-0.607-0.575-0.895-0.987l0.247-0.771l-0.124-0.03
		l-0.308,0.524c-0.247-0.432-0.463-0.864-0.648-1.296v-0.277l0.309-0.771l-0.124-0.031l-0.339,0.648l-0.309-0.957l-0.37,0.864
		l-0.709-0.37l-0.031,0.123l0.278,0.093l0.339,0.401l-0.124,0.956l-0.647-0.494l-0.031,0.124l0.216,0.154l0.462,0.524l0.093,1.296
		c-0.308-0.227-0.555-0.36-0.74-0.401l-0.031,0.063c0.35,0.226,0.637,0.523,0.863,0.895
		C92.005,173.485,92.036,173.753,92.036,174.041z M75.993,136.123c-0.206,0.083-0.432,0.175-0.679,0.278
		c0-0.124,0.021-0.247,0.062-0.37c0.041-0.145,0.072-0.288,0.092-0.433c0.494,0.041,0.977,0.104,1.45,0.186
		C76.63,135.887,76.321,136,75.993,136.123z M54.426,144.453l-1.08-1.233c-0.946-0.741-2.005-0.885-3.178-0.433
		c0.35-0.391,0.782-0.678,1.296-0.863c1.028-0.453,1.995-0.236,2.9,0.647c0.329-0.37,0.781-0.658,1.357-0.863
		c1.028-0.37,2.119-0.299,3.271,0.216c0.144,0.041,0.277,0.103,0.401,0.186l-2.283,0.246
		C55.609,142.767,54.714,143.466,54.426,144.453z M53.995,158.77l-0.709-0.803c-0.617-0.515-1.337-0.616-2.16-0.308
		c0.226-0.247,0.514-0.442,0.864-0.587c0.699-0.288,1.357-0.144,1.975,0.433c0.185-0.268,0.483-0.453,0.895-0.556
		c0.761-0.268,1.604-0.186,2.53,0.247l-1.542,0.154C54.817,157.618,54.201,158.09,53.995,158.77z M59.239,149.977
		c-0.021,0-0.051,0-0.092,0c0.041-0.021,0.072-0.042,0.092-0.063c0.35-0.391,0.771-0.658,1.265-0.802
		c1.049-0.433,2.016-0.246,2.9,0.556c0.309-0.351,0.751-0.617,1.327-0.802c1.192-0.433,2.438-0.309,3.733,0.369l-2.221,0.278
		c-1.563,0.391-2.5,1.101-2.808,2.129l-1.048-1.234C61.461,149.668,60.412,149.523,59.239,149.977z"/>
</g>
</svg>
