<?xml version="1.0" encoding="utf-8"?>
<!-- Generator: Adobe Illustrator 16.0.0, SVG Export Plug-In . SVG Version: 6.00 Build 0)  -->
<!DOCTYPE svg PUBLIC "-//W3C//DTD SVG 1.1//EN" "http://www.w3.org/Graphics/SVG/1.1/DTD/svg11.dtd">
<svg version="1.1" id="Layer_1" xmlns="http://www.w3.org/2000/svg" xmlns:xlink="http://www.w3.org/1999/xlink" x="0px" y="0px"
	 width="400px" height="400px" viewBox="0 0 400 400" enable-background="new 0 0 400 400" xml:space="preserve">
<g>
	<path fill="#FEE4DA" d="M190.732,325.555c-4.689-4.965-7.035-10.917-7.035-17.857c0-6.939,2.346-12.893,7.035-17.855
		c3.728,4.966,5.592,10.917,5.592,17.855C196.324,314.638,194.46,320.59,190.732,325.555z M228.508,325.555
		c-3.729-4.705-5.591-10.658-5.591-17.857c0-7.198,1.862-13.149,5.591-17.855c4.724,5.086,7.086,11.038,7.086,17.855
		C235.594,314.517,233.231,320.469,228.508,325.555z M193,287.805c4.947-4.106,10.463-6.157,16.543-6.157
		c6.081,0,11.604,2.053,16.568,6.157c-4.346,5.566-6.52,12.197-6.52,19.893c0,7.815,2.174,14.524,6.52,20.123
		c-4.724,3.951-10.246,5.926-16.568,5.926s-11.836-1.974-16.543-5.926c4.347-5.342,6.521-12.051,6.521-20.123
		C199.521,299.76,197.347,293.131,193,287.805z"/>
	<path fill="#FDD501" d="M275.714,319.32l-13.786-14.999l24.299-9.533l7.37,8.039L275.714,319.32z M149.016,313.676l-7.111,8.245
		l-18.423-15.847l13.27-15.435L149.016,313.676z M176.02,193.471c-2.216,2.079-4.629,3.876-7.241,5.387l13.219-12.215
		L176.02,193.471z M157.879,266.005l12.264,23.038l-8.89,10.358l-12.213-23.09L157.879,266.005z M138.477,288.629l8.813-10.28
		l12.265,23.036l-8.864,10.307L138.477,288.629z M159.632,264.022l8.863-10.335l12.239,23.036l-8.864,10.358L159.632,264.022z
		 M73.825,105.063l1.314-2.165l4.226,4.561l-1.804,1.649L73.825,105.063z M149.969,100.14l5.36,5.773l-1.727,1.623l-5.36-5.772
		l-8.916,8.22l5.334,5.746l-1.778,1.701l-5.36-5.797l-8.838,8.168l5.334,5.823l-1.829,1.675l-5.308-5.772l-8.015,7.37l5.334,5.771
		l-1.802,1.623l-5.334-5.746l-8.813,8.168l5.334,5.771l-1.805,1.623l-5.307-5.746l-8.916,8.219l5.334,5.747l-1.805,1.727
		l-5.358-5.771l-8.891,8.194l5.334,5.771l-1.701,1.599l-5.334-5.747l-6.184,5.669l-1.314-1.933l76.658-70.784l1.831,1.443
		L149.969,100.14z M172.928,113.257l-5.824,5.436l5.308,5.72l-1.752,1.597l-5.308-5.694l-8.891,8.194l5.256,5.721l-1.778,1.673
		l-5.307-5.747l-8.864,8.168l5.308,5.773l-1.829,1.674l-5.282-5.721l-8.015,7.37l5.307,5.719l-1.802,1.65l-5.309-5.72l-8.786,8.167
		l5.281,5.747l-1.803,1.623l-5.283-5.721l-8.89,8.22l5.307,5.721l-1.828,1.727l-5.283-5.772l-8.89,8.221l5.256,5.746l-1.701,1.571
		l-5.308-5.719l-5.901,5.436l-1.829-1.495l77.122-71.247L172.928,113.257z M163.833,115.165l-1.752,1.622l-5.282-5.747l-8.916,8.22
		l5.308,5.721l-1.777,1.701l-5.308-5.773l-8.838,8.169l5.282,5.746l-1.855,1.701l-5.281-5.72l-7.988,7.369l5.308,5.72l-1.779,1.674
		l-5.308-5.771l-8.836,8.194l5.283,5.721l-1.805,1.649l-5.282-5.721l-8.864,8.22l5.308,5.721l-1.882,1.7l-5.282-5.72l-8.89,8.193
		l5.308,5.748l-1.727,1.598l-5.309-5.721l-6.674,6.158l-1.572-1.727l78.204-72.279l1.597,1.701l-6.674,6.186L163.833,115.165z
		 M275.25,282.884l9.223,10.049l-24.35,9.481l-9.223-9.97L275.25,282.884z M228.843,268.582l24.35-9.559l9.251,10.05l-24.324,9.534
		L228.843,268.582z M249.097,290.51l-9.226-10.022l24.351-9.481l9.275,9.996L249.097,290.51z M242.603,247.607l8.813,9.533
		l-24.35,9.508l-2.32-2.55l-8.89-14.044l13.476-12.396L242.603,247.607z M199.288,250.57l-8.399,14.327l-8.478,9.845l-12.24-23.036
		l2.293-2.628l12.91-10.411L199.288,250.57z M203.204,227.703c1.479,1.228,2.948,2.524,4.405,3.891
		c1.391-1.381,2.796-2.694,4.214-3.943c-1.606-2.022-3.102-4.055-4.484-6.095C206.072,223.608,204.693,225.657,203.204,227.703z
		 M236.984,192.569c-2.301-1.995-4.354-4.192-6.157-6.599l13.633,11.725L236.984,192.569z M222.297,176.078
		c2.186,7.316,6.367,13.64,12.552,18.965c6.474,5.549,13.699,8.777,21.669,9.688l-0.078,0.025
		c-5.824,1.101-10.537,2.138-14.146,3.119c-4.07-1.891-8.014-4.468-11.828-7.731c-3.66-3.127-6.682-6.501-9.069-10.126
		C221.808,186.443,222.109,181.797,222.297,176.078z M223.792,166.544l-0.181-3.376l44.5,38.213l-3.399,0.336l-8.941-7.706
		l-5.129,5.953l-1.854-1.624l5.076-5.926l-8.245-7.086l-5.102,5.951l-1.855-1.599l5.128-5.949l-9.146-7.859l-5.129,5.951
		l-1.83-1.546l5.102-5.979L223.792,166.544z M178.236,195.893c6.235-5.771,10.272-12.566,12.11-20.382l0.027,0.051
		c0.429,5.91,0.928,10.694,1.493,14.354c-2.37,3.864-5.384,7.498-9.045,10.898c-3.538,3.28-7.249,5.91-11.131,7.886
		c-3.504-0.842-8.083-1.674-13.734-2.5C165.479,204.86,172.241,201.424,178.236,195.893z M187.306,150.748l-5.565,5.153l5.308,5.745
		l-1.804,1.649l-5.307-5.745l-8.838,8.193l5.307,5.721l-1.854,1.674l-5.255-5.719l-7.988,7.394l5.255,5.696l-1.778,1.7l-5.283-5.747
		l-8.838,8.142l5.309,5.72l-1.805,1.701l-5.281-5.745l-8.916,8.22l5.309,5.719l-1.83,1.675l-5.308-5.72l-5.514,5.103l-2.834-0.723
		l57.076-52.642L187.306,150.748z M188.388,163.58l-0.078,3.4l-8.71,8.04l5.386,5.746l-1.83,1.7l-5.36-5.771l-8.014,7.344
		l5.386,5.823l-1.803,1.621l-5.361-5.745l-8.813,8.142l5.36,5.8l-1.804,1.623l-5.334-5.799l-8.735,8.091l-3.376-0.183
		L188.388,163.58z M180.941,133.69l-1.751,1.623l-5.307-5.748l-8.915,8.195l5.334,5.747l-1.803,1.674l-5.309-5.772l-8.863,8.195
		l5.334,5.746l-1.829,1.701l-5.308-5.771l-8.013,7.37l5.334,5.771l-1.803,1.675l-5.334-5.771l-8.813,8.142l5.308,5.797l-1.779,1.624
		l-5.334-5.747l-8.89,8.22l5.334,5.771l-1.855,1.701l-5.308-5.799l-8.89,8.195l5.334,5.797l-1.701,1.573l-5.334-5.747l-3.735,3.427
		l-2.036-1.262l73.23-67.666l1.081,2.165l-3.685,3.428L180.941,133.69z M184.162,137.194l0.051,0.026l1.392,5.051l-3.169-3.503
		l-8.89,8.245l4.974,5.437l-1.831,1.599l-4.947-5.386l-8.866,8.196l4.975,5.385l-1.831,1.7l-4.973-5.412l-7.988,7.369l4.972,5.412
		l-1.803,1.649l-4.999-5.411l-8.787,8.168l4.947,5.412l-1.778,1.674l-4.948-5.438l-8.941,8.248l4.999,5.386l-1.854,1.701
		l-4.947-5.414l-8.864,8.22l3.169,3.454l-4.87-1.805l-0.052-0.051l-0.051,0.051l-2.397-1.003l66.609-61.481l0.748,2.473
		L184.162,137.194z M265.201,179.223l4.767-5.566l-8.219-7.085l-4.769,5.564l-1.881-1.599l4.77-5.539l-9.122-7.859l-4.768,5.565
		l-1.855-1.597l4.767-5.567l-9.172-7.859l-4.767,5.538l-1.907-1.622l4.767-5.54l-9.147-7.885l-3.039,3.555l1.236-5.051v-0.026
		l-0.027-0.078l0.697-2.473l68.747,59.059l-2.396,1.056l-0.026-0.026l-0.027,0.026l-4.87,1.959l3.094-3.555l-9.2-7.911l-4.739,5.565
		l-1.854-1.547l4.767-5.565l-9.174-7.884l-4.766,5.564L265.201,179.223z M273.139,192.338l-9.174-7.886l-5.077,5.927l-1.881-1.621
		l5.077-5.929l-8.221-7.085l-5.076,5.927l-1.882-1.598l5.077-5.9l-9.121-7.859l-5.076,5.927l-1.881-1.598l5.128-5.9l-9.2-7.885
		l-5.076,5.899l-1.905-1.622l5.076-5.901l-5.669-4.896l0.413-2.885l58.826,50.582l-2.782,0.799l-5.722-4.948l-5.102,5.927
		l-1.829-1.571L273.139,192.338z M278.189,164.095l-8.248-7.085l-5.128,5.978l-1.827-1.621l5.101-5.953l-9.122-7.834l-5.102,5.928
		l-1.881-1.546l5.128-5.979l-9.173-7.885l-5.102,5.953l-1.906-1.623l5.101-5.928l-9.147-7.885l-5.102,5.928l-1.806-1.52l5.104-5.926
		l-3.814-3.324l1.029-2.138l75.604,64.959l-2.011,1.287l-3.839-3.272l-5.102,5.953l-1.831-1.546l5.129-5.952l-9.146-7.911
		l-5.13,5.979l-1.854-1.597l5.103-5.929l-9.148-7.885l-5.128,5.927l-1.856-1.598L278.189,164.095z M262.058,143.945l-1.856-1.545
		l5.104-5.953l-9.15-7.859l-5.128,5.902l-1.88-1.623l5.102-5.902l-9.173-7.885L240,125.008l-1.803-1.547l5.076-5.9l-6.055-5.255
		l1.26-2.036l79.649,68.44l-1.804,1.569l-6.082-5.179l-5.075,5.9l-1.805-1.547l5.076-5.926l-9.146-7.911l-5.078,5.951l-1.88-1.598
		l5.076-5.9l-9.148-7.885l-5.075,5.952l-1.882-1.623l5.076-5.953l-8.245-7.085l-5.102,5.953l-1.831-1.598l5.076-5.928l-9.12-7.859
		L262.058,143.945z M275.354,128.485l-5.077,5.927l-1.83-1.571l5.077-5.953l-9.173-7.885l-5.102,5.953l-1.905-1.623l5.129-5.927
		l-9.148-7.885l-5.078,5.928l-1.855-1.521l5.129-5.927l-6.933-5.953l1.547-1.778l80.809,69.391l-1.572,1.805l-6.881-5.953
		l-5.101,5.953l-1.804-1.547l5.077-5.951l-9.149-7.912l-5.102,5.952l-1.854-1.571l5.076-5.928l-9.146-7.883l-5.104,5.926
		l-1.88-1.598l5.076-5.953l-8.218-7.085l-5.078,5.951l-1.882-1.597l5.128-5.953L275.354,128.485z M330.546,103.157l4.046-4.69
		c0.482,0.67,0.955,1.392,1.418,2.164l-3.583,4.148L330.546,103.157z M325.522,88.571l1.829,1.624l-5.051,5.875l-1.854-1.572
		L325.522,88.571z M315.37,81.897l-4.046,4.742l-1.882-1.597l3.606-4.149L315.37,81.897z M286.123,73.986
		c-7.884,0.979-15.493,3.59-22.828,7.833c-7.421,4.227-14.097,9.792-20.021,16.699c-13.864,16.165-21.466,35.447-22.805,57.848
		c-0.068,0.757-0.111,1.555-0.129,2.398c-0.02,1.287-0.008,2.671,0.026,4.148l-0.489,12.42c-0.312,7.814-0.79,13.803-1.444,17.958
		l-0.101,0.542c-1.583,7.11-3.652,13.398-6.213,18.861c-0.256,0.618-0.549,1.236-0.876,1.855c-0.173,0.351-0.349,0.703-0.529,1.054
		c1.721,2.738,3.657,5.455,5.812,8.156c0.975-0.746,1.955-1.461,2.939-2.15c0.547-0.413,1.105-0.801,1.673-1.161
		c5.017-3.35,10.935-6.347,17.753-8.993l0.49-0.154c3.968-1.34,9.792-2.74,17.472-4.2l18.448-3.583
		c21.937-4.705,39.846-15.15,53.727-31.333c5.94-6.905,10.453-14.326,13.527-22.262c3.075-7.919,4.509-15.849,4.304-23.786
		c-0.207-7.763-1.918-15.038-5.129-21.824c-3.212-6.872-7.755-12.816-13.632-17.831c-5.823-5.017-12.359-8.597-19.608-10.745
		C301.292,73.576,293.837,72.99,286.123,73.986z M292.515,76.77l3.838,0.128l46.099,39.578c0.258,1.168,0.481,2.44,0.671,3.814
		l-2.782-2.447l-5.128,5.926l-1.832-1.571l5.102-5.927l-9.172-7.859l-5.102,5.9l-1.88-1.622l5.1-5.901l-8.22-7.087l-5.127,5.928
		l-1.856-1.572l5.102-5.952l-9.119-7.833l-5.102,5.9l-1.856-1.546l5.128-5.953l-9.173-7.885l-5.127,5.927l-1.908-1.623l5.129-5.927
		L292.515,76.77z M277.93,80.868l-5.102,5.9l-1.805-1.521l4.716-5.461l3.298-1.083l64.188,55.143l-0.517,3.478l-4.688,5.463
		l-1.804-1.57l5.076-5.928l-9.173-7.885l-5.102,5.953l-1.83-1.597l5.077-5.953l-9.173-7.859l-5.102,5.928l-1.855-1.623l5.076-5.9
		l-8.219-7.086l-5.101,5.951l-1.855-1.622l5.076-5.929l-9.12-7.858l-5.078,5.926l-1.854-1.545l5.076-5.953l-9.172-7.911
		l-5.079,5.951l-1.906-1.622l5.078-5.953L277.93,80.868z M267.934,88.854l-4.177-3.582l2.139-1.212l74.031,63.621l-0.901,2.268
		l-4.125-3.556l-5.102,5.952l-1.83-1.571l5.128-5.927l-9.197-7.885l-5.102,5.9l-1.856-1.547l5.13-5.952l-9.174-7.859l-5.129,5.927
		l-1.881-1.622l5.129-5.928l-8.221-7.061l-5.13,5.901l-1.853-1.572l5.102-5.953l-9.12-7.833l-5.128,5.928l-1.831-1.573l5.102-5.926
		l-9.173-7.911l-5.101,5.953l-1.881-1.623l5.075-5.953l-9.119-7.859l-5.102,5.927l-1.83-1.52L267.934,88.854z M253.347,92.927
		l1.779-1.521l79.131,68.001l-1.212,1.984l-6.337-5.463l-5.129,5.978l-1.802-1.545l5.128-5.979l-9.2-7.885l-5.102,5.951l-1.856-1.57
		l5.128-5.98l-9.197-7.859l-5.104,5.953l-1.88-1.624l5.128-5.928l-8.245-7.085l-5.104,5.953l-1.88-1.598l5.129-5.953l-9.123-7.859
		l-5.128,5.953l-1.829-1.571l5.103-5.953l-9.175-7.911l-5.126,5.979l-1.906-1.623l5.128-5.979l-9.122-7.885l-5.103,5.978
		l-1.829-1.521l5.101-5.979L253.347,92.927z M145.458,87.256l-3.993,3.687l5.307,5.694l-1.751,1.623l-5.308-5.721l-8.941,8.22
		l5.334,5.745l-1.779,1.649l-5.334-5.746l-8.813,8.194l5.283,5.746l-1.831,1.674l-5.334-5.719l-7.988,7.344l5.334,5.745l-1.803,1.65
		l-5.308-5.747l-8.813,8.194l5.282,5.72l-1.778,1.649l-5.334-5.746l-8.865,8.246l5.334,5.747l-1.854,1.675l-5.307-5.747
		l-8.889,8.195l5.334,5.746l-1.727,1.623l-5.334-5.747l-4.045,3.71l-0.954-2.293l71.685-66.196L145.458,87.256z M122.682,76.693
		c-7.715-0.669-15.134,0.189-22.264,2.578c-7.164,2.422-13.579,6.251-19.248,11.492c-5.635,5.221-9.946,11.303-12.936,18.243
		c-2.972,6.922-4.423,14.25-4.355,21.979c0.086,7.972,1.804,15.864,5.155,23.68c3.366,7.817,8.142,15.066,14.326,21.75
		c14.464,15.684,32.741,25.457,54.833,29.324c0.738,0.17,1.52,0.3,2.345,0.386c1.288,0.188,2.652,0.335,4.096,0.438l12.317,1.959
		c7.731,1.183,13.623,2.346,17.676,3.479l0.515,0.129c6.889,2.422,12.91,5.205,18.063,8.351c0.549,0.358,1.125,0.719,1.727,1.08
		c1.163,0.76,2.323,1.56,3.479,2.396c1.974-2.726,3.745-5.457,5.308-8.194c-0.303-0.523-0.592-1.048-0.877-1.569
		c-0.344-0.551-0.652-1.125-0.927-1.728c-2.732-5.394-5.033-11.621-6.906-18.682l-0.078-0.541
		c-0.859-4.054-1.581-9.998-2.164-17.831l-1.444-18.758c-2.147-22.316-10.462-41.306-24.942-56.972
		c-6.15-6.683-13.003-11.999-20.563-15.949C138.297,79.758,130.583,77.414,122.682,76.693z M131.132,83.263l-8.864,8.245
		l5.282,5.746l-1.779,1.65l-5.307-5.747l-8.864,8.194l5.307,5.719l-1.854,1.675l-5.309-5.72l-7.962,7.37l5.307,5.747l-1.829,1.675
		l-5.256-5.772l-8.864,8.168l5.307,5.747l-1.831,1.674l-5.255-5.771l-8.864,8.247l5.256,5.72l-1.805,1.701l-5.307-5.747l-8.89,8.194
		l5.334,5.747l-1.779,1.598l-4.895-5.308l-0.645-3.428l62.151-57.409l3.375,0.927l4.896,5.309l-1.753,1.649L131.132,83.263z
		 M96.088,84.552l3.711,4.02l-1.803,1.701l-4.227-4.56C94.492,85.333,95.264,84.947,96.088,84.552z M111.911,83.933l-8.864,8.169
		l5.307,5.745l-1.803,1.701l-5.36-5.747l-7.963,7.369l5.308,5.746l-1.778,1.623l-5.334-5.72l-8.838,8.169l5.334,5.745l-1.804,1.623
		l-5.333-5.719l-8.864,8.193l5.334,5.747l-1.854,1.701l-5.308-5.772l-2.681,2.5l0.568-3.788l44.603-41.254
		c1.167-0.12,2.447-0.189,3.839-0.207l-2.731,2.5l5.334,5.745l-1.803,1.649L111.911,83.933z M82.896,93.571l1.855-1.624l5.23,5.721
		l-1.803,1.623L82.896,93.571z M348.223,101.739l2.087,4.973c1.923,5.274,3.109,10.77,3.556,16.491l0.154,2.268l-0.027,0.206
		c0.378,9.001-1.16,17.959-4.612,26.875l-1.005,2.37c-3.263,7.695-7.791,14.901-13.578,21.618
		c-4.932,5.773-10.506,10.953-16.725,15.538l-2.035,1.495c-10.686,7.421-22.874,12.747-36.563,15.976
		c-1.168,0.257-2.361,0.507-3.583,0.747l-18.424,3.067c-7.918,1.356-13.389,2.61-16.413,3.762
		c-6.339,2.458-11.853,5.249-16.541,8.375c-0.07,0.067-0.154,0.137-0.258,0.206c-1.271,0.851-2.534,1.755-3.788,2.718
		c0.44,0.482,0.887,0.968,1.338,1.455l4.95,5.412l-4.483,4.174l-4.973-5.413c-0.529-0.574-1.049-1.151-1.559-1.728
		c-1.275,1.128-2.538,2.314-3.788,3.557c0.53,0.546,1.058,1.107,1.583,1.674l4.922,5.413l-4.484,4.096l-4.947-5.359
		c-0.43-0.47-0.865-0.93-1.301-1.381c-0.554,0.619-1.107,1.25-1.662,1.896l-4.767,5.514l-4.638-3.968l4.768-5.517
		c0.653-0.76,1.309-1.506,1.971-2.241c-1.297-1.217-2.603-2.375-3.917-3.478c-0.634,0.771-1.283,1.546-1.944,2.317l-4.766,5.567
		l-4.639-3.944l4.767-5.565c0.607-0.71,1.2-1.417,1.778-2.128c-1.45-1.049-2.91-2.033-4.38-2.949
		c-0.086-0.051-0.18-0.093-0.283-0.128c-4.81-2.955-10.428-5.548-16.853-7.783c-3.368-1.167-8.881-2.233-16.542-3.196l-18.811-2.163
		c-1.203-0.207-2.38-0.422-3.531-0.646c-13.828-2.695-26.197-7.583-37.105-14.662l-2.164-1.365
		c-6.355-4.381-12.103-9.354-17.239-14.92c-5.994-6.51-10.788-13.553-14.377-21.13l-1.083-2.346
		c-3.763-8.795-5.626-17.675-5.592-26.643l-0.025-0.257l0.102-2.241c0.225-5.755,1.212-11.285,2.964-16.595
		c0.412-1.408,1.039-3.101,1.88-5.076c3.436-7.971,8.401-14.944,14.896-20.923c6.493-5.994,13.845-10.392,22.057-13.193l5.257-1.52
		c5.41-1.323,10.992-1.864,16.749-1.623l2.267,0.104l0.206,0.052c8.95,0.652,17.65,3.205,26.103,7.653l2.293,1.262
		c7.283,4.157,13.923,9.491,19.917,16.002c5.17,5.565,9.679,11.682,13.528,18.347l1.211,2.242
		c6.166,11.476,10.058,24.188,11.673,38.136c0.12,1.186,0.231,2.396,0.335,3.634l0.953,18.705
		c0.412,7.989,1.014,13.563,1.803,16.725c1.66,6.354,3.719,11.971,6.186,16.852c2.158-4.853,3.938-10.4,5.333-16.647
		c0.757-3.47,1.167-9.069,1.237-16.8v-18.913c0.033-1.202,0.111-2.396,0.232-3.583c1.102-14.069,4.535-26.91,10.307-38.522
		l1.106-2.293c3.591-6.82,7.859-13.123,12.807-18.914c5.771-6.683,12.232-12.231,19.376-16.646l2.165-1.365
		c8.332-4.724,16.956-7.593,25.872-8.607l0.204-0.051l2.296-0.206c5.718-0.429,11.319-0.077,16.799,1.055
		c1.444,0.275,3.195,0.704,5.256,1.289c8.298,2.525,15.796,6.648,22.496,12.37C339.292,87.094,344.513,93.905,348.223,101.739z"/>
</g>
</svg>
