<?xml version="1.0" encoding="utf-8"?>
<!-- Generator: Adobe Illustrator 16.0.0, SVG Export Plug-In . SVG Version: 6.00 Build 0)  -->
<!DOCTYPE svg PUBLIC "-//W3C//DTD SVG 1.1//EN" "http://www.w3.org/Graphics/SVG/1.1/DTD/svg11.dtd">
<svg version="1.1" id="Layer_1" xmlns="http://www.w3.org/2000/svg" xmlns:xlink="http://www.w3.org/1999/xlink" x="0px" y="0px"
	 width="400px" height="400px" viewBox="0 0 400 400" enable-background="new 0 0 400 400" xml:space="preserve">
<g>
	<path fill-rule="evenodd" clip-rule="evenodd" fill="#DCE23B" d="M183.542,217.019c0.481,10.251-1.856,19.202-7.012,26.853
		c-7.35-7.02-11.258-15.662-11.724-25.928c-0.481-10.281,2.585-19.276,9.199-26.987
		C179.867,198.065,183.045,206.753,183.542,217.019z M241.664,214.269c0.466,10.115-2.6,19.089-9.198,26.919
		c-5.832-6.719-9.011-15.398-9.537-26.04c-0.511-10.642,1.826-19.6,7.012-26.874C237.26,195.487,241.168,204.152,241.664,214.269z
		 M201.24,177.519c9.018-0.436,17.33,2.21,24.936,7.937c-6.013,8.567-8.756,18.548-8.229,29.94
		c0.586,11.559,4.269,21.313,11.048,29.265c-6.689,6.223-14.715,9.566-24.08,10.032c-9.363,0.406-17.675-2.156-24.935-7.688
		c6.042-8.191,8.778-18.262,8.207-30.211c-0.571-11.738-4.246-21.403-11.025-28.993C184.195,181.382,192.222,177.955,201.24,177.519
		z"/>
	<path fill-rule="evenodd" clip-rule="evenodd" fill="#147E3F" d="M349.274,202.838l0.315,1.194
		c-1.623,0.857-5.148,2.977-10.574,6.358c-4.254,2.676-7.936,4.659-11.047,5.951c-5.486,0.798-9.688,1.24-12.604,1.331
		c-4.494,0.135-8.657-0.293-12.49-1.285l6.764-10.101c9.574,0.676,17.895,0.504,24.959-0.519c6.748-1.593,11.34-2.601,13.775-3.021
		C350.597,202.387,350.897,202.417,349.274,202.838z M367.92,173.596c-3.533,3.202-7.839,6.298-12.919,9.289
		c-13.647,2.45-24.846,3.848-33.593,4.193c0.09-0.841,0.413-2.052,0.969-3.63c0.602-1.818,0.992-3.141,1.173-3.968l0.022,0.022
		c0.408-1.229,0.945-2.18,1.612-2.852c0.668-0.67,1.491-1.32,2.468-1.95c7.591,0.376,15.933-0.939,25.026-3.946
		c3.065-0.992,10.979-4.133,23.741-9.424C375.307,165.3,372.474,169.388,367.92,173.596z M364.199,184.802
		c-2.63,2.675-5.509,5.14-8.635,7.395c-2.66,1.969-5.907,4.035-9.74,6.2c-6.463,1.232-11.873,2.089-16.232,2.57
		c-5.666,0.661-11.13,0.901-16.391,0.721c0.061-0.345,0.135-1.188,0.226-2.524c0.159-0.617,0.693-1.677,1.601-3.18
		c0.908-1.503,1.742-2.547,2.502-3.134c1.277-0.36,2.864-0.646,4.758-0.856c1.939-0.181,8.041-0.691,18.307-1.533
		C350.244,188.085,358.111,186.199,364.199,184.802z M381.605,127.952c0.085-0.089,0.164-0.168,0.236-0.236l-3.957,5.873
		C377.992,133.347,379.232,131.468,381.605,127.952z M351.957,148.818c6.809-2.375,12.813-4.93,18.014-7.666
		c2.266-1.338,4.084-2.773,5.457-4.306l2.457-3.247l3.968-5.895c0.085-0.069,0.159-0.126,0.226-0.17
		c-0.03,0.526-0.008,1.894,0.067,4.104c-0.255,4.269-0.729,7.29-1.42,9.063c-1.384,9.409-10.634,17.623-27.754,24.643
		c-8.861,2.675-16.993,4.328-24.395,4.96c0.136-1.984,0.789-4.63,1.962-7.937c1.457-3.968,2.322-6.546,2.593-7.733
		C340.827,152.485,347.102,150.547,351.957,148.818z M71.535,155.154l12.625,9.469c8.988,3.427,17.931,6.305,26.829,8.635
		c0.18,1.368,0.646,2.743,1.398,4.126c0.947,1.818,1.548,3.066,1.804,3.742c-7.335,0.376-15.038-1.149-23.109-4.577
		c-8.567-3.637-14.617-8.289-18.149-13.955c-0.617-1.909-1.3-4.269-2.052-7.079L71.535,155.154z M66.868,154.635
		c0.271,1.188,1.135,3.766,2.593,7.733c1.172,3.307,1.826,5.952,1.961,7.937c-7.395-0.632-15.527-2.285-24.395-4.96
		c-17.12-7.02-26.371-15.233-27.753-24.643c-0.691-1.773-1.165-4.795-1.42-9.063c0.075-2.21,0.098-3.577,0.067-4.104
		c0.061,0.045,0.135,0.105,0.226,0.181c0.075,0.075,0.158,0.158,0.248,0.248c2.375,3.502,3.615,5.381,3.72,5.636l2.458,3.247
		c1.368,1.533,3.186,2.968,5.456,4.306c5.2,2.736,11.205,5.291,18.014,7.666C52.897,150.547,59.172,152.485,66.868,154.635z
		 M328.465,155.154l0.654,0.36c-0.752,2.811-1.436,5.17-2.053,7.079c-3.531,5.666-9.582,10.318-18.148,13.955
		c-8.072,3.428-15.775,4.953-23.109,4.577c0.256-0.676,0.856-1.924,1.804-3.742c0.751-1.383,1.218-2.758,1.397-4.126
		c8.898-2.33,17.842-5.208,26.829-8.635L328.465,155.154z M23.581,161.331c12.761,5.291,20.674,8.432,23.74,9.424
		c9.094,3.007,17.436,4.322,25.026,3.946c0.977,0.631,1.796,1.284,2.458,1.961c0.676,0.661,1.217,1.608,1.623,2.841l0.022-0.022
		c0.181,0.827,0.571,2.149,1.172,3.968c0.556,1.578,0.879,2.789,0.97,3.63c-8.748-0.346-19.945-1.743-33.593-4.193
		c-5.08-2.991-9.386-6.087-12.918-9.289C27.526,169.388,24.693,165.3,23.581,161.331z M218.961,267.679
		c-2.932-0.135-6.23-0.879-9.898-2.232l12.221-2.728c4.013,1.909,6.748,3.284,8.206,4.126
		C224.424,267.446,220.914,267.724,218.961,267.679z M242.408,272.301c-1.322-0.181-3.87-0.759-7.643-1.736
		c4.869-1.338,8.176-2.202,9.92-2.593c0.736,0.797,1.638,1.421,2.705,1.871c0.797,0.331,1.953,0.64,3.473,0.925l-0.586,0.834
		C247.962,272.429,245.339,272.661,242.408,272.301z M234.697,264.297c-2.044-0.21-4.171-0.616-6.38-1.218
		c-2.09-0.57-3.322-0.871-3.698-0.901l-0.248-1.172l9.515-2.639c0.767,0.646,2.42,1.526,4.96,2.639
		c2.359,1.021,3.615,1.638,3.766,1.848C238.732,263.471,236.096,263.951,234.697,264.297z M258.573,259.811l-0.405-1.691
		l8.297-5.681c1.983,0.015,4.749,0.488,8.297,1.42c3.907,1.082,6.695,1.698,8.363,1.849l-5.568,3.292
		C272.672,259.705,266.344,259.976,258.573,259.811z M255.305,267.994c-4.766,0.361-7.854-0.255-9.267-1.849
		c3.216-1.983,6.313-3.803,9.288-5.456c4.074,0.963,8.342,2.044,12.807,3.247c0.029,0.271-0.045,0.503-0.226,0.698
		s-0.887,0.774-2.12,1.736C260.678,267.318,257.184,267.859,255.305,267.994z M253.297,257.218
		c-0.176-0.288-0.077-0.221,0.294,0.203l-2.435,1.037c-3.412,0.525-6.02,0.773-7.824,0.744c-2.239-0.046-4.757-0.421-7.553-1.128
		c2.255-1.413,3.953-2.42,5.096-3.021c1.879-0.947,3.697-1.354,5.456-1.218C249.767,254.237,252.089,255.364,253.297,257.218z
		 M262.519,251.919c-3.833,0.646-6.605,0.992-8.319,1.037c-2.811,0.016-5.493-0.495-8.049-1.532
		c2.119-2.315,5.088-3.435,8.906-3.359c1.277,0,4.546,0.48,9.807,1.442c0.045,0.181,0,0.534-0.135,1.06
		C264.245,251.271,263.509,251.722,262.519,251.919z M258.776,226.601c-0.15,3.607-1.954,7.673-5.411,12.197
		c-2.811,3.683-6.162,7.057-10.055,10.123c-3.938,1.999-6.682,3.352-8.229,4.058c-1.548,0.722-4.952,2.195-10.214,4.42l-2.074,0.473
		l1.939-0.969l13.73-9.019c1.217-1.458,2.982-3.772,5.298-6.944c1.834-2.525,2.946-3.93,3.337-4.216
		c0.541-2.48,2.021-4.614,4.441-6.403C253.178,229.104,255.59,227.863,258.776,226.601z M286.846,244.614
		c2.924,0.611,5.881,1.047,8.871,1.308l0.62-0.293l-1.081,0.699c-3.924,2.405-8.088,3.825-12.491,4.261
		c-3.202,0.331-7.53,0.12-12.985-0.631c2.088-1.623,5.064-4.028,8.928-7.215C282.373,243.646,285.087,244.269,286.846,244.614z
		 M275.234,241.12c-0.436,0.346-1.849,1.397-4.238,3.156c-9.063,1.202-14.444,0.834-16.143-1.104
		c3.486-1.969,6.914-3.156,10.28-3.563c2.376-0.256,6.05-0.135,11.024,0.361C275.979,240.376,275.67,240.76,275.234,241.12z
		 M280.69,241.391l-0.226-0.992l8.342-7.462c7.049,1.172,14.242,1.646,21.576,1.42c-3.171,2.585-7.537,5.08-13.099,7.485
		c-5.321,0.165-8.673,0.232-10.056,0.202C285.831,242.015,283.652,241.796,280.69,241.391z M278.278,236.701
		c-3.276,0.391-6.583,0.451-9.921,0.181c-2.689-0.256-5.937-0.827-9.738-1.714c1.878-2.721,6.139-4.028,12.783-3.923
		c0.961,0,5.516,0.437,13.662,1.308L278.278,236.701z M278.346,217.582c-10.115,0.15-15.195,0.226-15.24,0.226
		c4.148-4.283,10.957-7.191,20.426-8.725c10.807-0.977,18.442-1.834,22.906-2.57c-1.578,2.209-3.465,4.133-5.658,5.771
		c-1.715,1.248-4.134,2.668-7.26,4.261C289.461,217.116,284.402,217.463,278.346,217.582z M297.915,221.618l-0.495,0.36
		c0.721-0.57,1.383-1.015,1.983-1.33c5.081,1.022,10.634,1.391,16.661,1.104c4.555-0.21,10.184-0.879,16.887-2.006
		c-1.563,1.743-3.66,3.479-6.291,5.208c-1.652,1.097-4.08,2.518-7.281,4.261c-6.102,1.157-10.672,1.842-13.708,2.052
		c-4.84,0.315-9.394-0.053-13.663-1.104C293.045,228.179,295.015,225.33,297.915,221.618z M295.706,220.085
		c-0.15,1.308-1.285,2.751-3.405,4.329c-0.51,0.391-2.201,1.487-5.072,3.291c-5.29,0.692-9.469,1.008-12.535,0.947
		c-3.938-0.061-7.996-0.685-12.175-1.871c0.616-0.437,2.315-1.676,5.095-3.721c3.293-0.735,7.951-1.277,13.979-1.623
		C288.025,221.107,292.73,220.656,295.706,220.085z M284.839,174.182c-0.451,1.368-1.007,2.887-1.669,4.555
		c-0.367,0.571-0.656,0.974-0.867,1.206l0.012,0.057c-2.496,1.984-5.547,3.923-9.154,5.816c-1.653,0.888-4.975,2.473-9.965,4.758
		c-1.322,2.179-2.104,3.472-2.346,3.877c-0.736,1.384-1.27,2.773-1.6,4.171c-0.03,1.834,0.053,4.563,0.248,8.185
		c0.12,3.156,0.008,5.719-0.339,7.688c-0.887,5.485-4.028,9.424-9.424,11.813c-0.075-6.373-0.053-11.295,0.067-14.768
		c0.181-5.411,0.631-10.355,1.354-14.835l0.789-1.533c2.555-5.651,7.057-10.153,13.504-13.505
		C267.328,180.69,273.791,178.195,284.839,174.182z M309.729,192.872c1.233-0.346,2.871-0.661,4.916-0.946
		c-3.668,4.765-7.433,8.515-11.296,11.25c-5.952,1.188-12.724,2.082-20.313,2.683c-4.479,0.361-11.332,0.774-20.562,1.24
		c4.208-3.983,10.04-6.756,17.495-8.319c8.898-1.217,15.527-2.111,19.885-2.683C305.221,194.323,308.512,193.248,309.729,192.872z
		 M322.693,175.445c-0.048,0.104-0.104,0.341-0.17,0.709c-1.441,3.146-3.693,5.863-6.752,8.15c-1.578,1.218-4.374,2.954-8.387,5.208
		c-12.775,2.736-27.01,5.299-42.701,7.688c5.711-4.704,12.693-8.395,20.944-11.07c2.345-0.781,10.176-2.795,23.493-6.042
		c3.517-1.383,5.847-2.284,6.988-2.705C317.237,177.023,319.432,176.377,322.693,175.445z M117.686,179.954
		c-0.21-0.24-0.496-0.646-0.857-1.218c-0.661-1.668-1.217-3.187-1.668-4.555c11.047,4.014,17.511,6.509,19.389,7.485
		c6.448,3.352,10.95,7.854,13.505,13.505l0.789,1.533c0.722,4.479,1.172,9.424,1.353,14.835c0.12,3.473,0.143,8.395,0.067,14.768
		c-5.396-2.39-8.537-6.328-9.424-11.813c-0.346-1.97-0.458-4.532-0.338-7.688c0.195-3.622,0.278-6.351,0.248-8.185
		c-0.331-1.397-0.864-2.787-1.601-4.171c-0.241-0.405-1.022-1.698-2.345-3.877c-4.99-2.285-8.312-3.87-9.965-4.758
		c-3.607-1.894-6.659-3.832-9.153-5.816V179.954z M132.386,223.061c2.78,2.045,4.479,3.284,5.095,3.721
		c-4.179,1.187-8.237,1.811-12.175,1.871c-3.066,0.061-7.245-0.255-12.535-0.947c-2.871-1.804-4.562-2.9-5.073-3.291
		c-2.12-1.578-3.254-3.021-3.405-4.329c2.976,0.571,7.681,1.022,14.114,1.353C124.435,221.783,129.094,222.325,132.386,223.061z
		 M121.721,236.701l-6.786-4.148c8.146-0.871,12.701-1.308,13.663-1.308c6.644-0.105,10.905,1.202,12.784,3.923
		c-3.803,0.887-7.049,1.458-9.74,1.714C128.305,237.152,124.998,237.092,121.721,236.701z M119.309,241.391
		c-2.961,0.405-5.141,0.624-6.538,0.653c-1.383,0.03-4.734-0.037-10.056-0.202c-5.561-2.405-9.927-4.9-13.099-7.485
		c7.334,0.226,14.527-0.248,21.576-1.42l8.342,7.462L119.309,241.391z M134.866,239.609c3.367,0.406,6.793,1.594,10.281,3.563
		c-1.699,1.938-7.08,2.307-16.143,1.104c-2.39-1.759-3.803-2.811-4.239-3.156c-0.436-0.36-0.744-0.744-0.924-1.149
		C128.816,239.475,132.491,239.354,134.866,239.609z M152.902,236.724c0.39,0.286,1.502,1.69,3.336,4.216
		c2.315,3.172,4.081,5.486,5.298,6.944l13.73,9.019l1.939,0.969l-2.074-0.473c-5.26-2.225-8.665-3.698-10.213-4.42
		c-1.548-0.706-4.291-2.059-8.229-4.058c-3.893-3.066-7.245-6.44-10.056-10.123c-3.457-4.524-5.261-8.59-5.411-12.197
		c3.187,1.263,5.599,2.503,7.237,3.72C150.88,232.109,152.361,234.243,152.902,236.724z M116.964,205.858
		c-7.59-0.601-14.362-1.495-20.313-2.683c-3.863-2.735-7.628-6.485-11.295-11.25c2.044,0.285,3.682,0.601,4.915,0.946
		c1.217,0.376,4.509,1.451,9.875,3.225c4.359,0.571,10.987,1.466,19.885,2.683c7.456,1.563,13.287,4.336,17.496,8.319
		C128.297,206.633,121.443,206.22,116.964,205.858z M121.654,217.582c-6.057-0.119-11.115-0.466-15.173-1.037
		c-3.126-1.593-5.546-3.013-7.26-4.261c-2.194-1.639-4.081-3.563-5.659-5.771c4.464,0.736,12.1,1.594,22.906,2.57
		c9.469,1.533,16.278,4.441,20.426,8.725C136.85,217.808,131.77,217.732,121.654,217.582z M90.879,180.089
		c13.317,3.247,21.148,5.261,23.493,6.042c8.251,2.676,15.233,6.366,20.945,11.07c-15.692-2.39-29.925-4.952-42.701-7.688
		c-4.013-2.254-6.809-3.99-8.387-5.208c-3.066-2.284-5.321-4.997-6.764-8.139c-0.06-0.375-0.113-0.616-0.158-0.721
		c3.262,0.932,5.456,1.578,6.583,1.938C85.032,177.805,87.362,178.706,90.879,180.089z M86.798,201.688
		c-5.261,0.181-10.724-0.06-16.391-0.721c-4.359-0.481-9.77-1.338-16.233-2.57c-3.833-2.165-7.079-4.231-9.74-6.2
		c-3.126-2.255-6.004-4.72-8.635-7.395c6.087,1.397,13.956,3.283,23.605,5.658c10.266,0.842,16.368,1.353,18.307,1.533
		c1.894,0.21,3.479,0.496,4.757,0.856c0.767,0.586,1.601,1.631,2.502,3.134s1.436,2.563,1.601,3.18
		C86.663,200.5,86.738,201.343,86.798,201.688z M50.41,204.032l0.316-1.194c-1.624-0.421-1.323-0.451,0.902-0.091
		c2.435,0.421,7.026,1.429,13.775,3.021c7.064,1.022,15.384,1.194,24.958,0.519l6.764,10.101c-3.833,0.992-7.996,1.42-12.49,1.285
		c-2.916-0.091-7.117-0.533-12.603-1.331c-3.111-1.292-6.794-3.275-11.047-5.951C55.558,207.009,52.033,204.89,50.41,204.032z
		 M67.048,219.747c6.704,1.127,12.333,1.796,16.887,2.006c6.027,0.286,11.581-0.082,16.661-1.104c0.601,0.315,1.263,0.76,1.984,1.33
		l-0.496-0.36c2.901,3.712,4.87,6.561,5.907,8.545c-4.269,1.052-8.823,1.42-13.663,1.104c-3.036-0.21-7.605-0.895-13.708-2.052
		c-3.201-1.743-5.629-3.164-7.282-4.261C70.708,223.227,68.611,221.49,67.048,219.747z M104.271,245.922
		c2.991-0.256,5.952-0.69,8.883-1.308c1.758-0.346,4.472-0.969,8.139-1.871c3.863,3.187,6.839,5.592,8.928,7.215
		c-5.456,0.751-9.785,0.962-12.986,0.631c-4.404-0.436-8.567-1.855-12.49-4.261l-1.082-0.699L104.271,245.922z M175.38,262.178
		c-0.375,0.03-1.608,0.331-3.697,0.901c-2.209,0.602-4.336,1.008-6.38,1.218c-1.398-0.346-4.036-0.826-7.914-1.443
		c0.15-0.21,1.405-0.826,3.765-1.848c2.54-1.112,4.193-1.992,4.96-2.639l9.514,2.639L175.38,262.178z M159.125,255.054
		c1.143,0.601,2.841,1.607,5.095,3.021c-2.795,0.707-5.313,1.082-7.553,1.128c-1.804,0.029-4.411-0.219-7.823-0.744l-2.435-1.037
		c0.364-0.408,0.466-0.483,0.305-0.226c1.21-1.836,3.529-2.955,6.955-3.359C155.427,253.7,157.246,254.106,159.125,255.054z
		 M157.592,272.301c-2.931,0.36-5.554,0.128-7.869-0.699l-0.586-0.834c1.518-0.285,2.675-0.594,3.472-0.925
		c1.067-0.45,1.969-1.074,2.706-1.871c1.744,0.391,5.05,1.255,9.92,2.593C161.462,271.542,158.914,272.12,157.592,272.301z
		 M170.51,266.845c1.458-0.842,4.193-2.217,8.207-4.126l12.22,2.728c-3.667,1.354-6.967,2.098-9.897,2.232
		C179.085,267.724,175.575,267.446,170.51,266.845z M137.481,251.919c-0.992-0.195-1.729-0.646-2.209-1.353
		c-0.135-0.525-0.18-0.879-0.135-1.06c5.261-0.962,8.53-1.442,9.807-1.442c3.818-0.075,6.786,1.044,8.906,3.359
		c-2.555,1.037-5.238,1.548-8.049,1.532C144.087,252.911,141.313,252.565,137.481,251.919z M141.426,259.811
		c-7.771,0.165-14.099-0.105-18.983-0.812l-5.569-3.292c1.668-0.15,4.457-0.767,8.365-1.849c3.547-0.932,6.313-1.405,8.296-1.42
		l8.297,5.681L141.426,259.811z M132.092,264.635c-0.18-0.195-0.255-0.428-0.226-0.698c4.464-1.203,8.733-2.284,12.806-3.247
		c2.976,1.653,6.072,3.473,9.289,5.456c-1.413,1.594-4.501,2.21-9.266,1.849c-1.878-0.135-5.373-0.676-10.483-1.623
		C132.979,265.409,132.273,264.83,132.092,264.635z"/>
</g>
</svg>
