<?xml version="1.0" encoding="utf-8"?>
<!-- Generator: Adobe Illustrator 16.0.0, SVG Export Plug-In . SVG Version: 6.00 Build 0)  -->
<!DOCTYPE svg PUBLIC "-//W3C//DTD SVG 1.1//EN" "http://www.w3.org/Graphics/SVG/1.1/DTD/svg11.dtd">
<svg version="1.1" id="Layer_1" xmlns="http://www.w3.org/2000/svg" xmlns:xlink="http://www.w3.org/1999/xlink" x="0px" y="0px"
	 width="300px" height="300px" viewBox="0 0 300 300" enable-background="new 0 0 300 300" xml:space="preserve">
<g>
	<path fill-rule="evenodd" clip-rule="evenodd" fill="#EE9278" d="M223.6,135.104c0.449-0.102,0.824-0.153,1.129-0.153
		c1.707,0,3.383-0.213,5.029-0.64c0.426-0.102,2.611-0.895,6.553-2.378l6.523-2.744c0.996-0.528,2.582-1.168,4.756-1.92
		c0.244-0.061,1.453-0.091,3.627-0.091c1.463,0,2.582-0.122,3.354-0.366c0.184-0.061,1.453-0.528,3.811-1.402
		c0.813-0.305,2.164-0.833,4.055-1.585l4.572-1.585c2.012-0.488,2.895-0.996,2.652-1.524c-0.104-0.345-0.6-0.487-1.494-0.426
		c-1.24,0.223-2.236,0.365-2.988,0.426c-2.539-0.061-4.135-0.091-4.785-0.091c-1.279,0-2.51,0.183-3.688,0.549
		c-1.424,0.813-2.602,1.219-3.537,1.219l-6.553,0.64c-1.646,0-3.557,0.234-5.732,0.701c-3.76,0.996-6.115,1.554-7.07,1.676
		c-4.635,0.224-7.633,0.488-8.992,0.792c-1.83,0.346-4.391,1.047-7.684,2.104c-1.594,0.498-3.059,0.787-4.389,0.869
		c-0.145-0.154-0.285-0.312-0.426-0.472c-0.104,0.081-0.193,0.172-0.275,0.274c-1.037-0.752-2.053-1.535-3.049-2.347
		c-1.279-1.077-2.52-2.215-3.719-3.415c-1.707-1.707-3.262-3.475-4.664-5.304c-1.361-1.768-2.59-3.597-3.688-5.487
		c0.508,0.143,1.057,0.275,1.646,0.397c-0.225-0.407-0.438-0.803-0.641-1.189c-0.547-0.091-1.029-0.147-1.447-0.168
		c-0.111-0.881-0.229-1.445-0.352-1.691c-0.258-0.604-0.77-1.254-1.539-1.951c-0.08-0.184-0.156-0.367-0.229-0.549
		c-0.875-1.991-1.596-4.044-2.164-6.157c0.426-0.569,0.66-0.874,0.701-0.915c0.143,0,0.426,0.041,0.854,0.122
		c-0.549-2.357-0.914-4.786-1.098-7.286c-0.773-0.102-1.424-0.193-1.951-0.274c-0.041-0.325-0.072-0.66-0.092-1.006
		c0.57-0.041,1.23-0.102,1.982-0.183c-0.061-0.854-0.092-1.728-0.092-2.622c0-0.305,0.01-0.62,0.031-0.945
		c-0.184,0.061-0.387,0.153-0.611,0.274c-0.691,0.325-1.057,0.488-1.096,0.488c-0.143,0-0.275,0-0.396,0
		c0.02-1.037,0.061-2.052,0.121-3.048c0.59-0.224,1.291-0.467,2.104-0.731c0.08-1.118,0.193-2.215,0.336-3.292
		c-0.104-0.122-0.215-0.254-0.336-0.396c-0.65-0.813-1.107-1.382-1.371-1.707c1.096-5.975,3.24-11.502,6.432-16.583
		c0.873-1.443,1.838-2.835,2.895-4.176c0.732-0.935,1.494-1.859,2.287-2.774c1.279-0.752,2.611-1.331,3.992-1.737
		c0.691-0.224,1.393-0.396,2.104-0.519c1.301-0.223,2.633-0.294,3.994-0.213h0.061c0-0.081-0.02-0.132-0.061-0.152
		c0-0.02-0.01-0.03-0.031-0.03H212.9c-0.102-0.102-0.438-0.152-1.006-0.152c-1.646,0-2.541-0.021-2.684-0.061
		c-0.102-0.021-0.172-0.051-0.213-0.091c-0.244-0.061-0.467-0.122-0.67-0.183c-0.631-0.163-1.27-0.325-1.92-0.488
		c0.854-0.792,1.717-1.564,2.59-2.316l0.031-0.061c0.121,0,0.254,0.02,0.396,0.061c0.895,0.041,1.605-0.122,2.133-0.488
		c0.529-0.366,0.926-0.549,1.189-0.549c0.041,0,0.092,0.021,0.152,0.061c0.324-0.244,0.65-0.478,0.977-0.701
		c-0.225,0-0.52,0.01-0.885,0.03c-0.162,0-0.365,0-0.609,0c-0.346,0-0.65-0.091-0.916-0.274c0.488-0.366,0.996-0.722,1.525-1.067
		c3.068-2.114,6.299-3.82,9.693-5.122c0.813-0.325,1.635-0.62,2.469-0.884c0.244,0.163,0.396,0.244,0.457,0.244
		c0.143,0,0.844-0.173,2.104-0.519c0.121,0,0.295,0.082,0.518,0.244c0.104,0.102,0.193,0.193,0.275,0.275
		c0.121,0,0.701-0.285,1.736-0.854c0.021,0,0.225,0.081,0.611,0.244c0.244,0.081,0.467,0.152,0.67,0.213
		c3.17-0.63,6.473-0.945,9.906-0.945c0.164,0,0.336,0,0.52,0c0.039,0,0.08,0,0.121,0c1.158,0.325,1.758,0.488,1.799,0.488
		c0.184,0,0.438-0.122,0.762-0.366c0.143-0.101,0.295-0.223,0.457-0.366c0.326-0.305,0.559-0.518,0.701-0.64l0.152-0.122
		c0.123,0,0.275,0.041,0.457,0.122c0.082,0.041,0.184,0.092,0.305,0.153c0.326,0.142,0.58,0.213,0.762,0.213
		c0.285,0,0.844-0.071,1.678-0.213c10.588,1.585,19.844,6.33,27.77,14.235c-0.346,0.081-0.701,0.172-1.066,0.274
		c-0.102,0.041-0.193,0.071-0.275,0.092c0.143,0.162,0.295,0.315,0.459,0.457c0.305,0.305,0.609,0.62,0.914,0.945
		c0.527-0.021,1.057-0.041,1.584-0.061c0.57,0.63,1.139,1.27,1.707,1.92c0.041-0.163,0.063-0.325,0.063-0.488
		c2.275,3.353,3.768,5.639,4.48,6.858c2.256,3.699,3.963,7.631,5.121,11.797c-0.428,0.122-0.844,0.244-1.25,0.366
		c1.076,4.003,1.646,8.24,1.707,12.711c0.061,0.061,0.141,0.132,0.244,0.213c0.102,0.102,0.203,0.203,0.305,0.305
		c0.041,0,0.314-0.061,0.822-0.183c-0.02,0.63-0.051,1.27-0.092,1.92c-0.344,0.061-0.781,0.142-1.311,0.244
		c-0.102,3.068-0.457,6.036-1.066,8.901c0.387-0.061,0.752-0.122,1.098-0.183c-0.631,2.663-1.463,5.213-2.5,7.651
		c-0.691,1.626-1.463,3.191-2.316,4.694c-0.061,0.021-0.123,0.041-0.184,0.061c-0.283,0.122-0.549,0.224-0.791,0.305
		c-0.57,1.057-1.199,2.093-1.891,3.109c0.143,0.041,0.283,0.071,0.426,0.091l0.123,0.122c-0.041,0.102-0.102,0.183-0.184,0.244
		c-0.223,0.142-0.527,0.274-0.914,0.396c-0.752,1.077-3.516,4.491-8.291,10.242c-0.123-0.041-0.244-0.102-0.365-0.183
		c-5.752,4.898-12.123,8.251-19.113,10.06c-0.123,0-0.234-0.01-0.336-0.031c-0.041,0-0.092,0-0.152,0
		c-2.723-0.244-4.146-0.366-4.268-0.366c-0.143,0-0.336,0.061-0.58,0.183c-0.242,0.122-0.445,0.183-0.609,0.183
		c-0.121,0-0.385-0.061-0.791-0.183c-0.428-0.122-0.713-0.183-0.854-0.183c-0.021,0-0.305,0.092-0.854,0.275
		c-0.549,0.142-0.996,0.213-1.342,0.213h-0.031c-0.121,0-0.375-0.041-0.762-0.122c-0.365-0.122-0.609-0.183-0.732-0.183
		c-2.945,0.65-4.592,0.976-4.938,0.976c-0.568,0-0.996-0.102-1.279-0.305c-0.244-0.184-0.793-0.285-1.646-0.305
		c0-0.082-0.041-0.143-0.123-0.184c-0.283-0.101-1.006-0.061-2.164,0.122c-0.771,0.183-1.361,0.315-1.768,0.396
		c-0.305,0.041-0.518,0.071-0.641,0.091c-0.141,0-0.254-0.021-0.334-0.061c-0.123-0.082-0.316-0.213-0.58-0.396
		c-0.143-0.081-0.314-0.193-0.518-0.335c-0.773-0.548-1.424-0.823-1.951-0.823c-0.143,0-0.377,0.061-0.701,0.183
		c-0.061,0-0.121,0.02-0.184,0.061c-0.264,0.062-0.477,0.112-0.639,0.153C224.912,135.565,224.252,135.341,223.6,135.104z
		 M253.381,80.021l0.244,0.031c-0.02-0.021-0.041-0.031-0.061-0.031H253.381z M222.441,109.955c-0.203-0.081-0.305-0.03-0.305,0.152
		c0.002-0.061,0.133-0.112,0.396-0.152C222.514,109.955,222.482,109.955,222.441,109.955z M204.244,82.673h0.061
		c1.279,0.143,2.846,0.122,4.693-0.061c0.549-0.101,1.129-0.193,1.738-0.274h-2.135c-0.365,0-1.799,0.112-4.297,0.335
		c-0.082-0.02-0.174-0.03-0.275-0.03c-0.629-0.102-1.066-0.142-1.311-0.122c-0.324,0.061-0.73,0.193-1.219,0.396
		C202.109,82.856,203.023,82.774,204.244,82.673z M224.789,49.081c0.121-0.021,0.184-0.061,0.184-0.122
		c-0.936,0.122-1.688,0.223-2.256,0.305h1.92C224.637,49.203,224.688,49.142,224.789,49.081z"/>
	<path fill-rule="evenodd" clip-rule="evenodd" fill="#171543" d="M144.924,116.052c-0.711-2.479-1.097-3.78-1.158-3.902
		l-2.805-6.34c-1.056-2.886-1.94-4.887-2.652-6.005c-1.057-2.418-1.879-4.095-2.469-5.029l-3.018-4.329
		c-0.996-1.118-1.849-2.388-2.561-3.811c-1.118-1.931-1.758-2.865-1.92-2.804c-0.184,0-0.275,0.823-0.275,2.469l-0.274,2.651
		l-1.402,5.213c-1.118,2.886-1.829,5.202-2.134,6.95c-0.529,2.947-0.792,4.948-0.792,6.005c0.183,3.069,0.478,5.66,0.883,7.773
		c0.59,4.714,0.884,7.367,0.884,7.956l0.274,12.102c0.061,1.057,0.203,1.697,0.427,1.921c0.366,0.366,1.961,1.311,4.786,2.834
		c1.585,0.996,3.17,2.378,4.755,4.146l3.445,3.719c0.65,0.528,1.179,0.823,1.585,0.884c0.589,0,1.118-0.152,1.585-0.458
		c0.305-0.162,0.66-0.396,1.067-0.701c0.305-0.285,0.568-0.457,0.792-0.518c0.244,0,0.538,0,0.884,0
		c0.244-0.061,0.427-0.152,0.548-0.274c0.163-0.122,0.336-0.447,0.519-0.976c0.244-0.528,0.417-0.854,0.518-0.976
		c0.122-0.122,0.244-0.417,0.366-0.884c0.061-0.467,0.152-0.792,0.274-0.975c0.285-0.935,0.63-1.636,1.037-2.104
		c0.305-0.345,0.457-1.057,0.457-2.134c0-0.163,0.203-2.104,0.61-5.822c0.305-1.646,0.457-2.794,0.457-3.445
		c0.062-0.65,0.092-1.148,0.092-1.493c0.041-0.651-0.112-1.24-0.458-1.768c-0.528-0.935-1.209-2.378-2.042-4.329
		C145.808,118.247,145.046,116.397,144.924,116.052z M196.486,111.464c0.059,0.417,0.113,0.91,0.166,1.479
		c0.123,0.711,0.041,1.89-0.244,3.536c-0.121,0.955-0.305,2.042-0.547,3.261c-0.063,0.833,0.172,1.778,0.701,2.835
		c0.65,1.483,0.914,2.367,0.791,2.651c-0.102,0.346-0.711,0.519-1.828,0.519c-0.244,0-0.396,0.152-0.457,0.457
		c-0.061,0.224-0.092,0.61-0.092,1.159l-0.092,0.609c-0.061,0.122-0.203,0.295-0.426,0.518c0,0.061,0,0.214,0,0.458
		c0.061,0.163,0.029,0.305-0.092,0.427l-0.52,0.366c-0.547,0.163-0.965,0.783-1.248,1.859c-0.061,0.285,0.264,0.427,0.975,0.427
		c0.346,0.061,0.996,0.061,1.951,0h6.066c0.711-0.061,2.367-0.529,4.969-1.403c2.336-0.955,4.154-1.433,5.457-1.433
		c0.236,0,0.48-0.005,0.73-0.015c1.33-0.082,2.795-0.371,4.389-0.869c3.293-1.057,5.854-1.758,7.684-2.104
		c1.359-0.305,4.357-0.569,8.992-0.792c0.955-0.122,3.311-0.681,7.07-1.676c2.176-0.467,4.086-0.701,5.732-0.701l6.553-0.64
		c0.936,0,2.113-0.406,3.537-1.219c1.178-0.366,2.408-0.549,3.688-0.549c0.65,0,2.246,0.03,4.785,0.091
		c0.752-0.061,1.748-0.203,2.988-0.426c0.895-0.061,1.391,0.081,1.494,0.426c0.242,0.528-0.641,1.037-2.652,1.524l-4.572,1.585
		c-1.891,0.752-3.242,1.28-4.055,1.585c-2.357,0.874-3.627,1.341-3.811,1.402c-0.771,0.244-1.891,0.366-3.354,0.366
		c-2.174,0-3.383,0.03-3.627,0.091c-2.174,0.752-3.76,1.392-4.756,1.92l-6.523,2.744c-3.941,1.483-6.127,2.276-6.553,2.378
		c-1.646,0.426-3.322,0.64-5.029,0.64c-0.305,0-0.68,0.051-1.129,0.153c-0.523,0.116-1.143,0.299-1.859,0.549
		c-1.422,0.528-2.398,0.853-2.926,0.975c-3.354,1.179-5.559,1.819-6.615,1.921c-0.65,0.061-2.002,0.477-4.055,1.25
		c-2.174,0.813-3.617,1.341-4.328,1.585c-3.658,1.301-6.188,2.124-7.59,2.469c-0.771,0.184-1.982,0.356-3.627,0.519
		c-1.646,0.183-2.734,0.335-3.262,0.458c-1.18,0.284-2.774,1.26-4.787,2.926c-0.873,0.813-2.601,2.693-5.182,5.639
		c-0.895,0.936-1.9,2.459-3.018,4.572c-0.65,0.955-2.449,2.582-5.396,4.878c-1.809,1.464-4.278,2.956-7.407,4.48
		c-0.346,0.184-1.463,0.864-3.354,2.043c-1.523,0.995-2.906,1.677-4.146,2.042c-1.463,0.406-5.202,1.077-11.217,2.012
		c-3.577,0.467-6.249,0.976-8.017,1.523l-4.603,1.22c-0.346,0.122-0.549,0.915-0.61,2.378c-0.061,0.895-0.122,2.134-0.183,3.719
		l-1.067,9.359c-0.122,0.994-0.325,2.113-0.61,3.353c-0.346,1.3-0.549,2.296-0.61,2.987c-0.589,4.004-0.884,6.655-0.884,7.956
		c0,1.524-0.213,4.968-0.64,10.333c-0.224,3.232,0.102,6.025,0.975,8.383c0.956,2.48,1.931,6.248,2.926,11.309
		c1.403,6.238,2.723,10.883,3.963,13.932c0.651,1.646,1.535,3.709,2.652,6.188c1.178,2.58,2.001,4.197,2.469,4.848
		c0.407,0.588,1.026,1.098,1.859,1.523c0.467,0.285,1.321,0.691,2.561,1.219c1.057,0.59,2.855,1.414,5.395,2.471
		c0.347,0.137,0.732,0.279,1.159,0.426c-1.216,0-2.436,0-3.658,0c-6.246,0-12.342,0.006-18.29,0.016
		c0.008-0.055,0.019-0.111,0.03-0.168c0.305-1.057,0.335-2.5,0.092-4.328c-0.244-1.586-0.742-3.293-1.494-5.121l-2.744-7.408
		c-1.463-3.881-2.52-6.33-3.17-7.346c-0.528-0.813-1.382-2.428-2.561-4.848c-1.239-2.52-2.032-4.318-2.377-5.395
		c-0.305-0.936-0.599-3.252-0.884-6.951c-0.305-3.352-0.458-5.74-0.458-7.162c-0.284-1.83-0.549-3.629-0.792-5.396l-0.792-9.51
		c-0.996-6.016-1.555-9.521-1.677-10.518c-0.935-10.485-1.403-16.287-1.403-17.404c-0.487-5.467-0.67-8.79-0.548-9.969
		c0.122-1.402,0.01-3.109-0.335-5.121c-0.305-2.113-0.305-4.521,0-7.225c0.061-0.65-0.184-2.012-0.732-4.084
		c-0.691-2.825-1.067-4.379-1.128-4.664c-0.467-2.236-0.854-4.064-1.158-5.487c-0.529-2.642-0.792-4.461-0.792-5.457
		c0-0.061,0.447-5.243,1.341-15.546c0.041-1.463,0.336-3.637,0.884-6.523c0.467-2.642,0.904-4.705,1.311-6.188
		c0.995-5.71,1.849-9.562,2.561-11.553c0.467-1.3,0.762-3.485,0.883-6.554l0.702-18.442c-0.285-0.285-0.458-0.549-0.518-0.792
		c-0.427-0.65-0.641-1.148-0.641-1.494c0-0.061-0.051-0.153-0.152-0.274c-0.122-0.183-0.213-0.386-0.274-0.61
		c0.183-0.406,0.274-0.731,0.274-0.975c-0.305-0.528-0.488-0.965-0.548-1.311c-0.062-0.183,0.061-0.478,0.366-0.884
		c0.284-0.427,0.427-0.783,0.427-1.067c0-0.895,0.213-1.484,0.64-1.768c0.284-0.122,0.427-0.274,0.427-0.457
		c0.061-0.163-0.061-1.159-0.366-2.988c-0.468-3.942-0.671-6.208-0.609-6.797c0-0.468,0.325-3.201,0.975-8.2
		c0.407-2.073,0.935-4.075,1.585-6.005c0.833-2.418,1.544-4.156,2.134-5.213c0.284-0.65,1.138-0.589,2.561,0.183
		c0.935,0.65,1.463,1.972,1.585,3.963c0.061,0.935,0.172,3.262,0.335,6.98c0.183,1.829,0.721,3.678,1.615,5.548
		c0.163,0.366,0.6,1.138,1.311,2.317c0.65,1.057,0.945,1.879,0.884,2.469c-0.062,0.935-0.295,1.605-0.701,2.012
		c-0.061,0.061-0.508,0.325-1.342,0.792c-0.813,0.427-1.25,1.168-1.31,2.225c-0.305,1.768,0.02,3.8,0.975,6.097
		c0.224,0.63,0.63,1.92,1.219,3.871c0.427,1.179,0.844,2.033,1.25,2.561c1.992,2.418,3.17,4.187,3.537,5.304
		c0.285,0.752,1.311,2.246,3.079,4.481l5.822,7.346c0.589,0.752,1.087,1.575,1.494,2.469c0.366,0.711,0.721,1.24,1.067,1.585
		c0.772,0.711,2.154,2.835,4.146,6.371c0.366,0.569,2.012,3.658,4.938,9.267c1.708,3.231,3.272,5.64,4.695,7.224
		c2.418,2.541,3.77,4.044,4.055,4.512c1.584,2.174,2.824,4.318,3.719,6.432c0.346,0.833,0.752,1.311,1.219,1.433
		c0.244,0.041,0.803,0.061,1.676,0.061c0.712,0.122,1.627,0.01,2.744-0.335c1.057-0.305,1.879-0.721,2.469-1.25
		c0.529-0.406,0.621-1.046,0.274-1.92c-0.528-1.077-0.884-1.9-1.067-2.47c-0.406-1.707-0.223-3.973,0.55-6.797l0.061-0.091
		c-2.114-1.077-3.374-2.114-3.78-3.109c-0.467-1.24,0.509-2.916,2.928-5.03c2.336-2.113,4.013-2.906,5.029-2.377
		c0.63,0.345,1.422,1.341,2.377,2.987c0.936-0.467,2.226-0.843,3.871-1.128c3.537-0.65,6.839,0.051,9.908,2.104
		c1.387,0.844,2.488,1.637,3.307,2.377c0.77,0.697,1.281,1.347,1.539,1.951C196.258,110.019,196.375,110.583,196.486,111.464z"/>
	<path fill-rule="evenodd" clip-rule="evenodd" fill="#8E2950" d="M151.569,266.545c36.996,0.014,68.688,0.238,95.075,0.67
		c27.293,0.447,40.938,0.986,40.938,1.615c0,0.631-13.645,1.16-40.938,1.586c-27.252,0.447-60.162,0.67-98.733,0.67
		c-5.09,0-10.084-0.004-14.982-0.014c-0.415,0.02-0.78,0.02-1.097,0c-31.702-0.055-59.253-0.273-82.654-0.656
		C21.906,269.99,8.27,269.461,8.27,268.83c0-0.629,13.636-1.168,40.908-1.615c22.853-0.375,49.667-0.594,80.444-0.654
		c5.947-0.01,12.043-0.016,18.29-0.016C149.133,266.545,150.353,266.545,151.569,266.545z"/>
</g>
</svg>
