<?xml version="1.0" encoding="utf-8"?>
<!-- Generator: Adobe Illustrator 16.0.0, SVG Export Plug-In . SVG Version: 6.00 Build 0)  -->
<!DOCTYPE svg PUBLIC "-//W3C//DTD SVG 1.1//EN" "http://www.w3.org/Graphics/SVG/1.1/DTD/svg11.dtd">
<svg version="1.1" id="Layer_1" xmlns="http://www.w3.org/2000/svg" xmlns:xlink="http://www.w3.org/1999/xlink" x="0px" y="0px"
	 width="300px" height="300px" viewBox="0 0 300 300" enable-background="new 0 0 300 300" xml:space="preserve">
<g>
	<path fill-rule="evenodd" clip-rule="evenodd" fill="#010101" d="M142.136,170.821c0.289,0.084,0.511,0.254,0.665,0.511
		c0.136,0.237,0.169,0.503,0.102,0.789c-0.102,0.29-0.271,0.512-0.511,0.664c-0.272,0.137-0.545,0.172-0.817,0.104
		c-1.379-0.409-2.775-0.844-4.189-1.303c-0.29-0.102-0.494-0.273-0.612-0.511c-0.154-0.254-0.179-0.527-0.078-0.817
		c0.085-0.289,0.265-0.494,0.537-0.611c0.238-0.156,0.502-0.181,0.792-0.077C139.403,170.028,140.774,170.446,142.136,170.821z
		 M113.374,160.192c0.271-0.052,0.544,0.009,0.817,0.181c0.307,0.222,0.63,0.435,0.971,0.64c0.033-0.068,0.093-0.129,0.178-0.181
		c0.783-0.596,1.567-1.191,2.35-1.787c0.239-0.205,0.502-0.281,0.792-0.232c0.29,0.036,0.512,0.173,0.664,0.41
		c0.205,0.238,0.289,0.503,0.256,0.792c-0.034,0.29-0.179,0.52-0.435,0.689c-0.324,0.257-0.647,0.519-0.971,0.792l0.051,0.024
		c0.255,0.12,0.435,0.325,0.536,0.615c0.085,0.271,0.068,0.535-0.051,0.789c-0.136,0.273-0.34,0.454-0.613,0.538
		c-0.29,0.102-0.562,0.093-0.817-0.024c-0.408-0.222-0.826-0.442-1.252-0.664c-0.085,0.134-0.187,0.238-0.307,0.307
		c-0.885,0.579-1.788,1.139-2.708,1.686c-0.255,0.152-0.519,0.186-0.792,0.101c-0.29-0.084-0.502-0.246-0.639-0.483
		c-0.171-0.273-0.204-0.538-0.103-0.792c0.068-0.29,0.222-0.511,0.46-0.667c0.408-0.254,0.826-0.508,1.251-0.765l-0.025-0.024
		c-0.272-0.173-0.426-0.402-0.46-0.691c-0.051-0.29,0.008-0.552,0.179-0.79C112.846,160.397,113.066,160.244,113.374,160.192z
		 M111.049,158.66c0.034,0.273-0.018,0.546-0.154,0.819c-0.17,0.238-0.4,0.374-0.689,0.407c-0.291,0.052-0.554,0.008-0.792-0.129
		c-1.277-0.865-2.503-1.718-3.678-2.554c-0.238-0.17-0.383-0.399-0.434-0.688c-0.051-0.29,0.008-0.555,0.178-0.793
		c0.17-0.237,0.401-0.382,0.69-0.435c0.29-0.052,0.554,0.009,0.792,0.181c1.175,0.833,2.392,1.678,3.653,2.527
		C110.853,158.133,110.998,158.354,111.049,158.66z M126.554,166.504c-0.119,0.254-0.315,0.451-0.587,0.588
		c-0.255,0.084-0.519,0.068-0.792-0.052c-1.362-0.58-2.716-1.167-4.062-1.763c-0.272-0.12-0.45-0.317-0.536-0.588
		c-0.137-0.289-0.137-0.563,0-0.816c0.119-0.273,0.324-0.454,0.613-0.538c0.255-0.118,0.519-0.118,0.792,0
		c1.346,0.596,2.69,1.183,4.037,1.762c0.254,0.12,0.442,0.309,0.561,0.563C126.682,165.933,126.673,166.215,126.554,166.504z
		 M128.572,167.294c0.103-0.271,0.281-0.468,0.536-0.588c0.272-0.117,0.554-0.117,0.844,0c1.311,0.514,2.647,1.006,4.01,1.481
		c0.255,0.104,0.459,0.3,0.613,0.59c0.119,0.254,0.127,0.519,0.025,0.792c-0.102,0.271-0.281,0.476-0.536,0.612
		c-0.29,0.12-0.571,0.128-0.843,0.024c-1.363-0.476-2.716-0.978-4.062-1.505c-0.272-0.121-0.468-0.317-0.587-0.588
		C128.454,167.856,128.454,167.583,128.572,167.294z M125.762,153.832c0.171,0.222,0.256,0.486,0.256,0.793
		c-0.052,0.289-0.188,0.535-0.409,0.74c-1.057,0.885-2.146,1.781-3.271,2.683c-0.238,0.205-0.502,0.29-0.792,0.254
		c-0.29-0.032-0.536-0.161-0.741-0.382c-0.188-0.238-0.255-0.503-0.204-0.793c0.016-0.287,0.145-0.535,0.383-0.74
		c1.106-0.901,2.196-1.787,3.27-2.655c0.205-0.188,0.469-0.273,0.792-0.257C125.337,153.49,125.575,153.611,125.762,153.832z
		 M130.488,148.136c0.187-0.222,0.442-0.314,0.766-0.282c0.29,0,0.537,0.104,0.741,0.309c0.204,0.205,0.307,0.459,0.307,0.765
		c-0.034,0.29-0.145,0.547-0.333,0.768c-1.005,0.937-2.052,1.879-3.142,2.833c-0.238,0.204-0.494,0.309-0.766,0.309
		c-0.306-0.036-0.553-0.153-0.741-0.358c-0.204-0.221-0.289-0.478-0.255-0.768c0-0.306,0.119-0.56,0.357-0.765
		C128.479,149.994,129.5,149.056,130.488,148.136z M170.976,175.315c0.204-0.222,0.451-0.322,0.741-0.306
		c1.43-0.017,2.86-0.053,4.291-0.102c0.289-0.02,0.546,0.068,0.767,0.254c0.221,0.188,0.34,0.442,0.357,0.766
		c0,0.289-0.094,0.538-0.281,0.743c-0.188,0.221-0.426,0.339-0.715,0.357c-1.481,0.085-2.955,0.126-4.419,0.126
		c-0.29,0-0.537-0.109-0.741-0.331c-0.221-0.221-0.323-0.478-0.307-0.768C170.652,175.767,170.755,175.521,170.976,175.315z
		 M184.54,174.089c0.288-0.052,0.553,0.019,0.791,0.205c0.238,0.172,0.366,0.398,0.384,0.69c0.051,0.29-0.009,0.553-0.18,0.79
		c-0.187,0.24-0.425,0.366-0.715,0.385c-1.414,0.202-2.86,0.391-4.342,0.561c-0.29,0.02-0.537-0.065-0.741-0.254
		c-0.239-0.205-0.374-0.442-0.409-0.716c-0.051-0.29,0.025-0.544,0.23-0.766c0.188-0.24,0.426-0.377,0.716-0.409
		C181.688,174.438,183.108,174.277,184.54,174.089z M151.153,173.271c0.153,0.257,0.205,0.527,0.153,0.817
		c-0.052,0.272-0.196,0.494-0.434,0.664c-0.273,0.155-0.554,0.204-0.843,0.155c-1.431-0.29-2.861-0.606-4.292-0.945
		c-0.289-0.068-0.502-0.222-0.638-0.462c-0.154-0.271-0.188-0.552-0.104-0.842c0.051-0.272,0.205-0.486,0.46-0.639
		c0.239-0.137,0.502-0.17,0.792-0.102c1.397,0.307,2.802,0.604,4.215,0.894C150.753,172.862,150.982,173.018,151.153,173.271z
		 M162.266,176.414c-0.188-0.205-0.272-0.451-0.256-0.741c0.034-0.322,0.153-0.57,0.356-0.74c0.222-0.188,0.494-0.265,0.818-0.229
		c1.413,0.085,2.827,0.161,4.24,0.229c0.289,0,0.545,0.109,0.767,0.331c0.188,0.221,0.28,0.478,0.28,0.768
		c-0.017,0.289-0.136,0.535-0.358,0.74c-0.22,0.205-0.475,0.306-0.766,0.306c-1.464-0.049-2.92-0.136-4.367-0.254
		C162.674,176.771,162.436,176.635,162.266,176.414z M158.918,174.217c0.291,0.036,0.521,0.172,0.69,0.41
		c0.188,0.237,0.272,0.5,0.256,0.792c-0.052,0.287-0.196,0.52-0.435,0.688c-0.239,0.188-0.494,0.273-0.767,0.254
		c-1.447-0.202-2.895-0.423-4.343-0.663c-0.272-0.05-0.493-0.194-0.664-0.435c-0.17-0.238-0.23-0.5-0.179-0.79
		c0.034-0.289,0.179-0.521,0.435-0.691c0.239-0.169,0.503-0.229,0.792-0.177C156.101,173.843,157.505,174.048,158.918,174.217z
		 M35.49,151.048c0.289,0,0.527,0.129,0.715,0.386c0.988,1.07,1.976,2.101,2.963,3.09c0.222,0.222,0.332,0.476,0.332,0.765
		c0,0.29-0.11,0.539-0.332,0.741c-0.205,0.221-0.451,0.333-0.741,0.333c-0.289,0-0.544-0.112-0.767-0.333
		c-1.038-1.022-2.052-2.085-3.04-3.191c-0.187-0.24-0.272-0.495-0.255-0.768c0-0.307,0.127-0.561,0.383-0.766
		C34.936,151.116,35.183,151.031,35.49,151.048z M33.471,148.163c0.17,0.221,0.255,0.492,0.255,0.817
		c-0.05,0.273-0.187,0.511-0.408,0.716c-0.205,0.169-0.451,0.254-0.741,0.254c-0.324-0.049-0.562-0.186-0.714-0.407
		c-0.512-0.579-1.005-1.167-1.482-1.762c-0.204-0.24-0.281-0.502-0.229-0.792c0.034-0.29,0.17-0.53,0.409-0.716
		c0.204-0.205,0.468-0.282,0.792-0.229c0.255,0.033,0.485,0.169,0.69,0.407C32.518,147.029,32.995,147.6,33.471,148.163z
		 M54.52,167.985c0.136-0.273,0.349-0.443,0.639-0.512c0.254-0.104,0.52-0.076,0.792,0.077c1.277,0.664,2.554,1.284,3.832,1.863
		c0.254,0.12,0.442,0.325,0.562,0.614c0.102,0.273,0.094,0.536-0.026,0.793c-0.119,0.271-0.315,0.467-0.587,0.587
		c-0.29,0.102-0.562,0.093-0.818-0.027c-1.328-0.576-2.656-1.234-3.985-1.967c-0.255-0.137-0.417-0.339-0.485-0.612
		C54.341,168.512,54.367,168.239,54.52,167.985z M47.546,164.689c-0.238-0.172-0.383-0.401-0.434-0.69
		c-0.051-0.307,0.016-0.571,0.204-0.793c0.17-0.237,0.4-0.382,0.689-0.432c0.29-0.035,0.554,0.033,0.792,0.202
		c1.158,0.836,2.325,1.637,3.5,2.401c0.238,0.173,0.4,0.402,0.485,0.691c0.068,0.29,0.017,0.552-0.153,0.793
		c-0.17,0.237-0.383,0.391-0.639,0.459c-0.323,0.084-0.604,0.041-0.842-0.129C49.921,166.425,48.721,165.592,47.546,164.689z
		 M45.451,160.373c0.222,0.169,0.358,0.407,0.41,0.716c0,0.287-0.086,0.544-0.256,0.765c-0.205,0.205-0.451,0.334-0.741,0.383
		c-0.306,0-0.57-0.085-0.792-0.254c-1.107-0.938-2.188-1.899-3.244-2.888c-0.204-0.202-0.307-0.451-0.307-0.741
		c-0.034-0.289,0.06-0.543,0.281-0.765c0.188-0.222,0.426-0.333,0.715-0.333c0.29-0.017,0.545,0.084,0.766,0.306
		C43.34,158.518,44.396,159.452,45.451,160.373z M92.631,171.51c0.291-0.085,0.571-0.053,0.844,0.101
		c0.239,0.137,0.409,0.35,0.511,0.64c0.068,0.273,0.025,0.546-0.127,0.819c-0.137,0.235-0.349,0.407-0.639,0.509
		c-1.414,0.374-2.819,0.699-4.214,0.973c-0.29,0.049-0.553,0-0.792-0.156c-0.273-0.169-0.436-0.398-0.486-0.688
		s0.009-0.552,0.179-0.792c0.154-0.255,0.383-0.407,0.69-0.459C89.923,172.182,91.27,171.867,92.631,171.51z M101.98,170.105
		c-0.119,0.272-0.306,0.467-0.562,0.587c-1.362,0.579-2.716,1.099-4.062,1.558c-0.29,0.085-0.562,0.068-0.817-0.052
		c-0.272-0.134-0.45-0.339-0.536-0.612c-0.103-0.29-0.077-0.563,0.076-0.817c0.12-0.272,0.324-0.459,0.614-0.563
		c1.293-0.442,2.588-0.929,3.882-1.456c0.273-0.134,0.537-0.134,0.792,0c0.272,0.085,0.468,0.273,0.586,0.563
		C102.074,169.586,102.083,169.849,101.98,170.105z M68.39,172.659c0.154,0.255,0.205,0.527,0.154,0.817
		c-0.068,0.273-0.222,0.486-0.46,0.64c-0.272,0.137-0.553,0.186-0.842,0.152c-1.448-0.374-2.869-0.8-4.266-1.278
		c-0.255-0.085-0.442-0.263-0.562-0.535c-0.152-0.29-0.178-0.571-0.077-0.845c0.103-0.254,0.298-0.442,0.588-0.56
		c0.254-0.153,0.519-0.181,0.792-0.077c1.345,0.476,2.691,0.886,4.036,1.225C68.042,172.25,68.254,172.402,68.39,172.659z
		 M79.247,174.551c-0.018-0.29,0.085-0.547,0.306-0.769c0.188-0.204,0.426-0.306,0.715-0.306c1.396-0.085,2.793-0.196,4.189-0.333
		c0.256-0.05,0.503,0.016,0.741,0.205c0.255,0.169,0.4,0.418,0.434,0.74c0.034,0.257-0.05,0.503-0.255,0.74
		c-0.153,0.24-0.375,0.385-0.664,0.435c-1.482,0.172-2.938,0.281-4.369,0.333c-0.289,0-0.544-0.093-0.766-0.281
		C79.357,175.094,79.247,174.837,79.247,174.551z M76.794,173.758c0.204,0.222,0.308,0.486,0.308,0.793
		c-0.035,0.286-0.154,0.527-0.358,0.713c-0.222,0.188-0.478,0.281-0.767,0.281c-1.499-0.085-2.963-0.237-4.394-0.459
		c-0.29-0.052-0.519-0.178-0.689-0.383c-0.205-0.257-0.282-0.53-0.23-0.816c0.051-0.273,0.196-0.495,0.435-0.667
		c0.221-0.202,0.485-0.278,0.792-0.229c1.38,0.222,2.776,0.366,4.189,0.435C76.369,173.425,76.607,173.537,76.794,173.758z
		 M103.82,167.627c0.102-0.29,0.281-0.494,0.537-0.614c1.26-0.629,2.512-1.293,3.755-1.992c0.272-0.134,0.553-0.161,0.843-0.076
		c0.255,0.068,0.459,0.24,0.613,0.511c0.136,0.273,0.17,0.546,0.102,0.816c-0.102,0.273-0.28,0.479-0.536,0.615
		c-1.294,0.696-2.571,1.38-3.832,2.044c-0.256,0.117-0.52,0.125-0.792,0.024c-0.289-0.102-0.494-0.281-0.613-0.536
		C103.76,168.146,103.735,167.881,103.82,167.627z M98.405,150.996c-0.016-0.322,0.068-0.587,0.255-0.79
		c0.169-0.221,0.409-0.35,0.715-0.385c0.29-0.016,0.545,0.068,0.767,0.257c1.09,0.902,2.222,1.822,3.396,2.76
		c0.221,0.186,0.349,0.423,0.383,0.713c0.034,0.292-0.042,0.555-0.229,0.792c-0.205,0.222-0.434,0.358-0.689,0.41
		c-0.324,0.017-0.587-0.068-0.793-0.257c-1.208-0.935-2.358-1.863-3.448-2.784C98.558,151.526,98.439,151.286,98.405,150.996z
		 M96.208,149.004c-0.307,0-0.553-0.093-0.74-0.281c-1.107-1.055-2.146-2.12-3.117-3.191c-0.222-0.205-0.314-0.451-0.282-0.743
		c0-0.287,0.103-0.536,0.308-0.74c0.221-0.202,0.477-0.298,0.766-0.279c0.29,0,0.544,0.109,0.767,0.331
		c0.937,1.005,1.941,2.027,3.014,3.065c0.205,0.188,0.315,0.443,0.333,0.768c0,0.29-0.094,0.535-0.281,0.74
		C96.752,148.876,96.498,148.988,96.208,149.004z M86.68,138.609c-0.17-0.239-0.23-0.503-0.179-0.792s0.196-0.519,0.434-0.69
		c0.238-0.169,0.503-0.229,0.792-0.179c0.29,0.052,0.52,0.196,0.689,0.434c0.818,1.141,1.695,2.299,2.631,3.475
		c0.204,0.205,0.289,0.451,0.255,0.741c-0.051,0.29-0.178,0.535-0.382,0.74c-0.256,0.188-0.521,0.273-0.792,0.257
		c-0.291-0.052-0.536-0.188-0.74-0.41C88.399,140.975,87.498,139.784,86.68,138.609z M82.312,129.923
		c0.103-0.273,0.298-0.468,0.587-0.587c0.272-0.119,0.537-0.119,0.792,0c0.272,0.103,0.469,0.298,0.587,0.587
		c0.528,1.277,1.167,2.563,1.915,3.858c0.137,0.238,0.171,0.501,0.103,0.791c-0.103,0.29-0.272,0.503-0.511,0.638
		c-0.272,0.154-0.544,0.197-0.817,0.128c-0.29-0.101-0.494-0.272-0.613-0.511c-0.783-1.379-1.465-2.742-2.044-4.087
		C82.192,130.451,82.192,130.179,82.312,129.923z M80.115,121.903c-0.017-0.306,0.068-0.571,0.256-0.792
		c0.17-0.221,0.409-0.34,0.714-0.358c0.29-0.016,0.545,0.068,0.767,0.255c0.222,0.171,0.358,0.41,0.408,0.716
		c0.085,1.378,0.307,2.767,0.665,4.164c0.085,0.29,0.051,0.553-0.102,0.792c-0.17,0.254-0.4,0.417-0.689,0.485
		c-0.29,0.084-0.554,0.05-0.792-0.103c-0.238-0.171-0.391-0.4-0.459-0.69C80.489,124.891,80.234,123.402,80.115,121.903z
		 M80.089,117.407c0.104-1.499,0.333-2.98,0.691-4.445c0.05-0.29,0.204-0.503,0.459-0.638c0.238-0.154,0.502-0.195,0.792-0.128
		c0.289,0.052,0.511,0.213,0.664,0.486c0.137,0.238,0.179,0.501,0.128,0.791c-0.34,1.363-0.544,2.716-0.613,4.062
		c-0.018,0.29-0.136,0.537-0.358,0.742c-0.238,0.187-0.503,0.28-0.792,0.28c-0.29-0.018-0.528-0.135-0.716-0.358
		C80.14,117.961,80.056,117.697,80.089,117.407z M84.483,104.277c0.29-0.102,0.57-0.085,0.843,0.051
		c0.239,0.153,0.4,0.358,0.485,0.613c0.103,0.29,0.086,0.57-0.051,0.843c-0.664,1.243-1.235,2.503-1.711,3.78
		c-0.12,0.273-0.306,0.468-0.563,0.587c-0.271,0.12-0.536,0.128-0.792,0.026c-0.29-0.119-0.494-0.308-0.613-0.562
		c-0.136-0.273-0.136-0.537,0-0.792c0.493-1.362,1.089-2.699,1.788-4.011C84.023,104.542,84.228,104.363,84.483,104.277z
		 M90.512,98.428c0.272-0.17,0.553-0.204,0.842-0.102c0.255,0.068,0.469,0.221,0.638,0.46c0.136,0.255,0.17,0.527,0.103,0.817
		c-0.085,0.272-0.256,0.494-0.512,0.665c-1.106,0.647-2.196,1.464-3.269,2.452c-0.221,0.187-0.478,0.281-0.767,0.281
		c-0.306-0.018-0.553-0.136-0.74-0.358c-0.206-0.222-0.29-0.477-0.256-0.766c0-0.307,0.103-0.553,0.307-0.741
		C88.051,100.046,89.269,99.144,90.512,98.428z M100.396,96.972c0,0.289-0.11,0.544-0.331,0.766
		c-0.188,0.188-0.426,0.298-0.715,0.332c-1.396,0-2.742,0.188-4.037,0.562c-0.289,0.085-0.553,0.052-0.792-0.102
		c-0.273-0.137-0.443-0.349-0.511-0.64c-0.102-0.29-0.067-0.553,0.103-0.792c0.119-0.272,0.323-0.442,0.613-0.51
		c1.499-0.409,3.031-0.63,4.598-0.665c0.29-0.017,0.536,0.086,0.741,0.307C100.27,96.419,100.38,96.666,100.396,96.972z
		 M148.777,121.034c0.051-0.29,0.204-0.502,0.46-0.639c0.238-0.169,0.502-0.229,0.792-0.179c0.29,0.052,0.519,0.205,0.689,0.46
		c0.154,0.239,0.204,0.503,0.154,0.792c-0.29,1.38-0.689,2.792-1.201,4.24c-0.119,0.256-0.298,0.459-0.536,0.614
		c-0.29,0.119-0.562,0.127-0.817,0.024c-0.272-0.119-0.468-0.298-0.587-0.537c-0.136-0.288-0.145-0.569-0.025-0.841
		C148.182,123.623,148.539,122.312,148.777,121.034z M148.752,113.039c-0.085-0.288-0.051-0.553,0.103-0.791
		c0.136-0.273,0.349-0.434,0.639-0.486c0.289-0.068,0.553-0.024,0.792,0.128c0.272,0.135,0.442,0.349,0.511,0.638
		c0.341,1.448,0.519,2.955,0.536,4.521c0,0.29-0.103,0.537-0.306,0.741c-0.222,0.221-0.478,0.332-0.767,0.332
		c-0.29,0-0.546-0.111-0.767-0.332c-0.205-0.204-0.298-0.451-0.281-0.741C149.212,115.67,149.059,114.333,148.752,113.039z
		 M136.338,142.16c0.187-0.221,0.434-0.333,0.74-0.333c0.291-0.033,0.545,0.052,0.767,0.257c0.222,0.186,0.341,0.432,0.358,0.74
		c0,0.29-0.094,0.544-0.281,0.765c-0.92,1.005-1.899,2.043-2.938,3.117c-0.188,0.186-0.425,0.29-0.716,0.306
		c-0.306,0-0.553-0.101-0.74-0.306c-0.221-0.205-0.332-0.451-0.332-0.743c-0.034-0.303,0.06-0.552,0.281-0.738
		C134.464,144.185,135.418,143.163,136.338,142.16z M144.307,133.781c-0.238-0.17-0.4-0.384-0.485-0.639
		c-0.068-0.29-0.016-0.571,0.154-0.843c0.767-1.209,1.456-2.402,2.069-3.577c0.119-0.255,0.323-0.434,0.613-0.537
		c0.255-0.101,0.52-0.077,0.792,0.078c0.255,0.119,0.434,0.324,0.536,0.612c0.103,0.255,0.094,0.521-0.025,0.792
		c-0.63,1.227-1.354,2.486-2.171,3.78c-0.171,0.239-0.392,0.401-0.664,0.486C144.818,134.003,144.546,133.951,144.307,133.781z
		 M141.625,135.773c0.17-0.255,0.417-0.4,0.74-0.434c0.29-0.051,0.554,0.018,0.792,0.205c0.205,0.169,0.332,0.4,0.382,0.69
		c0.052,0.29-0.007,0.553-0.178,0.792c-0.818,1.089-1.695,2.197-2.632,3.32c-0.188,0.221-0.425,0.358-0.716,0.41
		c-0.323,0-0.586-0.087-0.792-0.256c-0.221-0.205-0.34-0.452-0.358-0.742c-0.033-0.307,0.044-0.571,0.231-0.791
		C140.015,137.894,140.859,136.829,141.625,135.773z M119.044,114.367c0.204-0.222,0.459-0.314,0.767-0.28
		c0.29,0,0.545,0.111,0.766,0.332c0.187,0.187,0.281,0.435,0.281,0.74c-0.051,1.142-0.128,1.891-0.229,2.249
		c-0.017,0.017-0.026,0.042-0.026,0.077c-0.392,1.243-1.26,1.949-2.606,2.12c-0.29,0.017-0.536-0.068-0.74-0.255
		c-0.256-0.187-0.392-0.426-0.409-0.716c-0.051-0.29,0.025-0.545,0.229-0.767c0.188-0.237,0.426-0.366,0.715-0.382
		c0.409-0.052,0.673-0.273,0.792-0.664v-0.026c0.068-0.239,0.111-0.792,0.128-1.661
		C118.712,114.809,118.823,114.555,119.044,114.367z M113.322,116.718c-0.374-0.853-0.562-1.831-0.562-2.938
		c-0.017-0.646,0.008-1.26,0.077-1.839c0.034-0.306,0.154-0.544,0.358-0.714c0.221-0.188,0.485-0.273,0.792-0.256
		c0.29,0.034,0.537,0.153,0.741,0.357c0.17,0.221,0.255,0.494,0.255,0.818c-0.051,0.493-0.076,1.039-0.076,1.634
		c-0.035,0.784,0.085,1.482,0.357,2.095c0.119,0.272,0.128,0.536,0.026,0.791c-0.119,0.273-0.307,0.469-0.562,0.587
		c-0.29,0.12-0.571,0.128-0.843,0.026C113.629,117.16,113.441,116.973,113.322,116.718z M108.009,97.815
		c0.272,0.119,0.468,0.307,0.587,0.562c0.084,0.272,0.068,0.553-0.051,0.842c-0.119,0.256-0.307,0.452-0.562,0.587
		c-0.272,0.085-0.537,0.068-0.792-0.05c-1.328-0.544-2.622-0.955-3.882-1.226c-0.29-0.068-0.512-0.222-0.664-0.46
		c-0.17-0.238-0.222-0.502-0.153-0.792c0.068-0.29,0.221-0.52,0.459-0.689s0.52-0.222,0.844-0.154
		C105.157,96.759,106.563,97.219,108.009,97.815z M117.792,104.481c0.255-0.137,0.527-0.161,0.817-0.077
		c0.818,0.204,1.661-0.204,2.529-1.225c0.17-0.205,0.409-0.324,0.715-0.358c0.29-0.018,0.545,0.067,0.766,0.255
		c0.222,0.17,0.358,0.409,0.409,0.716c0,0.29-0.085,0.544-0.255,0.766c-1.226,1.448-2.469,2.154-3.729,2.12
		c0.068,0.12,0.383,1.106,0.945,2.963c0.119,0.358,0.238,0.716,0.357,1.074c0.067,0.29,0.034,0.57-0.102,0.843
		c-0.153,0.238-0.375,0.409-0.665,0.511c-0.29,0.067-0.554,0.024-0.792-0.128c-0.256-0.135-0.417-0.349-0.486-0.638
		c-0.102-0.307-0.212-0.631-0.332-0.971v-0.05c-0.459-1.431-0.758-2.436-0.894-3.015c-0.442,0.34-0.792,0.758-1.047,1.251
		c-0.153,0.239-0.375,0.41-0.665,0.511c-0.289,0.07-0.553,0.036-0.792-0.101c-0.254-0.153-0.425-0.375-0.511-0.666
		c-0.085-0.288-0.042-0.553,0.128-0.791c0.664-1.226,1.584-2.112,2.759-2.657c0.17-0.101,0.349-0.137,0.537-0.101
		C117.571,104.608,117.674,104.533,117.792,104.481z M115.877,102.872c0.051,0.272-0.009,0.537-0.179,0.792
		c-0.188,0.205-0.417,0.333-0.69,0.383c-0.307,0.051-0.57-0.008-0.792-0.178c-1.158-0.835-2.299-1.575-3.422-2.222
		c-0.238-0.171-0.4-0.392-0.486-0.666c-0.085-0.289-0.043-0.562,0.128-0.817c0.136-0.238,0.349-0.4,0.639-0.485
		c0.272-0.085,0.536-0.043,0.792,0.127c1.175,0.665,2.376,1.439,3.601,2.325C115.689,102.302,115.825,102.549,115.877,102.872z
		 M145.073,105.759c-0.204-0.255-0.281-0.527-0.229-0.817c0.017-0.273,0.153-0.512,0.409-0.716c0.204-0.187,0.468-0.255,0.792-0.204
		c0.255,0.017,0.476,0.145,0.665,0.383c0.987,1.227,1.83,2.512,2.529,3.856c0.119,0.256,0.136,0.52,0.051,0.792
		c-0.103,0.29-0.273,0.511-0.511,0.666c-0.272,0.119-0.544,0.127-0.817,0.024c-0.29-0.084-0.502-0.247-0.639-0.485
		C146.709,108.032,145.959,106.865,145.073,105.759z M128.112,97.228c0.256-0.137,0.528-0.162,0.818-0.077
		c0.272,0.102,0.476,0.289,0.613,0.562c0.12,0.255,0.137,0.528,0.051,0.818c-0.103,0.271-0.29,0.476-0.563,0.613
		c-1.175,0.562-2.35,1.311-3.525,2.247c-0.238,0.171-0.502,0.23-0.792,0.179c-0.29-0.034-0.52-0.17-0.69-0.409
		c-0.188-0.238-0.256-0.502-0.205-0.792c0.017-0.29,0.145-0.519,0.383-0.689C125.533,98.675,126.835,97.857,128.112,97.228z
		 M139.684,99.552c-0.052-0.29,0.025-0.554,0.23-0.792c0.153-0.255,0.392-0.393,0.715-0.409c0.255-0.051,0.502,0.017,0.74,0.204
		c1.073,0.852,2.12,1.882,3.142,3.092c0.171,0.204,0.255,0.468,0.255,0.792c-0.052,0.29-0.179,0.528-0.383,0.714
		c-0.222,0.171-0.477,0.256-0.767,0.256c-0.307-0.051-0.545-0.187-0.715-0.409c-0.92-1.107-1.856-2.035-2.81-2.785
		C139.838,100.063,139.701,99.841,139.684,99.552z M137.998,96.87c0.119,0.272,0.128,0.553,0.025,0.843
		c-0.102,0.255-0.281,0.46-0.537,0.613c-0.272,0.12-0.536,0.127-0.792,0.025c-1.226-0.408-2.477-0.528-3.754-0.357
		c-0.306,0.016-0.57-0.068-0.792-0.256c-0.239-0.188-0.375-0.417-0.408-0.69c-0.035-0.307,0.042-0.57,0.229-0.792
		c0.188-0.238,0.427-0.366,0.716-0.383c1.583-0.204,3.151-0.051,4.7,0.459C137.64,96.435,137.845,96.614,137.998,96.87z
		 M193.761,172.607c0.238,0.137,0.399,0.35,0.485,0.64c0.034,0.29-0.017,0.571-0.152,0.842c-0.154,0.24-0.375,0.394-0.665,0.462
		c-1.431,0.338-2.86,0.636-4.292,0.893c-0.289,0.053-0.553,0.009-0.791-0.128c-0.256-0.17-0.408-0.399-0.46-0.688
		c-0.051-0.29,0.009-0.555,0.179-0.792c0.154-0.273,0.384-0.435,0.689-0.486c1.396-0.255,2.793-0.544,4.189-0.869
		C193.232,172.411,193.505,172.455,193.761,172.607z M202.473,171.562c-0.154,0.254-0.358,0.435-0.613,0.535
		c-1.398,0.459-2.785,0.901-4.165,1.328c-0.289,0.068-0.562,0.035-0.816-0.102c-0.273-0.152-0.443-0.357-0.512-0.611
		c-0.103-0.29-0.076-0.571,0.077-0.845c0.136-0.257,0.349-0.418,0.639-0.486c1.345-0.407,2.707-0.842,4.087-1.303
		c0.254-0.102,0.52-0.074,0.791,0.079c0.256,0.117,0.435,0.322,0.537,0.611C202.598,171.023,202.59,171.288,202.473,171.562z
		 M223.903,158.788c0.238-0.169,0.503-0.229,0.793-0.18c0.289,0.07,0.509,0.224,0.663,0.461c0.153,0.238,0.204,0.503,0.153,0.793
		c-0.052,0.289-0.196,0.519-0.435,0.688c-1.227,0.801-2.453,1.568-3.678,2.301c-0.24,0.152-0.502,0.193-0.792,0.125
		c-0.289-0.084-0.503-0.254-0.64-0.511c-0.17-0.237-0.213-0.503-0.128-0.792c0.086-0.287,0.247-0.511,0.486-0.661
		C221.519,160.297,222.711,159.556,223.903,158.788z M212.408,166.528c-0.137-0.257-0.153-0.519-0.051-0.792
		c0.085-0.29,0.264-0.494,0.535-0.612c1.243-0.614,2.495-1.271,3.754-1.967c0.241-0.153,0.503-0.181,0.794-0.076
		c0.29,0.067,0.502,0.237,0.638,0.511c0.154,0.237,0.188,0.503,0.102,0.792c-0.085,0.29-0.246,0.503-0.483,0.637
		c-1.277,0.699-2.571,1.371-3.883,2.02c-0.255,0.12-0.519,0.136-0.792,0.052C212.731,166.987,212.526,166.802,212.408,166.528z
		 M209.063,166.938c0.271-0.12,0.553-0.12,0.843,0c0.256,0.102,0.442,0.281,0.562,0.535c0.12,0.273,0.137,0.552,0.052,0.842
		c-0.137,0.257-0.333,0.442-0.587,0.563c-1.33,0.596-2.667,1.175-4.012,1.738c-0.257,0.101-0.519,0.093-0.792-0.027
		c-0.29-0.137-0.486-0.331-0.587-0.585c-0.121-0.273-0.121-0.538,0-0.792c0.136-0.29,0.331-0.486,0.587-0.588
		C206.456,168.094,207.768,167.534,209.063,166.938z M230.824,153.832c0.24-0.186,0.503-0.254,0.792-0.205
		c0.29,0.02,0.529,0.147,0.716,0.386c0.17,0.237,0.229,0.503,0.181,0.792c-0.02,0.29-0.145,0.536-0.386,0.74
		c-1.158,0.886-2.323,1.738-3.498,2.555c-0.256,0.17-0.528,0.229-0.818,0.178c-0.271-0.052-0.494-0.196-0.664-0.435
		c-0.169-0.237-0.229-0.503-0.179-0.792c0.034-0.29,0.179-0.52,0.436-0.688C228.543,155.545,229.685,154.701,230.824,153.832z
		 M238.182,148.212c0.29,0,0.537,0.121,0.74,0.358c0.171,0.222,0.257,0.479,0.257,0.768c-0.018,0.29-0.136,0.535-0.357,0.74
		c-1.106,0.938-2.213,1.855-3.322,2.76c-0.238,0.186-0.501,0.271-0.791,0.254c-0.29-0.049-0.527-0.186-0.715-0.407
		c-0.188-0.24-0.265-0.503-0.23-0.792c0.034-0.29,0.171-0.527,0.408-0.716c1.09-0.902,2.172-1.806,3.245-2.708
		C237.637,148.264,237.893,148.179,238.182,148.212z M244.415,142.362c0.289,0,0.527,0.112,0.715,0.333
		c0.222,0.186,0.332,0.435,0.332,0.74c-0.017,0.29-0.127,0.536-0.332,0.741c-1.056,1.005-2.095,2.002-3.116,2.989
		c-0.223,0.188-0.477,0.282-0.767,0.282c-0.289-0.017-0.527-0.137-0.716-0.358c-0.22-0.222-0.322-0.479-0.306-0.768
		c0-0.287,0.112-0.527,0.332-0.713c1.039-0.954,2.069-1.943,3.092-2.964C243.853,142.439,244.108,142.346,244.415,142.362z
		 M246.688,141.139c-0.223-0.188-0.332-0.426-0.332-0.717c-0.018-0.324,0.085-0.579,0.307-0.766c0.953-1.004,1.915-2.036,2.886-3.09
		c0.188-0.221,0.434-0.332,0.742-0.332c0.288-0.018,0.544,0.067,0.765,0.255c0.222,0.188,0.342,0.443,0.358,0.767
		c0,0.272-0.093,0.519-0.281,0.74c-0.971,1.056-1.958,2.103-2.964,3.143c-0.187,0.186-0.425,0.298-0.714,0.331
		C247.13,141.469,246.876,141.36,246.688,141.139z M278.721,93.191c0.34-0.221,0.64-0.289,0.894-0.205
		c0.12,0.018,0.247,0.085,0.384,0.205c0.153,0.17,0.213,0.477,0.179,0.92c-0.034,0.715-0.281,1.686-0.74,2.912
		c-0.479,1.26-1.185,2.648-2.121,4.164l-1.507,2.427c-0.392,0.596-0.664,1.073-0.817,1.431c-0.153,0.306-0.256,0.62-0.306,0.945
		c-0.018,0.408,0,0.791,0.05,1.149c0.103,0.477,0.18,0.851,0.229,1.123l0.129,0.513l0.205,0.127l1.404,3.959l0.843-1.354
		c0.188-0.187,0.435-0.221,0.74-0.103c0.308,0.137,0.527,0.324,0.665,0.563c0.118,0.221,0.136,0.408,0.051,0.562
		c-0.068,0.188-0.229,0.477-0.486,0.869c-0.34,0.562-0.723,1.048-1.148,1.457l1.864,5.287l0.74-1.149
		c0.188-0.187,0.444-0.221,0.767-0.103c0.29,0.137,0.511,0.332,0.664,0.587c0.12,0.205,0.138,0.392,0.052,0.563l-0.511,0.867
		c-0.324,0.513-0.647,0.938-0.972,1.279l2.122,5.568l0.024,0.153c0.034,0.153,0.026,0.272-0.024,0.358
		c-0.018,0.085-0.129,0.28-0.334,0.587l-0.995,1.226l-4.011-6.13l-0.409,0.613l-0.511-0.766l-0.103,0.127
		c-0.068,0.068-0.085,0.059-0.051-0.026l0.026-0.28l-1.431-2.249l-0.103,0.128c-0.052,0.051-0.069,0.042-0.052-0.026l0.026-0.281
		l-0.716-1.149c0-0.034,0.06-0.187,0.179-0.46c0.103-0.273,0.308-0.587,0.613-0.945l-0.076-0.101l-0.459,0.664l-0.792-0.742
		l-0.563,0.919l-0.767-0.688l-0.05,0.051c-0.017,0.034-0.034,0.034-0.051,0v-0.179l-1.329-1.225l-0.051,0.076
		c-0.018,0.034-0.026,0.034-0.026,0l0.026-0.154l-1.405-1.302l0.076-0.664c-0.153,0.306-0.705,1.191-1.66,2.656
		c-0.987,1.43-1.796,2.581-2.427,3.448c-0.681,0.938-1.26,1.687-1.735,2.249c-0.579,0.716-1.1,1.295-1.559,1.738
		c-0.393,0.425-0.818,0.825-1.277,1.199c-0.035,0.12-0.027,0.255,0.024,0.41l2.196,6.361c0,0.084-0.024,0.169-0.076,0.255
		l-0.894,1.354l-4.265-3.985c-0.052,0.204-0.137,0.391-0.257,0.562c-0.938,1.106-1.874,2.205-2.809,3.295
		c-0.188,0.222-0.427,0.342-0.716,0.358c-0.29,0-0.545-0.094-0.767-0.28c-0.239-0.205-0.356-0.452-0.356-0.742
		c-0.035-0.272,0.049-0.519,0.254-0.741c0.938-1.056,1.856-2.138,2.76-3.244c0.051-0.068,0.101-0.119,0.153-0.153l-4.957-1.865
		l0.817-1.406c0.035-0.102,0.096-0.161,0.181-0.179l0.125-0.024c0.02-0.017,0.342-0.061,0.973-0.128l5.593-0.715
		c0.153-0.018,0.281-0.06,0.384-0.128c0.136-0.511,0.298-1.081,0.485-1.711c0.306-0.833,0.596-1.558,0.869-2.171
		c0.374-0.8,0.792-1.651,1.251-2.555c0.46-0.851,1.141-2.069,2.044-3.653c0.868-1.499,1.421-2.4,1.661-2.708l-0.588,0.358
		l-1.764-0.638l-0.127,0.077c-0.052,0.017-0.068,0-0.052-0.052l0.052-0.077l-1.712-0.638l-0.128,0.076
		c-0.051,0.017-0.059,0-0.026-0.05l0.026-0.052l-0.944-0.384l0.561-0.944l-0.994-0.332l0.382-0.716l-0.128-0.026
		c-0.204,0.426-0.399,0.75-0.588,0.971c-0.152,0.204-0.254,0.324-0.306,0.358l-1.38-0.154l-0.203,0.179
		c-0.051,0.018-0.06,0-0.026-0.051l0.052-0.153l-2.657-0.308l-0.279,0.179l-0.027,0.026c0-0.017,0-0.034,0-0.051l0.076-0.179
		l-0.945-0.103l0.384-0.639l-7.28-0.894c0.017-0.034,0.085-0.197,0.205-0.485l0.485-0.919c0.137-0.273,0.255-0.477,0.357-0.613
		c0.119-0.068,0.222-0.121,0.308-0.153l0.178-0.052l5.926-0.536c0.17-0.46,0.41-0.945,0.716-1.456
		c0.254-0.426,0.451-0.716,0.588-0.869c0.084-0.153,0.254-0.213,0.511-0.179c0.271,0,0.535,0.12,0.791,0.357
		c0.255,0.222,0.342,0.46,0.255,0.715l-0.714,1.175l5.569-0.688c0.186-0.495,0.459-1.048,0.817-1.66
		c0.237-0.392,0.416-0.665,0.535-0.818c0.103-0.137,0.281-0.205,0.537-0.205c0.288,0,0.553,0.111,0.791,0.332
		c0.257,0.255,0.341,0.503,0.257,0.741c-0.085,0.154-0.214,0.383-0.384,0.69l-0.461,0.638l4.19-0.486l0.179,0.128l0.511-0.128
		c0.306-0.067,0.681-0.17,1.124-0.306c0.373-0.085,0.723-0.229,1.047-0.434c0.255-0.153,0.503-0.384,0.741-0.69
		c0.222-0.272,0.512-0.723,0.869-1.354l1.531-2.426c0.988-1.551,1.925-2.802,2.811-3.755
		C277.274,94.213,278.04,93.566,278.721,93.191z"/>
</g>
</svg>
