<?xml version="1.0" encoding="utf-8"?>
<!-- Generator: Adobe Illustrator 16.0.0, SVG Export Plug-In . SVG Version: 6.00 Build 0)  -->
<!DOCTYPE svg PUBLIC "-//W3C//DTD SVG 1.1//EN" "http://www.w3.org/Graphics/SVG/1.1/DTD/svg11.dtd">
<svg version="1.1" id="Layer_1" xmlns="http://www.w3.org/2000/svg" xmlns:xlink="http://www.w3.org/1999/xlink" x="0px" y="0px"
	 width="400px" height="400px" viewBox="0 0 400 400" enable-background="new 0 0 400 400" xml:space="preserve">
<g>
	<path fill="#82B6AA" d="M248.771,68.611l5.5-5.281l14.031,3.765c0.811,3.274,0.083,5.933-2.181,7.974
		c-0.715,0.59-1.525,1.108-2.436,1.55l-1.145,0.479L259.55,75.4l-15.911,9.377l1.771,11.26l1.626,0.073
		c1.032,0.346,1.551,1.22,1.551,2.622l0.479,14.582c0.689,10.657,1.907,18.261,3.654,22.816c0.148,0.37,0.259,0.724,0.333,1.069
		l13.291,4.134l0.776,0.59c0.637,0.615,1.217,1.366,1.732,2.252c0.638,1.133,1.142,2.399,1.515,3.803
		c0.588,2.266,0.836,4.873,0.736,7.826l14.656,96.354c-1.155,1.082-2.475,1.869-3.949,2.362c-2.979,0.936-5.24-0.085-6.792-3.064
		l-1.219-7.604v-0.038l-14.547-91.036l-12.847-4.541l1.218,7.236c-0.221-0.246-0.454-0.431-0.702-0.555
		c-0.417-0.196-0.812-0.196-1.182,0c-0.368,0.172-0.665,0.505-0.887,0.997c-0.196,0.467-0.283,0.984-0.258,1.551l-1.143,0.591
		c-0.319-0.418-0.678-0.703-1.071-0.849c-0.418-0.173-0.8-0.148-1.145,0.075c-0.763,0.418-1.12,1.278-1.069,2.583l-1.145,0.664
		c-0.318-0.418-0.688-0.688-1.108-0.812c-0.072-0.024-0.134-0.037-0.185-0.037l-2.51-14.361l-1.182-0.037
		c-0.172-1.132-0.343-2.262-0.518-3.395l-88.785,116.547c-4.134-1.181-6.595-2.782-7.383-4.8c-0.195-0.591-0.246-1.169-0.146-1.735
		l-0.996-0.812l-4.578-67.077l-10.706,6.534l-5.278-12.626l15.356-9.451l-11.702-68.187c1.157-2.02,3.162-2.744,6.017-2.177
		c1.429,0.296,2.744,0.787,3.952,1.478l11.184,63.09l93.361-57.515c0.098-0.197,0.197-0.395,0.296-0.591l-4.466-24.218
		c2.386-3.765,5.057-5.624,8.01-5.575c1.502,0.025,2.756,0.418,3.765,1.181l8.083-5.648L248.771,68.611z M244.454,174.338
		l0.185-0.075l0.296,0.848c1.6-0.912,2.806-1.575,3.619-1.993l-0.296-0.848l0.184-0.076l0.258,0.849l1.772-0.849l8.674,51.204
		l-6.496-7.42l-11.148-38.688l3.284-2.104L244.454,174.338z M246.263,208.743l-5.391-31.046l10.67,37.028L246.263,208.743z
		 M252.059,216.46l3.877,13.476l-6.905-5.427l-2.51-14.323L252.059,216.46z M260.917,233.849l-4.061-3.175l-3.729-12.957
		l6.278,7.125L260.917,233.849z M256.302,231.263l5.242,18.089l-8.231-0.258l-4.099-23.369L256.302,231.263z M253.461,249.944
		l8.307,0.258l0.813,2.73l-8.344,1.439L253.461,249.944z M254.346,255.149l8.455-1.438v0.036c-0.565,1.43-0.936,2.904-1.107,4.431
		l-0.074,1.145l-1.773,1.697l-5.427-5.428L254.346,255.149z M263.724,250.238l0.37,2.326l6.495-1.588l4.911,13.18l-8.009,8.788
		c-1.136-0.887-2.143-2.02-3.028-3.397c-2.165-3.322-3.025-7.138-2.584-11.444c0.222-1.969,0.676-3.765,1.365-5.391l-0.737-2.51
		L263.724,250.238z M262.283,249.391l-5.021-17.389l3.876,2.991l2.438,14.47L262.283,249.391z M259.59,265.116l-1.811-1.181
		l1.993-1.921l1.218,1.221L259.59,265.116z M261.877,264.081c0.197,1.157,0.506,2.217,0.924,3.174l-2.659-1.735l1.329-1.808
		L261.877,264.081z M261.471,262.605l-1.145-1.143l1.218-1.145l0.075,2.068L261.471,262.605z M263.945,273.717l-1.993,0.149
		l-4.54-1.221l-0.48-2.879l2.731-3.617l3.728,2.436c0.297,0.591,0.715,1.269,1.256,2.029L263.945,273.717z M267.195,273.275
		l-0.222,0.26h-0.444l0.038-0.739L267.195,273.275z M265.975,272.205l-0.11,1.366l-1.255,0.111l0.553-2.401L265.975,272.205z
		 M255.64,262.497l-0.997-5.612l4.688,4.615l-2.141,2.029L255.64,262.497z M142.783,177.182l3.471,61.281l79.002-111.785
		L142.783,177.182z M264.461,274.528v-0.036l1.329-0.111l-0.037,0.48L264.461,274.528z M256.635,264.081l-0.59,0.593l-0.222-1.108
		L256.635,264.081z M256.784,268.884l-0.591-3.361l1.032-1.033l1.92,1.257L256.784,268.884z"/>
	<path fill="#663C2C" d="M296.726,229.86l-2.619,8.01l6.31-3.654l6.239-12.734L296.726,229.86z M291.337,252.785l0.997-2.068
		l-2.326-0.333l-0.556,1.735L291.337,252.785z M290.301,249.611l2.402,0.369l7.087-14.471l-6.017,3.435L290.301,249.611z
		 M293.071,250.831l-1.105,2.214l9.485,3.58l5.614-3.765L293.071,250.831z M285.429,243.742l0.48,5.242l3.694,0.515l3.246-10.041
		L285.429,243.742z M285.984,249.796l0.071,1.072l2.769,0.995l0.479-1.551L285.984,249.796z M285.099,239.569l0.257,3.285
		l7.864-4.503l2.51-7.68L285.099,239.569z M319.098,254.596l-10.928-1.588l-5.831,3.952l6.017,2.214L319.098,254.596z
		 M346.345,287.526c0.44-1.43,0.674-2.192,0.698-2.29l0.703,0.297l0.075-0.259l-0.737-0.221l1.219-4.576l0.702,0.221l0.071-0.258
		l-0.773-0.184c0.346-1.402,0.679-2.941,0.995-4.613l0.739,0.185l0.038-0.222l-0.258-0.111l-0.479-0.075l0.035-0.072l-41.013-15.321
		l-15.765,6.681l10.191,12.959L346.345,287.526z M345.679,289.74l0.442-1.402l-42.565-7.717l7.676,9.819l29.461,11.997l1.443-3.321
		l0.701,0.405l0.109-0.258l-0.702-0.368l1.734-4.283l0.702,0.37l0.037-0.258l-0.664-0.333l1.55-4.431l0.666,0.296l0.113-0.221
		L345.679,289.74z M351.177,260.907l0.741,0.036v-0.257h-0.741l0.04-1.366l-30.716-4.504l-11.114,4.762l40.127,14.95
		c0.296-1.673,0.506-2.939,0.629-3.803l0.739,0.148l0.037-0.258l-0.776-0.073l0.63-4.727l0.702,0.075l0.073-0.258l-0.775-0.038
		C351.042,262.497,351.177,260.932,351.177,260.907z M351.142,246.141l0.739-0.073v-0.296l-0.775,0.148l-0.333-3.913l-28.833,12.256
		l29.349,4.282l0.075-2.584h0.737v-0.257l-0.704,0.073l-0.037-4.726l0.737-0.036v-0.258l-0.773,0.075L351.142,246.141z
		 M348.188,227.055l0.739-0.295l-0.073-0.259l-0.737,0.333l-0.04-0.185l-38.908,25.769l11.292,1.624l30.974-13.106v-0.037
		l-0.772,0.185c-0.223-1.919-0.421-3.443-0.591-4.576l0.701-0.185v-0.296l-0.776,0.258c-0.317-1.944-0.591-3.459-0.811-4.543
		l0.774-0.258l-0.071-0.296l-0.741,0.333L348.188,227.055z M265.016,291.364l-0.628,7.679l10.225-14.767l-0.889-1.992
		L265.016,291.364z M268.854,354.714l0.038-0.887c1.45,0.023,2.732,0,3.841-0.075l-0.04,0.923h0.187l0.037-0.96h0.258l7.569-54.711
		l-5.835-13.993l-10.629,15.394l-4.396,52.607l0.848,0.147l-0.148,0.848l0.186,0.075l0.147-0.887l3.802,0.408l-0.147,0.884
		l0.223,0.039l0.075-0.923c1.304,0.121,2.58,0.185,3.837,0.185l-0.036,0.887L268.854,354.714z M238.213,345.188
		c0.739,0.468,1.884,1.107,3.433,1.921l-0.333,0.812l0.185,0.109l0.295-0.887c1.032,0.542,2.201,1.097,3.507,1.662l-0.295,0.849
		l0.185,0.111l0.258-0.887l1.478,0.554l7.974-35.552l-20.12,29.202c1.011,0.715,2.093,1.391,3.25,2.029l-0.37,0.849l0.186,0.11
		L238.213,345.188z M255.307,312.186l3.101-13.879l-34.406,35.956l0.776,0.774l-0.48,0.739l0.186,0.185l0.442-0.738
		c1.133,1.083,2.128,1.968,2.991,2.659l-0.481,0.774l0.186,0.148l0.441-0.775c0.839,0.714,1.884,1.551,3.139,2.51l-0.481,0.776
		l0.186,0.184l0.405-0.812l2.843,2.029L255.307,312.186z M263.539,301.442l-7.679,11.074l-8.271,37.174l1.478,0.593l-0.258,0.849
		l0.221,0.111l0.222-0.924c1.181,0.442,2.398,0.839,3.653,1.182l-0.221,0.924l0.184,0.035l0.185-0.922
		c1.626,0.417,2.88,0.714,3.767,0.887l-0.221,0.887l0.186,0.074l0.184-0.887l2.253,0.369L263.539,301.442z M259.255,297.381
		l-2.989,13.364l7.383-10.633l0.665-8.01L259.255,297.381z M201.703,295.094l0.479,1.66l-0.702,0.333l0.038,0.221l0.702-0.369
		c0.516,1.796,0.984,3.224,1.402,4.282l-0.738,0.369l0.111,0.258l0.666-0.405c0.393,1.107,0.933,2.486,1.624,4.134l-0.701,0.48
		l0.11,0.185l0.628-0.442l1.772,4.022l-0.628,0.444l0.073,0.222l0.666-0.479l0.479,0.96l26.026-24.956L201.703,295.094z
		 M202.664,229.196l0.738,0.258l-1.366,4.541l-0.702-0.259l-0.112,0.259l0.739,0.221c-0.441,1.501-0.824,3.027-1.143,4.578
		l-0.739-0.221l-0.074,0.258l0.738,0.147c-0.467,1.993-0.787,3.531-0.96,4.615l-0.738-0.185l-0.075,0.258l0.775,0.148
		c-0.222,1.133-0.418,2.313-0.59,3.545l33.999,1.069l-29.496-19.675l-0.224,0.479l-0.664-0.297L202.664,229.196z M244.6,256.071
		l-10.151-6.756l-35.438-1.219l-0.036,0.37l-0.775-0.148l-0.036,0.259l0.739,0.072l-0.591,4.763l-0.702-0.111l-0.037,0.296
		l0.739,0.037c-0.174,1.551-0.31,3.113-0.408,4.688l-0.739-0.036v0.258l0.739-0.037l-0.221,4.727h-0.741v0.297l0.775-0.075v0.812
		L244.6,256.071z M246.483,282.393l-11.334,3.213l-27.135,26.026l1.071,2.326l-0.626,0.479l0.109,0.258l0.629-0.591
		c0.591,1.108,1.305,2.362,2.142,3.765l-0.664,0.591l0.146,0.185l0.593-0.59c0.812,1.354,1.586,2.573,2.325,3.654l-0.627,0.552
		l0.111,0.185l0.552-0.628l1.366,1.956L246.483,282.393z M234.892,284.904l9.415-9.007l-45.777,3.248l0.479,3.582l-0.774,0.222
		l0.036,0.257l0.738-0.257l0.812,4.579l-0.738,0.221l0.074,0.221l0.738-0.258c0.196,0.984,0.529,2.475,0.998,4.468l-0.739,0.294
		l0.112,0.222l0.701-0.333l0.556,1.992L234.892,284.904z M263.059,277.741l-15.506,4.355l-31.97,42.271l0.629,0.923l-0.554,0.63
		l0.146,0.184l0.554-0.629c0.937,1.257,1.797,2.351,2.585,3.286l-0.555,0.666l0.148,0.146l0.554-0.699
		c0.542,0.714,1.438,1.759,2.695,3.137l-0.518,0.702l0.111,0.148l0.554-0.738l1.588,1.623l35.181-36.769L263.059,277.741z
		 M265.57,277.005l-1.81,0.516l-4.171,18.531l4.835-5.058L265.57,277.005z M270.442,275.011l0.075,0.59l-4.285,1.219l-1.105,13.436
		l8.306-8.676l-2.657-6.46L270.442,275.011z M266.454,274.347l-0.146,1.623l3.877-1.069c-0.468-0.147-0.997-0.382-1.59-0.701
		L266.454,274.347z M265.642,276.191l0.148-1.811l-1.329,0.111v0.036l-0.516,2.142L265.642,276.191z M246.3,274.938l6.164-0.407
		l6.682-8.784l-1.92-1.257L246.3,274.938z M251.799,275.343l-6.423,0.479l-9.007,8.676l10.89-3.138L251.799,275.343z
		 M252.723,275.305l-4.394,5.76l14.877-4.21l0.555-2.289L252.723,275.305z M246.705,256.514l10.484,7.016l2.141-2.029l-6.202-6.129
		L246.705,256.514z M256.635,264.081l-11.074-7.383l-47.845,8.38c-0.024,1.058-0.013,2.08,0.038,3.063l-0.812,0.074v0.257
		l0.775-0.109c0.074,1.969,0.16,3.543,0.258,4.725l-0.776,0.112v0.258l0.776-0.149c0.1,1.624,0.232,3.176,0.405,4.651l-0.774,0.11
		l0.073,0.297l0.701-0.222l0.037,0.185l46.737-3.321L256.635,264.081z M265.975,272.205l-0.813-0.924l-0.551,2.401l1.253-0.111
		L265.975,272.205z M266.529,273.535l0.92-0.039l-0.886-0.702L266.529,273.535z M263.945,273.717l0.701-3.101
		c-0.541-0.761-0.959-1.438-1.256-2.029l-3.728-2.436l-6.313,8.271L263.945,273.717z M261.877,264.081l-0.406-0.369l-1.329,1.808
		l2.659,1.735C262.383,266.298,262.074,265.24,261.877,264.081z M261.471,262.605l0.148-0.221l-0.075-2.068l-1.218,1.145
		L261.471,262.605z M259.59,265.116l1.402-1.881l-1.218-1.221l-1.993,1.921L259.59,265.116z M262.283,249.391l2.03,0.072
		l-1.735-13.327l-5.315-4.135L262.283,249.391z M262.801,253.745v-0.036l-8.788,1.478l5.833,5.833l1.773-1.697l0.074-1.146
		C261.865,256.649,262.235,255.175,262.801,253.745z M252.427,254.669l-4.984-4.948l-11.519-0.405l9.821,6.535L252.427,254.669z
		 M248.552,249.76l4.799,4.763l9.229-1.587l-0.813-2.731L248.552,249.76z M262.174,227.977l0.997,7.606l7.64,6.018l0.849-2.88
		L262.174,227.977z M262.432,234.993l-1.069-7.938l-8.234-9.338l3.729,12.957L262.432,234.993z M227.103,188.071l-0.111,0.148
		l0.479,0.666l-2.992,3.213l-0.479-0.703l-0.185,0.222l0.518,0.59c-1.305,1.526-2.253,2.669-2.843,3.432l-0.518-0.626l-0.148,0.147
		l0.515,0.628c-0.959,1.229-1.844,2.41-2.658,3.545l-0.552-0.591l-0.185,0.185l0.591,0.554l-0.516,0.776l37.914,29.681
		l-3.876-13.476l-24.402-27.725l-0.036,0.037L227.103,188.071z M234.226,182.681l-0.406-0.812l-0.146,0.185l0.406,0.739
		c-0.739,0.59-1.82,1.526-3.249,2.804l-0.406-0.703l-0.148,0.149l0.442,0.699c-0.591,0.494-1.438,1.305-2.547,2.438l23.37,26.543
		l-10.67-37.028c-1.182,0.788-2.253,1.526-3.213,2.214l-0.333-0.775l-0.185,0.148l0.406,0.738
		C236.024,181.157,234.915,182.042,234.226,182.681z M252.501,171.2l-0.185-0.887c-0.097,0.05-0.172,0.1-0.221,0.149l0.221,0.812
		l-3.617,1.772l-0.258-0.849l-0.184,0.076l0.296,0.848c-0.812,0.418-2.02,1.081-3.619,1.993l-0.296-0.848l-0.185,0.075l0.331,0.848
		l-3.284,2.105l11.148,38.688l8.527,9.708l-7.383-55.043L252.501,171.2z M210.377,211.145l0.628,0.406l-0.295,0.663l36.991,36.694
		l13.843,0.443l-5.242-18.089l-38.727-30.345l-1.623,2.287l-0.554-0.552l-0.148,0.222l0.591,0.518
		c-0.666,0.983-1.465,2.262-2.398,3.84l-0.629-0.556l-0.11,0.223l0.591,0.515c-0.615,1.058-1.354,2.387-2.216,3.986l-0.627-0.516
		L210.377,211.145z M208.865,215.721l-0.629-0.442l-0.072,0.222l0.627,0.406l-1.921,4.208l-0.666-0.405l-0.072,0.222l0.702,0.369
		c-0.442,0.959-1.033,2.411-1.772,4.355l-0.662-0.37l-0.112,0.222l0.702,0.369l-1.108,3.101l30.79,20.526l11.886,0.369
		l-36.216-35.956L208.865,215.721z M346.083,217.384l-0.701,0.405l-1.586-4.136l0.662-0.442l-0.071-0.258l-0.666,0.517l-1.032-2.473
		l-41.79,23.885l-7.458,15.171l14.656,2.142l39.759-26.286l-0.959-3.432l0.737-0.333l-0.072-0.221l-0.701,0.37
		c-0.373-1.206-0.836-2.632-1.403-4.282l0.702-0.406L346.083,217.384z M338.368,200.809l-0.109-0.222l-0.591,0.629
		c-0.618-1.083-1.379-2.313-2.291-3.691l0.556-0.515l-27.912,23.366l-6.494,13.217l40.791-23.295l-0.33-0.848l0.628-0.516
		l-0.075-0.185l-0.662,0.48l-1.958-3.913l0.666-0.554l-0.113-0.185l-0.664,0.552c-0.737-1.45-1.427-2.705-2.069-3.765
		L338.368,200.809z M327.626,186.373l-0.442,0.739l-1.883-1.956l-16.465,33.556l26.062-21.855l-2.069-2.916l0.554-0.665
		l-0.146-0.148l-0.515,0.666c-0.938-1.28-1.8-2.388-2.585-3.323l0.552-0.665l-0.185-0.185l-0.518,0.702l-2.735-3.102l0.521-0.663
		L327.626,186.373z M280.446,164.48h-0.222l-0.035,0.96h-1.555l3.326,38.208l10.777-36.731l-0.439-0.147l0.146-0.923h-0.222
		l-0.111,0.923c-0.837-0.197-2.093-0.431-3.766-0.703l0.146-0.887l-0.218-0.073l-0.073,0.923l-3.843-0.442l0.075-0.924h-0.187
		l-0.071,0.96c-1.11-0.124-2.376-0.197-3.806-0.222L280.446,164.48z M314.373,176.146l-0.146-0.072l-17.055,52.384l10.338-8.602
		l17.238-35.219l-0.478-0.48l0.516-0.739l-0.146-0.109l-0.516,0.702l-2.957-2.694l0.408-0.739l-0.146-0.148l-0.408,0.812
		c-0.983-0.887-2.018-1.735-3.1-2.546l0.406-0.813l-0.185-0.109l-0.369,0.812c-0.519-0.393-1.589-1.169-3.214-2.326l0.37-0.812
		l-0.185-0.148L314.373,176.146z M303.813,169.501l-0.218,0.849c-1.28-0.542-2.474-0.996-3.584-1.366l0.223-0.924l-0.147-0.039
		l-0.257,0.887l-3.657-1.184l0.221-0.885l-0.183-0.074l-0.222,0.922l-2.585-0.663l-11.295,38.354l1.255,14.03l21.963-48.251
		l-1.585-0.738l0.295-0.887L303.813,169.501z M311.382,173.268l-0.184-0.111l-0.333,0.812c-1.352-0.763-2.497-1.365-3.433-1.809
		l0.368-0.887l-0.22-0.075l-0.295,0.848l-1.328-0.59l-22.522,49.284l1.554,17.904l11.186-9.342l17.461-53.603l-2.62-1.66
		L311.382,173.268z M322.051,161.825c0.369-0.395,0.763-0.64,1.182-0.739c0.394-0.097,0.753-0.048,1.07,0.148
		c0.689,0.493,0.911,1.377,0.665,2.659l1.033,0.775c0.395-0.394,0.789-0.629,1.183-0.703c0.442-0.076,0.825,0.013,1.142,0.257
		c0.664,0.542,0.837,1.466,0.52,2.769l0.959,0.848c0.393-0.37,0.801-0.579,1.219-0.627c0.442-0.048,0.799,0.061,1.068,0.333
		c0.666,0.591,0.813,1.501,0.444,2.732l0.959,0.887c0.395-0.296,0.803-0.467,1.223-0.517c0.442-0.023,0.799,0.11,1.068,0.406
		c0.616,0.639,0.716,1.575,0.296,2.807l0.89,0.96c0.442-0.296,0.872-0.442,1.292-0.442c0.416-0.024,0.761,0.136,1.033,0.479
		c0.295,0.296,0.457,0.701,0.478,1.22c0.027,0.542-0.071,1.069-0.296,1.586l0.849,1.034c0.445-0.296,0.866-0.43,1.257-0.406
		c0.418,0.024,0.774,0.197,1.069,0.517c0.516,0.714,0.529,1.673,0.038,2.878l0.777,1.072c0.439-0.221,0.886-0.321,1.325-0.296
		c0.421,0.048,0.751,0.246,0.999,0.59c0.246,0.369,0.354,0.812,0.331,1.329c-0.027,0.494-0.16,0.997-0.406,1.514l0.775,1.145
		c0.418-0.246,0.838-0.321,1.254-0.221c0.395,0.074,0.716,0.296,0.961,0.663c0.52,0.813,0.456,1.772-0.184,2.881l0.703,1.145
		c1.057-0.37,1.808-0.173,2.25,0.591c0.445,0.859,0.345,1.82-0.296,2.879l0.591,1.219c0.491-0.149,0.932-0.161,1.328-0.037
		c0.368,0.147,0.664,0.418,0.886,0.812c0.198,0.394,0.258,0.849,0.187,1.365c-0.1,0.492-0.308,0.961-0.629,1.402l0.591,1.294
		c0.466-0.148,0.908-0.134,1.328,0.036c0.393,0.173,0.676,0.469,0.849,0.887c0.394,0.86,0.212,1.796-0.556,2.805l0.556,1.257
		c1.058-0.197,1.735,0.147,2.029,1.032c0.198,0.418,0.222,0.896,0.075,1.438c-0.123,0.517-0.356,0.973-0.702,1.367l0.48,1.365
		c0.465-0.073,0.886,0,1.256,0.221c0.416,0.197,0.686,0.506,0.809,0.924c0.127,0.418,0.127,0.887,0,1.402
		c-0.148,0.491-0.418,0.936-0.809,1.33c0.171,0.492,0.304,0.959,0.402,1.402c0.518-0.049,0.949,0.048,1.294,0.296
		c0.369,0.246,0.615,0.578,0.735,0.996c0.248,0.934-0.057,1.833-0.921,2.695l0.372,1.402c0.492,0,0.908,0.124,1.253,0.369
		c0.345,0.248,0.564,0.603,0.666,1.071c0.22,0.96-0.113,1.833-0.999,2.622c0.125,0.443,0.22,0.924,0.297,1.438
		c1.059,0.074,1.673,0.604,1.846,1.588c0.172,0.96-0.196,1.811-1.108,2.547l0.26,1.478c0.466,0.049,0.849,0.221,1.144,0.516
		c0.345,0.32,0.543,0.702,0.591,1.145c0.073,0.467-0.014,0.936-0.258,1.402c-0.222,0.442-0.531,0.813-0.924,1.108l0.147,1.514
		c1.034,0.196,1.599,0.787,1.698,1.771c0.101,1.033-0.345,1.858-1.33,2.475l0.15,1.478c0.44,0.099,0.811,0.333,1.106,0.702
		c0.295,0.32,0.455,0.714,0.478,1.181c0.05,1.009-0.416,1.796-1.401,2.362v1.514c0.466,0.173,0.849,0.431,1.144,0.775
		c0.27,0.395,0.406,0.813,0.406,1.256c0,0.445-0.148,0.888-0.444,1.33c-0.27,0.394-0.64,0.702-1.109,0.923v1.478
		c0.468,0.17,0.824,0.467,1.072,0.885c0.271,0.37,0.395,0.788,0.37,1.257c-0.049,1.009-0.578,1.735-1.589,2.178l-0.111,1.477
		c0.936,0.493,1.38,1.243,1.33,2.254c-0.073,1.009-0.641,1.71-1.698,2.104l-0.147,1.477c0.419,0.248,0.726,0.578,0.922,0.997
		c0.271,0.418,0.371,0.861,0.296,1.329c-0.048,0.466-0.246,0.899-0.591,1.293c-0.317,0.32-0.702,0.565-1.144,0.739l-0.258,1.402
		c0.446,0.244,0.763,0.59,0.961,1.032c0.22,0.467,0.285,0.924,0.187,1.365c-0.075,0.467-0.285,0.885-0.63,1.255
		c-0.317,0.345-0.726,0.565-1.22,0.666l-0.259,1.402c0.836,0.663,1.181,1.499,1.036,2.508c-0.099,0.469-0.321,0.863-0.666,1.183
		c-0.37,0.321-0.789,0.516-1.255,0.591l-0.37,1.439c0.89,0.714,1.195,1.563,0.924,2.548c-0.125,0.465-0.371,0.848-0.737,1.145
		c-0.345,0.296-0.764,0.466-1.257,0.515l-0.402,1.439c0.837,0.763,1.106,1.623,0.811,2.583c-0.295,0.936-0.985,1.438-2.071,1.515
		l-0.439,1.401c0.809,0.837,1.046,1.724,0.701,2.659c-0.148,0.444-0.432,0.802-0.852,1.071c-0.391,0.221-0.823,0.321-1.293,0.296
		l-0.515,1.439c0.763,0.859,0.947,1.76,0.551,2.695c-0.146,0.42-0.429,0.738-0.849,0.96c-0.393,0.223-0.824,0.309-1.292,0.26
		l-0.551,1.365c0.317,0.42,0.515,0.875,0.591,1.365c0.071,0.517,0.023,0.985-0.149,1.402c-0.196,0.443-0.493,0.752-0.886,0.924
		c-0.395,0.197-0.824,0.258-1.292,0.186l-0.63,1.329c0.638,0.962,0.737,1.896,0.297,2.806c-0.446,0.861-1.182,1.182-2.218,0.961
		l-0.699,1.254c0.614,1.06,0.688,2.007,0.218,2.844c-0.218,0.394-0.551,0.665-0.995,0.812c-0.418,0.172-0.849,0.185-1.292,0.038
		l-0.737,1.255c0.566,1.032,0.591,1.968,0.071,2.807c-0.246,0.369-0.564,0.615-0.959,0.739c-0.416,0.121-0.849,0.097-1.293-0.076
		c-0.099,0.197-0.368,0.603-0.813,1.221c0.546,1.105,0.546,2.067,0,2.877c-0.27,0.346-0.626,0.566-1.07,0.666
		c-0.392,0.072-0.811,0.012-1.252-0.185l-0.851,1.145c0.466,1.183,0.421,2.155-0.146,2.916c-0.591,0.763-1.367,0.887-2.325,0.369
		l-0.848,1.069c0.416,1.182,0.321,2.13-0.298,2.845c-0.293,0.368-0.649,0.565-1.065,0.59c-0.446,0.024-0.876-0.085-1.295-0.333
		l-0.923,1.033c0.37,1.183,0.247,2.128-0.369,2.843c-0.319,0.321-0.691,0.493-1.107,0.517c-0.444,0-0.849-0.146-1.217-0.443
		l-0.964,0.997c0.317,1.207,0.146,2.155-0.517,2.843c-0.321,0.297-0.692,0.431-1.108,0.406c-0.444,0-0.86-0.16-1.255-0.481
		l-0.994,0.924c0.146,0.542,0.158,1.069,0.037,1.587c-0.099,0.516-0.321,0.911-0.666,1.181c-0.316,0.296-0.689,0.418-1.105,0.37
		c-0.42-0.049-0.813-0.233-1.182-0.555l-1.034,0.849c0.22,1.28-0.038,2.217-0.777,2.808c-0.316,0.221-0.688,0.306-1.107,0.257
		c-0.418-0.075-0.803-0.296-1.144-0.665l-1.106,0.774c0.171,1.33-0.124,2.239-0.888,2.731c-0.664,0.543-1.403,0.382-2.216-0.479
		l-1.07,0.701c0.048,1.304-0.283,2.192-0.994,2.66c-0.762,0.465-1.515,0.27-2.252-0.591l-1.07,0.626
		c0,1.304-0.368,2.181-1.107,2.622c-0.371,0.196-0.764,0.208-1.182,0.038c-0.37-0.123-0.701-0.404-0.997-0.849l-1.181,0.591
		c-0.024,1.306-0.431,2.154-1.219,2.545c-0.787,0.32-1.489,0.012-2.104-0.92l-1.181,0.516c-0.075,1.282-0.506,2.093-1.292,2.438
		c-0.373,0.123-0.739,0.095-1.11-0.075c-0.393-0.198-0.726-0.527-0.995-0.995l-1.181,0.442c-0.147,1.306-0.618,2.093-1.403,2.362
		c-0.789,0.273-1.465-0.125-2.029-1.182l-1.222,0.371c-0.193,1.329-0.689,2.091-1.474,2.291c-0.421,0.123-0.803,0.045-1.146-0.223
		c-0.319-0.245-0.591-0.63-0.813-1.146l-1.217,0.333c-0.27,1.255-0.801,1.982-1.587,2.179c-0.395,0.073-0.764-0.026-1.108-0.296
		c-0.345-0.297-0.614-0.689-0.813-1.181l-1.181,0.22c-0.147,0.591-0.357,1.07-0.627,1.438c-0.32,0.371-0.678,0.591-1.07,0.666
		c-0.37,0.046-0.725-0.075-1.07-0.37c-0.345-0.298-0.606-0.716-0.776-1.255l-1.217,0.185c-0.175,0.543-0.42,0.997-0.737,1.365
		c-0.321,0.371-0.678,0.567-1.074,0.591c-0.341,0.05-0.674-0.087-0.993-0.406c-0.321-0.317-0.553-0.749-0.703-1.292l-1.255,0.039
		c-0.371,1.253-0.983,1.905-1.845,1.954c-0.369,0-0.714-0.17-1.033-0.515c-0.271-0.371-0.479-0.837-0.628-1.403h-1.182
		c-0.198,0.543-0.468,0.982-0.813,1.328c-0.345,0.347-0.713,0.507-1.109,0.483c-0.369,0-0.714-0.2-1.031-0.595
		c-0.27-0.345-0.47-0.799-0.59-1.365l-1.185-0.111c-0.221,0.564-0.518,1.011-0.887,1.33c-0.319,0.295-0.676,0.404-1.069,0.329
		c-0.395-0.024-0.727-0.221-0.997-0.591c-0.27-0.391-0.441-0.872-0.518-1.439l-1.218-0.22c-0.245,0.545-0.542,0.959-0.887,1.257
		c-0.394,0.319-0.774,0.43-1.145,0.331c-0.369-0.073-0.676-0.308-0.924-0.702c-0.221-0.396-0.369-0.888-0.443-1.479l-1.218-0.257
		c-0.248,0.515-0.555,0.923-0.924,1.217c-0.42,0.245-0.8,0.32-1.145,0.222c-0.394-0.073-0.703-0.321-0.924-0.737
		c-0.248-0.42-0.382-0.924-0.405-1.515l-1.181-0.332c-0.273,0.491-0.604,0.863-0.997,1.109c-0.37,0.246-0.751,0.306-1.145,0.183
		c-0.37-0.123-0.651-0.391-0.849-0.811c-0.221-0.442-0.345-0.962-0.369-1.552l-1.145-0.404c-0.688,1.058-1.414,1.44-2.178,1.146
		c-0.346-0.127-0.629-0.421-0.848-0.889c-0.174-0.443-0.246-0.947-0.223-1.514l-1.145-0.479c-0.738,1.009-1.489,1.328-2.25,0.959
		c-0.764-0.345-1.096-1.155-0.999-2.436l-1.106-0.589c-0.319,0.468-0.688,0.787-1.107,0.959c-0.418,0.149-0.8,0.125-1.145-0.071
		c-0.321-0.174-0.552-0.491-0.702-0.961c-0.171-0.493-0.222-1.022-0.148-1.59l-1.143-0.626c-0.32,0.416-0.688,0.689-1.107,0.811
		c-0.395,0.146-0.763,0.125-1.109-0.075c-0.711-0.489-0.972-1.378-0.774-2.658l-1.032-0.701c-0.861,0.886-1.639,1.072-2.326,0.553
		c-0.321-0.196-0.542-0.553-0.666-1.07c-0.097-0.468-0.085-0.984,0.037-1.551l-0.997-0.812c-0.394,0.394-0.812,0.626-1.257,0.7
		c-0.417,0.075-0.774-0.011-1.069-0.258c-0.688-0.542-0.872-1.439-0.554-2.695l-0.996-0.849c-0.369,0.343-0.775,0.542-1.218,0.591
		c-0.443,0.073-0.8-0.037-1.07-0.333c-0.639-0.566-0.787-1.478-0.443-2.731l-0.888-0.923c-0.983,0.689-1.771,0.751-2.362,0.184
		c-0.296-0.319-0.467-0.738-0.515-1.253c-0.049-0.494,0.024-1.022,0.221-1.588l-0.887-0.996c-0.419,0.32-0.837,0.479-1.257,0.479
		c-0.417,0-0.775-0.148-1.069-0.442c-0.591-0.715-0.639-1.662-0.147-2.844c-0.395-0.418-0.676-0.751-0.849-0.995
		c-0.442,0.271-0.887,0.394-1.33,0.368c-0.418-0.023-0.751-0.196-0.995-0.518c-0.272-0.343-0.408-0.774-0.408-1.293
		c-0.025-0.541,0.099-1.071,0.369-1.586l-0.775-1.069c-0.467,0.244-0.911,0.343-1.329,0.296c-0.418-0.05-0.739-0.248-0.961-0.591
		c-0.27-0.343-0.393-0.787-0.369-1.329c0.024-0.518,0.172-1.035,0.443-1.55l-0.775-1.107c-0.467,0.222-0.897,0.282-1.293,0.186
		c-0.442-0.075-0.788-0.297-1.033-0.666c-0.196-0.345-0.282-0.788-0.258-1.329c0.049-0.519,0.209-1.021,0.481-1.514l-0.63-1.184
		c-0.467,0.196-0.911,0.246-1.328,0.147c-0.443-0.122-0.764-0.356-0.961-0.699c-0.221-0.395-0.296-0.849-0.221-1.366
		c0.074-0.516,0.258-1.021,0.554-1.514l-0.666-1.218c-1.032,0.369-1.771,0.111-2.213-0.776c-0.395-0.859-0.246-1.795,0.441-2.804
		l-0.591-1.257c-0.467,0.124-0.887,0.1-1.256-0.074c-0.418-0.146-0.715-0.432-0.886-0.85c-0.172-0.368-0.208-0.823-0.11-1.365
		c0.124-0.516,0.343-0.996,0.666-1.438l-0.519-1.293c-0.492,0.098-0.924,0.061-1.292-0.111c-0.42-0.197-0.703-0.506-0.849-0.924
		c-0.146-0.418-0.16-0.875-0.036-1.365c0.123-0.518,0.356-0.984,0.701-1.402l-0.444-1.367c-0.491,0.074-0.923,0.012-1.293-0.184
		c-0.394-0.222-0.65-0.552-0.774-0.997c-0.27-0.887-0.025-1.784,0.738-2.694l-0.369-1.403c-0.467,0.024-0.873-0.072-1.218-0.295
		c-0.394-0.223-0.654-0.556-0.774-0.997c-0.246-0.961,0.048-1.848,0.887-2.659l-0.333-1.438c-1.084-0.025-1.735-0.518-1.957-1.478
		c-0.1-0.42-0.061-0.875,0.109-1.365c0.197-0.467,0.494-0.886,0.888-1.255l-0.295-1.402c-0.469-0.024-0.875-0.173-1.22-0.443
		c-0.345-0.295-0.554-0.675-0.627-1.144c-0.075-0.442-0.012-0.899,0.185-1.366c0.222-0.49,0.541-0.887,0.96-1.181l-0.26-1.439
		c-1.009-0.172-1.6-0.751-1.772-1.735c-0.05-0.441,0.037-0.887,0.258-1.328c0.223-0.494,0.53-0.873,0.924-1.145l-0.111-1.515
		c-0.467-0.075-0.848-0.27-1.145-0.591c-0.32-0.345-0.505-0.739-0.555-1.183c-0.049-0.467,0.05-0.924,0.297-1.366
		s0.578-0.8,0.996-1.07l-0.073-1.514c-0.467-0.123-0.85-0.356-1.145-0.701c-0.296-0.344-0.453-0.752-0.48-1.219
		c-0.049-0.441,0.061-0.887,0.333-1.328c0.27-0.419,0.64-0.752,1.106-0.997l-0.074-1.515c-0.467-0.147-0.823-0.405-1.068-0.774
		c-0.321-0.37-0.469-0.788-0.445-1.255c-0.023-1.011,0.481-1.759,1.514-2.252l0.037-1.515c-0.984-0.394-1.466-1.107-1.438-2.141
		c0.024-0.984,0.554-1.697,1.587-2.142l0.111-1.514c-0.442-0.196-0.787-0.493-1.033-0.887c-0.247-0.442-0.345-0.899-0.296-1.366
		c0.023-0.467,0.196-0.887,0.516-1.256c0.321-0.394,0.714-0.666,1.181-0.812l0.147-1.439c-0.441-0.221-0.774-0.542-0.995-0.96
		c-0.248-0.442-0.345-0.911-0.297-1.402c0.171-1.009,0.787-1.675,1.845-1.992l0.222-1.439c-0.418-0.272-0.739-0.627-0.96-1.071
		c-0.222-0.442-0.297-0.897-0.222-1.366c0.098-0.467,0.318-0.86,0.663-1.182c0.346-0.345,0.751-0.565,1.22-0.665l0.258-1.514
		c-0.394-0.271-0.688-0.627-0.885-1.07c-0.198-0.467-0.247-0.936-0.147-1.402c0.221-0.959,0.875-1.538,1.956-1.735l0.333-1.438
		c-0.394-0.32-0.676-0.702-0.849-1.145c-0.17-0.49-0.197-0.947-0.075-1.365c0.124-0.467,0.37-0.861,0.739-1.182
		c0.369-0.271,0.787-0.43,1.254-0.48l0.406-1.478c-0.37-0.319-0.627-0.725-0.775-1.218c-0.172-0.443-0.185-0.9-0.036-1.365
		c0.147-0.443,0.418-0.8,0.812-1.07c0.345-0.27,0.751-0.405,1.22-0.405l0.479-1.439c-0.761-0.838-0.983-1.723-0.664-2.658
		c0.148-0.443,0.418-0.788,0.813-1.034c0.343-0.245,0.751-0.369,1.217-0.369l0.556-1.402c-0.346-0.369-0.567-0.812-0.666-1.329
		c-0.099-0.467-0.062-0.924,0.11-1.365c0.37-0.885,1.085-1.291,2.142-1.218l0.591-1.402c-0.715-0.912-0.86-1.82-0.443-2.732
		c0.197-0.418,0.494-0.738,0.888-0.96c0.395-0.173,0.836-0.221,1.329-0.147l0.63-1.33c-0.666-0.984-0.788-1.92-0.37-2.805
		c0.222-0.418,0.542-0.714,0.961-0.887c0.393-0.172,0.836-0.211,1.328-0.112l0.628-1.292c-0.591-0.96-0.651-1.871-0.185-2.731
		c0.221-0.442,0.529-0.727,0.924-0.849c0.417-0.147,0.848-0.147,1.292,0l0.774-1.29c-0.565-1.034-0.59-1.969-0.072-2.808
		c0.245-0.369,0.578-0.614,0.996-0.738c0.395-0.124,0.824-0.097,1.293,0.075l0.812-1.256c-0.245-0.467-0.369-0.961-0.369-1.478
		c0-0.543,0.136-0.984,0.406-1.329c0.246-0.37,0.591-0.604,1.032-0.703c0.395-0.076,0.812-0.012,1.257,0.184l0.812-1.181
		c-0.221-0.491-0.32-0.996-0.296-1.513c0.048-0.542,0.199-0.985,0.444-1.33c0.295-0.37,0.64-0.59,1.033-0.666
		c0.444-0.076,0.875,0.013,1.293,0.257l0.924-1.108c-0.197-0.493-0.271-1.009-0.223-1.55c0.027-0.518,0.186-0.948,0.481-1.293
		c0.27-0.345,0.64-0.53,1.106-0.554c0.418-0.024,0.838,0.085,1.257,0.333l0.848-1.033c-0.369-1.23-0.233-2.177,0.405-2.843
		c0.297-0.319,0.666-0.479,1.108-0.479c0.42-0.025,0.838,0.111,1.256,0.405l0.961-0.996c-0.319-1.206-0.146-2.153,0.517-2.841
		c0.321-0.297,0.688-0.431,1.106-0.406c0.42,0,0.826,0.16,1.22,0.479l0.997-0.924c-0.248-1.205-0.039-2.14,0.627-2.806
		c0.345-0.296,0.714-0.406,1.108-0.333c0.418,0.048,0.823,0.248,1.218,0.591l1.032-0.887c-0.124-0.566-0.112-1.106,0.037-1.623
		c0.123-0.517,0.356-0.9,0.701-1.145c0.346-0.271,0.728-0.37,1.146-0.296c0.417,0.074,0.802,0.283,1.145,0.626l1.069-0.738
		c-0.073-0.591-0.037-1.133,0.112-1.624c0.147-0.516,0.394-0.887,0.738-1.106c0.345-0.247,0.724-0.32,1.145-0.221
		c0.418,0.098,0.8,0.333,1.145,0.703l1.105-0.739c-0.072-0.566-0.012-1.096,0.186-1.586c0.196-0.494,0.467-0.849,0.812-1.069
		c0.271-0.173,0.565-0.234,0.887-0.186c0.049,0,0.111,0.012,0.185,0.037c0.42,0.124,0.79,0.394,1.107,0.812l1.145-0.663
		c-0.048-1.305,0.308-2.167,1.07-2.584c0.345-0.221,0.727-0.248,1.145-0.074c0.394,0.147,0.751,0.43,1.071,0.848l1.143-0.591
		c-0.023-0.566,0.063-1.084,0.258-1.551c0.221-0.491,0.518-0.823,0.887-0.997c0.37-0.196,0.762-0.196,1.182,0
		c0.247,0.124,0.481,0.309,0.702,0.555c0.1,0.099,0.196,0.221,0.297,0.369l1.183-0.479c0.072-1.305,0.504-2.128,1.29-2.475
		c0.37-0.123,0.739-0.085,1.108,0.112c0.369,0.197,0.688,0.528,0.96,0.997l1.218-0.479c0.025-0.566,0.171-1.069,0.442-1.513
		c0.197-0.37,0.442-0.629,0.739-0.776l2.029,0.703c0.073,0.124,0.147,0.257,0.221,0.405l0.518-0.148l1.624,0.591l2.437,15.136
		c-0.541,0.148-0.995,0.27-1.365,0.37l-0.147-0.887l-0.186,0.074l0.186,0.887c-1.035,0.296-2.302,0.715-3.804,1.257l-0.148-0.887
		l-0.185,0.076l0.222,0.887c-0.173,0.024-0.775,0.258-1.811,0.702l7.531,56.188l9.895,11.333l0.63-2.104l0.258,1.55l-0.333,1.108
		l0.626,0.7l0.223,1.478l-1.142-1.293l-0.739,2.694l1.181,0.888l0.811-1.697l0.187,1.182l-0.443,0.96l0.59,0.442
		c0.026,0,0.05,0,0.076,0v0.038c-0.619,0.074-1.222,0.197-1.812,0.37l0.257-0.554l-1.142-0.849l-0.481,1.92
		c-0.295,0.123-0.591,0.271-0.886,0.442l0.811-2.805l-7.235-5.647l1.733,12.734h0.038c-0.218,0.296-0.431,0.591-0.628,0.887v-0.073
		l-1.957-0.075l0.737,2.511c-0.687,1.625-1.142,3.422-1.364,5.39c-0.442,4.309,0.418,8.122,2.584,11.445
		c0.89,1.377,1.896,2.51,3.026,3.396c1.601,1.229,3.433,1.956,5.501,2.178c1.035,0.1,2.044,0.076,3.028-0.073
		c-0.345,0.025-0.701,0.037-1.072,0.037c-3.468,0-6.435-1.438-8.896-4.318c-2.461-2.88-3.69-6.363-3.69-10.448
		s1.229-7.567,3.69-10.445c2.462-2.881,5.429-4.319,8.896-4.319c3.473,0,6.438,1.438,8.899,4.319
		c2.461,2.878,3.69,6.348,3.69,10.409l0.073,0.074l3.357-6.829l-1.772-0.664l-1.658,5.095c0-0.566-0.038-1.133-0.113-1.696
		l1.146-3.619l-2.402-0.924c-0.194-0.466-0.416-0.91-0.662-1.328l-0.665-6.349l-0.258,0.185l-0.146-0.812l0.293-0.186l-0.258-3.137
		l-0.478,0.406l-0.113-0.888l0.479-0.442l-1.438-17.204l-1.292,2.881l-0.187-1.218l1.367-3.028l-1.217-13.477l-1.736,6.019
		l-0.222-1.478l1.812-6.312l-3.435-39.908l-1.623,0.036v-0.922h-0.222l0.039,0.922c-0.836,0.025-2.029,0.112-3.583,0.259
		l-1.511-9.931c0.096-2.955-0.15-5.563-0.739-7.825c0.024,0.023,0.05,0.048,0.074,0.072c0.345,0.272,0.602,0.676,0.776,1.22
		l1.217-0.111c0.345-1.281,0.924-1.957,1.736-2.03c0.368-0.024,0.726,0.124,1.07,0.442c0.317,0.321,0.564,0.763,0.735,1.329
		l1.181-0.072c0.173-0.567,0.419-1.021,0.737-1.367c0.345-0.369,0.702-0.552,1.072-0.552c0.393,0,0.749,0.173,1.068,0.516
		c0.296,0.32,0.506,0.763,0.629,1.329h1.219c0.2-0.542,0.466-0.972,0.811-1.293c0.37-0.32,0.737-0.479,1.109-0.479
		c0.393,0.025,0.737,0.209,1.033,0.554c0.271,0.37,0.443,0.836,0.517,1.402l1.221,0.11c0.516-1.23,1.182-1.796,1.992-1.699
		c0.391,0.026,0.724,0.248,0.995,0.666c0.295,0.369,0.466,0.848,0.52,1.439l1.181,0.147c0.22-0.517,0.516-0.923,0.886-1.218
		c0.371-0.296,0.753-0.42,1.144-0.369c0.395,0.099,0.716,0.345,0.962,0.738c0.243,0.418,0.392,0.912,0.443,1.478l1.217,0.257
		c0.248-0.542,0.567-0.935,0.964-1.181c0.368-0.27,0.749-0.356,1.142-0.257c0.345,0.099,0.638,0.356,0.888,0.775
		c0.22,0.394,0.356,0.887,0.404,1.478l1.146,0.37c0.295-0.516,0.626-0.897,0.995-1.145c0.42-0.246,0.801-0.307,1.144-0.185
		c0.395,0.124,0.689,0.394,0.886,0.812c0.25,0.442,0.36,0.959,0.333,1.55l1.144,0.406c0.295-0.491,0.651-0.836,1.068-1.032
		c0.395-0.222,0.765-0.258,1.109-0.112c0.761,0.296,1.142,1.096,1.142,2.401l1.146,0.479c0.321-0.467,0.678-0.775,1.07-0.923
		c0.391-0.221,0.761-0.248,1.106-0.075c0.37,0.172,0.64,0.479,0.813,0.923c0.172,0.418,0.229,0.934,0.184,1.551l1.108,0.554
		c0.789-0.984,1.538-1.268,2.251-0.848c0.737,0.37,1.033,1.22,0.889,2.547l1.067,0.627c0.371-0.394,0.752-0.651,1.144-0.775
		c0.417-0.17,0.801-0.146,1.144,0.076c0.716,0.442,0.974,1.317,0.775,2.622L322.051,161.825z M289.823,264.305l-2.067-2.584
		l-0.333,0.591c-0.023,0.272-0.048,0.53-0.073,0.775l1.144,2.104L289.823,264.305z M291.928,266.999l-1.991,0.849l5.684,10.486
		l6.13,1.143L291.928,266.999z M288.826,265.854l0.737,1.292l1.883-0.812l-1.182-1.439L288.826,265.854z M288.089,260.943
		l2.327,2.992l10.225-6.757l-9.008-3.434L288.089,260.943z M288.235,266.225l-2.434,1.698c-0.127,0.197-0.233,0.394-0.333,0.591
		h0.111l-0.04,0.37l0.702-0.297v-0.112l0.257-0.036l2.404-0.996L288.235,266.225z M338.738,308.125l-0.628-0.479l2.067-4.1
		l0.666,0.444l0.11-0.258l-0.664-0.406l0.073-0.222l-28.129-11.407l20.083,25.473c0.37-0.494,0.64-0.888,0.811-1.182l0.518,0.591
		l0.148-0.222l-0.554-0.518c1.257-1.968,2.056-3.249,2.4-3.839l0.553,0.515l0.146-0.222l-0.629-0.48
		c0.545-0.887,1.307-2.202,2.291-3.949l0.593,0.479L338.738,308.125z M300.641,347.07l0.11-0.073l-13.732-32.966l0.071,37.359
		l1.661-0.48l0.111,0.924l0.22-0.073l-0.145-0.887c1.056-0.345,2.299-0.764,3.729-1.257l0.146,0.887l0.221-0.075l-0.188-0.884
		c1.357-0.519,2.596-1.033,3.731-1.551l0.221,0.887l0.146-0.073l-0.223-0.849c0.813-0.369,2.034-0.96,3.657-1.773L300.641,347.07z
		 M281.443,298.858l4.949,11.776l-0.075-13.51l-3.802-6.09L281.443,298.858z M286.393,312.48l-5.131-12.295l-7.421,53.492
		c0.981-0.048,1.956-0.136,2.92-0.257l-0.042,0.923h0.22l-0.035-0.96c0.982-0.074,2.275-0.246,3.876-0.516l0.036,0.924l0.222-0.075
		l-0.075-0.887c1.554-0.297,2.818-0.566,3.804-0.812l0.073,0.923l0.222-0.073l-0.146-0.887l1.514-0.405L286.393,312.48z
		 M286.983,298.156v14.104l14.065,33.557l3.063-1.662l0.296,0.848l0.187-0.147l-0.298-0.813c0.345-0.196,1.513-0.936,3.508-2.214
		l0.333,0.812l0.187-0.108l-0.373-0.813c1.38-0.911,2.512-1.723,3.397-2.438l0.37,0.812l0.185-0.146l-0.404-0.738l0.662-0.517
		L286.983,298.156z M310.865,291.142l-10.742-4.43l22.778,42.196l1.734-1.771l0.443,0.663l0.146-0.222l-0.479-0.592
		c0.813-0.934,1.748-2.068,2.807-3.396l0.551,0.665l0.113-0.221l-0.518-0.628c0.345-0.394,1.257-1.563,2.731-3.507l0.519,0.627
		l0.147-0.221l-0.556-0.591l1.332-1.919L310.865,291.142z M299.089,286.307l-12.146-4.948l0.04,15.506l25.765,41.382l2.104-1.66
		l0.406,0.738l0.148-0.108l-0.408-0.775l3.251-2.808l0.368,0.703l0.187-0.148l-0.444-0.7c1.38-1.281,2.412-2.277,3.1-2.991
		l0.444,0.666l0.187-0.149l-0.479-0.701l0.774-0.813L299.089,286.307z M286.87,269.141l0.073,7.681l7.753,1.365l-5.426-10.079
		L286.87,269.141z M296.1,279.256l3.433,6.348l10.373,4.282l-7.455-9.485L296.1,279.256z M276.938,282.097l-1.55,2.251l5.538,13.291
		l1.034-7.492L276.938,282.097z M279.523,278.332l-2.105,3.139l4.728,7.604l1.254-9.154L279.523,278.332z M275.758,280.179
		l-1.479,1.587l0.776,1.846l1.479-2.141L275.758,280.179z M272.769,275.489h-0.222l-0.997-0.185l2.438,5.76l1.368-1.478
		L272.769,275.489z M278.896,278.072l-0.848-0.331l-1.812,1.921l0.737,1.181L278.896,278.072z M286.279,277.445l-1.845-0.333
		l-0.296,2.251l2.143,0.888v-2.806H286.279z M286.242,281.103l-2.252-0.924l-1.367,9.745l3.694,5.908L286.242,281.103z
		 M286.907,277.594v2.918l11.591,4.688l-3.284-6.09L286.907,277.594z M283.511,279.108l0.258-2.105l-8.784-1.514l-1.33,0.036
		l2.216,3.509l1.552-1.589l-2.767-1.106l0.258-0.738l3.1,1.254l0.369-0.442l0.408,0.593l-0.148,0.146L283.511,279.108z
		 M287.13,264.193c-0.198,0.838-0.444,1.649-0.737,2.437l1.51-1.069L287.13,264.193z M284.728,270.064l-0.444,0.185
		c-0.146,0.172-0.295,0.345-0.439,0.517c-1.727,2.019-3.706,3.335-5.948,3.95c-0.27,0.1-0.549,0.196-0.848,0.297l6.827,1.253
		L284.728,270.064z M286.242,269.398l-0.849,0.37l-0.888,6.607l1.771,0.296L286.242,269.398z M290.892,264.489l1.256,1.55
		l15.139-6.422l-5.76-2.179L290.892,264.489z M49.125,296.052l-0.258,0.59l0.112,0.112l0.257-0.629l2.068,1.478l-0.258,0.59
		l0.109,0.037l0.257-0.552l2.142,1.29l-0.258,0.627l0.148,0.039l0.185-0.591l0.848,0.479l6.387-25.141l-13.697,20.045
		L49.125,296.052z M87.964,300.186l0.109-0.073l-7.271-24.254l-1.402,26.84l1.072-0.257v0.626l0.111-0.037l-0.076-0.626
		c0.691-0.174,1.502-0.431,2.438-0.776l0.037,0.666l0.147-0.075l-0.111-0.591l2.401-0.923l0.111,0.627l0.11-0.072l-0.073-0.627
		c0.862-0.347,1.611-0.703,2.25-1.072L87.964,300.186z M77.516,264.82l-3.138-10.337L67.18,265.08l-4.761,37.582l0.516,0.108
		l-0.11,0.666l0.11,0.037l0.111-0.666l2.364,0.481l-0.111,0.665h0.111l0.11-0.629c1.057,0.148,1.832,0.233,2.326,0.257l-0.075,0.701
		h0.148l0.037-0.664c0.835,0.073,1.635,0.112,2.398,0.112l-0.037,0.702h0.112l0.037-0.666l0.184-0.036L77.516,264.82z
		 M66.701,265.816l-5.169,7.567l-6.681,26.323l0.959,0.479l-0.221,0.629l0.112,0.073l0.184-0.665l2.25,1.034l-0.184,0.627
		l0.147,0.039l0.148-0.666c0.96,0.395,1.724,0.676,2.29,0.85l-0.148,0.662H60.5l0.149-0.627l1.365,0.37L66.701,265.816z
		 M80.468,274.678l-2.731-9.007l-6.645,38.061h1.811l-0.037,0.664l0.111-0.037l0.037-0.666l2.399-0.221v0.666l0.112-0.039v-0.664
		l2.437-0.369v0.627l0.146-0.036l-0.037-0.628l0.959-0.221L80.468,274.678z M81.392,264.489l-0.518,10.041l7.384,24.809l2.029-1.107
		l0.111,0.627l0.148-0.111l-0.185-0.591l2.288-1.439l0.147,0.593l0.112-0.075l-0.148-0.591c0.761-0.467,1.487-0.995,2.178-1.586
		l0.221,0.554l0.11-0.073l-0.222-0.518l0.443-0.333L81.392,264.489z M66.81,264.859l0.739-5.722l-3.323,3.58l-2.398,9.415
		L66.81,264.859z M80.505,273.423l0.519-9.708l-2.18-4.577l-0.96,5.574L80.505,273.423z M41.3,288.226l-0.333,0.519l0.112,0.11
		l0.296-0.517c0.517,0.639,1.096,1.316,1.735,2.029l-0.333,0.554l0.112,0.112l0.333-0.519l1.844,1.921l-0.331,0.554l0.11,0.111
		l0.296-0.555l1.735,1.588l14.288-21.005l2.472-9.82l-22.815,24.29L41.3,288.226z M36.058,281.434l0.37-0.481l1.439,2.438
		l-0.333,0.518l0.037,0.112l0.405-0.482c0.691,1.058,1.22,1.848,1.588,2.365l-0.37,0.479l0.073,0.11l0.333-0.479l0.923,1.22
		l23.331-24.845l3.434-13.658l-9.785,2.475L35.98,280.146l0.37,0.7l-0.37,0.444L36.058,281.434z M57.359,250.681l3.028-4.134
		l-3.987,0.036l-5.943,5.833L57.359,250.681z M57.396,232.262l4.172-0.519l-2.917-3.803l-7.125-0.775L57.396,232.262z
		 M64.225,238.278l1.367-1.329l-3.619-4.688l-4.024,0.516L64.225,238.278z M85.157,240.456l0.703,1.181l9.672-3.948l-3.509-1.848
		L85.157,240.456z M87.779,251.271l1.92,4.727l6.274,3.507l-4.245-7.126L87.779,251.271z M87.519,250.608l3.765,1.069l-5.611-9.413
		l-1.254,0.515L87.519,250.608z M81.649,252.194l-1.438-0.774l-1.217,6.901l2.104,4.395L81.649,252.194z M82.168,249.687
		l-0.11,2.104l7.014,3.876l-1.847-4.54L82.168,249.687z M80.617,249.241l-0.296,1.59l1.329,0.738l0.112-2.029L80.617,249.241z
		 M82.056,243.778l-0.517,0.185l-0.848,4.727l1.108,0.297L82.056,243.778z M83.976,242.967l-1.513,0.629l-0.296,5.539l4.799,1.329
		L83.976,242.967z M81.059,244.148l-0.887,0.369c-1.156,1.477-2.522,2.437-4.098,2.88l4.208,1.182L81.059,244.148z M81.649,243.076
		v0.259l0.443-0.149l-0.037-0.111h0.221l1.514-0.628l-0.37-0.848l-2.141,1.403L81.649,243.076z M80.765,243.703l0.443-0.185
		l0.037-0.515l-0.073,0.072L80.765,243.703z M83.239,241.12l-0.591-1.439c-0.321,1.082-0.627,1.896-0.923,2.438L83.239,241.12z
		 M83.83,241.377l0.37,0.924l1.183-0.517l-0.629-1.034L83.83,241.377z M83.276,238.315l-0.37,0.774l0.703,1.772l0.848-0.554
		L83.276,238.315z M67.438,248.134l0.443-1.698l-6.941,0.11l-2.916,3.987L67.438,248.134z M69.43,247.618l2.399-0.59l-0.923-0.555
		H69.54L69.43,247.618z M77.553,249.907l-1.478,2.142l2.622,5.647l1.145-6.462L77.553,249.907z M74.527,253.523l1.032-1.477
		l-0.442-0.997l-0.997,1.069L74.527,253.523z M75.781,252.491l-1.109,1.551l2.992,9.783l0.923-5.353L75.781,252.491z M74.194,253.93
		l-0.442-1.438l-5.759,6.165l-0.665,5.464L74.194,253.93z M73.27,247.507c-0.172-0.024-0.356-0.086-0.552-0.185l1.254,4.282
		l0.924-0.996l-1.478-3.065L73.27,247.507z M71.978,247.064l0.074,0.442l-2.731,0.7l-1.181,9.636l5.463-5.871l-1.402-4.8
		L71.978,247.064z M77.146,249.687l-0.479-0.296l-1.22,1.328l0.405,0.849L77.146,249.687z M77.146,248.908l-0.11,0.076l2.917,1.659
		l0.258-1.513l-5.427-1.515h-0.812l1.256,2.622l1.033-1.069l-1.662-0.923l0.147-0.519l1.884,1.033l0.296-0.333L77.146,248.908z
		 M68.915,248.318l-1.184,0.296l-3.285,13.144l3.174-3.397L68.915,248.318z M67.991,245.883l0.591-2.178
		c-0.221-0.368-0.454-0.872-0.702-1.514l-2.215-1.957l-4.282,5.723L67.991,245.883z M69.136,246.438h-0.848l-0.405,1.586
		l1.108-0.296L69.136,246.438z M69.691,245.366l-0.037,0.515h0.554L69.691,245.366z M69.246,245.883l0.112-0.96l-0.519-0.738
		l-0.442,1.735L69.246,245.883z M65.666,239.497l0.96-1.257l-0.703-0.924l-1.329,1.33L65.666,239.497z M65.297,239.938l-1.109-0.924
		l-7.198,6.978l3.84-0.035L65.297,239.938z M67.549,241.195c-0.197-0.764-0.333-1.524-0.406-2.289l-0.221-0.297l-0.923,1.22
		L67.549,241.195z M67.141,235.436l0.112-0.812c0.124-0.937,0.406-1.98,0.848-3.139l-5.5,0.703l3.36,4.392L67.141,235.436z
		 M67.032,237.649c-0.025-0.467,0-0.96,0.074-1.478l-0.848,0.775l0.666,0.887L67.032,237.649z M67.991,230.896l-0.407-1.993
		l-8.232-0.887l2.805,3.655L67.991,230.896z M68.064,228.976l0.296,1.811c0.197-0.443,0.492-0.985,0.887-1.624l-0.039-0.075
		L68.064,228.976z M72.753,225.727l0.627-2.029l-4.282-4.355l0.515,9.19h0.039C70.539,227.301,71.572,226.365,72.753,225.727z
		 M74.933,224.545l0.332,0.333l1.403,0.037l-1.109-1.772L74.933,224.545z M73.27,225.43l0.924-0.333l0.148-0.369l-0.627-0.702
		L73.27,225.43z M75.263,222.734l-0.775-1.181l-0.59,1.884l0.701,0.774L75.263,222.734z M86.266,232.297l5.757,2.992l3.655-2.437
		l-8.639-2.105L86.266,232.297z M91.471,235.62l-5.464-2.843l-2.474,5.02l1.329,2.215L91.471,235.62z M82.61,229.085l2.287,0.518
		l2.438-7.052l-4.8,2.73L82.61,229.085z M84.161,231.855l-1.439-0.739c0.296,1.033,0.467,2.142,0.518,3.322L84.161,231.855z
		 M85.157,230.266l-0.442,1.22l1.145,0.628l0.738-1.515L85.157,230.266z M85.602,232.592l-1.034-0.554l-1.292,3.728l-0.11,1.403
		l0.073,0.185L85.602,232.592z M82.646,229.675v0.776l1.697,0.849l0.37-1.143L82.646,229.675z M78.179,225.32l2.365-2.029
		l-1.256-8.344l-3.507,7.644l1.623,2.472L78.179,225.32z M82.464,222.293l0.072,2.364l5.058-2.844l1.884-5.464L82.464,222.293z
		 M80.987,223.585l0.296,1.811l0.848-0.48l-0.037-2.287L80.987,223.585z M82.131,225.505l-0.776,0.481l0.406,2.805l0.37,0.775
		l0.075,0.221l0.036-0.221h-0.111l0.075-0.554L82.131,225.505z M78.661,225.579c0.444,0.27,0.787,0.505,1.034,0.701l1.218-0.666
		l-0.296-1.696L78.661,225.579z M80.136,226.687c0.32,0.296,0.678,0.688,1.071,1.182l-0.221-1.663L80.136,226.687z M91.804,220.042
		l-3.876,2.214l-2.583,7.495l1.514,0.333L91.804,220.042z M99.814,291.732l-0.258-0.554l2.068-1.993l0.221,0.479l0.112-0.073
		l-0.257-0.481l0.479-0.59l-12.771-32.044l-7.383-4.061l-0.593,11.113l14.397,30.862l1.402-1.145l0.184,0.591l0.149-0.112
		l-0.26-0.518l2.141-1.919l0.257,0.554L99.814,291.732z M107.972,282.282l-0.333-0.443l0.924-1.292l-11.999-20.084l-6.532-3.655
		l12.477,31.344l1.143-1.22l0.296,0.518l0.075-0.149l-0.296-0.479l1.919-2.325l0.296,0.479l0.112-0.111l-0.296-0.479l1.808-2.437
		l0.333,0.48L107.972,282.282z M114.247,270.69l0.406,0.333l0.073-0.184l-0.406-0.297l0.073-0.147l-17.02-9.488l11.481,19.158
		l0.517-0.738l0.333,0.405l0.073-0.147l-0.333-0.406l1.66-2.622l0.333,0.406l0.074-0.186l-0.333-0.369
		c0.246-0.418,0.763-1.342,1.551-2.769l0.369,0.406l0.073-0.184l-0.37-0.37L114.247,270.69z M117.054,264.269l1.108-3.139
		l0.442,0.258l0.037-0.185l-0.406-0.221l0.333-0.997l-26.21-7.419l4.43,7.383l17.831,9.93l1.072-2.325l0.369,0.333l0.112-0.185
		l-0.406-0.296l1.256-2.99l0.406,0.296l0.037-0.184L117.054,264.269z M121.04,250.868v-0.076l-24.881-12.771l-10.042,4.097
		l5.87,9.745l26.726,7.568l0.517-1.587l0.406,0.222l0.075-0.185l-0.445-0.222c0.567-1.92,0.875-2.991,0.924-3.213l0.406,0.186
		l0.072-0.186l-0.442-0.147l0.812-3.286l0.406,0.148l0.074-0.148l-0.184-0.075L121.04,250.868z M103.063,234.624L96.307,233
		l-3.765,2.547l3.655,1.847L103.063,234.624z M123.22,240.565v-0.184h-0.482l0.112-0.997l-18.939-4.542l-7.089,2.88l24.366,12.514
		l0.554-2.695l0.442,0.112l0.037-0.186l-0.479-0.072l0.552-3.322l0.479,0.073v-0.186l-0.479-0.037
		c0.124-0.763,0.27-1.895,0.442-3.395L123.22,240.565z M123.774,229.675l-0.481,0.112l-0.072-2.843l-18.349,7.494l18.052,4.431
		l0.147-1.845h0.443l0.039-0.185l-0.48,0.037l0.186-3.432l0.442-0.037l0.037-0.186l-0.515,0.073l0.072-3.358l0.481-0.036v-0.227
		H123.774z M31.96,272.685l0.039,0.185l0.406-0.37c0.099,0.222,0.492,1.17,1.181,2.844l-0.406,0.369l0.037,0.11l0.405-0.37
		l1.293,2.659l-0.406,0.406l0.112,0.185l0.37-0.442l0.775,1.438l21.042-28.315l-7.163,1.811l-17.904,17.462l0.629,1.698
		L31.96,272.685z M28.49,258.508l0.185,1.22l-0.405,0.222v0.185l0.48-0.221l0.664,3.064l-0.406,0.258l0.039,0.184l0.443-0.258
		c0.196,0.813,0.479,1.834,0.848,3.065l-0.445,0.296v0.148l0.445-0.297l0.924,2.917l-0.406,0.333l0.075,0.185l0.37-0.333
		l0.296,0.702l17.128-16.761L28.49,258.508z M27.272,249.647c0.075,1.084,0.186,2.192,0.333,3.322l-0.444,0.186v0.147l0.48-0.185
		l0.443,3.249l-0.443,0.185l0.037,0.185l0.444-0.221l0.258,1.478l21.154-5.354l6.203-6.055l-28.648,0.333l0.184,2.583l-0.479,0.148
		v0.185L27.272,249.647z M26.572,239.015v0.186l0.479-0.038l-0.037,3.359l-0.481,0.037v0.186l0.481-0.075
		c0,1.133,0.024,2.264,0.073,3.396l-0.479,0.073l0.036,0.185l0.406-0.111l0.037,0.148l29.202-0.37l7.568-7.346l-6.608-5.796
		l-30.05,3.912c-0.025,0.491-0.062,1.241-0.112,2.25h-0.516V239.015z M28.122,224.803v0.186l0.443,0.11l-0.552,3.359l-0.443-0.075
		l-0.074,0.185l0.479,0.039l-0.406,3.359l-0.48-0.076v0.185l0.442,0.039l-0.258,3.359l-0.479-0.037l-0.037,0.221l0.479-0.036v0.554
		l29.423-3.84l-6.054-5.242l-21.928-2.399l-0.075,0.259L28.122,224.803z M30.595,214.431l-0.037,0.184L31,214.8l-0.922,3.25
		l-0.406-0.186l-0.037,0.148l0.407,0.185c-0.271,1.107-0.516,2.214-0.739,3.322l-0.479-0.222v0.222l0.442,0.074l-0.515,2.512
		l21.079,2.289l-17.572-15.433l-0.147,0.37l-0.406-0.259l-0.073,0.186l0.443,0.184l-1.034,3.213L30.595,214.431z M92.209,219.155
		l4.431-8.861l-6.571,5.5l-1.847,5.686L92.209,219.155z M122.702,215.906l-0.037-0.186l-0.48,0.222v-0.111L97.009,232.59
		l6.939,1.663l19.75-8.086v-0.036l-0.515,0.108c-0.025-1.032-0.087-2.14-0.186-3.321l0.479-0.075v-0.221l-0.479,0.147l-0.369-3.322
		l0.516-0.111l-0.037-0.222l-0.443,0.185l-0.444-3.213L122.702,215.906z M120.855,209.334l-0.848-3.064l0.444-0.296l-0.075-0.148
		l-0.405,0.296l-0.59-1.808l-26.877,15.32l-5.242,10.56l9.045,2.214l25.769-17.165l-0.482-2.511l0.482-0.222l-0.039-0.147
		l-0.443,0.221l-0.738-3.137l0.481-0.222l-0.039-0.185L120.855,209.334z M117.866,199.959l-1.145-2.77l0.442-0.369l-0.111-0.147
		l-0.37,0.406l-1.291-2.732l0.406-0.369l-18.349,15.578l-4.503,9.191l26.283-14.951l-0.184-0.663l0.442-0.297l-0.074-0.148
		l-0.443,0.333c-0.393-1.156-0.751-2.129-1.071-2.916l0.442-0.37l-0.074-0.147L117.866,199.959z M110.777,186.595l0.333-0.48
		l-0.074-0.147l-0.332,0.515l-1.109-1.478l-11.517,23.37l17.055-14.546l-1.181-2.178l0.37-0.442l-0.075-0.148l-0.369,0.479
		c-0.172-0.319-0.664-1.156-1.478-2.51l0.369-0.442l-0.111-0.112l-0.333,0.442L110.777,186.595z M103.172,178.066l-0.111-0.11
		l-12.625,36.953l6.72-5.796l12.108-24.515l-0.259-0.333l0.37-0.515l-0.111-0.111l-0.333,0.515l-1.733-2.105l0.296-0.517
		l-0.075-0.073l-0.333,0.517c-0.788-0.887-1.39-1.538-1.809-1.956l0.294-0.554l-0.109-0.112l-0.296,0.593
		c-0.519-0.542-1.158-1.145-1.92-1.811l0.257-0.554l-0.072-0.109L103.172,178.066z M99.148,174.19l-0.221,0.627l-0.812-0.515
		L82.24,208.707l0.222,12.922l7.309-6.202l12.958-37.765l-1.587-1.256l0.296-0.554l-0.111-0.072l-0.258,0.591
		c-0.887-0.691-1.563-1.182-2.029-1.478l0.221-0.629L99.148,174.19z M79.178,214.246l-0.775-5.315l-3.729,12.034l0.849,1.257
		L79.178,214.246z M81.798,209.558l-2.178,4.763l1.293,8.639l1.181-0.997L81.798,209.558z M79.509,213.507l2.289-4.948l-0.221-9.672
		l-2.842,9.118L79.509,213.507z M68.619,218.861l-3.137-3.25l2.474,12.737l1.253,0.148L68.619,218.861z M65.297,214.651l3.285,3.396
		l-0.333-5.758l-4.763-7.088L65.297,214.651z M68.694,212.953l0.333,5.538l4.505,4.615l0.627-1.993L68.694,212.953z M34.177,204.721
		l0.405,0.333c-0.566,1.257-0.984,2.266-1.257,3.028l-0.405-0.257l-0.075,0.184l0.443,0.222l-0.849,2.178l18.349,16.095l7.383,0.776
		L37.02,199.887l-0.96,1.957l-0.406-0.333l-0.073,0.109l0.405,0.37l-1.365,2.916l-0.405-0.333L34.177,204.721z M38.864,195.566
		l-0.074,0.147l0.333,0.37l-1.551,2.732l-0.369-0.37l-0.076,0.147l0.37,0.37l-0.184,0.441l21.559,27.984l8.603,0.924l-2.547-13.252
		l-22.961-23.479l-1.072,1.587l-0.296-0.442l-0.109,0.147l0.331,0.406l-1.661,2.694L38.864,195.566z M48.426,182.793l-0.075,0.111
		l0.258,0.515l-1.993,2.142l-0.221-0.515l-0.112,0.146l0.257,0.481c-0.836,1.009-1.463,1.784-1.884,2.326l-0.257-0.518l-0.148,0.148
		l0.333,0.481c-0.691,0.836-1.293,1.636-1.811,2.399l-0.333-0.442l-0.112,0.148l0.333,0.406l-0.333,0.479L64.7,214.136l-1.847-9.854
		L48.75,183.274l-0.037,0.039L48.426,182.793z M55.146,176.812l-0.112,0.112l0.184,0.554l-2.14,1.735l-0.222-0.593l-0.111,0.112
		l0.221,0.554c-0.96,0.812-1.662,1.451-2.104,1.919l-0.221-0.554l-0.112,0.075l0.222,0.554l-1.663,1.623l13.513,20.12l-5.206-27.059
		c-0.639,0.394-1.342,0.875-2.105,1.438L55.146,176.812z M92.246,170.5l-0.185,0.664l-1.589-0.555l-8.492,27.06l0.221,10.078
		l15.542-33.668l-0.96-0.59l0.222-0.627l-0.112-0.075l-0.221,0.629l-2.178-1.181l0.186-0.591l-0.11-0.075l-0.185,0.627l-2.215-0.997
		l0.186-0.626L92.246,170.5z M87.519,169.06l-0.146-0.039l-0.076,0.629l-1.218-0.258c-0.542-0.124-0.936-0.197-1.183-0.222
		l0.112-0.665H84.86l-0.036,0.626l-2.399-0.295l0.073-0.627h-0.111l-0.075,0.627l-0.923-0.074l0.59,27.577l8.085-25.878
		l-0.258-0.073l0.112-0.666l-0.112-0.072l-0.111,0.663l-2.326-0.663L87.519,169.06z M64.669,171.237l0.109,0.59l-2.362,1.145
		l-0.112-0.665l-0.112,0.074l0.112,0.627l-2.25,1.218l-0.185-0.591l-0.111,0.039l0.185,0.627c-0.442,0.246-1.157,0.702-2.142,1.366
		l5.464,28.279l4.873,7.311l-2.438-39.76l-0.812,0.296l-0.075-0.626L64.669,171.237z M72.347,168.765h-0.109l0.037,0.7
		c-1.084,0.222-1.884,0.418-2.401,0.591l-0.075-0.663h-0.146l0.072,0.702c-0.86,0.221-1.637,0.467-2.326,0.739l-0.109-0.627h-0.112
		l0.075,0.664l-1.106,0.442l2.51,40.683l5.721,8.564l3.914-12.589l-5.648-38.578l-0.258,0.037L72.347,168.765z M74.896,168.32
		h-0.112v0.701l-1.698,0.296l5.463,37.803l3.026-9.561l-0.59-28.794l-1.07-0.039l0.075-0.627h-0.147l-0.037,0.627l-2.401,0.039
		l0.037-0.666l-0.148,0.037v0.666c-0.86,0.024-1.66,0.097-2.398,0.221v-0.703H74.896z M84.012,156.949
		c0.345-0.86,0.776-1.267,1.293-1.217c0.494,0.074,0.802,0.566,0.924,1.477l0.738,0.185c0.148-0.418,0.333-0.724,0.554-0.923
		c0.248-0.197,0.494-0.27,0.739-0.221c0.493,0.097,0.775,0.614,0.848,1.55l0.702,0.186c0.395-0.838,0.838-1.193,1.33-1.071
		c0.517,0.196,0.787,0.75,0.812,1.662l0.701,0.221c0.444-0.788,0.898-1.096,1.365-0.924c0.542,0.173,0.8,0.725,0.775,1.661
		l0.703,0.295c0.172-0.343,0.382-0.591,0.627-0.738c0.248-0.172,0.492-0.197,0.738-0.074c0.467,0.221,0.676,0.788,0.627,1.697
		l0.703,0.406c0.516-0.738,0.996-0.997,1.439-0.775c0.442,0.221,0.639,0.823,0.591,1.808l0.702,0.406
		c0.221-0.343,0.457-0.566,0.702-0.666c0.248-0.124,0.469-0.124,0.666,0c0.442,0.296,0.615,0.912,0.516,1.847l0.701,0.442
		c0.248-0.296,0.494-0.491,0.739-0.589c0.272-0.098,0.505-0.074,0.702,0.074c0.443,0.321,0.591,0.934,0.443,1.845l0.666,0.517
		c0.541-0.639,1.021-0.775,1.439-0.405c0.418,0.32,0.542,0.959,0.369,1.919l0.627,0.554c0.542-0.566,1.021-0.664,1.439-0.296
		c0.418,0.37,0.53,1.009,0.333,1.919l0.554,0.629c0.615-0.566,1.106-0.639,1.478-0.221c0.395,0.394,0.467,1.045,0.221,1.956
		l0.591,0.629c0.591-0.493,1.072-0.529,1.439-0.111c0.37,0.466,0.418,1.145,0.148,2.029l0.515,0.702
		c0.618-0.467,1.108-0.467,1.478,0s0.394,1.145,0.076,2.029l0.517,0.739c0.615-0.443,1.096-0.406,1.439,0.111
		c0.345,0.492,0.345,1.158,0,1.993l0.481,0.776c0.614-0.42,1.095-0.345,1.439,0.221c0.318,0.566,0.283,1.257-0.112,2.068l0.48,0.812
		c0.664-0.345,1.143-0.233,1.439,0.333c0.294,0.566,0.234,1.229-0.185,1.993l0.442,0.848c0.64-0.27,1.109-0.124,1.403,0.443
		c0.27,0.614,0.185,1.304-0.259,2.068l0.407,0.849c0.272-0.124,0.544-0.137,0.812-0.037c0.248,0.098,0.43,0.281,0.554,0.552
		c0.222,0.591,0.112,1.269-0.333,2.029l0.333,0.924c0.689-0.222,1.145-0.013,1.367,0.628c0.221,0.59,0.099,1.268-0.37,2.029
		l0.333,0.922c0.639-0.123,1.071,0.124,1.292,0.739c0.197,0.64,0.05,1.306-0.442,1.993l0.258,0.924
		c0.666-0.073,1.096,0.211,1.293,0.848c0.172,0.69,0,1.354-0.518,1.993l0.257,0.997c0.296-0.024,0.555,0.035,0.776,0.185
		c0.221,0.172,0.37,0.418,0.442,0.738c0.124,0.64-0.073,1.281-0.591,1.92l0.186,1.033c0.663-0.024,1.057,0.309,1.181,0.996
		c0.123,0.69-0.098,1.317-0.664,1.883l0.147,1.072c0.691,0.024,1.07,0.382,1.145,1.069c0.1,0.688-0.136,1.306-0.702,1.846
		l0.111,1.032c0.664,0.124,1.033,0.53,1.109,1.22c0.072,0.738-0.186,1.342-0.776,1.809l0.075,1.071
		c0.639,0.124,0.984,0.542,1.034,1.255c0.072,0.689-0.211,1.28-0.85,1.773l0.037,1.069c0.639,0.172,0.985,0.639,1.036,1.402
		c0,0.666-0.308,1.22-0.923,1.661l-0.039,1.07c0.641,0.247,0.962,0.727,0.962,1.439c0,0.712-0.333,1.269-0.999,1.661v1.033
		c0.59,0.296,0.875,0.8,0.848,1.514c-0.024,0.739-0.369,1.269-1.033,1.588l-0.073,1.069c0.615,0.345,0.887,0.875,0.812,1.587
		c-0.024,0.715-0.394,1.205-1.106,1.478l-0.111,1.071c0.639,0.419,0.899,0.973,0.775,1.66c-0.097,0.763-0.494,1.242-1.181,1.438
		l-0.149,1.034c0.616,0.417,0.85,0.996,0.703,1.735c-0.124,0.738-0.515,1.181-1.181,1.328l-0.184,1.069
		c0.565,0.467,0.761,1.06,0.59,1.774c-0.148,0.714-0.552,1.132-1.218,1.254l-0.223,1.033c0.566,0.518,0.752,1.132,0.554,1.847
		c-0.17,0.715-0.591,1.108-1.254,1.182l-0.296,1.032c0.517,0.542,0.676,1.157,0.479,1.847c-0.221,0.715-0.663,1.085-1.329,1.108
		l-0.296,0.997c0.493,0.593,0.627,1.231,0.405,1.919c-0.221,0.664-0.665,0.997-1.329,0.997l-0.333,0.996
		c0.418,0.64,0.518,1.279,0.296,1.918c-0.221,0.666-0.678,0.96-1.366,0.888l-0.37,1.032c0.445,0.664,0.53,1.317,0.26,1.957
		c-0.271,0.64-0.726,0.886-1.365,0.738l-0.407,0.996c0.37,0.64,0.431,1.318,0.186,2.029c-0.296,0.641-0.761,0.861-1.402,0.666
		l-0.479,0.96c0.395,0.715,0.43,1.379,0.11,1.993c-0.37,0.591-0.848,0.788-1.439,0.591l-0.481,0.923
		c0.346,0.764,0.358,1.43,0.037,1.993c-0.343,0.615-0.823,0.775-1.439,0.48l-0.554,0.887c0.345,0.764,0.333,1.439-0.037,2.03
		c-0.369,0.564-0.848,0.7-1.439,0.406l-0.59,0.812c0.321,0.812,0.296,1.502-0.073,2.067c-0.37,0.543-0.863,0.64-1.478,0.297
		l-0.554,0.774c0.245,0.839,0.184,1.503-0.186,1.994c-0.393,0.541-0.887,0.603-1.477,0.185l-0.591,0.774
		c0.222,0.839,0.122,1.526-0.296,2.068c-0.418,0.491-0.911,0.506-1.478,0.037l-0.626,0.739c0.221,0.835,0.111,1.501-0.333,1.992
		c-0.445,0.467-0.924,0.442-1.439-0.075l-0.627,0.702c0.146,0.911,0,1.575-0.445,1.993c-0.418,0.467-0.897,0.417-1.439-0.148
		l-0.663,0.627c0.123,0.936-0.049,1.602-0.518,1.993c-0.442,0.394-0.911,0.296-1.402-0.296l-0.699,0.59
		c0.097,0.934-0.098,1.588-0.591,1.956c-0.443,0.37-0.9,0.258-1.367-0.333l-0.699,0.517c0.072,0.911-0.137,1.538-0.627,1.883
		c-0.469,0.37-0.948,0.221-1.441-0.441l-0.664,0.48c0.025,0.934-0.221,1.551-0.738,1.847c-0.516,0.32-0.96,0.122-1.33-0.593
		l-0.738,0.444c0,0.985-0.246,1.6-0.739,1.845c-0.516,0.297-0.972,0.073-1.366-0.666l-0.738,0.37
		c-0.049,0.96-0.321,1.551-0.813,1.771c-0.515,0.248-0.972-0.013-1.366-0.775l-0.738,0.333c-0.098,0.936-0.395,1.514-0.887,1.735
		c-0.518,0.196-0.937-0.098-1.256-0.888l-0.739,0.297c-0.146,0.911-0.479,1.453-0.996,1.624c-0.515,0.124-0.912-0.209-1.181-0.997
		l-0.775,0.221c-0.171,0.935-0.516,1.466-1.034,1.588c-0.542,0.099-0.911-0.246-1.108-1.033l-0.812,0.148
		c-0.17,0.911-0.53,1.414-1.07,1.514c-0.492,0.1-0.874-0.271-1.145-1.107l-0.738,0.074c-0.271,0.912-0.652,1.391-1.145,1.438
		c-0.515,0.049-0.873-0.368-1.07-1.253l-0.738,0.072c-0.27,0.887-0.664,1.342-1.182,1.366c-0.491,0.023-0.848-0.418-1.069-1.33
		h-0.739c-0.294,0.861-0.702,1.294-1.217,1.294c-0.518-0.025-0.838-0.494-0.962-1.402l-0.776-0.075
		c-0.318,0.887-0.727,1.278-1.217,1.181c-0.248-0.024-0.457-0.172-0.629-0.442c-0.17-0.297-0.271-0.64-0.294-1.033l-0.776-0.111
		c-0.345,0.86-0.763,1.242-1.253,1.145c-0.518-0.124-0.812-0.653-0.887-1.587l-0.739-0.148c-0.393,0.838-0.823,1.169-1.292,0.997
		c-0.517-0.124-0.79-0.664-0.812-1.626l-0.739-0.222c-0.394,0.813-0.848,1.133-1.366,0.96c-0.494-0.197-0.726-0.774-0.703-1.732
		l-0.702-0.258c-0.466,0.763-0.934,1.032-1.403,0.812c-0.467-0.197-0.688-0.775-0.663-1.735l-0.703-0.333
		c-0.442,0.739-0.899,0.985-1.366,0.739c-0.493-0.248-0.69-0.838-0.59-1.773l-0.739-0.37c-0.493,0.688-0.972,0.873-1.441,0.552
		c-0.442-0.245-0.614-0.836-0.515-1.771l-0.627-0.48c-0.517,0.689-0.984,0.86-1.402,0.518c-0.467-0.321-0.627-0.947-0.479-1.884
		l-0.666-0.48c-0.542,0.617-1.021,0.751-1.438,0.406c-0.418-0.37-0.542-0.997-0.37-1.884l-0.627-0.555
		c-0.591,0.591-1.06,0.69-1.402,0.297c-0.442-0.394-0.554-1.048-0.333-1.956l-0.59-0.591c-0.566,0.542-1.058,0.614-1.478,0.221
		c-0.417-0.441-0.493-1.105-0.221-1.993l-0.59-0.663c-0.591,0.54-1.071,0.578-1.439,0.109c-0.394-0.467-0.442-1.133-0.148-1.992
		l-0.59-0.664c-0.567,0.441-1.036,0.43-1.402-0.037c-0.346-0.492-0.37-1.156-0.073-1.992l-0.517-0.739
		c-0.271,0.196-0.542,0.295-0.813,0.295c-0.27-0.024-0.48-0.16-0.628-0.406c-0.37-0.493-0.382-1.182-0.037-2.068l-0.48-0.738
		c-0.614,0.369-1.096,0.296-1.438-0.222c-0.32-0.492-0.296-1.182,0.073-2.068l-0.442-0.738c-0.616,0.321-1.07,0.197-1.367-0.369
		c-0.296-0.544-0.248-1.23,0.148-2.068l-0.406-0.812c-0.296,0.148-0.565,0.186-0.812,0.111c-0.271-0.1-0.467-0.272-0.592-0.517
		c-0.294-0.615-0.221-1.306,0.221-2.068l-0.405-0.887c-0.664,0.245-1.119,0.072-1.367-0.519c-0.245-0.614-0.147-1.292,0.296-2.029
		l-0.369-0.923c-0.642,0.245-1.072,0.036-1.293-0.627c-0.199-0.666-0.063-1.33,0.406-1.993l-0.333-0.96
		c-0.691,0.173-1.133-0.062-1.33-0.702c-0.196-0.64-0.037-1.306,0.48-1.993l-0.333-0.996c-0.666,0.123-1.084-0.148-1.257-0.813
		c-0.172-0.663,0-1.329,0.518-1.993l-0.221-0.96c-0.664,0.073-1.084-0.221-1.254-0.886c-0.124-0.715,0.085-1.366,0.627-1.957
		l-0.258-1.033c-0.666,0-1.057-0.343-1.181-1.033c-0.124-0.688,0.097-1.304,0.666-1.846l-0.185-1.034
		c-0.615-0.073-0.985-0.453-1.107-1.143c-0.099-0.738,0.149-1.354,0.739-1.846l-0.112-1.072c-0.663-0.073-1.021-0.467-1.071-1.182
		c-0.073-0.688,0.185-1.278,0.775-1.771l-0.111-1.069c-0.64-0.172-0.985-0.615-1.034-1.329s0.234-1.293,0.848-1.734l-0.073-1.034
		c-0.639-0.196-0.961-0.653-0.961-1.365c0-0.763,0.309-1.33,0.924-1.696l-0.037-1.108c-0.615-0.222-0.912-0.702-0.887-1.438
		c0-0.715,0.32-1.243,0.962-1.588l0.036-1.105c-0.614-0.248-0.911-0.764-0.887-1.551c0.025-0.738,0.381-1.257,1.07-1.551
		l0.072-1.069c-0.639-0.32-0.923-0.837-0.848-1.551c0.073-0.764,0.443-1.269,1.106-1.514l0.111-1.072
		c-0.591-0.369-0.848-0.924-0.775-1.66c0.124-0.737,0.505-1.204,1.143-1.401l0.184-1.069c-0.59-0.395-0.823-0.961-0.702-1.7
		c0.124-0.738,0.516-1.192,1.181-1.365l0.185-1.069c-0.542-0.442-0.751-1.035-0.627-1.773c0.149-0.715,0.566-1.121,1.255-1.218
		l0.221-1.069c-0.515-0.518-0.701-1.133-0.554-1.848c0.197-0.688,0.629-1.084,1.292-1.181l0.259-0.996
		c-0.519-0.566-0.676-1.182-0.479-1.845c0.197-0.738,0.627-1.108,1.291-1.108l0.333-0.997c-0.467-0.614-0.604-1.255-0.406-1.919
		c0.221-0.689,0.664-1.021,1.329-0.997l0.333-0.996c-0.469-0.639-0.566-1.293-0.296-1.957c0.246-0.689,0.691-0.996,1.33-0.923
		l0.37-0.96c-0.418-0.639-0.492-1.28-0.222-1.921c0.248-0.688,0.703-0.972,1.367-0.848l0.405-0.959
		c-0.394-0.689-0.444-1.354-0.147-1.994c0.27-0.614,0.738-0.849,1.402-0.701l0.442-0.886c-0.343-0.763-0.381-1.438-0.111-2.029
		c0.32-0.639,0.812-0.838,1.478-0.593l0.442-0.923c-0.345-0.764-0.345-1.439,0-2.03c0.345-0.614,0.825-0.774,1.439-0.478
		l0.479-0.887c-0.27-0.763-0.245-1.439,0.076-2.029c0.37-0.567,0.848-0.691,1.438-0.37l0.518-0.848
		c-0.27-0.812-0.221-1.488,0.148-2.03s0.848-0.627,1.439-0.257l0.59-0.812c-0.271-0.836-0.197-1.526,0.221-2.068
		c0.395-0.494,0.887-0.554,1.478-0.184l0.591-0.739c-0.27-0.838-0.185-1.502,0.259-1.993c0.443-0.493,0.924-0.517,1.439-0.075
		l0.591-0.703c-0.196-0.884-0.076-1.562,0.37-2.029c0.442-0.493,0.935-0.48,1.478,0.037l0.627-0.663
		c-0.172-0.912-0.037-1.589,0.405-2.029c0.467-0.42,0.972-0.37,1.514,0.146l0.627-0.59c-0.148-0.887,0.012-1.551,0.479-1.993
		c0.494-0.393,0.972-0.308,1.439,0.258l0.666-0.552c-0.075-0.96,0.112-1.625,0.552-1.993c0.467-0.345,0.948-0.221,1.439,0.37
		l0.703-0.516c-0.049-0.936,0.161-1.563,0.627-1.883c0.517-0.345,0.984-0.197,1.402,0.442l0.738-0.479
		c-0.023-0.96,0.197-1.586,0.666-1.884c0.494-0.296,0.947-0.111,1.366,0.555l0.739-0.406c0.023-0.936,0.284-1.538,0.775-1.809
		c0.493-0.296,0.933-0.075,1.33,0.664l0.738-0.406c0.049-0.911,0.333-1.501,0.848-1.772c0.246-0.074,0.479-0.048,0.701,0.076
		c0.271,0.124,0.456,0.357,0.554,0.703l0.775-0.333c0.025-0.37,0.136-0.727,0.333-1.069c0.147-0.296,0.333-0.494,0.552-0.591
		c0.494-0.197,0.912,0.085,1.256,0.849l0.775-0.258c0.099-0.912,0.42-1.466,0.96-1.663c0.515-0.147,0.936,0.173,1.253,0.96
		l0.776-0.221c0.124-0.933,0.442-1.465,0.96-1.587c0.245-0.072,0.467,0,0.663,0.221c0.221,0.197,0.394,0.479,0.517,0.849
		l0.776-0.186c0.221-0.935,0.578-1.438,1.069-1.514c0.542-0.072,0.912,0.31,1.108,1.145l0.813-0.111
		c0.221-0.887,0.578-1.366,1.069-1.439c0.566-0.024,0.923,0.382,1.069,1.22l0.775-0.037c0.272-0.887,0.678-1.342,1.22-1.367
		c0.494-0.024,0.825,0.418,0.997,1.33l0.775,0.039c0.271-0.887,0.688-1.33,1.254-1.33c0.467,0.049,0.775,0.519,0.923,1.402
		L84.012,156.949z"/>
	<path fill="#391E13" d="M149.024,92.678c-1.724-0.565-3.028-0.947-3.913-1.145c-3.223-0.688-5.992-0.911-8.306-0.666
		c-3.741,0.42-8.098,1.109-13.068,2.068c-1.65,0.296-3.667,0.8-6.054,1.514c-3.201,0.96-5.206,1.551-6.018,1.772
		c-2.141,0.542-4.146,0.542-6.017,0c-1.747-0.515-3.47-1.538-5.167-3.064c-1.551-1.378-2.695-2.893-3.434-4.541
		c-0.985-2.117-0.923-3.877,0.185-5.279l-0.258,0.185c1.033-1.106,2.681-1.539,4.946-1.293c1.28,0.172,3.089,0.53,5.427,1.069
		c3.47,0.518,7.802,0.678,12.995,0.481c8.292-0.296,12.613-0.443,12.958-0.443c4.404,0.048,8.255,0.676,11.553,1.884
		c1.773,0.639,3.507,1.611,5.205,2.916c2.19,1.697,3.175,3.25,2.953,4.652C151.854,93.16,150.523,93.123,149.024,92.678z
		 M190.075,28.998c1.057-0.812,2.153-1.269,3.285-1.366l26.063,10.263c1.032,0.419,3.286,0.837,6.756,1.256
		c2.855,0.321,5.045,1.033,6.571,2.141c1.402,1.058,2.805,2.35,4.21,3.877c0.836,0.887,2.078,2.326,3.728,4.318
		c2.904,3.47,5.415,6.141,7.531,8.01c2.02,1.772,3.373,2.928,4.062,3.47c1.011,0.788,1.601,1.269,1.773,1.439
		c0.321,0.443,0.455,1.058,0.406,1.847c-0.124,2.042-1.488,4.158-4.098,6.348c-0.715-0.664-1.896-1.956-3.546-3.876
		c-1.45-1.723-2.695-2.991-3.728-3.803c-1.771-1.377-3.224-1.601-4.355-0.665c-0.664,0.688-1.194,1.205-1.588,1.55
		c-0.763,0.639-1.586,1.07-2.471,1.291c-1.503,0.394-3.139-0.012-4.909-1.218c-1.848-1.551-3.188-2.647-4.025-3.286
		c-1.329-1.057-3.076-1.426-5.242-1.106c-2.485,0.345-4.294,0.234-5.427-0.333c-1.205-0.565-2.287-1.453-3.249-2.659
		c-1.032-1.354-1.538-2.646-1.515-3.875c0.05-1.871,0.973-2.783,2.77-2.732l1.992,0.037c0.542-0.048,0.912-0.221,1.108-0.515
		L187.42,36.933C187.024,33.316,187.909,30.672,190.075,28.998z M277.529,73.63c-0.543-0.37-0.947-0.688-1.219-0.96
		c-0.05-0.073-0.1-0.146-0.148-0.221l7.864-3.914c0.049,0.025,1.4,0.358,4.063,0.997c1.696,0.418,2.878,1.045,3.544,1.883
		c-0.223,0.418-0.408,0.861-0.556,1.33c-0.099,0.296-0.158,0.603-0.186,0.923c-0.123,0.959-0.038,1.772,0.262,2.437
		c0.441,1.009,0.959,1.438,1.55,1.293c0.368-0.097,1.094-0.308,2.178-0.627c0.073,0,0.148,0,0.22,0
		c-0.071,0.394-0.095,0.812-0.071,1.255c0.024,1.131,0.416,2.043,1.182,2.731c0.095,0.075,0.208,0.161,0.329,0.258
		c-0.341,0.222-0.749,0.479-1.219,0.776c-2.163,1.453-3.544,2.24-4.135,2.364c-1.6,0.394-3.173,0.012-4.725-1.145
		c-0.959-0.739-2.079-1.969-3.359-3.692c-1.153-1.747-2.077-3.001-2.767-3.765c-0.223-0.246-0.543-0.515-0.96-0.812
		c-0.099-0.248-0.174-0.505-0.222-0.775c-0.198-0.688-0.321-1.305-0.368-1.845l-1.479,0.185
		C277.358,72.718,277.431,73.163,277.529,73.63z M119.123,98.511c0.072-0.049,0.16-0.085,0.258-0.111
		c0.072-0.025,0.147-0.062,0.221-0.11c0.418-0.221,0.997-0.738,1.735-1.551c0.515-0.566,1.045-0.898,1.587-0.996
		c0.689-0.221,1.354-0.112,1.993,0.333c0.394,0.271,0.959,0.787,1.699,1.55l0.037,0.037c1.156,0.936,2.301,1.514,3.434,1.735
		c-0.221,0.666-0.381,1.342-0.48,2.03c-3.15,1.354-5.881,1.563-8.195,0.629c-0.714-0.271-1.367-0.666-1.957-1.183l-0.59-0.59
		L119.123,98.511z M119.268,97.626l0.593-4.431c1.429-1.846,5.046-2.892,10.854-3.137c2.855-0.124,5.599-0.073,8.233,0.148
		c-3.274,0.442-5.809,2.437-7.604,5.98c-0.42,0.836-0.763,1.66-1.035,2.474c-0.024,0-0.049,0-0.073,0
		c-1.009-0.172-2.042-0.702-3.102-1.587c-0.787-0.787-1.39-1.317-1.811-1.586v-0.037c-0.787-0.517-1.65-0.666-2.583-0.443
		c-0.663,0.124-1.315,0.542-1.956,1.256C120.116,96.948,119.613,97.403,119.268,97.626z M296.544,81.013
		c-0.125-0.099-0.234-0.185-0.333-0.258c-0.766-0.688-1.155-1.6-1.182-2.731c-0.023-0.443,0-0.861,0.071-1.255
		c0.127-0.565,0.333-1.084,0.631-1.551l0.813,0.112l-5.464-2.583c0.148-0.467,0.332-0.912,0.553-1.33
		c-0.666-0.837-1.848-1.464-3.544-1.883c-2.66-0.639-4.012-0.972-4.063-0.997l-7.86,3.913c0.047,0.075,0.099,0.147,0.146,0.221
		c-3.397,0.593-6.303,1.293-8.713,2.105c3.841,4.431,6.41,9.66,7.718,15.69c1.427,6.841,0.799,12.895-1.885,18.164v0.036
		c-1.255,2.339-3.026,4.529-5.317,6.572h-0.036c-2.754,2.214-4.885,3.913-6.386,5.094l0.036-0.075
		c-1.133,1.058-2.178,2.044-3.139,2.955c0.395,1.994,0.999,4.134,1.811,6.423c2.314-0.518,5.685-1.168,10.116-1.957
		c4.479-0.788,7.924-1.82,10.337-3.101c3.251-1.771,5.292-4.345,6.129-7.716c0.909-3.618,1.133-7.58,0.666-11.887
		c-0.298-2.804-1.07-6.78-2.327-11.923c-0.491-2.239-1.919-5.709-4.281-10.409c-1.625-3.347-2.719-6.117-3.286-8.307v0.037
		c-0.071-0.245-0.146-0.493-0.222-0.738c-0.099-0.467-0.17-0.912-0.218-1.33l1.479-0.185c0.045,0.542,0.17,1.156,0.368,1.845
		c0.048,0.271,0.123,0.529,0.223,0.775c0.566,1.969,1.571,4.394,3.024,7.271c2.39,4.824,3.851,8.392,4.396,10.706
		c1.227,5.218,2.004,9.254,2.325,12.11c0.439,4.503,0.208,8.637-0.704,12.404c-0.936,3.765-3.238,6.656-6.903,8.674
		c-2.461,1.33-6.042,2.401-10.741,3.212c-4.283,0.763-7.581,1.415-9.894,1.956c0.812,2.093,2.041,5.205,3.688,9.34v0.037
		c1.503,4.209,2.156,8.861,1.959,13.955c-0.175,4.479-0.997,9.143-2.474,13.991l-1.366-0.442c1.403-4.701,2.192-9.243,2.363-13.623
		c0.174-4.873-0.442-9.327-1.846-13.362l-0.035-0.038c-1.697-4.232-2.929-7.409-3.692-9.525c-0.418,0.098-0.775,0.209-1.071,0.333
		c-3.938,1.257-7.531,3.225-10.781,5.908c-2.337,1.944-6.865,5.13-13.585,9.561c-5.809,3.84-10.189,7.223-13.143,10.151
		c-5.808,5.736-10.142,10.042-12.994,12.922c-5.242,5.169-9.661,9.427-13.253,12.773c-3.546,3.223-7.507,7.224-11.889,11.999
		c-5.045,5.587-8.837,9.759-11.369,12.516c-4.086,4.972-7.162,8.712-9.229,11.223c-3.841,4.676-7.284,8.109-10.337,10.3
		c-1.65,1.205-3.335,2.35-5.057,3.434l0.184,0.108c0.173,0.076,0.224,0.234,0.149,0.482l-0.297,0.627l0.332,0.221l0.333-0.593
		c0.124-0.221,0.258-0.27,0.406-0.146l0.629,0.479c0.171,0.098,0.196,0.27,0.074,0.516l-0.297,0.591l0.332,0.296l0.333-0.552
		c0.148-0.197,0.296-0.248,0.445-0.148l0.59,0.591c0.024,0.024,0.073,0.085,0.148,0.185l-0.444,0.888l0.296,0.296l0.553-0.664
		c0.639,0.664,0.887,1.069,0.738,1.218l-0.369,0.554l0.297,0.37l0.405-0.517c0.146-0.172,0.282-0.185,0.406-0.038l0.515,0.702
		c0.148,0.221,0.136,0.406-0.038,0.554l-0.406,0.518l0.258,0.406l0.442-0.479c0.147-0.148,0.282-0.134,0.406,0.037l0.444,0.774
		c0.097,0.173,0.073,0.356-0.075,0.552l-0.405,0.406l0.221,0.442l0.441-0.406c0.171-0.173,0.308-0.136,0.407,0.109l0.369,0.775
		c0.124,0.197,0.085,0.382-0.112,0.555l-0.441,0.442l0.147,0.441l0.516-0.405c0.172-0.1,0.296-0.048,0.369,0.148l0.333,0.848
		c0.124,0.197,0.085,0.37-0.112,0.519l-0.515,0.368l0.184,0.479l0.48-0.332c0.196-0.101,0.319-0.039,0.369,0.184l0.221,0.887
		c0.076,0.27,0.024,0.455-0.148,0.555l-0.441,0.333l0.11,0.479l0.443-0.258c0.197-0.098,0.333-0.023,0.405,0.222l0.186,0.923
		c0.023,0.271-0.049,0.443-0.222,0.517l-0.479,0.296l0.037,0.518l0.554-0.222c0.173-0.049,0.282,0.049,0.333,0.297l0.148,0.887
		c0.024,0.27-0.063,0.442-0.258,0.518l-0.518,0.184l0.038,0.555l0.552-0.148c0.173-0.048,0.271,0.049,0.297,0.297l0.075,0.996
		c0.024,0.247-0.063,0.406-0.258,0.481l-0.554,0.111v0.59l0.554-0.074c0.173-0.073,0.27,0.039,0.297,0.332v0.997
		c-0.025,0.248-0.124,0.406-0.297,0.48l-0.554,0.037v0.554h0.518c0.196-0.049,0.282,0.062,0.257,0.333l-0.072,1.033
		c-0.024,0.248-0.137,0.382-0.333,0.405h-0.479l-0.074,0.554l0.479,0.074c0.197-0.024,0.284,0.111,0.258,0.406l-0.148,0.995
		c-0.023,0.222-0.134,0.358-0.332,0.406l-0.519-0.075l-0.11,0.555l0.517,0.111c0.173,0.049,0.248,0.196,0.222,0.442l-0.222,0.997
		c-0.073,0.296-0.197,0.405-0.369,0.333l-0.516-0.037l-0.112,0.479l0.48,0.148c0.195,0.074,0.257,0.222,0.184,0.442l-0.294,1.033
		c-0.075,0.27-0.199,0.369-0.37,0.296l-0.479-0.185l-0.147,0.554l0.479,0.221c0.147,0.076,0.185,0.234,0.109,0.482l-0.33,0.995
		c-0.124,0.248-0.258,0.321-0.408,0.223l-0.479-0.186l-0.186,0.552l0.443,0.258c0.147,0.075,0.184,0.234,0.11,0.479l-0.368,0.959
		c-0.148,0.223-0.297,0.271-0.445,0.149l-0.369-0.222l-0.258,0.516l0.369,0.296c0.171,0.1,0.197,0.27,0.073,0.518l-0.442,0.887
		c-0.072,0.246-0.209,0.309-0.405,0.185l-0.406-0.295l-0.258,0.441l0.406,0.406c0.147,0.123,0.147,0.309,0,0.555l-0.479,0.848
		c-0.098,0.198-0.246,0.233-0.442,0.111l-0.369-0.369l-0.295,0.479l0.37,0.406c0.124,0.148,0.112,0.332-0.037,0.555l-0.517,0.812
		c-0.149,0.172-0.297,0.185-0.443,0.036l-0.333-0.406l-0.332,0.406l0.332,0.48c0.124,0.149,0.099,0.333-0.074,0.553l-0.591,0.738
		c-0.17,0.171-0.307,0.171-0.406,0l-0.333-0.442l-0.333,0.406l0.297,0.479c0.124,0.222,0.085,0.408-0.111,0.554l-0.627,0.703
		c-0.149,0.172-0.285,0.159-0.406-0.037l-0.297-0.481l-0.369,0.333l0.259,0.554c0.099,0.197,0.063,0.382-0.11,0.553l-0.702,0.629
		c-0.173,0.148-0.307,0.124-0.406-0.074l-0.185-0.555L145,280.589l0.185,0.554c0.073,0.222,0.037,0.406-0.112,0.552l-0.738,0.519
		c-0.197,0.147-0.333,0.108-0.406-0.112l-0.184-0.554l-0.406,0.296l0.148,0.552c0.073,0.248,0.012,0.419-0.185,0.518l-0.739,0.479
		c-0.173,0.147-0.296,0.086-0.369-0.186l-0.185-0.59l-0.406,0.222l0.111,0.665c0.049,0.197-0.012,0.369-0.184,0.519l-0.776,0.405
		c-0.196,0.075-0.306-0.013-0.333-0.258l-0.147-0.628l-0.406,0.222l0.073,0.627c0.024,0.246-0.049,0.418-0.221,0.516l-0.776,0.296
		c-0.221,0.073-0.345-0.012-0.368-0.258l-0.074-0.665l-0.37,0.148l0.037,0.666c0.025,0.221-0.073,0.381-0.296,0.479l-0.37,0.111
		l0.112,11.924l4.43,1.292c0.27,0.098,0.467,0.307,0.591,0.627c0.124,0.321,0.136,0.664,0.037,1.034l-0.037,0.147
		c-0.098,0.369-0.282,0.639-0.554,0.812c-0.271,0.199-0.53,0.26-0.776,0.186l-0.848,3.174c0.245,0.072,0.43,0.27,0.554,0.591
		c0.124,0.317,0.137,0.662,0.036,1.032l-0.036,0.148c-0.097,0.394-0.281,0.688-0.554,0.887c-0.27,0.173-0.542,0.222-0.812,0.147
		l-11.335-3.47c-0.27-0.073-0.479-0.282-0.627-0.627c-0.097-0.297-0.112-0.63-0.037-0.996l0.074-0.148
		c0.075-0.37,0.248-0.651,0.517-0.849c0.248-0.197,0.505-0.27,0.776-0.221l0.848-3.102c-0.271-0.098-0.443-0.307-0.516-0.627
		c-0.124-0.321-0.147-0.652-0.072-0.997l0.072-0.147c0.098-0.395,0.282-0.688,0.555-0.887c0.245-0.197,0.491-0.258,0.738-0.186
		l3.804,1.145c-0.076-3.422-0.136-6.854-0.185-10.299c-0.049,0-0.1,0-0.148,0l-0.738,0.037c-0.222,0.023-0.321-0.086-0.296-0.333
		l-0.037,0.11c-0.149,0-0.296-0.012-0.443-0.036c-0.024,0.197-0.134,0.282-0.333,0.259l-0.702-0.037
		c-0.221,0.023-0.306-0.112-0.258-0.406l0.074-0.664l-0.405-0.074l-0.112,0.702c-0.073,0.245-0.196,0.357-0.37,0.332l-0.775-0.108
		c-0.172-0.075-0.246-0.234-0.221-0.481l0.148-0.666l-0.405-0.109l-0.186,0.702c-0.072,0.245-0.209,0.345-0.405,0.294l-0.739-0.258
		c-0.172-0.049-0.221-0.196-0.147-0.441l0.184-0.703l-0.405-0.111l-0.222,0.665c-0.073,0.222-0.208,0.307-0.405,0.258l-0.703-0.332
		c-0.172-0.073-0.221-0.233-0.148-0.479l0.221-0.666l-0.37-0.185l-0.258,0.628c-0.073,0.247-0.209,0.32-0.405,0.221l-0.629-0.406
		c-0.124-0.097-0.17-0.196-0.146-0.295c-0.172-0.075-0.333-0.135-0.48-0.186l0.48-0.887h-0.039l-0.333,0.59
		c-0.124,0.246-0.258,0.307-0.405,0.185l-0.666-0.479c-0.097-0.124-0.134-0.258-0.112-0.405l-0.185,0.442
		c-0.147-0.075-0.282-0.136-0.406-0.185l0.296-0.703c-0.147,0.197-0.296,0.234-0.444,0.112l-0.591-0.554l-0.296,0.699
		c-7.014-3.197-15.614-8.416-25.804-15.65c-5.736-4.086-11.666-8.577-17.794-13.475l-7.457-6.129l-0.074-0.039l-0.037-0.11
		c-4.775-6.127-5.772-11.653-2.992-16.575c0.862-1.551,2.056-2.928,3.582-4.136l0.039-0.037l2.141-1.478l57.036,7.457l-0.111,0.627
		c0.049-0.073,0.124-0.134,0.221-0.185l0.703-0.37c0.196-0.124,0.33-0.063,0.405,0.186l0.112,0.627l0.405-0.185l-0.074-0.663
		c-0.025-0.223,0.048-0.395,0.221-0.519l0.775-0.258c0.076-0.023,0.149-0.023,0.221,0c0.073,0.049,0.11,0.136,0.11,0.258
		l0.112,0.627l0.405-0.147l-0.037-0.627c-0.024-0.246,0.061-0.418,0.257-0.518l0.813-0.186c0.196-0.097,0.309,0,0.332,0.297
		l0.037,0.666l0.406-0.112v-0.665c0.024-0.222,0.124-0.369,0.296-0.442l0.812-0.11c0.172-0.074,0.27,0.036,0.296,0.333v0.664
		l0.406-0.073l0.037-0.666c0.024-0.245,0.148-0.381,0.369-0.405l0.739-0.037c0.196-0.023,0.282,0.1,0.258,0.37l-0.073,0.699
		l0.442-0.036l0.075-0.663c0.073-0.271,0.197-0.394,0.369-0.37l0.739,0.037c0.196,0.024,0.283,0.16,0.258,0.405l-0.112,0.702
		l0.443,0.037l0.11-0.703c0.074-0.221,0.197-0.332,0.37-0.332l0.775,0.185c0.172,0,0.245,0.136,0.222,0.406l-0.148,0.665
		l0.406,0.112l0.184-0.703c0.075-0.221,0.209-0.296,0.406-0.221l0.702,0.185c0.197,0.049,0.258,0.197,0.186,0.444l-0.186,0.703
		l0.369,0.108l0.222-0.59c0.073-0.297,0.209-0.382,0.406-0.258l0.59,0.221c1.944-1.181,3.876-2.437,5.795-3.765
		c2.928-2.165,6.265-5.512,10.004-10.041c2.115-2.512,5.194-6.251,9.229-11.224l0.035-0.039c2.512-2.779,6.3-6.977,11.371-12.588
		c4.479-4.775,8.479-8.786,11.999-12.035c3.594-3.346,7.987-7.58,13.18-12.7c2.854-2.878,7.198-7.2,13.03-12.959
		c3.053-3.001,7.508-6.447,13.364-10.335c6.645-4.355,11.124-7.52,13.438-9.488c3.371-2.832,7.138-4.897,11.296-6.202
		c0.271-0.1,0.603-0.197,0.997-0.297c-0.715-1.968-1.257-3.827-1.624-5.574c-1.502,1.377-2.769,2.559-3.804,3.542v-0.036
		c-3.715,3.397-6.816,5.5-9.303,6.312l-0.479-1.329c2.362-0.836,5.29-2.856,8.785-6.055c1.205-1.108,2.695-2.498,4.468-4.172
		c-0.101-0.494-0.174-1.009-0.223-1.551c-0.515-4.258-0.554-8.934-0.108-14.028v-0.037c0.368-4.012,1.069-8.651,2.104-13.917v-0.037
		c0.418-2.092,1.488-5.696,3.213-10.817c0.69-2.214,1.27-4.197,1.735-5.944c-0.49,0.221-0.936,0.467-1.329,0.738
		c0.221-1.426,0.627-2.928,1.218-4.503c1.182-3.102,2.695-4.936,4.541-5.5l6.088-2.178c4.53-1.329,8.039-1.66,10.524-0.996
		l0.85-1.957l26.064,9.967l0.187,1.034c0.095,0.837,0.035,1.625-0.187,2.363c-0.666,2.387-2.684,3.828-6.053,4.32l-3.694-1.774
		c0.273,0.665,0.555,1.145,0.852,1.439c0.589,0.517,1.353,0.726,2.287,0.626c0.52-0.048,1.305-0.245,2.363-0.59
		c1.009-0.295,1.795-0.444,2.362-0.444c0.713-0.025,1.514,0.16,2.401,0.554c1.82,0.812,3.457,1.772,4.907,2.88
		c2.143,1.723,2.662,3.162,1.555,4.318c-0.518,0.591-1.059,0.604-1.626,0.037c-0.614-0.86-1.121-1.464-1.512-1.809
		c-1.136-1.059-2.695-1.956-4.691-2.694c-1.034-0.394-1.895-0.554-2.582-0.479c-0.2,0.025-1.009,0.258-2.438,0.703
		c-1.033,0.343-1.931,0.455-2.696,0.333c-1.03-0.197-1.571-0.848-1.621-1.956c-1.211,0.32-2.093,0.529-2.661,0.628
		C297.994,81.616,297.229,81.481,296.544,81.013z M130.085,99.397c-1.133-0.221-2.277-0.799-3.434-1.735l-0.037-0.037
		c-0.739-0.763-1.305-1.278-1.699-1.55c-0.639-0.443-1.305-0.552-1.993-0.333c-0.542,0.097-1.07,0.43-1.587,0.996
		c-0.738,0.813-1.317,1.33-1.735,1.551c-0.075,0.049-0.148,0.085-0.221,0.11c-0.098,0.023-0.186,0.06-0.258,0.111
		c-1.478,0.714-3.001,0.861-4.579,0.443c-1.55-0.395-3.041-1.293-4.466-2.695l0.479-0.517c1.354,1.278,2.746,2.104,4.173,2.473
		c1.478,0.394,2.904,0.234,4.282-0.479c0.097-0.049,0.184-0.085,0.257-0.112c0.345-0.221,0.848-0.676,1.514-1.366
		c0.639-0.714,1.293-1.133,1.956-1.256c0.936-0.221,1.797-0.076,2.583,0.443v0.037c0.42,0.27,1.022,0.799,1.811,1.586
		c1.058,0.887,2.093,1.415,3.102,1.587c0.024,0,0.049,0,0.073,0c0.124,0.024,0.257,0.024,0.406,0c1.132,0,2.423-0.491,3.875-1.478
		h-0.036c1.255-0.936,2.437-2.005,3.544-3.212c1.181-1.478,1.932-2.769,2.253-3.877l0.738,0.185
		c-0.32,1.206-1.133,2.598-2.437,4.173c-1.107,1.256-2.326,2.362-3.654,3.323c-1.575,1.106-3.001,1.66-4.282,1.66
		c-0.17,0-0.358-0.012-0.554-0.037h-0.077V99.397z M273.839,90.722v0.037c-1.232-5.881-3.742-10.965-7.531-15.248v0.037
		c-0.048-0.073-0.111-0.147-0.187-0.221c-0.245,0.074-0.466,0.161-0.661,0.258c-0.052,0.172-0.1,0.357-0.149,0.552
		c-0.466,1.896-1.107,4.098-1.92,6.608c-1.672,5.046-2.717,8.613-3.137,10.705c-1.033,5.219-1.735,9.809-2.104,13.771
		c-0.42,4.997-0.382,9.587,0.108,13.77c0.025,0.146,0.05,0.307,0.076,0.479c0.739-0.714,1.551-1.478,2.438-2.289l0.036-0.037
		c1.478-1.157,3.594-2.832,6.349-5.021v-0.036c2.141-1.896,3.789-3.938,4.946-6.129C274.663,102.966,275.242,97.221,273.839,90.722z
		 M138.244,278.738c0.343-0.936,0.418-1.859,0.221-2.769l-1.145-5.057l0.112,9.154C137.777,279.698,138.047,279.256,138.244,278.738
		z M132.521,262.679c-0.271,0.147-0.528,0.358-0.776,0.628l-7.715,7.973c-0.615,0.664-1.009,1.464-1.181,2.401
		c-0.172,0.96-0.062,1.809,0.333,2.548c1.377,2.707,3.298,4.478,5.757,5.314c1.747,0.615,3.495,0.666,5.242,0.148
		c0-0.517,0-1.033,0-1.551c-0.124-7.876-0.149-13.771-0.073-17.683C133.592,262.336,133.062,262.409,132.521,262.679z
		 M152.753,261.24l-0.037-0.147c0-0.961-0.26-1.748-0.775-2.362c-0.493-0.616-1.12-0.875-1.884-0.776l-9.487,1.184
		c-0.936,0.098-1.698,0.688-2.289,1.771c-0.37,0.639-0.567,1.354-0.591,2.142c0,0.42,0.037,0.786,0.111,1.107l2.438,11.075
		c0.222,0.911,0.64,1.538,1.255,1.883c0.64,0.395,1.329,0.42,2.068,0.075c2.559-1.205,4.688-3.31,6.387-6.313
		C151.693,267.896,152.629,264.686,152.753,261.24z M121.706,280.843l0.184-0.331l-0.296-0.296l-0.333,0.442
		C121.41,280.731,121.557,280.795,121.706,280.843z M131.23,255.813l-7.235-6.129c-0.566-0.493-1.22-0.629-1.956-0.406
		c-0.715,0.197-1.33,0.7-1.845,1.514c-1.747,2.905-2.708,6.103-2.88,9.598c-0.148,3.495,0.505,6.534,1.956,9.118l0.112,0.111
		c0.418,0.715,0.984,1.095,1.698,1.145c0.738,0.049,1.414-0.247,2.029-0.887l7.938-8.27c0.812-0.86,1.22-1.858,1.22-2.989
		c0.048-0.763-0.1-1.451-0.445-2.068C131.673,256.282,131.476,256.034,131.23,255.813z M126.394,235.436
		c-0.048-0.221,0-0.406,0.148-0.554l0.702-0.555c0.196-0.098,0.331-0.061,0.405,0.111l0.186,0.591l0.405-0.258l-0.147-0.591
		c-0.074-0.245-0.025-0.418,0.147-0.515l0.296-0.148l-55.265-7.311l-1.623,1.146c0,0.023-0.012,0.037-0.037,0.037
		c-1.329,1.083-2.375,2.314-3.137,3.692c-2.436,4.43-1.502,9.4,2.804,14.914l7.384,6.055v-0.038
		c6.08,4.898,11.985,9.378,17.719,13.438c9.303,6.597,17.252,11.506,23.848,14.73c-0.124-0.148-0.112-0.333,0.037-0.555l0.333-0.479
		l-0.296-0.369l-0.37,0.48c-0.172,0.172-0.306,0.186-0.406,0.036l-0.515-0.701c-0.097-0.174-0.074-0.357,0.073-0.555l0.37-0.516
		l-0.222-0.405l-0.442,0.479c-0.172,0.197-0.306,0.197-0.406,0l-0.444-0.739c-0.124-0.196-0.098-0.382,0.075-0.552l0.442-0.48
		l-0.258-0.442l-0.443,0.442c-0.147,0.148-0.281,0.124-0.405-0.073l-0.37-0.849c-0.097-0.173-0.061-0.356,0.112-0.554l0.442-0.37
		l-0.185-0.479l-0.479,0.37c-0.197,0.146-0.333,0.108-0.406-0.112l-0.296-0.887c-0.124-0.221-0.085-0.382,0.112-0.479l0.479-0.37
		l-0.149-0.515l-0.479,0.333c-0.197,0.097-0.333,0.048-0.406-0.149l-0.221-0.923c-0.075-0.27-0.023-0.456,0.149-0.555l0.479-0.332
		l-0.112-0.479l-0.479,0.297c-0.197,0.073-0.333,0-0.405-0.222l-0.185-0.96c-0.024-0.27,0.048-0.441,0.221-0.516l0.519-0.221
		l-0.073-0.554l-0.554,0.185c-0.172,0.1-0.296,0.024-0.37-0.222l-0.112-0.996c-0.024-0.27,0.063-0.431,0.259-0.479l0.479-0.184
		v-0.517l-0.552,0.11c-0.172,0.075-0.272-0.025-0.296-0.297l-0.074-0.997c-0.024-0.221,0.063-0.38,0.258-0.48l0.552-0.108
		l-0.037-0.555l-0.515,0.072c-0.172,0.025-0.27-0.085-0.296-0.332l0.037-1.033c0.025-0.245,0.112-0.382,0.258-0.406l0.515-0.111
		l0.037-0.554l-0.515,0.038c-0.172,0.024-0.248-0.098-0.221-0.369l0.074-1.033c0.024-0.245,0.124-0.37,0.297-0.37l0.479-0.037
		l0.075-0.552l-0.479-0.039c-0.172,0-0.246-0.124-0.221-0.369l0.149-1.034c0.023-0.27,0.123-0.394,0.296-0.368h0.518l0.073-0.552
		l-0.479-0.076c-0.172-0.024-0.233-0.172-0.185-0.442l0.185-1.033c0.073-0.296,0.197-0.406,0.37-0.332l0.515,0.111l0.112-0.554
		l-0.517-0.186c-0.173-0.049-0.222-0.196-0.148-0.441l0.296-0.961c0.074-0.245,0.197-0.356,0.37-0.333l0.479,0.186l0.184-0.554
		l-0.517-0.186c-0.148-0.075-0.185-0.248-0.111-0.518l0.369-0.96c0.076-0.245,0.197-0.333,0.37-0.258l0.479,0.185l0.185-0.479
		l-0.445-0.296c-0.17-0.098-0.221-0.258-0.146-0.479l0.405-0.96c0.124-0.271,0.271-0.345,0.443-0.221l0.405,0.258l0.259-0.518
		l-0.407-0.333c-0.17-0.098-0.197-0.246-0.075-0.442l0.445-0.924c0.097-0.247,0.233-0.309,0.406-0.185l0.443,0.296l0.259-0.441
		l-0.408-0.37c-0.122-0.148-0.134-0.333-0.037-0.554l0.519-0.848c0.124-0.222,0.257-0.258,0.405-0.112l0.445,0.333l0.258-0.442
		l-0.37-0.442c-0.124-0.148-0.112-0.32,0.037-0.518l0.517-0.812c0.148-0.222,0.282-0.248,0.406-0.075l0.37,0.405l0.369-0.405
		l-0.369-0.479c-0.148-0.173-0.135-0.332,0.036-0.479l0.629-0.775c0.172-0.197,0.307-0.209,0.406-0.037l0.333,0.442l0.294-0.368
		l-0.258-0.516c-0.124-0.174-0.098-0.357,0.072-0.555l0.629-0.665c0.148-0.222,0.284-0.222,0.406,0l0.296,0.517l0.37-0.369
		l-0.259-0.554c-0.097-0.171-0.061-0.357,0.112-0.553l0.703-0.59c0.148-0.147,0.282-0.136,0.405,0.036l0.221,0.554l0.406-0.296
		L126.394,235.436z M129.828,233.11c0-0.05,0-0.086,0-0.112l-0.075,0.627l-0.294-0.036l0.11,0.406l0.405-0.259L129.828,233.11z
		 M145.405,237.688l-0.11-0.073c-0.689-0.173-1.367,0.024-2.03,0.59c-0.663,0.516-1.145,1.243-1.438,2.179l-3.323,12.181
		c-0.32,1.181-0.221,2.228,0.296,3.137c0.37,0.615,0.812,0.997,1.328,1.146c0.32,0.097,0.604,0.123,0.85,0.073l9.229-1.106
		c0.738-0.098,1.377-0.505,1.919-1.22c0.593-0.739,0.912-1.588,0.96-2.547c0.246-3.495-0.356-6.572-1.808-9.23
		C149.873,240.159,147.917,238.451,145.405,237.688z M139.83,237.171c-0.147-0.395-0.332-0.715-0.554-0.96
		c-3.198-1.255-6.029-1.269-8.49-0.037c-2.584,1.306-4.701,3.459-6.351,6.46l-0.074,0.147c-0.418,0.839-0.579,1.735-0.48,2.695
		c0.1,0.91,0.43,1.625,0.997,2.142l7.456,6.351c0.714,0.59,1.539,0.666,2.474,0.221c0.566-0.345,1.021-0.849,1.366-1.515
		c0.172-0.296,0.321-0.65,0.442-1.068l3.212-11.777C140.125,238.869,140.125,237.982,139.83,237.171z M145.405,232.446l-0.147,0.441
		l0.333,0.186l0.111-0.146L145.405,232.446z"/>
</g>
</svg>
