<?xml version="1.0" encoding="utf-8"?>
<!-- Generator: Adobe Illustrator 16.0.0, SVG Export Plug-In . SVG Version: 6.00 Build 0)  -->
<!DOCTYPE svg PUBLIC "-//W3C//DTD SVG 1.1//EN" "http://www.w3.org/Graphics/SVG/1.1/DTD/svg11.dtd">
<svg version="1.1" id="Layer_1" xmlns="http://www.w3.org/2000/svg" xmlns:xlink="http://www.w3.org/1999/xlink" x="0px" y="0px"
	 width="300px" height="300px" viewBox="0 0 300 300" enable-background="new 0 0 300 300" xml:space="preserve">
<g>
	<path fill-rule="evenodd" clip-rule="evenodd" fill="#383635" d="M236.654,185.484c-0.676,1.433-1.015,3.164-1.015,5.195
		c0,2.01,0.339,3.731,1.015,5.165c0.678,1.433,1.494,2.149,2.449,2.149s1.771-0.717,2.448-2.149
		c0.677-1.434,1.015-3.155,1.015-5.165c0-2.031-0.338-3.763-1.015-5.195c-0.677-1.434-1.493-2.15-2.448-2.15
		S237.332,184.051,236.654,185.484z M156.784,175.451c-2.429,0-4.509,1.383-6.241,4.15c-1.712,2.787-2.568,6.141-2.568,10.063
		s0.856,7.275,2.568,10.063c1.732,2.768,3.812,4.15,6.241,4.15s4.509-1.383,6.24-4.15c1.712-2.787,2.567-6.141,2.567-10.063
		s-0.855-7.275-2.567-10.063C161.293,176.834,159.213,175.451,156.784,175.451z M93.096,205.101
		c-2.389-2.329-3.663-5.085-3.822-8.271c6.051,0.08,14.75,0.229,26.096,0.447c-0.239,3.006-1.493,5.614-3.762,7.823
		c-0.1,0.101-0.199,0.199-0.299,0.299l28.335-0.956c-0.279-0.318-0.547-0.646-0.806-0.984c-1.354-1.771-2.438-3.693-3.254-5.764
		l7.972,0.209c-0.06-2.687,0.298-5.822,1.075-9.404l1.194-4.568c1.792-5.355,3.802-9.287,6.032-11.795
		c1.871-2.129,3.842-3.195,5.912-3.195c1.572,0,3.115,0.598,4.628,1.792c1.254,0.976,2.319,2.189,3.194,3.643
		c1.295,2.13,2.18,6.689,2.658,13.676c0.08,1.174,0.139,2.329,0.178,3.464c-0.596,4.537-2.209,8.52-4.836,11.943
		c-0.04,0.039-0.07,0.09-0.09,0.148c20.643-0.815,30.525-1.373,29.649-1.672c-1.015-0.338-1.782-1.184-2.299-2.537l-0.269-1.076
		h-22.035v-0.418c0-0.397,0-0.806,0-1.224h65.896v-4.628c0-2.189,0.488-4.488,1.463-6.897l1.434-2.985
		c0.936-0.757,1.752-1.135,2.448-1.135c1.832,0,2.976,2.369,3.435,7.105c0.238,2.35,0.288,4.709,0.148,7.077l0.418,0.03
		c-0.219,1.095-0.518,2.129-0.896,3.104c4.16,0.519,7.972,1.046,11.436,1.583c-5.017,0.895-8.938,1.433-11.765,1.612
		c-0.338,0.02-0.896,0.06-1.672,0.119c-0.796,0.816-1.672,1.225-2.627,1.225c-0.816,0-1.563-0.279-2.239-0.837
		c-4.877,0.358-12.302,0.946-22.274,1.762c-16.801,1.374-27.648,2.27-32.546,2.688c-3.304,0.278-10.59,0.727-21.856,1.344
		c-0.139,0-0.269,0.01-0.389,0.03c-2.348,1.513-4.936,2.269-7.763,2.269c-2.289,0-4.409-0.497-6.359-1.492
		c-3.305,0.18-5.574,0.318-6.808,0.418c-3.942,0.299-10.889,0.736-20.842,1.313c-8.699,0.498-16.163,0.906-22.394,1.226
		c-4.459,0.219-12.312-0.319-23.558-1.612l-15.497-2.002l38.607-1.791C93.912,205.867,93.494,205.498,93.096,205.101z
		 M81.541,87.996c6.788-1.851,11.754-2.926,14.899-3.225c3.444-0.358,6.24-0.458,8.39-0.298l-63.957,70.108
		c0-0.876,0.149-2.449,0.448-4.718c0.319-2.449,0.717-4.918,1.194-7.405c0.677-3.623,2.419-10.969,5.225-22.036
		c3.006-11.943,4.808-18.273,5.405-18.99c0.697-0.856,1.722-1.801,3.075-2.836c0.1-0.08,0.209-0.159,0.328-0.239
		c2.289-1.532,4.738-3.065,7.345-4.598c0.936-0.458,1.881-0.855,2.837-1.194C70.692,91.131,75.629,89.608,81.541,87.996z
		 M109.279,101.313c0.159-0.08,0.309-0.13,0.448-0.15c0.059-0.02,0.109-0.029,0.149-0.029l-0.209,0.388
		c-0.14,0.518-0.249,1.414-0.329,2.687c-0.059,0.04-0.109,0.1-0.149,0.179c-0.498,0.657-1.015,3.105-1.552,7.345
		c-0.279,2.349-0.518,4.668-0.717,6.958h-1.643l0.478-9.943c0.139-2.967,0.866-5.126,2.18-6.479c0.139-0.14,0.279-0.259,0.418-0.359
		C108.652,101.671,108.96,101.472,109.279,101.313z"/>
	<path fill-rule="evenodd" clip-rule="evenodd" fill="#1A1F21" d="M119.64,88.295c-0.597,0.417-1.005,1.075-1.224,1.97v0.03
		l-0.448,1.194c-0.478,1.493-0.796,2.518-0.955,3.076c-0.976,3.304-1.573,6.299-1.792,8.987l14.571,4.001V90.833l-0.059-0.06
		l-2.628-1.463c-2.229-1.055-4.041-1.582-5.434-1.582C120.834,87.728,120.158,87.916,119.64,88.295z M113.161,81.457l7.046,1.911
		c5.972,1.971,12.183,4.698,18.632,8.181l27.709,12.362c2.329,1.075,13.446,6.001,33.352,14.781l40.995,18.392
		c8.102,3.683,12.909,6.091,14.422,7.226l0.688,3.375c0.478,2.547,0.795,4.537,0.955,5.971c0.238,1.951,0.547,5.176,0.926,9.675
		c0.418,5.016,0.666,8.688,0.746,11.018l-0.657-0.12c-0.06-0.019-0.129-0.029-0.208-0.029c-4.281-0.776-8.57-1.553-12.869-2.329
		v-0.06h-0.24c-33.48-6.031-53.426-9.604-59.835-10.719c-2.589-0.438-6.439-1.274-11.556-2.509
		c-5.096-1.175-9.405-2.109-12.929-2.806c-1.114-0.239-2.12-0.438-3.016-0.598c-6.19-1.115-11.536-1.672-16.034-1.672
		c-0.259,0-0.518,0.01-0.776,0.029l-10.271,1.434l-0.15,0.06v-18.542l-1.074,0.537v18.334c-5.255,1.811-11.455,4.826-18.602,9.046
		v-17.735l-1.075-0.717v19.08c-2.627,1.592-5.991,3.722-10.092,6.389c-0.06,0.04-0.129,0.09-0.209,0.149l-10.45,5.315
		c-0.697,0.238-1.384,0.468-2.06,0.688l-1.463,0.387c-0.358,0.08-0.716,0.17-1.075,0.27l-5.703,0.955l-10.242,0.598
		c-0.617,0-1.234,0-1.851,0c-2.628-0.021-5.375-0.12-8.242-0.299h-0.059c-0.159,0.02-0.319,0.029-0.478,0.029
		c-0.518,0.021-1.135,0.029-1.851,0.029c-1.931,0-3.872-0.098-5.823-0.297c-0.936-0.1-1.871-0.229-2.807-0.389
		c-0.06,0-0.119-0.01-0.179-0.03c-3.921-0.638-7.554-1.662-10.898-3.075c-0.239-0.1-0.467-0.199-0.687-0.299l2.538-0.955
		c0.16-1.832,0.299-3.474,0.418-4.927l0.06,0.09c0.995,1.274,2.269,2.408,3.821,3.403l0.358-0.478
		c-0.199-0.159-0.398-0.428-0.597-0.806c-0.398-0.717-0.647-1.593-0.746-2.628v-0.149l-0.12-0.09l-0.328-0.18l-1.643-1.223
		l-0.03-0.03h0.03l-0.089-0.149c-0.06-0.061-0.14-0.09-0.239-0.09c-0.06,0-0.149,0.029-0.269,0.09
		c0.18-1.871,0.329-3.334,0.448-4.39l0.687-4.718l4.777,0.746c3.902,0.498,7.614,0.748,11.138,0.748c2.945,0,5.663-0.18,8.151-0.539
		c10.391-1.492,17.776-2.617,22.155-3.373c9.375-1.593,14.581-2.847,15.616-3.762c1.075-0.956,1.891-2.469,2.448-4.539
		c0.358-1.294,0.667-3.186,0.925-5.674c0.279-2.428,2.011-15.107,5.196-38.039l-0.687,0.597c0.04-0.08,0.09-0.14,0.149-0.179
		c0.08-1.273,0.189-2.169,0.329-2.687l0.209-0.388l1.672-13.706c0-0.696-0.259-1.304-0.776-1.821
		c-1.055-1.075-3.045-1.612-5.972-1.612c-0.716,0-1.652,0.049-2.807,0.149c-7.246,0.696-13.158,1.473-17.736,2.329
		c-7.485,1.414-13.227,3.235-17.228,5.464c-1.075,0.597-2.12,1.204-3.136,1.821c-2.607,1.533-5.056,3.066-7.345,4.598
		c-0.119,0.08-0.229,0.159-0.328,0.239c-1.433,0.956-2.538,1.742-3.314,2.359c0.896-0.956,2.011-2.03,3.344-3.224
		c2.667-2.389,5.096-4.141,7.286-5.255c5.076-2.608,10.361-4.778,15.854-6.509c9.754-3.085,19.547-4.628,29.381-4.628
		C109.707,81.338,111.17,81.377,113.161,81.457z M109.876,101.134c-0.042,0-0.092,0.01-0.149,0.029
		c-0.14,0.02-0.289,0.07-0.448,0.15c-0.319,0.159-0.627,0.358-0.926,0.596c-0.139,0.1-0.279,0.219-0.418,0.359
		c-1.313,1.354-2.041,3.513-2.18,6.479l-0.478,9.943h-7.017c-0.04-0.459-0.05-1.225-0.029-2.3c0.059-2.13,0.278-4.679,0.656-7.644
		c0.378-2.967,2.319-5.126,5.823-6.479c0.199-0.08,0.398-0.149,0.597-0.209c0.099-0.04,0.199-0.07,0.298-0.09l2.121-0.568
		c0.238-0.059,0.477-0.099,0.716-0.119v-0.149H109.876z M164.309,126.215l0.298-0.03l0.419,8.689l0.029,0.029l0.775,0.239
		c0.08,0.02,0.16,0.04,0.24,0.061c2.368,0.715,4.747,1.433,7.136,2.148l16.243,4.898v-0.031c-0.021-1.771-0.299-5.832-0.836-12.182
		c-0.18-2.15-0.358-4.301-0.538-6.45c-0.02-0.079-0.03-0.148-0.03-0.208l-0.059-0.717l0.299-0.061l-0.598-6.329l-24.365-10.839
		L164.309,126.215z M136.122,132.366c3.145-1.435,5.763-2.151,7.853-2.151l0.716,0.031c3.723,0.338,7.584,1.064,11.585,2.18
		c1.473,0.397,2.966,0.855,4.479,1.373c0.496,0.159,1.004,0.328,1.521,0.508l-0.09-7.763h0.031l-0.18-11.317l-1.045-10.569
		l-28.485-13.258v42.817c0.199-0.119,0.428-0.249,0.687-0.388C134.171,133.291,135.146,132.803,136.122,132.366z M112.802,123.646
		c-0.438,4.479-0.835,8.291-1.194,11.437l-1.105,9.196c-0.02,0.02-0.03,0.051-0.03,0.09c-0.04,0.199-0.07,0.378-0.09,0.537
		l-0.179,0.746v0.031l0.12,0.148l0.029,0.03l0.12-0.06l0.896-0.359c0.079-0.02,0.417-0.169,1.015-0.447l17.467-9.316l0.418-24.484
		l-15.915-3.821L112.802,123.646z M190.016,122.334v0.029l1.375,20.482l5.045,1.523c0.02,0,0.05,0.01,0.09,0.029
		c0.02,0,0.039,0,0.06,0l0.209,0.061l-0.956,0.029l14.542,4.329l-0.329-4.657h-0.299l-0.059-0.747c0-0.079,0-0.159,0-0.239
		c-0.08-0.994-0.16-1.979-0.239-2.955c-0.538-6.41-0.976-10.709-1.313-12.899c-0.16-0.796-0.27-1.323-0.328-1.583l-10.481-4.508
		h0.06l0.479-0.09l-8.479-3.703l0.327,4.957L190.016,122.334z M172.758,160.701c5.852,1.334,9.754,2.17,11.705,2.508l12.898,2.299
		l-0.179,31.173h-25.142l0.209-36.099L172.758,160.701z M69.717,181.9c0.159-0.02,0.905-0.029,2.239-0.029s2.479-0.061,3.434-0.18
		c0.956-0.119,1.643-0.199,2.061-0.238c3.921-0.418,7.395-1.096,10.42-2.031c3.902-1.214,8.092-3.283,12.571-6.211
		c3.344-2.188,6.31-4.069,8.897-5.642v27.978c0.359,0,0.717,0.01,1.075,0.029v-28.664c7.306-4.399,13.506-7.484,18.602-9.256v38.277
		c0.358,0,0.717,0.011,1.074,0.029v-38.695l0.807-0.238c0.458-0.14,0.936-0.27,1.433-0.389l6.509-0.896
		c1.274-0.059,2.628-0.068,4.061-0.029c3.882,0.1,8.341,0.587,13.377,1.463l-0.06,11.764h1.074l0.061-11.584
		c3.563,0.656,8.28,1.672,14.152,3.045l-0.209,36.278h-2.746c0-1.652-0.041-3.374-0.121-5.165c-0.039-1.135-0.098-2.29-0.178-3.464
		c-0.479-6.986-1.363-11.546-2.658-13.676c-0.875-1.453-1.94-2.667-3.194-3.643c-1.513-1.194-3.056-1.792-4.628-1.792
		c-2.07,0-4.041,1.066-5.912,3.195c-2.23,2.508-4.24,6.439-6.032,11.795l-1.194,4.568c-0.776,3.582-1.135,6.718-1.075,9.404
		l-10.092-0.269c-3.085-0.079-6.101-0.148-9.047-0.208c-0.756-0.021-1.503-0.03-2.24-0.03c-2.368-0.04-4.638-0.079-6.808-0.12
		c-11.346-0.219-20.045-0.367-26.096-0.447c-4.658-0.08-7.763-0.109-9.315-0.09c-3.623,0.021-13.885-0.179-30.784-0.597l-10.51-0.27
		c-0.836,0-1.533-0.587-2.09-1.761c-0.557-1.175-1.025-3.035-1.403-5.584c-0.219-1.473-0.278-3.882-0.179-7.226
		c0.12-2.827,0.179-4.658,0.179-5.493c0-0.101,0-0.19,0-0.27v-0.09l1.194,1.016c4.797,2.13,9.714,3.623,14.75,4.479
		c2.687,0.458,4.937,0.687,6.748,0.687c3.305,0.199,6.459,0.298,9.466,0.298C68.125,181.93,68.92,181.92,69.717,181.9z
		 M84.616,168.195l-0.239-1.045c-4.22,1.016-9.097,1.842-14.63,2.479c-11.067,1.254-20.174,1.006-27.32-0.746l-0.269,1.045
		c4.201,1.035,9.097,1.553,14.69,1.553c5.853,0,12.212-0.547,19.08-1.643C79.371,169.301,82.268,168.753,84.616,168.195z
		 M92.29,160.552l-0.06,0.149c-2.229,4.021-4.778,7.166-7.644,9.436l-0.209-0.836c-4.22,1.016-9.097,1.842-14.63,2.479
		c-11.067,1.254-20.174,1.005-27.32-0.747l-0.269,1.045c4.201,1.035,9.097,1.553,14.69,1.553c5.853,0,12.212-0.547,19.08-1.642
		c3.205-0.498,5.932-1.006,8.181-1.523c-0.796,0.577-1.682,1.135-2.657,1.672l-0.806,0.329l-0.149,0.089c-0.02,0-0.04,0-0.06,0
		h-0.029l0.119,0.598c5.514-0.855,10.799-2.329,15.855-4.42c1.951-0.836,3.603-1.621,4.957-2.357c1.174-0.678,2-1.234,2.478-1.672
		c0.339-0.318,0.597-0.857,0.776-1.613c0.14-0.617,0.209-1.334,0.209-2.15c0-0.735-0.069-1.433-0.209-2.089
		c-0.06-0.259-0.139-0.498-0.238-0.718c-0.061-0.119-0.13-0.208-0.209-0.268c-0.06-0.1-0.169-0.15-0.329-0.15
		c-0.08,0-0.169,0.031-0.269,0.09l-0.18,0.15c-0.04,0.098-0.238,0.209-0.597,0.328c-0.935,0.397-2.965,0.905-6.091,1.522
		l-4.24,0.746H92.29z M46.995,119.676c0.278,0.259,0.418,0.448,0.418,0.567l0.089,0.239l-0.239,0.148h-0.03l-0.448,0.299
		c-0.298,0.199-0.667,0.508-1.104,0.926c-1.075,1.135-1.692,2.369-1.851,3.702c-0.1,0.916-0.149,1.852-0.149,2.808
		c0,0.915,0.05,1.672,0.149,2.269v0.03l0.089,0.357h-4.896l-0.03-0.268c-0.1-0.877-0.149-1.832-0.149-2.867
		c0-1.114,0.06-2.029,0.179-2.747c0.179-1.056,0.457-1.821,0.836-2.299c0.557-0.757,1.254-1.443,2.09-2.061
		c0.776-0.597,1.543-1.044,2.299-1.344c0.479-0.218,0.896-0.327,1.255-0.327C46.079,119.109,46.577,119.297,46.995,119.676z
		 M164.309,189.664c0,3.344-0.736,6.2-2.21,8.568c-1.474,2.369-3.245,3.555-5.314,3.555c-2.07,0-3.842-1.186-5.315-3.555
		c-1.453-2.368-2.179-5.225-2.179-8.568s0.726-6.2,2.179-8.569c1.474-2.368,3.245-3.554,5.315-3.554
		c2.069,0,3.841,1.186,5.314,3.554C163.572,183.464,164.309,186.32,164.309,189.664z M161.74,189.664
		c0-2.209-0.478-4.091-1.434-5.643c-0.975-1.573-2.148-2.359-3.522-2.359c-1.354,0-2.519,0.786-3.494,2.359
		c-0.976,1.552-1.463,3.434-1.463,5.643c0,2.189,0.487,4.07,1.463,5.643c0.976,1.553,2.141,2.329,3.494,2.329
		c1.374,0,2.548-0.776,3.522-2.329C161.263,193.734,161.74,191.854,161.74,189.664z M159.471,189.664
		c0,1.174-0.258,2.189-0.775,3.046c-0.537,0.835-1.175,1.253-1.911,1.253c-0.737,0-1.364-0.418-1.882-1.253
		c-0.518-0.856-0.776-1.872-0.776-3.046c0-1.194,0.259-2.209,0.776-3.046c0.518-0.835,1.145-1.254,1.882-1.254
		c0.756,0,1.394,0.419,1.911,1.254C159.213,187.455,159.471,188.47,159.471,189.664z M181.865,193.994
		c0.258,0.258,0.566,0.388,0.925,0.388h4.45c0.357,0,0.666-0.13,0.925-0.388c0.259-0.24,0.388-0.548,0.388-0.926v-0.358
		c0-0.358-0.129-0.667-0.388-0.926s-0.567-0.389-0.925-0.389h-4.45c-0.358,0-0.667,0.13-0.925,0.389
		c-0.259,0.259-0.389,0.567-0.389,0.926v0.358C181.477,193.446,181.606,193.754,181.865,193.994z M210.23,127.678l0.269,2.359
		c0.04,0.318,0.079,0.627,0.12,0.926l0.06,0.627c0.099,0.836,0.198,1.662,0.298,2.478c0.418,3.763,0.756,7.106,1.016,10.032h-0.299
		c0.219,2.409,0.349,4.131,0.389,5.166l13.973,4.389c-0.199-3.204-0.438-6.488-0.717-9.854l-0.298,0.03v-0.03l-0.089-0.925
		c0-0.1-0.01-0.199-0.03-0.299l-0.09-1.165c-0.119-1.273-0.239-2.497-0.358-3.672c-0.259-2.349-0.488-3.902-0.687-4.658l-0.09-0.357
		c-0.079-0.041-0.159-0.07-0.239-0.09l-0.268-0.12c-0.061-0.019-0.11-0.039-0.149-0.06l-0.21-0.089
		c-0.039-0.021-0.079-0.04-0.119-0.061l-0.119-0.06c-0.119-0.059-0.238-0.109-0.358-0.148c-4.04-1.771-8.081-3.533-12.122-5.285
		C210.131,127.031,210.171,127.319,210.23,127.678z M258.512,176.496l0.148-0.806c0.04,3.185,0.04,8.331,0,15.437
		c-0.995,0.717-2.269,1.434-3.821,2.15c-3.085,1.433-5.962,2.148-8.63,2.148c-0.496,0-0.975-0.029-1.432-0.089v-1.313
		c0.039-6.668,0.079-13.326,0.119-19.976L258.512,176.496z M239.163,139.711v0.239l0.508,3.493h-0.299
		c0.955,7.026,1.364,11.744,1.224,14.152l12.004,4.24l0.389,0.179c0.318,0.101,0.616,0.149,0.895,0.149
		c1.056,0,1.523-0.776,1.404-2.328c-0.12-1.454-0.508-4.26-1.164-8.421l-0.986-5.822l-4.837-2.358l-0.657,0.029l-3.672-1.702
		c-2.329-0.976-3.822-1.562-4.479-1.761C239.352,139.761,239.242,139.731,239.163,139.711z M226.593,140.875
		c0,0.08,0.01,0.159,0.03,0.239l0.119,0.926c0.06,0.577,0.119,1.145,0.179,1.702h-0.298c0.577,5.573,0.775,8.877,0.598,9.912
		l12.121,3.941c-0.179-5.692-0.428-10.4-0.746-14.123h-0.299c-0.199-2.129-0.388-3.492-0.567-4.09l-0.118-0.359l-11.824-4.986
		C226.065,136.307,226.334,138.586,226.593,140.875z M243.225,188.141c-0.459-4.736-1.603-7.105-3.435-7.105
		c-0.696,0-1.513,0.378-2.448,1.135l-1.434,2.985c-0.975,2.409-1.463,4.708-1.463,6.897v4.628h-1.611l0.089-10.72
		c0.021-4.697,0.05-9.385,0.089-14.063l11.406,2.061c-0.039,7.106-0.089,14.212-0.148,21.318l-0.896-0.06
		C243.513,192.85,243.463,190.49,243.225,188.141z M206.945,194.502c0.16,0.158,0.369,0.238,0.628,0.238h3.105
		c0.238,0,0.447-0.08,0.626-0.238c0.16-0.18,0.24-0.389,0.24-0.628v-0.269c0-0.239-0.08-0.438-0.24-0.598
		c-0.179-0.179-0.388-0.268-0.626-0.268h-3.105c-0.259,0-0.468,0.089-0.628,0.268c-0.179,0.16-0.269,0.358-0.269,0.598v0.269
		C206.677,194.113,206.767,194.322,206.945,194.502z M218.293,169.24l14.242,2.568l-0.149,24.872h-14.243L218.293,169.24z
		 M239.104,184.408c0.816,0,1.512,0.617,2.09,1.852c0.578,1.215,0.865,2.688,0.865,4.42c0,1.711-0.287,3.185-0.865,4.419
		c-0.578,1.214-1.273,1.821-2.09,1.821s-1.513-0.607-2.09-1.821c-0.578-1.234-0.866-2.708-0.866-4.419
		c0-1.732,0.288-3.205,0.866-4.42C237.591,185.025,238.287,184.408,239.104,184.408z M241.045,190.68
		c0-1.135-0.189-2.101-0.568-2.896c-0.378-0.816-0.836-1.225-1.373-1.225s-0.996,0.408-1.374,1.225
		c-0.378,0.796-0.567,1.762-0.567,2.896s0.189,2.109,0.567,2.926c0.378,0.796,0.837,1.194,1.374,1.194s0.995-0.398,1.373-1.194
		C240.855,192.789,241.045,191.814,241.045,190.68z M239.85,189.097c0.199,0.438,0.299,0.966,0.299,1.583s-0.1,1.135-0.299,1.553
		c-0.219,0.438-0.467,0.656-0.746,0.656s-0.527-0.219-0.746-0.656c-0.199-0.418-0.299-0.936-0.299-1.553s0.1-1.145,0.299-1.583
		c0.219-0.438,0.467-0.657,0.746-0.657S239.631,188.658,239.85,189.097z M217.844,169.181l-0.178,27.5h-19.738l0.18-31.053
		L217.844,169.181z M223.278,193.874v0.179c0,0.16,0.06,0.299,0.179,0.418c0.121,0.12,0.26,0.18,0.419,0.18h2.03
		c0.159,0,0.299-0.06,0.418-0.18c0.119-0.119,0.18-0.258,0.18-0.418v-0.179c0-0.159-0.061-0.298-0.18-0.418
		c-0.119-0.119-0.259-0.179-0.418-0.179h-2.03c-0.159,0-0.298,0.06-0.419,0.179C223.338,193.576,223.278,193.715,223.278,193.874z"
		/>
</g>
</svg>
