<?xml version="1.0" encoding="utf-8"?>
<!-- Generator: Adobe Illustrator 16.0.0, SVG Export Plug-In . SVG Version: 6.00 Build 0)  -->
<!DOCTYPE svg PUBLIC "-//W3C//DTD SVG 1.1//EN" "http://www.w3.org/Graphics/SVG/1.1/DTD/svg11.dtd">
<svg version="1.1" id="Layer_1" xmlns="http://www.w3.org/2000/svg" xmlns:xlink="http://www.w3.org/1999/xlink" x="0px" y="0px"
	 width="400px" height="400px" viewBox="0 0 400 400" enable-background="new 0 0 400 400" xml:space="preserve">
<g>
	<path fill-rule="evenodd" clip-rule="evenodd" fill="#D8A328" d="M351.611,184.941c0.176,0.146,0.389,0.418,0.639,0.814
		c3.23,5.77,5.293,10.563,6.188,14.38c0.852,3.598,1.432,9.764,1.739,18.499c-0.072,2.363-0.293,4.309-0.66,5.836
		c-0.47,1.952-1.277,3.788-2.423,5.505l0.22-2.687c1.072-2.144,1.697-5.072,1.873-8.786c-0.088-4.347-0.353-7.693-0.793-10.042
		c-0.719-3.788-2.063-6.93-4.029-9.426c-1.396-1.497-3.076-2.033-5.044-1.607c-1.762,0.382-3.281,1.395-4.559,3.039
		c-2.657,4.052-4.72,8.479-6.188,13.279c-1.13,3.758-2.106,8.559-2.928,14.402c-0.221,1.395-0.551,3.493-0.992,6.298
		c-0.439,2.423-0.99,4.471-1.65,6.145c-0.383,0.719-0.815,1.248-1.3,1.585c-0.515,0.353-1.226,0.603-2.137,0.749
		c-2.173,0.278-4.286,0.551-6.342,0.814c-16.442,2.144-29.296,4.009-38.561,5.594c-15.782,2.717-28.688,5.755-38.714,9.117
		l-0.508-0.286c1.968-4.479,3.363-9.954,4.185-16.429c0.896-6.974,0.881-13.47-0.044-19.489c-1.057-6.9-3.2-12.244-6.43-16.032
		c-3.744-4.39-8.736-6.4-14.975-6.033c-9.265,0.792-16.422,6.643-21.473,17.551c-3.332,7.224-5.864,17.236-7.597,30.038
		c-0.146,1.071-0.389,3.01-0.727,5.814c-0.353,2.628-0.764,4.814-1.233,6.562c-1.409,5.08-3.7,7.715-6.871,7.906
		c-11.173,0.704-21.317,1.027-30.435,0.969c-8.104-0.044-18.249-0.426-30.434-1.146c-5.124-0.161-8.17-0.293-9.139-0.396
		c-0.69-0.088-1.13-0.235-1.321-0.44c-0.162-0.191-0.206-0.529-0.132-1.013c7.723-4.053,13.749-7.804,18.08-11.254
		c5.726-4.536,10.402-9.836,14.028-15.899c0.808-1.557,0.83-2.849,0.066-3.876c-0.734-0.969-1.975-1.446-3.722-1.432
		c-16.311,1.042-33.833,1.659-52.566,1.85c0.162,0.015,1.49,0.073,3.986,0.177c1.938,0.073,3.245,0.205,3.92,0.396
		c-3.788,5.123-7.964,8.39-12.53,9.8c-2.731,0.836-6.328,1.034-10.791,0.594c-3.23-0.381-7.95-0.939-14.16-1.673
		c-5.3-0.676-9.976-1.461-14.028-2.356c-1.85-0.471-3.252-1.417-4.206-2.841c-0.675-1.028-1.175-2.423-1.498-4.185
		c-0.543-2.246-0.933-3.686-1.167-4.316c-0.631-1.674-1.512-2.914-2.643-3.722c-0.499,1.894-0.661,4.03-0.484,6.408
		c0.132,1.674,0.477,3.817,1.035,6.431c-0.646,0.954-0.969,2.335-0.969,4.141c0,1.292,0.184,2.973,0.551,5.043
		c-1.219-1.821-1.85-5.403-1.894-10.747c-0.029-4.008,0.235-8.089,0.793-12.244c-0.69-1.307-0.881-2.525-0.573-3.655
		c0.088-0.323,0.624-1.477,1.608-3.458c0.528-2.452,1.607-4.64,3.237-6.563c0.998-1.16,2.848-2.826,5.549-4.999
		c-0.984,1.747-1.021,2.885-0.11,3.413c0.881,0.515,2.114,0.229,3.699-0.858c1.454-1.042,3.223-2.422,5.308-4.141
		c3.098-2.539,4.83-3.949,5.197-4.228v0.021c0.161-0.117,0.33-0.228,0.506-0.33l0.044-0.044h0.022c0-0.015,0.007-0.022,0.022-0.022
		c0-0.015,0.007-0.021,0.022-0.021c0.015-0.015,0.03-0.022,0.044-0.022c0-0.015,0.007-0.021,0.022-0.021l0.022-0.022h0.022
		c0.015-0.015,0.029-0.021,0.044-0.021l0.022-0.022c0.015-0.015,0.029-0.021,0.044-0.021c0-0.015,0.007-0.022,0.022-0.022
		c0-0.015,0.008-0.022,0.022-0.022c0-0.015,0.007-0.021,0.022-0.021c0.015-0.015,0.029-0.022,0.044-0.022
		c0-0.015,0.007-0.021,0.022-0.021s0.029-0.008,0.044-0.022l0.022-0.021h0.022c7.091-4.771,14.689-8.56,22.793-11.363
		c0.587-0.206,1.182-0.404,1.784-0.595c0.073-0.029,0.147-0.052,0.22-0.066c0.059-0.029,0.125-0.051,0.198-0.065
		c0.073-0.03,0.147-0.052,0.22-0.066c0.059-0.029,0.125-0.052,0.198-0.066c0.073-0.029,0.154-0.059,0.242-0.088
		c0.073-0.029,0.147-0.052,0.22-0.066c0.073-0.029,0.154-0.051,0.242-0.065c0.073-0.029,0.147-0.052,0.22-0.066
		c0.073-0.029,0.147-0.052,0.22-0.066c0.073-0.029,0.147-0.051,0.22-0.065c0.088-0.029,0.169-0.059,0.242-0.088
		c0.088-0.03,0.176-0.052,0.265-0.066c0.073-0.029,0.146-0.052,0.22-0.066c0.088-0.029,0.183-0.059,0.286-0.088
		c0.059-0.015,0.117-0.029,0.176-0.044c0.088-0.029,0.184-0.059,0.287-0.088c0.073-0.029,0.154-0.052,0.242-0.066
		c0.073-0.029,0.154-0.052,0.242-0.066c0.088-0.029,0.176-0.051,0.264-0.065c0.103-0.044,0.206-0.073,0.308-0.088
		c3.553-0.97,7.15-1.74,10.791-2.313c0.103-0.015,0.206-0.029,0.308-0.044c0.059-0.015,0.125-0.022,0.199-0.022
		c0.103-0.029,0.205-0.044,0.308-0.044c0.088-0.015,0.184-0.029,0.286-0.044c0.059-0.015,0.125-0.022,0.198-0.022
		c0.103-0.029,0.213-0.044,0.331-0.044c0.088-0.015,0.183-0.029,0.286-0.044c0.162-0.029,0.33-0.051,0.506-0.065
		c0.103-0.015,0.206-0.029,0.309-0.044c0.103-0.015,0.206-0.03,0.308-0.045c0.103-0.015,0.213-0.029,0.331-0.044
		c0.161-0.015,0.323-0.029,0.484-0.044c0.132-0.029,0.264-0.044,0.396-0.044c0.117-0.015,0.242-0.029,0.374-0.044
		c0.118-0.015,0.242-0.029,0.375-0.044c0.162-0.029,0.33-0.044,0.506-0.044c0.147-0.03,0.301-0.044,0.463-0.044
		c0.088-0.015,0.183-0.022,0.286-0.022c0.22-0.029,0.448-0.051,0.683-0.065c0.029-0.015,0.066-0.022,0.11-0.022
		c0.602-0.044,1.204-0.088,1.806-0.132c-0.734,0.029-1.468,0.065-2.203,0.109c-0.029,0-0.051,0-0.066,0
		c-0.293,0.015-0.58,0.037-0.859,0.066c-0.103,0-0.206,0.008-0.308,0.022c-0.191,0.015-0.367,0.029-0.529,0.044
		c-0.205,0.014-0.403,0.029-0.594,0.044c-0.162,0.015-0.323,0.029-0.484,0.044c-0.147,0.015-0.287,0.029-0.418,0.044
		c-0.147,0.015-0.294,0.029-0.44,0.044c-0.191,0.015-0.375,0.037-0.551,0.066c-0.117,0-0.235,0.015-0.352,0.044
		c-0.132,0-0.265,0.015-0.397,0.044c-0.132,0-0.256,0.015-0.374,0.044c-0.191,0.015-0.382,0.037-0.573,0.066
		c-0.103,0.014-0.205,0.029-0.308,0.044c-0.103,0.015-0.206,0.029-0.309,0.044c-0.059,0-0.11,0.007-0.154,0.021
		c-0.103,0.015-0.206,0.03-0.308,0.045c-0.118,0.015-0.228,0.029-0.331,0.044c-0.088,0.015-0.176,0.029-0.264,0.044
		c-0.103,0.015-0.206,0.029-0.309,0.044c-3.553,0.528-7.083,1.277-10.592,2.246c-0.103,0.029-0.206,0.059-0.309,0.088
		c-0.088,0.015-0.169,0.037-0.242,0.066c-0.103,0.029-0.198,0.059-0.286,0.088c-0.074,0.015-0.154,0.037-0.242,0.066
		s-0.176,0.059-0.265,0.088c-0.073,0.015-0.139,0.029-0.198,0.044c-0.103,0.029-0.198,0.059-0.287,0.088
		c-0.073,0.015-0.146,0.037-0.22,0.066c-0.088,0.029-0.168,0.059-0.242,0.088c-0.088,0.015-0.176,0.037-0.264,0.066
		s-0.169,0.059-0.242,0.088c-0.073,0.015-0.147,0.036-0.22,0.066c-0.088,0.015-0.162,0.036-0.22,0.065
		c-0.088,0.015-0.169,0.037-0.242,0.066c-0.088,0.029-0.169,0.059-0.242,0.088c-0.088,0.015-0.176,0.037-0.265,0.066
		c-0.073,0.015-0.139,0.036-0.198,0.065c-0.074,0.015-0.147,0.037-0.22,0.066c-0.059,0.029-0.118,0.052-0.176,0.066
		c-0.074,0.029-0.147,0.059-0.22,0.088c-0.323,0.103-0.639,0.205-0.947,0.309c-7.928,2.73-15.393,6.459-22.396,11.187l-0.022,0.022
		c-0.015,0-0.029,0.007-0.044,0.021c-0.015,0-0.022,0.008-0.022,0.022c-0.015,0.015-0.029,0.021-0.044,0.021
		c-0.015,0.015-0.029,0.029-0.044,0.044h-0.022c-0.015,0-0.022,0.008-0.022,0.022c-0.015,0-0.022,0.008-0.022,0.022
		c-0.015,0-0.029,0.007-0.044,0.021c-0.015,0-0.022,0.008-0.022,0.022c-0.029,0-0.044,0.007-0.044,0.021
		c-0.015,0-0.022,0.008-0.022,0.022c-0.015,0-0.029,0.007-0.044,0.021l-0.022,0.022c-0.015,0-0.029,0.007-0.044,0.021
		c-0.015,0-0.022,0.008-0.022,0.022c-0.015,0-0.029,0.008-0.044,0.022h-0.022l-0.044,0.044c-0.162,0.103-0.323,0.213-0.484,0.33
		c0-1.586,0.727-3.105,2.18-4.559c1.218-1.204,2.907-2.327,5.065-3.369c7.385-3.788,15.056-6.475,23.013-8.061
		c8.016-1.6,16.59-2.128,25.722-1.586c-0.235,0.06-0.462,0.141-0.683,0.243l-0.705,0.44c-0.573,0.353-1.035,0.675-1.388,0.969
		c-0.19,0.161-0.374,0.338-0.55,0.528c-0.029,0.029-0.059,0.059-0.088,0.088c-0.029,0.029-0.059,0.059-0.088,0.089
		c-0.044,0.029-0.081,0.065-0.11,0.109c-0.03,0.029-0.059,0.059-0.088,0.089c-0.029,0.029-0.059,0.059-0.088,0.088
		s-0.059,0.065-0.088,0.109h-0.022c-0.015,0.03-0.037,0.06-0.066,0.089h-0.022c-0.015,0.029-0.037,0.059-0.066,0.088
		c-0.03,0.029-0.059,0.066-0.088,0.11h-0.022c-0.029,0.029-0.051,0.059-0.066,0.088h-0.022c-0.029,0.029-0.059,0.059-0.088,0.088
		s-0.059,0.066-0.088,0.11h-0.022c-0.029,0.029-0.051,0.059-0.066,0.088h-0.022c-0.029,0.029-0.051,0.059-0.066,0.088
		c-0.029,0.029-0.059,0.066-0.088,0.11c-0.646,1.131-0.059,1.703,1.762,1.718c9.308,0.044,20.216,0.169,32.725,0.374
		c7.267,0.117,18.175,0.315,32.725,0.595c6.974-1.82,12.787-3.127,17.441-3.92c6.167-1.057,12.09-1.585,17.772-1.585
		c3.421,0,6.02-0.419,7.796-1.256c1.497-0.689,3.604-2.342,6.32-4.955c3.054-3.949,5.417-7.003,7.091-9.161
		c2.936-3.772,5.439-6.46,7.51-8.06c1.409,0.426,2.584,0.925,3.523,1.497c0.146,0.088,0.301,0.184,0.463,0.286
		c0.014,0.015,0.036,0.037,0.065,0.066c0.015,0,0.036,0.015,0.065,0.044c0.016,0,0.037,0.015,0.066,0.044
		c0.016,0,0.037,0.015,0.066,0.044c0.016,0.015,0.037,0.029,0.066,0.044c0.014,0.015,0.036,0.03,0.065,0.045
		c0.015,0.015,0.037,0.036,0.066,0.065c0.015,0,0.037,0.015,0.065,0.044c0.016,0.015,0.037,0.029,0.066,0.044
		c0,0.015,0.016,0.029,0.045,0.044c0.014,0.015,0.043,0.03,0.088,0.045c0.014,0.015,0.029,0.029,0.043,0.044
		c0.029,0.015,0.06,0.036,0.089,0.065c0.015,0,0.029,0.015,0.044,0.044c0.015,0,0.037,0.015,0.066,0.045
		c0.014,0.015,0.036,0.029,0.065,0.044c0.03,0.015,0.052,0.036,0.066,0.065c0.015,0,0.029,0.008,0.044,0.022
		c0.029,0.015,0.051,0.036,0.066,0.065c0.043,0.03,0.096,0.066,0.154,0.11c0.264,0.221,0.543,0.463,0.836,0.727
		c0.133,0.133,0.271,0.265,0.419,0.397c-1.909,1.79-4.235,4.778-6.981,8.962c-1.658,2.525-3.957,6.284-6.893,11.275
		c-0.602,0.954-0.683,1.784-0.242,2.488c-0.455,0.705-0.33,1.425,0.375,2.159c2.011,1.673,3.992,2.848,5.945,3.523
		c2.657,0.91,4.066,0.234,4.229-2.026c0.059-0.455,0.146-0.874,0.264-1.256c8.046,0.206,16.767-0.587,26.162-2.378
		c0.279-0.059,0.559-0.11,0.837-0.154c0.749,0,1.497-0.015,2.246-0.044c1.278-0.059,2.239-0.403,2.885-1.035
		c2.951-0.646,6.188-1.409,9.712-2.29c3.494-0.881,8.787-2.231,15.878-4.053c1.175-0.322,1.726-0.821,1.651-1.497
		c-0.059-0.66-0.652-1.284-1.783-1.872c-6.094-3.186-10.681-5.52-13.764-7.003c-5.153-2.451-9.866-4.434-14.139-5.945
		c-5.152-1.776-9.535-2.746-13.146-2.907c-4.977-0.205-9.25,0.991-12.817,3.59c-0.132-0.118-0.257-0.228-0.374-0.331
		c-0.264-0.234-0.514-0.447-0.749-0.638c-0.044-0.03-0.08-0.06-0.11-0.089c-0.029-0.015-0.051-0.029-0.065-0.044
		s-0.029-0.029-0.044-0.044c-0.016-0.015-0.037-0.029-0.066-0.044c-0.014-0.029-0.037-0.052-0.066-0.066
		c-0.014-0.015-0.029-0.021-0.043-0.021c-0.016-0.015-0.029-0.029-0.045-0.044c-0.029-0.029-0.051-0.052-0.065-0.066
		s-0.029-0.021-0.044-0.021c-0.029-0.03-0.052-0.052-0.066-0.066l-0.045-0.022c-0.029-0.029-0.051-0.051-0.064-0.065
		c-0.016-0.015-0.029-0.022-0.045-0.022c-0.029-0.029-0.051-0.052-0.066-0.066c-0.029-0.015-0.051-0.029-0.066-0.044
		c-0.029-0.015-0.051-0.029-0.065-0.044s-0.029-0.029-0.044-0.044c-0.029-0.015-0.052-0.029-0.066-0.044s-0.029-0.021-0.044-0.021
		c-0.029-0.015-0.052-0.03-0.065-0.045c-0.294-0.205-0.559-0.389-0.793-0.55c-1.043-0.676-2.291-1.256-3.744-1.74v0.022
		c-0.044-0.015-0.088-0.029-0.132-0.044c-11.745-1.836-23.021-2.753-33.825-2.753c-11.085,0-22.36,0.969-33.826,2.907
		c7.062-1.953,14.476-3.414,22.242-4.383l1.563-0.198c0.146-0.029,0.294-0.052,0.44-0.066l0.749-0.088
		c0.146-0.029,0.301-0.052,0.462-0.065c0.104-0.015,0.213-0.029,0.33-0.044c0.146-0.015,0.295-0.03,0.441-0.045
		c0.059-0.015,0.125-0.021,0.197-0.021l1.718-0.198c0.118-0.015,0.235-0.022,0.353-0.022l0.088-0.021l16.385-0.661
		c0.103,0,0.205,0.008,0.309,0.022c6.43-0.059,13.91,0.066,22.439,0.374c8.266,0.675,15.057,1.578,20.371,2.709
		c6.298,1.336,12.912,3.436,19.842,6.298c5.3,2.275,10.688,4.904,16.164,7.884c4.213,2.291,9.293,5.249,15.238,8.875l-5.945,1.541
		c4.479-0.938,7.957-1.563,10.438-1.871c0.749-0.088,1.409-0.154,1.981-0.198c4.082-0.294,8.729,0.08,13.939,1.123
		c4.068,0.866,7.855,1.784,11.364,2.753C351.024,184.552,351.392,184.75,351.611,184.941z M345.71,207.073
		c0.147-0.146,0.301-0.271,0.462-0.374l0.815-0.507l1.034-0.353c0.177-0.044,0.367-0.073,0.573-0.088
		c0.029,0,0.065,0.007,0.11,0.021c0.587,0,1.137,0.162,1.651,0.485c0.132,0.088,0.271,0.19,0.419,0.308
		c0.426,0.338,0.858,0.808,1.299,1.409c0.749,1.131,1.344,2.269,1.783,3.414c0.441,1.159,0.838,2.599,1.189,4.316
		c0.088,0.499,0.125,0.881,0.11,1.145c-0.03,0.353-0.146,0.728-0.353,1.123c-0.734,1.352-1.453,2.577-2.158,3.678l1.168-0.639
		c-0.999,0.881-1.527,1.344-1.586,1.388c-0.572,0.455-1.116,0.771-1.63,0.947c-0.969,0.308-1.432-0.977-1.388-3.854l-0.109-1.409
		c-0.045,0.47-0.088,0.962-0.133,1.476l0.088-11.43c0-0.631-0.096-0.969-0.285-1.013c-0.191-0.044-0.295,0.213-0.309,0.771
		l-0.133,7.972c-0.044,2.261-0.315,4.03-0.814,5.308c-0.396,0.983-0.705,1.571-0.925,1.762c-0.278,0.25-0.661,0.146-1.146-0.309
		c-0.338-0.337-0.543-0.484-0.616-0.44c-0.073,0.06,0.044,0.36,0.353,0.903l-4.118-3.259l0.396-2.885
		c0.383,0.66,0.918,1.453,1.608,2.378c0.028,0.044,0.374,0.484,1.034,1.321l-2.377-3.699c0.072-0.427,0.16-0.845,0.264-1.256
		l-0.419,1.101c0.03-0.748,0.133-1.497,0.309-2.246c0.088-0.411,0.198-0.814,0.33-1.211c0.279-0.837,0.697-1.791,1.256-2.862
		C344.183,208.938,344.932,207.808,345.71,207.073z M347.516,205.201l-0.221,0.088l-0.814,0.44
		c-0.631,0.411-1.219,1.006-1.762,1.784l-0.374,0.528c-0.118,0.191-0.235,0.389-0.353,0.595c-0.793,1.351-1.453,1.813-1.982,1.388
		c-0.527-0.426-0.426-1.256,0.309-2.489c2.408-4.081,4.705-6.033,6.893-5.857c0.543,0.044,1.064,0.22,1.564,0.528
		c1.482,0.866,2.796,2.855,3.941,5.968c0.074,0.191,0.139,0.375,0.198,0.551c0.19,0.528,0.367,1.064,0.528,1.607
		c0.543,1.806,0.947,3.663,1.211,5.571c0.029,0.265,0.066,0.536,0.11,0.815c0,0.088,0.008,0.184,0.022,0.286
		c0.029,0.19,0.051,0.389,0.065,0.595c0.03,0.367,0.06,0.741,0.089,1.123c0.059,1.043,0.096,2.166,0.109,3.369l-0.088,3.567
		c-0.029,0.499-0.059,1.014-0.088,1.542c0-0.455-0.008-0.896-0.022-1.321c0-0.088,0-0.177,0-0.265s0-0.176,0-0.264
		c-0.015-0.44-0.028-0.866-0.044-1.277c-0.014-0.088-0.021-0.177-0.021-0.265c0-0.044,0-0.088,0-0.132c0-0.088,0-0.162,0-0.221
		c-0.015-0.234-0.022-0.455-0.022-0.66l-0.044-0.728c0-0.014,0-0.028,0-0.043c-0.015-0.177-0.021-0.346-0.021-0.507
		c-0.016-0.176-0.022-0.345-0.022-0.507c-0.118-1.395-0.249-2.599-0.396-3.611c-0.528-3.553-1.526-6.658-2.995-9.315
		c-1.512-2.217-3.134-3.244-4.867-3.083C348.11,205.032,347.809,205.099,347.516,205.201z M348.551,207.932
		c0.015-0.426,0.088-0.616,0.221-0.572c0.131,0.059,0.189,0.286,0.176,0.683l-0.176,13.323c0.014,0.704-0.133,1.277-0.441,1.718
		s-0.543,0.265-0.705-0.528c0.162-0.03,0.258-0.184,0.287-0.463c0.044-0.278-0.037-0.426-0.242-0.44
		c0.088-0.426,0.19-0.683,0.309-0.771c0.117-0.103,0.264-0.022,0.439,0.242l0.177-2.444c-0.089,0.484-0.265,0.947-0.528,1.387
		c0.205-1.468,0.322-3.178,0.352-5.131L348.551,207.932z M347.824,223.369c0.22,0.117,0.403,0.081,0.551-0.11
		c0.088-0.117,0.213-0.396,0.374-0.836c-0.147,0.616-0.257,0.982-0.331,1.101C348.286,223.714,348.088,223.663,347.824,223.369z
		 M349.145,222.532c0.104,0,0.154,0.177,0.154,0.528c0,0.353-0.051,0.529-0.154,0.529c-0.102,0-0.153-0.177-0.153-0.529
		c0-0.029,0-0.051,0-0.065c0-0.029,0-0.052,0-0.066c0-0.264,0.036-0.396,0.11-0.396H349.145z M345.379,223.678
		c0.045,0.146,0.074,0.499,0.089,1.057l-3.59-2.95l1.233,0.639l-2.246-1.784l0.066-0.705l4.008,3.237
		C345.188,223.362,345.336,223.531,345.379,223.678z M347.01,223.061c0-0.029,0-0.051,0-0.065c0-0.029,0-0.052,0-0.066
		c0-0.264,0.043-0.396,0.131-0.396h0.045c0.103,0,0.154,0.177,0.154,0.528c0,0.353-0.052,0.529-0.154,0.529
		C347.068,223.59,347.01,223.413,347.01,223.061z M345.82,224.36c0.014,0.117,0.029,0.367,0.043,0.749l0.133-0.683
		c0.117,0.205,0.184,0.41,0.197,0.616c0,0.234-0.064,0.418-0.197,0.551c0.279,0.616,0.484,0.844,0.617,0.683
		c0.102-0.133,0.19-0.617,0.264-1.454c0.162,0.984,0.117,1.608-0.133,1.872c-0.249,0.265-0.551-0.015-0.902-0.837
		c-0.161-0.278-0.352-0.521-0.572-0.727c-0.088-0.073-0.316-0.249-0.683-0.528l0.33,0.727c-0.896-0.484-2.334-0.902-4.315-1.255
		c0.072-1.189,0.139-2.077,0.197-2.665l4.779,3.567v-1.188C345.71,224.037,345.791,224.229,345.82,224.36z M346.084,224.294
		c0.104-0.47,0.25-0.543,0.44-0.22c0.177,0.308,0.243,0.733,0.198,1.277c-0.088,0.455-0.168,0.697-0.242,0.727
		c-0.073,0.029-0.198-0.125-0.374-0.463C346.355,225.454,346.349,225.014,346.084,224.294z M347.163,226.254
		c0.044-0.689,0.081-1.093,0.11-1.211c0.073-0.235,0.242-0.389,0.506-0.463c-0.205,0.206-0.344,0.426-0.418,0.661
		C347.288,225.446,347.223,225.784,347.163,226.254z M343.838,224.999l1.079,0.462l0.484,0.485l0.419,0.946l0.197,0.815
		c0.104,0.381,0.184,0.748,0.242,1.101c-0.059-0.72-0.059-1.233,0-1.541c0.074-0.426,0.258-0.338,0.551,0.264
		c0.338,0.69,0.536,1.153,0.595,1.388c0.132,0.426,0.177,1.006,0.132,1.739c-0.029-0.646-0.117-1.196-0.264-1.651
		c-0.191-0.587-0.367-0.478-0.529,0.33c-0.117,0.471-0.124,0.911-0.021,1.321c0.088,0.455,0.271,0.609,0.551,0.463l-0.529,1.432
		c-0.146-0.367-0.242-0.69-0.285-0.969c-0.016-0.162-0.052-0.559-0.11-1.189c0.015,0.983-0.044,1.813-0.177,2.488
		c-0.455,2.129-1.189,4.786-2.202,7.972c-0.161,0.515-0.249,0.903-0.264,1.168c-0.03,0.396,0.059,0.74,0.264,1.034
		c-0.088-0.22-0.14-0.359-0.153-0.418c-0.016-0.104-0.008-0.265,0.021-0.484c0.059,0.381,0.139,0.587,0.242,0.616
		c0.088,0.015,0.184-0.125,0.287-0.418l2.069-7.62c0.265-1.101,0.565-2.063,0.903-2.885c-0.177,0.543-0.316,1.138-0.419,1.784
		l0.396-0.705c-0.059,0.206-0.11,0.411-0.154,0.617l0.265-0.881l0.021-0.022c0.045-0.25,0.104-0.44,0.176-0.573
		c0.06-0.117,0.162-0.249,0.309-0.396c0.235-0.118,0.36-0.338,0.375-0.661c0-0.322-0.118-0.499-0.353-0.528
		c0.161-0.265,0.213-0.536,0.154-0.815c-0.015-0.087-0.118-0.374-0.309-0.858c0.411-0.161,0.683-0.631,0.815-1.409
		c0.117-0.69,0.103-1.453-0.045-2.29l0.419-0.309c0.044,0.822,0.184,1.343,0.419,1.563c0.22,0.234,0.484,0.14,0.792-0.286
		c0.515-0.881,1.292-1.718,2.335-2.511c0.572-0.44,1.409-1.05,2.51-1.828c0.264-0.249,0.419-0.47,0.463-0.66
		c0.043-0.206,0.029-0.587-0.044-1.146c0.161,0.587,0.212,1.014,0.153,1.277c-0.043,0.235-0.22,0.514-0.528,0.837
		c-0.366,0.279-0.639,0.507-0.814,0.683c-0.265,0.265-0.515,0.588-0.749,0.969l1.058,0.133c-0.368,0.117-0.705,0.242-1.014,0.374
		l2.444-0.528l-0.021,0.484l0.109,0.242c0.266,4.404-0.249,8.999-1.541,13.786c-0.146,0.514-0.227,0.8-0.242,0.858
		c-0.117,0.221-0.257,0.309-0.418,0.265l-0.022-0.022c-0.22-0.338-0.507-0.866-0.858-1.586c0.278,0.617,0.521,1.116,0.727,1.498
		c-0.353-0.396-0.764-1.146-1.233-2.246l-0.97-2.313c0.309,1.013,0.463,1.527,0.463,1.542c0.176,0.719,0.104,0.844-0.221,0.374
		l0.705,2.885l-1.563-5.285c-0.572-1.776-0.976-3.157-1.211-4.14l-0.132-0.661c-0.294-0.837-0.617-1.028-0.969-0.573
		c-0.235,0.368-0.309,0.809-0.221,1.321c0.088,0.455,0.293,0.918,0.617,1.388c0.498,0.793,0.969,1.843,1.408,3.149
		c0.133,0.44,0.492,1.681,1.08,3.722l0.814,3.061l0.198,0.507c0.249-0.205,0.337-0.668,0.265-1.388
		c0.19,0.69,0.205,1.189,0.044,1.498c-0.118,0.19-0.22,0.271-0.309,0.242s-0.177-0.191-0.265-0.484
		c-0.676-2.569-1.174-4.375-1.497-5.418c0.528,2.511,0.565,2.996,0.11,1.454c0.161,0.998,0.396,2.628,0.704,4.889
		c0.103,0.837,0.066,1.49-0.11,1.96c-0.117,0.309-0.41,0.727-0.881,1.255c-1.013,0.837-1.894,1.263-2.643,1.277
		c-0.764,0.029-1.621-0.345-2.576-1.123c-1.292-1.292-2.305-2.98-3.039-5.064c-0.616-1.792-1.16-4.272-1.63-7.443l-0.022-2.842
		c0.089,0.866,0.191,1.711,0.309,2.533c-0.059-0.822-0.117-1.784-0.176-2.885l-0.044-6.122L343.838,224.999z M347.075,228.853
		c0.088,0,0.169,0.11,0.242,0.33c0.059,0.221,0.088,0.484,0.088,0.793s-0.029,0.572-0.088,0.793c-0.073,0.22-0.154,0.33-0.242,0.33
		c-0.103,0-0.184-0.11-0.242-0.33c-0.073-0.221-0.11-0.484-0.11-0.793s0.037-0.572,0.11-0.793
		C346.892,228.963,346.973,228.853,347.075,228.853z M347.252,226.563c0-0.499,0.065-0.925,0.197-1.277
		c0.117-0.353,0.265-0.528,0.441-0.528c0.189,0,0.344,0.176,0.462,0.528c0.132,0.353,0.198,0.778,0.198,1.277
		c0,0.514-0.066,0.947-0.198,1.299c-0.118,0.353-0.272,0.529-0.462,0.529c-0.177,0-0.324-0.177-0.441-0.529
		C347.317,227.495,347.252,227.062,347.252,226.563z M349.476,223.897c0.088-0.073,0.242-0.153,0.462-0.242
		c0.852-0.059,1.777-0.506,2.775-1.343c0.587-0.484,1.453-1.307,2.598-2.467c0.147,0.734,0.082,1.285-0.197,1.651
		c-0.088,0.104-0.404,0.323-0.947,0.661c-0.895,0.587-1.563,1.057-2.004,1.409c-0.778,0.603-1.387,1.307-1.828,2.114
		c-0.338,0.44-0.572,0.646-0.704,0.616c-0.19-0.029-0.367-0.382-0.528-1.057c0.22,0.279,0.359,0.154,0.418-0.374
		c0.044-0.5-0.096-0.653-0.418-0.463C349.233,224.154,349.357,223.986,349.476,223.897z M340.975,239.754
		c1.102,2.789,2.166,4.881,3.193,6.276c0.147,0.19,0.301,0.374,0.463,0.55c0.309,0.338,0.609,0.624,0.902,0.859
		c0.514,0.396,1.043,0.639,1.586,0.727c0.059,0.015,0.125,0.022,0.198,0.022c0.073,0.015,0.154,0.021,0.242,0.021l0.198-0.066
		l0.044-0.021l1.894-0.639l2.908-3.062c0-0.015,0.007-0.029,0.021-0.044v0.022c0.059-0.104,0.125-0.206,0.198-0.309v0.022
		c0.028-0.059,0.065-0.118,0.11-0.177c-2.35,5.344-4.919,6.989-7.708,4.934c-1.16-0.837-2.181-2.239-3.062-4.206
		c-0.852-1.909-1.424-4.001-1.718-6.276c0.015,0.059,0.036,0.117,0.066,0.176c0.015,0.059,0.036,0.117,0.065,0.176
		c0.059,0.147,0.118,0.301,0.177,0.463c0.015,0.044,0.037,0.096,0.066,0.154C340.865,239.489,340.916,239.621,340.975,239.754z
		 M348.969,231.253c-0.249-0.455-0.403-0.807-0.463-1.057c-0.088-0.426-0.036-0.845,0.154-1.256
		c0.324-0.352,0.596-0.213,0.815,0.419c0.044,0.117,0.184,0.727,0.419,1.827c0.616,1.968,1.512,4.934,2.686,8.897
		c0.074,0.426,0.11,0.719,0.11,0.881c0.015,0.294-0.036,0.551-0.153,0.771c-0.661-2.525-1.183-4.396-1.564-5.615
		C350.327,234.006,349.659,232.384,348.969,231.253z M329.127,250.677l0.309,0.044c-0.127-0.028-0.248-0.051-0.363-0.066
		C329.088,250.659,329.105,250.666,329.127,250.677z M333.796,242.99c0.044,0.147,0.089,0.294,0.132,0.44
		c0.162,0.03,0.301,0.066,0.419,0.11c0.881,0.353,1.695,1.277,2.444,2.775c0.029,0.059,0.059,0.117,0.088,0.176
		c0,0.015,0.008,0.029,0.021,0.044c0.984,1.762,1.704,2.899,2.159,3.414c0.353,0.41,0.785,0.8,1.299,1.167
		c0.514,0.366,1.108,0.712,1.784,1.035c0.059,0.015,0.109,0.036,0.154,0.065c-0.852-0.088-1.645-0.161-2.379-0.22
		c0.146,0.073,0.301,0.146,0.463,0.22l-8.258-0.969l-3.789-0.639c-0.117-0.044-0.227-0.096-0.33-0.154
		c-0.161-0.029-0.314-0.059-0.463-0.088c-0.455-0.088-0.888-0.184-1.299-0.286c-0.029,0-0.066-0.008-0.109-0.022
		c-0.016,0-0.029,0-0.045,0c-0.029-0.014-0.059-0.021-0.088-0.021c-0.088-0.029-0.168-0.052-0.242-0.066
		c-0.146-0.044-0.279-0.088-0.396-0.132c-0.103-0.044-0.19-0.081-0.264-0.11c-0.705-0.279-1.329-0.66-1.872-1.146
		c-0.06-0.059-0.11-0.109-0.154-0.153c0-0.015-0.007-0.022-0.022-0.022c-0.338-0.323-0.675-0.734-1.013-1.233
		c-0.059-0.073-0.11-0.146-0.153-0.221l-0.045-0.065c-0.029-0.044-0.059-0.088-0.088-0.132c-0.044-0.073-0.088-0.147-0.133-0.221
		c-0.029-0.029-0.051-0.065-0.065-0.109c-0.059-0.089-0.11-0.169-0.154-0.243c-0.015-0.029-0.029-0.059-0.044-0.088
		c-0.132-0.22-0.265-0.44-0.396-0.66c-0.015-0.044-0.037-0.088-0.066-0.133c-0.014-0.015-0.021-0.029-0.021-0.044
		c-0.073-0.132-0.146-0.264-0.221-0.396c-0.029-0.059-0.059-0.117-0.088-0.176c0-0.015-0.008-0.029-0.021-0.044l2.378-0.286
		c-0.029-0.074-0.059-0.146-0.088-0.221l0.925-0.088c0.015,0.059,0.037,0.125,0.066,0.198l2.598-0.33
		c-0.029-0.073-0.059-0.146-0.088-0.221l0.728-0.088c0.028,0.073,0.058,0.146,0.087,0.221l3.105-0.375
		c-0.029-0.059-0.051-0.117-0.066-0.176l0.705-0.11c0.029,0.073,0.059,0.146,0.088,0.221c1.014-0.089,1.836-0.096,2.467-0.022
		C333.37,243.16,333.488,243.035,333.796,242.99z M346.656,232.75l-2.378,9.404c-0.177,0.396-0.272,0.403-0.286,0.021
		c-0.016-0.352,0.021-0.704,0.109-1.057c1.028-3.626,1.814-6.644,2.357-9.052L346.656,232.75z M276.648,163.58l2.688,3.348
		l-2.93-2.863c-7.031-1.732-12.186-2.181-15.459-1.344c-3.993,1.014-7.7,4.243-11.121,9.689l-0.242-1.034
		c3.098-5.036,6.827-8.104,11.188-9.206C264.691,161.187,269.983,161.656,276.648,163.58z M279.16,176.551
		c0.293,0.132,0.551,0.264,0.771,0.396c0.528,0.338,0.991,0.727,1.387,1.167c0.367,0.396,0.683,0.852,0.947,1.365
		c0.103,0.221,0.206,0.448,0.309,0.683c0.073,0.221,0.146,0.448,0.22,0.683c0.016,0.074,0.037,0.154,0.066,0.242
		c0,0.015,0,0.03,0,0.045c0.029,0.102,0.051,0.205,0.066,0.308c0.029,0.103,0.051,0.22,0.065,0.353
		c0.015,0.029,0.022,0.059,0.022,0.088s0.008,0.059,0.021,0.088v0.089c0,0.015,0.008,0.036,0.022,0.065c0,0.029,0,0.059,0,0.088
		v0.066c0,0.015,0.007,0.036,0.022,0.066c0,0.132,0.007,0.264,0.021,0.396c0,0.073,0.008,0.146,0.021,0.22
		c0.016,0.426,0.016,0.801,0,1.123l-0.021,0.375c-0.015,0.044-0.021,0.095-0.021,0.153v0.022c-0.016,0.015-0.022,0.037-0.022,0.066
		c-0.015,0.029-0.022,0.065-0.022,0.109l-0.154,0.529c-0.043,0.088-0.08,0.176-0.109,0.264c-0.029,0.044-0.052,0.096-0.066,0.154
		l-0.176,0.309c-0.059,0.103-0.117,0.205-0.176,0.308c-0.074,0.089-0.148,0.184-0.221,0.287l-0.088,0.088l0.065-0.177
		c0.19-0.587,0.257-1.086,0.198-1.497c-0.029-0.19-0.08-0.359-0.154-0.507l-0.021-0.044c-0.059-0.103-0.133-0.19-0.221-0.264
		c-0.117-0.118-0.242-0.198-0.375-0.242c-0.425-0.177-0.916-0.104-1.475,0.22c-0.045,0.015-0.088,0.029-0.132,0.044l-0.022,0.021
		c-1.409,0.853-2.569,1.373-3.479,1.564c-1.087,0.22-2.349,0.14-3.788-0.242c-0.278-0.073-0.557-0.14-0.836-0.198
		c-0.088-0.015-0.177-0.029-0.266-0.044c-0.043,0-0.08,0-0.109,0c-0.044-0.015-0.088-0.022-0.132-0.022
		c-0.029-0.015-0.059-0.021-0.089-0.021c-0.043,0-0.08,0-0.109,0c-0.044-0.015-0.08-0.022-0.11-0.022c-0.044,0-0.088,0-0.132,0
		c-0.029-0.015-0.059-0.022-0.088-0.022c-0.045,0-0.081,0-0.111,0c-0.028-0.015-0.064-0.021-0.109-0.021h-0.021
		c-0.016,0-0.029,0-0.045,0h-0.021c-0.059,0-0.125,0-0.198,0c-0.015,0-0.03,0-0.044,0c-0.367-0.015-0.844-0.015-1.432,0
		l-0.528,0.021c-0.044,0-0.088,0.008-0.132,0.022c-0.029,0-0.066,0-0.111,0c-0.014-0.015-0.029-0.015-0.043,0
		c-0.044,0-0.088,0-0.133,0h-0.616c-0.059,0-0.103,0-0.132,0c-0.104-0.015-0.191-0.022-0.264-0.022h-0.066c-0.059,0-0.118,0-0.177,0
		c-0.029-0.015-0.059-0.021-0.088-0.021c-0.103,0-0.206-0.008-0.309-0.022c-0.117-0.015-0.228-0.029-0.33-0.044
		c-0.089-0.015-0.169-0.029-0.242-0.044c-0.161-0.029-0.309-0.059-0.44-0.088c-0.103-0.029-0.205-0.059-0.309-0.088
		c-0.029-0.015-0.059-0.022-0.088-0.022c-0.088-0.029-0.168-0.059-0.242-0.088c0-0.015-0.008-0.022-0.021-0.022h-0.023l-0.021-0.021
		c-0.484-0.19-0.859-0.448-1.123-0.771c-0.072-0.104-0.146-0.206-0.221-0.309c-0.014-0.029-0.021-0.052-0.021-0.066
		c-0.029-0.059-0.059-0.109-0.088-0.154c-0.073-0.161-0.133-0.33-0.176-0.506c-0.045-0.206-0.081-0.426-0.111-0.661
		c-0.029-0.308-0.029-0.631,0-0.969c0.03-0.66,0.154-1.417,0.375-2.269c0.133-0.528,0.286-1.013,0.463-1.453l0.021-0.044
		c0.045-0.103,0.096-0.206,0.154-0.309c0.015-0.044,0.029-0.088,0.044-0.132c0.089-0.191,0.184-0.367,0.286-0.528
		c0.088-0.177,0.191-0.331,0.309-0.463c0.146-0.22,0.309-0.418,0.484-0.595c0.234-0.249,0.492-0.462,0.771-0.639
		c0.396-0.264,0.844-0.455,1.343-0.572c0.177-0.044,0.382-0.066,0.616-0.066c0.676-0.059,1.615-0.021,2.819,0.11
		c0.939,0.103,2.048,0.265,3.325,0.484c0.631,0.132,1.219,0.271,1.762,0.419C277.061,175.736,278.279,176.14,279.16,176.551z
		 M289.466,170.143l0.154,0.11c0.044,0.029,0.081,0.058,0.11,0.088c0.014,0.015,0.029,0.029,0.043,0.044l0.111,0.066
		c0.059,0.044,0.124,0.095,0.197,0.153c0.06,0.044,0.117,0.089,0.176,0.133c0.089,0.073,0.177,0.146,0.266,0.22
		c0.088,0.073,0.176,0.146,0.264,0.221c0.059,0.059,0.125,0.117,0.198,0.176c0.044,0.029,0.088,0.065,0.132,0.11l0.133,0.11
		c0.029,0.044,0.072,0.088,0.132,0.132c0.015,0.015,0.036,0.036,0.065,0.066c0.045,0.029,0.081,0.059,0.11,0.088
		c0.015,0.014,0.03,0.029,0.044,0.044c0.441,0.41,0.873,0.844,1.299,1.299c0.016,0.015,0.037,0.037,0.066,0.066
		c0.25,0.279,0.5,0.565,0.75,0.858c0.41,0.484,0.814,0.991,1.211,1.52c0.117,0.162,0.234,0.323,0.352,0.484
		c0.367,0.515,0.734,1.058,1.102,1.63c0.043,0.073,0.096,0.154,0.154,0.242c0.073,0.117,0.146,0.242,0.22,0.375
		c0.015,0.015,0.037,0.044,0.066,0.088c0.044,0.073,0.088,0.146,0.132,0.22l0.132,0.221c0.073,0.117,0.147,0.242,0.221,0.374
		c0.044,0.074,0.088,0.154,0.132,0.242c0.074,0.132,0.146,0.265,0.221,0.396c0.117,0.206,0.234,0.418,0.352,0.639
		c0,0.015,0.008,0.029,0.022,0.044l0.242,0.661l-6.519,1.739c-0.072,0.015-0.139,0.029-0.198,0.044l-0.903,0.221
		c-2.305-4.845-5.534-10.688-9.689-17.529c3.245,1.145,6.057,2.591,8.436,4.338C289.414,170.091,289.437,170.112,289.466,170.143z
		 M275.283,174.921c-0.396-0.088-0.8-0.176-1.211-0.264c-1.468-0.265-2.73-0.448-3.787-0.551c-1.16-0.103-2.086-0.117-2.775-0.044
		l-3.281-8.391c1.336,0.044,2.709,0.19,4.118,0.44c0.881,0.162,2.231,0.447,4.052,0.858l6.365,9.008
		C277.809,175.597,276.648,175.244,275.283,174.921z M287.418,183.95c-1.645-3.127-3.406-6.057-5.285-8.787
		c-1.703-2.48-3.781-5.197-6.232-8.148c-4.272-0.998-7.414-1.607-9.426-1.827c-3.142-0.338-6.327-0.221-9.557,0.353
		c2.965-0.955,6.202-1.241,9.711-0.859c1.968,0.206,5.183,0.859,9.646,1.96c2.467,2.951,4.573,5.696,6.321,8.236
		c1.922,2.76,3.721,5.719,5.395,8.875L287.418,183.95z M254.803,184.566c-0.029,0-0.051,0-0.065,0c-0.03,0-0.052,0-0.066,0
		c-0.029,0-0.051,0-0.065,0c-0.029,0-0.059,0-0.088,0c-0.03-0.015-0.06-0.021-0.089-0.021c0.515-1.409,1.167-2.371,1.96-2.886
		c1.072-0.704,3.148-0.896,6.232-0.572c0,0.03,0,0.06,0,0.089c0,0.014,0,0.036,0,0.065s0,0.059,0,0.088c0,0.03,0,0.06,0,0.088
		c-0.015,0.03-0.015,0.06,0,0.089c-0.015,0.015-0.015,0.044,0,0.088c0,0.015,0,0.036,0,0.065c0,0.015,0,0.045,0,0.089
		c0,0.015,0,0.044,0,0.088c0,0.015,0,0.036,0,0.066c0,0.015,0,0.044,0,0.088c0,0.015,0,0.044,0,0.088c0,0.015,0,0.036,0,0.066
		c0,0.015,0,0.044,0,0.088c0,0.015,0,0.037,0,0.065c0,0.015,0.008,0.045,0.021,0.089c0,0.015,0,0.044,0,0.088
		c0,0.015,0.008,0.037,0.022,0.065c0,0.03,0,0.06,0,0.089s0.007,0.059,0.022,0.088c0.073,0.793,0.278,1.417,0.616,1.872
		c0.294,0.396,0.757,0.764,1.388,1.101c-1.453-0.22-2.782-0.403-3.986-0.55c-1.615-0.191-3.178-0.346-4.691-0.463
		c-0.029,0-0.058,0-0.087,0c-0.029-0.015-0.052-0.021-0.066-0.021c-0.044,0-0.073,0-0.089,0c-0.043-0.015-0.072-0.022-0.088-0.022
		c-0.029,0-0.059,0-0.088,0c-0.029-0.015-0.051-0.015-0.066,0c-0.028-0.015-0.058-0.022-0.088-0.022c-0.029,0-0.059,0-0.088,0
		c-0.029-0.015-0.051-0.015-0.065,0c-0.03-0.015-0.052-0.021-0.066-0.021c-0.029,0-0.059,0-0.089,0c-0.029,0-0.058,0-0.087,0
		s-0.052,0-0.066,0c-0.029-0.015-0.059-0.022-0.089-0.022C254.861,184.566,254.833,184.566,254.803,184.566z M254.671,184.853
		c0.03,0,0.066,0,0.11,0c0.029,0,0.059,0,0.088,0c0.015,0,0.037,0,0.066,0s0.059,0,0.088,0s0.059,0,0.088,0c0.016,0,0.037,0,0.066,0
		c0.015,0,0.037,0,0.066,0s0.059,0,0.088,0s0.059,0,0.088,0s0.052,0,0.066,0c0.029,0,0.059,0,0.088,0s0.059,0.008,0.088,0.022
		c0.029,0,0.059,0,0.088,0c0.015,0,0.037,0,0.066,0s0.059,0,0.088,0c0.426,0.029,0.859,0.066,1.299,0.11
		c0.721,0.059,1.439,0.125,2.158,0.198c0.045,0,0.096,0.007,0.154,0.021c0.559,0.059,1.168,0.133,1.828,0.221
		c1.204,0.161,2.584,0.367,4.141,0.616h0.021c0.793,0.323,1.77,0.609,2.929,0.859c0.191,0.029,0.382,0.065,0.573,0.109h0.021
		c0.029,0,0.059,0.008,0.088,0.022c0.074,0,0.141,0.007,0.198,0.021h0.022c0.029,0,0.059,0.008,0.088,0.022
		c0.045,0,0.088,0.008,0.132,0.022l-1.321,0.065c-0.939,0.044-1.762,0.066-2.467,0.066c-1.158,0-2.494-0.029-4.008-0.088
		c-0.514-0.029-1.042-0.059-1.585-0.089c-2.173-0.117-3.839-0.168-4.999-0.153c-0.029-0.015-0.051-0.015-0.066,0
		c-0.029-0.015-0.059-0.015-0.088,0c-0.029-0.015-0.051-0.015-0.066,0c-0.029-0.015-0.059-0.015-0.088,0
		c-0.014-0.015-0.029-0.015-0.043,0c-0.029,0-0.06,0-0.089,0c-0.03,0-0.052,0-0.066,0c-0.029,0-0.051,0-0.065,0
		c-0.029,0-0.052,0-0.066,0c-0.029,0-0.052,0-0.066,0c-0.029,0-0.059,0-0.088,0c-0.014,0-0.037,0-0.066,0s-0.051,0-0.066,0
		c-0.029,0-0.051,0-0.064,0c-0.03,0-0.06,0.007-0.089,0.021c-0.015-0.015-0.029-0.015-0.044,0c-0.029,0-0.052,0-0.066,0
		c-0.029,0-0.051,0.008-0.066,0.022c-0.029,0-0.051,0-0.065,0c-0.03,0-0.052,0-0.066,0c-0.029,0-0.051,0.007-0.065,0.021
		c-0.104,0-0.191,0.008-0.265,0.022c-0.382,0.073-0.734,0.184-1.057,0.33c-0.206,0.073-0.39,0.161-0.551,0.265
		c-0.06,0.029-0.118,0.065-0.177,0.109c-0.322,0.206-0.602,0.448-0.836,0.728l-1.102,2.929v0.022l-0.021,0.065
		c-0.118,0.91-0.463,1.526-1.035,1.85l-0.022,0.044c-0.632,0.323-1.52,0.301-2.665-0.065c-0.337-0.103-0.676-0.228-1.013-0.375
		c-0.366-0.161-0.734-0.338-1.101-0.528c-0.133-0.073-0.265-0.154-0.396-0.242c-0.133-0.073-0.265-0.146-0.396-0.221
		c-0.044-0.029-0.088-0.059-0.133-0.087c-0.088-0.045-0.168-0.096-0.242-0.155c-0.102-0.058-0.19-0.117-0.264-0.176
		c-0.088-0.059-0.176-0.117-0.264-0.176l-0.066-0.044c-0.029-0.015-0.059-0.037-0.089-0.066c-0.044-0.029-0.073-0.052-0.087-0.066
		c-0.045-0.015-0.082-0.036-0.111-0.065c-0.014-0.015-0.029-0.03-0.044-0.045s-0.029-0.021-0.044-0.021
		c-0.044-0.029-0.073-0.051-0.088-0.065c-0.029-0.015-0.052-0.03-0.066-0.045s-0.029-0.021-0.044-0.021
		c-0.103-0.089-0.198-0.169-0.286-0.242c-0.117-0.074-0.221-0.146-0.309-0.221c-0.014-0.015-0.029-0.029-0.044-0.044h-0.022
		l-0.021-0.022c-0.014-0.029-0.036-0.051-0.066-0.065c-0.088-0.073-0.176-0.147-0.264-0.22c-0.602-0.617-0.881-1.146-0.837-1.586
		v-0.022c0.015-0.073,0.036-0.146,0.065-0.22c0.104-0.294,0.354-0.588,0.75-0.881c0.131-0.104,0.278-0.206,0.439-0.309
		c0.294-0.176,0.588-0.338,0.881-0.484c0.455-0.25,0.91-0.47,1.365-0.661l0.551-0.22c0.367-0.146,0.734-0.271,1.102-0.375
		c0.117-0.044,0.228-0.073,0.33-0.088l2.356-0.353c0.059-0.015,0.124-0.021,0.198-0.021c1.174-0.059,2.342-0.081,3.502-0.066
		c0.19-0.015,0.389-0.015,0.594,0c0.822,0,1.637,0.022,2.445,0.066c0.014-0.015,0.036-0.015,0.065,0c0.03,0,0.06,0,0.088,0
		c0.015,0,0.037,0,0.066,0c0.015,0,0.029,0.007,0.044,0.021c0-0.015,0.008-0.015,0.021,0c0.016-0.015,0.037-0.015,0.066,0
		C254.642,184.853,254.656,184.853,254.671,184.853z M281.891,185.8c0,0.25-0.037,0.478-0.111,0.683
		c-0.102,0.221-0.256,0.404-0.462,0.551c-0.308,0.19-0.733,0.286-1.276,0.286c-0.852-0.015-1.932-0.265-3.238-0.749
		c1.879-0.969,2.863-1.475,2.951-1.52C281.178,184.522,281.891,184.772,281.891,185.8z M269.447,187.495c0.03,0,0.06,0,0.088,0
		c-0.16,0.03-0.314,0.052-0.461,0.066l-0.441,0.044c-0.969,0.118-1.924,0.235-2.863,0.353l-3.039,0.353
		c-0.029,0-0.065,0.007-0.109,0.021l-0.595,0.044c-0.088,0.015-0.177,0.022-0.265,0.022c-1.629,0.117-3.347,0.19-5.152,0.221h-0.045
		c-0.426,0.015-0.844,0.021-1.255,0.021l-1.388,0.022c-0.088,0-0.176,0-0.264,0c-0.015,0-0.029,0-0.044,0h-0.066
		c-0.015,0-0.036,0-0.065,0c0.059-0.47,0.132-0.91,0.22-1.321c0.03,0,0.052,0,0.065,0c0.016-0.015,0.029-0.022,0.045-0.022h0.021
		c0.016,0,0.037,0,0.066,0c0.016-0.015,0.037-0.021,0.066-0.021c0.014,0,0.036,0,0.065,0c0.015-0.015,0.044-0.022,0.089-0.022
		c0.015,0,0.029,0,0.044,0c0.028-0.015,0.058-0.022,0.087-0.022c0.016,0,0.037,0,0.066,0c0.016-0.015,0.037-0.021,0.066-0.021
		s0.059,0,0.088,0c0.015-0.015,0.029-0.015,0.045,0c0.029-0.015,0.059-0.015,0.088,0c0.015-0.015,0.036-0.015,0.065,0
		c0.015-0.015,0.036-0.015,0.066,0c0.015-0.015,0.036-0.022,0.065-0.022c0.016,0,0.037,0,0.066,0c0.015,0,0.037,0,0.066,0
		s0.059,0,0.088,0c0.015,0,0.037,0,0.066,0c0.558-0.029,1.203-0.021,1.938,0.022c0.764,0.029,1.916,0.088,3.457,0.176
		c1.968,0.191,4.229,0.25,6.783,0.177C267.781,187.569,268.508,187.54,269.447,187.495z M270.989,186.989
		c-0.294-0.044-0.579-0.088-0.858-0.132c0.748-0.133,1.438-0.229,2.069-0.287c0.118-0.015,0.235-0.021,0.353-0.021
		c0.5-0.044,0.962-0.052,1.388-0.022c0.19,0.015,0.382,0.029,0.572,0.044c0.044,0,0.096,0.008,0.154,0.022
		c0.06,0,0.118,0.007,0.177,0.021c0.895,0.147,1.827,0.419,2.797,0.815c-1.366,0-2.746-0.052-4.141-0.154
		C272.663,187.202,271.826,187.106,270.989,186.989z M264.955,185.403c0.029,0,0.059,0,0.088,0c0.279,0.029,0.551,0.052,0.815,0.066
		c0.704,0.059,1.284,0.103,1.739,0.132c0.588,0.044,0.947,0.073,1.079,0.088c0.661,0.089,0.852,0.265,0.573,0.529
		c-0.294,0.264-0.684,0.345-1.168,0.242c-0.176-0.029-0.337-0.059-0.484-0.089c-0.059-0.015-0.109-0.029-0.154-0.044
		c-0.322-0.073-0.587-0.132-0.793-0.176c-0.072-0.029-0.139-0.052-0.197-0.066C265.924,185.925,265.426,185.697,264.955,185.403z
		 M275.68,187.716c-8.441,1.541-16.01,2.246-22.704,2.114l0.286-0.749c5.828,0.059,12.288-0.47,19.379-1.586
		C273.654,187.599,274.667,187.672,275.68,187.716z M275.129,201.92c3.025-0.69,7.723-1.762,14.095-3.215
		c5.534-1.116,10.306-1.674,14.313-1.674c0.25,5.989-0.396,12.104-1.938,18.345c-1.703,6.826-4.176,12.383-7.421,16.67
		c5.021-2.305,9.374-7.224,13.06-14.755c2.906-5.96,4.954-12.405,6.143-19.335c0.441-1.747,0.154-2.87-0.857-3.369
		c-0.793-0.382-2.158-0.411-4.098-0.088C294.876,197.053,283.776,199.527,275.129,201.92z M283.168,185.514
		c6.475-1.395,14.131-3.377,22.969-5.946c0.411-0.117,0.925-0.271,1.541-0.462c0.441-0.206,0.705-0.595,0.793-1.167
		c0.646,0.689,0.727,1.226,0.242,1.607c-0.25,0.19-0.896,0.433-1.938,0.727c-5.873,1.512-10.285,2.643-13.236,3.392
		c-4.051,1.027-7.626,1.894-10.724,2.599C282.947,186.042,283.064,185.793,283.168,185.514z M301.798,184.699
		c0.515-0.133,1.043-0.257,1.586-0.375l0.661-0.176c-0.852,0.19-1.696,0.396-2.533,0.616L301.798,184.699z M300.389,184.522
		l0.683-0.209l-1.188,0.342C300.051,184.61,300.22,184.566,300.389,184.522z M297.328,185.822c0.064-0.025,0.135-0.047,0.209-0.066
		c-0.258,0.062-0.512,0.127-0.76,0.198L297.328,185.822z M218.907,162.236h0.573c-0.588,1.732-2.026,2.026-4.316,0.881
		c-1.968-0.998-3.414-2.209-4.338-3.634c5.328-0.132,10.166-0.08,14.512,0.154c5.256,0.279,10.049,0.845,14.381,1.696
		c1.203,0.484,1.864,0.866,1.981,1.145c0.132,0.309-0.147,0.977-0.837,2.004c-4.316-1.219-8.669-2.077-13.059-2.576
		c-4.58-0.514-9-0.609-13.258-0.286c0,0.733,0.609,1.138,1.828,1.211C217.506,162.89,218.35,162.691,218.907,162.236z
		 M192.459,159.285l8.192-0.704c0.044,0,0.088,0,0.132,0c0.63-0.059,1.285-0.117,1.96-0.177l-25.348,8.215
		c-2.672,1.115-5.315,2.261-7.928,3.436c-9.998,4.507-20.29,10.196-30.875,17.066l-0.154-0.021h-0.022l-0.506-0.11h-0.022
		l-0.33-0.066c-0.044-0.015-0.081-0.021-0.11-0.021c-0.029-0.015-0.051-0.022-0.066-0.022h-0.022l-0.33-0.066h-0.022l-0.462-0.088
		c-0.015-0.015-0.037-0.021-0.066-0.021l-0.308-0.066h-0.022l-0.176-0.044c-0.059-0.015-0.125-0.029-0.198-0.044l-0.132-0.022
		h-0.022l-0.33-0.065h-0.022l-0.176-0.044c-0.059-0.015-0.118-0.03-0.176-0.045c-0.029,0-0.059-0.007-0.088-0.021l-0.859-0.177
		c-0.015-0.015-0.029-0.021-0.044-0.021c-0.015,0-0.029,0-0.044,0c-0.103-0.029-0.206-0.052-0.308-0.066l-2.202-0.506
		c8.882-5.314,15.702-9.279,20.458-11.893c7.517-4.125,14.491-7.517,20.921-10.174c4.008-1.659,8.801-2.877,14.38-3.655
		C188.275,159.711,190.052,159.521,192.459,159.285z M202.523,171.419c-0.778,2.07-1.373,3.84-1.784,5.309
		c-0.484,1.731-0.859,3.553-1.123,5.461l-32.35,3.611l-20.326,0.683l2.885-4.757c9.176-5.271,17.207-8.984,24.092-11.143
		c7.179-2.262,15.863-3.715,26.052-4.36c-0.235,1.644-0.242,2.724-0.022,3.237C200.211,170.076,201.07,170.729,202.523,171.419z
		 M209.526,176.793c0.059-1.204,0.278-3.054,0.661-5.55c0.939-0.322,1.614-0.99,2.025-2.004c0.191-0.484,0.412-1.476,0.66-2.973
		c2.644,0.044,4.647,0.249,6.012,0.616c1.41,0.367,2.512,0.998,3.305,1.894c0.689,0.779,1.32,2.005,1.893,3.679
		c0.104,0.322,0.691,2.326,1.762,6.012c-1.893-0.147-3.354-0.096-4.381,0.154c-1.234,0.309-2.525,1.02-3.877,2.136
		c-1.321-0.176-2.635-0.096-3.941,0.242c-0.396,0.103-1.666,0.543-3.811,1.321C209.512,180.485,209.408,178.643,209.526,176.793z
		 M200.277,183.686l-28.1,3.105l20.348,0.572l-3.832,0.727l-46.84-0.506l-1.366-0.573l28.078-0.396l30.038-3.567L200.277,183.686z
		 M246.832,175.538l0.22,0.946c-2.026,3.156-3.7,6.343-5.021,9.558c-0.411,0.206-0.821,0.426-1.233,0.661
		c-0.146,0.088-0.278,0.184-0.396,0.286C242.398,182.79,244.541,178.973,246.832,175.538z M248.615,172.521l0.396-0.572
		l2.752,12.486c-0.205,0-0.403,0-0.594,0L248.615,172.521z M191.688,196.48c-0.558-0.029-0.991-0.066-1.299-0.11
		c-7.546-0.088-13.756,0.162-18.63,0.749c-5.961,0.705-12.046,2.085-18.256,4.14c-4.654,1.469-11.517,4.287-20.59,8.457
		c-8.486,3.891-12.971,5.888-13.456,5.99c-8.618,1.938-18.308,2.789-29.069,2.555c-4.962-0.118-10.732-0.5-17.309-1.146
		c-0.294-0.029-0.587-0.059-0.881-0.088c-0.294-0.03-0.595-0.06-0.903-0.088c-0.323-0.03-0.653-0.06-0.991-0.089
		c-0.705-0.088-1.417-0.168-2.136-0.242c-2.246-0.25-4.566-0.528-6.959-0.837c-2.599-0.353-4.309-0.727-5.131-1.123
		c-0.353-0.176-0.675-0.382-0.969-0.616c-0.059-0.059-0.11-0.11-0.154-0.154c-0.044-0.044-0.081-0.081-0.11-0.11
		s-0.059-0.059-0.088-0.088s-0.059-0.052-0.088-0.065c-0.661-0.779-1.042-1.799-1.145-3.062l-0.396,0.309
		c0,1.262,0.382,2.29,1.145,3.083c0.03,0.029,0.066,0.065,0.11,0.109s0.095,0.088,0.154,0.133c0.073,0.059,0.161,0.124,0.264,0.198
		c0.308,0.234,0.661,0.44,1.057,0.616c0.939,0.44,2.701,0.822,5.285,1.146c2.452,0.308,4.815,0.594,7.091,0.858
		c0.455,0.044,0.911,0.096,1.366,0.154c0.352,0.029,0.697,0.065,1.035,0.11c0.337,0.029,0.683,0.065,1.035,0.11
		c7.047,0.704,13.257,1.108,18.631,1.211c10.335,0.205,20.099-0.587,29.289-2.379c0.998,0.603,1.798,0.998,2.4,1.189
		c0.646,0.206,1.542,0.338,2.687,0.396c8.765-1.058,18.396-2.474,28.893-4.25c3.891-0.764,7.532-1.776,10.923-3.039
		c2.833-1.043,6.291-2.577,10.373-4.603c4.507-2.305,10.379-5.19,17.618-8.655C192.378,196.825,192.114,196.568,191.688,196.48z
		 M184.62,198.771c0.44,0.191,0.785,0.544,1.035,1.058c-0.029,0.059-0.059,0.117-0.088,0.176
		c-10.453,5.491-18.483,9.146-24.092,10.967c-4.566,1.498-11.525,2.914-20.877,4.25l-12.905,1.807
		c-1.585,0.19-2.68,0.271-3.281,0.242c-0.94-0.06-1.872-0.471-2.797-1.233c9.308-5.521,19.666-10.13,31.073-13.83
		c13.022-4.213,23.461-5.807,31.315-4.778c0.455,0.073,0.837,0.176,1.145,0.308c-0.44-0.088-1.116-0.153-2.026-0.197
		c-13.154,0.176-24.533,2.973-34.134,8.39c5.55-2.613,11.07-4.551,16.561-5.813c6.034-1.395,11.855-1.931,17.463-1.607
		C183.819,198.58,184.355,198.668,184.62,198.771z M224.678,180.713c0.19-0.059,1.453,0.228,3.787,0.859l-0.793,0.44l-1.828-0.221
		v1.388l-2.18,0.727C223.855,181.924,224.193,180.859,224.678,180.713z M251.94,188.024c0.177-0.118,0.36-0.213,0.55-0.286
		l0.243,1.188l-0.419,0.859L251.94,188.024z M251.809,187.495c-0.5,0.294-0.91,0.676-1.233,1.146l-0.089,0.242
		c0.309-0.528,0.721-0.954,1.234-1.277L251.809,187.495z M237.142,209.991c-0.08-0.094-0.161-0.193-0.242-0.298
		c1.277,1.189,2.444,2.394,3.502,3.612c0.968,1.086,1.856,2.18,2.665,3.281c0.615,0.866,1.188,1.747,1.717,2.643
		c0.559,0.91,1.05,1.827,1.476,2.753c1.88,4.022,2.892,8.617,3.039,13.785c0.015,0.367,0.029,0.741,0.044,1.123
		c0,0.353-0.008,0.697-0.021,1.035c-0.059,3.935-0.565,7.348-1.52,10.24c-0.088,0.279-0.184,0.558-0.287,0.837l-0.065,0.176
		l-2.026,4.316c-0.925,1.718-2.07,3.479-3.436,5.285c0.147-0.25,0.294-0.499,0.44-0.748c-0.073,0.073-0.14,0.153-0.198,0.242
		c0.162-0.294,0.323-0.58,0.484-0.859c-0.088,0.118-0.168,0.228-0.242,0.33c0.133-0.249,0.271-0.491,0.418-0.727
		c-0.058,0.074-0.117,0.146-0.176,0.221c0.133-0.221,0.258-0.448,0.375-0.683c-0.044,0.059-0.081,0.11-0.11,0.154
		c0.147-0.265,0.286-0.521,0.419-0.771c-0.06,0.074-0.117,0.154-0.177,0.242c0.117-0.22,0.235-0.44,0.353-0.66
		c-0.029,0.044-0.066,0.095-0.11,0.154c0.132-0.25,0.265-0.499,0.396-0.749c-0.059,0.073-0.11,0.146-0.153,0.221
		c0.087-0.177,0.176-0.346,0.264-0.507l2.334-6.122c0.045-0.206,0.088-0.411,0.132-0.617c0.749-3.332,0.991-7.208,0.728-11.627
		c-0.426-5.168-1.557-9.514-3.393-13.037c-1.614-3.098-4.117-6.218-7.509-9.359c-0.206-0.191-0.411-0.374-0.616-0.551
		c-0.309-0.264-0.617-0.536-0.926-0.814c3.465,2.129,5.352,2.958,5.66,2.488c0.088-0.146,0.037-0.426-0.154-0.837
		c-0.029-0.044-0.051-0.088-0.066-0.132c-0.029-0.015-0.043-0.029-0.043-0.044c-0.25-0.353-0.529-0.734-0.838-1.146
		c-0.059-0.088-0.125-0.176-0.197-0.265l0.021,0.022c-0.073-0.088-0.146-0.184-0.221-0.286c0.016,0.015,0.029,0.029,0.045,0.044
		c-0.088-0.103-0.169-0.206-0.242-0.309c0.014,0.015,0.029,0.029,0.043,0.044c-0.088-0.103-0.168-0.205-0.242-0.308l0.022,0.021
		c-0.132-0.176-0.271-0.353-0.418-0.528c0.015,0.015,0.036,0.037,0.065,0.066c-0.088-0.118-0.176-0.228-0.264-0.331
		c0.029,0.029,0.059,0.052,0.088,0.066c-0.103-0.103-0.198-0.213-0.286-0.33c0.029,0.029,0.059,0.059,0.088,0.088
		c-0.103-0.117-0.198-0.235-0.286-0.353c0.029,0.029,0.066,0.059,0.109,0.088c-0.102-0.117-0.205-0.234-0.308-0.352
		c0.029,0.029,0.065,0.059,0.11,0.088c-0.104-0.118-0.206-0.235-0.309-0.353C237.113,209.969,237.129,209.979,237.142,209.991z
		 M251.809,187.451v-0.021c-0.455,0.264-0.845,0.602-1.168,1.013l-0.043,0.132C250.92,188.119,251.324,187.745,251.809,187.451z
		 M241.304,226.65c-0.103,0.117-0.257,0.198-0.462,0.242l-2.951,0.551l-0.11-0.595l3.788-0.705
		C241.48,226.394,241.393,226.563,241.304,226.65z M228.244,211.059c0.396,0.118,0.801,0.258,1.212,0.419
		c4.757,1.615,8.625,4.866,11.606,9.756c3.67,6.004,5.307,12.956,4.91,20.854c-0.088,3.186-0.771,6.452-2.048,9.8
		c-1.292,3.392-3.04,6.481-5.241,9.271c-5.036,6.386-10.931,9.675-17.684,9.865c-5.242-0.059-9.873-1.952-13.896-5.682
		c-3.861-3.582-6.481-8.214-7.861-13.896c0.029-0.265,0.059-0.521,0.088-0.771c-0.015-0.029-0.022-0.052-0.022-0.066l0.396-3.215
		c0.015-0.118,0.029-0.228,0.044-0.331c0.044,0.382,0.088,0.764,0.132,1.146c0.999,4.302,2.635,8.178,4.911,11.627
		c-0.704-0.366-1.424-1.262-2.157-2.686c-0.734-1.63-1.226-2.724-1.476-3.282c0.822,2.188,1.476,3.686,1.959,4.493
		c1.131,1.938,2.21,2.466,3.238,1.585c3.288-3.361,5.931-6.599,7.928-9.711c0.689-1.102,1.071-2.43,1.145-3.986
		c0.06-1.292-0.103-2.849-0.484-4.668c0.088,0.146,0.184,0.3,0.287,0.462l-0.551-1.146l-1.277-1.365l-1.432-0.683l-3.215-0.683
		l-7.531-0.814c0.189-0.984,0.381-1.916,0.572-2.797c0.059-0.25,0.117-0.492,0.176-0.727l0.066-0.242
		c0-0.059,0.007-0.118,0.021-0.177h0.022c0.088-0.426,0.19-0.852,0.308-1.277l0.133-0.616l0.021,0.021
		c0.029-0.103,0.06-0.205,0.089-0.308h-0.022l1.123-4.03c0.016,0.015,0.037,0.029,0.066,0.044c0.029-0.117,0.066-0.228,0.109-0.33
		l-0.021-0.022l0.044-0.11c0.059-0.22,0.124-0.44,0.198-0.66l0.418-1.453l0.11-0.089c0-0.015,0.007-0.029,0.022-0.044l0.22-0.198
		c0.47-0.44,0.903-0.837,1.3-1.188l0.198-0.154c0.059-0.059,0.117-0.11,0.176-0.154l0.419-0.33c0.029-0.044,0.073-0.081,0.131-0.11
		c0.016-0.015,0.03-0.029,0.045-0.044s0.037-0.029,0.066-0.044c0.059-0.059,0.124-0.11,0.197-0.154l0.242-0.198
		c0.25-0.19,0.492-0.359,0.728-0.507c0.881-0.558,1.879-1.05,2.995-1.476l0.462-0.22c0.44-0.176,0.911-0.338,1.409-0.484
		l0.133,7.047c-0.045,0.015-0.081,0.036-0.11,0.066c-0.044,0.029-0.088,0.051-0.132,0.065v0.022
		c-0.045,0.015-0.088,0.036-0.133,0.065c-0.043,0.015-0.088,0.037-0.132,0.066c-0.044,0.015-0.088,0.037-0.132,0.066
		c-0.045,0.015-0.081,0.036-0.11,0.065v0.022c-0.118,0.059-0.228,0.125-0.33,0.198l-0.286,0.154h-0.022
		c-0.059,0.029-0.117,0.065-0.177,0.109l-0.22,0.133c-0.337,0.205-0.639,0.403-0.903,0.595c-0.014,0-0.029,0.007-0.043,0.021
		l-0.066,0.044c-0.059,0.03-0.117,0.066-0.176,0.11l-0.045,0.044l-0.154,0.11c-0.161,0.117-0.33,0.249-0.506,0.396l-1.63,1.651
		l-4.162-3.413l-0.11,0.374c1.454,1.263,2.665,2.269,3.634,3.017c1.307,1.014,2.636,1.932,3.986,2.753
		c2.144,1.102,3.516,1.652,4.118,1.652c0.91,0,2.048-0.734,3.413-2.202c0.778-0.896,1.307-1.997,1.585-3.304
		c0.206-0.998,0.295-2.356,0.266-4.074c-0.206-3.905-0.668-7.612-1.389-11.121c-0.22-0.778-0.514-1.226-0.881-1.343
		c-0.293-0.104-0.858-0.029-1.695,0.22c-2.173,0.866-4.118,1.938-5.836,3.215c-1.482,1.116-3.082,2.606-4.801,4.471
		c-0.043,0.044-0.08,0.081-0.109,0.11l1.497-3.545c2.129-2.217,4.36-3.862,6.694-4.934c0.969-0.455,2.004-0.822,3.105-1.101
		l3.479-0.639c0.455-0.059,0.926-0.104,1.41-0.133c0.074,0,0.146,0,0.221,0h0.132c0.103-0.015,0.213-0.021,0.33-0.021
		c0.073,0,0.147,0.007,0.22,0.021C224.993,210.332,226.674,210.574,228.244,211.059z M242.163,226.188
		c0.044-0.353-0.052-0.786-0.286-1.3c-1.234-2.73-2.775-5.036-4.625-6.915c-1.732-1.762-3.986-3.398-6.761-4.91
		c-0.705-0.338-1.248-0.521-1.63-0.551c-0.587-0.059-0.998,0.176-1.232,0.704c-0.676,2.261-1.336,5.095-1.982,8.501
		c-0.279,1.526-0.676,3.67-1.189,6.431l0.309,1.959c0-0.044,0-0.087,0-0.132c0.338,1.953,0.793,3.252,1.365,3.898
		c0.764,0.852,2.025,1.086,3.787,0.704c1.865-0.484,3.877-1.431,6.035-2.841c1.512-0.998,3.295-2.37,5.351-4.118
		C241.803,227.105,242.09,226.629,242.163,226.188z M218.731,216.41c-0.426-0.499-0.874-0.8-1.343-0.902
		c-0.455-0.089-0.991-0.022-1.608,0.198c-2.246,0.851-4.221,1.944-5.924,3.28c-1.159,0.926-2.782,2.504-4.866,4.735l0.99-2.62
		l0.021-0.022c1.998-1.908,3.656-3.369,4.978-4.382c1.762-1.336,3.663-2.475,5.704-3.414c0.837-0.234,1.365-0.345,1.586-0.33
		c0.381,0.044,0.66,0.367,0.836,0.969L218.731,216.41z M224.766,228.435l1.013-6.188c1.013,0.896,1.791,1.666,2.335,2.313
		c0.646,0.808,1.218,1.739,1.717,2.797c-0.322,1.248-0.712,2.165-1.167,2.752c-0.543,0.69-1.38,1.197-2.511,1.521l-1.035-1.123
		L224.766,228.435z M224.039,213.636c0.014-0.587-0.177-0.925-0.572-1.013c-0.396-0.074-0.609,0.205-0.639,0.836l-0.375,10.152
		c-0.044,1.469-0.139,2.716-0.286,3.744c-0.162,1.188-0.419,2.415-0.771,3.678c0.439-0.367,0.756-0.661,0.947-0.881
		c0.205-0.265,0.41-0.639,0.615-1.123l-0.506,3.523c-0.543-0.382-0.99-0.499-1.344-0.353c-0.308,0.132-0.616,0.499-0.924,1.101
		c0.587,0.03,0.836,0.258,0.748,0.684c-0.088,0.41-0.375,0.631-0.859,0.66c0.471,1.146,1.176,1.395,2.115,0.749
		c0.91-0.617,1.343-1.446,1.299-2.488L224.039,213.636z M230.579,225.968l1.63,0.507v-0.484c0.734,0.059,1.24,0.205,1.52,0.44
		c0.322,0.264,0.506,0.741,0.551,1.431c-0.294-0.646-0.595-0.961-0.903-0.946c-0.25,0.015-0.426,0.228-0.528,0.639
		c-0.104,0.411-0.052,0.733,0.154,0.969c0.234,0.294,0.616,0.323,1.145,0.088c-0.309,0.544-0.572,0.933-0.793,1.167
		c-0.234,0.25-0.602,0.528-1.101,0.837l-0.065-3.611l-1.586-0.683L230.579,225.968z M233.838,227.796
		c0,0.322-0.109,0.484-0.33,0.484c-0.088,0-0.162-0.044-0.22-0.132c-0.073-0.103-0.11-0.221-0.11-0.353
		c0-0.133,0.037-0.242,0.11-0.331c0.058-0.087,0.132-0.132,0.22-0.132C233.729,227.333,233.838,227.487,233.838,227.796z
		 M226.682,233.125c-0.646-0.338-1.146-1.064-1.498-2.181c0.602,0.749,1.227,1.3,1.872,1.652c0.22,0.132,1.013,0.477,2.378,1.035
		C228.024,233.514,227.107,233.346,226.682,233.125z M228.156,239.181c1.322-1.174,3.143-2.202,5.462-3.083
		c1.336-0.514,3.347-1.188,6.034-2.026c1.615-0.513,2.547-0.844,2.797-0.99c0.837-0.528,1.027-1.313,0.572-2.356
		c-3.436,1.674-6.026,2.855-7.773,3.546c-2.995,1.218-5.756,1.871-8.28,1.96c-0.69,0.146-1.138,0.264-1.344,0.352
		c-0.382,0.133-0.771,0.382-1.167,0.749c0.969-0.278,1.387-0.059,1.256,0.661c-0.045,0.264-0.177,0.462-0.396,0.594
		c-0.25,0.147-0.521,0.133-0.815-0.044c0.47,0.984,0.977,1.49,1.52,1.52C226.432,240.091,227.144,239.798,228.156,239.181z
		 M232.363,239.644c0.044-0.029,0.088-0.052,0.132-0.066c0.015-0.015,0.036-0.029,0.065-0.044l0.354-0.22
		c0.367-0.221,0.697-0.389,0.99-0.507c0.146-0.059,0.309-0.117,0.484-0.176l-0.528,0.22c0.044,2.144-0.146,4.39-0.572,6.739
		l0.616,0.088c0.426-2.114,0.639-4.485,0.639-7.113c0.015-0.015,0.029-0.022,0.045-0.022l0.881-0.264
		c0.16-0.059,0.33-0.11,0.506-0.154c0.059,3.068,0.021,5.277-0.11,6.628c-0.249,2.673-0.866,4.758-1.85,6.255
		c0.294,0.411,0.331,0.749,0.11,1.013c-0.059,0.073-0.375,0.323-0.947,0.749l-1.828-2.269l0.242-1.188
		c-0.777-0.778-1.219-1.358-1.32-1.74c-0.088-0.382-0.008-1.13,0.242-2.246c0.293-0.896,0.499-1.703,0.615-2.422
		c0.119-0.72,0.184-1.557,0.199-2.511C231.666,240.113,232.01,239.863,232.363,239.644z M227.605,239.137
		c0.06-0.602,0.045-1.064-0.043-1.387c-0.088-0.309-0.316-0.713-0.684-1.212l1.74-0.132c0.353-0.044,0.595,0.146,0.727,0.572
		c0.117,0.426,0.037,0.757-0.242,0.991L227.605,239.137z M223.158,243.871c-0.603,0.603-0.756,1.204-0.463,1.807
		c0.176,0.367,0.639,0.881,1.387,1.541c2.057,1.645,4.053,4.001,5.99,7.069c1.102,1.762,2.65,4.463,4.646,8.104
		c0.367-0.323,0.537-0.698,0.508-1.124c-0.016-0.249-0.141-0.668-0.375-1.255c-3.039-5.007-5.704-9.301-7.994-12.883
		c-0.764-1.674-1.174-2.555-1.233-2.643C224.963,243.563,224.142,243.358,223.158,243.871z M223.225,244.532
		c0.102,0,0.19,0.066,0.264,0.198c0.073,0.117,0.109,0.265,0.109,0.44c0,0.177-0.036,0.33-0.109,0.462
		c-0.073,0.118-0.162,0.177-0.264,0.177c-0.104,0-0.191-0.059-0.266-0.177c-0.073-0.132-0.109-0.285-0.109-0.462
		C222.85,244.745,222.975,244.532,223.225,244.532z M224.369,247.219c0.484-0.103,0.808-0.228,0.969-0.374
		c0.162-0.161,0.301-0.484,0.418-0.969l0.838,1.585l-1.168,0.728L224.369,247.219z M222.739,248.519
		c-1.233-0.382-2.276-0.169-3.127,0.639l-0.11,0.109l-0.858,1.344c-0.97,1.835-1.945,3.964-2.929,6.387
		c-0.133,0.308-1.102,2.833-2.907,7.575c-0.22,0.969-0.302,1.637-0.242,2.004c0.103,0.528,0.507,1.035,1.211,1.52
		c-0.366-0.353-0.595-0.616-0.683-0.793c-0.088-0.19-0.139-0.521-0.154-0.991c0.455,0.646,0.998,1.146,1.63,1.498
		c0.206,0.117,0.903,0.419,2.092,0.903c2.379,0.514,4.515,0.66,6.409,0.44c1.703-0.191,3.758-0.771,6.166-1.74
		c0.998-0.661,1.615-1.131,1.85-1.409c0.382-0.499,0.469-1.16,0.264-1.982c-0.631-2.716-1.438-5.292-2.422-7.729
		c-1.014-2.173-2.209-4.17-3.59-5.99C224.662,249.436,223.797,248.841,222.739,248.519z M231.35,249.421l-0.197,0.771l-0.838-1.256
		l0.066-0.616L231.35,249.421z M231.064,239.159c-2.951,1.688-3.715,4.199-2.291,7.531c0.939,1.864,2.225,3.817,3.854,5.857
		l1.365,1.608c1.028,1.145,1.924,2.114,2.688,2.906c0.719,0.705,1.416,1.3,2.092,1.784c2.246-2.672,3.861-6.188,4.845-10.549
		c0.749-3.303,1.146-7.193,1.189-11.671l0.286,0.33l0.044-0.705l-7.333,0.771C234.748,237.625,232.502,238.337,231.064,239.159z
		 M239.719,237.508c0.072,3.421-0.213,6.481-0.859,9.183c-0.66,2.805-1.806,5.652-3.436,8.545l-1.629-1.762
		c1.13-0.515,1.791-0.845,1.981-0.991c0.661-0.514,0.741-1.101,0.242-1.762c0.455,0.015,0.808-0.088,1.058-0.309
		c0.205-0.161,0.41-0.47,0.616-0.925c0.632-2.012,1.071-3.979,1.321-5.901c0.234-1.776,0.338-3.796,0.309-6.057L239.719,237.508z
		 M217.895,218.723h0.33c0.25,2.745,0.287,5.087,0.11,7.025h-1.343L217.895,218.723z M213.996,219.097l1.058-0.176v6.959
		l-1.101,0.176L213.996,219.097z M211.992,228.831c-0.072,0.426-0.154,0.792-0.242,1.101c-0.19,0.705-0.543,1.497-1.057,2.378
		l-0.044-0.021l-0.331-0.242c-0.029-0.015-0.051-0.029-0.065-0.044l-0.177-0.11c-0.029-0.015-0.051-0.029-0.065-0.044l-0.044-0.021
		c-0.015-0.015-0.029-0.029-0.044-0.044l-0.286-0.198c-0.045-0.03-0.081-0.052-0.11-0.066c-0.118-0.089-0.228-0.169-0.331-0.242
		c-0.029-0.029-0.065-0.052-0.109-0.066l-0.771-0.528c0.617-0.764,1.205-1.38,1.762-1.85c0.515-0.455,1.205-0.947,2.07-1.476
		L211.992,228.831z M200.123,243.035c0.015-0.03,0.022-0.06,0.022-0.089c0.25-1.086,0.448-1.989,0.594-2.708l0.066-0.309
		c0.029-0.19,0.059-0.367,0.088-0.528l3.92,1.894c0,0.029,0.008,0.052,0.022,0.066c0,0.015,0,0.029,0,0.044c0,0.029,0,0.059,0,0.088
		v0.022c0,0.029,0.007,0.059,0.021,0.088c0,0.029,0,0.065,0,0.11c0,0.029,0.008,0.059,0.021,0.088c0,0.015,0,0.037,0,0.065
		c0.016,0.074,0.022,0.155,0.022,0.242c0.015,0.133,0.036,0.265,0.066,0.397c0.015,0.205,0.044,0.411,0.089,0.616
		c0,0.029,0.006,0.065,0.021,0.11c0,0.044,0.008,0.088,0.021,0.132c0.015,0.146,0.044,0.301,0.088,0.463
		c0,0.028,0.008,0.065,0.022,0.109c0.015,0.104,0.037,0.213,0.066,0.331c0.015,0.043,0.029,0.088,0.044,0.132
		c0.088,0.382,0.191,0.749,0.309,1.101v0.022c0.014,0.029,0.029,0.059,0.043,0.088c0.016,0.059,0.037,0.117,0.066,0.177
		c0.029,0.103,0.066,0.205,0.11,0.308c0.029,0.059,0.06,0.125,0.089,0.198c0.029,0.059,0.058,0.118,0.087,0.177
		c0.015,0.044,0.03,0.088,0.044,0.132l0.022,0.021c0.044,0.089,0.089,0.184,0.132,0.287c0.104,0.19,0.213,0.389,0.33,0.594
		c0.06,0.104,0.117,0.206,0.177,0.309c0,0.015,0.007,0.022,0.022,0.022c0.059,0.103,0.124,0.213,0.197,0.33
		c0.074,0.117,0.154,0.242,0.242,0.374c0.059,0.089,0.125,0.177,0.199,0.265c0.059,0.088,0.125,0.184,0.197,0.286
		c0.045,0.073,0.096,0.146,0.154,0.221c0.074,0.103,0.154,0.213,0.242,0.33s0.184,0.234,0.287,0.353
		c0.029,0.044,0.059,0.08,0.088,0.109c0.029,0.044,0.059,0.081,0.088,0.11c0.029,0.044,0.059,0.081,0.088,0.11
		c0.029,0.044,0.059,0.081,0.088,0.11v0.021c0.029,0.029,0.059,0.066,0.088,0.11c0.06,0.073,0.125,0.146,0.199,0.22l-3.458,5.704
		c-1.806-1.688-3.098-3.142-3.876-4.36c-0.072-0.117-0.139-0.235-0.198-0.353c-0.029-0.029-0.052-0.059-0.065-0.088
		c-0.015-0.015-0.022-0.029-0.022-0.044c-0.015-0.029-0.036-0.066-0.065-0.11l-0.045-0.11c-0.102-0.176-0.198-0.352-0.286-0.528
		c0-0.029-0.007-0.044-0.022-0.044c-0.029-0.073-0.059-0.146-0.088-0.22c-0.03-0.06-0.059-0.118-0.088-0.177l-0.022-0.088
		c-0.015-0.029-0.029-0.052-0.044-0.066c-0.015-0.059-0.037-0.117-0.066-0.176c-0.03-0.059-0.051-0.11-0.066-0.154
		c-0.073-0.205-0.139-0.411-0.198-0.616c-0.176-0.573-0.308-1.167-0.396-1.784c-0.015-0.059-0.022-0.117-0.022-0.176
		c-0.014-0.073-0.021-0.147-0.021-0.221c-0.015-0.088-0.022-0.169-0.022-0.242l-0.022-0.198v-0.044
		c-0.015-0.146-0.022-0.286-0.022-0.418c0-0.029,0-0.052,0-0.066c0-0.044,0-0.088,0-0.133c0-0.469,0.029-0.976,0.088-1.519
		c0-0.03,0.007-0.052,0.022-0.066c0-0.073,0.007-0.14,0.022-0.198v-0.065C199.969,243.843,200.035,243.445,200.123,243.035z
		 M215.692,227.686l1.52,0.947l-0.947,1.343l-1.211-2.07v-1.739l0.661-0.044L215.692,227.686z M201.246,237.508
		c3.626,0.293,6.797,0.683,9.514,1.167c2.188,0.646,3.545,2.063,4.074,4.25c0.439,1.82,0.271,3.897-0.507,6.232
		c-0.954,1.776-2.165,3.567-3.634,5.373c-0.852,1.043-2.29,2.664-4.316,4.867l-0.197-1.607c2.554-3.289,3.867-4.992,3.941-5.109
		c1.248-1.938,1.945-3.891,2.092-5.858c0.073-1.159,0.044-2.085-0.088-2.774c-0.146-0.764-0.477-1.659-0.991-2.687
		c0.793,0.954,1.313,1.806,1.563,2.555c0.205,0.631,0.33,1.63,0.375,2.995c0.264-3.538-0.845-5.91-3.326-7.113
		c-1.32-0.646-4.213-1.175-8.676-1.586L201.246,237.508z M217.608,253.407l0.308-0.683c1.028,2.246,1.982,4.47,2.863,6.673
		l0.022,0.021v0.066c-0.089,0.029-0.177,0.059-0.265,0.088c-0.264,0.117-0.521,0.228-0.771,0.33
		c-1.584,0.603-3.281,0.822-5.086,0.661C215.824,257.555,216.801,255.169,217.608,253.407z M205.76,244.709
		c-0.248-0.823-0.439-1.901-0.572-3.237c1.88,0.969,2.525,3.031,1.938,6.188C206.494,246.573,206.039,245.59,205.76,244.709z
		 M218.313,252.769c-0.041,0-0.084,0-0.131,0c-0.016-0.015-0.029-0.021-0.045-0.022
		C218.195,252.746,218.254,252.754,218.313,252.769z M193.032,268.008l0.881-0.507c2.173,2.246,4.449,4.045,6.827,5.396
		c2.231,1.248,4.933,2.298,8.104,3.149c-3.26-0.603-6.1-1.52-8.522-2.753C197.884,272.045,195.454,270.283,193.032,268.008z
		 M194.375,267.281l0.661-0.639c2.511,2.599,4.992,4.595,7.443,5.99c2.394,1.365,5.381,2.503,8.964,3.413
		c-3.421-0.559-6.511-1.549-9.271-2.973C199.425,271.663,196.827,269.732,194.375,267.281z M191.843,268.559l0.705-0.309
		c1.645,1.497,3.795,3.186,6.452,5.065C196.254,271.891,193.869,270.306,191.843,268.559z M213.557,266.687
		c-0.029-0.015-0.051-0.029-0.066-0.044c-0.221-0.499-0.346-0.852-0.375-1.057c-0.014-0.235,0.052-0.603,0.199-1.102
		c2.539,0.837,5.102,1.102,7.686,0.793c2.231-0.279,4.72-1.035,7.465-2.269l0.088,0.066v-0.022l0.066,0.044
		c0.044,0.029,0.096,0.066,0.154,0.11c0.044,0.015,0.081,0.036,0.109,0.066c0.029,0.015,0.059,0.036,0.089,0.065l0.11,0.066
		c0.029,0.015,0.059,0.036,0.088,0.065h0.021l0.022,0.022l0.089,0.066c0.014,0,0.035,0.015,0.064,0.044
		c0.03,0.015,0.06,0.029,0.089,0.044l0.286,0.198c0.015,0.015,0.044,0.029,0.088,0.044l0.154,0.11
		c0.015,0.015,0.037,0.029,0.066,0.044c0.015,0,0.037,0.015,0.066,0.044l0.506,0.33l0.021,0.022
		c0.029,0.015,0.059,0.029,0.089,0.044l0.11,0.065c0.015,0.015,0.036,0.03,0.065,0.045l0.066,0.044l-0.022,0.374
		c-0.029,0.338-0.088,0.588-0.176,0.749c-0.104,0.19-0.389,0.455-0.859,0.792c-2.289,1.66-5.006,2.519-8.148,2.577
		c-2.157,0.044-4.096-0.301-5.813-1.035c-0.44-0.19-0.859-0.403-1.256-0.639c-0.059-0.029-0.109-0.059-0.154-0.088
		c-0.309-0.191-0.609-0.39-0.902-0.595c-0.015-0.015-0.029-0.029-0.045-0.044C213.586,266.716,213.57,266.701,213.557,266.687z
		 M201.225,252.02c1.057,1.718,1.731,2.768,2.025,3.149c0.807,1.115,1.695,1.982,2.664,2.599l0.133,1.806
		c-0.338,0.191-0.609,0.221-0.814,0.088c-0.016-0.015-0.221-0.242-0.617-0.683C203.338,256.924,202.207,254.604,201.225,252.02z
		 M225.117,253.099c-0.176-0.205-0.352-0.396-0.527-0.572c-0.338-0.353-0.668-0.653-0.992-0.903
		c-0.646-0.543-1.247-0.896-1.805-1.057c-0.646-0.176-1.63-0.029-2.951,0.44c1.131-1.146,2.158-1.534,3.083-1.167
		c0.866,0.353,1.945,1.395,3.237,3.127c0.402,0.52,0.828,1.114,1.277,1.783c0.039,0.06,0.08,0.118,0.121,0.177l-0.078-0.088
		c-0.014-0.029-0.029-0.059-0.043-0.089c-0.016-0.015-0.029-0.028-0.045-0.043c-0.072-0.089-0.139-0.177-0.197-0.265
		c-0.045-0.059-0.081-0.11-0.11-0.154l-0.132-0.177c-0.029-0.015-0.045-0.029-0.045-0.044c-0.059-0.073-0.117-0.146-0.176-0.22
		c-0.015-0.015-0.029-0.036-0.044-0.066l-0.044-0.044c-0.104-0.117-0.191-0.228-0.265-0.33
		C225.279,253.29,225.191,253.187,225.117,253.099z M220.691,252.284c0.044-0.029,0.088-0.052,0.133-0.066
		c0.014-0.015,0.029-0.021,0.043-0.021l0.021,0.021l0.023-0.021l0.043-0.022c0.016-0.015,0.029-0.021,0.045-0.021
		c0.014-0.015,0.029-0.022,0.044-0.022l0.022,0.022l0.021-0.022c0.015-0.015,0.029-0.022,0.044-0.022
		c0.029-0.015,0.065-0.029,0.11-0.044l0.021,0.022c0-0.015,0.008-0.022,0.022-0.022l2.95,5.241
		c-0.029,0.015-0.059,0.037-0.088,0.066c-0.103,0.073-0.205,0.146-0.309,0.221c-0.043,0.028-0.08,0.058-0.109,0.088
		c-0.029,0-0.044,0.007-0.044,0.021c-0.118,0.074-0.22,0.147-0.309,0.221c-0.029,0.015-0.059,0.036-0.088,0.066
		c-0.029,0.015-0.052,0.029-0.065,0.044c-0.029,0.015-0.045,0.029-0.045,0.043c-0.015,0-0.029,0.008-0.044,0.022
		c-0.154,0.113-0.305,0.224-0.452,0.331c0.104-0.079,0.21-0.16,0.32-0.243c0.029-0.029,0.059-0.051,0.088-0.065
		c0.014-0.015,0.037-0.03,0.066-0.045c0.014-0.014,0.029-0.028,0.043-0.043c0.045-0.044,0.089-0.081,0.133-0.11l-2.995-5.506
		c0.044-0.029,0.088-0.052,0.132-0.066c0.016-0.015,0.029-0.021,0.045-0.021l0.021,0.021c0.016-0.015,0.037-0.029,0.066-0.044
		c0.015-0.015,0.029-0.021,0.044-0.021c0.015-0.015,0.029-0.021,0.044-0.021V252.284z M219.37,252.703
		c0.044,0,0.081-0.008,0.11-0.022c0.059-0.015,0.125-0.029,0.197-0.044l0.287-0.089c-0.016,0.006-0.03,0.014-0.044,0.022
		c-0.073,0.015-0.14,0.037-0.198,0.066c-0.088,0.029-0.177,0.059-0.265,0.088c-0.073,0.015-0.146,0.029-0.22,0.044
		c-0.045,0-0.081,0-0.111,0h-0.021c-0.132,0.015-0.271,0.021-0.418,0.021c-0.016,0-0.029,0-0.044,0H218.6c-0.015,0-0.029,0-0.045,0
		c-0.037-0.009-0.074-0.016-0.109-0.021c0.073,0,0.154,0,0.242,0c0.014,0,0.029,0,0.044,0l0.528-0.044
		C219.289,252.725,219.326,252.718,219.37,252.703z M224.479,254.002c-0.953-1.233-1.673-2.158-2.158-2.775
		c0.999,0.793,1.836,1.623,2.512,2.489c0.557,0.719,1.182,1.717,1.871,2.995C226.058,255.977,225.316,255.073,224.479,254.002z
		 M319.129,213.834c1.336-2.202,2.701-4.324,4.097-6.364c1.263-1.864,2.54-3.663,3.832-5.396c-1.336,3.611-2.614,6.702-3.832,9.271
		c-0.69,1.453-1.358,2.737-2.004,3.854c-2.394,4.126-5.433,7.788-9.117,10.989C314.645,221.446,316.986,217.328,319.129,213.834z
		 M321.002,216.939c0.807-1.527,1.549-2.988,2.224-4.383c6.958-14.183,7.781-21.083,2.466-20.701l-6.914,0.925
		c-0.338,5.99-1.072,11.327-2.203,16.011c-1.218,5.05-3.046,9.925-5.482,14.622c-1.365,2.188-2.577,3.788-3.634,4.801
		c-1.101,1.058-2.745,2.166-4.933,3.325c4.434-1.629,7.941-3.501,10.525-5.615C315.313,224.074,317.962,221.079,321.002,216.939z
		 M136.854,175.34l0.771-0.309l-1.498,0.551c-0.47,0.234-0.866,0.462-1.189,0.683c-1.101,0.763-1.894,1.813-2.378,3.148
		l-1.695,0.815l-0.011,0.011l1.773-0.826c0.484-1.336,1.27-2.386,2.356-3.148c0.235-0.162,0.507-0.316,0.815-0.463
		c-0.279,0.146-0.528,0.294-0.749,0.44c-1.086,0.764-1.872,1.813-2.356,3.149l0.044-0.021c0.484-1.321,1.277-2.364,2.378-3.128
		c0.264-0.19,0.572-0.374,0.925-0.551c-0.319,0.184-0.605,0.36-0.859,0.529c-1.101,0.777-1.894,1.828-2.378,3.149l-0.308,0.143
		l0.375-0.165c0.484-1.321,1.27-2.364,2.356-3.127c0.323-0.221,0.705-0.44,1.146-0.661c0.117-0.059,0.235-0.117,0.352-0.176
		c0.03-0.015,0.059-0.022,0.088-0.022C136.825,175.347,136.839,175.34,136.854,175.34z M141.368,174.063
		c0.411,0,0.668,0.065,0.771,0.198c0.073,0.103,0.095,0.359,0.066,0.771c-4.669,2.613-8.64,4.566-11.914,5.857
		c0.337-2.451,1.703-4.228,4.096-5.329C136.002,174.811,138.329,174.312,141.368,174.063z M128.684,185.778
		c0.132-0.147,0.44-0.198,0.925-0.154c4.742,0.616,9.565,1.827,14.468,3.633l-5.352-0.153c-2.011-0.603-5.454-1.388-10.328-2.356
		C128.456,186.219,128.552,185.896,128.684,185.778z M128.64,187.342c0.176,0.029,0.353,0.065,0.529,0.109
		c0.176,0.029,0.352,0.059,0.528,0.089c0.044,0.015,0.095,0.029,0.154,0.044c0.161,0.029,0.315,0.059,0.462,0.088
		c0.015,0,0.029,0,0.044,0c0.059,0.015,0.118,0.029,0.176,0.044c0.029,0,0.066,0.008,0.11,0.022c0.029,0,0.066,0.007,0.11,0.021
		h0.022c0.059,0.015,0.11,0.029,0.154,0.044l0.154,0.022c0.117,0.015,0.228,0.036,0.33,0.065l0.154,0.044c0.015,0,0.03,0,0.044,0
		s0.037,0.008,0.066,0.022c0.103,0.015,0.213,0.037,0.33,0.066c0.03,0,0.066,0.007,0.11,0.021c0.029,0,0.059,0.008,0.088,0.022
		c0.059,0.015,0.117,0.029,0.176,0.044l0.573,0.132c0.059,0.015,0.118,0.03,0.176,0.044l0.132,0.022
		c0.132,0.029,0.257,0.059,0.375,0.088c0.073,0.015,0.154,0.037,0.242,0.066l0.132,0.021c0.235,0.059,0.462,0.118,0.683,0.177
		c0.073,0.015,0.154,0.036,0.242,0.065c0.029,0,0.066,0.008,0.11,0.022c0.073,0.015,0.146,0.036,0.22,0.065
		c0.22,0.045,0.433,0.096,0.638,0.154l-1.079-0.021h0.925c-0.044-0.015-0.096-0.029-0.154-0.044l-3.92,0.044l-5.88-0.044
		l2.731-1.586L128.64,187.342z M128.177,185.888v1.3h-3.567v-1.3H128.177z M118.862,186.659h-1.828
		c0.675-0.573,1.651-1.241,2.929-2.004L118.862,186.659z M119.104,187.407l1.145,1.321l-3.105,0.066
		c-0.792-0.235-0.91-0.756-0.352-1.563L119.104,187.407z M134.608,188.663c-0.015-0.015-0.03-0.022-0.044-0.022l-2.885,0.309
		l3.039-0.265L134.608,188.663z M65.327,197.824c-0.631,0.807-1.027,2.055-1.189,3.743c-1.042,0.911-2.378,2.034-4.008,3.37
		l-4.052,3.303c-1.277,1.027-2.217,1.703-2.819,2.026c-1.439,0.792-2.467,0.844-3.083,0.154c-0.191-1.014,0.168-2.137,1.079-3.37
		c2.393-2.056,5.183-4.169,8.368-6.342c1.468-0.999,4.412-2.899,8.831-5.704C66.604,196.576,65.562,197.516,65.327,197.824z
		 M136.744,178.467c13.815-7.399,27.212-13.096,40.19-17.089C162.752,166.913,149.355,172.608,136.744,178.467z M166.033,202.778
		c0.294,0.734-0.19,1.945-1.453,3.634c1.673-1.731,2.393-3.053,2.158-3.964c-0.25-1.013-1.652-1.328-4.206-0.946
		C164.572,201.604,165.739,202.03,166.033,202.778z M168.081,205.179c1.688-1.556,2.415-2.745,2.18-3.566
		c-0.25-0.911-1.652-1.197-4.206-0.859c2.041,0.103,3.208,0.491,3.501,1.167C169.835,202.58,169.344,203.667,168.081,205.179z
		 M171.626,203.55c1.688-1.219,2.415-2.151,2.18-2.797c-0.25-0.705-1.651-0.925-4.206-0.661c2.041,0.089,3.208,0.396,3.501,0.925
		C173.381,201.531,172.889,202.375,171.626,203.55z M162.465,203.946c-0.983-2.423-3.465-2.423-7.443,0
		c-1.174,0.719-3.663,2.643-7.465,5.77c2.07-1.497,4.082-2.855,6.034-4.074c2.32-1.468,3.729-2.195,4.229-2.181
		c-1.703,2.012-2.034,4.493-0.991,7.444c-1.732,0.689-4.081,1.263-7.047,1.718c-3.362,0.44-5.777,0.763-7.245,0.969
		c1.542-1.542,3.34-3.179,5.396-4.911c1.277-1.086,3.156-2.621,5.637-4.603c-2.687,1.953-6.907,5.204-12.663,9.756l-14.909,2.4
		c5.976-3.377,12.802-6.636,20.48-9.777l1.563-1.63c-7.766,3.215-16.26,7.032-25.479,11.451c0.808,0.484,1.571,0.734,2.291,0.749
		c0.308,0,1.13-0.125,2.466-0.375c0.734-0.103,4.507-0.616,11.319-1.541c4.522-0.616,8.222-1.197,11.099-1.74
		c8.295-1.57,15.393-3.92,21.295-7.047c-4.507,2.026-9.117,3.715-13.83,5.065c1.38-0.852,2.327-1.549,2.841-2.093
		c0.587-0.631,1.226-1.644,1.916-3.038c-0.72,1.145-1.38,1.996-1.982,2.554c-0.558,0.529-1.446,1.138-2.665,1.828
		c-0.558-1.027-0.764-2.173-0.617-3.436c0.147-1.13,0.543-2.136,1.189-3.017c0.661-0.866,1.395-1.351,2.202-1.454
		C160.968,202.617,161.761,203.021,162.465,203.946z M90.696,234.469c-4.022-0.118-8.052-0.235-12.09-0.353l-4.03-0.088
		c-0.807-0.059-1.629-0.118-2.466-0.177c-1.908-0.132-3.861-0.286-5.858-0.462c-9.043-0.808-15.87-1.784-20.48-2.929
		c0.015,0.044,0.037,0.095,0.066,0.153c0.191,0.515,0.418,1.014,0.683,1.498c0.778,1.424,1.798,2.679,3.061,3.766
		c1.585,1.365,3.223,2.18,4.911,2.444c5.785,0.852,9.874,1.424,12.267,1.718c3.949,0.499,7.766,0.646,11.451,0.44
		c2.438-0.191,4.786-0.778,7.047-1.762c2.364-1.014,4.265-2.32,5.704-3.92l0.264-0.33c-0.074,0-0.14,0-0.198,0H90.696z M82.9,250.17
		c-0.234-0.029-0.469-0.052-0.704-0.066c-4.742-0.382-9.315-0.917-13.72-1.607c-5.388-0.837-10.592-1.908-15.613-3.215
		c-0.191-0.044-0.382-0.096-0.573-0.154c-0.558-0.146-1.108-0.294-1.651-0.44c-0.25-0.073-0.492-0.14-0.727-0.198
		c-0.337-0.103-0.668-0.198-0.991-0.286c-0.367-0.118-0.705-0.228-1.013-0.331c-0.323-0.117-0.609-0.228-0.859-0.33
		c-0.616-0.249-1.071-0.491-1.365-0.727c-0.132-0.103-0.25-0.22-0.352-0.352c-0.132-0.133-0.25-0.279-0.353-0.44
		c-0.162-0.235-0.309-0.5-0.44-0.794c-0.059-0.102-0.11-0.205-0.154-0.308v-0.022c-0.015-0.044-0.029-0.08-0.044-0.11l-0.022-0.044
		c-0.015-0.028-0.022-0.051-0.022-0.065c-0.118-0.294-0.228-0.603-0.331-0.925c0.015,0.029,0.03,0.052,0.044,0.065
		c0.191,0.309,0.381,0.588,0.572,0.837c0.132,0.177,0.257,0.338,0.375,0.485c0.367,0.44,0.712,0.777,1.035,1.013
		c0.499,0.366,1.453,0.814,2.863,1.343c5.535,1.63,11.569,2.951,18.102,3.964c4.096,0.632,8.574,1.168,13.433,1.608
		c1.615,0.132,3.274,0.249,4.977,0.352c0.587,0.029,1.204,0.029,1.85,0c0.352-0.015,0.719-0.029,1.101-0.044
		c0.689-0.044,1.409-0.11,2.158-0.198c0.44-0.059,0.888-0.124,1.343-0.198c0.72-0.103,1.623-0.249,2.709-0.44l3.788-0.727
		c0.118-0.015,0.235-0.029,0.353-0.044c0.631-0.117,1.285-0.228,1.96-0.33l1.255-0.177c0.088-0.015,0.184-0.029,0.286-0.044
		c0.073-0.015,0.154-0.021,0.242-0.021l0.154-0.022c4.537-0.631,9.733-1.094,15.591-1.387c0.059-0.015,0.118-0.022,0.176-0.022
		l0.44-0.022c0.235-0.015,0.477-0.029,0.727-0.044c4.889-0.234,12.237-0.477,22.044-0.727l-0.969,0.705
		c-9.88,0.309-17.243,0.58-22.088,0.814c-0.837,0.044-1.659,0.088-2.467,0.132c-0.661,0.045-1.307,0.089-1.938,0.133
		c-1.498,0.103-2.937,0.212-4.316,0.33l-9.712,1.233c-0.426,0.073-0.836,0.154-1.233,0.242c-0.088,0-0.169,0.015-0.243,0.044
		c-0.088,0.015-0.176,0.029-0.264,0.044c-2.892,0.661-5.094,1.102-6.606,1.321c-2.393,0.353-4.617,0.47-6.673,0.353
		C84.317,250.28,83.605,250.229,82.9,250.17z M81.601,248.254c0.734,0.059,1.483,0.117,2.246,0.177
		c1.145,0.088,2.305,0.124,3.479,0.109l3.414-0.176c0.029,0,0.059,0,0.088,0c0.176-0.029,0.345-0.052,0.506-0.066
		c0.147-0.015,0.323-0.029,0.529-0.044l0.705-0.11c0.382-0.059,0.83-0.124,1.343-0.198l0.749-0.109
		c0.088-0.015,0.176-0.029,0.264-0.044l2.29-0.353c0.044-0.015,0.088-0.022,0.132-0.022s0.095-0.008,0.154-0.021
		c0.282-0.057,0.58-0.108,0.892-0.154c-0.014,0.007-0.025,0.014-0.033,0.021c0.118-0.029,0.243-0.051,0.375-0.065
		c-0.866,0.205-1.681,0.396-2.444,0.572l-1.454,0.286c-0.939,0.206-1.769,0.375-2.488,0.507l-0.815,0.154
		c-0.044,0.015-0.095,0.021-0.154,0.021c-0.19,0.029-0.381,0.059-0.572,0.088c-0.103,0-0.198,0.008-0.286,0.022
		c-0.059,0.015-0.118,0.022-0.176,0.022l-0.462,0.065c-1.967,0.191-3.876,0.221-5.726,0.088c-0.44-0.029-0.881-0.065-1.321-0.109
		c-1.292-0.118-2.547-0.228-3.766-0.331c-1.218-0.132-2.408-0.257-3.567-0.374c-2.393-0.25-4.632-0.514-6.717-0.793
		c-0.631-0.088-1.248-0.176-1.85-0.264c-5.784-0.867-11.15-1.989-16.098-3.369c-0.279-0.074-0.551-0.147-0.815-0.221
		c-1.365-0.382-2.313-0.712-2.841-0.991c-0.176-0.088-0.337-0.184-0.484-0.286l-0.176-0.11c-0.25-0.19-0.484-0.396-0.705-0.616
		c-0.235-0.25-0.455-0.521-0.661-0.815c0.998,0.676,2.099,1.256,3.303,1.74c0.543,0.221,1.116,0.411,1.718,0.572
		c8.457,2.291,18.146,3.957,29.069,4.999c0.396,0.029,0.8,0.066,1.211,0.11c0.323,0.029,0.654,0.059,0.991,0.088
		C81.491,248.254,81.542,248.254,81.601,248.254z M100.76,243.453l5.835-1.057c0.72-0.118,1.461-0.213,2.224-0.287
		c-1.351,0.823-2.672,1.381-3.964,1.675c-1.6,0.337-2.995,0.234-4.184-0.309C100.701,243.476,100.73,243.468,100.76,243.453z
		 M96.113,244.269c2.907-1.396,5.065-2.276,6.475-2.644c0.587-0.146,1.285-0.271,2.092-0.374c1.321-0.176,2.951-0.286,4.889-0.33
		l35.389-1.035l-0.903,0.771l-35.235,1.211c-0.044,0-0.081,0.008-0.11,0.022l-5.572,0.683c-0.25,0.044-0.499,0.088-0.749,0.133
		C100.525,243.057,98.433,243.578,96.113,244.269z M44.296,231.826c0.029,0.117,0.066,0.234,0.11,0.352
		c0.059,0.177,0.14,0.529,0.243,1.058c0.103,0.543,0.242,1.263,0.418,2.158l-0.55,1.321c-0.72-1.219-1.211-2.431-1.476-3.634
		c-0.25-1.071-0.36-2.371-0.331-3.898C43.43,229.961,43.958,230.842,44.296,231.826z M108.225,249.861l-0.572,0.925
		c1.615-0.132,4.037-0.315,7.267-0.55c2.79-0.265,5.168-0.712,7.135-1.344c-1.585,0.969-3.927,1.732-7.025,2.29
		c-1.556,0.279-4.324,0.632-8.302,1.058l-1.057,0.925c1.41-0.191,6.394-0.837,14.953-1.938c6.078-0.777,11.055-1.489,14.931-2.136
		c-1.365,0.852-2.944,1.424-4.735,1.718c-2.202,0.25-3.935,0.448-5.197,0.595l-18.982,2.378c-2.995,0.353-4.86,0.492-5.594,0.419
		c-1.718-0.161-3.296-0.991-4.735-2.488c1.776-0.221,3.354-0.316,4.735-0.287c1.468,0.015,3.039,0.169,4.713,0.463l-0.375,0.793
		c0.543-0.528,0.947-0.962,1.211-1.299c0.293-0.383,0.617-0.889,0.969-1.521H108.225z M42.16,244.444
		c0.103-0.338,0.242-0.653,0.418-0.947c0.279-0.499,0.646-0.954,1.101-1.365l1.189,1.057c-0.309,0.177-0.573,0.367-0.793,0.573
		c-0.191,0.161-0.36,0.33-0.507,0.507l-0.044,0.043l-0.066,0.11c-0.059,0.06-0.11,0.133-0.154,0.221
		c-0.146,0.205-0.257,0.426-0.33,0.66c-0.059,0.191-0.103,0.39-0.132,0.595c-0.015,0.104-0.022,0.213-0.022,0.331
		c-0.015,0.044-0.022,0.095-0.022,0.153c0,0.06,0.007,0.118,0.022,0.177c0,0.19,0.022,0.382,0.066,0.572
		c0.029,0.162,0.066,0.33,0.11,0.507c0,0.029,0.007,0.059,0.022,0.088c0,0.015,0.007,0.029,0.022,0.044c0,0.015,0,0.029,0,0.044
		c0,0.029,0.007,0.059,0.022,0.088c0,0.029,0.007,0.059,0.022,0.089c0,0.029,0.007,0.059,0.022,0.088
		c0,0.029,0.007,0.059,0.021,0.088l-1.079,0.969c-0.176-1.645-0.22-2.855-0.132-3.634c0-0.073,0.007-0.139,0.022-0.198
		c0-0.044,0.007-0.08,0.022-0.11c0.044-0.249,0.11-0.483,0.198-0.704C42.16,244.474,42.16,244.459,42.16,244.444z M128.838,253.781
		c-6.401,1.513-11.136,2.445-14.204,2.797c-5.241,0.616-9.829-0.059-13.764-2.026c4.096,1.469,8.706,1.961,13.83,1.477
		C117.739,255.749,122.452,255,128.838,253.781z M130.6,232.772c3.538-0.484,6.952-1.094,10.24-1.828L130.6,232.772z
		 M41.896,249.619l1.343-1.211c5.461,1.908,9.389,3.179,11.782,3.81c3.861,1.013,9.154,2.041,15.878,3.083
		c-2.599,0.045-6.768,0.125-12.509,0.242c-4.859-0.073-8.507-0.572-10.945-1.497C44.494,252.739,42.644,251.264,41.896,249.619z
		 M43.635,248.254l0.022-0.021l1.035-0.815c0.294-0.234,0.587-0.47,0.881-0.704l0.022-0.022c0.015-0.029,0.037-0.052,0.066-0.066
		c4.918,1.381,9.932,2.555,15.041,3.523c4.639,0.881,9.734,1.66,15.283,2.335c0.132,0.015,0.264,0.029,0.396,0.044h0.044
		c0.015,0,0.037,0.007,0.066,0.021h0.022c0.03,0,0.059,0,0.088,0c0.059,0,0.11,0.008,0.154,0.022c0.029,0,0.066,0.008,0.11,0.022
		c1.629,0.19,3.142,0.396,4.537,0.616c0.088,0.015,0.184,0.029,0.286,0.044c0.015,0,0.037,0,0.066,0
		c0.073,0.015,0.154,0.029,0.242,0.044c0.234,0.029,0.462,0.066,0.682,0.11c1.909,0.294,3.509,0.595,4.801,0.902
		c3.289,0.778,6.871,2.063,10.747,3.854c1.732,0.705,3.333,1.131,4.801,1.277c1.101,0.103,2.782,0.059,5.043-0.132
		c5.77-0.911,11.004-1.895,15.702-2.951c2.188-0.5,4.382-1.027,6.584-1.586l7.333-2.136c0.015-0.015,0.029-0.022,0.044-0.022
		c0.029-0.015,0.066-0.021,0.11-0.021c0-0.015,0.008-0.022,0.022-0.022l1.321-0.418l-1.696,1.299
		c-0.132,0.103-0.257,0.205-0.375,0.309l-5.131,3.634c-0.529,0.352-1.057,0.696-1.586,1.035c-3.186,2.04-6.35,3.743-9.491,5.108
		c-2.613-0.866-4.948-1.461-7.003-1.783c-2.364-0.382-4.771-0.471-7.224-0.265c-1.13,0.073-2.084,0.117-2.863,0.132
		c-0.778,0.029-1.373,0.029-1.784,0c-0.206-0.015-0.418-0.036-0.639-0.065c-0.646-0.074-1.313-0.206-2.004-0.396
		c-0.705-0.177-1.446-0.411-2.224-0.705c-0.661-0.294-1.314-0.565-1.96-0.814c-0.22-0.088-0.44-0.169-0.661-0.242
		c-1.292-0.484-2.584-0.91-3.876-1.277c-1.307-0.367-2.606-0.69-3.897-0.969c-0.426-0.089-0.874-0.185-1.344-0.287
		c-0.176-0.029-0.345-0.059-0.506-0.088c-1.747-0.308-3.861-0.609-6.342-0.903c-0.852-0.102-1.747-0.205-2.687-0.308
		c-6.151-0.617-11.613-1.446-16.384-2.488C53.934,251.873,48.642,250.266,43.635,248.254z"/>
</g>
</svg>
