<?xml version="1.0" encoding="utf-8"?>
<!-- Generator: Adobe Illustrator 16.0.0, SVG Export Plug-In . SVG Version: 6.00 Build 0)  -->
<!DOCTYPE svg PUBLIC "-//W3C//DTD SVG 1.1//EN" "http://www.w3.org/Graphics/SVG/1.1/DTD/svg11.dtd">
<svg version="1.1" id="Layer_1" xmlns="http://www.w3.org/2000/svg" xmlns:xlink="http://www.w3.org/1999/xlink" x="0px" y="0px"
	 width="400px" height="400px" viewBox="0 0 400 400" enable-background="new 0 0 400 400" xml:space="preserve">
<g>
	<path fill-rule="evenodd" clip-rule="evenodd" fill="#BFCEC3" d="M273.918,66.344c0.462,0.539,0.693,1.168,0.693,1.887v25.89
		h11.249l-0.963,4.123c0.077,3.287,2.132,6.305,6.164,9.054h-16.45v10.132h17.837l-1.54,6.279c0.179,4.932,3.287,9.452,9.322,13.563
		h-25.619v13.253h30.127l-1.232,2.619c-0.719,2.261-1.027,4.585-0.924,6.973c0.333,7.577,5.072,14.422,14.215,20.535h-42.186v12.714
		h44.768l-1.772,3.853c-1.104,3.186-1.605,6.511-1.503,9.978c0.539,10.967,7.475,20.92,20.805,29.857h-62.297v18.764
		c0,0.307-0.039,0.604-0.115,0.885c-0.104,0.334-0.296,0.629-0.578,0.887c-0.438,0.539-0.977,0.809-1.619,0.809
		c-0.642,0-1.232-0.27-1.771-0.809c-0.463-0.463-0.693-1.053-0.693-1.771v-18.764h-16.297c-7.937-7.859-11.622-16.205-11.057-25.041
		c0.076-2.826,0.615-5.523,1.617-8.092l1.503-3.004h-12.444c-0.282-2.748-1.426-5.266-3.428-7.551h40.105v-12.714h-39.143
		l2.041-1.927c4.47-4.108,7.848-8.257,10.133-12.443c3.647-6.498,3.736-11.751,0.27-15.757h26.699v-13.253h-26.275l6.549-7.128
		c3.751-5.394,4.303-9.632,1.657-12.714h18.069v-10.132h-16.451l4.393-4.701c2.491-3.544,2.863-6.369,1.117-8.476h10.941v-25.89
		c0-0.719,0.23-1.348,0.693-1.887c0.463-0.463,1.053-0.694,1.771-0.694C272.941,65.65,273.48,65.881,273.918,66.344z
		 M192.204,77.978c0-0.745,0.23-1.387,0.693-1.926c0.462-0.437,1.014-0.654,1.656-0.654c1.644,0,2.466,0.86,2.466,2.581v25.89
		h11.096l-1.002,4.123c0.205,3.364,2.311,6.369,6.318,9.015h-16.413v10.133h17.645l-1.503,6.279
		c0.283,4.932,3.429,9.452,9.439,13.562h-25.582v13.292h30.127l-1.271,2.581c-0.796,2.285-1.117,4.623-0.963,7.011
		c0.309,7.552,5.061,14.396,14.254,20.535h-42.147v12.713h44.767l-1.772,3.814c-1.104,3.211-1.617,6.549-1.541,10.016
		c0.566,10.943,7.5,20.883,20.805,29.82h-62.258v14.371h-4.815v-14.371h-58.291c5.368-4.443,10.196-9.594,14.486-15.449
		c8.424-11.764,9.657-21.164,3.698-28.201h40.106v-12.713h-39.143c3.75-3.133,7.038-6.704,9.863-10.71
		c5.753-8.116,6.626-14.589,2.62-19.417h26.661v-13.292h-26.429l6.588-7.127c3.852-5.395,4.443-9.632,1.771-12.714h18.069v-10.133
		h-16.413l4.393-4.662c2.157-3.133,2.697-5.701,1.618-7.705c-0.154-0.282-0.334-0.539-0.54-0.771h10.942V77.978z"/>
	<path fill-rule="evenodd" clip-rule="evenodd" fill="#475651" d="M269.834,85.799l-72.815,9.131v-1.387l72.815-9.285V85.799z
		 M192.204,93.582v1.927l-9.517,8.359h-1.425c0.206,0.231,0.385,0.488,0.54,0.771L53.547,216.789l-1.502-0.811L192.204,93.582z
		 M299.422,309.637c-2.723,0.438-5.343,0.861-7.859,1.271c-18.39,2.877-31.874,4.314-40.453,4.314h-58.328
		c-7.962,0-20.226-1.311-36.792-3.93c-3.211-0.514-6.563-1.066-10.056-1.656c-25.993-4.494-38.989-9.016-38.989-13.561v-0.848
		h232.853v0.848C339.797,300.621,326.339,305.143,299.422,309.637z M301.464,311.1c0.025,0,0.064,0,0.116,0
		c19.904-3.363,32.516-6.779,37.832-10.246l8.053-0.809c1.104,0,0.281,1.309-2.466,3.928c-3.288,3.211-4.932,5.408-4.932,6.59
		c0,0.615-0.077,1.219-0.231,1.811c-0.282,0.924-0.809,1.783-1.58,2.58c-1.182,1.182-2.632,1.773-4.353,1.773h-57.058
		c-1.104,0,2.209-0.553,9.939-1.658C295.363,313.707,300.257,312.385,301.464,311.1z M287.748,107.297h1.656l63.53,137.962
		c4.007,0,3.044,5.752-2.89,17.26c-7.294,14.049-10.941,22.447-10.941,25.195v0.656H106.251v-0.656
		c0-3.467-10.363-16.746-31.091-39.836c-18.98-21.266-26.686-31.9-23.116-31.9l41.609,26.006l72.275,19.996l126.367,0.424
		l29.164-17.145h29.665l-32.593-50.045l0.848-1.85l27.354,42.264L287.748,107.297z"/>
	<path fill-rule="evenodd" clip-rule="evenodd" fill="#AC9E5F" d="M152.097,190.398c-7.936,10.659-13.497,23.245-16.681,37.756
		c-1.645,7.293-2.466,13.496-2.466,18.607l-69.54-23.809c21.087-0.078,42.212-5.549,63.375-16.412
		C137.367,201.146,145.805,195.766,152.097,190.398z M267.522,69.618v12.752h-20.419l6.434-6.319l-6.434-6.434H267.522z
		 M175.791,85.799l-6.279-6.473h20.381v12.752h-20.381L175.791,85.799z"/>
</g>
</svg>
