<?xml version="1.0" encoding="utf-8"?>
<!-- Generator: Adobe Illustrator 16.0.0, SVG Export Plug-In . SVG Version: 6.00 Build 0)  -->
<!DOCTYPE svg PUBLIC "-//W3C//DTD SVG 1.1//EN" "http://www.w3.org/Graphics/SVG/1.1/DTD/svg11.dtd">
<svg version="1.1" id="Layer_1" xmlns="http://www.w3.org/2000/svg" xmlns:xlink="http://www.w3.org/1999/xlink" x="0px" y="0px"
	 width="400px" height="400px" viewBox="0 0 400 400" enable-background="new 0 0 400 400" xml:space="preserve">
<g>
	<path fill-rule="evenodd" clip-rule="evenodd" fill="#B4C9BE" d="M245.658,264.866c-11.781,3.473-22.48,0.897-32.097-7.725
		c3.472,1.99,8.036,3.482,13.692,4.477c11.432,1.834,22.453,0.342,33.064-4.477L245.658,264.866z M254.115,240.493
		c11.431,1.814,22.461,0.322,33.092-4.477l-14.688,7.695c-11.782,3.492-22.481,0.927-32.098-7.695
		C243.913,238.007,248.479,239.499,254.115,240.493z M222.252,243.712c-11.763,3.492-22.452,0.927-32.069-7.695
		c3.472,1.99,8.027,3.482,13.665,4.477c11.449,1.814,22.48,0.322,33.092-4.477L222.252,243.712z M195.392,264.866
		c-11.763,3.473-22.462,0.897-32.098-7.725c3.492,1.99,8.056,3.482,13.694,4.477c11.45,1.834,22.481,0.342,33.093-4.477
		L195.392,264.866z M172.013,243.712c-11.782,3.492-22.559,0.927-32.332-7.695c3.648,1.99,8.291,3.482,13.927,4.477
		c11.45,1.814,22.481,0.322,33.093-4.477L172.013,243.712z M172.013,287.748c-11.782,3.491-22.559,0.926-32.332-7.696
		c3.648,1.99,8.291,3.482,13.927,4.478c11.45,1.813,22.481,0.321,33.093-4.478L172.013,287.748z M198.639,307.41
		c-11.782,3.472-22.481,0.896-32.098-7.725c3.648,1.989,8.291,3.481,13.928,4.477c11.45,1.989,22.48,0.497,33.092-4.477
		L198.639,307.41z M203.848,284.529c11.449,1.813,22.48,0.321,33.092-4.478l-14.688,7.696c-11.763,3.491-22.452,0.926-32.069-7.696
		C193.655,282.042,198.21,283.534,203.848,284.529z M248.877,307.41c-11.762,3.472-22.461,0.896-32.098-7.725
		c3.648,1.989,8.301,3.481,13.957,4.477c11.431,1.989,22.451,0.497,33.063-4.477L248.877,307.41z M254.115,284.529
		c11.431,1.813,22.461,0.321,33.092-4.478l-14.688,7.696c-11.782,3.491-22.481,0.926-32.098-7.696
		C243.913,282.042,248.479,283.534,254.115,284.529z M327.731,261.618c11.451,1.834,22.481,0.342,33.093-4.477l-14.659,7.725
		c-11.782,3.473-22.481,0.897-32.097-7.725C317.54,259.132,322.094,260.624,327.731,261.618z M322.758,243.712
		c-11.762,3.492-22.451,0.927-32.068-7.695c3.473,1.99,8.027,3.482,13.664,4.477c11.45,1.814,22.481,0.322,33.093-4.477
		L322.758,243.712z M295.898,264.866c-11.764,3.473-22.463,0.897-32.099-7.725c3.491,1.99,8.056,3.482,13.694,4.477
		c11.449,1.834,22.48,0.342,33.092-4.477L295.898,264.866z M300.872,304.221c11.45,1.989,22.48,0.487,33.092-4.507l-14.658,7.725
		c-11.782,3.492-22.481,0.918-32.099-7.725C290.68,301.704,295.234,303.206,300.872,304.221z M53.102,240.493
		c11.45,1.814,22.481,0.322,33.093-4.477l-14.922,7.695c-11.782,3.492-22.481,0.927-32.098-7.695
		C42.823,238.007,47.465,239.499,53.102,240.493z M39.175,280.052c3.648,1.99,8.291,3.482,13.927,4.478
		c11.45,1.813,22.481,0.321,33.093-4.478l-14.922,7.696C59.49,291.239,48.791,288.674,39.175,280.052z M145.152,264.866
		c-11.782,3.473-22.481,0.897-32.097-7.725c3.491,1.99,8.056,3.482,13.693,4.477c11.431,1.834,22.452,0.342,33.063-4.477
		L145.152,264.866z M94.885,264.866c-11.763,3.473-22.462,0.897-32.098-7.725c3.492,1.99,8.056,3.482,13.693,4.477
		c11.45,1.834,22.481,0.342,33.093-4.477L94.885,264.866z M89.413,236.017c3.648,1.99,8.291,3.482,13.927,4.477
		c11.45,1.814,22.481,0.322,33.093-4.477l-14.66,7.695C109.993,247.204,99.206,244.639,89.413,236.017z M103.34,284.529
		c11.45,1.813,22.481,0.321,33.093-4.478l-14.66,7.696c-11.781,3.491-22.568,0.926-32.361-7.696
		C93.061,282.042,97.704,283.534,103.34,284.529z M98.133,307.41c-11.782,3.472-22.481,0.896-32.098-7.725
		c3.648,1.989,8.291,3.481,13.928,4.477c11.45,1.989,22.48,0.497,33.092-4.477L98.133,307.41z M148.371,307.41
		c-11.762,3.472-22.462,0.896-32.098-7.725c3.667,1.989,8.319,3.481,13.957,4.477c11.431,1.989,22.452,0.497,33.063-4.477
		L148.371,307.41z M172.013,328.564c-11.782,3.472-22.559,0.897-32.332-7.725c3.648,1.989,8.291,3.482,13.927,4.477
		c11.45,1.99,22.481,0.498,33.093-4.477L172.013,328.564z M71.272,328.564c-11.782,3.472-22.481,0.897-32.098-7.725
		c3.648,1.989,8.291,3.482,13.927,4.477c11.45,1.99,22.481,0.498,33.093-4.477L71.272,328.564z M121.774,328.564
		c-11.781,3.472-22.568,0.897-32.361-7.725c3.648,1.989,8.291,3.482,13.927,4.477c11.45,1.99,22.481,0.498,33.093-4.477
		L121.774,328.564z M272.52,328.564c-11.782,3.472-22.481,0.897-32.098-7.725c3.491,1.989,8.057,3.482,13.693,4.477
		c11.431,1.99,22.461,0.498,33.092-4.477L272.52,328.564z M222.252,328.564c-11.763,3.472-22.452,0.897-32.069-7.725
		c3.472,1.989,8.027,3.482,13.665,4.477c11.449,1.99,22.48,0.498,33.092-4.477L222.252,328.564z"/>
	<path fill-rule="evenodd" clip-rule="evenodd" fill="#735C4C" d="M161.158,85.623c1.658-0.331,3.979-2.321,6.963-5.969
		c2.497-2.984,6.477-4.477,11.938-4.477l7.461,0.995V96.8c-3.141-5.13-7.12-7.032-11.938-5.706
		c-6.632,1.99-10.28,2.896-10.943,2.721c-5.461-1.814-8.524-5.374-9.187-10.68C157.598,85.282,159.5,86.11,161.158,85.623z
		 M186.525,72.427c0-1.658,0.829-2.487,2.487-2.487c1.502,0,2.252,0.829,2.252,2.487c0,0.995-0.419,1.746-1.258,2.253l4.243,155.222
		l-5.969,3.716V74.68C187.111,74.348,186.525,73.597,186.525,72.427z"/>
	<path fill-rule="evenodd" clip-rule="evenodd" fill="#344746" d="M286.798,160.498c5.638,11.606,9.362,24.041,11.177,37.306
		c0.839,6.476,1.171,11.869,0.996,16.181c-0.488-3.16-5.541-5.813-15.157-7.959c-11.118-2.496-22.237-2.087-33.356,1.229
		c-16.248,4.975-44.104,9.451-83.564,13.431c39.637-21.048,54.969-48.736,45.996-83.068c-2.809-10.786-7.949-21.573-15.42-32.36
		c-3.648-5.306-7.042-9.616-10.183-12.933C235.877,100.457,269.047,123.183,286.798,160.498z M185.297,206.26l-32.595,5.969
		c-22.55,2.497-35.979,0.508-40.291-5.969c4.798,0,11.431-4.389,19.896-13.167c16.912-17.595,34.575-48.277,52.989-92.05V206.26z
		 M223.86,252.285l-1.989-0.995c-1.678-0.487-4.087-1.561-7.227-3.219c-2.984-1.326-5.561-1.911-7.725-1.756
		c-1.99,0.177-4.644,1.005-7.959,2.487c-3.648,1.658-6.379,2.653-8.193,2.985l-1.755,0.497H176.08l-0.731-0.234
		c-1.834-0.663-4.575-1.492-8.222-2.487c-3.979-1.989-6.554-3.15-7.724-3.481c-2.146-0.839-5.131-0.341-8.954,1.492
		c-4.974,2.321-7.958,3.56-8.953,3.716l-2.721,0.995h-14.689c-2.477,0-3.882-3.063-4.213-9.188c0-7.139,0-11.537,0-13.195
		c-0.175-1.989,0.234-3.316,1.229-3.979l1.492-0.497c49.917,0.332,90.88-0.995,122.89-3.979c19.233-1.833,33.337-3.989,42.31-6.467
		c3.803-0.994,6.037-1.16,6.7-0.497l-0.234,1.492c-4.155,17.751-11.538,29.61-22.149,35.58l-4.477-1.492
		c-4.486-2.653-7.637-3.979-9.451-3.979c-2.32-0.176-5.14,0.653-8.455,2.487l-7.228,3.481l-0.233,0.234H223.86z"/>
</g>
</svg>
