<?xml version="1.0" encoding="utf-8"?>
<!-- Generator: Adobe Illustrator 16.0.0, SVG Export Plug-In . SVG Version: 6.00 Build 0)  -->
<!DOCTYPE svg PUBLIC "-//W3C//DTD SVG 1.1//EN" "http://www.w3.org/Graphics/SVG/1.1/DTD/svg11.dtd">
<svg version="1.1" id="Layer_1" xmlns="http://www.w3.org/2000/svg" xmlns:xlink="http://www.w3.org/1999/xlink" x="0px" y="0px"
	 width="300px" height="300px" viewBox="0 0 300 300" enable-background="new 0 0 300 300" xml:space="preserve">
<g>
	<path fill-rule="evenodd" clip-rule="evenodd" fill="#141414" d="M249.646,126.87c6.647-4.523,9.372-7.688,8.173-9.492
		c-1.018-1.61-6.231-2.119-15.644-1.525c-10.2,0.651-22.874,2.479-38.021,5.483c-0.229-0.468-0.439-0.908-0.634-1.319
		c16.871-4.661,33.217-7.567,49.037-8.721c13.753-1.017,21.185-0.628,22.292,1.165c1.063,1.622-3.97,6.031-15.096,13.228
		c-11.811,7.71-24.645,14.586-38.5,20.629c-3.895,1.725-8.424,3.632-13.587,5.723c-0.114,1.017-0.251,2.033-0.411,3.05
		c1.131-0.469,2.198-0.92,3.204-1.354c24.284-10.429,42.423-19.064,54.417-25.907c13.628-7.745,19.865-13.467,18.711-17.168
		c-1.017-3.187-9.029-4.157-24.039-2.913c-16.038,1.302-34.982,4.854-56.834,10.657c-0.457-0.868-0.828-1.531-1.113-1.987
		c24.227-6.054,44.165-9.727,59.814-11.017c15.74-1.245,24.188,0.143,25.341,4.164c1.257,4.192-5.042,10.674-18.898,19.447
		c-14.027,8.864-32.88,18.236-56.56,28.117c-1.61,0.662-3.227,1.325-4.849,1.988c-0.913,3.951-2.233,7.904-3.958,11.855
		c-7.195,16.712-19.4,28.598-36.615,35.656c-11.686,4.809-23.348,6.42-34.988,4.832c-2.375-0.309-4.734-0.742-7.076-1.303
		c-1.564-0.377-3.124-0.805-4.678-1.285c-2.49-0.754-4.94-1.662-7.351-2.724c0.046,0,0.097,0,0.155,0
		c-6.603-2.856-12.399-6.488-17.391-10.897c-1.325,0.309-2.639,0.617-3.941,0.926c-24.239,5.631-44.068,8.727-59.489,9.286
		c-14.586,0.503-22.502-1.325-23.748-5.483c-1.153-3.826,4.547-9.504,17.1-17.031c11.925-7.104,28.563-15.043,49.911-23.815
		c-0.868-4.821-1.159-9.738-0.874-14.753c0.548-9.366,3.061-18.276,7.539-26.729l0.909-1.593c0.091-0.091,0.228-0.343,0.411-0.754
		c0.068-0.194,0.148-0.354,0.24-0.479c0.103,0,0.462,0.022,1.079,0.068c-0.045-0.137,0.183-0.114,0.686,0.069
		c0.412,0.183,0.548,0.205,0.412,0.068c0.091-0.183,0.417-0.114,0.977,0.206c0.594,0.457,0.936,0.64,1.028,0.548
		c0.046-0.046,0.046-0.183,0-0.411c0.468,0.228,0.862,0.251,1.182,0.068c-0.045-0.137,0.091-0.183,0.411-0.137
		c0.148,0.045,0.405,0.114,0.771,0.206c0.091-0.411,0.531-0.434,1.319-0.068c0.971,0.457,1.502,0.686,1.594,0.686
		c0.411,0.148,0.337-0.126-0.223-0.823c0.24,0.045,0.565,0.091,0.977,0.137c0.319,0,0.502-0.092,0.548-0.274
		c0.24-0.091,0.749-0.16,1.525-0.205c0.091-0.137,0.623-0.251,1.593-0.343c0.091,0,0.28-0.143,0.565-0.428
		c0.183-0.183,0.571-0.16,1.165,0.069c0.229,0,0.6,0.022,1.114,0.068c0.411-0.046,0.617-0.206,0.617-0.479
		c-0.045-0.32,0.166-0.48,0.634-0.48c0.229,0,0.64,0.023,1.234,0.069c0.091-0.046,0.417-0.115,0.976-0.206
		c0.457-0.045,0.76-0.16,0.908-0.343c0.959-0.377,1.605-0.565,1.936-0.565c0.091-0.183,0.411-0.274,0.959-0.274
		c0.605-0.046,0.954-0.16,1.045-0.343c0.548-0.045,1.239-0.257,2.073-0.634c0.468-0.274,1.159-0.503,2.073-0.686
		c0.24-0.091,0.497-0.32,0.771-0.686c0.32-0.285,0.805-0.308,1.457-0.068c0-0.331,0.297-0.542,0.891-0.634
		c0.743-0.046,1.183-0.114,1.319-0.206c0.183-0.091,0.577-0.229,1.183-0.411c0.502-0.137,0.845-0.274,1.028-0.412
		c0.183-0.286,0.971-0.588,2.365-0.908c0.091-0.046,0.183-0.206,0.274-0.48c0.137-0.183,0.366-0.229,0.686-0.137
		c0.56,0.183,1.022,0.091,1.388-0.274c0.045-0.194,0.251-0.269,0.617-0.223c0.377,0,0.588-0.046,0.634-0.137
		c0.274,0.091,0.479,0.023,0.617-0.206s0.251-0.366,0.343-0.411c0-0.605,0.303-0.811,0.908-0.617
		c0.092-0.046,0.343-0.069,0.754-0.069c0.332,0,0.52-0.074,0.565-0.223c0.046-0.136,0.229-0.205,0.548-0.205s0.48-0.091,0.48-0.274
		c0.743,0.092,1.114-0.068,1.114-0.479c0.091-0.045,0.485-0.183,1.182-0.412c0.502-0.148,0.845-0.337,1.028-0.565
		c0.286-0.091,0.703-0.205,1.25-0.342c0.515-0.137,0.794-0.365,0.84-0.685c0.183-0.092,0.548-0.257,1.096-0.497
		c0.468-0.183,0.794-0.366,0.977-0.548l2.004-1.045c0.229-0.046,0.532-0.274,0.909-0.686c0.274-0.32,0.616-0.434,1.028-0.342
		c0.091-0.137,0.485-0.251,1.182-0.343c0.548-0.046,0.777-0.28,0.686-0.703c0.468,0.046,0.839-0.091,1.114-0.411
		c0.365-0.411,0.571-0.617,0.617-0.617c0.137-0.148,0.463-0.314,0.977-0.497c0.457-0.137,0.708-0.343,0.753-0.617
		c0.286-0.274,0.817-0.6,1.594-0.977l1.524-1.028c4.432-3.096,7.362-5.888,8.79-8.378l0.566-1.114
		c2.958,0.742,5.91,1.69,8.857,2.844c17.123,6.694,29.174,18.299,36.153,34.817l-2.364-4.901l-5.261,5.329
		c-0.742,0.776-2.198,1.696-4.369,2.758c-2.216,1.062-3.689,1.988-4.421,2.776c-0.56,0.605-1.524,1.291-2.896,2.056
		c-0.091,0.034-0.188,0.063-0.291,0.086c-2.444,0.697-4.569,1.485-6.374,2.364c-1.759,0.914-3.209,1.662-4.352,2.245
		c-0.48,0.137-0.943,0.263-1.389,0.377c-1.713,0.423-4.072,1.508-7.076,3.255c-2.57,1.542-4.169,2.639-4.797,3.29
		c-0.012,0.011-0.023,0.022-0.035,0.034c-0.604,0.651-5.082,3.101-13.433,7.351l4.986-1.954c3.644-1.519,6.317-2.855,8.019-4.009
		c1.484-1.017,4.095-2.376,7.83-4.078c4.706-2.125,8.121-3.764,10.246-4.917c2.673-1.485,6.18-2.456,10.521-2.913
		c4.478-0.514,7.413-1.114,8.807-1.799c2.308-1.199,4.546-3.552,6.717-7.059l-0.068-0.291c3.747,8.829,5.46,17.676,5.14,26.54
		c2.775-1.233,5.7-2.53,8.773-3.889C231.123,137.688,242.084,132.033,249.646,126.87z M153.129,108.862
		c0,0.183-0.229,0.297-0.685,0.343c-0.469,0.046-0.726,0.188-0.771,0.428c-0.228,0.046-0.479,0.16-0.754,0.343
		c-0.285,0.229-0.52,0.365-0.703,0.411c-0.183,0.046-0.434,0.183-0.753,0.411c-0.274,0.229-0.531,0.372-0.771,0.428
		c-0.228,0-0.457,0.138-0.685,0.412c-0.183,0.274-0.463,0.388-0.839,0.343c-0.183,0.045-0.691,0.297-1.525,0.754
		c-0.32,0-0.617,0.097-0.891,0.291c-0.366,0.274-0.594,0.434-0.686,0.48c-0.103,0.183-0.314,0.343-0.634,0.479
		c-0.365,0.092-0.616,0.16-0.753,0.206c-0.091,0.183-0.303,0.349-0.634,0.497c-0.365,0.091-0.64,0.16-0.822,0.206
		c-0.697,0.091-1.182,0.32-1.456,0.685c-0.183,0-0.412,0.115-0.686,0.343c-0.24,0.24-0.497,0.337-0.771,0.292l-1.457,0.686
		c-0.045,0.045-0.251,0.206-0.617,0.479c-0.229,0.183-0.531,0.251-0.908,0.206c-0.366-0.091-0.64,0-0.822,0.274
		c-0.183,0.286-0.417,0.405-0.703,0.36c-0.229,0-0.457,0.114-0.685,0.342c-0.274,0.229-0.548,0.343-0.823,0.343
		c-0.605,0-1.114,0.206-1.525,0.617c-0.423-0.091-0.748-0.017-0.977,0.223c-0.32,0.274-0.525,0.411-0.617,0.411
		c-0.137,0.137-0.394,0.251-0.771,0.342c-0.411,0.137-0.662,0.251-0.753,0.343c-0.229,0-0.463,0.115-0.703,0.343
		c-0.228,0.285-0.525,0.382-0.891,0.291c0,0.274-0.188,0.434-0.565,0.479c-0.411,0.046-0.731,0.068-0.959,0.068
		c-0.697,0.046-1.228,0.251-1.593,0.617c-0.046,0.045-0.371,0.068-0.977,0.068c-0.457,0-0.64,0.166-0.548,0.497
		c-0.183-0.046-0.343-0.023-0.48,0.068c-0.091,0.137-0.183,0.206-0.274,0.206c-0.377-0.091-0.634,0.023-0.771,0.343
		c-0.046,0.137-0.251,0.251-0.617,0.343l-0.908,0.137c-0.046,0.137-0.297,0.228-0.754,0.274c-0.422,0-0.657,0.097-0.702,0.291
		c-0.731,0.183-1.24,0.366-1.525,0.549c-0.548,0.274-1.028,0.434-1.439,0.479c-0.148,0.046-0.405,0.188-0.771,0.428
		c-0.274,0.137-0.571,0.183-0.891,0.137c-0.045,0-0.417,0.022-1.113,0.069c-0.412,0-0.594,0.16-0.548,0.479
		c-0.514,0-0.863,0.022-1.045,0.068c-0.366,0.046-0.571,0.206-0.617,0.48c-0.605,0.285-1.136,0.451-1.593,0.497
		c-0.045,0.137-0.302,0.228-0.771,0.274c-0.457,0-0.731,0.068-0.822,0.206c-0.046,0.274-0.577,0.411-1.593,0.411
		c-0.229,0.229-0.76,0.389-1.594,0.48c-0.137,0.091-0.531,0.137-1.182,0.137c-0.548,0-0.845,0.143-0.891,0.429
		c-0.045,0.274-0.325,0.411-0.839,0.411c-0.64,0-1.034,0.045-1.182,0.137l-2.005,0.479c-0.548,0-0.937,0.023-1.165,0.068
		c-0.423,0.046-0.68,0.166-0.771,0.36c-0.229-0.046-0.457,0.091-0.686,0.412c-0.24,0.228-0.634,0.228-1.182,0
		c-0.092,0.137-0.44,0.16-1.045,0.068c-0.548-0.046-0.8,0.045-0.754,0.274c0.138,0.697-0.462,0.811-1.799,0.343
		c0.045,0.274-0.143,0.411-0.565,0.411c-0.548-0.091-0.937-0.137-1.165-0.137c-0.183,0-0.44,0.074-0.771,0.223
		c-0.274,0.091-0.548,0.114-0.822,0.068c-0.651,0-1.183,0.068-1.594,0.206l-1.525,0.137c-1.428,0.137-2.787,0.206-4.078,0.206
		h-0.634c1.245,0.229,2.564,0.366,3.958,0.411c0.731,0.137,1.188,0.183,1.371,0.137c0.925,0.137,1.411,0.16,1.457,0.068h1.457
		c0.411,0.183,0.737,0.251,0.977,0.206c0.137-0.045,0.32-0.114,0.548-0.206c1.199,0.377,1.73,0.354,1.593-0.068
		c0.229-0.137,0.76-0.16,1.593-0.069c0.046,0,0.417,0.046,1.114,0.137c0.457,0.091,0.64,0,0.548-0.274
		c0.366,0.137,0.663,0.137,0.891,0c0.286-0.137,0.542-0.183,0.771-0.137c0.183,0,0.434-0.068,0.754-0.206
		c0.285-0.091,0.61-0.091,0.976,0c0.137-0.045,0.297-0.206,0.48-0.48c0.183-0.148,0.6-0.057,1.25,0.274c0.091,0,0.44,0,1.045,0
		c0.411,0,0.662-0.091,0.754-0.274c0.548-0.285,1.148-0.382,1.799-0.291c0.091-0.046,0.44-0.046,1.045,0
		c0.457,0.045,0.708-0.046,0.754-0.274c0.651-0.229,1.274-0.365,1.867-0.411c0.56,0.229,1,0.274,1.32,0.137
		c0.137-0.091,0.342-0.251,0.617-0.479c0.091-0.046,0.44-0.069,1.045-0.069c0.502,0,0.783-0.114,0.84-0.343
		c0.502,0.183,0.845,0.108,1.028-0.223c0.183-0.32,0.485-0.411,0.908-0.274c0.137-0.137,0.434-0.229,0.891-0.274
		c0.56-0.045,0.908-0.114,1.045-0.205c0.091-0.183,0.388-0.297,0.891-0.343c0.651,0,1.022-0.045,1.114-0.137
		c0.045-0.286,0.297-0.452,0.754-0.497c0.285-0.045,0.703-0.068,1.25-0.068c0.331,0,0.68-0.091,1.045-0.274
		c0.366-0.228,0.686-0.343,0.959-0.343l3.615-1.114c0.046,0,0.343-0.068,0.891-0.205c0.365-0.046,0.6-0.16,0.703-0.343
		c0.137-0.092,0.32-0.251,0.548-0.48c0.274-0.137,0.64-0.16,1.097-0.068c0.148-0.046,0.36-0.166,0.634-0.36
		c0.32-0.183,0.64-0.251,0.96-0.206c0.56-0.366,1.09-0.548,1.593-0.548l1.662-0.617c0.148-0.091,0.428-0.188,0.839-0.291
		c0.366-0.091,0.617-0.206,0.754-0.343c0.651-0.365,1.205-0.571,1.662-0.617c0.788-0.366,1.342-0.594,1.662-0.686l0.977-0.428
		l0.274-0.411c0.137-0.137,0.365-0.137,0.685,0c0.514-0.046,0.863-0.183,1.045-0.411c0.137-0.046,0.417-0.046,0.84,0
		c0.32,0,0.388-0.166,0.206-0.497c-0.24-0.366-0.217-0.549,0.068-0.549c0.183,0,0.434,0,0.754,0
		c0.137-0.365,0.531-0.479,1.183-0.342c0.091-0.412,0.439-0.548,1.045-0.412c0.091,0,0.182-0.143,0.273-0.428
		c0-0.229,0.206-0.251,0.617-0.069c0.137-0.045,0.32-0.091,0.548-0.137c0.194-0.091,0.314-0.229,0.36-0.411
		c1.005,0.32,1.371,0.206,1.097-0.343c0.696,0.229,0.977,0.046,0.839-0.548c0.274,0.091,0.479,0.04,0.617-0.154
		c0.091-0.229,0.229-0.32,0.412-0.274l0.977-0.48c0.045,0,0.16-0.091,0.342-0.274c0.137-0.183,0.32-0.229,0.548-0.137l1.885-0.977
		c13.103-6.968,22.954-14.193,29.556-21.674l-3.598-2.348c-0.549,0.743-1.308,1.593-2.279,2.553
		c-4.295,4.25-10.965,8.893-20.012,13.931L153.129,108.862z M160.051,127.145c-0.502-0.137-0.873-0.092-1.113,0.137
		c-0.137,0.366-0.297,0.6-0.479,0.703c-0.091,0.046-0.319,0.229-0.686,0.548c-0.285,0.229-0.61,0.343-0.977,0.343
		c-0.457,0.046-0.8,0.114-1.028,0.206c-0.377,0.091-0.588,0.302-0.634,0.634c-0.137,0.137-0.411,0.274-0.822,0.411
		c-0.423,0.137-0.702,0.274-0.839,0.412c-0.595,0-1.034,0.023-1.32,0.068c-0.457,0.046-0.594,0.325-0.411,0.839
		c-0.364-0.046-0.685,0.046-0.959,0.274c-0.468,0.319-0.725,0.502-0.771,0.548c-0.971,0.091-1.571,0.371-1.799,0.839
		c-0.879,0.274-1.479,0.548-1.799,0.823c-0.365,0-0.714,0.114-1.045,0.342c-0.319,0.229-0.571,0.395-0.753,0.497l-3.735,1.662
		c-0.697,0.502-1.32,0.754-1.868,0.754c-0.423-0.046-0.771,0.091-1.045,0.411c-0.274,0.331-0.577,0.468-0.908,0.411
		c-0.457-0.091-0.845-0.017-1.165,0.223c-0.286,0.274-0.542,0.457-0.771,0.549c-0.548-0.138-0.965-0.092-1.25,0.136
		c-0.229,0.32-0.435,0.526-0.617,0.617c-0.137,0.24-0.434,0.406-0.891,0.497c-0.56,0.091-0.908,0.183-1.045,0.274
		c-0.651-0.274-1.022-0.206-1.113,0.206c-0.091,0.457-0.343,0.617-0.754,0.48c-1.017,0.183-1.639,0.417-1.868,0.703
		c-0.183,0-0.394,0.205-0.634,0.616c-0.182,0.32-0.593,0.343-1.233,0.069c-0.092,0.183-0.417,0.297-0.977,0.343
		c-0.503,0.045-0.8,0.137-0.891,0.274c-0.514,0.046-1.143,0.257-1.885,0.634c-0.091,0.045-0.457,0.114-1.096,0.206
		c-0.423,0.046-0.657,0.183-0.703,0.411c-0.229,0.56-0.828,0.749-1.799,0.565c-0.137,0.137-0.458,0.229-0.959,0.274
		c-0.469,0.045-0.749,0.16-0.84,0.342c-0.411,0.457-1.011,0.617-1.799,0.48c-0.64-0.091-1.102-0.137-1.387-0.137
		c-0.412,0-0.526,0.234-0.343,0.703c-0.229,0-0.48,0.091-0.754,0.274c-0.285,0.229-0.611,0.297-0.977,0.206
		c0.046,0.274-0.229,0.343-0.822,0.206c-0.651-0.137-0.954-0.045-0.908,0.274c-1.199-0.457-1.753-0.32-1.662,0.411
		c-0.274,0-0.548,0.068-0.822,0.206c-0.331,0.148-0.611,0.223-0.839,0.223c0.045,0.274-0.16,0.411-0.617,0.411
		c-0.605-0.045-0.954-0.045-1.045,0c-0.183,0.229-0.714,0.343-1.594,0.343c-0.411,0.273-0.942,0.388-1.593,0.342
		c-0.274,0-0.525,0.068-0.754,0.206c-0.285,0.137-0.542,0.183-0.771,0.137s-0.434,0.074-0.617,0.36
		c-0.137,0.228-0.44,0.206-0.908-0.068c-0.731,0.091-1.24,0.183-1.525,0.274c-0.64-0.229-1.12-0.137-1.439,0.274h-0.908
		c-0.365-0.046-0.548,0.023-0.548,0.206c-0.971,0.183-1.736,0.298-2.296,0.343c-0.594-0.183-1.051-0.229-1.371-0.137
		c-0.331,0.183-0.588,0.32-0.771,0.411c-0.502,0.423-1.194,0.474-2.073,0.154c-0.274,0-0.942,0.046-2.004,0.137
		c-0.514-0.046-1.137-0.022-1.868,0.068c-0.103,0.138-0.359,0.16-0.771,0.069c-0.651-0.092-1-0.138-1.045-0.138
		c-0.32,0.091-0.875,0.068-1.663-0.068c-0.32-0.103-0.822-0.154-1.507-0.154l-1.388-0.206c-1.485-0.273-2.662-0.639-3.529-1.096
		c0.045,2.445,0.297,5.071,0.754,7.881c1.667,0.332,3.678,0.497,6.031,0.497l0.754-0.068c0.925,0.731,1.851,1.028,2.776,0.891
		c1.063-0.137,1.776-0.782,2.142-1.937c0.091-0.273,0.343-0.434,0.754-0.479c0.377-0.092,0.749-0.068,1.114,0.068
		c0.091,0.045,0.394,0.205,0.908,0.479c0.32,0.229,0.617,0.32,0.891,0.275l0.977-0.068l6.305-1.098
		c0.548-0.285,1.102-0.405,1.662-0.359c0.137,0,0.366-0.092,0.686-0.274c0.274-0.137,0.599-0.159,0.977-0.068
		c0.229,0,0.805-0.114,1.73-0.343l9.544-2.434c0.229,0.378,0.554,0.657,0.977,0.84c0.411,0.184,0.662,0.138,0.754-0.137
		c1.291-2.444,2.998-3.37,5.123-2.775c0.046,0.045,0.211,0,0.497-0.137l6.648-2.21c0.274-0.183,0.805-0.365,1.594-0.548
		c0.137-0.057,0.365-0.177,0.685-0.36c0.274-0.183,0.548-0.251,0.822-0.206c0.286,0,0.565-0.092,0.84-0.274
		c0.274-0.229,0.525-0.343,0.754-0.343c-0.046-0.229,0.188-0.343,0.703-0.343c0.502,0,0.799-0.074,0.891-0.223
		c0.046,0,0.349-0.068,0.908-0.206c0.366-0.091,0.594-0.229,0.686-0.411c0.422-0.045,0.954-0.251,1.593-0.617
		c0.377-0.091,0.908-0.303,1.593-0.634c0.046,0,0.114-0.046,0.206-0.138c0.091-0.045,0.211-0.045,0.359,0
		c0.046,0,0.457,0.28,1.233,0.84c0.515,0.274,0.863,0.206,1.045-0.206c0.137-0.194,0.229-0.337,0.274-0.428
		c0.045-0.183,0.045-0.389,0-0.617c-0.046-0.458,0.023-0.828,0.206-1.114c0-0.137,0.114-0.274,0.343-0.411
		c0.194-0.137,0.291-0.297,0.291-0.479c0.64-0.229,0.982-0.389,1.028-0.48c0.091,0,0.229-0.051,0.411-0.154
		c0.148-0.091,0.359-0.091,0.634,0c0.731,0.24,1.097,0.314,1.097,0.223c0.377,0,0.588-0.074,0.634-0.223
		c0.137,0.057,0.32-0.034,0.548-0.274c0.366-0.046,0.737-0.183,1.114-0.411c0.457-0.32,0.823-0.502,1.097-0.548
		c0.148-0.046,0.52-0.188,1.114-0.428c0.468-0.183,0.816-0.366,1.045-0.548l1.234-0.342c0.56-0.138,0.862-0.343,0.908-0.617
		c0.319-0.046,0.69-0.211,1.113-0.497c0.868,0.331,1.211,0.171,1.028-0.479c0.605-0.137,1.068-0.366,1.388-0.686
		c-0.183-0.423-0.091-0.657,0.274-0.702c0.045,0,0.416,0.022,1.113,0.068c0.697-0.457,1.137-0.686,1.319-0.686
		c0.046-0.183,0.183-0.297,0.411-0.342c0.138-0.046,0.343-0.091,0.617-0.138c0.24,0.046,0.383-0.074,0.428-0.359
		c0.047-0.229,0.229-0.297,0.549-0.206c0.229,0.046,0.434,0,0.617-0.137c0.183-0.137,0.371-0.206,0.564-0.206
		c0.047,0,0.115-0.16,0.206-0.48c0.046-0.24,0.251-0.286,0.617-0.137c0-0.422,0.303-0.611,0.908-0.565
		c0.319-0.32,0.662-0.48,1.028-0.48c0.137,0,0.325-0.068,0.564-0.205c0.184-0.137,0.365-0.183,0.549-0.137l0.754-0.703
		c0.422-0.183,1.045-0.502,1.867-0.959c0.24-0.091,0.588-0.228,1.045-0.411c0.412-0.194,0.668-0.406,0.771-0.634
		c0.274-0.092,0.874-0.434,1.799-1.028l1.73-0.977c11.354-6.831,19.105-12.879,23.251-18.145c-1.702-2.399-3.569-4.683-5.603-6.854
		c-0.365,1.2-1.193,2.679-2.484,4.438l-0.977,1.165c-0.365-0.046-0.617,0.097-0.754,0.429c-0.194,0.502-0.314,0.776-0.359,0.822
		c-0.32-0.046-0.525,0.166-0.617,0.634c-0.046,0.457-0.252,0.663-0.617,0.617c0.183,0.503,0.092,0.823-0.273,0.959
		c-0.515,0.103-0.886,0.2-1.114,0.292c-0.046,0.229-0.303,0.411-0.771,0.548c-0.457,0.183-0.686,0.434-0.686,0.754
		c-0.32,0.103-0.623,0.291-0.908,0.565c-0.274,0.365-0.503,0.617-0.686,0.753c-0.971,0.56-1.548,1.022-1.73,1.388
		c-0.457-0.092-0.76,0.114-0.908,0.617c-0.183,0.514-0.48,0.748-0.891,0.703c-0.514-0.183-0.817-0.114-0.908,0.206
		c-0.092,0.411-0.183,0.617-0.274,0.617c-1.199-0.32-1.61-0.017-1.233,0.908c-0.104,0.686-0.52,0.959-1.251,0.822
		c-0.046,0-0.138,0.257-0.274,0.771c-0.092,0.32-0.439,0.343-1.045,0.069c-0.183,0.045-0.365,0.229-0.549,0.548
		c-0.193,0.274-0.451,0.388-0.771,0.343c0.091,0.285-0.138,0.405-0.686,0.359c-0.605-0.045-0.839,0.115-0.702,0.479
		c-0.183,0.458-0.64,0.754-1.371,0.891c-0.24,0.286-0.725,0.565-1.456,0.84c-0.468,0.548-0.954,0.845-1.456,0.891
		c-0.184,0.331-0.344,0.565-0.48,0.703c-0.193,0.274-0.543,0.343-1.045,0.206c0.273,0.833-0.234,1.108-1.525,0.822
		c-0.273,0.286-0.479,0.474-0.617,0.565C160.742,127.03,160.418,127.145,160.051,127.145z M150.696,177.758
		c0.194-0.273,0.246-0.548,0.154-0.822c-0.148-0.697-0.588-0.977-1.319-0.84c-0.697,0.184-0.954,0.6-0.771,1.252
		c0.24,0.695,0.68,0.971,1.319,0.822C150.354,178.123,150.56,177.986,150.696,177.758z M193.359,142.24
		c-0.182,0.411-0.416,0.616-0.702,0.616c-0.319,0.046-0.616,0.212-0.891,0.497c-0.274,0.366-0.503,0.571-0.685,0.617
		c-0.195,0.182-0.749,0.554-1.663,1.114c-0.331,0.137-0.886,0.502-1.661,1.096c0,0.137-0.121,0.234-0.36,0.292
		c-0.229,0.045-0.365,0.114-0.411,0.206l-0.822,0.479c-0.148,0-0.223,0.046-0.223,0.137c-0.046,0.091-0.114,0.114-0.206,0.068
		c-0.274-0.137-0.411-0.137-0.411,0c0,0.046,0.023,0.16,0.068,0.343c0.046,0.331-0.068,0.423-0.343,0.274
		c0,0.103-0.091,0.154-0.274,0.154c-0.137,0-0.205,0.022-0.205,0.068c0.034,0.137-0.063,0.188-0.291,0.154c0-0.034,0-0.063,0-0.085
		c0.879-0.971,1.553-1.548,2.021-1.73c0.092-0.24,0.389-0.52,0.891-0.84c0.469-0.228,0.703-0.525,0.703-0.891
		c0.594-0.788,1.005-1.394,1.233-1.816c0.331-0.32,0.634-0.896,0.908-1.73c0.229-0.548,0.365-1.102,0.411-1.662
		c0.092-1.154-0.114-2.074-0.617-2.759c-1.063-1.576-3.118-2.176-6.168-1.799c-3.05,0.32-6.186,1.497-9.406,3.53
		c-2.775,1.748-4.946,3.729-6.512,5.946c-1.576,2.215-2.176,4.157-1.799,5.825c0.046,0.274,0.229,0.691,0.549,1.251l0.822,0.891
		l0.223,0.068c0.32,0.32,0.457,0.366,0.411,0.138c0.274,0.229,0.595,0.416,0.96,0.565c0.285,0.137,0.68,0.297,1.182,0.479
		c0.32,0,0.503-0.068,0.549-0.205c0.137-0.047,0.531,0.022,1.182,0.205c0-0.092,0.229-0.068,0.686,0.068
		c0.377,0.137,0.429,0.023,0.154-0.342c0.411,0,0.754-0.069,1.027-0.206c0.229,0.091,0.441,0.068,0.635-0.069
		c0.229-0.102,0.411-0.154,0.549-0.154c0.41,0.24,0.708,0.292,0.891,0.154c0.24-0.24,0.383-0.359,0.428-0.359
		c0.137-0.183,0.48-0.365,1.028-0.549c0.171,0.069,0.313,0.092,0.429,0.069c-0.137,0.183-0.418,0.274-0.84,0.274
		c0.137,0.273,0.068,0.434-0.205,0.479c-0.275,0.059-0.48,0.086-0.617,0.086c0,0.366,0,0.571,0,0.617
		c-0.148,0.137-0.451,0.092-0.908-0.137c0.045,0.183-0.092,0.273-0.412,0.273c-0.33,0.047-0.52,0.115-0.564,0.206
		c-0.137,0-0.297,0.114-0.48,0.343c-0.182,0.24-0.41,0.331-0.685,0.274c-0.229,0.103-0.646,0.337-1.251,0.702l-1.25,0.617
		c0,0.137-0.115,0.229-0.344,0.273c-0.319,0.046-0.502,0.121-0.548,0.223l-0.908,0.412c-0.925,0.319-1.548,0.639-1.868,0.959
		c-0.365,0-0.713,0.12-1.045,0.36c-0.411,0.319-0.686,0.502-0.822,0.548c-0.183,0.184-0.463,0.365-0.84,0.548
		c-0.457,0.138-0.799,0.251-1.027,0.343c-0.469-0.092-0.863,0.006-1.183,0.291c-0.411,0.366-0.663,0.572-0.754,0.617
		c-0.56,0.549-1.205,0.822-1.937,0.822c-0.56-0.091-0.977-0.017-1.25,0.223c-0.274,0.365-0.509,0.595-0.703,0.686
		c-0.229,0-0.525,0.16-0.891,0.48c-0.32,0.285-0.691,0.399-1.113,0.342c-0.184,0.195-0.503,0.36-0.96,0.498
		c-0.56,0.182-0.908,0.319-1.046,0.41c-1.063,0.229-1.73,0.509-2.004,0.84c-0.137,0.137-0.394,0.252-0.771,0.343
		c-0.457,0.138-0.754,0.251-0.891,0.343c-0.651,0.365-1.205,0.571-1.662,0.617c-0.696,0.377-1.273,0.611-1.73,0.702
		c-0.605,0.138-1.159,0.343-1.662,0.616c-0.137,0.184-0.394,0.32-0.771,0.412l-0.891,0.205c-0.023,0.012-0.046,0.029-0.069,0.052
		c-0.582-0.194-1.205-0.212-1.867-0.052c-0.789,0.194-1.411,0.543-1.868,1.045c-0.137,0.148-0.246,0.303-0.326,0.463l-2.45,0.857
		c-0.834,0.182-1.388,0.365-1.662,0.547l-3.256,1.046c-0.833,0.229-1.365,0.389-1.593,0.479c-0.366,0.229-0.897,0.389-1.594,0.48
		c-0.091,0.148-0.44,0.268-1.045,0.359l-0.96,0.274c-0.514,0.091-0.839,0.206-0.977,0.343l-1.028,0.205
		c-0.377,0.184-0.726,0.274-1.045,0.274c-0.183,0.183-0.508,0.274-0.977,0.274c-0.274,0-0.594,0.098-0.959,0.291
		c-0.045,0.046-0.229,0.068-0.548,0.068c-0.285,0-0.428,0.068-0.428,0.206c-0.229-0.046-0.434-0.046-0.617,0l-0.412,0.206
		l-0.908,0.273c-0.32-0.046-0.548-0.092-0.686-0.137c-0.331-0.047-0.445,0.068-0.343,0.342c-0.651-0.091-0.954-0.022-0.908,0.206
		c-0.32,0.183-0.691,0.206-1.114,0.068c-0.32,0.24-0.594,0.383-0.823,0.429c-0.514-0.104-0.839-0.057-0.976,0.137l-0.891,0.274
		c-0.046,0.138-0.303,0.251-0.771,0.343h-1.096c-0.605-0.229-1.022-0.252-1.251-0.068c-0.183,0.273-0.365,0.434-0.548,0.479
		c-0.605-0.273-1.022-0.318-1.25-0.137c-0.137,0.275-0.326,0.435-0.565,0.48c-0.091,0.193-0.343,0.291-0.754,0.291
		c-0.594,0-0.942,0-1.045,0c-0.548,0.32-1.125,0.411-1.73,0.274c0.091,0.411-0.485,0.503-1.73,0.274
		c-0.137,0.091-0.411,0.137-0.822,0.137c-0.514,0-0.817,0.023-0.909,0.068c-0.045,0.184-0.296,0.252-0.753,0.205
		c-0.514-0.045-0.817-0.045-0.908,0l-0.686,0.206c-0.32,0.046-0.646,0.046-0.977,0c-0.183,0-0.714,0.046-1.593,0.138
		c-4.935,0.422-9.247,0.474-12.937,0.154c-1.405-2.434-2.678-4.998-3.82-7.693c-0.012-0.023-0.018-0.041-0.018-0.052
		c6.762,1.233,11.617,1.69,14.564,1.37c1.942-0.229,4.529-0.69,7.762-1.387c3.963-0.926,6.385-1.457,7.265-1.594
		c1.108-0.229,3.484-1.012,7.128-2.348c3.416-1.303,6.442-2.136,9.081-2.502c3.039-0.457,7.122-1.725,12.251-3.803
		c3.826-1.577,6.756-2.919,8.79-4.027c1.622-0.867,5.226-3.01,10.812-6.425c-10.109,4.843-16.483,7.818-19.122,8.927
		c-1.61,0.697-3.569,1.273-5.877,1.73c-2.353,0.365-4.015,0.662-4.986,0.891c-1.485,0.104-2.781,0.2-3.89,0.291
		c-2.113,0.184-4.997,1.057-8.652,2.622c-3.873,1.667-7.122,2.729-9.75,3.187c-0.194,0.047-2.205,0.229-6.031,0.549
		c-4.684,0.411-9.144,0.576-13.381,0.496h-0.051c-0.046,0-0.091,0-0.138,0l-6.511,0.207c-0.948-2.457-1.73-4.936-2.347-7.438
		c-12.576,5.94-22.343,11.395-29.299,16.363c-6.739,4.798-9.761,8.35-9.063,10.657c0.971,3.188,5.009,4.872,12.113,5.055
		c7.894,0.24,18.647-1.394,32.264-4.9c2.364-0.604,4.62-1.182,6.768-1.73c-1.279-1.542-2.485-3.157-3.616-4.849
		c1.04,1.496,2.182,2.992,3.427,4.488c3.461,0.092,6.831-0.022,10.109-0.342l1.593-0.205c0.274,0.045,0.554,0.022,0.84-0.068
		c0.274-0.092,0.525-0.139,0.754-0.139l0.411-0.41c0.275-0.092,0.691-0.023,1.251,0.205c0.503,0.229,0.851,0.252,1.045,0.068
		c0.229-0.229,0.434-0.319,0.617-0.273c0.366-0.377,0.942-0.475,1.731-0.291c0.925,0,1.501-0.115,1.73-0.344
		c0.137-0.182,0.737-0.273,1.799-0.273c0.091,0,0.417-0.046,0.977-0.137c0.411-0.047,0.686-0.115,0.823-0.206
		c0.228-0.229,0.828-0.366,1.799-0.411c0.183,0,0.44-0.098,0.771-0.291c0.274-0.184,0.64-0.229,1.097-0.138
		c0.286-0.183,0.908-0.319,1.867-0.411c0.24,0,0.52-0.114,0.84-0.342c0.274-0.184,0.623-0.229,1.045-0.138
		c0.365,0.091,0.731,0.046,1.096-0.138c0.377-0.182,0.657-0.273,0.84-0.273c0.365-0.194,1.011-0.383,1.936-0.566
		c1.108-0.09,1.753-0.273,1.937-0.547c0.319-0.184,0.988-0.366,2.004-0.549c0.183-0.469,0.851-0.657,2.004-0.565
		c0.606-0.411,1.279-0.616,2.022-0.616c0-0.275,0.274-0.436,0.823-0.48c0.696,0,1.09-0.046,1.182-0.137
		c0.32,0.045,0.663-0.074,1.028-0.36c0.331-0.274,0.68-0.388,1.045-0.343c0.228,0,0.531-0.137,0.908-0.411
		c0.366-0.229,0.731-0.319,1.097-0.274c0.286-0.045,0.726-0.091,1.319-0.137c0.457-0.092,0.708-0.279,0.754-0.565
		c0.332-0.503,1.028-0.754,2.09-0.754c1.017,0.046,1.73-0.212,2.142-0.771c0.319-0.046,0.668-0.16,1.045-0.344
		c0.457-0.229,0.8-0.365,1.028-0.41c1.153-0.184,1.873-0.463,2.158-0.84l1.166-0.343c0.422-0.138,0.726-0.297,0.908-0.479
		c0.64-0.137,1.354-0.439,2.142-0.908c0.183-0.183,0.53-0.32,1.045-0.412c0.503-0.137,0.845-0.273,1.028-0.41
		c0.229-0.092,0.531-0.274,0.908-0.549c0.365-0.193,0.73-0.314,1.096-0.359l2.091-0.891c1.337,0.091,2.005-0.189,2.005-0.84
		l1.936-0.892c0.366-0.273,1.012-0.599,1.938-0.977c1.016-0.183,1.661-0.479,1.936-0.891c0.605-0.046,1.228-0.349,1.867-0.908
		c0.332-0.091,0.68-0.229,1.045-0.411l0.514-0.309c-0.033,0.16-0.021,0.332,0.035,0.514c0.194,0.742,0.611,1.023,1.25,0.84
		c0.697-0.193,0.955-0.611,0.771-1.25c-0.08-0.389-0.251-0.646-0.514-0.771c0.172-0.104,0.389-0.264,0.65-0.48
		c1.018-0.41,1.617-0.736,1.8-0.977c0.091-0.229,0.389-0.411,0.892-0.548c0.514-0.138,0.816-0.274,0.908-0.411
		c0.137-0.457,0.713-0.783,1.729-0.977l0.96-0.412c0.377-0.182,0.634-0.365,0.771-0.547c0.046-0.229,0.343-0.395,0.892-0.498
		c0.56-0.045,0.84-0.205,0.84-0.479c0.273-0.046,0.548-0.205,0.822-0.479c0.331-0.274,0.61-0.434,0.84-0.479
		c0.091-0.046,0.388-0.188,0.891-0.429c0.422-0.137,0.68-0.32,0.771-0.549c0.32-0.605,0.851-0.93,1.594-0.977
		c0.046-0.045,0.228-0.273,0.548-0.685c0.229-0.274,0.555-0.366,0.977-0.274c0.971-0.605,1.479-0.931,1.525-0.977
		c0.229,0,0.434-0.205,0.617-0.617c0.137-0.365,0.439-0.502,0.908-0.41c0.091-0.184,0.319-0.35,0.685-0.498
		c0.411-0.137,0.663-0.297,0.755-0.479c0-0.274,0.188-0.479,0.564-0.616c0.549-0.184,0.846-0.297,0.891-0.343
		c0.972,0,1.434-0.325,1.389-0.977c-0.092-0.32,0.12-0.502,0.634-0.548c0.503-0.046,0.731-0.189,0.685-0.429
		c0.229-0.32,0.669-0.64,1.32-0.959c0.457-0.56,0.891-0.885,1.302-0.977l1.183-0.959c3.369-2.73,6.162-5.272,8.379-7.625
		c-0.32-2.764-0.715-5.094-1.183-6.991c-2.673,2.536-5.187,4.684-7.54,6.442l-1.387,1.097c-0.549,0.56-1.034,0.931-1.457,1.114
		c-0.229,0.32-0.434,0.525-0.617,0.616c-0.228,0.24-0.53,0.383-0.908,0.429C193.726,141.668,193.451,141.828,193.359,142.24z
		 M140.587,189.05c-4.706,1.793-7.796,2.81-9.27,3.05c-0.788,0.137-3.187,0.388-7.196,0.754c-2.958,0.32-5.22,0.69-6.785,1.113
		c-2.17,0.594-9.327,1.331-21.469,2.211l3.05,2.363c4.432-0.376,8.213-0.77,11.343-1.182c0.023,0,0.045,0,0.068,0l8.413-0.977
		c1.268-0.125,2.645-0.263,4.13-0.411c1.782-0.24,3.346-0.509,4.694-0.806c3.164-0.616,5.317-1.342,6.46-2.176
		c1.336-0.926,4.888-2.102,10.657-3.529c5.997-1.474,9.693-2.604,11.085-3.393c0.914-0.503,3.268-1.959,7.061-4.369
		c2.238-1.416,3.877-2.348,4.916-2.793l0.189-0.086c0.16-0.068,0.303-0.119,0.428-0.154c-1.759,0.411-4.112,1.24-7.059,2.484
		c-0.469,0.194-1.656,0.84-3.564,1.937l-0.891,0.53c-0.114,0.047-0.223,0.104-0.326,0.172c-1.61,0.88-3.552,1.525-5.825,1.937
		C148.766,186.091,145.396,187.199,140.587,189.05z M114.835,87.051c1.896-0.788,4.346-1.708,7.35-2.758
		c11.115-3.119,21.852-3.678,32.211-1.679c-19.806,16.962-43.028,26.58-69.666,28.854c6.396-9.435,14.033-16.557,22.908-21.366
		C110.129,88.947,112.527,87.93,114.835,87.051z M29.319,183.446c-10.52,6.876-15.483,11.491-14.889,13.845
		c0.971,3.964,7.876,5.625,20.715,4.986c13.616-0.697,31.938-3.906,54.966-9.63c0.445-0.114,0.891-0.223,1.336-0.325
		c-0.514-0.525-1.017-1.063-1.508-1.611c-2.388,0.583-4.798,1.16-7.23,1.73c-13.936,3.279-27.717,5.283-41.345,6.015
		c-13.936,0.788-21.297-0.177-22.085-2.896c-0.594-1.941,5.522-6.699,18.35-14.273c11.069-6.602,23.485-13.188,37.25-19.755
		c-0.114-0.457-0.211-0.908-0.292-1.354C56.276,167.946,41.188,175.702,29.319,183.446z"/>
</g>
</svg>
