<?xml version="1.0" encoding="utf-8"?>
<!-- Generator: Adobe Illustrator 16.0.0, SVG Export Plug-In . SVG Version: 6.00 Build 0)  -->
<!DOCTYPE svg PUBLIC "-//W3C//DTD SVG 1.1//EN" "http://www.w3.org/Graphics/SVG/1.1/DTD/svg11.dtd">
<svg version="1.1" id="Layer_1" xmlns="http://www.w3.org/2000/svg" xmlns:xlink="http://www.w3.org/1999/xlink" x="0px" y="0px"
	 width="300px" height="300px" viewBox="0 0 300 300" enable-background="new 0 0 300 300" xml:space="preserve">
<g>
	<path fill-rule="evenodd" clip-rule="evenodd" fill="#010101" d="M140.313,172.631c-1.01,0-1.9-0.318-2.672-0.958
		c-0.743-0.638-1.113-1.415-1.113-2.331c0-0.918,0.371-1.7,1.113-2.351c0.73-0.637,1.622-0.958,2.672-0.958
		c1.06,0,1.957,0.321,2.688,0.958c0.73,0.65,1.096,1.433,1.096,2.351c0,0.916-0.366,1.693-1.096,2.331
		C142.218,172.313,141.323,172.631,140.313,172.631z M121.803,166.234c-2.152-2.059-4.716-3.089-7.694-3.089
		c-3.028,0-5.598,1.03-7.709,3.089c-2.153,2.02-3.229,4.477-3.229,7.371c0,2.883,1.077,5.355,3.229,7.415
		c2.112,2.071,4.682,3.106,7.709,3.106c2.978,0,5.542-1.035,7.694-3.106c2.112-2.06,3.168-4.532,3.168-7.415
		C124.972,170.711,123.915,168.254,121.803,166.234z M114.109,165.895c2.246,0,4.151,0.758,5.716,2.272
		c1.598,1.514,2.396,3.327,2.396,5.438c0,2.151-0.798,3.985-2.396,5.5c-1.564,1.504-3.47,2.257-5.716,2.257
		c-2.255,0-4.182-0.753-5.778-2.257c-1.607-1.515-2.41-3.349-2.41-5.5c0-2.111,0.803-3.925,2.41-5.438
		C109.928,166.652,111.854,165.895,114.109,165.895z M135.708,165.075c-1.287,1.145-1.931,2.566-1.931,4.267
		c0,1.646,0.644,3.067,1.931,4.264c1.288,1.185,2.823,1.776,4.605,1.776c1.792,0,3.327-0.592,4.604-1.776
		c1.289-1.196,1.931-2.617,1.931-4.264c0-1.7-0.643-3.122-1.931-4.267c-1.277-1.193-2.812-1.791-4.604-1.791
		C138.531,163.284,136.997,163.882,135.708,165.075z M135.57,140.727c-1.741-1.606-3.827-2.41-6.257-2.41
		c-2.431,0-4.517,0.803-6.257,2.41c-1.751,1.597-2.627,3.522-2.627,5.779c0,2.246,0.875,4.171,2.627,5.779
		c1.74,1.596,3.826,2.394,6.257,2.394c2.431,0,4.517-0.798,6.257-2.394c1.74-1.608,2.61-3.533,2.61-5.779
		C138.181,144.249,137.311,142.323,135.57,140.727z M129.313,141.067c1.699,0,3.141,0.525,4.326,1.576
		c1.195,1.051,1.792,2.338,1.792,3.863c0,1.462-0.598,2.744-1.792,3.847c-1.185,1.061-2.627,1.592-4.326,1.592
		c-1.7,0-3.147-0.531-4.341-1.592c-1.185-1.103-1.777-2.384-1.777-3.847c0-1.525,0.592-2.812,1.777-3.863
		C126.166,141.592,127.613,141.067,129.313,141.067z M103.789,132.816c2.338,2.193,4.012,5.011,5.021,8.451
		c1.195,4.038,1.195,7.797,0,11.279c-1.236,3.45-3.321,5.607-6.257,6.474c-0.598,0.186-1.355,0.277-2.271,0.277
		c-2.606,0-5.104-1.102-7.493-3.306c-2.338-2.247-4.033-5.088-5.083-8.529c-1.195-4.089-1.153-7.895,0.124-11.418
		c1.286-3.347,3.353-5.459,6.195-6.334c0.597-0.185,1.354-0.278,2.272-0.278C98.902,129.433,101.399,130.56,103.789,132.816z
		 M96.296,126.698c-1.01,0-2.041,0.134-3.091,0.402c-3.667,1.051-6.304,3.713-7.911,7.988c-1.513,4.038-1.585,8.41-0.215,13.118
		c1.194,4.089,3.213,7.415,6.056,9.981c2.843,2.574,5.892,3.861,9.147,3.861c1.06,0,2.09-0.144,3.09-0.432
		c3.625-1.051,6.242-3.637,7.849-7.757c1.596-4.171,1.689-8.621,0.278-13.349c-1.195-4.079-3.214-7.406-6.057-9.98
		C102.599,127.975,99.55,126.698,96.296,126.698z M135.029,103.584c-3.224-3.08-7.128-4.619-11.711-4.619
		c-4.542,0-8.415,1.54-11.618,4.619c-3.255,3.121-4.882,6.855-4.882,11.201c0,4.357,1.627,8.076,4.882,11.155
		c3.204,3.06,7.076,4.589,11.618,4.589c4.583,0,8.488-1.53,11.711-4.589c3.204-3.08,4.805-6.798,4.805-11.155
		C139.834,110.439,138.233,106.705,135.029,103.584z M113.615,105.562c2.667-2.554,5.901-3.831,9.703-3.831
		c3.812,0,7.066,1.277,9.764,3.831c2.658,2.534,3.987,5.609,3.987,9.224c0,3.585-1.329,6.654-3.987,9.208
		c-2.698,2.534-5.952,3.801-9.764,3.801c-3.749,0-6.984-1.267-9.703-3.801c-2.699-2.554-4.048-5.624-4.048-9.208
		C109.567,111.171,110.917,108.096,113.615,105.562z M158.328,128.753c1.606,1.514,2.41,3.322,2.41,5.423
		c0,2.112-0.804,3.924-2.41,5.438c-1.556,1.514-3.456,2.271-5.7,2.271c-2.247,0-4.172-0.757-5.78-2.271
		c-1.607-1.473-2.41-3.286-2.41-5.438c0-2.102,0.803-3.909,2.41-5.423c1.608-1.514,3.533-2.271,5.78-2.271
		C154.872,126.481,156.772,127.239,158.328,128.753z M160.337,126.822c-2.152-2.06-4.724-3.09-7.709-3.09
		c-3.028,0-5.599,1.03-7.711,3.09c-2.153,2.019-3.229,4.47-3.229,7.354c0,2.894,1.076,5.371,3.229,7.431
		c2.112,2.019,4.683,3.028,7.711,3.028c2.985,0,5.557-1.01,7.709-3.028c2.101-2.06,3.151-4.537,3.151-7.431
		C163.488,131.292,162.438,128.84,160.337,126.822z M175.385,116.021c1.194-1.05,2.643-1.576,4.343-1.576
		c1.739,0,3.207,0.525,4.403,1.576c1.193,1.062,1.791,2.349,1.791,3.862c0,1.504-0.598,2.787-1.791,3.848
		c-1.196,1.051-2.664,1.576-4.403,1.576c-1.7,0-3.148-0.525-4.343-1.576c-1.185-1.061-1.776-2.343-1.776-3.848
		C173.608,118.371,174.2,117.083,175.385,116.021z M173.47,114.106c-1.741,1.607-2.61,3.533-2.61,5.778
		c0,2.246,0.869,4.173,2.61,5.779c1.739,1.597,3.826,2.395,6.258,2.395c2.481,0,4.593-0.798,6.333-2.395
		c1.741-1.566,2.611-3.492,2.611-5.779c0-2.245-0.87-4.171-2.611-5.778c-1.74-1.606-3.852-2.41-6.333-2.41
		C177.296,111.696,175.209,112.5,173.47,114.106z M167.753,101.653c0,1.463-0.598,2.745-1.792,3.848
		c-1.236,1.051-2.698,1.576-4.389,1.576c-1.699,0-3.146-0.525-4.341-1.576c-1.195-1.103-1.793-2.385-1.793-3.848
		c0-1.514,0.598-2.796,1.793-3.847c1.195-1.061,2.642-1.591,4.341-1.591c1.73,0,3.193,0.53,4.389,1.591
		C167.155,98.856,167.753,100.139,167.753,101.653z M197.201,167.827c1.009,0,1.9,0.318,2.673,0.958
		c0.731,0.638,1.097,1.421,1.097,2.348c0,0.907-0.365,1.68-1.097,2.317c-0.731,0.649-1.622,0.974-2.673,0.974
		c-1.061,0-1.957-0.324-2.688-0.974c-0.731-0.638-1.097-1.41-1.097-2.317c0-0.927,0.365-1.71,1.097-2.348
		C195.244,168.146,196.141,167.827,197.201,167.827z M203.736,171.133c0-1.657-0.643-3.085-1.932-4.28
		c-1.287-1.184-2.822-1.777-4.604-1.777c-1.845,0-3.384,0.594-4.62,1.777c-1.277,1.195-1.916,2.623-1.916,4.28
		c0,1.689,0.639,3.105,1.916,4.249c1.236,1.195,2.775,1.792,4.62,1.792c1.781,0,3.316-0.597,4.604-1.792
		C203.094,174.238,203.736,172.822,203.736,171.133z M196.027,97.188c13.616,12.979,20.424,28.634,20.424,46.969
		c0,18.385-6.808,34.069-20.424,47.046c-13.618,12.979-30.058,19.467-49.318,19.467c-19.209,0-35.623-6.488-49.24-19.467
		c-13.627-13.02-20.441-28.702-20.441-47.046c0-18.334,6.814-33.99,20.441-46.969c13.617-12.978,30.03-19.467,49.24-19.467
		C165.97,77.721,182.409,84.21,196.027,97.188z M201.604,156.811c1.74-1.606,2.611-3.533,2.611-5.778
		c0-2.246-0.871-4.171-2.611-5.779c-1.741-1.606-3.827-2.41-6.259-2.41c-2.43,0-4.521,0.803-6.271,2.41
		c-1.741,1.607-2.611,3.533-2.611,5.779c0,2.245,0.87,4.172,2.611,5.778c1.751,1.606,3.842,2.41,6.271,2.41
		C197.777,159.221,199.863,158.417,201.604,156.811z M199.673,154.895c-1.184,1.051-2.626,1.576-4.327,1.576
		c-1.698,0-3.145-0.525-4.34-1.576c-1.186-1.061-1.777-2.348-1.777-3.862c0-1.463,0.592-2.745,1.777-3.847
		c1.195-1.05,2.642-1.576,4.34-1.576c1.701,0,3.144,0.526,4.327,1.576c1.195,1.102,1.792,2.384,1.792,3.847
		C201.465,152.547,200.868,153.834,199.673,154.895z M201.666,137.22c0,1.689,0.644,3.11,1.932,4.264
		c1.235,1.195,2.77,1.793,4.604,1.793c1.792,0,3.327-0.598,4.604-1.793c1.287-1.153,1.932-2.574,1.932-4.264
		c0-1.7-0.645-3.126-1.932-4.28c-1.276-1.184-2.812-1.776-4.604-1.776c-1.835,0-3.369,0.592-4.604,1.776
		C202.31,134.094,201.666,135.52,201.666,137.22z M208.202,133.913c1.009,0,1.905,0.319,2.688,0.958
		c0.731,0.639,1.098,1.421,1.098,2.349c0,0.917-0.366,1.694-1.098,2.333c-0.731,0.638-1.627,0.958-2.688,0.958
		c-1.052,0-1.943-0.32-2.674-0.958c-0.741-0.639-1.112-1.417-1.112-2.333c0-0.927,0.371-1.71,1.112-2.349
		C206.259,134.232,207.15,133.913,208.202,133.913z M161.572,93.464c-2.43,0-4.517,0.804-6.257,2.41
		c-1.741,1.607-2.611,3.533-2.611,5.778c0,2.246,0.87,4.167,2.611,5.764c1.74,1.617,3.827,2.425,6.257,2.425
		c2.473,0,4.584-0.809,6.336-2.425c1.74-1.597,2.61-3.518,2.61-5.764c0-2.245-0.87-4.171-2.61-5.778
		C166.156,94.268,164.045,93.464,161.572,93.464z M143.882,95.612c-0.731,0.628-1.623,0.942-2.673,0.942
		c-1.06,0-1.957-0.314-2.688-0.942c-0.731-0.649-1.098-1.432-1.098-2.349c0-0.927,0.367-1.705,1.098-2.333
		c0.783-0.648,1.679-0.974,2.688-0.974c1.051,0,1.942,0.325,2.673,0.974c0.741,0.628,1.112,1.406,1.112,2.333
		C144.995,94.18,144.624,94.963,143.882,95.612z M136.605,88.984c-1.288,1.194-1.931,2.622-1.931,4.28
		c0,1.689,0.644,3.11,1.931,4.264c1.276,1.195,2.812,1.792,4.604,1.792c1.834,0,3.368-0.598,4.604-1.792
		c1.287-1.154,1.931-2.575,1.931-4.264c0-1.658-0.644-3.085-1.931-4.28c-1.236-1.185-2.771-1.777-4.604-1.777
		C139.417,87.207,137.882,87.799,136.605,88.984z"/>
	<path fill-rule="evenodd" clip-rule="evenodd" fill="#24303F" d="M181.116,158.494c-0.741,0.124-1.194,0.324-1.358,0.603
		l1.452-0.617C181.18,158.479,181.148,158.484,181.116,158.494z M264.827,104.527c-7.942,0.659-16.609,1.864-26.004,3.615
		c-9.651,1.803-20.065,4.187-31.24,7.153c-0.329-0.679-0.664-1.354-1.004-2.023c7.829-1.957,15.219-3.667,22.172-5.13
		c14.573-3.059,27.208-5.016,37.899-5.872c15.811-1.338,24.323,0.021,25.539,4.079c1.215,4.224-5.155,10.77-19.113,19.637
		c-8.549,5.377-18.884,10.96-31.009,16.748c-2.79,1.33-5.675,2.673-8.651,4.033c-5.305,2.4-10.908,4.84-16.81,7.324
		c-0.123,0.04-0.242,0.088-0.354,0.139l-5.038,2.085c-0.051,0.206-0.097,0.418-0.139,0.635
		c-34.536,14.821-71.627,26.728-111.272,35.72c-0.185,0.042-0.366,0.083-0.541,0.124l-0.324-0.247l-4.172,0.958
		c-1.329,0.308-2.642,0.612-3.94,0.911c-6.942,1.565-13.503,2.915-19.683,4.048c-13.967,2.565-26.019,4.038-36.153,4.419
		c-14.709,0.463-22.676-1.39-23.902-5.562c-1.154-3.821,4.44-9.44,16.78-16.856c10.547-6.346,24.972-13.396,43.276-21.151
		c2.235-0.948,4.527-1.906,6.875-2.874c0.073,0.382,0.154,0.768,0.247,1.159c-2.44,1.02-4.815,2.039-7.122,3.06
		c-15.657,6.89-28.578,13.698-38.765,20.426c-10.074,6.602-14.792,11.117-14.153,13.549c0.927,3.935,7.875,5.582,20.843,4.944
		c8.724-0.443,19.416-1.906,32.075-4.389c5.562-1.092,11.505-2.379,17.83-3.862c1.761-0.423,3.548-0.854,5.361-1.298
		c0.701-0.175,1.39-0.345,2.07-0.51c11.753-2.895,20.972-5.273,27.656-7.139c11.814-3.243,22.995-6.663,33.543-10.258
		c2.11-0.722,4.177-1.426,6.194-2.116c5.625-1.947,10.897-3.79,15.821-5.532c0.042-0.021,0.077-0.036,0.109-0.046
		c1.307-0.463,2.59-0.922,3.846-1.375c4.461-1.607,8.606-3.126,12.438-4.559c4.131-1.544,7.896-2.992,11.295-4.341
		c2.061-0.824,3.985-1.606,5.778-2.348c0.793-0.33,1.555-0.656,2.286-0.975c0.31-0.133,0.618-0.268,0.927-0.401
		c9.549-4.12,18.139-7.952,25.771-11.495c11.567-5.377,20.921-10.1,28.059-14.168c13.668-7.817,19.92-13.581,18.758-17.289
		C287.903,104.295,279.885,103.312,264.827,104.527z M280.2,109.301c1.04,1.627-4.027,6.087-15.203,13.38
		c-7.252,4.707-14.895,9.11-22.93,13.209c-5.118,2.616-10.396,5.109-15.836,7.478c-3.038,1.35-6.463,2.817-10.274,4.404
		c-0.834,0.339-1.688,0.69-2.563,1.051c-1.938,0.793-3.967,1.612-6.088,2.456c-4.491,1.792-9.389,3.703-14.693,5.732
		c-1.318,0.504-2.626,0.998-3.924,1.482c-1.73,0.65-3.436,1.288-5.115,1.916c-1.339,0.495-2.657,0.983-3.955,1.469
		c-2.389,0.875-4.728,1.725-7.015,2.549c-3.028,1.092-5.964,2.133-8.807,3.12c-3.326,1.165-6.524,2.257-9.594,3.276
		c-17.335,5.86-37.153,11.541-59.453,17.042c-2.225,0.545-4.476,1.091-6.751,1.637c-0.381,0.083-0.757,0.17-1.128,0.264
		c-5.263,1.246-10.507,2.307-15.729,3.182c-8.684,1.463-17.315,2.431-25.895,2.904c-14.019,0.752-21.404-0.235-22.156-2.966
		c-0.587-1.967,5.263-6.598,17.551-13.89c9.096-5.438,19.262-10.943,30.5-16.515c2.421-1.208,4.893-2.412,7.416-3.617
		c0.125,0.525,0.258,1.051,0.402,1.577c-2.739,1.286-5.346,2.559-7.818,3.814c-8.94,4.513-16.125,8.699-21.553,12.562
		c-6.551,4.749-9.476,8.281-8.775,10.599c0.927,3.184,4.979,4.862,12.159,5.037c4.913,0.145,10.969-0.442,18.169-1.762
		c4.336-0.792,9.084-1.854,14.246-3.183l7.369-1.807c0.032,0.029,0.068,0.066,0.108,0.107
		c44.847-11.155,85.096-24.885,120.745-41.19c2.473-1.133,4.919-2.276,7.339-3.43l0.773-0.34c7.766-3.306,14.548-6.479,20.346-9.517
		c4.976-2.606,9.229-5.114,12.764-7.524c0.864-0.598,1.668-1.169,2.409-1.715c4.904-3.667,6.85-6.279,5.841-7.833
		c-1.042-1.627-6.315-2.122-15.821-1.483c-1.669,0.103-3.398,0.237-5.192,0.402c-9.259,0.854-20.27,2.544-33.032,5.068l-0.693-1.391
		c11.505-3.121,22.747-5.454,33.726-7c5.265-0.741,10.471-1.303,15.622-1.684C271.479,107.132,278.984,107.509,280.2,109.301z"/>
</g>
</svg>
