<?xml version="1.0" encoding="utf-8"?>
<!-- Generator: Adobe Illustrator 16.0.0, SVG Export Plug-In . SVG Version: 6.00 Build 0)  -->
<!DOCTYPE svg PUBLIC "-//W3C//DTD SVG 1.1//EN" "http://www.w3.org/Graphics/SVG/1.1/DTD/svg11.dtd">
<svg version="1.1" id="Layer_1" xmlns="http://www.w3.org/2000/svg" xmlns:xlink="http://www.w3.org/1999/xlink" x="0px" y="0px"
	 width="300px" height="300px" viewBox="0 0 300 300" enable-background="new 0 0 300 300" xml:space="preserve">
<g>
	<path fill-rule="evenodd" clip-rule="evenodd" fill="#091837" d="M230.739,46.617c0.297,0.316,0.594,0.642,0.891,0.978
		c2.154,2.313,4.189,4.674,6.106,7.085c0.178,0.217,0.356,0.436,0.533,0.652c7.195,9.151,12.808,18.954,16.84,29.41
		c2.075,5.375,3.735,10.919,4.979,16.631c1.858,8.518,2.786,17.412,2.786,26.682c0,1.817-0.039,3.626-0.117,5.425
		c-0.295,7.946-1.304,15.585-3.024,22.918c-2.807,12.074-7.479,23.372-14.022,33.886l-22.442-24.873l-24.043,28.728l-8.687-9.104
		l-3.082,9.043L170.469,182.9l-11.294,16.246l-15.002-61.99l-1.424-10.138v-0.061l-1.095,6.405l-2.254,6.106l-7.708,31.603
		l-12.067-23.302l-11.888,25.853l-5.364-16.516L82.36,196.744l-10.732-28.191l-24.992,27.036c-0.415,0.119-0.801,0.296-1.156,0.533
		c-2.491-3.478-4.754-7.057-6.79-10.731c-9.546-17.135-14.319-36.248-14.319-57.336c0-14.033,2.115-27.196,6.345-39.489
		c5.396-15.633,14.21-29.844,26.445-42.63c0.691-0.731,1.403-1.463,2.135-2.194c5.197-5.198,10.633-9.813,16.305-13.846
		c13.342-9.507,28.006-15.792,43.996-18.855c7.708-1.502,15.711-2.254,24.012-2.254c8.322,0,16.326,0.752,24.015,2.254
		c22.807,4.389,42.918,15.288,60.329,32.701C228.901,44.689,229.831,45.647,230.739,46.617z"/>
	<path fill-rule="evenodd" clip-rule="evenodd" fill="#FFEFAB" d="M238.982,84.593l4.179,0.771l-3.23,2.994l0.533,4.329
		l-3.646-2.195l-3.798,1.928l0.861-4.269l-2.815-3.084l4.15-0.533l2.015-3.883L238.982,84.593z M213.012,65.975l1.097,0.919
		l-1.364,0.327l-0.533,1.363l-0.711-1.275l-1.425-0.088l0.949-1.096l-0.386-1.395l1.306,0.563l1.186-0.771L213.012,65.975z
		 M218.407,76.826l1.363-0.296l0.534-1.334l0.712,1.275l1.422,0.148l-0.947,1.038l0.323,1.422l-1.304-0.592l-1.185,0.741
		l0.148-1.453L218.407,76.826z M203.583,60.164l-2.787,0.624l-1.008,2.757l-1.451-2.552l-2.788-0.236l1.81-2.164l-0.741-2.786
		l2.608,1.127l2.373-1.513l-0.239,2.877L203.583,60.164z M204.472,95.651l-4.178,0.771l-1.75,3.944l-1.986-3.885l-4.15-0.534
		l2.817-3.053l-0.892-4.299l3.824,1.927l3.648-2.165l-0.534,4.329L204.472,95.651z M217.755,142.138l1.363,0.206l-0.979,1.038
		l0.268,1.423l-1.245-0.652l-1.245,0.682l0.207-1.453l-1.037-1.007l1.422-0.237l0.594-1.306L217.755,142.138z M188.762,141.306
		l2.608,1.156l2.342-1.541l-0.207,2.875l2.194,1.868l-2.757,0.623l-1.038,2.756l-1.453-2.549l-2.787-0.236l1.837-2.135
		L188.762,141.306z M242.213,137.898l-0.118,1.452l1.066,0.919l-1.332,0.325l-0.535,1.365l-0.712-1.275l-1.424-0.09l0.919-1.097
		l-0.354-1.392l1.304,0.563L242.213,137.898z M106.462,38.701l-1.334,2.608l-1.186-2.667l-2.845-0.415l2.104-2.017l-0.416-2.875
		l2.492,1.363l2.489-1.304l-0.503,2.846l1.897,2.016L106.462,38.701z M240.138,211.716c0,2.078-0.456,3.854-1.363,5.337
		c-0.909,1.481-2.005,2.224-3.292,2.224c-0.138,0-0.266,0-0.384,0c0.374,0.928,0.563,1.967,0.563,3.114
		c0,2.074-0.612,3.823-1.839,5.247c-1.226,1.44-2.698,2.164-4.418,2.164c-1.245,0-2.36-0.375-3.351-1.127
		c0.356,0.81,0.534,1.729,0.534,2.755c0,0.654-0.067,1.266-0.208,1.84c0.555,1.087,0.831,2.294,0.831,3.617
		c0,2.43-0.929,4.486-2.787,6.165c-1.838,1.7-4.062,2.552-6.67,2.552c-0.356,0-0.703-0.02-1.037-0.061
		c0.475,0.908,0.712,1.907,0.712,2.994c0,2.192-1.019,4.063-3.055,5.603c-2.015,1.562-4.467,2.343-7.352,2.343
		c-1.028,0-1.998-0.088-2.906-0.268c0.02,0.258,0.031,0.535,0.031,0.831c0,1.978-0.614,3.667-1.84,5.069
		c-1.245,1.402-2.747,2.104-4.506,2.104c-1.76,0-3.261-0.702-4.507-2.104c-0.277-0.317-0.514-0.621-0.712-0.919
		c-0.908,0.812-1.976,1.217-3.201,1.217c-0.039,0-0.069,0-0.088,0c-0.062,1.777-0.604,3.308-1.631,4.594
		c-1.068,1.364-2.354,2.046-3.854,2.046c-1.147,0-2.166-0.387-3.056-1.157c-0.197,0.178-0.442,0.366-0.739,0.563
		c-1.523,0.989-3.361,1.483-5.515,1.483c-2.135,0-3.964-0.494-5.484-1.483c-0.297-0.197-0.564-0.394-0.801-0.591
		c-0.316,1.838-1.225,3.446-2.729,4.832c-1.854,1.738-4.099,2.608-6.728,2.608c-1.857,0-3.508-0.415-4.951-1.246
		c-0.236,1.227-1.037,2.283-2.402,3.172c-1.64,1.107-3.627,1.66-5.958,1.66c-2.352,0-4.348-0.553-5.989-1.66
		c-0.513-0.354-0.958-0.721-1.334-1.096c-1.225,0.277-3.082,0.414-5.573,0.414c-2.471,0-5.128-0.868-7.975-2.607
		c-1.521-0.948-2.569-1.997-3.142-3.145c-0.316,0.831-0.97,1.571-1.957,2.224c-1.404,0.929-3.114,1.395-5.129,1.395
		c-1.996,0-3.717-0.466-5.158-1.395c-0.179-0.138-0.347-0.276-0.505-0.415c-0.435,0.476-0.938,0.908-1.511,1.305
		c-1.977,1.403-4.359,2.104-7.145,2.104c-2.807,0-5.198-0.701-7.175-2.104c-1.976-1.403-2.965-3.094-2.965-5.069
		c0-0.335,0.04-0.672,0.119-1.008c-0.869,0.316-1.798,0.476-2.787,0.476c-1.837,0-3.418-0.525-4.743-1.572
		c-1.285-1.05-1.927-2.313-1.927-3.794c0-0.357,0.051-0.703,0.148-1.038c-0.75-0.219-1.433-0.624-2.044-1.215
		c-0.87-0.89-1.306-1.968-1.306-3.233s0.436-2.35,1.306-3.26c0.059-0.039,0.107-0.07,0.147-0.088
		c-0.258,0.037-0.533,0.059-0.831,0.059c-0.928,0-1.708-0.298-2.342-0.889c-0.473-0.437-0.771-0.94-0.89-1.515
		c-1.343,0.891-2.855,1.335-4.535,1.335c-2.372,0-4.407-0.86-6.108-2.578c-1.659-1.721-2.489-3.796-2.489-6.228
		c0-0.433,0.02-0.85,0.059-1.245c0.236-1.916,1.047-3.574,2.43-4.98c0.317-0.295,0.644-0.571,0.979-0.828
		c-0.534,0.177-1.097,0.267-1.69,0.267c-1.6,0-2.954-0.662-4.062-1.987c-1.126-1.324-1.69-2.925-1.69-4.803
		c0-0.928,0.149-1.788,0.446-2.579c-0.495,0.276-0.999,0.484-1.513,0.622c-0.653,0.198-1.324,0.297-2.016,0.297
		c-2.056,0-3.805-0.789-5.247-2.37c-1.464-1.602-2.195-3.53-2.195-5.782c0-2.233,0.731-4.15,2.195-5.753
		c0.117-0.117,0.237-0.235,0.354-0.354c0.752,0.572,1.631,0.857,2.639,0.857c1.086,0,2.006-0.315,2.757-0.948
		c0.237,0.496,0.524,0.94,0.859,1.334c0.22,0.236,0.436,0.467,0.653,0.683c0.83,0.713,1.799,1.068,2.906,1.068
		c0.593,0,1.155-0.108,1.689-0.326c0.099,0.494,0.308,0.938,0.624,1.333c0.138,0.673,0.207,1.376,0.207,2.105
		c0,1.246-0.227,2.393-0.681,3.439c0.652-0.277,1.343-0.415,2.074-0.415c1.601,0,2.965,0.662,4.091,1.984
		c0.811,0.949,1.333,2.047,1.571,3.292c0.158-0.021,0.336-0.03,0.534-0.03c1.186,0,2.193,0.425,3.025,1.275
		c0.077,0.078,0.137,0.14,0.176,0.179c0.376-0.061,0.761-0.091,1.158-0.091c1.48,0,2.746,0.523,3.793,1.572
		c0.476,0.475,0.841,0.998,1.098,1.571c0.296-0.317,0.643-0.604,1.038-0.858c1.087-0.713,2.293-1.187,3.617-1.425
		c0.316-0.06,0.632-0.1,0.948-0.118c0.337-0.04,0.702-0.059,1.096-0.059c2.195,0,4.073,0.533,5.634,1.602
		c1.107,0.751,1.828,1.618,2.165,2.607c0.019-0.021,0.049-0.039,0.088-0.059c1.008-0.751,2.234-1.128,3.675-1.128
		c0.575,0,1.117,0.061,1.631,0.178c0.75,0.199,1.434,0.516,2.046,0.95c1.007,0.749,1.521,1.65,1.542,2.696
		c0.139-0.158,0.287-0.305,0.445-0.443c1.819-1.641,4.001-2.462,6.551-2.462s4.724,0.821,6.523,2.462
		c1.621,1.462,2.509,3.211,2.667,5.247h0.03c0.118,0.079,0.267,0.138,0.446,0.177c0.592,0.237,1.254,0.355,1.986,0.355
		c0.434,0,0.84-0.038,1.214-0.118c0.277-3.478,1.859-6.472,4.743-8.981c0.041-0.061,0.1-0.119,0.178-0.177l13.519-93.654
		c0.08,0.75,0.18,1.462,0.297,2.133c0.198,1.167,0.426,1.987,0.681,2.461l-4.892,85.146c0.572-0.042,1.166-0.062,1.779-0.062
		c2.569,0,4.931,0.446,7.085,1.335l-2.34-87.694c0.078-0.356,0.156-0.751,0.236-1.187c0.157-0.988,0.286-2.075,0.386-3.261
		c0.198,0.06,0.403,0.099,0.622,0.119l11.235,89.769c0.495-0.078,1.009-0.118,1.542-0.118c2.352,0,4.368,0.858,6.049,2.578
		c1.323,1.384,2.133,3.005,2.431,4.862c1.343-0.691,2.876-1.037,4.596-1.037c2.529,0,4.684,0.732,6.463,2.193
		c0.296,0.236,0.573,0.495,0.83,0.771c0.454-0.552,1.007-1.066,1.659-1.541c2.293-1.68,5.04-2.521,8.242-2.521
		c3.222,0,5.968,0.841,8.242,2.521c0.178,0.139,0.365,0.277,0.563,0.416c0.316-0.238,0.653-0.395,1.007-0.475
		c0.021-1.76,0.673-3.28,1.957-4.565c1.345-1.267,2.945-1.898,4.804-1.898s3.438,0.632,4.743,1.898
		c0.101,0.1,0.207,0.207,0.326,0.325c0.078,0.019,0.167,0.049,0.268,0.088c0.396-0.709,0.928-1.372,1.6-1.984
		c1.859-1.7,4.102-2.55,6.73-2.55c0.613,0,1.205,0.05,1.778,0.147c0.119-0.256,0.268-0.503,0.445-0.74
		c0.75-1.047,1.659-1.57,2.728-1.57c0.514,0,0.978,0.118,1.393,0.354c-0.633-1.166-0.948-2.501-0.948-4.001
		c0-2.057,0.603-3.805,1.808-5.249c1.247-1.442,2.729-2.164,4.447-2.164c0.712,0,1.373,0.118,1.987,0.356
		c-0.375-1.068-0.565-2.274-0.565-3.618c0-0.929,0.101-1.789,0.298-2.577c1.146-1.226,2.264-2.474,3.35-3.736
		c0.91,0.632,1.936,0.948,3.083,0.948c0.396,0,0.781-0.029,1.158-0.091c0.019,0.041,0.038,0.091,0.059,0.149
		C239.682,207.873,240.138,209.642,240.138,211.716z M126.414,44.927l-0.385-1.394l1.304,0.563l1.187-0.771l-0.09,1.454l1.068,0.918
		l-1.333,0.356l-0.534,1.333l-0.742-1.245l-1.425-0.149L126.414,44.927z M124.665,52.99l1.067,0.89l-1.333,0.356l-0.534,1.333
		l-0.711-1.245l-1.423-0.119l0.919-1.097l-0.355-1.363l1.303,0.534l1.186-0.741L124.665,52.99z M135.101,45.787l-2.787-0.238
		l1.837-2.164l-0.771-2.817l2.64,1.127l2.34-1.513l-0.206,2.906l2.193,1.867l-2.756,0.593l-1.038,2.729L135.101,45.787z
		 M145.536,45.489l-0.651,1.334l-0.593-1.334l-1.423-0.238l1.038-1.008l-0.208-1.42l1.246,0.68l1.243-0.651l-0.236,1.423l0.95,1.008
		L145.536,45.489z M145.536,53.228l-0.711-1.274l-1.424-0.089l0.95-1.097l-0.385-1.393l1.333,0.563l1.156-0.77l-0.116,1.453
		l1.097,0.948l-1.364,0.296L145.536,53.228z M150.488,50.767l-0.237,1.423l0.947,1.008l-1.363,0.208l-0.653,1.306l-0.593-1.306
		l-1.423-0.236l1.038-0.979l-0.178-1.453l1.215,0.654L150.488,50.767z M152.739,53.851l2.729-3.172l-1.068-4.24l3.885,1.72
		l3.556-2.342l-0.355,4.357l3.321,2.847l-4.15,0.948L159.144,58l-2.222-3.795L152.739,53.851z M166.881,39.205l-1.453-2.521
		l-2.786-0.236l1.81-2.164l-0.741-2.786l2.608,1.126l2.372-1.542l-0.208,2.904l2.193,1.867l-2.786,0.624L166.881,39.205z
		 M167.89,84.267l-0.118,1.453l1.097,0.949l-1.364,0.326l-0.533,1.363l-0.711-1.275l-1.424-0.117l0.948-1.069l-0.386-1.424
		l1.307,0.593L167.89,84.267z M141.891,89.277c0.394,0,0.721,0.138,0.978,0.416c0.275,0.257,0.416,0.573,0.416,0.949
		c0,0.395-0.14,0.721-0.416,0.978c-0.12,0.119-0.257,0.218-0.416,0.297v6.612c2.174,2.095,3.715,5.01,4.624,8.745
		c0.475,2.016,0.712,3.805,0.712,5.366l0.416,10.94c-0.178,3.123-0.939,5.237-2.284,6.343c-0.414,0.356-0.869,0.583-1.362,0.683
		l-0.623,0.059c0.295-1.581,0.295-2.875,0-3.883l-0.503-1.038c-0.237-0.79-0.632-1.235-1.187-1.333l-0.74,0.119
		c-1.027,0.849-1.543,2.133-1.543,3.853c0,0.83,0.1,1.592,0.298,2.282c-1.364,0.119-2.411-0.642-3.143-2.282l-0.683-2.49
		l-0.267-11.74c0.237-5.238,1.294-9.477,3.174-12.718c0.711-1.265,1.432-2.214,2.164-2.847v-6.611
		c-0.198-0.078-0.376-0.196-0.534-0.355c-0.277-0.257-0.416-0.583-0.416-0.978c0-0.376,0.139-0.692,0.416-0.949
		C141.228,89.415,141.535,89.277,141.891,89.277z M130.446,77.686l2.609-1.364l-0.534,2.966l1.957,2.044l-2.816,0.446l-1.333,2.696
		l-1.245-2.696l-2.905-0.446l2.193-2.105l-0.444-2.964L130.446,77.686z M183.158,101.847l-0.326,1.424l0.948,1.037l-1.423,0.178
		l-0.713,1.244l-0.532-1.304l-1.364-0.326l1.066-0.949l-0.147-1.453l1.187,0.741L183.158,101.847z M173.375,112.431l0.534,1.364
		l1.361,0.327l-1.095,0.918l0.118,1.453l-1.187-0.771l-1.304,0.563l0.385-1.393l-0.95-1.097l1.425-0.089L173.375,112.431z
		 M144.617,104.338c-0.672-0.652-1.483-0.979-2.431-0.979c-0.928,0-1.739,0.327-2.432,0.979c-0.652,0.672-0.977,1.483-0.977,2.43
		c0,0.95,0.324,1.76,0.977,2.433c0.693,0.651,1.504,0.978,2.432,0.978c0.948,0,1.759-0.326,2.431-0.978
		c0.652-0.672,0.979-1.483,0.979-2.433C145.596,105.821,145.27,105.01,144.617,104.338z M95.968,101.995l2.728,0.416l-1.927,2.016
		l0.533,2.846l-2.519-1.304l-2.461,1.363l0.415-2.875l-2.106-2.018l2.847-0.415l1.186-2.667L95.968,101.995z M135.368,124.409
		c0.041,1.977,0.622,3.784,1.749,5.425c-0.593,0.178-1.216,0.574-1.869,1.186c-1.364,1.244-2.242,3.033-2.636,5.365
		c-0.457-1.64-0.693-3.468-0.713-5.484c-0.041-4.052,1.019-7.047,3.173-8.983h0.563L135.368,124.409z M131.039,126.246
		c0.159,1.977,0.238,4.368,0.238,7.174c0,2.788-0.079,5.169-0.238,7.146c-0.198,1.957-0.414,2.936-0.651,2.936
		c-0.259,0-0.464-0.979-0.624-2.936c-0.177-1.976-0.267-4.358-0.267-7.146c0-2.825,0.089-5.217,0.267-7.174
		c0.159-1.977,0.365-2.965,0.624-2.965C130.625,123.281,130.841,124.269,131.039,126.246z M98.932,135.466l2.757,0.593l-2.193,1.868
		l0.208,2.905l-2.343-1.542l-2.639,1.156l0.772-2.817l-1.838-2.163l2.787-0.237l1.452-2.52L98.932,135.466z M107.411,129.123
		l1.363,0.325l-1.097,0.95l0.12,1.452l-1.157-0.77l-1.333,0.563l0.385-1.394l-0.948-1.097l1.422-0.089l0.71-1.275L107.411,129.123z
		 M126.771,144.331l1.452-2.52l1.008,2.727l2.787,0.622l-2.193,1.868l0.207,2.906l-2.371-1.542l-2.608,1.127l0.741-2.786
		l-1.81-2.165L126.771,144.331z M105.632,135.525l0.593-1.333l0.651,1.333l1.363,0.209l-0.946,1.007l0.236,1.424l-1.246-0.652
		l-1.245,0.682l0.208-1.453l-1.038-0.978L105.632,135.525z M71.302,84.385l1.245,0.682l1.275-0.652l-0.267,1.424l0.949,1.008
		l-1.364,0.207l-0.623,1.304l-0.622-1.304l-1.424-0.237l1.038-1.008L71.302,84.385z M80.641,63.515l1.927,2.045l-2.727,0.415
		l-1.304,2.608l-1.187-2.667l-2.846-0.415l2.104-1.987l-0.415-2.905l2.462,1.363l2.519-1.305L80.641,63.515z M147.138,129.538
		c1.146-1.641,1.758-3.449,1.837-5.427l-0.237-2.491h0.532c2.154,1.978,3.184,4.981,3.084,9.014
		c-0.04,2.036-0.297,3.863-0.771,5.484c-0.377-2.333-1.235-4.13-2.58-5.396c-0.396-0.395-0.83-0.71-1.303-0.948L147.138,129.538z
		 M153.304,126.009c0.198-1.977,0.425-2.956,0.682-2.935c0.236,0,0.436,0.987,0.593,2.964c0.139,1.958,0.198,4.328,0.178,7.115
		c-0.039,2.788-0.157,5.169-0.355,7.145c-0.197,1.996-0.426,2.985-0.683,2.964c-0.236,0-0.434-0.987-0.593-2.964
		c-0.137-1.976-0.197-4.357-0.178-7.145C152.968,130.367,153.086,127.985,153.304,126.009z M159.588,119.991l1.453-2.549
		l1.038,2.758l2.757,0.622l-2.194,1.868l0.238,2.875l-2.371-1.542l-2.61,1.156l0.742-2.816l-1.839-2.163L159.588,119.991z
		 M53.633,97.341l-2.877,3.025l0.772,4.269l-3.765-1.987l-3.677,2.105l0.624-4.329l-3.173-3.054l4.209-0.651l1.838-3.944
		l1.927,3.944L53.633,97.341z M86.006,128.026l0.118,1.452l-1.186-0.771l-1.304,0.565l0.354-1.395l-0.918-1.067l1.424-0.118
		l0.71-1.275l0.534,1.364l1.334,0.326L86.006,128.026z M90.75,128.678l-0.977,1.007l0.296,1.423l-1.275-0.652l-1.245,0.711
		l0.207-1.453l-1.037-1.008l1.423-0.236l0.593-1.304l0.651,1.304L90.75,128.678z M88.23,134.874l0.741-1.247l0.534,1.335
		l1.334,0.354l-1.066,0.92l0.087,1.422l-1.184-0.741l-1.306,0.563l0.385-1.392l-0.948-1.097L88.23,134.874z M67.803,142.314
		l2.699,0.445l-1.897,2.017l0.503,2.846l-2.491-1.305l-2.49,1.363l0.415-2.875l-2.105-2.017l2.846-0.445l1.187-2.638L67.803,142.314
		z"/>
	<path fill-rule="evenodd" clip-rule="evenodd" fill="#F68924" d="M241.678,196.271c1.028,1.127,1.545,2.49,1.545,4.093
		c0,1.659-0.565,3.072-1.691,4.238c-0.81,0.89-1.75,1.442-2.815,1.658c-0.377,0.062-0.763,0.091-1.158,0.091
		c-1.147,0-2.173-0.316-3.083-0.948c-1.086,1.263-2.203,2.511-3.35,3.736c-0.197,0.788-0.298,1.648-0.298,2.577
		c0,1.344,0.19,2.55,0.565,3.618c-0.614-0.238-1.275-0.356-1.987-0.356c-1.719,0-3.2,0.722-4.447,2.164
		c-1.205,1.444-1.808,3.192-1.808,5.249c0,1.5,0.315,2.835,0.948,4.001c-0.415-0.236-0.879-0.354-1.393-0.354
		c-1.068,0-1.978,0.523-2.728,1.57c-0.178,0.237-0.326,0.484-0.445,0.74c-0.573-0.098-1.165-0.147-1.778-0.147
		c-2.629,0-4.871,0.85-6.73,2.55c-0.672,0.612-1.204,1.275-1.6,1.984c-0.101-0.039-0.189-0.069-0.268-0.088
		c-0.119-0.118-0.226-0.226-0.326-0.325c-1.305-1.267-2.885-1.898-4.743-1.898s-3.459,0.632-4.804,1.898
		c-1.284,1.285-1.936,2.806-1.957,4.565c-0.354,0.08-0.69,0.236-1.007,0.475c-0.197-0.139-0.385-0.277-0.563-0.416
		c-2.274-1.68-5.021-2.521-8.242-2.521c-3.202,0-5.949,0.841-8.242,2.521c-0.652,0.475-1.205,0.989-1.659,1.541
		c-0.257-0.275-0.534-0.534-0.83-0.771c-1.779-1.461-3.934-2.193-6.463-2.193c-1.72,0-3.253,0.346-4.596,1.037
		c-0.298-1.857-1.107-3.479-2.431-4.862c-1.681-1.72-3.697-2.578-6.049-2.578c-0.533,0-1.047,0.04-1.542,0.118l-11.235-89.769
		c-0.218-0.02-0.424-0.06-0.622-0.119c-0.1,1.186-0.229,2.273-0.386,3.261c-0.081,0.436-0.159,0.831-0.236,1.187l2.34,87.694
		c-2.154-0.889-4.516-1.335-7.085-1.335c-0.613,0-1.207,0.02-1.779,0.062l4.892-85.146c-0.255-0.474-0.483-1.295-0.681-2.461
		c-0.118-0.671-0.218-1.383-0.297-2.133l-13.519,93.654c-0.078,0.058-0.137,0.116-0.178,0.177c-2.884,2.51-4.466,5.504-4.743,8.981
		c-0.375,0.08-0.78,0.118-1.214,0.118c-0.732,0-1.394-0.118-1.986-0.355c-0.179-0.039-0.328-0.098-0.446-0.177h-0.03
		c-0.157-2.036-1.046-3.785-2.667-5.247c-1.8-1.641-3.974-2.462-6.523-2.462s-4.732,0.821-6.551,2.462
		c-0.158,0.139-0.306,0.285-0.445,0.443c-0.02-1.046-0.534-1.947-1.542-2.696c-0.612-0.435-1.295-0.751-2.046-0.95
		c-0.515-0.117-1.056-0.178-1.631-0.178c-1.441,0-2.667,0.377-3.675,1.128c-0.04,0.02-0.07,0.037-0.088,0.059
		c-0.336-0.989-1.058-1.856-2.165-2.607c-1.561-1.068-3.438-1.602-5.634-1.602c-0.395,0-0.759,0.019-1.096,0.059
		c-0.316,0.019-0.632,0.059-0.948,0.118c-1.324,0.238-2.53,0.712-3.617,1.425c-0.395,0.255-0.741,0.541-1.038,0.858
		c-0.257-0.573-0.622-1.097-1.098-1.571c-1.047-1.049-2.313-1.572-3.793-1.572c-0.397,0-0.782,0.03-1.158,0.091
		c-0.039-0.039-0.099-0.101-0.176-0.179c-0.832-0.851-1.839-1.275-3.025-1.275c-0.198,0-0.376,0.01-0.534,0.03
		c-0.238-1.245-0.761-2.343-1.571-3.292c-1.126-1.322-2.49-1.984-4.091-1.984c-0.731,0-1.422,0.138-2.074,0.415
		c0.454-1.047,0.681-2.193,0.681-3.439c0-0.729-0.068-1.433-0.207-2.105c-0.316-0.396-0.525-0.839-0.624-1.333
		c-0.534,0.218-1.097,0.326-1.689,0.326c-1.107,0-2.076-0.355-2.906-1.068c-0.217-0.216-0.433-0.446-0.653-0.683
		c-0.334-0.394-0.622-0.838-0.859-1.334c-0.75,0.633-1.671,0.948-2.757,0.948c-1.008,0-1.887-0.285-2.639-0.857
		c-0.139-0.101-0.266-0.206-0.385-0.326c-0.829-0.791-1.244-1.749-1.244-2.877c0-1.105,0.415-2.056,1.244-2.847
		c0.158-0.157,0.336-0.298,0.534-0.413c-0.039,0-0.098,0-0.177,0c-0.691,0-1.285-0.268-1.779-0.802
		c-0.493-0.493-0.742-1.097-0.742-1.809c0-0.355,0.07-0.69,0.208-1.008c-0.987-0.176-1.848-0.632-2.579-1.363
		c-0.929-0.909-1.395-2.007-1.395-3.291s0.465-2.391,1.395-3.321c0.236-0.236,0.485-0.445,0.742-0.622
		c0.354-0.237,0.741-0.414,1.156-0.533c0.456-0.137,0.939-0.206,1.451-0.206c1.306,0,2.433,0.452,3.381,1.361
		c0.355,0.358,0.633,0.741,0.83,1.157c0.712-0.356,1.493-0.534,2.343-0.534c0.69,0,1.333,0.129,1.926,0.386
		c0.712,0.256,1.365,0.69,1.957,1.305c1.106,1.127,1.661,2.49,1.661,4.09c0,0.971-0.208,1.85-0.623,2.641
		c1.343,0.02,2.49,0.603,3.438,1.748c0.989,1.168,1.483,2.591,1.483,4.271c0,0.354-0.03,0.7-0.089,1.037
		c0.257-0.061,0.524-0.09,0.801-0.09c1.146,0,2.104,0.376,2.875,1.128c0.652,0.611,1.048,1.324,1.186,2.132
		c0.021,0.199,0.028,0.396,0.028,0.595c0,0.196-0.008,0.396-0.028,0.593c0.593-0.416,1.265-0.623,2.016-0.623
		c0.356,0,0.692,0.051,1.008,0.148c0.534,0.159,1.027,0.454,1.482,0.889c0.218,0.219,0.395,0.445,0.534,0.683
		c0.296-0.454,0.642-0.879,1.037-1.275c1.304-1.245,2.877-1.868,4.714-1.868s3.399,0.623,4.684,1.868
		c0.08,0.079,0.149,0.149,0.208,0.207c0.198-0.216,0.396-0.434,0.592-0.651c1.048-1.066,2.195-1.856,3.44-2.371
		c1.324-0.613,2.768-0.919,4.328-0.919c3.024,0,5.593,1.097,7.708,3.29c2.155,2.214,3.231,4.892,3.231,8.036
		c0,0.176,0,0.375,0,0.592c0.119-0.139,0.248-0.278,0.386-0.416c1.719-1.659,3.794-2.489,6.226-2.489c2.43,0,4.506,0.83,6.224,2.489
		c0.475,0.436,0.891,0.919,1.246,1.453l21.08-86.804c-0.496-0.041-0.938-0.248-1.335-0.624c-0.453-0.435-0.681-0.967-0.681-1.6
		c0-0.614,0.229-1.137,0.681-1.572c0.437-0.455,0.96-0.682,1.573-0.682c0.275,0,0.522,0.049,0.741,0.147
		c0-0.275,0.01-0.542,0.03-0.799c-0.198,0.078-0.405,0.117-0.623,0.117c-0.416,0-0.781-0.158-1.097-0.474
		c-0.316-0.296-0.475-0.662-0.475-1.097c0-0.436,0.159-0.801,0.475-1.096c0.316-0.317,0.681-0.475,1.097-0.475
		c0.277,0,0.521,0.059,0.741,0.177c0.098-1.166,0.227-2.223,0.385-3.172c0.336-1.976,0.76-2.965,1.274-2.965
		c0.495,0,0.919,0.989,1.275,2.965c0.157,0.989,0.286,2.075,0.386,3.26c0.257-0.176,0.543-0.265,0.858-0.265
		c0.437,0,0.811,0.157,1.127,0.475c0.297,0.295,0.446,0.661,0.446,1.096c0,0.435-0.149,0.8-0.446,1.097
		c-0.316,0.316-0.691,0.474-1.127,0.474c-0.275,0-0.521-0.059-0.74-0.177c0,0.257,0,0.524,0,0.8
		c0.197-0.058,0.395-0.088,0.593-0.088c0.634,0,1.166,0.227,1.6,0.682c0.437,0.435,0.654,0.958,0.654,1.572
		c0,0.633-0.218,1.165-0.654,1.6c-0.396,0.396-0.87,0.613-1.422,0.653l19.329,79.957c0.179-0.121,0.366-0.249,0.564-0.388
		c1.382-0.691,3.043-1.037,4.979-1.037c1.641,0,3.083,0.256,4.329,0.771c0.197-1.837,1.245-3.449,3.143-4.831
		c1.266-0.871,2.688-1.492,4.269-1.868c1.088-0.256,2.253-0.387,3.5-0.387c3.024,0,5.603,0.752,7.735,2.255
		c0.989,0.711,1.749,1.491,2.284,2.34c0.197-0.273,0.435-0.521,0.712-0.74c1.224-0.986,2.688-1.48,4.388-1.48
		c1.72,0,3.171,0.494,4.357,1.48c0.435,0.375,0.8,0.761,1.096,1.157c1.207-0.791,2.668-1.186,4.39-1.186
		c1.284,0,2.432,0.228,3.438,0.681c-0.456-0.829-0.682-1.748-0.682-2.758c0-1.481,0.483-2.765,1.451-3.852
		c0.101-0.159,0.219-0.288,0.356-0.388c1.245-1.165,2.738-1.749,4.477-1.749c1.6,0,2.984,0.493,4.149,1.483
		c0.101-0.73,0.348-1.373,0.742-1.928c0.436-0.553,0.947-0.879,1.543-0.979c-0.596-0.849-0.891-1.848-0.891-2.994
		c0-1.363,0.416-2.529,1.244-3.497c0.852-0.948,1.868-1.423,3.055-1.423c1.186,0,2.205,0.475,3.054,1.423
		c0.06,0.059,0.128,0.149,0.207,0.267c0.1-1.443,0.634-2.679,1.602-3.705c1.125-1.167,2.461-1.749,4.001-1.749
		c1.543,0,2.866,0.582,3.974,1.749C241.571,196.132,241.62,196.192,241.678,196.271z"/>
	<path fill-rule="evenodd" clip-rule="evenodd" fill="#0B4B77" d="M169.076,191.5c-0.613,0.611-1.533,1.975-2.758,4.089
		c-1.187,2.076-1.937,3.567-2.254,4.477v-7.501c0.02-0.197,0.061-0.404,0.12-0.623l6.284-9.041l10.88,7.146h-1.156
		c0,0.355,0.208,0.879,0.622,1.569c0.377,0.672,0.524,1.582,0.446,2.729c0-0.139-0.049-0.249-0.148-0.328l-0.208-0.028
		c-0.356-0.139-1.295-0.988-2.815-2.55c-1.404-1.443-2.372-2.145-2.906-2.105c-0.475,0.99-0.711,3.497-0.711,7.531L169.076,191.5z
		 M85.236,204.364c0-0.098,0.019-0.188,0.058-0.267c9.073-6.245,14.567-10.091,16.484-11.533c0.811,1.246,3.143,5.012,6.997,11.295
		c-1.027-0.374-1.807-0.563-2.341-0.563v2.491c0.375,0.789,0.622,1.592,0.741,2.398c0.079,0.397,0.177,1.001,0.296,1.812
		c-0.889-1.088-1.927-2.303-3.113-3.647c-1.878-2.114-3.102-3.262-3.677-3.439c0,0.554-0.127,1.492-0.385,2.816
		c-0.238,1.205-0.365,2.243-0.385,3.113v-0.178c-0.177-0.2-0.76-1.027-1.75-2.491c-0.949-1.442-1.679-2.4-2.193-2.875
		c-0.574,0.572-1.403,1.995-2.49,4.269v-6.076c-0.593,0-2.056,0.821-4.388,2.459c-1.245,0.89-2.282,1.67-3.113,2.343L85.236,204.364
		z M77.35,183.611c-1.897-2.391-3.558-3.587-4.981-3.587v6.817c-0.493-1.125-0.889-1.995-1.185-2.608
		c-0.533-1.146-1.324-1.946-2.373-2.401c0,0.594-0.335,1.682-1.008,3.264c-0.711,1.679-1.097,2.616-1.155,2.816
		c-0.119,0-0.239-0.061-0.356-0.182c-0.12-0.116-0.237-0.176-0.356-0.176v-5.723l-0.712,0.357c-0.631,1.245-1.591,2.678-2.875,4.298
		v-0.354c2.806-3.895,4.358-6.522,4.656-7.888l-0.356,0.358c-1.483,0.986-4.142,2.312-7.977,3.971l12.956-14.021l5.75,15.09
		L77.35,183.611z M96.709,172.108h-0.385c-1.976,2.076-3.429,3.953-4.359,5.633l10.408-20.635l6.135,18.855
		c-2.333-2.468-3.982-4.712-4.951-6.729v3.231c0.159,0.572,0.297,1.828,0.414,3.764c0.041,0.496,0.14,0.938,0.297,1.336
		c-0.375-0.613-0.878-1.492-1.511-2.638c-1.226-2.233-2.175-3.657-2.846-4.271c0,0.178-0.415,1.166-1.245,2.966
		c-0.909,1.937-1.454,3.358-1.631,4.269c0-0.139-0.059-0.247-0.178-0.326l-0.148-0.029V172.108z M115.357,161.02
		c-0.178,0.18-1.147,0.95-2.906,2.314l7.173-15.564l8.479,16.306c-1.028-0.852-1.808-1.275-2.342-1.275v5.723
		c-1.047-1.324-1.977-2.491-2.786-3.5c-1.582-1.937-2.807-3.032-3.677-3.289c-0.198,0.334-0.424,1.442-0.681,3.32
		c-0.257,1.679-0.385,2.717-0.385,3.112h-0.385c0-0.375-0.218-1.434-0.652-3.172c-0.416-1.66-0.791-2.985-1.127-3.975H115.357z
		 M191.458,193.811c-0.059-0.041-0.712-0.929-1.957-2.67c-0.078,0.159-0.393,0.564-0.948,1.217
		c-0.537,0.673-0.814,1.261-0.831,1.764v-0.133c-0.039-0.139-0.019-0.406,0.061-0.801l2.757-8.153l6.049,6.314
		c-1.562-0.631-2.441-1.009-2.639-1.127v2.343c-0.218-0.176-0.575-0.474-1.068-0.889c-0.493-0.474-0.849-0.781-1.066-0.918
		c0,0.115-0.059,0.177-0.178,0.177C191.519,191.507,191.458,192.465,191.458,193.811z M224.604,173.414v0.178
		c0.731,3.754,1.097,5.672,1.097,5.752c-0.119,0-0.178-0.069-0.178-0.21c-0.909-1.085-1.739-2.055-2.491-2.905
		c-1.423-1.679-2.321-2.499-2.698-2.46c0,0.08-0.128,0.455-0.385,1.128c-0.276,0.809-0.415,1.571-0.415,2.281l-0.178-0.531
		c-0.791-2.097-1.205-3.173-1.246-3.232c0,0.119-0.058,0.178-0.178,0.178c-0.413,0.414-0.976,1.095-1.688,2.046
		c-0.771,1.046-1.166,1.68-1.187,1.897v-0.179c0.237-0.673,0.456-1.335,0.651-1.985c0.121-0.475,0.229-0.911,0.326-1.307
		l7.234-8.654l8.597,9.543c-0.354-0.236-0.81-0.54-1.363-0.917c-1.185-0.87-1.957-1.256-2.313-1.156v0.178
		c0.179,0.159,0.949,1.769,2.313,4.833h-0.354c-0.354-0.73-1.286-1.67-2.786-2.816C225.937,173.967,225.019,173.414,224.604,173.414
		z"/>
	<path fill-rule="evenodd" clip-rule="evenodd" fill="#132449" d="M224.604,173.414c0.415,0,1.333,0.553,2.758,1.66
		c1.5,1.146,2.432,2.086,2.786,2.816h0.354c-1.363-3.064-2.134-4.674-2.313-4.833v-0.178c0.355-0.1,1.128,0.286,2.313,1.156
		c0.554,0.377,1.009,0.681,1.363,0.917l13.846,15.33c-0.257,0.396-0.514,0.8-0.77,1.217c-1.068,1.618-2.156,3.21-3.264,4.771
		c-0.058-0.078-0.106-0.139-0.146-0.177c-1.107-1.167-2.431-1.749-3.974-1.749c-1.54,0-2.876,0.582-4.001,1.749
		c-0.968,1.026-1.502,2.262-1.602,3.705c-0.079-0.117-0.147-0.208-0.207-0.267c-0.849-0.948-1.868-1.423-3.054-1.423
		c-1.187,0-2.203,0.475-3.055,1.423c-0.828,0.968-1.244,2.134-1.244,3.497c0,1.146,0.295,2.146,0.891,2.994
		c-0.596,0.1-1.107,0.426-1.543,0.979c-0.395,0.555-0.642,1.197-0.742,1.928c-1.165-0.99-2.55-1.483-4.149-1.483
		c-1.738,0-3.231,0.584-4.477,1.749c-0.138,0.1-0.256,0.229-0.356,0.388c-0.968,1.087-1.451,2.37-1.451,3.852
		c0,1.01,0.226,1.929,0.682,2.758c-1.007-0.453-2.154-0.681-3.438-0.681c-1.722,0-3.183,0.395-4.39,1.186
		c-0.296-0.396-0.661-0.782-1.096-1.157c-1.187-0.986-2.638-1.48-4.357-1.48c-1.7,0-3.164,0.494-4.388,1.48
		c-0.277,0.22-0.515,0.467-0.712,0.74c-0.535-0.849-1.295-1.629-2.284-2.34c-2.133-1.503-4.711-2.255-7.735-2.255
		c-1.247,0-2.412,0.131-3.5,0.387c-1.58,0.376-3.003,0.997-4.269,1.868c-1.897,1.382-2.945,2.994-3.143,4.831
		c-1.246-0.515-2.688-0.771-4.329-0.771c-1.937,0-3.598,0.346-4.979,1.037c-0.198,0.139-0.386,0.267-0.564,0.388l-4.89-20.279
		l5.01-7.205c-0.06,0.219-0.101,0.426-0.12,0.623v7.501c0.317-0.909,1.067-2.4,2.254-4.477c1.225-2.114,2.145-3.478,2.758-4.089
		l5.396,5.364c0-4.034,0.236-6.541,0.711-7.531c0.534-0.039,1.502,0.662,2.906,2.105c1.521,1.562,2.459,2.411,2.815,2.55
		l0.208,0.028c0.1,0.079,0.148,0.189,0.148,0.328c0.078-1.147-0.069-2.058-0.446-2.729c-0.414-0.69-0.622-1.214-0.622-1.569h1.156
		l6.108,4.031l0.325-0.89c-0.079,0.395-0.1,0.662-0.061,0.801v0.133c0.017-0.503,0.294-1.091,0.831-1.764
		c0.556-0.652,0.87-1.058,0.948-1.217c1.245,1.741,1.898,2.629,1.957,2.67c0-1.346,0.061-2.304,0.179-2.876
		c0.119,0,0.178-0.062,0.178-0.177c0.218,0.137,0.573,0.444,1.066,0.918c0.493,0.415,0.851,0.713,1.068,0.889v-2.343
		c0.197,0.118,1.077,0.496,2.639,1.127l2.638,2.789l16.809-20.073c-0.098,0.396-0.205,0.832-0.326,1.307
		c-0.195,0.65-0.414,1.313-0.651,1.985v0.179c0.021-0.218,0.415-0.852,1.187-1.897c0.713-0.951,1.275-1.632,1.688-2.046
		c0.12,0,0.178-0.059,0.178-0.178c0.041,0.06,0.455,1.136,1.246,3.232l0.178,0.531c0-0.71,0.139-1.473,0.415-2.281
		c0.257-0.673,0.385-1.048,0.385-1.128c0.377-0.039,1.275,0.781,2.698,2.46c0.752,0.851,1.582,1.82,2.491,2.905
		c0,0.141,0.059,0.21,0.178,0.21c0-0.08-0.365-1.998-1.097-5.752V173.414z M115.357,161.02h0.711
		c0.336,0.989,0.711,2.314,1.127,3.975c0.434,1.738,0.652,2.797,0.652,3.172h0.385c0-0.396,0.128-1.434,0.385-3.112
		c0.257-1.878,0.483-2.986,0.681-3.32c0.87,0.257,2.095,1.353,3.677,3.289c0.81,1.009,1.739,2.176,2.786,3.5V162.8
		c0.534,0,1.314,0.424,2.342,1.275l3.587,6.996l-13.371,55.172c-0.354-0.534-0.771-1.018-1.246-1.453
		c-1.718-1.659-3.794-2.489-6.224-2.489c-2.432,0-4.507,0.83-6.226,2.489c-0.138,0.138-0.267,0.277-0.386,0.416
		c0-0.217,0-0.416,0-0.592c0-3.145-1.077-5.822-3.231-8.036c-2.115-2.193-4.684-3.29-7.708-3.29c-1.561,0-3.004,0.306-4.328,0.919
		c-1.245,0.515-2.392,1.305-3.44,2.371c-0.196,0.218-0.395,0.436-0.592,0.651c-0.059-0.058-0.128-0.128-0.208-0.207
		c-1.284-1.245-2.846-1.868-4.684-1.868s-3.41,0.623-4.714,1.868c-0.396,0.396-0.741,0.821-1.037,1.275
		c-0.139-0.237-0.315-0.464-0.534-0.683c-0.456-0.435-0.949-0.729-1.482-0.889c-0.316-0.098-0.652-0.148-1.008-0.148
		c-0.75,0-1.423,0.207-2.016,0.623c0.021-0.197,0.028-0.396,0.028-0.593c0-0.198-0.008-0.396-0.028-0.595
		c-0.138-0.808-0.534-1.521-1.186-2.132c-0.771-0.752-1.729-1.128-2.875-1.128c-0.277,0-0.544,0.029-0.801,0.09
		c0.059-0.337,0.089-0.684,0.089-1.037c0-1.68-0.494-3.103-1.483-4.271c-0.947-1.146-2.094-1.729-3.438-1.748
		c0.415-0.791,0.623-1.67,0.623-2.641c0-1.6-0.555-2.963-1.661-4.09c-0.592-0.614-1.245-1.049-1.957-1.305
		c-0.592-0.257-1.236-0.386-1.926-0.386c-0.85,0-1.631,0.178-2.343,0.534c-0.197-0.416-0.475-0.799-0.83-1.157
		c-0.949-0.909-2.075-1.361-3.381-1.361c-0.512,0-0.996,0.069-1.451,0.206l12.036-13.015c3.835-1.659,6.494-2.984,7.977-3.971
		l0.356-0.358c-0.298,1.365-1.85,3.993-4.656,7.888v0.354c1.284-1.62,2.244-3.053,2.875-4.298l0.712-0.357v5.723
		c0.119,0,0.236,0.06,0.356,0.176c0.118,0.121,0.237,0.182,0.356,0.182c0.058-0.2,0.444-1.138,1.155-2.816
		c0.672-1.582,1.008-2.67,1.008-3.264c1.049,0.455,1.84,1.256,2.373,2.401c0.296,0.613,0.692,1.483,1.185,2.608v-6.817
		c1.423,0,3.084,1.196,4.981,3.587l0.029,0.031l4.982,13.102l9.604-19.003c0.93-1.68,2.383-3.557,4.359-5.633h0.385v5.427
		l0.148,0.029c0.119,0.079,0.178,0.188,0.178,0.326c0.177-0.91,0.722-2.332,1.631-4.269c0.83-1.8,1.245-2.788,1.245-2.966
		c0.671,0.613,1.62,2.037,2.846,4.271c0.633,1.146,1.137,2.024,1.511,2.638c-0.157-0.397-0.256-0.84-0.297-1.336
		c-0.117-1.936-0.255-3.191-0.414-3.764v-3.231c0.968,2.017,2.618,4.261,4.951,6.729l-0.771-2.34l4.714-10.288
		C114.21,161.97,115.179,161.199,115.357,161.02z M89.09,203.948c2.332-1.638,3.794-2.459,4.388-2.459v6.076
		c1.087-2.273,1.916-3.696,2.49-4.269c0.514,0.475,1.245,1.433,2.193,2.875c0.989,1.464,1.572,2.291,1.75,2.491v0.178
		c0.02-0.87,0.147-1.908,0.385-3.113c0.257-1.324,0.385-2.263,0.385-2.816c0.575,0.178,1.798,1.325,3.677,3.439
		c1.186,1.345,2.224,2.56,3.113,3.647c-0.119-0.811-0.217-1.414-0.296-1.812c-0.119-0.807-0.366-1.609-0.741-2.398v-2.491
		c0.534,0,1.314,0.188,2.341,0.563c-3.854-6.283-6.186-10.049-6.997-11.295c-1.917,1.442-7.411,5.288-16.484,11.533
		c-0.04,0.078-0.058,0.169-0.058,0.267l0.741,1.927C86.808,205.618,87.845,204.838,89.09,203.948z"/>
</g>
</svg>
