<?xml version="1.0" encoding="utf-8"?>
<!-- Generator: Adobe Illustrator 16.0.0, SVG Export Plug-In . SVG Version: 6.00 Build 0)  -->
<!DOCTYPE svg PUBLIC "-//W3C//DTD SVG 1.1//EN" "http://www.w3.org/Graphics/SVG/1.1/DTD/svg11.dtd">
<svg version="1.1" id="Layer_1" xmlns="http://www.w3.org/2000/svg" xmlns:xlink="http://www.w3.org/1999/xlink" x="0px" y="0px"
	 width="300px" height="300px" viewBox="0 0 300 300" enable-background="new 0 0 300 300" xml:space="preserve">
<g>
	<path fill-rule="evenodd" clip-rule="evenodd" fill="#202122" d="M109.106,104.24c0.091-0.271,0.204-0.559,0.34-0.86
		c0.03-0.091,0.061-0.189,0.091-0.294c1.236-3.033,2.927-5.289,5.069-6.767c2.172-1.509,4.896-2.271,8.169-2.286
		c0.211,0,0.414-0.007,0.611-0.022c0.467-1.388,0.912-2.587,1.335-3.598c0.348-0.83,0.671-1.546,0.973-2.15
		c1.252-2.444,3.048-3.832,5.387-4.164c3.711-0.317,9.097-0.476,16.156-0.476c7.831-0.03,13.345,0.166,16.544,0.588
		c1.869,0.378,3.438,1.894,4.706,4.549c0.332,0.694,0.672,1.501,1.019,2.421c0.136,0.332,0.271,0.687,0.407,1.063
		c0.03,0.091,0.067,0.189,0.113,0.294c0.195,0.543,0.385,1.109,0.565,1.697c0.271,0,0.528,0,0.77,0
		c3.666,0.393,6.291,1.057,7.875,1.992c0.031,0.016,0.061,0.03,0.091,0.045c0.105,0.075,0.211,0.144,0.316,0.204
		c1.147,0.8,2.226,2.006,3.236,3.621c0.03,0.03,0.053,0.06,0.068,0.09c0.06,0.106,0.12,0.211,0.181,0.317
		c0.136,0.242,0.271,0.483,0.407,0.725c0.015,0.03,0.037,0.068,0.068,0.113c0.09,0.196,0.195,0.392,0.317,0.588v0.045
		c0.045,0.12,0.09,0.234,0.136,0.339c0.09,0.257,0.18,0.513,0.271,0.77c0.875,2.489,1.773,5.408,2.692,8.757
		c0.56,2.021,1.132,4.202,1.72,6.54c0.106,0.467,0.22,0.943,0.34,1.426c0.528,2.157,1.012,4.133,1.449,5.929
		c0.497,2.097,0.95,3.945,1.357,5.544c0.347,1.388,0.656,2.595,0.928,3.621c0.588-0.181,1.109-0.4,1.562-0.656
		c-0.076-0.739-0.143-1.479-0.204-2.217c-0.015-0.03-0.022-0.053-0.022-0.068l-0.045-0.43c0-0.015,0-0.03,0-0.045v-0.136
		l-0.656-6.065c-0.046-0.377-0.061-0.747-0.046-1.109c0.031-1.358,0.394-2.595,1.086-3.711c0.891-1.373,2.038-2.135,3.44-2.286
		l3.123-0.339c1.388-0.135,2.655,0.385,3.802,1.562s1.826,2.678,2.037,4.503l1.177,11.519c0.12,1.328-0.03,2.542-0.453,3.644
		c-0.166,0.407-0.362,0.792-0.588,1.154c-0.876,1.373-2.029,2.143-3.463,2.309l-3.032,0.317c-0.527,0.06-1.025,0.03-1.494-0.091
		c-0.859-0.196-1.666-0.671-2.421-1.426c-0.241-0.302-0.475-0.588-0.701-0.86l-1.584,0.407c0.196,0.77,0.377,1.569,0.543,2.399
		c0.377,1.931,0.679,3.983,0.904,6.155c0.152,1.343,0.265,2.829,0.34,4.458c0.105,1.796,0.175,3.742,0.204,5.84
		c0,0.452,0,0.92,0,1.402c0.936,0.468,1.554,1.705,1.855,3.711c0.151,0.996,0.212,2.15,0.181,3.463
		c-0.015,0.725-0.053,1.501-0.112,2.33c0.03,0.469,0.067,1.2,0.112,2.195c0.076,0.498,0.144,1.026,0.204,1.584
		c0.212,1.977,0.324,4.512,0.339,7.604c0,0.529,0,1.08,0,1.652c0,0.03,0.061,2.188,0.182,6.473c0.091,2.7,0.038,4.857-0.158,6.472
		c-0.182,1.765-0.573,3.146-1.177,4.142c-0.679,1.207-1.863,2.293-3.553,3.259c-2.912,1.237-5.884,1.802-8.916,1.697
		c-1.932,0.211-4.323,0.392-7.174,0.542c-2.807,0.167-5.794,0.311-8.962,0.432c-5.566,0.195-11.723,0.316-18.466,0.361
		c-0.135,0-0.264,0-0.385,0c-1.07,0-2.157,0-3.259,0c-1.795,0-3.561-0.008-5.295-0.022c-0.136,0-0.264,0-0.385,0
		c-6.819-0.046-13.013-0.181-18.579-0.407c-2.399-0.121-4.685-0.242-6.856-0.363c-2.61-0.135-4.828-0.301-6.653-0.497
		c-3.576,0.362-7.047-0.166-10.41-1.584c-1.9-1.132-3.198-2.46-3.893-3.983v-0.022c-0.045-0.136-0.09-0.271-0.136-0.407
		c-0.06-0.136-0.112-0.279-0.157-0.43c-0.046-0.121-0.084-0.234-0.114-0.34c-0.257-1.01-0.422-2.285-0.498-3.824
		c-0.105-1.418-0.105-3.318,0-5.703c0.105-3.123,0.159-5.001,0.159-5.635c0-0.181,0-0.369,0-0.565
		c-0.03-1.946-0.023-3.749,0.021-5.408c0.016-0.362,0.022-0.709,0.022-1.041c0.016-0.378,0.031-0.747,0.046-1.109
		c0-0.09,0.008-0.181,0.023-0.271c0-0.182,0-0.348,0-0.498c0.105-2.279,0.278-4.217,0.521-5.816v-0.045
		c-0.046-0.468-0.038-0.936,0.022-1.404c0.015-0.165,0.037-0.331,0.067-0.497c0.061-0.468,0.182-0.966,0.362-1.493
		c0.03-0.091,0.053-0.189,0.067-0.295c0.106-0.316,0.227-0.633,0.362-0.949c0.136-0.332,0.287-0.664,0.453-0.996
		c0.226-0.453,0.467-0.913,0.724-1.381c-0.09-0.904-0.166-1.803-0.226-2.693c-0.121-1.945-0.158-3.847-0.113-5.702
		c0.06-3.621,0.444-7.136,1.153-10.545c0.121-0.649,0.257-1.283,0.407-1.901l-3.009-0.86c-0.151,0.242-0.347,0.475-0.589,0.702
		c-0.664,0.694-1.381,1.162-2.149,1.403c-0.544,0.151-1.094,0.196-1.653,0.135l-3.099-0.316c-1.299-0.136-2.377-0.777-3.236-1.924
		c-0.076-0.12-0.151-0.234-0.227-0.339c-0.875-1.418-1.222-3.025-1.041-4.82l1.222-11.564c0.166-1.78,0.822-3.266,1.969-4.458
		c1.146-1.207,2.437-1.72,3.869-1.539c0.937,0.091,1.879,0.181,2.83,0.272h0.09l0.091,0.022h0.045
		c0.423,0.045,0.823,0.144,1.199,0.294c0.272,0.105,0.543,0.256,0.815,0.453c0.528,0.362,1.002,0.875,1.426,1.539
		c0.647,0.996,1.01,2.104,1.085,3.326c0.031,0.468,0.023,0.958-0.021,1.471l-0.928,9.233c0.603,0.332,1.388,0.589,2.353,0.77
		c0.271,0.045,0.566,0.098,0.883,0.159v-0.023c0.046-0.513,0.105-1.011,0.182-1.494c0.12-0.784,0.256-1.569,0.407-2.354
		c0.332-1.811,0.738-3.658,1.222-5.544c0.332-1.403,0.717-2.829,1.154-4.277c0.105-0.362,0.211-0.739,0.316-1.131
		c0.182-0.573,0.354-1.139,0.521-1.697c0-0.015,0.007-0.03,0.021-0.045c0.559-1.72,1.26-3.757,2.104-6.11
		C106.858,110.085,107.9,107.332,109.106,104.24z M113.769,109.875c-0.016,0.045-0.03,0.098-0.045,0.158
		c-0.966,2.429-1.75,4.948-2.354,7.558c-0.453,1.871-0.814,3.787-1.086,5.749c-0.287,2.172-0.46,4.413-0.52,6.721
		c-0.045,1.102-0.053,2.225-0.023,3.372c24.501-1.449,49.424-1.449,74.77,0c0.06-1.509,0.066-3.002,0.021-4.481
		c-0.119-2.338-0.392-4.654-0.813-6.947c-0.362-1.961-0.838-3.9-1.426-5.815c-0.71-2.233-1.577-4.443-2.604-6.631
		c-0.21-0.061-0.437-0.121-0.679-0.181c-1.508-0.422-3.598-0.777-6.268-1.063c-2.112-0.211-4.563-0.385-7.355-0.521
		c-5.552-0.256-12.492-0.339-20.818-0.249c-7.106,0.076-12.997,0.242-17.675,0.498c-2.896,0.151-5.333,0.339-7.309,0.566
		C116.507,108.954,114.568,109.376,113.769,109.875z M108.926,137.709l30.912-0.996l-0.09-0.86
		c-2.655-1.237-7.883-1.547-15.683-0.928c-4.813,0.574-8.54,1.011-11.179,1.313c-0.182,0.016-0.348,0.038-0.499,0.068
		c-1.629,0.181-2.791,0.309-3.485,0.385L108.926,137.709z M96.887,123.09c-0.151-0.679-0.414-1.312-0.792-1.9
		c-0.8-1.237-1.834-1.923-3.1-2.06l-2.808-0.294c-1.281-0.121-2.436,0.347-3.461,1.403c-1.011,1.056-1.607,2.406-1.788,4.05
		l-1.109,10.388c-0.121,1.539,0.158,2.904,0.837,4.096c0.045,0.076,0.092,0.151,0.137,0.226c0.8,1.252,1.833,1.947,3.1,2.082
		l2.761,0.271c1.282,0.136,2.452-0.324,3.508-1.38c0.784-0.815,1.313-1.788,1.585-2.919c0.104-0.362,0.181-0.739,0.226-1.132
		l1.041-10.432C97.127,124.629,97.082,123.83,96.887,123.09z M116.914,157.51c-3.41-3.168-6.502-4.307-9.279-3.417
		c-2.217,0.664-3.379,2.761-3.483,6.291c-0.061,1.448,0.128,2.708,0.565,3.78c0.453,1.146,1.063,1.771,1.833,1.877l13.012,2.015
		c1.403,0.015,2.278-0.271,2.626-0.86c0.315-0.558,0.226-1.44-0.272-2.647C121.599,162.602,119.932,160.256,116.914,157.51z
		 M107.093,178.285l9.255,0.678c0.106-0.361,0.234-0.717,0.386-1.063l-9.029-0.477C107.296,177.379,107.093,177.666,107.093,178.285
		z M107.229,179.438c0.061,0.181,0.113,0.347,0.158,0.497l8.622,0.656c0.046-0.361,0.105-0.709,0.181-1.041l-9.051-0.655
		C107.168,179.062,107.197,179.242,107.229,179.438z M115.919,182.313c0-0.393,0.007-0.777,0.022-1.154l-8.26-0.566
		c0.362,0.604,0.807,0.959,1.335,1.064L115.919,182.313z M95.778,191.184c-0.016,6.532,1.584,10.484,4.797,11.857
		c4.723,2.007,8.728,1.946,12.017-0.181c0.408-0.257,0.784-0.536,1.132-0.837c1.78-1.555,2.865-3.621,3.258-6.201
		c-0.302-0.076-0.603-0.15-0.904-0.227c-2.354-0.679-4.685-1.44-6.992-2.285c-1.087-0.287-2.075-0.566-2.966-0.838
		c-2.232-0.678-3.93-1.305-5.091-1.878c-1.223-0.558-2.233-1.222-3.033-1.991c-0.543-0.543-0.996-1.139-1.358-1.787
		c-0.21-0.378-0.392-0.77-0.542-1.178c0,0.121-0.015,0.242-0.046,0.362C95.868,187.631,95.778,189.357,95.778,191.184z
		 M160.477,84.665h-5.432v4.571h5.432v4.435h5.25v-4.435h-5.25V84.665z M206.278,124.516c-0.165-1.614-0.754-2.964-1.765-4.05
		c-1.071-1.071-2.232-1.539-3.484-1.403l-2.783,0.317c-1.282,0.121-2.315,0.8-3.101,2.037c-0.438,0.708-0.74,1.463-0.905,2.263
		c-0.105,0.664-0.128,1.358-0.068,2.082l1.087,10.41c0.046,0.453,0.128,0.875,0.249,1.268c0.286,1.071,0.799,1.999,1.539,2.783
		c1.01,1.057,2.172,1.524,3.484,1.403l2.739-0.272c0.24-0.03,0.474-0.075,0.7-0.135c0.981-0.287,1.789-0.928,2.422-1.924
		c0.407-0.634,0.694-1.313,0.859-2.036c0.151-0.739,0.174-1.517,0.068-2.332L206.278,124.516z M108.654,186.068
		c0,0.634,0.234,1.2,0.701,1.697c0.195,0.166,0.385,0.303,0.566,0.408c0.331,0.182,0.708,0.271,1.131,0.271
		c0.362,0,0.687-0.068,0.974-0.204l0.067-0.022c0.241-0.105,0.461-0.256,0.657-0.453c0.452-0.497,0.679-1.063,0.679-1.697
		c0-0.693-0.227-1.268-0.679-1.719c-0.438-0.483-1.004-0.725-1.698-0.725c-0.648,0-1.215,0.241-1.697,0.725
		C108.889,184.801,108.654,185.375,108.654,186.068z M155.022,89.213h-5.25v4.458h5.25V89.213z M144.342,89.213h5.431v-4.548h-5.431
		V89.213z M139.023,84.619h-5.387v4.594h5.387V84.619z M139.023,93.626h5.296v-4.413h-5.296V93.626z M128.274,89.19v4.413h5.272
		V89.19H128.274z M164.867,157.963h-4.82v4.096h-5.024v4.254h5.024v-4.254h4.82V157.963z M145.021,157.985h-4.934v4.118h-5.001
		v4.232h5.001v-4.232h4.934V157.985z M119.2,145.426c2.052,1.84,5.68,3.236,10.884,4.187c4.798,0.92,10.214,1.358,16.249,1.313
		c5.974-0.015,11.405-0.498,16.293-1.448c5.205-0.981,8.864-2.331,10.976-4.051c1.237-0.996,1.788-1.765,1.652-2.308
		c-0.121-0.604-1.124-1.056-3.01-1.358c-3.365-0.559-11.979-0.792-25.844-0.702c-16.912,0.106-25.692,0.204-26.341,0.294
		c-1.976,0.196-3.001,0.597-3.078,1.2C116.906,143.11,117.646,144.068,119.2,145.426z M135.041,157.985h-4.889v4.142h4.889V157.985z
		 M153.438,135.604l-0.249,0.725l31.071,0.724v-0.747c-6.487-0.754-11.911-1.29-16.271-1.607
		C159.752,134.126,154.902,134.428,153.438,135.604z M185.596,154.093c-2.807-0.89-5.922,0.249-9.346,3.417
		c-2.987,2.746-4.662,5.092-5.024,7.038c-0.497,1.207-0.574,2.09-0.227,2.647c0.348,0.604,1.215,0.898,2.603,0.883l13.013-2.037
		c0.769-0.105,1.38-0.73,1.833-1.877c0.438-1.072,0.641-2.332,0.611-3.78C188.953,156.854,187.798,154.757,185.596,154.093z
		 M185.777,192.835c-0.739,0.272-1.51,0.544-2.309,0.815c-2.339,0.799-4.662,1.501-6.971,2.104
		c-0.104,0.031-0.195,0.054-0.271,0.068c0.302,2.098,1.102,3.848,2.398,5.25c0.544,0.604,1.178,1.146,1.901,1.63
		c3.289,2.127,7.287,2.18,11.994,0.158c3.198-1.358,4.79-5.288,4.775-11.79c-0.016-2.172-0.151-4.209-0.408-6.11
		c-0.015-0.226-0.053-0.452-0.113-0.679c-0.286,0.754-0.611,1.441-0.973,2.059c-0.648,1.133-1.403,2.068-2.263,2.807
		c-0.03,0.016-0.061,0.037-0.091,0.068c-0.03,0.045-0.068,0.075-0.113,0.09c-0.091,0.061-0.181,0.129-0.271,0.204
		s-0.196,0.15-0.316,0.226c-0.468,0.287-1.026,0.597-1.675,0.928c-0.015,0.016-0.03,0.023-0.046,0.023
		c-0.196,0.091-0.385,0.181-0.565,0.271C189.209,191.561,187.646,192.188,185.777,192.835z M186.297,184.824
		c-0.467-0.498-1.033-0.747-1.697-0.747s-1.229,0.249-1.697,0.747c-0.482,0.453-0.725,0.996-0.725,1.63
		c0,0.588,0.167,1.078,0.499,1.47c0.045,0.061,0.098,0.121,0.158,0.182c0.015,0.03,0.037,0.053,0.067,0.068
		c0.227,0.256,0.469,0.438,0.725,0.543c0.302,0.136,0.625,0.203,0.973,0.203c0.302,0,0.589-0.061,0.86-0.181
		c0.302-0.105,0.58-0.294,0.837-0.565c0.453-0.438,0.679-1.011,0.679-1.72C186.976,185.82,186.75,185.277,186.297,184.824z
		 M164.256,201.819c2.082,0.06,4.088,0.136,6.02,0.227c1.704,0.06,3.349,0.128,4.934,0.203c-0.725-0.724-1.252-1.562-1.585-2.512
		c-0.136-0.362-0.241-0.776-0.315-1.245c-0.046-0.211-0.084-0.414-0.114-0.611c-0.075-0.377-0.128-0.791-0.159-1.244
		c-0.467,0.106-0.92,0.211-1.357,0.317c-0.271,0.06-0.527,0.128-0.769,0.204c-0.528,0.105-1.05,0.211-1.562,0.316
		c-2.052,0.422-4.096,0.791-6.133,1.108c-2.504,0.378-4.994,0.671-7.468,0.882c-2.007,0.182-4.006,0.303-5.997,0.363
		c-2.43,0.075-4.865,0.075-7.31,0c-1.991-0.076-3.982-0.204-5.974-0.385c-2.476-0.227-4.948-0.536-7.424-0.928
		c-2.066-0.348-4.134-0.747-6.2-1.199c-0.92-0.211-1.841-0.423-2.761-0.635c-0.09,1.313-0.279,2.392-0.566,3.236
		c-0.331,0.906-0.829,1.697-1.493,2.377c1.343-0.076,2.716-0.144,4.119-0.203c1.841-0.076,3.749-0.137,5.726-0.182
		c2.609-0.105,5.348-0.182,8.215-0.227c2.021-0.03,4.104-0.053,6.245-0.068c1.539,0,3.108,0,4.707,0c0.95,0,1.894,0,2.829,0
		c2.127,0,4.217,0.016,6.269,0.045C158.953,201.706,161.661,201.759,164.256,201.819z M180.164,180.773
		c0.031,0.361,0.046,0.74,0.046,1.132l6.901-0.679c0.574-0.092,1.033-0.445,1.381-1.064L180.164,180.773z M179.372,177.469
		c0.137,0.348,0.257,0.695,0.362,1.042l9.232-0.634l0.092,0.271c0.059-0.83-0.167-1.215-0.68-1.154L179.372,177.469z
		 M179.893,179.145c0.091,0.316,0.167,0.664,0.227,1.041l8.645-0.656c0.03-0.166,0.075-0.34,0.137-0.521
		c0.029-0.195,0.053-0.377,0.066-0.543L179.893,179.145z M154.954,157.963h-4.91v4.141h-5.001v4.232h5.001v-4.232h4.91V157.963z"/>
	<path fill-rule="evenodd" clip-rule="evenodd" fill="#FBB631" d="M226.465,66.47c22.133,22.132,33.198,48.843,33.198,80.132
		c0,31.305-11.065,58.015-33.198,80.132c-22.116,22.133-48.828,33.198-80.132,33.198c-31.289,0-58.001-11.065-80.133-33.198
		c-22.116-22.117-33.175-48.827-33.175-80.132c0-31.29,11.059-58,33.175-80.132c22.132-22.132,48.844-33.198,80.133-33.198
		C177.637,33.272,204.349,44.338,226.465,66.47z M112.569,113.405c0.362-1.101,0.746-2.172,1.154-3.214
		c0.015-0.06,0.029-0.12,0.045-0.181c0.8-0.498,2.738-0.92,5.816-1.268c1.976-0.211,4.42-0.399,7.332-0.565
		c4.661-0.242,10.545-0.408,17.651-0.498c8.342-0.09,15.289,0,20.842,0.272c2.79,0.121,5.234,0.294,7.332,0.52
		c2.67,0.271,4.768,0.626,6.291,1.064c0.226,0.06,0.445,0.121,0.655,0.181c0.952,2.007,1.766,4.043,2.444,6.11
		c-7.422-0.317-12.076-0.476-13.963-0.476c-1.16,0-9.437-0.37-24.824-1.109c-15.388-0.754-23.55-1.131-24.484-1.131
		C116.069,113.11,113.973,113.209,112.569,113.405z M109.106,104.398c-1.206,3.093-2.248,5.846-3.123,8.26
		c-0.845,2.354-1.538,4.383-2.081,6.087c-0.016,0.015-0.023,0.031-0.023,0.045c-0.181,0.573-0.354,1.139-0.52,1.697
		c-0.121,0.393-0.234,0.777-0.34,1.154c-0.438,1.448-0.822,2.866-1.154,4.254c-0.483,1.901-0.89,3.756-1.222,5.567
		c-0.137,0.784-0.271,1.569-0.407,2.353c-0.076,0.483-0.136,0.974-0.182,1.471v0.022c-0.316-0.045-0.604-0.09-0.859-0.135
		c-0.981-0.181-1.766-0.438-2.354-0.77l0.905-9.233c0.045-0.513,0.053-1.003,0.021-1.471c-0.075-1.237-0.438-2.346-1.085-3.327
		c-0.424-0.679-0.897-1.199-1.426-1.562c-0.272-0.181-0.536-0.324-0.792-0.43c-0.378-0.166-0.777-0.264-1.2-0.294h-0.045
		l-0.113-0.023h-0.09c-0.936-0.09-1.879-0.181-2.83-0.271c-1.417-0.181-2.699,0.324-3.847,1.516
		c-1.161,1.191-1.818,2.685-1.969,4.481l-1.244,11.541c-0.181,1.81,0.166,3.417,1.041,4.82c0.075,0.121,0.158,0.242,0.249,0.362
		c0.86,1.147,1.931,1.781,3.214,1.901l3.099,0.339c0.574,0.061,1.125,0.015,1.653-0.136c0.769-0.242,1.493-0.716,2.172-1.426
		c0.227-0.211,0.423-0.438,0.589-0.679l3.01,0.837c-0.166,0.634-0.31,1.275-0.431,1.924c-0.709,3.395-1.094,6.91-1.153,10.545
		c-0.045,1.841-0.008,3.733,0.113,5.681c0.074,0.89,0.158,1.795,0.248,2.715c-0.271,0.468-0.513,0.928-0.724,1.381
		c-0.181,0.332-0.332,0.664-0.452,0.996c-0.151,0.316-0.279,0.625-0.386,0.928c-0.015,0.12-0.037,0.226-0.067,0.316
		c-0.166,0.513-0.287,1.004-0.362,1.471c-0.03,0.182-0.053,0.348-0.067,0.498c-0.061,0.468-0.068,0.943-0.022,1.426v0.045
		c-0.227,1.6-0.4,3.538-0.521,5.816c0,0.15,0,0.309,0,0.475c-0.016,0.105-0.023,0.204-0.023,0.295
		c-0.015,0.361-0.03,0.731-0.046,1.108c0,0.331-0.007,0.679-0.022,1.041c-0.045,1.659-0.052,3.462-0.021,5.409
		c0,0.18,0,0.369,0,0.565c0,0.618-0.054,2.489-0.159,5.612c-0.09,2.383-0.09,4.291,0,5.725c0.076,1.539,0.249,2.807,0.521,3.802
		c0.03,0.12,0.061,0.241,0.092,0.362c0.045,0.136,0.098,0.279,0.157,0.43c0.046,0.137,0.091,0.265,0.136,0.385v0.023
		c0.694,1.523,1.992,2.858,3.893,4.005c3.379,1.418,6.856,1.946,10.433,1.584c1.811,0.181,4.021,0.347,6.631,0.498
		c2.172,0.121,4.465,0.233,6.879,0.339c5.566,0.242,11.753,0.385,18.557,0.431c0.121,0,0.256,0,0.407,0
		c1.72,0.015,3.485,0.022,5.296,0.022c1.086,0,2.165,0,3.235,0c0.121,0,0.257,0,0.406,0c6.73-0.045,12.878-0.174,18.444-0.385
		c3.168-0.105,6.155-0.241,8.962-0.407c2.851-0.166,5.242-0.347,7.174-0.544c3.032,0.106,6.004-0.459,8.916-1.696
		c1.705-0.98,2.896-2.075,3.575-3.281c0.588-0.98,0.98-2.361,1.176-4.142c0.183-1.614,0.235-3.771,0.159-6.472
		c-0.135-4.285-0.204-6.442-0.204-6.473c0-0.558,0-1.101,0-1.629c-0.015-3.093-0.12-5.628-0.316-7.604
		c-0.061-0.573-0.129-1.102-0.203-1.584c-0.061-1.011-0.105-1.751-0.136-2.218c0.075-0.83,0.12-1.607,0.136-2.331
		c0.03-1.298-0.038-2.452-0.204-3.462c-0.302-2.008-0.92-3.244-1.855-3.712c0-0.468,0-0.928,0-1.38
		c-0.029-2.113-0.091-4.059-0.181-5.839c-0.076-1.63-0.196-3.123-0.363-4.481c-0.211-2.157-0.505-4.202-0.882-6.132
		c-0.181-0.83-0.361-1.629-0.544-2.399l1.563-0.43c0.227,0.287,0.468,0.581,0.724,0.882c0.755,0.754,1.563,1.229,2.422,1.425
		c0.467,0.106,0.957,0.129,1.471,0.068l3.032-0.294c1.434-0.181,2.587-0.951,3.463-2.308c0.241-0.362,0.438-0.747,0.588-1.154
		c0.423-1.101,0.573-2.315,0.453-3.644l-1.177-11.541c-0.211-1.81-0.883-3.304-2.015-4.48c-1.146-1.177-2.421-1.697-3.824-1.562
		l-3.101,0.317c-1.418,0.166-2.572,0.928-3.463,2.285c-0.692,1.117-1.055,2.361-1.086,3.734c-0.015,0.363,0,0.732,0.046,1.109
		l0.656,6.065v0.135c0,0.016,0,0.03,0,0.045l0.045,0.43c0,0.015,0.008,0.037,0.022,0.068c0.076,0.739,0.15,1.479,0.227,2.217
		c-0.452,0.242-0.98,0.46-1.584,0.657c-0.271-1.042-0.573-2.248-0.906-3.621c-0.406-1.6-0.866-3.455-1.379-5.567
		c-0.438-1.78-0.913-3.756-1.427-5.929c-0.12-0.468-0.24-0.936-0.362-1.403c-0.572-2.338-1.146-4.519-1.72-6.54
		c-0.919-3.364-1.81-6.284-2.67-8.758c-0.09-0.271-0.188-0.528-0.293-0.769c-0.046-0.121-0.091-0.234-0.136-0.339v-0.045
		c-0.106-0.211-0.204-0.407-0.295-0.588c-0.045-0.045-0.076-0.083-0.091-0.113c-0.136-0.256-0.264-0.498-0.385-0.724
		c-0.06-0.121-0.128-0.226-0.203-0.317c-0.016-0.03-0.038-0.061-0.068-0.09c-0.996-1.614-2.067-2.821-3.213-3.621
		c-0.105-0.061-0.22-0.136-0.34-0.227c-0.03-0.015-0.06-0.03-0.091-0.045c-1.584-0.92-4.201-1.577-7.853-1.969
		c-0.257,0-0.513,0-0.77,0c-0.195-0.604-0.384-1.169-0.565-1.697c-0.06-0.105-0.105-0.204-0.136-0.294
		c-0.136-0.377-0.264-0.732-0.385-1.064c-0.347-0.935-0.694-1.742-1.041-2.421c-1.252-2.655-2.821-4.171-4.706-4.548
		c-3.184-0.423-8.697-0.619-16.544-0.588c-7.06,0-12.438,0.158-16.135,0.475c-2.339,0.333-4.134,1.72-5.386,4.164
		c-0.302,0.588-0.626,1.297-0.973,2.127c-0.423,1.026-0.868,2.233-1.335,3.621c-0.212,0.015-0.415,0.022-0.611,0.022
		c-3.289,0.015-6.012,0.769-8.17,2.263c-2.157,1.479-3.854,3.742-5.091,6.789c-0.03,0.091-0.061,0.182-0.091,0.271
		C109.325,103.817,109.212,104.111,109.106,104.398z M112.456,121.008c0.92-0.317,2.271-0.807,4.051-1.471
		c1.721-0.528,3.696-0.792,5.929-0.792c5.25,0,17.274,0.173,36.072,0.521c9.323,0.015,17.47-0.189,24.44-0.611
		c0.302,1.162,0.565,2.331,0.792,3.507c0.422,2.293,0.687,4.609,0.791,6.948c0.045,1.463,0.038,2.949-0.021,4.458
		c-25.331-1.434-50.246-1.434-74.746,0c-0.045-1.146-0.038-2.263,0.021-3.349c0.061-2.158,0.211-4.254,0.453-6.292
		c2.157-0.09,5.295-0.249,9.414-0.475c7.301-0.166,13.435,0.271,18.397,1.313h13.556v-0.747h-7.513c0-0.121,0.06-0.249,0.181-0.385
		c0.12-0.121,0.181-0.241,0.181-0.362c-0.377,0.121-1.251,0.242-2.624,0.362c-1.389,0.136-2.271,0.264-2.648,0.385h-2.24v-0.385
		c0.166,0,0.958-0.294,2.376-0.883c1.479-0.618,2.315-0.951,2.513-0.995c0-0.151-0.068-0.257-0.204-0.317l-0.181-0.045h-29.736
		L112.456,121.008z M112.388,136.442c0.151-0.015,0.325-0.03,0.521-0.045c2.641-0.317,6.366-0.754,11.18-1.313
		c7.799-0.634,13.02-0.332,15.66,0.905l0.09,0.882l-30.912,0.996l-0.023-1.019C109.612,136.773,110.773,136.638,112.388,136.442z
		 M94.76,124.561l0.746-0.113c0.8-0.03,1.32-0.068,1.563-0.113c0.029,0.423,0.014,0.86-0.046,1.313l-1.041,10.433
		c-0.045,0.393-0.113,0.762-0.203,1.109c-0.287,1.131-0.823,2.104-1.607,2.919c-1.056,1.071-2.226,1.539-3.508,1.403l-2.738-0.294
		c-1.281-0.121-2.322-0.807-3.122-2.06c-0.045-0.075-0.092-0.159-0.137-0.249c-0.679-1.191-0.95-2.557-0.814-4.096l0.883-8.351
		l1.72,0.045c1.162,0.061,2.104-0.008,2.829-0.204l0.656-0.181c0.271-0.105,0.619-0.279,1.041-0.521
		c-0.211-0.03-0.589-0.083-1.132-0.158h-0.61c-1.268-0.151-1.939-0.498-2.015-1.041c0.664-0.151,1.275-0.256,1.833-0.317
		l1.855-0.136c0.438,0.031,0.86,0.091,1.268,0.182l0.476,0.045c0.226,0.151,0.384,0.31,0.475,0.475
		c0.121,0.061,0.212,0.144,0.272,0.249C93.764,124.689,94.217,124.576,94.76,124.561z M92.995,119.289
		c1.071,0.105,1.976,0.611,2.715,1.516l-10.002,1.018c0.286-0.528,0.633-1.003,1.041-1.425c1.011-1.071,2.157-1.539,3.438-1.403
		L92.995,119.289z M116.937,157.668c3.003,2.746,4.662,5.092,4.979,7.038c0.498,1.207,0.596,2.082,0.294,2.625
		c-0.347,0.604-1.229,0.897-2.647,0.883l-13.012-2.015c-0.771-0.12-1.38-0.754-1.833-1.9c-0.423-1.056-0.611-2.308-0.565-3.756
		c0.104-3.531,1.267-5.635,3.483-6.314C110.412,153.354,113.512,154.5,116.937,157.668z M98.018,196.682
		c-0.226,0.031-0.361,0-0.406-0.09c-0.167,0.241-0.249,0.377-0.249,0.407c-0.211,0.302-0.196,0.581,0.045,0.837
		c0.136,0.211,0.399,0.423,0.792,0.635c0.393,0.195,0.709,0.361,0.95,0.497c0.137-0.075,0.167-0.257,0.091-0.543
		c-0.045-0.286,0-0.468,0.135-0.544l5.908-0.429c2.503-0.997,3.831-1.517,3.982-1.562l5.431-0.543
		c0.468,0.135,0.928,0.271,1.381,0.406c0.302,0.076,0.61,0.151,0.928,0.227c-0.393,2.564-1.486,4.625-3.281,6.179
		c-0.348,0.302-0.724,0.588-1.132,0.86c-3.289,2.111-7.294,2.164-12.017,0.158c-2.293-0.967-3.756-3.252-4.39-6.857l0.95-0.725
		h0.068c0.21,0,0.475,0.091,0.791,0.271c0.182,0,0.393,0.068,0.635,0.204c0.226,0.257,0.369,0.392,0.43,0.407
		c-0.091-0.016-0.212-0.008-0.362,0.022C98.501,196.607,98.275,196.668,98.018,196.682z M95.846,193.039
		c-0.03-0.543-0.045-1.109-0.045-1.697c0-1.841,0.083-3.576,0.248-5.205c0.031-0.105,0.046-0.219,0.046-0.34
		c0.165,0.408,0.347,0.801,0.542,1.178c0.362,0.633,0.824,1.229,1.381,1.787c0.801,0.77,1.811,1.434,3.033,1.992
		c1.161,0.572,2.852,1.191,5.068,1.855c0.906,0.286,1.895,0.572,2.966,0.859c0.119,0.03,0.226,0.068,0.316,0.113
		C106.277,193.28,101.76,193.1,95.846,193.039z M115.941,181.316c-0.016,0.377-0.022,0.762-0.022,1.154l-6.902-0.656
		c-0.528-0.105-0.973-0.468-1.335-1.086L115.941,181.316z M108.27,180.162l-0.859-0.067c-0.061-0.151-0.121-0.325-0.182-0.521
		c-0.031-0.182-0.061-0.362-0.09-0.543l9.051,0.656c-0.075,0.332-0.135,0.68-0.181,1.041l-6.97-0.521
		c-0.105-0.121-0.196-0.204-0.271-0.249C108.45,179.975,108.284,180.042,108.27,180.162z M107.093,178.42
		c0-0.604,0.203-0.883,0.611-0.837l9.029,0.476c-0.151,0.332-0.271,0.678-0.362,1.041L107.093,178.42z M112.094,188.377
		l-0.067,0.023c-0.272,0.12-0.589,0.181-0.95,0.181c-0.423,0-0.801-0.083-1.133-0.249c-0.195-0.105-0.385-0.249-0.564-0.43
		c-0.469-0.483-0.702-1.049-0.702-1.697c0-0.68,0.233-1.245,0.702-1.697c0.467-0.498,1.033-0.747,1.697-0.747
		c0.678,0,1.244,0.249,1.696,0.747c0.453,0.452,0.679,1.018,0.679,1.697c0,0.648-0.226,1.214-0.679,1.697
		C112.563,188.113,112.335,188.271,112.094,188.377z M200.282,122.049c0.015,0.015-0.008,0.075-0.068,0.181
		c0.167-0.106,0.31-0.189,0.431-0.249C200.523,121.966,200.402,121.989,200.282,122.049z M206.461,126.53
		c-2.565,0.543-4.534,0.958-5.907,1.245h-0.271c0.376,0.03,0.974,0.099,1.788,0.204c0.875,0.121,1.501,0.181,1.879,0.181h0.384
		c-0.573,0.196-1.252,0.37-2.037,0.521c-0.784,0.151-1.365,0.227-1.742,0.227h-0.362c0.483,0.453,1.29,0.784,2.422,0.996
		c1.026,0.211,1.848,0.256,2.467,0.136h0.385c-4.029,1.328-7.075,2.21-9.143,2.648c-0.468,0.075-0.936,0.15-1.402,0.226
		l-0.748-7.015c-0.06-0.725-0.029-1.411,0.091-2.06c0.15-0.8,0.445-1.554,0.883-2.263c0.785-1.236,1.818-1.916,3.101-2.037
		l2.783-0.316c1.252-0.136,2.413,0.324,3.484,1.38c1.026,1.102,1.614,2.452,1.765,4.051L206.461,126.53z M195.259,136.329
		l-0.249-2.512c3.937,0.03,8.019,0.144,12.242,0.34l0.091,0.928c0.091,0.814,0.067,1.591-0.068,2.331
		c-0.181,0.725-0.475,1.396-0.882,2.014c-0.619,1.011-1.426,1.652-2.422,1.923c-0.227,0.076-0.452,0.129-0.679,0.159l-2.761,0.249
		c-1.298,0.121-2.459-0.34-3.484-1.38c-0.74-0.785-1.245-1.712-1.518-2.783C195.394,137.204,195.305,136.781,195.259,136.329z
		 M160.477,84.823v4.549h5.25v4.458h-5.25v-4.458h-5.432v-4.549H160.477z M128.297,89.327h5.272v4.435h-5.272V89.327z
		 M144.319,93.785h-5.296v-4.436h5.296V93.785z M139.023,84.778v4.571h-5.387v-4.571H139.023z M144.342,89.349v-4.526h5.431v4.526
		H144.342z M155.022,89.349v4.481h-5.25v-4.481H155.022z M153.438,135.763c1.464-1.177,6.313-1.486,14.552-0.927
		c4.359,0.316,9.79,0.852,16.292,1.606v0.747l-31.093-0.724L153.438,135.763z M135.041,158.145v4.141h-4.889v-4.141H135.041z
		 M119.223,145.584c-1.555-1.373-2.294-2.332-2.218-2.875c0.06-0.618,1.079-1.019,3.055-1.199c0.664-0.105,9.452-0.211,26.364-0.317
		c13.864-0.075,22.471,0.158,25.82,0.702c1.886,0.302,2.889,0.762,3.01,1.38c0.15,0.543-0.393,1.313-1.63,2.309
		c-2.126,1.72-5.793,3.063-10.998,4.028c-4.873,0.965-10.304,1.456-16.293,1.471c-6.035,0.046-11.451-0.392-16.249-1.312
		C124.895,148.805,121.274,147.41,119.223,145.584z M145.021,158.145v4.117h-4.911v4.232h-5.023v-4.232h5.023v-4.117H145.021z
		 M164.89,158.121v4.096h-4.82v4.254h-5.047v-4.254h5.047v-4.096H164.89z M185.596,154.229c2.218,0.68,3.379,2.783,3.484,6.314
		c0.031,1.448-0.173,2.7-0.61,3.756c-0.453,1.146-1.063,1.78-1.833,1.9l-13.013,2.037c-1.402,0.016-2.277-0.286-2.625-0.905
		c-0.348-0.543-0.264-1.418,0.249-2.625c0.362-1.946,2.029-4.292,5.002-7.038C179.688,154.5,182.805,153.354,185.596,154.229z
		 M154.954,158.121v4.141h-4.888v4.232h-5.023v-4.232h5.023v-4.141H154.954z M180.188,180.909l8.327-0.61
		c-0.362,0.633-0.822,0.988-1.38,1.063l-6.902,0.68C180.232,181.648,180.217,181.271,180.188,180.909z M179.893,179.303l9.098-0.679
		c-0.016,0.166-0.037,0.339-0.068,0.521c-0.075,0.195-0.128,0.369-0.158,0.52l-8.622,0.657
		C180.081,179.943,179.998,179.604,179.893,179.303z M179.372,177.628l9.029-0.476c0.499-0.061,0.725,0.324,0.679,1.154l-0.09-0.271
		l-9.256,0.634C179.644,178.322,179.523,177.975,179.372,177.628z M170.909,197.293c0.257-0.061,0.513-0.12,0.769-0.181
		c0.438-0.105,0.898-0.219,1.381-0.339c0.016,0.271,0.037,0.527,0.068,0.769c0.014,0.166,0.037,0.325,0.067,0.476
		c0.03,0.211,0.068,0.414,0.114,0.611c0.074,0.482,0.188,0.904,0.339,1.268c0.332,0.949,0.852,1.787,1.562,2.512
		c-1.585-0.076-3.229-0.151-4.934-0.227c-1.932-0.09-3.931-0.158-5.997-0.204c-2.609-0.06-5.325-0.112-8.146-0.158
		c-2.037-0.03-4.126-0.045-6.269-0.045c-0.936,0-1.871,0-2.806,0c-1.6,0-3.168,0-4.708,0c-2.157,0.015-4.246,0.038-6.268,0.067
		c-2.852,0.045-5.59,0.113-8.215,0.204c-1.977,0.046-3.877,0.113-5.703,0.203c-1.419,0.061-2.791,0.128-4.119,0.204
		c0.648-0.694,1.14-1.486,1.471-2.377c0.303-0.844,0.491-1.93,0.566-3.258c0.92,0.226,1.849,0.438,2.783,0.634
		c2.052,0.468,4.111,0.867,6.178,1.199c2.476,0.392,4.956,0.709,7.445,0.95c1.992,0.181,3.984,0.31,5.975,0.385
		c2.43,0.076,4.857,0.076,7.287,0c1.991-0.061,3.99-0.182,5.997-0.362c2.489-0.212,4.979-0.505,7.468-0.882
		c1.9-0.303,3.802-0.642,5.703-1.02c0.136-0.029,0.278-0.06,0.43-0.09C169.875,197.512,170.396,197.399,170.909,197.293z
		 M186.297,184.96c0.453,0.452,0.679,1.003,0.679,1.652c0,0.709-0.226,1.282-0.679,1.72c-0.257,0.271-0.527,0.46-0.814,0.566
		c-0.286,0.104-0.581,0.158-0.883,0.158c-0.348,0-0.664-0.061-0.95-0.182c-0.271-0.105-0.521-0.287-0.747-0.543
		c-0.03-0.016-0.053-0.038-0.067-0.068c-0.061-0.061-0.113-0.12-0.158-0.181c-0.332-0.392-0.499-0.883-0.499-1.471
		c0-0.649,0.242-1.2,0.725-1.652c0.483-0.482,1.049-0.724,1.697-0.724C185.264,184.236,185.83,184.478,186.297,184.96z
		 M191.072,190.799c0.664-0.332,1.222-0.634,1.675-0.905c0.12-0.091,0.233-0.174,0.339-0.249c0.091-0.061,0.174-0.121,0.249-0.182
		c0.045-0.015,0.083-0.045,0.113-0.09c0.03-0.03,0.061-0.053,0.091-0.068c0.874-0.738,1.629-1.674,2.263-2.806
		c0.361-0.634,0.693-1.327,0.995-2.082c0.046,0.241,0.076,0.476,0.091,0.701c0.196,1.358,0.324,2.806,0.385,4.345
		c-2.097,0.514-4.33,1.049-6.698,1.607c0.166-0.091,0.316-0.174,0.452-0.249C191.042,190.821,191.058,190.813,191.072,190.799z
		 M181.567,197.203c5.733-0.227,10.832-0.43,15.298-0.611c-0.694,3.334-2.135,5.477-4.322,6.428
		c-4.707,2.021-8.713,1.968-12.017-0.159c-0.709-0.497-1.343-1.041-1.901-1.63c-0.98-1.086-1.675-2.368-2.082-3.847
		C178.158,197.323,179.833,197.264,181.567,197.203z"/>
	<path fill-rule="evenodd" clip-rule="evenodd" fill="#454749" d="M186.592,52.395c2.097,0.77,4.186,1.614,6.268,2.535
		c-0.362,0.06-0.671,0.143-0.928,0.249l-0.203,0.159c-0.015,0.211,0.053,0.302,0.203,0.272c0.137,0.015,0.294,0,0.476-0.046
		c0.181-0.015,0.271,0.083,0.271,0.294c0.076,0.302,0.076,0.453,0,0.453c-0.271-0.016-0.497,0-0.679,0.045
		c-0.181,0.06-0.31,0.121-0.385,0.181v0.068c-0.061,0.83,0.008,1.591,0.204,2.285l0.067,0.182l11.474,1.199
		c0.92,0.558,1.848,1.094,2.782,1.606c4.542,2.761,8.721,5.771,12.538,9.03c-0.03,0.029-0.076,0.06-0.136,0.09l0.136,0.362
		c0.12,0.136,0.256,0.173,0.406,0.113c-0.015-0.076,0.038-0.136,0.159-0.181c0.316,0.287,0.642,0.573,0.973,0.86
		c-0.136,0-0.264,0-0.385,0c-0.195-0.061-0.429-0.144-0.701-0.25l-0.271-0.09c0.061,0.181-0.181,0.362-0.724,0.543
		c-0.046,0.271,0.06,0.4,0.316,0.385c0.468-0.016,0.709,0.007,0.724,0.067c0.121,0.045,0.167,0.121,0.137,0.227
		c-0.046,0-0.068,0.038-0.068,0.113c-0.015,0.045-0.015,0.076,0,0.091c0.045,0,0.128,0,0.249,0
		c-0.061-0.136,0.045-0.354,0.316-0.656l0.091-0.022c0.137,0.105,0.332,0.324,0.588,0.656c0.317,0.316,0.574,0.475,0.771,0.475
		l0.067,0.045c0-0.136,0.031-0.31,0.09-0.521c0.453,0.377,0.905,0.769,1.358,1.176c-0.06,0-0.113,0-0.158,0
		c-0.527,0.106-0.755,0.347-0.679,0.724c0.045,0.393-0.099,0.634-0.43,0.725c0.12,0,0.248,0.022,0.384,0.067
		c0.212,0.015,0.324,0.106,0.34,0.272c0.422-0.347,0.792-0.536,1.108-0.566c0.182,0,0.347-0.053,0.498-0.159
		c0.241-0.06,0.482-0.173,0.725-0.339l0.068,0.091c0.045,0.045,0.301,0.415,0.769,1.108c0.423,0.559,0.747,0.898,0.974,1.019
		c0.678,0.332,1.471,0.399,2.376,0.204l0.406-0.113l-0.315,0.475c-0.514,0.543-0.822,1.094-0.929,1.652
		c-0.061,0.181-0.121,0.369-0.181,0.565c-0.393,0.076-0.754,0.113-1.086,0.113c-0.664,0-1.2,0.03-1.607,0.09
		c-0.12,0.03-0.347,0.045-0.679,0.045c0,0.241,0.091,0.4,0.272,0.475c0.045,0.061,0.181,0.061,0.406,0
		c0.498,0.016,0.8,0.159,0.905,0.431c0.03,0.166-0.053,0.422-0.249,0.769c-0.257,0.453-0.414,0.709-0.475,0.77
		c0,0.196,0.015,0.324,0.046,0.385c0.149,0.121,0.406,0.166,0.769,0.136l-0.656,0.543c-0.559,0.393-1.146,0.717-1.765,0.973
		c-0.288,0.121-0.725,0.317-1.313,0.588l-1.9,0.95c-0.377,0.257-0.68,0.491-0.905,0.702c0.271,0.256,0.604,0.37,0.995,0.34
		c0.166,0,0.416-0.03,0.746-0.091L221.6,87.2c0.151,0.316,0.182,0.664,0.09,1.041c-0.045,0.105-0.158,0.362-0.339,0.77
		c-0.331,0.619-0.399,1.101-0.203,1.448h-0.408c-1.131-0.091-1.832-0.136-2.104-0.136c-0.361-0.045-0.792-0.045-1.29,0l-1.086,0.09
		l-1.651,0.476l-0.408,0.565c-0.438,0.483-0.874,0.883-1.313,1.2l-0.61,0.498c-0.287,0.181-0.656,0.377-1.109,0.588
		c-0.527,0.151-1.117,0.294-1.765,0.431l-1.404,0.226l-0.384-0.113c-0.15,0.121-0.196,0.272-0.135,0.453
		c0,0.166,0.044,0.362,0.135,0.588c-0.543,0.196-1.033,0.31-1.472,0.339c-0.24,0.045-0.459,0.068-0.656,0.068
		c-0.709-0.016-1.326-0.136-1.854-0.362c0.104-0.227,0.354-0.37,0.746-0.43c0.227,0,0.559-0.037,0.996-0.113
		c0.271-0.045,0.498-0.113,0.679-0.204c0.196-0.211,0.332-0.475,0.408-0.792c-0.15-0.272-0.34-0.453-0.566-0.543
		c-0.196-0.105-0.422-0.128-0.679-0.068c-0.287,0-0.709,0.091-1.267,0.271c-0.544,0.136-0.929,0.234-1.155,0.294h-0.498
		c-0.075,0.09-0.075,0.219,0,0.385c0,0.06,0.099,0.181,0.295,0.362l0.294,0.317c0.075,0.181,0.113,0.37,0.113,0.566l-0.317,0.022
		c-0.212-0.015-0.452-0.007-0.724,0.022c-0.377,0.061-0.731,0.174-1.063,0.339l-0.317,0.113l-2.67,1.946h-0.068
		c-0.211,0-0.475-0.098-0.791-0.294c-0.182,0-0.385-0.06-0.611-0.181c-0.241-0.226-0.399-0.354-0.476-0.384
		c0.12,0.03,0.256,0.015,0.407-0.045c0.196-0.075,0.415-0.136,0.656-0.181c0.241,0,0.393,0.031,0.452,0.091
		c0.122-0.226,0.183-0.347,0.183-0.362c0.226-0.347,0.226-0.641,0-0.882c-0.122-0.196-0.394-0.408-0.815-0.634
		c-0.407-0.166-0.71-0.34-0.904-0.521c-0.168,0.105-0.213,0.294-0.137,0.566c0.045,0.287,0,0.483-0.136,0.588l-5.907,0.362
		c-2.504,0.996-3.831,1.524-3.981,1.584l-4.527,0.476c-0.527-0.558-1.055-1.026-1.583-1.403c-0.105-0.061-0.22-0.136-0.34-0.227
		c-0.03-0.015-0.06-0.03-0.091-0.045c-1.584-0.92-4.201-1.577-7.853-1.969c-0.257,0-0.513,0-0.77,0
		c-0.195-0.604-0.384-1.169-0.565-1.697c-0.06-0.105-0.105-0.204-0.136-0.294c-0.136-0.377-0.264-0.732-0.385-1.064
		c-0.347-0.935-0.694-1.742-1.041-2.421c-1.252-2.655-2.821-4.171-4.706-4.548c-3.184-0.423-8.697-0.619-16.544-0.588
		c-7.06,0-12.438,0.158-16.135,0.475c-2.339,0.333-4.134,1.72-5.386,4.164c-0.302,0.588-0.626,1.297-0.973,2.127
		c-0.423,1.026-0.868,2.233-1.335,3.621c-0.212,0.015-0.415,0.022-0.611,0.022c-3.289,0.015-6.012,0.769-8.17,2.263
		c-2.157,1.479-3.854,3.742-5.091,6.789c-0.03,0.091-0.061,0.182-0.091,0.271c-0.121,0.302-0.234,0.596-0.34,0.883
		c-1.206,3.093-2.248,5.846-3.123,8.26c-0.845,2.354-1.538,4.383-2.081,6.087c-0.016,0.015-0.023,0.031-0.023,0.045
		c-0.181,0.573-0.354,1.139-0.52,1.697c0,0.015,0,0.03,0,0.045l-2.784-0.045c-1.479,0.015-2.602,0.06-3.371,0.136l-0.317,0.045
		c-0.061-0.105-0.129-0.203-0.203-0.294c-0.424-0.679-0.897-1.199-1.426-1.562c-0.272-0.181-0.536-0.324-0.792-0.43
		c-0.378-0.166-0.777-0.264-1.2-0.294h-0.045l-0.113-0.023h-0.09c-0.936-0.09-1.879-0.181-2.83-0.271
		c-1.417-0.181-2.699,0.324-3.847,1.516c-0.738,0.754-1.274,1.629-1.606,2.625l-5.657,0.588c0,0.061-0.347,0.189-1.041,0.385
		c-0.438,0.151-0.626,0.317-0.565,0.498l-5.114,0.294c-1.796,0.045-3.161,0.128-4.097,0.249l-4.3,0.362
		c-1.191,0.181-2.436,0.393-3.733,0.634l-3.961,0.77c-0.12-0.061-0.309-0.128-0.565-0.204c-0.12-0.045-0.453-0.007-0.995,0.114
		c-0.876,0.121-1.419,0.211-1.63,0.271c-0.679-0.015-1.214-0.166-1.606-0.453l-0.271,0.158c-0.151,0.105-0.385,0.226-0.701,0.362
		c-0.105,0.03-0.228,0.067-0.362,0.113c-0.619,0.166-1.078,0.279-1.381,0.339c-0.814,0.271-1.094,0.687-0.837,1.245
		c-0.271-0.121-0.573-0.196-0.904-0.227c-0.424-0.015-0.816-0.068-1.178-0.158c0.316-0.211,0.513-0.347,0.588-0.408
		c0.182-0.196,0.257-0.49,0.227-0.882c-0.045-0.136-0.422-0.551-1.132-1.245h-0.067c1.223-5.024,2.904-9.972,5.047-14.845
		c2.806-6.382,6.389-12.643,10.748-18.783c13.412-18.662,30.929-31.569,52.547-38.72c4.587-1.524,9.361-2.784,14.324-3.779
		C148.799,44.437,168.291,45.696,186.592,52.395z M216.621,70.25c0.256,0.105,0.234,0.234-0.067,0.385
		c-0.136,0.105-0.34,0.203-0.611,0.294c-0.046,0.648-0.287,1.222-0.725,1.72c0.046,0.015,0.144,0.022,0.294,0.022
		c0.091-0.09,0.182-0.188,0.272-0.294c0.21-0.317,0.43-0.476,0.655-0.476c0.196-0.075,0.196,0.038,0,0.34
		c0.196-0.061,0.362-0.182,0.498-0.362c0.303-0.347,0.407-0.754,0.317-1.222c-0.03-0.393-0.174-0.559-0.431-0.499L216.621,70.25z
		 M55.52,115.08c-0.482,0.045-0.86,0.158-1.132,0.339c0.106,0,0.257,0,0.453,0c0.211-0.045,0.438-0.128,0.679-0.25V115.08z
		 M75.524,113.065l-0.431,0.09c0.045,0.06,0.121,0.105,0.227,0.136c0.045,0,0.113-0.015,0.204-0.045
		C75.464,113.186,75.464,113.125,75.524,113.065z M68.44,130.264c0.167-0.347,0.144-0.679-0.067-0.996
		c0.543-0.271,0.867-0.588,0.974-0.951h9.708c0-0.181-0.113-0.339-0.34-0.475c-0.271-0.091-0.414-0.219-0.43-0.385
		c0.814-0.513,1.803-0.86,2.964-1.042c0.604-0.06,1.177-0.068,1.72-0.022l1.109,0.045l-0.95,8.894
		c-0.181,1.81,0.166,3.417,1.041,4.82c0.075,0.121,0.158,0.242,0.249,0.362c0.86,1.147,1.931,1.781,3.214,1.901l3.099,0.339
		c0.574,0.061,1.125,0.015,1.653-0.136c0.769-0.242,1.493-0.716,2.172-1.426c0.227-0.211,0.423-0.438,0.589-0.679l3.01,0.837
		c-0.166,0.634-0.31,1.275-0.431,1.924c-0.709,3.395-1.094,6.91-1.153,10.545c-0.045,1.841-0.008,3.733,0.113,5.681
		c0.074,0.89,0.158,1.795,0.248,2.715c-0.271,0.468-0.513,0.928-0.724,1.381c-0.181,0.332-0.332,0.664-0.452,0.996
		c-0.151,0.316-0.279,0.625-0.386,0.928c-0.015,0.12-0.037,0.226-0.067,0.316c-0.166,0.513-0.287,1.004-0.362,1.471
		c-0.03,0.182-0.053,0.348-0.067,0.498c-0.061,0.468-0.068,0.943-0.022,1.426v0.045c-0.091,0.634-0.167,1.328-0.227,2.082
		c-0.076,0.03-0.144,0.061-0.203,0.091c0.045,0.015,0.104,0.022,0.18,0.022c-0.105,1.086-0.195,2.293-0.271,3.621
		c0,0.15,0,0.309,0,0.475c-0.016,0.105-0.023,0.204-0.023,0.295c-0.015,0.361-0.03,0.731-0.046,1.108
		c0,0.331-0.007,0.679-0.022,1.041c-0.045,1.659-0.052,3.462-0.021,5.409c0,0.18,0,0.369,0,0.565c0,0.618-0.054,2.489-0.159,5.612
		c-0.045,1.267-0.067,2.406-0.067,3.416c-7.347-0.074-16.641-0.007-27.88,0.205c0.543-0.061,1.079-0.121,1.606-0.182
		c-1.403-0.15-3.636-0.408-6.698-0.77l-0.113-1.969c0.966-1.252,2.21-2.459,3.733-3.621c1.373-0.89,2.882-1.734,4.526-2.534
		c0.227-0.061,0.476-0.174,0.747-0.34c0.588-0.196,1.161-0.423,1.72-0.679c3.726-1.402,6.382-2.429,7.966-3.078l-0.046-0.475
		c-4.691-0.332-9.044-0.672-13.057-1.018c-0.271-0.227-0.476-0.453-0.61-0.68c-0.228,0.136-0.408,0.287-0.544,0.453
		c-0.136,0.09-0.241,0.12-0.316,0.09c-0.694,0.422-1.351,0.521-1.97,0.294c-0.256-0.136-0.497-0.309-0.724-0.521
		c-0.361-0.029-0.754-0.045-1.177-0.045c-3.757-0.393-7.098-0.634-10.025-0.725c3.561-1.99,7.265-3.258,11.111-3.801
		c0-0.016-0.022-0.031-0.067-0.046c0.104-0.045,0.256-0.075,0.452-0.091c0.227,0.016,0.415,0.046,0.566,0.091
		c0.074,0.061,0.144,0.091,0.203,0.091c0.287,0,0.619-0.061,0.996-0.182l-0.022-0.112c0-0.03-0.008-0.091-0.023-0.181
		c-0.195-1.117-0.655-1.977-1.38-2.58c-0.105-0.076-0.219-0.204-0.34-0.385c-0.241,0-0.505,0.022-0.792,0.067
		c-0.966,0.046-1.878,0.067-2.738,0.067c-1.976,0-3.229-0.135-3.757-0.406c0.242-0.589,0.77-1.14,1.584-1.652
		c0.664-0.256,1.23-0.506,1.697-0.747c-0.074-0.046-0.143-0.091-0.203-0.136c-0.725-0.573-1.086-1.01-1.086-1.313l0.045-0.113
		c-0.482-0.316-0.996-0.596-1.539-0.837h-10.84c-0.029-0.196-0.061-0.393-0.09-0.589c-0.03-0.061-0.045-0.128-0.045-0.203
		c-0.182,0.015-0.371,0.045-0.566,0.09c-0.165-1.357-0.324-2.707-0.476-4.051c0.091-0.045,0.181-0.105,0.272-0.18
		c-1.465-9.219-1.555-18.218-0.272-26.998h1.493c0.74,0,1.457-0.068,2.15-0.204c0.377-0.045,1.004-0.166,1.879-0.362l1.765-0.408
		l15.909,1.155c0.182,0,0.286-0.083,0.316-0.25c0.091-0.226,0.212-0.362,0.362-0.407l1.268-0.022c1.779,0.06,3.16,0.06,4.141,0
		c0.303,0,0.717-0.008,1.245-0.023c0.12-0.136,0.279-0.287,0.475-0.453c0.061-0.135,0.491-0.429,1.29-0.882l0.091-0.068h-0.091
		c-0.452-0.135-0.92-0.135-1.403,0c-0.18,0.061-0.46,0.211-0.837,0.453c-0.634,0.377-1.018,0.611-1.153,0.702l-0.091-0.407
		c0.075-0.257,0.475-0.453,1.199-0.588l0.882-0.362c0.302-0.121,0.476-0.324,0.521-0.611l-0.61-0.181
		c-0.271-0.121-0.559-0.181-0.86-0.181c-0.361-0.045-0.8-0.053-1.313-0.022c-0.241,0.075-0.61,0.151-1.108,0.226
		c-0.438,0.106-0.846,0.257-1.223,0.453c-0.257,0.166-0.965,0.37-2.127,0.611c0.015-0.061,0.022-0.159,0.022-0.294
		C68.086,130.89,68.23,130.611,68.44,130.264z M45.246,146.422l0.181,0.135c0.407,0.151,0.746,0.211,1.018,0.181
		c0.528,0.076,0.883-0.068,1.064-0.43l-1.11-0.068c-0.451-0.06-0.775-0.037-0.972,0.068
		C45.306,146.369,45.246,146.406,45.246,146.422z M44.929,156.084l-0.271,0.159c-0.377,0.151-0.527,0.286-0.453,0.407
		c0.181-0.105,0.272-0.098,0.272,0.021l0.157-0.021C45.041,156.529,45.14,156.341,44.929,156.084z M87.586,198.787
		c0-0.196-0.045-0.408-0.136-0.634c0.543-0.181,1.041-0.294,1.493-0.339c0.211-0.061,0.415-0.084,0.611-0.068
		c0.71,0,1.344,0.121,1.9,0.361c-0.136,0.212-0.399,0.363-0.792,0.453c-0.211-0.03-0.551,0-1.019,0.091
		c-0.271,0.046-0.475,0.112-0.61,0.203c-0.211,0.182-0.354,0.438-0.43,0.77c0.166,0.287,0.347,0.483,0.543,0.589
		c0.196,0.09,0.407,0.105,0.634,0.045c0.348-0.016,0.784-0.098,1.312-0.249c0.574-0.165,0.958-0.278,1.154-0.339l0.499,0.045
		c0.09-0.121,0.104-0.25,0.044-0.385c0-0.076-0.098-0.204-0.294-0.385l-0.316-0.34c-0.076-0.15-0.113-0.316-0.113-0.498l0.317-0.09
		c0.211,0.061,0.452,0.053,0.724-0.023c0.377-0.06,0.725-0.173,1.041-0.339l0.112-0.046c0.076,0.559,0.182,1.064,0.317,1.517
		c0.03,0.12,0.061,0.241,0.092,0.362c0.045,0.136,0.098,0.279,0.157,0.43c0.046,0.137,0.091,0.265,0.136,0.385v0.023
		c0.694,1.523,1.992,2.858,3.893,4.005c3.379,1.418,6.856,1.946,10.433,1.584c1.811,0.181,4.021,0.347,6.631,0.498
		c2.172,0.121,4.465,0.233,6.879,0.339c5.566,0.242,11.753,0.385,18.557,0.431c0.121,0,0.256,0,0.407,0
		c1.72,0.015,3.485,0.022,5.296,0.022c1.086,0,2.165,0,3.235,0c0.121,0,0.257,0,0.406,0c6.73-0.045,12.878-0.174,18.444-0.385
		c3.168-0.105,6.155-0.241,8.962-0.407c2.851-0.166,5.242-0.347,7.174-0.544c3.032,0.106,6.004-0.459,8.916-1.696
		c1.705-0.98,2.896-2.075,3.575-3.281c0.588-0.98,0.98-2.361,1.176-4.142c0.016-0.09,0.031-0.174,0.046-0.249
		c0.151-1.584,0.189-3.658,0.113-6.223c-0.015-0.452-0.022-0.883-0.022-1.29c-0.121-3.425-0.182-5.152-0.182-5.183
		c0-0.558,0-1.101,0-1.629c-0.015-3.093-0.12-5.628-0.316-7.604c-0.061-0.573-0.129-1.102-0.203-1.584c0-0.075,0-0.151,0-0.227
		l17.65-1.81c0-0.076,0.324-0.197,0.974-0.363c0.453-0.15,0.648-0.316,0.589-0.498l5.113-0.339c1.781-0.061,3.153-0.151,4.119-0.272
		l4.277-0.316c1.176-0.195,2.406-0.414,3.688-0.656l3.982-0.77c0.166,0.046,0.37,0.105,0.611,0.182
		c0.121,0.061,0.445,0.022,0.973-0.113c0.891-0.105,1.434-0.182,1.631-0.227c0.663,0,1.189,0.151,1.583,0.453l0.294-0.203
		c0.196-0.121,0.559-0.258,1.086-0.408c0.619-0.181,1.072-0.309,1.357-0.385c0.801-0.256,1.079-0.671,0.838-1.244
		c0.271,0.12,0.573,0.211,0.905,0.271c0.423,0,0.807,0.029,1.154,0.09c-0.302,0.212-0.49,0.348-0.565,0.408
		c-0.196,0.211-0.279,0.52-0.25,0.928c0.046,0.121,0.423,0.527,1.132,1.222h0.068c-2.821,11.602-8.087,22.804-15.796,33.605
		c-10.998,15.327-24.757,26.771-41.276,34.329c-7.905,3.605-16.437,6.329-25.595,8.17c-23.067,4.707-44.633,2.602-64.698-6.314
		c0.347-0.061,0.641-0.136,0.882-0.227l0.204-0.181c0.046-0.181-0.016-0.265-0.181-0.249c-0.151-0.016-0.324,0.008-0.521,0.068
		c-0.135,0-0.203-0.105-0.203-0.316c-0.105-0.303-0.105-0.453,0-0.453c0.257,0.045,0.476,0.045,0.656,0
		c0.166-0.09,0.303-0.166,0.408-0.227l0.022-0.068c0-0.074,0.008-0.143,0.022-0.203c0.03-0.754-0.068-1.434-0.295-2.037
		l-0.045-0.181l-11.45-1.245c-0.937-0.512-1.879-1.055-2.828-1.629c-4.542-2.746-8.729-5.732-12.56-8.961
		c0.059-0.045,0.111-0.076,0.157-0.091l-0.113-0.385c-0.12-0.166-0.264-0.219-0.429-0.158c0.014,0.091-0.031,0.173-0.137,0.249
		c-0.316-0.316-0.648-0.619-0.996-0.905c0.137,0,0.271,0,0.407,0c0.196,0.06,0.423,0.144,0.679,0.249l0.295,0.09
		c-0.105-0.181,0.137-0.361,0.725-0.543c0.075-0.256-0.038-0.369-0.34-0.339c-0.468,0-0.709-0.03-0.725-0.091
		c-0.105-0.03-0.137-0.121-0.091-0.271c0.031,0,0.046-0.038,0.046-0.113c0.031-0.03,0.022-0.061-0.022-0.09h-0.181
		c0.045,0.135-0.083,0.361-0.386,0.678l-0.067,0.023c-0.166-0.091-0.37-0.317-0.611-0.68c-0.302-0.271-0.543-0.406-0.724-0.406
		l-0.068-0.092c0,0.151-0.037,0.324-0.113,0.521c-0.452-0.377-0.897-0.77-1.335-1.177c0.076,0,0.121,0,0.136,0
		c0.513-0.106,0.718-0.332,0.611-0.679c0-0.423,0.166-0.672,0.498-0.747c-0.105,0-0.257-0.03-0.453-0.091
		c-0.181-0.016-0.286-0.113-0.317-0.294c-0.406,0.377-0.761,0.589-1.063,0.634c-0.182-0.03-0.355,0.008-0.521,0.113
		c-0.211,0.061-0.444,0.188-0.701,0.385l-0.091-0.137c-0.044-0.015-0.302-0.392-0.769-1.131c-0.393-0.543-0.731-0.859-1.018-0.951
		c-0.62-0.361-1.396-0.43-2.332-0.203l-0.361,0.09l0.316-0.475c0.482-0.543,0.776-1.094,0.882-1.652
		c0.076-0.181,0.144-0.361,0.204-0.543c0.377-0.105,0.717-0.158,1.019-0.158c0.709,0,1.259-0.03,1.652-0.09
		c0.136-0.031,0.377-0.046,0.724-0.046c0-0.212-0.091-0.37-0.271-0.476c-0.046-0.045-0.188-0.045-0.43,0
		c-0.514-0.015-0.8-0.15-0.86-0.407c-0.061-0.181,0-0.43,0.182-0.747c0.271-0.498,0.414-0.762,0.43-0.791c0-0.196,0-0.324,0-0.385
		c-0.15-0.105-0.393-0.158-0.725-0.158l0.611-0.544c0.573-0.407,1.169-0.739,1.788-0.995c0.271-0.076,0.701-0.264,1.289-0.566
		l1.9-0.95c0.393-0.257,0.717-0.476,0.975-0.656c-0.317-0.271-0.672-0.385-1.064-0.339c-0.136,0-0.376,0.014-0.724,0.045
		l-0.362,0.158c-0.166-0.316-0.189-0.656-0.067-1.018c0.045-0.137,0.165-0.408,0.361-0.815c0.302-0.618,0.354-1.102,0.158-1.448
		l0.431,0.023c1.102,0.074,1.795,0.112,2.082,0.112c0.392,0.046,0.814,0.046,1.268,0l1.108-0.046l1.651-0.498l0.407-0.564
		c0.453-0.498,0.891-0.905,1.313-1.223l0.612-0.498c0.285-0.166,0.647-0.354,1.086-0.565c0.557-0.136,1.146-0.272,1.765-0.407
		l1.426-0.294l0.34,0.112C87.586,199.028,87.646,198.907,87.586,198.787z M101.978,123.86c0.137,0,0.28-0.008,0.431-0.023
		c-0.196,0.694-0.377,1.38-0.543,2.06c-0.483,1.901-0.89,3.756-1.222,5.567c-0.137,0.784-0.271,1.569-0.407,2.353
		c-0.076,0.483-0.136,0.974-0.182,1.471v0.022c-0.316-0.045-0.604-0.09-0.859-0.135c-0.981-0.181-1.766-0.438-2.354-0.77
		l0.905-9.233c0.029-0.332,0.045-0.648,0.045-0.95c0.316-0.09,0.596-0.234,0.838-0.43c0.15,0.332,0.414,0.528,0.792,0.588
		c0.346-0.06,0.829-0.256,1.448-0.588l0.315-0.204h0.068C101.39,123.799,101.631,123.89,101.978,123.86z M93.063,198.492
		c-0.272,0-0.452,0.053-0.543,0.159c-0.061,0.046,0.098,0.12,0.476,0.226h0.226v0.113c0.076,0.03,0.136,0.023,0.182-0.022
		c0.286-0.12,0.369-0.241,0.248-0.362C93.545,198.545,93.35,198.508,93.063,198.492z M76.655,205.869
		c-0.12-0.044-0.211-0.066-0.271-0.066l-0.113,0.565c-0.045,0.317,0.098,0.422,0.431,0.317v-0.114
		c0.045-0.12,0.195-0.257,0.452-0.407l-0.113-0.361C76.874,205.848,76.746,205.869,76.655,205.869z M69.459,214.944
		c-0.136,0.121-0.15,0.279-0.045,0.476c0.287-0.091,0.566-0.137,0.837-0.137c0.136,0,0.257,0.016,0.362,0.046
		c0.151,0.061,0.271,0.046,0.361-0.046c0.016-0.181-0.037-0.331-0.157-0.452c-0.182-0.06-0.385-0.075-0.611-0.045
		C69.904,214.816,69.655,214.869,69.459,214.944z M77.787,222.797c0.015,0.393,0.174,0.559,0.475,0.498l0.137-0.09
		c-0.242-0.076-0.204-0.197,0.112-0.363c0.136-0.104,0.347-0.211,0.634-0.316c0.016-0.633,0.242-1.207,0.68-1.72
		c-0.046,0-0.145,0-0.295,0c-0.075,0.105-0.166,0.196-0.271,0.271c-0.195,0.317-0.407,0.483-0.634,0.498
		c-0.211,0.06-0.211-0.06,0-0.362c-0.211,0.061-0.384,0.189-0.52,0.385C77.817,221.945,77.713,222.345,77.787,222.797z
		 M74.551,217.457l-0.589,0.361l0.137,0.271l0.61-0.181L74.551,217.457z M234.046,101.185l0.158,2.014
		c-0.996,1.222-2.271,2.414-3.824,3.575c-1.357,0.89-2.837,1.743-4.436,2.557c-0.241,0.075-0.513,0.181-0.813,0.317
		c-0.559,0.196-1.14,0.43-1.744,0.702c-3.726,1.373-6.389,2.391-7.987,3.055l0.091,0.475c4.676,0.332,9.028,0.687,13.057,1.064
		c0.271,0.211,0.498,0.43,0.679,0.656c0.182-0.121,0.34-0.272,0.476-0.453c0.136-0.105,0.24-0.144,0.316-0.113
		c0.709-0.423,1.366-0.521,1.969-0.294c0.287,0.135,0.551,0.309,0.792,0.521c0.332,0.03,0.717,0.045,1.155,0.045
		c3.725,0.377,7.06,0.641,10.002,0.792c-3.576,1.946-7.287,3.198-11.134,3.757l0.067,0.067c-0.061,0.031-0.188,0.045-0.385,0.045
		c-0.257-0.015-0.467-0.045-0.634-0.091c-0.075-0.06-0.144-0.09-0.204-0.09c-0.271,0-0.588,0.061-0.949,0.181v0.181l0.045,0.136
		c0.196,1.116,0.648,1.969,1.357,2.557c0.091,0.075,0.219,0.211,0.385,0.407c0.211,0,0.453-0.015,0.724-0.045
		c0.996-0.045,1.916-0.068,2.762-0.068c1.976,0,3.221,0.128,3.733,0.385c-0.21,0.573-0.732,1.124-1.562,1.651
		c-0.679,0.227-1.252,0.468-1.72,0.725c0.091,0.06,0.158,0.121,0.203,0.181c0.725,0.528,1.087,0.943,1.087,1.245
		c-0.015,0.091-0.022,0.144-0.022,0.159c0.468,0.317,0.988,0.596,1.562,0.837h10.771c0.045,0.182,0.091,0.362,0.136,0.543
		c0.015,0.09,0.03,0.166,0.046,0.227c0.181-0.015,0.369-0.022,0.565-0.022c0.166,1.312,0.324,2.655,0.475,4.028
		c-0.105,0.045-0.195,0.09-0.271,0.136c1.447,9.217,1.538,18.225,0.271,27.02l-1.538-0.021c-0.709,0.014-1.417,0.082-2.128,0.203
		c-0.361,0.045-0.98,0.166-1.855,0.362l-1.766,0.407l-15.907-1.178c-0.182,0-0.287,0.099-0.317,0.295
		c-0.105,0.24-0.219,0.377-0.34,0.407h-1.244c-1.795-0.03-3.199-0.03-4.209,0c-0.287,0-0.688,0.015-1.2,0.046
		c-0.15,0.12-0.324,0.264-0.521,0.43c-0.029,0.12-0.452,0.438-1.267,0.95l-0.114,0.022h0.114c0.422,0.136,0.897,0.136,1.426,0
		c0.15-0.03,0.422-0.188,0.813-0.475c0.634-0.348,1.012-0.574,1.132-0.68l0.091,0.362c-0.075,0.302-0.46,0.521-1.153,0.657
		l-0.883,0.316c-0.362,0.12-0.544,0.331-0.544,0.633l0.589,0.136c0.287,0.121,0.597,0.181,0.928,0.181
		c0.317,0.061,0.74,0.068,1.268,0.023c0.241-0.03,0.61-0.105,1.108-0.227c0.423-0.105,0.838-0.227,1.245-0.361
		c0.226-0.197,0.936-0.4,2.127-0.611c-0.06,0.029-0.091,0.113-0.091,0.249c-0.061,0.241-0.196,0.505-0.407,0.792
		c-0.15,0.361-0.136,0.709,0.046,1.041c-0.514,0.24-0.83,0.558-0.951,0.95h-9.663c0,0.181,0.099,0.347,0.295,0.498
		c0.271,0.09,0.414,0.203,0.43,0.339c-0.8,0.528-1.773,0.875-2.919,1.041c-0.588,0.076-1.185,0.09-1.788,0.045l-3.462-0.135
		c-1.162-0.045-2.104,0.029-2.828,0.226l-0.635,0.158c-0.271,0.106-0.625,0.272-1.063,0.499c0.211,0.045,0.581,0.105,1.108,0.18
		h0.611c1.282,0.151,1.969,0.506,2.06,1.064c-0.68,0.135-1.305,0.233-1.878,0.294l-1.834,0.112c-0.438-0.014-0.852-0.06-1.244-0.135
		l-0.498-0.068c-0.227-0.136-0.385-0.294-0.475-0.475c-0.121-0.061-0.212-0.137-0.272-0.227c-0.377,0.196-0.829,0.309-1.357,0.339
		l-0.747,0.136c-0.512,0.016-0.904,0.031-1.177,0.045c0.016-0.211,0.023-0.43,0.023-0.655c0.03-1.298-0.038-2.452-0.204-3.462
		c-0.302-2.008-0.92-3.244-1.855-3.712c0-0.468,0-0.928,0-1.38c-0.029-2.113-0.091-4.059-0.181-5.839
		c-0.076-1.63-0.196-3.123-0.363-4.481c-0.211-2.157-0.505-4.202-0.882-6.132c-0.181-0.83-0.361-1.629-0.544-2.399l1.563-0.43
		c0.227,0.287,0.468,0.581,0.724,0.882c0.755,0.754,1.563,1.229,2.422,1.425c0.467,0.106,0.957,0.129,1.471,0.068l3.032-0.294
		c1.434-0.181,2.587-0.951,3.463-2.308c0.241-0.362,0.438-0.747,0.588-1.154c0.423-1.101,0.573-2.315,0.453-3.644l-1.177-11.541
		c-0.211-1.81-0.883-3.304-2.015-4.48c-1.146-1.177-2.421-1.697-3.824-1.562l-3.101,0.317c-1.418,0.166-2.572,0.928-3.463,2.285
		c-0.692,1.117-1.055,2.361-1.086,3.734c-0.015,0.363,0,0.732,0.046,1.109l0.656,6.065v0.135c0,0.016,0,0.03,0,0.045l0.045,0.43
		c0,0.015,0.008,0.037,0.022,0.068c0.046,0.286,0.076,0.566,0.091,0.837c0.03,0.256,0.06,0.52,0.09,0.792
		c0.016,0.181,0.031,0.377,0.046,0.588c-0.452,0.242-0.98,0.46-1.584,0.657c-0.09-0.393-0.188-0.807-0.294-1.245
		c-0.045-0.15-0.091-0.294-0.136-0.43c-0.151-0.619-0.309-1.267-0.477-1.946c-0.406-1.6-0.866-3.455-1.379-5.567
		c-0.438-1.78-0.913-3.756-1.427-5.929c-0.12-0.468-0.24-0.936-0.362-1.403c-0.029-0.105-0.052-0.211-0.066-0.317
		c-0.182-0.739-0.362-1.448-0.543-2.127c-0.378-1.434-0.748-2.799-1.11-4.096c-0.919-3.364-1.81-6.284-2.67-8.758
		c-0.09-0.271-0.188-0.528-0.293-0.769c-0.046-0.121-0.091-0.234-0.136-0.339v-0.045c-0.106-0.211-0.204-0.407-0.295-0.588
		c-0.045-0.045-0.076-0.083-0.091-0.113c-0.136-0.256-0.264-0.498-0.385-0.724c-0.06-0.121-0.128-0.226-0.203-0.317
		c-0.016-0.03-0.038-0.061-0.068-0.09c-0.15-0.271-0.316-0.521-0.497-0.747c5.205,0.996,20.72,1.237,46.549,0.725
		c-0.527,0.06-1.071,0.12-1.629,0.181C228.766,100.581,231.014,100.838,234.046,101.185z M220.49,75.998l0.611-0.339l-0.136-0.294
		l-0.61,0.181L220.49,75.998z M225.605,78.532c0.166-0.151,0.181-0.325,0.045-0.521c-0.287,0.136-0.573,0.181-0.859,0.136
		c-0.121,0-0.234-0.015-0.34-0.045c-0.15-0.045-0.279-0.007-0.385,0.113c-0.03,0.15,0.03,0.302,0.182,0.453
		c0.181,0.03,0.392,0.038,0.633,0.022C225.168,78.676,225.408,78.623,225.605,78.532z M218.341,86.883
		c-0.046,0.151-0.188,0.286-0.43,0.407l0.157,0.385c0.122-0.061,0.227-0.083,0.318-0.068c0.135,0.045,0.233,0.068,0.294,0.068
		l0.091-0.52c0.06-0.333-0.084-0.46-0.431-0.385V86.883z M201.821,94.441c-0.061-0.03-0.121-0.015-0.182,0.045
		c-0.271,0.166-0.34,0.286-0.204,0.362c0.092,0.06,0.265,0.106,0.521,0.136c0.287,0,0.475-0.045,0.565-0.136
		c0.061-0.045-0.099-0.143-0.475-0.294h-0.204L201.821,94.441z M192.882,122.705l-0.09,0.091c-0.045-0.06-0.067-0.06-0.067,0
		c0.045,0.015,0.098,0.015,0.157,0V122.705z M192.521,122.818c-0.091-0.075-0.188-0.113-0.295-0.113v0.091
		C192.332,122.75,192.43,122.758,192.521,122.818z M250.113,137.415l0.294-0.204c0.347-0.15,0.49-0.294,0.431-0.43
		c-0.167,0.105-0.249,0.098-0.249-0.022l-0.159,0.022C250.008,136.917,249.902,137.128,250.113,137.415z M247.557,147.168
		l1.108,0.045c0.438,0.075,0.769,0.06,0.996-0.045c0.09-0.076,0.135-0.121,0.135-0.136l-0.135-0.159
		c-0.423-0.151-0.777-0.196-1.063-0.136C248.068,146.633,247.722,146.776,247.557,147.168z M239.567,178.375
		c0.482-0.03,0.853-0.144,1.109-0.34c-0.076,0-0.241,0.016-0.497,0.045c-0.182,0.016-0.386,0.084-0.612,0.205V178.375z
		 M219.586,180.208c0.029,0.06,0.029,0.128,0,0.203l0.384-0.112c-0.045-0.061-0.12-0.091-0.226-0.091
		C219.713,180.208,219.661,180.208,219.586,180.208z"/>
</g>
</svg>
