<?xml version="1.0" encoding="utf-8"?>
<!-- Generator: Adobe Illustrator 16.0.0, SVG Export Plug-In . SVG Version: 6.00 Build 0)  -->
<!DOCTYPE svg PUBLIC "-//W3C//DTD SVG 1.1//EN" "http://www.w3.org/Graphics/SVG/1.1/DTD/svg11.dtd">
<svg version="1.1" id="Layer_1" xmlns="http://www.w3.org/2000/svg" xmlns:xlink="http://www.w3.org/1999/xlink" x="0px" y="0px"
	 width="400px" height="400px" viewBox="0 0 400 400" enable-background="new 0 0 400 400" xml:space="preserve">
<g>
	<path fill-rule="evenodd" clip-rule="evenodd" fill="#F8D524" d="M142.48,172.467l-7.393-7.426
		c-7.246,10.847-10.868,22.874-10.868,36.082c0,13.119,3.623,25.146,10.868,36.083l7.393-7.426
		c-5.311-8.754-7.966-18.306-7.966-28.657C134.515,190.749,137.17,181.197,142.48,172.467z M180.554,248.311v-11.408
		c-6.931-1.71-12.77-4.984-17.518-9.822c-5.041-4.95-8.326-10.802-9.856-17.552h-11.409c1.8,9.901,6.222,18.361,13.265,25.382
		C162.17,242.044,170.676,246.511,180.554,248.311z M225.074,254.893l-7.426-7.426c-8.753,5.423-18.305,8.135-28.656,8.135
		c-10.374,0-19.937-2.712-28.69-8.135l-7.392,7.426c10.936,7.313,22.964,10.971,36.083,10.971
		C202.201,265.863,214.229,262.206,225.074,254.893z M180.554,165.176v-11.273c-9.789,1.71-18.294,6.132-25.518,13.266
		c-7.043,7.042-11.465,15.56-13.265,25.551h11.409c1.53-6.863,4.815-12.759,9.856-17.688
		C167.964,170.172,173.803,166.886,180.554,165.176z M242.896,165.041l-7.426,7.426c5.424,8.73,8.135,18.282,8.135,28.656
		c0,10.352-2.711,19.903-8.135,28.657l7.426,7.426c7.314-10.937,10.971-22.964,10.971-36.083
		C253.867,187.915,250.211,175.888,242.896,165.041z M224.906,209.528c-1.598,6.84-4.872,12.691-9.822,17.552
		c-4.861,4.838-10.756,8.112-17.687,9.822v11.408c9.878-1.8,18.385-6.267,25.518-13.4c7.134-7.021,11.555-15.48,13.265-25.382
		H224.906z M188.993,180.871c-5.626,0-10.385,1.992-14.278,5.975c-3.893,3.916-5.839,8.675-5.839,14.277
		c0,5.514,1.946,10.262,5.839,14.244c3.893,3.916,8.652,5.873,14.278,5.873c5.603,0,10.351-1.957,14.244-5.873
		c4.006-3.982,6.009-8.73,6.009-14.244c0-5.603-2.003-10.361-6.009-14.277C199.344,182.863,194.596,180.871,188.993,180.871z
		 M215.084,175.031c4.95,4.929,8.225,10.824,9.822,17.688h11.273c-1.619-9.991-6.042-18.509-13.265-25.551
		c-7.224-7.224-15.729-11.646-25.518-13.266v11.273C204.147,166.796,210.044,170.081,215.084,175.031z M217.648,154.61l7.426-7.391
		c-10.846-7.337-22.873-11.005-36.082-11.005c-13.119,0-25.146,3.668-36.083,11.005l7.392,7.391c8.753-5.4,18.317-8.101,28.69-8.101
		C199.344,146.51,208.896,149.21,217.648,154.61z M280.752,169.614c0.162,0.076,0.324,0.172,0.489,0.287
		c0.06,0.043,0.115,0.088,0.168,0.135c1.304,1.017,1.676,2.344,1.114,3.983c-0.473,0.945-1.609,2.374-3.409,4.286
		c-2.183,2.272-4.512,4.22-6.987,5.84c2.386,0.292,4.051,0.203,4.996-0.271c0.855-0.383,1.901-1.529,3.139-3.442
		c1.125-1.8,2.407-2.082,3.848-0.844c0.849,0.79,1.248,1.656,1.199,2.599c-0.009,0.303-0.065,0.612-0.169,0.929
		c-0.078,0.249-0.186,0.502-0.321,0.759c-0.472,0.945-1.755,2.272-3.848,3.983c-2.385,2.002-4.905,3.713-7.561,5.131
		c2.272,0.473,3.938,0.518,4.995,0.135c0.855-0.383,1.991-1.43,3.41-3.14c1.327-1.62,2.609-1.71,3.847-0.27
		c1.238,1.327,1.385,2.757,0.439,4.287c-0.422,0.641-1.334,1.463-2.734,2.463c-0.083,0.064-0.167,0.126-0.253,0.187
		c-0.395,0.286-0.828,0.584-1.299,0.895c-2.566,1.71-5.222,3.139-7.967,4.286c2.184,0.766,3.792,1.001,4.827,0.709
		c0.968-0.181,2.251-1.08,3.848-2.7c1.53-1.53,2.813-1.53,3.849,0c1.057,1.508,1.012,2.937-0.136,4.287
		c-0.652,0.854-2.171,1.901-4.557,3.139c-2.655,1.418-5.456,2.554-8.404,3.409c2.092,0.944,3.701,1.373,4.827,1.282
		c0.968-0.18,2.306-0.944,4.016-2.295c1.307-1.07,2.392-1.183,3.258-0.337c0.205,0.197,0.396,0.445,0.574,0.742l0.016,0.033
		c0.945,1.53,0.754,2.915-0.573,4.152c-0.766,0.742-2.386,1.597-4.86,2.564c-2.858,1.237-5.761,2.093-8.709,2.565
		c2.003,1.237,3.578,1.801,4.726,1.688c0.855,0,2.229-0.619,4.118-1.856c1.823-1.125,3.116-0.832,3.882,0.878
		c0.436,1.003,0.498,1.909,0.186,2.717c-0.097,0.261-0.232,0.514-0.405,0.76c-0.209,0.281-0.474,0.552-0.793,0.811
		c-0.854,0.563-2.565,1.226-5.131,1.991c-3.038,0.855-6.031,1.373-8.979,1.553c1.891,1.439,3.409,2.205,4.557,2.295
		c0.855,0,2.284-0.472,4.287-1.418c1.891-0.968,3.116-0.596,3.679,1.114c0.586,1.822,0.113,3.207-1.417,4.151
		c-0.546,0.359-1.458,0.703-2.734,1.03c-0.215,0.052-0.439,0.103-0.675,0.151c-0.561,0.127-1.181,0.251-1.856,0.371
		c-3.038,0.473-6.031,0.664-8.978,0.574c1.709,1.62,3.082,2.531,4.117,2.734c0.945,0.18,2.464-0.158,4.557-1.013
		c1.913-0.765,3.06-0.248,3.442,1.552c0.383,1.823-0.236,3.162-1.856,4.018c-0.944,0.473-2.756,0.799-5.435,0.979
		c-3.038,0.202-6.03,0.113-8.978-0.271c1.529,1.71,2.813,2.712,3.848,3.005c0.855,0.27,2.374,0.124,4.557-0.439
		c0.057-0.015,0.112-0.031,0.169-0.05c0.026-0.007,0.055-0.012,0.084-0.018c1.467-0.336,2.435-0.021,2.903,0.945
		c0.116,0.255,0.2,0.553,0.253,0.895c0.015,0.069,0.025,0.142,0.033,0.219c0.091,1.801-0.675,2.993-2.295,3.578
		c-0.855,0.383-2.655,0.519-5.399,0.405c-3.039-0.09-6.088-0.461-9.148-1.114c1.44,1.891,2.633,3.027,3.578,3.409
		c0.945,0.293,2.51,0.293,4.691,0c2.094-0.382,3.095,0.383,3.004,2.296c0,0.958-0.242,1.729-0.726,2.312
		c-0.192,0.232-0.423,0.435-0.691,0.608c-0.326,0.205-0.708,0.367-1.147,0.488c-0.945,0.293-2.758,0.248-5.435-0.135
		c-3.038-0.472-5.975-1.192-8.81-2.159c1.125,2.002,2.16,3.239,3.105,3.713c0.877,0.472,2.407,0.663,4.59,0.573
		c2.094-0.09,3.038,0.765,2.836,2.565c-0.18,1.912-1.125,2.959-2.836,3.139c-0.599,0.115-1.453,0.087-2.564-0.084
		c-0.291-0.042-0.6-0.093-0.929-0.152c-0.625-0.121-1.316-0.279-2.076-0.472c-3.038-0.766-5.896-1.813-8.573-3.14
		c0.968,2.093,1.924,3.477,2.869,4.151c0.766,0.473,2.238,0.799,4.422,0.979c2.093,0.091,2.947,1.047,2.565,2.869
		c-0.384,1.801-1.474,2.746-3.274,2.836c-1.058,0-2.824-0.428-5.299-1.282c-2.949-1.148-5.648-2.476-8.102-3.983
		c0.652,2.183,1.407,3.656,2.262,4.422c0.766,0.562,2.238,1.034,4.422,1.418c0.053,0.009,0.104,0.021,0.152,0.033
		c0.126,0.025,0.25,0.054,0.371,0.084c1.17,0.314,1.789,0.895,1.855,1.739c0.03,0.323-0.02,0.684-0.15,1.079
		c-0.021,0.069-0.043,0.137-0.068,0.203c-0.585,1.8-1.732,2.61-3.443,2.431c-1.035-0.091-2.789-0.71-5.266-1.856
		c-2.768-1.418-5.332-3.038-7.695-4.861c0.473,2.386,1.091,3.96,1.856,4.726c0.653,0.653,2.071,1.271,4.253,1.856
		c2.002,0.563,2.621,1.699,1.856,3.409c-0.401,0.849-0.946,1.434-1.638,1.755c-0.291,0.139-0.611,0.229-0.961,0.271
		c-0.381,0.051-0.798,0.039-1.249-0.034c-1.034-0.18-2.7-0.99-4.995-2.431c-2.565-1.597-4.939-3.442-7.123-5.534
		c0.293,2.362,0.766,3.971,1.418,4.826c0.585,0.675,1.924,1.44,4.018,2.295c1.889,0.765,2.406,1.946,1.552,3.544
		c-0.944,1.62-2.272,2.149-3.982,1.587c-0.634-0.176-1.456-0.592-2.464-1.249c-0.251-0.163-0.515-0.344-0.793-0.54
		c-0.459-0.317-0.949-0.678-1.469-1.08c-2.453-1.891-4.636-3.972-6.549-6.244c0,2.362,0.282,3.972,0.844,4.826
		c0.586,0.855,1.824,1.755,3.713,2.7c1.913,1.058,2.295,2.352,1.148,3.882c-1.035,1.418-2.42,1.789-4.152,1.113
		c-0.945-0.472-2.362-1.608-4.252-3.408c-2.296-2.183-4.254-4.467-5.873-6.852c-0.271,2.295-0.17,3.915,0.303,4.859
		c0.473,0.856,1.609,1.902,3.41,3.14c0.016,0.01,0.032,0.021,0.051,0.033c0.105,0.067,0.207,0.135,0.303,0.203
		c1.146,0.813,1.517,1.708,1.113,2.684c-0.12,0.301-0.316,0.61-0.59,0.928l-0.017,0.017c-1.234,1.313-2.658,1.544-4.271,0.692
		c-0.945-0.473-2.271-1.755-3.982-3.848c-2.002-2.295-3.713-4.771-5.13-7.426c-0.495,2.295-0.552,3.96-0.169,4.995
		c0.292,0.855,1.294,1.992,3.004,3.409c1.619,1.351,1.766,2.645,0.438,3.882c-0.754,0.639-1.541,0.942-2.363,0.911
		c-0.314-0.01-0.636-0.071-0.962-0.186c-0.315-0.103-0.636-0.254-0.962-0.455c-0.855-0.563-2.048-1.947-3.578-4.152
		c-1.71-2.565-3.128-5.221-4.253-7.966c-0.765,2.183-1.013,3.792-0.743,4.826c0.293,0.968,1.204,2.206,2.734,3.713
		c1.508,1.531,1.508,2.813,0,3.849c-1.53,1.147-2.959,1.147-4.286,0c-0.566-0.432-1.219-1.242-1.958-2.43
		c-0.159-0.264-0.322-0.545-0.489-0.845c-0.223-0.396-0.454-0.823-0.692-1.282c-1.53-2.745-2.666-5.547-3.409-8.405
		c-0.968,2.094-1.35,3.713-1.148,4.861c0.09,0.854,0.799,2.138,2.127,3.848c1.327,1.71,1.192,3.038-0.405,3.983
		c-1.53,0.944-2.959,0.753-4.287-0.574c-0.675-0.765-1.53-2.386-2.565-4.861c-1.237-2.947-2.093-5.895-2.565-8.843
		c-1.147,2.093-1.676,3.668-1.586,4.726c0,0.803,0.546,2.107,1.637,3.915c0.066,0.113,0.134,0.227,0.203,0.338
		c0.004,0.011,0.01,0.022,0.017,0.033c0.963,1.511,0.918,2.619-0.135,3.325c-0.197,0.131-0.434,0.249-0.709,0.354
		c-0.066,0.029-0.134,0.058-0.202,0.084c-1.62,0.653-2.981,0.3-4.084-1.063c-0.563-0.765-1.226-2.43-1.991-4.995
		c-0.855-3.037-1.429-6.03-1.722-8.978c-1.328,1.8-2.036,3.273-2.126,4.421c0,0.945,0.473,2.419,1.417,4.422
		c0.945,1.801,0.563,3.038-1.147,3.713c-1.149,0.359-2.123,0.291-2.92-0.202c-0.281-0.174-0.54-0.398-0.776-0.676
		c-0.15-0.17-0.291-0.361-0.422-0.574c-0.585-0.854-1.114-2.654-1.586-5.4c-0.473-3.037-0.664-6.03-0.574-8.978
		c-1.62,1.71-2.52,3.083-2.7,4.118c-0.09,0.944,0.248,2.463,1.013,4.557c0.653,2.003,0.079,3.194-1.721,3.577
		c-1.71,0.383-2.993-0.236-3.848-1.856c-0.292-0.722-0.557-1.943-0.793-3.662c-0.042-0.271-0.082-0.553-0.118-0.844
		c-0.033-0.285-0.067-0.584-0.102-0.895c-0.18-3.15-0.079-6.199,0.304-9.146c-1.71,1.619-2.711,2.947-3.004,3.982
		c-0.18,0.854-0.034,2.385,0.439,4.59c0.563,1.98-0.056,3.072-1.856,3.274c-1.913,0.181-3.15-0.585-3.713-2.295
		c-0.382-0.855-0.529-2.655-0.439-5.4c0-3.061,0.383-6.064,1.148-9.013c-1.8,1.351-2.937,2.543-3.41,3.578
		c-0.254,0.745-0.288,1.994-0.101,3.746c0.01,0.083,0.021,0.168,0.034,0.254c0.019,0.181,0.042,0.365,0.067,0.557
		c0.35,1.915-0.263,2.955-1.839,3.122c-0.142,0.012-0.293,0.018-0.456,0.018c-0.212,0-0.416-0.012-0.607-0.034
		c-1.451-0.18-2.385-1.023-2.802-2.532c-0.292-0.944-0.248-2.801,0.135-5.569c0.473-3.037,1.181-5.985,2.126-8.843
		c-2.003,1.147-3.241,2.25-3.713,3.308c-0.473,0.855-0.664,2.374-0.574,4.558c0.112,2.092-0.743,3.037-2.565,2.834
		c-1.313-0.124-2.219-0.642-2.717-1.552c-0.172-0.306-0.296-0.66-0.371-1.063c-0.021-0.116-0.037-0.235-0.051-0.354
		c-0.18-0.968,0.067-2.779,0.743-5.434c0.743-3.038,1.789-5.885,3.139-8.54c-2.093,0.854-3.477,1.755-4.152,2.7
		c-0.473,0.854-0.81,2.374-1.013,4.557c-0.09,2.093-1.035,2.948-2.835,2.565c-1.8-0.383-2.756-1.474-2.869-3.274
		c-0.081-0.847,0.257-2.343,1.012-4.489c0.057-0.174,0.119-0.354,0.186-0.54c0.026-0.076,0.055-0.155,0.084-0.236
		c1.058-2.948,2.396-5.704,4.017-8.27c-2.183,0.653-3.657,1.406-4.422,2.262c-0.585,0.765-1.058,2.238-1.417,4.421
		c-0.382,2.094-1.429,2.858-3.139,2.296c-1.823-0.585-2.633-1.778-2.43-3.578c0.09-1.034,0.708-2.745,1.856-5.131
		c1.417-2.857,2.981-5.423,4.692-7.695c-2.273,0.383-3.792,0.956-4.557,1.722c-0.536,0.518-1.037,1.52-1.502,3.004v0.034
		c-0.123,0.37-0.241,0.775-0.354,1.215c-0.557,2.071-1.632,2.701-3.224,1.89c-0.017-0.014-0.034-0.024-0.05-0.033
		c-0.29-0.13-0.548-0.271-0.776-0.422c-1.147-0.773-1.608-1.87-1.384-3.291c0.203-1.035,1.013-2.7,2.43-4.996
		c1.62-2.565,3.477-4.939,5.569-7.122c-2.385,0.203-4.005,0.631-4.861,1.283c-0.652,0.585-1.406,1.924-2.261,4.017
		c-0.765,1.979-1.958,2.497-3.578,1.553c-1.245-0.727-1.87-1.677-1.874-2.853c-0.007-0.338,0.038-0.692,0.135-1.063
		c0.004-0.022,0.01-0.044,0.017-0.068c0.382-1.058,1.384-2.632,3.004-4.726c1.913-2.362,4.006-4.5,6.278-6.413
		c-2.385-0.09-4.005,0.146-4.86,0.709c-0.855,0.585-1.755,1.823-2.7,3.713c-1.035,1.913-2.273,2.34-3.713,1.283
		c-1.508-1.035-1.936-2.408-1.283-4.118c0.377-0.954,1.497-2.4,3.358-4.338c0.03-0.028,0.058-0.057,0.084-0.084
		c0.027-0.028,0.055-0.057,0.084-0.085c2.068-2.148,4.313-4.078,6.734-5.788c-2.273-0.181-3.882-0.034-4.827,0.438
		c-0.945,0.383-1.991,1.475-3.139,3.274c-1.147,1.822-2.385,2.115-3.713,0.878c-1.417-1.237-1.699-2.667-0.844-4.287
		c0.383-0.855,1.609-2.183,3.679-3.982c2.385-1.913,4.906-3.578,7.561-4.996c-2.272-0.585-3.926-0.687-4.961-0.304
		c-0.855,0.383-2.002,1.429-3.443,3.139c-1.328,1.621-2.565,1.768-3.713,0.439c-0.081-0.093-0.16-0.188-0.236-0.287
		c-0.227-0.298-0.407-0.602-0.54-0.911c-0.452-1.043-0.328-2.118,0.372-3.224c0.563-0.855,1.935-1.991,4.118-3.409
		c2.565-1.823,5.232-3.296,8-4.422c-2.183-0.675-3.803-0.923-4.86-0.742c-0.945,0.292-2.183,1.204-3.713,2.734
		c-1.508,1.507-2.791,1.507-3.848,0c-0.992-1.323-1.127-2.572-0.405-3.747c0.114-0.181,0.25-0.36,0.405-0.54
		c0.088-0.1,0.189-0.201,0.304-0.304c0.781-0.725,2.199-1.624,4.252-2.7c2.858-1.508,5.671-2.689,8.438-3.544
		c-2.092-0.968-3.667-1.351-4.726-1.147c-0.945,0.089-2.272,0.844-3.983,2.261c-1.71,1.351-3.038,1.215-3.982-0.404
		c-0.968-1.621-0.776-3.05,0.574-4.287c0.743-0.766,2.352-1.62,4.827-2.565c2.858-1.147,5.76-2.003,8.708-2.565
		c-2.002-1.147-3.521-1.721-4.557-1.721c-1.057,0.089-2.486,0.708-4.287,1.856c-1.8,1.147-3.038,0.866-3.713-0.845
		c-0.765-1.71-0.427-3.094,1.013-4.151c0.743-0.652,2.453-1.361,5.13-2.126c2.948-0.855,5.896-1.385,8.844-1.587
		c-1.913-1.417-3.387-2.126-4.422-2.126c-0.968-0.091-2.441,0.337-4.422,1.282c-1.822,0.945-3.06,0.563-3.713-1.147
		c-0.062-0.2-0.113-0.397-0.152-0.591c-0.066-0.349-0.089-0.681-0.067-0.996c0.065-1.044,0.611-1.888,1.637-2.531
		c0.945-0.585,2.7-1.068,5.265-1.451c3.151-0.563,6.2-0.799,9.147-0.709c-1.71-1.62-3.094-2.476-4.151-2.565
		c-0.945-0.18-2.464,0.113-4.557,0.878c-2.003,0.742-3.185,0.214-3.544-1.587c-0.343-1.612,0.107-2.844,1.35-3.696
		c0.148-0.102,0.306-0.197,0.473-0.286c0.151-0.073,0.32-0.142,0.506-0.203c1.044-0.354,2.687-0.58,4.928-0.675
		c3.24-0.271,6.278-0.169,9.113,0.304c-1.598-1.8-2.925-2.847-3.983-3.139c-0.855-0.203-2.374-0.057-4.557,0.438
		c-2.092,0.563-3.184-0.056-3.274-1.856c-0.203-1.912,0.551-3.15,2.261-3.713c0.968-0.383,2.779-0.528,5.435-0.438
		c3.128,0.202,6.121,0.63,8.979,1.282c-1.328-1.89-2.521-3.026-3.578-3.408c-0.855-0.384-2.374-0.429-4.557-0.136
		c-2.093,0.36-3.139-0.405-3.139-2.295c0-1.801,0.855-2.937,2.565-3.409c1.058-0.293,2.914-0.248,5.569,0.135
		c3.15,0.473,6.098,1.227,8.844,2.262c-1.148-2.093-2.239-3.376-3.274-3.849c-0.855-0.472-2.374-0.606-4.557-0.404
		c-2.093,0.09-3.049-0.821-2.869-2.734c0.022-0.197,0.056-0.383,0.101-0.557c0.076-0.335,0.183-0.639,0.321-0.911
		c0.486-0.914,1.347-1.47,2.583-1.671c0.945-0.181,2.745,0.067,5.4,0.742c3.06,0.743,5.918,1.777,8.573,3.105
		c-0.945-2.183-1.845-3.556-2.7-4.117c-0.855-0.474-2.374-0.811-4.557-1.013c-2.093-0.091-2.959-1.035-2.599-2.836
		c0.348-1.638,1.293-2.578,2.835-2.818c0.151-0.023,0.309-0.041,0.473-0.051c0.187,0,0.395,0.017,0.624,0.051
		c1.065,0.141,2.612,0.607,4.641,1.4c3.038,1.035,5.794,2.318,8.27,3.848c-0.675-2.183-1.44-3.611-2.295-4.286
		c-0.743-0.675-2.217-1.147-4.422-1.418c-2.092-0.382-2.846-1.473-2.261-3.274c0.563-1.732,1.744-2.542,3.544-2.43
		c1.058,0.089,2.779,0.708,5.165,1.856c2.745,1.417,5.311,3.026,7.695,4.827c-0.473-2.273-1.091-3.792-1.856-4.557
		c-0.675-0.765-2.059-1.429-4.151-1.992c-1.98-0.563-2.599-1.653-1.856-3.274c0.765-1.71,2.002-2.43,3.713-2.16
		c0.945,0.202,2.61,1.013,4.996,2.431c2.565,1.71,4.939,3.566,7.122,5.569c-0.18-2.273-0.607-3.894-1.283-4.861
		c-0.652-0.652-1.98-1.406-3.982-2.262c-2.003-0.765-2.521-1.958-1.553-3.578c0.105-0.169,0.211-0.328,0.32-0.473
		c0.203-0.25,0.417-0.464,0.642-0.641c0.822-0.638,1.829-0.784,3.021-0.439c0.945,0.271,2.464,1.215,4.557,2.835
		c2.475,1.913,4.658,4.005,6.548,6.278c0.113-2.273-0.124-3.893-0.708-4.861c-0.563-0.742-1.845-1.642-3.848-2.7
		c-1.8-0.945-2.183-2.183-1.147-3.713c1.042-1.286,2.279-1.759,3.713-1.417c0.143,0.038,0.289,0.083,0.439,0.135
		c0.147,0.059,0.311,0.138,0.489,0.236c0.932,0.524,2.243,1.593,3.932,3.207c2.183,2.183,4.129,4.512,5.84,6.987
		c0.202-2.385,0.056-4.05-0.439-4.995c-0.36-0.855-1.496-1.902-3.409-3.139c-1.71-1.148-1.946-2.385-0.709-3.713
		c1.238-1.417,2.667-1.699,4.287-0.844c0.945,0.473,2.273,1.756,3.983,3.848c2.002,2.363,3.667,4.827,4.995,7.392
		c0.563-2.273,0.652-3.881,0.27-4.827c-0.382-0.855-1.429-2.003-3.139-3.443c-1.598-1.328-1.688-2.61-0.27-3.848
		c1.327-1.237,2.756-1.373,4.286-0.405c0.855,0.563,1.992,1.98,3.409,4.253c1.71,2.565,3.139,5.232,4.287,8
		c0.765-2.183,1.001-3.803,0.708-4.861c-0.18-0.945-1.035-2.228-2.565-3.847c-1.53-1.508-1.53-2.791,0-3.848
		c0.139-0.104,0.279-0.2,0.422-0.287c0.265-0.166,0.529-0.295,0.793-0.389c1.078-0.364,2.102-0.094,3.071,0.811
		c0.743,0.675,1.79,2.205,3.14,4.59c1.417,2.745,2.554,5.547,3.409,8.405c0.945-2.183,1.328-3.803,1.148-4.861
		c-0.09-0.945-0.855-2.273-2.295-3.983c-1.327-1.62-1.182-2.903,0.439-3.848c1.367-0.721,2.599-0.699,3.696,0.068
		c0.201,0.145,0.397,0.313,0.591,0.506c0.057,0.05,0.113,0.107,0.168,0.168c0.705,0.739,1.504,2.291,2.396,4.658
		c1.126,2.858,1.98,5.761,2.566,8.709c1.125-2.003,1.688-3.522,1.688-4.557c-0.09-1.057-0.697-2.486-1.822-4.286
		c-1.148-1.8-0.867-3.083,0.844-3.848c1.709-0.766,3.082-0.428,4.117,1.013c0.676,0.855,1.396,2.565,2.16,5.13
		c0.855,2.948,1.373,5.896,1.553,8.844c1.44-1.913,2.16-3.387,2.16-4.422c0.09-0.967-0.338-2.396-1.283-4.287
		c-0.967-1.912-0.596-3.15,1.115-3.713c1.822-0.562,3.206-0.089,4.151,1.417c0.472,0.856,0.944,2.622,1.417,5.3
		c0.586,3.038,0.822,6.03,0.709,8.979c1.621-1.71,2.476-3.094,2.565-4.152c0.202-0.944-0.079-2.463-0.845-4.557
		c-0.764-1.89-0.246-3.026,1.554-3.409c0.081-0.021,0.159-0.038,0.236-0.051c0.315-0.072,0.614-0.112,0.895-0.118
		c1.237-0.007,2.155,0.612,2.751,1.856c0.473,0.855,0.799,2.667,0.979,5.434c0.203,3.128,0.112,6.166-0.27,9.113
		c1.801-1.507,2.846-2.79,3.139-3.847c0.18-0.855-0.011-2.375-0.574-4.557c-0.473-2.093,0.191-3.184,1.992-3.274
		c1.455-0.156,2.523,0.232,3.207,1.165c0.177,0.241,0.329,0.521,0.455,0.844c0.018,0.036,0.035,0.075,0.051,0.118
		c0.383,0.967,0.518,2.779,0.404,5.435c-0.09,3.127-0.518,6.12-1.282,8.979c1.913-1.328,3.061-2.464,3.442-3.409
		c0.383-0.968,0.383-2.543,0-4.726c-0.293-2.093,0.518-3.094,2.43-3.004c1.801,0,2.938,0.866,3.41,2.6
		c0.293,1.035,0.248,2.834-0.135,5.401c-0.473,3.149-1.238,6.098-2.296,8.843c2.093-1.147,3.376-2.194,3.849-3.14
		c0.473-0.854,0.618-2.374,0.438-4.557c-0.091-2.093,0.81-3.049,2.7-2.869c1.822,0.203,2.869,1.159,3.139,2.869
		c0.091,1.035-0.191,2.892-0.844,5.569c-0.766,3.038-1.766,5.84-3.004,8.405c2.093-0.855,3.477-1.755,4.152-2.7
		c0.473-0.766,0.799-2.239,0.979-4.422c0.088-2.036,0.994-2.902,2.717-2.599c0.053,0.012,0.103,0.022,0.152,0.033
		c0.246,0.052,0.477,0.119,0.691,0.202c1.352,0.481,2.066,1.461,2.145,2.937c0,1.125-0.429,2.926-1.283,5.4
		c-1.148,2.948-2.475,5.66-3.983,8.136c2.183-0.676,3.612-1.44,4.287-2.296c0.562-0.652,1.034-2.127,1.417-4.422
		c0.383-1.98,1.429-2.688,3.14-2.126c1.294,0.404,2.099,1.102,2.413,2.093c0.087,0.272,0.138,0.565,0.152,0.877
		c0.008,0.144,0.008,0.29,0,0.438c-0.09,1.059-0.709,2.824-1.857,5.3c-1.416,2.745-3.037,5.311-4.859,7.695
		c2.295-0.472,3.825-1.091,4.59-1.856c0.742-0.675,1.406-2.104,1.991-4.286c0.563-1.98,1.699-2.599,3.409-1.856
		c1.62,0.765,2.284,2.003,1.991,3.713c-0.18,1.058-0.989,2.723-2.43,4.996c-1.711,2.654-3.556,5.028-5.536,7.122
		c2.363-0.181,3.972-0.608,4.827-1.283c0.676-0.563,1.396-1.891,2.16-3.982c0.855-2.003,2.093-2.532,3.713-1.587
		c1.598,0.968,2.115,2.307,1.553,4.017c-0.181,0.945-1.136,2.509-2.868,4.692c-1.892,2.385-3.973,4.579-6.245,6.581
		c2.272,0,3.882-0.292,4.826-0.877c0.766-0.473,1.677-1.71,2.734-3.713C278.404,169.411,279.468,168.944,280.752,169.614z"/>
	<path fill-rule="evenodd" clip-rule="evenodd" fill="#258186" d="M175.998,48.254c41.944-4.23,79.14,6.999,111.589,33.686
		c32.583,26.597,50.99,60.857,55.221,102.78c4.186,41.921-7.044,79.186-33.687,111.791c-26.484,32.605-60.688,51.001-102.611,55.187
		c-41.943,4.23-79.196-6.976-111.757-33.618C62.169,291.437,43.785,257.154,39.6,215.232c-4.23-41.922,6.964-79.187,33.585-111.792
		C99.805,70.88,134.076,52.484,175.998,48.254z M187.845,57.131l-10.869,0.742c-0.09,0-0.158,0.011-0.203,0.034l-6.379,0.743
		c-33.979,4.838-62.354,20.038-85.126,45.601l-7.696,9.316c-20.004,26.036-29.714,55.198-29.129,87.489
		c0.022,2.521,0.112,5.074,0.27,7.662c0.09,0.923,0.168,1.891,0.236,2.902c0,0.113,0.011,0.248,0.033,0.406
		c0.068,0.72,0.135,1.462,0.203,2.228c0.18,1.777,0.383,3.521,0.608,5.231c0.045,0.495,0.112,0.967,0.202,1.417
		c0.473,3.421,1.08,6.797,1.823,10.127c5.761,27.655,18.914,51.351,39.458,71.084c2.52,2.453,5.164,4.839,7.932,7.156
		c0.09,0.022,0.169,0.067,0.237,0.136c0.09,0.089,0.157,0.146,0.202,0.168c0.045,0.112,0.113,0.181,0.203,0.203
		c0.337,0.27,0.652,0.539,0.945,0.81c0.157,0.09,0.315,0.214,0.473,0.371c0.877,0.698,1.755,1.396,2.632,2.093
		c0.113,0.068,0.236,0.157,0.372,0.271c0.203,0.157,0.427,0.337,0.675,0.54l0.439,0.337c2.768,2.07,5.581,4.039,8.438,5.907
		c23.358,15.437,49.1,23.031,77.229,22.783l14.008-0.708c0.157-0.046,0.304-0.068,0.438-0.068c1.553-0.135,3.094-0.315,4.625-0.54
		c0.382-0.067,0.775-0.112,1.181-0.135l10.193-1.722c28.016-5.738,52.004-19.015,71.963-39.829l6.784-7.493
		c0.518-0.652,1.046-1.316,1.586-1.991c0.405-0.495,0.799-0.968,1.182-1.417c0.743-0.968,1.508-1.925,2.296-2.869
		c0.202-0.36,0.45-0.698,0.742-1.013l5.906-8.54c15.595-23.875,23.009-50.214,22.244-79.017c-0.135-3.916-0.395-7.865-0.776-11.848
		c0-0.068,0-0.112,0-0.135c-0.067-0.788-0.157-1.564-0.27-2.329c-0.158-1.396-0.327-2.79-0.507-4.186
		c-0.09-0.473-0.169-0.934-0.236-1.384c-0.54-3.398-1.17-6.773-1.891-10.126c-5.985-27.206-19.171-50.518-39.559-69.938
		c-1.733-1.643-3.488-3.241-5.266-4.793c-0.968-0.833-1.924-1.654-2.869-2.463c-0.27-0.226-0.54-0.45-0.81-0.675
		c-0.113-0.09-0.215-0.181-0.304-0.27c-1.621-1.305-3.229-2.577-4.827-3.814C250.334,65.536,220.653,56.051,187.845,57.131z"/>
	<path fill-rule="evenodd" clip-rule="evenodd" fill="#C3E4CE" d="M175.998,48.254c-41.922,4.23-76.193,22.626-102.813,55.187
		c-26.621,32.605-37.815,69.87-33.585,111.792c4.186,41.922,22.57,76.204,55.153,102.847
		c32.561,26.643,69.813,37.849,111.757,33.618c41.923-4.186,76.127-22.581,102.611-55.187
		c26.643-32.605,37.872-69.87,33.687-111.791c-4.23-41.923-22.638-76.183-55.221-102.78
		C255.138,55.252,217.941,44.023,175.998,48.254z M175.356,42.009c43.655-4.366,82.426,7.336,116.314,35.104
		c34.001,27.678,53.206,63.333,57.617,106.965c4.365,43.654-7.347,82.438-35.138,116.348c-27.7,34.001-63.378,53.185-107.032,57.55
		c-43.632,4.41-82.403-7.302-116.314-35.138C56.848,295.16,37.687,259.494,33.321,215.84c-4.41-43.655,7.268-82.415,35.037-116.281
		C96.036,65.603,131.702,46.419,175.356,42.009z"/>
	<path fill-rule="evenodd" clip-rule="evenodd" fill="#C02C46" d="M283.975,142.055c9.677-0.473,17.147,3.162,22.412,10.902
		c-3.24-1.013-7.064-1.474-11.476-1.384c-8.866,0-16.156,2.543-21.872,7.629l4.826-2.498l13.299-1.114
		c9.677,1.013,16.597,5.716,20.759,14.109c-3.15-1.373-6.886-2.386-11.206-3.038c-7.553-1.026-14.208-0.042-19.965,2.953
		c-1.284-0.67-2.348-0.203-3.19,1.401c-1.058,2.003-1.969,3.24-2.734,3.713c-0.944,0.585-2.554,0.877-4.826,0.877
		c2.272-2.002,4.354-4.196,6.245-6.581c1.732-2.184,2.688-3.747,2.868-4.692c0.563-1.71,0.045-3.049-1.553-4.017
		c-1.62-0.945-2.857-0.416-3.713,1.587c-0.765,2.092-1.484,3.42-2.16,3.982c-0.855,0.675-2.464,1.103-4.827,1.283
		c1.98-2.094,3.825-4.468,5.536-7.122c1.44-2.273,2.25-3.938,2.43-4.996c0.293-1.71-0.371-2.948-1.991-3.713
		c-1.71-0.742-2.847-0.124-3.409,1.856c-0.585,2.183-1.249,3.611-1.991,4.286c-0.765,0.766-2.295,1.385-4.59,1.856
		c1.822-2.385,3.443-4.95,4.859-7.695c1.148-2.476,1.768-4.241,1.857-5.3c0.008-0.148,0.008-0.295,0-0.438l1.384-0.945
		L283.975,142.055z M298.624,137.194c-3.398-0.54-7.269-0.495-11.611,0.135c-7.15,1.066-13.018,3.631-17.603,7.696
		c-0.314-0.991-1.119-1.688-2.413-2.093c-1.711-0.563-2.757,0.146-3.14,2.126c-0.383,2.295-0.855,3.77-1.417,4.422
		c-0.675,0.855-2.104,1.62-4.287,2.296c1.509-2.476,2.835-5.188,3.983-8.136c0.854-2.475,1.283-4.275,1.283-5.4
		c-0.078-1.476-0.793-2.455-2.145-2.937l1.266-1.147l12.422-4.691C284.459,127.62,292.346,130.196,298.624,137.194z M248.568,89.062
		c-3.151,1.373-6.426,3.442-9.823,6.21c-5.671,4.801-9.35,10.264-11.037,16.387c-0.077,0.013-0.155,0.029-0.236,0.051
		c-1.8,0.383-2.317,1.519-1.554,3.409c0.766,2.093,1.047,3.612,0.845,4.557c-0.09,1.058-0.944,2.442-2.565,4.152
		c0.113-2.948-0.123-5.941-0.709-8.979c-0.473-2.678-0.945-4.444-1.417-5.3c-0.945-1.507-2.329-1.979-4.151-1.417
		c-1.711,0.563-2.082,1.801-1.115,3.713c0.945,1.89,1.373,3.319,1.283,4.287c0,1.035-0.72,2.509-2.16,4.422
		c-0.18-2.948-0.697-5.896-1.553-8.844c-0.765-2.565-1.484-4.275-2.16-5.13c-1.035-1.44-2.408-1.778-4.117-1.013
		c-1.711,0.765-1.992,2.048-0.844,3.848c1.125,1.8,1.732,3.229,1.822,4.286c0,1.035-0.563,2.554-1.688,4.557
		c-0.586-2.948-1.44-5.851-2.566-8.709c-0.893-2.367-1.691-3.919-2.396-4.658l0.338-2.126l6.515-11.645
		c6.166-7.358,13.906-10.396,23.222-9.113c-2.947,1.755-5.895,4.287-8.843,7.594c-5.896,6.548-8.899,13.603-9.012,21.164
		l1.553-5.232l8.134-10.531C231.533,88.454,239.611,86.474,248.568,89.062z M215.489,77.181c-2.678,2.115-5.21,5.018-7.595,8.708
		c-4.126,6.003-6.202,12.112-6.228,18.329c-1.097-0.767-2.329-0.789-3.696-0.068c-1.621,0.945-1.766,2.228-0.439,3.848
		c1.44,1.71,2.205,3.038,2.295,3.983c0.18,1.058-0.203,2.678-1.148,4.861c-0.855-2.858-1.991-5.66-3.409-8.405
		c-1.35-2.385-2.396-3.916-3.14-4.59c-0.97-0.905-1.993-1.174-3.071-0.811v-1.114l4.861-12.32
		C198.984,81.321,206.173,77.181,215.489,77.181z M178.292,90.041c3.871-8.956,10.464-14.076,19.779-15.358
		c-2.318,2.475-4.444,5.704-6.379,9.687c-3.113,6.596-4.255,12.948-3.426,19.054c-0.143,0.087-0.283,0.183-0.422,0.287
		c-1.53,1.058-1.53,2.34,0,3.848c1.53,1.62,2.385,2.902,2.565,3.847c0.293,1.058,0.057,2.678-0.708,4.861
		c-1.148-2.768-2.577-5.434-4.287-8c-1.417-2.273-2.554-3.69-3.409-4.253c-1.53-0.968-2.959-0.833-4.286,0.405
		c-1.418,1.238-1.328,2.521,0.27,3.848c1.71,1.44,2.756,2.587,3.139,3.443c0.382,0.945,0.293,2.554-0.27,4.827
		c-1.328-2.565-2.993-5.029-4.995-7.392c-1.71-2.092-3.038-3.375-3.983-3.848c-1.62-0.855-3.049-0.573-4.287,0.844
		c-1.237,1.328-1.001,2.565,0.709,3.713c1.913,1.237,3.049,2.284,3.409,3.139c0.495,0.945,0.642,2.61,0.439,4.995
		c-1.71-2.475-3.657-4.804-5.84-6.987c-1.689-1.614-3-2.683-3.932-3.207l-0.557-1.856c-0.472-4.14-0.056-8.563,1.249-13.265
		c2.678-9.316,8.483-15.268,17.417-17.855c-1.935,2.768-3.589,6.267-4.962,10.498c-2.678,8.303-2.498,15.965,0.54,22.986l-0.844-5.4
		C175.333,98.738,176.358,94.451,178.292,90.041z M163.07,77.315c-1.575,3.038-2.734,6.717-3.477,11.038
		c-1.196,7.104-0.578,13.46,1.856,19.071c-1.434-0.341-2.671,0.131-3.713,1.417c-1.035,1.53-0.652,2.768,1.147,3.713
		c2.003,1.058,3.286,1.958,3.848,2.7c0.585,0.968,0.821,2.587,0.708,4.861c-1.89-2.273-4.073-4.366-6.548-6.278
		c-2.093-1.62-3.612-2.565-4.557-2.835c-1.192-0.345-2.199-0.199-3.021,0.439l-0.354-0.81c-1.013-4.05-1.204-8.472-0.574-13.265
		C149.692,87.779,154.587,81.096,163.07,77.315z M146.193,82.142l-1.789,11.477c-0.237,7.096,1.187,13.25,4.27,18.463
		c-0.109,0.145-0.215,0.303-0.32,0.473c-0.968,1.62-0.45,2.813,1.553,3.578c2.002,0.855,3.33,1.609,3.982,2.262
		c0.675,0.967,1.103,2.588,1.283,4.861c-2.183-2.003-4.557-3.859-7.122-5.569c-2.385-1.418-4.051-2.229-4.996-2.431
		c-1.71-0.27-2.948,0.45-3.713,2.16c-0.743,1.621-0.124,2.711,1.856,3.274c2.093,0.563,3.477,1.227,4.151,1.992
		c0.765,0.765,1.384,2.284,1.856,4.557c-2.385-1.801-4.95-3.409-7.695-4.827c-2.386-1.148-4.107-1.767-5.165-1.856
		c-1.8-0.113-2.981,0.697-3.544,2.43c-0.585,1.801,0.169,2.892,2.261,3.274c2.205,0.271,3.679,0.743,4.422,1.418
		c0.855,0.675,1.62,2.104,2.295,4.286c-2.475-1.529-5.231-2.813-8.27-3.848c-2.029-0.793-3.576-1.26-4.641-1.4l-1.165-1.401
		c-2.115-3.6-3.499-7.797-4.151-12.59c-1.373-9.586,1.485-17.383,8.573-23.391l-0.27,11.611c0.922,8.776,4.197,15.741,9.822,20.894
		l-2.903-4.692c-1.575-3.87-2.408-8.202-2.498-12.995C134.278,94.451,138.25,87.116,146.193,82.142z M283.131,169.429l13.299,0.844
		c9.497,2.296,15.673,7.876,18.531,16.741c-2.858-1.844-6.413-3.375-10.666-4.59c-6.894-1.918-13.223-1.997-18.986-0.236
		c0.049-0.942-0.351-1.809-1.199-2.599c-1.44-1.238-2.723-0.956-3.848,0.844c-1.237,1.913-2.283,3.06-3.139,3.442
		c-0.945,0.474-2.61,0.563-4.996,0.271c2.476-1.62,4.805-3.567,6.987-5.84c1.8-1.912,2.937-3.341,3.409-4.286
		c0.562-1.64,0.189-2.967-1.114-3.983L283.131,169.429z M286.607,182.863l12.995,2.599c9.024,3.51,14.368,9.879,16.033,19.104
		c-2.588-2.206-5.907-4.186-9.957-5.94c-7.861-3.494-15.299-4.215-22.312-2.161c1.4-1,2.313-1.822,2.734-2.463
		c0.945-1.53,0.799-2.96-0.439-4.287c-1.237-1.44-2.52-1.351-3.847,0.27c-1.419,1.71-2.555,2.757-3.41,3.14
		c-1.058,0.383-2.723,0.338-4.995-0.135c2.655-1.418,5.176-3.129,7.561-5.131c2.093-1.711,3.376-3.038,3.848-3.983
		c0.136-0.257,0.243-0.51,0.321-0.759L286.607,182.863z M283.114,196.651l5.013-0.118l12.59,4.421
		c8.394,4.815,12.77,11.882,13.13,21.198c-2.205-2.589-5.197-5.041-8.979-7.358c-6.528-4.062-13.026-5.884-19.492-5.468
		c-0.866-0.846-1.951-0.733-3.258,0.337c-1.71,1.351-3.048,2.115-4.016,2.295c-1.126,0.091-2.735-0.338-4.827-1.282
		c2.948-0.855,5.749-1.991,8.404-3.409c2.386-1.237,3.904-2.284,4.557-3.139c1.147-1.351,1.192-2.779,0.136-4.287
		c-1.035-1.53-2.318-1.53-3.849,0c-1.597,1.62-2.88,2.52-3.848,2.7c-1.035,0.292-2.644,0.057-4.827-0.709
		c2.745-1.147,5.4-2.576,7.967-4.286C282.286,197.235,282.72,196.938,283.114,196.651z M285.95,210.068l1.737,0.169l11.78,6.075
		c7.741,6.009,11.104,13.67,10.092,22.986c-1.845-2.858-4.478-5.716-7.898-8.574c-5.348-4.472-10.991-7.11-16.927-7.915
		c0.313-0.808,0.25-1.714-0.186-2.717c-0.766-1.71-2.059-2.003-3.882-0.878c-1.89,1.237-3.263,1.856-4.118,1.856
		c-1.147,0.113-2.723-0.45-4.726-1.688c2.948-0.473,5.851-1.328,8.709-2.565c2.475-0.968,4.095-1.822,4.86-2.564
		c1.327-1.237,1.519-2.622,0.573-4.152L285.95,210.068z M284.329,223.569l1.03,0.236l10.901,7.729
		c6.751,6.931,9.013,14.907,6.784,23.932c-1.462-3.038-3.668-6.223-6.615-9.553c-5.503-6.088-11.713-9.694-18.632-10.817
		c1.276-0.327,2.188-0.671,2.734-1.03c1.53-0.944,2.003-2.329,1.417-4.151c-0.563-1.71-1.788-2.082-3.679-1.114
		c-2.003,0.946-3.432,1.418-4.287,1.418c-1.147-0.09-2.666-0.855-4.557-2.295c2.947-0.18,5.94-0.697,8.979-1.553
		c2.565-0.766,4.276-1.429,5.131-1.991C283.855,224.121,284.12,223.851,284.329,223.569z M229.193,110.225l9.383-9.417
		c8.033-5.423,16.337-6.244,24.91-2.464c-3.309,0.923-6.852,2.532-10.633,4.827c-6.152,3.873-10.495,8.627-13.027,14.261
		c-0.684-0.932-1.752-1.32-3.207-1.165c-1.801,0.09-2.465,1.181-1.992,3.274c0.563,2.182,0.754,3.701,0.574,4.557
		c-0.293,1.058-1.338,2.34-3.139,3.847c0.382-2.947,0.473-5.985,0.27-9.113c-0.18-2.768-0.506-4.579-0.979-5.434
		c-0.596-1.244-1.514-1.863-2.751-1.856L229.193,110.225z M276.921,109.685c-3.42,0.45-7.111,1.553-11.071,3.308
		c-8.033,3.6-13.613,8.854-16.742,15.763l3.443-4.151l11.645-6.346c9.227-3.151,17.429-1.677,24.606,4.421
		c-3.397-0.09-7.224,0.506-11.477,1.789c-7.246,2.057-12.878,5.59-16.894,10.599c-1.723-0.304-2.629,0.563-2.717,2.599
		c-0.18,2.183-0.506,3.656-0.979,4.422c-0.676,0.945-2.06,1.845-4.152,2.7c1.238-2.565,2.238-5.367,3.004-8.405
		c0.652-2.678,0.935-4.534,0.844-5.569c-0.27-1.71-1.316-2.666-3.139-2.869c-1.891-0.18-2.791,0.776-2.7,2.869
		c0.18,2.183,0.034,3.702-0.438,4.557c-0.473,0.945-1.756,1.992-3.849,3.14c1.058-2.745,1.823-5.693,2.296-8.843
		c0.383-2.566,0.428-4.366,0.135-5.401c-0.473-1.733-1.609-2.6-3.41-2.6c-1.912-0.09-2.723,0.912-2.43,3.004
		c0.383,2.183,0.383,3.758,0,4.726c-0.382,0.945-1.529,2.081-3.442,3.409c0.765-2.858,1.192-5.852,1.282-8.979
		c0.113-2.656-0.021-4.467-0.404-5.435c-0.016-0.042-0.033-0.082-0.051-0.118l1.063-1.671l10.666-7.898
		C260.674,104.364,268.977,104.69,276.921,109.685z M217.648,154.61c-8.753-5.4-18.305-8.101-28.656-8.101
		c-10.374,0-19.937,2.7-28.69,8.101l-7.392-7.391c10.936-7.337,22.964-11.005,36.083-11.005c13.208,0,25.236,3.668,36.082,11.005
		L217.648,154.61z M215.084,175.031c-5.04-4.95-10.937-8.235-17.687-9.855v-11.273c9.789,1.62,18.294,6.042,25.518,13.266
		c7.223,7.042,11.646,15.56,13.265,25.551h-11.273C223.309,185.855,220.034,179.96,215.084,175.031z M188.993,180.871
		c5.603,0,10.351,1.992,14.244,5.975c4.006,3.916,6.009,8.675,6.009,14.277c0,5.514-2.003,10.262-6.009,14.244
		c-3.893,3.916-8.641,5.873-14.244,5.873c-5.626,0-10.385-1.957-14.278-5.873c-3.893-3.982-5.839-8.73-5.839-14.244
		c0-5.603,1.946-10.361,5.839-14.277C178.608,182.863,183.367,180.871,188.993,180.871z M189.634,185.326
		c-4.253,0-7.853,1.531-10.801,4.591c-3.038,2.948-4.557,6.537-4.557,10.768c0,4.253,1.519,7.854,4.557,10.801
		c2.948,2.948,6.548,4.422,10.801,4.422c4.231,0,7.82-1.474,10.768-4.422c2.97-2.947,4.456-6.548,4.456-10.801
		c0-4.23-1.486-7.819-4.456-10.768C197.454,186.857,193.865,185.326,189.634,185.326z M224.906,209.528h11.273
		c-1.71,9.901-6.131,18.361-13.265,25.382c-7.133,7.134-15.64,11.601-25.518,13.4v-11.408c6.931-1.71,12.826-4.984,17.687-9.822
		C220.034,222.22,223.309,216.368,224.906,209.528z M242.896,165.041c7.314,10.847,10.971,22.874,10.971,36.082
		c0,13.119-3.656,25.146-10.971,36.083l-7.426-7.426c5.424-8.754,8.135-18.306,8.135-28.657c0-10.374-2.711-19.926-8.135-28.656
		L242.896,165.041z M180.554,165.176c-6.751,1.71-12.59,4.996-17.518,9.855c-5.041,4.929-8.326,10.824-9.856,17.688h-11.409
		c1.8-9.991,6.222-18.509,13.265-25.551c7.223-7.134,15.729-11.556,25.518-13.266V165.176z M277.123,235.248l4.084,1.688
		l9.688,9.147c5.715,7.831,6.818,16.078,3.308,24.741c-1.013-3.218-2.723-6.672-5.13-10.362
		c-4.249-6.229-9.374-10.504-15.375-12.826c-0.469-0.966-1.437-1.281-2.903-0.945c-0.086-0.022-0.17-0.046-0.253-0.067l0.169,0.085
		c-0.057,0.019-0.112,0.035-0.169,0.05c-2.183,0.563-3.701,0.709-4.557,0.439c-1.035-0.293-2.318-1.295-3.848-3.005
		c2.947,0.384,5.939,0.473,8.978,0.271c2.679-0.18,4.49-0.506,5.435-0.979c1.62-0.855,2.239-2.194,1.856-4.018
		c-0.383-1.8-1.529-2.316-3.442-1.552c-2.093,0.854-3.611,1.192-4.557,1.013c-1.035-0.203-2.408-1.114-4.117-2.734
		c2.946,0.09,5.939-0.102,8.978-0.574C275.942,235.499,276.563,235.375,277.123,235.248z M260.719,255.027
		c-0.945-0.382-2.138-1.519-3.578-3.409c3.061,0.653,6.109,1.024,9.148,1.114c2.744,0.113,4.544-0.022,5.399-0.405
		c1.62-0.585,2.386-1.777,2.295-3.578c-0.008-0.077-0.019-0.149-0.033-0.219l1.316,0.726l8.27,10.362
		c4.613,8.573,4.568,16.922-0.135,25.045c-0.54-3.42-1.777-7.11-3.713-11.071c-3.033-6.206-7.033-10.858-12-13.957
		c0.483-0.583,0.726-1.354,0.726-2.312c0.091-1.913-0.91-2.678-3.004-2.296C263.229,255.32,261.664,255.32,260.719,255.027z
		 M265.85,260.731c0.439-0.121,0.821-0.283,1.147-0.488l0.642,0.488l6.784,11.477c3.42,9.136,2.217,17.395-3.612,24.775
		c-0.09-3.42-0.821-7.246-2.193-11.477c-2.402-7.53-6.363-13.251-11.881-17.163c1.111,0.171,1.966,0.199,2.564,0.084
		c1.711-0.18,2.656-1.227,2.836-3.139c0.202-1.801-0.742-2.655-2.836-2.565c-2.183,0.09-3.713-0.102-4.59-0.573
		c-0.945-0.474-1.98-1.711-3.105-3.713c2.835,0.967,5.771,1.688,8.81,2.159C263.092,260.979,264.904,261.024,265.85,260.731z
		 M248.027,268.731c-0.945-0.675-1.901-2.059-2.869-4.151c2.678,1.327,5.535,2.374,8.573,3.14c0.76,0.192,1.451,0.351,2.076,0.472
		l2.718,2.903l5.096,12.32c2.025,9.405-0.326,17.383-7.055,23.931c0.473-3.421,0.293-7.291-0.539-11.611
		c-1.331-7.415-4.205-13.378-8.625-17.889c-0.066-0.845-0.686-1.425-1.855-1.739c-0.241-0.199-0.482-0.396-0.727-0.59l0.355,0.506
		c-0.049-0.013-0.1-0.024-0.152-0.033c-2.184-0.384-3.656-0.856-4.422-1.418c-0.854-0.766-1.609-2.239-2.262-4.422
		c2.453,1.508,5.152,2.835,8.102,3.983c2.475,0.854,4.241,1.282,5.299,1.282c1.801-0.09,2.891-1.035,3.274-2.836
		c0.382-1.822-0.473-2.778-2.565-2.869C250.266,269.53,248.793,269.204,248.027,268.731z M247.252,278.925l0.742,1.047l3.477,12.859
		c0.72,9.677-2.746,17.282-10.396,22.818c0.922-3.331,1.294-7.201,1.113-11.611c-0.207-6.833-1.901-12.649-5.08-17.451
		c0.691-0.321,1.236-0.906,1.638-1.755c0.765-1.71,0.146-2.847-1.856-3.409c-2.182-0.585-3.6-1.203-4.253-1.856
		c-0.766-0.766-1.384-2.34-1.856-4.726c2.363,1.823,4.928,3.443,7.695,4.861c2.477,1.146,4.23,1.766,5.266,1.856
		c1.711,0.18,2.858-0.631,3.443-2.431C247.209,279.062,247.231,278.994,247.252,278.925z M229.902,284.393
		c2.295,1.44,3.961,2.251,4.995,2.431c0.451,0.073,0.868,0.085,1.249,0.034l0.236,0.438l1.519,13.265
		c-0.653,9.699-5.073,16.708-13.265,21.029c1.372-3.128,2.238-6.908,2.599-11.341c0.823-7.817-0.481-14.613-3.915-20.388
		c1.008,0.657,1.83,1.073,2.464,1.249c1.71,0.563,3.038,0.033,3.982-1.587c0.854-1.598,0.337-2.779-1.552-3.544
		c-2.094-0.854-3.433-1.62-4.018-2.295c-0.652-0.855-1.125-2.464-1.418-4.826C224.963,280.95,227.337,282.796,229.902,284.393z
		 M225.074,254.893c-10.846,7.313-22.873,10.971-36.082,10.971c-13.119,0-25.146-3.657-36.083-10.971l7.392-7.426
		c8.753,5.423,18.317,8.135,28.69,8.135c10.351,0,19.903-2.712,28.656-8.135L225.074,254.893z M180.554,248.311
		c-9.878-1.8-18.384-6.267-25.518-13.4c-7.043-7.021-11.465-15.48-13.265-25.382h11.409c1.53,6.75,4.815,12.602,9.856,17.552
		c4.748,4.838,10.587,8.112,17.518,9.822V248.311z M178.292,290.267c-0.202-1.148,0.18-2.768,1.148-4.861
		c0.743,2.858,1.879,5.66,3.409,8.405c0.239,0.459,0.469,0.887,0.692,1.282l-0.287,3.814c-0.922,4.05-2.813,8.067-5.67,12.05
		c-5.626,7.921-13.142,11.51-22.547,10.768c2.858-1.936,5.625-4.658,8.303-8.169c4.384-5.561,6.848-11.36,7.392-17.399
		c1.053-0.706,1.098-1.814,0.135-3.325c-0.007-0.011-0.012-0.022-0.017-0.033c-0.012-0.359-0.028-0.72-0.05-1.08l-0.152,0.742
		c-1.091-1.808-1.637-3.112-1.637-3.915c-0.09-1.058,0.439-2.633,1.586-4.726c0.473,2.948,1.328,5.896,2.565,8.843
		c1.035,2.476,1.89,4.097,2.565,4.861c1.328,1.327,2.756,1.519,4.287,0.574c1.598-0.945,1.732-2.273,0.405-3.983
		C179.092,292.404,178.383,291.121,178.292,290.267z M192.537,293.945c1.529,2.205,2.723,3.589,3.578,4.152
		c0.326,0.201,0.646,0.353,0.962,0.455l0.017,0.22c-0.36,4.14-1.7,8.382-4.017,12.725c-4.523,8.663-11.442,13.321-20.758,13.975
		c2.498-2.318,4.849-5.412,7.054-9.282c3.874-6.824,5.426-13.575,4.658-20.252c0.739,1.188,1.392,1.998,1.958,2.43
		c1.327,1.147,2.756,1.147,4.286,0c1.508-1.035,1.508-2.317,0-3.849c-1.53-1.507-2.441-2.745-2.734-3.713
		c-0.27-1.034-0.022-2.644,0.743-4.826C189.409,288.725,190.827,291.38,192.537,293.945z M197.127,285.541
		c1.417,2.655,3.128,5.131,5.13,7.426c1.711,2.093,3.037,3.375,3.982,3.848c1.612,0.852,3.036,0.62,4.271-0.692l0.151,0.726
		l-2.092,13.131c-3.309,9.136-9.53,14.672-18.667,16.606c2.115-2.678,4.006-6.041,5.671-10.092c2.5-6.206,3.32-12.124,2.464-17.755
		c0.822,0.031,1.609-0.272,2.363-0.911c1.327-1.237,1.181-2.531-0.438-3.882c-1.71-1.417-2.712-2.554-3.004-3.409
		C196.576,289.501,196.632,287.836,197.127,285.541z M205.938,284.259c1.619,2.385,3.577,4.669,5.873,6.852
		c1.89,1.8,3.307,2.937,4.252,3.408c1.732,0.676,3.117,0.305,4.152-1.113c1.146-1.53,0.765-2.824-1.148-3.882
		c-1.889-0.945-3.127-1.845-3.713-2.7c-0.562-0.854-0.844-2.464-0.844-4.826c1.913,2.272,4.096,4.354,6.549,6.244
		c0.52,0.402,1.01,0.763,1.469,1.08l1.266,3.646l-0.271,13.265c-1.935,9.496-7.291,15.864-16.067,19.104
		c1.756-2.948,3.141-6.548,4.152-10.801c1.766-7.083,1.604-13.536-0.49-19.357c0.403-0.976,0.033-1.87-1.113-2.684
		c-0.146-0.307-0.299-0.609-0.455-0.911l0.152,0.708c-0.019-0.012-0.035-0.023-0.051-0.033c-1.801-1.237-2.938-2.283-3.41-3.14
		C205.768,288.174,205.666,286.554,205.938,284.259z M122.937,129.532c-0.36,1.801,0.506,2.745,2.599,2.836
		c2.183,0.202,3.702,0.539,4.557,1.013c0.855,0.562,1.755,1.935,2.7,4.117c-2.655-1.328-5.513-2.362-8.573-3.105
		c-2.655-0.675-4.456-0.923-5.4-0.742c-1.236,0.201-2.097,0.757-2.583,1.671L115.883,135c-2.565-3.24-4.546-7.211-5.941-11.915
		c-2.678-9.316-0.922-17.473,5.266-24.471l1.384,11.611c1.773,6.892,4.833,12.389,9.181,16.489
		C124.23,126.954,123.285,127.895,122.937,129.532z M117.671,141.515c-2.655-0.383-4.512-0.428-5.569-0.135
		c-1.71,0.473-2.565,1.608-2.565,3.409c0,1.89,1.046,2.655,3.139,2.295c2.183-0.293,3.702-0.248,4.557,0.136
		c1.057,0.382,2.25,1.519,3.578,3.408c-2.858-0.652-5.851-1.08-8.979-1.282c-2.655-0.09-4.467,0.056-5.435,0.438
		c-1.71,0.563-2.464,1.801-2.261,3.713c0.09,1.801,1.182,2.419,3.274,1.856c2.183-0.495,3.702-0.642,4.557-0.438
		c1.058,0.292,2.386,1.339,3.983,3.139c-2.835-0.473-5.873-0.574-9.113-0.304c-2.242,0.095-3.884,0.32-4.928,0.675l-1.249-0.607
		c-3.398-2.407-6.391-5.682-8.979-9.822c-5.153-8.214-5.704-16.517-1.654-24.91l4.557,10.801
		c4.433,7.561,10.25,12.533,17.451,14.919l-4.59-2.903c-3.038-2.857-5.569-6.492-7.595-10.902
		c-3.96-8.956-3.319-17.304,1.924-25.045l2.902,11.341c2.645,6.523,6.392,11.501,11.24,14.936c-0.045,0.174-0.079,0.359-0.101,0.557
		c-0.18,1.913,0.776,2.824,2.869,2.734c2.183-0.202,3.702-0.067,4.557,0.404c1.035,0.473,2.126,1.756,3.274,3.849
		C123.77,142.741,120.822,141.987,117.671,141.515z M80.88,223.231c-9.293-2.947-15.054-8.989-17.282-18.125l10.396,5.4
		c6.449,2.384,12.514,2.963,18.193,1.738c0.077,0.099,0.155,0.194,0.236,0.287c1.147,1.328,2.385,1.182,3.713-0.439
		c1.44-1.71,2.588-2.756,3.443-3.139c1.035-0.383,2.689-0.281,4.961,0.304c-2.655,1.418-5.175,3.083-7.561,4.996
		c-2.07,1.8-3.296,3.127-3.679,3.982c-0.855,1.62-0.574,3.05,0.844,4.287c1.328,1.237,2.565,0.944,3.713-0.878
		c1.148-1.8,2.194-2.892,3.139-3.274c0.945-0.473,2.554-0.619,4.827-0.438c-2.421,1.71-4.666,3.64-6.734,5.788l-5.046,1.165
		C89.881,225.269,85.493,224.717,80.88,223.231z M65.387,222.692l11.071,3.881c8.517,1.81,16.005,0.915,22.463-2.684
		c-1.862,1.938-2.981,3.384-3.358,4.338c-0.653,1.71-0.225,3.083,1.283,4.118c1.44,1.057,2.678,0.63,3.713-1.283
		c0.945-1.89,1.845-3.128,2.7-3.713c0.855-0.563,2.475-0.799,4.86-0.709c-2.272,1.913-4.365,4.051-6.278,6.413
		c-1.62,2.094-2.622,3.668-3.004,4.726c-0.006,0.024-0.012,0.046-0.017,0.068l-0.49,0.202c-4.073,0.922-8.506,0.967-13.299,0.135
		C75.446,236.52,68.897,231.355,65.387,222.692z M64.172,187.555l9.519,6.784c5.994,3.128,11.867,4.522,17.619,4.186
		c-0.722,1.175-0.587,2.424,0.405,3.747c1.058,1.507,2.34,1.507,3.848,0c1.53-1.53,2.768-2.442,3.713-2.734
		c1.057-0.181,2.678,0.067,4.86,0.742c-2.768,1.126-5.434,2.599-8,4.422c-2.183,1.418-3.555,2.554-4.118,3.409
		c-0.7,1.105-0.823,2.181-0.372,3.224l-0.102,0.017c-4.14-0.181-8.427-1.339-12.86-3.477
		C70.022,203.644,65.185,196.87,64.172,187.555z M85.336,162.104c-6.279-7.381-7.989-15.493-5.131-24.336l5.94,9.957
		c4.299,5.453,9.227,9.183,14.784,11.188c-1.243,0.853-1.693,2.084-1.35,3.696c0.36,1.801,1.542,2.329,3.544,1.587
		c2.092-0.765,3.611-1.058,4.557-0.878c1.057,0.09,2.441,0.945,4.151,2.565c-2.948-0.09-5.997,0.146-9.147,0.709
		c-2.565,0.383-4.32,0.866-5.265,1.451c-1.026,0.644-1.572,1.487-1.637,2.531l-0.084-0.033
		C92.008,168.607,88.554,165.795,85.336,162.104z M72.61,153.531l7.325,9.113c4.946,4.736,10.251,7.712,15.915,8.928
		c0.039,0.193,0.09,0.391,0.152,0.591c0.653,1.71,1.891,2.093,3.713,1.147c1.98-0.945,3.454-1.373,4.422-1.282
		c1.035,0,2.509,0.709,4.422,2.126c-2.948,0.202-5.896,0.731-8.844,1.587c-2.677,0.765-4.388,1.474-5.13,2.126
		c-1.44,1.058-1.778,2.441-1.013,4.151c0.675,1.711,1.913,1.992,3.713,0.845c1.8-1.148,3.229-1.768,4.287-1.856
		c1.036,0,2.555,0.573,4.557,1.721c-2.948,0.563-5.851,1.418-8.708,2.565c-2.475,0.945-4.084,1.8-4.827,2.565
		c-1.35,1.237-1.542,2.666-0.574,4.287c0.945,1.619,2.272,1.755,3.982,0.404c1.71-1.417,3.038-2.172,3.983-2.261
		c1.058-0.203,2.633,0.18,4.726,1.147c-2.768,0.854-5.581,2.036-8.438,3.544c-2.054,1.076-3.472,1.976-4.252,2.7l-1.013-0.034
		c-4.073-0.832-8.135-2.588-12.185-5.266c-8.124-5.332-11.994-12.702-11.611-22.108l8.438,8c7.178,5.175,14.547,7.392,22.108,6.649
		l-5.367-0.979c-3.983-1.372-7.764-3.679-11.341-6.919C73.848,170.588,71.035,162.757,72.61,153.531z M142.48,172.467
		c-5.311,8.73-7.966,18.282-7.966,28.656c0,10.352,2.655,19.903,7.966,28.657l-7.393,7.426
		c-7.246-10.937-10.868-22.964-10.868-36.083c0-13.208,3.623-25.235,10.868-36.082L142.48,172.467z M125.536,257.323
		c-1.35,2.655-2.396,5.502-3.139,8.54c-0.675,2.654-0.923,4.466-0.743,5.434c0.014,0.119,0.03,0.238,0.051,0.354l-0.152,0.152
		c-3.308,2.475-7.358,4.319-12.151,5.535c-9.406,2.475-17.484,0.438-24.235-6.109l11.645-0.945
		c8.09-1.741,14.379-5.375,18.868-10.902c-0.755,2.146-1.093,3.643-1.012,4.489c0.112,1.801,1.069,2.892,2.869,3.274
		c1.801,0.383,2.746-0.473,2.835-2.565c0.203-2.183,0.54-3.702,1.013-4.557C122.06,259.078,123.443,258.178,125.536,257.323z
		 M132.186,280.512l-0.101,0.135c-2.948,2.948-6.683,5.345-11.207,7.189c-8.956,3.69-17.214,2.768-24.775-2.768l11.341-2.497
		c6.179-2.262,11.057-5.547,14.632-9.856c0.499,0.91,1.404,1.428,2.717,1.552c1.823,0.203,2.678-0.742,2.565-2.834
		c-0.09-2.184,0.101-3.702,0.574-4.558c0.472-1.058,1.71-2.16,3.713-3.308c-0.945,2.857-1.654,5.806-2.126,8.843
		c-0.383,2.769-0.428,4.625-0.135,5.569C129.801,279.488,130.734,280.332,132.186,280.512z M135.257,276.225l-0.27,0.371
		c-0.187-1.752-0.153-3.001,0.101-3.746c0.473-1.035,1.609-2.228,3.41-3.578c-0.765,2.948-1.148,5.952-1.148,9.013
		c-0.09,2.745,0.057,4.545,0.439,5.4c0.563,1.71,1.8,2.476,3.713,2.295c1.8-0.202,2.419-1.294,1.856-3.274
		c-0.473-2.205-0.619-3.735-0.439-4.59c0.293-1.035,1.294-2.363,3.004-3.982c-0.383,2.947-0.484,5.996-0.304,9.146
		c0.035,0.311,0.068,0.609,0.102,0.895l-1.89,3.662c-2.475,3.33-5.839,6.233-10.093,8.708c-8.393,4.906-16.741,5.143-25.044,0.71
		l10.936-4.018c6.13-3.278,10.67-7.515,13.62-12.708c1.576-0.167,2.189-1.207,1.839-3.122c-0.025-0.191-0.048-0.376-0.067-0.557
		C135.101,276.643,135.179,276.434,135.257,276.225z M151.188,282.402c0.18-1.035,1.08-2.408,2.7-4.118
		c-0.09,2.947,0.102,5.94,0.574,8.978c0.473,2.746,1.001,4.546,1.586,5.4c0.131,0.213,0.271,0.404,0.422,0.574l-0.051,0.136
		c-2.025,3.69-4.973,7.009-8.843,9.957c-7.561,6.008-15.774,7.438-24.64,4.286l10.261-5.671
		c6.528-4.686,10.741-10.328,12.641-16.927c0.236,1.719,0.5,2.94,0.793,3.662c0.855,1.62,2.138,2.239,3.848,1.856
		c1.8-0.383,2.374-1.574,1.721-3.577C151.436,284.865,151.099,283.347,151.188,282.402z M162.023,281.559
		c0.292,2.947,0.867,5.94,1.722,8.978c0.765,2.565,1.429,4.23,1.991,4.995c1.103,1.363,2.464,1.717,4.084,1.063l-0.102,0.523
		c-1.485,3.871-3.938,7.562-7.358,11.071c-6.729,6.998-14.661,9.53-23.796,7.595l9.282-6.92c4.763-4.544,7.896-9.527,9.4-14.952
		c0.797,0.493,1.771,0.562,2.92,0.202c1.71-0.675,2.092-1.912,1.147-3.713c-0.945-2.003-1.417-3.477-1.417-4.422
		C159.987,284.832,160.696,283.358,162.023,281.559z M115.106,242.91c-1.71,2.272-3.274,4.838-4.692,7.695
		c-1.148,2.386-1.767,4.097-1.856,5.131c-0.203,1.8,0.607,2.993,2.43,3.578c1.71,0.563,2.757-0.202,3.139-2.296
		c0.36-2.183,0.833-3.656,1.417-4.421c0.765-0.855,2.239-1.608,4.422-2.262c-1.62,2.565-2.959,5.321-4.017,8.27
		c-0.03,0.081-0.059,0.16-0.084,0.236l-3.561,2.869c-3.69,2.025-7.932,3.308-12.725,3.848c-9.698,1.013-17.451-2.16-23.256-9.519
		l11.611,0.675c6.961-0.512,12.807-2.491,17.535-5.94c1.592,0.812,2.667,0.182,3.224-1.89c0.113-0.439,0.231-0.845,0.354-1.215
		c0.014-0.025,0.031-0.048,0.051-0.068l-0.051,0.034c0.466-1.484,0.966-2.486,1.502-3.004
		C111.314,243.866,112.833,243.293,115.106,242.91z M106.397,236.193c0.855-0.652,2.476-1.08,4.861-1.283
		c-2.093,2.183-3.949,4.557-5.569,7.122c-1.417,2.296-2.228,3.961-2.43,4.996c-0.224,1.421,0.237,2.518,1.384,3.291l-0.102,0.051
		c-3.87,1.463-8.247,2.104-13.13,1.924c-9.788-0.271-17.034-4.467-21.737-12.59l11.51,2.362c6.59,0.406,12.424-0.646,17.501-3.156
		c0.004,1.176,0.628,2.126,1.874,2.853c1.62,0.944,2.813,0.427,3.578-1.553C104.992,238.117,105.745,236.778,106.397,236.193z"/>
</g>
</svg>
