<?xml version="1.0" encoding="utf-8"?>
<!-- Generator: Adobe Illustrator 16.0.0, SVG Export Plug-In . SVG Version: 6.00 Build 0)  -->
<!DOCTYPE svg PUBLIC "-//W3C//DTD SVG 1.1//EN" "http://www.w3.org/Graphics/SVG/1.1/DTD/svg11.dtd">
<svg version="1.1" id="Layer_1" xmlns="http://www.w3.org/2000/svg" xmlns:xlink="http://www.w3.org/1999/xlink" x="0px" y="0px"
	 width="400px" height="400px" viewBox="0 0 400 400" enable-background="new 0 0 400 400" xml:space="preserve">
<g>
	<path fill-rule="evenodd" clip-rule="evenodd" fill="#543028" d="M118.789,79.771c0-0.09-0.045-0.135-0.135-0.135l0.135-0.27
		c0,0.09,0.045,0.135,0.135,0.135L118.789,79.771z M122.054,88.689c0.089,0,0.135,0.045,0.135,0.135l-6.933-0.135
		c-0.763,1.616-1.425,3.22-1.986,4.813c-1.032-1.122-1.694-1.728-1.985-1.818c-0.18-0.112-0.371-0.112-0.572,0l-1.111-2.995
		c-2.647-0.09-5.385-0.09-8.212,0c2.446-2.176,4.656-3.916,6.63-5.216l-1.683-7.943l6.529,4.543l3.399-1.716l-0.438,1.279
		c0.942,0,1.929,0.146,2.961,0.438l-1.11,2.659h-0.572c-1.145,0-1.481-0.045-1.01-0.135c0.673-0.179,0.864-0.37,0.572-0.572
		l-0.841-0.134l-0.707,0.438v0.572l-0.572,2.692c0.561,0,0.841,0.179,0.841,0.538l-0.572-0.269l1.144,0.841v-0.976l0.303,0.976
		c0.561-0.561,0.886-1.167,0.976-1.817l0.572,0.27c0.18-0.382,0.314-0.617,0.404-0.707l0.572,0.572
		c-0.269,0.09-0.404,0.225-0.404,0.404c0.269-0.09,0.549-0.135,0.841-0.135l1.548,1.414c-0.651-0.471-1.077-0.751-1.279-0.841
		C119.967,86.715,120.82,87.657,122.054,88.689z M119.092,78.088l0.135-0.303c0-0.09-0.281-0.18-0.841-0.27
		c-0.673,0.471-1.054,0.606-1.145,0.404v-0.135l3.13-1.818l-1.01,2.39L119.092,78.088z M80.859,96.498l7.202,3.096l6.664-5.385
		c-0.471,1.997-0.987,4.645-1.548,7.943l6.63,4.105l-7.774,1.414l-1.414,7.775l-4.106-6.63l-7.942,1.548
		c1.144-1.503,2.939-3.68,5.385-6.529L80.859,96.498z M116.534,103.7c1.503-1.122,3.018-2.21,4.543-3.265
		c0.18,0.112,0.46,0.213,0.841,0.303l-1.414,1.414c1.033,0,1.829,0.134,2.39,0.403c0.09,0,0.135,0.102,0.135,0.303
		c-0.09-0.09-0.18-0.135-0.27-0.135l-2.255-0.572l0.404,0.269c-0.942,0.09-0.842,0.28,0.303,0.572
		c0.853,0.202,1.515,0.303,1.985,0.303l-0.303,0.135c-0.179,0.179-0.269,0.37-0.269,0.572c0.179-0.112,0.37-0.168,0.572-0.168
		c0,0.381,0.09,0.718,0.27,1.01c-3.119,2.064-6.092,4.33-8.919,6.798c-0.292-0.202-0.482-0.494-0.572-0.875l-0.841,0.438
		l0.438,0.438c-0.202,0-0.303,0.325-0.303,0.976c-1.795,1.503-3.59,3.107-5.385,4.813v-0.134l0.135-0.135
		c0.292-0.471,0.482-1.279,0.572-2.423c-1.503,0.942-3.108,1.234-4.813,0.875c-0.27-0.113-0.505-0.213-0.707-0.303
		c3.882-3.77,7.853-7.214,11.915-10.333c2.535,0.763,2.961,0.763,1.279,0c-0.202-0.65-0.157-0.931,0.134-0.841l0.404,0.135
		L116.534,103.7z M112.563,95.354c-0.09,0.179-0.18,0.415-0.269,0.707l-0.438-1.144C112.036,95.005,112.271,95.151,112.563,95.354z
		 M130.4,95.791c0.471,1.302,0.897,2.008,1.279,2.121c0.09,0.269,0.135,0.505,0.135,0.707c0,0.089,0,0.269,0,0.538
		c0.292-0.09,0.527-0.135,0.707-0.135c-0.179,0.09-0.314,0.191-0.404,0.303c-0.112,0-0.213,0-0.303,0v0.135
		c-0.381,0.179-0.707,0.37-0.976,0.572c-1.167-0.539-2.154-0.942-2.962-1.211c1.66,0.494,2.076,0.28,1.246-0.64
		c-0.853-0.942-1.324-1.694-1.414-2.255c0.381-0.202,0.718-0.393,1.01-0.572c0.179,0.292,0.695,0.572,1.548,0.841L130.4,95.791z
		 M132.016,96.127c0.472,0.135,0.831,0.202,1.077,0.202c0.09,0.202,0.28,0.438,0.572,0.707c-0.292,0.202-0.527,0.393-0.707,0.572
		c-0.09,0.202-0.37,0.247-0.841,0.134v-0.134c0.74-0.853,0.74-1.324,0-1.414C132.072,96.172,132.038,96.149,132.016,96.127z
		 M132.117,93.939c-0.292,0.09-0.527,0.045-0.707-0.134c0.179-0.112,0.359-0.213,0.538-0.303c0.382,0.202,0.763,0.437,1.145,0.707
		c0.673,0.381,1.246,0.763,1.716,1.145c-0.942-0.382-1.705-0.763-2.289-1.145c-0.179,0.381-0.079,0.909,0.303,1.582
		c-0.943-0.292-1.324-0.538-1.145-0.74C132.15,94.22,132.296,93.85,132.117,93.939z M126.294,97.036
		c-0.09,1.144-0.561,1.525-1.414,1.144c0.561,1.032,1.313,1.739,2.255,2.121c-0.18,0.09-0.314,0.19-0.404,0.303
		c0.471,0.269,0.987,0.595,1.548,0.976c-1.033,0.561-1.975,1.178-2.827,1.851c-0.18-0.202-0.27-0.348-0.27-0.438
		c0.09-0.561,0.034-0.987-0.168-1.279c-0.651,0.202-1.021,0.247-1.111,0.135c-1.055-0.83-1.817-1.391-2.289-1.683
		c0.471-0.471,0.999-0.853,1.582-1.145c0.27-0.09,0.55-0.179,0.842-0.269s0.437-0.326,0.437-0.707
		c0.561-0.382,1.167-0.763,1.818-1.145V97.036z M132.117,97.911l0.808,0.269c-0.292-0.09-0.561-0.134-0.808-0.134V97.911z
		 M132.235,104.928c0.999-0.616,2.008-1.222,3.029-1.817c-0.13-0.051-0.237-0.09-0.32-0.118c-0.09-0.09-0.191-0.135-0.303-0.135
		c1.055-0.673,2.143-1.29,3.265-1.851h0.135c0.371,0.08,0.668,0.085,0.892,0.017c0.105-0.033,0.195-0.083,0.269-0.151
		c0.168-0.148,0.252-0.384,0.252-0.707c0.763-0.381,1.525-0.763,2.289-1.145c0.138,0.069,0.306,0.142,0.505,0.219
		c1.083-0.563,2.177-1.119,3.282-1.666l-0.118-0.235h-0.269c0.089-0.09,0.179-0.135,0.269-0.135v0.135c0.088,0,0.189,0,0.303,0
		c-0.104,0.002-0.16,0.081-0.168,0.235c0.282-0.14,0.563-0.279,0.841-0.42l-0.135-0.252l0.168-0.134v0.37
		c0.959-0.464,1.924-0.924,2.895-1.38c-0.021-0.044-0.043-0.089-0.067-0.135v-0.135c0.471-0.18,0.942-0.37,1.414-0.572
		c0.179-0.09,0.37-0.18,0.572-0.27h0.135c0.089,0.03,0.157,0.058,0.202,0.084c0.199-0.088,0.401-0.178,0.606-0.269
		c-0.034-0.041-0.067-0.08-0.102-0.118c0.059,0.029,0.115,0.058,0.168,0.084c0.182-0.079,0.361-0.157,0.539-0.236l-0.135-0.118
		c1.081-0.425,2.163-0.835,3.248-1.229c0.645-0.234,1.29-0.464,1.935-0.689c13.517-4.667,27.551-7,42.103-7
		c17.747,0,34.688,3.444,50.82,10.332c15.571,6.619,29.358,15.919,41.362,27.9c12.07,12.072,21.416,25.904,28.035,41.498
		c6.799,16.132,10.197,33.027,10.197,50.686c0,7.74-0.662,15.335-1.984,22.784c-1.797-2.445-3.119-3.298-3.973-2.558
		c-0.764,0.764-0.764,1.952,0,3.567c0.383,0.942,0.943,1.414,1.684,1.414c0.762-0.202,1.469-0.729,2.119-1.582
		c-0.178,1.145-0.359,2.277-0.537,3.398c-1.324-0.74-2.133-0.695-2.424,0.135c-0.471,1.235-0.09,1.953,1.145,2.154
		c0.18,0.09,0.416,0.09,0.707,0c-0.764,3.097-1.615,6.204-2.559,9.322c-0.09,0-0.18-0.045-0.27-0.134
		c-0.471-0.18-1.088-0.135-1.852,0.134c-0.941,0.292-1.648,0.764-2.119,1.414c2.176-0.27,3.545-0.55,4.105-0.841
		c-1.234,3.881-2.646,7.752-4.24,11.61c-3.32,7.83-7.338,15.19-12.049,22.078c-0.18,0.292-0.371,0.584-0.572,0.875l-1.682,0.842
		c-1.705-1.032-4.072-1.032-7.102,0l4.408,2.558l-0.135,0.404l0.539-0.135l1.01,0.571c-0.854,1.122-1.75,2.256-2.693,3.4
		c-0.09-0.203-0.18-0.349-0.27-0.438l1.111-1.985l-4.375,1.582c1.121,0.561,1.918,1.077,2.391,1.548c0.201,0,0.346-0.19,0.436-0.572
		l0.135,0.572c-2.826,3.479-5.889,6.877-9.188,10.197c-7.18,7.158-14.965,13.384-23.356,18.679
		c-0.112-0.089-0.169-0.179-0.169-0.269c-0.941,0.472-1.458,0.796-1.549,0.977c-0.089,0.089-0.089,0.19,0,0.302
		c-5.182,3.097-10.611,5.834-16.288,8.212c-16.132,6.777-33.073,10.165-50.82,10.165c-9.154,0-18.073-0.887-26.756-2.659
		c-0.089-0.112-0.134-0.214-0.134-0.303c-0.763-0.472-1.291-0.517-1.582-0.135c-7.539-1.705-14.943-4.062-22.212-7.068
		c-6.798-2.938-13.271-6.338-19.419-10.196c0.112-0.292-0.022-0.719-0.404-1.279c-0.202,0-0.393,0.235-0.572,0.706
		c-1.234-0.853-2.457-1.705-3.668-2.558c0-0.471-0.235-0.853-0.707-1.145c-0.202,0.112-0.348,0.214-0.437,0.304
		c-5.767-4.062-11.196-8.639-16.29-13.732c-11.981-12.094-21.282-25.926-27.9-41.497c-5.946-14.068-9.289-28.606-10.029-43.617
		c0.561-0.741,0.976-1.447,1.245-2.12c-0.359,0.09-0.83,0.37-1.414,0.841c-0.089-1.975-0.135-3.948-0.135-5.923
		c0-4.105,0.185-8.139,0.556-12.1c0.139-1.453,0.302-2.895,0.488-4.325c0.035-0.233,0.068-0.469,0.101-0.706h0.017
		c0.083,0,0.167,0,0.252,0c0.09,0,0.281-0.427,0.572-1.279c-0.18,0-0.37-0.045-0.572-0.135c0.015-0.138,0.031-0.272,0.051-0.403
		c0.074-0.707,0.159-1.38,0.252-2.02c0.019,0.062,0.042,0.123,0.067,0.186c0.083,0.225,0.195,0.443,0.337,0.655
		c0.471-0.179,1.043-0.505,1.716-0.976c0.561-0.292,1.122-0.438,1.683-0.438c-0.09-0.561-0.135-0.886-0.135-0.976
		c-0.09,0-0.236-0.102-0.438-0.304l-1.111,0.304h-0.135c0.09-0.292-0.011-0.394-0.303-0.304c-0.179,0-0.034-0.235,0.438-0.706
		c0.381-0.27,0.853-0.213,1.414,0.168c0.18-0.112,0.034-0.348-0.438-0.706c-0.853-0.494-1.458-0.551-1.817-0.169l-0.168,0.438
		c-0.177,0-0.339,0.017-0.488,0.051c-0.076,0.025-0.149,0.053-0.219,0.084c0.202-0.763,0.393-1.515,0.572-2.255
		c0.036,0,0.07,0,0.101,0c0.236,0,0.393,0,0.471,0c1.975,0.27,3.253-0.157,3.837-1.279c-0.853-0.65-1.66-1.223-2.423-1.716
		c0.089-0.651,0.089-1.402,0-2.255c-0.266,0-0.485,0-0.657,0c-0.069,0-0.131,0-0.185,0c0.18-1.122,0.46-2.21,0.842-3.265
		c0.07-0.022,0.149-0.039,0.235-0.051c0.249-0.056,0.552-0.084,0.909-0.084c1.324-0.18,2.165-0.415,2.524-0.707
		c0.583-0.381-0.022-0.707-1.817-0.976c-0.261,0-0.666,0.106-1.211,0.319c-0.067,0.028-0.135,0.057-0.202,0.084
		c-0.067,0-0.112,0.022-0.135,0.067c0.382-1.391,0.797-2.682,1.246-3.87c0.09-0.09,0.191-0.235,0.303-0.438h-0.168
		c0-0.292,0.056-0.527,0.168-0.707c0.086,0,0.182,0.006,0.286,0.017c0.683-2.098,1.413-4.162,2.188-6.192
		c-0.028-0.068-0.057-0.13-0.084-0.186c0.471-1.233,0.942-2.411,1.414-3.533c0.09-0.292,0.236-0.628,0.438-1.01
		c0.063-0.039,0.125-0.072,0.185-0.101c0.725-0.38,1.561-0.437,2.507-0.169c0-0.201-0.146-0.348-0.438-0.438
		c-0.381-0.09-0.572-0.28-0.572-0.572c0.472-0.381,0.662-0.661,0.572-0.841c-0.084-0.169-0.416-0.31-0.993-0.421
		c-0.04-0.005-0.08-0.01-0.118-0.017c1.032-2.267,2.109-4.477,3.23-6.63c0.05-0.02,0.101-0.036,0.152-0.051
		c0.293-0.558,0.59-1.113,0.892-1.666h-0.034c1.593-3.007,3.388-5.979,5.385-8.919h0.017c0.109,0.017,0.209,0.034,0.303,0.051
		l3.08-4.998c0.831-1.234,1.728-2.457,2.693-3.669c0.019,0.051,0.041,0.101,0.067,0.152c0.072-0.099,0.145-0.194,0.219-0.286
		l-0.151-0.034c0.09-0.09,0.179-0.18,0.269-0.269c0.034,0.01,0.068,0.021,0.102,0.034c0.089-0.112,0.179-0.224,0.269-0.337
		c-0.086,0-0.166,0-0.236,0c0.673-0.83,1.38-1.671,2.12-2.524c0.044,0.04,0.083,0.073,0.118,0.101
		c0.753-0.883,1.522-1.758,2.305-2.625c0.044-0.142,0.089-0.299,0.135-0.471c1.144-1.212,2.277-2.435,3.399-3.668
		c0.201-0.063,0.386-0.124,0.555-0.185c0.615-0.207,1.002-0.381,1.161-0.522l0.404-0.572c0.09,0.202,0.235,0.438,0.438,0.707
		l0.135-2.255c0.292-0.292,0.572-0.527,0.841-0.707c0.096,0.045,0.203,0.095,0.32,0.152c1.505-1.418,3.054-2.81,4.645-4.174
		c-0.172,0.01-0.357,0.027-0.556,0.051c0.673-0.606,1.346-1.211,2.02-1.817c0.014,0.07,0.092,0.183,0.235,0.336
		c0.109-0.09,0.216-0.18,0.32-0.269c-0.056-0.039-0.118-0.072-0.185-0.101c-0.112-0.044-0.202-0.056-0.269-0.034
		c0.224-0.224,0.46-0.449,0.707-0.673l0.438,0.168l-0.05,0.117c0.75-0.607,1.508-1.207,2.272-1.8
		c-0.179,0.01-0.358,0.043-0.539,0.101c-0.292,0.09-0.617,0.28-0.976,0.572c2.737-2.356,5.609-4.521,8.616-6.496l-0.135,0.135
		c-0.127,0.321-0.245,0.612-0.354,0.875c1.224-0.845,2.469-1.675,3.736-2.49c-0.213-0.109-0.398-0.187-0.555-0.236
		c0.853-0.65,1.795-1.268,2.827-1.851C131.967,104.675,132.108,104.805,132.235,104.928z M129.693,106.392
		c0.016,0.032,0.033,0.065,0.051,0.101c0.05-0.032,0.101-0.066,0.151-0.101C129.824,106.392,129.757,106.392,129.693,106.392z
		 M175.297,56.683l0.27,0.168c0,0.02,0,0.036,0,0.051l1.447,0.118l0.135,0.572l-0.067,0.033l1.313,0.371
		c-0.179-0.135-0.359-0.269-0.538-0.404l-0.707-0.572l0.774,0.118c-0.166-0.284-0.379-0.525-0.64-0.724l2.524-0.269l-1.262,1.363
		l0.858,0.354c-0.18-0.269-0.314-0.505-0.404-0.707l1.414,0.134l-1.279,0.943l0.707,0.202l-7.371,3.13l0.135,3.063
		c0.763-0.09,1.335-0.168,1.716-0.236l0.572,2.39c-0.381-0.09-0.617-0.135-0.707-0.135c-0.292,0-0.482,0.146-0.572,0.438
		l-0.438-0.303l-0.134-1.414l-0.438-0.202l0.067,1.548l0.067,0.067h-0.067l0.101,2.692l-5.519-5.654l-7.371,3.097l3.399-7.068
		l-5.822-5.789l8.38,0.977l0.892-1.363c-0.098-0.015-0.171,0.002-0.219,0.05v-0.135l0.236,0.067l0.185-0.303
		c-0.135-0.045-0.23-0.067-0.286-0.067v-0.135c0.111,0.05,0.218,0.101,0.319,0.152l0.993-1.498l0.976-2.558
		c0.09,0.157,0.19,0.359,0.303,0.606l0.976-1.481l1.548,7.64l2.423,0.741L175.297,56.683z M135.516,68.025v-8.077l5.52,5.654
		l8.077-2.524l-4.409,6.798l4.543,6.361l-7.64-1.716l-4.409,6.664l-1.144-7.64c-2.828-0.763-5.509-1.324-8.044-1.683
		C130.928,70.246,133.429,68.967,135.516,68.025z M147.834,91.416v-0.034h0.118C147.894,91.384,147.854,91.395,147.834,91.416z
		 M148.238,90.944c-0.269-0.27-0.55-0.55-0.841-0.841c-1.324-1.324-2.457-2.221-3.399-2.693c10.187-4.532,20.945-7.695,32.276-9.49
		l-0.707,1.716l-0.976,0.707l0.572,0.135v0.135c-0.381-0.18-0.673-0.079-0.875,0.303c0.763,0.179,1.189,0.179,1.279,0v0.404
		l0.134-0.404l0.74,0.135c0-0.651,0.09-1.167,0.27-1.548l0.269-0.135l1.145,0.976l0.135-1.144l0.134,0.572v0.303l0.303-0.875
		l0.404,0.168l1.279,2.121v-0.303c0.202-1.503,0.112-2.49-0.269-2.961l0.134,0.135c0.292-0.472,0.572-0.853,0.841-1.145
		c6.148-0.741,12.43-1.111,18.847-1.111c1.122,0,2.21,0.045,3.265,0.135l-0.438,0.707l0.977-0.438l-0.135,0.168l1.582-0.168
		c0,0.292,0.045,0.438,0.135,0.438c0.089,0,0.224-0.236,0.403-0.707c0.111,0,0.257,0,0.438,0l-0.27,0.707
		c-0.292,0.381-0.482,0.617-0.571,0.707l0.841,0.135l-0.135,0.135c0.942,0.112,1.313,0.067,1.11-0.135H207v-0.27
		c0.562,0,0.662-0.101,0.303-0.303l-1.01-0.269l0.438-0.707c0.27,0,0.595,0.045,0.977,0.135c0.202,0.202,0.393,0.393,0.572,0.572
		c-0.18,0.089-0.27,0.28-0.27,0.572c-0.111,0.381-0.066,0.617,0.135,0.707c-0.292,0.471-0.292,0.796,0,0.976
		c0.292,0,0.673-0.371,1.145-1.111h0.842l-0.572-0.572l0.269-0.437c0.292-0.18,0.482-0.314,0.573-0.404l-0.135,1.246l-0.135-0.135
		c0,0.089,0,0.19,0,0.303c0,0.942,0.135,1.268,0.404,0.976l0.168-0.269l0.403,0.135v-1.414c0.089-0.471,0.135-0.808,0.135-1.009
		c0.382,0,0.763,0.056,1.145,0.168l-0.438,0.539l1.582-0.404v-0.135c0.18,0,0.371,0.045,0.572,0.135l-0.707,0.27l-0.168,0.134
		c-0.09,0.112-0.09,0.168,0,0.168c0.291,0.09,0.628,0.034,1.01-0.168l0.27-0.269l-0.27,0.707l0.572-0.438l0.27-0.404
		c31.995,3.119,59.84,16.525,83.533,40.218c27.283,27.171,40.924,60.02,40.924,98.544c0,5.474-0.279,10.803-0.84,15.986
		c-0.383,0.202-0.764,0.393-1.145,0.571l-0.977-1.278l-0.438,0.572l-1.549-1.01c0,0.853,0.326,1.515,0.977,1.985l-0.135,0.169h0.27
		l0.438,0.403l-0.27,0.135l1.549,0.303c0.291,0,0.438-0.044,0.438-0.135l0.707,0.27c-0.203,0.853-0.348,1.705-0.438,2.558
		c-0.18,0-0.326,0.045-0.438,0.135c-0.652,0.18-0.596,0.37,0.168,0.572c0.09,0,0.18,0.045,0.27,0.135
		c-2.648,18.219-8.695,35.069-18.141,50.551c-2.064,0.942-3.332,1.693-3.803,2.255c-0.471,0.381-0.281,0.426,0.572,0.134
		c0.74-0.179,1.49-0.505,2.254-0.976h0.135c-1.795,2.737-3.68,5.475-5.654,8.212v-0.134c-4.354,2.176-5.486,3.028-3.398,2.558
		c0.941-0.292,1.693-0.584,2.254-0.875c-4.15,5.385-8.727,10.579-13.73,15.582c-25.107,25.106-54.982,38.704-89.625,40.791
		c0.471-0.292,0.752-0.584,0.841-0.876c-0.269,0.203-0.448,0.259-0.538,0.169c-0.584,0.27-1.301,0.505-2.154,0.707
		c-2.355,0.089-4.756,0.134-7.202,0.134c-28.226,0-53.434-7.314-75.624-21.943c1.234-0.853,1.941-1.368,2.121-1.548
		c0.762-0.673,0.999-1.392,0.707-2.154c-1.122,0.763-1.918,1.336-2.39,1.717c-0.561,0.472-0.897,0.987-1.009,1.548
		c-2.154-1.413-4.274-2.916-6.361-4.509c-5.564-4.174-10.893-8.853-15.986-14.035c-27.283-27.283-40.925-60.176-40.925-98.678
		c0-4.151,0.19-8.257,0.572-12.318c0-0.202,0-0.348,0-0.438c0-0.561,0.045-1.077,0.135-1.548c0.179,0.27,0.415,0.55,0.707,0.841
		c0.471,0.292,1.279-0.09,2.423-1.144c0.179-0.18,0.505-0.314,0.976-0.404c0.292,0,0.572-0.045,0.841-0.135
		c-0.561,5.004-0.841,10.053-0.841,15.146c0,18.309,3.534,35.82,10.602,52.536c6.798,16.132,16.435,30.379,28.91,42.742
		c7.539,7.562,15.706,14.08,24.502,19.554l-0.168,0.135l0.303-0.135c5.744,3.479,11.779,6.586,18.106,9.323
		c2.266,0.942,4.532,1.839,6.799,2.692c-0.561,0.291-1.268,0.763-2.121,1.413c-0.853,0.674-1.75,1.055-2.692,1.145
		c0.202,1.615,1.054,1.806,2.558,0.572c1.324-1.032,2.177-2.03,2.558-2.996c0.561,0.203,1.223,0.449,1.985,0.741l-0.74,0.538
		c0.494,0.382,0.74,0.617,0.74,0.707c0.09,0-0.101,0.19-0.572,0.572c1.324,0,2.827,0.101,4.51,0.303
		c0.471,0,0.707-0.235,0.707-0.707c12.475,3.771,25.365,5.654,38.67,5.654c18.309,0,35.821-3.545,52.536-10.635
		c16.043-6.799,30.291-16.424,42.742-28.877c2.738-2.737,5.387-5.564,7.943-8.48c0,0.269,0,0.55,0,0.841l-0.438,0.438
		c0.471,0,1.088-0.527,1.852-1.581c0.561-0.854,0.941-1.796,1.145-2.828c0.941-1.233,1.84-2.411,2.691-3.533l1.953-0.707
		l-0.842-0.841c0.09-0.202,0.189-0.348,0.303-0.438c0-0.089,0.045-0.135,0.135-0.135c1.211-0.762,2.389-1.705,3.533-2.826
		c1.414-1.526,1.975-2.614,1.684-3.265l-1.684,0.841c4.061-6.417,7.596-13.159,10.602-20.227
		c4.354-10.209,7.383-20.743,9.088-31.603c0.471-0.18,0.896-0.595,1.277-1.245c-0.381-0.292-0.717-0.538-1.008-0.741
		c0.852-6.215,1.277-12.53,1.277-18.947c0-18.22-3.545-35.687-10.635-52.402c-6.775-16.042-16.4-30.29-28.877-42.742
		c-12.361-12.475-26.609-22.112-42.742-28.91c-14.92-6.327-30.402-9.816-46.444-10.467c0.472-0.292,0.796-0.528,0.976-0.707
		c0.09-0.09-0.145-0.134-0.707-0.134l-1.984,0.841c-1.504-0.09-2.963-0.135-4.376-0.135h-0.134c-0.112-0.09-0.213-0.236-0.303-0.438
		c-0.09,0.09-0.325,0.235-0.707,0.438c-0.27,0-0.55,0-0.841,0c0.179-0.673,0.74-1.246,1.683-1.716
		c0.202-0.09,1.481-0.606,3.837-1.548c-0.942,0.179-2.076,0.505-3.399,0.976c-2.176,0.763-3.354,1.525-3.534,2.289
		c-16.626,0.471-32.579,3.916-47.858,10.332L148.238,90.944z M146.824,91.819c-0.381-0.471-0.751-0.897-1.11-1.279
		c0.826,0.63,1.432,0.956,1.817,0.976C147.262,91.628,147.026,91.729,146.824,91.819z M136.929,91.685
		c-0.292-0.112-0.527-0.258-0.707-0.438c1.324-0.763,2.636-1.47,3.938-2.12l0.303,0.134c0.179,0.292,0.37,0.483,0.572,0.572
		c0.089-0.202,0.134-0.348,0.134-0.438h0.572c-0.09-0.269-0.191-0.549-0.303-0.841c0.292-0.179,0.673-0.325,1.145-0.438
		c0.942,0.942,1.413,1.56,1.413,1.851c0,0.381-0.751,0.381-2.255,0c0,0.18,0.281,0.37,0.842,0.572
		c0.381,0.09,0.471,0.224,0.269,0.404c-0.09,0.202-0.606,0.202-1.548,0c-0.651-0.18-0.74,0.112-0.269,0.875
		c0.179,0.27,0.785,0.875,1.817,1.817c-1.795,0.853-3.534,1.706-5.217,2.558h-0.135c-1.615-0.651-2.513-1.357-2.692-2.121
		c0.942-0.65,1.503-1.077,1.683-1.279c-0.763,1.414-0.527,2.121,0.707,2.121c0.673,0,1.616-0.135,2.827-0.404
		c-0.09-1.144-0.326-1.806-0.707-1.986C138.466,92.437,137.67,92.156,136.929,91.685z M138.612,100.873l-0.135-0.134
		c0-0.09,0.045-0.135,0.135-0.135V100.873z M135.348,95.925c0.381,0.27,0.673,0.595,0.875,0.976
		c-0.202,0.09-0.393,0.236-0.572,0.438C135.65,96.868,135.55,96.396,135.348,95.925z M202.76,53.99l2.625,0.808L208.01,55
		l0.135,0.572l-0.067,0.034l1.313,0.37c-0.18-0.135-0.359-0.269-0.539-0.404L208.145,55l0.842,0.135
		c-0.09,0.09,0.012,0.191,0.303,0.303h0.135l0.977,0.404c-0.18-0.269-0.314-0.504-0.404-0.707l1.414,0.135l-1.279,0.942l0.706,0.202
		l-7.37,3.13l0.135,3.063c0.763-0.09,1.334-0.168,1.717-0.236l0.571,2.39c-0.382-0.09-0.617-0.134-0.706-0.134
		c-0.293,0-0.482,0.146-0.572,0.438l-0.438-0.303l-0.135-1.414l-0.438-0.202l0.066,1.548l0.068,0.067h-0.068l0.102,2.692
		l-5.52-5.654l-7.371,3.096l3.399-7.068l-5.823-5.789l8.38,0.976l2.121-3.231l0.976-2.558c0.09,0.157,0.191,0.359,0.303,0.606
		l0.975-1.481L202.76,53.99z M222.448,69.001l3.399-7.067l-5.822-5.789l8.38,0.976l4.376-6.664l1.547,7.64l8.078,2.423l-7.371,3.13
		l0.303,7.909l-5.52-5.654L222.448,69.001z M190.172,55.135h1.246c-0.09,0.202-0.225,0.482-0.404,0.841L190.172,55.135z
		 M194.414,64.188l-0.135-0.134v-0.135L194.414,64.188z M204.88,60.52h-0.403l-0.168-0.134c0.201,0,0.347,0,0.437,0L204.88,60.52z
		 M205.452,65.77l-0.134-0.168c0.269,0.112,0.504,0.168,0.706,0.168l0.135,0.135L205.452,65.77z M206.293,66.746l0.135,0.707
		c-0.358-0.292-1.01-0.763-1.951-1.414l0.135-0.269l1.413,0.841C206.113,66.701,206.204,66.746,206.293,66.746z M209.289,76.372
		c0.359,0,0.729,0.045,1.111,0.135l-1.111,0.168V76.372z M208.279,77.079c0.09,0.089,0.236,0.19,0.438,0.302l-0.438,0.539V77.079z
		 M225.848,369.344l-3.399-7.102l7.202,3.13l5.688-5.654l-0.438,7.774l7.506,3.097l-8.078,2.423l-1.547,7.774l-4.241-6.495
		l-8.515,0.841L225.848,369.344z M188.591,375.974l6.664-4.51l-1.851-7.64l6.529,4.375l6.495-4.375l-1.816,7.505l6.799,4.645
		l-8.381,0.706l-3.097,7.371l-2.827-7.371L188.591,375.974z M353.705,241.486l5.789-5.823l-0.977,8.347l6.664,4.409l-7.809,1.548
		c-0.941,3.59-1.738,6.282-2.389,8.077c-0.584-1.705-1.627-4.161-3.131-7.37l-7.773,0.27l5.52-5.521l-2.996-7.202L353.705,241.486z
		 M368.412,215.571c-2.064,1.032-4.51,2.02-7.336,2.961l-0.707,8.481l-4.543-6.63l-7.641,1.683c0.65-0.74,2.109-2.861,4.375-6.36
		v-0.135l-4.375-6.529l7.506,1.985l4.678-6.799l0.707,8.347L368.412,215.571z M349.734,185.819l-5.654-5.52l7.773,0.303l3.131-7.505
		l2.389,8.212l7.809,1.413l-6.664,4.376l0.977,8.346l-5.789-5.653l-7.102,3.265L349.734,185.819z M340.949,157.212l-6.496-4.375
		l7.641-1.145l1.684-7.909c2.266,4.331,3.545,6.776,3.836,7.338h7.908l-5.52,5.553l2.559,8.044l-6.799-4.376l-6.361,4.544
		L340.949,157.212z M339.975,121.975l-4.41,6.664l4.105,7.337c-2.826-1.212-5.328-2.199-7.504-2.962l-5.385,5.654l0.168-7.774
		l-7.371-2.962l7.371-2.692v-8.212l5.217,6.63L339.975,121.975z M305.275,94.209l6.359,5.385l7.371-3.096l-2.961,7.337l5.385,6.529
		l-7.943-1.548l-4.105,6.63l-1.414-7.64l-0.135-0.135l-7.674-1.414l6.664-4.105L305.275,94.209z M290.398,88.689l-2.691,7.371
		l-2.963-7.371l-7.942,0.135l5.823-5.217l-2.996-7.64l7.236,4.106l6.664-4.543l-1.582,7.774l6.529,5.385
		C295.828,88.6,293.137,88.6,290.398,88.689z M255.297,69.876l-4.544-6.798l8.077,2.524l5.654-5.654l-0.135,7.942
		c3.41,1.683,5.912,3.007,7.505,3.972l-7.942,1.548l-1.246,7.774c-1.143-2.064-2.568-4.229-4.273-6.496l-7.774,1.548L255.297,69.876
		z M288.986,338.616c-0.27,0.089-0.596-0.012-0.977-0.304c-0.203,0-0.438,0.337-0.707,1.01c0.27-1.145,0.078-1.245-0.572-0.303
		c-0.09-0.09-0.236-0.18-0.438-0.27l1.414-3.533L288.986,338.616z M285.586,341.443c0.943-0.674,1.885-0.909,2.826-0.707v-1.145
		c0.113-0.18,0.404-0.325,0.877-0.438l1.109,3.398h8.078l-6.529,5.251l1.582,7.808L287,351.203l-7.371,4.105
		c1.437-3.298,2.434-5.8,2.996-7.505l-5.823-5.385l7.942,0.134l0.842-1.816C285.586,340.916,285.586,341.151,285.586,341.443z
		 M340.949,274.03l-1.549-7.774l6.227,4.679c1.594-0.942,3.904-2.457,6.934-4.544l-2.559,8.078l5.52,5.653l-7.773-0.134
		l-3.971,7.505l-1.549-7.943c-2.646-0.27-5.238-0.695-7.775-1.278C337.08,276.679,339.244,275.265,340.949,274.03z M258.258,356.588
		c2.087-2.827,3.557-5.004,4.408-6.529l1.246,7.674l7.942,1.683c-3.858,1.974-6.36,3.253-7.505,3.836l0.135,8.078l-5.52-5.688
		l-8.212,2.558l4.544-6.799l-4.679-6.36L258.258,356.588z M326.949,293.719c-0.113-0.381-0.168-0.762-0.168-1.145l5.25,5.688
		l6.092-2.288l0.135,0.302c0.09,0.27,0.09,0.551,0,0.842c0.09,0.09,0.234,0.135,0.438,0.135l-3.131,5.385l4.41,6.529l-7.674-1.581
		l-5.352,6.528v-8.077l-7.371-2.692c2.445-0.853,4.846-1.84,7.203-2.962c0.201-2.176,0.258-4.353,0.168-6.529l0.135-0.135H326.949z
		 M338.83,295.705l0.84-0.438l-0.27,0.707L338.83,295.705z M313.352,322.461l8.078-1.548c-1.145,1.503-2.939,3.669-5.385,6.495
		l2.961,7.236l-7.236-2.962l-6.494,5.352l1.547-7.909l-6.664-4.106l7.674-1.413v-0.135l1.549-7.674L313.352,322.461z
		 M107.043,116.018v0.135c-0.292,0.112-0.527,0.213-0.707,0.303C106.516,116.253,106.752,116.108,107.043,116.018z M93.312,125.778
		c2.356-2.827,4.902-5.609,7.64-8.347c0.292,0.292,0.763,0.673,1.414,1.145l1.414,0.841h-0.404c0.65,0.763,0.549,1.515-0.303,2.255
		c-0.74,0.673-1.167,1.29-1.279,1.851c-0.359,0.09-0.64,0.235-0.841,0.438c0.09,0.09,0.191,0.18,0.303,0.269
		c-0.583,0.561-1.156,1.133-1.716,1.716c-0.09-0.673-1.032-0.964-2.827-0.875C95.006,125.183,93.873,125.419,93.312,125.778z
		 M97.283,128.336l-0.707-0.135c0,0.179,0.089,0.415,0.269,0.707c-0.269,0-0.46,0-0.572,0c-0.471-0.09-0.415-0.561,0.168-1.414
		c0.179,0.18,0.55,0.326,1.11,0.438C97.462,128.201,97.373,128.336,97.283,128.336z M104.485,120.831
		c-0.089,0-0.18,0.101-0.269,0.303c0.089-0.381,0.18-0.718,0.269-1.01c0,0.09,0,0.191,0,0.303
		C104.485,120.517,104.485,120.651,104.485,120.831z M93.75,126.485c0.269,0.202,0.404,1.099,0.404,2.692l0.303-0.404
		c0.09,0.179,0.751,0.46,1.986,0.841C91.797,135,87.68,140.755,84.09,146.88c-0.18-0.18-0.359-0.27-0.539-0.27l0.135,0.977
		c-2.939,5.003-5.542,10.197-7.808,15.582c-0.359,0.942-0.729,1.885-1.111,2.827c-0.09-1.323-0.796-1.694-2.121-1.11
		c-0.942,0.359-1.233,0.92-0.875,1.683c0.381,0.561,0.909,0.987,1.582,1.279l0.135-0.438c0.09,0.471,0.179,0.897,0.27,1.278
		c-0.27,0.764-0.55,1.47-0.842,2.121c-0.853,0.763-1.514,1.469-1.986,2.12c-0.561,1.323-1.122,2.277-1.683,2.86
		c-1.324,0.562-2.132,1.077-2.423,1.548c-0.561,0.651-0.325,1.313,0.707,1.986c0.089,0,0.191,0.045,0.303,0.134l0.269,0.707
		c-0.089,0-0.179,0.045-0.269,0.135c-1.144,0.673-1.851,1.01-2.12,1.01c0.83,0.942,0.875,1.313,0.135,1.11
		c-0.763-0.381-1.279-0.617-1.548-0.707c4.891-20.395,14.371-38.849,28.439-55.363c-0.18,0.942,0.056,1.56,0.707,1.851
		C93.738,128.38,93.839,127.808,93.75,126.485z M69.248,178.18c-0.381,0.09-0.482,0-0.303-0.27c0.202,0.09,0.393,0.225,0.572,0.404
		c0.09,0.09,0.371,0.37,0.842,0.841c-0.09,0.292-0.18,0.584-0.27,0.875l-0.269,0.135c-0.381-0.292-0.853-0.336-1.414-0.135
		l0.404-0.438c0.673,0.382,1.01,0.382,1.01,0C69.82,179.414,69.629,178.942,69.248,178.18z M49.997,156.809l-5.688-5.688
		l7.942,0.168l3.971-7.506l1.548,7.909l7.774,1.145l-6.63,4.375l1.683,7.674l-6.361-4.544l-6.798,4.376L49.997,156.809z
		 M64.436,128.639l-4.543-6.664l7.774,1.683l5.385-6.63c-0.09,2.827-0.09,5.508,0,8.044l7.371,2.86l-7.371,2.827v7.909l-5.217-5.654
		c-2.176,0.763-4.678,1.75-7.505,2.962L64.436,128.639z M67.969,178.752c0-0.292,0.045-0.527,0.134-0.707
		c0.202,0.09,0.583,0.325,1.145,0.707H67.969z M70.089,180.165c-0.65,2.177-1.211,4.443-1.683,6.799
		c-1.234,0.853-1.425,1.368-0.572,1.548c0.09,0,0.135,0.045,0.135,0.135c-0.561,2.558-0.987,5.205-1.279,7.942l-2.121-0.438
		c0,0.202-0.09,0.584-0.269,1.145c-0.202,0.292-0.539,0.247-1.01-0.135c-0.18-0.202-0.09-0.393,0.269-0.572
		c0.494-0.292,0.741-0.526,0.741-0.706c0.561-3.59,0.135-4.532-1.279-2.827c-0.202-0.472-0.202-0.942,0-1.414
		c0.471,0.09,0.796,0.09,0.976,0c0.202,0,0.056-0.19-0.438-0.572h-0.269l0.572-0.303c0.179-0.179,0.079-0.313-0.303-0.403
		c-0.089-0.292-0.179-0.482-0.269-0.572c-0.18,0.561-0.37,0.471-0.572-0.27c0-0.202,0-0.348,0-0.438
		c0.202-0.292,0.539-0.438,1.01-0.438c0.27-0.09,0.124-0.46-0.438-1.11l-0.134-0.135c0-0.292,0.044-0.583,0.134-0.875
		c1.032,0.292,2.446-0.842,4.241-3.399C67.823,182.655,68.676,181.669,70.089,180.165z M55.651,180.603
		c-0.763,0.359-1.806,1.257-3.13,2.692c0.112,0,0.213,0,0.303,0c-0.471,0.472-0.942,0.942-1.414,1.414
		c-0.583,0.09-1.291,0.46-2.12,1.11c0.09,0,0.459,0.101,1.11,0.303l2.996,6.934l-7.102-3.265l-5.789,5.653l0.841-8.346l-6.529-4.376
		l7.673-1.413l2.39-8.212l3.13,7.505l7.909-0.303C55.831,180.39,55.741,180.491,55.651,180.603z M63.998,195.444
		c-0.18,0.202-0.371,0.259-0.572,0.169c-0.269-0.202-0.505-0.348-0.707-0.438c-0.269-0.202-0.505,0.033-0.707,0.707
		c0,0.381-0.09,0.897-0.269,1.548c-0.09,0.202-0.191,0.393-0.303,0.572c0.202-1.504,0.393-3.018,0.572-4.544
		c0.202,0.112,0.348,0.259,0.438,0.438c0.179,0.292,0.505,0.382,0.976,0.27C64.48,194.166,64.671,194.592,63.998,195.444z
		 M42.626,208.638c-0.673,0.359-1.144,0.685-1.414,0.976c-0.853,0.651-1.234,1.403-1.144,2.256c1.615-0.853,2.704-1.649,3.265-2.39
		l0.841,1.413h0.303c-0.202,0.472-0.583,0.662-1.144,0.572c1.122,0.562,1.873,0.752,2.255,0.572
		c0.202-0.201,0.438-0.729,0.707-1.582l5.52-1.413l-4.375,6.529c1.884,3.007,3.343,5.172,4.375,6.495l-7.64-1.817l-4.543,6.765
		l-0.707-8.347l-7.337-3.096l7.337-2.827l0.707-8.516L42.626,208.638z M73.051,292.574v7.809l7.371,2.962l-7.371,2.692
		c-0.09,2.737-0.09,5.43,0,8.077l-5.385-6.528l-7.774,1.581l4.543-6.529l-4.106-7.37c1.683,0.673,4.185,1.671,7.505,2.995
		L73.051,292.574z M54.238,270.935l6.361-4.679c-0.18,0.562-0.741,3.153-1.683,7.774c1.503,0.943,3.713,2.356,6.63,4.241
		l-7.774,1.278l-1.548,7.943l-3.971-7.505l-7.942,0.134c1.997-2.176,3.893-4.017,5.688-5.519l-2.558-8.213L54.238,270.935z
		 M40.506,235.663l5.654,5.823l7.236-3.266l-3.13,7.068l5.654,5.654l-7.774-0.404l-3.265,7.505l-2.255-8.077l-7.808-1.548
		l6.529-4.24L40.506,235.663z M111.991,337.741l0.303-0.27c0,0.382,0,0.853,0,1.413c0.179,2.559,0.695,3.22,1.548,1.985
		c0.179-0.179,0.325-0.37,0.438-0.571l0.841,2.12c2.737,0.202,5.374,0.202,7.909,0l-5.654,5.25l2.996,7.64L113,351.203l-6.664,4.408
		l1.683-7.673l-6.63-5.386c1.122,0.113,2.21,0.169,3.265,0.169c0.269,0,0.595,0,0.976,0c1.234,0,2.513-0.056,3.836-0.169
		l1.414-3.803c0.089,0,0.224,0.045,0.404,0.135c-0.09-0.382-0.135-0.661-0.135-0.841l0.572-1.279
		C111.722,337.146,111.811,337.472,111.991,337.741z M137.199,350.059l4.409,6.529l7.64-1.548l-4.543,6.227l4.409,6.933
		l-7.943-2.558l-5.654,5.688l0.134-7.943l-7.64-3.971l7.909-1.549L137.199,350.059z M92.033,323.471l7.774,1.548l-6.63,3.972
		c0.561,3.567,1.077,6.249,1.548,8.044c-1.503-1.122-3.68-2.906-6.529-5.352l-7.337,2.962l3.096-7.236
		c-2.445-2.826-4.241-4.992-5.385-6.495l7.942,1.548l4.106-6.664L92.033,323.471z M112.294,335.217l0.134,0.269h-0.303
		L112.294,335.217z M159.983,344.539c-0.09-0.09-0.179-0.18-0.269-0.269c0.09,0,0.235,0.044,0.438,0.134
		C160.04,344.404,159.983,344.449,159.983,344.539z M164.965,367.492l-0.303-7.774c2.266,2.536,4.106,4.42,5.52,5.654l7.236-3.13
		l-3.265,7.102l5.654,5.788l-8.347-0.976l-4.375,6.63l-1.414-7.774c-3.882-1.032-6.619-1.84-8.212-2.423
		C159.434,369.938,161.936,368.906,164.965,367.492z"/>
	<path fill-rule="evenodd" clip-rule="evenodd" fill="#FCB24D" d="M184.317,107.167c0.067,0.494,0.437,0.875,1.11,1.144
		c0.673,0.247,1.436,0.314,2.289,0.202l0.774-0.101c0.022,0,0.067,0,0.135,0c0.022-0.022,0.056-0.034,0.101-0.034h0.067
		c0.016-0.016,0.033-0.027,0.05-0.034h0.017l0.707-0.067c0.897-0.134,1.626-0.415,2.188-0.841c0.583-0.449,0.83-0.909,0.741-1.38
		l-4.779-8.986c2.378-0.247,4.79-0.438,7.236-0.572l3.534,9.39c0,0.472,0.303,0.886,0.909,1.246c0.65,0.359,1.402,0.527,2.255,0.505
		h0.773c0.045,0,0.112,0,0.202,0h0.034c0.022,0,0.067,0,0.135,0h0.739c0.898-0.023,1.65-0.202,2.256-0.539
		c0.628-0.359,0.941-0.786,0.941-1.279l-3.566-9.457c2.535,0.022,5.059,0.135,7.572,0.337l2.254,9.76
		c-0.09,0.494,0.158,0.954,0.742,1.38c0.561,0.426,1.289,0.696,2.188,0.808l0.706,0.101c0.045,0,0.078,0.011,0.101,0.034h0.034
		c0.067,0,0.146,0.011,0.235,0.034h0.033l0.741,0.101c0.853,0.112,1.626,0.034,2.321-0.236c0.65-0.269,1.01-0.65,1.078-1.144
		l-2.289-9.928c2.49,0.359,4.958,0.808,7.404,1.346l0.908,10.029c-0.135,0.471,0.068,0.964,0.605,1.48
		c0.494,0.494,1.168,0.864,2.02,1.111l0.674,0.168c0.135,0.022,0.28,0.056,0.438,0.101l0.707,0.202
		c0.852,0.225,1.626,0.247,2.322,0.067c0.673-0.18,1.076-0.516,1.211-1.01l-0.908-10.164c1.885,0.539,3.77,1.145,5.654,1.817
		l-0.304,10.097c-0.179,0.449-0.044,0.954,0.404,1.515c0.472,0.561,1.11,1.01,1.918,1.346l0.673,0.269
		c0.046,0.022,0.078,0.045,0.102,0.067c0.022,0,0.045,0.011,0.067,0.034h0.101c0.023,0,0.057,0.011,0.102,0.034l0.672,0.303
		c0.831,0.314,1.594,0.426,2.289,0.337c0.719-0.09,1.167-0.37,1.347-0.842l0.27-10.197c2.356,0.987,4.655,2.042,6.899,3.164
		l-1.615,9.996c-0.248,0.427-0.18,0.954,0.201,1.582c0.359,0.628,0.92,1.144,1.684,1.548l0.639,0.403
		c0.135,0.067,0.27,0.135,0.404,0.202l0.336,0.202c0.045,0,0.079,0.011,0.102,0.034c0.045,0.044,0.09,0.078,0.135,0.101
		c0.785,0.426,1.537,0.64,2.254,0.64c0.695,0.022,1.178-0.18,1.447-0.606l1.65-10.164c2.152,1.279,4.262,2.625,6.326,4.039
		l-2.961,9.727c-0.292,0.381-0.303,0.909-0.034,1.582c0.313,0.673,0.819,1.268,1.515,1.784l0.639,0.505
		c0.046,0.022,0.102,0.056,0.169,0.101c0.022,0.022,0.046,0.045,0.067,0.067l0.605,0.472c0.719,0.538,1.425,0.853,2.121,0.942
		c0.695,0.089,1.2-0.057,1.514-0.438l2.996-9.861c1.885,1.503,3.725,3.063,5.52,4.678l-4.174,9.255
		c-0.358,0.358-0.438,0.875-0.235,1.548c0.179,0.695,0.595,1.357,1.245,1.985l0.506,0.505c0.089,0.112,0.178,0.202,0.268,0.27
		l0.539,0.539c0.629,0.605,1.29,1.01,1.986,1.211c0.695,0.202,1.223,0.124,1.582-0.235l4.207-9.39
		c1.795,1.817,3.512,3.68,5.148,5.587l-5.418,8.683c-0.404,0.292-0.551,0.797-0.438,1.515c0.09,0.695,0.414,1.392,0.975,2.087
		l0.439,0.605c0.021,0,0.043,0.011,0.066,0.034c0.045,0.089,0.102,0.179,0.168,0.269l0.471,0.572
		c0.539,0.695,1.145,1.189,1.818,1.48c0.65,0.27,1.166,0.259,1.547-0.033l5.521-8.784c1.48,2.02,2.904,4.072,4.273,6.159
		l-6.563,7.909c-0.428,0.246-0.641,0.729-0.641,1.447c0,0.74,0.225,1.48,0.674,2.221l0.371,0.64c0,0.022,0.01,0.045,0.033,0.067
		c0.021,0.045,0.055,0.09,0.1,0.135l0.035,0.101c0,0.022,0.01,0.034,0.033,0.034l0.369,0.673c0.428,0.74,0.953,1.301,1.582,1.683
		c0.629,0.359,1.156,0.415,1.582,0.168l6.631-8.043c0.965,1.728,1.885,3.5,2.76,5.317l-7.473,7.102
		c-0.449,0.201-0.717,0.65-0.807,1.346c-0.09,0.718,0.045,1.48,0.404,2.289l0.268,0.673c0.068,0.135,0.125,0.258,0.17,0.37
		l0.303,0.673c0.357,0.808,0.818,1.437,1.379,1.885c0.563,0.427,1.066,0.55,1.516,0.37l7.605-7.235
		c0.965,2.378,1.852,4.768,2.658,7.168l-8.447,6.059c-0.471,0.135-0.795,0.55-0.977,1.245c-0.156,0.695-0.123,1.458,0.102,2.288
		l0.201,0.741c0.023,0.067,0.057,0.146,0.102,0.235v0.033c0,0.022,0.012,0.045,0.033,0.067v0.034l0.17,0.706
		c0.246,0.854,0.615,1.537,1.109,2.054c0.516,0.516,1.01,0.707,1.48,0.572l8.516-6.159c0.629,2.423,1.178,4.88,1.648,7.37
		l-9.154,4.881c-0.492,0.089-0.875,0.459-1.143,1.11c-0.248,0.65-0.314,1.425-0.203,2.322l0.102,0.64v0.067
		c0,0.134,0.012,0.269,0.033,0.403l0.102,0.74c0.135,0.875,0.414,1.594,0.842,2.154c0.426,0.583,0.885,0.841,1.379,0.774
		l9.289-4.948c0.246,2.4,0.438,4.813,0.572,7.236l-9.693,3.669c-0.494,0-0.908,0.313-1.244,0.942
		c-0.359,0.628-0.527,1.38-0.506,2.255v0.739c0,0.046,0,0.079,0,0.102v0.135c0,0.045,0,0.09,0,0.135v0.773
		c0,0.853,0.168,1.604,0.506,2.256c0.359,0.605,0.785,0.908,1.277,0.908l9.828-3.669c-0.045,2.558-0.168,5.094-0.371,7.606
		l-10.096,2.322c-0.494-0.067-0.941,0.19-1.346,0.774c-0.449,0.583-0.73,1.302-0.842,2.154l-0.102,0.74c0,0.044,0,0.09,0,0.135
		c-0.021,0.066-0.033,0.135-0.033,0.201l-0.033,0.067l-0.068,0.707c-0.111,0.875-0.033,1.648,0.236,2.322
		c0.27,0.65,0.65,1.021,1.145,1.11l10.23-2.389c-0.357,2.49-0.807,4.969-1.346,7.438l-10.365,0.976
		c-0.471-0.135-0.953,0.057-1.447,0.572c-0.516,0.516-0.887,1.2-1.111,2.053l-0.201,0.707c-0.023,0.112-0.045,0.225-0.068,0.337
		l-0.201,0.74c-0.225,0.853-0.258,1.627-0.102,2.322c0.203,0.695,0.539,1.11,1.01,1.245l10.467-0.977
		c-0.561,1.908-1.166,3.804-1.816,5.688l-10.367-0.27c-0.471-0.202-0.975-0.067-1.514,0.404c-0.584,0.448-1.031,1.076-1.346,1.885
		l-0.27,0.706c-0.068,0.112-0.113,0.225-0.135,0.337l-0.303,0.707c-0.338,0.785-0.461,1.537-0.371,2.255
		c0.113,0.718,0.393,1.167,0.842,1.346l10.467,0.304c-1.01,2.333-2.076,4.644-3.197,6.933l-10.197-1.683
		c-0.449-0.247-0.977-0.18-1.582,0.201c-0.629,0.383-1.156,0.943-1.582,1.684l-0.369,0.673c-0.068,0.112-0.125,0.224-0.17,0.336
		l-0.033,0.034l-0.371,0.605c-0.402,0.763-0.605,1.504-0.605,2.222c0,0.719,0.203,1.2,0.605,1.447l10.334,1.649
		c-1.303,2.176-2.67,4.296-4.107,6.36l-9.859-2.961c-0.383-0.314-0.91-0.326-1.584-0.034c-0.65,0.291-1.232,0.785-1.748,1.48
		l-0.473,0.64c-0.066,0.067-0.111,0.124-0.135,0.168c-0.045,0.046-0.066,0.079-0.066,0.102l-0.471,0.572
		c-0.518,0.718-0.83,1.425-0.943,2.12c-0.09,0.718,0.057,1.223,0.438,1.515l9.93,3.029c-1.504,1.884-3.074,3.724-4.713,5.52
		l-9.289-4.207c-0.358-0.359-0.886-0.427-1.581-0.203c-0.696,0.181-1.358,0.573-1.985,1.179l-0.506,0.539
		c0,0.022-0.011,0.056-0.033,0.101c-0.021,0-0.045,0.011-0.067,0.033l-0.034,0.034c-0.045,0.045-0.089,0.09-0.135,0.134
		l-0.504,0.539c-0.629,0.605-1.032,1.257-1.212,1.952c-0.202,0.695-0.124,1.211,0.235,1.548l9.357,4.274
		c-1.841,1.75-3.715,3.455-5.621,5.115l-8.616-5.418c-0.314-0.382-0.819-0.517-1.515-0.403c-0.695,0.089-1.402,0.403-2.12,0.941
		l-0.606,0.472c-0.066,0.045-0.135,0.101-0.201,0.168c-0.045,0.022-0.079,0.045-0.102,0.067l-0.572,0.438
		c-0.695,0.538-1.178,1.133-1.447,1.784c-0.291,0.65-0.279,1.178,0.035,1.581l8.716,5.452c-2.02,1.481-4.083,2.906-6.192,4.274
		l-7.842-6.495c-0.247-0.427-0.718-0.628-1.413-0.605c-0.741,0-1.481,0.213-2.222,0.639l-0.539,0.337h-0.033l-0.033,0.034
		c-0.023,0-0.033,0.011-0.033,0.033h-0.035v0.033c-0.134,0.022-0.246,0.067-0.336,0.135l-0.639,0.404
		c-0.764,0.426-1.324,0.942-1.684,1.548c-0.358,0.628-0.415,1.155-0.168,1.582l7.875,6.529c-1.75,0.942-3.512,1.862-5.283,2.76
		l-6.967-7.371c-0.203-0.449-0.65-0.707-1.346-0.773c-0.719-0.09-1.481,0.033-2.289,0.37l-0.707,0.303
		c-0.135,0.045-0.258,0.111-0.37,0.202l-0.673,0.235c-0.809,0.358-1.426,0.818-1.852,1.38c-0.426,0.561-0.55,1.065-0.371,1.514
		l7.035,7.438c-2.356,0.942-4.724,1.806-7.102,2.592l-5.924-8.179c-0.135-0.493-0.55-0.819-1.245-0.976
		c-0.695-0.18-1.47-0.146-2.321,0.101l-0.707,0.202c-0.09,0.021-0.169,0.045-0.236,0.067h-0.066v0.033l-0.809,0.202
		c-0.852,0.224-1.525,0.595-2.02,1.11c-0.516,0.494-0.706,0.977-0.572,1.447l5.991,8.28c-2.445,0.627-4.902,1.166-7.37,1.614
		l-4.713-8.885c-0.09-0.493-0.459-0.864-1.109-1.11c-0.674-0.292-1.447-0.37-2.322-0.236l-0.641,0.102c-0.044,0-0.078,0-0.101,0
		c-0.134,0-0.258,0.011-0.37,0.033l-0.74,0.135c-0.853,0.112-1.57,0.382-2.154,0.809c-0.584,0.448-0.842,0.919-0.773,1.413
		l4.813,8.952c-2.4,0.27-4.813,0.46-7.236,0.572l-3.533-9.356c0-0.516-0.314-0.941-0.943-1.278
		c-0.628-0.359-1.391-0.539-2.288-0.539l-0.741,0.034c-0.022,0-0.045,0-0.067,0c-0.112,0-0.213,0-0.303,0h-0.74
		c-0.875,0-1.627,0.18-2.255,0.538c-0.628,0.359-0.942,0.786-0.942,1.278l3.601,9.491c-2.535-0.045-5.06-0.168-7.572-0.369
		l-2.255-9.795c0.045-0.471-0.225-0.931-0.808-1.38c-0.561-0.426-1.268-0.695-2.121-0.808l-0.774-0.067
		c-0.112-0.022-0.235-0.044-0.37-0.066l-0.741-0.102c-0.875-0.112-1.638-0.033-2.289,0.235c-0.673,0.292-1.043,0.673-1.11,1.145
		l2.322,9.929c-2.513-0.382-4.981-0.819-7.404-1.313l-0.942-10.063c0.135-0.471-0.067-0.965-0.606-1.48
		c-0.494-0.494-1.167-0.853-2.019-1.077l-0.741-0.202c-0.112-0.045-0.224-0.078-0.336-0.101l-0.74-0.202
		c-0.853-0.225-1.627-0.247-2.322-0.067c-0.673,0.18-1.077,0.505-1.211,0.977l0.976,10.163c-1.93-0.538-3.825-1.133-5.688-1.783
		l0.269-10.097c0.18-0.472,0.045-0.976-0.404-1.515c-0.449-0.562-1.088-1.01-1.918-1.346l-0.707-0.304
		c-0.067-0.021-0.124-0.033-0.168-0.033c0-0.022-0.011-0.034-0.034-0.034c-0.045-0.022-0.09-0.045-0.135-0.067l-0.707-0.235
		c-0.808-0.336-1.56-0.46-2.255-0.37c-0.696,0.09-1.145,0.37-1.346,0.841l-0.27,10.198c-2.356-0.987-4.645-2.053-6.866-3.197
		l1.582-9.962c0.247-0.427,0.191-0.954-0.168-1.582c-0.381-0.605-0.954-1.133-1.716-1.582l-0.539-0.27
		c-0.135-0.111-0.28-0.201-0.438-0.269l-0.673-0.37c-0.741-0.427-1.47-0.64-2.188-0.64c-0.718,0-1.212,0.213-1.481,0.64
		l-1.582,10.13c-2.176-1.278-4.297-2.625-6.361-4.038l2.928-9.727c0.314-0.403,0.326-0.931,0.034-1.582
		c-0.292-0.65-0.785-1.245-1.481-1.783l-0.606-0.438c-0.09-0.066-0.168-0.123-0.236-0.168c-0.022-0.022-0.045-0.045-0.067-0.067
		l-0.605-0.438c-0.695-0.538-1.391-0.864-2.087-0.976c-0.718-0.09-1.234,0.067-1.548,0.471l-2.962,9.861
		c-1.907-1.503-3.758-3.063-5.553-4.679l4.207-9.288c0.359-0.359,0.426-0.887,0.202-1.582c-0.18-0.673-0.595-1.323-1.246-1.952
		l-0.471-0.472c-0.09-0.089-0.191-0.201-0.303-0.336l-0.538-0.505c-0.628-0.605-1.279-1.01-1.952-1.212
		c-0.696-0.201-1.223-0.123-1.582,0.235l-4.241,9.424c-1.772-1.839-3.478-3.713-5.115-5.62l5.418-8.684
		c0.381-0.291,0.516-0.796,0.404-1.515c-0.09-0.695-0.404-1.401-0.942-2.119l-0.471-0.573c-0.067-0.111-0.146-0.213-0.236-0.302
		l-0.471-0.606c-0.539-0.695-1.133-1.178-1.784-1.447c-0.673-0.27-1.189-0.258-1.548,0.034l-5.486,8.817
		c-1.503-1.997-2.939-4.05-4.308-6.159l6.563-7.942c0.426-0.247,0.628-0.729,0.606-1.447c-0.023-0.719-0.247-1.458-0.673-2.222
		l-0.371-0.639c-0.022-0.022-0.033-0.046-0.033-0.068c-0.043-0.043-0.066-0.088-0.067-0.135v-0.033
		c-0.045-0.045-0.079-0.078-0.101-0.101l-0.37-0.64c-0.426-0.763-0.954-1.335-1.582-1.716c-0.606-0.359-1.122-0.416-1.548-0.169
		l-6.664,8.078c-0.964-1.751-1.884-3.523-2.76-5.318l7.505-7.102c0.449-0.201,0.707-0.661,0.774-1.379
		c0.067-0.696-0.067-1.459-0.404-2.289l-0.269-0.64c-0.067-0.112-0.124-0.247-0.168-0.403l-0.269-0.674
		c-0.359-0.808-0.819-1.425-1.38-1.851c-0.583-0.449-1.1-0.572-1.548-0.37l-7.606,7.201c-0.942-2.378-1.806-4.768-2.591-7.168
		l8.38-6.058c0.471-0.112,0.785-0.527,0.942-1.246c0.179-0.695,0.157-1.469-0.067-2.321l-0.202-0.707
		c0-0.022-0.011-0.057-0.033-0.101l-0.034-0.102c0-0.022,0-0.045,0-0.067c-0.022-0.022-0.033-0.057-0.033-0.101l-0.202-0.707
		c-0.248-0.853-0.628-1.537-1.145-2.053c-0.494-0.494-0.976-0.673-1.447-0.538l-8.515,6.125c-0.606-2.446-1.145-4.892-1.616-7.338
		l9.154-4.913c0.471-0.067,0.841-0.438,1.11-1.11c0.27-0.673,0.348-1.447,0.236-2.322l-0.101-0.64l-0.033-0.102
		c0-0.022,0-0.044,0-0.066v-0.018c0-0.042,0-0.081,0-0.117c0-0.022,0-0.045,0-0.067l-0.034-0.067v-0.034l-0.101-0.74
		c-0.135-0.875-0.415-1.593-0.842-2.153c-0.426-0.583-0.886-0.842-1.379-0.774l-9.222,4.981c-0.292-2.401-0.505-4.824-0.64-7.27
		l9.693-3.669c0.494,0,0.92-0.314,1.279-0.942s0.527-1.38,0.505-2.255v-0.74c0-0.067,0-0.135,0-0.202c0-0.045,0-0.112,0-0.202v-0.74
		c0-0.875-0.18-1.615-0.539-2.221c-0.359-0.651-0.785-0.965-1.279-0.943l-9.794,3.702c0.022-2.558,0.135-5.093,0.337-7.605
		l10.097-2.356c0.493,0.067,0.953-0.19,1.379-0.773c0.426-0.584,0.696-1.313,0.808-2.188l0.101-0.74
		c0.022-0.135,0.044-0.28,0.067-0.438l0.067-0.673c0.112-0.853,0.044-1.615-0.202-2.289c-0.292-0.673-0.685-1.031-1.178-1.076
		l-10.197,2.355c0.359-2.49,0.808-4.97,1.346-7.438l10.332-0.942c0.494,0.112,0.976-0.09,1.447-0.605
		c0.516-0.517,0.886-1.189,1.11-2.02l0.202-0.741c0.045-0.134,0.067-0.258,0.067-0.37l0.202-0.74
		c0.224-0.83,0.258-1.593,0.101-2.288c-0.202-0.696-0.527-1.111-0.976-1.245l-10.467,1.01c0.539-1.907,1.145-3.815,1.817-5.722
		l10.366,0.269c0.471,0.202,0.976,0.079,1.514-0.37c0.561-0.448,0.999-1.088,1.313-1.918l0.27-0.707
		c0.067-0.112,0.124-0.225,0.168-0.337l0.269-0.706c0.314-0.83,0.438-1.593,0.37-2.289c-0.09-0.718-0.37-1.166-0.841-1.346
		l-10.467-0.27c1.032-2.333,2.12-4.634,3.265-6.899l10.164,1.649c0.427,0.246,0.954,0.179,1.582-0.202
		c0.605-0.382,1.122-0.954,1.548-1.717l0.505-0.841c0.021-0.087,0.066-0.154,0.134-0.202v-0.067l0.269-0.505
		c0.427-0.763,0.64-1.503,0.64-2.221c0.022-0.719-0.179-1.201-0.605-1.448l-10.265-1.683c1.279-2.153,2.636-4.263,4.072-6.327
		l9.828,2.996c0.404,0.291,0.931,0.291,1.582,0c0.628-0.292,1.223-0.785,1.784-1.481l0.438-0.572
		c0.056-0.066,0.112-0.134,0.168-0.202l0.505-0.706c0.539-0.696,0.853-1.402,0.942-2.121c0.112-0.718-0.034-1.223-0.438-1.514
		l-9.895-2.995c1.48-1.886,3.04-3.736,4.678-5.554l9.289,4.207c0.359,0.359,0.886,0.438,1.582,0.235
		c0.696-0.202,1.346-0.617,1.952-1.245l0.539-0.538c0.045-0.045,0.079-0.067,0.101-0.067c0.067-0.09,0.123-0.157,0.168-0.202
		l0.505-0.505c0.628-0.65,1.032-1.313,1.212-1.985c0.224-0.696,0.157-1.223-0.202-1.582l-9.423-4.207
		c1.84-1.772,3.725-3.478,5.654-5.116l8.616,5.385c0.314,0.381,0.83,0.527,1.548,0.438c0.696-0.112,1.391-0.438,2.087-0.976
		l0.605-0.438c0.157-0.112,0.303-0.224,0.438-0.336l0.438-0.37c0.718-0.539,1.211-1.145,1.48-1.817
		c0.292-0.65,0.28-1.178-0.034-1.582l-8.717-5.385c2.02-1.503,4.084-2.928,6.193-4.274l7.808,6.462
		c0.269,0.426,0.751,0.628,1.447,0.605c0.695,0,1.436-0.225,2.221-0.673l0.64-0.371c0.067-0.022,0.146-0.067,0.235-0.134
		c0.022-0.023,0.056-0.034,0.101-0.034l0.639-0.37c0.786-0.449,1.346-0.977,1.683-1.582c0.382-0.628,0.438-1.155,0.168-1.582
		l-7.875-6.529c1.727-0.942,3.489-1.84,5.284-2.692l6.966,7.303c0.202,0.449,0.651,0.718,1.346,0.808
		c0.718,0.067,1.481-0.067,2.289-0.404l0.707-0.302h0.067c0-0.023,0.011-0.034,0.034-0.034l0.135-0.067
		c0.022-0.023,0.056-0.045,0.101-0.067l0.707-0.269c0.808-0.359,1.425-0.819,1.851-1.38s0.55-1.077,0.37-1.548l-7-7.371
		c2.333-0.965,4.7-1.84,7.101-2.625l5.89,8.178c0.135,0.471,0.549,0.796,1.245,0.976c0.696,0.157,1.481,0.123,2.356-0.101
		l0.707-0.168c0.022,0,0.056-0.011,0.101-0.034l0.101-0.034c0.022-0.022,0.045-0.034,0.067-0.034s0.045,0,0.067,0l0.74-0.235
		c0.853-0.247,1.526-0.617,2.02-1.111c0.516-0.494,0.707-0.987,0.572-1.48l-5.957-8.246c2.423-0.606,4.857-1.145,7.303-1.616
		L184.317,107.167z M200.034,133.283c11.152,0,21.82,2.153,32.006,6.462c9.851,4.173,18.578,10.063,26.185,17.669
		c7.605,7.606,13.484,16.323,17.635,26.15c4.33,10.209,6.496,20.878,6.496,32.007c0,10.994-2.076,21.495-6.227,31.501
		c-4.15,10.03-10.119,18.937-17.904,26.723c-7.764,7.764-16.66,13.721-26.689,17.871c-10.007,4.151-20.508,6.227-31.501,6.227
		c-11.129,0-21.798-2.154-32.006-6.462c-9.85-4.173-18.578-10.063-26.184-17.669c-7.606-7.606-13.496-16.323-17.669-26.15
		c-4.308-10.209-6.462-20.89-6.462-32.04c0-11.129,2.154-21.798,6.462-32.007c4.173-9.827,10.063-18.544,17.669-26.15
		c7.606-7.606,16.334-13.496,26.184-17.669C178.236,135.437,188.905,133.283,200.034,133.283z M208.852,142.37l-4.24-0.235
		c-1.773-0.112-3.254-0.169-4.443-0.169c-8.952,0-17.625,1.594-26.016,4.779l-4.174,1.548l1.683,4.14
		c5.587,13.799,10.713,23.088,15.38,27.867c2.536,2.625,5.082,3.972,7.64,4.039c0.942-0.517,1.985-0.774,3.13-0.774
		c0.135,0,0.269,0.011,0.404,0.034c2.446-1.122,4.432-3.501,5.958-7.136c2.557-6.125,4.061-16.076,4.51-29.853L208.852,142.37z
		 M252.738,155.63c-1.279,1.594-2.592,3.187-3.938,4.779l-0.707-0.605c-7.764-6.687-16.469-11.521-26.116-14.506
		c0-0.022,0-0.045,0-0.067l2.188-6.327l-6.799-3.23l-1.918,8.414c-1.503,6.753-2.716,13.024-3.636,18.813
		c-2.938,18.443-2.49,28.428,1.347,29.953c3.814,1.525,12.341-3.41,25.578-14.809c6.642-5.677,12.88-11.521,18.712-17.534
		L252.738,155.63z M258.729,171.078l-2.658-3.466l-3.467,2.625c-11.555,8.705-18.992,15.862-22.313,21.472
		c-2.356,3.994-2.681,7.461-0.976,10.399c1.57,2.715,4.611,4.398,9.12,5.049c6.575,0.92,16.569-0.146,29.987-3.197l4.274-0.977
		l-0.977-4.24C269.342,188.602,265.012,179.38,258.729,171.078z M221.236,207.393c-2.4-1.302-3.601-3.242-3.601-5.822
		c-0.875,1.548-1.089,3.052-0.64,4.51c0.426,1.323,1.289,2.39,2.592,3.197c1.279,0.785,2.658,1.077,4.139,0.875
		c1.594-0.179,2.951-0.942,4.072-2.288C225.668,208.783,223.48,208.627,221.236,207.393z M192.091,191.911
		c0.404,1.346,1.257,2.412,2.558,3.197c1.279,0.785,2.647,1.077,4.106,0.875c1.615-0.18,2.983-0.942,4.106-2.288
		c-2.132,0.919-4.331,0.763-6.597-0.472c-2.379-1.279-3.568-3.22-3.568-5.822C191.844,188.949,191.642,190.453,192.091,191.911z
		 M209.928,205.71c-2.535-2.535-5.598-3.804-9.188-3.804s-6.652,1.269-9.188,3.804c-2.536,2.558-3.803,5.632-3.803,9.222
		s1.268,6.652,3.803,9.188c2.535,2.535,5.598,3.803,9.188,3.803s6.652-1.268,9.188-3.803c2.536-2.536,3.805-5.599,3.805-9.188
		S212.464,208.268,209.928,205.71z M193.404,237.615c-2.109,0.92-4.297,0.773-6.563-0.438c-2.378-1.302-3.568-3.242-3.568-5.822
		c-0.875,1.525-1.088,3.029-0.639,4.51c0.426,1.346,1.279,2.412,2.558,3.197c1.279,0.763,2.659,1.055,4.14,0.875
		C190.924,239.759,192.282,238.984,193.404,237.615z M212.149,232.601c0.427,1.347,1.29,2.412,2.593,3.197
		c1.277,0.764,2.658,1.055,4.139,0.875c1.593-0.202,2.951-0.977,4.072-2.322c-2.131,0.92-4.318,0.774-6.563-0.438
		c-2.401-1.301-3.602-3.241-3.602-5.822C211.914,229.616,211.701,231.12,212.149,232.601z M148.743,163.034
		c-3.747,3.658-7.057,7.641-9.928,11.948l-0.27,0.471l-5.452-3.567l-4.779,5.823l7.708,3.938c6.215,3.096,11.992,5.788,17.333,8.077
		c17.187,7.337,26.98,9.334,29.381,5.99c1.593-2.221,0.931-7.169-1.986-14.842c-0.067-0.27-0.134-0.527-0.202-0.774
		c-1.145-4.487-3.859-10.208-8.145-17.164c-1.884-3.59-3.949-7.337-6.193-11.241l-4.039-6.798l-5.89,3.332l3.736,5.148
		c0.112,0.135,0.202,0.259,0.27,0.371C156.158,156.438,152.31,159.534,148.743,163.034z M191.384,290.858
		c0.045-0.808,0.124-1.604,0.235-2.39l0.673,0.034c2.67,0.291,5.295,0.438,7.875,0.438c7.943,0,15.74-1.269,23.39-3.804
		c0.314,1.145,0.606,2.3,0.875,3.467l7.404-1.145c-3.164-8.638-6.73-17.187-10.701-25.645c-7.943-16.918-13.934-24.929-17.973-24.03
		c-4.017,0.896-8.291,9.782-12.823,26.654c-2.266,8.437-4.14,16.772-5.621,25.007L191.384,290.858z M268.792,148.192
		c-18.466-18.466-40.769-27.698-66.907-27.698c-26.139,0-48.453,9.232-66.941,27.698c-18.488,18.511-27.732,40.836-27.732,66.975
		c0,26.14,9.244,48.453,27.732,66.94c18.488,18.467,40.802,27.699,66.941,27.699c26.139,0,48.441-9.232,66.907-27.699
		c18.511-18.487,27.767-40.801,27.767-66.94C296.559,189.028,287.303,166.703,268.792,148.192z M273.57,212.374
		c1.438-0.045,2.884-0.09,4.342-0.135l0.539-7.472c-9.132,1.167-18.264,2.737-27.396,4.712
		c-18.263,3.993-27.406,8.055-27.429,12.183c-0.022,4.106,7.685,10.254,23.122,18.444c7.717,4.083,15.436,7.752,23.154,11.005
		l2.827-6.125c-1.525-0.494-3.063-0.999-4.61-1.515c3.68-8.953,5.52-18.286,5.52-28.002L273.57,212.374z M231.199,236
		c-3.389-1.055-6.215-1.055-8.481,0c-0.135,0.18-0.304,0.37-0.505,0.572c-0.65,0.65-1.369,1.144-2.154,1.48
		c-1.75,1.997-2.502,4.779-2.254,8.347c0.448,7.09,4.341,17.669,11.678,31.737l2.053,3.938l3.904-2.154
		c4.622-2.535,8.941-5.553,12.957-9.053c4.039-3.522,7.617-7.393,10.736-11.611l2.49-3.332l-3.197-2.625
		C246.736,243.74,237.66,237.975,231.199,236z M124.881,231.321l3.332-0.941c1.077,5.205,2.715,10.265,4.914,15.178
		c2.244,5.004,4.992,9.671,8.246,14.001l0.034,0.033c-0.786,0.584-1.582,1.156-2.39,1.718l3.77,6.495
		c6.888-6.104,13.552-12.554,19.992-19.353c12.856-13.552,18.129-22.033,15.818-25.443c-2.289-3.41-12.116-4.162-29.482-2.255
		c-5.43,0.583-11.286,1.413-17.568,2.49l-7.774,1.414L124.881,231.321z M126.698,215.47v4.443l4.442-0.034
		c14.539-0.291,24.827-1.75,30.862-4.376c4.263-1.861,6.563-4.509,6.899-7.942c0.314-3.186-1.189-6.35-4.51-9.49
		c-4.689-4.466-13.26-9.346-25.713-14.641l-3.972-1.683l-1.716,3.938C128.796,195.108,126.698,205.037,126.698,215.47z
		 M181.658,212.44c-2.109,0.921-4.297,0.774-6.563-0.437c-2.378-1.302-3.567-3.243-3.567-5.823
		c-0.875,1.526-1.088,3.029-0.639,4.511c0.426,1.346,1.279,2.411,2.558,3.197c1.301,0.762,2.681,1.054,4.14,0.875
		C179.178,214.562,180.536,213.787,181.658,212.44z M187.009,241.385c-1.212-0.225-2.3-0.752-3.265-1.582
		c-2.333-0.583-4.948-0.201-7.842,1.145c-6.507,3.052-15.033,10.636-25.578,22.751l-2.794,3.231l3.164,2.86
		c3.949,3.612,8.268,6.765,12.957,9.457c4.712,2.692,9.603,4.824,14.674,6.395l4.073,1.279l1.346-4.072
		c4.981-14.898,7.258-25.837,6.832-32.814C190.352,245.996,189.163,243.112,187.009,241.385z"/>
	<path fill-rule="evenodd" clip-rule="evenodd" fill="#FFD650" d="M185.427,107.032l-5.317-9.962
		c-0.067-0.471,0.19-0.931,0.774-1.38c0.493-0.382,1.133-0.64,1.918-0.774c0.067-0.023,0.146-0.045,0.235-0.067l0.74-0.067
		c0.853-0.135,1.627-0.056,2.323,0.235c0.65,0.247,1.009,0.617,1.077,1.111l5.318,9.928c0.089,0.471-0.157,0.931-0.741,1.38
		c-0.561,0.427-1.291,0.707-2.188,0.841l-0.707,0.067h-0.017c-0.869,0.133-1.637,0.065-2.306-0.202
		C185.887,107.896,185.517,107.525,185.427,107.032z M168.061,98.146c0.853-0.247,1.627-0.28,2.323-0.101
		c0.695,0.179,1.099,0.505,1.211,0.976l6.597,9.121c0.134,0.494-0.056,0.987-0.572,1.48c-0.494,0.494-1.167,0.864-2.02,1.111
		l-0.74,0.235c-0.022,0-0.045,0-0.067,0s-0.045,0.011-0.067,0.034l-0.101,0.034c-0.763,0.157-1.447,0.168-2.053,0.034
		c-0.695-0.179-1.111-0.516-1.246-1.009l-6.596-9.121c-0.135-0.471,0.056-0.954,0.572-1.447c0.449-0.448,1.043-0.796,1.784-1.043
		c0.09-0.045,0.168-0.079,0.236-0.101L168.061,98.146z M149.92,106.83c-0.18-0.449-0.056-0.953,0.37-1.514
		c0.404-0.561,0.999-1.01,1.784-1.347c0.022,0,0.045-0.011,0.067-0.033l0.673-0.303c0.83-0.336,1.604-0.471,2.322-0.404
		c0.718,0.067,1.167,0.325,1.346,0.774l7.741,8.178c0.18,0.471,0.056,0.987-0.37,1.548s-1.043,1.021-1.851,1.38l-0.707,0.269
		c-0.044,0.022-0.078,0.044-0.101,0.067l-0.135,0.067c-0.022,0-0.034,0.011-0.034,0.034h-0.067
		c-0.673,0.224-1.324,0.302-1.952,0.235c-0.696-0.067-1.145-0.325-1.346-0.774L149.92,106.83z M198.688,93.502h0.067
		c0.022,0,0.045,0,0.067,0c0.718,0.044,1.346,0.224,1.884,0.538c0.606,0.336,0.909,0.763,0.909,1.279l3.972,10.535
		c0,0.471-0.304,0.886-0.909,1.245c-0.583,0.336-1.256,0.516-2.019,0.539h-0.034c-0.09,0-0.157,0-0.202,0h-0.773
		c-0.853,0.022-1.604-0.146-2.255-0.505c-0.606-0.359-0.909-0.774-0.909-1.246l-3.971-10.534c-0.022-0.494,0.28-0.92,0.909-1.279
		c0.628-0.359,1.38-0.539,2.255-0.539l0.74-0.033c0.067,0,0.135,0,0.202,0C198.643,93.502,198.665,93.502,198.688,93.502z
		 M296.559,140.923c0.111,0.718-0.023,1.234-0.404,1.548l-5.99,9.524c-0.383,0.337-0.898,0.359-1.549,0.067
		c-0.65-0.291-1.234-0.773-1.75-1.446c-0.023-0.023-0.045-0.034-0.066-0.034l-0.439-0.605c-0.561-0.695-0.885-1.392-0.975-2.087
		c-0.113-0.718,0.033-1.223,0.438-1.515l5.957-9.558c0.404-0.292,0.932-0.304,1.582-0.034s1.256,0.752,1.816,1.447l0.438,0.605
		c0.068,0.112,0.146,0.214,0.236,0.303C296.256,139.745,296.49,140.34,296.559,140.923z M256.07,107.133
		c0.74,0,1.48,0.213,2.221,0.639l0.64,0.371c0.091,0.067,0.18,0.123,0.27,0.168c0.045,0,0.067,0.011,0.067,0.034
		c0.605,0.404,1.065,0.864,1.379,1.38c0.359,0.628,0.416,1.144,0.169,1.548l-1.75,11.14c-0.247,0.427-0.74,0.64-1.481,0.64
		c-0.605,0-1.211-0.146-1.816-0.438c-0.135-0.067-0.27-0.135-0.404-0.202l-0.639-0.403c-0.764-0.404-1.324-0.92-1.684-1.548
		c-0.381-0.628-0.449-1.155-0.201-1.582l1.783-11.106C254.869,107.323,255.352,107.11,256.07,107.133z M239.949,101.58
		c0.18-0.449,0.628-0.718,1.346-0.808c0.719-0.089,1.481,0.023,2.289,0.337l0.674,0.303c0.044,0,0.101,0.022,0.168,0.067
		c0.045,0.022,0.102,0.045,0.168,0.067c0.65,0.292,1.166,0.684,1.548,1.178c0.472,0.561,0.606,1.077,0.404,1.548l-0.303,11.241
		c-0.18,0.471-0.628,0.752-1.347,0.841c-0.561,0.067-1.178,0-1.851-0.202l-0.067-0.034c-0.045-0.022-0.078-0.034-0.102-0.034h-0.101
		c-0.022-0.022-0.045-0.034-0.067-0.034c-0.023-0.022-0.056-0.045-0.102-0.067l-0.673-0.269c-0.808-0.336-1.446-0.785-1.918-1.346
		c-0.448-0.561-0.583-1.066-0.404-1.515L239.949,101.58z M226.15,97.776c0.135-0.471,0.549-0.796,1.246-0.976
		c0.672-0.179,1.446-0.157,2.322,0.067l0.706,0.202c0.135,0.022,0.258,0.056,0.37,0.101l0.033,0.034
		c0.674,0.202,1.224,0.516,1.649,0.942c0.493,0.516,0.685,1.01,0.571,1.481l1.045,11.208c-0.135,0.471-0.539,0.796-1.213,0.976
		c-0.695,0.18-1.469,0.157-2.321-0.067h-0.067l-0.674-0.168c-0.852-0.247-1.525-0.617-2.02-1.111c-0.537-0.516-0.74-1.01-0.605-1.48
		L226.15,97.776z M210.434,95.521c0.089-0.494,0.46-0.886,1.11-1.178c0.673-0.247,1.446-0.314,2.321-0.202l0.708,0.067
		c0.112,0.022,0.202,0.045,0.269,0.067c0.764,0.135,1.402,0.381,1.919,0.74c0.583,0.449,0.829,0.909,0.74,1.38l2.558,11.005
		c-0.066,0.494-0.438,0.864-1.11,1.111c-0.562,0.224-1.2,0.325-1.919,0.303h-0.033c-0.09-0.022-0.168-0.034-0.235-0.034h-0.034
		c-0.022-0.022-0.056-0.034-0.101-0.034l-0.706-0.101c-0.898-0.112-1.627-0.382-2.188-0.808c-0.584-0.426-0.832-0.886-0.742-1.38
		L210.434,95.521z M304.904,152.231c0.021,0.045,0.045,0.078,0.068,0.101c0.336,0.65,0.504,1.29,0.504,1.919
		c0.023,0.718-0.191,1.2-0.639,1.446l-7.17,8.684c-0.402,0.247-0.93,0.19-1.582-0.168c-0.516-0.314-0.975-0.774-1.379-1.38
		c-0.023,0-0.033-0.012-0.033-0.034l-0.035-0.101c-0.045-0.045-0.078-0.09-0.1-0.135c-0.023-0.022-0.033-0.045-0.033-0.067
		l-0.371-0.64c-0.449-0.74-0.674-1.48-0.674-2.221c0-0.719,0.213-1.201,0.641-1.447l7.168-8.649
		c0.426-0.247,0.953-0.191,1.582,0.168s1.156,0.92,1.582,1.683l0.369,0.64c0.023,0.067,0.045,0.112,0.068,0.135
		C304.893,152.187,304.904,152.209,304.904,152.231z M317.223,180.3c0.156,0.763,0.168,1.447,0.033,2.053
		c-0.18,0.696-0.516,1.111-1.01,1.246l-9.119,6.596c-0.473,0.135-0.955-0.056-1.449-0.572c-0.447-0.448-0.785-1.01-1.01-1.683
		c-0.021-0.022-0.033-0.045-0.033-0.067v-0.033c-0.045-0.09-0.078-0.168-0.102-0.235l-0.201-0.741
		c-0.225-0.83-0.258-1.593-0.102-2.288c0.182-0.695,0.506-1.11,0.977-1.245l9.121-6.597c0.494-0.135,0.986,0.057,1.48,0.572
		c0.516,0.493,0.887,1.167,1.111,2.02l0.201,0.74c0,0.022,0.012,0.045,0.033,0.067c0,0.022,0.012,0.045,0.035,0.067L317.223,180.3z
		 M300.193,174.41c-0.045-0.112-0.102-0.235-0.17-0.37l-0.268-0.673c-0.359-0.809-0.494-1.571-0.404-2.289
		c0.09-0.695,0.357-1.145,0.807-1.346l8.146-7.741c0.447-0.202,0.963-0.09,1.547,0.337c0.584,0.448,1.043,1.077,1.381,1.885
		l0.303,0.673c0.045,0.135,0.09,0.258,0.135,0.37c0.225,0.695,0.314,1.335,0.268,1.918c-0.09,0.719-0.357,1.178-0.807,1.38
		l-8.178,7.741c-0.473,0.18-0.988,0.057-1.549-0.37C300.934,175.565,300.529,175.061,300.193,174.41z M319.713,192.854
		c0.449,0.561,0.729,1.279,0.842,2.154l0.102,0.74c0,0.045,0.01,0.067,0.033,0.067c0,0.022,0,0.056,0,0.101v0.033
		c0,0.023,0.01,0.046,0.033,0.067c0,0.046,0,0.09,0,0.135v0.067c0.021,0.674-0.066,1.29-0.27,1.852
		c-0.27,0.673-0.639,1.032-1.111,1.076l-9.961,5.318c-0.494,0.089-0.953-0.157-1.381-0.741c-0.426-0.583-0.695-1.312-0.807-2.187
		v-0.067l-0.102-0.64c-0.111-0.897-0.045-1.672,0.203-2.322c0.268-0.651,0.65-1.021,1.143-1.11l9.895-5.318
		C318.826,192.012,319.287,192.271,319.713,192.854z M321.529,208.504c0.359,0.628,0.539,1.379,0.539,2.254v0.774
		c0,0.09,0,0.18,0,0.269c0,0.023,0,0.046,0,0.068c-0.045,0.718-0.213,1.346-0.504,1.885c-0.359,0.65-0.785,0.976-1.279,0.976
		L309.75,218.7c-0.492,0-0.918-0.313-1.277-0.941c-0.314-0.584-0.482-1.257-0.506-2.02v-0.135c0-0.022,0-0.056,0-0.102v-0.739
		c-0.021-0.875,0.146-1.627,0.506-2.255c0.336-0.629,0.75-0.942,1.244-0.942l10.535-4.006
		C320.744,207.561,321.172,207.875,321.529,208.504z M321.262,224.658c0.246,0.65,0.314,1.402,0.201,2.255l-0.068,0.673
		l-0.033,0.102c-0.111,0.853-0.381,1.57-0.807,2.153s-0.887,0.842-1.381,0.774l-10.971,2.523c-0.494-0.044-0.875-0.403-1.145-1.076
		c-0.246-0.629-0.326-1.357-0.236-2.188c0-0.045,0-0.091,0-0.135l0.102-0.74c0.111-0.853,0.393-1.571,0.842-2.154
		c0.404-0.584,0.852-0.842,1.346-0.774l10.973-2.524C320.576,223.592,320.969,223.963,321.262,224.658z M305.141,240.88
		c0.494-0.516,0.977-0.707,1.447-0.572l11.207-1.077c0.494,0.157,0.83,0.572,1.01,1.246c0.18,0.695,0.145,1.458-0.102,2.288
		l-0.168,0.74c-0.045,0.112-0.068,0.213-0.068,0.304c-0.021,0.022-0.033,0.044-0.033,0.066l-0.033,0.102
		c-0.246,0.628-0.561,1.144-0.943,1.548c-0.516,0.538-1.008,0.74-1.48,0.605l-11.207,1.077c-0.494-0.135-0.818-0.549-0.975-1.245
		c-0.18-0.605-0.191-1.268-0.035-1.985c0.023-0.112,0.045-0.225,0.068-0.337l0.201-0.707
		C304.254,242.08,304.625,241.396,305.141,240.88z M272.864,116.994c0.538,0.471,0.931,0.987,1.179,1.548
		c0.291,0.65,0.279,1.178-0.034,1.582l-3.265,10.77c-0.292,0.381-0.797,0.527-1.515,0.438c-0.605-0.067-1.212-0.303-1.817-0.707
		c-0.021-0.022-0.045-0.044-0.067-0.067c-0.067-0.045-0.123-0.079-0.169-0.101l-0.639-0.505c-0.695-0.516-1.201-1.11-1.515-1.784
		c-0.269-0.673-0.258-1.201,0.034-1.582l3.264-10.77c0.293-0.404,0.797-0.55,1.516-0.438c0.695,0.09,1.401,0.393,2.12,0.909
		l0.605,0.471C272.674,116.826,272.775,116.904,272.864,116.994z M282.187,125.206c0.696,0.179,1.347,0.572,1.952,1.178l0.605,0.572
		c0.023,0.023,0.057,0.067,0.102,0.135v0.034h0.033c0.518,0.561,0.863,1.145,1.045,1.75c0.178,0.673,0.1,1.189-0.236,1.548
		l-4.645,10.265c-0.359,0.358-0.875,0.438-1.549,0.235c-0.583-0.157-1.155-0.471-1.717-0.942c-0.09-0.067-0.179-0.157-0.268-0.27
		l-0.506-0.505c-0.65-0.628-1.066-1.29-1.245-1.985c-0.202-0.673-0.123-1.189,0.235-1.548l4.645-10.265
		C280.975,125.049,281.491,124.981,282.187,125.206z M201.683,163.236c-1.391,9.491-3.444,14.606-6.159,15.347
		c-2.558,0.696-6.148-3.107-10.77-11.409c-2.625-4.712-5.093-9.895-7.404-15.549c7.314-2.647,14.92-3.971,22.818-3.971
		c0.964,0,1.941,0.011,2.927,0.033C202.872,153.185,202.4,158.368,201.683,163.236z M226.555,153.005
		c6.192,2.625,11.846,6.069,16.963,10.333c-3.052,3.635-6.115,6.978-9.189,10.029c-7.045,7-11.925,9.95-14.64,8.851
		c-2.558-1.009-3.175-6.371-1.851-16.087c0.65-4.847,1.638-9.939,2.961-15.279C222.751,151.479,224.67,152.197,226.555,153.005z
		 M200.74,201.906c3.59,0,6.652,1.269,9.188,3.804c2.536,2.558,3.805,5.632,3.805,9.222s-1.269,6.652-3.805,9.188
		c-2.535,2.535-5.598,3.803-9.188,3.803s-6.652-1.268-9.188-3.803c-2.536-2.536-3.803-5.599-3.803-9.188s1.268-6.664,3.803-9.222
		C194.088,203.175,197.15,201.906,200.74,201.906z M200.875,206.686c-2.266,0-4.185,0.797-5.755,2.39
		c-1.593,1.571-2.39,3.479-2.39,5.722c0,2.244,0.796,4.162,2.39,5.755c1.57,1.594,3.489,2.39,5.755,2.39
		c2.221,0,4.14-0.796,5.755-2.39c1.571-1.593,2.356-3.511,2.356-5.755c0-2.243-0.785-4.15-2.356-5.722
		C205.015,207.482,203.096,206.686,200.875,206.686z M250.618,201.368c-9.536,1.055-14.999,0.359-16.391-2.087
		c-1.347-2.288,1.414-6.72,8.28-13.294c3.68-3.522,7.83-7.022,12.452-10.5c3.073,4.218,5.643,8.75,7.706,13.597
		c1.347,3.187,2.436,6.417,3.266,9.692C260.592,199.966,255.486,200.83,250.618,201.368z M267.984,215.47
		c0,8.886-1.66,17.411-4.981,25.578c-4.599-1.862-8.919-3.859-12.958-5.99c-8.771-4.622-13.057-8.38-12.855-11.274
		c0.201-2.76,5.149-4.97,14.842-6.631c4.936-0.875,10.254-1.48,15.953-1.817C267.984,215.381,267.984,215.425,267.984,215.47z
		 M293.193,272.146c-0.428-0.247-0.641-0.729-0.641-1.447c0-0.583,0.146-1.2,0.438-1.851l0.033-0.034
		c0.045-0.112,0.102-0.224,0.17-0.336l0.369-0.673c0.426-0.74,0.953-1.301,1.582-1.684c0.605-0.381,1.133-0.448,1.582-0.201
		l11.072,1.817c0.449,0.246,0.674,0.729,0.674,1.446c0,0.719-0.225,1.459-0.674,2.223l-0.371,0.639
		c-0.045,0.067-0.088,0.146-0.133,0.235c-0.023,0.045-0.035,0.079-0.035,0.101c-0.402,0.606-0.863,1.066-1.379,1.381
		c-0.629,0.359-1.156,0.415-1.582,0.168L293.193,272.146z M248.094,263.396c-4.309,4.309-9.053,7.965-14.236,10.972
		c-2.939-5.654-5.396-11.117-7.371-16.39c-3.343-8.976-4.004-14.45-1.984-16.425c1.906-1.84,6.877-0.224,14.908,4.847
		c4.713,2.939,9.547,6.428,14.506,10.467C252.121,259.133,250.18,261.31,248.094,263.396z M264.787,300.08
		c0.066-0.067,0.135-0.123,0.201-0.168l0.606-0.472c0.718-0.538,1.425-0.853,2.12-0.941c0.695-0.113,1.2,0.021,1.515,0.403
		l9.558,5.991c0.314,0.381,0.326,0.908,0.034,1.581c-0.269,0.673-0.763,1.268-1.48,1.784l-0.606,0.437
		c-0.695,0.539-1.391,0.864-2.086,0.977c-0.695,0.09-1.213-0.056-1.549-0.438l-9.523-5.957c-0.314-0.403-0.326-0.931-0.034-1.581
		c0.247-0.539,0.628-1.056,1.144-1.549C264.708,300.125,264.742,300.103,264.787,300.08z M253.143,307.586l0.033-0.034h0.033
		l0.539-0.337c0.74-0.426,1.48-0.639,2.222-0.639c0.695-0.022,1.166,0.179,1.413,0.605l8.684,7.202
		c0.246,0.426,0.19,0.954-0.168,1.581c-0.383,0.606-0.954,1.122-1.717,1.549l-0.605,0.37c-0.023,0.022-0.046,0.034-0.068,0.034
		l-0.033,0.033c-0.045,0.022-0.067,0.045-0.067,0.067c-0.022,0-0.046,0-0.067,0c-0.045,0.022-0.078,0.045-0.102,0.067
		c-0.65,0.314-1.278,0.472-1.884,0.472c-0.719,0.021-1.212-0.18-1.481-0.606l-8.649-7.168c-0.247-0.449-0.19-0.977,0.169-1.583
		c0.358-0.604,0.92-1.122,1.682-1.548v-0.033h0.035C253.109,307.597,253.119,307.586,253.143,307.586z M288.986,278.171
		l10.803,3.264c0.381,0.292,0.527,0.797,0.438,1.515c-0.09,0.719-0.404,1.425-0.943,2.121l-0.471,0.571
		c-0.066,0.09-0.135,0.18-0.201,0.27c-0.473,0.561-0.988,0.965-1.549,1.212c-0.672,0.292-1.201,0.292-1.582,0l-10.803-3.265
		c-0.381-0.314-0.527-0.83-0.438-1.549c0.09-0.583,0.336-1.178,0.74-1.783c0-0.022,0.021-0.056,0.066-0.102
		c0.023-0.044,0.068-0.101,0.135-0.168l0.473-0.64c0.516-0.695,1.098-1.189,1.748-1.48
		C288.076,277.845,288.604,277.856,288.986,278.171z M275.826,290.69c0.022-0.045,0.033-0.078,0.033-0.101l0.506-0.539
		c0.627-0.605,1.289-0.998,1.985-1.179c0.695-0.224,1.223-0.156,1.581,0.203l10.232,4.61c0.357,0.359,0.438,0.886,0.234,1.582
		c-0.18,0.695-0.582,1.357-1.211,1.985l-0.74,0.741c-0.021,0.044-0.057,0.089-0.102,0.134c-0.021,0-0.045,0.012-0.066,0.034
		c-0.494,0.403-1.01,0.695-1.549,0.875c-0.695,0.18-1.211,0.101-1.549-0.236l-10.298-4.644c-0.358-0.359-0.438-0.875-0.235-1.549
		c0.179-0.65,0.538-1.268,1.076-1.851l0.034-0.034C275.781,290.701,275.805,290.69,275.826,290.69z M203.837,251.583
		c2.692-0.584,6.159,3.556,10.399,12.419c2.355,4.891,4.544,10.253,6.563,16.087c-6.664,2.132-13.541,3.197-20.63,3.197
		c-2.042,0-4.061-0.09-6.058-0.27c0.539-5.654,1.335-10.994,2.389-16.021C198.542,257.304,200.987,252.166,203.837,251.583z
		 M214.775,320.172c0.875-0.134,1.648-0.056,2.322,0.236c0.65,0.246,1.02,0.617,1.109,1.11l5.285,9.929
		c0.066,0.493-0.18,0.953-0.741,1.38c-0.561,0.426-1.278,0.707-2.153,0.842l-0.74,0.066c-0.023,0-0.057,0.012-0.102,0.034h-0.067
		l-0.101,0.033c-0.045,0-0.09,0-0.135,0l-0.067,0.034c-0.673,0.022-1.29-0.067-1.851-0.27c-0.674-0.27-1.044-0.65-1.111-1.145
		l-5.317-9.929c-0.067-0.493,0.19-0.953,0.774-1.379c0.561-0.449,1.278-0.729,2.153-0.842c0.022,0,0.057,0,0.101,0L214.775,320.172z
		 M228.002,317.648l0.707-0.202c0.852-0.246,1.626-0.28,2.321-0.101c0.695,0.156,1.11,0.482,1.245,0.976l6.597,9.121
		c0.135,0.493-0.056,0.976-0.571,1.446c-0.518,0.517-1.201,0.897-2.054,1.145l-0.707,0.202c-0.022,0-0.056,0.011-0.101,0.033h-0.034
		l-0.134,0.034c-0.74,0.18-1.426,0.191-2.054,0.034c-0.695-0.157-1.11-0.482-1.245-0.977l-6.563-9.12
		c-0.135-0.472,0.045-0.965,0.538-1.481c0.472-0.449,1.056-0.785,1.751-1.01v-0.033h0.066
		C227.833,317.693,227.912,317.67,228.002,317.648z M239.311,316.066c-0.181-0.472-0.057-0.987,0.369-1.548
		c0.359-0.472,0.854-0.864,1.481-1.178c0.112-0.091,0.235-0.157,0.37-0.202l0.707-0.303c0.808-0.337,1.57-0.46,2.289-0.37
		c0.695,0.066,1.143,0.324,1.346,0.773l7.74,8.179c0.202,0.449,0.078,0.964-0.371,1.548c-0.426,0.561-1.043,1.01-1.85,1.347
		l-0.707,0.303c-0.045,0.022-0.102,0.056-0.168,0.101h-0.034c-0.022,0.022-0.057,0.034-0.101,0.034h-0.034l-0.135,0.067
		c-0.628,0.201-1.233,0.27-1.817,0.201c-0.695-0.066-1.145-0.325-1.346-0.773L239.311,316.066z M202.895,322.831l3.971,10.534
		c0,0.472-0.313,0.887-0.941,1.245c-0.561,0.337-1.223,0.517-1.986,0.539c-0.022,0-0.045,0-0.066,0c-0.068,0-0.124,0-0.169,0h-0.74
		c-0.897,0.021-1.66-0.146-2.289-0.505c-0.628-0.359-0.942-0.774-0.942-1.245l-3.971-10.535c0-0.492,0.313-0.919,0.942-1.278
		c0.628-0.358,1.38-0.538,2.255-0.538h0.74c0.09,0,0.191,0,0.303,0c0.022,0,0.045,0,0.067,0c0.717,0.045,1.346,0.213,1.885,0.505
		C202.58,321.911,202.895,322.338,202.895,322.831z M188.389,322.058l2.524,11.005c-0.045,0.472-0.404,0.842-1.077,1.111
		c-0.583,0.224-1.223,0.313-1.918,0.269c-0.044,0-0.078,0-0.101,0c-0.045,0-0.101,0-0.168,0c-0.045-0.022-0.09-0.033-0.134-0.033
		l-0.741-0.102c-0.875-0.111-1.593-0.381-2.154-0.808c-0.583-0.426-0.842-0.887-0.774-1.38l-2.524-10.972
		c0.067-0.472,0.438-0.853,1.11-1.145c0.651-0.269,1.414-0.348,2.289-0.235l0.741,0.102c0.135,0.022,0.258,0.044,0.37,0.066
		c0.718,0.112,1.324,0.359,1.817,0.74C188.209,321.104,188.456,321.563,188.389,322.058z M314.832,254.376
		c0.09,0.695-0.021,1.447-0.336,2.255l-0.303,0.707v0.033c-0.021,0.022-0.033,0.045-0.033,0.067s0,0.045,0,0.067
		c-0.023,0.045-0.035,0.079-0.035,0.102c-0.021,0-0.033,0.011-0.033,0.033l-0.066,0.168c-0.336,0.605-0.73,1.088-1.178,1.447
		c-0.539,0.449-1.045,0.584-1.516,0.404l-11.24-0.304c-0.471-0.201-0.752-0.661-0.842-1.379c-0.066-0.584,0.012-1.224,0.236-1.919
		c0.021-0.112,0.066-0.225,0.135-0.337l0.27-0.706c0.314-0.809,0.762-1.437,1.346-1.885c0.539-0.472,1.043-0.606,1.514-0.404
		l11.242,0.303C314.463,253.209,314.744,253.658,314.832,254.376z M147.531,121.571c-0.718,0.022-1.2-0.19-1.447-0.639l-8.683-7.168
		c-0.225-0.427-0.168-0.954,0.168-1.582c0.314-0.561,0.808-1.043,1.481-1.447l0.067-0.034l0.034-0.034
		c0.044-0.022,0.09-0.045,0.134-0.067l0.034-0.034l0.605-0.37c0.741-0.426,1.481-0.639,2.221-0.639
		c0.718-0.023,1.2,0.19,1.447,0.639l8.649,7.168c0.27,0.427,0.213,0.954-0.168,1.582c-0.336,0.605-0.897,1.133-1.683,1.582
		l-0.639,0.37c-0.045,0-0.079,0.011-0.101,0.034C148.933,121.335,148.227,121.548,147.531,121.571z M138.377,128.1l-0.438,0.37
		l-0.168,0.067c-0.696,0.539-1.391,0.864-2.086,0.976c-0.718,0.112-1.234-0.034-1.548-0.438l-9.525-5.957
		c-0.314-0.381-0.325-0.897-0.033-1.548c0.224-0.539,0.583-1.032,1.077-1.48c0.112-0.135,0.236-0.258,0.371-0.371l0.605-0.438
		c0.718-0.538,1.425-0.864,2.12-0.976c0.718-0.09,1.223,0.067,1.515,0.471l9.558,5.924c0.314,0.403,0.325,0.931,0.034,1.582
		C139.588,126.956,139.095,127.562,138.377,128.1z M170.316,170.607c4.779,8.66,6.282,14.146,4.51,16.457
		c-1.683,2.199-7.023,1.324-16.02-2.625c-4.689-2.064-9.524-4.532-14.505-7.404c2.311-3.365,4.958-6.54,7.942-9.524
		c3.321-3.32,6.899-6.237,10.736-8.751C165.716,162.754,168.162,166.703,170.316,170.607z M114.616,130.086
		c0.606-0.606,1.256-1.01,1.952-1.212c0.673-0.202,1.189-0.123,1.548,0.236l10.298,4.611c0.359,0.359,0.426,0.886,0.202,1.582
		c-0.18,0.673-0.583,1.335-1.212,1.985l-0.505,0.505c-0.045,0.045-0.101,0.112-0.168,0.202c-0.022,0-0.056,0.022-0.101,0.067
		l-0.101,0.101c-0.516,0.427-1.043,0.718-1.582,0.875c-0.696,0.202-1.211,0.124-1.548-0.235l-10.299-4.611
		c-0.359-0.359-0.426-0.875-0.202-1.548c0.18-0.695,0.572-1.346,1.178-1.952c0-0.022,0.011-0.045,0.033-0.067L114.616,130.086z
		 M107.716,140.688l10.77,3.265c0.404,0.291,0.55,0.796,0.438,1.514c-0.09,0.719-0.404,1.425-0.942,2.121l-0.505,0.706
		c-0.056,0.068-0.112,0.136-0.168,0.202c-0.472,0.525-0.988,0.918-1.548,1.178c-0.651,0.27-1.178,0.259-1.582-0.033l-10.77-3.265
		c-0.404-0.291-0.561-0.796-0.472-1.515c0.09-0.628,0.359-1.256,0.808-1.885c0.022-0.067,0.067-0.123,0.135-0.168l0.471-0.673
		c0.516-0.696,1.111-1.189,1.784-1.481C106.785,140.385,107.313,140.396,107.716,140.688z M97.182,153.947
		c0.606-0.381,1.122-0.448,1.548-0.201l11.14,1.816c0.426,0.247,0.628,0.729,0.605,1.448c0,0.718-0.213,1.458-0.64,2.221
		l-0.269,0.505v0.067l-0.101,0.067c-0.404,0.763-0.92,1.335-1.548,1.717c-0.606,0.381-1.133,0.448-1.582,0.201l-11.106-1.817
		c-0.426-0.246-0.64-0.729-0.64-1.447c0-0.695,0.213-1.413,0.64-2.153c0-0.022,0.011-0.045,0.033-0.067l0.034-0.034l0.336-0.605
		C96.06,154.901,96.577,154.329,97.182,153.947z M88.432,170.978l0.303-0.707c0.314-0.808,0.751-1.436,1.313-1.885
		c0.561-0.448,1.077-0.572,1.548-0.37l11.241,0.27c0.471,0.18,0.751,0.628,0.841,1.346c0.067,0.696-0.056,1.459-0.37,2.289
		l-0.269,0.706c-0.045,0.112-0.102,0.225-0.168,0.337c-0.292,0.65-0.684,1.178-1.178,1.582c-0.561,0.448-1.066,0.572-1.515,0.37
		l-11.274-0.303c-0.449-0.18-0.718-0.629-0.808-1.347c-0.09-0.628-0.022-1.278,0.202-1.951c0-0.023,0.011-0.034,0.034-0.034
		l0.033-0.101c0.023-0.045,0.034-0.079,0.034-0.102C88.42,171.033,88.432,171,88.432,170.978z M99.033,181.646
		c0.157,0.695,0.124,1.458-0.101,2.288l-0.202,0.74c-0.224,0.853-0.583,1.525-1.077,2.02c-0.494,0.539-0.988,0.74-1.481,0.606
		l-11.207,1.043c-0.471-0.135-0.797-0.538-0.976-1.212c-0.157-0.65-0.146-1.368,0.034-2.153c0-0.067,0.011-0.135,0.034-0.202
		l0.202-0.707c0.225-0.853,0.595-1.537,1.111-2.053c0.494-0.494,0.976-0.673,1.447-0.539l11.241-1.076
		C98.506,180.535,98.832,180.95,99.033,181.646z M83.484,196.959l10.938-2.523c0.494,0.045,0.887,0.403,1.178,1.076
		c0.247,0.674,0.314,1.437,0.202,2.289l-0.067,0.673l-0.034,0.102c-0.112,0.853-0.381,1.57-0.808,2.153
		c-0.426,0.584-0.875,0.842-1.346,0.774l-11.005,2.524c-0.471-0.067-0.853-0.438-1.145-1.11c-0.202-0.517-0.292-1.111-0.269-1.784
		c0-0.18,0.011-0.348,0.034-0.505l0.135-0.74c0.112-0.875,0.381-1.594,0.808-2.154C82.531,197.15,82.991,196.893,83.484,196.959z
		 M97.889,240.813c0,0.022,0,0.045,0,0.067l0.034,0.102c0.179,0.739,0.19,1.424,0.033,2.053c-0.157,0.695-0.482,1.11-0.976,1.245
		l-9.121,6.597c-0.471,0.111-0.964-0.079-1.48-0.572c-0.427-0.427-0.763-0.977-1.01-1.649v-0.033
		c-0.022-0.045-0.034-0.079-0.034-0.102c-0.045-0.09-0.067-0.168-0.067-0.235l-0.202-0.74c-0.247-0.853-0.292-1.627-0.135-2.322
		c0.202-0.695,0.539-1.111,1.009-1.245l9.121-6.563c0.471-0.135,0.954,0.044,1.447,0.538c0.516,0.516,0.897,1.2,1.145,2.053
		l0.202,0.707C97.855,240.756,97.867,240.79,97.889,240.813z M94.321,223.851c0.427,0.561,0.707,1.278,0.842,2.153l0.101,0.74v0.034
		c0.021,0.081,0.032,0.165,0.034,0.252v0.018c0,0.022,0,0.044,0,0.066l0.033,0.102c0.045,0.673-0.044,1.29-0.269,1.851
		c-0.269,0.651-0.651,1.021-1.145,1.111l-9.928,5.317c-0.494,0.045-0.954-0.213-1.38-0.773c-0.426-0.584-0.696-1.302-0.808-2.154
		c0-0.022,0-0.057,0-0.102l-0.135-0.64c-0.112-0.875-0.034-1.648,0.235-2.321c0.27-0.674,0.651-1.033,1.145-1.077l9.895-5.352
		C93.436,223.009,93.895,223.268,94.321,223.851z M94.019,209.816c0.359,0.605,0.539,1.346,0.539,2.221v0.74c0,0.09,0,0.157,0,0.202
		c-0.022,0.808-0.191,1.503-0.505,2.087c-0.359,0.628-0.785,0.941-1.279,0.941l-10.534,3.972c-0.494,0-0.92-0.313-1.279-0.942
		c-0.269-0.516-0.437-1.11-0.504-1.783c-0.022-0.135-0.034-0.292-0.034-0.472v-0.774c0-0.875,0.179-1.626,0.538-2.254
		c0.337-0.606,0.752-0.909,1.246-0.909l10.534-3.972C93.233,208.852,93.66,209.165,94.019,209.816z M151.233,195.748
		c8.324,4.689,12.352,8.447,12.083,11.274c-0.269,2.625-5.104,4.6-14.505,5.923c-5.138,0.741-10.624,1.189-16.458,1.347
		c0.135-8.772,1.907-17.176,5.317-25.208C142.517,191.171,147.037,193.392,151.233,195.748z M133.934,230.178
		c5.812-1.503,11.398-2.604,16.761-3.299c9.827-1.301,15.504-0.706,17.029,1.784c1.414,2.356-1.335,7-8.246,13.933
		c-4.173,4.174-8.941,8.358-14.304,12.555c-2.984-4.106-5.486-8.538-7.505-13.295C136.055,238.02,134.809,234.126,133.934,230.178z
		 M183.845,261.073c-1.144,5.923-2.816,12.194-5.015,18.813c-1.705-0.584-3.388-1.223-5.048-1.918
		c-6.753-2.873-12.879-6.72-18.376-11.544c4.286-4.937,8.593-9.334,12.924-13.193c7.157-6.372,12.015-8.964,14.573-7.774
		C185.326,246.534,185.64,251.739,183.845,261.073z M111.654,275.781c0.359-0.292,0.875-0.304,1.548-0.034
		c0.651,0.27,1.245,0.752,1.784,1.447l0.471,0.606c0.539,0.695,0.864,1.391,0.976,2.086c0.09,0.718-0.056,1.233-0.437,1.548
		l-5.991,9.525c-0.381,0.313-0.897,0.336-1.548,0.066c-0.651-0.291-1.246-0.785-1.784-1.48l-0.505-0.605
		c-0.517-0.695-0.83-1.392-0.942-2.087c-0.09-0.718,0.056-1.223,0.438-1.515L111.654,275.781z M143.93,305.095
		c0.718,0,1.447,0.213,2.188,0.64l0.673,0.37c0.157,0.067,0.303,0.157,0.438,0.269c0.561,0.359,0.976,0.797,1.246,1.313
		c0.381,0.605,0.449,1.122,0.202,1.548l-1.784,11.106c-0.247,0.427-0.729,0.64-1.447,0.64c-0.628,0-1.257-0.146-1.885-0.438
		c-0.045-0.022-0.079-0.045-0.101-0.067l-0.033-0.034c-0.045,0-0.09-0.011-0.135-0.033c-0.022-0.022-0.045-0.045-0.067-0.067
		l-0.639-0.37c-0.786-0.426-1.357-0.954-1.717-1.582c-0.359-0.605-0.415-1.133-0.168-1.582l1.75-11.072
		C142.718,305.308,143.212,305.095,143.93,305.095z M135.146,298.128c0.651,0.493,1.122,1.066,1.414,1.717
		c0.292,0.65,0.292,1.178,0,1.582l-3.298,10.77c-0.292,0.403-0.797,0.561-1.515,0.471c-0.606-0.09-1.201-0.336-1.784-0.74
		c-0.09-0.067-0.202-0.146-0.336-0.235l-0.572-0.438c-0.696-0.539-1.189-1.145-1.481-1.817c-0.292-0.65-0.292-1.167,0-1.549
		l3.265-10.77c0.314-0.403,0.83-0.561,1.548-0.471c0.696,0.111,1.392,0.438,2.087,0.976l0.605,0.438
		C135.101,298.083,135.124,298.105,135.146,298.128z M107.885,265.953v0.033c0,0.024,0,0.047,0,0.068
		c0.359,0.695,0.55,1.368,0.572,2.02c0.022,0.718-0.18,1.2-0.606,1.446l-7.202,8.65c-0.426,0.246-0.942,0.19-1.548-0.169
		c-0.628-0.358-1.155-0.932-1.582-1.716l-0.034-0.034l-0.371-0.572c-0.426-0.763-0.639-1.503-0.639-2.221
		c-0.022-0.719,0.18-1.2,0.606-1.447l7.202-8.684c0.426-0.247,0.942-0.19,1.548,0.169c0.628,0.381,1.155,0.953,1.582,1.716
		l0.37,0.64C107.806,265.875,107.84,265.908,107.885,265.953z M120.64,287.189c0.359-0.358,0.886-0.437,1.582-0.235
		c0.673,0.202,1.324,0.606,1.952,1.212l0.538,0.505c0.112,0.135,0.213,0.247,0.303,0.336l0.067,0.068
		c0.403,0.516,0.695,1.043,0.875,1.581c0.179,0.674,0.101,1.189-0.236,1.548l-4.645,10.266c-0.359,0.358-0.875,0.438-1.548,0.235
		c-0.628-0.156-1.234-0.504-1.817-1.043c-0.022-0.022-0.045-0.034-0.067-0.034l-0.034-0.033c-0.045-0.045-0.067-0.079-0.067-0.102
		l-0.539-0.538c-0.628-0.583-1.032-1.223-1.211-1.918c-0.202-0.695-0.135-1.224,0.202-1.582L120.64,287.189z M102.029,253.602
		l0.269,0.674c0.045,0.156,0.101,0.291,0.168,0.403c0.225,0.673,0.303,1.302,0.235,1.885c-0.09,0.695-0.359,1.155-0.808,1.38
		l-8.145,7.741c-0.471,0.201-0.987,0.078-1.548-0.371c-0.516-0.381-0.931-0.92-1.245-1.615c-0.022-0.022-0.034-0.045-0.034-0.067
		c-0.045-0.067-0.079-0.123-0.101-0.168l-0.303-0.707c-0.336-0.808-0.471-1.57-0.404-2.288c0.089-0.719,0.37-1.167,0.841-1.347
		l8.145-7.74c0.449-0.202,0.965-0.079,1.548,0.37C101.21,252.177,101.669,252.794,102.029,253.602z M174.186,319.398l1.077,11.241
		c-0.135,0.448-0.549,0.763-1.245,0.942c-0.561,0.156-1.189,0.179-1.885,0.067c-0.135-0.046-0.28-0.09-0.438-0.135l-0.707-0.202
		c-0.853-0.225-1.525-0.583-2.019-1.077c-0.539-0.493-0.741-0.987-0.606-1.481l-1.043-11.206c0.134-0.472,0.538-0.797,1.211-0.977
		c0.695-0.18,1.47-0.157,2.322,0.067l0.74,0.202c0.112,0.022,0.224,0.056,0.336,0.101c0.673,0.225,1.234,0.561,1.683,1.01
		C174.13,318.467,174.321,318.949,174.186,319.398z M161.834,315.427l-0.303,11.241c-0.202,0.449-0.651,0.729-1.346,0.842
		c-0.606,0.089-1.256,0.011-1.952-0.235c-0.067-0.046-0.146-0.079-0.235-0.102c-0.023,0-0.056-0.011-0.101-0.033l-0.707-0.27
		c-0.83-0.337-1.458-0.786-1.884-1.347c-0.449-0.538-0.583-1.043-0.404-1.515l0.303-11.241c0.202-0.471,0.65-0.751,1.346-0.841
		c0.695-0.09,1.447,0.034,2.255,0.37l0.707,0.235c0.045,0.022,0.09,0.045,0.135,0.067c0.022,0,0.034,0.012,0.034,0.034
		c0.763,0.314,1.346,0.729,1.75,1.245C161.879,314.439,162.014,314.956,161.834,315.427z"/>
</g>
</svg>
