<?xml version="1.0" encoding="utf-8"?>
<!-- Generator: Adobe Illustrator 16.0.0, SVG Export Plug-In . SVG Version: 6.00 Build 0)  -->
<!DOCTYPE svg PUBLIC "-//W3C//DTD SVG 1.1//EN" "http://www.w3.org/Graphics/SVG/1.1/DTD/svg11.dtd">
<svg version="1.1" id="Layer_1" xmlns="http://www.w3.org/2000/svg" xmlns:xlink="http://www.w3.org/1999/xlink" x="0px" y="0px"
	 width="300px" height="300px" viewBox="0 0 300 300" enable-background="new 0 0 300 300" xml:space="preserve">
<g>
	<path fill-rule="evenodd" clip-rule="evenodd" fill="#312016" d="M198.354,118.777c0,0.063-0.008,0.138-0.026,0.227
		c-0.009,0.249-0.013,0.377-0.013,0.386c0.035,0.036,0.182,0.112,0.439,0.227c0.268,0.106,0.418,0.16,0.453,0.16
		c0.09,0.008,0.227-0.045,0.414-0.16c0.169-0.106,0.302-0.205,0.4-0.293c0.044-0.036,0.08-0.187,0.105-0.454
		c0.036-0.267,0.055-0.404,0.055-0.413c-0.152-0.151-0.355-0.222-0.614-0.213c-0.24,0.009-0.422,0.058-0.546,0.146
		c-0.178,0.143-0.374,0.258-0.588,0.347C198.398,118.755,198.372,118.769,198.354,118.777z M195.087,118.511
		c-0.258,0.213-0.552,0.382-0.88,0.507c-0.045,0.026-0.09,0.049-0.134,0.066c0,0.089-0.005,0.2-0.014,0.333
		c-0.035,0.373-0.048,0.56-0.04,0.56c0.054,0.062,0.275,0.178,0.667,0.347c0.382,0.16,0.608,0.24,0.681,0.24
		c0.115,0.026,0.315-0.053,0.6-0.24c0.248-0.151,0.449-0.298,0.6-0.44c0.045-0.044,0.099-0.262,0.16-0.653
		c0.055-0.391,0.071-0.6,0.055-0.627c-0.205-0.222-0.503-0.324-0.895-0.307C195.549,118.297,195.282,118.369,195.087,118.511z
		 M108.75,94.199c-0.711-0.613-1.156-0.92-1.334-0.92c-1.564,0.533-2.591,0.849-3.081,0.947c-1.289,0.275-2.44,0.591-3.454,0.947
		c-1.138,0.391-1.845,0.747-2.121,1.067c0.204,0.302,0.417,1.498,0.64,3.587c0.115,1.058,0.218,2.121,0.307,3.188
		c1.645,0,3.472-0.187,5.481-0.561c0.765-0.151,1.342-0.258,1.734-0.32c0.338-0.542,0.765-1.236,1.28-2.081
		c1.173-1.867,2.178-3.258,3.014-4.174C110.452,95.506,109.63,94.946,108.75,94.199z M195.58,100.547
		c4.001,2.178,7.789,4.547,11.362,7.108c3.476,2.489,6.637,4.77,9.481,6.841c1.707,1.245,3.308,2.414,4.801,3.507
		c0.996,0.738,1.943,1.44,2.842,2.107c2.88,3.84,3.676,5.952,2.387,6.334c-1.289,0.382-2.93,0.813-4.922,1.293
		c-1.688,0.409-5.365,1.249-11.027,2.521c-0.988,0.222-2.037,0.458-3.148,0.707c-7.467,1.653-17.358,2.48-29.672,2.48
		c-2.418,0-4.748-0.089-6.988-0.267c-5.912-0.498-11.265-1.619-16.057-3.361c-4.81-1.751-9.575-4.41-14.296-7.975
		c-0.64-0.48-2.44-1.907-5.401-4.281c-2.045-1.627-3.725-2.863-5.042-3.708c-3.76-2.418-7.583-3.627-11.469-3.627
		c-3.271,0-6.868,0.391-10.789,1.174c-2.24,0.453-3.645,0.729-4.214,0.827c-1.521,0.24-2.916,0.36-4.188,0.36
		c-2,0-3.623-1.28-4.868-3.84c-0.293-0.604-0.76-1.743-1.4-3.414c-0.56-1.449-1.036-2.512-1.427-3.188
		c-1.067-1.858-2.614-3.712-4.641-5.561c-1.725-1.565-3.694-2.561-5.908-2.987c6.642-4.934,14.861-8.246,24.658-9.935
		c10.447-1.805,22.689-1.77,36.728,0.106c5.209,0.703,10.664,1.654,16.363,2.854c4.215,0.898,9.202,2.374,14.963,4.428
		c2.552,0.897,5.259,1.92,8.122,3.067C186.667,96.04,191.25,98.182,195.58,100.547z M210.982,122.218
		c0.152-0.498,0.228-0.787,0.228-0.867c0-0.062,0-0.106,0-0.133c-0.427,0.187-0.796,0.342-1.106,0.466
		c-0.178,0.081-0.343,0.143-0.494,0.187c0.009,0.213,0.014,0.462,0.014,0.747c0.285,0,0.658,0.014,1.119,0.04
		c0.037,0,0.072,0.005,0.107,0.014C210.885,122.529,210.93,122.378,210.982,122.218z M201.581,119.671
		c-0.747,0.48-1.138,0.773-1.173,0.88c0.648,0.667,1.133,1.195,1.453,1.587c0.223-0.027,0.507-0.066,0.854-0.12
		c0.88-0.133,1.422-0.2,1.627-0.2c0-0.107,0.076-0.365,0.227-0.774c0.16-0.417,0.24-0.649,0.24-0.693
		c-0.205-0.106-0.613-0.378-1.227-0.813c-0.552-0.382-0.846-0.578-0.881-0.587C202.666,118.951,202.293,119.191,201.581,119.671z
		 M197.127,121.925c-0.586-0.062-0.88-0.076-0.88-0.04s-0.618,0.564-1.854,1.587c0.205,0.16,0.498,0.591,0.881,1.293
		c0.133,0.24,0.267,0.494,0.4,0.76c0.115,0,0.235,0.014,0.359,0.04c0.729,0.098,1.374,0.151,1.934,0.16
		c0.098,0,0.392-0.204,0.881-0.613c0.596-0.515,0.965-0.818,1.107-0.907c-0.116-0.329-0.228-0.596-0.334-0.8
		c-0.188-0.337-0.383-0.755-0.587-1.253C198.34,122.053,197.705,121.978,197.127,121.925z M111.951,94.093
		c0.088,0.098,0.435,0.267,1.04,0.506c0.623,0.267,0.996,0.4,1.121,0.4c0.187,0.009,0.494-0.133,0.92-0.427
		c0.409-0.249,0.724-0.485,0.946-0.707c0.08-0.089,0.161-0.449,0.24-1.08c0.08-0.622,0.107-0.951,0.08-0.987
		c-0.347-0.338-0.827-0.494-1.44-0.467c-0.542,0.018-0.964,0.151-1.267,0.4c-0.417,0.32-0.875,0.596-1.373,0.827
		c-0.08,0.036-0.147,0.067-0.2,0.093c-0.018,0.142-0.031,0.32-0.04,0.534C111.941,93.781,111.933,94.083,111.951,94.093z
		 M121.632,91.505c-0.222-0.231-0.538-0.338-0.947-0.32c-0.374,0.018-0.667,0.107-0.88,0.267c-0.267,0.213-0.578,0.4-0.933,0.56
		c-0.036,0.027-0.076,0.049-0.12,0.067c-0.009,0.098-0.014,0.218-0.014,0.36c-0.026,0.4-0.035,0.604-0.026,0.613
		c0.053,0.053,0.285,0.169,0.693,0.347c0.418,0.16,0.671,0.249,0.76,0.267c0.116-0.018,0.32-0.116,0.613-0.293
		c0.285-0.178,0.502-0.338,0.653-0.48c0.063-0.063,0.116-0.302,0.16-0.72C121.646,91.754,121.659,91.532,121.632,91.505z
		 M125.687,92.212c-0.053,0-0.64,0.387-1.761,1.16c-1.165,0.8-1.769,1.285-1.813,1.454c1.049,1.04,1.832,1.862,2.347,2.467
		c0.356-0.054,0.814-0.129,1.374-0.227c1.404-0.24,2.263-0.36,2.574-0.36c0-0.169,0.115-0.587,0.347-1.254
		c0.24-0.675,0.36-1.044,0.36-1.106c-0.338-0.169-1.004-0.587-2-1.253C126.233,92.506,125.757,92.212,125.687,92.212z
		 M125.207,101.387c0.106,0.143,0.28,0.631,0.52,1.467l0.427,1.454h4.027c-0.018-0.471,0.12-1.218,0.413-2.241
		c0.312-0.987,0.489-1.542,0.534-1.667c-0.311-0.116-0.715-0.44-1.213-0.973c-0.445-0.471-0.729-0.707-0.854-0.707
		c-0.409,0-1.134,0.44-2.174,1.32C126.211,100.609,125.651,101.059,125.207,101.387z M119.765,102.107
		c0.942-0.818,1.529-1.307,1.76-1.467c-0.205-0.516-0.396-0.929-0.573-1.24c-0.32-0.56-0.645-1.218-0.974-1.974
		c-1.102-0.143-2.12-0.253-3.054-0.333c-0.942-0.071-1.405-0.071-1.387,0c0.009,0.062-0.96,0.92-2.907,2.574
		c0.347,0.258,0.832,0.938,1.454,2.041c0.205,0.373,0.422,0.765,0.654,1.173c0.178,0.018,0.364,0.04,0.56,0.067
		c1.165,0.116,2.191,0.173,3.081,0.173C118.539,103.121,119,102.783,119.765,102.107z M108.163,119.897
		c5.547-4.587,11.078-4.708,16.59-0.36C119.863,117.501,114.333,117.622,108.163,119.897z M144.503,104.535
		c-0.249-0.649-0.436-1.009-0.56-1.081c-1.209-0.213-1.991-0.373-2.347-0.479c-0.952-0.293-1.823-0.511-2.614-0.654
		c-0.889-0.151-1.484-0.169-1.787-0.053c0.026,0.267-0.267,1.125-0.88,2.574c-0.302,0.747-0.622,1.48-0.96,2.201
		c1.076,0.586,2.347,1.133,3.814,1.64c0.542,0.178,0.956,0.316,1.241,0.414c0.426-0.24,0.96-0.542,1.6-0.907
		c1.44-0.791,2.605-1.342,3.494-1.653C145.13,106.028,144.797,105.362,144.503,104.535z M148.558,104.695
		c-0.382,0.062-0.783,0.076-1.2,0.04c-0.053,0-0.111-0.004-0.174-0.014c-0.044,0.098-0.111,0.214-0.2,0.347
		c-0.24,0.374-0.36,0.565-0.36,0.574c0.018,0.089,0.187,0.329,0.507,0.72c0.312,0.4,0.507,0.618,0.587,0.653
		c0.116,0.071,0.374,0.093,0.774,0.066c0.355-0.018,0.648-0.058,0.88-0.12c0.08-0.027,0.262-0.236,0.547-0.627
		c0.285-0.373,0.422-0.578,0.414-0.613c-0.107-0.347-0.369-0.623-0.787-0.827C149.18,104.708,148.851,104.641,148.558,104.695z
		 M145.063,109.549c0.125,0.285,0.191,0.902,0.2,1.854c0,0.32,0,0.658,0,1.014c0.116,0.08,0.236,0.164,0.36,0.253
		c0.711,0.498,1.36,0.912,1.947,1.241c0.116,0.062,0.542,0.008,1.28-0.16c0.916-0.205,1.476-0.316,1.68-0.333
		c0.062-0.4,0.089-0.738,0.081-1.014c0-0.489,0.031-1.045,0.093-1.667c-0.684-0.48-1.316-0.916-1.894-1.307
		c-0.587-0.4-0.894-0.573-0.92-0.52C147.873,108.962,146.93,109.176,145.063,109.549z M138.635,100.587
		c0.063-0.4,0.089-0.738,0.081-1.013c0-0.48,0.031-1.031,0.093-1.654c-0.685-0.489-1.311-0.929-1.881-1.32
		c-0.595-0.4-0.902-0.574-0.92-0.521c-0.026,0.053-0.973,0.267-2.84,0.64c0.125,0.285,0.191,0.907,0.2,1.867c0,0.32,0,0.658,0,1.014
		c0.116,0.071,0.236,0.151,0.36,0.24c0.72,0.498,1.374,0.912,1.96,1.24c0.107,0.063,0.529,0.009,1.267-0.16
		C137.871,100.716,138.431,100.605,138.635,100.587z M137.902,115.737c9.877,7.308,19.76,11.135,29.646,11.482
		c1.058,0.106,2.106,0.204,3.147,0.293c14.109,1.244,25.961,1.48,35.554,0.707l-34.341-3.201c-0.408-0.036-0.813-0.075-1.213-0.12
		c-11.646-1.227-20.266-4.085-25.858-8.575c-13.176-10.456-25.587-13.674-37.234-9.655
		C118.752,105.575,128.852,108.598,137.902,115.737z M164.001,107.429c-0.667,0.133-1.268,0.284-1.801,0.453
		c-0.587,0.196-0.951,0.374-1.094,0.534c0.099,0.151,0.191,0.769,0.28,1.854c0.054,0.542,0.094,1.084,0.12,1.627
		c0.845,0.018,1.792-0.058,2.841-0.227c0.391-0.063,0.689-0.106,0.893-0.133c0.178-0.276,0.405-0.627,0.681-1.054
		c0.622-0.951,1.151-1.658,1.587-2.121c-0.391-0.195-0.805-0.498-1.24-0.907c-0.364-0.32-0.592-0.48-0.68-0.48
		C164.778,107.233,164.25,107.384,164.001,107.429z M151.838,106.775c-0.044,0.063-0.094,0.138-0.146,0.227l-0.24,0.4
		c0.019,0.063,0.129,0.222,0.334,0.48c0.213,0.258,0.352,0.405,0.413,0.44c0.081,0.044,0.249,0.058,0.507,0.04
		c0.24-0.009,0.436-0.035,0.587-0.08c0.054-0.018,0.178-0.156,0.373-0.414c0.187-0.258,0.276-0.4,0.267-0.427
		c-0.062-0.24-0.235-0.427-0.52-0.56c-0.24-0.125-0.458-0.169-0.654-0.133c-0.258,0.035-0.523,0.044-0.799,0.026
		C151.914,106.775,151.873,106.775,151.838,106.775z M156.479,113.336c0.062-0.116,0.293-0.347,0.693-0.693
		c0.399-0.356,0.613-0.556,0.64-0.6c-0.178-0.231-0.462-0.743-0.854-1.534c-0.364-0.711-0.573-1.081-0.627-1.107
		c-0.035-0.027-0.564,0.013-1.586,0.12c-1.059,0.098-1.628,0.191-1.707,0.28c0.311,1.076,0.528,1.903,0.652,2.48
		c0.25,0.107,0.574,0.223,0.975,0.347C155.67,112.985,156.274,113.221,156.479,113.336z M152.679,115.244
		c0.026,0.125-0.036,0.511-0.187,1.16l-0.24,1.107l2.627,1.467c0.16-0.329,0.524-0.765,1.094-1.307
		c0.568-0.542,0.885-0.849,0.947-0.92c-0.152-0.187-0.299-0.542-0.44-1.067c-0.116-0.48-0.218-0.742-0.308-0.787
		c-0.266-0.142-0.897-0.115-1.893,0.08C153.621,115.101,153.088,115.19,152.679,115.244z M160.16,116.537
		c0.15,0.231,0.293,1.133,0.427,2.707c0.071,0.791,0.128,1.587,0.173,2.387c1.236,0.018,2.609-0.093,4.121-0.333
		c0.568-0.098,1-0.165,1.293-0.2c0.268-0.418,0.601-0.938,1.001-1.561c0.907-1.378,1.685-2.405,2.333-3.081
		c-0.568-0.285-1.178-0.72-1.826-1.307c-0.524-0.462-0.854-0.698-0.987-0.707c-1.173,0.382-1.946,0.604-2.32,0.667
		c-0.97,0.196-1.836,0.418-2.601,0.667C160.91,116.043,160.373,116.297,160.16,116.537z M170.322,114.003
		c-0.055,0.026-0.107,0.053-0.16,0.08c0,0.098-0.004,0.231-0.014,0.4c-0.045,0.444-0.063,0.671-0.053,0.68
		c0.063,0.062,0.324,0.195,0.787,0.4c0.453,0.195,0.729,0.298,0.826,0.307c0.133,0,0.369-0.102,0.707-0.307
		c0.302-0.178,0.542-0.347,0.72-0.507c0.062-0.062,0.129-0.333,0.2-0.813c0.063-0.462,0.084-0.707,0.066-0.733
		c-0.248-0.258-0.609-0.387-1.08-0.387c-0.4,0.018-0.721,0.111-0.961,0.28C171.06,113.634,170.713,113.834,170.322,114.003z
		 M180.418,113.95c-0.045,0-0.494,0.28-1.348,0.84c-0.871,0.578-1.329,0.929-1.374,1.053c0.765,0.81,1.339,1.44,1.721,1.894
		c0.267-0.044,0.608-0.098,1.026-0.16c1.059-0.142,1.707-0.213,1.947-0.213c0-0.133,0.089-0.444,0.268-0.934
		c0.195-0.498,0.293-0.778,0.293-0.84c-0.258-0.125-0.747-0.449-1.467-0.974C180.836,114.172,180.479,113.95,180.418,113.95z
		 M170.508,119.324c0.25,0.196,0.601,0.711,1.055,1.547c0.15,0.294,0.307,0.592,0.467,0.894c0.133,0.026,0.275,0.048,0.426,0.066
		c0.863,0.098,1.632,0.155,2.308,0.173c0.116,0,0.467-0.245,1.054-0.733c0.711-0.596,1.156-0.956,1.334-1.081
		c-0.143-0.382-0.275-0.688-0.4-0.92c-0.23-0.418-0.463-0.92-0.693-1.507c-0.827-0.124-1.592-0.222-2.294-0.293
		c-0.702-0.071-1.05-0.08-1.04-0.027C172.723,117.488,171.984,118.115,170.508,119.324z M176.043,113.283
		c-0.213,0.151-0.453,0.289-0.721,0.414c-0.025,0.008-0.057,0.022-0.093,0.04c-0.009,0.08-0.019,0.169-0.026,0.267
		c-0.018,0.302-0.022,0.453-0.014,0.453c0.045,0.044,0.223,0.133,0.533,0.267c0.294,0.143,0.471,0.213,0.533,0.213
		c0.098,0,0.264-0.062,0.494-0.187c0.195-0.133,0.352-0.253,0.467-0.36c0.044-0.044,0.094-0.222,0.146-0.533
		c0.045-0.32,0.063-0.489,0.054-0.507c-0.179-0.169-0.423-0.253-0.733-0.253C176.408,113.105,176.193,113.167,176.043,113.283z
		 M180.27,121.925l0.308,1.08l3.015,0.08c-0.01-0.355,0.105-0.916,0.346-1.68c0.258-0.729,0.4-1.143,0.428-1.24
		c-0.232-0.08-0.525-0.329-0.881-0.747c-0.328-0.355-0.547-0.538-0.653-0.547c-0.294,0-0.841,0.316-1.641,0.947
		c-0.515,0.427-0.942,0.76-1.28,1C179.99,120.925,180.11,121.293,180.27,121.925z M187.072,120.484
		c-0.712,0.24-1.16,0.454-1.348,0.64c0.125,0.213,0.245,0.974,0.36,2.28c0.062,0.667,0.11,1.33,0.146,1.987
		c1.032,0.026,2.183-0.067,3.454-0.28c0.48-0.071,0.845-0.124,1.094-0.16c0.223-0.338,0.498-0.769,0.826-1.294
		c0.756-1.156,1.405-2.018,1.947-2.587c-0.48-0.231-0.986-0.596-1.52-1.094c-0.436-0.391-0.712-0.587-0.827-0.587
		c-0.987,0.312-1.636,0.494-1.947,0.547C188.441,120.089,187.712,120.271,187.072,120.484z M190.232,113.15
		c-0.676,0.213-1.121,0.342-1.334,0.387c-0.56,0.098-1.058,0.222-1.494,0.374c-0.497,0.16-0.804,0.302-0.92,0.427
		c0.072,0.142,0.152,0.662,0.24,1.56c0.036,0.462,0.066,0.92,0.094,1.374c0.702,0.018,1.494-0.044,2.374-0.187
		c0.329-0.054,0.577-0.094,0.747-0.12c0.16-0.231,0.355-0.524,0.586-0.88c0.516-0.8,0.961-1.392,1.334-1.773
		c-0.329-0.169-0.68-0.422-1.053-0.76C190.504,113.283,190.313,113.15,190.232,113.15z M190.152,136.381
		c3.574-0.4,7.131-1.022,10.669-1.867c5.165-1.236,7.797-1.858,7.895-1.867c0.596-0.116,1.192-0.218,1.788-0.307
		c2.391-0.364,4.898-0.547,7.521-0.547c0.035,0,0.079,0,0.133,0c-1.92,0.658-4.192,1.774-6.815,3.348
		c-0.284,0.177-0.563,0.355-0.839,0.533c-1.734,1.076-3.316,2.152-4.748,3.228c-0.17,0.116-0.324,0.231-0.467,0.347
		c-2.676,2.569-4.717,4.41-6.121,5.521c-0.445,0.365-0.889,0.698-1.334,1c-1.307,0.924-2.574,1.636-3.801,2.134
		c-2.383,0.987-5.921,1.8-10.615,2.44c-4.295,0.578-8.357,0.867-12.189,0.867c-1.254,0-2.845-0.049-4.773-0.147
		c-2.241-0.106-3.828-0.173-4.762-0.2c-0.969-0.017-1.716-0.098-2.24-0.24c-0.782-0.222-1.338-0.618-1.667-1.187
		c-0.258-0.436-0.729-0.965-1.413-1.587c-0.881-0.783-2.281-2.294-4.201-4.535c-1.067-1.245-2.25-2.716-3.547-4.414
		c-1.058-1.369-2.192-2.889-3.401-4.561c-1.805-2.499-2.952-4.321-3.44-5.468c0.551,0.24,1.28,0.609,2.187,1.107
		c0.658,0.356,1.738,0.947,3.241,1.773c2.969,1.565,5.503,2.561,7.602,2.988c3.858,0.791,6.659,1.329,8.401,1.614
		c2.801,0.453,5.294,0.729,7.481,0.827c0.641,0.036,1.254,0.053,1.84,0.053C179.293,137.234,185.165,136.95,190.152,136.381z
		 M138.769,132.113c2.889,0.907,5.552,3.169,7.988,6.788c0.168,0.267,0.347,0.542,0.533,0.827
		c2.579,4.107,9.766,11.224,21.564,21.351c10.909,7.975,19.466,15.109,25.673,21.404c4.507,5.619-1.081,6.254-16.764,1.907
		c-20.636-7.361-34.287-13.776-40.955-19.244c-0.854-0.471-1.685-0.947-2.494-1.427c-7.041-4.144-11.882-8.3-14.522-12.47
		c-2.676-4.534-5.672-8.637-8.988-12.309c-0.018-0.009-0.036-0.022-0.054-0.04c-0.204-0.187-0.404-0.378-0.6-0.573
		c-5.761-5.628-5.761-10.296,0-14.003c0.48-0.302,1-0.609,1.561-0.92c1.36-0.507,2.685-0.871,3.974-1.093
		c1.92-0.329,3.752-0.333,5.494-0.014c-0.026,0.009-0.053,0.014-0.08,0.014c-5.85,0.96-9.5,2.534-10.949,4.721
		c-0.951,1.44-0.951,3.147,0,5.121c0.355,0.765,0.858,1.564,1.507,2.4c1.29,1.485,2.49,2.934,3.601,4.348
		c2.641,3.352,4.792,6.5,6.455,9.442c2.231,3.601,6.433,7.463,12.602,11.589c8.082,5.396,19.533,11.237,34.354,17.522
		c15.754,5.237,23.41,6.775,22.965,4.615l-30.473-23.885c-9.611-7.522-15.669-13.95-18.177-19.284
		c-0.044-0.08-0.085-0.16-0.121-0.24c-2.018-2.916-4.272-4.596-6.761-5.041c-0.622-0.177-1.218-0.396-1.788-0.653
		c-2.187-0.987-3.969-2.618-5.347-4.894c1.547,1.129,3.329,2.063,5.347,2.801C135.693,131.38,137.177,131.793,138.769,132.113z
		 M117.365,138.181c0-0.177,0.08-0.364,0.24-0.56c0.062-0.071,0.111-0.151,0.146-0.24c0.302-0.08,0.645-0.208,1.027-0.387
		c0.703-0.32,1.178-0.48,1.427-0.48c0.106,0,0.618,0.675,1.534,2.027c-0.098,0.125-0.191,0.245-0.28,0.36
		c-0.311,0.391-0.569,0.698-0.773,0.92c-0.454,0.489-1.009,0.894-1.667,1.213c-0.16-0.311-0.489-0.88-0.987-1.707
		c-0.089-0.16-0.169-0.302-0.24-0.427C117.507,138.43,117.365,138.19,117.365,138.181z M112.084,128.713
		c0.089-0.063,0.182-0.125,0.28-0.187c0.702-0.436,1.143-0.653,1.32-0.653c0.338,0,0.929,0.355,1.773,1.067
		c0.88,0.755,1.32,1.329,1.32,1.72c0,0.4-0.151,1.178-0.453,2.334c-0.356,1.387-0.564,2.289-0.627,2.708h-0.24
		c-1.173-0.667-2.08-1.534-2.72-2.601c-0.551-0.916-0.827-1.831-0.827-2.747c0-0.631,0.018-1.04,0.054-1.227
		C111.981,128.993,112.021,128.855,112.084,128.713z M121.272,134.514c0-0.347,0.12-0.685,0.36-1.013
		c0.195-0.071,0.44-0.156,0.733-0.253c0.978-0.338,1.6-0.587,1.867-0.747c0,0.267,0.04,0.783,0.12,1.547
		c0.089,0.755,0.134,1.165,0.134,1.227c0,0.08-0.245,0.302-0.733,0.667c-0.516,0.382-0.907,0.573-1.174,0.573
		c-0.08,0-0.315-0.311-0.707-0.933C121.472,134.958,121.272,134.603,121.272,134.514z M119.405,129.379
		c0.436,0.053,0.756,0.138,0.96,0.253c0.525,0.293,0.787,0.916,0.787,1.867c0,0.436-0.253,0.774-0.76,1.014
		c-0.738,0.275-1.352,0.546-1.84,0.813c0-0.507-0.12-1.04-0.36-1.6c-0.231-0.56-0.347-0.916-0.347-1.067
		c0-0.071,0.28-0.329,0.84-0.773C118.96,129.664,119.201,129.495,119.405,129.379z M122.459,129.767
		c0.089-0.072,0.222-0.325,0.4-0.76c0.044-0.116,0.089-0.218,0.133-0.307c0.285,0,0.641,0.018,1.067,0.054
		c0.854,0.062,1.347,0.165,1.481,0.307c-0.116,0.089-0.316,0.431-0.601,1.027c-0.24,0.506-0.453,0.76-0.64,0.76
		c-0.231,0-0.573-0.155-1.026-0.466C123.122,130.273,122.85,130.069,122.459,129.767z M118.352,125.432
		c0.996,0.418,1.494,0.875,1.494,1.374c0,0.427-0.827,0.822-2.48,1.187c-0.195,0-0.551-0.2-1.067-0.6
		c-0.56-0.427-0.84-0.8-0.84-1.121c0-0.23,0.205-0.479,0.614-0.747c0.374-0.258,0.809-0.414,1.307-0.467
		C117.645,125.147,117.969,125.272,118.352,125.432z M123.513,126.752c0,0.16-0.04,0.298-0.12,0.413
		c-0.106,0.151-0.285,0.227-0.533,0.227c-0.293,0-0.822-0.271-1.587-0.814c-0.792-0.569-1.187-1.004-1.187-1.307
		c0-0.311,0.044-0.507,0.133-0.586c0.098-0.089,0.347-0.134,0.747-0.134c0.133,0,0.311,0.018,0.533,0.053
		c0.205,0.151,0.422,0.32,0.653,0.507C123.059,125.859,123.513,126.406,123.513,126.752z M131.981,147.53
		c0.293,0.462,0.48,0.743,0.56,0.84c-0.311,0.124-0.556,0.4-0.733,0.827c-0.089,0.24-0.236,0.64-0.44,1.2
		c-0.72-0.56-1.2-1.049-1.44-1.467c-0.213-0.374-0.311-0.809-0.293-1.307c0.472-0.311,1.089-0.609,1.854-0.894
		C131.532,146.818,131.696,147.085,131.981,147.53z M132.421,144.063c0,0.151-0.107,0.427-0.32,0.827
		c-0.222,0.4-0.427,0.693-0.614,0.88c-0.293-0.569-0.573-0.894-0.84-0.974c-0.151-0.044-0.227-0.253-0.227-0.627
		c0.044-0.658,0.08-1.173,0.106-1.547c0.106-0.026,0.187-0.04,0.24-0.04c0.106,0,0.387,0.155,0.84,0.466
		C132.15,143.422,132.421,143.76,132.421,144.063z M110.15,143.022c2.987,2.428,4.512,3.912,4.574,4.455
		c0.053,0.453-1.471,0.564-4.574,0.333c-0.773-0.063-1.649-0.142-2.627-0.24c-4.863-0.507-11.745-2.405-20.644-5.694
		c-2.979-1.094-5.41-2.085-7.295-2.974c-3.778-1.778-5.415-3.147-4.908-4.107c0.863-0.907,3.579-1.325,8.148-1.253
		c4.561,0.071,9.349,0.938,14.363,2.6c2.418,0.809,4.641,1.729,6.668,2.761c2.169,1.111,4.107,2.352,5.814,3.721
		C109.83,142.755,109.99,142.889,110.15,143.022z M130.181,155.064c0-0.24,0.155-0.568,0.467-0.986
		c0.125-0.152,0.28-0.352,0.467-0.601c0.018,0.019,0.044,0.031,0.08,0.04c0.427,0.24,1.032,0.623,1.814,1.146
		c-0.018,0.143-0.222,0.494-0.614,1.055c-0.311,0.426-0.377,0.821-0.2,1.186h-0.12c-0.063-0.124-0.405-0.439-1.027-0.945
		C130.47,155.486,130.181,155.189,130.181,155.064z M131.581,151.41c0.213,0.036,0.573,0.054,1.08,0.054v0.587
		c-0.08,0.168-0.12,0.408-0.12,0.72h-0.24c-0.302-0.151-0.502-0.36-0.6-0.626C131.621,151.957,131.581,151.713,131.581,151.41z
		 M134.595,154.784h1.627c-0.08,0.063-0.178,0.351-0.294,0.867c-0.142,0.577-0.205,1.036-0.187,1.374h-0.24
		c-0.16-0.16-0.417-0.334-0.773-0.521c-0.195-0.106-0.293-0.267-0.293-0.479C134.435,155.74,134.488,155.326,134.595,154.784z
		 M135.262,151.104c-0.16,0.115-0.311,0.298-0.454,0.547c-0.142,0.231-0.227,0.449-0.253,0.654c-0.24-0.223-0.445-0.414-0.613-0.574
		c-0.302-0.311-0.454-0.561-0.454-0.747c0-0.116,0.076-0.458,0.227-1.027c0.026-0.08,0.049-0.151,0.067-0.213
		C134.199,150.046,134.693,150.499,135.262,151.104z M127.914,151.838c0.374,0.018,0.636,0.035,0.787,0.053
		c0.8,0.133,1.293,0.467,1.48,1c-0.044,0.045-0.098,0.094-0.16,0.146c-0.187,0.17-0.431,0.369-0.733,0.601
		c-0.382,0.293-0.645,0.516-0.787,0.667c-0.044-0.178-0.24-0.453-0.587-0.827c-0.32-0.373-0.48-0.569-0.48-0.587
		C127.434,152.766,127.593,152.415,127.914,151.838z M127.78,150.397c-0.177,0.231-0.498,0.471-0.959,0.72
		c-0.525,0.293-0.872,0.524-1.041,0.693l-0.854-0.88c-0.382-0.453-0.574-0.871-0.574-1.253c0-0.081,0.125-0.298,0.374-0.654
		c0.196-0.089,0.427-0.187,0.694-0.293c0.782-0.302,1.298-0.578,1.546-0.827c-0.044,0.125,0.063,0.529,0.321,1.213
		C127.482,149.659,127.647,150.086,127.78,150.397z M128.034,147.437c-0.791-0.56-1.267-0.916-1.427-1.067
		c0.053-0.053,0.249-0.329,0.587-0.827c0.036-0.062,0.075-0.116,0.12-0.16c0.062,0.009,0.133,0.023,0.213,0.04
		c0.472,0.081,0.836,0.12,1.094,0.12c0,0.08-0.071,0.392-0.213,0.934c-0.125,0.534-0.173,0.854-0.147,0.96H128.034z
		 M119.938,143.222c0.089,0.036,0.191,0.071,0.307,0.107c0.569,0.205,1.107,0.351,1.614,0.44c0.044,0.169-0.049,0.48-0.28,0.934
		c-0.267,0.498-0.409,0.854-0.427,1.067c-0.205-0.098-0.52-0.409-0.947-0.934c-0.392-0.471-0.587-0.729-0.587-0.773
		C119.619,143.92,119.725,143.64,119.938,143.222z M122.099,143.355c0-0.16,0.16-0.48,0.48-0.96
		c0.098-0.143,0.253-0.378,0.467-0.707c0.382,0.16,0.875,0.351,1.48,0.573c0.916,0.409,1.374,0.832,1.374,1.267
		c0,0.009-0.378,0.44-1.134,1.293c-0.782,0.872-1.2,1.347-1.253,1.427C122.57,144.418,122.099,143.454,122.099,143.355z
		 M127.273,141.195c0.009,0,0.498-0.098,1.467-0.293c-0.161,0.791-0.24,1.507-0.24,2.147h-0.721
		c-0.854,0.062-1.324-0.285-1.414-1.041c0.027-0.249,0.049-0.471,0.067-0.667C126.655,141.306,126.936,141.257,127.273,141.195z
		 M126.126,137.168c0-0.063,0.178-0.489,0.533-1.28c0.081-0.169,0.151-0.325,0.214-0.467c0.329,0.089,0.755,0.33,1.28,0.72
		c0.604,0.454,0.956,0.858,1.053,1.214c-0.311,0.222-0.569,0.409-0.773,0.56c-0.347,0.258-0.556,0.587-0.626,0.987
		c0,0.036-0.009,0.08-0.027,0.133c-0.044-0.053-0.084-0.098-0.12-0.133c-0.445-0.427-0.765-0.738-0.96-0.934
		C126.317,137.577,126.126,137.31,126.126,137.168z M242.149,146.263c0,0.257-0.16,0.475-0.48,0.653
		c-0.319,0.196-0.712,0.293-1.173,0.293c-0.454,0-0.846-0.098-1.174-0.293c-0.32-0.178-0.48-0.396-0.48-0.653
		c0-0.267,0.16-0.494,0.48-0.681c0.328-0.177,0.72-0.267,1.174-0.267c0.461,0,0.854,0.089,1.173,0.267
		C241.989,145.77,242.149,145.996,242.149,146.263z M243.576,148.49c-0.08-0.088-0.12-0.2-0.12-0.333s0.04-0.249,0.12-0.347
		c0.098-0.089,0.213-0.134,0.347-0.134s0.245,0.045,0.333,0.134c0.09,0.098,0.134,0.213,0.134,0.347s-0.044,0.245-0.134,0.333
		c-0.088,0.089-0.199,0.134-0.333,0.134S243.674,148.579,243.576,148.49z M237.229,140.608c-2.383-1.814-4.943-3.761-7.682-5.841
		c-0.355-0.267-0.698-0.529-1.027-0.787c-1.769-1.404-3.195-2.676-4.28-3.814c1.209,0.48,2.636,1.222,4.28,2.227
		c2.241,1.352,4.891,3.178,7.949,5.481c9.396,6.677,19.52,11.002,30.365,12.976c-1.369,3.894-0.693,6.628,2.027,8.201
		c-2.178,3.468-2.196,6.192-0.054,8.175c-2.498,5.361-6.605,6.469-12.322,3.321c-22.298-16.083-37.625-25.219-45.981-27.405
		c-1.85-0.498-3.357-0.649-4.521-0.454c0.328-0.134,0.666-0.267,1.014-0.4c0.924-0.285,2.094-0.458,3.508-0.521
		c0.381-0.018,0.777-0.026,1.186-0.026c0.898-0.098,1.947-0.036,3.148,0.187c1.209,0.222,2.373,0.556,3.493,1
		c0.161,0.063,1.125,0.605,2.894,1.627c1.921,1.111,2.971,1.716,3.148,1.813c2.178,1.138,4.387,2.427,6.627,3.868
		c2.24,1.44,4.063,2.649,5.469,3.627c1.396,0.978,3.414,2.325,6.054,4.041c2.632,1.716,4.562,3.045,5.788,3.987
		c2.693,2.072,4.632,3.436,5.814,4.094c1.796,0.987,3.547,1.48,5.254,1.48c1.316,0,2.285-0.432,2.908-1.293
		c0.613-0.863,0.946-2.116,1-3.762c0.035-1.653-0.01-2.92-0.134-3.801c-0.124-0.889-0.355-1.885-0.693-2.986
		c-0.329-1.12-0.511-1.721-0.547-1.801c-0.472-0.836-1.124-1.432-1.96-1.787c-0.827-0.364-1.863-0.586-3.107-0.666
		c-1.254-0.09-3.228-0.756-5.922-2c-2.702-1.254-5.063-2.574-7.08-3.961C241.824,144.014,239.62,142.413,237.229,140.608z
		 M254.792,155.197c0.267,0.418,0.399,0.934,0.399,1.547c0,0.605-0.133,1.121-0.399,1.548s-0.587,0.64-0.96,0.64
		c-0.383,0-0.707-0.213-0.975-0.64c-0.266-0.427-0.399-0.942-0.399-1.548c0-0.613,0.134-1.129,0.399-1.547
		c0.268-0.426,0.592-0.639,0.975-0.639C254.205,154.559,254.525,154.771,254.792,155.197z M249.591,153.117
		c-0.08,0.348-0.355,0.583-0.827,0.707c-0.462,0.143-0.982,0.139-1.561-0.014c-0.568-0.159-1.018-0.412-1.346-0.76
		c-0.339-0.347-0.463-0.689-0.375-1.027c0.099-0.337,0.379-0.568,0.841-0.693c0.454-0.142,0.97-0.137,1.548,0.014
		c0.568,0.151,1.018,0.404,1.346,0.76C249.564,152.441,249.688,152.779,249.591,153.117z M232.961,141.155
		c0.284-0.151,0.623-0.226,1.014-0.226s0.729,0.075,1.014,0.226c0.267,0.169,0.399,0.369,0.399,0.601
		c0,0.223-0.133,0.414-0.399,0.573c-0.285,0.169-0.623,0.254-1.014,0.254s-0.729-0.085-1.014-0.254c-0.268-0.16-0.4-0.351-0.4-0.573
		C232.561,141.524,232.693,141.324,232.961,141.155z M212.797,123.405c-0.223,0.036-0.414,0.063-0.573,0.081
		c-0.081,0.098-0.165,0.204-0.253,0.32c-0.428,0.56-0.649,0.849-0.667,0.867c0.115,0.044,0.431,0.205,0.946,0.48
		c0.48,0.24,0.773,0.36,0.881,0.36c0.781,0,1.302-0.258,1.56-0.773c0.134-0.258,0.218-0.747,0.253-1.467h-0.319
		C214.108,123.271,213.5,123.316,212.797,123.405z M210.463,124.112v-0.747c-0.24-0.125-0.627-0.223-1.16-0.293
		c-0.48-0.071-0.871-0.125-1.174-0.16c-0.222-0.044-0.391-0.076-0.506-0.093c-0.107,0.151-0.219,0.315-0.334,0.494l-0.573,0.84
		c0,0.222,0.28,0.658,0.84,1.307c0.044,0.063,0.094,0.125,0.147,0.187c0.115-0.044,0.239-0.084,0.373-0.12
		c0.018-0.009,0.035-0.018,0.053-0.026c0.818-0.276,1.565-0.489,2.24-0.641C210.369,124.485,210.4,124.236,210.463,124.112z
		 M205.262,123.565c-0.275-0.311-0.453-0.467-0.533-0.467c-0.258-0.009-0.721,0.258-1.387,0.8c-0.427,0.347-0.782,0.618-1.066,0.813
		c0.053,0.098,0.154,0.409,0.307,0.934l0.24,0.907l2.533,0.054c0-0.285,0.098-0.747,0.293-1.387c0.205-0.622,0.32-0.969,0.348-1.041
		C205.809,124.099,205.564,123.894,205.262,123.565z M211.609,141.849c0.055,0.098,0.08,0.062,0.08-0.106
		C211.609,141.751,211.583,141.787,211.609,141.849z M50.845,85.917c-0.267-0.088-0.445-0.142-0.534-0.16
		c-0.142-0.036-0.693-0.053-1.653-0.053c-1.672,0-3.321,0.515-4.948,1.546c-1.787,1.139-2.858,2.517-3.214,4.134
		c-0.454-0.302-0.929-0.484-1.427-0.546c-0.187-0.027-0.702-0.04-1.547-0.04c-0.542,0-1.391,0.12-2.547,0.36
		c-0.525,0.116-0.965,0.222-1.32,0.32c0.56-1.654,1.956-2.992,4.188-4.014c2.391-1.094,5.107-1.734,8.148-1.92
		C48.809,85.357,50.427,85.482,50.845,85.917z M46.564,94.786c0.027-3.067,1.681-4.796,4.961-5.188
		C51.756,92.781,50.103,94.51,46.564,94.786z M60.714,93.986c0-0.418-0.031-0.805-0.093-1.16c0.213-0.071,0.458-0.156,0.733-0.253
		c0.454-0.16,0.924-0.24,1.413-0.24c0.561,0,0.894,0.08,1,0.24c0.098,0.169,0.347,0.778,0.747,1.827c-0.027,0-0.04,0.013-0.04,0.04
		c-0.018,0-0.027,0.009-0.027,0.027c-0.125,0.035-0.351,0.24-0.68,0.613c-0.32,0.347-0.507,0.52-0.56,0.52
		c-0.089,0-0.36-0.111-0.813-0.333c-0.578-0.275-0.898-0.422-0.96-0.44C61.016,94.657,60.776,94.377,60.714,93.986z M53.339,95.359
		c0.347-0.089,0.729-0.133,1.147-0.133c0.444,0,0.849,0.222,1.213,0.667c0.356,0.427,0.534,0.894,0.534,1.4
		c0,0.071-0.236,0.182-0.707,0.333c-0.498,0.143-0.924,0.213-1.28,0.213c-0.4,0-0.765-0.218-1.093-0.653
		c-0.365-0.48-0.485-1.018-0.36-1.614C52.988,95.484,53.17,95.413,53.339,95.359z M55.953,92.012
		c0.098-0.018,0.409-0.027,0.934-0.027c0.231,0,0.387,0.005,0.467,0.014c0.267,0.053,0.444,0.182,0.533,0.387
		c0.098,0.249,0.285,0.52,0.561,0.813c0.222,0.258,0.333,0.422,0.333,0.493c0,0.063-0.04,0.231-0.12,0.507
		c-0.08,0.285-0.12,0.449-0.12,0.494c-0.151,0-0.454,0.053-0.907,0.16C57.188,94.951,56.909,95,56.793,95
		c-0.125,0-0.409-0.16-0.854-0.48c-0.355-0.151-0.56-0.253-0.613-0.307c-0.027-0.035-0.041-0.275-0.041-0.72l0.067-1.2
		C55.735,92.114,55.935,92.021,55.953,92.012z M55.446,88.905c-0.026-0.035-0.04-0.275-0.04-0.72c0.009-0.195,0.022-0.369,0.04-0.52
		c0.88,0,1.472,0.054,1.774,0.16c0.676,0.249,1.173,0.867,1.494,1.854v1.174c-0.063,0-0.249-0.049-0.56-0.146
		c-0.303-0.098-0.529-0.147-0.68-0.147c-0.32,0.071-0.498,0.089-0.534,0.053c-0.071-0.169-0.289-0.462-0.653-0.88
		C55.788,89.261,55.508,88.985,55.446,88.905z M61.381,87.958c1.244,0,2.04,0.022,2.387,0.067c1.103,0.169,1.591,0.56,1.467,1.173
		c-0.293,0.48-0.835,0.862-1.626,1.147c-0.721,0.267-1.49,0.4-2.308,0.4l-0.893-0.36c-0.587-0.24-0.934-0.36-1.041-0.36
		c-0.036-0.907-0.053-1.561-0.053-1.96c0.142-0.009,0.311-0.022,0.507-0.04C60.416,87.98,60.936,87.958,61.381,87.958z
		 M44.737,94.319c-0.187-4.196,1.858-6.023,6.135-5.481C47.725,89.709,45.68,91.537,44.737,94.319z M35.055,91.919
		c0.498-0.036,1.601-0.053,3.308-0.053c1.342,0,2.138,0.249,2.387,0.747c0.231,0.498,0.471,1.223,0.72,2.174
		c0.257,0.934,0.56,1.542,0.907,1.827c0.329,0.276,0.809,0.512,1.44,0.707c0.631,0.205,1.294,0.369,1.987,0.494
		c1.449,0.267,2.521,0.773,3.214,1.52c0.427,0.454,1.156,1.338,2.187,2.654c0.996,1.271,1.805,2.231,2.427,2.881
		c2.063,2.143,4.174,3.214,6.334,3.214c0.063,0,0.125,0,0.187,0c-0.445,0.24-0.942,0.36-1.494,0.36
		c-2.019,0-3.948-0.316-5.788-0.947c-0.854-0.302-2.427-1.009-4.721-2.121c-2.018-0.987-3.801-1.698-5.348-2.134
		c-2.303-0.64-4.85-0.96-7.642-0.96c-1.298,0-2.152,0.027-2.561,0.08c-0.418,0.044-0.782,0.116-1.094,0.213
		c-0.16-0.711-0.267-1.285-0.32-1.72c-0.08-0.596-0.063-1.765,0.053-3.507c0.116-1.743,0.524-3.059,1.227-3.947
		c0.293-0.374,0.613-0.676,0.96-0.907C33.909,92.154,34.451,91.963,35.055,91.919z M62.487,101.387
		c-0.036-0.311-0.062-0.551-0.08-0.72c0.134-0.054,0.352-0.173,0.654-0.36c0.427-0.285,0.729-0.485,0.907-0.6
		c0.071,0.133,0.218,0.338,0.44,0.613l0.854,1.28c0,0.071-0.129,0.302-0.387,0.694c-0.311,0.444-0.516,0.791-0.614,1.04
		c-0.257-0.142-0.524-0.293-0.8-0.454c-0.356-0.231-0.649-0.449-0.88-0.653C62.554,102.041,62.523,101.761,62.487,101.387z
		 M59.434,99.267c0.213,0,0.511,0.16,0.893,0.48c0.462,0.409,0.912,0.703,1.347,0.88c0,1.103-0.08,1.711-0.24,1.827
		c-0.151,0.143-0.769,0.32-1.854,0.534c-0.009,0-0.4-0.253-1.173-0.76c-0.783-0.516-1.29-0.773-1.521-0.773
		c-0.062-0.311-0.098-0.72-0.107-1.227c0.303-0.115,0.703-0.28,1.201-0.493C58.727,99.422,59.211,99.267,59.434,99.267z
		 M61.741,98.12v0.2c-0.045,0-0.302,0.058-0.774,0.173c-0.48,0.125-0.804,0.187-0.973,0.187c-0.036,0-0.578-0.24-1.627-0.72v-1.014
		c0.133-0.071,0.28-0.151,0.44-0.24c0.516-0.267,0.894-0.4,1.134-0.4c0.329,0,0.688,0.16,1.08,0.48
		C61.5,97.16,61.741,97.604,61.741,98.12z M37.962,108.055c-1.004-1.6-2.014-2.743-3.027-3.427c1.076,0.205,2.796,1.378,5.161,3.521
		c4.054,3.965,8.762,6.673,14.123,8.122c7.913,0.872,13.958,3.125,18.137,6.762c0.178,0.143,0.351,0.293,0.52,0.454
		c3.503,3.796,7.419,6.321,11.749,7.575c-2.818-0.027-5.961-1.427-9.429-4.201c-0.96-0.845-1.907-1.583-2.84-2.213
		c-1.352-0.907-2.685-1.569-4.001-1.988c-0.987-0.462-2.009-0.884-3.067-1.267c-11.576,0.454-19.809,4.734-24.698,12.843
		c2.534-7.113,7.672-12.153,15.417-15.123C48.68,117.715,42.666,114.03,37.962,108.055z M54.513,100.721
		c0,0.151-0.044,0.489-0.134,1.014c-0.106,0.516-0.16,0.818-0.16,0.907c-0.507,0-1.156,0.04-1.947,0.12
		c-0.018-0.054-0.329-0.556-0.933-1.507c-0.561-0.889-0.841-1.44-0.841-1.653c0-0.24,0.076-0.6,0.227-1.081
		c0.053-0.16,0.102-0.293,0.147-0.4c0.249,0.08,0.635,0.142,1.16,0.187c0.436,0.044,0.751,0.169,0.947,0.374
		c0.018,0.018,0.28,0.32,0.787,0.907C54.264,100.192,54.513,100.569,54.513,100.721z M57.727,103.814c0.56,0.4,1,0.569,1.32,0.507
		c-0.089,0.312-0.267,0.894-0.534,1.747h-0.146c-0.24-0.054-0.547-0.106-0.92-0.16c-0.195-0.026-0.404-0.058-0.627-0.093
		c-0.524-0.063-0.791-0.107-0.8-0.133c-0.125-0.302-0.258-0.6-0.4-0.894c-0.133-0.293-0.275-0.574-0.427-0.84
		c-0.089-0.169-0.168-0.315-0.24-0.44c0.187-0.063,0.409-0.133,0.667-0.213c0.205-0.089,0.431-0.173,0.68-0.253
		c0.089,0.018,0.191,0.044,0.307,0.08c0.115,0.026,0.222,0.053,0.32,0.08c0.16,0.125,0.333,0.258,0.52,0.4
		C57.535,103.664,57.629,103.734,57.727,103.814z M63.821,103.908l0.08,1.467l-1.44,1.76c-0.062-0.107-0.302-0.311-0.72-0.613
		c-0.445-0.32-0.743-0.467-0.894-0.44l0.68-1.907l1.414-0.267H63.821z M46.978,96.466c3.841-1.538,5.943-4.019,6.308-7.441
		C54.726,93.861,52.623,96.342,46.978,96.466z M69.942,99.147h0.173c0,0.213,0.058,0.711,0.173,1.494
		c0,0.133-0.231,0.484-0.693,1.054c-0.249,0.32-0.667,0.84-1.254,1.56h-0.747c-0.089-0.009-0.28-0.026-0.574-0.053
		c-0.267-0.027-0.417-0.04-0.453-0.04c-0.213,0.053-0.36,0.08-0.44,0.08v-0.04c0-0.08-0.018-0.249-0.053-0.507
		c-0.044-0.276-0.066-0.524-0.066-0.747c0-0.454,0.04-0.734,0.12-0.84c0.196-0.133,0.391-0.338,0.587-0.613
		c0.196-0.267,0.436-0.521,0.72-0.76c0.026-0.018,0.049-0.031,0.066-0.04c0.196-0.044,0.498-0.111,0.907-0.2
		C69.155,99.307,69.667,99.191,69.942,99.147z M69.996,96.013c0.436,0.204,0.653,0.351,0.653,0.44c0,0.222-0.116,0.8-0.347,1.733
		c-0.187-0.08-0.454-0.151-0.8-0.213c-0.355-0.063-0.68-0.094-0.974-0.094c0.018-0.106,0.014-0.391-0.013-0.853
		c-0.026-0.454-0.04-0.689-0.04-0.707c0-0.116,0.107-0.222,0.32-0.32c0.062-0.018,0.28-0.084,0.653-0.2
		C69.591,95.853,69.773,95.924,69.996,96.013z M76.917,96.333c1.405,0.462,2.414,1.285,3.027,2.467
		c0.586,1.103,0.791,2.627,0.613,4.574c-0.178,1.929-0.422,3.925-0.733,5.988s-0.756,3.712-1.334,4.948v-0.054
		c0.409-1.689,0.614-3.423,0.614-5.201c0-0.818-0.049-2.338-0.146-4.561c-0.107-2.143-0.178-3.33-0.213-3.561
		c-0.151-0.836-0.431-1.703-0.84-2.601C77.459,97.462,77.13,96.795,76.917,96.333z M73.303,94.733
		c0.062-0.018,0.138-0.027,0.227-0.027c0.56,0,1.093,0.222,1.6,0.667c0.373,0.32,0.756,0.862,1.147,1.627
		c0.4,0.765,0.671,1.471,0.813,2.12c0.151,0.64,0.191,1.938,0.12,3.895c-0.08,1.956-0.48,4.263-1.201,6.921v-0.054
		c0.151-0.507,0.24-1.151,0.267-1.934c0.026-0.293,0.04-1.08,0.04-2.361c0-2.693-0.249-4.867-0.747-6.521
		C75.134,97.582,74.379,96.138,73.303,94.733z M70.022,92.266c0.702,0,1.307,0.573,1.813,1.72c0.222,0.498,0.396,0.982,0.52,1.454
		c0.178,0.623,0.271,1.223,0.28,1.8c0.027,0.88-0.066,1.858-0.28,2.934c-0.027,0.16-0.063,0.325-0.106,0.494
		c-0.293,1.253-0.561,2.271-0.8,3.054c0.205-0.747,0.32-1.249,0.347-1.507c0.009-0.151,0.013-0.689,0.013-1.614
		c0-1.84-0.209-3.539-0.626-5.094c-0.32-1.227-0.769-2.298-1.347-3.214C69.88,92.274,69.942,92.266,70.022,92.266z M67.062,91.119
		c0.347,0.205,0.685,0.374,1.014,0.507c0.596,0.24,0.894,0.88,0.894,1.92c0,0.267-0.076,0.431-0.227,0.494
		c-0.223,0.053-0.405,0.093-0.547,0.12c-0.205,0.071-0.396,0.133-0.574,0.187c-0.347,0.116-0.569,0.173-0.667,0.173
		c-0.107,0-0.72-0.338-1.841-1.014c-0.364-0.205-0.542-0.671-0.533-1.4c0.027-0.258,0.053-0.471,0.08-0.64
		c0.106-0.044,0.235-0.089,0.387-0.133c0.747-0.24,1.196-0.36,1.347-0.36C66.688,90.972,66.911,91.021,67.062,91.119z
		 M67.008,97.187c-0.098,0.418-0.156,0.8-0.173,1.147v0.693c-0.222-0.026-0.667,0.014-1.333,0.12
		c-0.703,0.125-1.111,0.187-1.227,0.187c-0.053-0.32-0.16-0.818-0.32-1.494c-0.098-0.436-0.173-0.76-0.227-0.973
		c0.4-0.258,0.68-0.436,0.84-0.534c0.293-0.178,0.516-0.267,0.667-0.267l0.733,0.307c0.525,0.213,0.872,0.352,1.041,0.414V97.187z
		 M79.518,95.906c5.272,3.139,7.125,10.913,5.561,23.325C84.794,108.731,82.94,100.956,79.518,95.906z M65.821,139.688
		c-0.027,0.116-0.049,0.231-0.067,0.347c-0.346,2.071-0.52,3.863-0.52,5.375c0,6.348,0.694,11.334,2.081,14.963
		c0.338,0.896,0.809,2.125,1.414,3.68c0.427,1.379,0.64,2.93,0.64,4.654c0,1.557-0.551,3.031-1.654,4.428
		c-1.289,1.653-2.925,2.48-4.907,2.48c-0.409,0-0.947-0.014-1.614-0.04c-1.022-0.036-1.81-0.098-2.361-0.187
		c-0.729-0.133-1.542-0.352-2.44-0.654c-0.764-0.257-1.2-0.448-1.307-0.572c0.116,0.025,0.298,0.066,0.547,0.119
		c0.453,0.107,0.773,0.16,0.96,0.16c2.125,0,4.059-0.511,5.801-1.533c1.974-1.174,2.96-2.654,2.96-4.441
		c0-0.328-0.293-2.84-0.88-7.535c-0.596-4.685-0.894-7.822-0.894-9.414c0-2.063,0.298-4.428,0.894-7.095
		C64.857,142.715,65.306,141.138,65.821,139.688z M61.86,157.679c0.542,1.022,0.813,1.712,0.813,2.067
		c0,0.426-0.125,0.738-0.373,0.934c-0.587-0.312-1.103-0.734-1.547-1.268c-0.694-0.809-1.041-1.725-1.041-2.747
		c0-0.276,0.022-0.472,0.067-0.587s0.125-0.173,0.24-0.173C60.598,155.905,61.211,156.496,61.86,157.679z M39.669,139.995
		c2.845-6.756,7.513-11.504,14.003-14.242c4.054-1.574,8.135-1.947,12.242-1.12c-6.019,0.533-10.989,2.129-14.909,4.787
		c-11.833,8.082-14.221,19.102-7.162,33.06C37.594,155.855,36.202,148.361,39.669,139.995z M56.06,171.135
		c0.311,0.063,0.467,0.15,0.467,0.267c0,0.24-0.12,0.444-0.36,0.613c-0.205,0.159-0.418,0.24-0.64,0.24
		c-0.187,0.018-0.307,0.018-0.36,0c-0.08-0.019-0.12-0.106-0.12-0.267c0-0.25,0.089-0.449,0.267-0.601
		c0.053-0.044,0.218-0.142,0.494-0.293C55.886,171.104,55.97,171.117,56.06,171.135z M56.62,165.213
		c0.284,0,0.556,0.022,0.813,0.066c0.125,0.072,0.231,0.152,0.32,0.24c0.187,0.178,0.427,0.489,0.72,0.934
		c0.133,0.134,0.333,0.467,0.6,1c0.311,0.614,0.467,1.059,0.467,1.334c0,0.258-0.018,0.427-0.053,0.507
		c-0.071,0.16-0.338,0.253-0.8,0.28c-0.48,0.026-1.133-0.355-1.96-1.146c-0.854-0.81-1.227-1.428-1.12-1.854
		c0.106-0.437,0.218-0.774,0.333-1.014C56.055,165.328,56.282,165.213,56.62,165.213z M61.714,163.572l1.24,0.613
		c0.107,0.125,0.196,0.254,0.267,0.388c0.071,0.098,0.173,0.378,0.307,0.841c0.16,0.479,0.24,0.834,0.24,1.066
		c0,0.568-0.169,0.854-0.507,0.854c-0.293,0-0.724-0.254-1.293-0.76c-0.631-0.578-0.947-1.111-0.947-1.602
		c0-0.24,0.062-0.516,0.187-0.826C61.332,163.799,61.5,163.608,61.714,163.572z M58.313,161.785
		c0.071-0.115,0.147-0.195,0.227-0.239c0.329,0,0.604,0.196,0.827,0.587c0.195,0.338,0.293,0.702,0.293,1.094
		c0,0.293-0.04,0.542-0.12,0.746c-0.098,0.275-0.262,0.414-0.493,0.414c-0.196,0-0.405-0.178-0.627-0.533
		c-0.24-0.392-0.36-0.796-0.36-1.215C58.06,162.311,58.145,162.025,58.313,161.785z M110.99,120.791
		c-3.592,5.655-8.802,6.583-15.63,2.788C101.797,125.161,107.007,124.232,110.99,120.791z"/>
</g>
</svg>
