<?xml version="1.0" encoding="utf-8"?>
<!-- Generator: Adobe Illustrator 16.0.0, SVG Export Plug-In . SVG Version: 6.00 Build 0)  -->
<!DOCTYPE svg PUBLIC "-//W3C//DTD SVG 1.1//EN" "http://www.w3.org/Graphics/SVG/1.1/DTD/svg11.dtd">
<svg version="1.1" id="Layer_1" xmlns="http://www.w3.org/2000/svg" xmlns:xlink="http://www.w3.org/1999/xlink" x="0px" y="0px"
	 width="300px" height="300px" viewBox="0 0 300 300" enable-background="new 0 0 300 300" xml:space="preserve">
<g>
	<path fill-rule="evenodd" clip-rule="evenodd" fill="#09446B" d="M10.054,140.646c0.826-1.993,1.854-3.847,3.084-5.561
		c0.28-0.404,0.561-0.771,0.841-1.098c0-0.031,0.007-0.063,0.023-0.094c2.43-14.734,12.951-20.131,31.564-16.19
		c7.741,1.511,15.871,4.112,24.391,7.804c3.691,1.401,6.783,2.538,9.275,3.41c0.358-0.467,0.872-0.957,1.542-1.472
		c0.686-0.561,1.55-1.16,2.594-1.799c3.426-2.056,6.479-3.068,9.158-3.037c0.607-0.047,1.191-0.078,1.752-0.094
		c6.837-14.018,16.767-26.097,29.788-36.236l1.752-1.378c0.53-0.405,1.059-0.795,1.588-1.169l3.294-2.289
		c0.031-0.031,0.078-0.063,0.14-0.094c10.529-6.962,22.265-11.292,35.208-12.989c-1.619,1.184-3.217,2.812-4.79,4.883
		c-0.482,0.607-2.243,3.31-5.28,8.106c-0.747,1.169-1.58,2.477-2.499,3.925c-3.271,5.203-6.339,9.003-9.206,11.401
		c-4.019,3.365-8.559,5.047-13.621,5.047c-3.162,0-6.464-0.561-9.906-1.682c-0.638-0.219-1.238-0.437-1.799-0.655
		c-1.9-0.778-3.372-1.65-4.416-2.616c-6.604,7.741-11.799,15.778-15.583,24.111c1.464,0.218,2.196,1.168,2.196,2.851
		c0.14,0.809,0.257,1.331,0.351,1.564c0.623,1.418,2.219,2.641,4.789,3.668c1.838,0.732,5.39,1.698,10.654,2.897
		c0.701,0.155,1.371,0.312,2.009,0.467c3.972,0.966,6.814,1.838,8.528,2.617c3.193,1.448,4.789,3.255,4.789,5.42
		c0,0.997-0.95,2.726-2.85,5.187c-1.9,2.477-2.851,4.479-2.851,6.005c0,1.059,1.161,1.846,3.481,2.359
		c1.511,0.327,3.076,0.49,4.696,0.49c1.418,0,2.336-0.935,2.757-2.803c0.093-0.421,0.28-2.461,0.561-6.121
		c0.218-2.804,0.724-4.86,1.519-6.168c1.106-1.869,2.936-2.804,5.49-2.804c3.66,0,6.775,0.747,9.346,2.242
		c2.647,1.542,3.972,3.45,3.972,5.725c0,0.545-0.911,3.613-2.733,9.205c-1.838,5.592-2.757,9.4-2.757,11.425
		c0,1.323,0.584,2.32,1.752,2.99c0.903,0.482,1.978,0.725,3.224,0.725c2.29,0,3.536-1.254,3.738-3.762
		c0.063-0.856,0.031-2.142-0.094-3.855c-0.202-2.32-0.311-3.792-0.326-4.415c-0.125-3.707,0.545-6.464,2.009-8.271
		c2.024-2.523,5.708-3.785,11.051-3.785c4.283,0,7.32,0.156,9.111,0.467c1.278,0.234,5.546,1.316,12.804,3.248
		c2.305,0.607,4.111,2.024,5.42,4.252c1.184,2.01,1.775,4.314,1.775,6.916c0,0.935-0.125,2.305-0.373,4.111
		c-0.25,1.808-0.375,3.341-0.375,4.603c0,1.714,0.25,2.866,0.748,3.458c0.514,0.67,1.589,1.005,3.225,1.005
		c1.418,0,2.414-0.335,2.99-1.005c0.498-0.545,0.748-1.448,0.748-2.71c0-0.063-0.25-4.12-0.748-12.172
		c0-3.271,1.324-5.429,3.972-6.473c1.714-0.653,4.859-0.98,9.438-0.98c3.598,0,6.55,0.724,8.855,2.172
		c1.697,1.06,3.178,2.656,4.438,4.79c0.7,1.152,1.62,2.741,2.757,4.766c1.028,1.449,2.274,2.173,3.738,2.173
		c0.903,0,1.441-0.654,1.612-1.962c0-1.371,0-2.126,0-2.267c0-1.09-0.211-2.539-0.631-4.346c-0.421-1.822-0.631-3.231-0.631-4.229
		c0-4.579,2.398-7.679,7.196-9.299c3.021-1.012,7.756-1.519,14.204-1.519c2.586,0,4.673,0.21,6.262,0.631
		c0.685,6.417,0.779,13.239,0.28,20.466c0.717,0.515,1.464,1.005,2.242,1.473c0.889,0.545,1.808,1.066,2.758,1.565
		c1.074,0.545,2.196,1.066,3.364,1.565c1.137,0.482,2.273,0.91,3.411,1.285c2.398,0.81,4.758,1.378,7.079,1.705
		c0.467,0.063,0.935,0.124,1.401,0.187c-0.437,0.529-0.903,1.036-1.401,1.519c-1.823,1.714-4.183,3.068-7.079,4.065
		c-0.141,0.047-0.28,0.094-0.421,0.141c-1.978,0.653-4.096,1.121-6.354,1.401c-1.387,0.187-2.843,0.296-4.369,0.327
		c0.047,0.047,0.102,0.108,0.163,0.187c1.122,1.526,2.398,3.77,3.832,6.729c0.125,0.265,0.249,0.537,0.374,0.817
		c3.473,7.305,5.21,13.138,5.21,17.499c0,1.433-0.265,3.676-0.795,6.729c-0.592,2.368-1.511,4.556-2.757,6.564
		c-0.498,0.811-1.051,1.566-1.658,2.267c-1.371,1.651-2.982,2.99-4.836,4.019c-3.536,1.994-7.937,2.921-13.2,2.78h-6.706
		c-5.124-0.576-9.064-1.503-11.822-2.78c-1.168-0.529-2.125-1.129-2.873-1.799c-0.482-0.437-0.904-0.935-1.262-1.495
		c-0.063-0.047-0.109-0.094-0.141-0.141c-0.123-0.108-0.186-0.28-0.186-0.514c-0.5-1.09-0.748-2.375-0.748-3.855
		c0-0.872,0.171-2.219,0.514-4.041c0.109-0.607,0.218-1.13,0.327-1.565c-0.778,0.187-1.597,0.28-2.453,0.28
		c-2.134,0-4.097-0.249-5.888-0.748c-0.156-0.031-0.304-0.069-0.443-0.117c-3.084-0.934-5.662-2.616-7.734-5.046
		c-1.152-1.339-2.055-2.812-2.709-4.416c-0.499-1.229-0.748-2.172-0.748-2.826c0-0.28,0.008-0.529,0.023-0.748
		c-2.258,0.935-4.945,1.83-8.061,2.687c-19.672,4.33-40.886,3.107-63.642-3.668c-0.592,1.355-1.355,2.578-2.29,3.668
		c-2.414,2.913-5.545,4.494-9.392,4.743c-0.015,0-0.031,0-0.046,0c-0.016,0.031-0.023,0.07-0.023,0.116
		c-0.39,5.841-1.402,9.969-3.038,12.383c-1.791,2.617-4.976,3.926-9.555,3.926c-0.063,0-0.125,0-0.187,0
		c-1.526-0.016-2.858-0.242-3.995-0.678c-0.125,0.249-0.265,0.498-0.42,0.747c-0.078,0.25-0.179,0.476-0.304,0.678
		c-0.234,0.374-0.538,0.701-0.911,0.981c-0.063,0.047-0.117,0.102-0.164,0.163c-1.869,1.979-4.112,2.968-6.729,2.968
		c-2.632,0-4.883-0.989-6.752-2.968c-1.324-1.417-2.173-3.037-2.547-4.859c-0.389,0.561-0.88,1.06-1.472,1.495
		c-1.137,0.826-2.461,1.238-3.972,1.238c-4.424,0-8.271-2.531-11.542-7.593c-0.343-0.529-0.67-1.067-0.981-1.612
		c-0.794-1.417-1.464-2.912-2.009-4.485c-0.654-1.869-0.981-3.364-0.981-4.486c0-4.922,2.726-11.035,8.177-18.34
		c2.741-3.458,4.618-5.825,5.63-7.103c1.698-2.181,2.546-3.566,2.546-4.158c0-1.729-3.956-3.848-11.869-6.354
		c-7.71-2.462-15.264-4.112-22.662-4.954h-10.49c-0.109,0.048-0.615,0.141-1.519,0.281c-0.312,0.047-0.592,0.093-0.841,0.14
		c-1.744,1.558-4.478,2.337-8.2,2.337c-11.199,0-19.212-2.15-24.041-6.448c-2.819-2.523-4.229-5.195-4.229-8.014
		C8.676,144.93,9.135,142.921,10.054,140.646z M12.671,150.412c1.122,1.371,2.617,2.633,4.486,3.785
		c4.719,2.929,10.288,4.322,16.705,4.182h6.612c1.651-0.108,3.24-0.949,4.766-2.522c1.371-1.387,2.009-3.123,1.916-5.21
		c0,0.016,0.007,0.031,0.023,0.046c0.358,0.686,0.444,1.434,0.257,2.243c0,1.495-0.265,2.788-0.794,3.879
		c9.283-1.963,21.237-0.297,35.862,5c4.688,2.009,8.948,3.379,12.78,4.111c0.53,0.094,1.067,0.179,1.612,0.257
		c1.479,0.188,2.85,0.28,4.112,0.28c4.688,0,3.979,1.628-2.126,4.883c-6.137,3.24-10.56,6.628-13.271,10.163
		c-5.467,7.383-8.2,13.255-8.2,17.616c0,2.445,0.716,4.898,2.149,7.359c0.389-1.215,0.965-2.118,1.729-2.71
		c0.716-0.515,1.682-0.85,2.897-1.005c0.654-0.094,1.861-0.14,3.621-0.14c3.396,0,6.308,1.58,8.738,4.742
		c0.343,0.437,0.662,0.903,0.958,1.402c0.483-1.262,1.207-2.415,2.173-3.458c0.233-0.265,0.482-0.506,0.748-0.725
		c-0.904,1.526-1.355,3.294-1.355,5.304c0,0.841,0.085,1.643,0.257,2.406c0.187,0.888,0.483,1.714,0.888,2.477
		c0.171,0.343,0.374,0.678,0.607,1.005c0.078-1.792,0.662-3.123,1.752-3.995c1.371-1.06,3.832-1.589,7.383-1.589
		c0.825,0,1.807-0.008,2.943-0.023c0.218,0,0.429,0.008,0.631,0.023c0-0.109,0-0.21,0-0.304c0-2.196-0.545-4.097-1.635-5.701
		c0.436,0.312,0.857,0.686,1.262,1.122c1.292,1.37,2.142,2.943,2.546,4.719c0.841,1.262,1.768,2.29,2.78,3.084
		c-0.265-0.576-0.592-1.184-0.981-1.822c-0.312-0.529-0.468-1.472-0.468-2.826c0-1.714,1.021-3.046,3.061-3.995
		c2.04-0.967,4.057-1.254,6.051-0.865c0.295,0.063,0.584,0.133,0.864,0.211l-0.724-4.275c0.109,0.016,0.21,0.031,0.303,0.046
		c3.006-0.03,5.576-0.451,7.71-1.262c0.233-0.342,0.351-0.638,0.351-0.887c-0.265-1.216-0.53-2.431-0.794-3.646
		c-0.514-2.43-0.771-3.769-0.771-4.019c0-1.308,0.67-2.483,2.009-3.527c0.919-0.717,2.095-1.324,3.528-1.822
		c-2.056-1.854-5.241-3.599-9.555-5.233h-0.024c-0.108-0.047-0.218-0.094-0.327-0.141c0.14,0.016,0.295,0.031,0.467,0.047
		c0.576,0.047,1.526,0.202,2.85,0.468c1.324,0.265,3.006,0.6,5.046,1.004c2.04,0.405,3.629,1.277,4.766,2.617
		c1.137,1.324,1.885,2.523,2.243,3.598l0.467,1.893c-0.031-0.016-0.063-0.023-0.093-0.023c0.015,0.141,0.023,0.288,0.023,0.443
		c0,0.515-0.109,1.153-0.327,1.917c27.709,6.884,50.146,7.919,67.31,3.106c2.461-0.686,4.805-1.487,7.032-2.406
		c0.654-0.171,1.246-0.351,1.775-0.537c-0.778,0.529-1.675,1.051-2.687,1.565v0.023c0.701,4.641,3.497,8.192,8.387,10.653
		c0.234-1.573,0.881-2.874,1.939-3.902c1.215-1.184,2.742-1.837,4.58-1.962c1.775-0.108,3.355,0.327,4.742,1.309
		c1.479,1.059,2.32,2.531,2.523,4.416v0.35c0.171-0.202,0.373-0.451,0.607-0.747c0.561-0.717,1.27-1.737,2.126-3.061
		c0.732-1.122,1.223-2.088,1.472-2.897c-0.031,0.233-0.069,0.475-0.117,0.725c-0.327,1.448-1.098,3.092-2.313,4.93
		c-0.437,0.669-0.888,1.27-1.355,1.799l0.188-0.188c-0.529,0.593-0.865,0.919-1.005,0.981c-0.95,0.872-2.001,1.526-3.153,1.963
		c-0.063,0.514-0.164,1.316-0.305,2.406c-0.249,2.056-0.373,3.247-0.373,3.574c0,0.857,0.124,1.644,0.373,2.36
		c0.374-0.358,0.881-0.756,1.52-1.191c1.76-1.2,3.488-1.8,5.187-1.8c2.663,0,4.773,0.943,6.331,2.827
		c0.779,0.966,1.339,2.025,1.682,3.178c0.063-0.047,0.257-0.296,0.584-0.748c0.313-0.482,0.662-0.88,1.052-1.191
		c1.324-1.059,3.364-1.588,6.121-1.588c2.196,0,3.73,0.396,4.603,1.191c0.452,0.436,0.841,0.965,1.168,1.588
		c0.141-0.233,0.476-1.004,1.005-2.313c0.421-0.981,0.904-1.752,1.448-2.313c1.62-1.697,4.774-2.577,9.463-2.64
		c0.062,0,0.116,0,0.163,0c-0.078-1.354,0.023-2.383,0.304-3.084c0.39-0.919,1.316-1.526,2.78-1.822
		c0.592-9.158-2.912-19.01-10.514-29.555c-0.078,0-0.147-0.008-0.21-0.023c-0.732-0.078-1.511-0.218-2.336-0.421
		c0.731-0.03,1.448-0.069,2.148-0.116c0.593-0.031,1.169-0.07,1.729-0.117c0.296-0.031,0.584-0.062,0.864-0.093
		c7.647-0.779,13.559-2.695,17.732-5.748c-7.351-0.108-13.637-1.799-18.854-5.069c-0.452,0.343-0.919,0.724-1.402,1.145
		c-2.772,2.632-4.664,4.307-5.677,5.023c-0.95,0.653-2.079,1.051-3.388,1.191c-0.686,0.078-1.932,0.078-3.738,0
		c-3.598-0.141-6.533,0.452-8.808,1.775c-2.664,1.542-5.779,3.481-9.346,5.817c-2.943,1.916-5.046,3.201-6.308,3.855
		c-3.645,1.854-8.66,2.78-15.047,2.78c-7.18,0-16.158-0.748-26.938-2.243c-13.285-1.869-24.648-3.107-34.086-3.715
		c-6.808-0.421-12.368-1.807-16.682-4.159c-2.679-1.448-5.63-3.87-8.854-7.266c-3.271-3.427-5.958-5.724-8.061-6.892
		c-0.81-0.468-1.674-0.88-2.593-1.239c-3.224-1.229-7.103-1.845-11.635-1.845c-0.203,0-1.542,0.077-4.019,0.233
		c-2.492,0.171-3.839,0.257-4.042,0.257c-1.215,0-2.811-1.207-4.789-3.621c-1.916-2.336-3.902-5.451-5.958-9.346
		c-2.507-4.672-4.579-9.329-6.214-13.971h-1.052c-3.224-0.903-6.386-1.994-9.485-3.271c-3.364-1.495-5.926-2.608-7.687-3.341
		c-6.542-2.772-14.446-5.015-23.713-6.729h-6.752c-8.146,1.168-13.247,3.754-15.303,7.757c-0.42,0.794-0.997,2.461-1.729,5
		c-0.015,0.093-0.039,0.187-0.07,0.28c0.467-0.125,1.846-0.725,4.135-1.8c0.093-0.03,0.187-0.069,0.28-0.116
		c1.246-0.592,2.757-1.309,4.533-2.149c-1.137,0.779-2.165,1.495-3.084,2.149c-0.623,0.437-1.199,0.849-1.729,1.238
		c-0.42,0.296-0.81,0.584-1.168,0.864c6.246-1.993,12.453-0.047,18.621,5.841c-8.458-5.935-15.825-6.729-22.102-2.383
		c-0.529,0.794-1.067,1.682-1.612,2.663c-2.149,3.863-3.224,6.799-3.224,8.809C11.152,147.99,11.659,149.12,12.671,150.412z
		 M36.945,124.105c0.716,0.141,1.339,0.476,1.869,1.005c0.748,0.748,1.121,1.644,1.121,2.687c0,0.312-0.039,0.607-0.117,0.888
		c-0.14,0.67-0.475,1.254-1.004,1.753c-0.732,0.747-1.62,1.121-2.664,1.121s-1.931-0.374-2.663-1.121
		c-0.732-0.717-1.098-1.597-1.098-2.641c0-1.043,0.366-1.938,1.098-2.687c0.732-0.732,1.62-1.099,2.663-1.099
		C36.431,124.012,36.696,124.043,36.945,124.105z M36.945,125.694c-0.171-0.047-0.358-0.07-0.561-0.07
		c-0.482,0-0.903,0.171-1.261,0.514c-0.343,0.343-0.514,0.764-0.514,1.262c0,0.483,0.171,0.896,0.514,1.239
		c0.358,0.342,0.779,0.514,1.261,0.514c0.467,0,0.857-0.156,1.168-0.468c0.031,0,0.055-0.016,0.07-0.046
		c0.358-0.343,0.537-0.756,0.537-1.239c0-0.498-0.179-0.919-0.537-1.262C37.436,125.936,37.21,125.788,36.945,125.694z
		 M122.408,107.985c3.753,0.825,6.425,1.237,8.013,1.237c1.558,0,4.026-0.373,7.407-1.121c3.395-0.748,5.318-1.121,5.771-1.121
		c0.981,0,1.604,0.249,1.869,0.748c0.156,0.311,0.234,1.098,0.234,2.359c0,0.171,0,0.335,0,0.49
		c-0.078,1.932-0.624,3.995-1.635,6.191c-0.624,1.387-1.737,3.59-3.341,6.612c-1.075,2.32-2.429,3.963-4.065,4.93
		c-1.449,0.841-3.364,1.262-5.748,1.262c-4.314,0-8.301-0.67-11.962-2.01c-0.203-0.078-0.405-0.156-0.607-0.234
		c-4.953-1.946-7.43-4.531-7.43-7.756s0.989-6.113,2.967-8.668c0.094-0.108,0.187-0.218,0.28-0.327
		c1.838-2.336,3.146-3.551,3.925-3.645c0.265,0.078,0.553,0.155,0.864,0.233C119.9,107.401,121.053,107.674,122.408,107.985z
		 M241.631,95.766L241.396,96c-2.133,1.619-4.158,3.442-6.074,5.467c-1.9,2.149-3.255,3.66-4.064,4.532
		c-1.355,1.448-2.625,2.469-3.809,3.061c-1.48,0.763-3.264,1.145-5.35,1.145c-6.184,0-10.686-0.662-13.505-1.985
		c-3.987-1.885-5.981-5.374-5.981-10.467c0-2.01,0.32-4.089,0.959-6.238c0.686-2.227,1.946-5.279,3.785-9.158
		c0.124-0.343,0.248-0.678,0.373-1.005c1.105-2.943,1.963-5.077,2.57-6.401c0.498-1.09,1.082-2.04,1.752-2.85
		c7.648,2.585,14.57,5.669,20.77,9.251c12.99,7.523,22.701,17.266,29.134,29.228c3.863,7.196,6.542,15.187,8.037,23.971
		c-0.639,0.203-1.284,0.405-1.938,0.607c-3.598,1.075-6.426,1.612-8.481,1.612c-3.364,0-6.214-0.67-8.551-2.01
		c-1.884-1.059-4.268-3.122-7.149-6.19c-2.149-2.306-3.979-5.094-5.49-8.364c-1.309-2.912-1.962-5.171-1.962-6.775
		c0-0.935,0.046-1.885,0.14-2.851c0.156-1.838,0.49-3.691,1.005-5.561C238.469,101.763,239.824,98.679,241.631,95.766z
		 M197.638,122.61c0-1.387,0.031-2.228,0.093-2.523c0.203-0.825,0.756-1.387,1.66-1.682h0.49c0.965-0.889,2.477-1.55,4.532-1.986
		c2.337-0.498,5.997-0.747,10.981-0.747c5.311,0,9.103,0.14,11.377,0.42c3.068,0.374,5.365,1.145,6.893,2.313
		c1.588,1.199,2.702,3.099,3.341,5.7c0.591,2.43,0.888,5.997,0.888,10.7c0,3.738-1.168,6.472-3.505,8.201
		c-2.243,1.65-5.763,2.477-10.56,2.477c-0.016,0-1.526-0.086-4.533-0.257c-2.99-0.156-5.078-0.234-6.262-0.234
		c-1.541,0-2.943-0.405-4.205-1.215c-0.451-0.296-1.448-1.137-2.99-2.523c-0.918-0.81-2.508-3.762-4.766-8.854
		C198.782,127.26,197.638,123.997,197.638,122.61z M153.574,104.014c0.561-0.203,1.254-0.305,2.08-0.305
		c0.95,0,3.1,0.709,6.447,2.126c3.443,1.434,5.18,2.15,5.211,2.15c2.477,0.343,5,0.615,7.569,0.817
		c1.464,0.109,3.513,0.249,6.145,0.42c2.616,0.203,4.859,0.654,6.729,1.355c2.539,0.981,4.368,2.438,5.49,4.369
		c1.433,2.492,2.149,7.196,2.149,14.111c0,3.613-0.326,6.184-0.98,7.71c-1.013,2.32-3.037,3.481-6.075,3.481
		c-2.569,0-6.519-0.327-11.845-0.981c-5.872-0.732-9.844-1.479-11.916-2.243c-2.881-1.012-4.961-1.737-6.237-2.173
		c-2.259-0.778-3.979-1.534-5.163-2.267c-3.162-1.993-4.743-5.271-4.743-9.836c0-0.871,0.109-2.289,0.327-4.252
		c0.203-2.056,0.421-3.574,0.654-4.556c0.249-1.043,0.592-2.165,1.028-3.364c0.187-0.576,0.405-1.168,0.654-1.775
		c0.109-0.312,0.227-0.607,0.351-0.888C152.289,105.921,152.998,104.621,153.574,104.014z M178.666,103.382
		c-2.133-0.42-6.168-1.386-12.102-2.896c-3.785-0.966-6.472-2.345-8.061-4.136c-1.572-1.76-2.359-4.236-2.359-7.429
		c0-2.103,0.74-4.626,2.219-7.57c0.654-1.339,1.473-2.757,2.453-4.252c2.353-3.645,4.829-6.643,7.43-8.995
		c12.804-1.37,26.752-0.218,41.844,3.458c-1.323,2.461-2.663,5.296-4.018,8.505c-0.188,0.404-0.374,0.833-0.561,1.284
		c-1.138,2.68-2.617,6.223-4.439,10.631c-1.854,4.081-3.637,7.063-5.351,8.947c-2.134,2.353-4.556,3.528-7.266,3.528
		C185.512,104.457,182.249,104.099,178.666,103.382z"/>
</g>
</svg>
