<?xml version="1.0" encoding="utf-8"?>
<!-- Generator: Adobe Illustrator 21.1.0, SVG Export Plug-In . SVG Version: 6.00 Build 0)  -->
<svg version="1.1" id="Layer_1" xmlns="http://www.w3.org/2000/svg" xmlns:xlink="http://www.w3.org/1999/xlink" x="0px" y="0px"
	 viewBox="0 0 612 792" enable-background="new 0 0 612 792" xml:space="preserve">
<g>
	<path fill="#121212" d="M455.4,214.4c0,0.1-0.1,0.1-0.1,0.2L455.4,214.4L455.4,214.4z M603,133.9c-0.9,1.7-2,3.6-3.4,4.8l0.1,0.6
		l-0.5,0.2c-14.3,17.4-29.9,32.5-46.2,48.1l0.2,0.1c-6.3,5.4-13.3,11.6-19.7,17.4c-4.2,4-8.2,6.9-11.9,11.3l-0.1-0.2
		c-12,11.3-25,23.3-37,35l-0.3-0.2c-2.3,2-4.6,4.8-7.7,7.4c-51,49-103,93.9-156.6,139.2l0.1,0.2c-3.8,2.8-6.3,5.5-10.3,8.5l0.1,0.3
		c-20.8,16.8-39.9,34.1-59.8,50.6c-8.3,7.4-15.9,14.2-23.6,21.7l0.1,0.2c0.5,0-0.3,0.2-0.3-0.2c-42.7,40.7-86.9,84.3-130,126.3
		l0.1,0.3c-3.2,2.6-6.5,6.8-9.5,9.4l0.1,0.1c-3.2,2.8-6.9,6.2-9.5,10l-0.2-0.2c-4.1,3.7-6.8,8-10.8,12c0.2,0.8-1.2,0.9-1.5,1.9
		c-3.8,4.2-6.9,8.3-10.2,12.6c1.1,6.5,0.3,14.2-4.8,18.8c-3.4,3.6-8.6,3.9-13.3,3.2c-7.7-1.1-12.3-8.8-17.1-13.7
		c-0.3-1.1-1.2-2.6-2.3-2.9c-4.8-8-14.2-16.4-8.8-26.7c2.5-3.4,5.7-7.4,10.6-6.8c3.2-0.5,6.5,0.6,9.5,1.2l1.1-0.6l-0.1-0.3
		c29.9-20.7,57.8-53,84.3-78c44.7-44.6,85.4-84.8,129.3-127.5c49.5-50.6,94.7-99.7,140.9-152.3c12.9-13.9,26.2-28.2,39.8-41.6
		l-0.1-0.3c41.5-41.2,80.8-81.4,123.2-121.6c6.8-6.5,14.8-14.2,25.3-11.1c5.6,1.6,10.1,4.9,14.5,8C598,107.4,606.9,120.4,603,133.9z
		 M597.2,123.7l-0.2,0.1c0.1,0.1,0.1,0.2,0.2,0.3c0,0.2,0,0.4-0.1,0.5c0-0.2,0.1-0.4,0.1-0.5C597.2,123.9,597.2,123.8,597.2,123.7
		l0.3-0.2c0.3,0.2,0,0.5,0.2,0.8l0-6c0.3-0.8,0.3-1.4-0.1-2.2C597.4,118.1,597.4,121.2,597.2,123.7z M594.9,123
		c1.2-2.3,0-5.4,0.3-8.3l0.8-1c0.1-0.9-0.9-0.5-1.3-0.3C595.8,116.3,593.2,120,594.9,123z M594.9,126.8v1.2h0.1L594.9,126.8
		L594.9,126.8z M593.4,116.6l-0.2,1.4L593.4,116.6z M574,96.1l0.6-0.2H574V96.1z M323.9,338.5l1.7-1.8H325L323.9,338.5z
		 M280.9,384.2l0.1-0.2c-4.3,8.6-9.5,16.8-15.3,25.6c-0.6,1.2-1.9,2.2-1.5,3.5c-1.4,0-1.7,2.2-2.3,3.4l0.8-1.1l0.3,0.5
		c-0.5,1.2-0.9,0.9-1.5,2.2c-0.9,2.5-3.2,3.7-3.5,6.5l0.9-1.5c0.2,0.6-0.3,1.5-0.5,1.8c0.6-0.1,0.9-0.3,1.4-1.1
		c0.2,0,0.1,0.3,0.1,0.5c0,0,0,0,0,0c0,0.2,0,0.1,0,0c5.5-0.5,8.6-5.5,12.3-8.9c4.9-4,10-9.2,15.1-13.6l0.2,0.3
		c0-1.1,0.6-0.3,1.1-0.9c0.3-0.8,1.5-1.5,2.5-1.8c-6.8,7.6-13.6,12.6-20.8,20c2.5-0.9,3.7-3.5,6.2-4.8l-0.1-0.2l0.5-0.6
		c0.1,0,0.2,0.2,0.2,0.3c0,0,0,0-0.1,0c0,0.3,0.1,0.2,0.1,0c1.4,0.2,2.3-1.7,3.3-2.3l0.2,0.2c1.1-1.2,3.1-2.8,4.3-3.9l0.1,0.2
		c2-1.7,4-1.7,5.9-3.4c1.4-1.5,3.9-2.8,4.9-4.3c3.5-0.9,2-5.4,3.4-8c-0.9,0.2,0-1.9-0.3-2.3c-2.5,2.3-4.8,3.4-7.4,5.7
		c-3.3,2-6.3,4.8-9.6,6.5c0.6-0.6,1.1-1.9,1.2-2.2c-0.3,0.9-0.8,0.3-1.1,1.2c-2.2,0.9-2.8,2.8-4.5,3.9l-0.1-0.2
		c0.1-0.6,0.6-1.5,1.2-1.7c0-1.1,2.1-1.7,0.9-2.9c13.6-21.9,28.7-41.2,43.9-61.8c-0.9,0.2-0.5,1.4-1.4,1.2
		c-6.8,7.7-15.1,16-22.2,24.4c-4.8,4.6-8.9,9.3-13.7,14l0.3,0.2c-2.3,2-3.7,3.7-5.4,5.9L280.9,384.2z M292.9,383
		c-1.1,0.6-1.9,2-2.3,2.9C291.2,384.9,292.3,384.3,292.9,383z M290.7,393.1l-2.5,2.5l0.1,0.2c1.1-0.3,0.6-1.5,1.5-1.5
		C289.9,393.8,291.2,393.8,290.7,393.1z M287.8,395.5v0.3h0.3v-0.3H287.8z M285.7,397.8h0.2l0.8-0.9L285.7,397.8z M283.8,396.5
		l-0.1,0.4l0.3-0.3L283.8,396.5z M297,389.6l-0.1-0.2l-0.8,1L297,389.6z M298,385.8c0.6,0,0.5-0.8,0.8-1.1
		C298.1,384.9,297.8,385.5,298,385.8z M255.7,430.6c-0.1,0.1-0.2,0.2-0.2,0.2C255.6,430.7,255.7,430.6,255.7,430.6
		c0.5-0.5,1.3-0.8,1.5-1.5l0.1,0.2l1.1-1.1C257.3,428.7,256.6,429.7,255.7,430.6z M18.6,638.2l-0.3,0.3l-0.5-0.3
		c0.5,0.3,0.1,0.9-0.3,0.9l-0.1-0.1c-1.7,0.9-0.8,2.6-1.9,3.1l-0.2-0.2c0-0.1-0.2-0.3-0.3-0.3l0.3,0.3c-0.3,0.6-0.9,0.3-0.9,0
		l-0.5,0.6c-0.6,0.6,0.5,1.5,0.8,2.2C16,642.3,17.1,640,18.6,638.2z M16.4,634.8c-0.2,0.2-0.3,0.4-0.4,0.6c0.3-0.1,0.3-0.5,0.6-0.3
		L16.4,634.8C16.4,634.8,16.5,634.8,16.4,634.8c0.8-0.6,1.9-1.1,2.2-1.9C17.9,633.4,17.1,634,16.4,634.8
		C16.4,634.8,16.4,634.8,16.4,634.8L16.4,634.8z M16.6,638l-0.2,0.3L16.6,638z M49.6,665.1c-1.2,1.5-2.8,2.6-3.7,3.7l0.2,0.2
		l-0.2,0.3C47.1,667.8,49.2,667,49.6,665.1z M50,659.4c0,0-0.1,0.1-0.1,0.2c-0.1,0.2-0.3,0.4-0.4,0.6c-0.1,0-0.1,0-0.2,0v0.3
		c-0.1,0.1-0.1,0.2-0.2,0.3c-2.1,1.2-3.3,4.4-6.3,4.1l0.1,0.2c-1.4,1.1-2.8,2.2-3.9,3.4c-0.9,0-2.3,0.5-3.2,1.1
		c1.6,0.8,3.1-0.1,5-0.6c3.5-1.9,6.1-5.1,8.3-8.2c0.1,0,0.1-0.1,0.2-0.1v-0.2c0.1-0.1,0.2-0.2,0.2-0.3c0.3-0.1,0.3-0.4,0.4-0.6
		C49.9,659.5,50,659.5,50,659.4z M50.1,653.7c-0.1,2.2-1.7,3.7-2.3,5.4c1.7-1,1.4-2.6,2.8-3.7C51.2,654.6,50.1,654.3,50.1,653.7z
		 M51.5,645.6v0.3c-0.3,0.4-0.6,0.4-0.9,0.3c-0.3-1.7-2.3-0.6-3.2-2.3c0.9,2.2,3.1,2.5,4.6,4.2C51.8,647.2,52.5,645.5,51.5,645.6z
		 M51,643.1h0.6c0.6-0.5-0.3-0.6-0.6-0.9C51.5,642.8,50.2,642.7,51,643.1z M53.6,638.8L53.6,638.8c-0.1-0.2-0.4-1.2,0.2-1.1
		c-0.3-2,0.5-3.1,0.8-4.8c-0.5,0,0,0.6-0.3,0.6l-0.3-0.2c-0.6,2,0,4.3-1.9,5.6l0.3,0.1l-0.6,0.6c0,0.8,0.9,0.6,1.5,0.3
		C52.5,639.4,53.8,639.3,53.6,638.8z M57.6,641.6c0.4-2.2,0.5-4.2,0.5-6c-2.2,3.4-5.3,7.4-4.2,11.1c0.1,0,0.3-0.2,0.5-0.2l-0.1-0.1
		l1.4-1.6l-0.1-0.1c0.3-1.7-0.1-4,1.9-4.6C57.1,640.7,57.6,641,57.6,641.6c0,0.3-0.1,0.6-0.1,0.9C57.7,642.1,57.7,641.8,57.6,641.6z
		 M55.7,632l0.1-1.4C55,631.1,55.4,631.6,55.7,632l-0.1,0.6C56,632.6,55.9,632.3,55.7,632z M55.6,636.5l1.4-1.9l-0.9-0.8L55.6,636.5
		z M254.1,446.7c2.3-2.3,4.3-5.4,6.6-7.2l-0.1-0.2c1.5-1.4,2.8-3.5,4.6-4.8c0-0.8,0.9-1.2,0.5-1.7l0.9-0.2
		c7.3-8.8,15.6-14.6,23.6-22c0.5-0.3,0.8-0.5,0.9-1.1c4.2-2.9,7.4-6.2,11.1-8.9c3.9-3.6,9.4-9,14.1-12.6c0.1,0,0.1-0.1,0.2-0.1
		c0.8-0.6,1.6-1.1,2.3-1.6c-1.2-0.1-1.6,1-2.3,1.6c-0.1,0-0.1,0.1-0.2,0.1c-0.3,0.2-0.6,0.3-0.9,0.2c-1.1,0.8-1.7,1.4-2.6,1.8
		l0.1,0.2l-0.1,0.2c-0.2,0.2-0.3-0.2-0.3-0.2c-1.4,0.9-1.9,2.6-3.5,2.6c-0.8,0.9-2.5,2.2-3.7,2.8c-0.6,0-1.4,0.9-1.7,0.9
		c-12.9,10.5-25.9,25.4-39.6,35.6c-0.1,0-0.1-0.3-0.1-0.5c12-9.6,21.7-20.8,33.3-30.5c-2.6,1.9-5.1,4.3-7.5,6.2
		c-0.3,0.2-1.5,0.3-1.7,0.9l-0.2-0.2c-0.3,0-0.5,0.5-0.8,0.6c-2.5,0.3-4.3,3.2-6.3,4.6c-2,2-4.6,2.5-6.6,4.9L274,418
		c-2.5,2.2-5.1,4.3-7.6,5.7l0.1,0.2l-0.8,0.3l0.1,0.2c-4.5,2.2-7.1,7.4-11.6,9.3c-2.5,2.8-6.6,3.7-8.3,7.4
		c-3.5,2.5-7.4,5.7-10.7,8.8c-1.4,1.2-2.5,4.2-4.6,2.6c2-3.7,5.7-5.2,7.9-8.6c1.7-2,4-4.5,5.1-6.5c1.9-0.9,1.9-2.8,3.5-3.5
		c3.5-6.5,10.2-11.6,12.8-18.4l-0.1,0.2l-0.2-0.2c0-0.5,0.5-0.5,0.6-0.5l-0.2-0.3c0.8-1.4,2-1.4,2.6-2.9l0.1,0.2
		c4.8-6.6,9.4-15.3,13.7-23.1c-4.5,4.6-10.3,10.8-14.8,15.4l0.1,0.2l-3.9,3.7c0.9,0.5-0.1,1.1,0.2,1.5c-0.9,0.5-1.1,2.2-2.3,1.8
		l0.5-1.5c-5.1,4.8-11.1,11.6-16.8,16.6l0.2,0.2c-6.5,6-12.7,12.5-19.3,19l-0.1-0.2c-17.9,17-32.7,32.2-50.3,49.3l0.1,0.1
		c-3.5,3.4-7.3,6.2-9.4,9.7l-0.2-0.3c-22.5,21.9-45.9,45.6-69.7,68.8v0.5c-2,2.3-4.9,3.4-5.9,6.2l-0.1-0.2
		c-8,7.4-16.3,15.6-23.6,22.7c5.4-3.1,11.1-7.7,15.4-12.2c0.5,0,0.3,0.5,0.6,0.8c-3.2,3.2-5.9,6.2-9.3,9.1c-2.5,1.8-4.3,3.5-6.5,5.1
		l0.1,0.2l-0.6,0.6c-0.9-0.2-1.9,1.1-2.9,1.1c-3.1,1.7-4.5,5.2-8.2,5.6c-6,4.8-12,9.1-18,14.3l-0.3-0.3l-1.5,1.5
		c-5.1-0.2-9.4-2.8-14.3-0.8c-4.2,2.5-5.7,7.2-5.1,11.7c0.6-1.7,2.1-3.9,2.8-6c-0.3,0-0.5,0.2-0.6-0.1c2-2.6,5.6-2.3,8.5-3.9
		c2.8-1.4,5.7,0,8.2,0.9l-0.3,0.3L29,630c-0.3,0.5-1.1,0-1.3,0.6c0.3,0,0.6-0.2,0.8,0.2c-0.9,1.2-1.7-0.6-2.6-0.2
		c-2.8,2-6,3.4-8.2,6.3c0.8,0,0.6-1.4,1.4-0.6c-0.3,0.5-0.1,1.2-0.8,1.2l0.9,0.3c0.6-0.5,0-0.3,0-0.8c0.5,0,0.6-1.1,1.1-0.5
		l-0.1,0.3c3.1-2.8,6.3-4.8,10.6-5.2c0.3,0.2,0.6,0.5,0.5,0.8c-1.5,1.4-4,1.1-5.3,2.2c-1.4,3.1-4.9,4.2-6.3,7.4
		c-1.4,2.5-2,4.6-0.9,7.1c1.3-2,2-4.2,4-5.7c2.6-1.4,4.1-3.9,6.8-5.2c0.6,0.5,1.2-0.2,1.9-0.2c0.5,0-3.1,3.7-5.4,4.6
		c0.1,0.8-0.5,1.4-1.1,1.7c-1.4,3.6-4.5,6.8-2.1,10.2c1.1,0.5,3.1-0.3,4.3-0.8c0.8,0.1,1.9-0.9,2.3,0.5c-1.9,1.4-4.2,1.4-6.2,2.2
		c0.3,0.6,0.5,1.2-0.1,1.9c0.8,1.5,2.5,1.1,3.5,1.4c1.4-0.8,3.5,0,4.9-0.8c0.5-0.3,1.5,0,1.5-0.9c1.2,0.3,2.8-2.2,3.3,0
		c-2.9,2.3-6.6,3.2-9.7,4.3l2.1,2.9c1.5,2,2.9,1.9,5.1,2c3.5-0.9,7-4.6,9.4-7.9c0.4-0.3,0.7-0.7,1.1-1l-0.1-0.3c0,0,0,0,0-0.1
		c0.1-0.2,0.2-0.4,0.4-0.5c0.2-0.2,0.4-0.4,0.5-0.8c-0.2,0.3-0.3,0.5-0.5,0.8c-0.2,0.2-0.3,0.3-0.4,0.5c-0.3,0.4-0.6,0.9-1,1.4
		c-1.3,1.1-2.9,1.9-4.4,3.2c-0.6,0-1.4,0.9-1.9,0c1.1-1.7,3.3-2.8,4.6-4c0.9-1.9,2.5-3.1,3.4-5.1c0-0.1,0-0.2-0.1-0.2
		c0,0,0,0,0.1-0.1l-0.1,0c-0.1-0.9,1.5-1,2.2-1.2c0.6-1.8-0.1-2.9-1.5-4.3l-1.9,2.6c-1.4,0.6-2.9,2.5-4.2,1.4
		c1.5-1.9,4.3-3.9,3.9-6.6c-0.5-0.5-0.9-1.7-1.7-1.1c0.3,0.9-0.9,0.9-1.1,1.7c-0.5,0.2-1.4,0.5-1.7-0.2c1.1-0.6,1.3-2,1.1-3.1
		c0.9-1.8-2.8-2.9-2.5-5.1c1.1-0.8,2.3,0.8,3.4,1.2c2.1-2.8,4.3-4.5,6.5-6.8l0.3,0.2c0.5-0.6,1.9-1.1,2.5-0.9
		c-1.7,2.6-4.8,4.6-6.5,7.4v0.8c-0.3,0.3-0.6,0.9-1.3,0.9l3.4,3.2c0.5-0.8,0.5-2.2,1.2-2.8c0.3-2.2,1.5-4.5,2.8-6.6
		c0.8-1.4,0.8-2.3,1.5-3.7l-0.5,0.6c-0.5-1.4,1.4-0.9,1.4-2l-0.3,0.2l-0.1-0.2l1.4-1.4c-1.2-2,2-1.8,1.9-2.8c-2.2,1.2-4.8,0.6-6.8,2
		c-2.6,0.6-4.5,2.8-7.1,2.5c0.6-0.3,14-8.3,15-8.2l-0.1-0.2c-0.2-0.3,0.1-0.3,0.3-0.6l0.3,0.5c0.3-0.3,7.7-4.1,7-2.7
		c-1.7,1.7-4.5,8.2-5.7,10.1c0.6,1.4-0.6,3.7,0.3,4.8c-0.3,0.2-0.1,0.3-0.1,0.6c1.7-2.2,1.7-4.5,3.7-6.3c2.2-5.2,7.4-9.3,8.6-15
		c0.2,0,0.3,0.1,0.2,0.3l0.6-0.6c-0.1-1.2-0.3-2.6-1.1-3.7c-1.5,0.6-3.4,0.5-4.6,1.5c-5.7,1.1-15.1,10.8-15.6,10.3
		c0.9-1.7,7.9-7.9,10-10.2c0.6-0.2,0.2-1.7,1.1-1.2c1.1-0.6,1.4-1.8,2.6-1.8v0.5c0.3-0.2,0.6,0.3,0.9,0.5l-0.6,0.8l1.5-1.2l0.1,0.3
		c3.7-1.4,6.8-4,10.2-6.3c3.4-1.8,10.3-7.4,9-5.7c-2.6,6.3-10.7,16.5-14.4,22.6c-0.6,0.9-0.1,1.8-1.4,2c-1.9,3.4-4.5,6.2-6.3,9.7
		c-4,1.7-2.5,6.5-2.8,9.7c1.5-1.1,2.5-3.2,4-4.3c0.6-0.8,0.3-2.3,0.9-2.6c-0.1-1.7,1.1-3.2,1.1-5.1l0.5,0.8l0.5-0.5
		c0.5,1.1,0.3,2.3,0,3.2c5.1-4.8,9.3-10.3,14.3-15.1c55.8-55,109.9-109.3,167.7-162l-0.2-0.3c0.6-1.7,2.6-2.8,3.7-4.3
		C252.7,448.4,253.8,447.4,254.1,446.7z M65.8,622.6l0.2-0.5L65.8,622.6z M254.5,431.7l-0.3,0.3L254.5,431.7z M249.6,435.3l-1.6,1.5
		c2.5-1.5,3.9-2.8,5.7-4.6c-1.5,0.5-2.5,2.5-4.1,2.6l0.3-0.3c0,0,0,0,0-0.1l0.7-0.7c-0.5,0.1-0.9,0.9-1.1,0.1c0,0.2-0.1,0.3-0.1,0.5
		c0.1,0,0.3-0.2,0.5,0.1l-0.4,0.4c0,0,0.1,0,0.1,0l0,0c-0.1,0.2-0.3,0-0.5-0.2l-1.2,1.5C248.7,436,248.7,434.7,249.6,435.3z
		 M244.9,438.7l-2.5,3c-0.1,0.1-0.2,0.2-0.4,0.4l0.4-0.4c0.3-0.3,0.6-0.4,1-0.7C243.9,440.1,246.2,439.9,244.9,438.7z M305.4,387
		c-0.3-0.9,0.9-1.8,0.5-2.6c-0.1-0.2-0.3-0.3-0.3-0.5l-3.7,3.6c-0.6,3.5-1.4,6.9-2.2,10.3c2.5-1.9,6.6-4.5,6.3-7.6l-0.6,0.8
		l-0.3-0.5c0-1.1,0.6-2.5,0.1-3.4C305.3,387,305.3,387,305.4,387c0,0.1,0.1,0.2,0.1,0.3C305.5,387.2,305.5,387.1,305.4,387z
		 M283.2,424.5l0.1-0.2L283.2,424.5z M285.1,422.8h-0.2l-0.3,0.6L285.1,422.8z M366.1,354c-0.5-0.8-0.5-2-0.5-2.6
		c-1.4,0.8-2.3,2-3.7,2.9l-0.1-0.2c-5.5,4.5-10.6,10.5-15.9,14.5c-1.1,0.5-1.9,2.3-3.1,2.2c0,0,0,0,0,0l0.2-0.2
		c-0.1,0.1-0.1,0.1-0.2,0.2l0,0c0,0,0,0,0,0c-0.1,0.2-0.2,0.4-0.4,0.6l-0.1-0.3c-0.2,1.4-1.7,0.9-2.2,2.2
		c-7.4,7.7-14.8,14-22.5,20.8c-0.5,0.3-0.6,1.2-1.4,0.9c-3.3,2.9-6.2,5.9-9.7,8.3l0.3,0.2c-0.3,0.3-0.5,0.6-0.8,0.6v0.3
		c-0.6,0-1.2,0.8-1.1,0.6c0,0.3-0.5,0.5-0.6,0.8c-0.1,0-0.3-0.2-0.3-0.2c-2.1,2.6-4.6,4.2-7.4,6c-3.5,3.5-8.3,7.6-10.9,10.8
		C312.3,399.8,340.1,376.2,366.1,354z M372.7,345.8c-1.5,2.2-6.2,2.6-5.2,6.6c1.9-0.7,3.4-2.7,4.9-3.7
		C371.6,347.8,372.9,346.8,372.7,345.8z M376.6,342l-2.1,1.9v2.9C376.5,345.7,376.5,343.9,376.6,342z M382,337.4
		c-1.2,0.6-2.2,2-3.2,2.8c-0.9,0.6-0.3,2.2-0.5,3.1C380.6,342.5,380.9,339.9,382,337.4z M599.4,120.3l-0.1,4.6
		c-2.4,2.6,1.5,7.2-1.9,8.9c-0.4-0.1-1.1-0.3-0.9-0.9c-0.9,1.4-1.9,3.3-3.4,4.5c-0.8,2.3-3,2.9-3.9,5.1c0.3-1.8,1.2-4.6,2.9-6
		l0.1,0.2c0.5-1.4,1.5-2.8,1.7-3.9c0.6-1.2-0.3-3.1-0.9-3.7l-1.2,0.9l0.1,0.1c-3.1,2.7-4.4,7.1-6.6,10.3c0.5,1.4-0.7,3-1.2,4.5
		c-2.2,3.4-4.8,6.4-7.4,9.3l-0.1-0.2l-1.4,1.4c-4,4.2-8.5,7.5-12.5,11.4l0.1,0.2l-0.6,0.8l-0.5-0.5l0.1,0.2
		c-1.1,0.9-1.3,2.8-2.8,2.8v-0.2c-3,2.9-6.6,7.6-9.9,10.8l-0.3-0.1c0.6-1.2,2.6-2.6,2.5-3.7l-0.8,0.9c-0.3-0.6-0.2-1,0-1.4
		c0.2-0.2,0.4-0.4,0.5-0.6c0.7-0.6,1.7-1.2,2-2l-0.1-0.2c4-3.7,7.4-7.7,9.9-12.3c2.8-2.1,4.3-5.5,7.1-6.9c-1.7,3.5-5.1,6.3-6.6,9.2
		c5.9-3.7,11.2-9,16.1-14.5c-1.7,1.9-3.4,3.4-5.6,5.1l-0.3-0.3c0.2-0.4,0.4-0.9,0.6-1.3c0.2-0.2,0.3-0.4,0.5-0.5
		c-0.2,0.1-0.4,0.3-0.5,0.5c-1.8,1.8-3.3,3.7-5.2,5.4l0.1,0.2l-1.7,1.5l-0.2-0.2c6-8.1,15.1-15,19.4-24.1c-2.9,2.8-6.3,5.9-9.1,9.3
		c0-0.2-0.1-0.3-0.1-0.5c-0.3,0.3-0.3,0.6-0.6,0.8h0.6c-0.2,0.8,0.2-0.1,0.3,0.5c-0.5,2.8-3.1,4.1-4.8,6c-0.5,0.2-1.1,1.7-1.9,1.4
		c1.7-2.6,4-5.2,5.4-7.4c-0.6,0.8-1.6,2-2.5,2.2c-2.6,3.5-6.5,6.5-9.4,9.4c-2.1,1.2-3.7,4-6,5.1c2.5-2.8,4.9-5.9,8-8.2
		c2.5-4.7,5.5-9.7,8-14.3c1.9-4,3.6-8,5.4-12c0.7-0.5,0.8-2.1,1.9-1.9c0.3,1-0.4,1.7-0.9,2.2c-2.7,8.5-8.7,16.8-12.7,24.5
		c1-0.3,1.3-1.4,1.9-2c2.9-2.7,6-6.4,9.1-8.9l0.2-0.5c1.6-2.8,3.1-5.6,5.1-7.9c0,0.2,0.1,0.3,0.1,0.5h0.8c-0.6,1.7-1.9,3.2-2.8,4.6
		c3.7-3,6.9-7.3,8.9-11.9c0.5-1.4-0.6-2.8-1.2-3.7c-1,1.1-1.3,2.4-1.9,3.6c-0.6,1.4-0.9,2.9-2.6,3.2c0.7-2.8,1.9-5.7,3.3-8.5
		c0.5-0.6-0.6-0.4-0.9-1.2c1.3-2-1.8-3.1-1.5-4.8l-0.3,0.3c-0.7,0-0.8-0.6-1.3-0.8c-0.9-1.4,0-3.7-0.9-4.5c0.1-0.1-0.2-0.6,0.3-0.6
		c0,0,0.1,0.1,0.1,0.3c0-0.9-0.6-2.3-0.5-3.4c2,0.8,1.3,4.1,2.2,5.9c0.5,0.9,1,1.8,1.1,2.9v-2h0.2c0.3-1.8-0.8-3.5-0.3-5.4
		c1.1,0.6,0.7,2,1.2,2.9c0.1-0.2,0.4,0,0.5,0.4c0,0.2,0.1,0.3,0.1,0.5c0-0.2,0-0.3-0.1-0.5c0-0.2,0-0.4,0.2-0.4
		c0.4,1.1,1.4,2.2,1.2,3.4c1.4,0,1.1,2.3,1.4,2.3c0.9-1.8,1.1-4.1,1.4-6.3c-4.2-5.7-10.2-10.1-16.5-13.6l-1.2,0.6
		c-1.5-0.6-1.5,1.2-2.9,1.2c-0.9,0-1.5-0.6-2.3-1.2l2.2-2c-9.6-4.6-17.6,4.8-23.5,10.7l5.5-2.5c0-0.3,0.6-0.8,0.9-0.3
		c2.3-1.3,5.1-1.6,7.4-2.5c0-0.2-0.2-0.5,0.1-0.5c0.8,1.1,1.2-0.7,2-0.6c1.7,0.2,3.3-1.8,4.8-1.5c-1.7,2.2-4,3-6.5,4.2
		c-1,1.6-3.7,1.4-5.5,2.2c-0.8,0.3-1.5,1.1-2.3,0.8c-2.5,1.4-5.6,1.9-7.9,3.1c-3.7,1.6-6.4,5.1-9.2,7.9c-1.5,1.2-2.9,2.8-4,3.7
		c0,0.2,0,0.5-0.1,0.5c1.4-0.1,0.2-1.5,1.9-1.2c4-2.8,8.5-4,12.2-6.8c1.7-0.8,3.9-1.5,5.4-2.3c1.7,0.3,2.7-1.2,3.9-1.4
		c1.2-1.7,3.8-2.1,5.7-3.2c1.5,0,3.4-1.3,4.8-1.1c0.9-0.9,2.5-1.1,3.4-2c1,0.1,2.3-1.1,3.2-1.4c0.7-0.5,2.1-0.2,2.6-0.5
		c-4.7,2.6-10.2,4.6-15,7.4c-3.6,2-7.7,2.6-10.9,5.4c-7.6,3.4-14.9,8.5-22.2,11.7c-14.3,13.8-27.9,27.5-41.6,41.2
		c2.2-1.4,5-4,7.9-5.4c0.8-0.4,0.9-1.9,2.2-1.6c1.5-1.7,3.5-3.1,5.2-4.2c7.5-3.8,14.8-11.4,23.1-15.7c0.1-0.5,0.1-1.1,0.9-0.8
		c0.4-0.2,0.6,0.1,0.5,0.6c-0.1,0.1-0.2,0.1-0.3,0.2c0.2,0,0.3-0.2,0.3-0.2c0,0,0,0,0,0c1.3-0.9,3.2-1.3,3.9-2.7l0.6,0.3
		c-4.3,4-10.3,8.2-15.4,11.4l-0.2-0.2c-9.1,7.5-19.9,12.9-29.6,20l-0.3-0.5c0.3-0.1,0.3-0.4,0.3-0.6c-1,0.3,0.4,1.1-0.5,1.4
		l-0.5-0.3C447.9,205,411,241.7,375.1,281.5c-0.6,0.5-0.7,1.6-1.5,1.9c-8,9-16.5,18.7-25.1,28.4c-8.8,8.9-15.6,18.6-23.3,27.9
		l0.1,0.3c-4,4.8-8.3,10.8-12,15.4c-0.6,0.7-0.9,2-2,2.3c0.1,1.1-1.1,1.7-1.4,2.6c-2.3,2.3-4.2,5.8-6.2,8.3c-2,1.7-2.2,3.5-4.2,4.9
		c-0.1,1.2-2.3,2.3-0.9,3.4c1.2-2.1,3.2-3.8,4.3-6c0.5,0,0.8,0.2,1.1,0.5c-0.9,1.6-2.5,3.4-3.7,4.8l0.2,0.1c-2,2.4-3.7,4.7-5.4,7.3
		c0.3,0.5,0.5,0,0.8,0c2.3-2,5.9-5.1,7.4-7.4c0.1,0,0.1,0,0.1,0.1l0,0c0,0.4,0.1,0.1,0,0l4-4.5c3.3-3.6,5.6-6,8.8-9.6
		c-0.4-0.2,0.1-0.6,0.1-0.8c0.7-0.3,1.4-1.1,1.9-0.6c-0.8,2-2.3,3.3-3.9,4.9l0,0L314,366c0.1-0.1,0.2-0.2,0.3-0.3l0.2,0.1
		c-1.4,2-2.8,3.9-4.3,5.7c-0.3,0.9-0.9,1.9-1.8,2.9l-0.1-0.1v0.3c-0.9,1.1-2,2.3-3,3.4c-0.1,0.1-0.2,0.1-0.2,0.2
		c-1.2,1.3-2.3,2.5-3.1,3.5l0.8-0.8l0.1,0.2l2.3-2.5c-0.1-0.2-0.2-0.3-0.1-0.4c0.1-0.1,0.1-0.1,0.2-0.2c0.4-0.2,1.1-0.2,1.1-0.9
		c0.8-0.8,2-1.4,2.3-2.6l0.1,0.6c3.4-2.7,7.6-5.9,11.1-9.3c2.5-1.8,4.2-4.6,6.8-5.7c-0.2,0.1-0.2,0.4-0.5,0.6l-0.1-0.2
		c-3.9,4.3-9.4,9.4-13.3,13.7l-0.3-0.2c-0.7,1.3-2.3,1.9-3.2,2.8c-1.2,2.7-3.8,4.1-6,6.6c-2.2,1.1-4.5,4.2-5.1,5.4
		c1.7-0.8,3.1-2.8,4-4.2l0.6,0.5c3.1-2.8,6-4.9,9.3-7.4c0.3-1.4,0.5-2.3,1.4-3.4c0.5,0.5,1,1.1,0.5,1.7c1.5-0.2,1.2-1.7,2.6-2.5
		l0.5,0.5c2.3-1,2.1-3.3,3.5-4.8l0.3,1.4c1.1-0.4,1.4-1.3,2.3-2.2c0.2,0,0.2,0.6,0.2,0.1l0.3-0.9c0.2,0.3,0.5,0.1,0.8,0.1
		c-0.2-1.2,1.2-1.4,1.5-2.6c0,0.3,0.5,0.3,0.3,0.6c7.4-8.7,17.7-15.1,25.6-23.4c7.8-5.9,15.2-12.7,22.5-19c5.4-5.6,12.6-8,17.4-13.6
		c13.3-10.7,25.3-21.6,38.9-31.8c0.8,0.5,1.3-0.4,1.9-0.6v-0.5c0.6-1.4,1.4-1.1,2.6-1.1c-1.7,1.7-3.7,2.9-5.1,4
		c-0.5-0.1,0.2-0.4,0-0.6l-0.5,0.3c0,0.3-0.2,0.7,0.1,0.8c-2.5,2.5-5.6,4.6-8.2,6.8c-0.3,0.3-1.1,0.4-1.1,0.9
		c-2.8,0.8-2.9,3.8-5.4,4.3l0.1,0.2c-0.5,0.7-1.1,1.2-1.9,1.2c0-0.2,0.3-0.3,0.5-0.5c-2.6,1.7-5.1,4.4-7.4,6.3
		c0.6,0.1-0.4,1-0.9,1.5l-0.5-0.3c-0.7,0.1-1.1,1.4-1.9,0.9c-5.7,4.7-11.4,9.9-17.3,14.3l0.5-0.5l-0.5,0.5c-1.6,1.2-3.3,2.4-4.9,3.4
		c-2.6,1.5-2.9,2.9-5.5,4l0.3,0.3c-0.6,0.7-0.7,0-1.2,0.9c-0.1,0.1-0.1,0-0.2,0l-0.1-0.3c-0.1-0.2-0.1,0.2,0.1,0.3l0,0
		c-7.7,6.5-15,13.6-23.3,19.9c-4.2,5.4-10.5,8.3-14.5,13.9c-2.7,1.9-5.3,4-7.6,6.5c-0.6,0.7-1.6,1.5-2.1,2.6
		c-2.4,1.8-2.3,6.1-2.9,8.6l-0.8-0.6l-0.1,0.2c0-1.7,0.3-3.6,0.6-5.4c-0.6,2.5-2.8,5.5-0.9,7.7l-4,3.4l3.1-2
		c1.3-0.5,1.9-1.5,2.8-1.7c-1.1,2.1-3.9,3.3-5.1,5.2c-0.2-0.2-0.3-0.4-0.2-0.5c-0.5,0.3-0.9,0.5-1.4,0.8c-0.5,2.3-3.1,2-4.2,3.4
		l-0.3-0.3c-2.3,2.3-4.7,4.5-6.9,6.8c3.8-2.1,5.8-4,9.3-6.3c5.1-4.6,12.1-8.7,17-13.9c-1,0.6-2.3,1.2-3.5,0.9l0.9-0.9
		c7.3-2.4,11.5-8.2,17-13.4c1.6-1.2,3.3-2.8,4.8-4.3l0.1,0.2l2-2.5l0.1,0.2c5.7-6.1,13.1-11.1,19-18c3.4-2.9,7.4-7.1,11.1-9.7v0.5
		c-0.1,0-0.2,0.1-0.3,0.2c-0.1,0-0.1,0-0.2-0.1c0.1,0.1,0.1,0.1,0.2,0.1c0.3,0,0.5-0.1,0.6,0.1l-1.9,2c-4.4,4.8-10.6,9.1-16,14.2
		c-0.9,0.5-1.4,2-2.3,2l0.3,0.2c-1.2,1-2.3,2.8-3.7,3.1c-0.5,1.1-1.4,1.7-1.7,2.6c-4.5,3.9-7.7,7.4-11.6,11.1l0.3,0.2
		c-3.8,3.5-7.7,8-11.7,10.9c-1.1,0.4-2.2,2-3.4,1.5c-4.6,3.7-8,8.8-12.9,11.9l0.3,0.2l-1.5,0.9l0.1,0.2c-5.6,5.1-10.7,9.6-16.7,14.5
		l0.2,0.2l-3.4,2.8l-0.3-0.2l-1.9,2l-0.1-0.2l-1.1,1.1l0.2,0.2c-2.7,2-6,4.9-8.6,7.2l-0.1-0.1c-0.6,0.6-1.4,0.9-1.4,1.5l-0.2-0.2
		c-6.5,5.7-12.5,11.5-18.5,17.7l-0.6,0.3l0.3,0.2c-3.8,3.6-7.2,8.2-10.6,12l-0.1,0.1l0,0c0,0.1-0.1,0.1-0.1,0.2h0.3l-0.2-0.2
		c0,0,0.1-0.1,0.1-0.1l2.5-1c15.4-10.5,25.2-24.3,40.5-36.2c1.7-1.7,4.5-3,6-5.2l0.3,0.2c2-1.7,3.2-3.3,4.9-5.1
		c9.7-7.9,18.2-15.8,27-24.7c10.8-8,18.7-17.4,29.6-25.3c0-1,0.7-2.6,1.5-3.2c0.4,0.4,0.6,0.9,0.3,1.5
		c13.1-11.5,26.1-22.5,38.7-34.5c6.4-7.1,14.4-13.5,20.4-21.7c0.6-0.3,0.6-0.6,0.9-1.2c0.1-0.1,0.3,0,0.3,0.2c0.6-1.1,1.9-1.7,2-2.6
		c4-3.4,7.4-7.5,11.7-10.3l0.1,0.2c-6.4,7-12.8,13.3-18.7,19.6c-0.7,1-1.2,2-2.1,2.5c-3,2.8-5,6.5-7.9,9.1
		c4.1-3.7,8.9-8.9,12.9-13.4l0.6,0.5c-6.2,7.2-12.5,14-18.7,19.7c-1,0.7-1.4,1.9-2.5,1.9c-0.7-0.6,0-1.4,0.2-2
		c-4.1,3.7-8.5,7.5-13,12l0.2,0.2c-3.7,2.7-6,5.3-9.7,8.2c0.3,1.2-1.4,2.8-0.8,3.7l0.9-0.9c2.2-1.1,1.9-4.5,3.9-5.7
		c0.5,0.8,0,1.4,0,2.5l3.5-3.1c-0.5-1.7,0.8-2.8,1.7-4c0.4,0.7,0,1.1,0.1,2.2h0.3c37.3-33,75.2-69,111.6-103.1
		c29.8-28.7,65.2-57.2,91.9-90.2C601.7,132.6,600.8,125.2,599.4,120.3z M413.8,309v-0.2h-0.3v0.2H413.8z M319.1,385.8
		c0.6,0,0.8-0.6,1.1-1.1C320.2,385,318.5,385.2,319.1,385.8z M320.6,384.5l0.5-0.6L320.6,384.5z M322,383.2l0.5-0.3L322,383.2z
		 M323.9,381.7c-0.2,0.2-0.9,0.4-0.9,0.9L323.9,381.7z M336.8,370.2l0.8-0.6L336.8,370.2z M338.8,368.7l0.5-0.6L338.8,368.7z
		 M308.7,386.2c-1.1,1.1-1.2,3.1-1.4,4.6l2.5-1.9c-0.2-1.6-0.1-3.1,0.7-4.5c-0.9-1.4,1.2-2.8,0.3-4.5c0,0.6-0.6,0.8-1.1,0.9
		c-1.2,1.9-0.9,3.1-1.5,5.1C308.3,385.9,308.5,386,308.7,386.2z M307.4,383h-0.3l-0.6,4.2L307.4,383z M313.9,377.9
		c-1.7,0.6-0.9,2.2-1.5,3.4c-0.2,2-1.4,4.3-0.9,6l0.1-0.1C313.1,383.7,312.8,381.5,313.9,377.9z M313.9,384.8l1.7-1.6
		c0-2.9,1.7-4.8,1.7-7.7c-0.6,0.9-0.8,0.3-1.5,1.1c-0.5,1.1-0.5,2.5-1.1,3.4C314.7,381.2,313.9,383.6,313.9,384.8z M321,372.6
		c-3.1,1.7-2.5,5.7-3.5,8.8l2.4-1.9C320.2,376.7,320.7,374.9,321,372.6z M320.3,378.4v0.6h0.3v-0.6H320.3z M301,382.2h-0.3l-0.2,0.5
		L301,382.2z M581.3,146.5c-0.5,0.5-0.9,1.2-1.1,1.9C580.8,147.7,580.9,147,581.3,146.5c0.1-0.1,0.2-0.3,0.4-0.4
		C581.6,146.2,581.4,146.3,581.3,146.5z M575.8,151.2l-0.3,0.3L575.8,151.2z M560.8,166.3l0.9-0.8l0.8-0.9L560.8,166.3z
		 M560.1,166.9l-0.5,0.5L560.1,166.9z M553.3,174.9l0.1,0.5L553.3,174.9L553.3,174.9z M530.2,199.4c0.2-0.2,0.4-0.4,0.6-0.6
		C530.5,199,530.3,199.2,530.2,199.4z M528.2,201.4l-1.7,2c0,0,0.1-0.1,0.1-0.1c0.5-0.5,1-1.1,1.5-1.6
		C528.1,201.6,528.2,201.5,528.2,201.4z M525.2,204.8l-1.2,0.6l0.3,0.3L525.2,204.8z M513.4,197.7L513.4,197.7
		c0.1-0.1,0.2-0.2,0.2-0.2C513.5,197.4,513.5,197.5,513.4,197.7z"/>
	<path fill="#DBC79C" d="M374.5,343.9l2.1-1.9c-0.1,1.9-0.1,3.7-2.1,4.8V343.9z M372.7,345.8c-1.5,2.2-6.2,2.6-5.2,6.6
		c1.9-0.7,3.4-2.7,4.9-3.7C371.6,347.8,372.9,346.8,372.7,345.8z M361.9,354.3l-0.1-0.2c-5.5,4.5-10.6,10.5-15.9,14.5
		c-1.1,0.5-1.9,2.3-3.1,2.2c-0.1,0.2-0.2,0.4-0.4,0.6l-0.1-0.3c-0.2,1.4-1.7,0.9-2.2,2.2c-7.4,7.7-14.8,14-22.5,20.8
		c-0.5,0.3-0.6,1.2-1.4,0.9c-3.3,2.9-6.2,5.9-9.7,8.3l0.3,0.2c-0.3,0.3-0.5,0.6-0.8,0.6v0.3c-0.6,0-1.2,0.8-1.1,0.6
		c0,0.3-0.5,0.5-0.6,0.8c-0.1,0-0.3-0.2-0.3-0.2c-2.1,2.6-4.6,4.2-7.4,6c-3.5,3.5-8.3,7.6-10.9,10.8c26.6-22.6,54.4-46.2,80.4-68.4
		c-0.5-0.8-0.5-2-0.5-2.6C364.2,352.2,363.3,353.4,361.9,354.3z M342.8,370.8l0.2-0.2C342.9,370.7,342.9,370.7,342.8,370.8z
		 M378.8,340.2c-0.9,0.6-0.3,2.2-0.5,3.1c2.3-0.8,2.6-3.4,3.7-5.9C380.8,338,379.8,339.4,378.8,340.2z M342.8,370.8
		C342.8,370.8,342.8,370.8,342.8,370.8C342.8,370.8,342.8,370.8,342.8,370.8L342.8,370.8z M302.8,380.9l0.1,0.2l2.3-2.5
		c-0.1-0.2-0.2-0.3-0.1-0.4c-1.2,1.3-2.3,2.5-3.1,3.5L302.8,380.9z M383.9,325.9c-0.1,0-0.1,0-0.2-0.1
		C383.8,325.9,383.8,325.9,383.9,325.9z M374.2,324.4l-0.1-0.3C374,323.9,374,324.3,374.2,324.4z M256.1,446.3l-0.2-0.2
		c0,0.1-0.1,0.1-0.1,0.2H256.1z M255.9,446.1C256,446.1,256,446.1,255.9,446.1L255.9,446.1L255.9,446.1z M253.7,432.2
		c-1.5,0.5-2.5,2.5-4.1,2.6l0,0c-0.1,0.2-0.3,0-0.5-0.2l-1.2,1.5c0.8-0.1,0.8-1.4,1.7-0.8l-1.6,1.5
		C250.5,435.3,251.9,434,253.7,432.2z M249.5,433.8c0,0.2-0.1,0.3-0.1,0.5c0.1,0,0.3-0.2,0.5,0.1l0.7-0.7
		C250.1,433.8,249.7,434.6,249.5,433.8z M249.9,434.4l-0.4,0.4c0,0,0.1,0,0.1,0L249.9,434.4C249.9,434.5,249.9,434.5,249.9,434.4z
		 M254.1,446.7c-0.3,0.7-1.4,1.7-1.7,2.6c-1.1,1.5-3.1,2.6-3.7,4.3l0.2,0.3c-57.8,52.7-111.9,107-167.7,162
		c-5,4.8-9.2,10.3-14.3,15.1c0.3-0.9,0.5-2.1,0-3.2l-0.5,0.5l-0.5-0.8c0,1.9-1.2,3.4-1.1,5.1c-0.6,0.3-0.3,1.8-0.9,2.6
		c-1.5,1.1-2.5,3.2-4,4.3c0.3-3.2-1.2-8,2.8-9.7c1.8-3.5,4.4-6.3,6.3-9.7c1.3-0.2,0.8-1.1,1.4-2c3.7-6.1,11.8-16.3,14.4-22.6
		c1.3-1.7-5.6,3.9-9,5.7c-3.4,2.3-6.5,4.9-10.2,6.3l-0.1-0.3l-1.5,1.2l0.6-0.8c-0.3-0.2-0.6-0.7-0.9-0.5v-0.5
		c-1.2,0-1.5,1.2-2.6,1.8c-0.9-0.5-0.5,1-1.1,1.2c-2.1,2.3-9.1,8.5-10,10.2c0.5,0.5,9.9-9.2,15.6-10.3c1.2-1,3.1-0.9,4.6-1.5
		c0.8,1.1,1,2.5,1.1,3.7l-0.6,0.6c0.1-0.2,0-0.3-0.2-0.3c-1.2,5.7-6.4,9.8-8.6,15c-2,1.8-2,4.1-3.7,6.3c0-0.3-0.2-0.4,0.1-0.6
		c-0.9-1.1,0.3-3.4-0.3-4.8c1.2-1.9,4-8.4,5.7-10.1c0.7-1.4-6.7,2.4-7,2.7l-0.3-0.5c-0.2,0.3-0.5,0.3-0.3,0.6l0.1,0.2
		c-1-0.1-14.4,7.9-15,8.2c2.6,0.3,4.5-1.9,7.1-2.5c2-1.4,4.6-0.8,6.8-2c0.1,1-3.1,0.8-1.9,2.8l-1.4,1.4l0.1,0.2l0.3-0.2
		c0,1.1-1.9,0.6-1.4,2l0.5-0.6c-0.7,1.4-0.7,2.3-1.5,3.7c-1.3,2.1-2.5,4.4-2.8,6.6c-0.7,0.6-0.7,2-1.2,2.8l-3.4-3.2
		c0.7,0,1-0.6,1.3-0.9v-0.8c1.7-2.8,4.8-4.8,6.5-7.4c-0.6-0.2-2,0.3-2.5,0.9l-0.3-0.2c-2.2,2.3-4.4,4-6.5,6.8
		c-1.1-0.4-2.3-2-3.4-1.2c-0.3,2.2,3.4,3.3,2.5,5.1c0.2,1.1,0,2.5-1.1,3.1c0.3,0.7,1.2,0.4,1.7,0.2c0.2-0.8,1.4-0.8,1.1-1.7
		c0.8-0.6,1.2,0.6,1.7,1.1c0.4,2.7-2.4,4.7-3.9,6.6c1.3,1.1,2.8-0.8,4.2-1.4l1.9-2.6c1.4,1.4,2.1,2.5,1.5,4.3
		c-0.6,0.3-2.3,0.3-2.2,1.2c0,0,0,0,0,0c0,0.1,0,0.2,0.1,0.2c-0.9,2-2.5,3.2-3.4,5.1c-1.3,1.2-3.5,2.3-4.6,4c0.5,0.9,1.3,0,1.9,0
		c1.6-1.2,3.1-2.1,4.4-3.2c-2.4,3.3-5.9,6.9-9.4,7.9c-2.2-0.1-3.6,0-5.1-2l-2.1-2.9c3.1-1.1,6.8-2,9.7-4.3c-0.5-2.2-2.1,0.3-3.3,0
		c0,0.9-1,0.6-1.5,0.9c-1.4,0.8-3.5,0-4.9,0.8c-1-0.3-2.7,0.1-3.5-1.4c0.6-0.7,0.4-1.3,0.1-1.9c2-0.8,4.3-0.8,6.2-2.2
		c-0.4-1.4-1.5-0.4-2.3-0.5c-1.2,0.5-3.2,1.3-4.3,0.8c-2.4-3.4,0.7-6.6,2.1-10.2c0.6-0.3,1.2-0.9,1.1-1.7c2.3-0.9,5.9-4.6,5.4-4.6
		c-0.7,0-1.3,0.7-1.9,0.2c-2.7,1.3-4.2,3.8-6.8,5.2c-2,1.5-2.7,3.7-4,5.7c-1.1-2.5-0.5-4.6,0.9-7.1c1.4-3.2,4.9-4.3,6.3-7.4
		c1.3-1.1,3.8-0.8,5.3-2.2c0.1-0.3-0.2-0.6-0.5-0.8c-4.3,0.4-7.5,2.4-10.6,5.2l0.1-0.3c-0.5-0.6-0.6,0.5-1.1,0.5
		c0,0.5,0.6,0.3,0,0.8l-0.9-0.3c0.7,0,0.5-0.7,0.8-1.2c-0.8-0.8-0.6,0.6-1.4,0.6c2.2-2.9,5.4-4.3,8.2-6.3c0.9-0.4,1.7,1.4,2.6,0.2
		c-0.2-0.4-0.5-0.2-0.8-0.2c0.2-0.6,1-0.1,1.3-0.6l0.1,0.3l0.3-0.3c-2.5-0.9-5.4-2.3-8.2-0.9c-2.9,1.6-6.5,1.3-8.5,3.9
		c0.1,0.3,0.3,0.1,0.6,0.1c-0.7,2.1-2.2,4.3-2.8,6c-0.6-4.5,0.9-9.2,5.1-11.7c4.9-2,9.2,0.6,14.3,0.8l1.5-1.5l0.3,0.3
		c6-5.2,12-9.5,18-14.3c3.7-0.4,5.1-3.9,8.2-5.6c1,0,2-1.3,2.9-1.1l0.6-0.6l-0.1-0.2c2.2-1.6,4-3.3,6.5-5.1c3.4-2.9,6.1-5.9,9.3-9.1
		c-0.3-0.3-0.1-0.8-0.6-0.8c-4.3,4.5-10,9.1-15.4,12.2c7.3-7.1,15.6-15.3,23.6-22.7l0.1,0.2c1-2.8,3.9-3.9,5.9-6.2v-0.5
		c23.8-23.2,47.2-46.9,69.7-68.8l0.2,0.3c2.1-3.5,5.9-6.3,9.4-9.7l-0.1-0.1c17.6-17.1,32.4-32.3,50.3-49.3l0.1,0.2
		c6.6-6.5,12.8-13,19.3-19l-0.2-0.2c5.7-5,11.7-11.8,16.8-16.6l-0.5,1.5c1.2,0.4,1.4-1.3,2.3-1.8c-0.3-0.4,0.7-1-0.2-1.5l3.9-3.7
		l-0.1-0.2c4.5-4.6,10.3-10.8,14.8-15.4c-4.3,7.8-8.9,16.5-13.7,23.1l-0.1-0.2c-0.6,1.5-1.8,1.5-2.6,2.9l0.2,0.3
		c-0.1,0-0.6,0-0.6,0.5l0.2,0.2l0.1-0.2c-2.6,6.8-9.3,11.9-12.8,18.4c-1.6,0.7-1.6,2.6-3.5,3.5c-1.1,2-3.4,4.5-5.1,6.5
		c-2.2,3.4-5.9,4.9-7.9,8.6c2.1,1.6,3.2-1.4,4.6-2.6c3.3-3.1,7.2-6.3,10.7-8.8c1.7-3.7,5.8-4.6,8.3-7.4c4.5-1.9,7.1-7.1,11.6-9.3
		l-0.1-0.2l0.8-0.3l-0.1-0.2c2.5-1.4,5.1-3.5,7.6-5.7l0.1,0.1c2-2.4,4.6-2.9,6.6-4.9c2-1.4,3.8-4.3,6.3-4.6c0.3-0.1,0.5-0.6,0.8-0.6
		l0.2,0.2c0.2-0.6,1.4-0.7,1.7-0.9c2.4-1.9,4.9-4.3,7.5-6.2c-11.6,9.7-21.3,20.9-33.3,30.5c0,0.2,0,0.5,0.1,0.5
		c13.7-10.2,26.7-25.1,39.6-35.6c0.3,0,1.1-0.9,1.7-0.9c1.2-0.6,2.9-1.9,3.7-2.8c1.6,0,2.1-1.7,3.5-2.6c0,0,0.1,0.4,0.3,0.2l0.1-0.2
		l-0.1-0.2c0.9-0.4,1.5-1,2.6-1.8c0.4,0.1,0.7,0,0.9-0.2c-4.7,3.5-10.2,9-14.1,12.6c-3.7,2.7-6.9,6-11.1,8.9
		c-0.1,0.6-0.4,0.8-0.9,1.1c-8,7.4-16.3,13.2-23.6,22l-0.9,0.2c0.4,0.5-0.5,0.9-0.5,1.7c-1.8,1.3-3.1,3.4-4.6,4.8l0.1,0.2
		C258.4,441.3,256.4,444.4,254.1,446.7z M141,540L141,540c-0.1,0-0.1,0.1-0.2,0.2L141,540z M284.6,423.4l0.5-0.6h-0.2L284.6,423.4z
		 M305.1,378.2c0.1-0.1,0.1-0.1,0.2-0.2C305.1,378,305.1,378.1,305.1,378.2z M305.9,384.4c-0.1-0.2-0.3-0.3-0.3-0.5l-3.7,3.6
		c-0.6,3.5-1.4,6.9-2.2,10.3c2.5-1.9,6.6-4.5,6.3-7.6l-0.6,0.8l-0.3-0.5c0-1.1,0.6-2.5,0.1-3.4c0.1-0.1,0.1-0.1,0.2-0.1
		C305.1,386.1,306.3,385.2,305.9,384.4z M305.4,387c0,0.1,0.1,0.2,0.1,0.3C305.5,387.2,305.5,387.1,305.4,387z M243.4,441
		c0.5-0.9,2.8-1.1,1.5-2.3l-2.5,3C242.7,441.4,243,441.3,243.4,441z M242,442.1l0.4-0.4C242.3,441.8,242.1,441.9,242,442.1z
		 M580.2,148.4c0.6-0.7,0.7-1.4,1.1-1.9C580.9,147,580.4,147.7,580.2,148.4z M317.5,381.4l2.4-1.9c0.3-2.8,0.8-4.6,1.1-6.9
		C317.9,374.3,318.5,378.3,317.5,381.4z M320.6,379v-0.6h-0.3v0.6H320.6z M300.7,382.2l-0.2,0.5l0.5-0.5H300.7z M312.4,381.3
		c-0.2,2-1.4,4.3-0.9,6l0.1-0.1c1.5-3.5,1.2-5.7,2.3-9.3C312.2,378.5,313,380.1,312.4,381.3z M317.3,375.5c-0.6,0.9-0.8,0.3-1.5,1.1
		c-0.5,1.1-0.5,2.5-1.1,3.4c0,1.2-0.8,3.6-0.8,4.8l1.7-1.6C315.6,380.3,317.3,378.4,317.3,375.5z M581.7,146.1
		c-0.1,0.1-0.3,0.2-0.4,0.4C581.5,146.3,581.6,146.2,581.7,146.1z M562.5,164.6l-1.7,1.7l0.9-0.8L562.5,164.6z M553.4,174.9
		L553.4,174.9v0.5V174.9z M314,366c0.1-0.1,0.2-0.2,0.3-0.3l0,0L314,366z M316.5,387.9c0.8-0.6,1.6-1.1,2.3-1.6
		C317.6,386.2,317.2,387.3,316.5,387.9z M306.5,387.2l0.9-4.2h-0.3L306.5,387.2z M574.1,152.8c0.2-0.2,0.3-0.4,0.5-0.5
		C574.4,152.4,574.2,152.6,574.1,152.8z M309.8,388.9c-0.2-1.6-0.1-3.1,0.7-4.5c-0.9-1.4,1.2-2.8,0.3-4.5c0,0.6-0.6,0.8-1.1,0.9
		c-1.2,1.9-0.9,3.1-1.5,5.1c0.1,0,0.3,0.1,0.5,0.3c-1.1,1.1-1.2,3.1-1.4,4.6L309.8,388.9z M527.3,139.1
		C527.3,139.1,527.3,139.1,527.3,139.1c-0.1,0.1-0.2,0.1-0.3,0.2C527.2,139.3,527.3,139.1,527.3,139.1z M303.4,376.3L303.4,376.3
		C303.4,376.7,303.5,376.4,303.4,376.3z M588.9,111.2c0,0.2,0.1,0.3,0.1,0.5C589,111.5,589,111.4,588.9,111.2z M320.2,384.7
		c0,0.3-1.7,0.5-1.1,1.1C319.7,385.8,319.9,385.2,320.2,384.7z M323,382.6l0.9-0.9C323.7,381.9,323,382.1,323,382.6z M413.5,308.8
		v0.2h0.3v-0.2H413.5z M599.4,120.3c1.4,4.9,2.3,12.3-2.3,16.5c-26.7,33-62.1,61.5-91.9,90.2c-36.4,34.1-74.3,70.1-111.6,103.1h-0.3
		c-0.1-1.1,0.3-1.5-0.1-2.2c-0.9,1.2-2.2,2.3-1.7,4L388,335c0-1.1,0.5-1.7,0-2.5c-2,1.2-1.7,4.6-3.9,5.7l-0.9,0.9
		c-0.6-0.9,1.1-2.5,0.8-3.7c3.7-2.9,6-5.5,9.7-8.2l-0.2-0.2c4.5-4.5,8.9-8.3,13-12c-0.2,0.6-0.9,1.4-0.2,2c1.1,0,1.5-1.2,2.5-1.9
		c6.2-5.7,12.5-12.5,18.7-19.7l-0.6-0.5c-4,4.5-8.8,9.7-12.9,13.4c2.9-2.6,4.9-6.3,7.9-9.1c0.9-0.5,1.4-1.5,2.1-2.5
		c5.9-6.3,12.3-12.6,18.7-19.6l-0.1-0.2c-4.3,2.8-7.7,6.9-11.7,10.3c-0.1,0.9-1.4,1.5-2,2.6c0-0.2-0.2-0.3-0.3-0.2
		c-0.3,0.6-0.3,0.9-0.9,1.2c-6,8.2-14,14.6-20.4,21.7c-12.6,12-25.6,23-38.7,34.5c0.3-0.6,0.1-1.1-0.3-1.5c-0.8,0.6-1.5,2.2-1.5,3.2
		c-10.9,7.9-18.8,17.3-29.6,25.3c-8.8,8.9-17.3,16.8-27,24.7c-1.7,1.8-2.9,3.4-4.9,5.1l-0.3-0.2c-1.5,2.2-4.3,3.5-6,5.2
		c-15.3,11.9-25.1,25.7-40.5,36.2l-2.5,1c3.4-3.9,6.8-8.4,10.6-12l-0.3-0.2l0.6-0.3c6-6.2,12-12,18.5-17.7l0.2,0.2
		c0-0.6,0.8-0.9,1.4-1.5l0.1,0.1c2.6-2.3,5.9-5.2,8.6-7.2l-0.2-0.2l1.1-1.1l0.1,0.2l1.9-2l0.3,0.2l3.4-2.8l-0.2-0.2
		c6-4.9,11.1-9.4,16.7-14.5l-0.1-0.2l1.5-0.9l-0.3-0.2c4.9-3.1,8.3-8.2,12.9-11.9c1.2,0.5,2.3-1.1,3.4-1.5c4-2.9,7.9-7.4,11.7-10.9
		l-0.3-0.2c3.9-3.7,7.1-7.2,11.6-11.1c0.3-0.9,1.2-1.5,1.7-2.6c1.4-0.3,2.5-2.1,3.7-3.1l-0.3-0.2c0.9,0,1.4-1.5,2.3-2
		c5.4-5.1,11.6-9.4,16-14.2l1.9-2c-0.1-0.2-0.4-0.1-0.6-0.1c0.1,0,0.2-0.2,0.3-0.2v-0.5c-3.7,2.6-7.7,6.8-11.1,9.7
		c-5.9,6.9-13.3,11.9-19,18l-0.1-0.2l-2,2.5l-0.1-0.2c-1.5,1.5-3.2,3.1-4.8,4.3c-5.5,5.2-9.7,11-17,13.4l-0.9,0.9
		c1.2,0.3,2.5-0.3,3.5-0.9c-4.9,5.2-11.9,9.3-17,13.9c-3.5,2.3-5.5,4.2-9.3,6.3c2.2-2.3,4.6-4.5,6.9-6.8l0.3,0.3
		c1.1-1.4,3.7-1.1,4.2-3.4c0.5-0.3,0.9-0.5,1.4-0.8c-0.1,0.1,0,0.3,0.2,0.5c1.2-1.9,4-3.1,5.1-5.2c-0.9,0.2-1.5,1.2-2.8,1.7l-3.1,2
		l4-3.4c-1.9-2.2,0.3-5.2,0.9-7.7c-0.3,1.8-0.6,3.7-0.6,5.4l0.1-0.2l0.8,0.6c0.6-2.5,0.5-6.8,2.9-8.6c0.5-1.1,1.5-1.9,2.1-2.6
		c2.3-2.5,4.9-4.6,7.6-6.5c4-5.6,10.3-8.5,14.5-13.9c8.3-6.3,15.6-13.4,23.3-19.9l0,0c0.1,0,0.1,0.1,0.2,0c0.5-0.9,0.6-0.2,1.2-0.9
		l-0.3-0.3c2.6-1.1,2.9-2.5,5.5-4c1.7-1.1,3.3-2.2,4.9-3.4c5.9-4.4,11.5-9.6,17.3-14.3c0.8,0.5,1.2-0.8,1.9-0.9l0.5,0.3
		c0.5-0.5,1.5-1.4,0.9-1.5c2.3-1.9,4.8-4.6,7.4-6.3c-0.2,0.2-0.5,0.3-0.5,0.5c0.8,0,1.4-0.5,1.9-1.2l-0.1-0.2
		c2.5-0.5,2.6-3.5,5.4-4.3c0-0.5,0.8-0.6,1.1-0.9c2.6-2.2,5.7-4.3,8.2-6.8c-0.3-0.1-0.1-0.5-0.1-0.8l0.5-0.3c0.2,0.2-0.5,0.5,0,0.6
		c1.4-1.1,3.4-2.3,5.1-4c-1.2,0-2-0.3-2.6,1.1v0.5c-0.6,0.2-1.1,1.1-1.9,0.6c-13.6,10.2-25.6,21.1-38.9,31.8
		c-4.8,5.6-12,8-17.4,13.6c-7.3,6.3-14.7,13.1-22.5,19c-7.9,8.3-18.2,14.7-25.6,23.4c0.2-0.3-0.3-0.3-0.3-0.6
		c-0.3,1.2-1.7,1.4-1.5,2.6c-0.3,0-0.6,0.2-0.8-0.1l-0.3,0.9c0,0.5,0-0.1-0.2-0.1c-0.9,0.9-1.2,1.8-2.3,2.2l-0.3-1.4
		c-1.4,1.5-1.2,3.8-3.5,4.8l-0.5-0.5c-1.4,0.8-1.1,2.3-2.6,2.5c0.5-0.6,0-1.2-0.5-1.7c-0.9,1.1-1.1,2-1.4,3.4
		c-3.3,2.5-6.2,4.6-9.3,7.4l-0.6-0.5c-0.9,1.4-2.3,3.4-4,4.2c0.6-1.2,2.9-4.3,5.1-5.4c2.2-2.5,4.8-3.9,6-6.6
		c0.9-0.9,2.5-1.5,3.2-2.8l0.3,0.2c3.9-4.3,9.4-9.4,13.3-13.7l0.1,0.2c0.3-0.2,0.3-0.5,0.5-0.6c-2.6,1.1-4.3,3.9-6.8,5.7
		c-3.5,3.4-7.7,6.6-11.1,9.3l-0.1-0.6c-0.3,1.2-1.5,1.8-2.3,2.6c0,0.7-0.8,0.7-1.1,0.9c1.1-1.1,2.1-2.3,3-3.4c0-0.1,0.1-0.1,0.1-0.2
		c0.8-1,1.5-2,1.8-2.9c1.5-1.8,2.9-3.7,4.3-5.7l-0.2-0.1c1.6-1.6,3.1-2.9,3.9-4.9c-0.5-0.5-1.2,0.3-1.9,0.6c0,0.2-0.5,0.6-0.1,0.8
		c-3.2,3.6-5.5,6-8.8,9.6l-4,4.5c0,0-0.1-0.1-0.1-0.1c-1.5,2.3-5.1,5.4-7.4,7.4c-0.3,0-0.5,0.5-0.8,0c1.7-2.6,3.4-4.9,5.4-7.3
		l-0.2-0.1c1.2-1.4,2.8-3.2,3.7-4.8c-0.3-0.3-0.6-0.5-1.1-0.5c-1.1,2.2-3.1,3.9-4.3,6c-1.4-1.1,0.8-2.2,0.9-3.4
		c2-1.4,2.2-3.2,4.2-4.9c2-2.5,3.9-6,6.2-8.3c0.3-0.9,1.5-1.5,1.4-2.6c1.1-0.3,1.4-1.6,2-2.3c3.7-4.6,8-10.6,12-15.4l-0.1-0.3
		c7.7-9.3,14.5-19,23.3-27.9c8.6-9.7,17.1-19.4,25.1-28.4c0.8-0.3,0.9-1.4,1.5-1.9c35.9-39.8,72.8-76.5,110.5-113.6l0.5,0.3
		c0.9-0.3-0.5-1.1,0.5-1.4c0,0.2,0,0.5-0.3,0.6l0.3,0.5c9.7-7.1,20.5-12.5,29.6-20l0.2,0.2c5.1-3.2,11.1-7.4,15.4-11.4l-0.6-0.3
		c-0.7,1.4-2.6,1.8-3.9,2.7c0.1-0.5-0.1-0.8-0.5-0.6c-0.8-0.3-0.8,0.3-0.9,0.8c-8.3,4.3-15.6,11.9-23.1,15.7
		c-1.7,1.1-3.7,2.5-5.2,4.2c-1.3-0.3-1.4,1.2-2.2,1.6c-2.9,1.4-5.7,4-7.9,5.4c13.7-13.7,27.3-27.4,41.6-41.2
		c7.3-3.2,14.6-8.3,22.2-11.7c3.2-2.8,7.3-3.4,10.9-5.4c4.8-2.8,10.3-4.8,15-7.4c-0.5,0.3-1.9,0-2.6,0.5c-0.9,0.3-2.2,1.5-3.2,1.4
		c-0.9,0.9-2.5,1.1-3.4,2c-1.4-0.2-3.3,1.1-4.8,1.1c-1.9,1.1-4.5,1.5-5.7,3.2c-1.2,0.2-2.2,1.7-3.9,1.4c-1.5,0.8-3.7,1.5-5.4,2.3
		c-3.7,2.8-8.2,4-12.2,6.8c-1.7-0.3-0.5,1.1-1.9,1.2c0.1,0,0.1-0.3,0.1-0.5c1.1-0.9,2.5-2.5,4-3.7c2.8-2.8,5.5-6.3,9.2-7.9
		c2.3-1.2,5.4-1.7,7.9-3.1c0.8,0.3,1.5-0.5,2.3-0.8c1.8-0.8,4.5-0.6,5.5-2.2c2.5-1.2,4.8-2,6.5-4.2c-1.5-0.3-3.1,1.7-4.8,1.5
		c-0.8-0.1-1.2,1.7-2,0.6c-0.3,0-0.1,0.3-0.1,0.5c-2.3,0.9-5.1,1.2-7.4,2.5c-0.3-0.5-0.9,0-0.9,0.3l-5.5,2.5
		c5.9-5.9,13.9-15.3,23.5-10.7l-2.2,2c0.8,0.6,1.4,1.2,2.3,1.2c1.4,0,1.4-1.8,2.9-1.2l1.2-0.6c6.3,3.5,12.3,7.9,16.5,13.6
		c-0.3,2.2-0.5,4.5-1.4,6.3c-0.3,0,0-2.3-1.4-2.3c0.2-1.2-0.8-2.3-1.2-3.4c-0.2,0.1-0.2,0.2-0.2,0.4c-0.1-0.4-0.5-0.6-0.5-0.4
		c-0.5-0.9-0.1-2.3-1.2-2.9c-0.5,1.9,0.6,3.6,0.3,5.4h-0.2v2c-0.1-1.1-0.6-2-1.1-2.9c-0.9-1.8-0.2-5.1-2.2-5.9
		c-0.1,1.1,0.5,2.5,0.5,3.4c0-0.2-0.1-0.3-0.1-0.3c-0.5,0-0.2,0.5-0.3,0.6c0.9,0.8,0,3.1,0.9,4.5c0.5,0.2,0.6,0.8,1.3,0.8l0.3-0.3
		c-0.3,1.7,2.8,2.8,1.5,4.8c0.3,0.8,1.4,0.6,0.9,1.2c-1.4,2.8-2.6,5.7-3.3,8.5c1.7-0.3,2-1.8,2.6-3.2c0.6-1.2,0.9-2.5,1.9-3.6
		c0.6,0.9,1.7,2.3,1.2,3.7c-2,4.6-5.2,8.9-8.9,11.9c0.9-1.4,2.2-2.9,2.8-4.6h-0.8c0-0.2-0.1-0.3-0.1-0.5c-2,2.3-3.5,5.1-5.1,7.9
		l-0.2,0.5c-3.1,2.5-6.2,6.2-9.1,8.9c-0.6,0.6-0.9,1.7-1.9,2c4-7.7,10-16,12.7-24.5c0.5-0.5,1.2-1.2,0.9-2.2
		c-1.1-0.2-1.2,1.4-1.9,1.9c-1.8,4-3.5,8-5.4,12c-2.5,4.6-5.5,9.6-8,14.3c-3.1,2.3-5.5,5.4-8,8.2c2.3-1.1,3.9-3.9,6-5.1
		c2.9-2.9,6.8-5.9,9.4-9.4c0.9-0.2,1.9-1.4,2.5-2.2c-1.4,2.2-3.7,4.8-5.4,7.4c0.8,0.3,1.4-1.2,1.9-1.4c1.7-1.9,4.3-3.2,4.8-6
		c-0.1-0.6-0.5,0.3-0.3-0.5h-0.6c0.3-0.2,0.3-0.5,0.6-0.8c0,0.2,0.1,0.3,0.1,0.5c2.8-3.4,6.2-6.5,9.1-9.3
		c-4.3,9.1-13.4,16-19.4,24.1l0.2,0.2l1.7-1.5l-0.1-0.2c1.9-1.6,3.4-3.5,5.2-5.4c-0.2,0.4-0.4,0.9-0.6,1.3l0.3,0.3
		c2.2-1.7,3.9-3.2,5.6-5.1c-4.9,5.5-10.2,10.8-16.1,14.5c1.5-2.9,4.9-5.7,6.6-9.2c-2.8,1.4-4.3,4.8-7.1,6.9
		c-2.5,4.6-5.9,8.6-9.9,12.3l0.1,0.2c-0.3,0.8-1.3,1.3-2,2c-0.2,0.2-0.4,0.4-0.5,0.6c-0.2,0.4-0.3,0.8,0,1.4l0.8-0.9
		c0.1,1.1-1.9,2.5-2.5,3.7l0.3,0.1c3.3-3.2,6.9-7.9,9.9-10.8v0.2c1.5,0,1.7-1.9,2.8-2.8l-0.1-0.2l0.5,0.5l0.6-0.8l-0.1-0.2
		c4-3.9,8.5-7.2,12.5-11.4l1.4-1.4l0.1,0.2c2.6-2.9,5.2-5.9,7.4-9.3c0.5-1.5,1.7-3.1,1.2-4.5c2.2-3.2,3.5-7.6,6.6-10.3l-0.1-0.1
		l1.2-0.9c0.6,0.6,1.5,2.5,0.9,3.7c-0.2,1.1-1.2,2.5-1.7,3.9l-0.1-0.2c-1.7,1.4-2.6,4.2-2.9,6c0.9-2.2,3.1-2.8,3.9-5.1
		c1.5-1.2,2.5-3.1,3.4-4.5c-0.2,0.6,0.5,0.8,0.9,0.9c3.4-1.7-0.5-6.3,1.9-8.9L599.4,120.3z M530.8,198.8c-0.3,0.2-0.5,0.4-0.6,0.6
		c0,0.1,0,0.2,0,0.3c0.3-0.9,2-1.4,1.9-2.2C531.9,198,531.3,198.4,530.8,198.8z M507.6,222.5l-0.3-0.2l0.3,0.4V222.5z M504.5,225.5
		c0.4-0.2,0.7-0.5,0.5-0.8c-0.2,0.1-0.5,0.5-0.8,0.8H504.5z M347.6,329.5c-1.3,1.9-2.9,3.1-4.2,4.9c1.8-1.8,3.5-3,5-4.6
		C348.2,329.3,347.8,329.6,347.6,329.5z M524.3,205.7l0.9-0.9l-1.2,0.6L524.3,205.7z M463.9,252v0.3h0.3V252H463.9z M457.2,258.2
		c1.1-0.5,2.1-1.4,2.6-2.3l0.2,0.1c0-0.2,0-0.5,0.1-0.6L457.2,258.2z M455.1,215l0.5-0.6h-0.2h-0.1l-0.1,0.2L455.1,215z
		 M513.6,197.5c-0.1-0.1-0.1,0.1-0.2,0.2h0h0.3L513.6,197.5C513.7,197.5,513.7,197.5,513.6,197.5z M490.3,220.2l-2.6,2.8
		c0.8,1.4,0,3.9,0,5.1c0.8-0.6,1.1-1.5,2-1.5c0.3-0.6,0.5-0.6-0.1-1.1c-0.1-0.4,0-0.6,0.2-0.7l0,0
		C489.7,223.7,490.1,221.6,490.3,220.2z M492.3,191.2c-1.3,1-3.8,1.7-3.1,3.1L492.3,191.2z M403.4,279.4c1.1-0.9,2.2-0.9,2.2-2
		C404.2,277.7,404.1,278.2,403.4,279.4z M542,154c0-0.3,0-0.5,0.1-0.6l-0.8,0.6c-0.5,2-1.1,4.8-2.3,6.3l-0.3-0.3
		c-0.1,1.5-2,2.9-2,4.3c3.9-6,8.5-13.1,13.7-18.2c1.4-2,2.6-5.1,4.5-6.5c-0.1-0.6,0.9-1.1,0.8-2c0.1,0.3,0.2,0.3,0.2,0.6
		c0-0.9,1.5-2,0.9-2.6c-2.6,4.3-5.5,9.3-9.7,12.5l0.3,0.3l-1.5,1.8l-0.3-0.5c-1.4,1.2-0.9,3.4-2.5,4.5
		C542.8,153.9,542.3,154.8,542,154z M546.2,141.9c0.7-0.3,1.8-1.4,1.7-1.9c-0.8,1.4-4.2,1.9-3.1,3.7l1.7-1.7L546.2,141.9z
		 M543.9,149.9c0.2-0.9,1.1-1.7,1.1-2.5C545,148.4,543.4,149,543.9,149.9z M555.8,135.1L555.8,135.1l-0.5,0.5L555.8,135.1z
		 M556.1,134.7c0.1-0.8,1.2-1.5,0.9-2C557,133.4,555.6,134,556.1,134.7z M533.7,171.2c0.9-2,2.7-3.3,3.6-5.2
		c-0.8,0.5-1.2,1.5-1.7,2.2c-0.3-0.2-0.1-0.5-0.1-0.8c-0.2,1.1-1.5,0.9-1.4,2.3l-0.1-0.3c0.1,0.2-0.9,1.1-0.2,1.2
		C533.7,170.7,533.8,171,533.7,171.2z M535.9,165.5l0.1-0.2C535.7,165.3,536,166.4,535.9,165.5z M558.1,132.2c0.5-0.4,1-1.2,1.5-1.7
		l0,0l-1.7,1.7H558.1z M402.5,276.1c-1.1,1.2-2.2,3.1-3.5,4.8l0.7-0.2C400,278.7,404.3,278.8,402.5,276.1z M470,248.8
		c0.3-0.3,0.6-0.6,0.8-0.9L470,248.8L470,248.8z M450.8,212.8l0.4,0.3L450.8,212.8L450.8,212.8z M353.5,327.4
		c0.5-0.2,0.6-0.3,0.8-0.8C354,326.9,353.3,326.9,353.5,327.4z M347.4,332l1.2-0.9c0.4-0.5,1.6-1.3,2.7-1.9
		C350.1,329.3,348.5,330.7,347.4,332z M342.1,338.2c0.9-0.7,1.7-1.1,2.3-1.8c-0.8,0.9-2.5,1.1-2.9,2.3l0.8-0.3L342.1,338.2z
		 M344.5,336.3c0.1-0.1,0.2-0.3,0.2-0.4C344.6,336,344.5,336.2,344.5,336.3z M340.7,339.1l-0.2-0.3l-1.4,1.4
		c-1.7,0.4-3.2,2.9-3.9,3.7C337.1,342.3,338.5,340.7,340.7,339.1z M526.6,203.3c0.9-0.6,1.3-1,1.5-1.6c0-0.1,0.1-0.2,0.1-0.3l-1.7,2
		C526.5,203.4,526.6,203.3,526.6,203.3z M528.9,201.1c0.3-0.5,0.5-0.5,0.6-0.9L528.9,201.1z M539.4,190.9l-2,2.2l0.8-0.8
		L539.4,190.9z M594.9,123c1.2-2.3,0-5.4,0.3-8.3l0.8-1c0.1-0.9-0.9-0.5-1.3-0.3C595.8,116.3,593.2,120,594.9,123z M284,396.6
		l-0.2-0.1l-0.1,0.4L284,396.6z M298.8,384.7c-0.7,0.2-1,0.8-0.8,1.1C298.6,385.8,298.5,385,298.8,384.7z M296.1,390.4l0.9-0.8
		l-0.1-0.2L296.1,390.4z M288.1,395.8v-0.3h-0.3v0.3H288.1z M16.4,634.8L16.4,634.8C16.4,634.8,16.5,634.8,16.4,634.8
		C16.4,634.8,16.4,634.8,16.4,634.8z M15,641.6l0.3,0.3C15.3,641.8,15.1,641.6,15,641.6z M18.3,638.5l-0.5-0.3
		c0.5,0.3,0.1,0.9-0.3,0.9l-0.1-0.1c-1.7,0.9-0.8,2.6-1.9,3.1l-0.2-0.2c-0.3,0.6-0.9,0.3-0.9,0l-0.5,0.6c-0.6,0.6,0.5,1.5,0.8,2.2
		c1.3-2.4,2.4-4.7,3.9-6.5L18.3,638.5z M255.5,430.8c0.1-0.1,0.2-0.2,0.2-0.2C255.7,430.6,255.6,430.7,255.5,430.8z M288.3,395.8
		c1.1-0.3,0.6-1.5,1.5-1.5c0.1-0.5,1.4-0.5,0.9-1.2l-2.5,2.5L288.3,395.8z M255.7,430.6c0.5-0.5,1.3-0.8,1.5-1.5l0.1,0.2l1.1-1.1
		C257.3,428.7,256.6,429.7,255.7,430.6z M286.7,396.9l-1,0.9h0.2L286.7,396.9z M597.2,124.1c0-0.1,0-0.2,0-0.4l-0.2,0.1
		C597.1,123.9,597.1,124,597.2,124.1z M290.6,385.9c0.6-1,1.7-1.6,2.3-2.9C291.8,383.6,291,385,290.6,385.9z M597.7,124.3l0-6
		c0.3-0.8,0.3-1.4-0.1-2.2c-0.2,2-0.2,5.1-0.4,7.6l0.3-0.2C597.8,123.7,597.5,124,597.7,124.3z M574,95.9v0.2l0.6-0.2H574z
		 M597.2,124.1c0,0.2,0,0.4-0.1,0.5C597.1,124.4,597.2,124.2,597.2,124.1z M594.9,128L594.9,128l0.1-1.2h-0.1V128z M325,336.7
		l-1.1,1.8l1.7-1.8H325z M265.7,409.6c-0.6,1.2-1.9,2.2-1.5,3.5c-1.4,0-1.7,2.2-2.3,3.4l0.8-1.1l0.3,0.5c-0.5,1.2-0.9,0.9-1.5,2.2
		c-0.9,2.5-3.2,3.7-3.5,6.5l0.9-1.5c0.2,0.6-0.3,1.5-0.5,1.8c0.6-0.1,0.9-0.3,1.4-1.1c0.2,0,0.1,0.3,0.1,0.5
		c5.5-0.5,8.6-5.5,12.3-8.9c4.9-4,10-9.2,15.1-13.6l0.2,0.3c0-1.1,0.6-0.3,1.1-0.9c0.3-0.8,1.5-1.5,2.5-1.8
		c-6.8,7.6-13.6,12.6-20.8,20c2.5-0.9,3.7-3.5,6.2-4.8l-0.1-0.2l0.5-0.6c0.1,0,0.2,0.2,0.2,0.3c1.4,0.2,2.3-1.7,3.3-2.3l0.2,0.2
		c1.1-1.2,3.1-2.8,4.3-3.9l0.1,0.2c2-1.7,4-1.7,5.9-3.4c1.4-1.5,3.9-2.8,4.9-4.3c3.5-0.9,2-5.4,3.4-8c-0.9,0.2,0-1.9-0.3-2.3
		c-2.5,2.3-4.8,3.4-7.4,5.7c-3.3,2-6.3,4.8-9.6,6.5c0.6-0.6,1.1-1.9,1.2-2.2c-0.3,0.9-0.8,0.3-1.1,1.2c-2.2,0.9-2.8,2.8-4.5,3.9
		l-0.1-0.2c0.1-0.6,0.6-1.5,1.2-1.7c0-1.1,2.1-1.7,0.9-2.9c13.6-21.9,28.7-41.2,43.9-61.8c-0.9,0.2-0.5,1.4-1.4,1.2
		c-6.8,7.7-15.1,16-22.2,24.4c-4.8,4.6-8.9,9.3-13.7,14l0.3,0.2c-2.3,2-3.7,3.7-5.4,5.9l-0.1-0.3l0.1-0.2
		C276.7,392.6,271.5,400.8,265.7,409.6z M259.9,424.3C259.9,424.3,259.9,424.3,259.9,424.3C259.9,424.5,259.9,424.4,259.9,424.3z
		 M277.1,414.1C277,414.1,277,414.1,277.1,414.1C277,414.4,277.1,414.3,277.1,414.1z M51,643.1h0.6c0.6-0.5-0.3-0.6-0.6-0.9
		C51.5,642.8,50.2,642.7,51,643.1z M53.9,646.7c0.1,0,0.3-0.2,0.5-0.2l-0.1-0.1l1.4-1.6l-0.1-0.1c0.3-1.7-0.1-4,1.9-4.6
		c-0.4,0.6,0.1,0.9,0.1,1.5c0.4-2.2,0.5-4.2,0.5-6C55.9,639,52.8,643,53.9,646.7z M55.7,632l-0.1,0.6C56,632.6,55.9,632.3,55.7,632z
		 M55.7,632l0.1-1.4C55,631.1,55.4,631.6,55.7,632z M18.6,632.9c-0.7,0.5-1.5,1.1-2.1,1.9C17.3,634.3,18.3,633.8,18.6,632.9z
		 M53.5,638.8c0-0.2-0.3-1.2,0.3-1.1c-0.3-2,0.5-3.1,0.8-4.8c-0.5,0,0,0.6-0.3,0.6l-0.3-0.2c-0.6,2,0,4.3-1.9,5.6l0.3,0.1l-0.6,0.6
		c0,0.8,0.9,0.6,1.5,0.3C52.5,639.4,53.8,639.3,53.5,638.8L53.5,638.8z M44.3,657.9c0.1-0.2,0.2-0.4,0.4-0.5
		C44.5,657.6,44.4,657.7,44.3,657.9z M44.7,657.4c0.2-0.2,0.4-0.4,0.5-0.8C45,656.9,44.9,657.1,44.7,657.4z M44.4,658.3l-0.1-0.3
		c0,0,0,0,0-0.1c-0.3,0.4-0.6,0.9-1,1.4C43.7,659,44.1,658.7,44.4,658.3z M57,634.6l-0.9-0.8l-0.5,2.7L57,634.6z M316.3,388
		c0.1,0,0.1-0.1,0.2-0.1C316.4,387.9,316.4,388,316.3,388z M57.6,641.6c0,0.3-0.1,0.6-0.1,0.9C57.7,642.1,57.7,641.8,57.6,641.6z
		 M45.9,668.8l0.2,0.2l-0.2,0.3c1.2-1.5,3.3-2.3,3.7-4.2C48.4,666.6,46.8,667.7,45.9,668.8z M50,659.4c0,0-0.1,0.1-0.1,0.2
		C49.9,659.5,50,659.5,50,659.4z M49.9,659.6c-0.1,0.2-0.3,0.4-0.4,0.6C49.7,660.1,49.7,659.8,49.9,659.6z M51.5,645.6v0.3
		c-0.3,0.4-0.6,0.4-0.9,0.3c-0.3-1.7-2.3-0.6-3.2-2.3c0.9,2.2,3.1,2.5,4.6,4.2C51.8,647.2,52.5,645.5,51.5,645.6z M16.6,635.1
		l-0.2-0.3c-0.2,0.2-0.3,0.4-0.4,0.6C16.3,635.3,16.3,634.9,16.6,635.1z M49.2,660.2v0.3c0.1-0.1,0.2-0.2,0.2-0.3
		C49.4,660.2,49.3,660.2,49.2,660.2z M47.8,659.1c1.7-1,1.4-2.6,2.8-3.7c0.6-0.8-0.5-1.1-0.5-1.7C50,655.9,48.4,657.4,47.8,659.1z
		 M42.7,664.9l0.1,0.2c-1.4,1.1-2.8,2.2-3.9,3.4c-0.9,0-2.3,0.5-3.2,1.1c1.6,0.8,3.1-0.1,5-0.6c3.5-1.9,6.1-5.1,8.3-8.2
		C46.9,662,45.7,665.2,42.7,664.9z M49.2,660.7v-0.2c-0.1,0.1-0.1,0.2-0.2,0.3C49.1,660.8,49.1,660.7,49.2,660.7z"/>
</g>
</svg>
