<?xml version="1.0" encoding="utf-8"?>
<!-- Generator: Adobe Illustrator 21.1.0, SVG Export Plug-In . SVG Version: 6.00 Build 0)  -->
<svg version="1.1" id="Layer_1" xmlns="http://www.w3.org/2000/svg" xmlns:xlink="http://www.w3.org/1999/xlink" x="0px" y="0px"
	 viewBox="0 0 612 792" enable-background="new 0 0 612 792" xml:space="preserve">
<g>
	<path fill="#121212" d="M570.7,573.7c-1.1-0.3-2.2-0.8-3.3-1.2c3.6-2.1,1.7-6-1.8-4.8l-4.1,1c0.5-0.9,1.2-1.5,1.6-2.4
		c1.1-2.5-1.7-3.4-3.6-2.5c-9.7-18.8-27.4-26.9-48-28c3.2-12.1,4.4-26.9-5.6-36.2c-11.7-10.9-32.6-9-46.9-5.7
		c-5.6,1.3-11.1,3.1-16.5,5.2c45.2-61.2,15.7-119.7-37.4-167.4c-8.8-7.9-14.7-17.4-15.8-29.3c-1.5-16.1,5.9-33.2,12.8-47.4
		c1.8-3.8,3.8-7.5,5.7-11.3c11-21.4,19.6-48.6,3.6-69.9c-36.9-49.3-146.5-24.5-198.6-4.7c-50.7,19.3-99.4,50.5-135.3,91.5
		C38,305.7,18.7,363.4,70.9,409c17.5,15.3,62.7,37.7,65.9,60.4c1.5,10.5-4.5,20.1-11.1,27.8c-0.1-6.9-0.1-13.9-0.2-20.9
		c0-4.1-1.9-10.2-7.2-9.4c-4.7,0.7-6.2,3.6-7,7.9c-2.1,11.2-2.1,27.6-2.5,39.5c-1.4,1.3-2.9,2.7-4.3,4c0.1-2.7,0.6-11.7-0.1-13.6
		c-1.4-3.7-7.7-5.7-10.3,3.5c-2,7.3-3.3,15.3-3.2,22.9c-1.2,1.2-2.3,2.3-3.5,3.5C72.2,549.7,53,574,63.9,596.5
		C86,642.3,185.3,637,230.8,628.2c58.2-11.3,125.9-51,172.2-87.8c21.9-17.4,55.5-41.9,85.1-35.2c15.8,3.6,14.2,18.4,10.2,30.7
		c-52.5,3.6-114.4,31.2-150.2,69.6c-5.1,5.4-10.2,12.1-13.1,19c-2,4.8-3.5,10.9-0.9,15.7c4.5,8.5,18.8,7.5,26.7,6.3
		c55.5-8.4,123-45.1,146.4-98.5c18.5,0.1,34.4,6,42.4,23.6c-3.1-1.5-4.8,2.7-1.1,5.9c-0.8,0.2-1.6,0.7-1.8,1.6
		c-0.5,2.1,2.1,2.8,4,3.1c-3.7,1.8-0.9,5.4,4.8,4.1c-2.9,4.2,4.4,5.5,8.4-1.6c2.1,3.8,6.4,2.8,3.9-6.2
		C573.1,580,574.9,575.1,570.7,573.7z M511.4,522.2c-0.1,2.4-0.4,4.8-0.9,7.2c-1.9-2.1-5.2-3.3-7.7-2.7c0.7-4.7,0.4-9.6-0.8-12.9
		c1.8-2.8,7.3-1,9.2,2.2C511.4,517.9,511.5,520,511.4,522.2z M439.5,499.2c-2.5,1.6-6.6-1.9-7.6-5.4c2.5-3.3,4.9-6.7,7.2-10.1
		c0.5,3.4,3.3,6.9,6,7.5C443.4,493.9,441.5,496.5,439.5,499.2z M331.9,566.2c1.3-5.4,4.1-8.6,8.6-2.9c3.1-7.7,10.9-13.4,19.1-7.5
		c-18.4,12.7-38.3,24.3-58.5,34c-2-11.1-11.2-21.6-20.9-25.8c2-3.9,7.2-3.3,9.4,0.3c1.9-1.7,4.5-1.4,6.1,0.7
		c2.7-10.9,15.9-10.1,17.7,1c1.1-0.7,2.4-1,3.7-0.7c-3.7-12.7,9.1-22.8,17.3-14c1.7-2.3,4.3-3.5,7-2.8c-0.2-7.7,6.4-12.9,12.2-9.9
		c0.2-3.7,2.5-6.2,4.6-4.6c-1-10.2,6.7-19.1,16.7-19.1c5.9,0,11.1,3.2,14.1,8c3.7-1.8,7.6-0.9,10.4,1.6
		c-11.8,10.6-24.8,20.8-38.5,30.4c-10.7-8.3-19.1,2-20.7,5.7c-5.5-4.8-8.1,1.5-9,4.1c-2.9-1.4-5.4,0.4-5.5,4
		C327.3,565.1,328.9,564.2,331.9,566.2z M263.2,596.8c-0.7-2.1-1.5-1.9-2.8-3.6c0,0-1.2-2-1.2-4c1.5,0,3,0.1,4.4,0.1
		c11.9,0.1,28.4-0.3,36.1-0.5c0.1,0.5,0.3,1,0.4,1.5c-4.5,2.1-9,4.2-13.6,6.2L263.2,596.8z M285.5,596.9c-1.4,0.6-10.1,4.4-10.8,4.3
		c-1.2-0.4-2.3-0.8-2.8-1.2c-2.7-2.1-7.5,0.3-8.5-2.8L285.5,596.9z M250,596.8c-0.9-2-1.2-6.1-1.2-6.1l-1.6,0.1l-2.3,4.2
		c0,0-0.1,0.7-0.3,1.7c-5.6-0.1-10.9-0.2-14.7-0.3c0.1-2.6,0.5-5.1,1.2-7.5c5.5,0,13.6,0,21.6,0.1l1.1,4.1c0,0-0.6,2.3-1.5,3.7
		C251.5,596.8,250.7,596.8,250,596.8z M251.9,597.2c-0.6,0.7-1.3,0.8-1.8,0H251.9z M230.3,604.7c-0.1-0.4-0.1-0.8-0.2-1.1
		c2.4,0,5.4,0,8.7,0C236.7,605.1,240.8,604.7,230.3,604.7z M236.9,605.2c-1.3,0.7-3.7,1.7-6,2.2c-0.2-0.8-0.4-1.5-0.5-2.3
		C232.3,605.2,234.5,605.2,236.9,605.2z M230.1,603.2c-0.1-0.6-0.2-1.3-0.2-1.9c3.4,0,8,0,13.1,0c-0.9,1.8-1.4,1.6-3.2,1.9
		C236.1,603.2,232.8,603.2,230.1,603.2z M209.6,589.3l-1.9,0.4l0.3,4.3l-2.3,3.1c0,0-1.6-0.5-2.8-2.2c-1.2-1.6-0.8-7.3-0.8-7.3
		c-0.5-0.5-1-0.9-1.5-1.3c2.5-3.7,8.4-5.7,11.8-2.1c1.4-2.6,3.5-4.5,6.7-1.7c-1.2-2.8-5.3-3.1-7.2-0.3c-5.1-3-10,0.5-12.2,3
		c-0.5-0.8-0.8-1.9-0.4-3.3h-2.7c-0.5,1-0.7,2-0.8,3c-7.6-4.5-11.9,1-13.6,3.2c-4.5-3.7-6.6,1-6.6,2.6c2.4-4.8,5.9-2.2,6.8-0.3
		c3.4-5.3,7.5-7.5,13.3-3.7c0,1.3,0.2,2.7,0.2,4.1c0,1.5-1.2,4.2-1.2,4.2s0.9,6-0.4,6.4s-3.6-0.1-3.6-0.1c-0.8-2.2-2.4-4.8-0.1-6.7
		c0,0-0.7-3.4-2-3.4s-1.5,5.4-1.6,7.5c-0.1,2.1-0.9,7.4-0.9,7.4s-5,3.2-6.8,3.2c-1.7,0-7.2-1.6-7.2-1.6s-1-2.3-1.2-3.5
		c-0.1-1.2-2.7-1.1-3.8-1.5c-1.6-0.6-2.9-6.3-2.3-6.3c-3.1-4.8,0.6-7.9-1.9-12.2c1.1-1.9,0.1-4.1,0.2-5.9l-0.8-2.5
		c-3.2,1.3-2.5,3.2-1.9,5.2c0,0,0.4,3.9,0.1,5.2s-2.4,6.9-2.4,6.9s-1.1,2.8-2.1,2.3c-1.1-0.5-0.5-3.5-0.5-4.8s-1.3-2.6-1.3-3.9
		s1.3-5.5,1.3-5.5c0-0.9-3.4-2.6,0.3-4.2l-0.9-1.6c0,0-2,0.5-2.7,1.1c-0.7,0.5-1.9,0-2.7,0.4s-0.5,5.8-0.9,6.9
		c-0.4,1.1-1.3,1.7-1.3,1.7l-1.2,6.3c0,0-2.7,3.8-3.1,5.4c-0.4,1.6-2.4,3.4-3.1,3.5c-2.1,0.4-4.8,5.1-6.4-1.9l-1.6-0.4
		c0,0-2.6,2.1-3.4,0.9c-0.8-1.2,0.1-3.8-0.8-3.8c-0.5,0-1.4-0.4-2.3-0.9c-0.1-4.5-0.2-9.1-0.2-13.7c9.2-2.2,13.5-12,14.7-21.4
		c8.9-5,17.9-1.2,21.6,9.2c2.9-5.2,6.7-6.7,11.3-2c3-6.7,8.4-2.5,9.3-2.2c-3.8-4.7-8.6-1.6-9.8,0.2c-5.1-4.7-9-1.1-10.5,0.9
		c-6.5-12.6-16.2-10.3-21.5-7.8c0.8-8.2-0.1-16.9-1.4-23.3c-1.8-8.8-7.6-7.1-9.1-4c-0.7,1.5-0.7,4.8-0.7,6.5
		c-0.1,2.9-0.4,10.5-1.3,16.6c-0.8,0.1-1.5,0.3-2.2,0.6c0.2-13,0.2-26,0.2-39.1c2.3-2.7,5.2-5.6,7.8-8.6
		c10.2,1.5,17.4,13.1,15.8,25.5c5.7,0.2,9.8,6.5,8.9,13.2c0.9,0.1,1.7,0.6,2.2,1.4c1.5-3.2,5.4-4.3,8.2-2.3
		c7.6-10.5,21.8-3.8,21.8,10.1c0,2.4-0.5,4.7-1.3,6.7c4.3-3.5,10.1,1.1,9,7.4c4.1-5,10.7-5.6,15.3-1.1c-0.8-4.3,1.9-8.7,5.7-8.7
		c2.5,0,4.7,2,5.5,4.8c1.8-2.7,5.3-2.4,6.7,0.7c0.8-1.9,2.8-2.4,4.1-0.8c2.9-14.8,24.4-17.3,29.3-2.5c-16,0.2-31.4,11.9-35.2,27.4
		c-1.5,6.2-1.2,12.7,0.4,19.3c-6.9,1-12-4.4-15.6-2.2c-1.1-3.8,0.2-3.6-3.2-6.4C209.2,597.3,210.7,594,209.6,589.3z M130.7,538.7
		c-0.1-2.6-0.1-4.8-0.1-6.6c0.1-0.8,0.4-1.4,1.2-1.9c0.1,5.7,0.3,13.2,0.6,19.6c0.3,5.9-0.8,18-7.5,19.2c0-0.8,0-1.7,0-2.5
		C132.9,564.8,131,545,130.7,538.7z M229.8,600.8c-0.1-1.3-0.1-2.6-0.1-4c3.8,0.2,9.1,0.3,14.7,0.3c-0.3,1.2-0.7,2.6-1.2,3.7
		C238.1,600.8,233.3,600.8,229.8,600.8z M252.2,587.2l0.4,1.4c-7.8-0.1-15.9-0.1-21.5-0.1c4.2-14.7,17.5-25.9,34.2-25.9
		c16.3,0,30,10.9,34.3,25.8c-7.8,0.2-24.1,0.6-36,0.3c-1.4,0-2.9-0.1-4.4-0.1c0.1-1.4,0.9-2.9,0.1-4.4
		C256.7,586.1,257.1,584.2,252.2,587.2z M389.8,520.3c-10.8-14.3-32.9-6.9-33.6,11.1c-2.1,0.4-3.4,2.4-4,4.4
		c-6.6-1.5-11.7,4.2-12.6,10.3c-2,0.1-3.8,0.9-5.3,2.2c-9.3-7.3-20.8,2.2-19.8,14c-3.7-9.1-15.5-9.9-19.8-0.7
		c-1.5-0.6-3.2-0.6-4.7,0c-3.3-3.1-8.7-2.4-11.2,1.4c-3.9-1.5-8.1-2.4-12.3-2.5c-5.5-15.3-27.3-14.6-32.4-0.1
		c-0.9-0.1-1.8,0.1-2.6,0.6c-1.7-1.5-4.1-1.8-6.1-0.8c-4.2-6.3-12.3-3.5-13.8,3.4c-3.8-1.9-8.1-1.6-11.7,0.6c-1-3.5-4.1-6.5-7.8-6.4
		c2.9-16.5-13.9-27.5-24-16.1c-2.6-0.9-5.6-0.3-7.5,1.3c0-5.5-3.1-11.6-8.8-13c0.5-10.6-5.2-22.8-16.2-25.4c5.7-6.8,11-14.8,13-23.5
		c8.8-38.3-45.2-60.5-69.5-81.7c-44.6-39-26.9-90.8,6.6-129.5c33.7-39,79.5-68.8,127.2-87.7c43-17,157.8-47.3,189.5,0.2
		c11,16.6,2.6,39.3-5.7,55.4c-17.8,34.8-35.4,71.1,0,102.9c25,22.5,52,53.4,55.2,88.4c2.2,24-7.2,45.2-22.2,63.5
		c-8.8,10.8-18.6,20.8-28.9,30.2C397.7,520.1,393.7,519.1,389.8,520.3z M386.9,302c-1.3,2-5.5,1.6-8.4-0.2
		c-0.3-5.2,0.1-10.5,1.1-15.8c1.7,2.8,5.1,4.8,7.6,4.6C386.7,294.4,386.6,298.2,386.9,302z M431.1,494.7c1.1,2.9,3.7,5.4,6.1,5.8
		C411.2,514.4,419.1,510.4,431.1,494.7z M445.7,490.3c-2.7-0.3-5.8-4.6-5.6-8.1c1.9-3,3.7-6.1,5.2-9.1c1.3,2.7,4.5,4.8,7.2,5.1
		C450.5,482.2,448.3,486.3,445.7,490.3z M453,477.3c-2.6-0.1-6.1-2.5-7.2-5.2c1.6-3.2,2.9-6.5,4.1-9.7c2,2.2,5.4,3.7,7.8,3.3
		C456.4,469.5,454.9,473.4,453,477.3z M458,464.5c-2.1,0.9-5.8-0.8-7.8-3.3c1.2-3.7,2.2-7.4,2.9-11.2c2,2,5.3,3.1,7.8,2.9
		C460.2,456.8,459.2,460.6,458,464.5z M461.1,451.9c-2.5,0.4-6-0.9-7.8-3.1c0.6-3.7,0.9-7.4,1-11.1c2.3,1.8,5.6,2.6,8,2.1
		C462.2,443.8,461.8,447.8,461.1,451.9z M462.3,438.8c-2.2,0.7-5.9-0.4-7.9-2.4c0-3.6-0.2-7.2-0.7-10.8c2.3,1.2,5.6,1.3,7.9,0.5
		C462.1,430.3,462.4,434.5,462.3,438.8z M461.5,425c-2.2,0.9-5.8,0.7-8-0.8c-0.6-3.6-1.3-7.2-2.4-10.7c2.7,0.9,6,0.6,7.8-0.8
		C460,416.8,460.9,420.9,461.5,425z M458.6,411.7c-1.6,1.5-5.2,1.7-7.9,0.6c-1.1-3.7-2.5-7.4-4.1-11.1c2.7,0.2,5.7-0.8,7.4-2.3
		C455.8,403.1,457.3,407.4,458.6,411.7z M448.1,386.8c2,3.6,3.9,7.3,5.5,11c-1.5,1.7-4.8,2.7-7.5,2.3c-1.5-3.4-3.2-6.7-5.1-10
		C443.9,390,446.9,388.7,448.1,386.8z M447.5,385.8c-0.8,2-4.1,3.4-7.1,3.3c-2.1-3.6-4.4-7.2-6.8-10.7c2.9,0.3,6.1-0.8,7.8-2.5
		C443.6,379.2,445.6,382.5,447.5,385.8z M440.9,375.1c-1.6,1.8-5.2,2.8-8,2.2c-2-2.9-4.2-5.7-6.5-8.5c3-0.3,6.1-1.8,7.1-3.8
		C436.1,368.3,438.6,371.7,440.9,375.1z M432.7,364c-0.5,2.1-4,3.7-7.2,3.7c-2.3-2.9-4.8-5.7-7.4-8.6c3.2-0.2,6.3-1.7,7.2-3.9
		C427.9,358.1,430.3,361,432.7,364z M424.6,354.3c-0.4,2.2-4,3.9-7.3,3.8c-2.7-2.9-5.5-5.8-8.4-8.7c3.2,0,6.5-1.5,7.6-3.7
		C419.3,348.5,422,351.4,424.6,354.3z M405.6,335.3c3.5,3.2,6.8,6.4,10.1,9.6c-0.7,2.2-4.6,3.8-7.8,3.5c-3.1-3-6.3-6-9.6-9
		C401.5,339.2,404.8,337.6,405.6,335.3z M404.8,334.5c-0.3,2.3-4.3,4.1-7.6,3.8c-3.1-2.8-5.7-5.7-8-8.7c3.1,0,6.3-1.4,7.4-3.5
		C398.8,328.9,401.9,331.9,404.8,334.5z M395.8,325.2c-0.6,2.1-4.3,3.7-7.5,3.5c-3.1-4.2-5.3-8.4-6.9-12.7c3.2,1.5,7.2,1.6,8.8-0.4
		C391.6,318.8,393.5,322,395.8,325.2z M389.8,314.4c-1,2.5-5.8,2.1-8.8,0c-1.3-3.8-2-7.6-2.4-11.4c2.8,1.5,6.5,1.8,8.4,0.3
		C387.4,307.1,388.3,310.8,389.8,314.4z M387.3,289.5c-2.4,0.5-6.1-2.1-7.4-5c0.7-3.5,1.7-7,2.9-10.5c1.9,2.4,5,4.1,7.3,3.7
		C388.9,281.7,387.9,285.6,387.3,289.5z M390.4,276.5c-2,0.9-5.5-1-7.3-3.7c1.5-4.5,3.4-9,5.4-13.4c1.2,3.1,3.9,5.8,6.3,5.6
		C393.2,268.8,391.7,272.7,390.4,276.5z M395.3,263.9c-2.3,0.8-5.3-2.5-6.2-5.8c1.8-3.9,3.7-7.8,5.6-11.6c0.6,3.1,3,6.2,5.4,7.1
		C398.4,257,396.8,260.5,395.3,263.9z M400.6,252.6c-2.5-0.7-5.1-4.7-4.9-7.9l5.1-10.1c0.7,2.9,3.3,5.4,5.8,6.1L400.6,252.6z
		 M407.1,239.9c-2.6-0.7-5.5-3.8-5.6-6.7c1.5-3.2,2.8-6.3,3.9-9.5c1.6,2.5,4.5,4.4,6.9,4.1C410.8,231.8,409,235.8,407.1,239.9z
		 M412.7,226.6c-2.2,0.8-5.5-1.5-6.9-4.3c1.2-3.6,2.2-7.1,2.9-10.6c1.8,2.2,4.9,3.5,7.4,3.4C415.2,218.9,414.1,222.8,412.7,226.6z
		 M416.4,214.1c-2.4,0.2-5.8-1.3-7.4-3.6c0.6-3.5,0.9-7,0.8-10.3c2.6,1.8,6,2.4,8,1.2C417.8,205.6,417.3,209.8,416.4,214.1z
		 M417.8,200c-1.4,1.9-5.4,1-8.1-1.1c-0.2-3.3-0.7-6.5-1.7-9.5c2.7,0.8,6,0.3,8-1.2C417.1,192,417.7,195.9,417.8,200z M415.6,187.1
		c-1.8,1.6-5.5,2.1-8.1,1c-1.2-3.3-3.1-6.5-5.3-9.4c3.2,0.2,6.5-1.2,7.2-3.6C412.2,178.9,414.3,182.9,415.6,187.1z M408.7,174
		c0,2.6-3.9,4.1-7.3,3.6c-2.1-2.6-4.5-4.9-7.1-7c2.6-0.7,5.2-2.8,6.1-5C403.4,168.1,406.2,170.9,408.7,174z M399.5,164.9
		c-0.6,2.1-3.5,4.3-6.3,4.9c-3-2.2-6.2-4.2-9.7-5.9c2.8-1,5.3-3.3,5.7-5.6C392.9,160.2,396.4,162.4,399.5,164.9z M388.3,157.9
		c-0.1,2.2-3.1,4.8-6.1,5.5c-3.3-1.5-6.8-2.8-10.5-3.9c2.3-1.5,4.1-4.2,4.5-6.5C380.4,154.3,384.5,156,388.3,157.9z M375.2,152.7
		c-0.3,2.3-2.5,5.3-5,6.4c-3.4-0.9-7-1.7-10.7-2.3c2.3-1.8,3.9-4.7,3.8-7C367.4,150.6,371.4,151.5,375.2,152.7z M362.3,149.6
		c0.3,2.2-1.7,5.4-4.2,7c-4.1-0.6-8.4-1.1-12.8-1.3c2.2-1.9,3.6-5.1,3.3-7.5C353.3,148.2,357.9,148.8,362.3,149.6z M347.6,147.7
		c0.4,2.4-1.3,5.9-3.8,7.4c-3.8-0.2-7.7-0.3-11.6-0.2c2.1-2.1,3.2-5.4,2.6-7.7C339.1,147.2,343.4,147.4,347.6,147.7z M333.7,147.2
		c0.9,2.2-0.7,5.9-3.1,7.7c-4.1,0.1-8.2,0.3-12.3,0.6c2-2.3,3.1-5.6,2.4-7.9C325.1,147.4,329.4,147.2,333.7,147.2z M319.7,147.6
		c0.8,2.2-0.6,6-2.9,8c-4,0.3-8.1,0.7-12.2,1.2c2.3-2.1,3.6-5.7,3.1-8.2C311.7,148.2,315.7,147.9,319.7,147.6z M306.7,148.7
		c0.6,2.6-1.3,6.8-4.1,8.4c-4.2,0.5-8.3,1.2-12.4,1.8c2-2.1,2.9-5.8,2.1-8.3C297.1,149.9,301.9,149.2,306.7,148.7z M291.3,150.7
		c0.9,2.6-0.5,6.9-3.1,8.5c-3.6,0.6-7.2,1.3-10.8,2c1.8-2.3,2.4-6,1.3-8.3C282.9,152.1,287.1,151.4,291.3,150.7z M277.7,153.2
		c1.3,2.1,0.3,6.4-1.9,8.5c-4.3,0.9-8.5,1.8-12.7,2.8c1.6-2.7,2.1-6.4,0.8-8.4C268.4,155.1,273,154.1,277.7,153.2z M262.8,156.4
		c1.6,1.7,0.9,6-1.2,8.5c-4.2,1-8.2,2.1-12.2,3.2c2.1-2.6,2.9-6.5,1.9-8.9C255,158.2,258.8,157.3,262.8,156.4z M250.3,159.4
		c1.2,2.4-0.2,7.2-2.9,9.2c-4.2,1.2-8.3,2.4-12.1,3.6c1.9-2.5,2.3-6.4,1.1-8.8C240.8,162.1,245.5,160.7,250.3,159.4z M235.4,163.7
		c1.3,2.5,0.4,7.3-2.2,9.1c-3.6,1.1-7,2.3-10.2,3.4c1.6-2.7,1.7-6.4,0.3-8.6C227.1,166.3,231.2,165,235.4,163.7z M222.4,168
		c1.5,2,1.1,6.5-0.9,8.8l-12,4.5c1.3-2.8,1.4-6.5,0.1-8.6L222.4,168z M208.6,173c1.5,2,1.1,6.4-0.8,8.9c-3.7,1.5-7.3,3.1-11,4.7
		c1.6-2.7,1.7-6.6,0.3-8.8C200.9,176.1,204.7,174.5,208.6,173z M196.2,178.2c1.5,2.1,1,6.8-1.1,9.2c-3.9,1.8-7.7,3.6-11.5,5.5
		c1.2-2.7,1-6.5-0.6-8.6C187.3,182.2,191.7,180.2,196.2,178.2z M182.2,184.8c1.6,2.1,1.7,6.7-0.3,9.1c-3.3,1.7-6.6,3.4-9.8,5.2
		c0.9-3,0.4-6.7-1.3-8.5C174.6,188.6,178.3,186.7,182.2,184.8z M169.8,191c1.9,1.6,2.2,6,0.7,8.7c-4,2.2-8,4.5-11.9,6.8
		c1.1-2.8,0.6-6.5-1-8.6C161.6,195.5,165.7,193.2,169.8,191z M156.8,198.5c1.7,1.9,2,6.4,0.4,9.1c-3.4,2.1-6.8,4.2-10.1,6.4
		c1.3-3,1-7-0.6-9.2C149.9,202.6,153.3,200.5,156.8,198.5z M145.7,205.3c1.8,2.4,1.7,7.9-0.8,10.1c-3.2,2.1-6.3,4.3-9.4,6.5
		c0.8-2.9-0.1-6.5-1.9-8.5C137.6,210.6,141.6,207.9,145.7,205.3z M132.8,214c1.9,1.9,2.7,6.5,1,9.1c-2.9,2.1-5.7,4.3-8.6,6.4
		c0.4-3-0.7-6.4-2.7-7.9C125.9,219,129.3,216.5,132.8,214z M121.6,222.2c2.1,1.2,3.3,5.3,2.4,8.3c-3.4,2.6-6.6,5.3-9.9,8.1
		c0.2-3.1-1.1-6.5-3.1-7.8C114.5,227.9,118,225,121.6,222.2z M110.1,231.6c2.1,1,3.4,4.9,2.8,8.1c-3,2.6-6,5.3-8.9,8
		c0.3-3.3-1.1-6.7-3.2-7.9C103.8,237,107,234.3,110.1,231.6z M100,240.5c2.2,0.9,3.5,4.9,3,8.1c-3.2,3-6.3,6.1-9.3,9.3
		c-0.2-3-1.9-6.2-4.1-7.3C93,247.2,96.4,243.8,100,240.5z M88.9,251.3c2.2,0.8,4,4.6,3.7,7.6c-2.7,2.8-5.3,5.7-7.9,8.6
		c-0.3-2.9-2.2-6-4.5-6.8C83,257.5,85.9,254.4,88.9,251.3z M79.4,261.6c2.3,0.4,4.3,4,4.3,7.2c-3.4,4-6.7,8-9.7,12.2
		c-0.3-3.2-2.2-6.5-4.5-7.3C72.6,269.6,75.9,265.5,79.4,261.6z M68.9,274.5c2.3,0.5,4.4,4.5,4.2,7.8c-2.3,3.3-4.6,6.7-6.6,10.1
		c-0.5-3.4-2.7-6.7-5.1-7.1C63.7,281.7,66.2,278.1,68.9,274.5z M60.8,286.3c2.5-0.1,4.9,4.1,4.8,7.7c-2,3.5-3.9,7-5.6,10.5
		c-1.2-3-4-5.6-6.5-5.6C55.7,294.7,58.1,290.4,60.8,286.3z M52.9,300c2.4-0.5,5.6,2.6,6.4,5.9c-1.8,4-3.4,8-4.8,12
		c-1.4-3.2-4.6-5.8-7.2-5C48.9,308.6,50.8,304.3,52.9,300z M46.9,314.1c2.4-1.7,6.2,1.7,7.2,5.2c-1.1,3.5-2,7.1-2.7,10.6
		c-2.1-2.1-5.6-3.3-8.2-2.8C44.1,322.8,45.4,318.4,46.9,314.1z M42.9,328.2c2.4-0.7,6.4,0.7,8.2,3.1c-0.7,3.9-1.1,7.8-1.2,11.6
		c-2.5-1.9-6.3-2.7-8.6-1.5C41.5,337,42,332.6,42.9,328.2z M41.2,342.7c1.9-1.7,6.3-0.7,8.7,1.7c0,4,0.3,8,0.9,12
		c-2.8-2-6.9-2.7-8.9-1C41.3,351.2,41.1,347,41.2,342.7z M42.1,356.8c1.4-2.3,6.3-1.2,9,1.2c0.7,3.9,1.8,7.8,3.3,11.6
		c-3-2.2-7.5-2.9-9.3-0.8C43.8,364.8,42.8,360.8,42.1,356.8z M51.8,383.4c-2.6-4.4-4.7-8.9-6.3-13.4c1.3-2.8,7.3-1.3,9.8,1.8
		c1.3,3.2,2.9,6.3,4.8,9.4C57,380.5,53.4,381.4,51.8,383.4z M52.5,384.3c1.1-2.1,5.3-3,8.4-2c2.1,3.2,4.4,6.4,7.2,9.6
		c-3.4-0.4-7,0.7-8.1,2.9C57.1,391.3,54.6,387.8,52.5,384.3z M69.9,405.3c-3.4-3.1-6.5-6.3-9.2-9.6c0.6-2.4,5.1-3.5,8.4-2.6
		c2.5,2.8,5.3,5.5,8.3,8.2c0.1,0.1,0.2,0.2,0.3,0.3C74.7,401.4,71.3,403.1,69.9,405.3z M70.7,406c1.3-2.3,5.6-4.1,8.6-3.1
		c2.6,2.1,5.5,4.3,8.6,6.5c-3.2,0.4-6.3,2.3-7,4.7C76.8,411.1,73.9,408.9,70.7,406z M81.8,414.7c0.4-2.4,4.2-4.5,7.4-4.3
		c3.3,2.4,6.9,4.8,10.6,7.3c-3,0.5-5.9,2.5-6.7,4.8C89.1,419.8,85.3,417.2,81.8,414.7z M94,423.1c0.7-2.3,4.1-4.4,7.2-4.5
		c3.3,2.3,6.7,4.6,10.1,7c-3,0.5-5.9,2.5-6.8,4.8C101,427.9,97.4,425.5,94,423.1z M105.3,431c0.7-2.3,4.1-4.4,7.2-4.5
		c3.8,2.7,7.5,5.6,11.1,8.5c-3.3-0.1-7,1.4-7.9,3.8C112.4,436.1,108.9,433.5,105.3,431z M125.6,447.4c-2.8-2.7-5.8-5.4-9-8
		c0.5-2.4,5.1-4,8.4-3.3c3.2,2.7,6.1,5.4,8.8,8.3C130.7,444.1,127,445.4,125.6,447.4z M126.3,448.1c1.2-2.1,5.6-3.3,8.7-2.4
		c3.4,3.8,6.3,7.7,8.4,11.8c-3.1-1-6.9-0.5-8.3,1.5C132.9,455.3,129.9,451.7,126.3,448.1z M135.6,460c1-2.3,5.4-2.6,8.4-1.2
		c1.4,2.9,2.3,6,2.8,9.1c0.2,1.1,0.3,2.2,0.3,3.3c-2.6-1-6-0.9-8,0.4C138.9,467.5,137.8,463.9,135.6,460z M139.1,472.8
		c1.5-1.6,5.3-1.7,8-0.4c0.1,5.8-1.3,11.3-3.8,16.5c-1.2-2.9-4-5.4-6.5-5C138.3,480.3,139.1,476.6,139.1,472.8z M136.2,485.2
		c2.4-1.2,5.4,1.8,6.5,5.1c-1.9,3.8-4.5,7.4-7.4,11.1c-0.9-2.9-3.1-5.4-5.5-5.9C132.5,492.1,134.7,488.7,136.2,485.2z M125.3,500.8
		c1.3-1.5,2.6-3,3.8-4.4c2.3,0.1,4.7,3,5.4,6c-2.7,3.3-5.8,6.6-9.2,10C125.3,508.5,125.3,504.7,125.3,500.8z M125,556
		c0.7-0.3,1.3-0.5,2-0.6c-0.5,2.8-1.2,5.1-2.1,6.1C124.9,559.7,125,557.8,125,556z M124.9,563.7c1.9-1.1,3.5-3.8,4.2-10.3
		c0.7-6.1,1-10.5,1.1-13.8c0.3,5.9,1.9,24.7-5.4,26.5C124.9,565.2,124.9,564.4,124.9,563.7z M124.8,569.4c7-1.1,8.3-13.2,8-19.8
		c-0.3-6.4-0.4-14-0.5-19.7c0.3-0.1,0.6-0.2,0.9-0.2c0.4,3.6,0.5,6.6,1,11.5c0.7,7.8,1.6,18.6-2.6,26c-2,3.4-4.3,4.8-6.8,5.3
		C124.8,571.5,124.8,570.4,124.8,569.4z M124.8,573c2.6-0.6,5.1-2,7.2-5.6c5.4-9.2,2.7-22.3,2.3-31.4c-0.1-2-0.3-4.2-0.5-6.2
		c0.6,0.2,1.2,0.7,1.7,1.6c1.7,9.9,3.4,30.8-3.5,39.3c-2.2,2.7-4.7,4.5-7.2,5.6C124.8,575.2,124.8,574.1,124.8,573z M124.8,576.9
		c2.6-1.1,5.2-3,7.6-5.9c6.6-8.1,5.5-27.1,3.9-37.7c0.2,0.5,0.3,1,0.4,1.6c2.6,12.9,4,38-10.7,43.8c-0.4,0.2-0.8,0.3-1.2,0.4
		C124.8,578.4,124.8,577.6,124.8,576.9z M123.3,476.3c0.2,16.4,0.3,62.1-0.2,84.9c-0.3,14.8,0.1,35.4,0.6,51.6c0,1.2-0.6,2-1.7,2.4
		c-1-21-0.7-49.8-0.5-76.6l0.4-39.6c0.2-13.9,0.4-25.3-0.9-29.4C122.7,471,123.3,474.3,123.3,476.3z M118.8,544
		c0.1-15,0.3-29.3,0.3-40.7c0-9.1,0.3-23.4,0-34.4c0.5,0,1,0.1,1.4,0.4c1.8,2,0.8,33.3,0.8,43.9c-0.1,29.9-1.1,73.6,0.3,102.3
		c-0.8,0.2-1.8,0.2-2.8,0.2c-0.4-17.6-0.3-41.5-0.1-64.6C119.5,548.7,119.5,546.2,118.8,544z M118.5,468.9c0.3,10.9,0,25.4,0,34.4
		c0.1,11.1-0.1,25-0.2,39.5c-0.7-1.3-1.6-2.4-2.9-3c0.4-12.3,0.9-24.4,0.8-36.5c-0.1-14.8,0.4-14.7,0.8-25.3c0.1-2.3,0-7.6,0.6-8.9
		L118.5,468.9z M117.1,469.2c-0.3,0.9-0.3,2.5-0.4,4.8c-0.3,12.2-1,13.4-1,29.3c0.1,12-0.4,24.1-0.8,36.3c-0.9-0.4-1.9-0.6-2.8-0.7
		c0.4-8.7,0.7-17.3,0.7-25.8c0-6.9-0.1-38.9,2.8-43.1C116,469.7,116.5,469.4,117.1,469.2z M111.3,496c0.1-6.3,0.9-21.9,3.5-25.2
		c-2.7,7.4-2.5,35.6-2.4,42.3c0,8.5-0.3,17.1-0.7,25.7c-0.6,0-1.1,0-1.7-0.1C110.7,518.2,111.2,500.6,111.3,496z M108.8,517.1
		l-0.4,11.2c-1.2,1.2-2.5,2.4-3.9,3.6c-0.3-3-0.4-6.8-0.5-10.3L108.8,517.1z M108.4,531.1l-0.2,7.5c-2-0.5-2.7-2.3-3.2-4.4
		C106.2,533.1,107.3,532,108.4,531.1z M102.3,505.5c0.7,1.9-0.5,6.7,0.2,23c0.5,11.7,4.4,12,8,11.9c2.9-0.2,5.2,0.4,6.6,2.9
		c-1.6-1.4-4.1-2.4-8.3-1.8c-4.5,0.7-6.6-3.2-7.4-8.7c-1.3-8.1,0.5-21.6-0.5-28.8C101.6,504.3,102.1,504.9,102.3,505.5z
		 M100.4,503.7c1.1,7.5-0.9,20.4,0.5,29c0.9,5.8,3.1,9.9,8,9.1c5.1-0.8,7.7,1,9,2.8c0.2,0.6,0.3,1.3,0.4,1.9c-8.6-5.2-11.6,1-16-5.2
		c-2.9-4.1-3.5-10.7-3.3-16.2c0.3-7.2,0.5-15.6,0.6-21.4C99.9,503.6,100.1,503.6,100.4,503.7z M99.1,503.8
		c-0.1,5.8-0.3,14.2-0.7,21.3c-0.1,2.9,0,5.7,0.4,8.1c0.9,5.5,3.7,12.5,9.6,11.6c4.5-0.6,8.3,1.4,9.9,2.4c0.1,0.8,0,1.5-0.1,2.3
		c-6-2.8-13.5,1.8-18.5-6.9c-4.2-7.4-3.3-18.2-2.6-26c0.5-5.3,0.6-8.4,1.1-12.2C98.5,504.1,98.8,503.9,99.1,503.8z M95.1,512.2
		c0.4-2.3,1.3-5.7,2.5-7.2c-0.3,2-0.5,4.2-0.5,6.4c-0.4,9.1-3.1,22.2,2.3,31.4c5.3,9,12.9,4.3,18.8,7.2c-0.3,1.3-0.9,2.5-1.8,3.4
		c-0.4,0.4-10.4,0.8-17-7.4C93.6,538.8,93.9,523,95.1,512.2z M118.2,615.5c-1.4-0.2-2.9-0.6-4.4-1.1c0.6-17.8,0.9-41.7,1.2-58.2
		c1.4-1,2.5-2.3,3.2-3.8C118,575,117.9,598.4,118.2,615.5z M99.4,583.9c-2.1-2.5-3.3-6.2-4-10.4c-0.3-2.6,0.3-8.9,1-10.6
		c-0.4,8.4,0.4,21.7,10.2,23.3l-0.1,2.7c-0.5-0.1-1-0.2-1.5-0.3C103.1,587.6,101.2,586.1,99.4,583.9z M103.3,588.2
		c-4.8-1.5-6.9-5.8-7.6-11.1C97,582,99.4,585.6,103.3,588.2z M99.8,580.7c-3.1-5.2-3.3-12.3-2.9-18.6c0.5-0.6,1.2-0.8,1.8-0.8
		c-0.1,3.5-0.2,7.6,0.3,10.8c0.8,4.7,3.1,10.7,7.8,10.8l-0.1,2.9C104.2,585.3,101.8,584.1,99.8,580.7z M106.7,582.5
		c-1.8-0.1-3.4-1.1-4.6-2.9c-3.4-4.8-3.1-12.1-2.9-18.2c0.5,0.1,0.8,0.3,1.1,0.6c-0.1,5.6-0.3,17.8,6.5,18.2L106.7,582.5z
		 M100.8,562.7c0.9,2.3-0.3,13.6,6.1,15.1v1.9C100.7,579.3,100.7,567.9,100.8,562.7z M103.6,571.1c-0.4-2-0.9-4.2-0.9-6.2
		c0-2.4-0.7-4.8-3.6-5.2c-2.6-0.3-4.1,1.9-4.5,4.2c-1.3,8.1-1.8,22.6,7.9,25.7c1.5,0.5,2.7,0.8,4,1.1l-0.3,8c-1,0.1-1.7,0-1.7,0
		s-0.8,4.3-1.7,5.2c-1,1-2.3-0.1-3.4-0.9c-1-0.8-2.1-4.2-2.1-4.2c-4.3-0.7-2.9-1.9-2.7-4.7c0,0-1.6-0.1-3.1-2.4s0.6-2.4,0.5-3.6
		c-0.1-1.3-0.5-2.6-0.5-2.6c-1.1,1.3-5,0.8-6.7,0.5c-1.8-0.3-5,0.1-5,0.1c-0.3,3.3-2.9,5-4.7,5.9c-7.7-14.4,4.8-32.1,18.4-46.5
		c2.4,6.5,7.5,11.8,14.1,12.4l-0.6,18.2C104.9,575.5,104,573.1,103.6,571.1z M99.5,552c2.7,1.9,6.5,3.5,11.5,4.1
		C106.6,556.7,102.5,555,99.5,552z M107.7,608.3c0.4-12,1-30.8,1.7-50.3c0.5,0,1-0.1,1.5-0.2c-0.5,14.9-0.7,36.5-1.5,53.8
		C108.3,610.6,107.6,609.5,107.7,608.3z M111.4,557.7c1.2-0.3,2.2-0.7,3.1-1.2c-0.3,16.5-0.6,40-1.1,57.6c-1.3-0.6-2.6-1.3-3.5-2.1
		C110.6,594.6,110.8,572.8,111.4,557.7z M94.1,516.9c-0.7,10.4-0.3,23.1,4.9,29.4c5.6,6.9,12.9,7.8,16.7,7.7c-0.9,0.7-2,1.2-3.1,1.6
		c-7-0.3-11.8-2.9-14.8-5.6C91.8,541.8,92.2,527.9,94.1,516.9z M91.1,533.9c0.2,3.4,0.7,6.7,1.6,9.7c-2.1,2.2-4.2,4.5-6.1,6.8
		c-0.5-2.9-2.6-5.6-4.9-6.7C84.7,540.2,87.9,537,91.1,533.9z M81,544.5c2.3,1,4.6,4.1,4.6,6.9c-2.6,3.1-5,6.3-7.1,9.5
		c-0.8-2.8-3.1-5.4-5.5-6.1C75.4,551.3,78.1,547.8,81,544.5z M72.5,555.6c2.4,0.5,4.9,3.6,5.3,6.5c-2,3.2-3.7,6.5-4.9,9.8
		c-1.7-2.1-4.6-3.4-7.2-3.5C67.4,564.1,69.7,559.8,72.5,555.6z M65.3,569.4c2.6,0,5.8,1.5,7.1,3.8c-1.2,3.6-1.8,7.2-1.6,10.7
		c-2.7-1.5-6.1-1.8-8-0.4C62.6,578.8,63.6,574.1,65.3,569.4z M65.7,595.5c-1.7-3.5-2.6-7-2.9-10.6c1.3-2,5.3-1.6,8.1,0.2
		c0.4,3.6,1.8,7.1,3.9,10.2c-2.7-0.3-5.9,0.8-7.8,2.6C66.6,597.1,66.1,596.3,65.7,595.5z M67.5,598.7c1.8-1.8,5.6-3,8.2-2.2
		c2.1,2.6,4.7,5,7.7,7.2c-3.5,0.5-7,2.9-6.9,5.6C72.9,606.2,69.9,602.7,67.5,598.7z M77.9,610.6c-1.8-2.9,2.9-5.9,6.9-6
		c2.9,1.9,6,3.6,9.4,5.1c-3.5,0.6-7.1,4.1-7,7.1C83.8,614.9,80.7,612.9,77.9,610.6z M88.3,617.3c-0.8-3.2,4.7-7.9,8.6-6.6
		c3,1.2,6.1,2.3,9.3,3.3c-4,1.5-7.3,6.1-5,8.9C96.6,621.3,92.3,619.5,88.3,617.3z M102.5,623.4l0.2-0.4c-3.7-2.4,1-7.9,5.3-8.4
		c3.5,1,7.1,1.9,10.6,2.7c-3.2,2.3-5.1,7.1-3.3,9.6C110.9,625.9,106.6,624.7,102.5,623.4z M117.8,627.4L117.8,627.4
		c-4.3-1.2-1.5-7.9,2.4-9.8c4.3,0.9,8.4,1.7,12.3,2.2c-3.2,2.4-5.2,7.1-3.3,9.6C125.3,628.9,121.5,628.2,117.8,627.4z M131,629.7
		c-3.4-1.6-0.7-7.8,3.1-9.5l11.3,1.4c-3,2.3-4.7,6.7-3.2,9.3C138.4,630.6,134.7,630.2,131,629.7z M143.6,630.9c-2.4-2,0-7.3,3.4-9.2
		c4.2,0.4,8.5,0.7,12.7,0.9c-2.8,2.3-4.6,6.5-3.4,9C152.1,631.5,147.8,631.3,143.6,630.9z M157.6,631.6c-1.8-2.3,0.7-7.2,4-8.9
		c4.4,0.2,8.8,0.3,13.2,0.3c-2.7,2.3-4.3,6.2-3.4,8.7C166.8,631.8,162.2,631.8,157.6,631.6z M172.4,631.7c-1.2-2.3,1-7,4-8.7
		c3.9,0,7.8-0.2,11.7-0.4c-2.4,2.4-3.8,6.2-2.9,8.6C181,631.4,176.7,631.6,172.4,631.7z M186.3,631.1c-1.3-2.2,0.7-6.7,3.5-8.6
		c4.1-0.2,8.2-0.6,12.2-1c-2.1,2.5-3.1,6.3-1.9,8.6C195.7,630.5,191.1,630.9,186.3,631.1z M201.2,630c-1.5-2-0.1-6.5,2.6-8.6
		c1.2-0.1,2.3-0.3,3.5-0.4c2.6-0.3,5.3-0.7,8-1.1c-2.1,2.8-2.8,6.7-1,8.6C210.2,629,205.8,629.6,201.2,630z M215.6,628.3
		c-2.4-1.4-1.3-6.1,1.2-8.6c3.8-0.6,7.6-1.3,11.4-2.2c-1.9,2.7-2.3,6.7-1,9C223.7,627.1,219.8,627.7,215.6,628.3z M228.3,626.3
		c-1.6-2.1-0.8-6.8,1.5-9.1c3.8-0.8,7.6-1.8,11.4-2.8c-1.7,3-1.9,7.1-0.1,9.1L228.3,626.3z M242.3,623.2c-2.2-1.6-1.7-6.5,0.6-9.3
		c4.5-1.2,9-2.6,13.5-4c-2.3,2.9-3,7.5-1.3,9.7C250.8,620.9,246.5,622.1,242.3,623.2z M256.2,619.3c-2.2-1.9-0.7-8,2.4-10.1
		c3.7-1.2,7.4-2.5,11.1-3.9c-2.4,2.9-3.2,7.7-1.4,9.9C264.3,616.6,260.3,618,256.2,619.3z M269.3,614.9c-2.4-2.2-0.3-9.4,3.6-10.6
		v-0.1c2.9-1.1,5.9-2.3,8.8-3.5c-1.7,2.9-1.7,7.3,0.3,9.3C277.8,611.7,273.6,613.4,269.3,614.9z M283,609.5c-2.2-1.7-2-7.1,0.4-9.6
		c3.3-1.4,6.6-2.8,9.9-4.3c-1.2,3.3-0.6,7.4,1.9,8.6C291.2,606,287.1,607.8,283,609.5z M296.5,603.6c-3-0.3-3.5-5.4-1.8-8.7
		c3.5-1.6,7-3.2,10.4-4.9c-1,3.3-0.4,7.3,1.9,8.6C303.5,600.3,300,602,296.5,603.6z M308.3,598c-2.8-0.6-3.3-5.4-1.7-8.7
		c3.8-1.9,7.6-3.8,11.3-5.8c-1.1,3.3-0.5,7.3,1.9,8.6C316,594.1,312.2,596.1,308.3,598z M320.9,591.5c-2.8-0.6-3.2-5.4-1.6-8.7
		c4.1-2.2,8.2-4.5,12.2-6.8c-1.1,3.2-0.7,7.3,1.3,8.9C328.9,587.1,325,589.3,320.9,591.5z M333.8,584.3c-2.3-1.2-2.5-6.2-0.8-9.3
		c3.4-2,6.8-4.1,10.2-6.2c-1.1,3.4-0.5,7.6,1.7,9C341.3,580,337.6,582.2,333.8,584.3z M345.9,577.2c-2.5-0.8-3-6-1.3-9.2
		c3.7-2.3,7.3-4.7,10.9-7.1c-1.1,3.2-0.3,7.5,1.9,9.1C353.7,572.4,349.9,574.8,345.9,577.2z M358.3,569.5c-2.5-1.2-3.1-6.8-1-9.7
		c3.2-2.2,6.3-4.3,9.4-6.6c-1,3.4-0.1,7.8,2.5,9.1C365.7,564.7,362.1,567.1,358.3,569.5z M370.2,561.6c-3-0.5-3.8-6.4-1.8-9.6
		l10.1-7.5c-1.1,3.5,0,8.1,2.6,9.5C377.6,556.5,374,559,370.2,561.6z M382.1,553.3c-3-0.8-4-7.2-1.7-10.3c3.1-2.4,6.2-4.8,9.3-7.3
		c-1.1,3.7,0.2,8.7,3.2,9.6C389.5,547.9,385.9,550.5,382.1,553.3z M394.1,544.5c-3.5,0.1-4.8-6.7-2.6-10.2c3.5-2.8,7.1-5.5,10.7-8.2
		c-1.5,3.8-0.4,9.1,2.6,10C403.1,537.4,394.6,544.3,394.1,544.5z M406,535.2c-3.6,0.3-4.5-7.3-1.8-10.6c3.4-2.6,6.9-5.1,10.5-7.5
		c-1.2,3.8,0,8.7,2.9,9.4C413.5,529.4,409.6,532.4,406,535.2z M419,525.5c-3.6,0.8-4.8-5.6-3-9.4c4.4-3,8.9-5.8,13.5-8.3
		c-1.6,3.6-1.3,8.6,1.4,9.9C426.8,520.2,422.8,522.8,419,525.5z M432,517.1c-3.2-0.5-3.3-7-0.7-10.2c3.3-1.8,6.7-3.4,10.1-4.9
		c-1.3,3.4-0.8,7.8,1.6,9.1C439.3,512.9,435.6,514.9,432,517.1z M444.4,510.4c-3-0.2-3.4-5.5-1.7-9c3.6-1.5,7.3-2.8,11-3.9
		c0.9-0.3,1.9-0.5,2.8-0.8c-1.5,3-1.6,7,0.4,8.7C452.7,506.8,448.5,508.5,444.4,510.4z M458.1,505.1c-2.4-1.1-2.1-5.8-0.1-8.6
		c4.1-1,8.4-1.8,12.5-2.3c-1.5,2.6-1.8,6.2-0.4,8.2C466.1,502.9,462.1,503.8,458.1,505.1z M471.4,502.2c-1.8-1.6-1.3-5.7,0.5-8.3
		c5.1-0.5,10.2-0.6,14.8,0c-3.1,2.1-5.1,5.8-3.5,8.2C479.3,501.7,475.3,501.7,471.4,502.2z M484.7,502.3c-2.8-2,0.1-6.5,3.6-8.2
		c4.7,0.7,8.9,2.1,12.4,4.4c-3,1.3-5.5,4.4-5.6,7C490.3,502.7,485.7,502.7,484.7,502.3z M496.2,506.3c-0.5-2.5,2.4-6,5.7-7
		c4.6,3.3,7.9,8.1,9.1,14.8c-2.7-2.7-7.3-3.8-9.5-1.4C500.3,510,498.5,507.9,496.2,506.3z M486.4,539.3c2.4-0.3,4.7-0.6,7.1-0.8
		c7.2-0.7,0.9,8-1.8,8.3c-2.8,0.3-5.6,0.7-8.5,1.2C482,545.7,483.6,541.1,486.4,539.3z M492.7,548.9
		c-23.5,44.8-81.5,75.4-129.9,83.4c-2.9,0.5-15.7,2.4-17.3-0.7c-1.8-3.5,8.9-15,11.3-17.5C389.9,579,445,554.5,492.7,548.9z
		 M472.4,541.7c4.1-0.8,8.1-1.5,12.1-2.1c-2.2,2.3-3.3,6.1-2.3,8.6c-4,0.7-8,1.5-12,2.4C468.4,548.6,469.8,543.9,472.4,541.7z
		 M458,545.2c4.2-1.2,8.4-2.2,12.6-3.1c-2.1,2.6-2.9,6.5-1.5,8.7c-3.3,0.8-6.7,1.6-10,2.5C456,553,456.1,548.4,458,545.2z
		 M456.6,545.5c-1.4,3.1-1.4,6.8,0.7,8.2c-4,1.1-7.9,2.4-11.9,3.7c-2.7-0.5-2.4-5.1-0.5-8.3C448.8,547.8,452.7,546.6,456.6,545.5z
		 M432.3,553.7c3.7-1.4,7.5-2.8,11.2-4.1c-1.5,3.1-1.5,6.9,0.6,8.3c-3.6,1.3-7.3,2.6-10.9,4C431,561,430.8,556.7,432.3,553.7z
		 M419.8,558.9c3.7-1.7,7.4-3.2,11.1-4.7c-1.1,3-0.8,6.7,1.1,8.2c-3.8,1.5-7.6,3.1-11.3,4.8C418.5,566.3,418.2,561.9,419.8,558.9z
		 M407.2,565c3.7-1.9,7.4-3.7,11.2-5.4c-1.1,3-0.7,6.7,1.3,8.2c-3.3,1.5-6.5,3.1-9.7,4.7C407.2,572.6,406.3,568.4,407.2,565z
		 M395.8,571.2c3.4-1.9,6.8-3.8,10.2-5.6c-0.6,3.2,0.3,6.7,2.5,7.7c-3.9,2-7.7,4.2-11.4,6.4C395,578.6,394.6,574.3,395.8,571.2z
		 M383.4,578.9c3.6-2.4,7.3-4.7,11.1-6.9c-0.9,3.1-0.3,6.8,1.6,8.3c-3.5,2.1-6.9,4.3-10.2,6.5C383.6,586,382.6,582,383.4,578.9z
		 M372.2,586.8c3.2-2.4,6.5-4.8,10-7.1c-0.4,3.1,0.6,6.5,2.8,7.7c-3.7,2.5-7.3,5.2-10.7,7.9C372,594.2,371.1,589.9,372.2,586.8z
		 M361.4,595.5c3-2.6,6.2-5.2,9.5-7.7c-0.6,3.2,0.4,6.8,2.5,8.2c-3.2,2.5-6.3,5.2-9.2,7.8C361.5,603.4,360.3,598.9,361.4,595.5z
		 M350.2,606.2c3.1-3.2,6.4-6.4,9.8-9.5c-0.5,3.3,0.7,7,3.1,7.9c-2.8,2.6-5.5,5.2-8,7.9l-0.3,0.4C351.9,613.6,350,609.7,350.2,606.2
		z M349.2,607.2c0.2,3.3,1.9,6.5,4.7,6.7c-3.4,3.7-6,6.9-7.9,9.7c-2.1,0.5-5-1.2-6.6-3.5C342,615.8,345.4,611.4,349.2,607.2z
		 M338.8,621.1c1.7,2.1,4.3,3.6,6.5,3.7c-2.3,3.8-2.8,6.7-1.3,8.5c-1.3,2.5-6.2,3.9-9.3,2.5C334.1,631.6,335.8,626.5,338.8,621.1z
		 M334.9,637.1c3.5,1.1,8.2-0.4,9.9-3c1.5,1,4,1.6,7.6,1.6c2.1,2.4-1.2,8.4-5.1,9.3C339.8,644.3,336,641.3,334.9,637.1z
		 M363.5,643.8c-4.5,0.8-10.1,1.4-13.8,1.3c3.3-2.1,5.4-6.8,4-9.5c2.9-0.1,7.7-0.7,11.5-1.4v0.1
		C369.3,635.3,367.1,641.4,363.5,643.8z M365.6,643.4c2.8-2.9,4.1-7.7,1.2-9.6c4-0.7,8-1.6,12.1-2.7c2.8,1.1,2.2,6.5-0.2,9.5
		C374.3,641.7,369.9,642.7,365.6,643.4z M380.3,640.2c1.9-3.1,2.2-7.5,0-9.3c4.2-1.1,8.4-2.3,12.6-3.7c2.6,1.3,1.8,6.9-0.9,9.6
		C388.1,638.1,384.2,639.2,380.3,640.2z M407.4,631.2c-4.5,1.8-9.1,3.5-13.6,5c2-3.1,2.4-7.5,0.2-9.5c4-1.3,8-2.8,12.1-4.4
		C408.4,623.5,409,628.2,407.4,631.2z M420.8,625.3c-4,1.9-8,3.7-12,5.3c1.1-3.1,0.5-7.1-1.5-8.8c3.8-1.6,7.6-3.2,11.4-5
		C421,618,422,622.4,420.8,625.3z M433.1,619c-3.6,2-7.3,3.9-11,5.7c0.8-3-0.2-6.8-2.4-8.4c3.9-1.9,7.7-3.9,11.5-6
		C433.6,611.7,434.5,616.2,433.1,619z M446.8,610.8c-4,2.6-8.2,5.1-12.4,7.5c0.9-3,0-6.8-2.2-8.5c3.7-2.1,7.3-4.2,10.8-6.5
		C445.9,603.7,447.5,607.7,446.8,610.8z M458.4,602.7c-3.4,2.6-6.9,5-10.5,7.4c0.3-3-1.2-6.5-3.8-7.5c4.1-2.7,8.2-5.6,12.1-8.6
		C458.6,594.9,459.6,599.4,458.4,602.7z M469.7,593.5c-3.2,2.8-6.5,5.5-9.9,8.1c0.6-3.3-0.5-7-2.7-8.4c3.4-2.7,6.8-5.5,9.9-8.4
		C469.6,585.5,470.8,590.1,469.7,593.5z M471.1,592.2c0.5-3.4-0.7-7.1-3.1-8.2c2.8-2.6,5.6-5.4,8.2-8.2c2.2,0.3,4.6,3.4,5.1,6.4
		C478.1,585.7,474.7,589,471.1,592.2z M482.1,581.3c-0.7-2.9-2.9-5.6-5.3-6.3c2.6-2.9,5.1-5.9,7.5-8.9c2.4-0.3,5.3,2.4,6.1,5.3
		C487.8,574.8,485,578.1,482.1,581.3z M497.7,560.8c-0.4,0.6-0.8,1.3-1.2,1.9c-1.7,2.6-3.5,5.2-5.3,7.7c-1.1-2.7-3.6-5.1-6.1-5.3
		c2.6-3.5,5.1-7.2,7.3-11C495.2,554.3,498,557.8,497.7,560.8z M498.7,559.2c-0.6-2.9-3-5.7-5.7-6.1c2.1-3.6,3.9-7.2,5.5-11
		c2.5-1.1,5.7,1.1,7,3.8C503.5,550.5,501.2,555,498.7,559.2z M505.9,544.6c-1.4-2.4-4.3-4.3-6.9-3.8c1.7-4.2,2.9-8.6,3.6-13
		c2.3-0.9,5.9,0.5,7.6,2.9C509.2,535.4,507.8,540.1,505.9,544.6z M508.8,545.8c1.1-1.9,2.2-4.6,2.9-7.9c2.9,0.2,5.8,0.5,8.5,0.9
		c-3.3,1.5-6,4.8-5.6,7.3C512.7,545.9,510.8,545.8,508.8,545.8z M515.7,546.3c-0.8-2.6,3-6.3,6.6-7c4.1,0.8,7.8,1.9,11.3,3.4
		c-2.8,1.2-5.4,3.9-5.7,6.3C524.2,547.7,520.1,546.8,515.7,546.3z M528.9,549.4c0.1-2.3,3.1-5.2,6.1-6c3.8,1.7,7.3,3.8,10.4,6.4
		c-2.9,0.5-5.5,2.7-6.3,5.1C536.1,552.6,532.7,550.8,528.9,549.4z M539.9,555.5c0.5-2.3,3.6-4.6,6.5-5c2.8,2.4,5.3,5.3,7.5,8.4
		c-2.7,0.5-5.4,2.4-6.6,4.6C545.2,560.4,542.7,557.8,539.9,555.5z M548,564.5c0.8-2.2,3.8-4.3,6.6-4.6c1.1,1.7,2.2,3.6,3.2,5.5
		c-0.7,0.8-1.3,1.7-1.8,2.7c-0.3-2.7-4.1-2.2-4.9,2.1C550.2,568.2,549.1,566.3,548,564.5z M565.1,575.3c3.5,9.7,1.3,14.1-1.3,4.4
		c0,0-1.3,6.6-5.8,8.1s2.2-3.2,3-5.9c0,0-6.2,4-9.6,2.8c-3.4-1.2,5.1-1.5,7-3.7c0,0-9.4-0.2-10.2-1.3s7.1-0.4,7.1-0.4
		s-7.3-2.5-7.4-5.4c-0.1-3,3.1,1.8,5.5,2.5c0,0-2.3-5.5,0.2-8s-0.3,3.1,1.5,5.3c0,0,2.8-8.1,5.6-8.6c2.7-0.5-1.8,2.7-1.8,5.7
		c0,0,5.1-0.9,7.2-1.6c2.2-0.7,3.2,1.9-3.9,2.9c0,0,4.7,2.2,7.8,3.2S569.7,578.5,565.1,575.3z"/>
	<path fill="#8CB7E2" d="M429.7,492.6c15-18.3,24.4-39.5,22.2-63.5c-3.2-35-30.2-65.9-55.2-88.4c-35.4-31.8-17.8-68.1,0-102.9
		c8.3-16.1,16.7-38.8,5.7-55.4c-31.7-47.5-146.5-17.2-189.5-0.2c-47.7,18.9-93.5,48.7-127.2,87.7c-33.5,38.7-51.2,90.5-6.6,129.5
		c24.3,21.2,78.3,43.4,69.5,81.7c-2,8.7-7.3,16.7-13,23.5c11,2.6,16.7,14.8,16.2,25.4c5.7,1.4,8.8,7.5,8.8,13
		c1.9-1.6,4.9-2.2,7.5-1.3c10.1-11.4,26.9-0.4,24,16.1c3.7-0.1,6.8,2.9,7.8,6.4c3.6-2.2,7.9-2.5,11.7-0.6c1.5-6.9,9.6-9.7,13.8-3.4
		c2-1,4.4-0.7,6.1,0.8c0.8-0.5,1.7-0.7,2.6-0.6c5.1-14.5,26.9-15.2,32.4,0.1c4.2,0.1,8.4,1,12.3,2.5c2.5-3.8,7.9-4.5,11.2-1.4
		c1.5-0.6,3.2-0.6,4.7,0c4.3-9.2,16.1-8.4,19.8,0.7c-1-11.8,10.5-21.3,19.8-14c1.5-1.3,3.3-2.1,5.3-2.2c0.9-6.1,6-11.8,12.6-10.3
		c0.6-2,1.9-4,4-4.4c0.7-18,22.8-25.4,33.6-11.1c3.9-1.2,7.9-0.2,11,2.5C411.1,513.4,420.9,503.4,429.7,492.6z"/>
	<path fill="#DBC79C" d="M460.9,452.9c-0.7,3.9-1.7,7.7-2.9,11.6c-2.1,0.9-5.8-0.8-7.8-3.3c1.2-3.7,2.2-7.4,2.9-11.2
		C455.1,452,458.4,453.1,460.9,452.9z M449.9,462.4c-1.2,3.2-2.5,6.5-4.1,9.7c1.1,2.7,4.6,5.1,7.2,5.2c1.9-3.9,3.4-7.8,4.7-11.6
		C455.3,466.1,451.9,464.6,449.9,462.4z M445.3,473.1c-1.5,3-3.3,6.1-5.2,9.1c-0.2,3.5,2.9,7.8,5.6,8.1c2.6-4,4.8-8.1,6.8-12.1
		C449.8,477.9,446.6,475.8,445.3,473.1z M454.3,437.7c-0.1,3.7-0.4,7.4-1,11.1c1.8,2.2,5.3,3.5,7.8,3.1c0.7-4.1,1.1-8.1,1.2-12.1
		C459.9,440.3,456.6,439.5,454.3,437.7z M453.7,425.6c0.5,3.6,0.7,7.2,0.7,10.8c2,2,5.7,3.1,7.9,2.4c0.1-4.3-0.2-8.5-0.7-12.7
		C459.3,426.9,456,426.8,453.7,425.6z M502,513.8c1.2,3.3,1.5,8.2,0.8,12.9c2.5-0.6,5.8,0.6,7.7,2.7c0.5-2.4,0.8-4.8,0.9-7.2
		c0.1-2.2,0-4.3-0.2-6.2C509.3,512.8,503.8,511,502,513.8z M451.1,413.5c1.1,3.5,1.8,7.1,2.4,10.7c2.2,1.5,5.8,1.7,8,0.8
		c-0.6-4.1-1.5-8.2-2.6-12.3C457.1,414.1,453.8,414.4,451.1,413.5z M439.1,483.7c-2.3,3.4-4.7,6.8-7.2,10.1c1,3.5,5.1,7,7.6,5.4
		c2-2.7,3.9-5.3,5.6-8C442.4,490.6,439.6,487.1,439.1,483.7z M437.2,500.5c-2.4-0.4-5-2.9-6.1-5.8
		C419.1,510.4,411.2,514.4,437.2,500.5z M379.6,286c-1,5.3-1.4,10.6-1.1,15.8c2.9,1.8,7.1,2.2,8.4,0.2c-0.3-3.8-0.2-7.6,0.3-11.4
		C384.7,290.8,381.3,288.8,379.6,286z M408.9,349.4c2.9,2.9,5.7,5.8,8.4,8.7c3.3,0.1,6.9-1.6,7.3-3.8c-2.6-2.9-5.3-5.8-8.1-8.6
		C415.4,347.9,412.1,349.4,408.9,349.4z M188.1,622.6c-3.9,0.2-7.8,0.4-11.7,0.4c-3,1.7-5.2,6.4-4,8.7c4.3-0.1,8.6-0.3,12.8-0.5
		C184.3,628.8,185.7,625,188.1,622.6z M215.3,619.9c-2.7,0.4-5.4,0.8-8,1.1c-1.2,0.1-2.3,0.3-3.5,0.4c-2.7,2.1-4.1,6.6-2.6,8.6
		c4.6-0.4,9-1,13.1-1.5C212.5,626.6,213.2,622.7,215.3,619.9z M202,621.5c-4,0.4-8.1,0.8-12.2,1c-2.8,1.9-4.8,6.4-3.5,8.6
		c4.8-0.2,9.4-0.6,13.8-1C198.9,627.8,199.9,624,202,621.5z M228.2,617.5c-3.8,0.9-7.6,1.6-11.4,2.2c-2.5,2.5-3.6,7.2-1.2,8.6
		c4.2-0.6,8.1-1.2,11.6-1.8C225.9,624.2,226.3,620.2,228.2,617.5z M389.7,535.7c-3.1,2.5-6.2,4.9-9.3,7.3c-2.3,3.1-1.3,9.5,1.7,10.3
		c3.8-2.8,7.4-5.4,10.8-8C389.9,544.4,388.6,539.4,389.7,535.7z M118.6,617.3c-3.5-0.8-7.1-1.7-10.6-2.7c-4.3,0.5-9,6-5.3,8.4
		l-0.2,0.4c4.1,1.3,8.4,2.5,12.8,3.5C113.5,624.4,115.4,619.6,118.6,617.3z M174.8,623c-4.4,0-8.8-0.1-13.2-0.3
		c-3.3,1.7-5.8,6.6-4,8.9c4.6,0.2,9.2,0.2,13.8,0.1C170.5,629.2,172.1,625.3,174.8,623z M256.4,609.9c-4.5,1.4-9,2.8-13.5,4
		c-2.3,2.8-2.8,7.7-0.6,9.3c4.2-1.1,8.5-2.3,12.8-3.6C253.4,617.4,254.1,612.8,256.4,609.9z M106.2,614c-3.2-1-6.3-2.1-9.3-3.3
		c-3.9-1.3-9.4,3.4-8.6,6.6c4,2.2,8.3,4,12.9,5.6C98.9,620.1,102.2,615.5,106.2,614z M159.7,622.6c-4.2-0.2-8.5-0.5-12.7-0.9
		c-3.4,1.9-5.8,7.2-3.4,9.2c4.2,0.4,8.5,0.6,12.7,0.7C155.1,629.1,156.9,624.9,159.7,622.6z M145.4,621.6l-11.3-1.4
		c-3.8,1.7-6.5,7.9-3.1,9.5c3.7,0.5,7.4,0.9,11.2,1.2C140.7,628.3,142.4,623.9,145.4,621.6z M132.5,619.8c-3.9-0.5-8-1.3-12.3-2.2
		c-3.9,1.9-6.7,8.6-2.4,9.7v0.1c3.7,0.8,7.5,1.5,11.4,2C127.3,626.9,129.3,622.2,132.5,619.8z M343.2,568.8
		c-3.4,2.1-6.8,4.2-10.2,6.2c-1.7,3.1-1.5,8.1,0.8,9.3c3.8-2.1,7.5-4.3,11.1-6.5C342.7,576.4,342.1,572.2,343.2,568.8z M331.5,576
		c-4,2.3-8.1,4.6-12.2,6.8c-1.6,3.3-1.2,8.1,1.6,8.7c4.1-2.2,8-4.4,11.9-6.6C330.8,583.3,330.4,579.2,331.5,576z M269.7,605.3
		c-3.7,1.4-7.4,2.7-11.1,3.9c-3.1,2.1-4.6,8.2-2.4,10.1c4.1-1.3,8.1-2.7,12.1-4.1C266.5,613,267.3,608.2,269.7,605.3z M378.5,544.5
		l-10.1,7.5c-2,3.2-1.2,9.1,1.8,9.6c3.8-2.6,7.4-5.1,10.9-7.6C378.5,552.6,377.4,548,378.5,544.5z M366.7,553.2
		c-3.1,2.3-6.2,4.4-9.4,6.6c-2.1,2.9-1.5,8.5,1,9.7c3.8-2.4,7.4-4.8,10.9-7.2C366.6,561,365.7,556.6,366.7,553.2z M355.5,560.9
		c-3.6,2.4-7.2,4.8-10.9,7.1c-1.7,3.2-1.2,8.4,1.3,9.2c4-2.4,7.8-4.8,11.5-7.2C355.2,568.4,354.4,564.1,355.5,560.9z M293.3,595.6
		c-3.3,1.5-6.6,2.9-9.9,4.3c-2.4,2.5-2.6,7.9-0.4,9.6c4.1-1.7,8.2-3.5,12.2-5.3C292.7,603,292.1,598.9,293.3,595.6z M281.7,600.7
		c-2.9,1.2-5.9,2.4-8.8,3.5v0.1c-3.9,1.2-6,8.4-3.6,10.6c4.3-1.5,8.5-3.2,12.7-4.9C280,608,280,603.6,281.7,600.7z M317.9,583.5
		c-3.7,2-7.5,3.9-11.3,5.8c-1.6,3.3-1.1,8.1,1.7,8.7c3.9-1.9,7.7-3.9,11.5-5.9C317.4,590.8,316.8,586.8,317.9,583.5z M305.1,590
		c-3.4,1.7-6.9,3.3-10.4,4.9c-1.7,3.3-1.2,8.4,1.8,8.7c3.5-1.6,7-3.3,10.5-5C304.7,597.3,304.1,593.3,305.1,590z M241.2,614.4
		c-3.8,1-7.6,2-11.4,2.8c-2.3,2.3-3.1,7-1.5,9.1l12.8-2.8C239.3,621.5,239.5,617.4,241.2,614.4z M123.6,435
		c-3.6-2.9-7.3-5.8-11.1-8.5c-3.1,0.1-6.5,2.2-7.2,4.5c3.6,2.5,7.1,5.1,10.4,7.8C116.6,436.4,120.3,434.9,123.6,435z M111.3,425.6
		c-3.4-2.4-6.8-4.7-10.1-7c-3.1,0.1-6.5,2.2-7.2,4.5c3.4,2.4,7,4.8,10.5,7.3C105.4,428.1,108.3,426.1,111.3,425.6z M99.8,417.7
		c-3.7-2.5-7.3-4.9-10.6-7.3c-3.2-0.2-7,1.9-7.4,4.3c3.5,2.5,7.3,5.1,11.3,7.8C93.9,420.2,96.8,418.2,99.8,417.7z M446.6,401.2
		c1.6,3.7,3,7.4,4.1,11.1c2.7,1.1,6.3,0.9,7.9-0.6c-1.3-4.3-2.8-8.6-4.6-12.8C452.3,400.4,449.3,401.4,446.6,401.2z M147.1,471.2
		c0-1.1-0.1-2.2-0.3-3.3c-0.5-3.1-1.4-6.2-2.8-9.1c-3-1.4-7.4-1.1-8.4,1.2c2.2,3.9,3.3,7.5,3.5,11.6
		C141.1,470.3,144.5,470.2,147.1,471.2z M143.4,457.5c-2.1-4.1-5-8-8.4-11.8c-3.1-0.9-7.5,0.3-8.7,2.4c3.6,3.6,6.6,7.2,8.8,10.9
		C136.5,457,140.3,456.5,143.4,457.5z M87.9,409.4c-3.1-2.2-6-4.4-8.6-6.5c-3-1-7.3,0.8-8.6,3.1c3.2,2.9,6.1,5.1,10.2,8.1
		C81.6,411.7,84.7,409.8,87.9,409.4z M60.1,381.2c-1.9-3.1-3.5-6.2-4.8-9.4c-2.5-3.1-8.5-4.6-9.8-1.8c1.6,4.5,3.7,9,6.3,13.4
		C53.4,381.4,57,380.5,60.1,381.2z M68.1,391.9c-2.8-3.2-5.1-6.4-7.2-9.6c-3.1-1-7.3-0.1-8.4,2c2.1,3.5,4.6,7,7.5,10.5
		C61.1,392.6,64.7,391.5,68.1,391.9z M77.4,401.3c-3-2.7-5.8-5.4-8.3-8.2c-3.3-0.9-7.8,0.2-8.4,2.6c2.7,3.3,5.8,6.5,9.2,9.6
		c1.4-2.2,4.8-3.9,7.8-3.7C77.6,401.5,77.5,401.4,77.4,401.3z M74.8,595.3c-2.1-3.1-3.5-6.6-3.9-10.2c-2.8-1.8-6.8-2.2-8.1-0.2
		c0.3,3.6,1.2,7.1,2.9,10.6c0.4,0.8,0.9,1.6,1.3,2.4C68.9,596.1,72.1,595,74.8,595.3z M70.8,583.9c-0.2-3.5,0.4-7.1,1.6-10.7
		c-1.3-2.3-4.5-3.8-7.1-3.8c-1.7,4.7-2.7,9.4-2.5,14.1C64.7,582.1,68.1,582.4,70.8,583.9z M78.5,560.9c2.1-3.2,4.5-6.4,7.1-9.5
		c0-2.8-2.3-5.9-4.6-6.9c-2.9,3.3-5.6,6.8-8,10.3C75.4,555.5,77.7,558.1,78.5,560.9z M72.9,571.9c1.2-3.3,2.9-6.6,4.9-9.8
		c-0.4-2.9-2.9-6-5.3-6.5c-2.8,4.2-5.1,8.5-6.8,12.8C68.3,568.5,71.2,569.8,72.9,571.9z M94.2,609.7c-3.4-1.5-6.5-3.2-9.4-5.1
		c-4,0.1-8.7,3.1-6.9,6c2.8,2.3,5.9,4.3,9.3,6.2C87.1,613.8,90.7,610.3,94.2,609.7z M83.4,603.7c-3-2.2-5.6-4.6-7.7-7.2
		c-2.6-0.8-6.4,0.4-8.2,2.2c2.4,4,5.4,7.5,9,10.6C76.4,606.6,79.9,604.2,83.4,603.7z M108.4,528.3l0.4-11.2l-4.8,4.5
		c0.1,3.5,0.2,7.3,0.5,10.3C105.9,530.7,107.2,529.5,108.4,528.3z M135.3,501.4c2.9-3.7,5.5-7.3,7.4-11.1c-1.1-3.3-4.1-6.3-6.5-5.1
		c-1.5,3.5-3.7,6.9-6.4,10.3C132.2,496,134.4,498.5,135.3,501.4z M86.6,550.4c1.9-2.3,4-4.6,6.1-6.8c-0.9-3-1.4-6.3-1.6-9.7
		c-3.2,3.1-6.4,6.3-9.4,9.8C84,544.8,86.1,547.5,86.6,550.4z M129.1,496.4c-1.2,1.4-2.5,2.9-3.8,4.4c0,3.9,0,7.7,0,11.6
		c3.4-3.4,6.5-6.7,9.2-10C133.8,499.4,131.4,496.5,129.1,496.4z M143.3,488.9c2.5-5.2,3.9-10.7,3.8-16.5c-2.7-1.3-6.5-1.2-8,0.4
		c0,3.8-0.8,7.5-2.3,11.1C139.3,483.5,142.1,486,143.3,488.9z M344,633.3c-1.5-1.8-1-4.7,1.3-8.5c-2.2-0.1-4.8-1.6-6.5-3.7
		c-3,5.4-4.7,10.5-4.1,14.7C337.8,637.2,342.7,635.8,344,633.3z M418.7,616.8c-3.8,1.8-7.6,3.4-11.4,5c2,1.7,2.6,5.7,1.5,8.8
		c4-1.6,8-3.4,12-5.3C422,622.4,421,618,418.7,616.8z M443,603.3c-3.5,2.3-7.1,4.4-10.8,6.5c2.2,1.7,3.1,5.5,2.2,8.5
		c4.2-2.4,8.4-4.9,12.4-7.5C447.5,607.7,445.9,603.7,443,603.3z M431.2,610.3c-3.8,2.1-7.6,4.1-11.5,6c2.2,1.6,3.2,5.4,2.4,8.4
		c3.7-1.8,7.4-3.7,11-5.7C434.5,616.2,433.6,611.7,431.2,610.3z M54.4,369.6c-1.5-3.8-2.6-7.7-3.3-11.6c-2.7-2.4-7.6-3.5-9-1.2
		c0.7,4,1.7,8,3,12C46.9,366.7,51.4,367.4,54.4,369.6z M456.2,594c-3.9,3-8,5.9-12.1,8.6c2.6,1,4.1,4.5,3.8,7.5
		c3.6-2.4,7.1-4.8,10.5-7.4C459.6,599.4,458.6,594.9,456.2,594z M467,584.8c-3.1,2.9-6.5,5.7-9.9,8.4c2.2,1.4,3.3,5.1,2.7,8.4
		c3.4-2.6,6.7-5.3,9.9-8.1C470.8,590.1,469.6,585.5,467,584.8z M352.4,635.7c-3.6,0-6.1-0.6-7.6-1.6c-1.7,2.6-6.4,4.1-9.9,3
		c1.1,4.2,4.9,7.2,12.4,7.9C351.2,644.1,354.5,638.1,352.4,635.7z M365.2,634.3L365.2,634.3c-3.8,0.6-8.6,1.2-11.5,1.3
		c1.4,2.7-0.7,7.4-4,9.5c3.7,0.1,9.3-0.5,13.8-1.3C367.1,641.4,369.3,635.3,365.2,634.3z M378.9,631.1c-4.1,1.1-8.1,2-12.1,2.7
		c2.9,1.9,1.6,6.7-1.2,9.6c4.3-0.7,8.7-1.7,13.1-2.8C381.1,637.6,381.7,632.2,378.9,631.1z M392.9,627.2c-4.2,1.4-8.4,2.6-12.6,3.7
		c2.2,1.8,1.9,6.2,0,9.3c3.9-1,7.8-2.1,11.7-3.4C394.7,634.1,395.5,628.5,392.9,627.2z M406.1,622.3c-4.1,1.6-8.1,3.1-12.1,4.4
		c2.2,2,1.8,6.4-0.2,9.5c4.5-1.5,9.1-3.2,13.6-5C409,628.2,408.4,623.5,406.1,622.3z M476.2,575.8c-2.6,2.8-5.4,5.6-8.2,8.2
		c2.4,1.1,3.6,4.8,3.1,8.2c3.6-3.2,7-6.5,10.2-10C480.8,579.2,478.4,576.1,476.2,575.8z M545.4,549.8c-3.1-2.6-6.6-4.7-10.4-6.4
		c-3,0.8-6,3.7-6.1,6c3.8,1.4,7.2,3.2,10.2,5.5C539.9,552.5,542.5,550.3,545.4,549.8z M553.9,558.9c-2.2-3.1-4.7-6-7.5-8.4
		c-2.9,0.4-6,2.7-6.5,5c2.8,2.3,5.3,4.9,7.4,8C548.5,561.3,551.2,559.4,553.9,558.9z M556,568.1c0.5-1,1.1-1.9,1.8-2.7
		c-1-1.9-2.1-3.8-3.2-5.5c-2.8,0.3-5.8,2.4-6.6,4.6c1.1,1.8,2.2,3.7,3.1,5.7C551.9,565.9,555.7,565.4,556,568.1z M570,575.3
		c-3.1-1-7.8-3.2-7.8-3.2c7.1-1,6.1-3.6,3.9-2.9c-2.1,0.7-7.2,1.6-7.2,1.6c0-3,4.5-6.2,1.8-5.7c-2.8,0.5-5.6,8.6-5.6,8.6
		c-1.8-2.2,1-7.8-1.5-5.3s-0.2,8-0.2,8c-2.4-0.7-5.6-5.5-5.5-2.5c0.1,2.9,7.4,5.4,7.4,5.4s-7.9-0.7-7.1,0.4s10.2,1.3,10.2,1.3
		c-1.9,2.2-10.4,2.5-7,3.7c3.4,1.2,9.6-2.8,9.6-2.8c-0.8,2.7-7.5,7.4-3,5.9s5.8-8.1,5.8-8.1c2.6,9.7,4.8,5.3,1.3-4.4
		C569.7,578.5,573.1,576.3,570,575.3z M484.3,566.1c-2.4,3-4.9,6-7.5,8.9c2.4,0.7,4.6,3.4,5.3,6.3c2.9-3.2,5.7-6.5,8.3-9.9
		C489.6,568.5,486.7,565.8,484.3,566.1z M533.6,542.7c-3.5-1.5-7.2-2.6-11.3-3.4c-3.6,0.7-7.4,4.4-6.6,7c4.4,0.5,8.5,1.4,12.2,2.7
		C528.2,546.6,530.8,543.9,533.6,542.7z M520.2,538.8c-2.7-0.4-5.6-0.7-8.5-0.9c-0.7,3.3-1.8,6-2.9,7.9c2,0,3.9,0.1,5.8,0.3
		C514.2,543.6,516.9,540.3,520.2,538.8z M498.5,542.1c-1.6,3.8-3.4,7.4-5.5,11c2.7,0.4,5.1,3.2,5.7,6.1c2.5-4.2,4.8-8.7,6.8-13.3
		C504.2,543.2,501,541,498.5,542.1z M402.2,526.1c-3.6,2.7-7.2,5.4-10.7,8.2c-2.2,3.5-0.9,10.3,2.6,10.2c0.5-0.2,9-7.1,10.7-8.4
		C401.8,535.2,400.7,529.9,402.2,526.1z M502.6,527.8c-0.7,4.4-1.9,8.8-3.6,13c2.6-0.5,5.5,1.4,6.9,3.8c1.9-4.5,3.3-9.2,4.3-13.9
		C508.5,528.3,504.9,526.9,502.6,527.8z M492.4,554.1c-2.2,3.8-4.7,7.5-7.3,11c2.5,0.2,5,2.6,6.1,5.3c1.8-2.5,3.6-5.1,5.3-7.7
		c0.4-0.6,0.8-1.3,1.2-1.9C498,557.8,495.2,554.3,492.4,554.1z M486.7,493.9c-4.6-0.6-9.7-0.5-14.8,0c-1.8,2.6-2.3,6.7-0.5,8.3
		c3.9-0.5,7.9-0.5,11.8-0.1C481.6,499.7,483.6,496,486.7,493.9z M470.5,494.2c-4.1,0.5-8.4,1.3-12.5,2.3c-2,2.8-2.3,7.5,0.1,8.6
		c4-1.3,8-2.2,12-2.7C468.7,500.4,469,496.8,470.5,494.2z M500.7,498.5c-3.5-2.3-7.7-3.7-12.4-4.4c-3.5,1.7-6.4,6.2-3.6,8.2
		c1,0.4,5.6,0.4,10.4,3.2C495.2,502.9,497.7,499.8,500.7,498.5z M470.2,550.6c4-0.9,8-1.7,12-2.4c-1-2.5,0.1-6.3,2.3-8.6
		c-4,0.6-8,1.3-12.1,2.1C469.8,543.9,468.4,548.6,470.2,550.6z M483.2,548c2.9-0.5,5.7-0.9,8.5-1.2c2.7-0.3,9-9,1.8-8.3
		c-2.4,0.2-4.7,0.5-7.1,0.8C483.6,541.1,482,545.7,483.2,548z M511,514.1c-1.2-6.7-4.5-11.5-9.1-14.8c-3.3,1-6.2,4.5-5.7,7
		c2.3,1.6,4.1,3.7,5.3,6.4C503.7,510.3,508.3,511.4,511,514.1z M429.5,507.8c-4.6,2.5-9.1,5.3-13.5,8.3c-1.8,3.8-0.6,10.2,3,9.4
		c3.8-2.7,7.8-5.3,11.9-7.8C428.2,516.4,427.9,511.4,429.5,507.8z M414.7,517.1c-3.6,2.4-7.1,4.9-10.5,7.5
		c-2.7,3.3-1.8,10.9,1.8,10.6c3.6-2.8,7.5-5.8,11.6-8.7C414.7,525.8,413.5,520.9,414.7,517.1z M456.5,496.7
		c-0.9,0.3-1.9,0.5-2.8,0.8c-3.7,1.1-7.4,2.4-11,3.9c-1.7,3.5-1.3,8.8,1.7,9c4.1-1.9,8.3-3.6,12.5-5
		C454.9,503.7,455,499.7,456.5,496.7z M441.4,502c-3.4,1.5-6.8,3.1-10.1,4.9c-2.6,3.2-2.5,9.7,0.7,10.2c3.6-2.2,7.3-4.2,11-6
		C440.6,509.8,440.1,505.4,441.4,502z M445.4,557.4c4-1.3,7.9-2.6,11.9-3.7c-2.1-1.4-2.1-5.1-0.7-8.2c-3.9,1.1-7.8,2.3-11.7,3.6
		C443,552.3,442.7,556.9,445.4,557.4z M385.9,586.8c3.3-2.2,6.7-4.4,10.2-6.5c-1.9-1.5-2.5-5.2-1.6-8.3c-3.8,2.2-7.5,4.5-11.1,6.9
		C382.6,582,383.6,586,385.9,586.8z M397.1,579.7c3.7-2.2,7.5-4.4,11.4-6.4c-2.2-1-3.1-4.5-2.5-7.7c-3.4,1.8-6.8,3.7-10.2,5.6
		C394.6,574.3,395,578.6,397.1,579.7z M374.3,595.3c3.4-2.7,7-5.4,10.7-7.9c-2.2-1.2-3.2-4.6-2.8-7.7c-3.5,2.3-6.8,4.7-10,7.1
		C371.1,589.9,372,594.2,374.3,595.3z M354.8,612.9l0.3-0.4c2.5-2.7,5.2-5.3,8-7.9c-2.4-0.9-3.6-4.6-3.1-7.9
		c-3.4,3.1-6.7,6.3-9.8,9.5C350,609.7,351.9,613.6,354.8,612.9z M364.2,603.8c2.9-2.6,6-5.3,9.2-7.8c-2.1-1.4-3.1-5-2.5-8.2
		c-3.3,2.5-6.5,5.1-9.5,7.7C360.3,598.9,361.5,603.4,364.2,603.8z M433.2,561.9c3.6-1.4,7.3-2.7,10.9-4c-2.1-1.4-2.1-5.2-0.6-8.3
		c-3.7,1.3-7.5,2.7-11.2,4.1C430.8,556.7,431,561,433.2,561.9z M459.1,553.3c3.3-0.9,6.7-1.7,10-2.5c-1.4-2.2-0.6-6.1,1.5-8.7
		c-4.2,0.9-8.4,1.9-12.6,3.1C456.1,548.4,456,553,459.1,553.3z M410,572.5c3.2-1.6,6.4-3.2,9.7-4.7c-2-1.5-2.4-5.2-1.3-8.2
		c-3.8,1.7-7.5,3.5-11.2,5.4C406.3,568.4,407.2,572.6,410,572.5z M346,623.6c1.9-2.8,4.5-6,7.9-9.7c-2.8-0.2-4.5-3.4-4.7-6.7
		c-3.8,4.2-7.2,8.6-9.8,12.9C341,622.4,343.9,624.1,346,623.6z M420.7,567.2c3.7-1.7,7.5-3.3,11.3-4.8c-1.9-1.5-2.2-5.2-1.1-8.2
		c-3.7,1.5-7.4,3-11.1,4.7C418.2,561.9,418.5,566.3,420.7,567.2z M133.8,444.4c-2.7-2.9-5.6-5.6-8.8-8.3c-3.3-0.7-7.9,0.9-8.4,3.3
		c3.2,2.6,6.2,5.3,9,8C127,445.4,130.7,444.1,133.8,444.4z M74,281c3-4.2,6.3-8.2,9.7-12.2c0-3.2-2-6.8-4.3-7.2
		c-3.5,3.9-6.8,8-9.9,12.1C71.8,274.5,73.7,277.8,74,281z M345.3,155.3c4.4,0.2,8.7,0.7,12.8,1.3c2.5-1.6,4.5-4.8,4.2-7
		c-4.4-0.8-9-1.4-13.7-1.8C348.9,150.2,347.5,153.4,345.3,155.3z M84.7,267.5c2.6-2.9,5.2-5.8,7.9-8.6c0.3-3-1.5-6.8-3.7-7.6
		c-3,3.1-5.9,6.2-8.7,9.4C82.5,261.5,84.4,264.6,84.7,267.5z M332.2,154.9c3.9-0.1,7.8,0,11.6,0.2c2.5-1.5,4.2-5,3.8-7.4
		c-4.2-0.3-8.5-0.5-12.8-0.5C335.4,149.5,334.3,152.8,332.2,154.9z M93.7,257.9c3-3.2,6.1-6.3,9.3-9.3c0.5-3.2-0.8-7.2-3-8.1
		c-3.6,3.3-7,6.7-10.4,10.1C91.8,251.7,93.5,254.9,93.7,257.9z M114.1,238.6c3.3-2.8,6.5-5.5,9.9-8.1c0.9-3-0.3-7.1-2.4-8.3
		c-3.6,2.8-7.1,5.7-10.6,8.6C113,232.1,114.3,235.5,114.1,238.6z M104,247.7c2.9-2.7,5.9-5.4,8.9-8c0.6-3.2-0.7-7.1-2.8-8.1
		c-3.1,2.7-6.3,5.4-9.3,8.2C102.9,241,104.3,244.4,104,247.7z M359.5,156.8c3.7,0.6,7.3,1.4,10.7,2.3c2.5-1.1,4.7-4.1,5-6.4
		c-3.8-1.2-7.8-2.1-11.9-2.9C363.4,152.1,361.8,155,359.5,156.8z M408,189.4c1,3,1.5,6.2,1.7,9.5c2.7,2.1,6.7,3,8.1,1.1
		c-0.1-4.1-0.7-8-1.8-11.8C414,189.7,410.7,190.2,408,189.4z M50.8,356.4c-0.6-4-0.9-8-0.9-12c-2.4-2.4-6.8-3.4-8.7-1.7
		c-0.1,4.3,0.1,8.5,0.7,12.7C43.9,353.7,48,354.4,50.8,356.4z M402.2,178.7c2.2,2.9,4.1,6.1,5.3,9.4c2.6,1.1,6.3,0.6,8.1-1
		c-1.3-4.2-3.4-8.2-6.2-12C408.7,177.5,405.4,178.9,402.2,178.7z M383.5,163.9c3.5,1.7,6.7,3.7,9.7,5.9c2.8-0.6,5.7-2.8,6.3-4.9
		c-3.1-2.5-6.6-4.7-10.3-6.6C388.8,160.6,386.3,162.9,383.5,163.9z M394.3,170.6c2.6,2.1,5,4.4,7.1,7c3.4,0.5,7.3-1,7.3-3.6
		c-2.5-3.1-5.3-5.9-8.3-8.4C399.5,167.8,396.9,169.9,394.3,170.6z M371.7,159.5c3.7,1.1,7.2,2.4,10.5,3.9c3-0.7,6-3.3,6.1-5.5
		c-3.8-1.9-7.9-3.6-12.1-4.9C375.8,155.3,374,158,371.7,159.5z M125.2,229.5c2.9-2.1,5.7-4.3,8.6-6.4c1.7-2.6,0.9-7.2-1-9.1
		c-3.5,2.5-6.9,5-10.3,7.6C124.5,223.1,125.6,226.5,125.2,229.5z M235.3,172.2c3.8-1.2,7.9-2.4,12.1-3.6c2.7-2,4.1-6.8,2.9-9.2
		c-4.8,1.3-9.5,2.7-13.9,4C237.6,165.8,237.2,169.7,235.3,172.2z M209.5,181.3l12-4.5c2-2.3,2.4-6.8,0.9-8.8l-12.8,4.7
		C210.9,174.8,210.8,178.5,209.5,181.3z M196.8,186.6c3.7-1.6,7.3-3.2,11-4.7c1.9-2.5,2.3-6.9,0.8-8.9c-3.9,1.5-7.7,3.1-11.5,4.8
		C198.5,180,198.4,183.9,196.8,186.6z M223,176.2c3.2-1.1,6.6-2.3,10.2-3.4c2.6-1.8,3.5-6.6,2.2-9.1c-4.2,1.3-8.3,2.6-12.1,3.9
		C224.7,169.8,224.6,173.5,223,176.2z M409.8,200.2c0.1,3.3-0.2,6.8-0.8,10.3c1.6,2.3,5,3.8,7.4,3.6c0.9-4.3,1.4-8.5,1.4-12.7
		C415.8,202.6,412.4,202,409.8,200.2z M263.1,164.5c4.2-1,8.4-1.9,12.7-2.8c2.2-2.1,3.2-6.4,1.9-8.5c-4.7,0.9-9.3,1.9-13.8,2.9
		C265.2,158.1,264.7,161.8,263.1,164.5z M290.2,158.9c4.1-0.6,8.2-1.3,12.4-1.8c2.8-1.6,4.7-5.8,4.1-8.4c-4.8,0.5-9.6,1.2-14.4,1.9
		C293.1,153.1,292.2,156.8,290.2,158.9z M249.4,168.1c4-1.1,8-2.2,12.2-3.2c2.1-2.5,2.8-6.8,1.2-8.5c-4,0.9-7.8,1.8-11.5,2.8
		C252.3,161.6,251.5,165.5,249.4,168.1z M135.5,221.9c3.1-2.2,6.2-4.4,9.4-6.5c2.5-2.2,2.6-7.7,0.8-10.1c-4.1,2.6-8.1,5.3-12.1,8.1
		C135.4,215.4,136.3,219,135.5,221.9z M158.6,206.5c3.9-2.3,7.9-4.6,11.9-6.8c1.5-2.7,1.2-7.1-0.7-8.7c-4.1,2.2-8.2,4.5-12.2,6.9
		C159.2,200,159.7,203.7,158.6,206.5z M318.3,155.5c4.1-0.3,8.2-0.5,12.3-0.6c2.4-1.8,4-5.5,3.1-7.7c-4.3,0-8.6,0.2-13,0.4
		C321.4,149.9,320.3,153.2,318.3,155.5z M147.1,214c3.3-2.2,6.7-4.3,10.1-6.4c1.6-2.7,1.3-7.2-0.4-9.1c-3.5,2-6.9,4.1-10.3,6.3
		C148.1,207,148.4,211,147.1,214z M183.6,192.9c3.8-1.9,7.6-3.7,11.5-5.5c2.1-2.4,2.6-7.1,1.1-9.2c-4.5,2-8.9,4-13.2,6.1
		C184.6,186.4,184.8,190.2,183.6,192.9z M304.6,156.8c4.1-0.5,8.2-0.9,12.2-1.2c2.3-2,3.7-5.8,2.9-8c-4,0.3-8,0.6-12,1
		C308.2,151.1,306.9,154.7,304.6,156.8z M172.1,199.1c3.2-1.8,6.5-3.5,9.8-5.2c2-2.4,1.9-7,0.3-9.1c-3.9,1.9-7.6,3.8-11.4,5.8
		C172.5,192.4,173,196.1,172.1,199.1z M418.1,359.1c2.6,2.9,5.1,5.7,7.4,8.6c3.2,0,6.7-1.6,7.2-3.7c-2.4-3-4.8-5.9-7.4-8.8
		C424.4,357.4,421.3,358.9,418.1,359.1z M433.6,378.4c2.4,3.5,4.7,7.1,6.8,10.7c3,0.1,6.3-1.3,7.1-3.3c-1.9-3.3-3.9-6.6-6.1-9.9
		C439.7,377.6,436.5,378.7,433.6,378.4z M426.4,368.8c2.3,2.8,4.5,5.6,6.5,8.5c2.8,0.6,6.4-0.4,8-2.2c-2.3-3.4-4.8-6.8-7.4-10.1
		C432.5,367,429.4,368.5,426.4,368.8z M446.1,400.1c2.7,0.4,6-0.6,7.5-2.3c-1.6-3.7-3.5-7.4-5.5-11c-1.2,1.9-4.2,3.2-7.1,3.3
		C442.9,393.4,444.6,396.7,446.1,400.1z M398.3,339.4c3.3,3,6.5,6,9.6,9c3.2,0.3,7.1-1.3,7.8-3.5c-3.3-3.2-6.6-6.4-10.1-9.6
		C404.8,337.6,401.5,339.2,398.3,339.4z M277.4,161.2c3.6-0.7,7.2-1.4,10.8-2c2.6-1.6,4-5.9,3.1-8.5c-4.2,0.7-8.4,1.4-12.6,2.2
		C279.8,155.2,279.2,158.9,277.4,161.2z M54.5,317.9c1.4-4,3-8,4.8-12c-0.8-3.3-4-6.4-6.4-5.9c-2.1,4.3-4,8.6-5.6,12.9
		C49.9,312.1,53.1,314.7,54.5,317.9z M49.9,342.9c0.1-3.8,0.5-7.7,1.2-11.6c-1.8-2.4-5.8-3.8-8.2-3.1c-0.9,4.4-1.4,8.8-1.6,13.2
		C43.6,340.2,47.4,341,49.9,342.9z M51.4,329.9c0.7-3.5,1.6-7.1,2.7-10.6c-1-3.5-4.8-6.9-7.2-5.2c-1.5,4.3-2.8,8.7-3.7,13
		C45.8,326.6,49.3,327.8,51.4,329.9z M66.5,292.4c2-3.4,4.3-6.8,6.6-10.1c0.2-3.3-1.9-7.3-4.2-7.8c-2.7,3.6-5.2,7.2-7.5,10.8
		C63.8,285.7,66,289,66.5,292.4z M408.7,211.7c-0.7,3.5-1.7,7-2.9,10.6c1.4,2.8,4.7,5.1,6.9,4.3c1.4-3.8,2.5-7.7,3.4-11.5
		C413.6,215.2,410.5,213.9,408.7,211.7z M60,304.5c1.7-3.5,3.6-7,5.6-10.5c0.1-3.6-2.3-7.8-4.8-7.7c-2.7,4.1-5.1,8.4-7.3,12.6
		C56,298.9,58.8,301.5,60,304.5z M389.2,329.6c2.3,3,4.9,5.9,8,8.7c3.3,0.3,7.3-1.5,7.6-3.8c-2.9-2.6-6-5.6-8.2-8.4
		C395.5,328.2,392.3,329.6,389.2,329.6z M394.7,246.5c-1.9,3.8-3.8,7.7-5.6,11.6c0.9,3.3,3.9,6.6,6.2,5.8c1.5-3.4,3.1-6.9,4.8-10.3
		C397.7,252.7,395.3,249.6,394.7,246.5z M382.8,274c-1.2,3.5-2.2,7-2.9,10.5c1.3,2.9,5,5.5,7.4,5c0.6-3.9,1.6-7.8,2.8-11.8
		C387.8,278.1,384.7,276.4,382.8,274z M388.5,259.4c-2,4.4-3.9,8.9-5.4,13.4c1.8,2.7,5.3,4.6,7.3,3.7c1.3-3.8,2.8-7.7,4.4-11.5
		C392.4,265.2,389.7,262.5,388.5,259.4z M381.4,316c1.6,4.3,3.8,8.5,6.9,12.7c3.2,0.2,6.9-1.4,7.5-3.5c-2.3-3.2-4.2-6.4-5.6-9.6
		C388.6,317.6,384.6,317.5,381.4,316z M400.8,234.6l-5.1,10.1c-0.2,3.2,2.4,7.2,4.9,7.9l6-11.9C404.1,240,401.5,237.5,400.8,234.6z
		 M405.4,223.7c-1.1,3.2-2.4,6.3-3.9,9.5c0.1,2.9,3,6,5.6,6.7c1.9-4.1,3.7-8.1,5.2-12.1C409.9,228.1,407,226.2,405.4,223.7z
		 M378.6,303c0.4,3.8,1.1,7.6,2.4,11.4c3,2.1,7.8,2.5,8.8,0c-1.5-3.6-2.4-7.3-2.8-11.1C385.1,304.8,381.4,304.5,378.6,303z"/>
	<path fill="#96C93D" d="M130.7,538.7c-0.1-2.6-0.1-4.8-0.1-6.6c0.1-0.8,0.4-1.4,1.2-1.9c0.1,5.7,0.3,13.2,0.6,19.6
		c0.3,5.9-0.8,18-7.5,19.2c0-0.8,0-1.7,0-2.5C132.9,564.8,131,545,130.7,538.7z M95.7,577.1c0.7,5.3,2.8,9.6,7.6,11.1
		C99.4,585.6,97,582,95.7,577.1z M132,570.7c6.9-8.5,5.2-29.4,3.5-39.3c-0.5-0.9-1.1-1.4-1.7-1.6c0.2,2,0.4,4.2,0.5,6.2
		c0.4,9.1,3.1,22.2-2.3,31.4c-2.1,3.6-4.6,5-7.2,5.6c0,1.1,0,2.2,0,3.3C127.3,575.2,129.8,573.4,132,570.7z M131.6,567.2
		c4.2-7.4,3.3-18.2,2.6-26c-0.5-4.9-0.6-7.9-1-11.5c-0.3,0-0.6,0.1-0.9,0.2c0.1,5.7,0.2,13.3,0.5,19.7c0.3,6.6-1,18.7-8,19.8
		c0,1,0,2.1,0,3.1C127.3,572,129.6,570.6,131.6,567.2z M102.3,541.3c4.4,6.2,7.4,0,16,5.2c-0.1-0.6-0.2-1.3-0.4-1.9
		c-1.3-1.8-3.9-3.6-9-2.8c-4.9,0.8-7.1-3.3-8-9.1c-1.4-8.6,0.6-21.5-0.5-29c-0.3-0.1-0.5-0.1-0.8,0c-0.1,5.8-0.3,14.2-0.6,21.4
		C98.8,530.6,99.4,537.2,102.3,541.3z M115,556.2c-0.3,16.5-0.6,40.4-1.2,58.2c1.5,0.5,3,0.9,4.4,1.1c-0.3-17.1-0.2-40.5,0-63.1
		C117.5,553.9,116.4,555.2,115,556.2z M99.7,542.6c5,8.7,12.5,4.1,18.5,6.9c0.1-0.8,0.2-1.5,0.1-2.3c-1.6-1-5.4-3-9.9-2.4
		c-5.9,0.9-8.7-6.1-9.6-11.6c-0.4-2.4-0.5-5.2-0.4-8.1c0.4-7.1,0.6-15.5,0.7-21.3c-0.3,0.1-0.6,0.3-0.9,0.6
		c-0.5,3.8-0.6,6.9-1.1,12.2C96.4,524.4,95.5,535.2,99.7,542.6z M116.4,553.4c0.9-0.9,1.5-2.1,1.8-3.4c-5.9-2.9-13.5,1.8-18.8-7.2
		c-5.4-9.2-2.7-22.3-2.3-31.4c0-2.2,0.2-4.4,0.5-6.4c-1.2,1.5-2.1,4.9-2.5,7.2c-1.2,10.8-1.5,26.6,4.3,33.8
		C106,554.2,116,553.8,116.4,553.4z M101.4,532.8c0.8,5.5,2.9,9.4,7.4,8.7c4.2-0.6,6.7,0.4,8.3,1.8c-1.4-2.5-3.7-3.1-6.6-2.9
		c-3.6,0.1-7.5-0.2-8-11.9c-0.7-16.3,0.5-21.1-0.2-23c-0.2-0.6-0.7-1.2-1.4-1.5C101.9,511.2,100.1,524.7,101.4,532.8z M118.8,615.7
		c1,0,2,0,2.8-0.2c-1.4-28.7-0.4-72.4-0.3-102.3c0-10.6,1-41.9-0.8-43.9c-0.4-0.3-0.9-0.4-1.4-0.4c0.3,11,0,25.3,0,34.4
		c0,11.4-0.2,25.7-0.3,40.7c0.7,2.2,0.7,4.7-0.1,7.1C118.5,574.2,118.4,598.1,118.8,615.7z M136.7,534.9c-0.1-0.6-0.2-1.1-0.4-1.6
		c1.6,10.6,2.7,29.6-3.9,37.7c-2.4,2.9-5,4.8-7.6,5.9c0,0.7,0,1.5,0,2.2c0.4-0.1,0.8-0.2,1.2-0.4
		C140.7,572.9,139.3,547.8,136.7,534.9z M112.8,513.1c0,8.5-0.3,17.1-0.7,25.8c0.9,0.1,1.9,0.3,2.8,0.7c0.4-12.2,0.9-24.3,0.8-36.3
		c0-15.9,0.7-17.1,1-29.3c0.1-2.3,0.1-3.9,0.4-4.8c-0.6,0.2-1.1,0.5-1.5,0.8C112.7,474.2,112.8,506.2,112.8,513.1z M121.9,499
		l-0.4,39.6c-0.2,26.8-0.5,55.6,0.5,76.6c1.1-0.4,1.7-1.2,1.7-2.4c-0.5-16.2-0.9-36.8-0.6-51.6c0.5-22.8,0.4-68.5,0.2-84.9
		c0-2-0.6-5.3-2.3-6.7C122.3,473.7,122.1,485.1,121.9,499z M112.4,513.1c-0.1-6.7-0.3-34.9,2.4-42.3c-2.6,3.3-3.4,18.9-3.5,25.2
		c-0.1,4.6-0.6,22.2-1.3,42.7c0.6,0.1,1.1,0.1,1.7,0.1C112.1,530.2,112.4,521.6,112.4,513.1z M116.2,503.3
		c0.1,12.1-0.4,24.2-0.8,36.5c1.3,0.6,2.2,1.7,2.9,3c0.1-14.5,0.3-28.4,0.2-39.5c0-9,0.3-23.5,0-34.4l-0.9,0.2
		c-0.6,1.3-0.5,6.6-0.6,8.9C116.6,488.6,116.1,488.5,116.2,503.3z M111,556.1c-5-0.6-8.8-2.2-11.5-4.1
		C102.5,555,106.6,556.7,111,556.1z M114.5,556.5c-0.9,0.5-1.9,0.9-3.1,1.2c-0.6,15.1-0.8,36.9-1.5,54.3c0.9,0.8,2.2,1.5,3.5,2.1
		C113.9,596.5,114.2,573,114.5,556.5z M109.4,611.6c0.8-17.3,1-38.9,1.5-53.8c-0.5,0.1-1,0.2-1.5,0.2c-0.7,19.5-1.3,38.3-1.7,50.3
		C107.6,609.5,108.3,610.6,109.4,611.6z M130.2,539.6c-0.1,3.3-0.4,7.7-1.1,13.8c-0.7,6.5-2.3,9.2-4.2,10.3c0,0.7,0,1.5-0.1,2.4
		C132.1,564.3,130.5,545.5,130.2,539.6z M112.6,555.6c1.1-0.4,2.2-0.9,3.1-1.6c-3.8,0.1-11.1-0.8-16.7-7.7c-5.2-6.3-5.6-19-4.9-29.4
		c-1.9,11-2.3,24.9,3.7,33.1C100.8,552.7,105.6,555.3,112.6,555.6z M106.5,588.9l0.1-2.7c-9.8-1.6-10.6-14.9-10.2-23.3
		c-0.7,1.7-1.3,8-1,10.6c0.7,4.2,1.9,7.9,4,10.4c1.8,2.2,3.7,3.7,5.6,4.7C105.5,588.7,106,588.8,106.5,588.9z M100.3,562
		c-0.3-0.3-0.6-0.5-1.1-0.6c-0.2,6.1-0.5,13.4,2.9,18.2c1.2,1.8,2.8,2.8,4.6,2.9l0.1-2.3C100,579.8,100.2,567.6,100.3,562z
		 M106.9,577.8c-6.4-1.5-5.2-12.8-6.1-15.1c-0.1,5.2-0.1,16.6,6.1,17V577.8z M106.8,582.9c-4.7-0.1-7-6.1-7.8-10.8
		c-0.5-3.2-0.4-7.3-0.3-10.8c-0.6,0-1.3,0.2-1.8,0.8c-0.4,6.3-0.2,13.4,2.9,18.6c2,3.4,4.4,4.6,6.9,5.1L106.8,582.9z"/>
	<path fill="#F26222" d="M230.3,604.7c-0.1-0.4-0.1-0.8-0.2-1.1c2.4,0,5.4,0,8.7,0C236.7,605.1,240.8,604.7,230.3,604.7z
		 M251.9,597.2h-1.8C250.6,598,251.3,597.9,251.9,597.2z M271.9,600c0.5,0.4,1.6,0.8,2.8,1.2c0.7,0.1,9.4-3.7,10.8-4.3l-22.1,0.3
		C264.4,600.3,269.2,597.9,271.9,600z M259.2,588.6c1.5,0,3,0.1,4.4,0.1c11.9,0.3,28.2-0.1,36-0.3c-4.3-14.9-18-25.8-34.3-25.8
		c-16.7,0-30,11.2-34.2,25.9c5.6,0,13.7,0,21.5,0.1l-0.4-1.4c4.9-3,4.5-1.1,7.1-3C260.1,585.7,259.3,587.2,259.2,588.6z
		 M253.8,593.1l-1.1-4.1c-8-0.1-16.1-0.1-21.6-0.1c-0.7,2.4-1.1,4.9-1.2,7.5c3.8,0.1,9.1,0.2,14.7,0.3c0.2-1,0.3-1.7,0.3-1.7
		l2.3-4.2l1.6-0.1c0,0,0.3,4.1,1.2,6.1c0.7,0,1.5,0,2.3,0C253.2,595.4,253.8,593.1,253.8,593.1z M300.1,590.3
		c-0.1-0.5-0.3-1-0.4-1.5c-7.7,0.2-24.2,0.6-36.1,0.5c-1.4,0-2.9-0.1-4.4-0.1c0,2,1.2,4,1.2,4c1.3,1.7,2.1,1.5,2.8,3.6l23.3-0.3
		C291.1,594.5,295.6,592.4,300.1,590.3z M230.9,607.4c2.3-0.5,4.7-1.5,6-2.2c-2.4,0-4.6,0-6.5-0.1
		C230.5,605.9,230.7,606.6,230.9,607.4z M244.4,597.1c-5.6,0-10.9-0.1-14.7-0.3c0,1.4,0,2.7,0.1,4c3.5,0,8.3,0,13.4,0
		C243.7,599.7,244.1,598.3,244.4,597.1z M243,601.3c-5.1,0-9.7,0-13.1,0c0,0.6,0.1,1.3,0.2,1.9c2.7,0,6,0,9.7,0
		C241.6,602.9,242.1,603.1,243,601.3z"/>
	<path fill="#EEEEEE" d="M209.6,589.3l-1.9,0.4l0.3,4.3l-2.3,3.1c0,0-1.6-0.5-2.8-2.2c-1.2-1.6-0.8-7.3-0.8-7.3
		c-0.5-0.5-1-0.9-1.5-1.3c2.5-3.7,8.4-5.7,11.8-2.1c1.4-2.6,3.5-4.5,6.7-1.7c-1.2-2.8-5.3-3.1-7.2-0.3c-5.1-3-10,0.5-12.2,3
		c-0.5-0.8-0.8-1.9-0.4-3.3h-2.7c-0.5,1-0.7,2-0.8,3c-7.6-4.5-11.9,1-13.6,3.2c-4.5-3.7-6.6,1-6.6,2.6c2.4-4.8,5.9-2.2,6.8-0.3
		c3.4-5.3,7.5-7.5,13.3-3.7c0,1.3,0.2,2.7,0.2,4.1c0,1.5-1.2,4.2-1.2,4.2s0.9,6-0.4,6.4s-3.6-0.1-3.6-0.1c-0.8-2.2-2.4-4.8-0.1-6.7
		c0,0-0.7-3.4-2-3.4s-1.5,5.4-1.6,7.5c-0.1,2.1-0.9,7.4-0.9,7.4s-5,3.2-6.8,3.2c-1.7,0-7.2-1.6-7.2-1.6s-1-2.3-1.2-3.5
		c-0.1-1.2-2.7-1.1-3.8-1.5c-1.6-0.6-2.9-6.3-2.3-6.3c-3.1-4.8,0.6-7.9-1.9-12.2c1.1-1.9,0.1-4.1,0.2-5.9l-0.8-2.5
		c-3.2,1.3-2.5,3.2-1.9,5.2c0,0,0.4,3.9,0.1,5.2s-2.4,6.9-2.4,6.9s-1.1,2.8-2.1,2.3c-1.1-0.5-0.5-3.5-0.5-4.8s-1.3-2.6-1.3-3.9
		s1.3-5.5,1.3-5.5c0-0.9-3.4-2.6,0.3-4.2l-0.9-1.6c0,0-2,0.5-2.7,1.1c-0.7,0.5-1.9,0-2.7,0.4s-0.5,5.8-0.9,6.9
		c-0.4,1.1-1.3,1.7-1.3,1.7l-1.2,6.3c0,0-2.7,3.8-3.1,5.4c-0.4,1.6-2.4,3.4-3.1,3.5c-2.1,0.4-4.8,5.1-6.4-1.9l-1.6-0.4
		c0,0-2.6,2.1-3.4,0.9c-0.8-1.2,0.1-3.8-0.8-3.8c-0.5,0-1.4-0.4-2.3-0.9c-0.1-4.5-0.2-9.1-0.2-13.7c9.2-2.2,13.5-12,14.7-21.4
		c8.9-5,17.9-1.2,21.6,9.2c2.9-5.2,6.7-6.7,11.3-2c3-6.7,8.4-2.5,9.3-2.2c-3.8-4.7-8.6-1.6-9.8,0.2c-5.1-4.7-9-1.1-10.5,0.9
		c-6.5-12.6-16.2-10.3-21.5-7.8c0.8-8.2-0.1-16.9-1.4-23.3c-1.8-8.8-7.6-7.1-9.1-4c-0.7,1.5-0.7,4.8-0.7,6.5
		c-0.1,2.9-0.4,10.5-1.3,16.6c-0.8,0.1-1.5,0.3-2.2,0.6c0.2-13,0.2-26,0.2-39.1c2.3-2.7,5.2-5.6,7.8-8.6
		c10.2,1.5,17.4,13.1,15.8,25.5c5.7,0.2,9.8,6.5,8.9,13.2c0.9,0.1,1.7,0.6,2.2,1.4c1.5-3.2,5.4-4.3,8.2-2.3
		c7.6-10.5,21.8-3.8,21.8,10.1c0,2.4-0.5,4.7-1.3,6.7c4.3-3.5,10.1,1.1,9,7.4c4.1-5,10.7-5.6,15.3-1.1c-0.8-4.3,1.9-8.7,5.7-8.7
		c2.5,0,4.7,2,5.5,4.8c1.8-2.7,5.3-2.4,6.7,0.7c0.8-1.9,2.8-2.4,4.1-0.8c2.9-14.8,24.4-17.3,29.3-2.5c-16,0.2-31.4,11.9-35.2,27.4
		c-1.5,6.2-1.2,12.7,0.4,19.3c-6.9,1-12-4.4-15.6-2.2c-1.1-3.8,0.2-3.6-3.2-6.4C209.2,597.3,210.7,594,209.6,589.3z M125,556
		c0,1.8-0.1,3.7-0.1,5.5c0.9-1,1.6-3.3,2.1-6.1C126.3,555.5,125.7,555.7,125,556z M331.2,564.7c0.9-2.6,3.5-8.9,9-4.1
		c1.6-3.7,10-14,20.7-5.7c13.7-9.6,26.7-19.8,38.5-30.4c-2.8-2.5-6.7-3.4-10.4-1.6c-3-4.8-8.2-8-14.1-8c-10,0-17.7,8.9-16.7,19.1
		c-2.1-1.6-4.4,0.9-4.6,4.6c-5.8-3-12.4,2.2-12.2,9.9c-2.7-0.7-5.3,0.5-7,2.8c-8.2-8.8-21,1.3-17.3,14c-1.3-0.3-2.6,0-3.7,0.7
		c-1.8-11.1-15-11.9-17.7-1c-1.6-2.1-4.2-2.4-6.1-0.7c-2.2-3.6-7.4-4.2-9.4-0.3c9.7,4.2,18.9,14.7,20.9,25.8
		c20.2-9.7,40.1-21.3,58.5-34c-8.2-5.9-16-0.2-19.1,7.5c-4.5-5.7-7.3-2.5-8.6,2.9c-3-2-4.6-1.1-6.2,2.5
		C325.8,565.1,328.3,563.3,331.2,564.7z M107.6,557.9c-6.6-0.6-11.7-5.9-14.1-12.4c-13.6,14.4-26.1,32.1-18.4,46.5
		c1.8-0.9,4.4-2.6,4.7-5.9c0,0,3.2-0.4,5-0.1c1.7,0.3,5.6,0.8,6.7-0.5c0,0,0.4,1.3,0.5,2.6c0.1,1.2-2,1.3-0.5,3.6s3.1,2.4,3.1,2.4
		c-0.2,2.8-1.6,4,2.7,4.7c0,0,1.1,3.4,2.1,4.2c1.1,0.8,2.4,1.9,3.4,0.9c0.9-0.9,1.7-5.2,1.7-5.2s0.7,0.1,1.7,0l0.3-8
		c-1.3-0.3-2.5-0.6-4-1.1c-9.7-3.1-9.2-17.6-7.9-25.7c0.4-2.3,1.9-4.5,4.5-4.2c2.9,0.4,3.6,2.8,3.6,5.2c0,2,0.5,4.2,0.9,6.2
		c0.4,2,1.3,4.4,3.4,5L107.6,557.9z M108.2,538.6l0.2-7.5c-1.1,0.9-2.2,2-3.4,3.1C105.5,536.3,106.2,538.1,108.2,538.6z"/>
</g>
</svg>
