<?xml version="1.0" encoding="utf-8"?>
<!-- Generator: Adobe Illustrator 21.1.0, SVG Export Plug-In . SVG Version: 6.00 Build 0)  -->
<svg version="1.1" id="Layer_1" xmlns="http://www.w3.org/2000/svg" xmlns:xlink="http://www.w3.org/1999/xlink" x="0px" y="0px"
	 viewBox="0 0 612 792" enable-background="new 0 0 612 792" xml:space="preserve">
<g>
	<path fill="#EEEEEE" d="M580.6,370.6C580.6,370.6,580.7,370.5,580.6,370.6L580.6,370.6z M142,369.5
		C141.9,369.4,141.9,369.5,142,369.5L142,369.5z M495.1,362.6c17.6,4.6,38.4,1.4,53.6-0.5C530.6,361.7,512.5,363.5,495.1,362.6z
		 M594.7,359.3c-0.2,1.5-0.8,3.2-2.3,4.7c-0.2,2.9-1,4.6-2,5.6c-1.2,1.2-2.7,1.5-4,1.6h-0.1c-1.1,0-1.7-0.3-2.2-0.6
		c-0.1,0,0.1-0.1,0-0.1c0,0-0.2,0.1-0.3,0.1c-0.5,0.2-1,0.4-1.6,0.3c-0.7,0-1.3-0.3-1.7-0.5c-0.5,0.3-1.1,0.6-2.1,0.6
		c-0.6,0-1-0.1-1.4-0.3c-0.4,0.2-0.8,0.3-1.2,0.4c-0.3,0.1-0.5,0.1-0.8,0.1c0,0.3,0.1,0.7,0.3,1.1c0.6,1.4,1.9,2.7,2.7,3.3
		c0.9,0.6,0.6,1.8-0.4,2.2c-0.3,0.1-0.6,0.2-1,0.2c-2.1,0.2-4.2-0.8-5.9-2.3c-1.5-1.4-2.8-3.2-3.5-4.6c-0.2-0.5-0.4-1.1-0.5-1.5
		c-0.1-0.4-0.1-0.8-0.1-1.3c-0.9,0-1.7,0-2.6,0c-1.1,0-2.2,0-3.3,0c-5.3,0.2-10.8,0.5-16.3,1.1c-5.6,0.5-11.1,1.1-16.4,1.7
		c-3.3,0.4-6.3,0.7-9.3,0.8c-3.1,0.1-6.3,0.1-9.9-0.2c-4.2-0.4-8-1.1-11.8-1.8c-2.2-0.4-4.3-0.8-6.6-1.2c-0.6-0.1-2.6-0.4-4.2-0.5
		c-0.2,0-0.3-0.1-0.4-0.1c-0.2,0.8-0.5,2.1-1.4,3.5c-0.6,1-2.8,2.8-5.4,3.8c-1.9,0.7-4,1.1-5.9,0.6c-1.1-0.3-1.4-1.5-0.5-2.1
		c0.6-0.4,1.1-0.9,1.5-1.4c0.4-0.5,0.8-0.9,1.1-1.4c0.1-0.1,0.3-0.5,0.5-0.9c-0.4,0.3-0.8,0.5-1.5,0.5c-1.1,0.1-1.7-0.3-2.2-0.7
		c-0.1-0.1,0-0.1-0.1-0.1c-0.1,0-0.1,0.1-0.3,0.1c-1,0.3-2.1,0.7-3.1,0.2c-0.3,0.2-0.7,0.4-1,0.5c-1,0.3-1.9,0.3-2.7,0.1
		c-0.8-0.3-1.4-0.7-1.9-1.4c-0.3-0.4-0.6-0.9-0.8-1.4c-1.9,0.2-4.1,0.1-6.3,0c-1.4-0.1-2.8-0.2-4.1-0.2c-1.6,0-3.3-0.2-5.1-0.3
		c-1.5-0.1-3-0.3-4.7-0.3c-2,0-4,0-6,0c-13.6,0.1-27.1,0.2-43.2-1.4h0.1c-0.7,0-8-0.1-13.5-0.1c-3,0-5-0.2-5.2-0.1
		c-0.4,0.3,0.5,0.4,0.5,0.8c0,0.3,0,0.5,0,0.6c-0.3,2.1-1.3,3.8-2.8,5.3c-1.6,1.6-3.7,2.7-6,3.5h-0.1c-1.7,0.5-6,0.1-6.5-1.1
		c0-0.1-0.1-0.2-0.1-0.3c-0.1-0.8,0.7-1.5,1.7-1.4c0.5,0,2-0.9,3.1-2.1c0.3-0.3,0.6-0.7,0.7-1c0.1-0.2,0.1-0.3,0.1-0.4
		c0-0.1-0.1-0.1-0.4-0.2c-0.2,0-0.4,0.1-0.6,0.2c-0.8,0.3-1.7,0.5-3,0.3c-0.3-0.1-0.7-0.2-0.9-0.3c-0.5,0.3-1.2,0.6-2,0.7
		c-0.5,0-0.9,0-1.4-0.1c-0.5-0.1-1-0.2-1.4-0.3c-0.5-0.1-0.8-0.4-1.1-0.6c-0.1-0.1,0.1-0.1,0-0.1c-0.3,0-0.6,0.1-1,0.2
		c-0.7,0.2-1.4,0.4-2.4,0.2c-0.7-0.1-1.2-0.4-1.7-0.8c-0.2-0.2-0.4-0.3-0.6-0.5c-1.9,0.3-4.1,0.2-6.2,0.2c-1,0-2,0-2.9,0
		c-4.1,0.1-8,0.3-11.9,0.5c-7.4,0.3-14.5,0.6-22.5,0.5h-0.1c-6.9-0.3-13.7-0.5-20.4-0.5c-6.8,0-13.6,0-20.4,0.2
		c-0.9,0-1.8-0.1-2.6-0.2c-1.1-0.1-2.2-0.2-2.9-0.1c-0.5,0.1-1,0.4-1.5,0.7c-0.9,0.6-1.8,1.1-3.3,1.1c-1.1,0-1.7-0.3-2.2-0.6
		c-0.1,0,0.1-0.1,0-0.1c0,0-0.2,0.1-0.3,0.1c-0.5,0.2-1,0.4-1.6,0.3c-0.7,0-1.3-0.3-1.7-0.5c-0.5,0.3-1.1,0.6-2.1,0.6
		c-0.6,0-1-0.1-1.4-0.3c-0.4,0.2-0.8,0.3-1.2,0.4c-0.3,0.1-0.5,0.1-0.8,0.1c0,0.3,0.1,0.7,0.3,1.1c0.6,1.4,1.9,2.7,2.7,3.3
		c0.9,0.6,0.6,1.8-0.4,2.2c-0.3,0.1-0.6,0.2-1,0.2c-2.1,0.2-4.2-0.8-5.9-2.3c-1.5-1.4-2.8-3.2-3.5-4.7c-0.2-0.5-0.4-1.1-0.5-1.5
		c-0.1-0.4-0.1-0.7-0.1-1.1h-0.1c-4.1,0.1-8,0.3-11.9,0.5c-7.4,0.3-14.5,0.6-22.5,0.5h-0.1c-6.9-0.3-13.7-0.5-20.4-0.5
		c-6.8,0-13.6,0-20.4,0.2c-0.9,0-1.8-0.1-2.6-0.2c-1.1-0.1-2.2-0.2-2.9-0.1c-0.5,0.1-1,0.4-1.5,0.7c-0.9,0.6-1.8,1.1-3.3,1.1
		c-1.1,0-1.7-0.3-2.2-0.6c-0.1,0,0-0.1,0-0.1s-0.2,0.1-0.3,0.1c-0.5,0.2-1,0.4-1.6,0.3c-0.7,0-1.3-0.3-1.7-0.5
		c-0.5,0.3-1.1,0.6-2.1,0.6c-0.6,0-1-0.1-1.4-0.3c-0.4,0.2-0.8,0.3-1.2,0.4c-0.3,0.1-0.5,0.1-0.8,0.1c0,0.3,0.1,0.7,0.3,1.1
		c0.6,1.4,1.9,2.7,2.7,3.3c0.9,0.6,0.6,1.8-0.4,2.2c-0.3,0.1-0.6,0.2-1,0.2c-2.1,0.2-4.2-0.8-5.9-2.3c-1.5-1.4-2.8-3.2-3.5-4.6
		c-0.2-0.5-0.4-1.1-0.5-1.5c0-0.1,0-0.2-0.1-0.4c-2.1-0.1-4.4-0.1-6.6,0c-2.8,0.1-5.5,0.3-8,0.5c-3.8,0.3-7.6,1-11.4,1.7
		c-5.3,1-10.6,1.9-16.3,1.9c-4.7,0-9.3-0.4-13.7-1c-4.4-0.6-8.5-1.3-12.4-2.1c-1.6-0.3-3.5-0.6-5.4-0.9c-1.9-0.3-3.9-0.5-5.9-0.7
		c-0.6-0.1-1.2-0.2-1.8-0.2c-1.8-0.2-3.9-0.5-4.4-0.4c-0.1,0-0.4,0.2-0.6,0.5c-0.8,0.7-1.6,1.4-3.4,1.4c-1,0-1.8-0.6-2.5-1.1
		c-0.6,0.3-1.3,0.6-2.1,0.7c-1.1,0-1.9-0.4-2.6-0.8c-0.2,0.1-0.3,0.2-0.5,0.2c-2,0.8-3.1,0.2-4.1-0.4c-0.2-0.1-0.2-0.2-0.3-0.2h-0.1
		c0.3,1.2,0.8,2.3,1.5,3.3c0.9,1.2,2,2.2,3.2,2.9c1,0.6,0.7,2-0.4,2.3c-1.5,0.4-3.3,0.2-5.1-0.4c-1.9-0.6-3.9-1.6-5.7-3.1
		c-1.7-1.4-3.1-3.2-3.8-5.3c-0.7-2-0.7-4.3,0.3-6.7c0.4-1,1.2-1.5,2-2c0.3-0.2,0.6-0.4,0.7-0.5c0.1-0.1,0.1-0.4,0.1-0.7
		c0.1-0.4,0.1-0.9,0.3-1.4c0.3-0.6,0.7-1.4,1.4-2c0.6-0.5,1.3-0.9,2.2-1.1c0.9-0.2,1.6,0,2.3,0.3c0.3,0.1,0.7,0.2,1,0.2
		c0.1,0,0-0.1,0.1-0.1c0.3-0.2,0.6-0.4,1.1-0.6c0.4-0.1,0.9-0.2,1.4-0.3c0.4,0,0.9,0,1.4,0c0.8,0.1,1.4,0.4,1.9,0.7
		c0.3-0.1,0.6-0.2,1-0.3c1.3-0.2,2.2,0.1,3,0.4c0.2,0.1,0.4,0.2,0.6,0.2c0.3-0.1,0.4-0.1,0.4-0.2c0-0.1,0-0.2-0.1-0.4
		c-0.1-0.3-0.4-0.7-0.7-1c-1-1.2-2.5-2.2-3-2.2c-0.9,0.1-1.7-0.7-1.6-1.4c0-0.1,0.1-0.2,0.1-0.3c0.6-1.2,4.9-1.4,6.5-0.9h0.1
		c2.2,0.8,4.3,2,5.8,3.7c1.4,1.5,2.3,3.3,2.5,5.4c0,0.1,0,0.3,0,0.6c0,0.4-0.9,0.4-0.5,0.8c0.1,0.1,2.2,0,5.2,0.1
		c5.4,0.2,12.4,0.4,13.4,0.4c16.1-1,29.6-0.5,43.2,0.1c2.1,0.1,4.1,0.2,6.1,0.3c1.5,0,3.1-0.1,4.6-0.2c1.7-0.1,3.4-0.2,5.1-0.1
		c1.4,0,2.8,0,4.1,0c1.6,0,3.1-0.1,4.5,0c0.2-1.1,0.5-2,1.1-2.8c0.5-0.7,1.1-1.2,1.8-1.5c0.8-0.3,1.7-0.4,2.7-0.1
		c0.4,0.1,0.8,0.3,1.2,0.6c1-0.4,2.1-0.1,3.1,0.2c0.2,0.1,0.2,0.1,0.3,0.1c0.1,0,0,0,0.1-0.1c0.6-0.3,1.1-0.7,2.2-0.6
		c0.7,0,1.1,0.2,1.5,0.5c-0.2-0.4-0.4-0.8-0.5-0.9c-0.3-0.5-0.7-0.9-1.1-1.4c-0.4-0.5-0.9-0.9-1.5-1.4c-0.9-0.6-0.5-1.9,0.5-2.1
		c1.9-0.5,4-0.1,5.9,0.6c2.6,1,4.8,2.8,5.4,3.8c0.9,1.4,1.2,2.7,1.4,3.5c0.1-0.1,0.2-0.1,0.4-0.1c1.6-0.1,3.6-0.4,4.2-0.5
		c2.3-0.4,4.4-0.8,6.6-1.2c3.8-0.7,7.5-1.5,11.7-1.8c3.6-0.3,6.8-0.4,9.9-0.2c3,0.1,6.1,0.4,9.3,0.8c5.2,0.6,10.8,1.2,16.4,1.7
		c5.5,0.5,11,0.9,16.3,1.1c1.1,0,2.2,0,3.3,0c1.4,0,2.8,0,4.2,0.1c0.3-0.6,0.7-1.1,1.2-1.5c0.4-0.3,0.9-0.6,1.5-0.7
		c0.6-0.1,1.2-0.1,1.8,0c0.5,0.1,1,0.3,1.5,0.6c1-0.4,2.1-0.1,3.1,0.2c0.2,0.1,0.2,0.1,0.3,0.1c0.1,0,0,0,0.1-0.1
		c0.6-0.3,1.1-0.7,2.2-0.6c0.7,0,1.1,0.2,1.5,0.5c-0.2-0.4-0.4-0.8-0.5-0.9c-0.3-0.5-0.7-0.9-1.1-1.4c-0.4-0.5-0.9-0.9-1.5-1.4
		c-0.9-0.6-0.5-1.9,0.5-2.1c1.9-0.5,4-0.1,5.9,0.6c2.6,1,4.8,2.8,5.4,3.8c0.9,1.4,1.2,2.7,1.4,3.5c0.1-0.1,0.2-0.1,0.4-0.1
		c1.6-0.1,3.6-0.4,4.2-0.5c2.3-0.4,4.4-0.8,6.6-1.2c3.8-0.7,7.5-1.5,11.8-1.8c3.6-0.3,6.8-0.4,9.9-0.2c3,0.1,6.1,0.4,9.3,0.8
		c5.2,0.6,10.8,1.2,16.4,1.7c5.5,0.5,11,0.9,16.3,1.1c1.1,0,2.2,0,3.3,0c1.3,0,2.6,0,3.8,0c0.1-0.5,0.3-1,0.4-1.4
		c1.1-2.7,3.3-4.8,5.8-6.3s5.4-2.3,7.7-2.2c0.6,0,1.1,0.1,1.6,0.3c1.2,0.3,1.4,1.7,0.3,2.3c-1.2,0.6-2.4,1.6-3.3,2.8
		c-0.7,0.9-1.3,1.9-1.6,3.1c1-0.5,2.2-1.1,4.1-0.3c0.1,0.1,0.3,0.1,0.5,0.2c0.7-0.4,1.5-0.8,2.6-0.7c0.8,0.1,1.5,0.4,2.1,0.8
		c0.7-0.5,1.6-1,2.6-1c1.8,0,2.6,0.8,3.3,1.5c0.2,0.2,0.5,0.4,0.6,0.5c0.5,0.1,2.6-0.1,4.4-0.3c0.6-0.1,1.2-0.1,1.9-0.2
		c1.9-0.2,3.9-0.3,6-0.5c2-0.2,3.8-0.4,5.4-0.7c4-0.6,8.1-1.2,12.5-1.6c4.4-0.4,9-0.7,13.7-0.5c5.7,0.2,11,1.3,16.2,2.5
		c3.8,0.8,7.5,1.6,11.3,2.1c2.7,0.3,5.5,0.6,8.6,0.8c2.3,0.2,4.7,0.2,6.9,0.2c0-0.1,0-0.2,0-0.2c0-0.5,0.1-1.1,0.1-1.6
		c0.1-0.5,0.2-1,0.5-1.5c0.7-1.5,1.9-3.3,3.5-4.7c1.7-1.5,3.8-2.6,5.9-2.3c0.3,0,0.7,0.1,1,0.2c1.1,0.3,1.3,1.6,0.4,2.2
		c-0.8,0.6-2.1,1.9-2.7,3.3c-0.2,0.4-0.3,0.8-0.3,1.1c0.3,0,0.5,0,0.8,0.1c0.4,0.1,0.8,0.2,1.2,0.4c0.4-0.1,0.8-0.3,1.4-0.3
		c1,0,1.6,0.3,2.1,0.6c0.5-0.2,1-0.5,1.7-0.5c0.6,0,1.1,0.2,1.6,0.3c0.2,0.1,0.3,0.1,0.3,0.1c0.1,0,0,0,0-0.1
		c0.5-0.3,1.1-0.6,2.2-0.6c1.5,0,2.4,0.6,3.3,1.1c0.5,0.3,1,0.6,1.5,0.7c0.7,0.1,1.7,0,2.9-0.1c0.9-0.1,1.8-0.2,2.6-0.2
		c6.8,0.1,13.6,0.2,20.4,0.2s13.6-0.2,20.4-0.5h0.1c8.1-0.1,15.1,0.2,22.5,0.5c3.8,0.2,7.8,0.3,11.9,0.5c0.9,0,1.9,0,2.9,0
		c1.8,0,3.7,0,5.3,0.1c0.3-0.6,0.7-1.1,1.2-1.4c0.4-0.3,0.9-0.6,1.5-0.7c0.6-0.1,1.2-0.1,1.8,0c0.5,0.1,1,0.3,1.5,0.6
		c1-0.4,2.1-0.1,3.1,0.2c0.2,0.1,0.2,0.1,0.3,0.1s0,0,0.1-0.1c0.6-0.3,1.1-0.7,2.2-0.6c0.7,0,1.1,0.2,1.5,0.5
		c-0.2-0.4-0.4-0.8-0.5-0.9c-0.3-0.5-0.7-0.9-1.1-1.4c-0.4-0.5-0.9-0.9-1.5-1.4c-0.9-0.6-0.5-1.9,0.5-2.1c1.9-0.5,4-0.1,5.9,0.6
		c2.6,1,4.8,2.8,5.4,3.8v-0.1C594.1,355.1,595,357.1,594.7,359.3z M592.2,354c-0.8-1.3-5.8-4.7-9.5-3.8c1.4,1,2.2,2.1,2.9,3.1
		c0.2,0.4,1.6,2.9,1.3,3.3c-0.4,0.5-1.9-0.1-2-0.1c-0.8-0.3-1-0.9-1.7-0.9c-1-0.1-1.3,0.7-2.1,0.8c-0.8,0.1-2.5-1.2-3.5,0.1
		c-2.4-2.2-4.3-1.1-5,1.1c-2.6-0.4-6.3-0.2-9.2-0.3c-12.2-0.4-22.2-1.2-34.3-1c-13.7,0.7-27.3,0.6-41,0.3c-2,0-4.3,0.5-5.8,0.2
		c-1.9-0.3-2.7-1.8-4.6-1.8c-1.1,0-1.5,0.6-2.2,0.6c-0.6,0-1.4-0.5-2-0.5c-0.7,0-1.4,0.7-1.8,0.6c-0.5,0-1.1-0.7-2.1-0.8
		c-0.5,0-1.1,0.4-1.7,0.4c-0.6-0.5-1.7-0.8-2.6-0.5c-1.8-1.7,1.3-5.6,3-6.7c-3.8-1.2-8.4,4.7-8.8,7.3c-0.1,0.9-0.2,1.9,0,2.9
		c-5.5,0.4-11.7-0.3-17.3-0.9c-9.3-1.1-17.8-4.2-27.4-4.5c-9.3-0.3-18.1,0.9-25.9,2.1c-3.4,0.5-7.6,0.9-11.5,1.2
		c-2,0.2-5.7,0.7-6.8,0.4c-1.3-0.3-1.6-1.9-3.5-1.9c-0.9,0-2.2,1.2-2.6,1.2c-0.3,0-1.3-0.9-2.2-1c-1.2-0.1-2.1,1-2.7,0.9
		c0.1,0-0.7-0.5-0.9-0.6c-1.9-0.8-2.8,0.7-3.9,0.6c0,0-0.1-0.1-0.2-0.2l0.1-0.6c0,0-0.1,0.2-0.2,0.3c0,0.1,0,0.1,0,0.2c0,0,0,0,0,0
		c-0.2-0.1-0.4-0.3-0.7-0.4c0,0,0-0.1,0.1-0.1h-0.2c-0.2-0.1-0.4-0.2-0.5-0.2c0.7-3.3,3.2-5.9,5.8-7.3c-4.2-1.2-13.2,3.1-13.7,9.8
		c-2.6-0.2-5.7-0.1-8.5-0.1c-10.5-0.3-22.3-1.6-32.8-2.8c-6.4-0.7-11.9-1.2-18.9-0.6c-6.5,0.6-11.9,2-18.2,3c-1,0.2-5.7,0.9-6.3,0.5
		c-0.2-0.5-0.2-2.1-1.4-4c-0.8-1.3-5.8-4.7-9.5-3.8c1.4,1,2.2,2.1,2.9,3.1c0.2,0.4,1.6,2.9,1.3,3.3c-0.4,0.5-1.9-0.1-2-0.1
		c-0.8-0.3-1-0.9-1.7-0.9c-1-0.1-1.4,0.7-2.1,0.8c-0.8,0.1-2.5-1.2-3.5,0.1c-2.4-2.2-4.3-1.1-5,1.1c-2.6-0.2-5.7-0.1-8.5-0.1
		c-10.5-0.3-22.3-1.6-32.8-2.8c-6.4-0.7-11.9-1.2-18.9-0.6c-6.5,0.6-11.9,2-18.2,3c-1,0.2-5.7,0.9-6.3,0.5c-0.2-0.5-0.2-2.1-1.4-4
		c-0.8-1.3-5.8-4.7-9.5-3.8c1.4,1,2.2,2.1,2.9,3.1c0.2,0.4,1.6,2.9,1.3,3.3c-0.4,0.5-1.9-0.1-2-0.1c-0.8-0.3-1-0.9-1.7-0.9
		c-1-0.1-1.4,0.7-2.1,0.8c-0.8,0.1-2.5-1.2-3.5,0.1c-2.9-2.7-5.1-0.5-5.3,2.7c0,0.2,0,0.5,0,0.8c-2.8-0.4-6.5,0-10.2-0.1
		c-3-0.1-6.3,0.3-9.7,0.3C98,358.7,83,357.8,64.6,359c-1.1,0-19.2-0.5-19.7-0.8c-0.2-0.1,0.1-2.1,0.1-2.2c-0.4-3.9-3.6-6.6-7.4-8
		c-1.3-0.4-4.5-0.5-4.6,0.2c1.9-0.1,8.5,5.4,3.6,6.3c-1.1,0-1.9-0.8-3.5-0.6c-0.5,0.1-1.2,0.5-1.3,0.5c-0.3,0-1.2-0.8-2-0.9
		c-0.8-0.1-1.5,0-2.1,0.2c-0.5,0.1-0.9,0.7-1.5,0.7c-1.2,0.1-2.1-0.7-3.2-0.5c-1.3,0.2-2.1,1.4-2.6,2.3c-0.3,0.7-0.1,1.6-0.6,2.2
		c-0.5,0.7-2.1,1.2-2.6,2.3c-3.6,8.6,7.5,15.1,12.5,13.9c-2.6-1.5-4.8-4.1-5.4-7.5c0.2,0,0.8-0.4,1.2-0.7c0.1,0.1,0.1,0.3,0.1,0.4
		c0.1,0.1,0.1,0.1,0.1,0.2c0.1,0.2,0.2,0.3,0.2,0.3l-0.1-1.2c1.1-0.1,1.9,1.5,3.8,0.7c0.3-0.1,1.1-0.6,1-0.6c0.6,0,1.5,1.1,2.7,1
		c0.9,0,2-0.9,2.3-0.9c0.4,0,1.6,1.3,2.5,1.3c1.9,0.1,2.3-1.5,3.6-1.8c1.1-0.3,4.8,0.4,6.8,0.6c4,0.5,8.1,1,11.5,1.6
		c7.7,1.5,16.5,3,25.7,3c9.6,0,18.3-2.8,27.6-3.6c5.2-0.4,11-0.8,16.2-0.4c0,0.5,0,0.9,0.1,1.4c0.4,2.6,5,8.5,8.8,7.3
		c-1.7-1.1-4.8-5-3-6.7c0.9,0.2,2-0.1,2.6-0.5c0.6,0,1.1,0.4,1.7,0.4c1.1,0,1.6-0.7,2.1-0.8c0.4,0,1.1,0.6,1.8,0.6
		c0.6,0,1.4-0.5,2-0.5c0.7,0,1,0.6,2.2,0.6c1.9,0,2.7-1.5,4.6-1.8c1.5-0.3,3.8,0.2,5.8,0.3c13.7-0.3,27.3-0.3,41,0.3
		c12.1,0.2,22.1-0.6,34.3-1c0.5,0,1.1,0,1.7,0c-0.1,0.8,0,1.5,0.1,2.2c0.4,2.6,5,8.5,8.8,7.3c-1.7-1.1-4.8-5-3-6.7
		c0.9,0.2,2-0.1,2.6-0.5c0.6,0,1.1,0.4,1.7,0.4c1.1,0,1.6-0.7,2.1-0.8c0.4,0,1.1,0.6,1.8,0.6c0.6,0,1.4-0.5,2-0.5
		c0.7,0,1,0.6,2.2,0.6c1.9,0,2.7-1.5,4.6-1.8c1.5-0.3,3.8,0.2,5.8,0.2c13.7-0.3,27.3-0.3,41,0.3c12.1,0.2,22.1-0.6,34.3-1
		c3.1-0.1,7.2,0.2,9.8-0.4c0.4,0.7,1.1,1.3,2,1.5c1,0.2,2-0.5,3.2-0.4c0.5,0.1,1,0.6,1.4,0.8c0.6,0.2,1.4,0.3,2.1,0.3
		c0.8-0.1,1.8-0.8,2.1-0.8c0.1,0,0.8,0.4,1.3,0.5c1.6,0.3,2.4-0.5,3.5-0.5c4.9,1.1-2,6.4-3.9,6.2c0.1,0.7,3.3,0.8,4.6,0.4
		c3.8-1.2,7.2-3.8,7.8-7.7c0-0.1-0.1-2.1,0-2.2c0.5-0.3,18.6-0.2,19.7-0.1c18.3,1.8,33.3,1.4,49.1,1.3c3.4,0.1,6.7,0.6,9.7,0.6
		c4.3,0,8.7,0.8,11.6,0c0.5,2.8,2.6,4.6,5.3,2c0.9,1.3,2.7,0,3.5,0.1c0.8,0.1,1.1,0.8,2.1,0.8c0.7,0,0.9-0.6,1.7-0.9
		c0,0,1.6-0.6,2-0.1c0.3,0.4-1.1,2.9-1.3,3.3c-0.7,1-1.5,2.1-2.9,3.1c3.8,1,8.8-2.4,9.5-3.8c1.2-1.9,1.2-3.5,1.4-4
		c0.5-0.4,5.2,0.3,6.3,0.5c6.3,1,11.7,2.4,18.2,3c7,0.6,12.5,0.2,18.9-0.6c10.5-1.2,22.3-2.5,32.8-2.8c2.4-0.1,5.1,0,7.5-0.1
		c-0.1,0.8,0,1.7,0.1,2.4c0.4,2.6,5,8.5,8.8,7.3c-1.7-1.1-4.8-5-3-6.7c0.9,0.2,2-0.1,2.6-0.5c0.6,0,1.1,0.4,1.7,0.4
		c1.1,0,1.6-0.7,2.1-0.8c0.4,0,1.1,0.6,1.8,0.6c0.6,0,1.4-0.5,2-0.5c0.7,0,1,0.6,2.2,0.6c2.1-0.1,4.3-0.7,4.7-6.4
		C594.8,360,593.6,356.3,592.2,354z M24.9,367c-0.1,0.1-0.2,0.2-0.2,0.3l0.5,0.1C25.1,367.3,25,367.1,24.9,367z M354.8,355.1
		C354.8,355.1,354.9,355.1,354.8,355.1C354.7,355.1,354.7,355.1,354.8,355.1z M431.7,361c-10.1-2.3-26.9-3-36.7-0.7
		C406.5,361.2,421.7,361.7,431.7,361z"/>
	<path fill="#121212" d="M582.7,350.2c1.4,1,2.2,2.1,2.9,3.1c0.2,0.4,1.6,2.9,1.3,3.3c-0.4,0.5-1.9-0.1-2-0.1
		c-0.8-0.3-1-0.9-1.7-0.9c-1-0.1-1.3,0.7-2.1,0.8c-0.8,0.1-2.5-1.2-3.5,0.1c-2.4-2.2-4.3-1.1-5,1.1c-2.6-0.4-6.3-0.2-9.2-0.3
		c-12.2-0.4-22.2-1.2-34.3-1c-13.7,0.7-27.3,0.6-41,0.3c-2,0-4.3,0.5-5.8,0.2c-1.9-0.3-2.7-1.8-4.6-1.8c-1.1,0-1.5,0.6-2.2,0.6
		c-0.6,0-1.4-0.5-2-0.5c-0.7,0-1.4,0.7-1.8,0.6c-0.5,0-1.1-0.7-2.1-0.8c-0.5,0-1.1,0.4-1.7,0.4c-0.6-0.5-1.7-0.8-2.6-0.5
		c-1.8-1.7,1.3-5.6,3-6.7c-3.8-1.2-8.4,4.7-8.8,7.3c-0.1,0.9-0.2,1.9,0,2.9c-5.5,0.4-11.7-0.3-17.3-0.9c-9.3-1.1-17.8-4.2-27.4-4.5
		c-9.3-0.3-18.1,0.9-25.9,2.1c-3.4,0.5-7.6,0.9-11.5,1.2c-2,0.2-5.7,0.7-6.8,0.4c-1.3-0.3-1.6-1.9-3.5-1.9c-0.9,0-2.2,1.2-2.6,1.2
		c-0.3,0-1.3-0.9-2.2-1c-1.2-0.1-2.1,1-2.7,0.9c0.1,0-0.7-0.5-0.9-0.6c-1.9-0.8-2.8,0.7-3.9,0.6c0,0-0.1-0.1-0.2-0.2
		c0,0-0.1-0.1-0.1-0.1c-0.2-0.1-0.4-0.3-0.7-0.4c0,0-0.1-0.1-0.1-0.1c-0.2-0.1-0.4-0.2-0.5-0.2c0.7-3.3,3.2-5.9,5.8-7.3
		c-4.2-1.2-13.2,3.1-13.7,9.8c-2.6-0.2-5.7-0.1-8.5-0.1c-10.5-0.3-22.3-1.6-32.8-2.8c-6.4-0.7-11.9-1.2-18.9-0.6
		c-6.5,0.6-11.9,2-18.2,3c-1,0.2-5.7,0.9-6.3,0.5c-0.2-0.5-0.2-2.1-1.4-4c-0.8-1.3-5.8-4.7-9.5-3.8c1.4,1,2.2,2.1,2.9,3.1
		c0.2,0.4,1.6,2.9,1.3,3.3c-0.4,0.5-1.9-0.1-2-0.1c-0.8-0.3-1-0.9-1.7-0.9c-1-0.1-1.4,0.7-2.1,0.8c-0.8,0.1-2.5-1.2-3.5,0.1
		c-2.4-2.2-4.3-1.1-5,1.1c-2.6-0.2-5.7-0.1-8.5-0.1c-10.5-0.3-22.3-1.6-32.8-2.8c-6.4-0.7-11.9-1.2-18.9-0.6c-6.5,0.6-11.9,2-18.2,3
		c-1,0.2-5.7,0.9-6.3,0.5c-0.2-0.5-0.2-2.1-1.4-4c-0.8-1.3-5.8-4.7-9.5-3.8c1.4,1,2.2,2.1,2.9,3.1c0.2,0.4,1.6,2.9,1.3,3.3
		c-0.4,0.5-1.9-0.1-2-0.1c-0.8-0.3-1-0.9-1.7-0.9c-1-0.1-1.4,0.7-2.1,0.8c-0.8,0.1-2.5-1.2-3.5,0.1c-2.9-2.7-5.1-0.5-5.3,2.7
		c0,0.2,0,0.5,0,0.8c-2.8-0.4-6.5,0-10.2-0.1c-3-0.1-6.3,0.3-9.7,0.3C98,358.7,83,357.8,64.6,359c-1.1,0-19.2-0.5-19.7-0.8
		c-0.2-0.1,0.1-2.1,0.1-2.2c-0.4-3.9-3.6-6.6-7.4-8c-1.3-0.4-4.5-0.5-4.6,0.2c1.9-0.1,8.5,5.4,3.6,6.3c-1.1,0-1.9-0.8-3.5-0.6
		c-0.5,0.1-1.2,0.5-1.3,0.5c-0.3,0-1.2-0.8-2-0.9c-0.8-0.1-1.5,0-2.1,0.2c-0.5,0.1-0.9,0.7-1.5,0.7c-1.2,0.1-2.1-0.7-3.2-0.5
		c-1.3,0.2-2.1,1.4-2.6,2.3c-0.3,0.7-0.1,1.6-0.6,2.2c-0.5,0.7-2.1,1.2-2.6,2.3c-3.6,8.6,7.5,15.1,12.5,13.9
		c-2.6-1.5-4.8-4.1-5.4-7.5c0.2,0,0.8-0.4,1.2-0.7c0.2-0.2,0.4-0.3,0.3-0.3c0,0,0,0,0,0c1.1-0.1,1.9,1.5,3.8,0.7
		c0.3-0.1,1.1-0.6,1-0.6c0.6,0,1.5,1.1,2.7,1c0.9,0,2-0.9,2.3-0.9c0.4,0,1.6,1.3,2.5,1.3c1.9,0.1,2.3-1.5,3.6-1.8
		c1.1-0.3,4.8,0.4,6.8,0.6c4,0.5,8.1,1,11.5,1.6c7.7,1.5,16.5,3,25.7,3c9.6,0,18.3-2.8,27.6-3.6c5.2-0.4,11-0.8,16.2-0.4
		c0,0.5,0,0.9,0.1,1.4c0.4,2.6,5,8.5,8.8,7.3c-1.7-1.1-4.8-5-3-6.7c0.9,0.2,2-0.1,2.6-0.5c0.6,0,1.1,0.4,1.7,0.4
		c1.1,0,1.6-0.7,2.1-0.8c0.4,0,1.1,0.6,1.8,0.6c0.6,0,1.4-0.5,2-0.5c0.7,0,1,0.6,2.2,0.6c1.9,0,2.7-1.5,4.6-1.8
		c1.5-0.3,3.8,0.2,5.8,0.3c13.7-0.3,27.3-0.3,41,0.3c12.1,0.2,22.1-0.6,34.3-1c0.5,0,1.1,0,1.7,0c-0.1,0.8,0,1.5,0.1,2.2
		c0.4,2.6,5,8.5,8.8,7.3c-1.7-1.1-4.8-5-3-6.7c0.9,0.2,2-0.1,2.6-0.5c0.6,0,1.1,0.4,1.7,0.4c1.1,0,1.6-0.7,2.1-0.8
		c0.4,0,1.1,0.6,1.8,0.6c0.6,0,1.4-0.5,2-0.5c0.7,0,1,0.6,2.2,0.6c1.9,0,2.7-1.5,4.6-1.8c1.5-0.3,3.8,0.2,5.8,0.2
		c13.7-0.3,27.3-0.3,41,0.3c12.1,0.2,22.1-0.6,34.3-1c3.1-0.1,7.2,0.2,9.8-0.4c0.4,0.7,1.1,1.3,2,1.5c1,0.2,2-0.5,3.2-0.4
		c0.5,0.1,1,0.6,1.4,0.8c0.6,0.2,1.4,0.3,2.1,0.3c0.8-0.1,1.8-0.8,2.1-0.8c0.1,0,0.8,0.4,1.3,0.5c1.6,0.3,2.4-0.5,3.5-0.5
		c4.9,1.1-2,6.4-3.9,6.2c0.1,0.7,3.3,0.8,4.6,0.4c3.8-1.2,7.2-3.8,7.8-7.7c0-0.1-0.1-2.1,0-2.2c0.5-0.3,18.6-0.2,19.7-0.1
		c18.3,1.8,33.3,1.4,49.1,1.3c3.4,0.1,6.7,0.6,9.7,0.6c4.3,0,8.7,0.8,11.6,0c0.5,2.8,2.6,4.6,5.3,2c0.9,1.3,2.7,0,3.5,0.1
		c0.8,0.1,1.1,0.8,2.1,0.8c0.7,0,0.9-0.6,1.7-0.9c0,0,1.6-0.6,2-0.1c0.3,0.4-1.1,2.9-1.3,3.3c-0.7,1-1.5,2.1-2.9,3.1
		c3.8,1,8.8-2.4,9.5-3.8c1.2-1.9,1.2-3.5,1.4-4c0.5-0.4,5.2,0.3,6.3,0.5c6.3,1,11.7,2.4,18.2,3c7,0.6,12.5,0.2,18.9-0.6
		c10.5-1.2,22.3-2.5,32.8-2.8c2.4-0.1,5.1,0,7.5-0.1c-0.1,0.8,0,1.7,0.1,2.4c0.4,2.6,5,8.5,8.8,7.3c-1.7-1.1-4.8-5-3-6.7
		c0.9,0.2,2-0.1,2.6-0.5c0.6,0,1.1,0.4,1.7,0.4c1.1,0,1.6-0.7,2.1-0.8c0.4,0,1.1,0.6,1.8,0.6c0.6,0,1.4-0.5,2-0.5
		c0.7,0,1,0.6,2.2,0.6c2.1-0.1,4.3-0.7,4.7-6.4c3.5-3.3,2.3-7,0.9-9.3C591.4,352.7,586.4,349.3,582.7,350.2z M19.9,360.4
		c0.1,2.1,0.7,4.6,2.1,5.7c0.7,1.9,0.3,3.4,2.5,6.2C21.7,372,16.3,365.7,19.9,360.4z M23.7,364.5c-2.8-0.6-3.4-8.7-0.2-8.9
		c2.8-0.2,1,3.7,1.4,6.2C25.1,362.9,26,365,23.7,364.5z M30.5,363.7c-0.3,1.3-1.2,1.7-1.8,1.6c-2.9-0.4-3-8.2-1.5-9.5
		c0.5-0.6,2.4-0.7,2.8-0.4C30.6,355.8,30.9,361.6,30.5,363.7z M33.1,365.4c-2.7-0.6-1.5-10.1,0.8-9.7c0.6,0.1,1.2,1.7,1.4,2.7
		C35.8,361.2,35.6,366,33.1,365.4z M38.4,365.7c-2.8-0.3-0.8-2.9-0.8-4.7c0-1.6-1.6-4.4-0.4-5c1-0.5,2.8,1,3.2,1.6
		C41.9,360.1,41.5,366.1,38.4,365.7z M40.9,355.7c-0.6-0.5-1.2-0.4-1.4-0.9c-0.1-0.7,0.8-2.9-1.6-5.2c3.2,0.9,6.9,5.9,4.7,8.9
		C42.3,357.7,41.5,356.4,40.9,355.7z M129.8,365.6c-11.7-0.8-21.7,0.9-30.9,2.4c-4,0.7-9.2,1.2-12.7,1.2c-12.7,0.1-25.6-3-38.3-4.5
		c-1.6-0.2-5.1-0.5-5.3-0.8c-0.8-1.4,3.5-1.1,3.6-1.1c2.4,0.1,3.5,0.2,5,0.3c10,0.7,18.8,2.8,27.7,3.7c14.6,1.6,27-2.8,40.4-3.3
		c2.6-0.1,6.1,0,9.3,0.1c0.4,0,1.1,0,1.8,0.1C130.1,364.3,129.9,364.9,129.8,365.6z M131,362.7c-0.1,0-0.2,0-0.2,0
		c-5.4-0.1-11.2,0-16.5,0.2c-8,0.3-16-0.5-24.5-0.7c-10.2-0.3-22,0.5-32.1,0.1c-2.5-0.1-5.3-0.2-7.9-0.3c-2.3-0.2-5.3,0.1-6.5-1.8
		c6.8-0.5,13.7,0.8,20.8,0.7c16.3-1,31.6-0.3,47.1,0.3c6,0,12.7-0.2,19.3-0.3c0.5,0,1.9,0,3.1,0.1c-0.1,0-0.1,0.1-0.1,0.1
		c-0.3,0.7-1.7,0.7-2.4,1.5L131,362.7z M133.2,363.2c-0.4,2,0.8,3.7,0.8,5.1c-0.8,2.1-0.3,3.5,0.5,4.9
		C131.7,371.4,129.8,364.8,133.2,363.2z M136.4,367.4c-0.7-0.2-1-0.7-1.3-1.2c-0.5-2.2-0.4-9.6,0.8-9.9c1.4-0.3,1.4,1,1.3,2.6
		c0,1.5,0.3,3.4,0.4,4.6C137.6,365.1,138.1,367.7,136.4,367.4z M140.1,367.3c-1.1-0.4-1.8-7.3-1.2-9c0.2-0.6,1.3-1.6,1.9-1.3
		c0.7,0.4,0.6,2.4,0.7,3.9C141.7,363.6,142.3,368,140.1,367.3z M145.6,365.7c-0.2,1.1-0.5,1.5-1.4,1.3c-1.4-0.2-1.2-2-1.4-3.5
		c-0.2-1.7-0.5-4.2-0.3-5.1c0.2-0.7,0.8-1.8,1.7-1.7C145.6,356.9,146.1,363,145.6,365.7z M158.2,358.9c8.4-0.7,17.2-3.8,27-3.7
		c4.3,0,9.7,0.7,14.6,1.1c5,0.5,9.9,0.8,14.4,1.3c6.6,0.8,14.6,1.4,22.5,1.2c0.6,0,1.5,0,2.5,0c-0.1,0.8,0.2,2-0.1,2.6
		c0,0.1,0,0.1,0,0.1c-0.6,0-1.1,0-1.6,0c-0.1,0-0.2,0-0.4-0.2c-11.5,0.3-21.7-0.5-31.6-1.9c-13.7-1.9-28.3-1.7-41.9,1.1
		c-1.7,0.3-9,2.1-9.6,0C153.4,358.5,156.1,359.1,158.2,358.9z M148,367.2c-1.7-0.5-0.9-4.4-1.1-7.2c-0.1-1-0.4-2.2,0.7-2.2
		c0.9,0,2.2,3.6,2.5,5.2C150.5,365,150.4,367.9,148,367.2z M148.4,351.5c3.6,1.2,6.5,5.9,3.5,9.2C149.6,358.6,150,354.1,148.4,351.5
		z M236.6,363c-0.6,0.6-1,1.4-1.2,2.2c-0.5,0-1.1,0-1.7,0c-16.1,0.7-30.9,1.6-46.5,0.6c-11.4-0.6-23,0.2-34.7-0.6
		c1.1-2.9,6.4-2.2,9.7-2.2c4.2-0.1,8.8-0.2,12.6-0.2c7.5-0.1,15.5,0.6,22.8,0.7c7.7,0,16-0.1,23.6-0.3c4.9-0.2,10.7-0.6,15.8-0.5
		C236.9,362.8,236.7,362.9,236.6,363z M238.9,363.6c-0.4,2,0.8,3.7,0.8,5.1c-0.8,2.1-0.3,3.5,0.5,4.9
		C237.4,371.8,235.5,365.3,238.9,363.6z M242.1,367.8c-0.7-0.1-1.1-0.7-1.3-1.2c-0.5-2.2-0.4-9.6,0.8-9.9c1.4-0.3,1.4,1,1.3,2.6
		c0,1.5,0.3,3.4,0.4,4.6C243.3,365.5,243.8,368.1,242.1,367.8z M245.7,367.7c-1-0.3-1.7-7.2-1.2-9c0.2-0.6,1.3-1.6,1.9-1.3
		c0.7,0.4,0.6,2.4,0.7,3.9C247.3,364,247.9,368.4,245.7,367.7z M251.2,366.1c-0.2,1.1-0.5,1.5-1.4,1.3c-1.4-0.2-1.1-1.9-1.4-3.5
		c-0.2-1.7-0.5-4.2-0.3-5.1c0.2-0.7,0.8-1.8,1.7-1.7C251.2,357.3,251.7,363.4,251.2,366.1z M264,359.5c8.4-0.7,17.2-3.8,27-3.7
		c4.3,0,9.7,0.7,14.6,1.1c5,0.5,9.9,0.8,14.4,1.3c6.6,0.8,14.6,1.4,22.5,1.2c0.6,0,1.7-0.1,2.8,0c0.1,0.6,0.3,1.2,0.5,1.9
		c0.1,0.3,0.2,0.5,0.4,0.7c-1.1,0.1-2.2,0-3,0c-0.2,0-0.3,0-0.3-0.1c-11.5,0.3-21.7-0.5-31.6-1.9c-13.7-1.9-28.3-1.7-41.9,1.1
		c-1.7,0.3-9,2.1-9.6,0C259.2,359.1,261.9,359.7,264,359.5z M253.6,367.6c-1.7-0.5-0.9-4.4-1.1-7.2c-0.1-1-0.4-2.2,0.7-2.2
		c0.9,0,2.2,3.6,2.5,5.2C256.1,365.4,256,368.3,253.6,367.6z M254,351.9c3.6,1.2,6.5,5.9,3.5,9.2C255.2,359,255.7,354.5,254,351.9z
		 M339.4,365.7c-16.1,0.7-30.9,1.6-46.5,0.6c-11.4-0.6-23,0.2-34.7-0.6c1-2.9,6.4-2.3,9.8-2.2c4.2-0.1,8.8-0.2,12.6-0.2
		c7.5-0.1,15.5,0.6,22.8,0.7c7.7,0,16-0.1,23.6-0.3c5.6-0.2,12.4-0.8,18-0.4c0.3,0,1.7,0.1,2.9,0.3c0.1,0,0.2,0.1,0.2,0.2
		c0.3,0.4,0.3,1,0.3,1.5C346.7,365.6,343.6,365.7,339.4,365.7z M348.3,361.7c-3.3-5.4,2.4-11.5,5.2-11.7c-2.3,2.7-1.9,4.3-2.8,6.1
		C349.2,357.1,348.5,359.6,348.3,361.7z M351.7,366.7c-3.2-0.4-2.2-8.4,0.6-8.9c2.3-0.3,1.3,1.7,1.1,2.7
		C352.9,363.1,354.5,367,351.7,366.7z M358.1,367.2c-0.5,0.2-2.3,0-2.8-0.5c-1.4-1.4-0.9-9.2,2-9.5c0.7-0.1,1.5,0.3,1.7,1.7
		C359.3,361,358.7,366.8,358.1,367.2z M363.7,364.3c-0.2,1-1,2.6-1.6,2.7c-2.4,0.3-3.1-9.2-0.3-9.8
		C364.4,356.7,364.3,361.5,363.7,364.3z M371.2,359.2c0.3-0.3,3.8-0.5,5.4-0.6c12.7-1.2,25.8-3.9,38.4-3.3c3.4,0.2,8.7,0.8,12.6,1.6
		c9.2,1.8,19.2,3.9,31,3.5c0.3,0,0.7,0,1.2-0.1c0.2,0.6,0.6,1.1,1,1.6c0.1,0.1,0.3,0.2,0.4,0.3c-1.6,0.2-3.3,0.2-4.1,0.2
		c-3.2,0-6.7,0-9.3-0.2c-13.4-0.9-25.6-5.7-40.2-4.7c-9,0.7-17.8,2.5-27.9,2.8c-1.5,0.1-2.6,0.1-5,0.1
		C374.6,360.4,370.3,360.6,371.2,359.2z M431.7,361c-10,0.7-25.2,0.2-36.7-0.7C404.8,358,421.6,358.7,431.7,361z M365.4,366.8
		c-1.2-0.6,0.5-3.4,0.6-5c0.1-1.8-1.8-4.5,1.1-4.7c3.2-0.3,3.3,5.8,1.6,8.2C368.3,365.9,366.4,367.3,365.4,366.8z M365.8,373.3
		c2.5-2.2,1.7-4.4,1.8-5.2c0.2-0.5,0.8-0.4,1.4-0.9c0.7-0.6,1.6-1.9,1.9-2.7C372.9,367.5,369,372.4,365.8,373.3z M463.3,365
		c-1.2,0.4-3.7,0.2-4.5,0.2c-6.6-0.4-13.3-0.8-19.3-1c-15.5,0.1-30.9,0.3-47.1-1.3c-7-0.5-14,0.6-20.7-0.1c1.3-1.8,4.3-1.5,6.6-1.6
		c2.6,0,5.4,0,8,0c10.1,0,21.9,1.1,32.1,1.2c8.5,0.1,16.5-0.4,24.5,0.2c5.2,0.4,11,0.7,16.4,0.8c1,0.1,3,0,4,0.3
		C463.4,364.1,463.3,364.5,463.3,365z M463.8,356c-0.1,1.5-1.3,3.1-0.8,5.1c-3.5-1.5-1.6-8.1,1.2-9.9
		C463.3,352.7,462.8,354,463.8,356z M467,365.6c0,1.6,0.1,2.9-1.3,2.6c-1.2-0.3-1.4-7.7-0.8-9.9c0.1-0.5,0.5-1.1,1.2-1.2
		c1.6-0.3,1.2,2.3,1.3,3.9C467.3,362.2,466.9,364.1,467,365.6z M471.1,363.6c-0.2,1.5-0.1,3.5-0.7,3.9c-0.6,0.3-1.7-0.7-1.9-1.3
		c-0.6-1.8,0.2-8.7,1.2-9C471.9,356.5,471.4,360.9,471.1,363.6z M473.9,367.6c-0.9,0.1-1.6-1-1.7-1.7c-0.2-0.9,0.1-3.3,0.3-5.1
		c0.1-1.4-0.1-3.1,1.3-3.4c1-0.1,1.3,0.3,1.5,1.2C475.8,361.4,475.3,367.4,473.9,367.6z M477.3,366.7c-1.1,0.1-0.8-1.2-0.7-2.2
		c0.2-2.8-0.6-6.7,1.1-7.2c2.3-0.7,2.4,2.2,2.1,4.2C479.6,363.1,478.2,366.7,477.3,366.7z M478,373c1.6-2.6,1.2-7.1,3.5-9.2
		C484.5,367.1,481.6,371.8,478,373z M482.2,359.2c11.7-0.7,23.3,0,34.7-0.4c15.6-1,30.4-0.1,46.5,0.6c4,0,7,0.1,8.7,0.4
		c0,0.5,0.1,1.1,0.1,1.7c-1.2,0.2-2.8,0.3-3.2,0.3c-5.6,0.3-12.4-0.2-18-0.4c-7.6-0.3-15.9-0.4-23.6-0.3c-7.2,0.1-15.3,0.8-22.8,0.7
		c-3.8,0-8.4-0.1-12.6-0.2C488.6,361.5,483.2,362.1,482.2,359.2z M548.7,362.1c-15.2,1.9-36,5.1-53.6,0.5
		C512.5,363.5,530.6,361.7,548.7,362.1z M568.7,365.4c-0.9,0-1.7,0-2.2,0c-7.9-0.1-15.9,0.5-22.5,1.2c-4.5,0.5-9.4,0.9-14.4,1.3
		c-5,0.4-10.3,1.1-14.6,1.1c-9.8,0.1-18.7-3-27-3.7c-2-0.1-4.8,0.4-4.2-1.6c0.6-2.1,8-0.3,9.6,0c13.6,2.8,28.1,3,41.9,1.1
		c9.9-1.4,20-2.2,31.6-1.9c0.1,0,0.2,0,0.3,0c0.9,0,2.4-0.1,3.7-0.1c-0.4,0.2-0.8,0.4-1.1,0.7C569.3,364,568.9,364.7,568.7,365.4z
		 M571.8,364.3c-0.4,2,0.8,3.7,0.8,5.1c-0.8,2.1-0.3,3.5,0.5,4.9C570.3,372.5,568.4,365.9,571.8,364.3z M575,368.5
		c-0.7-0.1-1.1-0.7-1.3-1.2c-0.5-2.2-0.4-9.6,0.8-9.9c1.4-0.3,1.4,1,1.3,2.6c0,1.5,0.3,3.4,0.4,4.6
		C576.2,366.2,576.7,368.8,575,368.5z M578.6,368.4c-1-0.4-1.7-7.3-1.2-9c0.2-0.6,1.3-1.6,1.9-1.3c0.7,0.4,0.6,2.4,0.7,3.9
		C580.2,364.7,580.8,369.1,578.6,368.4z M584.2,366.8c-0.2,1.1-0.5,1.5-1.4,1.3c-1.5-0.2-1.2-2-1.4-3.5c-0.2-1.7-0.5-4.2-0.3-5.1
		c0.2-0.7,0.8-1.8,1.7-1.7C584.2,358,584.7,364.1,584.2,366.8z M586.6,368.3c-1.7-0.5-1-4.4-1.1-7.2c-0.1-1-0.4-2.2,0.7-2.2
		c0.9,0,2.2,3.6,2.5,5.2C589.1,366.1,589,369,586.6,368.3z M590.4,361.8c-2.2-2.1-1.8-6.6-3.5-9.2
		C590.5,353.8,593.4,358.5,590.4,361.8z"/>
	<path fill="#A2AAAF" d="M348.1,363.8c0.3,0.4,0.3,1,0.3,1.5c-1.7,0.3-4.8,0.4-9,0.4c-16.1,0.7-30.9,1.6-46.5,0.6
		c-11.4-0.6-23,0.2-34.7-0.6c1-2.9,6.4-2.3,9.8-2.2c4.2-0.1,8.8-0.2,12.6-0.2c7.5-0.1,15.5,0.6,22.8,0.7c7.7,0,16-0.1,23.6-0.3
		c5.6-0.2,12.4-0.8,18-0.4c0.3,0,1.7,0.1,2.9,0.3C348,363.6,348.1,363.7,348.1,363.8z M466.1,357.1c-0.7,0.1-1.1,0.7-1.2,1.2
		c-0.6,2.2-0.4,9.6,0.8,9.9c1.4,0.3,1.3-1,1.3-2.6c-0.1-1.5,0.3-3.4,0.4-4.6C467.3,359.4,467.7,356.8,466.1,357.1z M459.3,363.4
		c-5.4-0.1-11.2-0.4-16.4-0.8c-8-0.6-16-0.1-24.5-0.2c-10.2-0.1-22-1.2-32.1-1.2c-2.6,0-5.4,0-8,0c-2.3,0.1-5.3-0.2-6.6,1.6
		c6.7,0.7,13.7-0.4,20.7,0.1c16.2,1.6,31.6,1.4,47.1,1.3c6,0.2,12.7,0.6,19.3,1c0.8,0,3.3,0.2,4.5-0.2c0-0.5,0.1-0.9,0-1.3
		C462.3,363.4,460.3,363.5,459.3,363.4z M368.7,365.3c1.7-2.4,1.6-8.5-1.6-8.2c-2.9,0.2-1,2.9-1.1,4.7c-0.1,1.6-1.8,4.4-0.6,5
		C366.4,367.3,368.3,365.9,368.7,365.3z M374.7,360.4c2.4,0,3.5,0,5-0.1c10.1-0.3,18.9-2.1,27.9-2.8c14.6-1,26.8,3.8,40.2,4.7
		c2.6,0.2,6.1,0.2,9.3,0.2c0.8,0,2.5,0,4.1-0.2c-0.1-0.1-0.3-0.2-0.4-0.3c-0.4-0.5-0.8-1-1-1.6c-0.5,0.1-0.9,0.1-1.2,0.1
		c-11.8,0.4-21.8-1.7-31-3.5c-3.9-0.8-9.2-1.4-12.6-1.6c-12.6-0.6-25.7,2.1-38.4,3.3c-1.6,0.1-5.1,0.3-5.4,0.6
		C370.3,360.6,374.6,360.4,374.7,360.4z M352.3,357.8c-2.8,0.5-3.8,8.5-0.6,8.9c2.8,0.3,1.2-3.6,1.7-6.2
		C353.6,359.5,354.6,357.5,352.3,357.8z M350.7,356.1c0.9-1.8,0.5-3.4,2.8-6.1c-2.8,0.2-8.5,6.3-5.2,11.7
		C348.5,359.6,349.2,357.1,350.7,356.1z M361.8,357.2c-2.8,0.6-2.1,10.1,0.3,9.8c0.6-0.1,1.4-1.7,1.6-2.7
		C364.3,361.5,364.4,356.7,361.8,357.2z M469.7,357.2c-1,0.3-1.8,7.2-1.2,9c0.2,0.6,1.3,1.6,1.9,1.3c0.6-0.4,0.5-2.4,0.7-3.9
		C471.4,360.9,471.9,356.5,469.7,357.2z M357.3,357.2c-2.9,0.3-3.4,8.1-2,9.5c0.5,0.5,2.3,0.7,2.8,0.5c0.6-0.4,1.2-6.2,0.9-8.3
		C358.8,357.5,358,357.1,357.3,357.2z M369,367.2c-0.6,0.5-1.2,0.4-1.4,0.9c-0.1,0.8,0.7,3-1.8,5.2c3.2-0.9,7.1-5.8,5.1-8.8
		C370.6,365.3,369.7,366.6,369,367.2z M575.8,360c0.1-1.6,0.1-2.9-1.3-2.6c-1.2,0.3-1.3,7.7-0.8,9.9c0.2,0.5,0.6,1.1,1.3,1.2
		c1.7,0.3,1.2-2.3,1.2-3.9C576.1,363.4,575.8,361.5,575.8,360z M582.8,357.8c-0.9-0.1-1.5,1-1.7,1.7c-0.2,0.9,0.1,3.4,0.3,5.1
		c0.2,1.5-0.1,3.3,1.4,3.5c0.9,0.2,1.2-0.2,1.4-1.3C584.7,364.1,584.2,358,582.8,357.8z M579.3,358.1c-0.6-0.3-1.7,0.7-1.9,1.3
		c-0.5,1.7,0.2,8.6,1.2,9c2.2,0.7,1.6-3.7,1.4-6.4C579.9,360.5,580,358.5,579.3,358.1z M586.9,352.6c1.7,2.6,1.3,7.1,3.5,9.2
		C593.4,358.5,590.5,353.8,586.9,352.6z M586.2,358.9c-1.1,0-0.8,1.2-0.7,2.2c0.1,2.8-0.6,6.7,1.1,7.2c2.4,0.7,2.5-2.2,2.1-4.2
		C588.4,362.5,587.1,358.9,586.2,358.9z M477.7,357.3c-1.7,0.5-0.9,4.4-1.1,7.2c-0.1,1-0.4,2.3,0.7,2.2c0.9,0,2.3-3.6,2.5-5.2
		C480.1,359.5,480,356.6,477.7,357.3z M478,373c3.6-1.2,6.5-5.9,3.5-9.2C479.2,365.9,479.6,370.4,478,373z M473.8,357.4
		c-1.4,0.3-1.2,2-1.3,3.4c-0.2,1.8-0.5,4.2-0.3,5.1c0.1,0.7,0.8,1.8,1.7,1.7c1.4-0.2,1.9-6.2,1.4-9
		C475.1,357.7,474.8,357.3,473.8,357.4z M572.6,369.4c0-1.4-1.2-3.1-0.8-5.1c-3.4,1.6-1.5,8.2,1.3,10
		C572.3,372.9,571.8,371.5,572.6,369.4z M492,361.6c4.2,0.1,8.8,0.2,12.6,0.2c7.5,0.1,15.6-0.6,22.8-0.7c7.7-0.1,16,0,23.6,0.3
		c5.6,0.2,12.4,0.7,18,0.4c0.4,0,2-0.1,3.2-0.3c0-0.6-0.1-1.2-0.1-1.7c-1.7-0.3-4.7-0.4-8.7-0.4c-16.1-0.7-30.9-1.6-46.5-0.6
		c-11.4,0.4-23-0.3-34.7,0.4C483.2,362.1,488.6,361.5,492,361.6z M567.2,362.9c-0.1,0-0.2,0-0.3,0c-11.6-0.3-21.7,0.5-31.6,1.9
		c-13.8,1.9-28.3,1.7-41.9-1.1c-1.6-0.3-9-2.1-9.6,0c-0.6,2,2.2,1.5,4.2,1.6c8.3,0.7,17.2,3.8,27,3.7c4.3,0,9.6-0.7,14.6-1.1
		c5-0.4,9.9-0.8,14.4-1.3c6.6-0.7,14.6-1.3,22.5-1.2c0.5,0,1.3,0,2.2,0c0.2-0.7,0.6-1.4,1.1-1.9c0.3-0.3,0.7-0.5,1.1-0.7
		C569.6,362.8,568.1,362.9,567.2,362.9z M463,361.1c-0.5-2,0.7-3.6,0.8-5.1c-1-2-0.5-3.3,0.4-4.8C461.4,353,459.5,359.6,463,361.1z
		 M119.3,363.5c-13.4,0.5-25.8,4.9-40.4,3.3c-8.9-0.9-17.7-3-27.7-3.7c-1.5-0.1-2.6-0.2-5-0.3c-0.1,0-4.4-0.3-3.6,1.1
		c0.2,0.3,3.7,0.6,5.3,0.8c12.7,1.5,25.6,4.6,38.3,4.5c3.5,0,8.7-0.5,12.7-1.2c9.2-1.5,19.2-3.2,30.9-2.4c0.1-0.7,0.3-1.3,0.6-1.9
		c-0.7-0.1-1.4-0.1-1.8-0.1C125.4,363.5,121.9,363.4,119.3,363.5z M37.9,349.6c2.4,2.3,1.5,4.5,1.6,5.2c0.2,0.5,0.8,0.4,1.4,0.9
		c0.6,0.7,1.4,2,1.7,2.8C44.8,355.5,41.1,350.5,37.9,349.6z M133.5,361.1c0,0,0-0.1,0.1-0.1c-1.2-0.1-2.6-0.1-3.1-0.1
		c-6.6,0.1-13.3,0.3-19.3,0.3c-15.5-0.6-30.8-1.3-47.1-0.3c-7.1,0.1-14-1.2-20.8-0.7c1.2,1.9,4.2,1.6,6.5,1.8
		c2.6,0.1,5.4,0.2,7.9,0.3c10.1,0.4,21.9-0.4,32.1-0.1c8.5,0.2,16.5,1,24.5,0.7c5.3-0.2,11.1-0.3,16.5-0.2c0,0,0.1,0,0.2,0l0.1-0.1
		C131.8,361.8,133.2,361.8,133.5,361.1z M140.8,357c-0.6-0.3-1.7,0.7-1.9,1.3c-0.6,1.7,0.1,8.6,1.2,9c2.2,0.7,1.6-3.7,1.4-6.4
		C141.4,359.4,141.5,357.4,140.8,357z M134,368.3c0-1.4-1.2-3.1-0.8-5.1c-3.4,1.6-1.5,8.2,1.3,10C133.7,371.8,133.2,370.4,134,368.3
		z M137.2,358.9c0.1-1.6,0.1-2.9-1.3-2.6c-1.2,0.3-1.3,7.7-0.8,9.9c0.3,0.5,0.6,1,1.3,1.2c1.7,0.3,1.2-2.3,1.2-3.9
		C137.5,362.3,137.2,360.4,137.2,358.9z M23.5,355.6c-3.2,0.2-2.6,8.3,0.2,8.9c2.3,0.5,1.4-1.6,1.2-2.7
		C24.5,359.3,26.3,355.4,23.5,355.6z M37.2,356c-1.2,0.6,0.4,3.4,0.4,5c0,1.8-2,4.4,0.8,4.7c3.1,0.4,3.5-5.6,2-8.1
		C40,357,38.2,355.5,37.2,356z M19.9,360.4c-3.6,5.3,1.8,11.6,4.6,11.9c-2.2-2.8-1.8-4.3-2.5-6.2C20.6,365,20,362.5,19.9,360.4z
		 M27.2,355.8c-1.5,1.3-1.4,9.1,1.5,9.5c0.6,0.1,1.5-0.3,1.8-1.6c0.4-2.1,0.1-7.9-0.5-8.3C29.6,355.1,27.7,355.2,27.2,355.8z
		 M33.9,355.7c-2.3-0.4-3.5,9.1-0.8,9.7c2.5,0.6,2.7-4.2,2.2-7C35.1,357.4,34.5,355.8,33.9,355.7z M163.6,360.5
		c13.6-2.8,28.2-3,41.9-1.1c9.9,1.4,20.1,2.2,31.6,1.9c0.2,0.2,0.3,0.2,0.4,0.2c0.5,0,1,0,1.6,0c0,0,0,0,0-0.1
		c0.3-0.6,0-1.8,0.1-2.6c-1,0-1.9,0-2.5,0c-7.9,0.2-15.9-0.4-22.5-1.2c-4.5-0.5-9.4-0.8-14.4-1.3c-4.9-0.4-10.3-1.1-14.6-1.1
		c-9.8-0.1-18.6,3-27,3.7c-2.1,0.2-4.8-0.4-4.2,1.6C154.6,362.6,161.9,360.8,163.6,360.5z M246.4,357.4c-0.6-0.3-1.7,0.7-1.9,1.3
		c-0.5,1.8,0.2,8.7,1.2,9c2.2,0.7,1.6-3.7,1.4-6.4C247,359.8,247.1,357.8,246.4,357.4z M249.8,357.1c-0.9-0.1-1.5,1-1.7,1.7
		c-0.2,0.9,0.1,3.4,0.3,5.1c0.3,1.6,0,3.3,1.4,3.5c0.9,0.2,1.2-0.2,1.4-1.3C251.7,363.4,251.2,357.3,249.8,357.1z M253.2,358.2
		c-1.1,0-0.8,1.2-0.7,2.2c0.2,2.8-0.6,6.7,1.1,7.2c2.4,0.7,2.5-2.2,2.1-4.2C255.4,361.8,254.1,358.2,253.2,358.2z M144.2,356.7
		c-0.9-0.1-1.5,1-1.7,1.7c-0.2,0.9,0.1,3.4,0.3,5.1c0.2,1.5,0,3.3,1.4,3.5c0.9,0.2,1.2-0.2,1.4-1.3
		C146.1,363,145.6,356.9,144.2,356.7z M242.9,359.3c0.1-1.6,0.1-2.9-1.3-2.6c-1.2,0.3-1.3,7.7-0.8,9.9c0.2,0.5,0.6,1.1,1.3,1.2
		c1.7,0.3,1.2-2.3,1.2-3.9C243.2,362.7,242.9,360.8,242.9,359.3z M269.4,361.1c13.6-2.8,28.2-3,41.9-1.1c9.9,1.4,20.1,2.2,31.6,1.9
		c0,0.1,0.1,0.1,0.3,0.1c0.8,0,1.9,0.1,3,0c-0.2-0.2-0.3-0.4-0.4-0.7c-0.2-0.7-0.4-1.3-0.5-1.9c-1.1-0.1-2.2,0-2.8,0
		c-7.9,0.2-15.9-0.4-22.5-1.2c-4.5-0.5-9.4-0.8-14.4-1.3c-4.9-0.4-10.3-1.1-14.6-1.1c-9.8-0.1-18.6,3-27,3.7
		c-2.1,0.2-4.8-0.4-4.2,1.6C260.4,363.2,267.7,361.4,269.4,361.1z M147.6,357.8c-1.1,0-0.8,1.2-0.7,2.2c0.2,2.8-0.6,6.7,1.1,7.2
		c2.4,0.7,2.5-2.2,2.1-4.2C149.8,361.4,148.5,357.8,147.6,357.8z M254,351.9c1.7,2.6,1.2,7.1,3.5,9.2
		C260.5,357.8,257.6,353.1,254,351.9z M239.7,368.7c0-1.4-1.2-3.1-0.8-5.1c-3.4,1.7-1.5,8.2,1.3,10
		C239.4,372.2,238.9,370.8,239.7,368.7z M221.2,363.2c-7.6,0.2-15.9,0.3-23.6,0.3c-7.3-0.1-15.3-0.8-22.8-0.7
		c-3.8,0-8.4,0.1-12.6,0.2c-3.3,0-8.6-0.7-9.7,2.2c11.7,0.8,23.3,0,34.7,0.6c15.6,1,30.4,0.1,46.5-0.6c0.6,0,1.2,0,1.7,0
		c0.2-0.8,0.6-1.6,1.2-2.2c0.1-0.1,0.3-0.2,0.4-0.3C231.9,362.6,226.1,363,221.2,363.2z M148.4,351.5c1.6,2.6,1.2,7.1,3.5,9.2
		C154.9,357.4,152,352.7,148.4,351.5z"/>
</g>
</svg>
