<?xml version="1.0" encoding="utf-8"?>
<!-- Generator: Adobe Illustrator 21.1.0, SVG Export Plug-In . SVG Version: 6.00 Build 0)  -->
<svg version="1.1" id="Layer_1" xmlns="http://www.w3.org/2000/svg" xmlns:xlink="http://www.w3.org/1999/xlink" x="0px" y="0px"
	 viewBox="0 0 612 792" enable-background="new 0 0 612 792" xml:space="preserve">
<g>
	<path fill="#C7B782" d="M45.1,386.7c-3.8,2.7-6.2,7.3-10.1,9.9c0.1-1.2-0.1-2.3,0.4-3.7c1.8-5.1,10.6-12.1,16.8-14.9
		c5.1-2.3,12.1-4.7,17.6-3.4C61,377.7,52.8,380.3,45.1,386.7z M135.1,402.5c0.1,1,1.2,0.8,2,0.6c7-4.9,11.6-3.8,15.6-7.5
		C146,395.9,138.7,396.9,135.1,402.5z M135.1,413.4c3.6-0.1,4.9-2.7,7.6-4.1c7.2-3.6,15-5.1,22.5-8.2
		C152,400.8,139.3,404.1,135.1,413.4z M145.6,389.7c-4.8-0.8-11.6,0.5-12.1,4.8C137.5,391.5,146,391.5,145.6,389.7z M115.5,362.3
		c4.3-1.9,9.2-6.5,14-9.3C123.9,353.8,117.1,356.7,115.5,362.3z M592.9,398.9c-1.4,1.4-4.2,1.6-7.2,1.5c-7,7.5-12.6,14.1-17.6,22.7
		c-3.8,6.6-10.8,19.4-10.3,29.1c0.2,3.3,2.7,7,2.4,10.4c-0.5,5.8-10.5,15.9-14,18.6c-19.8,15.6-58.3,5.5-77.8-4.8
		c-7.5-4-14.3-8.8-19.6-14.9c-4.5-5.1-11.8-15.9-11.2-22.4c0.1-6.8,7.4-11.2,9.2-16.8c-64.3-20.7-218.7-20.7-283.7,0
		c1.8,5.6,9.1,10,9.2,16.8c0.6,6.5-6.8,17.3-11.2,22.4c-5.3,6.1-12.1,10.9-19.6,14.9c-19.5,10.4-58,20.5-77.8,4.8
		c-3.5-2.7-13.5-12.9-14-18.6c-0.3-3.5,2.3-7.1,2.4-10.4c0.4-9.7-6.5-22.5-10.3-29.1c-5-8.6-10.6-15.2-17.6-22.7
		c-3,0.1-5.8,0-7.2-1.5c-1.3-6.7,8.1-30.1,37.3-39.9c5.4-1.8,24.1-5,26.5,0c0.8,2.3-1.3,5.6-2.1,7.1c1.7,7.3,6.3,14.9,9.2,21.6
		c6.6-0.7,11.3-1.9,16-4.8c3.4-2.1,9.5-6.9,9.6-10.1c-1.9-5.6-7-14.5-10.4-17.5c-2.6-2.5-7.2-3.8-7.6-6.7
		c0.6-19.3,62.2-33.2,71.9-35c86.1-16.1,188.5-16.1,274.6,0c9.7,1.8,71.2,15.6,71.9,35c-0.4,2.9-5,4.2-7.6,6.7
		c-3.4,3.1-8.5,12-10.4,17.5c0.2,3.2,6.3,8,9.6,10.1c4.7,2.9,9.4,4.1,16,4.8c2.9-6.6,7.5-14.2,9.7-21.6c-0.8-1.5-2.9-4.8-2.1-7.1
		c2.4-5,21.1-1.8,26.5,0C584.8,368.8,594.2,392.2,592.9,398.9z M495.8,380.6c2.5,7,12.1,14.2,22.8,12.3c0.3-0.3,0.2-1,0.8-1.1
		C509.2,390.3,501.3,386.5,495.8,380.6z M488.9,428.3c2-3.3,7.3-3.3,11.6-4.8c4.1-6.5,8.6-12.6,12-19.8c-2.9-1.6-7.1-3.9-10.8-1.5
		c1.1,3.4,5.7,3.4,6.6,6.6c-4.8,2.1-8.7-2.6-12.4-4.1c-1,0.6-1.7,1.6-2.8,2.2c1.9,3.8,5.4,6.2,8,9.3c-5.4,0.9-8-4-12-5.6
		c-0.4,0.7-0.9,1.2-1.6,1.5c0.4,2.1,2.5,2.6,2.8,4.8c-1.8,0.7-3.6-0.8-5.6-1.1c-3.8,3.8-5.3,7.4-6.8,12.3c0.2,3.5,3.3,5.6,2.4,8.6
		c-0.5,1.9-8.2,6.1-11.2,6c-2.8-0.1-9.1-6-10,0.4c-0.3,2.3,2.9,6.7,4.4,8.2c6.3,6.3,20.9,14.1,30.9,15.7c0.5-3.4-4.3-3.2-6.4-4.1
		c-6.6-2.8-15.6-7.7-20.8-12.3c-1.6-1.3-3.7-3.8-3.2-6.3c8.8,5.5,19.4,12.6,32.1,15.7c-3.2-9.3-18-7.8-20.8-17.5
		c5.2,1.1,9.7,6.1,16.8,6.7C488.7,445.9,485.4,434.2,488.9,428.3z M462,455.2c6.2,11.7,21.5,18,40.1,19.4c0.1-0.5-0.1-0.7-0.4-0.8
		C485,470.9,473,463.5,462,455.2z M108.1,416.2c2.6-3.1,6.1-5.5,8-9.3c-1.1-0.6-1.8-1.6-2.8-2.2c-3.7,1.5-7.6,6.2-12.4,4.1
		c0.9-3.2,5.5-3.2,6.6-6.6c-3.7-2.4-7.9-0.1-10.8,1.5c3.4,7.2,7.9,13.3,12,19.8c4.3,1.5,9.6,1.5,11.6,4.8c3.5,5.9,0.2,17.6-3.2,20.9
		c7.1-0.6,11.6-5.6,16.8-6.7c-2.8,9.7-17.6,8.2-20.8,17.5c12.7-3.1,23.3-10.2,32.1-15.7c0.5,2.5-1.6,5-3.2,6.3
		c-5.2,4.6-14.2,9.5-20.8,12.3c-2.1,0.9-6.9,0.7-6.4,4.1c10-1.6,24.6-9.4,30.9-15.7c1.5-1.5,4.7-5.9,4.4-8.2
		c-0.9-6.4-7.2-0.5-10-0.4c-3,0.1-10.7-4.1-11.2-6c-0.9-3,2.2-5.1,2.4-8.6c-1.5-4.9-3-8.5-6.8-12.3c-2,0.3-3.8,1.8-5.6,1.1
		c0.3-2.2,2.4-2.7,2.8-4.8c-0.7-0.3-1.2-0.8-1.6-1.5C116.1,412.2,113.5,417.1,108.1,416.2z M107.5,473.8c-0.4,0.1-0.5,0.3-0.4,0.8
		c18.6-1.4,33.9-7.7,40.1-19.4C136.2,463.5,124.2,470.9,107.5,473.8z M89.8,391.8c0.6,0.1,0.5,0.8,0.8,1.1
		c10.7,1.9,20.3-5.3,22.8-12.3C107.9,386.5,100,390.3,89.8,391.8z M587.3,396.3c0.3-8.5-6.3-16.4-11.6-21.3
		c-9.2-8.4-25.1-16.7-40.9-14.9c-0.3,2.2,0.9,3,1.6,4.1c16.9,1.7,29.3,8.9,37.7,20.5c-3.5-0.2-5.4-3.5-8-5.2
		c-8.1-5.3-17.5-10.7-31.3-11.2c-7.9,20.1-19.3,37-29.6,54.8c3.2,1.6,8.9,1,10.4,4.1c-10.5-0.6-26-2.7-24.4,9.7
		c0.5,17.4,26.2,32.5,44.9,31.3c3.8-0.2,9.4-7.8,8.4-11.2c-0.9-2.3-1.7,1.2-3.2,0.7c-5.4-10.4-17.1-14.9-31.3-17.2
		c0.1-2.5,4.1-1.4,6-2.2c-0.1-2.4-2.4-3.9-4.8-3.4c-1.8,0.4-6.9,8.2-6.8,10.1c0.1,4.9,12.3,10,16,12.3c1.7-1.6,4.3-4.1,4-6.3
		c-3.3-2.6-4,1.1-6.4,2.2c-3.9-2.3-8.1-4.4-10.8-7.8c1.5-0.9,4.1-1,6.4-0.7c5.9,0.6,17.8,6.2,21.6,10.1c1.8,1.8,3.9,6,3.6,7.5
		c-1,5.5-13.8,2.1-16.8-0.4c2.4-0.5,6.9,0.3,10.4,0c-1.6-2.2-4.3-3.4-7.2-4.5c-1.9,0.1-1.3,2.5-3.2,2.6c-4.8-1.1-7.5-4.2-12-5.6
		c-0.2,3.2,3,3.2,3.6,5.6c-5.7-2.3-11.7-6.5-15.2-11.6c-1.8-2.6-5.5-9-4.4-13.1c0.9-3.1,6.5-4.1,12.4-3.7
		c17.4,1,31.3,10.2,38.9,21.3c2.2,3.2,5.1,7.9,4.4,11.6c-0.7,3.6-9.3,11.2-13.2,13.1c-7.6,3.7-18.7,3.9-29.7,2.6
		c-17-2-36-10.4-47.3-20.1c-6.4-5.5-13.5-13.6-13.2-22.9c2.5-2.9,7.5-3.3,13.2-2.1c3.5,0.8,6.4,3.9,8.8,4.1c3,0.2,6.1-1.5,8-3.4
		c-5.5-20.8-30.9-26-55.5-30.2c3.9-2.2,13.1-0.6,21,0.8c13.2,2.5,26,7.9,32.5,14.6c5.2-22.7,12.9-43.7,23.6-61.3
		c-4-6.6-11.3-10.1-18-14.2c5.7-1.1,10.6,2.7,14.4,5.2c1.7,1.1,5.1,5.1,6.4,4.5c4.9-2.4-7.3-10.4-9.2-11.6
		c-5.4-3.3-10.8-4.8-15.6-7.5c6-0.9,17.4,4.3,24,8.9c1.8,1.3,4.5,4.8,6,4.8c1,0.1,3.5-1.7,3.6-2.2c0.4-1.8-3.7-6.2-5-7.4
		c-13.7-11.9-41.4-20-69.5-25.1c-79.7-14.5-181.5-14.6-261.3,0c-28.2,5.1-55.9,13.2-69.5,25.1c-1.3,1.2-5.4,5.6-5,7.4
		c0.1,0.5,2.6,2.3,3.6,2.2c1.5-0.1,4.2-3.6,6-4.8c6.6-4.6,18-9.8,24-8.9c-4.9,2.7-10.2,4.2-15.6,7.5c-1.9,1.1-14.1,9.2-9.2,11.6
		c1.3,0.6,4.7-3.3,6.4-4.5c3.8-2.6,8.7-6.3,14.4-5.2c-6.7,4.1-14,7.6-18,14.2c10.7,17.6,18.4,38.5,23.6,61.3
		c6.5-6.8,19.3-12.1,32.5-14.6c7.9-1.4,17.1-2.9,21-0.8c-24.6,4.2-50,9.4-55.5,30.2c1.9,1.9,5,3.6,8,3.4c2.4-0.2,5.3-3.3,8.8-4.1
		c5.7-1.3,10.7-0.9,13.2,2.1c0.3,9.3-6.8,17.4-13.2,22.9c-11.3,9.7-30.2,18.2-47.3,20.1c-11,1.3-22,1-29.7-2.6
		c-3.9-1.9-12.5-9.5-13.2-13.1c-0.7-3.6,2.2-8.3,4.4-11.6c7.5-11.1,21.5-20.3,38.9-21.3c5.9-0.3,11.6,0.7,12.4,3.7
		c1.1,4.1-2.6,10.5-4.4,13.1c-3.6,5-9.5,9.2-15.2,11.6c0.6-2.4,3.9-2.4,3.6-5.6c-4.6,1.4-7.2,4.5-12,5.6c-1.9-0.1-1.3-2.5-3.2-2.6
		c-2.9,1-5.6,2.2-7.2,4.5c3.6,0.3,8-0.5,10.4,0c-3,2.5-15.8,5.9-16.8,0.4c-0.3-1.4,1.8-5.7,3.6-7.5c3.8-3.9,15.8-9.5,21.6-10.1
		c2.4-0.2,4.9-0.2,6.4,0.7c-2.7,3.4-6.9,5.5-10.8,7.8c-2.4-1.1-3.1-4.9-6.4-2.2c-0.3,2.2,2.3,4.8,4,6.3c3.8-2.4,15.9-7.4,16-12.3
		c0-1.9-5-9.6-6.8-10.1c-2.4-0.6-4.7,0.9-4.8,3.4c1.9,0.9,5.9-0.3,6,2.2c-14.2,2.2-25.8,6.8-31.3,17.2c-1.5,0.5-2.3-3-3.2-0.7
		c-1,3.4,4.6,11,8.4,11.2c18.6,1.2,44.3-14,44.9-31.3c1.5-12.4-14-10.2-24.4-9.7c1.6-3.1,7.2-2.5,10.4-4.1
		c-10.4-17.8-21.7-34.7-29.7-54.8c-13.7,0.5-23.2,5.9-31.3,11.2c-2.6,1.7-4.5,5-8,5.2c8.3-11.6,20.7-18.8,37.7-20.5
		c0.7-1.1,1.9-1.9,1.6-4.1c-15.8-1.8-31.6,6.5-40.9,14.9c-4.9,4.9-11.4,12.8-11.2,21.3c3.1,0.5,3.3-3.2,6-1.9
		c-0.5,1.1-0.5,2.6,0,3.7c10.6,11.2,20.1,23.5,25.6,39.5c2.5-1,3.7-3.6,5.6-5.2c8.3-7,18.5-13.2,31.7-14.2c-7.7,4-17,7-23.6,12.3
		c-4.8,3.8-11,8.8-10.8,16c5-5.4,10.9-10.1,17.2-14.2c3.6-2.4,7.9-5.4,12.4-4.5c-6.2,4.4-15,8.3-20.8,14.2c-2.5,2.5-5.8,6-7.2,8.9
		c-1.1,2.4-3.5,9.7-3.2,11.9c0.4,4,6.3,10.1,10,13.4c11.4,10.1,31.5,9.7,48.9,5.2c7.9-2,14.7-3.7,21.2-7.5c6.2-3.6,12.4-7,17.2-11.2
		c9-7.7,21.5-23.6,10-32.4c-6.2-0.9-12-1.3-16.6,1.2c-2.6,1.4-3.6,3.8-6.3,4.7c0-8.4,10.3-12.5,18.4-16
		c63.4-24.4,230.7-23.7,294.1,0c8.2,3.5,18.4,7.7,18.4,16c-2.6-1-3.7-3.3-6.3-4.7c-4.6-2.5-10.3-2.1-16.5-1.2
		c-11.4,8.9,1,24.7,10,32.4c4.8,4.2,11,7.6,17.2,11.2c6.6,3.7,13.3,5.4,21.2,7.5c17.4,4.5,37.4,4.8,48.9-5.2
		c3.8-3.3,9.6-9.4,10-13.4c0.2-2.3-2.1-9.5-3.2-11.9c-1.4-2.9-4.7-6.5-7.2-8.9c-5.9-5.9-14.6-9.8-20.8-14.2c4.6-1,8.8,2.1,12.4,4.5
		c6.3,4.1,12.2,8.8,17.2,14.2c0.2-7.2-6-12.2-10.8-16c-6.7-5.4-16-8.3-23.6-12.3c13.2,1,23.4,7.1,31.7,14.2c2,1.7,3.1,4.2,5.6,5.2
		c5.5-16,15-28.3,25.6-39.5c0.5-1.1,0.5-2.6,0-3.7C584,393,584.2,396.8,587.3,396.3z M53.4,432.8c3.3-1,4.3-4.1,6.8-6
		c6.8-5.7,14.4-9.1,22-12.6C68.8,415.3,57.3,421.5,53.4,432.8z M195.5,403c0,2.2,28.2-0.9,31.8-1.1c6.1-0.4,17.7-0.6,18.2-2.7
		C229.3,399,207.6,400.3,195.5,403z M74.6,410c-9.8-0.1-16.5,4.8-18,11.2C62,417,68.1,413.4,74.6,410z M64.7,382.9
		c-10.1-0.2-17.6,6.4-21.7,13c3.7-1.5,5.7-4.6,10.8-6.7C57.3,387.2,62.3,386.2,64.7,382.9z M48.6,418.7c7.1-8,17.1-13.2,28.4-17.2
		C62.4,400.9,52.6,408.1,48.6,418.7z"/>
	<path fill="#F1E57F" d="M89.8,391.8c10.2-1.5,18.1-5.3,23.6-11.2c-2.5,7-12.1,14.2-22.8,12.3C90.3,392.6,90.4,391.9,89.8,391.8z
		 M107.1,474.6c18.6-1.4,33.9-7.7,40.1-19.4c-11,8.3-23,15.7-39.7,18.6C107.1,473.9,107,474.1,107.1,474.6z M587.3,396.3
		c-3.1,0.5-3.3-3.3-6-1.9c0.5,1.1,0.5,2.6,0,3.7c-10.6,11.2-20.1,23.5-25.6,39.5c-2.5-1-3.6-3.5-5.6-5.2
		c-8.3-7.1-18.5-13.2-31.7-14.2c7.6,4,16.9,6.9,23.6,12.3c4.8,3.8,11,8.8,10.8,16c-5-5.4-10.9-10.1-17.2-14.2
		c-3.6-2.4-7.8-5.5-12.4-4.5c6.2,4.4,14.9,8.3,20.8,14.2c2.5,2.4,5.8,6,7.2,8.9c1.1,2.4,3.4,9.6,3.2,11.9c-0.4,4-6.2,10.1-10,13.4
		c-11.5,10-31.5,9.7-48.9,5.2c-7.9-2.1-14.6-3.8-21.2-7.5c-6.2-3.6-12.4-7-17.2-11.2c-9-7.7-21.4-23.5-10-32.4
		c6.2-0.9,11.9-1.3,16.5,1.2c2.6,1.4,3.7,3.7,6.3,4.7c0-8.3-10.2-12.5-18.4-16c-63.4-23.7-230.7-24.4-294.1,0
		c-8.1,3.5-18.4,7.6-18.4,16c2.7-0.9,3.7-3.3,6.3-4.7c4.6-2.5,10.4-2.1,16.6-1.2c11.5,8.8-1,24.7-10,32.4c-4.8,4.2-11,7.6-17.2,11.2
		c-6.5,3.8-13.3,5.5-21.2,7.5c-17.4,4.5-37.5,4.9-48.9-5.2c-3.7-3.3-9.6-9.4-10-13.4c-0.3-2.2,2.1-9.5,3.2-11.9
		c1.4-2.9,4.7-6.4,7.2-8.9c5.8-5.9,14.6-9.8,20.8-14.2c-4.5-0.9-8.8,2.1-12.4,4.5c-6.3,4.1-12.2,8.8-17.2,14.2
		c-0.2-7.2,6-12.2,10.8-16c6.6-5.3,15.9-8.3,23.6-12.3c-13.2,1-23.4,7.2-31.7,14.2c-1.9,1.6-3.1,4.2-5.6,5.2
		c-5.5-16-15-28.3-25.6-39.5c-0.5-1.1-0.5-2.6,0-3.7c-2.7-1.3-2.9,2.4-6,1.9c-0.2-8.5,6.3-16.4,11.2-21.3
		c9.3-8.4,25.1-16.7,40.9-14.9c0.3,2.2-0.9,3-1.6,4.1c-17,1.7-29.4,8.9-37.7,20.5c3.5-0.2,5.4-3.5,8-5.2
		c8.1-5.3,17.6-10.7,31.3-11.2c8,20.1,19.3,37,29.7,54.8c-3.2,1.6-8.8,1-10.4,4.1c10.4-0.5,25.9-2.7,24.4,9.7
		c-0.6,17.3-26.3,32.5-44.9,31.3c-3.8-0.2-9.4-7.8-8.4-11.2c0.9-2.3,1.7,1.2,3.2,0.7c5.5-10.4,17.1-15,31.3-17.2
		c-0.1-2.5-4.1-1.3-6-2.2c0.1-2.5,2.4-4,4.8-3.4c1.8,0.5,6.8,8.2,6.8,10.1c-0.1,4.9-12.2,9.9-16,12.3c-1.7-1.5-4.3-4.1-4-6.3
		c3.3-2.7,4,1.1,6.4,2.2c3.9-2.3,8.1-4.4,10.8-7.8c-1.5-0.9-4-0.9-6.4-0.7c-5.8,0.6-17.8,6.2-21.6,10.1c-1.8,1.8-3.9,6.1-3.6,7.5
		c1,5.5,13.8,2.1,16.8-0.4c-2.4-0.5-6.8,0.3-10.4,0c1.6-2.3,4.3-3.5,7.2-4.5c1.9,0.1,1.3,2.5,3.2,2.6c4.8-1.1,7.4-4.2,12-5.6
		c0.3,3.2-3,3.2-3.6,5.6c5.7-2.4,11.6-6.6,15.2-11.6c1.8-2.6,5.5-9,4.4-13.1c-0.8-3-6.5-4-12.4-3.7c-17.4,1-31.4,10.2-38.9,21.3
		c-2.2,3.3-5.1,8-4.4,11.6c0.7,3.6,9.3,11.2,13.2,13.1c7.7,3.6,18.7,3.9,29.7,2.6c17.1-1.9,36-10.4,47.3-20.1
		c6.4-5.5,13.5-13.6,13.2-22.9c-2.5-3-7.5-3.4-13.2-2.1c-3.5,0.8-6.4,3.9-8.8,4.1c-3,0.2-6.1-1.5-8-3.4c5.5-20.8,30.9-26,55.5-30.2
		c-3.9-2.1-13.1-0.6-21,0.8c-13.2,2.5-26,7.8-32.5,14.6c-5.2-22.8-12.9-43.7-23.6-61.3c4-6.6,11.3-10.1,18-14.2
		c-5.7-1.1-10.6,2.6-14.4,5.2c-1.7,1.2-5.1,5.1-6.4,4.5c-4.9-2.4,7.3-10.5,9.2-11.6c5.4-3.3,10.7-4.8,15.6-7.5
		c-6-0.9-17.4,4.3-24,8.9c-1.8,1.2-4.5,4.7-6,4.8c-1,0.1-3.5-1.7-3.6-2.2c-0.4-1.8,3.7-6.2,5-7.4c13.6-11.9,41.3-20,69.5-25.1
		c79.8-14.6,181.6-14.5,261.3,0c28.1,5.1,55.8,13.2,69.5,25.1c1.3,1.2,5.4,5.6,5,7.4c-0.1,0.5-2.6,2.3-3.6,2.2c-1.5,0-4.2-3.5-6-4.8
		c-6.6-4.6-18-9.8-24-8.9c4.8,2.7,10.2,4.2,15.6,7.5c1.9,1.2,14.1,9.2,9.2,11.6c-1.3,0.6-4.7-3.4-6.4-4.5c-3.8-2.5-8.7-6.3-14.4-5.2
		c6.7,4.1,14,7.6,18,14.2c-10.7,17.6-18.4,38.6-23.6,61.3c-6.5-6.7-19.3-12.1-32.5-14.6c-7.9-1.4-17.1-3-21-0.8
		c24.6,4.2,50,9.4,55.5,30.2c-1.9,1.9-5,3.6-8,3.4c-2.4-0.2-5.3-3.3-8.8-4.1c-5.7-1.2-10.7-0.8-13.2,2.1
		c-0.3,9.3,6.8,17.4,13.2,22.9c11.3,9.7,30.3,18.1,47.3,20.1c11,1.3,22.1,1.1,29.7-2.6c3.9-1.9,12.5-9.5,13.2-13.1
		c0.7-3.7-2.2-8.4-4.4-11.6c-7.6-11.1-21.5-20.3-38.9-21.3c-5.9-0.4-11.5,0.6-12.4,3.7c-1.1,4.1,2.6,10.5,4.4,13.1
		c3.5,5.1,9.5,9.3,15.2,11.6c-0.6-2.4-3.8-2.4-3.6-5.6c4.5,1.4,7.2,4.5,12,5.6c1.9-0.1,1.3-2.5,3.2-2.6c2.9,1.1,5.6,2.3,7.2,4.5
		c-3.5,0.3-8-0.5-10.4,0c3,2.5,15.8,5.9,16.8,0.4c0.3-1.5-1.8-5.7-3.6-7.5c-3.8-3.9-15.7-9.5-21.6-10.1c-2.3-0.3-4.9-0.2-6.4,0.7
		c2.7,3.4,6.9,5.5,10.8,7.8c2.4-1.1,3.1-4.8,6.4-2.2c0.3,2.2-2.3,4.7-4,6.3c-3.7-2.3-15.9-7.4-16-12.3c-0.1-1.9,5-9.7,6.8-10.1
		c2.4-0.5,4.7,1,4.8,3.4c-1.9,0.8-5.9-0.3-6,2.2c14.2,2.3,25.9,6.8,31.3,17.2c1.5,0.5,2.3-3,3.2-0.7c1,3.4-4.6,11-8.4,11.2
		c-18.7,1.2-44.4-13.9-44.9-31.3c-1.6-12.4,13.9-10.3,24.4-9.7c-1.5-3.1-7.2-2.5-10.4-4.1c10.3-17.8,21.7-34.7,29.6-54.8
		c13.8,0.5,23.2,5.9,31.3,11.2c2.6,1.7,4.5,5,8,5.2c-8.4-11.6-20.8-18.8-37.7-20.5c-0.7-1.1-1.9-1.9-1.6-4.1
		c15.8-1.8,31.7,6.5,40.9,14.9C581,379.9,587.6,387.8,587.3,396.3z M129.5,353c-5.6,0.8-12.4,3.7-14,9.3
		C119.8,360.4,124.7,355.8,129.5,353z M145.6,389.7c-4.8-0.8-11.6,0.5-12.1,4.8C137.5,391.5,146,391.5,145.6,389.7z M135.1,402.5
		c0.1,1,1.2,0.8,2,0.6c7-4.9,11.6-3.8,15.6-7.5C146,395.9,138.7,396.9,135.1,402.5z M165.2,401.1c-13.2-0.3-25.9,3-30.1,12.3
		c3.6-0.1,4.9-2.7,7.6-4.1C149.9,405.7,157.7,404.2,165.2,401.1z M45.1,386.7c7.7-6.4,15.9-9,24.7-12.1c-5.5-1.3-12.5,1.1-17.6,3.4
		c-6.2,2.8-15,9.8-16.8,14.9c-0.5,1.4-0.3,2.5-0.4,3.7C38.9,394,41.3,389.4,45.1,386.7z M43,395.9c3.7-1.5,5.7-4.6,10.8-6.7
		c3.5-2,8.5-3,10.9-6.3C54.6,382.7,47.1,389.3,43,395.9z M77,401.5c-14.6-0.6-24.4,6.6-28.4,17.2C55.7,410.7,65.7,405.5,77,401.5z
		 M56.6,421.2c5.4-4.2,11.5-7.8,18-11.2C64.8,409.9,58.1,414.8,56.6,421.2z M82.2,414.2c-13.4,1.1-24.9,7.3-28.8,18.6
		c3.3-1,4.3-4.1,6.8-6C67,421.1,74.6,417.7,82.2,414.2z M245.5,399.2c-16.2-0.2-37.9,1.1-50,3.8c0,2.2,28.2-0.9,31.8-1.1
		C233.4,401.5,245,401.3,245.5,399.2z M518.6,392.9c0.3-0.3,0.2-1,0.8-1.1c-10.2-1.5-18.1-5.3-23.6-11.2
		C498.3,387.6,507.9,394.8,518.6,392.9z M116.1,406.9c-1.1-0.6-1.8-1.6-2.8-2.2c-3.7,1.5-7.6,6.2-12.4,4.1c0.9-3.2,5.5-3.2,6.6-6.6
		c-3.7-2.4-7.9-0.1-10.8,1.5c3.4,7.2,7.9,13.3,12,19.8c4.3,1.5,9.6,1.5,11.6,4.8c3.5,5.9,0.2,17.6-3.2,20.9
		c7.1-0.6,11.6-5.6,16.8-6.7c-2.8,9.7-17.6,8.2-20.8,17.5c12.7-3.1,23.3-10.2,32.1-15.7c0.5,2.5-1.6,5-3.2,6.3
		c-5.2,4.6-14.2,9.5-20.8,12.3c-2.1,0.9-6.9,0.7-6.4,4.1c10-1.6,24.6-9.4,30.9-15.7c1.5-1.5,4.7-5.9,4.4-8.2
		c-0.9-6.4-7.2-0.5-10-0.4c-3,0.1-10.7-4.1-11.2-6c-0.9-3,2.2-5.1,2.4-8.6c-1.5-4.9-3-8.5-6.8-12.3c-2,0.3-3.8,1.8-5.6,1.1
		c0.3-2.2,2.4-2.7,2.8-4.8c-0.7-0.3-1.2-0.8-1.6-1.5c-4,1.6-6.6,6.5-12,5.6C110.7,413.1,114.2,410.7,116.1,406.9z M500.5,423.5
		c4.1-6.5,8.6-12.6,12-19.8c-2.9-1.6-7.1-3.9-10.8-1.5c1.1,3.4,5.7,3.4,6.6,6.6c-4.8,2.1-8.7-2.6-12.4-4.1c-1,0.6-1.7,1.6-2.8,2.2
		c1.9,3.8,5.4,6.2,8,9.3c-5.4,0.9-8-4-12-5.6c-0.4,0.7-0.9,1.2-1.6,1.5c0.4,2.1,2.5,2.6,2.8,4.8c-1.8,0.7-3.6-0.8-5.6-1.1
		c-3.8,3.8-5.3,7.4-6.8,12.3c0.2,3.5,3.3,5.6,2.4,8.6c-0.5,1.9-8.2,6.1-11.2,6c-2.8-0.1-9.1-6-10,0.4c-0.3,2.3,2.9,6.7,4.4,8.2
		c6.3,6.3,20.9,14.1,30.9,15.7c0.5-3.4-4.3-3.2-6.4-4.1c-6.6-2.8-15.6-7.7-20.8-12.3c-1.6-1.3-3.7-3.8-3.2-6.3
		c8.8,5.5,19.4,12.6,32.1,15.7c-3.2-9.3-18-7.8-20.8-17.5c5.2,1.1,9.7,6.1,16.8,6.7c-3.4-3.3-6.7-15-3.2-20.9
		C490.9,425,496.2,425,500.5,423.5z M502.1,474.6c0.1-0.5-0.1-0.7-0.4-0.8c-16.7-2.9-28.7-10.3-39.7-18.6
		C468.2,466.9,483.5,473.2,502.1,474.6z"/>
</g>
</svg>
