<?xml version="1.0" encoding="utf-8"?>
<!-- Generator: Adobe Illustrator 21.1.0, SVG Export Plug-In . SVG Version: 6.00 Build 0)  -->
<svg version="1.1" id="Layer_1" xmlns="http://www.w3.org/2000/svg" xmlns:xlink="http://www.w3.org/1999/xlink" x="0px" y="0px"
	 viewBox="0 0 612 792" enable-background="new 0 0 612 792" xml:space="preserve">
<g>
	<path fill="#131313" d="M575.3,294.8c-58.1-38.2-156.9-52.1-181.8-55.1l41.8-49.9h-39.8c6-13.7,27.8-63.7,27.8-63.7l-45.2-34.2
		l-4,4.8l-21.1,25.1h-2.6H167.7l-66.8,79.6h85.3C170.3,220.4,9.2,413,9.2,413l26.3-12.3c69.4-32.2,152.2-58.7,246.1-78.8
		c-21.1,49.5-45,105.6-45,105.6l94.1-112.6l6.4-1.4c66.2-13.9,162.3-16.9,233.7-7l28.6,4L575.3,294.8z M335.8,307.4l51.5-61.7
		c0,0,119.6,12.1,184.4,54.7c-72.8-10.1-168.7-7.2-235.9,7.2V307.4z M259.8,242.9l119.4-141.8l36.2,27.5l-29.8,68h35.8L259.6,390.1
		l62.5-147h-62.5L259.8,242.9z M350.6,128.3l-99.9,118.8l0,0h65.2c-2,4.6-14.5,34-28.4,67c-89.5,18.7-176.8,44.8-254.6,80.8
		l167.3-200.1h-85.3l56.1-66.6c59.9,0,119.9,0,179.8,0L350.6,128.3z M440.3,230.6h1c1.2,0,2-0.4,2-1.4c0-0.8-0.6-1.4-2-1.4
		c-0.6,0-1,0-1.2,0.2v2.6H440.3z M440.3,235.6h-2v-9c0.8-0.2,2-0.2,3.4-0.2c1.8,0,2.4,0.2,3,0.8c0.6,0.4,1,1,1,2
		c0,1-0.8,1.8-1.8,2.2v0.2c0.8,0.2,1.4,1,1.6,2.2c0.2,1.4,0.4,1.8,0.6,2.2h-2.2c-0.2-0.4-0.4-1-0.8-2.2c-0.2-1-0.8-1.4-1.8-1.4h-1
		v3.6V235.6z M441.7,223.8c-4,0-7,3.2-7,7.2c0,4,3,7.2,7,7.2c4,0,6.8-3.2,6.8-7.2c0-4-3-7.2-7-7.2l0,0H441.7z M441.9,222
		c5.2,0,9.2,4,9.2,9c0,5-4,9-9.2,9s-9.2-4-9.2-9C432.7,226,436.9,222,441.9,222L441.9,222z"/>
</g>
<path fill="#E51E25" d="M387.4,245.5l-51.5,61.7c67.4-14.3,163.1-17.1,235.9-7.2c-64.8-42.6-184.4-54.7-184.4-54.7V245.5z
	 M357.5,294.6l33.4-40c17.3,2.2,82.2,11.1,136.1,32.6C470.9,283.7,408.8,286.3,357.5,294.6z M278.1,234.2l102.2-121.5
	c7.2,5.4,18.1,13.7,24.5,18.3c-4.6,10.1-32.2,73.8-32.2,73.8h30.6c-15.1,18.1-72.8,87.1-112.8,135.1c18.5-43.4,45-105.6,45-105.6
	h-57.1H278.1z M133.1,186.2l41.6-49.5h157.3l-99.9,118.8l0,0h70.6c-2.6,6-10.9,25.7-21.7,50.9c-76,16.1-150.2,37.4-218.6,65.8
	C97.1,330.8,218.3,186,218.3,186h-85.3L133.1,186.2z M421.6,196.2h-35.8l29.8-68l-36.2-27.5L260,242.5h62.5l-62.5,147L421.8,196
	L421.6,196.2z M287.5,314.1c14.1-33,26.7-62.5,28.4-67h-65.2l0,0l99.9-118.8h-18.3H170.7L114.6,195H200L32.7,395.1
	c77.6-36,164.9-62.1,254.6-80.8L287.5,314.1z"/>
<path fill="#EEEEEE" d="M357.5,294.6L357.5,294.6l36.4-24.3c0,0,80.8,6.6,133.3,16.9l-2.6-0.2l2.6,0.2
	c-53.9-21.5-118.8-30.4-136.1-32.6c-3.6,4.4-19.5,23.5-33.4,40H357.5z M335.2,234.2c0,0-26.5,62.3-45,105.6l0,0l77-123.1l35.8-11.7
	l0,0h-30.6l5-11.3l-5,11.3l-43.4,11.7l53.5-85.7h22.1l0,0c-6.2-4.6-17.3-12.9-24.5-18.3c-8.6,10.1-83.9,99.9-102.2,121.5l50.9-17.7
	h38.2l-32,17.7H335.2z M302.8,255.6h-70.6l0,0L145.7,306l127.5-151.6l58.9-17.7H174.7c-3.4,4-29.4,35-41.6,49.5l41.8-31.8h98.3
	l-54.9,31.8l0,0c0,0-121.1,144.8-155.8,186.2l82.4-65.8c0,0,66.8-23.1,121.7-31.6l36.2-19.5V255.6z M332.1,136.9L332.1,136.9
	L332.1,136.9L332.1,136.9z"/>
<path fill="#A2AAAF" d="M527.2,287.3c-56.1-3.6-118.2-1-169.5,7.4l36.4-24.3c0,0,81,6.6,133.3,16.9H527.2z M403.3,204.9l-35.8,11.7
	l-77,123.1l112.8-135.1V204.9z M372.6,204.9l-43.4,11.7l53.5-85.7h22.1l-32.2,73.8V204.9z M278.3,234.4l50.9-17.7h38.2l-32,17.7
	H278.3z M281.3,306.8c-76,16.1-150.2,37.4-218.6,65.8l82.4-65.8c0,0,66.8-23.1,121.7-31.6l36.2-19.5l-21.7,50.9V306.8z M332.3,136.9
	l-58.9,17.7L145.9,306.2l86.5-50.3l99.9-118.8V136.9z M133.1,186.4l41.8-31.8h98.3l-54.9,31.8h-85.3H133.1z M409.2,241.9l32.6-39.2
	h-17.3l-30.8,37C397.3,240.1,402.7,240.9,409.2,241.9z M407.8,189.8l22.1-50.5l-9.2-7l-25.3,57.5h12.1H407.8z M118.2,201.3
	l-10.9,12.9h68l10.9-12.9H118.2z M37.4,399.9l-21.9,26.1l26.3-12.3c66.2-30.8,144.4-56.3,232.9-76l6.8-15.9
	c-92.9,19.9-175.1,46-244.1,78V399.9z M261,398.3l-17.9,42.2l94.1-112.6l6.4-1.4c66.2-13.9,162.3-16.9,233.7-7l28.6,4l-23.3-15.3
	l-11.7-1.6c-71.4-9.9-167.7-7-233.7,7l-6.4,1.4l-69.6,83.3H261z"/>
</svg>
