<?xml version="1.0" encoding="utf-8"?>
<!-- Generator: Adobe Illustrator 21.1.0, SVG Export Plug-In . SVG Version: 6.00 Build 0)  -->
<svg version="1.1" id="Layer_1" xmlns="http://www.w3.org/2000/svg" xmlns:xlink="http://www.w3.org/1999/xlink" x="0px" y="0px"
	 viewBox="0 0 612 792" enable-background="new 0 0 612 792" xml:space="preserve">
<g>
	<path fill="#E51E25" d="M582.6,340.1c-58.8-38.5-158.4-52.6-183.4-55.6l42.1-50.4h-40.1c6-13.7,28-64.1,28-64.1l-45.7-34.5l-4,4.8
		l-21.2,25.2h-2.6H171.2l-67.5,80.2h86.2C173.8,264.8,11.2,459.2,11.2,459.2l26.6-12.3c70.1-32.6,153.7-59.4,248.4-79.6
		c-21.2,49.8-45.3,106.6-45.3,106.6l94.9-113.6l6.4-1.4c66.7-14.1,163.8-17.1,235.9-6.9l28.8,4l-24.4-15.9H582.6z M340.8,352.6
		l52-62.3c0,0,120.7,12.3,186,55.2c-73.5-10.1-170.1-7.3-238.2,7.1H340.8z M264.1,287.5l120.5-143.1l36.5,27.6l-30,68.5h36.1
		L264.1,435.8l63.1-148.3H264.1z M174.2,171.9h163h18.5L254.8,291.8l0,0h65.7c-2,4.6-14.7,34.3-28.8,67.7
		c-90.3,18.9-178.5,45.1-256.9,81.6l168.7-201.9h-86.2l56.6-67.3H174.2z M285.8,351.8c10.9-25.4,19.3-45.5,21.8-51.4h-71.3l0,0
		l100.9-119.9H178.4c-3.4,4-29.8,35.3-41.9,49.8h86c0,0-122.3,146.1-157,187.8c68.9-28.6,143.9-50.2,220.6-66.5L285.8,351.8z
		 M362.8,339.7c52-8.3,114.4-11.1,171.1-7.5c-54.4-21.6-119.9-30.8-137.4-33c-3.6,4.4-19.7,23.6-33.7,40.3V339.7z M282.8,278.7h57.6
		c0,0-26.8,62.7-45.3,106.4c40.3-48.2,98.5-117.9,113.8-136.2h-30.8c0,0,28-64.1,32.6-74.4c-6.2-4.8-17.3-13.1-24.6-18.5
		C377.3,166.4,301.3,256.9,282.8,278.7z M448.8,266.6h1.4c1.6,0,2.8-0.6,2.8-1.8c0-1-0.8-1.8-2.6-1.8c-0.8,0-1.2,0-1.6,0.2V266.6z
		 M448.8,273.2H446v-11.9c1-0.2,2.6-0.4,4.6-0.4c2.2,0,3.2,0.4,4,1c0.8,0.6,1.2,1.4,1.2,2.6c0,1.4-1,2.4-2.4,2.8v0.2
		c1.2,0.4,1.8,1.4,2.2,3c0.4,1.8,0.6,2.4,0.8,3h-3c-0.4-0.4-0.6-1.4-1-3c-0.2-1.2-1-1.8-2.4-1.8h-1.4v4.8L448.8,273.2z M450.5,257.7
		c-5.2,0-9.1,4.2-9.1,9.5c0,5.4,4,9.5,9.3,9.5c5.2,0,8.9-4.2,8.9-9.3c0-5.4-4-9.5-9.1-9.5l0,0V257.7z M450.7,255.3
		c6.7,0,12.1,5.2,12.1,11.9c0,6.6-5.4,11.9-12.1,11.9s-12.1-5.4-12.1-11.9C438.6,260.7,444,255.3,450.7,255.3L450.7,255.3z"/>
</g>
</svg>
