<?xml version="1.0" encoding="utf-8"?>
<!-- Generator: Adobe Illustrator 21.1.0, SVG Export Plug-In . SVG Version: 6.00 Build 0)  -->
<svg version="1.1" id="Layer_1" xmlns="http://www.w3.org/2000/svg" xmlns:xlink="http://www.w3.org/1999/xlink" x="0px" y="0px"
	 viewBox="0 0 500 500" enable-background="new 0 0 500 500" xml:space="preserve">
<g>
	<path fill="#131313" d="M43.6,279.9C43.6,279.9,43.6,279.9,43.6,279.9C43.6,279.9,43.5,279.9,43.6,279.9
		C43.5,279.9,43.6,279.9,43.6,279.9z M196.1,326.7c2.7-16.1-0.5-50.2,8-67.4c-9,10-9.4,37.8-13.2,57.5c-2-3.6-6.7-10.9-8.4-16.4
		c-1.1,0.5,7.2,20,8.4,22.2C192.2,321.3,194.4,315.9,196.1,326.7z M457.5,280C457.5,280,457.4,280,457.5,280
		C457.4,280,457.4,280,457.5,280C457.4,280,457.5,280,457.5,280z M237.4,324.4C237.4,324.4,237.4,324.4,237.4,324.4
		c-2.2,1.6-3.5,3.1-3.5,3.1c13.7-6.6,19.8-6.7,33.2-0.3c-0.1-0.1-0.1-0.1-0.2-0.2c-0.9-1.2-1.7-1.8-2.6-2.2c-2.1-1.6-5-3.3-8.3-4.1
		c0,0-3.2-3.9-2.9-6.9c0.3-2.9-0.1-4.5-0.1-4.5s0.1-0.1,0.2-0.3c0.2-0.3,1.6-1.8,5.5,0.9c4.2,2.9,17.4,9.7,17.4,9.7s7.4-5,10.2-10.3
		c2.7-5.3,4-10,4-10s-4.3,8.4-6.6,9.3c-2.3,1-5,2.2-5.5-2.2l-1.8,0.8c0,0-6.1-3.2-12-3.2l2,2.1l-6.5,1.9c-1.3-3.3-16.9-3.3-18.2,0
		l-6.5-1.9l2-2.1c-5.9,0-12,3.2-12,3.2l-1.8-0.8c-0.5,4.4-3.2,3.1-5.4,2.2c-2.2-1-6.6-9.3-6.6-9.3s1.2,4.7,4,10s10.2,10.3,10.2,10.3
		s13.1-6.8,17.4-9.7c4.2-2.9,5.5-0.8,5.5-0.8s-0.4,1.6-0.1,4.5c0.3,3-2.9,6.9-2.9,6.9c0,0,0,0-0.1,0c-0.1,0.1-0.1,0.2-0.1,0.2
		C242.2,321.4,239.5,323,237.4,324.4z M417.5,431.4l3.3,12l-14.9,25.8l-4.5-24.1c-41.6,32.5-94,51.9-151,51.9s-109.3-19.4-151-51.9
		l-4.5,24.1L80,443.4l3.3-12C35.2,386.6,5,322.6,5,251.5C5,115.9,114.9,6,250.5,6S496,115.9,496,251.5
		C496,322.6,465.8,386.6,417.5,431.4z M464.6,162.3c-4.2,1.2-8.3,2.4-12.5,3.5c4.2,10,7.8,20.3,10.5,30.9l13.1-0.6
		C472.9,184.5,469.1,173.2,464.6,162.3z M458.7,235.2c3.1,0.5,6.1,0.9,9.2,1.4c-0.9-12.8-2.9-25.3-6-37.4
		c-17.6,2.3-35.2,4.6-52.6,6.9c-16.6,2.2-33.1,4.4-49.5,6.6l2.3,8.6c14.4,2,28.7,4.1,42.9,6.1c15.4,2.2,30.6,4.4,45.8,6.7
		c0,0,0,0,0,0L458.7,235.2C458.7,235.3,458.7,235.3,458.7,235.2z M376.7,356.9l-23.2-111l17.6,105.9l-21-100.4l17.3,103.8
		l-20.6-98.8l18.7,112.1l-22-105.4l19.6,117.8l-23.4-112l27.1,162.9c9.6-6.1,18.5-13,26.9-20.5l-38-170.4L376.7,356.9z M124.3,356.9
		l21-116l-38,170.4c8.4,7.5,17.4,14.4,26.9,20.5l27.1-162.9l-23.4,112l19.6-117.8l-22,105.4l18.7-112.1l-20.6,98.8l17.3-103.8
		l-21,100.4l17.6-105.9L124.3,356.9z M42.3,235.2C42.3,235.2,42.3,235.3,42.3,235.2l8-1.1c0,0,0-0.1,0-0.1c15-2.2,30.2-4.5,45.4-6.6
		c14.3-2,28.6-4.1,43-6.1l2.3-8.5c-16.4-2.2-33-4.4-49.6-6.6c-11.8-1.6-23.7-3.1-35.6-4.7c0,0,0,0,0,0l-3.7-0.5
		c-4.4-0.6-8.8-1.2-13.2-1.7c-2.9,12-4.9,24.5-5.9,37.3C36.1,236.1,39.2,235.7,42.3,235.2z M146.2,201.3l1.6-6
		c-18.9-5.8-38-11.6-57.4-17.3c-13.4-4-26.9-7.9-40.5-11.8c-4.1,9.8-7.6,20-10.4,30.5c3.1,0.1,6.2,0.3,9.3,0.4c0,0,0,0.1,0,0.1
		l7.9,0.4c0-0.1,0-0.1,0-0.2c11.3,0.5,22.6,1,33.9,1.5C109.2,199.7,127.7,200.5,146.2,201.3z M174.6,65.3
		C174.6,65.3,174.6,65.3,174.6,65.3c-1.2-2.3-2.3-4.7-3.5-7c0,0,0,0,0,0c-1.4-2.7-2.7-5.4-4.1-8.1c-9.8,4.1-19.3,8.9-28.4,14.3
		c6.1,6.3,12.2,12.7,18.1,19.1c16.1,17.4,31.2,35,46,52.5c1.2-0.7,2.3-1.4,3.5-2c-8.7-20-17.7-40.1-27.3-60
		C177.5,71.2,176,68.2,174.6,65.3z M139.6,74.5c-1.9-2.4-3.8-4.8-5.7-7.1c-8.4,5.3-16.4,11.2-24,17.6c2.8,2.1,5.6,4.2,8.4,6.3
		c1.3,1,2.6,2,4,3c22.9,17.3,44.9,34.5,66.1,51.8c0.9-0.7,1.8-1.5,2.8-2.2c-13.2-18.9-26.9-37.8-41.4-56.5c-1.8-2.3-3.5-4.5-5.3-6.7
		c0,0,0.1,0,0.1-0.1C143,78.6,141.3,76.5,139.6,74.5C139.7,74.5,139.7,74.5,139.6,74.5z M113.2,94c-2.3-2-4.5-4-6.8-5.9
		c-6.9,6.1-13.4,12.6-19.5,19.5c2.7,1.5,5.5,2.9,8.2,4.4c0,0,0,0,0,0c2.4,1.3,4.7,2.5,7,3.7c0,0,0,0,0,0c3.2,1.7,6.4,3.4,9.5,5.1
		c22.1,12,43.5,24.2,64.3,36.4c0.8-0.8,1.6-1.5,2.4-2.3c-16.9-16.6-34.2-33.4-52.5-49.8c-2.2-2-4.4-3.9-6.6-5.9c0,0,0,0,0,0
		C117.2,97.5,115.3,95.7,113.2,94C113.3,94,113.3,94,113.2,94z M91.5,116.3c-2.6-1.6-5.2-3.3-7.8-4.9c-6,7-11.4,14.4-16.5,22.1
		c4.2,1.5,8.5,3,12.7,4.6c1.2,0.5,2.5,0.9,3.7,1.4c0,0,0,0,0-0.1c4.8,1.8,9.7,3.5,14.5,5.3c22.5,8.3,44.5,16.7,66.1,25.1
		c0.9-0.9,1.7-1.9,2.6-2.9c-19.1-13.5-38.7-27-59.2-40.3c-3.2-2-6.3-4.1-9.5-6.1c0,0,0,0,0,0C95.9,119.1,93.7,117.7,91.5,116.3
		C91.5,116.3,91.5,116.3,91.5,116.3z M73.3,141c-2.8-1.2-5.6-2.5-8.4-3.7c-5,8.2-9.5,16.7-13.6,25.6c13.4,2.7,26.7,5.5,39.8,8.2
		c20.9,4.4,41.4,8.7,61.8,13.1c1-1.4,2-2.8,3.1-4.2c-19.6-9.7-39.7-19.3-60.3-28.8c-5-2.3-10.1-4.6-15.2-6.9c0,0,0,0,0-0.1
		C78.1,143.2,75.7,142.1,73.3,141C73.3,141,73.3,141,73.3,141z M142.7,419.9c31.1,20,68.2,31.7,108,31.7
		c39.6,0,76.6-11.6,107.8-31.7l-0.9-5.4c-30.7,20.3-67.5,32.1-107,32.1s-76.3-11.8-107-32.1L142.7,419.9z M172.2,265.9l-0.8,6.5
		c-0.8-3.2-1.7-6.3-2.7-9.5c-1.6,16.6-1.5,31.4,0.4,44.2c1,2.7,2.2,21.9,5.6,25.1c3.4,3.2,41.1,25.5,54.2,37.1
		c1.9,0.3,2.3-0.8,2.6-2.3c0.1,0.1,0.2,0.1,0.3,0.2c0.7-3.8,0.4-11,18.7-11c6.1,0,10.2,0.8,12.9,2c8,3.9,3.1,11.7,7.9,11
		c13.2-11.7,50.7-33.8,54.1-37c3.4-3.2,4.6-22.5,5.6-25.2c2-12.8,1.9-27.6,0.4-44.2c-1,3.1-1.9,6.3-2.7,9.5l-0.8-6.5
		c1.2-5.6,2.3-10.2,3.5-14.3c-0.5-0.8-1.6-2-3.5-2c-3,0-13.4,2.3-16.3,3c-0.5,3.9-2.8,21.9-1.4,35.4c-2.4-6.4-2.6-15.1-2.2-22.6
		c-0.6-4.6-1.6-9.9-3.3-12c-2.2-3.1-5.8-6.1-7-7.1l3,10.6l-5.1-15c-6.4-13-20.4-12.5-23.1-12.3l1.4,7.1l1.4,0.9
		c0,0,4.6,15.1,3.9,16.3c-0.4,0.7-3.1,2.2-5.3,3.3c-0.9,0.6-2,1.1-3.1,1.6c-1.6,0.7-3.2,1.1-4.1,1.2c1.2-2,1.9-3.6,2.4-4.9
		c-1.2-0.3-2.3-0.6-3.3-0.9c-1.2,2-3.7,5-10.1,8.2l-1.3,0.5c-0.1,3.7-0.2,10.4-0.5,10.6c-0.4,0.4-2.7,3.4-2.7,3.4s1.1-3.2,1.2-4.1
		c0.1-0.7-0.3-7.6-1-10c-0.7,0-1.5,0-2.2,0c-0.6,2.4-1,9.3-1,10c0.1,0.8,1.2,4.1,1.2,4.1s-2.3-3.1-2.7-3.4
		c-0.3-0.3-0.4-6.9-0.5-10.6l-1.3-0.5c-6.4-3.3-8.9-6.3-10.1-8.2c-1,0.3-2.1,0.6-3.3,0.9c0.5,1.2,1.2,2.9,2.4,4.9
		c-0.6-0.1-1.5-0.3-2.4-0.6c-0.5-0.2-1.1-0.4-1.6-0.6c-1.1-0.4-2.2-1-3.1-1.6c-1.5-0.8-3.3-1.8-4.4-2.5c-0.3-0.2-0.5-0.4-0.6-0.6
		c-0.3-0.5,0.2-2.9,0.9-5.7c-0.1,0-0.2,0-0.3,0c1.2-4.7,3-10.8,3-10.8l1.4-0.9l1.4-7.1c-2.7-0.2-16.6-0.7-23.1,12.3l-5.1,15l3-10.6
		c-1.3,1-4.8,4-7.5,7.2c-1.7,2.1-2.8,7.4-3.3,12c0.4,7.4,0.2,16.1-2.2,22.6c1.3-13.5-0.9-31.5-1.4-35.4c-2.9-0.7-13.2-3-16.3-3
		c-1.9,0-3,1.2-3.5,2C169.9,255.7,171.1,260.3,172.2,265.9z M232.9,191.9c0.1-0.4-0.1-8.1-0.9-12.8c-11.6,2.9-22.2,8-31.6,14
		l25.3,7.2c5.2-1.6,7.8-5.8,8.7-8.4C233.9,191.9,233.4,191.9,232.9,191.9z M240.5,247.8c-3.5-1.5-5.3-7.3-6-11
		c-0.1-0.5-0.1-1-0.1-1.5c-1.9,0.9-4.7,2.1-6,2.9c0,0,0,0,0,0.1c0,0-0.1,0-0.1,0c-0.6,2-4.6,14.6-4.3,15.3c0.1,0.1,0.3,0.3,0.6,0.5
		c0-0.4,0-0.7,0.2-1.1c0.1-0.2,1.6,0.5,2.1,0.3c2-0.9,7.2-4.4,8.4-5.2c0.2-1.4,0.4-2.7,0.8-3.1c1.1,5.5,4.5,8,8.2,11.3
		c1.1,0,4.6,0.2,6.2,0.2s5.2-0.2,6.2-0.2c3.7-3.3,7.1-5.8,8.2-11.3c0.4,0.4,0.6,1.7,0.8,3.1c1.2,0.8,6.4,4.3,8.4,5.2
		c0.4,0.2,2-0.5,2.1-0.3c0.2,0.4,0.2,0.8,0.2,1.1c0.3-0.2,0.5-0.4,0.6-0.5c0.2-0.3-0.6-3.4-1.6-6.7c0,0,0,0,0,0
		c-1.1-3.6-2.3-7.6-2.6-8.6c-1.3-0.8-4.1-2-6-2.9c0,0,0,0,0,0c0,0-0.1,0-0.1,0c-0.4,3.5-2.2,10.8-6.2,12.4c2.3-2.6,4-9,4.4-13.5
		c-0.1-1-8.5-26.2-9.2-28.6c-0.4-1.4-0.8-2.7-1.2-3.9c-0.2-0.1-0.4-0.2-0.6-0.2c0,0,0,0,0-0.1c-1.4-0.6-2.4-0.9-3-1
		c-0.2,0-0.3-0.1-0.4-0.1c0,0,0,0,0,0c0,0,0,0,0,0c-0.5,0-1.5,0.3-3,0.9c-0.1,0.1-0.3,0.1-0.4,0.2c0,0,0,0,0,0
		c-0.2,0.1-0.4,0.2-0.6,0.3c-3.3,10.7-7,21.3-10.3,32l-0.1,0.5C236.5,238.8,238.1,245.2,240.5,247.8z M308.9,209.7
		c0,0-6.3-3.6-11.6-4.9c0.1-0.3,1.5-0.8,2.4-1.1c-5.2-1-16.1,5.3-19.5,8.4c-1.1-0.5-2.4-0.6-3.5-1.2c0.6,0.9,1.3,1.5,2.2,1.9
		c1.8-0.4,3.5-0.9,5.1-1.4c-0.5,0.1-1,0.1-1.5,0.2c3.1-1.4,7.9-3.6,10.4-4.6c5.6-0.7,13.9,3.9,13.9,3.9
		C307.5,210.8,308.6,210.2,308.9,209.7z M308.3,215.8c0,0-10.7-7.3-17.7-5.4c-5.6,2.1-8.2,5.6-8.2,5.6c8.5,2.5,22,4.4,27.2,7
		C310.2,221.9,309.7,219.2,308.3,215.8z M300.5,193.1c-9.4-6-20-11.1-31.5-14c-0.8,4.7-0.9,12.4-0.9,12.8c-0.5,0-1,0-1.5,0
		c0.9,2.6,3.5,6.8,8.7,8.4L300.5,193.1z M266,200.4c3.5,7.1,9,9.5,14.9,9.3c-0.7-0.9-1.4-1.8-2.2-2.8c3.5-1.9,6.2-3.7,12.2-5.8
		c-6.1-0.1-12.9,3.5-15.6,4.9c0.2,0.2,0.3,0.4,0.5,0.7C268.7,204.7,267.1,201.8,266,200.4z M235,200.4c-1.1,1.4-2.7,4.3-9.8,6.3
		c0.2-0.3,0.3-0.5,0.5-0.7c-2.7-1.4-9.5-5-15.6-4.9c6,2.1,8.7,3.9,12.2,5.8c-0.8,1-1.5,1.9-2.2,2.8C226,209.9,231.5,207.5,235,200.4
		z M203.7,204.8c-5.3,1.3-11.6,4.9-11.6,4.9c0.3,0.5,1.4,1.1,2.1,1.2c0,0,8.3-4.6,13.9-3.9c2.5,1,7.3,3.2,10.4,4.6
		c-0.5-0.1-1-0.1-1.5-0.2c1.6,0.5,3.3,1,5.1,1.4c0.9-0.4,1.6-1,2.2-1.9c-1.1,0.6-2.4,0.7-3.5,1.2c-3.4-3.1-14.3-9.4-19.5-8.4
		C202.2,204,203.6,204.5,203.7,204.8z M191.4,223c5.2-2.6,18.7-4.5,27.2-7c0,0-2.6-3.5-8.2-5.6c-7-1.9-17.7,5.4-17.7,5.4
		C191.3,219.2,190.8,221.9,191.4,223z M284.7,389.4l38.7-38.5l-44.1,35.8l6.5,50.1c3.8-0.9,7.6-2,11.3-3.2L284.7,389.4z
		 M216.3,389.4l-12.4,44.2c3.7,1.2,7.5,2.3,11.3,3.2l6.5-50.1l-44.1-35.8L216.3,389.4z M354.9,201.3c18.4-0.8,36.9-1.6,55.4-2.4
		c11.2-0.5,22.5-1,33.8-1.5c0,0,0,0,0,0.1l8-0.3c0,0,0-0.1,0-0.1c3.1-0.1,6.3-0.3,9.4-0.4c-2.8-10.5-6.3-20.7-10.4-30.6
		c-13.7,3.9-27.3,7.8-40.7,11.8c-19.3,5.7-38.3,11.5-57.1,17.3L354.9,201.3z M326.3,65.3c-1.4,2.9-2.9,5.9-4.3,8.8
		C312.3,94,303.4,114,294.7,134c1.2,0.7,2.4,1.3,3.5,2c14.6-17.5,29.8-35,45.9-52.4c2-2.2,4.1-4.4,6.2-6.6c0,0,0,0,0,0
		c1.8-1.9,3.7-3.9,5.5-5.8c0,0,0,0,0,0c2.2-2.3,4.3-4.5,6.5-6.8c-9.1-5.4-18.6-10.2-28.4-14.3c-1.4,2.7-2.7,5.5-4.1,8.2c0,0,0,0,0,0
		C328.6,60.6,327.5,62.9,326.3,65.3C326.3,65.3,326.3,65.3,326.3,65.3z M309.7,143.9c1,0.7,2,1.4,2.9,2.2
		c25.1-20.4,51.2-40.8,78.5-61.1c-7.7-6.4-15.7-12.3-24.1-17.6c-1.9,2.4-3.8,4.7-5.7,7.1c0,0-0.1,0-0.1-0.1
		c-1.6,2.1-3.3,4.1-4.9,6.1c0,0,0.1,0.1,0.1,0.1c-1.8,2.3-3.6,4.6-5.4,6.9C336.5,106.2,322.9,125,309.7,143.9z M322.7,154.8
		c0.8,0.8,1.6,1.6,2.4,2.4c20.8-12.2,42.1-24.4,64.2-36.4c8.2-4.4,16.4-8.8,24.8-13.2c-6.1-6.9-12.7-13.5-19.6-19.7
		c-6.5,5.7-13,11.4-19.4,17.1C356.8,121.5,339.5,138.2,322.7,154.8z M334.2,166.9c0.9,0.9,1.8,1.9,2.6,2.9
		c21.5-8.4,43.5-16.9,65.9-25.1c10.2-3.7,20.6-7.5,31-11.2c-5-7.7-10.5-15.1-16.4-22.2c-2.6,1.6-5.2,3.3-7.8,4.9c0,0,0,0,0,0
		c-2.2,1.4-4.4,2.8-6.6,4.1c0,0,0.1,0.1,0.1,0.1c-3.2,2.1-6.5,4.1-9.7,6.2C372.9,139.9,353.3,153.4,334.2,166.9z M345,179.8
		c1,1.4,2.1,2.8,3.1,4.2c20.3-4.3,40.8-8.7,61.5-13c7.6-1.6,15.3-3.2,23.1-4.7c0,0,0,0,0,0c2.6-0.5,5.2-1.1,7.8-1.6c0,0,0,0,0,0
		c3-0.6,6.1-1.2,9.1-1.9c-4-8.8-8.5-17.4-13.5-25.7c-10.4,4.7-20.7,9.3-30.9,14C384.6,160.6,364.6,170.2,345,179.8z M448.9,131.5
		c-3.9,1.7-7.9,3.5-11.8,5.2c5.1,8.3,9.7,16.9,13.7,25.9c4.2-0.9,8.5-1.7,12.8-2.6C459.3,150.1,454.4,140.6,448.9,131.5z
		 M429.3,103.9c-3.7,2.2-7.4,4.5-11,6.8c5.9,7.1,11.5,14.6,16.5,22.4c4.1-1.5,8.3-2.9,12.4-4.4C441.8,120,435.8,111.8,429.3,103.9z
		 M405.2,78.8c-3.3,2.8-6.6,5.6-9.9,8.4c7,6.2,13.6,12.8,19.8,19.8c3.9-2,7.8-4.1,11.7-6.1C420.1,93.1,412.9,85.7,405.2,78.8z
		 M375.9,56.4c-2.8,3.3-5.5,6.7-8.2,10c8.5,5.4,16.6,11.4,24.3,17.9c3.5-2.6,7.1-5.2,10.6-7.8C394.2,69.2,385.3,62.4,375.9,56.4z
		 M340.3,37.7c-1.9,3.8-3.9,7.6-5.9,11.4c10,4.2,19.6,9,28.7,14.5c3-3.1,6.1-6.3,9.2-9.4C362.1,47.9,351.4,42.4,340.3,37.7z
		 M295.7,37.2c11.5,2.4,22.8,5.7,33.6,9.9c2.3-3.7,4.7-7.3,7.1-11c-12.1-4.9-24.8-8.7-37.9-11.5C297.5,28.8,296.6,32.9,295.7,37.2z
		 M295.3,38.2c-2.1,9.1-4.1,18.3-6,27.4c-4.3,20.2-8.2,40.5-12.1,60.8c1.5,0.5,3,1,4.5,1.6c10.2-18.8,20.8-37.8,32.2-56.5
		c4.8-7.8,9.7-15.6,14.7-23.4C317.9,43.9,306.8,40.6,295.3,38.2z M253.8,42.7C253.8,42.7,253.8,42.7,253.8,42.7
		c0.1,2.6,0.3,5.2,0.4,7.8c0,0,0,0,0.1,0c0.2,4,0.4,7.9,0.6,11.9c1,20,2,39.9,2.9,59.9c1.8,0.2,3.6,0.4,5.3,0.7
		c5.6-19.6,11.4-39.1,17.7-58.6c1.3-4.2,2.7-8.4,4.1-12.6c0.4-1.3,0.8-2.5,1.3-3.8c1.2-3.6,2.4-7.2,3.7-10.9
		c-11.8-2.2-24.1-3.4-36.5-3.5C253.5,36.7,253.7,39.7,253.8,42.7z M252.5,19.7c0.2,4.2,0.5,8.5,0.8,12.8c12.6,0.2,25,1.4,37,3.6
		c1.4-4,2.8-8.1,4.2-12.2C280.9,21.2,266.8,19.8,252.5,19.7z M249.4,133.8c-52.5,0-85.1,42.5-95.7,71.3l-4.5,24.5
		c8.7-14.5,49.3-59,100.2-59c50.9,0,93.6,44.5,102.3,59l-3.2-24.5C338,176.3,301.9,133.8,249.4,133.8z M247.1,42.7
		c0.2-3,0.3-6.1,0.5-9.1c-12.5,0.2-24.7,1.4-36.6,3.5c1.4,4.1,2.7,8.1,4.1,12.1c0.1,0.3,0.2,0.5,0.3,0.8c1.6,4.8,3.1,9.5,4.7,14.3
		c6.3,19.5,12.2,39,17.8,58.6c1.8-0.3,3.5-0.5,5.3-0.7c0.9-20,1.8-40,2.9-59.9c0.2-3.9,0.4-7.9,0.7-11.8c0,0,0,0,0,0
		C246.8,47.9,247,45.3,247.1,42.7C247.1,42.7,247.1,42.7,247.1,42.7z M206.4,23.8c1.4,4.1,2.8,8.2,4.3,12.2c12-2.2,24.4-3.4,37-3.6
		c0.2-4.3,0.4-8.5,0.7-12.8C234.1,19.7,220,21.2,206.4,23.8z M205.5,38.3c-11.5,2.4-22.6,5.7-33.3,9.9c1.7,2.6,3.3,5.2,5,7.8
		c0,0-0.1,0-0.1,0c1.4,2.2,2.8,4.4,4.3,6.7c0,0,0,0,0,0c1.8,2.9,3.6,5.9,5.4,8.8c11.4,18.8,22.1,37.7,32.4,56.6
		c1.5-0.6,3-1.1,4.5-1.6c-3.9-20.3-7.9-40.6-12.2-60.8C209.5,56.6,207.5,47.4,205.5,38.3z M164.4,36.2c2.4,3.6,4.8,7.3,7.1,11
		c10.9-4.2,22.1-7.6,33.7-10c-0.9-4.2-1.8-8.3-2.8-12.5C189.3,27.5,176.6,31.3,164.4,36.2z M128.6,54.2c3.1,3.2,6.1,6.3,9.2,9.4
		c9.2-5.5,18.7-10.4,28.7-14.5c-2-3.8-3.9-7.6-5.9-11.4C149.5,42.4,138.8,47.9,128.6,54.2z M98.4,76.5c3.5,2.6,7,5.2,10.5,7.9
		c7.7-6.5,15.8-12.5,24.3-17.9c-2.7-3.4-5.4-6.7-8.2-10C115.7,62.5,106.8,69.2,98.4,76.5z M74.1,101c3.9,2,7.8,4.1,11.7,6.1
		c3.1-3.6,6.4-7.1,9.8-10.5c3.2-3.2,6.5-6.3,9.9-9.3c-3.2-2.8-6.5-5.6-9.8-8.4C88,85.8,80.8,93.2,74.1,101z M53.8,128.7
		c4.1,1.5,8.2,3,12.4,4.4c5-7.7,10.5-15.2,16.5-22.4c-3.6-2.2-7.3-4.5-11-6.8C65.2,111.7,59.2,120,53.8,128.7z M37.4,160
		c4.3,0.9,8.6,1.8,12.8,2.6c3.9-8.9,8.5-17.5,13.6-25.9c-3.9-1.7-7.8-3.5-11.8-5.2C46.5,140.6,41.6,150.1,37.4,160z M25.3,196.1
		l13.1,0.6c2.7-10.5,6.1-20.8,10.4-30.8c-4.1-1.2-8.2-2.4-12.4-3.6C31.9,173.2,28.2,184.5,25.3,196.1z M86,414.9
		c15.2-55.4,17.8-64.9,34-123.5c-17.7,9.3-34.6,18.9-51,28.3c16.4-12.5,33.5-25.1,51.6-37.4c0.8-0.5,1.5-1,2.3-1.5l6.4-23.4
		c-6.7,1.6-13.3,3.3-19.8,5c-22.4,5.8-44.3,11.5-65.7,17.4c1.4-0.6,2.9-1.2,4.3-1.8c18.9-7.5,38.2-15.2,58.1-22.6
		c8.6-3.2,17.3-6.4,26.1-9.6l3.5-13c-12.6,0.5-25.1,1.1-37.7,1.7C82,235.3,66,236.1,50,236.8c0,0,0,0,0,0l-3.8,0.2
		c-4.4,0.2-8.8,0.4-13.1,0.6c-0.3,4.6-0.5,9.2-0.5,13.9c0,49.5,16.5,95,44.2,131.6c0,0.6,0,1.3,0,1.9c-15.1-19.7-26.5-41.3-34-63.8
		l0,0c-4.5-13.5-7.7-27.3-9.5-41.2c0-0.3-0.1-0.5-0.1-0.8c-0.2-1.4-0.3-2.8-0.5-4.2c0-0.4-0.1-0.8-0.1-1.2c-0.1-1.3-0.2-2.5-0.4-3.8
		c0-0.5-0.1-1-0.1-1.5c-0.1-1.2-0.2-2.4-0.2-3.6c0-0.5-0.1-1.1-0.1-1.6c-0.1-1.1-0.1-2.3-0.2-3.4c0-0.6,0-1.2-0.1-1.7
		c0-1.1-0.1-2.2-0.1-3.4c0-0.6,0-1.2,0-1.8c0-1.1,0-2.2,0-3.4c0-0.6,0-1.2,0-1.7c0-1.2,0.1-2.4,0.1-3.6c0-0.5,0-1,0-1.5
		c0.1-1.7,0.2-3.4,0.3-5.1l-8.8,0.4l8.8-1.3c0.9-12.7,2.9-25.3,5.9-37.7L25,197.4c-4.2,17.4-6.4,35.5-6.4,54.1c0,1.9,0,3.8,0.1,5.6
		c0,0.5,0,1,0.1,1.6c0,1.4,0.1,2.8,0.2,4.1c0,0.5,0.1,1.1,0.1,1.6c0.1,1.4,0.2,2.8,0.3,4.2c0,0.4,0.1,0.9,0.1,1.3
		c0.1,1.6,0.3,3.1,0.4,4.7c0,0.2,0,0.5,0.1,0.7c2,19.3,6.3,38,12.8,55.6l0,0C44.2,362.8,62.6,391.4,86,414.9z M146.3,218.3
		L86.9,437.2l6.7,11.5L146.3,218.3z M398.9,426.3l-1.5-6.4c-39.3,34.3-90.7,55.1-146.9,55.1s-107.6-20.8-146.9-55.1l-1.5,6.4
		c40,34,91.8,54.5,148.4,54.5S358.9,460.3,398.9,426.3z M414,437.2l-59.3-218.9l52.7,230.4L414,437.2z M482.4,251.5
		c0-18.7-2.3-36.8-6.4-54.1c-4.3,0.6-8.5,1.1-12.5,1.6c0,0,0,0.1,0,0.1c-0.1,0-0.3,0-0.4,0.1c3,12.2,5,24.8,5.8,37.7l6.6,1l-6.2-0.3
		c0,0.1,0,0.1,0,0.2l-0.4,0c0.3,4.6,0.4,9.2,0.4,13.8c0.3,24.3-3.7,47.7-11.1,69.6l0.1,0.1c-7.8,23.2-19.4,44.6-34,63.6
		c0-0.6,0-1.3,0-1.9c27.7-36.6,44.2-82.2,44.2-131.6c0-4.6-0.2-9.2-0.5-13.8c-21.6-1-43.3-2-65.1-3c-12.5-0.6-25-1.1-37.6-1.7
		l3.5,13.1c8.7,3.2,17.3,6.4,25.9,9.6c18.8,7,37.2,14.2,55.2,21.4c0,0,0,0,0,0c2.4,1,4.9,1.9,7.3,2.9c-1.3-0.4-2.7-0.7-4-1.1
		c-1.1-0.3-2.3-0.6-3.4-0.9c0,0,0,0,0,0c-19.2-5.2-38.6-10.3-58.4-15.4c-6.5-1.7-13-3.3-19.6-5l6.5,23.5c0.7,0.4,1.3,0.9,2,1.3
		c18.1,12.3,35.3,24.9,51.7,37.4c-16.4-9.4-33.2-18.9-50.8-28.2c11.9,43.2,16.5,60,24.2,88.2c0,0,0,0,0,0l2.5,9.1c0,0,0,0,0,0
		c2.1,7.6,4.4,16.1,7.2,26.1C456.7,373,482.4,315.2,482.4,251.5z"/>
	<path fill="#A71D35" d="M240.5,247.8c-2.4-2.6-4-9-4.4-13.5l0.1-0.5c3.3-10.7,7-21.3,10.3-32c0.2-0.1,0.4-0.2,0.6-0.3
		c-2.8,9.5-8.6,29.8-8.7,32c-0.2,2.9,1.7,10.2,5.1,13.4c4.6,4.5,9.4,4.5,14,0c3.3-3.2,5.2-10.5,5.1-13.4c-0.1-2.2-5.9-22.4-8.7-31.9
		c0.2,0.1,0.4,0.2,0.6,0.2c0.4,1.2,0.8,2.5,1.2,3.9c0.7,2.4,9.1,27.6,9.2,28.6c-0.4,4.5-2.1,10.9-4.4,13.5c4-1.6,5.8-8.9,6.2-12.4
		c0,0,0.1,0,0.1,0c-0.2,1.1-0.4,2.6-0.9,4.2c1.4,0.3,3.7,0.8,4.4,1.4c0.7,0.5,3.5,4,5.1,5.9c1,3.3,1.8,6.4,1.6,6.7
		c-0.1,0.1-0.3,0.3-0.6,0.5c0-0.3,0-0.7-0.2-1.1c-0.1-0.2-1.7,0.5-2.1,0.3c-2-0.9-7.2-4.4-8.4-5.2c-0.2-1.4-0.4-2.7-0.8-3.1
		c-1.1,5.5-4.5,8-8.2,11.3c-1,0-4.6,0.2-6.2,0.2s-5.1-0.2-6.2-0.2c-3.7-3.3-7.1-5.8-8.2-11.3c-0.4,0.4-0.6,1.7-0.8,3.1
		c-1.2,0.8-6.4,4.3-8.4,5.2c-0.5,0.2-2-0.5-2.1-0.3c-0.2,0.4-0.2,0.7-0.2,1.1c-0.3-0.2-0.5-0.4-0.6-0.5c-0.3-0.7,3.7-13.3,4.3-15.3
		c0,0,0.1,0,0.1,0c-0.3,1.2-1.5,4.9-2.6,8.4c1.5-2,4.3-5.3,4.9-5.8c0.6-0.6,3-1.1,4.4-1.4c-0.3-0.9-0.5-1.9-0.6-2.7
		C235.2,240.5,237,246.3,240.5,247.8z M247.5,201.3c1.5-0.6,2.4-0.9,3-0.9C250,200.4,249,200.7,247.5,201.3z M230.1,258.9
		c0.5,0.1,0.9,0.3,1.3,0.4c-0.5-0.2-1.1-0.4-1.6-0.6c-1.1-0.4-2.2-1-3.1-1.6c-1.5-0.8-3.3-1.8-4.4-2.5c1,0.8,3,1.9,4.7,2.7
		C227.9,257.9,229,258.4,230.1,258.9z M233.9,327.5c0,0,1.3-1.5,3.4-3.1c-1.4,0.5-2.6,1.1-3.9,3.3c0,0-7.5,4.3-8.5,9.9
		c20.1-14.2,30.9-14.2,51,0c-1-5.6-8.5-9.9-8.5-9.9l-0.1-0.1l0.3,0.1c0,0-0.2-0.2-0.5-0.5C253.7,320.8,247.6,320.9,233.9,327.5z
		 M250.5,200.4c0.1,0,0.3,0,0.4,0.1C250.8,200.4,250.6,200.4,250.5,200.4z M171.4,272.4l0.8-6.5c-1.1-5.6-2.3-10.2-3.5-14.3
		c0.5-0.8,1.6-2,3.5-2c3.1,0,13.4,2.3,16.3,3c0.5,3.9,2.7,21.9,1.4,35.4c2.4-6.5,2.6-15.2,2.2-22.6c0.5-4.6,1.6-9.9,3.3-12
		c2.7-3.2,6.2-6.2,7.5-7.2l-3,10.6l5.1-15c6.5-13,20.4-12.5,23.1-12.3l-1.4,7.1l-1.4,0.9c0,0-1.8,6-3,10.8c-3.2-0.2-5.7,1.8-7.7,5.2
		c0.1-0.1,0.1-0.1,0.1-0.1c-1,1.8-1.8,3.9-2.5,6.3c-0.3,1.2-0.7,2.4-0.9,3.7c-0.1,0.4-0.2,0.8-0.3,1.3c-0.3,1.7-0.6,3.5-0.9,5.2
		c-0.1,0.4-0.1,0.9-0.2,1.3c-1,7.5-1.3,15.2-1.8,19.8l0.3,0.1c7.8-9.1,26-16.3,26-16.3s6.2-9.2,4.6-10.2c-0.8-0.6-3-2.7-4.9-4.7
		c-0.1,0-0.2,0-0.2,0c-1.2-2-1.9-3.7-2.4-4.9c1.2-0.3,2.3-0.6,3.3-0.9c1.2,1.9,3.7,4.9,10.1,8.2l1.3,0.5c0.1,3.7,0.2,10.3,0.5,10.6
		c0.4,0.3,2.7,3.4,2.7,3.4s-1.1-3.3-1.2-4.1c0-0.7,0.4-7.6,1-10c0.7,0,1.5,0,2.2,0c0.7,2.4,1.1,9.3,1,10c-0.1,0.9-1.2,4.1-1.2,4.1
		s2.3-3,2.7-3.4c0.3-0.2,0.4-6.9,0.5-10.6l1.3-0.5c6.4-3.2,8.9-6.2,10.1-8.2c1,0.3,2.1,0.6,3.3,0.9c-0.5,1.3-1.2,2.9-2.4,4.9
		c0.9-0.1,2.5-0.5,4.1-1.2c1.1-0.5,2.2-1,3.1-1.6c2.2-1.1,4.9-2.6,5.3-3.3c0.7-1.2-3.9-16.3-3.9-16.3l-1.4-0.9l-1.4-7.1
		c2.7-0.2,16.7-0.7,23.1,12.3l5.1,15l-3-10.6c1.2,1,4.8,4,7,7.1c1.7,2.1,2.7,7.4,3.3,12c-0.4,7.5-0.2,16.2,2.2,22.6
		c-1.4-13.5,0.9-31.5,1.4-35.4c2.9-0.7,13.3-3,16.3-3c1.9,0,3,1.2,3.5,2c-1.2,4.1-2.3,8.7-3.5,14.3l0.8,6.5c0.8-3.2,1.7-6.4,2.7-9.5
		c1.5,16.6,1.6,31.4-0.4,44.2c-1,2.7-2.2,22-5.6,25.2c-3.4,3.2-40.9,25.3-54.1,37c-4.9,0.7,0.1-7.1-7.9-11c5.4,2.4,5.4,6.5,5.8,9
		c7.1-4.4,35.7-26.1,35.9-27.5c0.2-1.5-2.5-24-2.7-31.4c-0.2-7.4-2.2-35.8-4.4-38.6c0,0-0.5,13.2-0.9,17.3c-0.2,2.2-0.5,5.6-0.9,8.8
		c0.4,3.3,0.8,6.1,0.7,6.6c-0.3,0.9-2.2,3-3.6,4.4c-3.6,6.4-10.6,16.9-10.6,16.9s9.7-5.1,7.8-1.4c-1.7,3.4-14.4,26.1-13.7-3.1
		c-0.5,0.3-0.9,0.6-0.9,0.6s-13.1-6.8-17.4-9.7c-3.2-2.2-4.7-1.5-5.3-1.1c0.2-0.3,1.6-1.8,5.5,0.9c4.2,2.9,17.4,9.7,17.4,9.7
		s7.4-5,10.2-10.3c2.7-5.3,4-10,4-10s-4.3,8.4-6.6,9.3c-2.3,1-5,2.2-5.5-2.2l-1.8,0.8c0,0-6.1-3.2-12-3.2l2,2.1l-6.5,1.9
		c-1.3-3.3-16.9-3.3-18.2,0l-6.5-1.9l2-2.1c-5.9,0-12,3.2-12,3.2l-1.8-0.8c-0.5,4.4-3.2,3.1-5.4,2.2c-2.2-1-6.6-9.3-6.6-9.3
		s1.2,4.7,4,10s10.2,10.3,10.2,10.3s13.1-6.8,17.4-9.7c4.2-2.9,5.5-0.8,5.5-0.8s-0.4,1.6-0.1,4.5c0.3,3-2.9,6.9-2.9,6.9
		c0,0,0,0-0.1,0c0.6-0.8,3-4.2,2.8-6.7c-0.3-3,0.1-4.5,0.1-4.5s-1.2-2.1-5.5,0.8c-4.2,2.9-17.4,9.7-17.4,9.7s-0.5-0.3-1.2-0.9
		c0.8,29.7-11.9,6.9-13.7,3.4c-1.8-3.7,7.8,1.4,7.8,1.4s-7-10.5-10.6-16.9c-1.5-1.4-3.4-3.5-3.7-4.4c-0.1-0.5,0.2-3.3,0.7-6.6
		c-0.3-3.1-0.7-6.6-0.9-8.8c-0.5-4.1-0.9-17.3-0.9-17.3c-2.2,2.9-4.2,31.2-4.4,38.6c-0.3,7.4-2.9,29.8-2.7,31.4
		c0.2,1.4,28.2,22.6,35.7,27.3c-0.3,1.6-0.7,2.6-2.6,2.3c-13.1-11.6-50.8-33.9-54.2-37.1c-3.4-3.2-4.6-22.4-5.6-25.1
		c-1.9-12.8-2-27.6-0.4-44.2C169.7,266.1,170.6,269.2,171.4,272.4z M283.8,291.9c-7.3-3.9-14.8-7.9-22.4-5.6
		c-2.2,2.5-8.2,6.4-11,6.8c-4.1-1.8-8.8-4.3-11-6.8c-7.1-2.2-14.1,1.2-21,4.9c4.6-0.2,11.7-4.8,16.5-3.5c4.9,1.2,9.6,8.9,16.1,8.9
		c6.6,0,10.6-7.7,14.1-8.7S273.4,288.4,283.8,291.9z M266.6,274.8c0,0,18.2,7.2,26,16.3l0.3-0.1c-1-8.8-1.2-28-6.6-37.6c0,0,0,0,0,0
		c0,0,0,0.1,0.1,0.1c0-0.1,0-0.1-0.1-0.1c-2.1-3.4-4.7-5.6-7.9-5.1c0.7,2.8,1.2,5.2,0.9,5.7c-0.4,0.7-3.1,2.2-5.3,3.3
		c-0.9,0.6-2,1.1-3.1,1.6c-1.6,0.5-3.1,0.9-4,1c-1.9,2-4.1,4.1-4.9,4.7C260.4,265.6,266.6,274.8,266.6,274.8z M190.9,322.6
		c1.3-1.3,3.5-6.7,5.2,4.1c2.7-16.1-0.5-50.2,8-67.4c-9,10-9.4,37.8-13.2,57.5c-2-3.6-6.7-10.9-8.4-16.4
		C181.4,300.9,189.7,320.4,190.9,322.6z"/>
	<path fill="#EEEEEE" d="M389.3,120.8c8.2-4.4,16.4-8.8,24.8-13.2c-6.1-6.9-12.7-13.5-19.6-19.7c-6.5,5.7-13,11.4-19.4,17.1
		c-18.3,16.5-35.6,33.2-52.4,49.8c0.8,0.8,1.6,1.6,2.4,2.4C345.9,145,367.2,132.8,389.3,120.8z M387.6,94c3.6,3.2,7.2,6.4,10.6,9.8
		c2.6,2.6,5.2,5.3,7.7,8.1c-2.4,1.3-4.7,2.5-7.1,3.8c-2-2.2-4-4.3-6.1-6.4c-3.5-3.5-7.2-6.9-10.9-10.2
		C383.7,97.5,385.6,95.7,387.6,94z M277.2,126.4c1.5,0.5,3,1,4.5,1.6c10.2-18.8,20.8-37.8,32.2-56.5c4.8-7.8,9.7-15.6,14.7-23.4
		c-10.7-4.2-21.8-7.5-33.3-9.9c-2.1,9.1-4.1,18.3-6,27.4C285,85.8,281.1,106.1,277.2,126.4z M293.4,47.1c10.4,2.2,20.5,5.1,30.2,8.8
		c-1.4,2.2-2.8,4.5-4.2,6.7c-8.9-3.3-18.2-5.9-27.7-7.9C292.3,52.2,292.8,49.6,293.4,47.1z M284.4,53.3c0.2-0.5,0.3-1,0.5-1.5
		c-1.4,4.2-2.7,8.4-4.1,12.6c-6.3,19.5-12.1,39-17.7,58.6c-1.7-0.3-3.5-0.5-5.3-0.7c-0.9-20-1.9-39.9-2.9-59.9
		c-0.2-4-0.4-7.9-0.6-11.9C264.5,50.7,274.6,51.6,284.4,53.3z M336.8,169.8c-0.8-1-1.7-2-2.6-2.9c19.1-13.5,38.7-27,59.1-40.3
		c3.2-2.1,6.4-4.1,9.7-6.2c5.2,6.1,10,12.3,14.4,18.9c2.5-0.9,5-1.8,7.5-2.7c-4.7-7.1-9.9-13.9-15.4-20.4c2.6-1.6,5.2-3.3,7.8-4.9
		c5.9,7.1,11.4,14.5,16.4,22.2c-10.4,3.7-20.8,7.5-31,11.2C380.3,152.9,358.3,161.4,336.8,169.8z M348.1,184c-1-1.4-2.1-2.8-3.1-4.2
		c19.6-9.6,39.6-19.2,60.2-28.7c10.2-4.7,20.5-9.3,30.9-14c5,8.3,9.5,16.9,13.5,25.7c-3,0.6-6.1,1.2-9.1,1.9
		c-3.8-8.3-8-16.2-12.8-23.8c-2.4,1.1-4.8,2.2-7.1,3.3c4.5,7.1,8.5,14.4,12.1,22.1c-7.7,1.6-15.4,3.2-23.1,4.7
		C388.9,175.3,368.4,179.7,348.1,184z M286.9,45.8c-10.8-1.9-21.8-2.9-33.1-3.1c-0.2-3-0.3-6-0.5-9c12.4,0.1,24.7,1.3,36.5,3.5
		c-1.2,3.6-2.5,7.3-3.7,10.9C286.4,47.3,286.7,46.6,286.9,45.8z M247.6,33.6c-0.2,3-0.3,6.1-0.5,9.1c-11.2,0.2-22.3,1.3-33.1,3.2
		c0.4,1.1,0.7,2.2,1.1,3.3c-1.3-4-2.7-8.1-4.1-12.1C222.9,35,235.1,33.8,247.6,33.6z M216.5,53.3c9.8-1.6,19.9-2.6,30.2-2.8
		c-0.2,3.9-0.5,7.9-0.7,11.8c-1.1,19.9-2,39.9-2.9,59.9c-1.8,0.2-3.5,0.4-5.3,0.7c-5.6-19.6-11.5-39.1-17.8-58.6
		c-1.5-4.8-3.1-9.6-4.7-14.3C215.7,51.1,216.1,52.2,216.5,53.3z M172.2,48.2c10.7-4.2,21.8-7.5,33.3-9.9c2,9.1,4,18.3,6,27.4
		c4.3,20.2,8.3,40.5,12.2,60.8c-1.5,0.5-3,1-4.5,1.6c-10.3-18.9-21-37.8-32.4-56.6c-1.8-2.9-3.6-5.9-5.4-8.8
		c8.9-3.2,18.2-5.9,27.7-7.9c-0.6-2.5-1.1-5.1-1.7-7.6C197,49.4,187,52.3,177.2,56C175.5,53.4,173.9,50.8,172.2,48.2z M482.4,251.5
		c0,63.7-25.7,121.5-67.3,163.4c-2.8-10-5.1-18.5-7.2-26.1c26.1-30,43.9-67.5,49.5-108.8c0,0,0,0,0,0c0,0,0.1,0,0.1,0
		c0,0-0.1,0-0.1,0c1.2-9.3,1.9-18.8,1.9-28.5c0-4.8-0.2-9.6-0.5-14.3l-7.8-0.3c0.3,4.8,0.5,9.7,0.5,14.6c0,8.7-0.5,17.2-1.6,25.5
		c-18-7.2-36.4-14.4-55.2-21.4c-8.6-3.2-17.2-6.4-25.9-9.6l-3.5-13.1c12.6,0.6,25.1,1.1,37.6,1.7c21.8,1,43.5,2,65.1,3
		c0.3,4.6,0.5,9.2,0.5,13.8c0,49.4-16.5,95-44.2,131.6c0,0.6,0,1.3,0,1.9c14.6-19,26.2-40.5,34-63.6l10,9.8
		C477.4,306.3,482.3,279.5,482.4,251.5c-0.1-18.5-2.3-36.6-6.5-54c-4.2,0.6-8.2,1.1-12.4,1.6c0,0,0-0.1,0-0.1c4-0.5,8.2-1,12.5-1.6
		C480.1,214.7,482.4,232.8,482.4,251.5z M203.9,433.6l12.4-44.2l-38.7-38.5l44.1,35.8l-6.5,50.1
		C211.4,435.9,207.6,434.8,203.9,433.6z M467.9,236.6c-3.1-0.5-6.1-0.9-9.2-1.4c-0.9-12-2.9-23.6-5.7-34.8l-7.7,1
		c2.7,10.6,4.5,21.5,5.5,32.7c-15.2-2.2-30.4-4.5-45.8-6.7c-14.2-2-28.5-4.1-42.9-6.1l-2.3-8.6c16.4-2.2,32.9-4.4,49.5-6.6
		c17.4-2.3,35-4.6,52.6-6.9C465,211.3,467,223.8,467.9,236.6z M50.3,234c0.9-11.1,2.8-21.9,5.5-32.5c11.9,1.6,23.8,3.1,35.6,4.7
		c16.6,2.2,33.2,4.4,49.6,6.6l-2.3,8.5c-14.4,2-28.7,4.1-43,6.1C80.5,229.6,65.3,231.8,50.3,234z M308.3,215.8
		c1.4,3.4,1.9,6.1,1.3,7.2c-5.2-2.6-18.7-4.5-27.2-7c0,0,2.6-3.5,8.2-5.6C297.6,208.5,308.3,215.8,308.3,215.8z M354.9,201.3
		l-1.6-6.1c18.8-5.8,37.8-11.6,57.1-17.3c13.4-4,27-7.9,40.7-11.8c4.1,9.9,7.6,20.1,10.4,30.6c-3.1,0.1-6.3,0.3-9.4,0.4
		c-2.6-9.8-5.9-19.2-9.9-28.4c-2.5,0.7-5,1.4-7.6,2.2c3.8,8.6,7,17.4,9.5,26.5c-11.3,0.5-22.6,1-33.8,1.5
		C391.8,199.7,373.3,200.5,354.9,201.3z M312.6,146.1c-0.9-0.8-1.9-1.5-2.9-2.2c13.2-18.9,26.8-37.7,41.3-56.4
		c1.8-2.3,3.6-4.6,5.4-6.9c7.3,4.5,14.2,9.5,20.8,14.8c2.1-1.6,4.3-3.2,6.4-4.8c-7.1-5.9-14.5-11.3-22.3-16.1
		c1.9-2.4,3.8-4.7,5.7-7.1c8.4,5.3,16.4,11.2,24.1,17.6C363.8,105.3,337.7,125.7,312.6,146.1z M355.8,71.2c-8.3-4.9-17-9.2-26-12.9
		c1.4-2.7,2.7-5.5,4.1-8.2c9.8,4.1,19.3,8.9,28.4,14.3C360.1,66.7,357.9,68.9,355.8,71.2z M31.5,254.7c0-0.6,0-1.2,0-1.8
		C31.5,253.5,31.5,254.1,31.5,254.7z M49.5,251.4c0-4.9,0.2-9.8,0.5-14.6c16-0.7,32-1.5,48.1-2.2c12.6-0.6,25.1-1.2,37.7-1.7
		l-3.5,13c-8.8,3.2-17.5,6.4-26.1,9.6c-19.9,7.4-39.2,15-58.1,22.6c1-0.4,2-0.8,3-1.3C50,268.5,49.5,260,49.5,251.4z M69,319.7
		c16.4-12.5,33.5-25.1,51.6-37.4c0.8-0.5,1.5-1,2.3-1.5l6.4-23.4c-6.7,1.6-13.3,3.3-19.8,5c-22.4,5.8-44.3,11.5-65.7,17.4
		c-0.1,0-0.1,0.1-0.2,0.1c0,0,0,0,0,0c0,0-0.1,0-0.1,0c0,0,0.1,0,0.1,0c-1.3-9.3-1.9-18.8-1.9-28.4c0-4.8,0.2-9.6,0.5-14.3l4-0.2
		c-4.4,0.2-8.8,0.4-13.1,0.6c-0.3,4.6-0.5,9.2-0.5,13.9c0,49.5,16.5,95,44.2,131.6c0,0.6,0,1.3,0,1.9c-15.1-19.7-26.5-41.3-34-63.8
		L32.6,331c11.6,31.8,30,60.4,53.4,83.9c15.2-55.4,17.8-64.9,34-123.5C102.3,300.7,85.4,310.3,69,319.7z M43.6,280
		c2.5-0.7,5-1.4,7.6-2.1c5,38.4,20.9,73.4,44.4,101.8l-2.5,9.1C67,358.8,49.3,321.3,43.6,280z M48,200.5
		c-2.9,11.2-4.8,22.8-5.7,34.7c-3.1,0.5-6.2,0.9-9.3,1.4c1-12.8,3-25.3,5.9-37.3c4.4,0.6,8.8,1.2,13.2,1.7L48,200.5z M33.2,279.2
		c0,0.3,0.1,0.5,0.1,0.8C33.3,279.7,33.2,279.5,33.2,279.2z M477.6,238.2l-8.3-0.4c0-0.1,0-0.1,0-0.2l6.2,0.3L477.6,238.2z
		 M32.7,275c0-0.4-0.1-0.8-0.1-1.2C32.6,274.2,32.7,274.6,32.7,275z M397.4,419.9l1.5,6.4c-40,34-91.8,54.5-148.4,54.5
		s-108.4-20.5-148.4-54.5l1.5-6.4c39.3,34.3,90.7,55.1,146.9,55.1S358.1,454.2,397.4,419.9z M449.8,277.9
		c-5,38.4-20.9,73.4-44.4,101.8c-7.7-28.2-12.4-45-24.2-88.2c17.6,9.3,34.4,18.8,50.8,28.2c-16.4-12.5-33.6-25.1-51.7-37.4
		c-0.7-0.4-1.3-0.9-2-1.3l-6.5-23.5c6.6,1.7,13.1,3.3,19.6,5C411.2,267.6,430.6,272.7,449.8,277.9z M31.6,259.8c0-0.6,0-1.2-0.1-1.7
		C31.6,258.7,31.6,259.2,31.6,259.8z M18.7,257.1c0,0.5,0,1,0.1,1.6C18.7,258.2,18.7,257.7,18.7,257.1z M19,264.4
		c0-0.5-0.1-1.1-0.1-1.6C18.9,263.4,18.9,263.9,19,264.4z M19.2,268.7c0,0.4,0.1,0.9,0.1,1.3C19.3,269.5,19.3,269.1,19.2,268.7z
		 M31.6,242.8c0,0.5,0,1,0,1.5C31.6,243.8,31.6,243.3,31.6,242.8z M19.8,275.4c0-0.2,0-0.5-0.1-0.7
		C19.8,274.9,19.8,275.2,19.8,275.4z M31.8,263.2c0,0.5,0.1,1.1,0.1,1.6C31.8,264.3,31.8,263.8,31.8,263.2z M32.1,268.5
		c0,0.5,0.1,1,0.1,1.5C32.2,269.4,32.1,268.9,32.1,268.5z M31.5,247.8c0,0.6,0,1.2,0,1.7C31.5,249,31.5,248.4,31.5,247.8z M322,74.1
		c1.4-2.9,2.9-5.9,4.3-8.8c8.3,3.4,16.3,7.3,23.9,11.7c-2.1,2.2-4.1,4.4-6.2,6.6C328,101,312.8,118.5,298.2,136
		c-1.1-0.7-2.3-1.3-3.5-2C303.4,114,312.3,94,322,74.1z M106.4,88.1c2.3,2,4.6,4,6.8,5.9c-3.6,3.2-7.1,6.4-10.4,9.8
		c-2.6,2.7-5.2,5.4-7.7,8.2c-2.7-1.5-5.5-2.9-8.2-4.4C93,100.7,99.5,94.2,106.4,88.1z M457.4,280c-1.4-0.4-2.8-0.8-4.2-1.2
		c1.3,0.4,2.7,0.7,4,1.1C457.3,279.9,457.3,280,457.4,280z M108.3,109.3c3.5-3.5,7.2-6.9,10.9-10.1c2.2,2,4.4,3.9,6.6,5.9
		c18.3,16.4,35.6,33.2,52.5,49.8c-0.8,0.8-1.6,1.5-2.4,2.3c-20.8-12.2-42.2-24.4-64.3-36.4c-3.1-1.7-6.3-3.4-9.5-5.1
		C104.1,113.5,106.2,111.4,108.3,109.3z M83.7,111.4c2.6,1.6,5.2,3.3,7.8,4.9c-5.6,6.4-10.7,13.3-15.4,20.4c1.3,0.5,2.5,0.9,3.8,1.4
		c-4.2-1.5-8.4-3.1-12.7-4.6C72.3,125.8,77.7,118.4,83.7,111.4z M64.9,137.3c2.8,1.2,5.6,2.5,8.4,3.7c-4.8,7.6-9,15.5-12.8,23.7
		c2.6,0.6,5.2,1.1,7.9,1.6c3.6-7.6,7.6-15,12.1-22c5.1,2.3,10.2,4.6,15.2,6.9c20.6,9.5,40.7,19.1,60.3,28.8
		c-1.1,1.4-2.1,2.8-3.1,4.2c-20.4-4.4-40.9-8.7-61.8-13.1c-13.1-2.7-26.4-5.5-39.8-8.2C55.4,154,59.9,145.5,64.9,137.3z
		 M323.4,350.9l-38.7,38.5l12.4,44.2c-3.7,1.2-7.5,2.3-11.3,3.2l-6.5-50.1L323.4,350.9z M133.9,67.4c1.9,2.4,3.8,4.8,5.7,7.1
		c-7.8,4.8-15.2,10.2-22.2,16.1c0.3,0.3,0.6,0.5,0.9,0.7c-2.8-2.1-5.6-4.2-8.4-6.3C117.5,78.6,125.5,72.7,133.9,67.4z M123.8,95.4
		c6.6-5.3,13.4-10.3,20.7-14.7c1.8,2.2,3.6,4.5,5.3,6.7c14.5,18.7,28.2,37.6,41.4,56.5c-1,0.7-1.9,1.5-2.8,2.2
		c-21.2-17.3-43.3-34.5-66.1-51.8C122.8,94.7,123.3,95,123.8,95.4z M83.6,139.4c4.5-6.7,9.3-12.9,14.4-18.9c3.2,2,6.3,4,9.5,6.1
		c20.5,13.3,40.1,26.8,59.2,40.3c-0.9,1-1.7,2-2.6,2.9c-21.6-8.4-43.6-16.8-66.1-25.1C93.3,143,88.5,141.2,83.6,139.4z M192.7,215.8
		c0,0,10.7-7.3,17.7-5.4c5.6,2.1,8.2,5.6,8.2,5.6c-8.5,2.5-22,4.4-27.2,7C190.8,221.9,191.3,219.2,192.7,215.8z M150.6,77
		c7.7-4.4,15.7-8.3,24-11.7c1.4,2.9,2.9,5.9,4.3,8.8c9.6,19.9,18.6,40,27.3,60c-1.2,0.6-2.3,1.3-3.5,2c-14.8-17.5-29.9-35.1-46-52.5
		c-5.9-6.4-12-12.8-18.1-19.1c9.1-5.4,18.6-10.2,28.4-14.3c1.4,2.7,2.7,5.4,4.1,8.1c-9,3.7-17.7,8-26,12.9
		C146.9,73.1,148.8,75.1,150.6,77z M146.2,201.3c-18.5-0.8-37-1.6-55.6-2.4c-11.3-0.5-22.6-1-33.9-1.5c2.6-9.1,5.7-17.9,9.5-26.4
		c-2.5-0.7-5-1.5-7.5-2.2c-4,9.1-7.3,18.5-9.9,28.3c-3.1-0.1-6.2-0.3-9.3-0.4c2.8-10.5,6.3-20.7,10.4-30.5
		C63.5,170.1,77,174,90.4,178c19.4,5.7,38.5,11.5,57.4,17.3L146.2,201.3z"/>
	<path fill="#0699A9" d="M266,200.4c1.1,1.4,2.7,4.3,9.8,6.3c-0.2-0.3-0.3-0.5-0.5-0.7c2.7-1.4,9.5-5,15.6-4.9
		c-6,2.1-8.7,3.9-12.2,5.8c0.8,1,1.5,1.9,2.2,2.8C275,209.9,269.5,207.5,266,200.4z M153.7,205.1l-4.5,24.5
		c8.7-14.5,49.3-59,100.2-59c50.9,0,93.6,44.5,102.3,59l-3.2-24.5c-10.5-28.8-46.6-71.3-99.1-71.3S164.3,176.3,153.7,205.1z
		 M171.1,58.3C171.1,58.3,171.1,58.3,171.1,58.3c-9,3.7-17.7,8-26,12.9c1.8,1.9,3.7,3.9,5.5,5.8c7.7-4.4,15.7-8.3,24-11.7
		c0,0,0,0,0,0C173.4,63,172.3,60.6,171.1,58.3z M225.2,206.7c0.2-0.3,0.3-0.5,0.5-0.7c-2.7-1.4-9.5-5-15.6-4.9
		c6,2.1,8.7,3.9,12.2,5.8c-0.8,1-1.5,1.9-2.2,2.8c5.9,0.2,11.4-2.2,14.9-9.3C233.9,201.8,232.3,204.7,225.2,206.7z M50.3,234.1
		C50.3,234.1,50.3,234,50.3,234.1c0.9-11.1,2.8-22,5.5-32.6c0,0,0,0,0,0l-3.7-0.5l-4.1-0.5c-2.9,11.2-4.8,22.8-5.7,34.7
		c0,0,0,0.1,0,0.1L50.3,234.1z M254.2,50.5C254.2,50.5,254.2,50.5,254.2,50.5c10.3,0.2,20.4,1.1,30.2,2.8c0.2-0.5,0.3-1,0.5-1.5
		c0.4-1.3,0.8-2.5,1.3-3.8c0.3-0.8,0.5-1.5,0.8-2.3c-10.8-1.9-21.8-2.9-33.1-3.1c0,0,0,0,0,0C253.9,45.3,254.1,47.9,254.2,50.5z
		 M358.5,419.9l-0.9-5.4c-30.7,20.3-67.5,32.1-107,32.1s-76.3-11.8-107-32.1l-0.9,5.4c31.1,20,68.2,31.7,108,31.7
		C290.3,451.6,327.3,440,358.5,419.9z M371.1,351.8l-21-100.4l17.3,103.8l-20.6-98.8l18.7,112.1l-22-105.4l19.6,117.8l-23.4-112
		l27.1,162.9c9.6-6.1,18.5-13,26.9-20.5l-38-170.4l21,116l-23.2-111L371.1,351.8z M107.3,411.3c8.4,7.5,17.4,14.4,26.9,20.5
		l27.1-162.9l-23.4,112l19.6-117.8l-22,105.4l18.7-112.1l-20.6,98.8l17.3-103.8l-21,100.4l17.6-105.9l-23.2,111l21-116L107.3,411.3z
		 M350.3,77c1.8-1.9,3.7-3.9,5.5-5.8c0,0,0,0,0,0c-8.3-4.9-17-9.2-26-12.9c0,0,0,0,0,0c-1.2,2.3-2.3,4.6-3.5,7c0,0,0,0,0,0
		C334.6,68.7,342.6,72.6,350.3,77C350.3,77,350.3,77,350.3,77z M383.6,90.6c-7.1-5.9-14.5-11.3-22.3-16.1c0,0-0.1,0-0.1-0.1
		c-1.6,2.1-3.3,4.1-4.9,6.1c0,0,0.1,0.1,0.1,0.1c7.3,4.5,14.2,9.5,20.8,14.8C379.3,93.8,381.5,92.2,383.6,90.6z M58.7,168.8
		c-4,9.1-7.3,18.5-9.9,28.3c0,0,0,0.1,0,0.1l7.9,0.4c0-0.1,0-0.1,0-0.2c2.6-9.1,5.7-17.9,9.5-26.4C63.7,170.3,61.2,169.5,58.7,168.8
		z M207.4,47.2C197,49.4,187,52.3,177.2,56c0,0-0.1,0-0.1,0c1.4,2.2,2.8,4.4,4.3,6.7c0,0,0,0,0,0c8.9-3.2,18.2-5.9,27.7-7.9
		C208.5,52.3,208,49.7,207.4,47.2z M41.7,251.5c0,9.6,0.6,19.1,1.9,28.4c0,0,0,0,0,0c0,0,0,0,0,0c0.1,0,0.1-0.1,0.2-0.1
		c1.4-0.6,2.9-1.2,4.3-1.8c1-0.4,2-0.8,3-1.3c-1.1-8.3-1.6-16.8-1.6-25.4c0-4.9,0.2-9.8,0.5-14.6c0,0,0,0,0,0l-3.8,0.2l-4,0.2
		C41.9,241.9,41.7,246.7,41.7,251.5z M95.1,112C95.1,112,95.1,112,95.1,112c2.4,1.3,4.7,2.5,7,3.7c0,0,0,0,0,0
		c2-2.2,4.1-4.3,6.2-6.4c3.5-3.5,7.2-6.9,10.9-10.1c0,0,0,0,0,0c-2-1.7-3.9-3.5-5.9-5.2c0,0,0,0-0.1,0c-3.6,3.2-7.1,6.4-10.4,9.8
		C100.2,106.5,97.6,109.2,95.1,112z M398.8,115.7c2.4-1.3,4.7-2.5,7.1-3.8c-2.5-2.8-5.1-5.5-7.7-8.1c-3.4-3.4-7-6.6-10.6-9.8
		c-2,1.7-3.9,3.5-5.8,5.1c3.7,3.3,7.4,6.7,10.9,10.2C394.8,111.4,396.8,113.5,398.8,115.7z M424.9,136.6
		c-4.7-7.1-9.9-13.9-15.4-20.4c0,0,0,0,0,0c-2.2,1.4-4.4,2.8-6.6,4.1c0,0,0.1,0.1,0.1,0.1c5.2,6.1,10,12.3,14.4,18.9
		C419.9,138.4,422.4,137.5,424.9,136.6z M215.1,49.2c0.1,0.3,0.2,0.5,0.3,0.8c0.4,1.1,0.8,2.2,1.2,3.3c9.8-1.6,19.9-2.6,30.2-2.8
		c0,0,0,0,0,0c0.1-2.6,0.3-5.2,0.4-7.8c0,0,0,0,0,0c-11.2,0.2-22.3,1.3-33.1,3.2C214.4,47,214.7,48.1,215.1,49.2z M118.3,91.3
		c1.3,1,2.6,2,4,3c0.5,0.4,1,0.7,1.5,1.1c6.6-5.3,13.4-10.3,20.7-14.7c0,0,0.1,0,0.1-0.1c-1.6-2-3.3-4.1-4.9-6.1c0,0,0,0-0.1,0
		c-7.8,4.8-15.2,10.2-22.2,16.1C117.7,90.9,118,91.1,118.3,91.3z M434.6,170.9c3.8,8.6,7,17.4,9.5,26.5c0,0,0,0,0,0.1l8-0.3
		c0,0,0-0.1,0-0.1c-2.6-9.8-5.9-19.2-9.9-28.4C439.7,169.4,437.2,170.1,434.6,170.9z M453.2,278.8c-1.1-0.3-2.3-0.6-3.4-0.9
		c0,0,0,0,0,0c-5,38.4-20.9,73.4-44.4,101.8c0,0,0,0,0,0l2.5,9.1c0,0,0,0,0,0c26.1-30,43.9-67.5,49.5-108.8
		C456,279.6,454.6,279.2,453.2,278.8z M79.9,138.1c1.2,0.5,2.5,0.9,3.7,1.4c0,0,0,0,0-0.1c4.5-6.7,9.3-12.9,14.4-18.9c0,0,0,0,0,0
		c-2.2-1.4-4.4-2.8-6.6-4.2c0,0,0,0,0,0c-5.6,6.4-10.7,13.3-15.4,20.4C77.4,137.2,78.6,137.6,79.9,138.1z M51.2,277.9
		c-2.6,0.7-5.1,1.4-7.6,2.1c5.7,41.3,23.4,78.8,49.5,108.8l2.5-9.1C72.1,351.3,56.2,316.3,51.2,277.9z M420.6,144.2
		c4.5,7.1,8.5,14.4,12.1,22.1c0,0,0,0,0,0c2.6-0.5,5.2-1.1,7.8-1.6c0,0,0,0,0,0c-3.8-8.3-8-16.2-12.8-23.8
		C425.3,142,422.9,143.1,420.6,144.2z M68.4,166.3c3.6-7.6,7.6-15,12.1-22c0,0,0,0,0-0.1c-2.4-1-4.8-2.1-7.2-3.2c0,0,0,0,0,0
		c-4.8,7.6-9,15.5-12.8,23.7C63.1,165.3,65.7,165.8,68.4,166.3z M323.6,55.9c-9.7-3.7-19.8-6.6-30.2-8.8c-0.6,2.5-1.1,5.1-1.7,7.6
		c9.5,2,18.8,4.6,27.7,7.9C320.8,60.4,322.2,58.1,323.6,55.9z M445.3,201.4c2.7,10.6,4.5,21.5,5.5,32.7c0,0,0,0,0,0l7.9,1.2
		c0,0,0,0,0-0.1c-0.9-12-2.9-23.6-5.7-34.8L445.3,201.4z M457.4,280C457.4,280,457.4,280,457.4,280c1.2-9.3,1.9-18.8,1.9-28.5
		c0-4.8-0.2-9.6-0.5-14.3l-7.8-0.3c0.3,4.8,0.5,9.7,0.5,14.6c0,8.7-0.5,17.2-1.6,25.5c0,0,0,0,0,0c2.4,1,4.9,1.9,7.3,2.9
		C457.3,279.9,457.3,280,457.4,280C457.4,280,457.4,280,457.4,280z"/>
	<path fill="#DBC79C" d="M146.3,218.3L93.6,448.7l-6.7-11.5L146.3,218.3z M299.7,203.7c-5.2-1-16.1,5.3-19.5,8.4
		c-1.1-0.5-2.4-0.6-3.5-1.2c0.6,0.9,1.3,1.5,2.2,1.9c1.8-0.4,3.5-0.9,5.1-1.4c-0.5,0.1-1,0.1-1.5,0.2c3.1-1.4,7.9-3.6,10.4-4.6
		c5.6-0.7,13.9,3.9,13.9,3.9c0.7-0.1,1.8-0.7,2.1-1.2c0,0-6.3-3.6-11.6-4.9C297.4,204.5,298.8,204,299.7,203.7z M407.4,448.7
		l6.6-11.5l-59.3-218.9L407.4,448.7z M268.1,191.9c-0.5,0-1,0-1.5,0c0.9,2.6,3.5,6.8,8.7,8.4l25.2-7.2c-9.4-6-20-11.1-31.5-14
		C268.2,183.8,268.1,191.5,268.1,191.9z M462.6,196.7l13.1-0.6c-2.8-11.6-6.6-22.9-11.1-33.8c-4.2,1.2-8.3,2.4-12.5,3.5
		C456.3,175.8,459.9,186.1,462.6,196.7z M434.8,133.1c4.1-1.5,8.3-2.9,12.4-4.4c-5.4-8.7-11.4-16.9-17.9-24.8
		c-3.7,2.2-7.4,4.5-11,6.8C424.2,117.8,429.8,125.3,434.8,133.1z M133.2,66.5c-2.7-3.4-5.4-6.7-8.2-10c-9.3,6-18.2,12.7-26.6,20
		c3.5,2.6,7,5.2,10.5,7.9C116.6,77.9,124.7,71.9,133.2,66.5z M166.5,49.1c-2-3.8-3.9-7.6-5.9-11.4c-11.1,4.7-21.8,10.2-32,16.5
		c3.1,3.2,6.1,6.3,9.2,9.4C147,58.1,156.5,53.2,166.5,49.1z M247.7,32.4c0.2-4.3,0.4-8.5,0.7-12.8c-14.3,0.1-28.4,1.6-42,4.2
		c1.4,4.1,2.8,8.2,4.3,12.2C222.7,33.8,235.1,32.6,247.7,32.4z M205.2,37.2c-0.9-4.2-1.8-8.3-2.8-12.5c-13.1,2.8-25.8,6.6-38,11.5
		c2.4,3.6,4.8,7.3,7.1,11C182.4,43,193.6,39.6,205.2,37.2z M82.7,110.7c-3.6-2.2-7.3-4.5-11-6.8c-6.5,7.8-12.5,16.1-17.9,24.8
		c4.1,1.5,8.2,3,12.4,4.4C71.2,125.4,76.7,117.9,82.7,110.7z M95.6,96.6c3.2-3.2,6.5-6.3,9.9-9.3c-3.2-2.8-6.5-5.6-9.8-8.4
		C88,85.8,80.8,93.2,74.1,101c3.9,2,7.8,4.1,11.7,6.1C88.9,103.5,92.2,100,95.6,96.6z M63.8,136.7c-3.9-1.7-7.8-3.5-11.8-5.2
		c-5.5,9.1-10.4,18.6-14.6,28.5c4.3,0.9,8.6,1.8,12.8,2.6C54.1,153.7,58.7,145.1,63.8,136.7z M290.3,36.1c1.4-4,2.8-8.1,4.2-12.2
		c-13.6-2.7-27.7-4.1-42-4.2c0.2,4.2,0.5,8.5,0.8,12.8C265.9,32.7,278.3,33.9,290.3,36.1z M415.1,107c3.9-2,7.8-4.1,11.7-6.1
		c-6.7-7.8-13.9-15.2-21.6-22.1c-3.3,2.8-6.6,5.6-9.9,8.4C402.3,93.4,408.9,100,415.1,107z M363.1,63.6c3-3.1,6.1-6.3,9.2-9.4
		c-10.2-6.3-20.9-11.8-32-16.5c-1.9,3.8-3.9,7.6-5.9,11.4C344.4,53.3,354,58.1,363.1,63.6z M336.4,36.1
		c-12.1-4.9-24.8-8.7-37.9-11.5c-1,4.2-1.9,8.3-2.8,12.6c11.5,2.4,22.8,5.7,33.6,9.9C331.6,43.4,334,39.8,336.4,36.1z M392,84.3
		c3.5-2.6,7.1-5.2,10.6-7.8c-8.4-7.3-17.3-14.1-26.7-20.1c-2.8,3.3-5.5,6.7-8.2,10C376.2,71.8,384.3,77.8,392,84.3z M42.8,321.2
		c-4.5-13.5-7.7-27.3-9.5-41.2c0-0.3-0.1-0.5-0.1-0.8c-0.2-1.4-0.3-2.8-0.5-4.2c0-0.4-0.1-0.8-0.1-1.2c-0.1-1.3-0.2-2.5-0.4-3.8
		c0-0.5-0.1-1-0.1-1.5c-0.1-1.2-0.2-2.4-0.2-3.6c0-0.5-0.1-1.1-0.1-1.6c-0.1-1.1-0.1-2.3-0.2-3.4c0-0.6,0-1.2-0.1-1.7
		c0-1.1-0.1-2.2-0.1-3.4c0-0.6,0-1.2,0-1.8c0-1.1,0-2.2,0-3.4c0-0.6,0-1.2,0-1.7c0-1.2,0.1-2.4,0.1-3.6c0-0.5,0-1,0-1.5
		c0.1-1.7,0.2-3.4,0.3-5.1l-8.8,0.4l8.8-1.3c0.9-12.7,2.9-25.3,5.9-37.7L25,197.4c-4.2,17.4-6.4,35.5-6.4,54.1c0,1.9,0,3.8,0.1,5.6
		c0,0.5,0,1,0.1,1.6c0,1.4,0.1,2.8,0.2,4.1c0,0.5,0.1,1.1,0.1,1.6c0.1,1.4,0.2,2.8,0.3,4.2c0,0.4,0.1,0.9,0.1,1.3
		c0.1,1.6,0.3,3.1,0.4,4.7c0,0.2,0,0.5,0.1,0.7c2,19.3,6.3,38,12.8,55.6l0,0L42.8,321.2L42.8,321.2z M450.8,162.6
		c4.2-0.9,8.5-1.7,12.8-2.6c-4.3-9.9-9.2-19.4-14.7-28.5c-3.9,1.7-7.9,3.5-11.8,5.2C442.2,145,446.8,153.6,450.8,162.6z M48.8,165.9
		c-4.1-1.2-8.2-2.4-12.4-3.6c-4.5,10.9-8.2,22.2-11.1,33.8l13.1,0.6C41.1,186.2,44.5,175.9,48.8,165.9z M194.2,210.9
		c0,0,8.3-4.6,13.9-3.9c2.5,1,7.3,3.2,10.4,4.6c-0.5-0.1-1-0.1-1.5-0.2c1.6,0.5,3.3,1,5.1,1.4c0.9-0.4,1.6-1,2.2-1.9
		c-1.1,0.6-2.4,0.7-3.5,1.2c-3.4-3.1-14.3-9.4-19.5-8.4c0.9,0.3,2.3,0.8,2.4,1.1c-5.3,1.3-11.6,4.9-11.6,4.9
		C192.4,210.2,193.5,210.8,194.2,210.9z M232,179.1c-11.6,2.9-22.2,8-31.6,14l25.3,7.2c5.2-1.6,7.8-5.8,8.7-8.4c-0.5,0-1,0-1.5,0
		C233,191.5,232.8,183.8,232,179.1z M292.6,291.1l0.3-0.1c-1-8.8-1.2-28-6.6-37.6c0,0,0,0,0,0c-2.1-3.4-4.7-5.6-7.9-5.1
		c0.7,2.8,1.2,5.2,0.9,5.7c-0.4,0.7-3.1,2.2-5.3,3.3c-0.9,0.6-2,1.1-3.1,1.6c-1.6,0.5-3.1,0.9-4,1c-1.9,2-4.1,4.1-4.9,4.7
		c-1.6,1,4.6,10.2,4.6,10.2S284.8,282,292.6,291.1z M214.6,253.5c0.1-0.1,0.1-0.1,0.1-0.1c-1,1.8-1.8,3.9-2.5,6.3
		c-0.3,1.2-0.7,2.4-0.9,3.7c-0.1,0.4-0.2,0.8-0.3,1.3c-0.3,1.7-0.6,3.5-0.9,5.2c-0.1,0.4-0.1,0.9-0.2,1.3c-1,7.5-1.3,15.2-1.8,19.8
		l0.3,0.1c7.8-9.1,26-16.3,26-16.3s6.2-9.2,4.6-10.2c-0.8-0.6-3-2.7-4.9-4.7c-0.1,0-0.2,0-0.2,0c-0.6-0.1-1.5-0.3-2.4-0.6
		c-0.4-0.1-0.9-0.3-1.3-0.4c-1.1-0.5-2.2-1-3.1-1.6c-1.7-0.9-3.7-1.9-4.7-2.7c-0.3-0.2-0.5-0.4-0.6-0.6c-0.3-0.5,0.2-2.9,0.9-5.7
		c-0.1,0-0.2,0-0.3,0C219.1,248,216.6,250.1,214.6,253.5z M286.3,253.4C286.4,253.4,286.4,253.5,286.3,253.4
		C286.4,253.4,286.4,253.4,286.3,253.4z M269.2,367.2c7.1-4.4,35.7-26.1,35.9-27.5c0.2-1.5-2.5-24-2.7-31.4
		c-0.2-7.4-2.2-35.8-4.4-38.6c0,0-0.5,13.2-0.9,17.3c-0.2,2.2-0.5,5.6-0.9,8.8c0.4,3.3,0.8,6.1,0.7,6.6c-0.3,0.9-2.2,3-3.6,4.4
		c-3.6,6.4-10.6,16.9-10.6,16.9s9.7-5.1,7.8-1.4c-1.7,3.4-14.4,26.1-13.7-3.1c-0.5,0.3-0.9,0.6-0.9,0.6s-13.1-6.8-17.4-9.7
		c-3.2-2.2-4.7-1.5-5.3-1.1c-0.2,0.1-0.2,0.3-0.2,0.3s0.4,1.6,0.1,4.5c-0.3,3,2.9,6.9,2.9,6.9c3.3,0.8,6.2,2.5,8.3,4.1
		c0.9,0.4,1.7,1,2.6,2.2c0.1,0.1,0.1,0.1,0.2,0.2c0.3,0.3,0.5,0.5,0.5,0.5l-0.3-0.1l0.1,0.1c0,0,7.5,4.3,8.5,9.9
		c-20.1-14.2-30.9-14.2-51,0c1-5.6,8.5-9.9,8.5-9.9c1.4-2.2,2.6-2.8,3.9-3.3c0,0,0,0,0.1,0c2.1-1.4,4.8-3,7.9-3.7
		c0,0,0.1-0.1,0.1-0.2c0.6-0.8,3-4.2,2.8-6.7c-0.3-3,0.1-4.5,0.1-4.5s-1.2-2.1-5.5,0.8c-4.2,2.9-17.4,9.7-17.4,9.7s-0.5-0.3-1.2-0.9
		c0.8,29.7-11.9,6.9-13.7,3.4c-1.8-3.7,7.8,1.4,7.8,1.4s-7-10.5-10.6-16.9c-1.5-1.4-3.4-3.5-3.7-4.4c-0.1-0.5,0.2-3.3,0.7-6.6
		c-0.3-3.1-0.7-6.6-0.9-8.8c-0.5-4.1-0.9-17.3-0.9-17.3c-2.2,2.9-4.2,31.2-4.4,38.6c-0.3,7.4-2.9,29.8-2.7,31.4
		c0.2,1.4,28.2,22.6,35.7,27.3c0.1,0.1,0.2,0.1,0.3,0.2c0.7-3.8,0.4-11,18.7-11c6.1,0,10.2,0.8,12.9,2
		C268.8,360.6,268.8,364.7,269.2,367.2z M243.5,246.9c4.6,4.5,9.4,4.5,14,0c3.3-3.2,5.2-10.5,5.1-13.4c-0.1-2.2-5.9-22.4-8.7-31.9
		c0,0,0,0,0-0.1c-1.4-0.6-2.4-0.9-3-1c-0.1,0-0.3-0.1-0.4-0.1c0,0,0,0,0,0c0,0,0,0,0,0c-0.6,0-1.4,0.4-3,0.9
		c-0.1,0.1-0.3,0.1-0.4,0.2c0,0,0,0,0,0c-2.8,9.5-8.6,29.8-8.7,32C238.2,236.4,240.1,243.7,243.5,246.9z M230.7,240.9
		c0.6-0.6,3-1.1,4.4-1.4c-0.3-0.9-0.5-1.9-0.6-2.7c-0.1-0.5-0.1-1-0.1-1.5c-1.9,0.9-4.7,2.1-6,2.9c0,0,0,0,0,0.1
		c-0.3,1.2-1.5,4.9-2.6,8.4C227.3,244.7,230.1,241.4,230.7,240.9z M283.8,291.9c-7.3-3.9-14.8-7.9-22.4-5.6c-2.2,2.5-8.2,6.4-11,6.8
		c-4.1-1.8-8.8-4.3-11-6.8c-7.1-2.2-14.1,1.2-21,4.9c4.6-0.2,11.7-4.8,16.5-3.5c4.9,1.2,9.6,8.9,16.1,8.9c6.6,0,10.6-7.7,14.1-8.7
		S273.4,288.4,283.8,291.9z M270.3,241c0.7,0.5,3.5,4,5.1,5.9c0,0,0,0,0,0c-1.1-3.6-2.3-7.6-2.6-8.6c-1.3-0.8-4.1-2-6-2.9
		c0,0,0,0,0,0c-0.2,1.1-0.4,2.6-0.9,4.2C267.3,239.9,269.6,240.4,270.3,241z M482.3,251.6c0-18.6-2.2-36.7-6.4-54.1
		c-4.2,0.6-8.2,1.1-12.4,1.6c-0.1,0-0.3,0-0.4,0.1c3,12.2,5,24.8,5.8,37.7l6.6,1l2.1,0.3l-8.3-0.4l-0.4,0c0.3,4.6,0.4,9.2,0.4,13.8
		c0.3,24.3-3.7,47.7-11.1,69.6l0.1,0.1l10,9.8C477.4,306.3,482.3,279.5,482.3,251.6z"/>
</g>
</svg>
