<?xml version="1.0" encoding="utf-8"?>
<!-- Generator: Adobe Illustrator 21.1.0, SVG Export Plug-In . SVG Version: 6.00 Build 0)  -->
<svg version="1.1" id="Layer_1" xmlns="http://www.w3.org/2000/svg" xmlns:xlink="http://www.w3.org/1999/xlink" x="0px" y="0px"
	 viewBox="0 0 612 792" enable-background="new 0 0 612 792" xml:space="preserve">
<g>
	<path fill="#0B1F2C" d="M301.7,438.2c-0.3,0-0.3-1.2,0.5-2.7c-0.5-0.1-2.8,3.9-0.5,3.9c0.1,0,0.2,0.1,0.4,0.2
		c-2.2,0.1-3.7,1.8-5.2,0.5c0,0.8,1.2,1.1,2,1.1c1.1,0.6,2-0.4,3.3,0.2c0.4,4.4,1.9,9.4,4.4,12.7c2.5-3.5,3.8-8.1,4.2-12.6
		c0.7-0.5,2,0.7,3.5-0.4c0.8,0,1.8,0.1,2.3-1c-3,1.2-3.2-0.5-5.5-0.6c0.1-0.2,0.2-0.2,0.4-0.2c2.2,0,0-4-0.5-3.9
		c0.9,1.6,0.8,2.7,0.5,2.7c-1.5,0-3.3,5.1-4.9,6.3C305,443.3,303.3,438.2,301.7,438.2z M306.6,450.4c0.2-1.4,0.7-2.6,0.6-4.2
		c1.1-0.6,2.3-3.3,2.3-3.3c0,3.7-1.3,6.5-3,9.8c-1.6-3.3-3-6.2-3-9.8c0,0,1.2,2.7,2.3,3.3C305.9,447.7,306.4,449,306.6,450.4
		L306.6,450.4L306.6,450.4z M287.5,427.4c-0.3,0.3,1.3,4.3,1.4,4.7l-1.1-0.7c0-0.1-2.3-2.5-2.1-4.1c0.1-1.1,1.6-2.5,3-3
		c1.4-2.4,8.6-7.2,17.6-6.3c-10.5,0.2-14.9,5.2-15.5,6.3c1.2,0.7,3.3,1.5,4.4,3.6c-1.6-1.3-3.2-2-5-1.9
		C289.3,426,287.8,427,287.5,427.4z M316.2,432.3c0,0-0.3-1.4,0.8-2.7c0,0-1.9,0.8-2.2,2.2c-0.5,3-5.2-1.4-4.5-3.9c0,0-1.7,2-1.5,3
		c0.1,0.9-4.2,0.7-4.4,0c0.1-1-1.5-3-1.5-3c0.8,2.6-4,6.9-4.5,3.9c-0.2-1.3-2.2-2.2-2.2-2.2c1.1,1.3,0.8,2.7,0.8,2.7
		c-0.9-1.7-6.6-3.6-6.6-3.6c1.3,2.2,1.9,3.1,1.9,3.1c-0.6-0.2-1.1-0.5-1.7-0.7c0,0,1.7,2.8,3.4,3.4c1.7,0.6,2.5-1.2,2.5-1.2
		s0.4,0.9,1.4,1.3c0.9,0.4,2.7-1.5,2.7-1.5c-0.5,0.9-1.1,1.9-1.6,2.8c1.7-1.9,2.9-3.7,5.3-4c-3.4,0.6-5,4.3-5.5,5.5
		c-1.5,0.2-3.9,1.2-4.2,2.6c-1.1,2.4,1.1,4.3,2,4.6c-0.1-0.6-0.3-1.1-0.1-1.7l3.4,2.3c1.1,4.2,3.8,9.5,6.7,13
		c2.9-3.5,5.7-8.8,6.7-13l3.4-2.3c0.2,0.5,0,1.1-0.1,1.7c0.9-0.3,3.1-2.2,2-4.6c-0.3-1.4-2.8-2.4-4.2-2.6c-0.4-1.2-2-4.9-5.5-5.5
		c2.3,0.2,3.6,2,5.3,4c-0.5-0.9-1.1-1.9-1.6-2.8c0,0,1.7,1.9,2.7,1.5c0.9-0.4,1.4-1.3,1.4-1.3s0.9,1.8,2.5,1.2
		c1.7-0.6,3.4-3.4,3.4-3.4c-0.6,0.2-1.1,0.5-1.7,0.7c0,0,0.6-0.9,1.9-3.1C322.8,428.7,317.1,430.6,316.2,432.3z M296.2,432.7
		l-0.9,0.8c0,0-1.3,0.1-2.3-3.1c0,0,0.8,0.2,1.6,0.6c-0.2,0.5-0.3,1.3,0.8,1.8l0.2-0.1c-0.6-0.2-0.6-1.1-0.5-1.4
		c0.4,0.2,0.8,0.5,1,0.9C296.7,433.2,296.2,432.7,296.2,432.7z M313.3,438.6c2.1-0.4,4.3,0.2,4.2,3.2l-0.4-0.3
		c-0.9,0.9-4,2.9-5.1,2.7v0.7c0,0.1,0,0.3,0,0.4c0,0.1,0,0.1,0,0.2c0,0.1,0,0.2-0.1,0.4c0,0.1,0,0.2-0.1,0.3c0,0.1-0.1,0.2-0.1,0.4
		c0,0.1-0.1,0.2-0.1,0.3c0,0.1-0.1,0.3-0.1,0.4c0,0.1-0.1,0.2-0.1,0.3c-0.1,0.1-0.1,0.3-0.2,0.4c0,0.1-0.1,0.2-0.2,0.4
		c-0.1,0.2-0.1,0.3-0.2,0.5c-0.1,0.1-0.1,0.3-0.2,0.4c-0.1,0.2-0.1,0.3-0.2,0.5c-0.1,0.1-0.1,0.2-0.2,0.4c0,0.1-0.1,0.2-0.1,0.3
		l0,0.1c-0.7,1.4-1.4,2.8-2,4l0,0c-0.1,0.1-0.1,0.2-0.2,0.3c-0.1,0.1-0.1,0.2-0.2,0.3c-0.1,0.2-0.2,0.3-0.3,0.4
		c0,0.1-0.1,0.2-0.1,0.2c-0.1,0.2-0.2,0.3-0.3,0.5c0,0-0.1,0.1-0.1,0.1c-0.1,0.2-0.2,0.3-0.3,0.5c-0.1-0.1-0.2-0.3-0.3-0.5
		c0-0.1-0.1-0.1-0.1-0.2c-0.1-0.1-0.1-0.2-0.2-0.4c-0.1-0.1-0.1-0.2-0.2-0.3c-0.1-0.1-0.1-0.2-0.2-0.4c-0.1-0.1-0.1-0.2-0.2-0.3
		c0-0.1-0.1-0.2-0.1-0.2l0,0c-0.5-0.9-1.1-2-1.6-3.1l0-0.1c0-0.1-0.1-0.2-0.1-0.2c-0.1-0.2-0.2-0.4-0.3-0.6
		c-0.1-0.1-0.1-0.3-0.2-0.4c-0.1-0.2-0.2-0.4-0.3-0.6c-0.1-0.1-0.1-0.3-0.2-0.4c-0.1-0.2-0.2-0.4-0.2-0.5c-0.1-0.1-0.1-0.3-0.2-0.4
		c-0.1-0.2-0.1-0.3-0.2-0.5c0-0.1-0.1-0.2-0.1-0.4c-0.1-0.2-0.1-0.3-0.2-0.5c0-0.1-0.1-0.2-0.1-0.3c-0.1-0.2-0.1-0.3-0.1-0.4
		c0-0.1-0.1-0.2-0.1-0.3c0-0.1-0.1-0.3-0.1-0.4c0-0.1,0-0.1,0-0.2c0-0.2,0-0.3,0-0.5v-0.7c-1.2,0.2-4.2-1.9-5.1-2.7l-0.4,0.3
		c-0.1-3,2.2-3.7,4.2-3.2c1.2-4.3,4-6,6.7-6C309.3,432.6,312,434.3,313.3,438.6z M317.9,433.5l-0.9-0.8c0,0-0.5,0.5,0.1-0.6
		c0.2-0.3,0.6-0.6,1-0.9c0.1,0.3,0.1,1.2-0.5,1.4l0.2,0.1c1.2-0.5,1-1.4,0.8-1.8c0.8-0.4,1.6-0.6,1.6-0.6
		C319.2,433.6,317.9,433.5,317.9,433.5z M327.5,427.3c0.2,1.6-2.1,4-2.1,4.1l-1.1,0.7c0.2-0.4,1.7-4.4,1.4-4.7
		c-0.3-0.4-1.7-1.4-2.7-1.4c-1.7,0-3.4,0.6-5,1.9c1.1-2.2,3.2-2.9,4.4-3.6c-0.6-1.1-5-6.1-15.5-6.3c9-0.9,16.1,3.9,17.6,6.3
		C325.9,424.8,327.4,426.1,327.5,427.3z M606,225.9c-12.3,2.7-22.8,5.1-35.1,8.3c26.4-24,34.4-45,34.7-78.2l-70.1,36.6l13.5-20.5
		l-30.7,20.1c-36.4,23.8-84.5,29.9-123.8,59.6c-68,51.4,3.2,139.8-61,156.8l2.3-7.3c-4.1,2-8.3,4-12.4,6.1c0-2,0-4,0-6.1
		c-2.6,1.9-5.2,3.8-7.8,5.7c-2.8-1-5.7-1.9-8.5-2.9c-2.8,1-5.7,1.9-8.5,2.9c-2.6-1.9-5.2-3.8-7.8-5.7c0,2,0,4,0,6.1
		c-4.1-2-8.3-4-12.4-6.1l2.3,7.6c-29.8-7.4-32.6-31.5-28.6-82.8c7.1-92.1-106.5-101.4-156.2-134l-30.7-20.1l13.5,20.5L8.6,156
		c0.3,33.2,8.3,54.2,34.7,78.2c-12.3-3.2-22.8-5.7-35.1-8.3c0,24.3,4.9,37.7,29.5,53.3c-9-1.7-16.3-4.3-25-7
		c8.5,25,15,44.9,44.5,55.6l-18.4,2.1c11.7,22.2,21,33,50.5,39.2l-15,2.6c16.4,19.6,26.8,30.4,58.1,28.9l-10.3,3.6l-8.3,1.9
		c8.3,11,27.8,21,51.4,14.2c-8.4,5.4-20.2,11.4-28.6,16.8c9.9,13.2,31.1,10,50.6-5.8c-6.8,7.2-23.6,21.5-30.9,25
		c22,16.3,35.6-3.4,50-18.4c-7.8,11.1-15.6,22.2-23.5,33.3c13.5,7.1,30.9-4.9,43.9-28.1c-1.1,6.2-11.3,23.6-17.3,33.3
		c14.6,3.8,24.3-11,32.8-32.6c-0.7,9.7-2.5,19.3-6.3,28.7c3.5-1.1,14.5-12.6,18.5-27.1c1.5,2.5,3,5.1,4.7,7.8
		c-5.7,13.4-0.6,25.2,4.7,37.4c1.2-0.5,3.6-1.5,5.8-2.4c-1.2,4.9-3.3,9.1-6.5,9.9c0.6,1.4,1.7,5.6,1.4,6.4l-2.3-6.5
		c0.2-0.6,0.2-1.3-0.1-2c-0.4-1-0.9-2-1.6-2.8l-0.2-0.5l-0.1,0.2c-1.1-1.1-2.6-1.8-4.4-1.6c-1.4,0.1-2.6,0.8-3.6,1.8
		c-0.5-1.1-1.6-1.8-2.9-1.9c-0.3,0-0.9,0.1-1.3,0c-0.1,0-0.1-0.1-0.2-0.2c-0.5-0.6-1.2-1-2-1.1c-4.4-0.7-7.5,1.6-8.7,5.8
		c-0.2,0.7-0.2,1.4,0.1,2c0,0.4-0.5,1.5-0.6,1.9c-0.3,0.6-0.3,1.3-0.2,1.9c-0.2,0.8,0,1.5,0.3,2.2c-0.4-0.1-0.8-0.1-1.2,0
		c-2.3,0.2-4,1.9-4.9,3.9c-0.2,0.5-0.3,1.1-0.2,1.6c-0.1,0.7,0.1,1.4,0.5,2.1c-0.6,1-0.6,2.2,0,3.2c0,0.1,0,0.2,0,0.3
		c0.6,4.5,5.3,14.7,13.4,20.3c-3.7-7.3-3.1-12.9-3.3-16.2c0.3,0.7,0.7,1.4,1.1,2.1c1,1.9,8.6,9.8,10,11.5c-0.5-1.3-1.6-5.2-1.7-6.8
		c1.3,2.9,6,13.1,9.6,13.5c0.3,0.7,0.8,1.3,1.4,1.6c0.4,0.4,0.9,0.6,1.4,0.8c2.2,0.6,4.5,0.1,6-1.6c0.7-0.8,1.1-1.8,1.3-2.7
		c0.6-1.1,1.1-2.6,1.1-4.6c0.1-3.1-0.9-9.5-2.8-15.9c0.7-6.6,10.3-26.7,16.3-31.5c1.4-0.7,3.2-1.4,6.5-2.8c16.5,8.8,14.9,8.8,31.4,0
		c3.3,1.4,5,2.1,6.5,2.8c5.9,4.8,15.6,25,16.3,31.5c-1.9,6.4-2.9,12.8-2.8,15.9c0.1,2,0.5,3.5,1.1,4.6c0.1,1,0.5,1.9,1.3,2.7
		c1.5,1.7,3.9,2.2,6,1.6c0.6-0.1,1.1-0.4,1.4-0.8c0.6-0.3,1.1-0.9,1.4-1.6c3.6-0.4,8.3-10.6,9.6-13.5c-0.1,1.6-1.2,5.5-1.7,6.8
		c1.4-1.7,8.9-9.6,10-11.5c0.4-0.7,0.7-1.4,1.1-2.1c-0.3,3.3,0.4,8.9-3.3,16.2c8.1-5.6,12.8-15.8,13.4-20.3c0-0.1,0-0.2,0-0.3
		c0.5-1,0.5-2.2,0-3.2c0.4-0.7,0.6-1.4,0.5-2.1c0.1-0.5,0-1.1-0.2-1.6c-0.8-2.1-2.6-3.7-4.9-3.9c-0.4,0-0.8,0-1.2,0
		c0.4-0.7,0.5-1.4,0.3-2.2c0.1-0.6,0.1-1.3-0.2-1.9c-0.1-0.3-0.6-1.5-0.6-1.9c0.3-0.7,0.3-1.3,0.1-2c-1.2-4.2-4.4-6.4-8.7-5.8
		c-0.8,0.1-1.4,0.5-2,1.1c0,0-0.1,0.1-0.2,0.2c-0.3,0-1,0-1.3,0c-1.3,0-2.4,0.7-2.9,1.9c-0.9-1-2.1-1.7-3.6-1.8
		c-1.8-0.2-3.3,0.5-4.4,1.6l-0.1-0.2l-0.2,0.5c-0.7,0.8-1.3,1.8-1.6,2.8c-0.2,0.7-0.3,1.4-0.1,2l-2.3,6.5c-0.3-0.8,0.7-5,1.4-6.4
		c-3.3-0.7-5.3-5-6.5-9.9c2.2,0.9,4.6,1.9,5.8,2.4c5.4-12.2,10.4-24,4.7-37.4c1.6-2.7,3.2-5.3,4.7-7.8c4,14.5,15.1,26,18.5,27.1
		c-3.7-9.4-5.6-18.9-6.3-28.7c8.5,21.6,18.2,36.4,32.8,32.6c-6-9.8-16.2-27.1-17.3-33.3c13,23.2,30.4,35.2,43.9,28.1
		c-7.8-11.1-15.6-22.2-23.5-33.3c14.4,15,28.1,34.8,50,18.4c-7.3-3.6-24.1-17.8-30.9-25c19.6,15.8,40.8,19,50.6,5.8
		c-8.4-5.4-20.2-11.4-28.6-16.8c23.6,6.7,43.1-3.3,51.4-14.2l-8.3-1.9l-10.3-3.6c31.3,1.5,41.7-9.3,58.1-28.9l-15-2.6
		c29.4-6.2,38.8-17,50.5-39.2l-18.4-2.1c29.5-10.7,35.9-30.6,44.5-55.6c-8.7,2.7-16,5.3-25,7C601.7,263.2,606,249.7,606,225.9z
		 M248.7,446c0.1-3.9-1.8-10.4-5-14.9c-1.1,4.6-3.4,8.4-10.2,13.2c1.4-8.3,1.5-16.4,0.3-22.1c-1.6,8.9-11.1,19.7-21.2,21.9
		c6.3-9.6,10.2-20.6,10.9-29.5c-6.8,13-20.3,24.3-34.9,23.6c9.7-7.9,21.3-21.9,25.3-30.2c-12.5,14.4-31.1,27.8-46.5,18.4l33.1-19.2
		c-8.4,7.7-18.5,14.5-28.2,19.2c14.6,4.4,32-8.8,47.4-27c-2.9,8.7-11.2,23.2-25.3,36c11.4-2.2,27.1-17.4,31.6-30.3
		c-0.8,12.5-1,22.8-8.9,34.7c6.6-3.1,15.4-16,16.8-23.9c3.2,12.3,2.5,16.4,1.8,23.4c3.2-2,6.7-9,6.8-15.2
		C245.6,430.8,249.3,438.3,248.7,446z M244.1,413.9c-2.4-6.2-4.3-12.6-5.9-19.1c4.3,14.3,10.2,25.5,15.4,34.1c0,0.2,0,0.4,0,0.6
		c0,1.6,0.1,3.1,0.2,4.7C250,427.8,246.8,420.8,244.1,413.9z M236.4,361.8c-0.4-7.2-0.3-14.5,0.1-21.6c-2.9,19.2-6.6,29.7-9.5,35.5
		c-9.5,19.5-33,28.3-53.7,31.5c0,0,0,0,0,0c-0.6,0.1-1.1,0.2-1.7,0.2c0,0,0,0,0,0c-0.6,0.1-1.1,0.2-1.7,0.2c0,0,0,0,0,0
		c-0.5,0.1-1.1,0.1-1.6,0.2c0,0,0,0,0,0c-0.5,0.1-1.1,0.1-1.6,0.2c0,0,0,0-0.1,0c-0.5,0.1-1,0.1-1.5,0.1c0,0-0.1,0-0.1,0
		c-0.5,0-1,0.1-1.5,0.1c0,0-0.1,0-0.1,0c-0.5,0-1,0.1-1.5,0.1c0,0-0.1,0-0.1,0c-0.5,0-0.9,0.1-1.4,0.1c0,0-0.1,0-0.1,0
		c-0.5,0-0.9,0-1.4,0.1c-0.1,0-0.1,0-0.2,0c-0.4,0-0.9,0-1.3,0c-0.1,0-0.1,0-0.2,0c-0.4,0-0.9,0-1.3,0c-0.1,0-0.1,0-0.2,0
		c-0.4,0-0.8,0-1.2,0c-0.1,0-0.2,0-0.2,0c-0.4,0-0.8,0-1.2,0c-0.1,0-0.2,0-0.2,0c-0.4,0-0.7,0-1.1,0c-0.1,0-0.2,0-0.3,0
		c-0.4,0-0.7,0-1,0c-0.1,0-0.2,0-0.3,0c-0.3,0-0.6,0-1,0c-0.1,0-0.2,0-0.3,0c-0.3,0-0.6,0-0.9-0.1c-0.1,0-0.2,0-0.3,0
		c-0.3,0-0.6,0-0.9-0.1c-0.1,0-0.2,0-0.3,0c-0.3,0-0.5,0-0.8-0.1c-0.1,0-0.2,0-0.3,0c-0.2,0-0.5,0-0.7-0.1c-0.1,0-0.2,0-0.4,0
		c-0.2,0-0.4-0.1-0.7-0.1c-0.1,0-0.2,0-0.4-0.1c-0.2,0-0.4-0.1-0.6-0.1c-0.1,0-0.2,0-0.4-0.1c-0.2,0-0.4-0.1-0.5-0.1
		c-0.1,0-0.2,0-0.4-0.1c-0.2,0-0.3-0.1-0.5-0.1c-0.1,0-0.2-0.1-0.4-0.1c-0.1,0-0.3-0.1-0.4-0.1c-0.1,0-0.2-0.1-0.4-0.1
		c-0.1,0-0.2-0.1-0.3-0.1c-0.1,0-0.2-0.1-0.4-0.1c-0.1,0-0.2-0.1-0.3-0.1c-0.1,0-0.3-0.1-0.4-0.1c-0.1,0-0.1,0-0.2-0.1
		c-0.2-0.1-0.4-0.1-0.5-0.2c1.3-0.4,2.5-0.9,3.7-1.4c0.4-0.1,0.8-0.3,1.2-0.5c0.8-0.3,1.7-0.7,2.5-1c0.4-0.2,0.9-0.4,1.3-0.5
		c0.8-0.3,1.6-0.7,2.4-1c0.4-0.2,0.8-0.4,1.2-0.5c0.9-0.4,1.8-0.8,2.7-1.3c0.3-0.1,0.5-0.2,0.8-0.4c1.1-0.6,2.3-1.1,3.4-1.7
		c0.3-0.1,0.5-0.3,0.8-0.4c0.8-0.4,1.7-0.9,2.5-1.4c0.4-0.2,0.7-0.4,1.1-0.6c0.7-0.4,1.5-0.8,2.2-1.3c0.4-0.2,0.7-0.4,1.1-0.7
		c0.8-0.5,1.5-0.9,2.3-1.4c6-3.7,11.6-7.7,17-12.1c-9.1,3.3-17.9,6-26.3,8.2c0,0,0,0,0,0c-1,0.2-1.9,0.5-2.9,0.7
		c-0.4,0.1-0.8,0.2-1.2,0.3c-0.7,0.1-1.3,0.3-2,0.4c-0.4,0.1-0.9,0.2-1.3,0.3c-0.6,0.1-1.3,0.3-1.9,0.4c-0.4,0.1-0.8,0.2-1.2,0.2
		c-0.9,0.2-1.7,0.3-2.6,0.5c-0.3,0.1-0.6,0.1-1,0.2c-0.8,0.1-1.6,0.2-2.4,0.4c-0.4,0.1-0.8,0.1-1.1,0.2c-0.6,0.1-1.2,0.2-1.9,0.2
		c-0.4,0-0.8,0.1-1.2,0.1c-0.7,0.1-1.3,0.1-2,0.2c-0.3,0-0.6,0.1-0.9,0.1c-0.9,0.1-1.8,0.1-2.7,0.2c-0.3,0-0.6,0-0.9,0
		c-0.6,0-1.3,0-1.9,0.1c-0.3,0-0.7,0-1,0c-0.6,0-1.2,0-1.8,0c-0.3,0-0.6,0-1,0c-0.8,0-1.7-0.1-2.5-0.1c-0.1,0-0.3,0-0.4,0
		c-0.8-0.1-1.5-0.1-2.3-0.2c-0.3,0-0.6-0.1-0.9-0.1c-0.6-0.1-1.2-0.1-1.7-0.2c-0.3,0-0.6-0.1-0.9-0.1c-0.6-0.1-1.2-0.2-1.8-0.3
		c-0.2,0-0.4-0.1-0.7-0.1c-0.8-0.2-1.6-0.4-2.4-0.6c-0.2-0.1-0.4-0.1-0.6-0.2c-0.6-0.2-1.2-0.3-1.7-0.5c-0.3-0.1-0.5-0.2-0.8-0.3
		c-0.5-0.2-1.1-0.4-1.6-0.6c-0.2-0.1-0.5-0.2-0.7-0.3c-0.7-0.3-1.5-0.6-2.2-0.9c0,0-0.1,0-0.1,0c-0.7-0.3-1.4-0.7-2.1-1
		c-0.2-0.1-0.4-0.2-0.7-0.4c-0.5-0.3-1-0.6-1.5-0.9c-0.2-0.1-0.5-0.3-0.7-0.4c-0.5-0.3-1-0.7-1.5-1c-0.2-0.1-0.3-0.2-0.5-0.3
		c-0.7-0.5-1.3-1-1.9-1.5c-0.2-0.1-0.3-0.3-0.5-0.4c-0.5-0.4-1-0.8-1.4-1.2c-0.2-0.2-0.4-0.4-0.6-0.6c-0.4-0.4-0.9-0.8-1.3-1.3
		c-0.2-0.2-0.4-0.4-0.5-0.6c-0.6-0.6-1.2-1.3-1.7-1.9c0.7-0.1,1.4-0.2,2.1-0.4c0.1,0,0.2,0,0.3-0.1c0.6-0.1,1.2-0.2,1.9-0.3
		c0.3-0.1,0.6-0.1,0.9-0.2c0.5-0.1,0.9-0.2,1.4-0.2c0.4-0.1,0.9-0.2,1.3-0.2c0.3-0.1,0.7-0.1,1-0.2c0.5-0.1,1.1-0.2,1.6-0.3
		c0.3,0,0.5-0.1,0.8-0.1c0.5-0.1,1.1-0.2,1.7-0.3c0.3,0,0.5-0.1,0.8-0.1c0.5-0.1,1.1-0.2,1.6-0.3c0.3-0.1,0.6-0.1,0.9-0.2
		c0.6-0.1,1.1-0.2,1.7-0.3c0.3-0.1,0.6-0.1,0.9-0.2c0.6-0.1,1.2-0.2,1.7-0.3c0.3-0.1,0.6-0.1,0.8-0.2c0.6-0.1,1.2-0.2,1.8-0.3
		c0.3-0.1,0.6-0.1,0.8-0.2c0.6-0.1,1.2-0.2,1.8-0.4c0.3-0.1,0.6-0.1,0.8-0.2c0.6-0.1,1.2-0.2,1.8-0.4c0.3-0.1,0.6-0.1,0.8-0.2
		c0.6-0.1,1.2-0.2,1.8-0.4c0.3-0.1,0.6-0.1,0.9-0.2c0.6-0.1,1.2-0.2,1.7-0.4c0.3-0.1,0.6-0.1,0.8-0.2c0.6-0.1,1.1-0.2,1.7-0.4
		c0.3-0.1,0.6-0.1,0.9-0.2c0.5-0.1,1.1-0.2,1.6-0.4c14.3-3.2,27.1-6.7,32-9.8c-12.9,2.7-25.4,4.2-37.1,4.5c0,0,0,0,0,0
		c-1.1,0-2.2,0-3.3,0c-0.5,0-0.9,0-1.4,0c-0.8,0-1.6,0-2.4,0c-0.5,0-1,0-1.6,0c-0.8,0-1.5,0-2.3-0.1c-0.5,0-0.9,0-1.4-0.1
		c-1.1-0.1-2.2-0.1-3.3-0.2c-0.4,0-0.9-0.1-1.3-0.1c-0.8-0.1-1.5-0.1-2.2-0.2c-0.5,0-1-0.1-1.4-0.2c-0.7-0.1-1.5-0.2-2.2-0.3
		c-0.4-0.1-0.8-0.1-1.2-0.2c-1.1-0.1-2.1-0.3-3.1-0.5c-0.4-0.1-0.8-0.1-1.1-0.2c-0.7-0.1-1.4-0.3-2.1-0.4c-0.4-0.1-0.8-0.2-1.3-0.3
		c-0.7-0.2-1.4-0.3-2.2-0.5c-0.3-0.1-0.7-0.2-1-0.2c-1-0.2-1.9-0.5-2.9-0.8c-0.3-0.1-0.7-0.2-1-0.3c-0.7-0.2-1.3-0.4-2-0.6
		c-0.4-0.1-0.7-0.2-1.1-0.4c-0.7-0.2-1.4-0.5-2.1-0.7c-0.2-0.1-0.5-0.2-0.7-0.3c-0.9-0.3-1.8-0.7-2.6-1.1c-0.3-0.1-0.6-0.2-0.8-0.4
		c-0.6-0.3-1.2-0.6-1.8-0.8c-0.3-0.1-0.6-0.3-0.9-0.4c-0.7-0.3-1.3-0.7-2-1c-0.2-0.1-0.3-0.2-0.5-0.3c-0.8-0.4-1.6-0.9-2.3-1.4
		c-0.2-0.1-0.5-0.3-0.7-0.4c-0.6-0.4-1.1-0.7-1.6-1.1c-0.2-0.2-0.5-0.3-0.7-0.5c-0.6-0.4-1.2-0.9-1.8-1.4c-0.1-0.1-0.2-0.1-0.3-0.2
		c-0.7-0.5-1.3-1.1-2-1.7c-0.2-0.2-0.4-0.3-0.5-0.5c-0.5-0.4-0.9-0.9-1.4-1.3c-0.2-0.2-0.4-0.4-0.5-0.6c-0.5-0.6-1.1-1.1-1.6-1.7
		c0,0-0.1-0.1-0.1-0.1c-0.5-0.6-1-1.3-1.5-2c-0.1-0.2-0.3-0.4-0.4-0.6c-0.4-0.5-0.7-1-1-1.5c-0.1-0.2-0.3-0.4-0.4-0.6
		c-0.4-0.7-0.9-1.4-1.2-2.2c26.9-3.1,53.8-6.1,80.7-9.2c-14.3-0.3-29.1,0.2-43-0.9c0,0,0,0,0,0c-2.7-0.2-5.4-0.5-8.1-0.8
		c-0.1,0-0.2,0-0.2,0c-1.7-0.2-3.4-0.5-5.1-0.8c-0.1,0-0.2,0-0.3-0.1c-0.8-0.1-1.6-0.3-2.5-0.5c0,0,0,0,0,0
		c-0.8-0.2-1.7-0.3-2.5-0.5c-0.1,0-0.2,0-0.3-0.1c-0.7-0.2-1.4-0.3-2.2-0.5c-0.1,0-0.2-0.1-0.3-0.1c-0.8-0.2-1.6-0.4-2.4-0.7
		c0,0-0.1,0-0.1,0c-0.7-0.2-1.4-0.4-2.2-0.7c-0.1,0-0.3-0.1-0.4-0.1c-1.5-0.5-3-1-4.4-1.6c-0.1-0.1-0.3-0.1-0.4-0.2
		c-0.6-0.3-1.3-0.5-1.9-0.8c-0.1,0-0.2-0.1-0.3-0.1c-0.7-0.3-1.4-0.7-2.1-1c-0.1-0.1-0.2-0.1-0.4-0.2c-0.6-0.3-1.2-0.6-1.7-0.9
		c-0.1-0.1-0.3-0.2-0.4-0.2c-0.7-0.4-1.3-0.8-2-1.2c-0.1,0-0.1-0.1-0.1-0.1c-0.6-0.4-1.2-0.8-1.8-1.2c-0.2-0.1-0.3-0.2-0.5-0.3
		c-0.6-0.4-1.2-0.8-1.7-1.3c0,0-0.1-0.1-0.1-0.1c-0.6-0.5-1.2-1-1.8-1.5c-0.1-0.1-0.3-0.2-0.4-0.4c-0.5-0.4-1-0.9-1.4-1.3
		c-0.1-0.1-0.2-0.2-0.3-0.3c-0.6-0.5-1.1-1.1-1.7-1.7c-0.1-0.1-0.2-0.2-0.3-0.3c-0.4-0.5-0.9-1-1.3-1.5c-0.1-0.2-0.3-0.3-0.4-0.5
		c-0.5-0.6-1-1.2-1.5-1.9c0,0-0.1-0.1-0.1-0.1c-0.5-0.6-0.9-1.2-1.4-1.9c-0.1-0.2-0.3-0.4-0.4-0.6c-0.4-0.6-0.8-1.2-1.2-1.8
		c-0.1-0.1-0.1-0.2-0.2-0.3c-0.4-0.7-0.9-1.5-1.3-2.2c-0.1-0.2-0.2-0.4-0.3-0.6c-0.3-0.6-0.7-1.3-1-1.9c-0.1-0.2-0.2-0.4-0.3-0.6
		c-0.4-0.8-0.8-1.6-1.2-2.5c-0.1-0.2-0.1-0.3-0.2-0.5c-0.3-0.7-0.6-1.4-0.9-2.2c-0.1-0.2-0.2-0.5-0.3-0.7c-0.3-0.9-0.7-1.8-1-2.8
		c0.5,0.1,1,0.3,1.5,0.4c0.1,0,0.2,0,0.3,0.1c0.5,0.1,1,0.3,1.6,0.4c0.1,0,0.2,0.1,0.3,0.1c0.6,0.1,1.1,0.3,1.7,0.4
		c0.1,0,0.1,0,0.2,0c0.6,0.1,1.2,0.3,1.8,0.4c0.1,0,0.2,0,0.3,0.1c0.6,0.1,1.3,0.3,1.9,0.4c0.1,0,0.3,0.1,0.4,0.1
		c0.7,0.1,1.3,0.3,2,0.4c0.1,0,0.2,0,0.4,0.1c0.7,0.1,1.4,0.3,2,0.4c0.1,0,0.2,0,0.2,0c0.7,0.1,1.5,0.3,2.2,0.4
		c0.2,0,0.3,0.1,0.5,0.1c0.7,0.1,1.5,0.2,2.2,0.4c0.2,0,0.3,0.1,0.5,0.1c0.8,0.1,1.6,0.3,2.4,0.4c0.1,0,0.1,0,0.2,0
		c0.8,0.1,1.5,0.2,2.3,0.4c0.2,0,0.4,0.1,0.5,0.1c0.8,0.1,1.6,0.2,2.4,0.3c0.2,0,0.4,0.1,0.6,0.1c0.8,0.1,1.6,0.2,2.5,0.3
		c0.1,0,0.3,0,0.4,0.1c0.8,0.1,1.5,0.2,2.3,0.3c0.2,0,0.3,0,0.5,0.1c0.8,0.1,1.6,0.2,2.5,0.3c0.2,0,0.5,0.1,0.7,0.1
		c0.8,0.1,1.6,0.2,2.4,0.3c0.2,0,0.5,0.1,0.7,0.1c0.7,0.1,1.5,0.2,2.2,0.3c0.2,0,0.4,0,0.6,0.1c0.8,0.1,1.6,0.2,2.4,0.3
		c0.3,0,0.5,0.1,0.8,0.1c14,1.5,27.6,2.5,36.5,2.6c-16.9-2.1-32.4-6-45.7-11.3c0,0,0,0,0,0c-3.1-1.2-6.1-2.5-8.9-3.9
		c0,0-0.1,0-0.1,0c-1.9-0.9-3.7-1.8-5.4-2.8c0,0-0.1,0-0.1-0.1c-0.9-0.5-1.7-1-2.6-1.5c0,0,0,0,0,0c-1.7-1-3.3-2-4.8-3
		c-0.1,0-0.1-0.1-0.2-0.1c-1.5-1-3-2.1-4.3-3.1c-0.1,0-0.1-0.1-0.2-0.1c-0.7-0.5-1.3-1-2-1.6c-0.1,0-0.1-0.1-0.2-0.1
		c-0.6-0.5-1.3-1.1-1.9-1.6c0,0,0,0,0,0c-0.6-0.5-1.2-1.1-1.8-1.6c-0.1-0.1-0.2-0.2-0.2-0.2c-0.6-0.6-1.1-1.1-1.7-1.7c0,0,0,0,0,0
		c-0.5-0.5-1-1.1-1.5-1.7c-0.1-0.1-0.1-0.2-0.2-0.2c-0.5-0.6-0.9-1.1-1.4-1.7c-0.1-0.1-0.1-0.2-0.2-0.3c-0.4-0.6-0.9-1.1-1.3-1.7
		c0,0,0,0,0-0.1c-0.4-0.6-0.8-1.2-1.2-1.7c-0.1-0.1-0.1-0.2-0.2-0.3c-0.4-0.6-0.7-1.2-1.1-1.7c0-0.1-0.1-0.1-0.1-0.2
		c-0.3-0.5-0.6-1.1-0.9-1.7c0-0.1-0.1-0.2-0.1-0.3c-0.3-0.6-0.6-1.2-0.8-1.8c0-0.1-0.1-0.2-0.1-0.4c-0.2-0.6-0.5-1.2-0.7-1.8
		c0,0,0,0,0-0.1c-0.2-0.6-0.4-1.2-0.6-1.8c0-0.1-0.1-0.3-0.1-0.4c-0.2-0.6-0.3-1.2-0.4-1.8c0-0.1,0-0.2-0.1-0.3
		c-0.1-0.6-0.2-1.1-0.3-1.7c0-0.1,0-0.2,0-0.3c-0.1-0.6-0.1-1.2-0.2-1.9c0-0.1,0-0.3,0-0.4c0-0.6-0.1-1.3-0.1-1.9
		c1.2,0.3,2.4,0.5,3.6,0.8c0.3,0.1,0.5,0.1,0.8,0.2c1.2,0.3,2.4,0.6,3.6,0.8c0.2,0,0.3,0.1,0.5,0.1c1.1,0.3,2.3,0.5,3.4,0.8
		c0.2,0.1,0.5,0.1,0.7,0.2c1.2,0.3,2.5,0.6,3.8,0.9c0.3,0.1,0.5,0.1,0.8,0.2c1.2,0.3,2.4,0.6,3.6,0.9c0.1,0,0.3,0.1,0.4,0.1
		c1.3,0.3,2.7,0.7,4,1c0.3,0.1,0.5,0.1,0.8,0.2c3.1,0.8,6.2,1.6,9.3,2.4c1,0.3,1.9,0.5,2.9,0.8c0.5,0.1,1,0.3,1.6,0.4
		c0.9,0.2,1.8,0.5,2.8,0.7c0.5,0.1,0.9,0.2,1.4,0.4c8.8,2.3,17.3,4.5,25,6.1c-5.9-2.8-11.4-5.8-16.5-9c0,0,0,0,0,0c0,0,0,0-0.1,0
		c-0.4-0.2-0.7-0.5-1.1-0.7c-0.8-0.5-1.6-1.1-2.4-1.6c-0.5-0.3-1-0.7-1.4-1c-0.7-0.5-1.3-0.9-2-1.4c-0.5-0.4-1-0.7-1.5-1.1
		c-0.6-0.5-1.2-0.9-1.8-1.4c-0.5-0.4-1-0.7-1.4-1.1c-0.6-0.5-1.2-0.9-1.7-1.4c-0.5-0.4-0.9-0.7-1.4-1.1c-0.6-0.5-1.1-1-1.7-1.4
		c-0.4-0.4-0.8-0.7-1.3-1.1c-0.6-0.5-1.2-1.1-1.8-1.6c-0.3-0.3-0.7-0.6-1-0.9c-0.9-0.8-1.8-1.7-2.6-2.5c-0.3-0.3-0.5-0.5-0.7-0.8
		c-0.6-0.6-1.2-1.2-1.8-1.8c-0.3-0.4-0.7-0.7-1-1.1c-0.5-0.5-1-1-1.4-1.6c-0.3-0.4-0.7-0.8-1-1.2c-0.4-0.5-0.9-1-1.3-1.5
		c-0.3-0.4-0.7-0.8-1-1.2c-0.4-0.5-0.8-1-1.2-1.5c-0.3-0.4-0.6-0.8-0.9-1.2c-0.4-0.5-0.8-1-1.2-1.6c-0.3-0.4-0.6-0.7-0.8-1.1
		c-0.4-0.6-0.8-1.1-1.2-1.7c-0.2-0.3-0.5-0.6-0.7-1c-0.6-0.9-1.2-1.8-1.7-2.6c-0.1-0.2-0.2-0.4-0.4-0.6c-0.4-0.7-0.9-1.4-1.3-2.1
		c-0.2-0.3-0.4-0.7-0.6-1c-0.3-0.6-0.6-1.1-0.9-1.7c-0.2-0.4-0.4-0.7-0.6-1.1c-0.3-0.5-0.5-1-0.8-1.6c-0.2-0.4-0.4-0.7-0.6-1.1
		c-0.2-0.5-0.5-1-0.7-1.5c-0.2-0.4-0.3-0.7-0.5-1.1c-0.2-0.5-0.5-1-0.7-1.6c-0.1-0.3-0.3-0.7-0.4-1c-0.2-0.6-0.4-1.1-0.7-1.7
		c-0.1-0.3-0.2-0.6-0.3-0.9c-0.3-0.8-0.6-1.7-0.9-2.5c0-0.1-0.1-0.2-0.1-0.3c-0.2-0.7-0.5-1.5-0.7-2.2c-0.1-0.3-0.2-0.6-0.2-0.9
		c-0.1-0.5-0.3-1.1-0.4-1.6c-0.1-0.3-0.1-0.6-0.2-1c-0.1-0.5-0.2-1-0.3-1.5c-0.1-0.3-0.1-0.6-0.2-1c-0.1-0.5-0.2-0.9-0.2-1.4
		c-0.1-0.3-0.1-0.6-0.1-0.9c-0.1-0.5-0.1-0.9-0.2-1.4c0-0.3-0.1-0.6-0.1-0.9c-0.1-0.5-0.1-1-0.1-1.5c0-0.2,0-0.5-0.1-0.7
		c0-0.7-0.1-1.4-0.1-2.1c26.4,13.8,52.8,27.6,79.2,41.3c18.3,19,50.2,35,77.7,49.6c-16.7-4.1-75-28.3-102.6-48.7
		c12.1,41.4,57.9,56.2,113,70.3c-24.1,0-75.9-7.3-103.3-18.4c14,31.3,61.9,39.5,100.8,38.6c-17,4.7-53.9,6.2-80,3.1
		c23.5,19.9,60.2,23.9,87.8,17.2c-12.2,9.7-32.5,17.8-55,21c19.6,10.4,48.9,10,62.8,1.4c-5.1,8.3-15.4,17.8-28.1,25.9
		c17.5,3.2,32.7-0.1,40.2-4.2c-1.8,6.4-5.8,13.9-11.4,21.3c17.8,0,24.4-12.9,26.9-18.2c-4,7-7.8,11.2-19.6,15.4
		c3.4-5.5,7.8-14.3,11.2-26.8c-7.8,7.4-28.5,10-37.4,9.5c10-7.4,16.4-11.4,26.3-30.2c-20.1,11.9-44.1,10.7-57.9,6.7
		c28.1-4,41.3-16,58.1-29.9c-23.7,9.5-68.9,7.3-90.6-4.9c39.5,3,71.5-3.4,87.1-10.1c-48.4,1.7-94-5.2-112.9-29.5
		c35.9,11.6,80.5,17.2,112.8,13.4c-38.5-9.9-104-25.1-123-61.9c11.6,8.6,71.7,40.1,107.9,43.8c-4.9-3.4-78.7-41.4-94.8-65.8
		c36.9,24.1,85.3,30.6,123.4,59.3c19,14.4,31.4,42.5,29.4,67.7c-1.4,17.9-2.4,41.9,2.1,59.5c2.1,8.2,5.5,15.2,11.2,20.7
		C244.6,397.2,239.2,379.6,236.4,361.8z M253.5,496.9c1-2.4,3.7-2.8,4.9,0.7c-0.5-0.6-1-1.4-2-1.1c0.4,0.2,1.7,0.9,1.8,2.2
		c-1.3-0.8-0.3,2,0,2.7c-1-0.8-1.9-1.1-2.8-1c0.8,0.3,2.1,0.9,2.1,0.9s-0.9,7.5,1.7,13.7c0,0-4.4-5.3-5.3-12.7c0,0,0.2-1.2,0.6-1.8
		c-0.3,0.1-0.6,0.2-0.9,0.4c1.2-1.8,0.7-3.2-0.1-3.2c0.3-0.7,1.3-1,1.9-1.2C254.8,496.1,254.2,496.6,253.5,496.9z M234.3,514.5
		c0,0,0.2-1.2,0.6-1.8c-0.3,0.1-0.6,0.2-0.9,0.4c1.2-1.8,0.7-3.2-0.1-3.2c0.3-0.7,1.3-1,1.9-1.2c-0.6-0.5-1.2,0.1-1.9,0.4
		c1-2.4,3.7-2.8,4.9,0.7c-0.5-0.6-1-1.4-2-1.1c0.4,0.2,1.7,0.9,1.8,2.2c-1.3-0.8-0.3,2,0,2.7c-1-0.8-1.9-1.1-2.8-1
		c0.8,0.3,2.1,0.9,2.1,0.9s-0.9,7.5,1.7,13.7C239.7,527.2,235.3,521.9,234.3,514.5z M246.8,503.3c0,0.8-0.9,0.5-0.6,2.3
		c-0.2-0.1-0.4-0.2-0.6-0.3c-0.2,2-0.8,11.4,2.5,19.3c0,0-6.3-7.6-7.6-18.2c0,0,0.1-0.7,0.3-1.5c-0.2,0.2-0.4,0.4-0.5,0.6
		c0.8-2.2-0.6-2.9-0.6-2.9c0.5-1.5,1.6-2.5,2.6-2.9c-1,0-2,0.8-2.6,1.6c0.6-1.4,1.2-2.9,0.6-4.2c0.8-2.7,2.5-3.8,5-3.4
		c1.3,1.5,2.5,1.2,3.7,1.2c1.2,3.1,0.5,4.9,0,5.8c0.5-0.2,0.8-0.8,1-1.8c0,0.1,0,2.6,0.5,4.9c-0.3,3.2,5.1,5,6.2,11
		c-3.2-5.2-5.7-5.6-6.8-6c-3-2.3-3.1,6-3.1,6c-0.2-4,0-9.7,0.7-11.7c-0.7-1-1.2-2.5-0.7-5.1C246.3,499.5,245.4,500.6,246.8,503.3z
		 M250.5,521c-0.3-1.1-0.6-2.9-0.8-4c0.4-0.5,0.7-1.2,0.7-1.9c0-0.5,0.1-1.6,0.2-2.6c0.2,0.1,0.4,0.2,0.5,0.3
		c0.5,0.3,0.9,0.7,1.3,1.2c2,2.2,3.9,6,3.9,9.7c-2.5-2.3-4.8-4.8-5.8-6.4C250.4,517.8,250.3,520,250.5,521z M263,538
		c0.6-0.4,1.5-0.6,1.5-1.3c-0.5,0.4-1.4,1-2.1,0.9c0.4-0.6-0.4-1.9-2.6-1.9c0.3-0.2,0.6-0.3,0.9-0.5c-0.7-0.1-1.8-0.6-1.8-0.6
		c-5.4-5.1-7.2-11.7-7.2-11.7c3.5,5.8,10.1,9.5,10.1,9.5s-0.2,1.4-0.5,2.2c0.6-0.7,0.9-1.6,0.8-2.8c0.5,0.6,2.1,3.1,2.2,1.6
		c1,0.9,0.7,2.3,0.7,2.8c0.8-0.7,0.4-1.5,0.3-2.3C267.4,536.6,265.5,538.6,263,538z M363.6,521c0.2-1,0.1-3.2,0-3.8
		c-1,1.6-3.3,4-5.8,6.4c0-3.7,1.9-7.5,3.9-9.7c0.4-0.4,0.9-0.9,1.3-1.2c0.2-0.1,0.4-0.2,0.5-0.3c0.1,1,0.2,2.1,0.2,2.6
		c0,0.7,0.3,1.4,0.7,1.9C364.3,518.1,363.9,519.9,363.6,521z M376.2,513.5c0,0,1.2-0.6,2.1-0.9c-0.9-0.1-1.8,0.2-2.8,1
		c0.2-0.8,1.3-3.5,0-2.7c0.1-1.3,1.4-1.9,1.8-2.2c-1-0.2-1.5,0.5-2,1.1c1.2-3.4,4-3.1,4.9-0.7c-0.7-0.3-1.3-0.9-1.9-0.4
		c0.6,0.2,1.6,0.5,1.9,1.2c-0.7,0-1.3,1.4-0.1,3.2c-0.3-0.2-0.6-0.3-0.9-0.4c0.4,0.6,0.6,1.8,0.6,1.8c-1,7.4-5.3,12.7-5.3,12.7
		C377.1,521,376.2,513.5,376.2,513.5z M363.7,504c0.4-2.4,0.5-4.9,0.5-4.9c0.1,1,0.5,1.6,1,1.8c-0.6-0.9-1.2-2.8,0-5.8
		c1.2,0,2.4,0.3,3.7-1.2c2.5-0.4,4.2,0.7,5,3.4c-0.5,1.3,0,2.7,0.6,4.2c-0.6-0.8-1.6-1.6-2.6-1.6c1,0.4,2.1,1.4,2.6,2.9
		c0,0-1.4,0.7-0.6,2.9c-0.2-0.2-0.3-0.5-0.5-0.6c0.2,0.7,0.3,1.5,0.3,1.5c-1.4,10.6-7.6,18.2-7.6,18.2c3.3-8,2.7-17.3,2.5-19.3
		c-0.2,0.1-0.4,0.2-0.6,0.3c0.3-1.8-0.6-1.5-0.6-2.3c1.4-2.7,0.5-3.7,0-5.1c0.5,2.6,0,4-0.7,5.1c0.8,2.1,0.9,7.7,0.7,11.7
		c0,0-0.1-8.3-3.1-6c-1.1,0.5-3.6,0.8-6.8,6C358.6,509.1,364.1,507.2,363.7,504z M356.6,501.3c0,0,1.2-0.6,2.1-0.9
		c-0.9-0.1-1.8,0.2-2.8,1c0.2-0.8,1.3-3.5,0-2.7c0.1-1.3,1.4-1.9,1.8-2.2c-1-0.2-1.5,0.5-2,1.1c1.2-3.4,4-3.1,4.9-0.7
		c-0.7-0.3-1.3-0.9-1.9-0.4c0.6,0.2,1.6,0.5,1.9,1.2c-0.7,0-1.3,1.4-0.1,3.2c-0.3-0.2-0.6-0.3-0.9-0.4c0.4,0.6,0.6,1.8,0.6,1.8
		c-1,7.4-5.3,12.7-5.3,12.7C357.4,508.8,356.6,501.3,356.6,501.3z M348.8,533.6c-0.2,0.8-0.5,1.6,0.3,2.3c-0.1-0.5-0.3-1.9,0.7-2.8
		c0.2,1.5,1.7-0.9,2.2-1.6c-0.1,1.3,0.2,2.2,0.8,2.8c-0.2-0.8-0.5-2.2-0.5-2.2s6.6-3.7,10.1-9.5c0,0-1.7,6.6-7.2,11.7
		c0,0-1.1,0.5-1.8,0.6c0.3,0.2,0.6,0.4,0.9,0.5c-2.1,0.1-3,1.3-2.6,1.9c-0.8,0.2-1.6-0.5-2.1-0.9c0,0.8,0.8,0.9,1.5,1.3
		C348.6,538.6,346.7,536.6,348.8,533.6z M287.8,476.1c-3.6-2-7.1,2.7-4.4,5.7c-1.7,0.7-3.4,1.5-5,2.5c-2.2-2.4-7.7-0.6-10.5,0.6
		c-3-6.9-4.7-14.7-2.7-22.1c1.2,10.4,6.7,16.8,6.7,16.8c0.6-3.9,8.4-6.1,9-10c3.2-2,4,1.7,19.4,13.2
		C296.1,480.7,291.9,478.3,287.8,476.1z M307.1,470.5c-5.9,0-29.9-33.6-29.2-50.4c1.7,0.1,3.4,0.2,5,0.2c-1.3-2.6-2.6-5.3-3.9-7.9
		c2,0.8,4,1.6,6,2.5c-0.8-2.7-1.7-5.5-2.5-8.2c3.5,1.7,7.1,3.5,10.6,5.2c0-1.7,0-3.5,0-5.2c2.2,1.6,4.5,3.3,6.7,4.9
		c2.4-0.8,4.9-1.6,7.3-2.4c2.4,0.8,4.9,1.6,7.3,2.4c2.2-1.6,4.5-3.3,6.7-4.9c0,1.7,0,3.5,0,5.2c3.5-1.7,7.1-3.5,10.6-5.2
		c-0.8,2.7-1.7,5.5-2.5,8.2c2-0.8,4-1.6,6-2.5c-1.3,2.6-2.6,5.3-3.9,7.9c1.7-0.1,3.4-0.2,5-0.2C337,436.9,312.9,470.5,307.1,470.5z
		 M346.2,484.8c-2.8-1.1-8.3-2.9-10.5-0.6c-1.6-0.9-3.3-1.8-5-2.5c2.7-2.9-0.8-7.6-4.4-5.7c-4.1,2.3-8.3,4.6-12.6,6.7
		c15.5-11.5,16.2-15.2,19.4-13.2c0.6,3.9,8.4,6.1,9,10c0,0,5.6-6.4,6.7-16.8C350.9,470,349.2,477.9,346.2,484.8z M360.5,428.8
		c5.1-8.6,11.1-19.7,15.4-34.1c-1.6,6.5-3.5,12.9-5.9,19.1c-2.6,6.9-5.8,13.9-9.7,20.2c0.2-1.6,0.3-3.2,0.2-4.7
		C360.6,429.2,360.6,429,360.5,428.8z M400.2,408.1c4,8.3,15.7,22.2,25.3,30.2c-14.6,0.7-28.1-10.6-34.9-23.6
		c0.7,8.9,4.6,19.9,10.9,29.5c-10-2.2-19.6-13-21.2-21.9c-1.2,5.6-1.1,13.8,0.3,22.1c-6.8-4.8-9.2-8.6-10.2-13.2
		c-3.1,4.5-5,11-5,14.9c-0.7-7.7,3.1-15.1,6.1-21.8c0,6.2,3.5,13.2,6.8,15.2c-0.7-7-1.5-11.2,1.8-23.4c1.4,7.9,10.2,20.8,16.8,23.9
		c-7.9-12-8.1-22.2-8.9-34.7c4.5,12.9,20.2,28.2,31.6,30.3c-14.1-12.8-22.4-27.3-25.3-36c15.4,18.2,32.8,31.4,47.4,27
		c-9.5-4.5-19.2-11.2-27.6-18.6l32.5,18.6C431.3,435.9,412.7,422.5,400.2,408.1z M589.5,283.9c-0.3,1-0.7,1.9-1,2.8
		c-0.1,0.2-0.2,0.5-0.3,0.7c-0.3,0.7-0.6,1.5-0.9,2.2c-0.1,0.2-0.1,0.3-0.2,0.5c-0.4,0.9-0.8,1.7-1.2,2.5c-0.1,0.2-0.2,0.4-0.3,0.6
		c-0.3,0.6-0.7,1.3-1,1.9c-0.1,0.2-0.2,0.4-0.3,0.6c-0.4,0.8-0.9,1.5-1.3,2.2c-0.1,0.1-0.1,0.2-0.2,0.3c-0.4,0.6-0.8,1.2-1.2,1.8
		c-0.1,0.2-0.3,0.4-0.4,0.6c-0.5,0.6-0.9,1.3-1.4,1.9c0,0-0.1,0.1-0.1,0.1c-0.5,0.7-1,1.3-1.5,1.9c-0.1,0.2-0.3,0.3-0.4,0.5
		c-0.4,0.5-0.9,1-1.3,1.5c-0.1,0.1-0.2,0.2-0.3,0.3c-0.5,0.6-1.1,1.1-1.7,1.7c-0.1,0.1-0.2,0.2-0.3,0.3c-0.5,0.4-0.9,0.9-1.4,1.3
		c-0.1,0.1-0.3,0.2-0.4,0.4c-0.6,0.5-1.2,1-1.8,1.5c0,0-0.1,0.1-0.1,0.1c-0.6,0.4-1.2,0.9-1.7,1.3c-0.2,0.1-0.3,0.2-0.5,0.3
		c-0.6,0.4-1.2,0.8-1.8,1.2c-0.1,0-0.1,0.1-0.2,0.1c-0.7,0.4-1.3,0.8-2,1.2c-0.1,0.1-0.3,0.2-0.4,0.2c-0.6,0.3-1.1,0.6-1.7,0.9
		c-0.1,0.1-0.2,0.1-0.4,0.2c-0.7,0.4-1.4,0.7-2.1,1c-0.1,0-0.2,0.1-0.3,0.1c-0.6,0.3-1.3,0.6-1.9,0.8c-0.1,0.1-0.3,0.1-0.4,0.2
		c-1.5,0.6-2.9,1.1-4.4,1.6c-0.1,0-0.3,0.1-0.4,0.1c-0.7,0.2-1.4,0.5-2.2,0.7c0,0-0.1,0-0.1,0c-0.8,0.2-1.6,0.4-2.4,0.7
		c-0.1,0-0.2,0.1-0.3,0.1c-0.7,0.2-1.4,0.4-2.2,0.5c-0.1,0-0.2,0-0.3,0.1c-0.8,0.2-1.7,0.4-2.5,0.5c0,0,0,0,0,0
		c-0.8,0.2-1.6,0.3-2.5,0.5c-0.1,0-0.2,0-0.3,0.1c-1.7,0.3-3.4,0.5-5.1,0.8c-0.1,0-0.2,0-0.2,0c-2.7,0.3-5.4,0.6-8.1,0.8
		c0,0,0,0,0,0c-14,1-28.8,0.6-43,0.9c26.9,3.1,53.8,6.1,80.7,9.2c-0.4,0.7-0.8,1.4-1.2,2.2c-0.1,0.2-0.3,0.4-0.4,0.6
		c-0.3,0.5-0.7,1-1,1.5c-0.1,0.2-0.3,0.4-0.4,0.6c-0.5,0.7-1,1.3-1.5,2c0,0-0.1,0.1-0.1,0.1c-0.5,0.6-1,1.2-1.6,1.7
		c-0.2,0.2-0.4,0.4-0.5,0.6c-0.4,0.4-0.9,0.9-1.4,1.3c-0.2,0.2-0.4,0.3-0.5,0.5c-0.6,0.6-1.3,1.1-2,1.7c-0.1,0.1-0.2,0.1-0.3,0.2
		c-0.6,0.5-1.2,0.9-1.8,1.4c-0.2,0.2-0.5,0.3-0.7,0.5c-0.5,0.4-1.1,0.7-1.6,1.1c-0.2,0.1-0.5,0.3-0.7,0.4c-0.8,0.5-1.5,0.9-2.3,1.4
		c-0.2,0.1-0.3,0.2-0.5,0.3c-0.7,0.4-1.3,0.7-2,1c-0.3,0.1-0.6,0.3-0.9,0.4c-0.6,0.3-1.2,0.6-1.8,0.8c-0.3,0.1-0.6,0.2-0.8,0.4
		c-0.9,0.4-1.7,0.7-2.6,1.1c-0.2,0.1-0.5,0.2-0.7,0.3c-0.7,0.3-1.4,0.5-2.1,0.7c-0.4,0.1-0.7,0.2-1.1,0.3c-0.7,0.2-1.3,0.4-2,0.6
		c-0.3,0.1-0.7,0.2-1,0.3c-1,0.3-1.9,0.5-2.9,0.8c-0.3,0.1-0.7,0.2-1,0.2c-0.7,0.2-1.4,0.3-2.2,0.5c-0.4,0.1-0.8,0.2-1.3,0.3
		c-0.7,0.1-1.4,0.3-2.1,0.4c-0.4,0.1-0.8,0.1-1.1,0.2c-1,0.2-2.1,0.3-3.1,0.5c-0.4,0.1-0.8,0.1-1.2,0.2c-0.7,0.1-1.5,0.2-2.2,0.3
		c-0.5,0.1-1,0.1-1.4,0.2c-0.7,0.1-1.5,0.1-2.2,0.2c-0.4,0-0.9,0.1-1.3,0.1c-1.1,0.1-2.2,0.2-3.3,0.2c-0.5,0-0.9,0-1.4,0.1
		c-0.8,0-1.5,0.1-2.3,0.1c-0.5,0-1,0-1.6,0c-0.8,0-1.6,0-2.4,0c-0.5,0-0.9,0-1.4,0c-1.1,0-2.2,0-3.3,0c0,0,0,0,0,0
		c-11.7-0.3-24.2-1.8-37.1-4.5c5,3.1,17.7,6.6,32,9.8c0.5,0.1,1.1,0.2,1.6,0.4c0.3,0.1,0.6,0.1,0.9,0.2c0.6,0.1,1.1,0.2,1.7,0.4
		c0.3,0.1,0.6,0.1,0.8,0.2c0.6,0.1,1.2,0.2,1.8,0.4c0.3,0.1,0.6,0.1,0.8,0.2c0.6,0.1,1.2,0.2,1.8,0.4c0.3,0.1,0.6,0.1,0.8,0.2
		c0.6,0.1,1.2,0.2,1.8,0.4c0.3,0.1,0.6,0.1,0.8,0.2c0.6,0.1,1.2,0.2,1.8,0.4c0.3,0.1,0.5,0.1,0.8,0.2c0.6,0.1,1.2,0.2,1.8,0.3
		c0.3,0.1,0.5,0.1,0.8,0.2c0.6,0.1,1.2,0.2,1.7,0.3c0.3,0.1,0.6,0.1,0.8,0.2c0.6,0.1,1.1,0.2,1.7,0.3c0.3,0.1,0.6,0.1,0.9,0.2
		c0.5,0.1,1.1,0.2,1.6,0.3c0.3,0.1,0.5,0.1,0.8,0.1c0.6,0.1,1.1,0.2,1.7,0.3c0.3,0,0.5,0.1,0.8,0.1c0.5,0.1,1.1,0.2,1.6,0.3
		c0.3,0.1,0.7,0.1,1,0.2c0.4,0.1,0.9,0.2,1.3,0.2c0.5,0.1,0.9,0.2,1.3,0.2c0.3,0.1,0.6,0.1,0.9,0.2c0.6,0.1,1.1,0.2,1.7,0.3
		c0.2,0,0.3,0.1,0.5,0.1c0.7,0.1,1.4,0.2,2.1,0.4c-0.6,0.7-1.1,1.3-1.7,1.9c-0.2,0.2-0.4,0.4-0.5,0.6c-0.4,0.4-0.8,0.9-1.3,1.3
		c-0.2,0.2-0.4,0.4-0.6,0.6c-0.5,0.4-0.9,0.8-1.4,1.2c-0.2,0.1-0.3,0.3-0.5,0.4c-0.6,0.5-1.3,1-1.9,1.5c-0.2,0.1-0.3,0.2-0.5,0.3
		c-0.5,0.4-1,0.7-1.5,1c-0.2,0.1-0.5,0.3-0.7,0.4c-0.5,0.3-1,0.6-1.5,0.9c-0.2,0.1-0.4,0.2-0.7,0.4c-0.7,0.4-1.4,0.7-2.1,1
		c0,0-0.1,0-0.1,0c-0.7,0.3-1.5,0.6-2.2,0.9c-0.2,0.1-0.5,0.2-0.7,0.3c-0.5,0.2-1.1,0.4-1.6,0.6c-0.3,0.1-0.5,0.2-0.8,0.3
		c-0.6,0.2-1.2,0.4-1.7,0.5c-0.2,0.1-0.4,0.1-0.6,0.2c-0.8,0.2-1.6,0.4-2.4,0.6c-0.2,0-0.4,0.1-0.7,0.1c-0.6,0.1-1.2,0.2-1.8,0.3
		c-0.3,0-0.6,0.1-0.9,0.1c-0.6,0.1-1.1,0.2-1.7,0.2c-0.3,0-0.6,0.1-0.9,0.1c-0.8,0.1-1.5,0.2-2.3,0.2c-0.1,0-0.3,0-0.4,0
		c-0.8,0.1-1.7,0.1-2.5,0.1c-0.3,0-0.6,0-1,0c-0.6,0-1.2,0-1.8,0c-0.3,0-0.7,0-1,0c-0.6,0-1.3,0-1.9-0.1c-0.3,0-0.6,0-0.9,0
		c-0.9,0-1.8-0.1-2.7-0.2c-0.3,0-0.6-0.1-0.9-0.1c-0.7-0.1-1.3-0.1-2-0.2c-0.4,0-0.8-0.1-1.2-0.1c-0.6-0.1-1.2-0.1-1.9-0.2
		c-0.4,0-0.8-0.1-1.1-0.2c-0.8-0.1-1.6-0.2-2.4-0.4c-0.3-0.1-0.6-0.1-1-0.2c-0.9-0.1-1.7-0.3-2.6-0.5c-0.4-0.1-0.8-0.2-1.2-0.2
		c-0.6-0.1-1.3-0.2-1.9-0.4c-0.4-0.1-0.9-0.2-1.3-0.3c-0.7-0.1-1.3-0.3-2-0.4c-0.4-0.1-0.8-0.2-1.2-0.3c-1-0.2-1.9-0.5-2.9-0.7
		c0,0,0,0,0,0c-8.4-2.1-17.2-4.9-26.3-8.2c5.3,4.3,11,8.4,17,12.1c0.8,0.5,1.5,0.9,2.3,1.4c0.4,0.2,0.7,0.4,1.1,0.7
		c0.7,0.4,1.5,0.8,2.2,1.3c0.4,0.2,0.7,0.4,1.1,0.6c0.8,0.5,1.7,0.9,2.5,1.4c0.3,0.1,0.5,0.3,0.8,0.4c1.1,0.6,2.3,1.1,3.4,1.7
		c0.3,0.1,0.5,0.2,0.8,0.4c0.9,0.4,1.8,0.9,2.7,1.3c0.4,0.2,0.8,0.4,1.2,0.5c0.8,0.4,1.6,0.7,2.4,1c0.4,0.2,0.9,0.4,1.3,0.5
		c0.8,0.3,1.7,0.7,2.5,1c0.4,0.2,0.8,0.3,1.2,0.5c1.2,0.5,2.5,0.9,3.7,1.4c-0.2,0.1-0.3,0.1-0.5,0.2c-0.1,0-0.1,0-0.2,0.1
		c-0.1,0-0.2,0.1-0.4,0.1c-0.1,0-0.2,0.1-0.3,0.1c-0.1,0-0.2,0.1-0.4,0.1c-0.1,0-0.2,0.1-0.4,0.1c-0.1,0-0.2,0.1-0.4,0.1
		c-0.1,0-0.3,0.1-0.4,0.1c-0.1,0-0.2,0.1-0.4,0.1c-0.2,0-0.3,0.1-0.5,0.1c-0.1,0-0.2,0-0.4,0.1c-0.2,0-0.4,0.1-0.5,0.1
		c-0.1,0-0.2,0-0.4,0.1c-0.2,0-0.4,0.1-0.6,0.1c-0.1,0-0.2,0-0.4,0.1c-0.2,0-0.4,0.1-0.7,0.1c-0.1,0-0.2,0-0.4,0
		c-0.2,0-0.5,0.1-0.7,0.1c-0.1,0-0.2,0-0.3,0c-0.3,0-0.5,0-0.8,0.1c-0.1,0-0.2,0-0.3,0c-0.3,0-0.6,0-0.9,0.1c-0.1,0-0.2,0-0.3,0
		c-0.3,0-0.6,0-0.9,0.1c-0.1,0-0.2,0-0.3,0c-0.3,0-0.7,0-1,0c-0.1,0-0.2,0-0.3,0c-0.3,0-0.7,0-1.1,0c-0.1,0-0.2,0-0.3,0
		c-0.4,0-0.7,0-1.1,0c-0.1,0-0.1,0-0.2,0c-0.4,0-0.8,0-1.2,0c-0.1,0-0.1,0-0.2,0c-0.4,0-0.8,0-1.2,0c-0.1,0-0.1,0-0.2,0
		c-0.4,0-0.9,0-1.3,0c-0.1,0-0.1,0-0.2,0c-0.4,0-0.9,0-1.4,0c0,0-0.1,0-0.1,0c-0.5,0-0.9,0-1.4-0.1c0,0-0.1,0-0.1,0
		c-0.5,0-1-0.1-1.5-0.1c0,0-0.1,0-0.1,0c-0.5,0-1-0.1-1.5-0.1c0,0,0,0-0.1,0c-0.5,0-1-0.1-1.5-0.1c0,0,0,0-0.1,0
		c-0.5,0-1-0.1-1.6-0.2c0,0,0,0,0,0c-0.5-0.1-1.1-0.1-1.6-0.2c0,0,0,0,0,0c-0.5-0.1-1.1-0.1-1.6-0.2c0,0,0,0,0,0
		c-21.5-2.8-47-11.4-57.1-32c-2.8-5.8-6.5-16.3-9.5-35.5c0.4,7.2,0.4,14.4,0.1,21.6c-2.8,17.8-8.2,35.4-21.3,43.8
		c5.7-5.5,9.1-12.4,11.2-20.7c4.6-17.5,3.5-41.5,2.1-59.5c-1.9-25.2,10.4-53.4,29.4-67.7c38-28.7,86.5-35.2,123.4-59.3
		c-16.1,24.4-89.8,62.4-94.8,65.8c36.2-3.6,96.3-35.1,107.9-43.8c-18.9,36.8-84.4,52.1-123,61.9c32.3,3.8,76.9-1.8,112.8-13.4
		c-18.8,24.3-64.5,31.2-112.9,29.5c15.6,6.6,47.6,13.1,87.1,10.1c-21.7,12.2-67,14.4-90.6,4.9c16.9,13.9,30,25.9,58.1,29.9
		c-15,4.9-45.6,0.9-57.9-6.7c9.9,18.8,16.3,22.8,26.3,30.2c-8,1.8-29.6-2.2-37.4-9.5c3.5,12.5,7.8,21.3,11.2,26.8
		c-11.7-4.2-15.5-8.4-19.6-15.4c2.4,5.3,9,18.2,26.9,18.2c-5.6-7.5-9.6-14.9-11.4-21.3c7.5,4.1,22.8,7.4,40.2,4.2
		c-12.7-8.1-23-17.6-28.1-25.9c13.8,8.6,43.2,9,62.8-1.4c-22.5-3.2-42.8-11.3-55-21c27.6,6.7,64.3,2.6,87.8-17.2
		c-26.1,3.1-63,1.6-80-3.1c38.9,1,86.7-7.3,100.8-38.6c-27.4,11.1-79.2,18.4-103.3,18.4c55.1-14.1,100.9-28.9,113-70.3
		c-27.6,20.4-85.9,44.7-102.6,48.7c27.5-14.6,59.4-30.6,77.7-49.6c26.4-13.8,52.8-27.6,79.2-41.3c0,0.7,0,1.4-0.1,2.1
		c0,0.2,0,0.5-0.1,0.7c0,0.5-0.1,1-0.1,1.5c0,0.3-0.1,0.6-0.1,0.9c-0.1,0.5-0.1,0.9-0.2,1.4c0,0.3-0.1,0.6-0.1,0.9
		c-0.1,0.5-0.2,0.9-0.2,1.4c-0.1,0.3-0.1,0.6-0.2,1c-0.1,0.5-0.2,1-0.3,1.5c-0.1,0.3-0.1,0.6-0.2,1c-0.1,0.5-0.3,1.1-0.4,1.6
		c-0.1,0.3-0.1,0.6-0.2,0.9c-0.2,0.7-0.4,1.5-0.7,2.2c0,0.1,0,0.2-0.1,0.2c-0.3,0.8-0.6,1.7-0.9,2.5c-0.1,0.3-0.2,0.6-0.3,0.9
		c-0.2,0.6-0.4,1.1-0.7,1.7c-0.1,0.3-0.3,0.7-0.4,1c-0.2,0.5-0.4,1-0.7,1.6c-0.2,0.4-0.3,0.7-0.5,1.1c-0.2,0.5-0.5,1-0.7,1.5
		c-0.2,0.4-0.4,0.7-0.6,1.1c-0.3,0.5-0.5,1-0.8,1.6c-0.2,0.4-0.4,0.7-0.6,1.1c-0.3,0.6-0.6,1.1-0.9,1.7c-0.2,0.3-0.4,0.7-0.6,1
		c-0.4,0.7-0.8,1.4-1.3,2.1c-0.1,0.2-0.2,0.4-0.4,0.6c-0.6,0.9-1.1,1.8-1.7,2.6c-0.2,0.3-0.4,0.6-0.7,1c-0.4,0.6-0.8,1.1-1.2,1.7
		c-0.3,0.4-0.5,0.7-0.8,1.1c-0.4,0.5-0.8,1-1.2,1.6c-0.3,0.4-0.6,0.8-0.9,1.2c-0.4,0.5-0.8,1-1.2,1.5c-0.3,0.4-0.6,0.8-1,1.2
		c-0.4,0.5-0.9,1-1.3,1.5c-0.3,0.4-0.7,0.8-1,1.2c-0.5,0.5-1,1-1.4,1.6c-0.3,0.4-0.7,0.7-1,1.1c-0.6,0.6-1.2,1.2-1.8,1.9
		c-0.3,0.3-0.5,0.5-0.7,0.8c-0.9,0.8-1.7,1.7-2.6,2.5c-0.3,0.3-0.7,0.6-1,0.9c-0.6,0.5-1.2,1.1-1.8,1.6c-0.4,0.4-0.8,0.7-1.3,1.1
		c-0.6,0.5-1.1,1-1.7,1.4c-0.4,0.4-0.9,0.7-1.4,1.1c-0.6,0.5-1.2,0.9-1.7,1.4c-0.5,0.4-0.9,0.7-1.4,1.1c-0.6,0.5-1.2,0.9-1.8,1.4
		c-0.5,0.4-1,0.7-1.5,1.1c-0.7,0.5-1.3,0.9-2,1.4c-0.5,0.3-0.9,0.7-1.4,1c-0.8,0.5-1.6,1.1-2.4,1.6c-0.4,0.2-0.7,0.5-1.1,0.7
		c0,0,0,0-0.1,0c0,0,0,0,0,0c-5.1,3.2-10.6,6.2-16.5,9c7.6-1.7,16.2-3.8,25-6.1c0.5-0.1,1-0.2,1.4-0.4c0.9-0.2,1.8-0.5,2.6-0.7
		c1-0.3,1.9-0.5,2.9-0.8c0.5-0.1,1-0.3,1.5-0.4c3.2-0.8,6.3-1.7,9.5-2.5c0.2-0.1,0.5-0.1,0.7-0.2c1.3-0.4,2.7-0.7,4-1
		c0.1,0,0.3-0.1,0.4-0.1c1.2-0.3,2.4-0.6,3.6-0.9c0.3-0.1,0.5-0.1,0.8-0.2c1.3-0.3,2.5-0.6,3.8-0.9c0.2-0.1,0.5-0.1,0.7-0.2
		c1.1-0.3,2.3-0.6,3.4-0.8c0.2,0,0.3-0.1,0.5-0.1c1.2-0.3,2.4-0.6,3.6-0.8c0.3-0.1,0.5-0.1,0.8-0.2c1.2-0.3,2.4-0.5,3.6-0.8
		c0,0.6,0,1.3-0.1,1.9c0,0.1,0,0.3,0,0.4c0,0.6-0.1,1.2-0.2,1.9c0,0.1,0,0.2,0,0.3c-0.1,0.6-0.2,1.1-0.3,1.7c0,0.1,0,0.2-0.1,0.3
		c-0.1,0.6-0.3,1.2-0.4,1.8c0,0.1-0.1,0.3-0.1,0.4c-0.2,0.6-0.4,1.2-0.6,1.8c0,0,0,0,0,0.1c-0.2,0.6-0.4,1.2-0.7,1.8
		c0,0.1-0.1,0.2-0.1,0.4c-0.3,0.6-0.5,1.2-0.8,1.8c0,0.1-0.1,0.2-0.1,0.3c-0.3,0.6-0.6,1.1-0.9,1.7c0,0.1-0.1,0.1-0.1,0.2
		c-0.3,0.6-0.7,1.2-1.1,1.7c-0.1,0.1-0.1,0.2-0.2,0.3c-0.4,0.6-0.8,1.2-1.2,1.7c0,0,0,0,0,0.1c-0.4,0.6-0.8,1.1-1.3,1.7
		c-0.1,0.1-0.1,0.2-0.2,0.3c-0.4,0.6-0.9,1.1-1.4,1.7c-0.1,0.1-0.1,0.2-0.2,0.2c-0.5,0.6-1,1.1-1.5,1.7c0,0,0,0,0,0
		c-0.5,0.6-1.1,1.1-1.7,1.7c-0.1,0.1-0.2,0.2-0.2,0.2c-0.6,0.6-1.2,1.1-1.8,1.6c0,0,0,0,0,0c-0.6,0.5-1.2,1.1-1.9,1.6
		c-0.1,0-0.1,0.1-0.2,0.1c-0.6,0.5-1.3,1.1-2,1.6c-0.1,0-0.1,0.1-0.2,0.1c-1.4,1.1-2.8,2.1-4.3,3.1c-0.1,0-0.1,0.1-0.2,0.1
		c-1.6,1-3.2,2-4.8,3c0,0,0,0,0,0c-0.8,0.5-1.7,1-2.6,1.5c0,0-0.1,0-0.1,0.1c-1.7,1-3.6,1.9-5.4,2.8c0,0-0.1,0-0.1,0
		c-2.8,1.4-5.8,2.7-8.9,3.9c0,0,0,0,0,0c-13.3,5.3-28.8,9.2-45.7,11.3c8.9-0.1,22.5-1.1,36.5-2.6c0.3,0,0.5-0.1,0.8-0.1
		c0.8-0.1,1.6-0.2,2.4-0.3c0.2,0,0.4,0,0.6-0.1c0.7-0.1,1.5-0.2,2.2-0.3c0.2,0,0.5-0.1,0.7-0.1c0.8-0.1,1.6-0.2,2.4-0.3
		c0.2,0,0.5-0.1,0.7-0.1c0.8-0.1,1.6-0.2,2.5-0.3c0.2,0,0.3,0,0.5-0.1c0.8-0.1,1.5-0.2,2.3-0.3c0.1,0,0.3,0,0.4-0.1
		c0.8-0.1,1.6-0.2,2.4-0.3c0.2,0,0.4-0.1,0.6-0.1c0.8-0.1,1.6-0.2,2.4-0.3c0.2,0,0.4-0.1,0.5-0.1c0.8-0.1,1.6-0.2,2.3-0.4
		c0.1,0,0.1,0,0.2,0c0.8-0.1,1.6-0.2,2.4-0.4c0.2,0,0.3-0.1,0.5-0.1c0.8-0.1,1.5-0.2,2.2-0.4c0.2,0,0.3-0.1,0.5-0.1
		c0.8-0.1,1.5-0.3,2.2-0.4c0.1,0,0.2,0,0.2,0c0.7-0.1,1.4-0.3,2-0.4c0.1,0,0.2,0,0.4-0.1c0.7-0.1,1.4-0.3,2-0.4
		c0.1,0,0.3-0.1,0.4-0.1c0.7-0.1,1.3-0.3,1.9-0.4c0.1,0,0.2,0,0.3-0.1c0.6-0.1,1.2-0.3,1.8-0.4c0.1,0,0.1,0,0.2,0
		c0.6-0.1,1.2-0.3,1.7-0.4c0.1,0,0.2-0.1,0.3-0.1c0.5-0.1,1.1-0.3,1.6-0.4c0.1,0,0.2,0,0.3-0.1C588.5,284.2,589,284,589.5,283.9z"/>
	<path fill="#285698" d="M300.4,482.7c-4.3-2.1-8.5-4.4-12.6-6.7c-3.6-2-7.1,2.7-4.4,5.7c-1.7,0.7-3.4,1.5-5,2.5
		c-2.2-2.4-7.7-0.6-10.5,0.6c-3-6.9-4.7-14.7-2.7-22.1c1.2,10.4,6.7,16.8,6.7,16.8c0.6-3.9,8.4-6.1,9-10
		C284.2,467.6,285,471.2,300.4,482.7z M342.1,479.5c-0.6-3.9-8.4-6.1-9-10c-3.2-2-4,1.7-19.4,13.2c4.3-2.1,8.5-4.4,12.6-6.7
		c3.6-2,7.1,2.7,4.4,5.7c1.7,0.7,3.4,1.5,5,2.5c2.2-2.4,7.7-0.6,10.5,0.6c3-6.9,4.7-14.7,2.7-22.1
		C347.7,473.1,342.1,479.5,342.1,479.5z M510.7,388.4C510.7,388.4,510.7,388.4,510.7,388.4C510.7,388.4,510.7,388.4,510.7,388.4z
		 M513.5,386.9c-0.2,0.1-0.4,0.2-0.7,0.4C513.1,387.2,513.3,387.1,513.5,386.9z M508.5,389.3c-0.2,0.1-0.5,0.2-0.7,0.3
		C508,389.5,508.2,389.4,508.5,389.3z M515,386.1c0.2-0.1,0.5-0.3,0.7-0.4C515.4,385.8,515.2,386,515,386.1z M517.7,384.3
		c-0.2,0.1-0.3,0.2-0.5,0.3C517.4,384.5,517.5,384.4,517.7,384.3z M505.3,390.4c0.3-0.1,0.5-0.2,0.8-0.3
		C505.9,390.3,505.6,390.4,505.3,390.4z M498.1,392.2c-0.3,0-0.6,0.1-0.9,0.1C497.5,392.3,497.8,392.2,498.1,392.2z M519.6,382.8
		c0.2-0.1,0.3-0.3,0.5-0.4C519.9,382.6,519.8,382.7,519.6,382.8z M495.4,392.5c-0.3,0-0.6,0.1-0.9,0.1
		C494.8,392.6,495.1,392.6,495.4,392.5z M500.5,391.7c-0.2,0-0.4,0.1-0.7,0.1C500.1,391.8,500.3,391.7,500.5,391.7z M503.6,391
		c-0.2,0.1-0.4,0.1-0.6,0.2C503.2,391.1,503.4,391,503.6,391z M507.7,373.6c-0.3-0.1-0.6-0.1-0.8-0.2
		C507.1,373.5,507.4,373.6,507.7,373.6z M509.4,374c0.3,0.1,0.6,0.1,0.9,0.2C510,374.1,509.7,374,509.4,374z M512.7,374.6
		c-0.3,0-0.5-0.1-0.8-0.1C512.2,374.5,512.4,374.5,512.7,374.6z M505.1,373.1c-0.3-0.1-0.5-0.1-0.8-0.2
		C504.6,373,504.8,373.1,505.1,373.1z M492.2,392.9c-0.1,0-0.3,0-0.4,0C492,392.9,492.1,392.9,492.2,392.9z M514.3,374.9
		c0.3,0,0.5,0.1,0.8,0.1C514.9,375,514.6,374.9,514.3,374.9z M523,376.4c-0.6-0.1-1.1-0.2-1.7-0.3
		C521.9,376.2,522.4,376.3,523,376.4z M516.7,375.3c0.3,0.1,0.7,0.1,1,0.2C517.4,375.4,517.1,375.4,516.7,375.3z M523.4,379.4
		c0.2-0.2,0.4-0.4,0.5-0.6C523.7,379,523.5,379.2,523.4,379.4z M523.5,376.5c0.7,0.1,1.4,0.2,2.1,0.4
		C524.9,376.8,524.2,376.7,523.5,376.5z M520.4,376c-0.4-0.1-0.9-0.2-1.3-0.2C519.5,375.8,519.9,375.9,520.4,376z M521.5,381.2
		c0.2-0.2,0.4-0.4,0.6-0.6C521.9,380.8,521.7,381,521.5,381.2z M489.3,393c-0.3,0-0.6,0-1,0C488.7,393,489,393,489.3,393z
		 M464.1,401.7c0.4,0.2,0.8,0.4,1.2,0.5C464.9,402.1,464.5,401.9,464.1,401.7z M471.5,404.8c0.4,0.2,0.8,0.3,1.2,0.5
		C472.3,405.1,471.9,405,471.5,404.8z M469,403.8c-0.4-0.2-0.9-0.4-1.3-0.5C468.1,403.5,468.6,403.6,469,403.8z M457.2,398.4
		c-0.3-0.1-0.5-0.3-0.8-0.4C456.7,398.1,456.9,398.2,457.2,398.4z M461.4,400.4c-0.3-0.1-0.5-0.2-0.8-0.4
		C460.9,400.2,461.1,400.3,461.4,400.4z M474.3,407.3c0.1,0,0.2-0.1,0.4-0.1C474.6,407.3,474.4,407.3,474.3,407.3z M473.2,407.6
		c-0.2,0-0.3,0.1-0.5,0.1C472.9,407.7,473,407.6,473.2,407.6z M475.7,406.9c0.1,0,0.1,0,0.2-0.1
		C475.8,406.9,475.8,406.9,475.7,406.9z M471.8,407.9c0.2,0,0.4-0.1,0.5-0.1C472.2,407.8,472,407.8,471.8,407.9z M475.3,407.1
		c-0.1,0-0.2,0.1-0.3,0.1C475.1,407.1,475.2,407.1,475.3,407.1z M501.7,372.5c0.3,0.1,0.5,0.1,0.8,0.2
		C502.3,372.6,502,372.5,501.7,372.5z M473.5,407.5c0.1,0,0.3-0.1,0.4-0.1C473.8,407.5,473.7,407.5,473.5,407.5z M477.1,392.5
		c-0.4,0-0.8-0.1-1.2-0.1C476.3,392.4,476.7,392.5,477.1,392.5z M452.8,396c0.4,0.2,0.7,0.4,1.1,0.6
		C453.5,396.4,453.1,396.2,452.8,396z M480,392.8c-0.3,0-0.6-0.1-0.9-0.1C479.4,392.7,479.7,392.8,480,392.8z M482.7,393
		c0.3,0,0.6,0,0.9,0C483.3,393,483,393,482.7,393z M485.5,393c0.3,0,0.7,0,1,0C486.2,393,485.9,393,485.5,393z M474.1,392.2
		c-0.4,0-0.8-0.1-1.1-0.2C473.3,392.1,473.7,392.1,474.1,392.2z M450.6,394.7c-0.4-0.2-0.7-0.4-1.1-0.7
		C449.8,394.3,450.2,394.5,450.6,394.7z M459.4,389.5c0.4,0.1,0.8,0.2,1.2,0.3C460.2,389.6,459.8,389.5,459.4,389.5z M462.6,390.2
		c0.4,0.1,0.9,0.2,1.3,0.3C463.5,390.3,463,390.3,462.6,390.2z M467,391c-0.4-0.1-0.8-0.2-1.2-0.2C466.2,390.9,466.6,391,467,391z
		 M470.6,391.7c-0.3-0.1-0.6-0.1-1-0.2C469.9,391.6,470.2,391.6,470.6,391.7z M499.2,364.2c0.5,0,1,0,1.6,0
		C500.2,364.2,499.7,364.2,499.2,364.2z M534,325.3c-2.7,0.3-5.4,0.6-8.1,0.8C528.6,325.9,531.3,325.6,534,325.3z M549.8,322.1
		c-0.8,0.2-1.6,0.4-2.4,0.7C548.2,322.6,549,322.3,549.8,322.1z M552.8,348.9c-0.1,0.1-0.2,0.1-0.3,0.2
		C552.6,349,552.7,348.9,552.8,348.9z M542.2,324c0.8-0.2,1.7-0.3,2.5-0.5C543.8,323.6,543,323.8,542.2,324z M547.1,322.9
		c-0.7,0.2-1.4,0.4-2.2,0.5C545.7,323.2,546.4,323,547.1,322.9z M534.2,325.3c1.7-0.2,3.4-0.5,5.1-0.8
		C537.7,324.8,536,325,534.2,325.3z M554.8,347.2c0.2-0.2,0.4-0.3,0.5-0.5C555.1,346.9,554.9,347,554.8,347.2z M556.7,345.4
		c0.2-0.2,0.4-0.4,0.5-0.6C557,345,556.8,345.2,556.7,345.4z M560.9,340.4c-0.1,0.2-0.3,0.4-0.4,0.6
		C560.6,340.8,560.7,340.6,560.9,340.4z M558.8,343.1c0,0,0.1-0.1,0.1-0.1C558.9,343,558.8,343.1,558.8,343.1z M562.3,338.3
		c-0.1,0.2-0.3,0.4-0.4,0.6C562,338.7,562.2,338.5,562.3,338.3z M539.7,324.4c0.8-0.1,1.6-0.3,2.5-0.5
		C541.3,324.1,540.5,324.3,539.7,324.4z M568.6,313.3c0.6-0.4,1.2-0.8,1.7-1.3C569.7,312.5,569.1,312.9,568.6,313.3z M568.1,313.7
		c-0.6,0.4-1.2,0.8-1.8,1.2C566.9,314.5,567.5,314.1,568.1,313.7z M570.4,312c0.6-0.5,1.2-1,1.8-1.5C571.6,311,571,311.5,570.4,312z
		 M574.1,308.8c-0.5,0.4-0.9,0.9-1.4,1.3C573.1,309.7,573.6,309.3,574.1,308.8z M574.4,308.5c0.6-0.5,1.1-1.1,1.7-1.7
		C575.5,307.4,575,308,574.4,308.5z M557.4,319.5c0.6-0.3,1.3-0.5,1.9-0.8C558.7,318.9,558,319.2,557.4,319.5z M549.9,322.1
		c0.7-0.2,1.4-0.4,2.2-0.7C551.4,321.6,550.7,321.9,549.9,322.1z M552.5,321.3c1.5-0.5,3-1,4.4-1.6
		C555.5,320.2,554,320.8,552.5,321.3z M559.6,318.5c0.7-0.3,1.4-0.7,2.1-1C561,317.8,560.3,318.2,559.6,318.5z M563.8,316.4
		c-0.6,0.3-1.1,0.6-1.7,0.9C562.6,317,563.2,316.7,563.8,316.4z M564.2,316.1c0.7-0.4,1.3-0.8,2-1.2
		C565.5,315.3,564.9,315.7,564.2,316.1z M530.8,359.8c-0.3,0.1-0.7,0.2-1,0.3C530.1,360,530.5,359.9,530.8,359.8z M503,364.1
		c0.5,0,0.9,0,1.4-0.1C503.9,364,503.5,364.1,503,364.1z M470.8,408c0.2,0,0.4-0.1,0.6-0.1C471.2,407.9,471,408,470.8,408z
		 M495.4,364.2c0.5,0,0.9,0,1.4,0C496.4,364.2,495.9,364.2,495.4,364.2z M507.7,363.8c0.4,0,0.9-0.1,1.3-0.1
		C508.6,363.7,508.2,363.8,507.7,363.8z M514.9,363.1c0.4-0.1,0.8-0.1,1.2-0.2C515.7,363,515.3,363,514.9,363.1z M511.3,363.5
		c0.5,0,1-0.1,1.4-0.2C512.2,363.4,511.7,363.4,511.3,363.5z M489.6,370c-0.3-0.1-0.6-0.1-0.9-0.2C489,369.8,489.3,369.9,489.6,370z
		 M520.2,326.4c1.9-0.1,3.8-0.2,5.6-0.3c-14,1-28.8,0.6-43,0.9c26.9,3.1,53.8,6.1,80.7,9.2l-44.6-5.1c8.1,3.5,20,7.6,26.5,8.8
		c-7.6,11.1-32.9,19.3-53.1,24.3c-11.7-0.3-24.2-1.8-37.1-4.5c5,3.1,17.7,6.6,32,9.8c-0.2,0-0.4-0.1-0.6-0.1
		c6.2,3.3,16.4,7.1,22.8,8.9c-6.2,7-26.3,11.3-52.7,10.6c-8.4-2.1-17.2-4.9-26.3-8.2c5.3,4.3,11,8.4,17,12.1
		c-0.2-0.1-0.5-0.3-0.7-0.4c3.9,4.4,9.7,10.1,14.2,12.5c-8.6,2-16.7,2-25.1,1.4c2.9,0.6,5.7,1,8.5,1.4c-21.5-2.8-47-11.4-57.1-32
		c-2.8-5.8-6.5-16.3-9.5-35.5c0.4,7.2,0.4,14.4,0.1,21.6c-2.8,17.8-8.2,35.4-21.3,43.8c5.7-5.5,9.1-12.4,11.2-20.7
		c4.6-17.5,3.5-41.5,2.1-59.5c-1.9-25.2,10.4-53.4,29.4-67.7c38-28.7,86.5-35.2,123.4-59.3c-16.1,24.4-89.8,62.4-94.8,65.8
		c36.2-3.6,96.3-35.1,107.9-43.8c-18.9,36.8-84.4,52.1-123,61.9c32.3,3.8,76.9-1.8,112.8-13.4c-18.8,24.3-64.5,31.2-112.9,29.5
		c15.6,6.6,47.6,13.1,87.1,10.1c-21.7,12.2-67,14.4-90.6,4.9c16.9,13.9,30,25.9,58.1,29.9c-15,4.9-45.6,0.9-57.9-6.7
		c9.9,18.8,16.3,22.8,26.3,30.2c-8,1.8-29.6-2.2-37.4-9.5c3.5,12.5,7.8,21.3,11.2,26.8c-11.7-4.2-15.5-8.4-19.6-15.4
		c2.4,5.3,9,18.2,26.9,18.2c-5.6-7.5-9.6-14.9-11.4-21.3c7.5,4.1,22.8,7.4,40.2,4.2c-12.7-8.1-23-17.6-28.1-25.9
		c13.8,8.6,43.2,9,62.8-1.4c-22.5-3.2-42.8-11.3-55-21c27.6,6.7,64.3,2.6,87.8-17.2c-26.1,3.1-63,1.6-80-3.1
		c38.9,1,86.7-7.3,100.8-38.6c-27.4,11.1-79.2,18.4-103.3,18.4c55.1-14.1,100.9-28.9,113-70.3c-27.6,20.4-85.9,44.7-102.6,48.7
		c27.5-14.6,59.4-30.6,77.7-49.6c26.4-13.8,52.8-27.6,79.2-41.3l-57.9,30.2c13.7-4.2,29.4-10.3,42.8-14.1
		c-6.2,21.3-21.8,42.4-36.5,58.7c-5.1,3.2-10.6,6.2-16.5,9c7.6-1.7,16.2-3.8,25-6.1c-0.1,0-0.2,0.1-0.3,0.1
		c11.6-0.3,23.6-1.1,32.6-2.3c-7.6,14.5-31.1,31.5-51.3,44.3c5.8-1.6,11.3-3.5,16.5-5.5c-13.3,5.3-28.8,9.2-45.7,11.3
		c8.9-0.1,22.5-1.1,36.5-2.6c-0.7,0.1-1.4,0.1-2.1,0.2c13.6,1.5,25.1,1.4,30.5,0C564.7,308.8,542.3,318.9,520.2,326.4z M404.1,379.3
		l-5.2-1.6c2.3,1.7,5.2,3.2,9.3,4.8c-2.2-3.5-5-8.7-7.5-15.7C400.5,370.7,404.1,379.3,404.1,379.3z M442.8,341.6
		c-2.4,1.6-21.3-1.2-27.1-2.2c16.3,5.4,34.3,6.5,45.4,3.9c-13.6-2.6-23-7.1-30.8-12.8C432.4,333.8,438.4,339.7,442.8,341.6z
		 M409.2,361c6.9,3.4,17.4,4.9,22.5,4.8c-5.8-4.5-9.9-7.3-15-15.5c0.3,4.9,5.6,10.9,7.2,12.8C419.6,363.1,416,362.7,409.2,361z
		 M470.8,313.4c0,0-13.8,4-34.3,3.8c16.7,2.2,39.5-0.1,54.7-6.5c-16,0.9-29.6-0.1-40.2-2C454,310.4,462.5,312.6,470.8,313.4z
		 M506.3,278.6c-17.3,12.3-50.4,16.3-66.8,18.4c34-0.7,64.7-7.4,81.1-24.8c-14.5,4.2-30.3,7.5-45.8,9.4
		C484,281.4,493.4,281.1,506.3,278.6z M509,241.1c-5.1,6.6-29.3,19.4-45.9,24.9c26-7.9,53.3-19.6,65.3-38.7
		c-5.3,3.6-22,12.3-40.8,20.1C496.5,245.1,501.7,243.8,509,241.1z M454,230.7c14-4.1,28.2-9,42.2-13c-2.8,3-6.5,6.4-10.2,9.7
		c11.6-7.2,22.2-14.9,27-21.2C495.1,217.1,474.2,222.6,454,230.7z M396.5,383.5c-18.9-22.9-16.1-68.2-5.2-91.1
		c14.4-30.2,28.4-43.3,50.7-54c-25.9,8.9-43.9,28.3-55.2,52C375.7,313.7,376.4,363.6,396.5,383.5z M497.3,371.6
		c-0.3-0.1-0.6-0.1-0.8-0.2C496.8,371.5,497.1,371.5,497.3,371.6z M492.1,370.5c-0.3-0.1-0.6-0.1-0.8-0.2
		C491.6,370.4,491.9,370.5,492.1,370.5z M494.7,371.1c-0.3-0.1-0.6-0.1-0.8-0.2C494.2,370.9,494.5,371,494.7,371.1z M550,350.9
		c0.2-0.2,0.5-0.3,0.7-0.5C550.5,350.6,550.2,350.8,550,350.9z M540.2,356.4c-0.3,0.1-0.6,0.2-0.8,0.4
		C539.6,356.6,539.9,356.5,540.2,356.4z M542,355.5c0.3-0.1,0.6-0.3,0.9-0.4C542.6,355.2,542.3,355.4,542,355.5z M547.7,352.5
		c0.2-0.1,0.5-0.3,0.7-0.4C548.1,352.2,547.9,352.3,547.7,352.5z M519.2,362.4c0.4-0.1,0.8-0.1,1.1-0.2
		C520,362.3,519.6,362.4,519.2,362.4z M544.9,354.1c0.2-0.1,0.3-0.2,0.5-0.3C545.2,353.9,545,354,544.9,354.1z M536,358.1
		c0.2-0.1,0.5-0.2,0.7-0.3C536.5,357.9,536.2,358,536,358.1z M526.9,360.8c-0.3,0.1-0.7,0.2-1,0.2
		C526.2,361,526.6,360.9,526.9,360.8z M532.8,359.2c0.4-0.1,0.7-0.2,1.1-0.3C533.5,358.9,533.2,359,532.8,359.2z M523.8,361.6
		c-0.4,0.1-0.8,0.2-1.3,0.3C522.9,361.7,523.3,361.6,523.8,361.6z M499.9,372.1c-0.3-0.1-0.6-0.1-0.8-0.2
		C499.4,372,499.7,372.1,499.9,372.1z M561,232.7c-0.4,0.4-0.9,0.7-1.4,1.1C560.1,233.4,560.6,233,561,232.7z M593.8,251.9
		c-0.3,0.6-0.7,1.2-1.1,1.7C593.1,253,593.5,252.5,593.8,251.9z M591.4,255.7c0.4-0.6,0.8-1.2,1.2-1.7
		C592.2,254.5,591.8,255.1,591.4,255.7z M593.9,251.7c0.3-0.5,0.6-1.1,0.9-1.7C594.5,250.6,594.2,251.1,593.9,251.7z M583,264.9
		c-0.6,0.5-1.2,1.1-1.9,1.6C581.8,266,582.4,265.4,583,264.9z M595.7,248c-0.3,0.6-0.5,1.2-0.8,1.8
		C595.2,249.2,595.5,248.6,595.7,248z M583,264.9c0.6-0.5,1.2-1.1,1.8-1.6C584.2,263.8,583.6,264.3,583,264.9z M585,263
		c0.6-0.6,1.1-1.1,1.7-1.7C586.2,261.9,585.6,262.4,585,263z M596.6,245.8c0.2-0.6,0.4-1.2,0.6-1.8
		C597,244.6,596.8,245.2,596.6,245.8z M589.8,257.7c-0.4,0.6-0.9,1.1-1.4,1.7C588.9,258.8,589.4,258.3,589.8,257.7z M586.7,261.3
		c0.5-0.5,1-1.1,1.5-1.7C587.8,260.2,587.3,260.7,586.7,261.3z M591.3,255.8c-0.4,0.6-0.8,1.1-1.3,1.7
		C590.5,256.9,590.9,256.3,591.3,255.8z M596.6,245.9c-0.2,0.6-0.4,1.2-0.7,1.8C596.1,247,596.4,246.4,596.6,245.9z M581.3,239.4
		c0.3-0.1,0.5-0.1,0.8-0.2C581.9,239.2,581.6,239.3,581.3,239.4z M577.8,240.3c-0.1,0-0.3,0.1-0.4,0.1
		C577.5,240.3,577.6,240.3,577.8,240.3z M561.6,244.5c0.5-0.1,1-0.3,1.5-0.4C562.6,244.2,562.1,244.4,561.6,244.5z M573.3,241.4
		c-0.2,0.1-0.5,0.1-0.7,0.2C572.8,241.6,573.1,241.5,573.3,241.4z M556.1,245.9c0.9-0.2,1.8-0.5,2.6-0.7
		C557.9,245.5,557,245.7,556.1,245.9z M598.4,235.3c0,0.6,0,1.3-0.1,1.9C598.4,236.6,598.4,235.9,598.4,235.3z M590.5,237.1
		c-0.2,0-0.3,0.1-0.5,0.1C590.2,237.2,590.3,237.1,590.5,237.1z M598.1,239.5c0.1-0.6,0.1-1.2,0.2-1.9
		C598.3,238.2,598.2,238.8,598.1,239.5z M598.1,239.8c-0.1,0.6-0.2,1.1-0.3,1.7C597.9,240.9,598,240.3,598.1,239.8z M594.1,236.3
		c0.3-0.1,0.5-0.1,0.8-0.2C594.6,236.1,594.3,236.2,594.1,236.3z M597.3,243.6c0.2-0.6,0.3-1.2,0.4-1.8
		C597.6,242.4,597.4,243,597.3,243.6z M585.9,238.2c0.2-0.1,0.5-0.1,0.7-0.2C586.3,238.1,586.1,238.2,585.9,238.2z M580.9,266.7
		c-0.6,0.5-1.3,1.1-2,1.6C579.6,267.7,580.3,267.2,580.9,266.7z M577.1,286.8c-0.7,0.1-1.3,0.3-2,0.4
		C575.8,287,576.5,286.9,577.1,286.8z M574.9,287.2c-0.7,0.1-1.5,0.3-2.2,0.4C573.4,287.5,574.1,287.3,574.9,287.2z M569.4,288.1
		c-0.8,0.1-1.6,0.3-2.4,0.4C567.8,288.4,568.6,288.3,569.4,288.1z M564.5,288.9c0.8-0.1,1.6-0.2,2.3-0.4
		C566.1,288.7,565.3,288.8,564.5,288.9z M572.1,287.7c-0.7,0.1-1.5,0.2-2.2,0.4C570.7,287.9,571.4,287.8,572.1,287.7z M585.8,284.9
		c-0.6,0.1-1.1,0.3-1.7,0.4C584.7,285.2,585.3,285,585.8,284.9z M587.7,284.4c-0.5,0.1-1,0.3-1.6,0.4
		C586.7,284.7,587.2,284.5,587.7,284.4z M583.9,285.4c-0.6,0.1-1.2,0.3-1.8,0.4C582.8,285.6,583.3,285.5,583.9,285.4z M579.5,286.3
		c-0.7,0.1-1.3,0.3-2,0.4C578.2,286.6,578.9,286.5,579.5,286.3z M470.5,408.1c-0.2,0-0.4,0.1-0.7,0.1
		C470,408.1,470.2,408.1,470.5,408.1z M564,289c-0.8,0.1-1.6,0.2-2.4,0.3C562.4,289.2,563.2,289.1,564,289z M561.2,279
		c1.9-0.9,3.7-1.8,5.4-2.8C564.9,277.1,563.1,278.1,561.2,279z M569.3,274.7c-0.8,0.5-1.7,1-2.6,1.5
		C567.6,275.7,568.5,275.2,569.3,274.7z M574.4,271.5c1.5-1,3-2,4.3-3.1C577.4,269.4,575.9,270.5,574.4,271.5z M569.4,274.7
		c1.7-1,3.3-2,4.8-3C572.7,272.7,571.1,273.7,569.4,274.7z M561.1,279c-2.8,1.4-5.8,2.7-8.9,3.9C555.3,281.7,558.3,280.4,561.1,279z
		 M549,290.9c-0.7,0.1-1.5,0.2-2.2,0.3C547.5,291.1,548.2,291,549,290.9z M555.3,290.2c-0.8,0.1-1.6,0.2-2.5,0.3
		C553.6,290.4,554.5,290.3,555.3,290.2z M558.1,289.8c-0.8,0.1-1.5,0.2-2.3,0.3C556.5,290,557.3,289.9,558.1,289.8z M552.1,290.6
		c-0.8,0.1-1.6,0.2-2.4,0.3C550.5,290.8,551.3,290.7,552.1,290.6z M546.2,291.3c-0.8,0.1-1.6,0.2-2.4,0.3
		C544.6,291.4,545.4,291.3,546.2,291.3z M558.5,289.7c0.8-0.1,1.6-0.2,2.4-0.3C560.1,289.5,559.3,289.6,558.5,289.7z M579.9,286.2
		c0.7-0.1,1.3-0.3,1.9-0.4C581.2,286,580.6,286.1,579.9,286.2z M546.2,243.4c0.4-0.2,0.7-0.5,1.1-0.7
		C547,242.9,546.6,243.1,546.2,243.4z M596.2,181c0.1-0.3,0.1-0.6,0.2-1C596.3,180.3,596.3,180.6,596.2,181z M449.1,408.1
		c0.5,0,1,0.1,1.5,0.1C450.1,408.2,449.6,408.2,449.1,408.1z M452.2,408.4c-0.5,0-1-0.1-1.5-0.1
		C451.2,408.3,451.7,408.3,452.2,408.4z M452.3,408.4c0.5,0,1,0.1,1.5,0.1C453.3,408.4,452.8,408.4,452.3,408.4z M597.7,171.4
		c0-0.2,0-0.5,0.1-0.7C597.8,171,597.7,171.2,597.7,171.4z M596.7,178.5c0.1-0.3,0.1-0.6,0.2-1C596.9,177.9,596.8,178.2,596.7,178.5
		z M597.2,176.2c0.1-0.3,0.1-0.6,0.1-0.9C597.3,175.5,597.2,175.8,597.2,176.2z M453.8,408.5c0.5,0,0.9,0,1.4,0.1
		C454.8,408.5,454.3,408.5,453.8,408.5z M597.5,173.8c0-0.3,0.1-0.6,0.1-0.9C597.6,173.2,597.5,173.5,597.5,173.8z M445.8,407.8
		c-0.5-0.1-1.1-0.1-1.6-0.2C444.7,407.7,445.2,407.7,445.8,407.8z M449,408.1c-0.5,0-1-0.1-1.6-0.2C448,408,448.5,408.1,449,408.1z
		 M466.4,408.4c0.3,0,0.6,0,0.9-0.1C467,408.4,466.7,408.4,466.4,408.4z M466.1,408.5c-0.3,0-0.6,0-0.9,0.1
		C465.5,408.5,465.8,408.5,466.1,408.5z M467.6,408.4c0.3,0,0.5,0,0.8-0.1C468.1,408.3,467.8,408.3,467.6,408.4z M456.7,408.6
		c-0.4,0-0.9,0-1.4,0C455.8,408.6,456.3,408.6,456.7,408.6z M463.9,408.6c0.3,0,0.7,0,1,0C464.5,408.5,464.2,408.6,463.9,408.6z
		 M468.7,408.3c0.2,0,0.5,0,0.7-0.1C469.2,408.2,469,408.2,468.7,408.3z M462.6,408.6c0.4,0,0.7,0,1.1,0
		C463.3,408.6,462.9,408.6,462.6,408.6z M459.6,408.6c-0.4,0-0.8,0-1.2,0C458.8,408.6,459.2,408.6,459.6,408.6z M458.2,408.6
		c-0.4,0-0.9,0-1.3,0C457.3,408.6,457.7,408.6,458.2,408.6z M459.8,408.6c0.4,0,0.8,0,1.2,0C460.6,408.6,460.2,408.6,459.8,408.6z
		 M461.2,408.6c0.4,0,0.8,0,1.1,0C461.9,408.6,461.6,408.6,461.2,408.6z M447.4,408c-0.5-0.1-1.1-0.1-1.6-0.2
		C446.3,407.9,446.9,407.9,447.4,408z M569.5,225.1c0.3-0.3,0.5-0.5,0.7-0.8C570,224.6,569.7,224.8,569.5,225.1z M573,221.4
		c-0.3,0.4-0.7,0.7-1,1.1C572.4,222.1,572.7,221.8,573,221.4z M565.8,228.5c0.3-0.3,0.7-0.6,1-0.9
		C566.5,227.9,566.1,228.2,565.8,228.5z M575.5,218.7c-0.3,0.4-0.7,0.8-1,1.2C574.8,219.4,575.1,219.1,575.5,218.7z M579.9,213.3
		c-0.3,0.4-0.6,0.8-0.9,1.2C579.3,214.1,579.6,213.7,579.9,213.3z M576.8,217.2c0.3-0.4,0.7-0.8,1-1.2
		C577.4,216.4,577.1,216.8,576.8,217.2z M553.2,238.7c0.5-0.4,1-0.7,1.5-1.1C554.2,238,553.7,238.3,553.2,238.7z M562.8,231.2
		c0.4-0.4,0.8-0.7,1.3-1.1C563.6,230.5,563.2,230.9,562.8,231.2z M549.8,241.1c0.5-0.3,1-0.7,1.4-1
		C550.8,240.4,550.3,240.7,549.8,241.1z M556.5,236.3c0.5-0.4,1-0.7,1.4-1.1C557.5,235.5,557,235.9,556.5,236.3z M576.4,306.5
		c0.4-0.5,0.9-1,1.3-1.5C577.3,305.5,576.9,306,576.4,306.5z M595.5,183.4c0.1-0.3,0.2-0.6,0.2-0.9
		C595.7,182.8,595.6,183.1,595.5,183.4z M592.9,191c-0.1,0.3-0.3,0.7-0.4,1C592.6,191.7,592.8,191.3,592.9,191z M590.6,196.2
		c-0.2,0.4-0.4,0.7-0.6,1.1C590.2,197,590.4,196.6,590.6,196.2z M581.9,210.6c-0.3,0.4-0.5,0.7-0.8,1.1
		C581.3,211.4,581.6,211,581.9,210.6z M594.8,185.9c0-0.1,0-0.2,0.1-0.2C594.8,185.7,594.8,185.8,594.8,185.9z M593.6,189.3
		c0.1-0.3,0.2-0.6,0.3-0.9C593.8,188.7,593.7,189,593.6,189.3z M591.3,194.7c0.2-0.4,0.3-0.7,0.5-1.1
		C591.6,193.9,591.5,194.3,591.3,194.7z M585.8,204.8c-0.1,0.2-0.2,0.4-0.4,0.6C585.6,205.1,585.7,204.9,585.8,204.8z M583.1,208.9
		c0.2-0.3,0.4-0.6,0.7-1C583.5,208.3,583.3,208.6,583.1,208.9z M587.1,202.7c0.2-0.3,0.4-0.7,0.6-1
		C587.5,202,587.3,202.3,587.1,202.7z M588.6,200c0.2-0.4,0.4-0.7,0.6-1.1C589,199.3,588.8,199.6,588.6,200z M582.9,297.9
		c0.4-0.7,0.9-1.5,1.3-2.2C583.8,296.4,583.4,297.2,582.9,297.9z M582.7,298.2c-0.4,0.6-0.8,1.2-1.2,1.8
		C581.9,299.5,582.3,298.9,582.7,298.2z M587.2,289.6c0.3-0.7,0.6-1.5,0.9-2.2C587.9,288.2,587.6,288.9,587.2,289.6z M589.5,283.9
		c-0.5,0.1-1,0.3-1.5,0.4C588.5,284.2,589,284,589.5,283.9z M581.1,300.6c-0.5,0.6-0.9,1.3-1.4,1.9
		C580.2,301.9,580.7,301.3,581.1,300.6z M578.1,304.5c0.5-0.6,1-1.2,1.5-1.9C579.2,303.3,578.7,303.9,578.1,304.5z M585.9,292.6
		c0.4-0.8,0.8-1.6,1.2-2.5C586.7,291,586.3,291.8,585.9,292.6z M585.6,293.2c-0.3,0.6-0.7,1.3-1,1.9
		C584.9,294.5,585.2,293.8,585.6,293.2z M589.5,283.9c-0.3,1-0.7,1.9-1,2.8C588.8,285.8,589.1,284.8,589.5,283.9z M120.2,370.9
		c-0.3,0.1-0.6,0.1-0.9,0.2C119.7,371,120,370.9,120.2,370.9z M113.4,364.2c0.5,0,1,0,1.6,0C114.4,364.2,113.9,364.2,113.4,364.2z
		 M122.8,370.3c-0.3,0.1-0.6,0.1-0.8,0.2C122.3,370.5,122.5,370.4,122.8,370.3z M117.3,364.2c0.5,0,0.9,0,1.4,0
		C118.2,364.2,117.8,364.2,117.3,364.2z M124.5,370c0.3-0.1,0.6-0.1,0.9-0.2C125.1,369.8,124.8,369.9,124.5,370z M91.6,361.8
		c-0.4-0.1-0.8-0.2-1.3-0.3C90.8,361.6,91.2,361.7,91.6,361.8z M109.7,364c0.5,0,0.9,0,1.4,0.1C110.6,364.1,110.2,364,109.7,364z
		 M116.8,371.6c0.3-0.1,0.6-0.1,0.8-0.2C117.3,371.5,117.1,371.5,116.8,371.6z M93.7,362.2c0.4,0.1,0.8,0.1,1.1,0.2
		C94.5,362.4,94.1,362.3,93.7,362.2z M88.2,361.1c-0.3-0.1-0.7-0.2-1-0.2C87.5,360.9,87.9,361,88.2,361.1z M105.1,363.7
		c0.4,0,0.9,0.1,1.3,0.1C106,363.8,105.5,363.7,105.1,363.7z M101.4,363.3c0.5,0.1,1,0.1,1.4,0.2
		C102.4,363.4,101.9,363.4,101.4,363.3z M99.2,363.1c-0.4-0.1-0.8-0.1-1.2-0.2C98.4,363,98.8,363,99.2,363.1z M90.6,376.5
		c-0.7,0.1-1.4,0.2-2.1,0.4C89.2,376.8,89.9,376.7,90.6,376.5z M92.8,376.1c-0.6,0.1-1.2,0.2-1.9,0.3
		C91.6,376.4,92.2,376.3,92.8,376.1z M90.2,378.8c0.2,0.2,0.4,0.4,0.5,0.6C90.6,379.2,90.4,379,90.2,378.8z M96.4,375.5
		c0.3-0.1,0.7-0.1,1-0.2C97.1,375.4,96.7,375.4,96.4,375.5z M95.1,375.7c-0.5,0.1-0.9,0.2-1.4,0.2C94.2,375.9,94.6,375.8,95.1,375.7
		z M94.5,382.8c-0.2-0.1-0.3-0.3-0.5-0.4C94.2,382.6,94.4,382.7,94.5,382.8z M84.3,360.1c-0.3-0.1-0.7-0.2-1-0.3
		C83.7,359.9,84,360,84.3,360.1z M115,372c-0.3,0.1-0.6,0.1-0.8,0.2C114.5,372.1,114.7,372,115,372z M109.8,373
		c-0.3,0.1-0.6,0.1-0.8,0.2C109.3,373.1,109.6,373,109.8,373z M106.4,373.6c0.3-0.1,0.6-0.1,0.9-0.2
		C107,373.5,106.7,373.6,106.4,373.6z M112.4,372.5c-0.3,0.1-0.6,0.1-0.8,0.2C111.9,372.6,112.1,372.5,112.4,372.5z M99,375
		c0.3,0,0.5-0.1,0.8-0.1C99.5,374.9,99.3,375,99,375z M104.8,374c-0.3,0.1-0.6,0.1-0.9,0.2C104.2,374.1,104.5,374,104.8,374z
		 M102.2,374.4c-0.3,0-0.5,0.1-0.8,0.1C101.7,374.5,102,374.5,102.2,374.4z M67.3,291.2c-0.7-0.1-1.5-0.2-2.2-0.3
		C65.9,291,66.6,291.1,67.3,291.2z M18.4,182.6c0.1,0.3,0.1,0.6,0.2,0.9C18.5,183.1,18.4,182.8,18.4,182.6z M19.3,185.6
		c0,0.1,0.1,0.2,0.1,0.3C19.3,185.8,19.3,185.7,19.3,185.6z M17.9,181c-0.1-0.3-0.1-0.6-0.2-1C17.8,180.3,17.9,180.6,17.9,181z
		 M17.4,178.5c-0.1-0.3-0.1-0.6-0.2-1C17.3,177.9,17.3,178.2,17.4,178.5z M16.8,175.2c0,0.3,0.1,0.6,0.1,0.9
		C16.9,175.8,16.9,175.5,16.8,175.2z M20.2,188.4c0.1,0.3,0.2,0.6,0.3,0.9C20.5,189,20.3,188.7,20.2,188.4z M23.6,196.2
		c0.2,0.4,0.4,0.7,0.6,1.1C23.9,197,23.7,196.6,23.6,196.2z M24.9,198.9c0.2,0.4,0.4,0.7,0.6,1.1C25.3,199.6,25.1,199.3,24.9,198.9z
		 M21.7,192c-0.1-0.3-0.3-0.7-0.4-1C21.4,191.3,21.5,191.7,21.7,192z M16.5,172.9c0,0.3,0.1,0.6,0.1,0.9
		C16.6,173.5,16.6,173.2,16.5,172.9z M22.3,193.6c0.2,0.4,0.3,0.7,0.5,1.1C22.7,194.3,22.5,193.9,22.3,193.6z M168.3,407.8
		c-0.5,0.1-1.1,0.1-1.6,0.2C167.3,407.9,167.8,407.9,168.3,407.8z M27,202.7c-0.2-0.3-0.4-0.7-0.6-1C26.6,202,26.8,202.3,27,202.7z
		 M165.1,408.1c0.5,0,1-0.1,1.5-0.1C166.1,408,165.6,408.1,165.1,408.1z M170,407.6c-0.5,0.1-1.1,0.1-1.6,0.2
		C168.9,407.7,169.4,407.7,170,407.6z M24.1,237.2c-0.2,0-0.3-0.1-0.5-0.1C23.8,237.1,24,237.2,24.1,237.2z M163.4,408.3
		c-0.5,0-1,0.1-1.5,0.1C162.4,408.3,162.9,408.3,163.4,408.3z M246.6,384.9c2.1,8.2,5.5,15.2,11.2,20.7c-13.1-8.4-18.6-26-21.3-43.8
		c-0.4-7.2-0.3-14.5,0.1-21.6c-2.9,19.2-6.6,29.7-9.5,35.5c-9.5,19.5-33,28.3-53.7,31.5c1.7-0.3,3.4-0.6,5.1-0.9
		c-8.3,0.6-16.4,0.6-25.1-1.4c4.5-2.4,10.3-8.1,14.2-12.5c-0.2,0.1-0.5,0.3-0.7,0.4c6-3.7,11.6-7.7,17-12.1
		c-9.1,3.3-17.9,6-26.3,8.2c-26.4,0.7-46.5-3.6-52.7-10.6c6.4-1.8,16.6-5.7,22.8-8.9c-0.2,0-0.4,0.1-0.6,0.1
		c14.3-3.2,27.1-6.7,32-9.8c-12.9,2.7-25.4,4.2-37.1,4.5c-20.2-5-45.5-13.1-53.1-24.3c6.4-1.2,18.3-5.3,26.5-8.8l-44.6,5.1
		c26.9-3.1,53.8-6.1,80.7-9.2c-14.3-0.3-29.1,0.2-43-0.9c1.9,0.1,3.7,0.3,5.6,0.3c-22-7.6-44.5-17.6-51.2-34.6
		c5.3,1.4,16.9,1.5,30.5,0c-0.7-0.1-1.4-0.1-2.1-0.2c14,1.5,27.6,2.5,36.5,2.6c-16.9-2.1-32.4-6-45.7-11.3
		c5.2,2.1,10.7,3.9,16.5,5.5c-20.1-12.8-43.7-29.8-51.3-44.3c9,1.2,21,2,32.6,2.3c-0.1,0-0.2-0.1-0.4-0.1c8.8,2.3,17.3,4.5,25,6.1
		c-5.9-2.8-11.4-5.8-16.5-9c-14.7-16.3-30.3-37.5-36.5-58.7c13.3,3.9,29,9.9,42.8,14.1l-57.9-30.2c26.4,13.8,52.8,27.6,79.2,41.3
		c18.3,19,50.2,35,77.7,49.6c-16.7-4.1-75-28.3-102.6-48.7c12.1,41.4,57.9,56.2,113,70.3c-24.1,0-75.9-7.3-103.3-18.4
		c14,31.3,61.9,39.5,100.8,38.6c-17,4.7-53.9,6.2-80,3.1c23.5,19.9,60.2,23.9,87.8,17.2c-12.2,9.7-32.5,17.8-55,21
		c19.6,10.4,48.9,10,62.8,1.4c-5.1,8.3-15.4,17.8-28.1,25.9c17.5,3.2,32.7-0.1,40.2-4.2c-1.8,6.4-5.8,13.9-11.4,21.3
		c17.8,0,24.4-12.9,26.9-18.2c-4,7-7.8,11.2-19.6,15.4c3.4-5.5,7.8-14.3,11.2-26.8c-7.8,7.4-28.5,10-37.4,9.5
		c10-7.4,16.4-11.4,26.3-30.2c-20.1,11.9-44.1,10.7-57.9,6.7c28.1-4,41.3-16,58.1-29.9c-23.7,9.5-68.9,7.3-90.6-4.9
		c39.5,3,71.5-3.4,87.1-10.1c-48.4,1.7-94-5.2-112.9-29.5c35.9,11.6,80.5,17.2,112.8,13.4c-38.5-9.9-104-25.1-123-61.9
		c11.6,8.6,71.7,40.1,107.9,43.8c-4.9-3.4-78.7-41.4-94.8-65.8c36.9,24.1,85.3,30.6,123.4,59.3c19,14.4,31.4,42.5,29.4,67.7
		C243.1,343.4,242,367.4,246.6,384.9z M151,266c-16.6-5.4-40.7-18.3-45.9-24.9c7.3,2.7,12.5,4,21.3,6.3
		c-18.8-7.8-35.5-16.5-40.8-20.1C97.7,246.4,124.9,258,151,266z M174.6,297c-16.4-2.1-49.5-6.1-66.8-18.4c12.8,2.5,22.2,2.8,31.5,3
		c-15.5-2-31.3-5.2-45.8-9.4C109.9,289.6,140.6,296.3,174.6,297z M177.7,317.3c-20.5,0.1-34.3-3.8-34.3-3.8c8.3-0.9,16.8-3,19.8-4.7
		c-10.6,1.9-24.2,2.9-40.2,2C138.2,317.2,161,319.5,177.7,317.3z M198.4,339.5c-5.8,0.9-24.7,3.7-27.1,2.2c4.4-1.9,10.4-7.8,12.5-11
		c-7.7,5.7-17.1,10.2-30.8,12.8C164.2,346,182.1,344.9,198.4,339.5z M204.9,361c-6.7,1.6-10.4,2.1-14.6,2c1.6-1.8,6.9-7.9,7.2-12.8
		c-5.1,8.2-9.2,11.1-15,15.5C187.5,365.9,198,364.4,204.9,361z M215.2,377.8l-5.2,1.6c0,0,3.6-8.6,3.4-12.5
		c-2.5,7-5.2,12.2-7.5,15.7C210,381,213,379.5,215.2,377.8z M118,217.7c13.9,3.9,28.2,8.9,42.2,13c-20.2-8.1-41.1-13.6-59-24.5
		c4.8,6.4,15.4,14,27,21.2C124.6,224.1,120.8,220.6,118,217.7z M227.3,290.5c-11.3-23.7-29.2-43-55.2-52
		c22.3,10.7,36.3,23.7,50.7,54c10.9,22.9,13.7,68.2-5.2,91.1C237.8,363.6,238.4,313.7,227.3,290.5z M101.3,387.3
		c-0.2-0.1-0.4-0.2-0.7-0.4C100.9,387.1,101.1,387.2,101.3,387.3z M16.4,170.7c0,0.2,0,0.5,0.1,0.7C16.4,171.2,16.4,171,16.4,170.7z
		 M171.7,407.4c0.6-0.1,1.1-0.2,1.7-0.2C172.8,407.2,172.3,407.3,171.7,407.4z M170,407.6c0.5-0.1,1.1-0.1,1.7-0.2
		C171.1,407.5,170.6,407.5,170,407.6z M92.6,381.2c-0.2-0.2-0.4-0.4-0.6-0.6C92.2,380.8,92.4,381,92.6,381.2z M48.3,228.5
		c-0.3-0.3-0.7-0.6-1-0.9C47.6,227.9,48,228.2,48.3,228.5z M62.9,240.1c0.5,0.3,1,0.7,1.4,1C63.8,240.7,63.4,240.4,62.9,240.1z
		 M66.8,242.6c0.4,0.2,0.7,0.5,1.1,0.7C67.5,243.1,67.1,242.9,66.8,242.6z M56.2,235.2c0.5,0.4,0.9,0.7,1.4,1.1
		C57.1,235.9,56.7,235.5,56.2,235.2z M55.3,245.2c0.9,0.2,1.8,0.5,2.8,0.7C57.2,245.7,56.2,245.5,55.3,245.2z M60.9,238.7
		c-0.5-0.4-1-0.7-1.5-1.1C59.9,238,60.4,238.3,60.9,238.7z M36.4,240.3c0.1,0,0.3,0.1,0.4,0.1C36.6,240.3,36.5,240.3,36.4,240.3z
		 M32,239.2c0.3,0.1,0.5,0.1,0.8,0.2C32.5,239.3,32.3,239.2,32,239.2z M28.3,238.2c-0.2-0.1-0.5-0.1-0.7-0.2
		C27.8,238.1,28,238.2,28.3,238.2z M53.1,232.7c0.4,0.4,0.9,0.7,1.4,1.1C54,233.4,53.5,233,53.1,232.7z M53.8,244.8
		c-1-0.3-1.9-0.5-2.9-0.8C51.8,244.3,52.8,244.6,53.8,244.8z M40.8,241.4c0.3,0.1,0.5,0.1,0.8,0.2C41.3,241.6,41.1,241.5,40.8,241.4
		z M36.4,216c0.3,0.4,0.6,0.8,1,1.2C37,216.8,36.7,216.4,36.4,216z M50.1,230.2c0.4,0.4,0.8,0.7,1.3,1.1
		C51,230.9,50.5,230.5,50.1,230.2z M35.2,214.5c-0.3-0.4-0.6-0.8-0.9-1.2C34.6,213.7,34.9,214.1,35.2,214.5z M30.4,208
		c0.2,0.3,0.4,0.6,0.7,1C30.8,208.6,30.6,208.3,30.4,208z M28.3,204.7c0.1,0.2,0.2,0.4,0.4,0.6C28.5,205.1,28.4,204.9,28.3,204.7z
		 M32.3,210.6c0.3,0.4,0.6,0.7,0.8,1.1C32.8,211.4,32.5,211,32.3,210.6z M98.5,385.7c0.2,0.1,0.5,0.3,0.7,0.4
		C98.9,386,98.7,385.8,98.5,385.7z M160.4,408.5c0.5,0,0.9-0.1,1.4-0.1C161.4,408.4,160.9,408.4,160.4,408.5z M43.9,224.3
		c0.3,0.3,0.5,0.5,0.7,0.8C44.4,224.8,44.2,224.6,43.9,224.3z M42.1,222.5c-0.3-0.4-0.7-0.7-1-1.1C41.4,221.7,41.8,222.1,42.1,222.5
		z M38.7,218.7c0.3,0.4,0.7,0.8,1,1.2C39.3,219.4,39,219.1,38.7,218.7z M163.5,408.3c0.5,0,1-0.1,1.5-0.1
		C164.5,408.2,164,408.2,163.5,408.3z M141.2,392c-0.4,0.1-0.8,0.1-1.1,0.2C140.5,392.1,140.8,392.1,141.2,392z M144.5,391.5
		c-0.3,0.1-0.6,0.1-1,0.2C143.9,391.6,144.2,391.6,144.5,391.5z M103.4,388.3C103.4,388.4,103.4,388.4,103.4,388.3
		C103.4,388.4,103.4,388.4,103.4,388.3z M135.1,392.7c-0.3,0-0.6,0.1-0.9,0.1C134.5,392.8,134.8,392.7,135.1,392.7z M138.2,392.4
		c-0.4,0-0.8,0.1-1.2,0.1C137.4,392.5,137.8,392.4,138.2,392.4z M148.3,390.8c-0.4,0.1-0.8,0.2-1.2,0.2
		C147.5,391,147.9,390.9,148.3,390.8z M157.7,397.9c-0.3,0.1-0.5,0.3-0.8,0.4C157.2,398.2,157.4,398.1,157.7,397.9z M161.4,396
		c-0.4,0.2-0.7,0.4-1.1,0.6C160.6,396.4,161,396.2,161.4,396z M153.5,389.7c0.4-0.1,0.8-0.2,1.2-0.3
		C154.3,389.5,153.9,389.6,153.5,389.7z M163.6,394.7c0.4-0.2,0.7-0.4,1.1-0.7C164.3,394.3,163.9,394.5,163.6,394.7z M150.2,390.4
		c0.4-0.1,0.9-0.2,1.3-0.3C151.1,390.3,150.7,390.3,150.2,390.4z M153.5,400.1c-0.3,0.1-0.5,0.2-0.8,0.4
		C153,400.3,153.3,400.2,153.5,400.1z M111.2,391.1c-0.2-0.1-0.4-0.1-0.6-0.2C110.8,391,111,391.1,111.2,391.1z M80.3,358.8
		c0.4,0.1,0.7,0.2,1.1,0.4C81,359,80.6,358.9,80.3,358.8z M108.8,390.4c-0.3-0.1-0.5-0.2-0.8-0.3
		C108.3,390.3,108.5,390.4,108.8,390.4z M130.5,393c0.3,0,0.6,0,0.9,0C131.1,393,130.8,393,130.5,393z M114.2,391.8
		c-0.2,0-0.4-0.1-0.7-0.1C113.8,391.7,114,391.8,114.2,391.8z M106.4,389.6c-0.2-0.1-0.5-0.2-0.7-0.3
		C105.9,389.4,106.2,389.5,106.4,389.6z M116.1,392.2c0.3,0,0.6,0.1,0.9,0.1C116.7,392.3,116.4,392.2,116.1,392.2z M127.6,393
		c0.3,0,0.7,0,1,0C128.3,393,127.9,393,127.6,393z M125.8,393c-0.3,0-0.6,0-1,0C125.1,393,125.5,393,125.8,393z M119.6,392.7
		c-0.3,0-0.6-0.1-0.9-0.1C119,392.6,119.3,392.6,119.6,392.7z M122.3,392.9c-0.1,0-0.3,0-0.4,0C122,392.9,122.2,392.9,122.3,392.9z
		 M141.4,405.3c0.4-0.1,0.8-0.3,1.2-0.5C142.2,405,141.8,405.1,141.4,405.3z M148,408.5c0.3,0,0.6,0,0.9,0.1
		C148.6,408.5,148.3,408.5,148,408.5z M150.2,408.6c-0.3,0-0.6,0-1,0C149.6,408.5,149.9,408.6,150.2,408.6z M150,401.7
		c-0.4,0.2-0.8,0.4-1.2,0.5C149.2,402.1,149.6,401.9,150,401.7z M144.7,408.2c0.2,0,0.5,0.1,0.7,0.1
		C145.2,408.2,144.9,408.2,144.7,408.2z M146.5,408.4c-0.3,0-0.5,0-0.8-0.1C146,408.3,146.3,408.3,146.5,408.4z M146.9,408.4
		c0.3,0,0.6,0,0.9,0.1C147.4,408.4,147.2,408.4,146.9,408.4z M156,408.6c0.4,0,0.8,0,1.3,0C156.8,408.6,156.4,408.6,156,408.6z
		 M151.8,408.6c0.4,0,0.7,0,1.1,0C152.5,408.6,152.2,408.6,151.8,408.6z M158.7,408.5c-0.4,0-0.9,0-1.3,0
		C157.9,408.6,158.3,408.6,158.7,408.5z M153.2,408.6c0.4,0,0.8,0,1.2,0C153.9,408.6,153.5,408.6,153.2,408.6z M154.5,408.6
		c0.4,0,0.8,0,1.2,0C155.4,408.6,154.9,408.6,154.5,408.6z M150.5,408.6c0.3,0,0.7,0,1,0C151.2,408.6,150.9,408.6,150.5,408.6z
		 M138.8,407.1c0.1,0,0.2,0.1,0.3,0.1C139,407.1,138.9,407.1,138.8,407.1z M138.2,406.9c0.1,0,0.1,0,0.2,0.1
		C138.4,406.9,138.3,406.9,138.2,406.9z M139.8,407.3c-0.1,0-0.2-0.1-0.3-0.1C139.6,407.3,139.7,407.3,139.8,407.3z M145.1,403.8
		c0.4-0.2,0.9-0.4,1.3-0.5C146,403.5,145.6,403.6,145.1,403.8z M158.9,408.5c0.5,0,0.9,0,1.4-0.1
		C159.8,408.5,159.4,408.5,158.9,408.5z M143.7,408.1c0.2,0,0.4,0.1,0.7,0.1C144.1,408.1,143.9,408.1,143.7,408.1z M142.3,407.9
		c-0.2,0-0.4-0.1-0.5-0.1C142,407.8,142.2,407.8,142.3,407.9z M140.6,407.5c-0.1,0-0.3-0.1-0.4-0.1
		C140.3,407.5,140.5,407.5,140.6,407.5z M142.7,407.9c0.2,0,0.4,0.1,0.6,0.1C143.1,408,142.9,407.9,142.7,407.9z M141.4,407.7
		c-0.2,0-0.3-0.1-0.5-0.1C141.1,407.6,141.3,407.7,141.4,407.7z M72,324c0.8,0.2,1.6,0.3,2.5,0.5C73.6,324.3,72.8,324.1,72,324z
		 M54.8,318.6c0.6,0.3,1.3,0.6,1.9,0.8C56.1,319.2,55.4,318.9,54.8,318.6z M34.6,286.3c0.7,0.1,1.3,0.3,2,0.4
		C35.9,286.6,35.3,286.5,34.6,286.3z M68.8,353.8c0.2,0.1,0.3,0.2,0.5,0.3C69.1,354,68.9,353.9,68.8,353.8z M37,286.8
		c0.7,0.1,1.4,0.3,2,0.4C38.3,287,37.7,286.9,37,286.8z M34.2,286.2c-0.7-0.1-1.3-0.3-1.9-0.4C32.9,286,33.5,286.1,34.2,286.2z
		 M26.2,284.3c-0.5-0.1-1-0.3-1.5-0.4C25.1,284,25.6,284.2,26.2,284.3z M32,285.8c-0.6-0.1-1.2-0.3-1.8-0.4
		C30.8,285.5,31.4,285.6,32,285.8z M28,284.8c-0.5-0.1-1.1-0.3-1.6-0.4C26.9,284.5,27.4,284.7,28,284.8z M30,285.3
		c-0.6-0.1-1.2-0.3-1.7-0.4C28.9,285,29.4,285.2,30,285.3z M39.3,287.2c0.7,0.1,1.5,0.3,2.2,0.4C40.7,287.5,40,287.3,39.3,287.2z
		 M66.7,322.8c-0.8-0.2-1.6-0.4-2.4-0.7C65.1,322.3,65.9,322.6,66.7,322.8z M42,287.7c0.7,0.1,1.5,0.2,2.2,0.4
		C43.5,287.9,42.7,287.8,42,287.7z M19.3,236.1c0.3,0.1,0.5,0.1,0.8,0.2C19.8,236.2,19.5,236.1,19.3,236.1z M69.5,323.4
		c0.8,0.2,1.7,0.4,2.5,0.5C71.1,323.8,70.3,323.6,69.5,323.4z M57.5,345.4c-0.2-0.2-0.4-0.4-0.5-0.6C57.1,345,57.3,345.2,57.5,345.4
		z M65.8,352c0.2,0.1,0.5,0.3,0.7,0.4C66.2,352.3,66,352.2,65.8,352z M55.2,343c0,0,0.1,0.1,0.1,0.1C55.3,343.1,55.3,343,55.2,343z
		 M62,321.4c0.7,0.2,1.4,0.5,2.2,0.7C63.5,321.9,62.7,321.6,62,321.4z M61.6,321.3c-1.5-0.5-3-1-4.4-1.6
		C58.6,320.2,60.1,320.8,61.6,321.3z M69.2,323.4c-0.7-0.2-1.4-0.3-2.2-0.5C67.7,323,68.5,323.2,69.2,323.4z M43.8,312.1
		c0.6,0.4,1.2,0.9,1.7,1.3C45,312.9,44.4,312.5,43.8,312.1z M41.9,310.5c0.6,0.5,1.2,1,1.8,1.5C43.1,311.5,42.5,311,41.9,310.5z
		 M24.7,283.9c0.3,1,0.7,1.9,1,2.8C25.3,285.8,25,284.8,24.7,283.9z M39.7,308.5c-0.6-0.5-1.1-1.1-1.7-1.7
		C38.6,307.4,39.1,308,39.7,308.5z M61.6,349.1c-0.1-0.1-0.2-0.1-0.3-0.2C61.4,348.9,61.5,349,61.6,349.1z M52.4,317.5
		c0.7,0.4,1.4,0.7,2.1,1C53.8,318.2,53.1,317.8,52.4,317.5z M49.9,316.1c-0.7-0.4-1.3-0.8-2-1.2C48.6,315.3,49.3,315.7,49.9,316.1z
		 M47.8,314.8c-0.6-0.4-1.2-0.8-1.8-1.2C46.6,314.1,47.2,314.5,47.8,314.8z M58.8,346.7c0.2,0.2,0.4,0.3,0.5,0.5
		C59.2,347,59,346.9,58.8,346.7z M41.5,310.1c-0.5-0.4-1-0.9-1.4-1.3C40.5,309.3,41,309.7,41.5,310.1z M26.9,289.6
		c-0.3-0.7-0.6-1.5-0.9-2.2C26.3,288.2,26.6,288.9,26.9,289.6z M27.1,290.1c0.4,0.9,0.8,1.7,1.2,2.5C27.9,291.8,27.5,291,27.1,290.1
		z M28.6,293.2c0.3,0.6,0.7,1.3,1,1.9C29.2,294.5,28.9,293.8,28.6,293.2z M36.4,305c0.4,0.5,0.9,1,1.3,1.5
		C37.3,306,36.8,305.5,36.4,305z M63.4,350.4c0.2,0.2,0.5,0.3,0.7,0.5C63.9,350.8,63.7,350.6,63.4,350.4z M33,300.6
		c0.5,0.6,0.9,1.3,1.4,1.9C33.9,301.9,33.4,301.3,33,300.6z M31.2,297.9c-0.4-0.7-0.9-1.5-1.3-2.2C30.3,296.4,30.7,297.2,31.2,297.9
		z M34.5,302.6c0.5,0.7,1,1.3,1.5,1.9C35.5,303.9,35,303.3,34.5,302.6z M31.4,298.2c0.4,0.6,0.8,1.2,1.2,1.8
		C32.2,299.5,31.8,298.9,31.4,298.2z M50.4,316.4c0.6,0.3,1.1,0.6,1.7,0.9C51.5,317,50.9,316.7,50.4,316.4z M29.1,263
		c-0.6-0.6-1.1-1.1-1.7-1.7C28,261.9,28.5,262.4,29.1,263z M31.1,264.9c-0.6-0.5-1.2-1.1-1.8-1.6C29.9,263.8,30.5,264.3,31.1,264.9z
		 M27.4,261.3c-0.5-0.5-1-1.1-1.5-1.7C26.4,260.2,26.9,260.7,27.4,261.3z M24.3,257.7c0.4,0.6,0.9,1.1,1.4,1.7
		C25.2,258.8,24.7,258.3,24.3,257.7z M24.1,257.4c-0.4-0.6-0.9-1.1-1.3-1.7C23.2,256.3,23.6,256.9,24.1,257.4z M33.2,266.7
		c0.6,0.5,1.3,1.1,2,1.6C34.5,267.7,33.8,267.2,33.2,266.7z M47.4,276.1c-0.9-0.5-1.7-1-2.6-1.5C45.6,275.2,46.5,275.7,47.4,276.1z
		 M44.8,274.7c-1.7-1-3.3-2-4.8-3C41.5,272.7,43.1,273.7,44.8,274.7z M35.4,268.4c1.4,1.1,2.8,2.1,4.3,3.1
		C38.2,270.5,36.8,269.4,35.4,268.4z M21.6,254c0.4,0.6,0.8,1.2,1.2,1.7C22.4,255.1,22,254.5,21.6,254z M33,266.5
		c-0.6-0.5-1.3-1.1-1.9-1.6C31.7,265.4,32.4,266,33,266.5z M15.8,237.6c0,0.6,0.1,1.2,0.2,1.9C15.9,238.8,15.9,238.2,15.8,237.6z
		 M96.9,384.6c-0.2-0.1-0.3-0.2-0.5-0.3C96.6,384.4,96.8,384.5,96.9,384.6z M16.3,241.5c-0.1-0.6-0.2-1.1-0.3-1.7
		C16.1,240.3,16.2,240.9,16.3,241.5z M15.8,237.2c0-0.6-0.1-1.3-0.1-1.9C15.7,235.9,15.7,236.6,15.8,237.2z M16.4,241.7
		c0.1,0.6,0.3,1.2,0.4,1.8C16.7,243,16.5,242.4,16.4,241.7z M20.3,251.9c0.3,0.6,0.7,1.2,1.1,1.7C21,253,20.7,252.5,20.3,251.9z
		 M52.9,279c-1.9-0.9-3.7-1.8-5.4-2.8C49.2,277.1,51,278.1,52.9,279z M18.4,248c0.3,0.6,0.5,1.2,0.8,1.8
		C18.9,249.2,18.6,248.6,18.4,248z M19.3,250c0.3,0.6,0.6,1.1,0.9,1.7C19.9,251.1,19.6,250.6,19.3,250z M18.2,247.6
		c-0.2-0.6-0.5-1.2-0.7-1.8C17.8,246.4,18,247,18.2,247.6z M17,244c0.2,0.6,0.4,1.2,0.6,1.8C17.3,245.2,17.1,244.6,17,244z
		 M53.2,289.4c0.8,0.1,1.6,0.2,2.5,0.3C54.8,289.6,54,289.5,53.2,289.4z M79.9,325.3c-1.7-0.2-3.4-0.5-5.1-0.8
		C76.5,324.8,78.2,325,79.9,325.3z M50.2,289c0.8,0.1,1.6,0.2,2.4,0.3C51.7,289.2,50.9,289.1,50.2,289z M49.6,288.9
		c-0.8-0.1-1.6-0.2-2.3-0.4C48.1,288.7,48.8,288.8,49.6,288.9z M71.3,355.1c0.3,0.1,0.6,0.3,0.9,0.4
		C71.8,355.4,71.5,355.2,71.3,355.1z M88.3,326.1c-2.7-0.2-5.4-0.5-8.1-0.8C82.8,325.6,85.5,325.9,88.3,326.1z M47.1,288.5
		c-0.8-0.1-1.6-0.2-2.4-0.4C45.5,288.3,46.3,288.4,47.1,288.5z M52.2,338.9c-0.1-0.2-0.3-0.4-0.4-0.6
		C52,338.5,52.1,338.7,52.2,338.9z M53,279c2.8,1.4,5.8,2.7,8.9,3.9C58.8,281.7,55.8,280.4,53,279z M74,356.4
		c0.3,0.1,0.6,0.2,0.8,0.4C74.5,356.6,74.2,356.5,74,356.4z M77.4,357.8c0.2,0.1,0.5,0.2,0.7,0.3C77.9,358,77.7,357.9,77.4,357.8z
		 M58.9,290.2c0.8,0.1,1.6,0.2,2.5,0.3C60.5,290.4,59.7,290.3,58.9,290.2z M62.1,290.6c0.8,0.1,1.6,0.2,2.4,0.3
		C63.7,290.8,62.9,290.7,62.1,290.6z M56.1,289.8c0.8,0.1,1.5,0.2,2.3,0.3C57.6,290,56.8,289.9,56.1,289.8z M70.3,291.5
		c-0.8-0.1-1.6-0.2-2.4-0.3C68.7,291.3,69.5,291.4,70.3,291.5z M53.7,341c-0.1-0.2-0.3-0.4-0.4-0.6C53.4,340.6,53.6,340.8,53.7,341z
		"/>
	<path fill="#EEEEEE" d="M310.9,448.5c0.1-0.1,0.1-0.2,0.2-0.4C311.1,448.2,311,448.4,310.9,448.5z M310.6,449.3
		c0.1-0.1,0.1-0.3,0.2-0.4C310.7,449.1,310.6,449.2,310.6,449.3z M310.4,449.8c-0.1,0.1-0.1,0.2-0.2,0.4
		C310.3,450.1,310.3,450,310.4,449.8z M310,450.5l-2,4C308.7,453.4,309.4,452,310,450.5z M311.4,447.3c0,0.1-0.1,0.2-0.1,0.3
		C311.3,447.6,311.4,447.4,311.4,447.3z M311.9,445.6c0-0.1,0-0.1,0-0.2C312,445.5,311.9,445.5,311.9,445.6z M311.8,446
		c0,0.1,0,0.2-0.1,0.3C311.8,446.1,311.8,446,311.8,446z M311.5,446.9c0-0.1,0.1-0.2,0.1-0.3C311.6,446.7,311.6,446.8,311.5,446.9z
		 M336.3,420.1c0.7,16.8-23.4,50.4-29.2,50.4c-5.9,0-29.9-33.6-29.2-50.4c1.7,0.1,3.4,0.2,5,0.2c-1.3-2.6-2.6-5.3-3.9-7.9
		c2,0.8,4,1.6,6,2.5c-0.8-2.7-1.7-5.5-2.5-8.2c3.5,1.7,7.1,3.5,10.6,5.2c0-1.7,0-3.5,0-5.2c2.2,1.6,4.5,3.3,6.7,4.9
		c2.4-0.8,4.9-1.6,7.3-2.4c2.4,0.8,4.9,1.6,7.3,2.4c2.2-1.6,4.5-3.3,6.7-4.9c0,1.7,0,3.5,0,5.2c3.5-1.7,7.1-3.5,10.6-5.2
		c-0.8,2.7-1.7,5.5-2.5,8.2c2-0.8,4-1.6,6-2.5c-1.3,2.6-2.6,5.3-3.9,7.9C332.9,420.3,334.6,420.2,336.3,420.1z M287.5,427.4
		c0.3-0.4,1.7-1.4,2.7-1.4c1.7,0,3.4,0.6,5,1.9c-1.1-2.2-3.2-2.9-4.4-3.6c0.6-1.1,5-6.1,15.5-6.3c-9-0.9-16.1,3.9-17.6,6.3
		c-1.4,0.6-2.9,1.9-3,3c-0.2,1.6,2.1,4,2.1,4.1l1.1,0.7C288.8,431.7,287.3,427.7,287.5,427.4z M320.9,431.8c0,0,0.6-0.9,1.9-3.1
		c0,0-5.7,1.9-6.6,3.6c0,0-0.3-1.4,0.8-2.7c0,0-1.9,0.8-2.2,2.2c-0.5,3-5.2-1.4-4.5-3.9c0,0-1.7,2-1.5,3c0.1,0.9-4.2,0.7-4.4,0
		c0.1-1-1.5-3-1.5-3c0.8,2.6-4,6.9-4.5,3.9c-0.2-1.3-2.2-2.2-2.2-2.2c1.1,1.3,0.8,2.7,0.8,2.7c-0.9-1.7-6.6-3.6-6.6-3.6
		c1.3,2.2,1.9,3.1,1.9,3.1c-0.6-0.2-1.1-0.5-1.7-0.7c0,0,1.7,2.8,3.4,3.4c1.7,0.6,2.5-1.2,2.5-1.2s0.4,0.9,1.4,1.3
		c0.9,0.4,2.7-1.5,2.7-1.5c-0.5,0.9-1.1,1.9-1.6,2.8c1.7-1.9,2.9-3.7,5.3-4c-3.4,0.6-5,4.3-5.5,5.5c-1.5,0.2-3.9,1.2-4.2,2.6
		c-1.1,2.4,1.1,4.3,2,4.6c-0.1-0.6-0.3-1.1-0.1-1.7l3.4,2.3c1.1,4.2,3.8,9.5,6.7,13c2.9-3.5,5.7-8.8,6.7-13l3.4-2.3
		c0.2,0.5,0,1.1-0.1,1.7c0.9-0.3,3.1-2.2,2-4.6c-0.3-1.4-2.8-2.4-4.2-2.6c-0.4-1.2-2-4.9-5.5-5.5c2.3,0.2,3.6,2,5.3,4
		c-0.5-0.9-1.1-1.9-1.6-2.8c0,0,1.7,1.9,2.7,1.5c0.9-0.4,1.4-1.3,1.4-1.3s0.9,1.8,2.5,1.2c1.7-0.6,3.4-3.4,3.4-3.4
		C322,431.3,321.5,431.5,320.9,431.8z M327.5,427.3c-0.1-1.1-1.6-2.5-3-3c-1.4-2.4-8.6-7.2-17.6-6.3c10.5,0.2,14.9,5.2,15.5,6.3
		c-1.2,0.7-3.3,1.5-4.4,3.6c1.6-1.3,3.2-2,5-1.9c0.9,0,2.4,1.1,2.7,1.4c0.3,0.3-1.3,4.3-1.4,4.7l1.1-0.7
		C325.5,431.3,327.7,428.9,327.5,427.3z M301.7,447.1c0.1,0.2,0.1,0.3,0.2,0.5C301.8,447.4,301.8,447.2,301.7,447.1z M302,447.9
		c0.1,0.2,0.1,0.3,0.2,0.5C302.2,448.2,302.1,448.1,302,447.9z M302.6,449.3c-0.1-0.2-0.2-0.4-0.2-0.5
		C302.5,449,302.5,449.2,302.6,449.3z M302.8,449.7c0.1,0.2,0.2,0.4,0.3,0.6C303,450.1,302.9,449.9,302.8,449.7z M303.2,450.7
		c0.1,0.2,0.2,0.4,0.3,0.6C303.4,451.1,303.3,450.9,303.2,450.7z M307.6,455.3c0.1-0.1,0.1-0.2,0.2-0.3
		C307.8,455.1,307.7,455.2,307.6,455.3z M301.5,446.3c0,0.1,0.1,0.3,0.1,0.4C301.6,446.6,301.5,446.5,301.5,446.3z M301.3,445.7
		c0,0.1,0.1,0.3,0.1,0.4C301.3,445.9,301.3,445.8,301.3,445.7z M301.2,445.5c0-0.2,0-0.3,0-0.5C301.2,445.1,301.2,445.3,301.2,445.5
		z M306,456c-0.1-0.1-0.1-0.2-0.2-0.3C305.9,455.8,305.9,455.9,306,456z M306.3,456.5c0-0.1-0.1-0.1-0.1-0.2
		C306.2,456.4,306.3,456.5,306.3,456.5z M307.4,455.7c0,0.1-0.1,0.2-0.1,0.2C307.3,455.9,307.3,455.8,307.4,455.7z M307,456.4
		c0,0-0.1,0.1-0.1,0.1C306.9,456.5,307,456.4,307,456.4z M305.3,454.7l-1.6-3.1C304.2,452.7,304.7,453.8,305.3,454.7z M305.6,455.3
		c-0.1-0.1-0.1-0.2-0.2-0.3C305.5,455.1,305.5,455.2,305.6,455.3z"/>
	<path fill="#31B0C9" d="M360.3,434.2c0.2-1.6,0.3-3.2,0.2-4.7c0-0.2,0-0.4,0-0.6c5.1-8.6,11.1-19.7,15.4-34.1
		c-1.6,6.5-3.5,12.9-5.9,19.1C367.4,420.8,364.2,427.8,360.3,434.2z M253.6,428.8c-5.1-8.6-11.1-19.7-15.4-34.1
		c1.6,6.5,3.5,12.9,5.9,19.1c2.6,6.9,5.8,13.9,9.7,20.2c-0.2-1.6-0.3-3.2-0.2-4.7C253.6,429.2,253.6,429,253.6,428.8z M172.2,238.5
		c22.3,10.7,36.3,23.7,50.7,54c10.9,22.9,13.7,68.2-5.2,91.1c20.1-19.9,20.7-69.8,9.7-93C216.1,266.8,198.1,247.4,172.2,238.5z
		 M391.3,292.4c14.4-30.2,28.4-43.3,50.7-54c-25.9,8.9-43.9,28.3-55.2,52c-11.1,23.3-10.4,73.1,9.7,93
		C377.6,360.6,380.4,315.3,391.3,292.4z M295.1,431.3c-0.1,0.3-0.1,1.2,0.5,1.4l-0.2,0.1c-1.2-0.5-1-1.4-0.8-1.8
		c-0.8-0.4-1.6-0.6-1.6-0.6c0.9,3.2,2.3,3.1,2.3,3.1l0.9-0.8c0,0,0.5,0.5-0.1-0.6C295.9,431.8,295.5,431.5,295.1,431.3z
		 M317.8,432.8l-0.2-0.1c0.6-0.2,0.6-1.1,0.5-1.4c-0.4,0.2-0.8,0.5-1,0.9c-0.6,1-0.1,0.6-0.1,0.6l0.9,0.8c0,0,1.3,0.1,2.3-3.1
		c0,0-0.8,0.2-1.6,0.6C318.8,431.5,318.9,432.4,317.8,432.8z M306,446.1c-1.1-0.6-2.3-3.3-2.3-3.3c0,3.7,1.3,6.5,3,9.8
		c1.6-3.3,3-6.2,3-9.8c0,0-1.2,2.7-2.3,3.3c0.1,1.6-0.4,2.8-0.6,4.2l0,0.1l0-0.1C306.4,449,305.9,447.7,306,446.1z"/>
	<path fill="#FEBE30" d="M496.1,217.7c-13.9,3.9-28.2,8.9-42.2,13c20.2-8.1,41.1-13.6,59-24.5c-4.8,6.4-15.4,14-27,21.2
		C489.6,224.1,493.3,220.6,496.1,217.7z M431.7,365.8c-5.8-4.5-9.9-7.3-15-15.5c0.3,4.9,5.6,10.9,7.2,12.8c-4.3,0-7.9-0.4-14.6-2
		C416.1,364.4,426.6,365.9,431.7,365.8z M491.1,310.7c-16,0.9-29.6-0.1-40.2-2c3.1,1.7,11.5,3.8,19.8,4.7c0,0-13.8,4-34.3,3.8
		C453.2,319.5,476,317.2,491.1,310.7z M520.6,272.2c-14.5,4.2-30.3,7.5-45.8,9.4c9.2-0.2,18.7-0.5,31.5-3
		c-17.3,12.3-50.4,16.3-66.8,18.4C473.5,296.3,504.3,289.6,520.6,272.2z M408.2,382.6c-2.2-3.5-5-8.7-7.5-15.7
		c-0.2,3.9,3.4,12.5,3.4,12.5l-5.2-1.6C401.2,379.5,404.1,381,408.2,382.6z M415.7,339.5c16.3,5.4,34.3,6.5,45.4,3.9
		c-13.6-2.6-23-7.1-30.8-12.8c2.1,3.2,8.1,9.1,12.5,11C440.4,343.2,421.5,340.4,415.7,339.5z M463.2,266c26-7.9,53.3-19.6,65.3-38.7
		c-5.3,3.6-22,12.3-40.8,20.1c8.8-2.3,14-3.6,21.3-6.3C503.9,247.7,479.7,260.6,463.2,266z M139.4,281.6c-15.5-2-31.3-5.2-45.8-9.4
		c16.3,17.4,47.1,24.2,81.1,24.8c-16.4-2.1-49.5-6.1-66.8-18.4C120.7,281.1,130.1,281.4,139.4,281.6z M163.2,308.8
		c-10.6,1.9-24.2,2.9-40.2,2c15.2,6.5,38,8.7,54.7,6.5c-20.5,0.1-34.3-3.8-34.3-3.8C151.7,312.6,160.1,310.4,163.2,308.8z
		 M105.1,241.1c7.3,2.7,12.5,4,21.3,6.3c-18.8-7.8-35.5-16.5-40.8-20.1c12,19.1,39.3,30.8,65.3,38.7
		C134.4,260.6,110.2,247.7,105.1,241.1z M213.4,366.9c-2.5,7-5.2,12.2-7.5,15.7c4.1-1.6,7-3.1,9.3-4.8l-5.2,1.6
		C210,379.3,213.6,370.7,213.4,366.9z M171.3,341.6c4.4-1.9,10.4-7.8,12.5-11c-7.7,5.7-17.1,10.2-30.8,12.8
		c11.1,2.6,29,1.5,45.4-3.9C192.7,340.4,173.7,343.2,171.3,341.6z M101.2,206.2c4.8,6.4,15.4,14,27,21.2c-3.7-3.3-7.4-6.8-10.2-9.7
		c13.9,3.9,28.2,8.9,42.2,13C139.9,222.6,119.1,217.1,101.2,206.2z M197.4,350.3c-5.1,8.2-9.2,11.1-15,15.5
		c5.1,0.1,15.6-1.4,22.5-4.8c-6.7,1.6-10.4,2.1-14.6,2C191.9,361.2,197.1,355.1,197.4,350.3z M27.2,244.2c9,1.2,21,2,32.6,2.3
		c-0.1,0-0.2-0.1-0.4-0.1c-0.5-0.1-0.9-0.2-1.4-0.4c-0.9-0.2-1.8-0.5-2.8-0.7c-0.5-0.1-1-0.3-1.6-0.4c-1-0.3-1.9-0.5-2.9-0.8
		c-3.1-0.8-6.2-1.6-9.3-2.4c-0.3-0.1-0.5-0.1-0.8-0.2c-1.3-0.3-2.7-0.7-4-1c-0.1,0-0.3-0.1-0.4-0.1c-1.2-0.3-2.4-0.6-3.6-0.9
		c-0.3-0.1-0.5-0.1-0.8-0.2c-1.3-0.3-2.5-0.6-3.8-0.9c-0.2-0.1-0.5-0.1-0.7-0.2c-1.1-0.3-2.3-0.6-3.4-0.8c-0.2,0-0.3-0.1-0.5-0.1
		c-1.2-0.3-2.4-0.6-3.6-0.8c-0.3-0.1-0.5-0.1-0.8-0.2c-1.2-0.3-2.4-0.5-3.6-0.8c0,0.6,0,1.3,0.1,1.9c0,0.1,0,0.3,0,0.4
		c0,0.6,0.1,1.2,0.2,1.9c0,0.1,0,0.2,0,0.3c0.1,0.6,0.2,1.1,0.3,1.7c0,0.1,0,0.2,0.1,0.3c0.1,0.6,0.3,1.2,0.4,1.8
		c0,0.1,0.1,0.3,0.1,0.4c0.2,0.6,0.4,1.2,0.6,1.8c0,0,0,0,0,0.1c0.2,0.6,0.4,1.2,0.7,1.8c0,0.1,0.1,0.2,0.1,0.4
		c0.3,0.6,0.5,1.2,0.8,1.8c0,0.1,0.1,0.2,0.1,0.3c0.3,0.6,0.6,1.1,0.9,1.7c0,0.1,0.1,0.1,0.1,0.2c0.3,0.6,0.7,1.2,1.1,1.7
		c0.1,0.1,0.1,0.2,0.2,0.3c0.4,0.6,0.8,1.2,1.2,1.7c0,0,0,0,0,0.1c0.4,0.6,0.8,1.1,1.3,1.7c0.1,0.1,0.1,0.2,0.2,0.3
		c0.4,0.6,0.9,1.1,1.4,1.7c0.1,0.1,0.1,0.2,0.2,0.2c0.5,0.6,1,1.1,1.5,1.7c0,0,0,0,0,0c0.5,0.6,1.1,1.1,1.7,1.7
		c0.1,0.1,0.2,0.2,0.2,0.2c0.6,0.6,1.2,1.1,1.8,1.6c0,0,0,0,0,0c0.6,0.5,1.2,1.1,1.9,1.6c0.1,0,0.1,0.1,0.2,0.1
		c0.6,0.5,1.3,1.1,2,1.6c0.1,0,0.1,0.1,0.2,0.1c1.4,1.1,2.8,2.1,4.3,3.1c0.1,0,0.1,0.1,0.2,0.1c1.6,1,3.2,2,4.8,3c0,0,0,0,0,0
		c0.8,0.5,1.7,1,2.6,1.5c0,0,0.1,0,0.1,0.1c1.7,1,3.6,1.9,5.4,2.8c0,0,0.1,0,0.1,0c2.8,1.4,5.8,2.7,8.9,3.9c0,0,0,0,0,0
		c5.2,2.1,10.7,3.9,16.5,5.5C58.3,275.7,34.8,258.6,27.2,244.2z M74.2,198.8l-57.9-30.2c0,0.7,0,1.4,0.1,2.1c0,0.2,0,0.5,0.1,0.7
		c0,0.5,0.1,1,0.1,1.5c0,0.3,0.1,0.6,0.1,0.9c0.1,0.5,0.1,0.9,0.2,1.4c0,0.3,0.1,0.6,0.1,0.9c0.1,0.5,0.2,0.9,0.2,1.4
		c0.1,0.3,0.1,0.6,0.2,1c0.1,0.5,0.2,1,0.3,1.5c0.1,0.3,0.1,0.6,0.2,1c0.1,0.5,0.3,1.1,0.4,1.6c0.1,0.3,0.1,0.6,0.2,0.9
		c0.2,0.7,0.4,1.5,0.7,2.2c0,0.1,0.1,0.2,0.1,0.3c0.3,0.8,0.6,1.7,0.9,2.5c0.1,0.3,0.2,0.6,0.3,0.9c0.2,0.6,0.4,1.1,0.7,1.7
		c0.1,0.3,0.3,0.7,0.4,1c0.2,0.5,0.4,1,0.7,1.6c0.2,0.4,0.3,0.7,0.5,1.1c0.2,0.5,0.5,1,0.7,1.5c0.2,0.4,0.4,0.7,0.6,1.1
		c0.3,0.5,0.5,1,0.8,1.6c0.2,0.4,0.4,0.7,0.6,1.1c0.3,0.5,0.6,1.1,0.9,1.7c0.2,0.3,0.4,0.7,0.6,1c0.4,0.7,0.8,1.4,1.3,2.1
		c0.1,0.2,0.2,0.4,0.4,0.6c0.6,0.9,1.1,1.8,1.7,2.6c0.2,0.3,0.4,0.6,0.7,1c0.4,0.6,0.8,1.1,1.2,1.7c0.3,0.4,0.6,0.7,0.8,1.1
		c0.4,0.5,0.8,1,1.2,1.6c0.3,0.4,0.6,0.8,0.9,1.2c0.4,0.5,0.8,1,1.2,1.5c0.3,0.4,0.6,0.8,1,1.2c0.4,0.5,0.9,1,1.3,1.5
		c0.3,0.4,0.7,0.8,1,1.2c0.5,0.5,0.9,1,1.4,1.6c0.3,0.4,0.7,0.7,1,1.1c0.6,0.6,1.2,1.2,1.8,1.8c0.3,0.3,0.5,0.5,0.7,0.8
		c0.9,0.8,1.7,1.7,2.6,2.5c0.3,0.3,0.7,0.6,1,0.9c0.6,0.5,1.2,1.1,1.8,1.6c0.4,0.4,0.8,0.7,1.3,1.1c0.6,0.5,1.1,1,1.7,1.4
		c0.4,0.4,0.9,0.7,1.4,1.1c0.6,0.5,1.2,0.9,1.7,1.4c0.5,0.4,0.9,0.7,1.4,1.1c0.6,0.5,1.2,0.9,1.8,1.4c0.5,0.4,1,0.7,1.5,1.1
		c0.7,0.5,1.3,0.9,2,1.4c0.5,0.3,1,0.7,1.4,1c0.8,0.5,1.6,1.1,2.4,1.6c0.4,0.2,0.7,0.5,1.1,0.7c0,0,0,0,0.1,0c0,0,0,0,0,0
		c-14.7-16.3-30.3-37.5-36.5-58.7C44.8,188.5,60.5,194.6,74.2,198.8z M153.4,404.8c4.5-2.4,10.3-8.1,14.2-12.5
		c-0.2,0.1-0.5,0.3-0.7,0.4c-0.8,0.5-1.5,0.9-2.3,1.4c-0.4,0.2-0.7,0.4-1.1,0.7c-0.7,0.4-1.5,0.8-2.2,1.3c-0.4,0.2-0.7,0.4-1.1,0.6
		c-0.8,0.5-1.7,0.9-2.5,1.4c-0.3,0.1-0.5,0.3-0.8,0.4c-1.1,0.6-2.3,1.1-3.4,1.7c-0.3,0.1-0.5,0.2-0.8,0.4c-0.9,0.4-1.8,0.9-2.7,1.3
		c-0.4,0.2-0.8,0.4-1.2,0.5c-0.8,0.4-1.6,0.7-2.4,1c-0.4,0.2-0.9,0.4-1.3,0.5c-0.8,0.3-1.7,0.7-2.5,1c-0.4,0.2-0.8,0.3-1.2,0.5
		c-1.2,0.5-2.5,0.9-3.7,1.4c0.2,0.1,0.3,0.1,0.5,0.2c0.1,0,0.1,0,0.2,0.1c0.1,0,0.2,0.1,0.4,0.1c0.1,0,0.2,0.1,0.3,0.1
		c0.1,0,0.2,0.1,0.4,0.1c0.1,0,0.2,0.1,0.3,0.1c0.1,0,0.2,0.1,0.4,0.1c0.1,0,0.3,0.1,0.4,0.1c0.1,0,0.2,0.1,0.4,0.1
		c0.2,0,0.3,0.1,0.5,0.1c0.1,0,0.2,0,0.4,0.1c0.2,0,0.4,0.1,0.5,0.1c0.1,0,0.2,0,0.4,0.1c0.2,0,0.4,0.1,0.6,0.1c0.1,0,0.2,0,0.4,0.1
		c0.2,0,0.4,0.1,0.7,0.1c0.1,0,0.2,0,0.4,0c0.2,0,0.5,0.1,0.7,0.1c0.1,0,0.2,0,0.3,0c0.3,0,0.5,0,0.8,0.1c0.1,0,0.2,0,0.3,0
		c0.3,0,0.6,0,0.9,0.1c0.1,0,0.2,0,0.3,0c0.3,0,0.6,0,0.9,0.1c0.1,0,0.2,0,0.3,0c0.3,0,0.6,0,1,0c0.1,0,0.2,0,0.3,0c0.3,0,0.7,0,1,0
		c0.1,0,0.2,0,0.3,0c0.4,0,0.7,0,1.1,0c0.1,0,0.2,0,0.2,0c0.4,0,0.8,0,1.2,0c0.1,0,0.2,0,0.2,0c0.4,0,0.8,0,1.2,0c0.1,0,0.1,0,0.2,0
		c0.4,0,0.8,0,1.3,0c0.1,0,0.1,0,0.2,0c0.4,0,0.9,0,1.3,0c0.1,0,0.1,0,0.2,0c0.5,0,0.9,0,1.4-0.1c0,0,0.1,0,0.1,0
		c0.5,0,0.9-0.1,1.4-0.1c0,0,0.1,0,0.1,0c0.5,0,1-0.1,1.5-0.1c0,0,0.1,0,0.1,0c0.5,0,1-0.1,1.5-0.1c0,0,0.1,0,0.1,0
		c0.5,0,1-0.1,1.5-0.1c0,0,0,0,0.1,0c0.5-0.1,1.1-0.1,1.6-0.2c0,0,0,0,0,0c0.5-0.1,1.1-0.1,1.6-0.2c0,0,0,0,0,0
		c0.5-0.1,1.1-0.1,1.7-0.2c0,0,0,0,0,0c0.6-0.1,1.1-0.2,1.7-0.2c0,0,0,0,0,0c1.7-0.3,3.4-0.6,5.1-0.9
		C170.2,406.8,162.1,406.8,153.4,404.8z M42.7,291.8c5.3,1.4,16.9,1.5,30.5,0c-0.7-0.1-1.4-0.1-2.1-0.2c-0.3,0-0.5-0.1-0.8-0.1
		c-0.8-0.1-1.6-0.2-2.4-0.3c-0.2,0-0.4,0-0.6-0.1c-0.7-0.1-1.5-0.2-2.2-0.3c-0.2,0-0.5-0.1-0.7-0.1c-0.8-0.1-1.6-0.2-2.4-0.3
		c-0.2,0-0.5-0.1-0.7-0.1c-0.8-0.1-1.6-0.2-2.5-0.3c-0.2,0-0.3,0-0.5-0.1c-0.8-0.1-1.5-0.2-2.3-0.3c-0.1,0-0.3,0-0.4-0.1
		c-0.8-0.1-1.6-0.2-2.5-0.3c-0.2,0-0.4-0.1-0.6-0.1c-0.8-0.1-1.6-0.2-2.4-0.3c-0.2,0-0.4-0.1-0.5-0.1c-0.8-0.1-1.6-0.2-2.3-0.4
		c-0.1,0-0.1,0-0.2,0c-0.8-0.1-1.6-0.2-2.4-0.4c-0.2,0-0.3-0.1-0.5-0.1c-0.8-0.1-1.5-0.2-2.2-0.4c-0.2,0-0.3-0.1-0.5-0.1
		c-0.8-0.1-1.5-0.3-2.2-0.4c-0.1,0-0.2,0-0.2,0c-0.7-0.1-1.4-0.3-2-0.4c-0.1,0-0.2,0-0.4-0.1c-0.7-0.1-1.4-0.3-2-0.4
		c-0.1,0-0.3-0.1-0.4-0.1c-0.7-0.1-1.3-0.3-1.9-0.4c-0.1,0-0.2,0-0.3-0.1c-0.6-0.1-1.2-0.3-1.8-0.4c-0.1,0-0.1,0-0.2,0
		c-0.6-0.1-1.2-0.3-1.7-0.4c-0.1,0-0.2-0.1-0.3-0.1c-0.5-0.1-1.1-0.3-1.6-0.4c-0.1,0-0.2,0-0.3-0.1c-0.5-0.1-1-0.3-1.5-0.4
		c0.3,1,0.7,1.9,1,2.8c0.1,0.2,0.2,0.5,0.3,0.7c0.3,0.7,0.6,1.5,0.9,2.2c0.1,0.2,0.1,0.3,0.2,0.5c0.4,0.9,0.8,1.7,1.2,2.5
		c0.1,0.2,0.2,0.4,0.3,0.6c0.3,0.6,0.7,1.3,1,1.9c0.1,0.2,0.2,0.4,0.3,0.6c0.4,0.8,0.9,1.5,1.3,2.2c0.1,0.1,0.1,0.2,0.2,0.3
		c0.4,0.6,0.8,1.2,1.2,1.8c0.1,0.2,0.3,0.4,0.4,0.6c0.5,0.6,0.9,1.3,1.4,1.9c0,0,0.1,0.1,0.1,0.1c0.5,0.7,1,1.3,1.5,1.9
		c0.1,0.2,0.3,0.3,0.4,0.5c0.4,0.5,0.9,1,1.3,1.5c0.1,0.1,0.2,0.2,0.3,0.3c0.5,0.6,1.1,1.1,1.7,1.7c0.1,0.1,0.2,0.2,0.3,0.3
		c0.5,0.4,0.9,0.9,1.4,1.3c0.1,0.1,0.3,0.2,0.4,0.4c0.6,0.5,1.2,1,1.8,1.5c0,0,0.1,0.1,0.1,0.1c0.6,0.4,1.2,0.9,1.7,1.3
		c0.2,0.1,0.3,0.2,0.5,0.3c0.6,0.4,1.2,0.8,1.8,1.2c0.1,0,0.1,0.1,0.1,0.1c0.7,0.4,1.3,0.8,2,1.2c0.1,0.1,0.3,0.2,0.4,0.2
		c0.6,0.3,1.1,0.6,1.7,0.9c0.1,0.1,0.2,0.1,0.4,0.2c0.7,0.4,1.4,0.7,2.1,1c0.1,0,0.2,0.1,0.3,0.1c0.6,0.3,1.3,0.6,1.9,0.8
		c0.1,0.1,0.3,0.1,0.4,0.2c1.5,0.6,2.9,1.1,4.4,1.6c0.1,0,0.3,0.1,0.4,0.1c0.7,0.2,1.4,0.5,2.2,0.7c0,0,0.1,0,0.1,0
		c0.8,0.2,1.6,0.4,2.4,0.7c0.1,0,0.2,0.1,0.3,0.1c0.7,0.2,1.4,0.4,2.2,0.5c0.1,0,0.2,0,0.3,0.1c0.8,0.2,1.7,0.4,2.5,0.5c0,0,0,0,0,0
		c0.8,0.2,1.6,0.3,2.5,0.5c0.1,0,0.2,0,0.3,0.1c1.7,0.3,3.4,0.5,5.1,0.8c0.1,0,0.2,0,0.2,0c2.7,0.3,5.4,0.6,8.1,0.8c0,0,0,0,0,0
		c1.9,0.1,3.7,0.3,5.6,0.3C71.9,318.9,49.5,308.8,42.7,291.8z M68.8,339.9c6.4-1.2,18.3-5.3,26.5-8.8l-44.6,5.1
		c0.4,0.7,0.8,1.4,1.2,2.2c0.1,0.2,0.3,0.4,0.4,0.6c0.3,0.5,0.7,1,1,1.5c0.1,0.2,0.3,0.4,0.4,0.6c0.5,0.7,1,1.3,1.5,2
		c0,0,0.1,0.1,0.1,0.1c0.5,0.6,1,1.2,1.6,1.7c0.2,0.2,0.4,0.4,0.5,0.6c0.4,0.4,0.9,0.9,1.4,1.3c0.2,0.2,0.4,0.3,0.5,0.5
		c0.6,0.6,1.3,1.1,2,1.7c0.1,0.1,0.2,0.1,0.3,0.2c0.6,0.5,1.2,0.9,1.8,1.4c0.2,0.2,0.5,0.3,0.7,0.5c0.5,0.4,1.1,0.7,1.6,1.1
		c0.2,0.1,0.5,0.3,0.7,0.4c0.8,0.5,1.5,0.9,2.3,1.4c0.2,0.1,0.3,0.2,0.5,0.3c0.7,0.4,1.3,0.7,2,1c0.3,0.1,0.6,0.3,0.9,0.4
		c0.6,0.3,1.2,0.6,1.8,0.8c0.3,0.1,0.6,0.2,0.8,0.4c0.9,0.4,1.7,0.7,2.6,1.1c0.2,0.1,0.5,0.2,0.7,0.3c0.7,0.3,1.4,0.5,2.1,0.7
		c0.4,0.1,0.7,0.2,1.1,0.4c0.7,0.2,1.3,0.4,2,0.6c0.3,0.1,0.7,0.2,1,0.3c1,0.3,1.9,0.5,2.9,0.8c0.3,0.1,0.7,0.2,1,0.2
		c0.7,0.2,1.4,0.3,2.2,0.5c0.4,0.1,0.8,0.2,1.3,0.3c0.7,0.1,1.4,0.3,2.1,0.4c0.4,0.1,0.8,0.1,1.1,0.2c1,0.2,2.1,0.3,3.1,0.5
		c0.4,0.1,0.8,0.1,1.2,0.2c0.7,0.1,1.5,0.2,2.2,0.3c0.5,0.1,1,0.1,1.4,0.2c0.7,0.1,1.5,0.1,2.2,0.2c0.4,0,0.9,0.1,1.3,0.1
		c1.1,0.1,2.2,0.2,3.3,0.2c0.5,0,0.9,0,1.4,0.1c0.8,0,1.5,0.1,2.3,0.1c0.5,0,1,0,1.6,0c0.8,0,1.6,0,2.4,0c0.5,0,0.9,0,1.4,0
		c1.1,0,2.2,0,3.3,0c0,0,0,0,0,0C101.7,359.2,76.4,351,68.8,339.9z M104.9,378.2c6.4-1.8,16.6-5.7,22.8-8.9c-0.2,0-0.4,0.1-0.6,0.1
		c-0.5,0.1-1.1,0.2-1.6,0.4c-0.3,0.1-0.6,0.1-0.9,0.2c-0.6,0.1-1.1,0.2-1.7,0.4c-0.3,0.1-0.6,0.1-0.8,0.2c-0.6,0.1-1.2,0.2-1.7,0.4
		c-0.3,0.1-0.6,0.1-0.9,0.2c-0.6,0.1-1.2,0.2-1.8,0.4c-0.3,0.1-0.6,0.1-0.8,0.2c-0.6,0.1-1.2,0.2-1.8,0.4c-0.3,0.1-0.6,0.1-0.8,0.2
		c-0.6,0.1-1.2,0.2-1.8,0.4c-0.3,0.1-0.6,0.1-0.8,0.2c-0.6,0.1-1.2,0.2-1.8,0.3c-0.3,0.1-0.6,0.1-0.8,0.2c-0.6,0.1-1.2,0.2-1.7,0.3
		c-0.3,0.1-0.6,0.1-0.9,0.2c-0.6,0.1-1.1,0.2-1.7,0.3c-0.3,0.1-0.6,0.1-0.9,0.2c-0.5,0.1-1.1,0.2-1.6,0.3c-0.3,0-0.5,0.1-0.8,0.1
		c-0.6,0.1-1.1,0.2-1.7,0.3c-0.3,0.1-0.5,0.1-0.8,0.1c-0.5,0.1-1.1,0.2-1.6,0.3c-0.3,0.1-0.7,0.1-1,0.2c-0.4,0.1-0.9,0.2-1.3,0.2
		c-0.5,0.1-0.9,0.2-1.4,0.2c-0.3,0.1-0.6,0.1-0.9,0.2c-0.6,0.1-1.2,0.2-1.9,0.3c-0.1,0-0.2,0-0.3,0.1c-0.7,0.1-1.4,0.2-2.1,0.4
		c0.6,0.7,1.1,1.3,1.7,1.9c0.2,0.2,0.4,0.4,0.5,0.6c0.4,0.4,0.8,0.9,1.3,1.3c0.2,0.2,0.4,0.4,0.6,0.6c0.5,0.4,0.9,0.8,1.4,1.2
		c0.2,0.1,0.3,0.3,0.5,0.4c0.6,0.5,1.3,1,1.9,1.5c0.2,0.1,0.3,0.2,0.5,0.3c0.5,0.4,1,0.7,1.5,1c0.2,0.1,0.5,0.3,0.7,0.4
		c0.5,0.3,1,0.6,1.5,0.9c0.2,0.1,0.4,0.2,0.7,0.4c0.7,0.4,1.4,0.7,2.1,1c0,0,0.1,0,0.1,0c0.7,0.3,1.5,0.6,2.2,0.9
		c0.2,0.1,0.5,0.2,0.7,0.3c0.5,0.2,1.1,0.4,1.6,0.6c0.3,0.1,0.5,0.2,0.8,0.3c0.6,0.2,1.2,0.4,1.7,0.5c0.2,0.1,0.4,0.1,0.6,0.2
		c0.8,0.2,1.6,0.4,2.4,0.6c0.2,0,0.4,0.1,0.7,0.1c0.6,0.1,1.2,0.2,1.8,0.3c0.3,0,0.6,0.1,0.9,0.1c0.6,0.1,1.1,0.2,1.7,0.2
		c0.3,0,0.6,0.1,0.9,0.1c0.8,0.1,1.5,0.2,2.3,0.2c0.1,0,0.3,0,0.4,0c0.8,0.1,1.7,0.1,2.5,0.1c0.3,0,0.6,0,1,0c0.6,0,1.2,0,1.8,0
		c0.3,0,0.7,0,1,0c0.6,0,1.3,0,1.9-0.1c0.3,0,0.6,0,0.9,0c0.9,0,1.8-0.1,2.7-0.2c0.3,0,0.6-0.1,0.9-0.1c0.7-0.1,1.3-0.1,2-0.2
		c0.4,0,0.8-0.1,1.2-0.1c0.6-0.1,1.2-0.1,1.9-0.2c0.4,0,0.8-0.1,1.1-0.2c0.8-0.1,1.6-0.2,2.4-0.4c0.3-0.1,0.6-0.1,1-0.2
		c0.9-0.1,1.7-0.3,2.6-0.5c0.4-0.1,0.8-0.2,1.2-0.2c0.6-0.1,1.3-0.2,1.9-0.4c0.4-0.1,0.9-0.2,1.3-0.3c0.7-0.1,1.3-0.3,2-0.4
		c0.4-0.1,0.8-0.2,1.2-0.3c1-0.2,1.9-0.5,2.9-0.7c0,0,0,0,0,0C131.2,389.4,111.1,385.2,104.9,378.2z M460.7,404.8
		c-8.6,2-16.7,2-25.1,1.4c2.9,0.6,5.7,1,8.5,1.4c0,0,0,0,0,0c0.6,0.1,1.1,0.1,1.6,0.2c0,0,0,0,0,0c0.5,0.1,1.1,0.1,1.6,0.2
		c0,0,0,0,0,0c0.5,0.1,1.1,0.1,1.6,0.2c0,0,0,0,0.1,0c0.5,0,1,0.1,1.5,0.1c0,0,0,0,0.1,0c0.5,0,1,0.1,1.5,0.1c0,0,0.1,0,0.1,0
		c0.5,0,1,0.1,1.5,0.1c0,0,0.1,0,0.1,0c0.5,0,0.9,0,1.4,0.1c0,0,0.1,0,0.1,0c0.5,0,0.9,0,1.4,0c0.1,0,0.1,0,0.2,0c0.4,0,0.9,0,1.3,0
		c0.1,0,0.1,0,0.2,0c0.4,0,0.8,0,1.2,0c0.1,0,0.1,0,0.2,0c0.4,0,0.8,0,1.2,0c0.1,0,0.1,0,0.2,0c0.4,0,0.8,0,1.1,0c0.1,0,0.2,0,0.3,0
		c0.4,0,0.7,0,1.1,0c0.1,0,0.2,0,0.3,0c0.3,0,0.7,0,1,0c0.1,0,0.2,0,0.3,0c0.3,0,0.6,0,0.9-0.1c0.1,0,0.2,0,0.3,0
		c0.3,0,0.6,0,0.9-0.1c0.1,0,0.2,0,0.3,0c0.3,0,0.5,0,0.8-0.1c0.1,0,0.2,0,0.3,0c0.2,0,0.5,0,0.7-0.1c0.1,0,0.2,0,0.4,0
		c0.2,0,0.4-0.1,0.7-0.1c0.1,0,0.2,0,0.4-0.1c0.2,0,0.4-0.1,0.6-0.1c0.1,0,0.2,0,0.4-0.1c0.2,0,0.4-0.1,0.5-0.1c0.1,0,0.2,0,0.4-0.1
		c0.2,0,0.3-0.1,0.5-0.1c0.1,0,0.2-0.1,0.4-0.1c0.1,0,0.3-0.1,0.4-0.1c0.1,0,0.2-0.1,0.4-0.1c0.1,0,0.2-0.1,0.4-0.1
		c0.1,0,0.2-0.1,0.4-0.1c0.1,0,0.2-0.1,0.3-0.1c0.1,0,0.3-0.1,0.4-0.1c0.1,0,0.1,0,0.2-0.1c0.2-0.1,0.4-0.1,0.5-0.2
		c-1.3-0.4-2.5-0.9-3.7-1.4c-0.4-0.1-0.8-0.3-1.2-0.5c-0.8-0.3-1.7-0.7-2.5-1c-0.4-0.2-0.9-0.4-1.3-0.5c-0.8-0.3-1.6-0.7-2.4-1
		c-0.4-0.2-0.8-0.4-1.2-0.5c-0.9-0.4-1.8-0.8-2.7-1.3c-0.3-0.1-0.5-0.2-0.8-0.4c-1.1-0.6-2.3-1.1-3.4-1.7c-0.3-0.1-0.5-0.3-0.8-0.4
		c-0.8-0.4-1.7-0.9-2.5-1.4c-0.4-0.2-0.7-0.4-1.1-0.6c-0.7-0.4-1.5-0.8-2.2-1.3c-0.4-0.2-0.7-0.4-1.1-0.7c-0.8-0.5-1.5-0.9-2.3-1.4
		c-0.2-0.1-0.5-0.3-0.7-0.4C450.4,396.7,456.2,402.4,460.7,404.8z M582.7,184.7c-6.2,21.3-21.8,42.4-36.5,58.7c0,0,0,0,0,0
		c0,0,0,0,0.1,0c0.4-0.2,0.7-0.5,1.1-0.7c0.8-0.5,1.6-1.1,2.4-1.6c0.5-0.3,1-0.7,1.4-1c0.7-0.5,1.3-0.9,2-1.4c0.5-0.4,1-0.7,1.5-1.1
		c0.6-0.5,1.2-0.9,1.8-1.4c0.5-0.4,1-0.7,1.4-1.1c0.6-0.5,1.2-0.9,1.7-1.4c0.5-0.4,0.9-0.7,1.4-1.1c0.6-0.5,1.1-1,1.7-1.4
		c0.4-0.4,0.8-0.7,1.3-1.1c0.6-0.5,1.2-1.1,1.8-1.6c0.3-0.3,0.7-0.6,1-0.9c0.9-0.8,1.8-1.7,2.6-2.5c0.3-0.3,0.5-0.5,0.7-0.8
		c0.6-0.6,1.2-1.2,1.8-1.9c0.3-0.4,0.7-0.7,1-1.1c0.5-0.5,1-1,1.4-1.6c0.3-0.4,0.7-0.8,1-1.2c0.4-0.5,0.9-1,1.3-1.5
		c0.3-0.4,0.7-0.8,1-1.2c0.4-0.5,0.8-1,1.2-1.5c0.3-0.4,0.6-0.8,0.9-1.2c0.4-0.5,0.8-1,1.2-1.6c0.3-0.4,0.6-0.7,0.8-1.1
		c0.4-0.6,0.8-1.1,1.2-1.7c0.2-0.3,0.4-0.6,0.7-1c0.6-0.9,1.2-1.8,1.7-2.6c0.1-0.2,0.2-0.4,0.4-0.6c0.4-0.7,0.9-1.4,1.3-2.1
		c0.2-0.3,0.4-0.7,0.6-1c0.3-0.6,0.6-1.1,0.9-1.7c0.2-0.4,0.4-0.7,0.6-1.1c0.3-0.5,0.5-1,0.8-1.6c0.2-0.4,0.4-0.7,0.6-1.1
		c0.2-0.5,0.5-1,0.7-1.5c0.2-0.4,0.3-0.7,0.5-1.1c0.2-0.5,0.5-1,0.7-1.6c0.1-0.3,0.3-0.7,0.4-1c0.2-0.6,0.4-1.1,0.7-1.7
		c0.1-0.3,0.2-0.6,0.3-0.9c0.3-0.8,0.6-1.7,0.9-2.5c0-0.1,0-0.2,0.1-0.2c0.2-0.8,0.5-1.5,0.7-2.2c0.1-0.3,0.2-0.6,0.2-0.9
		c0.1-0.5,0.3-1.1,0.4-1.6c0.1-0.3,0.1-0.6,0.2-1c0.1-0.5,0.2-1,0.3-1.5c0.1-0.3,0.1-0.6,0.2-1c0.1-0.5,0.2-0.9,0.2-1.4
		c0.1-0.3,0.1-0.6,0.1-0.9c0.1-0.5,0.1-0.9,0.2-1.4c0-0.3,0.1-0.6,0.1-0.9c0.1-0.5,0.1-1,0.1-1.5c0-0.2,0-0.5,0.1-0.7
		c0-0.7,0.1-1.4,0.1-2.1l-57.9,30.2C553.7,194.6,569.4,188.5,582.7,184.7z M587,244.2c-7.6,14.5-31.1,31.5-51.3,44.3
		c5.8-1.6,11.3-3.5,16.5-5.5c0,0,0,0,0,0c3.1-1.2,6.1-2.5,8.9-3.9c0,0,0.1,0,0.1,0c1.9-0.9,3.7-1.8,5.4-2.8c0,0,0.1,0,0.1-0.1
		c0.9-0.5,1.7-1,2.6-1.5c0,0,0,0,0,0c1.7-1,3.3-2,4.8-3c0.1,0,0.1-0.1,0.2-0.1c1.5-1,3-2,4.3-3.1c0.1,0,0.1-0.1,0.2-0.1
		c0.7-0.5,1.3-1,2-1.6c0.1,0,0.1-0.1,0.2-0.1c0.6-0.5,1.3-1.1,1.9-1.6c0,0,0,0,0,0c0.6-0.5,1.2-1.1,1.8-1.6c0.1-0.1,0.2-0.2,0.2-0.2
		c0.6-0.6,1.1-1.1,1.7-1.7c0,0,0,0,0,0c0.5-0.5,1-1.1,1.5-1.7c0.1-0.1,0.1-0.2,0.2-0.2c0.5-0.6,0.9-1.1,1.4-1.7
		c0.1-0.1,0.1-0.2,0.2-0.3c0.4-0.6,0.9-1.1,1.3-1.7c0,0,0,0,0-0.1c0.4-0.6,0.8-1.2,1.2-1.7c0.1-0.1,0.1-0.2,0.2-0.3
		c0.4-0.6,0.7-1.2,1.1-1.7c0-0.1,0.1-0.1,0.1-0.2c0.3-0.5,0.6-1.1,0.9-1.7c0-0.1,0.1-0.2,0.1-0.3c0.3-0.6,0.6-1.2,0.8-1.8
		c0.1-0.1,0.1-0.2,0.1-0.4c0.2-0.6,0.5-1.2,0.7-1.8c0,0,0,0,0-0.1c0.2-0.6,0.4-1.2,0.6-1.8c0-0.1,0.1-0.3,0.1-0.4
		c0.2-0.6,0.3-1.2,0.4-1.8c0-0.1,0-0.2,0.1-0.3c0.1-0.6,0.2-1.1,0.3-1.7c0-0.1,0-0.2,0-0.3c0.1-0.6,0.1-1.2,0.2-1.9
		c0-0.1,0-0.3,0-0.4c0-0.6,0.1-1.3,0.1-1.9c-1.2,0.3-2.4,0.5-3.6,0.8c-0.3,0.1-0.5,0.1-0.8,0.2c-1.2,0.3-2.4,0.6-3.6,0.8
		c-0.2,0-0.3,0.1-0.5,0.1c-1.1,0.3-2.3,0.5-3.4,0.8c-0.2,0.1-0.5,0.1-0.7,0.2c-1.2,0.3-2.5,0.6-3.8,0.9c-0.3,0.1-0.5,0.1-0.8,0.2
		c-1.2,0.3-2.4,0.6-3.6,0.9c-0.1,0-0.3,0.1-0.4,0.1c-1.3,0.3-2.7,0.7-4,1c-0.2,0.1-0.5,0.1-0.7,0.2c-3.1,0.8-6.3,1.7-9.5,2.5
		c-0.5,0.1-1,0.3-1.5,0.4c-1,0.3-1.9,0.5-2.9,0.8c-0.9,0.2-1.8,0.5-2.6,0.7c-0.5,0.1-1,0.3-1.4,0.4c-0.1,0-0.2,0.1-0.3,0.1
		C565.9,246.1,578,245.3,587,244.2z M545.3,339.9c-7.6,11.1-32.9,19.3-53.1,24.3c0,0,0,0,0,0c1.1,0,2.2,0,3.3,0c0.5,0,0.9,0,1.4,0
		c0.8,0,1.6,0,2.4,0c0.5,0,1,0,1.6,0c0.8,0,1.5,0,2.3-0.1c0.5,0,0.9,0,1.4-0.1c1.1-0.1,2.2-0.1,3.3-0.2c0.4,0,0.9-0.1,1.3-0.1
		c0.8-0.1,1.5-0.1,2.2-0.2c0.5,0,1-0.1,1.4-0.2c0.7-0.1,1.5-0.2,2.2-0.3c0.4-0.1,0.8-0.1,1.2-0.2c1.1-0.1,2.1-0.3,3.1-0.5
		c0.4-0.1,0.8-0.1,1.1-0.2c0.7-0.1,1.4-0.3,2.1-0.4c0.4-0.1,0.8-0.2,1.3-0.3c0.7-0.2,1.4-0.3,2.2-0.5c0.3-0.1,0.7-0.2,1-0.2
		c1-0.2,1.9-0.5,2.9-0.8c0.3-0.1,0.7-0.2,1-0.3c0.7-0.2,1.3-0.4,2-0.6c0.4-0.1,0.7-0.2,1.1-0.3c0.7-0.2,1.4-0.5,2.1-0.7
		c0.2-0.1,0.5-0.2,0.7-0.3c0.9-0.3,1.8-0.7,2.6-1.1c0.3-0.1,0.6-0.2,0.8-0.4c0.6-0.3,1.2-0.6,1.8-0.8c0.3-0.1,0.6-0.3,0.9-0.4
		c0.7-0.3,1.3-0.7,2-1c0.2-0.1,0.3-0.2,0.5-0.3c0.8-0.4,1.6-0.9,2.3-1.4c0.2-0.1,0.5-0.3,0.7-0.4c0.6-0.4,1.1-0.7,1.6-1.1
		c0.2-0.2,0.5-0.3,0.7-0.5c0.6-0.4,1.2-0.9,1.8-1.4c0.1-0.1,0.2-0.1,0.3-0.2c0.7-0.5,1.3-1.1,2-1.7c0.2-0.2,0.4-0.3,0.5-0.5
		c0.5-0.4,0.9-0.9,1.4-1.3c0.2-0.2,0.4-0.4,0.5-0.6c0.5-0.6,1.1-1.1,1.6-1.7c0,0,0.1-0.1,0.1-0.1c0.5-0.6,1-1.3,1.5-2
		c0.1-0.2,0.3-0.4,0.4-0.6c0.4-0.5,0.7-1,1-1.5c0.1-0.2,0.3-0.4,0.4-0.6c0.4-0.7,0.9-1.4,1.2-2.2l-44.6-5.1
		C527,334.6,538.9,338.7,545.3,339.9z M586.1,284.8c-0.1,0-0.2,0.1-0.3,0.1c-0.6,0.1-1.1,0.3-1.7,0.4c-0.1,0-0.1,0-0.2,0
		c-0.6,0.1-1.2,0.3-1.8,0.4c-0.1,0-0.2,0-0.3,0.1c-0.6,0.1-1.3,0.3-1.9,0.4c-0.1,0-0.3,0.1-0.4,0.1c-0.7,0.1-1.3,0.3-2,0.4
		c-0.1,0-0.2,0-0.4,0.1c-0.7,0.1-1.3,0.3-2,0.4c-0.1,0-0.2,0-0.2,0c-0.7,0.1-1.5,0.3-2.2,0.4c-0.2,0-0.3,0.1-0.5,0.1
		c-0.7,0.1-1.5,0.2-2.2,0.4c-0.2,0-0.3,0.1-0.5,0.1c-0.8,0.1-1.6,0.3-2.4,0.4c-0.1,0-0.1,0-0.2,0c-0.8,0.1-1.5,0.2-2.3,0.4
		c-0.2,0-0.4,0.1-0.5,0.1c-0.8,0.1-1.6,0.2-2.4,0.3c-0.2,0-0.4,0.1-0.6,0.1c-0.8,0.1-1.6,0.2-2.4,0.3c-0.1,0-0.3,0-0.4,0.1
		c-0.8,0.1-1.5,0.2-2.3,0.3c-0.2,0-0.3,0-0.5,0.1c-0.8,0.1-1.6,0.2-2.5,0.3c-0.2,0-0.5,0.1-0.7,0.1c-0.8,0.1-1.6,0.2-2.4,0.3
		c-0.2,0-0.5,0.1-0.7,0.1c-0.7,0.1-1.5,0.2-2.2,0.3c-0.2,0-0.4,0-0.6,0.1c-0.8,0.1-1.6,0.2-2.4,0.3c-0.3,0-0.5,0.1-0.8,0.1
		c-0.7,0.1-1.4,0.1-2.1,0.2c13.6,1.5,25.1,1.4,30.5,0c-6.8,17-29.2,27.1-51.2,34.6c1.9-0.1,3.8-0.2,5.6-0.3c0,0,0,0,0,0
		c2.7-0.2,5.4-0.5,8.1-0.8c0.1,0,0.2,0,0.2,0c1.7-0.2,3.4-0.5,5.1-0.8c0.1,0,0.2,0,0.3-0.1c0.8-0.1,1.6-0.3,2.5-0.5c0,0,0,0,0,0
		c0.8-0.2,1.7-0.3,2.5-0.5c0.1,0,0.2,0,0.3-0.1c0.7-0.2,1.4-0.3,2.2-0.5c0.1,0,0.2-0.1,0.3-0.1c0.8-0.2,1.6-0.4,2.4-0.7
		c0,0,0.1,0,0.1,0c0.7-0.2,1.4-0.4,2.2-0.7c0.1,0,0.3-0.1,0.4-0.1c1.5-0.5,3-1,4.4-1.6c0.1-0.1,0.3-0.1,0.4-0.2
		c0.6-0.3,1.3-0.5,1.9-0.8c0.1,0,0.2-0.1,0.3-0.1c0.7-0.3,1.4-0.7,2.1-1c0.1-0.1,0.2-0.1,0.4-0.2c0.6-0.3,1.2-0.6,1.7-0.9
		c0.1-0.1,0.3-0.2,0.4-0.2c0.7-0.4,1.3-0.8,2-1.2c0.1,0,0.1-0.1,0.2-0.1c0.6-0.4,1.2-0.8,1.8-1.2c0.2-0.1,0.3-0.2,0.5-0.3
		c0.6-0.4,1.2-0.8,1.7-1.3c0,0,0.1-0.1,0.1-0.1c0.6-0.5,1.2-1,1.8-1.5c0.1-0.1,0.3-0.2,0.4-0.4c0.5-0.4,1-0.9,1.4-1.3
		c0.1-0.1,0.2-0.2,0.3-0.3c0.6-0.5,1.1-1.1,1.7-1.7c0.1-0.1,0.2-0.2,0.3-0.3c0.4-0.5,0.9-1,1.3-1.5c0.1-0.2,0.3-0.3,0.4-0.5
		c0.5-0.6,1-1.2,1.5-1.9c0,0,0.1-0.1,0.1-0.1c0.5-0.6,0.9-1.2,1.4-1.9c0.1-0.2,0.3-0.4,0.4-0.6c0.4-0.6,0.8-1.2,1.2-1.8
		c0.1-0.1,0.1-0.2,0.2-0.3c0.4-0.7,0.9-1.5,1.3-2.2c0.1-0.2,0.2-0.4,0.3-0.6c0.3-0.6,0.7-1.3,1-1.9c0.1-0.2,0.2-0.4,0.3-0.6
		c0.4-0.8,0.8-1.6,1.2-2.5c0.1-0.2,0.1-0.3,0.2-0.5c0.3-0.7,0.6-1.5,0.9-2.2c0.1-0.2,0.2-0.5,0.3-0.7c0.3-0.9,0.7-1.8,1-2.8
		c-0.5,0.1-1,0.3-1.5,0.4c-0.1,0-0.2,0-0.3,0.1C587.2,284.5,586.7,284.7,586.1,284.8z M509.3,378.2c-6.2,7-26.3,11.3-52.7,10.6
		c0,0,0,0,0,0c1,0.2,1.9,0.5,2.9,0.7c0.4,0.1,0.8,0.2,1.2,0.3c0.7,0.1,1.3,0.3,2,0.4c0.4,0.1,0.9,0.2,1.3,0.3
		c0.6,0.1,1.3,0.3,1.9,0.4c0.4,0.1,0.8,0.2,1.2,0.2c0.9,0.2,1.7,0.3,2.6,0.5c0.3,0.1,0.6,0.1,1,0.2c0.8,0.1,1.6,0.2,2.4,0.4
		c0.4,0.1,0.8,0.1,1.1,0.2c0.6,0.1,1.2,0.2,1.9,0.2c0.4,0,0.8,0.1,1.2,0.1c0.7,0.1,1.3,0.1,2,0.2c0.3,0,0.6,0.1,0.9,0.1
		c0.9,0.1,1.8,0.1,2.7,0.2c0.3,0,0.6,0,0.9,0c0.6,0,1.3,0,1.9,0.1c0.3,0,0.7,0,1,0c0.6,0,1.2,0,1.8,0c0.3,0,0.6,0,1,0
		c0.8,0,1.7-0.1,2.5-0.1c0.1,0,0.3,0,0.4,0c0.8-0.1,1.5-0.1,2.3-0.2c0.3,0,0.6-0.1,0.9-0.1c0.6-0.1,1.2-0.1,1.7-0.2
		c0.3,0,0.6-0.1,0.9-0.1c0.6-0.1,1.2-0.2,1.8-0.3c0.2,0,0.4-0.1,0.7-0.1c0.8-0.2,1.6-0.4,2.4-0.6c0.2-0.1,0.4-0.1,0.6-0.2
		c0.6-0.2,1.2-0.3,1.7-0.5c0.3-0.1,0.5-0.2,0.8-0.3c0.5-0.2,1.1-0.4,1.6-0.6c0.2-0.1,0.5-0.2,0.7-0.3c0.7-0.3,1.5-0.6,2.2-0.9
		c0,0,0.1,0,0.1,0c0.7-0.3,1.4-0.7,2.1-1c0.2-0.1,0.4-0.2,0.7-0.4c0.5-0.3,1-0.6,1.5-0.9c0.2-0.1,0.5-0.3,0.7-0.4
		c0.5-0.3,1-0.7,1.5-1c0.2-0.1,0.3-0.2,0.5-0.3c0.7-0.5,1.3-1,1.9-1.5c0.2-0.1,0.3-0.3,0.5-0.4c0.5-0.4,1-0.8,1.4-1.2
		c0.2-0.2,0.4-0.4,0.6-0.6c0.4-0.4,0.9-0.8,1.3-1.3c0.2-0.2,0.4-0.4,0.5-0.6c0.6-0.6,1.2-1.3,1.7-1.9c-0.7-0.1-1.4-0.2-2.1-0.4
		c-0.2,0-0.3-0.1-0.5-0.1c-0.6-0.1-1.1-0.2-1.7-0.3c-0.3-0.1-0.6-0.1-0.9-0.2c-0.4-0.1-0.9-0.2-1.3-0.2c-0.4-0.1-0.9-0.2-1.3-0.2
		c-0.3-0.1-0.6-0.1-1-0.2c-0.5-0.1-1.1-0.2-1.6-0.3c-0.3,0-0.5-0.1-0.8-0.1c-0.5-0.1-1.1-0.2-1.7-0.3c-0.3,0-0.5-0.1-0.8-0.1
		c-0.5-0.1-1.1-0.2-1.6-0.3c-0.3-0.1-0.6-0.1-0.9-0.2c-0.6-0.1-1.1-0.2-1.7-0.3c-0.3-0.1-0.6-0.1-0.8-0.2c-0.6-0.1-1.2-0.2-1.7-0.3
		c-0.3-0.1-0.5-0.1-0.8-0.2c-0.6-0.1-1.2-0.2-1.8-0.3c-0.3-0.1-0.5-0.1-0.8-0.2c-0.6-0.1-1.2-0.2-1.8-0.4c-0.3-0.1-0.6-0.1-0.8-0.2
		c-0.6-0.1-1.2-0.2-1.8-0.4c-0.3-0.1-0.6-0.1-0.8-0.2c-0.6-0.1-1.2-0.2-1.8-0.4c-0.3-0.1-0.6-0.1-0.8-0.2c-0.6-0.1-1.2-0.2-1.8-0.4
		c-0.3-0.1-0.6-0.1-0.8-0.2c-0.6-0.1-1.1-0.2-1.7-0.4c-0.3-0.1-0.6-0.1-0.9-0.2c-0.5-0.1-1.1-0.2-1.6-0.4c-0.2,0-0.4-0.1-0.6-0.1
		C492.7,372.5,502.8,376.3,509.3,378.2z M265.1,535.9c0.1-0.5,0.3-1.9-0.7-2.8c-0.2,1.5-1.7-0.9-2.2-1.6c0.1,1.3-0.2,2.2-0.8,2.8
		c0.2-0.8,0.5-2.2,0.5-2.2s-6.6-3.7-10.1-9.5c0,0,1.7,6.6,7.2,11.7c0,0,1.1,0.5,1.8,0.6c-0.3,0.2-0.6,0.4-0.9,0.5
		c2.1,0.1,3,1.3,2.6,1.9c0.8,0.2,1.6-0.5,2.1-0.9c0,0.8-0.8,0.9-1.5,1.3c2.5,0.6,4.4-1.4,2.4-4.4
		C265.5,534.4,265.8,535.2,265.1,535.9z M247.5,503.3c-0.8,2.1-0.9,7.7-0.7,11.7c0,0,0.1-8.3,3.1-6c1.1,0.5,3.6,0.8,6.8,6
		c-1.1-5.9-6.6-7.8-6.2-11c-0.4-2.4-0.5-4.9-0.5-4.9c-0.1,1-0.5,1.6-1,1.8c0.6-0.9,1.2-2.8,0-5.8c-1.2,0-2.4,0.3-3.7-1.2
		c-2.5-0.4-4.2,0.7-5,3.4c0.5,1.3,0,2.7-0.6,4.2c0.6-0.8,1.6-1.6,2.6-1.6c-1,0.4-2.1,1.4-2.6,2.9c0,0,1.4,0.7,0.6,2.9
		c0.2-0.2,0.3-0.5,0.5-0.6c-0.2,0.7-0.3,1.5-0.3,1.5c1.4,10.6,7.6,18.2,7.6,18.2c-3.3-8-2.7-17.3-2.5-19.3c0.2,0.1,0.4,0.2,0.6,0.3
		c-0.3-1.8,0.6-1.5,0.6-2.3c-1.4-2.7-0.5-3.7,0-5.1C246.3,500.8,246.7,502.2,247.5,503.3z M253.5,497.8c0.7,0,1.3,1.4,0.1,3.2
		c0.3-0.2,0.6-0.3,0.9-0.4c-0.4,0.6-0.6,1.8-0.6,1.8c1,7.4,5.3,12.7,5.3,12.7c-2.6-6.2-1.7-13.7-1.7-13.7s-1.2-0.6-2.1-0.9
		c0.9-0.1,1.8,0.2,2.8,1c-0.2-0.8-1.3-3.5,0-2.7c-0.1-1.3-1.4-1.9-1.8-2.2c1-0.2,1.5,0.5,2,1.1c-1.2-3.4-4-3.1-4.9-0.7
		c0.7-0.3,1.3-0.9,1.9-0.4C254.9,496.7,253.8,497,253.5,497.8z M237.9,513.5c0,0-1.2-0.6-2.1-0.9c0.9-0.1,1.8,0.2,2.8,1
		c-0.2-0.8-1.3-3.5,0-2.7c-0.1-1.3-1.4-1.9-1.8-2.2c1-0.2,1.5,0.5,2,1.1c-1.2-3.4-4-3.1-4.9-0.7c0.7-0.3,1.3-0.9,1.9-0.4
		c-0.6,0.2-1.6,0.5-1.9,1.2c0.7,0,1.3,1.4,0.1,3.2c0.3-0.2,0.6-0.3,0.9-0.4c-0.4,0.6-0.6,1.8-0.6,1.8c1,7.4,5.3,12.7,5.3,12.7
		C237.1,521,237.9,513.5,237.9,513.5z M379.8,514.5c0,0-0.2-1.2-0.6-1.8c0.3,0.1,0.6,0.2,0.9,0.4c-1.2-1.8-0.7-3.2,0.1-3.2
		c-0.3-0.7-1.3-1-1.9-1.2c0.6-0.5,1.2,0.1,1.9,0.4c-1-2.4-3.7-2.8-4.9,0.7c0.5-0.6,1-1.4,2-1.1c-0.4,0.2-1.7,0.9-1.8,2.2
		c1.3-0.8,0.3,2,0,2.7c1-0.8,1.9-1.1,2.8-1c-0.8,0.3-2.1,0.9-2.1,0.9s0.9,7.5-1.7,13.7C374.5,527.2,378.8,521.9,379.8,514.5z
		 M360.2,502.3c0,0-0.2-1.2-0.6-1.8c0.3,0.1,0.6,0.2,0.9,0.4c-1.2-1.8-0.7-3.2,0.1-3.2c-0.3-0.7-1.3-1-1.9-1.2
		c0.6-0.5,1.2,0.1,1.9,0.4c-1-2.4-3.7-2.8-4.9,0.7c0.5-0.6,1-1.4,2-1.1c-0.4,0.2-1.7,0.9-1.8,2.2c1.3-0.8,0.3,2,0,2.7
		c1-0.8,1.9-1.1,2.8-1c-0.8,0.3-2.1,0.9-2.1,0.9s0.9,7.5-1.7,13.7C354.8,515,359.2,509.7,360.2,502.3z M351.2,538
		c-0.6-0.4-1.5-0.6-1.5-1.3c0.5,0.4,1.4,1,2.1,0.9c-0.4-0.6,0.4-1.9,2.6-1.9c-0.3-0.2-0.6-0.3-0.9-0.5c0.7-0.1,1.8-0.6,1.8-0.6
		c5.4-5.1,7.2-11.7,7.2-11.7c-3.5,5.8-10.1,9.5-10.1,9.5s0.2,1.4,0.5,2.2c-0.6-0.7-0.9-1.6-0.8-2.8c-0.5,0.6-2.1,3.1-2.2,1.6
		c-1,0.9-0.7,2.3-0.7,2.8c-0.8-0.7-0.4-1.5-0.3-2.3C346.7,536.6,348.6,538.6,351.2,538z M364.3,509c3-2.3,3.1,6,3.1,6
		c0.2-4,0-9.7-0.7-11.7c0.7-1,1.2-2.5,0.7-5.1c0.5,1.3,1.4,2.4,0,5.1c0,0.8,0.9,0.5,0.6,2.3c0.2-0.1,0.4-0.2,0.6-0.3
		c0.2,2,0.8,11.4-2.5,19.3c0,0,6.3-7.6,7.6-18.2c0,0-0.1-0.7-0.3-1.5c0.2,0.2,0.4,0.4,0.5,0.6c-0.8-2.2,0.6-2.9,0.6-2.9
		c-0.5-1.5-1.6-2.5-2.6-2.9c1,0,2,0.8,2.6,1.6c-0.6-1.4-1.2-2.9-0.6-4.2c-0.8-2.7-2.5-3.8-5-3.4c-1.3,1.5-2.5,1.2-3.7,1.2
		c-1.2,3.1-0.5,4.9,0,5.8c-0.5-0.2-0.8-0.8-1-1.8c0,0.1,0,2.6-0.5,4.9c0.3,3.2-5.1,5-6.2,11C360.7,509.8,363.2,509.5,364.3,509z
		 M306.6,432.6c2.7,0,5.4,1.7,6.7,6c2.1-0.4,4.3,0.2,4.2,3.2l-0.4-0.3c-0.9,0.9-4,2.9-5.1,2.7v0.7c0,0.1,0,0.3,0,0.4
		c0,0.1,0,0.1,0,0.2c0,0.1,0,0.2-0.1,0.4c0,0.1,0,0.2-0.1,0.3c0,0.1-0.1,0.2-0.1,0.4c0,0.1-0.1,0.2-0.1,0.3c0,0.1-0.1,0.3-0.1,0.4
		c0,0.1-0.1,0.2-0.1,0.3c-0.1,0.1-0.1,0.3-0.2,0.4c0,0.1-0.1,0.2-0.2,0.4c-0.1,0.2-0.1,0.3-0.2,0.5c-0.1,0.1-0.1,0.3-0.2,0.4
		c-0.1,0.2-0.1,0.3-0.2,0.5c-0.1,0.1-0.1,0.2-0.2,0.4c0,0.1-0.1,0.2-0.1,0.3l0,0.1l-2,4l0,0c-0.1,0.1-0.1,0.2-0.2,0.3
		c-0.1,0.1-0.1,0.2-0.2,0.3c-0.1,0.2-0.2,0.3-0.3,0.4c0,0.1-0.1,0.2-0.1,0.2c-0.1,0.2-0.2,0.3-0.3,0.5c0,0-0.1,0.1-0.1,0.1
		c-0.1,0.2-0.2,0.3-0.3,0.5c-0.1-0.1-0.2-0.3-0.3-0.5c0-0.1-0.1-0.1-0.1-0.2c-0.1-0.1-0.1-0.2-0.2-0.4c-0.1-0.1-0.1-0.2-0.2-0.3
		c-0.1-0.1-0.1-0.2-0.2-0.4c-0.1-0.1-0.1-0.2-0.2-0.3c0-0.1-0.1-0.2-0.1-0.2l0,0l-1.6-3.1l0-0.1c0-0.1-0.1-0.2-0.1-0.2
		c-0.1-0.2-0.2-0.4-0.3-0.6c-0.1-0.1-0.1-0.3-0.2-0.4c-0.1-0.2-0.2-0.4-0.3-0.6c-0.1-0.1-0.1-0.3-0.2-0.4c-0.1-0.2-0.2-0.4-0.2-0.5
		c-0.1-0.1-0.1-0.3-0.2-0.4c-0.1-0.2-0.1-0.3-0.2-0.5c0-0.1-0.1-0.2-0.1-0.4c-0.1-0.2-0.1-0.3-0.2-0.5c0-0.1-0.1-0.2-0.1-0.3
		c-0.1-0.2-0.1-0.3-0.1-0.4c0-0.1-0.1-0.2-0.1-0.3c0-0.1-0.1-0.3-0.1-0.4c0-0.1,0-0.1,0-0.2c0-0.2,0-0.3,0-0.5v-0.7
		c-1.2,0.2-4.2-1.9-5.1-2.7l-0.4,0.3c-0.1-3,2.2-3.7,4.2-3.2C301.2,434.3,303.9,432.6,306.6,432.6z M306.6,444.5
		c-1.6-1.2-3.3-6.3-4.9-6.3c-0.3,0-0.3-1.2,0.5-2.7c-0.5-0.1-2.8,3.9-0.5,3.9c0.1,0,0.2,0.1,0.4,0.2c-2.2,0.1-3.7,1.8-5.2,0.5
		c0,0.8,1.2,1.1,2,1.1c1.1,0.6,2-0.4,3.3,0.2c0.4,4.4,1.9,9.4,4.4,12.7c2.5-3.5,3.8-8.1,4.2-12.6c0.7-0.5,2,0.7,3.5-0.4
		c0.8,0,1.8,0.1,2.3-1c-3,1.2-3.2-0.5-5.5-0.6c0.1-0.2,0.2-0.2,0.4-0.2c2.2,0,0-4-0.5-3.9c0.9,1.6,0.8,2.7,0.5,2.7
		C309.9,438.2,308.2,443.3,306.6,444.5z"/>
</g>
</svg>
