<?xml version="1.0" encoding="utf-8"?>
<!-- Generator: Adobe Illustrator 16.0.0, SVG Export Plug-In . SVG Version: 6.00 Build 0)  -->
<!DOCTYPE svg PUBLIC "-//W3C//DTD SVG 1.1//EN" "http://www.w3.org/Graphics/SVG/1.1/DTD/svg11.dtd">
<svg version="1.1" id="Layer_1" xmlns="http://www.w3.org/2000/svg" xmlns:xlink="http://www.w3.org/1999/xlink" x="0px" y="0px"
	 width="300px" height="300px" viewBox="0 0 300 300" enable-background="new 0 0 300 300" xml:space="preserve">
<g>
	<path fill-rule="evenodd" clip-rule="evenodd" fill="#010101" d="M87.006,116.498c0.316-0.259,0.719-0.604,1.208-1.036
		c0.086-0.115,0.187-0.216,0.302-0.302c-0.058,0.316,0,0.633,0.173,0.95c0.144,0.748,0.979,2.662,2.503,5.74
		c2.906,5.784,5.323,11.266,7.251,16.444c1.87,5.035,3.668,10.747,5.395,17.135l1.597,6.474l-0.086-7.207c0-1.928,0-3.611,0-5.051
		c0.058-0.229,0.086-0.475,0.086-0.733c-0.144-1.006-0.36-2.704-0.647-5.093c-0.432-4.46-1.05-8.891-1.855-13.293
		c-0.691-4.345-1.497-8.776-2.417-13.294c-2.071-10.79-3.107-16.674-3.107-17.652c0-0.202-0.029-0.432-0.086-0.691
		c0.374-0.23,0.719-0.403,1.036-0.518v0.172c0.115,3.914,0.762,8.618,1.942,14.113c1.611,7.567,2.82,13.495,3.626,17.782
		c0.748,4.374,1.28,8.704,1.597,12.991c0.115,1.87,0.23,3.353,0.345,4.445c0.029,0.316,0.072,0.964,0.129,1.942
		c0.058,1.496,0.086,3.295,0.086,5.396c0,2.071,0.058,3.841,0.172,5.309c0.115,1.439,0.216,2.158,0.302,2.158
		c0.375,0,1.353-0.503,2.935-1.511c1.611-1.122,2.892-2.115,3.841-2.979c0.432-0.432,1.166-1.352,2.201-2.762
		c1.065-1.381,2.086-2.834,3.065-4.359c2.187-3.251,3.898-5.496,5.136-6.732c1.237-1.238,2.82-2.23,4.748-2.979
		c1.525-0.604,2.734-1.396,3.625-2.374c0.921-0.892,2.777-3.338,5.568-7.337c1.554-2.13,2.849-3.554,3.885-4.273
		c1.122-0.747,2.114-0.819,2.978-0.216c0.748,0.489,1.223,0.677,1.424,0.562c0.288-0.058,0.676-0.59,1.166-1.597
		c1.122-2.158,1.137-4.129,0.043-5.913c-1.007-1.698-3.151-3.352-6.431-4.963c-1.122-0.604-2.144-1.151-3.064-1.64
		c-0.978-0.633-1.54-1.093-1.683-1.381c-0.49-0.575-0.734-0.762-0.734-0.561c0,0.288,0.273,1.281,0.82,2.978
		c0.575,1.899,0.863,3.898,0.863,6c0,2.129-0.288,3.74-0.863,4.834c-0.547,1.064-1.755,2.215-3.626,3.453
		c-1.898,1.236-3.568,1.956-5.006,2.157c-1.123,0.23-1.741,0.504-1.855,0.82c-0.173,0.316,0.014,1.122,0.561,2.417
		c0.259,0.69-0.028,1.151-0.863,1.381c-0.863,0.259-1.842,0.145-2.935-0.345c-1.064-0.432-1.597-0.835-1.597-1.209
		c0-0.316,0.46-0.849,1.381-1.597l1.511-1.122l-1.77-0.906c-3.165-1.669-4.719-4-4.661-6.992c0.115-2.964,1.798-4.733,5.05-5.309
		c1.583-0.346,2.791-0.216,3.625,0.388c0.978,0.604,1.467,1.54,1.467,2.806c0,0.863-0.101,1.482-0.302,1.855
		c-0.345,0.317-0.892,0.691-1.64,1.123c-0.518,0.288-1.108,0.475-1.77,0.561c-0.633,0.173-1.108,0.202-1.425,0.087l-1.208-0.303
		l1.208-0.561c0.806-0.375,1.252-1.021,1.338-1.942c0.057-0.921-0.259-1.381-0.95-1.381c-1.496,0-2.489,0.92-2.978,2.762
		c-0.489,1.871-0.172,3.51,0.95,4.92c0.748,0.892,1.525,1.481,2.331,1.77c0.92,0.316,1.223,0.101,0.906-0.647
		c-0.489-1.18-0.619-2.015-0.388-2.504c0.144-0.547,0.733-0.877,1.77-0.992c1.438-0.144,2.316,0.029,2.632,0.518
		c0.288,0.461,0.029,1.151-0.777,2.072l-1.467,1.554l1.769-0.993c1.669-0.806,2.849-2.042,3.54-3.712
		c0.662-1.697,0.662-3.352,0-4.963c-0.202-0.489-0.763-1.252-1.684-2.288c-0.806-1.007-1.712-1.942-2.719-2.805
		c-2.1-1.813-3.525-3.324-4.273-4.532c-0.662-1.18-0.993-2.647-0.993-4.402c0-1.036,0.086-1.798,0.259-2.287
		c0.201-0.518,0.604-1.022,1.208-1.511c1.007-0.691,2.316-1.064,3.927-1.123c1.611-0.057,3.151,0.288,4.618,1.036l2.072,1.036
		l0.993-1.899c0.46-1.151,1.583-2.345,3.367-3.582c1.784-1.238,3.554-2.086,5.309-2.547c1.957-0.546,4.244-0.791,6.862-0.734
		c2.648,0.058,4.387,0.375,5.222,0.95c0.806,0.489,1.54,1.482,2.202,2.979c0.632,1.525,1.107,3.28,1.424,5.266
		c0.172,0.863,0.417,1.51,0.734,1.942c0.316,0.374,0.877,0.777,1.682,1.208c0.863,0.374,1.41,0.72,1.641,1.036
		c0.201,0.316,0.26,0.748,0.174,1.295c-0.059,0.374-0.044,0.719,0.043,1.036c0.057,0.316,0.201,0.503,0.432,0.561
		c0.431,0.173,0.646,1.353,0.646,3.54c0,2.215-0.188,3.611-0.561,4.187c-0.115,0.115-0.518,0.331-1.209,0.647
		c-0.777,0.23-1.61,0.446-2.504,0.647c-2.215,0.432-3.668,0.834-4.358,1.208c-0.749,0.374-1.496,1.396-2.244,3.063
		c-0.776,1.67-1.353,3.583-1.727,5.741c-0.316,1.697-0.475,2.978-0.475,3.841c0.058,0.806,0.302,1.972,0.733,3.496
		c0.316,0.949,0.561,1.827,0.734,2.633c0.058,0.806,0.058,1.323,0,1.554c-0.174,0.144-0.518,0.403-1.036,0.777
		c-0.604,0.345-1.223,0.647-1.856,0.906c-1.525,0.633-2.633,1.352-3.323,2.158c-0.691,0.748-1.223,1.885-1.597,3.409
		c-0.662,2.303-0.806,4.748-0.432,7.337c0.432,2.561,1.266,4.547,2.503,5.956c1.985,2.158,5.021,3.237,9.107,3.237
		c1.928,0,3.063,0.072,3.409,0.216c0.316,0.115,0.445,0.575,0.389,1.381c0,1.122-0.532,2.792-1.597,5.007
		c-1.094,2.13-2.302,4.027-3.626,5.697c-1.467,1.726-3.654,3.554-6.56,5.481c-2.877,2.043-5.453,3.496-7.726,4.359
		c-0.921,0.316-2.043,0.633-3.367,0.949c-1.294,0.345-2.374,0.532-3.237,0.561l-3.366,0.432l-0.647,3.799
		c-0.489,2.733-1.54,7.322-3.151,13.768l-2.417,9.841v3.841c11.452,3.539,23.623,5.309,36.514,5.309
		c17.293,0,33.276-3.136,47.95-9.408c0-0.201,0-0.446,0-0.734c-0.172-3.539-0.69-6.215-1.554-8.027
		c-0.488-1.036-0.892-2.575-1.208-4.618c-0.316-2.042-0.72-5.179-1.209-9.409c-0.862-8.862-1.424-14.027-1.683-15.494
		c-0.173-0.949-0.389-1.597-0.647-1.942c-0.173-0.144-0.475-0.302-0.906-0.475c-0.69-0.316-1.165-0.906-1.425-1.77
		c-0.287-0.921-0.661-3.252-1.122-6.992c-0.345-2.532-0.892-5.626-1.64-9.279c-0.691-3.712-1.281-6.345-1.771-7.898
		c-0.315-1.036-1.409-3.941-3.279-8.719c-1.554-3.971-2.503-7.106-2.849-9.408c-0.374-2.331-0.317-4.964,0.173-7.898
		c0.432-2.475,0.488-4.273,0.173-5.395c-0.374-1.18-1.425-2.575-3.151-4.187l-2.115-1.942l-2.718,2.072
		c-1.612,1.18-2.878,1.798-3.799,1.855c-0.921,0-1.669-0.589-2.244-1.769c-0.173-0.489-0.476-0.92-0.906-1.295
		c-0.375-0.375-0.691-0.59-0.949-0.647c-0.317-0.086-0.591-0.245-0.82-0.475c-0.145-0.144-0.217-0.331-0.217-0.562
		c0-0.201-0.157-0.417-0.475-0.647c-0.229-0.202-0.532-0.36-0.906-0.475c-0.547-0.173-0.848-0.302-0.906-0.389
		c-0.086-0.115,0.029-0.302,0.346-0.561c0.489-0.547,0.705-1.122,0.646-1.727c0-0.575-0.301-1.166-0.906-1.77
		c-0.432-0.489-0.59-0.921-0.475-1.294c0.059-0.375,0.461-1.094,1.209-2.158c0.662-0.921,1.064-1.698,1.209-2.331
		c0.172-0.604,0.172-1.381,0-2.33c-0.145-1.41-0.576-2.547-1.295-3.41c-0.691-0.892-1.381-1.237-2.072-1.036
		c-0.661,0.173-1.064,0.043-1.208-0.388c-0.23-0.432-0.159-1.007,0.216-1.727c0.316-0.691,0.373-1.007,0.173-0.95
		c-0.202,0-0.663,0.375-1.382,1.122l-1.122,1.295l-0.389-1.856c-0.604-2.532,0.604-5.266,3.626-8.2
		c2.964-2.963,6.617-5.006,10.963-6.129c3.711-0.979,7.553-0.733,11.523,0.734c1.496,0.46,2.33,0.691,2.503,0.691
		c0.145-0.086,0.145-0.59,0-1.511c-0.173-0.748-0.201-1.065-0.086-0.95c0.115,0.029,0.46,0.532,1.035,1.511
		c0.432,0.69,0.807,1.18,1.122,1.467c0.375,0.316,0.591,0.388,0.647,0.215c0.115-0.201,0.173-0.446,0.173-0.733
		c0-0.202-0.058-0.417-0.173-0.647c-0.2-0.403-0.114-0.475,0.26-0.216c0.201,0.115,0.359,0.331,0.475,0.647
		c0.173,0.374,0.259,0.748,0.259,1.122c0,0.979,0.604,1.842,1.813,2.59c0.547,0.316,1.094,0.719,1.641,1.208
		c0.518,0.46,0.863,0.892,1.036,1.294c0.315,0.518,0.475,0.835,0.475,0.95c0,0.058-0.13-0.072-0.389-0.389
		c-0.69-0.662-1.122-0.849-1.295-0.561c-0.173,0.202-0.015,0.792,0.475,1.77c0.72,1.266,1.079,3.064,1.079,5.395
		c0,2.474-0.489,4.676-1.467,6.604c-0.979,1.985-2.618,4.071-4.921,6.258c-2.042,2.014-3.337,3.711-3.884,5.093
		c-0.634,1.352-0.734,2.906-0.303,4.661c0.691,3.28,2.173,5.165,4.445,5.654c1.612,0.316,3.352,1.582,5.223,3.798
		c1.842,2.244,4.574,6.272,8.2,12.085c1.899,3.05,3.54,5.567,4.921,7.553c1.352,1.899,3.855,5.15,7.51,9.755
		c1.295,1.669,2.474,3.05,3.539,4.143c0.979,1.065,1.626,1.597,1.941,1.597c0.49,0,0.706-0.057,0.647-0.173
		c0-0.143-0.302-0.432-0.906-0.863c-1.438-1.179-1.841-2.445-1.209-3.797c0.777-1.496,2.072-1.252,3.885,0.733l1.684,1.77
		l0.346-2.114c0.259-1.612,0.979-2.734,2.158-3.367c1.236-0.662,2.172-0.417,2.805,0.733c0.288,0.432,0.489,0.59,0.604,0.476
		c0.086-0.115,0.216-0.604,0.388-1.468c0.26-1.122,0.734-1.928,1.425-2.417c0.72-0.432,1.482-0.432,2.288,0
		c0.632,0.374,1.007,0.835,1.122,1.381c0.058,0.547-0.101,1.381-0.475,2.504c-0.346,0.806-0.489,1.208-0.432,1.208
		c0.114,0.058,0.518-0.158,1.208-0.647c0.921-0.604,1.756-0.906,2.504-0.906c0.805,0,1.452,0.273,1.941,0.82
		c0.259,0.373,0.374,0.69,0.345,0.949c0,0.346-0.244,0.747-0.733,1.209c-0.748,0.805-1.583,1.41-2.503,1.813l-1.467,0.604
		l1.77,0.518c0.488,0.145,0.979,0.36,1.468,0.647c0.546,0.26,0.92,0.519,1.121,0.777c0.316,0.375,0.446,0.677,0.389,0.906
		c-0.028,0.259-0.346,0.633-0.949,1.122c-0.374,0.26-0.806,0.533-1.295,0.82c-0.432,0.145-0.748,0.216-0.949,0.216
		c-0.346,0-0.375,0.115-0.087,0.346c0.144,0.201,0.519,0.446,1.123,0.733c0.747,0.374,1.279,0.748,1.596,1.122
		c0.346,0.316,0.518,0.72,0.518,1.209c0,1.122-0.416,1.841-1.251,2.157c-0.748,0.317-1.626,0.159-2.633-0.475
		c-1.237-0.661-1.77-0.747-1.597-0.259c0.518,1.295,0.777,2.188,0.777,2.676c0,0.547-0.216,1.021-0.647,1.425
		c-0.26,0.287-0.547,0.532-0.863,0.733c-0.374,0.173-0.647,0.259-0.82,0.259c-0.489,0-0.979-0.373-1.468-1.122
		c-0.402-0.72-0.604-1.481-0.604-2.288c0-0.949-0.201-1.424-0.604-1.424c-0.315,0-0.733,0.504-1.251,1.511
		c-1.611,3.28-2.618,5.511-3.021,6.69c-0.317,1.15-0.418,2.733-0.303,4.747c0.173,1.727,0.201,2.747,0.087,3.064
		c-0.058,0.374-0.245,0.273-0.562-0.302c-0.288-0.604-0.504-0.82-0.647-0.647c-0.115,0.114-0.302,0.791-0.562,2.028l-0.561,2.547
		l-0.173-7.554l-1.209,1.468c-0.546,0.69-0.819,0.979-0.819,0.863c0-0.173,0.302-1.036,0.906-2.59
		c1.18-3.107,1.827-5.064,1.942-5.87c0.086-0.806-0.316-0.776-1.209,0.087c-0.432,0.432-1.295,0.532-2.59,0.302
		c-0.863-0.145-1.567-0.547-2.115-1.208c-0.518-0.519-1.395-1.885-2.632-4.101c-1.899-3.28-2.863-4.92-2.892-4.92
		c-0.173,0-0.101,0.805,0.216,2.417c0.432,2.157,0.589,3.957,0.475,5.395c-0.086,1.409-0.403,2.331-0.949,2.763
		c-0.432,0.316-0.806,1.395-1.123,3.237c-0.374,1.812-0.92,5.539-1.64,11.178c-0.806,6.704-1.223,10.862-1.252,12.473
		c-0.057,1.584,0.159,3.439,0.647,5.568c0.403,2.101,0.807,4.014,1.209,5.74c9.984-5.524,19.35-12.675,28.098-21.451
		c23.708-23.622,35.563-52.194,35.563-85.715c0-12.862-1.727-24.99-5.179-36.384c12.027,20.688,18.04,43.851,18.04,69.488
		c0,39.333-14.156,72.912-42.47,100.735c-28.313,27.709-62.481,41.563-102.505,41.563c-40.024,0-74.192-13.854-102.505-41.563
		C18.914,210.947,4.786,177.368,4.786,138.035c0-39.276,14.128-72.797,42.383-100.563c11.193-10.962,23.292-19.753,36.297-26.371
		c-3.021,2.475-5.956,5.136-8.804,7.985c-23.681,23.738-35.521,52.353-35.521,85.845c0,33.521,11.84,62.093,35.521,85.715
		c12.257,12.316,25.853,21.422,40.786,27.321c-0.23-1.181-0.316-2.057-0.259-2.633c0.058-1.525,0.834-3.784,2.331-6.776
		c0.604-1.18,0.979-2.316,1.122-3.409c0.173-1.008,0.259-2.964,0.259-5.87c0-4.288-0.159-7.236-0.475-8.849
		c-0.172-0.978-0.417-1.653-0.734-2.027c-0.316-0.375-1.122-0.807-2.417-1.295c-1.726-0.634-3.553-1.568-5.481-2.806
		c-1.353-0.806-2.158-1.267-2.417-1.381c-0.259,0-0.446,0.244-0.561,0.733c-0.058,0.317,0.072,1.468,0.388,3.453
		c0.288,1.985,0.662,4.186,1.123,6.604c1.208,5.869,1.913,10.085,2.114,12.646c0.173,1.554,0.173,2.201,0,1.942
		c-0.057-0.259-0.302-1.626-0.733-4.101c-0.633-3.337-1.295-6.531-1.985-9.581c-0.72-3.137-1.208-5.051-1.468-5.74
		c-0.115-0.202-0.244,0.071-0.388,0.819c-0.173,0.863-0.288,1.957-0.345,3.28c-0.144,2.158-0.245,3.021-0.302,2.59
		c-0.058-0.374-0.115-2.475-0.173-6.302c-0.057-4.114-0.172-6.661-0.345-7.639c-0.086-0.979-0.503-1.885-1.251-2.72l-1.467-1.769
		l1.467-1.554c1.007-1.065,1.54-2.402,1.597-4.015c0.058-1.554-0.403-2.388-1.381-2.504c-0.921-0.172-1.424-0.719-1.511-1.64
		c-0.115-0.949,0.202-1.913,0.95-2.892c0.489-0.633,0.762-1.251,0.82-1.855c0.086-0.519,0.028-1.366-0.173-2.547
		c-1.611-10.215-5.583-21.939-11.912-35.176c-1.611-3.366-2.82-5.667-3.625-6.905C87.726,117.188,87.323,116.67,87.006,116.498z
		 M124.685,153.098c0.604-0.115,1.467-0.388,2.589-0.819c1.123-0.46,2.202-0.965,3.237-1.511c1.985-0.979,3.597-2.158,4.834-3.54
		c1.237-1.41,2.388-3.266,3.453-5.567c0.662-1.438,0.936-2.157,0.82-2.157c-0.173,0-1.108,0.69-2.806,2.071
		c-1.525,1.352-3.712,3.078-6.56,5.179c-2.791,2.072-4.748,3.727-5.87,4.964l-1.683,1.77L124.685,153.098z M107.076,168.635
		c-0.719,0.548-0.993,1.311-0.82,2.288l0.173,1.338l1.122-1.511c0.633-0.979,0.892-1.696,0.777-2.158
		C108.241,168.16,107.824,168.175,107.076,168.635z M234.7,157.716c0,0.402,0.216,0.374,0.647-0.087
		c0.23-0.172,0.359-0.358,0.389-0.561c0.058-0.229,0.058-0.374,0-0.432c-0.202-0.144-0.432-0.115-0.69,0.087
		C234.815,156.982,234.7,157.313,234.7,157.716z M111.176,211.191c0.144,0.661,0.144,1.424,0,2.287
		c-0.058,0.375-0.115,0.475-0.173,0.303c-0.057-0.202-0.086-0.662-0.086-1.382c0-0.633,0-1.064,0-1.295
		C110.975,210.846,111.061,210.875,111.176,211.191z M104.572,201.998c0-0.806,0.029-1.367,0.086-1.684
		c0-0.315,0.043-0.287,0.129,0.087c0.115,0.863,0.115,1.827,0,2.892c-0.086,0.432-0.129,0.547-0.129,0.346
		C104.601,203.351,104.572,202.805,104.572,201.998z"/>
	<path fill-rule="evenodd" clip-rule="evenodd" fill="#D92826" d="M157.099,81.063c0.547,0.115,0.921,0.144,1.122,0.086
		c0.172-0.115,0.259-0.417,0.259-0.906c0-0.806,0.13-1.28,0.388-1.424c0.317-0.345,0.835-0.489,1.555-0.432
		c0.633,0.115,1.137,0.388,1.51,0.82c0.432,0.489,0.563,1.54,0.389,3.151c-0.143,1.554-0.46,2.705-0.949,3.453
		c-0.316,0.633-1.438,0.604-3.366-0.086c-1.956-0.69-3.064-1.41-3.323-2.158c-0.26-0.863-0.13-1.568,0.388-2.115
		C155.559,80.963,156.235,80.833,157.099,81.063z M166.205,70.576c0.259-0.633,0.82-0.95,1.684-0.95
		c0.805,0.086,1.295,0.432,1.467,1.036c0.115,0.432,0.303,0.705,0.561,0.82c0.26,0.086,0.72,0.115,1.383,0.086
		c0.949-0.172,1.61,0.014,1.984,0.561c0.373,0.576,0.273,1.208-0.303,1.899c-0.632,0.777-1.596,1.396-2.891,1.856
		c-1.353,0.432-2.244,0.46-2.676,0.086c-0.489-0.375-0.863-1.208-1.123-2.503C166.032,72.144,166.004,71.18,166.205,70.576z
		 M158.479,63.325c0.633,0.115,1.108,0.115,1.425,0c0.229-0.173,0.432-0.518,0.604-1.036c0.201-0.863,0.648-1.324,1.338-1.381
		c0.805-0.058,1.396,0.288,1.77,1.036c0.346,0.546,0.375,1.568,0.086,3.064c-0.258,1.554-0.632,2.575-1.121,3.064
		c-0.316,0.317-1.151,0.216-2.504-0.302c-1.381-0.489-2.345-1.079-2.892-1.77c-0.69-0.748-0.906-1.396-0.647-1.942
		C156.854,63.454,157.5,63.21,158.479,63.325z M168.709,51.326c0.172-0.058,0.302-0.245,0.388-0.561
		c0.288-0.547,0.69-0.849,1.208-0.906c0.547,0,1.037,0.273,1.469,0.82c0.315,0.316,0.445,0.662,0.389,1.036
		c-0.059,0.316-0.245,0.834-0.563,1.554c-0.748,1.438-1.424,2.273-2.027,2.503c-0.461,0.201-1.238-0.129-2.331-0.993
		c-0.95-0.863-1.54-1.698-1.77-2.504c-0.144-0.805,0.159-1.337,0.906-1.596c0.202-0.116,0.46-0.145,0.776-0.086
		c0.346,0.057,0.619,0.187,0.82,0.388C168.291,51.211,168.536,51.326,168.709,51.326z M161.631,42.306
		c-0.748-0.748-1.209-1.51-1.383-2.287c-0.114-0.691,0.131-1.137,0.734-1.338c0.145-0.115,0.389-0.115,0.734,0
		c0.258,0.058,0.489,0.159,0.689,0.302c0.432,0.316,0.979,0.259,1.641-0.172c0.144-0.202,0.375-0.302,0.69-0.302
		c0.288-0.115,0.532-0.115,0.734,0c0.489,0.316,0.647,0.806,0.475,1.467c-0.144,0.633-0.618,1.353-1.425,2.158l-1.467,1.468
		L161.631,42.306z M97.322,98.889c-0.288,0.144-0.504,0.331-0.647,0.562c-0.748,0.748-1.425,1.122-2.029,1.122
		c-0.115,0-0.244-0.028-0.389-0.086c-0.057-0.115-0.115-0.172-0.172-0.172v-0.82l2.59-3.755c0.201-0.805-0.015-1.697-0.647-2.676
		c-0.806-1.295-3.007-3.813-6.604-7.553c-3.654-3.769-5.841-6.172-6.56-7.207c-0.633-1.123-1.108-2.432-1.424-3.928
		c-0.172-0.546-0.288-1.136-0.345-1.769v-0.086c-0.058-1.497,0.245-2.949,0.907-4.359c0.575-1.18,1.165-2.043,1.769-2.589
		c0.604-0.518,1.597-1.022,2.979-1.511c1.352-0.489,2.273-0.734,2.762-0.734c0.518,0,1.454,0.158,2.806,0.475
		c1.439,0.432,2.734,1.166,3.884,2.202c1.18,1.007,1.899,2.057,2.158,3.15l0.475,1.77l1.467-2.288
		c1.123-1.611,2.359-2.819,3.712-3.625c1.38-0.806,2.963-1.208,4.748-1.208c1.927,0,3.568,0.403,4.92,1.208
		c1.323,0.921,2.446,2.273,3.366,4.057c1.238,2.503,1.54,5.107,0.907,7.812c-0.662,2.676-2.144,5.007-4.445,6.992
		c-1.669,1.467-4.273,3.237-7.813,5.309c-2.532,1.525-4.229,2.604-5.093,3.237c0.316,0.316,0.69,0.691,1.122,1.123
		c1.41,1.18,2.115,2.388,2.115,3.625c0,0.921-0.676,1.41-2.029,1.468c-1.496-0.173-2.489-0.259-2.978-0.259
		c-0.144,0-0.302,0-0.475,0C98.041,98.486,97.695,98.658,97.322,98.889z M87.006,116.498c-0.173-0.086-0.288-0.101-0.345-0.043
		c-0.375,0.086-0.619-0.029-0.734-0.345c-0.086-0.259-0.129-0.936-0.129-2.029c0-0.69-0.058-1.28-0.173-1.77
		c-0.057-0.518-0.172-0.777-0.345-0.777c-0.259,0-1.87,0.288-4.834,0.863c-3.798,0.863-7.309,0.949-10.531,0.259
		c-3.166-0.748-5.525-2.144-7.079-4.187c-2.273-3.021-2.676-5.87-1.208-8.545c1.554-2.647,4.158-3.755,7.812-3.324
		c1.813,0.23,3.05,0.475,3.712,0.734c0.46,0.173,0.719,0.173,0.777,0c0.115-0.202,0.058-0.763-0.173-1.684
		c-0.201-1.352-0.057-2.719,0.432-4.1c0.489-1.467,1.18-2.575,2.072-3.323c1.036-0.806,2.432-1.209,4.187-1.209
		c3.396,0,5.683,1.583,6.863,4.748c1.122,3.108,0.992,7.352-0.389,12.732c-0.748,3.021-1.093,4.848-1.036,5.481
		c0.086,0.69,0.719,1.309,1.899,1.855c1.036,0.375,1.583,0.677,1.64,0.907c0.145,0.202-0.028,0.647-0.518,1.338
		c-0.144,0.345-0.273,0.705-0.389,1.079c-0.115,0.086-0.216,0.187-0.302,0.302C87.726,115.894,87.323,116.239,87.006,116.498z"/>
</g>
</svg>
