<?xml version="1.0" encoding="utf-8"?>
<!-- Generator: Adobe Illustrator 16.0.0, SVG Export Plug-In . SVG Version: 6.00 Build 0)  -->
<!DOCTYPE svg PUBLIC "-//W3C//DTD SVG 1.1//EN" "http://www.w3.org/Graphics/SVG/1.1/DTD/svg11.dtd">
<svg version="1.1" id="Layer_1" xmlns="http://www.w3.org/2000/svg" xmlns:xlink="http://www.w3.org/1999/xlink" x="0px" y="0px"
	 width="300px" height="300px" viewBox="0 0 300 300" enable-background="new 0 0 300 300" xml:space="preserve">
<g>
	<path fill-rule="evenodd" clip-rule="evenodd" fill="#C32026" d="M256.419,174.498v-1.967l-2.213-2.281
		c10.982-16.041,17.819-31.6,20.513-46.68c0.655-3.77,0.983-8.277,0.983-13.522c0-5.292-0.34-9.554-1.019-12.785
		c-1.499-6.86-4.11-13.159-7.833-18.896c-3.699-5.76-8.266-10.455-13.698-14.084c-9.693-6.65-20.254-9.87-31.681-9.659
		c-11.357,0.234-22.327,3.816-32.911,10.748c-2.973,1.943-6.404,4.917-10.291,8.921c-3.887,4.027-6.931,7.68-9.132,10.958
		c-0.164,0.304-0.34,0.608-0.526,0.913c-0.211-0.305-0.445-0.609-0.703-0.913c0.258-0.469,0.539-0.972,0.844-1.511
		c2.458-4.285,4.494-7.563,6.11-9.834c4.684-6.603,10.304-12.305,16.859-17.104c6.557-4.777,13.593-8.301,21.109-10.573
		c2.482-0.772,4.554-1.229,6.217-1.37c1.615-0.164,4.894-0.246,9.835-0.246c4.94,0,8.194,0.082,9.764,0.246
		c1.663,0.141,3.747,0.597,6.252,1.37c5.245,1.616,9.94,3.712,14.084,6.288c4.122,2.552,7.927,5.702,11.416,9.448
		c5.034,5.433,8.77,11.427,11.204,17.983c2.459,6.65,3.712,14.131,3.759,22.444c0.093,12.972-3.009,26.365-9.308,40.181
		C271.276,152.898,264.731,163.541,256.419,174.498z M61.344,175.236v6.287c-4.894-4.986-9.448-9.951-13.663-14.893
		c-19.833-23.462-30.756-45.695-32.77-66.699c-0.749-8.172,0.035-15.911,2.354-23.217c2.224-7.071,5.854-13.429,10.888-19.072
		c10.396-11.591,24.668-18.37,42.815-20.336c2.107-0.211,5.608-0.188,10.501,0.07c4.894,0.258,8.629,0.633,11.205,1.124
		c5.596,1.054,11.286,2.763,17.07,5.128c5.76,2.341,11.158,5.198,16.192,8.57c3.676,2.458,8.16,6.311,13.452,11.556
		c5.245,5.245,9.132,9.741,11.661,13.487c1.218,1.756,2.447,3.641,3.688,5.655c-0.281,0.305-0.597,0.714-0.948,1.229
		c-3.652-4.8-7.691-9.191-12.117-13.171c-5.995-5.385-12.375-9.752-19.142-13.101c-5.901-2.927-11.369-5.035-16.403-6.322
		c-4.987-1.265-10.736-2.026-17.245-2.283c-5.082-0.211-9.519-0.059-13.312,0.457c-3.817,0.562-7.973,1.569-12.469,3.021
		c-4.402,1.499-8.266,3.243-11.591,5.233c-3.325,2.061-6.65,4.753-9.975,8.079c-3.372,3.325-5.971,6.451-7.797,9.378
		c-1.85,2.88-3.489,6.404-4.917,10.572c-0.89,2.576-1.464,4.648-1.721,6.217c-0.211,1.615-0.363,4.308-0.457,8.078
		c-0.211,6.861,0.421,13.347,1.896,19.458c1.522,6.041,4.168,12.738,7.938,20.091c3.77,7.423,8.184,14.517,13.242,21.285
		C53.043,165.637,56.918,170.344,61.344,175.236z M96.678,208.744c9.132,7.518,19.775,15.455,31.927,23.814
		c4.589,3.184,11.415,7.645,20.477,13.381c8.921,5.715,13.604,8.57,14.05,8.57c0.21,0,3.114-1.967,8.71-5.9
		c19.107-13.512,35.674-27.021,49.699-40.533c0.96,0.445,1.944,0.844,2.951,1.195c-0.961,0.818-1.897,1.674-2.811,2.564
		c-10.373,9.436-20.758,18.041-31.154,25.814c-5.807,4.332-11.755,8.617-17.842,12.855c-6.112,4.285-9.367,6.428-9.766,6.428
		c-0.397,0-4.425-2.354-12.082-7.061c-7.728-4.775-14.342-9.002-19.845-12.68c-13.698-9.037-26.249-18.088-37.652-27.15
		c0.094-0.023,0.175-0.059,0.246-0.104C94.477,209.658,95.507,209.26,96.678,208.744z"/>
	<path fill-rule="evenodd" clip-rule="evenodd" fill="#FFFFFF" d="M168.611,86.164c0.187-0.305,0.362-0.609,0.526-0.913
		c2.201-3.278,5.245-6.931,9.132-10.958c3.887-4.004,7.318-6.978,10.291-8.921c10.584-6.931,21.554-10.514,32.911-10.748
		c11.427-0.211,21.987,3.009,31.681,9.659c5.433,3.629,9.999,8.324,13.698,14.084c3.723,5.737,6.334,12.036,7.833,18.896
		c0.679,3.231,1.019,7.493,1.019,12.785c0,5.245-0.328,9.753-0.983,13.522c-2.693,15.08-9.53,30.639-20.513,46.68l-7.024-7.131
		c-5.854-5.947-10.021-10.373-12.504-13.277l-3.231-3.793l0.527-16.859c0.211-7.517,0.257-12.48,0.14-14.893
		c-0.047-2.528-0.397-4.905-1.054-7.13c-0.913-3.513-1.463-6.111-1.65-7.798c-0.305-2.623-0.633-4.332-0.983-5.127
		c-0.352-0.75-0.913-1.124-1.686-1.124c-0.445,0-1.019,0.199-1.722,0.597c-0.655,0.445-1.288,0.901-1.896,1.37
		c-0.96,1.007-1.51,1.99-1.65,2.95c-0.117,0.937-0.071,3.536,0.141,7.797c0.257,4.871,0.233,9.577-0.071,14.12
		c-0.304,4.542-0.761,6.837-1.369,6.884c-0.187,0-0.644-0.726-1.369-2.178c-0.75-1.381-1.534-3.079-2.354-5.093
		c-1.357-3.278-2.563-6.498-3.617-9.659c-1.007-3.044-2.623-8.371-4.847-15.981c-1.055-3.676-2.365-7.528-3.934-11.556
		c-1.055-2.786-1.851-4.554-2.389-5.304c-0.469-0.749-1.124-1.124-1.967-1.124c-0.516,0-1.125,0.199-1.827,0.597
		c-0.749,0.352-1.382,0.808-1.896,1.37c-1.313,1.264-1.945,3.032-1.897,5.303c0.095,2.202,0.854,5.597,2.283,10.186
		c0.655,2.014,1.205,4.039,1.65,6.077c0.469,2.013,0.702,3.465,0.702,4.355c0,1.826,0.375,4.987,1.125,9.483
		c0.795,4.426,1.076,6.721,0.842,6.885c-0.257,0.28-2.657-1.769-7.2-6.147c-4.589-4.378-8.698-8.593-12.328-12.644
		c-5.198-5.69-8.254-8.98-9.167-9.87c-0.633-0.609-1.136-1.171-1.511-1.686c-0.397-0.539-0.597-0.937-0.597-1.194
		C169.875,88.095,169.454,87.264,168.611,86.164z M204.437,157.533c1.429,1.055,2.283,1.84,2.563,2.355
		c0.211,0.514,0.234,1.521,0.07,3.02c-0.584,4.238-1.791,7.996-3.617,11.275c-1.851,3.277-3.969,5.549-6.357,6.813
		c-0.656,0.352-2.014,0.727-4.074,1.125c-2.107,0.49-4.32,0.891-6.639,1.193c-5.666,0.82-9.658,1.605-11.977,2.354
		c-1.804,0.563-3.945,1.65-6.428,3.266c-2.506,1.617-4.039,2.846-4.602,3.689c-0.444,0.727-1.123,1.662-2.037,2.809l-1.439,1.828
		l-4.777-5.164c-2.669-2.811-5.187-4.824-7.551-6.041c-2.318-1.264-6.451-2.682-12.398-4.25c-4.73-1.311-7.657-2.389-8.781-3.232
		c-1.358-0.865-2.646-2.727-3.864-5.584c-1.241-2.879-2.014-5.83-2.318-8.852c-0.304-3.043-0.164-5.361,0.421-6.953
		c0.515-1.521,1.628-2.74,3.337-3.652c1.663-0.797,3.033-1.699,4.109-2.706c0.492-0.421,1.37-0.878,2.634-1.37
		c1.265-0.444,2.6-0.796,4.004-1.054c1.405-0.211,2.81-0.515,4.215-0.913c1.381-0.352,2.365-0.679,2.95-0.983
		c0.983-0.468,1.768-0.667,2.353-0.597c0.562,0.234,1.674,0.89,3.337,1.967c1.311,0.96,2.224,1.791,2.74,2.494
		c0.538,0.608,0.808,1.333,0.808,2.177c0,4.027,1.03,7.107,3.091,9.238c0.96,1.053,1.826,1.709,2.6,1.967
		c0.749,0.256,2.212,0.385,4.39,0.385c1.85,0,3.302-0.129,4.355-0.385c1.03-0.211,1.99-0.621,2.881-1.23
		c1.264-0.959,2.459-2.492,3.582-4.6c1.102-2.131,1.674-4.018,1.721-5.656c0-0.818,0.152-1.452,0.457-1.896
		c0.398-0.469,1.101-0.925,2.107-1.37c0.865-0.398,2.154-1.159,3.863-2.283c1.71-1.147,2.564-1.826,2.564-2.037l4.566,2.354
		c1.24,0.656,2.516,1.206,3.828,1.65c1.264,0.421,2.154,0.633,2.669,0.633c1.265,0,2.868,1.007,4.813,3.02
		C200.433,154.232,202.376,155.967,204.437,157.533z M182.203,128.207c-0.866,0-2.248,0.526-4.145,1.58
		c-1.873,1.101-2.81,1.885-2.81,2.354c0,0.352-1.487,1.662-4.461,3.934c-3.021,2.225-4.636,3.513-4.847,3.863l-3.231,4.355
		l-6.427-6.884c-3.701-3.98-6.581-6.416-8.641-7.306c-2.061-0.819-5.14-0.925-9.237-0.316c-3.255,0.516-5.14,0.773-5.655,0.773
		c-0.491,0,1.241-2.003,5.198-6.007c1.874-1.85,3.723-3.969,5.55-6.357c1.896-2.458,3.512-4.847,4.847-7.165
		c3.021-4.987,5.28-8.289,6.778-9.904c1.521-1.757,2.658-3.372,3.406-4.847c0.75-1.522,1.359-2.248,1.828-2.178
		c0.491,0,1.1,0.831,1.826,2.494c0.351,0.796,0.901,1.745,1.65,2.845c0.796,1.077,1.558,2.037,2.283,2.881
		c0.749,0.726,1.65,1.838,2.704,3.336c1.007,1.405,1.862,2.693,2.564,3.864c1.779,3.067,4.284,6.743,7.516,11.028
		c3.325,4.496,4.988,6.896,4.988,7.2S183.328,128.207,182.203,128.207z M96.678,208.744c1.663-0.818,3.676-1.885,6.042-3.195
		c3.793-2.156,7.294-3.736,10.502-4.742c3.137-0.959,6.849-1.674,11.134-2.143c4.8-0.445,9.003-0.293,12.609,0.457
		c3.583,0.771,7.774,2.412,12.574,4.916c3.981,2.133,6.475,3.35,7.481,3.654c1.055,0.258,2.365,0.152,3.934-0.316
		c0.914-0.258,2.003-0.656,3.268-1.195c1.311-0.607,2.447-1.17,3.406-1.686c3.466-2.061,8.103-3.488,13.908-4.285
		c5.832-0.818,11.697-0.855,17.598-0.105c2.996,0.352,5.479,0.855,7.446,1.51c2.015,0.656,5.104,1.969,9.272,3.936
		c1.967,0.959,3.863,1.803,5.689,2.527c-14.025,13.512-30.592,27.021-49.699,40.533c-5.596,3.934-8.5,5.9-8.71,5.9
		c-0.445,0-5.129-2.855-14.05-8.57c-9.062-5.736-15.888-10.197-20.477-13.381C116.453,224.199,105.81,216.262,96.678,208.744z
		 M153.788,84.126c-1.662,2.201-4.589,5.655-8.78,10.361c-5.198,5.947-8.875,9.905-11.029,11.872
		c-5.362,5.081-9.659,8.933-12.891,11.556c-3.161,2.716-4.823,3.875-4.987,3.477c-0.047-0.258,0.082-0.937,0.386-2.037
		c0.305-1.124,0.714-2.388,1.229-3.793c0.539-1.265,1.183-3.173,1.932-5.726c0.679-2.481,1.265-4.8,1.756-6.954
		c0.515-2.131,1.019-4.156,1.51-6.076c0.562-1.92,0.995-3.173,1.3-3.758c0.656-1.311,1.452-4.262,2.388-8.851
		c0.656-3.325,0.96-5.374,0.914-6.146c0-0.75-0.398-1.627-1.194-2.634c-0.796-1.124-2.025-1.909-3.688-2.354
		c-1.616-0.492-2.658-0.339-3.126,0.457c-0.257,0.492-1.358,3.185-3.301,8.079c-4.309,11.193-9.156,22.819-14.541,34.877
		c-5.386,12.012-8.43,18.019-9.132,18.019c-1.03,0-2.494-3.56-4.39-10.678c-1.827-7.165-2.962-13.616-3.407-19.354
		c-0.351-4.753-1.065-8.09-2.143-10.01c-1.147-1.943-2.856-2.915-5.127-2.915h-2.494l0.211,15.419
		c0.164,10.373,0.796,18.896,1.896,25.57c1.077,6.884,1.452,11.848,1.124,14.892c-0.352,3.021-1.733,6.697-4.145,11.029
		c-1.054,2.014-2.365,4.063-3.934,6.146c-1.569,2.154-3.009,3.887-4.32,5.199l-4.461,4.531v0.912
		c-4.425-4.893-8.301-9.6-11.625-14.119c-5.058-6.768-9.472-13.862-13.242-21.285c-3.77-7.353-6.416-14.05-7.938-20.091
		c-1.475-6.111-2.107-12.598-1.896-19.458c0.094-3.77,0.246-6.463,0.457-8.078c0.257-1.569,0.832-3.642,1.721-6.217
		c1.428-4.168,3.067-7.692,4.917-10.572c1.826-2.927,4.426-6.053,7.797-9.378c3.325-3.325,6.65-6.018,9.975-8.079
		c3.325-1.99,7.188-3.735,11.591-5.233c4.496-1.452,8.652-2.458,12.469-3.021c3.793-0.515,8.23-0.667,13.312-0.457
		c6.509,0.257,12.258,1.019,17.245,2.283c5.034,1.288,10.502,3.395,16.403,6.322c6.767,3.348,13.147,7.715,19.142,13.101
		C146.097,74.936,150.136,79.326,153.788,84.126z"/>
	<path fill-rule="evenodd" clip-rule="evenodd" fill="#010101" d="M96.678,208.744c-1.17,0.516-2.201,0.914-3.091,1.195
		c-0.07,0.045-0.152,0.08-0.246,0.104c-11.989-9.529-22.655-19.035-31.998-28.52v-6.287v-0.912l4.461-4.531
		c1.311-1.313,2.751-3.045,4.32-5.199c1.569-2.084,2.88-4.133,3.934-6.146c2.412-4.332,3.793-8.008,4.145-11.029
		c0.328-3.044-0.047-8.008-1.124-14.892c-1.101-6.674-1.732-15.197-1.896-25.57l-0.211-15.419h2.494c2.271,0,3.98,0.972,5.127,2.915
		c1.077,1.92,1.792,5.257,2.143,10.01c0.445,5.737,1.581,12.188,3.407,19.354c1.896,7.118,3.36,10.678,4.39,10.678
		c0.703,0,3.747-6.007,9.132-18.019c5.385-12.059,10.232-23.685,14.541-34.877c1.943-4.894,3.044-7.586,3.301-8.079
		c0.469-0.796,1.511-0.948,3.126-0.457c1.663,0.445,2.892,1.229,3.688,2.354c0.796,1.007,1.194,1.885,1.194,2.634
		c0.046,0.772-0.258,2.821-0.914,6.146c-0.937,4.589-1.732,7.54-2.388,8.851c-0.305,0.585-0.738,1.838-1.3,3.758
		c-0.492,1.92-0.995,3.945-1.51,6.076c-0.492,2.154-1.077,4.473-1.756,6.954c-0.749,2.553-1.393,4.461-1.932,5.726
		c-0.515,1.405-0.925,2.669-1.229,3.793c-0.304,1.101-0.433,1.779-0.386,2.037c0.164,0.398,1.826-0.761,4.987-3.477
		c3.231-2.623,7.528-6.475,12.891-11.556c2.154-1.967,5.831-5.925,11.029-11.872c4.191-4.707,7.118-8.16,8.78-10.361
		c0.352-0.515,0.667-0.925,0.948-1.229c0.023-0.093,0.035-0.164,0.035-0.211c2.459-3.629,4.742-4.308,6.85-2.037
		c0.375,0.445,0.855,0.796,1.439,1.054c0.516,0.352,0.973,0.527,1.371,0.527c0.655,0,1.721,0.878,3.195,2.634
		c0.094,0.141,0.188,0.27,0.281,0.387c0.258,0.304,0.492,0.608,0.703,0.913c0.843,1.101,1.264,1.932,1.264,2.494
		c0,0.258,0.199,0.656,0.597,1.194c0.375,0.515,0.878,1.077,1.511,1.686c0.913,0.89,3.969,4.18,9.167,9.87
		c3.63,4.051,7.739,8.266,12.328,12.644c4.543,4.379,6.943,6.428,7.2,6.147c0.234-0.164-0.047-2.459-0.842-6.885
		c-0.75-4.496-1.125-7.657-1.125-9.483c0-0.89-0.233-2.342-0.702-4.355c-0.445-2.038-0.995-4.063-1.65-6.077
		c-1.429-4.589-2.188-7.984-2.283-10.186c-0.048-2.271,0.585-4.039,1.897-5.303c0.514-0.562,1.146-1.019,1.896-1.37
		c0.702-0.398,1.312-0.597,1.827-0.597c0.843,0,1.498,0.375,1.967,1.124c0.538,0.75,1.334,2.518,2.389,5.304
		c1.568,4.028,2.879,7.879,3.934,11.556c2.224,7.61,3.84,12.937,4.847,15.981c1.054,3.161,2.26,6.381,3.617,9.659
		c0.82,2.014,1.604,3.712,2.354,5.093c0.726,1.452,1.183,2.178,1.369,2.178c0.608-0.047,1.065-2.342,1.369-6.884
		c0.305-4.543,0.328-9.249,0.071-14.12c-0.212-4.262-0.258-6.86-0.141-7.797c0.141-0.96,0.69-1.943,1.65-2.95
		c0.608-0.468,1.241-0.925,1.896-1.37c0.703-0.398,1.276-0.597,1.722-0.597c0.772,0,1.334,0.375,1.686,1.124
		c0.351,0.796,0.679,2.505,0.983,5.127c0.188,1.687,0.737,4.285,1.65,7.798c0.656,2.225,1.007,4.602,1.054,7.13
		c0.117,2.412,0.071,7.376-0.14,14.893l-0.527,16.859l3.231,3.793c2.482,2.904,6.65,7.33,12.504,13.277l7.024,7.131l2.213,2.281
		v1.967c-0.327,0.445-0.667,0.914-1.019,1.406l-8.148,9.939c-0.351,0.445-0.726,0.889-1.124,1.334l-20.828,21.32
		c-0.281,0.258-0.55,0.516-0.808,0.773c-1.007-0.352-1.991-0.75-2.951-1.195c-1.826-0.725-3.723-1.568-5.689-2.527
		c-4.168-1.967-7.258-3.279-9.272-3.936c-1.967-0.654-4.45-1.158-7.446-1.51c-5.9-0.75-11.766-0.713-17.598,0.105
		c-5.806,0.797-10.442,2.225-13.908,4.285c-0.959,0.516-2.096,1.078-3.406,1.686c-1.265,0.539-2.354,0.938-3.268,1.195
		c-1.568,0.469-2.879,0.574-3.934,0.316c-1.006-0.305-3.5-1.521-7.481-3.654c-4.8-2.504-8.992-4.145-12.574-4.916
		c-3.606-0.75-7.809-0.902-12.609-0.457c-4.285,0.469-7.997,1.184-11.134,2.143c-3.208,1.006-6.709,2.586-10.502,4.742
		C100.354,206.859,98.34,207.926,96.678,208.744z M182.203,128.207c1.125,0,1.687-0.152,1.687-0.457s-1.663-2.704-4.988-7.2
		c-3.231-4.285-5.736-7.961-7.516-11.028c-0.702-1.171-1.558-2.459-2.564-3.864c-1.054-1.498-1.955-2.61-2.704-3.336
		c-0.726-0.844-1.487-1.804-2.283-2.881c-0.749-1.1-1.3-2.048-1.65-2.845c-0.727-1.663-1.335-2.494-1.826-2.494
		c-0.469-0.07-1.078,0.656-1.828,2.178c-0.748,1.475-1.885,3.09-3.406,4.847c-1.498,1.615-3.758,4.917-6.778,9.904
		c-1.335,2.318-2.951,4.707-4.847,7.165c-1.827,2.389-3.676,4.508-5.55,6.357c-3.957,4.004-5.689,6.007-5.198,6.007
		c0.515,0,2.4-0.258,5.655-0.773c4.097-0.608,7.176-0.503,9.237,0.316c2.061,0.89,4.94,3.325,8.641,7.306l6.427,6.884l3.231-4.355
		c0.211-0.351,1.826-1.639,4.847-3.863c2.974-2.271,4.461-3.582,4.461-3.934c0-0.469,0.937-1.253,2.81-2.354
		C179.955,128.733,181.337,128.207,182.203,128.207z M204.437,157.533c-2.061-1.566-4.004-3.301-5.83-5.197
		c-1.944-2.013-3.548-3.02-4.813-3.02c-0.515,0-1.405-0.212-2.669-0.633c-1.313-0.444-2.588-0.994-3.828-1.65l-4.566-2.354
		c0,0.211-0.854,0.89-2.564,2.037c-1.709,1.124-2.998,1.885-3.863,2.283c-1.007,0.445-1.709,0.901-2.107,1.37
		c-0.305,0.444-0.457,1.078-0.457,1.896c-0.047,1.639-0.619,3.525-1.721,5.656c-1.123,2.107-2.318,3.641-3.582,4.6
		c-0.891,0.609-1.851,1.02-2.881,1.23c-1.054,0.256-2.506,0.385-4.355,0.385c-2.178,0-3.641-0.129-4.39-0.385
		c-0.773-0.258-1.64-0.914-2.6-1.967c-2.061-2.131-3.091-5.211-3.091-9.238c0-0.844-0.27-1.569-0.808-2.177
		c-0.516-0.703-1.429-1.534-2.74-2.494c-1.663-1.077-2.775-1.732-3.337-1.967c-0.585-0.07-1.37,0.129-2.353,0.597
		c-0.585,0.305-1.569,0.632-2.95,0.983c-1.405,0.398-2.81,0.702-4.215,0.913c-1.405,0.258-2.74,0.609-4.004,1.054
		c-1.264,0.492-2.142,0.949-2.634,1.37c-1.077,1.006-2.447,1.909-4.109,2.706c-1.709,0.912-2.822,2.131-3.337,3.652
		c-0.585,1.592-0.726,3.91-0.421,6.953c0.305,3.021,1.078,5.973,2.318,8.852c1.218,2.857,2.505,4.719,3.864,5.584
		c1.124,0.844,4.051,1.922,8.781,3.232c5.947,1.568,10.081,2.986,12.398,4.25c2.365,1.217,4.882,3.23,7.551,6.041l4.777,5.164
		l1.439-1.828c0.914-1.146,1.593-2.082,2.037-2.809c0.563-0.844,2.096-2.072,4.602-3.689c2.482-1.615,4.624-2.703,6.428-3.266
		c2.318-0.748,6.311-1.533,11.977-2.354c2.318-0.303,4.531-0.703,6.639-1.193c2.061-0.398,3.418-0.773,4.074-1.125
		c2.389-1.264,4.507-3.535,6.357-6.813c1.826-3.279,3.033-7.037,3.617-11.275c0.164-1.498,0.141-2.506-0.07-3.02
		C206.72,159.373,205.865,158.588,204.437,157.533z"/>
</g>
</svg>
