<?xml version="1.0" encoding="utf-8"?>
<!-- Generator: Adobe Illustrator 21.1.0, SVG Export Plug-In . SVG Version: 6.00 Build 0)  -->
<svg version="1.1" id="Layer_1" xmlns="http://www.w3.org/2000/svg" xmlns:xlink="http://www.w3.org/1999/xlink" x="0px" y="0px"
	 viewBox="0 0 612 792" enable-background="new 0 0 612 792" xml:space="preserve">
<g>
	<path fill="#63656A" d="M209.1,451.1c-6.2,3.5-8.7,6.3-14.4,3.4c-2.1-1.1-2-2.2-7.2-3.6c-4.9-1.3-10.2,0-15.5,0
		c-2.1,0-3.8-1.2-6.2-1.3c-4.4-0.2-12.6-0.6-17.6,0.2c-15.8,2.5-36.3,9.6-47.7,10.7c-2.4,0.7-4.9,3.5-7.1,4.3
		c-9.7,3.2-21.8,4.6-30.2,8.4c-5.1,2.4-8.1,5-16,4.9c2.7-3.4,7.7-3.8,11.1-6.7c1.5-1.3,2.2-3.6,4-4.9c3.3-2.3,9.4-3.5,14.2-5.3
		c10.3-3.8,22.3-5.6,33.8-8.9c2.9-0.8,5.8-2,8.9-2.7c3.1-0.7,6.7-0.5,9.8-1.3c4.8-1.4,8.3-5.1,11.5-6.2c8.2-2.9,19.9-1.7,28.9-0.9
		c4.4,0.4,8,2.9,12,2.7c1.6-0.1,3.2-1.8,4-1.8c1.8,0.1,6,2.9,8.4,4c2.7,1.2,5.7,3.3,8.4,3.6C209.9,450.3,201.4,449.1,209.1,451.1z
		 M78.7,337.1c-1.4-0.7-3.9-0.3-4-2.2c1-0.9,2.5,0.8,3.6-0.4c-2.6-5.4-7-0.2-9.8,2.7C72.6,337.2,75.1,337.2,78.7,337.1z
		 M505.5,443.3c-2.8-0.1-5.7,1.1-8.9,1.3c-11.5,0.8-19.1-4.8-30.7-4c-10.3,0.7-21.3,2.1-32.4,1.3c-6.1-0.4-12.9-2.1-16.9-1.3
		c-2.1,0.4-4,2.9-6.7,3.1c-3.7,0.3-9-3.6-10.2,0.4c4.4,0.3,8.8,4.1,13.3,4c1.9-0.1,4-1.6,5.8-1.8c4.8-0.6,10.7,1.1,16.4,0.9
		c9.1-0.4,18.5-1.8,26.7-1.8c3.6,0,9.4,0,12.4,0.9c3.3,1,5.9,4,9.3,4.4c4.9,0.6,10.1-1.1,15.1-0.9c8.1,0.3,15.6,4.7,23.1,5.3
		c5.8,0.5,11-0.7,16.4,0.9c6.2,1.9,11.8,7.3,19.1,4.4c-3.8-6.8-14.2-8.8-23.5-11.1c-4.2-1-9-2.7-13.8-3.6
		C515.4,445.1,509.9,443.5,505.5,443.3z M513.5,388.3c-0.5,1.7-0.7,0.7-2.2,2.6c9.2,4.4,16.3,0.3,24-1.3c7-1.5,13.4-1.5,18.2-4.9
		C544.5,383.9,522.6,388.6,513.5,388.3z M533.2,378.9c0.5-0.1,3.5,1.9,3.3,2.2c-1.6-0.5-5.9-0.9-11.8,0.7c5.5,0,11.1,0.5,11.1,0.9
		c-1.2,0.5-17.3,2.8-17.9,3.8c2.8-0.3,23.3-3,26.6-2.9C544,381.7,537.3,378.4,533.2,378.9z M78.3,347.8c0.9-0.4,0.2-2.5,1.3-2.7
		c2.9,1.7,3.4,5.8,8.4,5.3c1.3,2.1,6.5,3.8,8,4.6c-4.3-3.1-6.1-9.7-10.3-12.1c-2.7-1.6-9.4-2.4-12.9-2.7c-6.6-0.4-13.7,2.7-21.8,2.2
		c1.4,2.7,3.1,4.9,6.2,5.3c2.4,0.3,4-1.2,6.2-1.3c2.6-0.1,4.9,1.6,7.6,0.4c1.2-0.5,1.1-1.7,2.7-2.2C74.9,346.2,75,348.5,78.3,347.8z
		 M96.1,355c0.1,0.1,0.3,0.2,0.4,0.3C96.5,355.3,96.3,355.2,96.1,355z"/>
	<path fill="#131313" d="M448.6,425.6c-0.1-1.6-2.1-2.2-1.8-4.1c2.8,0.6,6.2,1.5,8.6,1.2c1.7-0.7,4.4-2,5.2-3.5
		c0.6,0.8,0,2.2-0.1,3.8c-2,0.3-3.9-0.1-5.3,0.4C453.4,423.9,452,425.4,448.6,425.6z M542.4,377c2.1,5.4,10.8,4.3,16,5.9
		c-0.5,2.3-1.5,4.1-2.7,5.8c-7.2-0.4-11.7,1.9-17.3,3.1c-0.7,20.1-8.2,37-16,49.8c13.6,5.1,27.8,8.6,39.1,16
		c-0.1,2.2,0.2,4.7-0.4,6.2c-4,1-8.4,3-13.3,2.2c-2.6-0.4-4.3-2.7-6.7-3.6c-3.5-1.4-8.8-2.5-12.9-2.7c-4-0.2-7,1-10.2,0
		c-3.4-1-5.8-4.2-10.2-5.3c-7.3-1.8-15.5,1-23.5,0c-5.8-0.7-9.9-5.5-17.3-5.8c-7.7-0.2-15.7,0.4-23.5,0.9c-6.5,0.4-12,2.1-20,3.1
		c-3.3,0.4-6.9,1.4-11.5,0.4c6.4,5,20.9,2.4,27.5,7.1c-7.8-1.6-14.9,0.6-21.3,0c-6.8-0.7-12.8-5.4-20.4-4.4c6.6,5.7,18.6,6,27.5,9.3
		c-2.4,1.9-4.9,0.2-7.6,0c-4.5-0.4-9.6,0.7-14.2-0.4c-5.3-1.4-10.2-6.8-15.5-5.3c2.6,5.1,8.3,7.1,11.5,11.5
		c-5.1-0.4-9.3-6.2-15.5-6.7c-3.4-0.2-6.4,2.2-10.2,0.9c0.3-4.8,6-8.2,9.3-12c-2.3-0.4-6.1-0.2-8.2,0.6c0.1-2,1.1-4.3,2.4-6.6
		c-5.8,2.8-13.3,8.4-18.5,11.5c-15.9-1.9-24.2-11.3-30.7-16.8c2.2-4.6,1.7-7.6,1.2-12.3c-0.4-4.4-5-6.6-5.3-9.8
		c-0.5-4.5,3.9-5.7,4.9-10.2c6.3-4.1,13.4-8.1,18.7-14.2c2.7-3.1,3.7-10,7.1-12c5.3-3.2,15.6,1.1,17.3-7.1c17-7.1,26-11.5,45.2-23
		c-15.2,14.7-38,34-46.1,36.3c-2.1,0.6-5-0.6-6.7,0c-2.2,0.8-5.3,7-7.1,9.3c-2.8,3.7-4.5,7.1-6.7,9.8c-4.6,3-12.8,6-12,12
		c0.5,3.9,7.3,8.2,8.9,12c-2.3-4.6-0.6-16,4-17.3c-4.4,7.8,1.2,14.4,6.7,17.3c-2.9-6.4-2.7-16.6,0.9-22.2c1,1.9-0.3,5.3,0,8
		c0.5,4.6,4.8,12.7,9.3,12.4c-1.1-2.5-3.6-5.1-3.1-9.8c0.4-3.3,2.4-7.1,4-8.9c-3.2,9.1,1.9,16,9.3,17.3c-6.1-9.8-4.4-12.7-1.8-17.6
		c-1.3,7.5,6.5,13.2,14.2,12.6c3.3-0.3,33.2-21.7,33.3-21.8c17-10,52-22.3,71.9-23.6c5.4-0.4,8.7-1.9,12.2-3.6
		c6.4-3.2,11.6-3.9,18.8-5.1c4.8-0.8,11.8-0.9,16.2-2.3c8.7-2.7,22.7-15.4,31.9-19.8c7.7,0.9,17.3,1.7,26.8,5.8
		c-7.5,0.6-13.6,0.8-19.7,1.6C573.1,359.7,562,373,556,376C549.6,376.3,549.4,375.1,542.4,377z M492.6,400.7c1.3-0.1,3,0,4-0.1
		c0.2-0.8,0.5-1.8,0.5-2.7c-0.8-0.4-3.4-0.1-4.4-0.3C492.6,398.3,492.6,399.9,492.6,400.7z M490,409.6c1.5,0,2.8,0.3,4.3,0.3
		c0.7-1.5,1.6-3.4,1.6-5.3c-1.7-0.2-2.3,0-4.1-0.3C491.6,406.5,490.3,407.6,490,409.6z M489.1,411.8c-0.4,1.3-1.2,2.2-1.9,3.7l4.2,1
		c0.4-1.1,1.4-2,1.5-3.6C491.5,412.6,490.5,411.9,489.1,411.8z M442.9,426c-0.3,0.1-0.6,0.3-0.8,0.6c-0.4,0.6-0.1,0.6,0,1.7
		c1-0.2,2.1,0.6,3,0.4l4.1-1.2l2.5-1.4l-1.3,2.4c0.1,1.2-0.1,2.4,0,3.7c1.4,0.3,2.2,0.2,3.3,0.1l0.3-2.7l1.4,2.6l1.8-0.9l-0.2-2.6
		l2.4,2.7l2.3-1.2l-1.6-3.8c-0.1-0.3-1.9-1.3-2.1-1.6c0.3,0,2.5,0.4,2.8,0.3c1.3-0.4,2.4-1,2.9-1.7l-1.4-2.2c2.5-2.3,1-4.6-0.6-5.8
		c-7.9-2-16.4,0.5-21.1,3.9C440.2,422.7,440.9,425,442.9,426z M413.1,429.1c3.3,1.2,4.9,4.3,6.2,7.6c19.5,1.7,34.2,3.9,51.5-0.4
		l-0.7-1.5c0,0,0,0,0,0l-1.2-2.8c0.9,0.3,1.9,0.9,2.8,1.6c0.3,0.2,0.6,0.4,0.8,0.6c0.3,0.3,0.7,0.5,1,0.8c1-0.8,1.9-1.6,2.8-2.4
		l-4.3-4.4l5.9,2.7c0.9-1,1.8-2.1,2.6-3.3l-1.6-1.4c0,0,0,0,0,0l-1.6-1.5c0.6,0.1,1.4,0.4,2.2,0.8c0.3,0.1,0.6,0.3,0.8,0.4
		c0.3,0.2,0.6,0.3,0.9,0.5c0.6-1,1.2-2,1.8-3l-8.2-4.8l9.3,2.7c0.4-0.8,0.8-1.6,1.1-2.5c-0.2,0.9-0.5,1.8-0.8,2.6l3.7,1.1
		c0.6-1.1,1.4-2.1,1.6-3.5c-0.9-0.5-1.8-0.9-2.6-1.3c-0.3-0.2-0.6-0.3-0.9-0.4c-1.9-0.9-3.7-1.8-5.7-2.8l5.8,0.9
		c0.1-1.5,1.1-2.2,0.9-4l-6-1.8l4.9-0.3c0,0,0,0,0,0l1.3-0.1l0.9-4.8l-8.2-0.8l7-1.5c0,0,0,0,0,0l1.6-0.3v-4
		c-7.2,0.7-19.1,1-24.5,3.9c-0.6,0.3-0.9,0.9-1.3,1.4c0.3,0.1,0.6,0.1,0.9,0.1c0.1,0,0.3,0,0.4,0c0.2,0,0.4,0,0.7,0
		c0.2,0,0.3,0,0.5-0.1c0.2,0,0.4-0.1,0.6-0.1c0.2,0,0.5-0.1,0.8-0.1c1.5-0.3,3.1-0.5,4.6-0.4l-3.9,1.9v0l-3.7,1.8l12.1,1.7l-12,2.2
		l7.7,4.9l-3.1,0c0,0,0,0,0,0l-4.1,0c0.4,1.9,1.3,4.9-0.2,6c0.1,0.7,1,1.5,1.2,2.3c0.2,0.8-0.3,1.8-1.4,2.2c0,0-0.1,0-0.1,0
		c-0.1,0-0.3,0.1-0.4,0.1c-0.1,0-0.1,0-0.2,0c-0.2,0-0.4,0-0.6,0c0,0.3,0,0.5,0,0.7c0,0,0,0,0,0c0.1,1.6,0.7,2.3,0.4,4.3l-3.9,2.6
		l-1.4-1l-2.5,1.9l-1.4-0.7c-1.8,0.4-4.1,1.2-5.9,1.6c-0.1-1.1,0.1-2.2,0.1-3.3c0,0,0,0,0,0c0-0.1,0-0.3,0-0.4c0-0.2,0-0.3,0-0.5
		c0-0.4,0-0.8,0-1.3l-3.1,1.4l-4.2-0.4c-0.1,0.3-0.1,0.6-0.2,0.8c0,0,0,0.1,0,0.1c-0.1,0.2-0.1,0.5-0.2,0.7c0,0,0,0,0,0
		c-0.2,0.8-0.4,1.3-0.9,1.8l-0.7-1.7c0,0,0,0,0,0l-1.2-2.9l-2.6,5.2l-1.8-5.9l-1.3,1.2c0,0,0,0,0,0l-4,3.8c0.2-0.8,1.4-2.8,2.2-4.6
		c0,0,0,0,0,0c0,0,0,0,0,0c0.1-0.2,0.2-0.4,0.3-0.6c0-0.1,0-0.1,0.1-0.2c0.1-0.2,0.2-0.4,0.2-0.6c0,0,0,0,0,0
		c0.1-0.2,0.1-0.3,0.1-0.5c0,0,0-0.1,0-0.1c0-0.2,0.1-0.3,0-0.4l-1-0.9l-1.9,1.6c0,0,0,0,0,0l-7.5,6.3l7.7-10.2l-2.7,1.1
		c0,0,0,0,0,0l-4.3,1.8l4-5.6C421.9,422.6,415.5,425.8,413.1,429.1z M484.5,427.2c0.7-0.3,1.2-0.8,1.9-2.1l-2.5-1.5
		c-0.4,1.1-0.9,2.1-1.5,3.1C483.1,427,483.9,427.2,484.5,427.2z M481.5,428.3c-0.7,1.1-1.4,2.1-2.1,3.1l1.7,0.8
		c0.5-0.9,1.7-1.3,1.8-2.7L481.5,428.3z M477.5,433.6c-0.7,0.8-1.5,1.7-2.3,2.5c0.5,0.3,0.9,0.6,1.4,0.7c1-0.7,1.6-1,2-2.1
		L477.5,433.6z M405.6,438.9c2.3,4.4,10.3,0.2,9.8-4c-0.2-1.3-2.8-3.8-4.9-3.6C407.7,431.7,405,437.8,405.6,438.9z M520.2,446
		c-4.8-0.9-10.3-2.5-14.7-2.7c-2.8-0.1-5.7,1.1-8.9,1.3c-11.5,0.8-19.1-4.8-30.7-4c-10.3,0.7-21.3,2.1-32.4,1.3
		c-6.1-0.4-12.9-2.1-16.9-1.3c-2.1,0.4-4,2.9-6.7,3.1c-3.7,0.3-9-3.6-10.2,0.4c4.4,0.3,8.8,4.1,13.3,4c1.9-0.1,4-1.6,5.8-1.8
		c4.8-0.6,10.7,1.1,16.4,0.9c9.1-0.4,18.5-1.8,26.7-1.8c3.6,0,9.4,0,12.4,0.9c3.3,1,5.9,4,9.3,4.4c4.9,0.6,10.1-1.1,15.1-0.9
		c8.1,0.3,15.6,4.7,23.1,5.3c5.8,0.5,11-0.7,16.4,0.9c6.2,1.9,11.8,7.3,19.1,4.4c-3.8-6.8-14.2-8.8-23.5-11.1
		C529.8,448.5,525,446.9,520.2,446z M530.4,396.7c-2.2,0.5-4.2,0.1-6.1-0.1c-4.2-0.4-8-1.6-11.5-2.4c-2.3-0.5-4.5-0.6-6.9,0.3
		c5.7,1.1,12.1,1.6,16.4,4c-6.9-0.6-12.8-2.2-20.4-3.1c-2.4,18.2-10.5,30.6-18.7,43.1c5.9,4.4,16.4-0.7,22.7,0
		c2.3,0.2,5.9,2.2,7.7,1.8c1.6-1.4,3-3.6,3.5-5c-2.1-0.2-4.3-1.5-6.4-1.7c-0.8-1.8-1.7-4-3-5.7c-3.3,0.2-6.2-0.1-8.4-0.9
		c-0.9,1.6-0.7,4.3-2.2,5.3c-3.1-2-4.2,2-5.8,1.3c0.6-2.3,2.3-3.6,5.8-3.1c0.2-2.3,0.8-4.2,2.2-5.3c2.9,1.9,7.7,1.5,9.3-1.3
		c-1.2-1.3-2.8-2.2-3.6-4c-1-1.2,1.3-1.7,1.3-3.1c-1.1-1.1-3-1.4-3.1-3.6c1.7,0.9,3.7,1.3,4.4,3.1c-0.4,1.4-1.3,2.2-1.3,4
		c1.1,2.2,4,2.6,5.8,4c-0.4,1.5-2.3,1.5-2.7,3.1c0.6,1.7,2.1,3.1,2.6,4.4c2.7-0.4,4.5,0.2,7.2,0c2.9-5.5,5.2-10.9,7.6-18.7
		c-1.1-0.6-1.8-2.4-2.5-3.4c-0.4,1.4-0.7,6.3-1.9,6.8c-2.2-0.4-5.4,0-5.7-2c1.9,0.1,4.1,1.5,5.6,1c0.6-1.2,0.3-5.1,0.7-6.4
		c-1,0.2-1.4,1.9-2.4,1.8c-2.9-1.6-5.7-2.4-7.5-4.5c1.8-3.8-2.9-3.9-3.4-6.9c-2.7-0.7-3.4-1.3-5.6-2.4c2.4,0.3,4.4,1.1,6.4,1.5
		c0.9,0.1,2.9-0.5,3.7-0.3c2.7,0.9,4.6,1.5,7.3,2.8c-2.6,0-4.7-1.6-7.2-1.9c-0.8-0.1-2,0.1-3,0.6c2.4,1.3,4.1,3.3,4,7.1
		c1.6,0.9,4,1.9,6,2.4c0.8-0.3,2.4-3,3-3.5c1.3,2.1,0.4,4.5,3.5,4.7C529.3,405.7,530.7,402.2,530.4,396.7z M513.5,388.3
		c-0.5,1.7-0.7,0.7-2.2,2.6c9.2,4.4,16.3,0.3,24-1.3c7-1.5,13.4-1.5,18.2-4.9C544.5,383.9,522.6,388.6,513.5,388.3z M533.2,378.9
		c0.5-0.1,3.5,1.9,3.3,2.2c-1.6-0.5-5.9-0.9-11.8,0.7c5.5,0,11.1,0.5,11.1,0.9c-1.2,0.5-17.3,2.8-17.9,3.8c2.8-0.3,23.3-3,26.6-2.9
		C544,381.7,537.3,378.4,533.2,378.9z M455.8,424.4c-0.9,0.9-0.9,1.8-0.7,2.8c0.4-0.1,0.6-1.8,1.1-1.7c0.8,0.1,1,0.6,1.5,0.6
		C457.1,425.1,456.7,424.6,455.8,424.4z M412.8,436.9c-2,1.5-2.6,1.8-6.3,2.4C409,440.9,412.6,439.3,412.8,436.9z M135.7,409.2
		c1.2-1,3.5-2.6,4.3-4.4c-2.2-0.8-6.3,0.4-8.9,1.4c-1.8-1.8-3.6-5.2-7-5.4c-1.2,1.7,1.7,4.3,1.7,6C130.4,407,132,407.7,135.7,409.2z
		 M94.3,362.4c-3.6-0.7-8.9-4.4-12.4-2.2C86.3,360.3,90.3,363.3,94.3,362.4z M95.2,359.8c-5.2-0.6-10.8-5.4-15.5-3.6
		C85.1,356.6,90.6,361.4,95.2,359.8z M229.2,450c2.2,2.6,2.6,3.8,2.8,5.5c-3.5,1.2-5.4,3.1-7,4.8c2.6-0.4,8.9,0.2,10.5,1.3
		c1.4,2.8,1.3,3.6,0.1,4.9c-3.4,1.5-9.1,6.2-8.8,11.4c-13.2,3.4-24.6,8.6-37.3,12.4c9.6-7.7,22.6-12,30.2-21.8
		c-5.8,1.4-13.5,4.4-20,2.2c4.8-1.6,10.7-2,13.3-5.8c-4.8,0.5-9.9-2-14.7-2.2c-1.2-0.1-2.9,0.7-4,0.4c-4.4-1-7.4-4.8-11.1-6.2
		c-9.5-3.7-26.2-3.8-37.8-2.7c-9.9,1-24.5,5.7-35.5,8.4c-3.5,0.8-6.7,0.7-9.3,1.8c-1.5,0.6-2.9,2.2-4.4,2.7
		c-7.4,2.4-14.5,1.5-21.3,5.8c5.6,0,13.2-1.9,20-2.2c-9.2,3.1-18.9,5.6-28.4,7.6c-1.3,0.3-2.6,1.2-4,1.3c-1.1,0.1-2.8-0.6-4-0.4
		c-4.1,0.6-9.9,4.2-16,0.9c0.1-9.4,15.5-7.2,16.9-16.9c11.1-3.8,20.8-10,33.7-12c-21-14-42.9-67.3-19.5-100.3
		c-4.8-3.5-10.5,1.3-15.1,0.9c-3.2-0.3-12-5.7-11.1-11.1c4.5-2.9,11.3,0.3,16.9-3.1c3.6-2.2,5.1-7.1,9.8-8
		c-17.9-17.1-20-21.9-33.5-42.2c-4.4-3.3-17.5-3.6-28.3-6.1c7.3-2.5,18.1-4.6,30.4-3.4c16.6,26.7,41.3,43.7,68,64.3
		c28.3,24.2,49.7,53.8,86.1,63.8c2,2.2-9.7,11.8-7.6,12.5c7.1,2.2,13.1-2.3,18.2-4.4c-2.1,3.4-5.3,5.7-8.4,8
		c10.5,0.4,15.2-5,20-10.2c-2,6.6-6,9-10.7,13.3c10.6,1.4,15.6-6.6,21.3-11.5c-1.7,5.7-2.6,9.8-5.8,14.2c6.2-2.6,9.3-10.1,9.8-16.9
		c4.4,3.4,0,10.2-0.9,14.7c2-2.1,11.7-6.3,11.3-11.1c-0.2-2.2-7.6-8.3-8.5-12.3c-0.7-3.3,2.8-4.9,2.1-8.2c-0.7-3.3-16-12.2-20-10.7
		c-8.6-9.7-18.2-21.3-22.7-33c9,10.3,19.8,16.6,28.5,24.5c16.4-0.1,22.3,10.3,29.8,19.1c-4.5,10.5,6.2,14,9.8,20.8
		c-4.7,15.7-10.5,25-19.2,34.8C239.5,449,232.8,450,229.2,450z M180.9,439.3c-0.4-0.6-0.6-0.7-1.4-0.9c-2,0.3-5.1-0.6-5.8-2.5
		c2.7,1.3,4.8,1.4,4.9,1c0.4-1.8-6.1-7.1-7.5-7.8C168.5,435.3,174.9,440.5,180.9,439.3z M120.5,403.3c0.4,0.5,1.6,0.1,1.3,1.3
		c-4.2,2.5-1.1,3.9,1.7,4.7l3.1,0c-0.3,0.4-2.1,1.4-2.3,1.8c-1.7,3.3-3.6,6.3-3.7,10.2l2.4,1.5l2.9-3.7l-0.9,3.4l2.1,0.6l1.9-3
		l-0.2,3.4l2.9,1.4c2.2-2.8,2.9-5.9,2.9-10.6c0-0.6-2.6-3.7-2.6-4.4l4.4,2.4c2.2,0,3.7,0.2,5.2-1.2c0.5-1.8-0.9-1.7-0.9-3.1
		c1.1,0.1,2.1,0.1,2.7-0.4C145.2,393.7,124,390.5,120.5,403.3z M102.8,378.4c0.1,0,0.1,0.1,0.2,0.1c0.1,0.1,0.2,0.2,0.4,0.2
		c0.1,0.1,0.2,0.1,0.4,0.2c0.1,0.1,0.3,0.1,0.4,0.2c0.2,0.1,0.4,0.2,0.7,0.4c1,0.5,2,1.1,2.9,1.9c-0.8-0.1-1.9-0.3-2.9-0.5
		c-0.1,0-0.2-0.1-0.3-0.1c-0.2,0-0.3-0.1-0.5-0.1c-0.1,0-0.3-0.1-0.4-0.1c-0.1,0-0.2-0.1-0.4-0.1c-0.2,0-0.3-0.1-0.5-0.1
		c-0.1,0-0.1,0-0.2-0.1c-0.2-0.1-0.4-0.1-0.6-0.2c-0.2,1.1-0.2,2.6-0.2,3.9l4.2,1.6l-1.1,0.1c0,0,0,0,0,0l-3.3,0.3
		c-0.1,2.4,0.1,4.3,0.3,6.4c0.3,0.1,0.6,0.2,0.8,0.2c0.1,0,0.1,0,0.2,0c0.3,0.1,0.5,0.1,0.7,0.1c0.1,0,0.3,0,0.4,0.1
		c0.1,0,0.3,0,0.4,0.1c0.2,0,0.4,0.1,0.6,0.1c0.2,0.1,0.5,0.1,0.7,0.2c-0.2,0.1-0.4,0.1-0.6,0.2c-0.7,0.2-1.4,0.3-2.1,0.5
		c-0.1,0-0.1,0-0.2,0c-0.1,0-0.1,0-0.2,0c-0.2,0-0.5,0.1-0.7,0.1c-0.4,0.3-0.2,2.3-0.3,2.8c-0.6-0.5-0.9-2.1-1.2-2.7
		c-1.4,0-3.8,0.4-5,0.6c-0.2,2.5,1.1,5.2,1.1,7.6l9.9-0.5l-9.2,3.6c0.6,2.2,1.2,4.4,2.2,6.2l5.7-1.2c-0.5-1.4-0.9-2.9-1.3-4.3
		c0.6,1.4,1.3,2.8,1.9,4.2l4.6-1L109,410c0,0,0,0,0,0l-3,1.6c0.9,2,1.8,3.9,2.7,5.8c0.9-0.3,1.8-0.4,2.5-0.3c-0.4,0.7-1,1.3-1.7,1.9
		c1,2,2.1,3.9,3.3,5.7c0.7-0.3,1.4-0.7,2-0.9c-0.5,0.6-1,1.2-1.5,1.7c1.2,1.8,2.6,3.6,4.1,5.3c0.9-0.6,1.8-1.2,2.7-1.6
		c-0.5,1-1,1.9-1.6,2.7c1.6,1.6,3.4,3.2,5.4,4.6l2.3-1.6l-1.2,2.3c2.1,1.4,4.4,2.8,7,4.1c8.3-5.8,21.8-7.6,35.5-6.2
		c-1.8-3.9,0.3-5.6,2-7.7c-2.2-4.1-7.2-12.1-11.8-13.7l1.6,6.3l-2.5-2.1c0,0,0,0,0,0l-2.7-2.2c0,0.2,0,0.4,0,0.7c0,0.1,0,0.1,0,0.2
		c0,0.2,0,0.4,0.1,0.6c0,0.1,0,0.1,0,0.2c0,0.2,0.1,0.5,0.1,0.7c0,0.1,0,0.2,0,0.3c0,0.2,0.1,0.3,0.1,0.5c0,0.1,0,0.1,0,0.2
		c0,0,0,0,0,0c0.4,2.2,1.1,4.5,1.3,5.6c-1.4-1.4-2.3-3.2-3.5-4.8c0,0,0,0,0,0c-0.2-0.2-0.3-0.4-0.5-0.6c0,0,0,0,0,0
		c-0.2-0.2-0.4-0.4-0.7-0.7c-0.1-0.1-0.1-0.1-0.2-0.2c-0.3-0.2-0.5-0.4-0.8-0.6l0,2.7l0,0l0,3.6l-3.6-5.2l-0.4,2.2c0,0,0,0,0,0
		l-1.8,10.7c-0.9-2.5-0.6-7-0.9-10.8c0,0,0,0,0,0c0,0,0,0,0-0.1c0-0.4-0.1-0.8-0.1-1.2c0,0,0-0.1,0-0.1c0-0.3-0.1-0.6-0.2-0.9
		c0-0.1,0-0.2-0.1-0.3c-0.1-0.2-0.1-0.5-0.2-0.7c0-0.1-0.1-0.2-0.1-0.3c-0.1-0.3-0.2-0.6-0.4-0.8l-4.6,10.7l0.2-7.3h0l0.1-4.2
		l-1.1-0.3c0,0.5-0.1,1-0.1,1.5c0,0.3-0.1,0.6-0.1,0.9c0,0.2,0,0.3,0,0.5c-0.3,3.1-0.9,6.8-2.5,9.4l-5.6-1.6l-0.6-1.5
		c-1.1-0.1-2.4-0.7-3.4-0.6l-1.2,1.1l-4.3-2.8c0.1-4.1,1.7-6.8,3-10.2c0,0,0,0,0,0c0.2-0.4,0.4-0.9,0.5-1.3
		c-0.4-0.1-0.7-0.2-1.1-0.3c-0.1,0-0.2-0.1-0.3-0.1c-0.2-0.1-0.5-0.2-0.7-0.3c-1.6-0.7-2.9-1.8-3.7-3.4c0.2-0.5,0.6-0.9,1.2-1.3
		c0.1-0.1,0.2-0.2,0.4-0.3c0.1-0.1,0.2-0.2,0.4-0.3c0.1,0,0.1-0.1,0.2-0.1c0.1-0.1,0.2-0.2,0.3-0.3c0,0,0.1-0.1,0.1-0.1
		c0.1-0.1,0.2-0.3,0.3-0.5c-1.8-0.7,0-2.9,0.8-4.6l-9.1-0.6l5.4-1.3c0,0,0,0,0,0l5.4-1.3l-0.5-1.5l-4-1.8c0,0,0,0,0,0l-2.2-1
		l2.5,0.2c0,0,0,0,0,0l5.4,0.4l1-1.1l-4.9-3.2v0l-6-4l10.8,3.7c0.5-0.8,0.7-1.2,1.1-1.5l-3.7-3c0,0,0,0,0,0l-3.6-2.9l7.4,2.3
		c-6.3-5.2-12.6-12-20.5-15.6l-0.2,1.2l9.7,7.6l-10.2-5.3c-0.4,1-0.5,2.4-0.6,2.9l2.6,1.4c0,0,0,0,0,0l4.2,2.4l-4.4-1.4c0,0,0,0,0,0
		l-2.8-0.9c-0.1,0.3-0.5,1.7-0.3,2.8C102.5,378.2,102.7,378.3,102.8,378.4z M123.8,439l-1.1,2.5c1.4,1.3,2.2,1.6,4,2.6
		c0.7-0.8,2.1-0.7,2.9-1.4C127.5,441.7,125.7,440.4,123.8,439z M117.3,433.3c-0.6,1-0.9,1.6-1.3,2.9c1.1,1.2,1.8,2.7,3.6,3.1
		l2.3-1.6C120.2,436.3,118.8,434.9,117.3,433.3z M105,422.4c0.7,2.2,1.7,3.5,2.6,4.2c1.1,0,2.6-0.7,4.2-1.5
		c-1.1-1.8-2.2-3.7-3.1-5.6C107.4,420.5,106,421.4,105,422.4z M107.7,417.6c-0.9-1.9-1.7-3.8-2.3-5.7l-4.8,2.5
		c0.3,1.7,1.1,2.8,2,4.4C104.6,418.9,105.9,418.2,107.7,417.6z M109.7,429.2c1,2.1,2.1,2.9,3.3,3.4c0.9-0.1,1.6-0.6,2.9-1.2
		c-1.4-1.6-2.5-3.1-3.7-4.9C111.3,427.5,110.7,428.1,109.7,429.2z M96.1,373.5c0,0.6-0.5,1.4-0.4,2.1c1.2,0.7,2.5,0.5,3.9,1
		c0-0.7,0.1-1.4,0.1-2.1C98.4,374.1,97.1,374,96.1,373.5z M100.3,372.2c0-0.9,0.5-1.5,0.5-2.4l-3.8-1.1l-0.4,2.2
		C97.8,371.2,99,372,100.3,372.2z M95.2,378.4c-0.7,0.6-0.4,2.3-0.4,3.6c1.5,0.4,2.8,1.1,4.4,1.3c0-1.3,0-2.7,0-4
		C97.6,379.3,96.6,378.6,95.2,378.4z M95,392.6c1.3-0.2,3.1,0.1,5-0.3c-0.2-2.4-0.5-4-0.5-6.6c-0.9-0.5-3.2-0.1-4.8-0.3
		C94.4,388.4,94.7,391.3,95,392.6z M97.7,365.9l3.5,1.2l0.4-1.2c-0.3-0.3-3.1-1.3-3.6-1.4C98.1,364.9,97.8,365.4,97.7,365.9z
		 M68.5,337.1c4,0.1,6.6,0.1,10.2,0c-1.4-0.7-3.9-0.3-4-2.2c1-0.9,2.5,0.8,3.6-0.4C75.7,329.1,71.3,334.2,68.5,337.1z M73.9,344.7
		c1,1.5,1.2,3.9,4.4,3.1c0.9-0.4,0.2-2.5,1.3-2.7c2.9,1.7,3.4,5.8,8.4,5.3c1.3,2.1,6.5,3.8,8,4.6c0.1,0.1,0.3,0.2,0.4,0.3
		c0-0.1-0.2-0.2-0.4-0.3c-4.3-3.1-6.1-9.7-10.3-12.1c-2.7-1.6-9.4-2.4-12.9-2.7c-6.6-0.4-13.7,2.7-21.8,2.2c1.4,2.7,3.1,4.9,6.2,5.3
		c2.4,0.3,4-1.2,6.2-1.3c2.6-0.1,4.9,1.6,7.6,0.4C72.4,346.4,72.3,345.1,73.9,344.7z M103.9,448.2c4-1.1,9.7-2.5,15.2-3.8
		c-21.8-13.4-36-51.4-22.1-84.2c-5.4-2.3-10.3-6.9-17.8-5.8c-3.5,5.5-5.9,12.1-7.6,19.5c3,0.1,5-3.5,7.6-3.1c0.9,0.1,1.6,2,2.2,1.8
		c2.6-0.8,3.4-8.2,8-4.9c-4.1,0.4-6.2,4.6-7.1,6.7c-1.8,0.3-1.8-1.2-3.6-0.9c-3,1.5-4.8,4.1-7.6,5.8c0,8.9,0.3,14.5,3.6,26.5
		c2.6-3.3,4-8,5.7-12.3c3.5-0.8,4.7-3.8,3.1-7.6c1.4-1.4,2.4-5.6,4-5.3c-1.9,3.4-3,6.4-2.2,11.5c-2.6,1.1-5.1,2.3-4.9,6.2
		c1.9,2.1,4.7,0.9,7.1,0c-1.4,2.7-4.9,3.2-7.6,1.3c-1.9,1.6-1,6.4-1.3,8.4c-1,0.4-1,1.8-2.6,1.5c2.6,7.4,4.4,13.4,9.8,19.7
		c2.4,2.3,5.8,3.8,9.7,4.5c1.4-0.4,1.1-2.5,2.2-3.1c2.2,2.2,6.8,2.1,6.2,7.1c1.6-0.1,2.4-3.2,4.4-1.3c-0.6,0.7-2,0.7-2.7,1.3
		c-0.1,2.2,2.6,1.6,2.7,3.6c-3.2-1-6.5-2.1-6.2-6.7c-1.6-0.5-2.4-1.7-4.4-1.8c-0.8,0.7-0.6,2.4-1.3,3.1c-2.7,0.3-4.8-2.3-6.7-1.3
		C92.3,438.4,99.8,447.5,103.9,448.2z M209.1,451.1c-7.8-2,0.8-0.8-6.9-1.6c-2.8-0.3-5.7-2.3-8.4-3.6c-2.5-1.1-6.6-3.9-8.4-4
		c-0.8,0-2.4,1.7-4,1.8c-4,0.3-7.6-2.3-12-2.7c-9-0.8-20.7-2-28.9,0.9c-3.3,1.1-6.8,4.8-11.5,6.2c-3,0.9-6.6,0.6-9.8,1.3
		c-3.1,0.7-5.9,1.8-8.9,2.7c-11.5,3.3-23.5,5.1-33.8,8.9c-4.9,1.8-10.9,3.1-14.2,5.3c-1.8,1.2-2.5,3.6-4,4.9
		c-3.4,2.9-8.4,3.2-11.1,6.7c7.9,0.1,10.8-2.5,16-4.9c8.4-3.9,20.5-5.2,30.2-8.4c2.2-0.7,4.7-3.5,7.1-4.3
		c11.4-1.1,31.9-8.2,47.7-10.7c5-0.8,13.3-0.4,17.6-0.2c2.4,0.1,4.1,1.4,6.2,1.3c5.4,0,10.6-1.3,15.5,0c5.1,1.4,5.1,2.5,7.2,3.6
		C200.5,457.4,202.9,454.6,209.1,451.1z M127.1,412.1l1.8-1c0.5,0.1,1,1.9,1.4,1.9v-4C128.5,409,126.9,411.1,127.1,412.1z
		 M106,485.6c-7.8,2.2-15.2,7.1-23.3,7c4.8-2,9.7-3.9,13.8-6.7c-6.7,1.2-13.2,4.8-19.5,4.9c2.7-3.2,8.7-3.1,11.5-6.2
		c-4.9,0.3-9.9,2.8-13.8,2.7c2.9-2,8.7-3.4,10.2-5.3c-4.5,1.1-9.8,2.1-13.9,3.6c2.2-3.4,7.7-4.4,10.5-7.2c-4.9,0.9-10,3-15.6,4
		c-2.5,1-4,2.6-6.4,3.4c-6.3,2.2-13.1,1.8-18.7,5.4c4.1,2.2,9.2,0.1,13.3,0.9c1,0.2,2.1,1.3,3.1,1.3c1.4,0,2.2-1.1,3.6-0.9
		c5.2,0.9,9.2,5.4,14.2,6.7c-0.1,1-0.9,1.8,0,2.7c15.7-1.1,26.1-9,40.5-11.4c6.7-1.1,12.5-3.6,25.7-1.9
		C129.8,484.9,118.5,482.1,106,485.6z M545,470c-8.9-0.2-17.6-5.2-26.2-4.4c-2.7,0.2-5,1.8-7.6,1.8c-6,0.1-10.8-2.7-16.9-2.7
		c8.5,5.2,17.2,9.6,29.8,9.8c-12.8,5-25.6-5.1-35.5-4.4c6.5,2,12.1,5.1,17.8,8c-6.9,0.7-12.2-4.9-16.9-3.6c3.1,1.5,6.4,2.8,8.9,4.9
		c-7.3-0.4-13.8-1.1-18.7,3.6c9.2-2.3,16.5,0.7,24.9,0.4c5.1-0.1,10.9,0.9,15.1,0c1.4-0.3,2.6-1.7,4-2.2c3.8-1.6,10.7-3.8,13.8-4.4
		c0.9-0.2,2.2,0.5,3.1,0.4c7.2-0.4,13.4-5.5,20-7.1C555.3,468.8,550.5,470.1,545,470z M273.4,414.5c-4.6,11.1-7,14.1-12.9,23.8
		c8.7-3.1,10.1-8.1,14.4-12.5c0.8,1,5.5,5.7,7.6,5.3c0-5.2-5.8-9.2-5.1-13.2c0.8-4.6,4-8.7,6-13c-1.4-0.3-4.7-0.1-5.8,0.1
		c-3.3-8-7.7-13.3-16.5-14.2C271.5,397.6,272.1,411.9,273.4,414.5z M262.6,452.1c-2.5,3.4-5.4,6.2-6.3,11.2c9-9.2,16.7-12.3,27.6-16
		c-16-0.6-33.8,0.8-40.9,10.7c0.9,0.2,0.9,1.3,1.8,0.4C249.4,455.4,255.9,451.7,262.6,452.1z M307.1,414.9c-0.1,2.4,3.7,3.8,4.5,5.6
		c1.8,4,1,9.1,4,12.4c1.3-2.6,0.8-6.4,1.3-9.8c2.6-0.6,2.4,4.2,5.1,3.4c1.7-5.2-4.5-9.3-4.5-14.2c0-2.4,3.1-4.3,4.5-7.2
		c-0.6-5.7,4.3-10.4,5.5-13c-7.5,2.7-11.9,12.7-16.2,18.2C310.2,411.7,307.2,413,307.1,414.9z M304.3,419c-0.4-4-1.6-10.1-0.7-14.7
		c0.7-3.8,3.2-6.2,5.2-9.7c-8.6,4-8.9,9.5-10.2,16.4C301,413.1,301,417.6,304.3,419z M328.1,447.8c-1.3,0.1-5.8,1.4-7.8,0.9
		c-2.7-0.4-3.7-3.8-6.7-4.4c-5.6-1.3-13,2.2-16.4,4.4c17.8-2.5,30.5,12.7,45.7,11.4C337.2,456.8,330.1,454.8,328.1,447.8z
		 M285.6,456.7c-10.4-0.5-18.5,1.4-23.5,6.2c0.4,1.6,3.6,0.5,4,2.2c-4.8,3.2-9.1,6.9-11.5,12.4c6.6-4.5,13.7-8.5,22.2-11.1
		c0.2-1.6-1.6-1.1-1.3-2.7C277.7,460.3,282.4,459.2,285.6,456.7z M283.4,394.6c2,3.5,4.5,5.9,5.2,9.7c0.9,4.6-0.3,10.7-0.7,14.7
		c3.2-1.4,3.3-5.9,5.8-8C292.3,404,292,398.6,283.4,394.6z M331.4,467.8c-1.4-0.6-15.8-9.8-28.3-7.5c-0.4,0.4-0.7,0.4-0.7,1.2
		c15.8,0.3,22,11.8,33.4,14.3C334.6,472.9,329.6,472.4,331.4,467.8z"/>
	<path fill="#D41F2D" d="M118.8,404.6c-0.1,0.1-0.2,0.2-0.3,0.3C118.7,404.8,118.7,404.7,118.8,404.6z M119,404.4
		c0.1-0.1,0.2-0.3,0.3-0.5C119.2,404.1,119.1,404.3,119,404.4z M102.8,378.4c-0.2-0.1-0.3-0.2-0.4-0.3
		C102.5,378.2,102.7,378.3,102.8,378.4z M103.5,392.8c-0.2,0-0.5-0.1-0.7-0.1C103,392.7,103.2,392.7,103.5,392.8z M102.6,392.6
		c-0.3-0.1-0.5-0.1-0.8-0.2C102,392.5,102.3,392.5,102.6,392.6z M102.7,380.4c-0.1,0-0.1,0-0.2-0.1
		C102.6,380.4,102.6,380.4,102.7,380.4z M103.9,392.8c0.1,0,0.3,0,0.4,0.1C104.1,392.9,104,392.9,103.9,392.8z M102.6,394
		c0.1,0,0.1,0,0.2,0C102.7,394,102.7,394,102.6,394z M154,416.3c0-0.2,0-0.5,0-0.7C153.9,415.9,153.9,416.1,154,416.3z M101.8,394.2
		c0.2,0,0.4-0.1,0.7-0.1C102.2,394.1,102,394.1,101.8,394.2z M104.8,379.6c1,0.5,2,1.1,2.9,1.9c-0.8-0.1-1.9-0.3-2.9-0.5
		c0.1,0,0.1,0,0.2,0c-0.1,1.4-0.2,2.8-0.2,4.2l-3.1-1.2l4.2,1.6l-1.1,0.1c-0.1,2.5,0,4.9,0.2,7.3c0,0-0.1,0-0.1,0
		c0.2,0.1,0.5,0.1,0.7,0.2c-0.2,0.1-0.4,0.1-0.6,0.2c0,0,0,0,0.1,0c0.5,5.8,1.8,11.2,3.9,16.3l-3.4,0.7l4.6-1L109,410
		c4.1,9.9,11.2,18.6,21.5,26.5c10.2-0.9,18.3-6.2,33.8-4c0.4-1.3,1.1-2.2,2-3c0.3-0.2-3.7-5.4-7.2-9.9l-1.6-6l1.6,6.3l-2.5-2.1
		c-0.8,0.4-1.6,0.8-2.3,1.1c0.4,2.2,1.1,4.5,1.3,5.6c-1.4-1.4-2.3-3.2-3.5-4.8c-0.7,0.3-1.5,0.5-2.2,0.6l0,3.6l-3.6-5.2l1.4,2
		c-0.6,0.1-1.2,0.1-1.8,0.1l-1.8,10.7c-0.9-2.5-0.6-7-0.9-10.8c-0.9-0.1-1.9-0.2-2.8-0.4l1.7-4l-4.6,10.7l0.2-7.3
		c-0.5-0.1-0.9-0.3-1.4-0.4c0-0.4,0.1-0.8,0.1-1.1c-0.3,3.1-0.9,6.8-2.5,9.4l-5.6-1.6l-0.6-1.5c-1.1-0.1-2.4-0.7-3.4-0.6l-1.2,1.1
		l-4.3-2.8c0.1-4.1,1.7-6.8,3-10.2c-0.7-0.7-1.3-1.4-1.8-2.1c0.1,0,0.1,0,0.2,0.1c-1.6-0.7-2.9-1.8-3.7-3.4c0.2-0.5,0.6-0.9,1.2-1.3
		c-0.1,0.1-0.2,0.1-0.2,0.2c-0.9-2.2-1.2-4.4-1.2-6.6l3.8,0.2l-9.1-0.6l5.4-1.3c0.2-1.5,0.5-3,0.9-4.6l-2.2-1l2.5,0.2
		c0.4-1.3,0.9-2.6,1.5-3.9l-6-4l10.8,3.7l-4-1.4c0.5-1,0.9-2,1.4-3.1l-3.6-2.9l7.4,2.3l-4.2-1.3c-2.4-2-6.5-4.9-9.7-6.9l2.9,1.5
		l-10.2-5.3l2.6,1.4c-0.1,0-0.2,0-0.2,0.1c-0.2,1-0.3,1.9-0.5,2.9l4.2,2.4l-4.4-1.4c-0.2,1.2-0.3,2.4-0.4,3.5
		C105,379.6,104.9,379.6,104.8,379.6z M103.1,378.6c0.1,0.1,0.2,0.2,0.4,0.2C103.3,378.7,103.2,378.6,103.1,378.6z M104.5,380.9
		c-0.2,0-0.3-0.1-0.5-0.1C104.1,380.8,104.3,380.9,104.5,380.9z M103.2,380.6c0.1,0,0.2,0.1,0.4,0.1
		C103.4,380.6,103.3,380.6,103.2,380.6z M103.8,379c0.1,0.1,0.3,0.1,0.4,0.2C104,379.1,103.9,379.1,103.8,379z M154,416.5
		c0,0.2,0,0.4,0.1,0.6C154,416.9,154,416.7,154,416.5z M142.7,418.3c-0.1-0.2-0.1-0.5-0.2-0.7C142.6,417.8,142.6,418.1,142.7,418.3z
		 M142.4,417.3c-0.1-0.3-0.2-0.6-0.4-0.8C142.2,416.8,142.3,417.1,142.4,417.3z M142.8,418.6c0.1,0.3,0.1,0.6,0.2,0.9
		C142.9,419.2,142.8,418.9,142.8,418.6z M136.3,417.9c0-0.3,0.1-0.6,0.1-0.9C136.4,417.3,136.4,417.6,136.3,417.9z M120.9,410.5
		c0.1,0,0.2,0.1,0.3,0.1C121.1,410.6,121,410.5,120.9,410.5z M118.4,405c-0.1,0.1-0.2,0.2-0.4,0.3
		C118.1,405.2,118.3,405.1,118.4,405z M154.1,418c0-0.2-0.1-0.5-0.1-0.7C154.1,417.5,154.1,417.8,154.1,418z M154.3,418.8
		c0-0.2-0.1-0.3-0.1-0.5C154.2,418.5,154.3,418.6,154.3,418.8z M151.6,419.3C151.6,419.3,151.6,419.3,151.6,419.3
		C151.6,419.3,151.6,419.3,151.6,419.3z M150.9,418.6c-0.1-0.1-0.1-0.1-0.2-0.2C150.8,418.5,150.8,418.5,150.9,418.6z M143,419.7
		c0.1,0.4,0.1,0.8,0.1,1.2C143.1,420.5,143,420.1,143,419.7z M490,418.9c-0.9-0.5-1.8-0.9-2.6-1.3C488.3,418,489.2,418.4,490,418.9z
		 M440.9,431.4c0,0,0-0.1,0-0.1C440.9,431.3,440.9,431.3,440.9,431.4z M462.9,425.6c0.2,0,0.4,0,0.6,0
		C463.3,425.6,463.1,425.6,462.9,425.6z M466.4,402.8c-0.2,0-0.4,0.1-0.6,0.1C466,402.9,466.2,402.9,466.4,402.8z M448.4,430.7
		c0,0.2,0,0.3,0,0.5C448.4,431,448.4,430.9,448.4,430.7z M464.1,425.4c-0.1,0-0.3,0.1-0.4,0.1C463.8,425.5,464,425.4,464.1,425.4z
		 M464.6,403c0.2,0,0.4,0,0.7,0C465,403,464.8,403,464.6,403z M473.7,435c-0.3-0.3-0.7-0.5-1-0.8C473,434.5,473.3,434.7,473.7,435z
		 M481.5,426.3c-0.3-0.1-0.6-0.3-0.9-0.5C480.9,426,481.2,426.2,481.5,426.3z M463.3,402.9c0.3,0.1,0.6,0.1,0.9,0.1
		C463.9,403,463.6,403,463.3,402.9z M417.4,430c0.6,0.9,1.1,1.8,1.7,2.7c0.5,1,1,1.9,1.5,2.9c16.4,1.4,30.8,2.7,49.7-0.9l-1.2-2.8
		c0.9,0.3,1.9,0.9,2.8,1.6c0,0-0.1-0.1-0.1-0.1c1-0.9,2-1.8,3-2.7l1.7,1.8l-4.3-4.4l5.9,2.7l-2.3-1c0.2-0.1,0.3-0.3,0.5-0.4
		c0.9-1.1,1.9-2.2,2.8-3.2l-1.6-1.5c0.6,0.1,1.4,0.4,2.2,0.8c0,0,0,0,0,0c0.7-0.9,1.5-1.7,2.2-2.6c0-0.1,0.1-0.2,0.1-0.3l1.2,0.7
		l-8.2-4.8l9.3,2.7l-1.5-0.4c0.6-1.5,1.3-2.9,1.9-4.4c0.6,0.3,1.1,0.5,1.7,0.8c-1.9-0.9-3.7-1.8-5.7-2.8l5.8,0.9l-1.5-0.2
		c0.3-1.4,0.6-2.8,0.9-4.2l1.5,0.4l-6-1.8l4.9-0.3c0.1-0.5,0.2-1,0.3-1.5c0.1-1.2,0.3-2.4,0.4-3.6l1.4,0.1l-8.2-0.8l7-1.5
		c0.1-0.5,0.1-1,0.2-1.5c-1.6,0.1-12.6,0-19.9,2.2c-0.2,0-0.4,0.1-0.6,0.1c1.5-0.3,3.1-0.5,4.6-0.4l-3.9,1.9c0,0.8,0.1,1.6,0.1,2.4
		l-3.8-0.6l12.1,1.7l-12,2.2l4-0.7c0.1,1.2,0.3,2.3,0.4,3.5l-4.3-2.8l7.7,4.9l-3.1,0c-0.7,4.4-1.4,5.8-3.1,8.3c0,0,0,0,0,0
		c0.2,0.8-0.3,1.8-1.4,2.2c0.2-0.1,0.3-0.1,0.4-0.2c-0.1,0.2-0.2,0.4-0.3,0.6c-0.5,0.2-1,0.4-1.5,0.6c0.1,1.6,0.7,2.3,0.4,4.3
		l-3.9,2.6l-1.4-1l-2.5,1.9l-1.4-0.7c-1.8,0.4-4.1,1.2-5.9,1.6c-0.1-1.1,0.1-2.2,0.1-3.3c-2.5,0.1-5.1,0.3-7.6,0.4
		c-0.2,0.8-0.4,1.3-0.9,1.8l-0.7-1.7c-1.2-0.1-1.4,0-2.5-0.4l1.2-2.4l-2.6,5.2l-1.8-5.9l0.6,2c-0.6-0.3-1.3-0.5-1.9-0.8l-4,3.8
		c0.2-0.8,1.4-2.8,2.2-4.6c-1-0.4-1.3-1-2-1.8l-7.5,6.3l7.7-10.2l-1.7,2.2c-0.3-0.4-0.7-0.7-1-1.1l-4.3,1.8l4-5.6l-4,5.5
		C420,427.4,418.6,428.2,417.4,430z M431.1,427.5c0.1-0.2,0.1-0.3,0.1-0.5C431.2,427.2,431.1,427.3,431.1,427.5z M431.3,426.5
		c0,0.1,0,0.3,0,0.4C431.3,426.7,431.3,426.6,431.3,426.5z M430.5,428.9c0.1-0.2,0.2-0.4,0.3-0.6
		C430.7,428.5,430.6,428.7,430.5,428.9z M430.8,428.1c0.1-0.2,0.2-0.4,0.2-0.6C431,427.7,430.9,427.9,430.8,428.1z"/>
	<path fill="#6C1732" d="M171.1,429.1c1.4,0.7,7.9,6,7.5,7.8c-0.1,0.4-2.3,0.3-4.9-1c0.7,2,3.9,2.9,5.8,2.5c0.8,0.3,1,0.3,1.4,0.9
		C174.9,440.5,168.5,435.3,171.1,429.1z M405.6,438.9c-0.6-1,2.1-7.2,4.9-7.6c2.1-0.3,4.7,2.3,4.9,3.6
		C415.9,439.1,407.9,443.3,405.6,438.9z M406.4,439.3c2.5,1.6,6.2,0,6.3-2.4C410.8,438.4,410.2,438.7,406.4,439.3z M156.6,417.9
		l-2.7-2.2c0,0.2,0,0.4,0,0.7c0,0.1,0,0.1,0,0.2c0,0.2,0,0.4,0.1,0.6c0,0.1,0,0.1,0,0.2c0,0.2,0.1,0.5,0.1,0.7c0,0.1,0,0.2,0,0.3
		c0,0.2,0.1,0.3,0.1,0.5c0,0.1,0,0.1,0,0.2c0,0,0,0,0,0C155.1,418.7,155.8,418.3,156.6,417.9C156.6,417.9,156.6,417.9,156.6,417.9z
		 M152.1,419.9c-0.2-0.2-0.3-0.4-0.5-0.6c0,0,0,0,0,0c-0.2-0.2-0.4-0.4-0.7-0.7c-0.1-0.1-0.1-0.1-0.2-0.2c-0.3-0.2-0.5-0.4-0.8-0.6
		l0,2.7l0,0C150.6,420.3,151.3,420.1,152.1,419.9C152.1,419.9,152.1,419.9,152.1,419.9z M116.3,397.5l5.4-1.3l-0.5-1.5l-4-1.8
		c0,0,0,0,0,0C116.8,394.5,116.5,396,116.3,397.5C116.3,397.5,116.3,397.5,116.3,397.5z M117.5,392.2l5.4,0.4l1-1.1l-4.9-3.2v0
		C118.4,389.5,117.9,390.9,117.5,392.2C117.5,392.2,117.5,392.2,117.5,392.2z M103.4,378.8c0.1,0.1,0.2,0.1,0.4,0.2
		c0.1,0.1,0.3,0.1,0.4,0.2c0.2,0.1,0.4,0.2,0.7,0.4c0.1,0,0.1,0.1,0.2,0.1c0.1-1.2,0.2-2.3,0.4-3.5c0,0,0,0,0,0l-2.8-0.9
		c-0.1,0.3-0.5,1.7-0.3,2.8c0.1,0.1,0.3,0.2,0.4,0.3c0.1,0,0.1,0.1,0.2,0.1C103.2,378.6,103.3,378.7,103.4,378.8z M122.7,441.5
		c1.4,1.3,2.2,1.6,4,2.6c0.7-0.8,2.1-0.7,2.9-1.4c-2.2-1-3.9-2.3-5.9-3.7L122.7,441.5z M116.1,436.2c1.1,1.2,1.8,2.7,3.6,3.1
		l2.3-1.6c-1.7-1.4-3.1-2.8-4.5-4.4C116.7,434.3,116.4,435,116.1,436.2z M120.7,381.6l4.2,1.3c-6.3-5.2-12.6-12-20.5-15.6l-0.2,1.2
		l9.7,7.6l-2.9-1.5C114.2,376.6,118.3,379.5,120.7,381.6z M123.8,387.9c0.5-0.8,0.7-1.2,1.1-1.5l-3.7-3c0,0,0,0,0,0
		c-0.5,1-1,2.1-1.4,3.1L123.8,387.9z M107.6,426.6c1.1,0,2.6-0.7,4.2-1.5c-1.1-1.8-2.2-3.7-3.1-5.6c-1.2,0.9-2.6,1.8-3.6,2.8
		C105.7,424.6,106.6,425.9,107.6,426.6z M94.7,382c1.5,0.4,2.8,1.1,4.4,1.3c0-1.3,0-2.7,0-4c-1.6,0-2.6-0.7-4-0.9
		C94.5,379.1,94.8,380.7,94.7,382z M101.7,366c-0.3-0.3-3.1-1.3-3.6-1.4c0,0.3-0.3,0.8-0.3,1.3l3.5,1.2L101.7,366z M100.5,414.4
		c0.3,1.7,1.1,2.8,2,4.4c2,0,3.3-0.7,5.1-1.2c-0.9-1.9-1.7-3.8-2.3-5.7L100.5,414.4z M95,392.6c1.3-0.2,3.1,0.1,5-0.3
		c-0.2-2.4-0.5-4-0.5-6.6c-0.9-0.5-3.2-0.1-4.8-0.3C94.4,388.4,94.7,391.3,95,392.6z M100.8,369.8l-3.8-1.1l-0.4,2.2
		c1.3,0.3,2.5,1.1,3.8,1.3C100.3,371.3,100.8,370.7,100.8,369.8z M95.7,375.6c1.2,0.7,2.5,0.5,3.9,1c0-0.7,0.1-1.4,0.1-2.1
		c-1.3-0.4-2.6-0.6-3.7-1C96,374.1,95.6,374.9,95.7,375.6z M113,432.6c0.9-0.1,1.6-0.6,2.9-1.2c-1.4-1.6-2.5-3.1-3.7-4.9
		c-0.9,0.9-1.5,1.5-2.5,2.6C110.7,431.3,111.9,432.1,113,432.6z M106.3,372.2l-2.6-1.4c-0.4,1-0.5,2.4-0.6,2.9l2.6,1.4c0,0,0,0,0,0
		c0.1-0.9,0.3-1.9,0.5-2.9C106.1,372.2,106.1,372.2,106.3,372.2z M104.7,385.7C104.7,385.7,104.7,385.7,104.7,385.7l-3.3,0.3
		c-0.1,2.4,0.1,4.3,0.3,6.4c0.3,0.1,0.6,0.2,0.8,0.2c0.1,0,0.1,0,0.2,0c0.3,0.1,0.5,0.1,0.7,0.1c0.1,0,0.3,0,0.4,0.1
		c0.1,0,0.3,0,0.4,0.1c0.2,0,0.4,0.1,0.6,0.1c0,0,0.1,0,0.1,0C104.7,390.7,104.7,388.2,104.7,385.7z M117.4,405.8
		c0.1-0.1,0.1-0.1,0.2-0.2c0.1-0.1,0.2-0.2,0.4-0.3c0.1-0.1,0.2-0.2,0.4-0.3c0.1,0,0.1-0.1,0.2-0.1c0.1-0.1,0.2-0.2,0.3-0.3
		c0,0,0.1-0.1,0.1-0.1c0.1-0.1,0.2-0.3,0.3-0.5c-1.8-0.7,0-2.9,0.8-4.6l-3.8-0.2C116.2,401.4,116.6,403.6,117.4,405.8z M104.9,381
		c-0.1,0-0.1,0-0.2,0c-0.1,0-0.2-0.1-0.3-0.1c-0.2,0-0.3-0.1-0.5-0.1c-0.1,0-0.3-0.1-0.4-0.1c-0.1,0-0.2-0.1-0.4-0.1
		c-0.2,0-0.3-0.1-0.5-0.1c-0.1,0-0.1,0-0.2-0.1c-0.2-0.1-0.4-0.1-0.6-0.2c-0.2,1.1-0.2,2.6-0.2,3.9l3.1,1.2
		C104.8,383.8,104.8,382.4,104.9,381z M137.6,419.9L137.6,419.9l0.1-4.2l-1.1-0.3c0,0.5-0.1,1-0.1,1.5c0,0.3-0.1,0.6-0.1,0.9
		c0,0.2,0,0.3,0,0.5c0,0.4-0.1,0.8-0.1,1.1C136.7,419.7,137.1,419.8,137.6,419.9z M143.1,421C143.1,421,143.1,421,143.1,421
		C143.1,421,143.1,420.9,143.1,421c0-0.5-0.1-0.9-0.1-1.3c0,0,0-0.1,0-0.1c0-0.3-0.1-0.6-0.2-0.9c0-0.1,0-0.2-0.1-0.3
		c-0.1-0.2-0.1-0.5-0.2-0.7c0-0.1-0.1-0.2-0.1-0.3c-0.1-0.3-0.2-0.6-0.4-0.8l-1.7,4C141.2,420.8,142.2,420.9,143.1,421z
		 M146.3,418.9l-0.4,2.2c0,0,0,0,0,0c0.6,0,1.2-0.1,1.8-0.1L146.3,418.9z M105,393.5C105,393.5,104.9,393.5,105,393.5
		c-0.7,0.2-1.5,0.4-2.2,0.5c-0.1,0-0.1,0-0.2,0c-0.1,0-0.1,0-0.2,0c-0.2,0-0.5,0.1-0.7,0.1c-0.4,0.3-0.2,2.3-0.3,2.8
		c-0.6-0.5-0.9-2.1-1.2-2.7c-1.4,0-3.8,0.4-5,0.6c-0.2,2.5,1.1,5.2,1.1,7.6l9.9-0.5l-9.2,3.6c0.6,2.2,1.2,4.4,2.2,6.2l5.7-1.2
		c-0.5-1.4-0.9-2.9-1.3-4.3c0.6,1.4,1.3,2.8,1.9,4.2l3.4-0.7C106.8,404.6,105.5,399.2,105,393.5z M166.2,429.6c-0.9,0.8-1.6,1.7-2,3
		c-15.5-2.2-23.6,3.1-33.8,4c-10.3-7.9-17.4-16.6-21.5-26.5c0,0,0,0,0,0l-3,1.6c0.9,2,1.8,3.9,2.7,5.8c0.9-0.3,1.8-0.4,2.5-0.3
		c-0.4,0.7-1,1.3-1.7,1.9c1,2,2.1,3.9,3.3,5.7c0.7-0.3,1.4-0.7,2-0.9c-0.5,0.6-1,1.2-1.5,1.7c1.2,1.8,2.6,3.6,4.1,5.3
		c0.9-0.6,1.8-1.2,2.7-1.6c-0.5,1-1,1.9-1.6,2.7c1.6,1.6,3.4,3.2,5.4,4.6l2.3-1.6l-1.2,2.3c2.1,1.4,4.4,2.8,7,4.1
		c8.3-5.8,21.8-7.6,35.5-6.2c-1.8-3.9,0.3-5.6,2-7.7c-2.2-4.1-7.2-12.1-11.8-13.7l1.6,6C162.5,424.2,166.5,429.4,166.2,429.6z
		 M121.8,412.3C121.8,412.3,121.8,412.3,121.8,412.3c0.2-0.4,0.4-0.9,0.5-1.3c-0.4-0.1-0.7-0.2-1.1-0.3c-0.1,0-0.2-0.1-0.3-0.1
		c-0.2-0.1-0.5-0.2-0.7-0.3c-0.1,0-0.1,0-0.2-0.1C120.5,410.8,121.1,411.5,121.8,412.3z M448.4,431.6c0-0.1,0-0.3,0-0.4
		c0-0.2,0-0.3,0-0.5c0-0.4,0-0.8,0-1.3l-3.1,1.4l-4.2-0.4c-0.1,0.3-0.1,0.6-0.2,0.8c0,0,0,0.1,0,0.1c-0.1,0.2-0.1,0.5-0.2,0.7
		c0,0,0,0,0,0C443.3,431.9,445.8,431.7,448.4,431.6C448.4,431.6,448.4,431.6,448.4,431.6z M430.4,428.9
		C430.4,428.9,430.4,428.9,430.4,428.9C430.4,428.9,430.5,428.9,430.4,428.9c0.1-0.2,0.2-0.5,0.3-0.7c0-0.1,0-0.1,0.1-0.2
		c0.1-0.2,0.2-0.4,0.2-0.6c0,0,0,0,0,0c0.1-0.2,0.1-0.3,0.1-0.5c0,0,0-0.1,0-0.1c0-0.2,0.1-0.3,0-0.4l-1-0.9l-1.9,1.6c0,0,0,0,0,0
		C429.1,427.9,429.5,428.5,430.4,428.9z M475.2,436.1c0.5,0.3,0.9,0.6,1.4,0.7c1-0.7,1.6-1,2-2.1l-1.1-1.1
		C476.8,434.5,476,435.3,475.2,436.1z M433.5,428.5l-1.3,1.2c0,0,0,0,0,0c0.6,0.3,1.3,0.5,1.9,0.8L433.5,428.5z M486.4,425.1
		l-2.5-1.5c-0.4,1.1-0.9,2.1-1.5,3.1c0.7,0.3,1.5,0.5,2.1,0.5C485.1,426.9,485.7,426.4,486.4,425.1z M428.6,423.2l-2.7,1.1
		c0,0,0,0,0,0c0.3,0.4,0.7,0.7,1,1.1L428.6,423.2z M487.2,415.4l4.2,1c0.4-1.1,1.4-2,1.5-3.6c-1.4-0.2-2.4-0.9-3.8-1
		C488.6,413.1,487.8,414,487.2,415.4z M419.3,436.7c19.5,1.7,34.2,3.9,51.5-0.4l-0.7-1.5c0,0,0,0,0,0c-18.9,3.5-33.3,2.3-49.7,0.9
		c-0.5-1-1-1.9-1.5-2.9c-0.6-0.9-1.1-1.8-1.7-2.7c1.3-1.7,2.6-2.5,4.3-3.8l4-5.5c-3.8,2-10.1,5.2-12.5,8.5
		C416.5,430.4,418,433.4,419.3,436.7z M479.4,431.4l1.7,0.8c0.5-0.9,1.7-1.3,1.8-2.7l-1.4-1.2C480.8,429.4,480.1,430.4,479.4,431.4z
		 M482,422.8c-0.7,0.9-1.5,1.7-2.2,2.6c0,0,0,0,0,0c0.3,0.1,0.6,0.3,0.8,0.4c0.3,0.2,0.6,0.3,0.9,0.5c0.6-1,1.2-2,1.8-3l-1.2-0.7
		C482.1,422.7,482,422.8,482,422.8z M485.2,415l1.5,0.2c0.1-1.5,1.1-2.2,0.9-4l-1.5-0.4C485.8,412.2,485.5,413.6,485.2,415z
		 M482.9,420.7l1.5,0.4c0.4-0.8,0.8-1.6,1.1-2.5c-0.2,0.9-0.5,1.8-0.8,2.6l3.7,1.1c0.6-1.1,1.4-2.1,1.6-3.5
		c-0.9-0.5-1.8-0.9-2.6-1.3c-0.3-0.2-0.6-0.3-0.9-0.4c-0.6-0.3-1.1-0.5-1.7-0.8C484.2,417.8,483.5,419.3,482.9,420.7z M475.8,429.8
		l2.3,1c0.9-1,1.8-2.1,2.6-3.3l-1.6-1.4c0,0,0,0,0,0c-0.9,1.1-1.9,2.2-2.8,3.2C476.2,429.5,476,429.7,475.8,429.8z M471.7,433.5
		c0,0,0.1,0.1,0.1,0.1c0.3,0.2,0.6,0.4,0.8,0.6c0.3,0.3,0.7,0.5,1,0.8c1-0.8,1.9-1.6,2.8-2.4l-1.7-1.8
		C473.7,431.7,472.7,432.6,471.7,433.5z M495.8,404.5c-1.7-0.2-2.3,0-4.1-0.3c-0.1,2.2-1.4,3.3-1.8,5.3c1.5,0,2.8,0.3,4.3,0.3
		C495,408.4,495.8,406.5,495.8,404.5z M497.1,397.9c-0.8-0.4-3.4-0.1-4.4-0.3c0,0.7,0,2.4,0,3.1c1.3-0.1,3,0,4-0.1
		C496.8,399.7,497.1,398.7,497.1,397.9z M486.8,407.7c-0.1,0.5-0.2,1-0.3,1.5c0,0,0,0,0,0l1.3-0.1l0.9-4.8l-1.4-0.1
		C487,405.3,486.9,406.5,486.8,407.7z M468.8,414.9C468.8,414.9,468.8,414.9,468.8,414.9l-4.1,0c0.4,1.9,1.3,4.9-0.2,6
		c0.1,0.7,1,1.5,1.2,2.3c0,0,0,0,0,0C467.4,420.7,468.1,419.3,468.8,414.9z M468.1,409.3l-4,0.7l4.3,2.8
		C468.4,411.6,468.3,410.5,468.1,409.3z M464.7,425.1c-0.1,0.1-0.3,0.2-0.4,0.2c0,0-0.1,0-0.1,0c-0.1,0-0.3,0.1-0.4,0.1
		c-0.1,0-0.1,0-0.2,0c-0.2,0-0.4,0-0.6,0c0,0.3,0,0.5,0,0.7c0,0,0,0,0,0c0.5-0.2,1-0.4,1.5-0.6C464.5,425.5,464.6,425.3,464.7,425.1
		z M439.2,432.1C439.2,432.1,439.2,432.1,439.2,432.1l-1.2-2.9l-1.2,2.4C437.8,432.1,438,432.1,439.2,432.1z M467.8,404.2
		L467.8,404.2l-3.7,1.8l3.8,0.6C467.9,405.8,467.8,405,467.8,404.2z M487.6,400.4c-0.1,0.5-0.1,1-0.2,1.5c0,0,0,0,0,0l1.6-0.3v-4
		c-7.2,0.7-19.1,1-24.5,3.9c-0.6,0.3-0.9,0.9-1.3,1.4c0.3,0.1,0.6,0.1,0.9,0.1c0.1,0,0.3,0,0.4,0c0.2,0,0.4,0,0.7,0
		c0.2,0,0.3,0,0.5-0.1c0.2,0,0.4-0.1,0.6-0.1c0.2,0,0.5-0.1,0.8-0.1c0.2,0,0.4-0.1,0.6-0.1C475.1,400.4,486,400.5,487.6,400.4z"/>
</g>
</svg>
