<?xml version="1.0" encoding="utf-8"?>
<!-- Generator: Adobe Illustrator 21.1.0, SVG Export Plug-In . SVG Version: 6.00 Build 0)  -->
<svg version="1.1" id="Layer_1" xmlns="http://www.w3.org/2000/svg" xmlns:xlink="http://www.w3.org/1999/xlink" x="0px" y="0px"
	 viewBox="0 0 612 792" enable-background="new 0 0 612 792" xml:space="preserve">
<g>
	<path fill="#131313" d="M297.5,323.4c-1.7-0.5,0.8-3.4-0.2-6.5C300.3,316.9,298.8,322.4,297.5,323.4z M228.2,527
		c-0.4-2.3-5.8-5.7-5.8-2.9C222.4,525.7,225.8,527.6,228.2,527z M219.2,487.4c-1.5,8,4.3,11.8,7.9,15.8c-1.3-6.2-4.9-10.2-6.8-15.8
		C219.9,487.4,219.6,487.4,219.2,487.4z M181,194.7l-5,6.5l-26.4-1.2l-0.7-2.7l17.7-15.5L181,194.7z M161.1,195.2
		c-0.1-0.7-0.7-3.2-1.5-3l-6.2,4.6C156.4,197.3,161.3,196.3,161.1,195.2z M174.3,195.5l-9.1-6.9c-5,1.6,1.4,4.7-0.8,7.9l8.3,1
		L174.3,195.5z M325.4,307.8c-3.2-3.2-4.4,3.3-7.2,3.6c-2.4,0.3-5.2-4.3-7.2-1.1c3.2,0,5.2,3.3,7.6,3.2
		C321.5,313.5,322.3,309,325.4,307.8z M144.3,149l-22-20.2c-1.6,0.1-3.6,3.7-3.6,4.3L145,158c1.1-4.4,5.2-5.9,8.3-8.3
		C151.7,145.9,146.8,149.6,144.3,149z M290.5,370.4c-4.5-0.8-7.7,4.7-12.2,1.1C280.5,377.2,288.1,374.2,290.5,370.4z M293.7,370.1
		C295.2,374.7,298.3,368.5,293.7,370.1L293.7,370.1z M273.6,323.9c-0.1-2.1,2.7-3.4,1.1-6c-2.1,2.2-3.3,4.2-3.4,5.8
		c-0.2,2.9,2,5.8,5.2,6.8C278,327.5,273.7,327.4,273.6,323.9z M258.8,356c-3.1-2.2-6-4.5-10.8-5C250.8,353.3,256,355,258.8,356z
		 M474.8,368.3c0.3-2.9,0.1-8.2-2.9-9C471.5,362.3,472.1,367.2,474.8,368.3z M286.2,308.9c-0.6-1.1-0.8-2.3-1.1-2.5
		c-4.1-2.4-4.7,6.9-5.4,9c-1.2,3.4-3.4,5-3.4,8.2c-0.1,2.3,3.7,3.4,5.5,6.2c3.4-0.7,1.5-8,5-9.4c1.6,2.9,3.4,5.7,6.5,7.2
		c0.4-2.9,2.7-6.1,2.2-8.6C295,316.3,289.2,314.2,286.2,308.9z M394,341.4l8.5,7.7c0.2,2.4-1.8,4.3-3.6,4.3l-8.3-7.9
		C390.4,343.7,391.3,341.2,394,341.4z M394.8,344.2c-1.4-1.1-2.3,0.3-1.9,1.3l5.6,5.1c0.7,0.5,2.5,0.2,1.3-1.8L394.8,344.2z
		 M313.5,451.4c-0.2-1-0.8-1.5-1.1-0.4c-1.4,6.1-11.6,4.7-10.8,11.5C304.4,462.2,314.5,456.4,313.5,451.4z M296.2,466.5
		c2.9,0.1,2.8-2.9,2.9-5.8c-1.1-1.9-2.1,0-2.5-0.5c-1-1-0.9-3-2.1-3.8c-0.2-0.1-0.5,0-0.7,0C292.2,461,296.7,462,296.2,466.5z
		 M272.5,506.1c-1.1-2.2-3.1-3.6-5.8-4.3C267.5,504.2,269.3,507.3,272.5,506.1z M229.3,333.3c-0.1-0.7-0.5-0.9-1.1-0.4
		c-0.4,10.8-6.6,31.2,5,34.2c0.1-2-1.4-2.7-2.2-4.3C227,355.1,230.9,342.8,229.3,333.3z M243,526.7c1.8-2-0.1-3.4-3.2-4
		c-1.5-0.3-1.2-2.3-2.5-2.2C236.1,524.2,240.4,525.4,243,526.7z M415.8,389.5c-1.5-1.3-5.1,3.4-5,5c0,2.3,5.2,7,7.2,9.4
		c18.5,21.6,35.9,42.8,54.7,62.6c-3-7.2-9-13.1-14-19.4C446.1,431.4,423.5,402.7,415.8,389.5z M317.8,279c1.4-1.6,0.3-2.2-0.4-1.8
		c-3,0.8-9.1-0.8-9.7,3.2C312.4,278.4,315.3,280.1,317.8,279z M423.3,380.9l91.4,87.5c-4.7,9-9,21.4-8.7,31.4
		c8.5-14,18.8-27.3,31.4-39.3c1.4-1.4,10.6-8.7,10.4-10.4l-117.4-76C428.1,372.8,424.2,379.1,423.3,380.9z M290.1,278.3
		c2.5,0.1,4.1-3.6,8.3-5.4c3.4-1.5,6.2-0.7,9.7-1.1C302.3,265,291.4,272.1,290.1,278.3z M156.9,570.2c3.1-8.4,9.6-13.5,15.1-19.1
		c8.6-8.6,15.3-17.5,20.5-29.9c1.3-3.2,2.6-7.4,2.5-11.5c-4.9,3-5.7,11.9-10.4,13.7c1.3-8.3,1.2-15.5,3.2-22.3
		c3-10.2,10.7-16.4,14.8-25.2c-0.1-0.3-0.3-0.4-0.7-0.4c-6.1,6.3-15.1,13.8-18.7,23c-3.4,8.7-3.5,18.7-6.8,27.4
		c-2.5,6.6-7,13.2-10.4,19.1c-1.8,3.1-3.8,6.1-5.8,9c-2,3-4.7,6.3-5.8,9c-2.1,5.6-2,14-1.8,20.2
		C155.3,579.1,155.4,574.3,156.9,570.2z M249.8,255.9c4.1-8.4,11.3-18.2,15.1-28.1c1.3-3.4,6.5-14-0.7-12.2
		c-3.4,20.6-16.3,31.7-19.4,52.6C248,265.6,247.7,260.3,249.8,255.9z M388,329.4c-4,0-8.2-4.2-12.2-7.9c-3.4-3.2-8.6-6.9-9-11.2
		c-0.4-4.6,2.7-9.2,6.5-10.1c3.9-0.6,9.9,4.2,13.7,7.6c3,2.7,9.6,8.3,10,10.8C397.4,323,392.3,329.4,388,329.4z M383.4,309.6
		c-0.4-1.5-2.5-3.8-3.8-3.2c-2.1,1-7.4,0.4-5,3.5C375.7,311.6,382,310.8,383.4,309.6z M385.2,317c-1.5,2.2-3.1,3-4.4,4.2
		c1.4,0.6,2.3,2.6,4.1,2.8C385.1,322.3,386.5,318.9,385.2,317z M393.1,318.2c-0.4-1.7-4.4-5.1-6.8-6.8c-1.2-0.9-6.4,3.2-8.6,2.2
		c1.2,1.6,1.5,3.3,3.6,3.2c2.5-0.1,3.1-2.1,4.7-4c4.5,4.8,0,7.7,2.9,10.1C390.6,324.4,393.9,321.7,393.1,318.2z M233.6,476.6
		c-1.1,7,1.3,13.2,5.8,15.8c0.4-2.8-2.2-4.2-2.5-7.2C236.5,482,239.1,476.6,233.6,476.6z M532,510.8c-4.6,3.9-18,14-23.8,13
		c-2.8-0.5-6.3-5.4-8.3-7.9c-7.3-9.3-14-18.3-20.9-27.4c-2.2,1.2-2.8,3.9-6.5,3.6c-0.7,31.3-17.6,56.9-39.6,77
		c-7.9,7.3-15.9,11.1-26.3,15.1c-20.4,7.9-39.5,14.4-59,24.5c-22.7,11.6-42,27.6-59.4,45c-6.5,6.5-12.8,11.8-15.5,20.9
		c-2.8-5.3-1.8-12.6-1-18.7c0.8-6.5,1.5-12.8,2.5-18.4c-4.4,0.7-7.6,2.3-11.2,4c-13.5,6.2-22.2,20.7-37.4,24.5
		c-11.9,3-23.6,3-34.6,6.1c-5,1.4-9.8,3.7-14.4,5.8c-4.4,2-9.5,5.2-14.8,4c1.1-3.1,4.3-4.2,6.5-6.5c1.8-1.9,2.8-4.3,4.7-6.1
		c9-8.6,20.4-13.9,31.7-20.2c-11.4,2.5-24.5,3.5-34.2,7.9c-15.2,6.9-24.6,19-32.4,32.8c-2.4-8.1,6.5-26.6,8.3-31.3
		c5.2-13.4,10.8-25.5,19.4-34.9c-7.8,2.2-10.8,8.9-14.8,14c-4.2,5.4-11.4,13.9-20.2,15.5c-4.6,0.9-10.3,0-15.8,0.4
		c-8.1,0.5-14.6,4.5-22,5.4c-10.3,1.2-19.3-1.3-28.4,0.4c-8.6,1.5-13.5,5.9-18,12.2c-3.2,4.4-7.5,14.7-8.6,15.1
		c-1.1-17.1,4.8-30.1,10.1-44.3C49,640,53,630.7,54,629.6c1.1-0.6,4.8-1.5,6.5-2.2c19.6-7.7,37.8-19.9,53.3-32.4
		c8.1-6.6,13.2-17.3,15.5-29.2c2.3-11.7-1.7-28.9,2.2-40c0.9-2.5,2.7-5.8,2.9-8.6c0.3-4.1-1.4-8.2-1.1-12.2
		c0.5-6.9,4.5-12.4,3.6-21.2c-1.1-10.9-3.5-21-2.5-32c1.1-12.9,6.9-24.7,8.6-37.8c0.2-1.8-0.4-4.1,0.4-5.8
		c1.2-2.6,11.4-7.5,14.4-9.4c4.6-2.9,11.6-5.4,15.5-8.3c2.2-1.7,3.7-4.6,5.4-6.8c3.4-4.4,4.1-8.2,11.5-7.9c1-6.1,3.6-10.5,6.5-14.8
		c1.9,0,3.8,0,5.8,0c-1.6-2.7-3.4-6.1-5.4-9.7c-1.7-3-4.4-6.4-5-9.7c-1.2-6.2,1.2-15.8,2.5-23.4c2.6-14.9,4.8-28,9-42.5
		c2-7,3-15.8,5.8-20.5c2-3.3,6-4.9,7.9-7.6c-10.6-10.2-21.2-20.7-31-33.8c-1.3-1.8-2.9-4.6-4-5l-36.4-1.8l-6.8-9l20.9-20.5
		c-2.2-1.9-4.4-3.8-6.5-5.8c-13.4,7.3-22.3,20.6-31.7,33.5c-40.2,55-52.6,124.2-50.9,191.5c1.1,46.3,7,68,25.1,108.3
		c-26.9-32.9-42.1-65-52.3-100.8c-9.9-34.7-14.1-75.5-11.2-111.2c3.6-43.9,11.5-82.5,24.1-118.4c4.3-12.3,9.8-25.2,16.6-37.1
		c1.7-2.9,5.8-10.4,7.2-10.4c1.5,3.3,6.1,7.8,7.6,9c2.8,2.3,9.1,4.8,14,4.3c5.4-0.5,10.6-2.5,8.3-8.3c-1.2-2.9-5.5-5.7-9-9
		c-3-2.8-8.4-6.9-8.6-9.3c-0.4-4.1,6-12.4,11.9-12.3c6.5,2.5,14.5,11.7,20.2,16.6c0.7,0.3,2.7,0,3.6,0.4l36.4,35.6
		c0.2,0.9-0.6,3.2-0.4,4.3c0.3,1.3,4.6,6.1,6.5,6.5c1.3,0.2,3.2-1.5,5-1.4c4.2,0.2,9,4.6,6.8,8.3l11.5,9.4c1.8,0.1,4.1-1.5,6.2-1.4
		c2.4,0.2,3.2,2.4,5,3.2c1.5,0.7,3.9,0.5,5.4,1.1c7.7,2.8,15.4,11.2,21.2,16.6c6.7,6.2,13.1,12.6,19.1,18.4
		c5.7-9,14.3-10.9,29.9-11.2c2.8,0,8.3-0.7,10.1,0c1.2,0.5,3.6,6.6,4.7,9c9.7,21.1,25.9,38.6,38.5,55.1c3.2-2.8,2.6-6.2,5.7-8.8
		c1.8-1.5,3.4-0.8,4.9-2.5c2-2.2,5.5-8.9,6.7-12.4c4.4-12.7,10.7-35.4,6.2-51.6l11.8-7.1l39.2,8.3c9.8,46.4-6.8,82.1-19.7,95.8
		c3,0.2,3.4-3.7,6.5-4.3c1.2-0.2,2.5,0.7,4.3,0.7c1.2,0,2.6-0.9,3.6-0.7c1.6,0.2,4,4.4,9.7,4c1.7-0.4,2.3-3.7,5-4.7
		c2.1-0.8,7.2,0.3,7.9,0c2.2-1,2.7-7.2,5-8.6c2.3-1.4,4.8,0,7.6-0.7c1.1-0.3,2.5-2,4-2.5c1.6-0.5,3.6,0.1,4.7-0.4
		c3.4-1.4,3.3-6.9,9.7-6.1c2.5,0.3,6.2,3.7,7.9,5.4c5.4,5.7,24.5,28.4,25.2,35.1c1,9.7-9.6,9.9-17.3,12.5c1.2,1.3,0.2,3.4,0.7,5
		c0.9,2.6,3.6,4,4,7.9c0.2,2.2-0.9,5.4-0.7,8.3c0.2,3.7,1.9,8.3,3.2,13c2.4,8.6,4.2,16.8,6.1,26.3c1,4.9,0.6,12,1.8,14.4l78.8,39.6
		c4.8,2.4,11.3,4.3,11.9,9.4C580.4,465,544,500.6,532,510.8z M466.9,335.5c-1,2.5,1.1,4.7-1.1,5c-0.9,0.1-1.2-3.2-2.5-4.3
		c-7.3,8.8,12.2,9.9,7.9,20.2c-2.5-1.2-1.8-7.6-5.8-6.1c2.5,4.2,3.2,10.3,4.7,16.6c1.7,7.3,3.6,15.2,5,20.2c0.2,0.7-0.1,2.5,0.4,3.2
		c1.7,2.7,6.1,2.9,7.9,5c-0.4-11.4-3.7-22.9-6.1-32.8c-1.3-5.3-2.1-11-3.6-14.4c-0.7-1.7-2.3-2.6-2.5-4.3c-0.5-2.9,1.9-5,1.8-7.2
		C472.8,333.4,468.5,331.5,466.9,335.5z M461.1,382.3c1.2,2.1,7.2,3.4,8.6,4.7c-1.2-11.6-3.5-25.3-7.6-35.3
		c-0.1-0.3-0.3-0.4-0.7-0.4c-1.3,6.4-1.1,12.3-0.7,20.9C460.9,375.8,460.2,380.7,461.1,382.3z M462.2,331.9c0.8-4.6,1-4.1,5.5-2.3
		c1.6-0.3,3-2.7,1.7-4.9c-4.1-1.1-7.5,1.6-10.4,2.9C459.5,329.5,459.1,332.5,462.2,331.9z M463.6,287.6c1.8,2.7,19.5,25.2,22.7,24.5
		c2.6-0.6-17.2-25.6-18.4-27c-2.9-3.6-7.5-10.9-10.2-9C456.3,277.1,461.3,284.1,463.6,287.6z M459,297c-2.3-0.5-3.1-2.5-5-3.2
		c-3.5,4.4-1.2,7.6,1.1,10.4c2.4,3.1,5.1,5.9,5.4,10.1c2.9-1.1,5.4-2.6,8.6-3.2c0.3-2.6-2.4-4.1-1.1-6.5c2.7,2.2,10.9,11.9,9.7,12.2
		c-4.2,0.7-8.1,0.7-11.9,1.4c-6.4,1.2-11.5,5.4-16.9,6.1c-1.4-2.6,3-2.8,2.9-5c-0.1-1.2-5.7-5.8-6.5-5c4.2,4.1,3,14.2-5,11.2
		c-3-1.1-4.5-7.2-7.9-6.1c3.1,2.5,6.8,10.4,1.4,12.2c-1.4,0.5-4-0.8-5.4,0.7c4.8,4.6,8.2,0.4,13.3-2.2c8.6-4.4,17.9-9.5,28.1-10.4
		c5.8-0.5,9-0.5,13.4-3.4c-10.8-10.8-21.9-23.5-30.7-36.9C450.6,286.2,458.8,290.9,459,297z M457.5,354.9c0.8-6.7,2.9-12-2.9-13.3
		c-0.9,1.4-0.3,4.3-1.8,5c-1.1,0.2-0.8-1.1-2.2-0.7c-1,8.1-0.6,17.3,0,25.2c0.1,1.5-0.9,4.5,1.4,5c0.1-3-1-6,0.4-8.3
		c3.4,1.7,1.2,9.1,4.3,11.2C456.3,371.5,456.6,362.5,457.5,354.9z M447.1,343.4c-0.2,0-0.5,0-0.7,0c-4.5-0.8-5.1,2.3-6.8,4.3
		c-4.5,5.2-13.1,5.7-17.3,1.1c-3.4,4.6-0.2,7.1,2.5,9.7c5.8,5.6,14.9,10.9,22,14C446.1,362.9,446.3,352.7,447.1,343.4z M391.6,375.8
		L351.3,338c-0.5-0.4-2,0.3-2.2,1.1l35.6,37.1c-0.2,3-7,5.3-11.2,3.6l-31.3-31c-1.9,1.9,0,3.7,1.1,5l29.2,30.6
		c1.5,0.3,6.5-0.4,9.3-0.7c3.2-0.3,6.1-0.9,9.4-1.1C390.6,379.7,391,377.5,391.6,375.8z M370.4,365.7c-2.6-3.4-8-9.2-11.5-12.2
		c-0.9-0.8-1.6,0.2-2.2,0.4c0.7,2.6,4.1,6.9,6.5,9.4C364.9,365,367.4,367.1,370.4,365.7z M368.6,371.1l5.7,5.2
		c1.7,0.9,4.1,0.6,6.3-0.5l-6-6.1L368.6,371.1z M369.7,293l-9-6.1l-9.7,14.4c1.4,1.3,4.4,2.4,4.1,5.8c-0.3,2.7-4.8,5.5-4.8,7.5
		c0,1.7,3.4,4.1,4.3,5c1.9,1.9,2.8,3,5,4.3c0.1-1.8,4-3.9,4-6.1c-1-1.9-3.6-4.5-4-6.2C357.7,305,366.1,299.6,369.7,293z
		 M353.1,335.5l18.7,18c1.9,1.8,5.5,5.4,7.2,5.4c3.2-0.1,4-5.2,3.2-7.6c-0.7-2.2-4.7-5.5-6.8-7.6L352,323.6
		C353.3,328.2,353.8,331.8,353.1,335.5z M358.5,285.1l-7.9-5.8c-1.6,3.9-7.1,10.8-7.9,13l4,9.7C350.9,296.7,354.8,291,358.5,285.1z
		 M347.4,306l2,5c1.8-1.9,2.8-2.9,3.4-4.3c-0.5-1.8-2-2.6-3.5-3.1L347.4,306z M392.7,372.6c0.6-0.7,6.5-7.4,7.2-7.2l-12.2-10.8
		c0.5,5.1-2.3,6.9-4.3,9.4L392.7,372.6z M398.1,382.7c2.4-5.6,5.8-10.3,11.9-13C405.1,362.4,390.1,378.7,398.1,382.7z M401,386.3
		c0.1,0.9,3.8,4,4.3,4c2.5-4.9,5.7-10.6,10.8-14.8c0-2.6-3.1-2.5-3.2-2.5c-1.1,0-3.3,1-4.3,1.8C406.2,376.5,400.5,383.2,401,386.3z
		 M419.4,372.2c2.1-2.1,4.8-3.6,7.6-5c-3.6-2.9-4.2-3.9-6.1-5.8c-2-2-2.7-4.6-4.7-6.8c-3.1-3.6-7.8-7-11.5-10.4
		c-2.6-2.5-9.9-8.7-10.1-11.9c-0.1-4,6.7-10,7.6-12.6c-9.2-9.9-19.4-17.7-29.9-24.8c-3.3,2.4-10.3,11.6-10.2,14.5
		c0.1,3.7,5.2,5.9,5.2,8.5c0,2.4-5.3,4.9-5.5,8.1c0.2,1.7,7.7,7.4,10.2,9.6c9.6,8.3,17.7,15.1,27,23c1.7,1.4,4.3,4.4,5.4,4.7
		c1,0.2,2.7-0.6,3.6-0.4L419.4,372.2z M408.9,330.1c0.2-0.9,1.9-1.7,1.8-2.5l-6.5-5.4c-2.3,4.3-8.1,7.6-4.7,12.2
		c1.7,2.3,4.6,4.5,7.2,6.8c1.7,1.6,7.2,6.5,7.9,6.5c1,0,5.3-4,5.4-5.4c0.1-1-2.1-4-3.6-5C413.2,334.9,407.5,336.2,408.9,330.1z
		 M437,342.3c-0.9,3.7-5.1,4-6.1,6.5c2.4-0.4,5.2-1.1,6.5-2.8c2.9-3.1,0.8-6.5,2.9-7c0.9,1,1.4,2.4,4,1.8c-0.7-3.4-5.4-6.2-7.2-2.9
		C436.4,339.1,437.3,341,437,342.3z M425.5,334.8c-1.1-0.8-2.4-3.9-3.6-4.7c-3.1-2-9.9-1.7-10.4,1.1c0.1,1.6,4.9,2.1,6.9,3.6
		c2.3,1.7,4.1,3.8,5,6.9c1.1-0.1,1-1.4,2.5-1.1c1.1,1.3-2.8,5.5-0.4,5.4c2.3,0.5-0.2,1.7,2.5,1.8c0.8-1-0.4-2-0.4-3.2
		c2-1.7,5.1,0.6,6.2-1.8C436.2,337.5,428.3,337,425.5,334.8z M449.8,337.1c2.2,1.2,1.8-1.3,0.9-3c-2.8,1.7-2.8-2.7-5.4-1.1
		C444.9,338.6,448.1,336.1,449.8,337.1z M455,333c-0.8,3.3-0.9,4.2,2.6,4.8C458.8,334.9,459.9,335.2,455,333z M432.7,307.1
		c-4.1,6.1,2.1,8,6.4,12.6c1.4,1.5,2.1,3.8,4.3,3.2c3.6-5.6-4.5-9.3-7.5-14c-0.3-1.8,1.1-6.2-4-6.5c-2.4-0.3-6.2,4.2-4,6.5
		C430,308.9,430.7,306,432.7,307.1z M450.3,303.4c-1.1-1.6-1.4-5.4-2.5-6.1c-3.3-1.1-5.9,1.2-6.1,4.3c1.6,1.1,2.6-3.3,4.1-0.2
		c-1.5,2.6-1.4,5.1,1.7,7.8c5.2,4.5,6.4,9.7,9.2,7.5C457.5,310.1,453.1,307.6,450.3,303.4z M440.6,295.9c2.1-2.2,4.8-2.9,7.8-2.5
		c2.1-1.2-1.6-2.2-1-6.9c0.6-4.6-0.5-9.1-3.6-7.1c-1,0.4-0.9,1.2-1.4,3.2c1.1,0.7,3.1,0.5,2.9,2.5c-2.4,0.5-3.2,3.2-3.6,6.6
		C441.6,293.1,438,295.5,440.6,295.9z M426.9,302c1.9-3.5,8.2-0.6,9-3.6c0.5-1.6-0.6-3.3-0.9-5.4c2.3-1.4,4.2-4.2,4.2-6.8
		c0-1.6-3-2.5-1.4-4.3c-1.9-0.6-4.7,0.2-5,2.2c0.7,0.7,3-0.1,2.9,1.4c0.2,1.7-2,0.9-3.2,1.1c-2.8,2.6,0,4.8-2.6,8.3
		c0.5,0.9,3,0.6,2.9,2.2C430.1,297.8,424.9,298.1,426.9,302z M423.3,315.7c-1.7-2.3-2.5-5.2-6.1-5c-1.3,2.3,1.3,2.8,1.1,5
		c-1.3,0.9-3.2,0-4-0.7c-0.4,4.9,6,2,8.3,3.6c-0.1,1.2-1.4,1.3-1.8,2.2c5.1,1.3,6.9,9.2,12.6,7.6
		C432.8,321.3,426.6,320.2,423.3,315.7z M413.2,309.2c1.9-1,3.5-2.5,6.5-1.4c1.6-3.2,3.2-7.5,2.2-12.2c1.1-0.9,2.1,0.4,3.2-0.4
		c1.2-4.5-3.7-4.6-6.1-3.2c-0.2,4.1-1.3,7.3-2.2,10.8c0.3,0.8,2.2-0.1,1.8,1.4C417.5,306.5,412.7,305.2,413.2,309.2z M410,313.2
		c-3.8-0.5-4.4,4.3-2.9,7.2c1.4,1.4,5.9,4.7,6.7,5.6c1.4-1,3.6-0.7,5-0.2c0.1-2.1-3.3-2.4-4.3-2.9
		C410.7,320.9,410.2,318.8,410,313.2z M401.4,293c2.1,2.2,1.3,5.3,0.6,7.9c4.6,2.5,3-4.7,5.9-3.6c0.5,3.6,5.9,4.3,4.3-0.2
		c-0.8-2.3-3.7-1.6-5.3-2.2C405,294.2,403.2,291.1,401.4,293z M399.6,303.5c1.1,1.3,7,8.1,9.7,6.1c0.5-0.4,1.2-2.7,1.1-3.2
		c-0.8-3.1-5.2-1-6.8-1.1C401.6,305.2,401.4,303.4,399.6,303.5z M392,297c0,0.4,3.7,4,4.7,4c1.5,0,2.1-1.5,2.9-2.9
		c0-1.2-1.9-0.6-2.9-1.1c0-1.7,1.5-1.8,2.2-2.9c-0.5-2.1-3.7-2.6-4.2-0.5C394.1,295.5,392.1,296.6,392,297z M381.2,294.5
		c2.1,3.5,6.2,6.7,9.7,10.1c1.7,1.6,3.3,3.4,5,5c1.6,1.6,3.6,3.8,5.8,4c1.3-2.6-1.6-4.2-3.2-5.8c-1.6-1.6-3-3.4-4.7-5
		C390.9,299.8,385.1,293.3,381.2,294.5z M362.8,196.2l35.6,8.1l7-4.8l-34.9-7.7L362.8,196.2z M347,265.7l3.6,2.5
		c1.5-0.3,4.7-7.7,6.1-10.8c4.8-10.6,10.2-28.2,10.4-39.6c0.3-6-0.7-9.9,0.4-12.2c2.6,1.9,2.7,7.8,2.5,12.2
		c-0.5,16.7-7.7,34.3-13.7,46.8c-0.1,0.1-3.3,5,0.2,5.4c2.6,0.3,6.5-10.1,7.7-13c5.2-11.5,10.2-27.4,10.1-41.4c0-2.8-1-8.3,0.4-8.6
		c1.6,0.8,1.6,2.8,1.8,4.3c0.6,5.6,0.1,13-0.7,18.7c-1.7,11.5-6.9,25.5-11.5,34.9c-1.2,2.6-5.6,8.8-5.4,10.1l4.7,3.2
		c3-3.2,5.6-9,7.2-12.2c7.9-16.2,13.9-32.8,13-56.1c3.3-0.2,3.1,11.5,2.8,15.5c-0.8,14.9-8.6,34.8-13.7,45.4
		c-0.8,1.6-5.3,8.6-6.1,10.1l4.7,3.4c1.6-1,3.5-4.7,5-7.4c8.8-15.7,16.1-34.1,15.1-58.3c-0.1-2.2-0.5-5,0.7-6.1
		c1.8,1.5,2.3,5.6,2.5,7.9c1.4,19-5.6,40.9-13.3,55.1c-1.7,3.2-7.5,10.4-6.5,12.1c1.7,2.8,4.6-0.4,5.8-2c8.9-12.2,23.3-41,17-77.1
		l-36.1-8.2c-0.5,1.5,0.3,4.6,0.4,6.8c0.7,16-4.2,33.6-9.4,46.1C351.4,256.3,346.7,264.3,347,265.7z M340.1,268c0,1.6,6.9,5.7,8.7,7
		c6.1,4.7,12.2,8.6,18,12.6c2.9,2,5.8,4.5,9.7,4.3l-33.9-26.1C341.6,265,340.1,268.2,340.1,268z M336.7,276.5
		c1,3.7,3.3,8.1,4.6,11.8c2.7-2.8,4.9-6.4,6.8-10.3l-8.8-7.1C337.5,272.6,336.6,274.6,336.7,276.5z M275.7,237.6
		c13.5,3.6,26.5,12.8,28.1,28.1c-5.2-5.6-9.2-12.5-19.8-13c-5.7-0.2-13,1.9-17.3,5c-3.7,2.7-9.7,9.1-9,13.3
		c0.8,4.6,8.9,6.1,11.9,9.7c2,2.5,3.5,5.3,4,8.6c-2.6-2.2-6.2-4.3-11.2-7.2c-4.6-2.7-16.6-7.2-15.5,2.9c1.9,1.1,4.4-0.4,5,1.4
		c-1.8,1.6-7.5-0.6-6.5,4c5.8,0.7,8.5-1.8,13.3,0c2.2,0.8,4.1,3.3,6.1,4.7c2,1.4,5.8,4,6.8,4c4-0.3,3.8-7.3,6.5-9.7
		c2,4-0.7,7.7-1.4,11.2c2.3-0.4,2.2-3.1,4-4c0.8,0.8,1.1,2,1.1,3.6c1.7-0.8,3.6-0.8,5-0.7c-0.3-3.3-3.5-2.8-5-6.1
		c-0.8-4.4,3-9.5,4.7-11.5c1.4,3.1-2.7,7.2-1.8,10.4c0.4,1.3,3,3.5,5.4,3.2c2.7-0.3,4.8-4.4,7.2-6.8c1.6-1.6,4.7-5.8,7.6-6.5
		c9.3-2.4,17.2,3.6,16.9-6.1c-1.4-1.2-5.5-1.2-7.2-3.2c-1.1-1.3-1.2-4.5-2.2-6.5C306.1,252.4,294.7,237,275.7,237.6z M279.7,464.7
		c1.5-1.3,4.4-1.4,6.1-1.4c0-2.6-1.3-4-1.4-6.5c-4.7-0.9-6.8,2.7-9,3.2c-1.3-0.3-0.4-2.7-1.1-3.6c-2.8-1.9-6.7,0.1-6.5,2.2
		c0.3,2.8,4.2,0.8,5,3.6c-2.9,2.9-0.9,8.1,2.2,8.3c1.3,0.1,2.4-2.1,4.3-2.5c2.7-0.6,3.9,0.8,6.1-0.4
		C285.2,464.2,280.8,467,279.7,464.7z M278.6,494.3c-1.3-2.5-5.8-2.4-5,1.4c0.3,1.5,3,1.6,4.3,3.6c2.1,3.2,1.7,6.8,4,6.5
		c0.1-2.4-1.7-5.8-0.4-7.2c3.8,3.3,5.7,8.5,11.2,10.1c1.1-7.6-8.4-9.3-9.4-16.2c-0.2-1.6,0.9-2.8,0.4-4.3c-0.6-1.7-3-2.8-5-2.9
		C276.9,488.5,281.5,492.2,278.6,494.3z M285.8,514.8c1.6-0.5,2.9,2,2.9,4.3c6-1,1.8-11.1-4-10.1c-0.7,5.7-2.2,2.6-6.1,4
		c-2.8,1-9.3,10.8-10.1,14.4c-0.7,3.1-0.8,8,1.1,8.3c1.8,0.2,3.5-4.3,4.7-5.8c1.4-1.8,3.5-4.9,4.7-6.1
		C282.1,520.5,287,520,285.8,514.8z M264.2,507.9c-0.1,0.9-0.8,2-0.7,2.9c0,0.3,1.3,5.1,3.6,4.7c2.6-0.4,1.3-6.1,3.6-5.4
		c1.4-0.3,0.6,1.6,2.2,1.1c1.8-1.2,2.9-2.3,2.9-4c-0.1-2.5-3-3.1-5.8-6.1c-3.2-3.4-8-16.2-9.7-23c-1.3-5,1.4-9.5-3.6-10.8
		c-0.7-0.8-1.2,1.9-2.5,0.7c1.2-6.7-5.7-8.5-5.4-2.5c0.1,1.7,2.8,1.7,1.4,4.3c-2.4,0-3.8-3.6-6.7-1.1c-0.7,5.6,4.9,7.1,7.8,10.8
		c2.5,3.3,5.2,8.3,7.6,13C261.3,497.5,264.5,503,264.2,507.9z M250.9,524.1c3.3,1.1,3.5-5.5,5-5.4c1.9,0-0.2,2.3,2.2,2.2
		c2.3,0.8,3.1-3.5,2.9-4.7c-0.5-2.3-3.2-2.5-5-3.6c-1.6-0.9-3.5-4-5-6.1c-4.6-6.3-10.6-15.5-11.9-22.7c-0.5-2.9,1-7.2-0.4-10.3
		c-0.5-1.1-3.2-1.9-3.9-2.6c-2.6-2.8-6.2,6.8-6.1,7.6c-2.1,0.1-1.3-2.7-2.9-3.2c-5.2,5.1,4.5,11.7,7.6,14.8
		c5.2,5.3,14.8,20.6,16.2,27.4C250,519.9,248.8,523.4,250.9,524.1z M233.6,527c0.9,3.3,1.3-0.9,4.7,0.4c0.7,0.6,0,2.6,1.4,2.5
		c2-0.2,5.5-2.1,5.3-5c-0.2-2.2-3.7-3.5-5.7-5.4c-2.5-2.4-5.2-8.2-8.3-13.7c-2.7-5-6-11-7.2-14.8c-0.7-2,0.1-5-0.4-6.8
		c-0.6-2.1-6.1-6.9-7.2-1.1c-0.4,2,1.1,3.2,0,4c-2.2,1.5-2.3-3-4.3-1.8c-0.7,6.4,5.6,9.5,9,14c3.6,4.8,5.5,11.2,9,16.2
		C232.6,519.3,234.6,521.3,233.6,527z M221.7,531c1.9,3.9,3.7,2.7,5.6,0.2c0.9-1.2,3.2-0.2,3.4-1.6c1.3-4.6-3.9-5.4-6.1-8.3
		c-5.3-7.1-7.9-15.4-11.2-24.8c-1.2,0-1.6,1.9-2.9,0.7c0.5-2.2,0.5-4.7-0.7-6.1c-6.7-0.8-5.4,3.7-2.9,6.5c-1,1.1-2.5-0.9-3.2,0
		c0.6,4.5,4,4.4,6.1,7.2c2,2.6,4.1,6.9,6.1,10.4c2.2,4,4.6,8.4,5.4,11.5C221.6,527.7,221.1,530,221.7,531z M262.4,466.5
		c0.3-0.9,0.3-2.1,1.4-2.2c2-0.3,0.7,2.7,2.5,2.5c2.1-3.9,0.1-3.7-1.1-6.5c-0.1-0.3-0.2-2.4-0.4-2.5c-2.9-3.4-8.7,0-9,2.5
		C255.6,463.6,259.9,465.2,262.4,466.5z M274.3,484.9c-2-1.2-3.9-2.6-5.8-4c-1.1,4.3,1.7,10.9,5.8,9
		C274.1,488.3,273.5,486.4,274.3,484.9z M282.2,376.9c3.8,0.1,8.8-3.9,13.7-4c6.2,0,6,1.2,8.3-4.3c2-4.8,5.6-11.5,9-16.9
		c1.7-2.8,3.7-7,4-9.4c0.4-4.2-1.1-6.7-1.4-9.4c-0.5-4.1,0.3-8.7,0-13c-0.7-0.5-1.4-1-2.5-1.1c-2.3,9.3,1.9,16.7-0.4,23.4
		c-1.1,3.4-5.4,5.4-4.7,10.1c-2.9-0.6-1.8,3.6-5,3.6c0.2,1.3,0.9,3.3-0.4,4c-1.1-0.7-0.4-3.2-1.4-4c-2.9,1,0,7.9-2.5,9.4
		c-0.5-2.6-0.7-5.6-1.4-7.9c-2.1,1.3-2.2,4.6-3.2,6.8c-2.5-0.1-1-4-2.5-5c-3.1,1.1-0.9,5.9-3.2,7.2c-0.8-1.6-1.1-3.7-1.8-5.4
		c-1.2-0.7-1.7,2-4.3,1.1c-0.2,2.4,1.8,4.4,0.7,6.5c-2.7-2-4-5.3-5.4-8.6c-1.2,0.5-2.3,1.7-4,0.7c-0.3,1.2,1.1,2.5,0,3.2
		c-3.6-1.6-2.6-5.3-4.7-7.9c-1.7-2.3-6.1-3.8-9.4-5.8c-3.2-1.9-6.7-3.8-8.6-6.5c-2.7-3.6-1.9-7.8-4.7-13c-6.2,0.1-3.4,10.2-4,16.9
		c-0.5,6.3,6.3,5.9,11.5,9c9,5.3,13.3,10.6,21.2,16.6C277.1,374.9,281,376.9,282.2,376.9z M267.8,348.1c5.1,1.8,2.4-7.6-1.4-9
		C265.7,341.8,264.9,347.3,267.8,348.1z M275.4,358.2c-0.5-3.9,1-7.5-2.9-7.9C269.9,353.4,272.8,358.3,275.4,358.2z M276.8,348.5
		c-0.4-1.3-0.7-2.6-1.2-3.8c-0.6-1.8-0.5-3.7-2.4-4.8C271.9,342.8,271.2,349.8,276.8,348.5z M277.2,351c1.1,4,3,7.3,6.5,9
		C285,356.2,280.9,348.5,277.2,351z M281.8,349.2c2.3-3.8,0.1-8.7-3.2-10.1C277.6,343.7,278.1,347.7,281.8,349.2z M284.4,348.8
		c1.3,7.6,3.3,8.8,5,9.7C290.2,354.2,289.7,348.2,284.4,348.8z M286.2,346.7c1.4,0.5,3,0.6,4.3,0.4c0.5-3.6,0.2-9.5-2.5-11.1
		C285.7,338.7,286.1,342.8,286.2,346.7z M303.8,352.8c1.2-2.8,3-6.4,2.5-9.7C302.6,343.1,301.6,350.3,303.8,352.8z M306,339.8
		c3.6-1.8,1.2-6.2-0.7-8.3C303.8,334.1,305.1,337.5,306,339.8z M300.6,333c-0.9,2.7-2.7,9.6,2.1,9.7
		C303.9,340,302.5,331.5,300.6,333z M299.6,354.1c0.3-3,1.6-5.9,1.7-9.2C295.7,344.1,296.3,352.4,299.6,354.1z M295.2,335.5
		c-1.2,1.1-1.8,6.4-0.5,9.7C298.4,345.8,298.4,336.7,295.2,335.5z M290.8,348.8c1.7,2.3,1.1,6.8,3.7,8.2
		C295.4,352.2,296.3,346.5,290.8,348.8z M321.1,317.9c1.9-1.7,0.9-4,2.2-5.8c1.1-1.6,3.4-1.2,4.3-2.5c0.9-1.3,1.1-3.7,0.7-5
		c-1.1-4.3-7.9-6.8-9-13.7c-0.3-1.7-0.3-3.6-0.4-6.1c-0.5,0-0.5-0.5-1.1-0.4c-0.3,3.3-1.4,5.5-0.7,8.6c0.5,2.1,2.6,2.9,2.5,4.7
		c-0.4,5.9-9.4,2.3-14.4,3.2c-2.7,0.5-3.9,2.4-5.8,3.2c2.4,1.4,6.6-1.9,7.9,0.7c-4,4.1-14.4,1.4-18.4,0.4c1.1,2.5,4.7,4.4,4,7.6
		c-2.2-0.9-3.7-2.5-5.4-4.7c-0.8-1-2.1-4.4-2.9-4.7c-6-2.3-4.2,8.6-9,9.7c-0.3-3.1,2.3-5.1,1.4-7.6c-3.7,2.1-7.8,7.1-12.6,8.6
		c-2.4,0.8-6.2,1.4-8.6-0.4c2.8-1,6-1.4,7.9-3.2c-3.7,1-5.2-1.2-8.3-0.7c-3.7,0.6-4.9,4.5-7.9,4.3c-3-0.2-4.4-3.7-7.6-4.7
		c-0.8,3.9-2.2,9-2.2,12.6c1.5-1.2,6.1-4.3,7.6-1.1c-4.1,0.5-4.6,4.5-8.6,5c0,1,0,1.9,0,2.9c5.8,0,6.9-6.1,14-5.4
		c8.3,0.8,14.9,2.9,14,10.4c-2.7-2.9-6.1-6.7-11.9-5.4c0.7,4.5,3.6,6.7,6.5,9c1.3,0.1,1.4-1.8,2.5-0.7c-0.1,2.4,0.5,4.1,1.4,5.4
		c0.9-2.6,0-5.2,2.2-5.8c2.2,0.1,3.3,2.4,4.3,2.5c-0.1-3.3,1.2-5.3,2.5-7.2c1.1,1.1,0.3,2.4,0,4c1.7,0.2,1.5,2.4,3.2,2.5
		c0.1-2.2,0.4-4.1,2.2-4.7c-0.4,3.7,3.6,2.8,4.3,5.4c0.4-2-1.7-4.3,0-5.4c1.8,0,1.1,2.5,2.9,2.5c3.4-1.8-0.3-6.5,2.9-8.6
		c1.3,3.1,2.2,6.7,4.3,9c0.5-1.8,1.3-5.1,3.6-4c0.2-1.2-0.5-3.1,0.7-3.2c1.3,0.4,1.1,2.3,2.2,2.9c2-2,1.9-4.1,1.4-6.5
		c2,0.3,1.7,2.9,3.2,3.6c0.8-1.4,1.6-2.4,3.2-1.1c1.9-2,1.3-6.6,1.8-10.1c-2.4-0.4-2.4,4.5-5.8,4.3c2-3.5,2.6-9.2,6.5-10.1
		C314.1,311.4,316.8,316.4,321.1,317.9z M243,223.2c-1.9,0.3-9.4,4.9-9,7.2c0.1,0.7,1.4,1.5,2.2,1.4c2.6-0.2,5.4-6.6,7.6-7.9
		C243.6,223.5,243.6,223,243,223.2z M237.2,217.4c-1.7,0.2-5.4,2.4-7.6,5.2c0.1,0.8,2,2.8,3.1,2.8c1.1,0,8-4.8,8-5
		C241,218,238.4,217.3,237.2,217.4z M222.4,243c1.5-1.5,3.7-2.3,4.7-4.3C224.8,236.5,222.5,241.7,222.4,243z M223.5,235.4
		c0.1-1.1-0.9-1.8-1.7-2.1c-1.5-0.6-3.4,0.4-4.2,3c0.5,2,2.8,3.6,3.3,2.3C221.3,237.4,223.2,235.9,223.5,235.4z M229.9,237l3-2.3
		L193,195.4l-2.5,2.4L229.9,237z M222.4,219.2c0.2,1.1,2.2,1.8,2.9,2.2c2.9-4.3,7.5-6.9,12.2-9.4
		C236.1,204.4,222.1,217.1,222.4,219.2z M224.8,205.5c-3.4,0.2-6.6,3.6-7.1,5.8c0,0.6,2.6,2.9,3.6,2.9c2.3-1.1,5.6-4.3,7.9-5.8
		C228.4,207,226.8,205.6,224.8,205.5z M210.7,207.3l2.8,2.5c2.7-4.5,7.6-6.8,12.6-9C223.4,194.2,212.3,205,210.7,207.3z
		 M210.2,203.4c2-1.8,5.9-4.6,8.3-5.8C215.4,192.9,203.5,202.7,210.2,203.4z M200.5,197.6l2.4,2.3c1.6-1.9,5.1-4.7,8.4-6.2
		c1.7-0.7,3.5-1.1,5.1-1.4C212.7,186.9,201.2,194.9,200.5,197.6z M199.8,193.6c2.2-2.4,7-4.3,7.8-5
		C202.8,186.1,194.3,193.8,199.8,193.6z M175.5,177.3l12.4,11l3.6-3.6c-0.1-1.1-3.6-3.4-5-4.7C182.9,176.9,179.4,173.8,175.5,177.3z
		 M112.3,127.8c0.5-1.1,1.2-1.9,1.8-2.9c-5.5-5.5-11.1-10.3-13-14.8c5.9-1.3,9.9,4.1,13,7.6c2.4,2.6,3.9,3.9,6.5,1.5
		c-3.4-3.5-11.6-11.7-15.8-14.1c-1.9-0.4-8.8,4.1-8.5,8.3C99.9,117.1,107.6,124.4,112.3,127.8z M143.2,168.8l-5-5.4
		c-1,0-6.8,5.2-9,7.2c-8.9,8.1-15.7,19.1-22,27.4c-19.9,26.4-31,54.9-38.9,92.5c-6.7,31.8-11.4,64.2-9,99.7
		c-11.3-28.7-3-110.8,5.4-137.9c5.7-18.3,13.8-37.8,23-54.7c3.4-6.3,8.6-13,7.9-18c-1.4-10.9-16,1.6-18,3.6
		c-8.7,8.8-16.2,24.2-20.9,33.5c2.3-22.5,9.8-41.3,19.1-59c1.6-3,5.2-10.9,7.6-11.2c0.8-0.1,5,2.7,7.6,3.6
		c5.2,1.8,19.3,4.7,28.1-5.4l-5.4-5.4c-0.2,0-2.5,1.4-3.2,1.8c-11.8,6.3-24.8-0.5-31-7.6c-11.4,21.4-22.7,46-29.2,73.4
		c-14.3,60.2-21.1,125.9-5,186.5c7.8,29.3,19,56.6,32,78.8c-13.8-41.8-14.3-95.8-8.3-144c5.7-45.5,19.7-84.1,39.6-115.9
		C118.9,196,129.2,180.3,143.2,168.8z M158.3,152.6l-28.8-28.1c-0.9-0.7-2.8-1.7-3.6-1.8c-4.5-0.5-13.1,6.5-11.5,11.9l31,28.4
		C147.8,157.8,151.8,153.7,158.3,152.6z M162.5,173.1c0.2-1.5-10.1-9.6-5.3-10.5l8.4,5.9c3.5-1.8-5.9-9.1-8.3-9
		c-1.7,0.1-4.5,2.6-4.3,4.7C153.1,166.9,160.7,172.6,162.5,173.1z M183.6,194c-4.6-3.9-9-9.6-14-11.9c-0.4-5.8,4.2-9.7,8.6-11.9
		c-4.1-6.9-11.5,1.5-13,6.1c0.6,0.7,2.3,5.1-1.1,5.3l-1.8-1.4L143,197.6c0,0.3,4.3,5.7,5,6l32.7,1.6
		C178.8,198.9,181.9,196.7,183.6,194z M201.2,184.7c-1.5-2.3-6.2,0.9-8.8,3.5c-3.2,3.2-11.2,9-9.5,14.8
		C186.4,195.9,195.5,188.2,201.2,184.7z M188.6,207.4c1.2-0.8,4.1-2.7,2.9-3.6l-1.4-1.2C188.6,203.6,186.2,206.9,188.6,207.4z
		 M196,208.6l-2.2-2.1c-3.2,2.2-5.6,6.3-1.8,7.6C192,212.7,195,210.1,196,208.6z M201.2,213.5c-1-1.5-2.3-2.2-3.2-1.8
		c-1.9,0.9-3.3,3.6,0,4.7C198.5,214.8,199.9,214.6,201.2,213.5z M205.4,217.9l-2.4-2.3c-2.1,0.6-4.4,4-4.1,6.7l2.5,2.7
		C201.9,221.4,205,218.3,205.4,217.9z M209.8,227.9c1-0.6,2.6-1.8,2.2-2.7c-0.4-0.9-1.1-2.6-3-3.4
		C206.5,223.5,205.8,227.1,209.8,227.9z M218.3,230.4l-2.8-2.7c-2.2,0.3-5.7,4.7-5.5,7.2l2.8,2.4C213,234.2,216.7,231.5,218.3,230.4
		z M122.7,631.4c19.9-6.7,26.8-26.6,32.8-46.1c2-6.6,3.6-13.6,7.2-19.1c3-4.5,8.9-8.3,13-12.6c4.2-4.5,8.5-8.8,12.2-13.7
		c5.3-7.1,9.5-15.6,13.3-25.2c1-2.4,4.1-7,4-9c-0.2-2.1-4.3-3.6-4.7-7.9c-0.6-6,1.8-10.3,7.6-10.1c-1.2-4.7,3.2-4.5,5-6.5
		c1.1-1.2,0.6-2.4,1.1-3.2c1.4-2.3,4.2-2.4,6.5-1.4c-0.5-4.1,2.8-4,5.4-5.4c1.9-1,2.8-3.1,4.3-3.6c3.2-1,5.4,0.1,8.6,1.1
		c0.1-2.3,2.6-3.8,2.5-5c-9.1-2.2-14.9-7.5-26.6-7.6c-7.2,0-15,5.2-19.1,8.6c-0.9,0.7-5.6,7.4-6.8,6.1c-0.9-0.9,5-9.6,5.4-10.1
		c3.6-4.3,9.5-5.8,14.4-7.9c-5.4-1.4-11,0.5-14.8,2.9c-9.1,5.7-16.5,15.1-22,24.5c-7.8,13.4-12.2,28.5-20.2,40.3
		c-0.8,1.1-5,8.4-6.8,6.5c-0.5-0.5,1.7-4.1,2.2-5c4.9-9.5,7.7-18.5,10.8-29.2c1.2-4.1,2.3-9.3,4-12.2c1.6-2.8,4.9-5.4,7.2-7.9
		c7.5-7.9,15.6-15.4,24.1-21.6c-11.1,1.1-14.5,4.2-23.6,11.5c-1.8,2.4-5.1,9-8.8,9.4c2-3.5,2.5-8.9,5-12.6c1.9-2.8,6.9-5.9,9.7-7.9
		c3.3-2.3,7.7-6.3,11.2-6.8c6-1,11.1,2.8,18,2.2c3.1-14.6-9.6-14.7-14.4-23.4c-1.4-2.6-3-5.6-2.5-9.4c4.1,3.7,6.6,10.9,13,11.2
		c-0.9-9.8-5.6-16.5-9.4-23c-1.2-2.2-3.1-4.6-2.9-7.2c8.1,3.5,11,12,16.2,18.4c0.8-3.4-1.2-8.3,0.7-10.4c4.2,4.6,7.5,9,9.7,15.1
		c1.2,3.3,0.3,7,1.4,10.8c1.4,4.8,9.6,8.2,12.2,13.3c1.9,3.6,2.4,11.9,4.7,14.4c3,3.4,9.6,1.8,12.2,5.4c0.4-3.5,4-2.4,6.5-3.6
		c3.2-1.6,4.3-5.8,8.6-5.8c2.6,0,5.4,2.5,6.8,0.4c3.2-4.6-4.9-10.6-5.4-14.4c-1-7.7,3.7-14.2,0.7-22.3c-0.9-2.6-3.5-4.8-5-7.6
		c-1.5-2.7-2.6-6.1-4-9c-2.6-5.5-7.9-10.1-9.7-16.2c-0.6-1.8,0.2-4.4-0.4-6.5c-0.5-2.1-3.6-4.3-5.4-6.8c-1.6-2.3-3.8-5-4.7-7.6
		c-1.7-5.3-1.8-15.3-1.8-21.6c0.1-22.8,6.8-45,13.3-63.4c2.8-7.9,5.2-14.9,8.6-21.6c4.8-9.2,10.9-19.5,14.8-30.6
		c1.1-3.2,3.1-9.5,4.7-10.4c3.8-2.2,9.7,0.3,12.2-3.6c-7.2,0.3-19.4-1.3-24.8,2.5c-2,1.4-5,7.8-6.8,11.9c-2.1,4.8-4.2,9.1-5.8,13
		c-11,26.9-23.9,54.3-25.6,86.8c-0.3,5.8,1.4,11.3-1.1,14.4c-5.5-47.2,14.5-80.1,27.7-114.1c-4.7,1.7-6,7.1-7.9,11.2
		c-5,10.5-11,21.9-14.4,33.1c-0.7,2.2-0.4,5.5-2.9,6.8c-0.5-15.4,8.8-24.1,10.4-38.5c-5.5,3.4-11.1,9.2-16.2,13.3
		c-1.9,1.6-4.7,2.8-5.8,4.3c-2.8,3.9-3.8,12.7-5.4,18.7c-4.4,16.4-8,31.8-9.7,50.4c-0.4,3.8-1.3,7.9-1.1,11.2
		c0.5,5.7,4.4,10.8,6.8,14.8c0.6-2.3-0.3-7.8,2.2-10.1c3.1,10.4,5.4,17.4,13,22.7c3.5,2.5,8.7,2.4,12.6,4.7c4.4,2.6,8,7.8,9.4,12.6
		c-6.6-5.3-16.2-9.5-24.5-11.9c7,7.1,19.1,10.7,25.6,18.4c1.8,2.1,3.8,5,3.6,8.3c-5-1.9-8-5.7-13-7.6c5.7,7.2,12,13.3,17.6,20.9
		c2.8,3.7,6.5,8.7,6.8,13c0.2,2.9-1.2,4.9-1.4,7.6c-0.4,3.9,2.1,13.6,1.1,14c-2.1,0.9-5.2-6.7-5.4-7.2c-1.1-2.7-1.5-4.8-1.8-7.2
		c-1-7-2-13.9-5.4-19.1c-4.3-6.6-11.2-10-16.9-16.9c-3.9-4.7-6.3-10.6-11.2-15.8c-2-2.2-11.3-12.4-16.2-10.8
		c-1.8,0.6-3.6,7.2-1.4,9.7c1.9,2.2,9.8,2.3,12.2,4c3.4,2.3,5.5,7.6,7.9,11.2c2,3,3.7,6.2,5.8,9c4.2,5.7,9.2,12.4,7.9,20.5
		c-3.2-6.5-9.1-13.1-14.8-20.2c-5.4-6.6-11.4-14-18.4-16.9c-2.1-0.9-8.6-2.9-11.5-1.4c-2.2,1.1-2.3,4.8-4.3,6.8
		c0.6,0.9,2.5,0.3,2.2,2.2c-12.7,4-24.4,8.7-34.6,16.2c-4.2,3.1-3.3,7.7-4.3,14.4c-2.4,14.9-11.9,28.5-5.8,44.6
		c3.7-11.2,8.4-22.6,15.1-30.6c2.2-2.6,4.9-5.7,8.3-6.5c-3.3,5.3-7.9,9.8-10.8,16.2c-5.9,12.8-8.4,28.4-11.9,42.8
		c-1.7,7-5.2,14.4-3.6,20.9c3.3-6.6,6.8-14.3,9-22.3c0.7-2.6-0.1-5.9,2.2-7.9c1.8,3.5,1.5,6.7,1.1,9.7c-2,13.4-11.7,27.4-15.5,40
		c-1.7,5.5-0.3,12.3,0,18c0.9,17.1-3.1,34.4-10.8,47.2c-2.2,3.6-5.7,7.2-8.6,10.8c-8.6,10.5-19.5,20.4-32.8,25.6
		c-3.6,1.4-7.8,3.1-11.2,2.9c4.4-4.2,10.6-6.2,15.8-9.4c7.4-4.5,14.2-10.8,18-16.9c-14.5,12.7-36.6,21-48,25.6
		c-1.4,1.2-3.2,7.8-4.2,10c-4,8.6-7.5,18.1-9,27c8.1-13,22.9-22.1,37.8-27C94.5,638.2,109,636,122.7,631.4z M203,602.6
		c14-6.5,27-12.9,36.7-21.6c5.3-4.7,11.3-13.2,15.1-18.7c3.2-4.6,7.1-10,8.6-16.6c1.2-5.2-1-7.3-2.9-4.7
		c-4.6,6.1-6.9,13.6-11.2,19.8c-11.5,16.9-28.5,27.5-48.2,36.4c-5.8,2.6-11.6,6-18,8.6c-8.1,3.3-18.7,6.9-24.5,11.9
		c-6.5,5.6-10.2,15.4-16.9,20.5c-2.8,2.1-8.5,5.5-11.5,6.5c-7.7,2.6-16.7,0.2-22,5c8.1-1.5,15.7,0.9,23.4-1.1
		c5.2-1.3,12.2-7.5,15.5-11.5c2.7-3.3,3.9-6.9,6.1-9.7C164,613.8,186,610.5,203,602.6z M238.6,587.5c-2.4,2.7-5.8,4.5-8.3,7.2
		C234.1,593.5,242.3,592.6,238.6,587.5z M222.4,633.6c4.5-3.9,10-9.7,9.4-17.6c-5,0.1-9.2,3.2-13,5.8c-7.6,5.3-15,9.6-23,14.4
		c-3.9,2.4-8.2,4.9-12.2,6.5c-4.4,1.7-9.1,4-14.4,4c3.1-3.7,8-4.9,12.2-7.6c8.6-5.3,18.2-13.1,27.7-19.8c6.9-4.9,15.3-8.6,23.8-11.9
		c2.3-0.9,7.9-1.6,7.9-4.3c0-1.6-1.5-2.8-3.6-2.2c-17.6,5.7-35.9,17.1-49.3,27.7c-4.9,3.9-9.3,8.6-14.8,11.2c-0.3-5.3,3.6-9.3,5-14
		c-15,10.4-24.8,26.1-32,44.3c9.5-13.1,24.6-18.1,42.1-22.7C201.3,643.9,213.7,641.1,222.4,633.6z M291.2,623.5
		c13.5-20.6,27.2-38.1,46.1-53.3c9.2-7.4,19.2-15.1,29.2-20.9c8.6-5.1,18.3-9.3,25.2-16.2c11.4-11.4,13.6-31,19.1-50
		c3.8-13.1,12-22.1,20.2-31.7c0.9-1.1,8.5-7.6,7.9-9.4c-0.8-2.8-6.1,0.1-6.5,0.4c-6.1,4.1-11.3,9.5-15.1,14
		c-4.7,5.7-12.6,16.4-14.8,24.5c-0.8,3-0.4,7.2-0.7,10.4c-0.7,7.2-3.5,10.8-6.5,15.5c-1.7,2.6-2.9,6-6.1,6.5c0.3-3.5,2.7-5.3,4-8.3
		c3.8-9.2,2-21.1,4.3-31.7c1.5-6.8,6.7-12.8,10.8-18c4.6-5.8,9-10.7,13.7-15.5c-4.8,1.1-8.5,3.7-11.9,6.5c-3.4,2.8-6,6.7-9.7,8.3
		c2.8-13.4,13.4-19,23.4-25.2c-1.7-5.8-9.9-5.5-14.8-2.9c-1.1,0.6-5.3,6.2-6.5,5c-1-1,1.2-6,1.8-7.2c1.3-2.3,8.4-7.5,8.6-9.7
		c0.3-2.1-2.7-5.3-4-6.5c-7.6-7-15.2-0.2-18.7,6.1c-1.3,2.3-0.9,5.3-3.6,6.8c-3-5.8-4.3-16.6-2.2-24.1c-4.4-0.4-3.9-6-2.5-9.4
		c-4.3-1.5-8,1.1-11.2,0.4c-4-0.9-5.4-7.6-11.2-6.5c-1.2,7.2-4.4,13.8-8.6,17.3c-0.4-11-0.9-23.7-11.2-25.9c0.8,5,7.3,7.7,7.9,13.3
		c0.3,2.7-1.2,7.1-2.2,10.8c-2.7,10.9-4.4,22.8-5.4,33.1c-4-6.6-6.7-14.8-5.4-25.2c0.7-6,5.3-10.8,4-16.2c-0.4-1.7-4.9-6.4-5.4-5.8
		c3.3,7.8-0.1,12.3-3.2,18.4c-1.9,3.7-4,6.8-5.8,9.7c-4.3,7.2-5.7,14.8-10.4,20.2c-0.8-3.2-0.3-7.9,0-11.2
		c-6.5,3.9-12.3,11.6-15.8,19.1c-1.2,2.6-1.6,6.6-5,7.2c-0.4-5.4,1.3-9.7,2.5-13.7c1.2-4,2.1-8.6,4.3-12.6
		c2.7-4.9,10.3-11.4,14.4-14.8c4.6-3.8,12.8-9.5,14-15.1c1.1-4.8-1.3-12.4-0.4-16.9c2.6-12.9,8.7-23.4,14.8-32.4
		c2.3-3.4,5.5-7.1,5.8-10.1c0.5-5.3-2.1-12.5-3.2-17.6c-1.3-6.1-3.2-11.5-5-16.2c-4.3-11-7.5-20.3-13.3-28.4
		c-12.1-16.9-26.5-29.7-34.9-50c0-0.2-0.1-0.4-0.4-0.4c-2.1,5.8,2.3,11.8,5.4,16.6c5.2,7.9,9.6,14.7,15.5,20.9
		c2.9,3.1,6.4,6.1,9,9.4c8.8,11.1,14.5,24,19.1,38.5c2.3,7.2,5.8,16.5,6.5,22c1.2,9.9-3,10.5-7.9,16.6c-4.9,6.1-8.8,13.2-11.9,20.5
		c-2.1,4.9-4.6,10.3-5.8,16.6c-0.7,3.9-0.1,10.1-1.8,13.3c-1.8,3.3-8.3,6-12.2,8.3c-3.6,2.1-10.8,4.8-13.3,7.2
		c-2.1,2-4.2,6.9-5.8,10.1c-5.8,11.6-7,23.2-12.6,35.3c2.6,0.7,4.7-0.5,6.8-0.7c1.1-0.1,2.9,0.3,4,0c1.8-0.5,2.9-2.3,5-2.5
		c1.7-0.2,3.6,1.2,5.8,1.1c5.9-0.4,13.4-10.9,19.4-10.1c2.5,0.3,5.3,4.8,4.7,9.4c-0.6,4.8-6.2,11.1-11.2,14.4
		c-4.7,3.1-11.4,8.9-18,8.3c-1.6-0.1-2.9-1.6-4-1.8c-2.3-0.4-6.2,0.1-8.3,0.7c-2.6,0.8-5.2,3.9-8.3,1.8c-3.1,11.4,14.1,6,15.8,14.8
		c0.3,1.6-0.5,3,0,4.3c4.9-3.5,9.3-7.6,14.8-11.2c13.8-8.9,29-16.2,40-27.4c2.2-2.2,4-5.1,6.8-6.8c0.4,2.8-0.9,5.8-2.2,7.9
		c-10.7,18-30.1,28.1-45.4,41c-2.3,1.9-5.9,4.3-5.8,7.9c2.7-0.5,5.2-2.4,7.6-4c6.2-4.2,16.5-11.9,23.4-12.6
		c-8,13.2-24.1,19-31.3,28.8c-1.4,1.7-1.2,4.1-2.9,5.4c-2.2,1.6-5.5,1.3-7.6,2.2c-3.1,1.3-5.4,4.5-7.6,7.2c-2.7,3.3-2.6,7.9-7.6,8.3
		c-1.3,9.5-5.3,16.2-9,22.3c-1.7,2.9-3.1,5.1-5,7.6c-4,4.9-9.7,9.9-10.1,18c13.5-7.2,24.6-18.5,35.6-29.5c9.7-9.7,18.7-20.1,27-30.6
		c0.9-1.1,2.3-3.6,4.3-3.2c-3.4,9.7-9.3,16.1-15.5,24.5c-4.8,6.5-10.5,12.7-15.5,18.4c-4.9,5.6-10.2,11.6-16.9,16.9
		c-11.6,9.1-21,12.1-19.4,18c10.9-5,20.6-12.4,28.8-19.8c2.8-2.5,5-5.6,8.3-7.2c-0.5,5.4-4.6,8.5-7.6,11.5
		c-7.8,7.9-16.6,15.8-27.4,20.9c-2,1-5.9,1.9-6.8,2.9c-1,1-1.5,4.5-2.2,6.8c-2.1,7.1-4.7,14.7-7.9,19.8
		c-9.8,15.7-34.8,19.6-48.2,31.3c-1.7,1.5-4.1,3.1-3.6,4.7c21.3-10.1,45.2-5.1,59.4-19.1c4.2-4.2,7.8-9.2,13.3-13
		c4-2.8,9-4.5,13-7.6c12.1-9.2,18.1-25.6,26.6-38.2c6.7-9.8,14.4-18.3,21.6-27c2.5-3,5.6-5.4,7.9-8.3c2-2.5,3.2-6.1,5-9
		c9.3-15,18.1-29.4,25.6-45.7c3.1-6.7,7.4-13.5,7.2-21.6c-3.6,5.5-6.1,11.6-9.4,17.3c-3.3,5.7-6.2,11.7-10.1,16.9
		c-3.9,5.2-8.1,10-11.5,15.5c-10.3,16.7-23.5,30.7-34.9,46.1c-5.8,7.8-10.8,16.4-15.8,24.5c-1.5,2.5-2.8,5.9-5.8,7.2
		c5.5-16.5,15-30.9,24.5-44.6c9.3-13.5,19.2-26.5,29.5-39.6c9.7-12.4,20-26.6,26.3-42.8c3.3-8.4,7.3-16.2,9.4-25.2
		c2-9.1,4.8-18.1,5.4-28.4c0.5-8.5-0.9-14.4-2.2-20.9c-0.8-4.1-4.1-9.4-4.3-12.6c-0.2-3.8,2.2-8,4.3-10.4c2.6,3.3,0.6,7.3,1.4,11.5
		c0.6,3.1,3.4,6.2,4.3,9.7c1.1,4.1,0.8,7.8,2.5,11.5c1.3-6.4,1.2-15.2,2.2-20.9c2.6,2.8,3,7.8,3.2,12.2c0.8,16.7-3.4,35.8-7.9,49
		c2.3-0.1,2.6-3.3,5-2.2c1.4,9.3-5.7,14.9-4.3,24.1c8-7.6,6.3-24,9.7-36.4c0.6-2.2,2-4.5,2.9-6.5c0.9-2,1.3-5.2,4-5.4
		c-1.5,10.4-2,23-2.5,32.8c-0.4,8.3-0.9,15.7-3.2,23c-2.2,7-4.2,13.7-5.4,20.2c1.7-2.7,3.9-5.2,5.4-8.3c1.6-3.2,1.9-7.1,4.3-9.7
		c3.5,13.2-5.6,22.4-11.5,29.5c-2.4,2.9-4.7,6.1-7.2,8.6c-16.1,15.9-34.8,28.4-50.4,44.6c-5.4,5.6-11.2,10.1-15.5,16.2
		c-7.8,11.2-23.9,40.9-24.5,68.4C281.8,646.5,284.4,633.8,291.2,623.5z M354.2,515.1c-6.1,10.7-15.3,20.2-18,33.1
		C345.3,540.5,357.1,533.6,354.2,515.1z M293,464c-0.7,1.2-2,0.9-3.2,0.7c-1,6.4,6,4.7,9.7,2.9c2.4-1.2,6.9-4.2,9.7-6.1
		c2.9-2,9.2-8.7,9.4-12.2c0.1-2-1.6-4.7-2.5-4.3c-4.7,1.8-14.1,10.5-19.1,10.4c-1.9,0-6.9-3.6-7.9,1.1
		C288.2,460.2,292.2,461,293,464z M443.1,461.9c-0.6-2.2-4.2-5.3-5.4-5.4c-2.5-0.2-4.4,2.9-4,5.4c0.4,1.9,4.2,5,5.8,7.6
		c3.1,5.2,3.7,11.1,6.8,15.5c0.7,1,1.3-1.1,2.9-0.4c0.8,1.2,1.4,2.7,4,2.2c-1-2.5-3.8-4.7-4.3-7.9c-0.1-0.8,0.3-2.1,0-2.9
		c-1.3-3.2-6-2.8-6.1-5.8c0.3-1.3,3-0.2,3.6-1.1c-0.6-1.7-2.4-2.7-3.2-4.7C442.8,463.7,443.4,462.7,443.1,461.9z M453.6,473.4
		c0,1.4-1.2,2.6-1.1,4c0.4,5.1,7.2,8.2,7.2,1.4c0-1.1-1.6-3.8-2.2-6.1c-0.5-2.4-0.6-5.2-1.1-7.6c-0.7-3.4-2.4-7-4.1-9.3l-5.3-7.2
		c0.2,5.4,1.4,9.8,2.9,14.4C451.2,466.8,453.6,471,453.6,473.4z M464,496.1c-1.6,5.2-3.2,11.3-4.7,15.8
		c-4.8,14.4-11.7,25.2-20.2,36.4c-10.7,14-27.3,22.5-45.4,29.9c-34,14-72.5,30.4-103,67c15.3-12.9,32.3-27.9,51.8-38.2
		c17.7-9.3,33.5-15.3,52.2-22.3c10.6-3.9,22.1-7.4,30.6-14c14.2-11.2,32.7-33.3,37.8-51.5C464.7,514,470.1,496.6,464,496.1z
		 M475.2,483.8l-9.1-11.1c-0.1,2.3-0.1,4.7,0.7,6.1c-1.1,1.6-3.6,1.2-4.3,2.5c-1.7,3.1,0.9,7.8,4.7,7.2c2.4-0.4,2-3.3,4.7-3.6
		c1.2,0.1,0.6,2.1,0.7,3.2C475.3,487.1,476.4,485.2,475.2,483.8z M568,444.9l-138.2-75.2c-5.3,1-13.8,9.1-19.1,16.9
		c-1.3,1.9-3.6,6.6-2.9,9.3l98.7,121c3.8-15,14.4-27.6,24-38.8C541.1,465.9,553.1,451.9,568,444.9z M243,273.9
		c-0.5,0-0.5-0.5-1.1-0.4c-1.7,3.9-2.6,8.5-3.6,13C241.4,284.1,242.9,278.2,243,273.9z M251.7,515.2c-0.4,1.7-0.5,4,1,4.6
		c2.9-2.1,1.3-8.5-2.5-8.3C250.6,512.6,252.1,513.8,251.7,515.2z M253.8,470.1c-0.2,0-0.6,0-0.7,0c-2.4,0.7,0.2,5.1,1.1,6.8
		c2.1,4.4,3.4,8.1,7.2,10.1C258.9,482.6,259.2,471.5,253.8,470.1z"/>
	<path fill="#A2AAAF" d="M129.6,124.5c-0.9-0.7-2.8-1.7-3.6-1.8c-4.5-0.5-13.1,6.5-11.5,11.9l31,28.4c2.4-5.2,6.4-9.3,12.9-10.4
		L129.6,124.5z M145,158l-26.3-24.8c0-0.6,2-4.3,3.6-4.3l22,20.2c2.5,0.6,7.4-3.1,9,0.7C150.2,152.1,146.1,153.6,145,158z
		 M138.2,163.4l5,5.4c-14,11.4-24.4,27.2-34.6,43.6c-19.9,31.8-33.9,70.4-39.6,115.9c-6.1,48.2-5.5,102.2,8.3,144
		c-13.1-22.2-24.2-49.5-32-78.8c-16.1-60.6-9.4-126.3,5-186.5c6.5-27.4,17.8-52.1,29.2-73.4c6.2,7.1,19.1,13.8,31,7.6
		c0.7-0.4,3-1.8,3.2-1.8l5.4,5.4c-8.8,10.1-22.9,7.2-28.1,5.4c-2.5-0.9-6.8-3.7-7.6-3.6c-2.3,0.2-6,8.2-7.6,11.2
		c-9.3,17.8-16.8,36.5-19.1,59c4.7-9.2,12.2-24.6,20.9-33.5c2-2,16.6-14.5,18-3.6c0.6,5-4.5,11.7-7.9,18c-9.2,17-17.4,36.4-23,54.7
		c-8.4,27-16.7,109.1-5.4,137.9c-2.4-35.5,2.3-67.9,9-99.7c7.9-37.7,19-66.1,38.9-92.5c6.3-8.3,13.1-19.3,22-27.4
		C131.4,168.6,137.2,163.4,138.2,163.4z M182.9,202.9c-1.7-5.8,6.3-11.6,9.5-14.8c2.6-2.6,7.3-5.7,8.8-3.5
		C195.5,188.2,186.4,195.9,182.9,202.9z M398.4,204.4l-35.6-8.1l7.6-4.3l34.9,7.7L398.4,204.4z M340.1,268c0,0.2,1.5-3,2.5-2.2
		l33.9,26.1c-4,0.2-6.8-2.3-9.7-4.3c-5.8-4-11.9-7.9-18-12.6C347,273.7,340.1,269.6,340.1,268z M463.6,287.6
		c-2.4-3.5-7.4-10.5-5.9-11.5c2.7-1.9,7.3,5.4,10.2,9c1.1,1.4,20.9,26.4,18.4,27C483.1,312.8,465.5,290.3,463.6,287.6z M393.8,302.7
		c1.6,1.6,3.1,3.5,4.7,5c1.6,1.6,4.6,3.2,3.2,5.8c-2.2-0.2-4.1-2.4-5.8-4c-1.7-1.6-3.4-3.4-5-5c-3.5-3.4-7.6-6.6-9.7-10.1
		C385.1,293.3,390.9,299.8,393.8,302.7z M426.9,367.2c-3.6-2.9-4.2-3.9-6.1-5.8c-2-2-2.7-4.6-4.7-6.8c-3.1-3.6-7.8-7-11.5-10.4
		c-2.6-2.5-9.9-8.7-10.1-11.9c-0.1-4,6.7-10,7.6-12.6c-9.2-9.9-19.4-17.7-29.9-24.8c-3.3,2.4-10.3,11.6-10.2,14.5
		c0.1,3.7,5.2,5.9,5.2,8.5c0,2.4-5.3,4.9-5.5,8.1c0.2,1.7,7.7,7.4,10.2,9.6c9.6,8.3,17.7,15.1,27,23c1.7,1.4,4.3,4.4,5.4,4.7
		c1,0.2,2.7-0.6,3.6-0.4l11.5,9.4C421.4,370.1,424.2,368.6,426.9,367.2z M375.8,321.5c-3.4-3.2-8.6-6.9-9-11.2
		c-0.4-4.6,2.7-9.2,6.5-10.1c3.9-0.6,9.9,4.2,13.7,7.6c3,2.7,9.6,8.3,10,10.8c0.5,4.5-4.6,10.8-8.9,10.8
		C384.1,329.3,379.8,325.2,375.8,321.5z M398.8,353.5l-8.3-7.9c-0.2-1.9,0.7-4.4,3.4-4.1l8.5,7.7
		C402.6,351.6,400.7,353.5,398.8,353.5z M408.9,330.1c-1.4,6.1,4.2,4.8,7.6,7.2c1.5,1.1,3.7,4,3.6,5c-0.1,1.4-4.4,5.4-5.4,5.4
		c-0.8,0-6.2-4.9-7.9-6.5c-2.6-2.4-5.5-4.6-7.2-6.8c-3.5-4.6,2.3-8,4.7-12.2l6.5,5.4C410.8,328.4,409.1,329.2,408.9,330.1z
		 M391.6,375.8c-0.6,1.7-1,3.9-0.4,6.8c-3.2,0.1-6.1,0.8-9.4,1.1c-2.8,0.3-7.7,1.1-9.3,0.7l-29.2-30.6c-1.1-1.3-2.9-3.2-1.1-5
		l31.3,31c4.1,1.7,10.9-0.6,11.2-3.6l-35.6-37.1c0.1-0.8,1.7-1.5,2.2-1.1L391.6,375.8z M392.7,372.6l-9.4-8.6
		c2.1-2.5,4.8-4.3,4.3-9.4l12.2,10.8C399.2,365.2,393.3,371.9,392.7,372.6z M410,369.7c-6.1,2.6-9.5,7.4-11.9,13
		C390.1,378.7,405.1,362.4,410,369.7z M374.3,376.4l-5.7-5.2l6.1-1.3l6,6.1C378.5,377,376.1,377.3,374.3,376.4z M401,386.3
		c-0.5-3.1,5.2-9.8,7.6-11.5c1.1-0.8,3.2-1.8,4.3-1.8c0.1,0,3.3,0,3.2,2.5c-5.1,4.2-8.3,9.9-10.8,14.8
		C404.8,390.3,401.1,387.2,401,386.3z M336.7,276.5c-0.2-1.9,0.7-3.9,2.7-5.6l8.8,7.1c-2,3.9-4.1,7.6-6.8,10.3
		C340.1,284.7,337.8,280.2,336.7,276.5z M350.6,279.3l7.9,5.8c-3.7,5.9-7.6,11.6-11.9,16.9l-4-9.7
		C343.4,290.1,349,283.2,350.6,279.3z M369.7,293c-3.6,6.6-11.9,11.9-10.1,18.6c0.3,1.7,3,4.3,4,6.2c0,2.2-3.9,4.3-4,6.1
		c-2.2-1.3-3.1-2.5-5-4.3c-1-0.9-4.3-3.3-4.3-5c0-2,4.5-4.8,4.8-7.5c0.4-3.4-2.7-4.5-4.1-5.8l9.7-14.4L369.7,293z"/>
	<path fill="#63656A" d="M175.5,177.3c3.9-3.5,7.4-0.4,10.9,2.7c1.5,1.3,5,3.6,5,4.7l-3.6,3.6L175.5,177.3z M350.6,268.2
		c1.5-0.3,4.7-7.7,6.1-10.8c4.8-10.6,10.2-28.2,10.4-39.6c0.3-6-0.7-9.9,0.4-12.2c2.6,1.9,2.7,7.8,2.5,12.2
		c-0.5,16.7-7.7,34.3-13.7,46.8c-0.1,0.1-3.3,5,0.2,5.4c2.6,0.3,6.5-10.1,7.7-13c5.2-11.5,10.2-27.4,10.1-41.4c0-2.8-1-8.3,0.4-8.6
		c1.6,0.8,1.6,2.8,1.8,4.3c0.6,5.6,0.1,13-0.7,18.7c-1.7,11.5-6.9,25.5-11.5,34.9c-1.2,2.6-5.6,8.8-5.4,10.1l4.7,3.2
		c3-3.2,5.6-9,7.2-12.2c7.9-16.2,13.9-32.8,13-56.1c3.3-0.2,3.1,11.5,2.8,15.5c-0.8,14.9-8.6,34.8-13.7,45.4
		c-0.8,1.6-5.3,8.6-6.1,10.1l4.7,3.4c1.6-1,3.5-4.7,5-7.4c8.8-15.7,16.1-34.1,15.1-58.3c-0.1-2.2-0.5-5,0.7-6.1
		c1.8,1.5,2.3,5.6,2.5,7.9c1.4,19-5.6,40.9-13.3,55.1c-1.7,3.2-7.5,10.4-6.5,12.1c1.7,2.8,4.6-0.4,5.8-2c8.9-12.2,23.3-41,17-77.1
		l-36.1-8.2c-0.5,1.5,0.3,4.6,0.4,6.8c0.7,16-4.2,33.6-9.4,46.1c-1.3,3.3-6.1,11.2-5.8,12.6L350.6,268.2z M352.8,306.7
		c-0.5-1.8-2-2.6-3.5-3.1l-1.9,2.4l2,5C351.2,309.1,352.1,308.1,352.8,306.7z M380.7,321.2c1.4,0.6,2.3,2.6,4.1,2.8
		c0.3-1.7,1.7-5.1,0.4-7C383.6,319.2,382,320,380.7,321.2z M371.8,353.5c1.9,1.8,5.5,5.4,7.2,5.4c3.2-0.1,4-5.2,3.2-7.6
		c-0.7-2.2-4.7-5.5-6.8-7.6L352,323.6c1.2,4.6,1.8,8.2,1.1,11.9L371.8,353.5z M392.9,345.5l5.6,5.1c0.7,0.5,2.5,0.2,1.3-1.8l-5-4.6
		C393.4,343.1,392.5,344.5,392.9,345.5z M429.8,369.7L568,444.9c-14.9,7-26.9,21-37.4,33.1c-9.7,11.2-20.2,23.8-24,38.8l-98.7-121
		c-0.8-2.7,1.6-7.4,2.9-9.3C416,378.8,424.5,370.7,429.8,369.7z M472.6,466.5c-3-7.2-9-13.1-14-19.4c-12.5-15.7-35.1-44.4-42.8-57.6
		c-1.5-1.3-5.1,3.4-5,5c0,2.3,5.2,7,7.2,9.4C436.4,425.5,453.8,446.7,472.6,466.5z M423.3,380.9l91.4,87.5c-4.7,9-9,21.4-8.7,31.4
		c8.5-14,18.8-27.3,31.4-39.3c1.4-1.4,10.6-8.7,10.4-10.4l-117.4-76C428.1,372.8,424.2,379.1,423.3,380.9z M410,313.2
		c-3.8-0.5-4.4,4.3-2.9,7.2c1.4,1.4,5.9,4.7,6.7,5.6c1.4-1,3.6-0.7,5-0.2c0.1-2.1-3.3-2.4-4.3-2.9
		C410.7,320.9,410.2,318.8,410,313.2z M455,304.2c2.4,3.1,5.1,5.9,5.4,10.1c2.9-1.1,5.4-2.6,8.6-3.2c0.3-2.6-2.4-4.1-1.1-6.5
		c2.7,2.2,10.9,11.9,9.7,12.2c-4.2,0.7-8.1,0.7-11.9,1.4c-6.4,1.2-11.5,5.4-16.9,6.1c-1.4-2.6,3-2.8,2.9-5c-0.1-1.2-5.7-5.8-6.5-5
		c4.2,4.1,3,14.2-5,11.2c-3-1.1-4.5-7.2-7.9-6.1c3.1,2.5,6.8,10.4,1.4,12.2c-1.4,0.5-4-0.8-5.4,0.7c4.8,4.6,8.2,0.4,13.3-2.2
		c8.6-4.4,17.9-9.5,28.1-10.4c5.8-0.5,9-0.5,13.4-3.4c-10.8-10.8-21.9-23.5-30.7-36.9c-1.9,6.9,6.3,11.6,6.5,17.6
		c-2.3-0.5-3.1-2.5-5-3.2C450.4,298.1,452.7,301.3,455,304.2z M232.9,234.7L193,195.4l-2.5,2.4l39.3,39.1L232.9,234.7z M210.7,207.3
		l2.8,2.5c2.7-4.5,7.6-6.8,12.6-9C223.4,194.2,212.3,205,210.7,207.3z M227.1,238.7c-2.4-2.1-4.6,3-4.7,4.3
		C223.9,241.5,226.1,240.7,227.1,238.7z M222.4,219.2c0.2,1.1,2.2,1.8,2.9,2.2c2.9-4.3,7.5-6.9,12.2-9.4
		C236.1,204.4,222.1,217.1,222.4,219.2z M234,230.4c0.1,0.7,1.4,1.5,2.2,1.4c2.6-0.2,5.4-6.6,7.6-7.9c0-0.4-0.1-0.9-0.7-0.7
		C241,223.5,233.6,228.1,234,230.4z M200.5,197.6l2.4,2.3c1.6-1.9,5.1-4.7,8.4-6.2c1.7-0.7,3.5-1.1,5.1-1.4
		C212.7,186.9,201.2,194.9,200.5,197.6z M215.5,227.7c-2.2,0.3-5.7,4.7-5.5,7.2l2.8,2.4c0.1-3.2,3.9-5.9,5.5-7L215.5,227.7z
		 M198.9,222.3l2.5,2.7c0.5-3.6,3.6-6.7,4-7l-2.4-2.3C200.9,216.2,198.6,219.7,198.9,222.3z M192,214.1c0-1.4,3-4,4-5.4l-2.2-2.1
		C190.6,208.7,188.2,212.8,192,214.1z M210.2,203.4c2-1.8,5.9-4.6,8.3-5.8C215.4,192.9,203.5,202.7,210.2,203.4z M198,211.7
		c-1.9,0.9-3.3,3.6,0,4.7c0.5-1.5,1.9-1.7,3.2-2.8C200.2,211.9,198.9,211.3,198,211.7z M191.5,203.9l-1.4-1.2
		c-1.5,1-3.9,4.2-1.5,4.8C189.8,206.7,192.7,204.8,191.5,203.9z M217.8,211.3c0,0.6,2.6,2.9,3.6,2.9c2.3-1.1,5.6-4.3,7.9-5.8
		c-0.9-1.4-2.5-2.9-4.4-2.9C221.5,205.7,218.3,209.2,217.8,211.3z M212.1,225.2c-0.4-0.9-1.1-2.6-3-3.4c-2.6,1.7-3.3,5.4,0.7,6.1
		C210.9,227.3,212.5,226.1,212.1,225.2z M199.8,193.6c2.2-2.4,7-4.3,7.8-5C202.8,186.1,194.3,193.8,199.8,193.6z M221.8,233.3
		c-1.5-0.6-3.4,0.4-4.2,3c0.5,2,2.8,3.6,3.3,2.3c0.4-1.3,2.4-2.8,2.7-3.2C223.6,234.3,222.6,233.6,221.8,233.3z M237.2,217.4
		c-1.7,0.2-5.4,2.4-7.6,5.2c0.1,0.8,2,2.8,3.1,2.8c1.1,0,8-4.8,8-5C241,218,238.4,217.3,237.2,217.4z M159.6,192.2l-6.2,4.6
		c3,0.6,7.9-0.4,7.7-1.5C161,194.5,160.4,192,159.6,192.2z M183.6,194c-1.6,2.7-4.8,4.9-2.9,11.2l-32.7-1.6c-0.7-0.3-5-5.8-5-6
		l19.3-17.2l1.8,1.4c3.4-0.2,1.6-4.6,1.1-5.3c1.5-4.6,8.9-13,13-6.1c-4.5,2.2-9.1,6-8.6,11.9C174.5,184.4,179,190.1,183.6,194z
		 M181,194.7l-14.4-13l-17.7,15.5l0.7,2.7l26.4,1.2L181,194.7z M114.1,124.9c-5.5-5.5-11.1-10.3-13-14.8c5.9-1.3,9.9,4.1,13,7.6
		c2.4,2.6,3.9,3.9,6.5,1.5c-3.4-3.5-11.6-11.7-15.8-14.1c-1.9-0.4-8.8,4.1-8.5,8.3c3.7,3.7,11.4,11,16.1,14.4
		C112.7,126.7,113.5,125.9,114.1,124.9z M157.2,162.6l8.4,5.9c3.5-1.8-5.9-9.1-8.3-9c-1.7,0.1-4.5,2.6-4.3,4.7
		c0.2,2.7,7.7,8.4,9.5,8.9C162.6,171.6,152.4,163.4,157.2,162.6z M122.7,631.4c-13.7,4.6-28.3,6.8-41.4,11.2
		c-14.9,4.9-29.7,14-37.8,27c1.5-8.9,5-18.4,9-27c1-2.2,2.8-8.8,4.2-10c11.4-4.6,33.5-12.9,48-25.6c-3.8,6.1-10.6,12.4-18,16.9
		c-5.2,3.2-11.5,5.1-15.8,9.4c3.4,0.3,7.5-1.5,11.2-2.9c13.3-5.2,24.1-15.1,32.8-25.6c2.9-3.6,6.5-7.2,8.6-10.8
		c7.7-12.8,11.7-30.1,10.8-47.2c-0.3-5.7-1.7-12.5,0-18c3.8-12.6,13.5-26.6,15.5-40c0.4-3,0.7-6.2-1.1-9.7c-2.3,2-1.4,5.4-2.2,7.9
		c-2.2,8-5.7,15.7-9,22.3c-1.6-6.4,1.9-13.9,3.6-20.9c3.5-14.5,6-30,11.9-42.8c2.9-6.4,7.5-10.9,10.8-16.2c-3.4,0.7-6.1,3.9-8.3,6.5
		c-6.7,8-11.4,19.4-15.1,30.6c-6.1-16.1,3.4-29.8,5.8-44.6c1.1-6.7,0.2-11.3,4.3-14.4c10.1-7.5,21.8-12.2,34.6-16.2
		c0.4-1.8-1.6-1.3-2.2-2.2c2-2,2.1-5.8,4.3-6.8c2.9-1.4,9.4,0.5,11.5,1.4c6.9,2.9,13,10.3,18.4,16.9c5.7,7,11.6,13.7,14.8,20.2
		c1.2-8.1-3.8-14.8-7.9-20.5c-2.1-2.8-3.7-6-5.8-9c-2.4-3.6-4.6-8.9-7.9-11.2c-2.4-1.6-10.3-1.7-12.2-4c-2.2-2.5-0.4-9.1,1.4-9.7
		c4.9-1.6,14.2,8.6,16.2,10.8c4.8,5.2,7.3,11.1,11.2,15.8c5.7,6.9,12.6,10.3,16.9,16.9c3.4,5.2,4.4,12.1,5.4,19.1
		c0.3,2.4,0.7,4.5,1.8,7.2c0.2,0.5,3.3,8.1,5.4,7.2c1-0.4-1.5-10.1-1.1-14c0.3-2.7,1.6-4.6,1.4-7.6c-0.3-4.2-4.1-9.2-6.8-13
		c-5.6-7.6-11.9-13.7-17.6-20.9c5,1.8,8,5.7,13,7.6c0.2-3.3-1.8-6.2-3.6-8.3c-6.4-7.6-18.5-11.3-25.6-18.4
		c8.3,2.4,17.9,6.6,24.5,11.9c-1.4-4.8-5-10-9.4-12.6c-3.9-2.3-9.1-2.2-12.6-4.7c-7.6-5.3-9.9-12.2-13-22.7
		c-2.4,2.3-1.6,7.7-2.2,10.1c-2.5-4-6.4-9-6.8-14.8c-0.3-3.2,0.7-7.3,1.1-11.2c1.8-18.6,5.3-34,9.7-50.4c1.6-6,2.6-14.8,5.4-18.7
		c1.1-1.5,3.8-2.7,5.8-4.3c5.1-4.1,10.7-10,16.2-13.3c-1.6,14.4-11,23.1-10.4,38.5c2.5-1.4,2.2-4.6,2.9-6.8
		c3.4-11.2,9.4-22.7,14.4-33.1c2-4.1,3.2-9.5,7.9-11.2c-13.2,34-33.2,67-27.7,114.1c2.5-3.1,0.8-8.6,1.1-14.4
		c1.6-32.5,14.6-59.8,25.6-86.8c1.6-3.9,3.6-8.2,5.8-13c1.8-4.1,4.9-10.5,6.8-11.9c5.4-3.8,17.6-2.2,24.8-2.5
		c-2.5,3.9-8.5,1.4-12.2,3.6c-1.6,0.9-3.6,7.3-4.7,10.4c-3.9,11.1-10,21.4-14.8,30.6c-3.5,6.7-5.8,13.7-8.6,21.6
		c-6.5,18.4-13.2,40.6-13.3,63.4c0,6.3,0.1,16.3,1.8,21.6c0.8,2.6,3.1,5.3,4.7,7.6c1.8,2.5,4.9,4.8,5.4,6.8c0.5,2.1-0.2,4.6,0.4,6.5
		c1.8,6.1,7.1,10.7,9.7,16.2c1.4,2.9,2.4,6.3,4,9c1.6,2.8,4.1,5,5,7.6c2.9,8.1-1.7,14.6-0.7,22.3c0.5,3.8,8.6,9.8,5.4,14.4
		c-1.5,2.1-4.2-0.4-6.8-0.4c-4.3,0-5.4,4.2-8.6,5.8c-2.5,1.2-6.1,0.1-6.5,3.6c-2.6-3.6-9.2-2-12.2-5.4c-2.3-2.5-2.8-10.8-4.7-14.4
		c-2.7-5.1-10.8-8.5-12.2-13.3c-1.1-3.8-0.3-7.5-1.4-10.8c-2.2-6.2-5.5-10.5-9.7-15.1c-1.9,2.2,0.1,7-0.7,10.4
		c-5.2-6.4-8.1-14.9-16.2-18.4c-0.2,2.6,1.6,5,2.9,7.2c3.8,6.6,8.4,13.3,9.4,23c-6.3-0.3-8.9-7.5-13-11.2c-0.5,3.8,1.1,6.8,2.5,9.4
		c4.8,8.7,17.5,8.8,14.4,23.4c-6.9,0.6-12-3.1-18-2.2c-3.4,0.6-7.8,4.5-11.2,6.8c-2.9,2-7.8,5.2-9.7,7.9c-2.5,3.7-3.1,9.1-5,12.6
		c3.6-0.4,7-7.1,8.8-9.4c9.2-7.3,12.5-10.4,23.6-11.5c-8.5,6.2-16.6,13.7-24.1,21.6c-2.3,2.5-5.6,5.1-7.2,7.9c-1.7,3-2.8,8.1-4,12.2
		c-3.1,10.6-5.9,19.7-10.8,29.2c-0.5,0.9-2.7,4.5-2.2,5c1.9,1.9,6.1-5.4,6.8-6.5c8-11.9,12.3-26.9,20.2-40.3
		c5.5-9.4,12.8-18.8,22-24.5c3.8-2.4,9.4-4.3,14.8-2.9c-4.9,2.2-10.8,3.6-14.4,7.9c-0.4,0.5-6.3,9.1-5.4,10.1c1.3,1.3,6-5.4,6.8-6.1
		c4.1-3.4,11.9-8.7,19.1-8.6c11.7,0.1,17.5,5.4,26.6,7.6c0.1,1.2-2.4,2.8-2.5,5c-3.3-0.9-5.5-2.1-8.6-1.1c-1.5,0.5-2.4,2.6-4.3,3.6
		c-2.6,1.4-5.9,1.3-5.4,5.4c-2.3-1-5-0.8-6.5,1.4c-0.5,0.8,0,2.1-1.1,3.2c-1.8,2-6.2,1.8-5,6.5c-5.8-0.2-8.1,4-7.6,10.1
		c0.4,4.3,4.5,5.8,4.7,7.9c0.2,2-3,6.6-4,9c-3.8,9.6-8,18.1-13.3,25.2c-3.7,4.9-8,9.2-12.2,13.7c-4.1,4.3-10,8.1-13,12.6
		c-3.6,5.4-5.2,12.5-7.2,19.1C149.5,604.9,142.6,624.7,122.7,631.4z M152.6,583.2c2.7-4.1,2.8-8.9,4.3-13
		c3.1-8.4,9.6-13.5,15.1-19.1c8.6-8.6,15.3-17.5,20.5-29.9c1.3-3.2,2.6-7.4,2.5-11.5c-4.9,3-5.7,11.9-10.4,13.7
		c1.3-8.3,1.2-15.5,3.2-22.3c3-10.2,10.7-16.4,14.8-25.2c-0.1-0.3-0.3-0.4-0.7-0.4c-6.1,6.3-15.1,13.8-18.7,23
		c-3.4,8.7-3.5,18.7-6.8,27.4c-2.5,6.6-7,13.2-10.4,19.1c-1.8,3.1-3.8,6.1-5.8,9c-2,3-4.7,6.3-5.8,9
		C152.3,568.6,152.4,577,152.6,583.2z M244.8,268.2c3.2-2.6,2.9-7.9,5-12.2c4.1-8.4,11.3-18.2,15.1-28.1c1.3-3.4,6.5-14-0.7-12.2
		C260.8,236.2,247.9,247.3,244.8,268.2z M238.3,286.5c3.1-2.4,4.6-8.3,4.7-12.6c-0.5,0-0.5-0.5-1.1-0.4
		C240.2,277.4,239.3,282.1,238.3,286.5z M233.2,367.2c0.1-2-1.4-2.7-2.2-4.3c-4-7.7-0.2-20-1.8-29.5c-0.1-0.7-0.5-0.9-1.1-0.4
		C227.8,343.8,221.6,364.2,233.2,367.2z M239.7,581c5.3-4.7,11.3-13.2,15.1-18.7c3.2-4.6,7.1-10,8.6-16.6c1.2-5.2-1-7.3-2.9-4.7
		c-4.6,6.1-6.9,13.6-11.2,19.8c-11.5,16.9-28.5,27.5-48.2,36.4c-5.8,2.6-11.6,6-18,8.6c-8.1,3.3-18.7,6.9-24.5,11.9
		c-6.5,5.6-10.2,15.4-16.9,20.5c-2.8,2.1-8.5,5.5-11.5,6.5c-7.7,2.6-16.7,0.2-22,5c8.1-1.5,15.7,0.9,23.4-1.1
		c5.2-1.3,12.2-7.5,15.5-11.5c2.7-3.3,3.9-6.9,6.1-9.7c10.7-13.7,32.7-16.9,49.7-24.8C217,596.1,230,589.7,239.7,581z M337.3,570.2
		c9.2-7.4,19.2-15.1,29.2-20.9c8.6-5.1,18.3-9.3,25.2-16.2c11.4-11.4,13.6-31,19.1-50c3.8-13.1,12-22.1,20.2-31.7
		c0.9-1.1,8.5-7.6,7.9-9.4c-0.8-2.8-6.1,0.1-6.5,0.4c-6.1,4.1-11.3,9.5-15.1,14c-4.7,5.7-12.6,16.4-14.8,24.5
		c-0.8,3-0.4,7.2-0.7,10.4c-0.7,7.2-3.5,10.8-6.5,15.5c-1.7,2.6-2.9,6-6.1,6.5c0.3-3.5,2.7-5.3,4-8.3c3.8-9.2,2-21.1,4.3-31.7
		c1.5-6.8,6.7-12.8,10.8-18c4.6-5.8,9-10.7,13.7-15.5c-4.8,1.1-8.5,3.7-11.9,6.5c-3.4,2.8-6,6.7-9.7,8.3c2.8-13.4,13.4-19,23.4-25.2
		c-1.7-5.8-9.9-5.5-14.8-2.9c-1.1,0.6-5.3,6.2-6.5,5c-1-1,1.2-6,1.8-7.2c1.3-2.3,8.4-7.5,8.6-9.7c0.3-2.1-2.7-5.3-4-6.5
		c-7.6-7-15.2-0.2-18.7,6.1c-1.3,2.3-0.9,5.3-3.6,6.8c-3-5.8-4.3-16.6-2.2-24.1c-4.4-0.4-3.9-6-2.5-9.4c-4.3-1.5-8,1.1-11.2,0.4
		c-4-0.9-5.4-7.6-11.2-6.5c-1.2,7.2-4.4,13.8-8.6,17.3c-0.4-11-0.9-23.7-11.2-25.9c0.8,5,7.3,7.7,7.9,13.3c0.3,2.7-1.2,7.1-2.2,10.8
		c-2.7,10.9-4.4,22.8-5.4,33.1c-4-6.6-6.7-14.8-5.4-25.2c0.7-6,5.3-10.8,4-16.2c-0.4-1.7-4.9-6.4-5.4-5.8c3.3,7.8-0.1,12.3-3.2,18.4
		c-1.9,3.7-4,6.8-5.8,9.7c-4.3,7.2-5.7,14.8-10.4,20.2c-0.8-3.2-0.3-7.9,0-11.2c-6.5,3.9-12.3,11.6-15.8,19.1
		c-1.2,2.6-1.6,6.6-5,7.2c-0.4-5.4,1.3-9.7,2.5-13.7c1.2-4,2.1-8.6,4.3-12.6c2.7-4.9,10.3-11.4,14.4-14.8c4.6-3.8,12.8-9.5,14-15.1
		c1.1-4.8-1.3-12.4-0.4-16.9c2.6-12.9,8.7-23.4,14.8-32.4c2.3-3.4,5.5-7.1,5.8-10.1c0.5-5.3-2.1-12.5-3.2-17.6
		c-1.3-6.1-3.2-11.5-5-16.2c-4.3-11-7.5-20.3-13.3-28.4c-12.1-16.9-26.5-29.7-34.9-50c0-0.2-0.1-0.4-0.4-0.4
		c-2.1,5.8,2.3,11.8,5.4,16.6c5.2,7.9,9.6,14.7,15.5,20.9c2.9,3.1,6.4,6.1,9,9.4c8.8,11.1,14.5,24,19.1,38.5
		c2.3,7.2,5.8,16.5,6.5,22c1.2,9.9-3,10.5-7.9,16.6c-4.9,6.1-8.8,13.2-11.9,20.5c-2.1,4.9-4.6,10.3-5.8,16.6
		c-0.7,3.9-0.1,10.1-1.8,13.3c-1.8,3.3-8.3,6-12.2,8.3c-3.6,2.1-10.8,4.8-13.3,7.2c-2.1,2-4.2,6.9-5.8,10.1
		c-5.8,11.6-7,23.2-12.6,35.3c2.6,0.7,4.7-0.5,6.8-0.7c1.1-0.1,2.9,0.3,4,0c1.8-0.5,2.9-2.3,5-2.5c1.7-0.2,3.6,1.2,5.8,1.1
		c5.9-0.4,13.4-10.9,19.4-10.1c2.5,0.3,5.3,4.8,4.7,9.4c-0.6,4.8-6.2,11.1-11.2,14.4c-4.7,3.1-11.4,8.9-18,8.3
		c-1.6-0.1-2.9-1.6-4-1.8c-2.3-0.4-6.2,0.1-8.3,0.7c-2.6,0.8-5.2,3.9-8.3,1.8c-3.1,11.4,14.1,6,15.8,14.8c0.3,1.6-0.5,3,0,4.3
		c4.9-3.5,9.3-7.6,14.8-11.2c13.8-8.9,29-16.2,40-27.4c2.2-2.2,4-5.1,6.8-6.8c0.4,2.8-0.9,5.8-2.2,7.9c-10.7,18-30.1,28.1-45.4,41
		c-2.3,1.9-5.9,4.3-5.8,7.9c2.7-0.5,5.2-2.4,7.6-4c6.2-4.2,16.5-11.9,23.4-12.6c-8,13.2-24.1,19-31.3,28.8c-1.4,1.7-1.2,4.1-2.9,5.4
		c-2.2,1.6-5.5,1.3-7.6,2.2c-3.1,1.3-5.4,4.5-7.6,7.2c-2.7,3.3-2.6,7.9-7.6,8.3c-1.3,9.5-5.3,16.2-9,22.3c-1.7,2.9-3.1,5.1-5,7.6
		c-4,4.9-9.7,9.9-10.1,18c13.5-7.2,24.6-18.5,35.6-29.5c9.7-9.7,18.7-20.1,27-30.6c0.9-1.1,2.3-3.6,4.3-3.2
		c-3.4,9.7-9.3,16.1-15.5,24.5c-4.8,6.5-10.5,12.7-15.5,18.4c-4.9,5.6-10.2,11.6-16.9,16.9c-11.6,9.1-21,12.1-19.4,18
		c10.9-5,20.6-12.4,28.8-19.8c2.8-2.5,5-5.6,8.3-7.2c-0.5,5.4-4.6,8.5-7.6,11.5c-7.8,7.9-16.6,15.8-27.4,20.9c-2,1-5.9,1.9-6.8,2.9
		c-1,1-1.5,4.5-2.2,6.8c-2.1,7.1-4.7,14.7-7.9,19.8c-9.8,15.7-34.8,19.6-48.2,31.3c-1.7,1.5-4.1,3.1-3.6,4.7
		c21.3-10.1,45.2-5.1,59.4-19.1c4.2-4.2,7.8-9.2,13.3-13c4-2.8,9-4.5,13-7.6c12.1-9.2,18.1-25.6,26.6-38.2
		c6.7-9.8,14.4-18.3,21.6-27c2.5-3,5.6-5.4,7.9-8.3c2-2.5,3.2-6.1,5-9c9.3-15,18.1-29.4,25.6-45.7c3.1-6.7,7.4-13.5,7.2-21.6
		c-3.6,5.5-6.1,11.6-9.4,17.3c-3.3,5.7-6.2,11.7-10.1,16.9c-3.9,5.2-8.1,10-11.5,15.5c-10.3,16.7-23.5,30.7-34.9,46.1
		c-5.8,7.8-10.8,16.4-15.8,24.5c-1.5,2.5-2.8,5.9-5.8,7.2c5.5-16.5,15-30.9,24.5-44.6c9.3-13.5,19.2-26.5,29.5-39.6
		c9.7-12.4,20-26.6,26.3-42.8c3.3-8.4,7.3-16.2,9.4-25.2c2-9.1,4.8-18.1,5.4-28.4c0.5-8.5-0.9-14.4-2.2-20.9
		c-0.8-4.1-4.1-9.4-4.3-12.6c-0.2-3.8,2.2-8,4.3-10.4c2.6,3.3,0.6,7.3,1.4,11.5c0.6,3.1,3.4,6.2,4.3,9.7c1.1,4.1,0.8,7.8,2.5,11.5
		c1.3-6.4,1.2-15.2,2.2-20.9c2.6,2.8,3,7.8,3.2,12.2c0.8,16.7-3.4,35.8-7.9,49c2.3-0.1,2.6-3.3,5-2.2c1.4,9.3-5.7,14.9-4.3,24.1
		c8-7.6,6.3-24,9.7-36.4c0.6-2.2,2-4.5,2.9-6.5c0.9-2,1.3-5.2,4-5.4c-1.5,10.4-2,23-2.5,32.8c-0.4,8.3-0.9,15.7-3.2,23
		c-2.2,7-4.2,13.7-5.4,20.2c1.7-2.7,3.9-5.2,5.4-8.3c1.6-3.2,1.9-7.1,4.3-9.7c3.5,13.2-5.6,22.4-11.5,29.5c-2.4,2.9-4.7,6.1-7.2,8.6
		c-16.1,15.9-34.8,28.4-50.4,44.6c-5.4,5.6-11.2,10.1-15.5,16.2c-7.8,11.2-23.9,40.9-24.5,68.4c5.4-12,8-24.6,14.8-34.9
		C304.7,602.9,318.4,585.4,337.3,570.2z M354.2,515.1c-6.1,10.7-15.3,20.2-18,33.1C345.3,540.5,357.1,533.6,354.2,515.1z
		 M231.8,615.9c-5,0.1-9.2,3.2-13,5.8c-7.6,5.3-15,9.6-23,14.4c-3.9,2.4-8.2,4.9-12.2,6.5c-4.4,1.7-9.1,4-14.4,4
		c3.1-3.7,8-4.9,12.2-7.6c8.6-5.3,18.2-13.1,27.7-19.8c6.9-4.9,15.3-8.6,23.8-11.9c2.3-0.9,7.9-1.6,7.9-4.3c0-1.6-1.5-2.8-3.6-2.2
		c-17.6,5.7-35.9,17.1-49.3,27.7c-4.9,3.9-9.3,8.6-14.8,11.2c-0.3-5.3,3.6-9.3,5-14c-15,10.4-24.8,26.1-32,44.3
		c9.5-13.1,24.6-18.1,42.1-22.7c13-3.4,25.5-6.1,34.2-13.7C227,629.7,232.4,623.9,231.8,615.9z M230.4,594.7
		c3.7-1.2,11.9-2.1,8.3-7.2C236.2,590.2,232.8,592,230.4,594.7z M464,496.1c-1.6,5.2-3.2,11.3-4.7,15.8
		c-4.8,14.4-11.7,25.2-20.2,36.4c-10.7,14-27.3,22.5-45.4,29.9c-34,14-72.5,30.4-103,67c15.3-12.9,32.3-27.9,51.8-38.2
		c17.7-9.3,33.5-15.3,52.2-22.3c10.6-3.9,22.1-7.4,30.6-14c14.2-11.2,32.7-33.3,37.8-51.5C464.7,514,470.1,496.6,464,496.1z"/>
	<path fill="#EEEEEE" d="M267.8,348.1c-2.9-0.8-2.1-6.3-1.4-9C270.2,340.5,272.9,349.9,267.8,348.1z M303.8,352.8
		c1.2-2.8,3-6.4,2.5-9.7C302.6,343.1,301.6,350.3,303.8,352.8z M290.5,347c0.5-3.6,0.2-9.5-2.5-11.1c-2.3,2.8-1.9,6.9-1.8,10.8
		C287.6,347.2,289.2,347.2,290.5,347z M299.6,354.1c0.3-3,1.6-5.9,1.7-9.2C295.7,344.1,296.3,352.4,299.6,354.1z M300.6,333
		c-0.9,2.7-2.7,9.6,2.1,9.7C303.9,340,302.5,331.5,300.6,333z M284.4,348.8c1.3,7.6,3.3,8.8,5,9.7
		C290.2,354.2,289.7,348.2,284.4,348.8z M276.8,348.5c-0.4-1.3-0.7-2.6-1.2-3.8c-0.6-1.8-0.5-3.7-2.4-4.8
		C271.9,342.8,271.2,349.8,276.8,348.5z M275.4,358.2c-0.5-3.9,1-7.5-2.9-7.9C269.9,353.4,272.8,358.3,275.4,358.2z M295.2,335.5
		c-1.2,1.1-1.8,6.4-0.5,9.7C298.4,345.8,298.4,336.7,295.2,335.5z M281.8,349.2c2.3-3.8,0.1-8.7-3.2-10.1
		C277.6,343.7,278.1,347.7,281.8,349.2z M283.6,360c1.4-3.8-2.8-11.5-6.5-9C278.3,355,280.1,358.3,283.6,360z M305.2,331.5
		c-1.4,2.5-0.2,6,0.7,8.3C309.5,338.1,307.2,333.6,305.2,331.5z M290.8,348.8c1.7,2.3,1.1,6.8,3.7,8.2
		C295.4,352.2,296.3,346.5,290.8,348.8z M282.2,376.9c-1.2,0-5.1-2-7.2-3.6c-7.9-6-12.3-11.2-21.2-16.6c-5.2-3.1-12-2.7-11.5-9
		c0.6-6.7-2.3-16.8,4-16.9c2.7,5.1,2,9.3,4.7,13c2,2.7,5.4,4.5,8.6,6.5c3.2,1.9,7.6,3.5,9.4,5.8c2,2.7,1.1,6.3,4.7,7.9
		c1.1-0.8-0.3-2,0-3.2c1.7,1,2.7-0.2,4-0.7c1.4,3.3,2.7,6.6,5.4,8.6c1.1-2.1-0.9-4.1-0.7-6.5c2.6,0.9,3.1-1.8,4.3-1.1
		c0.7,1.7,1,3.8,1.8,5.4c2.4-1.3,0.1-6.1,3.2-7.2c1.5,1,0.1,5,2.5,5c1.1-2.3,1.1-5.6,3.2-6.8c0.8,2.4,0.9,5.3,1.4,7.9
		c2.5-1.5-0.4-8.3,2.5-9.4c1.1,0.7,0.3,3.3,1.4,4c1.2-0.7,0.5-2.7,0.4-4c3.2,0,2.1-4.2,5-3.6c-0.7-4.7,3.5-6.7,4.7-10.1
		c2.2-6.7-1.9-14.1,0.4-23.4c1.1,0.1,1.8,0.6,2.5,1.1c0.3,4.2-0.5,8.9,0,13c0.3,2.6,1.9,5.2,1.4,9.4c-0.2,2.3-2.2,6.6-4,9.4
		c-3.4,5.5-7,12.2-9,16.9c-2.3,5.5-2.1,4.3-8.3,4.3C291,373,286,377,282.2,376.9z M293.7,370.1C295.2,374.7,298.3,368.5,293.7,370.1
		L293.7,370.1z M258.8,356c-3.1-2.2-6-4.5-10.8-5C250.8,353.3,256,355,258.8,356z M290.5,370.4c-4.5-0.8-7.7,4.7-12.2,1.1
		C280.5,377.2,288.1,374.2,290.5,370.4z M443.1,461.9c-0.6-2.2-4.2-5.3-5.4-5.4c-2.5-0.2-4.4,2.9-4,5.4c0.4,1.9,4.2,5,5.8,7.6
		c3.1,5.2,3.7,11.1,6.8,15.5c0.7,1,1.3-1.1,2.9-0.4c0.8,1.2,1.4,2.7,4,2.2c-1-2.5-3.8-4.7-4.3-7.9c-0.1-0.8,0.3-2.1,0-2.9
		c-1.3-3.2-6-2.8-6.1-5.8c0.3-1.3,3-0.2,3.6-1.1c-0.6-1.7-2.4-2.7-3.2-4.7C442.8,463.7,443.4,462.7,443.1,461.9z M383.4,309.6
		c-0.4-1.5-2.5-3.8-3.8-3.2c-2.1,1-7.4,0.4-5,3.5C375.7,311.6,382,310.8,383.4,309.6z M401.9,300.9c4.6,2.5,3-4.7,5.9-3.6
		c0.5,3.6,5.9,4.3,4.3-0.2c-0.8-2.3-3.7-1.6-5.3-2.2c-1.9-0.7-3.7-3.9-5.5-1.9C403.5,295.2,402.7,298.3,401.9,300.9z M396.7,300.9
		c1.5,0,2.1-1.5,2.9-2.9c0-1.2-1.9-0.6-2.9-1.1c0-1.7,1.5-1.8,2.2-2.9c-0.5-2.1-3.7-2.6-4.2-0.5c-0.5,1.9-2.5,3-2.6,3.4
		C392,297.4,395.7,300.9,396.7,300.9z M423.3,315.7c-1.7-2.3-2.5-5.2-6.1-5c-1.3,2.3,1.3,2.8,1.1,5c-1.3,0.9-3.2,0-4-0.7
		c-0.4,4.9,6,2,8.3,3.6c-0.1,1.2-1.4,1.3-1.8,2.2c5.1,1.3,6.9,9.2,12.6,7.6C432.8,321.3,426.6,320.2,423.3,315.7z M419.7,307.8
		c1.6-3.2,3.2-7.5,2.2-12.2c1.1-0.9,2.1,0.4,3.2-0.4c1.2-4.5-3.7-4.6-6.1-3.2c-0.2,4.1-1.3,7.3-2.2,10.8c0.3,0.8,2.2-0.1,1.8,1.4
		c-1.2,2.3-5.9,1.1-5.4,5C415.1,308.3,416.8,306.7,419.7,307.8z M435.9,298.4c0.5-1.6-0.6-3.3-0.9-5.4c2.3-1.4,4.2-4.2,4.2-6.8
		c0-1.6-3-2.5-1.4-4.3c-1.9-0.6-4.7,0.2-5,2.2c0.7,0.7,3-0.1,2.9,1.4c0.2,1.7-2,0.9-3.2,1.1c-2.8,2.6,0,4.8-2.6,8.3
		c0.5,0.9,3,0.6,2.9,2.2c-2.6,0.8-7.8,1.1-5.8,5C428.8,298.5,435.1,301.4,435.9,298.4z M439.1,319.7c1.4,1.5,2.1,3.8,4.3,3.2
		c3.6-5.6-4.5-9.3-7.5-14c-0.3-1.8,1.1-6.2-4-6.5c-2.4-0.3-6.2,4.2-4,6.5c2,0,2.7-2.9,4.7-1.8C428.6,313.2,434.8,315,439.1,319.7z
		 M447.8,297.3c-3.3-1.1-5.9,1.2-6.1,4.3c1.6,1.1,2.6-3.3,4.1-0.2c-1.5,2.6-1.4,5.1,1.7,7.8c5.2,4.5,6.4,9.7,9.2,7.5
		c0.8-6.6-3.6-9.1-6.4-13.4C449.2,301.8,448.9,298,447.8,297.3z M440.6,295.9c2.1-2.2,4.8-2.9,7.8-2.5c2.1-1.2-1.6-2.2-1-6.9
		c0.6-4.6-0.5-9.1-3.6-7.1c-1,0.4-0.9,1.2-1.4,3.2c1.1,0.7,3.1,0.5,2.9,2.5c-2.4,0.5-3.2,3.2-3.6,6.6
		C441.6,293.1,438,295.5,440.6,295.9z M449.8,337.1c2.2,1.2,1.8-1.3,0.9-3c-2.8,1.7-2.8-2.7-5.4-1.1
		C444.9,338.6,448.1,336.1,449.8,337.1z M430.9,348.8c2.4-0.4,5.2-1.1,6.5-2.8c2.9-3.1,0.8-6.5,2.9-7c0.9,1,1.4,2.4,4,1.8
		c-0.7-3.4-5.4-6.2-7.2-2.9c-0.6,1.1,0.3,3,0,4.3C436.1,346,431.9,346.3,430.9,348.8z M462.2,331.9c0.8-4.6,1-4.1,5.5-2.3
		c1.6-0.3,3-2.7,1.7-4.9c-4.1-1.1-7.5,1.6-10.4,2.9C459.5,329.5,459.1,332.5,462.2,331.9z M455,333c-0.8,3.3-0.9,4.2,2.6,4.8
		C458.8,334.9,459.9,335.2,455,333z M425.5,334.8c-1.1-0.8-2.4-3.9-3.6-4.7c-3.1-2-9.9-1.7-10.4,1.1c0.1,1.6,4.9,2.1,6.9,3.6
		c2.3,1.7,4.1,3.8,5,6.9c1.1-0.1,1-1.4,2.5-1.1c1.1,1.3-2.8,5.5-0.4,5.4c2.3,0.5-0.2,1.7,2.5,1.8c0.8-1-0.4-2-0.4-3.2
		c2-1.7,5.1,0.6,6.2-1.8C436.2,337.5,428.3,337,425.5,334.8z M459.7,478.8c0-1.1-1.6-3.8-2.2-6.1c-0.5-2.4-0.6-5.2-1.1-7.6
		c-0.7-3.4-2.4-7-4.1-9.3l-5.3-7.2c0.2,5.4,1.4,9.8,2.9,14.4c1.2,3.9,3.6,8.1,3.6,10.4c0,1.4-1.2,2.6-1.1,4
		C452.9,482.4,459.6,485.6,459.7,478.8z M454.6,341.6c-0.9,1.4-0.3,4.3-1.8,5c-1.1,0.2-0.8-1.1-2.2-0.7c-1,8.1-0.6,17.3,0,25.2
		c0.1,1.5-0.9,4.5,1.4,5c0.1-3-1-6,0.4-8.3c3.4,1.7,1.2,9.1,4.3,11.2c-0.5-7.5-0.2-16.6,0.7-24.1
		C458.3,348.2,460.4,342.9,454.6,341.6z M473,336.6c0.1,2.2-2.2,4.3-1.8,7.2c0.3,1.7,1.8,2.6,2.5,4.3c1.5,3.4,2.3,9.1,3.6,14.4
		c2.4,9.9,5.7,21.4,6.1,32.8c-1.8-2.2-6.2-2.4-7.9-5c-0.4-0.7-0.2-2.5-0.4-3.2c-1.4-5-3.3-12.8-5-20.2c-1.5-6.3-2.2-12.3-4.7-16.6
		c4-1.4,3.3,4.9,5.8,6.1c4.3-10.2-15.2-11.3-7.9-20.2c1.3,1.1,1.6,4.5,2.5,4.3c2.1-0.3,0-2.5,1.1-5
		C468.5,331.5,472.8,333.4,473,336.6z M471.9,359.3c-0.4,3,0.2,7.9,2.9,9C475.1,365.4,474.9,360,471.9,359.3z M466.2,472.7
		c-0.1,2.3-0.1,4.7,0.7,6.1c-1.1,1.6-3.6,1.2-4.3,2.5c-1.7,3.1,0.9,7.8,4.7,7.2c2.4-0.4,2-3.3,4.7-3.6c1.2,0.1,0.6,2.1,0.7,3.2
		c2.7-1.1,3.8-2.9,2.6-4.3L466.2,472.7z M233.6,527c1-5.8-1-7.7-3.6-11.5c-3.5-5-5.4-11.4-9-16.2c-3.4-4.5-9.7-7.7-9-14
		c2-1.2,2.1,3.3,4.3,1.8c1.1-0.7-0.4-2,0-4c1.1-5.9,6.6-1,7.2,1.1c0.5,1.8-0.3,4.8,0.4,6.8c1.2,3.8,4.5,9.8,7.2,14.8
		c3,5.5,5.8,11.3,8.3,13.7c2,1.9,5.5,3.2,5.7,5.4c0.2,2.9-3.3,4.8-5.3,5c-1.4,0.1-0.8-1.9-1.4-2.5
		C234.9,526.2,234.5,530.4,233.6,527z M243,526.7c1.8-2-0.1-3.4-3.2-4c-1.5-0.3-1.2-2.3-2.5-2.2C236.1,524.2,240.4,525.4,243,526.7z
		 M227.1,503.3c-1.3-6.2-4.9-10.2-6.8-15.8c-0.4,0-0.7,0-1.1,0C217.7,495.4,223.5,499.2,227.1,503.3z M221.4,526.7
		c-0.8-3.1-3.2-7.5-5.4-11.5c-2-3.6-4.1-7.8-6.1-10.4c-2.1-2.8-5.5-2.7-6.1-7.2c0.8-0.9,2.2,1.1,3.2,0c-2.6-2.8-3.8-7.3,2.9-6.5
		c1.2,1.4,1.2,3.9,0.7,6.1c1.3,1.2,1.7-0.7,2.9-0.7c3.3,9.4,5.8,17.7,11.2,24.8c2.3,2.9,7.4,3.6,6.1,8.3c-0.2,1.5-2.5,0.4-3.4,1.6
		c-1.8,2.5-3.7,3.8-5.6-0.2C221.1,530,221.6,527.7,221.4,526.7z M222.4,524.1c0,1.6,3.4,3.4,5.8,2.9
		C227.8,524.7,222.4,521.3,222.4,524.1z M264.2,507.9c0.3-4.9-2.9-10.5-5.4-15.5c-2.4-4.7-5-9.7-7.6-13c-2.9-3.7-8.5-5.2-7.8-10.8
		c2.9-2.5,4.3,1.1,6.7,1.1c1.4-2.6-1.3-2.6-1.4-4.3c-0.3-5.9,6.6-4.1,5.4,2.5c1.3,1.2,1.8-1.5,2.5-0.7c5,1.3,2.3,5.8,3.6,10.8
		c1.7,6.8,6.5,19.6,9.7,23c2.8,3,5.7,3.6,5.8,6.1c0,1.6-1.1,2.7-2.9,4c-1.6,0.5-0.8-1.4-2.2-1.1c-2.3-0.7-1,5-3.6,5.4
		c-2.3,0.4-3.6-4.4-3.6-4.7C263.4,510,264.1,508.8,264.2,507.9z M266.7,501.8c0.8,2.4,2.6,5.5,5.8,4.3
		C271.4,503.9,269.4,502.5,266.7,501.8z M261.3,487.1c-2.4-4.5-2.1-15.5-7.6-16.9c-0.2,0-0.6,0-0.7,0c-2.4,0.7,0.2,5.1,1.1,6.8
		C256.3,481.4,257.5,485,261.3,487.1z M249.4,517.3c-1.4-6.8-11-22.1-16.2-27.4c-3-3.1-12.8-9.7-7.6-14.8c1.5,0.5,0.8,3.3,2.9,3.2
		c0-0.7,3.5-10.4,6.1-7.6c0.7,0.7,3.4,1.6,3.9,2.6c1.4,3.2-0.1,7.5,0.4,10.3c1.3,7.2,7.2,16.3,11.9,22.7c1.6,2.2,3.4,5.2,5,6.1
		c1.9,1.1,4.6,1.3,5,3.6c0.2,1.2-0.5,5.5-2.9,4.7c-2.4,0.2-0.3-2.2-2.2-2.2c-1.5-0.1-1.7,6.5-5,5.4
		C248.8,523.4,250,519.9,249.4,517.3z M236.8,485.3c-0.3-3.2,2.2-8.6-3.2-8.6c-1.1,7,1.3,13.2,5.8,15.8
		C239.8,489.6,237.1,488.3,236.8,485.3z M250.2,511.5c0.5,1.1,1.9,2.3,1.5,3.7c-0.4,1.7-0.5,4,1,4.6
		C255.6,517.8,254,511.3,250.2,511.5z M278.6,494.3c-1.3-2.5-5.8-2.4-5,1.4c0.3,1.5,3,1.6,4.3,3.6c2.1,3.2,1.7,6.8,4,6.5
		c0.1-2.4-1.7-5.8-0.4-7.2c3.8,3.3,5.7,8.5,11.2,10.1c1.1-7.6-8.4-9.3-9.4-16.2c-0.2-1.6,0.9-2.8,0.4-4.3c-0.6-1.7-3-2.8-5-2.9
		C276.9,488.5,281.5,492.2,278.6,494.3z M268.5,480.9c-1.1,4.3,1.7,10.9,5.8,9c-0.1-1.7-0.7-3.5,0-5
		C272.3,483.7,270.4,482.3,268.5,480.9z M288.7,519.1c6-1,1.8-11.1-4-10.1c-0.7,5.7-2.2,2.6-6.1,4c-2.8,1-9.3,10.8-10.1,14.4
		c-0.7,3.1-0.8,8,1.1,8.3c1.8,0.2,3.5-4.3,4.7-5.8c1.4-1.8,3.5-4.9,4.7-6.1c3.2-3.3,8-3.8,6.8-9
		C287.4,514.3,288.7,516.8,288.7,519.1z M293,464c-0.8-3-4.8-3.8-4-7.6c1.1-4.7,6-1.1,7.9-1.1c5,0.1,14.4-8.7,19.1-10.4
		c0.9-0.3,2.6,2.3,2.5,4.3c-0.2,3.5-6.4,10.2-9.4,12.2c-2.8,1.9-7.3,5-9.7,6.1c-3.7,1.8-10.7,3.5-9.7-2.9
		C291,464.9,292.3,465.2,293,464z M301.6,462.6c2.8-0.4,12.9-6.1,11.9-11.2c-0.2-1-0.8-1.5-1.1-0.4
		C311.1,457.2,300.9,455.8,301.6,462.6z M296.2,466.5c2.9,0.1,2.8-2.9,2.9-5.8c-1.1-1.9-2.1,0-2.5-0.5c-1-1-0.9-3-2.1-3.8
		c-0.2-0.1-0.5,0-0.7,0C292.2,461,296.7,462,296.2,466.5z M284.4,456.8c-4.7-0.9-6.8,2.7-9,3.2c-1.3-0.3-0.4-2.7-1.1-3.6
		c-2.8-1.9-6.7,0.1-6.5,2.2c0.3,2.8,4.2,0.8,5,3.6c-2.9,2.9-0.9,8.1,2.2,8.3c1.3,0.1,2.4-2.1,4.3-2.5c2.7-0.6,3.9,0.8,6.1-0.4
		c-0.3-3.4-4.6-0.7-5.8-2.9c1.5-1.3,4.4-1.4,6.1-1.4C285.8,460.7,284.5,459.3,284.4,456.8z M262.4,466.5c0.3-0.9,0.3-2.1,1.4-2.2
		c2-0.3,0.7,2.7,2.5,2.5c2.1-3.9,0.1-3.7-1.1-6.5c-0.1-0.3-0.2-2.4-0.4-2.5c-2.9-3.4-8.7,0-9,2.5
		C255.6,463.6,259.9,465.2,262.4,466.5z M312.4,266.4c0.9,2,1.1,5.1,2.2,6.5c1.7,2,5.8,2,7.2,3.2c0.3,9.7-7.6,3.7-16.9,6.1
		c-2.8,0.7-6,4.9-7.6,6.5c-2.4,2.4-4.5,6.5-7.2,6.8c-2.4,0.3-5-1.9-5.4-3.2c-0.9-3.2,3.2-7.4,1.8-10.4c-1.7,2-5.5,7.1-4.7,11.5
		c1.5,3.4,4.7,2.9,5,6.1c-1.4-0.1-3.3-0.1-5,0.7c0.1-1.6-0.3-2.8-1.1-3.6c-1.7,0.9-1.7,3.6-4,4c0.7-3.5,3.5-7.1,1.4-11.2
		c-2.7,2.4-2.5,9.5-6.5,9.7c-1.1,0.1-4.8-2.6-6.8-4c-2.1-1.4-3.9-3.9-6.1-4.7c-4.8-1.8-7.6,0.7-13.3,0c-1.1-4.5,4.6-2.3,6.5-4
		c-0.6-1.9-3.2-0.4-5-1.4c-1.1-10.1,10.9-5.6,15.5-2.9c4.9,2.9,8.6,5,11.2,7.2c-0.5-3.3-2-6.2-4-8.6c-2.9-3.7-11.1-5.1-11.9-9.7
		c-0.7-4.2,5.3-10.6,9-13.3c4.3-3.2,11.6-5.3,17.3-5c10.6,0.5,14.6,7.4,19.8,13c-1.6-15.3-14.6-24.5-28.1-28.1
		C294.7,237,306.1,252.4,312.4,266.4z M307.8,280.4c4.6-2.1,7.5-0.3,10.1-1.4c1.4-1.6,0.3-2.2-0.4-1.8
		C314.5,278,308.4,276.4,307.8,280.4z M290.1,278.3c2.5,0.1,4.1-3.6,8.3-5.4c3.4-1.5,6.2-0.7,9.7-1.1
		C302.3,265,291.4,272.1,290.1,278.3z M321.1,317.9c-4.3-1.4-7-6.5-11.9-5.4c-3.9,0.9-4.5,6.6-6.5,10.1c3.4,0.2,3.4-4.7,5.8-4.3
		c-0.5,3.5,0.1,8-1.8,10.1c-1.6-1.3-2.5-0.3-3.2,1.1c-1.6-0.7-1.2-3.3-3.2-3.6c0.5,2.4,0.5,4.5-1.4,6.5c-1.1-0.6-0.9-2.5-2.2-2.9
		c-1.2,0.1-0.6,2.1-0.7,3.2c-2.3-1.1-3.1,2.1-3.6,4c-2.1-2.3-3-5.9-4.3-9c-3.1,2.2,0.6,6.9-2.9,8.6c-1.8,0-1.1-2.5-2.9-2.5
		c-1.7,1.1,0.4,3.4,0,5.4c-0.7-2.6-4.8-1.7-4.3-5.4c-1.7,0.6-2,2.5-2.2,4.7c-1.8-0.1-1.6-2.3-3.2-2.5c0.3-1.5,1.1-2.8,0-4
		c-1.3,1.9-2.6,3.9-2.5,7.2c-1-0.2-2.2-2.4-4.3-2.5c-2.2,0.6-1.2,3.2-2.2,5.8c-1-1.3-1.6-3-1.4-5.4c-1.2-1.1-1.3,0.8-2.5,0.7
		c-2.9-2.3-5.8-4.5-6.5-9c5.8-1.3,9.2,2.5,11.9,5.4c0.9-7.6-5.7-9.6-14-10.4c-7.2-0.7-8.2,5.4-14,5.4c0-1,0-1.9,0-2.9
		c4-0.6,4.5-4.6,8.6-5c-1.4-3.2-6-0.1-7.6,1.1c-0.1-3.6,1.4-8.7,2.2-12.6c3.1,1,4.6,4.5,7.6,4.7c3,0.2,4.2-3.8,7.9-4.3
		c3.1-0.5,4.6,1.7,8.3,0.7c-1.9,1.8-5.2,2.3-7.9,3.2c2.5,1.7,6.2,1.1,8.6,0.4c4.8-1.6,8.9-6.6,12.6-8.6c0.9,2.5-1.7,4.5-1.4,7.6
		c4.8-1.1,3-12,9-9.7c0.8,0.3,2.1,3.7,2.9,4.7c1.7,2.1,3.2,3.8,5.4,4.7c0.8-3.2-2.8-5.1-4-7.6c4,1,14.3,3.7,18.4-0.4
		c-1.3-2.6-5.5,0.6-7.9-0.7c1.9-0.8,3-2.8,5.8-3.2c5-0.9,14,2.7,14.4-3.2c0.1-1.8-2-2.6-2.5-4.7c-0.7-3.1,0.4-5.3,0.7-8.6
		c0.6-0.1,0.6,0.3,1.1,0.4c0.1,2.5,0.1,4.4,0.4,6.1c1.1,6.9,7.9,9.4,9,13.7c0.4,1.3,0.2,3.8-0.7,5c-0.9,1.3-3.2,0.9-4.3,2.5
		C322,313.9,322.9,316.1,321.1,317.9z M273.6,323.9c-0.1-2.1,2.7-3.4,1.1-6c-2.1,2.2-3.3,4.2-3.4,5.8c-0.2,2.9,2,5.8,5.2,6.8
		C278,327.5,273.7,327.4,273.6,323.9z M295.5,318.9c-0.5-2.7-6.3-4.8-9.4-10.1c-0.6-1.1-0.8-2.3-1.1-2.5c-4.1-2.4-4.7,6.9-5.4,9
		c-1.2,3.4-3.4,5-3.4,8.2c-0.1,2.3,3.7,3.4,5.5,6.2c3.4-0.7,1.5-8,5-9.4c1.6,2.9,3.4,5.7,6.5,7.2C293.7,324.7,296,321.5,295.5,318.9
		z M297.3,316.9c1,3.1-1.5,6,0.2,6.5C298.8,322.4,300.3,316.9,297.3,316.9z M325.4,307.8c-3.2-3.2-4.4,3.3-7.2,3.6
		c-2.4,0.3-5.2-4.3-7.2-1.1c3.2,0,5.2,3.3,7.6,3.2C321.5,313.5,322.3,309,325.4,307.8z"/>
</g>
</svg>
