<?xml version="1.0" encoding="utf-8"?>
<!-- Generator: Adobe Illustrator 21.1.0, SVG Export Plug-In . SVG Version: 6.00 Build 0)  -->
<svg version="1.1" id="Layer_1" xmlns="http://www.w3.org/2000/svg" xmlns:xlink="http://www.w3.org/1999/xlink" x="0px" y="0px"
	 viewBox="0 0 612 792" enable-background="new 0 0 612 792" xml:space="preserve">
<g>
	<path fill="#131313" d="M252.3,305c-8.2-8.1-9-9.3-17.8-11.8c-7-1.5-11-5.6-13.1-11.6c-3.4-1.8-7-5.7-9.6-10
		c-2-3.4-3.5-8.5-3.7-13.3c-0.1-3,1.2-9,1-12.1c-0.8-3.5-1.8-5.9-1-10.3c0.4-2.1,2.9-8,6.2-15.3c-0.1,6-5.4,13-2.8,19.5
		c1.4-4.5,4-7.4,4.5-7.9c-3.8,13-9.4,34.7,4.7,44.9c-0.5-4,0.1-12.9,2.4-14.8c-1.5,5.4-0.8,10,0.9,15.2c1.9,5.8,6.1,11.4,13,13.5
		C246.1,294.4,249,300.6,252.3,305z M181.7,327.1c-2.1,4-4.6,6.3-6.4,9.3c3.7-1.5,12-13.4,13-15.8
		C186.1,317,183.5,323.7,181.7,327.1z M180.1,316.7c-0.8-0.7-2,0.2-2.9,0.4c-1.5,3.8-1.1,6.2-2.8,9.6c-1.6,3.4-3.3,6.6-6.8,10.5
		c2.8-1.7,6.2-4.7,8.1-8.3C177.9,325.1,179.9,320.5,180.1,316.7z M304.7,250.9c-1.6-4.6-3.1-7.2-5.2-11c-0.9-1.6-2.1-4.2-3.3-8.8
		c0,0.3,0,2,0,2.2c0.9,6.8,4.8,11.6,5.9,17.5c1,4.9,1.2,9.7,0.6,15.4c-0.7,6.6-4.9,18.9-8.9,24.4c0.9-5,0.9-23.3-4.7-28.6
		c4.5,7.7,1.4,27.9,0.1,35.9c11.4-6.3,17.7-29.3,18-34.5C307.4,260.1,305.6,253.7,304.7,250.9z M322,268c1.5-6.5,0.4-11.3-0.8-15.9
		c-0.3-1.3-1.2-5.1-1.2-10.2c-2.1,10.9,1.1,24.1-4.2,34.8c-1.7,3.3-5.4,11.1-11.7,14.8C313.7,287.5,320.5,274.9,322,268z M322,282.5
		c-2.4,4.8-1,7.3-3.9,11.3c-0.9,1.2-2.2,4.4-5.3,6.6c9.1-1.3,11.2-20.7,17.5-25.2C325.5,275.1,323.3,279.8,322,282.5z M312.6,375
		c-1.5-2.7-2.3-5.8-1.8-8.7c2.7,0.7,6.9,3.5,9.7,1.9c-5.7-1.2-9.3-5.9-14.1-8.4C305,364.9,309.1,372,312.6,375z M369.7,583.6
		c-4.2,3.7,2.2,10.4,4.7,13C373,593.2,368.6,587.6,369.7,583.6z M169.6,314.9c-2.8,6.4-5.4,12.4-8.9,17.6
		c-5.4,8.2-11.9,12.6-20.3,16.8c2.9-0.3,8.6-3,11.3-4.9c7.4-5.4,15.1-13.1,18.8-22.1C171.9,318.7,173.7,314.5,169.6,314.9z
		 M430.3,611.9c0.4-1.3-0.7-3.3-1.4-4.5c-1.3-2.3-3.6-4.8-5.8-5.9c0.1-3.4-4.2-0.8-3,1.6C424.5,605.2,427.4,608.6,430.3,611.9z
		 M595.8,307.4c4.9,6.7,3.4,19.7-1.7,24.8c-1-6-1.8-10-5.4-14.4c-1.9-2.4-5.8-2.7-9.3-5.4c0.2,2.4-0.2,4.2,0.8,6.1
		c0.8,1.4,2.4,1.7,2.4,3.2c-10.2-0.2-6.6-8.2-14.7-9.1c-2.9-0.6-5.8,0.8-9.2-2.2c2.1,12.8,6.2,29,2.5,45.4c-0.6,2.7-1.3,5.6-2.2,8.4
		c0.5,1.8,0.9,3.7,1.3,5.3c1.7,6.6,1,15.4,0.2,24.4c-0.9,9.6-5.5,20.8-3.2,30.9c0.5,2.1,0.8,2.7,1,5.3c0.4,4.2,0,10.2-1.9,14.8
		c-0.7,1.6-1.6,3.1-2.9,4.4c0.3,1.6-0.3,2.6-0.6,4c-1.5,7.3-4,14.8-2.1,21.9c0.5,2,2.1,3.9,1.8,5.1c-1.1,4.3-11.7,0.8-13.7-0.4
		c2,4.9,2.6,8.7,8.2,10.9c-1.6,2.2-4.2,2.3-6.9,2.1c-7.5-0.5-12.9-6.7-16.2-10.8c0.5,3.5,1.9,6.5,4,9.3c2.3,2.9,7.6,7.5,11.3,8.1
		c5.4,0.8,4.5,0.1,8.8-1.3c-2.8,7.2-10.9,11.6-18.1,13c0,4.3,2.7,6.5,4.3,9.6c-1.4,1.3-3.5,2-5.4,2.3c-12.5,1.6-28-5-35.3-12.5
		c0.5,2.7-1,5.1,2.5,7.3c-9-0.9-14.7-6.3-19.4-12.9c-1.8,0.6-3,1.2-4.9,1.4c-2.2,0.3-7.5-3.4-8.2-5.7c-2.7,0.9-4.1,0.8-6-0.2
		c-1.6-1.3-4.6-4.2-6.3-6.7c-3.6,0.5-6.1,2.5-9.9,1.3c-3.8-1.2-5.8-5.4-7.6-7.9c-3.2,1.1-9.4,3.1-12.6-0.3c-0.5-0.5-1.6-1.7-2.3-2.7
		c-3.4,12.2-13.9,38.9-28.5,46.4c-0.6-1.5-1.4-4.3-1.4-6.3c-5,5.9-14.3,14.8-24.8,14.3c-0.2-2.6,0.8-5,1.5-7.2
		c-2.2,1.8-4,3.1-6.7,4.1c10.3,7.9,15.5,22.1,16,37.3c7.4,11.1,23.3,12.8,31.3,2c2.4,0.4,2.4,7.7,2.7,9.6c5.8-2.3,13-5.3,23.4-1.1
		c10.2,5.5,13.6,16.7,13.9,28.7c-2.5-1.7-3.4-4-8-4.9c3.5,8.8-0.6,18.5-4.9,25.6c-2.3-2.9-2.1-7.7-4.4-10.6
		c-12.5,9.9-6.5,22.2-26.2,41.3c-0.1-3.4-1.6-6.2-3.4-7.7c-2,10.9-8.3,18.4-15,24.2c-1.8-1.5-1.1-4.8-2.1-6.9
		c-2.2,2.2-1.9,5.8-2.3,8.9c-0.9,6.2-3.8,8.7-7.6,13.5c3.4,2.6,7.9,4.9,11.6,4.5c3-0.3,4.7-2,5.8-6.4c7.9,5.9,1,19.8-2,23
		c5.3,2.7,10.2,5.6,12.8,10.3c-13.6-0.3-22.5,8.4-37.4,4.4c-5.5,3.4-15.5,1.5-21.2-1.8c-6.3,2.1-20.2,2.8-29.3-3.5
		c-8.2,3-8.8,0.6-15.9,2.5c-1.6,0.4-2.6,2-4,2.7c-7.2,3.8-18.3,1.9-21.7-3.7c-2.3,1-4.7,2.4-8.1,2.4c-5.2,0-10.2-2-12-5.8
		c-5.1,1.8-17.5,2-21-8.9c-9.1,3.9-21.1-1.4-23.4-9.5c-6.4,2-13.1,1.2-17.2-0.1c-5-1.5-7.9-4.9-9.5-10.2c-1.8-5.8,0-11.2,1.7-17
		c4.9-8.4,20.1-3.1,28.1-1.3c0-1.7-0.6-4.9,0.1-7.9c3.7,1.7,7.3,4.3,12.9,4.7c9.9,0.6,19.8-3.9,26.2-7.8c6.2-6.7,11.3-15,14.4-25.8
		c-1.8-0.3-4.7-0.1-5.3-2.3c1.7-5.2,4.1-9.9,2.8-14.2c-0.8-2.7-6.4-8.8-8.9-11.5c-5-5.2-10.4-8.5-13.5-14.7
		c-0.4,3.1-3.1,8.4-8.2,6.9c0.3-4.4-0.3-8.4-1.3-12.3c-2.1-8.6-5.9-16.5-5.9-25.9c0-7.2,1.2-18.1,3.3-25.1
		c-2.3-3.7-4.5-7.5-5.4-12.3c-1.4,1.6-2.7,1.8-4.6,1.6c2.8-9-4.5-18-2.1-28c1.7-7.1,6.3-10.9,11.3-14.9c-2.7-1.5-5.9-1.1-8.5-4.8
		c8.9-0.8,18.1-10,20.8-14.9c8.1-14.2,15.6-28.7,28-37.3c7.8-5.4,15.4-9.8,25.3-13.3c-0.6-7.9,2.7-14.9,6-20.6
		c-2.1-1.5-5.1-1.6-7.5-3.1c-6.4-4.1-6.4-13.5-7.8-22c-0.7-4.1,0-7.8-4-10.5c-2.6-0.5-3.9-0.9-6.7-0.9c-1.8,5-2.9,9.1-6.8,11.3
		c2.1,3.7,0.5,11.7-3.8,14c0.6-4-1.1-6.7-2.6-8.5c-6.8-5-16.4,5-23.1-1.1c0.2,4.4,1.2,9,5.8,11.1c-7.2,2.3-16.4-1-20.9-6.1
		c-8.3,9.6-16.8,6.8-18.7,21.6c-12.5-3.7-11.6-16.7-13.8-28.6c-2.2,4.9-4.6,12.1-5.1,19.2c-0.3,4.6,2.5,9.9-1.6,11.3
		c-2.2-4.4-5.8-6.6-9.1-10c-2.3-2.4-5.2-6.4-6.4-9.5c-2.5,6.8-19.4,14.1-25.3,15.1c0.8-4.8,0.3-13.2,1.1-18.9
		c-3.7,3.6-9.1,9.3-15,11.2c-4.9,1.6-8.7,3.5-12.9,1.4c1.3-2.5,2-7.5,0.7-10.4c-1.3-2.7-3.6-6-6.5-7.7c-3.2-1.9-8.9-3.2-13-4.8
		c-7-2.8-16.5-10.9-20.6-15.6c-0.6,0.8-0.3,4,1.5,6.8c-2-0.8-4.1-3.4-6.2-5c-2.1-1.7-3.3-1.8-5.2-3.6c-5.1-4.8-6.3-13.5-6.5-21.8
		c-2.4,0.2-5,4.7-8.6,4.5c4.8-8.7,7-24.5,8-33.5c0.3-2.9,0.8-12.2,1.7-17c5.2-25.3,13.2-34.8,24.5-52.9c1.5-2.4,5.5-9.2,6.8-11.6
		c0.4-7.4,2.4-20.7,7-31.3c-3.1-0.9-4.8-1.1-8.3-1.2c-26.4-0.9-56.7-0.9-81.8-3.8c-0.4-3.3,3.4-4.6,6.7-5.9c5.1-2.1,13.4-3.7,18.9-5
		c1.9-4.2-3-4.5-4.1-7.2c1.3-4,7.4-8.3,9.6-11.1c-5-1.1-13,0.5-17.9-0.5c-1.1-0.3-3.8-1.4-4.6-2c0.2-2.4,1.4-4.8,2.3-7.1
		c10-3.1,21.4-4.5,32.8-5.8c0.3-0.6-1.2-1.8-1.7-2.5c-3.1-0.5-5.6-0.4-8.4-0.4c-0.6-1.7-0.4-2.3,0.8-3.5c-1.8-1-3.9-1.9-6.3-2.4
		c-1.4-1.8-2.2-8.3,0.2-10.1c17.7,4.3,32.2,10.9,48.2,14.9c12.3,3,24.1,7.2,35.9,9.5c7.4-4.3,7.2-7.5,11.1-10.4
		c4-3,8.4,0.1,13.8,1.6c3.4-2.9,7.3-6.6,13.4-3.2c-0.3-1-1.1-3.7-1-4.8c0.1-4.3,2.1-9.4,0.4-13.7c4.4,2.3,8.7,4.7,10.8,8.7
		c0.9-2.5,3.2-6.4,2.7-9.6c-0.3-1.8-1.5-3.5-2-5.4c-0.7-2.8-1.2-4.8-0.1-8.4c0.8-2.5,2.8-4.9,5-5c-1.9,3.5,5.2,10.7,8.2,11.9
		c-0.3-4.2,8.4-7.6,5.2-17.8c4.1,1.6,6.5,6.2,9,9c2-4.8,3.7-10.4,7-13.6c1.5-1.5,3.5-3.4,5.8-3.3c-1.8,3.3,0.3,4.8,0.4,9.2
		c2.6-5.7,8-9.3,10.5-15.1c1.3-2.9,1.8-5.3,1.4-9.5c3.5-0.6,4.6,4,6.2,5.9c7.8-12.2,20.9-12.1,33.9-11.8c1.1,5.2-5,7.4-7.6,10.4
		c4.2-2,6.9-2.1,10.9-1c1.7,0.5,3.7,2.6,6.3,2.2c2.1-0.3,3.1-0.7,5.5-3.7c0.7,6.8-6.2,9.5-9.8,12.5c11.1,0.1,14.6-11,28.2-7.7
		c4.9-6.1,15.2-11.1,24.4-6c3.9,2.6,10.7,0.6,13.2,2.2c-6.1,1.1-10,1.4-13.2,4.5c3.4-0.3,5.6-1.1,8.6-0.8c4.8,0.5,10.2,4.4,14.6,5.2
		c0.4,2.6-0.6,2.9-1.9,5.8c5.7-0.8,15.6,0.3,19.8,4.6c5.3-1,12.1-1.9,18.1-0.3c5.6,1.5,8.3,4.5,14.5,4.7c-1.1,3-2.9,3.4-5.1,4.8
		c7.3,0.2,12.6,4.3,17.8,8.1c3.5,2.6,4.7,3.9,7,5.2c-0.3,3.1-2.7,3.6-4.7,4.4c1.1,2.5,2.2,4.9,3.5,7.9c3.1-1,5.2-1.4,8.1-1.3
		c8.8,0.1,14.9,5,19.7,8.6c-0.3,1.4-3.6,0.6-4.4,1.8c10.5,3.6,17.8,9.4,21.9,19.6c1.1,0.9,4.2,3,4.7,4.3c-0.8,0-2.7,0.9-4.5-0.1
		c0.2,1.3,0.8,2.8,0.8,4.2c5.2,3.5,9.7,7.6,12.2,13.2c11,0.8,17.1,7.3,18.1,16.4c2.5,5.5,8.3,8.5,14.8,11.1c0.3,1.4-0.3,2.8-0.8,4
		c6.3,1.5,8.1,9.4,12.5,12.5c2.2,1.5,4.1,3.2,7.2,2.6c0.7,1.7,0,2.9-1.3,4.2c2.7,3,6.6,4.4,12.1,4.8c10.4,0.7,18,3.6,24.4,9.9
		c1.9,1.9,2.7,3,5.2,4.3c-1.5,0.2-2.9,2.4-5.6,2c8,3.7,9.5,15.4,20.3,13.9c-1.1,2.9-3.6,4-6.7,4.1c4.1,4.9,8.3,9.1,10.6,15.1
		c3.2,8.3,5.6,18,15.3,22c3.4,1.4,5.1,2.6,8.4,3.6C601.7,306.2,599.3,307.1,595.8,307.4z M164.9,137.9c1.5-0.9,4.4-2,5.7-2.1
		c0.7-2-3.6-6.2-4.3-8c-1.5-3.6-2.6-4.4-5.5-6.1C159.7,129.4,160.7,135,164.9,137.9z M179.6,157.2c-2.4-2-6.1-6.6-8.7-4.8
		c-1.8,2.5-3,4.9-2.2,7.5c0.8,2.8,6.1,9.3,9.3,11.6c1.6,1.2,3,1.9,6.4,2.6c-6.6,0.6-6.9,7.5-9.4,12c0.9,0.6,3.3,2.3,3.5,4
		c-10.9-8.5-19.8,0.3-25.5,4.9c4.5,8.9,9.8,8.6,15.3,12.3c1.2,0.8,3.2,2.3,4.5,2.5c1.3,0.1,4.9-2.1,6.5-2.9c2.6-1.2,5-2.1,6.6-3.1
		c2.8-1.9,3.8-5.7,5.5-9.9c1.1-2.8,2.4-5.8,2.9-8c0.9-4.1-0.7-7.2-1.7-10.3c-1.1-3.4-1.6-7.4-3-10.5
		C188.1,160.7,182.7,159.7,179.6,157.2z M184.8,153.7c0,1.1,0.1,2.7,0.1,2.7s2.2,1.1,3,1.7c0.8,0.6,2.5,2.6,2.5,2.6s0.8-4.2,0.7-6
		c-0.2-1.9-0.6-5.5-0.6-5.5c-1.8-3-3.7-4-6.9-3.5C183.5,145.6,184.7,152.6,184.8,153.7z M210.5,172c-5.8-1.9-10.3-2-16.7-4.4
		c1.6,4,3.5,10.1,4.4,13.9c0.9,4.4-0.8,9.3-2.2,12.4c4-0.3,8-1.4,12.2-2.5C207.6,184.7,208.6,178.5,210.5,172z M173.6,179.6
		c1.2-4.8-1.6-8.8-4.1-11.5c-1,2.6-2.7,4-3.7,6.6C166,178.1,170,180.5,173.6,179.6z M182.3,154.9c-0.7-5.3-1-10.2-3.6-14.1
		c-3.4-4-9-1.5-12.1-0.3c1,3,3.3,6.2,5.3,8.5C176.9,149,178.5,153,182.3,154.9z M146.4,139.8c1.8,4.6,4.7,8.4,7.7,12.1
		c0.9,1.1,2.1,3.1,2,4.1c-0.3,1.2-0.1,1.6-0.6,3.1c-0.3,0.9-1,2.6-1.4,3.7c-1,2.5-2.1,5.7-1.6,7.8c0.5,2.2,2.5,3.3,4.3,4.1
		c4.2,1.6,7.4-3.3,10.9-9.4c-2-1.8-2-5.2-2.2-7.5c-1.5-0.7-3.2-0.9-4.8-1.4c1.5-0.3,2.8-0.6,5.2,0.1c0.8-1.5,2-4.4,2.5-5.4
		c-2.1-5.4-4.5-8-6.1-11.1c-1.8-1.9-5.8-4.5-9.1-4.4C150.4,135.8,148,137.9,146.4,139.8z M125.1,147c1.7,0.1,3.9,1.1,5.2,1
		c0.3-0.9,0.4-2.6,0.9-3.2c0.1,3.8,0.8,4.3,1.8,6.2c1.2,2.1,4.5,3.1,6.2,4.9c1.9-0.5,2.5-2.5,4.9-2.6c-4.7,3.6-6,9.4-6.4,13.5
		c-0.2,2.4-0.2,4.1,2.7,5.1c2.5,1.2,5.3-0.8,6.3-3.2c2.8-5.3,4.7-6.9,5.8-11.5c-1.2-1.3-3.8-1.9-4.8-2.4c2-0.5,3.7,0.4,4.7,0.7
		c-0.8-3.4-6.5-10-9.8-15.3c-3.8-2.1-6.7-2.8-9.5-1.8c-1.3,0.5-2.5,2.6-3.6,3.8C128.1,143.6,125.9,145.1,125.1,147z M49.9,149.3
		c-0.3-1.3-1.3-2-1.9-3.1c-6.4,1.6-13,2.9-20,3.8C35.1,151.2,42.7,148.9,49.9,149.3z M57,182.2c-3.1-0.8-1.6-3.9-1.4-6.3
		c-1.6,0.6-3.4-0.4-5-0.5c-2.9-0.1-5.5,0.9-8.2,1.6c-6.7,1.9-13.6,3.2-20.1,4.8C35.4,183.3,45.5,183.4,57,182.2z M113.5,185.7
		c4.5-0.6,6.6-2.4,10.8-1.2c1.6,0.5,5,2.4,6.4,2.8c3.7-1.8,5.6,1,9.3,2.2c0.5,0.2,1.6,0,2.3,0.1c2.7,0.4,6,1.8,8.2,1.9
		c3.3,0.2,4.4-1.2,6.2-2.4c6-5.8,9.6-4.4,8.3-8.6c-1.7-1-2.6-3.2-2.6-3.2c-3.2,1.7-7.1,1-10.1-1c-1.4-1-3-2-3-6.4
		c-1.6,1.8-2.1,3.3-3.1,3.7c-3.7,3.4-6.5,2.1-9.8-0.1c-0.7-0.7-1.8-2.5-1.6-3.8c0.2-1.9,0.4-2.2,0.6-4.7c0.2-1.9,0.9-4.2,1.7-6.7
		c-3-1.1-4.7-3.8-7.2-4.9c-4.5-2-14.8-4.1-19.9-5.3c-26-6.3-48.1-14.3-72.1-22.2c0,0.3-0.1,0.7-0.1,1c3,2.3,8.2,3,12.1,4.5
		c9.6,9.5,27,11.8,42,17.3c2.4,2.3,7,1.9,8,5c-5.2-1.1-16.1-5.1-23.4-6.4c-2.4-0.4-7.7-1.5-8.4-0.4c-1,1.5,6.3,5.7,8.1,5.8
		c2.5,3.1,8.1,3.5,13.6,5.3c6.1,2,12.2,3,16.1,5.6c-19.6-4.9-37.2-6.5-55.3-6.4c-2.2,0-5.7-0.7-6.6,1.6c1.3,1.7,4.1,1.9,5.2,3.3
		c-0.3,3.8,0.2,6.9,1.2,9.6c1.1,0.6,2.9,0.6,3.6,1.5c3.3-0.8,5.8-4.5,8.8-4.6c-0.8,2.2-4,4.8-3,8.5c3.1,1.1,6.1,4.8,9.9,5.5
		c2.7,0.5,6.7-0.3,10.7,0c4,0.3,10.1,1.2,14.2,1.5C101.2,184.4,106.9,186.6,113.5,185.7z M259.5,370.1c-6.2-4.8-9.8-2.5-15.4-3.5
		c-5.6-1-8.1-3.4-9.4-6.6c-1.3-3.2-1.1,2.2-1.1,2.2s-0.3,5.9,2.3,8.8c2.6,2.9,7.2,2.9,11.5,1.7c4.3-1.2,9.1-0.6,11.2,1
		c2,1.6,2.7,3.7,2.7,3.7S263.1,374.2,259.5,370.1z M207.7,689.4c3-2.4,4.9-3.7,7.1-5.3c-1.1-1.5-6.7-3.1-8.6-3.5
		c-5.7-1.3-16.3-3.7-20.2,0c5.2,0.1,13.4,2.8,15.6,5.8c-5.5-2.7-12.8-5-16.3-4.4c-2.2,9.2-1.4,14.2,3.8,18.3
		c5.2,3.1,14.6,2.5,16.7-0.1C206.7,697.7,204.6,691.8,207.7,689.4z M231.3,701.9c-0.1-6.5-15.8-12.6-20.6-8.4
		c4.8,0.3,14.1,2.5,14.8,5.9c-2.4-1.7-9.9-5-15.8-3.8c-2.5,13.9,13.3,19,19.8,14.4C228.9,705.8,231.3,703.2,231.3,701.9z M252,709.3
		c-2-0.4-8-0.2-8.6-2.4c0.6-1,2.9-1.4,3.4-2.6c-5-0.8-6.9,1.2-11.2,0.2c-0.9,0.6-1.5,1.7-1.6,2.5c2.9,0.4,10.6,1.7,11.6,4.6
		c-3.7-2-7.9-2.6-12.2-2.8c-1.9,9.4,9.6,14.2,16.8,10.9c-0.4-1.3-0.6-2.5-0.7-4.2C249.4,713.3,250.5,710.6,252,709.3z M269.4,723.7
		c-0.5-1.9-0.9-4.3-0.3-5.9c-4.5-0.5-11.9-3.1-16.6-2.5c-0.1,2.7,0.8,5.7,2.1,7C259.6,726.8,265.5,725.7,269.4,723.7z M273.5,710.9
		c-4.8-1.2-12.5-1.3-17.3-1.5c-2.2,0.3-3.1,3.2-3.6,4.1c5.5,0.2,10.5,1.2,16.5,3.1C270.9,714.1,271.2,712.6,273.5,710.9z
		 M301.8,723.6c-0.4-6.9-11.3-5-16.3-5.1c-0.9-0.9,0.8-2.1,2-4.1c-4.1-1.2-13-0.5-14.4,3c3.6,0.2,10.4,1.2,11.3,4
		c-2.3-1.2-7.7-2.7-11.6-2.6c-0.4,2.2-0.1,4,1,6.5c2.4,3.1,11.3,4.8,16.2,2.2C292.5,726.1,297.3,722.2,301.8,723.6z M376.6,679.5
		c-2.4-1.8-5.6,0.8-7.8-0.7c-1,4.2-2.5,7.6-4.5,10.3c1.7,1.4,3.7,3.1,5.7,3.9C372.5,689.8,377.7,685.4,376.6,679.5z M331.9,546.9
		c3.5,5.7,5.4,18.9,6.4,27.2c0.7,6.4-0.2,10.9,1.8,15.2c-2.2-0.4-3.4-2-4.8-4.3c-1.1,4.2-3.2,9-5.2,13.1c-1.7,3.5-2.4,6.5-1.4,11.9
		c2.6,2.6,7.3,4.2,11.9,5.2c4.9,1.1,10.6,3,13.9,7.5c-1.7-0.6-4.7-2.1-6.5-2.1c-0.2,8.1,4.7,13.7,8.3,18.3c-1.3,0.9-3.2-1.3-4.8-1.8
		c-1.3,3-1.9,6.3-4,8.8c7.2,14.1,4.5,26.8,10.2,35.6c1,1.5,2.9,3.9,4.4,5.2c3-2.9,4.7-12.3,4.6-16.1c0.7,1.5,2.4,2.8,1.9,4.8
		c6.7-3.7,9.9-1.9,13.2-9.7c3.6,0.2,3.6,4.3,4.4,7.4c4.7-4.8,7.7-12,9.1-17.5c1.7-6.9,1.5-12,6.4-13.8c-1.9,2.6-2.2,5.6-1.8,8.5
		c3,0.8,3.2,4.3,5,6c13.8-12,11.6-30.2,22.1-37.3c-0.4-1.3-0.9-2.2-2.1-3.1c7.5,1.3,9.1,9,9.5,8.5c2.2-2.7,3.6-19.3-2.2-20.5
		c1.9-2.5,6.8,0,9.6,0.9c-1.2-8.6-6.6-19.9-17.6-20.3c-6.5-0.2-10.8,1.2-26.7,10.1c3.5-3.1,7.7-6.8,8-13.2c-6,7.6-24.7,5.7-30.9-3.7
		c-0.3,4.4,1.2,10.1,3.4,13.5c-3.3-1.3-4.9-7.4-5.9-10.7c-2.6-8.5-2-15.8-8.2-23.2C358.3,550.8,340,542,331.9,546.9z M347.6,634.1
		c-2.8-3.7-4.4-9.9-4.9-14c-2.8-1.6-9.5-1.5-14.5-5.3c0.9,7.7,2,13.5,7.3,17.6c3.8,3,6.8,6.4,8.8,9.3
		C345.6,639.5,347,637.3,347.6,634.1z M435.1,482.6c5-1.7,11.7-4.4,14.4-7.5c-0.7-2.5-3.9-3.8-6.8-5.3c3.9-0.6,7,2.7,8,3.8
		c2-3.9,4.1-9.4,5.6-14c-1.7-2.9-6.8-7-7.9-10.4c-4.3,1-5.9,2.4-7.1,4.6c-1.4,2.7-1.6,5.1-1.7,7.9c-0.2,3.2-0.9,3.5-3.7,5.1
		c-2.7,1.5-3,2.2-6.2,3.1c-1.1,0.6-2,0.8-3.3,2.5c0.5-2.5,3.6-4,5.9-5.3c-0.1-6.7-9.4-6.9-12.2-2.7c-1.2,5.2-2.4,8.4-0.7,13.4
		c0.1,0.4,3.8,4.9,4.5,5.6C426.9,486.5,432.3,483.5,435.1,482.6z M410.6,449.6c-5,0.8-8.6,1.6-8.6,2.8c-0.3,2.9,5.6,7.2,7.1,8.2
		c2.6,1.8,11.3,2.8,13-3c0.6-1.9-1.1-4.2-2.9-5.3c-0.1-2.7,1.3-6.5,1.9-9.1c0.5-0.1,0.9-0.3,1.2-0.5c0-1.2,0.1-2.4,0.2-3.5
		c-1.6-2.6-5.8-5.4-8.3-5.8c-2.5-0.3-4.1-0.6-5.8,1.6c-2.5,3.2-3.6,12.2-6.2,15.5C405.4,449.5,409.6,448.7,410.6,449.6z M426,457.9
		c4.8-0.8,9.1,1.9,9.4,5.9c2.4-0.9,1-3.2,2-5.3c-4.9-3.8-9.6-7.7-12.4-13c-0.5,0.1-0.8,0-1.5,0c-0.6,1.4-0.8,3.3-1.2,4.9
		C424.5,452.2,426.7,454,426,457.9z M463.3,484.8c-1.1-2.1-3.9-4.7-7-6.1c2.6-1.3,6.3,3.3,8.3,4.5c1.4-4.8,1.8-8.7,3.4-12.8
		c-3.6-4.2-9.2-6.7-11.7-2.2c-0.5,3.2-2.2,7.3-4,9c-4.2,4-8.5,5.9-14.5,7.8c1.8,2.6,3,7.2,7.5,6.7
		C450.1,491.1,460.4,486.4,463.3,484.8z M469,495.5c2.8-1.3,5.4-2.8,6.6-5c-1-1.8-3.3-3.5-6.4-5.2c2.1-0.2,6,2.5,7.4,3.7
		c-0.2-3.4,5-10,0.3-13.7c-2.6-1.5-4.6-2.7-5.7-1.6c-2.5,2.4-2.1,10.5-4.8,13.1c-2.4,1.3-8.8,4.1-11,5.5c0.7,2.5,4.4,6.2,6.8,5.9
		C463.3,497.9,467.2,496.4,469,495.5z M477.6,501.6c2.5-1.2,5.4-2.8,6.5-4.8c-0.9-1.6-1.4-2.1-4.3-3.4c1.4-0.1,2.2,0.2,3.7,1.3
		c-1.9-3-3.2-6.1-3.7-9.6c-1.4,2.8-1,7.4-3.1,9.5c-2.1,1.2-7.8,3.6-9.8,4.9c0.6,2.2,3.1,4,5.3,3.8
		C473.2,503.2,476,502.3,477.6,501.6z M489.7,507c-1.5-1.9-2.3-3.6-3.9-6.7c-0.7,0.7-1.5,1.4-2.4,2c-0.9,0.6-1.9,1.1-2.8,1.6
		c2.2,3.2,4.4,5.3,8.9,8.2C489.5,510.5,489.3,509,489.7,507z M548.9,333.4c1.1,7.8,4,14.3,7,20.7c1-9.7,0.4-19.3-0.6-28.2
		c-1-9.2-2-17.5-5.6-25.1c-3.5-7.3-8.1-13.7-9.2-21.5c3.1,6.4,8.9,21,19.7,16.1c-9.2-5.2-11.1-18.7-16.4-27.1
		c-3-4.8-5.2-6.7-10.3-8.6c-4.6-1.4-12.1-1.5-13.6-5.7c12,4.2,11.9-1.2,19.3-1.1c-2.6-2-4.6-4.1-8.5-4.8c-2.5-0.5-6.5,0.1-8.6-1
		c-5.9-3.2-11.7-11-17.6-15.2c-6.6-4.7-12-5.1-19.5-7.8c-14.1-5.1-26-14.8-34.1-23.8c-0.8,4.7,2.1,10.1,3.9,15.2
		c-3.7-3.1-5.1-7.6-6.3-11.7c-0.9-3.1-1.6-6.6-3.6-9.9c-7.1-11.8-18.9-22.5-35.3-25.5c-1.2-0.1-4.7-0.8-5.8-0.6
		c1.9-1,5.8-2.5,10-2.9c-5.4-2.6-15.5-1.5-21.3-0.1c-1.8,0.4-3.6,1-5.3,1.3c-14.2,2.6-17.9-8.6-40.5-10.5
		c-7.5-1.4-14.9-1.9-20.1-3.9c-2.1-0.8-4.6-1.5-6.4-3.5c5.6,1.6,8.4,3,11.2,3.3c2.5,0.2,9.7,1,11,0.3c-6.3-1.7-14.9-9-19.9-9.5
		c-12.7-1.4-26.3-7.6-38.8-9c-14.6-1.7-30.7,2.3-39.3,10.2c-10.4,9.5-15.8,18.5-19.2,32c-1.5-12.3,10.2-27.5,18.2-35.7
		c-10.7,1.8-18.2,8.8-22.8,17c-5.6,9.9-10.5,21.8-9.6,35.8c0.1,2.1,1.7,5,2.6,5.1c-0.1-6.5,0.9-14.7,2.9-17
		c-0.8,5.2-1.5,13-0.2,17.8c0.9,4.2,4.9,5.9,9,5.9c3,0,9.1,2.5,10.8,0.9c-3.1-4.5-6.8-16-5.5-22.4c0.7,3.1,1.4,6,2.9,8.3
		c2.3-7.3,8.3-18.4,16-24.3c-7.3,9.5-16.5,23.1-12,36.6c0.7,1.6,3.3,1.4,5.2-0.4c-2.2-5.6-0.8-16.9,2.8-21.2
		c-2,7.3-2.5,14.7-0.4,20.3c5.4,5.1,7.9-3.9,20-2.9c2.9-0.9,4-5.6,5.4-9.8c2.8-7.1,4.1-16.8,9.2-19.8c-3.5,4.4-4.5,10.3-5.3,15.9
		c4.9-2.3,10.9-3.7,16.6-2.6c3.4-11.2,17.8-14.1,25-3.1c10.1,3.1,13.7,12,20.2,16.6c1.6,1.1,2.8,1.5,5.1,3.5
		c-14-5.7-13.8-13.3-24-16.7c1.9,4.4,2.3,10,1.9,16.2c4.9,3.4,5.6,3.5,10.7,5.3c2.1,0.7,8.8,2.5,10.2,4.9c-4.2-2.2-9.1-3-13.1-4
		c-15.5-5.4-24.1-20.6-41.2-21.1c-3.2-0.1-7.4,0.7-10.6,2.4c-2.3,0.8-3.8,6-3.8,7.8c3.7-0.9,10-2.3,13.6,0.4
		c-3.2-0.5-11.4-0.2-14.7,2.5c6-0.1,21.2,4.9,26.7,10c-6.3-3.3-15.3-5.8-23.5-6.9c12,4.9,23.7,13.5,31.6,31.1c1,2.8,1.9,5.9,2.1,8.7
		c-3.9-12.9-10.2-20.6-22.2-28.5c3.7,3.6,8.3,18.5,5,31.7c-0.4-9.6-0.3-21.4-8-28c-0.6,0.6-1,1.4-2,1.5c1.1,4.9,4.9,10.4,2.6,17.1
		c-0.8,2.3-2.8,3.4-4,5.2c-0.1,0.9,0.9,2.6,1.2,4c0.4,1.7,0.2,3.4,0.3,4.9c0.4,3.4,1.3,6.5,1.5,9.4c0.4,7.9-1.7,11.5-1.7,19
		c0,4.9-0.8,9.3,0.3,17.6c-5.2-10.7-0.6-34.6-3.1-43.2c-2.6,0.5-3.6,0.8-4.6,3.1c-0.3,3.9-2.7,8.5-3.1,11.2
		c-0.6,4.6,0.7,11.7,0.6,16.4c-0.1,5.8-1.6,11-3.3,15.9c3.4-11.7-0.8-20.6-0.3-31.5c-0.4-1.3-3.5-2.1-4.8,1.1
		c-1.7,4.5,0.1,11,0.2,14.9c-2-3-3.1-7.5-3.7-11.8c-0.2-1.4,0.8-3-0.8-3c-2.6,0.7-2.2,2.2-2.3,4.5c-0.2,5.6,0.4,13,5.2,22.8
		c-5.7-7.6-9.2-14.6-8.6-26.9c-4,0.3-6.6-2.9-8.9-3.8c-0.8,2.7-1.1,7.9,4.2,17.1c-4.8-6.4-7-9.3-7.4-18.5c-0.2-4.4-1.1-10.7-3-14.3
		c-5.4-8.4-6-15.4-6.6-22.2c-0.6-1-4.1-4-5.3-4.8c-1.3,4.7-1.8,6.3-2,11.2c-1.4-6.3-2.1-14.2-1.1-23c-2.1,0.9-2.6,3-5,6.7
		c0.8-4.4,1.1-7.3,3-10.2c-3.1-1.5-4.1-4.5-7-6.1c1,6,2,13-1.1,18.3c-2.1,3.5-5.1,6.3-6.9,10.5c-0.5,1.2-0.9,2.9-2.1,3.8
		c-1.6-5,1.8-9,3.7-13c1.9-4.1,2.9-8.6,2.1-12.7c-3.5,3.2-7.5,6.2-10,10.8c-1.1,2.1-1.3,4.6-3,6.5c-0.8-4.4,1.6-12.5,2.8-16.2
		c-3.7,2.1-9.2,11.4-10,18c-0.3,2.2,0.5,4.1-1.7,4.6c-0.5-6.3,0.4-12.1,1.8-17.9c-2.4,4.2-6.7,7.7-7.5,13.2
		c-0.2,1.5,0.2,3.2,0.1,4.9c-0.5,6.3-2.5,12.2-3,17.5c-0.5,5,0.2,8.1,1,12.9c0.4,2.4,0.5,3.1,0.2,5.5c-0.2,1.8-0.8,9-2.8,10.3
		c-1.1-4.5-3-14.4-6.2-18c0.9,4.5,0,14.3-0.3,19.1c-0.3,4.5,0,10.8,1,14.5c0.8,3,1.6,5,3.4,6.5c-9.6-0.9-12.4-5.5-16-8.5
		c-1.5,9.8-0.1,14.2-7.7,21.1c-8.4,7.6-23.5,12.1-26.7,24.1c-1-2.6,0.9-5.7,2.2-8.4c5.5-7.3,23-12.9,27.1-28.6
		c1.8-6.9,1.6-16.7,0.6-21.9c-0.3-1.3-0.9-4.3-0.3-6.2c1,1.8,3.7,18,15.4,24.3c-2.2-2.5-2.3-5.9-2.7-7.8c-1.3-6.7-0.1-15-0.2-22.6
		c0-6.8-2.3-13.4-4.6-18c-3,4.8-4.8,10.2-3.2,18.5c-5.4-6.5-1.8-16.3,0.6-25.7c1.4-5.5,2.1-7.3,1.2-11.1c-0.4-1.9,0-4.1-1.6-7.9
		c4,4.1,3.6,11.3,4.9,17.3c1.3,5.5,4.1,10.7,7.1,14.6c0.7,0.9,2.5,3.4,3.1,3.1c-2.4-9.3,2.8-19.9,1.7-29.7
		c-0.3-3.2-2.1-7.6-4.2-10.1c-2.3-2.7-6-4.5-9-6.9c-5.3-4.3-9.7-8.2-13.2-13.4c-1.4,0.2-3-0.9-5-1c2.9,3.5,4.1,8.2,5.1,11
		c-4.7-7.5-6.9-11.7-13.8-14.2c0.9,2.4,3.2,4.9,4.5,8.1c1.2,2.9,3.3,6.6,2.5,9.3c-3.7-10.4-11.3-19.1-18-18.9
		c-4.5-0.7-6.5,0.9-9.6,2.7c-4.4,2.5-9.8,6.8-12.2,10.5c0,0.1-8.1,18.3-3.7,31.6c1.8,5.3,3.5,8.5,4.8,11c1.7,3.2,2.8,5.4,3.1,9.2
		c0.1,1.7,0.2,3.5,0.2,5.3c0.3-1.1,0.5-2.2,0.7-3.4c3-6.4,0.3-19.8,0.3-19.9l2.5,4.5c0,0,7.4,6.9,7.2,18.2
		c-0.1,7.1,1.7,11.9,9.3,27.4c0,0-11.7-15.6-11.5-26.6c0.1-5.6-2.2-10.2-4.2-13.2c0.1,2.8,0,6.5-0.5,10c-1.1,7.2-9.1,20.8-9.1,20.8
		l1.8-8.6c4-17.6-5.4-16-9.8-28.6c-0.8-2.3-2.6-6.3-2.8-8.9c-7.9,14.3-15.4,22.6-21.8,38.2c-8.7,21.1-3.9,31.2-11.9,57.2
		c1.8-3,2.9-2.7,5.3-5.1c0,4.5-1.7,24.9,7.3,29.9c0-3.5,0-10.8,1.4-14.2c0.3,7.1,1.9,8.9,4.6,12.5c3.1,4.1,8,8.1,12.1,11
		c3.7,2.6,9.4,6.1,13,7.2c7.1,2.2,11.3,3.3,15,7.8c3.1,3.7,4.9,8.3,3.6,14.1c9-2.4,17-7.7,22.1-15.4c0.3-3.8-0.5-6.2-3.3-8.8
		c9.6,2.7,7.8,22.5,6.7,28.1c4.7-2.7,10.3-4.5,14.7-8.4c3.9-3.3,5.8-8.2,8.4-12.3c0.9-1.3,1.6-3.1,3.3-3.6
		c-1.7,5.2-2.1,7.5-2.5,10.8c-0.2,1.8,1.8,4.9,2.6,6.3c1.6,3,5.5,6.7,7.5,9.1c-0.5-11.8,7.2-23.1,5.6-35.1
		c-0.6-4.3-4.1-8.5-2.2-13.1c0.7,6.1,5.1,9.4,5.9,15.7c6.9,7.4,4.5,25.8,10.7,30.9c2.8-6.8,7.2-10.1,13.9-13.1
		c12.3-6.1,9.9-18.7,8.6-27.7c0.9,1.4,1.5,3.1,1.9,4.9c1.1,6.4,1.9,10.6-0.5,17.6c2.8,2.8,5.1,6,10.2,7.1c-3.2-6.1-2.7-10.5-2.7-17
		c0-7.1-3.6-12.6-7.9-16.2c-1.9-1.6-6.6-8.6-8.7-10.8c-9.3-15.9-8.9-21.5-11-32.8c-1.4-7.8-5.9-17.8-4.7-27.3c0.1,0.6,0.5,0.9,1,0.4
		c0.4,10,6.1,27.4,10.4,34.5c6.1,10.2,5.3,17.9,14.3,23.8c3.8,2.8,12.6,8.2,23.1,11.4c10.5,3,15.8,5.6,27.9,6.4
		c4.8,0.3,3.9,0.3,7.8,2.5c2.7,1.5,3.1,4.2,5,6.3c1.1,1.2,9.5,10,13.9,7.4c-1.5-2.7-2.9-9-1.5-13.4c0.2,7.6,4.9,12.9,8.5,17.3
		c-7.5,0.4-15.8-0.8-20.9-8.3c1.3,6.3,1.4,14.7,4.5,20.2c1.8,2.7,7.7,4.9,12.8,7.3c2.7,1.3,9.5,6.1,9.2,9.7c-4-4.6-8.8-5.6-11.6-6.4
		c-3.5,5-5.1,10.6-5.6,17.5c8.1-1.4,15.2-3.6,23.5-5.1c4-0.7,8.1-0.4,11-2c4.9-2.6,12.2-10.8,18.2-9.3c-5.5,2-9.7,6-13.9,10
		c-4.4,4.1-9.7,4.3-16.3,5.7c-12.3,2.4-22.8,4.5-34.2,9.9c-7.3,3.4-16.9,9.8-22.5,15.1c-8.6,8.2-14.3,21.6-21.5,31.6
		c-4.2,5.7-7.7,10-15,12.5c2,0.4,4,2.4,9.6,0c-4.2,4.8-19,10.2-17,25.9c0.3,3.2,3,10,2.3,14.9c5.5-4.2,4.1-17.3,11.3-22.7
		c-4.5,6.2-4.3,16.9-7.7,22.9c1.2,3.9,2.8,8.5,4.9,11.8c0.5-2.3,2.9-7.1,5-7.8c-3.2,6-5.4,18.9-5.9,22c-1.9,12.6-0.4,21.6,2.5,31.9
		c1.4,4.9,3.2,9.7,3.1,15.6c5.8-5.7,1.6-14.8,3-18.5c3.9,14.6,8.1,20.3,15.5,27.2c4.8,4.5,11.3,9.9,13.2,16.3
		c0.8,2.6-0.5,8-2.6,12.8c4.3-1,8.1-6.3,8.8-10.6c0.4-2-0.2-4.3,1.3-5.7c-0.5,7.2,3.5,15.6,6.6,15.3c0.6-3.9-0.8-5.6,3.3-10.8
		c-1.2,3.8-2.1,8.7-0.1,12.6c-4.9,2.2-8.5-2.6-10.1-6.7c-0.5,3-2.4,5.7-4.9,8.1c-3.4,13.6-5.6,18.1-15.3,29.8c-7.5,5-19,11-30.3,9.1
		c-1.9-0.4-4.9-0.3-7.9-2.5c1.4,9.6,12.4,5.3,14.8,8.7c-6.4-1.2-12.3,3-15.7,5.9c17.4,0.8,13.9,8.3,22.4,6.2
		c2.1-0.5,5.8-3.1,8.2-3.8c2.5-0.8,5-1,7.8-0.7c-3.8,0.3-4.8,0.6-7.1,2c-3.2,1.9-5.8,6.7-8.7,8.8c5.3,1.8,16-3.3,21.2,2.5
		c-4.8-0.7-7.7,0.6-8.8,2c10.3,1.9,16.6,0.4,26.4,2.6c0.1-0.8,3-2.5,1.8-7.1c3.4,1.2,2.5,6.8,1.2,9.6c6.5,1,10.9,2.1,17,0.3
		c-0.8,2.3-3.8,2.2-5.2,4.8c6.2-0.7,15.2,0.8,18.4,5.4c-3-9.3-1.8-13.7-1.1-14.6c0.8,4.3,2,7,3.3,9c4.7,6.9,18.3,13.2,27.8,9.3
		c-1.8-1.8-10.5-11.3-9.9-18c5,9.7,17.6,23.1,29.3,21c-0.2-2.8-4.5-6.6-4.4-11.3c3.6,5.9,5.4,7.8,10.2,9.5
		c10.3,3.6,19.3-4.4,29.1-3.8c-7.7-4.8-22.5-6.4-31.3-10.4c-5.1-2.4-13.1-7.5-15.5-16.5c4.7,6.9,7.9,8.8,13,11.8
		c6.8,4,15,4.5,23.7,6.7c2.8-2.9,5.4-6.7,6.4-12c-4.7,3.7-9.8,1.7-14.4-0.4c-13.9-6.5-24.9-15.7-26.9-31.4
		c-1.6-12-0.7-18.7-11.9-32.7c-3.9-4.6-6.1-5.4-9-8.6c-4.5-5-16.5-17.1-10.3-24.9c-2.1,9.5,6.5,16.8,10.8,21.4
		c-1.5-5-3.9-12.9-2.9-19c1.3-11.1,11.6-19,7.7-28.6c-0.4-1.1-1.7-4.1-3.6-6.3c3.1,0.4,4.7,5.2,7.3,8.4c0.2-3.2-1-11.5-2-15.5
		c-2.2-8.7-6.7-18.1-11.8-23.5c-6-6.7-14.4-14.6-19.7-21.9c-1.7,2.4-5.4,3.4-6.3,2.8c0.1-1.7,6.8-4.6,10.2-12.5
		c-0.1,2.2-0.1,6.1-1.9,7.8c2.9,4.2,7.3,9.1,11.5,12.2c5.1,1,15.3,1.6,20-0.1c-4-2-6.3-3.8-7.6-5.5c9,3.8,23.6,6.3,37.1-4
		c-1.7,11.4-35.4,14.1-46.8,12.6c0.7,2.3,6.6,5.9,9.3,5.9c14.2-0.2,29.4-2.1,39.3-14.2c5-6.1,8.3-10.2,14.3-21.9
		c0.9,4.7-10.6,24-11.1,30.4c7.7-1.5,16-10.6,21-17.5c0.1-1.9-0.2-5.6-0.1-6.2c-2.1,2-6,6.2-8,6.3c7.5-5.8,16.3-21.4,16.8-21.1
		c-1.9,5.2-4.8,8.9-7.5,13c1.5,3.5,2.1,9.8,2.2,14.4c9.7-10.1,17.8-23.7,22-41.1c-4.2-5.7,0.3-11.6,0.3-15.8
		c-5.3,1.5-9.3-1.4-13-4.6c-1.5-1.3-3.5-3.5-4.2-4.6c-2.4-3.9-0.4-6.3,1.2-10c3-6.8,2.5-15.2,9.4-15.5c-2.8-2.5-4.3-6.2-5-9.6
		c2.6,0.5,8,0.9,10.4-0.5c0-0.9-0.2-2.4-0.3-3.2c-2.2-15-16.9-19.2-20.8-34.5c-2.3,2-4.5,4.4-7.4,6.2c-2.5,1.5-5.2,1.7-11.7,4.9
		c5.5-4.6,10.7-5.7,14.8-12.4c5.1-8.2,3.2-18.4,0.5-26.8c-1.5,1.6-2.4,4-3,7.1c-2.2-5.7,1.3-13,4.1-18c1-1.7,2.3-3.9,2.9-5.7
		c1-3.3,0.6-8.5,0.5-10.9c0-1.2,0.2-2.5,0.3-3.6c0.6-2.8,1.2-5.7,1.3-7.4c0.2-4-0.8-9.3-0.8-9.3s-0.5,7-1.9,11.8
		c-1.2-1.9-2.9-3.8-3.5-5.6c-1.3-3.7-0.3-8-1.1-11.7c-0.9-3.9-4-8.3-6.4-10.9c-1.4-1.6-4.1-2.9-3.9-4.9c5.5,2.9,10,5.1,14.8,8.8
		c3.2,2.4,5.5,4,8.5,6.8c1.8,1.7,4.1,3.2,6.2,5c6.2,5.1,13.7,9.9,22.5,12.2c7.7,2,13.6,0.7,23.2,3.9c4.9-7.4,11.8-14,20.7-16
		c-15.3,7.4-23.2,28-20.6,45.1c0.5,3.1,2,9.2,1.3,12.5c3.6-2.3,6.6-8.2,8.8-14.7c-0.2,6-2,11.5-4.9,16.7c-0.1,1.1,0.9,2.5,1.3,3.8
		c0.4,1.7,0.7,3.7,0.8,5.2c0.4,7.5-2.6,12.8-4.7,18.8c-1.2,3.3-2.1,6.3-3.5,8.7c-2.3,3.9-7.2,4.4-11.7,5.5
		c-12,1.4-14.4,8.3-21.1,15.2c-1.6,0.6-3.4,1.1-9.6,1.7c1.8,5.6,10.3,10.3,12.2,9c0.2-2.5,0.1-5.1,2-8.6
		c-1.1,18.3,5.7,24.7,12.8,29.8c-1.7-3.6-7.1-12.8-6.2-16.8c1.2,4.2,2.5,5.6,3.8,7.7c1,1.6,2.6,2.7,4.4,3.5c-1-2.5-2.9-6.6-2.3-10
		c1,3.1,3.3,6,5.6,6.5c2.4-2.9,0-7.3-0.4-10.4c-0.4-3.1-0.6-7.5,0.2-10.4c1,8.8,1.7,12.1,6.6,20.1c5,9.3,18.9,21.5,27.8,27.2
		c-1.5-11.4-12.4-19-13.2-26.8c3.9,9.4,10.5,11.2,14,19.4c0.9,2,2.6,7.9,3.3,9.9c2.1,5.5,4,10.5,7.5,14.9
		c3.9,4.8,8.3,10.9,17.5,16.9c-4.3-1.2-7.1-3.6-10.7-6.5c-6.3-5.2-10.2-10.5-14.4-16.8c0,0.7,0.1,1.6,0.3,2.4l0.1,0
		c0,0.3,0.1,0.6,0.1,0.8c1.2,3.8,3.8,8.3,5.4,10.7c3.9,5.7,5.5,8,13.4,14.9c8.1,6.3,18.2,9,27.7,8.1c-0.8-1.4-4.2-5.6-4.1-7.7
		c-4-1-12.7-4.3-14.3-8.7c9.5,6.4,23.8,6.5,28.9,0.2c-6.9-0.9-13.3-5.6-16.2-10.2c-8.9-14.1-7.6-37.9,0.7-51
		c-5.3,14.1-4.8,24.4-0.4,33.6c3.9,6.1,13.2,12.8,15.6,12.8c-2.3-2.8-3.1-6.9-4.4-11.2c-4.3-3.2-6.2-10.8-6.3-14.2
		c-0.2-5,0.8-8.2,1.2-12.4c0.1-1.1-0.1-4.6,0.8-6.1c0.5,6.1,1.1,10.8,7.2,15.6c-3.3-0.6-5.7-3.5-7.1-6.4c-2.3,17.6,7,24.2,17.9,24.6
		c-2.1-5.2-2.1-11.1-1.1-17.1c0.7-4,4.2-10.8,3.3-14.5c-0.5-4.9-3.5-14-7.1-19.3c4.8,3,6.4,11.2,9.7,15.3c2.6-12.2-0.5-14-0.9-19.8
		c-0.8-9.9,2.4-19,3.4-28.5c1.4-13.4,0.9-25.8-2.5-36.4c-1.5-4.7-3.3-9.6-4-14.6C548.3,340.3,547.5,337.1,548.9,333.4z M399.1,370.4
		c-0.4,1.7-0.5,5.3-1.8,7.6c-0.2,1.6,1.3,4.5,1.9,6.1c1.6,4.4,6.1,8.6,9.4,12.8c4.9,6.3,10.7,11.9,11.1,20.8
		c5.1-5.7,8-11.1,17.7-13.6c2.7-0.6,7.8-1.5,9.6-3c1.7-1.4,3.3-6.3,4.7-9.6c3-7.3,6-15.9,3.6-23.2c-2,0.5-4,2.7-6.4,1.6
		c2.5-2.6,3-4.5,2.4-8.1c-0.8-5.6-2.7-15-2.3-21.5c0.3-4.7,1.6-8.7,3.2-13.6c-4.5-1.6-9.4-1.2-14.1-1.5
		c-12.2-0.9-23.4-7.5-30.9-12.6c-3.4,9.4-5.3,25.7-11.5,34.2C396.7,355.4,400.2,362,399.1,370.4z M224.6,209.5
		c-1.1,5.5,2.7,8.9,5.3,11.6c0.8-3.8,2.5-6.1,5.2-8.2c-0.3-0.2-0.2-1.4-0.2-1.9C231.2,213,226.6,211.9,224.6,209.5z M234.9,207.9
		c-2.6,0.6-5.8-2-8.3-1.4C227.4,209.6,233,210.6,234.9,207.9z M250.9,211.8c-14.5-1.3-17.4,3.5-19.2,11.3c1.6-2,4.4-4.7,8.1-4
		c-4.2,2.1-6.3,3.3-7,9.7c0.1,4.2,4.2,16,6,17.8c2.9-3.9,17.2-5.5,26.8-3c3.5,0.9,6.3,3.5,7,6.9c4.1-0.9,2.6-5.8,1.9-9.7
		c-0.4-2.3-1.2-5.3-2.1-6.9c-2-3.7-6-5-5.9-9.4c2.2,4,7.4,6.3,9.7,11.9c6.7-4.4,1.1-13.3,0.6-18c-2.8,0.9-5,0.6-7.6,0.3
		c-1.3,1.7-2.7,2.8-4.5,3.2c0.9-1,2.5-2.7,4.1-4.7c5.3,0.7,10.7-3.7,12.6-8.7c-3.1-3.1-9.9-5.5-14.9-6.3c-1.5,2.7-4.8,5.7-8.7,7.1
		c2,0.6,4.8,0.8,9.6-0.3c-5,3.3-14.6,1.2-19.8-2.5c-5.2-0.1-8.3,0.1-10.3,1.4c-1.3,0.6-1.2,3.9-1,4.7
		C240,210.8,247.2,210,250.9,211.8z M263,201.7c-8.8-0.1-8.6,3.2-12.6,3.7C255.5,210.3,261.1,205.3,263,201.7z M262.4,244.9
		c-7.8-1.1-22.2-0.4-22.3,3.9c0.9,3.6,0.9,8.5,2.8,11.1c3,4.2,15.7,2.8,20.6,0.6c3.5-1.5,5.3-5.3,7.2-8.9
		C270.1,247.5,266.9,245.3,262.4,244.9z M311.3,188.9c-1.9,4.3,2.9,7.8,5.9,9.2c-0.1-6.1-0.5-14.6-5.2-19.2c-5.5-5.5-17-3.5-17.9,5
		c2,0.5,4,1.6,4.8,2.3c-0.2-7.5,7.7-10,11.8-5.5c-1.7-0.7-2.9-0.6-3.6,0.1C304.8,185.2,310.7,185.3,311.3,188.9z M307.7,187.7
		c-2.4-2.2-3.9-0.8-4.4,0.8c1.3,0.8,4,2.8,5.3,3.5C309,190.6,308.8,188.8,307.7,187.7z M588,305.4c1.8-0.2,6.3-0.2,7.3-1.4
		c-15.5-4.5-18.1-27.8-28-37.2c-2.3-2.1-4.4-3.8-7.9-5.3c1.8-1.4,6.6,0.8,7.3-1.3c-4.9-3.1-4.7-7-11.2-11.7c-3-2.5-9.8-4.9-14.8-4.8
		c3.2-2.2,10.3,0.8,13.1-2c-4.9-4.1-11.7-7.4-20.2-7.9c-7.3-0.4-13.3-3.8-16.4-8c-3.6-0.1-8.4-0.8-9.3-2.1c2,0.2,5.6-0.3,7.3-1.2
		c-7.3-1.7-8.9-14.4-17.5-14.9c-3.5,0.9-10.3-0.1-11.9-2.5c4,0.8,10.4,0,12.6-2.5c-6.1,0.4-9.8-5.1-13.3-8.5
		c-0.9-2.9-1.3-4.4-2.5-7.1c-2.2-4.6-5.5-8.2-12-8c-0.2,1.1,0.7,2.6,0,3.3c-3.7-4.3-5.9-14-12.9-15.8c-0.2,1.6-0.5,6.9-2.5,7.4
		c0.9-8.3-2.6-16-7.4-20c-3.7-0.8-6.9-0.4-12.6,0.7c3.6-3.3,8.4-5.8,13.9-5.7c-4-6-9.9-12.7-20-14.1c0.9,2.3,1.5,5.2,0,6.9
		c-1.4-5.8-3.7-7.5-7.5-9.8c1.8-1.2,5.6-2,8.3-2.5c-2.5-2.4-7.2-4.2-12-4.3c-5.2-0.1-11.9,3.3-14.3,0.7c1.4,0.1,2.5-0.4,3.4-1.3
		c-1.3-2.2-3.1-6-4.4-8.4c-3.5-0.4-9.1-1.5-10.4-6c4,2.9,10.1,3.5,13.7,1.2c-5-4.8-13.7-10.5-23-10.9c-4.1-0.2-7.9,0.6-11.1,3.4
		c0.7-2.5,3.5-4.1,5.4-5.1c2.1-1.1,4.2-2.1,5.7-4c-8.2-3.6-17.1-3.9-23.8-1.5c-3.8-3.3-8.6-4.9-14.7-5.8c-8.1-1.1-15.9,1-22.3,1.9
		c4.6-3.1,11.5-3.2,14.5-8.4c-8.5-0.7-9-6.1-18.3-3.2c-4,1.2-6,2.1-9.8,5.3c1.8-4.5,5.3-8.6,7.5-12.3c-6.1-2.4-13.6,0.2-16.5,4.1
		c2,1.1,3.9,2.3,3.6,5.1c-11.8-5.9-9.6,8.8-16.6,10.4c4.7,1.6,8.8,11.1,13,14.6c-7.8-3.2-9.9-12.9-21.3-12c-2.3,1-3.4,2.4-5.6,6.9
		c0.3-5.9,2.5-9.1,6.4-11.5c1.6-1,3.8-1.9,5.4-2.9c3-1.9,4.1-5.3,6.1-8.3c-11.4,0.4-14.7,11.8-29.9,7.2c-1.9,2.1-2.7,5.8-3.6,9.2
		c-2-9.9,3.5-15.5,8.6-18.7c-3.6-1.8-8.1-2.6-11.1-1.1c-10.3,5-6.6,11-8.4,19.3c-1.1,4.8-3.6,8.6-6.6,11.8c3-5.3,3.5-7.5,3.5-12
		c0-3.1-0.9-6.2-0.7-9.3c0.7-8.6,4-14.5,9.6-18.8c-8-0.8-16.1,3.2-20.2,9.1c-2.9,4.1-2.7,9.4-4.5,15.5c-1.3,4.4-4.1,7.8-3.7,12.9
		c0.1,1.8,0.1,3.9,1.2,6.4c-1.9-1.2-3.3-4.3-3.6-6.9c-0.9-8,3.3-18,2.5-24.7c-4.9,11.4-14.9,16-18.5,29.1c-1.7-3.6,0.4-6.1,0.4-9.9
		c0-2.3-1-5.9-0.9-8c-3,4-4.3,11.4-6.6,16.4c-3.3,7.2-2.9,12.6,0.3,19.6c1.5,3,2.7,6.3,1.7,10.9c-0.3,1.2-0.5,4.7-1.8,5
		c1.7-6.4,0.3-9.7-0.3-12.1c-1.1-4.3-3.6-6.7-5.3-9.8c-2.5-4.4-0.7-8-0.2-12.5c0.5-3.7-0.6-6.2-2.5-8.4c-0.3,4.4-4.3,6.8-5.1,10.3
		c-0.8,3.4-2.1,9.6,0,14.1c-2.9-1.2-2.2-7.9-5.2-11.1c-0.9-1-3.5-2.7-4.4-3.5c-1.6-1.3-3-2.7-3.8-5.1c-2.6,5.5,2.4,7.4,3,11.6
		c0.5,3.5-0.9,8.2-1.7,11.6c-0.9,3.6-0.9,7,0.1,10.2c1.9-0.3,4,0,5.5,0.5c0.9-3.9,3.7-8.6,6.5-9.9c-2.5,3.7-4.1,9.5-2.8,13.7
		c0.3,0.8,0.7,1.7,1,2.5c1.3,0.1,3.3,0.2,4.8,0.7c2.3,0.8,4.7,2.7,5.2,4.9c0.5,2.2,1.1,9,0.8,11.1c-0.2,1-0.4,2.6-0.7,4.1
		c1.5,1.4,3,2.4,5.6,2.1c-1.4-2.1-0.3-6.8,0.5-8.9c0.3,5.9,0.7,9.5,3.9,10c0.4-8-2.8-15.3-0.2-23.8c1.2-4.1,3.2-6.3,5.1-9
		c1.2-1.6,4.3-5.3,5.9-11.1c1.1,1.7-2.8,9.5-3.6,10.6c-2.8,4-5.3,9.4-5.7,14.5c-0.6,7.9,2.5,13.3,2.7,20.1c1.8,0.1,2.7,0.8,4.2,1.1
		c4.1-10.5,8.3-19.1,16.2-25.6c-0.8-5.1,2-11.9,2.9-15.6c-4.1,8-18.3,14.3-20.6,31.3c-0.9-1.3-0.6-2.8-0.4-4.2
		c2.6-18.8,20.1-23.3,24.3-41c1.8,2.4,1.2,6.5,0.6,9.8c-0.9,5.5-4,12.5-4.2,17.6c6.5-4.4,12.9-5.2,19.2-6.3
		c5.9-2.1,9.6-3.2,15.9-4.6c8.7-1.9,18.9-1,26.4,0.4c9.4,1.8,14.9,5.1,25.3,6.6c5.8,0.8,11.4,2.6,15.6,5c4.7,2.7,12.4,8.2,17.9,9.8
		c4.7,1.3,9,1.7,13.7,3.5c6.5,2.5,9.9,5.6,16.3,6.5c5.4,0.8,9.9-1.6,14.4-2.5c4.1-0.9,7.6-0.2,11.8-0.6c2.1-3.3,1.6-11.1,2.9-14.2
		c2.3,1.7,5.5,7.7,8.7,8.5c-0.9-5.2-0.9-11.9-11.7-23.5c5.4,3.6,11.3,10.6,12.2,15c0.7,3.8,2.4,11.8,2.2,16
		c-5.2-3.4-8.6-10.6-10.2-11.7c-0.6,2.2-0.3,8.1-1.4,10c7.1,1.1,14.3,4.7,17.3,8.4c-2.8-0.4-8.1-1.3-10.6,0.2c2.6-0.4,7,1.2,8.5,1.9
		c3.9,1.9,6.4,3.7,9.5,5.9c6.5,4.6,11.9,12.8,16.2,19.3c10.6,12.9,28.1,23.3,42.7,27c10.4,2.8,18,8.8,23.7,14.4
		c1.9,1.9,5,6.6,7.2,7.2c1.2,0.3,5.2,0.3,6.4,0.3c8.5,0.7,12.1,5.8,16.2,11.6c0.7,1,2.8,4,2.9,5c-7.3-4.9-8.9-2.2-11.2-1.7
		c6.7,2.3,9,6.6,10.4,9c5.3,8.9,5.8,22.8,17.3,25.5c-0.1,6.3-6.2,7-11.3,7.6c0.8,0.7,1.1,2.1,1.7,2.9c1.8,2.2,3.4,3.4,6.5,4.1
		c3.4,0.7,8.2,0.5,11.4,2.5c0.9-3.3-2.4-6.5-3-9.7c-0.3-1.6-0.1-2.7-0.4-4.2c4.5,9,8,13.2,16.2,15.4c5.1,2.3,6.5,7.5,8.2,12.4
		c-0.1-5.7-1-11.1-3.5-14.6C590.7,308.4,590,307,588,305.4z M281.5,605.3c-4,1.3-1.7,8.5-0.5,10.3c2.6,4,7.8,4.6,11.7,10.9
		C292.1,619.5,278.5,616.5,281.5,605.3z M146.4,323.8c0-0.2-0.2-0.3-0.5-0.3c-7.1,5.6-17.6,8.1-19.4,19.7c1.7-0.3,2.1-2.4,3.1-3.6
		c3.5-4.2,10.3-6.1,14.2-10C145,328.4,146.6,325.8,146.4,323.8z M288.9,198c7.7,1.9,11.5,6.6,17.9,8.7
		C305.2,205.3,296.5,195.7,288.9,198z M265.4,137.2c-5.3,1.1-11.1,3.7-14.8,6.8c-3.5,3-8,7.9-10.5,12.6c-1.4,2.5-3.2,6.7-2.4,9.4
		c4.3-1.6,4.4-6.4,6.7-10.5c1.6-2.7,3.5-6.4,5.8-8.4c6.3-5.6,11.1-7.7,27.5-11.1C275,135,268.1,136.6,265.4,137.2z M372.6,171.9
		c-3.6-3.3-7.1-4.3-12.8-5.4c-6-1.2-12.7-3.1-18.4-5.4c-3.7-1.5-8.3-3.6-11.6-4.9c-5.2-2-10.9-3.5-16.1-4.5
		c-8-1.6-12.1-4.3-21.5-2.2c11.6-0.9,24.6,4.6,35.3,8.3c8,2.8,12.2,7,20.4,8.9c7.4,1.6,15.4,3,21.5,6.2c2,1,9.9,6.3,12.2,5.1
		c-2.6-0.9-4.8-2.4-5.7-3.2C375.1,174,373.5,172.7,372.6,171.9z M494.9,470.7c-1.5-3.5-2.8-6.5-6.1-16.9c-0.1,5.1,1.7,15.3,4.1,18.6
		c5.6,10.3,11.7,17.9,22.4,24.4C502.3,486.2,497.7,477.5,494.9,470.7z M351.8,112.2c1.1,2.3,3.3,2.5,5.6,3.6
		c6.1,3,8.5,8.3,11.9,13.2c0.9-3.1-1.8-5.5-2.4-8.3C365.2,118.1,356.5,105.1,351.8,112.2z M536.8,433.8c1.4,5.6-0.1,7.2,1.3,13
		c0.4,1.5,2.1,6.2,3.2,10.6c0.8-3.9-1.1-8.2-1.7-11.8C539.1,442.7,538.3,435.7,536.8,433.8z M242.9,226.5c-1.4-2.9-0.8-5.6-0.8-5.6
		c-0.7-1-1.7-0.9-1.6,0.4c0,0,0,2.5,1.5,5.7c0.4,0.8,0.9,1.7,1.4,2.7c1.5,2.9,3.3,6.4,4,8.8c0.6-1.9-2.2-7.5-3.1-9.2
		C243.7,228.2,243.2,227.2,242.9,226.5z M349.3,224.3c0.7,4,1.7,7.9,1.3,12.5c-1,10.3-9.9,21.9-5.7,31.1
		c-0.1-10.1,8.6-19.6,9.4-31.6c0.7-10.1-5.1-15.7-7.2-24.9C346.4,214.9,349,222.7,349.3,224.3z M242.8,218.3
		c6.1,0,11.7,7.3,16.3,3.9c1.9-1.4,2.6-5.4,2.9-7.8c-1.5,3.5-2.1,6.3-4.2,5.7c-2.3-0.5-5-1.8-7.5-2.3
		C247.9,217.3,244,216.6,242.8,218.3z M357.7,122.3c2.4,5,4,8.3,2.4,12.4c-1.2-0.9-9.8-7.6-10.7-4.4c1.3,0.2,2.7,1.4,3.5,2.4
		c1.3,3.6,0.2,8.3-0.6,12.8c2.4,0.6,4.2-8.8,4-10.4c2.3,1.6,4.6,4,6.8,4.5C364.1,132.7,362.4,126.2,357.7,122.3z M365.4,388.4
		c6.3-6.6,13.8-11.5,18-20.2c-4.4-3.3-6.2,5-8.6,8.5C371.4,381.7,366.3,382.5,365.4,388.4z M343.7,193.1c-1.9-1.1-3.4-1.9-6-5.8
		c-0.7,7.1,8.6,10.1,13.4,12.9c5.7,3.4,11.6,8.1,12.4,15.9C365.7,206.4,350.5,196.5,343.7,193.1z M458.9,395.9
		c-0.6,2-1.4,3.9-2.7,6.1c2.8-0.7,5.1-2.8,7.3-4.2c4.6-3,3.3-9.2,11-16.3C467.1,385.7,466.5,394.3,458.9,395.9z M443.9,206.3
		c2,5.5,2.4,13.8,1.8,17.3c-1.5-1.1-1.5-6.4-3.9-6.8c1.3,7.2-0.6,14.8-2.9,22.1c-1.4,4.4-3.3,8-4.2,11.7c5.9-3.8,7.4-13.3,10.2-21.3
		c0.3,1.9,0.5,4.9-0.3,7.6c2.1-1.1,3.5-6.9,3.8-9.2c0.8-5,0.1-11-1.5-14.5C446.8,211.7,445.8,208.3,443.9,206.3z M57,182.2
		c-11.5,1.2-21.6,1.1-34.7-0.4c6.5-1.6,13.5-2.9,20.1-4.8c2.6-0.8,5.3-1.8,8.2-1.6c1.7,0.1,3.5,1,5,0.5
		C55.4,178.3,53.9,181.4,57,182.2z M113.5,185.7c4.5-0.6,6.6-2.4,10.8-1.2c1.6,0.5,5,2.4,6.4,2.8c3.7-1.8,5.6,1,9.3,2.2
		c0.5,0.2,1.6,0,2.3,0.1c2.7,0.4,6,1.8,8.2,1.9c3.3,0.2,4.4-1.2,6.2-2.4c6-5.8,9.6-4.4,8.3-8.6c-1.7-1-2.6-3.2-2.6-3.2
		c-3.2,1.7-7.1,1-10.1-1c-1.4-1-3-2-3-6.4c-1.6,1.8-2.1,3.3-3.1,3.7c-3.7,3.4-6.5,2.1-9.8-0.1c-0.7-0.7-1.8-2.5-1.6-3.8
		c0.2-1.9,0.4-2.2,0.6-4.7c0.2-1.9,0.9-4.2,1.7-6.7c-3-1.1-4.7-3.8-7.2-4.9c-4.5-2-14.8-4.1-19.9-5.3c-26-6.3-48.1-14.3-72.1-22.2
		c0,0.3-0.1,0.7-0.1,1c3,2.3,8.2,3,12.1,4.5c9.6,9.5,27,11.8,42,17.3c2.4,2.3,7,1.9,8,5c-5.2-1.1-16.1-5.1-23.4-6.4
		c-2.4-0.4-7.7-1.5-8.4-0.4c-1,1.5,6.3,5.7,8.1,5.8c2.5,3.1,8.1,3.5,13.6,5.3c6.1,2,12.2,3,16.1,5.6c-19.6-4.9-37.2-6.5-55.3-6.4
		c-2.2,0-5.7-0.7-6.6,1.6c1.3,1.7,4.1,1.9,5.2,3.3c-0.3,3.8,0.2,6.9,1.2,9.6c1.1,0.6,2.9,0.6,3.6,1.5c3.3-0.8,5.8-4.5,8.8-4.6
		c-0.8,2.2-4,4.8-3,8.5c3.1,1.1,6.1,4.8,9.9,5.5c2.7,0.5,6.7-0.3,10.7,0c4,0.3,10.1,1.2,14.2,1.5
		C101.2,184.4,106.9,186.6,113.5,185.7z M49.9,149.3c-0.3-1.3-1.3-2-1.9-3.1c-6.4,1.6-13,2.9-20,3.8
		C35.1,151.2,42.7,148.9,49.9,149.3z M193.8,167.6c1.6,4,3.5,10.1,4.4,13.9c0.9,4.4-0.8,9.3-2.2,12.4c4-0.3,8-1.4,12.2-2.5
		c-0.5-6.8,0.5-12.9,2.4-19.4C204.6,170.1,200.2,170,193.8,167.6z"/>
	<path fill="#FBD90D" d="M226.6,206.5c2.5-0.6,5.8,2,8.3,1.4C233,210.6,227.4,209.6,226.6,206.5z M263,201.7
		c-8.8-0.1-8.6,3.2-12.6,3.7C255.5,210.3,261.1,205.3,263,201.7z"/>
	<path fill="#038341" d="M567.3,266.9c-2.3-2.1-4.4-3.8-7.9-5.3c1.8-1.4,6.6,0.8,7.3-1.3c-4.9-3.1-4.7-7-11.2-11.7
		c-3-2.5-9.8-4.9-14.8-4.8c3.2-2.2,10.3,0.8,13.1-2c-4.9-4.1-11.7-7.4-20.2-7.9c-7.3-0.4-13.3-3.8-16.4-8c-3.6-0.1-8.4-0.8-9.3-2.1
		c2,0.2,5.6-0.3,7.3-1.2c-7.3-1.7-8.9-14.4-17.5-14.9c-3.5,0.9-10.3-0.1-11.9-2.5c4,0.8,10.4,0,12.6-2.5c-6.1,0.4-9.8-5.1-13.3-8.5
		c-0.9-2.9-1.3-4.4-2.5-7.1c-2.2-4.6-5.5-8.2-12-8c-0.2,1.1,0.7,2.6,0,3.3c-3.7-4.3-5.9-14-12.9-15.8c-0.2,1.6-0.5,6.9-2.5,7.4
		c0.9-8.3-2.6-16-7.4-20c-3.7-0.8-6.9-0.4-12.6,0.7c3.6-3.3,8.4-5.8,13.9-5.7c-4-6-9.9-12.7-20-14.1c0.9,2.3,1.5,5.2,0,6.9
		c-1.4-5.8-3.7-7.5-7.5-9.8c1.8-1.2,5.6-2,8.3-2.5c-2.5-2.4-7.2-4.2-12-4.3c-5.2-0.1-11.9,3.3-14.3,0.7c1.4,0.1,2.5-0.4,3.4-1.3
		c-1.3-2.2-3.1-6-4.4-8.4c-3.5-0.4-9.1-1.5-10.4-6c4,2.9,10.1,3.5,13.7,1.2c-5-4.8-13.7-10.5-23-10.9c-4.1-0.2-7.9,0.6-11.1,3.4
		c0.7-2.5,3.5-4.1,5.4-5.1c2.1-1.1,4.2-2.1,5.7-4c-8.2-3.6-17.1-3.9-23.8-1.5c-3.8-3.3-8.6-4.9-14.7-5.8c-8.1-1.1-15.9,1-22.3,1.9
		c4.6-3.1,11.5-3.2,14.5-8.4c-8.5-0.7-9-6.1-18.3-3.2c-4,1.2-6,2.1-9.8,5.3c1.8-4.5,5.3-8.6,7.5-12.3c-6.1-2.4-13.6,0.2-16.5,4.1
		c2,1.1,3.9,2.3,3.6,5.1c-11.8-5.9-9.6,8.8-16.6,10.4c4.7,1.6,8.8,11.1,13,14.6c-7.8-3.2-9.9-12.9-21.3-12c-2.3,1-3.4,2.4-5.6,6.9
		c0.3-5.9,2.5-9.1,6.4-11.5c1.6-1,3.8-1.9,5.4-2.9c3-1.9,4.1-5.3,6.1-8.3c-11.4,0.4-14.7,11.8-29.9,7.2c-1.9,2.1-2.7,5.8-3.6,9.2
		c-2-9.9,3.5-15.5,8.6-18.7c-3.6-1.8-8.1-2.6-11.1-1.1c-10.3,5-6.6,11-8.4,19.3c-1.1,4.8-3.6,8.6-6.6,11.8c3-5.3,3.5-7.5,3.5-12
		c0-3.1-0.9-6.2-0.7-9.3c0.7-8.6,4-14.5,9.6-18.8c-8-0.8-16.1,3.2-20.2,9.1c-2.9,4.1-2.7,9.4-4.5,15.5c-1.3,4.4-4.1,7.8-3.7,12.9
		c0.1,1.8,0.1,3.9,1.2,6.4c-1.9-1.2-3.3-4.3-3.6-6.9c-0.9-8,3.3-18,2.5-24.7c-4.9,11.4-14.9,16-18.5,29.1c-1.7-3.6,0.4-6.1,0.4-9.9
		c0-2.3-1-5.9-0.9-8c-3,4-4.3,11.4-6.6,16.4c-3.3,7.2-2.9,12.6,0.3,19.6c1.5,3,2.7,6.3,1.7,10.9c-0.3,1.2-0.5,4.7-1.8,5
		c1.7-6.4,0.3-9.7-0.3-12.1c-1.1-4.3-3.6-6.7-5.3-9.8c-2.5-4.4-0.7-8-0.2-12.5c0.5-3.7-0.6-6.2-2.5-8.4c-0.3,4.4-4.3,6.8-5.1,10.3
		c-0.8,3.4-2.1,9.6,0,14.1c-2.9-1.2-2.2-7.9-5.2-11.1c-0.9-1-3.5-2.7-4.4-3.5c-1.6-1.3-3-2.7-3.8-5.1c-2.6,5.5,2.4,7.4,3,11.6
		c0.5,3.5-0.9,8.2-1.7,11.6c-0.9,3.6-0.9,7,0.1,10.2c1.9-0.3,4,0,5.5,0.5c0.9-3.9,3.7-8.6,6.5-9.9c-2.5,3.7-4.1,9.5-2.8,13.7
		c0.3,0.8,0.7,1.7,1,2.5c1.3,0.1,3.3,0.2,4.8,0.7c2.3,0.8,4.7,2.7,5.2,4.9c0.5,2.2,1.1,9,0.8,11.1c-0.2,1-0.4,2.6-0.7,4.1
		c1.5,1.4,3,2.4,5.6,2.1c-1.4-2.1-0.3-6.8,0.5-8.9c0.3,5.9,0.7,9.5,3.9,10c0.4-8-2.8-15.3-0.2-23.8c1.2-4.1,3.2-6.3,5.1-9
		c1.2-1.6,4.3-5.3,5.9-11.1c1.1,1.7-2.8,9.5-3.6,10.6c-2.8,4-5.3,9.4-5.7,14.5c-0.6,7.9,2.5,13.3,2.7,20.1c1.8,0.1,2.7,0.8,4.2,1.1
		c4.1-10.5,8.3-19.1,16.2-25.6c-0.8-5.1,2-11.9,2.9-15.6c-4.1,8-18.3,14.3-20.6,31.3c-0.9-1.3-0.6-2.8-0.4-4.2
		c2.6-18.8,20.1-23.3,24.3-41c1.8,2.4,1.2,6.5,0.6,9.8c-0.9,5.5-4,12.5-4.2,17.6c6.5-4.4,12.9-5.2,19.2-6.3
		c5.9-2.1,9.6-3.2,15.9-4.6c8.7-1.9,18.9-1,26.4,0.4c9.4,1.8,14.9,5.1,25.3,6.6c5.8,0.8,11.4,2.6,15.6,5c4.7,2.7,12.4,8.2,17.9,9.8
		c4.7,1.3,9,1.7,13.7,3.5c6.5,2.5,9.9,5.6,16.3,6.5c5.4,0.8,9.9-1.6,14.4-2.5c4.1-0.9,7.6-0.2,11.8-0.6c2.1-3.3,1.6-11.1,2.9-14.2
		c2.3,1.7,5.5,7.7,8.7,8.5c-0.9-5.2-0.9-11.9-11.7-23.5c5.4,3.6,11.3,10.6,12.2,15c0.7,3.8,2.4,11.8,2.2,16
		c-5.2-3.4-8.6-10.6-10.2-11.7c-0.6,2.2-0.3,8.1-1.4,10c7.1,1.1,14.3,4.7,17.3,8.4c-2.8-0.4-8.1-1.3-10.6,0.2c2.6-0.4,7,1.2,8.5,1.9
		c3.9,1.9,6.4,3.7,9.5,5.9c6.5,4.6,11.9,12.8,16.2,19.3c10.6,12.9,28.1,23.3,42.7,27c10.4,2.8,18,8.8,23.7,14.4
		c1.9,1.9,5,6.6,7.2,7.2c1.2,0.3,5.2,0.3,6.4,0.3c8.5,0.7,12.1,5.8,16.2,11.6c0.7,1,2.8,4,2.9,5c-7.3-4.9-8.9-2.2-11.2-1.7
		c6.7,2.3,9,6.6,10.4,9c5.3,8.9,5.8,22.8,17.3,25.5c-0.1,6.3-6.2,7-11.3,7.6c0.8,0.7,1.1,2.1,1.7,2.9c1.8,2.2,3.4,3.4,6.5,4.1
		c3.4,0.7,8.2,0.5,11.4,2.5c0.9-3.3-2.4-6.5-3-9.7c-0.3-1.6-0.1-2.7-0.4-4.2c4.5,9,8,13.2,16.2,15.4c5.1,2.3,6.5,7.5,8.2,12.4
		c-0.1-5.7-1-11.1-3.5-14.6c-0.9-1.3-1.6-2.6-3.6-4.2c1.8-0.2,6.3-0.2,7.3-1.4C579.7,299.5,577.2,276.2,567.3,266.9z M363.2,139.7
		c-2.1-0.5-4.5-2.9-6.8-4.5c0.1,1.6-1.6,11-4,10.4c0.7-4.5,1.9-9.2,0.6-12.8c-0.8-1-2.2-2.2-3.5-2.4c1-3.1,9.5,3.5,10.7,4.4
		c1.5-4.2-0.1-7.4-2.4-12.4C362.4,126.2,364.1,132.7,363.2,139.7z M369.3,129c-3.4-4.9-5.8-10.3-11.9-13.2c-2.4-1.1-4.5-1.3-5.6-3.6
		c4.7-7.1,13.4,5.9,15.1,8.6C367.5,123.5,370.2,125.9,369.3,129z M160.7,121.7c2.9,1.8,4,2.6,5.5,6.1c0.8,1.8,5.1,6,4.3,8
		c-1.3,0-4.2,1.1-5.7,2.1C160.7,135,159.7,129.4,160.7,121.7z"/>
	<path fill="#513528" d="M489.7,507c-0.4,2-0.2,3.5-0.2,5.2c-4.5-2.9-6.6-5-8.9-8.2c0.9-0.5,1.9-1,2.8-1.6c0.9-0.6,1.7-1.3,2.4-2
		C487.4,503.4,488.1,505.1,489.7,507z M363.9,557.5c6.2,7.4,5.6,14.8,8.2,23.2c1,3.2,2.5,9.3,5.9,10.7c-2.2-3.5-3.7-9.1-3.4-13.5
		c6.2,9.3,24.9,11.2,30.9,3.7c-0.3,6.4-4.5,10.1-8,13.2c15.9-8.9,20.1-10.3,26.7-10.1c11,0.4,16.5,11.7,17.6,20.3
		c-2.8-0.8-7.7-3.4-9.6-0.9c5.8,1.1,4.4,17.8,2.2,20.5c-0.5,0.5-2-7.2-9.5-8.5c1.2,0.9,1.7,1.8,2.1,3.1c-10.5,7-8.3,25.2-22.1,37.3
		c-1.8-1.7-1.9-5.2-5-6c-0.3-2.9-0.1-5.9,1.8-8.5c-4.8,1.7-4.6,6.9-6.4,13.8c-1.4,5.5-4.3,12.7-9.1,17.5c-0.8-3-0.8-7.2-4.4-7.4
		c-3.2,7.8-6.4,6-13.2,9.7c0.4-2-1.2-3.4-1.9-4.8c0.2,3.8-1.6,13.3-4.6,16.1c-1.5-1.3-3.5-3.7-4.4-5.2c-5.7-8.8-3.1-21.5-10.2-35.6
		c2.1-2.4,2.7-5.8,4-8.8c1.6,0.5,3.6,2.7,4.8,1.8c-3.6-4.6-8.5-10.2-8.3-18.3c1.8,0,4.8,1.4,6.5,2.1c-3.3-4.4-9-6.4-13.9-7.5
		c-4.7-1-9.3-2.6-11.9-5.2c-1-5.4-0.3-8.4,1.4-11.9c2-4.1,4.2-9,5.2-13.1c1.4,2.4,2.6,3.9,4.8,4.3c-2-4.3-1.1-8.8-1.8-15.2
		c-1-8.3-2.9-21.5-6.4-27.2C340,542,358.3,550.8,363.9,557.5z M420.1,603.1c4.5,2.2,7.3,5.5,10.2,8.9c0.4-1.3-0.7-3.3-1.4-4.5
		c-1.3-2.3-3.6-4.8-5.8-5.9C423.2,598,418.9,600.6,420.1,603.1z M374.4,596.6c-1.4-3.5-5.8-9-4.7-13
		C365.4,587.2,371.9,593.9,374.4,596.6z M548.9,333.4c-1.3,3.7-0.6,6.8-0.1,9.9c0.8,5,2.5,9.9,4,14.6c3.4,10.5,3.9,23,2.5,36.4
		c-1,9.5-4.1,18.6-3.4,28.5c0.4,5.8,3.5,7.6,0.9,19.8c-3.3-4.1-4.9-12.3-9.7-15.3c3.6,5.3,6.6,14.3,7.1,19.3
		c0.8,3.7-2.6,10.4-3.3,14.5c-1,6.1-1.1,12,1.1,17.1c-10.8-0.5-20.2-7.1-17.9-24.6c1.4,2.9,3.7,5.8,7.1,6.4
		c-6.1-4.8-6.7-9.5-7.2-15.6c-0.9,1.6-0.7,5.1-0.8,6.1c-0.4,4.2-1.4,7.4-1.2,12.4c0.1,3.4,2,11,6.3,14.2c1.3,4.3,2.2,8.4,4.4,11.2
		c-2.4,0-11.7-6.7-15.6-12.8c-4.4-9.2-4.9-19.5,0.4-33.6c-8.2,13.1-9.5,36.9-0.7,51c2.9,4.6,9.2,9.3,16.2,10.2
		c-5.1,6.3-19.4,6.2-28.9-0.2c1.6,4.4,10.4,7.7,14.3,8.7c-0.1,2.1,3.3,6.3,4.1,7.7c-9.5,0.8-19.6-1.8-27.7-8.1
		c-7.9-6.9-9.5-9.1-13.4-14.9c-1.6-2.3-4.2-6.9-5.4-10.7c-0.1-0.3-0.1-0.6-0.1-0.8l-0.1,0c-0.2-0.9-0.3-1.7-0.3-2.4
		c4.2,6.3,8.1,11.7,14.4,16.8c3.6,2.9,6.4,5.3,10.7,6.5c-9.2-5.9-13.6-12.1-17.5-16.9c-3.5-4.4-5.5-9.4-7.5-14.9
		c-0.7-2-2.5-7.9-3.3-9.9c-3.5-8.2-10.1-10-14-19.4c0.8,7.8,11.8,15.4,13.2,26.8c-8.9-5.6-22.8-17.9-27.8-27.2
		c-4.9-8-5.6-11.3-6.6-20.1c-0.8,2.9-0.6,7.3-0.2,10.4c0.4,3.1,2.8,7.5,0.4,10.4c-2.3-0.5-4.6-3.4-5.6-6.5c-0.7,3.4,1.3,7.5,2.3,10
		c-1.8-0.8-3.4-1.9-4.4-3.5c-1.3-2-2.7-3.4-3.8-7.7c-0.9,4,4.5,13.2,6.2,16.8c-7.1-5-14-11.5-12.8-29.8c-2,3.5-1.9,6.2-2,8.6
		c-2,1.2-10.4-3.4-12.2-9c6.2-0.5,8-1.1,9.6-1.7c6.6-7,9.1-13.9,21.1-15.2c4.5-1.1,9.3-1.6,11.7-5.5c1.4-2.4,2.3-5.4,3.5-8.7
		c2.2-5.9,5.1-11.3,4.7-18.8c-0.1-1.5-0.4-3.6-0.8-5.2c-0.3-1.2-1.3-2.7-1.3-3.8c2.9-5.2,4.8-10.7,4.9-16.7
		c-2.2,6.4-5.2,12.4-8.8,14.7c0.8-3.4-0.8-9.5-1.3-12.5c-2.6-17.1,5.3-37.7,20.6-45.1c-8.9,2-15.8,8.6-20.7,16
		c-9.6-3.2-15.5-1.9-23.2-3.9c-8.9-2.3-16.3-7.1-22.5-12.2c-2.1-1.7-4.4-3.3-6.2-5c-3-2.8-5.3-4.4-8.5-6.8
		c-4.8-3.7-9.4-5.8-14.8-8.8c-0.2,2,2.5,3.3,3.9,4.9c2.3,2.6,5.5,7,6.4,10.9c0.8,3.7-0.2,8,1.1,11.7c0.6,1.8,2.3,3.7,3.5,5.6
		c1.4-4.8,1.9-11.8,1.9-11.8s1,5.3,0.8,9.3c-0.1,1.7-0.7,4.7-1.3,7.4c-0.1,1.2-0.3,2.5-0.3,3.6c0,2.4,0.4,7.6-0.5,10.9
		c-0.5,1.9-1.9,4-2.9,5.7c-2.8,4.9-6.2,12.3-4.1,18c0.7-3.2,1.5-5.5,3-7.1c2.7,8.3,4.6,18.5-0.5,26.8c-4.2,6.7-9.4,7.8-14.8,12.4
		c6.5-3.2,9.2-3.3,11.7-4.9c2.9-1.8,5.1-4.2,7.4-6.2c3.9,15.2,18.6,19.5,20.8,34.5c0.1,0.9,0.3,2.3,0.3,3.2
		c-2.4,1.4-7.8,1.1-10.4,0.5c0.8,3.4,2.3,7,5,9.6c-6.9,0.2-6.4,8.7-9.4,15.5c-1.6,3.7-3.6,6.1-1.2,10c0.7,1.1,2.7,3.3,4.2,4.6
		c3.7,3.2,7.7,6.1,13,4.6c0,4.2-4.5,10.1-0.3,15.8c-4.2,17.4-12.3,31-22,41.1c-0.1-4.6-0.7-10.9-2.2-14.4c2.7-4,5.6-7.8,7.5-13
		c-0.5-0.3-9.3,15.3-16.8,21.1c2-0.1,6-4.4,8-6.3c-0.1,0.6,0.2,4.3,0.1,6.2c-5,6.9-13.3,16-21,17.5c0.6-6.4,12.1-25.6,11.1-30.4
		c-6,11.7-9.3,15.8-14.3,21.9c-9.9,12-25.1,14-39.3,14.2c-2.7,0-8.6-3.6-9.3-5.9c11.5,1.5,45.1-1.2,46.8-12.6
		c-13.5,10.3-28.1,7.8-37.1,4c1.3,1.7,3.6,3.5,7.6,5.5c-4.7,1.7-14.9,1.2-20,0.1c-4.2-3.2-8.7-8.1-11.5-12.2
		c1.8-1.7,1.8-5.6,1.9-7.8c-3.5,7.9-10.2,10.8-10.2,12.5c1,0.5,4.7-0.5,6.3-2.8c5.3,7.3,13.7,15.2,19.7,21.9
		c5.1,5.5,9.6,14.9,11.8,23.5c1,3.9,2.2,12.3,2,15.5c-2.6-3.1-4.2-8-7.3-8.4c1.9,2.2,3.1,5.3,3.6,6.3c4,9.7-6.3,17.6-7.7,28.6
		c-0.9,6.2,1.4,14,2.9,19c-4.2-4.7-12.9-11.9-10.8-21.4c-6.2,7.8,5.8,19.9,10.3,24.9c3,3.3,5.2,4,9,8.6c11.2,14,10.3,20.7,11.9,32.7
		c2,15.7,13,24.9,26.9,31.4c4.6,2.1,9.7,4.1,14.4,0.4c-1.1,5.3-3.6,9.1-6.4,12c-8.7-2.3-16.9-2.7-23.7-6.7c-5.1-3-8.2-4.9-13-11.8
		c2.4,9,10.4,14.1,15.5,16.5c8.8,4,23.6,5.6,31.3,10.4c-9.8-0.6-18.8,7.4-29.1,3.8c-4.8-1.7-6.6-3.6-10.2-9.5
		c-0.2,4.6,4.2,8.4,4.4,11.3c-11.7,2.1-24.3-11.3-29.3-21c-0.5,6.8,8.2,16.2,9.9,18c-9.5,3.9-23.1-2.4-27.8-9.3
		c-1.3-1.9-2.6-4.6-3.3-9c-0.7,0.9-1.9,5.3,1.1,14.6c-3.2-4.6-12.2-6.1-18.4-5.4c1.4-2.6,4.4-2.6,5.2-4.8c-6.1,1.8-10.5,0.7-17-0.3
		c1.3-2.9,2.3-8.5-1.2-9.6c1.2,4.6-1.7,6.4-1.8,7.1c-9.9-2.2-16.1-0.7-26.4-2.6c1.1-1.5,4-2.7,8.8-2c-5.2-5.7-16-0.6-21.2-2.5
		c3-2.1,5.5-6.9,8.7-8.8c2.4-1.4,3.4-1.7,7.1-2c-2.7-0.3-5.2-0.1-7.8,0.7c-2.4,0.8-6.1,3.3-8.2,3.8c-8.5,2.1-5-5.4-22.4-6.2
		c3.4-2.9,9.2-7.1,15.7-5.9c-2.4-3.4-13.5,0.9-14.8-8.7c3,2.2,6,2.1,7.9,2.5c11.3,1.9,22.8-4.1,30.3-9.1
		c9.7-11.7,11.9-16.2,15.3-29.8c2.5-2.4,4.4-5.1,4.9-8.1c1.6,4.1,5.2,8.8,10.1,6.7c-2-3.8-1.2-8.7,0.1-12.6
		c-4.1,5.2-2.6,6.9-3.3,10.8c-3.1,0.4-7.1-8.1-6.6-15.3c-1.5,1.4-0.9,3.7-1.3,5.7c-0.7,4.3-4.5,9.6-8.8,10.6
		c2.1-4.8,3.4-10.1,2.6-12.8c-1.9-6.4-8.4-11.9-13.2-16.3c-7.3-6.9-11.6-12.5-15.5-27.2c-1.4,3.7,2.8,12.8-3,18.5
		c0.1-5.9-1.7-10.7-3.1-15.6c-2.9-10.4-4.3-19.3-2.5-31.9c0.5-3.1,2.6-16,5.9-22c-2.1,0.6-4.5,5.5-5,7.8c-2.1-3.2-3.7-7.9-4.9-11.8
		c3.4-6,3.2-16.7,7.7-22.9c-7.2,5.4-5.9,18.4-11.3,22.7c0.7-4.9-2-11.8-2.3-14.9c-2-15.7,12.8-21.1,17-25.9c-5.5,2.4-7.5,0.4-9.6,0
		c7.4-2.5,10.9-6.8,15-12.5c7.3-10,12.9-23.4,21.5-31.6c5.6-5.3,15.2-11.6,22.5-15.1c11.4-5.4,21.9-7.5,34.2-9.9
		c6.6-1.3,11.8-1.5,16.3-5.7c4.2-3.9,8.4-8,13.9-10c-5.9-1.5-13.3,6.7-18.2,9.3c-2.9,1.6-7,1.3-11,2c-8.3,1.5-15.4,3.6-23.5,5.1
		c0.4-6.9,2-12.5,5.6-17.5c2.8,0.8,7.6,1.8,11.6,6.4c0.4-3.6-6.5-8.4-9.2-9.7c-5.1-2.5-11-4.6-12.8-7.3c-3.2-5.4-3.2-13.9-4.5-20.2
		c5.1,7.6,13.5,8.8,20.9,8.3c-3.6-4.5-8.3-9.7-8.5-17.3c-1.4,4.4,0,10.7,1.5,13.4c-4.4,2.6-12.8-6.3-13.9-7.4
		c-1.9-2.1-2.4-4.8-5-6.3c-3.8-2.2-3-2.2-7.8-2.5c-12.1-0.7-17.4-3.4-27.9-6.4c-10.5-3.1-19.3-8.6-23.1-11.4
		c-9.1-5.9-8.2-13.6-14.3-23.8c-4.3-7.1-10-24.5-10.4-34.5c-0.5,0.5-0.9,0.2-1-0.4c-1.2,9.5,3.3,19.5,4.7,27.3
		c2,11.3,1.7,16.9,11,32.8c2,2.2,6.8,9.2,8.7,10.8c4.3,3.6,7.9,9.1,7.9,16.2c0,6.5-0.5,10.9,2.7,17c-5.1-1.1-7.5-4.2-10.2-7.1
		c2.4-7,1.6-11.2,0.5-17.6c-0.3-1.8-1-3.5-1.9-4.9c1.3,9,3.7,21.5-8.6,27.7c-6.7,3-11.1,6.3-13.9,13.1c-6.2-5.1-3.8-23.5-10.7-30.9
		c-0.8-6.3-5.2-9.6-5.9-15.7c-1.9,4.6,1.6,8.8,2.2,13.1c1.6,12-6.1,23.3-5.6,35.1c-2-2.4-5.9-6.1-7.5-9.1c-0.7-1.4-2.8-4.5-2.6-6.3
		c0.4-3.4,0.7-5.6,2.5-10.8c-1.7,0.5-2.5,2.3-3.3,3.6c-2.6,4.1-4.5,9-8.4,12.3c-4.5,3.8-10,5.7-14.7,8.4c1.1-5.5,2.9-25.4-6.7-28.1
		c2.7,2.6,3.6,5,3.3,8.8c-5,7.7-13,13-22.1,15.4c1.2-5.8-0.5-10.4-3.6-14.1c-3.7-4.4-7.9-5.6-15-7.8c-3.7-1.1-9.3-4.6-13-7.2
		c-4.1-2.9-9-6.9-12.1-11c-2.7-3.6-4.3-5.4-4.6-12.5c-1.5,3.4-1.5,10.7-1.4,14.2c-9-5-7.3-25.4-7.3-29.9c-2.3,2.4-3.4,2.1-5.3,5.1
		c8.1-25.9,3.2-36,11.9-57.2c6.4-15.6,13.9-23.9,21.8-38.2c0.2,2.6,2,6.6,2.8,8.9c4.4,12.7,13.9,11,9.8,28.6l-1.8,8.6
		c0,0,8-13.7,9.1-20.8c0.5-3.5,0.6-7.1,0.5-10c2,3,4.3,7.6,4.2,13.2c-0.2,11,11.5,26.5,11.5,26.6c-7.6-15.5-9.5-20.3-9.3-27.4
		c0.2-11.3-7.2-18.2-7.2-18.2l-2.5-4.5c0,0,2.7,13.4-0.3,19.9c-0.2,1.2-0.4,2.3-0.7,3.4c0-1.8-0.1-3.6-0.2-5.3
		c-0.3-3.8-1.4-5.9-3.1-9.2c-1.3-2.5-2.9-5.7-4.8-11c-4.3-13.3,3.7-31.6,3.7-31.6c2.5-3.7,7.9-8,12.2-10.5c3.1-1.8,5.1-3.4,9.6-2.7
		c6.7-0.2,14.3,8.6,18,18.9c0.8-2.7-1.3-6.4-2.5-9.3c-1.3-3.1-3.6-5.6-4.5-8.1c6.9,2.5,9.2,6.8,13.8,14.2c-1-2.8-2.2-7.4-5.1-11
		c1.9,0.1,3.5,1.2,5,1c3.4,5.2,7.9,9.1,13.2,13.4c2.9,2.4,6.7,4.2,9,6.9c2.1,2.5,3.8,6.8,4.2,10.1c1,9.9-4.1,20.5-1.7,29.7
		c-0.6,0.4-2.4-2.1-3.1-3.1c-3-3.8-5.9-9.1-7.1-14.6c-1.4-6-0.9-13.2-4.9-17.3c1.6,3.7,1.1,6,1.6,7.9c0.9,3.8,0.2,5.6-1.2,11.1
		c-2.4,9.4-6.1,19.2-0.6,25.7c-1.6-8.3,0.1-13.6,3.2-18.5c2.3,4.6,4.5,11.2,4.6,18c0,7.5-1.2,15.9,0.2,22.6c0.4,1.9,0.5,5.3,2.7,7.8
		c-11.7-6.2-14.4-22.5-15.4-24.3c-0.6,1.9,0,4.9,0.3,6.2c1.1,5.2,1.2,15-0.6,21.9c-4.1,15.7-21.6,21.2-27.1,28.6
		c-1.3,2.6-3.2,5.8-2.2,8.4c3.3-12,18.3-16.5,26.7-24.1c7.6-6.8,6.2-11.3,7.7-21.1c3.6,3,6.4,7.6,16,8.5c-1.8-1.4-2.6-3.4-3.4-6.5
		c-1-3.6-1.3-9.9-1-14.5c0.4-4.8,1.2-14.6,0.3-19.1c3.2,3.7,5.1,13.5,6.2,18c1.9-1.3,2.6-8.5,2.8-10.3c0.3-2.4,0.2-3.2-0.2-5.5
		c-0.9-4.7-1.5-7.9-1-12.9c0.5-5.2,2.5-11.1,3-17.5c0.1-1.7-0.3-3.3-0.1-4.9c0.8-5.5,5.1-9,7.5-13.2c-1.4,5.8-2.3,11.5-1.8,17.9
		c2.2-0.5,1.4-2.4,1.7-4.6c0.8-6.6,6.3-15.9,10-18c-1.3,3.7-3.6,11.8-2.8,16.2c1.7-1.9,1.9-4.4,3-6.5c2.5-4.7,6.5-7.7,10-10.8
		c0.8,4.2-0.2,8.6-2.1,12.7c-1.9,4.1-5.3,8.1-3.7,13c1.2-0.9,1.6-2.6,2.1-3.8c1.8-4.2,4.8-7,6.9-10.5c3.1-5.3,2.1-12.2,1.1-18.3
		c2.9,1.6,3.9,4.7,7,6.1c-1.9,2.9-2.2,5.9-3,10.2c2.3-3.7,2.8-5.8,5-6.7c-0.9,8.8-0.3,16.6,1.1,23c0.2-4.9,0.7-6.5,2-11.2
		c1.2,0.8,4.7,3.8,5.3,4.8c0.6,6.8,1.2,13.8,6.6,22.2c1.9,3.6,2.8,9.9,3,14.3c0.4,9.2,2.6,12.1,7.4,18.5c-5.3-9.3-4.9-14.5-4.2-17.1
		c2.4,0.9,5,4.1,8.9,3.8c-0.7,12.3,2.8,19.3,8.6,26.9c-4.8-9.8-5.4-17.2-5.2-22.8c0.1-2.4-0.3-3.9,2.3-4.5c1.5,0,0.6,1.6,0.8,3
		c0.6,4.3,1.7,8.8,3.7,11.8c-0.1-3.9-1.9-10.3-0.2-14.9c1.3-3.2,4.3-2.4,4.8-1.1c-0.5,10.9,3.7,19.8,0.3,31.5
		c1.7-4.9,3.2-10.1,3.3-15.9c0.1-4.7-1.2-11.8-0.6-16.4c0.3-2.7,2.8-7.4,3.1-11.2c1.1-2.3,2-2.6,4.6-3.1c2.5,8.6-2,32.6,3.1,43.2
		c-1.1-8.3-0.2-12.7-0.3-17.6c-0.1-7.5,2.1-11.2,1.7-19c-0.2-2.9-1.1-6.1-1.5-9.4c-0.2-1.5,0.1-3.2-0.3-4.9c-0.3-1.4-1.3-3.1-1.2-4
		c1.2-1.8,3.2-2.9,4-5.2c2.3-6.7-1.5-12.2-2.6-17.1c1-0.1,1.4-0.9,2-1.5c7.8,6.6,7.6,18.4,8,28c3.3-13.2-1.2-28-5-31.7
		c12.1,7.9,18.4,15.5,22.2,28.5c-0.2-2.8-1.1-5.9-2.1-8.7c-7.9-17.6-19.6-26.2-31.6-31.1c8.3,1.1,17.2,3.6,23.5,6.9
		c-5.5-5.1-20.7-10.1-26.7-10c3.2-2.7,11.4-3,14.7-2.5c-3.6-2.7-10-1.3-13.6-0.4c0-1.8,1.5-7,3.8-7.8c3.2-1.7,7.4-2.5,10.6-2.4
		c17.1,0.6,25.7,15.7,41.2,21.1c4,1,8.9,1.7,13.1,4c-1.4-2.3-8.1-4.1-10.2-4.9c-5.1-1.8-5.8-1.8-10.7-5.3c0.5-6.2,0-11.8-1.9-16.2
		c10.2,3.4,10,10.9,24,16.7c-2.3-2.1-3.5-2.4-5.1-3.5c-6.5-4.6-10.1-13.5-20.2-16.6c-7.2-10.9-21.6-8-25,3.1
		c-5.7-1.1-11.8,0.3-16.6,2.6c0.8-5.6,1.8-11.4,5.3-15.9c-5.1,3-6.4,12.7-9.2,19.8c-1.4,4.2-2.5,8.9-5.4,9.8c-12.1-1-14.6,8-20,2.9
		c-2.1-5.6-1.5-13,0.4-20.3c-3.6,4.4-5,15.6-2.8,21.2c-1.9,1.7-4.5,1.9-5.2,0.4c-4.5-13.6,4.6-27.1,12-36.6
		c-7.7,5.9-13.7,17-16,24.3c-1.5-2.4-2.2-5.3-2.9-8.3c-1.3,6.4,2.4,17.9,5.5,22.4c-1.6,1.6-7.8-0.9-10.8-0.9c-4.1,0-8.1-1.7-9-5.9
		c-1.4-4.8-0.6-12.6,0.2-17.8c-2,2.2-3,10.5-2.9,17c-0.9,0-2.5-3-2.6-5.1c-1-14,3.9-25.9,9.6-35.8c4.6-8.2,12.1-15.2,22.8-17
		c-8,8.2-19.6,23.3-18.2,35.7c3.3-13.5,8.8-22.5,19.2-32c8.6-7.9,24.7-11.9,39.3-10.2c12.5,1.4,26.1,7.6,38.8,9
		c5,0.5,13.6,7.8,19.9,9.5c-1.4,0.7-8.5-0.1-11-0.3c-2.7-0.3-5.6-1.7-11.2-3.3c1.8,2,4.3,2.7,6.4,3.5c5.2,2,12.6,2.5,20.1,3.9
		c22.6,1.9,26.3,13.1,40.5,10.5c1.7-0.3,3.5-0.9,5.3-1.3c5.9-1.4,15.9-2.5,21.3,0.1c-4.3,0.4-8.1,1.9-10,2.9
		c1.1-0.2,4.6,0.5,5.8,0.6c16.4,3.1,28.2,13.7,35.3,25.5c1.9,3.2,2.6,6.7,3.6,9.9c1.2,4,2.6,8.6,6.3,11.7
		c-1.8-5.1-4.7-10.4-3.9-15.2c8,9,20,18.7,34.1,23.8c7.5,2.7,12.8,3.1,19.5,7.8c5.9,4.2,11.7,12,17.6,15.2c2,1.1,6,0.5,8.6,1
		c3.9,0.7,5.9,2.8,8.5,4.8c-7.4-0.1-7.3,5.2-19.3,1.1c1.6,4.1,9,4.2,13.6,5.7c5.1,1.9,7.3,3.8,10.3,8.6c5.3,8.4,7.2,21.9,16.4,27.1
		c-10.8,4.9-16.6-9.7-19.7-16.1c1,7.8,5.7,14.2,9.2,21.5c3.6,7.6,4.6,15.9,5.6,25.1c1,8.9,1.6,18.5,0.6,28.2
		C552.8,347.7,550,341.2,548.9,333.4z M277.7,135.9c-2.8-0.9-9.7,0.7-12.4,1.3c-5.3,1.1-11.1,3.7-14.8,6.8c-3.5,3-8,7.9-10.5,12.6
		c-1.4,2.5-3.2,6.7-2.4,9.4c4.3-1.6,4.4-6.4,6.7-10.5c1.6-2.7,3.5-6.4,5.8-8.4C256.6,141.4,261.4,139.3,277.7,135.9z M306.8,206.7
		c-1.6-1.4-10.3-11.1-17.9-8.7C296.6,200,300.4,204.6,306.8,206.7z M143.8,329.6c1.3-1.2,2.9-3.8,2.6-5.8c0-0.2-0.2-0.3-0.5-0.3
		c-7.1,5.6-17.6,8.1-19.4,19.7c1.7-0.3,2.1-2.4,3.1-3.6C133.1,335.4,139.9,333.5,143.8,329.6z M170.4,322.3c1.5-3.6,3.3-7.8-0.8-7.4
		c-2.8,6.4-5.4,12.4-8.9,17.6c-5.4,8.2-11.9,12.6-20.3,16.8c2.9-0.3,8.6-3,11.3-4.9C159.1,339,166.8,331.3,170.4,322.3z
		 M175.8,328.8c2-3.8,4.1-8.3,4.3-12.2c-0.8-0.7-2,0.2-2.9,0.4c-1.5,3.8-1.1,6.2-2.8,9.6c-1.6,3.4-3.3,6.6-6.8,10.5
		C170.6,335.5,173.9,332.4,175.8,328.8z M188.2,320.6c-2.1-3.6-4.7,3-6.6,6.5c-2.1,4-4.6,6.3-6.4,9.3
		C178.9,334.9,187.3,323.1,188.2,320.6z M252.3,305c-3.4-4.4-6.2-10.6-15.3-14c-6.9-2.1-11.1-7.7-13-13.5c-1.7-5.2-2.4-9.7-0.9-15.2
		c-2.3,1.9-2.9,10.8-2.4,14.8c-14.1-10.2-8.5-31.8-4.7-44.9c-0.5,0.5-3.1,3.4-4.5,7.9c-2.6-6.5,2.7-13.6,2.8-19.5
		c-3.3,7.2-5.8,13.2-6.2,15.3c-0.8,4.5,0.2,6.8,1,10.3c0.2,3.1-1.1,9.1-1,12.1c0.2,4.8,1.7,9.9,3.7,13.3c2.5,4.3,6.2,8.2,9.6,10
		c2.1,6,6.1,10.1,13.1,11.6C243.4,295.7,244.2,296.9,252.3,305z M307.2,263.5c0.2-3.5-1.6-9.8-2.5-12.6c-1.6-4.6-3.1-7.2-5.2-11
		c-0.9-1.6-2.1-4.2-3.3-8.8c0,0.3,0,2,0,2.2c0.9,6.8,4.8,11.6,5.9,17.5c1,4.9,1.2,9.7,0.6,15.4c-0.7,6.6-4.9,18.9-8.9,24.4
		c0.9-5,0.9-23.3-4.7-28.6c4.5,7.7,1.4,27.9,0.1,35.9C300.5,291.7,306.9,268.7,307.2,263.5z M304.1,291.5c9.6-4,16.3-16.6,17.9-23.4
		c1.5-6.5,0.4-11.3-0.8-15.9c-0.3-1.3-1.2-5.1-1.2-10.2c-2.1,10.9,1.1,24.1-4.2,34.8C314.1,280,310.4,287.8,304.1,291.5z
		 M320.5,368.2c-5.7-1.2-9.3-5.9-14.1-8.4c-1.3,5.2,2.7,12.2,6.2,15.2c-1.5-2.7-2.3-5.8-1.8-8.7C313.5,367,317.7,369.8,320.5,368.2z
		 M330.3,275.2c-4.8-0.1-7,4.6-8.3,7.4c-2.4,4.8-1,7.3-3.9,11.3c-0.9,1.2-2.2,4.4-5.3,6.6C321.9,299.1,324.1,279.7,330.3,275.2z
		 M292.7,626.5c-0.6-7-14.2-10-11.3-21.2c-4,1.3-1.7,8.5-0.5,10.3C283.6,619.6,288.8,620.2,292.7,626.5z M347,211.4
		c-0.6,3.5,2,11.3,2.3,12.9c0.7,4,1.7,7.9,1.3,12.5c-1,10.3-9.9,21.9-5.7,31.1c-0.1-10.1,8.6-19.6,9.4-31.6
		C354.9,226.2,349.1,220.6,347,211.4z M343.7,193.1c-1.9-1.1-3.4-1.9-6-5.8c-0.7,7.1,8.6,10.1,13.4,12.9c5.7,3.4,11.6,8.1,12.4,15.9
		C365.7,206.4,350.5,196.5,343.7,193.1z M374.7,376.7c-3.4,4.9-8.4,5.7-9.3,11.7c6.3-6.6,13.8-11.5,18-20.2
		C379,365,377.1,373.3,374.7,376.7z M381.7,177.9c-2.6-0.9-4.8-2.4-5.7-3.2c-0.9-0.7-2.5-2-3.4-2.8c-3.6-3.3-7.1-4.3-12.8-5.4
		c-6-1.2-12.7-3.1-18.4-5.4c-3.7-1.5-8.3-3.6-11.6-4.9c-5.2-2-10.9-3.5-16.1-4.5c-8-1.6-12.1-4.3-21.5-2.2
		c11.6-0.9,24.6,4.6,35.3,8.3c8,2.8,12.2,7,20.4,8.9c7.4,1.6,15.4,3,21.5,6.2C371.5,173.8,379.4,179.1,381.7,177.9z M447,213.2
		c-0.2-1.6-1.2-5-3-6.9c2,5.5,2.4,13.8,1.8,17.3c-1.5-1.1-1.5-6.4-3.9-6.8c1.3,7.2-0.6,14.8-2.9,22.1c-1.4,4.4-3.3,8-4.2,11.7
		c5.9-3.8,7.4-13.3,10.2-21.3c0.3,1.9,0.5,4.9-0.3,7.6c2.1-1.1,3.5-6.9,3.8-9.2C449.3,222.7,448.5,216.8,447,213.2z M474.5,381.6
		c-7.5,4.2-8.1,12.7-15.6,14.4c-0.6,2-1.4,3.9-2.7,6.1c2.8-0.7,5.1-2.8,7.3-4.2C468.1,394.8,466.8,388.7,474.5,381.6z M515.3,496.8
		c-13-10.6-17.6-19.3-20.4-26.1c-1.5-3.5-2.8-6.5-6.1-16.9c-0.1,5.1,1.7,15.3,4.1,18.6C498.4,482.7,504.6,490.3,515.3,496.8z
		 M539.7,445.6c-0.5-2.9-1.3-10-2.8-11.8c1.4,5.6-0.1,7.2,1.3,13c0.4,1.5,2.1,6.2,3.2,10.6C542.1,453.5,540.3,449.2,539.7,445.6z
		 M244.1,366.6c-5.6-1-8.1-3.4-9.4-6.6c-1.3-3.2-1.1,2.2-1.1,2.2s-0.3,5.9,2.3,8.8c2.6,2.9,7.2,2.9,11.5,1.7c4.3-1.2,9.1-0.6,11.2,1
		c2,1.6,2.7,3.7,2.7,3.7s1.7-3.3-1.8-7.4C253.3,365.3,249.7,367.6,244.1,366.6z"/>
	<path fill="#DBC79C" d="M311.3,188.9c-0.6-3.6-6.6-3.7-4.1-8.2c0.7-0.6,1.9-0.8,3.6-0.1c-4.2-4.5-12.1-2-11.8,5.5
		c-0.8-0.7-2.8-1.8-4.8-2.3c0.9-8.6,12.4-10.5,17.9-5c4.6,4.6,5.1,13.1,5.2,19.2C314.3,196.7,309.5,193.2,311.3,188.9z M262.4,244.9
		c-7.8-1.1-22.2-0.4-22.3,3.9c0.9,3.6,0.9,8.5,2.8,11.1c3,4.2,15.7,2.8,20.6,0.6c3.5-1.5,5.3-5.3,7.2-8.9
		C270.1,247.5,266.9,245.3,262.4,244.9z M303.3,188.5c1.3,0.8,4,2.8,5.3,3.5c0.4-1.4,0.2-3.3-1-4.4
		C305.4,185.4,303.9,186.9,303.3,188.5z M206.1,680.6c-5.7-1.3-16.3-3.7-20.2,0c5.2,0.1,13.4,2.8,15.6,5.8c-5.5-2.7-12.8-5-16.3-4.4
		c-2.2,9.2-1.4,14.2,3.8,18.3c5.2,3.1,14.6,2.5,16.7-0.1c1.1-2.5-1-8.4,2.1-10.8c3-2.4,4.9-3.7,7.1-5.3
		C213.6,682.6,208,681,206.1,680.6z M130.2,147.9c0.3-0.9,0.4-2.6,0.9-3.2c0.1,3.8,0.8,4.3,1.8,6.2c1.2,2.1,4.5,3.1,6.2,4.9
		c1.9-0.5,2.5-2.5,4.9-2.6c-4.7,3.6-6,9.4-6.4,13.5c-0.2,2.4-0.2,4.1,2.7,5.1c2.5,1.2,5.3-0.8,6.3-3.2c2.8-5.3,4.7-6.9,5.8-11.5
		c-1.2-1.3-3.8-1.9-4.8-2.4c2-0.5,3.7,0.4,4.7,0.7c-0.8-3.4-6.5-10-9.8-15.3c-3.8-2.1-6.7-2.8-9.5-1.8c-1.3,0.5-2.5,2.6-3.6,3.8
		c-1.3,1.4-3.5,2.9-4.4,4.7C126.8,147.1,129,148.1,130.2,147.9z M210.7,693.5c4.8,0.3,14.1,2.5,14.8,5.9c-2.4-1.7-9.9-5-15.8-3.8
		c-2.5,13.9,13.3,19,19.8,14.4c-0.7-4.2,1.7-6.8,1.7-8.1C231.1,695.4,215.4,689.3,210.7,693.5z M243.4,706.8c0.6-1,2.9-1.4,3.4-2.6
		c-5-0.8-6.9,1.2-11.2,0.2c-0.9,0.6-1.5,1.7-1.6,2.5c2.9,0.4,10.6,1.7,11.6,4.6c-3.7-2-7.9-2.6-12.2-2.8
		c-1.9,9.4,9.6,14.2,16.8,10.9c-0.4-1.3-0.6-2.5-0.7-4.2c-0.1-2,1-4.7,2.5-6C250,708.9,244,709,243.4,706.8z M156.1,156
		c-0.3,1.2-0.1,1.6-0.6,3.1c-0.3,0.9-1,2.6-1.4,3.7c-1,2.5-2.1,5.7-1.6,7.8c0.5,2.2,2.5,3.3,4.3,4.1c4.2,1.6,7.4-3.3,10.9-9.4
		c-2-1.8-2-5.2-2.2-7.5c-1.5-0.7-3.2-0.9-4.8-1.4c1.5-0.3,2.8-0.6,5.2,0.1c0.8-1.5,2-4.4,2.5-5.4c-2.1-5.4-4.5-8-6.1-11.1
		c-1.8-1.9-5.8-4.5-9.1-4.4c-2.8,0.1-5.1,2.2-6.7,4.1c1.8,4.6,4.7,8.4,7.7,12.1C155.1,153,156.2,155,156.1,156z M170.9,152.4
		c-1.8,2.5-3,4.9-2.2,7.5c0.8,2.8,6.1,9.3,9.3,11.6c1.6,1.2,3,1.9,6.4,2.6c-6.6,0.6-6.9,7.5-9.4,12c0.9,0.6,3.3,2.3,3.5,4
		c-10.9-8.5-19.8,0.3-25.5,4.9c4.5,8.9,9.8,8.6,15.3,12.3c1.2,0.8,3.2,2.3,4.5,2.5c1.3,0.1,4.9-2.1,6.5-2.9c2.6-1.2,5-2.1,6.6-3.1
		c2.8-1.9,3.8-5.7,5.5-9.9c1.1-2.8,2.4-5.8,2.9-8c0.9-4.1-0.7-7.2-1.7-10.3c-1.1-3.4-1.6-7.4-3-10.5c-1.8-4.2-7.2-5.2-10.3-7.8
		C177.3,155.2,173.5,150.6,170.9,152.4z M166.6,140.5c1,3,3.3,6.2,5.3,8.5c5,0,6.5,3.9,10.4,5.8c-0.7-5.3-1-10.2-3.6-14.1
		C175.3,136.8,169.7,139.3,166.6,140.5z M173.6,179.6c1.2-4.8-1.6-8.8-4.1-11.5c-1,2.6-2.7,4-3.7,6.6
		C166,178.1,170,180.5,173.6,179.6z M269.1,717.8c-4.5-0.5-11.9-3.1-16.6-2.5c-0.1,2.7,0.8,5.7,2.1,7c5.1,4.6,11,3.5,14.8,1.5
		C268.8,721.8,268.5,719.4,269.1,717.8z M250.9,211.8c-3.7-1.8-10.8-1-14.6,0.6c-0.2-0.9-0.4-4.1,1-4.7c2-1.3,5.1-1.5,10.3-1.4
		c5.2,3.7,14.8,5.7,19.8,2.5c-4.8,1.1-7.6,1-9.6,0.3c4-1.3,7.2-4.4,8.7-7.1c5,0.7,11.8,3.1,14.9,6.3c-1.9,4.9-7.2,9.3-12.6,8.7
		c-1.5,2-3.1,3.8-4.1,4.7c1.7-0.3,3.2-1.5,4.5-3.2c2.6,0.4,4.8,0.6,7.6-0.3c0.6,4.7,6.1,13.6-0.6,18c-2.2-5.5-7.5-7.9-9.7-11.9
		c-0.1,4.3,3.9,5.7,5.9,9.4c0.9,1.7,1.6,4.6,2.1,6.9c0.8,3.9,2.2,8.8-1.9,9.7c-0.7-3.4-3.6-6-7-6.9c-9.7-2.5-23.9-0.9-26.8,3
		c-1.8-1.7-5.9-13.6-6-17.8c0.7-6.4,2.8-7.6,7-9.7c-3.6-0.7-6.5,2-8.1,4C233.4,215.2,236.3,210.5,250.9,211.8z M244.2,229.2
		c-0.5-1-1-2-1.4-2.7c-1.4-2.9-0.8-5.6-0.8-5.6c-0.7-1-1.7-0.9-1.6,0.4c0,0,0,2.5,1.5,5.7c0.4,0.8,0.9,1.7,1.4,2.7
		c1.5,2.9,3.3,6.4,4,8.8C247.9,236.5,245.1,230.9,244.2,229.2z M250.3,217.8c-2.5-0.5-6.4-1.2-7.5,0.5c6.1,0,11.7,7.3,16.3,3.9
		c1.9-1.4,2.6-5.4,2.9-7.8c-1.5,3.5-2.1,6.3-4.2,5.7C255.5,219.6,252.8,218.3,250.3,217.8z M273.5,710.9c-4.8-1.2-12.5-1.3-17.3-1.5
		c-2.2,0.3-3.1,3.2-3.6,4.1c5.5,0.2,10.5,1.2,16.5,3.1C270.9,714.1,271.2,712.6,273.5,710.9z M456.3,478.6c2.6-1.3,6.3,3.3,8.3,4.5
		c1.4-4.8,1.8-8.7,3.4-12.8c-3.6-4.2-9.2-6.7-11.7-2.2c-0.5,3.2-2.2,7.3-4,9c-4.2,4-8.5,5.9-14.5,7.8c1.8,2.6,3,7.2,7.5,6.7
		c4.9-0.6,15.2-5.3,18.1-6.9C462.2,482.7,459.4,480,456.3,478.6z M484.2,496.8c-0.9-1.6-1.4-2.1-4.3-3.4c1.4-0.1,2.2,0.2,3.7,1.3
		c-1.9-3-3.2-6.1-3.7-9.6c-1.4,2.8-1,7.4-3.1,9.5c-2.1,1.2-7.8,3.6-9.8,4.9c0.6,2.2,3.1,4,5.3,3.8c0.9-0.1,3.8-1,5.4-1.7
		C480.1,500.4,483.1,498.8,484.2,496.8z M401.9,452.4c-0.3,2.9,5.6,7.2,7.1,8.2c2.6,1.8,11.3,2.8,13-3c0.6-1.9-1.1-4.2-2.9-5.3
		c-0.1-2.7,1.3-6.5,1.9-9.1c0.5-0.1,0.9-0.3,1.2-0.5c0-1.2,0.1-2.4,0.2-3.5c-1.6-2.6-5.8-5.4-8.3-5.8c-2.5-0.3-4.1-0.6-5.8,1.6
		c-2.5,3.2-3.6,12.2-6.2,15.5c3.3-0.9,7.5-1.8,8.5-0.9C405.6,450.4,401.9,451.2,401.9,452.4z M224.6,209.5
		c-1.1,5.5,2.7,8.9,5.3,11.6c0.8-3.8,2.5-6.1,5.2-8.2c-0.3-0.2-0.2-1.4-0.2-1.9C231.2,213,226.6,211.9,224.6,209.5z M475.6,490.5
		c-1-1.8-3.3-3.5-6.4-5.2c2.1-0.2,6,2.5,7.4,3.7c-0.2-3.4,5-10,0.3-13.7c-2.6-1.5-4.6-2.7-5.7-1.6c-2.5,2.4-2.1,10.5-4.8,13.1
		c-2.4,1.3-8.8,4.1-11,5.5c0.7,2.5,4.4,6.2,6.8,5.9c1.1-0.1,5-1.7,6.8-2.5C471.8,494.2,474.4,492.7,475.6,490.5z M368.8,678.8
		c-1,4.2-2.5,7.6-4.5,10.3c1.7,1.4,3.7,3.1,5.7,3.9c2.5-3.3,7.7-7.6,6.6-13.6C374.2,677.7,371,680.3,368.8,678.8z M285.4,718.5
		c-0.9-0.9,0.8-2.1,2-4.1c-4.1-1.2-13-0.5-14.4,3c3.6,0.2,10.4,1.2,11.3,4c-2.3-1.2-7.7-2.7-11.6-2.6c-0.4,2.2-0.1,4,1,6.5
		c2.4,3.1,11.3,4.8,16.2,2.2c2.6-1.4,7.4-5.3,11.9-3.9C301.3,716.7,290.4,718.6,285.4,718.5z M449.5,475.1c-0.7-2.5-3.9-3.8-6.8-5.3
		c3.9-0.6,7,2.7,8,3.8c2-3.9,4.1-9.4,5.6-14c-1.7-2.9-6.8-7-7.9-10.4c-4.3,1-5.9,2.4-7.1,4.6c-1.4,2.7-1.6,5.1-1.7,7.9
		c-0.2,3.2-0.9,3.5-3.7,5.1c-2.7,1.5-3,2.2-6.2,3.1c-1.1,0.6-2,0.8-3.3,2.5c0.5-2.5,3.6-4,5.9-5.3c-0.1-6.7-9.4-6.9-12.2-2.7
		c-1.2,5.2-2.4,8.4-0.7,13.4c0.1,0.4,3.8,4.9,4.5,5.6c2.9,3,8.4,0,11.2-1C440.2,480.9,446.8,478.2,449.5,475.1z M187.9,158.1
		c0.8,0.6,2.5,2.6,2.5,2.6s0.8-4.2,0.7-6c-0.2-1.9-0.6-5.5-0.6-5.5c-1.8-3-3.7-4-6.9-3.5c0,0,1.2,7,1.3,8.1c0,1.1,0.1,2.7,0.1,2.7
		S187.1,157.5,187.9,158.1z"/>
</g>
</svg>
