<?xml version="1.0" encoding="utf-8"?>
<!-- Generator: Adobe Illustrator 16.0.0, SVG Export Plug-In . SVG Version: 6.00 Build 0)  -->
<!DOCTYPE svg PUBLIC "-//W3C//DTD SVG 1.1//EN" "http://www.w3.org/Graphics/SVG/1.1/DTD/svg11.dtd">
<svg version="1.1" id="Layer_1" xmlns="http://www.w3.org/2000/svg" xmlns:xlink="http://www.w3.org/1999/xlink" x="0px" y="0px"
	 width="300px" height="300px" viewBox="0 0 300 300" enable-background="new 0 0 300 300" xml:space="preserve">
<g>
	<path fill-rule="evenodd" clip-rule="evenodd" fill="#C32026" d="M216.473,27.083c7.506,0.221,13.918,1.049,19.238,2.483
		c15.342,4.326,28.432,12.24,39.271,23.741c10.794,11.545,17.78,25.121,20.959,40.727c0.685,3.4,1.092,6.292,1.225,8.676
		c0.177,2.295,0.177,5.905,0,10.827c-0.242,8.609-1.435,16.313-3.576,23.112c-2.14,6.754-5.562,13.675-10.264,20.761
		c-2.274,3.378-7.075,8.863-14.403,16.456c-7.175,7.507-24.657,25.044-52.449,52.615c-16.887,16.887-31.489,31.39-43.807,43.508
		c-2.804,2.738-5.275,5.177-7.417,7.318c-7.307,7.086-11.004,10.629-11.093,10.629c-0.11,0-0.64-0.432-1.589-1.292
		c-0.044-0.045-0.11-0.088-0.199-0.133c-5.806-5.319-25.793-25.064-59.965-59.236c-40.595-40.439-61.907-62.039-63.938-64.799
		c-5.96-7.814-10.364-15.949-13.212-24.403c-2.892-8.455-4.337-17.505-4.337-27.152c0-7.571,0.706-14.37,2.12-20.396
		c1.479-5.982,3.906-12.306,7.285-18.973c5.717-11.058,13.542-20.297,23.476-27.714c9.933-7.527,21.312-12.715,34.138-15.563
		c1.766-0.464,4.05-0.751,6.854-0.861c2.737-0.177,6.556-0.221,11.456-0.133c5.85,0.155,9.922,0.375,12.219,0.662
		c2.406,0.221,5.132,0.762,8.179,1.623c6.313,1.766,12.306,4.216,17.979,7.351c5.696,3.09,10.75,6.633,15.166,10.629l4.305,3.973
		l4.768-4.271c4.989-4.503,10.784-8.377,17.384-11.622c6.557-3.268,13.443-5.662,20.661-7.186
		C202.467,27.336,208.989,26.884,216.473,27.083z M226.869,191.978c6.402-5.805,12.914-11.6,19.535-17.383
		c3.181-2.958,6.027-5.651,8.544-8.08l1.093-1.126c1.788-1.678,3.753-3.676,5.893-5.993c2.23-2.317,3.941-4.271,5.134-5.86
		c6.711-8.41,11.225-17.77,13.542-28.079c2.141-9.889,2.119-19.779-0.065-29.667c-2.273-9.933-6.479-18.863-12.616-26.788
		c-6.423-8.322-14.458-14.812-24.105-19.469c-16.908-8.168-34.227-9.282-51.951-3.345c-5.563,1.854-10.253,3.996-14.073,6.423
		c-3.753,2.517-8.377,6.414-13.874,11.689l-0.993,0.927l-0.795,0.827l-8.045,7.649l-8.94-8.708
		c-4.459-4.326-8.234-7.681-11.324-10.065c-1.28-0.95-2.583-1.843-3.907-2.682c-0.287-0.154-0.552-0.32-0.795-0.497l-0.298-0.166
		c-0.287-0.177-0.573-0.342-0.861-0.497c-1.324-0.751-2.649-1.435-3.973-2.053c-6.711-3.046-13.488-5.066-20.331-6.06
		c-6.887-0.905-13.609-0.784-20.165,0.365c-8.565,1.567-16.368,4.415-23.41,8.543c-7.064,4.127-13.211,9.425-18.443,15.893
		c-5.894,7.329-10.121,15.342-12.682,24.04c-2.538,8.741-3.256,17.604-2.152,26.587c1.147,8.875,3.62,16.81,7.417,23.808
		c3.377,6.048,8.443,12.626,15.198,19.734c0.994,1.017,2.031,2.087,3.112,3.213c1.104,1.147,2.218,2.239,3.345,3.277
		c1.346,1.302,2.593,2.495,3.741,3.576c1.701,1.611,2.793,2.604,3.279,2.979l45.396,46.854l0.663,0.729
		c0.22,0.22,0.453,0.452,0.695,0.694l42.846,44.271c0-0.044,0.022-0.088,0.066-0.132c1.942-2.23,3.896-4.437,5.861-6.623
		c0.374-0.396,0.75-0.805,1.125-1.226c0.287-0.374,0.596-0.728,0.927-1.059c0.442-0.486,0.916-0.982,1.425-1.489l63.904-63.972
		c0.332-0.376,0.707-0.729,1.126-1.061H226.869z M158.561,209.593c0.993,0.619,1.49,1.524,1.49,2.716
		c0,0.948-1.038,2.473-3.112,4.569c-2.341,2.362-4.459,3.543-6.357,3.543c-3.135,0-5.343-1.049-6.623-3.146
		c-0.729-1.169-1.093-2.45-1.093-3.84c0-0.376,0.243-0.772,0.728-1.192c0.751-0.574,1.722-0.861,2.914-0.861
		c0.905,0,1.767,0.376,2.583,1.126c0.861,0.706,1.501,1.059,1.92,1.059c0.42,0,1.226-0.683,2.418-2.052
		c1.368-1.522,2.107-2.307,2.218-2.351C156.729,208.921,157.7,209.063,158.561,209.593z"/>
	<path fill-rule="evenodd" clip-rule="evenodd" fill="#010101" d="M162.931,65.293v-0.066l0.993-0.927
		c5.497-5.275,10.121-9.172,13.874-11.689c3.82-2.428,8.51-4.569,14.073-6.423c17.725-5.938,35.043-4.823,51.951,3.345
		c9.647,4.657,17.683,11.147,24.105,19.469c6.137,7.925,10.343,16.855,12.616,26.788c2.185,9.889,2.206,19.779,0.065,29.667
		c-2.317,10.309-6.831,19.668-13.542,28.079c-1.192,1.59-2.903,3.543-5.134,5.86c-2.14,2.317-4.104,4.315-5.893,5.993l-1.093,1.126
		c-2.517,2.429-5.363,5.122-8.544,8.08c-6.621,5.783-13.133,11.578-19.535,17.383c-3.179,0.861-6.456,1.568-9.833,2.12
		c-14.35,2.206-28.344,0.882-41.986-3.974c-3.907-1.392-9.05-4.106-15.43-8.146c-6.401-4.04-10.816-7.405-13.245-10.1
		c-4.812-5.188-8.256-10.816-10.33-16.887c-2.009-6.003-2.373-11.644-1.093-16.92c1.479-6.225,4.481-11.236,9.007-15.033
		c4.59-3.797,9.05-5.055,13.376-3.774c4.04,1.17,6.732,3.311,8.079,6.424c1.458,3.09,1.17,6.269-0.86,9.536
		c-1.898,3.001-4.702,4.503-8.41,4.503c-3.664-0.066-6.446-1.634-8.345-4.702l-1.06-1.788l-0.729,1.854
		c-3.045,7.925-1.998,15.805,3.146,23.641c3.223,4.967,7.306,8.466,12.251,10.497c4.944,2.009,10.297,2.34,16.059,0.993
		c4.371-0.993,8.367-2.87,11.986-5.629c3.643-2.716,7.175-6.534,10.597-11.456c4.568-6.579,7.902-13.434,9.999-20.563
		c2.097-7.174,2.683-13.686,1.755-19.536c-0.993-6.026-3.62-11.445-7.881-16.257c-4.237-4.746-9.756-8.521-16.556-11.325
		c-3.422-1.368-6.412-2.857-8.972-4.47c-2.584-1.545-4.207-2.835-4.869-3.874c-0.551-0.861-1.048-2.208-1.489-4.04l-0.729-2.714
		l-1.325,3.841c-1.103,3.134-1.578,6.203-1.423,9.204c0.133,2.937,0.938,7.827,2.417,14.669c1.368,6.181,2.131,10.696,2.285,13.543
		c0.241,2.804-0.067,4.878-0.929,6.224c-0.197,0.375-0.363,0.354-0.496-0.065c-0.11-0.442-0.208-1.302-0.298-2.583
		c-0.043-1.811-0.166-3.333-0.364-4.57c-0.242-1.236-0.496-1.666-0.762-1.291c-0.153,0.243-0.519,1.269-1.092,3.078
		c-0.84,2.562-2.12,4.415-3.841,5.563c-1.767,1.104-3.433,1.192-5.001,0.266c-0.706-0.463-1.225-1.237-1.556-2.318
		c-0.331-1.06-0.31-1.876,0.065-2.45c0.243-0.419,0.861-0.651,1.854-0.695c0.994-0.088,1.8,0.055,2.417,0.43
		c0.376,0.243,0.685,0.386,0.928,0.43c0.375,0.045,0.617-0.033,0.729-0.232c0.243-0.419,0.408-1.866,0.496-4.337
		c0.133-2.472,0.089-3.918-0.132-4.337c-0.066-0.154-0.331-0.044-0.794,0.331c-0.421,0.375-0.895,0.905-1.425,1.589
		c-2.384,2.937-5.144,4.481-8.278,4.636c-3.134,0.088-5.816-1.226-8.046-3.94c-1.191-1.523-1.501-3.234-0.927-5.133
		c0.618-1.943,1.854-3.201,3.708-3.775c2.031-0.661,3.599-0.253,4.703,1.226c1.146,1.501,1.169,3.156,0.065,4.966
		c-0.529,0.817-0.772,1.291-0.728,1.424c0,0.154,0.286,0.209,0.86,0.166c0.485-0.066,0.938-0.332,1.357-0.795
		c0.375-0.463,0.905-1.346,1.589-2.648c0.663-1.28,1.115-2.771,1.358-4.47c0.309-1.634,0.584-4.56,0.827-8.775
		c0.441-7.857,0.85-13.178,1.226-15.959c0.419-2.759,1.126-5.474,2.119-8.145C162.92,65.381,162.931,65.337,162.931,65.293z
		 M169.057,162.675c4.128-0.287,7.67-1.832,10.629-4.637c0.618-0.617,1.203-1.114,1.755-1.489c0.486-0.376,0.817-0.519,0.993-0.431
		c0.244,0.177,0.718,1.533,1.425,4.073c0.396,1.699,0.573,2.857,0.528,3.477c-0.021,0.618-0.33,1.17-0.927,1.654
		c-1.811,1.811-4.834,3.047-9.072,3.709s-7.892,0.497-10.96-0.496c-3.135-1.06-5.894-2.99-8.277-5.795
		c-2.473-2.803-3.687-5.463-3.643-7.98c0.044-2.759,1.016-5.297,2.914-7.615c1.897-2.252,4.117-3.588,6.655-4.006
		c2.185-0.288,4.205,0.43,6.06,2.152c1.854,1.7,2.683,3.598,2.483,5.695c-0.199,2.715-1.291,4.712-3.278,5.993
		c-2.009,1.281-4.359,1.545-7.053,0.795c-0.773-0.198-1.159-0.231-1.159-0.099c0,0.109,0.431,0.616,1.292,1.523
		C161.695,161.713,164.906,162.872,169.057,162.675z M168.462,149.33c0.198,0.156,0.318,0.188,0.363,0.1
		c0.088-0.11,0.022-0.375-0.198-0.794c-0.288-0.442-0.618-0.917-0.994-1.424c-0.949-1.281-1.622-2.064-2.021-2.352
		c-0.463-0.286-1.412-0.507-2.847-0.662c-1.436-0.221-2.219-0.221-2.351,0c-0.177,0.243,0.198,0.364,1.125,0.364
		c0.397,0,0.949,0.143,1.656,0.43c0.706,0.331,1.347,0.685,1.92,1.06c0.574,0.331,1.171,0.739,1.788,1.226
		c0.529,0.485,0.861,0.916,0.993,1.291C168.096,148.899,168.283,149.153,168.462,149.33z M189.52,142.343
		c0.331,0.111,0.232,0.619-0.299,1.523c-0.771,1.237-3.41,2.131-7.912,2.683c-0.332,0.044-0.685,0.188-1.06,0.43
		c-0.375,0.288-0.641,0.596-0.795,0.927c-0.198,0.486-0.244,0.872-0.132,1.159c0.22,0.331,0.649,0.728,1.291,1.192
		c0.993,0.573,1.435,1.104,1.323,1.589c-0.176,0.464-0.86,0.74-2.052,0.828c-1.767,0.066-2.979-0.408-3.643-1.424
		c-0.707-1.126-0.607-2.473,0.298-4.04c0.375-0.663,0.541-1.138,0.497-1.424c-0.089-0.287-0.441-0.629-1.061-1.026
		c-0.396-0.266-0.761-0.619-1.093-1.06c-0.33-0.463-0.54-0.884-0.628-1.259c-0.111-0.64,0.055-0.982,0.497-1.027
		c0.483,0,1.908,0.243,4.271,0.729c1.479,0.243,2.936,0.431,4.37,0.563c1.458,0.132,2.55,0.11,3.279-0.066
		C188.282,142.222,189.232,142.124,189.52,142.343z M168.958,132.245h1.788c0.993,0.043,2.041,0.353,3.145,0.927
		c1.06,0.596,1.49,1.07,1.291,1.424c-0.242,0.375-0.76,0.463-1.556,0.264c-0.729-0.243-1.655-0.717-2.781-1.423L168.958,132.245z
		 M194.354,104.133c0.419,0.243,0.396,1.192-0.066,2.847c-0.375,1.678-0.906,3.103-1.59,4.272c-0.705,1.06-1.127,1.633-1.258,1.721
		c-0.198,0.045-0.319-0.221-0.365-0.794c-0.044-0.706-0.143-1.005-0.298-0.894c-0.132,0.088-0.407,0.628-0.827,1.622
		c-0.287,0.575-0.651,1.171-1.093,1.789c-0.507,0.618-0.938,1.07-1.291,1.357c-0.597,0.375-0.927,0.563-0.993,0.563
		c-0.044,0.044,0.032-0.188,0.23-0.696c0.531-0.816,0.41-1.037-0.363-0.662c-0.706,0.44-1.346,1.126-1.921,2.053
		c-0.242,0.397-0.508,0.684-0.794,0.861c-0.221,0.11-0.364,0.088-0.431-0.066c-0.132-0.133-0.132-0.387,0-0.762
		c0.044-0.331,0.144-0.64,0.298-0.927c0.177-0.243,0.276-0.507,0.298-0.794c0.088-0.331,0.088-0.573,0-0.729
		c-0.066-0.131-0.266-0.077-0.596,0.166c-0.331,0.331-0.707,0.806-1.126,1.424c-0.86,1.413-1.556,2.174-2.086,2.285
		c-0.552,0.132-0.618-0.463-0.198-1.789l0.695-2.02l-1.191,1.457c-0.862,0.993-1.536,1.513-2.021,1.556
		c-0.618,0.177-0.606,0.033,0.034-0.43c0.264-0.199,0.518-0.463,0.761-0.794c0.198-0.375,0.32-0.706,0.364-0.993
		c0.132-0.463,0.111-0.717-0.066-0.762c-0.11-0.066-0.463,0-1.059,0.199c-0.641,0.243-0.961,0.319-0.961,0.231
		c0-0.154,0.364-0.64,1.093-1.457c0.993-1.191,1.49-2.429,1.49-3.708c0-1.082,0.121-1.722,0.365-1.92
		c0.197-0.243,0.341,0.11,0.43,1.059c0.087,0.309,0.21,0.619,0.364,0.928c0.133,0.309,0.298,0.53,0.497,0.662
		c0.551,0.332,2.064-0.055,4.536-1.158c2.429-1.126,4.381-2.329,5.859-3.609c0.752-0.663,1.458-1.192,2.119-1.59
		C193.835,104.211,194.222,104.045,194.354,104.133z M185.744,91.816c1.502-0.332,3.091-0.332,4.769,0
		c1.743,0.418,3.146,0.96,4.206,1.623c0.706,0.374,0.959,0.573,0.761,0.595c-0.264,0.088-1.093-0.01-2.483-0.298
		c-2.098-0.42-3.951-0.42-5.563,0c-1.655,0.375-3.984,1.402-6.986,3.08c-2.031,1.082-3.455,1.744-4.272,1.987
		c-0.815,0.331-1.412,0.353-1.787,0.066c-0.662-0.618-0.642-1.259,0.066-1.921c0.773-0.662,2.461-1.611,5.066-2.847
		C182.146,92.864,184.223,92.103,185.744,91.816z M184.355,207.077c-0.884,0.354-1.977,0.806-3.279,1.357
		c-1.567,0.661-2.803,1.501-3.709,2.517c0.11,0.044,0.232,0.088,0.365,0.131c0.484,0.288,0.772,0.521,0.86,0.696
		c1.678,0.022,3.344-0.519,5-1.622c1.369-0.993,2.053-1.755,2.053-2.285c0-0.419-0.331-0.673-0.993-0.762
		C184.52,207.109,184.42,207.099,184.355,207.077z M108.297,221.845l-45.396-46.854c-0.486-0.375-1.578-1.368-3.279-2.979
		c-1.147-1.081-2.395-2.274-3.741-3.576c-1.126-1.038-2.241-2.13-3.345-3.277c-1.082-1.126-2.119-2.196-3.112-3.213
		c-6.754-7.107-11.821-13.686-15.198-19.734c-3.797-6.998-6.27-14.933-7.417-23.808c-1.104-8.983-0.386-17.847,2.152-26.587
		c2.561-8.698,6.788-16.71,12.682-24.04c5.232-6.468,11.379-11.766,18.443-15.893c7.042-4.128,14.845-6.976,23.41-8.543
		c6.556-1.148,13.278-1.27,20.165-0.365c6.843,0.994,13.62,3.013,20.331,6.06c1.324,0.618,2.649,1.302,3.973,2.053
		c0.066,0.088,0.122,0.166,0.166,0.232c0.243,0.287,0.475,0.452,0.695,0.497c0.089,0,0.188-0.022,0.298-0.066
		c0.243,0.177,0.508,0.342,0.795,0.497c-0.021,0.331-0.021,0.685,0,1.06c0.088,0.53,0.364,1.291,0.828,2.284
		c0.529,1.237,0.772,2.086,0.728,2.55c0.045,0.397-0.176,0.95-0.662,1.656c-0.332,0.331-0.773,0.663-1.325,0.993
		c-0.573,0.287-1.17,0.43-1.788,0.43l-1.987,0.133l0.762,3.145c0.485,2.053,0.839,5.244,1.059,9.569
		c0.066,1.855,0.232,3.73,0.497,5.629c0.243,2.031,0.486,3.521,0.729,4.47l1.059,3.344l-2.616,3.146
		c-1.279,1.523-2.063,2.947-2.351,4.272c-0.198,1.257,0.221,1.975,1.258,2.151c0.574,0.044,0.861,0.088,0.861,0.133
		c0,0.044-0.266,0.121-0.795,0.231c-0.331,0-0.629,0.089-0.894,0.266c-0.199,0.154-0.298,0.331-0.298,0.53
		c0.088,0.794,0.728,3.068,1.92,6.821c1.325,3.752,2.329,6.368,3.013,7.847c0.905,2.053,1.424,3.555,1.556,4.503
		c0.089,0.839-0.264,1.667-1.059,2.483c-0.397,0.442-0.949,0.75-1.655,0.927c-0.574,0.199-1.458,0.299-2.649,0.299h-3.211
		l0.298,3.973c0.088,2.053-0.055,3.62-0.43,4.703c-0.463,0.949-1.226,1.457-2.285,1.522c-0.463,0-0.773,0.133-0.928,0.398
		c-0.087,0.198-0.055,0.54,0.1,1.026c0.375,0.838,0.32,1.732-0.166,2.681c-0.53,0.862-1.291,1.392-2.285,1.59
		c-0.662,0.088-1.115,0.232-1.357,0.43c-0.177,0.243-0.265,0.618-0.265,1.126c0.707,2.914,1.104,4.867,1.192,5.86
		c0.067,0.95-0.121,1.999-0.563,3.146c-0.662,1.656-1.678,2.98-3.046,3.974c-1.392,0.905-3.135,1.435-5.232,1.59
		c-0.905,0.043-2.594-0.033-5.066-0.232c-2.472-0.287-4.945-0.64-7.417-1.06c-3.643-0.685-6.181-1.07-7.616-1.159
		c-1.435-0.133-2.483-0.078-3.146,0.165c-1.413,0.795-2.241,2.594-2.483,5.397c-0.331,2.804-0.022,5.541,0.926,8.212l1.292,3.576
		l-1.556,4.04c-0.685,1.633-1.071,2.748-1.159,3.344c-0.089,0.574,0.055,0.905,0.43,0.993c0.663,0.154,1.987,1.093,3.974,2.814
		c2.141,1.656,3.664,3.036,4.569,4.14c0.375,0.553,0.783,1.401,1.225,2.549c0.42,1.192,0.795,2.495,1.126,3.907
		c0.375,1.811,0.717,3.124,1.026,3.94c0.42,0.795,0.895,1.368,1.424,1.723c0.464,0.309,0.761,0.563,0.894,0.761v0.066
		c0.11,0.199,0.088,0.299-0.066,0.299c-0.508,0.043-1.004,0.287-1.49,0.728c-0.42,0.309-0.441,0.685-0.067,1.126
		c0.332,0.573,1.159,1.5,2.483,2.781c1.104,1.081,2.197,2.318,3.279,3.709l-32.847-29.802c-0.53-0.287-1.678-1.191-3.444-2.714
		c-1.237-1.037-2.583-2.153-4.039-3.345c-1.148-0.949-2.318-1.976-3.511-3.079c-1.147-0.993-2.262-1.964-3.344-2.914
		c-5.85-5.408-10.551-10.563-14.106-15.463c11.876,17.813,37.207,41.677,75.991,71.588c1.237,0.265,2.517,0.419,3.841,0.462
		c1.016,0,2.064-0.021,3.146-0.064c2.23-0.994,3.73-2.528,4.502-4.604c0.178-0.529,0.266-2.771,0.266-6.722c0-3.135,0-4.867,0-5.198
		c0.11-1.986,0.419-3.842,0.927-5.563c0.243-1.192,0.485-2.143,0.729-2.849c0.419-1.146,1.126-1.965,2.12-2.449
		c1.633-0.928,2.781-0.662,3.443,0.795c0.375,0.772,0.563,1.743,0.563,2.913c0,0.64-0.144,2.384-0.431,5.232
		c-0.243,2.715-0.408,4.282-0.497,4.701c-0.287,0.817-1.137,2.593-2.55,5.33c-0.574,1.236-0.982,2.22-1.225,2.947
		c-0.044,0.707-0.044,1.534,0,2.483c0.044,0.465,0.132,0.872,0.264,1.226c0.243,0.661,0.564,1.369,0.96,2.119
		c0.088,0.045,0.155,0.1,0.198,0.165c0.795,0.928,1.623,1.567,2.483,1.922c0.708,0.33,1.678,0.661,2.915,0.993h3.643
		c0-0.09,0.242-0.145,0.728-0.166c0.795-0.221,1.579-0.431,2.351-0.63l1.49-0.728c-1.7-1.171-2.859-2.352-3.477-3.543
		c-0.663-1.147-0.994-2.649-0.994-4.503c0-0.994,0.442-1.922,1.324-2.782c1.061-1.148,2.583-1.722,4.57-1.722
		c1.148,0,2.009,0.198,2.583,0.596c1.037,0.706,1.601,1.082,1.688,1.126c0.396-0.751,1.07-1.556,2.02-2.417
		c1.369-1.192,2.671-1.788,3.907-1.788c1.325,0,2.462,0.309,3.411,0.928c0.154-0.177,0.353-0.265,0.596-0.265
		c1.898,0,3.422,1.654,4.569,4.967c0.706,1.721,1.534,4.249,2.483,7.583c1.236-2.628,2.826-5.154,4.768-7.583
		c3.753-4.901,7.54-7.352,11.357-7.352c0.332,0,0.641,0.011,0.927,0.033c0.751-0.066,1.337,0.077,1.756,0.43
		c0.86,0.708,1.291,1.635,1.291,2.782c0,0.949-0.662,2.086-1.987,3.41c-1.721,1.656-3.797,2.483-6.226,2.483
		c-1.412,0-2.504-0.43-3.277-1.291c-0.462,0.861-0.695,1.864-0.695,3.013c0,0.795,0.309,1.458,0.928,1.986
		c1.038,0.861,2.726,1.292,5.066,1.292c2.14,0,4.039-0.64,5.694-1.92c1.369-1.348,2.273-2.187,2.715-2.517
		c0.288,0,0.431,0.143,0.431,0.43c0,1.061-0.806,2.296-2.418,3.709c-1.874,1.765-4.017,2.648-6.422,2.648
		c-3.797,0-6.324-1.004-7.583-3.013c-0.884-1.324-1.138-2.362-0.762-3.113c-0.376,0.663-0.994,2.01-1.854,4.04
		c-1.037,2.053-2.206,3.079-3.509,3.079c-1.502,0-2.594-1.015-3.278-3.045c-0.177-0.441-0.486-1.733-0.928-3.875
		c-0.242-1.126-0.674-2.263-1.291-3.41c0,0.176,0,0.298,0,0.364c0,2.737-2.01,5.354-6.026,7.847
		c-3.818,2.406-8.344,4.117-13.576,5.133h-7.483c-2.362-0.354-4.261-1.424-5.696-3.211c-1.081-1.392-1.743-2.959-1.986-4.703
		c-2.583,2.229-3.94,3.389-4.072,3.478c-1.324,0.772-2.848,1.346-4.57,1.722c-1.457,0.331-3.046,0.497-4.768,0.497
		c-1.987,0-3.455-0.243-4.404-0.729c-0.441-0.131-0.85-0.254-1.225-0.363C108.529,221.933,108.408,221.888,108.297,221.845z
		 M204.553,207.011c-1.81,0.286-4.04,1.27-6.689,2.947c-2.186,1.456-3.785,2.737-4.801,3.84c-0.133-0.088-0.221-0.164-0.264-0.232
		c-0.111-0.043-0.166-0.187-0.166-0.429c0-1.083,1.5-2.451,4.503-4.106c3.047-1.766,5.452-2.505,7.218-2.219L204.553,207.011z
		 M208.063,206.315c0,0.507-0.309,0.762-0.927,0.762c-0.398,0-0.597-0.232-0.597-0.696c0-0.574,0.265-0.86,0.794-0.86
		C207.819,205.521,208.063,205.785,208.063,206.315z M129.19,54.863c-0.154,0.044-0.541,0.827-1.159,2.351
		c-0.331,0.772-0.497,1.324-0.497,1.656c0,0.287,0.144,0.43,0.431,0.43c0.817-0.044,1.435-0.354,1.854-0.927
		c0.332-0.486,0.353-1.181,0.066-2.086c-0.132-0.419-0.287-0.772-0.463-1.06C129.312,54.852,129.235,54.73,129.19,54.863z
		 M163.858,125.159c-1.191-1.855-3.058-3.322-5.596-4.403c-2.517-1.06-4.536-1.204-6.06-0.432c-0.463,0.199,0.132,0.342,1.788,0.432
		c1.678,0.043,3.51,0.64,5.496,1.788c1.942,1.236,3.399,2.659,4.371,4.272c0.419,0.618,0.773,1.07,1.06,1.357
		c0.243,0.243,0.364,0.199,0.364-0.132C165.128,127.421,164.653,126.461,163.858,125.159z M132.27,194.395
		c-1.104,1.038-1.887,2.517-2.351,4.438c-0.243,1.126-0.463,2.813-0.662,5.066v7.119c1.567-3.798,2.539-6.479,2.913-8.047
		c0.2-1.302,0.298-3.664,0.298-7.086C132.468,195.797,132.402,195.3,132.27,194.395z M158.561,209.593
		c-0.86-0.529-1.832-0.672-2.914-0.43c-0.11,0.044-0.85,0.828-2.218,2.351c-1.192,1.369-1.998,2.052-2.418,2.052
		c-0.419,0-1.059-0.353-1.92-1.059c-0.816-0.75-1.678-1.126-2.583-1.126c-1.192,0-2.163,0.287-2.914,0.861
		c-0.485,0.42-0.728,0.816-0.728,1.192c0,1.39,0.364,2.671,1.093,3.84c1.28,2.098,3.488,3.146,6.623,3.146
		c1.898,0,4.017-1.181,6.357-3.543c2.074-2.097,3.112-3.621,3.112-4.569C160.051,211.117,159.554,210.212,158.561,209.593z"/>
	<path fill-rule="evenodd" clip-rule="evenodd" fill="#FFCD05" d="M129.124,51.75c-0.11,0.044-0.209,0.066-0.298,0.066
		c-0.22-0.045-0.452-0.21-0.695-0.497c-0.044-0.066-0.1-0.144-0.166-0.232c0.288,0.154,0.574,0.32,0.861,0.497L129.124,51.75z
		 M226.869,191.978h0.066c-0.419,0.331-0.794,0.685-1.126,1.061l-63.904,63.972c-0.509,0.507-0.982,1.003-1.425,1.489
		c-0.331,0.331-0.64,0.685-0.927,1.059c-0.375,0.421-0.751,0.829-1.125,1.226c-1.966,2.187-3.919,4.393-5.861,6.623
		c-0.044,0.044-0.066,0.088-0.066,0.132l-42.846-44.271c-0.243-0.242-0.475-0.475-0.695-0.694l-0.663-0.729
		c0.111,0.043,0.232,0.088,0.364,0.133c0.375,0.109,0.784,0.232,1.225,0.363c0.949,0.486,2.417,0.729,4.404,0.729
		c1.722,0,3.311-0.166,4.768-0.497c1.722-0.376,3.246-0.949,4.57-1.722c0.132-0.089,1.49-1.248,4.072-3.478
		c0.243,1.744,0.906,3.312,1.986,4.703c1.435,1.787,3.334,2.857,5.696,3.211h7.483c5.232-1.016,9.757-2.727,13.576-5.133
		c4.017-2.493,6.026-5.109,6.026-7.847c0-0.066,0-0.188,0-0.364c0.617,1.147,1.049,2.284,1.291,3.41
		c0.441,2.142,0.751,3.434,0.928,3.875c0.685,2.03,1.776,3.045,3.278,3.045c1.303,0,2.472-1.026,3.509-3.079
		c0.86-2.03,1.479-3.377,1.854-4.04c-0.376,0.751-0.122,1.789,0.762,3.113c1.259,2.009,3.786,3.013,7.583,3.013
		c2.405,0,4.548-0.884,6.422-2.648c1.612-1.413,2.418-2.648,2.418-3.709c0-0.287-0.143-0.43-0.431-0.43
		c-0.441,0.33-1.346,1.169-2.715,2.517c-1.655,1.28-3.555,1.92-5.694,1.92c-2.341,0-4.028-0.431-5.066-1.292
		c-0.619-0.528-0.928-1.191-0.928-1.986c0-1.148,0.233-2.151,0.695-3.013c0.773,0.861,1.865,1.291,3.277,1.291
		c2.429,0,4.505-0.827,6.226-2.483c1.325-1.324,1.987-2.461,1.987-3.41c0-1.147-0.431-2.074-1.291-2.782
		c-0.419-0.353-1.005-0.496-1.756-0.43c-0.286-0.022-0.595-0.033-0.927-0.033c-3.817,0-7.604,2.45-11.357,7.352
		c-1.941,2.429-3.531,4.955-4.768,7.583c-0.949-3.334-1.777-5.862-2.483-7.583c-1.147-3.313-2.671-4.967-4.569-4.967
		c-0.243,0-0.441,0.088-0.596,0.265c-0.949-0.619-2.086-0.928-3.411-0.928c-1.236,0-2.538,0.596-3.907,1.788
		c-0.949,0.861-1.623,1.666-2.02,2.417c-0.088-0.044-0.651-0.42-1.688-1.126c-0.574-0.397-1.435-0.596-2.583-0.596
		c-1.987,0-3.509,0.573-4.57,1.722c-0.882,0.86-1.324,1.788-1.324,2.782c0,1.854,0.331,3.355,0.994,4.503
		c0.618,1.191,1.776,2.372,3.477,3.543l-1.49,0.728c-0.772,0.199-1.556,0.409-2.351,0.63c-0.486,0.021-0.728,0.076-0.728,0.166
		h-3.643c-1.237-0.332-2.207-0.663-2.915-0.993c-0.86-0.354-1.688-0.994-2.483-1.922c-0.043-0.065-0.11-0.12-0.198-0.165
		c-0.396-0.75-0.717-1.458-0.96-2.119c-0.132-0.354-0.22-0.761-0.264-1.226c-0.044-0.949-0.044-1.776,0-2.483
		c0.243-0.728,0.65-1.711,1.225-2.947c1.413-2.737,2.263-4.513,2.55-5.33c0.088-0.419,0.254-1.986,0.497-4.701
		c0.287-2.849,0.431-4.593,0.431-5.232c0-1.17-0.188-2.141-0.563-2.913c-0.662-1.457-1.81-1.723-3.443-0.795
		c-0.994,0.484-1.701,1.303-2.12,2.449c-0.243,0.706-0.486,1.656-0.729,2.849c-0.508,1.721-0.816,3.576-0.927,5.563
		c0,0.331,0,2.063,0,5.198c0,3.951-0.088,6.192-0.266,6.722c-0.772,2.075-2.272,3.609-4.502,4.604
		c-1.082,0.043-2.13,0.064-3.146,0.064c-1.324-0.043-2.604-0.197-3.841-0.462c-38.785-29.911-64.115-53.774-75.991-71.588
		c3.555,4.9,8.256,10.055,14.106,15.463c1.082,0.95,2.197,1.921,3.344,2.914c1.192,1.104,2.363,2.13,3.511,3.079
		c1.456,1.191,2.802,2.308,4.039,3.345c1.766,1.522,2.914,2.427,3.444,2.714l32.847,29.802c-1.082-1.391-2.174-2.628-3.279-3.709
		c-1.324-1.281-2.152-2.208-2.483-2.781c-0.375-0.441-0.353-0.817,0.067-1.126c0.486-0.44,0.982-0.685,1.49-0.728
		c0.154,0,0.176-0.1,0.066-0.299v-0.066c-0.133-0.198-0.43-0.452-0.894-0.761c-0.529-0.354-1.004-0.928-1.424-1.723
		c-0.309-0.816-0.651-2.13-1.026-3.94c-0.331-1.412-0.706-2.715-1.126-3.907c-0.442-1.147-0.85-1.996-1.225-2.549
		c-0.905-1.104-2.428-2.483-4.569-4.14c-1.987-1.722-3.311-2.66-3.974-2.814c-0.375-0.088-0.519-0.419-0.43-0.993
		c0.087-0.596,0.474-1.711,1.159-3.344l1.556-4.04l-1.292-3.576c-0.949-2.671-1.257-5.408-0.926-8.212
		c0.242-2.803,1.07-4.602,2.483-5.397c0.662-0.243,1.71-0.298,3.146-0.165c1.435,0.088,3.973,0.474,7.616,1.159
		c2.472,0.42,4.944,0.772,7.417,1.06c2.472,0.199,4.161,0.275,5.066,0.232c2.097-0.155,3.841-0.685,5.232-1.59
		c1.368-0.994,2.384-2.317,3.046-3.974c0.441-1.147,0.629-2.196,0.563-3.146c-0.088-0.993-0.485-2.947-1.192-5.86
		c0-0.508,0.088-0.883,0.265-1.126c0.242-0.198,0.695-0.342,1.357-0.43c0.994-0.198,1.755-0.728,2.285-1.59
		c0.486-0.949,0.541-1.843,0.166-2.681c-0.154-0.486-0.187-0.829-0.1-1.026c0.155-0.266,0.464-0.398,0.928-0.398
		c1.059-0.065,1.821-0.573,2.285-1.522c0.375-1.083,0.519-2.649,0.43-4.703l-0.298-3.973h3.211c1.192,0,2.075-0.1,2.649-0.299
		c0.706-0.176,1.258-0.485,1.655-0.927c0.795-0.816,1.148-1.645,1.059-2.483c-0.132-0.949-0.651-2.45-1.556-4.503
		c-0.684-1.479-1.688-4.094-3.013-7.847c-1.192-3.753-1.833-6.027-1.92-6.821c0-0.199,0.1-0.375,0.298-0.53
		c0.264-0.176,0.563-0.266,0.894-0.266c0.529-0.11,0.795-0.187,0.795-0.231c0-0.045-0.287-0.088-0.861-0.133
		c-1.038-0.176-1.457-0.894-1.258-2.151c0.288-1.325,1.071-2.749,2.351-4.272l2.616-3.146l-1.059-3.344
		c-0.243-0.949-0.486-2.438-0.729-4.47c-0.264-1.899-0.43-3.774-0.497-5.629c-0.22-4.326-0.574-7.517-1.059-9.569l-0.762-3.145
		l1.987-0.133c0.618,0,1.215-0.143,1.788-0.43c0.551-0.331,0.993-0.663,1.325-0.993c0.485-0.707,0.707-1.259,0.662-1.656
		c0.045-0.463-0.198-1.313-0.728-2.55c-0.464-0.993-0.74-1.754-0.828-2.284c-0.021-0.375-0.021-0.729,0-1.06
		c1.325,0.839,2.627,1.732,3.907,2.682c3.09,2.384,6.865,5.739,11.324,10.065l8.94,8.708l8.045-7.649l0.795-0.761
		c0,0.044-0.011,0.088-0.032,0.133c-0.993,2.671-1.7,5.386-2.119,8.145c-0.376,2.782-0.784,8.102-1.226,15.959
		c-0.243,4.216-0.519,7.141-0.827,8.775c-0.243,1.699-0.695,3.189-1.358,4.47c-0.684,1.303-1.214,2.185-1.589,2.648
		c-0.419,0.463-0.872,0.729-1.357,0.795c-0.574,0.043-0.86-0.012-0.86-0.166c-0.045-0.133,0.198-0.606,0.728-1.424
		c1.104-1.81,1.081-3.465-0.065-4.966c-1.104-1.479-2.672-1.887-4.703-1.226c-1.854,0.575-3.09,1.833-3.708,3.775
		c-0.574,1.899-0.265,3.609,0.927,5.133c2.229,2.714,4.912,4.028,8.046,3.94c3.135-0.154,5.895-1.699,8.278-4.636
		c0.53-0.685,1.004-1.214,1.425-1.589c0.463-0.375,0.728-0.485,0.794-0.331c0.221,0.419,0.265,1.866,0.132,4.337
		c-0.088,2.472-0.253,3.918-0.496,4.337c-0.111,0.199-0.354,0.277-0.729,0.232c-0.243-0.044-0.552-0.188-0.928-0.43
		c-0.617-0.375-1.423-0.519-2.417-0.43c-0.993,0.043-1.611,0.276-1.854,0.695c-0.375,0.574-0.396,1.39-0.065,2.45
		c0.331,1.081,0.85,1.855,1.556,2.318c1.568,0.927,3.234,0.839,5.001-0.266c1.721-1.148,3.001-3.001,3.841-5.563
		c0.573-1.809,0.938-2.835,1.092-3.078c0.266-0.375,0.52,0.055,0.762,1.291c0.198,1.236,0.321,2.759,0.364,4.57
		c0.09,1.281,0.188,2.141,0.298,2.583c0.133,0.419,0.299,0.44,0.496,0.065c0.861-1.346,1.17-3.42,0.929-6.224
		c-0.154-2.847-0.917-7.362-2.285-13.543c-1.479-6.842-2.284-11.732-2.417-14.669c-0.155-3.001,0.32-6.07,1.423-9.204l1.325-3.841
		l0.729,2.714c0.441,1.833,0.938,3.179,1.489,4.04c0.662,1.038,2.285,2.329,4.869,3.874c2.56,1.613,5.55,3.103,8.972,4.47
		c6.8,2.804,12.318,6.579,16.556,11.325c4.261,4.813,6.888,10.231,7.881,16.257c0.928,5.85,0.342,12.362-1.755,19.536
		c-2.097,7.129-5.431,13.984-9.999,20.563c-3.422,4.922-6.954,8.74-10.597,11.456c-3.619,2.759-7.615,4.636-11.986,5.629
		c-5.762,1.347-11.114,1.016-16.059-0.993c-4.945-2.031-9.028-5.53-12.251-10.497c-5.144-7.836-6.192-15.716-3.146-23.641
		l0.729-1.854l1.06,1.788c1.898,3.068,4.681,4.636,8.345,4.702c3.708,0,6.512-1.501,8.41-4.503c2.03-3.268,2.318-6.446,0.86-9.536
		c-1.347-3.113-4.039-5.254-8.079-6.424c-4.326-1.28-8.786-0.023-13.376,3.774c-4.525,3.797-7.528,8.808-9.007,15.033
		c-1.28,5.276-0.916,10.917,1.093,16.92c2.074,6.07,5.519,11.699,10.33,16.887c2.429,2.694,6.844,6.06,13.245,10.1
		c6.38,4.039,11.522,6.754,15.43,8.146c13.643,4.855,27.637,6.18,41.986,3.974C220.413,193.546,223.69,192.839,226.869,191.978z
		 M185.744,91.816c-1.521,0.287-3.598,1.048-6.224,2.284c-2.605,1.236-4.293,2.186-5.066,2.847
		c-0.708,0.663-0.729,1.303-0.066,1.921c0.375,0.286,0.972,0.264,1.787-0.066c0.817-0.243,2.241-0.905,4.272-1.987
		c3.002-1.678,5.331-2.704,6.986-3.08c1.611-0.42,3.465-0.42,5.563,0c1.391,0.288,2.22,0.386,2.483,0.298
		c0.198-0.022-0.055-0.221-0.761-0.595c-1.06-0.663-2.463-1.204-4.206-1.623C188.835,91.484,187.246,91.484,185.744,91.816z
		 M194.354,104.133c-0.133-0.088-0.52,0.078-1.16,0.497c-0.661,0.397-1.367,0.927-2.119,1.59c-1.479,1.28-3.431,2.483-5.859,3.609
		c-2.472,1.103-3.985,1.49-4.536,1.158c-0.199-0.132-0.364-0.353-0.497-0.662c-0.154-0.309-0.277-0.619-0.364-0.928
		c-0.089-0.949-0.232-1.301-0.43-1.059c-0.244,0.198-0.365,0.839-0.365,1.92c0,1.279-0.497,2.517-1.49,3.708
		c-0.729,0.817-1.093,1.302-1.093,1.457c0,0.088,0.32,0.012,0.961-0.231c0.596-0.199,0.948-0.266,1.059-0.199
		c0.178,0.045,0.198,0.299,0.066,0.762c-0.044,0.287-0.166,0.618-0.364,0.993c-0.243,0.331-0.497,0.595-0.761,0.794
		c-0.641,0.463-0.652,0.607-0.034,0.43c0.485-0.043,1.159-0.563,2.021-1.556l1.191-1.457l-0.695,2.02
		c-0.42,1.325-0.354,1.92,0.198,1.789c0.53-0.111,1.226-0.872,2.086-2.285c0.419-0.618,0.795-1.093,1.126-1.424
		c0.33-0.243,0.529-0.297,0.596-0.166c0.088,0.156,0.088,0.398,0,0.729c-0.021,0.287-0.121,0.552-0.298,0.794
		c-0.154,0.287-0.254,0.596-0.298,0.927c-0.132,0.375-0.132,0.629,0,0.762c0.066,0.154,0.21,0.176,0.431,0.066
		c0.286-0.177,0.552-0.463,0.794-0.861c0.575-0.927,1.215-1.612,1.921-2.053c0.773-0.375,0.895-0.155,0.363,0.662
		c-0.198,0.508-0.274,0.74-0.23,0.696c0.066,0,0.396-0.188,0.993-0.563c0.353-0.287,0.784-0.739,1.291-1.357
		c0.441-0.618,0.806-1.214,1.093-1.789c0.42-0.993,0.695-1.533,0.827-1.622c0.155-0.111,0.254,0.188,0.298,0.894
		c0.046,0.573,0.167,0.839,0.365,0.794c0.131-0.088,0.553-0.661,1.258-1.721c0.684-1.169,1.215-2.594,1.59-4.272
		C194.751,105.325,194.773,104.375,194.354,104.133z M168.958,132.245l1.887,1.191c1.126,0.706,2.053,1.181,2.781,1.423
		c0.796,0.199,1.313,0.111,1.556-0.264c0.199-0.354-0.231-0.828-1.291-1.424c-1.104-0.574-2.151-0.883-3.145-0.927H168.958z
		 M189.52,142.343c-0.287-0.22-1.237-0.122-2.847,0.298c-0.729,0.176-1.821,0.198-3.279,0.066c-1.435-0.132-2.892-0.32-4.37-0.563
		c-2.362-0.486-3.787-0.729-4.271-0.729c-0.442,0.045-0.608,0.387-0.497,1.027c0.088,0.375,0.298,0.795,0.628,1.259
		c0.332,0.44,0.696,0.794,1.093,1.06c0.619,0.397,0.972,0.739,1.061,1.026c0.044,0.286-0.122,0.761-0.497,1.424
		c-0.905,1.567-1.005,2.914-0.298,4.04c0.663,1.016,1.876,1.49,3.643,1.424c1.191-0.088,1.876-0.364,2.052-0.828
		c0.111-0.485-0.33-1.016-1.323-1.589c-0.642-0.465-1.071-0.862-1.291-1.192c-0.112-0.287-0.066-0.673,0.132-1.159
		c0.154-0.331,0.42-0.64,0.795-0.927c0.375-0.243,0.728-0.386,1.06-0.43c4.502-0.552,7.142-1.445,7.912-2.683
		C189.752,142.962,189.851,142.454,189.52,142.343z M168.462,149.33c-0.179-0.176-0.366-0.43-0.564-0.761
		c-0.132-0.375-0.464-0.806-0.993-1.291c-0.617-0.486-1.214-0.895-1.788-1.226c-0.573-0.375-1.214-0.729-1.92-1.06
		c-0.707-0.287-1.259-0.43-1.656-0.43c-0.927,0-1.302-0.121-1.125-0.364c0.132-0.221,0.915-0.221,2.351,0
		c1.435,0.154,2.384,0.375,2.847,0.662c0.398,0.287,1.071,1.071,2.021,2.352c0.376,0.507,0.706,0.982,0.994,1.424
		c0.221,0.418,0.286,0.684,0.198,0.794C168.78,149.518,168.66,149.485,168.462,149.33z M169.057,162.675
		c-4.15,0.197-7.361-0.962-9.635-3.477c-0.861-0.907-1.292-1.414-1.292-1.523c0-0.133,0.386-0.1,1.159,0.099
		c2.693,0.75,5.044,0.486,7.053-0.795c1.987-1.28,3.079-3.277,3.278-5.993c0.199-2.097-0.63-3.995-2.483-5.695
		c-1.854-1.722-3.875-2.44-6.06-2.152c-2.538,0.418-4.758,1.754-6.655,4.006c-1.898,2.317-2.87,4.856-2.914,7.615
		c-0.044,2.518,1.17,5.178,3.643,7.98c2.384,2.805,5.143,4.735,8.277,5.795c3.068,0.993,6.722,1.158,10.96,0.496
		s7.262-1.898,9.072-3.709c0.597-0.484,0.905-1.036,0.927-1.654c0.045-0.619-0.132-1.777-0.528-3.477
		c-0.707-2.54-1.181-3.896-1.425-4.073c-0.176-0.088-0.507,0.055-0.993,0.431c-0.552,0.375-1.137,0.872-1.755,1.489
		C176.727,160.843,173.185,162.388,169.057,162.675z M184.355,207.077c0.064,0.021,0.164,0.032,0.297,0.032
		c0.662,0.089,0.993,0.343,0.993,0.762c0,0.53-0.684,1.292-2.053,2.285c-1.656,1.104-3.322,1.645-5,1.622
		c-0.088-0.176-0.376-0.408-0.86-0.696c-0.133-0.043-0.255-0.087-0.365-0.131c0.906-1.016,2.142-1.855,3.709-2.517
		C182.379,207.883,183.472,207.431,184.355,207.077z M208.063,206.315c0-0.53-0.243-0.795-0.729-0.795
		c-0.529,0-0.794,0.286-0.794,0.86c0,0.464,0.198,0.696,0.597,0.696C207.754,207.077,208.063,206.822,208.063,206.315z
		 M204.553,207.011l-0.199-0.199c-1.766-0.286-4.171,0.453-7.218,2.219c-3.003,1.655-4.503,3.023-4.503,4.106
		c0,0.242,0.055,0.386,0.166,0.429c0.043,0.068,0.131,0.145,0.264,0.232c1.016-1.103,2.615-2.384,4.801-3.84
		C200.513,208.28,202.743,207.297,204.553,207.011z M129.19,54.863c0.045-0.133,0.122-0.011,0.232,0.364
		c0.177,0.287,0.331,0.64,0.463,1.06c0.287,0.905,0.265,1.6-0.066,2.086c-0.419,0.573-1.037,0.882-1.854,0.927
		c-0.287,0-0.431-0.143-0.431-0.43c0-0.332,0.166-0.883,0.497-1.656C128.649,55.69,129.036,54.907,129.19,54.863z M163.858,125.159
		c0.795,1.303,1.27,2.263,1.424,2.881c0,0.332-0.121,0.375-0.364,0.132c-0.286-0.287-0.641-0.739-1.06-1.357
		c-0.972-1.613-2.429-3.036-4.371-4.272c-1.986-1.148-3.818-1.744-5.496-1.788c-1.656-0.089-2.251-0.232-1.788-0.432
		c1.523-0.772,3.543-0.628,6.06,0.432C160.801,121.837,162.667,123.304,163.858,125.159z M132.27,194.395
		c0.133,0.905,0.199,1.402,0.199,1.49c0,3.422-0.099,5.784-0.298,7.086c-0.375,1.567-1.346,4.249-2.913,8.047v-7.119
		c0.199-2.253,0.419-3.94,0.662-5.066C130.382,196.911,131.166,195.433,132.27,194.395z"/>
</g>
</svg>
