<?xml version="1.0" encoding="utf-8"?>
<!-- Generator: Adobe Illustrator 16.0.0, SVG Export Plug-In . SVG Version: 6.00 Build 0)  -->
<!DOCTYPE svg PUBLIC "-//W3C//DTD SVG 1.1//EN" "http://www.w3.org/Graphics/SVG/1.1/DTD/svg11.dtd">
<svg version="1.1" id="Layer_1" xmlns="http://www.w3.org/2000/svg" xmlns:xlink="http://www.w3.org/1999/xlink" x="0px" y="0px"
	 width="300px" height="300px" viewBox="0 0 300 300" enable-background="new 0 0 300 300" xml:space="preserve">
<g>
	<path fill-rule="evenodd" clip-rule="evenodd" fill="#010101" d="M288.832,107.387c-0.235,8.312-1.402,15.771-3.5,22.378
		c-2.071,6.555-5.401,13.28-9.989,20.176c-2.15,3.304-6.778,8.626-13.884,15.968c-7.001,7.289-23.965,24.292-50.892,51.01
		c-16.388,16.414-30.585,30.494-42.594,42.24c-2.728,2.647-5.1,5.021-7.119,7.118c-7.157,6.844-10.75,10.266-10.775,10.266
		c-0.105,0-0.63-0.407-1.573-1.22c-0.053,0-0.092-0.053-0.119-0.157c-5.689-5.139-25.105-24.279-58.247-57.42
		c-39.408-39.277-60.095-60.227-62.062-62.849c-5.768-7.656-10.055-15.574-12.86-23.756c-2.779-8.206-4.169-16.99-4.169-26.35
		c0-7.341,0.682-13.922,2.045-19.743c1.416-5.821,3.788-11.969,7.118-18.446c5.532-10.724,13.123-19.678,22.772-26.862
		c9.649-7.341,20.661-12.362,33.037-15.063c1.783-0.499,4.038-0.787,6.764-0.865c2.649-0.158,6.346-0.21,11.091-0.158
		c5.69,0.184,9.636,0.407,11.838,0.669c2.334,0.236,4.969,0.748,7.905,1.534c6.135,1.705,11.969,4.077,17.501,7.119
		c5.48,3.042,10.37,6.489,14.67,10.344l4.287,3.815l4.522-4.09c4.85-4.353,10.488-8.102,16.912-11.248
		c6.345-3.173,13.018-5.52,20.018-7.04c5.401-1.022,11.747-1.442,19.036-1.258c7.236,0.209,13.45,0.996,18.642,2.359
		c14.841,4.248,27.544,11.93,38.11,23.047c10.436,11.222,17.2,24.397,20.294,39.526c0.682,3.33,1.088,6.148,1.219,8.456
		C288.99,99.115,288.99,102.615,288.832,107.387z M95.883,202.446l52.544,54.353c0-0.052,0.026-0.104,0.079-0.157
		c4.221-4.876,8.561-9.688,13.018-14.434c19.246-20.975,40.247-41.715,63.006-62.219c4.902-4.457,9.924-8.915,15.063-13.372
		c3.066-2.884,5.834-5.493,8.298-7.826l1.022-1.063c1.704-1.651,3.604-3.605,5.703-5.859c2.176-2.256,3.841-4.144,4.995-5.664
		c6.528-8.207,10.92-17.278,13.175-27.216c2.045-9.648,2.045-19.245,0-28.789c-2.255-9.648-6.371-18.34-12.35-26.075
		c-6.267-8.076-14.08-14.342-23.439-18.799c-16.336-7.997-33.129-9.072-50.382-3.225c-5.375,1.757-9.924,3.789-13.646,6.096
		c-3.619,2.491-8.102,6.279-13.451,11.366l-9.438,9.164l-8.771-8.417c-4.3-4.221-7.97-7.512-11.012-9.872
		c-3.042-2.229-6.201-4.104-9.478-5.625c-6.502-2.989-13.11-4.955-19.822-5.899c-6.608-0.917-13.11-0.813-19.507,0.315
		c-8.285,1.573-15.85,4.339-22.693,8.298c-6.869,4.012-12.821,9.177-17.855,15.496c-5.769,7.053-9.859,14.814-12.271,23.283
		c-2.543,8.469-3.277,17.056-2.203,25.761c1.18,8.626,3.579,16.335,7.198,23.126c3.277,5.873,8.193,12.244,14.749,19.113
		c0.996,1.022,2.005,2.045,3.028,3.068c1.076,1.18,2.15,2.28,3.225,3.303c1.363,1.232,2.583,2.387,3.658,3.462
		c1.678,1.573,2.766,2.504,3.265,2.792L95.883,202.446z M88.292,190.215c0.21,0.131,0.145,0.394-0.197,0.787
		c-0.34,0.341-0.76,0.655-1.258,0.943c-0.445,0.263-0.668,0.341-0.668,0.236c0-0.053,0.275-0.367,0.826-0.944
		C87.781,190.451,88.213,190.109,88.292,190.215z"/>
	<path fill-rule="evenodd" clip-rule="evenodd" fill="#D92826" d="M224.529,179.989l-0.079-0.157
		c-1.022-1.468-1.612-2.438-1.77-2.91c-0.184-0.446-0.131-0.787,0.157-1.022c0.498-0.446,0.721-0.8,0.669-1.063
		c-0.104-0.236-0.407-0.354-0.905-0.354c-0.786,0-1.717-0.538-2.792-1.613c-1.075-1.128-2.032-2.504-2.871-4.13
		c-1.469-2.831-2.582-4.784-3.343-5.859c-0.786-1.022-1.43-1.469-1.927-1.337c-0.394,0.157-0.644-0.013-0.748-0.512
		c-0.078-0.472-0.118-1.835-0.118-4.091c0-2.49,0.04-3.906,0.118-4.247c0.104-0.446,0.433-0.603,0.983-0.472
		c0.734,0.21,1.508-0.026,2.32-0.708c0.787-0.655,1.18-1.102,1.18-1.337c0.053-0.236-0.262-0.498-0.943-0.787
		c-0.394-0.209-0.683-0.459-0.865-0.747c-0.157-0.341-0.289-0.852-0.394-1.533c-0.053-0.84,0.079-1.508,0.394-2.007
		c0.341-0.472,1.271-1.468,2.792-2.988c1.363-1.232,2.268-2.163,2.714-2.792c0.42-0.656,0.63-1.246,0.63-1.771
		c0-0.393,0.078-0.813,0.235-1.259c0.157-0.472,0.328-0.839,0.512-1.101c0.34-0.524,0.511-0.892,0.511-1.102
		c-0.053-0.236-0.288-0.655-0.707-1.259c-0.709-0.813-1.037-2.123-0.983-3.933c0.052-1.73,0.497-4.208,1.336-7.434
		c1.757-6.896,2.609-12.31,2.557-16.243c0-1.888-0.433-3.75-1.297-5.585c-0.893-1.756-2.072-3.225-3.54-4.405
		c-1.416-1.022-2.124-1.927-2.124-2.713c0-0.734-0.445-1.39-1.337-1.967c-0.341-0.236-0.904-0.721-1.691-1.455
		c-0.786-0.734-1.521-1.521-2.203-2.36c-1.913-2.308-3.945-4.339-6.096-6.096c-2.149-1.862-3.841-2.937-5.073-3.225
		c-3.696-0.944-7.289-1.141-10.776-0.59c-1.679,0.341-2.753,0.485-3.226,0.433c-0.445-0.052-1.035-0.341-1.77-0.865
		c-0.891-0.656-2.163-1.049-3.814-1.18c-1.678-0.157-3.395-0.04-5.152,0.354c-0.473,0.105-1.626,0.223-3.461,0.354
		c-1.809,0.052-3.618,0.105-5.427,0.157l-6.805,0.079l-2.359,1.849c-0.603,0.419-1.22,0.852-1.849,1.298
		c-0.734,0.446-1.271,0.695-1.613,0.747c-1.311,0.236-2.359,0.603-3.146,1.102c-0.839,0.524-1.69,1.376-2.556,2.556
		c-0.498,0.682-1.14,1.442-1.927,2.281c-0.839,0.839-1.547,1.507-2.124,2.006c-1.469,1.206-2.347,2.005-2.635,2.399
		c-0.104,0.262-0.262,0.406-0.472,0.433c-0.079,0-0.289-0.144-0.629-0.433c-0.315-0.236-0.485-0.354-0.511-0.354
		c-0.052,0.052,0.039,0.302,0.275,0.747c0.183,0.289,0.262,0.656,0.236,1.102c-0.053,0.367-0.209,0.944-0.472,1.73
		c-0.394,0.944-0.564,1.56-0.511,1.849c0,0.288,0.197,0.681,0.59,1.18c0.288,0.236,0.629,0.433,1.022,0.59
		c0.445,0.184,0.865,0.275,1.258,0.275h1.417L143,99.718c-0.236,1.573-0.328,3.906-0.276,7c0.053,1.311,0,2.648-0.157,4.012
		c-0.052,1.442-0.144,2.478-0.275,3.106l-0.512,2.479l1.888,2.084c1.022,1.127,1.665,2.15,1.927,3.067
		c0.184,0.839-0.092,1.377-0.826,1.612l-0.512,0.079c0,0.053,0.17,0.104,0.512,0.157c0.209,0,0.432,0.039,0.668,0.118
		c0.131,0.104,0.197,0.235,0.197,0.394c0,0.524-0.367,2.188-1.102,4.995c-0.733,2.674-1.284,4.574-1.651,5.702
		c-0.655,1.521-0.983,2.608-0.983,3.265c-0.052,0.629,0.249,1.18,0.905,1.651c0.34,0.367,0.734,0.563,1.18,0.59
		c0.472,0.157,1.127,0.21,1.966,0.157l2.281-0.157v2.95c0.053,1.468,0.223,2.543,0.512,3.225c0.34,0.734,0.904,1.102,1.69,1.102
		c0.289,0,0.512,0.052,0.669,0.157c0.078,0.157,0.052,0.406-0.08,0.747c-0.209,0.629-0.117,1.259,0.276,1.888
		c0.394,0.603,0.957,0.943,1.69,1.022c0.499,0.105,0.84,0.21,1.023,0.314c0.156,0.132,0.21,0.367,0.156,0.708
		c-0.287,2.124-0.432,3.553-0.432,4.287c0,0.63,0.17,1.39,0.512,2.281c0.445,1.075,1.232,1.954,2.359,2.636
		c1.022,0.629,2.295,0.943,3.814,0.943c0.629,0,1.822-0.17,3.579-0.512c1.757-0.288,3.526-0.655,5.31-1.102
		c2.543-0.629,4.326-1.022,5.35-1.18c1.021-0.131,1.756-0.104,2.201,0.079c1.023,0.499,1.731,1.717,2.125,3.657
		c0.34,1.967,0.248,3.959-0.276,5.979l-0.825,2.635l1.337,2.792c0.577,1.128,0.892,1.889,0.944,2.282
		c0.104,0.445,0.025,0.682-0.236,0.708c-0.473,0.209-1.391,0.943-2.754,2.202c-1.441,1.337-2.451,2.425-3.027,3.264
		c-0.289,0.341-0.564,0.944-0.826,1.81c-0.236,0.839-0.433,1.796-0.59,2.871c-0.131,1.285-0.302,2.242-0.512,2.871
		c-0.236,0.524-0.576,0.956-1.022,1.298c-0.288,0.21-0.458,0.393-0.511,0.551v0.039c-0.105,0.157-0.079,0.236,0.078,0.236
		c0.289,0.053,0.656,0.196,1.102,0.433c0.236,0.21,0.262,0.484,0.078,0.825c-0.209,0.446-0.747,1.154-1.611,2.124
		c-3.095,3.33-5.639,8.588-7.631,15.771c-1.967,7.157-3.238,15.509-3.814,25.052l-0.236,5.074c-3.277,1.652-6.948,0.669-11.012-2.95
		c-0.446-0.472-0.957-1.062-1.534-1.77l-3.186-3.814l0.748-1.456c0.682-1.022,1.022-1.612,1.022-1.77
		c0-0.183-0.564-0.576-1.691-1.18c-0.472-0.236-0.983-0.629-1.534-1.18c-0.629-0.576-1.141-1.141-1.534-1.691
		c-0.944-1.311-2.242-2.359-3.894-3.146c-1.809-0.865-3.212-2.084-4.208-3.657c-0.97-1.573-2.085-4.418-3.343-8.534
		c-1.521-4.642-2.622-7.827-3.304-9.558c-0.734-1.888-1.298-3.565-1.691-5.033c-0.55-2.545-0.013-6.687,1.613-12.429
		c1.547-5.663,3.132-9.046,4.758-10.146c0.21-0.132,0.826-0.367,1.848-0.709c0.236-0.052,0.473-0.104,0.708-0.157
		c1.442-0.498,3.015-0.943,4.719-1.337c2.543-0.734,4.327-1.271,5.349-1.612c0.944-0.394,1.625-0.826,2.045-1.298
		c1.337-1.468,1.391-3.645,0.158-6.528c-0.472-1.05-0.708-1.77-0.708-2.163c0-0.236,0.17-0.578,0.511-1.023
		c0.393-0.341,0.59-0.603,0.59-0.786c0-0.263-0.197-0.655-0.59-1.181c-0.262-0.341-0.393-0.654-0.393-0.942
		c-0.079-0.263-0.026-0.434,0.157-0.512c0.289-0.158,0.433-0.63,0.433-1.416s-0.144-1.18-0.433-1.18
		c-0.289,0-0.682-0.433-1.18-1.299c-0.525-0.943-0.787-1.664-0.787-2.163c0-0.184,0.17-0.498,0.511-0.943
		c0.236-0.524,0.524-1.01,0.865-1.455c1.127-1.338,1.599-2.32,1.416-2.95c-0.209-0.682-1.167-1.468-2.871-2.359
		c-2.753-1.416-4.956-3.028-6.607-4.837c-1.678-1.757-2.242-3.121-1.691-4.091c0.236-0.604,0.354-1.127,0.354-1.573
		c0-0.394-0.118-0.314-0.354,0.236c-0.446,0.682-0.813,0.825-1.101,0.433c-0.262-0.498-0.393-1.403-0.393-2.714
		c0-1.18-0.065-2.006-0.197-2.478c-0.105-0.263-0.276-0.563-0.512-0.905c-0.262-0.341-0.537-0.707-0.826-1.101
		c-0.445-0.446-1.075-1.377-1.888-2.793c-0.839-1.416-1.625-2.831-2.359-4.247c-2.596-5.375-4.772-8.194-6.529-8.456
		c-0.445-0.052-0.721-0.223-0.826-0.511c-0.104-0.236-0.104-0.8,0-1.691c0.104-1.207-0.039-2.334-0.433-3.383
		c-0.341-0.97-0.878-1.573-1.612-1.809c-0.682-0.314-1.888-0.223-3.619,0.275c-1.599,0.394-2.674,0.59-3.225,0.59
		c-0.629,0-1.141-0.223-1.534-0.669c-0.184-0.184-0.38-0.328-0.59-0.433c-0.131-0.052-0.197,0-0.197,0.157
		c0,0.524,0.458,0.892,1.376,1.101c0.839,0.236,2.019,0.21,3.54-0.078c1.94-0.341,3.081-0.512,3.421-0.512
		c0.55,0,0.997,0.433,1.337,1.298c0.446,0.839,0.616,1.573,0.512,2.202l-0.354,1.259l-1.416-1.18
		c-1.18-1.022-3.436-1.678-6.765-1.966c-3.225-0.341-6.083-0.197-8.574,0.433c-0.682,0.209-1.441,0.459-2.281,0.747
		c-0.787,0.446-1.416,0.813-1.887,1.102c-0.551,0.341-1.391,0.76-2.517,1.258c-1.128,0.419-2.229,0.76-3.304,1.022
		c-2.595,0.629-4.51,1.285-5.742,1.966c-1.206,0.63-2.321,1.586-3.343,2.871c-0.446,0.525-1.141,1.232-2.084,2.124
		c-0.918,0.786-1.77,1.469-2.557,2.045c-0.787,0.656-1.573,1.351-2.36,2.085c-0.838,0.682-1.376,1.258-1.612,1.73
		c-0.891,1.232-1.888,2.071-2.989,2.517c-1.18,0.341-1.77,0.04-1.77-0.904c0-1.416-2.032-1.967-6.096-1.652
		c-2.124,0.079-4.235,0.564-6.332,1.456c-2.045,0.786-3.828,1.888-5.349,3.304c-1.756,1.573-2.792,2.988-3.106,4.247
		c-0.341,1.285-0.092,2.832,0.747,4.641l1.023,2.046l-1.102,2.438c-0.629,1.415-0.97,2.753-1.022,4.011
		c0,1.285,0.275,2.858,0.826,4.72c0.419,1.363,0.983,2.347,1.691,2.949c0.629,0.63,2.163,1.601,4.601,2.911
		c0.551,0.314,0.944,0.642,1.18,0.983c0.158,0.288,0.236,0.655,0.236,1.102c0,0.917,0.236,1.664,0.708,2.241
		c0.393,0.656,1.088,1.219,2.084,1.691c1.862,0.891,3.841,1.088,5.939,0.59c2.045-0.473,3.172-1.402,3.382-2.793
		c0.052-0.288,0.144-0.524,0.275-0.708c0.209-0.209,0.406-0.314,0.59-0.314c0.341,0,0.538,0.341,0.59,1.022
		c0.053,0.734-0.065,1.6-0.354,2.597c-0.052,0.393-0.052,1.153,0,2.28c0.131,1.128,0.302,2.347,0.511,3.658
		c0.289,1.757,0.603,3.133,0.944,4.129c0.288,0.918,0.681,1.717,1.18,2.399c1.075,1.573,2.084,2.608,3.028,3.107
		c0.918,0.419,2.255,0.655,4.012,0.707c1.232,0,2.215,0.105,2.95,0.315c0.839,0.184,1.717,0.523,2.635,1.022
		c1.573,0.786,2.897,1.18,3.972,1.18c1.128,0,2.478-0.366,4.051-1.101l2.321-1.102l-0.787,1.454
		c-0.21,0.446-0.433,0.957-0.669,1.534c-0.236,0.655-0.407,1.193-0.511,1.612c-0.393,2.072-1.049,3.646-1.966,4.72
		c-0.892,1.128-1.953,1.613-3.186,1.456c-0.34-0.105-0.511-0.079-0.511,0.078c0,0.053,0.104,0.302,0.314,0.747
		c0.236,0.341,0.459,0.538,0.669,0.59c0.079,0.079,0.249-0.025,0.511-0.314c0.394-0.445,0.905-0.761,1.534-0.943
		c0.577-0.211,1.18-0.827,1.809-1.849c0.656-1.022,1.22-2.36,1.691-4.012c0.498-1.468,1.087-2.622,1.77-3.461
		c0.629-0.787,1.495-1.377,2.596-1.771c0.918-0.288,1.521-0.366,1.809-0.235c0.263,0.104,0.223,0.406-0.118,0.904
		c-0.157,0.131-0.289,0.446-0.393,0.943c-0.131,0.499-0.223,0.983-0.276,1.456c-0.052,0.892-0.183,1.429-0.393,1.612
		c-0.183,0.263-0.564,0.445-1.14,0.551c-0.604,0.078-0.997,0.262-1.18,0.551c-0.263,0.209-0.434,0.707-0.512,1.494
		c-0.104,0.498-0.158,0.892-0.158,1.18c0,0.236,0.053,0.302,0.158,0.196c0.236-0.288,0.419-0.825,0.551-1.612
		c0.104-0.393,0.236-0.682,0.393-0.864c0.184-0.158,0.498-0.289,0.944-0.394c0.839-0.132,1.402-0.367,1.69-0.708
		c0.236-0.394,0.341-1.01,0.315-1.849c-0.157-1.023,0.026-1.783,0.551-2.281c0.394-0.235,0.668-0.354,0.826-0.354
		c0.104,0.054,0.354,0.276,0.748,0.67c0.236,0.393,0.379,0.995,0.433,1.809c0.052,0.944,0.078,2.438,0.078,4.483l-0.236,5.388
		l-3.814,7.827c-1.023,2.019-1.849,3.657-2.478,4.916l-34.295-35.515c-0.499-0.288-1.587-1.219-3.265-2.792
		c-1.075-1.075-2.294-2.229-3.658-3.462c-1.075-1.022-2.149-2.123-3.225-3.303c-1.022-1.023-2.032-2.046-3.028-3.068
		c-6.556-6.869-11.472-13.24-14.749-19.113c-3.619-6.791-6.018-14.5-7.198-23.126c-1.074-8.705-0.341-17.292,2.203-25.761
		c2.412-8.469,6.502-16.23,12.271-23.283c5.034-6.319,10.986-11.484,17.855-15.496c6.843-3.959,14.408-6.725,22.693-8.298
		c6.397-1.127,12.899-1.232,19.507-0.315c6.712,0.944,13.32,2.911,19.822,5.899c3.277,1.521,6.436,3.396,9.478,5.625
		c3.042,2.36,6.712,5.65,11.012,9.872l8.771,8.417l9.438-9.164c5.35-5.086,9.832-8.875,13.451-11.366
		c3.723-2.308,8.271-4.339,13.646-6.096c17.253-5.847,34.046-4.772,50.382,3.225c9.359,4.457,17.173,10.724,23.439,18.799
		c5.979,7.735,10.095,16.427,12.35,26.075c2.045,9.544,2.045,19.141,0,28.789c-2.255,9.938-6.646,19.009-13.175,27.216
		c-1.154,1.521-2.819,3.408-4.995,5.664c-2.099,2.254-3.999,4.208-5.703,5.859l-1.022,1.063c-2.464,2.333-5.231,4.942-8.298,7.826
		C234.453,171.074,229.432,175.532,224.529,179.989z M88.292,190.215c-0.079-0.105-0.511,0.236-1.297,1.022
		c-0.551,0.577-0.826,0.892-0.826,0.944c0,0.104,0.223,0.026,0.668-0.236c0.498-0.288,0.918-0.603,1.258-0.943
		C88.437,190.608,88.502,190.346,88.292,190.215z"/>
</g>
</svg>
