<?xml version="1.0" encoding="utf-8"?>
<!-- Generator: Adobe Illustrator 16.0.0, SVG Export Plug-In . SVG Version: 6.00 Build 0)  -->
<!DOCTYPE svg PUBLIC "-//W3C//DTD SVG 1.1//EN" "http://www.w3.org/Graphics/SVG/1.1/DTD/svg11.dtd">
<svg version="1.1" id="Layer_1" xmlns="http://www.w3.org/2000/svg" xmlns:xlink="http://www.w3.org/1999/xlink" x="0px" y="0px"
	 width="300px" height="300px" viewBox="0 0 300 300" enable-background="new 0 0 300 300" xml:space="preserve">
<g>
	<path fill-rule="evenodd" clip-rule="evenodd" fill="#010101" d="M102.836,25.869c-7.113,1.594-13.18,5.995-18.2,13.204
		c-1.855,2.712-2.783,7.089-2.783,13.132c0,5.995,0.904,10.919,2.712,14.773c3.378,7.208,9.492,11.848,18.342,13.917
		c8.874,2.189,16.439,0.856,22.696-3.997c4.449-3.354,7.518-6.542,9.207-9.564c1.689-3.021,2.51-6.828,2.462-11.419
		c-0.047-5.067-1.308-10.016-3.783-14.845c-2.545-4.758-5.793-8.397-9.742-10.919C116.873,25.607,109.902,24.18,102.836,25.869z
		 M81.568,27.225c5.115-5.781,11.598-9.611,19.448-11.491c10.04-2.474,19.258-0.642,27.656,5.496
		c8.446,6.114,14.155,15.143,17.129,27.085c0.619,2.498,1.083,3.64,1.392,3.426c0.261-0.286,0.88-2.355,1.855-6.209
		c1.427-5.281,3.627-10.123,6.602-14.524c3.068-4.354,6.756-8.041,11.063-11.063c3.068-2.093,5.627-3.426,7.672-3.997
		c2.094-0.618,5.318-0.928,9.671-0.928c14.607,0.119,25.444,6.162,32.51,18.128c7.065,11.943,7.244,24.528,0.536,37.755
		c-2.855,5.615-6.876,10.301-12.063,14.06c-5.234,3.735-10.837,6.031-16.808,6.888c-5.448,0.713-8.172,1.355-8.172,1.926
		c0,0.523,1.927,2.903,5.78,7.138c4.545,5.044,9.207,12.941,13.989,23.695c4.9,10.705,8.041,20.233,9.421,28.583
		c0.31,1.88,1.082,4.212,2.32,6.995c1.142,2.712,2.402,5.091,3.782,7.138c2.046,3.116,3.342,5.626,3.89,7.529
		c0.476,1.831,0.535,4.259,0.179,7.279c-1.095,10.396-5.627,15.928-13.597,16.594c-4.615,0.381-7.232-0.178-7.852-1.677
		c-0.666-1.476,0.263-4.699,2.784-9.671c1.214-2.403,2.153-4.532,2.819-6.388c0.761-1.832,0.999-2.879,0.714-3.141
		c-0.214-0.262-0.523-0.214-0.928,0.143s-0.737,0.916-1,1.678c-0.57,1.403-1.927,2.284-4.067,2.641
		c-2.165,0.262-3.248-0.285-3.248-1.642c0-1.118,1.106-3.926,3.319-8.422c2.142-3.996,3.259-7.03,3.354-9.1
		c0.168-1.998-0.725-2.225-2.676-0.679c-1.118,0.929-1.916,1.368-2.391,1.321c-0.596,0-1.178-0.535-1.749-1.606
		c-1.022-1.546-1.534-3.58-1.534-6.102c0-2.498-1.106-3.747-3.319-3.747c-2.188,0-3.282,0.25-3.282,0.749
		c0,0.477,0.785,4.556,2.355,12.24c1.594,7.827,3.806,20.222,6.637,37.185c2.95,17.152,4.663,26.633,5.139,28.44
		c0.404,1.119,0.227,1.903-0.535,2.355c-0.714,0.381-2.354,0.714-4.925,0.999l-6.209,0.465l-0.999,29.511l4.817-1.142
		c4.354-0.928,11.883,0.119,22.589,3.141c10.705,2.974,16.059,5.531,16.059,7.672c0,1.095-8.957,1.642-26.871,1.642h-26.657
		l1.143-7.529c0.261-2.117,0.393-5.115,0.393-8.992c0-3.949-0.155-7.613-0.465-10.992c-0.523-5.376-1.034-8.79-1.534-10.241
		c-0.476-1.476-1.427-2.213-2.854-2.213c-1.381,0-2.284,0.762-2.712,2.284c-0.333,1.594-0.536,5.674-0.607,12.24l-0.214,15.38
		c-0.047,0.5,0.285,2.32,1,5.461l1.07,4.603h-27.585c-13.322,0-21.161-0.154-23.517-0.464c-2.355-0.262-3.116-1.166-2.284-2.712
		c0.975-1.832,1.534-5.674,1.677-11.526c0.143-5.876-0.19-11.717-1-17.521c-0.404-3.021-0.892-5.044-1.463-6.066
		c-0.571-1.118-1.463-1.678-2.676-1.678c-1.451,0-2.332,1.047-2.641,3.141c-0.309,1.951-0.464,7.541-0.464,16.772v20.055
		L59.3,275.488l3.961-3.283c2.665-2.165,7.232-4.211,13.703-6.138c6.448-1.809,12.288-2.712,17.522-2.712l8.458-0.144l0.892-13.311
		c0.618-8.897,0.678-13.763,0.178-14.595c-0.167-0.405-0.892-0.714-2.177-0.929c-1.285-0.333-2.76-0.499-4.425-0.499
		c-3.759,0-5.639-0.393-5.639-1.178c0-0.5,1.594-10.36,4.782-29.583c1.332-7.875,2.379-15.143,3.14-21.804
		c0.809-6.709,1.095-10.908,0.856-12.598c-0.571-4.067,0.523-9.063,3.283-14.987c2.402-5.021,4.58-11.729,6.53-20.126
		c2.046-8.375,3.045-14.81,2.998-19.307l-0.071-6.066l-3.39,4.211c-3.116,3.759-6.078,8.755-8.886,14.988
		c-2.712,6.256-4.996,13.155-6.852,20.697c-1.642,7.018-2.534,11.55-2.676,13.596c-0.167,2.189,0.321,4.615,1.463,7.28
		c2.094,4.71,3.236,8.124,3.426,10.241c0.214,2.046-0.417,3.069-1.891,3.069c-0.667,0-1.416-0.262-2.248-0.785
		c-0.904-0.571-1.57-1.285-1.999-2.142c-1.57-2.712-2.129-2.914-1.677-0.606c0.452,2.355,1.523,5.175,3.211,8.458
		c2.427,4.995,3.461,8.172,3.105,9.528c-0.381,1.475-2.486,2.212-6.316,2.212c-1.951,0-3.771-0.237-5.46-0.714
		c-1.736-0.547-3.021-1.213-3.854-1.998c-3.426-3.378-5.317-7.935-5.674-13.668c-0.356-5.733,0.845-10.825,3.604-15.272
		c0.976-1.547,2.391-4.699,4.247-9.457c1.784-4.711,3.426-9.6,4.925-14.667c6.138-19.722,13.251-34.306,21.34-43.75l5.603-6.603
		l-8.208-0.998c-5.329-0.81-10.706-3.034-16.13-6.674c-6.709-4.616-11.502-10.563-14.381-17.843
		c-2.665-6.756-3.402-13.774-2.212-21.055C73.669,38.929,76.738,32.578,81.568,27.225z M182.985,25.012
		c-5.733,0.404-11.087,2.962-16.059,7.672c-7.636,7.232-11.063,15.487-10.276,24.766c0.809,9.254,5.566,16.32,14.273,21.197
		c3.854,2.212,7.696,3.414,11.526,3.604c3.783,0.214,7.803-0.571,12.062-2.355c5.996-2.474,10.456-5.841,13.382-10.099
		c2.808-4.354,4.235-9.849,4.282-16.487c0.119-10.301-3.817-18.021-11.812-23.16C194.465,26.226,188.671,24.512,182.985,25.012z
		 M165.393,107.089l-3.746,2.89l3.532,2.106c0.952,0.618,1.867,1.094,2.747,1.427c0.809,0.263,1.32,0.273,1.535,0.036
		c0.57-0.666,0.654-2.355,0.25-5.067c-0.215-2.07-0.547-3.176-1-3.319C168.307,105.114,167.201,105.756,165.393,107.089z
		 M125.496,103.234c-0.761-0.214-1.296,0.5-1.605,2.141c-0.31,1.689-0.464,4.735-0.464,9.137c0,8.825,0.666,13.548,1.999,14.166
		c1.284,0.548,4.651-2.319,10.099-8.6l9.528-10.706L125.496,103.234z M151.867,73.366c-1.236-2.617-2.176-5.056-2.818-7.315
		c-0.975-3.854-1.594-5.9-1.855-6.138c-0.31-0.214-0.773,0.904-1.392,3.354c-3.117,12.347-9.73,21.138-19.841,26.371
		c-2.712,1.38-3.807,2.296-3.283,2.749c0.619,0.475,4.223,1.605,10.813,3.39c4.925,1.332,9.338,2.974,13.239,4.925
		c2.855,1.475,4.806,2.188,5.853,2.141c1.023-0.143,2.938-1.189,5.744-3.14c3.902-2.617,6.459-3.926,7.673-3.926
		c0.571,0,1.237-0.25,1.999-0.75c0.713-0.428,1.355-0.975,1.926-1.642c0.811-0.951,0.965-1.772,0.465-2.462
		c-0.523-0.666-2.011-1.582-4.461-2.748c-1.641-0.809-3.509-2.034-5.603-3.676c-1.999-1.736-3.616-3.377-4.853-4.924
		C154.307,78.076,153.105,76.007,151.867,73.366z M154.188,115.439c-1.546,0-4.473,2.177-8.778,6.529
		c-5.377,5.496-9.624,10.516-12.74,15.06l-4.782,7.173l3.64,16.986c1.618,7.779,3.735,20.888,6.352,39.325
		c2.617,18.604,3.926,29.952,3.926,34.044c0,1.332-0.381,2.105-1.142,2.319c-0.666,0.286-2.26,0.179-4.782-0.32l-5.924-1.143
		l1,27.656l30.76,0.286v-7.602c0-4.924,0.357-9.611,1.07-14.061l1-6.387l-14.131,2.319l0.999-4.746
		c0.714-3.354,1.867-12.431,3.462-27.229c0.714-6.232,1.938-14.346,3.675-24.337c1.643-10.159,3.284-19.176,4.926-27.05
		l5.994-28.977l-4.71-3.926C159.1,117.318,155.828,115.344,154.188,115.439z M181.059,109.836c-1.262-1.569-2.022-2.26-2.283-2.069
		c-0.215,0.143-0.346,1.404-0.393,3.782c0,4.282,0.535,7.459,1.605,9.528c0.975,2.189,2.842,3.949,5.603,5.281
		c3.497,1.689,5.447,2.308,5.853,1.855c0.404-0.356-0.821-2.974-3.676-7.851C185.031,115.653,182.796,112.144,181.059,109.836z"/>
	<path fill-rule="evenodd" clip-rule="evenodd" fill="#D81F26" d="M102.836,25.869c7.066-1.689,14.037-0.262,20.912,4.282
		c3.949,2.522,7.196,6.162,9.742,10.919c2.475,4.83,3.735,9.778,3.783,14.845c0.048,4.592-0.773,8.398-2.462,11.419
		c-1.689,3.021-4.758,6.209-9.207,9.564c-6.257,4.853-13.822,6.186-22.696,3.997c-8.85-2.069-14.963-6.709-18.342-13.917
		c-1.809-3.854-2.712-8.778-2.712-14.773c0-6.043,0.928-10.42,2.783-13.132C89.656,31.864,95.723,27.463,102.836,25.869z
		 M100.088,63.338c2.188,1.808,4.925,3.628,8.208,5.46c11.99-6.709,16.189-13.667,12.597-20.876
		c-0.904-1.499-1.927-2.605-3.069-3.319c-0.047-0.048-0.143-0.071-0.285-0.071c-1.999-1.119-4.389-1.011-7.173,0.321
		c-0.713,0.357-1.427,0.738-2.141,1.142c-0.666-0.404-1.309-0.785-1.927-1.142c-3.521-1.76-6.435-1.76-8.743,0
		c-0.095,0.048-0.179,0.096-0.25,0.143c-0.761,0.666-1.451,1.558-2.07,2.676c-2.236,4.401-1.522,8.708,2.141,12.918
		C98.161,61.566,99.065,62.482,100.088,63.338z M182.985,25.012c5.686-0.5,11.479,1.213,17.379,5.139
		c7.994,5.139,11.931,12.859,11.812,23.16c-0.047,6.638-1.475,12.133-4.282,16.487c-2.926,4.258-7.386,7.625-13.382,10.099
		c-4.259,1.784-8.278,2.569-12.062,2.355c-3.83-0.19-7.673-1.392-11.526-3.604c-8.707-4.877-13.465-11.943-14.273-21.197
		c-0.786-9.278,2.641-17.534,10.276-24.766C171.898,27.974,177.252,25.417,182.985,25.012z M183.128,45.995
		c-0.665-0.404-1.319-0.785-1.962-1.142c-3.449-1.76-6.328-1.76-8.637,0c-0.095,0.048-0.189,0.096-0.285,0.143
		c-0.785,0.666-1.486,1.558-2.105,2.676c-2.188,4.401-1.463,8.708,2.178,12.918c0.809,0.976,1.724,1.892,2.747,2.748
		c2.165,1.808,4.864,3.628,8.101,5.46c12.015-6.709,16.213-13.667,12.597-20.876c-0.88-1.499-1.879-2.605-2.997-3.319
		c-0.071-0.048-0.179-0.071-0.322-0.071c-1.949-1.119-4.329-1.011-7.137,0.321C184.544,45.21,183.818,45.591,183.128,45.995z"/>
	<path fill-rule="evenodd" clip-rule="evenodd" fill="#FFFFFF" d="M100.088,63.338c-1.023-0.856-1.927-1.772-2.712-2.748
		c-3.664-4.21-4.377-8.517-2.141-12.918c0.619-1.118,1.309-2.01,2.07-2.676c0.071-0.047,0.155-0.095,0.25-0.143
		c2.308-1.76,5.222-1.76,8.743,0c0.619,0.357,1.261,0.738,1.927,1.142c0.714-0.404,1.428-0.785,2.141-1.142
		c2.784-1.332,5.174-1.439,7.173-0.321c0.143,0,0.238,0.023,0.285,0.071c1.142,0.714,2.166,1.82,3.069,3.319
		c3.592,7.208-0.607,14.167-12.597,20.876C105.013,66.966,102.277,65.146,100.088,63.338z M183.128,45.995
		c0.69-0.404,1.416-0.785,2.177-1.142c2.808-1.332,5.188-1.439,7.137-0.321c0.144,0,0.251,0.023,0.322,0.071
		c1.118,0.714,2.117,1.82,2.997,3.319c3.616,7.208-0.582,14.167-12.597,20.876c-3.236-1.832-5.936-3.652-8.101-5.46
		c-1.023-0.856-1.938-1.772-2.747-2.748c-3.641-4.21-4.366-8.517-2.178-12.918c0.619-1.118,1.32-2.01,2.105-2.676
		c0.096-0.047,0.19-0.095,0.285-0.143c2.309-1.76,5.188-1.76,8.637,0C181.809,45.21,182.463,45.591,183.128,45.995z"/>
</g>
</svg>
