<?xml version="1.0" encoding="utf-8"?>
<!-- Generator: Adobe Illustrator 16.0.0, SVG Export Plug-In . SVG Version: 6.00 Build 0)  -->
<!DOCTYPE svg PUBLIC "-//W3C//DTD SVG 1.1//EN" "http://www.w3.org/Graphics/SVG/1.1/DTD/svg11.dtd">
<svg version="1.1" id="Layer_1" xmlns="http://www.w3.org/2000/svg" xmlns:xlink="http://www.w3.org/1999/xlink" x="0px" y="0px"
	 width="300px" height="300px" viewBox="0 0 300 300" enable-background="new 0 0 300 300" xml:space="preserve">
<g>
	<path fill-rule="evenodd" clip-rule="evenodd" fill="#322A50" d="M168.71,43.069c1.492,0.97,2.585,2.081,3.275,3.331
		c0.708,1.194,1.482,3.303,2.322,6.326c0.97,3.489,1.717,5.775,2.239,6.857c0.56,1.008,1.286,1.596,2.183,1.763
		c0.746,0.168,1.97,1.111,3.668,2.827c1.734,1.735,2.602,2.901,2.602,3.499c0,0.112,0.252,0.495,0.756,1.147
		c0.579,0.709,1.288,1.427,2.127,2.156c1.68,1.567,3.125,3.517,4.338,5.849c1.251,2.37,2.072,4.74,2.465,7.11
		c0.167,0.839,0.289,2.313,0.362,4.422c0.131,2.164,0.197,4.311,0.197,6.438c0,4.739,0.354,8.377,1.063,10.916
		c0.69,2.593,2.183,5.839,4.478,9.74c2.09,3.452,3.836,6.531,5.234,9.236l1.988,3.975l-1.4,0.42
		c-0.672,0.112-1.045,0.317-1.119,0.615c-0.056,0.225,0.037,0.803,0.28,1.735c0.167,0.598,0.289,1.438,0.363,2.52
		c0.056,1.006,0.019,1.94-0.112,2.798c-0.038,1.12,0,2.1,0.112,2.939c0.093,0.765,0.317,1.53,0.672,2.294
		c0.839,1.605,1.642,3.77,2.407,6.493c0.803,2.651,1.427,5.31,1.875,7.978c0.354,1.884,0.7,3.369,1.035,4.451
		c0.354,0.97,0.793,1.771,1.315,2.406c0.971,1.176,1.455,1.939,1.455,2.295c0,0.149,0.095,0.271,0.28,0.365
		c0.094,0.036,0.262,0.055,0.504,0.055c0.523,0,2.566,0.904,6.13,2.715c4.869,2.52,9.105,5.831,12.706,9.936
		c3.509,4.106,6.466,9.089,8.872,14.946c3.099,7.465,4.181,11.905,3.248,13.322c-0.149,0.28-0.252,0.746-0.308,1.4
		c-0.075,0.599-0.065,1.214,0.027,1.848c0.112,1.082,0.028,1.847-0.253,2.296c-0.278,0.56-1.127,1.52-2.546,2.882l-3.135,2.967
		l27.12,0.251c27.972,0.317,36.015,0.934,24.128,1.85c-4.218,0.315-16.477,0.476-36.778,0.476c-20.207,0-32.093-0.143-35.657-0.421
		c-3.228-0.281-4.795-0.579-4.701-0.896c0.148-0.354,1.855-0.53,5.121-0.53l3.863-0.084v-2.772c0-1.921,0.278-3.18,0.838-3.778
		c0.43-0.373,0.552-0.962,0.365-1.763c-0.095-0.878-0.616-2.826-1.568-5.851c-2.014-6.567-4.328-11.801-6.939-15.7
		c-2.725-3.938-5.963-6.84-9.714-8.705c-1.493-0.709-2.957-1.689-4.394-2.938c-1.456-1.176-3.564-3.21-6.326-6.103
		c-4.459-4.607-7.407-8.098-8.844-10.467c-0.057-0.131-0.121-0.271-0.195-0.421c-1.681-2.93-2.706-4.496-3.079-4.701
		c-0.317-0.28-1.12,0.019-2.407,0.895c-1.251,0.896-3.518,2.38-6.802,4.451l-4.421,2.715l1.93,2.771
		c1.494,2.052,2.818,4.188,3.975,6.409c1.176,2.238,1.902,3.918,2.184,5.037c0.373,1.418,0.317,4.759-0.168,10.02
		c-0.337,4.535-0.354,8.408-0.056,11.616c0.317,3.153,1.091,6.633,2.322,10.439c0.411,1.157,0.757,2.306,1.036,3.443
		c0.28,1.045,0.402,1.642,0.363,1.791c-0.074,0.205,0.169,0.429,0.729,0.671c0.316,0.131,0.671,0.271,1.063,0.421
		c0.244,0.094,0.514,0.196,0.813,0.308l3.778,0.895c0.336,0.132,0.597,0.374,0.783,0.729c0.168,0.392,0.252,0.998,0.252,1.818v2.269
		h4.087c2.817,0.018,5.084,0.205,6.801,0.56l2.604,0.364l-4.086,0.476c-2.576,0.392-12.819,0.587-30.732,0.587
		c-17.856,0-28.11-0.195-30.76-0.587l-4.03-0.476l2.491-0.364c0.783-0.168,1.922-0.29,3.415-0.364
		c1.417-0.111,2.808-0.178,4.17-0.195c3.899-0.037,7.893-0.177,11.979-0.421l6.996-0.335v-1.652c0-1.006-0.382-1.632-1.146-1.873
		c-0.318-0.039-0.598-0.179-0.84-0.421c-0.205-0.262-0.308-0.476-0.308-0.644c0-0.243-2.389-0.431-7.166-0.56
		c-1.324,0-2.948-0.019-4.87-0.058c-2.052-0.037-4.245-0.055-6.577-0.055h-13.435c-0.336-0.037-0.681-0.057-1.036-0.057
		c-22.055,0-33.223-0.121-33.502-0.364c-0.038-0.149-0.093-0.289-0.167-0.42c0-0.167,0.037-0.308,0.111-0.418
		c0.15-0.076,1.53-0.18,4.142-0.309c2.781-0.168,5.952-0.271,9.517-0.31c5.224-0.11,8.742-0.25,10.552-0.417
		c1.736-0.113,2.603-0.347,2.603-0.702c0-0.522,0.345-1.529,1.036-3.022c0.392-0.97,0.765-1.613,1.119-1.931
		c0.336-0.354,0.942-0.615,1.82-0.783c1.362-0.244,3.05-0.728,5.066-1.456l2.827-1.008l4.451-9.124
		c2.146-4.404,4.077-8.938,5.793-13.604c1.773-4.627,2.798-8.088,3.079-10.383c0.13-0.951,0.13-1.634,0-2.043
		c-0.112-0.486-0.411-0.962-0.895-1.428c-0.56-0.485-1.101-0.606-1.624-0.365c-0.41,0.244-1.642,1.382-3.694,3.416
		c-1.195,1.045-2.743,2.399-4.647,4.06c-1.921,1.566-3.685,2.967-5.29,4.196c-3.62,2.576-6.838,4.993-9.656,7.25
		c-1.549,1.212-2.828,2.1-3.835,2.659c-0.933,0.466-2.061,0.802-3.386,1.007c-2.052,0.41-3.965,1.073-5.738,1.989
		c-1.792,0.894-4.795,2.77-9.012,5.624c-2.109,1.474-4.246,3.06-6.41,4.758c-2.202,1.792-4.049,3.471-5.542,5.037
		c-2.165,2.147-3.573,3.603-4.226,4.367c-0.523,0.914-0.784,1.811-0.784,2.688v1.932l4.115,0.084
		c3.694,0.037,5.738,0.214,6.13,0.531c0.41,0.281-1.008,0.56-4.255,0.841c-3.694,0.315-15.851,0.476-36.469,0.476
		c-20.582,0-32.775-0.16-36.582-0.476c-5.392-0.412-5.999-0.794-1.819-1.148c4.236-0.241,13.706-0.468,28.409-0.672
		c18.864-0.242,28.297-0.382,28.297-0.421v-0.055c-0.038-0.691-0.354-2.575-0.951-5.653c-0.672-3.137-1.176-5.149-1.512-6.046
		c-0.709-1.923-1.007-3.387-0.896-4.396c0.075-1.044,0.542-1.761,1.4-2.154c0.598-0.279,0.97-0.587,1.119-0.924
		c0.206-0.392,0.309-1.035,0.309-1.931v-2.212h2.463c1.082,0,1.987-0.177,2.715-0.531c0.69-0.3,1.781-0.988,3.274-2.071
		c4.179-3.284,8.499-6.072,12.959-8.368c4.497-2.295,7.902-3.443,10.216-3.443c1.94,0,3.676-0.577,5.206-1.736
		c1.567-1.211,3.471-3.423,5.71-6.632c0.69-0.896,1.716-2.137,3.079-3.724c1.399-1.529,2.688-2.883,3.862-4.057
		c3.098-3.062,4.944-5.086,5.542-6.074c0.485-0.896,0.541-2.267,0.168-4.114c-0.467-2.239-0.28-4.646,0.56-7.221
		c0.914-2.538,2.398-4.974,4.45-7.306c0.561-0.634,0.999-1.213,1.315-1.735c0.299-0.522,0.43-0.867,0.392-1.036
		c-0.131-0.149-0.075-0.392,0.168-0.728c0.167-0.28,0.466-0.597,0.896-0.951c1.007-0.803,1.875-2.072,2.602-3.806
		c0.038-0.113,0.094-0.206,0.168-0.28c0.616-1.661,0.923-3.275,0.923-4.843v-2.687l-2.966,3.61c-0.878,1.007-1.997,2.164-3.359,3.47
		c-0.13,0.131-0.261,0.28-0.391,0.449c-1.194,1.193-2.276,2.173-3.247,2.938l-3.835,3.247l-2.771-0.952
		c-1.456-0.56-2.688-1.445-3.695-2.659c-0.765-0.876-1.231-1.734-1.399-2.574c-0.112-0.299-0.168-0.607-0.168-0.925
		c0-1.044,0.765-3.853,2.295-8.424c1.399-4.553,2.762-8.453,4.086-11.699c1.101-2.519,1.791-4.403,2.071-5.654
		c0.243-1.176,0.42-2.845,0.532-5.01c0.038-1.325-0.019-2.649-0.168-3.974c-0.056-1.362-0.177-2.286-0.364-2.771
		c-0.28-0.803-0.55-1.325-0.812-1.567c-0.28-0.168-0.802-0.252-1.568-0.252c-1.063,0-2.322-0.522-3.778-1.566
		c-1.53-0.952-2.556-1.979-3.079-3.08c-0.28-0.43-0.476-1.083-0.587-1.959c-0.206-0.821-0.309-1.605-0.309-2.351
		c0-1.064,0.103-1.875,0.309-2.436c0.224-0.56,0.606-1.12,1.147-1.679c0.634-0.634,1.176-1.035,1.624-1.203
		c0.466-0.13,1.186-0.13,2.155,0c0.653,0.112,1.297,0.271,1.931,0.476c0.69,0.28,1.176,0.541,1.456,0.784
		c0.671,0.653,1.166,0.774,1.483,0.364c0.019-0.206,0.205-0.345,0.56-0.42c0.28-0.149,0.578-0.224,0.896-0.224
		c0.317,0,0.578-0.084,0.783-0.252c0.206-0.093,0.308-0.271,0.308-0.532c0-0.205,0.206-0.597,0.616-1.175
		c0.392-0.598,0.886-1.231,1.483-1.903c1.138-1.343,2.911-2.668,5.318-3.975c2.407-1.25,4.553-2.015,6.437-2.295
		c1.381-0.131,2.473,0.009,3.275,0.419c0.876,0.485,2.435,1.81,4.674,3.975c1.288,1.361,2.836,2.229,4.646,2.602
		c1.119,0.225,1.828,0.458,2.127,0.7c0.354,0.28,0.531,0.709,0.531,1.288c0,0.429,0.084,0.886,0.252,1.371
		c0.225,0.485,0.457,0.887,0.699,1.204c0.691,0.728,1.055,1.269,1.093,1.624l0.14,0.98c0.037,0.354,0.299,0.755,0.783,1.203
		c0.878,0.952,1.018,2.034,0.42,3.246c-0.521,1.213-1.586,2.221-3.19,3.023c-2.781,1.474-3.788,3.321-3.023,5.542
		c0.28,0.765,0.579,1.222,0.896,1.371c0.318,0.169,1.045,0.234,2.183,0.197c0.952-0.093,1.707-0.075,2.268,0.055
		c0.559,0.113,1.063,0.393,1.512,0.84l1.203,1.148l1.287-3.387c0.355-0.951,0.868-1.996,1.54-3.134
		c0.766-1.232,1.455-2.23,2.071-2.996c1.437-1.529,2.396-3.014,2.883-4.45c0.522-1.381,0.699-2.995,0.531-4.842l-0.112-2.52
		l-2.519,0.364c-1.138,0.205-1.949,0.187-2.435-0.056c-0.429-0.243-1.223-1.054-2.38-2.435c-0.652-0.84-1.306-1.54-1.959-2.099
		c-0.672-0.56-1.11-0.839-1.315-0.839c-0.672,0-1.288-0.402-1.848-1.204c-0.484-0.69-0.728-1.558-0.728-2.602
		c0-0.598-0.064-1.055-0.195-1.372c-0.168-0.336-0.365-0.495-0.588-0.476c-0.373,0.149-0.783-0.42-1.232-1.708
		c-0.522-1.324-0.783-2.547-0.783-3.666c-0.075-0.56-0.234-1.045-0.476-1.456c-0.355-0.392-0.878-0.792-1.567-1.203
		c-1.399-0.839-2.305-1.959-2.715-3.359c-0.429-1.38-0.345-2.892,0.252-4.534c0.28-0.69,0.605-1.334,0.979-1.931
		c0.392-0.672,0.709-1.129,0.952-1.372c0.69-0.523,0.868-0.523,0.532,0c-0.075,0.186-0.112,0.345-0.112,0.476
		c0,0.168,0.083,0.252,0.252,0.252c0.392,0,0.69-0.187,0.895-0.56c0.317-0.411,1.643-1.25,3.975-2.519
		c2.37-1.288,4.143-2.118,5.318-2.491c1.549-0.466,2.79-0.625,3.722-0.476c2.259,0.354,3.761,0.634,4.507,0.84
		c0.784,0.13,1.046,0.298,0.784,0.503C166.731,41.483,167.218,42.117,168.71,43.069z M149.733,75.088
		c-0.205-0.205-0.849-0.373-1.931-0.504c-1.456-0.261-2.576-0.877-3.359-1.847c-0.765-0.896-1.735-1.726-2.911-2.491
		c-1.213-0.746-1.95-1.343-2.211-1.791c-0.262-0.411-0.644-0.616-1.148-0.616c-0.485,0-1.408,0.261-2.771,0.784
		c-5.505,1.978-8.742,4.469-9.712,7.473c-0.28,0.727-0.579,1.231-0.896,1.512c-0.298,0.316-0.746,0.503-1.343,0.56
		c-0.971,0.186-1.773,0.849-2.407,1.987l-0.896,1.847l-0.616-1.623c-0.672-1.717-1.811-2.762-3.415-3.135
		c-1.53-0.354-2.481,0.234-2.854,1.764c-0.485,1.922-0.065,3.705,1.259,5.346c1.418,1.567,3.191,2.351,5.318,2.351
		c1.773,0.056,3.042,0.244,3.806,0.56c0.766,0.317,1.502,0.177,2.211-0.42c0.448-0.373,0.746-0.56,0.896-0.56
		c0.168,0,0.299,0.206,0.392,0.616c0.149,0.318,0.326,0.513,0.532,0.589c0.316,0.037,0.718-0.038,1.203-0.225
		c0.634-0.243,1.017-0.326,1.147-0.252c0.168,0.075,0.252,0.392,0.252,0.951c0,0.766,0.28,1.055,0.839,0.868
		c0.242-0.093,0.438-0.093,0.587,0c0.243,0.038,0.364,0.14,0.364,0.308c0,0.261,0.178,0.598,0.532,1.008
		c0.374,0.392,0.839,0.737,1.399,1.036c0.802,0.522,1.484,0.877,2.043,1.064c0.597,0.13,1.278,0.13,2.043,0
		c0.858-0.15,1.409-0.15,1.652,0c0.317,0.093,0.569,0.494,0.756,1.203c0.093,0.41,0.102,0.933,0.028,1.567
		c-0.019,0.653-0.149,1.204-0.392,1.651c-0.429,1.158-0.448,1.932-0.056,2.323c0.13,0.167,0.876,0.41,2.239,0.728
		c1.288,0.374,2.789,0.755,4.506,1.147l7.361,1.624c0.766,0.205,1.371-0.112,1.819-0.952c0.43-0.876,0.43-1.725,0-2.546
		c-0.485-0.84-1.026-1.354-1.623-1.54c-0.56-0.242-1.643-0.29-3.247-0.14l-2.911,0.419l-0.616-2.155
		c-0.671-2.501-0.783-4.469-0.335-5.906c0.466-1.456,1.633-2.846,3.499-4.17l3.051-2.043c0.13-0.113-0.225-0.672-1.064-1.68
		c-0.765-1.045-1.146-1.828-1.146-2.351c0-0.242-0.104-0.448-0.309-0.616c-0.168-0.243-0.354-0.42-0.56-0.531
		c-0.597-0.243-0.858-0.85-0.783-1.82C150.051,75.787,149.976,75.331,149.733,75.088z M167.03,44.944
		c-0.97-0.448-2.173-0.709-3.61-0.783c-1.382,0-2.491,0.205-3.33,0.616c-0.522,0.242-0.84,0.364-0.953,0.364
		c-0.074-0.038-0.037-0.261,0.113-0.672c0.073-0.205,0.11-0.411,0.11-0.616c0-0.149-0.037-0.224-0.11-0.224
		c-0.355,0-1.278,0.579-2.771,1.735c-1.529,1.176-2.436,1.979-2.715,2.408c-0.317,0.447-0.476,0.289-0.476-0.476v-1.147
		l-2.547,3.443c-0.466,0.56-0.727,0.802-0.783,0.728c-0.075-0.037-0.047-0.42,0.084-1.147c0.037-0.411,0.037-0.737,0-0.979
		c-0.057-0.28-0.123-0.373-0.196-0.28c-0.206,0.074-0.402,0.354-0.588,0.839c-0.094,0.522-0.214,1.101-0.364,1.735
		c-0.243,1.493-0.57,2.119-0.979,1.875c-0.43-0.206-0.309,0.056,0.364,0.784c0.335,0.355,0.737,0.682,1.204,0.979
		c0.448,0.28,0.867,0.476,1.259,0.588c0.616,0.167,1.027,0.448,1.232,0.839c0.148,0.318,0.223,1.083,0.223,2.296
		c0,1.455,0.104,2.435,0.309,2.939c0.205,0.541,0.766,1.063,1.68,1.567c0.448,0.243,0.729,0.569,0.84,0.979
		c0.168,0.392,0.233,0.952,0.195,1.68c-0.074,0.933-0.018,1.521,0.168,1.764c0.131,0.242,0.598,0.438,1.4,0.587
		c0.447,0.074,0.848,0.234,1.203,0.476c0.316,0.243,0.475,0.466,0.475,0.672c0,0.205,0.178,0.504,0.533,0.896
		c0.262,0.317,0.625,0.56,1.092,0.728c0.447,0.205,0.811,0.514,1.091,0.924c0.392,0.392,0.598,0.793,0.615,1.203
		c0.113,0.56,0.252,0.877,0.421,0.952c0.242,0.167,0.699,0.149,1.372-0.056c1.398-0.354,2.63-0.923,3.693-1.708
		c1.083-0.876,1.764-1.8,2.044-2.771l0.419-1.903l0.896,3.247l2.043-0.896c1.492-0.578,2.584-1.222,3.274-1.931h0.056
		c1.437-1.605,1.801-2.436,1.092-2.491c-0.653-0.076-1.344-0.793-2.071-2.155c-0.71-1.288-1.651-3.863-2.827-7.725
		c-1.007-3.527-1.828-5.878-2.463-7.053C169.093,46.502,168.188,45.56,167.03,44.944z M123.647,116.596
		c0.225-2.239,0.523-4.59,0.896-7.054c0.354-2.556,0.671-4.263,0.951-5.122c0.243-0.802,0.009-1.138-0.7-1.008
		c-0.652,0.188-1.203,0.71-1.651,1.568c-0.877,1.716-2.08,4.571-3.61,8.565c-1.53,4.048-2.668,7.323-3.415,9.823l-1.399,5.458
		l1.512,1.624c0.447,0.485,0.933,0.876,1.456,1.175c0.597,0.355,1.035,0.532,1.315,0.532c0.728,0,2.174-0.942,4.338-2.826
		c0.429-0.374,0.886-0.775,1.372-1.205c2.93-2.706,5.523-5.542,7.781-8.508l3.863-4.954l0.419,4.534
		c0.075,1.287,0.112,2.667,0.112,4.143c-0.038,1.455-0.13,2.602-0.28,3.441c-0.131,0.84-0.317,1.689-0.56,2.548
		c-0.28,0.746-0.598,1.51-0.952,2.294c-0.728,1.754-1.372,2.79-1.932,3.107c-0.167,0.093-0.251,0.242-0.251,0.447
		c-0.075,0.224-0.056,0.401,0.056,0.532c0.056,0.168,1.605,1.615,4.646,4.338c0.373,0.112,0.914,0.336,1.624,0.672
		c2.649,1.287,5.243,2.005,7.78,2.155c2.501,0.168,4.525-0.233,6.075-1.204c0.522-0.318,0.849-0.699,0.979-1.147
		c0.074-0.318,0.074-0.961,0-1.931c-0.112-0.709-0.075-1.736,0.111-3.08c0.131-1.399,0.392-2.845,0.784-4.338
		c0.13-0.672,0.271-1.287,0.419-1.847c0.561-2.538,0.84-4.153,0.84-4.843c0-1.083,0.673-2.202,2.016-3.358
		c1.362-1.213,2.043-1.96,2.043-2.24c0-0.149-0.401-0.289-1.203-0.419c-0.802-0.113-1.67-0.168-2.604-0.168
		c-1.735,0-3.023-0.103-3.862-0.308c-0.877-0.28-2.239-0.961-4.086-2.044c-2.893-1.66-6.307-3.872-10.244-6.633
		c-4.105-2.817-6.372-4.226-6.801-4.226c-0.131,0-0.354,0.382-0.672,1.148c-0.41,0.727-0.793,1.632-1.147,2.715
		c-0.765,2.407-1.465,4.235-2.1,5.485c-0.541,1.231-1.409,2.612-2.602,4.143l-1.736,2.295L123.647,116.596z M124.795,90.762
		c-0.41-0.168-0.354,0.028,0.169,0.587c0.242,0.318,0.344,0.598,0.307,0.84c0,0.28-0.158,0.625-0.476,1.036
		c-0.13,0.354-0.28,0.932-0.447,1.734c-0.112,0.84-0.168,1.624-0.168,2.352l0.112,2.91l3.387,0.644
		c2.127,0.336,3.833,0.858,5.122,1.567c1.212,0.653,4.384,2.762,9.516,6.326c4.908,3.376,8.061,5.41,9.46,6.101
		c1.399,0.802,2.706,1.203,3.919,1.203c1.604,0,2.574-0.243,2.91-0.728c0.354-0.448,0.326-1.474-0.084-3.079
		c-0.709-2.761-1.81-4.665-3.303-5.71c-1.529-1.045-4.86-2.155-9.992-3.331c-4.198-1.007-7.156-1.894-8.872-2.659
		c-1.735-0.803-2.725-1.727-2.967-2.771c-0.318-1.959-0.672-3.163-1.064-3.611c-0.317-0.484-0.961-0.765-1.932-0.84
		c-0.56-0.074-1.185-0.233-1.875-0.475c-0.653-0.317-1.231-0.616-1.735-0.896C125.925,91.313,125.262,90.911,124.795,90.762z
		 M182.816,123.648l-11.868,11.924c-4.459,5.037-7.612,8.834-9.46,11.391l-2.967,3.862l4.059,4.06
		c2.238,2.332,3.9,4.133,4.981,5.401l1.036,1.286l5.43-3.385c3.527-2.258,5.897-3.881,7.109-4.871l1.68-1.344l-1.875-3.723
		c-1.231-2.462-2.333-4.338-3.303-5.625c-0.616-0.84-0.943-1.353-0.98-1.54c-0.074-0.168,0.132-0.111,0.615,0.168
		c1.288,0.69,2.818,2.173,4.591,4.449c1.792,2.257,3.014,4.31,3.666,6.16c0.449,1.155,0.915,2.257,1.4,3.301
		c0.877,1.811,1.857,3.499,2.938,5.065c1.717,2.407,4.282,5.385,7.698,8.93c4.459,4.571,7.733,7.398,9.823,8.479
		c2.146,1.045,4.002,2.229,5.569,3.555c1.568,1.325,3.032,2.893,4.395,4.703c1.531,1.866,3.098,4.58,4.702,8.144
		c1.754,3.584,3.032,6.839,3.835,9.77c0.653,2.611,1.203,4.263,1.651,4.953c0.429,0.709,1.025,1.063,1.79,1.063
		c1.624,0,1.325,1.081-0.896,3.246c-1.361,1.214-2.043,2.305-2.043,3.274c0,0.673,0.141,1.093,0.42,1.261
		c0.28,0.242,0.997,0.437,2.156,0.589c2.425,0.37,4.701,0.121,6.829-0.757c2.089-0.822,4.198-2.352,6.324-4.591
		c0.673-0.69,1.073-1.278,1.204-1.764c0.205-0.428,0.224-0.941,0.055-1.539c-0.129-0.447-0.146-0.97-0.055-1.566
		c0.037-0.69,0.14-1.297,0.308-1.82c0.281-0.765,0.336-1.613,0.168-2.546c-0.168-0.988-0.746-2.93-1.734-5.821
		c-1.568-4.237-3.321-7.94-5.263-11.112c-1.921-3.171-4.189-6.018-6.801-8.537c-2.09-1.979-4.563-3.853-7.418-5.626
		c-2.78-1.753-5.392-3.032-7.836-3.834c-1.083-0.373-1.82-0.718-2.212-1.035c-0.336-0.354-0.578-0.841-0.729-1.456
		c-0.13-0.485-0.315-0.943-0.56-1.372c-0.278-0.372-0.578-0.596-0.896-0.672c-0.447-0.149-0.765-0.567-0.951-1.259
		c-0.279-0.651-0.541-1.941-0.784-3.863c-0.521-3.134-1.185-6.25-1.986-9.347c-0.822-3.21-1.634-5.599-2.436-7.166
		c-0.597-1.158-0.914-2.025-0.951-2.603c-0.112-0.598-0.037-1.456,0.224-2.575c0.41-1.697,0.373-3.386-0.11-5.066
		c-0.281-1.082-0.523-1.727-0.729-1.931c-0.317-0.355-0.774-0.532-1.372-0.532c-0.41,0-1.277-0.223-2.604-0.671
		c-1.398-0.448-2.826-1.008-4.281-1.679c-1.475-0.616-3.032-1.204-4.675-1.763c-1.661-0.671-2.911-1.092-3.751-1.259
		L182.816,123.648l3.331-0.056c1.155,0,2.359,0.159,3.61,0.476c1.287,0.28,2.91,0.766,4.869,1.456
		c1.438,0.56,2.827,1.026,4.17,1.399c1.364,0.429,2.286,0.644,2.771,0.644c1.567,0,2.323-0.382,2.269-1.147
		c-0.075-0.728-1.121-2.659-3.136-5.793c-3.525-5.542-5.812-9.898-6.857-13.07c-0.915-3.173-1.38-7.67-1.399-13.491
		c0-6.438-0.521-11.14-1.567-14.107c-0.989-2.892-3.087-5.822-6.298-8.789c-2.22-1.978-3.33-3.107-3.33-3.387
		c0-0.634-0.486-1.371-1.455-2.211c-0.672-0.541-1.409-0.346-2.211,0.588c-0.523,0.485-1.046,1.128-1.568,1.931
		c-0.317,0.485-0.839,1.083-1.567,1.792c-0.727,0.616-1.473,1.138-2.239,1.567c-1.68,0.97-2.724,1.679-3.134,2.127
		c-0.449,0.598-0.569,1.362-0.364,2.296l0.307,1.567l3.304-1.679c1.979-0.933,2.985-1.259,3.023-0.979
		c0.038,0.392-0.888,1.194-2.771,2.407c-1.642,1.008-2.864,2.276-3.666,3.807c-0.804,1.567-1.223,3.471-1.26,5.709
		c0,1.326-0.047,2.109-0.141,2.351c-0.111,0.243-0.271,0.084-0.476-0.476c-0.447-0.876-0.849-1.278-1.203-1.204
		c-0.318,0.113-0.887,0.812-1.708,2.1c-1.025,1.417-1.828,2.864-2.407,4.338c-0.596,1.493-1.155,3.34-1.679,5.542l-0.783,3.638
		l4.478,6.186c0.43,0.616,0.729,0.961,0.896,1.036c0.149,0.038,0.308-0.186,0.476-0.672c0.168-0.391,0.13-0.793-0.112-1.204
		c-0.206-0.522-0.653-1.119-1.344-1.791c-1.23-1.25-1.65-1.913-1.259-1.987c0.279-0.037,1.204,0.523,2.771,1.68l2.406,1.79
		l5.487-5.821c3.656-3.863,6.354-6.942,8.088-9.236c1.605-2.053,2.445-2.995,2.52-2.827c0.131,0.13-0.485,1.372-1.848,3.722
		c-1.046,1.624-1.576,2.576-1.596,2.856c-0.037,0.242,0.308,0.242,1.036,0c0.97-0.169,1.408-0.169,1.315,0
		c-0.112,0.28-0.794,0.821-2.044,1.623c-0.634,0.392-1.631,1.176-2.995,2.351c-1.323,1.287-2.63,2.612-3.917,3.974l-4.702,4.955
		l0.279,2.771c0.281,1.922,0.56,3.704,0.841,5.346c0.129,0.765,0.231,1.931,0.308,3.499c0.055,1.679,0.074,3.265,0.055,4.758
		c0,1.213,0.029,2.323,0.084,3.332c0,0.223,0,0.438,0,0.643c0.113,1.101,0.233,1.651,0.364,1.651
		c0.354-0.055,1.558-0.662,3.61-1.819L182.816,123.648z M72.289,195.86c-0.877,0.148-1.399,0.308-1.567,0.474
		c-0.168,0.244-0.224,0.73-0.168,1.458c0.112,0.67,0.084,1.175-0.084,1.511c-0.186,0.261-0.625,0.513-1.315,0.755
		c-0.915,0.244-1.399,0.673-1.456,1.287c-0.074,0.561,0.251,1.866,0.979,3.919c0.28,0.84,0.56,1.886,0.839,3.136
		c0.28,1.268,0.476,2.368,0.589,3.302l0.447,3.332l3.611-0.029c1.604-0.074,2.462-0.196,2.574-0.362c0-0.15-0.773-0.468-2.323-0.953
		c-0.41-0.148-0.616-0.429-0.616-0.84c0-0.372,0.14-1.298,0.42-2.77l0.784-3.752c0.037-0.149,0.402,0.336,1.091,1.456
		c1.045,1.566,1.931,2.249,2.659,2.043c0.783-0.186,2.389-1.474,4.814-3.862c4.086-4.012,8.966-7.864,14.638-11.559
		c5.748-3.695,9.927-5.738,12.539-6.13c1.288-0.132,2.669-0.654,4.143-1.567c1.381-0.821,4.273-2.921,8.677-6.298
		c5.001-3.807,9.087-7.137,12.259-9.992c3.285-2.817,4.926-4.581,4.926-5.291c0-0.204-0.14-0.392-0.419-0.559
		c-0.206-0.15-0.429-0.225-0.671-0.225c-1.046,0-2.725-0.661-5.038-1.986c-2.389-1.345-3.957-2.51-4.703-3.499
		c-1.063-1.362-1.688-3.228-1.875-5.598c-0.167-2.333,0.149-4.283,0.952-5.85l1.092-2.238l-0.252,3.301
		c-0.485,6.345,2.575,10.608,9.181,12.791c1.847,0.597,3.909,2.044,6.186,4.339c1.604,1.568,4.04,3.489,7.305,5.766
		c3.303,2.333,6.297,4.208,8.984,5.625c1.195,0.636,1.913,1.138,2.155,1.514c0.243,0.429,0.401,1.444,0.476,3.05
		c0.02,0.82,0.104,1.604,0.252,2.351c0.132,0.765,0.271,1.251,0.421,1.456c0.204,0.243,0.271,0.625,0.195,1.147
		c-0.056,0.522-0.299,1.306-0.729,2.352c-0.876,1.977-1.416,3.965-1.622,5.962c-0.131,1.977-0.075,5.699,0.168,11.166
		c0.242,4.982,0.418,7.912,0.531,8.789c0.168,0.951,0.578,1.492,1.231,1.623c0.074,0,0.168,0.02,0.28,0.057
		c0.448,0.131,0.69,0.288,0.728,0.476c0.094,0.204,0,0.606-0.279,1.203c-0.337,0.858-0.504,1.445-0.504,1.763
		c0,0.449,0.325,0.783,0.979,1.01c1.008,0.278,4.339,0.417,9.992,0.417c5.225,0,8.444-0.139,9.656-0.417
		c1.231-0.281,0.645-0.757-1.763-1.429c-1.083-0.28-2.464-0.784-4.143-1.512c-1.567-0.634-2.575-1.139-3.023-1.511
		c-0.074-0.037-0.13-0.074-0.167-0.113c-0.131-0.092,0.186-0.419,0.95-0.979l1.261-0.896l-1.428-4.59
		c-1.063-3.845-1.754-7.334-2.071-10.47c-0.242-3.134-0.195-6.855,0.141-11.167c0.466-4.701,0.484-7.891,0.056-9.572
		c-0.336-1.604-1.744-4.375-4.227-8.312c-2.444-3.863-5.234-7.642-8.368-11.337c-3.173-3.693-5.729-6.186-7.669-7.472
		c-0.522-0.355-0.942-0.792-1.26-1.315c-0.392-0.523-0.634-1.064-0.728-1.624c-0.318-1.902-0.653-2.995-1.008-3.274
		c-0.299-0.355-1.148-0.533-2.548-0.533c-1.641-0.037-3.47-0.381-5.485-1.035c-2.053-0.634-3.797-1.437-5.234-2.406
		c-0.933-0.673-1.493-1.111-1.68-1.316c-3.694-1.288-5.887-1.567-6.577-0.84c-2.445,2.519-4.012,4.87-4.702,7.053
		c-0.634,2.128-0.56,4.778,0.224,7.95c0.578,2.611,0.868,4.524,0.868,5.738l-0.056,1.789l-1.763-3.245l-4.338,4.226
		c-1.157,1.158-2.519,2.594-4.086,4.311c-1.493,1.773-2.705,3.283-3.639,4.534c-4.535,5.952-7.408,8.929-8.621,8.929
		c-0.28,0-0.56,0.037-0.84,0.111c-0.223,0.112-0.382,0.251-0.476,0.42c-0.075,0.112-0.495,0.252-1.259,0.42
		c-0.728,0.132-1.577,0.233-2.547,0.308c-2.37,0.244-5.356,1.222-8.957,2.94c-3.508,1.734-7.025,3.963-10.552,6.688
		c-1.568,1.177-3.07,2.184-4.507,3.024C73.855,195.28,72.886,195.767,72.289,195.86z M124.544,210.75
		c-0.654,0.28-1.055,0.578-1.204,0.896c-0.373,0.673,0.373,1.129,2.239,1.371c1.922,0.169,6.232,0.253,12.931,0.253h11.448
		l-0.336-2.52c-0.242-1.288-0.288-2.071-0.139-2.351c0.093-0.17,0.513-0.252,1.259-0.252c0.654,0,1.064-0.196,1.232-0.588
		c0.148-0.261,0.223-1.13,0.223-2.604c0-1.156,0.169-2.39,0.505-3.695c0.28-1.306,0.774-2.909,1.483-4.813
		c1.735-4.291,3.004-8.425,3.807-12.398c0.84-3.938,0.857-5.906,0.056-5.906c-0.279,0-1.987-1.025-5.122-3.08l-4.758-3.077
		l-0.616,2.351c-0.766,3.023-1.95,6.662-3.554,10.917c-1.643,4.328-3.284,8.162-4.926,11.502c-1.399,2.93-2.286,4.897-2.659,5.907
		c-0.392,1.082-0.41,1.668-0.056,1.762c0.56,0.224,0.84,0.505,0.84,0.84c0,0.28-1.344,1.037-4.031,2.267
		c-2.705,1.214-4.842,2.008-6.409,2.379C125.915,210.097,125.178,210.376,124.544,210.75z M159.67,107.75
		c-0.766-1.771-1.24-2.658-1.428-2.658c-0.336,0-0.42,0.261-0.252,0.783c0.168,0.56,0.625,1.54,1.37,2.939
		c0.859,1.699,1.327,2.407,1.4,2.127C160.836,110.662,160.472,109.598,159.67,107.75z M166.051,113.657
		c-0.317-0.336-0.699-0.243-1.147,0.28c-0.43,0.616-0.821,1.568-1.176,2.855c-0.261,1.007-0.326,1.651-0.195,1.931
		c0.13,0.317,0.671,0.812,1.623,1.483c0.597,0.28,1.102,0.504,1.513,0.672c0.409,0.205,0.671,0.289,0.783,0.252
		c0.13-0.168,0.008-1.391-0.364-3.667C166.694,115.243,166.351,113.974,166.051,113.657z M137.195,94.736
		c-0.766,0-1.148,0.382-1.148,1.147c0,0.281,0.047,0.561,0.14,0.841c0.075,0.205,0.168,0.307,0.28,0.307
		c0.336,0,0.718-0.243,1.147-0.728c0.522-0.448,0.784-0.831,0.784-1.148c0-0.092-0.14-0.196-0.42-0.307
		C137.773,94.773,137.512,94.736,137.195,94.736z M148.166,121.802c1.717,0,2.36,0.196,1.931,0.587
		c-0.56,0.485-1.548,0.802-2.966,0.952c-1.474,0.13-2.677,0.009-3.61-0.365c-0.802-0.316-1.567-1.091-2.295-2.322
		c-0.727-1.139-1.091-2.202-1.091-3.191c0-0.69,0.411-0.391,1.231,0.896c0.877,1.25,1.801,2.137,2.771,2.659
		C145.143,121.54,146.487,121.802,148.166,121.802z M160.985,184.328c-0.112,0.095-0.253,0.738-0.42,1.932
		c-0.149,0.69-0.485,1.902-1.008,3.639c-0.56,1.642-1.167,3.304-1.819,4.982c-0.951,2.406-1.577,4.356-1.875,5.85
		c-0.318,1.419-0.532,3.161-0.645,5.233c-0.13,2.184-0.27,3.574-0.42,4.17c-0.167,0.597-0.494,0.896-0.979,0.896
		c-0.393,0-0.691,0.084-0.896,0.251c-0.111,0.28-0.168,0.737-0.168,1.371c0,0.935,0.318,1.559,0.952,1.876
		c0.69,0.336,2.015,0.505,3.974,0.505c1.455,0,2.324-0.384,2.604-1.148c0.242-0.691,0.196-2.539-0.14-5.542
		c-0.393-3.676-0.551-7.137-0.476-10.385c0.129-3.208,0.513-5.802,1.147-7.78c0.765-2.518,0.951-4.226,0.56-5.122
		C161.209,184.384,161.079,184.142,160.985,184.328z M166.051,123.844c-0.71-0.317-1.343-0.643-1.902-0.979
		c-0.579-0.392-0.962-0.69-1.148-0.895c-0.41-0.523-0.812-0.747-1.204-0.672c-0.278,0.038-0.764,0.458-1.455,1.26
		c-0.877,0.933-1.661,3.191-2.351,6.774c-0.131,0.67-0.252,1.408-0.363,2.21c-0.877,4.908-0.999,7.94-0.364,9.096
		c0.279,0.561,0.364,0.961,0.251,1.205c-0.168,0.28-0.596,0.606-1.287,0.979c-0.672,0.355-1.129,0.673-1.371,0.952
		c-0.205,0.281-0.242,0.588-0.112,0.923c0.243,0.672,0.476,1.531,0.7,2.577c0.205,1.007,0.467,1.511,0.783,1.511
		c0.056,0,0.327-0.244,0.813-0.728c0.429-0.56,0.923-1.203,1.482-1.931c1.176-1.718,2.949-3.929,5.318-6.634
		c0.915-1.082,1.66-2.061,2.239-2.939c0.634-0.839,0.896-1.324,0.784-1.455c-0.095-0.149-0.104-0.392-0.028-0.728
		c0.018-0.429,0.083-0.83,0.195-1.204c0.28-0.746,0.542-2.024,0.784-3.833c0.037-0.299,0.074-0.607,0.112-0.925l0.476-3.499
		L166.051,123.844z"/>
	<path fill-rule="evenodd" clip-rule="evenodd" fill="#F1F1EA" d="M167.03,44.944c1.157,0.616,2.063,1.559,2.715,2.827
		c0.635,1.175,1.456,3.526,2.463,7.053c1.176,3.862,2.117,6.438,2.827,7.725c0.728,1.362,1.418,2.08,2.071,2.155
		c0.709,0.055,0.345,0.886-1.092,2.491h-0.056c-0.69,0.709-1.782,1.353-3.274,1.931l-2.043,0.896l-0.896-3.247l-0.419,1.903
		c-0.28,0.97-0.961,1.894-2.044,2.771c-1.063,0.784-2.295,1.353-3.693,1.708c-0.673,0.205-1.13,0.224-1.372,0.056
		c-0.169-0.075-0.308-0.392-0.421-0.952c-0.018-0.41-0.224-0.812-0.615-1.203c-0.28-0.41-0.644-0.719-1.091-0.924
		c-0.467-0.168-0.83-0.41-1.092-0.728c-0.355-0.392-0.533-0.69-0.533-0.896c0-0.206-0.158-0.429-0.475-0.672
		c-0.355-0.242-0.756-0.401-1.203-0.476c-0.803-0.149-1.27-0.346-1.4-0.587c-0.186-0.243-0.242-0.831-0.168-1.764
		c0.038-0.728-0.027-1.288-0.195-1.68c-0.111-0.411-0.392-0.737-0.84-0.979c-0.914-0.503-1.475-1.026-1.68-1.567
		c-0.205-0.504-0.309-1.484-0.309-2.939c0-1.213-0.074-1.978-0.223-2.296c-0.205-0.391-0.616-0.672-1.232-0.839
		c-0.392-0.113-0.811-0.309-1.259-0.588c-0.467-0.298-0.868-0.625-1.204-0.979c-0.672-0.728-0.793-0.989-0.364-0.784
		c0.41,0.243,0.736-0.382,0.979-1.875c0.149-0.634,0.27-1.212,0.364-1.735c0.186-0.485,0.382-0.765,0.588-0.839
		c0.074-0.093,0.139,0,0.196,0.28c0.037,0.242,0.037,0.569,0,0.979c-0.131,0.728-0.159,1.11-0.084,1.147
		c0.056,0.075,0.317-0.168,0.783-0.728l2.547-3.443v1.147c0,0.765,0.158,0.923,0.476,0.476c0.279-0.429,1.186-1.231,2.715-2.408
		c1.493-1.156,2.416-1.735,2.771-1.735c0.073,0,0.11,0.075,0.11,0.224c0,0.205-0.037,0.411-0.11,0.616
		c-0.15,0.411-0.188,0.634-0.113,0.672c0.113,0,0.431-0.122,0.953-0.364c0.839-0.411,1.948-0.616,3.33-0.616
		C164.857,44.235,166.061,44.496,167.03,44.944z M149.733,75.088c0.242,0.243,0.317,0.699,0.224,1.372
		c-0.075,0.97,0.187,1.577,0.783,1.82c0.206,0.111,0.392,0.289,0.56,0.531c0.205,0.168,0.309,0.374,0.309,0.616
		c0,0.523,0.382,1.306,1.146,2.351c0.84,1.007,1.194,1.567,1.064,1.68l-3.051,2.043c-1.866,1.325-3.032,2.714-3.499,4.17
		c-0.448,1.437-0.336,3.404,0.335,5.906l0.616,2.155l2.911-0.419c1.604-0.15,2.688-0.103,3.247,0.14
		c0.597,0.186,1.138,0.7,1.623,1.54c0.43,0.821,0.43,1.67,0,2.546c-0.448,0.84-1.054,1.157-1.819,0.952l-7.361-1.624
		c-1.717-0.392-3.219-0.774-4.506-1.147c-1.362-0.317-2.109-0.56-2.239-0.728c-0.392-0.392-0.374-1.166,0.056-2.323
		c0.243-0.448,0.374-0.999,0.392-1.651c0.074-0.634,0.065-1.157-0.028-1.567c-0.187-0.709-0.438-1.11-0.756-1.203
		c-0.243-0.15-0.793-0.15-1.652,0c-0.765,0.13-1.446,0.13-2.043,0c-0.56-0.187-1.241-0.542-2.043-1.064
		c-0.56-0.298-1.025-0.644-1.399-1.036c-0.354-0.41-0.532-0.747-0.532-1.008c0-0.168-0.121-0.27-0.364-0.308
		c-0.149-0.093-0.345-0.093-0.587,0c-0.56,0.187-0.839-0.103-0.839-0.868c0-0.56-0.084-0.876-0.252-0.951
		c-0.131-0.074-0.513,0.009-1.147,0.252c-0.485,0.187-0.887,0.261-1.203,0.225c-0.206-0.076-0.383-0.271-0.532-0.589
		c-0.093-0.41-0.224-0.616-0.392-0.616c-0.149,0-0.448,0.187-0.896,0.56c-0.709,0.597-1.445,0.737-2.211,0.42
		c-0.765-0.316-2.033-0.504-3.806-0.56c-2.127,0-3.9-0.784-5.318-2.351c-1.325-1.641-1.745-3.424-1.259-5.346
		c0.373-1.53,1.325-2.118,2.854-1.764c1.604,0.374,2.743,1.418,3.415,3.135l0.616,1.623l0.896-1.847
		c0.634-1.138,1.436-1.801,2.407-1.987c0.597-0.056,1.044-0.243,1.343-0.56c0.318-0.28,0.617-0.785,0.896-1.512
		c0.97-3.004,4.207-5.495,9.712-7.473c1.362-0.522,2.286-0.784,2.771-0.784c0.504,0,0.886,0.205,1.148,0.616
		c0.261,0.448,0.998,1.045,2.211,1.791c1.175,0.766,2.146,1.596,2.911,2.491c0.783,0.97,1.903,1.586,3.359,1.847
		C148.884,74.715,149.528,74.883,149.733,75.088z M182.816,123.648l3.134,0.784c0.84,0.167,2.09,0.588,3.751,1.259
		c1.643,0.56,3.2,1.147,4.675,1.763c1.455,0.671,2.883,1.231,4.281,1.679c1.326,0.448,2.193,0.671,2.604,0.671
		c0.598,0,1.055,0.177,1.372,0.532c0.205,0.205,0.447,0.85,0.729,1.931c0.483,1.68,0.521,3.369,0.11,5.066
		c-0.261,1.12-0.336,1.978-0.224,2.575c0.037,0.578,0.354,1.445,0.951,2.603c0.802,1.566,1.613,3.956,2.436,7.166
		c0.802,3.097,1.465,6.213,1.986,9.347c0.243,1.922,0.505,3.212,0.784,3.863c0.187,0.691,0.504,1.109,0.951,1.259
		c0.317,0.076,0.617,0.3,0.896,0.672c0.244,0.429,0.43,0.887,0.56,1.372c0.15,0.615,0.393,1.102,0.729,1.456
		c0.392,0.317,1.129,0.662,2.212,1.035c2.444,0.802,5.056,2.081,7.836,3.834c2.855,1.773,5.328,3.647,7.418,5.626
		c2.611,2.52,4.88,5.366,6.801,8.537c1.941,3.172,3.694,6.875,5.263,11.112c0.988,2.892,1.566,4.833,1.734,5.821
		c0.168,0.933,0.113,1.781-0.168,2.546c-0.168,0.523-0.271,1.13-0.308,1.82c-0.092,0.597-0.074,1.119,0.055,1.566
		c0.169,0.598,0.15,1.111-0.055,1.539c-0.131,0.485-0.531,1.073-1.204,1.764c-2.126,2.239-4.235,3.769-6.324,4.591
		c-2.128,0.878-4.404,1.127-6.829,0.757c-1.159-0.152-1.876-0.347-2.156-0.589c-0.279-0.168-0.42-0.588-0.42-1.261
		c0-0.97,0.682-2.061,2.043-3.274c2.221-2.165,2.52-3.246,0.896-3.246c-0.765,0-1.361-0.354-1.79-1.063
		c-0.448-0.69-0.998-2.342-1.651-4.953c-0.803-2.931-2.081-6.186-3.835-9.77c-1.604-3.563-3.171-6.277-4.702-8.144
		c-1.362-1.811-2.826-3.378-4.395-4.703c-1.567-1.325-3.424-2.51-5.569-3.555c-2.09-1.081-5.364-3.908-9.823-8.479
		c-3.416-3.545-5.981-6.522-7.698-8.93c-1.081-1.566-2.062-3.255-2.938-5.065c-0.485-1.044-0.951-2.146-1.4-3.301
		c-0.652-1.85-1.874-3.902-3.666-6.16c-1.772-2.276-3.303-3.759-4.591-4.449c-0.483-0.28-0.689-0.336-0.615-0.168
		c0.037,0.187,0.364,0.699,0.98,1.54c0.97,1.287,2.071,3.162,3.303,5.625l1.875,3.723l-1.68,1.344
		c-1.212,0.99-3.582,2.613-7.109,4.871l-5.43,3.385l-1.036-1.286c-1.081-1.269-2.743-3.069-4.981-5.401l-4.059-4.06l2.967-3.862
		c1.848-2.557,5.001-6.354,9.46-11.391L182.816,123.648z M124.795,90.762c0.467,0.149,1.13,0.551,1.988,1.204
		c0.504,0.28,1.082,0.579,1.735,0.896c0.69,0.242,1.315,0.401,1.875,0.475c0.971,0.075,1.615,0.356,1.932,0.84
		c0.392,0.449,0.746,1.652,1.064,3.611c0.242,1.044,1.232,1.968,2.967,2.771c1.716,0.765,4.673,1.651,8.872,2.659
		c5.132,1.175,8.463,2.286,9.992,3.331c1.493,1.045,2.594,2.949,3.303,5.71c0.41,1.605,0.438,2.631,0.084,3.079
		c-0.336,0.485-1.306,0.728-2.91,0.728c-1.213,0-2.52-0.401-3.919-1.203c-1.399-0.691-4.552-2.725-9.46-6.101
		c-5.131-3.564-8.303-5.673-9.516-6.326c-1.289-0.709-2.995-1.231-5.122-1.567l-3.387-0.644l-0.112-2.91
		c0-0.728,0.056-1.512,0.168-2.352c0.167-0.802,0.317-1.381,0.447-1.734c0.318-0.411,0.476-0.756,0.476-1.036
		c0.037-0.242-0.065-0.522-0.307-0.84C124.441,90.79,124.385,90.594,124.795,90.762z M123.647,116.596l-0.419,4.282l1.736-2.295
		c1.193-1.53,2.061-2.911,2.602-4.143c0.635-1.25,1.335-3.078,2.1-5.485c0.354-1.083,0.737-1.988,1.147-2.715
		c0.317-0.766,0.541-1.148,0.672-1.148c0.429,0,2.696,1.409,6.801,4.226c3.937,2.761,7.351,4.973,10.244,6.633
		c1.848,1.083,3.209,1.764,4.086,2.044c0.839,0.205,2.127,0.308,3.862,0.308c0.934,0,1.802,0.056,2.604,0.168
		c0.802,0.13,1.203,0.27,1.203,0.419c0,0.28-0.681,1.026-2.043,2.24c-1.343,1.156-2.016,2.276-2.016,3.358
		c0,0.69-0.279,2.305-0.84,4.843c-0.148,0.56-0.289,1.174-0.419,1.847c-0.393,1.493-0.653,2.939-0.784,4.338
		c-0.187,1.344-0.224,2.37-0.111,3.08c0.074,0.97,0.074,1.613,0,1.931c-0.131,0.448-0.457,0.829-0.979,1.147
		c-1.55,0.971-3.574,1.372-6.075,1.204c-2.537-0.149-5.131-0.868-7.78-2.155c-0.709-0.336-1.25-0.56-1.624-0.672
		c-3.041-2.724-4.59-4.17-4.646-4.338c-0.112-0.13-0.131-0.308-0.056-0.532c0-0.206,0.084-0.354,0.251-0.447
		c0.56-0.318,1.204-1.354,1.932-3.107c0.354-0.784,0.672-1.548,0.952-2.294c0.243-0.859,0.429-1.708,0.56-2.548
		c0.149-0.839,0.242-1.987,0.28-3.441c0-1.475-0.038-2.856-0.112-4.143l-0.419-4.534l-3.863,4.954
		c-2.258,2.966-4.851,5.803-7.781,8.508c-0.485,0.429-0.942,0.831-1.372,1.205c-2.165,1.884-3.611,2.826-4.338,2.826
		c-0.28,0-0.718-0.177-1.315-0.532c-0.523-0.298-1.008-0.69-1.456-1.175l-1.512-1.624l1.399-5.458
		c0.747-2.5,1.885-5.775,3.415-9.823c1.53-3.994,2.733-6.849,3.61-8.565c0.448-0.858,0.999-1.381,1.651-1.568
		c0.709-0.129,0.943,0.206,0.7,1.008c-0.28,0.858-0.597,2.565-0.951,5.122C124.17,112.005,123.872,114.356,123.647,116.596z
		 M124.544,210.75c0.634-0.374,1.371-0.653,2.21-0.841c1.567-0.371,3.704-1.165,6.409-2.379c2.687-1.229,4.031-1.986,4.031-2.267
		c0-0.335-0.28-0.616-0.84-0.84c-0.354-0.094-0.336-0.68,0.056-1.762c0.374-1.01,1.26-2.978,2.659-5.907
		c1.642-3.34,3.284-7.174,4.926-11.502c1.604-4.255,2.789-7.894,3.554-10.917l0.616-2.351l4.758,3.077
		c3.135,2.055,4.843,3.08,5.122,3.08c0.802,0,0.784,1.969-0.056,5.906c-0.803,3.974-2.071,8.107-3.807,12.398
		c-0.709,1.904-1.203,3.508-1.483,4.813c-0.336,1.306-0.505,2.539-0.505,3.695c0,1.474-0.074,2.343-0.223,2.604
		c-0.168,0.392-0.578,0.588-1.232,0.588c-0.746,0-1.166,0.082-1.259,0.252c-0.149,0.279-0.103,1.063,0.139,2.351l0.336,2.52H138.51
		c-6.699,0-11.009-0.084-12.931-0.253c-1.866-0.242-2.612-0.698-2.239-1.371C123.489,211.328,123.89,211.03,124.544,210.75z
		 M166.051,113.657c0.3,0.317,0.644,1.586,1.036,3.806c0.372,2.276,0.494,3.499,0.364,3.667c-0.112,0.037-0.374-0.047-0.783-0.252
		c-0.411-0.168-0.916-0.393-1.513-0.672c-0.952-0.671-1.493-1.166-1.623-1.483c-0.131-0.28-0.065-0.924,0.195-1.931
		c0.354-1.287,0.746-2.239,1.176-2.855C165.352,113.414,165.733,113.321,166.051,113.657z M148.166,121.802
		c-1.679,0-3.023-0.262-4.03-0.784c-0.97-0.522-1.895-1.409-2.771-2.659c-0.821-1.287-1.231-1.586-1.231-0.896
		c0,0.99,0.364,2.053,1.091,3.191c0.728,1.23,1.493,2.005,2.295,2.322c0.933,0.374,2.137,0.495,3.61,0.365
		c1.418-0.15,2.407-0.467,2.966-0.952C150.526,121.998,149.883,121.802,148.166,121.802z"/>
	<path fill-rule="evenodd" clip-rule="evenodd" fill="#E23F75" d="M72.289,195.86c0.597-0.094,1.567-0.58,2.91-1.455
		c1.437-0.841,2.939-1.848,4.507-3.024c3.526-2.725,7.043-4.953,10.552-6.688c3.601-1.719,6.587-2.696,8.957-2.94
		c0.97-0.074,1.819-0.176,2.547-0.308c0.765-0.168,1.185-0.308,1.259-0.42c0.094-0.169,0.252-0.308,0.476-0.42
		c0.28-0.074,0.56-0.111,0.84-0.111c1.213,0,4.086-2.977,8.621-8.929c0.934-1.251,2.146-2.761,3.639-4.534
		c1.567-1.717,2.93-3.152,4.086-4.311l4.338-4.226l1.763,3.245l0.056-1.789c0-1.214-0.29-3.127-0.868-5.738
		c-0.784-3.172-0.858-5.821-0.224-7.95c0.69-2.184,2.257-4.534,4.702-7.053c0.69-0.728,2.883-0.448,6.577,0.84
		c0.187,0.206,0.747,0.644,1.68,1.316c1.437,0.97,3.181,1.772,5.234,2.406c2.015,0.654,3.844,0.998,5.485,1.035
		c1.4,0,2.249,0.178,2.548,0.533c0.354,0.279,0.689,1.372,1.008,3.274c0.094,0.56,0.336,1.101,0.728,1.624
		c0.317,0.522,0.737,0.959,1.26,1.315c1.94,1.286,4.496,3.778,7.669,7.472c3.134,3.695,5.924,7.474,8.368,11.337
		c2.482,3.937,3.891,6.708,4.227,8.312c0.429,1.682,0.41,4.871-0.056,9.572c-0.336,4.312-0.383,8.033-0.141,11.167
		c0.317,3.136,1.009,6.625,2.071,10.47l1.428,4.59l-1.261,0.896c-0.765,0.56-1.081,0.887-0.95,0.979
		c0.037,0.039,0.093,0.076,0.167,0.113c0.448,0.372,1.456,0.877,3.023,1.511c1.679,0.728,3.06,1.231,4.143,1.512
		c2.407,0.672,2.994,1.147,1.763,1.429c-1.212,0.278-4.432,0.417-9.656,0.417c-5.653,0-8.984-0.139-9.992-0.417
		c-0.653-0.227-0.979-0.561-0.979-1.01c0-0.317,0.167-0.904,0.504-1.763c0.279-0.597,0.373-0.999,0.279-1.203
		c-0.037-0.188-0.279-0.345-0.728-0.476c-0.112-0.037-0.206-0.057-0.28-0.057c-0.653-0.131-1.063-0.672-1.231-1.623
		c-0.113-0.877-0.289-3.807-0.531-8.789c-0.243-5.467-0.299-9.189-0.168-11.166c0.206-1.997,0.746-3.985,1.622-5.962
		c0.43-1.046,0.673-1.829,0.729-2.352c0.075-0.522,0.009-0.904-0.195-1.147c-0.15-0.205-0.289-0.691-0.421-1.456
		c-0.148-0.746-0.232-1.53-0.252-2.351c-0.074-1.605-0.232-2.621-0.476-3.05c-0.242-0.376-0.96-0.878-2.155-1.514
		c-2.688-1.417-5.682-3.292-8.984-5.625c-3.265-2.276-5.7-4.197-7.305-5.766c-2.276-2.295-4.338-3.742-6.186-4.339
		c-6.605-2.183-9.666-6.446-9.181-12.791l0.252-3.301l-1.092,2.238c-0.802,1.567-1.119,3.517-0.952,5.85
		c0.187,2.37,0.812,4.235,1.875,5.598c0.747,0.989,2.314,2.154,4.703,3.499c2.313,1.325,3.992,1.986,5.038,1.986
		c0.242,0,0.465,0.074,0.671,0.225c0.28,0.167,0.419,0.354,0.419,0.559c0,0.71-1.641,2.474-4.926,5.291
		c-3.172,2.855-7.258,6.186-12.259,9.992c-4.404,3.377-7.295,5.477-8.677,6.298c-1.474,0.913-2.854,1.436-4.143,1.567
		c-2.612,0.392-6.792,2.435-12.539,6.13c-5.672,3.694-10.552,7.547-14.638,11.559c-2.425,2.389-4.031,3.677-4.814,3.862
		c-0.728,0.206-1.614-0.477-2.659-2.043c-0.689-1.12-1.054-1.605-1.091-1.456l-0.784,3.752c-0.28,1.472-0.42,2.397-0.42,2.77
		c0,0.411,0.206,0.691,0.616,0.84c1.549,0.485,2.323,0.803,2.323,0.953c-0.112,0.166-0.97,0.288-2.574,0.362l-3.611,0.029
		l-0.447-3.332c-0.113-0.934-0.309-2.034-0.589-3.302c-0.28-1.25-0.56-2.296-0.839-3.136c-0.728-2.053-1.054-3.358-0.979-3.919
		c0.056-0.614,0.541-1.043,1.456-1.287c0.69-0.242,1.129-0.494,1.315-0.755c0.168-0.336,0.196-0.841,0.084-1.511
		c-0.056-0.728,0-1.214,0.168-1.458C70.889,196.168,71.412,196.009,72.289,195.86z"/>
	<path fill-rule="evenodd" clip-rule="evenodd" fill="#F1E368" d="M182.816,123.648l-8.369,6.157
		c-2.053,1.158-3.256,1.764-3.61,1.819c-0.131,0-0.251-0.55-0.364-1.651c0-0.205,0-0.419,0-0.643
		c-0.055-1.008-0.084-2.118-0.084-3.332c0.02-1.493,0-3.079-0.055-4.758c-0.076-1.567-0.179-2.734-0.308-3.499
		c-0.281-1.643-0.56-3.424-0.841-5.346l-0.279-2.771l4.702-4.955c1.287-1.362,2.594-2.687,3.917-3.974
		c1.364-1.175,2.361-1.959,2.995-2.351c1.25-0.802,1.932-1.343,2.044-1.623c0.093-0.169-0.346-0.169-1.315,0
		c-0.729,0.242-1.073,0.242-1.036,0c0.02-0.28,0.55-1.232,1.596-2.856c1.362-2.351,1.979-3.592,1.848-3.722
		c-0.074-0.168-0.914,0.774-2.52,2.827c-1.734,2.294-4.432,5.374-8.088,9.236l-5.487,5.821l-2.406-1.79
		c-1.566-1.157-2.491-1.717-2.771-1.68c-0.392,0.075,0.028,0.737,1.259,1.987c0.69,0.672,1.138,1.269,1.344,1.791
		c0.242,0.41,0.28,0.813,0.112,1.204c-0.168,0.486-0.326,0.709-0.476,0.672c-0.168-0.074-0.467-0.42-0.896-1.036l-4.478-6.186
		l0.783-3.638c0.523-2.202,1.083-4.049,1.679-5.542c0.579-1.474,1.382-2.92,2.407-4.338c0.821-1.288,1.39-1.987,1.708-2.1
		c0.354-0.075,0.756,0.327,1.203,1.204c0.205,0.56,0.364,0.718,0.476,0.476c0.094-0.242,0.141-1.025,0.141-2.351
		c0.037-2.238,0.456-4.143,1.26-5.709c0.802-1.53,2.024-2.799,3.666-3.807c1.884-1.213,2.81-2.015,2.771-2.407
		c-0.038-0.28-1.045,0.046-3.023,0.979l-3.304,1.679l-0.307-1.567c-0.205-0.934-0.085-1.698,0.364-2.296
		c0.41-0.448,1.454-1.157,3.134-2.127c0.767-0.429,1.513-0.951,2.239-1.567c0.729-0.709,1.25-1.306,1.567-1.792
		c0.522-0.803,1.045-1.446,1.568-1.931c0.802-0.934,1.539-1.129,2.211-0.588c0.969,0.84,1.455,1.577,1.455,2.211
		c0,0.28,1.11,1.409,3.33,3.387c3.211,2.967,5.309,5.896,6.298,8.789c1.046,2.967,1.567,7.669,1.567,14.107
		c0.02,5.821,0.484,10.318,1.399,13.491c1.046,3.172,3.332,7.528,6.857,13.07c2.015,3.134,3.061,5.066,3.136,5.793
		c0.055,0.765-0.701,1.147-2.269,1.147c-0.485,0-1.407-0.214-2.771-0.644c-1.343-0.373-2.732-0.84-4.17-1.399
		c-1.959-0.69-3.582-1.176-4.869-1.456c-1.251-0.317-2.455-0.476-3.61-0.476L182.816,123.648z M159.67,107.75
		c0.802,1.848,1.166,2.911,1.091,3.191c-0.073,0.28-0.541-0.429-1.4-2.127c-0.745-1.399-1.202-2.379-1.37-2.939
		c-0.168-0.521-0.084-0.783,0.252-0.783C158.43,105.092,158.904,105.979,159.67,107.75z M79.642,197.461
		c-0.345,0.366-0.765,0.549-1.26,0.549c-0.496,0-0.927-0.183-1.293-0.549c-0.345-0.345-0.517-0.765-0.517-1.261
		s0.172-0.927,0.517-1.293c0.366-0.345,0.797-0.516,1.293-0.516c0.495,0,0.915,0.171,1.26,0.516c0.367,0.366,0.55,0.797,0.55,1.293
		S80.009,197.116,79.642,197.461z M140.013,156.998c-0.453,0.453-1.001,0.679-1.648,0.679c-0.646,0-1.196-0.226-1.648-0.679
		c-0.453-0.453-0.679-1.001-0.679-1.648c0-0.646,0.227-1.196,0.679-1.648c0.452-0.452,1.002-0.678,1.648-0.678
		c0.646,0,1.195,0.226,1.648,0.678s0.679,1.002,0.679,1.648C140.691,155.997,140.465,156.545,140.013,156.998z M147.382,154.801
		c-0.518,0.539-1.152,0.809-1.906,0.809c-0.755,0-1.401-0.27-1.94-0.809c-0.516-0.518-0.776-1.152-0.776-1.906
		c0-0.755,0.26-1.401,0.776-1.939c0.539-0.518,1.185-0.777,1.94-0.777c0.754,0,1.388,0.259,1.906,0.777
		c0.539,0.538,0.808,1.185,0.808,1.939C148.19,153.648,147.921,154.283,147.382,154.801z M160.729,166.079
		c-0.236,0.259-0.538,0.389-0.904,0.389c-0.367,0-0.679-0.13-0.938-0.389c-0.236-0.237-0.355-0.538-0.355-0.904
		c0-0.367,0.119-0.679,0.355-0.937c0.259-0.238,0.57-0.356,0.938-0.356c0.366,0,0.668,0.118,0.904,0.356
		c0.259,0.258,0.389,0.569,0.389,0.937C161.117,165.541,160.987,165.842,160.729,166.079z M168.486,181.076
		c-0.433,0.43-0.949,0.646-1.551,0.646c-0.604,0-1.122-0.216-1.552-0.646c-0.432-0.431-0.647-0.948-0.647-1.552
		s0.216-1.121,0.647-1.552c0.43-0.43,0.947-0.647,1.552-0.647c0.602,0,1.118,0.218,1.551,0.647c0.431,0.431,0.646,0.948,0.646,1.552
		S168.917,180.646,168.486,181.076z M171.878,196.62c-0.387,0.41-0.871,0.614-1.454,0.614c-0.58,0-1.077-0.204-1.485-0.614
		c-0.388-0.386-0.583-0.872-0.583-1.453c0-0.583,0.195-1.078,0.583-1.487c0.408-0.388,0.905-0.581,1.485-0.581
		c0.583,0,1.067,0.193,1.454,0.581c0.41,0.409,0.615,0.904,0.615,1.487C172.493,195.748,172.288,196.234,171.878,196.62z
		 M169.067,205.702c-0.366,0.388-0.818,0.581-1.358,0.581c-0.537,0-1.001-0.193-1.389-0.581c-0.367-0.366-0.551-0.818-0.551-1.356
		c0-0.54,0.184-1.002,0.551-1.39c0.388-0.366,0.852-0.55,1.389-0.55c0.54,0,0.992,0.184,1.358,0.55
		c0.388,0.388,0.582,0.85,0.582,1.39C169.649,204.884,169.455,205.336,169.067,205.702z M173.722,213.2
		c-0.195,0.216-0.432,0.322-0.711,0.322c-0.28,0-0.529-0.106-0.744-0.322c-0.193-0.193-0.291-0.432-0.291-0.711
		c0-0.28,0.098-0.527,0.291-0.743c0.215-0.195,0.464-0.291,0.744-0.291c0.279,0,0.516,0.096,0.711,0.291
		c0.216,0.216,0.323,0.463,0.323,0.743C174.045,212.769,173.938,213.007,173.722,213.2z M170.554,215.462
		c-0.237,0.26-0.537,0.388-0.904,0.388c-0.366,0-0.68-0.128-0.938-0.388c-0.236-0.236-0.355-0.538-0.355-0.905
		c0-0.365,0.119-0.677,0.355-0.937c0.259-0.237,0.572-0.356,0.938-0.356c0.367,0,0.667,0.119,0.904,0.356
		c0.259,0.26,0.389,0.571,0.389,0.937C170.942,214.924,170.813,215.226,170.554,215.462z M173.139,184.953
		c-0.236,0.259-0.538,0.389-0.904,0.389s-0.679-0.13-0.937-0.389c-0.237-0.236-0.355-0.538-0.355-0.904s0.118-0.679,0.355-0.938
		c0.258-0.237,0.57-0.354,0.937-0.354s0.668,0.117,0.904,0.354c0.26,0.259,0.388,0.571,0.388,0.938S173.398,184.717,173.139,184.953
		z M169.656,189.813c-0.517,0.537-1.151,0.807-1.906,0.807s-1.399-0.27-1.939-0.807c-0.517-0.519-0.775-1.154-0.775-1.908
		c0-0.755,0.259-1.4,0.775-1.938c0.54-0.518,1.185-0.776,1.939-0.776s1.39,0.259,1.906,0.776c0.539,0.538,0.809,1.184,0.809,1.938
		C170.465,188.659,170.195,189.295,169.656,189.813z M168.938,170.927c-0.302,0.303-0.668,0.454-1.1,0.454
		c-0.43,0-0.797-0.151-1.099-0.454c-0.302-0.301-0.452-0.668-0.452-1.098c0-0.432,0.15-0.799,0.452-1.099
		c0.302-0.302,0.669-0.452,1.099-0.452c0.432,0,0.798,0.15,1.1,0.452c0.302,0.3,0.452,0.667,0.452,1.099
		C169.391,170.259,169.24,170.626,168.938,170.927z M159.113,173.772c-0.303,0.301-0.668,0.45-1.1,0.45
		c-0.43,0-0.797-0.149-1.098-0.45c-0.302-0.303-0.453-0.669-0.453-1.1s0.151-0.799,0.453-1.099c0.301-0.301,0.668-0.452,1.098-0.452
		c0.432,0,0.797,0.151,1.1,0.452c0.302,0.3,0.453,0.668,0.453,1.099S159.415,173.47,159.113,173.772z M152.715,165.045
		c-0.238,0.26-0.539,0.389-0.906,0.389c-0.365,0-0.678-0.129-0.937-0.389c-0.237-0.237-0.355-0.537-0.355-0.904
		c0-0.366,0.118-0.678,0.355-0.938c0.259-0.237,0.571-0.354,0.937-0.354c0.367,0,0.668,0.117,0.906,0.354
		c0.258,0.26,0.387,0.571,0.387,0.938C153.102,164.508,152.973,164.808,152.715,165.045z M155.979,156.675
		c-0.324,0.323-0.722,0.485-1.196,0.485c-0.474,0-0.872-0.162-1.196-0.485c-0.322-0.323-0.484-0.721-0.484-1.194
		c0-0.475,0.162-0.875,0.484-1.197c0.324-0.323,0.723-0.484,1.196-0.484c0.475,0,0.872,0.161,1.196,0.484
		c0.322,0.322,0.484,0.723,0.484,1.197C156.463,155.954,156.301,156.352,155.979,156.675z M146.154,163.396
		c-0.323,0.324-0.722,0.485-1.196,0.485c-0.474,0-0.873-0.161-1.196-0.485c-0.323-0.323-0.485-0.721-0.485-1.195
		s0.162-0.872,0.485-1.195c0.323-0.324,0.722-0.485,1.196-0.485c0.474,0,0.873,0.161,1.196,0.485
		c0.323,0.323,0.484,0.721,0.484,1.195S146.477,163.073,146.154,163.396z M142.847,148.111c-0.389,0.41-0.874,0.614-1.455,0.614
		c-0.582,0-1.078-0.204-1.487-0.614c-0.388-0.389-0.581-0.873-0.581-1.454s0.193-1.078,0.581-1.488
		c0.41-0.387,0.905-0.582,1.487-0.582c0.581,0,1.066,0.195,1.455,0.582c0.409,0.41,0.613,0.906,0.613,1.488
		S143.256,147.722,142.847,148.111z M129.639,165.497c-0.302,0.303-0.668,0.454-1.099,0.454c-0.431,0-0.797-0.151-1.099-0.454
		c-0.302-0.3-0.453-0.666-0.453-1.097c0-0.433,0.151-0.799,0.453-1.1c0.302-0.303,0.668-0.452,1.099-0.452
		c0.431,0,0.797,0.149,1.099,0.452c0.301,0.301,0.453,0.667,0.453,1.1C130.092,164.831,129.94,165.197,129.639,165.497z
		 M134.26,169.861c-0.323,0.323-0.722,0.483-1.196,0.483s-0.873-0.16-1.196-0.483c-0.323-0.323-0.484-0.722-0.484-1.197
		c0-0.474,0.162-0.871,0.484-1.194c0.323-0.323,0.722-0.485,1.196-0.485s0.873,0.162,1.196,0.485
		c0.323,0.323,0.485,0.721,0.485,1.194C134.745,169.14,134.583,169.538,134.26,169.861z M121.689,170.992
		c-0.238,0.259-0.54,0.389-0.905,0.389c-0.367,0-0.679-0.13-0.938-0.389c-0.236-0.237-0.355-0.539-0.355-0.905
		s0.119-0.678,0.355-0.938c0.259-0.236,0.571-0.356,0.938-0.356c0.365,0,0.667,0.12,0.905,0.356c0.258,0.26,0.387,0.571,0.387,0.938
		S121.947,170.755,121.689,170.992z M115.29,177.263c-0.366,0.388-0.819,0.581-1.357,0.581c-0.539,0-1.002-0.193-1.39-0.581
		c-0.366-0.367-0.549-0.819-0.549-1.356c0-0.54,0.183-1.004,0.549-1.392c0.388-0.366,0.851-0.549,1.39-0.549
		c0.539,0,0.991,0.183,1.357,0.549c0.387,0.388,0.582,0.852,0.582,1.392C115.872,176.443,115.677,176.896,115.29,177.263z
		 M124.792,176.68c-0.431,0.431-0.949,0.646-1.552,0.646c-0.603,0-1.12-0.215-1.55-0.646c-0.431-0.432-0.647-0.947-0.647-1.551
		s0.216-1.121,0.647-1.552c0.43-0.431,0.948-0.646,1.55-0.646c0.604,0,1.121,0.216,1.552,0.646c0.431,0.431,0.646,0.948,0.646,1.552
		S125.222,176.248,124.792,176.68z M108.567,183.209c-0.194,0.215-0.431,0.323-0.711,0.323c-0.28,0-0.527-0.108-0.743-0.323
		c-0.194-0.195-0.291-0.433-0.291-0.712c0-0.28,0.097-0.527,0.291-0.744c0.216-0.193,0.463-0.291,0.743-0.291
		c0.28,0,0.517,0.098,0.711,0.291c0.215,0.217,0.323,0.464,0.323,0.744C108.89,182.776,108.782,183.014,108.567,183.209z
		 M113.221,182.949c-0.193,0.216-0.431,0.323-0.71,0.323c-0.281,0-0.529-0.107-0.743-0.323c-0.194-0.192-0.292-0.43-0.292-0.711
		c0-0.28,0.097-0.526,0.292-0.742c0.214-0.195,0.462-0.291,0.743-0.291c0.28,0,0.517,0.096,0.71,0.291
		c0.215,0.216,0.323,0.462,0.323,0.742C113.544,182.52,113.436,182.757,113.221,182.949z M102.686,185.319
		c-0.323,0.323-0.722,0.484-1.196,0.484c-0.474,0-0.873-0.161-1.196-0.484c-0.323-0.324-0.484-0.722-0.484-1.196
		c0-0.474,0.162-0.872,0.484-1.195s0.722-0.485,1.196-0.485c0.474,0,0.873,0.162,1.196,0.485c0.323,0.323,0.485,0.722,0.485,1.195
		C103.171,184.598,103.009,184.995,102.686,185.319z M104.656,188.088c-0.215,0.237-0.485,0.357-0.808,0.357
		c-0.323,0-0.603-0.12-0.84-0.357c-0.215-0.215-0.323-0.484-0.323-0.809c0-0.322,0.108-0.604,0.323-0.838
		c0.237-0.218,0.517-0.325,0.84-0.325c0.323,0,0.592,0.107,0.808,0.325c0.237,0.234,0.355,0.516,0.355,0.838
		C105.011,187.604,104.894,187.873,104.656,188.088z M96.189,189.446c-0.517,0.538-1.152,0.808-1.906,0.808
		c-0.755,0-1.401-0.27-1.939-0.808c-0.517-0.518-0.776-1.153-0.776-1.907s0.26-1.401,0.776-1.938
		c0.539-0.518,1.185-0.776,1.939-0.776c0.754,0,1.39,0.259,1.906,0.776c0.539,0.537,0.809,1.185,0.809,1.938
		S96.728,188.929,96.189,189.446z M94.443,195.976c-0.323,0.321-0.721,0.483-1.194,0.483c-0.475,0-0.874-0.162-1.197-0.483
		c-0.323-0.325-0.485-0.724-0.485-1.197c0-0.475,0.162-0.873,0.485-1.195c0.323-0.324,0.722-0.484,1.197-0.484
		c0.473,0,0.872,0.16,1.194,0.484c0.324,0.322,0.485,0.721,0.485,1.195C94.928,195.252,94.768,195.65,94.443,195.976z
		 M85.459,193.194c-0.28,0.281-0.613,0.421-1.001,0.421c-0.388,0-0.722-0.14-1.002-0.421c-0.28-0.28-0.42-0.613-0.42-1.002
		c0-0.388,0.14-0.721,0.42-1.001c0.28-0.281,0.614-0.421,1.002-0.421c0.388,0,0.722,0.14,1.001,0.421
		c0.28,0.28,0.421,0.613,0.421,1.001C85.88,192.581,85.739,192.914,85.459,193.194z M83.294,197.493
		c0.367-0.345,0.797-0.517,1.293-0.517c0.495,0,0.916,0.172,1.261,0.517c0.366,0.366,0.549,0.796,0.549,1.292
		s-0.183,0.916-0.549,1.261c-0.345,0.367-0.766,0.55-1.261,0.55c-0.496,0-0.926-0.183-1.293-0.55
		c-0.344-0.345-0.517-0.765-0.517-1.261S82.95,197.859,83.294,197.493z M82.745,203.408c-0.345,0.366-0.765,0.55-1.261,0.55
		s-0.927-0.184-1.292-0.55c-0.345-0.345-0.517-0.766-0.517-1.261c0-0.497,0.172-0.927,0.517-1.293
		c0.366-0.345,0.797-0.518,1.292-0.518s0.916,0.173,1.261,0.518c0.366,0.366,0.549,0.796,0.549,1.293
		C83.294,202.643,83.111,203.063,82.745,203.408z M75.828,203.471c-0.323,0.323-0.722,0.487-1.196,0.487s-0.872-0.164-1.195-0.487
		c-0.323-0.321-0.484-0.721-0.484-1.194s0.161-0.872,0.484-1.195c0.324-0.324,0.722-0.485,1.195-0.485s0.873,0.161,1.196,0.485
		c0.324,0.323,0.485,0.722,0.485,1.195S76.152,203.149,75.828,203.471z M113.042,187.25c-0.323,0.324-0.722,0.485-1.196,0.485
		c-0.473,0-0.872-0.161-1.195-0.485c-0.323-0.323-0.485-0.722-0.485-1.196c0-0.474,0.162-0.871,0.485-1.194
		c0.323-0.323,0.722-0.485,1.195-0.485c0.475,0,0.873,0.162,1.196,0.485s0.485,0.721,0.485,1.194
		C113.526,186.528,113.365,186.927,113.042,187.25z M133.234,143.241c-0.237,0.259-0.539,0.388-0.905,0.388
		c-0.367,0-0.679-0.129-0.938-0.388c-0.236-0.236-0.355-0.537-0.355-0.904s0.119-0.679,0.355-0.938
		c0.259-0.236,0.571-0.355,0.938-0.355c0.366,0,0.667,0.12,0.905,0.355c0.258,0.259,0.387,0.571,0.387,0.938
		S133.492,143.005,133.234,143.241z M133.234,151.135c-0.237,0.259-0.539,0.389-0.905,0.389c-0.367,0-0.679-0.13-0.938-0.389
		c-0.236-0.237-0.355-0.538-0.355-0.904c0-0.367,0.119-0.679,0.355-0.938c0.259-0.237,0.571-0.354,0.938-0.354
		c0.366,0,0.667,0.117,0.905,0.354c0.258,0.259,0.387,0.571,0.387,0.938C133.622,150.597,133.492,150.897,133.234,151.135z
		 M127.058,150.913c-0.193,0.21-0.438,0.316-0.737,0.316c-0.298,0-0.553-0.105-0.764-0.316c-0.193-0.193-0.29-0.438-0.29-0.738
		c0-0.297,0.097-0.553,0.29-0.763c0.21-0.193,0.465-0.291,0.764-0.291c0.299,0,0.544,0.098,0.737,0.291
		c0.211,0.21,0.316,0.466,0.316,0.763C127.374,150.474,127.269,150.719,127.058,150.913z M128.438,145.09
		c-0.105,0.114-0.24,0.171-0.402,0.171c-0.162,0-0.301-0.058-0.416-0.171c-0.105-0.104-0.158-0.239-0.158-0.402
		s0.052-0.301,0.158-0.417c0.115-0.104,0.254-0.158,0.416-0.158c0.162,0,0.297,0.054,0.402,0.158
		c0.115,0.116,0.172,0.254,0.172,0.417S128.553,144.986,128.438,145.09z"/>
</g>
</svg>
