<?xml version="1.0" encoding="utf-8"?>
<!-- Generator: Adobe Illustrator 16.0.0, SVG Export Plug-In . SVG Version: 6.00 Build 0)  -->
<!DOCTYPE svg PUBLIC "-//W3C//DTD SVG 1.1//EN" "http://www.w3.org/Graphics/SVG/1.1/DTD/svg11.dtd">
<svg version="1.1" id="Layer_1" xmlns="http://www.w3.org/2000/svg" xmlns:xlink="http://www.w3.org/1999/xlink" x="0px" y="0px"
	 width="300px" height="300px" viewBox="0 0 300 300" enable-background="new 0 0 300 300" xml:space="preserve">
<g>
	<path fill-rule="evenodd" clip-rule="evenodd" fill="#010101" d="M67.797,91.618c-0.046-0.046-0.046-0.069,0-0.069
		c11.379-1.761,20.51-0.893,27.393,2.607c0.046-0.394,0.092-0.719,0.139-0.974c0.116-0.788,0.486-1.761,1.112-2.92
		c0.463-1.043,0.846-2.063,1.147-3.059c0.208-0.95,0.336-2.074,0.382-3.372c0.093-2.202,0.44-4.844,1.043-7.926
		c0.232-1.251,0.429-2.7,0.591-4.345c0.208-1.646,0.313-2.979,0.313-3.998l0.069-3.79l1.182,1.704
		c0.765,1.112,1.564,2.109,2.399,2.989c0.903,0.858,2.398,2.19,4.484,3.998c2.248,1.923,4.125,3.661,5.632,5.214l2.329,2.468
		l4.241,0.069c2.063,0,4.554,0.278,7.474,0.834c2.966,0.51,5.341,1.159,7.126,1.947c0.904,0.394,1.622,0.545,2.155,0.452
		c0.51,0,1.564-0.301,3.164-0.903c3.082-1.182,5.423-2.26,7.022-3.233c1.645-0.974,3.14-2.213,4.484-3.72
		c1.715-1.854,2.571-2.653,2.571-2.399l-1.598,13.697l1.598,2.085c0.487,0.649,1.16,1.321,2.018,2.017
		c0.834,0.648,1.656,1.146,2.467,1.494c0.742,0.348,1.564,0.847,2.469,1.495c0.951,0.648,1.68,1.229,2.19,1.738l1.843,1.946
		l3.163-0.973c0.88-0.255,2.144-0.533,3.789-0.835c1.552-0.301,3.036-0.544,4.449-0.729l5.075-0.591l3.372-4.415
		c2.132-2.897,3.754-5.249,4.867-7.057l1.703-2.607v2.086c0,0.556,0.15,1.727,0.451,3.511c0.348,1.761,0.73,3.581,1.147,5.458
		c0.881,3.151,1.518,5.202,1.912,6.152c0.371,0.95,1.031,1.924,1.981,2.921c1.599,1.645,2.642,3.07,3.129,4.275
		c0.254,0.648,0.428,1.391,0.521,2.225c7.3-2.896,15.109-4.01,23.43-3.337v0.069c-8.32-0.649-16.13,0.498-23.43,3.441
		c0.093,0.741,0.115,1.564,0.069,2.468c-0.046,0.533-0.116,1.102-0.209,1.703c11.263-4.473,22.515-3.916,33.755,1.669v0.139h-0.07
		c-11.24-5.585-22.491-6.141-33.754-1.668c-0.115,0.765-0.324,1.541-0.626,2.329c11.24-2.688,19.873-0.417,25.897,6.813h0.07
		l-0.07,0.069v0.069l-0.068-0.069c-6.025-7.185-14.635-9.444-25.829-6.778c-0.439,1.135-0.984,2.282-1.634,3.441
		c5.377-0.904,10.047,0.614,14.01,4.554h0.069l-0.14,0.139c-0.022,0-0.034-0.023-0.034-0.069c-3.986-3.939-8.645-5.435-13.975-4.484
		c-0.348,0.557-0.718,1.124-1.112,1.703c-2.248,3.198-5.075,5.748-8.482,7.648l-2.919,1.703l0.313,3.823
		c0.393,4.288,1.309,9.108,2.746,14.462c1.414,5.377,3.14,10.266,5.18,14.668c2.688,5.98,5.828,11.541,9.42,16.688
		c3.593,5.145,7.764,10.104,12.515,14.877c2.294,2.363,3.767,3.986,4.415,4.867c0.649,0.857,1.251,2.131,1.808,3.824
		c0.834,2.643,1.402,5.295,1.703,7.961c0.348,2.688,0.521,6.152,0.521,10.393c0.047,6.674-0.672,12.213-2.155,16.617
		c-1.437,4.449-3.754,8.285-6.952,11.506l-3.303,3.371l7.022,4.799c4.75,3.383,8.053,5.828,9.907,7.334
		c4.773,3.848,7.207,7.486,7.3,10.916c0.069,3.359-2.19,6.383-6.778,9.072c-1.367,0.857-3.697,1.785-6.987,2.781
		c-3.245,1.09-6.257,1.854-9.038,2.295c-12.376,2.063-24.206,2.34-35.493,0.834c-11.285-1.506-18.795-4.369-22.525-8.586
		l-1.495-1.738l-1.112,1.424c-1.112,1.508-3.534,3.025-7.265,4.555c-3.754,1.506-8.32,2.805-13.696,3.893
		c-2.549,0.512-4.924,0.859-7.126,1.043c-2.085,0.117-6.129,0.174-12.132,0.174c-5.122,0-9.131-0.08-12.028-0.242
		c-2.896-0.186-5.643-0.43-8.238-0.73c-6.396-0.904-11.68-2.086-15.852-3.547c-4.102-1.389-7.253-3.105-9.455-5.145
		c-1.947-1.783-2.99-3.557-3.129-5.318c-0.162-1.854,0.58-3.951,2.225-6.291c0.997-1.438,2.503-2.932,4.519-4.484
		c2.086-1.553,5.817-4.066,11.193-7.543c5.006-3.199,7.81-5.076,8.413-5.633c0.44-0.348,0.591-0.672,0.452-0.973
		c-0.07-0.139-0.395-0.418-0.974-0.834c-1.645-1.252-3.326-2.873-5.041-4.867c-1.645-2.086-2.966-4.078-3.963-5.979
		c-2.178-4.195-3.604-9.131-4.275-14.809c-0.649-5.586-0.476-11.646,0.521-18.182c0.858-5.701,1.935-10.197,3.233-13.488
		c1.298-3.336,2.723-5.307,4.276-5.908c1.205-0.465,3.604-2.955,7.196-7.475c3.639-4.496,6.5-8.586,8.586-12.271
		c4.056-7.137,7.126-14.9,9.212-23.291c2.039-8.436,2.734-16.117,2.085-23.047l-0.347-3.894l-3.303-2.051
		c-3.5-2.294-6.419-5.134-8.76-8.517c-0.348-0.51-0.695-1.055-1.042-1.634c-5.284,1.529-9.027,3.627-11.229,6.292
		c-0.045,0-0.068,0.023-0.069,0.069v-0.104c2.225-2.688,5.968-4.809,11.228-6.361c-0.556-0.881-1.008-1.772-1.355-2.677
		c-8.83,0.139-15.991,2.19-21.483,6.153v0.069l-0.069-0.069v-0.069c5.469-4.01,12.63-6.084,21.483-6.223
		c-0.51-1.159-0.857-2.329-1.042-3.512c-7.996-1.854-16.953-1.158-26.871,2.086h-0.035c-0.046,0-0.07-0.023-0.07-0.069v-0.069
		c0-0.023,0.023-0.035,0.07-0.035c9.896-3.221,18.864-3.894,26.906-2.016c-0.163-0.58-0.267-1.147-0.313-1.704
		c-0.046-0.648-0.046-1.251,0-1.808c-6.883-3.546-16.014-4.414-27.393-2.606V91.618z M214.354,269.148
		c-1.992-2.434-4.809-4.727-8.446-6.883c-4.011-2.457-7.185-4.057-9.525-4.797c-2.34-0.742-6.455-1.482-12.341-2.225
		c-8.134-1.066-14.206-3.047-18.216-5.945c-4.125-2.941-7.219-7.531-9.281-13.766c-0.927-2.826-1.691-5.689-2.295-8.586
		c-0.254-1.25-0.509-2.225-0.764-2.92c-0.232-0.695-0.383-0.928-0.453-0.695c-0.184,0.348-0.729,2.248-1.633,5.701
		c-1.298,4.75-2.897,8.586-4.797,11.506c-1.831,2.896-4.252,5.32-7.265,7.266c-2.479,1.668-5.574,3.094-9.282,4.275
		c-3.731,1.16-7.416,1.889-11.054,2.191c-4.357,0.301-10.151,2.213-17.381,5.734c-7.23,3.453-12.039,6.605-14.426,9.455
		c-0.95,1.299-1.576,2.469-1.877,3.512c-0.255,1.09-0.162,2.133,0.278,3.129c0.903,2.248,4.496,3.928,10.776,5.041
		c2.642,0.439,6.906,0.705,12.792,0.799c5.864,0,10.557-0.197,14.079-0.592c2.364-0.254,5.492-0.834,9.386-1.736
		c3.939-0.836,6.327-1.473,7.161-1.912c0.464-0.256,0.789-0.73,0.974-1.426c0.093-0.766-0.058-1.146-0.452-1.146
		c-0.301,0-0.996-0.5-2.085-1.496c-1.599-1.482-2.005-2.699-1.217-3.65c0.719-0.949,2.271-1.123,4.658-0.521
		c1.854,0.441,3.824,1.207,5.91,2.295c2.109,1.066,3.638,2.074,4.588,3.025l1.703,1.771l1.634-1.771
		c0.951-1.066,2.596-2.227,4.937-3.477c2.41-1.229,4.392-1.947,5.944-2.156c0.949-0.139,1.599-0.186,1.946-0.139
		c0.394,0.094,0.685,0.395,0.869,0.904c0.417,0.695,0.452,1.391,0.104,2.086s-1.102,1.586-2.26,2.676
		c-0.787,0.695-1.193,1.146-1.217,1.355c-0.092,0.256,0.07,0.627,0.487,1.113c0.533,0.602,2.526,1.355,5.979,2.26
		c3.522,0.904,6.859,1.553,10.012,1.945c2.502,0.348,6.291,0.521,11.366,0.521c5.099,0,8.748-0.174,10.95-0.521
		c3.384-0.486,6.153-1.262,8.309-2.328c2.155-1.09,3.407-2.283,3.755-3.58C217.17,273.68,216.395,271.582,214.354,269.148z
		 M149.21,116.299c-2.294-0.603-4.635-0.695-7.022-0.278c-3.198,1.831-6.86,3.001-10.985,3.512l-2.572,0.348l-1.113,3.093
		c-1.946,5.146-2.92,10.95-2.92,17.417c0.046,6.35,1.066,12.27,3.059,17.762c1.251,3.5,2.851,6.988,4.797,10.465
		c1.946,3.359,4.113,6.477,6.5,9.35c1.506,1.762,3.36,4.16,5.562,7.195c0.904,1.299,1.854,2.527,2.851,3.686
		c0.95,1.137,1.645,1.877,2.085,2.225c0.904,0.648,1.646,1.682,2.225,3.094c0.603,1.484,1.136,3.627,1.599,6.432
		c0.441,2.34,0.742,3.512,0.904,3.512c0.092,0,0.242-0.232,0.451-0.695c0.232-0.486,0.406-1.078,0.521-1.773
		c0.604-2.248,1.346-4.148,2.225-5.701c0.904-1.553,1.901-2.676,2.99-3.371c2.896-1.879,5.84-5.168,8.829-9.873
		c3.013-4.682,5.134-9.375,6.362-14.078c0.718-2.596,1.101-6.037,1.146-10.324c0.093-4.242-0.186-7.753-0.834-10.534
		c-0.648-2.851-1.727-6.118-3.232-9.803c-1.53-3.615-2.643-5.667-3.338-6.153c-0.348-0.162-1.83-0.614-4.449-1.355
		c-2.48-0.603-4.646-1.426-6.5-2.469c-1.785-0.95-3.5-2.201-5.146-3.754c-0.764-0.788-1.436-1.588-2.016-2.398
		c-5.052,2.596-8.702,5.446-10.95,8.551h-0.069l-0.07-0.068c2.248-3.106,5.91-5.956,10.985-8.552
		c-0.534-0.788-0.927-1.576-1.182-2.364c-0.093-0.069-0.163-0.197-0.209-0.382c-8.458,1.83-14.009,4.924-16.651,9.281h-0.139
		c-0.046-0.093-0.046-0.14,0-0.14c2.735-4.356,8.32-7.45,16.755-9.281C149.43,118.107,149.28,117.25,149.21,116.299z M149.21,116.23
		c-0.093-0.788-0.093-1.634,0-2.538l0.104-3.441l-2.572,2.398c-1.297,1.229-2.711,2.295-4.241,3.198
		C144.795,115.5,147.032,115.627,149.21,116.23z"/>
	<path fill-rule="evenodd" clip-rule="evenodd" fill="#D81F26" d="M175.281,31.063c0.835-0.417,1.577-0.464,2.226-0.139v0.139
		c0.371,0.139,0.672,0.44,0.903,0.904c1.113,2.225-0.185,4.391-3.893,6.5c-0.951-0.557-1.773-1.112-2.469-1.668
		c-0.301-0.232-0.568-0.521-0.799-0.869c-1.113-1.298-1.321-2.631-0.626-3.998c0.161-0.278,0.37-0.568,0.626-0.869h0.069
		c0.695-0.557,1.61-0.557,2.745,0c0.164,0.093,0.313,0.243,0.453,0.452C174.772,31.306,175.027,31.155,175.281,31.063z
		 M160.438,13.299c-0.927-0.95-1.101-1.97-0.521-3.059c0.116-0.186,0.29-0.382,0.521-0.591c0.556-0.44,1.239-0.44,2.052,0
		c0.185,0.092,0.323,0.197,0.416,0.313c0.209-0.116,0.395-0.221,0.557-0.313c0.603-0.301,1.17-0.348,1.703-0.139v0.069
		c0.255,0.139,0.486,0.406,0.695,0.8c0.834,1.668-0.15,3.314-2.955,4.936c-0.741-0.44-1.379-0.904-1.912-1.391
		C160.74,13.762,160.555,13.554,160.438,13.299z M153.486,67.285c-2.99-3.453-3.581-6.976-1.773-10.568
		c0.487-0.95,1.055-1.692,1.704-2.225c0.093-0.046,0.161-0.07,0.208-0.07c1.947-1.506,4.346-1.506,7.195,0
		c0.465,0.232,0.986,0.521,1.564,0.869c0.557-0.348,1.137-0.637,1.738-0.869c2.248-1.112,4.219-1.24,5.91-0.382
		c0.093,0,0.174,0.046,0.243,0.139c0.927,0.603,1.749,1.483,2.468,2.642c2.943,5.933-0.498,11.645-10.324,17.138
		c-2.711-1.46-4.936-2.943-6.674-4.45C154.889,68.814,154.135,68.073,153.486,67.285z M151.713,33.009
		c0.047,0,0.094,0.023,0.14,0.07c0.532,0.348,1.054,0.938,1.564,1.773c1.761,3.592-0.36,7.068-6.362,10.428
		c-1.692-0.903-3.083-1.784-4.171-2.642c-0.556-0.487-0.985-0.985-1.287-1.495c-1.9-2.132-2.294-4.299-1.182-6.5
		c0.324-0.51,0.672-0.962,1.043-1.356c0.093,0,0.139-0.023,0.139-0.07c1.182-0.903,2.677-0.903,4.485,0
		c0.208,0.163,0.533,0.383,0.973,0.661c0.348-0.278,0.695-0.498,1.043-0.661C149.488,32.522,150.693,32.453,151.713,33.009z"/>
</g>
</svg>
