<?xml version="1.0" encoding="utf-8"?>
<!-- Generator: Adobe Illustrator 16.0.0, SVG Export Plug-In . SVG Version: 6.00 Build 0)  -->
<!DOCTYPE svg PUBLIC "-//W3C//DTD SVG 1.1//EN" "http://www.w3.org/Graphics/SVG/1.1/DTD/svg11.dtd">
<svg version="1.1" id="Layer_1" xmlns="http://www.w3.org/2000/svg" xmlns:xlink="http://www.w3.org/1999/xlink" x="0px" y="0px"
	 width="300px" height="300px" viewBox="0 0 300 300" enable-background="new 0 0 300 300" xml:space="preserve">
<g>
	<path fill-rule="evenodd" clip-rule="evenodd" fill="#010101" d="M251.038,43.231c-0.904-0.106-1.795-0.186-2.669-0.239
		c-7.092-0.345-13.918,0.505-20.479,2.55c-1.273,0.398-2.563,0.836-3.864,1.315c-11.287,4.329-21.897,12.297-31.832,23.903
		c-0.637,0.638-1.473,1.554-2.509,2.75c-0.318,0.398-0.624,0.77-0.917,1.115c-1.089,1.275-1.951,2.537-2.589,3.785
		c-0.903,1.593-1.938,3.851-3.108,6.772c-0.663,1.541-1.592,3.718-2.787,6.534c-1.729,4.116-2.855,7.024-3.388,8.725
		c-0.663,1.673-1.289,3.798-1.872,6.374c-0.851,3.241-1.393,5.977-1.634,8.208c-0.266,2.178-0.344,4.872-0.238,8.087
		c0.106,2.789,0.307,5.192,0.598,7.21c0.237,2.046,0.663,3.932,1.274,5.657c0.531,1.78,1.022,3.067,1.474,3.865
		c0.452,0.797,1.343,1.938,2.669,3.427c1.355,1.539,2.298,2.801,2.829,3.784c0.611,0.903,1.144,2.045,1.595,3.426
		c0.477,1.488,1.061,3.054,1.752,4.701c0.744,1.834,1.115,2.869,1.115,3.107c0,0.268,0.731,1.555,2.19,3.865
		c1.434,2.389,2.525,4.037,3.268,4.939c1.726,2.23,3.931,4.291,6.614,6.176c2.682,1.885,5.311,3.24,7.888,4.063
		c0.531,0.213,1.341,0.547,2.429,0.998c1.063,0.424,2.112,0.889,3.149,1.393c2.469,1.195,4.01,1.846,4.619,1.953
		c0.426,0.133,1.037,0.371,1.835,0.717c0.849,0.451,2.442,1.326,4.78,2.629c1.486,0.824,2.629,1.486,3.426,1.992
		c0.689,0.504,1.234,0.955,1.633,1.355c0.345,0.396,0.983,0.969,1.913,1.713c2.284,1.619,3.823,3.252,4.62,4.9
		c0.797,1.592,0.743,2.881-0.158,3.863c-0.346,0.346-0.61,0.57-0.797,0.678c-0.267,0.053-0.743,0.053-1.434,0
		c-0.878-0.107-2.338-0.559-4.383-1.355c-2.019-0.797-4.051-1.738-6.096-2.828l-5.06-2.59c-1.089-0.451-3.52-1.342-7.291-2.668
		c-3.771-1.355-5.882-2.033-6.335-2.033c-0.344,0-0.982-0.227-1.912-0.676c-0.451-0.188-0.996-0.359-1.631-0.52
		c-0.613-0.186-1.157-0.305-1.635-0.357c-0.798-0.107-1.329-0.133-1.595-0.08c-0.133,0.055-0.317,0.277-0.557,0.678
		c-0.319,0.451-0.453,1.076-0.398,1.871c0.106,0.824,0.385,1.662,0.836,2.51c0.08,0.348,0.425,0.863,1.035,1.555
		c0.585,0.742,1.211,1.461,1.873,2.15c1.09,1.25,2.125,2.324,3.109,3.227c1.034,0.984,2.614,2.418,4.74,4.303
		c0.902,0.797,2.217,2.285,3.944,4.463c1.806,2.178,2.92,3.717,3.345,4.621c0.106,0.238,0.333,0.557,0.678,0.955
		c0.292,0.398,0.625,0.797,0.996,1.195c0.823,0.904,1.831,2.045,3.027,3.428c1.248,1.486,2.443,2.867,3.585,4.143
		c1.275,1.486,2.112,2.936,2.511,4.344c0.398,1.432,0.452,3.094,0.158,4.979c-0.158,1.143-0.809,1.74-1.95,1.793
		c-1.089,0.055-2.405-0.451-3.944-1.514c-1.275-0.797-2.031-1.195-2.271-1.195c-0.106,0-0.213-0.066-0.318-0.199
		c-0.187-0.107-0.359-0.279-0.518-0.518c-0.346-0.398-2.23-2.404-5.657-6.016c-3.479-3.639-5.737-5.977-6.774-7.012
		c-1.033-1.037-2.071-1.926-3.106-2.67c-0.451-0.291-1.222-0.969-2.31-2.031c-1.037-0.93-2.152-1.967-3.348-3.107
		c-3.983-3.824-6.348-6.055-7.091-6.693c-0.743-0.637-1.289-0.916-1.634-0.836c-0.187,0.053-0.306,0.133-0.359,0.238
		c-0.052,0.16-0.052,0.387,0,0.678c0.161,0.479,0.439,1.088,0.838,1.832c0.345,0.797,0.718,1.475,1.116,2.033
		c0.237,0.346,0.503,0.809,0.796,1.393c0.292,0.504,0.81,1.582,1.554,3.227c0.319,0.639,0.863,1.529,1.634,2.67
		c0.85,1.143,1.527,1.953,2.031,2.43c0.239,0.266,0.61,0.838,1.115,1.713c0.505,0.85,1.023,1.795,1.555,2.83
		c1.937,3.877,3.306,6.508,4.103,7.889c0.852,1.354,1.688,2.602,2.511,3.744c0.503,0.584,1.049,1.248,1.633,1.992
		c0.558,0.797,0.93,1.447,1.115,1.953c0.61,1.141,1.263,2.256,1.952,3.346c0.505,0.689,0.824,1.381,0.956,2.07
		c0.238,0.797,0.518,2.111,0.838,3.945c0.133,0.875,0.172,1.5,0.118,1.871c-0.025,0.346-0.199,0.904-0.517,1.674
		c-0.054,0.105-0.798-0.08-2.231-0.559c-1.435-0.557-2.497-1.035-3.188-1.434c-0.902-0.531-2.217-1.727-3.944-3.586
		c-1.778-1.779-3.239-3.439-4.382-4.98c-0.848-1.168-1.619-2.125-2.31-2.865c-0.239-0.268-0.558-0.719-0.956-1.355
		c-0.398-0.586-0.771-1.209-1.116-1.873c-0.346-0.531-0.716-1.143-1.114-1.832c-0.453-0.666-0.852-1.17-1.196-1.516
		c-1.434-1.619-3.2-4.195-5.298-7.729c-1.143-1.939-1.926-3.199-2.352-3.785c-0.45-0.609-1.194-1.779-2.231-3.504
		c-0.451-0.799-0.876-1.488-1.273-2.072c-0.347-0.611-0.598-0.957-0.757-1.037c-0.293-0.264-0.438-0.463-0.438-0.596
		c0-0.266-0.398-0.891-1.195-1.873c-0.851-1.09-1.515-1.805-1.993-2.15c-1.088-0.85-1.911-0.957-2.469-0.32
		c-0.451,0.611,0.173,3.041,1.873,7.291c0.638,1.541,1.156,3.014,1.554,4.422c0.398,1.328,0.849,3.08,1.354,5.26
		c0.186,0.742,0.479,1.605,0.877,2.588c0.397,1.115,0.823,2.086,1.274,2.91c0.398,0.85,0.796,1.725,1.194,2.629
		c0.347,0.875,0.559,1.486,0.638,1.832c0.106,0.398,0.267,0.93,0.479,1.594c0.239,0.531,0.452,1.023,0.637,1.473
		c1.143,2.232,2.019,4.543,2.63,6.934c0.585,2.416,0.732,4.117,0.438,5.1c-0.053,0.346-0.197,0.689-0.438,1.035
		c-0.212,0.398-0.438,0.73-0.676,0.996c-0.398,0.398-0.679,0.598-0.838,0.598c-0.187,0.053-0.585-0.025-1.194-0.24
		c-0.744-0.184-1.502-0.582-2.271-1.193c-0.743-0.533-1.475-1.195-2.19-1.992c-0.69-0.797-3.042-5.232-7.052-13.307
		c-4.012-8.1-6.439-13.24-7.291-15.418c-0.291-0.902-1.382-3.479-3.267-7.729c-0.159-0.293-0.452-0.783-0.878-1.473
		c-0.503-0.666-0.981-1.342-1.434-2.033c-0.504-0.637-0.969-1.301-1.394-1.992c-0.451-0.689-0.758-1.195-0.916-1.514
		c-0.744-1.779-1.408-3.506-1.991-5.18c-0.559-1.646-1.011-3.068-1.355-4.262c-0.398-1.834-0.744-2.975-1.035-3.426
		c-0.346-0.744-0.997-1.66-1.953-2.75c-0.93-1.088-1.488-1.633-1.673-1.633c-0.611,0-1.262,0.146-1.952,0.438
		c-0.638,0.318-1.236,0.744-1.792,1.275c-0.585,0.559-1.01,1.063-1.275,1.514c-0.187,0.479-0.505,1.408-0.957,2.789
		c-0.69,2.045-1.154,3.531-1.394,4.463l-0.756,2.828c-0.186,0.797-0.465,1.912-0.837,3.348c-0.929,4.779-1.686,7.953-2.271,9.52
		c-0.61,1.541-1.553,3.027-2.828,4.463c-0.903,1.008-1.779,1.66-2.629,1.953c-0.797,0.396-1.634,0.449-2.51,0.158
		c-0.452-0.158-0.823-0.307-1.116-0.439c-0.266-0.266-0.491-0.543-0.677-0.836c-0.239-0.451-0.358-0.875-0.358-1.273
		c-0.053-0.348,0.013-1.131,0.199-2.352c0.212-1.861,0.346-3.16,0.398-3.904c0-0.293,0.04-0.584,0.12-0.877
		c0.105-0.346,0.186-0.598,0.239-0.758c0.052-0.186,0.146-0.477,0.278-0.875c0.107-0.398,0.186-0.824,0.239-1.275
		c0.185-1.939,0.651-4.793,1.395-8.564c0.318-1.436,0.77-3.242,1.354-5.42c0.505-1.592,0.931-3.398,1.276-5.418
		c0.398-2.043,0.823-4.594,1.275-7.646c0.345-1.994,0.836-4.424,1.474-7.293c0.239-1.141,0.491-2.443,0.756-3.904
		c0.24-1.434,0.413-2.615,0.519-3.545c0.079-0.902,0.199-1.873,0.359-2.908c0.159-1.035,0.305-1.805,0.438-2.311
		c0.345-1.273,0.398-2.072,0.16-2.391c-0.16-0.186-0.133-0.398,0.079-0.637c0.187-0.213,0.385-0.984,0.598-2.313
		c0.081-0.557,0.226-1.127,0.438-1.713c0.107-0.689,0.253-1.234,0.439-1.631c0.239-0.798,0.518-1.647,0.836-2.551
		c0.239-0.876,0.386-1.474,0.439-1.792c0-0.133,0.053-0.252,0.159-0.359c0.08-0.106,0.226-0.943,0.438-2.509
		c0.133-0.665,0.279-1.462,0.438-2.391c0.239-0.957,0.438-1.753,0.598-2.391c0.505-1.594,0.877-3.082,1.116-4.462
		c0.159-0.584,0.411-1.473,0.757-2.669c0.344-1.194,0.716-2.363,1.114-3.506c0.878-2.815,1.66-5.511,2.352-8.087
		c1.009-3.877,1.712-6.533,2.111-7.968c0.425-1.381,0.69-2.125,0.797-2.23c0.106-0.106,0.557-0.997,1.355-2.669
		c0.743-1.7,1.634-3.759,2.669-6.175c0.504-1.301,1.195-3.413,2.07-6.334c0.904-2.974,1.555-5.351,1.953-7.131l0.438-1.952
		l-0.875-0.797c-0.559-0.451-1.103-0.73-1.633-0.836c-0.665-0.053-1.608,0.066-2.83,0.358c-1.009,0.265-1.833,0.598-2.47,0.996
		c-0.638,0.398-1.328,1.037-2.071,1.913c-0.85,1.009-1.475,2.178-1.873,3.505c-0.345,0.983-0.836,2.218-1.474,3.706
		c-0.743,1.646-2.337,4.953-4.78,9.92c-1.036,2.178-1.78,3.664-2.231,4.461c-0.452,0.691-0.997,1.302-1.634,1.833
		c-0.583,0.557-1.075,0.956-1.474,1.195c-0.398,0.212-0.943,0.386-1.633,0.517l-2.112,0.438c-0.238,0.053-0.477-0.013-0.716-0.199
		c-0.292-0.212-0.691-0.558-1.195-1.035c-0.691-0.664-1.262-1.381-1.713-2.151c-0.452-0.744-1.116-2.019-1.993-3.825
		c-0.744-1.541-1.514-2.869-2.311-3.984c-0.85-1.302-1.594-2.615-2.231-3.944c-0.451-0.903-1.274-2.271-2.47-4.104
		c-1.195-1.939-1.912-2.988-2.151-3.146c-0.212-0.187-0.863-1.143-1.952-2.869c-1.142-1.806-1.926-3.147-2.351-4.024
		c-0.557-1.088-1.38-2.682-2.47-4.781c-1.089-2.019-1.78-3.28-2.071-3.785c-0.319-0.398-0.891-1.514-1.714-3.346
		c-1.248-2.63-2.841-5.83-4.781-9.602c-1.886-3.824-3.054-6.002-3.506-6.533c-0.69-1.037-1.62-2.085-2.789-3.147
		c-1.142-1.036-2.045-1.594-2.709-1.674c-0.637-0.106-1.102-0.093-1.394,0.04c-0.346,0.266-0.89,0.89-1.633,1.873
		c-0.505,0.69-0.811,1.235-0.917,1.633c-0.132,0.292-0.199,0.771-0.199,1.434c0.053,0.425,0.146,1.009,0.278,1.753
		c0.107,0.717,0.28,1.395,0.519,2.032c0.504,1.593,0.784,2.63,0.836,3.108c0.133,0.69,0.571,2.031,1.315,4.023
		c0.743,2.045,1.314,3.414,1.712,4.104c0.319,0.478,0.864,1.766,1.634,3.864c0.796,2.125,1.5,4.01,2.111,5.658
		c0.345,1.141,0.717,2.15,1.116,3.027c0.345,1.009,0.784,2.205,1.314,3.585c0.452,1.249,0.982,2.643,1.593,4.183
		c0.24,0.584,0.479,1.195,0.717,1.833c0.213,0.637,0.346,1.116,0.399,1.435l0.12,1.115l-0.877-0.916
		c-0.611-0.478-1.408-1.341-2.391-2.589c-0.876-1.195-1.738-2.218-2.589-3.068c-0.292-0.398-0.771-1.01-1.435-1.832
		c-0.691-0.903-1.328-1.806-1.913-2.709c-0.69-0.93-1.434-1.913-2.23-2.948c-0.85-1.089-1.555-1.939-2.111-2.55
		c-0.584-0.584-1.142-1.221-1.674-1.912c-0.557-0.797-0.93-1.368-1.115-1.713c-0.266-0.398-0.717-0.943-1.354-1.634
		c-0.584-0.69-1.235-1.367-1.953-2.032c-0.637-0.584-1.274-1.221-1.912-1.912c-0.69-0.637-1.142-1.115-1.354-1.434
		c-2.231-2.975-4.488-5.698-6.772-8.167c-2.311-2.47-3.997-3.958-5.06-4.462c-0.797-0.399-1.487-0.625-2.072-0.678
		c-0.584-0.053-1.248,0.067-1.992,0.358c-0.691,0.319-1.222,0.717-1.594,1.195c-0.345,0.505-0.544,1.222-0.597,2.151
		c-0.081,0.957,0.079,1.833,0.478,2.63c0.345,0.797,1.354,2.284,3.027,4.461c2.922,3.958,5.06,7.131,6.415,9.522
		c0.452,0.796,1.448,2.43,2.989,4.9c1.513,2.444,3.146,4.954,4.899,7.53c0.292,0.398,0.731,0.969,1.315,1.713
		c0.664,0.744,1.261,1.435,1.792,2.072c0.85,0.85,1.567,1.687,2.151,2.51c0.558,0.797,1.155,1.819,1.793,3.068
		c1.54,2.974,2.032,4.461,1.474,4.461c-0.133,0-1.222-0.864-3.267-2.59c-1.965-1.646-3.692-3.015-5.179-4.104
		c-1.407-1.036-2.683-2.059-3.825-3.067c-1.221-1.169-2.802-2.576-4.74-4.224c-1.939-1.699-3.2-2.748-3.785-3.147
		c-1.887-1.275-4.051-3.054-6.494-5.338c-1.381-1.249-3.094-2.537-5.14-3.865c-2.018-1.381-3.373-2.178-4.063-2.391
		c-1.488-0.292-2.563,0.026-3.227,0.956c-0.186,0.372-0.332,0.73-0.438,1.076c-0.053,0.398-0.08,1.036-0.08,1.913
		c0,0.611,0.026,1.128,0.08,1.553c0.054,0.453,0.106,0.731,0.16,0.838c0.106,0.106,0.199,0.251,0.279,0.438
		c0.053,0.106,0.08,0.253,0.08,0.439c0,0.451,1.076,1.726,3.226,3.824c2.125,2.018,4.131,3.745,6.016,5.179
		c1.833,1.355,3.439,2.696,4.821,4.024c1.301,1.302,2.549,2.735,3.744,4.303c0.983,1.302,2.191,2.723,3.626,4.262
		c1.381,1.541,2.443,2.523,3.187,2.949c0.691,0.558,2.058,1.859,4.103,3.904c2.045,2.071,3.307,3.452,3.785,4.143
		c0.212,0.292,0.385,0.61,0.518,0.956c0.213,0.399,0.346,0.73,0.399,0.997l0.04,0.876l-1.036-0.239
		c-0.479-0.026-1.421-0.372-2.829-1.036c-1.488-0.638-2.643-1.222-3.467-1.753c-0.558-0.317-1.673-0.849-3.347-1.593
		c-1.699-0.745-2.775-1.156-3.226-1.235c-0.531-0.106-1.514-0.465-2.948-1.076c-1.408-0.532-2.311-0.943-2.709-1.236
		c-0.425-0.265-1.607-0.769-3.545-1.513c-0.797-0.345-1.647-0.717-2.55-1.116c-0.823-0.397-1.434-0.717-1.833-0.956
		c-1.54-0.903-3.426-1.541-5.657-1.912c-0.664-0.16-1.381-0.067-2.151,0.278c-1.063,0.452-1.633,1.024-1.713,1.713
		c-0.16,0.638,0.08,1.634,0.717,2.989c0.505,1.088,1.076,1.898,1.713,2.43c0.558,0.558,1.634,1.275,3.228,2.151
		c1.726,0.957,3.014,1.753,3.864,2.39c0.744,0.559,1.355,1.009,1.833,1.354c1.009,0.478,1.727,0.824,2.152,1.036
		c0.451,0.239,0.784,0.358,0.996,0.358c0.133,0,0.332,0.053,0.598,0.159c0.239,0.159,0.478,0.305,0.717,0.438
		c0.69,0.452,2.536,1.594,5.537,3.426c1.275,0.797,2.537,1.593,3.785,2.391c1.223,0.85,2.059,1.447,2.51,1.792
		c0.451,0.398,1.049,0.836,1.792,1.315c0.69,0.504,1.341,0.876,1.953,1.115c0.876,0.611,2.111,1.555,3.705,2.829
		c1.646,1.302,3.333,2.789,5.06,4.462c0.796,0.743,1.633,1.687,2.509,2.828c0.903,1.195,1.354,1.94,1.354,2.231
		c0,0.16,0.319,0.704,0.957,1.634c0.61,0.902,1.606,2.736,2.987,5.498c1.037,2.098,1.78,3.492,2.232,4.183
		c0.504,0.638,1.566,1.833,3.187,3.586c1.487,1.486,2.51,2.602,3.068,3.346c0.583,0.744,1.182,1.727,1.792,2.949
		c1.966,3.664,3.028,7.41,3.188,11.232c0.185,3.824-0.465,8.34-1.953,13.545c-0.292,0.957-0.757,2.816-1.394,5.578
		c-0.851,3.666-2.245,7.836-4.184,12.51c-1.886,4.699-3.666,8.393-5.338,11.074c-1.036,1.646-2.75,4.105-5.14,7.371
		c-2.417,3.32-3.997,5.379-4.74,6.176c-1.541,1.619-4.197,3.771-7.969,6.453c-1.434,1.01-2.748,1.887-3.943,2.629
		c-11.155-9.375-20.849-18.83-29.082-28.363c-37.608-43.426-45.045-88.059-22.31-133.9c6.692-11.234,14.104-20.278,22.23-27.13
		c0.69-0.558,1.381-1.103,2.072-1.634c23.957-18.591,54.008-18.591,90.155,0c6.56,3.373,13.333,7.383,20.318,12.032
		c7.488-4.754,14.727-8.765,21.712-12.032c28.922-13.599,53.796-14.886,74.619-3.865C249.243,42.155,250.134,42.673,251.038,43.231z
		"/>
	<path fill-rule="evenodd" clip-rule="evenodd" fill="#D81F26" d="M188.769,74.624c1.195-1.301,2.338-2.59,3.426-3.865
		c9.935-11.606,20.545-19.574,31.832-23.903c1.302-0.479,2.591-0.917,3.864-1.315c6.561-2.044,13.387-2.895,20.479-2.55
		c0.874,0.053,1.765,0.133,2.669,0.239c11.95,7.038,22.521,18.299,31.711,33.784c37.13,74.923-6.295,146.62-130.273,215.091
		c-33.73-18.301-61.671-36.813-83.821-55.537c1.195-0.742,2.51-1.619,3.943-2.629c3.772-2.682,6.428-4.834,7.969-6.453
		c0.743-0.797,2.323-2.855,4.74-6.176c2.39-3.266,4.104-5.725,5.14-7.371c1.673-2.682,3.452-6.375,5.338-11.074
		c1.938-4.674,3.333-8.844,4.184-12.51c0.637-2.762,1.101-4.621,1.394-5.578c1.487-5.205,2.138-9.721,1.953-13.545
		c-0.159-3.822-1.222-7.568-3.188-11.232c-0.611-1.223-1.209-2.205-1.792-2.949c-0.558-0.744-1.581-1.859-3.068-3.346
		c-1.62-1.754-2.683-2.949-3.187-3.586c-0.452-0.69-1.195-2.085-2.232-4.183c-1.381-2.762-2.377-4.596-2.987-5.498
		c-0.638-0.93-0.957-1.474-0.957-1.634c0-0.291-0.452-1.036-1.354-2.231c-0.876-1.142-1.713-2.085-2.509-2.828
		c-1.727-1.673-3.414-3.161-5.06-4.462c-1.594-1.274-2.829-2.218-3.705-2.829c-0.611-0.239-1.262-0.611-1.953-1.115
		c-0.744-0.479-1.342-0.917-1.792-1.315c-0.452-0.345-1.288-0.943-2.51-1.792c-1.248-0.797-2.509-1.593-3.785-2.391
		c-3.001-1.832-4.847-2.974-5.537-3.426c-0.24-0.133-0.478-0.279-0.717-0.438c-0.266-0.106-0.465-0.159-0.598-0.159
		c-0.212,0-0.545-0.12-0.996-0.358c-0.425-0.212-1.143-0.558-2.152-1.036c-0.478-0.345-1.088-0.796-1.833-1.354
		c-0.85-0.637-2.138-1.433-3.864-2.39c-1.594-0.876-2.669-1.593-3.228-2.151c-0.637-0.532-1.208-1.341-1.713-2.43
		c-0.637-1.355-0.876-2.351-0.717-2.989c0.08-0.689,0.65-1.261,1.713-1.713c0.77-0.345,1.487-0.438,2.151-0.278
		c2.231,0.372,4.117,1.009,5.657,1.912c0.399,0.239,1.009,0.559,1.833,0.956c0.903,0.399,1.753,0.771,2.55,1.116
		c1.938,0.744,3.121,1.248,3.545,1.513c0.398,0.293,1.301,0.704,2.709,1.236c1.435,0.611,2.417,0.97,2.948,1.076
		c0.451,0.079,1.527,0.491,3.226,1.235c1.674,0.744,2.789,1.275,3.347,1.593c0.824,0.532,1.979,1.116,3.467,1.753
		c1.407,0.664,2.35,1.009,2.829,1.036l1.036,0.239l-0.04-0.876c-0.053-0.266-0.186-0.598-0.399-0.997
		c-0.133-0.345-0.306-0.663-0.518-0.956c-0.478-0.691-1.74-2.072-3.785-4.143c-2.045-2.045-3.412-3.346-4.103-3.904
		c-0.744-0.425-1.806-1.408-3.187-2.949c-1.435-1.54-2.643-2.96-3.626-4.262c-1.195-1.567-2.443-3.001-3.744-4.303
		c-1.381-1.328-2.988-2.669-4.821-4.024c-1.885-1.434-3.891-3.161-6.016-5.179c-2.15-2.098-3.226-3.373-3.226-3.824
		c0-0.186-0.027-0.333-0.08-0.439c-0.08-0.186-0.173-0.332-0.279-0.438c-0.053-0.107-0.106-0.385-0.16-0.838
		c-0.053-0.424-0.08-0.942-0.08-1.553c0-0.877,0.026-1.514,0.08-1.913c0.106-0.345,0.253-0.704,0.438-1.076
		c0.664-0.93,1.739-1.248,3.227-0.956c0.69,0.213,2.045,1.009,4.063,2.391c2.045,1.328,3.758,2.616,5.14,3.865
		c2.443,2.284,4.607,4.063,6.494,5.338c0.584,0.399,1.845,1.448,3.785,3.147c1.938,1.647,3.519,3.054,4.74,4.224
		c1.143,1.008,2.418,2.031,3.825,3.067c1.487,1.089,3.214,2.457,5.179,4.104c2.045,1.726,3.134,2.59,3.267,2.59
		c0.558,0,0.066-1.487-1.474-4.461c-0.638-1.25-1.235-2.271-1.793-3.068c-0.584-0.823-1.302-1.66-2.151-2.51
		c-0.532-0.637-1.129-1.328-1.792-2.072c-0.584-0.744-1.023-1.314-1.315-1.713c-1.752-2.576-3.386-5.086-4.899-7.53
		c-1.541-2.47-2.537-4.104-2.989-4.9c-1.354-2.391-3.493-5.564-6.415-9.522c-1.673-2.178-2.682-3.665-3.027-4.461
		c-0.398-0.796-0.558-1.673-0.478-2.63c0.053-0.929,0.252-1.646,0.597-2.151c0.372-0.478,0.903-0.876,1.594-1.195
		c0.744-0.292,1.408-0.411,1.992-0.358c0.584,0.053,1.275,0.279,2.072,0.678c1.063,0.504,2.749,1.992,5.06,4.462
		c2.284,2.469,4.542,5.192,6.772,8.167c0.213,0.318,0.664,0.796,1.354,1.434c0.638,0.691,1.275,1.328,1.912,1.912
		c0.718,0.665,1.368,1.341,1.953,2.032c0.637,0.691,1.088,1.235,1.354,1.634c0.185,0.345,0.558,0.916,1.115,1.713
		c0.532,0.69,1.089,1.327,1.674,1.912c0.557,0.611,1.261,1.461,2.111,2.55c0.796,1.035,1.541,2.018,2.23,2.948
		c0.584,0.903,1.222,1.806,1.913,2.709c0.664,0.822,1.142,1.434,1.435,1.832c0.851,0.85,1.713,1.873,2.589,3.068
		c0.983,1.248,1.78,2.111,2.391,2.589l0.877,0.916l-0.12-1.115c-0.053-0.319-0.186-0.797-0.399-1.435
		c-0.239-0.638-0.478-1.249-0.717-1.833c-0.611-1.54-1.142-2.935-1.593-4.183c-0.531-1.381-0.969-2.576-1.314-3.585
		c-0.398-0.876-0.771-1.886-1.116-3.027c-0.611-1.648-1.314-3.533-2.111-5.658c-0.771-2.098-1.315-3.387-1.634-3.864
		c-0.398-0.69-0.97-2.059-1.712-4.104c-0.744-1.992-1.182-3.333-1.315-4.023c-0.052-0.478-0.332-1.515-0.836-3.108
		c-0.239-0.637-0.412-1.314-0.519-2.032c-0.132-0.744-0.226-1.328-0.278-1.753c0-0.664,0.066-1.142,0.199-1.434
		c0.106-0.398,0.412-0.943,0.917-1.633c0.743-0.982,1.288-1.607,1.633-1.873c0.292-0.133,0.757-0.146,1.394-0.04
		c0.664,0.08,1.567,0.638,2.709,1.674c1.168,1.062,2.098,2.111,2.789,3.147c0.452,0.531,1.62,2.708,3.506,6.533
		c1.939,3.771,3.533,6.972,4.781,9.602c0.823,1.833,1.395,2.948,1.714,3.346c0.291,0.505,0.982,1.766,2.071,3.785
		c1.089,2.099,1.913,3.692,2.47,4.781c0.425,0.876,1.209,2.218,2.351,4.024c1.089,1.727,1.74,2.683,1.952,2.869
		c0.239,0.159,0.957,1.208,2.151,3.146c1.195,1.833,2.019,3.2,2.47,4.104c0.638,1.329,1.381,2.642,2.231,3.944
		c0.797,1.115,1.567,2.443,2.311,3.984c0.876,1.806,1.541,3.081,1.993,3.825c0.451,0.77,1.021,1.487,1.713,2.151
		c0.504,0.478,0.903,0.823,1.195,1.035c0.239,0.187,0.478,0.252,0.716,0.199l2.112-0.438c0.69-0.131,1.234-0.305,1.633-0.517
		c0.398-0.239,0.891-0.638,1.474-1.195c0.638-0.531,1.182-1.142,1.634-1.833c0.451-0.797,1.195-2.283,2.231-4.461
		c2.443-4.967,4.037-8.274,4.78-9.92c0.638-1.487,1.129-2.722,1.474-3.706c0.398-1.327,1.023-2.496,1.873-3.505
		c0.744-0.876,1.434-1.514,2.071-1.913c0.637-0.398,1.46-0.73,2.47-0.996c1.222-0.292,2.165-0.412,2.83-0.358
		c0.53,0.106,1.074,0.385,1.633,0.836l0.875,0.797l-0.438,1.952c-0.398,1.78-1.049,4.157-1.953,7.131
		c-0.875,2.922-1.566,5.034-2.07,6.334c-1.035,2.417-1.926,4.475-2.669,6.175c-0.798,1.673-1.249,2.563-1.355,2.669
		c-0.106,0.106-0.372,0.849-0.797,2.23c-0.398,1.435-1.102,4.091-2.111,7.968c-0.692,2.576-1.474,5.271-2.352,8.087
		c-0.398,1.143-0.771,2.312-1.114,3.506c-0.346,1.196-0.598,2.085-0.757,2.669c-0.239,1.381-0.611,2.868-1.116,4.462
		c-0.16,0.638-0.359,1.434-0.598,2.391c-0.159,0.929-0.305,1.726-0.438,2.391c-0.212,1.566-0.358,2.403-0.438,2.509
		c-0.106,0.107-0.159,0.226-0.159,0.359c-0.053,0.318-0.2,0.916-0.439,1.792c-0.318,0.903-0.597,1.753-0.836,2.551
		c-0.186,0.397-0.332,0.942-0.439,1.631c-0.212,0.586-0.357,1.156-0.438,1.713c-0.213,1.328-0.412,2.1-0.598,2.313
		c-0.212,0.238-0.238,0.451-0.079,0.637c0.239,0.318,0.186,1.117-0.16,2.391c-0.133,0.506-0.278,1.275-0.438,2.311
		c-0.161,1.035-0.281,2.006-0.359,2.908c-0.106,0.93-0.278,2.111-0.519,3.545c-0.265,1.461-0.517,2.764-0.756,3.904
		c-0.638,2.869-1.129,5.299-1.474,7.293c-0.452,3.053-0.876,5.604-1.275,7.646c-0.345,2.02-0.771,3.826-1.276,5.418
		c-0.583,2.178-1.035,3.984-1.354,5.42c-0.744,3.771-1.209,6.625-1.395,8.564c-0.053,0.451-0.132,0.877-0.239,1.275
		c-0.132,0.398-0.226,0.689-0.278,0.875c-0.053,0.16-0.134,0.412-0.239,0.758c-0.08,0.293-0.12,0.584-0.12,0.877
		c-0.053,0.744-0.186,2.043-0.398,3.904c-0.186,1.221-0.251,2.004-0.199,2.352c0,0.398,0.12,0.822,0.358,1.273
		c0.186,0.293,0.411,0.57,0.677,0.836c0.292,0.133,0.664,0.281,1.116,0.439c0.876,0.291,1.713,0.238,2.51-0.158
		c0.85-0.293,1.726-0.945,2.629-1.953c1.275-1.436,2.218-2.922,2.828-4.463c0.585-1.566,1.342-4.74,2.271-9.52
		c0.373-1.436,0.652-2.551,0.837-3.348l0.756-2.828c0.24-0.932,0.704-2.418,1.394-4.463c0.452-1.381,0.771-2.311,0.957-2.789
		c0.266-0.451,0.69-0.955,1.275-1.514c0.557-0.531,1.155-0.957,1.792-1.275c0.69-0.291,1.34-0.438,1.952-0.438
		c0.186,0,0.743,0.545,1.673,1.633c0.956,1.09,1.607,2.006,1.953,2.75c0.292,0.451,0.637,1.592,1.035,3.426
		c0.345,1.193,0.797,2.615,1.355,4.262c0.583,1.674,1.247,3.4,1.991,5.18c0.158,0.318,0.465,0.824,0.916,1.514
		c0.425,0.691,0.89,1.355,1.394,1.992c0.452,0.691,0.931,1.367,1.434,2.033c0.426,0.689,0.719,1.18,0.878,1.473
		c1.885,4.25,2.976,6.826,3.267,7.729c0.852,2.178,3.279,7.318,7.291,15.418c4.01,8.074,6.361,12.51,7.052,13.307
		c0.716,0.797,1.447,1.459,2.19,1.992c0.77,0.611,1.527,1.01,2.271,1.193c0.609,0.215,1.008,0.293,1.194,0.24
		c0.159,0,0.439-0.199,0.838-0.598c0.237-0.266,0.464-0.598,0.676-0.996c0.24-0.346,0.385-0.689,0.438-1.035
		c0.295-0.982,0.147-2.684-0.438-5.1c-0.611-2.391-1.487-4.701-2.63-6.934c-0.185-0.449-0.397-0.941-0.637-1.473
		c-0.212-0.664-0.372-1.195-0.479-1.594c-0.079-0.346-0.291-0.957-0.638-1.832c-0.398-0.904-0.796-1.779-1.194-2.629
		c-0.451-0.824-0.877-1.795-1.274-2.91c-0.398-0.982-0.691-1.846-0.877-2.588c-0.505-2.18-0.955-3.932-1.354-5.26
		c-0.397-1.408-0.916-2.881-1.554-4.422c-1.7-4.25-2.324-6.68-1.873-7.291c0.558-0.637,1.381-0.529,2.469,0.32
		c0.479,0.346,1.143,1.061,1.993,2.15c0.797,0.982,1.195,1.607,1.195,1.873c0,0.133,0.146,0.332,0.438,0.596
		c0.159,0.08,0.41,0.426,0.757,1.037c0.397,0.584,0.822,1.273,1.273,2.072c1.037,1.725,1.781,2.895,2.231,3.504
		c0.426,0.586,1.209,1.846,2.352,3.785c2.098,3.533,3.864,6.109,5.298,7.729c0.345,0.346,0.743,0.85,1.196,1.516
		c0.398,0.689,0.769,1.301,1.114,1.832c0.345,0.664,0.718,1.287,1.116,1.873c0.398,0.637,0.717,1.088,0.956,1.355
		c0.69,0.74,1.462,1.697,2.31,2.865c1.143,1.541,2.604,3.201,4.382,4.98c1.728,1.859,3.042,3.055,3.944,3.586
		c0.691,0.398,1.754,0.877,3.188,1.434c1.434,0.479,2.178,0.664,2.231,0.559c0.317-0.77,0.491-1.328,0.517-1.674
		c0.054-0.371,0.015-0.996-0.118-1.871c-0.32-1.834-0.6-3.148-0.838-3.945c-0.132-0.689-0.451-1.381-0.956-2.07
		c-0.689-1.09-1.342-2.205-1.952-3.346c-0.186-0.506-0.558-1.156-1.115-1.953c-0.584-0.744-1.13-1.408-1.633-1.992
		c-0.823-1.143-1.659-2.391-2.511-3.744c-0.797-1.381-2.166-4.012-4.103-7.889c-0.531-1.035-1.05-1.98-1.555-2.83
		c-0.505-0.875-0.876-1.447-1.115-1.713c-0.504-0.477-1.182-1.287-2.031-2.43c-0.771-1.141-1.314-2.031-1.634-2.67
		c-0.744-1.645-1.262-2.723-1.554-3.227c-0.293-0.584-0.559-1.047-0.796-1.393c-0.398-0.559-0.771-1.236-1.116-2.033
		c-0.398-0.744-0.677-1.354-0.838-1.832c-0.052-0.291-0.052-0.518,0-0.678c0.054-0.105,0.173-0.186,0.359-0.238
		c0.345-0.08,0.891,0.199,1.634,0.836c0.743,0.639,3.107,2.869,7.091,6.693c1.195,1.141,2.311,2.178,3.348,3.107
		c1.088,1.063,1.858,1.74,2.31,2.031c1.035,0.744,2.073,1.633,3.106,2.67c1.037,1.035,3.295,3.373,6.774,7.012
		c3.427,3.611,5.312,5.617,5.657,6.016c0.158,0.238,0.331,0.41,0.518,0.518c0.105,0.133,0.212,0.199,0.318,0.199
		c0.24,0,0.996,0.398,2.271,1.195c1.539,1.063,2.855,1.568,3.944,1.514c1.142-0.053,1.792-0.65,1.95-1.793
		c0.294-1.885,0.24-3.547-0.158-4.979c-0.398-1.408-1.235-2.857-2.511-4.344c-1.142-1.275-2.337-2.656-3.585-4.143
		c-1.196-1.383-2.204-2.523-3.027-3.428c-0.371-0.398-0.704-0.797-0.996-1.195c-0.345-0.398-0.571-0.717-0.678-0.955
		c-0.425-0.904-1.539-2.443-3.345-4.621c-1.728-2.178-3.042-3.666-3.944-4.463c-2.126-1.885-3.706-3.318-4.74-4.303
		c-0.984-0.902-2.02-1.977-3.109-3.227c-0.662-0.689-1.288-1.408-1.873-2.15c-0.61-0.691-0.955-1.207-1.035-1.555
		c-0.451-0.848-0.729-1.686-0.836-2.51c-0.055-0.795,0.079-1.42,0.398-1.871c0.239-0.4,0.424-0.623,0.557-0.678
		c0.266-0.053,0.797-0.027,1.595,0.08c0.478,0.053,1.021,0.172,1.635,0.357c0.635,0.16,1.18,0.332,1.631,0.52
		c0.93,0.449,1.568,0.676,1.912,0.676c0.453,0,2.563,0.678,6.335,2.033c3.771,1.326,6.202,2.217,7.291,2.668l5.06,2.59
		c2.045,1.09,4.077,2.031,6.096,2.828c2.045,0.797,3.505,1.248,4.383,1.355c0.69,0.053,1.167,0.053,1.434,0
		c0.187-0.107,0.451-0.332,0.797-0.678c0.901-0.982,0.955-2.271,0.158-3.863c-0.797-1.648-2.336-3.281-4.62-4.9
		c-0.93-0.744-1.568-1.316-1.913-1.713c-0.398-0.4-0.943-0.852-1.633-1.355c-0.797-0.506-1.939-1.168-3.426-1.992
		c-2.338-1.303-3.932-2.178-4.78-2.629c-0.798-0.346-1.409-0.584-1.835-0.717c-0.609-0.107-2.15-0.758-4.619-1.953
		c-1.037-0.504-2.086-0.969-3.149-1.393c-1.088-0.451-1.897-0.785-2.429-0.998c-2.577-0.822-5.206-2.178-7.888-4.063
		c-2.684-1.885-4.889-3.945-6.614-6.176c-0.742-0.902-1.834-2.551-3.268-4.939c-1.459-2.311-2.19-3.598-2.19-3.865
		c0-0.238-0.371-1.273-1.115-3.107c-0.691-1.646-1.275-3.213-1.752-4.701c-0.451-1.381-0.983-2.522-1.595-3.426
		c-0.531-0.983-1.474-2.245-2.829-3.784c-1.326-1.488-2.217-2.63-2.669-3.427c-0.451-0.797-0.942-2.085-1.474-3.865
		c-0.611-1.726-1.037-3.611-1.274-5.657c-0.291-2.018-0.491-4.421-0.598-7.21c-0.105-3.215-0.027-5.909,0.238-8.087
		c0.241-2.231,0.783-4.966,1.634-8.208c0.583-2.576,1.209-4.7,1.872-6.374c0.532-1.701,1.659-4.609,3.388-8.725
		c1.195-2.816,2.124-4.993,2.787-6.534c1.171-2.921,2.205-5.179,3.108-6.772C186.817,77.161,187.68,75.899,188.769,74.624z"/>
</g>
</svg>
