<?xml version="1.0" encoding="utf-8"?>
<!-- Generator: Adobe Illustrator 16.0.0, SVG Export Plug-In . SVG Version: 6.00 Build 0)  -->
<!DOCTYPE svg PUBLIC "-//W3C//DTD SVG 1.1//EN" "http://www.w3.org/Graphics/SVG/1.1/DTD/svg11.dtd">
<svg version="1.1" id="Layer_1" xmlns="http://www.w3.org/2000/svg" xmlns:xlink="http://www.w3.org/1999/xlink" x="0px" y="0px"
	 width="300px" height="300px" viewBox="0 0 300 300" enable-background="new 0 0 300 300" xml:space="preserve">
<g>
	<path fill-rule="evenodd" clip-rule="evenodd" fill="#FFFFFF" d="M83.771,210.938c-22.542-37.168-35.854-69.336-39.936-96.503
		c-4.059-24.424-1.088-45.503,8.913-63.237C80.528,8.155,115.452,5.422,157.519,43c0.386,0.431,0.782,0.816,1.19,1.156
		c0.545,0.544,1.101,1.088,1.667,1.633c3.675,3.606,7.563,7.654,11.668,12.144c9.456,11.634,13.164,19.152,11.123,22.554
		c39.028,4.853,58.984,19.933,59.869,45.241c0.884,25.287-4.139,44.267-15.069,56.943c-10.976,12.633-25.138,24.447-42.486,35.445
		c-4.468,2.813-11.464,6.984-20.988,12.52c-2.971,1.678-5.636,3.23-7.994,4.658l0.068-0.066
		c-14.06,6.711-22.609,12.188-25.648,16.43c-1.429,1.338-2.744,3.129-3.946,5.375c-0.953,1.723-1.599,3.299-1.939,4.729
		c-4.921-3.402-12.042-10.943-21.362-22.621c-5.216-6.6-10.307-13.527-15.273-20.785c-1.52-2.404-3.016-4.785-4.49-7.143
		l0.749-0.137c1.066-0.137,2.438-0.725,4.116-1.77c1.724-1.064,3.209-2.244,4.457-3.537c1.202-1.338,2.222-2.938,3.062-4.797
		c0.884-1.859,1.372-3.627,1.462-5.307l0.272-2.754l3.062,2.822c1.86,1.701,4.196,3.447,7.008,5.238
		c2.789,1.77,5.556,3.277,8.3,4.525c6.282,3.016,13.708,5,22.281,5.953c8.685,1.088,16.328,0.986,22.927-0.307
		c1.814-0.408,3.267-0.861,4.354-1.361c0.93-0.453,1.326-0.918,1.19-1.395c-0.228-0.498-1.338-0.906-3.334-1.225
		c-2.019-0.316-4.501-0.477-7.448-0.477c-1.679,0-2.574-0.057-2.688-0.17c-0.047-0.182,0.702-0.498,2.244-0.953
		c4.898-1.631,8.562-4.217,10.988-7.754c2.448-3.424,3.072-6.975,1.87-10.648c-0.408-1.156-1.156-2.482-2.245-3.979
		c-1.111-1.43-2.109-2.381-2.993-2.857c-0.771-0.363-0.511,0.09,0.782,1.359c3.175,3.063,4.252,6.408,3.23,10.035
		c-1.043,3.561-3.764,6.021-8.163,7.381c-4.966,1.43-10.885,1.441-17.756,0.035c-6.872-1.383-12.779-3.811-17.723-7.279
		c-6.44-4.422-11.962-10.342-16.566-17.758c-4.604-7.369-7.971-15.727-10.103-25.069c-1.542-6.85-2.188-13.879-1.939-21.091
		c0.295-7.188,1.452-13.709,3.47-19.56c1.111-2.925,1.917-4.751,2.415-5.477c0.544-0.703,0.408,0.25-0.408,2.857
		c-3.266,10.5-4.094,21.227-2.483,32.18c0.726,5.307,2.619,10.998,5.681,17.077c3.107,6.078,6.18,10.271,9.219,12.586
		c0.476,0.25,0.793,0.453,0.952,0.611c0.25,0.092,0.283,0.012,0.102-0.238c-2.109-2.607-3.572-4.568-4.388-5.883
		c-0.771-1.182-1.792-3.164-3.062-5.953c-1.021-2.27-1.78-4.105-2.279-5.511c-0.477-1.315-0.851-2.846-1.123-4.593
		c-0.748-4.149-0.907-8.504-0.476-13.062c0.499-4.604,1.553-8.98,3.163-13.131c1.814-4.672,3.969-8.617,6.463-11.838
		c2.472-3.175,6.826-7.461,13.063-12.858c7.914-6.894,13.254-12.393,16.021-16.498c2.63-4.06,3.764-8.345,3.401-12.858
		c-0.09-0.658-0.09-1.236,0-1.735c0-0.589,0.046-0.952,0.136-1.088c0.272-0.182,0.93,0.045,1.973,0.681
		c0.93,0.635,1.905,1.44,2.926,2.415c0.499,0.544,1.077,1.327,1.735,2.347c0.68,0.975,1.281,1.95,1.803,2.925
		c1.27,2.335,2.006,4.422,2.211,6.259c0.249,1.792,0.057,4.025-0.578,6.701c-0.862,3.605-1.168,6.055-0.918,7.348
		c0.157,1.292,1.064,3.322,2.721,6.089c1.496,2.607,2.188,4.218,2.074,4.83c-0.09,0.635-1.156,1.292-3.197,1.973l-2.959,0.919
		l0.885,1.122c0.611,0.839,1.054,1.576,1.326,2.211c0.227,0.454,0.441,0.636,0.646,0.545c0.136-0.137,0.669-0.828,1.599-2.075
		c3.106-4.15,7.518-7.03,13.232-8.641c5.669-1.564,11.044-1.451,16.123,0.341c6.237,2.132,10.388,6.213,12.451,12.246
		c2.018,5.941,1.688,13.221-0.987,21.838c-0.271,0.953-0.498,1.871-0.68,2.756c-0.137,0.839-0.182,1.439-0.137,1.803
		c0.09,0.295,0.363,0.896,0.816,1.803c0.454,0.839,0.964,1.689,1.531,2.551c1.973,2.994,3.299,5.228,3.979,6.702
		c0.703,1.428,1.236,3.039,1.599,4.83c0.998,5.805-0.012,13.029-3.027,21.668c-0.635,1.883-1.123,3.471-1.463,4.762
		c-0.316,1.385-0.464,2.189-0.441,2.416c0.158,0.227,0.476,0.158,0.952-0.203c0.589-0.297,1.201-0.828,1.837-1.6
		c2.88-3.402,5.907-8.867,9.082-16.395c3.13-7.576,5.363-14.719,6.701-21.431c2.473-13.244,1.508-24.345-2.891-33.303
		c-4.423-8.935-12.1-15.341-23.029-19.219c-5.67-1.996-9.469-3.401-11.396-4.218c-1.949-0.862-3.537-1.78-4.762-2.756
		c-2.223-1.746-4.207-3.867-5.953-6.361c-1.678-2.449-4.195-6.69-7.551-12.722c-0.885-1.701-1.85-3.368-2.893-5
		c-0.93-1.61-1.655-2.71-2.177-3.299c-3.718-4.604-8.22-7.382-13.504-8.334c-0.839-0.159-1.951-0.488-3.334-0.987
		c-1.292-0.454-2.483-0.918-3.572-1.395c-4.581-2.291-9.173-3.81-13.777-4.558c-4.604-0.749-9.15-0.749-13.64,0
		c-2.154,0.385-4.819,1.19-7.994,2.415c-3.129,1.202-5.692,2.426-7.688,3.674c-2.721,1.655-5.624,4.082-8.708,7.279
		c-3.129,3.152-5.941,6.531-8.436,10.137c-6.667,9.593-10.84,19.923-12.518,30.989c-1.747,11.044-1.1,23.222,1.939,36.533
		c1.633,7.234,4.036,15.001,7.211,23.301c3.13,8.256,6.702,16.227,10.715,23.914c2.608,5.033,4.332,8.641,5.17,10.816
		c0.794,2.201,1.281,4.434,1.463,6.701c0.272,3.107-0.261,5.998-1.599,8.676c-1.383,2.674-3.334,4.568-5.851,5.68L83.771,210.938z
		 M152.553,113.073c0.182,0.363,0.271,0.76,0.271,1.19c0.046,0.409,0,0.771-0.136,1.089c-0.136,0.499-0.341,0.794-0.612,0.885
		c-0.25,0.091-0.851,0.091-1.803,0l-2.075-0.204l0.544,2.007c0.431,1.746,0.68,3.062,0.748,3.946c0,0.997-0.227,1.87-0.68,2.618
		c-0.363,0.567-0.726,0.941-1.088,1.123c-0.363,0.182-1.1,0.341-2.211,0.477c-0.703,0.045-1.485,0.045-2.347,0
		c-0.839,0-1.474-0.091-1.905-0.272c-1.225-0.317-1.905-0.453-2.041-0.408c-0.182,0.091-1.202-0.215-3.062-0.919
		c-1.882-0.725-3.606-1.462-5.17-2.211c-1.837-0.839-3.13-1.19-3.878-1.054c-0.748,0.067-1.338,0.635-1.769,1.7
		c-0.385,1.043-0.51,2.438-0.374,4.185c0.136,1.678,0.51,3.163,1.123,4.456c0.68,1.542,1.848,3.311,3.503,5.307
		c1.701,2.019,3.266,3.537,4.694,4.558c1.61,1.202,5.998,3.118,13.164,5.749c5.692,2.109,9.888,3.878,12.586,5.306
		c2.835,1.475,5.126,3.107,6.872,4.898c1.133,1.201,1.916,2.199,2.346,2.994c0.34,0.703,0.511,1.666,0.511,2.891
		c0.091,0.816,0.228,1.045,0.408,0.68c0.272-0.361,0.919-1.676,1.938-3.945c0.658-1.406,1.373-2.914,2.144-4.523
		c0.952-1.52,1.712-2.631,2.278-3.334l2.076-2.755l-3.946,1.566c-2.245,0.928-3.923,1.439-5.034,1.529
		c-1.156,0.045-2.303-0.295-3.436-1.02c-0.386-0.318-0.783-0.692-1.191-1.124c-0.453-0.499-0.771-0.941-0.951-1.326
		c-0.205-0.498-0.466-0.885-0.783-1.156c-0.316-0.272-0.748-0.5-1.293-0.681c-0.702-0.091-1.122-0.249-1.258-0.476
		c-0.092-0.159-0.114-0.511-0.068-1.055c0.137-0.545,0.158-0.907,0.068-1.089c-0.092-0.158-0.408-0.329-0.953-0.511
		c-0.793-0.271-1.235-0.544-1.326-0.815c-0.068-0.228,0.068-0.737,0.408-1.531l0.544-1.19l-1.735-0.715
		c-1.156-0.476-1.824-0.975-2.007-1.496c-0.091-0.499,0.216-1.19,0.919-2.075c0.363-0.431,0.736-0.952,1.122-1.564
		c0.431-0.681,0.703-1.259,0.817-1.735c0.316-0.839,0.476-1.474,0.476-1.905c-0.091-0.294-0.465-0.952-1.122-1.973
		c-0.861-1.36-1.85-3.152-2.96-5.374c-0.816-1.77-1.259-3.356-1.327-4.763c-0.113-1.383,0.137-3.141,0.75-5.272l0.577-2.007h-1.327
		c-0.861-0.068-1.326-0.022-1.395,0.136C152.065,112.018,152.189,112.416,152.553,113.073z"/>
	<path fill-rule="evenodd" clip-rule="evenodd" fill="#010101" d="M83.907,211.211l-0.918,0.135l0.783-0.408l0.442-0.271
		c2.517-1.111,4.468-3.006,5.851-5.68c1.338-2.678,1.871-5.568,1.599-8.676c-0.182-2.268-0.669-4.5-1.463-6.701
		c-0.839-2.176-2.563-5.783-5.17-10.816c-4.014-7.688-7.585-15.658-10.715-23.914c-3.175-8.3-5.578-16.067-7.211-23.301
		c-3.039-13.312-3.686-25.489-1.939-36.533c1.678-11.066,5.851-21.396,12.518-30.989c2.494-3.605,5.306-6.984,8.436-10.137
		c3.084-3.197,5.987-5.624,8.708-7.279c1.996-1.248,4.558-2.472,7.688-3.674c3.175-1.225,5.84-2.03,7.994-2.415
		c4.49-0.749,9.037-0.749,13.64,0c4.604,0.748,9.196,2.268,13.777,4.558c1.088,0.476,2.279,0.941,3.572,1.395
		c1.383,0.499,2.495,0.828,3.334,0.987c5.284,0.952,9.786,3.73,13.504,8.334c0.521,0.589,1.247,1.689,2.177,3.299
		c1.043,1.633,2.008,3.299,2.893,5c3.355,6.032,5.873,10.273,7.551,12.722c1.746,2.494,3.73,4.615,5.953,6.361
		c1.225,0.976,2.813,1.894,4.762,2.756c1.928,0.816,5.727,2.222,11.396,4.218c10.93,3.878,18.606,10.284,23.029,19.219
		c4.398,8.958,5.363,20.059,2.891,33.303c-1.338,6.712-3.571,13.855-6.701,21.431c-3.175,7.527-6.202,12.992-9.082,16.395
		c-0.636,0.771-1.248,1.303-1.837,1.6c-0.477,0.361-0.794,0.43-0.952,0.203c-0.022-0.227,0.125-1.031,0.441-2.416
		c0.34-1.291,0.828-2.879,1.463-4.762c3.016-8.639,4.025-15.863,3.027-21.668c-0.362-1.791-0.896-3.402-1.599-4.83
		c-0.681-1.475-2.007-3.708-3.979-6.702c-0.567-0.861-1.077-1.712-1.531-2.551c-0.453-0.907-0.727-1.508-0.816-1.803
		c-0.045-0.363,0-0.964,0.137-1.803c0.182-0.885,0.408-1.803,0.68-2.756c2.676-8.617,3.005-15.896,0.987-21.838
		c-2.063-6.033-6.214-10.114-12.451-12.246c-5.079-1.792-10.454-1.905-16.123-0.341c-5.715,1.61-10.126,4.49-13.232,8.641
		c-0.93,1.247-1.463,1.938-1.599,2.075c-0.205,0.091-0.42-0.091-0.646-0.545c-0.272-0.635-0.715-1.372-1.326-2.211l-0.885-1.122
		l2.959-0.919c2.041-0.681,3.107-1.338,3.197-1.973c0.114-0.612-0.578-2.223-2.074-4.83c-1.656-2.767-2.563-4.797-2.721-6.089
		c-0.25-1.293,0.056-3.742,0.918-7.348c0.635-2.676,0.827-4.91,0.578-6.701c-0.205-1.837-0.941-3.924-2.211-6.259
		c-0.521-0.975-1.123-1.95-1.803-2.925c-0.658-1.021-1.237-1.803-1.735-2.347c-1.021-0.975-1.996-1.78-2.926-2.415
		c-1.043-0.635-1.701-0.862-1.973-0.681c-0.09,0.136-0.136,0.499-0.136,1.088c-0.09,0.499-0.09,1.077,0,1.735
		c0.363,4.513-0.771,8.798-3.401,12.858c-2.767,4.105-8.107,9.604-16.021,16.498c-6.237,5.397-10.591,9.684-13.063,12.858
		c-2.495,3.221-4.649,7.166-6.463,11.838c-1.61,4.15-2.665,8.527-3.163,13.131c-0.431,4.558-0.272,8.912,0.476,13.062
		c0.272,1.747,0.646,3.277,1.123,4.593c0.499,1.406,1.258,3.242,2.279,5.511c1.27,2.789,2.291,4.771,3.062,5.953
		c0.816,1.314,2.279,3.275,4.388,5.883c0.181,0.25,0.147,0.33-0.102,0.238c-0.159-0.158-0.476-0.361-0.952-0.611
		c-3.039-2.314-6.112-6.508-9.219-12.586c-3.062-6.079-4.955-11.77-5.681-17.077c-1.61-10.953-0.783-21.68,2.483-32.18
		c0.816-2.607,0.952-3.561,0.408-2.857c-0.499,0.726-1.304,2.552-2.415,5.477c-2.018,5.851-3.175,12.371-3.47,19.56
		c-0.25,7.212,0.397,14.241,1.939,21.091c2.132,9.342,5.5,17.7,10.103,25.069c4.604,7.416,10.125,13.336,16.566,17.758
		c4.944,3.469,10.851,5.896,17.723,7.279c6.871,1.406,12.791,1.395,17.756-0.035c4.399-1.359,7.12-3.82,8.163-7.381
		c1.021-3.627-0.056-6.973-3.23-10.035c-1.293-1.27-1.554-1.723-0.782-1.359c0.884,0.477,1.882,1.428,2.993,2.857
		c1.089,1.496,1.837,2.822,2.245,3.979c1.202,3.674,0.578,7.225-1.87,10.648c-2.427,3.537-6.09,6.123-10.988,7.754
		c-1.542,0.455-2.291,0.771-2.244,0.953c0.113,0.113,1.009,0.17,2.688,0.17c2.947,0,5.43,0.16,7.448,0.477
		c1.996,0.318,3.106,0.727,3.334,1.225c0.136,0.477-0.261,0.941-1.19,1.395c-1.088,0.5-2.54,0.953-4.354,1.361
		c-6.599,1.293-14.242,1.395-22.927,0.307c-8.572-0.953-15.999-2.938-22.281-5.953c-2.744-1.248-5.511-2.756-8.3-4.525
		c-2.812-1.791-5.148-3.537-7.008-5.238l-3.062-2.822l-0.272,2.754c-0.091,1.68-0.578,3.447-1.462,5.307
		c-0.839,1.859-1.86,3.459-3.062,4.797c-1.248,1.293-2.733,2.473-4.457,3.537c-1.678,1.045-3.05,1.633-4.116,1.77L83.907,211.211z
		 M152.553,113.073c-0.363-0.657-0.487-1.055-0.375-1.19c0.068-0.158,0.533-0.204,1.395-0.136h1.327l-0.577,2.007
		c-0.613,2.132-0.863,3.89-0.75,5.272c0.068,1.406,0.511,2.993,1.327,4.763c1.11,2.222,2.099,4.014,2.96,5.374
		c0.657,1.021,1.031,1.679,1.122,1.973c0,0.432-0.159,1.066-0.476,1.905c-0.114,0.477-0.387,1.055-0.817,1.735
		c-0.386,0.612-0.759,1.134-1.122,1.564c-0.703,0.885-1.01,1.576-0.919,2.075c0.183,0.521,0.851,1.021,2.007,1.496l1.735,0.715
		l-0.544,1.19c-0.34,0.794-0.477,1.304-0.408,1.531c0.091,0.271,0.533,0.544,1.326,0.815c0.545,0.182,0.861,0.353,0.953,0.511
		c0.09,0.182,0.068,0.544-0.068,1.089c-0.046,0.544-0.023,0.896,0.068,1.055c0.136,0.227,0.556,0.385,1.258,0.476
		c0.545,0.181,0.977,0.408,1.293,0.681c0.317,0.271,0.578,0.658,0.783,1.156c0.181,0.385,0.498,0.827,0.951,1.326
		c0.408,0.432,0.806,0.805,1.191,1.124c1.133,0.725,2.279,1.064,3.436,1.02c1.111-0.09,2.789-0.602,5.034-1.529l3.946-1.566
		l-2.076,2.755c-0.566,0.703-1.326,1.814-2.278,3.334c-0.771,1.609-1.485,3.117-2.144,4.523c-1.02,2.27-1.666,3.584-1.938,3.945
		c-0.181,0.365-0.317,0.137-0.408-0.68c0-1.225-0.171-2.188-0.511-2.891c-0.43-0.795-1.213-1.793-2.346-2.994
		c-1.746-1.791-4.037-3.424-6.872-4.898c-2.698-1.428-6.895-3.197-12.586-5.306c-7.166-2.631-11.554-4.547-13.164-5.749
		c-1.429-1.021-2.994-2.539-4.694-4.558c-1.655-1.996-2.823-3.765-3.503-5.307c-0.612-1.293-0.986-2.778-1.123-4.456
		c-0.136-1.746-0.011-3.142,0.374-4.185c0.431-1.065,1.021-1.633,1.769-1.7c0.749-0.137,2.041,0.215,3.878,1.054
		c1.564,0.749,3.288,1.486,5.17,2.211c1.859,0.704,2.88,1.01,3.062,0.919c0.136-0.045,0.816,0.091,2.041,0.408
		c0.431,0.182,1.065,0.272,1.905,0.272c0.862,0.045,1.644,0.045,2.347,0c1.111-0.136,1.848-0.295,2.211-0.477
		c0.363-0.182,0.726-0.556,1.088-1.123c0.454-0.748,0.68-1.621,0.68-2.618c-0.068-0.885-0.317-2.2-0.748-3.946l-0.544-2.007
		l2.075,0.204c0.952,0.091,1.553,0.091,1.803,0c0.271-0.091,0.477-0.386,0.612-0.885c0.136-0.317,0.182-0.68,0.136-1.089
		C152.824,113.833,152.734,113.436,152.553,113.073z"/>
	<path fill-rule="evenodd" clip-rule="evenodd" fill="#ED2224" d="M83.771,210.938l-0.783,0.408l0.918-0.135
		c1.474,2.357,2.971,4.738,4.49,7.143c4.966,7.258,10.058,14.186,15.273,20.785c9.32,11.678,16.441,19.219,21.362,22.621
		c0.34-1.43,0.986-3.006,1.939-4.729c1.202-2.246,2.517-4.037,3.946-5.375c3.039-4.242,11.588-9.719,25.648-16.43l-0.068,0.066
		c2.358-1.428,5.023-2.98,7.994-4.658c9.524-5.535,16.521-9.707,20.988-12.52c17.349-10.998,31.511-22.813,42.486-35.445
		c10.931-12.676,15.953-31.656,15.069-56.943c-0.885-25.309-20.841-40.389-59.869-45.241c2.041-3.402-1.667-10.92-11.123-22.554
		c-4.104-4.49-7.993-8.538-11.668-12.144c-0.566-0.544-1.122-1.088-1.667-1.633c-0.408-0.34-0.805-0.726-1.19-1.156
		c-42.067-37.577-76.99-34.844-104.77,8.198c-10.001,17.734-12.972,38.813-8.913,63.237C47.918,141.601,61.23,173.77,83.771,210.938
		z M217.762,74.158c9.343,2.336,16.986,7.076,22.927,14.219c5.896,7.12,9.786,15.67,11.668,25.648
		c1.859,9.955,1.951,20.942,0.272,32.962c-1.746,11.997-7.404,23.868-16.975,35.614c-9.593,11.703-19.57,20.875-29.934,27.52
		c-10.387,6.6-19.9,12.541-28.541,17.826c-8.82,5.396-15.092,9.342-18.811,11.836c-13.471,9.072-22.337,17.645-26.601,25.717
		c-2.721,8.277-3.402,14.311-2.041,18.098c-1.066-2.291-1.917-4.48-2.551-6.566c-4.15-4.602-12.597-15.137-25.342-31.6
		c-13.924-18.074-24.877-33.553-32.86-46.434c-8.005-12.857-14.752-25.896-20.24-39.119c-5.533-13.198-8.663-21.044-9.389-23.539
		c-3.787-13.289-5.771-24.231-5.953-32.826c-0.272-11.838,0.375-21.51,1.939-29.016c2.019-9.819,5.08-18.766,9.185-26.839
		C55.81,25.231,73.204,12.634,96.698,9.867c17.416-3.742,35.037-0.567,52.861,9.524c17.802,10.024,32.292,26.533,43.472,49.528
		C200.198,70.054,208.441,71.8,217.762,74.158z"/>
</g>
</svg>
