<?xml version="1.0" encoding="utf-8"?>
<!-- Generator: Adobe Illustrator 16.0.0, SVG Export Plug-In . SVG Version: 6.00 Build 0)  -->
<!DOCTYPE svg PUBLIC "-//W3C//DTD SVG 1.1//EN" "http://www.w3.org/Graphics/SVG/1.1/DTD/svg11.dtd">
<svg version="1.1" id="Layer_1" xmlns="http://www.w3.org/2000/svg" xmlns:xlink="http://www.w3.org/1999/xlink" x="0px" y="0px"
	 width="300px" height="300px" viewBox="0 0 300 300" enable-background="new 0 0 300 300" xml:space="preserve">
<g>
	<path fill-rule="evenodd" clip-rule="evenodd" fill="#ED2224" d="M160.769,101.754c0.039,0.079,0.06,0.139,0.06,0.177
		c-0.04,0.04-0.06,0.07-0.06,0.089l-0.06-0.03c-0.395-0.316-1.341-1.606-2.839-3.875c-4.771-7.079-10.293-13.458-16.564-19.136
		c-6.23-5.581-12.885-10.146-19.964-13.695c-6.112-3.036-11.791-5.225-17.036-6.566c-5.225-1.322-11.21-2.1-17.953-2.337
		c-5.284-0.235-9.918-0.079-13.901,0.474c-3.963,0.571-8.281,1.617-12.955,3.135c-4.614,1.557-8.646,3.381-12.097,5.471
		c-3.471,2.15-6.931,4.949-10.381,8.4c-3.53,3.451-6.241,6.694-8.134,9.731c-1.913,3.016-3.628,6.694-5.147,11.032
		c-0.887,2.702-1.469,4.861-1.745,6.478c-0.217,1.675-0.395,4.466-0.532,8.371c-0.217,7.157,0.454,13.92,2.011,20.289
		c1.577,6.29,4.328,13.281,8.251,20.97c3.924,7.729,8.528,15.113,13.813,22.153c4.338,5.876,9.603,12.097,15.794,18.662
		c1.242,1.321,2.514,2.663,3.815,4.023c9.011,9.247,18.416,17.903,28.216,25.969c4.437,3.687,9.228,7.473,14.375,11.356
		c6.152,4.654,12.807,9.445,19.964,14.375c0.395,0.275,0.818,0.562,1.271,0.858c0.907,0.63,1.903,1.301,2.988,2.011
		c0.296,0.217,0.641,0.463,1.035,0.739c0.552,0.355,1.114,0.729,1.687,1.124c3.963,2.603,8.735,5.688,14.314,9.257
		c0.434,0.276,0.849,0.543,1.242,0.799c0.514,0.316,0.996,0.622,1.45,0.917c0.689,0.435,1.351,0.848,1.981,1.242
		c-5.008-3.806-7.572-7.995-7.69-12.569c-0.098-6.882,3.303-10.55,10.204-11.004c3.707-0.196,6.536,0.513,8.489,2.13
		c4.121-8.063,9.326-10.559,15.616-7.482c6.862,4.812,7.886,11.831,3.075,21.06l-0.059,0.058c0.592-0.453,1.192-0.896,1.805-1.33
		l7.335-5.649c22.183-17.293,40.373-34.546,54.569-51.76c18.239-22.162,29.212-43.458,32.918-63.887
		c0.691-3.923,1.037-8.626,1.037-14.108c0-5.501-0.366-9.938-1.095-13.309c-1.558-7.159-4.278-13.725-8.164-19.699
		c-3.885-5.994-8.646-10.884-14.285-14.67c-10.076-6.921-21.078-10.263-33.008-10.027c-11.831,0.198-23.237,3.925-34.221,11.181
		c-3.116,2.031-6.684,5.137-10.707,9.316c-4.102,4.161-7.177,7.542-9.228,10.144c-2.09,2.544-4.26,4.615-6.507,6.211
		C163.4,99.063,162.404,100.039,160.769,101.754c1.991-2.326,3.391-3.943,4.2-4.851c3.687-4.259,6.191-7.453,7.512-9.583
		c1.281-2.189,2.405-3.963,3.372-5.324c4.91-6.862,10.775-12.777,17.598-17.746c6.823-4.989,14.158-8.656,22.006-11.003
		c2.564-0.808,4.931-1.527,7.098-2.159c2.149-0.611,5.749-0.857,10.797-0.739c5.027,0.099,8.23,0.405,9.613,0.918
		c1.359,0.511,3.312,1.173,5.856,1.98c5.479,1.657,10.37,3.825,14.669,6.508c4.317,2.642,8.301,5.925,11.949,9.849
		c5.245,5.639,9.129,11.89,11.653,18.751c2.563,6.901,3.864,14.69,3.904,23.366c0.059,13.507-3.186,27.457-9.731,41.851
		c-6.604,14.394-16.583,29.42-29.932,45.076c-6.961,8.163-15.854,17.173-26.678,27.032c-10.807,9.84-21.622,18.821-32.446,26.944
		c-6.054,4.517-12.245,8.982-18.575,13.399c-6.369,4.456-9.76,6.684-10.174,6.684c-0.434,0-4.634-2.464-12.6-7.394
		c-8.025-4.969-14.917-9.347-20.675-13.132c-37.148-24.55-66.065-49.068-86.749-73.559c-20.665-24.469-32.042-47.628-34.132-69.476
		c-0.808-8.499,0.011-16.553,2.455-24.164c2.327-7.375,6.113-14,11.358-19.876C33.942,53.042,48.81,45.982,67.719,43.932
		c2.169-0.256,5.797-0.247,10.884,0.03c5.087,0.275,8.991,0.67,11.712,1.183c5.817,1.084,11.732,2.869,17.746,5.353
		c5.994,2.445,11.614,5.423,16.859,8.933c3.825,2.543,8.498,6.557,14.019,12.038c5.462,5.482,9.514,10.156,12.156,14.02
		c1.754,2.623,3.569,5.442,5.442,8.459c0.335,0.571,0.68,1.173,1.035,1.804c1.439,2.445,2.396,4.171,2.868,5.177
		C160.601,101.282,160.709,101.558,160.769,101.754z"/>
	<path fill-rule="evenodd" clip-rule="evenodd" fill="#FBF49C" d="M192.445,249.433c4.988-5.127,7.669-8.174,8.045-9.14
		c0.118-0.314,1.123-1.813,3.016-4.495c1.52-2.052,3.216-4.752,5.088-8.104c1.834-3.332,3.244-6.24,4.229-8.726l1.952-4.939
		c1.144-2.839,2.229-6.723,3.254-11.652c1.005-4.97,1.813-10.284,2.426-15.942c0.63-5.64,0.305-10.668-0.977-15.084
		c-1.321-4.397-3.767-8.785-7.335-13.161c-1.36-1.638-3.145-3.55-5.354-5.739c-2.208-2.11-3.588-3.214-4.141-3.313
		c-0.396-0.118-0.896-0.444-1.51-0.976c-1.182-1.005-5.746-3.302-13.692-6.891c-1.322-0.553-2.623-1.204-3.904-1.952
		c-1.361-0.75-2.307-1.341-2.84-1.775c-1.637-1.262-3.579-3.757-5.827-7.483c-0.59-1.084-1.213-2.218-1.862-3.401
		c-0.77-1.42-1.509-2.909-2.219-4.466l-2.425-4.703c-4.043-8.044-9.288-14.423-15.735-19.136
		c-6.172-4.496-13.458-7.473-21.857-8.932c-0.729-0.197-1.439-0.375-2.13-0.532c-0.098,0-0.158,0-0.177,0
		c-0.099-0.06-0.197-0.089-0.296-0.089c-13.093-2.168-26.205,2.307-39.337,13.428c-4.181,3.904-7.907,8.242-11.18,13.014
		c-11.752,17.213-17.322,40.008-16.711,68.381l0.148,5c0.02,0.117,0.03,0.216,0.03,0.295c-0.02,0.06-0.02,0.118,0,0.178
		c0.04,0.808,0.108,1.627,0.207,2.454c-6.191-6.565-11.456-12.786-15.794-18.662c-5.285-7.04-9.889-14.424-13.813-22.153
		c-3.923-7.689-6.674-14.68-8.251-20.97c-1.558-6.369-2.229-13.132-2.011-20.289c0.138-3.904,0.315-6.695,0.532-8.371
		c0.276-1.617,0.858-3.776,1.745-6.478c1.519-4.338,3.234-8.016,5.147-11.032c1.893-3.037,4.604-6.28,8.134-9.731
		c3.451-3.451,6.911-6.25,10.381-8.4c3.451-2.089,7.482-3.914,12.097-5.471c4.673-1.519,8.991-2.564,12.955-3.135
		c3.983-0.553,8.617-0.709,13.901-0.474c6.743,0.237,12.728,1.015,17.953,2.337c5.245,1.341,10.924,3.53,17.036,6.566
		c7.079,3.549,13.734,8.114,19.964,13.695c6.271,5.678,11.792,12.057,16.564,19.136c1.498,2.268,2.444,3.559,2.839,3.875l0.06,0.03
		c0-0.02,0.02-0.049,0.06-0.089c0-0.039-0.021-0.098-0.06-0.177c1.636-1.715,2.632-2.691,2.987-2.928
		c2.247-1.596,4.417-3.667,6.507-6.211c2.051-2.602,5.126-5.983,9.228-10.144c4.023-4.18,7.591-7.286,10.707-9.316
		c10.983-7.256,22.39-10.983,34.221-11.181c11.93-0.235,22.932,3.106,33.008,10.027c5.64,3.786,10.4,8.676,14.285,14.67
		c3.886,5.974,6.606,12.54,8.164,19.699c0.729,3.371,1.095,7.808,1.095,13.309c0,5.481-0.346,10.185-1.037,14.108
		c-3.706,20.429-14.679,41.725-32.918,63.887C232.818,214.887,214.628,232.14,192.445,249.433z"/>
	<path fill-rule="evenodd" clip-rule="evenodd" fill="#010101" d="M149.884,173.272l-0.799-2.396l2.544-0.532
		c1.124-0.256,1.844-0.522,2.159-0.799c0.197-0.315,0.306-0.986,0.325-2.012c-0.02-1.123,0.049-1.813,0.208-2.07
		c0.137-0.275,0.443-0.217,0.916,0.178c0.118,0.079,0.197,0.287,0.236,0.621c0.039,0.315-0.02,0.631-0.178,0.947
		c-1.34,3.135-0.896,7.64,1.331,13.516l2.426,6.005l-1.656,3.254c-0.789,1.694-1.184,2.967-1.184,3.815
		c0,0.907,0.435,1.576,1.302,2.01c0.395,0.139,0.641,0.365,0.739,0.682c0.119,0.395,0.119,0.927,0,1.597
		c-0.099,0.77-0.107,1.32-0.029,1.656c0.118,0.315,0.365,0.552,0.739,0.71c0.315,0.157,0.621,0.404,0.917,0.739
		c0.275,0.434,0.493,0.849,0.651,1.242c0.117,0.395,0.315,0.681,0.592,0.858c0.196,0.256,0.374,0.364,0.531,0.324
		c0.158-0.098,0.395,0.011,0.71,0.325c0.218,0.317,0.425,0.72,0.621,1.213c0.414,1.223,1.095,2.278,2.041,3.165
		c0.985,0.848,1.972,1.331,2.958,1.45c0.473,0,1.153-0.1,2.041-0.297c0.906-0.177,1.784-0.403,2.632-0.68
		c0.809-0.315,1.568-0.553,2.277-0.71c0.689-0.158,1.113-0.217,1.272-0.178c0.157,0.079-0.04,0.562-0.593,1.45
		c-0.492,0.887-1.173,1.922-2.04,3.105c-2.13,2.957-3.431,4.919-3.904,5.886c-0.217,0.452-0.464,0.838-0.74,1.152
		c-0.314,0.316-0.531,0.454-0.65,0.414c-0.098-0.038-0.384-0.395-0.857-1.063c-0.473-0.651-0.907-1.43-1.302-2.337
		c-1.419-2.859-3.283-5.049-5.589-6.566c-2.327-1.558-7.178-3.885-14.553-6.979c-6.684-2.762-11.249-5.227-13.694-7.395
		c-2.425-2.21-4.475-5.59-6.151-10.146c-0.907-2.524-1.361-4.574-1.361-6.152c0.099-1.597,0.651-2.966,1.657-4.11
		c0.69-0.73,1.38-1.193,2.07-1.391c0.709-0.177,1.163-0.02,1.36,0.473c0.119,0.435,2.091,1.519,5.916,3.255
		c3.825,1.754,6.418,2.75,7.779,2.987c1.695,0.394,2.997,0.374,3.904-0.06c0.927-0.395,1.676-1.252,2.248-2.573
		c0.395-0.848,0.611-1.617,0.651-2.307C150.357,174.839,150.199,174.08,149.884,173.272z M132.995,250.882
		c-2.957-7.729-1.223-13.536,5.206-17.42c10.609-6.666,18.95-5.167,25.023,4.494c4.673-8.458,10.746-11.771,18.219-9.938
		c5.364,2.052,8.203,5.679,8.518,10.886c-0.06,0.334-0.088,0.68-0.088,1.034c-0.02,1.854-0.346,3.913-0.977,6.182
		c0.966-1.203,2.229-2.83,3.786-4.881c7.336-9.761,11.555-17.085,12.66-21.975c1.083-4.891-0.287-10.165-4.112-15.824
		c-2.012-2.957-3.184-5.274-3.521-6.95c-0.314-1.795,0.011-4.142,0.978-7.04c1.005-2.918,1.587-4.762,1.744-5.53
		c0.157-0.711,0.375-2.229,0.65-4.556c0.376-3.607,0.503-6.279,0.385-8.015c-0.099-1.755-0.592-3.816-1.479-6.183
		c-0.629-1.773-1.252-3.174-1.863-4.199c-0.59-0.926-1.389-1.854-2.395-2.779c-1.715-1.598-3.836-2.969-6.358-4.112
		c-2.604-1.144-5.147-1.854-7.632-2.129c-1.774-0.197-3.273-0.197-4.496,0c-1.162,0.178-3.194,0.818-6.093,1.922
		c-3.313,1.163-5.935,2.406-7.867,3.728c-1.952,1.241-3.657,2.829-5.116,4.761c-0.553,0.671-0.907,0.967-1.065,0.887
		c-0.157-0.077-0.453-0.66-0.888-1.744c-0.374-1.084-0.502-1.784-0.384-2.1c0.158-0.257,0.798-0.582,1.922-0.977
		c1.795-0.67,2.722-1.43,2.781-2.277c0.117-0.907-0.504-2.888-1.863-5.944c-1.105-2.642-1.726-4.378-1.864-5.207
		c-0.118-0.769,0.06-2.179,0.532-4.229c0.77-3.253,1.134-5.5,1.095-6.743c0.039-1.243-0.325-3.185-1.095-5.827
		c-0.493-1.834-1.016-3.352-1.567-4.555c-0.572-1.183-1.271-2.307-2.1-3.371c-0.631-0.867-1.351-1.666-2.159-2.396
		c-0.749-0.848-1.351-1.41-1.805-1.686l-1.094-0.709c0.375,0.789,0.217,2.405-0.473,4.851c-0.71,2.444-1.666,4.771-2.869,6.98
		c-1.243,2.208-2.514,4.476-3.815,6.803c-1.4,2.425-2.918,4.535-4.555,6.329c-1.4,1.577-2.287,2.632-2.661,3.164
		c-0.435,0.553-1.194,1.706-2.278,3.461c-0.966,1.656-1.686,3.647-2.159,5.974c-0.513,2.307-0.552,4.082-0.119,5.323
		c0.434,1.302,0.631,2.407,0.592,3.313c-0.059,0.591-0.168,0.818-0.325,0.68c-0.178-0.138-0.533-0.68-1.064-1.627
		c-1.243-2.168-1.972-4.771-2.189-7.809c-0.177-3.016,0.178-5.983,1.065-8.902c0.651-2.208,0.69-3.193,0.119-2.957
		c-0.572,0.137-1.696,1.449-3.372,3.933c-3.668,5.502-6.694,10.254-9.08,14.256c-2.07,3.352-3.549,6.241-4.437,8.666
		c-0.887,2.386-1.548,5.334-1.982,8.843c-0.433,3.058-0.592,6.932-0.473,11.625c0.079,2.898,0.217,5.215,0.414,6.95
		c-2.129-6.803-3.292-11.811-3.49-15.025c-0.158-3.569-0.128-6.211,0.088-7.927c0.158-1.557,0.049-2.276-0.325-2.159
		c-0.434,0.119-0.868,0.997-1.301,2.634c-0.493,2.089-0.976,4.88-1.449,8.37c-0.375,3.51-0.522,6.052-0.444,7.63
		c0.118,1.796,0.158,3.195,0.118,4.201c-0.078,2.01,0.188,4.318,0.799,6.92c0.631,2.643,1.706,6.043,3.224,10.204
		c1.36,3.767,2.169,6.172,2.425,7.217c0.276,1.085,0.158,1.41-0.355,0.977c-0.809-0.651-2.455-4.388-4.939-11.21
		c-2.484-6.842-3.825-11.378-4.022-13.605l-0.739-6.389c-0.276-2.091-0.375-3.657-0.296-4.703c0-1.025-0.03-2.307-0.088-3.845
		c0-2.11,0.029-3.755,0.088-4.938c0.099-1.184,0.335-3.323,0.709-6.419c0.454-3.924,0.503-5.905,0.148-5.945
		c-0.375-0.039-1.045,1.864-2.011,5.709c-1.34,5.205-2.1,10.618-2.277,16.237c-0.158,5.62,0.208,11.781,1.094,18.486
		c0.375,2.544,1.942,7.602,4.703,15.173c2.76,7.492,4.88,12.402,6.359,14.729c0.236,0.394,0.493,0.808,0.769,1.241
		c-5.146-3.884-9.938-7.67-14.375-11.356c-9.8-8.065-19.206-16.722-28.216-25.969c-1.301-1.36-2.573-2.702-3.815-4.023
		c-0.099-0.827-0.167-1.646-0.207-2.454c-0.02-0.06-0.02-0.118,0-0.178c0-0.079-0.01-0.178-0.03-0.295l-0.148-5
		c-0.611-28.373,4.959-51.167,16.711-68.381c3.273-4.772,7-9.11,11.18-13.014c13.132-11.121,26.244-15.597,39.337-13.428
		c0.099,0,0.197,0.03,0.296,0.089c0.02,0,0.079,0,0.177,0c0.69,0.157,1.4,0.335,2.13,0.532c8.399,1.459,15.686,4.436,21.857,8.932
		c6.447,4.712,11.692,11.092,15.735,19.136l2.425,4.703c0.71,1.558,1.449,3.046,2.219,4.466c0.649,1.183,1.272,2.317,1.862,3.401
		c2.248,3.727,4.19,6.221,5.827,7.483c0.533,0.434,1.479,1.025,2.84,1.775c1.281,0.749,2.582,1.399,3.904,1.952
		c7.946,3.588,12.511,5.885,13.692,6.891c0.613,0.532,1.114,0.858,1.51,0.976c0.553,0.099,1.933,1.203,4.141,3.313
		c2.209,2.189,3.993,4.102,5.354,5.739c3.568,4.376,6.014,8.764,7.335,13.161c1.281,4.416,1.606,9.444,0.977,15.084
		c-0.612,5.658-1.421,10.973-2.426,15.942c-1.025,4.93-2.11,8.813-3.254,11.652l-1.952,4.939c-0.985,2.485-2.396,5.394-4.229,8.726
		c-1.872,3.353-3.568,6.053-5.088,8.104c-1.893,2.682-2.897,4.181-3.016,4.495c-0.376,0.966-3.057,4.013-8.045,9.14l-7.335,5.649
		c-0.612,0.434-1.213,0.877-1.805,1.33l0.059-0.058c4.811-9.229,3.787-16.248-3.075-21.06c-6.29-3.076-11.495-0.581-15.616,7.482
		c-1.953-1.617-4.782-2.326-8.489-2.13c-6.901,0.454-10.302,4.122-10.204,11.004c0.119,4.574,2.682,8.764,7.69,12.569
		c-0.631-0.395-1.292-0.808-1.981-1.242c-0.454-0.295-0.937-0.601-1.45-0.917c-0.394-0.256-0.809-0.522-1.242-0.799
		c-5.58-3.568-10.352-6.654-14.314-9.257C134.109,251.611,133.547,251.237,132.995,250.882z"/>
	<path fill-rule="evenodd" clip-rule="evenodd" fill="#FDFAD7" d="M132.995,250.882c-0.394-0.276-0.739-0.522-1.035-0.739
		c-1.085-0.71-2.081-1.381-2.988-2.011c-0.453-0.297-0.877-0.583-1.271-0.858c-7.158-4.93-13.813-9.721-19.964-14.375
		c-0.276-0.434-0.533-0.848-0.769-1.241c-1.479-2.327-3.599-7.237-6.359-14.729c-2.761-7.571-4.329-12.629-4.703-15.173
		c-0.887-6.705-1.252-12.866-1.094-18.486c0.178-5.619,0.937-11.032,2.277-16.237c0.966-3.845,1.637-5.748,2.011-5.709
		c0.355,0.04,0.306,2.021-0.148,5.945c-0.375,3.096-0.611,5.235-0.709,6.419c-0.06,1.184-0.088,2.828-0.088,4.938
		c0.059,1.538,0.088,2.819,0.088,3.845c-0.079,1.046,0.02,2.612,0.296,4.703l0.739,6.389c0.197,2.228,1.538,6.764,4.022,13.605
		c2.485,6.822,4.131,10.559,4.939,11.21c0.513,0.434,0.632,0.108,0.355-0.977c-0.256-1.045-1.065-3.45-2.425-7.217
		c-1.519-4.161-2.593-7.562-3.224-10.204c-0.611-2.602-0.877-4.91-0.799-6.92c0.04-1.006,0-2.405-0.118-4.201
		c-0.079-1.578,0.069-4.12,0.444-7.63c0.473-3.49,0.956-6.281,1.449-8.37c0.434-1.637,0.867-2.515,1.301-2.634
		c0.375-0.117,0.483,0.603,0.325,2.159c-0.217,1.716-0.247,4.357-0.088,7.927c0.197,3.215,1.36,8.223,3.49,15.025
		c-0.197-1.735-0.335-4.052-0.414-6.95c-0.119-4.693,0.04-8.567,0.473-11.625c0.434-3.509,1.095-6.457,1.982-8.843
		c0.887-2.425,2.366-5.314,4.437-8.666c2.386-4.002,5.412-8.754,9.08-14.256c1.676-2.484,2.8-3.795,3.372-3.933
		c0.571-0.237,0.532,0.748-0.119,2.957c-0.887,2.919-1.242,5.886-1.065,8.902c0.218,3.037,0.946,5.641,2.189,7.809
		c0.532,0.947,0.887,1.489,1.064,1.627c0.157,0.139,0.266-0.089,0.325-0.68c0.039-0.906-0.158-2.012-0.592-3.313
		c-0.434-1.241-0.394-3.017,0.119-5.323c0.473-2.327,1.193-4.318,2.159-5.974c1.084-1.755,1.843-2.909,2.278-3.461
		c0.374-0.532,1.261-1.587,2.661-3.164c1.637-1.794,3.155-3.904,4.555-6.329c1.302-2.327,2.573-4.594,3.815-6.803
		c1.203-2.208,2.159-4.536,2.869-6.98c0.69-2.445,0.848-4.062,0.473-4.851l1.094,0.709c0.454,0.276,1.056,0.837,1.805,1.686
		c0.809,0.73,1.528,1.529,2.159,2.396c0.828,1.064,1.527,2.188,2.1,3.371c0.552,1.204,1.074,2.721,1.567,4.555
		c0.77,2.643,1.134,4.584,1.095,5.827c0.039,1.243-0.325,3.49-1.095,6.743c-0.473,2.05-0.65,3.46-0.532,4.229
		c0.139,0.829,0.759,2.564,1.864,5.207c1.359,3.057,1.98,5.037,1.863,5.944c-0.06,0.848-0.986,1.607-2.781,2.277
		c-1.124,0.395-1.764,0.72-1.922,0.977c-0.118,0.315,0.01,1.016,0.384,2.1c0.435,1.084,0.73,1.667,0.888,1.744
		c0.158,0.08,0.513-0.216,1.065-0.887c1.459-1.932,3.164-3.52,5.116-4.761c1.933-1.321,4.555-2.564,7.867-3.728
		c2.898-1.104,4.931-1.744,6.093-1.922c1.223-0.197,2.722-0.197,4.496,0c2.484,0.275,5.028,0.985,7.632,2.129
		c2.522,1.144,4.644,2.515,6.358,4.112c1.006,0.925,1.805,1.854,2.395,2.779c0.611,1.025,1.234,2.426,1.863,4.199
		c0.888,2.366,1.381,4.428,1.479,6.183c0.118,1.735-0.009,4.407-0.385,8.015c-0.275,2.327-0.493,3.845-0.65,4.556
		c-0.157,0.769-0.739,2.612-1.744,5.53c-0.967,2.898-1.292,5.245-0.978,7.04c0.337,1.676,1.509,3.993,3.521,6.95
		c3.825,5.659,5.195,10.934,4.112,15.824c-1.105,4.89-5.324,12.214-12.66,21.975c-1.557,2.051-2.82,3.678-3.786,4.881
		c0.631-2.269,0.957-4.328,0.977-6.182c0-0.354,0.028-0.7,0.088-1.034c-0.314-5.207-3.153-8.834-8.518-10.886
		c-7.473-1.833-13.546,1.479-18.219,9.938c-6.073-9.661-14.414-11.16-25.023-4.494C131.772,237.346,130.038,243.152,132.995,250.882
		z M149.884,173.272c0.315,0.808,0.474,1.566,0.474,2.277c-0.04,0.689-0.257,1.459-0.651,2.307
		c-0.571,1.321-1.321,2.179-2.248,2.573c-0.907,0.434-2.208,0.453-3.904,0.06c-1.361-0.237-3.954-1.233-7.779-2.987
		c-3.825-1.736-5.797-2.82-5.916-3.255c-0.197-0.492-0.65-0.649-1.36-0.473c-0.69,0.197-1.38,0.66-2.07,1.391
		c-1.006,1.145-1.558,2.514-1.657,4.11c0,1.578,0.454,3.628,1.361,6.152c1.676,4.556,3.726,7.936,6.151,10.146
		c2.445,2.168,7.01,4.633,13.694,7.395c7.375,3.095,12.226,5.422,14.553,6.979c2.306,1.518,4.17,3.707,5.589,6.566
		c0.395,0.907,0.829,1.686,1.302,2.337c0.474,0.669,0.76,1.025,0.857,1.063c0.119,0.04,0.336-0.098,0.65-0.414
		c0.276-0.314,0.523-0.7,0.74-1.152c0.474-0.967,1.774-2.929,3.904-5.886c0.867-1.184,1.548-2.219,2.04-3.105
		c0.553-0.889,0.75-1.371,0.593-1.45c-0.159-0.039-0.583,0.02-1.272,0.178c-0.709,0.157-1.469,0.395-2.277,0.71
		c-0.848,0.276-1.726,0.503-2.632,0.68c-0.888,0.197-1.568,0.297-2.041,0.297c-0.986-0.119-1.973-0.603-2.958-1.45
		c-0.946-0.887-1.627-1.942-2.041-3.165c-0.196-0.493-0.403-0.896-0.621-1.213c-0.315-0.314-0.552-0.423-0.71-0.325
		c-0.157,0.04-0.335-0.068-0.531-0.324c-0.276-0.178-0.475-0.464-0.592-0.858c-0.158-0.394-0.376-0.809-0.651-1.242
		c-0.296-0.335-0.602-0.582-0.917-0.739c-0.374-0.158-0.621-0.395-0.739-0.71c-0.078-0.336-0.069-0.887,0.029-1.656
		c0.119-0.67,0.119-1.202,0-1.597c-0.099-0.316-0.345-0.543-0.739-0.682c-0.867-0.434-1.302-1.103-1.302-2.01
		c0-0.849,0.395-2.121,1.184-3.815l1.656-3.254l-2.426-6.005c-2.228-5.876-2.671-10.381-1.331-13.516
		c0.158-0.316,0.217-0.632,0.178-0.947c-0.039-0.334-0.118-0.542-0.236-0.621c-0.473-0.395-0.779-0.453-0.916-0.178
		c-0.159,0.257-0.228,0.947-0.208,2.07c-0.02,1.025-0.128,1.696-0.325,2.012c-0.315,0.276-1.035,0.543-2.159,0.799l-2.544,0.532
		L149.884,173.272z"/>
</g>
</svg>
