<?xml version="1.0" encoding="utf-8"?>
<!-- Generator: Adobe Illustrator 16.0.0, SVG Export Plug-In . SVG Version: 6.00 Build 0)  -->
<!DOCTYPE svg PUBLIC "-//W3C//DTD SVG 1.1//EN" "http://www.w3.org/Graphics/SVG/1.1/DTD/svg11.dtd">
<svg version="1.1" id="Layer_1" xmlns="http://www.w3.org/2000/svg" xmlns:xlink="http://www.w3.org/1999/xlink" x="0px" y="0px"
	 width="300px" height="300px" viewBox="0 0 300 300" enable-background="new 0 0 300 300" xml:space="preserve">
<g>
	<path fill-rule="evenodd" clip-rule="evenodd" fill="#1A140B" d="M180.4,229.738c0-0.068-0.119-0.102-0.356-0.102
		c-0.22,0.033-1.355,0.102-3.407,0.203l-2.925,0.203l1.399,2.238c0.406,0.644,0.779,1.195,1.119,1.653
		c0.321,0.44,0.542,0.661,0.661,0.661c0.152,0,0.626-0.518,1.424-1.552c0.779-1.033,1.381-1.924,1.805-2.67
		C180.323,230.019,180.417,229.807,180.4,229.738z M174.831,115.183c-0.169,0.169-0.075,0.254,0.28,0.254
		c0.084,0,0.203,0.103,0.355,0.306c0.221,0.203,0.408,0.44,0.561,0.711l0.66,0.916l0.94-1.678c0.645-1.135,0.924-1.687,0.84-1.653
		l-1.068,0.407c-0.678,0.271-1.263,0.416-1.754,0.433C175.271,114.878,175.002,114.979,174.831,115.183z M84.509,100.41
		c-4.374-15.325-6.561-28.21-6.561-38.652c-0.034-10.443,2.119-19.004,6.458-25.684c2.933-4.458,6.908-8.095,11.926-10.909
		c5.035-2.813,10.756-4.569,17.164-5.263c1.526-0.187,3.662-0.28,6.408-0.28c2.763,0,5.001,0.076,6.713,0.229
		c9.714,0.966,19.639,3.509,29.778,7.628c1.271,0.491,2.721,1.025,4.347,1.602c1.61,0.525,2.934,0.924,3.968,1.195
		c3.271,0.831,6.026,1.831,8.265,3c2.237,1.204,4.179,2.67,5.823,4.399c1.423,1.543,2.448,3.145,3.076,4.806
		c0.611,1.678,0.916,3.653,0.916,5.925c0,1.831-0.195,3.442-0.585,4.832c-0.355,1.289-0.542,2.229-0.56,2.823
		c-0.033,0.559,0.06,1.839,0.279,3.839c0.373,3.356,0.17,6.781-0.61,10.272c-0.712,3.51-2.128,7.622-4.247,12.333
		c-0.711,1.729-1.067,2.687-1.067,2.874c0,0.118,0.179,0.237,0.534,0.355c0.356,0.119,0.806,0.221,1.348,0.305
		c1.542,0.271,2.94,0.229,4.195-0.127c1.271-0.373,2.492-1.077,3.662-2.11c0.372-0.339,0.687-0.61,0.94-0.813
		c0.272-0.187,0.407-0.255,0.407-0.204c0,0.204-0.204,0.644-0.61,1.322c-0.39,0.61-0.813,1.17-1.271,1.679
		c-0.934,1.034-2.188,1.823-3.765,2.365c-1.576,0.56-3.152,0.746-4.729,0.56l-1.321-0.153l0.432,1.144
		c0.966,2.814,2.585,5.4,4.856,7.756c1.34,1.425,2.271,2.542,2.797,3.356c0.509,0.797,0.764,1.552,0.764,2.263
		c0,0.764-0.237,1.339-0.713,1.729c-0.457,0.407-1.457,0.873-3.001,1.399c-0.627,0.238-1.16,0.466-1.601,0.687
		c-0.425,0.22-0.636,0.382-0.636,0.483c-0.033,0.153,0.229,0.618,0.788,1.398c0.543,0.746,1.008,1.297,1.398,1.653
		c0.305,0.271,0.525,0.408,0.661,0.408c0.119-0.034,0.415-0.272,0.89-0.712c2.646-2.475,6.314-4.383,11.011-5.721
		c4.712-1.323,9.324-1.746,13.832-1.272c8.749,0.932,15.868,4.611,21.361,11.036c1.679,1.95,2.95,3.941,3.814,5.976
		c0.848,2,1.518,4.603,2.009,7.807c0.797,5.136,0.262,9.79-1.603,13.96c-1.424,3.255-3.874,6.281-7.348,9.078
		c-3.493,2.832-7.002,4.703-10.528,5.619c-0.339,0.102-0.652,0.221-0.94,0.356c-0.271,0.085-0.424,0.178-0.459,0.279
		c-0.032,0.102,0.051,0.407,0.255,0.916c0.238,0.525,0.518,1.084,0.84,1.678l1.194,2.264v3.864c-0.05,4.646-1.05,12.69-3,24.132
		c-1.018,6.223-1.746,10.096-2.188,11.622c-0.474,1.457-2.06,5.424-4.754,11.9c-0.849,1.966-1.874,4.44-3.077,7.425
		c-0.949,2.407-2.442,5.721-4.477,9.942c-15.9,33.21-25.284,51.764-28.148,55.663c-0.661,0.949-1.619,1.992-2.874,3.128
		c-1.22,1.169-2.169,1.915-2.849,2.237c-3.915,2-8.483,1.949-13.706-0.152c-5.17-2.052-10.179-5.866-15.028-11.442
		c-3.764-4.272-7.883-9.536-12.358-15.792c-4.543-6.271-12.282-17.469-23.216-33.591c-7.663-11.273-12.842-19.394-15.537-24.36
		c-2.695-5.019-4.416-9.578-5.162-13.681c-0.407-2.271-0.5-4.111-0.28-5.519c0.187-1.39,0.746-3.034,1.678-4.934
		c1.577-3.118,3.569-5.483,5.976-7.094c2.373-1.543,5.094-2.314,8.163-2.314c4.289,0,8.323,1.467,12.104,4.399
		c3.797,2.882,7.434,7.35,10.909,13.401c1.136,2,2.323,4.323,3.56,6.968c1.237,2.678,2.806,6.297,4.704,10.857
		c3.645,8.713,6.968,15.74,9.968,21.08c2.966,5.375,9.392,15.842,19.274,31.404l0.764,1.246l3.712-4.704
		c3.34-4.188,5.653-7.146,6.942-8.875c1.321-1.764,1.958-2.713,1.906-2.848l-0.839-2.416l-5.492-0.712l-0.839,0.967
		c-2.322,2.695-4.069,4.568-5.238,5.619c-1.153,1-2.11,1.501-2.874,1.501c-1.017,0-1.711-0.721-2.085-2.162
		c-0.407-1.407-0.576-3.806-0.508-7.196l0.152-4.653l-0.891-0.712c-0.27-0.203-0.644-0.551-1.119-1.043
		c-0.423-0.542-0.822-1.059-1.194-1.551c-0.916-1.203-1.839-2.356-2.771-3.458c-2.595-3.035-4.476-6.272-5.646-9.714
		c-1.204-3.441-1.441-6.383-0.712-8.823c0.441-1.441,1.543-2.747,3.306-3.916c1.813-1.153,4.551-2.365,8.213-3.637l3.508-1.17
		v-1.271c0-2.68,0.755-5.535,2.265-8.57c1.491-3.068,3.509-5.874,6.051-8.416c0.967-0.984,1.695-1.78,2.187-2.392
		c0.476-0.609,0.865-1.263,1.17-1.958l0.789-1.805l-3.28-2.162c-2.137-1.39-3.857-2.542-5.162-3.458
		c-0.746-0.525-1.28-0.855-1.602-0.991c-0.374-0.17-0.713-0.221-1.018-0.152c-0.491,0.102-0.993,0.051-1.501-0.152
		c-0.508-0.204-0.763-0.458-0.763-0.764c0-0.135,0.069-0.313,0.204-0.534c0.135-0.271,0.305-0.508,0.508-0.712
		c0.373-0.372,0.577-0.652,0.611-0.839c0.033-0.17-0.034-0.449-0.205-0.839c-0.203-0.509-0.533-0.848-0.99-1.018
		c-0.475-0.135-1.119-0.102-1.933,0.102c-0.559,0.136-1.025,0.187-1.399,0.153c-0.355-0.034-0.534-0.17-0.534-0.407
		c0-0.271,0.339-0.703,1.017-1.297c0.611-0.594,1.239-1.068,1.882-1.424c1.492-0.746,3.586-1.145,6.28-1.195
		c2.662,0,5.493,0.373,8.494,1.119c0.966,0.237,1.813,0.373,2.542,0.406c0.713,0.018,1.772,0,3.18-0.051l3.279-0.152l1.17-1.195
		c0.797-0.813,1.577-1.567,2.339-2.263c0.865-0.746,1.255-1.128,1.171-1.145c-0.052-0.034-0.492-0.187-1.323-0.458
		c-1.457-0.44-2.644-1.093-3.56-1.958c-0.882-0.864-1.322-1.797-1.322-2.797c0-0.476-0.051-0.831-0.152-1.067
		c-0.136-0.221-0.373-0.467-0.712-0.738c-0.373-0.271-0.603-0.508-0.687-0.712c-0.12-0.237-0.179-0.584-0.179-1.043
		c0-0.762-0.236-1.5-0.711-2.211c-0.459-0.662-0.755-1.297-0.891-1.907c-0.118-0.593-0.052-0.992,0.203-1.195
		c0.271-0.22,0.678-0.381,1.222-0.483c0.457-0.102,0.687-0.289,0.687-0.56c0.033-0.305-0.145-0.89-0.534-1.754
		c-0.187-0.356-0.306-0.704-0.356-1.042c-0.103-0.339-0.145-0.56-0.127-0.661c0.084-0.103,0.271-0.271,0.56-0.509
		c0.338-0.237,0.712-0.467,1.118-0.687c1.17-0.644,1.839-1.28,2.01-1.907c0.185-0.645,0.118-2.111-0.203-4.399
		c-0.237-1.848-0.357-3.984-0.357-6.408c0.034-2.442,0.171-4.111,0.407-5.009c0.068-0.271,0.076-0.458,0.025-0.561
		c-0.051-0.067-0.178-0.101-0.382-0.101c-0.339,0-0.721,0.135-1.144,0.406c-0.237,0.203-0.407,0.483-0.509,0.839
		c-0.102,0.374-0.187,1.094-0.254,2.162c-0.102,1.746-0.407,3.103-0.916,4.068c-0.491,0.949-1.255,1.695-2.288,2.237
		c-0.661,0.339-1.247,0.543-1.755,0.611c-0.525,0.067-1.695,0.102-3.509,0.102c-2.306-0.035-4.416-0.238-6.332-0.61
		c-1.916-0.374-4.594-1.077-8.036-2.111c-2.035-0.662-3.441-1.06-4.221-1.195c-0.711-0.136-1.525-0.179-2.441-0.128
		c-0.763,0.017-1.364,0.085-1.805,0.203c-0.39,0.085-0.738,0.23-1.042,0.434c-1.068,0.779-1.984,2.119-2.747,4.017
		c-0.78,1.864-1.517,4.569-2.212,8.111c-0.865,4.408-1.331,8.926-1.398,13.554c-0.035,4.679,0.33,8.764,1.093,12.256
		c0.577,2.543,1.331,5.188,2.263,7.935c0.932,2.729,2.119,5.797,3.56,9.204c1.424,3.34,2.339,5.68,2.747,7.019
		c0.39,1.306,0.508,2.356,0.356,3.153c-0.17,0.661-0.424,1.204-0.763,1.628c-0.322,0.406-0.704,0.609-1.144,0.609
		c-0.441-0.034-1.212-0.288-2.314-0.762c-1.068-0.458-2.018-0.976-2.848-1.552c-1.933-1.288-4.188-3.034-6.764-5.238
		c-2.492-2.17-5.874-5.238-10.146-9.205c-2.813-2.646-4.899-4.518-6.255-5.62c-1.407-1.068-2.941-2.068-4.603-3.001
		c-4.56-2.407-9.205-3.364-13.935-2.872c-4.763,0.542-9.272,2.517-13.528,5.924c-1.593,1.306-2.924,2.187-3.992,2.645
		c-1.068,0.441-2.289,0.661-3.662,0.661c-1.271,0.034-2.374-0.135-3.306-0.509c-0.898-0.372-1.831-1-2.797-1.881
		c-1.865-1.764-2.764-3.671-2.696-5.722c0.034-0.966,0.305-1.771,0.813-2.416c0.56-0.695,1.306-1.128,2.238-1.296
		c0.661-0.086,1.076-0.103,1.246-0.051c0.136,0.066,0.085,0.271-0.152,0.609c-0.204,0.373-0.22,0.806-0.051,1.297
		c0.136,0.542,0.44,1.009,0.915,1.399c0.56,0.542,1.111,0.838,1.653,0.889c0.56,0.086,1.221-0.041,1.983-0.381
		c1.17-0.543,1.67-1.161,1.5-1.856c-0.169-0.694-1.119-1.967-2.848-3.814c-1.627-1.729-2.746-2.991-3.356-3.789
		c-0.627-0.797-1.229-1.822-1.806-3.076c-0.424-0.865-0.669-1.543-0.737-2.034c-0.102-0.509-0.152-1.382-0.152-2.619
		c0-1.119,0.034-1.933,0.102-2.442c0.102-0.474,0.296-1.008,0.584-1.601c0.746-1.459,1.967-2.67,3.662-3.637
		c1.695-0.983,3.848-1.687,6.459-2.11l1.119-0.203l-1.17-0.56c-1.661-0.832-3.017-2.035-4.068-3.611
		c-0.983-1.526-1.526-3.246-1.627-5.162c-0.204-3.357,0.568-6.307,2.313-8.85c1.729-2.509,3.865-3.763,6.408-3.763h1.551
		l-1.271,0.966c-0.729,0.525-1.263,1.187-1.602,1.983c-0.356,0.78-0.424,1.466-0.204,2.06c0.475,1.305,1.662,1.958,3.56,1.958
		c1.068,0,1.882-0.186,2.441-0.56c0.542-0.355,1.102-1.093,1.678-2.211c0.322-0.695,0.551-1.306,0.686-1.831
		c0.136-0.542,0.221-1.356,0.254-2.441c0.119-2.408-0.059-5.077-0.534-8.01C86.671,108.631,85.781,104.884,84.509,100.41z"/>
</g>
</svg>
