<?xml version="1.0" encoding="utf-8"?>
<!-- Generator: Adobe Illustrator 16.0.0, SVG Export Plug-In . SVG Version: 6.00 Build 0)  -->
<!DOCTYPE svg PUBLIC "-//W3C//DTD SVG 1.1//EN" "http://www.w3.org/Graphics/SVG/1.1/DTD/svg11.dtd">
<svg version="1.1" id="Layer_1" xmlns="http://www.w3.org/2000/svg" xmlns:xlink="http://www.w3.org/1999/xlink" x="0px" y="0px"
	 width="300px" height="300px" viewBox="0 0 300 300" enable-background="new 0 0 300 300" xml:space="preserve">
<g>
	<path fill-rule="evenodd" clip-rule="evenodd" fill="#ED2224" d="M114.996,33.271c0,7.615-2.671,14.118-8.014,19.511
		c-5.368,5.343-11.858,8.014-19.474,8.014c-0.049,0-0.1,0-0.149,0c-6.491-0.05-12.146-2.022-16.964-5.917
		c-0.824-0.699-1.61-1.398-2.359-2.098c-5.343-5.393-8.014-11.896-8.014-19.511s2.671-14.106,8.014-19.474
		c5.343-5.343,11.834-8.014,19.473-8.014c3.396,0,6.566,0.537,9.513,1.61c3.62,1.298,6.94,3.433,9.961,6.404
		c2.747,2.771,4.781,5.805,6.104,9.1C114.359,26.068,114.996,29.526,114.996,33.271z M80.955,74.353
		c1.573,0.1,3.607,0.399,6.104,0.899c-3.246,3.645-5.505,7.939-6.779,12.882c-0.649,2.521-1.036,5.206-1.161,8.052
		c-6.242,1.822-11.709,4.893-16.403,9.212c-5.243,4.819-9.262,11.011-12.059,18.575c-1.548,4.02-2.609,7.802-3.183,11.347
		c-0.599,3.495-0.999,8.064-1.198,13.707c-0.075,5.117-0.013,8.738,0.187,10.86c0.175,2.121,0.787,5.442,1.835,9.961
		c4.369,18.325,13.606,37.449,27.712,57.372c7.814,11.011,16.727,21.695,26.739,32.057c8.139,8.414,16.99,16.628,26.551,24.642
		c2.372,1.972,4.407,3.745,6.104,5.317c1.697,1.523,2.546,2.347,2.546,2.472c0,0.648-0.225,0.949-0.674,0.899
		c-0.499,0-1.46-0.338-2.883-1.011c-16.303-7.79-32.469-18.563-48.497-32.319c-0.5-0.424-0.999-0.873-1.498-1.348
		c-16.502-14.356-29.997-29.46-40.482-45.313c-8.363-12.633-14.43-24.654-18.201-36.064c-3.819-11.359-5.542-22.619-5.167-33.778
		c0.399-10.561,2.409-20.635,6.029-30.222c3.745-9.537,8.638-17.352,14.68-23.443c4.494-4.519,9.313-7.989,14.456-10.411
		c5.218-2.347,10.973-3.745,17.264-4.194c2.796-0.25,5.23-0.3,7.302-0.15C80.53,74.353,80.755,74.353,80.955,74.353z"/>
	<path fill-rule="evenodd" clip-rule="evenodd" fill="#010101" d="M118.029,79.82c0.624,0.624,1.186,1.261,1.685,1.91
		c2.796,3.544,4.194,7.652,4.194,12.32c0,2.472-0.362,4.756-1.086,6.853c-0.999,2.697-2.597,5.143-4.793,7.34
		c-3.945,3.944-8.688,5.917-14.231,5.917c-1.723,0-3.345-0.162-4.868-0.487c-3.545-0.898-6.666-2.708-9.362-5.43
		c-0.3-0.274-0.562-0.562-0.787-0.861c-1.772-1.973-3.083-4.132-3.932-6.479c-0.674-1.873-1.036-3.845-1.086-5.917
		c-0.075-0.324-0.112-0.637-0.112-0.936c0-5.542,1.972-10.286,5.917-14.23c1.249-1.249,2.559-2.284,3.932-3.108
		c3.021-1.848,6.454-2.771,10.298-2.771c1.772,0,3.496,0.212,5.168,0.637C112.362,75.401,115.383,77.149,118.029,79.82z
		 M133.833,99.519c0.574,0.475,1.161,0.937,1.76,1.385c3.72,2.996,6.666,5.542,8.838,7.64l5.243,5.13l2.471-3.258
		c8.863-11.31,17.59-19.911,26.178-25.802c8.563-5.892,17.539-9.45,26.926-10.673c4.494-0.674,9.612-0.586,15.354,0.262
		c5.691,0.799,10.411,2.084,14.156,3.857c6.591,3.021,12.271,7.502,17.039,13.444c4.818,5.917,8.525,13.032,11.122,21.346
		c1.073,3.37,1.784,6.366,2.134,8.987c0.301,2.597,0.45,6.554,0.45,11.872c0,5.542-0.225,10.136-0.675,13.781
		c-0.448,3.694-1.335,8.063-2.658,13.106c-4.219,16.927-11.934,34.241-23.144,51.942c-11.21,17.751-25.466,35.314-42.767,52.69
		c-1.673,1.648-3.296,3.221-4.869,4.719c-8.588,8.363-16.552,15.379-23.893,21.046l-4.269,3.222l-2.209-0.637
		c-10.087-3.021-22.37-11.871-36.851-26.552c-2.521-2.572-4.968-5.155-7.34-7.752c-11.535-12.732-21.808-26.639-30.821-41.719
		c-3.87-6.541-7.09-12.52-9.662-17.938c-2.546-5.342-4.769-10.847-6.666-16.515c-1.848-5.442-3.083-9.937-3.708-13.481
		c-0.599-3.495-0.911-7.802-0.936-12.92c0-4.793,0.187-8.352,0.562-10.673c0.4-2.321,1.286-4.98,2.659-7.977
		c1.374-2.946,3.757-5.768,7.153-8.464c3.346-2.746,6.716-4.568,10.111-5.468c5.518-1.473,11.534-0.911,18.05,1.686
		c6.591,2.597,13.282,7.078,20.073,13.444c0.924,0.874,1.536,1.535,1.835,1.984c0.3,0.399,0.325,0.725,0.075,0.975
		c-0.2,0.274-0.649,0.349-1.349,0.225c-0.674-0.15-1.897-0.574-3.67-1.273c-4.419-1.673-8.276-2.56-11.571-2.659
		c-3.246-0.1-6.292,0.562-9.138,1.984c-3.695,1.823-6.491,4.844-8.389,9.063c-1.922,4.193-3.046,9.662-3.371,16.402
		c-0.324,7.789,0.524,16.19,2.547,25.203c1.997,8.988,5.068,18.176,9.212,27.563c6.666,15.104,14.967,28.313,24.903,39.621
		c0.25,0.325,0.524,0.637,0.824,0.937c9.687,10.811,20.11,18.975,31.27,24.492l5.355,2.621l2.809-2.359
		c2.447-2.098,6.629-6.341,12.545-12.733c3.87-4.318,7.378-8.325,10.523-12.021c1.648-1.872,3.158-3.695,4.531-5.468
		c11.36-14.056,21.134-28.087,29.323-42.093c8.164-14.056,14.268-27.25,18.313-39.583c1.897-5.918,3.295-11.397,4.194-16.44
		c0.874-5.019,1.311-10.087,1.311-15.205c0-12.482-2.584-22.781-7.752-30.896c-5.143-8.063-12.532-13.319-22.17-15.766
		c-2.347-0.649-5.43-1.048-9.25-1.198c-3.77-0.2-7.002-0.1-9.699,0.299c-8.264,1.249-16.104,3.932-23.518,8.052
		c-7.365,4.12-14.23,9.674-20.598,16.665l-2.995,3.221l-3.708-3.37c-1.898-1.872-4.744-4.095-8.539-6.666
		c-3.745-2.547-7.215-4.631-10.411-6.254l-0.149-0.038c0.574-1.198,1.061-2.409,1.46-3.632c0.5-1.523,0.849-3.096,1.049-4.718
		C130.6,97.034,132.06,98.146,133.833,99.519z"/>
</g>
</svg>
