<?xml version="1.0" encoding="utf-8"?>
<!-- Generator: Adobe Illustrator 16.0.0, SVG Export Plug-In . SVG Version: 6.00 Build 0)  -->
<!DOCTYPE svg PUBLIC "-//W3C//DTD SVG 1.1//EN" "http://www.w3.org/Graphics/SVG/1.1/DTD/svg11.dtd">
<svg version="1.1" id="Layer_1" xmlns="http://www.w3.org/2000/svg" xmlns:xlink="http://www.w3.org/1999/xlink" x="0px" y="0px"
	 width="300px" height="300px" viewBox="0 0 300 300" enable-background="new 0 0 300 300" xml:space="preserve">
<g>
	<path fill-rule="evenodd" clip-rule="evenodd" fill="#89A57F" d="M78.658,80.762l147.211,158.633
		c0.1,0.125,0.275,0.188,0.525,0.188c0.201,0,0.364-0.037,0.488-0.112c0.15-0.176,0.226-0.352,0.226-0.526
		c0-0.25-0.037-0.451-0.112-0.602L79.786,79.748c-0.15-0.15-0.326-0.226-0.526-0.226c-0.25,0-0.45,0.075-0.601,0.226
		c-0.15,0.1-0.225,0.263-0.225,0.489C78.433,80.437,78.508,80.612,78.658,80.762z M84.407,66.409c4.684,0,8.779,1.804,12.286,5.411
		l139.47,150.705c3.356,3.582,5.035,8.04,5.035,13.376c0,5.134-1.679,9.53-5.035,13.188c-3.306,3.633-7.302,5.448-11.985,5.448
		c-4.709,0-8.804-1.815-12.286-5.448l-47.492-51.287c0.526,7.791-0.901,16.057-4.282,24.798v-0.074
		c-4.936,13.101-13.101,24.172-24.499,33.214h-0.075c-12.224,9.419-25.612,14.341-40.166,14.766
		c-16.231,0.502-31.912-5.122-47.042-16.869l-0.075-0.038h-0.075c-13.176-12.899-19.989-28.855-20.44-47.867
		c-0.275-19.438,6.337-35.406,19.838-47.905v-0.038c10.471-9.619,21.643-15.855,33.515-18.711
		c8.241-2.129,17.246-2.818,27.015-2.066l-35.732-38.55c-3.307-3.657-4.96-8.053-4.96-13.188c0-5.16,1.653-9.581,4.96-13.263
		C75.74,68.275,79.748,66.409,84.407,66.409z M111.122,140.314c-0.577-0.1-1.14-0.175-1.691-0.226
		c-10.02-0.951-19.212-0.338-27.579,1.842c-11.397,2.83-22.155,8.854-32.275,18.072c-12.875,11.924-19.163,27.128-18.861,45.613
		c0.45,18.211,6.963,33.49,19.538,45.839c14.478,11.121,29.495,16.482,45.05,16.082c13.902-0.427,26.727-5.136,38.475-14.129v-0.037
		c10.946-8.642,18.812-19.274,23.595-31.899c3.432-8.917,4.709-17.358,3.832-25.323c-0.1-0.727-0.188-1.416-0.262-2.066
		L111.122,140.314z"/>
	<path fill-rule="evenodd" clip-rule="evenodd" fill="#F1EC5B" d="M78.658,80.762c-0.15-0.15-0.225-0.325-0.225-0.525
		c0-0.226,0.075-0.389,0.225-0.489c0.151-0.15,0.351-0.226,0.601-0.226c0.201,0,0.376,0.075,0.526,0.226l147.21,158.594
		c0.075,0.15,0.112,0.352,0.112,0.602c0,0.175-0.075,0.351-0.226,0.526c-0.124,0.075-0.287,0.112-0.488,0.112
		c-0.25,0-0.426-0.063-0.525-0.188L78.658,80.762z M111.122,140.314l49.822,53.768c0.074,0.65,0.162,1.34,0.262,2.066
		c0.877,7.965-0.4,16.406-3.832,25.323c-4.783,12.625-12.649,23.258-23.595,31.899v0.037c-11.748,8.993-24.573,13.702-38.475,14.129
		c-15.555,0.4-30.572-4.961-45.05-16.082c-12.574-12.349-19.087-27.628-19.538-45.839c-0.301-18.485,5.986-33.689,18.861-45.613
		c10.12-9.218,20.878-15.242,32.275-18.072c8.366-2.18,17.559-2.793,27.579-1.842C109.981,140.14,110.545,140.215,111.122,140.314z
		 M270.918,85.947c0.802,2.581,0.577,5.285-0.676,8.116c-1.178,2.931-2.993,5.123-5.448,6.575c-2.404,1.403-4.671,1.653-6.8,0.751
		c-2.13-0.927-3.569-2.755-4.321-5.485c-0.577-2.555-0.351-5.273,0.676-8.153c1.253-2.881,3.006-5.086,5.261-6.614
		c2.43-1.328,4.771-1.553,7.026-0.676C268.765,81.413,270.191,83.242,270.918,85.947z M246.646,41.198
		c0.301,7.389-4.635,11.409-14.804,12.061c-11.623-0.652-18.899-0.576-21.83,0.225c-4.208,0.877-9.644,10.095-16.307,27.653
		c-6.663,17.409-14.753,26.802-24.272,28.18l-1.878-0.864c8.792,0.877,15.78-8.154,20.966-27.09
		c6.488-23.922,10.946-37.31,13.376-40.166c6.212-7.289,15.129-11.096,26.751-11.422C240.522,29.5,246.521,33.308,246.646,41.198z
		 M254.574,106.123c0.451,1.228,0.376,2.593-0.226,4.096c-0.726,1.528-1.64,2.655-2.742,3.382c-1.328,0.802-2.53,0.977-3.607,0.526
		c-1.027-0.476-1.791-1.391-2.292-2.743c-0.3-1.378-0.126-2.831,0.526-4.358c0.576-1.478,1.453-2.542,2.63-3.194
		c1.227-0.727,2.393-0.864,3.494-0.413C253.535,103.844,254.273,104.746,254.574,106.123z"/>
	<path fill-rule="evenodd" clip-rule="evenodd" fill="#EF414A" d="M270.918,85.947c-0.727-2.705-2.153-4.534-4.282-5.485
		c-2.255-0.877-4.597-0.652-7.026,0.676c-2.255,1.528-4.008,3.732-5.261,6.614c-1.026,2.88-1.253,5.598-0.676,8.153
		c0.752,2.73,2.191,4.559,4.321,5.485c2.129,0.902,4.396,0.652,6.8-0.751c2.455-1.452,4.271-3.644,5.448-6.575
		C271.495,91.232,271.72,88.527,270.918,85.947z M263.254,40.973c9.994,10.595,15.066,23.47,15.217,38.625
		c0.301,15.129-4.408,27.992-14.128,38.587c-8.767,10.02-19.813,15.255-33.139,15.705l-0.45,0.451
		c-8.041-0.451-14.792,2.354-20.252,8.416c-5.135,5.436-7.703,12.174-7.703,20.215c-0.15,8.04,2.255,14.991,7.214,20.853l-77.4-83.6
		c5.461,5.335,11.811,7.915,19.049,7.74c7.439-0.126,13.664-3.006,18.674-8.642c5.41-6.212,7.891-13.639,7.439-22.28l0.451-0.188
		c0.301-14.403,4.947-26.514,13.939-36.333c9.644-10.595,21.366-15.893,35.168-15.893C241.261,24.753,253.234,30.201,263.254,40.973
		z M254.574,106.123c-0.301-1.377-1.039-2.279-2.217-2.705c-1.102-0.451-2.268-0.313-3.494,0.413
		c-1.177,0.651-2.054,1.716-2.63,3.194c-0.652,1.527-0.826,2.98-0.526,4.358c0.501,1.353,1.265,2.268,2.292,2.743
		c1.077,0.45,2.279,0.275,3.607-0.526c1.103-0.727,2.017-1.854,2.742-3.382C254.95,108.716,255.025,107.351,254.574,106.123z
		 M246.646,41.198c-0.126-7.89-6.124-11.698-17.998-11.422c-11.622,0.326-20.539,4.133-26.751,11.422
		c-2.43,2.855-6.888,16.244-13.376,40.166c-5.186,18.936-12.174,27.967-20.966,27.09l1.878,0.864
		c9.52-1.378,17.609-10.771,24.272-28.18c6.663-17.559,12.099-26.776,16.307-27.653c2.931-0.801,10.207-0.877,21.83-0.225
		C242.012,52.607,246.947,48.587,246.646,41.198z"/>
</g>
</svg>
