<?xml version="1.0" encoding="utf-8"?>
<!-- Generator: Adobe Illustrator 16.0.0, SVG Export Plug-In . SVG Version: 6.00 Build 0)  -->
<!DOCTYPE svg PUBLIC "-//W3C//DTD SVG 1.1//EN" "http://www.w3.org/Graphics/SVG/1.1/DTD/svg11.dtd">
<svg version="1.1" id="Layer_1" xmlns="http://www.w3.org/2000/svg" xmlns:xlink="http://www.w3.org/1999/xlink" x="0px" y="0px"
	 width="300px" height="300px" viewBox="0 0 300 300" enable-background="new 0 0 300 300" xml:space="preserve">
<g>
	<path fill-rule="evenodd" clip-rule="evenodd" fill="#383635" d="M107.389,7.688c5.155-2.686,11.042-2.903,17.663-0.651
		c6.43,2.09,11.856,5.983,16.279,11.681c2.849,3.581,4.857,7.38,6.023,11.396c0.217-0.38,0.488-0.747,0.814-1.1
		c1.492-2.035,3.27-2.997,5.332-2.889c2.17,0,3.961,1.004,5.371,3.012c0.136,0.19,0.244,0.367,0.326,0.529
		c1.031-3.961,2.889-7.76,5.575-11.396c4.206-5.833,9.482-9.889,15.831-12.168c6.54-2.578,12.495-2.578,17.866,0
		c5.888,2.822,9.903,8.451,12.047,16.89c1.872,7.054,2.536,13.227,1.994,18.517c-0.271,3.12-0.963,5.766-2.075,7.936
		c0.434,0.108,0.882,0.217,1.343,0.325h0.081c25.369,9.713,40.779,26.44,46.232,50.181c1.547,6.702,2.212,14.854,1.995,24.459
		c2.278,19.264,4.91,28.923,7.896,28.977c3.554,0,6.904,1.75,10.052,5.25c5.128,5.888,7.679,13.078,7.651,21.569
		c-0.271,8.438-3.596,14.937-9.971,19.495c-6.621,4.64-11.952,6.361-15.995,5.168c-3.201-0.298-5.371,3.256-6.512,10.663v0.122
		c-1.438,8.194-3.404,15.492-5.9,21.896c-7.868,19.317-22.465,35.189-43.791,47.616c-8.709,4.64-20.811,7.813-36.303,9.523
		c-18.368,2.143-35.664,1.274-51.889-2.605c-44.713-10.852-70.841-39.327-78.384-85.424c-7.977-2.985-14.57-6.675-19.779-11.069
		c-5.969-5.128-8.614-12.265-7.936-21.407c0.461-8.004,4.545-14.651,12.25-19.941c4.179-2.876,8.059-3.922,11.64-3.135
		c2.984,0.651,4.477-0.583,4.477-3.703c-1.031-29.194,6.145-53.68,21.529-73.459C68.156,62.25,80.176,53.663,95.18,48.182
		c-1.736-5.426-1.52-13.131,0.651-23.116C97.703,16.52,101.556,10.727,107.389,7.688z M210.109,50.624
		c-0.108-0.054-0.189-0.108-0.244-0.162c-1.547,2.306-3.662,3.92-6.349,4.842c-4.747,1.52-10.378,1.452-16.89-0.203
		c-4.449-1.167-9.74-3.324-15.871-6.471l-5.332-2.727c1.628,2.415,3.12,5.44,4.477,9.076c2.687,8.547,3.663,16.659,2.93,24.337
		c-0.107,1.764-0.529,3.812-1.261,6.146c-0.869,2.442-1.696,4.341-2.482,5.698c-2.144,3.581-5.06,6.47-8.75,8.668
		c-3.474,2.035-7.313,3.311-11.518,3.826c-1.411,0.217-3.473,0.217-6.187,0l-2.971-0.326c-1.601-0.407-2.605-0.773-3.012-1.099
		c-3.582-1.601-6.606-4.409-9.076-8.424c-2.414-4.097-3.459-8.099-3.134-12.005c0.326-4.64,2.497-8.167,6.512-10.582
		c0.435-0.326,1.411-0.747,2.93-1.262l3.378-0.488c2.198,0.217,4.192,0.963,5.983,2.238c3.608,2.306,6.105,5.671,7.488,10.094
		c0.651,2.143,0.761,4.3,0.326,6.47c-0.542,2.28-1.615,4.125-3.215,5.535c-1.98,2.035-3.988,2.74-6.023,2.116
		c-2.089-0.651-3.608-2.062-4.558-4.233c-1.167-2.279-1.37-4.395-0.61-6.349c0.407-1.194,1.194-1.899,2.361-2.116
		c0.814-0.299,1.804-0.23,2.971,0.204h0.163v0.122c0.217,1.058,0.326,1.655,0.326,1.791c0,0.217-0.109,0.773-0.326,1.668h-0.163
		v-0.163l0.326-1.506c0-0.136-0.163-0.678-0.489-1.628h0.163c-1.384-0.19-2.306-0.19-2.767,0c-0.869,0.108-1.52,0.76-1.954,1.954
		c-0.624,1.736-0.353,3.567,0.814,5.494c0.977,2.089,2.279,3.35,3.907,3.784c1.709,0.299,3.392-0.407,5.046-2.116
		c2.904-2.822,3.609-6.335,2.117-10.541c-1.275-3.989-3.5-7.027-6.675-9.116c-3.798-2.686-7.325-2.862-10.581-0.529
		c-3.69,2.089-5.644,5.195-5.861,9.319c-0.434,3.689,0.394,7.421,2.482,11.192c2.469,4.151,5.291,6.973,8.465,8.465l2.768,0.936
		l3.052,0.488c2.604,0.19,4.612,0.19,6.023,0c3.988-0.326,7.772-1.547,11.354-3.663c3.5-2.306,6.199-5.195,8.1-8.669
		c1.084-1.926,1.804-3.785,2.156-5.575l1.14-5.82c0.298-3.798,0.19-7.854-0.326-12.168c-0.543-4.314-1.37-8.221-2.482-11.721
		c-1.547-4.423-3.256-7.922-5.128-10.5l-2.32-1.179l-0.65-1.14c-0.109,0.054-0.217,0.081-0.325,0.081c-0.218,0-0.448,0-0.692,0
		c-0.136,0-0.244-0.027-0.325-0.081c-0.163,0.271-0.353,0.543-0.569,0.814c-1.547,1.845-3.406,2.768-5.576,2.768
		c-2.063-0.082-3.84-1.059-5.332-2.931c-0.38-0.515-0.691-1.044-0.936-1.587l-1.221,2.401l-9.36,5.21
		c-13.62,7.597-24.445,10.161-32.477,7.692c-3.88-1.167-6.634-3.731-8.261-7.692c-14.733,5.372-26.562,13.837-35.489,25.396
		c-15.492,20.05-21.23,48.226-17.215,84.529c0,0.162-0.027,0.299-0.082,0.406c-0.135,0.108-0.244,0.19-0.326,0.244
		c-0.163,0.055-0.298,0.055-0.407,0c-0.163-0.054-0.271-0.136-0.326-0.244c-2.713-4.123-5.697-6.552-8.953-7.285
		c-3.283-0.759-6.824,0.204-10.623,2.89c-7.298,5.047-11.205,11.396-11.721,19.047c-0.651,8.764,1.845,15.573,7.488,20.43v-0.081
		c5.128,4.287,12.291,6.62,21.488,7c0.109,0,0.217,0.041,0.326,0.122s0.19,0.19,0.244,0.326
		c6.104,48.484,31.324,78.085,75.657,88.802c16.116,3.853,33.264,4.734,51.441,2.646c15.275-1.655,27.228-4.775,35.855-9.36h-0.041
		c21.081-12.317,35.502-28,43.262-47.046c2.495-6.322,4.449-13.566,5.86-21.733c1.275-8.221,2.197-13.81,2.768-16.767
		c0-0.136,0.054-0.23,0.163-0.285c0.108-0.108,0.244-0.163,0.407-0.163c0.107-0.055,0.243-0.027,0.406,0.081
		c6.43,4.803,12.847,4.965,19.25,0.488c6.077-4.341,9.226-10.514,9.442-18.518c0.107-8.193-2.334-15.111-7.326-20.756
		c-2.902-3.255-5.996-4.883-9.279-4.883c-3.038-0.055-6.268,1.343-9.687,4.191c0.163-1.193,0.38-2.428,0.652-3.703
		c0.651-3.907,0.922-10.907,0.813-21c-0.488-9.496-1.913-20.607-4.272-33.331c-4.315-23.66-18.925-40.25-43.832-49.773
		C211.073,50.842,210.599,50.733,210.109,50.624z M160.011,41.508l-0.04-0.163c0,0.027,0,0.081,0,0.163H160.011z M181.906,176.136
		c0.108-4.667,1.845-8.628,5.209-11.884c3.338-3.311,7.339-4.91,12.006-4.803c4.64,0.109,8.587,1.872,11.843,5.291
		c3.283,3.365,4.871,7.366,4.763,12.006c-0.109,4.612-1.846,8.573-5.21,11.885c-3.365,3.229-7.38,4.802-12.047,4.721
		c-4.64-0.109-8.587-1.846-11.843-5.21S181.798,180.775,181.906,176.136z M201.115,175.811c0-1.71-0.502-3.107-1.505-4.192
		c-1.194-1.112-2.578-1.723-4.152-1.831c-1.572,0-2.943,0.557-4.11,1.668c-1.166,1.059-1.75,2.401-1.75,4.029
		c0,1.547,0.584,2.903,1.75,4.07c1.086,1.167,2.389,1.75,3.907,1.75c1.628,0.135,3.025-0.394,4.192-1.587
		C200.451,178.659,201.008,177.356,201.115,175.811z M28.843,166.979c1.275-0.705,1.058-1.207-0.651-1.505
		c-1.709-0.326-3.229,1.234-4.558,4.68c-0.896,2.469-0.733,5.399,0.488,8.791c0.76,1.898,1.56,3.608,2.401,5.127
		c-1.411-0.704-2.591-2.292-3.541-4.761c-1.33-3.636-1.492-6.811-0.488-9.523c1.574-4.15,4.287-5.915,8.139-5.291
		c2.117,0.271,3.27,0.99,3.459,2.157c0.245,1.004-0.434,2.388-2.035,4.151c-0.163,0.136-0.298,0.217-0.407,0.244
		c-0.217,0-0.366-0.041-0.447-0.122c-0.136-0.136-0.991-0.285-2.564-0.448c-1.683-0.217-2.388-0.664-2.116-1.343
		C26.74,168.403,27.513,167.685,28.843,166.979z M261.633,169.706c0-0.109,0.026-0.19,0.082-0.245
		c0.054-0.107,0.136-0.162,0.243-0.162c3.5-1.764,6.213-1.628,8.14,0.407c1.493,1.655,1.981,4.11,1.465,7.366
		c-0.597,3.12-1.979,5.467-4.15,7.04c-1.249,0.923-2.536,1.466-3.866,1.628c0.108-0.054,0.217-0.135,0.325-0.244
		c3.799-3.039,5.955-5.928,6.471-8.668c0.489-2.768,0.123-4.884-1.099-6.35c-1.491-1.546-2.374-1.221-2.645,0.977
		c0.217,0.489,0.162,0.978-0.163,1.466c-0.326,0.434-1.072,0.732-2.238,0.896c-1.222,0.081-1.927,0.148-2.116,0.203
		c-0.136,0-0.258-0.055-0.366-0.163c-0.163-0.107-0.244-0.23-0.244-0.366C261.308,172.568,261.361,171.307,261.633,169.706z
		 M255.772,159.693c0,0.056,0,0.137,0,0.245c-0.163,0.189-0.325,0.475-0.488,0.854l-0.163,0.203L255.772,159.693z M100.389,169.299
		c0-1.601-0.529-2.958-1.587-4.069c-1.112-1.086-2.482-1.683-4.11-1.791c-1.574,0-2.917,0.597-4.029,1.791
		c-1.193,1.003-1.791,2.306-1.791,3.906c0,1.546,0.597,2.917,1.791,4.11c0.977,1.167,2.279,1.751,3.907,1.751
		c1.573,0,2.93-0.543,4.07-1.628C99.806,172.202,100.389,170.845,100.389,169.299z M86.308,157.944
		c3.364-3.256,7.366-4.87,12.006-4.844c4.667,0.137,8.627,1.913,11.883,5.332c3.283,3.337,4.884,7.339,4.803,12.006
		c-0.136,4.64-1.899,8.587-5.291,11.843c-3.365,3.282-7.367,4.856-12.006,4.722c-4.613-0.082-8.574-1.818-11.884-5.21
		c-3.256-3.364-4.83-7.366-4.721-12.006C81.207,165.12,82.943,161.173,86.308,157.944z M134.412,205.397
		c0.082-1.194,0.977-2.225,2.686-3.093c1.709-0.787,3.717-1.126,6.023-1.018c2.306,0,4.246,0.407,5.819,1.221
		c1.709,0.95,2.564,2.008,2.564,3.174c0,1.167-0.854,2.104-2.564,2.809c-1.709,0.841-3.703,1.221-5.982,1.14
		c-2.279,0-4.273-0.434-5.982-1.303C135.267,207.514,134.412,206.537,134.412,205.397z M94.366,229.856
		c9.007,3.066,18.341,5.454,28,7.163c31.255,5.236,60.259,2.171,87.012-9.198c-2.308,9.497-6.729,18.789-13.269,27.878
		c-13.104,18.206-30.347,26.373-51.727,24.501c-9.713-0.218-19.467-2.646-29.261-7.285c-19.86-9.307-30.293-25.069-31.297-47.291
		L94.366,229.856z M138.563,273.24l0.652,0.651c11.042,0,17.106-2.062,18.191-6.187c0.787-3.636-0.664-5.534-4.354-5.697
		c-3.69-0.217-6.01,1.262-6.959,4.437c-0.217-2.47-1.167-4.057-2.849-4.762c-1.493-0.76-3.053-0.651-4.681,0.325
		C134.114,264.64,134.114,268.384,138.563,273.24z"/>
	<path fill-rule="evenodd" clip-rule="evenodd" fill="#ECEC8B" d="M210.109,50.624c0.489,0.109,0.964,0.218,1.425,0.326
		c24.907,9.523,39.517,26.114,43.832,49.773c2.359,12.724,3.784,23.835,4.272,33.331c0.108,10.093-0.162,17.093-0.813,21
		c-0.272,1.275-0.489,2.51-0.652,3.703c3.419-2.849,6.648-4.246,9.687-4.191c3.283,0,6.377,1.628,9.279,4.883
		c4.992,5.645,7.434,12.563,7.326,20.756c-0.217,8.004-3.365,14.177-9.442,18.518c-6.403,4.477-12.82,4.314-19.25-0.488
		c-0.163-0.108-0.299-0.136-0.406-0.081c-0.163,0-0.299,0.055-0.407,0.163c-0.109,0.055-0.163,0.149-0.163,0.285
		c-0.57,2.957-1.492,8.546-2.768,16.767c-1.411,8.167-3.365,15.411-5.86,21.733c-7.76,19.046-22.181,34.729-43.262,47.046h0.041
		c-8.628,4.585-20.58,7.705-35.855,9.36c-18.178,2.089-35.325,1.207-51.441-2.646c-44.333-10.717-69.552-40.317-75.657-88.802
		c-0.054-0.136-0.136-0.245-0.244-0.326s-0.217-0.122-0.326-0.122c-9.198-0.38-16.36-2.713-21.488-7v0.081
		c-5.644-4.856-8.139-11.666-7.488-20.43c0.516-7.651,4.423-14,11.721-19.047c3.798-2.686,7.339-3.648,10.623-2.89
		c3.256,0.733,6.24,3.162,8.953,7.285c0.054,0.108,0.163,0.19,0.326,0.244c0.108,0.055,0.244,0.055,0.407,0
		c0.082-0.054,0.19-0.136,0.326-0.244c0.054-0.107,0.082-0.244,0.082-0.406c-4.016-36.303,1.723-64.479,17.215-84.529
		c8.927-11.559,20.756-20.024,35.489-25.396c1.627,3.96,4.381,6.525,8.261,7.692c8.031,2.469,18.856-0.095,32.477-7.692l9.36-5.21
		l1.221-2.401c0.245,0.543,0.556,1.073,0.936,1.587c1.492,1.872,3.269,2.849,5.332,2.931c2.17,0,4.029-0.923,5.576-2.768
		c0.217-0.271,0.406-0.543,0.569-0.814c0.081,0.054,0.189,0.081,0.325,0.081c0.244,0,0.475,0,0.692,0
		c0.108,0,0.216-0.027,0.325-0.081l0.65,1.14l2.32,1.179c1.872,2.578,3.581,6.078,5.128,10.5c1.112,3.5,1.939,7.407,2.482,11.721
		c0.517,4.314,0.624,8.37,0.326,12.168l-1.14,5.82c-0.353,1.791-1.072,3.649-2.156,5.575c-1.9,3.474-4.6,6.363-8.1,8.669
		c-3.582,2.116-7.366,3.337-11.354,3.663c-1.411,0.19-3.419,0.19-6.023,0l-3.052-0.488l-2.768-0.936
		c-3.174-1.492-5.996-4.314-8.465-8.465c-2.089-3.771-2.917-7.502-2.482-11.192c0.217-4.124,2.17-7.23,5.861-9.319
		c3.256-2.333,6.783-2.157,10.581,0.529c3.174,2.089,5.399,5.127,6.675,9.116c1.492,4.206,0.787,7.719-2.117,10.541
		c-1.655,1.709-3.337,2.415-5.046,2.116c-1.628-0.434-2.93-1.695-3.907-3.784c-1.167-1.927-1.438-3.758-0.814-5.494
		c0.435-1.194,1.085-1.846,1.954-1.954c0.461-0.19,1.383-0.19,2.767,0h-0.163c0.326,0.95,0.489,1.492,0.489,1.628l-0.326,1.506
		v0.163h0.163c0.217-0.895,0.326-1.451,0.326-1.668c0-0.136-0.109-0.733-0.326-1.791v-0.122h-0.163
		c-1.167-0.434-2.157-0.502-2.971-0.204c-1.167,0.217-1.954,0.922-2.361,2.116c-0.76,1.954-0.556,4.07,0.61,6.349
		c0.95,2.171,2.469,3.582,4.558,4.233c2.035,0.624,4.043-0.081,6.023-2.116c1.601-1.411,2.673-3.255,3.215-5.535
		c0.435-2.17,0.325-4.328-0.326-6.47c-1.383-4.423-3.879-7.788-7.488-10.094c-1.791-1.275-3.785-2.021-5.983-2.238l-3.378,0.488
		c-1.519,0.516-2.496,0.936-2.93,1.262c-4.015,2.415-6.186,5.942-6.512,10.582c-0.325,3.907,0.72,7.909,3.134,12.005
		c2.469,4.015,5.494,6.823,9.076,8.424c0.407,0.326,1.411,0.691,3.012,1.099l2.971,0.326c2.713,0.217,4.775,0.217,6.187,0
		c4.204-0.515,8.044-1.791,11.518-3.826c3.69-2.198,6.606-5.087,8.75-8.668c0.786-1.357,1.613-3.256,2.482-5.698
		c0.731-2.334,1.153-4.382,1.261-6.146c0.733-7.678-0.243-15.79-2.93-24.337c-1.356-3.636-2.849-6.661-4.477-9.076l5.332,2.727
		c6.131,3.147,11.422,5.304,15.871,6.471c6.512,1.655,12.143,1.723,16.89,0.203c2.687-0.922,4.802-2.536,6.349-4.842
		C209.92,50.516,210.001,50.57,210.109,50.624z M181.906,176.136c-0.108,4.64,1.465,8.642,4.721,12.006s7.203,5.101,11.843,5.21
		c4.667,0.081,8.682-1.492,12.047-4.721c3.364-3.312,5.101-7.272,5.21-11.885c0.108-4.64-1.479-8.641-4.763-12.006
		c-3.256-3.419-7.203-5.182-11.843-5.291c-4.667-0.107-8.668,1.492-12.006,4.803C183.751,167.508,182.015,171.469,181.906,176.136z
		 M255.772,159.693l-0.651,1.303l0.163-0.203c0.163-0.38,0.325-0.665,0.488-0.854C255.772,159.83,255.772,159.749,255.772,159.693z
		 M261.633,169.706c-0.271,1.601-0.325,2.862-0.162,3.784c0,0.136,0.081,0.259,0.244,0.366c0.108,0.108,0.23,0.163,0.366,0.163
		c0.189-0.055,0.895-0.122,2.116-0.203c1.166-0.163,1.912-0.462,2.238-0.896c0.325-0.488,0.38-0.977,0.163-1.466
		c0.271-2.197,1.153-2.522,2.645-0.977c1.222,1.466,1.588,3.582,1.099,6.35c-0.516,2.74-2.672,5.629-6.471,8.668
		c-0.108,0.109-0.217,0.19-0.325,0.244c1.33-0.162,2.617-0.705,3.866-1.628c2.171-1.573,3.554-3.92,4.15-7.04
		c0.517-3.256,0.028-5.711-1.465-7.366c-1.927-2.035-4.64-2.171-8.14-0.407c-0.107,0-0.189,0.055-0.243,0.162
		C261.659,169.516,261.633,169.597,261.633,169.706z M28.843,166.979c-1.33,0.706-2.103,1.425-2.32,2.157
		c-0.271,0.679,0.434,1.126,2.116,1.343c1.573,0.163,2.428,0.313,2.564,0.448c0.082,0.081,0.23,0.122,0.447,0.122
		c0.109-0.027,0.245-0.108,0.407-0.244c1.601-1.764,2.279-3.147,2.035-4.151c-0.19-1.167-1.343-1.886-3.459-2.157
		c-3.853-0.624-6.565,1.141-8.139,5.291c-1.004,2.713-0.841,5.888,0.488,9.523c0.95,2.469,2.13,4.057,3.541,4.761
		c-0.841-1.519-1.642-3.229-2.401-5.127c-1.221-3.392-1.384-6.322-0.488-8.791c1.33-3.445,2.849-5.006,4.558-4.68
		C29.9,165.771,30.118,166.273,28.843,166.979z M94.366,229.856l-10.541-4.232c1.004,22.222,11.437,37.984,31.297,47.291
		c9.794,4.64,19.548,7.067,29.261,7.285c21.38,1.872,38.622-6.295,51.727-24.501c6.539-9.089,10.961-18.381,13.269-27.878
		c-26.753,11.369-55.757,14.435-87.012,9.198C112.707,235.311,103.373,232.923,94.366,229.856z M134.412,205.397
		c0,1.14,0.855,2.116,2.564,2.93c1.709,0.869,3.704,1.303,5.982,1.303c2.279,0.081,4.273-0.299,5.982-1.14
		c1.709-0.705,2.564-1.642,2.564-2.809c0-1.166-0.854-2.224-2.564-3.174c-1.573-0.813-3.513-1.221-5.819-1.221
		c-2.307-0.108-4.314,0.23-6.023,1.018C135.389,203.173,134.494,204.203,134.412,205.397z M86.308,157.944
		c-3.365,3.229-5.101,7.176-5.209,11.843c-0.108,4.64,1.465,8.642,4.721,12.006c3.31,3.392,7.271,5.128,11.884,5.21
		c4.639,0.135,8.641-1.439,12.006-4.722c3.391-3.256,5.155-7.203,5.291-11.843c0.081-4.667-1.52-8.669-4.803-12.006
		c-3.256-3.419-7.216-5.195-11.883-5.332C93.674,153.074,89.672,154.688,86.308,157.944z"/>
	<path fill-rule="evenodd" clip-rule="evenodd" fill="#FFFFFF" d="M201.115,175.811c-0.107,1.546-0.664,2.849-1.668,3.907
		c-1.167,1.193-2.564,1.722-4.192,1.587c-1.519,0-2.821-0.583-3.907-1.75c-1.166-1.167-1.75-2.523-1.75-4.07
		c0-1.628,0.584-2.971,1.75-4.029c1.167-1.111,2.538-1.668,4.11-1.668c1.574,0.108,2.958,0.719,4.152,1.831
		C200.613,172.703,201.115,174.101,201.115,175.811z M100.389,169.299c0,1.546-0.583,2.903-1.75,4.07
		c-1.14,1.085-2.497,1.628-4.07,1.628c-1.628,0-2.93-0.584-3.907-1.751c-1.193-1.193-1.791-2.564-1.791-4.11
		c0-1.601,0.597-2.903,1.791-3.906c1.112-1.194,2.455-1.791,4.029-1.791c1.628,0.108,2.998,0.705,4.11,1.791
		C99.86,166.341,100.389,167.698,100.389,169.299z M138.563,273.24c-4.449-4.856-4.449-8.601,0-11.232
		c1.628-0.977,3.188-1.085,4.681-0.325c1.682,0.705,2.632,2.292,2.849,4.762c0.95-3.175,3.269-4.653,6.959-4.437
		c3.69,0.163,5.142,2.062,4.354,5.697c-1.085,4.125-7.149,6.187-18.191,6.187L138.563,273.24z"/>
</g>
</svg>
