<?xml version="1.0" encoding="utf-8"?>
<!-- Generator: Adobe Illustrator 16.0.0, SVG Export Plug-In . SVG Version: 6.00 Build 0)  -->
<!DOCTYPE svg PUBLIC "-//W3C//DTD SVG 1.1//EN" "http://www.w3.org/Graphics/SVG/1.1/DTD/svg11.dtd">
<svg version="1.1" id="Layer_1" xmlns="http://www.w3.org/2000/svg" xmlns:xlink="http://www.w3.org/1999/xlink" x="0px" y="0px"
	 width="300px" height="300px" viewBox="0 0 300 300" enable-background="new 0 0 300 300" xml:space="preserve">
<g>
	<path fill-rule="evenodd" clip-rule="evenodd" fill="#010101" d="M182.179,193.569c0-1.532,0.329-2.846,0.985-3.94
		c0.657-1.095,1.729-2.102,3.218-3.021c1.621-1.007,3.35-1.291,5.188-0.854c1.839,0.438,3.481,1.512,4.925,3.219
		c0.876,1.05,1.38,2.495,1.512,4.334c0.131,1.839-0.198,3.394-0.985,4.663c-0.702,1.226-1.795,2.21-3.284,2.955
		c-1.533,0.744-3.021,1.028-4.466,0.854c-2.232-0.219-3.962-1.072-5.188-2.561C182.814,197.773,182.179,195.89,182.179,193.569z
		 M180.669,189.235c-0.656,1.138-0.963,2.692-0.92,4.663c0.088,2.014,0.46,3.567,1.116,4.662c0.921,1.619,2.102,2.911,3.547,3.875
		c1.444,0.963,3.021,1.51,4.729,1.641c3.152,0.264,5.802-0.591,7.946-2.561c2.145-2.014,3.219-4.619,3.219-7.814
		c0-2.233-0.482-4.094-1.445-5.583c-0.964-1.532-2.518-2.823-4.664-3.874c-2.32-1.182-4.837-1.27-7.551-0.263
		C183.931,184.988,181.938,186.739,180.669,189.235z M179.354,172.291c0,0.526-0.086,0.898-0.262,1.117
		c-0.131,0.175-0.416,0.263-0.854,0.263c-0.613,0-1.072-0.175-1.379-0.525c-0.264-0.395-0.307-0.876-0.133-1.444
		c0.088-0.219,0.285-0.417,0.592-0.592s0.613-0.263,0.92-0.263c0.394,0,0.678,0.109,0.854,0.329
		C179.269,171.395,179.354,171.767,179.354,172.291z M182.114,172.555c0-0.657-0.373-1.467-1.117-2.43
		c-1.139-1.489-2.54-1.949-4.203-1.38c-1.664,0.569-2.495,1.773-2.495,3.612c0,1.883,0.722,3.065,2.166,3.546
		c1.489,0.481,2.978,0.066,4.466-1.247C181.72,173.955,182.114,173.255,182.114,172.555z M208.383,176.954
		c-0.876-1.707-1.292-3.195-1.249-4.465c0.045-1.227,0.57-2.934,1.577-5.123c1.138-2.32,1.707-3.743,1.707-4.269
		c0.045-0.569,0.241-1.182,0.591-1.839c0.789-1.532,3.065-1.685,6.83-0.459c3.722,1.226,6.37,2.976,7.946,5.253
		s2.211,4.685,1.904,7.224c-0.307,2.584-1.511,4.926-3.612,7.027c-1.444,1.531-2.933,2.604-4.465,3.218
		c-1.532,0.612-3.438,0.92-5.714,0.92h-2.89l-0.656-2.364C209.958,180.545,209.302,178.837,208.383,176.954z M154.729,185.688
		c1.577-0.7,2.518-1.444,2.823-2.232c0.264-0.657,0.066-1.007-0.591-1.051c-0.7-0.044-1.532,0.241-2.495,0.854
		c-1.27,0.743-2.758,1.138-4.466,1.182c-1.708,0-3.174-0.395-4.4-1.182c-1.007-0.57-1.729-0.898-2.167-0.985
		c-0.438-0.132-0.767-0.022-0.985,0.327c-0.482,0.789,0.175,1.665,1.97,2.627c1.751,0.964,3.59,1.445,5.517,1.445
		C151.511,186.674,153.108,186.346,154.729,185.688z M120.908,173.408c-0.175-0.175-0.263-0.569-0.263-1.182
		c0-0.569,0.088-0.942,0.263-1.117c0.131-0.175,0.459-0.219,0.985-0.132c0.875,0.132,1.357,0.614,1.445,1.446
		c0.087,0.524,0.043,0.853-0.131,0.984c-0.131,0.175-0.504,0.263-1.117,0.263C121.521,173.671,121.126,173.583,120.908,173.408z
		 M125.898,171.767c-0.131-0.657-0.525-1.379-1.182-2.168c-0.569-0.656-1.467-0.984-2.692-0.984
		c-1.226,0.043-2.145,0.416-2.758,1.116c-1.226,1.357-1.379,2.846-0.46,4.466c0.92,1.664,2.255,2.32,4.006,1.97
		c0.701-0.131,1.248-0.35,1.642-0.656c0.394-0.351,0.722-0.832,0.985-1.445C125.833,173.146,125.986,172.379,125.898,171.767z
		 M133.319,93.814c0.307,0.219,0.503,0.459,0.591,0.723c0.657,1.576,1.905,5.188,3.744,10.835c1.838,5.692,2.758,8.734,2.758,9.128
		c0,0.307-0.131,0.636-0.395,0.985c-0.262,0.351-0.569,0.657-0.919,0.92c-0.613,0.394-1.51,0.46-2.693,0.197
		c-1.182-0.308-4.203-1.27-9.063-2.89c-4.203-1.445-6.721-2.343-7.552-2.693c-1.708-0.7-2.67-1.423-2.889-2.167
		c-0.176-0.7,0.328-1.729,1.51-3.086c0.569-0.657,2.408-2.518,5.516-5.583c2.89-2.889,4.904-4.794,6.042-5.713
		c1.095-0.919,1.883-1.314,2.364-1.182C132.685,93.42,133.013,93.595,133.319,93.814z M163.594,126.716
		c-0.131,0.307-0.94,1.226-2.43,2.758c-1.532,1.489-3.263,3.131-5.188,4.926c-2.716,2.583-4.642,4.313-5.78,5.188
		c-1.094,0.832-1.816,1.16-2.166,0.985c-0.438-0.263-1.817-3.59-4.138-9.982c-2.32-6.436-3.48-10.113-3.48-11.032
		c0-0.263,0.065-0.569,0.197-0.919c0.131-0.264,0.285-0.505,0.46-0.724c0.612-0.568,1.707-0.7,3.284-0.394
		c1.62,0.307,4.859,1.27,9.719,2.89c4.904,1.62,7.881,2.78,8.932,3.48C164.054,124.593,164.251,125.534,163.594,126.716z
		 M163.856,111.414l-3.283,1.183c-1.357,0.524-2.693,0.854-4.006,0.984c-1.27,0.176-3.438,0.263-6.502,0.263
		s-5.078-0.065-6.042-0.197c-0.92-0.087-1.445-0.307-1.576-0.656c-0.394-1.007-0.438-1.686-0.131-2.036
		c0.306-0.306,1.138-0.524,2.496-0.656c1.575-0.132,4.378-0.109,8.405,0.065c3.984,0.132,6.764,0.328,8.341,0.591L163.856,111.414z
		 M102.256,196.064c-0.175-0.831-0.262-1.663-0.262-2.495c0-1.532,0.328-2.846,0.985-3.94s1.729-2.102,3.218-3.021
		c1.62-1.007,3.372-1.291,5.254-0.854c1.795,0.438,3.415,1.512,4.859,3.219c0.92,1.05,1.423,2.495,1.511,4.334
		c0.131,1.839-0.197,3.394-0.985,4.663c-0.569,1.007-1.576,1.926-3.021,2.758c-1.445,0.788-2.737,1.183-3.875,1.183
		c-1.182,0-2.495-0.395-3.94-1.183c-1.445-0.832-2.452-1.751-3.021-2.758C102.716,197.531,102.476,196.896,102.256,196.064z
		 M100.484,189.235c-0.57,1.007-0.854,2.518-0.854,4.531c0.044,1.97,0.329,3.502,0.854,4.597c1.269,2.408,3.284,4.138,6.041,5.188
		c2.715,0.964,5.21,0.876,7.487-0.263c2.102-1.051,3.655-2.364,4.662-3.94c1.051-1.575,1.576-3.459,1.576-5.647
		c0-4.51-2.167-7.685-6.501-9.522c-2.496-1.052-5.013-1.095-7.552-0.132C103.658,185.01,101.753,186.739,100.484,189.235z
		 M93.917,177.415c0.919-1.795,1.379-3.416,1.379-4.86c0-1.445-0.459-3.087-1.379-4.926c-2.189-4.291-3.24-9.15-3.153-14.579
		c0.132-5.429,1.38-10.508,3.744-15.236c2.145-4.246,5.561-8.361,10.245-12.346c4.641-4.027,9.719-7.18,15.235-9.456l3.021-1.248
		l14.841,4.859l2.496,8.012c1.926,6.261,3.218,10.157,3.875,11.69c0.701,1.575,1.532,2.604,2.496,3.086
		c1.138,0.612,2.211,0.788,3.218,0.525c0.438-0.088,1.488-0.876,3.152-2.364c1.663-1.488,3.611-3.371,5.845-5.647
		c3.021-3.065,5.013-5.21,5.976-6.436c0.963-1.183,1.445-2.124,1.445-2.824c0-1.401-0.635-2.562-1.904-3.481
		c-1.27-0.875-3.723-1.926-7.356-3.151l-6.829-2.233l3.415-0.394c2.101-0.263,4.138-0.657,6.106-1.183
		c1.971-0.569,3.612-1.203,4.927-1.904c1.269-0.744,2.319-1.095,3.152-1.051c0.831,0.044,2.626,0.504,5.385,1.379
		c6.961,2.146,12.96,5.014,17.994,8.604c5.034,3.634,9.259,8.078,12.675,13.331c3.152,4.772,4.925,10.092,5.318,15.958
		c0.395,5.867-0.678,11.274-3.217,16.222c-0.92,1.795-1.379,3.438-1.379,4.925c0.043,1.532,0.524,3.24,1.444,5.123
		c1.269,2.582,2.145,4.99,2.627,7.224c0.438,2.188,0.591,4.815,0.46,7.881c-0.088,2.363-0.264,4.072-0.526,5.122
		c-0.219,1.052-0.722,2.386-1.511,4.006c-3.59,7.312-10.485,13.068-20.686,17.271c-10.157,4.203-22.307,6.305-36.448,6.305
		c-13.922,0-26.027-2.102-36.316-6.305c-10.289-4.246-17.206-9.96-20.752-17.141c-0.833-1.663-1.379-3.021-1.642-4.07
		c-0.219-1.052-0.373-2.781-0.459-5.188c-0.132-3.021,0.043-5.757,0.525-8.21C91.88,182.208,92.734,179.778,93.917,177.415z
		 M82.161,160.733c4.247-1.007,6.611-0.481,7.092,1.576c0.219,0.876,1.007,2.824,2.365,5.845l1.97,4.4l-2.102,4.925
		c-1.358,3.284-2.167,5.21-2.43,5.78c-0.307,0.612-1.313,0.962-3.021,1.051c-1.664,0.087-3.284-0.089-4.86-0.526
		c-1.751-0.481-3.502-1.576-5.253-3.284c-1.751-1.707-2.846-3.393-3.284-5.056c-0.832-3.284-0.35-6.349,1.445-9.194
		C75.922,163.404,78.614,161.565,82.161,160.733z M94.245,133.742c-2.277,3.503-3.788,6.523-4.532,9.063
		c-0.788,2.452-1.226,5.867-1.313,10.245l-0.131,4.859h-3.415c-2.714,0-5.209,0.658-7.486,1.971c-2.189,1.27-3.94,2.978-5.254,5.123
		c-1.313,2.145-2.036,4.443-2.167,6.895c-0.088,2.54,0.525,4.926,1.839,7.158c1.4,2.408,3.305,4.27,5.713,5.583
		c2.364,1.356,4.991,2.035,7.881,2.035h2.955l0.197,6.042c0.087,2.626,0.262,4.51,0.525,5.647c0.175,1.139,0.591,2.408,1.248,3.809
		c2.714,5.911,7.224,10.814,13.528,14.711c6.304,3.94,14.513,7.005,24.627,9.194c3.327,0.7,6.063,1.116,8.208,1.247
		c2.146,0.176,6.502,0.263,13.069,0.263c5.473,0,9.566-0.065,12.279-0.196c2.584-0.132,4.927-0.394,7.028-0.788
		c20.972-3.984,34.324-11.755,40.06-23.313c1.007-2.058,1.62-3.612,1.839-4.663c0.263-1.051,0.438-2.999,0.526-5.845l0.196-6.107
		h2.955c4.158,0,7.793-1.423,10.901-4.269s4.663-6.195,4.663-10.048c0-3.81-1.511-7.18-4.531-10.114
		c-3.021-2.888-6.502-4.334-10.442-4.334h-3.414v-4.991c-0.045-3.107-0.395-5.866-1.052-8.274c-0.656-2.451-1.839-5.275-3.546-8.472
		c-2.846-5.384-7.269-10.288-13.266-14.71c-5.955-4.466-12.5-7.771-19.636-9.917c-2.802-0.787-4.291-1.247-4.466-1.379
		c-0.132-0.131,0.48-1.007,1.839-2.627c2.714-3.152,4.531-7.026,5.45-11.624c0.877-4.552,0.35-8.799-1.576-12.74
		c-1.969-3.94-5.078-7.005-9.324-9.194c-1.139-0.613-2.234-1.029-3.283-1.248c-1.051-0.263-2.541-0.438-4.467-0.525
		c-2.145-0.088-3.656-0.066-4.531,0.065c-0.832,0.132-1.904,0.547-3.218,1.249c-4.554,2.276-7.443,5.822-8.669,10.639
		c-1.27,4.772-0.373,8.866,2.692,12.28c3.679,4.028,7.925,5.407,12.741,4.138c2.451-0.612,4.4-1.926,5.844-3.939
		c1.401-1.971,1.992-4.226,1.773-6.765c-0.219-2.671-1.204-4.75-2.955-6.239c-1.707-1.489-3.853-2.101-6.436-1.839
		c-1.752,0.219-3.197,0.92-4.334,2.102c-1.051,1.095-1.687,2.409-1.905,3.94c-0.219,1.488,0.021,2.846,0.722,4.072
		c0.789,1.357,2.016,2.277,3.679,2.758c0.7,0.175,1.203,0.24,1.511,0.197c0.307-0.044,0.503-0.219,0.591-0.525
		c0.219-0.526,0.196-0.985-0.066-1.38c-0.306-0.394-0.766-0.59-1.378-0.59c-1.445,0-2.344-0.898-2.693-2.693
		c-0.35-1.751,0.088-3.196,1.313-4.334c0.919-0.875,1.97-1.335,3.153-1.38c1.225-0.043,2.473,0.329,3.742,1.117
		c2.014,1.227,3,3.021,2.955,5.385c-0.043,2.364-1.072,4.51-3.086,6.436c-1.051,0.964-2.648,1.511-4.795,1.642
		c-2.102,0.132-3.962-0.219-5.582-1.051c-3.327-1.663-5.188-4.421-5.582-8.274c-0.394-3.765,0.81-7.224,3.611-10.376
		c1.577-1.795,3.219-3.021,4.926-3.677c1.664-0.657,3.787-0.898,6.371-0.723c2.364,0.132,4.486,0.635,6.369,1.511
		c1.883,0.875,3.612,2.167,5.189,3.874c1.75,1.927,2.955,3.787,3.611,5.583c0.699,1.794,1.029,4.028,0.984,6.698
		c0,2.715-0.372,5.122-1.116,7.224c-0.7,2.146-1.838,4.204-3.415,6.174c-1.531,1.882-2.736,2.978-3.611,3.283
		c-0.832,0.351-2.408,0.328-4.729-0.065c-1.095-0.175-2.89-0.329-5.385-0.46c-2.451-0.175-4.882-0.263-7.29-0.263l-8.668-0.065
		l-2.431-7.225c-1.226-3.765-2.122-6.194-2.692-7.289c-0.613-1.05-1.445-1.773-2.495-2.167c-1.095-0.438-2.343-0.175-3.744,0.788
		c-1.445,1.007-4.027,3.414-7.75,7.224c-3.24,3.239-5.253,5.385-6.042,6.437c-0.789,1.007-1.182,1.948-1.182,2.823
		c0,1.095,0.329,2.058,0.985,2.89s1.554,1.379,2.692,1.642c0.701,0.176,0.875,0.416,0.525,0.723c-0.262,0.263-1.422,0.92-3.48,1.97
		C105.868,120.608,98.886,126.606,94.245,133.742z M45.45,80.548c10.07-15.104,22.745-27.429,38.024-36.974
		c15.279-9.544,32.004-15.563,50.173-18.06c3.634-0.525,8.975-0.788,16.023-0.788c7.049,0,12.435,0.241,16.156,0.722
		c21.321,2.846,40.432,10.354,57.331,22.525c16.943,12.127,30.1,27.779,39.469,46.955c4.422,8.976,7.641,17.863,9.654,26.664
		c2.014,8.756,3.021,18.212,3.021,28.369c0,9.896-0.964,19.221-2.89,27.977c-1.97,8.713-5.034,17.359-9.193,25.94
		c-3.328,6.962-6.896,13.156-10.705,18.585c-3.854,5.386-8.472,10.771-13.856,16.155s-10.792,10.004-16.222,13.857
		c-5.385,3.809-11.558,7.377-18.519,10.704c-12.653,6.085-26.094,9.96-40.323,11.624c-4.29,0.481-10.157,0.591-17.6,0.328
		c-7.487-0.218-13.31-0.701-17.469-1.445c-20.139-3.634-38.133-11.427-53.982-23.378c-15.849-11.953-28.239-27.058-37.171-45.313
		c-4.421-8.976-7.639-17.841-9.654-26.598c-2.014-8.801-3.021-18.279-3.021-28.437c0-7.311,0.503-14.098,1.51-20.358
		c0.963-6.261,2.54-12.739,4.729-19.438c1.445-4.29,3.59-9.347,6.436-15.17C40.218,89.173,42.912,84.357,45.45,80.548z"/>
</g>
</svg>
