<?xml version="1.0" encoding="utf-8"?>
<!-- Generator: Adobe Illustrator 16.0.0, SVG Export Plug-In . SVG Version: 6.00 Build 0)  -->
<!DOCTYPE svg PUBLIC "-//W3C//DTD SVG 1.1//EN" "http://www.w3.org/Graphics/SVG/1.1/DTD/svg11.dtd">
<svg version="1.1" id="Layer_1" xmlns="http://www.w3.org/2000/svg" xmlns:xlink="http://www.w3.org/1999/xlink" x="0px" y="0px"
	 width="300px" height="300px" viewBox="0 0 300 300" enable-background="new 0 0 300 300" xml:space="preserve">
<g>
	<path fill-rule="evenodd" clip-rule="evenodd" fill="#FEEEE6" d="M158.092,158.228c-0.588-0.524-1.205-1.017-1.855-1.479V23.906
		c0-0.251,0.021-0.493,0.063-0.723h1.729c0.042,0.23,0.063,0.472,0.063,0.723V158.228z M81.548,73.353l-1.855,2.358V23.183h1.855
		V73.353z M115.969,90.674c-0.649,0.084-1.268,0.22-1.855,0.408V23.183h1.855V90.674z M214.171,69.612
		c-0.628,0.063-1.247,0.178-1.854,0.346V23.183h1.854V69.612z M227.499,130.188l-1.886,2.389v-28.48
		c0.356-0.419,0.671-0.848,0.942-1.288c0.314,0.167,0.629,0.324,0.943,0.472V130.188z M214.171,160.993l-1.54,2.012l-0.031-0.031
		c-0.189-0.419-0.283-0.911-0.283-1.478v-53.659c0.607,0.188,1.227,0.335,1.854,0.44V160.993z M187.514,124.151l-1.854,2.358
		v-23.545c0.063,0,0.125,0,0.188,0c0.566,0,1.121-0.021,1.666-0.063V124.151z M133.006,226.66v18.264l-1.855,2.39v-20.716
		C131.759,226.619,132.377,226.64,133.006,226.66z M121.532,152.349l-0.848,1.101l-1.006-0.314v-13.926
		c0.628-0.126,1.247-0.304,1.854-0.534V152.349z M97.044,188.499l-0.125-5.407l-1.729,2.264v-47.813
		c0.608,0.251,1.226,0.461,1.854,0.629V188.499z"/>
	<path fill-rule="evenodd" clip-rule="evenodd" fill="#F79868" d="M131.151,226.598c-3.206-0.21-6.444-0.827-9.713-1.854
		c-3.039-0.943-5.836-2.169-8.394-3.678c3.5,0.859,6.937,1.236,10.311,1.132c0.167-0.021,0.346-0.032,0.534-0.032
		c5.029-0.251,9.933-1.634,14.712-4.149c9.304-4.841,15.423-12.469,18.358-22.885c1.152-4.086,1.676-8.131,1.571-12.134
		c-0.021-1.235-0.104-2.462-0.252-3.677c-0.607-4.968-2.168-9.871-4.684-14.712c-0.293-0.587-0.598-1.152-0.912-1.698
		c-0.711-1.215-1.455-2.389-2.231-3.521c-2.536-3.625-5.491-6.716-8.865-9.272c1.027,0.251,2.075,0.545,3.144,0.88
		c4.317,1.362,8.152,3.28,11.505,5.752c0.65,0.462,1.268,0.954,1.855,1.479c3.751,3.164,6.852,7.094,9.305,11.788
		c4.945,9.493,5.805,19.321,2.577,29.485c-3.228,10.185-9.567,17.739-19.018,22.664c-5.868,3.039-11.851,4.537-17.949,4.495
		C132.377,226.64,131.759,226.619,131.151,226.598z M81.548,73.353l1.131-1.477l0.157,6.727l6.318,2.264l-6.318,2.231l-0.157,6.695
		l-4.118-5.312l-6.444,1.917l3.804-5.532l-3.804-5.564l6.444,1.918l1.131-1.509L81.548,73.353z M225.613,132.576l1.886-2.389
		l1.729-2.232l0.157,6.695l6.319,2.264l-6.319,2.231l-0.157,6.696l-4.117-5.313l-6.444,1.917l3.804-5.532l-3.804-5.563l6.444,1.917
		L225.613,132.576z M187.514,124.151l2.075-2.703l0.157,6.728l6.35,2.231l-6.35,2.232l-0.157,6.727l-4.118-5.344l-6.443,1.948
		l3.803-5.563l-3.803-5.564l6.443,1.918l0.189-0.251L187.514,124.151z M212.631,163.005l1.54-2.012l1.132-1.478l0.157,6.728
		l6.318,2.263l-6.318,2.232l-0.157,6.695l-4.118-5.313l-6.444,1.918l3.805-5.533l-3.805-5.563l6.444,1.918L212.631,163.005z
		 M121.532,152.349l3.27-4.244l0.157,6.728l6.35,2.263l-6.35,2.232l-0.157,6.695l-4.118-5.313l-6.413,1.918l3.804-5.533
		l-3.804-5.563l5.407,1.604l1.006,0.314L121.532,152.349z M131.151,247.313l1.855-2.39l2.012-2.608l0.157,6.727l6.35,2.232
		l-6.35,2.231l-0.157,6.728l-4.118-5.313l-6.444,1.917l3.804-5.563l-3.804-5.564l6.444,1.917L131.151,247.313z M95.19,185.355
		l1.729-2.264l0.125,5.407l0.032,1.32l6.35,2.263l-6.35,2.232l-0.157,6.695l-4.086-5.313l-6.444,1.917l3.804-5.532l-3.804-5.563
		l6.444,1.917L95.19,185.355z"/>
	<path fill-rule="evenodd" clip-rule="evenodd" fill="#97A4D3" d="M97.044,138.172c-0.628-0.168-1.246-0.378-1.854-0.629
		c-1.09-0.503-2.096-1.174-3.018-2.012c-1.047-0.985-1.854-2.044-2.42-3.175c-0.775,0.126-1.593,0.188-2.452,0.188
		c-3.855,0-7.146-1.32-9.87-3.961c-2.704-2.599-4.055-5.753-4.055-9.462c0-3.688,1.352-6.853,4.055-9.493
		c2.557-2.452,5.616-3.751,9.179-3.898c0.314-2.577,1.467-4.83,3.458-6.758c2.368-2.284,5.239-3.427,8.613-3.427
		c2.745,0,5.166,0.775,7.261,2.326c0.419-0.671,0.88-1.331,1.383-1.98c1.991-2.473,4.254-4.076,6.79-4.81
		c0.587-0.188,1.206-0.324,1.855-0.408c0.503-0.063,1.037-0.095,1.603-0.095c4.003,0,7.418,1.771,10.248,5.313
		c2.62,3.29,4.014,7.199,4.181,11.726c0.482-0.084,0.975-0.126,1.477-0.126c2.976,0,5.533,1.289,7.67,3.866
		c2.117,2.62,3.175,5.764,3.175,9.431s-1.058,6.801-3.175,9.399c-2.138,2.619-4.694,3.929-7.67,3.929
		c-2.033,0-3.845-0.597-5.438-1.791c-0.545,1.131-1.258,2.2-2.138,3.206c-1.299,1.467-2.755,2.515-4.37,3.144
		c-0.607,0.23-1.226,0.408-1.854,0.534c-0.649,0.104-1.32,0.157-2.011,0.157c-3.228,0-5.973-1.278-8.236-3.835
		c-0.167-0.188-0.325-0.377-0.472-0.566c-0.167,0.189-0.346,0.378-0.534,0.566c-2.243,2.032-4.946,3.049-8.11,3.049
		C99.183,138.58,98.093,138.444,97.044,138.172z M212.316,69.958c0.607-0.167,1.227-0.283,1.854-0.346
		c0.629-0.063,1.269-0.094,1.918-0.094c4.002,0,7.418,1.404,10.247,4.212c2.62,2.619,4.024,5.742,4.213,9.367
		c0.481-0.063,0.964-0.094,1.445-0.094c2.997,0,5.554,1.026,7.671,3.08c2.137,2.075,3.206,4.579,3.206,7.513
		c0,2.935-1.069,5.428-3.206,7.481c-2.117,2.096-4.674,3.144-7.671,3.144c-1.655,0-3.153-0.314-4.495-0.942
		c-0.314-0.147-0.629-0.305-0.943-0.472c-0.271,0.44-0.586,0.869-0.942,1.288c-0.336,0.44-0.733,0.85-1.194,1.227
		c-2.264,2.054-5.009,3.08-8.236,3.08c-0.691,0-1.361-0.041-2.012-0.125c-0.628-0.105-1.247-0.252-1.854-0.44
		c-1.593-0.503-3.039-1.341-4.338-2.515c-0.168-0.146-0.325-0.294-0.472-0.44c-0.168,0.146-0.356,0.294-0.565,0.44
		c-2.222,1.635-4.926,2.452-8.111,2.452c-3.164,0-5.877-0.817-8.141-2.452c-1.049-0.755-1.844-1.593-2.389-2.515
		c-0.252,0.042-0.514,0.073-0.787,0.094c-0.545,0.042-1.1,0.063-1.666,0.063c-0.063,0-0.125,0-0.188,0
		c-3.773-0.042-7-1.09-9.682-3.144c-2.726-2.075-4.087-4.59-4.087-7.545s1.361-5.479,4.087-7.575
		c2.557-1.97,5.605-3.008,9.146-3.112c0.336-2.054,1.488-3.846,3.458-5.375c2.39-1.803,5.26-2.704,8.613-2.704
		c2.767,0,5.187,0.608,7.261,1.823c0.42-0.545,0.892-1.079,1.415-1.603C207.758,71.844,209.906,70.587,212.316,69.958z"/>
	<path fill-rule="evenodd" clip-rule="evenodd" fill="#FBDDA7" d="M150.453,159.39c0.776,1.132,1.52,2.306,2.231,3.521
		c0.314,0.546,0.619,1.111,0.912,1.698c2.516,4.841,4.076,9.744,4.684,14.712c0.147,1.215,0.231,2.441,0.252,3.677
		c0.104,4.003-0.419,8.048-1.571,12.134c-2.935,10.416-9.054,18.044-18.358,22.885c-4.779,2.516-9.683,3.898-14.712,4.149
		c-0.188,0-0.367,0.011-0.534,0.032c0.042-0.168,0.094-0.335,0.157-0.504c0.23-0.587,0.461-1.162,0.691-1.729
		c0.754-1.613,1.624-2.944,2.609-3.992c1.005-1.047,2.462-2.138,4.369-3.27c1.551-0.921,2.871-1.771,3.961-2.546
		c1.09-0.733,1.886-1.383,2.389-1.948c1.027-1.069,1.729-2.526,2.106-4.37c0.378-1.823,0.304-3.468-0.22-4.936
		c-0.188-0.545-0.398-0.943-0.628-1.194c-0.252-0.272-0.619-0.534-1.101-0.785c-0.272-0.126-0.618-0.188-1.038-0.188
		c-0.146,0-0.272-0.021-0.377-0.063l-0.314,0.063c-0.042-0.021-0.083-0.032-0.125-0.032c0-0.021-0.073-0.021-0.22,0
		c-0.021,0-0.052,0-0.095,0l-0.063,0.032l-0.031-0.032l-0.063,0.032h-0.126c-0.083,0.021-0.167,0.041-0.251,0.063
		c-0.188,0-0.357,0.01-0.503,0.031c-0.398,0.063-0.733,0.146-1.006,0.251c-0.754,0.252-1.687,0.462-2.798,0.629
		c-1.068,0.126-1.844,0.147-2.326,0.063c-0.566-0.063-1.121-0.271-1.666-0.628c-0.503-0.336-0.88-0.723-1.132-1.163
		c-0.167-0.356-0.283-0.713-0.345-1.069c-0.042-0.355-0.053-0.964-0.032-1.823c0-0.251-0.01-0.419-0.031-0.503
		c-0.042-0.084-0.188-0.178-0.44-0.283c-0.377-0.209-0.67-0.523-0.879-0.942c-0.231-0.419-0.242-0.723-0.032-0.911
		c0.209-0.231,0.325-0.356,0.346-0.378l0.063-0.031c0.042-0.063,0.084-0.115,0.125-0.157c0.273-0.23,0.388-0.419,0.346-0.566
		c-0.021-0.125-0.22-0.293-0.597-0.503c-0.46-0.251-0.723-0.534-0.786-0.848c-0.063-0.294,0.053-0.713,0.347-1.258
		c0.146-0.252,0.261-0.481,0.346-0.692c0.083-0.251,0.115-0.418,0.094-0.502c-0.083-0.188-0.335-0.514-0.754-0.975
		c-0.461-0.524-0.734-0.912-0.818-1.163c-0.104-0.314-0.052-0.682,0.157-1.101c0.21-0.439,0.577-0.911,1.1-1.414
		c0.587-0.524,1.038-1.038,1.352-1.54c0.314-0.462,0.492-0.943,0.534-1.446c0-0.272,0.011-0.462,0.032-0.566
		c0.063-0.083,0-0.565-0.189-1.445c-0.104-0.398-0.209-0.838-0.314-1.321c-0.314-1.403-0.513-2.482-0.597-3.237
		c-0.147-2.473,0.356-4.621,1.508-6.443c1.132-1.803,2.589-3.312,4.37-4.527c1.824-1.216,3.888-2.096,6.192-2.641
		c3.814-0.838,7.398-0.701,10.751,0.409c0.712,0.23,1.415,0.503,2.106,0.817C149.824,159.065,150.138,159.223,150.453,159.39z"/>
</g>
</svg>
