<?xml version="1.0" encoding="utf-8"?>
<!-- Generator: Adobe Illustrator 16.0.0, SVG Export Plug-In . SVG Version: 6.00 Build 0)  -->
<!DOCTYPE svg PUBLIC "-//W3C//DTD SVG 1.1//EN" "http://www.w3.org/Graphics/SVG/1.1/DTD/svg11.dtd">
<svg version="1.1" id="Layer_1" xmlns="http://www.w3.org/2000/svg" xmlns:xlink="http://www.w3.org/1999/xlink" x="0px" y="0px"
	 width="300px" height="300px" viewBox="0 0 300 300" enable-background="new 0 0 300 300" xml:space="preserve">
<g>
	<path fill-rule="evenodd" clip-rule="evenodd" fill="#98D6F4" d="M151.935,57.657c-0.397-1.425-0.596-3.012-0.596-4.76
		c0-1.154,0.027-2.291,0.081-3.408c0.469-0.578,0.893-1.208,1.271-1.893c-0.36,0.271-0.767,0.504-1.217,0.702
		c0.307-4.58,1.055-8.961,2.245-13.146l1.434-0.243c3.39-0.849,5.814-1.695,7.277-2.544c0.432-0.251,0.775-0.496,1.026-0.73
		c-1.731,0.253-4.499,0.523-8.304,0.812l-1.948-1.46l14.635-4.382l15.147-2.462c4.886,0,10.909,1.795,18.067,5.383
		c1.479,0.938,2.805,1.884,3.978,2.839c4.489,3.607,6.735,7.222,6.735,10.847l3.435,5.843c1.624,2.597,2.435,4.373,2.435,5.329
		v22.992l-1.434,2.435l-1.299,4.598h-0.054l-0.352,1.217v0.054l-0.271,0.973l-3.895,4.87l-1.002-1.001l-0.974-1.434v1.947
		l0.514,5.355c0,0.974-2.119,4.067-6.355,9.278v2.462l4.381-1.947c5.212,5.193,14.156,16.094,26.833,32.703
		c13.362,18.88,20.043,30.438,20.043,34.677c0,4.545-2.605,8.934-7.817,13.172c-5.841,4.221-11.045,6.33-15.607,6.33l-0.514-4.383
		c0-2.289,0.821-7.502,2.462-15.633c1.623-5.537,2.435-10.74,2.435-15.607l-1.001-6.844c-3.896,24.741-7.303,41.006-10.225,48.795
		c-2.272,6.836-7.646,13.508-16.121,20.018c-7.61,5.842-14.4,11.234-20.369,16.176l-5.517-1.488h-0.946
		c-0.687,0-2.317,0.973-4.897,2.92c-1.946,2.273-4.228,3.408-6.842,3.408l-0.461-0.512c2.598-3.229,5.356-5.988,8.277-8.277
		l-2.948-0.488c-3.896,3.914-6.167,5.869-6.815,5.869l-1.948-0.484l6.329-7.818l-2.434,0.947l-1.947,1.486l-0.948-0.486h-1
		c0.595-2.326,1.713-3.605,3.354-3.84c0.974-0.83,4.156-2.895,9.549-6.195c2.615,0.74,4.824,0.506,6.627-0.703l5.869,2.436
		l-2.948-5.355c1.299-0.65,4.888-6.023,10.766-16.123c5.176-8.133,8.413-12.199,9.71-12.199h3.924
		c-1.624-0.99-3.733-5.391-6.33-13.199c-1.622-7.16-2.435-12.199-2.435-15.12v-13.687l-2.436,11.74l-4.408-4.87l-0.974,0.947
		c0.974,2.615,2.931,4.896,5.869,6.844v8.305c-2.307,0-4.589-0.813-6.842-2.436l-5.654-3.271c0.216-4.473,0.884-7.972,2.002-10.496
		c0.883-2.002,2.389-3.814,4.517-5.437c2.29-1.768,3.797-3.283,4.517-4.545c1.372-2.435,2.057-6.112,2.057-11.036
		c0-8.421-6.194-17.744-18.583-27.969c-4.346-3.606-8.989-6.906-13.931-9.899c-4.147-2.542-7.06-4.049-8.736-4.517v-4.923
		c0.415-0.83,0.794-2.011,1.137-3.543c0.342-1.552,0.514-2.841,0.514-3.869c0-3.209-0.56-5.915-1.677-8.115
		c-0.704-1.352-1.931-2.939-3.68-4.76c-1.334-1.371-2.353-2.542-3.056-3.517c0.974-0.559,1.966-1.226,2.976-2.001l9.304-7.331
		l0.46,1.461v0.486l5.87-2.435l4.382-2.948v-1.948c-2.597,0-4.869,0.821-6.816,2.462c0.739-2.326,1.713-4.13,2.922-5.41
		C165.918,49.921,158.984,54.591,151.935,57.657z M182.013,58.306l-1.947-0.946l-6.384,13.146c0,0.667,0.171,1.813,0.514,3.435
		L182.013,58.306z M184.447,63.688l2.921-4.381l-0.487-1.947c-1.947,1.297-3.903,4.065-5.869,8.303
		c-1.93,4.219-2.741,7.313-2.434,9.278v1.434l4.409,4.896l3.435-18.583l-1.488,1.488L184.447,63.688z M180.553,50.515h-1.488
		c-3.588,0-5.697,1.137-6.329,3.409l3.895-0.486C178.92,53.438,180.228,52.463,180.553,50.515z M211.28,236.533
		c0-0.668-1.299-2.625-3.896-5.871l-0.975,1.947C208.358,235.225,209.981,236.533,211.28,236.533z M212.279,217.463
		c3.248-1.623,6.492-2.436,9.738-2.436l15.636,1.461c5.536,0,10.432-1.135,14.687-3.408l4.841,9.793l-1.46,5.355l0.487,2.92
		c0,5.537-5.203,9.766-15.607,12.688l-22.964,5.869c-6.835,14.967-22.775,24.895-47.823,29.781c1.947,0.775,1.947,1.758,0,2.947
		l-15.58,6.682c-2.056,1.154-4.184,0.514-6.383-1.92c-1.102-1.191-1.435-2.777-1.002-4.762c2.597-3.281,4.716-7.348,6.356-12.197
		l3.245-9.332c0.344-1.012,1.416-2.326,3.22-3.951c0.866-0.773,1.479-1.18,1.839-1.217l0.487-0.189
		c4.87,3.59,7.304,8.484,7.304,14.689l1.271,6.49l0.19-0.676v-5.355c0-3.264-0.486-6.195-1.461-8.791l-3.896-6.357
		c1.659-0.053,2.507-0.686,2.543-1.893l20.422-16.637c7.809-6.832,13.498-11.232,17.068-13.197
		C206.41,221.223,208.692,219.104,212.279,217.463z M196.647,83.732l-0.488-1.975c-2.596,4.543-4.544,8.619-5.843,12.227
		c0.956-0.686,1.922-1.84,2.895-3.463c1.316-2.254,2.624-3.382,3.922-3.382l1.001,0.974l-4.923,6.33
		c0.667,0,1.479,0.649,2.435,1.947l1.487,1.975l1.488-1.975l-1.974-3.894c0-0.974,0.494-1.786,1.486-2.435l4.383,4.869v-3.896
		l-3.896-3.435l1.946-0.46c2.599,0,3.896,1.624,3.896,4.87c0,4.544-1.946,7.961-5.842,10.252l-7.357,1l1.001,1.947l2.921,0.974
		c2.29,0,4.734-1.804,7.331-5.41c2.596-3.553,3.894-6.475,3.894-8.764c0-2.291-1.135-4.084-3.407-5.383L196.647,83.732z
		 M191.264,74.941l-1.948,0.974l-7.816,16.094c2.597-0.649,4.888-2.921,6.87-6.817L191.264,74.941z M199.081,76.375h0.486
		l0.515-5.356h-0.515L199.081,76.375z M204.95,78.809l5.384,1.948l-1.462,3.435c2.272-1.947,3.733-5.202,4.382-9.765l-1.486,1.488
		l-1.434-6.356C207.376,70.532,205.582,73.615,204.95,78.809z M201.055,76.97v1.839l2.922-2.894l-0.514-7.357
		C201.89,75.225,201.087,78.028,201.055,76.97z M173.682,193.281c0.396,0.125,0.686,0.207,0.865,0.242
		c2.777,0.775,5.645,1.164,8.603,1.164c0.323,0,0.955-0.035,1.893-0.109l4.762,2.381c3.263,1.967,5.058,3.273,5.382,3.922
		l-3.922,7.33l-5.356-8.818l1.461,13.229l-3.922,4.842l-9.765-3.381v-1.461c3.589-4.238,5.383-7.502,5.383-9.791
		c-2.597,1.404-4.824,3.119-6.681,5.139c0.469-1.137,0.901-2.516,1.298-4.139V193.281z M101.461,141.806l-1.001,0.487h-0.947v11.252
		h0.46l1.488,0.487c0.956,0,1.929-0.658,2.921-1.975l1.46-3.895l-1.46-3.922C103.39,142.618,102.417,141.806,101.461,141.806z
		 M79.74,185.545c-9.702-0.451-15.815-1.686-18.339-3.707l2.921-2.947l7.844,3.436l0.676,0.607
		c-5.147-4.838-9.285-9.756-12.416-14.754c-3.246-6.204-4.707-11.252-4.382-15.148v-2.271c0.271-4.418,2.056-9.197,5.355-14.336
		c1.948-3.283,3.318-6.113,4.112-8.494l19.313-1.271c7.501,0,14.669,4.4,21.504,13.199c0.469,0,0.929,0.028,1.379,0.081
		c0,0.506,0,1.02,0,1.543c0,8.097-1.46,14.129-4.382,18.096c-1.172,1.604-2.668,2.992-4.49,4.164
		c-1.191,0.775-2.913,1.678-5.167,2.705c-2.47,1.119-4.192,1.967-5.166,2.543c-1.839,1.064-3.336,2.299-4.49,3.707
		C81.562,175.637,80.137,179.918,79.74,185.545z M87.314,144.728v-3.896l-2.948-0.974c-2.921,0-6.338,3.264-10.251,9.792
		c-0.325,3.552,0.162,6.96,1.46,10.224l13.173,5.355l1.947-0.975h0.487l-3.408-5.841c-2.272-2.616-3.408-4.41-3.408-5.384
		C84.366,151.084,85.348,148.315,87.314,144.728z M38.437,239.914c-5.519-5.52-8.278-12.182-8.278-19.99
		c0-7.412,5.059-15.246,15.175-23.506c12.081,3.354,19.872,7.115,23.37,11.279l14.173,18.584l-0.487,0.973
		c-8.133,2.598-13.497,4.707-16.094,6.33c-3.265,4.563-4.896,8.801-4.896,12.713v1.434l-3.868,1.488
		C50.013,249.219,43.648,246.117,38.437,239.914z M102.786,198.854c0.361-0.289,0.713-0.559,1.056-0.813
		c9.593-7.176,22.82-10.766,39.681-10.766c8.691,0,16.535,1.236,23.532,3.707c2.579,0.902,4.499,1.578,5.761,2.027l-0.567,4.436
		c0,6.205-1.47,9.307-4.408,9.307c-1.948,0-8.611-2.119-19.989-6.357v-3.436c-1.931,5.393-10.73,9.756-26.401,13.092
		c-1.37-1.225-4.292-2.822-8.763-4.787C108.791,203.623,105.491,201.486,102.786,198.854z M169.3,212.107l0.081-0.162h0.027
		C169.372,211.998,169.336,212.053,169.3,212.107z"/>
	<path fill-rule="evenodd" clip-rule="evenodd" fill="#36A8E0" d="M163.782,249.219c0.847,0,1.568,0.297,2.164,0.893
		c0.595,0.594,0.892,1.316,0.892,2.162c0,0.83-0.297,1.553-0.892,2.164c-0.146,0.127-0.289,0.244-0.434,0.354l-1.542,0.27
		c-1.479,0-2.479-0.531-3.003-1.596c-0.306-0.596-0.459-1.361-0.459-2.299c0.649-1.082,1.614-1.723,2.895-1.922
		C163.512,249.227,163.637,249.219,163.782,249.219z"/>
	<path fill-rule="evenodd" clip-rule="evenodd" fill="#010101" d="M134.623,25.145c-1.93,1.604-2.895,3.065-2.895,4.381l3.409,7.817
		l-4.544-2.597c-3.318-3.48-3.111-7.178,0.622-11.09l6.383-1.461h0.46L134.623,25.145z M127.833,26.091
		c-1.028,1.785-1.65,3.877-1.866,6.274c-0.073,0.649-0.108,1.327-0.108,2.029c0,4.563,4.725,6.844,14.174,6.844l5.356-1.002
		c1.298,0,2.118,0.496,2.462,1.488h-0.515l-6.357,0.974c-1.298,0.343-4.219,0.514-8.764,0.514c-2.291,0-4.247-0.992-5.87-2.976
		c-1.623-1.622-2.434-3.732-2.434-6.33l1.434-4.869L127.833,26.091z M153.72,35.152l-9.792,1.705c-4.544,0-7.502-1.497-8.873-4.491
		c-0.595-1.316-0.892-2.921-0.892-4.814c0.559,2.237,1.767,3.842,3.625,4.814c1.353,0.704,3.075,1.056,5.167,1.056
		c0.703,0,2.028-0.353,3.976-1.056c2.236-0.847,5.302-2.164,9.197-3.948c3.299-1.551,7.205-3.454,11.713-5.707l-1.922-3.923
		c3.553,1.316,6.798,1.975,9.737,1.975h11.226c8.71,0,16.446,3.868,23.209,11.604c0.559,0.632,1.117,1.308,1.678,2.029
		c7.177,8.133,10.764,16.437,10.764,24.913v10.739l-4.219,13.172l-2.678,7.222c0,0.018,0,0.063,0,0.136l-1.975,5.111
		c2.543,1.317,5.111,1.759,7.709,1.326c-4.148,2.615-7.51,3.066-10.089,1.353l-2.408,2.921c1.298,1.947,5.365,6.338,12.199,13.173
		l11.712,13.2l4.87,11.226c1.965,4.868,4.407,8.286,7.33,10.25c0.992,3.895,4.245,8.936,9.764,15.12
		c5.843,7.16,9.107,12.209,9.792,15.148c0.308,3.264,2.417,9.277,6.33,18.041l2.434,16.123l-0.486,4.895
		c-0.343,1.947-0.026,3.418,0.947,4.41c-3.553,8.438-10.063,15.102-19.53,19.988c-5.842,3.246-13.975,6.176-24.398,8.791
		c-7.789,1.967-12.019,3.264-12.686,3.895c-4.544,9.793-12.523,17.113-23.938,21.965l-30.269,12.713
		c-4.868,2.939-8.438,4.408-10.711,4.408c-0.991,0-2.452-1.641-4.381-4.922c-2.291-2.598-3.436-4.859-3.436-6.789
		c0-4.363,5.31-15.49,15.931-33.379c1.209-0.957,2.129-1.262,2.761-0.92c1.677-0.254,2.858,0.199,3.543,1.354
		c0.667,1.117,1.082,2.064,1.243,2.84c4.544-4.6,10.333-9.855,17.365-15.771l-9.088,3.869c-2.938,1.623-5.059,2.434-6.356,2.434
		c-1.658,0-3.29-1.469-4.896-4.408c-1.317-2.58-1.976-5.176-1.976-7.791c0-1.297,0.497-2.443,1.488-3.434
		c4.021-4.094,8.484-7.232,13.39-9.414l-30.484-14.471c-5.536,6.168-11.721,9.25-18.556,9.25l-6.816-0.352v3.76l-8.818,7.332
		l-16.121-2.924l-4.842,7.818l2.435,4.869l3.408,9.277l4.409,2.922c2.272,1.965,3.408,3.273,3.408,3.922
		c0,1.641-1.307,4.074-3.922,7.303c-3.264,3.264-5.698,4.896-7.303,4.896c-4.237,0-9.115-1.461-14.633-4.383l-6.843,0.975
		c-3.264,0-7.34-1.957-12.227-5.869l-7.79,2.434c-7.501,0-13.858-3.57-19.069-10.711c-5.211-6.529-7.817-13.533-7.817-21.018
		c0-3.912,2.119-9.936,6.356-18.068c4.544-6.006,10.153-10.658,16.825-13.957c4.075-9.035,7.583-14.311,10.522-15.824
		c-2.488-2.471-4.761-6.049-6.816-10.738c-1.389-4.328-1.56-9.044-0.514-14.147c0-2.614,0.649-6.031,1.948-10.251
		c1.298-3.913,1.948-7.817,1.948-11.712c0-6.834,2.452-10.252,7.357-10.252c2.921,3.57,6.338,5.356,10.251,5.356l10.251-0.974
		c4.833,0,8.827,1.127,11.982,3.381l5.113-11.197l-0.514-8.305l1.488-9.251h2.921c1.623,5.519,3.57,9.413,5.843,11.685l0.514-8.764
		l2.434-0.973c4.887,0,6.997,9.105,6.33,27.319l11.252,8.304c5.536,3.912,9.278,5.869,11.226,5.869l8.791-18.069l-11.252-14.633
		v-1.488c0-3.571-0.965-5.68-2.895-6.33l2.895-7.816c-8.133-11.055-12.2-20.495-12.2-28.321c-0.486-0.325-1-0.73-1.541-1.217
		c-1.66-1.461-3.589-3.661-5.789-6.601c-2.254-3.246-3.381-6.166-3.381-8.763c0-3.264,0.802-5.221,2.408-5.871v2.921
		c0,3.571,0.658,6.664,1.974,9.278c0.866,2.417,2.101,4.021,3.706,4.815c0.793,0.379,1.668,0.568,2.624,0.568l2.462-0.487
		c1.28,1.299,3.228,2.272,5.842,2.921c5.158-0.523,10.27-1.884,15.337-4.084c7.05-3.066,13.983-7.736,20.801-14.011
		c-1.209,1.28-2.183,3.083-2.922,5.41c1.947-1.641,4.22-2.462,6.816-2.462v1.948l-4.382,2.948l-5.87,2.435v-0.486l-0.46-1.461
		l-9.304,7.331c-1.01,0.775-2.002,1.442-2.976,2.001c-2.705,1.587-5.131,2.38-7.276,2.38h-1.947l-2.435-0.486
		c-3.913,0.324-6.519,0.648-7.817,0.973c-1.966,0.649-2.948,2.111-2.948,4.383c0,4.255,4.066,11.576,12.199,21.963l-3.868,8.304
		l5.329,2.462v2.434l-2.895,0.487v1.975l8.764,3.868v1.975c0,6.833,1.956,10.251,5.87,10.251c12.045,0,21.486-3.904,28.319-11.713
		l0.46,0.46l-2.894,5.41l-1.488,0.459l6.87,3.435l-0.514,2.948c-2.271,0.632-4.887-0.188-7.844-2.46l-14.12,5.843l2.948,17.122
		l-0.513,3.382c1.641,1.965,4.074,7.826,7.303,17.582c2.921,10.422,5.375,17.256,7.357,20.502c2.687,4.473,5.526,7.412,8.521,8.818
		c1.353,0.631,2.74,0.947,4.165,0.947c4.888,0,7.331-5.373,7.331-16.121c0-3.895-0.649-6.654-1.949-8.277l-2.975,1.488
		c-2.561,0-5.571-2.668-9.034-8.006c-0.054-0.109-0.118-0.209-0.189-0.299l0.189,0.137l5.654,3.271
		c2.253,1.623,4.535,2.436,6.842,2.436v-8.305c-2.938-1.948-4.896-4.229-5.869-6.844l0.974-0.947l4.408,4.87l2.436-11.74v13.687
		c0,2.921,0.813,7.96,2.435,15.12c2.597,7.809,4.706,12.209,6.33,13.199h-3.924c-1.297,0-4.534,4.066-9.71,12.199
		c-5.878,10.1-9.467,15.473-10.766,16.123l2.948,5.355l-5.869-2.436c-1.803,1.209-4.012,1.443-6.627,0.703
		c-5.393,3.301-8.575,5.365-9.549,6.195c-1.641,0.234-2.759,1.514-3.354,3.84h1l0.948,0.486l1.947-1.486l2.434-0.947l-6.329,7.818
		l1.948,0.484c0.648,0,2.92-1.955,6.815-5.869l2.948,0.488c-2.921,2.289-5.68,5.049-8.277,8.277l0.461,0.512
		c2.614,0,4.896-1.135,6.842-3.408c2.58-1.947,4.211-2.92,4.897-2.92h0.946l5.517,1.488c5.969-4.941,12.759-10.334,20.369-16.176
		c8.476-6.51,13.849-13.182,16.121-20.018c2.922-7.789,6.329-24.055,10.225-48.795l1.001,6.844c0,4.867-0.812,10.07-2.435,15.607
		c-1.641,8.131-2.462,13.344-2.462,15.633l0.514,4.383c4.563,0,9.767-2.109,15.607-6.33c5.212-4.238,7.817-8.627,7.817-13.172
		c0-4.238-6.681-15.797-20.043-34.677c-12.677-16.608-21.621-27.509-26.833-32.703l-4.381,1.947v-2.462
		c4.236-5.211,6.355-8.304,6.355-9.278l-0.514-5.355v-1.947l0.974,1.434l1.002,1.001l3.895-4.87l0.271-0.973v-0.054l0.352-1.217
		h0.054l1.299-4.598l1.434-2.435V54.384c0-0.957-0.811-2.732-2.435-5.329l-3.435-5.843c0-3.625-2.246-7.24-6.735-10.847
		c-1.173-0.955-2.498-1.902-3.978-2.839c-7.158-3.588-13.182-5.383-18.067-5.383l-15.147,2.462l-14.635,4.382l1.948,1.46
		c3.805-0.289,6.572-0.559,8.304-0.812c-0.251,0.234-0.595,0.479-1.026,0.73c-1.463,0.849-3.888,1.695-7.277,2.544L153.72,35.152z
		 M212.279,217.463c-3.587,1.641-5.869,3.76-6.842,6.357c-3.57,1.965-9.26,6.365-17.068,13.197l-20.422,16.637
		c-0.036,1.207-0.884,1.84-2.543,1.893l3.896,6.357c0.975,2.596,1.461,5.527,1.461,8.791v5.355l-0.19,0.676l-1.271-6.49
		c0-6.205-2.434-11.1-7.304-14.689l-0.487,0.189c-0.359,0.037-0.973,0.443-1.839,1.217c-1.804,1.625-2.876,2.939-3.22,3.951
		l-3.245,9.332c-1.641,4.85-3.76,8.916-6.356,12.197c-0.433,1.984-0.1,3.57,1.002,4.762c2.199,2.434,4.327,3.074,6.383,1.92
		l15.58-6.682c1.947-1.189,1.947-2.172,0-2.947c25.048-4.887,40.988-14.814,47.823-29.781l22.964-5.869
		c10.404-2.922,15.607-7.15,15.607-12.688l-0.487-2.92l1.46-5.355l-4.841-9.793c-4.255,2.273-9.15,3.408-14.687,3.408l-15.636-1.461
		C218.771,215.027,215.527,215.84,212.279,217.463z M211.28,236.533c-1.299,0-2.922-1.309-4.87-3.924l0.975-1.947
		C209.981,233.908,211.28,235.865,211.28,236.533z M180.553,50.515c-0.325,1.948-1.633,2.922-3.923,2.922l-3.895,0.486
		c0.632-2.272,2.741-3.409,6.329-3.409H180.553z M184.447,63.688l0.486,0.487l1.488-1.488l-3.435,18.583l-4.409-4.896v-1.434
		c-0.308-1.965,0.504-5.059,2.434-9.278c1.966-4.238,3.922-7.006,5.869-8.303l0.487,1.947L184.447,63.688z M182.013,58.306
		l-7.817,15.634c-0.343-1.622-0.514-2.768-0.514-3.435l6.384-13.146L182.013,58.306z M151.475,48.297
		c0.45-0.198,0.856-0.432,1.217-0.702c-0.379,0.685-0.803,1.315-1.271,1.893c-2.632,3.264-6.428,4.896-11.387,4.896
		c-3.264,0-6.681-0.803-10.252-2.408c-2.614-0.974-4.571-1.947-5.869-2.921c-1.299-0.974-1.948-1.956-1.948-2.948
		c0-0.578,0.406-1.173,1.217-1.786c0.054-0.054,0.126-0.108,0.216-0.162c0.342,3.264,2.948,4.896,7.817,4.896
		c9.449,0,15.147-1.146,17.095-3.435c0,1.623-0.487,2.597-1.461,2.921l0.487,0.514C148.959,49.055,150.339,48.802,151.475,48.297z
		 M201.055,76.97c0.032,1.058,0.835-1.745,2.408-8.412l0.514,7.357l-2.922,2.894V76.97z M204.95,78.809
		c0.632-5.193,2.426-8.277,5.384-9.25l1.434,6.356l1.486-1.488c-0.648,4.563-2.109,7.817-4.382,9.765l1.462-3.435L204.95,78.809z
		 M199.081,76.375l0.486-5.356h0.515l-0.515,5.356H199.081z M191.264,74.941l-2.895,10.251c-1.982,3.896-4.273,6.167-6.87,6.817
		l7.816-16.094L191.264,74.941z M196.647,83.732l6.355,2.894c2.272,1.299,3.407,3.093,3.407,5.383c0,2.29-1.298,5.211-3.894,8.764
		c-2.597,3.606-5.041,5.41-7.331,5.41l-2.921-0.974l-1.001-1.947l7.357-1c3.896-2.291,5.842-5.708,5.842-10.252
		c0-3.246-1.297-4.87-3.896-4.87l-1.946,0.46l3.896,3.435v3.896l-4.383-4.869c-0.992,0.648-1.486,1.46-1.486,2.435l1.974,3.894
		l-1.488,1.975l-1.487-1.975c-0.956-1.297-1.768-1.947-2.435-1.947l4.923-6.33l-1.001-0.974c-1.298,0-2.605,1.128-3.922,3.382
		c-0.973,1.623-1.938,2.777-2.895,3.463c1.299-3.607,3.247-7.683,5.843-12.227L196.647,83.732z M173.682,193.281v10.549
		c-0.396,1.623-0.829,3.002-1.298,4.139c1.856-2.02,4.084-3.734,6.681-5.139c0,2.289-1.794,5.553-5.383,9.791v1.461l9.765,3.381
		l3.922-4.842l-1.461-13.229l5.356,8.818l3.922-7.33c-0.324-0.648-2.119-1.955-5.382-3.922l-4.762-2.381l-1.081-0.541
		c-2.958-1.947-6.384-8.771-10.279-20.475l-24.397-4.436c-6.835,0-15.292,3.254-25.373,9.764
		c-10.099,6.527-17.582,12.713-22.451,18.555c0.433,0.488,0.874,0.957,1.325,1.408c2.706,2.633,6.005,4.77,9.901,6.41
		c4.472,1.965,7.393,3.563,8.763,4.787c15.671-3.336,24.47-7.699,26.401-13.092v3.436c11.378,4.238,18.041,6.357,19.989,6.357
		c2.938,0,4.408-3.102,4.408-9.307l0.567-4.436l0.379-2.84l0.487,2.408V193.281z M152.691,96.878c-0.631,0-2.245-1.947-4.841-5.843
		l1.946-0.514c1.931,0,3.553,0.811,4.869,2.435v2.975L152.691,96.878z M155.153,87.6c-0.956,0-4.535-1.136-10.738-3.408
		c0.991-1.298,1.803-1.947,2.434-1.947C151.735,82.245,154.504,84.029,155.153,87.6z M113.146,108.13
		c0,0.973,0.983,2.434,2.948,4.382l-4.382,1.947l-1.948-1.461l-1.488,5.383l-2.435-0.487v3.896l-3.408-0.46l0.974-2.948h-0.974
		l-1.542,6.356l0.054-0.026c-0.072,1.659-0.072,2.984,0,3.976v0.405c0,2.507,2.02,4.914,6.059,7.222
		c0.162-0.072,0.343-0.145,0.541-0.216c0.541-0.234,1.172-0.487,1.894-0.758c2.723-1.027,4.292-1.704,4.706-2.029
		c0.397-0.306-0.18,0.216-1.731,1.569c-1.497,1.299-2.713,2.064-3.651,2.299c0.145,0.072,0.306,0.153,0.487,0.243l11.712,6.356
		c4.598,4.526,4.76,8.629,0.486,12.308c10.279,7.753,22.154,11.63,35.624,11.63c1.642,0,3.11-1.641,4.409-4.922
		c1.316-2.615,1.975-5.221,1.975-7.816c0-6.168-2.127-10.713-6.384-13.634v-2.46c3.606,2.596,6.221,7.149,7.845,13.659l1,1
		l-0.514-16.121c-0.955-8.476-2.092-12.712-3.408-12.712l-7.33,1c-2.29,2.597-4.409,8.448-6.356,17.555
		c3.265,6.185,5.545,9.926,6.844,11.225v3.923l-1.948-4.383l-0.514,0.948c0-1.949-5.202-6.665-15.607-14.148
		c-9.449-7.159-16.04-10.396-19.772-9.71c0.487-3.3,0.893-5.761,1.217-7.384l0.487-5.356l-4.382-13.687L113.146,108.13z
		 M103.408,107.156l0.974,2.434c1.298,0,2.109-0.487,2.434-1.46l-2.434-5.383c-0.992,0.649-1.488,1.47-1.488,2.462L103.408,107.156z
		 M101.461,141.806c0.956,0,1.929,0.812,2.921,2.436l1.46,3.922l-1.46,3.895c-0.992,1.316-1.966,1.975-2.921,1.975l-1.488-0.487
		h-0.46v-11.252h0.947L101.461,141.806z M79.74,185.545c2.867,0.145,6.041,0.215,9.521,0.215c4.544,0,9.422-1.947,14.633-5.842
		c5.86-4.236,8.467-8.303,7.817-12.199c6.257-2.848,8.728-6.293,7.412-10.332l-5.978,2.976l5.87-11.226
		c-2.958-5.625-6.727-8.691-11.307-9.197c-0.451-0.053-0.911-0.081-1.379-0.081c-6.834-8.799-14.002-13.199-21.504-13.199
		l-19.313,1.271c-0.794,2.38-2.164,5.211-4.112,8.494c-3.3,5.139-5.085,9.918-5.355,14.336v2.271
		c-0.325,3.896,1.136,8.944,4.382,15.148c3.13,4.998,7.269,9.916,12.416,14.754l-0.676-0.607l-7.844-3.436l-2.921,2.947
		C63.925,183.859,70.039,185.094,79.74,185.545z M87.314,144.728c-1.966,3.587-2.948,6.356-2.948,8.303
		c0,0.974,1.136,2.768,3.408,5.384l3.408,5.841h-0.487l-1.947,0.975l-13.173-5.355c-1.298-3.264-1.785-6.672-1.46-10.224
		c3.913-6.529,7.33-9.792,10.251-9.792l2.948,0.974V144.728z M99.513,195.012l33.649-24.885v-2.922l-9.765-5.869l-1.92,0.514
		l-14.661,19.475l-6.356,3.436c-3.895,1.623-5.843,3.084-5.843,4.383C94.617,193.057,96.249,195.012,99.513,195.012z
		 M38.437,239.914c5.211,6.203,11.576,9.305,19.096,9.305l3.868-1.488v-1.434c0-3.912,1.632-8.15,4.896-12.713
		c2.597-1.623,7.961-3.732,16.094-6.33l0.487-0.973l-14.173-18.584c-3.499-4.164-11.289-7.926-23.37-11.279
		c-10.117,8.26-15.175,16.094-15.175,23.506C30.159,227.732,32.918,234.395,38.437,239.914z M170.301,159.875l-2.461-1.947
		l-5.356,9.277l5.356,0.975l3.921-0.975v-4.896L170.301,159.875z M169.3,212.107c0.036-0.055,0.072-0.109,0.108-0.162h-0.027
		L169.3,212.107z M163.782,249.219c-0.146,0-0.271,0.008-0.379,0.025c-1.28,0.199-2.245,0.84-2.895,1.922
		c0,0.938,0.153,1.703,0.459,2.299c0.523,1.064,1.524,1.596,3.003,1.596l1.542-0.27c0.145-0.109,0.288-0.227,0.434-0.354
		c0.595-0.611,0.892-1.334,0.892-2.164c0-0.846-0.297-1.568-0.892-2.162C165.351,249.516,164.629,249.219,163.782,249.219z
		 M167.596,270.613c-0.162,0.379-0.433,0.641-0.812,0.785s-0.749,0.125-1.109-0.055c-0.307-0.125-0.541-0.379-0.703-0.758
		c-0.126-0.396-0.117-0.766,0.027-1.107c0.161-0.344,0.434-0.578,0.811-0.705c0.361-0.143,0.731-0.143,1.109,0
		c0.344,0.164,0.568,0.434,0.677,0.813C167.759,269.965,167.759,270.307,167.596,270.613z M165.594,261.119l-0.108,0.055
		c-0.035,0.271-0.108,0.531-0.217,0.785c-0.27,0.559-0.693,0.936-1.27,1.135c-0.578,0.217-1.137,0.207-1.678-0.027
		c-0.451-0.197-0.784-0.494-1.001-0.891c-0.072-0.092-0.136-0.191-0.188-0.299c-0.199-0.576-0.182-1.152,0.053-1.73
		c0.253-0.559,0.668-0.947,1.246-1.164c0.576-0.234,1.144-0.217,1.703,0.055c0.576,0.271,0.974,0.693,1.19,1.271
		c0.108,0.252,0.161,0.514,0.161,0.783L165.594,261.119z M165.757,263.959c0.504,0.234,0.855,0.605,1.054,1.109
		c0.199,0.523,0.173,1.02-0.08,1.488c-0.198,0.486-0.55,0.838-1.056,1.055c-0.523,0.182-1.037,0.154-1.541-0.08
		c-0.451-0.199-0.775-0.561-0.975-1.084c-0.199-0.504-0.199-1.008,0-1.514c0.234-0.486,0.613-0.811,1.136-0.975
		C164.818,263.744,165.307,263.744,165.757,263.959z"/>
</g>
</svg>
