<?xml version="1.0" encoding="utf-8"?>
<!-- Generator: Adobe Illustrator 16.0.0, SVG Export Plug-In . SVG Version: 6.00 Build 0)  -->
<!DOCTYPE svg PUBLIC "-//W3C//DTD SVG 1.1//EN" "http://www.w3.org/Graphics/SVG/1.1/DTD/svg11.dtd">
<svg version="1.1" id="Layer_1" xmlns="http://www.w3.org/2000/svg" xmlns:xlink="http://www.w3.org/1999/xlink" x="0px" y="0px"
	 width="300px" height="300px" viewBox="0 0 300 300" enable-background="new 0 0 300 300" xml:space="preserve">
<g>
	<path fill-rule="evenodd" clip-rule="evenodd" fill="#010101" d="M275.8,125.8l3.7-0.75c0.133,0,1.117,0.6,2.95,1.8
		c2.833,1.9,4.8,4.066,5.899,6.5c1.167,2.4,1.733,5.6,1.7,9.6c0,2.066-0.116,3.8-0.35,5.2c-0.2,1.333-0.567,2.684-1.101,4.05
		c-1.566,3.899-3.066,6.283-4.5,7.149c-1.433,0.834-3.533,0.601-6.3-0.699c-2.3-1.101-5.533-1.9-9.7-2.4
		c-2.8-0.334-5.449-0.916-7.949-1.75c-2.5-0.8-3.983-1.566-4.45-2.3c-0.233-0.4-0.367-2.25-0.4-5.55
		c-0.033-2.367,0.067-3.933,0.3-4.7c0.233-0.8,0.9-1.967,2-3.5C262.7,131.517,268.767,127.3,275.8,125.8z M268.3,97.6
		c5.833-2.867,10.533-3.217,14.101-1.05c1.366,0.833,2.732,2.2,4.1,4.1c1.367,1.867,2.184,3.517,2.45,4.95
		c0.267,1.5,0.133,3.316-0.4,5.45c-0.566,2.167-1.35,3.9-2.35,5.2c-0.8,1.033-1.384,1.6-1.75,1.7c-0.333,0.1-1.067-0.083-2.2-0.55
		c-1.867-0.767-3.617-0.983-5.25-0.65s-4.3,1.45-8,3.35c-1.967,0.966-3.934,1.85-5.9,2.65c-2,0.8-3.416,1.25-4.25,1.35
		c-1.366,0.233-2.283,0.267-2.75,0.1c-0.5-0.134-1.083-0.583-1.75-1.35c-0.433-0.467-0.883-1.15-1.35-2.05
		c-0.434-0.833-0.767-1.616-1-2.35c-0.367-1.2-0.467-2.167-0.3-2.9c0.133-0.7,0.683-2.033,1.649-4c1.334-2.7,3.317-5.283,5.95-7.75
		C261.967,101.3,264.967,99.233,268.3,97.6z M258.6,65.4c1.101-0.4,1.851-0.6,2.25-0.6c2.2,0.034,5.101,1.467,8.7,4.3
		c3.601,2.833,5.65,5.283,6.15,7.35c0.2,0.8,0.133,1.483-0.2,2.05s-1.25,1.55-2.75,2.95c-0.967,0.866-2.217,1.85-3.75,2.95
		c-1.566,1.1-2.95,2-4.15,2.7c-4.967,2.733-8.949,5.383-11.949,7.95c-3,2.534-4.733,4.75-5.2,6.65c-0.233,1-0.55,1.466-0.95,1.4
		c-0.4-0.067-1.233-0.733-2.5-2c-2.267-2.2-3.833-5.017-4.7-8.45c-0.899-3.4-0.933-6.683-0.1-9.85c0.566-2,2.633-4.8,6.2-8.4
		c3.6-3.633,6.8-6.15,9.6-7.55C256.35,66.283,257.467,65.8,258.6,65.4z M243.55,35.6c2.533,3.267,4.067,5.583,4.601,6.95
		c0.199,0.567,0.366,1.4,0.5,2.5c0.166,1.134,0.25,2.233,0.25,3.3c0.033,2.566-0.667,5.283-2.101,8.15
		c-1.399,2.833-3.917,6.684-7.55,11.55c-4.467,5.934-7.434,10.733-8.9,14.4c-1.467,3.6-1.916,7.283-1.35,11.05
		c0.467,3.066,1.917,6.55,4.35,10.45c2.434,3.933,4.717,6.45,6.851,7.55c0.899,0.467,1.433,0.9,1.6,1.3
		c0.134,0.4,0.117,1.35-0.05,2.85c-0.167,1.3-0.15,2.383,0.05,3.25c0.2,0.833,0.717,2,1.55,3.5l3.7,6.9
		c1.067,2.034,1.617,3.583,1.65,4.65c0,1.1-0.5,2.4-1.5,3.9c-1.634,2.367-2.367,5.667-2.2,9.9s1.133,7.9,2.9,11
		c1.1,1.9,1.583,2.9,1.449,3l-3.199,1.1c-1.233,0.4-2.167,0.884-2.801,1.45c-0.633,0.567-1.383,1.567-2.25,3
		c-1.433,2.366-2.416,4.967-2.949,7.8c-0.5,2.801-0.5,5.417,0,7.851c0.467,2.167,1.583,4.55,3.35,7.149
		c1.767,2.601,3.733,4.768,5.9,6.5c1.533,1.2,3.649,2.283,6.35,3.25s4.983,1.434,6.85,1.4c1.268,0,2.75-0.35,4.45-1.05
		c1.634-0.7,2.55-1.366,2.75-2c0.267-0.8-0.333-1.817-1.8-3.05c-1.467-1.234-3.15-2.15-5.05-2.75
		c-1.567-0.467-2.884-1.066-3.95-1.801c-1-0.699-2.333-1.883-4-3.55c-4.333-4.366-6.083-8.134-5.25-11.3
		c0.3-1.233,1.6-2.967,3.9-5.2c2.3-2.233,4.383-3.767,6.25-4.6c1.967-0.866,4.267-1.333,6.899-1.4c2.667-0.1,4.617,0.25,5.851,1.05
		c1.033,0.667,2.883,1.4,5.55,2.2c3.366,0.934,5.683,2.417,6.95,4.45c1.3,2,2.133,5.483,2.5,10.45
		c0.933,12.6-4.834,25.1-17.301,37.5c-2.267,2.267-4.25,4.05-5.949,5.35c-1.7,1.3-3.65,2.55-5.851,3.75
		c-6.633,3.5-12.566,7.25-17.8,11.25c-5.233,3.967-11.767,9.684-19.6,17.15c-7.167,6.866-12.834,11.816-17,14.85
		c-3.667,2.667-7.533,4.851-11.601,6.55c-0.333,0.167-0.683,0.316-1.05,0.45c-4.867,1.5-9.566,1.717-14.1,0.65
		c-6.367-1.534-12.384-5.667-18.051-12.4c-8.633-11.8-10.6-24.583-5.899-38.35c0.066-0.233,0.133-0.45,0.2-0.65
		c0.066-0.3,0.166-0.6,0.3-0.899c1.233-3.867,3.25-8.084,6.05-12.65c2.967-4.934,6.6-9.95,10.9-15.05
		c4.199-4.934,6.75-10.833,7.649-17.7c0.867-6.834,0.3-16.15-1.7-27.95c-0.732-4.2-1.217-7.767-1.449-10.7
		c-0.268-2.833-0.417-6.45-0.45-10.85c0-3.033,0.033-5.783,0.1-8.25c0.101-2.5,0.233-4,0.4-4.5c0.133-0.5,1.217-1.934,3.25-4.3
		c2.033-2.367,4.483-5.017,7.35-7.95c4.333-4.5,7.5-7.934,9.5-10.3c1.9-2.367,3.634-4.833,5.2-7.4c0.267-0.5,0.617-0.683,1.05-0.55
		c0.4,0.133,1.267,0.717,2.601,1.75c3.3,2.533,7.666,3.783,13.1,3.75c1.8,0,3.583-0.217,5.35-0.65
		c1.801-0.434,2.851-0.917,3.15-1.45c0.333-0.5-0.117-1.316-1.35-2.45c-1.268-1.134-3-2.284-5.2-3.45
		c-4.634-2.434-7.717-4.283-9.25-5.55c-1.5-1.267-2.867-3.134-4.101-5.6c-3.066-6.034-4.933-13.067-5.6-21.1
		c-0.3-3.1-0.35-7.117-0.15-12.05c0.233-4.9,0.601-8.784,1.101-11.65c0.467-2.767,1.417-5.1,2.85-7
		c1.434-1.866,3.283-3.283,5.55-4.25c1.467-0.6,3.601-0.917,6.4-0.95c2.8,0,5.267,0.3,7.4,0.9c2.166,0.6,4.85,1.767,8.05,3.5
		c3.233,1.733,5.7,3.35,7.399,4.85C238.867,29.917,241.017,32.333,243.55,35.6z M89.35,20.05c2.233,0.967,4.067,2.384,5.5,4.25
		c1.467,1.9,2.434,4.233,2.9,7c0.5,2.867,0.867,6.75,1.1,11.65C99.05,47.883,99,51.9,98.7,55c-0.667,8.033-2.533,15.066-5.601,21.1
		c-1.232,2.466-2.6,4.333-4.1,5.6c-1.533,1.267-4.617,3.116-9.25,5.55c-2.2,1.167-3.934,2.316-5.2,3.45
		c-1.233,1.133-1.683,1.95-1.35,2.45c0.3,0.534,1.35,1.017,3.149,1.45c1.768,0.433,3.551,0.65,5.351,0.65
		c5.433,0.033,9.8-1.217,13.1-3.75c1.333-1.033,2.2-1.617,2.601-1.75c0.399-0.133,0.75,0.05,1.05,0.55
		c1.533,2.567,3.267,5.034,5.2,7.4c2,2.366,5.166,5.8,9.5,10.3c2.866,2.934,5.316,5.583,7.35,7.95c2.033,2.366,3.117,3.8,3.25,4.3
		c0.167,0.5,0.3,2,0.4,4.5c0.066,2.467,0.1,5.217,0.1,8.25c-0.033,4.4-0.184,8.017-0.45,10.85c-0.233,2.933-0.717,6.5-1.45,10.7
		c-2.033,11.8-2.6,21.116-1.699,27.95c0.899,6.867,3.433,12.767,7.6,17.7c4.333,5.1,7.983,10.116,10.95,15.05
		c2.8,4.566,4.816,8.783,6.05,12.65c0.133,0.3,0.233,0.6,0.3,0.899c0.067,0.2,0.134,0.417,0.2,0.65
		c4.7,13.767,2.733,26.55-5.9,38.35c-5.666,6.733-11.683,10.866-18.05,12.4c-4.533,1.066-9.233,0.85-14.1-0.65
		c-0.367-0.134-0.717-0.283-1.05-0.45c-4.067-1.699-7.934-3.883-11.601-6.55c-4.167-3.033-9.833-7.983-17-14.85
		c-7.833-7.467-14.366-13.184-19.6-17.15c-5.233-4-11.167-7.75-17.8-11.25c-2.233-1.2-4.184-2.45-5.851-3.75
		c-1.7-1.3-3.683-3.083-5.95-5.35c-12.5-12.4-18.267-24.9-17.3-37.5c0.367-4.967,1.2-8.45,2.5-10.45
		c1.267-2.033,3.583-3.517,6.95-4.45c2.667-0.8,4.517-1.533,5.55-2.2c1.233-0.8,3.184-1.149,5.851-1.05
		c2.633,0.067,4.933,0.534,6.899,1.4c1.867,0.833,3.95,2.366,6.25,4.6s3.601,3.967,3.9,5.2c0.8,3.166-0.95,6.934-5.25,11.3
		c-1.667,1.667-3.017,2.851-4.05,3.55c-1.033,0.734-2.334,1.334-3.9,1.801c-1.9,0.6-3.583,1.516-5.05,2.75
		c-1.467,1.232-2.083,2.25-1.851,3.05c0.2,0.634,1.134,1.3,2.801,2c1.666,0.7,3.149,1.05,4.449,1.05
		c1.867,0.033,4.15-0.434,6.851-1.4s4.816-2.05,6.35-3.25c2.167-1.732,4.134-3.899,5.9-6.5c1.767-2.6,2.866-4.982,3.3-7.149
		c0.533-2.434,0.533-5.05,0-7.851c-0.5-2.833-1.467-5.434-2.9-7.8c-0.866-1.433-1.616-2.433-2.25-3
		c-0.633-0.566-1.566-1.05-2.8-1.45l-3.2-1.1c-0.133-0.1,0.351-1.1,1.45-3c1.767-3.1,2.733-6.767,2.9-11s-0.567-7.533-2.2-9.9
		c-1-1.5-1.5-2.8-1.5-3.9c0-1.067,0.55-2.617,1.65-4.65l3.699-6.9c0.834-1.5,1.351-2.667,1.551-3.5
		c0.199-0.867,0.217-1.95,0.05-3.25c-0.167-1.5-0.184-2.45-0.05-2.85c0.166-0.4,0.683-0.833,1.55-1.3
		c2.167-1.1,4.467-3.617,6.899-7.55c2.434-3.9,3.884-7.384,4.351-10.45c0.566-3.767,0.116-7.45-1.351-11.05
		c-1.467-3.667-4.433-8.467-8.899-14.4c-3.634-4.866-6.15-8.716-7.55-11.55c-1.434-2.867-2.134-5.583-2.101-8.15
		c0-1.067,0.067-2.167,0.2-3.3c0.133-1.1,0.316-1.933,0.55-2.5c0.533-1.366,2.067-3.683,4.601-6.95s4.683-5.684,6.449-7.25
		c1.7-1.5,4.15-3.117,7.351-4.85c3.233-1.733,5.917-2.9,8.05-3.5c2.167-0.6,4.65-0.9,7.45-0.9
		C85.75,19.133,87.883,19.45,89.35,20.05z M95.35,108.7c-4.899,2.533-9.35,5.683-13.35,9.45c-4.033,3.767-6.983,7.517-8.85,11.25
		c-0.834,1.767-1.417,3.184-1.75,4.25c-0.334,1.1-0.45,2.117-0.351,3.05l0.25,2.6l6.75-8.2c2.067-2.5,4.267-4.967,6.601-7.4
		c2.399-2.467,4.5-4.45,6.3-5.95c2.7-2.233,4.983-4.5,6.85-6.8c1.9-2.3,2.601-3.684,2.101-4.15
		C99.7,106.566,98.184,107.2,95.35,108.7z M197.3,106.8c-0.5,0.467,0.184,1.85,2.05,4.15c1.9,2.3,4.2,4.566,6.9,6.8
		c1.8,1.5,3.9,3.483,6.3,5.95c2.333,2.433,4.533,4.9,6.601,7.4l6.75,8.2l0.25-2.6c0.1-0.934-0.018-1.95-0.351-3.05
		c-0.333-1.066-0.933-2.483-1.8-4.25c-1.833-3.733-4.767-7.483-8.8-11.25c-4-3.767-8.45-6.917-13.351-9.45
		C199.017,107.2,197.5,106.566,197.3,106.8z M51.55,74.4c3.567,3.6,5.634,6.4,6.2,8.4c0.833,3.167,0.8,6.45-0.1,9.85
		c-0.867,3.434-2.434,6.25-4.7,8.45c-1.267,1.267-2.101,1.933-2.5,2c-0.4,0.066-0.717-0.4-0.95-1.4c-0.467-1.9-2.2-4.117-5.2-6.65
		c-3.033-2.566-7.017-5.216-11.95-7.95c-1.199-0.7-2.583-1.6-4.149-2.7c-1.533-1.1-2.783-2.083-3.75-2.95
		c-1.5-1.4-2.417-2.384-2.75-2.95s-0.4-1.25-0.2-2.05c0.5-2.067,2.55-4.517,6.15-7.35c3.6-2.833,6.5-4.267,8.699-4.3
		c0.4,0,1.15,0.2,2.25,0.6c1.101,0.4,2.217,0.883,3.351,1.45C44.75,68.25,47.95,70.767,51.55,74.4z M37.9,103.8
		c2.633,2.467,4.616,5.05,5.949,7.75c0.967,1.967,1.518,3.3,1.65,4c0.167,0.733,0.05,1.7-0.35,2.9c-0.2,0.733-0.518,1.517-0.95,2.35
		c-0.467,0.9-0.917,1.583-1.351,2.05c-0.666,0.767-1.25,1.216-1.75,1.35c-0.5,0.167-1.416,0.133-2.75-0.1
		c-0.833-0.1-2.25-0.55-4.25-1.35c-1.967-0.8-3.933-1.684-5.899-2.65c-3.7-1.9-6.367-3.017-8-3.35
		c-1.634-0.333-3.384-0.117-5.25,0.65c-1.134,0.467-1.867,0.65-2.2,0.55c-0.367-0.1-0.95-0.667-1.75-1.7
		c-1-1.3-1.783-3.033-2.35-5.2c-0.533-2.133-0.667-3.95-0.4-5.45c0.267-1.434,1.083-3.083,2.45-4.95c1.366-1.9,2.733-3.267,4.1-4.1
		c3.567-2.167,8.267-1.816,14.101,1.05C32.233,99.233,35.233,101.3,37.9,103.8z M17.7,125.05l3.7,0.75
		c7,1.5,13.066,5.717,18.199,12.65c1.101,1.533,1.768,2.7,2,3.5c0.233,0.767,0.334,2.333,0.301,4.7c-0.033,3.3-0.167,5.15-0.4,5.55
		c-0.467,0.733-1.967,1.5-4.5,2.3c-2.467,0.834-5.117,1.416-7.95,1.75c-4.133,0.5-7.35,1.3-9.649,2.4
		c-2.768,1.3-4.867,1.533-6.301,0.699c-1.433-0.866-2.933-3.25-4.5-7.149c-0.533-1.367-0.916-2.717-1.149-4.05
		c-0.2-1.4-0.3-3.133-0.3-5.2c-0.033-4,0.533-7.2,1.699-9.6c1.101-2.434,3.067-4.6,5.9-6.5C16.583,125.65,17.566,125.05,17.7,125.05
		z"/>
</g>
</svg>
