<?xml version="1.0" encoding="utf-8"?>
<!-- Generator: Adobe Illustrator 16.0.0, SVG Export Plug-In . SVG Version: 6.00 Build 0)  -->
<!DOCTYPE svg PUBLIC "-//W3C//DTD SVG 1.1//EN" "http://www.w3.org/Graphics/SVG/1.1/DTD/svg11.dtd">
<svg version="1.1" id="Layer_1" xmlns="http://www.w3.org/2000/svg" xmlns:xlink="http://www.w3.org/1999/xlink" x="0px" y="0px"
	 width="300px" height="300px" viewBox="0 0 300 300" enable-background="new 0 0 300 300" xml:space="preserve">
<g>
	<path fill-rule="evenodd" clip-rule="evenodd" fill="#F89939" d="M173.894,48.879l10.457,3.088l6.643-8.641l0.259,10.897
		l10.275,3.658l-10.275,3.607l-0.259,10.924l-6.643-8.667l-10.457,3.088l6.176-8.952L173.894,48.879z M192.705,87.618l-1.557,5.293
		l4.385,3.348l-5.525,0.155l-1.816,5.189l-1.844-5.189l-5.525-0.155l4.358-3.348l-1.557-5.293l4.567,3.113L192.705,87.618z
		 M168.496,101.812l2.414-1.635l-0.856,2.776l2.335,1.765l-2.932,0.077l-0.961,2.751l-0.985-2.751l-2.906-0.077l2.31-1.765
		l-0.83-2.776L168.496,101.812z M174.698,114.059l-0.986-1.453l1.661,0.493l1.063-1.376l0.052,1.739l1.635,0.597l-1.635,0.57
		l-0.052,1.713l-1.063-1.35l-1.661,0.468L174.698,114.059z M203.525,224.62c14.34-5.362,27.851-13.942,40.529-25.739
		c0.053,0,0.078-0.035,0.078-0.104c0.156-0.121,0.303-0.251,0.441-0.389c4.758-4.463,9.143-9.151,13.156-14.063
		c0.449,18.318-8.035,37.39-25.455,57.214c-22.246,25.308-50.666,36.291-85.263,32.953c-34.579-3.321-62.767-20.066-84.563-50.234
		c-20.481-28.335-25.385-60.215-14.712-95.642c4.1,19.097,12.048,36.811,23.846,53.14c3.027,4.187,6.175,8.104,9.445,11.755
		c1.159,1.297,2.335,2.561,3.529,3.788c0.052,0.052,0.112,0.104,0.181,0.155c0.087,0.121,0.191,0.233,0.312,0.338
		c4.394,4.479,8.995,8.511,13.804,12.091c16.053,11.953,34.493,18.934,55.32,20.939c4.203,0.398,8.363,0.589,12.48,0.571
		c0.796-0.018,1.592-0.034,2.387-0.052C181.012,230.994,192.507,228.754,203.525,224.62z M111.205,34.867l-2.283,7.654l6.331,4.878
		l-7.991,0.182l-2.647,7.525l-2.646-7.525l-7.992-0.182l6.332-4.878l-2.283-7.654l6.59,4.541L111.205,34.867z M161.05,69.48
		l0.077,2.803l2.646,0.96l-2.646,0.935l-0.077,2.802l-1.712-2.231l-2.699,0.805l1.609-2.31l-1.609-2.335l2.699,0.805L161.05,69.48z
		 M133.675,79.419l8.848,6.798l-11.131,0.286l-3.736,10.534l-3.737-10.534l-11.131-0.286l8.848-6.798l-3.166-10.69l9.186,6.331
		l9.185-6.331L133.675,79.419z M89.643,90.238l-7.135,0.183l-2.387,6.72l-2.387-6.72l-7.162-0.183l5.683-4.358l-2.024-6.824
		l5.89,4.048l5.864-4.048L83.96,85.88L89.643,90.238z M116.343,102.382l-4.022,1.168l2.387-3.425l-2.387-3.451l4.022,1.167
		l2.542-3.32l0.129,4.177l3.918,1.428l-3.918,1.375l-0.129,4.178L116.343,102.382z"/>
	<path fill-rule="evenodd" clip-rule="evenodd" fill="#010101" d="M244.133,198.776c0,0.069-0.025,0.104-0.078,0.104
		c-0.086,0-0.198-0.078-0.336-0.234c-0.104-0.138-0.217-0.225-0.338-0.259c-0.139-0.052-0.251-0.061-0.338-0.026
		c-0.104,0.034-0.26,0-0.467-0.104c-0.225-0.121-0.432-0.277-0.623-0.467c-0.432-0.45-0.743-0.692-0.934-0.727
		c-0.225-0.018-0.563-0.294-1.012-0.83c-0.484-0.536-0.684-0.865-0.598-0.986c0.053-0.035,0.035-0.156-0.051-0.363
		c-0.104-0.208-0.252-0.424-0.441-0.649c-0.26-0.328-0.406-0.501-0.441-0.519c-0.034-0.018,0.025,0.104,0.182,0.363
		c0.104,0.19,0.182,0.363,0.233,0.52c0.052,0.19,0.044,0.293-0.026,0.311c-0.086,0.069,0.252,0.571,1.013,1.505
		c0.744,0.883,1.21,1.323,1.401,1.323c0.121,0,0.381,0.338,0.778,1.013l0.571,1.038l-0.83-0.805
		c-0.226-0.225-0.425-0.407-0.598-0.545c-0.173-0.104-0.268-0.13-0.285-0.078c-0.018,0.121-0.493-0.372-1.428-1.479
		c-0.381-0.45-0.691-0.848-0.934-1.194c-0.26-0.362-0.355-0.579-0.285-0.648c0.052-0.052,0.052-0.138,0-0.26
		c-0.053-0.12-0.139-0.259-0.26-0.415c-0.174-0.189-0.269-0.285-0.285-0.285c-0.035,0-0.018,0.096,0.052,0.285
		c0.069,0.173,0.087,0.26,0.052,0.26c-0.035,0.035-0.156,0-0.363-0.104c-0.26-0.156-0.39-0.217-0.39-0.182
		c0,0.052,0.096,0.233,0.286,0.545c0.121,0.173,0.189,0.337,0.207,0.493c0.035,0.155,0.009,0.242-0.078,0.259
		c-0.086,0.035-0.182,0.026-0.285-0.025c-0.121-0.053-0.225-0.155-0.311-0.312c-0.069-0.104-0.182-0.216-0.338-0.337
		c-0.173-0.053-0.32-0.078-0.441-0.078h-0.805c-0.086-0.018-0.061,0.095,0.078,0.337c0.139,0.277,0.329,0.597,0.571,0.96
		c0.276,0.381,0.527,0.692,0.753,0.935c0.225,0.225,0.362,0.328,0.414,0.312c0.053-0.035,0.139,0,0.26,0.104
		c0.139,0.121,0.285,0.285,0.441,0.493c0.207,0.242,0.346,0.381,0.415,0.415c0.104,0.052,0.165,0,0.182-0.156
		c0.018-0.138,0-0.232-0.052-0.285c-0.035-0.069-0.104-0.077-0.207-0.025c-0.07,0.034-0.104,0.008-0.104-0.078
		c0.034-0.087,0.104-0.19,0.208-0.312c0.086-0.104,0.146-0.208,0.182-0.312l-0.52-0.597c-0.328-0.381-0.519-0.51-0.57-0.389
		c-0.053,0.138,0.068,0.44,0.363,0.907c0.207,0.346,0.311,0.528,0.311,0.545c-0.017,0.019-0.138-0.086-0.363-0.311
		c-0.121-0.139-0.225-0.242-0.311-0.312c-0.104-0.018-0.156-0.009-0.156,0.026c-0.018,0.173-0.207,0.034-0.57-0.416
		c-0.363-0.449-0.598-0.848-0.701-1.193c-0.121-0.312-0.068-0.441,0.156-0.39c0.242,0.019,0.51,0.19,0.805,0.52
		c0.104,0.121,0.207,0.216,0.311,0.285c0.104,0.052,0.182,0.061,0.234,0.026c0.104-0.069,0.311,0.138,0.622,0.622l0.39,0.648
		c0.034-0.086,0.034-0.155,0-0.207c0-0.189-0.096-0.432-0.285-0.727c-0.156-0.207-0.26-0.371-0.313-0.493
		c-0.018-0.173,0.01-0.25,0.078-0.233c0.156,0.018,0.735,0.735,1.738,2.153c0.398,0.589,0.641,0.961,0.727,1.116
		c0.069,0.155-0.051,0.052-0.363-0.312c-0.588-0.762-0.985-1.158-1.193-1.193c-0.19-0.018-0.061,0.346,0.389,1.09
		c0.174,0.276,0.313,0.545,0.416,0.805c0.104,0.241,0.155,0.389,0.155,0.44c-0.034,0.069-0.095,0.053-0.181-0.052
		c-0.104-0.087-0.217-0.242-0.338-0.467c-0.416-0.709-0.632-0.735-0.648-0.078c0.017,0.069-0.018,0.121-0.104,0.156
		c-0.053,0.052-0.131,0.069-0.234,0.052s-0.121,0.052-0.052,0.207c0.087,0.156,0.233,0.347,0.441,0.571
		c0.224,0.259,0.38,0.467,0.467,0.622c0.087,0.139,0.095,0.208,0.026,0.208c-0.174-0.017-0.424-0.225-0.753-0.623
		c-0.294-0.38-0.597-0.613-0.908-0.7c-0.276-0.121-0.39-0.026-0.337,0.285c0.068,0.346,0.061,0.485-0.026,0.415
		c-0.104-0.086-0.226-0.312-0.363-0.674c-0.087-0.277-0.13-0.441-0.13-0.493c0.018-0.069,0.096-0.035,0.234,0.104
		c0.207,0.173,0.259,0.112,0.154-0.182c-0.104-0.294-0.328-0.691-0.674-1.193c-0.311-0.502-0.588-0.675-0.83-0.52
		c-0.277,0.156-0.605-0.043-0.986-0.597c-0.155-0.225-0.328-0.406-0.52-0.545c-0.172-0.121-0.302-0.155-0.389-0.104
		c-0.242,0.087-0.536,0.121-0.883,0.104c-0.588-0.052-0.925-0.052-1.012,0c-0.068,0.018-0.034,0.147,0.104,0.39
		c0.104,0.173,0.147,0.312,0.131,0.415c-0.035,0.086-0.131,0.156-0.285,0.207c-0.434,0.191-0.719,0.226-0.857,0.104
		c-0.172-0.155-0.25-0.519-0.232-1.09c0-0.727-0.27-1.514-0.805-2.361c-0.537-0.83-1.203-1.522-1.998-2.076
		c-0.554-0.363-1.229-0.64-2.024-0.83c-0.83-0.189-2.707-0.519-5.63-0.986c-3.685-0.588-6.08-1.107-7.188-1.557
		c-1.107-0.433-2.491-1.418-4.151-2.958c-0.882-0.813-1.41-1.236-1.583-1.271c-0.156,0-0.156,0.345,0,1.037
		c0.121,0.554,0.216,2.102,0.285,4.645l0.078,3.814l2.361,5.656c1.418,3.391,2.291,5.648,2.621,6.772
		c0.328,1.124,0.414,2.223,0.259,3.295c-0.173,1.264-0.571,2.224-1.194,2.881c-0.622,0.674-1.807,1.409-3.555,2.205l-2.905,1.35
		l-1.661,8.796c-11.019,4.134-22.514,6.374-34.484,6.721c0.191-1.973,0.303-3.235,0.338-3.788l0.156-1.816l-2.647-0.83l1.946-11.185
		c0.536-3.044,1.072-5.958,1.609-8.743c0.553-2.769,0.925-4.585,1.115-5.449c1.263-4.792,2.621-8.692,4.074-11.702
		c1.47-3.01,3.33-5.683,5.578-8.018c0.709-0.744,1.159-1.28,1.35-1.609c0.138-0.294,0.225-0.778,0.259-1.453
		c0.052-1.332,0.425-2.517,1.116-3.555c0.727-1.038,1.608-1.678,2.646-1.92c0.381-0.087,0.631-0.207,0.752-0.363
		c0.174-0.138,0.277-0.372,0.312-0.7l0.156-0.856l-1.973-0.338c-1.366-0.207-2.421-0.562-3.165-1.063
		c-0.727-0.536-1.176-1.237-1.35-2.102c-0.173-0.865-0.242-1.601-0.207-2.206c0.018-0.328-0.018-0.579-0.104-0.752
		c-0.088-0.156-0.269-0.294-0.545-0.415c-0.347-0.156-0.528-0.338-0.545-0.545c-0.053-0.242,0.051-0.58,0.311-1.013
		c0.104-0.155,0.113-0.311,0.025-0.467c-0.086-0.138-0.285-0.294-0.596-0.467c-0.381-0.19-0.598-0.354-0.648-0.493
		c-0.087-0.121-0.053-0.32,0.104-0.597c0.328-0.605,0.502-1.168,0.52-1.687c0-0.519-0.156-0.882-0.468-1.09
		c-0.917-0.657-1.358-1.254-1.323-1.79c0.068-0.554,0.613-1.159,1.635-1.816c0.83-0.554,1.357-1.116,1.582-1.687
		c0.225-0.554,0.27-1.497,0.131-2.828c-0.053-0.692-0.113-1.081-0.182-1.168c-0.07-0.052-0.277,0.034-0.623,0.26
		c-0.692,0.432-1.099,0.64-1.22,0.622c-0.104-0.052,0.104-0.319,0.622-0.804c0.381-0.381,0.598-0.632,0.649-0.753
		c0.104-0.121,0.052-0.164-0.155-0.13l-1.038,0.233c-0.226,0.035-0.338,0.026-0.338-0.025c0.034-0.069,0.198-0.26,0.493-0.571
		c0.328-0.38,0.493-0.588,0.493-0.622c0-0.053-0.173-0.018-0.519,0.104c-0.45,0.139-0.848,0.19-1.194,0.155
		c-0.19-0.034-0.251-0.104-0.181-0.207c0.033-0.087,0.232-0.26,0.596-0.52c0.242-0.189,0.477-0.415,0.701-0.675
		c0.207-0.241,0.354-0.432,0.441-0.57c0.848-2.162,1.393-4.03,1.635-5.604c0.259-1.54,0.925-3.114,1.997-4.723
		c1.091-1.608,2.396-2.932,3.919-3.97c2.214-1.54,5.103-2.621,8.666-3.243c3.563-0.554,6.789-0.477,9.678,0.233
		c3.373,0.813,6.262,1.938,8.667,3.373c2.387,1.436,4.653,3.398,6.798,5.89c0.536,0.657,1.047,1.229,1.531,1.713
		c0.449,0.467,0.727,0.709,0.83,0.727s0.26-0.009,0.467-0.078c0.191-0.069,0.373-0.155,0.545-0.26
		c0.156-0.104,0.295-0.173,0.416-0.207c0.104-0.018,0.146,0.025,0.129,0.13c-0.018,0.086-0.104,0.19-0.26,0.312
		c-0.12,0.121-0.285,0.233-0.492,0.337l-0.727,0.363l0.727,0.104c0.207,0.034,0.476,0.026,0.805-0.025
		c0.346-0.069,0.656-0.165,0.934-0.286c0.709-0.294,1.029-0.337,0.96-0.13c-0.069,0.19-0.483,0.537-1.245,1.038
		c-0.484,0.295-0.762,0.493-0.83,0.597c-0.087,0.087,0,0.121,0.259,0.104c0.276-0.018,0.441-0.009,0.493,0.025
		c0.035,0.052-0.018,0.173-0.156,0.363c-0.172,0.226-0.181,0.441-0.025,0.649c0.139,0.225,0.52,0.588,1.143,1.09
		c0.396,0.362,0.777,0.734,1.141,1.115c0.381,0.397,0.614,0.7,0.701,0.908c0.155,0.397,0.233,0.605,0.233,0.623
		c-0.017,0.017-0.183-0.096-0.493-0.338c-0.727-0.605-1.203-0.986-1.428-1.142c-0.242-0.173-0.406-0.233-0.492-0.182
		c-0.035,0.034-0.009,0.147,0.078,0.337c0.086,0.19,0.207,0.407,0.362,0.649c0.276,0.415,0.407,0.657,0.39,0.727
		c0.018,0.052-0.104-0.035-0.363-0.26c-0.813-0.57-1.072-0.597-0.778-0.078c0.155,0.277,0.259,0.657,0.312,1.142
		c0.034,0.415,0.034,0.623,0,0.623c-0.018,0-0.121-0.173-0.312-0.519c-0.19-0.294-0.304-0.433-0.337-0.415
		c-0.035,0-0.043,0.225-0.026,0.674c0.087,1.938,0.052,3.529-0.104,4.774c-0.172,1.264-0.57,3.184-1.193,5.761
		c-0.656,2.733-1.202,4.731-1.635,5.994c-0.449,1.228-0.51,0.951-0.182-0.831c0.121-0.501,0.19-0.951,0.208-1.349
		c0.017-0.398,0.017-0.641,0-0.727c-0.069-0.069-0.13-0.035-0.182,0.104c-0.069,0.104-0.121,0.276-0.155,0.519
		c-0.087,0.554-0.39,1.358-0.908,2.414c-0.295,0.622-0.493,0.977-0.598,1.063c-0.104,0.104-0.155,0-0.155-0.312
		c0-0.294-0.052-0.397-0.155-0.312c-0.087,0.104-0.295,0.468-0.623,1.09c-0.502,1.003-0.735,1.289-0.7,0.856
		c0.052-0.433-0.018-0.657-0.208-0.675c-0.156,0.018-0.415,0.251-0.778,0.7c-0.554,0.657-1.505,1.445-2.854,2.361
		c-1.349,0.952-2.732,1.791-4.151,2.518c-1.384,0.657-2.196,1.089-2.438,1.297c-0.26,0.242-0.441,0.657-0.545,1.245
		c-0.053,0.605-0.113,0.935-0.182,0.986c-0.07,0.069-0.217-0.034-0.441-0.311c-0.104-0.156-0.199-0.32-0.285-0.493
		c-0.069-0.208-0.104-0.372-0.104-0.493c0.018-0.104,0.009-0.182-0.026-0.234c-0.051-0.069-0.121-0.077-0.207-0.025
		c-0.26,0.086-0.424,0.519-0.492,1.297c-0.121,0.762-0.07,1.159,0.155,1.194c0.242,0.034,1.366,0.752,3.373,2.153
		c2.387,1.661,4.203,2.664,5.448,3.01c1.229,0.312,3.521,0.406,6.877,0.285c2.854-0.086,5.137,0.13,6.85,0.649
		c1.695,0.536,3.572,1.608,5.631,3.217c2.525,2.042,4.307,4.411,5.345,7.11c0.312,0.795,0.606,1.409,0.882,1.842
		c0.277,0.433,0.641,0.813,1.09,1.142c0.313,0.242,0.648,0.545,1.012,0.908c0.364,0.381,0.633,0.719,0.805,1.013
		c0.313,0.466,0.467,0.709,0.467,0.726l-0.414-0.44c-0.52-0.605-0.813-0.883-0.883-0.831c-0.086,0.122,0.096,0.502,0.545,1.142
		c0.484,0.692,0.762,1.22,0.83,1.583c0.07,0.381-0.104,0.416-0.518,0.104c-0.33-0.259-0.512-0.285-0.546-0.077
		c-0.018,0.086,0.009,0.19,0.078,0.312c0.069,0.104,0.164,0.181,0.285,0.233c0.104,0.069,0.199,0.164,0.285,0.285
		c0.052,0.104,0.069,0.19,0.052,0.26V198.776z M239.463,193.38c-0.053,0.086-0.069,0.198-0.053,0.337
		c0.035,0.121,0.113,0.242,0.234,0.363c0.104,0.121,0.19,0.19,0.26,0.208c0.086,0.052,0.138,0.043,0.155-0.026
		c0-0.069,0.077-0.034,0.233,0.104c0.139,0.139,0.303,0.338,0.493,0.598c0.19,0.259,0.38,0.449,0.571,0.57
		c0.172,0.173,0.294,0.225,0.363,0.155c0.068-0.034,0.189,0.018,0.363,0.156c0.155,0.121,0.32,0.294,0.492,0.519
		c0.19,0.226,0.406,0.424,0.648,0.597c0.242,0.208,0.45,0.338,0.623,0.39c0.26,0.069,0.373,0.043,0.338-0.078
		s-0.26-0.433-0.675-0.934c-0.276-0.329-0.554-0.597-0.83-0.805c-0.26-0.207-0.433-0.303-0.519-0.285
		c-0.088,0.034-0.104,0.025-0.053-0.026c0.053-0.035,0.155-0.104,0.312-0.207c0.312-0.173,0.467-0.294,0.467-0.364
		c0.017-0.051-0.104-0.173-0.363-0.362c-0.19-0.156-0.38-0.242-0.571-0.26c-0.172,0-0.389,0.061-0.648,0.182
		c-0.311,0.139-0.519,0.198-0.623,0.182c-0.104-0.052-0.216-0.216-0.336-0.493C240.068,193.206,239.773,193.033,239.463,193.38z
		 M165.201,146.545c-0.346,0.086-0.545,0.372-0.597,0.855c-0.017,0.484,0.112,0.961,0.39,1.428c0.882,1.297,1.063,2.413,0.545,3.347
		c-0.484,0.917-1.531,1.401-3.141,1.453c-0.691,0.018-1.288-0.112-1.789-0.389c-0.502-0.294-1.523-1.064-3.063-2.31
		c-1.574-1.297-3.227-2.084-4.956-2.361c-0.605-0.052-0.935-0.069-0.985-0.052c-0.053,0,0.043,0.104,0.285,0.312
		c0.346,0.259,1.115,0.579,2.309,0.96c0.484,0.173,0.9,0.346,1.246,0.519c0.363,0.174,0.563,0.303,0.597,0.39
		c0.052,0.276-0.251,0.397-0.908,0.363c-0.675-0.018-1.782-0.199-3.321-0.545c-2.127-0.502-3.295-0.718-3.503-0.648
		c-0.208,0.034-0.752-0.208-1.634-0.727c-0.882-0.484-1.341-0.822-1.375-1.012c-0.017-0.087-0.104-0.121-0.26-0.104
		c-0.138,0.018-0.302,0.078-0.493,0.182c-0.19,0.087-0.364,0.147-0.519,0.182c-0.156,0.035-0.242,0.018-0.26-0.052
		c-0.276-0.675-0.423-1.159-0.441-1.453c0.018-0.312,0.165-0.536,0.441-0.675c0.364-0.19,0.675-0.268,0.934-0.233
		c0.26,0.069,0.424,0.251,0.493,0.545c0.035,0.104,0.112,0.182,0.234,0.233c0.155,0.052,0.32,0.052,0.493,0
		c0.243-0.052,0.26-0.189,0.052-0.415c-0.224-0.207-0.821-0.614-1.791-1.22c-1.28-0.83-2.819-2.119-4.618-3.866
		c-1.816-1.747-3.226-3.33-4.229-4.748c-0.848-1.177-1.401-2.223-1.661-3.14c-0.225-0.899-0.233-1.842-0.026-2.828
		c0.208-0.951,0.544-1.531,1.012-1.738c0.45-0.226,0.995-0.069,1.635,0.467c0.242,0.208,0.536,0.406,0.882,0.597
		c0.38,0.19,0.709,0.312,0.986,0.363c0.294,0.069,0.718,0.225,1.271,0.467c0.571,0.26,1.098,0.536,1.583,0.831l2.491,1.479
		c0.225,0.121,0.476,0.338,0.752,0.648c0.294,0.26,0.528,0.554,0.701,0.883l0.701,1.115l-0.026-1.168
		c-0.035-0.743,0.009-1.521,0.13-2.335l0.363-2.102c0.104-0.623,0.631-2.084,1.583-4.385c0.969-2.283,1.66-3.745,2.076-4.386
		c0.449-0.657,0.804-1.063,1.063-1.219c0.259-0.174,0.692-0.269,1.298-0.286c0.605-0.052,1.072-0.009,1.4,0.13
		c0.398,0.173,0.856,0.632,1.375,1.375c0.52,0.727,0.848,1.384,0.986,1.973c0.156,0.64,0.459,1.236,0.908,1.79
		s1.143,1.202,2.076,1.946c0.951,0.761,1.592,1.496,1.92,2.205c0.311,0.675,0.415,1.549,0.311,2.621
		c-0.104,1.229-0.197,1.894-0.285,1.998c-0.017,0.052,0.104,0.19,0.363,0.415c0.277,0.225,0.614,0.467,1.012,0.727
		c0.936,0.622,1.506,1.254,1.713,1.895c0.207,0.64,0.069,1.418-0.415,2.335c-0.329,0.605-0.493,0.978-0.493,1.115
		c0,0.156,0.164,0.294,0.493,0.415c0.468,0.174,0.744,0.251,0.831,0.234c0.225-0.035,0.605,0.268,1.141,0.908
		c0.555,0.64,0.883,1.158,0.986,1.557c0.104,0.467,0,1.099-0.311,1.894C165.85,146.043,165.53,146.458,165.201,146.545z
		 M204.979,172.804c-0.034,0.225-0.034,0.406,0,0.544c0.018,0.139,0.061,0.217,0.13,0.234c0.069,0,0.13-0.062,0.182-0.182
		c0.034-0.139,0.044-0.32,0.026-0.545c0-0.502-0.035-0.753-0.104-0.753C205.125,172.086,205.048,172.318,204.979,172.804z
		 M203.318,172.076c-0.242,0.14-0.39,0.382-0.441,0.728c-0.053,0.276-0.035,0.475,0.052,0.597c0.087,0.104,0.276,0.182,0.571,0.233
		c0.328,0.069,0.527,0.061,0.596-0.026c0.088-0.069,0.113-0.251,0.078-0.545c-0.086-0.449-0.172-0.752-0.259-0.908
		C203.76,171.964,203.561,171.938,203.318,172.076z M231.809,199.633c0.018,0.087,0,0.182-0.053,0.285
		c-0.051,0.069-0.051,0.191,0,0.363c0.035,0.139,0.104,0.269,0.208,0.39c0.121,0.121,0.208,0.26,0.26,0.415
		c0.069,0.155,0.095,0.276,0.077,0.363c-0.051,0.155-0.182,0.069-0.389-0.26c-0.225-0.363-0.424-0.77-0.597-1.22
		c-0.104-0.362-0.034-0.519,0.208-0.467C231.644,199.521,231.738,199.563,231.809,199.633z M230.875,197.868
		c0.033,0.035,0.086,0.112,0.154,0.233c0.139,0.364,0.191,0.632,0.156,0.805c0,0.069-0.035,0.087-0.104,0.053
		c-0.035-0.018-0.087-0.104-0.156-0.26c-0.139-0.312-0.19-0.571-0.155-0.778C230.787,197.834,230.822,197.816,230.875,197.868z
		 M235.752,198.569c-0.086-0.087-0.146-0.19-0.182-0.312c-0.035-0.277,0.061-0.32,0.285-0.13c0.226,0.19,0.277,0.173,0.156-0.052
		c-0.087-0.242-0.173-0.372-0.26-0.39c-0.086-0.018-0.189,0.052-0.311,0.208c-0.07,0.086-0.104,0.216-0.104,0.389
		c0.018,0.19,0.078,0.381,0.182,0.571c0.121,0.276,0.226,0.433,0.312,0.467c0.068,0.018,0.156-0.061,0.26-0.233
		c0.068-0.121,0.095-0.216,0.078-0.285c-0.035-0.087-0.096-0.121-0.182-0.104C235.898,198.699,235.822,198.655,235.752,198.569z
		 M237.153,197.868c-0.104-0.017-0.026,0.183,0.233,0.598c0.104,0.173,0.174,0.346,0.207,0.519c0.035,0.155,0.01,0.26-0.077,0.312
		c-0.069,0.034-0.077,0.06-0.026,0.077c0.018,0.018,0.087,0,0.208-0.052c0.173-0.034,0.259-0.12,0.259-0.26
		c0-0.086-0.086-0.259-0.259-0.519C237.422,198.11,237.24,197.886,237.153,197.868z M233.08,198.413l0.752,1.22l-0.467-1.038
		c-0.329-0.709-0.563-1.124-0.701-1.245c-0.189-0.156-0.354-0.13-0.492,0.078c-0.139,0.241-0.13,0.467,0.025,0.674
		c0.139,0.174,0.217,0.234,0.234,0.182c0.017-0.034,0.008-0.164-0.027-0.389C232.336,197.462,232.561,197.635,233.08,198.413z
		 M233.988,199.996c-0.381-0.276-0.719-0.657-1.012-1.142c-0.605-0.934-0.615-0.467-0.026,1.401c0.346,1.038,0.476,1.548,0.39,1.53
		c-0.104,0-0.373-0.64-0.805-1.92c-0.174-0.57-0.346-1.021-0.52-1.349c-0.189-0.312-0.328-0.459-0.415-0.441
		c-0.104,0.034-0.138,0.009-0.104-0.078c0.018-0.104,0.104-0.241,0.26-0.415c0.139-0.155,0.251-0.338,0.338-0.545
		c0.068-0.225,0.104-0.407,0.104-0.545c0-0.104,0.096-0.043,0.285,0.182c0.209,0.242,0.441,0.597,0.701,1.063
		c0.276,0.433,0.535,0.813,0.778,1.143c0.242,0.294,0.39,0.44,0.441,0.44c0.087,0.018,0.233,0.13,0.44,0.338
		c0.208,0.225,0.416,0.501,0.623,0.83c0.225,0.312,0.381,0.579,0.467,0.805c0.104,0.207,0.113,0.303,0.026,0.285
		s-0.226-0.13-0.415-0.338c-0.19-0.225-0.372-0.483-0.545-0.778c-0.19-0.276-0.328-0.467-0.416-0.57
		c-0.121-0.121-0.164-0.104-0.129,0.052c0.035,0.225,0.025,0.337-0.025,0.337C234.377,200.316,234.23,200.222,233.988,199.996z
		 M234.325,195.533c-0.018,0.069,0.069,0.233,0.259,0.493c0.226,0.328,0.39,0.536,0.494,0.623c0.138,0.069,0.104-0.069-0.104-0.415
		c-0.069-0.104-0.121-0.226-0.155-0.363c0-0.104,0.018-0.173,0.051-0.208c0.053-0.018,0.053-0.052,0-0.104
		c-0.068-0.017-0.164-0.043-0.285-0.077C234.412,195.446,234.325,195.464,234.325,195.533z M233.287,196.52
		c0.121-0.018,0.208-0.053,0.26-0.104c0.19-0.207,0.51-0.017,0.96,0.571c0.433,0.588,0.778,0.795,1.038,0.623
		c0.121-0.104,0.232-0.112,0.337-0.026c0.121,0.069,0.242,0.233,0.363,0.493c0.104,0.207,0.173,0.397,0.208,0.57
		c0.034,0.19,0.025,0.313-0.026,0.363c-0.052,0.052-0.077,0.174-0.077,0.363c0.017,0.173,0.051,0.347,0.104,0.52
		c0.156,0.415,0.13,0.605-0.078,0.57c-0.086-0.017-0.146-0.077-0.182-0.182c-0.052-0.086-0.069-0.189-0.052-0.312
		c0.017-0.138,0.009-0.242-0.026-0.311c-0.034-0.035-0.096-0.044-0.182-0.026c-0.068,0.018-0.182-0.061-0.337-0.233
		s-0.294-0.415-0.415-0.727c-0.242-0.554-0.536-1.081-0.883-1.583c-0.381-0.536-0.58-0.709-0.597-0.519
		c-0.034,0.155,0.147,0.588,0.546,1.297c0.155,0.329,0.268,0.605,0.336,0.831c0.053,0.207,0.043,0.337-0.025,0.389
		c-0.086,0.035-0.207-0.043-0.363-0.233c-0.173-0.19-0.337-0.433-0.493-0.727c-0.813-1.436-1.028-1.998-0.648-1.687
		C233.105,196.493,233.184,196.52,233.287,196.52z M236.973,196.83c0.172,0.156,0.138-0.043-0.104-0.596
		c-0.242-0.589-0.406-0.883-0.493-0.883c-0.104-0.018-0.068,0.19,0.104,0.623C236.669,196.407,236.833,196.692,236.973,196.83z
		 M242.861,197.791c-0.346-0.571-0.545-0.727-0.597-0.468c0,0.069,0.147,0.26,0.441,0.571c0.19,0.225,0.303,0.328,0.337,0.312
		C243.061,198.188,243,198.051,242.861,197.791z M242.316,195.403c0.104,0.018,0.347,0.295,0.727,0.831
		c0.363,0.588,0.502,0.873,0.416,0.855c-0.104-0.018-0.338-0.311-0.701-0.882C242.377,195.654,242.23,195.386,242.316,195.403z
		 M241.357,194.91c0.104,0.018,0.198,0.018,0.285,0c0.139-0.052,0.232-0.112,0.285-0.182c0.139-0.155,0.173-0.242,0.104-0.259
		c-0.052,0-0.225,0.061-0.519,0.181c-0.155,0.07-0.251,0.13-0.286,0.183C241.21,194.885,241.254,194.91,241.357,194.91z
		 M241.176,195.144c-0.139-0.155-0.199-0.276-0.182-0.363c0.018-0.086,0.146-0.198,0.389-0.337c0.381-0.189,0.64-0.216,0.779-0.078
		c0.138,0.139,0.068,0.355-0.209,0.649c-0.154,0.207-0.293,0.319-0.414,0.337C241.435,195.369,241.313,195.3,241.176,195.144z
		 M85.05,197.791c-0.121-0.104-0.225-0.217-0.312-0.338c0-0.225-0.06-0.276-0.181-0.155c-1.193-1.228-2.37-2.491-3.529-3.788
		c0.035,0,0.078-0.01,0.13-0.026c0.224-0.069,0.337-0.13,0.337-0.182c0.017-0.069-0.078-0.173-0.285-0.312
		c-0.191-0.155-0.277-0.259-0.26-0.312c0.017-0.069,0.156-0.138,0.415-0.207c0.277-0.052,0.424-0.122,0.441-0.208
		c0-0.068-0.086-0.216-0.259-0.44c-0.277-0.294-0.372-0.459-0.286-0.493c0.121-0.035,0.519,0.052,1.194,0.259
		c0.795,0.225,1.583,0.294,2.361,0.208c0.778-0.069,1.254-0.294,1.427-0.675c0.052-0.121,0.147-0.251,0.285-0.39
		c0.121-0.138,0.234-0.216,0.337-0.233c0.086-0.017,0.216-0.138,0.39-0.362c0.19-0.226,0.38-0.493,0.57-0.805
		c0.363-0.675,0.908-1.358,1.635-2.05c0.761-0.71,1.357-1.116,1.79-1.22c0.191-0.052,0.407-0.164,0.649-0.337
		c0.242-0.19,0.45-0.39,0.623-0.598c0.26-0.345,0.39-0.604,0.39-0.778c0.017-0.155-0.087-0.415-0.312-0.778
		c-0.155-0.225-0.294-0.527-0.415-0.908c-0.104-0.328-0.165-0.648-0.182-0.96c-0.018-0.588,0.199-1.366,0.648-2.335
		c0.467-1.003,0.943-1.669,1.427-1.998c0.155-0.121,0.285-0.269,0.389-0.441c0.069-0.189,0.095-0.354,0.078-0.493
		c-0.069-0.294-0.069-0.813,0-1.557c0.034-0.519-0.052-0.891-0.26-1.115c-0.208-0.226-0.934-0.718-2.18-1.479
		c-2.145-1.332-3.9-2.992-5.267-4.981c-1.401-1.989-2.456-4.385-3.166-7.188c-0.623-2.457-0.839-4.68-0.649-6.669
		c0.208-2.023,0.848-4.091,1.92-6.201c0.501-0.969,1.202-2.007,2.102-3.113c0.882-1.107,1.755-2.024,2.621-2.751
		c1.003-0.865,2.197-1.608,3.581-2.231c1.401-0.622,3.131-1.185,5.189-1.687c1.487-0.381,2.586-0.692,3.295-0.934
		c0.692-0.226,1.176-0.459,1.453-0.701c0.467-0.397,0.744-0.614,0.831-0.648c0.121,0,0.095,0.173-0.078,0.519
		c-0.138,0.26-0.19,0.407-0.155,0.441c0.051,0.018,0.225-0.069,0.519-0.26c0.415-0.242,0.969-0.501,1.661-0.778
		c0.364-0.155,0.588-0.233,0.675-0.233c0.069,0,0.043,0.078-0.078,0.233c-0.121,0.156-0.104,0.242,0.052,0.26
		c0.138,0,0.502-0.069,1.089-0.208c0.398-0.104,0.77-0.173,1.116-0.207c0.363,0,0.571,0.025,0.623,0.078
		c0.086,0.068,0.121,0.146,0.104,0.233c-0.034,0.052-0.095,0.095-0.181,0.129c-0.121,0.053-0.078,0.087,0.129,0.104
		c0.208,0.034,0.511,0.052,0.908,0.052c0.865,0,1.505,0.104,1.92,0.312c0.432,0.173,1.021,0.605,1.764,1.297
		c0.64,0.554,1.029,0.917,1.167,1.09c0.121,0.19,0.052,0.242-0.207,0.156c-0.502-0.173-0.355,0.13,0.441,0.908l0.674,0.622
		l-0.778-0.363c-0.208-0.104-0.407-0.173-0.597-0.207c-0.208-0.035-0.346-0.035-0.415,0c-0.086,0.052-0.017,0.155,0.208,0.312
		c0.225,0.104,0.536,0.233,0.934,0.389l1.427,0.519l-0.986,0.026c-0.484,0.018-0.752,0.052-0.804,0.104
		c-0.052,0.053,0.043,0.19,0.286,0.416c0.155,0.155,0.354,0.294,0.596,0.415c0.26,0.121,0.493,0.198,0.701,0.233
		c0.553,0.104,0.77,0.225,0.648,0.363c-0.104,0.138-0.458,0.173-1.063,0.104c-0.623-0.052-0.917-0.026-0.882,0.078
		c0.052,0.104,0.415,0.268,1.089,0.493l1.064,0.337l-0.908,0.078c-0.571,0.052-1.072,0.052-1.505,0
		c-0.415,0-0.216,0.216,0.597,0.648l1.246,0.648l-1.038,0.026c-0.484,0.034-0.735,0.078-0.752,0.129
		c-0.052,0.053,0.078,0.226,0.389,0.52c0.363,0.312,0.899,0.969,1.609,1.972c0.657,0.969,1.098,1.522,1.323,1.661
		c0.122,0.034,0.398,0.052,0.831,0.052c0.415-0.018,0.865-0.061,1.349-0.13c1.09-0.173,1.808-0.146,2.154,0.078
		c0.329,0.207,0.484,0.787,0.467,1.738c-0.017,0.951,0.165,1.713,0.545,2.283c0.363,0.571,0.882,0.908,1.557,1.012
		c0.761,0.121,1.15,0.234,1.167,0.338c0.052,0.19-0.017,0.588-0.208,1.193c-0.224,0.605-0.441,1.063-0.648,1.375l-0.441,0.701
		l0.934,0.493c0.484,0.225,0.744,0.389,0.778,0.492c0.035,0.104-0.061,0.294-0.285,0.571c-0.623,0.778-0.969,1.323-1.038,1.635
		c-0.104,0.294-0.052,0.864,0.156,1.713c0.259,1.021,0.329,1.824,0.208,2.412c-0.104,0.571-0.415,1.013-0.934,1.323
		c-0.588,0.347-1.289,0.822-2.102,1.428c-0.501,0.363-1.063,0.675-1.687,0.935c-0.64,0.242-1.583,0.536-2.828,0.882
		c-1.488,0.381-2.422,0.657-2.803,0.83c-0.363,0.173-0.64,0.449-0.83,0.83c-0.277,0.571-0.363,0.917-0.259,1.038
		c0.051,0.121,0.38,0.233,0.985,0.338c0.26,0.034,0.657,0.155,1.193,0.363c0.485,0.173,0.935,0.38,1.35,0.622l1.505,0.778l1.22-0.83
		c1.868-1.28,3.814-3.191,5.838-5.734c2.006-2.525,4.826-6.616,8.458-12.273l0.804-1.245l1.557,1.012l0.597-0.934
		c0.173-0.26,0.433-0.58,0.779-0.96c0.311-0.381,0.631-0.692,0.959-0.935c0.623-0.554,1.055-1.029,1.297-1.427
		c0.225-0.398,0.294-0.787,0.208-1.168c-0.104-0.346-0.043-0.527,0.181-0.545c0.191-0.018,0.467,0.121,0.831,0.415
		c0.449,0.381,0.709,0.813,0.778,1.298c0.069,0.467-0.052,0.96-0.363,1.479c-0.364,0.605-0.536,0.935-0.519,0.986
		c0,0.034,0.251,0,0.752-0.104c0.484-0.087,1.046-0.208,1.687-0.363c0.692-0.139,1.427-0.269,2.206-0.39
		c0.778-0.086,1.384-0.13,1.816-0.13c0.553,0,0.968-0.025,1.245-0.077c0.277-0.069,0.467-0.182,0.571-0.338
		c0.086-0.155,0.138-0.216,0.155-0.182c-0.017,0.018-0.061,0.147-0.129,0.39c-0.121,0.225-0.147,0.38-0.078,0.467
		c0.035,0.104,0.19,0.19,0.467,0.26c0.346,0.086,0.821,0.389,1.427,0.908c0.588,0.519,0.926,0.916,1.013,1.193
		c0.068,0.276-1.696,1.868-5.294,4.774c-0.242,0.225-0.735,0.501-1.479,0.83c-0.675,0.294-1.081,0.493-1.219,0.597
		c-0.052,0.034,0,0.208,0.155,0.519c0.156,0.312,0.363,0.658,0.623,1.038c0.674,1.072,1.012,1.816,1.012,2.231
		c0,0.433-0.346,1.063-1.038,1.895c-3.079,3.736-6.02,6.858-8.822,9.367c-2.82,2.509-5.631,4.532-8.433,6.071
		c-0.64,0.347-1.194,0.666-1.661,0.96c-0.45,0.295-0.666,0.468-0.648,0.52c0.034,0.104,0.484,0.242,1.349,0.415
		c1.055,0.19,2.387,0.043,3.996-0.441c1.609-0.467,3.166-1.159,4.67-2.076l2.387-1.505l-0.208-1.245
		c-0.087-0.536-0.113-0.882-0.078-1.038c0.069-0.189,0.259-0.312,0.571-0.363c0.449-0.121,0.882,0.009,1.297,0.39
		c0.397,0.397,0.717,0.977,0.959,1.738c0.243,0.778,0.415,1.15,0.519,1.115c0.069,0,0.865-0.354,2.388-1.063
		c1.262-0.571,2.214-0.908,2.854-1.012c0.623-0.086,0.986,0.078,1.09,0.493c0.069,0.294-0.069,0.709-0.415,1.245
		c-0.312,0.519-0.692,0.917-1.142,1.194c-0.328,0.189-0.476,0.38-0.441,0.57c0.035,0.173,0.225,0.216,0.571,0.13
		c0.38-0.087,1.263-0.087,2.646,0c1.592,0.068,2.422,0.354,2.491,0.856c0.104,0.484-0.571,1.158-2.024,2.023l-1.608,0.96
		l1.504,0.312c0.415,0.086,0.813,0.19,1.193,0.312c0.381,0.139,0.641,0.242,0.778,0.312c0.347,0.276,0.347,0.579,0,0.908
		c-0.362,0.38-0.942,0.666-1.738,0.855l-1.323,0.338l1.245,0.44c1.504,0.571,2.042,1.134,1.609,1.687
		c-0.468,0.554-1.557,0.684-3.269,0.39c-1.246-0.173-1.973-0.121-2.18,0.156c-0.225,0.294-0.251,1.254-0.078,2.88
		c0.19,1.868,0.25,2.862,0.182,2.983c-0.086,0.156-0.64,0.424-1.661,0.805c-1.003,0.381-1.946,0.692-2.828,0.934
		c-0.467,0.139-0.891,0.26-1.271,0.364c-0.346,0.121-0.511,0.19-0.493,0.207c0.017,0.104,3.745,4.549,11.184,13.337
		c6.4,7.542,11.503,13.562,15.309,18.06c-4.117,0.018-8.277-0.173-12.48-0.571c-20.827-2.006-39.267-8.986-55.32-20.939
		c0.83-2.629,1.704-5.302,2.621-8.018l2.413-7.188l-0.597-3.243c-0.173-0.848-0.32-1.79-0.441-2.828
		c-0.139-1.056-0.217-1.877-0.234-2.465c-0.034-1.056,0.052-2.336,0.26-3.841c0.242-1.487,0.51-2.508,0.804-3.062
		c0.155-0.276,0.199-0.476,0.129-0.597c-0.086-0.104-0.346-0.276-0.778-0.52l-0.96-0.492l-1.038,1.297
		c-0.294,0.347-0.649,0.718-1.064,1.116c-0.433,0.363-0.813,0.631-1.142,0.804c-0.571,0.312-0.891,0.536-0.96,0.675
		c-0.069,0.173-0.026,0.545,0.13,1.116c0.156,0.483,0.208,0.942,0.156,1.375c-0.086,0.415-0.303,1.063-0.648,1.945
		c-0.45,1.194-1.021,2.188-1.713,2.984c-0.692,0.813-1.375,1.263-2.049,1.35c-0.225,0.018-0.493,0.112-0.805,0.285
		c-0.294,0.155-0.519,0.338-0.674,0.545c-0.19,0.208-0.519,0.441-0.986,0.701c-0.45,0.276-0.908,0.519-1.375,0.726
		c-1.142,0.484-1.851,0.856-2.127,1.116c-0.242,0.225-0.406,0.7-0.493,1.427c-0.035,0.727,0.025,1.419,0.181,2.076
		c0.052,0.207,0.069,0.397,0.052,0.57c-0.035,0.19-0.095,0.295-0.182,0.313c-0.069,0.017-0.138-0.018-0.207-0.104
		c-0.104-0.087-0.165-0.199-0.182-0.337c-0.052-0.225-0.095-0.329-0.129-0.312c-0.052-0.018-0.113,0.087-0.182,0.312
		c-0.069,0.207-0.121,0.302-0.156,0.285c-0.035,0-0.086-0.121-0.156-0.363l-0.156-0.571l-0.337,0.701
		c-0.156,0.328-0.242,0.484-0.26,0.467c-0.035,0-0.061-0.182-0.078-0.545c0-0.328-0.018-0.511-0.052-0.545
		c-0.018-0.018-0.087,0.112-0.208,0.39C85.163,197.583,85.102,197.704,85.05,197.791z M144.651,151.008
		c-0.173,0.294-0.276,0.433-0.311,0.415c-0.017-0.018,0.017-0.199,0.104-0.545c0.173-0.484,0.312-0.692,0.416-0.623
		c0.069,0.035,0.078,0.121,0.026,0.26C144.833,150.652,144.755,150.817,144.651,151.008z M146.286,151.631
		c0.259-0.52,0.415-0.787,0.467-0.805c0.242-0.069,0.129,0.216-0.337,0.855l-0.493,0.728L146.286,151.631z M140.551,145.169
		c-0.173-0.086-0.346-0.189-0.519-0.311c-0.432-0.294-0.605-0.45-0.519-0.468c0.104-0.034,0.372,0.096,0.805,0.39
		c0.415,0.312,0.597,0.476,0.545,0.493C140.811,145.29,140.707,145.256,140.551,145.169z M113.903,138.086
		c0.017-0.052-0.008-0.112-0.078-0.182c-0.173-0.156-0.294-0.226-0.363-0.208c-0.086,0.035-0.104,0.147-0.052,0.338
		c0.018,0.069,0.061,0.121,0.13,0.155c0.069,0.052,0.147,0.061,0.233,0.026C113.86,138.198,113.903,138.155,113.903,138.086z"/>
</g>
</svg>
