<?xml version="1.0" encoding="utf-8"?>
<!-- Generator: Adobe Illustrator 16.0.0, SVG Export Plug-In . SVG Version: 6.00 Build 0)  -->
<!DOCTYPE svg PUBLIC "-//W3C//DTD SVG 1.1//EN" "http://www.w3.org/Graphics/SVG/1.1/DTD/svg11.dtd">
<svg version="1.1" id="Layer_1" xmlns="http://www.w3.org/2000/svg" xmlns:xlink="http://www.w3.org/1999/xlink" x="0px" y="0px"
	 width="300px" height="300px" viewBox="0 0 300 300" enable-background="new 0 0 300 300" xml:space="preserve">
<g>
	<path fill-rule="evenodd" clip-rule="evenodd" fill="#8EC741" d="M62.35,147.15c0.566-1.767,0.333-3.383-0.7-4.85
		c-1.1-1.6-2.383-2.05-3.85-1.35c-1.433,0.7-2.15,2.083-2.15,4.15c0,0.966,0.45,2,1.35,3.1c0.967,1.1,1.8,1.65,2.5,1.65
		C61,149.85,61.95,148.95,62.35,147.15z M45,120.25c-2.133,2-3.617,3.967-4.45,5.9l-1.15,2.8l4.05-3.2
		c7.733-6.066,16.45-8.767,26.15-8.1c3.667,0.3,5.95,0.583,6.85,0.85c0.9,0.267-0.133-0.316-3.1-1.75
		c-1.867-0.967-3.45-1.583-4.75-1.85c-1.4-0.367-3.434-0.617-6.1-0.75c-2.833-0.066-4.883-0.033-6.15,0.1
		c-1.167,0.2-2.684,0.684-4.55,1.45C49.4,116.667,47.133,118.184,45,120.25z M92.4,21.7c-1.933,1.533-3.867,3.5-5.8,5.9
		c-2,2.5-3.583,4.883-4.75,7.15c-1.467,2.9-2.467,5.8-3,8.7c-0.633,2.9-0.95,6.45-0.95,10.65c0.067,8.7,1.617,17.917,4.65,27.65
		c3.1,9.733,9.417,25.3,18.95,46.7c7.533,16.966,12.983,30,16.35,39.1c3.467,9.267,6.167,18.134,8.1,26.601
		c0.733,3.533,1.25,6.5,1.55,8.899c0.2,2.366,0.3,6.233,0.3,11.601c0,6.633-0.316,11.633-0.95,15c-0.533,3.467-1.8,7.467-3.8,12
		c-4.3,9.6-12.25,18.533-23.85,26.8c-11.567,8.366-22.467,12.899-32.7,13.6c-3.633,0.2-6.383,0.134-8.25-0.2
		c-1.867-0.366-3.5-1.166-4.9-2.399c-1.567-1.467-2.667-3.116-3.3-4.95c-0.6-2-0.733-4.383-0.4-7.15
		c0.833-8.434,1.033-13.916,0.6-16.449c-0.333-2.5-1.85-5.434-4.55-8.801c-1.3-1.666-1.983-2.666-2.05-3
		c-0.133-0.366,0.167-0.616,0.9-0.75c3.8-0.766,6.6-1.383,8.4-1.85c1.733-0.566,3.533-1.267,5.4-2.1c4-1.934,7.383-4.684,10.15-8.25
		c2.8-3.601,4.517-7.434,5.15-11.5l0.4-3.2l-2.45,3.5c-1.6,2.233-3.467,4.2-5.6,5.899c-2.2,1.734-4.817,3.316-7.85,4.75
		c-2.367,1.134-5.45,2.15-9.25,3.051c-3.767,0.8-5.867,1-6.3,0.6c-0.133-0.133-0.1-0.684,0.1-1.65
		c0.133-0.967,0.383-2.033,0.75-3.199c0.833-3.033,1.25-7,1.25-11.9c0-4.166-0.25-7.1-0.75-8.8c-0.467-1.8-1.184-2.467-2.15-2
		c-3.133,1.333-5.767,2.233-7.9,2.7c-2.133,0.434-5,0.684-8.6,0.75c-2,0-3.783-0.033-5.35-0.101c-1.6-0.1-2.467-0.216-2.6-0.35
		c-0.067-0.134,0-0.684,0.2-1.65c0.267-0.966,0.65-2.066,1.15-3.3c1.667-4.5,2.95-10.2,3.85-17.1
		c0.8-6.834,1.517-17.184,2.15-31.051c0.966-21.1,2.383-37.8,4.25-50.1c1.867-12.333,4.617-23.083,8.25-32.25
		C47.3,43.717,64.7,27.434,89.4,20.4c3.3-0.966,5.117-1.383,5.45-1.25C95.217,19.283,94.4,20.133,92.4,21.7z"/>
	<path fill-rule="evenodd" clip-rule="evenodd" fill="#EE2E7C" d="M235.25,142.1c-0.233-0.4-0.584-0.75-1.05-1.05
		c-0.5-0.2-0.983-0.3-1.45-0.3c-1.666,0-2.85,1.033-3.55,3.1c-0.667,2.066-0.417,3.683,0.75,4.85c0.833,0.833,1.583,1.183,2.25,1.05
		c0.7-0.066,1.433-0.65,2.2-1.75c0.833-0.967,1.316-1.934,1.449-2.9C235.916,144.133,235.717,143.133,235.25,142.1z M236.05,114.05
		c-4.066-0.066-7.517,0.384-10.35,1.35c-1.934,0.7-4.167,1.7-6.7,3c-2.5,1.3-3.617,2.05-3.35,2.25c0.133,0.167,1.833-0.1,5.1-0.8
		c3.233-0.7,7.467-0.95,12.7-0.75c4.3,0.167,7.75,0.617,10.35,1.35c2.634,0.833,5.717,2.283,9.25,4.35
		c2.134,1.333,3.4,1.85,3.8,1.55c0.334-0.2-0.116-1.2-1.35-3c-2.4-3.167-5.566-5.65-9.5-7.45
		C243.5,114.8,240.184,114.184,236.05,114.05z M274.35,75.35c1.934,7.8,3.101,14.7,3.5,20.7c0.434,5.934,0.65,20.7,0.65,44.3
		c0.133,29.333,0.467,45.85,1,49.55c0.367,2.434,0.55,4.066,0.55,4.899c0,0.8-0.216,1.351-0.649,1.65
		c-0.734,0.466-2.967,0.634-6.7,0.5c-3.8-0.067-6.8-0.384-9-0.95c-2.767-0.733-5.351-1.65-7.75-2.75l-3.65-1.7l1.65,3.95
		c0.899,2.334,1.634,5.334,2.2,9c0.533,3.666,0.666,6.4,0.399,8.2l-0.399,2.45l-3.25-0.9c-5.434-1.666-11.7-1.184-18.801,1.45
		c-7.033,2.533-11.899,6.149-14.6,10.85l-1.35,2.3l2.8-1.899c2.267-1.434,4.85-2.601,7.75-3.5c2.966-0.9,6.066-1.45,9.3-1.65
		c3.2-0.134,5.867,0,8,0.4c2.133,0.433,4.133,1.2,6,2.3l2.25,1.45l-2.05,2.55c-2.967,3.8-4.583,7.15-4.851,10.05
		c-0.3,2.9,0.601,6.767,2.7,11.601c1.5,3.533,2.384,6.717,2.65,9.55c0.366,2.866,0.167,5.683-0.601,8.45
		c-0.766,2.833-2.8,5.533-6.1,8.1c-3.334,2.533-6.967,4.25-10.9,5.15c-2.666,0.633-6.35,0.883-11.05,0.75
		c-4.767-0.134-8.634-0.584-11.6-1.351c-5.601-1.466-11.083-3.95-16.45-7.45c-5.3-3.533-9.783-7.649-13.45-12.35
		c-1.8-2.334-3.667-5.434-5.6-9.3c-1.934-3.934-3.384-7.45-4.351-10.55c-2.899-9.533-4.066-21.717-3.5-36.551
		c0.601-14.766,2.834-29.732,6.7-44.899c2.567-10,5.75-19.767,9.55-29.3c3.801-9.6,9.066-21.267,15.801-35
		c8.166-16.333,13.35-27.5,15.55-33.5s3.167-11.5,2.899-16.5c-0.199-3.433-0.783-6.25-1.75-8.45c-1.033-2.134-2.8-4.417-5.3-6.85
		c-1.566-1.434-4.316-3.3-8.25-5.6c-3.933-2.2-7.667-3.95-11.2-5.25c-1.232-0.5,0.417-0.65,4.95-0.45
		c4.434,0.233,8.884,0.65,13.351,1.25c17.066,2.367,30.8,8.134,41.199,17.3C263.033,46.45,270.283,59.117,274.35,75.35z"/>
</g>
</svg>
