<?xml version="1.0" encoding="utf-8"?>
<!-- Generator: Adobe Illustrator 16.0.0, SVG Export Plug-In . SVG Version: 6.00 Build 0)  -->
<!DOCTYPE svg PUBLIC "-//W3C//DTD SVG 1.1//EN" "http://www.w3.org/Graphics/SVG/1.1/DTD/svg11.dtd">
<svg version="1.1" id="Layer_1" xmlns="http://www.w3.org/2000/svg" xmlns:xlink="http://www.w3.org/1999/xlink" x="0px" y="0px"
	 width="300px" height="300px" viewBox="0 0 300 300" enable-background="new 0 0 300 300" xml:space="preserve">
<g>
	<path fill-rule="evenodd" clip-rule="evenodd" fill="#010101" d="M41.506,70.25c2.945-1.337,6.216-2.068,9.812-2.195
		c3.596-0.144,6.741,0.343,9.433,1.464c1.084,0.451,2.448,1.328,4.093,2.629c1.644,1.284,3.081,2.593,4.31,3.931
		c4.048,4.391,6.216,9.595,6.505,15.612c0.271,5.981-1.392,11.457-4.987,16.427c-1.97,2.747-4.943,5.14-8.918,7.183
		c-3.957,2.06-7.607,3.089-10.95,3.089c-3.615,0-5.277,0.696-4.988,2.088c0.343,1.336,2.548,3.035,6.614,5.095
		c4.319,2.241,10.553,7.381,18.703,15.423c8.186,8.132,12.559,12.197,13.119,12.197c0.271,0,0.867,0.335,1.789,1.004
		c0.976,0.668,1.988,1.473,3.036,2.411c1.988,1.754,3.298,3.533,3.931,5.34c0.632,1.789,1.138,5.042,1.518,9.759
		c0.145,1.897,0.461,3.226,0.949,3.984c0.524,0.74,1.608,1.545,3.253,2.412c1.842,0.939,4.165,1.572,6.966,1.897
		c2.837,0.343,4.255,0.153,4.255-0.569c0-0.361-1.102-1.481-3.307-3.361c-2.421-2.06-4.174-4.698-5.258-7.914
		c-1.084-3.217-1.256-6.244-0.515-9.081c0.867-3.145,2.141-5.664,3.822-7.562c1.68-1.953,3.994-3.488,6.938-4.608
		c2.368-0.904,4.039-1.355,5.015-1.355c0.958,0,2.583,0.434,4.879,1.301c6.469,2.458,10.544,6.849,12.224,13.173
		c1.681,6.289,0.199,11.674-4.445,16.154l-4.038,3.931h4.174c2.837,0,5.547-0.579,8.132-1.734c2.548-1.12,3.822-2.313,3.822-3.578
		c0-1.645,0.668-3.234,2.005-4.771c1.319-1.499,2.702-2.249,4.147-2.249c1.427,0,2.81,0.75,4.147,2.249
		c1.355,1.537,2.033,3.127,2.033,4.771c0,1.301,1.273,2.512,3.822,3.632c2.529,1.121,5.24,1.681,8.131,1.681h4.146l-4.038-3.74
		c-4.607-4.192-6.233-9.343-4.879-15.45c1.338-6.091,5.114-10.634,11.33-13.634c2.205-1.084,3.831-1.664,4.879-1.735
		c1.048-0.108,2.639,0.153,4.771,0.786c4.969,1.5,8.602,4.4,10.896,8.701c2.241,4.337,2.484,8.809,0.731,13.417
		c-0.487,1.373-1.311,2.864-2.466,4.473c-1.175,1.572-2.341,2.827-3.496,3.768l-4.093,3.415l4.499-0.055
		c1.265,0,2.683-0.181,4.255-0.542c1.646-0.379,2.973-0.849,3.985-1.409c1.753-0.903,2.837-1.762,3.252-2.575
		c0.38-0.831,0.624-2.747,0.731-5.746c0.181-3.578,0.831-6.451,1.952-8.62c1.138-2.168,2.9-3.876,5.285-5.122
		c0.904-0.487,2.25-1.608,4.039-3.361c1.789-1.825,3.47-3.75,5.042-5.773c4.39-5.548,8.791-10.391,13.199-14.529
		c4.446-4.156,8.521-7.228,12.225-9.216c3.037-1.607,4.716-2.602,5.042-2.981c0.344-0.361-0.253-0.56-1.789-0.597
		c-5.565-0.036-10.408-1.609-14.528-4.717c-3.813-2.927-6.523-6.74-8.132-11.438c-1.572-4.753-1.762-9.641-0.568-14.665
		c1.283-5.385,3.992-10.155,8.131-14.312c1.465-1.446,3.091-2.792,4.879-4.039c1.771-1.264,3.162-2.051,4.174-2.358
		c5.874-1.68,11.539-1.265,16.996,1.247c5.493,2.548,9.641,6.641,12.44,12.278c5.35,10.734,3.46,20.663-5.665,29.789
		c-1.572,1.609-3.099,3-4.58,4.174c-1.501,1.157-2.494,1.735-2.982,1.735c-1.391,0-1.914,0.651-1.571,1.952
		c0.289,1.319,1.373,2.99,3.253,5.014c2.421,2.603,5.132,7.065,8.131,13.39c3.001,6.325,5.357,12.596,7.074,18.812
		c0.813,2.873,1.789,5.755,2.928,8.646c1.12,2.838,2.052,4.816,2.792,5.937c1.193,1.68,1.924,3.1,2.195,4.255
		c0.254,1.211,0.235,2.973-0.053,5.285c-0.833,7.175-4.112,10.763-9.841,10.763c-2.638,0-4.164-0.354-4.58-1.059
		c-0.416-0.704,0.01-2.258,1.274-4.662c1.246-2.313,2.186-4.535,2.818-6.668c0.668-2.096,0.497-2.358-0.516-0.786
		c-0.595,0.977-1.663,1.591-3.199,1.844c-1.571,0.308-2.356,0.026-2.356-0.84c0-0.633,0.804-2.594,2.411-5.883
		c1.211-2.476,1.834-4.327,1.872-5.556c0.035-1.248-0.417-4.185-1.355-8.81c-1.917-9.252-5.484-17.709-10.707-25.371
		c-1.987-2.908-2.928-2.873-2.819,0.108c0.145,2.964,1.383,9.867,3.713,20.709c2.874,13.282,5.34,26.165,7.399,38.652
		c2.023,12.161,3.198,18.784,3.524,19.868c0.235,0.795,0.09,1.355-0.433,1.681c-0.525,0.38-1.708,0.722-3.553,1.03l-4.525,0.705
		v5.908c0,3.885,0.199,6.948,0.597,9.188c0.342,1.607,0.813,2.584,1.409,2.928c0.633,0.307,2.341,0.478,5.123,0.515
		c3.253,0.036,7.607,0.895,13.065,2.575c5.455,1.681,8.356,3.063,8.699,4.146c0.181,0.524-0.966,0.896-3.441,1.111
		c-2.457,0.199-7.092,0.299-13.905,0.299h-17.728v-12.848c0-3.488-0.072-6.578-0.217-9.271c-0.198-2.656-0.406-4.093-0.623-4.31
		c-0.181-0.235-0.533-0.371-1.058-0.406c-0.487-0.037-0.976,0.045-1.463,0.243c-0.724,0.289-1.175,1.293-1.355,3.009
		c-0.217,1.734-0.326,5.276-0.326,10.625v12.957h-18.078c-12,0-17.755-0.397-17.267-1.192c0.958-1.573,4.093-3.145,9.406-4.717
		c5.348-1.518,10.101-2.24,14.257-2.168c2.313,0.071,3.713-0.045,4.201-0.353c0.488-0.289,0.731-1.147,0.731-2.576
		c0-1.68,0.226-4.652,0.678-8.916l0.732-5.883h-4.608c-2.205,0-3.496-0.153-3.876-0.46c-0.397-0.308-0.469-1.185-0.217-2.63
		l2.874-21.603c1.444-12.161,2.548-19.679,3.307-22.552c2.349-8.944,4.201-18.098,5.557-27.458
		c1.302-9.342,1.408-13.995,0.324-13.959c-0.559,0-2.485,1.066-5.772,3.199c-5.656,3.777-11.096,8.881-16.317,15.314
		c-5.241,6.469-7.563,10.923-6.967,13.362c0.452,1.753,0.244,3.804-0.623,6.153c-0.85,2.403-1.951,3.957-3.307,4.662
		c-1.392,0.759-2.088,2.439-2.088,5.042c0,1.843-0.144,2.909-0.433,3.198c-0.344,0.343-1.22,0.325-2.63-0.055
		c-2.096-0.487-3.28-0.858-3.551-1.11c-0.289-0.218-1.6,0.497-3.93,2.141c-1.5,1.049-3.036,1.717-4.608,2.007
		c-1.608,0.343-4.373,0.515-8.294,0.515h-9.379l0.57,7.29c0.233,2.802,0.704,5.341,1.408,7.618c0.741,2.33,1.979,5.213,3.714,8.646
		l4.58,8.973l-6.722,0.678l0.677,19.244l3.579,0.299c2.205,0.181,4.3,0.867,6.288,2.06c2.023,1.192,3.036,2.376,3.036,3.551
		c0,0.632-0.578,1.075-1.735,1.328c-1.175,0.235-3.405,0.353-6.694,0.353h-8.402l-0.055-7.59c0-5.006-0.244-9.586-0.732-13.742
		c-0.56-4.409-1.102-5.529-1.626-3.361c-0.523,2.133-0.822,6.713-0.895,13.742l-0.055,10.951h-9.541c-4.3,0-6.975-0.117-8.022-0.353
		c-1.012-0.217-1.518-0.813-1.518-1.789c0-1.265,1.138-2.422,3.414-3.47c2.241-1.084,4.708-1.626,7.4-1.626h3.768v-9.894
		c0-4.59-0.108-7.373-0.326-8.348c-0.271-0.977-0.948-1.464-2.032-1.464c-1.012,0-1.608-0.208-1.789-0.624
		c-0.197-0.434-0.126-1.437,0.218-3.009c0.181-0.976,0.686-2.439,1.518-4.391c0.741-1.861,1.582-3.659,2.521-5.394
		c1.265-2.422,2.122-4.491,2.575-6.208c0.451-1.807,0.678-4.039,0.678-6.694v-6.776l-7.347,0.325
		c-3.107,0.199-5.394,0.126-6.857-0.217c-1.446-0.308-3.234-1.075-5.367-2.305c-3.344-1.915-5.611-2.872-6.803-2.872
		c-0.524,0-1.455,0.288-2.792,0.866c-1.319,0.561-2.665,1.229-4.039,2.006c-2.096,1.229-3.876,1.997-5.34,2.305
		c-1.5,0.343-3.804,0.416-6.912,0.217l-7.346-0.325l0.054,5.61c0,3.777,0.542,10.138,1.626,19.082
		c1.121,9.197,1.681,16.119,1.681,20.764l0.081,7.291h4.256c2.385,0,4.707,0.613,6.966,1.843c2.241,1.192,3.361,2.448,3.361,3.768
		c0,0.669-0.642,1.111-1.924,1.328c-1.265,0.235-3.804,0.353-7.617,0.353h-9.542l-0.162-10.382
		c-0.072-6.993-0.371-11.573-0.895-13.741c-0.343-1.501-0.587-2.105-0.731-1.817c-0.199,0.309-0.461,1.844-0.787,4.608
		c-0.524,3.921-0.786,8.502-0.786,13.742v7.59h-8.43c-3.289,0-5.529-0.117-6.722-0.353c-1.121-0.253-1.681-0.696-1.681-1.328
		c0-1.247,1.066-2.484,3.199-3.714c2.131-1.229,4.282-1.843,6.451-1.843h3.794l0.082-9.054c0-5.71,0.353-11.69,1.057-17.943
		c0.705-6.288,1.283-12.089,1.735-17.4l0.786-8.403h-9.433c-3.958,0-6.723-0.153-8.294-0.461c-1.572-0.289-3.126-0.977-4.662-2.061
		c-0.94-0.687-2.096-1.292-3.469-1.816c-1.355-0.487-2.476-0.73-3.361-0.73c-1.843,0-3.135-0.517-3.876-1.546
		c-0.759-1.048-0.858-2.457-0.298-4.229c0.199-0.597,0.261-1.084,0.189-1.464c-0.125-0.397-0.352-0.597-0.677-0.597
		c-1.427,0-2.738-0.957-3.93-2.873c-1.157-1.951-1.753-4.083-1.789-6.396c0-2.205-0.452-4.038-1.355-5.502
		c-0.904-1.41-3.352-4.265-7.345-8.566c-3.777-4.011-8.159-7.869-13.146-11.574c-4.97-3.668-8.276-5.502-9.921-5.502
		c-0.705,0-0.84,6.414-0.407,19.245c0.452,12.757,1.093,21.125,1.925,25.099c0.94,4.409,1.906,12.397,2.9,23.962
		c1.012,11.51,1.519,20.292,1.519,26.347l0.054,11.058l3.497-0.487c3.289-0.487,8.041,0.126,14.257,1.843
		c6.162,1.717,9.767,3.415,10.815,5.097c0.524,0.795-5.177,1.192-17.104,1.192H45.192l-0.162-12.062
		c-0.073-7.265-0.353-13.436-0.841-18.514c-0.487-5.06-1.03-7.589-1.626-7.589c-0.56,0-1.084,2.638-1.571,7.914
		c-0.524,5.313-0.822,11.556-0.895,18.73l-0.163,11.52H22.207c-4.824,0-8.999-0.1-12.522-0.299c-3.47-0.181-5.205-0.396-5.205-0.65
		c0-1.428,3.415-3.116,10.246-5.068c6.884-1.897,11.971-2.602,15.26-2.114l3.659,0.487v-9.92c0-5.493,0.542-14.438,1.626-26.834
		c1.084-12.415,1.942-19.498,2.575-21.251c0.452-1.318,0.714-9.044,0.786-23.175c0.073-14.113-0.108-21.17-0.542-21.17
		c-0.614-0.036-1.942,2.233-3.984,6.804c-2.06,4.517-3.523,8.43-4.391,11.737c-1.608,6.09-2.449,10.725-2.521,13.904
		c-0.109,3.145,0.488,5.801,1.789,7.969c0.633,1.085,1.193,2.187,1.681,3.308c0.452,1.156,0.678,2.015,0.678,2.574
		c0.037,1.193-0.523,1.835-1.681,1.926c-1.12,0.071-1.906-0.471-2.358-1.627c-0.181-0.488-0.443-0.886-0.786-1.192
		c-0.379-0.344-0.714-0.515-1.002-0.515c-0.308,0-0.217,0.623,0.271,1.87c0.487,1.229,1.219,2.701,2.195,4.418
		c1.988,3.523,2.811,5.773,2.467,6.748c-0.344,1.013-2.124,1.519-5.339,1.519c-2.169,0.037-4.129-0.849-5.882-2.656
		c-1.753-1.788-2.973-4.138-3.659-7.048c-0.524-2.402-0.632-4.408-0.325-6.017c0.344-1.681,1.238-3.533,2.683-5.558
		c0.524-0.776,1.129-2.104,1.816-3.984c0.632-1.897,1.138-3.75,1.518-5.556c1.681-8.15,4.03-15.965,7.047-23.447
		c3.036-7.48,5.792-12.215,8.268-14.203c2.042-1.716,2.954-3.252,2.737-4.608c-0.18-1.337-1.509-2.792-3.984-4.364
		c-4.229-2.693-7.292-6.153-9.189-10.381c-1.807-4.012-2.413-8.258-1.816-12.739c0.65-4.446,2.412-8.556,5.286-12.333
		C32.643,75.545,36.609,72.455,41.506,70.25z M58.827,76.268c-4.861-2.061-9.866-2.142-15.017-0.244
		c-5.132,1.916-8.908,5.213-11.33,9.894c-1.428,2.837-2.124,5.394-2.087,7.671c0.036,2.295,0.84,4.969,2.412,8.023
		c2.169,4.336,5.35,7.408,9.542,9.215c3.813,1.644,7.815,1.979,12.007,1.002c4.192-0.975,7.617-3.054,10.273-6.234
		c2.909-3.433,4.364-7.58,4.364-12.441c0-3.56-0.967-6.966-2.9-10.219C64.14,79.683,61.718,77.46,58.827,76.268z M184.813,152.732
		c-3-1.862-5.99-2.548-8.972-2.061c-3.072,0.47-5.747,2.078-8.023,4.825c-3.524,4.174-4.165,8.547-1.925,13.118
		c2.241,4.608,6.153,6.93,11.736,6.967c2.24,0,3.904-0.19,4.987-0.569c1.084-0.416,2.305-1.273,3.66-2.575
		c2.945-2.964,4.273-6.461,3.984-10.49C189.953,157.899,188.137,154.827,184.813,152.732z M114.772,150.482
		c-1.897,0.234-3.966,1.399-6.207,3.496c-3.795,3.614-4.843,8.006-3.144,13.173c1.897,5.692,5.972,8.503,12.224,8.431
		c3.741-0.037,6.75-1.165,9.026-3.389c2.331-2.204,3.47-5.06,3.415-8.564c0-2.061-0.758-4.328-2.277-6.804
		c-1.5-2.494-3.054-4.048-4.662-4.662C119.479,150.79,116.688,150.229,114.772,150.482z M246.586,73.611
		c-2.205,0.199-4.473,0.858-6.804,1.979c-2.313,1.156-4.4,2.665-6.261,4.526c-5.241,5.241-7.32,11.041-6.235,17.401
		c1.049,6.397,4.844,10.978,11.384,13.743c6.09,2.62,11.964,2.006,17.619-1.843c5.619-3.849,8.449-9.18,8.484-15.993
		c0.072-8.565-4.121-14.628-12.577-18.188C249.432,74.082,247.562,73.54,246.586,73.611z"/>
	<path fill-rule="evenodd" clip-rule="evenodd" fill="#FAB079" d="M58.827,76.268c2.891,1.192,5.313,3.415,7.264,6.667
		c1.934,3.253,2.9,6.659,2.9,10.219c0,4.861-1.455,9.008-4.364,12.441c-2.656,3.181-6.081,5.259-10.273,6.234
		c-4.192,0.976-8.195,0.642-12.007-1.002c-4.192-1.808-7.373-4.879-9.542-9.215c-1.572-3.055-2.376-5.729-2.412-8.023
		c-0.036-2.277,0.66-4.833,2.087-7.671c2.421-4.681,6.198-7.978,11.33-9.894C48.96,74.126,53.965,74.208,58.827,76.268z
		 M246.586,73.611c0.976-0.072,2.846,0.47,5.61,1.626c8.456,3.56,12.649,9.623,12.577,18.188
		c-0.035,6.813-2.865,12.144-8.484,15.993c-5.655,3.849-11.529,4.462-17.619,1.843c-6.54-2.765-10.335-7.346-11.384-13.743
		c-1.085-6.36,0.994-12.161,6.235-17.401c1.86-1.861,3.947-3.371,6.261-4.526C242.113,74.47,244.381,73.811,246.586,73.611z"/>
	<path fill-rule="evenodd" clip-rule="evenodd" fill="#F06CA7" d="M114.772,150.482c1.916-0.253,4.708,0.307,8.375,1.681
		c1.608,0.614,3.163,2.168,4.662,4.662c1.519,2.476,2.277,4.743,2.277,6.804c0.055,3.505-1.084,6.36-3.415,8.564
		c-2.277,2.224-5.285,3.352-9.026,3.389c-6.252,0.072-10.327-2.738-12.224-8.431c-1.699-5.167-0.651-9.559,3.144-13.173
		C110.806,151.882,112.875,150.717,114.772,150.482z M184.813,152.732c3.324,2.095,5.141,5.167,5.448,9.215
		c0.289,4.029-1.039,7.526-3.984,10.49c-1.355,1.302-2.576,2.159-3.66,2.575c-1.083,0.379-2.747,0.569-4.987,0.569
		c-5.583-0.037-9.495-2.358-11.736-6.967c-2.24-4.571-1.6-8.944,1.925-13.118c2.276-2.747,4.951-4.355,8.023-4.825
		C178.822,150.184,181.813,150.87,184.813,152.732z"/>
</g>
</svg>
