<?xml version="1.0" encoding="utf-8"?>
<!-- Generator: Adobe Illustrator 16.0.0, SVG Export Plug-In . SVG Version: 6.00 Build 0)  -->
<!DOCTYPE svg PUBLIC "-//W3C//DTD SVG 1.1//EN" "http://www.w3.org/Graphics/SVG/1.1/DTD/svg11.dtd">
<svg version="1.1" id="Layer_1" xmlns="http://www.w3.org/2000/svg" xmlns:xlink="http://www.w3.org/1999/xlink" x="0px" y="0px"
	 width="300px" height="300px" viewBox="0 0 300 300" enable-background="new 0 0 300 300" xml:space="preserve">
<g>
	<path fill-rule="evenodd" clip-rule="evenodd" fill="#2C2929" d="M240.633,60.831c0.217,0.271,0.69,0.919,1.42,1.947
		c0.243,0.325,0.473,0.729,0.688,1.217c0.217,0.595,0.393,1.027,0.528,1.297c0.135,0.325,0.283,0.73,0.445,1.217
		c0.217,0.594,0.365,1.041,0.446,1.338c0.46-0.189,1.176-0.486,2.149-0.892c0.811-0.325,1.514-0.595,2.108-0.811
		c3.325-1.108,6.435-1.865,9.327-2.271c3.353-0.514,6.57-0.608,9.65-0.284c1.975,0.243,3.786,0.675,5.436,1.298
		c5.244,2.108,7.88,6.271,7.907,12.49c0,2.379-0.23,4.569-0.69,6.569c-0.514,2.19-1.352,4.217-2.514,6.083
		c-0.055,0.135-0.055,0.311,0,0.528c0.054,0.243,0.148,0.446,0.283,0.608c2.758,3.352,4.893,6.853,6.408,10.502
		c2.433,6.002,3.257,12.49,2.474,19.464c-0.757,6.84-2.447,13.748-5.069,20.722c-2.324,6.164-5.448,12.571-9.368,19.221
		c-1.459,2.462-2.771,4.528-3.933,6.205c-1.514,2.163-3.041,4.068-4.583,5.717c-0.08,0.108-0.148,0.23-0.202,0.366
		c-0.027,0.136-0.04,0.256-0.04,0.365c0.136,1.404,0.04,2.959-0.284,4.663c-0.135,0.838-0.501,2.364-1.095,4.582
		c-3.894,14.681-10.923,28.398-21.088,41.159c-1.973,2.461-4.987,6.164-9.042,11.111c-0.568,0.649-1.217,1.243-1.947,1.784
		c-3.919,2.812-7.881,5.11-11.882,6.895c-0.918,0.405-1.595,0.486-2.026,0.243c-0.46-0.243-0.703-0.865-0.73-1.865
		c-0.026-0.541,0.014-1.204,0.122-1.987c0.135-0.919,0.216-1.595,0.242-2.027c0-0.081,0-0.325,0-0.73l-1.013,0.649
		c-4.488,3.162-9.395,5.677-14.721,7.542c-0.216,0.081-0.554,0.176-1.014,0.283c-0.405,0.083-0.717,0.041-0.933-0.12
		c-0.243-0.163-0.405-0.46-0.486-0.893c-0.704-3.622-0.23-6.854,1.419-9.692c0.027-0.027,0.067-0.134,0.121-0.323
		c-7.353,2.297-11.205,3.487-11.557,3.567c-1.378,0.459-2.866,0.798-4.461,1.014c-1.378,0.163-2.906,0.257-4.582,0.285
		c-0.162,0-0.364-0.083-0.608-0.244c-0.242-0.217-0.364-0.378-0.364-0.486c-0.081-1.136-0.028-2.028,0.162-2.677
		c0.541-1.703,1.364-3.42,2.473-5.149c0.893-1.353,2.042-2.854,3.447-4.503l0.527-0.647c0.026,0,0.055-0.067,0.081-0.203h-2.149
		c-4.596,0.081-7.178,0.136-7.745,0.162c-1.189,0.027-2.73,0.108-4.623,0.243c-0.676,0.055-1.122-0.04-1.338-0.283
		c-0.188-0.243-0.176-0.717,0.041-1.42c0.783-2.541,2.067-4.582,3.852-6.122c0.244-0.245,1.662-1.461,4.258-3.65
		c-1.568,0.188-2.419,0.297-2.555,0.324c-6.596,0.946-13.936,1.244-22.02,0.893c-3.487-0.189-6.109-0.324-7.867-0.406
		c-3.082-0.162-5.69-0.243-7.827-0.243c-1.946-0.026-3.528,0.014-4.745,0.122c-0.513,0.053-1.013,0.107-1.5,0.162
		c-1.136,0.108-2.177,0.297-3.123,0.567c-1.623,0.434-3.434,1.081-5.435,1.947c-0.567,0.242-2.324,1.041-5.271,2.393
		c-1.433,0.677-4.488,2.135-9.165,4.379c-3.786,1.838-6.854,3.258-9.205,4.258c-7.272,3.19-14.896,5.204-22.872,6.042
		c-6.596,0.704-12.8,0.554-18.613-0.446c-3.623-0.647-7.137-1.635-10.543-2.959c-2.407-0.947-4.745-2.068-7.015-3.366
		c-2.298-1.325-4.326-2.717-6.083-4.178c-1.947-1.648-3.609-3.459-4.988-5.433c-0.216-0.299-0.622-0.528-1.217-0.689
		c-2.325-0.704-4.353-1.487-6.083-2.353c-2.082-1.028-3.893-2.257-5.434-3.69c-1.812-1.622-3.19-3.365-4.136-5.231
		c-1-2.054-1.474-4.244-1.419-6.568c0.108-3.947,1.77-7.327,4.987-10.139c6.11-5.298,12.653-6.394,19.627-3.284
		c0.136,0.027,0.243,0.054,0.325,0.08c0.838-1.243,1.866-2.459,3.082-3.649c0.919-0.999,2.082-2.055,3.487-3.162
		c0.054-0.082,0.122-0.217,0.203-0.406c0.055-0.216,0.055-0.364,0-0.445c-0.486-1.298-0.689-2.65-0.608-4.055
		c0.055-1.217,0.365-2.528,0.933-3.935c1.892-4.92,5.19-9.299,9.895-13.139c0.297-0.243,0.473-0.473,0.526-0.689
		c0.108-0.243,0.082-0.554-0.081-0.933c-1.838-5.109-2.42-10.8-1.744-17.072v-0.77c-1.676-0.189-3.474-0.149-5.393,0.122
		c-1.434,0.189-3.177,0.54-5.232,1.054l-0.122-0.243c0.541-0.352,0.933-0.622,1.176-0.811c0.486-0.325,0.892-0.595,1.216-0.811
		c2.568-1.541,5.475-2.785,8.718-3.73c0.163-0.054,0.338-0.19,0.528-0.406c0.188-0.19,0.324-0.405,0.406-0.649
		c0.756-2.027,1.689-3.784,2.797-5.271c1.243-1.649,2.731-2.974,4.46-3.974c1.379-0.811,2.92-1.46,4.623-1.947
		c1.406-0.406,3.015-0.689,4.826-0.852c7.137-0.757,13.868-0.297,20.195,1.379c0.756,0.217,1.716,0.555,2.879,1.014
		c1.271,0.541,2.217,0.933,2.838,1.175c1.217-1.459,1.892-2.271,2.027-2.433c2.298-2.595,4.718-4.677,7.259-6.245
		c2.784-1.703,5.771-2.812,8.961-3.325c2.325-0.405,4.744-0.473,7.259-0.202c2.244,0.243,4.636,0.729,7.177,1.459
		c4.271,1.19,8.476,2.975,12.611,5.353l1.135,0.649c-0.108-1.271,0.149-2.568,0.771-3.893c0.271-0.595,0.973-1.771,2.108-3.528
		h-4.38c-0.918,0-1.865-0.175-2.838-0.527c-0.649-0.216-1.527-0.608-2.636-1.176c-0.107-0.081-0.203-0.256-0.283-0.527
		c-0.081-0.27-0.081-0.486,0-0.648c0.324-0.865,0.527-1.919,0.608-3.163c0.054-1.055,0.527-2.204,1.419-3.447
		c1.757-2.433,4.365-4.46,7.827-6.083l0.973-0.446l-0.486-0.729c-0.784-1.271-1.365-2.23-1.744-2.879
		c-0.73-1.163-1.338-2.122-1.825-2.879c-0.513-0.784-1.027-1.311-1.541-1.581c-2.677-1.433-5.407-2.163-8.192-2.19
		c-3.514,0-6.204,0.04-8.069,0.122c-3,0.136-5.704,0.405-8.11,0.811c-1.082,0.162-2.339,0.433-3.771,0.811
		c-1.676,0.433-2.947,0.771-3.812,1.014c-0.216,0.054-0.514,0.162-0.892,0.324c-0.378,0.217-0.689,0.379-0.933,0.487
		c0.378,0.271,0.676,0.473,0.893,0.608c0.27,0.189,0.513,0.338,0.729,0.446c0.325,0.162,1.149,0.567,2.474,1.216
		c1.055,0.486,1.893,0.906,2.515,1.257c1.352,0.757,2.366,1.446,3.041,2.068c0.838,0.892,1.203,1.892,1.095,3.001
		c-0.163,1.108-0.771,2-1.825,2.676c-0.568,0.379-1.135,0.649-1.703,0.812c-3.649,1.108-6.948,1.906-9.895,2.393
		c-3.542,0.595-6.921,0.811-10.138,0.649c-1.596-0.108-3.028-0.284-4.299-0.527c-1.514-0.297-2.906-0.716-4.177-1.257
		c-3.217-1.352-5.461-3.393-6.732-6.124c-1.271-2.703-1.379-5.744-0.324-9.124c0.919-2.946,2.704-5.853,5.353-8.718
		c1.649-1.838,3.554-3.609,5.718-5.312c1.892-1.46,4.055-2.934,6.488-4.42c0.325-0.216,0.541-0.405,0.649-0.567
		c0.162-0.244,0.229-0.527,0.202-0.852c-0.026-0.162,0-0.527,0.082-1.095c0.27-1.568,1.027-2.583,2.271-3.042
		c1.216-0.514,2.446-0.257,3.69,0.77c0.27,0.216,0.541,0.338,0.811,0.365c0.216,0.027,0.486-0.041,0.811-0.203
		c3.46-1.541,6.434-2.812,8.921-3.812c0.379-0.162,0.662-0.351,0.851-0.567c0.189-0.217,0.325-0.514,0.406-0.892
		c0.027-0.271,0.095-0.73,0.203-1.379c0.136-0.622,0.217-1.094,0.243-1.419c0.189-1.812,0.853-2.987,1.987-3.528
		c1.136-0.54,2.433-0.297,3.893,0.73c0.405,0.297,0.906,0.743,1.5,1.338c0.73,0.703,1.23,1.175,1.5,1.419
		c0.136,0.108,0.298,0.203,0.487,0.284c0.216,0.082,0.405,0.108,0.567,0.082c0.595-0.163,1.379-0.378,2.352-0.649
		c1.136-0.297,1.92-0.5,2.353-0.608c0.27-0.082,0.473-0.176,0.608-0.284c0.135-0.162,0.229-0.379,0.283-0.649
		c0.189-1.163,0.459-2.487,0.811-3.974c0.325-1.379,0.866-2.46,1.623-3.244c0.784-0.811,1.744-1.23,2.879-1.257
		c0.567,0,1.176,0.081,1.825,0.244c0.622,0.135,1.203,0.351,1.744,0.649c2.081,1.135,3.676,2.784,4.785,4.947
		c0.163,0.27,0.338,0.446,0.527,0.527c0.163,0.054,0.38,0.067,0.649,0.04c7.408-0.729,11.518-1.135,12.328-1.216
		c0.162-0.027,0.325-0.108,0.486-0.243c0.217-0.135,0.352-0.297,0.406-0.486c0.297-0.595,0.743-1.555,1.338-2.879
		c0.568-1.298,1.014-2.271,1.339-2.92c1.162-2.433,2.608-3.826,4.338-4.177c1.758-0.324,3.637,0.419,5.637,2.23
		c2.703,2.46,4.826,5.137,6.367,8.029c0.055,0.163,0.189,0.311,0.405,0.446c0.216,0.136,0.405,0.203,0.567,0.203
		c1.568,0.189,3.894,0.473,6.976,0.852c3.108,0.324,5.434,0.595,6.975,0.811c0.379,0.054,0.676,0,0.892-0.162
		c0.163-0.108,0.352-0.325,0.568-0.649c1.026-1.784,2.689-4.528,4.987-8.232c0.595-0.919,1.394-1.419,2.393-1.5
		c0.866-0.081,1.69,0.189,2.474,0.811c1.623,1.271,2.771,2.555,3.447,3.853c0.621,1.135,1.243,2.5,1.866,4.095
		c0.08,0.189,0.635,1.609,1.662,4.258c0.162,0.406,0.338,0.703,0.526,0.893c0.244,0.216,0.554,0.392,0.933,0.527
		c5.732,1.649,12.085,3.487,19.06,5.515c0.352,0.135,0.648,0.176,0.893,0.122c0.243-0.081,0.486-0.271,0.729-0.568
		c0.324-0.378,0.811-0.918,1.46-1.622c0.703-0.757,1.176-1.298,1.419-1.622c0.73-0.838,1.622-1.257,2.677-1.257
		c0.892,0,1.717,0.325,2.474,0.974C239.512,59.493,240.065,60.074,240.633,60.831z M248.865,70.726
		c5.137,2.433,9.61,4.853,13.423,7.258c4.541,2.893,8.542,6.016,12.003,9.368c0.622-1.703,1.108-3.514,1.46-5.434
		c0.324-1.974,0.446-3.691,0.364-5.15c-0.136-1.811-0.526-3.325-1.176-4.542c-0.812-1.379-2.027-2.365-3.649-2.96
		c-1.676-0.595-3.447-0.973-5.312-1.135c-2.622-0.217-5.436-0.081-8.436,0.405c-2.271,0.378-5.042,1.014-8.313,1.906
		c-0.028,0.027-0.081,0.054-0.162,0.081L248.865,70.726z M127.17,192.867l6.326-3.487c1.055-0.73,1.919-1.405,2.595-2.027
		c0.811-0.811,1.446-1.689,1.906-2.637c0.082-0.135,0.149-0.338,0.203-0.608c0.163-0.433,0.243-0.676,0.243-0.729
		c-0.837,0.406-2.081,1.042-3.729,1.906c-1.461,0.757-2.704,1.352-3.731,1.783c-2.812,1.163-5.461,1.704-7.948,1.623
		c0.027-0.055,0.067-0.122,0.122-0.203c0.081-0.026,0.148-0.054,0.203-0.081c3.082-1.947,5.406-3.433,6.975-4.46
		c2.758-1.73,5.109-3.164,7.056-4.299c3.515-2.056,7.097-3.853,10.747-5.394c3.082-1.353,6.623-1.486,10.624-0.405
		c0.324,0.081,0.784,0.216,1.379,0.405c0.541,0.108,1.013,0.176,1.419,0.203c2.568,0.107,4.975,0.121,7.219,0.04
		c1.919-0.081,3.636-0.311,5.15-0.689c1.784-0.432,3.393-1.067,4.825-1.905c2.838-1.73,4.555-4.096,5.149-7.097
		c0.325-1.622,0.244-2.947-0.243-3.975c-0.486-1.054-1.473-1.946-2.961-2.676c-1.621-0.784-3.446-1.474-5.475-2.068
		c-1.782-0.487-3.784-0.865-6.001-1.136c-1.568-0.162-3.582-0.298-6.042-0.405c-1.108-0.054-2-0.122-2.676-0.202l0.364-0.366
		c0.082-0.026,0.217-0.094,0.405-0.202c0.135-0.054,0.258-0.095,0.365-0.121c0.838-0.162,2.096-0.446,3.771-0.853
		c1.486-0.352,2.758-0.581,3.812-0.688c6.028-0.596,11.301,0.474,15.816,3.203c2.595,1.595,4.487,3.568,5.676,5.921
		c1.108,2.352,1.501,5.068,1.177,8.15c-0.379,3.569-1.703,6.922-3.975,10.057c-0.459,0.568-0.675,1.042-0.648,1.42
		c0.351,4.379,2.096,7.597,5.231,9.651c0.972,0.648,2.121,1.324,3.446,2.026c0.729,0.352,1.934,0.947,3.609,1.785
		c2.893,1.486,6.068,2.46,9.529,2.92c0.352,0.054,0.649,0.013,0.893-0.122c0.242-0.08,0.473-0.257,0.689-0.527
		c1.758-2.027,2.744-3.19,2.96-3.487c1.136-1.271,2.148-2.378,3.041-3.325c0.649-0.676,1.5-1.459,2.556-2.352
		c0.594-0.515,1.46-1.284,2.594-2.312l0.325,0.283c-1.485,3.379-3.473,7.246-5.962,11.598c-1.433,2.515-3.649,6.286-6.649,11.314
		c1.217,0.27,2.108,0.515,2.676,0.73c0.975,0.351,1.799,0.771,2.474,1.257c-1.352,0.297-2.581,0.486-3.689,0.567
		c-0.514,0.054-2.366,0.176-5.556,0.364c-2.244,0.135-4.096,0.285-5.556,0.447c-9.002,0.973-16.95,4.284-23.845,9.935
		c-0.107,0.081-0.243,0.148-0.405,0.203c-0.081,0.081-0.217,0.175-0.406,0.283c0.866,0,1.975-0.04,3.326-0.121
		c1.514-0.081,2.555-0.122,3.122-0.122c0.757,0,1.799,0.041,3.123,0.122c1.567,0.108,2.609,0.161,3.122,0.161
		c0.46,0.027,0.906-0.107,1.339-0.404c2.946-2.082,5.88-3.46,8.799-4.137c1.595-0.406,3.056-0.378,4.38,0.08
		c-2.812,1.623-4.758,2.785-5.839,3.488c-2.136,1.352-3.961,2.704-5.475,4.056c-1.704,1.541-3.46,3.46-5.272,5.758
		c-1.837,2.325-2.852,3.933-3.041,4.825c0.271-0.054,0.648-0.148,1.136-0.284c9.219-2.973,15.232-4.919,18.045-5.839
		c0.244-0.081,0.527-0.217,0.853-0.405c0.135-0.136,0.392-0.352,0.77-0.649c0.217-0.161,0.96-0.77,2.23-1.825
		c0.865-0.729,1.608-1.323,2.23-1.783c0.893-0.649,2.068-0.893,3.527-0.729c-2.433,2.703-4.433,5.298-6.001,7.785
		c-1.812,2.865-3.177,5.772-4.096,8.719l0.202,0.163l21.574-12.084c-0.217,0.675-1,2.594-2.353,5.757
		c-0.973,2.271-1.621,4.189-1.946,5.758c0.541-0.188,0.824-0.31,0.852-0.363c4.137-2.218,7.354-5.057,9.651-8.517
		c1.137-1.784,2.001-3.123,2.596-4.015c1-1.541,1.919-2.812,2.757-3.812c11.437-13.68,18.709-29.021,21.817-46.026
		c0.189-0.838,0.31-1.393,0.364-1.662c0.081-0.378,0.081-0.648,0-0.812c-0.081-0.136-0.297-0.258-0.647-0.365
		c-0.109-0.026-0.704-0.135-1.785-0.324c-2-0.378-4.744-0.864-8.232-1.46c-3.946-0.702-6.704-1.188-8.272-1.459
		c-3.163-0.596-5.839-1.19-8.029-1.785c-2.864-0.756-5.46-1.676-7.785-2.757l-1.095-0.608c0.405-0.244,0.811-0.379,1.217-0.405
		l3.649-0.041c1.433-0.027,2.622-0.107,3.568-0.243c1.378-0.108,2.298-0.217,2.757-0.324c1.054-0.19,1.879-0.515,2.474-0.973
		c1.894-1.353,3.921-2.921,6.083-4.704c1.595-1.299,3.569-2.947,5.921-4.948c3.46-2.947,6.502-5.867,9.124-8.759
		c2.946-3.245,5.488-6.569,7.623-9.976c4.677-7.38,7.26-14.95,7.746-22.708c0.622-9.813-2.285-18.884-8.719-27.21
		c-0.379-0.46-0.92-0.933-1.622-1.42c-4.056-2.784-8.786-5.434-14.193-7.948c-0.135-0.081-0.433-0.189-0.893-0.324l0.122,1.257
		c0.055,1.027,0.108,1.798,0.162,2.312c0.082,0.892,0.122,1.649,0.122,2.271c0.027,0.73-0.189,1.297-0.648,1.703
		c-0.405,0.405-0.987,0.608-1.745,0.608c-0.513,0.027-0.959-0.013-1.337-0.122c-6.191-1.595-11.273-5.285-15.248-11.07
		c-0.865-1.245-1.135-2.514-0.811-3.812c0.081-0.298,0.081-0.527,0-0.689c-0.108-0.109-0.297-0.217-0.567-0.325
		c-0.46-0.108-1.23-0.351-2.313-0.73c-1-0.297-1.77-0.527-2.311-0.689c-4.704-1.352-8.22-2.366-10.543-3.042
		c-0.487,0.919-0.947,1.514-1.379,1.785c-0.46,0.216-1.177,0.283-2.15,0.203c-0.757-0.081-1.473-0.216-2.148-0.405
		c-1.487-0.325-2.988-0.878-4.502-1.663c-1.298-0.676-2.677-1.528-4.136-2.555c-0.648-0.432-1.243-0.676-1.785-0.729
		c-4.621-0.622-8.096-1.095-10.421-1.419c-4.082-0.514-7.569-0.865-10.462-1.055c-13.814-0.973-27.414,0.041-40.795,3.042
		c-6.218,1.379-12.017,3.055-17.396,5.028c-5.866,2.109-11.354,4.61-16.464,7.502c-2.595,1.459-4.879,2.947-6.853,4.46
		c-2.325,1.703-4.365,3.528-6.123,5.474c-0.918,1.027-1.689,2.028-2.311,3.001c-0.704,1.081-1.244,2.216-1.622,3.406
		c-0.487,1.622-0.487,3.042,0,4.258c0.541,1.244,1.555,2.23,3.041,2.96c1.649,0.757,3.42,1.311,5.313,1.663
		c2.163,0.378,4.609,0.608,7.339,0.689c1.622,0.027,4.083-0.027,7.381-0.163c0.622-0.027,1.378-0.163,2.271-0.406
		c0.513-0.108,1.297-0.311,2.352-0.608V98.22l-1.46-0.649c-0.865-0.378-2.175-0.959-3.933-1.744
		c-1.541-0.703-2.825-1.298-3.853-1.784c-2.568-1.298-4.271-3.244-5.109-5.839c-0.297-0.946-0.378-1.906-0.244-2.879
		c0.162-0.973,0.5-1.717,1.014-2.23l0.406,1.338c1.406-2.271,3.339-4.19,5.799-5.758c1.784-1.163,4.204-2.311,7.258-3.446
		c1.541-0.568,3.42-1.136,5.637-1.704c4.056-1.054,8.421-1.757,13.098-2.108c3.974-0.298,8.38-0.338,13.22-0.122
		c0.595,0.027,1.014,0.041,1.257,0.041c0.486-0.027,0.865-0.108,1.135-0.244c2.92-1.46,6.231-2.366,9.936-2.717
		c8.758-0.919,17.612,0.082,26.561,3.001c0.838,0.27,1.838,0.622,3.001,1.054c0.676,0.243,1.636,0.595,2.879,1.055
		c0.136-0.406,0.312-1.014,0.527-1.825c0.217-0.703,0.445-1.23,0.689-1.582c0.703-1,1.568-2.149,2.596-3.447
		c0.595-0.729,1.5-1.838,2.716-3.325c0.785-0.974,1.717-1.406,2.799-1.298c0.92,0.054,1.731,0.474,2.434,1.257
		c1.027,1.054,1.811,2.163,2.352,3.325c1.162,2.353,2.014,5.002,2.555,7.949c0.432,2.325,0.717,5.096,0.853,8.313
		c0.053,0.729-0.122,1.27-0.528,1.622c-0.405,0.406-0.96,0.554-1.662,0.446c-1.325-0.135-2.541-0.446-3.649-0.933
		c-3.65-1.487-6.881-3.947-9.692-7.38c-0.162-0.189-0.365-0.352-0.608-0.487c-0.216-0.162-0.433-0.257-0.648-0.283
		c-4.271-0.514-6.976-0.852-8.11-1.014c-3.082-0.325-5.813-0.595-8.192-0.811c-3.135-0.298-6.001-0.433-8.597-0.406
		c-3.054,0.026-5.92,0.256-8.596,0.689c-1.568,0.271-2.853,0.567-3.853,0.892c-1.379,0.432-2.582,0.987-3.609,1.663
		c-1.975,1.325-2.826,3.217-2.555,5.678c0.162,1,0.419,2.041,0.77,3.122c1.46,4.596,4.109,9.191,7.948,13.787
		c0.703,0.866,1.609,1.568,2.718,2.109c0.945,0.514,2.136,1.095,3.568,1.744c0.811,0.352,2.014,0.892,3.608,1.622
		c0.163,0.081,0.46,0.217,0.893,0.406c-1.189,0.271-2.406,0.338-3.649,0.203c-1.027-0.081-2.204-0.324-3.527-0.73
		c-3.191-0.919-6.111-1.176-8.76-0.77c-1.459,0.216-2.905,0.716-4.339,1.5c-1.109,0.649-2.338,1.568-3.69,2.758
		c0.46,0.054,1.19,0.081,2.189,0.081c0.974,0.027,1.718,0.068,2.231,0.122c1.379,0.189,2.486,0.256,3.325,0.203
		c1.189-0.108,2.258-0.446,3.204-1.014c0.919-0.568,2.028-0.608,3.326-0.122c-0.648,0.919-2,2.447-4.055,4.582
		c-1.757,1.812-3.002,3.393-3.732,4.744c0.271,0.082,0.461,0.136,0.568,0.163c1.73,0.298,3.65,0.433,5.759,0.406
		c1.568,0,3.515-0.135,5.839-0.406c0.731-0.081,1.299-0.256,1.704-0.527c0.459-0.325,0.796-0.838,1.013-1.541
		c0.649-2.027,1.717-3.596,3.204-4.704c0.757-0.595,1.541-0.878,2.352-0.852c0.785,0,1.528,0.324,2.231,0.973
		c0.405,0.352,1.311,1.177,2.716,2.474c0.189-0.244,0.541-0.622,1.056-1.135c0.432-0.459,0.756-0.893,0.972-1.297
		c1.055-2.055,1.704-4.528,1.947-7.421c0.135-1.974-0.014-3.975-0.446-6.002c-0.432-1.811-1.081-3.717-1.947-5.717
		c-0.053-0.082-0.445-1.054-1.176-2.92c0.434,0.108,0.812,0.311,1.137,0.608c1.108,1.055,2.054,2.096,2.838,3.123
		c0.892,1.217,1.568,2.447,2.028,3.69c2.702,7.299,1.703,14.166-3.002,20.601c-0.216,0.297-0.338,0.554-0.364,0.771
		c-0.027,0.243,0.04,0.527,0.202,0.852c0.46,0.783,0.649,1.582,0.568,2.392c-0.055,0.811-0.339,1.568-0.852,2.271
		c-1.406,1.838-2.798,3.407-4.177,4.704c-0.595,0.541-1.365,1.136-2.312,1.785c-1.108,0.757-1.933,1.337-2.474,1.743
		c4.217,3.596,7.124,7.961,8.719,13.099c-0.378-0.243-0.744-0.595-1.096-1.054c-3.162-3.893-7.069-7.218-11.719-9.975
		c-1.299-0.758-2.92-1.664-4.866-2.718c-2.136-1.135-3.758-2.014-4.865-2.636c-0.136-0.081-0.771-0.432-1.907-1.054
		c1.975,2.136,3.312,3.663,4.015,4.583c1.353,1.784,2.338,3.555,2.96,5.312c-0.404-0.108-0.757-0.27-1.054-0.487
		c-2.082-1.703-3.65-2.974-4.705-3.812c-3.676-3.136-7.34-5.759-10.989-7.867c-4.028-2.353-8.137-4.177-12.327-5.475
		c-2.352-0.73-4.568-1.23-6.651-1.501c-2.352-0.297-4.623-0.297-6.813,0c-5.055,0.676-9.516,3.055-13.382,7.137
		c-2.244,2.433-4.542,5.272-6.894,8.517c-1.595,2.271-3.609,5.325-6.042,9.165l-1.014,1.5c0.486-2.811,1.122-5.393,1.905-7.745
		c0.866-2.623,1.947-5.056,3.244-7.3c-0.297-0.108-0.648-0.243-1.054-0.405c-3.217-1.108-6.636-1.865-10.259-2.271
		c-3.298-0.351-6.813-0.392-10.543-0.122c-1.568,0.082-2.96,0.257-4.177,0.528c-1.514,0.351-2.865,0.838-4.055,1.459
		c-1.243,0.622-2.311,1.446-3.204,2.474c-0.838,1-1.541,2.19-2.108,3.569l1.865,0.162c5.109,0.486,9.273,2.271,12.49,5.353
		c5.704,5.326,8.029,12.288,6.975,20.884c-0.919,7.3-3.38,13.788-7.38,19.466c-0.027,0.08-0.108,0.283-0.244,0.608
		c3.056,0.026,5.704,0.474,7.948,1.338c1.379,0.566,2.568,1.148,3.568,1.743c1.19,0.729,2.217,1.567,3.082,2.515
		c-3.623-1.325-7.624-2.326-12.003-3.002c-3.514-0.54-7.623-0.904-12.328-1.094l-0.041-0.284l8.395-1.379
		c-2.46-0.974-4.799-2.528-7.016-4.664c-1.486-1.459-2.771-3.148-3.852-5.069c-1-1.647-1.879-3.566-2.636-5.757
		c-0.216-0.676-0.541-1.487-0.973-2.434c-0.513-1.107-0.892-1.96-1.135-2.555c-1.974,2.028-3.529,3.961-4.664,5.8
		c-1.353,2.136-2.245,4.352-2.677,6.649c-0.081,0.486-0.081,1.095,0,1.825c0.055,0.406,0.149,1.015,0.284,1.825
		c0.108,0.567,0.473,0.689,1.095,0.364c1.838-0.892,3.514-1.635,5.029-2.23c0.325-0.135,0.744-0.243,1.257-0.323
		c0.568-0.109,0.987-0.189,1.257-0.244l0.082,0.283l-1.095,0.771c-4.083,2.65-7.326,5.447-9.732,8.395
		c-1.189,1.486-3,3.907-5.434,7.26c-0.244,0.378-0.487,0.621-0.73,0.729c-0.27,0.161-0.622,0.202-1.054,0.121
		c-1.109-0.189-2.745-0.486-4.907-0.892c-1.893-0.271-3.542-0.352-4.948-0.244c-4.541,0.352-8.097,2.258-10.664,5.719
		c-2.326,3.135-2.501,6.42-0.528,9.853c1,1.73,2.433,3.231,4.298,4.503c2.515,1.783,5.488,3.095,8.921,3.933
		c5.109,1.243,10.421,1.811,15.937,1.703c0.361-0.013,0.726-0.026,1.095-0.041c0.322-0.008,0.647-0.015,0.973-0.019l2.919-0.203
		c1.855-0.162,3.733-0.399,5.637-0.71c0.189-0.027,1.528-0.19,4.015-0.487c-0.847,0.052-1.524,0.093-2.027,0.123
		c1.397-0.279,2.762-0.604,4.095-0.975c0-0.026-0.013-0.053-0.04-0.081c-1-4.055-1.339-8.326-1.014-12.814
		c0.027-0.216,0.081-0.418,0.163-0.607c0.729-1.271,1.662-1.919,2.798-1.947c0.946-0.135,2.055,0.284,3.325,1.257
		c1.919,1.38,4.312,4.327,7.177,8.841v0.021v0.021c0.611-0.367,1.212-0.752,1.805-1.155l1.723-1.237
		c1.271-0.919,2.351-1.785,3.244-2.596c1.082-1.027,1.987-2.081,2.717-3.163c0.703-0.973,1.689-1.446,2.96-1.418
		c1.567,0.053,3.285,0.134,5.15,0.242c2.43,0.121,4.816,0.16,7.157,0.121c0.784,0,1.561-0.012,2.332-0.04l0.021-0.04l2.535-7.948
		c0.054-0.271,0.203-0.501,0.446-0.689c1.649-1.406,3.434-1.325,5.353,0.243c1.433,1.107,2.947,3.271,4.542,6.488
		c0.027,0.107,0.067,0.229,0.121,0.364c1.216-0.246,2.419-0.517,3.609-0.812c2.039-0.513,3.985-1.108,5.839-1.783l2.108-0.811
		c0.234-0.094,0.463-0.188,0.69-0.285C126.528,193.172,126.853,193.022,127.17,192.867z M81.65,208.317h-0.02
		c-0.271,0.235-0.548,0.472-0.832,0.71l-2.636,1.966c-1.792,1.232-3.732,2.369-5.819,3.407l-10.969,4.014
		c-0.54,0.146-1.088,0.281-1.642,0.406c1,2.865,1.392,5.056,1.176,6.569c-0.297,2.217-1.487,3.379-3.569,3.488
		c-0.352,0-0.675-0.109-0.973-0.325l-10.341-8.151l-0.04-0.04c-0.054,0-0.108,0.013-0.162,0.04
		c-2.243,0.038-4.554-0.016-6.934-0.162c-0.568-0.054-1.284-0.095-2.15-0.122c-1.433-0.161-2.162-0.243-2.189-0.243l0.203,0.284
		l0.729,0.487c2.917,1.929,5.925,3.564,9.022,4.906c0.433,0.199,0.873,0.388,1.318,0.567c0.926,0.372,1.865,0.71,2.819,1.014
		c2.825,0.969,5.725,1.697,8.698,2.19c7.38,1.243,15.221,1.04,23.52-0.608c3.677-0.757,7.542-1.892,11.598-3.407
		c3.271-1.161,6.989-2.703,11.152-4.622c1.298-0.596,2.271-1.041,2.92-1.338c1.108-0.515,2.055-1.001,2.839-1.461
		c2.568-1.432,5.528-2.648,8.88-3.649c2.325-0.702,5.42-1.42,9.287-2.148c0.341-0.066,0.686-0.126,1.034-0.183l0.729-0.122
		c0.249-0.036,0.499-0.07,0.751-0.101c0.304-0.049,0.608-0.098,0.912-0.143l2.859-0.365c1.55-0.15,3.159-0.266,4.825-0.344
		c3.029-0.163,6.758-0.203,11.192-0.122c7.542,0.162,14.382-0.148,20.519-0.934c9.651-1.27,19.492-3.784,29.521-7.542l2.636-0.974
		c-0.838-0.46-1.459-0.796-1.865-1.014c-0.676-0.406-1.203-0.784-1.581-1.135c-3.056-2.542-5.65-4.84-7.785-6.895
		c-3.083-2.893-4.813-6.285-5.191-10.178c-0.026-0.054-0.067-0.108-0.122-0.162c-0.027-0.108-0.067-0.176-0.122-0.203
		c-1.514,1.244-2.339,1.92-2.474,2.027c-0.973,0.729-1.906,1.326-2.797,1.784c0.053-0.323,0.094-0.526,0.12-0.608l0.447-0.81
		c1.351-2.38,2.446-4.557,3.285-6.529c1.027-2.38,1.797-4.691,2.311-6.936c0.595-2.541,0.433-4.865-0.486-6.974
		c-0.188,0.514-0.433,1.284-0.729,2.312c-0.271,0.893-0.541,1.621-0.812,2.188c-0.785,1.542-1.852,2.853-3.204,3.935
		c-1.27,0.973-2.783,1.757-4.541,2.352c-1.703,0.622-3.501,1.041-5.395,1.257c-1.729,0.189-3.595,0.243-5.595,0.163
		c-1.217-0.027-2.84-0.122-4.866-0.283c-2.433-0.136-4.083-0.245-4.948-0.325c-0.838-0.026-1.474,0.068-1.905,0.283
		c-1.649,0.757-3.637,1.704-5.96,2.838c-2.623,1.271-4.597,2.204-5.921,2.799c-0.271,0.136-0.433,0.284-0.486,0.446
		c-0.055,0.162-0.027,0.393,0.08,0.689c0.541,1.649,0.433,3.177-0.324,4.582c-0.893,1.676-1.838,3.056-2.838,4.137
		c-1.109,1.162-2.446,2.258-4.015,3.285c-1.244,0.783-2.771,1.608-4.583,2.474c-0.054,0.025-0.108,0.052-0.161,0.081
		c-4.47,2.094-9.255,3.675-14.355,4.744c-4.677,1-9.746,1.595-15.207,1.784c-1.704,0.026-3.879,0.026-6.529,0
		c-0.326-0.013-0.645-0.025-0.954-0.041c-0.297-0.014-0.588-0.026-0.871-0.04v0.02c1.19,2.964,1.812,5.282,1.865,6.955
		c0.163,2.569-0.635,4.055-2.393,4.461c-0.243,0.08-0.459,0.108-0.648,0.08c-0.217-0.053-0.419-0.136-0.608-0.242L81.65,208.317z
		 M233.375,99.153c0.352-0.784,0.811-1.622,1.379-2.514c0.378-0.649,0.918-1.446,1.621-2.393c0.433-0.622,1.001-1.095,1.703-1.419
		c0.677-0.27,1.434-0.406,2.271-0.406c0.243,0,0.514,0.081,0.811,0.244c0.271,0.108,0.514,0.27,0.73,0.486
		c3.027,2.676,5.528,5.786,7.502,9.327c0.486,0.892,0.702,1.771,0.647,2.636c-0.026,0.892-0.336,1.744-0.932,2.555
		c-1.622,2.136-3.137,3.866-4.542,5.19c-1.622,1.487-3.258,2.717-4.907,3.69c-1.864,1.055-3.784,1.784-5.758,2.19
		c-0.298,0.053-0.5,0.095-0.607,0.121c-1.136,0.108-1.961-0.068-2.474-0.527c-0.487-0.487-0.717-1.311-0.69-2.474
		c0.217-3.46,0.515-6.272,0.894-8.435C231.536,104.316,232.319,101.559,233.375,99.153z M140.836,73.118
		c-5.245-0.108-10.058,0.082-14.436,0.568c-5.029,0.568-9.733,1.555-14.113,2.96c-2.326,0.73-4.258,1.473-5.799,2.23
		c-2.027,1-3.757,2.149-5.19,3.447c-0.514,0.459-1.027,1.041-1.542,1.744c-0.296,0.405-0.744,1.054-1.337,1.946
		c-0.244,0.406-0.284,0.797-0.122,1.177c0.107,0.351,0.392,0.689,0.851,1.013c0.542-1.108,1.353-2.027,2.434-2.757
		c0.784-0.514,1.879-1.041,3.285-1.582c0.622-0.243,1.311-0.46,2.068-0.649c3.893-1.108,8.069-1.771,12.53-1.987
		c3.839-0.244,8.083-0.163,12.733,0.243c0.757,0.081,1.677,0.203,2.758,0.365c0.595,0.108,1.514,0.284,2.757,0.527
		c-0.188-3.623,0.973-6.664,3.488-9.124L140.836,73.118z M140.836,101.91l6.325-1.906c-0.486-0.487-1.473-0.514-2.96-0.081
		C142.715,100.383,141.592,101.045,140.836,101.91z M199.393,115.86c0.459-0.594,1.041-1.041,1.743-1.338
		c0.676-0.27,1.433-0.406,2.271-0.406c0.244,0.028,0.515,0.095,0.812,0.203c0.271,0.135,0.514,0.297,0.73,0.486
		c3,2.731,5.501,5.867,7.502,9.408c0.486,0.838,0.703,1.703,0.648,2.595c-0.054,0.892-0.352,1.717-0.893,2.474
		c-1.648,2.19-3.189,3.947-4.622,5.271c-3.353,3.109-6.88,5.069-10.584,5.88c-0.325,0.054-0.567,0.095-0.73,0.122
		c-1.135,0.108-1.945-0.068-2.433-0.527c-0.486-0.459-0.729-1.284-0.729-2.474c0.27-3.46,0.581-6.299,0.933-8.516
		c0.541-3.055,1.338-5.799,2.393-8.232C197.026,119.482,198.015,117.833,199.393,115.86z M184.43,111.602
		c0.27-3.353,0.594-6.015,0.973-7.989c0.594-2.947,1.46-5.529,2.595-7.746c0.729-1.352,1.608-2.487,2.636-3.406
		c0.812-0.649,1.622-0.959,2.433-0.933c0.866,0,1.664,0.419,2.393,1.257c2.406,2.974,4.097,5.083,5.069,6.326
		c0.812,1.082,1.217,2.149,1.217,3.204c-0.026,1.054-0.446,2.109-1.257,3.163c-3.325,4.407-7.313,7.326-11.963,8.759
		c-0.243,0.054-0.608,0.122-1.095,0.202c-1.081,0.163-1.852,0.027-2.312-0.405C184.604,113.629,184.375,112.818,184.43,111.602z
		 M157.097,122.348c-2.758,0.162-5.285,0.162-7.582,0c-2.65-0.189-5.138-0.622-7.461-1.298c0.702,0.514,1.364,0.852,1.987,1.014
		c0.432,0.108,1.729,0.364,3.892,0.77c1.595,0.297,2.879,0.582,3.853,0.852c0.973,0.27,1.919,0.243,2.838-0.081
		C155.191,123.443,156.017,123.024,157.097,122.348z M137.551,137.189l-0.041,0.447h-6.731c4.137,2.757,7.313,5.514,9.53,8.271
		c2.758,3.407,4.475,7.233,5.15,11.477c2.704-1.487,5.379-2.163,8.029-2.028c-0.406,0.406-1.027,0.987-1.865,1.744
		c-0.757,0.703-1.393,1.284-1.906,1.744c-5.704,4.569-10.192,8.029-13.463,10.38c-5.083,3.677-9.881,6.706-14.396,9.085
		c-8.434,4.38-17.707,6.854-27.818,7.421c-0.324,0.026-0.757,0.257-1.297,0.688c-1.082-0.324-1.974-1.161-2.677-2.514
		c-1.217-2.461-1.959-5.244-2.23-8.353c-1.027-11.221,1.379-20.967,7.218-29.239c3.812-5.46,8.57-9.245,14.274-11.354
		c5.895-2.135,12.247-2.298,19.059-0.486c1.243,0.325,2.785,0.757,4.623,1.297C134.01,136.095,135.524,136.568,137.551,137.189z
		 M253.447,152.559c-2.812,2.703-6.123,5.597-9.936,8.679c-0.783,0.621-1.784,1.419-3,2.393l-2.96,2.352l0.081,0.244
		c0.026,0,0.838,0.054,2.433,0.161c1,0.108,1.825,0.19,2.474,0.244c4.677,0.486,7.395,0.784,8.151,0.892
		c3.054,0.378,5.745,0.864,8.069,1.46c0.108,0.055,0.271,0.027,0.487-0.081c0.216-0.081,0.364-0.176,0.445-0.284
		c2.839-3.947,5.285-7.637,7.34-11.07c2.379-4.028,4.406-7.962,6.083-11.8c2.108-4.839,3.744-9.273,4.906-13.301
		c1.406-4.839,2.257-9.516,2.555-14.031c0.46-7.408-1.283-14.058-5.231-19.951c-1.865-2.865-4.19-5.529-6.974-7.989l-0.041,0.284
		c0.081,0.189,0.216,0.432,0.405,0.729c4.839,8.732,6.353,17.964,4.542,27.697c-0.812,4.244-2.19,8.408-4.136,12.49
		c-1.784,3.758-4.083,7.475-6.895,11.152C259.705,146.07,256.773,149.315,253.447,152.559z M63.342,141.975
		c-0.189,0.406-0.474,1-0.852,1.784c-0.351,0.729-0.608,1.365-0.77,1.906c-1.055,3.731-1.23,7.88-0.528,12.45
		c0.704,4.352,2.163,7.988,4.38,10.907c1.217,1.596,2.689,2.893,4.419,3.894l1.542-4.056c-1.892-0.541-3.258-1.784-4.096-3.73
		c-0.648-1.541-1.095-2.649-1.338-3.325c-0.459-1.244-0.756-2.366-0.892-3.366c-0.46-3.108-0.582-5.555-0.365-7.34
		c0.352-2.648,1.433-4.92,3.244-6.813l-3.487-2.554C64.031,141.298,63.612,141.38,63.342,141.975z M59.368,139.745
		c-0.73-0.163-1.312-0.298-1.744-0.406c-0.432-0.134-0.729-0.134-0.892,0c-0.135,0.163-0.189,0.459-0.162,0.892
		c0,0.19,0.013,2.406,0.041,6.651c0.027,2.649,0.095,4.853,0.203,6.61c0.135,3.135,0.852,6.23,2.149,9.285
		c-1-4-1.379-7.84-1.136-11.516c0.163-2.19,0.474-4.11,0.933-5.759c0.568-1.974,1.405-3.758,2.514-5.353
		C60.814,140.042,60.179,139.907,59.368,139.745z M103.894,144.368c-0.352,0.243-0.608,0.446-0.771,0.608
		c-2.92,2.542-5.231,5.771-6.934,9.692c-1.487,3.46-2.555,7.149-3.204,11.07c-0.568,3.569-0.771,7.408-0.608,11.516
		c0.027,0.812,0.081,1.813,0.163,3.002c0.081,0.649,0.176,1.648,0.283,3.001c1.379-0.405,3.068-0.825,5.069-1.259
		c2.244-0.458,3.933-0.822,5.068-1.093c4.109-0.893,7.407-1.894,9.895-3.002c-0.298-0.163-0.5-0.257-0.608-0.283
		c-3.947-1.136-6.894-3.42-8.84-6.854c-4.704-8.218-4.609-16.722,0.285-25.507c0.243-0.433,0.459-0.798,0.648-1.095
		C104.07,144.273,103.92,144.34,103.894,144.368z M107.3,145.057c-2.135,3.406-3.379,6.88-3.731,10.421
		c-0.324,3.568,0.257,7.204,1.744,10.908c0.919,2.217,2.189,4.001,3.812,5.354c1.677,1.406,3.717,2.298,6.124,2.676
		c0.729,0.135,1.825,0.257,3.284,0.365c0.919,0.081,1.892-0.188,2.919-0.811c1.081-0.757,1.92-1.284,2.515-1.583
		c-2.568-0.323-4.771-1.202-6.61-2.635c-1.757-1.352-3.19-3.204-4.298-5.556c-1.244-2.623-1.785-5.34-1.623-8.151
		c0.189-3.568,0.974-6.609,2.352-9.124c1.515-2.73,3.799-4.866,6.854-6.407l0.487-0.365c-1.379-0.163-2.177-0.271-2.393-0.325
		C113.788,139.068,109.977,140.813,107.3,145.057z M109.47,197.733l0.344-0.041c0.156-0.024,0.312-0.052,0.467-0.081l0.791-0.121
		c-1.297-2.487-2.487-4.204-3.569-5.15c-0.513-0.406-1.014-0.526-1.5-0.364l-2.068,6.386v0.021c0.343-0.031,0.688-0.063,1.034-0.102
		L109.47,197.733z M90.633,211.236l0.446,0.324c0.082-0.296,0.123-0.676,0.123-1.134c-0.108-1.568-0.757-3.771-1.947-6.611h0.041
		c-0.081-0.216-0.162-0.419-0.244-0.608c-0.902-0.026-1.456-0.04-1.662-0.04c-0.189,0-0.393,0.027-0.608,0.081
		c-0.243,0.109-0.419,0.216-0.527,0.325l-1.805,2.089c-0.203,0.223-0.412,0.445-0.628,0.668L90.633,211.236z M64.883,212.048
		c0.082-0.026,0.163-0.053,0.243-0.081l0.954-0.344c0.22-0.085,0.436-0.173,0.649-0.265l4.399-2.007
		c0.069-0.033,0.138-0.067,0.203-0.101c-2.568-4.057-4.704-6.747-6.407-8.07c-0.541-0.406-1-0.622-1.378-0.648
		c-0.135,0.053-0.257,0.147-0.365,0.283c-0.216,4.027,0.108,7.854,0.974,11.477C64.397,212.211,64.641,212.13,64.883,212.048z
		 M46.959,199.133c1.129-0.041,2.197,0.04,3.204,0.243c0.59,0.113,1.158,0.27,1.703,0.465c2.027,0.677,3.324,1.731,3.893,3.165
		l-8.13,2.006c-0.571,0.096-1.172,0.183-1.805,0.265c-0.027,0-0.081,0-0.163,0c-5.136,0.647-8.407,0.716-9.813,0.202
		c0.135-1.189,1.203-2.446,3.204-3.771c2.027-1.353,4.082-2.163,6.164-2.434c0.047-0.006,0.095-0.014,0.142-0.021l0.183-0.021
		c0.098-0.014,0.191-0.027,0.284-0.04C46.21,199.156,46.589,199.136,46.959,199.133z M56.976,219.591
		c-0.026-0.078-0.053-0.152-0.081-0.224v-0.02c-0.297,0.054-0.595,0.107-0.893,0.161h-0.02c-0.156,0.027-0.311,0.048-0.467,0.061
		l-2.108,0.305c-0.306,0.035-0.616,0.069-0.933,0.102l-0.385,0.041c-0.2,0.021-0.402,0.043-0.608,0.061
		c-0.264,0.02-0.528,0.04-0.792,0.062c-0.122,0.004-0.243,0.012-0.365,0.02l0.041,0.041l7.218,5.677
		c0.243-0.135,0.406-0.418,0.487-0.852C58.179,223.809,57.813,221.996,56.976,219.591z M23.642,202.843
		c-0.919-0.947-1.271-2.122-1.054-3.527c0.296-2.164,1.324-3.867,3.081-5.11c1.758-1.27,3.69-1.676,5.799-1.216
		c0.649,0.135,1.434,0.338,2.353,0.608c1,0.297,1.744,0.513,2.23,0.648L23.642,202.843z M203.935,205.924l-2.555,1.501
		c1.054,0.217,1.717,0.244,1.987,0.081C203.583,207.37,203.771,206.845,203.935,205.924z"/>
	<path fill-rule="evenodd" clip-rule="evenodd" fill="#9ACA3C" d="M127.17,192.867c-0.544,0.249-1.099,0.492-1.663,0.73
		l-2.108,0.811c-1.854,0.675-3.801,1.271-5.839,1.783c-1.19,0.295-2.394,0.565-3.609,0.812c-0.054-0.135-0.094-0.257-0.121-0.364
		c-1.595-3.217-3.109-5.381-4.542-6.488c-1.919-1.568-3.703-1.649-5.353-0.243c-0.243,0.188-0.392,0.419-0.446,0.689l-2.535,7.948
		c-0.778,0.033-1.562,0.06-2.352,0.08c-2.341,0.039-4.727,0-7.157-0.121c-1.865-0.108-3.583-0.189-5.15-0.242
		c-1.271-0.028-2.257,0.445-2.96,1.418c-0.73,1.082-1.636,2.136-2.717,3.163c-0.893,0.811-1.973,1.677-3.244,2.596l-1.723,1.237
		c-0.597,0.389-1.198,0.768-1.805,1.135v-0.021c-2.866-4.514-5.258-7.461-7.177-8.841c-1.271-0.973-2.379-1.392-3.325-1.257
		c-1.136,0.028-2.068,0.676-2.798,1.947c-0.082,0.189-0.136,0.392-0.163,0.607c-0.325,4.488,0.013,8.76,1.014,12.814
		c0.027,0.028,0.04,0.055,0.04,0.081c-1.333,0.371-2.698,0.695-4.095,0.975c-0.655,0.131-1.318,0.253-1.987,0.364
		c-1.903,0.311-3.781,0.548-5.637,0.71l-2.919,0.203c-0.326,0.004-0.651,0.011-0.973,0.019c-0.369,0.015-0.733,0.028-1.095,0.041
		c-5.516,0.107-10.828-0.46-15.937-1.703c-3.434-0.838-6.407-2.149-8.921-3.933c-1.865-1.271-3.298-2.772-4.298-4.503
		c-1.974-3.433-1.798-6.718,0.528-9.853c2.567-3.461,6.123-5.367,10.664-5.719c1.406-0.107,3.055-0.026,4.948,0.244
		c2.162,0.405,3.798,0.702,4.907,0.892c0.433,0.081,0.784,0.04,1.054-0.121c0.243-0.108,0.486-0.352,0.73-0.729
		c2.433-3.353,4.244-5.773,5.434-7.26c2.406-2.947,5.65-5.744,9.732-8.395l1.095-0.771l-0.082-0.283
		c-0.27,0.055-0.689,0.135-1.257,0.244c-0.513,0.08-0.932,0.188-1.257,0.323c-1.515,0.596-3.19,1.339-5.029,2.23
		c-0.622,0.325-0.987,0.203-1.095-0.364c-0.135-0.811-0.229-1.419-0.284-1.825c-0.081-0.73-0.081-1.339,0-1.825
		c0.432-2.298,1.325-4.514,2.677-6.649c1.135-1.839,2.689-3.771,4.664-5.8c0.243,0.595,0.622,1.447,1.135,2.555
		c0.432,0.946,0.757,1.758,0.973,2.434c0.757,2.19,1.636,4.109,2.636,5.757c1.081,1.921,2.366,3.61,3.852,5.069
		c2.217,2.136,4.556,3.69,7.016,4.664l-8.395,1.379l0.041,0.284c4.705,0.189,8.813,0.554,12.328,1.094
		c4.38,0.676,8.381,1.677,12.003,3.002c-0.865-0.947-1.892-1.785-3.082-2.515c-1-0.595-2.189-1.177-3.568-1.743
		c-2.244-0.864-4.893-1.312-7.948-1.338c0.136-0.325,0.217-0.528,0.244-0.608c4-5.678,6.461-12.166,7.38-19.466
		c1.054-8.596-1.271-15.558-6.975-20.884c-3.217-3.082-7.381-4.866-12.49-5.353l-1.865-0.162c0.567-1.379,1.27-2.569,2.108-3.569
		c0.893-1.027,1.96-1.852,3.204-2.474c1.19-0.622,2.541-1.108,4.055-1.459c1.217-0.271,2.609-0.446,4.177-0.528
		c3.73-0.27,7.245-0.229,10.543,0.122c3.623,0.406,7.042,1.163,10.259,2.271c0.406,0.163,0.757,0.297,1.054,0.405
		c-1.297,2.244-2.378,4.677-3.244,7.3c-0.784,2.352-1.419,4.934-1.905,7.745l1.014-1.5c2.433-3.839,4.447-6.894,6.042-9.165
		c2.352-3.245,4.65-6.083,6.894-8.517c3.866-4.082,8.327-6.461,13.382-7.137c2.19-0.297,4.461-0.297,6.813,0
		c2.083,0.271,4.299,0.771,6.651,1.501c4.19,1.297,8.299,3.122,12.327,5.475c3.649,2.108,7.313,4.731,10.989,7.867
		c1.054,0.838,2.623,2.108,4.705,3.812c0.297,0.217,0.649,0.378,1.054,0.487c-0.622-1.757-1.607-3.528-2.96-5.312
		c-0.703-0.919-2.04-2.447-4.015-4.583c1.136,0.622,1.771,0.973,1.907,1.054c1.107,0.623,2.729,1.501,4.865,2.636
		c1.946,1.054,3.567,1.96,4.866,2.718c4.649,2.757,8.557,6.083,11.719,9.975c0.352,0.459,0.718,0.811,1.096,1.054
		c-1.595-5.137-4.502-9.502-8.719-13.099c0.541-0.405,1.365-0.986,2.474-1.743c0.946-0.649,1.717-1.244,2.312-1.785
		c1.379-1.297,2.771-2.865,4.177-4.704c0.513-0.703,0.797-1.46,0.852-2.271c0.081-0.811-0.108-1.609-0.568-2.392
		c-0.162-0.325-0.229-0.608-0.202-0.852c0.026-0.217,0.148-0.473,0.364-0.771c4.705-6.435,5.704-13.301,3.002-20.601
		c-0.46-1.243-1.137-2.474-2.028-3.69c-0.784-1.027-1.729-2.068-2.838-3.123c-0.325-0.297-0.703-0.5-1.137-0.608
		c0.73,1.866,1.123,2.838,1.176,2.92c0.866,2,1.516,3.907,1.947,5.717c0.433,2.027,0.581,4.028,0.446,6.002
		c-0.243,2.893-0.893,5.367-1.947,7.421c-0.216,0.405-0.54,0.838-0.972,1.297c-0.515,0.514-0.866,0.892-1.056,1.135
		c-1.405-1.297-2.311-2.122-2.716-2.474c-0.703-0.648-1.446-0.973-2.231-0.973c-0.811-0.027-1.595,0.256-2.352,0.852
		c-1.487,1.108-2.555,2.677-3.204,4.704c-0.217,0.703-0.554,1.216-1.013,1.541c-0.405,0.271-0.973,0.446-1.704,0.527
		c-2.324,0.271-4.271,0.406-5.839,0.406c-2.108,0.027-4.028-0.108-5.759-0.406c-0.107-0.027-0.297-0.081-0.568-0.163
		c0.73-1.351,1.975-2.933,3.732-4.744c2.055-2.135,3.406-3.663,4.055-4.582c-1.298-0.486-2.406-0.446-3.326,0.122
		c-0.946,0.568-2.014,0.906-3.204,1.014c-0.838,0.053-1.946-0.014-3.325-0.203c-0.513-0.054-1.257-0.095-2.231-0.122
		c-1,0-1.729-0.026-2.189-0.081c1.353-1.19,2.582-2.108,3.69-2.758c1.434-0.784,2.88-1.284,4.339-1.5
		c2.649-0.406,5.568-0.149,8.76,0.77c1.323,0.406,2.5,0.649,3.527,0.73c1.243,0.136,2.46,0.068,3.649-0.203
		c-0.433-0.189-0.729-0.325-0.893-0.406c-1.595-0.729-2.798-1.27-3.608-1.622c-1.433-0.649-2.623-1.23-3.568-1.744
		c-1.108-0.541-2.015-1.243-2.718-2.109c-3.839-4.596-6.488-9.191-7.948-13.787c-0.351-1.082-0.608-2.122-0.77-3.122
		c-0.271-2.46,0.581-4.353,2.555-5.678c1.027-0.675,2.23-1.23,3.609-1.663c1-0.325,2.284-0.622,3.853-0.892
		c2.676-0.433,5.542-0.663,8.596-0.689c2.596-0.027,5.462,0.108,8.597,0.406c2.38,0.216,5.11,0.486,8.192,0.811
		c1.135,0.162,3.839,0.5,8.11,1.014c0.216,0.026,0.433,0.121,0.648,0.283c0.243,0.135,0.446,0.297,0.608,0.487
		c2.812,3.433,6.042,5.894,9.692,7.38c1.108,0.486,2.324,0.797,3.649,0.933c0.702,0.108,1.257-0.041,1.662-0.446
		c0.406-0.352,0.581-0.892,0.528-1.622c-0.136-3.217-0.421-5.988-0.853-8.313c-0.541-2.947-1.393-5.596-2.555-7.949
		c-0.541-1.162-1.324-2.271-2.352-3.325c-0.702-0.784-1.514-1.203-2.434-1.257c-1.082-0.108-2.014,0.324-2.799,1.298
		c-1.216,1.487-2.121,2.595-2.716,3.325c-1.027,1.298-1.893,2.447-2.596,3.447c-0.244,0.351-0.473,0.879-0.689,1.582
		c-0.216,0.811-0.392,1.419-0.527,1.825c-1.243-0.459-2.203-0.812-2.879-1.055c-1.163-0.432-2.163-0.784-3.001-1.054
		c-8.948-2.919-17.803-3.92-26.561-3.001c-3.704,0.351-7.015,1.257-9.936,2.717c-0.271,0.135-0.649,0.216-1.135,0.244
		c-0.244,0-0.663-0.014-1.257-0.041c-4.839-0.216-9.246-0.176-13.22,0.122c-4.677,0.351-9.042,1.054-13.098,2.108
		c-2.216,0.568-4.096,1.135-5.637,1.704c-3.055,1.135-5.474,2.284-7.258,3.446c-2.46,1.568-4.394,3.488-5.799,5.758l-0.406-1.338
		c-0.513,0.513-0.852,1.257-1.014,2.23c-0.135,0.974-0.054,1.934,0.244,2.879c0.838,2.595,2.542,4.542,5.109,5.839
		c1.027,0.486,2.312,1.082,3.853,1.784c1.758,0.784,3.068,1.365,3.933,1.744l1.46,0.649v0.365c-1.054,0.297-1.838,0.5-2.352,0.608
		c-0.893,0.243-1.649,0.379-2.271,0.406c-3.298,0.135-5.759,0.189-7.381,0.163c-2.73-0.082-5.177-0.311-7.339-0.689
		c-1.892-0.352-3.664-0.906-5.313-1.663c-1.486-0.73-2.5-1.716-3.041-2.96c-0.487-1.217-0.487-2.636,0-4.258
		c0.378-1.189,0.918-2.325,1.622-3.406c0.622-0.974,1.393-1.974,2.311-3.001c1.758-1.946,3.798-3.771,6.123-5.474
		c1.974-1.514,4.258-3.001,6.853-4.46c5.11-2.893,10.598-5.393,16.464-7.502c5.38-1.973,11.179-3.649,17.396-5.028
		c13.382-3,26.981-4.014,40.795-3.042c2.893,0.189,6.38,0.541,10.462,1.055c2.325,0.324,5.8,0.797,10.421,1.419
		c0.542,0.054,1.137,0.297,1.785,0.729c1.459,1.027,2.838,1.879,4.136,2.555c1.514,0.784,3.015,1.338,4.502,1.663
		c0.676,0.189,1.392,0.324,2.148,0.405c0.974,0.081,1.69,0.013,2.15-0.203c0.432-0.271,0.892-0.865,1.379-1.785
		c2.323,0.676,5.839,1.69,10.543,3.042c0.541,0.162,1.311,0.392,2.311,0.689c1.082,0.379,1.853,0.622,2.313,0.73
		c0.271,0.108,0.459,0.216,0.567,0.325c0.081,0.162,0.081,0.392,0,0.689c-0.324,1.298-0.055,2.567,0.811,3.812
		c3.975,5.785,9.057,9.475,15.248,11.07c0.378,0.109,0.824,0.149,1.337,0.122c0.758,0,1.34-0.203,1.745-0.608
		c0.459-0.406,0.676-0.973,0.648-1.703c0-0.622-0.04-1.379-0.122-2.271c-0.054-0.514-0.107-1.284-0.162-2.312l-0.122-1.257
		c0.46,0.135,0.758,0.244,0.893,0.324c5.407,2.514,10.138,5.164,14.193,7.948c0.702,0.487,1.243,0.96,1.622,1.42
		c6.434,8.326,9.341,17.396,8.719,27.21c-0.486,7.759-3.069,15.328-7.746,22.708c-2.135,3.407-4.677,6.731-7.623,9.976
		c-2.622,2.892-5.664,5.812-9.124,8.759c-2.352,2.001-4.326,3.649-5.921,4.948c-2.162,1.783-4.189,3.352-6.083,4.704
		c-0.595,0.458-1.42,0.782-2.474,0.973c-0.459,0.107-1.379,0.216-2.757,0.324c-0.946,0.136-2.136,0.216-3.568,0.243l-3.649,0.041
		c-0.406,0.026-0.812,0.161-1.217,0.405l1.095,0.608c2.325,1.081,4.921,2.001,7.785,2.757c2.19,0.595,4.866,1.189,8.029,1.785
		c1.568,0.271,4.326,0.757,8.272,1.459c3.488,0.596,6.232,1.082,8.232,1.46c1.081,0.189,1.676,0.298,1.785,0.324
		c0.351,0.107,0.566,0.229,0.647,0.365c0.081,0.163,0.081,0.434,0,0.812c-0.055,0.27-0.175,0.824-0.364,1.662
		c-3.108,17.005-10.381,32.347-21.817,46.026c-0.838,1-1.757,2.271-2.757,3.812c-0.595,0.892-1.459,2.23-2.596,4.015
		c-2.297,3.46-5.515,6.299-9.651,8.517c-0.027,0.054-0.311,0.176-0.852,0.363c0.325-1.568,0.974-3.487,1.946-5.758
		c1.353-3.163,2.136-5.082,2.353-5.757l-21.574,12.084l-0.202-0.163c0.919-2.946,2.284-5.854,4.096-8.719
		c1.568-2.487,3.568-5.082,6.001-7.785c-1.459-0.163-2.635,0.08-3.527,0.729c-0.622,0.46-1.365,1.055-2.23,1.783
		c-1.271,1.056-2.014,1.664-2.23,1.825c-0.378,0.298-0.635,0.514-0.77,0.649c-0.325,0.188-0.608,0.324-0.853,0.405
		c-2.813,0.92-8.826,2.866-18.045,5.839c-0.487,0.136-0.865,0.23-1.136,0.284c0.189-0.893,1.204-2.5,3.041-4.825
		c1.813-2.298,3.568-4.217,5.272-5.758c1.514-1.352,3.339-2.704,5.475-4.056c1.081-0.703,3.027-1.865,5.839-3.488
		c-1.324-0.458-2.785-0.486-4.38-0.08c-2.919,0.677-5.853,2.055-8.799,4.137c-0.433,0.297-0.879,0.432-1.339,0.404
		c-0.513,0-1.555-0.053-3.122-0.161c-1.324-0.081-2.366-0.122-3.123-0.122c-0.567,0-1.608,0.041-3.122,0.122
		c-1.352,0.081-2.46,0.121-3.326,0.121c0.189-0.108,0.325-0.202,0.406-0.283c0.162-0.055,0.298-0.122,0.405-0.203
		c6.895-5.65,14.843-8.962,23.845-9.935c1.46-0.162,3.312-0.313,5.556-0.447c3.189-0.188,5.042-0.311,5.556-0.364
		c1.108-0.081,2.338-0.271,3.689-0.567c-0.675-0.486-1.499-0.906-2.474-1.257c-0.567-0.216-1.459-0.461-2.676-0.73
		c3-5.028,5.217-8.8,6.649-11.314c2.489-4.352,4.477-8.219,5.962-11.598l-0.325-0.283c-1.134,1.027-2,1.797-2.594,2.312
		c-1.056,0.893-1.906,1.676-2.556,2.352c-0.893,0.947-1.905,2.055-3.041,3.325c-0.216,0.297-1.202,1.46-2.96,3.487
		c-0.217,0.271-0.447,0.447-0.689,0.527c-0.243,0.135-0.541,0.176-0.893,0.122c-3.461-0.46-6.637-1.434-9.529-2.92
		c-1.676-0.838-2.88-1.434-3.609-1.785c-1.325-0.702-2.475-1.378-3.446-2.026c-3.136-2.055-4.881-5.272-5.231-9.651
		c-0.026-0.378,0.189-0.852,0.648-1.42c2.271-3.135,3.596-6.487,3.975-10.057c0.324-3.082-0.068-5.799-1.177-8.15
		c-1.188-2.353-3.081-4.326-5.676-5.921c-4.516-2.729-9.788-3.799-15.816-3.203c-1.054,0.107-2.325,0.337-3.812,0.688
		c-1.676,0.406-2.934,0.69-3.771,0.853c-0.107,0.026-0.23,0.067-0.365,0.121c-0.188,0.108-0.323,0.176-0.405,0.202l-0.364,0.366
		c0.676,0.08,1.567,0.148,2.676,0.202c2.46,0.107,4.474,0.243,6.042,0.405c2.217,0.271,4.219,0.648,6.001,1.136
		c2.028,0.595,3.854,1.284,5.475,2.068c1.488,0.729,2.475,1.622,2.961,2.676c0.487,1.027,0.568,2.353,0.243,3.975
		c-0.595,3.001-2.312,5.366-5.149,7.097c-1.433,0.838-3.041,1.474-4.825,1.905c-1.515,0.379-3.231,0.608-5.15,0.689
		c-2.244,0.081-4.65,0.067-7.219-0.04c-0.406-0.027-0.878-0.095-1.419-0.203c-0.595-0.189-1.055-0.324-1.379-0.405
		c-4.001-1.081-7.542-0.947-10.624,0.405c-3.649,1.541-7.232,3.338-10.747,5.394c-1.947,1.135-4.298,2.568-7.056,4.299
		c-1.568,1.027-3.893,2.513-6.975,4.46c-0.055,0.027-0.122,0.055-0.203,0.081c-0.055,0.081-0.095,0.148-0.122,0.203
		c2.487,0.081,5.136-0.46,7.948-1.623c1.027-0.432,2.271-1.026,3.731-1.783c1.649-0.864,2.892-1.5,3.729-1.906
		c0,0.054-0.08,0.297-0.243,0.729c-0.054,0.271-0.122,0.474-0.203,0.608c-0.459,0.947-1.095,1.826-1.906,2.637
		c-0.676,0.622-1.541,1.297-2.595,2.027L127.17,192.867z M248.865,70.726l0.203-0.203c0.081-0.027,0.134-0.054,0.162-0.081
		c3.271-0.892,6.042-1.528,8.313-1.906c3-0.486,5.813-0.622,8.436-0.405c1.864,0.162,3.636,0.541,5.312,1.135
		c1.622,0.595,2.838,1.581,3.649,2.96c0.649,1.216,1.04,2.73,1.176,4.542c0.082,1.459-0.04,3.176-0.364,5.15
		c-0.352,1.919-0.838,3.73-1.46,5.434c-3.461-3.352-7.462-6.475-12.003-9.368C258.476,75.579,254.002,73.159,248.865,70.726z
		 M233.375,99.153c-1.056,2.406-1.839,5.164-2.352,8.272c-0.379,2.163-0.677,4.975-0.894,8.435c-0.026,1.163,0.203,1.987,0.69,2.474
		c0.513,0.459,1.338,0.635,2.474,0.527c0.107-0.026,0.31-0.068,0.607-0.121c1.974-0.406,3.894-1.135,5.758-2.19
		c1.649-0.973,3.285-2.203,4.907-3.69c1.405-1.324,2.92-3.054,4.542-5.19c0.596-0.811,0.905-1.663,0.932-2.555
		c0.055-0.865-0.161-1.744-0.647-2.636c-1.974-3.541-4.475-6.65-7.502-9.327c-0.217-0.216-0.46-0.378-0.73-0.486
		c-0.297-0.163-0.567-0.244-0.811-0.244c-0.838,0-1.595,0.136-2.271,0.406c-0.702,0.324-1.271,0.797-1.703,1.419
		c-0.703,0.947-1.243,1.744-1.621,2.393C234.186,97.531,233.727,98.369,233.375,99.153z M140.836,101.91
		c0.756-0.865,1.878-1.527,3.365-1.987c1.487-0.433,2.474-0.406,2.96,0.081L140.836,101.91z M140.836,73.118l0.365,0.122
		c-2.515,2.46-3.676,5.501-3.488,9.124c-1.244-0.243-2.163-0.419-2.757-0.527c-1.081-0.163-2.001-0.284-2.758-0.365
		c-4.65-0.406-8.895-0.487-12.733-0.243c-4.461,0.216-8.637,0.878-12.53,1.987c-0.757,0.189-1.446,0.406-2.068,0.649
		c-1.405,0.541-2.5,1.068-3.285,1.582c-1.081,0.73-1.892,1.649-2.434,2.757c-0.459-0.324-0.743-0.662-0.851-1.013
		c-0.163-0.379-0.123-0.771,0.122-1.177c0.594-0.892,1.041-1.541,1.337-1.946c0.514-0.703,1.027-1.285,1.542-1.744
		c1.433-1.297,3.163-2.447,5.19-3.447c1.542-0.757,3.474-1.5,5.799-2.23c4.38-1.406,9.084-2.393,14.113-2.96
		C130.779,73.2,135.591,73.01,140.836,73.118z M184.43,111.602c-0.055,1.216,0.175,2.027,0.688,2.433
		c0.46,0.432,1.23,0.567,2.312,0.405c0.486-0.081,0.852-0.148,1.095-0.202c4.65-1.433,8.638-4.353,11.963-8.759
		c0.811-1.054,1.23-2.109,1.257-3.163c0-1.055-0.405-2.122-1.217-3.204c-0.973-1.243-2.663-3.352-5.069-6.326
		c-0.729-0.838-1.526-1.257-2.393-1.257c-0.811-0.027-1.621,0.284-2.433,0.933c-1.027,0.919-1.906,2.055-2.636,3.406
		c-1.135,2.217-2.001,4.799-2.595,7.746C185.023,105.587,184.699,108.25,184.43,111.602z M199.393,115.86
		c-1.378,1.973-2.366,3.622-2.96,4.947c-1.055,2.433-1.852,5.177-2.393,8.232c-0.352,2.216-0.663,5.055-0.933,8.516
		c0,1.19,0.243,2.014,0.729,2.474c0.487,0.459,1.298,0.635,2.433,0.527c0.163-0.026,0.405-0.068,0.73-0.122
		c3.704-0.811,7.231-2.771,10.584-5.88c1.433-1.324,2.974-3.082,4.622-5.271c0.541-0.757,0.839-1.582,0.893-2.474
		c0.055-0.892-0.162-1.757-0.648-2.595c-2.001-3.542-4.502-6.677-7.502-9.408c-0.217-0.189-0.46-0.351-0.73-0.486
		c-0.297-0.108-0.567-0.175-0.812-0.203c-0.838,0-1.595,0.136-2.271,0.406C200.434,114.819,199.852,115.266,199.393,115.86z
		 M137.551,137.189c-2.027-0.621-3.542-1.095-4.542-1.419c-1.838-0.54-3.38-0.972-4.623-1.297
		c-6.812-1.812-13.165-1.649-19.059,0.486c-5.704,2.109-10.462,5.895-14.274,11.354c-5.839,8.272-8.246,18.019-7.218,29.239
		c0.271,3.108,1.014,5.892,2.23,8.353c0.703,1.353,1.595,2.189,2.677,2.514c0.54-0.432,0.973-0.662,1.297-0.688
		c10.111-0.567,19.384-3.041,27.818-7.421c4.516-2.379,9.313-5.408,14.396-9.085c3.271-2.351,7.759-5.811,13.463-10.38
		c0.513-0.46,1.149-1.041,1.906-1.744c0.838-0.757,1.459-1.338,1.865-1.744c-2.65-0.135-5.326,0.541-8.029,2.028
		c-0.676-4.244-2.393-8.07-5.15-11.477c-2.217-2.757-5.393-5.514-9.53-8.271h6.731L137.551,137.189z M130.962,211.541
		c-0.561,0.071-1.115,0.152-1.663,0.243l-0.729,0.122c-0.349,0.057-0.693,0.116-1.034,0.183c-3.866,0.729-6.961,1.446-9.287,2.148
		c-3.352,1.001-6.313,2.218-8.88,3.649c-0.784,0.46-1.73,0.946-2.839,1.461c-0.649,0.297-1.622,0.742-2.92,1.338
		c-4.163,1.919-7.88,3.461-11.152,4.622c-4.055,1.516-7.92,2.65-11.598,3.407c-8.299,1.648-16.14,1.852-23.52,0.608
		c-2.973-0.493-5.873-1.222-8.698-2.19c-1.396-0.478-2.773-1.004-4.137-1.581c-3.097-1.342-6.105-2.978-9.022-4.906l-0.729-0.487
		l-0.203-0.284c0.027,0,0.756,0.082,2.189,0.243c0.866,0.027,1.582,0.068,2.15,0.122c2.38,0.146,4.691,0.2,6.934,0.162
		c0.07-0.001,0.137-0.001,0.202,0l10.341,8.151c0.298,0.216,0.622,0.325,0.973,0.325c2.082-0.109,3.271-1.271,3.569-3.488
		c0.216-1.514-0.176-3.704-1.176-6.569c0.554-0.125,1.102-0.26,1.642-0.406l10.969-4.014c2.087-1.038,4.027-2.175,5.819-3.407
		l2.636-1.966c0.292-0.235,0.576-0.473,0.851-0.71l8.699,6.245c0.189,0.106,0.392,0.189,0.608,0.242c0.189,0.028,0.405,0,0.648-0.08
		c1.757-0.406,2.555-1.892,2.393-4.461c-0.054-1.673-0.675-3.991-1.865-6.955c0.281,0.01,0.572,0.017,0.871,0.021
		c0.309,0.016,0.627,0.028,0.954,0.041c2.649,0.026,4.825,0.026,6.529,0c5.461-0.189,10.53-0.784,15.207-1.784
		c5.101-1.069,9.886-2.65,14.355-4.744c0.053-0.029,0.107-0.056,0.161-0.081c1.812-0.865,3.339-1.69,4.583-2.474
		c1.568-1.027,2.906-2.123,4.015-3.285c1-1.081,1.946-2.461,2.838-4.137c0.757-1.405,0.865-2.933,0.324-4.582
		c-0.107-0.297-0.135-0.527-0.08-0.689c0.053-0.162,0.216-0.311,0.486-0.446c1.325-0.595,3.299-1.527,5.921-2.799
		c2.324-1.134,4.311-2.081,5.96-2.838c0.432-0.215,1.067-0.31,1.905-0.283c0.865,0.08,2.516,0.189,4.948,0.325
		c2.026,0.161,3.649,0.256,4.866,0.283c2,0.08,3.865,0.026,5.595-0.163c1.894-0.216,3.691-0.635,5.395-1.257
		c1.758-0.595,3.271-1.379,4.541-2.352c1.353-1.082,2.419-2.393,3.204-3.935c0.271-0.567,0.541-1.296,0.812-2.188
		c0.297-1.027,0.541-1.798,0.729-2.312c0.919,2.108,1.081,4.433,0.486,6.974c-0.514,2.244-1.283,4.556-2.311,6.936
		c-0.839,1.973-1.935,4.149-3.285,6.529l-0.447,0.81c-0.026,0.082-0.067,0.285-0.12,0.608c0.891-0.458,1.824-1.055,2.797-1.784
		c0.135-0.107,0.96-0.783,2.474-2.027c0.055,0.027,0.095,0.095,0.122,0.203c0.055,0.054,0.096,0.108,0.122,0.162
		c0.378,3.893,2.108,7.285,5.191,10.178c2.135,2.055,4.729,4.353,7.785,6.895c0.378,0.351,0.905,0.729,1.581,1.135
		c0.406,0.218,1.027,0.554,1.865,1.014l-2.636,0.974c-10.029,3.758-19.87,6.272-29.521,7.542
		c-6.137,0.785-12.977,1.096-20.519,0.934c-4.434-0.081-8.164-0.041-11.192,0.122c-1.667,0.078-3.275,0.193-4.825,0.344
		L130.962,211.541z M253.447,152.559c3.326-3.244,6.258-6.488,8.8-9.732c2.812-3.677,5.11-7.394,6.895-11.152
		c1.945-4.082,3.324-8.246,4.136-12.49c1.811-9.732,0.297-18.965-4.542-27.697c-0.189-0.297-0.324-0.541-0.405-0.729l0.041-0.284
		c2.783,2.46,5.108,5.124,6.974,7.989c3.948,5.894,5.691,12.543,5.231,19.951c-0.298,4.515-1.148,9.191-2.555,14.031
		c-1.162,4.028-2.798,8.462-4.906,13.301c-1.677,3.838-3.704,7.772-6.083,11.8c-2.055,3.434-4.501,7.123-7.34,11.07
		c-0.081,0.108-0.229,0.203-0.445,0.284c-0.216,0.108-0.379,0.136-0.487,0.081c-2.324-0.596-5.016-1.082-8.069-1.46
		c-0.757-0.107-3.475-0.405-8.151-0.892c-0.648-0.054-1.474-0.136-2.474-0.244c-1.595-0.107-2.406-0.161-2.433-0.161l-0.081-0.244
		l2.96-2.352c1.216-0.974,2.217-1.771,3-2.393C247.324,158.155,250.636,155.262,253.447,152.559z M109.47,197.733
		c0.271-0.039,0.541-0.079,0.811-0.122c-0.155,0.029-0.311,0.057-0.467,0.081L109.47,197.733z M91.201,210.427
		c0,0.458-0.041,0.838-0.123,1.134l-0.446-0.324L91.201,210.427z M64.883,212.048c0.625-0.22,1.239-0.45,1.846-0.689
		c-0.213,0.092-0.429,0.18-0.649,0.265l-0.954,0.344C65.045,211.995,64.964,212.021,64.883,212.048z M46.959,199.133
		c-0.371,0.003-0.75,0.023-1.136,0.061c-0.092,0.013-0.186,0.026-0.284,0.04l-0.183,0.021c-0.046,0.007-0.094,0.015-0.142,0.021
		c-2.082,0.271-4.136,1.081-6.164,2.434c-2,1.324-3.068,2.581-3.204,3.771c1.406,0.514,4.677,0.445,9.813-0.202
		c0.082,0,0.136,0,0.163,0c0.632-0.082,1.234-0.169,1.805-0.265l8.13-2.006c-0.568-1.434-1.865-2.488-3.893-3.165
		c-0.545-0.195-1.113-0.352-1.703-0.465C49.157,199.173,48.088,199.092,46.959,199.133z M56.976,219.591l-0.974-0.082
		c0.3-0.048,0.597-0.095,0.893-0.142C56.922,219.438,56.949,219.513,56.976,219.591z M23.642,202.843l12.409-8.597
		c-0.486-0.136-1.23-0.352-2.23-0.648c-0.919-0.271-1.703-0.474-2.353-0.608c-2.108-0.46-4.041-0.054-5.799,1.216
		c-1.757,1.243-2.785,2.946-3.081,5.11C22.371,200.721,22.723,201.896,23.642,202.843z"/>
	<path fill-rule="evenodd" clip-rule="evenodd" fill="#FFFFFF" d="M107.3,145.057c2.677-4.245,6.488-5.989,11.436-5.232
		c0.216,0.054,1.014,0.163,2.393,0.325l-0.487,0.365c-3.055,1.541-5.339,3.676-6.854,6.407c-1.378,2.515-2.162,5.556-2.352,9.124
		c-0.162,2.812,0.378,5.528,1.623,8.151c1.108,2.352,2.541,4.204,4.298,5.556c1.839,1.433,4.042,2.312,6.61,2.635
		c-0.595,0.299-1.434,0.826-2.515,1.583c-1.027,0.622-2,0.892-2.919,0.811c-1.459-0.108-2.555-0.23-3.284-0.365
		c-2.407-0.378-4.447-1.27-6.124-2.676c-1.622-1.353-2.893-3.137-3.812-5.354c-1.487-3.704-2.068-7.34-1.744-10.908
		C103.92,151.938,105.165,148.463,107.3,145.057z M103.894,144.368c0.026-0.028,0.176-0.094,0.446-0.203
		c-0.189,0.297-0.406,0.662-0.648,1.095c-4.894,8.785-4.989,17.289-0.285,25.507c1.947,3.434,4.893,5.718,8.84,6.854
		c0.108,0.026,0.311,0.12,0.608,0.283c-2.488,1.108-5.786,2.109-9.895,3.002c-1.136,0.271-2.825,0.635-5.068,1.093
		c-2.001,0.434-3.69,0.854-5.069,1.259c-0.107-1.353-0.203-2.352-0.283-3.001c-0.082-1.189-0.136-2.19-0.163-3.002
		c-0.163-4.107,0.041-7.946,0.608-11.516c0.649-3.921,1.716-7.61,3.204-11.07c1.703-3.921,4.014-7.151,6.934-9.692
		C103.286,144.814,103.542,144.611,103.894,144.368z M59.368,139.745c0.812,0.163,1.446,0.298,1.906,0.406
		c-1.109,1.595-1.946,3.378-2.514,5.353c-0.459,1.649-0.771,3.569-0.933,5.759c-0.243,3.676,0.135,7.516,1.136,11.516
		c-1.297-3.055-2.014-6.15-2.149-9.285c-0.107-1.758-0.176-3.961-0.203-6.61c-0.027-4.245-0.041-6.46-0.041-6.651
		c-0.027-0.433,0.027-0.729,0.162-0.892c0.163-0.134,0.459-0.134,0.892,0C58.056,139.447,58.638,139.582,59.368,139.745z
		 M63.342,141.975c0.27-0.595,0.689-0.677,1.257-0.243l3.487,2.554c-1.811,1.893-2.893,4.164-3.244,6.813
		c-0.216,1.785-0.095,4.231,0.365,7.34c0.135,1,0.433,2.122,0.892,3.366c0.243,0.676,0.69,1.784,1.338,3.325
		c0.838,1.946,2.204,3.189,4.096,3.73l-1.542,4.056c-1.73-1.001-3.203-2.298-4.419-3.894c-2.217-2.919-3.677-6.556-4.38-10.907
		c-0.703-4.57-0.527-8.719,0.528-12.45c0.162-0.541,0.419-1.176,0.77-1.906C62.869,142.975,63.153,142.381,63.342,141.975z
		 M110.281,197.611c-0.27,0.043-0.541,0.083-0.811,0.122l-4.502,0.547c-0.345,0.038-0.69,0.07-1.034,0.102v-0.021l2.068-6.386
		c0.486-0.162,0.987-0.042,1.5,0.364c1.082,0.946,2.271,2.663,3.569,5.15L110.281,197.611z M91.201,210.427l-0.568,0.81
		l-6.812-4.906c0.216-0.223,0.425-0.445,0.628-0.668l1.805-2.089c0.108-0.109,0.284-0.216,0.527-0.325
		c0.216-0.054,0.419-0.081,0.608-0.081c0.207,0,0.76,0.014,1.662,0.04c0.082,0.189,0.163,0.393,0.244,0.608h-0.041
		C90.444,206.655,91.093,208.858,91.201,210.427z M66.729,211.358c-0.606,0.239-1.221,0.47-1.846,0.689
		c-0.242,0.082-0.485,0.163-0.729,0.244c-0.866-3.623-1.189-7.449-0.974-11.477c0.108-0.136,0.23-0.23,0.365-0.283
		c0.379,0.026,0.838,0.242,1.378,0.648c1.704,1.323,3.839,4.014,6.407,8.07c-0.065,0.033-0.133,0.067-0.203,0.101L66.729,211.358z
		 M56.002,219.509l0.974,0.082c0.838,2.405,1.203,4.218,1.095,5.434c-0.081,0.434-0.244,0.717-0.487,0.852l-7.218-5.677
		l-0.041-0.041c0.122-0.008,0.243-0.016,0.365-0.02c0.264-0.021,0.528-0.042,0.792-0.062c0.206-0.018,0.408-0.039,0.608-0.061
		l0.385-0.041c0.317-0.032,0.627-0.066,0.933-0.102l2.108-0.305c0.156-0.013,0.311-0.033,0.467-0.061H56.002z"/>
</g>
</svg>
