<?xml version="1.0" encoding="utf-8"?>
<!-- Generator: Adobe Illustrator 16.0.0, SVG Export Plug-In . SVG Version: 6.00 Build 0)  -->
<!DOCTYPE svg PUBLIC "-//W3C//DTD SVG 1.1//EN" "http://www.w3.org/Graphics/SVG/1.1/DTD/svg11.dtd">
<svg version="1.1" id="Layer_1" xmlns="http://www.w3.org/2000/svg" xmlns:xlink="http://www.w3.org/1999/xlink" x="0px" y="0px"
	 width="300px" height="300px" viewBox="0 0 300 300" enable-background="new 0 0 300 300" xml:space="preserve">
<g>
	<path fill-rule="evenodd" clip-rule="evenodd" fill="#F15B2F" d="M55.719,68.304c-0.112-1.473,0.177-3.058,0.867-4.755
		c0.746-1.884,1.968-3.077,3.665-3.582c1.66-0.466,5.865-0.857,12.615-1.174c9.492-0.411,16.616-1.296,21.371-2.658
		c4.699-1.38,8.597-3.693,11.692-6.937c3.002-3.17,5.24-7.049,6.713-11.637c1.473-4.643,2.322-10.498,2.546-17.566l0.363-9.259
		l61.652,0.476l5.9,1.511c7.759,2.032,14.687,4.829,20.783,8.391c6.154,3.543,12.198,8.308,18.128,14.293
		c4.941,4.942,8.998,10.136,12.168,15.581c3.207,5.483,5.677,11.451,7.413,17.903c1.081,4.008,1.836,8,2.265,11.971
		c0.392,3.972,0.718,10.304,0.979,18.993c0.224,7.218,0.439,11.852,0.644,13.903c0.187,2.051,0.626,4.177,1.316,6.378
		c1.043,3.188,2.32,5.883,3.83,8.083c1.512,2.164,4.178,5.212,8,9.146c5.632,5.764,8.543,9.8,8.729,12.113
		c0.167,1.36-0.337,2.639-1.511,3.831c-0.987,1.083-2.741,2.388-5.259,3.917c-4.084,2.479-6.788,4.681-8.112,6.602
		c-1.305,1.939-1.809,4.456-1.51,7.553c0.242,2.611,0.475,4.438,0.699,5.481c0.167,0.747,0.093,1.361-0.225,1.847
		c-0.354,0.541-1.24,1.492-2.657,2.854c-0.931,0.802-1.706,1.613-2.322,2.434c-0.652,0.839-0.979,1.398-0.979,1.679
		c0,0.298,0.168,0.764,0.505,1.397c0.353,0.616,0.764,1.194,1.23,1.734c0.503,0.504,0.923,1.045,1.257,1.623
		c0.356,0.578,0.533,0.961,0.533,1.146c0,0.896-0.328,1.818-0.979,2.769c-0.691,0.971-1.595,1.865-2.714,2.687
		c-1.361,0.914-2.443,2.145-3.245,3.693c-0.821,1.547-1.249,3.132-1.286,4.755c0,0.578,0.176,1.464,0.531,2.656
		c0.334,1.156,0.755,2.294,1.259,3.413c0.819,1.66,1.305,2.9,1.454,3.721c0.188,0.839,0.205,1.901,0.056,3.188
		c-0.354,2.929-1.333,4.896-2.937,5.903c-1.622,0.95-4.682,1.445-9.175,1.481c-3.507,0.057-7.572,0.29-12.196,0.699
		c-4.605,0.429-8.243,0.914-10.909,1.456c-2.929,0.614-5.818,1.659-8.671,3.132c-2.854,1.511-5.092,3.17-6.714,4.979
		c-2.853,3.133-4.96,6.956-6.321,11.47c-1.418,4.512-2.247,10.162-2.489,16.949c-0.074,2.48-0.188,4.662-0.336,6.547
		c-0.169,1.809-0.308,2.76-0.421,2.854c-0.298,0.186-10.005,0.26-29.118,0.224c-12.121-0.038-20.206-0.131-24.253-0.28
		c-4.176-0.131-7.365-0.382-9.566-0.755c-7.944-1.511-15.282-4.02-22.014-7.525c-6.676-3.524-13.082-8.241-19.217-14.154
		c-5.091-4.886-9.138-9.65-12.14-14.293c-3.095-4.662-5.706-10.061-7.832-16.195c-1.548-4.364-2.648-9.018-3.301-13.96
		c-0.652-4.903-1.119-11.991-1.398-21.259c-0.262-8.839-0.606-14.573-1.035-17.203c-0.429-2.628-1.51-5.677-3.245-9.146
		c-1.231-2.311-4.01-5.725-8.336-10.237c-3.86-3.991-6.443-6.909-7.748-8.756c-1.361-1.883-2.061-3.543-2.098-4.979
		c-0.038-1.306,0.466-2.564,1.51-3.776c1.044-1.194,2.723-2.443,5.035-3.748c4.439-2.518,7.394-5.128,8.868-7.833
		c1.417-2.686,1.585-5.958,0.503-9.818c-0.447-1.585-0.485-2.863-0.112-3.832c0.354-0.97,1.287-1.996,2.797-3.077
		c1.771-1.268,2.75-2.368,2.937-3.301c0.205-0.914-0.298-2.201-1.511-3.86c-1.193-1.661-1.688-2.994-1.482-4
		c0.224-1.044,1.258-2.303,3.104-3.776c1.51-1.268,2.695-2.694,3.552-4.279c0.84-1.585,1.278-3.17,1.315-4.755
		c0-0.542-0.187-1.371-0.56-2.49c-0.317-1.156-0.727-2.238-1.23-3.245C56.372,71.493,55.831,69.72,55.719,68.304z M102.908,108.249
		c-0.541,0.578-1.156,1.211-1.846,1.902c-1.623,1.473-2.583,2.825-2.882,4.055c-0.354,1.287-0.298,3.375,0.168,6.266
		c0.578,3.674,0.289,6.509-0.867,8.503c-1.193,2.052-3.823,4.179-7.888,6.378c-1.082,0.578-2.238,1.315-3.468,2.211
		c-1.231,0.838-2.136,1.585-2.714,2.237c-0.97,0.933-1.594,1.744-1.874,2.434c-0.299,0.615-0.503,1.623-0.615,3.021
		c-0.205,2.275,0.373,4.513,1.734,6.714c1.38,2.237,4.308,5.716,8.784,10.435c3.096,3.244,5.277,5.677,6.545,7.3
		c1.25,1.604,2.35,3.394,3.301,5.371c1.79,3.636,2.909,7.029,3.357,10.181c0.503,3.134,0.755,8.867,0.755,17.203
		c0.037,11.581,0.773,20.942,2.209,28.085c1.473,7.142,4.14,14.48,8,22.015c1.193,2.312,3.18,5.417,5.958,9.314
		c2.779,3.935,4.839,6.545,6.182,7.832l1.399,1.259l0.056-7.47c0.038-4.549,0.382-8.465,1.035-11.747
		c0.671-3.282,1.771-6.563,3.301-9.847c2.088-4.289,4.643-7.59,7.664-9.902c3.002-2.35,6.778-3.935,11.329-4.755
		c1.286-0.187,3.701-0.457,7.245-0.812c3.562-0.298,7.188-0.567,10.881-0.811c6.099-0.392,10.014-0.699,11.749-0.923
		c1.752-0.226,3.317-0.69,4.698-1.399c2.555-1.23,4.354-2.844,5.399-4.84c1.043-2.014,1.463-4.605,1.259-7.775
		c-0.112-1.623-0.308-2.872-0.588-3.748c-0.299-0.933-0.812-1.978-1.539-3.133c-0.745-1.082-1.212-1.931-1.399-2.546
		c-0.186-0.615-0.223-1.296-0.11-2.042c0.336-1.585,0.876-2.957,1.623-4.111c0.727-1.157,1.827-2.368,3.299-3.637
		c1.772-1.511,2.946-3.021,3.526-4.531c0.576-1.454,0.596-2.975,0.055-4.56c-0.187-0.578-0.438-1.138-0.756-1.68
		c-0.297-0.54-0.568-0.912-0.812-1.118c-0.727-0.615-0.94-1.286-0.642-2.014c0.315-0.727,1.193-1.733,2.629-3.022
		c0.989-0.876,1.565-1.388,1.734-1.537c0.411-0.503,0.681-1.091,0.812-1.762c0.149-0.878,0.083-4.076-0.195-9.595
		c-0.076-1.978-0.028-3.292,0.14-3.944c0.148-0.616,0.643-1.465,1.482-2.546c0.503-0.616,1.472-1.464,2.909-2.545
		c1.473-1.118,2.992-2.146,4.558-3.077c3.283-1.958,5.566-3.692,6.855-5.203c1.267-1.548,1.881-3.264,1.845-5.146
		c0-1.977-0.652-4.01-1.958-6.099c-1.324-2.088-3.645-4.848-6.964-8.279c-4.01-4.196-6.825-7.32-8.448-9.372
		c-2.126-2.704-3.673-5.37-4.644-7.999c-0.951-2.593-1.622-5.912-2.014-9.959c-0.28-3.077-0.514-8.232-0.699-15.469
		c-0.226-10.069-0.589-17.109-1.091-21.119c-0.504-4.065-1.622-8.857-3.357-14.378c-1.696-5.462-3.748-10.376-6.153-14.741
		c-2.388-4.438-5.53-9.034-9.428-13.791c-2.312-2.816-3.533-4.223-3.664-4.223c-0.111,0-0.167,2.582-0.167,7.747
		c0,4.755-0.309,8.69-0.925,11.805c-0.614,3.132-1.714,6.302-3.3,9.51c-1.66,3.32-3.318,5.902-4.979,7.749
		c-1.884,2.088-4.159,3.71-6.826,4.867c-4.717,2.089-13.389,3.422-26.014,4c-2.816,0.149-5.576,0.345-8.28,0.587
		c-2.574,0.224-4.233,0.41-4.979,0.56c-1.734,0.466-3.356,1.323-4.867,2.573c-1.529,1.23-2.648,2.62-3.357,4.169
		c-0.951,2.162-1.278,4.727-0.979,7.692c0.354,3.001,1.221,5.276,2.602,6.825c1.119,1.23,1.314,3.011,0.587,5.343
		c-0.727,2.349-2.116,4.354-4.167,6.014c-4.476,3.674-5.465,7.356-2.965,11.049c1.007,1.436,1.51,2.387,1.51,2.854
		C103.663,107.25,103.411,107.632,102.908,108.249z"/>
	<path fill-rule="evenodd" clip-rule="evenodd" fill="#FFFFFF" d="M102.908,108.249c0.503-0.616,0.755-0.999,0.755-1.147
		c0-0.466-0.503-1.418-1.51-2.854c-2.5-3.693-1.511-7.375,2.965-11.049c2.051-1.659,3.44-3.665,4.167-6.014
		c0.728-2.332,0.532-4.112-0.587-5.343c-1.38-1.549-2.248-3.824-2.602-6.825c-0.299-2.965,0.028-5.53,0.979-7.692
		c0.709-1.549,1.828-2.938,3.357-4.169c1.51-1.25,3.133-2.106,4.867-2.573c0.746-0.15,2.406-0.335,4.979-0.56
		c2.704-0.243,5.464-0.438,8.28-0.587c12.625-0.578,21.297-1.911,26.014-4c2.667-1.156,4.942-2.779,6.826-4.867
		c1.66-1.847,3.318-4.429,4.979-7.749c1.586-3.208,2.686-6.378,3.3-9.51c0.616-3.115,0.925-7.05,0.925-11.805
		c0-5.165,0.056-7.747,0.167-7.747c0.131,0,1.353,1.407,3.664,4.223c3.897,4.756,7.04,9.352,9.428,13.791
		c2.405,4.364,4.457,9.278,6.153,14.741c1.735,5.521,2.854,10.313,3.357,14.378c0.502,4.01,0.865,11.049,1.091,21.119
		c0.186,7.236,0.419,12.392,0.699,15.469c0.392,4.047,1.063,7.366,2.014,9.959c0.971,2.629,2.518,5.295,4.644,7.999
		c1.623,2.052,4.438,5.176,8.448,9.372c3.319,3.432,5.64,6.191,6.964,8.279c1.306,2.089,1.958,4.122,1.958,6.099
		c0.036,1.883-0.578,3.599-1.845,5.146c-1.289,1.511-3.572,3.245-6.855,5.203c-1.565,0.932-3.085,1.959-4.558,3.077
		c-1.438,1.081-2.406,1.929-2.909,2.545c-0.84,1.081-1.334,1.93-1.482,2.546c-0.168,0.652-0.216,1.967-0.14,3.944
		c0.278,5.519,0.345,8.717,0.195,9.595c-0.131,0.671-0.4,1.259-0.812,1.762c-0.169,0.149-0.745,0.661-1.734,1.537
		c-1.436,1.289-2.313,2.296-2.629,3.022c-0.299,0.728-0.085,1.398,0.642,2.014c0.243,0.206,0.515,0.578,0.812,1.118
		c0.318,0.542,0.569,1.102,0.756,1.68c0.541,1.585,0.521,3.105-0.055,4.56c-0.58,1.511-1.754,3.021-3.526,4.531
		c-1.472,1.269-2.572,2.479-3.299,3.637c-0.747,1.154-1.287,2.526-1.623,4.111c-0.112,0.746-0.075,1.427,0.11,2.042
		c0.188,0.615,0.654,1.464,1.399,2.546c0.728,1.155,1.24,2.2,1.539,3.133c0.28,0.876,0.476,2.125,0.588,3.748
		c0.204,3.17-0.216,5.762-1.259,7.775c-1.045,1.996-2.845,3.609-5.399,4.84c-1.381,0.709-2.946,1.174-4.698,1.399
		c-1.735,0.224-5.65,0.531-11.749,0.923c-3.692,0.243-7.319,0.513-10.881,0.811c-3.544,0.354-5.959,0.625-7.245,0.812
		c-4.551,0.82-8.327,2.405-11.329,4.755c-3.021,2.313-5.576,5.613-7.664,9.902c-1.529,3.283-2.63,6.564-3.301,9.847
		c-0.653,3.282-0.998,7.198-1.035,11.747l-0.056,7.47l-1.399-1.259c-1.342-1.287-3.402-3.897-6.182-7.832
		c-2.778-3.897-4.765-7.003-5.958-9.314c-3.86-7.534-6.527-14.873-8-22.015c-1.436-7.143-2.172-16.504-2.209-28.085
		c0-8.336-0.252-14.069-0.755-17.203c-0.448-3.151-1.567-6.545-3.357-10.181c-0.951-1.978-2.051-3.768-3.301-5.371
		c-1.268-1.623-3.45-4.056-6.545-7.3c-4.476-4.719-7.404-8.197-8.784-10.435c-1.361-2.201-1.939-4.438-1.734-6.714
		c0.112-1.397,0.316-2.405,0.615-3.021c0.28-0.689,0.904-1.501,1.874-2.434c0.578-0.652,1.482-1.399,2.714-2.237
		c1.23-0.896,2.387-1.633,3.468-2.211c4.065-2.199,6.695-4.326,7.888-6.378c1.156-1.994,1.445-4.829,0.867-8.503
		c-0.466-2.891-0.522-4.979-0.168-6.266c0.299-1.23,1.259-2.582,2.882-4.055C101.752,109.46,102.367,108.827,102.908,108.249z"/>
</g>
</svg>
