<svg width="99.15px" height="80.65px" viewBox="0 0 99.15 80.65" xmlns="http://www.w3.org/2000/svg" xmlns:xlink="http://www.w3.org/1999/xlink">
  <defs/>
  <g>
    <path stroke="none" fill="#222321" d="M32.8 0.1 Q36.9 -0.6 40.45 2.65 44 5.95 44.95 11.25 45.9 16.6 43.65 20.85 41.45 25.15 37.35 25.85 33.25 26.6 29.65 23.35 26.1 20.1 25.15 14.75 24.2 9.4 26.45 5.1 28.7 0.8 32.8 0.1 M98.5 25.7 Q99.95 30.3 98.1 35.4 96.25 40.5 92.2 43.1 88.1 45.7 84.2 44.25 80.25 42.85 78.8 38.25 77.35 33.65 79.2 28.55 81.1 23.45 85.15 20.85 89.2 18.3 93.15 19.7 97.05 21.15 98.5 25.7 M66.35 0.1 Q70.45 0.8 72.7 5.1 74.95 9.4 74 14.75 73.05 20.1 69.5 23.35 65.9 26.6 61.8 25.85 57.7 25.15 55.5 20.85 53.25 16.6 54.2 11.25 55.15 5.95 58.7 2.65 62.25 -0.6 66.35 0.1 M19.95 28.55 Q21.8 33.65 20.35 38.25 18.9 42.85 14.95 44.25 11.05 45.7 6.95 43.1 2.9 40.5 1.05 35.4 -0.8 30.3 0.65 25.7 2.1 21.15 6 19.7 9.95 18.3 14 20.85 18.05 23.45 19.95 28.55 M49.55 30.2 Q63.2 30.2 73.6 43.05 83.55 55.35 83.55 69.95 83.55 76.55 80.9 79 78.65 81 73.6 80.55 L62.8 78.6 Q55 77.1 49.55 77.1 44.1 77.1 36.35 78.6 L25.55 80.55 Q20.5 81 18.25 79 15.6 76.55 15.6 69.95 15.6 55.35 25.55 43.05 35.95 30.2 49.55 30.2"/>
    <path stroke="none" fill="#ffffff" d="M65.7 56.65 L67.1 56.45 Q67.8 56.6 68.2 57.25 L68.7 58.05 69.5 57.6 Q70.15 57.2 70.9 57.4 71.6 57.55 72 58.2 72.4 58.9 72.2 59.6 72 60.35 71.35 60.7 L67.4 63.05 65.1 59.1 Q64.7 58.45 64.9 57.75 65.05 57.05 65.7 56.65 M53.75 53.7 Q54.2 54.4 54 55.25 L52.75 60.35 47.7 59.05 Q46.85 58.85 46.4 58.1 45.95 57.4 46.15 56.55 46.4 55.75 47.1 55.3 47.85 54.85 48.7 55.05 L49.7 55.3 50 54.25 Q50.2 53.45 50.95 53 51.65 52.55 52.5 52.75 53.3 53 53.75 53.7 M65.35 43.3 Q66.65 43.65 67.3 44.8 68 45.95 67.65 47.2 67.3 48.5 66.15 49.15 L59.25 53.3 55.1 46.35 Q54.45 45.25 54.75 43.95 55.1 42.65 56.2 41.95 57.35 41.3 58.65 41.6 59.95 41.95 60.6 43.1 L61.45 44.5 62.9 43.65 Q64.05 42.95 65.35 43.3"/>
  </g>
</svg>