<?xml version="1.0" encoding="utf-8"?>
<!-- Generator: Adobe Illustrator 16.0.0, SVG Export Plug-In . SVG Version: 6.00 Build 0)  -->
<!DOCTYPE svg PUBLIC "-//W3C//DTD SVG 1.1//EN" "http://www.w3.org/Graphics/SVG/1.1/DTD/svg11.dtd">
<svg version="1.1" id="Layer_1" xmlns="http://www.w3.org/2000/svg" xmlns:xlink="http://www.w3.org/1999/xlink" x="0px" y="0px"
	 width="400px" height="400px" viewBox="0 0 400 400" enable-background="new 0 0 400 400" xml:space="preserve">
<g>
	<path fill-rule="evenodd" clip-rule="evenodd" fill="#F0E7D5" d="M279.457,132.272l18.644,4.946l-4.947,18.644l16.869,9.639
		l-9.765,16.869l13.696,13.569l-13.696,13.699l9.765,16.994l-16.869,9.639l0.128,0.507c-30.354,7.104-61.427,10.654-93.218,10.654
		c-35.681,0-70.388-4.438-104.125-13.316l-13.443-7.483l9.766-16.741l-13.698-13.824l13.698-13.696L82.496,165.5l16.741-9.639
		l-4.947-18.644l18.644-4.946v-19.405h19.404l4.947-18.77l18.771,5.073l9.765-16.868l16.742,9.766l13.569-13.825l13.699,13.825
		l16.867-9.766l9.512,16.741l18.771-4.947l4.947,18.77h19.53V132.272z M135.636,291.059c6.256,0.931,12.555,1.692,18.896,2.283
		l-17.122,4.565L135.636,291.059z M182.562,300.063l-16.742,9.767l-9.257-16.235c14.288,1.354,28.789,2.03,43.5,2.03
		c12.007,0,23.928-0.466,35.767-1.396l-9.133,15.602l-16.867-9.767l-13.444,13.571L182.562,300.063z M254.979,297.907l-15.219-4.059
		c5.58-0.422,11.16-1.015,16.741-1.774L254.979,297.907z M54.086,241.85c-11.499-4.058-22.998-8.793-34.496-14.204l-2.41-1.015
		l22.195-12.429l-10.02-26.126l3.043,1.395c10.823,5.243,22.829,10.316,36.02,15.22c5.411,1.944,11.032,3.805,16.867,5.581
		l0.508,0.507l-1.269,2.029c-5.749-1.775-11.415-3.677-16.994-5.707c-10.738-3.804-21.813-8.371-33.228-13.698l8.37,22.068
		l-19.53,10.906c10.992,4.905,21.519,9.216,31.579,12.937L54.086,241.85z M64.106,231.449l-9.639,33.229
		c17.839,6.087,35.596,10.95,53.267,14.586c5.919,1.184,11.837,2.282,17.756,3.297c2.79,0.423,5.538,0.846,8.244,1.27
		c21.645,3.296,43.755,4.944,66.33,4.944c19.7,0,39.189-1.268,58.467-3.804c5.327-0.677,10.696-1.479,16.107-2.41
		c3.296-0.592,6.638-1.183,10.02-1.775c20.207-3.806,40.499-9.174,60.877-16.107l-9.512-33.229
		c-10.908,3.806-21.942,7.104-33.103,9.894c-0.846,0.253-1.69,0.507-2.536,0.761c-0.085,0-0.169,0-0.255,0
		c-1.69,0.423-3.382,0.847-5.072,1.27c-8.285,1.944-16.697,3.634-25.238,5.071c-22.829,3.89-46.079,5.834-69.755,5.834
		c-23.843,0-47.096-1.944-69.754-5.834c-11.076-1.944-21.898-4.227-32.468-6.849c-1.69-0.421-3.424-0.887-5.199-1.395
		C83.003,237.58,73.492,234.664,64.106,231.449z M63.598,228.407c8.54,3.042,17.207,5.791,25.999,8.243
		c2.96,0.762,5.919,1.522,8.878,2.283c10.569,2.621,21.307,4.86,32.214,6.722c22.661,3.889,45.784,5.834,69.374,5.834
		c23.59,0,46.715-1.945,69.375-5.834c8.369-1.354,16.656-3.002,24.858-4.946c1.69-0.424,3.381-0.804,5.071-1.142
		c0.085-0.084,0.169-0.126,0.255-0.126c0.846-0.17,1.732-0.382,2.663-0.635c11.584-2.959,22.998-6.427,34.243-10.399l1.396-0.508
		l10.906,38.428l-1.143,0.509c-20.713,7.187-41.725,12.766-63.031,16.741c-1.86,0.338-3.721,0.675-5.58,1.014
		c-1.354,0.254-2.705,0.465-4.06,0.635c-3.889,0.676-7.778,1.268-11.668,1.775c-1.86,0.339-3.719,0.634-5.58,0.887
		c-18.939,2.368-38.176,3.553-57.706,3.553c-22.236,0-44.093-1.564-65.569-4.693c-1.861-0.254-3.722-0.55-5.581-0.888
		c-1.268-0.17-2.537-0.38-3.805-0.634c-1.352-0.17-2.705-0.381-4.057-0.635c-4.482-0.76-8.92-1.606-13.318-2.537
		c-18.686-3.889-37.118-8.962-55.296-15.218l-1.141-0.509l10.907-38.428L63.598,228.407z M370.646,188.076l-9.893,26.126
		l22.194,12.429l-2.411,1.015c-11.414,5.327-22.912,10.062-34.497,14.204l-0.634-2.536c9.978-3.721,20.504-8.031,31.581-12.937
		l-19.532-10.906l8.371-22.068c-11.161,5.158-22.235,9.724-33.229,13.698c-7.779,2.79-15.599,5.326-23.463,7.61l-1.396-2.41
		c8.456-2.453,16.445-4.989,23.971-7.609c13.358-4.903,25.364-9.977,36.019-15.22L370.646,188.076z"/>
	<path fill-rule="evenodd" clip-rule="evenodd" fill="#D5303F" d="M64.106,231.449c9.386,3.215,18.897,6.131,28.536,8.752
		c1.775,0.508,3.509,0.974,5.199,1.395c10.569,2.622,21.392,4.904,32.468,6.849c22.659,3.89,45.912,5.834,69.754,5.834
		c23.676,0,46.926-1.944,69.755-5.834c8.541-1.438,16.953-3.127,25.238-5.071c1.69-0.423,3.382-0.847,5.072-1.27
		c0.086,0,0.17,0,0.255,0c0.846-0.254,1.69-0.508,2.536-0.761c11.16-2.789,22.194-6.088,33.103-9.894l9.512,33.229
		c-20.378,6.934-40.67,12.302-60.877,16.107c-3.382,0.593-6.724,1.184-10.02,1.775c-5.411,0.931-10.78,1.733-16.107,2.41
		c-19.277,2.536-38.767,3.804-58.467,3.804c-22.575,0-44.685-1.648-66.33-4.944c-2.706-0.424-5.454-0.847-8.244-1.27
		c-5.918-1.015-11.837-2.113-17.756-3.297c-17.67-3.636-35.427-8.499-53.267-14.586L64.106,231.449z M73.492,227.52
		c0.676,0.253,1.352,0.464,2.029,0.634c6.763,2.198,13.57,4.186,20.418,5.961c33.737,8.878,68.444,13.316,104.125,13.316
		c31.791,0,62.863-3.551,93.218-10.654c5.58-1.268,11.118-2.662,16.614-4.185c1.268-0.422,2.578-0.804,3.933-1.143
		c9.046-2.619,17.966-5.537,26.76-8.75l13.19,46.292c-29.932,10.653-60.455,18.136-91.569,22.449
		c-1.86,0.169-3.763,0.38-5.707,0.634c-5.581,0.76-11.161,1.353-16.741,1.774c-1.354,0.085-2.663,0.213-3.931,0.38
		c-11.839,0.931-23.759,1.396-35.767,1.396c-14.712,0-29.212-0.676-43.5-2.03c-0.763-0.084-1.438-0.168-2.031-0.253
		c-6.341-0.591-12.64-1.353-18.896-2.283c-1.861-0.253-3.72-0.507-5.581-0.76c-28.494-4.397-56.396-11.5-83.705-21.308
		l13.063-46.292L73.492,227.52z M89.597,236.65c-8.792-2.452-17.459-5.201-25.999-8.243l-1.395-0.508l-10.907,38.428l1.141,0.509
		c18.178,6.256,36.61,11.329,55.296,15.218c4.398,0.931,8.836,1.777,13.318,2.537c1.352,0.254,2.705,0.465,4.057,0.635
		c1.268,0.254,2.537,0.464,3.805,0.634c1.859,0.338,3.72,0.634,5.581,0.888c21.476,3.129,43.333,4.693,65.569,4.693
		c19.53,0,38.767-1.185,57.706-3.553c1.861-0.253,3.72-0.548,5.58-0.887c3.89-0.508,7.779-1.1,11.668-1.775
		c1.354-0.17,2.706-0.381,4.06-0.635c1.859-0.339,3.72-0.676,5.58-1.014c21.307-3.976,42.318-9.555,63.031-16.741l1.143-0.509
		l-10.906-38.428l-1.396,0.508c-11.245,3.973-22.659,7.44-34.243,10.399c-0.931,0.253-1.817,0.465-2.663,0.635
		c-0.086,0-0.17,0.042-0.255,0.126c-1.69,0.338-3.381,0.718-5.071,1.142c-8.202,1.944-16.489,3.593-24.858,4.946
		c-22.66,3.889-45.785,5.834-69.375,5.834c-23.59,0-46.713-1.945-69.374-5.834c-10.907-1.861-21.645-4.101-32.214-6.722
		C95.517,238.173,92.557,237.412,89.597,236.65z"/>
	<path fill-rule="evenodd" clip-rule="evenodd" fill="#9D1D20" d="M80.974,218.895l-5.453,9.259
		c-0.677-0.254-1.353-0.464-2.029-0.634l-14.079-4.82L80.974,218.895z M310.022,232.466l7.103-4.059l-6.469-11.034l29.932,5.326
		c-8.794,3.213-17.714,6.131-26.76,8.75C312.56,231.788,311.291,232.127,310.022,232.466z"/>
	<path fill-rule="evenodd" clip-rule="evenodd" fill="#C33048" d="M378.255,179.706l-12.429,32.72l25.872,14.333
		c-14.457,7.186-29.297,13.526-44.515,19.023l-1.144-3.933c11.585-4.143,23.083-8.877,34.497-14.204l2.411-1.015l-22.194-12.429
		l9.893-26.126l-2.918,1.395c-10.654,5.243-22.66,10.316-36.019,15.22c-7.525,2.621-15.515,5.157-23.971,7.609l-1.016-1.776
		l2.918-2.917C333.146,200.59,356.018,191.289,378.255,179.706z M84.524,212.807l-3.55,6.088l-21.561,3.805l-4.693,16.614
		c-10.06-3.721-20.587-8.031-31.579-12.937l19.53-10.906l-8.37-22.068c11.415,5.327,22.49,9.894,33.228,13.698
		C73.109,209.129,78.775,211.031,84.524,212.807z M78.944,204.056l6.341,6.215c-5.834-1.775-11.456-3.636-16.867-5.581
		c-13.191-4.903-25.197-9.977-36.02-15.22l-3.043-1.395l10.02,26.126L17.18,226.631l2.41,1.015
		c11.498,5.411,22.998,10.146,34.496,14.204l-1.268,4.06c-15.22-5.581-30.057-11.965-44.516-19.15l26-14.333l-12.557-32.72
		C40.347,189.429,59.413,197.545,78.944,204.056z M357.455,215.471l19.532,10.906c-11.077,4.905-21.604,9.216-31.581,12.937
		l-4.818-16.614l-29.932-5.326l-1.521-2.663c7.864-2.284,15.684-4.82,23.463-7.61c10.993-3.974,22.067-8.54,33.229-13.698
		L357.455,215.471z"/>
	<path fill-rule="evenodd" clip-rule="evenodd" fill="#383D43" d="M284.657,128.341l19.784,5.2l-5.199,19.784l17.883,10.273
		l-10.401,18.009l14.586,14.331l-14.586,14.586l10.401,17.883l-7.229,4.185c-5.496,1.522-11.034,2.917-16.614,4.185l-0.128-0.507
		l16.869-9.639l-9.765-16.994l13.696-13.699l-13.696-13.569l9.765-16.869l-16.869-9.639l4.947-18.644l-18.644-4.946v-19.405h-19.53
		l-4.947-18.77l-18.771,4.947l-9.512-16.741l-16.867,9.766l-13.699-13.825l-13.569,13.825l-16.742-9.766l-9.765,16.868
		l-18.771-5.073l-4.947,18.77h-19.404v19.405l-18.644,4.946l4.947,18.644L82.496,165.5l9.766,16.869l-13.698,13.696l13.698,13.824
		l-9.766,16.741l13.443,7.483c-6.848-1.775-13.655-3.763-20.418-5.961l10.272-17.375l-14.712-14.712l14.712-14.458l-10.399-18.009
		l17.755-10.273l-5.201-19.784l19.785-5.2v-20.673h20.546l5.327-19.912l19.912,5.327l10.4-17.882L181.8,85.473l14.331-14.458
		l14.586,14.458L228.6,75.201l10.146,17.755l20.038-5.201l5.199,19.912h20.674V128.341z M137.411,297.907l17.122-4.565
		c0.593,0.085,1.268,0.169,2.031,0.253l9.257,16.235l16.742-9.767l13.824,13.571l13.444-13.571l16.867,9.767l9.133-15.602
		c1.268-0.167,2.577-0.295,3.931-0.38l15.219,4.059l1.522-5.833c1.944-0.254,3.847-0.465,5.707-0.634l-3.425,12.935L239,299.049
		l-10.4,17.756l-17.883-10.145l-14.331,14.457L181.8,306.66l-17.882,10.145l-10.4-17.883l-19.784,5.453l-3.679-14.076
		c1.861,0.253,3.72,0.507,5.581,0.76L137.411,297.907z"/>
</g>
</svg>
