<?xml version="1.0" encoding="utf-8"?>
<!-- Generator: Adobe Illustrator 16.0.0, SVG Export Plug-In . SVG Version: 6.00 Build 0)  -->
<!DOCTYPE svg PUBLIC "-//W3C//DTD SVG 1.1//EN" "http://www.w3.org/Graphics/SVG/1.1/DTD/svg11.dtd">
<svg version="1.1" id="Layer_1" xmlns="http://www.w3.org/2000/svg" xmlns:xlink="http://www.w3.org/1999/xlink" x="0px" y="0px"
	 width="400px" height="400px" viewBox="0 0 400 400" enable-background="new 0 0 400 400" xml:space="preserve">
<g>
	<path fill-rule="evenodd" clip-rule="evenodd" fill="#3E3F41" d="M209.309,84.111l-12.236-24.346l-43.085,87.314l-5.481,0.891
		l-0.127-0.383l-2.041,0.256l0.384,0.381l-9.944,1.406l-0.382-0.386l-1.785,0.386l0.383,0.379l-12.109,1.66l-0.638-0.383
		l-1.53,0.383l0.255,0.381l-16.316,2.167l-0.383-0.127l-1.784,0.127l0.382,0.381l-22.18,3.059l-0.637-0.127l-1.146,0.127
		l0.382,0.256l-21.543,3.057l43.468,42.575c-1.02,0.168-1.999,0.342-2.933,0.51L52.905,160.08l99.681-14.404l44.486-90.374
		l44.613,90.374l99.68,14.404c-8.413,8.245-16.868,16.531-25.365,24.856l-18.482,17.974c-0.935-0.253-1.913-0.469-2.933-0.637
		l42.192-41.301l-27.533-3.824l0.51-0.381l-1.021-0.127l-0.509,0.381l-22.817-3.313l0.382-0.383l-1.655-0.254l-0.384,0.254
		l-16.316-2.419l0.256-0.129l-1.783-0.381l-0.384,0.381l-12.363-1.914l0.254-0.381l-1.783-0.127l-0.13,0.381l-10.323-1.528
		l0.255-0.383l-0.892-0.127l-0.384-0.892l-0.256,0.381l-4.587-9.177l0.253-0.383l-1.018-1.656l-0.128,0.381l-5.48-11.345v-0.381
		l-0.767-1.657l-0.126,0.383l-7.267-14.915v-0.381l-0.765-1.401v0.381L209.82,85.258v-0.767l-0.512-0.891V84.111z M305.421,204.695
		l48.438-47.547l-108.22-15.803l-48.566-97.898l-48.311,97.898L40.414,157.148l50.095,48.821c-4.844,1.274-9.645,2.55-14.404,3.825
		l-59.527-57.998l124.792-18.101L197.073,20.63l55.831,113.066l124.79,18.101l-57.614,56.338
		C315.233,206.86,310.349,205.715,305.421,204.695z M114.09,262.183l-13.766,79.157l96.748-50.73l97.002,50.73
		c-0.511-2.804-1.02-5.564-1.53-8.286l-0.382-2.292c-0.084-0.596-0.126-1.148-0.126-1.658c-3.23-18.015-6.374-35.944-9.433-53.792
		l-2.55-15.041c3.823,0.764,7.648,1.616,11.472,2.549c0.339,2.212,0.679,4.504,1.019,6.885l0.383,1.528
		c0,0.425,0.042,0.894,0.128,1.403l2.805,15.677h-0.128l1.019,6.631h0.256l11.727,69.214l-111.661-58.763L85.538,364.157l17.08-99.3
		v-0.126C106.273,263.713,110.098,262.861,114.09,262.183z M122.12,260.271l-1.657,10.325h-0.126l-0.382,2.04h0.127l-3.313,19.122
		h-0.129l-5.736,33.268l86.169-45.25l86.294,45.25l-3.823-22.563l0.253,0.256l-0.253-1.146l-0.128-0.127l-3.951-22.309l0.256,0.255
		l-3.697-20.522c0.765,0.085,1.487,0.212,2.166,0.384l12.112,70.233l-89.229-46.781l-89.1,46.781l11.982-68.705
		C120.635,260.526,121.356,260.355,122.12,260.271z"/>
	<path fill-rule="evenodd" clip-rule="evenodd" fill="#D5303F" d="M221.418,199.597c-6.713-0.427-13.511-0.637-20.394-0.637
		c-9.347,0-18.652,0.341-27.916,1.02c-1.955,0-3.909,0.083-5.863,0.254c-0.68,0-1.36,0.083-2.039,0.254
		c-3.145,0.088-6.289,0.341-9.434,0.767l-3.823,0.38c-0.34,0-0.68,0.042-1.021,0.127c-2.464,0.256-4.972,0.552-7.521,0.894h-0.126
		c-0.936,0-1.744,0.127-2.423,0.38c-6.033,0.596-11.938,1.447-17.716,2.549c-2.55,0.426-5.014,0.852-7.395,1.274
		c-0.169,0-0.295,0-0.382,0c-0.68,0.173-1.317,0.3-1.912,0.383c-18.441,3.909-37.349,8.924-56.723,15.044
		c-0.68,0.169-1.401,0.422-2.167,0.765c-1.104,0.254-2.208,0.637-3.314,1.146c-1.954,0.597-3.908,1.233-5.863,1.912
		c-1.105,0.422-2.125,0.809-3.059,1.145c-0.169,0-0.341,0.042-0.511,0.13l-1.912,0.764l37.222,37.476l0.765-0.383
		c15.295-4.756,30.762-8.626,46.397-11.6c7.818-1.442,15.721-2.717,23.709-3.823c2.634-0.341,5.31-0.637,8.03-0.893
		c1.104-0.169,2.293-0.296,3.569-0.382l2.676-0.256c1.87-0.168,3.782-0.339,5.736-0.508c1.19-0.088,2.465-0.13,3.825-0.13
		c2.804-0.253,5.693-0.422,8.668-0.507c0.68-0.174,1.487-0.257,2.422-0.257c0.85,0,1.743,0,2.677,0
		c0.596-0.086,1.276-0.127,2.04-0.127c0.85,0,1.742,0,2.676,0c0.594,0,1.233,0,1.912,0c0.851-0.168,1.786-0.254,2.805-0.254
		c0.425,0,1.02,0,1.785,0c0.68,0,1.488,0,2.422,0c0.595,0,1.189,0,1.785,0h0.127c1.021,0,1.999,0,2.932,0c0.764,0,1.529,0,2.295,0
		c0.85,0,1.741,0.086,2.676,0.254c0.852,0,1.743,0,2.678,0c0.932,0,1.871,0.041,2.803,0.127c1.273,0,2.507,0,3.697,0
		c1.105,0,2.209,0.083,3.313,0.257c1.529,0,3.103,0.041,4.716,0.127v0.127c1.189,0,2.338,0.083,3.443,0.253l-0.256-0.253
		c2.464,0.168,4.886,0.383,7.266,0.637v0.128c1.273,0,2.591,0.126,3.95,0.382v-0.256c4.167,0.425,8.329,0.935,12.494,1.53
		c1.443,0.086,2.889,0.255,4.332,0.511c1.445,0.254,2.889,0.466,4.334,0.638c6.884,0.935,13.81,2.124,20.779,3.566
		c13.935,2.891,27.788,6.461,41.554,10.708l0.764,0.383l37.222-37.476l-1.659-0.764c-1.188-0.425-2.42-0.853-3.693-1.274
		c-2.637-0.936-5.313-1.826-8.031-2.679c-20.31-6.967-40.961-12.406-61.949-16.315c-1.445-0.339-2.891-0.637-4.334-0.893
		c-2.466-0.422-4.846-0.806-7.14-1.145c-8.668-1.445-17.42-2.591-26.259-3.443c-2.547-0.422-5.099-0.679-7.646-0.764
		c-3.315-0.427-6.588-0.682-9.816-0.765C228.216,199.851,224.818,199.68,221.418,199.597z M216.831,201.762
		c0.253-0.085,0.509-0.085,0.765,0c2.633,0,5.31,0.129,8.028,0.383c1.955,0,4.037,0.128,6.247,0.383
		c13.426,0.85,26.852,2.293,40.28,4.332c0.509,0.173,1.018,0.3,1.529,0.383c2.21,0.254,4.462,0.638,6.756,1.15
		c0.767,0,1.487,0.126,2.168,0.381c0.423,0,0.807,0.041,1.146,0.128c20.904,3.823,41.598,9.134,62.077,15.933
		c1.105,0.423,2.166,0.807,3.187,1.146c0.425,0.087,0.808,0.215,1.147,0.384c1.531,0.426,3.017,0.978,4.462,1.656
		c0.595,0.255,1.189,0.509,1.785,0.765c0.509,0.085,0.932,0.213,1.273,0.381l-33.523,33.525c-1.276-0.341-2.55-0.721-3.825-1.147
		c-1.869-0.595-3.737-1.147-5.608-1.655c-0.423-0.088-0.893-0.215-1.401-0.384c-10.198-2.891-20.438-5.31-30.719-7.266
		c-8.755-1.869-17.551-3.399-26.387-4.59c-0.595-0.17-1.19-0.253-1.785-0.253c-16.316-2.21-32.633-3.357-48.947-3.44
		c-0.68,0-1.19,0-1.53,0c-0.255,0-0.466,0-0.638,0c-0.68,0-1.444,0-2.293,0c-0.084,0-0.212,0-0.382,0c-0.595,0-1.147,0-1.656,0
		c-2.296,0-4.548,0.041-6.758,0.127h-1.528c-0.935,0-1.827,0-2.677,0c-0.68,0-1.233,0.083-1.658,0.254c-1.019,0-1.954,0-2.804,0
		c-0.68,0-1.36,0.042-2.039,0.127c-0.935,0-1.913,0.085-2.932,0.256c-0.68,0-1.445,0-2.295,0c-1.021,0-1.997,0.042-2.932,0.127
		c-1.104,0.169-2.209,0.255-3.313,0.255c-1.105,0.085-2.168,0.212-3.188,0.383c-0.935,0-1.912,0.041-2.931,0.127l-1.659,0.257
		c-1.189,0.083-2.42,0.168-3.695,0.253l-3.442,0.384c-1.19,0.169-2.336,0.295-3.442,0.381c-1.359,0.257-2.718,0.425-4.079,0.511
		c-0.509,0-1.019,0.083-1.529,0.253c-3.91,0.426-7.818,1.021-11.727,1.785c-1.53,0.169-3.06,0.425-4.589,0.765
		c-1.87,0.256-3.739,0.637-5.608,1.146l-39.26,9.308c-0.68,0.085-1.233,0.254-1.658,0.51c-0.596,0.169-1.147,0.296-1.657,0.381
		c-1.275,0.427-2.507,0.807-3.695,1.147l-33.525-33.525c23.285-8.582,47.079-15.208,71.382-19.883
		c3.145-0.596,6.289-1.149,9.434-1.658c3.06-0.51,6.246-0.977,9.56-1.403c2.634-0.422,5.354-0.806,8.159-1.145
		c1.104-0.171,2.166-0.299,3.186-0.383c1.615-0.255,3.23-0.469,4.844-0.638c2.974-0.341,5.906-0.637,8.795-0.89
		c1.359-0.088,2.762-0.171,4.208-0.257c2.463-0.253,4.97-0.469,7.52-0.637h0.255c9.773-0.596,19.545-0.892,29.318-0.892
		C206.291,201.381,211.561,201.508,216.831,201.762z M178.844,193.349c7.309-0.422,14.701-0.637,22.18-0.637
		c2.465,0,4.972,0.084,7.521,0.256c1.189,0,2.421,0,3.697,0c0.255,0,0.467,0,0.637,0c1.529,0,3.018,0.044,4.462,0.127
		c0.51,0,1.104,0,1.784,0c1.615,0,3.229,0.084,4.844,0.253c1.191,0,2.465,0.044,3.823,0.127c1.7,0.173,3.399,0.3,5.099,0.383h0.255
		c2.552,0.085,5.1,0.254,7.65,0.511c1.953,0.171,3.907,0.38,5.862,0.637l14.15,1.655c0.679,0.088,1.359,0.214,2.038,0.386h0.256
		c1.613,0.083,3.355,0.295,5.225,0.637c4.759,0.593,9.519,1.358,14.278,2.295c3.907,0.679,7.901,1.442,11.98,2.293
		c1.02,0.168,1.998,0.383,2.933,0.637c2.55,0.425,5.183,1.021,7.903,1.785c4.928,1.02,9.813,2.165,14.658,3.44
		c17.846,4.76,35.521,10.625,53.026,17.592l-46.652,46.909l-28.427-8.158c-2.124-0.594-4.29-1.148-6.5-1.658
		c-3.823-0.933-7.648-1.785-11.472-2.549c-1.956-0.339-3.909-0.679-5.865-1.018c-0.679-0.172-1.401-0.299-2.166-0.384
		c-0.765-0.168-1.445-0.295-2.04-0.383c-1.274-0.255-2.55-0.426-3.823-0.509c-4.335-0.766-8.627-1.447-12.875-2.041
		c-1.443-0.253-2.889-0.466-4.335-0.639c-1.273-0.084-2.463-0.211-3.569-0.379c-1.699-0.085-3.312-0.215-4.841-0.386
		c-1.615-0.169-3.23-0.337-4.844-0.51c-1.105-0.083-2.168-0.127-3.188-0.127c-2.124-0.255-4.292-0.466-6.5-0.638
		c-1.104-0.083-2.166-0.127-3.187-0.127c-1.701-0.083-3.357-0.127-4.972-0.127c-0.851-0.169-1.698-0.256-2.55-0.256
		c-1.36,0-2.636,0-3.823,0c-1.02-0.083-1.87-0.083-2.55,0c-1.274-0.083-2.38-0.127-3.314-0.127c-1.019,0-1.954,0-2.804,0
		c-0.595,0-1.19,0-1.785,0c-0.339,0-0.723,0-1.147,0c-0.85,0-1.658,0-2.422,0c-0.935,0-1.827,0-2.677,0
		c-0.85,0-1.7,0.044-2.55,0.127h-0.254c-0.85,0-1.7,0-2.549,0c-0.851,0-1.7,0.087-2.549,0.256c-1.021,0-1.999,0-2.933,0
		c-0.849,0-1.7,0.044-2.55,0.127c-1.275,0-2.421,0.044-3.44,0.127c-0.85,0-1.743,0.086-2.678,0.256
		c-1.443,0-2.847,0.044-4.205,0.127c-0.936,0-1.828,0.086-2.677,0.255c-1.7,0.085-3.441,0.259-5.227,0.512
		c-0.935,0-1.912,0.042-2.931,0.125c-2.38,0.259-4.802,0.596-7.266,1.023c-1.104,0-2.167,0.127-3.187,0.38
		c-1.189,0.086-2.421,0.171-3.697,0.257c-2.379,0.422-4.802,0.806-7.266,1.147c-1.19,0.168-2.38,0.381-3.568,0.637
		c-4.334,0.68-8.712,1.443-13.131,2.293c-0.764,0.085-1.485,0.256-2.166,0.511c-2.125,0.424-4.079,0.892-5.864,1.401
		c-2.549,0.427-5.099,0.979-7.647,1.657c-1.276,0.17-2.55,0.469-3.825,0.892c-2.293,0.596-4.63,1.191-7.01,1.786l-0.127,0.127
		c-6.714,1.785-13.385,3.78-20.014,5.991l-46.525-46.909c4.418-1.784,8.88-3.483,13.385-5.098
		c11.132-3.994,22.392-7.607,33.778-10.834c4.76-1.275,9.561-2.551,14.404-3.825c2.465-0.594,5.057-1.231,7.776-1.913
		c0.934-0.167,1.913-0.341,2.933-0.51c4.758-1.019,9.602-1.997,14.53-2.93c3.145-0.595,6.289-1.147,9.434-1.657
		c1.784-0.342,3.568-0.638,5.354-0.892c0.594-0.087,1.231-0.129,1.912-0.129c3.738-0.595,7.647-1.145,11.727-1.655
		c1.784-0.258,3.654-0.427,5.608-0.512c0.424-0.168,0.85-0.254,1.274-0.254c1.019-0.085,2.083-0.212,3.188-0.383
		c0.765-0.083,1.445-0.127,2.04-0.127h0.127c1.615-0.168,3.271-0.297,4.972-0.383c0.934-0.169,1.954-0.296,3.059-0.382
		c1.529-0.17,3.059-0.297,4.588-0.383c0.51,0,1.021,0,1.529,0c1.36-0.083,2.677-0.21,3.952-0.383c0.169,0,0.382,0,0.637,0
		C176.336,193.393,177.569,193.349,178.844,193.349z"/>
	<path fill-rule="evenodd" clip-rule="evenodd" fill="#C33048" d="M100.961,275.565l-2.167,12.237
		c-12.576,3.571-25.068,7.736-37.474,12.492l-0.511-29.954l-26.387-5.609c7.904-3.313,15.977-6.458,24.219-9.434l17.081,17.338
		L100.961,275.565z M97.137,297.362c-15.042,4.251-29.785,9.52-44.232,15.806l-0.509-35.817L7.4,267.792
		c14.531-7.224,29.359-13.596,44.486-19.12l4.716,4.843c-9.009,3.145-17.888,6.629-26.641,10.453l-3.442,1.656l31.995,6.756
		l0.256,31.613l1.912-0.765c12.321-4.929,24.898-9.137,37.729-12.619L97.137,297.362z M350.161,248.672
		c15.041,5.524,29.828,11.896,44.358,19.12l-44.742,9.559l-0.764,35.817c-16.91-7.39-34.331-13.467-52.263-18.225h-0.126
		l-1.147-6.631h0.255c13.512,3.486,26.896,7.734,40.152,12.746c0.595,0.259,1.147,0.514,1.657,0.767
		c1.359,0.426,2.721,0.894,4.078,1.403l1.529,0.765l0.384-31.613l31.994-6.756l-3.313-1.656
		c-8.839-3.824-17.761-7.309-26.769-10.453L350.161,248.672z M343.533,255.298c8.071,2.807,16.103,5.951,24.093,9.434l-26.387,5.609
		l-0.384,29.954c-15.041-5.862-30.293-10.707-45.762-14.531l-1.655-9.304h0.256l32.63-3.824L343.533,255.298z"/>
	<path fill-rule="evenodd" clip-rule="evenodd" fill="#AC1F25" d="M100.835,275.565l-25.368-2.93
		c6.628-2.38,13.13-4.418,19.503-6.118c2.805-0.767,5.566-1.445,8.285-2.04L100.835,275.565z M292.545,269.704
		c-0.34-2.381-0.68-4.673-1.019-6.885c2.21,0.51,4.376,1.064,6.5,1.658l28.427,8.158l-32.633,3.824h-0.126l-0.639-3.824
		c-0.086-0.51-0.128-0.979-0.128-1.403L292.545,269.704z"/>
	<path fill-rule="evenodd" clip-rule="evenodd" fill="#FFFFFF" d="M193.631,67.029l1.401,120.969l14.276-104.396l0.512,0.891
		l-12.111,103.887l22.307-82.725l0.765,1.401l-20.14,82.09l27.532-67.178l0.767,1.657l-25.75,66.539l31.23-54.812l0.128-0.381
		l1.018,1.656l-29.699,54.812l34.289-45.632l0.384,0.892l0.892,0.127l-32.887,45.889v0.256l43.085-44.615l1.783,0.127
		l-41.172,44.488c-1.276,0-2.508,0-3.697,0c-2.549-0.172-5.056-0.256-7.521-0.256c-7.479,0-14.872,0.214-22.18,0.637
		c-1.274,0-2.507,0.044-3.696,0.127l-40.535-43.845l1.785-0.386l42.446,44.104l-32.504-45.505l2.041-0.256l32.631,43.85
		l-25.494-47.29l0.893-1.912l27.151,47.927l-22.179-57.742l0.891-1.912l24.092,58.636l-17.718-71.639l1.021-1.655l19.503,72.527
		l-10.58-90.884l0.764-1.275l12.62,91.777l1.528-120.585L193.631,67.029z M267.689,150.776l-50.35,42.193v0.127
		c-1.444-0.083-2.847-0.127-4.207-0.127l52.773-42.574L267.689,150.776z M219.124,193.096l65.01-40.025l1.655,0.254l-0.382,0.383
		l-61.439,39.641C222.353,193.18,220.739,193.096,219.124,193.096z M216.831,201.762c-5.27-0.254-10.54-0.381-15.807-0.381
		c-9.773,0-19.545,0.296-29.318,0.892h-0.255c-2.55,0.168-5.056,0.383-7.52,0.637c-1.445,0.086-2.848,0.169-4.208,0.257
		c-2.89,0.253-5.821,0.549-8.795,0.89c-1.614,0.169-3.229,0.383-4.844,0.638c-1.021,0.084-2.083,0.212-3.186,0.383
		c-2.805,0.339-5.524,0.723-8.159,1.145c-3.313,0.427-6.5,0.893-9.56,1.403c-27.533,4.675-54.471,11.854-80.815,21.541
		l33.525,33.525c1.188-0.341,2.42-0.721,3.695-1.147c0.51-0.085,1.062-0.212,1.657-0.381c0.425-0.256,0.978-0.425,1.658-0.51
		l39.26-9.308c1.869-0.422,3.738-0.806,5.608-1.146c1.53-0.34,3.06-0.596,4.589-0.765c3.908-0.764,7.817-1.359,11.727-1.785
		c0.51-0.17,1.021-0.253,1.529-0.253c1.36-0.086,2.72-0.254,4.079-0.511v0.257c1.106-0.257,2.252-0.469,3.442-0.638l3.442-0.384
		c1.274-0.085,2.506-0.17,3.695-0.253l1.659-0.257c1.019,0,1.996-0.044,2.931-0.127c1.02-0.171,2.082-0.298,3.188-0.383v0.128
		c1.104-0.086,2.124-0.128,3.058-0.128l0.255-0.255c0.935-0.085,1.912-0.127,2.932-0.127v0.127c0.679-0.085,1.445-0.127,2.295-0.127
		c1.019-0.171,1.997-0.256,2.932-0.256c0.679-0.085,1.359-0.127,2.039-0.127c0.85,0,1.785,0,2.804,0
		c0.425-0.171,0.978-0.254,1.658-0.254c0.85,0,1.742,0,2.677,0h1.528c2.209-0.086,4.462-0.127,6.758-0.127c0.509,0,1.061,0,1.656,0
		c0.17,0,0.298,0,0.382,0c0.85,0,1.614,0,2.293,0c0.171,0,0.382,0,0.638,0c0.34,0,0.851,0,1.53,0
		c16.314,0.083,32.631,1.23,48.947,3.44c0.595,0,1.19,0.083,1.785,0.253c8.836,1.19,17.632,2.721,26.387,4.59
		c10.281,1.956,20.521,4.375,30.719,7.266c0.509,0.169,0.979,0.296,1.401,0.384c1.871,0.508,3.739,1.061,5.608,1.655
		c1.275,0.427,2.549,0.807,3.825,1.147l33.523-33.525c-0.342-0.168-0.765-0.296-1.273-0.381c-0.596-0.256-1.19-0.51-1.785-0.765
		c-1.445-0.679-2.931-1.23-4.462-1.656c-0.34-0.169-0.723-0.297-1.147-0.384c-1.021-0.339-2.081-0.723-3.187-1.146
		c-20.479-6.799-41.173-12.11-62.077-15.933c-0.339-0.087-0.723-0.128-1.146-0.128c-0.681-0.255-1.401-0.381-2.168-0.381
		c-2.294-0.512-4.546-0.896-6.756-1.15c-0.512-0.083-1.021-0.21-1.529-0.383c-13.429-2.039-26.854-3.482-40.28-4.332
		c-2.21-0.255-4.292-0.383-6.247-0.383c-2.719-0.253-5.396-0.383-8.028-0.383C217.34,201.677,217.084,201.677,216.831,201.762z
		 M221.418,199.597c3.4,0.083,6.798,0.254,10.197,0.51c3.229,0.083,6.501,0.337,9.816,0.765c2.548,0.085,5.1,0.341,7.646,0.764
		c8.839,0.852,17.591,1.998,26.259,3.443c2.294,0.339,4.674,0.723,7.14,1.145l0.128,0.128c1.357,0.255,2.761,0.508,4.206,0.765
		c20.988,3.909,41.64,9.349,61.949,16.315c2.719,0.853,5.395,1.743,8.031,2.679c1.273,0.422,2.506,0.85,3.693,1.274l1.659,0.764
		l-37.222,37.476l-0.764-0.383c-13.766-4.247-27.619-7.817-41.554-10.708c-6.97-1.442-13.896-2.632-20.779-3.566
		c-1.529-0.257-2.973-0.47-4.334-0.638c-1.443-0.256-2.889-0.425-4.332-0.511c-4.165-0.596-8.327-1.105-12.494-1.53v0.256
		c-1.359-0.256-2.677-0.382-3.95-0.382v-0.128c-2.38-0.254-4.802-0.469-7.266-0.637l0.256,0.253
		c-1.105-0.17-2.254-0.253-3.443-0.253v-0.127c-1.613-0.086-3.187-0.127-4.716-0.127c-1.104-0.174-2.208-0.257-3.313-0.257
		c-1.19-0.086-2.424-0.127-3.697-0.127v0.127c-0.933-0.086-1.871-0.127-2.803-0.127c-0.936-0.168-1.827-0.254-2.678-0.254v0.254
		c-0.935-0.168-1.826-0.254-2.676-0.254c-0.766,0-1.531,0-2.295,0c-0.934,0-1.912,0-2.932,0h-0.127c-0.596,0-1.19,0-1.785,0
		c-0.934,0-1.742,0-2.422,0c-0.765,0-1.36,0-1.785,0c-1.02,0-1.955,0.086-2.805,0.254c-0.679,0-1.317,0-1.912,0
		c-0.934,0-1.826,0-2.676,0c-0.764,0-1.444,0.041-2.04,0.127c-0.934,0-1.827,0-2.677,0c-0.935,0-1.742,0.083-2.422,0.257
		c-2.975,0.085-5.864,0.254-8.668,0.507c-1.36,0-2.634,0.042-3.825,0.13c-1.955,0.169-3.866,0.34-5.736,0.508l-2.676,0.256
		c-1.275,0.086-2.464,0.213-3.569,0.382c-2.72,0.256-5.396,0.552-8.03,0.893c-7.989,1.106-15.891,2.381-23.709,3.823
		c-15.636,2.974-31.102,6.844-46.397,11.6l-0.765,0.383l-37.222-37.476l1.912-0.764c1.19-0.425,2.38-0.853,3.57-1.274
		c1.955-0.679,3.909-1.315,5.863-1.912c1.106-0.51,2.21-0.893,3.314-1.146c0.766-0.343,1.487-0.596,2.167-0.765l56.723-15.044
		c0.595-0.083,1.232-0.21,1.912-0.383c2.55-0.422,5.142-0.848,7.777-1.274c5.778-1.102,11.684-1.953,17.716-2.549
		c0.851-0.253,1.7-0.38,2.55-0.38c2.549-0.342,5.057-0.638,7.521-0.894c0.341-0.085,0.68-0.127,1.021-0.127l3.823-0.38
		c3.145-0.425,6.289-0.679,9.434-0.767c0.679-0.171,1.359-0.254,2.039-0.254c1.955-0.171,3.909-0.254,5.863-0.254
		c9.264-0.679,18.569-1.02,27.916-1.02C207.907,198.96,214.705,199.169,221.418,199.597z M240.795,194.37l90.119-28.042
		l-0.384,0.637l-83.873,28.042C244.702,194.75,242.748,194.541,240.795,194.37z M227.791,193.476l80.942-36.836l1.021,0.127
		l-76.609,37.092h-0.255C231.19,193.776,229.491,193.649,227.791,193.476z M263.102,197.048l44.23-8.159l-1.401,1.147l-37.604,7.649
		C266.457,197.344,264.715,197.131,263.102,197.048z M67.183,169.768l82.599,26.003c-1.955,0.085-3.825,0.254-5.608,0.512
		l-75.972-25.495L67.183,169.768z M122.249,151.287l52.262,42.189c-1.274,0.173-2.591,0.3-3.952,0.383l-49.584-41.809l-0.255-0.381
		L122.249,151.287z M88.341,190.546l42.193,7.522c-1.786,0.254-3.57,0.549-5.354,0.892l-35.564-7.139L88.341,190.546z
		 M80.056,157.531l81.326,37.093c-1.701,0.085-3.357,0.214-4.972,0.383h-0.127L78.91,157.659L80.056,157.531z M104.275,154.091
		l64.754,39.768c-1.53,0.085-3.059,0.212-4.588,0.383L102.874,154.6l-0.382-0.381L104.275,154.091z M138.819,257.341l-18.738,15.295
		h-0.127l0.382-2.04h0.126l14.788-12.618C136.439,257.722,137.629,257.509,138.819,257.341z M152.968,255.557l-36.584,37.729
		l0.255-1.528l33.142-35.821C150.801,255.684,151.864,255.557,152.968,255.557z M171.069,253.642l-31.741,56.214l-1.401,0.638
		l30.465-56.597C169.242,253.728,170.134,253.642,171.069,253.642z M163.165,254.408l-51.879,69.596l0.129-0.765l48.82-68.706
		C161.253,254.45,162.23,254.408,163.165,254.408z M98.285,290.609c-12.917,3.482-25.536,7.69-37.857,12.619l-1.786,0.765
		l-0.382-31.613l-31.867-6.756l3.442-1.656c8.667-3.824,17.505-7.309,26.513-10.453l2.167,1.783
		c-8.242,2.976-16.357,6.12-24.347,9.434l26.515,5.609l0.509,29.954c12.322-4.756,24.813-8.921,37.475-12.492L98.285,290.609z
		 M157.174,300.422l18.101-46.907c0.935-0.17,1.829-0.256,2.678-0.256l-18.993,46.271L157.174,300.422z M171.451,292.902
		l9.942-39.771c0.85-0.083,1.701-0.127,2.55-0.127l-10.58,39.006L171.451,292.902z M345.573,253.515
		c7.477,2.552,14.869,5.439,22.179,8.668c1.614,0.595,3.144,1.19,4.589,1.785l3.314,1.656l-31.869,6.756l-0.381,31.613l-1.657-0.765
		c-1.359-0.51-2.719-0.978-4.078-1.403c-0.424-0.253-0.935-0.508-1.529-0.767c-13.259-5.012-26.685-9.26-40.28-12.746l-0.511-2.549
		c15.382,3.824,30.593,8.669,45.634,14.531l0.382-29.954l26.387-5.609c-7.904-3.482-15.892-6.627-23.966-9.434L345.573,253.515z
		 M279.797,302.719l-47.289-48.822c1.021,0,2.083,0.044,3.188,0.127l43.848,47.549L279.797,302.719z M248.95,255.557l26.387,22.18
		l0.384,1.655l-30.34-24.222v-0.251c1.106,0.168,2.296,0.295,3.569,0.379V255.557z M272.532,261.801l-6.372-3.823
		c1.273,0.083,2.549,0.254,3.823,0.509l2.168,1.403L272.532,261.801z M189.425,252.749l-4.59,33.271l-1.784,1.019l3.825-34.033
		C187.725,252.836,188.574,252.749,189.425,252.749z M194.778,252.622l-0.382,28.428l-1.785,0.891l-0.383-29.191
		C193.078,252.666,193.928,252.622,194.778,252.622z M199.876,252.622l3.441,30.083l-1.783-1.146l-4.08-28.938
		C198.219,252.622,199.027,252.622,199.876,252.622z M211.477,252.749l16.314,42.575l-1.783-0.892l-17.081-41.684
		C209.606,252.666,210.457,252.666,211.477,252.749z M205.612,252.622l8.54,35.69l-1.911-1.018l-9.433-34.673
		C203.658,252.622,204.593,252.622,205.612,252.622z M226.008,253.259l46.524,65.521l-1.019-0.511l-48.692-65.137
		C223.842,253.132,224.903,253.176,226.008,253.259z M215.3,252.749c0.852,0,1.699,0.087,2.55,0.256l28.17,51.88l-1.656-0.892
		L215.3,253.005V252.749z"/>
	<path fill-rule="evenodd" clip-rule="evenodd" fill="#EEE0C8" d="M228.94,124.006l5.48,11.345l-31.23,54.812L228.94,124.006z
		 M193.631,67.029l-0.129,0.383l-1.528,120.585l-12.62-91.777l-0.764,1.275l10.58,90.884l-19.503-72.527l-1.021,1.655l17.718,71.639
		l-24.092-58.636l-0.891,1.912l22.179,57.742l-27.151-47.927l40.663-82.471l12.236,24.346l-14.276,103.887L193.631,67.029z
		 M265.522,150.776l-52.389,42.193c-0.339,0-0.596,0-0.765,0l40.791-44.106L265.522,150.776z M251.5,148.735l-42.829,43.978h-0.127
		l32.632-45.506L251.5,148.735z M239.9,146.186l-34.033,45.251l29.446-54.428L239.9,146.186z M217.34,192.969l50.094-42.063
		l16.316,2.419l-64.626,39.771C218.529,193.013,217.935,192.969,217.34,192.969z M246.657,195.007l83.873-28.042l0.384-0.637
		l-90.119,28.042c-2.551-0.256-5.099-0.425-7.65-0.511l76.1-36.711l27.533,3.824l-42.192,41.301
		c-4.079-0.851-8.073-1.614-11.98-2.293c-4.76-0.937-9.52-1.702-14.278-2.295l37.604-7.649l1.401-1.147l-44.23,8.159h-0.256
		c-0.679-0.172-1.359-0.298-2.038-0.386L246.657,195.007z M200.642,189.146l20.14-81.709l7.267,14.915L200.642,189.146z
		 M197.709,188.379L209.82,85.258l10.196,20.777L197.709,188.379z M223.968,193.349l61.439-39.641l22.817,3.313l-80.434,36.455
		C226.433,193.393,225.159,193.349,223.968,193.349z M316,184.936c8.497-8.325,16.952-16.611,25.365-24.856l-99.68-14.404
		l-44.613-90.374l-44.486,90.374L52.905,160.08l45.379,43.977c-2.719,0.682-5.311,1.319-7.776,1.913l-50.095-48.821l108.348-15.803
		l48.311-97.898l48.566,97.898l108.22,15.803l-48.438,47.547c-2.721-0.765-5.354-1.36-7.903-1.785L316,184.936z M136.78,149.631
		l9.944-1.406l32.12,45.124L136.78,149.631z M67.183,169.768l1.019,1.021l75.972,25.495c-4.08,0.51-7.989,1.06-11.727,1.655
		c-0.68,0-1.317,0.042-1.912,0.129l-42.193-7.522l1.275,1.275l35.564,7.139c-8.073,1.274-16.061,2.802-23.963,4.587l-43.468-42.575
		l21.543-3.057l76.991,37.092c-0.594,0-1.274,0.044-2.04,0.127c-1.105,0.171-2.168,0.298-3.188,0.383
		c-0.424,0-0.85,0.086-1.274,0.254L67.183,169.768z M155.517,144.148l25.494,47.29l-32.504-43.467l5.481-0.891L155.517,144.148z
		 M102.874,154.6l61.567,39.643c-1.105,0.086-2.125,0.213-3.059,0.382l-80.688-36.965L102.874,154.6z M174.51,193.476
		l-51.624-41.807l12.109-1.66l40.151,43.466C174.893,193.476,174.68,193.476,174.51,193.476z M169.029,193.859l-64.372-39.641
		l16.316-2.167l49.584,41.809C170.05,193.859,169.54,193.859,169.029,193.859z M149.782,255.937l-33.013,35.821l3.313-19.122
		l18.738-15.295c2.463-0.342,4.887-0.726,7.266-1.147C147.36,256.107,148.592,256.022,149.782,255.937z M160.234,254.533
		l-48.82,68.706l-0.129,0.765l51.879-69.596c1.786-0.253,3.527-0.427,5.227-0.512l-30.465,56.597l1.401-0.638l31.741-56.214
		c1.358-0.083,2.762-0.127,4.205-0.127l-18.101,46.907l1.786-0.892l18.993-46.271c1.02-0.083,2.166-0.127,3.44-0.127l-9.942,39.771
		l1.912-0.892l10.58-39.006c0.935,0,1.912,0,2.933,0l-3.825,34.033l1.784-1.019l4.59-33.271c0.849,0,1.699,0,2.549,0h0.254
		l0.383,29.191l1.785-0.891l0.382-28.428c0.85,0,1.742,0,2.677,0l4.08,28.938l1.783,1.146l-3.441-30.083c0.425,0,0.808,0,1.147,0
		c0.595,0,1.19,0,1.785,0l9.433,34.673l1.911,1.018l-8.54-35.69c0.934,0,2.04,0.044,3.314,0.127l17.081,41.684l1.783,0.892
		l-16.314-42.575c1.188,0,2.463,0.087,3.823,0.256l29.063,50.988l1.656,0.892l-28.17-51.88c1.614,0.086,3.271,0.127,4.972,0.127
		l48.692,65.137l1.019,0.511l-46.524-65.521c2.208,0.172,4.376,0.383,6.5,0.638l47.036,48.566l3.823,22.563l-86.294-45.25
		l-86.169,45.25l5.481-31.739l36.584-37.729C155.433,255.129,157.854,254.792,160.234,254.533z M119.955,260.781l-11.982,68.705
		l89.1-46.781l89.229,46.781l-12.112-70.233c1.956,0.339,3.909,0.679,5.865,1.018l2.55,15.041
		c3.059,17.848,6.202,35.777,9.433,53.792c0,0.51,0.042,1.063,0.126,1.658l0.382,2.292v0.256c0.511,2.721,1.02,5.396,1.53,8.03
		l-97.002-50.73l-96.748,50.73l13.766-79.157C115.875,261.673,117.829,261.205,119.955,260.781z M122.12,260.271
		c4.419-0.85,8.796-1.613,13.131-2.293l-14.788,12.618L122.12,260.271z M245.381,255.17l30.084,23.967l3.951,22.309l-43.72-47.422
		c1.613,0.173,3.229,0.341,4.844,0.51C242.069,254.704,243.682,254.919,245.381,255.17z M272.151,259.89l-2.168-1.403
		c0.595,0.088,1.275,0.215,2.04,0.383L272.151,259.89z M253.285,255.937c4.248,0.594,8.54,1.275,12.875,2.041l6.372,3.823
		l2.805,15.936l-26.387-22.18C250.396,255.64,251.842,255.766,253.285,255.937z"/>
</g>
</svg>
