<?xml version="1.0" encoding="utf-8"?>
<!-- Generator: Adobe Illustrator 16.0.0, SVG Export Plug-In . SVG Version: 6.00 Build 0)  -->
<!DOCTYPE svg PUBLIC "-//W3C//DTD SVG 1.1//EN" "http://www.w3.org/Graphics/SVG/1.1/DTD/svg11.dtd">
<svg version="1.1" id="Layer_1" xmlns="http://www.w3.org/2000/svg" xmlns:xlink="http://www.w3.org/1999/xlink" x="0px" y="0px"
	 width="400px" height="400px" viewBox="0 0 400 400" enable-background="new 0 0 400 400" xml:space="preserve">
<g>
	<path fill-rule="evenodd" clip-rule="evenodd" fill="#56637B" d="M229.928,49.724c4.533,7.22,11.038,10.83,19.51,10.83
		c3.521,0,6.414-0.537,8.682-1.61h0.268v0.357c1.672,4.535,4.536,8.145,8.594,10.83c4.176,2.863,8.621,4.296,13.334,4.296
		l4.027-0.269v-0.359l0.271,0.359c0.834,5.548,3.311,10.172,7.427,13.872c4.177,3.878,9.01,5.937,14.5,6.175h0.356v0.269
		c-0.417,5.787,1.016,10.859,4.296,15.214c3.282,4.536,7.607,7.399,12.979,8.593h0.357v0.357c-1.67,5.311-1.373,10.532,0.896,15.662
		c2.685,5.192,6.384,9.011,11.098,11.457h0.269l-0.269,0.357c-2.446,4.713-3.163,9.935-2.148,15.662
		c1.253,5.608,4.027,10.054,8.323,13.336l0.358,0.268h-0.358c-3.46,4.535-5.19,9.487-5.19,14.856c0,5.788,1.73,10.74,5.19,14.857
		l0.358,0.269l-0.358,0.357c-4.296,3.281-7.07,7.697-8.323,13.246c-1.015,5.788-0.298,10.949,2.148,15.483l0.269,0.358l-0.269,0.269
		c-4.953,2.445-8.651,6.145-11.098,11.097c-2.089,5.37-2.388,10.621-0.896,15.753v0.268h-0.357
		c-5.549,1.672-9.875,4.654-12.979,8.95c-3.28,4.177-4.713,9.248-4.296,15.215v0.269h-0.356c-5.49,0.179-10.323,2.118-14.5,5.817
		c-4.116,3.759-6.593,8.413-7.427,13.962l-0.271,0.358l-4.027-0.358c-4.713,0-9.158,1.432-13.334,4.296
		c-4.058,2.685-6.922,6.294-8.594,10.829v0.269h-0.268c-2.685-1.253-5.578-1.88-8.682-1.88c-8.472,0-14.977,3.64-19.51,10.92
		l-0.269,0.268v-0.268c-3.878-2.506-8.204-3.76-12.978-3.76c-6.324,0-11.873,2.356-16.646,7.071h-0.358
		c-4.296-4.715-9.845-7.071-16.646-7.071c-4.774,0-8.98,1.254-12.62,3.76l-0.357,0.268l-0.27-0.268
		c-4.534-7.28-11.038-10.92-19.511-10.92c-2.864,0-5.758,0.627-8.681,1.88h-0.268v-0.269c-1.671-4.535-4.445-8.145-8.323-10.829
		c-4.117-2.864-8.532-4.296-13.246-4.296l-4.386,0.358v-0.358c-0.775-5.549-3.251-10.203-7.428-13.962
		c-4.295-3.699-9.218-5.639-14.767-5.817h-0.358v-0.269c0.656-5.609-0.775-10.681-4.295-15.215
		c-3.043-4.296-7.369-7.278-12.978-8.95h-0.268v-0.268c1.61-5.132,1.283-10.383-0.984-15.753
		c-2.029-4.772-5.729-8.472-11.098-11.097v-0.627c2.685-4.952,3.431-10.113,2.237-15.483c-1.253-5.549-4.057-9.965-8.413-13.246
		l-0.269-0.357l0.269-0.269c3.461-4.117,5.191-9.069,5.191-14.857c0-5.369-1.73-10.321-5.191-14.856h-0.269l0.269-0.268
		c4.356-3.282,7.16-7.728,8.413-13.336c1.193-5.31,0.448-10.531-2.237-15.662v-0.357c5.131-2.626,8.83-6.444,11.098-11.457
		c2.267-5.13,2.595-10.352,0.984-15.662v-0.357h0.268c5.37-1.193,9.696-4.057,12.978-8.593c3.52-4.772,4.952-9.844,4.295-15.214
		v-0.269h0.358c5.728-0.239,10.65-2.297,14.767-6.175c4.177-3.7,6.653-8.324,7.428-13.872v-0.359l0.269,0.359l4.118,0.269
		c4.713,0,9.129-1.433,13.246-4.296c3.878-2.685,6.652-6.294,8.323-10.83v-0.357h0.268c2.328,1.073,5.221,1.61,8.681,1.61
		c8.652,0,15.155-3.61,19.511-10.83h0.626c4.058,2.685,8.264,4.028,12.62,4.028c6.802,0,12.351-2.357,16.646-7.07l0.358-0.359v0.359
		c4.773,4.713,10.322,7.07,16.646,7.07c4.355,0,8.682-1.343,12.978-4.028H229.928z M250.602,78.811l-0.537-0.984h-2.147
		c-8.233,0-15.335-2.356-21.302-7.071l-1.252-0.895l-1.254,0.269c-2.506,0.596-5.19,0.895-8.055,0.895
		c-5.549,0-10.59-1.135-15.125-3.402l-0.895-0.268l-1.253,0.268c-4.355,2.267-9.397,3.402-15.126,3.402
		c-2.863,0-5.548-0.299-8.055-0.895l-1.164-0.269l-0.984,0.895c-6.385,4.714-13.574,7.071-21.569,7.071h-2.238l-0.537,0.984
		c-5.429,6.146-12.231,10.054-20.405,11.725l-1.343,0.269l-0.538,0.895c-3.699,7.22-9.457,12.47-17.273,15.751l-1.252,0.627
		l-0.359,1.254c-1.432,4.116-3.162,7.606-5.19,10.471c-1.85,2.506-4.654,5.31-8.414,8.413l-1.163,0.537v1.343
		c-0.418,4.057-1.462,7.846-3.133,11.365c-1.67,3.938-3.818,7.25-6.443,9.935l-0.984,0.896l0.357,1.252
		c0.656,3.7,0.447,7.697-0.626,11.993c-0.597,3.699-2.028,7.31-4.296,10.829l-0.626,1.253l0.268,1.254
		c1.432,3.46,2.148,7.249,2.148,11.365c0,4.297-0.716,8.234-2.148,11.814l-0.268,1.163l0.626,1.253
		c2.268,3.521,3.7,7.131,4.296,10.829c1.073,4.297,1.282,8.204,0.626,11.726l-0.357,1.521l0.984,0.895
		c2.625,2.685,4.773,5.877,6.443,9.575c1.671,3.521,2.715,7.459,3.133,11.814v1.164l1.163,0.626
		c3.759,2.506,6.564,5.311,8.414,8.413c2.028,2.446,3.759,5.937,5.19,10.472l0.359,1.252l1.252,0.538
		c7.637,2.924,13.395,8.085,17.273,15.482l0.538,1.253l1.343,0.27c7.995,1.252,14.797,5.19,20.405,11.813l0.537,0.896h1.612
		c8.233-0.179,15.632,2.178,22.195,7.07l0.984,0.627l1.164-0.269c2.507-0.597,5.191-0.896,8.055-0.896
		c5.131,0,10.173,1.104,15.126,3.312l1.253,0.626l0.895-0.626c5.132-2.208,10.173-3.312,15.125-3.312
		c2.864,0,5.549,0.299,8.055,0.896l1.254,0.269l1.252-0.627c6.146-4.893,13.247-7.339,21.302-7.339l0.895,0.269h1.253l0.537-0.896
		c5.609-6.622,12.41-10.561,20.406-11.813l1.343-0.27l0.536-1.253c3.938-7.397,9.696-12.559,17.272-15.482l1.254-0.538l0.358-1.252
		c1.252-3.938,2.982-7.429,5.191-10.472c2.505-3.521,5.399-6.325,8.681-8.413l0.896-0.626v-1.164
		c0.238-3.52,1.281-7.458,3.132-11.814c1.67-3.698,3.818-6.891,6.443-9.575l0.985-0.895l-0.269-1.521
		c-0.479-4.536-0.299-8.443,0.537-11.726c1.073-4.355,2.535-7.965,4.386-10.829l0.536-1.253l-0.269-1.163
		c-1.433-4.355-2.147-8.294-2.147-11.814c0-3.281,0.715-7.069,2.147-11.365l0.269-1.254l-0.536-1.253
		c-1.851-2.863-3.313-6.473-4.386-10.829c-0.836-3.281-1.016-7.278-0.537-11.993l0.269-1.252l-0.985-0.896
		c-2.625-2.685-4.773-5.997-6.443-9.935c-1.851-4.296-2.894-8.084-3.132-11.365v-1.343l-0.896-0.537
		c-3.103-2.327-5.996-5.132-8.681-8.413c-2.209-3.103-3.939-6.593-5.191-10.471l-0.358-1.254l-1.254-0.627
		c-7.815-3.281-13.572-8.531-17.272-15.751l-0.536-0.895l-1.343-0.269C262.832,88.865,256.031,84.957,250.602,78.811z
		 M238.341,90.178c-6.564,0-11.726-2.774-15.483-8.323c-3.103,2.029-6.385,3.043-9.844,3.043c-4.954,0-9.279-1.82-12.979-5.46
		c-4.117,3.64-8.532,5.46-13.247,5.46c-3.102,0-6.413-1.015-9.934-3.043c-3.521,5.549-8.682,8.323-15.483,8.323
		c-2.685,0-4.833-0.418-6.444-1.253c-1.432,3.52-3.7,6.414-6.801,8.681c-3.282,2.029-6.773,3.043-10.472,3.043h-3.133
		c-0.597,4.356-2.446,7.996-5.548,10.919c-3.282,2.803-7.101,4.325-11.456,4.563c0,4.773-1.224,8.682-3.67,11.725
		c-2.446,3.521-5.757,5.907-9.934,7.16c1.074,4.296,0.686,8.294-1.163,11.992c-1.433,3.878-4.236,6.862-8.414,8.95
		c1.85,4.117,2.387,8.234,1.611,12.351c-1.074,4.355-3.251,7.877-6.534,10.562c2.924,3.281,4.386,7.069,4.386,11.365
		c0,4.297-1.462,8.234-4.386,11.814c3.521,2.805,5.699,6.294,6.534,10.471c1.015,4.117,0.478,8.115-1.611,11.994
		c4.177,2.506,6.981,5.488,8.414,8.949c1.849,3.938,2.237,8.056,1.163,12.351c4.177,1.074,7.488,3.461,9.934,7.16
		c2.446,3.043,3.67,6.951,3.67,11.724c4.355,0.239,8.174,1.79,11.456,4.654c3.102,2.864,4.952,6.444,5.548,10.74l3.133-0.269
		c3.699,0,7.189,1.134,10.472,3.4c3.102,2.268,5.37,5.132,6.801,8.592c1.611-0.775,3.759-1.163,6.444-1.163
		c6.801,0,11.962,2.774,15.483,8.323c2.864-2.029,6.176-3.043,9.934-3.043c5.131,0,9.547,1.82,13.247,5.459
		c3.52-3.639,7.846-5.459,12.979-5.459c3.937,0,7.219,1.014,9.844,3.043c3.758-5.549,8.919-8.323,15.483-8.323
		c2.685,0,4.952,0.388,6.801,1.163c1.434-3.46,3.7-6.324,6.804-8.592c3.102-2.267,6.473-3.4,10.111-3.4l3.134,0.269
		c0.596-4.296,2.535-7.876,5.817-10.74c3.103-2.864,6.921-4.415,11.455-4.654c-0.18-4.296,0.954-8.204,3.4-11.724
		c2.268-3.521,5.669-5.908,10.204-7.16c-1.254-4.057-0.955-8.175,0.896-12.351c1.431-3.461,4.235-6.443,8.411-8.949
		c-2.088-3.879-2.625-7.877-1.61-11.994c0.895-4.177,3.073-7.666,6.533-10.471c-2.685-3.342-4.027-7.279-4.027-11.814
		c0-4.714,1.343-8.502,4.027-11.365c-3.281-2.685-5.459-6.206-6.533-10.562c-0.775-4.116-0.239-8.233,1.61-12.351
		c-4.176-2.088-6.98-5.072-8.411-8.95c-1.851-3.938-2.149-7.935-0.896-11.992c-4.296-1.253-7.698-3.64-10.204-7.16
		c-2.446-3.52-3.58-7.429-3.4-11.725c-4.534-0.238-8.353-1.761-11.455-4.563c-3.282-2.924-5.222-6.563-5.817-10.919h-3.134
		c-3.639,0-7.01-1.014-10.111-3.043c-3.104-2.267-5.37-5.161-6.804-8.681C243.293,89.76,241.025,90.178,238.341,90.178z
		 M247.559,83.018c5.788,6.444,12.889,10.59,21.301,12.44c3.938,7.398,10.023,12.857,18.258,16.377
		c1.252,4.058,3.103,7.757,5.55,11.099c2.267,3.103,5.25,5.966,8.949,8.592c0.179,3.759,1.223,7.786,3.133,12.082
		c1.849,4.116,4.116,7.637,6.801,10.561c-0.417,4.893-0.209,8.979,0.627,12.262c0.775,3.938,2.207,7.846,4.296,11.724
		c-1.254,4.177-1.879,8.204-1.879,12.082c0,4.297,0.625,8.443,1.879,12.44c-2.089,4.296-3.521,8.205-4.296,11.725
		c-0.836,3.282-1.044,7.368-0.627,12.261c-2.505,2.924-4.772,6.355-6.801,10.293c-1.91,4.713-2.954,8.711-3.133,11.993
		c-3.461,2.446-6.443,5.43-8.949,8.95c-2.626,3.52-4.476,7.13-5.55,10.829c-7.995,3.461-14.081,9.01-18.258,16.646
		c-8.412,1.671-15.513,5.698-21.301,12.082c-8.652,0-16.468,2.565-23.449,7.697c-2.506-0.598-5.19-0.896-8.055-0.896
		c-5.549,0-10.888,1.134-16.02,3.401c-5.549-2.268-11.009-3.401-16.379-3.401c-2.446,0-5.131,0.298-8.055,0.896
		c-6.98-5.132-14.797-7.697-23.448-7.697c-5.788-6.384-12.799-10.411-21.032-12.082c-4.535-7.637-10.71-13.186-18.526-16.646
		c-1.015-3.699-2.864-7.31-5.549-10.829c-2.685-3.7-5.549-6.683-8.591-8.95c-0.656-4.714-1.82-8.711-3.491-11.993
		c-1.432-3.342-3.669-6.772-6.712-10.293c0.597-3.878,0.358-7.964-0.716-12.261c-0.955-4.535-2.387-8.442-4.296-11.725
		c1.253-3.997,1.879-8.144,1.879-12.44c0-3.878-0.626-7.905-1.879-12.082c1.909-3.042,3.341-6.951,4.296-11.724
		c1.074-4.296,1.313-8.384,0.716-12.262c3.282-3.52,5.52-7.04,6.712-10.561c1.67-3.103,2.834-7.131,3.491-12.082
		c3.281-2.446,6.145-5.312,8.591-8.592c2.446-3.342,4.296-7.041,5.549-11.099c8.055-3.521,14.229-8.979,18.526-16.377
		c8.233-1.851,15.245-5.997,21.032-12.44c8.89,0,16.706-2.447,23.448-7.339c2.923,0.656,5.608,0.985,8.055,0.985
		c5.37,0,10.83-1.164,16.379-3.491c5.132,2.328,10.471,3.491,16.02,3.491c2.864,0,5.549-0.329,8.055-0.985
		C230.912,80.571,238.729,83.018,247.559,83.018z"/>
	<path fill-rule="evenodd" clip-rule="evenodd" fill="#010101" d="M250.602,78.811c5.43,6.146,12.23,10.054,20.406,11.725
		l1.343,0.269l0.536,0.895c3.7,7.22,9.457,12.47,17.272,15.751l1.254,0.627l0.358,1.254c1.252,3.878,2.982,7.368,5.191,10.471
		c2.685,3.281,5.578,6.086,8.681,8.413l0.896,0.537v1.343c0.238,3.281,1.281,7.069,3.132,11.365c1.67,3.938,3.818,7.25,6.443,9.935
		l0.985,0.896l-0.269,1.252c-0.479,4.715-0.299,8.712,0.537,11.993c1.073,4.356,2.535,7.966,4.386,10.829l0.536,1.253l-0.269,1.254
		c-1.433,4.296-2.147,8.084-2.147,11.365c0,3.521,0.715,7.459,2.147,11.814l0.269,1.163l-0.536,1.253
		c-1.851,2.864-3.313,6.474-4.386,10.829c-0.836,3.282-1.016,7.189-0.537,11.726l0.269,1.521l-0.985,0.895
		c-2.625,2.685-4.773,5.877-6.443,9.575c-1.851,4.356-2.894,8.295-3.132,11.814v1.164l-0.896,0.626
		c-3.281,2.088-6.176,4.893-8.681,8.413c-2.209,3.043-3.939,6.533-5.191,10.472l-0.358,1.252l-1.254,0.538
		c-7.576,2.924-13.334,8.085-17.272,15.482l-0.536,1.253l-1.343,0.27c-7.996,1.252-14.797,5.19-20.406,11.813l-0.537,0.896h-1.253
		l-0.895-0.269c-8.055,0-15.155,2.446-21.302,7.339l-1.252,0.627l-1.254-0.269c-2.506-0.597-5.19-0.896-8.055-0.896
		c-4.951,0-9.992,1.104-15.125,3.312l-0.895,0.626l-1.253-0.626c-4.953-2.208-9.995-3.312-15.126-3.312
		c-2.863,0-5.548,0.299-8.055,0.896l-1.164,0.269l-0.984-0.627c-6.563-4.893-13.962-7.249-22.195-7.07h-1.612l-0.537-0.896
		c-5.608-6.622-12.41-10.561-20.405-11.813l-1.343-0.27l-0.538-1.253c-3.878-7.397-9.636-12.559-17.273-15.482l-1.252-0.538
		l-0.359-1.252c-1.432-4.535-3.162-8.025-5.19-10.472c-1.85-3.103-4.654-5.907-8.414-8.413l-1.163-0.626v-1.164
		c-0.418-4.355-1.462-8.294-3.133-11.814c-1.67-3.698-3.818-6.891-6.443-9.575l-0.984-0.895l0.357-1.521
		c0.656-3.521,0.447-7.429-0.626-11.726c-0.597-3.698-2.028-7.308-4.296-10.829l-0.626-1.253l0.268-1.163
		c1.432-3.58,2.148-7.518,2.148-11.814c0-4.116-0.716-7.905-2.148-11.365l-0.268-1.254l0.626-1.253
		c2.268-3.52,3.7-7.13,4.296-10.829c1.073-4.296,1.282-8.293,0.626-11.993l-0.357-1.252l0.984-0.896
		c2.625-2.685,4.773-5.997,6.443-9.935c1.671-3.52,2.715-7.309,3.133-11.365v-1.343l1.163-0.537
		c3.759-3.104,6.564-5.907,8.414-8.413c2.028-2.864,3.759-6.354,5.19-10.471l0.359-1.254l1.252-0.627
		c7.816-3.281,13.574-8.531,17.273-15.751l0.538-0.895l1.343-0.269c8.174-1.671,14.976-5.579,20.405-11.725l0.537-0.984h2.238
		c7.995,0,15.185-2.356,21.569-7.071l0.984-0.895l1.164,0.269c2.507,0.596,5.191,0.895,8.055,0.895
		c5.729,0,10.771-1.135,15.126-3.402l1.253-0.268l0.895,0.268c4.535,2.267,9.576,3.402,15.125,3.402
		c2.864,0,5.549-0.299,8.055-0.895l1.254-0.269l1.252,0.895c5.967,4.714,13.068,7.071,21.302,7.071h2.147L250.602,78.811z
		 M247.559,83.018c-8.83,0-16.646-2.447-23.449-7.339c-2.506,0.656-5.19,0.985-8.055,0.985c-5.549,0-10.888-1.164-16.02-3.491
		c-5.549,2.328-11.009,3.491-16.379,3.491c-2.446,0-5.131-0.329-8.055-0.985c-6.742,4.893-14.558,7.339-23.448,7.339
		c-5.788,6.444-12.799,10.59-21.032,12.44c-4.297,7.398-10.471,12.857-18.526,16.377c-1.253,4.058-3.103,7.757-5.549,11.099
		c-2.446,3.28-5.31,6.146-8.591,8.592c-0.656,4.951-1.82,8.979-3.491,12.082c-1.193,3.521-3.431,7.041-6.712,10.561
		c0.597,3.878,0.358,7.966-0.716,12.262c-0.955,4.772-2.387,8.682-4.296,11.724c1.253,4.177,1.879,8.204,1.879,12.082
		c0,4.297-0.626,8.443-1.879,12.44c1.909,3.282,3.341,7.189,4.296,11.725c1.074,4.297,1.313,8.383,0.716,12.261
		c3.043,3.521,5.281,6.951,6.712,10.293c1.67,3.282,2.834,7.279,3.491,11.993c3.042,2.268,5.907,5.25,8.591,8.95
		c2.685,3.52,4.535,7.13,5.549,10.829c7.816,3.461,13.991,9.01,18.526,16.646c8.233,1.671,15.245,5.698,21.032,12.082
		c8.651,0,16.467,2.565,23.448,7.697c2.923-0.598,5.608-0.896,8.055-0.896c5.37,0,10.83,1.134,16.379,3.401
		c5.132-2.268,10.471-3.401,16.02-3.401c2.864,0,5.549,0.298,8.055,0.896c6.981-5.132,14.797-7.697,23.449-7.697
		c5.788-6.384,12.889-10.411,21.301-12.082c4.177-7.637,10.263-13.186,18.258-16.646c1.074-3.699,2.924-7.31,5.55-10.829
		c2.506-3.521,5.488-6.504,8.949-8.95c0.179-3.282,1.223-7.28,3.133-11.993c2.028-3.938,4.296-7.369,6.801-10.293
		c-0.417-4.893-0.209-8.979,0.627-12.261c0.775-3.52,2.207-7.429,4.296-11.725c-1.254-3.997-1.879-8.144-1.879-12.44
		c0-3.878,0.625-7.905,1.879-12.082c-2.089-3.878-3.521-7.786-4.296-11.724c-0.836-3.282-1.044-7.369-0.627-12.262
		c-2.685-2.924-4.952-6.444-6.801-10.561c-1.91-4.296-2.954-8.323-3.133-12.082c-3.699-2.626-6.683-5.489-8.949-8.592
		c-2.447-3.342-4.298-7.041-5.55-11.099c-8.234-3.521-14.319-8.979-18.258-16.377C260.447,93.608,253.347,89.462,247.559,83.018z"/>
	<path fill-rule="evenodd" clip-rule="evenodd" fill="#CEC9B9" d="M200.035,46.323l-0.358,0.359
		c-4.296,4.713-9.845,7.07-16.646,7.07c-4.356,0-8.563-1.343-12.62-4.028h-0.626c-4.355,7.22-10.858,10.83-19.511,10.83
		c-3.46,0-6.354-0.537-8.681-1.61h-0.268v0.357c-1.671,4.535-4.445,8.145-8.323,10.83c-4.117,2.863-8.532,4.296-13.246,4.296
		l-4.118-0.269l-0.269-0.359v0.359c-0.775,5.548-3.251,10.172-7.428,13.872c-4.117,3.878-9.039,5.937-14.767,6.175h-0.358v0.269
		c0.656,5.37-0.775,10.441-4.295,15.214c-3.281,4.536-7.608,7.399-12.978,8.593h-0.268v0.357c1.61,5.311,1.283,10.532-0.984,15.662
		c-2.268,5.013-5.967,8.831-11.098,11.457v0.357c2.685,5.131,3.431,10.353,2.237,15.662c-1.253,5.608-4.057,10.054-8.413,13.336
		l-0.269,0.268h0.269c3.461,4.535,5.191,9.487,5.191,14.856c0,5.788-1.73,10.74-5.191,14.857l-0.269,0.269l0.269,0.357
		c4.356,3.281,7.16,7.697,8.413,13.246c1.193,5.37,0.448,10.531-2.237,15.483v0.627c5.37,2.625,9.069,6.324,11.098,11.097
		c2.267,5.37,2.595,10.621,0.984,15.753v0.268h0.268c5.608,1.672,9.935,4.654,12.978,8.95c3.52,4.534,4.952,9.605,4.295,15.215
		v0.269h0.358c5.549,0.179,10.472,2.118,14.767,5.817c4.177,3.759,6.653,8.413,7.428,13.962v0.358l4.386-0.358
		c4.713,0,9.129,1.432,13.246,4.296c3.878,2.685,6.652,6.294,8.323,10.829v0.269h0.268c2.923-1.253,5.817-1.88,8.681-1.88
		c8.473,0,14.977,3.64,19.511,10.92l0.27,0.268l0.357-0.268c3.64-2.506,7.846-3.76,12.62-3.76c6.802,0,12.351,2.356,16.646,7.071
		h0.358c4.773-4.715,10.322-7.071,16.646-7.071c4.773,0,9.1,1.254,12.978,3.76v0.268l0.269-0.268
		c4.533-7.28,11.038-10.92,19.51-10.92c3.104,0,5.997,0.627,8.682,1.88h0.268v-0.269c1.672-4.535,4.536-8.145,8.594-10.829
		c4.176-2.864,8.621-4.296,13.334-4.296l4.027,0.358l0.271-0.358c0.834-5.549,3.311-10.203,7.427-13.962
		c4.177-3.699,9.01-5.639,14.5-5.817h0.356v-0.269c-0.417-5.967,1.016-11.038,4.296-15.215c3.104-4.296,7.43-7.278,12.979-8.95
		h0.357v-0.268c-1.492-5.132-1.193-10.383,0.896-15.753c2.446-4.952,6.145-8.651,11.098-11.097l0.269-0.269l-0.269-0.358
		c-2.446-4.534-3.163-9.695-2.148-15.483c1.253-5.549,4.027-9.965,8.323-13.246l0.358-0.357l-0.358-0.269
		c-3.46-4.117-5.19-9.069-5.19-14.857c0-5.369,1.73-10.321,5.19-14.856h0.358l-0.358-0.268c-4.296-3.282-7.07-7.728-8.323-13.336
		c-1.015-5.728-0.298-10.949,2.148-15.662l0.269-0.357h-0.269c-4.714-2.446-8.413-6.265-11.098-11.457
		c-2.269-5.13-2.565-10.352-0.896-15.662v-0.357h-0.357c-5.371-1.193-9.696-4.057-12.979-8.593
		c-3.28-4.354-4.713-9.427-4.296-15.214v-0.269h-0.356c-5.49-0.239-10.323-2.297-14.5-6.175c-4.116-3.7-6.593-8.324-7.427-13.872
		l-0.271-0.359v0.359l-4.027,0.269c-4.713,0-9.158-1.433-13.334-4.296c-4.058-2.685-6.922-6.294-8.594-10.83v-0.357h-0.268
		c-2.268,1.073-5.161,1.61-8.682,1.61c-8.472,0-14.977-3.61-19.51-10.83h-0.269c-4.296,2.685-8.622,4.028-12.978,4.028
		c-6.324,0-11.873-2.357-16.646-7.07V46.323z M207.463,37.732c2.029,2.685,4.685,4.206,7.966,4.564
		c3.281,0.238,6.265-0.686,8.95-2.774c2.506-2.267,5.191-3.073,8.055-2.416c2.863,0.597,5.012,2.446,6.443,5.549
		c1.672,2.864,4.058,4.802,7.16,5.817c3.043,1.014,6.116,0.805,9.219-0.626c2.923-1.671,5.728-1.879,8.412-0.627
		c2.686,1.075,4.416,3.253,5.191,6.534c0.895,3.282,2.774,5.847,5.638,7.696c2.865,1.67,5.938,2,9.22,0.985
		c3.341-0.835,6.115-0.448,8.322,1.163c2.327,1.671,3.58,4.236,3.759,7.698c0.18,3.341,1.491,6.145,3.938,8.412
		c2.506,2.208,5.399,3.132,8.682,2.775c3.281-0.238,5.966,0.775,8.055,3.042c1.85,2.089,2.446,4.774,1.79,8.056
		c-0.358,3.52,0.358,6.623,2.147,9.307c2.148,2.686,4.863,4.207,8.145,4.564c3.282,0.418,5.639,1.97,7.07,4.654
		c1.432,2.446,1.521,5.221,0.27,8.323c-1.254,3.103-1.134,6.205,0.356,9.309c1.254,3.043,3.402,5.101,6.444,6.176
		c3.282,1.252,5.37,3.311,6.265,6.175c0.955,2.924,0.507,5.698-1.342,8.323c-2.028,2.863-2.626,5.847-1.79,8.949
		c0.597,3.282,2.327,5.758,5.19,7.429c2.864,1.85,4.535,4.206,5.013,7.07c0.179,3.103-0.955,5.788-3.401,8.055
		c-2.445,2.268-3.67,5.161-3.67,8.682c0,3.282,1.225,6.056,3.67,8.323c2.446,2.268,3.58,4.952,3.401,8.055
		c-0.478,2.864-2.148,5.132-5.013,6.803c-2.863,1.85-4.594,4.414-5.19,7.696c-0.836,3.282-0.238,6.265,1.79,8.95
		c1.849,2.923,2.297,5.698,1.342,8.323c-0.895,2.864-2.982,4.833-6.265,5.907c-3.042,1.253-5.19,3.4-6.444,6.443
		c-1.49,2.864-1.61,5.967-0.356,9.308c1.251,3.103,1.162,5.877-0.27,8.324c-1.432,2.685-3.788,4.206-7.07,4.564
		c-3.281,0.418-5.996,1.968-8.145,4.653c-1.789,2.685-2.506,5.669-2.147,8.949c0.656,3.521,0.06,6.325-1.79,8.413
		c-2.089,2.208-4.773,3.133-8.055,2.774c-3.46-0.178-6.354,0.836-8.682,3.043c-2.447,2.327-3.759,5.132-3.938,8.413
		c-0.179,3.461-1.432,6.026-3.759,7.697c-2.207,1.79-4.981,2.208-8.322,1.254c-3.282-0.836-6.354-0.538-9.22,0.895
		c-2.863,1.61-4.743,4.057-5.638,7.338c-0.775,3.342-2.506,5.609-5.191,6.803c-2.685,1.252-5.489,1.074-8.412-0.538
		c-3.103-1.67-6.176-1.997-9.219-0.984c-3.281,1.015-5.668,3.073-7.16,6.177c-1.432,3.103-3.58,4.951-6.443,5.548
		c-2.863,0.656-5.549-0.148-8.055-2.416c-2.686-2.089-5.669-3.013-8.95-2.775c-3.281,0.418-5.937,1.94-7.966,4.565
		c-2.088,2.685-4.564,4.027-7.428,4.027c-2.864,0-5.46-1.343-7.787-4.027c-2.028-2.625-4.684-4.147-7.965-4.565
		c-3.281-0.237-6.175,0.687-8.682,2.775c-2.685,2.268-5.459,3.072-8.323,2.416c-2.864-0.597-5.011-2.445-6.444-5.548
		c-1.432-3.104-3.699-5.162-6.802-6.177c-3.282-1.013-6.385-0.686-9.308,0.984c-3.042,1.612-5.936,1.79-8.681,0.538
		c-2.685-1.193-4.416-3.461-5.192-6.803c-0.834-3.281-2.595-5.728-5.279-7.338c-2.864-1.433-5.938-1.73-9.218-0.895
		c-3.341,0.954-6.146,0.536-8.414-1.254c-2.446-1.671-3.789-4.236-4.027-7.697c0-3.281-1.223-6.086-3.669-8.413
		c-2.446-2.207-5.43-3.221-8.95-3.043c-3.282,0.358-5.848-0.566-7.697-2.774c-2.088-2.326-2.804-5.131-2.148-8.413
		c0.596-3.28-0.12-6.265-2.148-8.949c-1.91-2.686-4.595-4.235-8.055-4.653c-3.341-0.358-5.728-1.88-7.16-4.564
		c-1.432-2.447-1.522-5.222-0.268-8.324c1.252-3.341,1.252-6.443,0-9.308c-1.433-3.043-3.7-5.19-6.803-6.443
		c-3.281-1.074-5.339-3.043-6.175-5.907c-1.015-2.625-0.507-5.4,1.521-8.323c1.85-2.864,2.476-5.848,1.879-8.95
		c-0.836-3.282-2.685-5.847-5.549-7.696c-2.864-1.671-4.416-3.938-4.654-6.803c-0.417-3.103,0.626-5.787,3.132-8.055
		c2.446-2.268,3.67-5.041,3.67-8.323c0-3.521-1.224-6.414-3.67-8.682c-2.506-2.267-3.549-4.952-3.132-8.055
		c0.238-2.864,1.79-5.221,4.654-7.07c2.864-1.671,4.713-4.146,5.549-7.429c0.597-3.103-0.03-6.086-1.879-8.949
		c-2.029-2.625-2.536-5.399-1.521-8.323c0.835-2.864,2.894-4.923,6.175-6.175c3.103-1.075,5.37-3.133,6.803-6.176
		c1.252-3.104,1.252-6.206,0-9.309c-1.254-3.103-1.164-5.877,0.268-8.323c1.432-2.685,3.818-4.236,7.16-4.654
		c3.46-0.357,6.146-1.879,8.055-4.564c2.028-2.923,2.744-6.025,2.148-9.307c-0.656-3.281,0.06-5.966,2.148-8.056
		c1.849-2.267,4.415-3.28,7.697-3.042c3.281,0.357,6.265-0.567,8.95-2.775c2.446-2.267,3.669-5.071,3.669-8.412
		c0.239-3.282,1.581-5.847,4.027-7.698c2.268-1.611,5.072-1.999,8.414-1.163c3.281,1.015,6.354,0.686,9.218-0.985
		c2.685-1.85,4.445-4.415,5.279-7.696c0.776-3.281,2.507-5.459,5.192-6.534c2.745-1.252,5.638-1.044,8.681,0.627
		c2.923,1.671,6.026,1.879,9.308,0.626c3.103-1.015,5.37-2.953,6.802-5.817c1.611-3.103,3.759-4.952,6.444-5.549
		c2.864-0.657,5.638,0.149,8.323,2.416c2.507,2.088,5.4,3.013,8.682,2.774c3.282-0.358,5.937-1.879,7.965-4.564
		c2.327-2.746,4.923-4.118,7.787-4.118C202.898,33.614,205.375,34.986,207.463,37.732z M133.359,161.776l-2.775-5.817l-2.864,5.817
		l-6.443,0.985l4.653,4.385l-1.252,6.443l5.906-3.132l5.46,3.132l-1.164-6.443l4.654-4.385L133.359,161.776z M218.203,228.005
		l-14.23-1.879l-6.085-13.067l-6.534,13.067l-14.14,1.879l10.113,10.113l-2.417,13.873l12.978-6.444l12.619,6.444l-2.416-13.873
		L218.203,228.005z M233.06,207.6v-2.506h-70.792v2.506H233.06z M271.991,162.762l-6.443-0.985l-2.774-5.817l-2.864,5.817
		l-6.085,0.985l4.295,4.385l-0.983,6.443l5.638-3.132l5.549,3.132l-0.984-6.443L271.991,162.762z M238.341,90.178
		c2.685,0,4.952-0.418,6.801-1.253c1.434,3.52,3.7,6.414,6.804,8.681c3.102,2.029,6.473,3.043,10.111,3.043h3.134
		c0.596,4.356,2.535,7.996,5.817,10.919c3.103,2.803,6.921,4.325,11.455,4.563c-0.18,4.296,0.954,8.205,3.4,11.725
		c2.506,3.521,5.908,5.907,10.204,7.16c-1.254,4.058-0.955,8.055,0.896,11.992c1.431,3.878,4.235,6.862,8.411,8.95
		c-1.85,4.117-2.386,8.234-1.61,12.351c1.074,4.355,3.252,7.877,6.533,10.562c-2.685,2.863-4.027,6.651-4.027,11.365
		c0,4.535,1.343,8.473,4.027,11.814c-3.46,2.805-5.639,6.294-6.533,10.471c-1.015,4.117-0.478,8.115,1.61,11.994
		c-4.176,2.506-6.98,5.488-8.411,8.949c-1.851,4.176-2.149,8.294-0.896,12.351c-4.535,1.252-7.937,3.64-10.204,7.16
		c-2.446,3.52-3.58,7.428-3.4,11.724c-4.534,0.239-8.353,1.79-11.455,4.654c-3.282,2.864-5.222,6.444-5.817,10.74l-3.134-0.269
		c-3.639,0-7.01,1.134-10.111,3.4c-3.104,2.268-5.37,5.132-6.804,8.592c-1.849-0.775-4.116-1.163-6.801-1.163
		c-6.564,0-11.726,2.774-15.483,8.323c-2.625-2.029-5.907-3.043-9.844-3.043c-5.133,0-9.459,1.82-12.979,5.459
		c-3.7-3.639-8.115-5.459-13.247-5.459c-3.758,0-7.069,1.014-9.934,3.043c-3.521-5.549-8.682-8.323-15.483-8.323
		c-2.685,0-4.833,0.388-6.444,1.163c-1.432-3.46-3.7-6.324-6.801-8.592c-3.282-2.267-6.773-3.4-10.472-3.4l-3.133,0.269
		c-0.597-4.296-2.446-7.876-5.548-10.74c-3.282-2.864-7.101-4.415-11.456-4.654c0-4.772-1.224-8.681-3.67-11.724
		c-2.446-3.699-5.757-6.086-9.934-7.16c1.074-4.295,0.686-8.413-1.163-12.351c-1.433-3.461-4.236-6.443-8.414-8.949
		c2.089-3.879,2.626-7.877,1.611-11.994c-0.835-4.177-3.013-7.666-6.534-10.471c2.924-3.58,4.386-7.518,4.386-11.814
		c0-4.296-1.462-8.084-4.386-11.365c3.282-2.685,5.46-6.206,6.534-10.562c0.776-4.116,0.238-8.233-1.611-12.351
		c4.177-2.088,6.981-5.072,8.414-8.95c1.849-3.698,2.237-7.696,1.163-11.992c4.177-1.253,7.488-3.64,9.934-7.16
		c2.446-3.043,3.67-6.951,3.67-11.725c4.355-0.238,8.174-1.761,11.456-4.563c3.102-2.924,4.952-6.563,5.548-10.919h3.133
		c3.699,0,7.189-1.014,10.472-3.043c3.102-2.267,5.37-5.161,6.801-8.681c1.611,0.835,3.759,1.253,6.444,1.253
		c6.801,0,11.962-2.774,15.483-8.323c3.521,2.029,6.832,3.043,9.934,3.043c4.714,0,9.129-1.82,13.247-5.46
		c3.699,3.64,8.024,5.46,12.979,5.46c3.459,0,6.741-1.015,9.844-3.043C226.615,87.403,231.776,90.178,238.341,90.178z"/>
	<path fill-rule="evenodd" clip-rule="evenodd" fill="#3C5459" d="M262.773,155.959l2.774,5.817l6.443,0.985l-4.653,4.385
		l0.984,6.443l-5.549-3.132l-5.638,3.132l0.983-6.443l-4.295-4.385l6.085-0.985L262.773,155.959z M233.06,207.6h-70.792v-2.506
		h70.792V207.6z M218.203,228.005l-10.113,10.113l2.416,13.873l-12.619-6.444l-12.978,6.444l2.417-13.873l-10.113-10.113
		l14.14-1.879l6.534-13.067l6.085,13.067L218.203,228.005z M136.044,173.59l-5.46-3.132l-5.906,3.132l1.252-6.443l-4.653-4.385
		l6.443-0.985l2.864-5.817l2.775,5.817l6.175,0.985l-4.654,4.385L136.044,173.59z"/>
</g>
</svg>
