<?xml version="1.0" encoding="utf-8"?>
<!-- Generator: Adobe Illustrator 16.0.0, SVG Export Plug-In . SVG Version: 6.00 Build 0)  -->
<!DOCTYPE svg PUBLIC "-//W3C//DTD SVG 1.1//EN" "http://www.w3.org/Graphics/SVG/1.1/DTD/svg11.dtd">
<svg version="1.1" id="Layer_1" xmlns="http://www.w3.org/2000/svg" xmlns:xlink="http://www.w3.org/1999/xlink" x="0px" y="0px"
	 width="400px" height="400px" viewBox="0 0 400 400" enable-background="new 0 0 400 400" xml:space="preserve">
<g>
	<path fill-rule="evenodd" clip-rule="evenodd" fill="#F5F5C2" d="M247.851,82.184c0.633,0.272,1.266,0.544,1.899,0.814
		c15.565,6.606,29.185,15.747,40.86,27.421c24.976,25.429,37.465,55.609,37.465,90.541c0,17.285-3.349,33.846-10.046,49.682
		c-6.696,15.566-15.836,29.186-27.419,40.86c-11.676,11.855-25.295,20.995-40.86,27.421c-15.836,6.695-32.397,10.044-49.682,10.044
		c-10.68,0-20.86-1.131-30.543-3.394c-22.534-5.248-42.534-16.605-59.999-34.071c-11.674-11.675-20.859-25.294-27.556-40.86
		c-6.607-15.836-9.909-32.396-9.909-49.682c0-34.932,12.487-65.112,37.465-90.541c25.43-24.977,55.61-37.466,90.542-37.466
		C216.629,72.953,232.557,76.03,247.851,82.184z M200.068,111.912c-10.95,0-21.131,1.72-30.543,5.158
		c-12.037,4.253-22.896,11.312-32.579,21.176c-17.285,17.285-25.928,38.19-25.928,62.714c0,24.706,8.643,45.746,25.928,63.121
		c9.683,9.683,20.542,16.651,32.579,20.905c9.412,3.349,19.593,5.021,30.543,5.021c24.706,0,45.699-8.642,62.984-25.927
		c17.376-17.375,26.063-38.415,26.063-63.121c0-24.523-8.688-45.429-26.063-62.714C245.768,120.69,224.774,111.912,200.068,111.912z
		"/>
	<path fill-rule="evenodd" clip-rule="evenodd" fill="#76A78A" d="M309.885,51.37c1.72,1.719,2.579,3.71,2.579,5.973
		c0.271,4.706,2.127,8.642,5.565,11.811c3.44,3.257,7.647,4.886,12.625,4.886h1.086c1.991,0,3.982,0.724,5.972,2.171
		c1.449,1.539,2.173,3.531,2.173,5.974v1.493l-0.407,2.579c0,4.435,1.493,8.417,4.479,11.945c2.715,3.167,6.289,5.113,10.724,5.837
		c2.263,0.271,4.027,1.268,5.294,2.986c1.176,1.268,1.765,2.896,1.765,4.888c0,1.448-0.226,2.534-0.679,3.257l-1.086,6.381
		c0,8.145,3.801,13.846,11.403,17.104c3.711,1.449,5.564,3.892,5.564,7.33c0,1.538-0.451,3.167-1.357,4.887
		c-1.99,3.168-2.986,6.38-2.986,9.639c0,6.153,2.715,11.222,8.145,15.203c2.715,1.72,4.072,3.937,4.072,6.651
		c0,2.263-0.858,4.254-2.578,5.973c-3.53,3.167-5.295,7.375-5.295,12.624c0,5.158,1.765,9.367,5.295,12.624
		c1.72,1.991,2.578,3.982,2.578,5.974c0,2.895-1.357,5.203-4.072,6.922c-5.43,3.53-8.145,8.507-8.145,14.933
		c0,3.438,0.996,6.787,2.986,10.046c0.906,1.176,1.357,2.76,1.357,4.75c0,3.258-1.854,5.61-5.564,7.06
		c-7.603,3.257-11.403,8.958-11.403,17.104c0,2.442,0.362,4.524,1.086,6.243c0.453,0.725,0.679,1.856,0.679,3.394
		c0,1.721-0.589,3.438-1.765,5.159c-1.539,1.538-3.304,2.398-5.294,2.579c-4.435,0.724-8.009,2.851-10.724,6.38
		c-2.986,3.438-4.479,7.239-4.479,11.403l0.407,2.715v1.765c0,2.263-0.724,4.117-2.173,5.564c-0.995,1.539-2.984,2.309-5.972,2.309
		h-1.086c-3.62,0-6.878,0.95-9.773,2.85c-0.815,0.543-1.63,1.178-2.443,1.9c-3.53,3.259-5.521,7.331-5.974,12.218
		c0,2.534-0.859,4.389-2.579,5.564c-0.995,1.539-2.761,2.309-5.294,2.309l-7.059-1.086c-3.891,0-7.466,1.222-10.725,3.665
		c-3.166,2.443-5.383,5.656-6.65,9.638c-1.447,4.163-4.027,6.245-7.737,6.245c-1.268,0-2.625-0.363-4.073-1.087
		c-2.986-1.176-5.611-1.765-7.872-1.765c-7.421,0-12.851,3.304-16.29,9.909c-1.719,2.986-4.072,4.48-7.059,4.48
		c-2.263,0-4.117-0.589-5.564-1.766c-2.715-2.806-6.426-4.208-11.132-4.208c-5.701,0-10.407,2.264-14.118,6.787
		c-1.719,2.172-3.801,3.259-6.243,3.259c-2.263,0-4.39-1.087-6.38-3.259c-3.711-4.523-8.417-6.787-14.119-6.787
		c-4.434,0-8.145,1.402-11.13,4.208c-1.449,1.177-3.303,1.766-5.566,1.766c-2.715,0-5.068-1.494-7.059-4.48
		c-3.438-6.605-8.732-9.909-15.881-9.909c-2.535,0-5.25,0.589-8.145,1.765l-4.072,1.087c-3.711,0-6.335-2.082-7.875-6.245
		c-0.996-3.981-3.077-7.194-6.244-9.638c-3.529-2.443-7.239-3.665-11.131-3.665l-7.059,1.086c-2.261,0-3.981-0.77-5.158-2.309
		c-1.267-0.994-2.171-2.85-2.715-5.564c-0.18-4.706-2.036-8.778-5.565-12.218c-3.438-3.166-7.647-4.75-12.624-4.75h-1.087
		c-2.443,0-4.389-0.77-5.836-2.309c-1.538-1.447-2.308-3.302-2.308-5.564v-1.765l0.408-2.715c0-4.164-1.357-7.965-4.072-11.403
		c-2.987-3.529-6.697-5.656-11.131-6.38c-1.991-0.181-3.71-1.041-5.158-2.579c-1.267-1.721-1.901-3.438-1.901-5.159
		c0-1.537,0.227-2.669,0.679-3.394c0.814-1.719,1.222-3.801,1.222-6.243c0-8.146-3.847-13.847-11.538-17.104
		c-3.71-1.449-5.566-3.802-5.566-7.06c0-1.99,0.499-3.574,1.494-4.75c1.99-3.259,2.985-6.471,2.985-9.639
		c0-6.696-2.76-11.81-8.28-15.34c-2.715-1.719-4.073-4.027-4.073-6.922c0-1.991,0.906-3.982,2.715-5.974
		c3.438-3.257,5.158-7.466,5.158-12.624c0-5.249-1.719-9.457-5.158-12.624c-1.81-1.719-2.715-3.71-2.715-5.973
		c0-2.715,1.357-4.932,4.073-6.651c5.52-3.981,8.28-9.05,8.28-15.203c0-3.259-0.996-6.471-2.985-9.639
		c-0.996-1.72-1.494-3.349-1.494-4.887c0-3.438,1.856-5.881,5.566-7.33c7.691-3.258,11.538-8.959,11.538-17.104l-1.222-6.381
		c-0.452-0.723-0.679-1.809-0.679-3.257c0-1.991,0.634-3.62,1.901-4.888c1.176-1.447,2.896-2.442,5.158-2.986
		c4.434-0.724,8.145-2.67,11.131-5.837c2.715-3.528,4.072-7.511,4.072-11.945l-0.408-2.579v-1.493c0-2.442,0.77-4.435,2.308-5.974
		c1.901-1.447,3.847-2.171,5.836-2.171h1.087c4.976,0,9.185-1.629,12.624-4.886c3.529-3.169,5.385-7.104,5.565-11.811
		c0.544-2.443,1.448-4.434,2.715-5.973c1.177-1.448,2.897-2.172,5.158-2.172l7.059,1.086c4.163,0,7.873-1.223,11.131-3.666
		c3.167-2.533,5.248-5.746,6.244-9.637c1.539-4.254,4.164-6.381,7.875-6.381l4.072,1.086c2.171,1.268,4.886,1.901,8.145,1.901
		c7.149,0,12.442-3.214,15.881-9.639c1.72-3.257,4.072-4.887,7.059-4.887c1.991,0,3.847,0.769,5.566,2.308
		c3.257,2.443,6.967,3.666,11.13,3.666c5.702,0,10.408-2.218,14.119-6.652c1.719-1.991,3.845-2.986,6.38-2.986
		c2.442,0,4.524,0.995,6.243,2.986c3.711,4.435,8.417,6.652,14.118,6.652c4.706,0,8.417-1.223,11.132-3.666
		c1.989-1.539,3.846-2.308,5.564-2.308c2.986,0,5.34,1.63,7.059,4.887c3.439,6.425,8.869,9.639,16.29,9.639
		c2.986,0,5.61-0.634,7.872-1.901c1.448-0.724,2.896-1.086,4.345-1.086c3.528,0,6.019,2.127,7.466,6.381
		c0.996,3.891,3.212,7.104,6.65,9.637c2.987,2.443,6.563,3.666,10.725,3.666l7.059-1.086
		C307.124,49.198,308.89,49.922,309.885,51.37z M260.067,140.825c-17.015-16.561-37.013-24.84-59.999-24.84
		c-10.86,0-21.041,1.854-30.543,5.564c-10.679,4.072-20.543,10.498-29.592,19.275c-16.561,17.104-24.842,37.148-24.842,60.135
		c0,23.529,8.281,43.574,24.842,60.135c9.049,8.778,18.913,15.249,29.592,19.411c9.502,3.62,19.683,5.43,30.543,5.43
		c22.986,0,42.984-8.279,59.999-24.841c16.651-16.561,24.977-36.605,24.977-60.135C285.044,177.974,276.719,157.929,260.067,140.825
		z M200.068,111.912c24.706,0,45.699,8.778,62.984,26.334c17.376,17.285,26.063,38.19,26.063,62.714
		c0,24.706-8.688,45.746-26.063,63.121c-17.285,17.285-38.278,25.927-62.984,25.927c-10.95,0-21.131-1.673-30.543-5.021
		c-12.037-4.254-22.896-11.223-32.579-20.905c-17.285-17.375-25.928-38.415-25.928-63.121c0-24.523,8.643-45.429,25.928-62.714
		c9.683-9.864,20.542-16.923,32.579-21.176C178.938,113.632,189.118,111.912,200.068,111.912z M200.068,62.501
		c26.695,0,50.677,6.561,71.944,19.683c9.141,5.702,17.782,12.624,25.927,20.769c26.969,27.24,40.451,59.909,40.451,98.008
		c0,38.371-13.482,70.994-40.451,97.871c-14.57,14.57-30.769,25.205-48.597,31.9c-15.293,5.701-31.718,8.553-49.274,8.553
		c-38.099,0-70.769-13.484-98.008-40.453c-26.968-26.877-40.452-59.5-40.452-97.871c0-38.099,13.484-70.768,40.452-98.008
		C129.299,75.985,161.97,62.501,200.068,62.501z M249.75,82.998c-0.634-0.271-1.267-0.542-1.899-0.814
		c-15.294-6.153-31.222-9.23-47.782-9.23c-34.932,0-65.112,12.489-90.542,37.466c-24.978,25.429-37.465,55.609-37.465,90.541
		c0,17.285,3.302,33.846,9.909,49.682c6.697,15.566,15.882,29.186,27.556,40.86c17.465,17.466,37.465,28.823,59.999,34.071
		c9.683,2.263,19.863,3.394,30.543,3.394c17.284,0,33.846-3.349,49.682-10.044c15.565-6.426,29.185-15.565,40.86-27.421
		c11.583-11.675,20.723-25.294,27.419-40.86c6.697-15.836,10.046-32.396,10.046-49.682c0-34.932-12.489-65.112-37.465-90.541
		C278.935,98.745,265.315,89.604,249.75,82.998z M318.029,82.998c-0.271-0.271-0.542-0.542-0.813-0.814
		c-15.385-15.021-32.806-26.65-52.262-34.886C244.41,38.7,222.873,34.401,200.34,34.401c-22.444,0-43.937,4.299-64.479,12.896
		c-19.819,8.416-37.376,20.316-52.67,35.7c-15.384,15.295-27.284,32.851-35.701,52.67c-8.597,20.724-12.896,42.351-12.896,64.886
		c0,22.533,4.299,44.071,12.896,64.613c8.417,19.729,20.317,37.285,35.701,52.669c15.294,15.295,32.851,27.148,52.67,35.565
		c20.542,8.688,42.034,13.032,64.479,13.032c22.533,0,44.07-4.345,64.614-13.032c13.846-5.882,26.651-13.438,38.415-22.67
		c5.067-3.98,9.956-8.279,14.66-12.896c15.294-15.384,27.149-32.94,35.565-52.669c8.688-20.542,13.032-42.08,13.032-64.613
		c0-22.535-4.345-44.162-13.032-64.886C345.179,115.849,333.323,98.293,318.029,82.998z"/>
	<path fill-rule="evenodd" clip-rule="evenodd" fill="#5E4D3B" d="M306.084,91.414l1.901-0.679l0.406-0.406l-1.492,1.9l-1.901,0.407
		c-2.171-0.815-2.896-2.173-2.171-4.072c1.176-2.987,1.674-4.616,1.492-4.888c-0.271-0.271-1.764,0.453-4.479,2.172l1.492-1.764
		c1.719-1.268,3.213-1.402,4.479-0.408c1.448,1.268,1.811,2.896,1.087,4.888L306.084,91.414z M293.46,82.184
		c-0.09-0.452-0.09-0.95,0-1.492c1.268-2.987,1.674-4.571,1.223-4.751c-1.811,0.994-3.304,1.719-4.48,2.171l1.493-1.492
		c1.448-1.449,2.94-1.812,4.479-1.087c1.447,0.995,1.9,2.489,1.357,4.48c-0.182,0.904-0.316,1.628-0.406,2.171
		c-0.091,0.634-0.046,0.996,0.135,1.086l1.494-0.679l0.27-0.407l-1.085,1.901l-1.765,0.406
		C294.546,84.13,293.642,83.361,293.46,82.184z M287.623,72.547v3.394l1.493-0.679l-1.221,1.357l-1.494,0.813
		c-2.172-0.543-3.032-1.81-2.578-3.801c0.813-3.166,0.949-4.887,0.406-5.158c-1.447,1.267-2.805,2.262-4.072,2.986l1.492-1.9
		c1.72-1.719,3.077-2.081,4.072-1.086C287.17,69.469,287.804,70.826,287.623,72.547z M297.532,50.284
		c-4.162,0-7.737-1.223-10.725-3.666c-3.438-2.533-5.654-5.746-6.65-9.637c-1.447-4.254-3.938-6.381-7.466-6.381
		c-1.448,0-2.896,0.362-4.345,1.086c-2.262,1.268-4.886,1.901-7.872,1.901c-7.421,0-12.851-3.214-16.29-9.639
		c-1.719-3.257-4.072-4.887-7.059-4.887c-1.719,0-3.575,0.769-5.564,2.308c-2.715,2.443-6.426,3.666-11.132,3.666
		c-5.701,0-10.407-2.218-14.118-6.652c-1.719-1.991-3.801-2.986-6.243-2.986c-2.535,0-4.661,0.995-6.38,2.986
		c-3.711,4.435-8.417,6.652-14.119,6.652c-4.163,0-7.873-1.223-11.13-3.666c-1.719-1.539-3.575-2.308-5.566-2.308
		c-2.987,0-5.339,1.63-7.059,4.887c-3.438,6.425-8.732,9.639-15.881,9.639c-3.258,0-5.974-0.634-8.145-1.901l-4.072-1.086
		c-3.711,0-6.335,2.127-7.875,6.381c-0.996,3.891-3.077,7.104-6.244,9.637c-3.258,2.443-6.969,3.666-11.131,3.666l-7.059-1.086
		c-2.261,0-3.981,0.724-5.158,2.172c-1.267,1.539-2.171,3.529-2.715,5.973c-0.18,4.706-2.036,8.642-5.565,11.811
		c-3.438,3.257-7.647,4.886-12.624,4.886h-1.087c-1.99,0-3.936,0.724-5.836,2.171c-1.538,1.539-2.308,3.531-2.308,5.974v1.493
		l0.408,2.579c0,4.435-1.357,8.417-4.072,11.945c-2.987,3.167-6.697,5.113-11.131,5.837c-2.263,0.544-3.982,1.539-5.158,2.986
		c-1.267,1.268-1.901,2.896-1.901,4.888c0,1.448,0.227,2.534,0.679,3.257l1.222,6.381c0,8.145-3.847,13.846-11.538,17.104
		c-3.71,1.449-5.566,3.892-5.566,7.33c0,1.538,0.499,3.167,1.494,4.887c1.99,3.168,2.985,6.38,2.985,9.639
		c0,6.153-2.76,11.222-8.28,15.203c-2.715,1.72-4.073,3.937-4.073,6.651c0,2.263,0.906,4.254,2.715,5.973
		c3.438,3.167,5.158,7.375,5.158,12.624c0,5.158-1.719,9.367-5.158,12.624c-1.81,1.991-2.715,3.982-2.715,5.974
		c0,2.895,1.357,5.203,4.073,6.922c5.52,3.53,8.28,8.644,8.28,15.34c0,3.168-0.996,6.38-2.985,9.639
		c-0.996,1.176-1.494,2.76-1.494,4.75c0,3.258,1.856,5.61,5.566,7.06c7.691,3.257,11.538,8.958,11.538,17.104
		c0,2.442-0.408,4.524-1.222,6.243c-0.452,0.725-0.679,1.856-0.679,3.394c0,1.721,0.634,3.438,1.901,5.159
		c1.448,1.538,3.167,2.398,5.158,2.579c4.434,0.724,8.145,2.851,11.131,6.38c2.715,3.438,4.072,7.239,4.072,11.403l-0.408,2.715
		v1.765c0,2.263,0.77,4.117,2.308,5.564c1.447,1.539,3.394,2.309,5.836,2.309h1.087c4.976,0,9.185,1.584,12.624,4.75
		c3.529,3.439,5.385,7.512,5.565,12.218c0.544,2.715,1.448,4.57,2.715,5.564c1.177,1.539,2.897,2.309,5.158,2.309l7.059-1.086
		c3.892,0,7.603,1.222,11.131,3.665c3.167,2.443,5.248,5.656,6.244,9.638c1.539,4.163,4.164,6.245,7.875,6.245l4.072-1.087
		c2.895-1.176,5.61-1.765,8.145-1.765c7.149,0,12.442,3.304,15.881,9.909c1.991,2.986,4.344,4.48,7.059,4.48
		c2.263,0,4.118-0.589,5.566-1.766c2.985-2.806,6.696-4.208,11.13-4.208c5.702,0,10.408,2.264,14.119,6.787
		c1.99,2.172,4.117,3.259,6.38,3.259c2.442,0,4.524-1.087,6.243-3.259c3.711-4.523,8.417-6.787,14.118-6.787
		c4.706,0,8.417,1.402,11.132,4.208c1.447,1.177,3.302,1.766,5.564,1.766c2.986,0,5.34-1.494,7.059-4.48
		c3.439-6.605,8.869-9.909,16.29-9.909c2.261,0,4.886,0.589,7.872,1.765c1.448,0.724,2.806,1.087,4.073,1.087
		c3.71,0,6.29-2.082,7.737-6.245c1.268-3.981,3.484-7.194,6.65-9.638c3.259-2.443,6.834-3.665,10.725-3.665l7.059,1.086
		c2.533,0,4.299-0.77,5.294-2.309c1.72-1.176,2.579-3.03,2.579-5.564c0.452-4.887,2.443-8.959,5.974-12.218
		c0.813-0.723,1.628-1.357,2.443-1.9c2.896-1.899,6.153-2.85,9.773-2.85h1.086c2.987,0,4.977-0.77,5.972-2.309
		c1.449-1.447,2.173-3.302,2.173-5.564v-1.765l-0.407-2.715c0-4.164,1.493-7.965,4.479-11.403c2.715-3.529,6.289-5.656,10.724-6.38
		c1.99-0.181,3.755-1.041,5.294-2.579c1.176-1.721,1.765-3.438,1.765-5.159c0-1.537-0.226-2.669-0.679-3.394
		c-0.724-1.719-1.086-3.801-1.086-6.243c0-8.146,3.801-13.847,11.403-17.104c3.711-1.449,5.564-3.802,5.564-7.06
		c0-1.99-0.451-3.574-1.357-4.75c-1.99-3.259-2.986-6.607-2.986-10.046c0-6.426,2.715-11.402,8.145-14.933
		c2.715-1.719,4.072-4.027,4.072-6.922c0-1.991-0.858-3.982-2.578-5.974c-3.53-3.257-5.295-7.466-5.295-12.624
		c0-5.249,1.765-9.457,5.295-12.624c1.72-1.719,2.578-3.71,2.578-5.973c0-2.715-1.357-4.932-4.072-6.651
		c-5.43-3.981-8.145-9.05-8.145-15.203c0-3.259,0.996-6.471,2.986-9.639c0.906-1.72,1.357-3.349,1.357-4.887
		c0-3.438-1.854-5.881-5.564-7.33c-7.603-3.258-11.403-8.959-11.403-17.104l1.086-6.381c0.453-0.723,0.679-1.809,0.679-3.257
		c0-1.991-0.589-3.62-1.765-4.888c-1.267-1.719-3.031-2.715-5.294-2.986c-4.435-0.724-8.009-2.67-10.724-5.837
		c-2.986-3.528-4.479-7.511-4.479-11.945l0.407-2.579v-1.493c0-2.442-0.724-4.435-2.173-5.974c-1.989-1.447-3.98-2.171-5.972-2.171
		h-1.086c-4.978,0-9.185-1.629-12.625-4.886c-3.438-3.169-5.294-7.104-5.565-11.811c0-2.263-0.859-4.254-2.579-5.973
		c-0.995-1.448-2.761-2.172-5.294-2.172L297.532,50.284z M315.044,46.212c2.443,2.443,3.936,5.928,4.479,10.452
		c0.271,2.896,1.357,5.339,3.257,7.329c2.263,1.991,4.888,2.987,7.874,2.987h1.086c4.435,0,8.145,1.493,11.132,4.479
		c2.715,2.715,4.072,6.289,4.072,10.724v2.58l-0.408,1.492c0,2.535,0.859,4.887,2.579,7.06c1.81,2.263,4.072,3.62,6.787,4.072
		c3.438,0.271,6.652,1.899,9.638,4.886c2.172,2.716,3.258,5.929,3.258,9.639c0,2.172-0.361,4.163-1.086,5.972l-0.678,3.666
		c0,5.158,2.353,8.597,7.059,10.316c6.605,2.534,9.909,7.24,9.909,14.117c0,3.259-0.86,6.109-2.58,8.552
		c-1.176,1.991-1.765,3.982-1.765,5.974c0,3.98,1.72,7.059,5.158,9.23c4.706,3.258,7.06,7.466,7.06,12.624
		c0,4.254-1.63,7.827-4.887,10.724c-1.991,2.533-2.986,5.158-2.986,7.873s0.995,5.295,2.986,7.738
		c3.257,2.986,4.887,6.605,4.887,10.859c0,5.43-2.354,9.729-7.06,12.896c-3.438,1.991-5.158,4.978-5.158,8.959
		c0,2.173,0.589,4.163,1.765,5.974c1.72,2.715,2.58,5.656,2.58,8.822c0,6.696-3.304,11.268-9.909,13.71
		c-4.706,2.263-7.059,5.747-7.059,10.453l1.764,9.637c0,3.982-1.086,7.196-3.258,9.639c-2.715,2.715-5.928,4.435-9.638,5.158
		c-2.533,0.544-4.796,1.81-6.787,3.801c-1.72,1.901-2.579,4.209-2.579,6.924l0.408,1.899v2.58c0,3.891-1.313,7.466-3.938,10.723
		l-0.135,0.137c-3.259,2.715-6.969,4.072-11.132,4.072h-1.086c-2.986,0-5.611,0.95-7.874,2.85c-1.899,1.991-2.985,4.479-3.257,7.467
		c-0.544,4.434-2.036,7.918-4.479,10.452c-3.258,2.715-6.742,4.072-10.453,4.072c-1.9,0-3.348-0.271-4.344-0.813h-2.715
		c-5.43-0.454-9.005,2.171-10.725,7.873c-1.989,7.601-6.787,11.401-14.388,11.401c-2.716,0-5.068-0.587-7.06-1.765l-4.886-1.086
		c-4.706,0-8.055,1.946-10.046,5.837c-2.715,5.702-7.148,8.552-13.303,8.552c-3.982,0-7.194-1.221-9.637-3.664
		c-2.264-1.539-4.616-2.308-7.06-2.308c-3.438,0-6.29,1.357-8.552,4.072c-3.168,3.98-7.104,5.972-11.81,5.972
		s-8.688-1.991-11.945-5.972c-2.173-2.715-5.023-4.072-8.553-4.072c-2.715,0-4.931,0.905-6.651,2.715h-0.407
		c-2.715,2.171-5.928,3.257-9.639,3.257c-6.154,0-10.588-2.85-13.303-8.552c-1.991-3.891-5.203-5.837-9.637-5.837l-5.159,1.086
		c-1.81,1.178-4.163,1.765-7.058,1.765c-3.53,0-6.517-0.949-8.96-2.851c-2.715-2.263-4.57-5.112-5.565-8.551
		c-1.719-5.702-5.294-8.327-10.724-7.873h-2.579c-0.995,0.542-2.489,0.813-4.48,0.813c-3.71,0-7.194-1.357-10.451-4.072
		c-2.444-2.534-3.937-6.019-4.48-10.452c-0.181-2.987-1.266-5.476-3.257-7.467c-2.263-1.899-4.888-2.85-7.873-2.85h-1.087
		c-4.434,0-8.145-1.494-11.13-4.479c-2.715-2.715-4.072-6.2-4.072-10.452v-2.987l0.407-1.492c0-2.715-0.86-5.022-2.58-6.924
		c-1.991-1.991-4.208-3.257-6.65-3.801c-3.71-0.724-6.924-2.443-9.639-5.158c-2.262-2.442-3.394-5.656-3.394-9.639l1.901-9.637
		c0-4.706-2.353-8.19-7.059-10.453c-6.697-2.442-10.045-7.014-10.045-13.71c0-3.166,0.86-6.107,2.58-8.822
		c1.267-1.811,1.901-3.666,1.901-5.566c0-4.253-1.766-7.375-5.295-9.366c-4.706-3.167-7.059-7.466-7.059-12.896
		c0-4.254,1.629-7.873,4.888-10.859c1.99-2.443,2.985-5.023,2.985-7.738s-0.996-5.34-2.985-7.873
		c-3.259-2.896-4.888-6.47-4.888-10.724c0-5.158,2.353-9.366,7.059-12.624c3.529-2.172,5.295-5.25,5.295-9.23
		c0-1.991-0.634-3.982-1.901-5.974c-1.72-2.442-2.58-5.293-2.58-8.552c0-6.877,3.348-11.583,10.045-14.117
		c4.706-1.72,7.059-5.158,7.059-10.316l-0.815-3.666c-0.724-1.809-1.086-3.8-1.086-5.972c0-3.71,1.132-6.923,3.394-9.639
		c2.896-2.986,6.108-4.614,9.639-4.886c2.715-0.452,4.931-1.81,6.65-4.072c1.719-2.173,2.58-4.524,2.58-7.06l-0.407-1.492v-2.58
		c0-4.435,1.357-8.009,4.072-10.724c2.985-2.986,6.696-4.479,11.13-4.479h1.087c2.985,0,5.61-0.996,7.873-2.987
		c1.991-1.99,3.077-4.434,3.257-7.329c0.543-4.524,2.036-8.009,4.48-10.452c3.257-2.715,6.741-4.072,10.451-4.072l7.059,1.085
		c5.43,0,9.005-2.715,10.724-8.145c0.996-3.438,2.851-6.288,5.565-8.552c2.443-1.99,5.43-2.986,8.96-2.986
		c2.171,0,4.524,0.634,7.058,1.9l5.159,1.086c4.434,0,7.646-1.99,9.637-5.973c2.987-5.61,7.421-8.416,13.303-8.416
		c3.982,0,7.331,1.222,10.045,3.664c1.991,1.449,4.208,2.174,6.651,2.174c3.71,0,6.562-1.357,8.553-4.073
		c3.257-4.163,7.239-6.019,11.945-5.565c4.706-0.453,8.642,1.402,11.81,5.565c1.99,2.716,4.842,4.073,8.552,4.073
		c2.715,0,4.932-0.725,6.651-2.174h0.408c2.442-2.442,5.654-3.664,9.637-3.664c6.154,0,10.588,2.806,13.303,8.416
		c1.991,3.982,5.34,5.973,10.046,5.973l4.886-1.086c2.443-1.267,4.888-1.9,7.331-1.9c3.257,0,6.243,0.996,8.958,2.986
		c2.443,2.264,4.163,5.113,5.158,8.552c1.72,5.43,5.295,8.145,10.725,8.145l7.059-1.085
		C308.302,42.14,311.786,43.497,315.044,46.212z M315.044,85.849c31.674,31.945,47.511,70.316,47.511,115.111
		c0,44.977-15.837,83.303-47.511,114.977c-5.43,5.43-10.996,10.36-16.697,14.795c-28.234,21.811-60.994,32.715-98.278,32.715
		c-44.796,0-83.166-15.837-115.111-47.51c-31.675-31.674-47.511-70-47.511-114.977c0-44.795,15.836-83.166,47.511-115.111
		c31.945-31.582,70.315-47.375,115.111-47.375c43.166,0,80.224,14.57,111.174,43.71C312.509,83.361,313.776,84.582,315.044,85.849z
		 M310.156,92.637c2.263-0.996,3.756-1.131,4.479-0.407c0.996,1.266,1.494,2.126,1.494,2.578c0,0.271-0.227,0.996-0.679,2.173
		l-0.815,3.394l1.494-0.679h0.813l-1.899,1.493h-1.9c-2.172-0.814-2.67-2.217-1.493-4.208c1.266-2.896,1.765-4.48,1.493-4.751
		c-1.72,0.724-3.168,1.357-4.345,1.899L310.156,92.637z M308.257,82.184c-13.305-12.397-28.461-22.171-45.475-29.32
		c-19.819-8.416-40.723-12.625-62.714-12.625c-22.081,0-42.986,4.209-62.714,12.625c-19.094,8.146-36.063,19.638-50.904,34.479
		c-14.842,14.842-26.335,31.81-34.479,50.904c-8.415,19.819-12.624,40.724-12.624,62.714c0,21.991,4.209,42.895,12.624,62.715
		c8.145,19.275,19.638,36.334,34.479,51.176c14.842,14.84,31.81,26.334,50.904,34.479c20,8.416,40.905,12.623,62.714,12.623
		c21.719,0,42.622-4.207,62.714-12.623c11.584-4.979,22.398-11.177,32.442-18.598c6.425-4.796,12.534-10.09,18.325-15.881
		c14.842-14.842,26.335-31.9,34.479-51.176c8.417-19.82,12.624-40.724,12.624-62.715c0-21.99-4.207-42.895-12.624-62.714
		c-8.145-19.095-19.638-36.063-34.479-50.904C311.831,85.532,310.066,83.813,308.257,82.184z M277.171,63.587
		c0.271,0.543,0.271,1.448,0,2.715c0,2.172,0.135,3.258,0.406,3.258l1.494-1.494l-1.087,1.901l-1.492,0.679
		c-2.263,0-3.259-1.086-2.987-3.258c0.725-3.258,0.861-4.977,0.407-5.158c-0.271-0.272-1.674,0.814-4.208,3.258l1.223-1.9
		c1.447-1.9,2.805-2.488,4.072-1.765C276.446,62.546,277.171,63.135,277.171,63.587z M236.312,50.69
		c1.267-1.99,2.534-2.85,3.801-2.578c1.72,0.452,2.715,1.673,2.987,3.664c0.452,1.991,0.813,2.986,1.085,2.986l1.086-1.085
		l0.407-0.814l-0.813,2.307l-1.494,1.494c-2.172,0.181-3.395-0.724-3.664-2.715c-0.271-3.167-0.634-4.888-1.088-5.158
		c-0.541,0-1.537,1.357-2.984,4.072L236.312,50.69z M257.216,57.343l-0.813,1.899l-1.494,1.087c-2.443,0-3.664-0.859-3.664-2.579
		c0-3.529-0.137-5.295-0.408-5.295c-0.271-0.181-1.403,1.087-3.394,3.802l0.814-2.308c1.268-1.901,2.488-2.625,3.666-2.173
		c1.719,0.453,2.715,1.811,2.985,4.072c0,1.721,0.271,2.715,0.815,2.986L257.216,57.343z M259.796,58.021
		c1.176-1.72,2.533-2.308,4.072-1.765c1.447,0.725,2.308,2.217,2.578,4.479c0,1.899,0.137,2.851,0.408,2.851l1.492-1.357
		l-1.222,2.172l-1.493,0.68c-2.171,0-3.121-0.951-2.85-2.852c0.18-3.258,0.045-5.023-0.408-5.294
		c-0.542-0.181-1.674,0.949-3.394,3.394L259.796,58.021z M197.081,48.383l-1.086,1.901c-1.99,0.995-3.393,0.498-4.208-1.493
		c-1.176-2.986-2.036-4.48-2.579-4.48c-0.182,0-0.678,1.629-1.493,4.888l-0.271-2.308c0.451-2.172,1.311-3.394,2.578-3.666
		c1.991,0,3.484,0.86,4.479,2.58s1.584,2.578,1.766,2.578l0.407-1.492l0.406-0.272V48.383z M184.051,49.198l0.407-1.494l0.407-0.813
		v2.308l-0.813,1.899c-1.991,1.177-3.485,0.771-4.481-1.221c-1.176-2.896-2.036-4.254-2.578-4.072c-0.272,0-0.769,1.629-1.494,4.886
		l-0.407-2.308c0.543-2.171,1.447-3.394,2.715-3.664c1.719-0.271,3.168,0.362,4.344,1.899
		C183.145,48.338,183.779,49.198,184.051,49.198z M226.401,46.212c-0.542,0-1.402,1.492-2.578,4.479l0.271-2.308
		c0.996-2.171,2.262-3.122,3.801-2.851c1.9,0.181,2.986,1.268,3.258,3.259l1.086,2.985l1.222-1.492l0.271-0.407l-0.679,2.308
		l-1.086,1.086c-2.263,0.724-3.529,0-3.801-2.173C227.442,47.841,226.854,46.212,226.401,46.212z M214.05,44.719
		c-0.182,0-0.906,1.493-2.172,4.479l0.407-2.308c0.452-2.172,1.447-3.259,2.986-3.259c1.448,0.271,2.443,0.634,2.985,1.087
		l0.679,2.172l1.494,2.986l0.679-1.494l0.407-0.271l-0.407,1.765l-1.086,1.493c-2.172,0.723-3.529,0-4.072-2.172
		C215.226,45.939,214.593,44.447,214.05,44.719z M209.298,48.791l-1.085,1.493c-2.263,0.995-3.62,0.498-4.072-1.493
		c-1.268-3.168-2.036-4.751-2.308-4.751c-0.182,0-0.906,1.447-2.172,4.343v-2.171c0.724-2.264,1.719-3.395,2.985-3.395
		c1.991,0.272,3.349,1.268,4.072,2.987l1.494,2.986l1.085-2.173V48.791z M200.068,55.442c-19.82,0-38.643,3.846-56.471,11.538
		c-17.556,7.421-33.031,17.828-46.424,31.221c-13.304,13.303-23.665,28.733-31.086,46.29c-7.692,17.827-11.538,36.65-11.538,56.469
		s3.846,38.598,11.538,56.334c7.421,17.557,17.782,33.031,31.086,46.425c13.393,13.394,28.868,23.801,46.424,31.222
		c17.828,7.602,36.651,11.401,56.471,11.401c19.728,0,38.505-3.8,56.334-11.401c3.077-1.268,6.108-2.67,9.095-4.209
		c13.845-6.968,26.289-15.973,37.33-27.013c13.303-13.394,23.664-28.868,31.084-46.425c7.693-17.736,11.539-36.516,11.539-56.334
		s-3.846-38.642-11.539-56.469c-7.42-17.557-17.781-32.987-31.084-46.29c-5.883-5.882-12.217-11.222-19.004-16.018
		c-8.507-5.974-17.647-11.04-27.421-15.203C238.573,59.288,219.796,55.442,200.068,55.442z M350.608,225.122l-1.493-1.221
		c-0.182-0.453-0.182-1.042,0-1.766c0-1.266,0.769-2.036,2.308-2.307c3.167-0.724,4.752-1.223,4.752-1.494
		c-1.72-0.995-3.169-1.854-4.345-2.578l2.171,0.407c2.264,0.452,3.259,1.584,2.987,3.394c-0.272,1.719-1.402,2.941-3.394,3.665
		l-2.986,1.086l1.494,1.086L350.608,225.122z M354.681,203.947c2.263,0.724,3.258,1.719,2.986,2.986c0,1.72-0.859,3.077-2.578,4.072
		c-1.991,0.452-2.986,0.949-2.986,1.493l1.492,0.678h-1.492l-1.766-1.085c-0.271-0.544-0.271-1.178,0-1.901
		c0-1.266,0.588-1.991,1.766-2.171c3.256-0.996,4.886-1.765,4.886-2.308l-4.479-1.765H354.681z M356.581,193.087
		c-1.719-0.451-3.212-0.95-4.479-1.494h2.307c2.172,0,3.258,0.906,3.258,2.716c0.271,1.9-0.452,3.258-2.172,4.072
		c-1.719,0.995-2.579,1.584-2.579,1.766l1.493,0.813h-1.9l-1.492-0.813c-0.271-0.724-0.408-1.313-0.408-1.766
		c-0.181-1.267,0.316-2.126,1.494-2.579C355.358,194.535,356.853,193.63,356.581,193.087z M350.337,187.93
		c-0.271-0.454-0.408-0.951-0.408-1.494c0-1.176,0.499-2.036,1.494-2.579c2.986-1.721,4.479-2.715,4.479-2.986l-4.886-1.086
		l1.899-0.408c2.442,0,3.8,0.771,4.072,2.309c0.271,1.99-0.497,3.438-2.308,4.344l-2.578,1.901l1.492,0.813h-1.492L350.337,187.93z
		 M353.323,169.739c0.453-0.271,0.543-0.634,0.271-1.086l-4.751-1.086l2.173-0.408c2.262,0,3.619,0.724,4.072,2.173
		c0.27,1.991-0.453,3.483-2.173,4.479l-2.308,2.308l1.494,0.272h0.406l-1.9,0.406l-1.765-0.679c-1.268-1.72-1.041-3.213,0.679-4.479
		C351.513,170.645,352.78,170.011,353.323,169.739z M332.826,121.957c2.263-0.814,3.755-0.588,4.479,0.679
		c0.724,1.268,0.95,2.127,0.678,2.579c0,0.272-0.361,1.041-1.085,2.308c-1.176,1.448-1.675,2.307-1.493,2.579h1.9l-1.9,0.679
		c-0.725,0.543-1.313,0.543-1.766,0c-1.719-1.176-1.99-2.67-0.813-4.479c2.263-2.443,3.259-3.801,2.986-4.072
		c0-0.181-1.584,0.09-4.751,0.813L332.826,121.957z M326.582,115.985c2.171-2.445,3.032-3.938,2.579-4.481
		c-1.992,0.544-3.619,0.905-4.887,1.087l1.899-1.087c2.263-0.724,3.756-0.587,4.48,0.408c0.724,1.176,1.086,2.036,1.086,2.579
		c0,0.271-0.362,0.995-1.086,2.172l-1.493,2.985l1.9-0.406h0.271l-1.766,1.222h-1.899
		C325.677,119.196,325.315,117.704,326.582,115.985z M323.596,106.753l-1.494,2.852l1.901-0.271h0.271l-1.765,1.086
		c-0.544,0.451-1.177,0.451-1.901,0c-1.99-0.725-2.353-2.082-1.085-4.072c1.72-2.987,2.442-4.615,2.171-4.887
		c-1.99,0.724-3.574,1.221-4.751,1.492l1.765-1.492c2.263-0.724,3.756-0.589,4.48,0.406
		C324.185,103.134,324.319,104.762,323.596,106.753z M350.608,156.437c0-0.271-1.583-0.407-4.752-0.407l2.173-0.679
		c2.262,0,3.529,0.588,3.801,1.765c0.452,1.72-0.045,3.349-1.493,4.886c-1.539,0.996-2.308,1.72-2.308,2.173l1.899,0.407h0.408
		l-2.308,0.407l-1.765-0.407c-1.539-1.72-1.313-3.213,0.68-4.479C349.659,158.11,350.88,156.889,350.608,156.437z M347.758,145.305
		c0.724,1.72,0.317,3.304-1.222,4.751l-1.766,2.309l1.766,0.271h0.408l-2.174,0.814c-0.995,0-1.492-0.272-1.492-0.814
		c-1.719-1.449-1.719-2.807,0-4.072c2.443-2.173,3.529-3.53,3.258-4.072h-4.752l1.766-0.679
		C345.812,143.269,347.214,143.768,347.758,145.305z M342.872,141.232l-2.174,0.679l-1.898-0.406
		c-1.72-1.449-1.856-2.896-0.409-4.345c2.535-2.263,3.665-3.62,3.394-4.072l-5.158,0.272l2.174-0.68
		c2.261-0.724,3.618-0.361,4.072,1.086c0.723,1.268,0.949,2.127,0.678,2.58c0,0.271-0.453,1.04-1.357,2.307
		c-0.995,1.449-1.494,2.308-1.494,2.579H342.872z M346.944,200.96c0,40.543-14.346,75.158-43.031,103.845
		c-10.588,10.588-21.991,19.231-34.209,25.927c-20.904,11.403-44.116,17.104-69.636,17.104c-40.633,0-75.293-14.345-103.981-43.031
		c-28.687-28.687-43.03-63.302-43.03-103.845S67.4,125.757,96.087,96.98c28.688-28.688,63.348-43.031,103.981-43.031
		c32.851,0,61.809,9.411,86.876,28.234c5.882,4.435,11.539,9.367,16.969,14.797C332.599,125.757,346.944,160.417,346.944,200.96z
		 M256.402,342.678l0.407-1.9l1.492-0.679c0.996-0.544,1.855-0.317,2.58,0.679c2.442,2.534,3.8,3.528,4.072,2.986v-4.751
		l0.678,1.765c0.544,2.263,0.182,3.755-1.085,4.479c-1.177,0.724-2.173,0.995-2.987,0.814l-1.764-1.494
		c-1.539-1.537-2.398-2.171-2.58-1.899v2.172L256.402,342.678z M275.678,339.691c-1.448,0.724-3.031,0.587-4.751-0.407l-2.58-1.766
		v2.173l-1.222-1.901l0.408-1.764l1.086-1.086c1.267-0.544,2.397-0.316,3.394,0.679c2.443,1.991,3.801,2.851,4.072,2.578
		c-0.271-1.991-0.407-3.573-0.407-4.751l1.086,1.766C276.764,337.745,276.401,339.239,275.678,339.691z M235.226,347.564
		c1.267-0.272,2.262,0.09,2.986,1.085c1.991,2.443,3.121,3.666,3.394,3.666c0.182-1.991,0.407-3.574,0.679-4.751l0.406,2.171
		c0,2.264-0.632,3.485-1.898,3.666c-1.992,0.724-3.484,0.227-4.48-1.493c-1.448-1.448-2.308-2.173-2.579-2.173v2.173l-0.679-2.173
		l0.679-1.492L235.226,347.564z M246.764,344.171c1.267-0.544,2.263-0.317,2.986,0.679c1.991,2.715,3.214,3.981,3.665,3.8v-4.886
		l1.086,1.899c0,2.173-0.588,3.53-1.764,4.072c-1.539,0.453-2.398,0.679-2.58,0.679c-0.543-0.18-1.176-0.769-1.9-1.765
		c-1.267-1.266-2.126-1.899-2.579-1.899v2.172l-0.813-2.172l0.406-1.9L246.764,344.171z M221.923,351.908l-0.407,1.493v0.814
		l-0.407-2.308l0.814-1.765l1.494-0.408c1.176-0.27,2.171,0.227,2.984,1.494c1.449,2.986,2.445,4.344,2.986,4.072l1.086-4.888
		l0.272,2.309c0,2.173-0.724,3.394-2.172,3.665c-1.991,0.271-3.483-0.361-4.479-1.9
		C222.918,352.768,222.194,351.908,221.923,351.908z M211.47,351.229c1.268-0.271,2.128,0.227,2.58,1.493
		c1.539,3.167,2.533,4.661,2.986,4.479c0.542-1.992,1.041-3.619,1.492-4.887v2.172c0,2.262-0.723,3.529-2.171,3.801
		c-1.539,0.271-2.534,0.136-2.987-0.408c-0.271-0.27-0.768-0.994-1.492-2.171c-0.995-1.72-1.629-2.488-1.9-2.308l-0.68,1.494v-1.766
		l0.68-1.493L211.47,351.229z M198.167,351.908l1.494-0.271c1.266,0,2.127,0.589,2.578,1.765c0.996,3.258,1.72,4.751,2.173,4.479
		c0.813-1.99,1.448-3.573,1.899-4.75v2.172c-0.451,2.443-1.313,3.666-2.578,3.666c-1.991,0-3.349-0.861-4.072-2.58
		c-0.725-1.719-1.357-2.58-1.9-2.58l-0.68,1.494v-1.9L198.167,351.908z M184.864,352.723l1.086-1.493l1.765-0.406
		c1.267,0,2.036,0.769,2.308,2.307c0.996,3.168,1.719,4.75,2.173,4.75c0.724-1.99,1.357-3.573,1.899-4.75v2.172
		c-0.542,2.264-1.537,3.394-2.986,3.394c-1.447,0-2.443-0.271-2.985-0.815l-1.087-2.171c-0.543-1.72-1.041-2.579-1.493-2.579
		l-0.679,1.357V352.723z M286.808,331.954c0.271-0.091,0.362-0.499,0.271-1.223c-0.18-0.814-0.633-2.036-1.357-3.664l1.494,1.899
		c0.181,0.634,0.317,1.223,0.407,1.765c0.091,1.268-0.316,2.173-1.222,2.715c-1.447,0.724-3.032,0.589-4.752-0.407l-2.986-1.492
		l0.408,1.899v0.271l-1.087-1.764v-1.901c0.182-0.452,0.544-0.813,1.087-1.086c1.176-0.724,2.262-0.587,3.258,0.407
		c0.724,0.543,1.402,0.996,2.035,1.357C285.813,331.637,286.628,332.044,286.808,331.954z M304.591,311.864l1.493,1.492
		c1.268,1.991,1.402,3.485,0.407,4.479c-1.447,1.267-3.032,1.493-4.752,0.679c-1.809-0.994-2.805-1.221-2.984-0.679l0.27,1.493
		v0.407l-1.085-1.492c-0.452-0.995-0.589-1.63-0.407-1.901c0.271-0.543,0.679-1.04,1.223-1.492c0.724-0.724,1.719-0.86,2.984-0.408
		c2.896,1.539,4.481,2.172,4.752,1.9C305.767,314.624,305.134,313.13,304.591,311.864z M288.302,325.302
		c-0.453-0.542-0.588-1.176-0.406-1.899c0.27-0.544,0.678-0.905,1.221-1.086c0.995-0.815,2.081-0.815,3.258,0
		c2.533,1.991,4.027,2.715,4.479,2.171c-0.452-1.99-0.813-3.573-1.085-4.751l1.085,1.765c1.268,1.72,1.268,3.213,0,4.479
		c-1.447,0.995-3.077,1.132-4.886,0.408l-2.852-1.494v1.765L288.302,325.302z M315.451,307.385
		c-0.996-1.721-1.765-3.169-2.308-4.345l1.492,1.357c1.539,1.991,1.811,3.484,0.815,4.479c-1.268,1.538-2.896,1.901-4.888,1.086
		c-1.99-0.452-2.985-0.542-2.985-0.271l0.407,1.493l-1.086-1.222l-0.408-1.765c0.271-0.543,0.543-1.041,0.814-1.492
		c0.725-0.725,1.675-0.86,2.851-0.408C313.415,307.564,315.179,307.927,315.451,307.385z M318.438,297.067l3.664,1.494
		c0.726,0.18,1.222,0.045,1.494-0.408l-2.58-4.479l1.765,1.493c1.268,1.72,1.539,3.213,0.815,4.479
		c-0.995,1.448-2.489,1.945-4.479,1.493c-2.263-0.543-3.394-0.679-3.394-0.407l0.813,1.493l0.407,0.408l-1.899-1.494l-0.408-1.9
		c0.271-0.453,0.543-0.95,0.815-1.493C316.175,296.75,317.171,296.524,318.438,297.067z M323.188,291.095l0.814,1.493l0.271,0.407
		l-1.765-1.493l-0.408-1.494c0-0.542,0.227-1.04,0.679-1.492c0.543-0.995,1.539-1.357,2.986-1.086
		c3.259,0.995,5.023,1.221,5.295,0.679l-2.986-4.072l1.764,1.086c1.268,1.991,1.675,3.483,1.223,4.479
		c-0.996,1.268-2.489,1.765-4.479,1.494H323.188z M337.306,277.384c-1.268-1.447-2.262-2.67-2.987-3.665l1.901,1.087
		c1.99,1.176,2.488,2.533,1.492,4.072c-0.724,1.266-1.492,1.991-2.307,2.172c-0.182,0-0.905-0.09-2.172-0.271
		c-1.992,0-3.122,0.091-3.395,0.271l1.494,1.492l-1.766-1.086l-0.814-1.492c0-0.452,0.136-0.95,0.408-1.494
		c0.453-1.266,1.447-1.765,2.986-1.492C335.313,277.701,337.033,277.836,337.306,277.384z M342.872,266.253
		c0-0.271-1.133-1.492-3.395-3.664l1.9,1.086c1.99,1.176,2.625,2.397,1.9,3.665c-0.543,1.266-1.041,2.126-1.494,2.578
		c-0.27,0-1.131,0-2.578,0c-1.991,0-3.121,0.137-3.394,0.407l1.086,1.494l0.407,0.406l-1.9-1.222l-1.087-1.357
		c0-2.533,1.132-3.664,3.394-3.394C341.152,266.524,342.872,266.524,342.872,266.253z M344.364,258.787
		c-1.991,0-3.122,0.271-3.394,0.815l1.493,1.085l0.408,0.407l-2.174-1.221l-1.221-1.357c0-0.544,0.136-1.042,0.407-1.494
		c0.272-1.266,1.131-1.899,2.579-1.899c3.529,0,5.294-0.137,5.294-0.408c0-0.271-1.268-1.357-3.801-3.257l1.899,0.678
		c1.991,1.267,2.715,2.488,2.173,3.666C347.576,257.611,346.355,258.606,344.364,258.787z M347.351,239.919l2.172,0.407
		c1.99,1.177,2.852,2.397,2.58,3.665c-0.454,1.991-1.675,3.122-3.666,3.395c-1.991,0-2.986,0.227-2.986,0.678l1.494,1.493
		l-2.174-0.813l-1.221-1.357c0-0.544,0.136-1.178,0.407-1.901c0.272-0.996,1.041-1.63,2.308-1.899c3.439,0,5.158-0.227,5.158-0.68
		C349.704,241.639,348.347,240.644,347.351,239.919z M352.103,228.381c2.261,0.542,3.256,1.675,2.986,3.394
		c-0.453,1.991-1.675,3.077-3.666,3.257l-2.986,1.223l1.9,1.357l-2.308-0.679l-1.085-1.086c0-0.543,0-1.177,0-1.9
		c0.27-0.996,0.995-1.63,2.171-1.9c3.528-0.724,5.294-1.177,5.294-1.357c0-0.543-1.493-1.448-4.48-2.715L352.103,228.381z
		 M60.115,256.208c0.272,0.996-0.09,1.992-1.085,2.987c-2.443,2.262-3.574,3.619-3.394,4.072c0.272,0.271,2.036,0.136,5.295-0.408
		l-2.308,1.222c-2.443,0-3.801-0.498-4.072-1.492c-0.724-1.811-0.452-3.438,0.814-4.888c1.449-1.447,2.172-2.308,2.172-2.578h-2.172
		l1.766-0.815l1.9,0.407L60.115,256.208z M53.464,242.905l1.9,0.271c0,0.271,0.227,0.905,0.679,1.9
		c0.271,0.996-0.09,1.855-1.086,2.58c-2.443,2.262-3.665,3.528-3.665,3.801c0.182,0.18,1.901,0.271,5.159,0.271l-2.308,0.813
		c-2.172,0-3.53-0.498-4.072-1.492c-0.724-1.721-0.317-3.349,1.221-4.888c1.449-1.447,2.172-2.309,2.172-2.578h-2.172
		L53.464,242.905z M52.378,231.774c1.448,1.72,1.176,3.212-0.815,4.479c-2.443,1.901-3.666,2.986-3.666,3.259
		c0.272,0.542,1.856,0.813,4.751,0.813l-2.171,0.271c-2.263,0-3.484-0.589-3.666-1.765c-0.542-1.99-0.045-3.484,1.494-4.48
		l2.171-2.307l-1.493-0.271h-0.679l2.171-0.815L52.378,231.774z M172.512,352.723l0.407-1.899l1.086-1.088h1.901
		c1.266,0,1.99,0.634,2.171,1.901c0.814,3.438,1.313,5.158,1.493,5.158c0.996-1.72,1.856-3.212,2.58-4.479l-0.271,2.172
		c-0.814,2.262-1.946,3.258-3.394,2.986c-1.72-0.181-2.94-1.266-3.666-3.258c-0.542-1.721-0.904-2.715-1.085-2.986L172.512,352.723z
		 M169.933,350.414l-0.407,2.309c-0.724,2.173-1.811,3.031-3.258,2.579c-1.991-0.543-3.122-1.674-3.394-3.394
		c-0.452-1.991-0.814-3.077-1.085-3.259l-1.086,1.494l0.407-1.9l1.492-1.086h1.766c0.996,0.271,1.628,1.131,1.899,2.578
		c0.272,3.169,0.634,4.752,1.086,4.752C167.896,354.759,168.757,353.401,169.933,350.414z M151.063,343.764l1.766,0.407
		c0.996,0.271,1.493,0.995,1.493,2.171c0,3.53,0.272,5.295,0.814,5.295c0.454,0,1.539-1.357,3.259-4.072l-0.679,2.171
		c-1.268,1.991-2.488,2.852-3.666,2.58c-1.268-0.452-2.126-0.95-2.579-1.492c0-0.272-0.136-1.133-0.408-2.58l-0.814-2.986
		l-1.493,1.493l0.814-1.9L151.063,343.764z M135.861,339.013l-1.087,2.172c-1.266,1.719-2.669,2.353-4.208,1.9
		c-1.719-0.996-2.58-2.488-2.58-4.479v-2.986l-1.493,1.086l-0.271,0.407l1.085-1.9l1.494-1.087l1.764,0.408
		c1.268,0.452,1.765,1.448,1.493,2.985c-0.452,2.986-0.452,4.57,0,4.751C132.331,342.27,133.599,341.185,135.861,339.013z
		 M139.118,344.171c0-1.991-0.09-3.122-0.271-3.394l-1.493,1.492l0.679-1.765l1.901-1.221l1.493,0.407
		c0.996,0.542,1.493,1.402,1.493,2.578c0,3.259,0.227,5.022,0.679,5.295c1.267-1.538,2.398-2.806,3.394-3.801l-0.814,2.308
		c-1.448,1.72-2.805,2.307-4.072,1.765c-1.176-0.452-2.036-0.95-2.58-1.494C139.525,346.162,139.39,345.438,139.118,344.171z
		 M117.671,334.94c-0.271-0.271-0.271-1.041,0-2.309v-3.258l-1.493,1.087l-0.408,0.407l1.087-1.901l1.9-1.085
		c0,0.18,0.498,0.406,1.494,0.678c0.996,0.725,1.357,1.72,1.086,2.987c-0.724,3.257-0.86,4.978-0.407,5.158
		c0.542,0.271,1.9-0.724,4.073-2.987l-1.087,1.901c-2.171,1.447-3.664,1.944-4.479,1.493
		C118.26,336.388,117.671,335.664,117.671,334.94z M84.278,297.474c0.996,0.725,1.131,1.675,0.407,2.852
		c-1.811,2.986-2.58,4.615-2.308,4.887l4.886-1.9l-1.493,1.493c-2.263,0.995-3.755,0.995-4.479,0
		c-1.447-1.447-1.719-2.941-0.815-4.479l0.815-3.258l-1.085,0.406l1.085-1.221h1.493L84.278,297.474z M110.205,321.908
		c0.996,0.453,1.357,1.448,1.085,2.986c-0.996,3.167-1.357,4.888-1.085,5.158l4.479-2.578l-1.493,1.899
		c-1.447,1.449-2.805,1.674-4.072,0.679c-1.267-0.724-1.901-1.447-1.901-2.171c-0.18-0.272-0.18-1.041,0-2.309
		c0.543-1.991,0.679-3.076,0.407-3.257l-1.492,0.679l1.085-1.087l1.494-0.813L110.205,321.908z M100.975,314.442
		c0.996,0.724,1.221,1.721,0.679,2.986c-1.177,3.259-1.539,4.978-1.086,5.158c0.271,0.271,1.628-0.588,4.073-2.578l-1.087,1.899
		c-1.989,1.448-3.483,1.674-4.479,0.679c-1.267-1.176-1.765-2.76-1.493-4.751l0.814-2.985l-2.308,0.679l1.494-1.357l1.899-0.815
		L100.975,314.442z M90.929,305.212l1.494,1.086c0.724,0.724,0.859,1.721,0.407,2.986c-1.539,2.715-2.036,4.344-1.494,4.888
		c0.182,0.181,1.674-0.589,4.48-2.308l-1.494,1.899c-1.991,1.177-3.484,1.312-4.479,0.408c-1.267-0.815-1.901-1.584-1.901-2.308
		c0-0.272,0.271-1.131,0.815-2.58l0.679-2.986l-1.494,0.408l1.087-1.088L90.929,305.212z M72.062,287.701l1.764-1.087h1.9
		l1.087,1.087c0.724,0.995,0.724,1.991,0,2.985c-1.72,2.987-2.444,4.616-2.173,4.888c0.182,0.272,1.765-0.227,4.751-1.494
		l-1.764,1.494c-2.263,0.724-3.756,0.587-4.479-0.407c-0.996-1.448-0.996-3.031,0-4.75c0.996-1.812,1.357-2.807,1.085-2.987
		l-1.901,0.271H72.062z M66.088,273.99l-1.901,1.223c-2.443,0-3.936-0.407-4.479-1.223c-0.724-1.991-0.452-3.573,0.815-4.751
		l1.493-2.986H60.93l1.085-0.814l1.765,0.407l1.222,1.086c0.452,1.267,0.18,2.399-0.815,3.394c-2.171,2.444-3.167,3.802-2.985,4.072
		C61.472,274.94,63.102,274.806,66.088,273.99z M65.681,277.384l1.899-1.086h1.766l1.221,1.086c0.724,1.268,0.588,2.398-0.407,3.395
		c-1.991,2.715-2.85,4.163-2.58,4.344c0,0.271,1.584,0.045,4.751-0.679l-1.764,1.085c-2.262,0.544-3.755,0.317-4.479-0.678
		c-0.996-1.811-0.86-3.439,0.407-4.887l1.494-2.986l-1.901,0.406H65.681z M73.826,115.169l0.814,1.901
		c-0.271,2.263-1.402,3.122-3.394,2.578c-3.167-0.724-4.886-0.858-5.158-0.406l2.987,4.208l-1.901-1.222
		c-1.72-1.72-2.217-3.167-1.493-4.345c0.724-1.266,1.357-1.898,1.899-1.898c0.454-0.272,1.313-0.272,2.58,0h2.987l-0.815-1.494
		l-0.27-0.407L73.826,115.169z M80.477,105.939l-0.679-1.493l1.087,1.086l0.814,1.899c-0.272,2.263-1.539,2.987-3.801,2.173
		c-3.168-0.996-4.888-1.223-5.158-0.679c-0.272,0.452,0.587,1.81,2.578,4.072l-1.493-1.086c-1.719-1.721-2.081-3.213-1.085-4.48
		c0.724-1.266,1.447-1.899,2.171-1.899c0.271,0,1.041,0.135,2.308,0.407H80.477z M88.351,96.98l-0.815-1.357v-0.815l1.494,1.901
		l0.407,1.492c-0.454,2.173-1.674,2.896-3.666,2.173c-3.258-1.268-5.023-1.766-5.294-1.494l2.308,4.479l-1.493-1.493
		c-1.267-1.99-1.539-3.348-0.815-4.072c0.995-1.267,1.901-1.9,2.715-1.9L88.351,96.98z M47.084,219.558h-0.679l2.171-0.407
		l1.901,0.679c1.267,1.991,0.905,3.484-1.086,4.479c-2.715,1.447-4.072,2.443-4.072,2.986l4.751,1.086l-2.173,0.407
		c-2.261,0-3.483-0.77-3.664-2.309c-0.272-1.899,0.317-3.348,1.764-4.344c1.719-1.266,2.579-2.036,2.579-2.307L47.084,219.558z
		 M47.491,208.02l-1.493-0.815h1.899l1.494,0.815c1.268,1.991,0.904,3.349-1.085,4.072c-3.258,1.72-4.888,2.715-4.888,2.986
		c0.272,0.452,1.901,0.949,4.888,1.493h-2.308c-2.173,0-3.258-0.906-3.258-2.715c-0.272-1.72,0.453-3.077,2.173-4.072L47.491,208.02
		z M47.897,194.987l1.494,1.087c0.724,1.991,0.09,3.349-1.901,4.072c-3.167,0.994-4.661,1.765-4.479,2.307l4.479,1.766h-2.171
		c-2.263-0.724-3.394-1.675-3.394-2.852c0-1.81,0.996-3.212,2.987-4.208c1.719-0.451,2.578-0.904,2.578-1.357l-1.493-0.814H47.897z
		 M48.306,183.448l-1.494-0.678h1.765l1.494,1.086c0.814,2.262,0.226,3.619-1.764,4.073c-3.258,0.994-4.888,1.628-4.888,1.899
		s1.494,0.995,4.479,2.173h-2.171c-2.263-0.724-3.259-1.721-2.987-2.987c0-1.99,0.86-3.348,2.58-4.072
		C47.311,184.491,48.306,183.992,48.306,183.448z M51.97,172.047c0.725,2.171,0,3.528-2.171,4.072
		c-3.259,0.724-4.886,1.221-4.886,1.493c0,0.451,1.357,1.313,4.072,2.579l-2.173-0.407c-1.991-0.724-2.85-1.855-2.578-3.393
		c0.18-1.721,1.13-2.942,2.85-3.666c1.991-0.452,2.986-0.815,2.986-1.086l-1.085-1.087l1.493,0.272L51.97,172.047z M51.97,158.607
		l1.494,0.407l1.086,1.494c0.543,2.172-0.182,3.394-2.171,3.665c-3.53,0.271-5.294,0.634-5.294,1.086
		c0,0.271,1.402,1.266,4.208,2.986l-2.307-0.679c-1.991-0.724-2.852-1.855-2.58-3.394c0.452-1.991,1.674-3.078,3.665-3.259
		c1.991-0.543,2.987-0.95,2.987-1.222L51.97,158.607z M57.129,147.477l1.085,1.494c0.272,2.263-0.588,3.394-2.58,3.394
		c-3.438,0.18-5.158,0.406-5.158,0.679c-0.272,0.271,0.95,1.402,3.665,3.394l-2.172-0.815c-1.99-1.176-2.715-2.398-2.171-3.664
		c0.452-1.721,1.81-2.715,4.072-2.986l2.986-0.679l-1.494-1.494L57.129,147.477z M63.102,137.839c0,2.264-1.131,3.394-3.394,3.394
		c-3.167-0.271-4.887-0.18-5.158,0.272c0,0.542,1.222,1.674,3.665,3.393l-2.172-0.678c-1.719-1.268-2.353-2.625-1.9-4.072
		c0.814-1.811,2.171-2.715,4.072-2.715c1.991,0,2.987-0.092,2.987-0.272l-0.679-1.222l-0.408-0.271l1.901,0.679L63.102,137.839z
		 M59.436,129.016c0.725-1.268,1.313-2.036,1.766-2.308c0.271-0.271,1.131-0.407,2.579-0.407h2.986l-0.679-1.493l-0.407-0.271
		l1.899,1.086l0.679,1.492c-0.18,2.173-1.266,3.169-3.257,2.987c-3.53-0.272-5.294-0.272-5.294,0c0,0.182,1.132,1.402,3.394,3.665
		l-1.9-0.679C59.482,131.278,58.894,129.921,59.436,129.016z M126.223,64.809l1.085,2.172v1.9c-1.266,1.991-2.76,2.217-4.479,0.679
		c-2.715-1.99-4.208-2.852-4.479-2.579c0,0.271,0.271,1.9,0.814,4.888l-1.085-1.901c-0.542-2.263-0.317-3.755,0.679-4.479
		c1.719-0.995,3.348-0.995,4.887,0c1.448,1.266,2.398,1.765,2.85,1.493l-0.271-1.493V64.809z M137.354,59.921v-0.406l0.679,2.308
		v1.765c-1.448,1.809-2.942,1.945-4.479,0.406c-2.172-2.442-3.53-3.528-4.072-3.257c-0.182,0.181-0.045,1.765,0.407,4.751
		l-1.085-1.9c-0.724-2.172-0.362-3.529,1.085-4.072c1.448-0.725,3.077-0.588,4.887,0.406c1.449,1.539,2.308,2.173,2.58,1.901
		C137.536,61.551,137.536,60.917,137.354,59.921z M172.512,49.198v-0.407l0.407,2.307l-0.679,1.357
		c-1.811,1.539-3.303,1.449-4.479-0.271c-1.719-2.986-2.852-4.344-3.394-4.072c-0.454,0.181-0.679,1.765-0.679,4.751l-0.409-2.173
		c0-2.263,0.634-3.528,1.901-3.8c1.447-0.181,2.443-0.272,2.986-0.272c0.452,0.182,1.041,0.771,1.765,1.765
		c0.996,1.812,1.764,2.715,2.308,2.715L172.512,49.198z M146.177,55.442c1.267,1.267,2.126,1.9,2.58,1.9V55.17l0.814,2.173
		l-0.407,1.899c-1.72,1.449-3.213,1.449-4.479,0c-2.173-2.715-3.53-3.98-4.072-3.8v4.887l-0.679-1.9
		c-0.543-2.172-0.046-3.529,1.493-4.072c1.176-0.452,2.171-0.589,2.987-0.407L146.177,55.442z M153.236,49.877
		c1.267-0.182,2.262-0.182,2.986,0l1.493,1.493c1.447,1.539,2.308,2.308,2.579,2.308l0.407-1.493V51.37l0.407,2.308l-0.407,1.765
		c-1.719,1.539-3.213,1.448-4.479-0.272c-2.263-2.715-3.485-4.072-3.665-4.072c-0.272,0.182-0.407,1.901-0.407,5.159l-0.679-2.308
		C151.472,51.776,152.059,50.419,153.236,49.877z M98.395,80.013c1.448-1.268,3.032-1.402,4.751-0.408
		c0.996,0.271,1.991,0.633,2.987,1.087c0.271-0.454,0.135-1.042-0.407-1.766v-0.407l1.221,1.765c0.454,0.995,0.544,1.629,0.272,1.9
		c-0.996,1.991-2.488,2.354-4.479,1.086c-2.443-1.72-3.891-2.308-4.344-1.765c-0.272,0.181,0.227,1.765,1.494,4.751l-1.494-1.765
		C97.581,82.229,97.581,80.736,98.395,80.013z M116.857,73.36v1.765c-1.177,1.72-2.535,2.081-4.072,1.085
		c-2.987-1.898-4.571-2.76-4.751-2.578c-0.272,0.272,0.225,1.9,1.493,4.887l-1.493-1.899c-0.725-2.173-0.634-3.666,0.271-4.481
		c1.539-0.994,3.168-0.994,4.887,0c1.72,0.996,2.715,1.403,2.987,1.223l-0.408-1.492V71.46L116.857,73.36z M89.437,92.908
		c-1.268-1.901-1.403-3.349-0.407-4.344c1.266-1.268,2.896-1.539,4.886-0.815l2.987,0.815c0.18-0.272,0.045-0.771-0.407-1.494
		l-0.408-0.814l1.494,1.901l0.407,1.899c-0.724,1.901-2.081,2.353-4.072,1.357c-2.986-1.447-4.616-2.036-4.886-1.765l1.9,4.752
		L89.437,92.908z"/>
	<path fill-rule="evenodd" clip-rule="evenodd" fill="#EFECE0" d="M287.623,72.547c0.181-1.721-0.453-3.078-1.901-4.073
		c-0.995-0.995-2.353-0.633-4.072,1.086l-1.492,1.9c1.268-0.725,2.625-1.72,4.072-2.986c0.543,0.271,0.407,1.992-0.406,5.158
		c-0.454,1.991,0.406,3.258,2.578,3.801l1.494-0.813l1.221-1.357l-1.493,0.679V72.547z M296.175,84.491l1.765-0.406l1.085-1.901
		l-0.27,0.407l-1.494,0.679c-0.181-0.09-0.226-0.452-0.135-1.086c0.09-0.543,0.225-1.267,0.406-2.171
		c0.543-1.991,0.09-3.485-1.357-4.48c-1.539-0.725-3.031-0.362-4.479,1.087l-1.493,1.492c1.177-0.452,2.67-1.177,4.48-2.171
		c0.451,0.18,0.045,1.764-1.223,4.751c-0.09,0.542-0.09,1.04,0,1.492C293.642,83.361,294.546,84.13,296.175,84.491z M306.084,91.414
		l0.815-2.85c0.724-1.991,0.361-3.62-1.087-4.888c-1.267-0.994-2.761-0.859-4.479,0.408l-1.492,1.764
		c2.715-1.719,4.207-2.442,4.479-2.172c0.182,0.271-0.316,1.9-1.492,4.888c-0.726,1.899,0,3.257,2.171,4.072l1.901-0.407l1.492-1.9
		l-0.406,0.406L306.084,91.414z M315.044,85.849c-1.268-1.267-2.535-2.487-3.802-3.665c-30.95-29.14-68.008-43.71-111.174-43.71
		c-44.796,0-83.166,15.793-115.111,47.375c-31.675,31.945-47.511,70.316-47.511,115.111c0,44.977,15.836,83.303,47.511,114.977
		c31.945,31.673,70.315,47.51,115.111,47.51c37.284,0,70.044-10.904,98.278-32.715c5.701-4.435,11.268-9.365,16.697-14.795
		c31.674-31.674,47.511-70,47.511-114.977C362.555,156.165,346.718,117.794,315.044,85.849z M318.029,82.998
		c15.294,15.295,27.149,32.851,35.565,52.67c8.688,20.724,13.032,42.351,13.032,64.886c0,22.533-4.345,44.071-13.032,64.613
		c-8.416,19.729-20.271,37.285-35.565,52.669c-4.704,4.616-9.593,8.915-14.66,12.896c-11.764,9.231-24.569,16.788-38.415,22.67
		c-20.544,8.688-42.081,13.032-64.614,13.032c-22.444,0-43.937-4.345-64.479-13.032c-19.819-8.417-37.376-20.271-52.67-35.565
		c-15.384-15.384-27.284-32.94-35.701-52.669c-8.597-20.542-12.896-42.08-12.896-64.613c0-22.535,4.299-44.162,12.896-64.886
		c8.417-19.819,20.317-37.375,35.701-52.67c15.294-15.384,32.851-27.284,52.67-35.7c20.542-8.598,42.034-12.896,64.479-12.896
		c22.533,0,44.07,4.299,64.614,12.896c19.456,8.235,36.877,19.864,52.262,34.886C317.487,82.456,317.759,82.728,318.029,82.998z
		 M308.257,82.184c1.81,1.63,3.574,3.349,5.293,5.158c14.842,14.842,26.335,31.81,34.479,50.904
		c8.417,19.819,12.624,40.724,12.624,62.714c0,21.991-4.207,42.895-12.624,62.715c-8.145,19.275-19.638,36.334-34.479,51.176
		c-5.791,5.791-11.9,11.085-18.325,15.881c-10.044,7.421-20.858,13.619-32.442,18.598c-20.092,8.416-40.995,12.623-62.714,12.623
		c-21.81,0-42.715-4.207-62.714-12.623c-19.094-8.145-36.063-19.639-50.904-34.479c-14.842-14.842-26.335-31.9-34.479-51.176
		c-8.415-19.82-12.624-40.724-12.624-62.715c0-21.99,4.209-42.895,12.624-62.714c8.145-19.095,19.638-36.063,34.479-50.904
		c14.842-14.841,31.81-26.333,50.904-34.479c19.728-8.416,40.633-12.625,62.714-12.625c21.991,0,42.895,4.209,62.714,12.625
		C279.796,60.013,294.952,69.786,308.257,82.184z M310.156,92.637l-1.357,1.492c1.177-0.542,2.625-1.176,4.345-1.899
		c0.271,0.271-0.228,1.854-1.493,4.751c-1.177,1.991-0.679,3.394,1.493,4.208h1.9l1.899-1.493h-0.813l-1.494,0.679l0.815-3.394
		c0.452-1.177,0.679-1.901,0.679-2.173c0-0.452-0.498-1.313-1.494-2.578C313.912,91.506,312.419,91.641,310.156,92.637z
		 M209.298,46.618l-1.085,2.173l-1.494-2.986c-0.724-1.72-2.081-2.715-4.072-2.987c-1.267,0-2.262,1.131-2.985,3.395v2.171
		c1.266-2.896,1.99-4.343,2.172-4.343c0.271,0,1.04,1.583,2.308,4.751c0.452,1.991,1.81,2.488,4.072,1.493l1.085-1.493V46.618z
		 M211.878,49.198c1.266-2.986,1.99-4.479,2.172-4.479c0.543-0.271,1.176,1.221,1.9,4.479c0.543,2.172,1.9,2.895,4.072,2.172
		l1.086-1.493l0.407-1.765l-0.407,0.271l-0.679,1.494l-1.494-2.986l-0.679-2.172c-0.542-0.453-1.537-0.815-2.985-1.087
		c-1.539,0-2.534,1.087-2.986,3.259L211.878,49.198z M226.401,46.212c0.453,0,1.041,1.629,1.766,4.886
		c0.271,2.173,1.538,2.896,3.801,2.173l1.086-1.086l0.679-2.308l-0.271,0.407l-1.222,1.492l-1.086-2.985
		c-0.271-1.991-1.357-3.078-3.258-3.259c-1.539-0.271-2.805,0.68-3.801,2.851l-0.271,2.308
		C224.999,47.704,225.859,46.212,226.401,46.212z M182.149,46.618c-1.176-1.537-2.625-2.171-4.344-1.899
		c-1.268,0.271-2.172,1.493-2.715,3.664l0.407,2.308c0.725-3.257,1.222-4.886,1.494-4.886c0.542-0.182,1.402,1.176,2.578,4.072
		c0.996,1.991,2.49,2.397,4.481,1.221l0.813-1.899v-2.308l-0.407,0.813l-0.407,1.494C183.779,49.198,183.145,48.338,182.149,46.618z
		 M197.081,48.383v-1.765l-0.406,0.272l-0.407,1.492c-0.182,0-0.771-0.858-1.766-2.578s-2.488-2.58-4.479-2.58
		c-1.268,0.272-2.127,1.494-2.578,3.666l0.271,2.308c0.815-3.259,1.312-4.888,1.493-4.888c0.543,0,1.403,1.494,2.579,4.48
		c0.815,1.991,2.218,2.488,4.208,1.493L197.081,48.383z M259.796,58.021l-0.815,2.308c1.72-2.444,2.852-3.574,3.394-3.394
		c0.453,0.271,0.588,2.036,0.408,5.294c-0.271,1.9,0.679,2.852,2.85,2.852l1.493-0.68l1.222-2.172l-1.492,1.357
		c-0.271,0-0.408-0.951-0.408-2.851c-0.271-2.263-1.131-3.755-2.578-4.479C262.329,55.714,260.972,56.302,259.796,58.021z
		 M257.216,57.343l-1.492,1.492c-0.544-0.271-0.815-1.266-0.815-2.986c-0.271-2.262-1.267-3.619-2.985-4.072
		c-1.178-0.452-2.398,0.271-3.666,2.173l-0.814,2.308c1.99-2.715,3.123-3.982,3.394-3.802c0.271,0,0.408,1.766,0.408,5.295
		c0,1.72,1.221,2.579,3.664,2.579l1.494-1.087L257.216,57.343z M236.312,50.69l-0.678,2.173c1.447-2.715,2.443-4.072,2.984-4.072
		c0.454,0.271,0.816,1.991,1.088,5.158c0.27,1.991,1.492,2.896,3.664,2.715l1.494-1.494l0.813-2.307l-0.407,0.814l-1.086,1.085
		c-0.271,0-0.633-0.995-1.085-2.986c-0.272-1.991-1.268-3.212-2.987-3.664C238.846,47.841,237.578,48.7,236.312,50.69z
		 M277.171,63.587c0-0.452-0.725-1.041-2.172-1.765c-1.268-0.724-2.625-0.136-4.072,1.765l-1.223,1.9
		c2.534-2.443,3.938-3.53,4.208-3.258c0.454,0.182,0.317,1.9-0.407,5.158c-0.271,2.172,0.725,3.258,2.987,3.258l1.492-0.679
		l1.087-1.901l-1.494,1.494c-0.271,0-0.406-1.086-0.406-3.258C277.442,65.035,277.442,64.13,277.171,63.587z M200.068,62.501
		c-38.099,0-70.769,13.484-98.008,40.451c-26.968,27.24-40.452,59.909-40.452,98.008c0,38.371,13.484,70.994,40.452,97.871
		c27.239,26.969,59.909,40.453,98.008,40.453c17.557,0,33.981-2.852,49.274-8.553c17.828-6.695,34.026-17.33,48.597-31.9
		c26.969-26.877,40.451-59.5,40.451-97.871c0-38.099-13.482-70.768-40.451-98.008c-8.145-8.145-16.786-15.066-25.927-20.769
		C250.745,69.062,226.764,62.501,200.068,62.501z M200.068,55.442c19.728,0,38.505,3.846,56.334,11.538
		c9.773,4.163,18.914,9.229,27.421,15.203c6.787,4.796,13.121,10.136,19.004,16.018c13.303,13.303,23.664,28.733,31.084,46.29
		c7.693,17.827,11.539,36.65,11.539,56.469s-3.846,38.598-11.539,56.334c-7.42,17.557-17.781,33.031-31.084,46.425
		c-11.041,11.04-23.485,20.045-37.33,27.013c-2.986,1.539-6.018,2.941-9.095,4.209c-17.829,7.602-36.606,11.401-56.334,11.401
		c-19.82,0-38.643-3.8-56.471-11.401c-17.556-7.421-33.031-17.828-46.424-31.222c-13.304-13.394-23.665-28.868-31.086-46.425
		c-7.692-17.736-11.538-36.516-11.538-56.334s3.846-38.642,11.538-56.469c7.421-17.557,17.782-32.987,31.086-46.29
		c13.393-13.393,28.868-23.8,46.424-31.221C161.426,59.288,180.249,55.442,200.068,55.442z M260.067,140.825
		c16.651,17.104,24.977,37.148,24.977,60.135c0,23.529-8.325,43.574-24.977,60.135c-17.015,16.562-37.013,24.841-59.999,24.841
		c-10.86,0-21.041-1.81-30.543-5.43c-10.679-4.162-20.543-10.633-29.592-19.411c-16.561-16.561-24.842-36.605-24.842-60.135
		c0-22.986,8.281-43.031,24.842-60.135c9.049-8.777,18.913-15.203,29.592-19.275c9.502-3.711,19.683-5.564,30.543-5.564
		C223.055,115.985,243.053,124.265,260.067,140.825z M342.872,141.232h-2.174c0-0.271,0.499-1.13,1.494-2.579
		c0.904-1.267,1.357-2.036,1.357-2.307c0.271-0.453,0.045-1.313-0.678-2.58c-0.454-1.447-1.812-1.81-4.072-1.086l-2.174,0.68
		l5.158-0.272c0.271,0.452-0.858,1.81-3.394,4.072c-1.447,1.448-1.311,2.896,0.409,4.345l1.898,0.406L342.872,141.232z
		 M347.758,145.305c-0.544-1.537-1.946-2.036-4.208-1.492l-1.766,0.679h4.752c0.271,0.542-0.814,1.899-3.258,4.072
		c-1.719,1.266-1.719,2.623,0,4.072c0,0.542,0.497,0.814,1.492,0.814l2.174-0.814h-0.408l-1.766-0.271l1.766-2.309
		C348.075,148.608,348.481,147.024,347.758,145.305z M345.856,156.029c3.169,0,4.752,0.136,4.752,0.407
		c0.271,0.452-0.949,1.674-3.664,3.665c-1.992,1.267-2.219,2.76-0.68,4.479l1.765,0.407l2.308-0.407h-0.408l-1.899-0.407
		c0-0.453,0.769-1.177,2.308-2.173c1.448-1.537,1.945-3.166,1.493-4.886c-0.271-1.177-1.539-1.765-3.801-1.765L345.856,156.029z
		 M323.596,106.753c0.724-1.991,0.589-3.619-0.407-4.887c-0.725-0.995-2.218-1.13-4.48-0.406l-1.765,1.492
		c1.177-0.271,2.761-0.769,4.751-1.492c0.271,0.271-0.451,1.899-2.171,4.887c-1.268,1.99-0.905,3.348,1.085,4.072
		c0.725,0.451,1.357,0.451,1.901,0l1.765-1.086h-0.271l-1.901,0.271L323.596,106.753z M326.582,115.985
		c-1.267,1.719-0.905,3.211,1.086,4.479h1.899l1.766-1.222h-0.271l-1.9,0.406l1.493-2.985c0.724-1.177,1.086-1.9,1.086-2.172
		c0-0.543-0.362-1.403-1.086-2.579c-0.725-0.995-2.218-1.132-4.48-0.408l-1.899,1.087c1.268-0.182,2.895-0.543,4.887-1.087
		C329.614,112.048,328.753,113.54,326.582,115.985z M337.306,122.636c-0.725-1.267-2.217-1.493-4.479-0.679l-1.765,1.085
		c3.167-0.724,4.751-0.994,4.751-0.813c0.272,0.271-0.724,1.629-2.986,4.072c-1.177,1.81-0.905,3.304,0.813,4.479
		c0.453,0.543,1.041,0.543,1.766,0l1.9-0.679h-1.9c-0.182-0.272,0.317-1.131,1.493-2.579c0.724-1.267,1.085-2.035,1.085-2.308
		C338.256,124.763,338.029,123.903,337.306,122.636z M353.323,169.739c-0.543,0.271-1.811,0.905-3.801,1.9
		c-1.72,1.267-1.946,2.76-0.679,4.479l1.765,0.679l1.9-0.406h-0.406l-1.494-0.272l2.308-2.308c1.72-0.996,2.442-2.488,2.173-4.479
		c-0.453-1.449-1.811-2.173-4.072-2.173l-2.173,0.408l4.751,1.086C353.866,169.105,353.776,169.468,353.323,169.739z
		 M350.337,187.93l1.766,0.813h1.492l-1.492-0.813l2.578-1.901c1.811-0.905,2.579-2.354,2.308-4.344
		c-0.272-1.538-1.63-2.309-4.072-2.309l-1.899,0.408l4.886,1.086c0,0.271-1.493,1.266-4.479,2.986
		c-0.995,0.543-1.494,1.403-1.494,2.579C349.929,186.979,350.065,187.476,350.337,187.93z M356.581,193.087
		c0.271,0.543-1.223,1.448-4.479,2.715c-1.178,0.453-1.675,1.313-1.494,2.579c0,0.453,0.137,1.042,0.408,1.766l1.492,0.813h1.9
		l-1.493-0.813c0-0.182,0.86-0.771,2.579-1.766c1.72-0.814,2.443-2.172,2.172-4.072c0-1.81-1.086-2.716-3.258-2.716h-2.307
		C353.369,192.137,354.862,192.636,356.581,193.087z M354.681,203.947h-2.172l4.479,1.765c0,0.543-1.63,1.312-4.886,2.308
		c-1.178,0.18-1.766,0.905-1.766,2.171c-0.271,0.724-0.271,1.357,0,1.901l1.766,1.085h1.492l-1.492-0.678
		c0-0.544,0.995-1.041,2.986-1.493c1.719-0.995,2.578-2.353,2.578-4.072C357.938,205.666,356.943,204.671,354.681,203.947z
		 M349.115,222.136c-0.182,0.724-0.182,1.313,0,1.766l1.493,1.221l1.494,0.272l-1.494-1.086l2.986-1.086
		c1.991-0.724,3.121-1.946,3.394-3.665c0.271-1.81-0.724-2.941-2.987-3.394l-2.171-0.407c1.176,0.724,2.625,1.583,4.345,2.578
		c0,0.271-1.585,0.771-4.752,1.494C349.884,220.1,349.115,220.87,349.115,222.136z M346.944,200.96
		c0-40.543-14.346-75.203-43.031-103.979c-5.43-5.43-11.087-10.362-16.969-14.797c-25.067-18.823-54.025-28.234-86.876-28.234
		c-40.633,0-75.293,14.343-103.981,43.031c-28.687,28.776-43.03,63.437-43.03,103.979s14.343,75.158,43.03,103.845
		c28.688,28.687,63.348,43.031,103.981,43.031c25.52,0,48.731-5.701,69.636-17.104c12.218-6.695,23.621-15.339,34.209-25.927
		C332.599,276.118,346.944,241.503,346.944,200.96z M89.437,92.908l1.493,1.493l-1.9-4.752c0.271-0.271,1.9,0.317,4.886,1.765
		c1.991,0.995,3.349,0.544,4.072-1.357l-0.407-1.899l-1.494-1.901l0.408,0.814c0.452,0.724,0.587,1.222,0.407,1.494l-2.987-0.815
		c-1.991-0.724-3.62-0.452-4.886,0.815C88.034,89.56,88.169,91.007,89.437,92.908z M116.857,73.36l-1.087-1.9v0.408l0.408,1.492
		c-0.272,0.181-1.267-0.227-2.987-1.223c-1.719-0.994-3.349-0.994-4.887,0c-0.904,0.815-0.996,2.309-0.271,4.481l1.493,1.899
		c-1.268-2.986-1.765-4.614-1.493-4.887c0.18-0.182,1.764,0.68,4.751,2.578c1.538,0.996,2.895,0.635,4.072-1.085V73.36z
		 M98.395,80.013c-0.814,0.724-0.814,2.217,0,4.479l1.494,1.765c-1.267-2.986-1.766-4.57-1.494-4.751
		c0.453-0.543,1.901,0.045,4.344,1.765c1.991,1.268,3.483,0.905,4.479-1.086c0.272-0.271,0.182-0.905-0.272-1.9l-1.221-1.765v0.407
		c0.542,0.724,0.679,1.312,0.407,1.766c-0.996-0.454-1.991-0.815-2.987-1.087C101.427,78.61,99.843,78.745,98.395,80.013z
		 M153.236,49.877c-1.177,0.542-1.765,1.899-1.765,4.072l0.679,2.308c0-3.258,0.135-4.978,0.407-5.159
		c0.18,0,1.402,1.357,3.665,4.072c1.266,1.721,2.76,1.812,4.479,0.272l0.407-1.765l-0.407-2.308v0.814l-0.407,1.493
		c-0.271,0-1.132-0.769-2.579-2.308l-1.493-1.493C155.498,49.695,154.503,49.695,153.236,49.877z M146.177,55.442l-1.764-1.493
		c-0.815-0.182-1.811-0.045-2.987,0.407c-1.539,0.543-2.036,1.9-1.493,4.072l0.679,1.9v-4.887c0.542-0.181,1.899,1.085,4.072,3.8
		c1.266,1.449,2.76,1.449,4.479,0l0.407-1.899l-0.814-2.173v2.173C148.304,57.343,147.444,56.709,146.177,55.442z M172.512,49.198
		l-0.272,1.899c-0.543,0-1.312-0.903-2.308-2.715c-0.724-0.994-1.313-1.583-1.765-1.765c-0.543,0-1.539,0.092-2.986,0.272
		c-1.268,0.271-1.901,1.537-1.901,3.8l0.409,2.173c0-2.986,0.225-4.57,0.679-4.751c0.542-0.271,1.674,1.086,3.394,4.072
		c1.176,1.72,2.668,1.81,4.479,0.271l0.679-1.357l-0.407-2.307V49.198z M137.354,59.921c0.182,0.996,0.182,1.63,0,1.901
		c-0.272,0.271-1.131-0.362-2.58-1.901c-1.81-0.994-3.439-1.131-4.887-0.406c-1.447,0.543-1.809,1.9-1.085,4.072l1.085,1.9
		c-0.452-2.986-0.588-4.57-0.407-4.751c0.542-0.271,1.9,0.814,4.072,3.257c1.538,1.539,3.032,1.402,4.479-0.406v-1.765l-0.679-2.308
		V59.921z M126.494,66.98c-0.452,0.271-1.402-0.228-2.85-1.493c-1.539-0.995-3.168-0.995-4.887,0
		c-0.996,0.725-1.221,2.217-0.679,4.479l1.085,1.901c-0.542-2.987-0.814-4.616-0.814-4.888c0.271-0.272,1.765,0.589,4.479,2.579
		c1.719,1.538,3.213,1.313,4.479-0.679v-1.9l-1.085-2.172v0.679L126.494,66.98z M59.436,129.016
		c-0.542,0.905,0.046,2.263,1.766,4.072l1.9,0.679c-2.262-2.263-3.394-3.483-3.394-3.665c0-0.272,1.764-0.272,5.294,0
		c1.991,0.182,3.077-0.814,3.257-2.987l-0.679-1.492l-1.899-1.086l0.407,0.271l0.679,1.493H63.78c-1.448,0-2.308,0.136-2.579,0.407
		C60.749,126.979,60.161,127.748,59.436,129.016z M58.215,137.433c-1.901,0-3.258,0.904-4.072,2.715
		c-0.453,1.447,0.181,2.805,1.9,4.072l2.172,0.678c-2.443-1.719-3.665-2.851-3.665-3.393c0.271-0.452,1.991-0.544,5.158-0.272
		c2.263,0,3.394-1.13,3.394-3.394l-1.086-1.492l-1.901-0.679l0.408,0.271l0.679,1.222C61.202,137.341,60.206,137.433,58.215,137.433
		z M57.129,147.477l-1.766-0.679l1.494,1.494l-2.986,0.679c-2.263,0.271-3.62,1.266-4.072,2.986
		c-0.543,1.266,0.182,2.488,2.171,3.664l2.172,0.815c-2.715-1.991-3.937-3.122-3.665-3.394c0-0.272,1.719-0.499,5.158-0.679
		c1.991,0,2.852-1.131,2.58-3.394L57.129,147.477z M53.057,159.693c0,0.271-0.996,0.679-2.987,1.222
		c-1.991,0.181-3.213,1.268-3.665,3.259c-0.272,1.538,0.588,2.67,2.58,3.394l2.307,0.679c-2.805-1.721-4.208-2.715-4.208-2.986
		c0-0.452,1.764-0.815,5.294-1.086c1.99-0.271,2.715-1.493,2.171-3.665l-1.086-1.494l-1.494-0.407L53.057,159.693z M51.97,172.047
		l-1.493-1.222l-1.493-0.272l1.085,1.087c0,0.271-0.996,0.634-2.986,1.086c-1.72,0.724-2.67,1.945-2.85,3.666
		c-0.272,1.537,0.587,2.669,2.578,3.393l2.173,0.407c-2.715-1.267-4.072-2.128-4.072-2.579c0-0.272,1.627-0.77,4.886-1.493
		C51.97,175.575,52.695,174.218,51.97,172.047z M48.306,183.448c0,0.544-0.996,1.043-2.987,1.494
		c-1.719,0.725-2.58,2.082-2.58,4.072c-0.272,1.267,0.724,2.264,2.987,2.987h2.171c-2.985-1.178-4.479-1.901-4.479-2.173
		s1.629-0.905,4.888-1.899c1.99-0.454,2.578-1.812,1.764-4.073l-1.494-1.086h-1.765L48.306,183.448z M45.998,194.987l1.493,0.814
		c0,0.453-0.859,0.906-2.578,1.357c-1.991,0.996-2.987,2.398-2.987,4.208c0,1.177,1.131,2.128,3.394,2.852h2.171l-4.479-1.766
		c-0.182-0.542,1.312-1.313,4.479-2.307c1.991-0.724,2.625-2.081,1.901-4.072l-1.494-1.087H45.998z M47.491,208.02l-2.578,1.765
		c-1.72,0.995-2.445,2.353-2.173,4.072c0,1.809,1.085,2.715,3.258,2.715h2.308c-2.987-0.544-4.616-1.041-4.888-1.493
		c0-0.271,1.629-1.267,4.888-2.986c1.99-0.724,2.353-2.081,1.085-4.072l-1.494-0.815h-1.899L47.491,208.02z M47.084,219.558
		l1.493,0.271c0,0.271-0.859,1.041-2.579,2.307c-1.447,0.996-2.036,2.444-1.764,4.344c0.18,1.539,1.402,2.309,3.664,2.309
		l2.173-0.407l-4.751-1.086c0-0.543,1.357-1.539,4.072-2.986c1.991-0.995,2.353-2.488,1.086-4.479l-1.901-0.679l-2.171,0.407H47.084
		z M88.351,96.98l-5.159-1.087c-0.814,0-1.72,0.634-2.715,1.9c-0.724,0.725-0.452,2.082,0.815,4.072l1.493,1.493l-2.308-4.479
		c0.271-0.271,2.036,0.227,5.294,1.494c1.991,0.724,3.212,0,3.666-2.173l-0.407-1.492l-1.494-1.901v0.815L88.351,96.98z
		 M80.477,105.939h-3.257c-1.267-0.272-2.036-0.407-2.308-0.407c-0.724,0-1.448,0.634-2.171,1.899
		c-0.996,1.268-0.634,2.76,1.085,4.48l1.493,1.086c-1.991-2.263-2.85-3.62-2.578-4.072c0.27-0.544,1.99-0.317,5.158,0.679
		c2.262,0.814,3.529,0.09,3.801-2.173l-0.814-1.899l-1.087-1.086L80.477,105.939z M73.826,115.169l-1.764-1.085l0.27,0.407
		l0.815,1.494H70.16c-1.267-0.272-2.126-0.272-2.58,0c-0.542,0-1.176,0.633-1.899,1.898c-0.724,1.178-0.227,2.625,1.493,4.345
		l1.901,1.222l-2.987-4.208c0.272-0.452,1.991-0.317,5.158,0.406c1.991,0.544,3.122-0.315,3.394-2.578L73.826,115.169z
		 M66.088,273.99c-2.986,0.815-4.616,0.95-4.886,0.407c-0.182-0.271,0.814-1.628,2.985-4.072c0.996-0.994,1.267-2.127,0.815-3.394
		l-1.222-1.086l-1.765-0.407l-1.085,0.814h1.085l-1.493,2.986c-1.267,1.178-1.539,2.76-0.815,4.751
		c0.543,0.815,2.036,1.223,4.479,1.223L66.088,273.99z M65.681,277.384h0.407l1.901-0.406l-1.494,2.986
		c-1.268,1.447-1.403,3.076-0.407,4.887c0.724,0.995,2.218,1.222,4.479,0.678l1.764-1.085c-3.167,0.724-4.751,0.95-4.751,0.679
		c-0.271-0.181,0.589-1.629,2.58-4.344c0.996-0.996,1.131-2.127,0.407-3.395l-1.221-1.086h-1.766L65.681,277.384z M72.062,287.701
		h0.27l1.901-0.271c0.272,0.181-0.09,1.176-1.085,2.987c-0.996,1.719-0.996,3.302,0,4.75c0.724,0.994,2.216,1.131,4.479,0.407
		l1.764-1.494c-2.986,1.268-4.569,1.767-4.751,1.494c-0.271-0.271,0.453-1.9,2.173-4.888c0.724-0.994,0.724-1.99,0-2.985
		l-1.087-1.087h-1.9L72.062,287.701z M90.929,305.212l-1.9,0.406l-1.087,1.088l1.494-0.408l-0.679,2.986
		c-0.544,1.449-0.815,2.308-0.815,2.58c0,0.724,0.634,1.492,1.901,2.308c0.996,0.903,2.488,0.769,4.479-0.408l1.494-1.899
		c-2.806,1.719-4.299,2.488-4.48,2.308c-0.542-0.544-0.045-2.173,1.494-4.888c0.452-1.266,0.317-2.263-0.407-2.986L90.929,305.212z
		 M100.975,314.442l-1.494-1.086l-1.899,0.815l-1.494,1.357l2.308-0.679l-0.814,2.985c-0.272,1.991,0.226,3.575,1.493,4.751
		c0.996,0.995,2.49,0.77,4.479-0.679l1.087-1.899c-2.445,1.99-3.802,2.85-4.073,2.578c-0.453-0.181-0.091-1.899,1.086-5.158
		C102.195,316.163,101.97,315.166,100.975,314.442z M107.625,322.316c0.272,0.181,0.137,1.266-0.407,3.257
		c-0.18,1.268-0.18,2.036,0,2.309c0,0.724,0.634,1.447,1.901,2.171c1.268,0.995,2.625,0.771,4.072-0.679l1.493-1.899l-4.479,2.578
		c-0.272-0.271,0.09-1.991,1.085-5.158c0.272-1.538-0.09-2.533-1.085-2.986l-1.493-0.813l-1.494,0.813l-1.085,1.087L107.625,322.316
		z M84.278,297.474l-1.494-1.221h-1.493l-1.085,1.221l1.085-0.406l-0.815,3.258c-0.904,1.538-0.632,3.032,0.815,4.479
		c0.724,0.995,2.217,0.995,4.479,0l1.493-1.493l-4.886,1.9c-0.272-0.271,0.497-1.9,2.308-4.887
		C85.409,299.148,85.274,298.198,84.278,297.474z M115.77,330.868l0.408-0.407l1.493-1.087v3.258c-0.271,1.268-0.271,2.037,0,2.309
		c0,0.724,0.589,1.447,1.765,2.172c0.815,0.451,2.308-0.046,4.479-1.493l1.087-1.901c-2.173,2.264-3.53,3.259-4.073,2.987
		c-0.453-0.181-0.317-1.901,0.407-5.158c0.271-1.268-0.09-2.263-1.086-2.987c-0.996-0.271-1.494-0.498-1.494-0.678l-1.9,1.085
		L115.77,330.868z M139.118,344.171c0.272,1.268,0.407,1.991,0.407,2.171c0.543,0.544,1.404,1.042,2.58,1.494
		c1.267,0.542,2.625-0.045,4.072-1.765l0.814-2.308c-0.996,0.995-2.126,2.263-3.394,3.801c-0.452-0.272-0.679-2.036-0.679-5.295
		c0-1.176-0.497-2.036-1.493-2.578l-1.493-0.407l-1.901,1.221l-0.679,1.765l1.493-1.492
		C139.028,341.049,139.118,342.18,139.118,344.171z M135.861,339.013c-2.263,2.172-3.53,3.257-3.802,3.257
		c-0.452-0.181-0.452-1.765,0-4.751c0.271-1.537-0.226-2.533-1.493-2.985l-1.764-0.408l-1.494,1.087l-1.085,1.9l0.271-0.407
		l1.493-1.086v2.986c0,1.991,0.86,3.483,2.58,4.479c1.539,0.452,2.942-0.182,4.208-1.9L135.861,339.013z M151.063,343.764
		l-1.493,1.086l-0.814,1.9l1.493-1.493l0.814,2.986c0.272,1.447,0.408,2.308,0.408,2.58c0.452,0.542,1.311,1.04,2.579,1.492
		c1.177,0.271,2.398-0.589,3.666-2.58l0.679-2.171c-1.72,2.715-2.805,4.072-3.259,4.072c-0.542,0-0.814-1.765-0.814-5.295
		c0-1.176-0.497-1.899-1.493-2.171L151.063,343.764z M169.933,350.414c-1.176,2.987-2.036,4.345-2.58,4.073
		c-0.452,0-0.814-1.583-1.086-4.752c-0.271-1.447-0.904-2.307-1.899-2.578h-1.766l-1.492,1.086l-0.407,1.9l1.086-1.494
		c0.271,0.182,0.633,1.268,1.085,3.259c0.272,1.72,1.403,2.851,3.394,3.394c1.448,0.452,2.535-0.406,3.258-2.579L169.933,350.414z
		 M172.512,352.723l1.221-1.493c0.182,0.271,0.543,1.266,1.085,2.986c0.725,1.992,1.946,3.077,3.666,3.258
		c1.447,0.271,2.58-0.725,3.394-2.986l0.271-2.172c-0.724,1.268-1.584,2.76-2.58,4.479c-0.18,0-0.679-1.72-1.493-5.158
		c-0.182-1.268-0.905-1.901-2.171-1.901h-1.901l-1.086,1.088L172.512,352.723z M52.378,231.774l-1.901-0.815l-2.171,0.815h0.679
		l1.493,0.271l-2.171,2.307c-1.539,0.996-2.036,2.49-1.494,4.48c0.182,1.176,1.402,1.765,3.666,1.765l2.171-0.271
		c-2.896,0-4.479-0.271-4.751-0.813c0-0.272,1.223-1.357,3.666-3.259C53.554,234.986,53.826,233.494,52.378,231.774z
		 M53.464,242.905l-2.172,0.68h2.172c0,0.27-0.724,1.131-2.172,2.578c-1.538,1.539-1.945,3.167-1.221,4.888
		c0.542,0.994,1.9,1.492,4.072,1.492l2.308-0.813c-3.258,0-4.978-0.092-5.159-0.271c0-0.272,1.222-1.539,3.665-3.801
		c0.996-0.725,1.357-1.584,1.086-2.58c-0.452-0.995-0.679-1.629-0.679-1.9L53.464,242.905z M60.115,256.208l-1.085-1.493l-1.9-0.407
		l-1.766,0.815h2.172c0,0.271-0.724,1.131-2.172,2.578c-1.266,1.449-1.538,3.077-0.814,4.888c0.271,0.994,1.629,1.492,4.072,1.492
		l2.308-1.222c-3.259,0.544-5.023,0.679-5.295,0.408c-0.18-0.453,0.951-1.811,3.394-4.072
		C60.024,258.2,60.387,257.204,60.115,256.208z M352.103,228.381l-2.174-0.407c2.987,1.267,4.48,2.172,4.48,2.715
		c0,0.181-1.766,0.634-5.294,1.357c-1.176,0.271-1.901,0.904-2.171,1.9c0,0.724,0,1.357,0,1.9l1.085,1.086l2.308,0.679l-1.9-1.357
		l2.986-1.223c1.991-0.18,3.213-1.266,3.666-3.257C355.358,230.056,354.363,228.923,352.103,228.381z M347.351,239.919
		c0.996,0.725,2.354,1.72,4.072,2.986c0,0.453-1.719,0.68-5.158,0.68c-1.267,0.27-2.035,0.903-2.308,1.899
		c-0.271,0.724-0.407,1.357-0.407,1.901l1.221,1.357l2.174,0.813l-1.494-1.493c0-0.451,0.995-0.678,2.986-0.678
		c1.991-0.272,3.212-1.403,3.666-3.395c0.271-1.268-0.59-2.488-2.58-3.665L347.351,239.919z M344.364,258.787
		c1.991-0.181,3.212-1.176,3.665-2.985c0.542-1.178-0.182-2.399-2.173-3.666l-1.899-0.678c2.533,1.899,3.801,2.986,3.801,3.257
		c0,0.271-1.765,0.408-5.294,0.408c-1.448,0-2.307,0.634-2.579,1.899c-0.271,0.452-0.407,0.95-0.407,1.494l1.221,1.357l2.174,1.221
		l-0.408-0.407l-1.493-1.085C341.242,259.059,342.373,258.787,344.364,258.787z M343.278,267.34c0.725-1.268,0.09-2.489-1.9-3.665
		l-1.9-1.086c2.262,2.172,3.395,3.394,3.395,3.664c0,0.271-1.72,0.271-5.16,0c-2.262-0.271-3.394,0.86-3.394,3.394l1.087,1.357
		l1.9,1.222l-0.407-0.406l-1.086-1.494c0.272-0.271,1.402-0.407,3.394-0.407c1.447,0,2.309,0,2.578,0
		C342.237,269.466,342.735,268.605,343.278,267.34z M334.318,273.719c0.726,0.995,1.72,2.218,2.987,3.665
		c-0.272,0.452-1.992,0.317-5.158-0.406c-1.539-0.272-2.533,0.227-2.986,1.492c-0.272,0.544-0.408,1.042-0.408,1.494l0.814,1.492
		l1.766,1.086l-1.494-1.492c0.272-0.181,1.402-0.271,3.395-0.271c1.267,0.182,1.99,0.271,2.172,0.271
		c0.814-0.181,1.583-0.906,2.307-2.172c0.996-1.539,0.498-2.896-1.492-4.072L334.318,273.719z M323.188,291.095h3.394
		c1.99,0.271,3.483-0.227,4.479-1.494c0.452-0.995,0.045-2.487-1.223-4.479l-1.764-1.086l2.986,4.072
		c-0.271,0.542-2.036,0.316-5.295-0.679c-1.447-0.271-2.443,0.091-2.986,1.086c-0.452,0.452-0.679,0.95-0.679,1.492l0.408,1.494
		l1.765,1.493l-0.271-0.407L323.188,291.095z M323.596,299.646c0.724-1.267,0.452-2.76-0.815-4.479l-1.765-1.493l2.58,4.479
		c-0.272,0.453-0.769,0.588-1.494,0.408l-3.664-1.494c-1.267-0.543-2.263-0.317-2.986,0.679c-0.272,0.543-0.544,1.04-0.815,1.493
		l0.408,1.9l1.899,1.494l-0.407-0.408l-0.813-1.493c0-0.271,1.131-0.136,3.394,0.407
		C321.106,301.592,322.601,301.095,323.596,299.646z M315.451,307.385c-0.272,0.542-2.036,0.18-5.295-1.087
		c-1.176-0.452-2.126-0.316-2.851,0.408c-0.271,0.451-0.543,0.949-0.814,1.492l0.408,1.765l1.086,1.222l-0.407-1.493
		c0-0.271,0.995-0.181,2.985,0.271c1.991,0.815,3.62,0.452,4.888-1.086c0.995-0.995,0.724-2.488-0.815-4.479l-1.492-1.357
		C313.687,304.216,314.455,305.664,315.451,307.385z M288.302,325.302l0.814,1.357v-1.765l2.852,1.494
		c1.809,0.724,3.438,0.587,4.886-0.408c1.268-1.267,1.268-2.76,0-4.479l-1.085-1.765c0.271,1.178,0.633,2.761,1.085,4.751
		c-0.452,0.544-1.946-0.18-4.479-2.171c-1.177-0.815-2.263-0.815-3.258,0c-0.543,0.181-0.951,0.542-1.221,1.086
		C287.714,324.126,287.849,324.76,288.302,325.302z M304.591,311.864c0.543,1.266,1.176,2.76,1.9,4.479
		c-0.271,0.271-1.855-0.361-4.752-1.9c-1.266-0.452-2.261-0.315-2.984,0.408c-0.544,0.452-0.951,0.949-1.223,1.492
		c-0.182,0.271-0.045,0.906,0.407,1.901l1.085,1.492v-0.407l-0.27-1.493c0.18-0.542,1.176-0.315,2.984,0.679
		c1.72,0.814,3.305,0.588,4.752-0.679c0.995-0.994,0.86-2.488-0.407-4.479L304.591,311.864z M287.623,330.731
		c-0.09-0.542-0.227-1.131-0.407-1.765l-1.494-1.899c0.725,1.628,1.178,2.85,1.357,3.664c0.091,0.724,0,1.132-0.271,1.223
		c-0.18,0.09-0.995-0.317-2.443-1.223c-0.633-0.361-1.312-0.814-2.035-1.357c-0.996-0.994-2.082-1.131-3.258-0.407
		c-0.543,0.272-0.905,0.634-1.087,1.086v1.901l1.087,1.764v-0.271l-0.408-1.899l2.986,1.492c1.72,0.996,3.305,1.131,4.752,0.407
		C287.307,332.904,287.714,331.999,287.623,330.731z M184.864,352.723v1.765l0.679-1.357c0.452,0,0.95,0.859,1.493,2.579
		l1.087,2.171c0.542,0.544,1.538,0.815,2.985,0.815c1.449,0,2.444-1.13,2.986-3.394v-2.172c-0.542,1.177-1.176,2.76-1.899,4.75
		c-0.454,0-1.177-1.582-2.173-4.75c-0.271-1.538-1.041-2.307-2.308-2.307l-1.765,0.406L184.864,352.723z M198.167,351.908
		l-1.086,1.493v1.9l0.68-1.494c0.543,0,1.176,0.861,1.9,2.58c0.724,1.719,2.081,2.58,4.072,2.58c1.266,0,2.127-1.223,2.578-3.666
		v-2.172c-0.451,1.177-1.086,2.76-1.899,4.75c-0.453,0.272-1.177-1.221-2.173-4.479c-0.451-1.176-1.313-1.765-2.578-1.765
		L198.167,351.908z M209.298,353.13v1.766l0.68-1.494c0.271-0.181,0.905,0.588,1.9,2.308c0.725,1.177,1.221,1.901,1.492,2.171
		c0.453,0.544,1.448,0.68,2.987,0.408c1.448-0.271,2.171-1.539,2.171-3.801v-2.172c-0.451,1.268-0.95,2.895-1.492,4.887
		c-0.453,0.182-1.447-1.313-2.986-4.479c-0.452-1.267-1.313-1.765-2.58-1.493l-1.492,0.407L209.298,353.13z M221.923,351.908
		c0.271,0,0.995,0.859,2.172,2.579c0.996,1.539,2.488,2.172,4.479,1.9c1.448-0.271,2.172-1.492,2.172-3.665l-0.272-2.309
		l-1.086,4.888c-0.541,0.271-1.537-1.086-2.986-4.072c-0.813-1.268-1.809-1.764-2.984-1.494l-1.494,0.408l-0.814,1.765l0.407,2.308
		v-0.814L221.923,351.908z M246.764,344.171l-1.493,0.679l-0.406,1.9l0.813,2.172v-2.172c0.453,0,1.313,0.634,2.579,1.899
		c0.725,0.996,1.357,1.585,1.9,1.765c0.182,0,1.041-0.226,2.58-0.679c1.176-0.542,1.764-1.899,1.764-4.072l-1.086-1.899v4.886
		c-0.451,0.182-1.674-1.085-3.665-3.8C249.026,343.854,248.03,343.627,246.764,344.171z M235.226,347.564l-1.493,0.679l-0.679,1.492
		l0.679,2.173v-2.173c0.271,0,1.131,0.725,2.579,2.173c0.996,1.72,2.488,2.217,4.48,1.493c1.267-0.181,1.898-1.402,1.898-3.666
		l-0.406-2.171c-0.271,1.177-0.497,2.76-0.679,4.751c-0.272,0-1.402-1.223-3.394-3.666
		C237.487,347.654,236.492,347.292,235.226,347.564z M275.678,339.691c0.724-0.452,1.086-1.946,1.086-4.479l-1.086-1.766
		c0,1.178,0.136,2.76,0.407,4.751c-0.271,0.272-1.629-0.587-4.072-2.578c-0.996-0.995-2.127-1.223-3.394-0.679l-1.086,1.086
		l-0.408,1.764l1.222,1.901v-2.173l2.58,1.766C272.646,340.278,274.229,340.415,275.678,339.691z M257.216,344.85v-2.172
		c0.182-0.271,1.041,0.362,2.58,1.899l1.764,1.494c0.814,0.181,1.811-0.091,2.987-0.814c1.267-0.725,1.629-2.217,1.085-4.479
		l-0.678-1.765v4.751c-0.272,0.542-1.63-0.452-4.072-2.986c-0.725-0.996-1.584-1.223-2.58-0.679l-1.492,0.679l-0.407,1.9
		L257.216,344.85z"/>
</g>
</svg>
