<?xml version="1.0" encoding="utf-8"?>
<!-- Generator: Adobe Illustrator 16.0.0, SVG Export Plug-In . SVG Version: 6.00 Build 0)  -->
<!DOCTYPE svg PUBLIC "-//W3C//DTD SVG 1.1//EN" "http://www.w3.org/Graphics/SVG/1.1/DTD/svg11.dtd">
<svg version="1.1" id="Layer_1" xmlns="http://www.w3.org/2000/svg" xmlns:xlink="http://www.w3.org/1999/xlink" x="0px" y="0px"
	 width="400px" height="400px" viewBox="0 0 400 400" enable-background="new 0 0 400 400" xml:space="preserve">
<g>
	<path fill-rule="evenodd" clip-rule="evenodd" fill="#F2ECD6" d="M190.865,32.497c1.658,0,3.926,1.492,6.8,4.478
		c3.316,3.205,5.804,4.808,7.462,4.808c1.326,0,3.648-1.603,6.965-4.808c2.873-2.986,5.14-4.478,6.798-4.478
		c1.548,0.332,3.648,2.321,6.302,5.969c2.653,3.538,4.643,5.528,5.97,5.97c1.327,0.221,3.813-1.106,7.462-3.98
		c3.537-2.653,5.969-3.814,7.296-3.482c1.658,0.663,3.483,2.93,5.472,6.798c1.88,4.311,3.482,6.633,4.81,6.965
		c1.326,0.662,4.146-0.167,8.456-2.487c3.87-1.99,6.468-2.654,7.794-1.99c1.326,0.664,2.654,3.151,3.98,7.462
		c1.326,4.201,2.652,6.633,3.979,7.297c1.216,0.662,3.98,0.331,8.292-0.996c3.869-1.216,6.467-1.381,7.793-0.497
		c1.326,0.994,2.322,3.648,2.984,7.959c0.664,4.2,1.494,6.799,2.488,7.794c1.327,0.994,4.09,1.161,8.291,0.497
		c4.645-0.663,7.462-0.497,8.457,0.497c1.327,0.996,1.824,3.815,1.492,8.458c-0.33,4.532-0.055,7.295,0.829,8.291
		c1.106,1.326,3.925,1.99,8.458,1.99c4.643,0.33,7.295,0.994,7.959,1.988c0.884,1.328,0.884,4.091,0,8.292
		c-0.664,4.312-0.664,7.131,0,8.458c0.664,0.884,3.262,1.879,7.794,2.985c4.2,0.884,6.633,1.99,7.295,3.316
		c0.664,1.326,0.222,4.146-1.326,8.456c-1.658,3.871-2.155,6.468-1.491,7.794c0.553,1.326,2.984,2.984,7.295,4.975
		c4.313,1.326,6.633,2.764,6.965,4.312c0.664,1.327-0.332,3.979-2.984,7.959c-2.322,3.869-3.316,6.466-2.984,7.794
		c0.33,1.326,2.487,3.149,6.466,5.472c3.869,1.99,5.971,3.759,6.302,5.307c0.332,1.658-0.939,4.146-3.814,7.462
		c-2.984,3.647-4.477,6.134-4.477,7.462c0.331,1.216,2.102,3.317,5.307,6.301c3.316,2.984,4.975,5.25,4.975,6.799
		c0,1.767-1.658,3.925-4.975,6.466c-3.205,2.984-4.976,5.086-5.307,6.303c0,1.768,1.492,4.254,4.477,7.461
		c2.875,3.539,4.146,5.969,3.814,7.297c-0.331,1.768-2.433,3.592-6.302,5.473c-3.979,2.32-6.136,4.145-6.466,5.471
		c-0.332,1.217,0.662,3.814,2.984,7.795c2.652,3.979,3.648,6.633,2.984,7.959c-0.332,1.658-2.652,3.262-6.965,4.809
		c-4.311,1.658-6.742,3.15-7.295,4.477c-0.664,1.328-0.167,4.09,1.491,8.291c1.548,3.98,1.99,6.633,1.326,7.961
		c-0.662,1.326-3.095,2.486-7.295,3.482c-4.532,0.994-7.13,1.934-7.794,2.818c-0.664,1.326-0.664,4.146,0,8.457
		c0.884,4.199,0.884,6.965,0,8.291c-1.106,1.326-3.759,1.99-7.959,1.99c-4.533,0.332-7.352,0.994-8.458,1.99
		c-0.884,0.994-1.159,3.813-0.829,8.455c0.332,4.533-0.165,7.297-1.492,8.291c-0.995,0.996-3.813,1.162-8.457,0.498
		c-4.201-0.662-6.964-0.498-8.291,0.498c-0.994,0.994-1.824,3.76-2.488,8.291c-0.662,4.311-1.658,6.744-2.984,7.295
		c-1.326,1.107-3.924,0.996-7.793-0.332c-4.312-1.326-7.076-1.658-8.292-0.994c-1.326,0.664-2.652,3.262-3.979,7.795
		c-1.326,3.979-2.654,6.301-3.98,6.965c-1.326,0.662-3.924,0-7.794-1.99c-4.311-1.658-7.13-2.322-8.456-1.99
		c-1.658,0.332-3.262,2.432-4.81,6.301c-2.32,4.313-4.146,6.633-5.472,6.965c-1.327,0.332-3.759-0.828-7.296-3.482
		c-3.648-2.543-6.135-3.814-7.462-3.814c-1.327,0.223-3.316,2.156-5.97,5.805c-2.653,3.98-4.754,5.971-6.302,5.971
		c-1.658,0.332-3.925-1.162-6.798-4.479c-3.316-3.316-5.639-4.975-6.965-4.975c-1.658,0-4.146,1.658-7.462,4.975
		c-2.874,3.316-5.142,4.811-6.8,4.479c-1.658,0-3.647-1.99-5.969-5.971c-2.653-3.648-4.588-5.582-5.804-5.805
		c-1.326,0-3.813,1.271-7.462,3.814c-3.537,2.654-6.136,3.814-7.794,3.482c-1.326-0.332-2.984-2.652-4.975-6.965
		c-1.99-3.869-3.758-5.969-5.307-6.301c-1.326-0.332-3.979,0.332-7.959,1.99c-3.868,1.99-6.688,2.652-8.456,1.99
		c-1.216-0.332-2.322-2.654-3.316-6.965c-1.326-4.533-2.654-7.131-3.98-7.795s-4.146-0.332-8.456,0.994
		c-4.201,1.328-6.91,1.439-8.126,0.332c-1.326-0.551-2.21-2.984-2.653-7.295c-0.664-4.531-1.658-7.297-2.984-8.291
		c-0.884-0.996-3.648-1.16-8.291-0.498c-4.201,0.664-6.965,0.498-8.292-0.498c-0.996-0.994-1.328-3.758-0.996-8.291
		c0-4.311-0.497-7.129-1.492-8.455c-0.996-0.996-3.593-1.658-7.794-1.99c-4.643,0-7.462-0.664-8.458-1.99
		c-0.994-1.326-0.994-4.092,0-8.291c0.996-4.311,1.161-7.131,0.499-8.457c-0.664-0.885-3.261-1.824-7.794-2.818
		c-4.313-0.996-6.965-2.156-7.959-3.482c-0.664-1.328-0.167-3.98,1.491-7.961c1.658-4.201,2.155-6.963,1.493-8.291
		c-0.332-1.326-2.654-2.818-6.965-4.477c-3.869-1.547-6.136-3.15-6.798-4.809c-0.332-1.326,0.498-3.98,2.488-7.959
		c2.21-3.98,3.205-6.578,2.984-7.795c-0.442-1.326-2.599-3.15-6.468-5.471c-3.537-1.881-5.527-3.705-5.969-5.473
		c-0.222-1.549,1.106-3.98,3.979-7.297c2.986-3.648,4.313-6.135,3.98-7.461c0-1.217-1.658-3.318-4.975-6.303
		c-3.537-2.541-5.307-4.699-5.307-6.466c0-1.549,1.77-3.814,5.307-6.799c3.316-2.984,4.975-5.084,4.975-6.301
		c0.332-1.328-0.995-3.815-3.98-7.462c-2.873-3.316-4.201-5.804-3.979-7.462c0.442-1.548,2.432-3.316,5.969-5.307
		c3.869-2.322,6.025-4.146,6.468-5.472c0.22-1.328-0.774-3.925-2.984-7.794c-1.99-3.98-2.819-6.633-2.488-7.959
		c0.663-1.328,2.93-2.764,6.798-4.312c4.311-1.658,6.633-3.316,6.965-4.975c0.662-1.327,0.165-3.924-1.493-7.794
		c-1.658-4.311-2.155-7.13-1.491-8.456c0.994-1.326,3.646-2.432,7.959-3.316c4.533-1.106,7.13-2.101,7.794-2.985
		c0.994-1.326,0.994-4.146,0-8.458c-0.996-4.201-1.161-6.963-0.499-8.292c0.996-0.994,3.815-1.658,8.458-1.988
		c4.201,0,6.798-0.664,7.794-1.99c0.995-0.996,1.492-3.759,1.492-8.291c-0.332-4.643,0-7.462,0.996-8.458
		c1.327-0.994,4.091-1.16,8.292-0.497c4.643,0.664,7.407,0.497,8.291-0.497c1.326-0.995,2.321-3.594,2.984-7.794
		c0.442-4.311,1.327-6.965,2.653-7.959c1.216-0.884,3.925-0.719,8.126,0.497c4.311,1.327,7.13,1.658,8.456,0.996
		c1.326-0.664,2.654-3.096,3.98-7.297c0.994-4.311,2.1-6.798,3.316-7.462c1.769-0.664,4.588,0,8.456,1.99
		c3.98,1.99,6.633,2.819,7.959,2.487c1.548-0.332,3.316-2.654,5.307-6.965c1.99-3.869,3.648-6.136,4.975-6.798
		c1.658-0.332,4.257,0.829,7.794,3.482c3.648,2.874,6.136,4.201,7.462,3.98c1.216-0.442,3.151-2.432,5.804-5.97
		C187.218,34.817,189.207,32.829,190.865,32.497z"/>
	<path fill-rule="evenodd" clip-rule="evenodd" fill="#3FA094" d="M297.49,90.038c1.658,1.658,1.824,3.149,0.497,4.476
		c-0.995,1.658-2.433,1.825-4.312,0.499c-1.326-1.328-1.492-2.819-0.498-4.478C294.727,88.876,296.162,88.709,297.49,90.038z
		 M290.193,88.047c-1.326,1.99-2.652,2.32-3.98,0.994c-1.988-1.216-2.32-2.652-0.994-4.311c1.326-1.99,2.819-2.155,4.478-0.497
		C292.018,85.56,292.184,86.831,290.193,88.047z M312.248,104.297c1.326,1.99,1.216,3.482-0.332,4.478
		c-1.326,1.327-2.873,1.161-4.643-0.497c-1.217-1.328-0.994-2.654,0.664-3.98c0.662-0.664,1.436-0.994,2.32-0.994
		C311.363,103.303,312.027,103.634,312.248,104.297z M318.715,112.091c1.327,1.99,1.162,3.537-0.496,4.643
		c-1.658,0.884-3.152,0.664-4.479-0.664c-1.216-1.989-1.051-3.427,0.498-4.311C316.229,110.433,317.72,110.543,318.715,112.091z
		 M305.449,101.313c-1.658,1.658-3.15,1.658-4.477,0c-1.658-1.326-1.658-2.764,0-4.313c1.326-1.326,2.818-1.326,4.477,0
		C306.666,98.549,306.666,99.987,305.449,101.313z M324.685,120.548c1.326,1.658,0.995,3.151-0.994,4.478
		c-2.322,0.552-3.648,0.222-3.98-0.994c-1.326-1.99-1.161-3.483,0.497-4.478C321.865,118.337,323.358,118.669,324.685,120.548z
		 M260.678,74.284c-1.658-0.664-2.156-1.935-1.493-3.815c0.995-1.989,2.487-2.487,4.478-1.492c1.658,0.663,2.155,1.934,1.493,3.814
		C263.827,74.782,262.336,75.279,260.678,74.284z M268.472,74.284c0.662-1.88,1.988-2.212,3.979-0.996
		c1.658,0.664,2.155,1.99,1.493,3.98c-0.996,1.658-2.487,2.155-4.478,1.491C267.476,77.434,267.144,75.942,268.472,74.284z
		 M281.405,78.263c1.878,1.326,2.155,2.819,0.829,4.478c-1.216,1.88-2.654,2.21-4.313,0.994c-1.988-1.326-2.32-2.817-0.994-4.476
		C278.254,77.269,279.747,76.937,281.405,78.263z M230.662,61.516c0.664-1.658,1.99-2.487,3.98-2.487
		c2.211,0.662,2.984,1.99,2.322,3.979c-0.664,1.99-1.935,2.819-3.814,2.487C231.492,64.832,230.662,63.506,230.662,61.516z
		 M223.864,64.003c-1.989-0.332-2.984-1.658-2.984-3.98c0.663-1.658,1.99-2.487,3.979-2.487c1.548,0,2.322,1.161,2.322,3.483
		C226.961,63.007,225.854,64.003,223.864,64.003z M249.898,66.987c0.553-1.99,1.99-2.652,4.312-1.99
		c2.322,0.664,2.819,1.99,1.493,3.98c-0.664,1.878-1.99,2.542-3.98,1.99C249.844,70.304,249.235,68.978,249.898,66.987z
		 M246.416,65.495c-0.662,2.322-1.988,3.151-3.979,2.487c-1.881-0.663-2.543-1.989-1.99-3.979c0.664-2.322,1.99-3.151,3.98-2.487
		C246.416,62.178,247.08,63.506,246.416,65.495z M334.469,138.291c1.326,1.99,0.829,3.317-1.493,3.98
		c-1.99,0.663-3.316,0.11-3.979-1.658c-0.664-1.88-0.167-3.151,1.491-3.815C332.479,135.472,333.805,135.969,334.469,138.291z
		 M328.498,133.316c-1.215,0.664-2.487,0.332-3.813-0.994c-1.326-1.658-0.994-3.151,0.995-4.478
		c1.547-1.326,2.985-0.996,4.312,0.994S330.82,132.322,328.498,133.316z M332.976,149.567c-0.662-1.99-0.165-3.316,1.493-3.979
		c1.99-0.332,3.426,0.166,4.311,1.492c0.442,1.658-0.221,3.151-1.99,4.478C334.91,152.221,333.64,151.557,332.976,149.567z
		 M338.447,155.039c1.328-0.33,2.6,0.332,3.815,1.99c0.662,1.88-0.167,3.151-2.487,3.813c-1.99,0.664-3.316,0-3.98-1.988
		C335.242,156.974,336.127,155.703,338.447,155.039z M344.75,166.813c0.662,2.32-0.167,3.481-2.487,3.481
		c-2.322,0.664-3.483,0-3.483-1.99c-0.662-1.988,0-3.316,1.99-3.979C342.76,163.662,344.086,164.491,344.75,166.813z
		 M344.251,180.079c-2.32,0.663-3.481-0.167-3.481-2.487c-0.664-1.658,0.165-2.819,2.487-3.483c1.658-0.663,2.819,0.167,3.481,2.487
		C347.402,178.917,346.573,180.079,344.251,180.079z M345.744,200.143c-2.322,0-3.481-1.104-3.481-3.316
		c0-1.99,0.994-2.984,2.984-2.984c2.32,0,3.481,0.994,3.481,2.984C348.729,199.039,347.734,200.143,345.744,200.143z
		 M341.764,187.374c0-2.21,0.996-3.316,2.986-3.316c1.658-0.663,2.817,0.332,3.481,2.986c0,1.879-0.994,2.818-2.984,2.818
		C342.925,190.525,341.764,189.696,341.764,187.374z M194.681,63.007c-2.212,0-3.316-0.995-3.316-2.985
		c0-2.32,0.994-3.481,2.984-3.481s3.095,0.994,3.316,2.984C197.665,61.184,196.669,62.345,194.681,63.007z M201.146,59.525
		c0-2.21,0.996-3.316,2.984-3.316c2.212,0,3.316,1.106,3.316,3.316c0,1.99-1.104,2.984-3.316,2.984
		C202.143,62.51,201.146,61.516,201.146,59.525z M213.915,63.007c-1.878-0.663-2.819-1.824-2.819-3.482
		c0-1.99,1.106-2.984,3.316-2.984c1.99,0,2.984,1.161,2.984,3.481C217.396,62.013,216.237,63.007,213.915,63.007z M162.345,65.993
		c-0.664-1.99,0-3.316,1.989-3.98c1.88-0.664,3.151,0.166,3.815,2.487c0.662,1.658,0.055,2.819-1.825,3.482
		C164.333,68.646,163.007,67.982,162.345,65.993z M158.862,66.987c0.332,1.658-0.332,3.151-1.99,4.478
		c-1.989,0.552-3.316-0.11-3.979-1.99c-1.326-1.99-0.829-3.316,1.492-3.98C156.042,64.5,157.536,64.997,158.862,66.987z
		 M171.63,63.506c-0.664-1.99,0.166-3.316,2.487-3.98c2.322-0.664,3.482,0.165,3.482,2.487c0.664,2.322,0,3.482-1.989,3.482
		C173.621,66.158,172.294,65.495,171.63,63.506z M181.58,61.516c-0.442-1.99,0.332-3.316,2.322-3.98
		c2.321,0,3.482,0.996,3.482,2.984c0.664,1.659-0.166,2.819-2.487,3.483C183.238,64.003,182.132,63.174,181.58,61.516z
		 M131.833,79.756c1.326,1.658,0.994,3.149-0.994,4.478c-1.658,1.326-3.151,0.994-4.478-0.996c-1.326-1.658-0.996-3.149,0.994-4.478
		C129.014,77.434,130.507,77.766,131.833,79.756z M136.144,73.786c1.99-1.326,3.316-0.994,3.98,0.996
		c0.994,1.99,0.664,3.481-0.994,4.477c-1.548,0.995-2.986,0.498-4.313-1.493C134.155,76.108,134.597,74.782,136.144,73.786z
		 M148.083,74.782c-1.658,0.994-3.149,0.497-4.478-1.493c-0.662-1.878-0.165-3.15,1.493-3.814c1.658-0.994,3.151-0.497,4.478,1.493
		C150.239,72.846,149.742,74.118,148.083,74.782z M119.064,84.731c1.548-0.996,2.984-0.829,4.313,0.497
		c1.104,1.548,0.994,2.984-0.332,4.311c-1.99,1.328-3.483,1.161-4.478-0.497C117.241,87.163,117.406,85.725,119.064,84.731z
		 M110.608,95.509c-1.326-1.99-1.106-3.483,0.663-4.478c1.88-1.326,3.316-1.161,4.313,0.497c1.326,1.326,1.161,2.819-0.498,4.478
		C114.09,97,112.598,96.835,110.608,95.509z M103.809,97.997c1.328-1.658,2.819-1.658,4.478,0c1.326,1.548,1.326,2.984,0,4.311
		c-1.658,1.327-3.15,1.327-4.478,0c-0.663-0.22-0.995-0.884-0.995-1.99C102.814,99.433,103.146,98.659,103.809,97.997z
		 M90.542,113.086c0.996-1.548,2.432-1.658,4.313-0.332c1.326,1.328,1.546,2.764,0.662,4.313c-1.326,1.326-2.817,1.548-4.476,0.662
		C89.051,116.402,88.884,114.854,90.542,113.086z M101.321,104.795c1.328,1.99,1.328,3.483,0,4.477
		c-0.995,1.659-2.488,1.824-4.476,0.498c-1.328-1.327-1.328-2.819,0-4.478C97.839,103.746,99.333,103.579,101.321,104.795z
		 M89.548,125.025c-0.332,1.216-1.658,1.493-3.98,0.829c-1.989-1.216-2.321-2.652-0.994-4.311c1.326-1.99,2.819-2.322,4.478-0.996
		C90.377,121.874,90.542,123.367,89.548,125.025z M93.03,279.904c1.216,1.988,1.051,3.482-0.497,4.477
		c-1.99,1.215-3.481,1.051-4.478-0.498c-1.326-1.658-0.994-3.15,0.996-4.477C90.377,278.41,91.704,278.576,93.03,279.904z
		 M127.853,313.73c1.658,1.107,1.825,2.654,0.499,4.643c-0.332,1.217-1.658,1.494-3.98,0.83c-1.548-1.658-1.878-3.15-0.994-4.477
		C124.703,312.848,126.194,312.516,127.853,313.73z M131.833,320.199c1.326-1.881,2.652-2.213,3.98-0.996
		c1.546,0.664,1.988,1.99,1.326,3.98c-1.216,1.99-2.654,2.322-4.313,0.994C130.839,323.516,130.507,322.189,131.833,320.199z
		 M144.602,323.68c1.658,0.664,2.155,1.936,1.492,3.814c-1.327,1.99-2.818,2.543-4.476,1.658c-1.658-0.662-2.157-1.988-1.493-3.979
		C141.45,323.184,142.943,322.686,144.602,323.68z M105.301,299.637c-1.326,1.326-2.819,1.326-4.478,0
		c-1.326-1.99-1.161-3.482,0.498-4.479c1.328-1.658,2.819-1.658,4.478,0C107.015,296.486,106.85,297.979,105.301,299.637z
		 M112.598,301.959c1.658,1.658,1.658,2.984,0,3.979c-0.884,1.658-2.322,1.824-4.312,0.498c-1.327-1.328-1.327-2.818,0-4.477
		C109.612,300.41,111.05,300.41,112.598,301.959z M94.855,287.199c1.326-0.885,2.652-0.719,3.979,0.498
		c1.659,1.658,1.659,3.15,0,4.477c-1.988,1.326-3.426,1.162-4.311-0.496C92.865,290.02,92.975,288.525,94.855,287.199z
		 M120.061,307.928c1.546,0.996,1.658,2.486,0.33,4.477c-0.884,1.549-2.32,1.658-4.311,0.332c-1.658-0.885-1.824-2.322-0.497-4.313
		C116.909,307.098,118.402,306.934,120.061,307.928z M153.555,327.494c2.212,0.664,2.654,1.99,1.328,3.98
		c-0.664,1.99-1.99,2.652-3.98,1.99c-1.878-1.326-2.322-2.764-1.326-4.313C150.239,327.385,151.566,326.832,153.555,327.494z
		 M177.6,337.941c0.664-1.99,1.99-2.818,3.98-2.486c1.548,0.662,2.322,1.822,2.322,3.48c-0.664,2.211-1.77,2.984-3.316,2.322
		C178.595,341.258,177.6,340.152,177.6,337.941z M174.118,337.443c-0.664,1.881-1.99,2.543-3.98,1.99
		c-1.988,0-2.652-1.162-1.988-3.482c0.662-2.322,1.823-3.15,3.481-2.486C173.953,334.127,174.782,335.455,174.118,337.443z
		 M160.852,336.945c-2.653-0.662-3.316-1.99-1.99-3.979c0.332-1.879,1.493-2.486,3.483-1.824c2.321,0.664,3.15,1.768,2.488,3.316
		C164.168,336.781,162.842,337.609,160.852,336.945z M207.447,340.262c0-1.877,0.996-2.818,2.986-2.818
		c1.988,0,2.984,0.941,2.984,2.818c0.662,2.434-0.332,3.648-2.984,3.648C208.443,343.91,207.447,342.695,207.447,340.262z
		 M219.885,336.449c2.211,0,3.316,0.994,3.316,2.984c0.443,0.553,0.332,1.383-0.331,2.486c-0.664,0.664-1.327,0.996-1.99,0.996
		c-2.322,0.662-3.483-0.332-3.483-2.986C217.396,338.271,218.227,337.113,219.885,336.449z M197.333,340.262
		c0.552-1.877,1.658-2.818,3.316-2.818c1.99,0,2.984,0.941,2.984,2.818c0,2.434-0.994,3.648-2.984,3.648
		C198.439,343.91,197.333,342.695,197.333,340.262z M193.685,340.262c0,2.434-1.106,3.316-3.316,2.654
		c-1.99,0-2.984-1.16-2.984-3.482c0.664-2.32,1.823-3.15,3.481-2.488C192.745,336.945,193.685,338.053,193.685,340.262z
		 M348.729,207.107c-0.662,1.99-1.823,2.984-3.481,2.984c-1.99-0.332-2.984-1.492-2.984-3.482s0.994-2.984,2.984-2.984
		C347.567,203.625,348.729,204.785,348.729,207.107z M341.267,216.561c0.664-1.99,1.825-2.986,3.483-2.986
		c1.988,0.664,2.984,1.77,2.984,3.316c-0.332,1.99-1.493,2.986-3.483,2.986C342.263,219.545,341.267,218.438,341.267,216.561z
		 M339.775,225.68c0.662-1.549,1.988-2.322,3.979-2.322c1.658,0.664,2.487,1.99,2.487,3.98c-0.662,1.549-1.99,2.32-3.979,2.32
		C340.604,228.996,339.775,227.67,339.775,225.68z M339.775,239.111c-1.99-0.662-2.654-1.824-1.99-3.482
		c0.662-2.322,1.99-3.15,3.979-2.486c1.99,0.662,2.654,1.99,1.99,3.979C343.092,239.111,341.764,239.775,339.775,239.111z
		 M321.7,278.41c1.99,1.328,2.321,2.82,0.994,4.479c-1.104,1.658-2.598,1.824-4.476,0.498c-1.99-1.328-2.322-2.82-0.996-4.479
		C318.549,277.582,320.042,277.416,321.7,278.41z M334.966,244.418c0.552-2.211,1.823-2.652,3.813-1.326
		c1.99,0.662,2.654,1.934,1.99,3.813c-0.664,2.322-1.99,2.82-3.98,1.494C334.91,247.734,334.302,246.408,334.966,244.418z
		 M335.463,251.879c1.99,0.994,2.654,2.434,1.99,4.311c-1.326,1.99-2.819,2.545-4.478,1.658c-1.658-0.662-2.155-1.988-1.491-3.979
		C332.146,251.879,333.473,251.215,335.463,251.879z M331.484,261.164c2.32,0.664,2.817,1.99,1.491,3.98
		c-0.994,1.99-2.487,2.488-4.478,1.494c-1.879-0.664-2.211-1.99-0.994-3.98C328.168,260.336,329.494,259.838,331.484,261.164z
		 M328.001,274.432c-0.884,1.326-2.321,1.658-4.311,0.994c-1.99-1.326-2.322-2.764-0.996-4.313c1.327-1.988,2.765-2.32,4.313-0.994
		C328.665,271.113,328.997,272.553,328.001,274.432z M270.46,324.178c0.996,1.547,0.499,2.986-1.491,4.313
		c-1.881,1.326-3.151,0.883-3.813-1.326c-1.328-1.99-0.884-3.316,1.326-3.98C268.14,322.189,269.466,322.52,270.46,324.178z
		 M287.209,313.73c1.326,1.99,1.161,3.539-0.497,4.643c-1.658,1.217-3.151,0.887-4.478-0.994c-0.996-1.768-0.664-3.094,0.994-3.98
		C284.555,312.072,285.883,312.184,287.209,313.73z M279.415,319.203c0.664,1.99,0.165,3.482-1.493,4.477
		c-1.988,1.217-3.316,0.885-3.979-0.994c-1.326-1.658-0.996-3.096,0.994-4.313C276.928,317.711,278.421,317.986,279.415,319.203z
		 M248.406,330.48c1.99-0.664,3.316,0,3.98,1.988c0.662,1.99,0,3.316-1.99,3.98s-3.316,0-3.98-1.99
		C245.754,332.469,246.416,331.143,248.406,330.48z M242.934,335.455c0.664,1.988-0.164,3.316-2.486,3.979
		c-0.553,0.332-1.382,0.166-2.488-0.498c-0.664-0.664-0.994-1.326-0.994-1.99c-0.664-1.99,0-3.316,1.988-3.979
		C240.943,332.967,242.271,333.797,242.934,335.455z M227.182,338.936c-0.664-2.322,0.164-3.48,2.486-3.48
		c2.322-0.664,3.482,0.164,3.482,2.486c0.664,1.547-0.166,2.652-2.488,3.316c-0.662,0.443-1.49,0.33-2.486-0.332
		C227.513,340.262,227.182,339.6,227.182,338.936z M257.693,327.164c1.658-0.664,2.984-0.223,3.979,1.326
		c0.664,1.99,0.167,3.48-1.492,4.477c-2.321,0.662-3.814,0.055-4.477-1.824C255.039,329.152,255.703,327.826,257.693,327.164z
		 M309.928,298.643c-1.771,1.326-3.262,1.326-4.479,0c-1.658-1.658-1.824-3.152-0.497-4.479c1.989-1.326,3.427-1.326,4.312,0
		C311.031,295.158,311.254,296.652,309.928,298.643z M311.254,286.867c1.326-1.326,2.818-1.547,4.477-0.662
		c1.658,0.994,1.824,2.488,0.498,4.477c-0.996,1.66-2.433,1.824-4.313,0.498C310.59,289.854,310.369,288.416,311.254,286.867z
		 M302.465,305.439c-1.328,1.658-2.819,1.658-4.478,0c-1.216-1.658-1.216-3.148,0-4.477c1.658-1.326,3.149-1.326,4.478,0
		C304.123,302.621,304.123,304.113,302.465,305.439z M290.691,307.43c1.989-1.326,3.482-1.16,4.477,0.498
		c1.549,1.658,1.326,3.15-0.664,4.477c-1.546,0.885-2.984,0.719-4.311-0.496C289.199,310.25,289.364,308.756,290.691,307.43z
		 M83.579,128.839c1.989,1.326,2.321,2.819,0.995,4.478c-0.995,1.658-2.267,1.99-3.814,0.995c-1.99-0.663-2.487-2.156-1.493-4.476
		C80.483,127.845,81.921,127.513,83.579,128.839z M78.77,137.794c2.211,0.663,2.653,1.934,1.327,3.814
		c-0.552,2.322-1.824,2.874-3.814,1.658c-2.322-0.664-2.819-1.99-1.493-3.98C75.453,136.965,76.779,136.468,78.77,137.794z
		 M67.327,158.025c0.664-1.99,1.99-2.654,3.98-1.99c1.99,0.662,2.653,1.934,1.99,3.813c-0.664,1.99-1.99,2.652-3.98,1.99
		C67.439,161.174,66.775,159.903,67.327,158.025z M74.79,146.583c1.658,1.326,2.322,2.652,1.99,3.98
		c-0.994,1.988-2.487,2.652-4.478,1.988c-2.32-0.662-2.817-1.988-1.491-3.979C71.473,146.583,72.801,145.918,74.79,146.583z
		 M65.007,167.807c0.662-1.99,1.769-2.652,3.316-1.99c2.32,0,3.149,1.161,2.487,3.483c-0.664,1.878-1.99,2.708-3.98,2.487
		C64.952,171.124,64.343,169.797,65.007,167.807z M66.498,175.104c2.212,0.663,2.986,1.99,2.322,3.979
		c0,1.658-1.106,2.487-3.316,2.487c-2.322-0.663-3.151-1.824-2.487-3.482C63.017,176.099,64.178,175.104,66.498,175.104z
		 M65.007,185.053c1.878,0.663,2.819,1.769,2.819,3.317c0,1.99-1.106,2.984-3.316,2.984c-1.99,0-2.986-1.161-2.986-3.482
		C62.188,185.993,63.349,185.053,65.007,185.053z M64.51,194.836c1.878,0.664,2.817,1.824,2.817,3.482
		c0,1.879-0.939,2.82-2.817,2.82c-2.322,0-3.483-0.941-3.483-2.82C61.69,195.997,62.852,194.836,64.51,194.836z M64.51,205.117
		c1.878,0,2.817,0.996,2.817,2.984c0.664,1.99-0.11,2.986-2.32,2.986c-2.322,0-3.483-0.996-3.483-2.986
		C61.523,206.113,62.52,205.117,64.51,205.117z M68.323,217.555c0.662,2.211-0.112,3.316-2.322,3.316
		c-2.32,0.664-3.481-0.111-3.481-2.322c-0.664-2.432,0.165-3.648,2.487-3.648C67.217,214.238,68.323,215.121,68.323,217.555z
		 M69.814,227.338c0.664,1.549,0,2.652-1.988,3.316c-1.88,0.662-3.151-0.109-3.815-2.322c-0.33-0.662-0.165-1.547,0.499-2.652
		c0.662-0.553,1.326-0.828,1.988-0.828C68.71,224.188,69.814,225.016,69.814,227.338z M68.323,234.137
		c1.99,0,3.316,0.828,3.979,2.486c0.664,1.99,0,3.262-1.988,3.814c-1.99,0.664-3.261-0.111-3.815-2.32
		C65.836,236.127,66.443,234.801,68.323,234.137z M73.298,249.889c-1.99,0.664-3.316,0-3.98-1.99c-0.662-1.877,0-3.148,1.99-3.813
		c1.99-0.662,3.316-0.055,3.98,1.824C75.95,247.898,75.288,249.227,73.298,249.889z M78.77,254.863
		c1.327,1.99,0.829,3.262-1.493,3.814c-1.989,1.328-3.316,0.828-3.979-1.492c-1.326-1.879-0.829-3.15,1.492-3.813
		C76.779,252.045,78.106,252.543,78.77,254.863z M83.081,263.652c0.664,1.99,0.222,3.316-1.326,3.98
		c-1.658,1.326-3.15,0.994-4.478-0.994c-0.663-1.99-0.166-3.484,1.493-4.479C80.76,261.496,82.196,261.994,83.081,263.652z
		 M83.579,271.113c1.989-1.326,3.316-1.049,3.979,0.83c1.326,1.658,0.996,3.15-0.995,4.477c-1.326,1.328-2.654,0.996-3.98-0.994
		C81.367,273.768,81.699,272.33,83.579,271.113z"/>
</g>
</svg>
