<?xml version="1.0" encoding="utf-8"?>
<!-- Generator: Adobe Illustrator 16.0.0, SVG Export Plug-In . SVG Version: 6.00 Build 0)  -->
<!DOCTYPE svg PUBLIC "-//W3C//DTD SVG 1.1//EN" "http://www.w3.org/Graphics/SVG/1.1/DTD/svg11.dtd">
<svg version="1.1" id="Layer_1" xmlns="http://www.w3.org/2000/svg" xmlns:xlink="http://www.w3.org/1999/xlink" x="0px" y="0px"
	 width="400px" height="400px" viewBox="0 0 400 400" enable-background="new 0 0 400 400" xml:space="preserve">
<g>
	<path fill-rule="evenodd" clip-rule="evenodd" fill="#2D1B12" d="M200.001,23.329c7.511,0,13.937,2.625,19.274,7.873
		l149.455,149.59c5.339,5.34,8.009,11.764,8.009,19.276c0,7.511-2.67,13.892-8.009,19.14l-149.455,149.59
		c-5.338,5.34-11.764,8.008-19.274,8.008s-13.938-2.668-19.276-8.008L31.27,219.208c-5.338-5.248-8.008-11.629-8.008-19.14
		c0-7.513,2.67-13.937,8.008-19.276l149.455-149.59C186.063,25.953,192.49,23.329,200.001,23.329z M232.036,70.839l-5.294-5.973
		c3.438,4.072,4.66,8.598,3.665,13.575c-0.814,4.254-3.438,9.186-7.873,14.797c-3.259,4.252-3.438,8.506-0.544,12.759
		c1.449,2.083,3.214,3.755,5.295,5.022c-3.076-3.891-4.072-7.465-2.986-10.723c0.091-0.182,2.625-4.661,7.603-13.439
		C235.068,81.337,235.113,75.997,232.036,70.839z M200.001,18.713c-8.778,0-16.244,3.077-22.397,9.23L28.013,177.534
		c-6.153,6.153-9.23,13.664-9.23,22.534c0,8.776,3.077,16.243,9.23,22.397L177.604,371.92c6.153,6.153,13.619,9.23,22.397,9.23
		s16.244-3.077,22.397-9.23l149.59-149.454c6.153-6.154,9.231-13.621,9.231-22.397c0-8.87-3.078-16.381-9.231-22.534L222.398,27.943
		C216.245,21.79,208.779,18.713,200.001,18.713z M225.656,24.821l149.455,149.455c7.149,7.059,10.723,15.611,10.723,25.655
		c0,10.046-3.573,18.597-10.723,25.656L225.656,375.179c-7.06,7.058-15.611,10.588-25.655,10.588
		c-10.046,0-18.597-3.53-25.656-10.588L24.891,225.588c-7.15-7.06-10.725-15.61-10.725-25.656c0-10.044,3.574-18.597,10.725-25.655
		L174.345,24.821c7.06-7.059,15.61-10.588,25.656-10.588C210.045,14.233,218.597,17.762,225.656,24.821z M240.181,95.815
		c2.354-3.167,2.851-6.605,1.493-10.316l-2.851-4.751c1.448,3.438,1.357,6.335-0.271,8.688c-2.624,2.895-4.706,5.475-6.244,7.736
		c-1.9,2.896-2.442,6.245-1.629,10.045c0.452,1.901,1.086,3.484,1.901,4.752c-0.634-3.801-0.272-6.652,1.086-8.552
		C234.57,102.061,236.742,99.526,240.181,95.815z M212.218,146.585c1.991,1.99,3.801,3.438,5.431,4.344h-33.123
		c-0.361,0.361-0.451,0.678-0.271,0.95c0.092,0.181,0.182,0.317,0.271,0.407c10.498,0.271,18.416,1.221,23.756,2.85
		c2.715,0.906,4.344,1.72,4.886,2.443h36.244l5.022-2.443c5.34-1.629,13.258-2.578,23.756-2.85c0.543-0.362,0.543-0.815,0-1.357
		h-33.122l2.173-1.494c1.809-1.357,3.438-2.896,4.886-4.615l3.53-0.543c2.623-0.452,4.343-0.634,5.158-0.542
		c1.899,0.09,4.027-0.679,6.38-2.308c3.349-2.443,5.43-6.02,6.244-10.725c0.905-4.977-0.452-8.552-4.072-10.723
		c-3.167-1.901-6.607-2.174-10.316-0.816c-0.544-2.262-1.721-3.665-3.53-4.207h-48.324c-4.254,1.176-5.068,7.284-2.443,18.326
		C205.928,138.35,208.416,142.784,212.218,146.585z M267.465,125.95c1.629,2.264,1.674,5.068,0.137,8.417
		c-1.539,3.167-3.304,4.841-5.295,5.022c-1.809,0.181-3.031,0.226-3.665,0.136c-0.813-0.091-1.628-0.407-2.443-0.95
		c0.905-2.082,1.494-3.846,1.765-5.293c0.905-3.621,1.402-6.652,1.494-9.096l2.715-0.951
		C264.253,123.056,266.018,123.96,267.465,125.95z"/>
	<path fill-rule="evenodd" clip-rule="evenodd" fill="#F4F4F4" d="M232.036,70.839c3.077,5.158,3.032,10.498-0.135,16.018
		c-4.978,8.778-7.512,13.258-7.603,13.439c-1.086,3.258-0.09,6.832,2.986,10.723c-2.081-1.268-3.846-2.939-5.295-5.022
		c-2.895-4.253-2.715-8.507,0.544-12.759c4.435-5.611,7.059-10.543,7.873-14.797c0.995-4.977-0.227-9.502-3.665-13.575
		L232.036,70.839z M240.181,95.815c-3.438,3.711-5.61,6.245-6.515,7.603c-1.358,1.899-1.72,4.751-1.086,8.552
		c-0.815-1.268-1.449-2.851-1.901-4.752c-0.813-3.8-0.271-7.148,1.629-10.045c1.538-2.262,3.62-4.842,6.244-7.736
		c1.629-2.354,1.72-5.25,0.271-8.688l2.851,4.751C243.031,89.21,242.534,92.648,240.181,95.815z M267.465,125.95
		c-1.447-1.99-3.212-2.895-5.293-2.715l-2.715,0.951c-0.092,2.443-0.589,5.475-1.494,9.096c-0.271,1.447-0.859,3.211-1.765,5.293
		c0.815,0.543,1.63,0.859,2.443,0.95c0.634,0.09,1.856,0.045,3.665-0.136c1.991-0.182,3.756-1.855,5.295-5.022
		C269.139,131.019,269.094,128.214,267.465,125.95z M212.218,146.585c-3.802-3.801-6.29-8.235-7.466-13.303
		c-2.625-11.042-1.811-17.15,2.443-18.326h48.324c1.81,0.542,2.986,1.945,3.53,4.207c3.709-1.357,7.149-1.085,10.316,0.816
		c3.62,2.171,4.978,5.746,4.072,10.723c-0.814,4.705-2.896,8.281-6.244,10.725c-2.353,1.629-4.48,2.397-6.38,2.308
		c-0.815-0.092-2.535,0.09-5.158,0.542l-3.53,0.543c-1.447,1.72-3.077,3.258-4.886,4.615l-2.173,1.494h33.122
		c0.543,0.542,0.543,0.995,0,1.357c-10.498,0.271-18.416,1.221-23.756,2.85l-5.022,2.443h-36.244
		c-0.542-0.724-2.171-1.537-4.886-2.443c-5.34-1.629-13.258-2.578-23.756-2.85c-0.09-0.09-0.18-0.227-0.271-0.407
		c-0.18-0.272-0.09-0.589,0.271-0.95h33.123C216.019,150.022,214.209,148.575,212.218,146.585z"/>
	<path fill-rule="evenodd" clip-rule="evenodd" fill="#FAFAFA" d="M200.001,18.713c8.778,0,16.244,3.077,22.397,9.23l149.59,149.591
		c6.153,6.153,9.231,13.664,9.231,22.534c0,8.776-3.078,16.243-9.231,22.397L222.398,371.92c-6.153,6.153-13.619,9.23-22.397,9.23
		s-16.244-3.077-22.397-9.23L28.013,222.466c-6.153-6.154-9.23-13.621-9.23-22.397c0-8.87,3.077-16.381,9.23-22.534L177.604,27.943
		C183.757,21.79,191.223,18.713,200.001,18.713z M200.001,23.329c-7.511,0-13.938,2.625-19.276,7.873L31.27,180.792
		c-5.338,5.34-8.008,11.764-8.008,19.276c0,7.511,2.67,13.892,8.008,19.14l149.455,149.59c5.339,5.34,11.766,8.008,19.276,8.008
		s13.937-2.668,19.274-8.008l149.455-149.59c5.339-5.248,8.009-11.629,8.009-19.14c0-7.513-2.67-13.937-8.009-19.276L219.275,31.202
		C213.938,25.953,207.512,23.329,200.001,23.329z"/>
</g>
</svg>
