<?xml version="1.0" encoding="utf-8"?>
<!-- Generator: Adobe Illustrator 16.0.0, SVG Export Plug-In . SVG Version: 6.00 Build 0)  -->
<!DOCTYPE svg PUBLIC "-//W3C//DTD SVG 1.1//EN" "http://www.w3.org/Graphics/SVG/1.1/DTD/svg11.dtd">
<svg version="1.1" id="Layer_1" xmlns="http://www.w3.org/2000/svg" xmlns:xlink="http://www.w3.org/1999/xlink" x="0px" y="0px"
	 width="300px" height="300px" viewBox="0 0 300 300" enable-background="new 0 0 300 300" xml:space="preserve">
<g>
	<path fill-rule="evenodd" clip-rule="evenodd" fill="#0A3554" d="M146.914,16.608v12.379v0.068v20.541v20.075v20.073v20.074v20.073
		v20.677H16.901c-1.69-0.371-3.162-0.662-4.416-0.87c0-1.026,0-1.985,0-2.876c3.747-0.136,8.61-0.246,14.587-0.335
		c1.651-0.044,3.391-0.068,5.219-0.068c2.767-0.133,5.532-0.2,8.298-0.2c1.472-0.044,2.944-0.067,4.416-0.067
		c4.817-0.134,9.637-0.268,14.454-0.402c2.122,0.193,5.244,0.036,9.367-0.468c0.645-0.082,1.314-0.171,2.008-0.268
		c0.758-0.089,1.562-0.2,2.408-0.335c0.894-0.133,1.807-0.291,2.744-0.468c1.16-0.268,2.431-0.492,3.814-0.669h0.065
		c1.206-0.223,2.432-0.445,3.681-0.669h0.068c0.222-1.071,0.535-2.118,0.937-3.146c-6.156-0.402-10.55-0.535-13.183-0.402
		c-0.267,0-0.511,0.022-0.736,0.067c-0.626,0.163-1.307,0.273-2.042,0.335l3.179-3.012l-5.152-0.803l-2.209-4.617l-2.341,4.617
		l-5.153,0.603l0.536,0.535c-3.112-1.388-5.008-2.124-5.688-2.208c-1.159-0.045-3.033,0.313-5.62,1.069
		c-0.134,0.089-0.246,0.158-0.335,0.202c-1.918,0.714-3.413,1.07-4.483,1.07c-0.312,0-0.557,0-0.736,0
		c-1.578,0.085-3.05,0.164-4.417,0.234l0.737-0.704l-5.086-0.803l-2.274-4.617l-2.342,4.617l-5.085,0.603l1.472,1.472
		c-0.105,0.006-0.195,0.006-0.268,0l-1.405-0.803c-0.981-0.58-1.606-0.87-1.874-0.87c-0.134,0-1.182,0.4-3.145,1.205
		c-1.874,0.713-2.877,1.07-3.011,1.07c-0.401-0.133-0.736-0.201-1.004-0.201c0.179-2.898,0.446-5.687,0.803-8.365
		c0.359-0.113,0.727-0.225,1.104-0.333l2.442,1.272l-0.301-1.84c0.981-0.246,2.018-0.48,3.111-0.702c2.989-0.669,6-1.183,9.034-1.54
		c1.159-0.179,2.342-0.312,3.546-0.401c2.766,0.134,4.594,0.177,5.487,0.134c1.427-0.044,2.832-0.313,4.215-0.803
		c0.362-0.161,0.708-0.305,1.036-0.436l0.437,0.436l-0.938,5.085l4.55-2.341l4.617,2.409l-0.803-5.085l3.68-3.548l-5.086-0.736
		l-2.274-4.684l-2.341,4.617l-5.086,0.736l2.609,2.51c-0.131,0.01-0.22,0.022-0.267,0.033c-1.472-0.089-2.855-0.423-4.149-1.003
		c-1.07-0.625-1.672-0.937-1.807-0.937c-0.401,0-1.026,0.133-1.874,0.401c-0.892,0.223-1.561,0.313-2.007,0.268
		c-0.58-0.088-1.383-0.49-2.409-1.205c-0.09-0.044-0.156-0.088-0.202-0.133c-0.981-0.758-1.449-1.54-1.405-2.343
		c-0.447-0.043-1.16,0.202-2.142,0.736c-0.936,0.581-1.784,0.804-2.542,0.67c-0.713-0.044-1.807-1.093-3.279-3.144
		c-1.517-2.365-2.631-4.016-3.346-4.952c0.268-0.981,0.536-1.941,0.803-2.877l0.803-2.476c0.134-0.49,0.291-0.981,0.469-1.472
		c0.223-0.759,0.469-1.473,0.736-2.142l2.409-6.357c1.597-3.92,3.381-7.746,5.353-11.477l1.606-0.836l4.549,2.411l-0.802-5.087
		l3.681-3.545l-4.584-0.669c1.286-2.116,2.657-4.19,4.115-6.224c0.892-1.293,1.829-2.587,2.811-3.88
		c0.655-0.864,1.324-1.723,2.008-2.578l2.543,2.51l-0.938,5.086l4.55-2.41l4.617,2.476l-0.803-5.085l3.68-3.546l-5.086-0.803
		l-2.274-4.617l-2.341,4.617l-2.844,0.368c1.88-2.321,3.832-4.606,5.854-6.858c1.294-1.427,2.655-2.832,4.083-4.215
		c0.98-0.937,1.985-1.874,3.01-2.811c2.605-1.243,5.236-2.257,7.896-3.043l-1.138,2.241l-5.153,0.603l3.681,3.679l-0.869,5.02
		l4.549-2.276l4.55,2.343l-0.803-5.02l3.747-3.546l-5.152-0.803l-1.339-2.811c5.64-1.385,11.394-1.741,17.264-1.071
		c0.045,0,0.112,0,0.201,0v-0.736c-0.447-0.089-1.027-0.155-1.74-0.201c-1.16-0.122-2.186-0.235-3.079-0.335l4.35-2.208l4.55,2.409
		l-0.803-5.085l3.681-3.546l-5.085-0.736l-0.903-1.874c0.251-0.066,0.464-0.088,0.636-0.067c0.134,0,0.357,0.022,0.668,0.067
		c1.563,0.402,4.215,1.315,7.963,2.744c1.071,0.49,2.142,0.936,3.211,1.339c1.162,0.49,2.276,0.981,3.347,1.471h0.134l1.339-0.668
		c0.177-0.134,0.399-0.268,0.667-0.402c0.044,0,0.089-0.022,0.134-0.067l0.067-0.067c1.382-0.803,2.388-1.181,3.012-1.138
		c0.669,0,1.717-0.021,3.146-0.066c0.444,0,0.958-0.022,1.539-0.067c0.206-0.039,0.406-0.072,0.602-0.101l3.278,3.112l-1.004,5.085
		l4.684-2.343l4.483,2.409l-0.803-5.085l3.747-3.546l-5.153-0.736l-2.274-4.684l-2.274,4.617l-5.152,0.736l0.2,0.167l-5.018-0.369
		l-0.268-0.736c-0.044-0.222-0.312-0.401-0.803-0.535c-0.313,0-0.959,0.112-1.941,0.335c-0.044,0-0.111,0-0.201,0h-0.067
		c-1.159,0.267-1.896,0.378-2.208,0.334c-1.783-0.089-3.769-0.58-5.955-1.473c-2.9-1.025-4.528-1.605-4.885-1.738
		c-0.312-0.089-1.449-0.18-3.412-0.268c-0.446-0.045-0.981-0.067-1.607-0.067c-0.258-0.043-0.516-0.088-0.768-0.133l-0.436-0.871
		l-0.3,0.603c-0.382-0.165-0.729-0.389-1.038-0.67c0.089-0.043,0.179-0.088,0.268-0.134c0.49-0.313,0.98-0.623,1.472-0.936
		c0.401-0.223,0.825-0.447,1.271-0.669l0.603-0.335c0.134-0.09,0.267-0.156,0.401-0.201c0.089-0.089,0.179-0.156,0.268-0.201
		l0.267-0.134c2.724-1.523,5.478-2.951,8.264-4.282l1.574,1.606l-0.871,5.018l4.551-2.342l4.616,2.409l-0.869-5.085l3.746-3.613
		l-5.085-0.736l-0.268-0.536c0.155-0.069,0.312-0.135,0.468-0.2c2.097-0.849,4.194-1.628,6.29-2.342
		c0.536-0.18,1.071-0.357,1.607-0.536l1.74-0.535c0.446-0.134,0.914-0.268,1.405-0.402l2.343-0.67
		c0.179-0.043,0.356-0.088,0.535-0.133c0.089-0.045,0.2-0.067,0.334-0.067c0.134-0.043,0.268-0.088,0.402-0.134
		c0.224-0.089,0.469-0.155,0.737-0.2c1.248-0.313,2.519-0.625,3.813-0.938c0.535,0.49,0.915,0.758,1.138,0.803
		c0.402,0,2.342-0.313,5.821-0.936c0.446,0,0.959,0.289,1.539,0.869c0.046,0.044,0.111,0.113,0.202,0.202
		c0.088,0.044,0.177,0.11,0.267,0.2c0.043,0.091,0.112,0.156,0.2,0.201c0.046,0.044,0.089,0.089,0.134,0.133
		c0.134,0,0.536-0.111,1.205-0.334c0.134-0.044,0.312-0.112,0.536-0.2l0.803-0.268c0.268-0.134,0.58-0.268,0.936-0.402l1.406-0.535
		c0-0.044,0.023-0.067,0.067-0.067c0.088,0,0.646,0.223,1.673,0.669c0.4,0.223,0.803,0.423,1.205,0.603
		c0.179,0.088,0.357,0.155,0.535,0.2c0.446,0.134,0.848,0.201,1.205,0.201c0.357,0.044,1.069-0.022,2.142-0.201
		c0.133,0,0.267-0.022,0.401-0.067c0.669-0.088,1.227-0.133,1.674-0.133c0.399,0,0.667,0,0.802,0c0.134,0.044,0.246,0.11,0.335,0.2
		C145.868,16.04,146.469,16.374,146.914,16.608z M131.723,21.159l-5.151,0.668l3.679,3.681l-0.936,5.018l4.616-2.342l4.552,2.409
		l-0.871-5.085l3.814-3.613l-5.085-0.736l-2.342-4.55L131.723,21.159z M133.999,45.247l-2.276,4.617l-5.151,0.603l3.679,3.679
		l-0.936,5.02l4.616-2.276l4.552,2.343l-0.871-5.02l3.814-3.546l-5.085-0.803L133.999,45.247z M77.691,44.679
		c-2.517-0.294-3.888-0.506-4.115-0.636c-2.454-0.936-4.996-1.807-7.628-2.608c0.581-0.491,1.182-0.959,1.807-1.407
		c1.963-1.604,3.971-3.122,6.023-4.549c0.357,0,0.691,0.089,1.002,0.268c0.045,0,0.091,0,0.134,0l0.603,0.067
		c0.758,0,1.472-0.022,2.142-0.067l2.542-0.536l-0.133,0.268l-5.153,0.736l3.68,3.547L77.691,44.679z M99.204,45.247l-2.341,4.617
		l-5.085,0.603l3.613,3.679l-0.871,5.02l4.551-2.276l4.616,2.343l-0.869-5.02l3.746-3.546l-5.085-0.803L99.204,45.247z
		 M126.572,79.172l3.679,3.679l-0.936,5.02l4.616-2.343l4.552,2.411l-0.871-5.087l3.814-3.545l-5.085-0.736l-2.342-4.617
		l-2.276,4.617L126.572,79.172z M119.411,64.184l-2.274-4.617l-2.274,4.617l-5.152,0.669l3.746,3.613l-1.004,5.086l4.684-2.41
		l4.483,2.476l-0.803-5.085l3.747-3.546L119.411,64.184z M91.778,79.172l3.613,3.679l-0.871,5.02l4.551-2.343l4.616,2.411
		l-0.869-5.087l3.746-3.545l-5.085-0.736l-2.276-4.617l-2.341,4.617L91.778,79.172z M89.703,64.987l-5.085-0.803l-2.275-4.617
		l-2.274,4.617l-5.153,0.669l3.68,3.613l-0.936,5.086l4.616-2.41l4.55,2.476l-0.803-5.085L89.703,64.987z M33.229,111.557
		l3.681-3.545l-5.086-0.804l-2.274-4.549l-2.342,4.549l-5.085,0.67l3.68,3.613l-0.87,5.018l4.55-2.276l4.549,2.343L33.229,111.557z
		 M51.228,97.238l3.68-3.545l-5.086-0.804l-2.274-4.616l-2.341,4.549l-5.086,0.736l3.681,3.615l-0.938,5.085l4.55-2.409l4.617,2.409
		L51.228,97.238z M62.068,107.208l-5.153,0.67l3.681,3.613l-0.869,5.018l4.549-2.276l4.55,2.343l-0.803-5.019l3.747-3.545
		l-5.152-0.804l-2.209-4.549L62.068,107.208z M82.342,88.272l-2.274,4.549l-5.153,0.736l3.68,3.615l-0.936,5.085l4.616-2.409
		l4.55,2.409l-0.803-5.019l3.681-3.545l-5.085-0.804L82.342,88.272z M64.409,73.953l-2.341,4.617l-5.153,0.602l3.681,3.679
		l-0.869,5.02l4.549-2.343l4.55,2.411l-0.803-5.087l3.747-3.545l-5.152-0.736L64.409,73.953z M80.068,121.527l-5.153,0.736
		l3.68,3.547l-0.936,5.085l4.616-2.341l4.55,2.409l-0.803-5.085l3.681-3.548l-5.085-0.736l-2.275-4.684L80.068,121.527z
		 M109.71,122.263l3.746,3.547l-1.004,5.085l4.684-2.341l4.483,2.409l-0.803-5.085l3.747-3.548l-5.153-0.736l-2.274-4.684
		l-2.274,4.617L109.71,122.263z M95.391,140.197l-0.871,5.018l4.551-2.342l4.616,2.409l-0.869-5.018l3.746-3.548l-5.085-0.803
		l-2.276-4.617l-2.341,4.617l-5.085,0.603L95.391,140.197z M91.778,107.878l3.613,3.613l-0.871,5.018l4.551-2.276l4.616,2.343
		l-0.869-5.019l3.746-3.545l-5.085-0.804l-2.276-4.549l-2.341,4.549L91.778,107.878z M109.71,93.557l3.746,3.615l-1.004,5.085
		l4.684-2.409l4.483,2.409l-0.803-5.019l3.747-3.545l-5.153-0.804l-2.274-4.616l-2.274,4.549L109.71,93.557z M137.612,111.557
		l3.814-3.545l-5.085-0.804l-2.342-4.549l-2.276,4.549l-5.151,0.67l3.679,3.613l-0.936,5.018l4.616-2.276l4.552,2.343
		L137.612,111.557z M137.612,140.264l3.814-3.548l-5.085-0.803l-2.342-4.617l-2.276,4.617l-5.151,0.603l3.679,3.681l-0.936,5.018
		l4.616-2.342l4.552,2.409L137.612,140.264z"/>
	<path fill-rule="evenodd" clip-rule="evenodd" fill="#9D1C20" d="M25.266,171.379h248.681c0.333,0.541,0.725,0.874,1.172,1.003
		c0.089,0.044,0.2,0.066,0.335,0.066c0.446,0.045,0.979-0.045,1.605-0.269c0.134-0.043,0.245-0.065,0.335-0.065
		c0.402-0.179,0.759-0.268,1.069-0.268c4.328,0.401,6.291,2.744,5.89,7.025c-0.09,1.027-0.201,1.65-0.335,1.874
		c-0.135,0.134-0.402,0.29-0.802,0.468h-0.067c-0.67,0.268-1.605,0.603-2.812,1.003v0.47l2.879,0.199
		c-0.224,1.072-0.782,1.897-1.673,2.478c-0.491,0.489-1.161,0.913-2.008,1.271c0.089,0.222,0.335,0.557,0.734,1.004
		c0.447,0.535,1.095,1.182,1.94,1.939c0.774,0.708,1.32,1.354,1.641,1.94H19.31c-0.418-1.288-0.82-2.581-1.204-3.88
		c-0.625-2.142-1.205-4.283-1.74-6.425c-0.669-2.632-1.249-5.309-1.74-8.03c0.705-0.774,1.241-1.377,1.605-1.805h3.346H25.266z
		 M18.708,150.97c-0.631-0.143-1.232-0.278-1.807-0.402h130.012v-20.677H266.62c-1.886,0.308-3.491,0.419-4.816,0.335
		c-1.251-0.089-2.499,0-3.748,0.268c-0.804,0.223-1.583,0.49-2.343,0.801c-2.142,0.849-3.702,1.183-4.683,1.004
		c-0.268,0-1.317-0.268-3.146-0.802c-1.784-0.714-2.988-1.071-3.613-1.071c-0.444,0-1.293,0.022-2.542,0.067
		c-2.23,0.177-5.665,0.512-10.304,1.003c-7.45,0.714-15.615,0.646-24.492-0.202l-8.162-0.869c-0.268,0.401-0.559,0.781-0.871,1.137
		c1.787,0.536,3.77,1.16,5.956,1.875c4.597,1.515,8.632,2.452,12.111,2.809c0.223,0.045,0.446,0.067,0.67,0.067
		c1.382,0.134,3.032,0.11,4.95-0.067c1.162-0.133,2.433-0.313,3.814-0.536c3.346-0.579,5.085-0.869,5.22-0.869
		c0.223,0.088,1.359,0.512,3.412,1.271l3.013,1.137l2.943-0.803c0.179-0.089,0.357-0.156,0.536-0.201
		c0.891-0.313,1.628-0.536,2.206-0.668c0.402-0.089,0.692-0.112,0.871-0.067c0.045,0,0.29,0.245,0.737,0.736
		c0.399,0.446,1.002,1.092,1.804,1.941c1.65,1.917,2.521,2.876,2.611,2.876c0.401,0.044,1.069-0.045,2.008-0.267
		c0.801-0.268,1.382-0.378,1.739-0.333c0.668,0,2.253,1.025,4.75,3.077c0.089,0.044,0.156,0.067,0.201,0.067l0.134-0.067
		c0.491-0.804,1.092-1.449,1.807-1.941c0.313-0.223,0.625-0.4,0.936-0.536c0.09,0.849,0.559,1.672,1.407,2.477
		c0.399,0.313,0.868,0.646,1.404,1.004c0.357,0.044,0.98-0.224,1.874-0.804c0.09-0.088,0.179-0.155,0.269-0.2
		c0.757-0.445,1.271-0.781,1.538-1.004c0.09,0.357,0.179,0.691,0.269,1.004c1.024,2.676,1.516,4.305,1.471,4.884
		c-0.134,0.892-0.379,1.451-0.736,1.673l-0.067,0.068c-0.311,0.177-1.024,0.222-2.139,0.133c-1.117-0.045-3.103,0.089-5.956,0.402
		c-0.135,0-0.269,0.022-0.402,0.066c-1.042,0.09-2.048,0.157-3.011,0.202h-5.219c-0.357-0.045-1.718-0.313-4.082-0.803
		c-0.135,0-0.246-0.024-0.335-0.068c-1.114-0.222-2.008-0.401-2.676-0.535c-0.849-0.179-1.385-0.289-1.605-0.334
		c-1.251-0.135-4.127,0.088-8.634,0.669c-0.891,0.088-1.718,0.177-2.475,0.268c-1.295,0.133-2.388,0.222-3.278,0.267
		c0.174,0.151,0.375,0.329,0.601,0.536H18.708z M288.367,109.818H146.914V89.744h133.29c0.253,0.49,0.498,0.98,0.736,1.472
		c0.179,0.402,0.38,0.804,0.604,1.205c1.114,2.409,2.184,4.863,3.211,7.361c0.892,2.141,1.718,4.327,2.475,6.558
		C287.625,107.493,288.005,108.652,288.367,109.818z M267.926,69.671H146.914V49.596h103.412c3.899,3.73,7.634,7.744,11.21,12.045
		c-0.982,0.043-1.985,0.224-3.013,0.535c-0.444,0.089-0.891,0.179-1.338,0.267c-3.077,0.625-5.554,1.026-7.428,1.205
		c-1.069,0.044-1.915,0.044-2.541,0c-0.715-0.088-1.717-0.066-3.01,0.067c-1.653,0.089-3.814,0.313-6.492,0.669
		c-4.817,0.713-7.674,1.048-8.564,1.003c-3.792-0.356-6.091-0.535-6.892-0.535c-1.428-0.044-3.035-0.089-4.817-0.134
		c-3.571-0.089-7.83-0.178-12.78-0.268l12.914,1.138c0.311,0,0.623,0,0.936,0c2.455-0.134,5.13-0.134,8.028,0
		c3.792,0.222,7.875,0.222,12.245,0c-0.042,0.268-0.109,0.424-0.198,0.468c1.114-0.267,3.636-0.356,7.559-0.267
		c1.117,0,2.32,0.044,3.613,0.134c0.76,0,1.562,0.022,2.41,0.067c4.417,0.044,8.899,0.268,13.451,0.668
		C266.395,67.656,267.164,68.658,267.926,69.671z M146.914,16.608c0.465,0.246,0.754,0.378,0.869,0.402c0.179,0,0.469,0,0.871,0
		c1.784-0.046,5.219-0.335,10.304-0.87c0.09,0,0.269,0.066,0.536,0.201c0.269,0.132,0.624,0.333,1.069,0.6
		c0.135,0.091,0.291,0.18,0.47,0.268l0.201,0.135c0.134,0.088,0.267,0.178,0.4,0.267l1.606,0.803h0.067
		c0.15,0.004,0.307,0.026,0.468,0.067h0.065c0.715-0.624,1.429-1.472,2.143-2.543c0.223-0.401,0.869-0.534,1.94-0.401
		c0.982,0.357,1.829,0.669,2.544,0.937c0.134,0.045,0.268,0.089,0.399,0.134c1.295,0.447,1.963,0.691,2.008,0.737
		c0.67,0.088,1.829-0.491,3.479-1.741l0.067-0.067c0.089-0.045,0.156-0.088,0.2-0.133c0.982-0.625,1.651-1.093,2.008-1.406
		l0.402-0.334c0.355,0.044,0.78,0.2,1.271,0.468c0.268,0.133,0.514,0.246,0.736,0.334c0.893,0.581,1.606,0.893,2.141,0.938
		c0.356,0.044,0.848,0.044,1.473,0l1.338-0.067c0.491-0.091,1.07-0.179,1.74-0.268h0.066l0.402,0.133c0.134,0,0.268,0.022,0.4,0.067
		c0.133,0.044,0.268,0.089,0.401,0.135l0.938,0.2c4.325,1.116,8.587,2.432,12.78,3.948c7.073,2.583,13.854,5.729,20.34,9.435
		h-76.145V16.608z M40.99,231.732c-2.464-3.235-4.761-6.514-6.892-9.835c-0.045-0.045-0.09-0.09-0.134-0.133
		c-1.785-2.768-3.458-5.578-5.019-8.433c-0.307-0.554-0.608-1.112-0.903-1.673h53.128h7.728h5.889
		c0.398,0.171,0.754,0.326,1.071,0.469l0.065,0.067c1.251,0.445,1.92,0.669,2.008,0.669c0.229,0,1.745-0.401,4.552-1.205h2.943
		c0.685,0.358,1.533,0.914,2.542,1.673c1.741,1.428,2.721,2.142,2.945,2.142c0.044,0,1.204-0.445,3.479-1.338
		c0.804-0.313,1.473-0.581,2.007-0.804c0.936-0.356,1.472-0.535,1.606-0.535c0.402,0.045,0.871,0.224,1.404,0.535
		c0.179,0.135,0.38,0.268,0.604,0.403c0.892,0.533,1.784,0.846,2.675,0.936c1.339,0.134,2.611-0.312,3.814-1.339
		c0.179-0.178,0.38-0.379,0.603-0.601c0.38-0.419,0.714-0.776,1.004-1.072h2.844c0.163,0.124,0.329,0.257,0.501,0.403
		c0.58,0.533,1.183,0.958,1.808,1.27c0.578,0.313,1.204,0.491,1.873,0.535c0.401,0.045,1.227,0,2.476-0.132
		c0.981-0.224,1.695-0.359,2.142-0.403c0.134,0,0.246,0,0.334,0c0.178,0,3.101,0.58,8.767,1.74c5.487,1.114,8.922,1.74,10.304,1.873
		c0.491,0,1.673-0.066,3.547-0.2c1.918-0.089,3.033-0.134,3.345-0.134c0.179,0,1.094,0.378,2.744,1.138
		c1.739,0.758,2.877,1.137,3.412,1.137c0.937,0.134,2.409,0,4.416-0.4c0.937-0.313,1.784-0.581,2.544-0.805
		c0.045,0,1.494,0.536,4.349,1.607c3.124,0.981,5.509,1.538,7.161,1.672c1.649,0.224,4.995,0.157,10.035-0.199
		c3.613-0.18,6.445-0.269,8.498-0.269c0.446,0,0.871,0,1.271,0c0.089-0.937,2.945-0.469,8.564,1.405
		c0.134,0.044,0.268,0.089,0.401,0.133c3.748,1.249,7.093,2.208,10.039,2.879c3.032,0.713,5.618,1.092,7.76,1.136
		c3.837,0.135,6.783,0.827,8.833,2.076c1.071,0.713,2.387,1.738,3.948,3.077c0.045,0.045,0.111,0.089,0.201,0.133
		c0.268,0.112,0.791,0.246,1.573,0.401H40.99z M59.09,251.807h184.312c1.425,0.252,2.539,0.408,3.346,0.469
		c-0.179,0-0.313,0.022-0.402,0.067c0.269,0.089,0.514,0.224,0.737,0.4c-0.805,0.805-1.628,1.585-2.477,2.343
		c-5.22,4.372-10.572,8.298-16.06,11.776c-1.159,0.713-2.32,1.428-3.479,2.142c-2.283,1.366-4.591,2.66-6.924,3.88H89
		c-2.349-1.217-4.658-2.512-6.926-3.88c-1.204-0.714-2.364-1.429-3.479-2.142C71.735,262.513,65.233,257.495,59.09,251.807z
		 M279.803,211.659c-0.287,0.561-0.578,1.119-0.871,1.673c-1.561,2.899-3.211,5.756-4.95,8.565
		c-0.894,1.337-1.785,2.677-2.678,4.016c-0.179,0-0.355,0.043-0.534,0.132c-1.65,0.625-2.9,0.848-3.747,0.669
		c-0.224,0-1.072-0.735-2.544-2.207c-1.338-1.605-2.074-2.408-2.209-2.408c-3.39,0.758-5.442,1.181-6.154,1.271l-0.201,0.068
		c-1.784-0.136-3.256-0.648-4.417-1.54c-0.221-0.178-0.444-0.357-0.668-0.536c-1.472-1.069-2.744-1.695-3.814-1.873
		c-0.357-0.044-1.963,0.089-4.816,0.401c-2.901,0.491-4.864,0.67-5.89,0.536c-0.759-0.045-1.516-0.201-2.275-0.469
		c-0.891-0.269-1.784-0.646-2.676-1.137c-1.516-0.85-2.678-1.339-3.479-1.474c-0.045,0.447-4.083,0.558-12.113,0.334
		c-0.98-0.088-1.896-0.178-2.742-0.266c-2.143-0.313-3.904-0.826-5.286-1.54c-1.963-0.981-3.859-1.539-5.688-1.672l-13.649,1.069
		c-9.055,0.713-13.762,1.07-14.119,1.07c-0.445,0-0.78-0.244-1.004-0.735c-0.313-0.445-0.937-0.736-1.873-0.87
		c-0.445,0-1.919,0.112-4.416,0.335c-2.588,0.135-3.992,0.2-4.216,0.2c-1.829-0.133-3.591-0.578-5.286-1.338
		c-0.536-0.224-1.07-0.423-1.605-0.603c-1.249-0.401-2.588-0.669-4.015-0.803c-6.424,0.044-10.059,0.044-10.908,0
		c-1.514-0.293-3.02-0.584-4.517-0.87H279.803z"/>
	<path fill-rule="evenodd" clip-rule="evenodd" fill="#F4F4F4" d="M93.817,23.902c2.439-1.17,4.904-2.262,7.395-3.279l0.268,0.536
		l5.085,0.736l-3.746,3.613l0.869,5.085l-4.616-2.409l-4.551,2.342l0.871-5.018L93.817,23.902z M83.714,33.671l0.903,1.874
		l5.085,0.736l-3.681,3.546l0.803,5.085l-4.55-2.409l-4.35,2.208l-0.267,0.135l0.032-0.167l0.903-4.917l-3.68-3.547l5.153-0.736
		l0.133-0.268l0.268-0.066c0.045-0.044,0.089-0.067,0.134-0.067c0.044-0.046,0.089-0.068,0.134-0.068
		c0.045-0.044,0.089-0.067,0.134-0.067c0.713-0.401,1.337-0.713,1.874-0.937C83.114,33.844,83.437,33.732,83.714,33.671z
		 M82.778,31.732h-0.034c-0.248-0.067-0.481-0.156-0.702-0.268l0.3-0.603L82.778,31.732z M110.178,36.649l-0.268-0.268l-0.2-0.167
		l5.152-0.736l2.274-4.617l2.274,4.684l5.153,0.736l-3.747,3.546l0.803,5.085l-4.483-2.409l-4.684,2.343l1.004-5.085L110.178,36.649
		z M63.206,47.624c0.69-0.202,1.38-0.392,2.074-0.57l1.339,2.811l5.152,0.803l-3.747,3.546l0.803,5.02l-4.55-2.343l-4.549,2.276
		l0.869-5.02l-3.681-3.679l5.153-0.603L63.206,47.624z M42.362,64.551l2.844-0.368l2.341-4.617l2.274,4.617l5.086,0.803l-3.68,3.546
		l0.803,5.085l-4.617-2.476l-4.55,2.41l0.938-5.086l-2.543-2.51C41.618,65.487,41.987,65.018,42.362,64.551z M27.875,86.364
		c0.462-0.868,0.931-1.726,1.405-2.575c0.938-1.739,1.941-3.435,3.011-5.086c0.013-0.02,0.024-0.042,0.034-0.066l4.584,0.669
		l-3.681,3.545l0.802,5.087l-4.549-2.411L27.875,86.364z M43.365,125.375c0.032-0.009,0.067-0.021,0.102-0.033
		c0.491-0.134,0.981-0.313,1.472-0.535c-1.089-0.032-1.827-0.044-2.209-0.033l-2.609-2.51l5.086-0.736l2.341-4.617l2.274,4.684
		l5.086,0.736l-3.68,3.548l0.803,5.085l-4.617-2.409l-4.55,2.341l0.938-5.085L43.365,125.375z M16.935,129.123l0.301,1.84
		l-2.442-1.272C15.475,129.495,16.188,129.305,16.935,129.123z M23.593,137.988l-1.472-1.472l5.085-0.603l2.342-4.617l2.274,4.617
		l5.086,0.803l-0.737,0.704c-3.605,0.194-6.46,0.336-8.565,0.435C25.596,137.969,24.257,138.013,23.593,137.988z M18.708,150.97
		h209.838c0.161,0.161,0.34,0.338,0.536,0.535c1.605,1.249,4.75,2.075,9.436,2.476c0.399,0,1.248-0.066,2.541-0.201
		c1.296-0.267,2.164-0.335,2.611-0.199l0.2,0.199c0.444,0.224,1.36,0.805,2.743,1.741c0.044,0.044,0.111,0.088,0.2,0.133
		c2.008,1.427,3.658,2.185,4.951,2.275c0.134,0,2.7-0.224,7.696-0.669c0.134-0.045,0.268-0.066,0.401-0.066
		c0.402,0.045,1.315,0.758,2.742,2.141c0.671,0.668,1.296,1.181,1.874,1.539c0.626,0.401,1.182,0.625,1.673,0.669
		c0.357,0,1.027-0.223,2.008-0.669c0.268-0.135,0.58-0.29,0.938-0.469c1.74-0.758,2.653-1.138,2.743-1.138
		c0.714,0,1.516,0.29,2.409,0.87c0.533,0.357,1.092,0.602,1.673,0.736c0.268,0.089,0.536,0.133,0.802,0.133
		c0.268,0.045,0.603,0,1.005-0.133c0.268-0.09,0.601-0.245,1.003-0.469c0-0.045,0.044-0.089,0.134-0.134
		c0.982-0.491,1.538-0.736,1.673-0.736l0.603,0.268c0.156,0.039,0.311,0.127,0.467,0.268l0.069,0.067h0.064l0.069,0.068
		c0.132,0.088,0.266,0.199,0.399,0.333l0.402,0.335c0.847,0.803,1.494,1.227,1.94,1.27c0.09,0,1.673-0.31,4.75-0.936
		c0.581,0.09,1.14,0.447,1.673,1.071c0.313,0.313,0.581,0.624,0.805,0.937l2.409-0.469c-0.047,0.445-0.089,0.894-0.134,1.339
		c-0.179,1.382-0.38,2.742-0.604,4.081c-1.027,0.089-2.275,0.224-3.747,0.402c-2.097,0.222-4.596,0.489-7.495,0.803
		c-1.963,0.223-3.457,0.355-4.481,0.4c-0.67,0.045-1.139,0.067-1.404,0.067h-0.07c-0.131-0.045-0.332-0.09-0.601-0.135
		c-0.089-0.043-0.179-0.065-0.268-0.065c-0.089-0.045-0.179-0.066-0.268-0.066c-0.357-0.091-0.779-0.201-1.271-0.334
		c-0.268-0.136-0.58-0.246-0.938-0.335c-0.09-0.045-0.201-0.068-0.335-0.068c-0.444-0.178-0.936-0.335-1.47-0.468
		c-0.047-0.045-0.092-0.067-0.134-0.067l-7.294-0.536l-0.066,0.202c-0.09,0.356-0.246,0.558-0.47,0.603l-0.2,0.869
		c0.268,0.044,1.337-0.022,3.211-0.199c1.874-0.403,3.323-0.514,4.351-0.335c1.605,0.089,2.631,0.669,3.077,1.739
		c0.114,0.276,0.235,0.522,0.367,0.736H25.266c0.363-0.172,0.743-0.371,1.138-0.604c0.848-0.49,1.495-0.847,1.94-1.071
		c0.357-0.132,0.558-0.2,0.603-0.2c1.517,0.135,3.145-0.379,4.885-1.538c1.65-1.026,2.721-1.54,3.211-1.54
		c0.358,0.045,0.893,0.379,1.606,1.004c0.179,0.091,0.357,0.224,0.536,0.401c0.759,0.894,1.227,1.339,1.405,1.339
		c0.624,0.043,2.052-0.535,4.282-1.74c0.447-0.268,0.847-0.512,1.204-0.735c1.295-0.758,1.985-1.137,2.075-1.137
		c0.581,0.043,1.272,0.356,2.075,0.936c0.893,0.491,1.406,0.737,1.539,0.737c0.134,0,1.672-0.447,4.617-1.339
		c0.268,0,0.825,0.335,1.674,1.004c0.846,0.625,1.382,0.936,1.605,0.936l2.81-0.601c1.918-0.358,2.989-0.536,3.212-0.536
		c0.669,0.045,1.293,0.335,1.874,0.87c0.579,0.49,1.093,0.735,1.539,0.735c0.445,0.045,1.495-0.065,3.146-0.334
		c2.185-0.313,5.463-0.915,9.835-1.808c0-0.222,0-0.445,0-0.669c-0.045-0.445-0.067-0.913-0.067-1.404
		c-0.045-0.626-0.067-1.316-0.067-2.075c-0.133-0.044-0.223-0.066-0.267-0.066c-0.937,0-2.476,0.199-4.617,0.603
		c-2.276,0.445-3.881,0.601-4.817,0.468c-0.313-0.045-0.603-0.111-0.871-0.201c-0.891-0.267-1.74-0.758-2.542-1.472
		c-0.043-0.044-0.088-0.089-0.133-0.134c-0.759-0.624-1.316-1.093-1.673-1.405c-0.402-0.312-0.603-0.49-0.603-0.535
		c-0.848-0.356-2.454-0.714-4.817-1.069c-2.231-0.404-3.814-0.938-4.751-1.607c-0.134-0.09-0.246-0.179-0.335-0.267
		c-1.961-1.563-3.079-2.365-3.345-2.409c-0.223,0-1.16,0.268-2.811,0.803c-1.605,0.4-2.542,0.603-2.811,0.603
		c-0.445,0-1.205-0.445-2.274-1.339l-1.673-1.271c-1.25-0.044-2.454-0.111-3.614-0.2c-3.39-0.224-6.245-0.29-8.564-0.201
		c-1.695,0.133-3.145,0.201-4.35,0.201c-0.803,0-1.494,0-2.075,0C22.673,151.913,20.576,151.399,18.708,150.97z M68.591,139.728
		c-1.114,0.107-2.35,0.107-3.712,0c-1.337-0.134-3.658-0.959-6.958-2.476c-0.165-0.073-0.32-0.14-0.469-0.201l-0.536-0.535
		l5.153-0.603l2.341-4.617l2.209,4.617l5.152,0.803L68.591,139.728z M266.62,129.892H146.914v-20.073h141.454
		c1.085,3.429,2.045,6.909,2.877,10.438c0.401,1.65,0.759,3.3,1.069,4.951c-2.898,0.581-5.418,1.071-7.56,1.472
		c-3.523,0.625-6.067,0.981-7.629,1.072c-0.089,0-0.2,0-0.335,0c-0.536,0-2.72,0.468-6.557,1.405
		C268.936,129.467,267.732,129.713,266.62,129.892z M280.203,89.744h-133.29V69.671h121.012c1.084,1.478,2.145,2.973,3.179,4.482
		c0.936,1.428,1.871,2.877,2.81,4.349C276.207,82.18,278.305,85.927,280.203,89.744z M250.325,49.596H146.914V29.055h76.248
		c2.444,1.391,4.842,2.864,7.191,4.415c6.602,4.372,12.893,9.391,18.871,15.057c0.179,0.177,0.357,0.356,0.533,0.534
		C249.945,49.239,250.137,49.417,250.325,49.596z M131.723,21.159l2.276-4.55l2.342,4.55l5.085,0.736l-3.814,3.613l0.871,5.085
		l-4.552-2.409l-4.616,2.342l0.936-5.018l-3.679-3.681L131.723,21.159z M117.873,36.415c0.268,0,0.402-0.112,0.402-0.334
		c-2.542,0.222-4.64,0.378-6.292,0.468l5.288,0.401C117.36,36.861,117.561,36.682,117.873,36.415z M133.999,45.247l2.342,4.617
		l5.085,0.803l-3.814,3.546l0.871,5.02l-4.552-2.343l-4.616,2.276l0.936-5.02l-3.679-3.679l5.151-0.603L133.999,45.247z
		 M99.204,45.247l2.276,4.617l5.085,0.803l-3.746,3.546l0.869,5.02l-4.616-2.343l-4.551,2.276l0.871-5.02l-3.613-3.679l5.085-0.603
		L99.204,45.247z M89.703,64.987l-3.681,3.546l0.803,5.085l-4.55-2.476l-4.616,2.41l0.936-5.086l-3.68-3.613l5.153-0.669
		l2.274-4.617l2.275,4.617L89.703,64.987z M91.778,79.172l5.085-0.602l2.341-4.617l2.276,4.617l5.085,0.736l-3.746,3.545
		l0.869,5.087l-4.616-2.411l-4.551,2.343l0.871-5.02L91.778,79.172z M119.411,64.184l5.153,0.803l-3.747,3.546l0.803,5.085
		l-4.483-2.476l-4.684,2.41l1.004-5.086l-3.746-3.613l5.152-0.669l2.274-4.617L119.411,64.184z M126.572,79.172l5.151-0.602
		l2.276-4.617l2.342,4.617l5.085,0.736l-3.814,3.545l0.871,5.087l-4.552-2.411l-4.616,2.343l0.936-5.02L126.572,79.172z
		 M64.409,73.953l2.209,4.617l5.152,0.736l-3.747,3.545l0.803,5.087l-4.55-2.411l-4.549,2.343l0.869-5.02l-3.681-3.679l5.153-0.602
		L64.409,73.953z M82.342,88.272l2.275,4.616l5.085,0.804l-3.681,3.545l0.803,5.019l-4.55-2.409l-4.616,2.409l0.936-5.085
		l-3.68-3.615l5.153-0.736L82.342,88.272z M62.068,107.208l2.341-4.549l2.209,4.549l5.152,0.804l-3.747,3.545l0.803,5.019
		l-4.55-2.343l-4.549,2.276l0.869-5.018l-3.681-3.613L62.068,107.208z M51.228,97.238l0.803,5.019l-4.617-2.409l-4.55,2.409
		l0.938-5.085l-3.681-3.615l5.086-0.736l2.341-4.549l2.274,4.616l5.086,0.804L51.228,97.238z M33.229,111.557l0.802,5.019
		l-4.549-2.343l-4.55,2.276l0.87-5.018l-3.68-3.613l5.085-0.67l2.342-4.549l2.274,4.549l5.086,0.804L33.229,111.557z
		 M80.068,121.527l2.274-4.617l2.275,4.684l5.085,0.736l-3.681,3.548l0.803,5.085l-4.55-2.409l-4.616,2.341l0.936-5.085l-3.68-3.547
		L80.068,121.527z M16.232,171.379c0.339-0.387,0.54-0.631,0.603-0.736c0.491,0,1.405,0.244,2.743,0.736H16.232z M283.851,191.519
		c0.335,0.599,0.435,1.133,0.301,1.605c1.248-0.177,2.409-0.268,3.479-0.268c-1.204,3.702-2.564,7.316-4.083,10.841l-0.134,0.334
		c-1.129,2.587-2.333,5.13-3.611,7.628H136.441c-6.249-1.187-12.394-2.304-18.434-3.346c-11.508-2.097-18.602-3.145-21.278-3.145
		c0.669,0.224,1.116,0.379,1.338,0.468c-2.407-0.222-5.174-0.335-8.296-0.335c-2.498,0.091-5.242,0.224-8.23,0.403
		c-6.29,0.445-13.472,0.356-21.545-0.268c-0.938-0.045-1.852-0.112-2.745-0.202c-0.981-0.178-3.881,0.066-8.698,0.735
		c-4.772,0.714-7.405,1.072-7.896,1.072c-0.134-0.045-0.401-0.113-0.803-0.201c-0.937-0.178-2.431-0.559-4.483-1.137
		c-0.802-0.225-1.717-0.47-2.743-0.738c-0.402-0.088-0.825-0.199-1.272-0.334c-1.249-0.356-2.453-0.668-3.613-0.936
		c-1.472-0.358-2.855-0.668-4.149-0.937c-1.599-3.697-3.026-7.445-4.283-11.242H283.851z M81.171,211.659H28.042
		c-1.059-1.958-2.073-3.942-3.045-5.954c2.231,0.847,4.773,1.649,7.629,2.409c0.891,0.177,1.717,0.312,2.475,0.4
		c2.453,0.581,4.528,1.004,6.223,1.271c0.356,0.045,0.692,0.067,1.004,0.067c2.766,0.267,4.729-0.179,5.888-1.339
		c1.205-1.026,2.855-1.495,4.952-1.404c0.892,0.133,2.677,0.803,5.353,2.006c1.25,0.759,2.498,1.449,3.746,2.075
		c0.224,0.045,0.625-0.067,1.205-0.335c0.49-0.224,1.115-0.558,1.875-1.003c1.695-0.938,2.832-1.384,3.412-1.339
		c0.49,0,1.338,0.356,2.542,1.071c1.16,0.713,1.896,1.138,2.208,1.271c0.268,0,1.002-0.201,2.209-0.603
		c1.337-0.268,2.14-0.4,2.408-0.4c0.089,0,0.892,0.491,2.409,1.471C80.749,211.444,80.962,211.558,81.171,211.659z M88.899,211.659
		c1.117-0.312,2.231-0.669,3.347-1.071c0.98,0.404,1.828,0.762,2.542,1.071H88.899z M105.427,211.659h-2.943
		c0.489-0.143,1.023-0.299,1.605-0.468C104.437,211.23,104.883,211.386,105.427,211.659z M130.955,211.659h-2.844
		c0.664-0.714,1.043-1.071,1.138-1.071C129.549,210.627,130.119,210.982,130.955,211.659z M89,272.884h129.142
		c-12.503,6.562-25.673,11.044-39.513,13.451c-0.356-0.135-0.759-0.246-1.204-0.334c-7.584-1.205-11.532-1.808-11.844-1.808
		c-0.402-0.135-0.959-0.045-1.673,0.268c-0.713,0.178-1.271,0.224-1.674,0.133c-0.355,0-1.092-0.2-2.206-0.601
		c-1.072-0.358-1.808-0.536-2.209-0.536c-0.134,0-0.959,0.133-2.477,0.4c-1.605,0.313-2.898,0.426-3.881,0.336
		c-0.311,0-1.003-0.224-2.074-0.669c-1.026-0.402-1.673-0.604-1.941-0.604c-8.475,1.117-13.159,1.65-14.053,1.607
		c-1.561-0.179-2.697-0.58-3.411-1.204c-0.669-0.625-2.164-1.072-4.483-1.339c0-0.268-0.134-0.424-0.402-0.469
		c-0.758-0.313-2.766-0.379-6.022-0.2c-3.658,0.49-5.933,0.736-6.826,0.736c-0.311-0.045-0.624-0.136-0.936-0.269
		c-0.447-0.357-1.406-1.093-2.877-2.208c-2.008-1.785-3.703-2.744-5.086-2.877c-0.4,0-1.092,0.088-2.075,0.269
		c-0.98,0.31-1.738,0.49-2.273,0.534C95.589,276.106,92.255,274.566,89,272.884z M243.401,251.807H59.09
		c-3.23-3.002-6.364-6.191-9.401-9.568c-0.937-1.069-1.874-2.142-2.811-3.211c-0.402-0.445-0.804-0.915-1.205-1.406
		c-1.625-1.946-3.186-3.91-4.684-5.889H251.8c0.802,0.157,1.861,0.335,3.177,0.536c2.856,0.223,4.596,0.512,5.219,0.871
		c0.179,0.089,0.581,0.423,1.206,1.004c0.357,0.4,1.114,0.78,2.275,1.137l0.333,0.335c-0.221,0.223-0.399,0.445-0.534,0.668
		c-2.097,1.07-6.224,1.428-12.378,1.07c0.044,0.625-0.022,1.184-0.201,1.674c-0.045,0.089-0.09,0.156-0.134,0.201
		c-0.313,0.578-0.782,0.846-1.405,0.803c-0.804-0.045-2.298-0.38-4.484-1.004c-0.134-0.045-0.29-0.09-0.469-0.134
		c-0.399-0.135-0.779-0.224-1.137-0.269c-1.739-0.445-2.655-0.669-2.742-0.669c-0.491-0.044-1.34,0.313-2.544,1.071
		c-0.224,0.134-0.469,0.289-0.737,0.469c-1.694,1.114-2.586,1.649-2.675,1.604c-0.849-0.089-2.32-0.335-4.418-0.735
		c-2.184-0.269-3.39-0.446-3.613-0.535c-1.605-0.045-3.523,0.67-5.752,2.142c-0.135,0.088-0.269,0.178-0.402,0.267
		c-2.097,1.295-3.412,1.917-3.948,1.874c-0.357-0.09-0.69-0.244-1.003-0.468c-0.402-0.402-0.804-0.604-1.206-0.604
		c-0.089,0-0.757,0.201-2.005,0.604c-1.341,0.536-2.254,0.802-2.745,0.802c-0.402-0.045-0.715-0.245-0.936-0.601
		c-0.089-0.136-0.246-0.425-0.469-0.871c-0.76,0.625-1.919,1.093-3.479,1.405c-0.849,0.135-1.784,0.246-2.812,0.334
		c-3.078,0.224-4.906,0.357-5.487,0.402l-0.668-0.067c0.936,0.313,2.407,0.893,4.415,1.74c0.447,0.179,0.938,0.378,1.475,0.602
		c1.781,0.804,3.256,1.249,4.415,1.339c0.979,0.045,2.563-0.2,4.75-0.736c2.23-0.668,3.523-0.937,3.881-0.803
		c0.805,0.09,1.963,0.468,3.479,1.137c1.383,0.759,2.789,1.25,4.217,1.472c0.891,0,2.295-0.155,4.214-0.468
		c1.918-0.312,2.923-0.468,3.013-0.468c0.134,0,0.823,0.134,2.074,0.402c1.249,0.312,3.033,0.713,5.354,1.203
		C239.527,251.058,241.691,251.503,243.401,251.807z M137.612,140.264l0.871,5.018l-4.552-2.409l-4.616,2.342l0.936-5.018
		l-3.679-3.681l5.151-0.603l2.276-4.617l2.342,4.617l5.085,0.803L137.612,140.264z M137.612,111.557l0.871,5.019l-4.552-2.343
		l-4.616,2.276l0.936-5.018l-3.679-3.613l5.151-0.67l2.276-4.549l2.342,4.549l5.085,0.804L137.612,111.557z M109.71,93.557
		l5.152-0.736l2.274-4.549l2.274,4.616l5.153,0.804l-3.747,3.545l0.803,5.019l-4.483-2.409l-4.684,2.409l1.004-5.085L109.71,93.557z
		 M91.778,107.878l5.085-0.67l2.341-4.549l2.276,4.549l5.085,0.804l-3.746,3.545l0.869,5.019l-4.616-2.343l-4.551,2.276l0.871-5.018
		L91.778,107.878z M95.391,140.197l-3.613-3.681l5.085-0.603l2.341-4.617l2.276,4.617l5.085,0.803l-3.746,3.548l0.869,5.018
		l-4.616-2.409l-4.551,2.342L95.391,140.197z M109.71,122.263l5.152-0.736l2.274-4.617l2.274,4.684l5.153,0.736l-3.747,3.548
		l0.803,5.085l-4.483-2.409l-4.684,2.341l1.004-5.085L109.71,122.263z"/>
</g>
</svg>
