<?xml version="1.0" encoding="utf-8"?>
<!-- Generator: Adobe Illustrator 16.0.0, SVG Export Plug-In . SVG Version: 6.00 Build 0)  -->
<!DOCTYPE svg PUBLIC "-//W3C//DTD SVG 1.1//EN" "http://www.w3.org/Graphics/SVG/1.1/DTD/svg11.dtd">
<svg version="1.1" id="Layer_1" xmlns="http://www.w3.org/2000/svg" xmlns:xlink="http://www.w3.org/1999/xlink" x="0px" y="0px"
	 width="300px" height="300px" viewBox="0 0 300 300" enable-background="new 0 0 300 300" xml:space="preserve">
<g>
	<path fill-rule="evenodd" clip-rule="evenodd" fill="#0A3554" d="M114.663,15.442H91.806l1.121-1.028l-5.329-0.749l-1.916-4.114
		h35.056l-2.009,4.114l-5.234,0.56L114.663,15.442z M121.394,9.552h12.853v5.891h-6.683l1.074-1.028l-5.233-0.749L121.394,9.552z
		 M78.857,15.442H56.045l1.076-1.028l-5.327-0.749l-1.918-4.114h35.198l-2.149,4.114l-5.236,0.56L78.857,15.442z M89.373,20.396
		h27.393l-0.466,2.805l4.674-2.43l4.674,2.43l-0.467-2.805h9.066v1.217v0.092v21.035v20.567v20.756v20.659v20.474v21.22H29.636
		v-21.22l2.525-1.309l4.674,2.431l-0.84-5.235l3.832-3.555l-5.236-0.84l-2.337-4.767l-2.337,4.673l-0.28,0.047V95.746l2.525-1.309
		l4.674,2.43l-0.84-5.141l3.832-3.646l-5.236-0.935l-2.337-4.676l-2.337,4.676l-0.28,0.047V66.299l2.525-1.31l4.674,2.431
		l-0.84-5.143l3.832-3.646l-5.236-0.936l-2.337-4.674l-2.337,4.674l-0.28,0.048V36.756l2.525-1.307l4.674,2.522l-0.84-5.142
		l3.832-3.737l-5.236-0.749l-2.337-4.768l-2.337,4.768l-0.28,0.047v-6.404c0-1.057,0.499-1.589,1.498-1.589h14.161l-0.515,2.805
		l4.676-2.43l4.673,2.43l-0.466-2.805H80.96l-0.466,2.805l4.674-2.43l4.673,2.43L89.373,20.396z M96.105,58.446l3.833,3.739
		l-0.934,5.236l4.768-2.431l4.582,2.431l-0.843-5.143l3.833-3.646l-5.235-0.936l-2.337-4.674l-2.337,4.674L96.105,58.446z
		 M89.841,52.648L89,47.506l3.926-3.644l-5.329-0.749l-2.243-4.768l-2.431,4.768l-5.236,0.653l3.646,3.74l-0.84,5.142l4.674-2.431
		L89.841,52.648z M70.304,57.697l-2.244-4.674l-2.431,4.674L60.3,58.446l3.832,3.739l-0.933,5.236l4.673-2.431l4.769,2.431
		l-0.844-5.143l3.835-3.646L70.304,57.697z M70.304,28.343l-2.244-4.768l-2.431,4.768L60.3,28.998l3.832,3.739l-0.933,5.142
		l4.673-2.431l4.769,2.522l-0.844-5.142l3.835-3.737L70.304,28.343z M99.938,32.737l-0.934,5.142l4.768-2.431l4.582,2.522
		l-0.843-5.142l3.833-3.737l-5.235-0.749l-2.337-4.768l-2.337,4.768l-5.329,0.655L99.938,32.737z M118.729,43.114l-5.234,0.653
		l3.644,3.74l-0.839,5.142l4.674-2.431l4.674,2.431l-0.842-5.142l3.833-3.644l-5.233-0.749l-2.338-4.768L118.729,43.114z
		 M25.335,28.904l-0.653,0.094l0.653,0.653v28.7l-0.653,0.094l0.653,0.653v28.796l-0.653,0.092l0.653,0.653v28.701l-0.653,0.095
		l0.653,0.606v28.373h-5.89v-12.338l1.965-1.776l-1.965-0.328v-27.298l1.965-1.822l-1.965-0.328V75.133l1.965-1.823l-1.965-0.328
		V45.684l1.965-1.822l-1.965-0.281V16.237l1.965-1.822l-1.965-0.281v-1.777c0-0.685,0.28-1.34,0.842-1.964
		c0.624-0.56,1.277-0.841,1.962-0.841h26.973l-2.011,4.114l-5.33,0.56l1.217,1.217H25.335V28.904z M51.793,72.469l-2.246-4.673
		l-2.337,4.673l-5.33,0.747l3.835,3.74l-0.936,5.143l4.676-2.432l4.673,2.432l-0.84-5.143l3.832-3.646L51.793,72.469z
		 M53.289,47.506l3.832-3.644l-5.327-0.749l-2.246-4.768l-2.337,4.768l-5.33,0.653l3.835,3.74l-0.936,5.142l4.676-2.431l4.673,2.431
		L53.289,47.506z M53.289,106.499l3.832-3.646l-5.327-0.936l-2.246-4.674l-2.337,4.674l-5.33,0.747l3.835,3.646l-0.936,5.236
		l4.676-2.337l4.673,2.433L53.289,106.499z M57.121,132.301l-5.327-0.935l-2.246-4.676l-2.337,4.676l-5.33,0.746l3.835,3.646
		l-0.936,5.235l4.676-2.337l4.673,2.432l-0.84-5.237L57.121,132.301z M128.638,132.301l-5.233-0.935l-2.338-4.676l-2.337,4.676
		l-5.234,0.746l3.644,3.646l-0.839,5.235l4.674-2.337l4.674,2.432l-0.842-5.237L128.638,132.301z M63.199,126.317l4.673-2.431
		l4.769,2.431l-0.844-5.235l3.835-3.555l-5.328-0.84l-2.244-4.767l-2.431,4.673l-5.329,0.843l3.832,3.552L63.199,126.317z
		 M85.355,126.69l-2.431,4.676l-5.236,0.746l3.646,3.646l-0.84,5.235l4.674-2.337l4.673,2.432L89,135.851l3.926-3.55l-5.329-0.935
		L85.355,126.69z M96.105,117.437l3.833,3.552l-0.934,5.329l4.768-2.431l4.582,2.431l-0.843-5.235l3.833-3.555l-5.235-0.84
		l-2.337-4.767l-2.337,4.673L96.105,117.437z M92.927,102.853l-5.329-0.936l-2.243-4.674l-2.431,4.674l-5.236,0.747l3.646,3.646
		l-0.84,5.236l4.674-2.337l4.673,2.433L89,106.499L92.927,102.853z M70.304,87.146L68.06,82.47l-2.431,4.676L60.3,87.987
		l3.832,3.647l-0.933,5.233l4.673-2.43l4.769,2.43l-0.844-5.141l3.835-3.646L70.304,87.146z M85.355,67.795l-2.431,4.673
		l-5.236,0.747l3.646,3.74l-0.84,5.143l4.674-2.432l4.673,2.432L89,76.956l3.926-3.646l-5.329-0.841L85.355,67.795z
		 M118.729,101.917l-5.234,0.747l3.644,3.646l-0.839,5.236l4.674-2.337l4.674,2.433l-0.842-5.143l3.833-3.646l-5.233-0.936
		l-2.338-4.674L118.729,101.917z M103.771,82.47l-2.337,4.676l-5.329,0.841l3.833,3.647l-0.934,5.233l4.768-2.43l4.582,2.43
		l-0.843-5.141l3.833-3.646l-5.235-0.935L103.771,82.47z M123.404,72.469l-2.338-4.673l-2.337,4.673l-5.234,0.747l3.644,3.74
		l-0.839,5.143l4.674-2.432l4.674,2.432l-0.842-5.143l3.833-3.646L123.404,72.469z"/>
	<path fill-rule="evenodd" clip-rule="evenodd" fill="#F4F4F4" d="M127.563,15.442h-12.9l-1.168-1.217l5.234-0.56l2.009-4.114h0.655
		l2.011,4.114l5.233,0.749L127.563,15.442z M91.806,15.442H78.857l-1.169-1.217l5.236-0.56l2.149-4.114h0.609l1.916,4.114
		l5.329,0.749L91.806,15.442z M25.335,59.099l-0.653-0.653l0.653-0.094V59.099z M29.636,36.756V28.39l0.28-0.047l2.337-4.768
		l2.337,4.768l5.236,0.749l-3.832,3.737l0.84,5.142l-4.674-2.522L29.636,36.756z M25.335,28.904v0.747l-0.653-0.653L25.335,28.904z
		 M45.295,20.396h8.368l0.466,2.805l-4.673-2.43l-4.676,2.43L45.295,20.396z M19.445,45.684v-2.103l1.965,0.281L19.445,45.684z
		 M19.445,16.237v-2.103l1.965,0.281L19.445,16.237z M56.045,15.442H43.099l-1.217-1.217l5.33-0.56l2.011-4.114h0.653l1.918,4.114
		l5.327,0.749L56.045,15.442z M80.96,20.396h8.413l0.468,2.805l-4.673-2.43l-4.674,2.43L80.96,20.396z M29.636,66.299v-8.554
		l0.28-0.048l2.337-4.674l2.337,4.674l5.236,0.936l-3.832,3.646l0.84,5.143l-4.674-2.431L29.636,66.299z M19.445,146.884h5.89v7.479
		c0,0.496,0.032,0.996,0.094,1.495c0.063,1.184,0.156,2.43,0.281,3.739c0.062,0.313,0.125,0.624,0.187,0.936
		c0.318,2.331,0.833,4.793,1.541,7.385h-6.263c-0.615-2.56-1.068-5.021-1.356-7.385c-0.061-0.312-0.094-0.623-0.094-0.936
		c-0.125-1.245-0.218-2.492-0.28-3.739c0-0.374,0-0.746,0-1.121V146.884z M19.445,75.133v-2.151l1.965,0.328L19.445,75.133z
		 M29.636,95.746v-8.553l0.28-0.047l2.337-4.676l2.337,4.676l5.236,0.935l-3.832,3.646l0.84,5.141l-4.674-2.43L29.636,95.746z
		 M29.636,116.641l0.28-0.047l2.337-4.673l2.337,4.767l5.236,0.84l-3.832,3.555l0.84,5.235l-4.674-2.431l-2.525,1.309V116.641z
		 M134.247,104.721h136.119v20.474H134.247V104.721z M134.247,63.307h136.119v20.756H134.247V63.307z M270.365,42.739H134.247
		V21.705h136.119c0,0.09,0,0.184,0,0.281V42.739z M116.766,20.396h8.414l0.467,2.805l-4.674-2.43l-4.674,2.43L116.766,20.396z
		 M99.938,32.737l-3.833-3.739l5.329-0.655l2.337-4.768l2.337,4.768l5.235,0.749l-3.833,3.737l0.843,5.142l-4.582-2.522
		l-4.768,2.431L99.938,32.737z M70.304,28.343l5.328,0.749l-3.835,3.737l0.844,5.142l-4.769-2.522l-4.673,2.431l0.933-5.142
		L60.3,28.998l5.329-0.655l2.431-4.768L70.304,28.343z M70.304,57.697l5.328,0.936l-3.835,3.646l0.844,5.143l-4.769-2.431
		l-4.673,2.431l0.933-5.236L60.3,58.446l5.329-0.749l2.431-4.674L70.304,57.697z M89.841,52.648l-4.673-2.431l-4.674,2.431
		l0.84-5.142l-3.646-3.74l5.236-0.653l2.431-4.768l2.243,4.768l5.329,0.749L89,47.506L89.841,52.648z M96.105,58.446l5.329-0.749
		l2.337-4.674l2.337,4.674l5.235,0.936l-3.833,3.646l0.843,5.143l-4.582-2.431l-4.768,2.431l0.934-5.236L96.105,58.446z
		 M118.729,43.114l2.337-4.768l2.338,4.768l5.233,0.749l-3.833,3.644l0.842,5.142l-4.674-2.431l-4.674,2.431l0.839-5.142
		l-3.644-3.74L118.729,43.114z M19.445,134.077v-2.104l1.965,0.328L19.445,134.077z M29.636,146.884h240.729v6.545
		c0,0.81,0,1.619,0,2.43c0,0.997-0.031,1.994-0.093,2.993c-0.063,0.247-0.095,0.497-0.095,0.746
		c-0.436,2.652-1.043,5.427-1.824,8.32H31.693c-0.69-2.566-1.188-5.025-1.497-7.385c-0.062-0.312-0.124-0.623-0.187-0.936
		c-0.125-1.245-0.219-2.492-0.281-3.739c-0.063-0.499-0.093-0.999-0.093-1.495V146.884z M25.335,117.342v0.701l-0.653-0.606
		L25.335,117.342z M25.335,87.895v0.746l-0.653-0.653L25.335,87.895z M53.289,47.506l0.84,5.142l-4.673-2.431l-4.676,2.431
		l0.936-5.142l-3.835-3.74l5.33-0.653l2.337-4.768l2.246,4.768l5.327,0.749L53.289,47.506z M51.793,72.469l5.327,0.841l-3.832,3.646
		l0.84,5.143l-4.673-2.432l-4.676,2.432l0.936-5.143l-3.835-3.74l5.33-0.747l2.337-4.673L51.793,72.469z M53.289,106.499l0.84,5.143
		l-4.673-2.433l-4.676,2.337l0.936-5.236l-3.835-3.646l5.33-0.747l2.337-4.674l2.246,4.674l5.327,0.936L53.289,106.499z
		 M57.121,132.301l-3.832,3.55l0.84,5.237l-4.673-2.432l-4.676,2.337l0.936-5.235l-3.835-3.646l5.33-0.746l2.337-4.676l2.246,4.676
		L57.121,132.301z M40.155,188.486h219.833c-0.893,1.598-1.827,3.188-2.805,4.768c-0.312,0.435-0.594,0.871-0.841,1.309
		c-1.122,1.684-2.245,3.334-3.367,4.954c-0.186,0.188-0.311,0.373-0.372,0.563h-0.094c-0.874,1.244-1.807,2.46-2.806,3.646
		c-1.447,1.816-2.957,3.623-4.534,5.421H54.971c-1.614-1.795-3.141-3.603-4.581-5.421c-0.998-1.186-1.932-2.401-2.804-3.646
		c-0.125-0.189-0.25-0.375-0.375-0.563c-1.557-2.058-2.961-4.145-4.206-6.263C42.003,191.674,41.054,190.084,40.155,188.486z
		 M28.981,188.486h6.778c0.862,1.598,1.782,3.188,2.759,4.768c1.369,2.306,2.866,4.58,4.487,6.825
		c0.874,1.244,1.775,2.46,2.711,3.646c1.401,1.806,2.882,3.613,4.442,5.421h-7.667c-1.447-1.808-2.833-3.615-4.16-5.421
		c-0.874-1.186-1.715-2.401-2.524-3.646c-1.497-2.245-2.899-4.52-4.208-6.825C30.672,191.674,29.8,190.084,28.981,188.486z
		 M78.157,229.805h143.687c-0.024,0.032-0.055,0.064-0.093,0.097c-3.428,2.928-7.261,6.2-11.498,9.814
		c-2.556,1.995-5.018,3.957-7.385,5.891c-0.125,0.123-0.25,0.218-0.375,0.28c-2.011,1.572-3.989,3.099-5.936,4.581h-93.346
		c-2.05-1.558-4.139-3.179-6.265-4.861c-0.561-0.375-1.089-0.779-1.588-1.216c-1.931-1.496-3.866-3.055-5.798-4.675
		c-4.237-3.614-8.007-6.887-11.31-9.814C78.213,229.869,78.184,229.837,78.157,229.805z M227.174,229.805h9.068
		c-0.025,0.032-0.058,0.064-0.096,0.097c-4.924,4.111-11.091,9.348-18.509,15.705c-0.873,0.747-1.775,1.525-2.711,2.336
		c-1.064,0.854-2.125,1.692-3.18,2.525h-9.582c0.101-0.093,0.21-0.188,0.328-0.282c1.932-1.494,3.864-3.021,5.796-4.579
		c1.121-0.937,2.275-1.871,3.458-2.806c5.86-4.924,10.971-9.225,15.332-12.899C227.117,229.869,227.148,229.837,227.174,229.805z
		 M72.828,229.805c0.026,0.032,0.057,0.064,0.093,0.097c4.237,3.675,9.254,7.976,15.051,12.899c1.183,0.935,2.337,1.869,3.458,2.806
		c1.372,1.057,2.681,2.118,3.927,3.177c0.738,0.563,1.47,1.122,2.196,1.685h-9.582c-1.028-0.833-2.055-1.672-3.086-2.525
		c-0.934-0.811-1.837-1.589-2.711-2.336c-7.292-6.357-13.336-11.594-18.136-15.705c-0.036-0.032-0.067-0.064-0.091-0.097H72.828z
		 M123.404,72.469l5.233,0.841l-3.833,3.646l0.842,5.143l-4.674-2.432l-4.674,2.432l0.839-5.143l-3.644-3.74l5.234-0.747
		l2.337-4.673L123.404,72.469z M103.771,82.47l2.337,4.676l5.235,0.935l-3.833,3.646l0.843,5.141l-4.582-2.43l-4.768,2.43
		l0.934-5.233l-3.833-3.647l5.329-0.841L103.771,82.47z M118.729,101.917l2.337-4.674l2.338,4.674l5.233,0.936l-3.833,3.646
		l0.842,5.143l-4.674-2.433l-4.674,2.337l0.839-5.236l-3.644-3.646L118.729,101.917z M85.355,67.795l2.243,4.673l5.329,0.841
		L89,76.956l0.84,5.143l-4.673-2.432l-4.674,2.432l0.84-5.143l-3.646-3.74l5.236-0.747L85.355,67.795z M70.304,87.146l5.328,0.935
		l-3.835,3.646l0.844,5.141l-4.769-2.43l-4.673,2.43l0.933-5.233L60.3,87.987l5.329-0.841l2.431-4.676L70.304,87.146z
		 M92.927,102.853L89,106.499l0.84,5.143l-4.673-2.433l-4.674,2.337l0.84-5.236l-3.646-3.646l5.236-0.747l2.431-4.674l2.243,4.674
		L92.927,102.853z M96.105,117.437l5.329-0.843l2.337-4.673l2.337,4.767l5.235,0.84l-3.833,3.555l0.843,5.235l-4.582-2.431
		l-4.768,2.431l0.934-5.329L96.105,117.437z M85.355,126.69l2.243,4.676l5.329,0.935L89,135.851l0.84,5.237l-4.673-2.432
		l-4.674,2.337l0.84-5.235l-3.646-3.646l5.236-0.746L85.355,126.69z M63.199,126.317l0.933-5.329l-3.832-3.552l5.329-0.843
		l2.431-4.673l2.244,4.767l5.328,0.84l-3.835,3.555l0.844,5.235l-4.769-2.431L63.199,126.317z M128.638,132.301l-3.833,3.55
		l0.842,5.237l-4.674-2.432l-4.674,2.337l0.839-5.235l-3.644-3.646l5.234-0.746l2.337-4.676l2.338,4.676L128.638,132.301z
		 M280.554,42.739h-5.796V21.705h5.796V42.739z M274.758,63.307h5.796v20.756h-5.796V63.307z M274.758,125.195v-20.474h5.796v20.474
		H274.758z M280.554,146.884v6.825c0,0.748,0,1.465,0,2.149c-0.061,1.247-0.123,2.46-0.186,3.646v0.093
		c-0.335,2.707-0.85,5.48-1.543,8.32h-6.123c0.812-2.939,1.402-5.713,1.775-8.32c0.125-1.31,0.219-2.556,0.28-3.739
		c0-0.499,0-0.999,0-1.495v-7.479H280.554z M264.381,188.486h6.778c-0.812,1.598-1.67,3.188-2.571,4.768
		c-1.309,2.306-2.709,4.58-4.207,6.825c-0.811,1.244-1.65,2.46-2.524,3.646c-1.328,1.806-2.715,3.613-4.159,5.421h-7.761
		c1.56-1.808,3.041-3.615,4.44-5.421c0.938-1.186,1.838-2.401,2.712-3.646c1.621-2.245,3.148-4.52,4.581-6.825
		C262.622,191.674,263.528,190.084,264.381,188.486z M134.996,272.154h29.635c-1.455,0.854-2.889,1.665-4.301,2.431
		c-0.123,0.063-0.248,0.125-0.373,0.189c-3.305,1.805-6.48,3.396-9.535,4.768c-0.437,0.186-0.874,0.186-1.309,0
		c-0.063-0.063-0.158-0.094-0.282-0.094c-2.929-1.371-6.014-2.93-9.255-4.674c-0.125-0.064-0.219-0.126-0.281-0.189
		C137.888,273.813,136.455,273.005,134.996,272.154z M182.487,272.154c-0.38,0.254-0.752,0.501-1.122,0.749
		c-0.81,0.563-1.652,1.122-2.523,1.682c-0.063,0.063-0.155,0.125-0.281,0.189c-10.158,6.605-19.354,11.747-27.579,15.424
		c-0.685,0.25-1.402,0.312-2.15,0.188c-0.125-0.063-0.279-0.125-0.466-0.188c-8.227-3.739-17.295-8.88-27.206-15.424
		c-0.123-0.064-0.219-0.126-0.279-0.189c-1.226-0.779-2.457-1.592-3.694-2.431h10.75c1.351,0.842,2.675,1.652,3.974,2.431
		c0.063,0.063,0.156,0.125,0.28,0.189c5.923,3.612,11.47,6.667,16.642,9.161c0.311,0.122,0.623,0.25,0.935,0.373
		c5.423-2.492,11.344-5.671,17.763-9.534c0.124-0.064,0.219-0.126,0.28-0.189c1.285-0.779,2.594-1.592,3.926-2.431H182.487z"/>
	<path fill-rule="evenodd" clip-rule="evenodd" fill="#9D1C20" d="M134.247,9.552h143.411c0.807,0,1.525,0.281,2.149,0.841
		c0.499,0.624,0.747,1.279,0.747,1.964v9.256h-5.796v-6.17H134.247V9.552z M134.247,125.195h136.119v21.688H29.636h-4.3h-5.89
		v-0.469h5.89h4.3h104.611V125.195z M270.365,104.721H134.247V84.063h136.119V104.721z M270.365,63.307H134.247V42.739h136.119
		V63.307z M134.247,20.396h134.714c0.817,0,1.286,0.405,1.404,1.217H134.247V20.396z M21.175,167.918h6.263
		c0.522,1.981,1.162,4.037,1.918,6.17c0.186,0.498,0.373,0.966,0.56,1.402c0.687,1.932,1.465,3.863,2.337,5.798
		c1.044,2.42,2.212,4.819,3.506,7.198h-6.778c-1.238-2.379-2.36-4.778-3.364-7.198c-0.625-1.497-1.217-3.023-1.777-4.582
		c-0.125-0.436-0.248-0.841-0.373-1.216C22.555,172.878,21.792,170.354,21.175,167.918z M31.693,167.918h236.66
		c-0.32,1.256-0.679,2.532-1.074,3.833c-0.437,1.247-0.874,2.495-1.309,3.739c-0.748,1.932-1.528,3.863-2.337,5.798
		c-1.118,2.42-2.332,4.819-3.646,7.198H40.155c-1.321-2.379-2.521-4.778-3.601-7.198c-0.872-1.935-1.684-3.866-2.431-5.798
		c-0.125-0.31-0.25-0.653-0.375-1.028C32.935,172.211,32.25,170.029,31.693,167.918z M54.971,209.146h190.198
		c-1.077,1.221-2.185,2.436-3.319,3.646l-0.093,0.094c-0.811,0.686-6.295,5.359-16.453,14.022c-1.088,0.907-2.241,1.873-3.46,2.896
		H78.157c-1.155-1.023-2.278-1.989-3.367-2.896c-9.472-8.226-14.895-12.899-16.267-14.022l-0.373-0.279
		C57.051,211.456,55.99,210.304,54.971,209.146z M42.492,209.146h7.667c1.066,1.246,2.172,2.495,3.318,3.74
		c0.373,0.437,0.748,0.84,1.122,1.215c0.373,0.438,5.327,4.704,14.862,12.808c1.03,0.907,2.15,1.873,3.368,2.896h-8.879
		c-1.218-1.023-2.339-1.989-3.368-2.896c-6.233-5.359-9.597-8.226-10.097-8.6H50.39c-1.683-1.809-3.304-3.616-4.861-5.423
		C44.485,211.641,43.473,210.392,42.492,209.146z M87.972,250.468h9.582c0.83,0.624,1.657,1.245,2.477,1.87
		c2.868,2.18,5.673,4.268,8.416,6.262c1.308,0.997,2.616,1.965,3.925,2.898c0.562,0.437,1.155,0.873,1.775,1.309
		c4.789,3.447,9.386,6.563,13.79,9.348h-10.75c-1.006-0.695-2.018-1.412-3.04-2.148c-1.869-1.308-3.769-2.68-5.7-4.113
		c-2.058-1.371-4.115-2.836-6.172-4.395c-2.244-1.682-4.549-3.428-6.917-5.235c-1.683-1.246-3.365-2.554-5.049-3.925
		C89.531,251.719,88.752,251.096,87.972,250.468z M103.211,250.468h93.346c-0.832,0.633-1.658,1.254-2.48,1.87
		c-4.424,3.303-8.66,6.355-12.712,9.16c-5.931,4.083-11.51,7.635-16.734,10.656h-29.635c-5.239-3.056-10.786-6.606-16.642-10.656
		c-1.434-0.934-2.833-1.901-4.208-2.898c-1.869-1.371-3.769-2.772-5.7-4.206c-0.936-0.685-1.839-1.371-2.711-2.056
		C104.904,251.725,104.064,251.102,103.211,250.468z M202.165,250.468h9.582c-0.778,0.628-1.557,1.251-2.337,1.87
		c-2.368,1.805-4.674,3.582-6.917,5.327c-1.683,1.309-3.366,2.589-5.048,3.833c-5.205,3.875-10.19,7.428-14.958,10.656h-10.752
		c3.099-1.964,6.308-4.084,9.63-6.356c1.932-1.372,3.927-2.806,5.983-4.3c3.989-2.867,8.103-5.92,12.34-9.16
		C200.506,251.735,201.332,251.114,202.165,250.468z M236.242,229.805h-9.068c1.216-1.023,2.369-1.989,3.46-2.896
		c9.534-8.104,14.49-12.37,14.861-12.808c0.375-0.375,0.749-0.778,1.122-1.215c1.146-1.245,2.253-2.494,3.319-3.74h7.761
		c-1.021,1.246-2.064,2.495-3.132,3.74c-1.558,1.807-3.179,3.614-4.862,5.423l-0.094,0.094c-0.437,0.373-3.739,3.208-9.908,8.506
		C238.612,227.815,237.459,228.781,236.242,229.805z M274.758,42.739h5.796v20.567h-5.796V42.739z M280.554,104.721h-5.796V84.063
		h5.796V104.721z M274.758,146.884v-21.688h5.796v21.688H274.758z M272.702,167.918h6.123c-0.459,1.931-1.005,3.897-1.637,5.891
		c-0.188,0.561-0.374,1.12-0.562,1.682c-0.685,1.932-1.4,3.863-2.149,5.798c-1.006,2.42-2.112,4.819-3.318,7.198h-6.778
		c1.288-2.379,2.472-4.778,3.552-7.198c0.811-1.935,1.591-3.866,2.34-5.798c0.123-0.437,0.28-0.904,0.466-1.402
		C271.491,171.955,272.144,169.899,272.702,167.918z"/>
</g>
</svg>
