<?xml version="1.0" encoding="utf-8"?>
<!-- Generator: Adobe Illustrator 16.0.0, SVG Export Plug-In . SVG Version: 6.00 Build 0)  -->
<!DOCTYPE svg PUBLIC "-//W3C//DTD SVG 1.1//EN" "http://www.w3.org/Graphics/SVG/1.1/DTD/svg11.dtd">
<svg version="1.1" id="Layer_1" xmlns="http://www.w3.org/2000/svg" xmlns:xlink="http://www.w3.org/1999/xlink" x="0px" y="0px"
	 width="300px" height="300px" viewBox="0 0 300 300" enable-background="new 0 0 300 300" xml:space="preserve">
<g>
	<path fill-rule="evenodd" clip-rule="evenodd" fill="#FFFFFF" d="M152.328,35.656c1.106,0,2.207,0.025,3.301,0.077
		c1.093,0.051,2.175,0.135,3.243,0.251c0.72,0.077,1.446,0.167,2.18,0.27c0.335,0.039,0.676,0.084,1.023,0.135
		c0.89,0.142,1.776,0.296,2.665,0.463c0.154,0.039,0.315,0.071,0.481,0.097c1.043,0.219,2.073,0.457,3.088,0.714
		c1.03,0.271,2.047,0.56,3.051,0.869c0.785,0.244,1.57,0.508,2.354,0.791c0.206,0.078,0.412,0.154,0.618,0.231
		c0.978,0.348,1.943,0.728,2.896,1.139c0.051,0.026,0.104,0.045,0.154,0.058c0.9,0.386,1.795,0.797,2.684,1.235
		c0.938,0.438,1.859,0.907,2.759,1.409c0.862,0.464,1.719,0.953,2.568,1.467c0.039,0.026,0.077,0.051,0.116,0.077
		c0.875,0.527,1.737,1.082,2.585,1.66c0.298,0.193,0.586,0.392,0.869,0.599c0.555,0.386,1.107,0.785,1.661,1.197
		c0.811,0.617,1.614,1.248,2.413,1.892c0.784,0.656,1.557,1.325,2.315,2.007c0.077,0.065,0.154,0.135,0.231,0.212
		c0.683,0.631,1.346,1.268,1.988,1.911c0.477,0.476,0.953,0.972,1.429,1.487c0.23,0.244,0.463,0.495,0.694,0.753
		c0.696,0.759,1.372,1.531,2.027,2.316c0.644,0.785,1.273,1.589,1.893,2.413c0.114,0.142,0.225,0.289,0.327,0.444
		c0.502,0.682,0.991,1.371,1.467,2.065c0.553,0.836,1.101,1.686,1.641,2.548c0,0.025,0.007,0.045,0.021,0.058
		c0.54,0.875,1.055,1.769,1.544,2.683c0.488,0.901,0.958,1.821,1.409,2.76c0.076,0.141,0.147,0.29,0.212,0.444
		c0.386,0.798,0.746,1.596,1.081,2.394c0.399,0.952,0.778,1.917,1.138,2.895c0.091,0.244,0.181,0.489,0.271,0.734
		c0.258,0.746,0.508,1.492,0.753,2.239c0.309,0.991,0.592,1.995,0.849,3.011c0,0.014,0,0.026,0,0.039
		c0.271,1.017,0.508,2.046,0.714,3.089c0.22,1.029,0.412,2.078,0.58,3.146c0.064,0.425,0.121,0.856,0.174,1.293
		c0.089,0.631,0.167,1.268,0.231,1.911c0.063,0.644,0.122,1.293,0.173,1.95c0.026,0.425,0.053,0.856,0.078,1.293
		c0.051,1.094,0.077,2.187,0.077,3.281c0,1.223-0.032,2.445-0.097,3.668c-0.026,0.321-0.045,0.643-0.059,0.965
		c-0.051,0.644-0.115,1.287-0.192,1.93c-0.025,0.245-0.052,0.489-0.077,0.733c-0.129,1.197-0.303,2.394-0.521,3.59
		c-0.206,1.197-0.445,2.381-0.716,3.552c-0.27,1.184-0.571,2.354-0.906,3.513c-0.347,1.158-0.721,2.304-1.119,3.436
		c-0.399,1.145-0.838,2.271-1.313,3.378c-0.464,1.12-0.959,2.227-1.487,3.32c-0.527,1.081-1.087,2.149-1.68,3.204
		c-0.27,0.476-0.54,0.952-0.81,1.428c-0.348,0.566-0.701,1.132-1.063,1.698c-0.643,1.017-1.318,2.021-2.026,3.012
		c-0.707,0.978-1.447,1.943-2.22,2.896c-0.438,0.527-0.882,1.056-1.332,1.583c-0.45,0.515-0.908,1.022-1.37,1.524
		c-0.463,0.502-0.939,0.998-1.429,1.486c-0.477,0.489-0.965,0.972-1.467,1.448c-0.489,0.463-0.991,0.927-1.507,1.39
		c-0.514,0.451-1.028,0.894-1.544,1.332c-0.526,0.437-1.062,0.868-1.602,1.294c-0.541,0.424-1.082,0.836-1.621,1.234
		c-0.555,0.412-1.113,0.811-1.68,1.197c-0.566,0.386-1.132,0.76-1.698,1.119c-0.579,0.373-1.158,0.733-1.737,1.081
		c-0.592,0.348-1.185,0.688-1.776,1.022c0.335,0.219,0.663,0.451,0.984,0.695c0.322,0.245,0.638,0.503,0.945,0.772
		c0.039,0.025,0.077,0.059,0.117,0.097c0.27,0.231,0.527,0.469,0.772,0.713c0.296,0.283,0.578,0.573,0.848,0.869
		c0.271,0.31,0.535,0.617,0.793,0.928c0.257,0.321,0.501,0.644,0.732,0.964c0.231,0.335,0.456,0.677,0.676,1.024
		c0.219,0.334,0.425,0.682,0.618,1.041c0.192,0.36,0.379,0.728,0.56,1.102c0.168,0.372,0.327,0.746,0.482,1.119
		c0.154,0.386,0.297,0.771,0.425,1.158c0.129,0.398,0.244,0.797,0.348,1.196c0.103,0.412,0.192,0.823,0.271,1.235
		c0.076,0.412,0.147,0.823,0.212,1.235c0.051,0.426,0.09,0.856,0.116,1.294c0.024,0.424,0.038,0.855,0.038,1.293
		c0,0.463-0.014,0.92-0.038,1.369c-0.039,0.451-0.084,0.902-0.136,1.353c-0.064,0.449-0.141,0.894-0.231,1.331
		c-0.09,0.438-0.193,0.87-0.309,1.295c-0.116,0.423-0.252,0.841-0.405,1.254c-0.142,0.412-0.297,0.824-0.464,1.235
		c-0.167,0.398-0.348,0.792-0.54,1.178c-0.206,0.386-0.418,0.765-0.637,1.139c-0.22,0.373-0.451,0.74-0.695,1.101
		c-0.077,0.128-0.154,0.25-0.232,0.366c-0.166,0.232-0.341,0.456-0.521,0.676c-0.258,0.347-0.527,0.683-0.812,1.004
		c-0.282,0.321-0.578,0.638-0.887,0.946c-0.309,0.295-0.625,0.584-0.946,0.868c-0.322,0.283-0.649,0.56-0.984,0.83
		c-0.347,0.257-0.701,0.508-1.063,0.753c-0.348,0.245-0.707,0.476-1.08,0.694s-0.753,0.425-1.139,0.617
		c-0.399,0.193-0.799,0.374-1.197,0.54c-0.399,0.181-0.804,0.342-1.216,0.483c-0.425,0.143-0.844,0.271-1.256,0.386
		c-0.437,0.117-0.874,0.219-1.313,0.31c-0.437,0.09-0.874,0.167-1.312,0.231c-0.45,0.064-0.9,0.109-1.352,0.135
		c-0.463,0.039-0.926,0.058-1.391,0.058c-0.411,0-0.822-0.012-1.234-0.038s-0.817-0.064-1.216-0.116
		c-0.398-0.05-0.798-0.115-1.197-0.192c-0.399-0.064-0.791-0.147-1.178-0.252c-0.385-0.089-0.766-0.192-1.139-0.308
		c-0.386-0.129-0.76-0.258-1.119-0.386c-0.373-0.143-0.74-0.297-1.102-0.464c-0.359-0.155-0.713-0.321-1.061-0.501
		c-0.334-0.181-0.67-0.367-1.003-0.561c-0.335-0.206-0.664-0.419-0.985-0.637c-0.322-0.206-0.637-0.432-0.946-0.676
		c-0.308-0.232-0.61-0.471-0.905-0.715c-0.298-0.257-0.587-0.521-0.87-0.79c-0.27-0.271-0.541-0.548-0.811-0.831
		c-0.258-0.283-0.509-0.573-0.752-0.868c-0.259-0.296-0.496-0.599-0.716-0.907c-0.23-0.322-0.456-0.645-0.676-0.966
		c-0.205-0.321-0.403-0.655-0.598-1.004c-0.192-0.333-0.373-0.676-0.541-1.022c-0.181-0.347-0.347-0.701-0.502-1.062
		c-0.153-0.361-0.295-0.728-0.423-1.101c-0.13-0.373-0.252-0.753-0.368-1.139c-0.114-0.373-0.218-0.753-0.309-1.139
		c-0.077-0.387-0.153-0.779-0.231-1.178c-0.064,0.398-0.135,0.791-0.213,1.178c-0.089,0.386-0.192,0.766-0.309,1.139
		c-0.103,0.386-0.225,0.766-0.366,1.139c-0.129,0.373-0.271,0.739-0.425,1.101c-0.154,0.36-0.316,0.715-0.482,1.062
		c-0.04,0.077-0.078,0.161-0.116,0.251c-0.154,0.258-0.303,0.515-0.444,0.771c-0.192,0.349-0.392,0.683-0.598,1.004
		c-0.155,0.231-0.309,0.464-0.463,0.694c-0.064,0.091-0.129,0.18-0.193,0.271c-0.232,0.309-0.477,0.611-0.734,0.907
		c-0.245,0.295-0.496,0.585-0.753,0.868c-0.27,0.283-0.54,0.561-0.811,0.831c-0.282,0.269-0.572,0.533-0.868,0.79
		c-0.296,0.244-0.592,0.482-0.888,0.715c-0.322,0.244-0.637,0.47-0.946,0.676c-0.322,0.218-0.649,0.431-0.984,0.637
		c-0.335,0.193-0.676,0.38-1.023,0.561c-0.347,0.18-0.701,0.346-1.062,0.501c-0.36,0.167-0.721,0.321-1.081,0.464
		c-0.374,0.128-0.747,0.257-1.12,0.386c-0.386,0.115-0.772,0.219-1.159,0.308c-0.386,0.104-0.779,0.188-1.177,0.252
		c-0.386,0.077-0.785,0.143-1.197,0.192c-0.398,0.052-0.804,0.09-1.216,0.116s-0.823,0.038-1.236,0.038
		c-0.462,0-0.926-0.019-1.389-0.058c-0.451-0.025-0.901-0.07-1.351-0.135c-0.437-0.064-0.875-0.142-1.313-0.231
		c-0.438-0.091-0.869-0.192-1.293-0.31c-0.425-0.115-0.849-0.243-1.274-0.386c-0.412-0.142-0.817-0.303-1.216-0.483
		c-0.399-0.166-0.791-0.347-1.177-0.54c-0.399-0.192-0.785-0.398-1.158-0.617c-0.374-0.219-0.733-0.449-1.081-0.694
		c-0.36-0.245-0.714-0.496-1.062-0.753c-0.334-0.271-0.663-0.547-0.984-0.83c-0.322-0.284-0.637-0.573-0.946-0.868
		c-0.309-0.309-0.605-0.625-0.888-0.946c-0.283-0.321-0.554-0.657-0.812-1.004c-0.27-0.335-0.527-0.682-0.772-1.042
		c-0.231-0.36-0.457-0.728-0.675-1.101c-0.219-0.374-0.431-0.753-0.637-1.139c-0.192-0.386-0.373-0.779-0.54-1.178
		c-0.167-0.411-0.322-0.823-0.464-1.235c-0.154-0.413-0.29-0.831-0.405-1.254c-0.116-0.425-0.218-0.856-0.309-1.295
		c-0.09-0.438-0.161-0.882-0.212-1.331c-0.064-0.45-0.116-0.901-0.154-1.353c-0.026-0.449-0.039-0.906-0.039-1.369
		c0-0.593,0.025-1.171,0.077-1.737c0.052-0.58,0.122-1.146,0.213-1.698c0.089-0.554,0.206-1.101,0.347-1.641
		c0.141-0.555,0.308-1.088,0.501-1.604c0.09-0.257,0.187-0.508,0.29-0.752c0.09-0.258,0.192-0.514,0.309-0.772
		c0.231-0.514,0.476-1.01,0.734-1.487c0.27-0.475,0.553-0.938,0.85-1.389c0.309-0.463,0.63-0.906,0.964-1.332
		c0.296-0.372,0.611-0.74,0.946-1.101c0.039-0.051,0.077-0.097,0.116-0.135c0.36-0.399,0.74-0.784,1.139-1.158
		c0.399-0.36,0.811-0.707,1.236-1.042c0.424-0.348,0.861-0.67,1.312-0.966c-0.592-0.334-1.177-0.675-1.756-1.022
		c-0.592-0.348-1.171-0.707-1.737-1.082c-0.566-0.358-1.133-0.732-1.699-1.118c-0.566-0.386-1.12-0.785-1.661-1.196
		c-0.552-0.399-1.093-0.812-1.622-1.236c-0.54-0.424-1.074-0.855-1.602-1.293c-0.515-0.438-1.029-0.881-1.544-1.332
		c-0.515-0.463-1.017-0.933-1.505-1.409c-0.489-0.463-0.978-0.939-1.467-1.428c-0.489-0.49-0.958-0.984-1.409-1.486
		c-0.463-0.502-0.92-1.017-1.37-1.544c-0.451-0.515-0.895-1.043-1.333-1.583c-0.759-0.939-1.492-1.904-2.2-2.895
		c-0.708-0.978-1.384-1.976-2.027-2.992c-0.644-1.029-1.262-2.072-1.854-3.127c-0.592-1.055-1.151-2.123-1.679-3.204
		c-0.515-1.081-1.01-2.181-1.486-3.301c-0.464-1.106-0.896-2.227-1.294-3.358c-0.399-1.132-0.766-2.278-1.1-3.437
		c-0.347-1.171-0.656-2.342-0.926-3.513c-0.271-1.171-0.509-2.355-0.714-3.551c-0.206-1.184-0.379-2.375-0.521-3.571
		c-0.128-1.197-0.231-2.407-0.309-3.629c-0.064-1.209-0.097-2.426-0.097-3.648v-6.428H145.9v-57.58H152.328z M134.203,158.846
		c-0.31-0.037-0.618-0.063-0.927-0.076c-0.309-0.027-0.625-0.039-0.946-0.039c-0.309,0-0.618,0.012-0.927,0.039
		c-0.321,0.013-0.63,0.039-0.926,0.076c-0.309,0.053-0.611,0.104-0.907,0.155c-0.296,0.063-0.592,0.136-0.889,0.212
		c-0.282,0.078-0.566,0.168-0.848,0.271c-0.284,0.103-0.56,0.212-0.831,0.329c-0.283,0.115-0.553,0.237-0.81,0.366
		c-0.271,0.127-0.528,0.271-0.772,0.425c-0.258,0.14-0.509,0.296-0.753,0.462c-0.245,0.168-0.483,0.342-0.714,0.521
		c-0.463,0.36-0.901,0.747-1.313,1.157c-0.412,0.412-0.798,0.851-1.158,1.314c-0.18,0.23-0.354,0.469-0.521,0.714
		c-0.167,0.244-0.322,0.496-0.463,0.753c-0.155,0.244-0.296,0.501-0.425,0.772c-0.128,0.257-0.25,0.527-0.366,0.81
		c-0.116,0.271-0.226,0.547-0.328,0.831c-0.103,0.283-0.193,0.566-0.271,0.849c-0.078,0.297-0.148,0.592-0.212,0.889
		c-0.052,0.295-0.103,0.599-0.155,0.907c-0.039,0.295-0.064,0.604-0.077,0.927c-0.026,0.309-0.039,0.616-0.039,0.926
		c0,0.477,0.026,0.946,0.077,1.408c0.039,0.464,0.103,0.915,0.193,1.353c0.089,0.45,0.206,0.894,0.347,1.331
		c0.128,0.426,0.283,0.843,0.463,1.256c0.167,0.398,0.36,0.797,0.579,1.195c0.206,0.387,0.431,0.76,0.675,1.12
		c0.245,0.374,0.509,0.728,0.792,1.063c0.283,0.333,0.579,0.662,0.888,0.983c0.309,0.31,0.63,0.599,0.965,0.868
		c0.347,0.283,0.701,0.548,1.062,0.792c0.36,0.257,0.74,0.489,1.139,0.694c0.386,0.206,0.785,0.399,1.196,0.579
		c0.399,0.168,0.817,0.322,1.254,0.464c0.438,0.128,0.875,0.238,1.313,0.328c0.45,0.09,0.907,0.16,1.37,0.213
		c0.463,0.052,0.926,0.077,1.39,0.077c0.321,0,0.637-0.014,0.946-0.039c0.309-0.025,0.617-0.059,0.927-0.097
		c0.296-0.039,0.592-0.09,0.888-0.154c0.309-0.064,0.605-0.135,0.888-0.212c0.296-0.078,0.586-0.168,0.869-0.271
		c0.271-0.09,0.547-0.193,0.831-0.31c0.27-0.114,0.54-0.237,0.81-0.366c0.258-0.142,0.515-0.283,0.772-0.424
		c0.245-0.154,0.49-0.316,0.734-0.483s0.482-0.335,0.714-0.503c0.463-0.36,0.907-0.745,1.332-1.157
		c0.412-0.425,0.798-0.868,1.159-1.331c0.166-0.232,0.333-0.471,0.501-0.715c0.167-0.245,0.328-0.489,0.482-0.733
		c0.142-0.258,0.283-0.516,0.425-0.771c0.129-0.271,0.251-0.541,0.367-0.811c0.115-0.284,0.219-0.561,0.309-0.83
		c0.103-0.284,0.193-0.574,0.27-0.869c0.078-0.283,0.148-0.579,0.212-0.888c0.064-0.297,0.117-0.593,0.155-0.889
		c0.038-0.309,0.07-0.618,0.097-0.926c0.012-0.31,0.025-0.626,0.038-0.946c-0.013-0.31-0.026-0.617-0.038-0.926
		c-0.026-0.322-0.059-0.632-0.097-0.927c-0.039-0.309-0.091-0.612-0.155-0.907c-0.063-0.297-0.134-0.592-0.212-0.889
		c-0.077-0.282-0.167-0.565-0.27-0.849c-0.09-0.284-0.193-0.561-0.309-0.831c-0.116-0.282-0.238-0.553-0.367-0.81
		c-0.142-0.271-0.283-0.528-0.425-0.772c-0.154-0.257-0.315-0.509-0.482-0.753c-0.168-0.245-0.335-0.483-0.501-0.714
		c-0.361-0.464-0.747-0.902-1.159-1.314c-0.271-0.255-0.541-0.5-0.811-0.732c-0.18-0.154-0.354-0.295-0.521-0.425
		c-0.232-0.18-0.47-0.354-0.714-0.521c-0.244-0.166-0.489-0.322-0.734-0.462c-0.257-0.154-0.514-0.298-0.772-0.425
		c-0.271-0.129-0.54-0.251-0.81-0.366c-0.129-0.052-0.258-0.105-0.386-0.155c-0.155-0.064-0.303-0.122-0.444-0.174
		c-0.283-0.103-0.573-0.192-0.869-0.271c-0.283-0.076-0.579-0.148-0.888-0.212C134.794,158.95,134.499,158.898,134.203,158.846z
		 M173.967,158.846c-0.31-0.037-0.618-0.063-0.928-0.076c-0.308-0.027-0.624-0.039-0.946-0.039c-0.307,0-0.616,0.012-0.925,0.039
		c-0.322,0.013-0.632,0.039-0.927,0.076c-0.31,0.053-0.611,0.104-0.907,0.155c-0.297,0.063-0.592,0.136-0.889,0.212
		c-0.282,0.078-0.566,0.168-0.85,0.271c-0.154,0.052-0.301,0.109-0.443,0.174c-0.128,0.05-0.258,0.104-0.386,0.155
		c-0.283,0.115-0.554,0.237-0.812,0.366c-0.271,0.127-0.527,0.271-0.772,0.425c-0.257,0.14-0.508,0.296-0.751,0.462
		c-0.246,0.168-0.483,0.342-0.716,0.521c-0.167,0.13-0.334,0.271-0.502,0.425c-0.282,0.232-0.553,0.478-0.811,0.732
		c-0.412,0.412-0.797,0.851-1.157,1.314c-0.18,0.23-0.354,0.469-0.521,0.714c-0.167,0.244-0.322,0.496-0.464,0.753
		c-0.154,0.244-0.295,0.501-0.425,0.772c-0.128,0.257-0.251,0.527-0.366,0.81c-0.116,0.271-0.226,0.547-0.329,0.831
		c-0.103,0.283-0.192,0.566-0.269,0.849c-0.078,0.297-0.149,0.592-0.213,0.889c-0.051,0.295-0.103,0.599-0.155,0.907
		c-0.038,0.295-0.063,0.604-0.076,0.927c-0.026,0.309-0.038,0.616-0.038,0.926c0,0.477,0.024,0.946,0.076,1.408
		c0.038,0.464,0.104,0.915,0.193,1.353c0.091,0.45,0.205,0.894,0.349,1.331c0.127,0.426,0.282,0.843,0.462,1.256
		c0.167,0.398,0.36,0.797,0.579,1.195c0.206,0.387,0.432,0.76,0.676,1.12c0.244,0.374,0.509,0.728,0.792,1.063
		c0.282,0.333,0.577,0.662,0.887,0.983c0.31,0.31,0.631,0.599,0.965,0.868c0.348,0.283,0.702,0.548,1.063,0.792
		c0.359,0.257,0.739,0.489,1.139,0.694c0.385,0.206,0.784,0.399,1.196,0.579c0.398,0.168,0.816,0.322,1.255,0.464
		c0.424,0.128,0.862,0.238,1.313,0.328s0.9,0.16,1.351,0.213c0.464,0.052,0.934,0.077,1.408,0.077c0.322,0,0.639-0.014,0.946-0.039
		c0.31-0.025,0.618-0.059,0.928-0.097c0.295-0.039,0.592-0.09,0.887-0.154c0.31-0.064,0.604-0.135,0.889-0.212
		c0.296-0.078,0.585-0.168,0.869-0.271c0.271-0.09,0.547-0.193,0.829-0.31c0.271-0.114,0.54-0.237,0.811-0.366
		c0.257-0.142,0.515-0.283,0.772-0.424c0.244-0.154,0.489-0.316,0.734-0.483c0.244-0.167,0.483-0.335,0.714-0.503
		c0.464-0.36,0.907-0.745,1.332-1.157c0.411-0.425,0.797-0.868,1.157-1.331c0.168-0.232,0.335-0.471,0.502-0.715
		c0.168-0.245,0.322-0.489,0.464-0.733c0.154-0.258,0.296-0.516,0.424-0.771c0.143-0.271,0.271-0.541,0.387-0.811
		c0.115-0.284,0.219-0.561,0.309-0.83c0.103-0.284,0.192-0.574,0.27-0.869c0.078-0.283,0.148-0.579,0.214-0.888
		c0.063-0.297,0.115-0.593,0.154-0.889c0.038-0.309,0.07-0.618,0.096-0.926c0.014-0.31,0.026-0.626,0.038-0.946
		c-0.012-0.31-0.024-0.617-0.038-0.926c-0.025-0.322-0.058-0.632-0.096-0.927c-0.039-0.309-0.092-0.612-0.154-0.907
		c-0.065-0.297-0.136-0.592-0.214-0.889c-0.077-0.282-0.167-0.565-0.27-0.849c-0.09-0.284-0.193-0.561-0.309-0.831
		c-0.116-0.282-0.244-0.553-0.387-0.81c-0.128-0.271-0.27-0.528-0.424-0.772c-0.142-0.257-0.296-0.509-0.464-0.753
		c-0.167-0.245-0.334-0.483-0.502-0.714c-0.36-0.464-0.746-0.902-1.157-1.314c-0.425-0.41-0.868-0.797-1.332-1.157
		c-0.23-0.18-0.47-0.354-0.714-0.521c-0.245-0.166-0.49-0.322-0.734-0.462c-0.258-0.154-0.516-0.298-0.772-0.425
		c-0.271-0.129-0.54-0.251-0.811-0.366c-0.282-0.117-0.559-0.227-0.829-0.329c-0.284-0.103-0.573-0.192-0.869-0.271
		c-0.284-0.076-0.579-0.148-0.889-0.212C174.559,158.95,174.262,158.898,173.967,158.846z M94.747,99.683v0.946
		c0.013,0.167,0.02,0.341,0.02,0.521c0,0.142,0,0.283,0,0.424c0.013,0.219,0.025,0.438,0.039,0.657v0.039
		c0.013,0.129,0.02,0.264,0.02,0.405c0,0.257,0.012,0.508,0.038,0.753c0.013,0.116,0.026,0.238,0.038,0.367v0.154
		c0.013,0.129,0.026,0.264,0.039,0.406c0,0.038,0.007,0.077,0.02,0.116c0.012,0.27,0.032,0.54,0.058,0.811
		c0.013,0.193,0.032,0.393,0.058,0.599c0,0.051,0.006,0.103,0.019,0.154c0.013,0.141,0.026,0.283,0.039,0.424
		c0,0.026,0.007,0.058,0.019,0.097c0,0.039,0.006,0.083,0.02,0.135c0,0.039,0.006,0.084,0.019,0.135
		c0.026,0.219,0.052,0.444,0.078,0.676c0.026,0.18,0.051,0.354,0.078,0.521c0.038,0.296,0.083,0.599,0.135,0.907
		c0.051,0.296,0.103,0.592,0.154,0.888c0.052,0.309,0.11,0.611,0.174,0.908c0.039,0.192,0.078,0.38,0.116,0.56
		c0.245,1.261,0.541,2.496,0.888,3.706c0.321,1.209,0.688,2.413,1.101,3.609c0.424,1.184,0.875,2.349,1.352,3.494
		c0.488,1.145,1.01,2.277,1.563,3.397c0.566,1.106,1.158,2.193,1.775,3.262c0.618,1.055,1.274,2.098,1.969,3.127
		c0.694,1.017,1.421,2.014,2.181,2.992c0.747,0.965,1.525,1.911,2.336,2.837c0.811,0.927,1.647,1.821,2.509,2.683
		c0.875,0.875,1.776,1.718,2.702,2.529c0.927,0.811,1.873,1.595,2.838,2.355c0.978,0.746,1.975,1.466,2.992,2.162
		c1.029,0.682,2.071,1.338,3.126,1.969c1.068,0.617,2.156,1.21,3.262,1.776c1.12,0.553,2.252,1.074,3.397,1.563
		c1.146,0.477,2.31,0.921,3.494,1.333c1.184,0.424,2.387,0.803,3.61,1.138c0.836,0.232,1.679,0.443,2.528,0.638
		c0.386,0.09,0.778,0.173,1.177,0.251c0.167,0.038,0.335,0.07,0.502,0.097c0.965,0.18,1.943,0.348,2.934,0.501
		c0.064,0,0.129,0.007,0.193,0.021c0.052,0,0.104,0.006,0.154,0.019c1.274,0.167,2.567,0.296,3.88,0.387
		c1.299,0.09,2.613,0.135,3.938,0.135c0.089,0,0.18,0,0.27,0l2.297-0.059c0.168,0,0.342-0.007,0.521-0.02
		c1.018-0.05,2.033-0.128,3.05-0.231c0.322-0.038,0.645-0.076,0.966-0.115l0.309-0.039c0.115-0.013,0.231-0.025,0.347-0.038
		c0.014-0.014,0.033-0.02,0.059-0.02c0.013,0,0.031,0,0.059,0l1.061-0.154c0.065-0.014,0.129-0.025,0.192-0.038
		c0.13-0.027,0.252-0.046,0.367-0.059l1.236-0.212c0.295-0.064,0.585-0.123,0.869-0.174c0.32-0.064,0.648-0.136,0.983-0.213
		c0.913-0.205,1.82-0.432,2.722-0.676c0.193-0.051,0.38-0.102,0.561-0.154l1.698-0.521c0.077-0.025,0.154-0.052,0.231-0.076
		l1.023-0.348c0.025-0.014,0.058-0.026,0.096-0.038l1.563-0.562c0.026-0.012,0.058-0.025,0.098-0.037
		c0.398-0.154,0.798-0.31,1.196-0.464l0.482-0.192c0.052-0.025,0.103-0.052,0.154-0.078c0.425-0.18,0.85-0.367,1.275-0.559
		l1.697-0.793c0.18-0.09,0.36-0.18,0.54-0.27c0.167-0.09,0.328-0.174,0.482-0.251l1.757-0.946c0.297-0.18,0.592-0.354,0.889-0.521
		c0.09-0.052,0.181-0.103,0.27-0.154l1.197-0.733c0.153-0.09,0.302-0.181,0.444-0.271c0.127-0.09,0.263-0.174,0.403-0.25l0.465-0.31
		c0.115-0.09,0.238-0.174,0.367-0.25c0.192-0.129,0.386-0.265,0.578-0.406l0.58-0.405c0.617-0.438,1.229-0.888,1.834-1.351
		c0.965-0.76,1.911-1.544,2.837-2.355c0.926-0.811,1.821-1.653,2.684-2.529c0.874-0.862,1.718-1.756,2.528-2.683
		c0.81-0.926,1.589-1.872,2.336-2.837c0.76-0.978,1.486-1.976,2.181-2.992c0.682-1.029,1.338-2.072,1.969-3.127
		c0.618-1.068,1.21-2.156,1.776-3.262c0.553-1.12,1.074-2.253,1.563-3.397c0.476-1.146,0.92-2.311,1.331-3.494
		c0.412-1.197,0.785-2.4,1.12-3.609c0.335-1.21,0.63-2.445,0.888-3.706c0.052-0.245,0.103-0.496,0.155-0.753l0.076-0.424
		c0.026-0.116,0.045-0.225,0.06-0.328c0.05-0.296,0.103-0.598,0.152-0.907c0.026-0.128,0.046-0.251,0.059-0.367l0.077-0.443
		c0-0.026,0-0.051,0-0.078c0.025-0.167,0.052-0.328,0.078-0.482c0.142-1.107,0.257-2.226,0.347-3.359l0.038-0.521
		c0.013-0.063,0.02-0.134,0.02-0.212c0-0.077,0.008-0.154,0.02-0.231c0.051-1.003,0.084-2.007,0.097-3.012v-0.482h0.019
		c0-0.991-0.024-1.976-0.077-2.953c-0.05-0.991-0.122-1.969-0.212-2.934c-0.103-0.965-0.226-1.924-0.366-2.876
		c-0.154-0.965-0.322-1.911-0.502-2.837c-0.193-0.939-0.412-1.873-0.656-2.799c-0.232-0.914-0.489-1.821-0.772-2.722
		c-0.283-0.901-0.586-1.795-0.906-2.683c-0.322-0.888-0.664-1.757-1.024-2.606c-0.372-0.862-0.76-1.711-1.158-2.548
		c-0.398-0.849-0.822-1.68-1.273-2.49c-0.438-0.811-0.901-1.615-1.39-2.413c-0.476-0.798-0.972-1.577-1.487-2.336
		c-0.527-0.759-1.062-1.512-1.602-2.258c-0.566-0.747-1.139-1.474-1.718-2.182s-1.185-1.403-1.815-2.085
		c-0.616-0.682-1.254-1.345-1.91-1.988c-0.644-0.656-1.306-1.293-1.987-1.911c-0.683-0.63-1.378-1.235-2.085-1.814
		c-0.722-0.579-1.448-1.145-2.182-1.698c-0.747-0.566-1.499-1.107-2.259-1.621c-0.759-0.515-1.537-1.011-2.336-1.487
		c-0.798-0.488-1.602-0.952-2.412-1.389c-0.811-0.451-1.641-0.875-2.49-1.274c-0.836-0.399-1.686-0.786-2.548-1.158
		c-0.862-0.361-1.73-0.701-2.605-1.023c-0.888-0.321-1.783-0.624-2.684-0.907c-0.901-0.283-1.808-0.54-2.722-0.772
		c-0.927-0.245-1.859-0.457-2.799-0.637c-0.927-0.192-1.873-0.367-2.838-0.521c-0.952-0.141-1.91-0.263-2.875-0.366
		c-0.065,0-0.13-0.006-0.193-0.02c-0.49-0.038-0.973-0.077-1.448-0.116c-0.374-0.026-0.753-0.045-1.139-0.058
		c-0.039-0.013-0.083-0.02-0.137-0.02c-0.282-0.013-0.559-0.025-0.829-0.039c-0.283-0.013-0.565-0.019-0.849-0.019
		c-0.27-0.013-0.541-0.02-0.811-0.02c-0.051,0-0.097,0-0.137,0c-0.063,0-0.121,0-0.173,0c-0.064,0-0.122,0-0.173,0v57.58H94.747z
		 M153.949,163.672h-3.456c0.207,0.425,0.399,0.861,0.579,1.312c0.167,0.438,0.329,0.889,0.482,1.353
		c0.143,0.45,0.271,0.907,0.387,1.37c0.104,0.477,0.193,0.946,0.271,1.408c0.09-0.462,0.187-0.932,0.29-1.408
		c0.115-0.463,0.244-0.92,0.386-1.37c0.142-0.451,0.303-0.901,0.483-1.353C153.55,164.533,153.744,164.097,153.949,163.672z"/>
	<path fill-rule="evenodd" clip-rule="evenodd" fill="#054751" d="M88.319,97.425v2.239c0,1.223,0.032,2.439,0.097,3.648
		c0.077,1.222,0.181,2.432,0.309,3.629c0.142,1.197,0.315,2.387,0.521,3.571c0.206,1.196,0.444,2.38,0.714,3.551
		c0.27,1.171,0.579,2.342,0.926,3.513c0.334,1.159,0.701,2.304,1.1,3.437c0.398,1.132,0.83,2.252,1.294,3.358
		c0.476,1.12,0.971,2.22,1.486,3.301c0.528,1.081,1.087,2.149,1.679,3.204c0.592,1.056,1.209,2.098,1.854,3.127
		c0.643,1.017,1.319,2.014,2.027,2.992c0.708,0.991,1.44,1.956,2.2,2.895c0.438,0.541,0.881,1.068,1.333,1.583
		c0.45,0.527,0.907,1.042,1.37,1.544c0.451,0.502,0.92,0.997,1.409,1.486c0.489,0.489,0.978,0.965,1.467,1.428
		c0.488,0.476,0.991,0.946,1.505,1.409c0.515,0.451,1.03,0.895,1.544,1.332c0.527,0.438,1.062,0.87,1.602,1.293
		c0.528,0.425,1.069,0.837,1.622,1.236c0.541,0.411,1.094,0.811,1.661,1.196c0.566,0.386,1.132,0.76,1.699,1.118
		c0.565,0.375,1.145,0.734,1.737,1.082c0.579,0.348,1.165,0.688,1.756,1.022c-0.45,0.296-0.888,0.618-1.312,0.966
		c-0.425,0.335-0.837,0.682-1.236,1.042c-0.398,0.374-0.778,0.759-1.139,1.158c-0.039,0.038-0.077,0.084-0.116,0.135
		c-0.077-0.051-0.155-0.097-0.231-0.135c-0.592-0.348-1.171-0.706-1.738-1.081c-0.566-0.36-1.132-0.733-1.698-1.119
		c-0.566-0.386-1.12-0.785-1.66-1.196c-0.554-0.399-1.094-0.813-1.622-1.236c-0.54-0.425-1.074-0.856-1.602-1.293
		c-0.515-0.438-1.029-0.888-1.544-1.351c-0.515-0.451-1.016-0.914-1.505-1.391c-0.489-0.463-0.978-0.939-1.467-1.428
		c-0.489-0.489-0.958-0.984-1.409-1.486c-0.463-0.515-0.92-1.029-1.371-1.544c-0.45-0.515-0.895-1.043-1.332-1.583
		c-0.759-0.939-1.493-1.905-2.201-2.896c-0.708-0.991-1.383-1.995-2.027-3.012c-0.643-1.016-1.261-2.052-1.853-3.107
		c-0.592-1.055-1.152-2.124-1.68-3.204c-0.515-1.081-1.01-2.181-1.486-3.3c-0.463-1.107-0.894-2.227-1.293-3.359
		c-0.399-1.133-0.766-2.278-1.101-3.437c-0.347-1.171-0.656-2.342-0.926-3.513s-0.508-2.355-0.714-3.552
		c-0.206-1.184-0.38-2.375-0.521-3.571c-0.128-1.184-0.225-2.368-0.29-3.551c-0.012-0.026-0.019-0.052-0.019-0.078
		c-0.013-0.296-0.026-0.592-0.039-0.888c-0.039-0.914-0.058-1.834-0.058-2.76v-6.428H88.319z M94.747,99.683h115.161v0.482
		c0,0.155-0.006,0.309-0.019,0.464c0,0.309-0.007,0.617-0.021,0.926c0,0.309-0.013,0.618-0.039,0.927
		c-0.012,0.232-0.019,0.463-0.019,0.695c-0.012,0.077-0.02,0.155-0.02,0.231c0,0.078-0.007,0.148-0.02,0.212l-0.038,0.521
		c-0.013,0.064-0.019,0.129-0.019,0.193c-0.027,0.309-0.052,0.611-0.078,0.907c-0.025,0.309-0.058,0.618-0.096,0.927
		c-0.039,0.296-0.078,0.598-0.117,0.907c-0.037,0.296-0.077,0.599-0.115,0.907c0,0.026,0,0.052,0,0.078l-0.077,0.443
		c-0.013,0.116-0.032,0.239-0.059,0.367c-0.05,0.309-0.103,0.611-0.152,0.907c-0.015,0.103-0.033,0.212-0.06,0.328l-0.076,0.424
		c-0.014,0.052-0.026,0.097-0.039,0.135c-0.438-0.154-0.855-0.328-1.255-0.521c-0.399-0.218-0.778-0.457-1.139-0.713
		c-0.373-0.271-0.721-0.56-1.043-0.869c-0.31-0.322-0.604-0.657-0.887-1.004c-0.271-0.36-0.509-0.74-0.715-1.139
		c-0.219-0.399-0.405-0.811-0.56-1.236c-0.104,0.284-0.219,0.56-0.348,0.831c-0.129,0.283-0.276,0.553-0.444,0.81
		c-0.154,0.257-0.321,0.508-0.502,0.753c-0.18,0.231-0.372,0.463-0.579,0.694c-0.425,0.438-0.881,0.836-1.371,1.197
		c-0.244,0.167-0.494,0.328-0.751,0.482c-0.271,0.154-0.542,0.29-0.812,0.405c-0.283,0.128-0.572,0.245-0.869,0.347
		c-0.296,0.09-0.598,0.167-0.906,0.232c-0.297,0.064-0.605,0.115-0.928,0.154c-0.321,0.026-0.644,0.045-0.965,0.058
		c-0.321-0.013-0.644-0.032-0.965-0.058c-0.321-0.039-0.631-0.09-0.926-0.154c-0.31-0.064-0.612-0.142-0.908-0.232
		c-0.296-0.103-0.585-0.219-0.868-0.347c-0.271-0.115-0.54-0.251-0.811-0.405c-0.258-0.155-0.51-0.315-0.754-0.482
		c-0.502-0.361-0.958-0.76-1.37-1.197c-0.206-0.231-0.398-0.463-0.579-0.694c-0.18-0.245-0.347-0.496-0.502-0.753
		c-0.166-0.257-0.315-0.527-0.443-0.81c-0.129-0.271-0.244-0.547-0.348-0.831c-0.104,0.284-0.219,0.56-0.348,0.831
		c-0.142,0.283-0.289,0.553-0.443,0.81s-0.322,0.508-0.502,0.753c-0.194,0.231-0.387,0.463-0.579,0.694
		c-0.412,0.438-0.868,0.836-1.37,1.197c-0.246,0.167-0.496,0.328-0.754,0.482c-0.271,0.154-0.547,0.29-0.829,0.405
		c-0.271,0.128-0.555,0.245-0.85,0.347c-0.297,0.09-0.599,0.167-0.908,0.232c-0.309,0.064-0.618,0.115-0.925,0.154
		c-0.322,0.026-0.646,0.045-0.966,0.058c-0.322-0.013-0.645-0.032-0.966-0.058c-0.321-0.039-0.631-0.09-0.926-0.154
		c-0.31-0.064-0.611-0.142-0.907-0.232c-0.297-0.103-0.58-0.219-0.851-0.347c-0.282-0.115-0.559-0.251-0.829-0.405
		c-0.258-0.155-0.508-0.315-0.754-0.482c-0.502-0.361-0.958-0.76-1.37-1.197c-0.192-0.231-0.385-0.463-0.578-0.694
		c-0.181-0.245-0.348-0.496-0.502-0.753c-0.155-0.257-0.303-0.527-0.443-0.81c-0.13-0.271-0.245-0.547-0.348-0.831
		c-0.104,0.284-0.22,0.56-0.349,0.831c-0.141,0.283-0.289,0.553-0.443,0.81s-0.321,0.508-0.501,0.753
		c-0.194,0.231-0.388,0.463-0.58,0.694c-0.412,0.438-0.868,0.836-1.37,1.197c-0.245,0.167-0.496,0.328-0.754,0.482
		c-0.27,0.154-0.546,0.29-0.829,0.405c-0.27,0.128-0.554,0.245-0.85,0.347c-0.296,0.09-0.599,0.167-0.907,0.232
		c-0.296,0.064-0.605,0.115-0.926,0.154c-0.322,0.026-0.645,0.045-0.966,0.058c-0.321-0.013-0.643-0.032-0.966-0.058
		c-0.308-0.039-0.617-0.09-0.926-0.154c-0.31-0.064-0.611-0.142-0.907-0.232c-0.295-0.103-0.58-0.219-0.851-0.347
		c-0.282-0.115-0.559-0.251-0.828-0.405c-0.258-0.155-0.509-0.315-0.753-0.482c-0.502-0.361-0.953-0.76-1.352-1.197
		c-0.206-0.231-0.405-0.463-0.599-0.694c-0.181-0.245-0.348-0.496-0.501-0.753c-0.155-0.257-0.304-0.527-0.445-0.81
		c-0.128-0.271-0.244-0.547-0.347-0.831c-0.104,0.284-0.219,0.56-0.348,0.831c-0.129,0.283-0.276,0.553-0.444,0.81
		c-0.154,0.257-0.321,0.508-0.502,0.753c-0.18,0.231-0.373,0.463-0.579,0.694c-0.412,0.438-0.868,0.836-1.37,1.197
		c-0.245,0.167-0.496,0.328-0.753,0.482c-0.27,0.154-0.541,0.29-0.811,0.405c-0.282,0.128-0.572,0.245-0.869,0.347
		c-0.296,0.09-0.591,0.167-0.887,0.232c-0.309,0.064-0.625,0.115-0.946,0.154c-0.309,0.026-0.63,0.045-0.965,0.058
		c-0.321-0.013-0.643-0.032-0.965-0.058c-0.308-0.039-0.617-0.09-0.926-0.154c-0.309-0.064-0.611-0.142-0.907-0.232
		c-0.296-0.103-0.58-0.219-0.85-0.347c-0.283-0.115-0.56-0.251-0.83-0.405c-0.258-0.155-0.509-0.315-0.753-0.482
		c-0.489-0.361-0.939-0.76-1.351-1.197c-0.206-0.231-0.405-0.463-0.599-0.694c-0.18-0.245-0.347-0.496-0.501-0.753
		c-0.155-0.257-0.296-0.527-0.425-0.81c-0.141-0.271-0.263-0.547-0.367-0.831c-0.103,0.284-0.219,0.56-0.348,0.831
		c-0.128,0.283-0.276,0.553-0.444,0.81c-0.155,0.257-0.321,0.508-0.502,0.753c-0.18,0.231-0.373,0.463-0.579,0.694
		c-0.412,0.438-0.869,0.836-1.371,1.197c-0.244,0.167-0.495,0.328-0.752,0.482c-0.271,0.154-0.541,0.29-0.811,0.405
		c-0.284,0.128-0.573,0.245-0.869,0.347c-0.296,0.09-0.592,0.167-0.888,0.232c-0.309,0.064-0.624,0.115-0.945,0.154
		c-0.322,0.026-0.644,0.045-0.966,0.058c-0.321-0.013-0.644-0.032-0.965-0.058c-0.309-0.039-0.618-0.09-0.927-0.154
		c-0.309-0.064-0.611-0.142-0.907-0.232c-0.295-0.103-0.579-0.219-0.849-0.347c-0.284-0.115-0.56-0.251-0.831-0.405
		c-0.257-0.155-0.508-0.315-0.752-0.482c-0.489-0.361-0.939-0.76-1.351-1.197c-0.206-0.231-0.406-0.463-0.599-0.694
		c-0.18-0.245-0.347-0.496-0.502-0.753c-0.154-0.257-0.296-0.527-0.424-0.81c-0.142-0.271-0.264-0.547-0.367-0.831
		c-0.103,0.284-0.219,0.56-0.348,0.831c-0.128,0.283-0.277,0.553-0.443,0.81c-0.155,0.257-0.322,0.508-0.502,0.753
		c-0.18,0.231-0.374,0.463-0.579,0.694c-0.413,0.438-0.862,0.836-1.352,1.197c-0.245,0.167-0.502,0.328-0.771,0.482
		c-0.271,0.154-0.541,0.29-0.812,0.405c-0.283,0.128-0.573,0.245-0.868,0.347c-0.296,0.09-0.592,0.167-0.888,0.232
		c-0.309,0.064-0.625,0.115-0.946,0.154c-0.167,0.014-0.328,0.026-0.482,0.039c-0.167,0.013-0.328,0.02-0.482,0.02
		c-0.322-0.013-0.644-0.032-0.966-0.058c-0.308-0.039-0.617-0.09-0.925-0.154c-0.31-0.064-0.612-0.142-0.908-0.232
		c-0.296-0.103-0.579-0.219-0.85-0.347c-0.282-0.115-0.552-0.251-0.81-0.405c-0.271-0.155-0.529-0.315-0.772-0.482
		c-0.489-0.361-0.94-0.76-1.352-1.197c-0.206-0.231-0.405-0.463-0.598-0.694c-0.181-0.245-0.348-0.496-0.502-0.753
		c-0.155-0.257-0.302-0.527-0.444-0.81c-0.128-0.271-0.244-0.547-0.348-0.831c-0.154,0.438-0.341,0.856-0.56,1.254
		c-0.219,0.399-0.469,0.786-0.753,1.158c-0.283,0.361-0.585,0.702-0.908,1.023c-0.333,0.309-0.688,0.599-1.061,0.869
		c-0.374,0.27-0.766,0.508-1.178,0.714c-0.412,0.206-0.842,0.379-1.293,0.521c-0.064-0.296-0.122-0.599-0.174-0.908
		c-0.051-0.296-0.103-0.592-0.154-0.888c-0.052-0.309-0.097-0.611-0.135-0.907c-0.026-0.167-0.052-0.341-0.078-0.521
		c-0.013-0.129-0.026-0.257-0.039-0.386c-0.013-0.103-0.026-0.199-0.039-0.29c-0.013-0.051-0.019-0.096-0.019-0.135
		c-0.013-0.051-0.02-0.096-0.02-0.135c-0.012-0.039-0.019-0.071-0.019-0.097c0-0.09-0.006-0.18-0.02-0.27
		c-0.012-0.051-0.019-0.103-0.019-0.154c-0.013-0.052-0.019-0.103-0.019-0.154c-0.026-0.206-0.045-0.406-0.058-0.599
		c-0.026-0.271-0.045-0.541-0.058-0.811c-0.013-0.039-0.02-0.078-0.02-0.116c-0.013-0.142-0.026-0.277-0.039-0.406v-0.154
		c-0.012-0.129-0.025-0.251-0.038-0.367c-0.026-0.245-0.038-0.496-0.038-0.753c0-0.051,0-0.109,0-0.174
		c-0.014-0.077-0.02-0.154-0.02-0.231v-0.039c-0.013-0.219-0.025-0.438-0.039-0.657c0-0.141,0-0.283,0-0.424
		c0-0.18-0.006-0.354-0.02-0.521V99.683z M145.9,39.844v53.392h-2.278V39.844H145.9z M207.38,132.382
		c-0.464,0.927-0.953,1.847-1.467,2.76c-0.593,1.055-1.217,2.091-1.873,3.108c-0.643,1.029-1.319,2.033-2.026,3.011
		c-0.708,0.991-1.447,1.956-2.22,2.896c-0.438,0.54-0.882,1.074-1.333,1.602c-0.45,0.515-0.907,1.023-1.37,1.525
		s-0.939,0.998-1.428,1.486c-0.478,0.49-0.965,0.972-1.468,1.448c-0.489,0.464-0.99,0.927-1.505,1.39
		c-0.515,0.451-1.029,0.895-1.545,1.332c-0.526,0.438-1.062,0.869-1.603,1.294c-0.54,0.424-1.08,0.836-1.622,1.234
		c-0.552,0.412-1.111,0.812-1.678,1.196c-0.296,0.206-0.592,0.406-0.888,0.6c-0.04-0.038-0.078-0.071-0.117-0.097
		c-0.308-0.27-0.623-0.527-0.945-0.772c-0.321-0.244-0.649-0.477-0.984-0.695c0.592-0.334,1.185-0.675,1.776-1.022
		c0.579-0.348,1.158-0.708,1.737-1.081c0.566-0.359,1.132-0.733,1.698-1.119c0.566-0.387,1.125-0.785,1.68-1.197
		c0.539-0.398,1.08-0.811,1.621-1.234c0.54-0.426,1.075-0.857,1.602-1.294c0.516-0.438,1.03-0.881,1.544-1.332
		c0.516-0.463,1.018-0.927,1.507-1.39c0.502-0.476,0.99-0.958,1.467-1.448c0.489-0.489,0.966-0.984,1.429-1.486
		c0.462-0.502,0.92-1.01,1.37-1.524c0.45-0.527,0.895-1.056,1.332-1.583c0.772-0.953,1.513-1.917,2.22-2.896
		c0.708-0.991,1.384-1.995,2.026-3.012C206.679,133.514,207.032,132.948,207.38,132.382z M176.842,169.694
		c0.232,0.399,0.413,0.837,0.541,1.313c0.064,0.22,0.116,0.45,0.154,0.695c0.026,0.245,0.039,0.495,0.039,0.753
		c0,0.257-0.013,0.508-0.039,0.752c-0.038,0.245-0.09,0.482-0.154,0.715c-0.128,0.463-0.309,0.895-0.541,1.293
		c-0.245,0.412-0.533,0.785-0.868,1.12c-0.335,0.334-0.708,0.624-1.12,0.868c-0.398,0.232-0.829,0.412-1.293,0.54
		c-0.23,0.064-0.47,0.116-0.714,0.154c-0.244,0.026-0.496,0.038-0.754,0.038c-0.372,0-0.739-0.03-1.1-0.096
		c-0.36-0.077-0.707-0.187-1.043-0.328c-0.32-0.142-0.63-0.309-0.925-0.501c-0.283-0.207-0.554-0.432-0.812-0.676
		c-0.244-0.245-0.469-0.515-0.675-0.812c-0.194-0.295-0.361-0.604-0.502-0.926c-0.143-0.335-0.245-0.682-0.31-1.042
		c-0.077-0.361-0.115-0.728-0.115-1.101c0-0.258,0.019-0.508,0.057-0.753c0.027-0.245,0.072-0.476,0.136-0.695
		c0.129-0.476,0.316-0.913,0.559-1.313c0.232-0.412,0.516-0.784,0.851-1.12c0.334-0.334,0.709-0.617,1.12-0.849
		c0.398-0.245,0.836-0.432,1.313-0.56c0.231-0.064,0.47-0.109,0.714-0.136c0.23-0.038,0.476-0.058,0.732-0.058
		c0.258,0,0.51,0.02,0.754,0.058c0.244,0.026,0.483,0.071,0.714,0.136c0.464,0.128,0.895,0.314,1.293,0.56
		c0.412,0.231,0.785,0.515,1.12,0.849C176.309,168.91,176.597,169.282,176.842,169.694z M185.394,187.55
		c0.321-0.284,0.638-0.573,0.946-0.868c0.309-0.309,0.604-0.625,0.887-0.946c0.284-0.321,0.554-0.657,0.812-1.004
		c0.18-0.22,0.354-0.443,0.521-0.676c-0.063,0.129-0.122,0.264-0.173,0.405c-0.168,0.398-0.348,0.792-0.54,1.178
		c-0.207,0.386-0.418,0.766-0.638,1.14c-0.219,0.372-0.45,0.739-0.695,1.099c-0.232,0.361-0.481,0.708-0.753,1.043
		c-0.258,0.335-0.528,0.669-0.811,1.004c-0.282,0.322-0.579,0.63-0.887,0.927c-0.31,0.308-0.624,0.605-0.946,0.888
		c-0.322,0.283-0.651,0.561-0.985,0.83c-0.348,0.258-0.701,0.508-1.062,0.753c-0.348,0.244-0.707,0.476-1.08,0.694
		c-0.374,0.219-0.754,0.424-1.14,0.618c-0.398,0.193-0.798,0.373-1.195,0.54c-0.399,0.18-0.806,0.341-1.218,0.482
		c-0.423,0.142-0.843,0.271-1.255,0.386c-0.437,0.116-0.874,0.219-1.312,0.309c-0.438,0.091-0.876,0.168-1.313,0.232
		c-0.451,0.064-0.901,0.109-1.352,0.135c-0.463,0.038-0.928,0.059-1.39,0.059c-0.412,0-0.824-0.014-1.235-0.038
		c-0.412-0.026-0.817-0.065-1.218-0.116c-0.397-0.052-0.797-0.115-1.195-0.193c-0.399-0.063-0.791-0.147-1.178-0.252
		c-0.385-0.09-0.766-0.192-1.139-0.308c-0.386-0.129-0.76-0.258-1.12-0.387c-0.373-0.141-0.74-0.295-1.1-0.463
		c-0.36-0.153-0.714-0.321-1.062-0.502c-0.334-0.18-0.67-0.366-1.004-0.56c-0.335-0.207-0.663-0.418-0.984-0.637
		c-0.322-0.206-0.638-0.432-0.946-0.675c-0.309-0.232-0.61-0.471-0.908-0.716c-0.294-0.258-0.584-0.521-0.868-0.79
		c-0.271-0.271-0.541-0.548-0.81-0.831c-0.258-0.283-0.509-0.572-0.753-0.869c-0.259-0.295-0.496-0.598-0.715-0.906
		c-0.231-0.322-0.456-0.644-0.676-0.965c-0.205-0.322-0.404-0.657-0.599-1.004c-0.192-0.335-0.373-0.676-0.539-1.023
		c-0.181-0.348-0.349-0.701-0.503-1.062s-0.296-0.727-0.424-1.101c-0.142-0.372-0.265-0.753-0.367-1.139
		c-0.065-0.219-0.123-0.432-0.174-0.637c0.039-0.09,0.077-0.174,0.116-0.251c0.166-0.347,0.328-0.701,0.482-1.062
		c0.154-0.361,0.296-0.728,0.425-1.101c0.142-0.373,0.264-0.753,0.366-1.139c0.116-0.373,0.22-0.753,0.309-1.139
		c0.078-0.387,0.148-0.779,0.213-1.178c0.078,0.398,0.154,0.791,0.231,1.178c0.091,0.386,0.194,0.766,0.309,1.139
		c0.116,0.386,0.238,0.766,0.368,1.139c0.128,0.373,0.27,0.739,0.423,1.101c0.155,0.36,0.321,0.715,0.502,1.062
		c0.168,0.347,0.349,0.689,0.541,1.022c0.194,0.349,0.393,0.683,0.598,1.004c0.22,0.321,0.445,0.644,0.676,0.966
		c0.22,0.309,0.457,0.611,0.716,0.907c0.243,0.295,0.494,0.585,0.752,0.868c0.27,0.283,0.541,0.561,0.811,0.831
		c0.283,0.269,0.572,0.533,0.87,0.79c0.295,0.244,0.598,0.482,0.905,0.715c0.31,0.244,0.624,0.47,0.946,0.676
		c0.321,0.218,0.65,0.431,0.985,0.637c0.333,0.193,0.669,0.38,1.003,0.561c0.348,0.18,0.701,0.346,1.061,0.501
		c0.361,0.167,0.729,0.321,1.102,0.464c0.359,0.128,0.733,0.257,1.119,0.386c0.373,0.115,0.754,0.219,1.139,0.308
		c0.387,0.104,0.778,0.188,1.178,0.252c0.399,0.077,0.799,0.143,1.197,0.192c0.398,0.052,0.804,0.09,1.216,0.116
		s0.823,0.038,1.234,0.038c0.465,0,0.928-0.019,1.391-0.058c0.451-0.025,0.901-0.07,1.352-0.135
		c0.438-0.064,0.875-0.142,1.312-0.231c0.438-0.091,0.876-0.192,1.313-0.31c0.412-0.115,0.831-0.243,1.256-0.386
		c0.412-0.142,0.816-0.303,1.216-0.483c0.398-0.166,0.798-0.347,1.197-0.54c0.386-0.192,0.766-0.398,1.139-0.617
		s0.732-0.449,1.08-0.694c0.361-0.245,0.716-0.496,1.063-0.753C184.744,188.109,185.071,187.833,185.394,187.55z M129.57,167.726
		c0.399-0.245,0.836-0.432,1.312-0.56c0.232-0.064,0.47-0.109,0.715-0.136c0.231-0.038,0.476-0.058,0.733-0.058
		c0.257,0,0.509,0.02,0.753,0.058c0.244,0.026,0.482,0.071,0.714,0.136c0.463,0.128,0.901,0.314,1.313,0.56
		c0.398,0.231,0.766,0.515,1.101,0.849c0.335,0.336,0.624,0.708,0.868,1.12c0.232,0.399,0.412,0.837,0.541,1.313
		c0.065,0.22,0.116,0.45,0.155,0.695c0.026,0.245,0.039,0.495,0.039,0.753c0,0.257-0.013,0.508-0.039,0.752
		c-0.039,0.245-0.09,0.482-0.155,0.715c-0.129,0.463-0.309,0.895-0.541,1.293c-0.244,0.412-0.533,0.785-0.868,1.12
		c-0.335,0.334-0.702,0.624-1.101,0.868c-0.411,0.232-0.849,0.412-1.313,0.54c-0.231,0.064-0.47,0.116-0.714,0.154
		c-0.244,0.026-0.496,0.038-0.753,0.038c-0.374,0-0.74-0.03-1.101-0.096c-0.36-0.077-0.702-0.187-1.023-0.328
		c-0.334-0.142-0.649-0.309-0.946-0.501c-0.283-0.207-0.553-0.432-0.81-0.676c-0.245-0.245-0.47-0.515-0.676-0.812
		c-0.193-0.295-0.36-0.604-0.501-0.926c-0.142-0.335-0.245-0.682-0.309-1.042c-0.077-0.361-0.116-0.728-0.116-1.101
		c0-0.258,0.02-0.508,0.058-0.753c0.026-0.245,0.071-0.476,0.135-0.695c0.129-0.476,0.315-0.913,0.559-1.313
		c0.233-0.412,0.515-0.784,0.85-1.12C128.785,168.24,129.158,167.957,129.57,167.726z M153.949,163.672
		c-0.205,0.425-0.399,0.861-0.578,1.312c-0.181,0.451-0.342,0.901-0.483,1.353c-0.142,0.45-0.271,0.907-0.386,1.37
		c-0.104,0.477-0.2,0.946-0.29,1.408c-0.077-0.462-0.166-0.932-0.271-1.408c-0.116-0.463-0.244-0.92-0.387-1.37
		c-0.153-0.464-0.315-0.914-0.482-1.353c-0.18-0.45-0.373-0.887-0.579-1.312H153.949z M111.059,169.946
		c0.18-0.516,0.379-1.03,0.598-1.545c0.232-0.502,0.476-0.991,0.734-1.468c0.27-0.476,0.553-0.938,0.849-1.389
		c0.129-0.181,0.257-0.36,0.386-0.541c-0.103,0.244-0.2,0.495-0.29,0.752c-0.193,0.516-0.36,1.049-0.501,1.604
		c-0.142,0.54-0.258,1.087-0.347,1.641c-0.091,0.553-0.161,1.118-0.213,1.698c-0.052,0.566-0.077,1.145-0.077,1.737
		c0,0.463,0.013,0.92,0.039,1.369c0.039,0.451,0.09,0.902,0.154,1.353c0.052,0.449,0.123,0.894,0.212,1.331
		c0.09,0.438,0.193,0.87,0.309,1.295c0.116,0.423,0.251,0.841,0.405,1.254c0.142,0.412,0.296,0.824,0.464,1.235
		c0.167,0.398,0.348,0.792,0.54,1.178c0.206,0.386,0.418,0.765,0.637,1.139c0.219,0.373,0.444,0.74,0.675,1.101
		c0.245,0.36,0.502,0.707,0.772,1.042c0.257,0.347,0.528,0.683,0.812,1.004c0.283,0.321,0.579,0.638,0.888,0.946
		c0.309,0.295,0.624,0.584,0.946,0.868c0.321,0.283,0.65,0.56,0.984,0.83c0.347,0.257,0.701,0.508,1.062,0.753
		c0.348,0.245,0.708,0.476,1.081,0.694c0.373,0.219,0.759,0.425,1.158,0.617c0.386,0.193,0.778,0.374,1.177,0.54
		c0.399,0.181,0.804,0.342,1.216,0.483c0.425,0.143,0.849,0.271,1.274,0.386c0.424,0.117,0.855,0.219,1.293,0.31
		c0.438,0.09,0.875,0.167,1.313,0.231c0.45,0.064,0.9,0.109,1.351,0.135c0.463,0.039,0.927,0.058,1.389,0.058
		c0.413,0,0.824-0.012,1.236-0.038s0.817-0.064,1.216-0.116c0.412-0.05,0.811-0.115,1.197-0.192
		c0.398-0.064,0.792-0.147,1.177-0.252c0.386-0.089,0.772-0.192,1.159-0.308c0.373-0.129,0.746-0.258,1.12-0.386
		c0.36-0.143,0.721-0.297,1.081-0.464c0.36-0.155,0.714-0.321,1.062-0.501c0.347-0.181,0.688-0.367,1.023-0.561
		c0.335-0.206,0.663-0.419,0.984-0.637c0.309-0.206,0.625-0.432,0.946-0.676c0.296-0.232,0.592-0.471,0.888-0.715
		c0.296-0.257,0.586-0.521,0.868-0.79c0.271-0.271,0.541-0.548,0.811-0.831c0.257-0.283,0.508-0.573,0.753-0.868
		c0.257-0.296,0.501-0.599,0.734-0.907c0.064-0.092,0.128-0.181,0.193-0.271c-0.051,0.13-0.109,0.264-0.174,0.406
		c-0.155,0.36-0.315,0.714-0.482,1.062c-0.18,0.348-0.367,0.688-0.56,1.023c-0.193,0.347-0.393,0.682-0.598,1.004
		c-0.219,0.321-0.444,0.643-0.676,0.965c-0.231,0.309-0.469,0.611-0.713,0.906c-0.245,0.297-0.496,0.586-0.752,0.869
		c-0.271,0.283-0.541,0.56-0.812,0.831c-0.283,0.27-0.572,0.532-0.868,0.79c-0.296,0.245-0.592,0.483-0.888,0.716
		c-0.321,0.243-0.637,0.469-0.946,0.675c-0.321,0.219-0.649,0.43-0.984,0.637c-0.334,0.193-0.675,0.38-1.022,0.56
		c-0.347,0.181-0.702,0.349-1.062,0.502c-0.36,0.168-0.721,0.322-1.081,0.463c-0.374,0.129-0.746,0.258-1.12,0.387
		c-0.386,0.115-0.772,0.218-1.158,0.308c-0.386,0.104-0.778,0.188-1.177,0.252c-0.386,0.078-0.785,0.142-1.197,0.193
		c-0.399,0.051-0.804,0.09-1.216,0.116c-0.412,0.024-0.824,0.038-1.235,0.038c-0.463,0-0.927-0.021-1.391-0.059
		c-0.45-0.025-0.9-0.07-1.351-0.135c-0.438-0.064-0.875-0.142-1.313-0.232c-0.438-0.09-0.868-0.192-1.293-0.309
		c-0.425-0.114-0.849-0.244-1.274-0.386c-0.412-0.142-0.817-0.303-1.216-0.482c-0.398-0.167-0.791-0.347-1.177-0.54
		c-0.399-0.194-0.785-0.399-1.158-0.618s-0.734-0.45-1.081-0.694c-0.36-0.245-0.714-0.495-1.062-0.753
		c-0.334-0.27-0.663-0.547-0.984-0.83c-0.322-0.282-0.637-0.58-0.946-0.888c-0.309-0.297-0.605-0.604-0.889-0.927
		c-0.282-0.335-0.553-0.669-0.81-1.004c-0.271-0.335-0.528-0.682-0.772-1.043c-0.232-0.359-0.457-0.727-0.676-1.099
		c-0.219-0.374-0.431-0.754-0.637-1.14c-0.192-0.386-0.373-0.779-0.541-1.178c-0.167-0.411-0.322-0.823-0.463-1.234
		c-0.154-0.412-0.29-0.831-0.406-1.256c-0.116-0.424-0.219-0.855-0.308-1.292c-0.091-0.438-0.162-0.882-0.213-1.333
		c-0.064-0.451-0.116-0.901-0.155-1.351c-0.026-0.45-0.038-0.908-0.038-1.371c0-0.592,0.026-1.17,0.077-1.737
		c0.051-0.579,0.122-1.145,0.212-1.698c0.09-0.553,0.206-1.1,0.348-1.641C110.698,170.994,110.865,170.461,111.059,169.946z"/>
	<path fill-rule="evenodd" clip-rule="evenodd" fill="#5EB4B9" d="M97.102,110.203c0.412-0.206,0.804-0.444,1.178-0.714
		c0.373-0.27,0.728-0.56,1.061-0.869c0.323-0.322,0.625-0.663,0.908-1.023c0.284-0.373,0.534-0.759,0.753-1.158
		c0.219-0.398,0.405-0.817,0.56-1.254c0.104,0.284,0.219,0.56,0.348,0.831c0.142,0.283,0.29,0.553,0.444,0.81
		c0.154,0.257,0.321,0.508,0.502,0.753c0.192,0.231,0.392,0.463,0.598,0.694c0.412,0.438,0.862,0.836,1.352,1.197
		c0.244,0.167,0.501,0.328,0.772,0.482c0.257,0.154,0.527,0.29,0.81,0.405c0.271,0.128,0.554,0.245,0.85,0.347
		c0.296,0.09,0.598,0.167,0.908,0.232c0.308,0.064,0.617,0.115,0.925,0.154c0.322,0.026,0.644,0.045,0.966,0.058
		c0.154,0,0.315-0.007,0.482-0.02c0.155-0.013,0.315-0.025,0.482-0.039c0.322-0.039,0.637-0.09,0.946-0.154
		c0.296-0.064,0.592-0.142,0.888-0.232c0.295-0.103,0.585-0.219,0.868-0.347c0.271-0.115,0.541-0.251,0.812-0.405
		c0.27-0.155,0.527-0.315,0.771-0.482c0.489-0.361,0.939-0.76,1.352-1.197c0.205-0.231,0.399-0.463,0.579-0.694
		c0.18-0.245,0.347-0.496,0.502-0.753c0.167-0.257,0.315-0.527,0.443-0.81c0.129-0.271,0.245-0.547,0.348-0.831
		c0.103,0.284,0.225,0.56,0.367,0.831c0.128,0.283,0.271,0.553,0.424,0.81c0.155,0.257,0.322,0.508,0.502,0.753
		c0.193,0.231,0.393,0.463,0.599,0.694c0.411,0.438,0.862,0.836,1.351,1.197c0.245,0.167,0.496,0.328,0.752,0.482
		c0.271,0.154,0.547,0.29,0.831,0.405c0.271,0.128,0.554,0.245,0.849,0.347c0.296,0.09,0.599,0.167,0.907,0.232
		c0.309,0.064,0.618,0.115,0.927,0.154c0.321,0.026,0.644,0.045,0.965,0.058c0.322-0.013,0.644-0.032,0.966-0.058
		c0.321-0.039,0.636-0.09,0.945-0.154c0.296-0.064,0.592-0.142,0.888-0.232c0.296-0.103,0.585-0.219,0.869-0.347
		c0.27-0.115,0.54-0.251,0.811-0.405c0.258-0.155,0.509-0.315,0.752-0.482c0.502-0.361,0.959-0.76,1.371-1.197
		c0.206-0.231,0.398-0.463,0.579-0.694c0.181-0.245,0.347-0.496,0.502-0.753c0.167-0.257,0.315-0.527,0.444-0.81
		c0.128-0.271,0.245-0.547,0.348-0.831c0.104,0.284,0.226,0.56,0.367,0.831c0.129,0.283,0.27,0.553,0.425,0.81
		c0.154,0.257,0.321,0.508,0.501,0.753c0.193,0.231,0.393,0.463,0.599,0.694c0.412,0.438,0.862,0.836,1.351,1.197
		c0.245,0.167,0.495,0.328,0.753,0.482c0.27,0.154,0.547,0.29,0.83,0.405c0.27,0.128,0.554,0.245,0.85,0.347
		c0.296,0.09,0.599,0.167,0.907,0.232c0.309,0.064,0.618,0.115,0.926,0.154c0.323,0.026,0.644,0.045,0.965,0.058
		c0.335-0.013,0.657-0.032,0.965-0.058c0.322-0.039,0.637-0.09,0.946-0.154c0.296-0.064,0.591-0.142,0.887-0.232
		c0.296-0.103,0.586-0.219,0.869-0.347c0.271-0.115,0.541-0.251,0.811-0.405c0.257-0.155,0.508-0.315,0.753-0.482
		c0.502-0.361,0.958-0.76,1.37-1.197c0.206-0.231,0.398-0.463,0.579-0.694c0.181-0.245,0.348-0.496,0.502-0.753
		c0.168-0.257,0.315-0.527,0.444-0.81c0.129-0.271,0.244-0.547,0.348-0.831c0.103,0.284,0.219,0.56,0.347,0.831
		c0.142,0.283,0.29,0.553,0.445,0.81c0.153,0.257,0.32,0.508,0.501,0.753c0.193,0.231,0.393,0.463,0.599,0.694
		c0.398,0.438,0.85,0.836,1.352,1.197c0.244,0.167,0.495,0.328,0.753,0.482c0.27,0.154,0.546,0.29,0.828,0.405
		c0.271,0.128,0.556,0.245,0.851,0.347c0.296,0.09,0.598,0.167,0.907,0.232c0.309,0.064,0.618,0.115,0.926,0.154
		c0.323,0.026,0.645,0.045,0.966,0.058c0.321-0.013,0.644-0.032,0.966-0.058c0.32-0.039,0.63-0.09,0.926-0.154
		c0.309-0.064,0.611-0.142,0.907-0.232c0.296-0.103,0.58-0.219,0.85-0.347c0.283-0.115,0.56-0.251,0.829-0.405
		c0.258-0.155,0.509-0.315,0.754-0.482c0.502-0.361,0.958-0.76,1.37-1.197c0.192-0.231,0.386-0.463,0.58-0.694
		c0.18-0.245,0.347-0.496,0.501-0.753s0.303-0.527,0.443-0.81c0.129-0.271,0.245-0.547,0.349-0.831
		c0.103,0.284,0.218,0.56,0.348,0.831c0.141,0.283,0.288,0.553,0.443,0.81c0.154,0.257,0.321,0.508,0.502,0.753
		c0.193,0.231,0.386,0.463,0.578,0.694c0.412,0.438,0.868,0.836,1.37,1.197c0.246,0.167,0.496,0.328,0.754,0.482
		c0.271,0.154,0.547,0.29,0.829,0.405c0.271,0.128,0.554,0.245,0.851,0.347c0.296,0.09,0.598,0.167,0.907,0.232
		c0.295,0.064,0.604,0.115,0.926,0.154c0.321,0.026,0.644,0.045,0.966,0.058c0.32-0.013,0.644-0.032,0.966-0.058
		c0.307-0.039,0.616-0.09,0.925-0.154c0.31-0.064,0.611-0.142,0.908-0.232c0.295-0.103,0.579-0.219,0.85-0.347
		c0.282-0.115,0.559-0.251,0.829-0.405c0.258-0.155,0.508-0.315,0.754-0.482c0.502-0.361,0.958-0.76,1.37-1.197
		c0.192-0.231,0.385-0.463,0.579-0.694c0.18-0.245,0.348-0.496,0.502-0.753s0.302-0.527,0.443-0.81
		c0.129-0.271,0.244-0.547,0.348-0.831c0.104,0.284,0.219,0.56,0.348,0.831c0.128,0.283,0.277,0.553,0.443,0.81
		c0.155,0.257,0.322,0.508,0.502,0.753c0.181,0.231,0.373,0.463,0.579,0.694c0.412,0.438,0.868,0.836,1.37,1.197
		c0.244,0.167,0.496,0.328,0.754,0.482c0.271,0.154,0.54,0.29,0.811,0.405c0.283,0.128,0.572,0.245,0.868,0.347
		c0.296,0.09,0.599,0.167,0.908,0.232c0.295,0.064,0.604,0.115,0.926,0.154c0.321,0.026,0.644,0.045,0.965,0.058
		c0.321-0.013,0.644-0.032,0.965-0.058c0.322-0.039,0.631-0.09,0.928-0.154c0.309-0.064,0.61-0.142,0.906-0.232
		c0.297-0.103,0.586-0.219,0.869-0.347c0.27-0.115,0.54-0.251,0.812-0.405c0.257-0.155,0.507-0.315,0.751-0.482
		c0.49-0.361,0.946-0.76,1.371-1.197c0.207-0.231,0.399-0.463,0.579-0.694c0.181-0.245,0.348-0.496,0.502-0.753
		c0.168-0.257,0.315-0.527,0.444-0.81c0.129-0.271,0.244-0.547,0.348-0.831c0.154,0.425,0.341,0.836,0.56,1.236
		c0.206,0.398,0.443,0.778,0.715,1.139c0.282,0.347,0.577,0.682,0.887,1.004c0.322,0.309,0.67,0.598,1.043,0.869
		c0.36,0.257,0.739,0.495,1.139,0.713c0.399,0.194,0.817,0.368,1.255,0.521c0.013-0.039,0.025-0.083,0.039-0.135
		c-0.053,0.258-0.104,0.509-0.155,0.753c-0.258,1.261-0.553,2.496-0.888,3.706c-0.335,1.209-0.708,2.413-1.12,3.609
		c-0.411,1.184-0.855,2.349-1.331,3.494c-0.489,1.145-1.011,2.277-1.563,3.397c-0.566,1.106-1.158,2.193-1.776,3.262
		c-0.631,1.055-1.287,2.098-1.969,3.127c-0.694,1.017-1.421,2.014-2.181,2.992c-0.747,0.965-1.526,1.911-2.336,2.837
		c-0.811,0.927-1.654,1.821-2.528,2.683c-0.862,0.875-1.758,1.718-2.684,2.529c-0.926,0.811-1.872,1.595-2.837,2.355
		c-0.605,0.462-1.217,0.913-1.834,1.351l-0.58,0.405c-0.192,0.141-0.386,0.277-0.578,0.406c-0.129,0.077-0.252,0.161-0.367,0.25
		l-0.465,0.31c-0.141,0.077-0.276,0.16-0.403,0.25c-0.143,0.09-0.291,0.181-0.444,0.271l-1.197,0.733
		c-0.089,0.052-0.18,0.103-0.27,0.154c-0.297,0.167-0.592,0.341-0.889,0.521l-1.757,0.946c-0.154,0.077-0.315,0.161-0.482,0.251
		c-0.18,0.09-0.36,0.18-0.54,0.27l-1.697,0.793c-0.426,0.191-0.851,0.379-1.275,0.559c-0.052,0.026-0.103,0.053-0.154,0.078
		l-0.482,0.192c-0.398,0.154-0.798,0.31-1.196,0.464c-0.04,0.012-0.071,0.025-0.098,0.037l-1.563,0.562
		c-0.038,0.012-0.07,0.024-0.096,0.038l-1.023,0.348c-0.077,0.024-0.154,0.051-0.231,0.076l-1.698,0.521
		c-0.181,0.053-0.367,0.104-0.561,0.154c-0.901,0.244-1.809,0.471-2.722,0.676c-0.335,0.077-0.663,0.148-0.983,0.213
		c-0.284,0.051-0.574,0.109-0.869,0.174l-1.236,0.212c-0.115,0.013-0.237,0.031-0.367,0.059c-0.063,0.013-0.127,0.024-0.192,0.038
		l-1.061,0.154c-0.027,0-0.046,0-0.059,0c-0.025,0-0.045,0.006-0.059,0.02c-0.115,0.013-0.231,0.025-0.347,0.038l-0.309,0.039
		c-0.321,0.039-0.644,0.077-0.966,0.115c-1.017,0.104-2.032,0.182-3.05,0.231c-0.18,0.013-0.354,0.02-0.521,0.02l-2.297,0.059
		c-0.09,0-0.181,0-0.27,0c-1.325,0-2.639-0.045-3.938-0.135c-1.313-0.091-2.606-0.22-3.88-0.387
		c-0.051-0.013-0.103-0.019-0.154-0.019c-0.064-0.014-0.128-0.021-0.193-0.021c-0.991-0.153-1.969-0.321-2.934-0.501
		c-0.167-0.026-0.334-0.059-0.502-0.097c-0.399-0.078-0.792-0.161-1.177-0.251c-0.85-0.194-1.692-0.405-2.528-0.638
		c-1.223-0.335-2.426-0.714-3.61-1.138c-1.184-0.412-2.348-0.856-3.494-1.333c-1.145-0.488-2.278-1.01-3.397-1.563
		c-1.106-0.566-2.194-1.159-3.262-1.776c-1.055-0.63-2.097-1.287-3.126-1.969c-1.017-0.695-2.014-1.416-2.992-2.162
		c-0.965-0.76-1.911-1.544-2.838-2.355c-0.926-0.811-1.827-1.653-2.702-2.529c-0.862-0.862-1.698-1.756-2.509-2.683
		c-0.811-0.926-1.589-1.872-2.336-2.837c-0.759-0.978-1.486-1.976-2.181-2.992c-0.695-1.029-1.352-2.072-1.969-3.127
		c-0.617-1.068-1.209-2.156-1.775-3.262c-0.554-1.12-1.075-2.253-1.563-3.397c-0.477-1.146-0.927-2.311-1.352-3.494
		c-0.412-1.197-0.779-2.4-1.101-3.609c-0.347-1.21-0.643-2.445-0.888-3.706c-0.039-0.18-0.077-0.367-0.116-0.56
		C96.26,110.583,96.69,110.409,97.102,110.203z M161.11,42.758c0.965,0.155,1.911,0.329,2.838,0.521
		c0.939,0.181,1.872,0.393,2.799,0.637c0.914,0.232,1.82,0.489,2.722,0.772c0.9,0.284,1.796,0.586,2.684,0.907
		c0.875,0.322,1.743,0.663,2.605,1.023c0.862,0.373,1.712,0.759,2.548,1.158c0.85,0.399,1.68,0.823,2.49,1.274
		c0.811,0.437,1.614,0.901,2.412,1.389c0.799,0.477,1.577,0.972,2.336,1.487c0.76,0.514,1.512,1.055,2.259,1.621
		c0.733,0.553,1.46,1.119,2.182,1.698c0.707,0.579,1.402,1.184,2.085,1.814c0.682,0.618,1.344,1.255,1.987,1.911
		c0.656,0.644,1.294,1.306,1.91,1.988c0.631,0.682,1.236,1.377,1.815,2.085s1.151,1.435,1.718,2.182
		c0.54,0.746,1.074,1.499,1.602,2.258c0.516,0.759,1.012,1.538,1.487,2.336c0.488,0.797,0.952,1.602,1.39,2.413
		c0.451,0.81,0.875,1.641,1.273,2.49c0.398,0.837,0.786,1.686,1.158,2.548c0.36,0.85,0.702,1.718,1.024,2.606
		c0.32,0.888,0.623,1.782,0.906,2.683c0.283,0.901,0.54,1.808,0.772,2.722c0.244,0.926,0.463,1.859,0.656,2.799
		c0.18,0.927,0.348,1.872,0.502,2.837c0.141,0.952,0.264,1.911,0.366,2.876c0.09,0.965,0.162,1.943,0.212,2.934
		c0.053,0.978,0.077,1.962,0.077,2.953h-57.579v-57.58c0.051,0,0.108,0,0.173,0c0.052,0,0.109,0,0.173,0c0.04,0,0.086,0,0.137,0
		c0.27,0,0.541,0.006,0.811,0.02c0.283,0,0.565,0.006,0.849,0.019c0.271,0.013,0.547,0.026,0.829,0.039
		c0.054,0,0.098,0.006,0.137,0.02c0.386,0.013,0.765,0.032,1.139,0.058c0.476,0.039,0.958,0.078,1.448,0.116
		c0.063,0.013,0.128,0.02,0.193,0.02C159.2,42.495,160.158,42.617,161.11,42.758z M173.967,158.846
		c0.295,0.053,0.592,0.104,0.887,0.155c0.31,0.063,0.604,0.136,0.889,0.212c0.296,0.078,0.585,0.168,0.869,0.271
		c0.271,0.103,0.547,0.212,0.829,0.329c0.271,0.115,0.54,0.237,0.811,0.366c0.257,0.127,0.515,0.271,0.772,0.425
		c0.244,0.14,0.489,0.296,0.734,0.462c0.244,0.168,0.483,0.342,0.714,0.521c0.464,0.36,0.907,0.747,1.332,1.157
		c0.411,0.412,0.797,0.851,1.157,1.314c0.168,0.23,0.335,0.469,0.502,0.714c0.168,0.244,0.322,0.496,0.464,0.753
		c0.154,0.244,0.296,0.501,0.424,0.772c0.143,0.257,0.271,0.527,0.387,0.81c0.115,0.271,0.219,0.547,0.309,0.831
		c0.103,0.283,0.192,0.566,0.27,0.849c0.078,0.297,0.148,0.592,0.214,0.889c0.063,0.295,0.115,0.599,0.154,0.907
		c0.038,0.295,0.07,0.604,0.096,0.927c0.014,0.309,0.026,0.616,0.038,0.926c-0.012,0.32-0.024,0.637-0.038,0.946
		c-0.025,0.308-0.058,0.617-0.096,0.926c-0.039,0.296-0.092,0.592-0.154,0.889c-0.065,0.309-0.136,0.604-0.214,0.888
		c-0.077,0.295-0.167,0.585-0.27,0.869c-0.09,0.27-0.193,0.546-0.309,0.83c-0.116,0.27-0.244,0.54-0.387,0.811
		c-0.128,0.256-0.27,0.514-0.424,0.771c-0.142,0.244-0.296,0.488-0.464,0.733c-0.167,0.244-0.334,0.482-0.502,0.715
		c-0.36,0.463-0.746,0.906-1.157,1.331c-0.425,0.412-0.868,0.797-1.332,1.157c-0.23,0.168-0.47,0.336-0.714,0.503
		c-0.245,0.167-0.49,0.329-0.734,0.483c-0.258,0.141-0.516,0.282-0.772,0.424c-0.271,0.129-0.54,0.252-0.811,0.366
		c-0.282,0.116-0.559,0.22-0.829,0.31c-0.284,0.103-0.573,0.192-0.869,0.271c-0.284,0.077-0.579,0.147-0.889,0.212
		c-0.295,0.064-0.592,0.115-0.887,0.154c-0.31,0.038-0.618,0.071-0.928,0.097c-0.308,0.025-0.624,0.039-0.946,0.039
		c-0.475,0-0.944-0.025-1.408-0.077c-0.45-0.053-0.9-0.123-1.351-0.213s-0.889-0.2-1.313-0.328
		c-0.438-0.142-0.856-0.296-1.255-0.464c-0.412-0.18-0.812-0.373-1.196-0.579c-0.399-0.205-0.779-0.438-1.139-0.694
		c-0.361-0.244-0.716-0.509-1.063-0.792c-0.334-0.27-0.655-0.559-0.965-0.868c-0.31-0.321-0.604-0.65-0.887-0.983
		c-0.283-0.335-0.548-0.688-0.792-1.063c-0.244-0.36-0.47-0.733-0.676-1.12c-0.219-0.398-0.412-0.797-0.579-1.195
		c-0.18-0.413-0.335-0.83-0.462-1.256c-0.144-0.438-0.258-0.881-0.349-1.331c-0.09-0.438-0.155-0.889-0.193-1.353
		c-0.052-0.462-0.076-0.932-0.076-1.408c0-0.31,0.012-0.617,0.038-0.926c0.013-0.322,0.038-0.632,0.076-0.927
		c0.053-0.309,0.104-0.612,0.155-0.907c0.063-0.297,0.135-0.592,0.213-0.889c0.076-0.282,0.166-0.565,0.269-0.849
		c0.104-0.284,0.213-0.561,0.329-0.831c0.115-0.282,0.238-0.553,0.366-0.81c0.13-0.271,0.271-0.528,0.425-0.772
		c0.142-0.257,0.297-0.509,0.464-0.753c0.168-0.245,0.342-0.483,0.521-0.714c0.36-0.464,0.745-0.902,1.157-1.314
		c0.258-0.255,0.528-0.5,0.811-0.732c0.168-0.154,0.335-0.295,0.502-0.425c0.232-0.18,0.47-0.354,0.716-0.521
		c0.243-0.166,0.494-0.322,0.751-0.462c0.245-0.154,0.502-0.298,0.772-0.425c0.258-0.129,0.528-0.251,0.812-0.366
		c0.128-0.052,0.258-0.105,0.386-0.155c0.143-0.064,0.289-0.122,0.443-0.174c0.283-0.103,0.567-0.192,0.85-0.271
		c0.297-0.076,0.592-0.148,0.889-0.212c0.296-0.051,0.598-0.103,0.907-0.155c0.295-0.037,0.604-0.063,0.927-0.076
		c0.309-0.027,0.618-0.039,0.925-0.039c0.322,0,0.639,0.012,0.946,0.039C173.349,158.782,173.657,158.809,173.967,158.846z
		 M176.842,169.694c-0.245-0.412-0.533-0.784-0.868-1.12c-0.335-0.334-0.708-0.617-1.12-0.849c-0.398-0.245-0.829-0.432-1.293-0.56
		c-0.23-0.064-0.47-0.109-0.714-0.136c-0.244-0.038-0.496-0.058-0.754-0.058c-0.257,0-0.502,0.02-0.732,0.058
		c-0.244,0.026-0.482,0.071-0.714,0.136c-0.477,0.128-0.914,0.314-1.313,0.56c-0.411,0.231-0.786,0.515-1.12,0.849
		c-0.335,0.336-0.618,0.708-0.851,1.12c-0.242,0.399-0.43,0.837-0.559,1.313c-0.063,0.22-0.108,0.45-0.136,0.695
		c-0.038,0.245-0.057,0.495-0.057,0.753c0,0.373,0.038,0.739,0.115,1.101c0.064,0.36,0.167,0.707,0.31,1.042
		c0.141,0.321,0.308,0.631,0.502,0.926c0.206,0.297,0.431,0.566,0.675,0.812c0.258,0.244,0.528,0.469,0.812,0.676
		c0.295,0.192,0.604,0.359,0.925,0.501c0.336,0.142,0.683,0.251,1.043,0.328c0.36,0.065,0.728,0.096,1.1,0.096
		c0.258,0,0.51-0.012,0.754-0.038c0.244-0.038,0.483-0.09,0.714-0.154c0.464-0.128,0.895-0.308,1.293-0.54
		c0.412-0.244,0.785-0.534,1.12-0.868c0.335-0.335,0.623-0.708,0.868-1.12c0.232-0.398,0.413-0.83,0.541-1.293
		c0.064-0.232,0.116-0.47,0.154-0.715c0.026-0.244,0.039-0.495,0.039-0.752c0-0.258-0.013-0.508-0.039-0.753
		c-0.038-0.245-0.09-0.476-0.154-0.695C177.255,170.531,177.074,170.094,176.842,169.694z M134.203,158.846
		c0.296,0.053,0.592,0.104,0.888,0.155c0.309,0.063,0.605,0.136,0.888,0.212c0.296,0.078,0.586,0.168,0.869,0.271
		c0.142,0.052,0.29,0.109,0.444,0.174c0.128,0.05,0.257,0.104,0.386,0.155c0.27,0.115,0.54,0.237,0.81,0.366
		c0.258,0.127,0.515,0.271,0.772,0.425c0.245,0.14,0.49,0.296,0.734,0.462c0.244,0.168,0.482,0.342,0.714,0.521
		c0.167,0.13,0.341,0.271,0.521,0.425c0.27,0.232,0.541,0.478,0.811,0.732c0.412,0.412,0.798,0.851,1.159,1.314
		c0.166,0.23,0.333,0.469,0.501,0.714c0.167,0.244,0.328,0.496,0.482,0.753c0.142,0.244,0.283,0.501,0.425,0.772
		c0.129,0.257,0.251,0.527,0.367,0.81c0.115,0.271,0.219,0.547,0.309,0.831c0.103,0.283,0.193,0.566,0.27,0.849
		c0.078,0.297,0.148,0.592,0.212,0.889c0.064,0.295,0.117,0.599,0.155,0.907c0.038,0.295,0.07,0.604,0.097,0.927
		c0.012,0.309,0.025,0.616,0.038,0.926c-0.013,0.32-0.026,0.637-0.038,0.946c-0.026,0.308-0.059,0.617-0.097,0.926
		c-0.039,0.296-0.091,0.592-0.155,0.889c-0.063,0.309-0.134,0.604-0.212,0.888c-0.077,0.295-0.167,0.585-0.27,0.869
		c-0.09,0.27-0.193,0.546-0.309,0.83c-0.116,0.27-0.238,0.54-0.367,0.811c-0.142,0.256-0.283,0.514-0.425,0.771
		c-0.154,0.244-0.315,0.488-0.482,0.733c-0.168,0.244-0.335,0.482-0.501,0.715c-0.361,0.463-0.747,0.906-1.159,1.331
		c-0.425,0.412-0.869,0.797-1.332,1.157c-0.232,0.168-0.47,0.336-0.714,0.503s-0.489,0.329-0.734,0.483
		c-0.257,0.141-0.514,0.282-0.772,0.424c-0.271,0.129-0.54,0.252-0.81,0.366c-0.284,0.116-0.56,0.22-0.831,0.31
		c-0.283,0.103-0.573,0.192-0.869,0.271c-0.283,0.077-0.579,0.147-0.888,0.212c-0.296,0.064-0.592,0.115-0.888,0.154
		c-0.31,0.038-0.618,0.071-0.927,0.097c-0.309,0.025-0.625,0.039-0.946,0.039c-0.464,0-0.927-0.025-1.39-0.077
		c-0.463-0.053-0.92-0.123-1.37-0.213c-0.438-0.09-0.875-0.2-1.313-0.328c-0.437-0.142-0.855-0.296-1.254-0.464
		c-0.412-0.18-0.81-0.373-1.196-0.579c-0.399-0.205-0.779-0.438-1.139-0.694c-0.36-0.244-0.714-0.509-1.062-0.792
		c-0.335-0.27-0.656-0.559-0.965-0.868c-0.309-0.321-0.605-0.65-0.888-0.983c-0.283-0.335-0.547-0.688-0.792-1.063
		c-0.244-0.36-0.47-0.733-0.675-1.12c-0.219-0.398-0.412-0.797-0.579-1.195c-0.18-0.413-0.335-0.83-0.463-1.256
		c-0.141-0.438-0.258-0.881-0.347-1.331c-0.09-0.438-0.155-0.889-0.193-1.353c-0.051-0.462-0.077-0.932-0.077-1.408
		c0-0.31,0.013-0.617,0.039-0.926c0.013-0.322,0.039-0.632,0.077-0.927c0.052-0.309,0.103-0.612,0.155-0.907
		c0.064-0.297,0.134-0.592,0.212-0.889c0.077-0.282,0.167-0.565,0.271-0.849c0.103-0.284,0.212-0.561,0.328-0.831
		c0.116-0.282,0.238-0.553,0.366-0.81c0.129-0.271,0.271-0.528,0.425-0.772c0.141-0.257,0.296-0.509,0.463-0.753
		c0.167-0.245,0.341-0.483,0.521-0.714c0.36-0.464,0.746-0.902,1.158-1.314c0.411-0.41,0.849-0.797,1.313-1.157
		c0.231-0.18,0.47-0.354,0.714-0.521c0.244-0.166,0.495-0.322,0.753-0.462c0.244-0.154,0.502-0.298,0.772-0.425
		c0.257-0.129,0.527-0.251,0.81-0.366c0.271-0.117,0.547-0.227,0.831-0.329c0.282-0.103,0.566-0.192,0.848-0.271
		c0.296-0.076,0.592-0.148,0.889-0.212c0.296-0.051,0.598-0.103,0.907-0.155c0.296-0.037,0.605-0.063,0.926-0.076
		c0.309-0.027,0.618-0.039,0.927-0.039c0.321,0,0.637,0.012,0.946,0.039C133.585,158.782,133.893,158.809,134.203,158.846z
		 M130.882,167.166c-0.476,0.128-0.913,0.314-1.312,0.56c-0.412,0.231-0.785,0.515-1.12,0.849c-0.335,0.336-0.617,0.708-0.85,1.12
		c-0.244,0.399-0.43,0.837-0.559,1.313c-0.064,0.22-0.109,0.45-0.135,0.695c-0.039,0.245-0.058,0.495-0.058,0.753
		c0,0.373,0.039,0.739,0.116,1.101c0.064,0.36,0.167,0.707,0.309,1.042c0.141,0.321,0.309,0.631,0.501,0.926
		c0.206,0.297,0.431,0.566,0.676,0.812c0.257,0.244,0.527,0.469,0.81,0.676c0.297,0.192,0.612,0.359,0.946,0.501
		c0.321,0.142,0.663,0.251,1.023,0.328c0.36,0.065,0.727,0.096,1.101,0.096c0.257,0,0.509-0.012,0.753-0.038
		c0.244-0.038,0.482-0.09,0.714-0.154c0.463-0.128,0.901-0.308,1.313-0.54c0.398-0.244,0.766-0.534,1.101-0.868
		c0.335-0.335,0.624-0.708,0.868-1.12c0.232-0.398,0.412-0.83,0.541-1.293c0.065-0.232,0.116-0.47,0.155-0.715
		c0.026-0.244,0.039-0.495,0.039-0.752c0-0.258-0.013-0.508-0.039-0.753c-0.039-0.245-0.09-0.476-0.155-0.695
		c-0.129-0.476-0.309-0.913-0.541-1.313c-0.244-0.412-0.533-0.784-0.868-1.12c-0.335-0.334-0.702-0.617-1.101-0.849
		c-0.411-0.245-0.849-0.432-1.313-0.56c-0.231-0.064-0.47-0.109-0.714-0.136c-0.244-0.038-0.496-0.058-0.753-0.058
		c-0.258,0-0.502,0.02-0.733,0.058C131.352,167.057,131.114,167.102,130.882,167.166z"/>
	<path fill-rule="evenodd" clip-rule="evenodd" fill="#90D2C0" d="M132.986,4.095l10.636,61.519v27.623h-45.94l-41.289-56.77v-0.02
		l50.033,54.531L70.021,26.563v-0.019l43.489,59.877L84.691,18.264l36.385,64.433L100.21,11.72V11.7l28.8,68.178L116.386,6.972
		v-0.02l20.828,71.016l-4.246-73.873H132.986z M86.042,97.425v6.428c0,0.926,0.02,1.846,0.058,2.76L32.959,60.575l53.875,36.85
		H86.042z M86.157,107.578c0.065,1.184,0.162,2.368,0.29,3.551c0.141,1.197,0.315,2.387,0.521,3.571
		c0.206,1.197,0.444,2.381,0.714,3.552s0.579,2.342,0.926,3.513c0.335,1.159,0.702,2.304,1.101,3.437
		c0.399,1.132,0.83,2.251,1.293,3.359c0.477,1.119,0.972,2.219,1.486,3.3c0.528,1.081,1.088,2.149,1.68,3.204
		c0.592,1.056,1.209,2.091,1.853,3.107c0.644,1.017,1.319,2.021,2.027,3.012c0.708,0.991,1.442,1.956,2.201,2.896
		c0.438,0.54,0.882,1.068,1.332,1.583c0.451,0.515,0.907,1.029,1.371,1.544c0.45,0.502,0.92,0.997,1.409,1.486
		c0.49,0.489,0.978,0.965,1.467,1.428c0.489,0.477,0.991,0.939,1.505,1.391c0.515,0.463,1.03,0.913,1.544,1.351
		c0.528,0.437,1.062,0.868,1.602,1.293c0.528,0.424,1.068,0.837,1.622,1.236c0.54,0.411,1.094,0.811,1.66,1.196
		c0.566,0.386,1.132,0.759,1.698,1.119c0.566,0.375,1.146,0.733,1.738,1.081c0.077,0.038,0.154,0.084,0.231,0.135
		c-0.335,0.36-0.65,0.729-0.946,1.101c-0.334,0.426-0.656,0.869-0.964,1.332c-0.296,0.45-0.58,0.914-0.85,1.389
		c-0.258,0.478-0.502,0.974-0.734,1.487c-0.116,0.259-0.218,0.515-0.309,0.772c-0.129,0.181-0.257,0.36-0.386,0.541
		c-0.296,0.45-0.579,0.913-0.849,1.389c-0.258,0.477-0.502,0.966-0.734,1.468c-0.219,0.515-0.417,1.029-0.598,1.545
		c-0.193,0.515-0.361,1.048-0.502,1.602c-0.142,0.541-0.258,1.088-0.348,1.641c-0.09,0.554-0.161,1.119-0.212,1.698
		c-0.051,0.567-0.077,1.146-0.077,1.737c0,0.463,0.012,0.921,0.038,1.371c0.039,0.449,0.09,0.899,0.155,1.351
		c0.051,0.451,0.122,0.895,0.213,1.333c0.089,0.437,0.192,0.868,0.308,1.292c0.116,0.425,0.251,0.844,0.406,1.256
		c0.141,0.411,0.296,0.823,0.463,1.234c0.168,0.398,0.348,0.792,0.541,1.178c0.206,0.386,0.418,0.766,0.637,1.14
		c0.219,0.372,0.444,0.739,0.676,1.099c0.244,0.361,0.501,0.708,0.772,1.043c0.257,0.335,0.527,0.669,0.81,1.004
		c0.284,0.322,0.58,0.63,0.889,0.927c0.309,0.308,0.624,0.605,0.946,0.888c0.321,0.283,0.65,0.561,0.984,0.83
		c0.348,0.258,0.702,0.508,1.062,0.753c0.347,0.244,0.708,0.476,1.081,0.694s0.759,0.424,1.158,0.618
		c0.386,0.193,0.779,0.373,1.177,0.54c0.399,0.18,0.805,0.341,1.216,0.482c0.425,0.142,0.849,0.271,1.274,0.386
		c0.425,0.116,0.856,0.219,1.293,0.309c0.438,0.091,0.875,0.168,1.313,0.232c0.45,0.064,0.901,0.109,1.351,0.135
		c0.463,0.038,0.927,0.059,1.391,0.059c0.411,0,0.823-0.014,1.235-0.038c0.413-0.026,0.817-0.065,1.216-0.116
		c0.412-0.052,0.811-0.115,1.197-0.193c0.398-0.063,0.791-0.147,1.177-0.252c0.386-0.09,0.772-0.192,1.158-0.308
		c0.374-0.129,0.746-0.258,1.12-0.387c0.36-0.141,0.721-0.295,1.081-0.463c0.36-0.153,0.715-0.321,1.062-0.502
		c0.347-0.18,0.688-0.366,1.022-0.56c0.335-0.207,0.663-0.418,0.984-0.637c0.309-0.206,0.625-0.432,0.946-0.675
		c0.296-0.232,0.592-0.471,0.888-0.716c0.296-0.258,0.585-0.521,0.868-0.79c0.271-0.271,0.541-0.548,0.812-0.831
		c0.257-0.283,0.507-0.572,0.752-0.869c0.245-0.295,0.482-0.598,0.713-0.906c0.232-0.322,0.457-0.644,0.676-0.965
		c0.206-0.322,0.405-0.657,0.598-1.004c0.193-0.335,0.38-0.676,0.56-1.023c0.167-0.348,0.328-0.701,0.482-1.062
		c0.064-0.143,0.123-0.276,0.174-0.406c0.154-0.23,0.309-0.463,0.463-0.694c0.206-0.321,0.406-0.655,0.598-1.004
		c0.142-0.257,0.291-0.514,0.444-0.771c0.051,0.205,0.109,0.418,0.174,0.637c0.103,0.386,0.225,0.767,0.367,1.139
		c0.128,0.374,0.27,0.74,0.424,1.101s0.322,0.714,0.503,1.062c0.166,0.348,0.347,0.688,0.539,1.023
		c0.194,0.347,0.394,0.682,0.599,1.004c0.22,0.321,0.444,0.643,0.676,0.965c0.219,0.309,0.456,0.611,0.715,0.906
		c0.244,0.297,0.495,0.586,0.753,0.869c0.269,0.283,0.539,0.56,0.81,0.831c0.284,0.27,0.574,0.532,0.868,0.79
		c0.298,0.245,0.6,0.483,0.908,0.716c0.309,0.243,0.624,0.469,0.946,0.675c0.321,0.219,0.649,0.43,0.984,0.637
		c0.334,0.193,0.67,0.38,1.004,0.56c0.348,0.181,0.701,0.349,1.062,0.502c0.359,0.168,0.727,0.322,1.1,0.463
		c0.36,0.129,0.734,0.258,1.12,0.387c0.373,0.115,0.754,0.218,1.139,0.308c0.387,0.104,0.778,0.188,1.178,0.252
		c0.398,0.078,0.798,0.142,1.195,0.193c0.4,0.051,0.806,0.09,1.218,0.116c0.411,0.024,0.823,0.038,1.235,0.038
		c0.462,0,0.927-0.021,1.39-0.059c0.45-0.025,0.9-0.07,1.352-0.135c0.437-0.064,0.875-0.142,1.313-0.232
		c0.438-0.09,0.875-0.192,1.312-0.309c0.412-0.114,0.832-0.244,1.255-0.386c0.412-0.142,0.818-0.303,1.218-0.482
		c0.397-0.167,0.797-0.347,1.195-0.54c0.386-0.194,0.766-0.399,1.14-0.618c0.373-0.219,0.732-0.45,1.08-0.694
		c0.36-0.245,0.714-0.495,1.062-0.753c0.334-0.27,0.663-0.547,0.985-0.83c0.322-0.282,0.637-0.58,0.946-0.888
		c0.308-0.297,0.604-0.604,0.887-0.927c0.282-0.335,0.553-0.669,0.811-1.004c0.271-0.335,0.521-0.682,0.753-1.043
		c0.245-0.359,0.477-0.727,0.695-1.099c0.22-0.374,0.431-0.754,0.638-1.14c0.192-0.386,0.372-0.779,0.54-1.178
		c0.051-0.142,0.109-0.276,0.173-0.405c0.078-0.116,0.155-0.238,0.232-0.366c0.244-0.36,0.476-0.728,0.695-1.101
		c0.219-0.374,0.431-0.753,0.637-1.139c0.192-0.386,0.373-0.779,0.54-1.178c0.167-0.411,0.322-0.823,0.464-1.235
		c0.153-0.413,0.289-0.831,0.405-1.254c0.115-0.425,0.219-0.856,0.309-1.295c0.091-0.438,0.167-0.882,0.231-1.331
		c0.052-0.45,0.097-0.901,0.136-1.353c0.024-0.449,0.038-0.906,0.038-1.369c0-0.438-0.014-0.869-0.038-1.293
		c-0.026-0.438-0.065-0.868-0.116-1.294c-0.064-0.412-0.136-0.823-0.212-1.235c-0.078-0.412-0.168-0.823-0.271-1.235
		c-0.104-0.399-0.219-0.798-0.348-1.196c-0.128-0.387-0.271-0.772-0.425-1.158c-0.155-0.373-0.314-0.747-0.482-1.119
		c-0.181-0.374-0.367-0.741-0.56-1.102c-0.193-0.359-0.399-0.707-0.618-1.041c-0.22-0.348-0.444-0.689-0.676-1.024
		c-0.231-0.32-0.476-0.643-0.732-0.964c-0.258-0.311-0.521-0.618-0.793-0.928c-0.27-0.296-0.552-0.586-0.848-0.869
		c-0.245-0.244-0.503-0.481-0.772-0.713c0.296-0.193,0.592-0.394,0.888-0.6c0.566-0.385,1.126-0.784,1.678-1.196
		c0.542-0.398,1.082-0.811,1.622-1.234c0.541-0.425,1.076-0.856,1.603-1.294c0.516-0.438,1.03-0.881,1.545-1.332
		c0.515-0.463,1.016-0.926,1.505-1.39c0.503-0.476,0.99-0.958,1.468-1.448c0.488-0.489,0.965-0.984,1.428-1.486
		s0.92-1.01,1.37-1.525c0.451-0.527,0.896-1.062,1.333-1.602c0.772-0.94,1.512-1.905,2.22-2.896
		c0.707-0.978,1.384-1.982,2.026-3.011c0.656-1.017,1.28-2.053,1.873-3.108c0.514-0.913,1.003-1.833,1.467-2.76
		c0.27-0.476,0.54-0.952,0.81-1.428c0.593-1.055,1.152-2.124,1.68-3.204c0.528-1.094,1.023-2.201,1.487-3.32
		c0.475-1.107,0.913-2.233,1.313-3.378c0.398-1.132,0.772-2.278,1.119-3.436c0.335-1.159,0.637-2.329,0.906-3.513
		c0.271-1.171,0.51-2.355,0.716-3.552c0.218-1.196,0.392-2.394,0.521-3.59c0.025-0.244,0.052-0.489,0.077-0.733l60.147-31.734
		l-61.073,41.752l68.931-26.851h0.019l-65.456,34.514l71.555-18.82l-68.949,26.831l73.235-10.539l-71.556,18.801l73.949-2.124
		l-73.234,10.521l73.717,6.313v0.02l-73.949,2.084l72.521,14.689l-73.737-6.332l70.379,22.836l-72.521-14.689l67.329,30.71v0.021
		l-70.379-22.895l63.371,38.2v0.02l-67.309-30.75l58.603,45.169l-63.351-38.22l53.063,51.558l-58.585-45.188l46.849,57.272
		l-53.064-51.578l40.015,62.233v0.02l-46.828-57.29l32.66,66.382v0.019l-39.995-62.271l24.88,69.685v0.018l-32.64-66.42
		l16.773,72.077l-24.861-69.702l8.455,73.505v0.02l-16.756-72.076L158.235,298h-0.021l-8.416-73.505L141.383,298v-73.986
		l-16.735,72.057l8.435-73.505l-24.843,69.702h-0.02l16.774-72.077l-32.622,66.42h-0.019l24.882-69.702L77.24,279.161l32.661-66.382
		L63.072,270.05l40.014-62.233l-53.063,51.578l46.848-57.272l-58.584,45.188l53.063-51.558l-63.352,38.22l58.603-45.169
		l-67.289,30.75h-0.02l63.372-38.22l-70.359,22.895l67.309-30.731L7.094,188.206v-0.02l70.377-22.836l-73.717,6.332l72.52-14.689
		l-73.968-2.084v-0.02l73.717-6.313L2.789,138.057l73.949,2.124L5.182,121.379l73.235,10.539l-68.95-26.831l71.556,18.82
		L15.586,89.395l68.95,26.851L23.443,74.493L86.157,107.578z M161.052,36.254l5.561-32.159l-1.872,32.757
		c-0.889-0.167-1.775-0.322-2.665-0.463C161.728,36.338,161.387,36.292,161.052,36.254z M151.651,35.656h-3.706l1.854-32.526
		L151.651,35.656z M95.114,106.188c0.013,0.09,0.02,0.18,0.02,0.27c-0.009-0.104-0.02-0.207-0.029-0.309
		C95.107,106.161,95.11,106.174,95.114,106.188z M96.369,93.236h-8.049v2.896L43.981,47.854L96.369,93.236z M95.191,106.825
		c0.013,0.09,0.026,0.187,0.039,0.29c0.006,0.065,0.013,0.129,0.019,0.194C95.229,107.143,95.21,106.982,95.191,106.825z
		 M183.231,6.952l-5.849,33.8c-0.051-0.013-0.104-0.032-0.154-0.058c-0.952-0.412-1.918-0.791-2.896-1.139
		c-0.206-0.077-0.412-0.153-0.618-0.231l9.497-32.351L183.231,6.952z M215.622,89.935c-0.168-1.068-0.36-2.117-0.58-3.146
		c-0.206-1.043-0.443-2.072-0.714-3.089c0-0.013,0-0.025,0-0.039l41.289-35.807l-39.821,43.374
		C215.743,90.791,215.687,90.359,215.622,89.935z M197.573,54.417c-0.643-0.643-1.306-1.28-1.988-1.911l19.323-34.243
		l-15.906,37.641C198.526,55.39,198.05,54.894,197.573,54.417z M188.964,47.199c-0.283-0.207-0.571-0.405-0.869-0.599
		c-0.848-0.579-1.71-1.133-2.585-1.66c-0.039-0.026-0.077-0.051-0.116-0.077l13.976-33.085L188.964,47.199z M207.051,66.443
		c-0.54-0.862-1.088-1.711-1.641-2.548c-0.476-0.695-0.965-1.383-1.467-2.065l25.635-35.286L207.051,66.443z M212.455,77.678
		c-0.359-0.979-0.738-1.943-1.138-2.895c-0.335-0.798-0.695-1.596-1.081-2.394l32.969-35.942v0.02l-30.479,41.945
		C212.636,78.167,212.546,77.922,212.455,77.678z M216.2,95.089l50.439-34.514h0.019L216.2,104.296
		c0.014-0.322,0.032-0.644,0.059-0.965c0.064-1.223,0.097-2.445,0.097-3.668c0-1.094-0.026-2.188-0.077-3.281
		C216.253,95.945,216.227,95.514,216.2,95.089z M209.908,100.311c-0.015,0.957-0.048,1.912-0.097,2.866
		c0-0.231,0.007-0.463,0.019-0.695c0.026-0.309,0.039-0.618,0.039-0.927c0.014-0.309,0.021-0.618,0.021-0.926
		C209.897,100.524,209.904,100.418,209.908,100.311z M209.425,107.076c0.039-0.309,0.078-0.611,0.117-0.907
		c-0.047,0.446-0.098,0.89-0.154,1.332c-0.026,0.155-0.053,0.315-0.078,0.482C209.348,107.674,209.388,107.372,209.425,107.076z
		 M209.695,104.566c0.008-0.077,0.014-0.154,0.021-0.231c0-0.064,0.006-0.129,0.019-0.193
		C209.724,104.284,209.711,104.425,209.695,104.566z"/>
</g>
</svg>
