<?xml version="1.0" encoding="utf-8"?>
<!-- Generator: Adobe Illustrator 16.0.0, SVG Export Plug-In . SVG Version: 6.00 Build 0)  -->
<!DOCTYPE svg PUBLIC "-//W3C//DTD SVG 1.1//EN" "http://www.w3.org/Graphics/SVG/1.1/DTD/svg11.dtd">
<svg version="1.1" id="Layer_1" xmlns="http://www.w3.org/2000/svg" xmlns:xlink="http://www.w3.org/1999/xlink" x="0px" y="0px"
	 width="300px" height="300px" viewBox="0 0 300 300" enable-background="new 0 0 300 300" xml:space="preserve">
<g>
	<path fill-rule="evenodd" clip-rule="evenodd" fill="#AB6935" d="M69.375,35.563c21.81-21.785,48.129-32.677,78.958-32.677
		c30.83,0,57.136,10.892,78.92,32.677c21.811,21.81,32.716,48.129,32.716,78.958c0,30.829-10.905,57.136-32.716,78.92
		c-21.784,21.81-48.09,32.715-78.92,32.715c-30.829,0-57.148-10.905-78.958-32.715c-21.785-21.784-32.677-48.091-32.677-78.92
		C36.698,83.692,47.59,57.373,69.375,35.563z"/>
	<path fill-rule="evenodd" clip-rule="evenodd" fill="#010101" d="M145.734,88.61l-12.612,21.02
		c-9.249-7.669-19.988-5.44-32.218,6.688c12.689-8.841,22.052-11.185,28.09-7.032c3.389,2.675,5.656,5.415,6.803,8.217
		c0.025,0.102,0.063,0.216,0.114,0.344c0.51,1.58-0.611,3.644-3.363,6.191c0.102,0.128,0.216,0.255,0.344,0.382
		c1.044,1.249,2.025,2.689,2.942,4.319c0.102,0.179,0.37,0.713,0.803,1.605c0.306,0.663,0.598,1.172,0.879,1.529
		c0.28,0.408,0.649,0.841,1.108,1.3c0.28,0.28,0.688,0.688,1.223,1.223c0.051,0.025,0.267,0.217,0.65,0.573
		c0.28,0.254,0.484,0.458,0.612,0.611c0.458,0.561,0.675,1.134,0.649,1.72c-0.178-0.637-0.522-1.236-1.031-1.797
		c-0.077-0.076-0.561-0.548-1.453-1.413c0.077,0.153,0.216,0.382,0.42,0.688c0.254,0.357,0.434,0.611,0.535,0.764
		c0.382,0.662,0.522,1.375,0.42,2.14c-0.153-0.229-0.292-0.586-0.42-1.071c-0.153-0.509-0.292-0.865-0.42-1.069
		c-0.128-0.127-0.319-0.28-0.574-0.459c-0.254-0.178-0.434-0.344-0.535-0.497c-0.204,0.662-0.191,1.248,0.038,1.758
		c0.153,0.356,0.446,0.764,0.879,1.222c0.458,0.51,0.752,0.879,0.879,1.108c0.23,0.458,0.255,0.956,0.077,1.491
		c0.076-0.484,0.013-0.892-0.191-1.224c-0.204-0.407-0.547-0.599-1.032-0.573c0,0.51,0.153,1.07,0.459,1.682
		c0.153,0.357,0.407,0.854,0.764,1.491c0.866-0.586,1.796-1.389,2.789-2.408c0.536-0.586,1.337-1.49,2.408-2.713v-0.956
		c0.918-0.356,2.09-0.892,3.516-1.604c2.319-1.096,3.529-1.669,3.631-1.72c2.115-1.019,3.325-1.592,3.63-1.72
		c1.301-0.688,2.307-1.39,3.021-2.102c0.254-0.229,0.483-0.484,0.688-0.765c0.253-0.306,0.419-0.56,0.495-0.764
		c0.052-0.103,0.09-0.268,0.115-0.497c0-0.229,0.014-0.382,0.039-0.458c0.151-0.484,0.444-1.045,0.879-1.682
		c0.61-0.84,0.98-1.375,1.107-1.604c-0.025-0.307-0.089-0.943-0.191-1.911c-0.076-0.714-0.114-1.3-0.114-1.759
		c0-0.433,0.064-0.917,0.191-1.452c0-0.025,0.114-0.471,0.345-1.337c0.279-1.121,0.343-2.114,0.19-2.981
		c0-0.05-0.063-0.204-0.19-0.458c-0.078-0.204-0.104-0.37-0.078-0.498c0-0.203,0.09-0.395,0.269-0.573
		c0.229-0.204,0.356-0.357,0.383-0.458c0.075-0.28,0.139-0.65,0.19-1.108c0.025-0.51,0.051-0.84,0.077-0.994
		c0.227-0.917,0.585-1.745,1.07-2.484c0.458-0.713,1.031-1.35,1.719-1.911c1.069-0.892,2.204-1.554,3.401-1.988
		c1.579-0.637,3.224-0.891,4.93-0.764c1.199,0.077,2.458,0.459,3.784,1.146c1.299,0.637,2.395,1.415,3.286,2.332
		c0.994,0.968,1.605,2.268,1.835,3.898c0.204,1.453,0.128,3.249-0.229,5.389c0.076,0.102,0.243,0.229,0.496,0.382
		c0.229,0.127,0.37,0.268,0.421,0.42c0.127,0.332,0.115,0.79-0.038,1.376c-0.076,0.331-0.217,0.828-0.42,1.49
		c-0.714,2.701-1.911,4.255-3.594,4.663c-0.127,0.815-0.33,1.821-0.609,3.019c-0.384,1.605-0.613,2.599-0.689,2.98
		c0.587,0.332,1.516,0.777,2.79,1.338c1.274,0.535,2.218,0.994,2.828,1.375c0.179,0.103,0.446,0.306,0.803,0.613
		c0.332,0.279,0.6,0.458,0.803,0.534c0.229,0.102,0.65,0.191,1.261,0.268c0.562,0.102,0.97,0.216,1.223,0.344
		c0.153,0.076,0.37,0.255,0.651,0.535c0.433,0.434,0.661,0.663,0.687,0.688c0.867,0.815,1.848,1.962,2.943,3.44
		c0.279,0.407,0.726,1.019,1.338,1.834c0.51,0.713,0.981,1.324,1.414,1.834c0.254,0.306,0.636,0.802,1.146,1.491
		c0.459,0.56,0.854,0.993,1.184,1.299c0.307,0.229,0.956,0.625,1.95,1.185c0.841,0.484,1.401,0.905,1.681,1.262
		c0.129,0.153,0.294,0.484,0.497,0.994c0.128,0.433,0.293,0.713,0.497,0.84c0.127,0.103,0.332,0.192,0.612,0.269
		c0.305,0.076,0.51,0.14,0.61,0.191c0.255,0.101,0.562,0.395,0.918,0.879c0.33,0.484,0.611,0.789,0.841,0.917
		c0.127,0.102,0.382,0.204,0.764,0.306c0.332,0.127,0.586,0.255,0.766,0.382c0.253,0.153,0.585,0.421,0.992,0.803
		c0.562,0.536,0.893,0.841,0.994,0.918c0.458,0.433,0.804,0.764,1.032,0.993c0.382,0.382,0.611,0.713,0.688,0.994
		c0.103,0.254,0.166,0.637,0.191,1.146c0.051,0.51,0.114,0.88,0.19,1.108c0.103,0.23,0.281,0.472,0.535,0.727
		c0.46,0.382,0.713,0.612,0.764,0.688c0.97,1.02,1.632,1.898,1.989,2.638c0.051,0.102,0.113,0.28,0.19,0.535
		c0.077,0.204,0.14,0.369,0.191,0.496c0.178,0.307,0.444,0.638,0.802,0.994c0.205,0.229,0.536,0.548,0.995,0.956
		c0.05,0.051,0.101,0.102,0.151,0.151l3.977-1.948c0.101-0.051,0.241-0.102,0.419-0.153c0.128-0.025,0.267-0.038,0.421-0.038
		c0.151-0.025,0.306-0.025,0.458,0s0.307,0.063,0.459,0.115c0.255,0.076,0.483,0.19,0.688,0.344c0.23,0.127,0.434,0.292,0.612,0.496
		c0.151,0.18,0.305,0.382,0.459,0.611c0.126,0.256,0.241,0.51,0.343,0.765c0.051,0.153,0.089,0.318,0.115,0.498
		c0.051,0.152,0.076,0.318,0.076,0.496c0.024,0.178,0.038,0.357,0.038,0.535c-0.025,0.204-0.038,0.382-0.038,0.535
		c-0.052,0.178-0.103,0.344-0.152,0.497l0.649-0.383h0.076l0.038,0.038v0.038c-0.076,0.281-0.153,0.536-0.229,0.765
		c-0.076,0.229-0.177,0.445-0.307,0.65c-0.127,0.203-0.267,0.382-0.419,0.534c-0.154,0.178-0.331,0.318-0.536,0.422l-6.534,4.317
		c0.051-0.076,0.114-0.14,0.191-0.191c0.306-0.382,0.458-0.828,0.458-1.337c0-0.204-0.025-0.383-0.076-0.536
		c-0.051,0.179-0.165,0.369-0.345,0.573c-0.102,0.18-0.191,0.318-0.267,0.422c-0.052,0.152-0.116,0.292-0.191,0.419
		c-0.076,0.18-0.166,0.447-0.268,0.803c-0.127,0.408-0.307,0.701-0.534,0.88c-0.179,0-0.346,0-0.498,0l-12.611,8.256v0.037
		c-0.28,0.204-0.573,0.369-0.879,0.497c-0.179,0.052-0.369,0.089-0.574,0.115c-0.204,0.024-0.42,0.037-0.649,0.037
		s-0.446-0.025-0.649-0.076c-0.204-0.076-0.42-0.165-0.65-0.268c-0.33-0.152-0.649-0.343-0.955-0.573
		c-0.305-0.229-0.585-0.509-0.841-0.841c-0.254-0.305-0.483-0.624-0.688-0.956c-0.203-0.382-0.382-0.764-0.534-1.146
		c-0.076-0.229-0.152-0.484-0.229-0.765c-0.051-0.254-0.089-0.521-0.113-0.803c-0.054-0.254-0.078-0.496-0.078-0.727
		c0-0.28,0-0.56,0-0.84c0.052-0.382,0.141-0.752,0.269-1.108c0.102-0.332,0.242-0.637,0.419-0.918
		c0.154-0.254,0.346-0.495,0.574-0.726c0.179-0.153,0.356-0.28,0.535-0.383c0.076-0.025,0.152-0.063,0.229-0.113l10.893-5.275
		c0.025-0.204,0.063-0.395,0.115-0.573c0.204-0.713,0.433-1.413,0.688-2.102c-0.076-0.153-0.229-0.28-0.458-0.383
		c-0.382-0.178-0.587-0.279-0.612-0.305c-0.102-0.077-0.306-0.268-0.611-0.574c-0.254-0.229-0.459-0.382-0.611-0.459
		c-0.179-0.075-0.433-0.139-0.764-0.19c-0.357-0.025-0.625-0.089-0.804-0.191c-0.127-0.051-0.268-0.178-0.42-0.382
		c-0.179-0.204-0.33-0.345-0.459-0.42c-0.076-0.025-0.203-0.063-0.383-0.115c-0.203-0.051-0.343-0.114-0.419-0.191
		c-0.332-0.151-0.688-0.496-1.071-1.031c-0.433-0.535-0.777-0.892-1.031-1.071c-0.943,0.104-1.771-0.024-2.483-0.382
		c-0.256-0.127-0.536-0.305-0.841-0.534c-0.052-0.052-0.319-0.28-0.804-0.688c-0.357,0.382-0.854,0.623-1.489,0.726
		c-0.563,0.102-1.199,0.089-1.911-0.038c-0.638-0.102-1.25-0.28-1.835-0.534c-0.587-0.281-1.045-0.574-1.377-0.88
		c-0.28-0.255-0.648-0.688-1.107-1.3c-0.483-0.637-0.854-1.083-1.109-1.338c-0.84-0.865-1.72-1.579-2.637-2.14
		c-0.84,0.917-1.63,2.153-2.368,3.707c-0.407,0.917-1.007,2.319-1.796,4.204c-0.281,0.662-0.905,2.013-1.874,4.051
		c-0.789,1.733-1.414,3.134-1.872,4.205c-0.356,0.941-0.714,2.076-1.07,3.401c-0.178,0.764-0.446,1.975-0.803,3.63
		c-0.357,1.63-0.636,2.854-0.841,3.669c-0.357,1.351-0.739,2.51-1.147,3.478c-0.101,0.281-0.267,0.637-0.496,1.071
		c-0.254,0.483-0.445,0.84-0.573,1.068c-0.459,0.842-0.7,1.517-0.726,2.026c-0.026,0.306,0.025,0.854,0.151,1.643
		c0.129,0.714,0.141,1.262,0.04,1.645c-0.051,0.28-0.191,0.548-0.422,0.803c-0.304,0.306-0.521,0.522-0.649,0.649
		c0.102,0.204,0.281,0.6,0.536,1.185c0.254,0.536,0.458,0.931,0.61,1.186c2.6-0.128,5.236-0.026,7.911,0.306
		c2.167,0.28,4.511,0.739,7.033,1.375c2.088,0.51,3.72,1.019,4.892,1.529c1.783,0.713,2.994,1.567,3.631,2.56
		c0.687,1.071,0.726,2.484,0.113,4.243c-0.228,0.611-0.559,1.3-0.992,2.063c-0.459,0.841-0.778,1.414-0.955,1.72
		c-0.613,1.146-1.084,2-1.414,2.562c-0.536,0.968-0.98,1.821-1.338,2.56c-0.281,0.561-0.701,1.503-1.262,2.828
		c-0.483,1.172-0.893,2.064-1.223,2.676c-0.46,0.789-0.969,1.618-1.528,2.483c-0.383,0.612-0.905,1.389-1.568,2.332
		c0.484,1.782,0.816,2.994,0.995,3.631c0.357,1.197,0.739,2.229,1.146,3.096c0,0.051,0.254,0.547,0.765,1.49
		c0.279,0.561,0.483,1.057,0.61,1.49c0.433,1.657,0.511,3.605,0.229,5.848c-0.204,1.604-0.623,3.465-1.262,5.579
		c-0.382,1.3-0.764,2.37-1.146,3.21c-0.127,0.281-0.408,0.714-0.841,1.301c-0.407,0.561-0.688,1.019-0.84,1.375
		c-0.23,0.51-0.473,1.198-0.728,2.064l-0.574,2.102c-0.483,1.478-0.967,2.803-1.452,3.975c-0.534,1.275-1.133,2.522-1.796,3.746
		c-0.228,0.407-0.585,1.006-1.069,1.796c-0.384,0.713-0.637,1.287-0.766,1.72c-0.127,0.688-0.063,1.286,0.191,1.796
		c0.052,0.153,0.18,0.383,0.382,0.688c0.18,0.306,0.307,0.56,0.383,0.764c0.204,0.484,0.356,0.956,0.46,1.414
		c0.127,0.561,0.165,1.134,0.113,1.72c0,0.103-0.038,0.319-0.113,0.65c-0.078,0.255-0.104,0.458-0.078,0.611
		c0.025,0.204,0.18,0.484,0.46,0.84c0.151,0.205,0.407,0.51,0.765,0.918c0.433,0.51,1.158,1.3,2.178,2.37
		c0.866,1.019,1.414,1.924,1.645,2.714c0.024,0.178,0.036,0.33,0.036,0.457c0.026,0.129,0,0.281-0.076,0.459
		c-0.076,0.179-0.114,0.293-0.114,0.344c0,0.052,0.05,0.242,0.154,0.573c0.101,0.23,0.101,0.459,0,0.688
		c-1.582,0.586-3.39,0.612-5.429,0.076c-1.579-0.382-3.058-1.031-4.433-1.948c-0.562-0.331-0.994-0.625-1.301-0.879
		c-0.407-0.357-0.75-0.714-1.031-1.071c-0.203-0.279-0.458-0.751-0.765-1.413c-0.331-0.714-0.61-1.236-0.84-1.567
		c-0.256-0.357-0.625-0.7-1.107-1.031c-0.563-0.357-0.981-0.625-1.262-0.803c-0.18,0.153-0.382,0.445-0.613,0.879
		c-0.202,0.406-0.394,0.7-0.572,0.879c-1.248-0.076-2.293-0.292-3.134-0.649c-0.942-0.356-1.644-0.892-2.102-1.605
		c0.05-0.229,0.076-0.599,0.076-1.108c0.024-0.434,0.076-0.778,0.152-1.032c0-0.102,0.063-0.229,0.192-0.382
		c0.101-0.179,0.152-0.319,0.152-0.42c0.025-0.128,0.014-0.307-0.039-0.535c-0.026-0.204-0.038-0.37-0.038-0.498
		c0.025-0.127,0.116-0.317,0.268-0.573c0.178-0.229,0.281-0.433,0.307-0.61c0.051-0.18,0.063-0.484,0.037-0.918
		c-0.051-0.458-0.063-0.777-0.037-0.955c0.051-0.28,0.229-0.612,0.534-0.994c0.382-0.433,0.649-0.764,0.803-0.994
		c0.357-0.509,0.585-0.827,0.689-0.955c0.254-0.482,0.394-0.892,0.419-1.222c0-0.256-0.102-0.573-0.306-0.956
		c-0.229-0.407-0.345-0.726-0.345-0.955c-0.075-0.408-0.05-0.995,0.077-1.759c0.128-0.841,0.216-1.478,0.268-1.911
		c0.153-1.604,0.28-2.789,0.381-3.554c0.154-1.351,0.295-2.573,0.422-3.668c0.151-0.843,0.268-1.479,0.343-1.911
		c0.128-0.79,0.104-1.249-0.075-1.377c-0.152-0.127-0.51,0.064-1.07,0.573c-0.305,0.281-0.65,0.65-1.031,1.108
		c-0.535,0.586-1.159,1.313-1.873,2.179c-0.024,0-0.165-0.077-0.421-0.23c-0.152-0.101-0.268-0.19-0.343-0.267
		c0.28-0.332,0.891-0.981,1.834-1.949c0.764-0.79,1.324-1.478,1.681-2.063c0.026-0.229,0-0.84-0.076-1.835
		c-0.05-0.713,0-1.248,0.152-1.605c0.103-0.229,0.293-0.458,0.573-0.688c0.357-0.254,0.587-0.445,0.689-0.573
		c0.024-0.28,0.075-0.599,0.151-0.956c0.103-0.433,0.18-0.75,0.229-0.955c0.178-0.764,0.218-1.414,0.115-1.948
		c-0.05-0.229-0.153-0.459-0.306-0.688c-0.076-0.127-0.256-0.318-0.535-0.572c-0.204-0.256-0.356-0.46-0.46-0.613
		c-0.152-0.229-0.228-0.458-0.228-0.687c-0.28,0.101-1.172,0.445-2.676,1.031c-1.146,0.434-2.091,0.764-2.829,0.994
		c-2.318,0.688-4.457,0.892-6.419,0.611c0,0.789-0.014,1.375-0.04,1.759c-0.074,0.586-0.19,1.044-0.342,1.375
		c-0.408,0.815-1.262,1.159-2.562,1.032c-0.153-0.026-0.549-0.114-1.185-0.268c-0.587-0.153-1.071-0.242-1.452-0.268
		c-0.205,0-0.485,0.013-0.841,0.038c-0.332,0.025-0.573,0.038-0.728,0.038c-0.483,0-0.877-0.141-1.183-0.421
		c-0.23,0.331-0.714,0.484-1.453,0.459c-0.739,0-1.223-0.152-1.453-0.459c-0.331,0.357-0.739,0.612-1.222,0.766
		c-0.484,0.152-1.058,0.216-1.72,0.19c-0.153-0.025-0.434-0.076-0.841-0.153c-0.357-0.101-0.636-0.14-0.84-0.114
		c-0.127,0-0.332,0.077-0.612,0.229c-0.306,0.152-0.535,0.242-0.688,0.268c-0.332,0.025-0.727,0-1.185-0.077
		c-0.535-0.076-0.93-0.14-1.185-0.19c-0.408-0.052-0.739-0.052-0.995,0c-0.305,0.051-0.534,0.217-0.688,0.497
		c-1.936-0.204-3.491-0.649-4.663-1.338c-0.331,0.28-0.828,0.433-1.49,0.459c-0.51,0-1.186-0.077-2.026-0.229
		c-0.051-0.026-0.458-0.153-1.223-0.383c-0.51-0.152-0.867-0.203-1.07-0.152c-0.127,0.051-0.357,0.268-0.688,0.649
		c-0.152,0.179-0.369,0.459-0.649,0.841c-1.274,1.478-2.637,2.815-4.089,4.013c-1.274,1.045-2.854,2.191-4.739,3.439
		c-0.153,0.077-0.459,0.242-0.917,0.497c-0.356,0.204-0.611,0.37-0.764,0.497c-0.281,0.229-0.611,0.6-0.994,1.108
		c-0.204,0.28-0.523,0.7-0.955,1.262c-2.981,3.72-5.185,6.483-6.612,8.293c-2.472,3.185-4.573,6-6.306,8.446
		c-0.917-0.103-1.936-0.307-3.058-0.612c-0.331-0.101-1.286-0.395-2.866-0.879c-0.84-0.255-1.758-0.561-2.751-0.917
		c-0.663-0.229-1.566-0.548-2.713-0.955c0.127,0.815,0.14,1.644,0.039,2.483c-0.103,0.637-0.268,1.389-0.498,2.256
		c-0.153,0.458-0.382,1.172-0.688,2.14c-0.23,0.841-0.37,1.618-0.421,2.331l-2.522,1.032c-1.197,2.241-2.764,3.962-4.701,5.16
		c-4,2.521-7.16,3.082-9.478,1.681c-0.51-0.815-0.752-1.669-0.727-2.561c0-0.739,0.191-1.554,0.573-2.446
		c0.127-0.356,0.484-1.134,1.071-2.331c0.458-0.917,0.764-1.63,0.917-2.14c-1.453,0.61-2.918,1.682-4.396,3.211
		c-0.484,0.482-1.108,1.158-1.873,2.024c-0.892,1.045-1.49,1.732-1.796,2.063c-0.433,0.484-0.942,0.931-1.529,1.338
		c-0.382,0.28-0.994,0.663-1.834,1.146c-0.739,0.434-1.86,1.223-3.363,2.369c-1.478,1.096-2.638,1.886-3.478,2.37
		c-0.433,0.229-1.07,0.573-1.911,1.032c-0.714,0.382-1.3,0.751-1.758,1.108c-0.816,0.586-1.758,1.54-2.828,2.866
		c-0.739,0.917-1.172,1.452-1.299,1.604c-0.51,0.612-0.981,1.121-1.414,1.528c-0.535,0.459-1.159,0.79-1.873,0.995
		c-0.917,0.279-1.682,0.203-2.293-0.229c-0.611-0.408-0.993-1.287-1.146-2.637c-0.05-0.459-0.076-1.084-0.076-1.874
		c-0.026-1.045-0.039-1.682-0.039-1.91c-0.025-0.586-0.025-1.235,0-1.949c0-0.356,0.025-1.02,0.077-1.987
		c0-0.892,0.026-1.554,0.076-1.987c0.077-0.714,0.204-1.224,0.382-1.528c0.204-0.357,0.676-0.752,1.415-1.185
		c0.433-0.256,1.095-0.599,1.987-1.032c1.554-0.714,2.777-1.352,3.669-1.911c1.146-0.713,2.191-1.554,3.134-2.522
		c0.637-0.637,1.121-1.122,1.452-1.452c0.637-0.612,1.172-0.981,1.605-1.107c0.382-0.129,1.044-0.153,1.987-0.077
		c0.892,0.077,1.503,0.051,1.835-0.076c0.382-0.128,0.904-0.51,1.567-1.147c0.764-0.714,1.286-1.159,1.566-1.337
		c0.382-0.229,1.07-0.459,2.064-0.689c1.019-0.278,1.72-0.509,2.102-0.687c0.357-0.205,0.802-0.548,1.338-1.032
		c0.611-0.611,1.069-1.07,1.375-1.376l7.605-7.605c1.605-1.63,3.363-3.248,5.274-4.854c1.758-1.453,3.669-2.93,5.733-4.433
		c0.688-0.485,1.198-0.842,1.528-1.071c0.587-0.406,1.058-0.776,1.415-1.108c0.917-0.865,1.771-1.694,2.56-2.484
		c0.688-0.738,1.415-1.707,2.179-2.903c0.815-1.401,1.452-2.46,1.911-3.173c1.07-1.681,1.732-2.713,1.987-3.095
		c0.79-1.147,1.542-2.091,2.256-2.829c0.433-0.458,1.083-1.069,1.949-1.834c0.917-0.816,1.58-1.427,1.987-1.835
		c0.153-0.127,0.344-0.344,0.574-0.649c0.229-0.356,0.407-0.599,0.535-0.726c0.204-0.204,0.484-0.421,0.842-0.649
		c0.101-0.052,0.42-0.217,0.955-0.498c0.79-0.433,1.286-0.827,1.49-1.184c0.103-0.229,0.332-0.739,0.688-1.529
		c0.254-0.637,0.51-1.108,0.764-1.414c0.229-0.229,0.522-0.484,0.879-0.765c0.306-0.229,0.625-0.433,0.956-0.611
		c0.077-0.052,0.242-0.102,0.497-0.153c0.229-0.051,0.408-0.114,0.536-0.19c0.102-0.077,0.203-0.191,0.306-0.344
		c0.102-0.179,0.191-0.319,0.267-0.421c0.204-0.306,0.446-0.446,0.727-0.421c0.025-0.05,0.05-0.217,0.076-0.496
		c0.025-0.179,0.063-0.307,0.115-0.383c0.765-0.203,1.452-0.727,2.064-1.567c0.051-0.075,0.28-0.445,0.688-1.107
		c0.306-0.434,0.573-0.79,0.802-1.07c0.969-1.07,2.026-2.51,3.172-4.318c1.274-2.038,2.23-3.541,2.867-4.51
		c1.732-2.574,3.758-5.529,6.077-8.867c0.51-0.662,0.904-1.159,1.185-1.489c0.432-0.638,0.739-1.146,0.917-1.529
		c0.153-0.332,0.293-0.842,0.42-1.528c0.153-0.663,0.292-1.108,0.42-1.338c0.052-0.128,0.166-0.306,0.344-0.535
		c0.179-0.203,0.306-0.369,0.382-0.497c0.051-0.102,0.102-0.268,0.153-0.496c0.025-0.256,0.076-0.435,0.153-0.535
		c0.255-0.51,0.446-0.893,0.574-1.147c0.229-0.459,0.318-0.879,0.267-1.261c-0.586-0.357-1.083-0.727-1.491-1.108
		c-0.484-0.484-0.866-1.044-1.146-1.682c-0.025-0.077-0.063-0.229-0.114-0.459c-0.025-0.204-0.077-0.369-0.153-0.496
		c-0.153-0.23-0.407-0.459-0.764-0.688c-0.153-0.102-0.51-0.306-1.07-0.611c-0.484-0.254-0.853-0.472-1.109-0.649
		c-0.33-0.28-0.547-0.574-0.649-0.879c-0.178-0.51-0.268-1.172-0.268-1.987c0-0.842,0.089-1.465,0.268-1.873
		c0.102-0.281,0.382-0.637,0.841-1.07c0.407-0.407,0.662-0.738,0.764-0.993c0.205-0.435,0.307-0.968,0.307-1.606
		c-0.025-0.559-0.102-1.068-0.229-1.527c-0.179-0.688-0.713-1.376-1.605-2.064c-0.739-0.56-1.542-1.019-2.407-1.376
		c-0.357,0.79-0.599,1.631-0.727,2.523c-0.178,0.992-0.204,1.999-0.076,3.018c-0.077,0.103-0.191,0.04-0.344-0.19
		c-0.179-0.331-0.306-0.534-0.382-0.611c-0.025,0.459-0.052,0.765-0.077,0.918c-0.051,0.306-0.178,0.509-0.383,0.61
		c-0.126-0.561-0.216-1.069-0.267-1.528c-0.332,0.51-0.522,0.815-0.574,0.918c-0.254,0.306-0.483,0.572-0.688,0.802
		c-0.586,0.51-1.313,0.765-2.178,0.765c-0.637,0.892-1.274,1.554-1.911,1.987c-0.229,0.127-0.458,0.254-0.688,0.383
		c-0.713,0.305-1.478,0.42-2.293,0.343c-0.509,0.281-0.968,0.472-1.376,0.574c-0.051,0.024-0.114,0.051-0.191,0.076
		c-0.305,0.051-0.637,0.076-0.993,0.076c-0.179,0-0.383,0-0.612,0c0.229-0.051,0.433-0.114,0.612-0.191
		c0.433-0.178,0.79-0.356,1.07-0.535c0.126-0.051,0.242-0.114,0.343-0.191c0.408-0.28,0.714-0.61,0.917-0.993
		c-0.203,0.153-0.42,0.28-0.649,0.383c-0.509,0.229-1.07,0.382-1.681,0.459c-0.051,0-0.09,0-0.115,0
		c-1.044,0.127-1.859-0.025-2.445-0.459c0.331-0.052,0.828-0.103,1.49-0.153c0.332-0.025,0.638-0.063,0.917-0.114
		c0.178-0.025,0.344-0.063,0.497-0.115c0.84-0.179,1.426-0.496,1.758-0.955c0.102-0.102,0.179-0.217,0.229-0.345
		c-0.05,0.026-0.102,0.052-0.153,0.077c-0.815,0.382-1.605,0.649-2.37,0.803c-0.05,0.024-0.101,0.038-0.153,0.038
		c-1.222,0.229-2.216,0.114-2.98-0.344c1.198,0.024,2.14-0.089,2.828-0.344c0.077-0.025,0.153-0.051,0.23-0.077
		c0.815-0.33,1.299-0.866,1.452-1.605c-0.178,0.076-0.483,0.243-0.917,0.497c-0.229,0.153-0.433,0.281-0.611,0.382
		c-0.178,0.103-0.331,0.179-0.458,0.23c-0.943,0.458-1.783,0.496-2.522,0.114c1.248,0,2.229-0.242,2.942-0.727
		c0.102-0.076,0.191-0.152,0.268-0.229c0.79-0.713,1.07-1.758,0.841-3.134c-0.203-0.024-0.382,0.063-0.535,0.268
		c-0.076,0.103-0.191,0.281-0.344,0.535c-0.153,0.204-0.293,0.396-0.42,0.573c-0.076-0.663-0.141-1.261-0.191-1.795
		c0.025-0.18,0.013-0.345-0.038-0.498c-0.025-0.102-0.077-0.216-0.153-0.344c-0.332,0.103-0.649,0.242-0.956,0.42
		c-0.077,0.052-0.357,0.242-0.84,0.573c-0.306,0.204-0.599,0.357-0.879,0.459c-0.127,0.052-0.242,0.102-0.344,0.153
		c-0.28,0.051-0.535,0.076-0.764,0.076c0.153-0.102,0.459-0.254,0.917-0.458c0.05-0.205,0.115-0.434,0.191-0.689
		c0.28-0.968,0.42-1.795,0.42-2.483c0-0.662-0.025-1.324-0.076-1.986c-0.077,0.076-0.153,0.126-0.229,0.151
		c-0.23,0.103-0.522,0.166-0.879,0.191c-0.433,0.025-0.777,0.039-1.031,0.039c0.28-0.104,0.739-0.23,1.375-0.382
		c0.382-0.128,0.624-0.319,0.726-0.573c-0.025-0.485-0.064-0.956-0.115-1.415c-0.025-0.051-0.038-0.102-0.038-0.153
		c-0.103-0.33-0.127-0.637-0.077-0.916c-0.05-0.179-0.088-0.37-0.114-0.574c-0.077-0.356-0.153-0.7-0.229-1.032
		c-0.332-1.452-0.816-2.942-1.453-4.472c-0.28-0.586-0.535-1.133-0.764-1.643c-0.102-0.434-0.242-0.79-0.42-1.07
		c0,0.051,0,0.102,0,0.153c-0.127-0.307-0.229-0.574-0.306-0.803c-0.331-0.841-0.536-1.669-0.611-2.484
		c-0.051-0.305-0.076-0.611-0.076-0.917c0-0.103,0.013-0.28,0.038-0.535c0.025-0.229,0.05-0.51,0.076-0.841
		c0.052-0.815,0.09-1.465,0.115-1.95c0.025-0.05,0.038-0.114,0.038-0.19c-0.179-0.332-0.458-0.689-0.841-1.071
		c-0.433-0.407-0.751-0.713-0.955-0.916c-0.867-0.842-1.911-1.746-3.134-2.714c-0.561-0.484-1.668-1.363-3.325-2.636
		c-0.943-0.714-1.669-1.262-2.179-1.644c-0.84-0.637-1.567-1.21-2.179-1.72c-0.917-0.79-1.732-1.58-2.446-2.369l0.841,4.242
		c0.178,0.051,0.357,0.153,0.535,0.306c0.382,0.255,0.625,0.625,0.727,1.108c0.077,0.459-0.013,0.879-0.267,1.261
		c-0.103,0.204-0.268,0.37-0.498,0.497l0.765,2.638c0.127,0.077,0.254,0.166,0.382,0.267c0.204,0.178,0.357,0.382,0.459,0.612
		c0.126,0.229,0.217,0.47,0.267,0.726l5.274,13.453c-0.612,1.019-2.013,1.682-4.204,1.986c-1.988,0.485-3.389,0.422-4.204-0.19
		l-0.191-13.987c-0.025-0.102-0.052-0.216-0.077-0.345c-0.102-0.662-0.038-1.248,0.191-1.758c0.127-0.28,0.293-0.497,0.497-0.649
		l-0.344-2.562c-0.204-0.05-0.382-0.139-0.536-0.266c-0.382-0.281-0.611-0.637-0.688-1.071c-0.077-0.483,0-0.916,0.229-1.299
		c0.153-0.28,0.356-0.471,0.611-0.573l-1.223-6.268c-0.205-0.306-0.408-0.611-0.612-0.917l-5.121,1.491l2.598-4.433
		c-0.101-0.103-0.203-0.204-0.305-0.306c-1.147-1.198-2.51-2.484-4.09-3.86c-1.656-1.428-2.892-2.791-3.707-4.09
		c-1.147-1.784-1.783-3.771-1.911-5.962c-0.026-0.178-0.026-0.408,0-0.688c0-0.281,0-0.472,0-0.573
		c-0.026-0.561-0.153-1.428-0.383-2.6c-0.229-1.171-0.369-2.089-0.42-2.751c0-0.255,0-0.625,0-1.108c0-0.484,0-0.841,0-1.07
		c-0.025-0.509-0.103-1.223-0.23-2.14c-0.127-0.968-0.191-1.669-0.191-2.102c-0.025-0.357-0.013-0.828,0.039-1.414
		c0.077-0.688,0.127-1.21,0.152-1.567c0.102-1.121,0.179-1.975,0.23-2.561c0.102-0.815,0.217-1.604,0.343-2.369
		c0.382,0.025,0.714,0.139,0.994,0.343c0.076,0.052,0.28,0.268,0.612,0.65c0.025,0.942,0.012,2.382-0.038,4.318
		c0.025,1.631,0.166,2.931,0.42,3.898c0.357-0.382,0.828-0.98,1.414-1.796c0.663-0.917,1.146-1.555,1.452-1.911
		c0.408-0.509,0.956-1.095,1.643-1.758c0.917-0.917,1.44-1.452,1.567-1.605c0.077-0.103,0.178-0.242,0.306-0.42
		c0.127-0.205,0.229-0.356,0.306-0.459c0.255-0.28,0.612-0.331,1.07-0.153c0.178,0.204,0.255,0.498,0.23,0.879
		c-0.052,0.357-0.153,0.649-0.306,0.879c0.229-0.103,0.498-0.141,0.802-0.115c0.204,0.051,0.472,0.14,0.803,0.267
		c0.103,0.842,0.014,1.669-0.267,2.484c-0.178,0.586-0.522,1.274-1.032,2.064c-0.663,1.07-1.058,1.745-1.186,2.026
		c-0.408,0.764-0.649,1.516-0.726,2.255c-0.051,0.433-0.077,1.006-0.077,1.72c0.025,0.891,0.025,1.464,0,1.719
		c-0.025,0.815-0.025,2.077,0,3.783c0,1.478-0.178,2.548-0.535,3.21c0.587,1.096,1.452,2.191,2.599,3.287
		c0.458,0.459,1.529,1.363,3.21,2.714c0.28,0.254,0.561,0.483,0.84,0.688l12-20.562L145.734,88.61z M97.771,128.854l-3.287,0.955
		c0.382,0.255,0.662,0.458,0.84,0.612c1.248,0.942,2.332,1.821,3.249,2.637c0.102,0.102,0.204,0.191,0.306,0.268L97.771,128.854z
		 M103.885,137.605c0.408,0.281,0.803,0.523,1.185,0.727c0.076-0.306,0.153-0.599,0.229-0.878
		C104.79,137.529,104.318,137.58,103.885,137.605z M108.433,170.053c-0.025-0.153-0.089-0.293-0.191-0.421
		c-0.051-0.101-0.205-0.292-0.459-0.573c-0.204,0.637-0.497,1.351-0.878,2.14c-0.281,0.612-0.548,1.135-0.803,1.567
		c0.382-0.178,0.663-0.305,0.841-0.382c0.993-0.56,1.516-1.172,1.567-1.834C108.51,170.371,108.484,170.206,108.433,170.053z
		 M209.596,170.358c0-0.28,0.014-0.573,0.039-0.879l-8.562,4.242c0.382,0.152,0.752,0.369,1.109,0.649l7.452-3.859
		C209.609,170.46,209.596,170.409,209.596,170.358z M199.431,173.646c0.178-0.026,0.369-0.038,0.573-0.038
		c0.178,0,0.368,0.012,0.573,0.038c-0.103-0.026-0.191-0.038-0.269-0.038c-0.025-0.025-0.051-0.038-0.076-0.038
		c-0.076,0-0.152,0-0.229,0C199.8,173.569,199.608,173.595,199.431,173.646z M199.468,173.874c-0.152,0.025-0.317,0.077-0.496,0.153
		c-0.254,0.127-0.484,0.281-0.688,0.458c-0.229,0.179-0.421,0.408-0.573,0.688c-0.179,0.28-0.319,0.573-0.421,0.879
		c-0.102,0.357-0.191,0.713-0.268,1.07c0,0.28,0,0.535,0,0.764c0,0.255,0.025,0.51,0.076,0.765c0.025,0.229,0.064,0.472,0.115,0.727
		c0.051,0.229,0.127,0.472,0.229,0.726c0.154,0.383,0.319,0.753,0.496,1.108c0.205,0.331,0.434,0.649,0.689,0.956
		c0.229,0.279,0.483,0.534,0.764,0.765c0.307,0.229,0.625,0.421,0.956,0.573c0.205,0.076,0.407,0.14,0.611,0.19
		c0.203,0.051,0.42,0.09,0.649,0.114c0.203,0.025,0.395,0.013,0.574-0.038c0.202,0,0.395-0.037,0.573-0.114
		c0.306-0.103,0.585-0.255,0.84-0.458c0.256-0.204,0.484-0.446,0.688-0.727c0.178-0.306,0.343-0.624,0.497-0.955l-1.606,0.992
		h-0.037c-0.205,0.18-0.433,0.319-0.688,0.422c-0.076,0.025-0.167,0.051-0.268,0.076c0-0.025,0.011-0.039,0.037-0.039
		c0.893-0.254,1.503-0.904,1.835-1.948c0.382-1.02,0.396-2.141,0.038-3.363c-0.129-0.407-0.28-0.777-0.458-1.108
		c-0.053-0.076-0.09-0.153-0.115-0.229c-0.051-0.051-0.076-0.101-0.076-0.153c-0.153-0.229-0.294-0.445-0.421-0.649
		c-0.05-0.024-0.09-0.063-0.114-0.114c-0.611-0.79-1.338-1.286-2.179-1.491c-0.05,0-0.102,0-0.152,0
		c-0.052-0.025-0.114-0.05-0.191-0.076c-0.103,0-0.229-0.013-0.382-0.037C199.825,173.799,199.646,173.823,199.468,173.874z
		 M200.156,174.485h0.039c0.433-0.051,0.853,0.04,1.26,0.269h0.039c0.204,0.101,0.407,0.229,0.612,0.382
		c0.814,0.637,1.389,1.516,1.719,2.638c0.357,1.146,0.369,2.19,0.038,3.133c-0.331,0.969-0.891,1.58-1.681,1.835
		c-0.103,0.025-0.217,0.051-0.345,0.076c-0.127,0.025-0.268,0.025-0.42,0c-0.153,0-0.319-0.025-0.497-0.076
		c-0.178-0.025-0.344-0.077-0.497-0.153c-0.255-0.127-0.51-0.293-0.765-0.496c-0.051-0.026-0.102-0.063-0.151-0.114
		c-0.026-0.026-0.065-0.053-0.116-0.077c-0.101-0.103-0.191-0.204-0.268-0.306c-0.05-0.052-0.089-0.089-0.114-0.115
		c-0.178-0.229-0.356-0.483-0.535-0.764c-0.152-0.281-0.293-0.586-0.42-0.918c-0.051-0.203-0.116-0.395-0.191-0.572
		c-0.025-0.23-0.051-0.434-0.076-0.612c-0.025-0.101-0.039-0.19-0.039-0.268c-0.025-0.102-0.037-0.204-0.037-0.306v-0.076
		l0.037-0.421c0-0.051,0-0.089,0-0.114c0.025-0.331,0.09-0.624,0.19-0.879c0.026-0.076,0.052-0.14,0.077-0.191l0.077-0.191
		c0.33-0.841,0.866-1.376,1.605-1.604c0.025,0,0.063-0.013,0.115-0.037C199.914,174.499,200.03,174.485,200.156,174.485z
		 M221.749,163.441c-0.101,0.025-0.216,0.076-0.343,0.152l-3.709,1.835c0.129,0.128,0.23,0.241,0.307,0.344
		c0.051,0.127,0.102,0.242,0.153,0.344l4.739-2.446l0.038-0.038v-0.076l-0.038-0.077c-0.153-0.024-0.281-0.051-0.383-0.076
		c-0.152,0-0.28,0-0.382,0C222.004,163.402,221.876,163.415,221.749,163.441z M214.336,172.69c-0.025-0.153-0.052-0.281-0.078-0.384
		c-0.05,0.357-0.025,0.689,0.078,0.994C214.36,173.097,214.36,172.893,214.336,172.69z M217.354,175.098
		c0.204-0.077,0.383-0.179,0.534-0.307l1.76,3.517l-0.727-0.268l-0.153,0.765L217.354,175.098z M217.088,181.633l-0.728,0.878
		l0.114-7.261c0.23,0,0.446-0.025,0.649-0.076l0.651,6.955L217.088,181.633z"/>
</g>
</svg>
