<?xml version="1.0" encoding="utf-8"?>
<!-- Generator: Adobe Illustrator 16.0.0, SVG Export Plug-In . SVG Version: 6.00 Build 0)  -->
<!DOCTYPE svg PUBLIC "-//W3C//DTD SVG 1.1//EN" "http://www.w3.org/Graphics/SVG/1.1/DTD/svg11.dtd">
<svg version="1.1" id="Layer_1" xmlns="http://www.w3.org/2000/svg" xmlns:xlink="http://www.w3.org/1999/xlink" x="0px" y="0px"
	 width="300px" height="300px" viewBox="0 0 300 300" enable-background="new 0 0 300 300" xml:space="preserve">
<g>
	<path fill-rule="evenodd" clip-rule="evenodd" fill="#010101" d="M196.385,118.619c0,4.629,1.742,8.58,5.226,11.851
		c3.483,3.298,7.674,4.949,12.572,4.949c4.919,0,9.109-1.65,12.565-4.949c3.483-3.271,5.229-7.235,5.229-11.89
		c0-4.682-1.745-8.672-5.229-11.971c-2.579-2.421-5.56-3.938-8.938-4.549l-21.387,16.559l-0.039-0.039V118.619z M174.278,110.162
		c6.89-6.971,15.442-15.616,25.656-25.937c59.933-50.861,91.868-44.517,95.806,19.033c-2.449-3.751-4.831-7.169-7.144-10.255
		c1.116-2.261,1.65-5.307,1.595-9.138c-0.184,3.219-1.369,5.427-3.551,6.624c-2.34-3.005-4.613-5.665-6.822-7.98
		c-0.053-0.053-0.095-0.091-0.12-0.12c1.65-7.021,1.942-12.21,0.877-15.562c-0.796,6.04-2.088,10.188-3.868,12.45l-0.799-0.558
		c-1.833-1.464-4.082-2.315-6.742-2.555c-1.97,28.171-10.439,47.723-25.419,58.656c-7.741,5.507-16.331,8.806-25.775,9.896
		c-17.505,1.33-30.168-3.139-37.987-13.407l-1.836,1.436c-10.667-3.085-16.001-11.198-16.001-24.341
		C164.968,112.847,169.011,113.432,174.278,110.162z M216.055,125.723c-0.743,0.239-1.556,0.359-2.435,0.359
		c-1.968,0-3.671-0.705-5.105-2.115c-1.384-1.384-2.074-3.073-2.074-5.069c0-1.967,0.69-3.658,2.074-5.066
		c1.435-1.41,3.138-2.115,5.105-2.115c1.997,0,3.684,0.706,5.069,2.115c1.409,1.409,2.115,3.1,2.115,5.066
		c0,1.996-0.706,3.685-2.115,5.069l-0.361,0.359c-0.29-0.212-0.612-0.32-0.957-0.32c-0.398,0-0.746,0.107-1.035,0.32
		c-0.268,0.266-0.401,0.572-0.401,0.917C215.935,125.403,215.975,125.563,216.055,125.723z M215.496,115.947
		c-0.585-0.56-1.275-0.838-2.074-0.838c-0.77,0-1.449,0.278-2.033,0.838c-0.563,0.612-0.841,1.33-0.841,2.155
		c0,0.825,0.278,1.515,0.841,2.074c0.584,0.585,1.264,0.878,2.033,0.878c0.799,0,1.489-0.292,2.074-0.878
		c0.559-0.559,0.84-1.249,0.84-2.074C216.336,117.277,216.055,116.559,215.496,115.947z M234.369,118.141
		c0,5.8-2.062,10.76-6.186,14.884c-4.015,4.043-8.843,6.105-14.483,6.185c4.895,0.107,9.898-0.665,15.005-2.313
		c17.477-6.119,29.275-26.296,35.392-60.531c-9.684,1.409-23.291,8.552-40.821,21.427l-1.354,1.037
		c2.262,1.038,4.349,2.514,6.263,4.43C232.308,107.38,234.369,112.342,234.369,118.141z M143.594,106.529
		c5.691,2.449,9.603,1.277,11.731-3.51c1.967,12.955-2.089,21.76-12.171,26.415l-2.274-1.237
		c-5.188,7.421-12.502,11.771-21.946,13.048c-0.505,0.053-0.931,0.079-1.277,0.079c0.266,0.187,0.572,0.373,0.918,0.559
		c2.526,1.57,5.056,3.285,7.582,5.146c-8.485-4.07-16.958-7.168-25.418-9.296c-0.292-0.106-0.572-0.173-0.838-0.199
		c-1.224-0.294-2.433-0.572-3.631-0.839c-23.862-5-47.644-2.087-71.344,8.739c15.269-11.146,30.738-16.971,46.405-17.476
		c-9.258-3.193-18.514-4.55-27.771-4.071c5.533-1.649,13.167-2.288,22.903-1.915c-6.89-9.097-10.893-21.188-12.01-36.271
		c-8.886-2.103-15.549-1.916-19.991,0.558c-5.48,3.193-12.543,12.317-21.188,27.372c0.505-47.774,21.282-64.015,62.328-48.719
		c0.399,2.474,1.263,4.814,2.593,7.022c-0.56-1.995-0.533-4.003,0.079-6.024c1.038,0.398,2.076,0.823,3.113,1.276
		c-0.372,3.165-0.105,6.731,0.798,10.695c-0.053-3.432,0.292-6.731,1.039-9.896c9.417,4.124,19.777,9.723,31.083,16.799
		C125.983,93.428,135.745,100.677,143.594,106.529z M151.854,70.778c4.84,2.18,8.766,6.689,11.771,13.526
		c3.06-6.811,8.127-11.026,15.202-12.648c-8.459,5.319-13.699,13.141-15.72,23.461C161.535,85.914,157.785,77.8,151.854,70.778z
		 M133.458,124.047l-8.897-4.909c-0.612,4.416-2.595,8.272-5.945,11.573c-1.916,1.861-4.004,3.285-6.266,4.268
		C121.153,134.367,128.191,130.724,133.458,124.047z M141.438,190.963l21.987-0.998l14.523-8.38l-28.649-8.141
		c-2.952,3.619-5.426,4.683-7.421,3.193l-0.919-5.825l-33.518-8.858c-3.856,4.069-6.715,5.653-8.579,4.747
		c-2.261-3.059-4.309-5.094-6.145-6.105l-19.153,0.719c-0.026,0.027-0.067,0.067-0.12,0.12c-4.07,6.996-5.213,14.711-3.431,23.144
		c9.497,0.053,18.328,1.396,26.494,4.03c1.117-8.938,2.66-10.349,4.628-4.229c2.314,9.763,6.212,14.99,11.692,15.682
		c8.007-0.268,14.764-3.524,20.27-9.777C136.983,185.735,139.763,185.961,141.438,190.963z M187.127,125.802
		c2.446,4.335,6.345,7.701,11.689,10.095c3.353,1.436,6.745,2.395,10.176,2.873c-3.99-0.798-7.501-2.714-10.531-5.746
		c-3.273-3.272-5.243-7.088-5.908-11.452L187.127,125.802z M153.729,195.791l-19.833-0.199
		c-14.711,12.156-25.988,11.184-33.835-2.914c-10.057-3.725-22.944-5.467-38.666-5.227c-8.167,0.558-10.894,7.223-8.179,19.991
		c2.075,10.641,7.261,17.051,15.562,19.231c0.399,0.107,0.811,0.201,1.237,0.28c6.117,0.639,10.6-0.626,13.447-3.792
		c2.074-3.617,3.949-4.454,5.626-2.514c1.223,1.304,3.005,3.18,5.346,5.627C115.448,219.811,135.214,209.648,153.729,195.791z
		 M178.388,141.763c7.476,7.315,15.777,11.651,24.897,13.007C191.716,155.409,183.414,151.074,178.388,141.763z M179.266,173.406
		c7.104,2.127,13.128,2.739,18.076,1.834c27.426-6.012,48.4-2.646,62.926,10.096c-35.142-5.854-62.197-2.992-81.161,8.578
		l-23.104,14.685c-30.937,21.786-61.223,29.953-90.856,24.502c-34.316-6.998-45.861-24.581-34.635-52.753
		c0.266-0.717,0.558-1.436,0.878-2.154c12.236-23.781,32.573-33.291,61.01-28.53C120.57,155.648,149.525,163.563,179.266,173.406z
		 M109.118,121.612l-0.56,0.48c-0.079-0.107-0.16-0.2-0.239-0.279c-0.266-0.266-0.598-0.4-0.998-0.4c-0.398,0-0.73,0.134-0.997,0.4
		c-0.266,0.265-0.399,0.598-0.399,0.997c0,0.292,0.053,0.531,0.16,0.718c-0.718,0.24-1.477,0.359-2.274,0.359
		c-2.101,0-3.897-0.758-5.388-2.275c-1.462-1.462-2.193-3.258-2.193-5.386c0-2.103,0.731-3.897,2.193-5.387
		c1.49-1.49,3.287-2.234,5.388-2.234c0.959,0,1.862,0.16,2.714,0.479l-12.888-7.144c-0.053,0.028-0.106,0.055-0.159,0.081
		c-1.092,0.61-2.117,1.369-3.073,2.275c-3.538,3.271-5.307,7.194-5.307,11.771c0,4.335,1.568,8.06,4.708,11.172
		c0.239,0.081,0.493,0.172,0.758,0.28c4.548,1.542,8.792,3.272,12.729,5.188l0.118,0.039c4.922-0.053,9.111-1.703,12.568-4.947
		c3.274-2.926,5.057-6.425,5.349-10.494l-13.129-7.263c0.32,0.239,0.627,0.506,0.919,0.798c1.488,1.49,2.234,3.285,2.234,5.387
		C111.353,118.354,110.606,120.149,109.118,121.612z M88.968,101.741c0.532-0.479,1.077-0.945,1.635-1.397
		c-11.411-5.852-21.253-10.107-29.527-12.768c1.624,15.002,7.023,26.973,16.2,35.911c2.714,0.719,5.347,1.464,7.901,2.236
		c-1.569-2.847-2.354-6.013-2.354-9.497C82.822,110.559,84.871,105.732,88.968,101.741z M100.339,115.348
		c0,0.851,0.292,1.583,0.877,2.194c0.612,0.612,1.344,0.918,2.194,0.918c0.853,0,1.569-0.306,2.155-0.918
		c0.638-0.61,0.958-1.343,0.958-2.194c0-0.825-0.32-1.542-0.958-2.155c-0.586-0.612-1.303-0.918-2.155-0.918
		c-0.851,0-1.582,0.306-2.194,0.918C100.631,113.806,100.339,114.523,100.339,115.348z M32.187,111.358
		c5.614-2.474,11.04-2.128,16.281,1.037C43.013,111.277,37.586,110.932,32.187,111.358z M15.268,201.855
		c1.438,30.483,23.343,45.992,65.72,46.527C30.497,254.526,8.591,239.017,15.268,201.855z M241.195,218.016
		c21.972-1.117,34.087-8.047,36.35-20.789C284.167,216.273,272.052,223.203,241.195,218.016z M229.661,151.777
		c23.755-2.712,39.157-19.83,46.206-51.352C278.794,132.692,263.393,149.81,229.661,151.777z"/>
	<path fill-rule="evenodd" clip-rule="evenodd" fill="#CC2027" d="M196.424,118.619l21.387-16.559
		c3.378,0.612,6.358,2.128,8.938,4.549c3.483,3.299,5.229,7.289,5.229,11.971c0,4.655-1.745,8.619-5.229,11.89
		c-3.456,3.298-7.646,4.949-12.565,4.949c-4.898,0-9.089-1.65-12.572-4.949c-3.483-3.271-5.226-7.222-5.226-11.851H196.424z
		 M216.055,125.723c0.053,0.132,0.147,0.251,0.281,0.359c0.289,0.266,0.637,0.398,1.035,0.398c0.373,0,0.692-0.132,0.957-0.398
		c0.295-0.213,0.439-0.493,0.439-0.839c0-0.345-0.145-0.651-0.439-0.917l0.361-0.359c1.409-1.384,2.115-3.073,2.115-5.069
		c0-1.967-0.706-3.658-2.115-5.066c-1.386-1.41-3.072-2.115-5.069-2.115c-1.968,0-3.671,0.706-5.105,2.115
		c-1.384,1.409-2.074,3.1-2.074,5.066c0,1.996,0.69,3.685,2.074,5.069c1.435,1.41,3.138,2.115,5.105,2.115
		C214.499,126.082,215.312,125.962,216.055,125.723z M108.6,122.131c0.187-0.159,0.359-0.333,0.519-0.519
		c1.488-1.462,2.234-3.258,2.234-5.386c0-2.103-0.746-3.897-2.234-5.387c-0.292-0.292-0.599-0.559-0.919-0.798l13.129,7.263
		c-0.292,4.069-2.074,7.568-5.349,10.494c-3.457,3.245-7.646,4.895-12.568,4.947l-0.118-0.039
		c-3.938-1.916-8.181-3.646-12.729-5.188c-0.266-0.107-0.519-0.199-0.758-0.28c-3.14-3.112-4.708-6.837-4.708-11.172
		c0-4.576,1.769-8.5,5.307-11.771c0.957-0.906,1.981-1.665,3.073-2.275c0.053-0.026,0.105-0.053,0.159-0.081l12.888,7.144
		c-0.852-0.319-1.755-0.479-2.714-0.479c-2.101,0-3.897,0.745-5.388,2.234c-1.462,1.49-2.193,3.285-2.193,5.387
		c0,2.127,0.731,3.923,2.193,5.386c1.49,1.517,3.287,2.275,5.388,2.275c0.798,0,1.557-0.12,2.274-0.359
		c0.053,0.107,0.133,0.213,0.239,0.32c0.267,0.239,0.599,0.358,0.997,0.358c0.4,0,0.732-0.119,0.998-0.358
		c0.292-0.294,0.439-0.639,0.439-1.038C108.759,122.57,108.705,122.343,108.6,122.131z"/>
	<path fill-rule="evenodd" clip-rule="evenodd" fill="#FFFFFF" d="M218.328,124.326c0.295,0.266,0.439,0.572,0.439,0.917
		c0,0.346-0.145,0.626-0.439,0.839c-0.265,0.266-0.584,0.398-0.957,0.398c-0.398,0-0.746-0.132-1.035-0.398
		c-0.134-0.107-0.229-0.227-0.281-0.359c-0.08-0.16-0.12-0.32-0.12-0.48c0-0.345,0.134-0.651,0.401-0.917
		c0.289-0.212,0.637-0.32,1.035-0.32C217.716,124.006,218.038,124.114,218.328,124.326z M215.496,115.947
		c0.559,0.612,0.84,1.33,0.84,2.155c0,0.825-0.281,1.515-0.84,2.074c-0.585,0.585-1.275,0.878-2.074,0.878
		c-0.77,0-1.449-0.292-2.033-0.878c-0.563-0.559-0.841-1.249-0.841-2.074c0-0.825,0.278-1.543,0.841-2.155
		c0.584-0.56,1.264-0.838,2.033-0.838C214.221,115.109,214.911,115.387,215.496,115.947z M234.369,118.141
		c0-5.799-2.062-10.761-6.186-14.883c-1.914-1.916-4.001-3.392-6.263-4.43l1.354-1.037c17.53-12.875,31.138-20.018,40.821-21.427
		c-6.116,34.235-17.915,54.412-35.392,60.531c-5.106,1.648-10.11,2.42-15.005,2.313c5.641-0.079,10.469-2.141,14.483-6.185
		C232.308,128.901,234.369,123.941,234.369,118.141z M141.438,190.963c-1.675-5.002-4.454-5.228-8.339-0.68
		c-5.506,6.253-12.263,9.51-20.27,9.777c-5.48-0.691-9.378-5.919-11.692-15.682c-1.968-6.119-3.511-4.709-4.628,4.229
		c-8.167-2.634-16.998-3.978-26.494-4.03c-1.783-8.433-0.639-16.147,3.431-23.144c0.053-0.053,0.093-0.093,0.12-0.12l19.153-0.719
		c1.835,1.012,3.883,3.047,6.145,6.105c1.863,0.906,4.722-0.678,8.579-4.747l33.518,8.858l0.919,5.825
		c1.995,1.489,4.469,0.426,7.421-3.193l28.649,8.141l-14.523,8.38L141.438,190.963z M133.458,124.047
		c-5.267,6.677-12.305,10.32-21.108,10.932c2.262-0.983,4.35-2.407,6.266-4.268c3.351-3.3,5.333-7.157,5.945-11.573L133.458,124.047
		z M153.729,195.791c-18.516,13.857-38.281,24.02-59.296,30.484c-2.34-2.447-4.123-4.323-5.346-5.627
		c-1.677-1.94-3.552-1.104-5.626,2.514c-2.847,3.166-7.33,4.431-13.447,3.792c-0.426-0.079-0.838-0.173-1.237-0.28
		c-8.3-2.181-13.487-8.591-15.562-19.231c-2.714-12.769,0.012-19.434,8.179-19.991c15.722-0.24,28.609,1.502,38.666,5.227
		c7.847,14.098,19.125,15.07,33.835,2.914L153.729,195.791z M187.127,125.802l5.426-4.229c0.665,4.363,2.635,8.18,5.908,11.452
		c3.03,3.032,6.541,4.948,10.531,5.746c-3.431-0.479-6.823-1.438-10.176-2.873C193.472,133.503,189.573,130.138,187.127,125.802z
		 M108.559,122.092c0,0.026,0.014,0.039,0.041,0.039c0.105,0.212,0.159,0.439,0.159,0.679c0,0.399-0.147,0.744-0.439,1.038
		c-0.266,0.239-0.598,0.358-0.998,0.358c-0.398,0-0.73-0.119-0.997-0.358c-0.106-0.107-0.187-0.213-0.239-0.32
		c-0.107-0.187-0.16-0.425-0.16-0.718c0-0.399,0.134-0.732,0.399-0.997c0.267-0.266,0.599-0.4,0.997-0.4
		c0.4,0,0.732,0.134,0.998,0.4C108.398,121.892,108.479,121.985,108.559,122.092z M88.968,101.741
		c-4.097,3.991-6.146,8.818-6.146,14.485c0,3.484,0.785,6.65,2.354,9.497c-2.554-0.772-5.187-1.517-7.901-2.236
		c-9.177-8.938-14.577-20.908-16.2-35.911c8.274,2.661,18.116,6.917,29.527,12.768C90.045,100.796,89.5,101.262,88.968,101.741z
		 M100.339,115.348c0-0.825,0.292-1.542,0.877-2.155c0.612-0.612,1.344-0.918,2.194-0.918c0.853,0,1.569,0.306,2.155,0.918
		c0.638,0.613,0.958,1.33,0.958,2.155c0,0.851-0.32,1.583-0.958,2.194c-0.586,0.612-1.303,0.918-2.155,0.918
		c-0.851,0-1.582-0.306-2.194-0.918C100.631,116.932,100.339,116.199,100.339,115.348z"/>
</g>
</svg>
