<?xml version="1.0" encoding="utf-8"?>
<!-- Generator: Adobe Illustrator 16.0.0, SVG Export Plug-In . SVG Version: 6.00 Build 0)  -->
<!DOCTYPE svg PUBLIC "-//W3C//DTD SVG 1.1//EN" "http://www.w3.org/Graphics/SVG/1.1/DTD/svg11.dtd">
<svg version="1.1" id="Layer_1" xmlns="http://www.w3.org/2000/svg" xmlns:xlink="http://www.w3.org/1999/xlink" x="0px" y="0px"
	 width="300px" height="300px" viewBox="0 0 300 300" enable-background="new 0 0 300 300" xml:space="preserve">
<g>
	<path fill-rule="evenodd" clip-rule="evenodd" fill="#010101" d="M169.003,20.755c-0.04,0.05-0.063,0.088-0.063,0.116l0.063,0.063
		C168.963,20.865,168.963,20.806,169.003,20.755z M170.433,19.904c-0.127,0.322-0.279,0.722-0.464,1.198l-0.04,0.041
		c-0.056,0.098-0.128,0.281-0.21,0.546c-0.015,0.084-0.022,0.175-0.022,0.273c0.015-0.014,0.021-0.034,0.022-0.063
		c0,0.043,0,0.085,0,0.126c-0.057,0.336-0.063,0.707-0.022,1.113l0.022,0.084c0.056,0.461,0.154,0.931,0.295,1.407
		c0.096,0.378,0.2,0.722,0.313,1.029c0.185,0.532,0.435,0.994,0.758,1.386v0.042c0.027,0.014,0.048,0.021,0.062,0.021
		c0.028,0.041,0.042,0.07,0.042,0.084c0.057,0.055,0.099,0.111,0.127,0.167c0.183,0.197,0.356,0.315,0.525,0.357
		c0.098-0.07,0.188-0.118,0.272-0.147c0.042-0.027,0.455-0.118,1.238-0.272c0.267-0.056,0.56-0.111,0.883-0.167
		c0.688-0.028,1.421,0.02,2.205,0.146c-1.329-1.554-2.338-3.584-3.025-6.09c-0.67-2.45-0.838-4.655-0.503-6.614
		c-0.813,1.288-1.646,3.066-2.5,5.333H170.433z M169.003,20.598c1.696-4.746,3.384-7.743,5.063-8.989
		c0.461-0.616,1.043-1.021,1.74-1.218c1.401-0.434,2.865,0.21,4.391,1.932c1.399,1.54,2.449,3.59,3.151,6.153
		c0.699,2.576,0.838,4.893,0.419,6.952v0.02c-0.447,2.226-1.386,3.501-2.813,3.823c-0.772,0.209-1.562,0.125-2.374-0.252
		c-0.156-0.069-0.301-0.153-0.44-0.252c-2.06-0.672-3.873-0.755-5.441-0.252c-0.14,0.084-0.292,0.154-0.461,0.21
		c-0.098,0.028-0.196,0.049-0.293,0.063c-0.071,0-0.128-0.007-0.168-0.021c-0.044,0-0.078,0-0.106,0
		c-0.21-0.028-0.419-0.126-0.629-0.293l-1.323,5.396c-0.015,0.056-0.022,0.098-0.022,0.126l-0.356,0.42l-1.197-0.546
		c-0.056,0.476-0.09,0.973-0.105,1.492c-0.11,2.87,0.12,6.208,0.693,10.017c0.604,3.752,0.96,7.469,1.07,11.151
		c0.056,2.24,0.022,4.459-0.104,6.657l0.714-0.043l0.232,4.138l-1.323,0.063c-0.016,0.168-0.036,0.343-0.063,0.525
		c0.519,0.083,1.042,0.146,1.575,0.188c-0.28,1.414-0.602,2.822-0.966,4.221c-1.051-0.237-2.102-0.406-3.149-0.504
		c0-0.14,0-0.266,0-0.377c0-0.043,0-0.07,0-0.084c-0.015-0.462-0.135-0.784-0.359-0.966c-0.096-0.099-0.2-0.197-0.313-0.294
		c-0.449-0.239-0.876-0.225-1.283,0.041c-0.068,0.056-0.118,0.084-0.145,0.084c-0.196,0.168-0.353,0.252-0.465,0.252h-0.082
		c-0.28-0.056-0.469-0.21-0.567-0.462v-0.021c-0.028-0.168-0.042-0.322-0.042-0.462c-0.014-0.056-0.022-0.105-0.022-0.147
		c-0.012-0.266,0.017-0.504,0.085-0.713c0.1-0.225,0.196-0.413,0.294-0.567c0.028-0.014,0.057-0.042,0.085-0.084
		c0.014-0.014,0.042-0.034,0.084-0.063c0.126-0.112,0.307-0.147,0.547-0.105c0.013,0.014,0.026,0.021,0.04,0.021
		c0.127,0.042,0.261,0.167,0.401,0.378c0,0.042,0.034,0.091,0.104,0.147c0.265,0.392,0.665,0.539,1.196,0.441
		c0.154-0.028,0.295-0.084,0.419-0.168c0.211-0.07,0.421-0.266,0.63-0.588c0.016-0.056,0.044-0.125,0.084-0.209
		c0.056-0.112,0.112-0.246,0.168-0.399c0.31,0.097,0.624,0.181,0.946,0.251c0-0.084,0.006-0.174,0.021-0.272l-0.84,0.021
		l-0.272-4.138l1.491-0.084c0.138-2.254,0.166-4.507,0.082-6.762c-0.097-3.598-0.441-7.245-1.026-10.941
		c-0.59-3.85-0.826-7.231-0.716-10.143c0.028-0.63,0.078-1.239,0.146-1.827l-1.491-0.693v-0.084c0-0.042,0.016-0.077,0.044-0.105
		V32.61l2.687-9.387c-0.041-0.434-0.034-0.861,0.021-1.281c0-0.028,0-0.07,0-0.126s0.022-0.133,0.063-0.231c0-0.028,0-0.083,0-0.167
		c0.072-0.267,0.154-0.504,0.252-0.714C168.999,20.675,169.003,20.639,169.003,20.598z M169.761,21.858
		c0,0.014-0.014,0.021-0.042,0.021c0.025-0.042,0.042-0.076,0.042-0.105C169.761,21.791,169.761,21.818,169.761,21.858z
		 M178.537,12.176c-0.854-0.714-1.68-0.966-2.478-0.756c-0.461,0.126-0.838,0.385-1.133,0.777c-0.042,0.042-0.057,0.07-0.042,0.084
		c-0.393,0.561-0.686,1.295-0.882,2.205c-0.377,1.904-0.245,4.045,0.398,6.426c0.672,2.395,1.652,4.326,2.941,5.796h-0.022
		c0.463,0.49,0.916,0.867,1.365,1.134c0.141,0.098,0.272,0.168,0.398,0.21v0.02c0.56,0.294,1.085,0.365,1.576,0.21
		c0.644-0.21,1.154-0.671,1.533-1.386l-0.021-0.021c-0.854,0.309-1.765-0.272-2.73-1.743c-0.882-1.26-1.59-2.855-2.121-4.788
		c-0.52-1.946-0.728-3.682-0.63-5.208c0.11-1.75,0.607-2.709,1.49-2.877C178.293,12.232,178.413,12.204,178.537,12.176z
		 M166.4,72.49c1.051,0.308,2.121,0.519,3.212,0.63c-0.377,1.386-0.775,2.786-1.194,4.201c-1.051-0.239-2.096-0.392-3.132-0.462
		c0-0.14,0-0.273,0-0.399c0-0.014,0-0.035,0-0.063c0-0.434-0.09-0.756-0.272-0.966c-0.097-0.112-0.196-0.209-0.293-0.293
		c-0.435-0.266-0.862-0.266-1.283,0c-0.04,0.056-0.09,0.098-0.146,0.126c-0.223,0.153-0.384,0.238-0.483,0.252
		c-0.04,0-0.068-0.007-0.084-0.021c-0.265-0.028-0.434-0.176-0.504-0.441c-0.027,0-0.027-0.014,0-0.042
		c-0.027-0.153-0.027-0.308,0-0.462c-0.027-0.042-0.027-0.09,0-0.147c0-0.266,0.042-0.503,0.127-0.714
		c0.056-0.209,0.16-0.399,0.314-0.567c0.042-0.027,0.07-0.055,0.084-0.083c0.042-0.028,0.07-0.056,0.084-0.084
		c0.154-0.098,0.335-0.126,0.546-0.084l0.084,0.021c0.099,0.056,0.219,0.183,0.356,0.378c0,0.028,0.015,0.07,0.042,0.126
		c0.267,0.406,0.652,0.56,1.155,0.462c0.168-0.042,0.322-0.098,0.461-0.168c0.225-0.07,0.449-0.279,0.674-0.629
		c0.028-0.056,0.07-0.119,0.126-0.189C166.329,72.77,166.373,72.644,166.4,72.49z M164.783,77.865
		c0.07-0.097,0.134-0.216,0.19-0.356c1.021,0.294,2.07,0.497,3.147,0.609c-0.461,1.4-0.908,2.808-1.344,4.221
		c-1.05-0.224-2.078-0.378-3.087-0.461c0.028-0.112,0.042-0.231,0.042-0.358c0-0.042,0-0.077,0-0.105
		c0-0.448-0.09-0.755-0.272-0.924c-0.07-0.14-0.162-0.245-0.272-0.315c-0.419-0.251-0.84-0.237-1.261,0.042
		c-0.057,0.042-0.112,0.084-0.169,0.126c-0.208,0.153-0.369,0.23-0.481,0.23c-0.044,0-0.071,0-0.084,0
		c-0.267-0.041-0.421-0.188-0.463-0.441c-0.026,0-0.026-0.014,0-0.041c-0.026-0.154-0.026-0.309,0-0.463c0-0.055,0-0.104,0-0.146
		c0.042-0.281,0.099-0.525,0.169-0.735c0.069-0.239,0.174-0.434,0.314-0.588c0.042-0.028,0.076-0.056,0.104-0.084
		c0.027-0.014,0.056-0.042,0.084-0.084c0.183-0.111,0.364-0.139,0.545-0.083l0.064,0.041c0.098,0.028,0.204,0.147,0.316,0.358
		c0.012,0.041,0.04,0.09,0.084,0.146c0.209,0.379,0.58,0.519,1.111,0.42c0.156-0.028,0.309-0.084,0.463-0.168
		c0.223-0.083,0.447-0.293,0.671-0.629C164.685,78.02,164.727,77.95,164.783,77.865z M163.271,83.033
		c0.07-0.141,0.133-0.274,0.188-0.399c0.994,0.279,2.037,0.468,3.129,0.566c-0.461,1.4-0.901,2.808-1.322,4.221
		c-1.009-0.209-2.037-0.343-3.088-0.398c0.028-0.126,0.042-0.26,0.042-0.399c0-0.014,0-0.036,0-0.064
		c0.015-0.447-0.078-0.763-0.274-0.944c-0.068-0.112-0.16-0.218-0.272-0.316c-0.419-0.224-0.838-0.203-1.259,0.063
		c-0.057,0.056-0.104,0.099-0.148,0.126c-0.209,0.168-0.363,0.251-0.461,0.251c-0.028,0-0.057,0-0.084,0
		c-0.237-0.041-0.377-0.195-0.42-0.462c-0.027,0-0.042-0.02-0.042-0.062c0.028-0.154,0.042-0.301,0.042-0.441
		c0-0.042,0.007-0.091,0.021-0.147c0.03-0.266,0.078-0.504,0.146-0.714c0.1-0.238,0.204-0.441,0.316-0.609
		c0.04,0,0.076-0.028,0.104-0.084l0.064-0.063c0.152-0.111,0.328-0.139,0.524-0.083c0.013,0,0.028,0,0.041,0
		c0.1,0.056,0.204,0.181,0.316,0.378c0,0.042,0.02,0.09,0.063,0.146c0.224,0.393,0.595,0.532,1.112,0.42
		c0.14-0.027,0.295-0.083,0.461-0.167c0.225-0.098,0.449-0.309,0.674-0.63C163.188,83.152,163.229,83.088,163.271,83.033z
		 M159.364,88.429c0.017,0.056,0.028,0.098,0.042,0.126c0.211,0.392,0.575,0.539,1.093,0.441c0.154-0.056,0.309-0.126,0.461-0.21
		c0.225-0.083,0.441-0.294,0.651-0.629c0.042-0.056,0.078-0.12,0.106-0.189c0.084-0.14,0.152-0.273,0.209-0.399
		c0.994,0.266,2.024,0.448,3.087,0.546c-0.419,1.386-0.812,2.787-1.175,4.2c-1.009-0.196-2.024-0.315-3.047-0.357
		c0-0.126,0-0.259,0-0.399c0-0.014,0-0.028,0-0.042c0-0.462-0.097-0.791-0.293-0.987c-0.112-0.111-0.208-0.202-0.293-0.272
		c-0.435-0.251-0.834-0.237-1.198,0.042c-0.057,0.042-0.104,0.084-0.146,0.126c-0.183,0.153-0.323,0.237-0.419,0.251
		c-0.044-0.014-0.072-0.021-0.084-0.021c-0.225-0.028-0.365-0.174-0.421-0.441v-0.042c0-0.182,0-0.329,0-0.441
		c0-0.07,0-0.126,0-0.167c0.014-0.253,0.056-0.483,0.124-0.694c0.084-0.224,0.19-0.413,0.316-0.566
		c0.028-0.056,0.057-0.091,0.084-0.105l0.064-0.063c0.139-0.112,0.301-0.147,0.481-0.105l0.042,0.021
		C159.162,88.093,159.269,88.22,159.364,88.429z M163.671,93.238c-0.352,1.415-0.638,2.829-0.862,4.242
		c-1.022-0.209-2.051-0.329-3.087-0.357c0-0.141-0.007-0.273-0.021-0.399c0-0.014,0-0.042,0-0.084
		c-0.056-0.434-0.183-0.749-0.379-0.945c-0.099-0.084-0.188-0.167-0.272-0.252c-0.419-0.237-0.804-0.216-1.155,0.063
		c-0.042,0.014-0.09,0.049-0.146,0.104c-0.169,0.141-0.301,0.231-0.401,0.274c-0.028-0.028-0.056-0.042-0.084-0.042
		c-0.223-0.028-0.377-0.167-0.461-0.42c0-0.028,0-0.049,0-0.063c-0.015-0.168-0.021-0.322-0.021-0.462c0-0.028,0-0.07,0-0.126
		c0.012-0.294,0.042-0.531,0.084-0.714c0.085-0.251,0.181-0.448,0.293-0.587c0.016-0.056,0.036-0.084,0.064-0.084
		c0.027-0.028,0.056-0.056,0.084-0.084c0.124-0.112,0.272-0.147,0.441-0.105l0.062,0.021c0.099,0.042,0.196,0.175,0.295,0.399
		c0.012,0.028,0.04,0.077,0.084,0.147c0.209,0.364,0.56,0.497,1.051,0.399c0.141-0.056,0.272-0.112,0.396-0.168
		c0.225-0.111,0.436-0.329,0.63-0.65c0.044-0.084,0.078-0.162,0.106-0.23c0.042-0.112,0.105-0.239,0.19-0.379
		C161.569,92.987,162.605,93.154,163.671,93.238z M159.406,98.341c0.042-0.083,0.07-0.161,0.084-0.23
		c0.057-0.141,0.106-0.266,0.146-0.378c1.011,0.251,2.06,0.413,3.151,0.483c-0.238,1.415-0.449,2.821-0.629,4.221
		c-1.037-0.225-2.045-0.343-3.025-0.357c-0.028-0.154-0.05-0.288-0.063-0.399l-0.021-0.063c-0.07-0.477-0.202-0.791-0.399-0.945
		c-0.098-0.112-0.196-0.209-0.292-0.294c-0.421-0.225-0.792-0.21-1.115,0.041c-0.042,0.043-0.084,0.078-0.124,0.105
		c-0.141,0.154-0.274,0.246-0.401,0.273c-0.014-0.028-0.027-0.042-0.04-0.042c-0.252-0.042-0.412-0.175-0.484-0.399
		c-0.028-0.014-0.028-0.035,0-0.063c-0.04-0.168-0.063-0.315-0.063-0.441c-0.014-0.056-0.022-0.099-0.022-0.126
		c-0.027-0.308-0.012-0.546,0.045-0.714c0.04-0.237,0.118-0.427,0.229-0.567c0.016-0.042,0.036-0.077,0.063-0.105
		c0.015-0.028,0.036-0.042,0.064-0.042c0.124-0.125,0.272-0.174,0.441-0.146c0.027,0,0.048,0.021,0.062,0.063
		c0.099,0.013,0.211,0.141,0.335,0.378c0,0.042,0.028,0.077,0.084,0.105c0.241,0.378,0.582,0.524,1.03,0.441
		c0.141-0.057,0.273-0.126,0.399-0.21C159.056,98.832,159.24,98.636,159.406,98.341z M158.755,103.214
		c0.017-0.07,0.044-0.132,0.084-0.188c0.017-0.141,0.044-0.267,0.085-0.379c0.994,0.252,2.024,0.413,3.087,0.483
		c-0.196,1.415-0.357,2.814-0.483,4.201c-1.036-0.224-2.03-0.356-2.98-0.399c0-0.154-0.009-0.288-0.021-0.4
		c-0.016-0.027-0.022-0.048-0.022-0.062c-0.084-0.462-0.218-0.763-0.398-0.903c-0.099-0.14-0.204-0.245-0.316-0.315
		c-0.419-0.238-0.776-0.224-1.071,0.043c-0.067,0.027-0.104,0.069-0.104,0.125c-0.169,0.126-0.301,0.203-0.399,0.231
		c-0.042,0-0.07,0-0.084,0c-0.251-0.057-0.413-0.204-0.483-0.441c-0.028-0.014-0.042-0.028-0.042-0.043
		c-0.014-0.181-0.028-0.329-0.042-0.44c-0.028-0.056-0.042-0.105-0.042-0.147c-0.014-0.279,0-0.504,0.042-0.672
		c0.028-0.251,0.092-0.441,0.188-0.566c0.028-0.07,0.05-0.105,0.064-0.105c0.014-0.028,0.04-0.056,0.084-0.084
		c0.112-0.112,0.265-0.146,0.461-0.105l0.044,0.063c0.097,0.014,0.2,0.126,0.313,0.337c0.028,0.041,0.057,0.09,0.085,0.146
		c0.28,0.378,0.637,0.519,1.07,0.42c0.112-0.055,0.232-0.112,0.356-0.167C158.414,103.732,158.587,103.522,158.755,103.214z
		 M158.526,107.645c0.937,0.251,1.937,0.42,3.001,0.504c-0.139,1.399-0.251,2.792-0.335,4.179c-1.022-0.225-1.996-0.364-2.919-0.42
		c-0.027-0.155-0.05-0.28-0.063-0.378c0-0.042,0-0.07,0-0.084c-0.099-0.448-0.237-0.763-0.421-0.945
		c-0.11-0.098-0.217-0.195-0.313-0.293c-0.421-0.225-0.785-0.21-1.094,0.042c-0.04,0.028-0.068,0.063-0.083,0.105
		c-0.168,0.153-0.303,0.23-0.398,0.23c-0.044,0-0.07,0-0.084,0c-0.225-0.042-0.399-0.183-0.525-0.42c0-0.028,0-0.049,0-0.063
		c-0.028-0.153-0.057-0.3-0.084-0.441c0-0.055-0.009-0.091-0.021-0.105c-0.044-0.28-0.036-0.518,0.021-0.714
		c0.027-0.224,0.092-0.406,0.188-0.546c0.016-0.041,0.042-0.069,0.084-0.084c0-0.041,0.014-0.062,0.042-0.062
		c0.098-0.126,0.253-0.162,0.463-0.105c0-0.014,0.021-0.007,0.063,0.021c0.098,0.042,0.21,0.162,0.335,0.357
		c0,0.028,0.029,0.07,0.084,0.126c0.269,0.364,0.609,0.51,1.03,0.441c0.152-0.042,0.28-0.098,0.377-0.168
		c0.168-0.098,0.328-0.301,0.485-0.609c0.012-0.069,0.04-0.132,0.084-0.188C158.454,107.883,158.482,107.757,158.526,107.645z
		 M128.18,48.234c0.027,0.028,0.055,0.056,0.083,0.084l0.084,0.084l-1.028,1.868c0.125,0.267,0.237,0.511,0.336,0.736
		c0.588,1.162,1.112,2.421,1.574,3.78c0.742,2.268,1.323,4.865,1.743,7.791l0.987-0.105l0.378,3.612l-0.945,0.084
		c0,0.14,0.015,0.266,0.043,0.378c0.279-0.07,0.574-0.154,0.882-0.252c0.028,0.154,0.07,0.288,0.125,0.399
		c0.043,0.07,0.084,0.133,0.127,0.189c0.196,0.322,0.405,0.532,0.63,0.63c0.112,0.083,0.252,0.14,0.42,0.167
		c0.519,0.098,0.917-0.049,1.197-0.441c0.042-0.056,0.069-0.105,0.084-0.146c0.141-0.21,0.266-0.337,0.378-0.379l0.063-0.021
		c0.252-0.056,0.441-0.02,0.567,0.105c0.015,0.028,0.035,0.049,0.063,0.063c0.028,0.042,0.058,0.07,0.084,0.084
		c0.112,0.154,0.204,0.343,0.273,0.567c0.084,0.209,0.12,0.44,0.104,0.693c0,0.056,0,0.111,0,0.167
		c-0.028,0.14-0.048,0.28-0.062,0.421c0.014,0.027,0.014,0.048,0,0.063c-0.099,0.251-0.281,0.398-0.547,0.44
		c-0.014,0-0.049,0.007-0.105,0.021c-0.098,0-0.251-0.084-0.462-0.251c-0.042,0-0.091-0.028-0.146-0.084
		c-0.42-0.266-0.847-0.28-1.28-0.042c-0.099,0.084-0.204,0.183-0.316,0.294c-0.237,0.182-0.356,0.504-0.356,0.966
		c0,0.014,0,0.035,0,0.063c-0.014,0.112-0.014,0.245,0,0.399c-1.064,0.098-2.114,0.259-3.15,0.483
		c-0.364-1.386-0.679-2.786-0.945-4.2c0.42-0.042,0.827-0.098,1.219-0.168c-0.014-0.154-0.021-0.308-0.021-0.462l-0.715,0.063
		l-0.378-3.633l0.651-0.062c-0.421-2.814-0.987-5.328-1.701-7.54c-0.434-1.302-0.924-2.506-1.471-3.611
		c-0.027-0.084-0.069-0.162-0.126-0.232l-0.188,0.252c-0.014,0.056-0.042,0.084-0.084,0.084l-0.126,0.231l-0.63-0.231
		c-0.028,0-0.056-0.021-0.084-0.063l-4.411-4.221c-0.098,0.266-0.237,0.476-0.42,0.631c-0.028,0-0.056,0.021-0.084,0.062
		c-0.042,0.028-0.09,0.063-0.147,0.105c-0.083,0.056-0.181,0.099-0.293,0.126c-0.182,0.056-0.371,0.084-0.566,0.084
		c-1.737,0.42-3.375,1.561-4.915,3.423c-0.07,0.153-0.154,0.314-0.251,0.483c-0.532,0.826-1.212,1.372-2.038,1.638
		c-1.54,0.504-3.178-0.147-4.913-1.952V51.93h0.041c-1.596-1.638-2.813-3.857-3.654-6.656c-0.854-2.787-1.085-5.313-0.692-7.582
		h-0.022c0.435-2.464,1.435-3.92,3.004-4.369c0.713-0.223,1.483-0.195,2.31,0.084c2.282,0.21,5.586,2.022,9.912,5.439
		c0.028,0.042,0.063,0.069,0.105,0.084c0.225,0.111,0.441,0.28,0.651,0.503c0.042,0.07,0.083,0.12,0.125,0.147
		c0.098,0.084,0.162,0.161,0.189,0.23c0.028,0.014,0.049,0.042,0.063,0.084c0.28,0.323,0.524,0.708,0.735,1.156l7.98,7.14
		C128.13,48.206,128.151,48.22,128.18,48.234z M106.359,34.437c-0.84,0.294-1.449,1.007-1.827,2.142
		c0.112-0.07,0.231-0.112,0.357-0.126c0.91-0.35,1.939,0.267,3.087,1.849c0.966,1.33,1.778,3.052,2.437,5.166
		c0.644,2.114,0.923,3.997,0.84,5.649c-0.029,1.946-0.532,3.031-1.512,3.256h-0.021c0.784,0.475,1.527,0.615,2.227,0.42
		c0.574-0.183,1.029-0.546,1.365-1.093l-0.021-0.042c0.098-0.125,0.181-0.266,0.251-0.42v-0.021c0.267-0.504,0.469-1.126,0.609-1.87
		h-0.042c0.35-2.114,0.133-4.465-0.651-7.055c-0.799-2.59-1.932-4.663-3.403-6.217c-0.7-0.755-1.392-1.26-2.079-1.512l-0.084-0.063
		C107.375,34.29,106.864,34.269,106.359,34.437z M116.565,38.994c-2.114-1.582-3.927-2.743-5.438-3.486
		c1.455,1.61,2.597,3.767,3.423,6.469c0.84,2.715,1.084,5.173,0.735,7.37c0.644-0.559,1.295-1.014,1.953-1.364
		c0.364-0.126,0.679-0.253,0.945-0.379c0.825-0.322,1.26-0.468,1.302-0.441c0.111-0.027,0.224-0.048,0.336-0.063
		c0.125-0.139,0.202-0.357,0.23-0.65c0.028-0.056,0.049-0.126,0.063-0.21c0.014-0.013,0.014-0.041,0-0.083v-0.084
		c0.014,0,0.021-0.007,0.021-0.021c0.042-0.546,0-1.127-0.126-1.743c-0.07-0.364-0.167-0.749-0.293-1.155
		c-0.154-0.532-0.343-1.015-0.567-1.449V41.64c0-0.014-0.014-0.035-0.042-0.063c-0.209-0.378-0.427-0.707-0.65-0.987
		c-0.014-0.055-0.042-0.097-0.084-0.125c-0.014-0.014-0.035-0.042-0.063-0.084c0.042,0.056,0.091,0.098,0.147,0.126
		c-0.07-0.098-0.147-0.175-0.232-0.231c-0.223-0.224-0.385-0.357-0.483-0.399l-0.062-0.042c-0.434-0.322-0.812-0.594-1.135-0.819
		h0.021V38.994z M118.435,38.994c0.014,0.016,0.035,0.071,0.063,0.168l0.021-0.063C118.477,39.044,118.45,39.009,118.435,38.994z
		 M141.62,111.299c0.013,0.125,0.041,0.252,0.083,0.377c0.014,0.07,0.035,0.133,0.063,0.189c0.126,0.308,0.287,0.511,0.482,0.609
		c0.07,0.056,0.183,0.111,0.336,0.168c0.462,0.069,0.819-0.077,1.071-0.442c0.028-0.069,0.057-0.111,0.085-0.125
		c0.153-0.238,0.272-0.356,0.356-0.356c0.028-0.028,0.049-0.036,0.063-0.021c0.209-0.042,0.363-0.015,0.461,0.083
		c0.043,0.015,0.063,0.035,0.063,0.063c0.027,0.014,0.042,0.042,0.042,0.084c0.098,0.168,0.168,0.356,0.21,0.567
		c0.028,0.196,0.028,0.427,0,0.693c0,0.028-0.014,0.077-0.042,0.147c-0.014,0.125-0.042,0.266-0.084,0.42c0,0.014,0,0.035,0,0.063
		c-0.084,0.224-0.266,0.357-0.547,0.399c-0.014,0-0.041,0.007-0.084,0.021c-0.069,0-0.188-0.077-0.356-0.231
		c-0.027-0.042-0.07-0.077-0.125-0.104c-0.322-0.253-0.694-0.253-1.114,0c-0.098,0.055-0.188,0.139-0.272,0.251
		c-0.21,0.195-0.364,0.511-0.462,0.945c0,0.014,0,0.041,0,0.084c-0.014,0.097-0.035,0.224-0.063,0.377
		c-0.924,0.07-1.897,0.217-2.919,0.442c-0.027-1.386-0.098-2.765-0.21-4.138C139.694,111.768,140.682,111.579,141.62,111.299z
		 M137.041,96.368c-0.224-1.414-0.497-2.828-0.818-4.242c1.064-0.084,2.1-0.253,3.108-0.504c0.056,0.126,0.104,0.251,0.146,0.378
		c0.043,0.07,0.077,0.147,0.105,0.23c0.196,0.323,0.406,0.525,0.631,0.609c0.139,0.084,0.272,0.154,0.398,0.21
		c0.519,0.07,0.875-0.07,1.07-0.42c0.057-0.07,0.085-0.119,0.085-0.147c0.112-0.209,0.203-0.335,0.273-0.378
		c0.041-0.042,0.063-0.049,0.063-0.021c0.196-0.042,0.351-0.007,0.462,0.105c0.014,0.027,0.042,0.048,0.084,0.062
		c0.014,0.015,0.042,0.049,0.084,0.105c0.111,0.14,0.195,0.336,0.252,0.588c0.042,0.182,0.07,0.42,0.084,0.713
		c0,0.028,0,0.063,0,0.105c0,0.153-0.007,0.308-0.021,0.462c0.015,0.014,0.015,0.028,0,0.042c-0.069,0.252-0.223,0.406-0.462,0.462
		c-0.014-0.014-0.042-0.014-0.084,0c-0.098-0.014-0.23-0.098-0.398-0.253c-0.043-0.042-0.076-0.076-0.105-0.104
		c-0.35-0.281-0.735-0.302-1.155-0.063c-0.083,0.097-0.174,0.188-0.272,0.272c-0.21,0.183-0.336,0.497-0.378,0.945
		c-0.014,0.028-0.021,0.056-0.021,0.083c0,0.098-0.015,0.231-0.042,0.4C139.12,96.038,138.092,96.158,137.041,96.368z
		 M137.714,101.324c-0.196-1.428-0.406-2.835-0.631-4.222c1.078-0.07,2.121-0.238,3.13-0.504c0.042,0.126,0.09,0.26,0.146,0.4
		c0.027,0.069,0.056,0.132,0.084,0.188c0.183,0.322,0.363,0.532,0.546,0.629c0.141,0.056,0.272,0.112,0.399,0.168
		c0.462,0.112,0.812-0.021,1.05-0.399c0.042-0.056,0.076-0.105,0.104-0.146c0.112-0.224,0.218-0.344,0.315-0.357
		c0.015-0.042,0.028-0.056,0.043-0.042c0.195-0.027,0.35,0.014,0.461,0.126c0.042,0.014,0.063,0.035,0.063,0.063
		c0.028,0.014,0.057,0.049,0.085,0.105c0.098,0.125,0.175,0.314,0.231,0.566c0.026,0.168,0.034,0.399,0.02,0.693
		c0,0.042,0,0.091,0,0.146c0,0.126-0.02,0.273-0.062,0.441c0,0.028-0.008,0.049-0.021,0.063c-0.07,0.224-0.231,0.356-0.483,0.399
		h-0.063c-0.099,0-0.23-0.076-0.399-0.231c-0.042-0.028-0.077-0.063-0.105-0.105c-0.308-0.266-0.679-0.287-1.112-0.063
		c-0.099,0.084-0.196,0.182-0.295,0.294c-0.209,0.167-0.343,0.482-0.398,0.945c0,0.013,0,0.041,0,0.083
		c-0.042,0.084-0.069,0.204-0.084,0.357C139.743,100.966,138.735,101.1,137.714,101.324z M138.344,106.196
		c-0.141-1.373-0.301-2.765-0.483-4.179c1.064-0.07,2.086-0.232,3.066-0.483c0.042,0.112,0.069,0.225,0.084,0.336
		c0.042,0.084,0.084,0.161,0.125,0.231c0.154,0.308,0.323,0.51,0.504,0.608c0.127,0.07,0.246,0.126,0.357,0.168
		c0.449,0.098,0.799-0.049,1.05-0.441c0.043-0.028,0.07-0.063,0.085-0.105c0.112-0.209,0.224-0.336,0.335-0.378l0.043-0.021
		c0.182-0.042,0.335-0.007,0.462,0.105c0.027,0.028,0.056,0.049,0.084,0.063c0.014,0,0.028,0.042,0.042,0.125
		c0.098,0.126,0.167,0.301,0.21,0.525c0.042,0.197,0.049,0.427,0.021,0.694c0,0.041,0,0.09,0,0.146
		c-0.014,0.126-0.042,0.281-0.083,0.462l-0.021,0.042c-0.084,0.238-0.245,0.385-0.482,0.441c-0.028,0-0.057,0-0.085,0
		c-0.098-0.028-0.224-0.119-0.377-0.272c-0.015-0.028-0.057-0.056-0.127-0.084c-0.294-0.28-0.651-0.293-1.071-0.042
		c-0.111,0.07-0.21,0.162-0.294,0.273c-0.21,0.168-0.35,0.476-0.42,0.924c0,0.028,0,0.056,0,0.084
		c-0.028,0.112-0.049,0.245-0.063,0.399C140.352,105.86,139.365,105.986,138.344,106.196z M138.7,111.215
		c-0.084-1.414-0.202-2.808-0.356-4.18c1.064-0.084,2.071-0.266,3.023-0.545c0.015,0.125,0.042,0.251,0.084,0.378
		c0.015,0.083,0.035,0.161,0.063,0.23c0.14,0.309,0.301,0.497,0.482,0.567c0.112,0.084,0.231,0.154,0.357,0.209
		c0.42,0.07,0.763-0.077,1.029-0.441c0.056-0.056,0.083-0.097,0.083-0.125c0.155-0.21,0.274-0.329,0.357-0.358
		c0.028-0.027,0.056-0.041,0.084-0.041c0.183-0.042,0.323-0.007,0.42,0.104c0.042,0.014,0.07,0.035,0.084,0.063
		c0.028,0.014,0.05,0.049,0.063,0.105c0.112,0.112,0.183,0.293,0.21,0.546c0.027,0.196,0.027,0.427,0,0.693
		c0,0.028-0.014,0.07-0.042,0.126c-0.015,0.14-0.035,0.287-0.063,0.441c-0.015,0.014-0.021,0.035-0.021,0.063
		c-0.112,0.224-0.28,0.364-0.504,0.42c-0.028,0-0.057,0-0.084,0c-0.099,0-0.224-0.077-0.378-0.231
		c-0.042-0.042-0.084-0.077-0.127-0.105c-0.279-0.251-0.636-0.265-1.07-0.041c-0.098,0.084-0.196,0.182-0.294,0.294
		c-0.21,0.167-0.364,0.483-0.463,0.945c0.028,0,0.028,0.014,0,0.042c-0.013,0.125-0.026,0.258-0.041,0.399
		C140.675,110.843,139.708,110.991,138.7,111.215z M137.23,72.007c0.14,0.154,0.245,0.343,0.315,0.567
		c0.069,0.209,0.104,0.448,0.104,0.713c0.015,0.056,0.021,0.105,0.021,0.147c0,0.154,0,0.301,0,0.441
		c0.027,0.028,0.02,0.049-0.021,0.063c-0.07,0.266-0.238,0.413-0.504,0.441l-0.105,0.02c-0.084-0.013-0.244-0.097-0.482-0.251
		c-0.057-0.042-0.098-0.084-0.127-0.125c-0.42-0.267-0.84-0.273-1.26-0.021c-0.112,0.097-0.217,0.203-0.314,0.315
		c-0.195,0.181-0.294,0.497-0.294,0.945v0.042c0,0.14,0,0.288,0,0.441c-1.022,0.07-2.052,0.225-3.087,0.463
		c-0.435-1.414-0.84-2.829-1.218-4.243c1.077-0.112,2.142-0.308,3.191-0.587c0.056,0.125,0.112,0.245,0.168,0.357
		c0.042,0.084,0.084,0.153,0.126,0.209c0.21,0.335,0.428,0.539,0.651,0.609c0.126,0.084,0.28,0.139,0.462,0.167
		c0.504,0.098,0.882-0.048,1.134-0.441c0.043-0.055,0.069-0.097,0.084-0.125c0.14-0.197,0.259-0.322,0.356-0.379l0.042-0.041
		c0.211-0.028,0.394,0.007,0.547,0.105c0.042,0.027,0.07,0.041,0.084,0.041C137.146,71.937,137.188,71.979,137.23,72.007z
		 M141.515,87.169c0.112,0.168,0.202,0.356,0.272,0.567c0.084,0.225,0.134,0.462,0.147,0.714c0,0.042,0,0.091,0,0.147
		c0,0.126,0,0.279,0,0.462c0,0.014,0,0.028,0,0.042c-0.042,0.266-0.183,0.413-0.42,0.441l-0.084,0.021
		c-0.084-0.014-0.23-0.099-0.441-0.253c-0.042-0.042-0.077-0.083-0.105-0.126c-0.392-0.28-0.79-0.294-1.196-0.041
		c-0.099,0.069-0.203,0.16-0.315,0.272c-0.196,0.182-0.293,0.511-0.293,0.987v0.041c0,0.112,0,0.246,0,0.4
		c-1.022,0.041-2.045,0.162-3.067,0.357c-0.35-1.415-0.734-2.829-1.154-4.242c1.078-0.07,2.106-0.252,3.087-0.546
		c0.056,0.153,0.119,0.301,0.189,0.441c0.041,0.07,0.083,0.132,0.125,0.189c0.211,0.336,0.435,0.545,0.673,0.629
		c0.141,0.056,0.287,0.126,0.44,0.21c0.504,0.097,0.861-0.056,1.071-0.463c0.028-0.041,0.049-0.076,0.063-0.104
		c0.099-0.21,0.204-0.335,0.315-0.378c0-0.014,0.007-0.021,0.021-0.021c0.197-0.042,0.358-0.007,0.483,0.105
		c0.042,0.014,0.077,0.034,0.105,0.062C141.444,87.099,141.473,87.127,141.515,87.169z M139.015,82.339
		c0.112-0.195,0.231-0.322,0.357-0.378l0.021-0.021c0.195-0.042,0.364-0.007,0.503,0.105c0.043,0.028,0.077,0.049,0.105,0.063
		c0.028,0.042,0.057,0.069,0.084,0.084c0.112,0.153,0.217,0.343,0.315,0.566c0.084,0.239,0.14,0.49,0.168,0.756
		c0,0.028,0,0.077,0,0.147c0.015,0.14,0.021,0.287,0.021,0.441c0,0.028,0,0.049,0,0.063c-0.057,0.267-0.211,0.42-0.462,0.462
		c-0.015,0-0.043,0-0.085,0c-0.098,0-0.251-0.084-0.462-0.253c-0.028-0.027-0.063-0.069-0.105-0.125
		c-0.434-0.266-0.854-0.288-1.26-0.063c-0.125,0.099-0.217,0.196-0.272,0.294c-0.21,0.196-0.308,0.518-0.294,0.966
		c0,0.028,0,0.049,0,0.063c0.015,0.112,0.021,0.246,0.021,0.399c-1.022,0.056-2.038,0.189-3.045,0.399
		c-0.421-1.414-0.868-2.834-1.345-4.263c1.078-0.07,2.114-0.245,3.108-0.525c0.057,0.126,0.125,0.246,0.21,0.358
		c0.056,0.083,0.091,0.16,0.104,0.23c0.224,0.322,0.463,0.525,0.714,0.609c0.154,0.083,0.302,0.146,0.441,0.188
		c0.532,0.112,0.903-0.028,1.113-0.42C139.002,82.43,139.015,82.381,139.015,82.339z M139.162,78.937V79
		c-0.056,0.267-0.218,0.406-0.483,0.42c-0.014,0.028-0.042,0.042-0.084,0.042c-0.097-0.028-0.259-0.12-0.483-0.273
		c-0.041-0.014-0.09-0.049-0.146-0.105c-0.435-0.267-0.861-0.274-1.281-0.021c-0.099,0.069-0.183,0.16-0.253,0.272
		c-0.195,0.196-0.294,0.518-0.294,0.966c0.015,0.028,0.015,0.049,0,0.063c0.015,0.154,0.021,0.287,0.021,0.399
		c-0.98,0.056-1.995,0.203-3.045,0.441c-0.462-1.414-0.91-2.829-1.345-4.242c1.079-0.084,2.114-0.281,3.108-0.588
		c0.085,0.126,0.154,0.246,0.211,0.357c0.055,0.098,0.09,0.175,0.104,0.231c0.224,0.322,0.462,0.532,0.714,0.629
		c0.14,0.084,0.28,0.141,0.42,0.168c0.561,0.098,0.931-0.049,1.113-0.441c0.042-0.056,0.077-0.105,0.105-0.147
		c0.111-0.195,0.216-0.308,0.314-0.336c0.028-0.042,0.042-0.056,0.042-0.042c0.209-0.056,0.398-0.028,0.567,0.084
		c0.042,0.042,0.077,0.063,0.105,0.063c0.013,0.042,0.041,0.076,0.083,0.105c0.126,0.153,0.238,0.35,0.337,0.587
		c0.055,0.21,0.104,0.455,0.146,0.735c0,0.043,0,0.077,0,0.105C139.155,78.629,139.162,78.783,139.162,78.937z M155.187,112.979
		c0-0.042,0.028-0.07,0.084-0.084c0.097-0.099,0.251-0.126,0.461-0.084l0.021,0.021c0.112,0,0.238,0.126,0.379,0.378
		c0.014,0,0.042,0.042,0.084,0.126c0.267,0.35,0.63,0.497,1.093,0.441c0.124-0.056,0.23-0.112,0.314-0.168
		c0.211-0.111,0.371-0.322,0.483-0.629c0.012-0.056,0.028-0.119,0.04-0.189c0.044-0.112,0.084-0.238,0.128-0.378
		c0.91,0.28,1.889,0.469,2.939,0.567c-0.112,1.371-0.188,2.765-0.23,4.179c-1.009-0.252-1.967-0.413-2.877-0.483
		c-0.028-0.153-0.05-0.28-0.064-0.378l-0.02-0.063c-0.099-0.448-0.253-0.763-0.461-0.945c-0.101-0.125-0.197-0.217-0.297-0.273
		c-0.419-0.251-0.79-0.245-1.11,0.021c-0.028,0.014-0.064,0.042-0.106,0.084c-0.167,0.153-0.295,0.23-0.379,0.23
		c-0.04-0.014-0.068-0.021-0.084-0.021c-0.265-0.042-0.447-0.174-0.546-0.399c0-0.028,0-0.049,0-0.063
		c-0.04-0.14-0.068-0.279-0.084-0.42c-0.012-0.042-0.021-0.084-0.021-0.125c-0.042-0.281-0.042-0.519,0-0.715
		c0.028-0.209,0.091-0.399,0.188-0.567C155.15,113,155.171,112.979,155.187,112.979z M155.479,117.747
		c0.084,0.042,0.196,0.167,0.337,0.378c0.014,0.042,0.048,0.091,0.104,0.146c0.253,0.365,0.618,0.504,1.093,0.42
		c0.141-0.055,0.267-0.104,0.379-0.146c0.181-0.112,0.329-0.308,0.441-0.588c0.028-0.084,0.062-0.153,0.104-0.209
		c0.014-0.126,0.042-0.246,0.084-0.357c0.924,0.266,1.91,0.461,2.961,0.587c-0.057,1.372-0.106,2.751-0.146,4.138
		c-1.051-0.225-2.053-0.386-3.003-0.483c-0.017-0.154-0.028-0.288-0.044-0.4c-0.028-0.013-0.04-0.034-0.04-0.063
		c-0.085-0.476-0.233-0.785-0.441-0.924c-0.101-0.126-0.204-0.225-0.316-0.295c-0.447-0.251-0.832-0.245-1.155,0.021
		c-0.056,0.029-0.09,0.056-0.104,0.084c-0.196,0.14-0.343,0.217-0.44,0.231c-0.015,0-0.042,0-0.084,0
		c-0.237-0.028-0.413-0.168-0.525-0.42c0-0.014,0-0.035,0-0.063c-0.068-0.154-0.104-0.293-0.104-0.42c0-0.056,0-0.105,0-0.147
		c-0.028-0.28-0.028-0.51,0-0.693c0.042-0.225,0.112-0.399,0.209-0.525c0.016-0.07,0.044-0.112,0.084-0.126
		c0-0.014,0.021-0.035,0.063-0.063c0.112-0.111,0.265-0.146,0.462-0.104L155.479,117.747z M142.081,121.212
		c0.014,0.125,0.042,0.251,0.084,0.377c0.042,0.069,0.07,0.14,0.084,0.209c0.154,0.295,0.322,0.49,0.505,0.588
		c0.126,0.07,0.258,0.126,0.398,0.168c0.504,0.07,0.896-0.077,1.176-0.441c0.028-0.07,0.049-0.112,0.063-0.126
		c0.154-0.21,0.286-0.343,0.398-0.399h0.021c0.237-0.042,0.42-0.007,0.546,0.105c0.028,0,0.05,0.02,0.063,0.062
		c0.041,0,0.07,0.028,0.084,0.084c0.111,0.126,0.188,0.314,0.23,0.567c0.057,0.153,0.063,0.385,0.021,0.692
		c0.028,0.028,0.028,0.07,0,0.126c0,0.154-0.021,0.301-0.063,0.441c0,0.014-0.007,0.035-0.021,0.063
		c-0.07,0.238-0.252,0.385-0.547,0.441c-0.014-0.014-0.041-0.014-0.084,0c-0.098,0-0.252-0.084-0.461-0.253
		c-0.015-0.014-0.05-0.041-0.105-0.083c-0.364-0.281-0.77-0.288-1.218-0.021c-0.141,0.07-0.26,0.16-0.356,0.272
		c-0.211,0.168-0.372,0.49-0.484,0.966c0,0.028,0,0.049,0,0.062c-0.014,0.141-0.034,0.274-0.063,0.4
		c-1.036,0.084-2.121,0.259-3.256,0.524c-0.056-1.427-0.097-2.828-0.125-4.2C140.052,121.729,141.088,121.52,142.081,121.212z
		 M144.056,117.011c0.125-0.209,0.244-0.335,0.356-0.378c0.042-0.028,0.063-0.035,0.063-0.021c0.21-0.042,0.364-0.007,0.462,0.105
		c0.057,0,0.084,0.021,0.084,0.063c0.014,0.014,0.035,0.042,0.063,0.084c0.083,0.153,0.146,0.343,0.188,0.566
		c0.042,0.183,0.042,0.413,0,0.694c0.014,0.042,0.014,0.077,0,0.105c0,0.14-0.028,0.294-0.084,0.461c0.014,0,0.014,0.021,0,0.063
		c-0.111,0.225-0.294,0.364-0.546,0.42c-0.042,0-0.069,0-0.084,0c-0.098-0.014-0.238-0.09-0.42-0.23
		c-0.028-0.028-0.056-0.056-0.084-0.084c-0.35-0.28-0.742-0.294-1.176-0.042c-0.112,0.07-0.211,0.176-0.295,0.315
		c-0.224,0.14-0.385,0.449-0.482,0.924c0.027,0,0.027,0.021,0,0.063c-0.043,0.112-0.063,0.246-0.063,0.399
		c-0.967,0.084-1.975,0.246-3.025,0.483c-0.026-1.386-0.063-2.764-0.104-4.136c1.021-0.126,2.009-0.336,2.961-0.631
		c0.028,0.141,0.05,0.266,0.063,0.378c0.042,0.07,0.069,0.147,0.084,0.231c0.111,0.28,0.266,0.477,0.462,0.587
		c0.111,0.042,0.238,0.091,0.378,0.147c0.476,0.084,0.833-0.056,1.071-0.42C144.014,117.074,144.056,117.025,144.056,117.011z
		 M155.103,122.723c0.096,0.042,0.225,0.168,0.377,0.378c0.014,0.014,0.042,0.056,0.084,0.126c0.28,0.364,0.666,0.518,1.154,0.462
		c0.141-0.056,0.267-0.112,0.379-0.168c0.211-0.111,0.392-0.314,0.546-0.608c0-0.07,0.021-0.133,0.062-0.189
		c0.028-0.14,0.057-0.266,0.085-0.378c1.01,0.294,2.044,0.504,3.109,0.63c-0.043,1.372-0.091,2.765-0.146,4.179
		c-1.121-0.267-2.205-0.441-3.256-0.525c-0.014-0.125-0.036-0.245-0.064-0.357c0-0.042,0-0.077,0-0.105
		c-0.112-0.477-0.272-0.784-0.48-0.923c-0.101-0.127-0.205-0.231-0.317-0.316c-0.447-0.251-0.854-0.246-1.217,0.021
		c-0.056,0.042-0.098,0.077-0.126,0.105c-0.211,0.153-0.371,0.23-0.483,0.23c-0.028,0-0.056,0-0.084,0
		c-0.278-0.056-0.463-0.195-0.548-0.42c-0.012-0.014-0.02-0.035-0.02-0.063c-0.04-0.153-0.063-0.308-0.063-0.462
		c0-0.056,0-0.097,0-0.125c-0.014-0.295,0-0.525,0.042-0.694c0.057-0.224,0.141-0.413,0.253-0.566c0-0.042,0.028-0.07,0.084-0.084
		c0-0.028,0.021-0.049,0.063-0.063c0.126-0.112,0.295-0.147,0.503-0.105C155.038,122.716,155.061,122.723,155.103,122.723z
		 M151.47,140.806h4.45c0.057,5.361,0.422,10.611,1.093,15.75c0,0.042,0,0.084,0,0.126l1.049,6.51
		c0.477,2.17,0.71,4.054,0.693,5.649c0,0.477-0.028,0.932-0.084,1.365c-0.04,0.237-0.091,0.461-0.145,0.672
		c-0.337,1.497-1.106,2.737-2.312,3.718c-1.806,1.441-4.025,2.162-6.657,2.162c-2.646,0-4.893-0.735-6.741-2.204
		c-1.203-0.953-1.975-2.179-2.311-3.676c-0.196-0.798-0.266-1.673-0.21-2.625c0-0.153,0.014-0.308,0.043-0.463
		c0.013-0.223,0.041-0.44,0.083-0.65c0.042-0.196,0.07-0.378,0.084-0.546c0.21-1.162,0.399-2.339,0.567-3.528
		c1.092-7.126,1.751-14.546,1.974-22.26h4.516v2.876h-1.722v5.459h7.265v-5.459h-1.636V140.806z M152.709,126.713
		c0.293,0.042,0.587,0.084,0.882,0.126c0.531,0.098,1.07,0.203,1.616,0.315c0.404,0.07,0.798,0.16,1.175,0.272
		c1.094,0.308,1.982,0.708,2.668,1.198c1.918,1.371,2.135,3.458,0.651,6.258c-1.175,2.17-1.997,4.018-2.458,5.544
		c-0.208,0.645-0.343,1.226-0.398,1.743c-0.082-0.643-0.133-1.385-0.146-2.225h-5.229l-0.021-11.362
		c-0.323-0.518-0.883-0.797-1.681-0.84c-1.078-0.055-1.82,0.182-2.227,0.714v11.508h-5.229l-0.126,1.891
		c-0.112-0.476-0.23-0.952-0.357-1.428c-0.616-2.058-1.513-4.074-2.688-6.048c-1.33-2.855-0.876-4.879,1.364-6.069
		C144.245,126.686,148.311,126.153,152.709,126.713z M146.681,144.48h0.882v2.226l0.022,0.042c0.307,0.49,0.866,0.756,1.68,0.798
		c1.034,0.057,1.771-0.183,2.205-0.715v-2.351h0.838v3.885h-5.627V144.48z M144.056,170.73c0,0.056,0,0.105,0,0.147
		c0.056,1.05,0.603,1.946,1.638,2.688c1.105,0.77,2.449,1.154,4.032,1.154c1.568,0,2.905-0.385,4.01-1.154
		c1.066-0.742,1.626-1.639,1.682-2.688c0-0.042,0-0.092,0-0.147c0-1.105-0.56-2.051-1.682-2.835c-1.104-0.77-2.441-1.154-4.01-1.154
		c-1.583,0-2.927,0.385-4.032,1.154C144.602,168.68,144.056,169.625,144.056,170.73z M147.437,171.612
		c0.293,1.106,0.975,1.583,2.037,1.429c0.267-0.042,0.497-0.183,0.693-0.42c0.28-0.351,0.581-0.322,0.902,0.084
		c0.154,0.279,0.232,0.686,0.232,1.218c-0.854,0.168-1.708,0.196-2.563,0.084c-1.988-0.336-3.179-1.135-3.571-2.395H147.437z
		 M147.395,170.5h-2.373c0.322-1.554,1.33-2.513,3.024-2.877l-0.02-0.042c0.012,0,0.027,0,0.04,0
		c0.267,0.195,0.412,0.294,0.44,0.294c0.099,0.07,0.211,0.133,0.337,0.188c0.421,0.126,0.77,0.043,1.051-0.252
		c0.04-0.042,0.068-0.07,0.084-0.084c0.152-0.168,0.28-0.259,0.377-0.272l0.042-0.043c0.196,0,0.356,0.05,0.483,0.147
		c0.014,0.015,0.027,0.035,0.042,0.063c0.028,0.027,0.05,0.063,0.062,0.104c0.085,0.14,0.141,0.302,0.169,0.482
		c0.028,0.197,0.021,0.399-0.021,0.61c0,0.042-0.008,0.076-0.021,0.104c-0.026,0.111-0.063,0.238-0.104,0.378
		c0,0.015,0,0.035,0,0.063c-0.112,0.182-0.287,0.272-0.525,0.272c-0.028,0.028-0.05,0.042-0.062,0.042
		c-0.112-0.028-0.245-0.119-0.401-0.273c-0.028-0.027-0.056-0.063-0.084-0.104c-0.084-0.084-0.167-0.133-0.251-0.147
		c-0.084-0.042-0.162-0.069-0.23-0.084c-0.196-0.041-0.379-0.048-0.545-0.021l-0.525,0.168
		C147.99,169.429,147.661,169.855,147.395,170.5z M151.552,169.87c0.03-0.056,0.057-0.12,0.085-0.189
		c0.027-0.098,0.05-0.203,0.062-0.314c0.938,0.125,1.708,0.132,2.312,0.021c0.323,0.462,0.512,0.959,0.567,1.491
		c0.042,0.63-0.099,1.323-0.421,2.078c-0.798,0.043-1.652,0.078-2.563,0.105c0-0.112-0.012-0.224-0.042-0.336
		c-0.014,0-0.02-0.021-0.02-0.063c-0.099-0.322-0.225-0.547-0.379-0.672c-0.028-0.028-0.063-0.05-0.104-0.063
		c-0.084-0.069-0.183-0.133-0.295-0.189c-0.419-0.181-0.775-0.14-1.07,0.127c-0.028,0.042-0.062,0.07-0.106,0.083
		c-0.14,0.154-0.256,0.245-0.356,0.273c-0.04,0-0.068,0-0.084,0c-0.251,0-0.425-0.098-0.525-0.294
		c-0.012-0.014-0.021-0.035-0.021-0.063c-0.04-0.127-0.067-0.246-0.084-0.357c0-0.042-0.014-0.084-0.04-0.126
		c-0.016-0.183-0.016-0.35,0-0.504c0-0.028,0-0.057,0-0.084c0.026-0.196,0.091-0.371,0.188-0.525c0-0.015,0.012-0.041,0.04-0.084
		c0-0.014,0.022-0.034,0.064-0.063c0.112-0.112,0.265-0.154,0.461-0.126h0.044c0.097,0.014,0.217,0.104,0.357,0.272
		c0.04,0.042,0.067,0.084,0.084,0.126c0.278,0.279,0.629,0.35,1.048,0.211c0.141-0.028,0.259-0.085,0.357-0.169
		c0.014,0,0.028-0.007,0.042-0.021C151.321,170.317,151.454,170.136,151.552,169.87z M155.207,177.724v4.284
		c-1.107-0.069-2.191-0.048-3.256,0.063c-0.012-0.154-0.048-0.286-0.104-0.398c0-0.028,0-0.049,0-0.063
		c-0.141-0.434-0.329-0.728-0.567-0.882c-0.11-0.097-0.238-0.174-0.379-0.23c-0.489-0.168-0.91-0.091-1.259,0.23
		c-0.042,0.057-0.076,0.105-0.104,0.147c-0.185,0.183-0.328,0.287-0.44,0.314c-0.028,0-0.057,0-0.085,0
		c-0.28,0-0.488-0.119-0.629-0.356c-0.016,0-0.022-0.014-0.022-0.042c-0.056-0.154-0.105-0.301-0.146-0.441
		c0-0.042-0.008-0.09-0.021-0.146c-0.057-0.267-0.076-0.504-0.063-0.715c0.04-0.223,0.097-0.42,0.169-0.587
		c0.04-0.042,0.068-0.07,0.084-0.084c0.028-0.042,0.048-0.07,0.063-0.084c0.138-0.141,0.322-0.211,0.545-0.211l0.064,0.042
		c0.11,0.016,0.25,0.119,0.419,0.314c0.042,0.016,0.076,0.051,0.104,0.105c0.352,0.322,0.771,0.399,1.262,0.231
		c0.154-0.056,0.286-0.133,0.398-0.231c0.211-0.139,0.385-0.371,0.525-0.692c0.014-0.07,0.036-0.147,0.064-0.23
		c0.027-0.126,0.056-0.26,0.084-0.4C152.987,177.787,154.088,177.808,155.207,177.724z M150.271,180.979
		c0.225-0.015,0.406,0.056,0.545,0.209c0.016,0.015,0.036,0.028,0.064,0.042c0.027,0.042,0.042,0.085,0.042,0.127
		c0.126,0.168,0.194,0.363,0.21,0.588c0.015,0.195-0.016,0.435-0.084,0.714c0,0.042,0,0.084,0,0.126
		c-0.042,0.153-0.084,0.308-0.126,0.463c-0.015,0.013-0.022,0.026-0.022,0.041c-0.14,0.238-0.356,0.344-0.649,0.315
		c-0.028,0-0.056,0-0.084,0c-0.099-0.014-0.245-0.119-0.441-0.315c-0.027-0.028-0.056-0.063-0.084-0.104
		c-0.365-0.323-0.79-0.406-1.281-0.253c-0.14,0.07-0.267,0.154-0.379,0.253c-0.236,0.126-0.425,0.413-0.565,0.86
		c0,0.015,0,0.028,0,0.043c-0.044,0.139-0.078,0.272-0.105,0.398c-1.078-0.084-2.163-0.098-3.255-0.042v-4.263
		c1.119,0.055,2.219,0.027,3.297-0.084c0.028,0.125,0.056,0.258,0.084,0.398c0.028,0.07,0.048,0.146,0.064,0.23
		c0.14,0.323,0.313,0.554,0.525,0.693c0.109,0.084,0.244,0.168,0.396,0.252c0.491,0.154,0.91,0.07,1.261-0.252
		c0.028-0.042,0.063-0.084,0.106-0.126c0.166-0.195,0.307-0.301,0.419-0.314H150.271z M148.36,178.061
		c-0.14,0.069-0.267,0.146-0.379,0.23c-0.236,0.141-0.425,0.434-0.565,0.882v0.063c-0.044,0.112-0.078,0.237-0.105,0.378
		c-1.078-0.099-2.163-0.119-3.255-0.063v-3.401c1.849,1.064,4.207,1.484,7.077,1.26c-0.016,0.112-0.042,0.238-0.084,0.378
		c0,0.042,0,0.091,0,0.147c-0.042,0.126-0.084,0.266-0.126,0.42c-0.015,0.014-0.022,0.035-0.022,0.063
		c-0.14,0.224-0.356,0.329-0.649,0.315c-0.028,0-0.056,0-0.084,0c-0.099-0.028-0.245-0.134-0.441-0.315
		c-0.027-0.027-0.056-0.07-0.084-0.126C149.276,177.969,148.852,177.892,148.36,178.061z M148.383,183.835
		c0.141-0.126,0.32-0.188,0.545-0.188l0.063,0.021c0.112,0.013,0.253,0.118,0.421,0.314c0.042,0.042,0.082,0.077,0.126,0.105
		c0.335,0.321,0.754,0.398,1.259,0.23c0.141-0.057,0.273-0.134,0.399-0.23c0.211-0.127,0.379-0.351,0.503-0.673
		c0.017-0.084,0.036-0.161,0.064-0.23c0.042-0.141,0.07-0.273,0.084-0.399c1.079,0.111,2.186,0.133,3.318,0.063v4.285
		c-1.105-0.07-2.191-0.057-3.254,0.041c-0.044-0.153-0.084-0.287-0.129-0.398c0-0.015,0-0.036,0-0.063
		c-0.124-0.435-0.313-0.729-0.564-0.882c-0.112-0.07-0.245-0.147-0.401-0.232c-0.475-0.167-0.895-0.09-1.259,0.232
		c-0.015,0.055-0.042,0.104-0.084,0.146c-0.197,0.197-0.337,0.302-0.419,0.316c-0.043,0-0.085,0-0.127,0
		c-0.28,0-0.489-0.112-0.629-0.337l-0.022-0.063c-0.042-0.153-0.084-0.294-0.126-0.42c0-0.041-0.008-0.09-0.021-0.146
		c-0.056-0.267-0.076-0.497-0.063-0.693c0.044-0.224,0.104-0.42,0.188-0.588c0.016-0.056,0.044-0.098,0.084-0.126
		C148.354,183.877,148.367,183.849,148.383,183.835z M144.181,194.608l-0.02-4.264c1.119,0.057,2.225,0.028,3.317-0.084
		c0.014,0.154,0.042,0.288,0.084,0.4c0.015,0.083,0.034,0.16,0.063,0.23c0.126,0.35,0.295,0.587,0.505,0.714
		c0.112,0.069,0.245,0.146,0.399,0.231c0.489,0.153,0.908,0.077,1.261-0.231c0.054-0.057,0.088-0.104,0.104-0.146
		c0.18-0.183,0.337-0.288,0.461-0.316c0.028,0,0.048,0,0.064,0c0.208,0,0.376,0.07,0.503,0.211c0.028,0.014,0.056,0.035,0.084,0.063
		c0.028,0.027,0.05,0.062,0.063,0.104c0.1,0.168,0.154,0.364,0.168,0.588c0.028,0.196,0.014,0.434-0.042,0.714
		c0,0.043-0.014,0.091-0.042,0.147c-0.028,0.14-0.063,0.286-0.104,0.44c0,0.015-0.014,0.028-0.042,0.042
		c-0.126,0.238-0.329,0.343-0.609,0.315c-0.028,0-0.063,0-0.106,0c-0.11-0.015-0.25-0.119-0.419-0.315
		c-0.042-0.027-0.076-0.063-0.104-0.105c-0.362-0.321-0.798-0.405-1.301-0.251c-0.128,0.069-0.24,0.153-0.337,0.251
		c-0.267,0.127-0.457,0.413-0.567,0.861c-0.014,0.015-0.021,0.042-0.021,0.084c-0.04,0.112-0.076,0.238-0.104,0.378
		C146.359,194.573,145.273,194.553,144.181,194.608z M147.479,189.148c0,0.014,0,0.042,0,0.084
		c-0.042,0.111-0.084,0.237-0.126,0.378c-1.063-0.099-2.135-0.119-3.213-0.063l-0.042-4.263c1.134,0.07,2.24,0.042,3.318-0.084
		c0.013,0.154,0.041,0.286,0.085,0.398c0.027,0.085,0.048,0.162,0.062,0.232c0.127,0.35,0.295,0.587,0.504,0.713
		c0.126,0.085,0.26,0.162,0.4,0.231c0.503,0.168,0.922,0.091,1.259-0.231c0.042-0.056,0.085-0.098,0.125-0.126
		c0.168-0.195,0.309-0.301,0.421-0.314c0.044,0,0.07,0,0.084,0c0.21-0.028,0.385,0.035,0.525,0.189
		c0.014,0.013,0.027,0.034,0.042,0.063c0.042,0.041,0.07,0.076,0.084,0.104c0.099,0.169,0.162,0.371,0.188,0.609
		c0.014,0.21-0.006,0.448-0.063,0.714c0,0.042-0.008,0.091-0.021,0.147c-0.042,0.126-0.082,0.266-0.127,0.42
		c-0.012,0.014-0.033,0.035-0.062,0.063c-0.112,0.223-0.307,0.335-0.588,0.335c-0.044,0-0.072,0-0.084,0
		c-0.112-0.042-0.267-0.154-0.461-0.335c-0.016-0.043-0.044-0.085-0.084-0.127c-0.365-0.321-0.792-0.405-1.283-0.251
		c-0.141,0.068-0.265,0.153-0.377,0.251C147.793,188.427,147.604,188.714,147.479,189.148z M155.103,187.931l-0.022,4.242
		c-1.092-0.07-2.177-0.05-3.253,0.063c-0.028-0.154-0.064-0.279-0.106-0.378c0-0.027-0.006-0.056-0.022-0.084
		c-0.11-0.434-0.292-0.729-0.545-0.882c-0.112-0.099-0.23-0.176-0.357-0.23c-0.505-0.169-0.938-0.085-1.303,0.251
		c-0.026,0.042-0.062,0.085-0.104,0.126c-0.168,0.182-0.309,0.287-0.419,0.315c-0.027,0-0.062,0-0.105,0
		c-0.281,0-0.481-0.119-0.609-0.356l-0.041-0.021c-0.044-0.154-0.078-0.308-0.104-0.462c-0.03-0.028-0.044-0.063-0.044-0.105
		c-0.057-0.279-0.068-0.519-0.04-0.714c0.012-0.252,0.067-0.462,0.166-0.63c0.014-0.042,0.042-0.07,0.084-0.084
		c0.014-0.015,0.034-0.043,0.063-0.084c0.128-0.14,0.295-0.196,0.505-0.168c0.014,0,0.042,0,0.084,0
		c0.112,0.014,0.259,0.118,0.441,0.314c0.014,0.014,0.048,0.049,0.104,0.105c0.337,0.321,0.758,0.406,1.261,0.253
		c0.126-0.07,0.259-0.155,0.398-0.253c0.209-0.126,0.377-0.357,0.504-0.692c0.027-0.07,0.05-0.141,0.062-0.211
		c0.044-0.141,0.072-0.272,0.084-0.398C152.875,187.959,153.981,187.986,155.103,187.931z M148.99,193.831
		c0.112,0.015,0.253,0.119,0.421,0.316c0.042,0.041,0.082,0.076,0.126,0.104c0.335,0.336,0.754,0.428,1.259,0.272
		c0.141-0.083,0.273-0.174,0.399-0.272c0.211-0.111,0.379-0.336,0.503-0.671c0.017-0.085,0.036-0.162,0.064-0.232
		c0.042-0.111,0.07-0.244,0.084-0.398c1.079,0.112,2.186,0.141,3.318,0.084v4.263c-1.105-0.056-2.191-0.042-3.254,0.043
		c-0.044-0.154-0.084-0.273-0.129-0.357c0-0.042,0-0.07,0-0.084c-0.124-0.448-0.313-0.734-0.564-0.861
		c-0.112-0.098-0.245-0.183-0.401-0.252c-0.475-0.153-0.895-0.069-1.259,0.252c-0.015,0.042-0.042,0.077-0.084,0.105
		c-0.197,0.196-0.337,0.301-0.419,0.314c-0.043,0-0.085,0-0.127,0c-0.28,0.028-0.489-0.077-0.629-0.314
		c0-0.014-0.009-0.028-0.022-0.042c-0.042-0.154-0.084-0.309-0.126-0.462c0-0.042-0.008-0.084-0.021-0.127
		c-0.056-0.279-0.076-0.518-0.063-0.713c0.044-0.225,0.104-0.42,0.188-0.589c0.016-0.042,0.044-0.083,0.084-0.126
		c0.016-0.013,0.028-0.041,0.044-0.083c0.141-0.127,0.32-0.183,0.545-0.169H148.99z M155.103,197.968l-0.022,4.264
		c-1.092-0.056-2.177-0.034-3.253,0.063c-0.028-0.153-0.064-0.286-0.106-0.397c0-0.029-0.006-0.05-0.022-0.063
		c-0.11-0.434-0.292-0.729-0.545-0.882c-0.112-0.084-0.23-0.162-0.357-0.231c-0.505-0.153-0.938-0.069-1.303,0.252
		c-0.026,0.041-0.062,0.084-0.104,0.126c-0.168,0.182-0.309,0.28-0.419,0.294c-0.027,0-0.062,0-0.105,0
		c-0.281,0-0.481-0.112-0.609-0.336l-0.041-0.063c-0.044-0.141-0.078-0.281-0.104-0.42c-0.03-0.042-0.044-0.092-0.044-0.147
		c-0.013-0.057-0.021-0.119-0.021-0.189c-0.042-0.182-0.048-0.343-0.02-0.483c0.012-0.251,0.067-0.454,0.166-0.608
		c0.014-0.056,0.042-0.091,0.084-0.105c0.014-0.042,0.034-0.069,0.063-0.083c0.128-0.141,0.295-0.21,0.505-0.21
		c0.014,0,0.042,0.007,0.084,0.021c0.112,0.028,0.259,0.133,0.441,0.314c0.014,0.043,0.048,0.085,0.104,0.127
		c0.337,0.321,0.758,0.398,1.261,0.23c0.126-0.057,0.259-0.133,0.398-0.23c0.209-0.141,0.377-0.372,0.504-0.693
		c0.027-0.069,0.05-0.146,0.062-0.231c0.044-0.126,0.072-0.258,0.084-0.398C152.875,197.996,153.981,198.025,155.103,197.968z
		 M150.923,201.392c0.028,0.028,0.056,0.049,0.084,0.063c0.028,0.043,0.05,0.084,0.063,0.126c0.1,0.169,0.154,0.364,0.168,0.589
		c0.028,0.209,0.014,0.448-0.042,0.714c0,0.042-0.014,0.084-0.042,0.126c-0.028,0.154-0.063,0.301-0.104,0.441
		c0,0.027-0.014,0.049-0.042,0.063c-0.126,0.224-0.329,0.329-0.609,0.314c-0.028,0-0.063,0-0.106,0
		c-0.11-0.014-0.25-0.119-0.419-0.314c-0.042-0.042-0.076-0.077-0.104-0.105c-0.362-0.321-0.798-0.412-1.301-0.273
		c-0.128,0.084-0.24,0.176-0.337,0.273c-0.267,0.127-0.457,0.406-0.567,0.841c-0.014,0.027-0.021,0.063-0.021,0.104
		c-0.04,0.112-0.076,0.23-0.104,0.357c-1.077-0.099-2.163-0.119-3.256-0.063l-0.02-4.242c1.119,0.057,2.225,0.028,3.317-0.084
		c0.014,0.126,0.042,0.26,0.084,0.399c0.015,0.069,0.034,0.147,0.063,0.231c0.126,0.321,0.295,0.546,0.505,0.671
		c0.112,0.099,0.245,0.189,0.399,0.274c0.489,0.167,0.908,0.076,1.261-0.274c0.054-0.027,0.088-0.063,0.104-0.104
		c0.18-0.196,0.337-0.301,0.461-0.315c0.028,0,0.048,0,0.064,0C150.628,201.202,150.796,201.266,150.923,201.392z M150.271,196.288
		c0.044-0.014,0.07-0.021,0.084-0.021c0.21,0,0.385,0.063,0.525,0.188c0.014,0.028,0.027,0.05,0.042,0.063
		c0.042,0.042,0.07,0.077,0.084,0.105c0.099,0.182,0.162,0.385,0.188,0.608c0.014,0.21-0.006,0.448-0.063,0.715
		c0,0.041-0.008,0.09-0.021,0.146c-0.042,0.127-0.082,0.268-0.127,0.421c-0.012,0.015-0.033,0.034-0.062,0.063
		c-0.112,0.225-0.307,0.336-0.588,0.336c-0.044,0-0.072,0-0.084,0c-0.112-0.041-0.267-0.153-0.461-0.336
		c-0.016-0.042-0.044-0.084-0.084-0.125c-0.365-0.323-0.792-0.407-1.283-0.253c-0.141,0.084-0.265,0.169-0.377,0.253
		c-0.253,0.14-0.441,0.427-0.567,0.861c0,0.041,0,0.068,0,0.083c-0.042,0.112-0.084,0.238-0.126,0.378
		c-1.063-0.099-2.135-0.118-3.213-0.063l-0.042-4.243c1.134,0.057,2.24,0.028,3.318-0.083c0.013,0.14,0.041,0.272,0.085,0.398
		c0.027,0.069,0.048,0.14,0.062,0.21c0.127,0.35,0.295,0.589,0.504,0.714c0.126,0.084,0.26,0.161,0.4,0.231
		c0.503,0.183,0.922,0.105,1.259-0.231c0.042-0.055,0.085-0.09,0.125-0.104C150.019,196.394,150.159,196.288,150.271,196.288z
		 M148.928,203.954c0.112,0.014,0.259,0.111,0.441,0.294c0.014,0.042,0.048,0.091,0.104,0.146c0.337,0.309,0.758,0.386,1.261,0.23
		c0.126-0.069,0.259-0.146,0.398-0.23c0.209-0.126,0.377-0.363,0.504-0.713c0.027-0.07,0.05-0.147,0.062-0.231
		c0.044-0.112,0.072-0.246,0.084-0.399c1.093,0.126,2.199,0.153,3.32,0.083l-0.022,4.265c-1.092-0.057-2.177-0.035-3.253,0.063
		c-0.028-0.154-0.064-0.28-0.106-0.378c0-0.042-0.006-0.07-0.022-0.084c-0.11-0.434-0.292-0.729-0.545-0.882
		c-0.112-0.084-0.23-0.161-0.357-0.23c-0.505-0.154-0.938-0.07-1.303,0.251c-0.026,0.041-0.062,0.085-0.104,0.126
		c-0.168,0.182-0.309,0.287-0.419,0.315c-0.027,0-0.062,0-0.105,0c-0.281,0.014-0.481-0.105-0.609-0.356l-0.041-0.021
		c-0.044-0.154-0.078-0.295-0.104-0.42c-0.03-0.07-0.044-0.119-0.044-0.147c-0.057-0.295-0.068-0.532-0.04-0.715
		c0.012-0.237,0.067-0.439,0.166-0.608c0.014-0.042,0.042-0.077,0.084-0.105c0.014-0.027,0.034-0.056,0.063-0.083
		c0.128-0.112,0.295-0.168,0.505-0.168C148.857,203.954,148.886,203.954,148.928,203.954z M147.479,214.434c0,0.013,0,0.041,0,0.083
		c-0.042,0.112-0.084,0.231-0.126,0.356c-1.063-0.083-2.135-0.097-3.213-0.041l-0.042-4.264c1.134,0.057,2.24,0.029,3.318-0.083
		c0.013,0.153,0.041,0.286,0.085,0.398c0.027,0.07,0.048,0.147,0.062,0.23c0.127,0.337,0.295,0.575,0.504,0.715
		c0.126,0.069,0.26,0.146,0.4,0.23c0.503,0.169,0.922,0.092,1.259-0.23c0.042-0.056,0.085-0.105,0.125-0.147
		c0.168-0.196,0.309-0.293,0.421-0.293c0.044-0.015,0.07-0.021,0.084-0.021c0.21,0,0.385,0.07,0.525,0.21
		c0.014,0.014,0.027,0.027,0.042,0.042c0.042,0.042,0.07,0.084,0.084,0.126c0.099,0.167,0.162,0.364,0.188,0.587
		c0.014,0.211-0.006,0.448-0.063,0.715c0,0.042-0.008,0.092-0.021,0.146c-0.042,0.141-0.082,0.288-0.127,0.441
		c-0.012,0.014-0.033,0.027-0.062,0.042c-0.112,0.238-0.307,0.344-0.588,0.315c-0.044,0-0.072,0-0.084,0
		c-0.112-0.014-0.267-0.119-0.461-0.315c-0.016-0.015-0.044-0.049-0.084-0.104c-0.365-0.322-0.792-0.406-1.283-0.253
		c-0.141,0.07-0.265,0.155-0.377,0.253C147.793,213.697,147.604,213.985,147.479,214.434z M144.161,215.567
		c1.119,0.056,2.225,0.027,3.317-0.085c0.014,0.154,0.042,0.288,0.084,0.399c0.015,0.07,0.034,0.147,0.063,0.231
		c0.126,0.336,0.295,0.574,0.505,0.714c0.112,0.07,0.245,0.147,0.399,0.231c0.489,0.167,0.908,0.09,1.261-0.231
		c0.054-0.057,0.088-0.105,0.104-0.147c0.18-0.195,0.337-0.301,0.461-0.314c0.028,0,0.048,0,0.064,0
		c0.208,0,0.376,0.056,0.503,0.168c0.028,0.042,0.056,0.07,0.084,0.084c0.028,0.041,0.05,0.085,0.063,0.126
		c0.1,0.168,0.154,0.364,0.168,0.588c0.028,0.211,0.014,0.448-0.042,0.714c0,0.042-0.014,0.091-0.042,0.147
		c-0.028,0.14-0.063,0.279-0.104,0.42c0,0.028-0.014,0.049-0.042,0.063c-0.126,0.238-0.329,0.344-0.609,0.315
		c-0.028,0-0.063,0-0.106,0c-0.11-0.015-0.25-0.119-0.419-0.315c-0.042-0.042-0.076-0.077-0.104-0.104
		c-0.362-0.322-0.798-0.399-1.301-0.23c-0.128,0.056-0.24,0.132-0.337,0.23c-0.267,0.126-0.457,0.42-0.567,0.882
		c-0.014,0-0.021,0.021-0.021,0.063c-0.04,0.084-0.076,0.202-0.104,0.356c-1.077-0.084-2.163-0.099-3.256-0.042L144.161,215.567z
		 M144.161,205.57c1.119,0.057,2.225,0.035,3.317-0.063c0.014,0.14,0.042,0.267,0.084,0.379c0.015,0.069,0.034,0.146,0.063,0.23
		c0.126,0.336,0.295,0.573,0.505,0.714c0.112,0.069,0.245,0.146,0.399,0.231c0.489,0.167,0.908,0.091,1.261-0.231
		c0.054-0.057,0.088-0.099,0.104-0.127c0.18-0.182,0.337-0.286,0.461-0.314c0.028-0.014,0.048-0.021,0.064-0.021
		c0.208,0,0.376,0.07,0.503,0.211c0.028,0.014,0.056,0.042,0.084,0.084c0.028,0.013,0.05,0.041,0.063,0.083
		c0.1,0.169,0.154,0.364,0.168,0.589c0.028,0.209,0.014,0.448-0.042,0.714c0,0.042-0.014,0.091-0.042,0.147
		c-0.028,0.14-0.063,0.286-0.104,0.44c0,0.014-0.014,0.028-0.042,0.042c-0.126,0.237-0.329,0.357-0.609,0.357
		c-0.028,0-0.063,0-0.106,0c-0.11-0.042-0.25-0.162-0.419-0.357c-0.042-0.014-0.076-0.049-0.104-0.105
		c-0.362-0.321-0.798-0.398-1.301-0.23c-0.128,0.057-0.24,0.133-0.337,0.23c-0.267,0.155-0.457,0.441-0.567,0.861
		c-0.014,0.015-0.021,0.042-0.021,0.084c-0.04,0.112-0.076,0.23-0.104,0.357c-1.077-0.084-2.163-0.092-3.256-0.021L144.161,205.57z
		 M155.165,208.133v4.263c-1.105-0.056-2.191-0.035-3.254,0.063c-0.044-0.153-0.084-0.28-0.129-0.378c0-0.042,0-0.07,0-0.084
		c-0.124-0.435-0.313-0.729-0.564-0.883c-0.112-0.083-0.245-0.16-0.401-0.23c-0.475-0.154-0.895-0.07-1.259,0.252
		c-0.015,0.042-0.042,0.084-0.084,0.126c-0.197,0.182-0.337,0.287-0.419,0.315c-0.043,0-0.085,0-0.127,0
		c-0.28,0-0.489-0.119-0.629-0.357l-0.022-0.021c-0.042-0.153-0.084-0.294-0.126-0.42c0-0.07-0.008-0.12-0.021-0.147
		c-0.056-0.294-0.076-0.531-0.063-0.714c0.044-0.252,0.104-0.455,0.188-0.609c0.016-0.056,0.044-0.091,0.084-0.104
		c0.016-0.028,0.028-0.056,0.044-0.084c0.141-0.141,0.32-0.204,0.545-0.188h0.063c0.112,0.027,0.253,0.132,0.421,0.314
		c0.042,0.042,0.082,0.083,0.126,0.125c0.335,0.336,0.754,0.421,1.259,0.253c0.141-0.07,0.273-0.154,0.399-0.253
		c0.211-0.11,0.379-0.343,0.503-0.692c0.017-0.07,0.036-0.147,0.064-0.231c0.042-0.111,0.07-0.244,0.084-0.398
		C152.926,208.161,154.032,208.188,155.165,208.133z M148.928,213.93c0.112,0.027,0.259,0.133,0.441,0.314
		c0.014,0.042,0.048,0.084,0.104,0.126c0.337,0.336,0.758,0.42,1.261,0.252c0.126-0.07,0.259-0.154,0.398-0.252
		c0.209-0.141,0.377-0.371,0.504-0.693c0.027-0.07,0.05-0.146,0.062-0.23c0.044-0.127,0.072-0.26,0.084-0.399
		c1.093,0.112,2.199,0.14,3.32,0.084l-0.022,4.264c-1.092-0.057-2.177-0.035-3.253,0.063c-0.028-0.154-0.064-0.287-0.106-0.398
		c0-0.028-0.006-0.05-0.022-0.063c-0.11-0.434-0.292-0.728-0.545-0.882c-0.112-0.084-0.23-0.161-0.357-0.231
		c-0.505-0.154-0.938-0.07-1.303,0.253c-0.026,0.042-0.062,0.084-0.104,0.125c-0.168,0.183-0.309,0.287-0.419,0.315
		c-0.027,0-0.062,0-0.105,0c-0.281,0-0.481-0.119-0.609-0.356l-0.041-0.021c-0.044-0.168-0.078-0.322-0.104-0.463
		c-0.03-0.041-0.044-0.09-0.044-0.146c-0.057-0.237-0.068-0.462-0.04-0.672c0.012-0.252,0.067-0.456,0.166-0.609
		c0.014-0.056,0.042-0.091,0.084-0.104c0.014-0.042,0.034-0.07,0.063-0.085c0.128-0.139,0.295-0.209,0.505-0.209
		C148.857,213.908,148.886,213.915,148.928,213.93z M155.165,218.255v4.242c-1.105-0.056-2.191-0.035-3.254,0.063
		c-0.044-0.154-0.084-0.28-0.129-0.378c0-0.028,0-0.057,0-0.084c-0.124-0.435-0.313-0.729-0.564-0.883
		c-0.112-0.069-0.245-0.146-0.401-0.231c-0.475-0.153-0.895-0.062-1.259,0.274c-0.015,0.027-0.042,0.063-0.084,0.104
		c-0.197,0.195-0.337,0.301-0.419,0.315c-0.043,0-0.085,0-0.127,0c-0.28,0.014-0.489-0.099-0.629-0.336l-0.022-0.042
		c-0.042-0.154-0.084-0.294-0.126-0.42c0-0.057-0.008-0.105-0.021-0.147c-0.056-0.266-0.076-0.505-0.063-0.714
		c0.044-0.253,0.104-0.448,0.188-0.589c0.016-0.042,0.044-0.084,0.084-0.126c0.016-0.014,0.028-0.041,0.044-0.083
		c0.141-0.126,0.32-0.183,0.545-0.169h0.063c0.112,0.015,0.253,0.12,0.421,0.315c0.042,0.042,0.082,0.077,0.126,0.104
		c0.335,0.351,0.754,0.441,1.259,0.274c0.141-0.085,0.273-0.176,0.399-0.274c0.211-0.111,0.379-0.335,0.503-0.671
		c0.017-0.084,0.036-0.161,0.064-0.231c0.042-0.141,0.07-0.272,0.084-0.399C152.926,218.283,154.032,218.312,155.165,218.255z
		 M151.007,221.847c0.099,0.167,0.162,0.371,0.188,0.608c0.014,0.21-0.006,0.448-0.063,0.714c0,0.029-0.008,0.077-0.021,0.147
		c-0.042,0.126-0.082,0.266-0.127,0.42c-0.012,0.014-0.033,0.035-0.062,0.063c-0.112,0.224-0.307,0.329-0.588,0.315
		c-0.044,0-0.072,0-0.084,0c-0.112-0.028-0.267-0.133-0.461-0.315c-0.016-0.042-0.044-0.084-0.084-0.126
		c-0.365-0.321-0.792-0.398-1.283-0.23c-0.141,0.056-0.265,0.134-0.377,0.23c-0.253,0.141-0.441,0.435-0.567,0.882v0.063
		c-0.042,0.112-0.084,0.237-0.126,0.378c-1.063-0.098-2.135-0.118-3.213-0.063l-0.042-4.263c1.134,0.057,2.24,0.028,3.318-0.083
		c0.013,0.153,0.041,0.286,0.085,0.397c0.027,0.085,0.048,0.162,0.062,0.231c0.127,0.351,0.295,0.589,0.504,0.714
		c0.126,0.084,0.26,0.161,0.4,0.231c0.503,0.168,0.922,0.092,1.259-0.231c0.042-0.056,0.085-0.091,0.125-0.105
		c0.168-0.209,0.309-0.314,0.421-0.314c0.044-0.028,0.07-0.042,0.084-0.042c0.21,0,0.385,0.07,0.525,0.211
		c0.014,0.014,0.027,0.034,0.042,0.063C150.965,221.77,150.993,221.805,151.007,221.847z M149.474,224.304
		c0.042,0.014,0.076,0.056,0.104,0.126c0.352,0.322,0.771,0.406,1.262,0.252c0.154-0.085,0.286-0.169,0.398-0.252
		c0.211-0.141,0.385-0.371,0.525-0.693c0.014-0.084,0.036-0.16,0.064-0.23c0.027-0.127,0.056-0.26,0.084-0.399
		c1.076,0.112,2.177,0.133,3.296,0.063v4.285c-1.107-0.085-2.191-0.07-3.256,0.041c-0.012-0.14-0.048-0.272-0.104-0.398
		c0-0.014,0-0.028,0-0.043c-0.141-0.447-0.329-0.741-0.567-0.881c-0.11-0.099-0.238-0.176-0.379-0.231
		c-0.489-0.182-0.91-0.099-1.259,0.252c-0.042,0.042-0.076,0.076-0.104,0.104c-0.185,0.196-0.328,0.302-0.44,0.315
		c-0.028,0-0.057,0-0.085,0c-0.28,0-0.488-0.111-0.629-0.336c-0.016,0-0.022-0.021-0.022-0.063c-0.056-0.153-0.105-0.294-0.146-0.42
		c0-0.041-0.008-0.084-0.021-0.125c-0.057-0.281-0.076-0.519-0.063-0.715c0.04-0.237,0.097-0.448,0.169-0.63
		c0.04-0.027,0.068-0.056,0.084-0.084c0.028-0.014,0.048-0.042,0.063-0.084c0.138-0.127,0.322-0.182,0.545-0.168h0.064
		C149.165,224.016,149.305,224.121,149.474,224.304z M147.353,236.148c0.042,0.083,0.07,0.16,0.084,0.23
		c0.141,0.35,0.314,0.588,0.525,0.713c0.112,0.085,0.244,0.162,0.398,0.232c0.491,0.168,0.91,0.091,1.262-0.232
		c0.04-0.056,0.076-0.09,0.104-0.104c0.169-0.211,0.315-0.316,0.441-0.316l0.042-0.02c0.238,0,0.419,0.063,0.545,0.188
		c0.028,0.014,0.051,0.035,0.063,0.063c0.016,0.041,0.044,0.077,0.084,0.104c0.072,0.182,0.12,0.385,0.148,0.608
		c0.042,0.211,0.028,0.448-0.042,0.715c-0.014,0.041-0.022,0.091-0.022,0.146c-0.04,0.126-0.09,0.266-0.146,0.42
		c0,0.014-0.007,0.035-0.022,0.063c-0.139,0.225-0.349,0.336-0.63,0.336c-0.012,0-0.04,0-0.084,0
		c-0.112-0.043-0.252-0.147-0.419-0.315c-0.042-0.056-0.084-0.104-0.126-0.147c-0.337-0.321-0.756-0.398-1.259-0.23
		c-0.129,0.07-0.245,0.147-0.357,0.23c-0.252,0.154-0.449,0.441-0.589,0.862c0,0.041,0,0.069,0,0.083
		c-0.057,0.112-0.091,0.239-0.104,0.378c-1.064-0.098-2.15-0.104-3.256-0.021v-4.284c1.12,0.07,2.227,0.049,3.318-0.063
		C147.324,235.917,147.338,236.036,147.353,236.148z M147.353,230.646c0.028,0.154,0.056,0.287,0.084,0.398
		c0.028,0.07,0.048,0.147,0.064,0.231c0.14,0.336,0.313,0.573,0.525,0.714c0.109,0.07,0.244,0.147,0.396,0.23
		c0.491,0.169,0.91,0.092,1.261-0.23c0.028-0.056,0.063-0.105,0.106-0.146c0.166-0.183,0.307-0.273,0.419-0.273l0.063-0.042
		c0.225,0,0.406,0.07,0.545,0.21c0.016,0.015,0.036,0.028,0.064,0.042c0.027,0.043,0.042,0.084,0.042,0.126
		c0.126,0.168,0.194,0.364,0.21,0.588c0.015,0.21-0.016,0.448-0.084,0.714c0,0.042,0,0.092,0,0.147
		c-0.042,0.14-0.084,0.287-0.126,0.441c-0.015,0.014-0.022,0.027-0.022,0.042c-0.14,0.237-0.356,0.356-0.649,0.356
		c-0.028,0-0.056,0-0.084,0c-0.099-0.042-0.245-0.16-0.441-0.356c-0.027-0.028-0.056-0.063-0.084-0.105
		c-0.365-0.321-0.79-0.406-1.281-0.252c-0.14,0.07-0.267,0.153-0.379,0.252c-0.236,0.126-0.425,0.413-0.565,0.861
		c0,0.027,0,0.056,0,0.084c-0.044,0.112-0.078,0.23-0.105,0.356c-1.078-0.084-2.163-0.098-3.255-0.042v-4.263
		C145.175,230.785,146.274,230.758,147.353,230.646z M144.056,225.627c1.119,0.056,2.219,0.027,3.297-0.085
		c0.028,0.141,0.056,0.273,0.084,0.399c0.028,0.07,0.048,0.147,0.064,0.231c0.14,0.336,0.313,0.573,0.525,0.714
		c0.109,0.07,0.244,0.14,0.396,0.21c0.491,0.153,0.91,0.083,1.261-0.21c0.028-0.07,0.063-0.119,0.106-0.147
		c0.166-0.195,0.307-0.301,0.419-0.314h0.063c0.225,0,0.406,0.063,0.545,0.188c0.016,0.027,0.036,0.05,0.064,0.063
		c0.027,0.041,0.042,0.076,0.042,0.104c0.126,0.183,0.194,0.385,0.21,0.609c0.015,0.195-0.016,0.433-0.084,0.714
		c0,0.042,0,0.077,0,0.105c-0.042,0.154-0.084,0.308-0.126,0.462c-0.015,0.027-0.022,0.049-0.022,0.063
		c-0.14,0.224-0.356,0.329-0.649,0.315c-0.028,0-0.056,0-0.084,0c-0.099-0.015-0.245-0.119-0.441-0.315
		c-0.027-0.042-0.056-0.084-0.084-0.126c-0.365-0.321-0.79-0.406-1.281-0.252c-0.14,0.084-0.267,0.168-0.379,0.252
		c-0.236,0.14-0.425,0.427-0.565,0.861c0,0.027,0,0.056,0,0.084c-0.044,0.111-0.078,0.237-0.105,0.378
		c-1.078-0.099-2.163-0.119-3.255-0.063V225.627z M151.911,228.21c1.076,0.125,2.177,0.161,3.296,0.104v4.242
		c-1.107-0.056-2.191-0.035-3.256,0.063c-0.012-0.154-0.048-0.287-0.104-0.4c0-0.027,0-0.048,0-0.062
		c-0.141-0.435-0.329-0.729-0.567-0.883c-0.11-0.084-0.238-0.161-0.379-0.231c-0.489-0.167-0.91-0.084-1.259,0.253
		c-0.042,0.042-0.076,0.083-0.104,0.125c-0.185,0.183-0.328,0.288-0.44,0.315c-0.028,0-0.057,0-0.085,0
		c-0.28,0-0.488-0.119-0.629-0.357c-0.016,0-0.022-0.014-0.022-0.041c-0.056-0.154-0.105-0.302-0.146-0.441
		c0-0.028-0.008-0.063-0.021-0.104c-0.057-0.294-0.076-0.532-0.063-0.714c0.04-0.238,0.097-0.441,0.169-0.609
		c0.04-0.028,0.068-0.063,0.084-0.105c0.028-0.028,0.048-0.056,0.063-0.084c0.138-0.14,0.322-0.195,0.545-0.168h0.064
		c0.11,0.015,0.25,0.118,0.419,0.315c0.042,0.027,0.076,0.063,0.104,0.104c0.352,0.322,0.771,0.406,1.262,0.252
		c0.154-0.07,0.286-0.153,0.398-0.252c0.211-0.14,0.385-0.37,0.525-0.693c0.014-0.07,0.036-0.146,0.064-0.23
		C151.854,228.482,151.883,228.349,151.911,228.21z M149.642,234.678c0.349,0.308,0.77,0.385,1.259,0.23
		c0.156-0.084,0.289-0.16,0.401-0.23c0.208-0.154,0.385-0.392,0.525-0.714c0.012-0.084,0.04-0.161,0.084-0.231
		c0.012-0.111,0.028-0.244,0.04-0.398c1.106,0.111,2.213,0.14,3.319,0.084v4.263c-1.106-0.07-2.192-0.056-3.255,0.042
		c-0.015-0.126-0.045-0.244-0.085-0.356c-0.014-0.042-0.02-0.07-0.02-0.085c-0.141-0.447-0.337-0.734-0.59-0.86
		c-0.112-0.099-0.23-0.189-0.356-0.272c-0.505-0.141-0.924-0.05-1.259,0.272c-0.044,0.028-0.084,0.063-0.129,0.105
		c-0.166,0.195-0.307,0.3-0.419,0.314c-0.042,0-0.07,0-0.084,0c-0.278,0.014-0.491-0.092-0.629-0.314
		c-0.015-0.015-0.022-0.035-0.022-0.063c-0.056-0.141-0.104-0.288-0.146-0.441c0-0.042,0-0.084,0-0.126
		c-0.084-0.279-0.112-0.519-0.084-0.714c0.042-0.224,0.106-0.42,0.19-0.588c0.028-0.042,0.048-0.085,0.063-0.127
		c0.014-0.013,0.033-0.027,0.062-0.042c0.127-0.139,0.309-0.209,0.548-0.209h0.042c0.112,0.014,0.256,0.119,0.44,0.314
		C149.565,234.572,149.6,234.621,149.642,234.678z M151.594,238.835c0.015-0.125,0.028-0.258,0.043-0.398
		c1.106,0.112,2.219,0.133,3.34,0.063l-0.022,4.283c-1.106-0.069-2.189-0.063-3.256,0.021c-0.012-0.126-0.04-0.244-0.084-0.356
		c-0.012-0.028-0.021-0.05-0.021-0.063c-0.124-0.435-0.32-0.728-0.587-0.882c-0.112-0.099-0.23-0.176-0.356-0.23
		c-0.504-0.169-0.925-0.092-1.262,0.23c-0.042,0.056-0.084,0.104-0.124,0.147c-0.168,0.168-0.309,0.272-0.421,0.314
		c-0.042,0-0.07,0-0.084,0c-0.281,0-0.489-0.119-0.63-0.357c-0.014-0.014-0.02-0.027-0.02-0.042
		c-0.044-0.154-0.084-0.301-0.129-0.44c-0.012-0.057-0.02-0.105-0.02-0.146c-0.015-0.058-0.021-0.119-0.021-0.189
		c-0.044-0.196-0.056-0.371-0.044-0.525c0.028-0.224,0.084-0.42,0.169-0.588c0.027-0.043,0.05-0.084,0.063-0.126
		c0.013-0.014,0.04-0.028,0.084-0.042c0.112-0.141,0.285-0.21,0.525-0.21c0.013,0,0.028,0.007,0.04,0.021
		c0.141,0.028,0.295,0.134,0.464,0.314c0.014,0.028,0.056,0.07,0.126,0.127c0.32,0.321,0.733,0.398,1.239,0.23
		c0.14-0.056,0.272-0.133,0.398-0.23c0.211-0.14,0.379-0.371,0.503-0.693C151.538,238.997,151.566,238.92,151.594,238.835z
		 M150.209,241.754h0.063c0.225-0.013,0.406,0.043,0.545,0.169c0.016,0.042,0.036,0.07,0.064,0.084
		c0.027,0.042,0.056,0.084,0.084,0.126c0.07,0.153,0.126,0.35,0.168,0.588c0.015,0.196-0.008,0.434-0.063,0.715
		c-0.013,0.042-0.021,0.083-0.021,0.125c-0.042,0.154-0.084,0.302-0.126,0.441c-0.015,0-0.022,0.014-0.022,0.042
		c-0.14,0.224-0.356,0.335-0.649,0.335c-0.028,0-0.056,0-0.084,0c-0.099-0.013-0.245-0.118-0.441-0.314
		c-0.027-0.042-0.063-0.076-0.104-0.105c-0.352-0.321-0.771-0.413-1.262-0.272c-0.14,0.07-0.267,0.147-0.379,0.231
		c-0.236,0.153-0.425,0.454-0.565,0.902c0,0.014,0,0.043,0,0.084c-0.044,0.084-0.078,0.204-0.105,0.358
		c-1.078-0.099-2.163-0.112-3.255-0.042v-4.264c1.119,0.056,2.219,0.027,3.297-0.084c0.028,0.125,0.056,0.259,0.084,0.399
		c0.028,0.068,0.048,0.146,0.064,0.23c0.14,0.321,0.313,0.546,0.525,0.672c0.109,0.098,0.244,0.188,0.396,0.273
		c0.491,0.154,0.91,0.063,1.261-0.273c0.028-0.027,0.063-0.063,0.106-0.104C149.956,241.873,150.097,241.769,150.209,241.754z
		 M151.594,244.002c0.015-0.126,0.028-0.259,0.043-0.399c1.106,0.126,2.219,0.154,3.34,0.084l-0.022,4.263
		c-1.106-0.055-2.189-0.035-3.256,0.063c-0.012-0.154-0.04-0.286-0.084-0.398c-0.012-0.028-0.021-0.05-0.021-0.063
		c-0.124-0.434-0.32-0.728-0.587-0.882c-0.112-0.085-0.23-0.161-0.356-0.23c-0.504-0.154-0.925-0.07-1.262,0.251
		c-0.042,0.042-0.084,0.084-0.124,0.127c-0.168,0.181-0.309,0.286-0.421,0.314c-0.042,0-0.07,0-0.084,0
		c-0.281,0-0.489-0.119-0.63-0.357c-0.014,0-0.02-0.007-0.02-0.021c-0.044-0.154-0.084-0.308-0.129-0.462
		c-0.012-0.028-0.02-0.077-0.02-0.146c-0.057-0.267-0.076-0.491-0.064-0.673c0.028-0.238,0.084-0.44,0.169-0.608
		c0.027-0.057,0.05-0.091,0.063-0.105c0.013-0.042,0.04-0.069,0.084-0.084c0.112-0.141,0.285-0.21,0.525-0.21
		c0.013,0,0.028,0.014,0.04,0.042c0.141,0.014,0.295,0.119,0.464,0.314c0.014,0.029,0.056,0.063,0.126,0.105
		c0.32,0.322,0.733,0.405,1.239,0.252c0.14-0.069,0.272-0.154,0.398-0.252c0.211-0.14,0.379-0.371,0.503-0.692
		C151.538,244.163,151.566,244.086,151.594,244.002z M147.353,256.035c0.028,0.153,0.056,0.287,0.084,0.399
		c0.028,0.07,0.048,0.146,0.064,0.23c0.14,0.321,0.313,0.561,0.525,0.715c0.109,0.07,0.244,0.146,0.396,0.23
		c0.491,0.154,0.91,0.077,1.261-0.23c0.028-0.057,0.063-0.105,0.106-0.147c0.166-0.196,0.307-0.301,0.419-0.314h0.063
		c0.225,0,0.406,0.055,0.545,0.167c0.016,0.042,0.036,0.07,0.064,0.084c0.027,0.042,0.056,0.084,0.084,0.127
		c0.07,0.167,0.126,0.363,0.168,0.588c0.015,0.195-0.008,0.433-0.063,0.714c-0.013,0.042-0.021,0.083-0.021,0.126
		c-0.042,0.153-0.084,0.308-0.126,0.461c-0.015,0.015-0.022,0.029-0.022,0.042c-0.14,0.239-0.356,0.344-0.649,0.316
		c-0.028,0-0.056,0-0.084,0c-0.099-0.015-0.245-0.119-0.441-0.316c-0.027-0.027-0.063-0.063-0.104-0.104
		c-0.352-0.323-0.771-0.406-1.262-0.253c-0.14,0.07-0.267,0.154-0.379,0.253c-0.236,0.125-0.425,0.412-0.565,0.86
		c0,0.015,0,0.027,0,0.041c-0.044,0.127-0.078,0.26-0.105,0.4c-1.078-0.084-2.163-0.099-3.255-0.042v-4.263
		C145.175,256.175,146.274,256.146,147.353,256.035z M147.353,251.436c0.042,0.07,0.07,0.147,0.084,0.231
		c0.141,0.322,0.314,0.554,0.525,0.693c0.112,0.084,0.244,0.168,0.398,0.252c0.491,0.168,0.91,0.083,1.262-0.252
		c0.04-0.043,0.076-0.085,0.104-0.127c0.152-0.182,0.301-0.286,0.441-0.314h0.042c0.238,0,0.419,0.07,0.545,0.21
		c0.028,0.015,0.051,0.027,0.063,0.042c0.016,0.043,0.044,0.084,0.084,0.126c0.072,0.168,0.129,0.363,0.169,0.588
		c0.027,0.21,0.008,0.448-0.063,0.714c-0.014,0.042-0.022,0.084-0.022,0.127c-0.04,0.154-0.09,0.308-0.146,0.462
		c0,0.014-0.007,0.027-0.022,0.042c-0.139,0.237-0.349,0.343-0.63,0.314c-0.012,0-0.04,0-0.084,0
		c-0.112-0.014-0.252-0.119-0.419-0.314c-0.042-0.028-0.084-0.063-0.126-0.105c-0.337-0.321-0.756-0.406-1.259-0.252
		c-0.129,0.069-0.245,0.153-0.357,0.252c-0.252,0.126-0.449,0.413-0.589,0.861c0,0.014,0,0.042,0,0.084
		c-0.057,0.112-0.091,0.23-0.104,0.356c-1.064-0.084-2.15-0.098-3.256-0.042v-4.263c1.12,0.056,2.227,0.028,3.318-0.084
		C147.324,251.177,147.338,251.311,147.353,251.436z M150.209,246.92h0.063c0.225-0.013,0.406,0.058,0.545,0.211
		c0.016,0.014,0.036,0.028,0.064,0.042c0.027,0.042,0.056,0.084,0.084,0.126c0.07,0.169,0.126,0.364,0.168,0.589
		c0.015,0.209-0.008,0.448-0.063,0.714c-0.013,0.042-0.021,0.091-0.021,0.146c-0.042,0.14-0.084,0.287-0.126,0.44
		c-0.015,0.014-0.022,0.028-0.022,0.042c-0.14,0.238-0.356,0.358-0.649,0.358c-0.028,0-0.056,0-0.084,0
		c-0.099-0.044-0.245-0.162-0.441-0.358c-0.027-0.028-0.063-0.062-0.104-0.105c-0.352-0.321-0.771-0.397-1.262-0.23
		c-0.14,0.057-0.267,0.134-0.379,0.23c-0.236,0.154-0.425,0.442-0.565,0.862c0,0.014,0,0.042,0,0.083
		c-0.044,0.112-0.078,0.231-0.105,0.358c-1.078-0.085-2.163-0.099-3.255-0.042v-4.264c1.119,0.056,2.219,0.027,3.297-0.084
		c0.028,0.154,0.056,0.287,0.084,0.399c0.028,0.069,0.048,0.146,0.064,0.23c0.14,0.336,0.313,0.567,0.525,0.693
		c0.109,0.083,0.244,0.167,0.396,0.252c0.491,0.168,0.91,0.084,1.261-0.252c0.028-0.042,0.063-0.084,0.106-0.126
		C149.956,247.055,150.097,246.949,150.209,246.92z M151.637,249c0.042-0.126,0.062-0.259,0.062-0.398
		c1.106,0.126,2.222,0.153,3.34,0.084l-0.02,4.263c-1.093-0.056-2.169-0.035-3.236,0.063c-0.04-0.153-0.076-0.287-0.104-0.398
		c0-0.029-0.015-0.049-0.042-0.063c-0.11-0.435-0.301-0.729-0.567-0.883c-0.097-0.084-0.225-0.161-0.377-0.231
		c-0.489-0.153-0.902-0.069-1.239,0.253c-0.042,0.041-0.084,0.084-0.126,0.125c-0.169,0.183-0.309,0.288-0.419,0.315
		c-0.044,0-0.072,0-0.084,0c-0.295,0-0.506-0.119-0.632-0.356c-0.028,0-0.042-0.014-0.042-0.043
		c-0.028-0.153-0.064-0.301-0.104-0.44c-0.014-0.027-0.02-0.077-0.02-0.146c-0.057-0.266-0.079-0.49-0.064-0.673
		c0.014-0.252,0.07-0.454,0.168-0.608c0.013-0.057,0.034-0.092,0.063-0.105c0.042-0.042,0.07-0.07,0.084-0.083
		c0.126-0.141,0.295-0.211,0.503-0.211c0.028,0,0.051,0.015,0.064,0.042c0.141,0.015,0.293,0.119,0.461,0.315
		c0.017,0.027,0.048,0.063,0.106,0.104c0.351,0.322,0.77,0.399,1.261,0.23c0.152-0.055,0.285-0.132,0.397-0.23
		c0.21-0.14,0.385-0.37,0.524-0.693C151.608,249.161,151.622,249.084,151.637,249z M151.51,254.229
		c0.028-0.07,0.057-0.147,0.084-0.231c0.015-0.126,0.028-0.259,0.043-0.399c1.106,0.127,2.219,0.154,3.34,0.084l-0.022,4.264
		c-1.106-0.07-2.189-0.05-3.256,0.063c-0.012-0.154-0.04-0.286-0.084-0.398c-0.012-0.028-0.021-0.049-0.021-0.063
		c-0.124-0.434-0.32-0.728-0.587-0.882c-0.112-0.099-0.23-0.176-0.356-0.23c-0.504-0.169-0.925-0.084-1.262,0.251
		c-0.042,0.043-0.084,0.085-0.124,0.127c-0.168,0.167-0.309,0.272-0.421,0.314c-0.042,0-0.07,0-0.084,0
		c-0.281,0-0.489-0.118-0.63-0.356c-0.014-0.015-0.02-0.028-0.02-0.042c-0.044-0.154-0.084-0.301-0.129-0.441
		c-0.012-0.042-0.02-0.091-0.02-0.147c-0.057-0.266-0.076-0.49-0.064-0.672c0.028-0.252,0.084-0.462,0.169-0.629
		c0.027-0.043,0.05-0.07,0.063-0.084c0.013-0.042,0.04-0.07,0.084-0.085c0.112-0.14,0.285-0.21,0.525-0.21
		c0.013,0,0.028,0.014,0.04,0.042c0.141,0.014,0.295,0.112,0.464,0.294c0.014,0.028,0.056,0.07,0.126,0.126
		c0.32,0.323,0.733,0.399,1.239,0.231c0.14-0.056,0.272-0.133,0.398-0.231C151.218,254.781,151.386,254.551,151.51,254.229z
		 M151.637,259.123c0.042-0.141,0.062-0.274,0.062-0.399c1.106,0.111,2.222,0.14,3.34,0.083l-0.02,4.264
		c-1.037-0.07-2.045-0.063-3.023,0.021c-0.084,0-0.156,0.008-0.213,0.021v-0.021c-0.04-0.14-0.076-0.266-0.104-0.378
		c0-0.014-0.015-0.034-0.042-0.063c-0.11-0.435-0.301-0.729-0.567-0.882c-0.097-0.084-0.225-0.161-0.377-0.231
		c-0.489-0.168-0.902-0.077-1.239,0.272c-0.042,0.029-0.084,0.063-0.126,0.105c-0.169,0.196-0.309,0.301-0.419,0.315
		c-0.044,0-0.072,0-0.084,0c-0.295,0.014-0.506-0.099-0.632-0.336c-0.028-0.028-0.042-0.05-0.042-0.063
		c-0.028-0.153-0.064-0.294-0.104-0.42c-0.014-0.042-0.02-0.091-0.02-0.146c-0.057-0.267-0.079-0.497-0.064-0.693
		c0.014-0.237,0.07-0.435,0.168-0.588c0.013-0.043,0.034-0.084,0.063-0.126c0.042-0.042,0.07-0.07,0.084-0.084
		c0.126-0.125,0.295-0.189,0.503-0.189c0.028,0,0.051,0.007,0.064,0.021c0.141,0.015,0.293,0.12,0.461,0.316
		c0.017,0.042,0.048,0.077,0.106,0.104c0.351,0.323,0.77,0.4,1.261,0.232c0.152-0.057,0.285-0.134,0.397-0.232
		c0.21-0.125,0.385-0.35,0.524-0.671C151.608,259.27,151.622,259.191,151.637,259.123z M147.962,262.482
		c0.112,0.083,0.244,0.16,0.398,0.23c0.491,0.169,0.91,0.092,1.262-0.23c0.04-0.056,0.076-0.091,0.104-0.105
		c0.152-0.209,0.301-0.321,0.441-0.335h0.042c0.238,0,0.419,0.063,0.545,0.188c0.028,0.014,0.051,0.034,0.063,0.063
		c0.016,0.042,0.044,0.077,0.084,0.105c0.072,0.167,0.129,0.371,0.169,0.609c0,0.014,0,0.042,0,0.083
		c0,0.183-0.021,0.392-0.063,0.631c-0.014,0.042-0.022,0.091-0.022,0.147c-0.04,0.125-0.09,0.266-0.146,0.42
		c0,0.014-0.007,0.034-0.022,0.062c-0.139,0.225-0.349,0.329-0.63,0.316c-0.012,0-0.04,0-0.084,0
		c-0.112-0.028-0.252-0.134-0.419-0.316c-0.042-0.041-0.084-0.083-0.126-0.125c-0.337-0.322-0.756-0.406-1.259-0.253
		c-0.129,0.07-0.245,0.154-0.357,0.253c-0.252,0.14-0.449,0.427-0.589,0.861c0,0.014,0,0.042,0,0.084
		c-0.057,0.111-0.091,0.237-0.104,0.378c-1.064-0.099-2.15-0.119-3.256-0.063v-4.263c1.12,0.069,2.227,0.042,3.318-0.084
		c0.014,0.153,0.027,0.286,0.042,0.398c0.042,0.084,0.07,0.162,0.084,0.231C147.577,262.119,147.751,262.356,147.962,262.482z
		 M151.133,264.981c0.209-0.141,0.377-0.378,0.504-0.714c0.027-0.084,0.05-0.161,0.062-0.231c0.044-0.112,0.072-0.237,0.084-0.378
		c1.093,0.112,2.199,0.134,3.32,0.063l-0.022,4.284c-1.092-0.085-2.177-0.077-3.253,0.021c-0.028-0.126-0.064-0.251-0.106-0.378
		c0-0.014-0.006-0.028-0.022-0.042c-0.11-0.448-0.292-0.741-0.545-0.882c-0.112-0.099-0.23-0.176-0.357-0.23
		c-0.505-0.183-0.938-0.105-1.303,0.23c-0.026,0.056-0.062,0.098-0.104,0.126c-0.168,0.195-0.309,0.301-0.419,0.314
		c-0.027,0-0.062,0-0.105,0c-0.281,0-0.481-0.111-0.609-0.335l-0.041-0.063c-0.044-0.154-0.078-0.294-0.104-0.42
		c-0.03-0.057-0.044-0.105-0.044-0.147c-0.057-0.266-0.068-0.504-0.04-0.714c0.012-0.225,0.067-0.42,0.166-0.588
		c0.014-0.042,0.042-0.077,0.084-0.104c0-0.029,0.022-0.056,0.063-0.084c0.112-0.127,0.28-0.189,0.505-0.189
		c0.014,0,0.042,0.007,0.084,0.021c0.112,0.028,0.259,0.134,0.441,0.315c0.014,0.028,0.048,0.07,0.104,0.126
		c0.337,0.321,0.758,0.398,1.261,0.231C150.889,265.143,151.021,265.065,151.133,264.981z M147.184,276.321
		c0.028,0.14,0.049,0.274,0.064,0.398c0.014,0.07,0.04,0.141,0.084,0.211c0.112,0.351,0.272,0.589,0.481,0.713
		c0.141,0.085,0.289,0.163,0.441,0.233c0.49,0.18,0.897,0.104,1.219-0.233c0.056-0.054,0.092-0.096,0.104-0.124
		c0.185-0.196,0.337-0.295,0.464-0.295c0.027-0.014,0.05-0.021,0.062-0.021c0.225,0,0.394,0.064,0.506,0.19
		c0.042,0.028,0.069,0.048,0.084,0.062c0.027,0.043,0.048,0.079,0.062,0.104c0.099,0.183,0.154,0.387,0.169,0.609
		c0.028,0.211,0.014,0.449-0.042,0.716c0,0.04-0.015,0.09-0.042,0.146c-0.015,0.126-0.051,0.267-0.104,0.419
		c0,0.014-0.015,0.036-0.042,0.064c-0.127,0.223-0.329,0.328-0.609,0.314c-0.028,0-0.064,0-0.104,0
		c-0.112-0.028-0.253-0.135-0.421-0.314c-0.042-0.042-0.076-0.085-0.104-0.127c-0.351-0.322-0.77-0.393-1.261-0.21
		c-0.139,0.056-0.267,0.126-0.379,0.21c-0.251,0.141-0.441,0.428-0.565,0.86c0,0.028-0.008,0.057-0.022,0.084
		c-0.042,0.112-0.076,0.238-0.104,0.379c-1.064-0.098-2.149-0.12-3.256-0.062l-0.021-4.244
		C144.966,276.461,146.078,276.434,147.184,276.321z M147.332,271.597c0.013,0.083,0.034,0.16,0.063,0.23
		c0.126,0.337,0.295,0.574,0.503,0.714c0.112,0.07,0.238,0.147,0.379,0.231c0.52,0.169,0.944,0.092,1.281-0.231
		c0.042-0.055,0.084-0.104,0.126-0.146c0.141-0.183,0.279-0.287,0.419-0.314c0.017,0,0.036,0,0.064,0
		c0.225-0.014,0.398,0.041,0.525,0.167c0.027,0.042,0.048,0.07,0.062,0.085c0.028,0.042,0.051,0.084,0.063,0.126
		c0.101,0.167,0.162,0.363,0.19,0.587c0.028,0.211,0,0.449-0.084,0.715c0,0.041,0,0.092,0,0.146
		c-0.028,0.141-0.07,0.288-0.127,0.442c0,0.014-0.014,0.02-0.042,0.02c-0.126,0.225-0.334,0.337-0.629,0.337
		c-0.015,0-0.042,0-0.084,0c-0.112-0.014-0.251-0.119-0.419-0.315c-0.045-0.027-0.085-0.063-0.129-0.104
		c-0.335-0.323-0.748-0.407-1.238-0.253c-0.139,0.07-0.265,0.154-0.377,0.253c-0.265,0.125-0.455,0.413-0.567,0.861
		c0,0.013-0.015,0.042-0.042,0.083c-0.028,0.098-0.057,0.225-0.085,0.378c-1.063-0.099-2.148-0.118-3.254-0.063v-4.264
		c1.105,0.056,2.212,0.029,3.318-0.083C147.262,271.352,147.288,271.484,147.332,271.597z M147.897,267.396
		c0.112,0.098,0.238,0.182,0.379,0.252c0.52,0.153,0.944,0.07,1.281-0.252c0.042-0.042,0.084-0.076,0.126-0.104
		c0.141-0.196,0.279-0.302,0.419-0.315c0.017,0,0.036,0,0.064,0c0.225-0.028,0.398,0.028,0.525,0.168
		c0.027,0.042,0.048,0.07,0.062,0.084c0.028,0.014,0.051,0.049,0.063,0.105c0.101,0.182,0.162,0.385,0.19,0.608
		c0.028,0.196,0,0.434-0.084,0.714c0,0.043,0,0.077,0,0.105c-0.028,0.154-0.07,0.308-0.127,0.462c0,0.027-0.014,0.042-0.042,0.042
		c-0.126,0.224-0.334,0.336-0.629,0.336c-0.015,0-0.042,0-0.084,0c-0.112-0.015-0.251-0.119-0.419-0.315
		c-0.045-0.042-0.085-0.077-0.129-0.104c-0.335-0.336-0.748-0.428-1.238-0.273c-0.139,0.085-0.265,0.161-0.377,0.23
		c-0.265,0.155-0.455,0.448-0.567,0.883c0,0.028-0.015,0.049-0.042,0.063c-0.028,0.112-0.057,0.246-0.085,0.399
		c-1.063-0.098-2.148-0.118-3.254-0.063v-4.242c1.105,0.057,2.212,0.028,3.318-0.084c0.014,0.127,0.04,0.26,0.084,0.4
		c0.013,0.07,0.034,0.146,0.063,0.23C147.521,267.046,147.689,267.271,147.897,267.396z M155.103,268.824l-0.022,4.284
		c-1.092-0.056-2.177-0.034-3.253,0.063c-0.028-0.154-0.064-0.287-0.106-0.399c0-0.014-0.006-0.035-0.022-0.063
		c-0.11-0.434-0.292-0.728-0.545-0.882c-0.112-0.07-0.23-0.147-0.357-0.23c-0.505-0.168-0.938-0.091-1.303,0.23
		c-0.026,0.057-0.062,0.105-0.104,0.147c-0.168,0.183-0.309,0.287-0.419,0.314c-0.027,0-0.062,0-0.105,0
		c-0.281,0-0.481-0.118-0.609-0.356l-0.041-0.042c-0.044-0.153-0.078-0.301-0.104-0.441c-0.03-0.056-0.044-0.098-0.044-0.126
		c-0.057-0.279-0.068-0.518-0.04-0.714c0.012-0.237,0.067-0.434,0.166-0.588c0.014-0.056,0.042-0.092,0.084-0.105
		c0-0.041,0.022-0.069,0.063-0.083c0.112-0.141,0.28-0.21,0.505-0.21c0.014,0,0.042,0.014,0.084,0.041
		c0.112,0.015,0.259,0.119,0.441,0.316c0.014,0.026,0.048,0.062,0.104,0.104c0.337,0.323,0.758,0.399,1.261,0.231
		c0.154-0.056,0.286-0.133,0.398-0.231c0.209-0.125,0.377-0.356,0.504-0.692c0.027-0.07,0.05-0.141,0.062-0.21
		c0.044-0.14,0.072-0.28,0.084-0.42C152.875,268.888,153.981,268.908,155.103,268.824z M151.763,274.285
		c0.042-0.141,0.07-0.273,0.084-0.4c1.079,0.112,2.186,0.141,3.318,0.085v4.264c-1.105-0.057-2.191-0.042-3.254,0.042
		c-0.044-0.154-0.084-0.274-0.129-0.356c0-0.042,0-0.07,0-0.085c-0.124-0.448-0.313-0.749-0.564-0.903
		c-0.112-0.07-0.239-0.141-0.379-0.211c-0.491-0.152-0.917-0.07-1.281,0.253c-0.042,0.042-0.07,0.078-0.084,0.106
		c-0.197,0.194-0.337,0.3-0.419,0.314c-0.043,0-0.085,0-0.127,0c-0.28,0-0.489-0.112-0.629-0.337c-0.017,0-0.022-0.006-0.022-0.021
		c-0.042-0.154-0.084-0.309-0.126-0.463c0-0.056-0.008-0.098-0.021-0.126c-0.056-0.278-0.076-0.518-0.063-0.714
		c0.044-0.238,0.104-0.434,0.188-0.587c0.016-0.057,0.044-0.099,0.084-0.127c0.016-0.014,0.028-0.042,0.044-0.084
		c0.141-0.126,0.32-0.182,0.545-0.167h0.063c0.112,0.014,0.253,0.118,0.421,0.314c0.042,0.042,0.082,0.076,0.126,0.105
		c0.335,0.335,0.754,0.427,1.259,0.272c0.141-0.084,0.273-0.176,0.399-0.272c0.211-0.127,0.379-0.351,0.503-0.673
		C151.715,274.432,151.734,274.355,151.763,274.285z M155.165,279.43v4.242c-1.037-0.056-2.06-0.042-3.065,0.042
		c-0.057,0.015-0.12,0.021-0.188,0.021v-0.021c-0.044-0.14-0.084-0.259-0.129-0.356c0-0.028,0-0.057,0-0.084
		c-0.124-0.434-0.313-0.729-0.564-0.883c-0.112-0.069-0.245-0.146-0.401-0.23c-0.475-0.154-0.895-0.063-1.259,0.273
		c-0.015,0.027-0.042,0.062-0.084,0.104c-0.197,0.196-0.337,0.303-0.419,0.315c-0.043,0-0.085,0-0.127,0
		c-0.28,0.014-0.489-0.097-0.629-0.335l-0.022-0.042c-0.042-0.154-0.084-0.295-0.126-0.421c0-0.057-0.008-0.104-0.021-0.146
		c-0.056-0.267-0.076-0.504-0.063-0.714c0.044-0.253,0.104-0.455,0.188-0.609c0.016-0.028,0.044-0.063,0.084-0.104
		c0.016-0.014,0.028-0.042,0.044-0.084c0.141-0.141,0.32-0.196,0.545-0.169h0.063c0.112,0.015,0.253,0.119,0.421,0.315
		c0.042,0.027,0.082,0.062,0.126,0.106c0.335,0.349,0.754,0.433,1.259,0.25c0.141-0.07,0.273-0.154,0.399-0.25
		c0.211-0.114,0.379-0.337,0.503-0.674c0.017-0.084,0.036-0.16,0.064-0.23c0.042-0.141,0.07-0.272,0.084-0.399
		C152.926,279.458,154.032,279.486,155.165,279.43z M147.563,282.391c0.127,0.35,0.295,0.588,0.504,0.714
		c0.126,0.084,0.26,0.16,0.4,0.23c0.503,0.169,0.922,0.093,1.259-0.23c0.042-0.056,0.085-0.09,0.125-0.104
		c0.168-0.21,0.309-0.314,0.421-0.314c0.044-0.028,0.07-0.042,0.084-0.042c0.21,0,0.385,0.068,0.525,0.209
		c0.014,0.014,0.027,0.036,0.042,0.063c0.042,0.028,0.07,0.063,0.084,0.104c0.099,0.168,0.162,0.371,0.188,0.609
		c0,0.028,0,0.057,0,0.084c0.014,0.183-0.006,0.392-0.063,0.63c0,0.028-0.008,0.07-0.021,0.126
		c-0.042,0.141-0.082,0.287-0.127,0.441c-0.012,0.014-0.033,0.034-0.062,0.062c-0.112,0.225-0.307,0.331-0.588,0.317
		c-0.044,0-0.072,0-0.084,0c-0.112-0.028-0.267-0.135-0.461-0.317c-0.016-0.042-0.044-0.082-0.084-0.124
		c-0.365-0.322-0.792-0.398-1.283-0.232c-0.141,0.057-0.265,0.135-0.377,0.232c-0.253,0.139-0.441,0.434-0.567,0.882v0.063
		c-0.042,0.112-0.084,0.238-0.126,0.379c-1.063-0.099-2.135-0.12-3.213-0.064l-0.042-4.262c1.134,0.055,2.24,0.026,3.318-0.084
		c0.013,0.154,0.041,0.286,0.085,0.398C147.528,282.245,147.549,282.321,147.563,282.391z M151.237,285.582
		c0.211-0.126,0.385-0.349,0.525-0.671c0.014-0.084,0.036-0.16,0.064-0.23c0.027-0.141,0.056-0.272,0.084-0.399
		c1.076,0.112,2.177,0.133,3.296,0.063v4.284c-1.107-0.085-2.191-0.07-3.256,0.042c-0.012-0.154-0.048-0.287-0.104-0.399
		c0-0.014,0-0.027,0-0.042c-0.141-0.447-0.329-0.748-0.567-0.902c-0.11-0.084-0.238-0.154-0.379-0.21
		c-0.489-0.183-0.91-0.099-1.259,0.253c-0.042,0.042-0.076,0.076-0.104,0.104c-0.185,0.196-0.328,0.301-0.44,0.315
		c-0.028,0-0.057,0-0.085,0c-0.28,0-0.488-0.112-0.629-0.335c-0.016,0-0.022-0.022-0.022-0.064
		c-0.056-0.154-0.105-0.295-0.146-0.419c0-0.042-0.008-0.084-0.021-0.126c-0.057-0.281-0.076-0.52-0.063-0.714
		c0.04-0.238,0.097-0.449,0.169-0.632c0.04-0.027,0.068-0.056,0.084-0.084c0.028-0.012,0.048-0.04,0.063-0.084
		c0.138-0.124,0.322-0.181,0.545-0.167h0.064c0.11,0.015,0.25,0.119,0.419,0.315c0.042,0.014,0.076,0.048,0.104,0.104
		c0.352,0.337,0.771,0.428,1.262,0.273C150.993,285.771,151.125,285.681,151.237,285.582z M148.026,288.04
		c0.109,0.084,0.244,0.16,0.396,0.23c0.491,0.154,0.91,0.078,1.261-0.23c0.028-0.056,0.063-0.098,0.106-0.126
		c0.166-0.196,0.307-0.301,0.419-0.314h0.063c0.225,0,0.406,0.062,0.545,0.188c0.016,0.027,0.036,0.05,0.064,0.063
		c0.027,0.042,0.042,0.076,0.042,0.104c0.126,0.183,0.194,0.385,0.21,0.609c0.015,0.196-0.016,0.433-0.084,0.714
		c0,0.042,0,0.076,0,0.104c-0.042,0.126-0.07,0.246-0.084,0.356h-1.388c-0.334-0.293-0.741-0.363-1.217-0.209
		c-0.112,0.057-0.218,0.125-0.314,0.209h-3.99v-2.938c1.119,0.056,2.219,0.027,3.297-0.085c0.028,0.141,0.056,0.273,0.084,0.399
		c0.028,0.07,0.048,0.141,0.064,0.21C147.641,287.676,147.813,287.914,148.026,288.04z M155.207,289.468v0.272h-3.36
		c0.015-0.11,0.036-0.23,0.064-0.356C152.987,289.51,154.088,289.538,155.207,289.468z M170.433,19.904h-0.022
		c0.854-2.268,1.688-4.045,2.5-5.333c-0.335,1.959-0.167,4.165,0.503,6.614c0.688,2.506,1.696,4.537,3.025,6.09
		c-0.784-0.126-1.518-0.174-2.205-0.146c-0.323,0.056-0.616,0.111-0.883,0.167c-0.783,0.154-1.196,0.246-1.238,0.272
		c-0.084,0.029-0.175,0.077-0.272,0.147c-0.169-0.042-0.343-0.16-0.525-0.357c-0.028-0.056-0.07-0.112-0.127-0.167
		c0-0.014-0.014-0.043-0.042-0.084c-0.014,0-0.034-0.007-0.062-0.021v-0.042c-0.323-0.392-0.573-0.854-0.758-1.386
		c-0.112-0.308-0.217-0.651-0.313-1.029c-0.141-0.476-0.239-0.945-0.295-1.407l-0.022-0.084c-0.04-0.406-0.034-0.777,0.022-1.113
		c0-0.041,0-0.083,0-0.126c-0.002,0.029-0.008,0.049-0.022,0.063c0-0.098,0.008-0.189,0.022-0.273
		c0.082-0.266,0.154-0.448,0.21-0.546l0.04-0.041C170.153,20.626,170.306,20.226,170.433,19.904z M169.761,21.858
		c0-0.04,0-0.067,0-0.084c0,0.029-0.017,0.064-0.042,0.105C169.747,21.879,169.761,21.872,169.761,21.858z M178.537,12.176
		c-0.124,0.028-0.244,0.056-0.356,0.084c-0.883,0.167-1.38,1.126-1.49,2.877c-0.098,1.526,0.11,3.262,0.63,5.208
		c0.531,1.933,1.239,3.528,2.121,4.788c0.966,1.471,1.876,2.052,2.73,1.743l0.021,0.021c-0.379,0.715-0.89,1.176-1.533,1.386
		c-0.491,0.154-1.017,0.084-1.576-0.21v-0.02c-0.126-0.042-0.258-0.112-0.398-0.21c-0.449-0.267-0.902-0.644-1.365-1.134h0.022
		c-1.289-1.47-2.27-3.402-2.941-5.796c-0.644-2.381-0.775-4.522-0.398-6.426c0.196-0.91,0.489-1.645,0.882-2.205
		c-0.015-0.014,0-0.042,0.042-0.084c0.295-0.392,0.672-0.651,1.133-0.777C176.857,11.21,177.684,11.462,178.537,12.176z
		 M116.565,38.994l-0.021,0.021c0.323,0.225,0.701,0.497,1.135,0.819l0.062,0.042c0.098,0.042,0.26,0.175,0.483,0.399
		c0.084,0.056,0.162,0.133,0.232,0.231c-0.056-0.028-0.105-0.07-0.147-0.126c0.028,0.042,0.049,0.07,0.063,0.084
		c0.042,0.028,0.07,0.07,0.084,0.125c0.223,0.281,0.441,0.609,0.65,0.987c0.028,0.028,0.042,0.049,0.042,0.063v0.063
		c0.225,0.434,0.413,0.917,0.567,1.449c0.126,0.406,0.224,0.791,0.293,1.155c0.126,0.616,0.168,1.197,0.126,1.743
		c0,0.014-0.007,0.021-0.021,0.021v0.084c0.014,0.042,0.014,0.07,0,0.083c-0.014,0.084-0.035,0.154-0.063,0.21
		c-0.028,0.293-0.105,0.511-0.23,0.65c-0.112,0.015-0.225,0.036-0.336,0.063c-0.042-0.027-0.477,0.12-1.302,0.441
		c-0.267,0.126-0.581,0.252-0.945,0.379c-0.658,0.35-1.309,0.805-1.953,1.364c0.35-2.197,0.105-4.655-0.735-7.37
		c-0.826-2.702-1.968-4.859-3.423-6.469C112.638,36.25,114.452,37.412,116.565,38.994z M106.359,34.437
		c0.504-0.168,1.016-0.147,1.533,0.062l0.084,0.063c0.687,0.252,1.379,0.757,2.079,1.512c1.471,1.554,2.604,3.626,3.403,6.217
		c0.784,2.59,1,4.941,0.651,7.055h0.042c-0.141,0.743-0.343,1.365-0.609,1.87v0.021c-0.07,0.154-0.153,0.295-0.251,0.42l0.021,0.042
		c-0.336,0.546-0.791,0.91-1.365,1.093c-0.7,0.195-1.442,0.055-2.227-0.42h0.021c0.98-0.225,1.483-1.31,1.512-3.256
		c0.083-1.652-0.196-3.535-0.84-5.649c-0.659-2.114-1.47-3.836-2.437-5.166c-1.148-1.582-2.177-2.198-3.087-1.849
		c-0.125,0.014-0.245,0.056-0.357,0.126C104.91,35.444,105.52,34.731,106.359,34.437z"/>
</g>
</svg>
