<?xml version="1.0" encoding="utf-8"?>
<!-- Generator: Adobe Illustrator 16.0.0, SVG Export Plug-In . SVG Version: 6.00 Build 0)  -->
<!DOCTYPE svg PUBLIC "-//W3C//DTD SVG 1.1//EN" "http://www.w3.org/Graphics/SVG/1.1/DTD/svg11.dtd">
<svg version="1.1" id="Layer_1" xmlns="http://www.w3.org/2000/svg" xmlns:xlink="http://www.w3.org/1999/xlink" x="0px" y="0px"
	 width="300px" height="300px" viewBox="0 0 300 300" enable-background="new 0 0 300 300" xml:space="preserve">
<g>
	<path fill-rule="evenodd" clip-rule="evenodd" fill="#010101" d="M172.638,58.852c19.441,46.749,49.271,47.707,89.491,2.873
		c32.153,40.334,41.802,84.371,28.947,132.105c-22.519-41.177-46.895-41.901-73.128-2.176
		c-29.134-16.628-52.492-9.082-70.079,22.635c-20.138-33.719-43.511-41.017-70.122-21.896c-26.203-40.884-50.23-40.8-72.083,0.262
		C-4.23,135.113,5.782,91.628,35.7,62.203c39.002,47.357,68.542,45.966,88.622-4.179C138.046,81.471,154.153,81.748,172.638,58.852z
		"/>
</g>
</svg>
