<?xml version="1.0" encoding="utf-8"?>
<!-- Generator: Adobe Illustrator 16.0.0, SVG Export Plug-In . SVG Version: 6.00 Build 0)  -->
<!DOCTYPE svg PUBLIC "-//W3C//DTD SVG 1.1//EN" "http://www.w3.org/Graphics/SVG/1.1/DTD/svg11.dtd">
<svg version="1.1" id="Layer_1" xmlns="http://www.w3.org/2000/svg" xmlns:xlink="http://www.w3.org/1999/xlink" x="0px" y="0px"
	 width="300px" height="300px" viewBox="0 0 300 300" enable-background="new 0 0 300 300" xml:space="preserve">
<g>
	<path fill-rule="evenodd" clip-rule="evenodd" fill="#CB6728" d="M90.724,167.066h-1.797c-0.088-1.897-0.088-3.782,0-5.651
		c0-2.481,0.104-4.935,0.309-7.36c0.727-8.994,2.608-17.536,5.648-25.625c0.059-0.205,0.147-0.424,0.264-0.656
		c4.729-12.589,12.294-24.153,22.69-34.696c12.997-13.258,27.7-22.299,44.113-27.116c9.347-2.746,18.271-4.264,26.768-4.556
		c9.258-0.264,18.253,0.861,26.984,3.373c11.274,3.387,21.611,9.17,31.017,17.348c13.461,11.711,23.509,25.365,30.138,40.96
		c4.178,9.725,6.745,20.049,7.711,30.969c0.029,0.439,0.07,0.905,0.129,1.403c0.118,2.014,0.205,4,0.264,5.957
		c0.264,12.209-1.501,23.715-5.298,34.521c-5.55,15.8-15.188,29.716-28.913,41.748c-16.032,13.96-34.536,21.758-55.504,23.393
		c-20.913,1.577-39.412-2.291-55.504-11.608c-15.305-8.672-27.291-19.932-35.967-33.776c-3.476-5.52-6.436-11.433-8.891-17.74
		c-0.087-0.117-0.175-0.426-0.262-0.92c0.439-0.352,1.079-0.395,1.927-0.132c-0.059,0.351-0.046,0.744,0.042,1.184
		c0.087,0.262,0.234,0.612,0.438,1.05c1.693,3.738,3.183,6.819,4.47,9.243c0.758,1.403,1.519,2.731,2.275,3.988
		c0.995,1.722,2.016,3.327,3.069,4.818c3.212,4.642,6.979,9.227,11.303,13.754c5.486,5.725,11.81,10.82,18.964,15.288
		c5.432,3.359,11.232,6.076,17.392,8.15l3.286,1.05c4.296,1.433,8.865,2.499,13.712,3.198c4.266,0.643,8.966,1.022,14.105,1.139
		c4.852,0.176,10.208-0.162,16.078-1.007c3.124-0.525,4.776-0.789,4.951-0.789c1.869-0.351,3.459-0.788,4.772-1.313
		c3.796-0.819,7.651-2.017,11.566-3.594c3.387-1.374,7.024-3.125,10.906-5.257c7.535-4.294,14.414-9.579,20.637-15.859
		c2.392-2.422,4.261-4.395,5.607-5.912c1.953-2.25,3.604-4.396,4.947-6.439c0.176-0.059,0.351-0.176,0.526-0.353
		c0.029-0.114,0.13-0.275,0.306-0.479c3.797-5.344,7.024-10.981,9.681-16.909c0.586-1.461,1.008-2.542,1.271-3.242
		c0.527-1.313,0.949-2.396,1.271-3.241c2.776-8.002,4.425-16.152,4.952-24.445c0.205-3.271,0.275-6.439,0.217-9.507
		c0-2.569-0.101-5.022-0.305-7.36c-0.293-3.475-0.774-6.774-1.447-9.899c-1.606-8.09-3.81-15.333-6.616-21.729
		c-0.347-0.905-0.656-1.591-0.92-2.058c-0.347-0.876-0.786-1.505-1.313-1.884c-0.527-1.606-1.33-3.387-2.408-5.344
		c-0.616-1.052-1.636-2.643-3.07-4.775c-4.378-6.63-8.965-12.485-13.753-17.567c-8.146-8.527-16.748-15.025-25.802-19.493
		c-7.945-3.856-16.602-6.396-25.978-7.624c-8.472-1.081-17.696-0.759-27.687,0.964c-10.981,1.957-21.173,5.608-30.577,10.952
		c-7.77,4.351-14.762,9.478-20.984,15.376c-3.387,3.212-6.481,6.426-9.288,9.639c-3.3,3.824-6.101,7.708-8.41,11.652
		c-2.776,4.524-5.098,9.11-6.966,13.756c-0.323,0.554-0.583,1.137-0.787,1.752c-3.041,7.885-5.01,16.338-5.917,25.362
		c-0.054,0.264-0.083,0.571-0.083,0.92c-0.088,0.732-0.147,1.77-0.175,3.111c0,1.694-0.088,2.992-0.264,3.9c0,0.144,0,0.261,0,0.349
		C90.314,163.577,90.372,165.461,90.724,167.066z M230.599,86.593l-0.656,0.481c-7.242-6.95-15.962-9.053-26.152-6.308l-0.791-1.181
		c0.205-0.176,0.468-0.308,0.791-0.396C214.537,73.933,223.473,76.4,230.599,86.593z M210.008,149.499l4.688-2.89l8.631-4.951
		l7.489-3.199l0.966-0.438l6.307-1.096c0.585,0.468,1.183,0.527,1.798,0.176c0.029,0,0.059-0.044,0.088-0.132l4.336,2.804v0.176
		c-0.176-0.759-3.011-0.847-8.502-0.263c-6.364,0.615-16.438,5.505-30.225,14.675l-4.864,3.199l7.143-6.922l-0.129-0.176
		c0.873,0.117,1.576-0.145,2.099-0.789C209.921,149.646,209.979,149.587,210.008,149.499z M165.589,81.337
		c-8.936-1.169-16.865,1.096-23.789,6.789c-0.874,0.673-1.823,0.773-2.843,0.308c4.202-6.133,10.057-9.625,17.563-10.471
		c3.357-0.408,6.469,0.366,9.333,2.323L165.589,81.337z M153.717,147.792l5.082,3.11l0.393,1.052l1.054,0.261l2.538,2.235
		l1.488,0.965c-1.107-0.323-3.867-1.797-8.279-4.425c-4.378-2.66-9.886-5.374-16.514-8.148c-6.599-2.862-11.462-3.519-14.586-1.971
		l0.699-1.928v-0.132l1.751-0.789l1.184-0.088l0.264-0.568c0.118,0.029,0.205,0.043,0.264,0.043c0.527,0.35,1.079,0.335,1.665-0.043
		l5.737,1.313l1.577,0.526l8.326,3.636l1.531,1.093L153.717,147.792z M91.38,192.343c0.146,0.527,0.293,1.022,0.435,1.488
		c0.146,0.527,0.264,1.038,0.351,1.536c0.118,0.495,0.251,1.008,0.398,1.532h0.041c1.167,4.819,0.908,9.316-0.79,13.493
		c-1.519,3.825-4.22,7.433-8.105,10.818c-5.691,4.967-12.19,7.375-19.49,7.229c-4.12-0.087-8.163-1.415-12.136-3.984
		c-5.608-3.653-12.165-6.645-19.671-8.982c-4.261-1.284-7.824-2.672-10.688-4.16c-3.68-1.841-6.862-4.03-9.547-6.572
		c-1.142-1.081-2.062-2.131-2.76-3.153c-0.966-1.197-1.652-2.454-2.061-3.767c-1.197-3.156-0.774-5.93,1.271-8.325
		c1.957-2.365,4.659-3.285,8.104-2.761c2.221,0.354,4.412,1.052,6.574,2.104c1.865,0.877,3.839,2.045,5.913,3.505
		c3.475,2.513,6.904,3.941,10.295,4.294c0.23,0,0.452,0,0.656,0l0.481-0.394c-4.148-4.673-7.582-9.581-10.296-14.721
		c-1.781-3.328-3.094-6.293-3.943-8.892c-0.933-3.358-1.284-6.602-1.05-9.725c0.176-2.25,0.962-4.31,2.367-6.179
		c0.962-1.226,2.041-2.116,3.241-2.673c0.523-0.319,1.096-0.539,1.707-0.656c1.488-0.351,2.864-0.292,4.119,0.176
		c0.292,0.146,0.556,0.308,0.79,0.48c0.845,0.527,1.618,1.243,2.321,2.148c1.05,1.518,1.928,3.431,2.626,5.738
		c0.468,1.372,1.053,3.402,1.752,6.089c0.644,2.017,1.229,3.666,1.752,4.95c0.703,1.781,1.447,3.358,2.237,4.73
		c0.117,0.146,0.264,0.396,0.435,0.744c0.176,0.264,0.439,0.396,0.791,0.396c0.029-2.422,0.175-4.351,0.438-5.782
		c0.23-2.073,0.627-3.957,1.184-5.65c1.137-2.892,2.831-5.068,5.081-6.528c2.245-1.432,4.833-2.044,7.753-1.839
		c1.136,0.146,2.308,0.495,3.503,1.051c0.966,0.438,2.058,1.022,3.287,1.753l3.107,1.884c0.527,0.319,1.007,0.407,1.447,0.262
		c3.504-1.079,6.557-0.161,9.158,2.759l0.522,0.396c-0.118,0.496,0.104,1.008,0.656,1.532l0.398,2.761l0.087,0.571
		c-0.146,0.525-0.087,0.89,0.175,1.092c0.177,0.177,0.365,0.309,0.569,0.396c0.493,0.177,1.225,0.438,2.191,0.788
		c0.23,0.059,0.481,0.147,0.745,0.264c0.146,0,0.276,0.03,0.393,0.088c0.352,0.643,0.644,1.27,0.874,1.882
		c0.673,1.872,0.689,3.827,0.046,5.872c-0.175,0.466-0.363,0.963-0.568,1.488c-0.147,0.177-0.263,0.365-0.352,0.571
		c-0.117,0.494-0.264,0.993-0.439,1.487c-0.147,0.177,0.134,1.489,0.832,3.943c0.175,0.556,0.397,1.24,0.656,2.061
		C91.305,192.123,91.351,192.255,91.38,192.343z M89.54,181.611l0.129,0.568l0.088,0.79l-0.088-1.447c0-0.264,0-0.495,0-0.7
		l-0.129-2.235c0-1.022-0.191-1.928-0.568-2.716c-0.468-0.789-1.008-1.182-1.623-1.182c-0.264-0.028-0.527-0.044-0.791-0.044
		c-0.465,0-0.786,0.174-0.962,0.525c-0.058,0.206-0.146,0.525-0.264,0.963c-0.41,1.083-0.815,1.944-1.225,2.585
		c-0.527,0.848-1.171,1.52-1.929,2.016c-0.38,0.233-0.877,0.54-1.488,0.92l-1.58,0.92c-0.464,0.06-1.56,0.32-3.283,0.788
		c-1.313,0.264-2.455,0.366-3.416,0.309c-0.352,0-0.54,0.085-0.57,0.262c-0.059,0.146-0.088,0.409-0.088,0.79
		c0.059,0.729,0.26,1.577,0.61,2.539c0.03,0.088,0.527,0.919,1.49,2.497c0.263,0.467,0.614,1.023,1.053,1.664
		c0.177,0.264,0.365,0.568,0.569,0.92c0.323,0.498,0.644,1.022,0.961,1.577c0.093,0.264,0.222,0.526,0.397,0.788
		c-0.38-0.262-0.745-0.524-1.095-0.788c-0.702-0.525-1.313-1.05-1.84-1.577c-0.468-0.377-0.832-0.772-1.096-1.184
		c-0.645-0.672-1.138-1.342-1.489-2.013c-0.38-0.645-0.644-1.271-0.791-1.885c-0.028-0.644-0.041-1.139-0.041-1.489
		c0-0.556,0-1.009,0-1.357c0.029-0.527-0.059-0.921-0.264-1.184c-0.175-0.205-0.527-0.292-1.05-0.262l-2.63-2.147
		c-0.293-0.556-0.715-1.081-1.271-1.576c-0.347-0.264-0.933-0.659-1.753-1.184c-0.234-0.088-0.526-0.132-0.873-0.132
		c-0.44,0-0.761,0-0.966,0c-0.176,0-0.411,0.029-0.699,0.088c-0.264,0.118-0.485,0.176-0.656,0.176
		c-0.674,0.175-1.067,0.016-1.184-0.483c-0.088-0.321-0.046-0.539,0.129-0.656c0.088-0.088,0.305-0.176,0.657-0.264
		c0.703-0.233,1.212-0.349,1.535-0.349c1.138-0.117,2.19,0.085,3.153,0.612c0.819,0.439,1.634,1.155,2.454,2.146
		c0.933,1.022,1.853,1.752,2.76,2.19c1.02,0.527,2.187,0.704,3.504,0.527c0.728,0.262,1.606,0.262,2.627,0
		c0.321-0.09,1.125-0.366,2.408-0.834c1.375-0.524,2.471-1.138,3.287-1.838c1.053-0.937,1.752-2.045,2.103-3.331
		c0.234-0.992,0.381-1.767,0.44-2.319c0.087-0.906,0.117-1.753,0.087-2.544c-0.117-1.431-0.485-2.584-1.096-3.46
		c-0.673-0.876-1.681-1.548-3.023-2.014c-2.074-0.702-4.16-0.396-6.264,0.918c-2.104,1.285-3.375,3.067-3.81,5.347
		c-0.059,0.261-0.193,0.773-0.398,1.531c-0.087,0.44-0.347,0.614-0.786,0.524c-0.468-0.027-0.686-0.289-0.657-0.788
		c0.083-0.407,0.218-1.092,0.393-2.059c0.729-1.576,1.184-2.467,1.359-2.67c0.581-0.995,1.208-1.781,1.882-2.367
		c0.498-0.349,0.714-0.671,0.657-0.964c-0.118-0.205-0.422-0.466-0.92-0.788c-1.255-0.876-2.204-1.476-2.849-1.796
		c-2.685-1.635-5.373-2.205-8.058-1.708c-2.572,0.437-4.746,1.825-6.528,4.161c-0.702,0.731-1.225,1.681-1.576,2.848
		c-0.118,0.409-0.352,1.476-0.703,3.199c-0.41,1.108-0.673,2.438-0.786,3.983c0,0.878,0,2.222,0,4.032
		c0,1.256,0.171,2.131,0.522,2.629c0.293,0.377,1.066,0.788,2.326,1.227c0.698,0.202,1.459,0.247,2.274,0.132
		c0.615,0.086,0.861,0.438,0.744,1.05c-0.087,0.176-0.217,0.308-0.393,0.396c-0.059,0-0.234,0.014-0.527,0.044
		c-0.61,0.146-1.313,0.132-2.099-0.044c-0.498-0.146-1.142-0.396-1.928-0.744c-2.045-1.257-3.785-3.054-5.215-5.391l-1.751-3.635
		c-0.761-1.577-1.459-3.403-2.104-5.475c-0.293-1.082-0.815-2.995-1.577-5.74c-0.468-2.104-1.359-4.163-2.672-6.177
		c-0.644-1.022-1.489-1.752-2.542-2.191c-1.167-0.407-2.292-0.466-3.371-0.175c-1.229,0.351-2.267,0.937-3.111,1.752
		c-0.966,0.876-1.623,1.898-1.97,3.067c-1.434,4.351-1.213,8.863,0.657,13.535c1.547,4.82,3.722,9.055,6.528,12.704
		c0.669,1.577,1.735,3.142,3.195,4.688c0.322,0.613,0.907,1.401,1.752,2.365c0.907,1.052,1.489,1.767,1.752,2.146
		c0.526,0.729,1.066,1.097,1.622,1.097c0.527,0,1.137-0.278,1.84-0.835c0.351-0.29,0.598-0.48,0.744-0.568
		c0.322-0.262,0.656-0.335,1.007-0.218h0.042c0.059,0.671-0.087,1.254-0.435,1.753c-1.054,0.758-2.296,1.282-3.726,1.576
		c-1.05,0.175-2.425,0.262-4.119,0.262c-0.171-0.087-0.276-0.13-0.305-0.13h-0.088c-1.518-0.381-2.743-0.747-3.68-1.096
		c-1.43-0.527-2.743-1.111-3.943-1.752c-2.451-2.016-4.83-3.606-7.139-4.775c-2.776-1.343-5.591-2.134-8.455-2.365
		c-1.752-0.117-3.299,0.495-4.646,1.84c-1.225,1.225-1.882,2.688-1.969,4.381c-0.088,1.605,0.292,3.168,1.141,4.688
		c0.494,0.904,1.472,2.115,2.932,3.633c2.367,2.659,5.373,4.937,9.024,6.835c2.747,1.4,6.294,2.833,10.647,4.292
		c4.412,1.492,7.682,2.674,9.814,3.549c3.534,1.461,6.599,3.082,9.2,4.863c1.865,1.228,3.576,2.235,5.123,3.024
		c1.928,0.846,3.797,1.356,5.608,1.531c5.578,0.613,10.735-0.393,15.464-3.021c5.871-3.271,10.119-7.681,12.745-13.23
		c1.845-3.649,2.063-8.177,0.661-13.58c-0.118-0.524-0.263-1.037-0.438-1.532c-0.147-0.527-0.306-1.037-0.481-1.536
		c-0.088-0.204-0.175-0.393-0.264-0.567l-0.046-0.132c-0.146-0.205-0.247-0.467-0.306-0.789c-0.175-0.377-0.393-0.772-0.657-1.184
		c-0.234-0.582-0.45-1.138-0.656-1.664c-0.262-1.255-0.175-2.598,0.264-4.028c0.088-0.323,0.188-0.659,0.306-1.008L89.54,181.611z"
		/>
	<path fill-rule="evenodd" clip-rule="evenodd" fill="#F9AA1A" d="M230.599,86.593c-7.126-10.193-16.062-12.66-26.809-7.404
		c-0.323,0.088-0.586,0.22-0.791,0.396l0.791,1.181c10.19-2.745,18.91-0.642,26.152,6.308L230.599,86.593z M90.724,167.066
		c-0.352-1.605-0.409-3.489-0.175-5.651c0-0.088,0-0.205,0-0.349c0.175-0.908,0.264-2.206,0.264-3.9
		c0.028-1.342,0.087-2.379,0.175-3.111c0-0.349,0.029-0.656,0.083-0.92c0.907-9.023,2.876-17.477,5.917-25.362
		c0.205-0.615,0.464-1.198,0.787-1.752c1.868-4.646,4.189-9.231,6.966-13.756c2.309-3.944,5.11-7.829,8.41-11.652
		c2.806-3.213,5.9-6.427,9.288-9.639c6.223-5.898,13.215-11.025,20.984-15.376c9.404-5.344,19.595-8.995,30.577-10.952
		c9.99-1.723,19.215-2.045,27.687-0.964c9.376,1.228,18.032,3.768,25.978,7.624c9.054,4.468,17.655,10.966,25.802,19.493
		c4.788,5.083,9.375,10.937,13.753,17.567c1.435,2.132,2.454,3.724,3.07,4.775c1.078,1.957,1.881,3.738,2.408,5.344
		c0.526,0.378,0.966,1.008,1.313,1.884c0.264,0.466,0.573,1.152,0.92,2.058c2.807,6.396,5.01,13.639,6.616,21.729
		c0.673,3.125,1.154,6.425,1.447,9.899c0.204,2.338,0.305,4.791,0.305,7.36c0.059,3.067-0.012,6.235-0.217,9.507
		c-0.527,8.293-2.176,16.443-4.952,24.445c-0.321,0.846-0.743,1.928-1.271,3.241c-0.264,0.7-0.686,1.781-1.271,3.242
		c-2.656,5.928-5.884,11.565-9.681,16.909c-0.176,0.204-0.276,0.365-0.306,0.479c-0.176,0.177-0.351,0.294-0.526,0.353
		c-1.343,2.044-2.994,4.189-4.947,6.439c-1.347,1.518-3.216,3.49-5.607,5.912c-6.223,6.28-13.102,11.565-20.637,15.859
		c-3.882,2.132-7.52,3.883-10.906,5.257c-3.915,1.577-7.771,2.774-11.566,3.594c-1.313,0.524-2.903,0.962-4.772,1.313
		c-0.175,0-1.827,0.264-4.951,0.789c-5.87,0.845-11.227,1.183-16.078,1.007c-5.14-0.116-9.84-0.496-14.105-1.139
		c-4.847-0.699-9.416-1.766-13.712-3.198l-3.286-1.05c-6.16-2.074-11.96-4.791-17.392-8.15c-7.155-4.468-13.479-9.563-18.964-15.288
		c-4.324-4.527-8.091-9.112-11.303-13.754c-1.054-1.491-2.074-3.097-3.069-4.818c-0.756-1.257-1.518-2.585-2.275-3.988
		c-1.287-2.424-2.776-5.505-4.47-9.243c-0.205-0.438-0.352-0.788-0.438-1.05c-0.088-0.439-0.102-0.833-0.042-1.184l22.912,0.132
		c10.338,0.087,16.543,0.13,18.617,0.13c0.761,0,1.284-0.057,1.577-0.174c0.409-0.323,0.527-0.817,0.352-1.488
		c-0.059-0.439,0-0.747,0.175-0.921c0.205-0.263,0.527-0.352,0.961-0.263c0.967,0.175,1.928,0.088,2.894-0.264
		c0.728-0.32,1.531-0.804,2.408-1.445c0.523-0.438,0.92-0.542,1.184-0.307c0.205,0.117,0.306,0.479,0.306,1.095
		c0.175,2.16,0.452,3.417,0.832,3.767c0.439,0.351,1.711,0.556,3.814,0.614l0.48,0.045c0.874,0.087,1.489-0.089,1.84-0.525
		c0.348-0.352,0.465-0.95,0.348-1.796c-0.055-0.586-0.055-1.286,0-2.104c0.029-0.904,0.046-1.605,0.046-2.104l-0.046-3.196
		c0-1.17,0.088-1.84,0.263-2.017c0.147-0.174,0.82-0.263,2.016-0.263c0.557,0,0.92,0.161,1.097,0.484
		c0.176,0.174,0.28,0.538,0.305,1.094c0,0.877,0.046,2.337,0.134,4.381c0.088,1.866,0.13,3.313,0.13,4.337
		c0,0.612,0.134,1.05,0.397,1.315c0.259,0.349,0.698,0.48,1.313,0.394c0.438-0.031,1.007-0.031,1.706,0
		c0.351,0.087,0.906,0.175,1.663,0.263c1.024-0.032,1.699-0.381,2.017-1.052c0.264-0.526,0.351-1.301,0.264-2.323
		c-0.088-0.35-0.088-0.788,0-1.313c0-0.554,0-1.008,0-1.358c0-0.935,0-1.636,0-2.102c0-0.817-0.042-1.503-0.131-2.059
		c0-0.672,0.131-1.11,0.395-1.315c0.233-0.32,0.673-0.408,1.313-0.261c0.351,0,0.878,0.014,1.577,0.042
		c0.525,0.177,0.789,0.688,0.789,1.534c-0.087,0.993-0.087,2.35,0,4.074c0,1.838,0,3.183,0,4.029c0,0.788,0.159,1.315,0.481,1.577
		c0.264,0.322,0.79,0.452,1.576,0.395c0.438,0,1.009,0.028,1.711,0.088c0.351,0,0.92,0.012,1.709,0.044
		c0.729,0,1.239-0.19,1.531-0.571c0.264-0.351,0.381-0.906,0.352-1.664c-0.059-0.496-0.088-1.14-0.088-1.928
		c0.059-0.788,0.088-1.416,0.088-1.884c0-0.935,0-1.636,0-2.102c0-0.905-0.029-1.623-0.088-2.148c-0.088-0.611,0-1.021,0.263-1.226
		c0.234-0.233,0.6-0.306,1.096-0.219c0.352,0.087,0.903,0.071,1.665-0.042c0.581,0.113,0.874,0.566,0.874,1.354
		c0.059,1.521,0.088,3.754,0.088,6.704c0.028,1.753,0.205,2.732,0.526,2.937c0.293,0.32,1.313,0.494,3.065,0.525
		c0.469,0,1.184,0,2.15,0c0.697,0,1.165-0.132,1.399-0.394c0.352-0.294,0.481-0.79,0.395-1.491
		c-0.029-0.554-0.043-1.271-0.043-2.147l0.043-2.102c0-0.936,0-1.665,0-2.191c0-0.789-0.013-1.503-0.043-2.146
		c-0.059-0.584,0.043-1.008,0.305-1.271c0.264-0.174,0.704-0.219,1.313-0.132c0.352,0,0.85,0.03,1.489,0.09
		c0.498,0.116,0.748,0.553,0.748,1.313c0,1.021,0.014,2.409,0.043,4.162c0.058,1.956,0.133,3.344,0.216,4.16
		c0,0.703,0.135,1.197,0.398,1.489c0.288,0.232,0.785,0.28,1.488,0.134c0.849-0.088,1.359-0.134,1.535-0.134
		c0.669,0,1.179,0.204,1.53,0.614c1.025-0.146,1.71-0.525,2.062-1.139c0.259-0.525,0.347-1.285,0.259-2.278
		c-0.087-0.351-0.13-0.774-0.13-1.271v-4.469c0-1.169,0.336-1.942,1.009-2.319c0.64-0.411,1.505-0.44,2.584-0.09
		c0.352,0.174,0.586,0.395,0.702,0.656c0,0.147,0,0.483,0,1.01l0.131,7.228c0.087,1.196,0.245,1.913,0.479,2.146
		c0.177,0.177,0.85,0.262,2.017,0.262c0.731,0,1.84,0.014,3.328,0.045c0.703,0.087,1.154-0.045,1.359-0.396
		c0.204-0.292,0.264-0.802,0.175-1.533c-0.175-1.665-0.129-2.978,0.13-3.941c-0.176-0.527-0.259-1.168-0.259-1.928
		c0.083-0.935,0.129-1.594,0.129-1.973c0-0.611,0.13-1.021,0.394-1.226c0.264-0.233,0.703-0.393,1.313-0.482
		c0.879,0,1.464,0.162,1.753,0.482c0.321,0.292,0.485,0.875,0.485,1.751c-0.089,1.082-0.089,2.411,0,3.988
		c0.029,0.847,0.07,2.146,0.129,3.898c0,0.643,0.135,1.082,0.394,1.313c0.204,0.352,0.632,0.497,1.271,0.439
		c0.791-0.088,2.016-0.059,3.68,0.088c0.762,0.029,1.313-0.176,1.664-0.612c0.322-0.352,0.41-0.952,0.264-1.799
		c0-0.524,0-1.182,0-1.972c0.088-0.877,0.134-1.533,0.134-1.97c-0.088-1.168-0.134-2.074-0.134-2.717
		c0-1.315,0.322-2.204,0.966-2.67c0.669-0.499,1.635-0.527,2.89-0.09c0.352,0.09,0.54,0.264,0.569,0.524
		c0.087,0.09,0.133,0.354,0.133,0.789c0.059,2.484,0.088,4.336,0.088,5.564c0,0.673,0.172,1.184,0.522,1.534
		c0.293,0.32,0.804,0.438,1.535,0.35c1.664,0,3.71,0,6.135,0c1.313,0,3.312,0,6,0c0.382,0,1.038,0.058,1.971,0.175
		c0.819-0.028,1.376-0.264,1.664-0.7c0.264-0.41,0.397-1.036,0.397-1.883c-0.029-2.309-0.046-5.113-0.046-8.412
		c0.029-3.739,0.046-6.542,0.046-8.41c-0.205-0.438-0.514-0.746-0.925-0.922c-0.288-0.114-0.714-0.174-1.267-0.174h-6.265
		c-2.426,0-4.482,0.016-6.177,0.044c-1.024,0.087-1.709-0.044-2.061-0.396c-0.377-0.438-0.481-1.08-0.305-1.927
		c0-0.087,0-0.264,0-0.524l-0.047-0.396c-0.845-0.525-1.911-0.788-3.194-0.788c-1.493,0.176-2.585,0.263-3.287,0.263
		c-0.351,0-0.568,0.175-0.657,0.525c-0.029,0.029-0.046,0.336-0.046,0.92c-0.059,0.993-0.129,2.467-0.218,4.424
		c-0.059,1.781-0.07,3.229-0.041,4.336c0,0.848-0.264,1.36-0.79,1.536c-0.644,0-1.138,0-1.488,0c-0.615,0.029-1.055,0-1.318-0.089
		c-0.347-0.264-0.522-0.746-0.522-1.447c0.088-0.847,0.13-2.232,0.13-4.16c-0.088-1.898-0.088-3.299,0-4.204
		c0-0.848-0.147-1.418-0.436-1.711c-0.321-0.262-0.848-0.379-1.58-0.349c-1.342,0.146-2.539,0.175-3.593,0.087
		c-0.581-0.059-1.037,0.073-1.354,0.394c-0.204,0.204-0.31,0.645-0.31,1.315c0,0.759-0.071,2.101-0.218,4.028
		c-0.029,1.782-0.046,3.127-0.046,4.032c0,0.729-0.175,1.227-0.521,1.488c-0.264,0.176-0.762,0.263-1.49,0.263
		c-0.702,0-1.17-0.087-1.404-0.263c-0.293-0.174-0.436-0.657-0.436-1.445c0.029-1.197,0.042-2.688,0.042-4.469
		c0-2.104,0-3.664,0-4.687c-0.845-0.612-1.969-0.876-3.374-0.788c-1.519,0.176-2.644,0.277-3.37,0.308
		c-0.234,0-0.398,0.16-0.481,0.48c-0.029,0.087-0.046,0.351-0.046,0.788l-0.352,4.951c0,0.261,0,0.715,0,1.357
		c0,0.527,0.029,0.964,0.088,1.315c0.117,0.934,0.017,1.576-0.305,1.927c-0.44,0.35-1.097,0.394-1.975,0.132
		c-0.698,0.177-1.179,0.13-1.442-0.132c-0.293-0.292-0.439-0.85-0.439-1.663c0.029-0.937,0.047-2.177,0.047-3.726
		c0-1.868,0-3.155,0-3.854c0-0.701-0.104-1.199-0.31-1.492c-0.322-0.349-0.816-0.48-1.489-0.393c-1.313,0.087-2.467,0.087-3.463,0
		c-0.815-0.088-1.399,0.044-1.752,0.393c-0.263,0.352-0.393,0.935-0.393,1.755c0,1.4-0.071,3.459-0.218,6.176
		c0,0.232,0,0.656,0,1.27c0.059,1.198-0.029,1.913-0.264,2.147c-0.204,0.175-0.966,0.175-2.278,0c-0.527,0.175-0.874,0.175-1.05,0
		c-0.205-0.234-0.31-0.613-0.31-1.141c0-3.765,0.029-6.598,0.087-8.496c0-0.673-0.116-1.111-0.347-1.315
		c-0.263-0.32-0.702-0.452-1.316-0.396c-0.991,0.089-2.292,0.089-3.898,0c-0.644-0.057-1.124,0.029-1.446,0.264
		c-0.205,0.293-0.305,0.774-0.305,1.447c0,0.934-0.076,2.408-0.222,4.424l-0.085,4.6c0,0.524-0.175,0.817-0.525,0.877
		c-0.147,0.029-0.481,0-1.009-0.089c-0.848,0.234-1.431,0.19-1.752-0.132c-0.352-0.263-0.485-0.831-0.393-1.708
		c0.058-0.993,0.058-2.335,0-4.03c0-2.043,0-3.344,0-3.897c0.058-0.703-0.075-1.198-0.397-1.491
		c-0.205-0.264-0.656-0.379-1.355-0.349c-0.878,0.058-2.178,0.058-3.901,0c-0.552,0-0.961,0.085-1.225,0.262
		c-0.234,0.232-0.352,0.658-0.352,1.271c0,0.381-0.012,0.891-0.042,1.531c0,0.411-0.046,0.951-0.134,1.622l-0.088,0.875
		c0.146,0.703,0.176,1.594,0.088,2.673c-0.175,1.432-0.264,2.25-0.264,2.454c0,0.613-0.204,0.92-0.61,0.92
		c-0.498-0.117-0.878-0.204-1.142-0.264c-0.526,0.089-0.92,0.177-1.184,0.264c-0.435,0.06-0.656-0.291-0.656-1.052l-0.088-10.471
		c-0.845-0.349-1.897-0.524-3.153-0.524c-1.4,0.117-2.496,0.176-3.286,0.176c-0.264-0.03-0.451,0.087-0.569,0.349
		c-0.146,0.177-0.218,0.44-0.218,0.791l-0.264,4.16c0,0.524-0.041,0.847-0.129,0.964c-0.176,0.176-0.498,0.073-0.966-0.308
		l-0.264-0.217c-0.176-0.352-0.452-0.541-0.832-0.571h-1.049c-0.996,0-1.518-0.525-1.577-1.577
		c-0.088-0.611-0.557-1.168-1.405-1.663c-1.051-0.703-1.678-1.184-1.882-1.447c-0.937-0.643-1.623-1.079-2.062-1.313
		c-0.815-0.351-1.619-0.438-2.408-0.264c-0.64,0.089-0.933-0.263-0.874-1.051c0.087-0.584-0.029-0.993-0.352-1.226
		c-0.293-0.176-0.728-0.264-1.313-0.264c-0.82,0-1.856,0-3.11,0c-2.074,0-3.142,0-3.199,0c-12.061,0-24.091,0.03-36.097,0.088
		c-0.874-0.058-1.735-0.058-2.585,0L90.724,167.066z M207.733,150.463l0.129,0.176l-7.143,6.922l4.864-3.199
		c13.786-9.17,23.86-14.061,30.225-14.675c5.491-0.583,8.326-0.496,8.502,0.263v-0.176l-4.336-2.804l0.743-1.093
		c0.552-1.696,1.009-3.17,1.355-4.427c0.439-1.664,0.703-3.226,0.791-4.686c0.614-6.923-1.213-13.246-5.475-18.97
		c-3.128-4.352-6.837-7.431-11.127-9.242c-4.267-1.782-9.013-2.265-14.24-1.447c-5.461,0.876-10.19,3.258-14.192,7.14
		c-3.943,4.002-6.397,8.807-7.359,14.413c-0.088,0.438-0.264,1.139-0.526,2.104c-0.117,0.759-0.088,1.474,0.087,2.147
		c-0.497,5.869,0.995,11.506,4.471,16.909C197.977,145.221,202.385,148.77,207.733,150.463z M165.589,81.337l0.264-1.052
		c-2.864-1.957-5.976-2.731-9.333-2.323c-7.506,0.847-13.361,4.338-17.563,10.471c1.02,0.466,1.969,0.366,2.843-0.308
		C148.724,82.433,156.653,80.168,165.589,81.337z M128.79,137.366l-0.264,0.568l-1.184,0.088l-1.751,0.789v0.132l-0.699,1.928
		c3.124-1.548,7.988-0.891,14.586,1.971c6.627,2.775,12.136,5.489,16.514,8.148c4.412,2.628,7.172,4.102,8.279,4.425l-1.488-0.965
		l-2.538-2.235c3.095-1.051,5.679-2.335,7.753-3.853c1.753-1.198,3.387-2.76,4.905-4.688c1.171-1.43,2.396-3.316,3.68-5.652
		c1.054-2.57,1.799-4.747,2.237-6.528c0.552-2.423,0.77-4.703,0.656-6.833c-0.088-0.527-0.221-1.694-0.397-3.505
		c-0.175-1.432-0.393-2.569-0.656-3.416c-1.577-5.93-4.816-10.791-9.727-14.588c-4.935-3.68-10.396-5.434-16.379-5.258
		c-5.491,0.205-10.401,1.986-14.721,5.346c-4.411,3.387-7.606,7.768-9.592,13.141c-0.702,2.045-1.154,3.87-1.358,5.476
		c-0.352,2.045-0.352,3.929,0,5.651c-0.147,1.577,0.028,3.256,0.526,5.037C127.46,133.598,128.004,135.204,128.79,137.366z
		 M129.317,175.741c-2.66,0.087-4.659,0.087-6.001,0c-2.309-0.175-4.249,0.672-5.829,2.539c-0.318,1.052-0.523,1.958-0.611,2.718
		c-0.088,0.934,0.058,1.853,0.434,2.758c0.996,2.338,2.702,3.534,5.127,3.594c1.693,0,4.219,0,7.577,0c0.557,0,0.879,0,0.966,0
		c0.263,0.115,0.394,0.35,0.394,0.7s-0.177,0.525-0.523,0.525c-0.351-0.088-0.614-0.088-0.79,0c-1.548,0.176-3.752,0.19-6.616,0.044
		c-3.095-0.117-5.329-0.117-6.704,0c-0.611,0.06-1.096-0.132-1.442-0.569c-1.054-1.576-1.753-3.052-2.104-4.424
		c-0.438-1.694-0.438-3.374,0-5.039c0.088-0.554,0.264-1.184,0.522-1.883c0.147-0.35,0.411-0.95,0.791-1.796
		c0.175-0.32,0.393-0.525,0.657-0.614c0.175-0.116,0.439-0.174,0.791-0.174c1.547,0,6.234-0.03,14.058-0.09
		c0.557,0,0.791,0.206,0.704,0.615C130.542,175.377,130.074,175.741,129.317,175.741z M89.54,178.587v3.024l-1.095,2.848
		c-0.118,0.349-0.218,0.685-0.306,1.008c-0.439,1.431-0.526,2.773-0.264,4.028c0.206,0.526,0.422,1.082,0.656,1.664
		c0.264,0.411,0.481,0.807,0.657,1.184c0.059,0.322,0.16,0.584,0.306,0.789l0.046,0.132c0.088,0.175,0.175,0.363,0.264,0.567
		c0.175,0.499,0.334,1.009,0.481,1.536c0.175,0.495,0.321,1.008,0.438,1.532c1.401,5.403,1.184,9.931-0.661,13.58
		c-2.626,5.55-6.875,9.959-12.745,13.23c-4.729,2.629-9.886,3.635-15.464,3.021c-1.811-0.175-3.68-0.686-5.608-1.531
		c-1.547-0.789-3.258-1.797-5.123-3.024c-2.601-1.781-5.666-3.402-9.2-4.863c-2.133-0.875-5.403-2.057-9.814-3.549
		c-4.353-1.459-7.9-2.892-10.647-4.292c-3.651-1.898-6.657-4.176-9.024-6.835c-1.459-1.518-2.438-2.729-2.932-3.633
		c-0.849-1.521-1.229-3.083-1.141-4.688c0.087-1.693,0.744-3.156,1.969-4.381c1.347-1.345,2.894-1.957,4.646-1.84
		c2.864,0.231,5.679,1.022,8.455,2.365c2.309,1.169,4.688,2.76,7.139,4.775c1.2,0.641,2.513,1.225,3.943,1.752
		c0.938,0.349,2.163,0.715,3.68,1.096h0.088c0.029,0,0.134,0.043,0.305,0.13c1.694,0,3.069-0.087,4.119-0.262
		c1.43-0.294,2.672-0.818,3.726-1.576c0.347-0.499,0.493-1.082,0.435-1.753h-0.042c-0.351-0.117-0.686-0.044-1.007,0.218
		c-0.146,0.088-0.393,0.278-0.744,0.568c-0.703,0.557-1.313,0.835-1.84,0.835c-0.556,0-1.096-0.367-1.622-1.097
		c-0.264-0.38-0.845-1.095-1.752-2.146c-0.845-0.964-1.43-1.752-1.752-2.365c-1.459-1.547-2.526-3.111-3.195-4.688
		c-2.806-3.649-4.981-7.884-6.528-12.704c-1.87-4.672-2.091-9.185-0.657-13.535c0.347-1.169,1.003-2.191,1.97-3.067
		c0.845-0.815,1.882-1.401,3.111-1.752c1.079-0.291,2.204-0.232,3.371,0.175c1.054,0.439,1.898,1.169,2.542,2.191
		c1.313,2.014,2.204,4.073,2.672,6.177c0.761,2.745,1.284,4.658,1.577,5.74c0.644,2.071,1.342,3.897,2.104,5.475l1.751,3.635
		c1.43,2.337,3.17,4.134,5.215,5.391c0.786,0.349,1.43,0.598,1.928,0.744c0.786,0.176,1.488,0.19,2.099,0.044
		c0.293-0.03,0.469-0.044,0.527-0.044c0.176-0.088,0.305-0.22,0.393-0.396c0.117-0.612-0.129-0.964-0.744-1.05
		c-0.815,0.115-1.576,0.07-2.274-0.132c-1.259-0.438-2.033-0.85-2.326-1.227c-0.351-0.498-0.522-1.373-0.522-2.629
		c0-1.811,0-3.154,0-4.032c0.113-1.546,0.376-2.875,0.786-3.983c0.351-1.724,0.585-2.79,0.703-3.199
		c0.351-1.167,0.874-2.116,1.576-2.848c1.782-2.336,3.956-3.725,6.528-4.161c2.685-0.497,5.374,0.073,8.058,1.708
		c0.645,0.32,1.593,0.92,2.849,1.796c0.498,0.322,0.802,0.583,0.92,0.788c0.058,0.293-0.159,0.615-0.657,0.964
		c-0.674,0.586-1.301,1.372-1.882,2.367c-0.175,0.203-0.63,1.094-1.359,2.67c-0.175,0.967-0.31,1.651-0.393,2.059
		c-0.029,0.499,0.188,0.761,0.657,0.788c0.439,0.09,0.699-0.084,0.786-0.524c0.205-0.758,0.339-1.271,0.398-1.531
		c0.434-2.279,1.706-4.062,3.81-5.347c2.104-1.313,4.189-1.62,6.264-0.918c1.342,0.466,2.351,1.138,3.023,2.014
		c0.611,0.876,0.979,2.029,1.096,3.46c0.029,0.791,0,1.638-0.087,2.544c-0.059,0.553-0.206,1.327-0.44,2.319
		c-0.351,1.286-1.049,2.395-2.103,3.331c-0.816,0.7-1.912,1.313-3.287,1.838c-1.284,0.468-2.087,0.744-2.408,0.834
		c-1.021,0.262-1.899,0.262-2.627,0c-1.317,0.177-2.484,0-3.504-0.527c-0.907-0.438-1.827-1.168-2.76-2.19
		c-0.82-0.99-1.635-1.706-2.454-2.146c-0.962-0.527-2.015-0.729-3.153-0.612c-0.323,0-0.833,0.115-1.535,0.349
		c-0.352,0.088-0.569,0.176-0.657,0.264c-0.175,0.117-0.217,0.335-0.129,0.656c0.117,0.499,0.51,0.658,1.184,0.483
		c0.171,0,0.393-0.058,0.656-0.176c0.288-0.059,0.522-0.088,0.699-0.088c0.205,0,0.526,0,0.966,0c0.347,0,0.639,0.044,0.873,0.132
		c0.82,0.524,1.406,0.92,1.753,1.184c0.555,0.495,0.978,1.021,1.271,1.576l2.63,2.147c0.522-0.03,0.875,0.057,1.05,0.262
		c0.205,0.263,0.293,0.656,0.264,1.184c0,0.349,0,0.802,0,1.357c0,0.351,0.013,0.846,0.041,1.489
		c0.147,0.614,0.411,1.24,0.791,1.885c0.352,0.671,0.845,1.341,1.489,2.013c0.264,0.411,0.627,0.807,1.096,1.184
		c0.527,0.527,1.138,1.052,1.84,1.577c0.351,0.264,0.715,0.526,1.095,0.788c-0.175-0.262-0.305-0.524-0.397-0.788
		c-0.318-0.555-0.639-1.079-0.961-1.577c-0.205-0.352-0.393-0.656-0.569-0.92c-0.438-0.641-0.79-1.197-1.053-1.664
		c-0.962-1.578-1.46-2.409-1.49-2.497c-0.351-0.962-0.552-1.81-0.61-2.539c0-0.381,0.029-0.645,0.088-0.79
		c0.03-0.177,0.218-0.262,0.57-0.262c0.961,0.058,2.102-0.045,3.416-0.309c1.723-0.468,2.819-0.729,3.283-0.788l1.58-0.92
		c0.611-0.38,1.108-0.687,1.488-0.92c0.758-0.496,1.401-1.168,1.929-2.016c0.409-0.641,0.815-1.502,1.225-2.585
		c0.118-0.438,0.206-0.757,0.264-0.963c0.176-0.352,0.498-0.525,0.962-0.525c0.263,0,0.527,0.016,0.791,0.044
		c0.614,0,1.154,0.393,1.623,1.182C89.349,176.659,89.54,177.564,89.54,178.587z"/>
	<path fill-rule="evenodd" clip-rule="evenodd" fill="#060606" d="M94.622,197.031c-0.293-0.176-0.615-0.264-0.962-0.264
		c-0.468,0.088-0.82,0.132-1.054,0.132h-0.041c-0.147-0.524-0.28-1.037-0.398-1.532c4.354,0,8.719,0,13.102,0h8.585
		c0.234,0.173,0.539,0.261,0.92,0.261c0.264,0,0.585,0,0.961,0l18.793,0.044c2.162,0,3.42-0.173,3.767-0.525
		c0.264-0.351,0.369-1.591,0.31-3.724c-0.029-0.524-0.134-0.861-0.31-1.008c-0.175-0.146-0.522-0.217-1.049-0.217l-6.658,0.085
		c-7.623-0.058-12.193-0.085-13.711-0.085c-0.527,0.057-0.908,0.085-1.142,0.085c-0.464,0-0.832-0.116-1.091-0.349
		c0.054-0.293-0.029-0.571-0.268-0.833c-0.259-0.351-0.434-0.6-0.522-0.746c-3.04-4.468-3.271-9.155-0.703-14.062
		c0.351-0.641,0.703-1.08,1.053-1.313c0.376-0.32,0.892-0.481,1.531-0.481c3.798,0.176,7.799,0.176,12.006,0h3.896
		c0.176,0,1.008,0,2.497,0c0.908,0,1.635,0.045,2.192,0.132c0.877,0.087,1.488-0.045,1.84-0.396c0.351-0.32,0.498-0.92,0.439-1.796
		c-0.029-0.729-0.175-1.24-0.439-1.532c-0.263-0.322-0.745-0.439-1.447-0.352c-0.352,0.059-0.832,0.088-1.442,0.088l-27.864-0.22
		c-1.079,0.09-1.927,0.161-2.542,0.22l-19.231,0.043c-0.552-0.524-0.774-1.036-0.656-1.532h8.367c0.85-0.058,1.711-0.058,2.585,0
		c12.005-0.058,24.036-0.088,36.097-0.088c0.058,0,1.125,0,3.199,0c1.254,0,2.291,0,3.11,0c0.586,0,1.021,0.088,1.313,0.264
		c0.322,0.232,0.438,0.642,0.352,1.226c-0.059,0.788,0.234,1.14,0.874,1.051c0.79-0.175,1.593-0.087,2.408,0.264
		c0.439,0.234,1.125,0.671,2.062,1.313c0.205,0.264,0.832,0.744,1.882,1.447c0.848,0.495,1.316,1.052,1.405,1.663
		c0.059,1.052,0.581,1.577,1.577,1.577h1.049c0.38,0.03,0.656,0.22,0.832,0.571l0.264,0.217c0.468,0.381,0.79,0.483,0.966,0.308
		c0.088-0.117,0.129-0.439,0.129-0.964l0.264-4.16c0-0.351,0.072-0.614,0.218-0.791c0.118-0.262,0.306-0.379,0.569-0.349
		c0.79,0,1.886-0.059,3.286-0.176c1.256,0,2.309,0.176,3.153,0.524l0.088,10.471c0,0.761,0.222,1.111,0.656,1.052
		c0.264-0.087,0.657-0.175,1.184-0.264c0.264,0.06,0.644,0.146,1.142,0.264c0.406,0,0.61-0.307,0.61-0.92
		c0-0.204,0.089-1.022,0.264-2.454c0.088-1.079,0.059-1.97-0.088-2.673l0.088-0.875c0.088-0.671,0.134-1.211,0.134-1.622
		c0.03-0.641,0.042-1.15,0.042-1.531c0-0.612,0.117-1.038,0.352-1.271c0.264-0.177,0.673-0.262,1.225-0.262
		c1.724,0.058,3.023,0.058,3.901,0c0.699-0.03,1.15,0.085,1.355,0.349c0.322,0.293,0.455,0.788,0.397,1.491c0,0.554,0,1.854,0,3.897
		c0.058,1.695,0.058,3.037,0,4.03c-0.093,0.877,0.041,1.445,0.393,1.708c0.321,0.322,0.904,0.366,1.752,0.132
		c0.527,0.089,0.861,0.118,1.009,0.089c0.351-0.06,0.525-0.353,0.525-0.877l0.085-4.6c0.146-2.016,0.222-3.49,0.222-4.424
		c0-0.673,0.1-1.154,0.305-1.447c0.322-0.234,0.803-0.32,1.446-0.264c1.606,0.089,2.907,0.089,3.898,0
		c0.614-0.057,1.054,0.075,1.316,0.396c0.23,0.204,0.347,0.643,0.347,1.315c-0.058,1.898-0.087,4.731-0.087,8.496
		c0,0.527,0.104,0.906,0.31,1.141c0.176,0.175,0.522,0.175,1.05,0c1.313,0.175,2.074,0.175,2.278,0
		c0.234-0.234,0.322-0.949,0.264-2.147c0-0.613,0-1.037,0-1.27c0.146-2.717,0.218-4.775,0.218-6.176c0-0.82,0.13-1.403,0.393-1.755
		c0.353-0.349,0.937-0.48,1.752-0.393c0.996,0.087,2.149,0.087,3.463,0c0.673-0.088,1.167,0.044,1.489,0.393
		c0.205,0.293,0.31,0.791,0.31,1.492c0,0.698,0,1.985,0,3.854c0,1.549-0.018,2.789-0.047,3.726c0,0.813,0.146,1.371,0.439,1.663
		c0.264,0.262,0.744,0.309,1.442,0.132c0.878,0.262,1.534,0.218,1.975-0.132c0.321-0.351,0.422-0.993,0.305-1.927
		c-0.059-0.352-0.088-0.788-0.088-1.315c0-0.643,0-1.097,0-1.357l0.352-4.951c0-0.438,0.017-0.701,0.046-0.788
		c0.083-0.32,0.247-0.48,0.481-0.48c0.727-0.03,1.852-0.132,3.37-0.308c1.405-0.088,2.529,0.176,3.374,0.788
		c0,1.022,0,2.583,0,4.687c0,1.781-0.013,3.271-0.042,4.469c0,0.788,0.143,1.271,0.436,1.445c0.234,0.176,0.702,0.263,1.404,0.263
		c0.729,0,1.227-0.087,1.49-0.263c0.347-0.262,0.521-0.759,0.521-1.488c0-0.905,0.017-2.25,0.046-4.032
		c0.146-1.928,0.218-3.27,0.218-4.028c0-0.671,0.105-1.111,0.31-1.315c0.317-0.32,0.773-0.452,1.354-0.394
		c1.054,0.088,2.251,0.06,3.593-0.087c0.732-0.03,1.259,0.087,1.58,0.349c0.288,0.293,0.436,0.863,0.436,1.711
		c-0.088,0.905-0.088,2.306,0,4.204c0,1.928-0.042,3.313-0.13,4.16c0,0.701,0.176,1.184,0.522,1.447
		c0.264,0.089,0.703,0.118,1.318,0.089c0.351,0,0.845,0,1.488,0c0.526-0.176,0.79-0.688,0.79-1.536
		c-0.029-1.107-0.018-2.555,0.041-4.336c0.089-1.957,0.159-3.431,0.218-4.424c0-0.584,0.017-0.891,0.046-0.92
		c0.089-0.351,0.307-0.525,0.657-0.525c0.702,0,1.794-0.087,3.287-0.263c1.283,0,2.35,0.263,3.194,0.788l0.047,0.396
		c0,0.261,0,0.438,0,0.524c-0.177,0.847-0.072,1.489,0.305,1.927c0.352,0.352,1.036,0.482,2.061,0.396
		c1.694-0.028,3.751-0.044,6.177-0.044h6.265c0.553,0,0.979,0.06,1.267,0.174c0.411,0.176,0.72,0.483,0.925,0.922
		c0,1.868-0.017,4.671-0.046,8.41c0,3.299,0.017,6.104,0.046,8.412c0,0.847-0.134,1.473-0.397,1.883
		c-0.288,0.437-0.845,0.672-1.664,0.7c-0.933-0.117-1.589-0.175-1.971-0.175c-2.688,0-4.687,0-6,0c-2.425,0-4.471,0-6.135,0
		c-0.731,0.088-1.242-0.029-1.535-0.35c-0.351-0.351-0.522-0.861-0.522-1.534c0-1.229-0.029-3.08-0.088-5.564
		c0-0.436-0.046-0.699-0.133-0.789c-0.029-0.261-0.218-0.435-0.569-0.524c-1.255-0.438-2.221-0.409-2.89,0.09
		c-0.644,0.466-0.966,1.354-0.966,2.67c0,0.643,0.046,1.549,0.134,2.717c0,0.437-0.046,1.093-0.134,1.97c0,0.79,0,1.447,0,1.972
		c0.146,0.847,0.059,1.447-0.264,1.799c-0.351,0.437-0.902,0.642-1.664,0.612c-1.664-0.146-2.889-0.176-3.68-0.088
		c-0.64,0.058-1.067-0.088-1.271-0.439c-0.259-0.231-0.394-0.671-0.394-1.313c-0.059-1.752-0.1-3.052-0.129-3.898
		c-0.089-1.577-0.089-2.906,0-3.988c0-0.876-0.164-1.459-0.485-1.751c-0.289-0.32-0.874-0.482-1.753-0.482
		c-0.609,0.09-1.049,0.249-1.313,0.482c-0.264,0.205-0.394,0.614-0.394,1.226c0,0.379-0.046,1.038-0.129,1.973
		c0,0.76,0.083,1.4,0.259,1.928c-0.259,0.964-0.305,2.276-0.13,3.941c0.089,0.731,0.029,1.241-0.175,1.533
		c-0.205,0.351-0.656,0.482-1.359,0.396c-1.488-0.031-2.597-0.045-3.328-0.045c-1.167,0-1.84-0.085-2.017-0.262
		c-0.234-0.233-0.393-0.95-0.479-2.146l-0.131-7.228c0-0.526,0-0.862,0-1.01c-0.116-0.262-0.351-0.482-0.702-0.656
		c-1.079-0.351-1.944-0.321-2.584,0.09c-0.673,0.377-1.009,1.15-1.009,2.319v4.469c0,0.496,0.043,0.92,0.13,1.271
		c0.088,0.993,0,1.753-0.259,2.278c-0.352,0.613-1.036,0.992-2.062,1.139c-0.352-0.41-0.861-0.614-1.53-0.614
		c-0.176,0-0.687,0.046-1.535,0.134c-0.703,0.146-1.2,0.099-1.488-0.134c-0.264-0.292-0.398-0.786-0.398-1.489
		c-0.083-0.816-0.158-2.204-0.216-4.16c-0.029-1.753-0.043-3.142-0.043-4.162c0-0.761-0.25-1.197-0.748-1.313
		c-0.64-0.06-1.138-0.09-1.489-0.09c-0.609-0.087-1.05-0.042-1.313,0.132c-0.262,0.264-0.363,0.688-0.305,1.271
		c0.03,0.643,0.043,1.356,0.043,2.146c0,0.526,0,1.256,0,2.191l-0.043,2.102c0,0.876,0.014,1.594,0.043,2.147
		c0.087,0.701-0.043,1.197-0.395,1.491c-0.234,0.262-0.702,0.394-1.399,0.394c-0.967,0-1.682,0-2.15,0
		c-1.753-0.031-2.772-0.205-3.065-0.525c-0.321-0.204-0.498-1.184-0.526-2.937c0-2.95-0.029-5.184-0.088-6.704
		c0-0.788-0.293-1.241-0.874-1.354c-0.762,0.113-1.313,0.129-1.665,0.042c-0.496-0.087-0.861-0.015-1.096,0.219
		c-0.263,0.205-0.351,0.614-0.263,1.226c0.059,0.525,0.088,1.243,0.088,2.148c0,0.466,0,1.167,0,2.102
		c0,0.468-0.029,1.096-0.088,1.884c0,0.788,0.029,1.432,0.088,1.928c0.029,0.758-0.088,1.313-0.352,1.664
		c-0.292,0.381-0.803,0.571-1.531,0.571c-0.789-0.032-1.358-0.044-1.709-0.044c-0.702-0.06-1.272-0.088-1.711-0.088
		c-0.786,0.058-1.313-0.072-1.576-0.395c-0.322-0.262-0.481-0.789-0.481-1.577c0-0.847,0-2.191,0-4.029
		c-0.087-1.725-0.087-3.081,0-4.074c0-0.847-0.264-1.357-0.789-1.534c-0.699-0.028-1.227-0.042-1.577-0.042
		c-0.64-0.147-1.079-0.06-1.313,0.261c-0.264,0.205-0.395,0.644-0.395,1.315c0.089,0.556,0.131,1.241,0.131,2.059
		c0,0.466,0,1.167,0,2.102c0,0.351,0,0.805,0,1.358c-0.088,0.525-0.088,0.964,0,1.313c0.087,1.022,0,1.797-0.264,2.323
		c-0.317,0.671-0.992,1.02-2.017,1.052c-0.757-0.088-1.313-0.176-1.663-0.263c-0.699-0.031-1.268-0.031-1.706,0
		c-0.615,0.087-1.055-0.045-1.313-0.394c-0.264-0.266-0.397-0.703-0.397-1.315c0-1.023-0.042-2.471-0.13-4.337
		c-0.088-2.044-0.134-3.504-0.134-4.381c-0.024-0.556-0.129-0.92-0.305-1.094c-0.177-0.323-0.54-0.484-1.097-0.484
		c-1.195,0-1.868,0.089-2.016,0.263c-0.175,0.177-0.263,0.847-0.263,2.017l0.046,3.196c0,0.498-0.017,1.199-0.046,2.104
		c-0.055,0.818-0.055,1.519,0,2.104c0.117,0.846,0,1.444-0.348,1.796c-0.351,0.437-0.966,0.612-1.84,0.525l-0.48-0.045
		c-2.103-0.059-3.375-0.264-3.814-0.614c-0.38-0.35-0.656-1.606-0.832-3.767c0-0.615-0.102-0.978-0.306-1.095
		c-0.264-0.235-0.66-0.132-1.184,0.307c-0.877,0.642-1.68,1.125-2.408,1.445c-0.966,0.352-1.927,0.438-2.894,0.264
		c-0.435-0.089-0.757,0-0.961,0.263c-0.175,0.174-0.234,0.481-0.175,0.921c0.175,0.671,0.058,1.165-0.352,1.488
		c-0.293,0.117-0.815,0.174-1.577,0.174c-2.074,0-8.279-0.043-18.617-0.13l-22.912-0.132
		C95.701,196.637,95.061,196.68,94.622,197.031z M239.975,136.971c-0.029,0.088-0.059,0.132-0.088,0.132
		c-0.615,0.351-1.213,0.292-1.798-0.176c1.604-2.802,2.659-6.162,3.151-10.076c0-0.029,0-0.101,0-0.219
		c-0.17-4.176-1.195-8.161-3.064-11.958c-2.104-4.146-4.993-7.462-8.672-9.944c-3.476-2.396-7.344-3.724-11.609-3.987
		c-4.207-0.349-8.221,0.366-12.047,2.147c-4.003,1.928-7.302,4.79-9.903,8.585c-1.138,1.579-2.069,3.404-2.801,5.476
		c-0.645,1.696-1.184,3.68-1.623,5.959c0.176,6.804,1.769,12.368,4.776,16.689c2.893,4.236,7.317,7.492,13.271,9.768
		c0.176,0.029,0.322,0.075,0.439,0.132c-0.029,0.088-0.087,0.146-0.176,0.176c-0.522,0.644-1.226,0.905-2.099,0.789
		c-5.349-1.694-9.757-5.242-13.231-10.645c-3.476-5.403-4.968-11.04-4.471-16.909c-0.175-0.673-0.204-1.388-0.087-2.147
		c0.263-0.964,0.438-1.665,0.526-2.104c0.962-5.606,3.416-10.411,7.359-14.413c4.002-3.882,8.731-6.264,14.192-7.14
		c5.228-0.818,9.974-0.335,14.24,1.447c4.29,1.811,7.999,4.89,11.127,9.242c4.262,5.725,6.089,12.047,5.475,18.97
		c-0.088,1.459-0.352,3.021-0.791,4.686c-0.347,1.257-0.804,2.73-1.355,4.427L239.975,136.971z M160.245,152.215l-1.054-0.261
		l-0.393-1.052c0.059-0.087,0.104-0.131,0.129-0.131c0.702-0.205,1.711-0.542,3.023-1.008c1.259-0.41,2.279-0.876,3.069-1.401
		c8.497-5.432,12.775-13.289,12.834-23.568c-0.234-1.14-0.409-2.03-0.527-2.672c-0.903-4.47-2.818-8.382-5.736-11.741
		c-2.748-3.213-6.048-5.534-9.903-6.967c-3.822-1.518-7.782-1.957-11.872-1.313c-4.261,0.671-8.187,2.409-11.784,5.213
		c-5.984,4.732-9.33,11.404-10.028,20.02c0.289,3.475,1.15,6.745,2.584,9.812c0,0.059,0.042,0.132,0.13,0.22
		c-0.586,0.378-1.138,0.393-1.665,0.043c-0.059,0-0.146-0.015-0.264-0.043c-0.786-2.163-1.33-3.768-1.619-4.82
		c-0.498-1.781-0.673-3.46-0.526-5.037c-0.352-1.722-0.352-3.606,0-5.651c0.205-1.606,0.656-3.431,1.358-5.476
		c1.986-5.373,5.182-9.754,9.592-13.141c4.32-3.36,9.23-5.142,14.721-5.346c5.983-0.176,11.444,1.578,16.379,5.258
		c4.91,3.797,8.149,8.659,9.727,14.588c0.264,0.847,0.481,1.984,0.656,3.416c0.177,1.811,0.31,2.978,0.397,3.505
		c0.113,2.13-0.104,4.41-0.656,6.833c-0.438,1.781-1.184,3.958-2.237,6.528c-1.284,2.335-2.509,4.222-3.68,5.652
		c-1.519,1.927-3.152,3.489-4.905,4.688C165.924,149.88,163.34,151.164,160.245,152.215z M133.741,174.162
		c-0.409,0.147-0.714,0.322-0.92,0.527c-0.264,0.261-0.409,0.584-0.439,0.963l13.67,0.089c0.084,0,0.277,0,0.57,0
		c0.234,0,0.393-0.119,0.48-0.351c0.206-0.381,0.042-0.791-0.48-1.229l-3.639-2.715c-1.166-0.438-1.927-0.569-2.274-0.396
		c-0.352,0.177-0.586,0.776-0.702,1.797c0,0.497-0.129,0.834-0.393,1.008c-0.176,0.116-0.515,0.174-1.008,0.174
		c-1.083,0-1.886,0-2.408,0C135.26,174.03,134.44,174.075,133.741,174.162z M185.344,184.151c-0.669-0.146-1.008-0.06-1.008,0.264
		c0,0.378-0.247,1.021-0.745,1.927c-0.522,0.878-0.697,1.636-0.522,2.277c0.176,0.671,0.261,1.518,0.261,2.54
		c-0.056,1.606-0.085,2.44-0.085,2.497c0.056,1.345,0.188,2.119,0.395,2.323c0.263,0.264,1.095,0.396,2.496,0.396
		c0.644,0,1.066-0.091,1.271-0.264c0.317-0.294,0.436-0.715,0.348-1.271c0-0.495,0-1.079,0-1.752c0-0.76,0-1.357,0-1.797v-1.008
		c0.088-1.227,0.062-2.202-0.084-2.934c-0.175-1.05-0.586-1.985-1.229-2.804C186.265,184.313,185.899,184.181,185.344,184.151z
		 M177.637,173.898c0,1.668,0,2.688,0,3.068c0,1.17-0.088,2.191-0.264,3.067c-0.175,0.7-0.017,1.488,0.481,2.365
		c0.557,1.196,0.874,1.913,0.966,2.146c0.024,0.291,0.377,0.423,1.05,0.394c0.557,0,0.861-0.132,0.92-0.394
		c0-0.409,0.247-1.037,0.744-1.883c0.527-0.759,0.703-1.447,0.527-2.061c-0.029-0.322-0.046-0.788-0.046-1.402
		c0-0.76,0-1.299,0-1.621h0.046v-2.188c-0.029-1.694-0.075-2.572-0.134-2.628c-0.118-0.088-1.05-0.177-2.803-0.264
		c-0.556,0-0.919,0.103-1.096,0.308C177.767,172.98,177.637,173.346,177.637,173.898z M189.944,172.235
		c-0.64,0.177-0.949,0.729-0.92,1.663c0.087,1.404,0.133,2.456,0.133,3.156c-0.087,1.169-0.175,2.191-0.264,3.068
		c-0.116,0.641,0.059,1.327,0.527,2.057c0.523,0.876,0.786,1.549,0.786,2.016c0.059,0.176,0.41,0.264,1.051,0.264
		c0.613,0,0.923-0.088,0.923-0.264c0-0.381,0.234-0.92,0.699-1.621c0.497-0.7,0.673-1.285,0.525-1.752
		c-0.028-0.468-0.028-1.081,0-1.84c0-0.817,0-1.418,0-1.796c0-0.7,0-1.228,0-1.579c0-0.642,0-1.21,0-1.709
		c0.06-0.698,0-1.15-0.175-1.354c-0.234-0.353-0.702-0.497-1.4-0.44C190.922,172.047,190.295,172.09,189.944,172.235z M172.64,186.3
		c-0.523,0.113-0.786,0.466-0.786,1.05l0.176,8.278c0,0.205,0.029,0.366,0.087,0.483c0.113,0.173,0.29,0.292,0.523,0.349
		c1.26,0.381,2.191,0.352,2.807-0.085c0.585-0.41,0.874-1.271,0.874-2.587l-0.042-3.065c0.116-1.228,0.129-2.117,0.042-2.673
		c-0.088-1.052-0.452-1.897-1.097-2.541c0.147-0.467,0.147-0.819,0-1.05c-0.113-0.206-0.464-0.352-1.05-0.439
		c-0.814-0.059-1.271,0.176-1.358,0.703C172.698,185.042,172.64,185.567,172.64,186.3z M161.295,185.203
		c-0.61,0.729-0.92,1.444-0.92,2.146c0.059,1.722,0.175,4.353,0.351,7.886c0,0.29,0.059,0.524,0.177,0.7
		c0.087,0.204,0.305,0.349,0.656,0.439c1.372,0.262,2.309,0.217,2.806-0.132c0.464-0.381,0.698-1.271,0.698-2.673v-2.848
		c0.233-2.044-0.159-4.061-1.184-6.047c-0.087-0.261-0.217-0.423-0.394-0.48c-0.116-0.03-0.275-0.088-0.479-0.176
		C162.479,184.02,161.909,184.415,161.295,185.203z M159.589,174.162c0.058-0.875-0.088-1.473-0.439-1.795
		c-0.351-0.349-0.967-0.439-1.839-0.264c-0.177,0-0.411,0-0.704,0c-0.522-0.057-0.891,0.029-1.096,0.264
		c-0.233,0.177-0.347,0.557-0.347,1.139c0,1.782-0.087,3.856-0.264,6.222c-0.087,0.729-0.059,1.329,0.089,1.795
		c0.175,0.584,0.509,1.066,1.003,1.447c-0.024,0.613-0.024,0.963,0,1.05c0.063,0.293,0.351,0.439,0.878,0.439
		c0.645,0,1.05-0.015,1.226-0.044c0.06-0.088,0.117-0.162,0.176-0.22c0.175-0.176,0.221-0.496,0.134-0.964
		c0-0.205,0.13-0.423,0.394-0.657l0.526-0.656c0.176-0.906,0.218-2.19,0.13-3.855C159.426,176.165,159.472,174.863,159.589,174.162z
		 M166.421,173.638c0,2.219-0.017,3.417-0.046,3.593c0,1.342-0.087,2.511-0.259,3.504c-0.063,0.584,0.172,1.226,0.699,1.929
		c0.525,0.729,0.743,1.356,0.656,1.883c0,0.177,0.351,0.262,1.053,0.262c0.641,0,0.963-0.118,0.963-0.349
		c0.059-0.381,0.351-1.008,0.877-1.885c0.465-0.788,0.641-1.49,0.522-2.104c-0.087-0.32-0.116-0.788-0.087-1.399
		c0-0.672,0-1.17,0-1.492l0.087-3.983c0-0.499-0.041-0.777-0.129-0.833c-0.146-0.146-1.154-0.234-3.023-0.264
		c-0.439,0-0.79,0.087-1.05,0.264C166.51,172.908,166.421,173.2,166.421,173.638z M129.317,175.741c0.756,0,1.225-0.364,1.401-1.096
		c0.087-0.409-0.147-0.615-0.704-0.615c-7.824,0.06-12.511,0.09-14.058,0.09c-0.352,0-0.615,0.058-0.791,0.174
		c-0.264,0.089-0.481,0.294-0.657,0.614c-0.38,0.846-0.644,1.446-0.791,1.796c-0.259,0.699-0.434,1.329-0.522,1.883
		c-0.438,1.665-0.438,3.345,0,5.039c0.351,1.372,1.05,2.848,2.104,4.424c0.347,0.438,0.832,0.629,1.442,0.569
		c1.375-0.117,3.608-0.117,6.704,0c2.864,0.146,5.067,0.132,6.616-0.044c0.175-0.088,0.439-0.088,0.79,0
		c0.347,0,0.523-0.175,0.523-0.525s-0.131-0.585-0.394-0.7c-0.087,0-0.41,0-0.966,0c-3.357,0-5.884,0-7.577,0
		c-2.426-0.06-4.132-1.256-5.127-3.594c-0.376-0.905-0.522-1.824-0.434-2.758c0.087-0.76,0.293-1.666,0.611-2.718
		c1.58-1.867,3.52-2.714,5.829-2.539C124.658,175.828,126.657,175.828,129.317,175.741z M150.213,187.35
		c-0.468-0.06-0.791,0.03-0.966,0.263c-0.059,0.174-0.088,0.496-0.088,0.963c0.059,0.731,0.088,1.812,0.088,3.243
		c0.029,1.343,0.116,2.453,0.263,3.328c0.03,0.818,0.367,1.229,1.007,1.229c0.352,0,0.878-0.045,1.577-0.132
		c0.527,0.146,0.937,0.132,1.229-0.045c0.26-0.175,0.393-0.538,0.393-1.095c0-0.848,0-2.045,0-3.592c0-1.577,0-2.731,0-3.462
		c0.089-0.468,0.131-0.816,0.131-1.052c0-0.351-0.177-0.614-0.523-0.788c-0.293-0.116-0.614-0.073-0.966,0.132
		c-0.117,0.087-0.38,0.306-0.791,0.656L150.213,187.35z M146.968,188.05c-0.055-0.526-0.347-0.788-0.874-0.788
		c-0.557,0.057-0.962,0.088-1.226,0.088c-0.263-0.06-0.627-0.06-1.095,0c-0.527,0-0.937,0-1.229,0h-9.459
		c0.176,0.643,0.481,1.051,0.92,1.226c0.352,0.176,0.815,0.22,1.401,0.131c0.409-0.058,0.933-0.087,1.577-0.087
		c0.907,0.06,1.447,0.087,1.622,0.087c0.581,0,1.008,0.132,1.272,0.396c0.083,0.205,0.129,0.643,0.129,1.313
		c0,1.198,0.116,1.913,0.351,2.148c0.234,0.173,0.962,0.264,2.187,0.264c0.586,0,1.171-0.25,1.757-0.747
		c0.845-0.555,1.383-0.861,1.619-0.921c0.644-0.29,1.037-0.759,1.183-1.4C147.131,189.495,147.09,188.927,146.968,188.05z
		 M126.95,185.772c2.601-0.145,4.324-0.174,5.168-0.089c6.545,0.234,12.353,0.234,17.438,0c1.166-0.116,2.104-0.54,2.802-1.269
		c0.645-0.789,0.966-1.796,0.966-3.024c0.059-1.08-0.28-2.03-1.007-2.847c-0.791-0.877-1.711-1.313-2.761-1.313
		c-10.43-0.029-19.566-0.029-27.424,0c-0.966,0-1.723,0.232-2.279,0.7c-0.644,0.524-1.036,1.256-1.182,2.192
		c-0.44,0.641-0.54,1.327-0.306,2.057c0.03,0.176,0.352,0.847,0.962,2.016c0.234,0.494,0.585,0.847,1.053,1.053
		c0.347,0.174,0.845,0.319,1.489,0.436C123.124,185.772,124.817,185.801,126.95,185.772z M218.902,184.415
		c-0.234,0.204-0.31,0.569-0.222,1.094c-0.874,0.731-1.237,1.766-1.092,3.11c0.201,2.482,0.288,4.556,0.26,6.221
		c0,0.615,0.104,1.067,0.31,1.358c0.259,0.291,0.744,0.379,1.442,0.262c0.38-0.057,0.773-0.057,1.184,0
		c0.527,0.029,0.92-0.057,1.184-0.262c0.205-0.233,0.305-0.644,0.305-1.227c-0.059-2.717-0.059-5.025,0-6.922
		c0-0.875-0.363-1.576-1.092-2.104c0.026-0.582,0.026-1.007,0-1.271c-0.146-0.437-0.543-0.656-1.184-0.656
		C219.442,184.107,219.078,184.239,218.902,184.415z M212.416,172.544c-0.176,0.174-0.259,0.45-0.259,0.83
		c-0.029,2.717-0.135,5.257-0.31,7.624c0,0.407,0.059,0.76,0.175,1.05c0.177,0.263,0.44,0.468,0.791,0.615
		c0.059,0.495,0.088,0.817,0.088,0.963c0,0.438,0.146,0.745,0.435,0.92c0.235,0.177,0.603,0.262,1.097,0.262
		c0.527,0,0.861-0.132,1.007-0.393c0.029-0.264,0.029-0.614,0-1.053c0-0.263,0.193-0.583,0.569-0.963
		c0.409-0.352,0.585-0.73,0.527-1.141c-0.029-1.283-0.029-3.926,0-7.927c0-0.352-0.059-0.614-0.177-0.788
		c-0.087-0.177-0.305-0.235-0.656-0.177c-0.321,0-0.716,0-1.184,0l-1.184-0.132C212.901,172.235,212.593,172.338,212.416,172.544z
		 M228.057,174.95c0-1.429-0.177-2.29-0.523-2.583c-0.264-0.234-1.154-0.277-2.672-0.132c-0.469,0.029-0.748,0.132-0.837,0.309
		c-0.259,0.174-0.393,0.45-0.393,0.83c0,2.746-0.087,5.081-0.264,7.01c-0.087,1.168,0.31,2.03,1.184,2.586
		c-0.116,0.613-0.101,1.021,0.046,1.226c0.172,0.351,0.552,0.554,1.138,0.612c0.702,0,1.108-0.202,1.225-0.612
		c0-0.117,0-0.524,0-1.226c0.82-0.614,1.184-1.476,1.097-2.586c-0.029-0.701-0.043-1.591-0.043-2.673
		C228.044,176.513,228.057,175.596,228.057,174.95z M210.096,185.815c-0.088-0.554-0.175-0.979-0.264-1.27
		c-0.059-0.438-0.409-0.731-1.049-0.875c-0.791-0.117-1.313,0.085-1.577,0.612c-0.088,0.293-0.134,0.802-0.134,1.532
		c-0.406,0.146-0.687,0.395-0.832,0.745c0,0.028,0,0.351,0,0.963c0.087,0.731,0.133,1.854,0.133,3.375
		c0.059,1.313,0.059,2.467,0,3.46c0,0.701,0.131,1.196,0.395,1.489c0.292,0.233,0.789,0.322,1.488,0.264
		c0.351-0.088,0.761-0.088,1.229,0c0.522,0.059,0.874-0.03,1.049-0.264c0.176-0.235,0.264-0.612,0.264-1.14c0-0.936,0-2.116,0-3.549
		c0-1.897,0-3.109,0-3.636c0-0.525-0.017-0.847-0.046-0.963C210.664,186.21,210.446,185.962,210.096,185.815z M195.288,184.939
		c-0.61,0.847-0.891,1.621-0.832,2.322l0.264,5.345c0.028,1.577,0.176,2.512,0.438,2.802c0.264,0.235,1.184,0.381,2.761,0.439
		c0.525,0,0.873-0.072,1.05-0.22c0.116-0.145,0.175-0.481,0.175-1.006c-0.059-1.521-0.088-2.643-0.088-3.374
		c0-1.343,0.029-2.468,0.088-3.372c0.117-0.586-0.07-1.287-0.568-2.104c-0.497-0.819-0.745-1.445-0.745-1.885
		c0-0.087-0.088-0.159-0.263-0.217c-0.293,0-0.469,0-0.527,0C196.547,183.641,195.961,184.064,195.288,184.939z M204.928,172.631
		c-0.089-0.234-0.365-0.351-0.833-0.351c-0.292,0.058-0.657,0.058-1.096,0c-0.498,0-0.849-0.016-1.05-0.045
		c-0.438,0-0.702,0.087-0.79,0.264c-0.176,0.176-0.305,0.454-0.394,0.833l-0.264,7.927c0,0.44,0.218,0.965,0.657,1.579
		c0.526,0.613,0.804,1.095,0.833,1.445c0,0.263,0.291,0.393,0.877,0.393c0.611,0,0.934-0.13,0.962-0.393
		c0-0.41,0.276-1.022,0.833-1.841c0.497-0.699,0.673-1.329,0.526-1.883c-0.088-0.381-0.104-0.905-0.046-1.577
		c0-0.759,0-1.315,0-1.665v-3.812C205.173,173.068,205.103,172.776,204.928,172.631z M244.834,176.791
		c0-0.349-0.131-0.568-0.394-0.657c-0.352,0.031-0.615,0.045-0.787,0.045c-4.206-0.029-8.396-0.029-12.574,0
		c-0.498,0-0.757,0-0.786,0c-0.234,0.059-0.438,0.525-0.614,1.4l-0.088,14.632c0,0.525,0.117,0.877,0.352,1.053
		c0.234,0.175,0.61,0.263,1.137,0.263h12.574c0.172,0,0.318,0,0.436,0c0.322,0,0.527-0.132,0.614-0.395
		c0.117-0.205,0.16-0.555,0.131-1.052c0.233-0.205,0.31-0.467,0.221-0.789c-0.116-0.262-0.191-0.48-0.221-0.656V176.791z
		 M89.669,182.18v-0.657l0.088,1.447L89.669,182.18z M91.071,176.527c-0.23-0.612-0.522-1.239-0.874-1.882
		c-0.117-0.058-0.247-0.088-0.393-0.088c-0.264-0.116-0.514-0.205-0.745-0.264c-0.41-0.438-0.966-0.67-1.668-0.698
		c-0.172,0-0.347-0.031-0.522-0.09c-0.205-0.087-0.393-0.219-0.569-0.396c-0.262-0.202-0.321-0.566-0.175-1.092h1.359
		c1.138,0.057,1.999,0.407,2.58,1.05c0.674,0.556,1.008,1.357,1.008,2.409C91.071,175.828,91.071,176.179,91.071,176.527z
		 M91.117,182.399c0,1.724,0,3.547,0,5.477c0,0.729-0.175,1.4-0.527,2.014c-0.698-2.454-0.979-3.767-0.832-3.943
		c0.175-0.494,0.322-0.993,0.439-1.487c0.088-0.206,0.205-0.395,0.352-0.571C90.753,183.362,90.941,182.865,91.117,182.399z
		 M91.815,193.831c-0.142-0.466-0.289-0.961-0.435-1.488c4.178,0,7.694,0,10.559,0c1.342,0,2.713-0.263,4.114-0.788
		c0.615-0.204,1.066-0.512,1.359-0.92c0.293-0.468,0.439-1.052,0.439-1.752c-0.087-1.345-0.087-3.053,0-5.127
		c0-2.688,0-4.424,0-5.212c0-1.401,0-2.469,0-3.198c0-1.315-0.146-2.393-0.439-3.242c-1.869-0.7-3.708-1.007-5.519-0.92
		c-1.84,0.029-7.126,0.117-15.857,0.264l-0.177-1.841c10.718,0,16.268,0,16.648,0c0.493,0,1.342,0.118,2.539,0.353
		c1.2,0.175,1.986,0.891,2.366,2.145c1.255,0.351,1.882,1.17,1.882,2.454v15.201c0,0.847-0.306,1.576-0.92,2.191
		c-0.288,0.231-0.962,0.672-2.012,1.313c-2.981,0.524-6.762,0.744-11.349,0.656C93.906,193.92,92.839,193.891,91.815,193.831z
		 M230.816,138.46l-7.489,3.199l-8.631,4.951c-1.87-0.38-3.622-1.154-5.257-2.323c-1.401-0.934-2.86-2.204-4.383-3.81
		c-0.26-0.352-0.436-0.585-0.522-0.703c-0.264-0.292-0.497-0.466-0.703-0.524c-4.203-6.076-4.833-12.399-1.882-18.969
		c2.686-3.943,6.248-6.103,10.689-6.484c4.026-0.322,7.781,0.891,11.257,3.636c3.271,2.569,5.666,6.06,7.184,10.469
		C231.724,131.202,231.636,134.723,230.816,138.46z M208.912,135.614v0.044c0.614,1.401,1.534,2.687,2.76,3.853
		c0.937,0.906,2.104,1.843,3.504,2.805c0.089,0.029,0.177,0.073,0.264,0.131c0.381,0.117,0.745,0.175,1.097,0.175
		c2.396,0.847,4.411,0.422,6.046-1.269c0.67-0.761,1.021-1.198,1.05-1.315c0.322-0.527,0.481-1.052,0.481-1.578
		c0.849-0.116,1.477-0.481,1.886-1.094c0.293-0.469,0.552-1.213,0.79-2.235c0-0.115,0-0.261,0-0.437
		c-0.063-0.351-0.104-0.715-0.134-1.096c-0.175-0.7-0.305-1.228-0.393-1.576l-0.791-0.791c-0.786-0.291-1.488-0.349-2.104-0.174
		c-0.874-1.752-1.852-3.169-2.936-4.25c-1.254-1.254-2.73-2.189-4.424-2.804c-2.129-0.73-4.044-0.51-5.737,0.659l-2.409-0.439
		c-0.79,0.205-1.417,0.542-1.882,1.008c-1.609,1.577-2.062,3.489-1.359,5.74C205.262,133.276,206.695,134.826,208.912,135.614z
		 M153.717,147.792l-5.828-3.856c0.205,0,0.937,0.032,2.19,0.088c0.966,0.117,1.723,0.088,2.279-0.088l1.576-0.83
		c0.469,0.378,0.995,0.598,1.576,0.656c0.469,0.088,1.009,0,1.623-0.264c0.702-0.263,1.342-0.714,1.928-1.359
		c0.176-0.231,0.611-0.876,1.313-1.928c0-0.261,0-0.466,0-0.612c0.059-0.437,0.059-0.73,0-0.876c0-0.466-0.147-0.876-0.438-1.225
		c-0.06,0-0.131-0.029-0.218-0.088c1.488-2.162,2.058-4.658,1.71-7.491c-0.322-1.869-1.201-3.183-2.63-3.943
		c-1.461-0.845-3.347-1.096-5.65-0.745l-0.088-0.043c-0.995-1.665-2.554-2.336-4.688-2.014c-0.498,0.115-1.054,0.305-1.665,0.569
		c-0.351,0.175-0.802,0.437-1.359,0.788c-0.059,0.088-0.134,0.146-0.218,0.175c-0.614,0.759-0.966,1.181-1.053,1.27
		c-1.167,1.461-1.619,2.979-1.36,4.556c0.206,1.52,1.097,2.628,2.673,3.331c-0.376,0.174-0.64,0.451-0.787,0.832
		c0,0.087-0.046,0.481-0.133,1.184c-0.435,2.54,0.192,4.861,1.886,6.964l-8.326-3.636c-0.259-1.869-0.406-3.328-0.436-4.38
		c-0.058-1.667,0.013-3.126,0.218-4.38c0.761-4.148,2.936-7.77,6.528-10.866c1.752-1.752,3.985-3.007,6.703-3.766
		c2.978-0.935,5.959-0.891,8.938,0.132c3.006,0.991,5.238,2.701,6.702,5.125c2.104,3.095,2.803,6.745,2.104,10.952
		c-0.614,3.912-2.133,7.111-4.558,9.593c-0.644,0.644-1.125,1.139-1.447,1.491C160.128,145.44,157.104,147.003,153.717,147.792z
		 M208.912,135.614c2.133-0.175,3.476-1.403,4.031-3.68c0.702-2.774-0.188-5.198-2.672-7.271c1.693-1.169,3.608-1.389,5.737-0.659
		c1.693,0.615,3.17,1.549,4.424,2.804c1.084,1.081,2.062,2.499,2.936,4.25c-1.079,1.342-1.547,2.701-1.4,4.073
		c0.058,1.344,0.744,2.438,2.057,3.287l0.089,0.042c0,0.526-0.159,1.051-0.481,1.578c-0.029,0.117-0.38,0.554-1.05,1.315
		c-1.635,1.691-3.65,2.116-6.046,1.269c-0.352,0-0.716-0.058-1.097-0.175c-0.087-0.059-0.175-0.103-0.264-0.131
		c-1.399-0.962-2.567-1.899-3.504-2.805c-1.226-1.167-2.146-2.452-2.76-3.853V135.614z M159.719,137.41
		c-1.781-0.468-3.271-0.087-4.471,1.14c-1.284,1.196-1.723,2.714-1.313,4.556l-1.576,0.83c-0.557,0.176-1.313,0.206-2.279,0.088
		c-1.254-0.057-1.986-0.088-2.19-0.088l-1.531-1.093c-1.694-2.103-2.321-4.424-1.886-6.964c0.087-0.703,0.133-1.096,0.133-1.184
		c0.147-0.381,0.411-0.658,0.787-0.832c2.425,0.349,4.423-0.366,6.004-2.147c1.635-1.752,2.217-3.914,1.752-6.484
		c2.304-0.351,4.189-0.1,5.65,0.745c1.429,0.761,2.308,2.074,2.63,3.943C161.776,132.751,161.207,135.248,159.719,137.41z"/>
	<path fill-rule="evenodd" clip-rule="evenodd" fill="#EBF7FE" d="M214.696,146.609l-4.688,2.89
		c-0.117-0.057-0.264-0.103-0.439-0.132c-5.954-2.276-10.379-5.532-13.271-9.768c-3.008-4.322-4.601-9.886-4.776-16.689
		c0.439-2.279,0.979-4.263,1.623-5.959c0.731-2.072,1.663-3.897,2.801-5.476c2.602-3.795,5.9-6.657,9.903-8.585
		c3.826-1.781,7.84-2.497,12.047-2.147c4.266,0.264,8.134,1.591,11.609,3.987c3.679,2.482,6.568,5.798,8.672,9.944
		c1.869,3.797,2.895,7.783,3.064,11.958c0,0.119,0,0.19,0,0.219c-0.492,3.914-1.547,7.274-3.151,10.076l-6.307,1.096l-0.966,0.438
		c0.819-3.737,0.907-7.258,0.263-10.557c-1.518-4.41-3.913-7.9-7.184-10.469c-3.476-2.746-7.23-3.958-11.257-3.636
		c-4.441,0.381-8.004,2.541-10.689,6.484c-2.951,6.57-2.321,12.893,1.882,18.969c0.206,0.059,0.439,0.232,0.703,0.524
		c0.087,0.117,0.263,0.351,0.522,0.703c1.522,1.606,2.981,2.875,4.383,3.81C211.074,145.456,212.826,146.229,214.696,146.609z
		 M158.799,150.902l-5.082-3.11c3.388-0.789,6.411-2.351,9.066-4.686c0.322-0.352,0.804-0.847,1.447-1.491
		c2.425-2.482,3.943-5.681,4.558-9.593c0.699-4.208,0-7.857-2.104-10.952c-1.464-2.423-3.696-4.134-6.702-5.125
		c-2.979-1.023-5.96-1.066-8.938-0.132c-2.718,0.759-4.951,2.013-6.703,3.766c-3.593,3.097-5.767,6.718-6.528,10.866
		c-0.205,1.254-0.275,2.714-0.218,4.38c0.03,1.052,0.177,2.511,0.436,4.38l-1.577-0.526l-5.737-1.313
		c-0.088-0.088-0.13-0.161-0.13-0.22c-1.434-3.067-2.295-6.337-2.584-9.812c0.698-8.616,4.044-15.288,10.028-20.02
		c3.597-2.804,7.522-4.542,11.784-5.213c4.09-0.644,8.05-0.205,11.872,1.313c3.855,1.433,7.155,3.753,9.903,6.967
		c2.918,3.358,4.833,7.271,5.736,11.741c0.118,0.642,0.293,1.532,0.527,2.672c-0.059,10.279-4.337,18.136-12.834,23.568
		c-0.79,0.525-1.811,0.991-3.069,1.401c-1.313,0.466-2.321,0.803-3.023,1.008C158.903,150.771,158.857,150.814,158.799,150.902z
		 M85.86,169.606l-0.221-0.92l19.231-0.043c0.615-0.059,1.464-0.13,2.542-0.22l27.864,0.22c0.61,0,1.09-0.029,1.442-0.088
		c0.702-0.088,1.184,0.029,1.447,0.352c0.264,0.292,0.41,0.804,0.439,1.532c0.059,0.876-0.088,1.476-0.439,1.796
		c-0.352,0.351-0.962,0.482-1.84,0.396c-0.557-0.087-1.284-0.132-2.192-0.132c-1.488,0-2.32,0-2.497,0h-3.896
		c-4.208,0.176-8.208,0.176-12.006,0c-0.639,0-1.154,0.161-1.531,0.481c-0.351,0.233-0.703,0.673-1.053,1.313
		c-2.568,4.906-2.337,9.594,0.703,14.062c0.088,0.146,0.264,0.396,0.522,0.746c0.239,0.262,0.322,0.54,0.268,0.833
		c0.259,0.232,0.627,0.349,1.091,0.349c0.234,0,0.615-0.028,1.142-0.085c1.518,0,6.089,0.027,13.711,0.085l6.658-0.085
		c0.527,0,0.875,0.07,1.049,0.217c0.176,0.146,0.28,0.483,0.31,1.008c0.059,2.133-0.046,3.373-0.31,3.724
		c-0.347,0.353-1.605,0.525-3.767,0.525l-18.793-0.044c-0.376,0-0.698,0-0.961,0c-0.381,0-0.686-0.088-0.92-0.261h-8.585
		c-4.383,0-8.749,0-13.102,0c-0.087-0.498-0.205-1.009-0.351-1.536c1.024,0.06,2.091,0.089,3.199,0.089
		c4.587,0.088,8.367-0.132,11.349-0.656c1.049-0.642,1.724-1.082,2.012-1.313c0.614-0.615,0.92-1.345,0.92-2.191v-15.201
		c0-1.284-0.627-2.104-1.882-2.454c-0.38-1.254-1.166-1.97-2.366-2.145c-1.197-0.234-2.046-0.353-2.539-0.353
		C102.128,169.606,96.578,169.606,85.86,169.606z M166.421,173.638c0-0.438,0.089-0.729,0.264-0.875
		c0.26-0.177,0.61-0.264,1.05-0.264c1.869,0.029,2.877,0.117,3.023,0.264c0.088,0.056,0.129,0.334,0.129,0.833l-0.087,3.983
		c0,0.322,0,0.82,0,1.492c-0.029,0.611,0,1.079,0.087,1.399c0.118,0.613-0.058,1.315-0.522,2.104
		c-0.526,0.877-0.818,1.504-0.877,1.885c0,0.23-0.322,0.349-0.963,0.349c-0.702,0-1.053-0.085-1.053-0.262
		c0.087-0.526-0.131-1.153-0.656-1.883c-0.527-0.703-0.762-1.345-0.699-1.929c0.172-0.993,0.259-2.162,0.259-3.504
		C166.404,177.055,166.421,175.856,166.421,173.638z M159.589,174.162c-0.117,0.701-0.163,2.003-0.134,3.9
		c0.088,1.665,0.046,2.949-0.13,3.855l-0.526,0.656c-0.264,0.234-0.394,0.452-0.394,0.657c0.087,0.468,0.041,0.788-0.134,0.964
		c-0.059,0.058-0.116,0.132-0.176,0.22c-0.176,0.029-0.581,0.044-1.226,0.044c-0.527,0-0.815-0.146-0.878-0.439
		c-0.024-0.087-0.024-0.437,0-1.05c-0.494-0.381-0.828-0.863-1.003-1.447c-0.147-0.466-0.176-1.065-0.089-1.795
		c0.177-2.365,0.264-4.439,0.264-6.222c0-0.582,0.113-0.962,0.347-1.139c0.205-0.234,0.573-0.32,1.096-0.264
		c0.293,0,0.527,0,0.704,0c0.872-0.176,1.488-0.085,1.839,0.264C159.501,172.689,159.646,173.287,159.589,174.162z M161.295,185.203
		c0.614-0.788,1.184-1.184,1.711-1.184c0.204,0.088,0.363,0.146,0.479,0.176c0.177,0.058,0.307,0.22,0.394,0.48
		c1.024,1.986,1.417,4.003,1.184,6.047v2.848c0,1.401-0.234,2.292-0.698,2.673c-0.497,0.349-1.434,0.394-2.806,0.132
		c-0.352-0.091-0.569-0.235-0.656-0.439c-0.118-0.176-0.177-0.41-0.177-0.7c-0.176-3.533-0.292-6.164-0.351-7.886
		C160.375,186.647,160.685,185.933,161.295,185.203z M172.64,186.3c0-0.732,0.059-1.258,0.176-1.577
		c0.088-0.527,0.544-0.762,1.358-0.703c0.586,0.088,0.937,0.233,1.05,0.439c0.147,0.23,0.147,0.583,0,1.05
		c0.645,0.644,1.009,1.489,1.097,2.541c0.087,0.556,0.074,1.445-0.042,2.673l0.042,3.065c0,1.315-0.289,2.177-0.874,2.587
		c-0.615,0.437-1.547,0.466-2.807,0.085c-0.233-0.057-0.41-0.176-0.523-0.349c-0.058-0.117-0.087-0.278-0.087-0.483l-0.176-8.278
		C171.854,186.766,172.116,186.413,172.64,186.3z M189.944,172.235c0.351-0.146,0.978-0.188,1.886-0.132
		c0.698-0.057,1.166,0.088,1.4,0.44c0.175,0.204,0.234,0.656,0.175,1.354c0,0.499,0,1.067,0,1.709c0,0.352,0,0.879,0,1.579
		c0,0.378,0,0.979,0,1.796c-0.028,0.759-0.028,1.372,0,1.84c0.147,0.467-0.028,1.052-0.525,1.752
		c-0.465,0.701-0.699,1.24-0.699,1.621c0,0.176-0.31,0.264-0.923,0.264c-0.641,0-0.992-0.088-1.051-0.264
		c0-0.467-0.263-1.14-0.786-2.016c-0.469-0.729-0.644-1.416-0.527-2.057c0.089-0.877,0.177-1.899,0.264-3.068
		c0-0.7-0.046-1.752-0.133-3.156C188.995,172.965,189.305,172.412,189.944,172.235z M177.637,173.898
		c0-0.553,0.13-0.918,0.393-1.092c0.177-0.205,0.54-0.308,1.096-0.308c1.753,0.087,2.685,0.176,2.803,0.264
		c0.059,0.056,0.104,0.934,0.134,2.628v2.188h-0.046c0,0.322,0,0.861,0,1.621c0,0.614,0.017,1.08,0.046,1.402
		c0.176,0.613,0,1.302-0.527,2.061c-0.497,0.846-0.744,1.474-0.744,1.883c-0.059,0.262-0.363,0.394-0.92,0.394
		c-0.673,0.029-1.025-0.103-1.05-0.394c-0.092-0.233-0.409-0.95-0.966-2.146c-0.498-0.877-0.656-1.665-0.481-2.365
		c0.176-0.876,0.264-1.897,0.264-3.067C177.637,176.586,177.637,175.566,177.637,173.898z M185.344,184.151
		c0.556,0.029,0.921,0.161,1.096,0.395c0.644,0.818,1.055,1.754,1.229,2.804c0.146,0.731,0.172,1.707,0.084,2.934v1.008
		c0,0.439,0,1.037,0,1.797c0,0.673,0,1.257,0,1.752c0.088,0.557-0.03,0.978-0.348,1.271c-0.204,0.173-0.627,0.264-1.271,0.264
		c-1.401,0-2.233-0.132-2.496-0.396c-0.206-0.204-0.339-0.979-0.395-2.323c0-0.057,0.029-0.891,0.085-2.497
		c0-1.022-0.085-1.869-0.261-2.54c-0.175-0.642,0-1.399,0.522-2.277c0.498-0.905,0.745-1.549,0.745-1.927
		C184.336,184.092,184.675,184.005,185.344,184.151z M133.741,174.162c0.699-0.087,1.519-0.132,2.456-0.132c0.522,0,1.325,0,2.408,0
		c0.493,0,0.832-0.058,1.008-0.174c0.264-0.174,0.393-0.511,0.393-1.008c0.116-1.021,0.351-1.62,0.702-1.797
		c0.347-0.174,1.108-0.042,2.274,0.396l3.639,2.715c0.522,0.438,0.686,0.848,0.48,1.229c-0.087,0.231-0.246,0.351-0.48,0.351
		c-0.293,0-0.486,0-0.57,0l-13.67-0.089c0.03-0.379,0.175-0.702,0.439-0.963C133.027,174.484,133.332,174.31,133.741,174.162z
		 M126.95,185.772c-2.133,0.028-3.826,0-5.081-0.089c-0.645-0.116-1.142-0.262-1.489-0.436c-0.468-0.206-0.819-0.559-1.053-1.053
		c-0.61-1.169-0.933-1.84-0.962-2.016c-0.234-0.729-0.134-1.416,0.306-2.057c0.146-0.937,0.539-1.668,1.182-2.192
		c0.557-0.468,1.313-0.7,2.279-0.7c7.858-0.029,16.995-0.029,27.424,0c1.05,0,1.97,0.437,2.761,1.313
		c0.727,0.816,1.065,1.767,1.007,2.847c0,1.229-0.321,2.235-0.966,3.024c-0.698,0.729-1.636,1.152-2.802,1.269
		c-5.085,0.234-10.893,0.234-17.438,0C131.274,185.599,129.551,185.628,126.95,185.772z M146.968,188.05
		c0.122,0.877,0.163,1.445,0.133,1.709c-0.146,0.642-0.539,1.11-1.183,1.4c-0.235,0.06-0.774,0.366-1.619,0.921
		c-0.586,0.497-1.171,0.747-1.757,0.747c-1.225,0-1.953-0.091-2.187-0.264c-0.234-0.235-0.351-0.95-0.351-2.148
		c0-0.671-0.046-1.108-0.129-1.313c-0.264-0.264-0.691-0.396-1.272-0.396c-0.175,0-0.715-0.027-1.622-0.087
		c-0.644,0-1.167,0.029-1.577,0.087c-0.586,0.089-1.05,0.045-1.401-0.131c-0.439-0.175-0.744-0.583-0.92-1.226h9.459
		c0.293,0,0.703,0,1.229,0c0.468-0.06,0.832-0.06,1.095,0c0.264,0,0.669-0.031,1.226-0.088
		C146.622,187.262,146.913,187.523,146.968,188.05z M150.213,187.35l1.354-0.352c0.411-0.351,0.674-0.569,0.791-0.656
		c0.352-0.205,0.673-0.248,0.966-0.132c0.347,0.174,0.523,0.438,0.523,0.788c0,0.235-0.042,0.584-0.131,1.052
		c0,0.73,0,1.885,0,3.462c0,1.547,0,2.744,0,3.592c0,0.557-0.133,0.92-0.393,1.095c-0.293,0.177-0.702,0.191-1.229,0.045
		c-0.698,0.087-1.225,0.132-1.577,0.132c-0.64,0-0.978-0.41-1.007-1.229c-0.147-0.875-0.234-1.985-0.263-3.328
		c0-1.432-0.03-2.512-0.088-3.243c0-0.467,0.029-0.789,0.088-0.963C149.423,187.38,149.745,187.29,150.213,187.35z M244.834,176.791
		v13.844c0.029,0.176,0.104,0.395,0.221,0.656c0.089,0.322,0.013,0.584-0.221,0.789c0.029,0.497-0.014,0.847-0.131,1.052
		c-0.087,0.263-0.292,0.395-0.614,0.395c-0.117,0-0.264,0-0.436,0h-12.574c-0.526,0-0.902-0.088-1.137-0.263
		c-0.234-0.176-0.352-0.527-0.352-1.053l0.088-14.632c0.176-0.875,0.38-1.342,0.614-1.4c0.029,0,0.288,0,0.786,0
		c4.178-0.029,8.368-0.029,12.574,0c0.172,0,0.436-0.014,0.787-0.045C244.703,176.223,244.834,176.442,244.834,176.791z
		 M204.928,172.631c0.175,0.146,0.245,0.438,0.217,0.875v3.812c0,0.35,0,0.906,0,1.665c-0.059,0.672-0.042,1.196,0.046,1.577
		c0.146,0.554-0.029,1.184-0.526,1.883c-0.557,0.818-0.833,1.431-0.833,1.841c-0.028,0.263-0.351,0.393-0.962,0.393
		c-0.586,0-0.877-0.13-0.877-0.393c-0.029-0.351-0.307-0.832-0.833-1.445c-0.439-0.614-0.657-1.139-0.657-1.579l0.264-7.927
		c0.089-0.379,0.218-0.657,0.394-0.833c0.088-0.177,0.352-0.264,0.79-0.264c0.201,0.029,0.552,0.045,1.05,0.045
		c0.438,0.058,0.804,0.058,1.096,0C204.563,172.28,204.839,172.396,204.928,172.631z M195.288,184.939
		c0.673-0.875,1.259-1.299,1.752-1.269c0.059,0,0.234,0,0.527,0c0.175,0.058,0.263,0.13,0.263,0.217
		c0,0.439,0.248,1.065,0.745,1.885c0.498,0.816,0.686,1.518,0.568,2.104c-0.059,0.904-0.088,2.029-0.088,3.372
		c0,0.731,0.029,1.854,0.088,3.374c0,0.524-0.059,0.861-0.175,1.006c-0.177,0.147-0.524,0.22-1.05,0.22
		c-1.577-0.059-2.497-0.204-2.761-0.439c-0.263-0.29-0.41-1.225-0.438-2.802l-0.264-5.345
		C194.397,186.561,194.678,185.786,195.288,184.939z M210.096,185.815c0.351,0.146,0.568,0.395,0.656,0.745
		c0.029,0.116,0.046,0.438,0.046,0.963c0,0.526,0,1.738,0,3.636c0,1.433,0,2.613,0,3.549c0,0.527-0.088,0.904-0.264,1.14
		c-0.175,0.233-0.526,0.322-1.049,0.264c-0.469-0.088-0.879-0.088-1.229,0c-0.699,0.059-1.196-0.03-1.488-0.264
		c-0.264-0.293-0.395-0.788-0.395-1.489c0.059-0.993,0.059-2.147,0-3.46c0-1.521-0.046-2.644-0.133-3.375c0-0.612,0-0.935,0-0.963
		c0.146-0.351,0.426-0.599,0.832-0.745c0-0.73,0.046-1.239,0.134-1.532c0.264-0.527,0.786-0.729,1.577-0.612
		c0.64,0.144,0.99,0.437,1.049,0.875C209.921,184.837,210.008,185.262,210.096,185.815z M228.057,174.95
		c0,0.646-0.013,1.563-0.043,2.761c0,1.082,0.014,1.972,0.043,2.673c0.087,1.11-0.276,1.972-1.097,2.586c0,0.701,0,1.108,0,1.226
		c-0.116,0.41-0.522,0.612-1.225,0.612c-0.586-0.059-0.966-0.262-1.138-0.612c-0.146-0.204-0.162-0.612-0.046-1.226
		c-0.874-0.556-1.271-1.418-1.184-2.586c0.177-1.929,0.264-4.264,0.264-7.01c0-0.38,0.134-0.656,0.393-0.83
		c0.089-0.177,0.368-0.279,0.837-0.309c1.518-0.146,2.408-0.103,2.672,0.132C227.88,172.66,228.057,173.521,228.057,174.95z
		 M212.416,172.544c0.177-0.206,0.485-0.309,0.92-0.309l1.184,0.132c0.468,0,0.862,0,1.184,0c0.352-0.059,0.569,0,0.656,0.177
		c0.118,0.174,0.177,0.437,0.177,0.788c-0.029,4.001-0.029,6.644,0,7.927c0.058,0.41-0.118,0.789-0.527,1.141
		c-0.376,0.38-0.569,0.7-0.569,0.963c0.029,0.438,0.029,0.789,0,1.053c-0.146,0.261-0.479,0.393-1.007,0.393
		c-0.494,0-0.861-0.085-1.097-0.262c-0.288-0.175-0.435-0.481-0.435-0.92c0-0.146-0.029-0.468-0.088-0.963
		c-0.351-0.147-0.614-0.353-0.791-0.615c-0.116-0.29-0.175-0.643-0.175-1.05c0.175-2.367,0.28-4.907,0.31-7.624
		C212.157,172.994,212.24,172.718,212.416,172.544z M218.902,184.415c0.176-0.176,0.54-0.308,1.095-0.396
		c0.641,0,1.038,0.22,1.184,0.656c0.026,0.264,0.026,0.688,0,1.271c0.729,0.527,1.092,1.229,1.092,2.104
		c-0.059,1.896-0.059,4.205,0,6.922c0,0.583-0.1,0.993-0.305,1.227c-0.264,0.205-0.656,0.291-1.184,0.262
		c-0.41-0.057-0.804-0.057-1.184,0c-0.698,0.117-1.184,0.029-1.442-0.262c-0.206-0.291-0.31-0.743-0.31-1.358
		c0.028-1.665-0.059-3.738-0.26-6.221c-0.146-1.345,0.218-2.379,1.092-3.11C218.593,184.984,218.668,184.619,218.902,184.415z
		 M91.38,192.343c-0.029-0.088-0.075-0.22-0.134-0.393c-0.259-0.82-0.481-1.505-0.656-2.061c0.352-0.613,0.527-1.284,0.527-2.014
		c0-1.93,0-3.753,0-5.477c0.644-2.045,0.627-4-0.046-5.872c0-0.349,0-0.699,0-1.05c0-1.052-0.334-1.854-1.008-2.409
		c-0.581-0.643-1.442-0.993-2.58-1.05h-1.359l-0.087-0.571c8.731-0.146,14.017-0.234,15.857-0.264c1.811-0.087,3.65,0.22,5.519,0.92
		c0.293,0.85,0.439,1.927,0.439,3.242c0,0.729,0,1.797,0,3.198c0,0.788,0,2.524,0,5.212c-0.087,2.074-0.087,3.782,0,5.127
		c0,0.7-0.146,1.284-0.439,1.752c-0.293,0.408-0.744,0.716-1.359,0.92c-1.401,0.525-2.772,0.788-4.114,0.788
		C99.075,192.343,95.558,192.343,91.38,192.343z M210.271,124.662c2.483,2.074,3.374,4.497,2.672,7.271
		c-0.556,2.277-1.898,3.505-4.031,3.68c-2.217-0.788-3.65-2.338-4.291-4.644c-0.702-2.25-0.25-4.163,1.359-5.74
		c0.465-0.466,1.092-0.803,1.882-1.008L210.271,124.662z M153.148,125.23c0.465,2.57-0.117,4.732-1.752,6.484
		c-1.581,1.782-3.58,2.497-6.004,2.147c-1.577-0.703-2.467-1.811-2.673-3.331c-0.259-1.577,0.193-3.095,1.36-4.556
		c0.087-0.088,0.438-0.511,1.053-1.27c0.083-0.029,0.159-0.087,0.218-0.175c0.557-0.352,1.008-0.613,1.359-0.788
		c0.61-0.264,1.167-0.454,1.665-0.569c2.133-0.322,3.692,0.349,4.688,2.014L153.148,125.23z M224.113,138.46l-0.089-0.042
		c-1.313-0.849-1.999-1.942-2.057-3.287c-0.146-1.372,0.321-2.731,1.4-4.073c0.615-0.175,1.317-0.117,2.104,0.174l0.791,0.791
		c0.088,0.349,0.218,0.876,0.393,1.576c0.029,0.381,0.07,0.745,0.134,1.096c0,0.176,0,0.322,0,0.437
		c-0.238,1.022-0.497,1.767-0.79,2.235C225.59,137.979,224.962,138.344,224.113,138.46z M153.935,143.105
		c-0.409-1.842,0.029-3.36,1.313-4.556c1.199-1.227,2.689-1.608,4.471-1.14c0.087,0.059,0.158,0.088,0.218,0.088
		c0.291,0.349,0.438,0.759,0.438,1.225c0.059,0.146,0.059,0.439,0,0.876c0,0.146,0,0.351,0,0.612
		c-0.702,1.052-1.138,1.696-1.313,1.928c-0.586,0.645-1.226,1.096-1.928,1.359c-0.614,0.264-1.154,0.352-1.623,0.264
		C154.93,143.704,154.403,143.484,153.935,143.105z"/>
</g>
</svg>
