<?xml version="1.0" encoding="utf-8"?>
<!-- Generator: Adobe Illustrator 16.0.0, SVG Export Plug-In . SVG Version: 6.00 Build 0)  -->
<!DOCTYPE svg PUBLIC "-//W3C//DTD SVG 1.1//EN" "http://www.w3.org/Graphics/SVG/1.1/DTD/svg11.dtd">
<svg version="1.1" id="Layer_1" xmlns="http://www.w3.org/2000/svg" xmlns:xlink="http://www.w3.org/1999/xlink" x="0px" y="0px"
	 width="300px" height="300px" viewBox="0 0 300 300" enable-background="new 0 0 300 300" xml:space="preserve">
<g>
	<path fill-rule="evenodd" clip-rule="evenodd" fill="#989898" d="M134.253,99.063c-2.023,7.242-1.133,13.038,2.667,17.388
		l-35.057,54.854L66.381,55.242c0.851-3.006,2.497-1.795,4.936,3.63c17.472,25.528,37.061,37.921,58.768,37.185
		C132.903,94.941,134.292,95.943,134.253,99.063z M218.096,74.218l-25.696,15.996l23.172-7.175l4.651,7.601l-52.245,18.352
		l43.396-49.521L218.096,74.218z M58.979,174.652c-0.53-4.691-0.558-8.121-0.086-10.297c2.952-3.176,6.043-1.354,9.274,5.475
		C64.425,170.758,61.361,172.365,58.979,174.652z M53.249,186.195l-3.374,3.912C46.962,185.155,48.086,183.852,53.249,186.195z
		 M218.096,177.035l-34.12-2.524l30.774,7.174l-12.226,18.124l-75.305-26.461l52.133-12.736l49.296-0.85L218.096,177.035z
		 M183.011,247.402l-0.084,0.257l-45.381-8.256c-37.401-10.474-50.752-19.787-40.049-27.938l42.318,24.849L183.011,247.402z"/>
	<path fill-rule="evenodd" clip-rule="evenodd" fill="#231F20" d="M218.096,74.218l-6.722-14.749l-43.396,49.521l52.245-18.352
		l-4.651-7.601l-23.172,7.175L218.096,74.218z M233.695,90.668c-14.712,23.939-12.318,47.111,7.177,69.518
		c4.311,1.626,4.955,4.198,1.928,7.715l-0.681-0.538c-32.069,29.231-38.526,61.122-19.372,95.669
		c9.076,2.835,15.96,7.325,20.649,13.472c-4.5,9.227-11.95,8.387-22.352-2.523c-7.81-2.839-14.123-3.821-18.945-2.951
		c5.729,2.249,8.111,5.059,7.146,8.424c-3.669,4.727-9.559,4.171-17.67-1.672c-10.438-14.221-22.52-20.678-36.247-19.372
		c-38.026,1.909-63.176-12.284-75.447-42.574c-13.027,1.702-22.577-4.057-28.646-17.273c-5.561-4.35-8.094-8.699-7.603-13.046
		c1.683-4.633,6.043-5.494,13.077-2.582c2.628-6.617,8.385-10.125,17.271-10.523c-1.133-5.332-0.008-8.424,3.376-9.274
		c5.106,2.534,7.631,6.609,7.573,12.224c10.231,3.025,14.542,8.283,12.935,15.77L226.123,8.472
		c-6.467,26.416-3.942,50.855,7.572,73.318C236.457,84.21,236.457,87.169,233.695,90.668z M65.474,185.261
		c5.293,1.398,8.329-0.388,9.104-5.362C69.983,179.313,66.948,181.099,65.474,185.261z M53.249,186.195
		c-5.162-2.344-6.287-1.04-3.374,3.912L53.249,186.195z M218.096,177.035l10.553-17.273l-49.296,0.85l-52.133,12.736l75.305,26.461
		l12.226-18.124l-30.774-7.174L218.096,177.035z M183.011,247.402l-43.197-11.088l-42.318-24.849
		c-10.703,8.15,2.648,17.464,40.049,27.938l45.381,8.256L183.011,247.402z"/>
	<path fill-rule="evenodd" clip-rule="evenodd" fill="#FFFFFF" d="M65.474,185.261c1.474-4.162,4.509-5.948,9.104-5.362
		C73.803,184.873,70.768,186.659,65.474,185.261z"/>
</g>
</svg>
