<?xml version="1.0" encoding="utf-8"?>
<!-- Generator: Adobe Illustrator 16.0.0, SVG Export Plug-In . SVG Version: 6.00 Build 0)  -->
<!DOCTYPE svg PUBLIC "-//W3C//DTD SVG 1.1//EN" "http://www.w3.org/Graphics/SVG/1.1/DTD/svg11.dtd">
<svg version="1.1" id="Layer_1" xmlns="http://www.w3.org/2000/svg" xmlns:xlink="http://www.w3.org/1999/xlink" x="0px" y="0px"
	 width="300px" height="300px" viewBox="0 0 300 300" enable-background="new 0 0 300 300" xml:space="preserve">
<g>
	<path fill-rule="evenodd" clip-rule="evenodd" fill="#030405" d="M160.801,72.287c-3.584,1.555-7.302,3.583-11.156,6.085
		c-1.42,0.879-2.874,1.825-4.36,2.839c-1.826,1.353-3.72,2.806-5.681,4.362c-4.259,3.313-11.223,9.364-20.892,18.153
		c-4.259,3.922-8.553,8.08-12.879,12.474c-6.018,6.085-12.036,12.643-18.053,19.675c-2.838,3.38-5.679,6.896-8.519,10.548
		c-0.811,0.945-1.724,2.196-2.738,3.751c-0.406-2.5-0.709-5.036-0.913-7.605c1.689-2.096,3.516-4.327,5.477-6.693
		c1.689-2.028,3.448-4.124,5.273-6.288c6.222-7.234,12.71-14.435,19.473-21.602c4.191-4.53,8.483-9.026,12.879-13.488
		c5.003-5.611,11.461-10.987,19.37-16.125c2.435-1.623,4.835-3.11,7.202-4.462c1.486-0.812,2.939-1.589,4.36-2.333
		c3.109-1.622,6.186-3.042,9.229-4.258c2.096-0.813,4.396-1.725,6.896-2.739c2.771,0.541,5.512,1.251,8.215,2.129
		C167.967,69.21,163.573,71.069,160.801,72.287z M197.615,80.197c-0.338,0.339-0.678,0.643-1.014,0.913
		c-1.895,1.69-4.361,3.651-7.404,5.882c-4.801,3.583-7.842,5.951-9.127,7.099c-3.111,2.569-5.24,4.97-6.389,7.201
		c-2.502,4.732-6.729,10.784-12.678,18.153c-2.502,3.042-6.289,7.606-11.359,13.691c-0.743,0.946-1.488,1.859-2.23,2.738
		c-0.677,0.811-1.387,1.657-2.129,2.535c-0.137,0.203-0.271,0.406-0.406,0.608c-0.678,0.743-1.353,1.556-2.028,2.435
		c-3.72,4.664-8.959,12.237-15.72,22.718c-3.787,5.882-9.264,14.603-16.431,26.165c-1.014,1.622-2.129,4.36-3.346,8.215
		c-1.691-1.148-3.348-2.4-4.97-3.753c2.771-6.49,5.138-11.291,7.099-14.4c3.989-6.355,9.363-13.861,16.125-22.515
		c5.814-7.573,10.276-13.861,13.386-18.864c0.271-0.405,0.507-0.845,0.711-1.318c0.336-0.541,0.709-1.148,1.115-1.825
		c1.488-2.435,2.976-4.834,4.463-7.2c1.486-2.231,2.939-4.396,4.36-6.491c6.085-8.924,12.271-16.937,18.561-24.036
		c8.248-9.127,16.428-16.395,24.541-21.804C194.369,77.561,195.992,78.845,197.615,80.197z M185.039,76.749
		c-12.914,8.046-21.637,13.556-26.166,16.531c-0.608,0.406-1.217,0.811-1.824,1.217c-2.232,1.622-4.701,3.65-7.404,6.085
		c-1.353,1.217-2.805,2.569-4.36,4.057c-0.947,1.014-1.961,2.028-3.042,3.042c-1.014,1.082-2.064,2.197-3.146,3.347
		c-4.394,4.597-9.735,10.412-16.022,17.444c-2.096,2.163-4.124,4.631-6.085,7.403c-0.745,1.014-1.454,2.062-2.129,3.144
		c-3.72,5.544-7.337,12.204-10.853,19.979c-1.689,3.719-4.292,9.466-7.808,17.24c-1.286,2.908-2.603,5.68-3.956,8.316
		c-1.286-1.555-2.502-3.144-3.651-4.767c1.082-2.637,2.435-5.679,4.057-9.128c4.326-9.465,7.875-16.327,10.648-20.587
		c2.838-4.192,5.34-7.877,7.505-11.055c0.675-1.082,1.351-2.13,2.028-3.144c0.743-1.082,1.418-2.096,2.028-3.043
		c5.138-7.775,8.923-14.165,11.358-19.168h-3.752c-4.734,5.003-10.278,11.629-16.632,19.878c-0.608,0.812-1.218,1.589-1.827,2.333
		c-2.771,3.65-5.679,7.539-8.721,11.663c-5.41,7.302-10.108,13.623-14.097,18.965c-0.879-1.961-1.623-3.989-2.23-6.085
		c6.828-10.412,12.069-17.984,15.72-22.718c0.406-0.541,0.877-1.148,1.42-1.825c3.312-4.327,6.557-8.147,9.736-11.46
		c1.149-1.15,2.264-2.265,3.345-3.347c5.477-5.274,11.326-9.601,17.546-12.982c3.312-1.825,8.486-5.172,15.518-10.04
		c0.472-0.339,0.945-0.677,1.418-1.014c0.541-0.339,1.082-0.71,1.624-1.116c0.608-0.473,1.25-0.946,1.925-1.419
		c0.745-0.541,1.555-1.082,2.435-1.623c4.191-2.974,9.533-6.761,16.024-11.358c6.491-4.599,12.069-8.384,16.733-11.359
		c2.299,1.149,4.564,2.433,6.795,3.854C187.914,74.822,186.527,75.735,185.039,76.749z M206.539,89.02
		c-2.029,2.367-3.818,4.868-5.375,7.505c-1.15,1.893-2.672,5.071-4.563,9.533c-0.947,2.231-1.994,4.767-3.145,7.606
		c-3.988,11.359-6.695,18.628-8.113,21.805c-0.543,1.217-1.082,2.4-1.623,3.55c-3.516,6.964-7.268,11.697-11.258,14.198v-4.361
		c0.744-2.771,1.961-6.051,3.65-9.837c1.354-2.84,2.977-6.017,4.869-9.533c4.191-7.572,7.74-13.049,10.648-16.429v-6.186h-1.215
		c-2.098,2.028-4.057,3.921-5.885,5.679c-3.516,3.583-5.271,5.612-5.271,6.085c0,0.203-4.295,6.999-12.881,20.385
		c-3.178,4.868-6.932,10.615-11.258,17.24c-1.555,2.502-3.989,6.593-7.301,12.272c-0.879,1.555-1.726,3.042-2.536,4.462
		c-1.286,2.367-2.501,4.632-3.652,6.795c-0.947,1.623-1.757,3.617-2.433,5.983c-0.406,1.285-0.98,3.144-1.725,5.578
		c-1.353,3.988-3.685,6.524-6.998,7.605v-4.969c1.894-7.504,6.83-17.815,14.808-30.932c0.202-0.271,0.371-0.541,0.507-0.812
		c4.528-7.369,9.702-15.111,15.515-23.225c3.449-4.868,7.167-9.871,11.156-15.01c8.52-11.156,16.566-20.925,24.139-29.309
		c1.014-1.083,1.961-2.164,2.838-3.246c1.76-1.825,3.348-3.482,4.768-4.97C205.018,87.296,205.797,88.142,206.539,89.02z
		 M211.205,94.902c-0.473,1.284-1.859,3.82-4.16,7.606c-2.5,4.125-3.92,7.032-4.258,8.723c-1.148,4.53-2.129,7.843-2.941,9.938
		c-0.947,2.299-2.029,4.158-3.244,5.578c-0.609,0.677-1.252,1.251-1.928,1.725c0.607-3.652,1.047-6.424,1.318-8.316
		c0.203-1.15,0.404-2.231,0.609-3.246c0.473-2.028,0.98-3.887,1.521-5.578c2.027-5.95,5.611-11.9,10.75-17.849
		c0.607,0.135,1.215,0.338,1.826,0.608C210.834,94.361,211.002,94.632,211.205,94.902z M215.059,105.957
		c0.406-0.947,0.846-1.859,1.318-2.738c1.824,3.583,3.346,7.268,4.564,11.055c-0.34,0.541-0.678,1.014-1.014,1.419
		c-6.018,6.694-10.313,11.968-12.883,15.821c-1.555,2.366-3.143,4.868-4.766,7.505c-1.893,2.975-3.787,6.085-5.678,9.33
		c-0.205,0.406-0.406,0.777-0.609,1.116c-4.057,7.031-6.963,12.575-8.723,16.632c-2.838,6.491-6.254,13.995-10.242,22.515
		c-4.125,8.858-7.473,16.024-10.041,21.5c-2.703,0.609-5.475,1.05-8.315,1.318c4.868-10.209,11.19-22.447,18.964-36.713
		c7.709-13.859,14.029-25.32,18.967-34.379c0.27-0.474,0.506-0.913,0.709-1.319c2.637-4.801,4.902-8.891,6.795-12.271
		C208.432,118.837,212.082,111.906,215.059,105.957z M219.521,132.731c0.406,0.945,0.607,1.689,0.607,2.23
		c0,0.271-0.607,1.623-1.824,4.057c-1.354,2.907-3.549,7.269-6.592,13.083c-1.15,2.435-4.531,8.958-10.143,19.573
		c-1.691,3.313-3.348,6.896-4.969,10.751c-1.014,2.5-1.994,5.138-2.941,7.91c-0.947,2.636-2.129,5.949-3.551,9.938
		c-2.502,1.691-5.104,3.213-7.807,4.563c2.904-7.572,5.406-13.657,7.502-18.255c2.166-4.53,4.43-9.938,6.797-16.227
		c0.473-1.217,0.947-2.468,1.42-3.753c3.043-8.384,5.238-14.333,6.592-17.849c1.555-3.989,2.973-7.234,4.26-9.736
		c0.607-1.217,1.215-2.266,1.826-3.144c2.162-3.313,4.359-4.97,6.592-4.97C218.168,130.905,218.912,131.514,219.521,132.731z
		 M167.596,143.481h1.115v9.026c-1.486,2.299-4.193,6.794-8.113,13.488c-3.988,6.018-8.079,9.972-12.271,11.865
		c0.541-3.042,3.751-9.364,9.635-18.965C161.949,152.608,165.162,147.471,167.596,143.481z M176.113,154.333v4.969
		c-1.283,2.435-6.252,10.107-14.906,23.021s-13.759,20.725-15.314,23.428c-0.137,0.202-0.339,0.574-0.608,1.115
		c-0.473,1.015-1.218,2.603-2.232,4.766c-2.434-0.202-4.833-0.538-7.2-1.014c3.583-6.693,6.727-11.966,9.433-15.82
		c1.149-1.556,2.163-2.874,3.042-3.955c6.152-7.032,12.067-14.604,17.748-22.718c5.001-7.369,8.181-11.967,9.532-13.792H176.113z
		 M224.389,139.323c-0.135,7.1-1.184,13.859-3.145,20.283c-2.838,9.533-7.707,18.255-14.602,26.165
		c3.379-9.06,7.74-20.486,13.08-34.278c0.475-1.42,0.98-2.806,1.521-4.158C222.395,144.495,223.443,141.824,224.389,139.323z
		 M158.265,202.607c-1.622,2.839-3.312,5.915-5.071,9.229c-1.081,0.067-2.162,0.102-3.244,0.102c-0.745,0-1.488-0.034-2.232-0.102
		c3.652-5.813,7.167-10.548,10.547-14.198V202.607z M126.218,74.112c-7.844,6.424-14.638,12.103-20.384,17.039
		c-4.057,3.448-7.606,6.524-10.649,9.229c-6.018,5.409-11.629,10.785-16.834,16.126c0.743-2.705,1.656-5.341,2.737-7.912
		c4.124-4.732,8.789-9.499,13.996-14.299c3.447-3.11,7.03-6.152,10.75-9.127c6.962-5.611,14.468-10.986,22.514-16.125
		c2.636-1.689,5.275-3.313,7.911-4.868c1.408-0.269,2.846-0.472,4.31-0.608c-0.045,0.011-0.095,0.045-0.152,0.101
		C136.088,66.371,131.356,69.853,126.218,74.112z M142.851,119.851c-2.029,2.569-5.917,7.911-11.663,16.024
		c-0.677,1.014-1.387,2.062-2.129,3.144c-1.218,1.758-2.502,3.618-3.854,5.578c-7.032,10.007-11.663,15.956-13.894,17.85
		c-0.338-1.015-0.61-1.961-0.812-2.84c5.138-8.856,9.195-15.72,12.17-20.588c0.676-1.149,1.284-2.197,1.826-3.144
		c1.014-1.555,1.791-2.772,2.332-3.65c6.964-10.751,12.305-16.329,16.025-16.734V119.851z M156.236,139.019
		c-1.353,3.042-4.563,8.147-9.634,15.314c-0.406,0.675-0.846,1.284-1.317,1.825c-7.572,10.818-11.663,16.835-12.273,18.052
		c-1.351-0.271-2.129-0.676-2.332-1.217c-0.137-0.202-0.204-1.251-0.204-3.144c0-0.677,0.103-1.353,0.305-2.028
		c1.284-2.096,2.502-4.057,3.651-5.882c0.204-0.339,0.406-0.677,0.608-1.015c3.787-5.882,6.66-10.345,8.621-13.387
		c0.541-0.812,1.082-1.623,1.624-2.435c1.623-2.366,3.144-4.395,4.564-6.085c2.636-3.245,4.833-5.342,6.592-6.287
		c0,0.405,0.101,1.014,0.304,1.825c0.203,0.744,0.305,1.386,0.305,1.927S156.777,137.869,156.236,139.019z M124.189,183.338
		c0.067,0.203,0.101,1.048,0.101,2.535c0,4.124-1.623,10.717-4.867,19.777c-2.028-0.947-3.989-1.961-5.883-3.043
		c3.785-9.263,6.761-16.058,8.925-20.385C123.411,182.357,123.987,182.729,124.189,183.338z"/>
	<path fill-rule="evenodd" clip-rule="evenodd" fill="#3C4F72" d="M269.215,173.095c3.516-8.046,12.104-10.784,25.76-8.215
		C283.953,174.819,275.367,177.557,269.215,173.095z M250.352,174.413c-3.582,0.406-6.658-0.541-9.229-2.84
		c-2.639-2.298-4.869-6.321-6.695-12.068C244.436,161.601,249.744,166.57,250.352,174.413z M267.188,124.212
		c0.066-9.127,7.133-15.619,21.195-19.472C284.596,116.505,277.531,122.995,267.188,124.212z M212.828,230.497v-4.057h-1.727
		c54.639-38.818,64.51-82.935,29.615-132.35l0.508-0.304c-0.137-0.203-0.238-0.372-0.305-0.507l0.406-0.406
		C281.994,144.595,272.498,190.469,212.828,230.497z M226.012,207.981c-6.693-2.23-9.736-8.416-9.127-18.559
		C224.727,192.194,227.77,198.381,226.012,207.981z M187.98,226.44c-2.209-5.756-1.094-13.021,3.346-21.805
		c5.094,8.321,6.516,15.589,4.262,21.805H187.98z M104.514,226.44c-2.272-6.216-0.885-13.483,4.158-21.805
		c4.488,8.783,5.639,16.049,3.449,21.805H104.514z M88.999,226.44h-1.725v4.057c-59.669-40.028-69.169-85.902-28.498-137.623
		l0.406,0.406c-0.137,0.136-0.271,0.304-0.406,0.507l0.507,0.304C24.447,143.506,34.353,187.622,88.999,226.44z M185.852,253.72
		c13.521-2.298,23.9,4.564,31.135,20.589C200.285,268.426,189.908,261.563,185.852,253.72z M280.066,216.196
		c-16.631,6.49-28.092,5.442-34.379-3.144C256.91,204.737,268.369,205.785,280.066,216.196z M240.92,92.469
		c-0.744-0.947-1.488-1.894-2.23-2.839c-4.396-8.52-4.836-18.831-1.32-30.932C241.291,68.839,242.475,80.096,240.92,92.469z
		 M232.705,132.427c8.113-5.342,15.518-2.536,22.211,8.418C246.463,144.157,239.059,141.352,232.705,132.427z M223.172,100.987
		c9.061-2.366,16.023,0.338,20.891,8.113C239.736,112.076,232.771,109.371,223.172,100.987z M59.081,92.469
		c-1.557-12.373-0.338-23.63,3.651-33.771c3.516,12.102,3.076,22.413-1.319,30.932C60.602,90.575,59.824,91.522,59.081,92.469z
		 M30.785,173.095c-6.152,4.462-14.739,1.725-25.76-8.215C18.683,162.311,27.269,165.049,30.785,173.095z M11.617,104.74
		c14.063,3.854,21.163,10.345,21.297,19.472C22.501,122.995,15.402,116.505,11.617,104.74z M49.648,174.413
		c0.676-7.843,5.984-12.813,15.922-14.908c-1.757,5.747-3.954,9.771-6.592,12.068C56.341,173.872,53.231,174.819,49.648,174.413z
		 M67.396,132.427c-6.424,8.925-13.859,11.73-22.312,8.418C51.777,129.891,59.215,127.085,67.396,132.427z M54.313,213.053
		c-6.22,8.586-17.681,9.634-34.381,3.144C31.629,205.785,43.09,204.737,54.313,213.053z M51.576,250.678
		c-0.601,0.039-1.208,0.075-1.827,0.103c0.584-1.168,1.192-2.266,1.827-3.296V250.678z M83.015,274.309
		c7.301-16.024,17.681-22.887,31.134-20.589C110.092,261.563,99.715,268.426,83.015,274.309z M73.988,207.981
		c-1.759-9.601,1.319-15.787,9.229-18.559C83.825,199.565,80.749,205.751,73.988,207.981z M76.829,100.987
		c-9.534,8.384-16.464,11.088-20.791,8.113C60.838,101.326,67.769,98.621,76.829,100.987z"/>
	<polygon fill-rule="evenodd" clip-rule="evenodd" fill="#EFA576" points="211.102,226.44 212.828,226.44 212.828,230.497 
		212.828,249.056 87.273,249.056 87.273,230.497 87.273,226.44 88.999,226.44 104.514,226.44 112.121,226.44 187.98,226.44 
		195.588,226.44 	"/>
	<path fill-rule="evenodd" clip-rule="evenodd" fill="#CF8556" d="M208.467,257.067v-6.085h6.795v-18.863h37.828v24.948H208.467z
		 M51.576,250.678v-3.193v-15.365h34.176v18.863h8.012v6.085H51.576V250.678z"/>
</g>
</svg>
