<svg xmlns="http://www.w3.org/2000/svg" xmlns:xlink="http://www.w3.org/1999/xlink" viewBox="0 0 100 50">

<g style="pointer-events:inherit">
<path id="svg_5" x="0" y="0" style="pointer-events: none; vector-effect: non-scaling-stroke;" fill="#666666" d="M16.066669464111328,13.164436340332031 C16.066669464111328,13.164436340332031 16.066669464111328,15.236228942871094 16.066669464111328,15.236228942871094 C16.066669464111328,15.236228942871094 13.133334159851074,14.842903137207031 13.133334159851074,14.842903137207031 C13.133334159851074,14.842903137207031 13.133334159851074,24.3121337890625 13.133334159851074,24.3121337890625 C13.133334159851074,24.3121337890625 8.199997901916504,26.567794799804688 8.199997901916504,26.567794799804688 C8.199997901916504,26.567794799804688 8.199997901916504,13.718025207519531 8.199997901916504,13.718025207519531 C8.199997901916504,13.718025207519531 5.266662836074829,12.893272399902344 5.266662836074829,12.893272399902344 C5.266662836074829,12.893272399902344 5.266662836074829,9.061180114746094 5.266662836074829,9.061180114746094 C5.266662836074829,9.061180114746094 16.066669464111328,13.164436340332031 16.066669464111328,13.164436340332031 C16.066669464111328,13.164436340332031 16.066669464111328,13.164436340332031 16.066669464111328,13.164436340332031 M17.133336067199707,13.303138732910156 C17.133336067199707,13.303138732910156 25.333341598510742,12.269073486328125 25.333341598510742,12.269073486328125 C25.333341598510742,12.269073486328125 25.333341598510742,14.7249755859375 25.333341598510742,14.7249755859375 C25.333341598510742,14.7249755859375 22.066673278808594,15.206459045410156 22.066673278808594,15.206459045410156 C22.066673278808594,15.206459045410156 22.066673278808594,17.190406799316406 22.066673278808594,17.190406799316406 C22.066673278808594,17.190406799316406 25.13334083557129,17.06249237060547 25.13334083557129,17.06249237060547 C25.13334083557129,17.06249237060547 25.13334083557129,19.3623046875 25.13334083557129,19.3623046875 C25.13334083557129,19.3623046875 22.066673278808594,19.174346923828125 22.066673278808594,19.174346923828125 C22.066673278808594,19.174346923828125 22.066673278808594,21.48894500732422 22.066673278808594,21.48894500732422 C22.066673278808594,21.48894500732422 25.66667366027832,22.17420196533203 25.66667366027832,22.17420196533203 C25.66667366027832,22.17420196533203 25.66667366027832,24.678939819335938 25.66667366027832,24.678939819335938 C25.66667366027832,24.678939819335938 17.133336067199707,23.364601135253906 17.133336067199707,23.364601135253906 C17.133336067199707,23.364601135253906 17.133336067199707,13.303138732910156 17.133336067199707,13.303138732910156 C17.133336067199707,13.303138732910156 17.133336067199707,13.303138732910156 17.133336067199707,13.303138732910156 M37.066680908203125,6.8672637939453125 C37.066680908203125,6.8672637939453125 35.33334732055664,17.460586547851562 35.33334732055664,17.460586547851562 C35.33334732055664,17.460586547851562 37.933349609375,31.16571807861328 37.933349609375,31.16571807861328 C37.933349609375,31.16571807861328 33.33334732055664,28.670547485351562 33.33334732055664,28.670547485351562 C32.80001258850098,26.45435333251953 32.33334541320801,23.911056518554688 31.86667823791504,21.104225158691406 C31.86667823791504,21.104225158691406 30.86667823791504,27.25556182861328 30.86667823791504,27.25556182861328 C30.86667823791504,27.25556182861328 26.06667709350586,24.842247009277344 26.06667709350586,24.842247009277344 C26.06667709350586,24.842247009277344 27.866676330566406,17.64769744873047 27.866676330566406,17.64769744873047 C27.866676330566406,17.64769744873047 26.06667709350586,12.012611389160156 26.06667709350586,12.012611389160156 C26.06667709350586,12.012611389160156 30.86667823791504,9.9049072265625 30.86667823791504,9.9049072265625 C30.933345794677734,10.911224365234375 31.600011825561523,13.230941772460938 31.86667823791504,14.448173522949219 C31.86667823791504,14.448173522949219 32.93334770202637,8.870689392089844 32.93334770202637,8.870689392089844 C32.93334770202637,8.870689392089844 37.066680908203125,6.8672637939453125 37.066680908203125,6.8672637939453125 C37.066680908203125,6.8672637939453125 37.066680908203125,6.8672637939453125 37.066680908203125,6.8672637939453125 M48.533355712890625,4.55255126953125 C48.533355712890625,4.55255126953125 48.533355712890625,10.31884765625 48.533355712890625,10.31884765625 C48.533355712890625,10.31884765625 45.60001754760742,10.287200927734375 45.60001754760742,10.287200927734375 C45.60001754760742,10.287200927734375 45.60001754760742,33.44744873046875 45.60001754760742,33.44744873046875 C45.60001754760742,33.44744873046875 40.66668701171875,32.33562469482422 40.66668701171875,32.33562469482422 C40.66668701171875,32.33562469482422 40.66668701171875,10.841659545898438 40.66668701171875,10.841659545898438 C40.66668701171875,10.841659545898438 37.73334884643555,11.47369384765625 37.73334884643555,11.47369384765625 C37.73334884643555,11.47369384765625 37.73334884643555,6.5750579833984375 37.73334884643555,6.5750579833984375 C37.73334884643555,6.5750579833984375 48.533355712890625,4.55255126953125 48.533355712890625,4.55255126953125 C48.533355712890625,4.55255126953125 48.533355712890625,4.55255126953125 48.533355712890625,4.55255126953125 M62.3333625793457,9.773269653320312 C62.3333625793457,9.773269653320312 65.13336563110352,25.8931884765625 65.13336563110352,25.8931884765625 C65.13336563110352,25.8931884765625 60.06669616699219,28.708969116210938 60.06669616699219,28.708969116210938 C60.06669616699219,28.708969116210938 59.80002975463867,25.218917846679688 59.80002975463867,25.218917846679688 C59.80002975463867,25.218917846679688 58.06669235229492,25.870826721191406 58.06669235229492,25.870826721191406 C58.06669235229492,25.870826721191406 57.800025939941406,29.98992919921875 57.800025939941406,29.98992919921875 C57.800025939941406,29.98992919921875 52.666690826416016,32.383888244628906 52.666690826416016,32.383888244628906 C52.666690826416016,32.383888244628906 55.20002746582031,6.350807189941406 55.20002746582031,6.350807189941406 C55.20002746582031,6.350807189941406 62.3333625793457,9.773269653320312 62.3333625793457,9.773269653320312 C62.3333625793457,9.773269653320312 62.3333625793457,9.773269653320312 62.3333625793457,9.773269653320312 M59.66669845581055,21.600608825683594 C59.400028228759766,19.316574096679688 59.20002746582031,16.382186889648438 58.9333610534668,12.849700927734375 C58.400028228759766,16.85393524169922 58.13336181640625,19.94524383544922 58.00002670288086,21.910682678222656 C58.00002670288086,21.910682678222656 59.66669845581055,21.600608825683594 59.66669845581055,21.600608825683594 C59.66669845581055,21.600608825683594 59.66669845581055,21.600608825683594 59.66669845581055,21.600608825683594 M74.20003128051758,18.10236358642578 C76.73337173461914,18.568763732910156 77.00004196166992,18.82428741455078 76.93337631225586,20.757667541503906 C76.93337631225586,20.757667541503906 76.93337631225586,23.44512176513672 76.93337631225586,23.44512176513672 C76.93337631225586,23.44512176513672 72.33337020874023,23.42205810546875 72.33337020874023,23.42205810546875 C72.26670455932617,22.073448181152344 72.53336715698242,20.128562927246094 72.13336563110352,19.039016723632812 C72.00003433227539,18.899032592773438 71.53336715698242,18.876258850097656 70.86670303344727,18.898841857910156 C70.86670303344727,18.898841857910156 70.86670303344727,23.69915771484375 70.86670303344727,23.69915771484375 C70.86670303344727,23.69915771484375 65.93336486816406,25.5 65.93336486816406,25.5 C65.93336486816406,25.5 65.93336486816406,11.438156127929688 65.93336486816406,11.438156127929688 C65.93336486816406,11.438156127929688 69.4000358581543,12.657180786132812 69.4000358581543,12.657180786132812 C75.00003433227539,13.317855834960938 76.93337631225586,13.411979675292969 76.93337631225586,16.027755737304688 C76.93337631225586,17.532730102539062 76.60004043579102,17.962997436523438 74.20003128051758,18.10236358642578 C74.20003128051758,18.10236358642578 74.20003128051758,18.10236358642578 74.20003128051758,18.10236358642578 M70.86670303344727,17.211227416992188 C72.93336868286133,17.540992736816406 72.46670150756836,15.829414367675781 72.00003433227539,15.11712646484375 C71.8000373840332,14.990493774414062 71.46670150756836,14.919868469238281 70.86670303344727,14.84857177734375 C70.86670303344727,14.84857177734375 70.86670303344727,17.211227416992188 70.86670303344727,17.211227416992188 C70.86670303344727,17.211227416992188 70.86670303344727,17.211227416992188 70.86670303344727,17.211227416992188 M88.73337936401367,8.792266845703125 C88.73337936401367,8.792266845703125 88.73337936401367,12.739715576171875 88.73337936401367,12.739715576171875 C88.73337936401367,12.739715576171875 85.80004501342773,13.572822570800781 85.80004501342773,13.572822570800781 C85.80004501342773,13.572822570800781 85.80004501342773,26.858970642089844 85.80004501342773,26.858970642089844 C85.80004501342773,26.858970642089844 80.8667106628418,24.50634765625 80.8667106628418,24.50634765625 C80.8667106628418,24.50634765625 80.8667106628418,14.746047973632812 80.8667106628418,14.746047973632812 C80.8667106628418,14.746047973632812 77.93337631225586,15.183387756347656 77.93337631225586,15.183387756347656 C77.93337631225586,15.183387756347656 77.93337631225586,13.071891784667969 77.93337631225586,13.071891784667969 C77.93337631225586,13.071891784667969 88.73337936401367,8.792266845703125 88.73337936401367,8.792266845703125 C88.73337936401367,8.792266845703125 88.73337936401367,8.792266845703125 88.73337936401367,8.792266845703125 " stroke="null"></path>
</g>

</svg>