<svg xmlns="http://www.w3.org/2000/svg" xmlns:xlink="http://www.w3.org/1999/xlink" viewBox="0 0 100 50">

<g style="pointer-events:inherit">
<path id="svg_5" x="0" y="0" style="pointer-events:none" fill="#666666" d="M16.066665649414062,7.86822509765625 C16.066665649414062,7.86822509765625 16.066665649414062,12.223007202148438 16.066665649414062,12.223007202148438 C16.066665649414062,12.223007202148438 13.133331298828125,12.552520751953125 13.133331298828125,12.552520751953125 C13.133331298828125,12.552520751953125 13.133331298828125,28.981414794921875 13.133331298828125,28.981414794921875 C13.133331298828125,28.981414794921875 8.199996948242188,27.82147216796875 8.199996948242188,27.82147216796875 C8.199996948242188,27.82147216796875 8.199996948242188,13.1309814453125 8.199996948242188,13.1309814453125 C8.199996948242188,13.1309814453125 5.26666259765625,13.48248291015625 5.26666259765625,13.48248291015625 C5.26666259765625,13.48248291015625 5.26666259765625,10.073944091796875 5.26666259765625,10.073944091796875 C5.26666259765625,10.073944091796875 16.066665649414062,7.86822509765625 16.066665649414062,7.86822509765625 C16.066665649414062,7.86822509765625 16.066665649414062,7.86822509765625 16.066665649414062,7.86822509765625 M17.133331298828125,7.66485595703125 C17.133331298828125,7.66485595703125 25.333328247070312,6.257232666015625 25.333328247070312,6.257232666015625 C25.333328247070312,6.257232666015625 25.333328247070312,11.303131103515625 25.333328247070312,11.303131103515625 C25.333328247070312,11.303131103515625 22.066665649414062,11.602142333984375 22.066665649414062,11.602142333984375 C22.066665649414062,11.602142333984375 22.066665649414062,16.169647216796875 22.066665649414062,16.169647216796875 C22.066665649414062,16.169647216796875 25.133331298828125,16.088470458984375 25.133331298828125,16.088470458984375 C25.133331298828125,16.088470458984375 25.133331298828125,20.856414794921875 25.133331298828125,20.856414794921875 C25.133331298828125,20.856414794921875 22.066665649414062,20.737136840820312 22.066665649414062,20.737136840820312 C22.066665649414062,20.737136840820312 22.066665649414062,26.065887451171875 22.066665649414062,26.065887451171875 C22.066665649414062,26.065887451171875 25.666671752929688,26.476837158203125 25.666671752929688,26.476837158203125 C25.666671752929688,26.476837158203125 25.666671752929688,31.5443115234375 25.666671752929688,31.5443115234375 C25.666671752929688,31.5443115234375 17.133331298828125,29.875 17.133331298828125,29.875 C17.133331298828125,29.875 17.133331298828125,7.66485595703125 17.133331298828125,7.66485595703125 C17.133331298828125,7.66485595703125 17.133331298828125,7.66485595703125 17.133331298828125,7.66485595703125 M37.06666564941406,4.9056854248046875 C37.06666564941406,4.9056854248046875 35.33332824707031,17.3487548828125 35.33332824707031,17.3487548828125 C35.33332824707031,17.3487548828125 37.93333435058594,33.1053466796875 37.93333435058594,33.1053466796875 C37.93333435058594,33.1053466796875 33.33332824707031,32.65625 33.33332824707031,32.65625 C32.80000305175781,29.910736083984375 32.33332824707031,26.524383544921875 31.866668701171875,22.593505859375 C31.866668701171875,22.593505859375 30.866668701171875,32.3453369140625 30.866668701171875,32.3453369140625 C30.866668701171875,32.3453369140625 26.066665649414062,31.6124267578125 26.066665649414062,31.6124267578125 C26.066665649414062,31.6124267578125 27.866668701171875,17.39239501953125 27.866668701171875,17.39239501953125 C27.866668701171875,17.39239501953125 26.066665649414062,6.1474456787109375 26.066665649414062,6.1474456787109375 C26.066665649414062,6.1474456787109375 30.866668701171875,5.507354736328125 30.866668701171875,5.507354736328125 C30.933334350585938,7.101348876953125 31.600006103515625,10.921218872070312 31.866668701171875,12.80499267578125 C31.866668701171875,12.80499267578125 32.93333435058594,5.27703857421875 32.93333435058594,5.27703857421875 C32.93333435058594,5.27703857421875 37.06666564941406,4.9056854248046875 37.06666564941406,4.9056854248046875 C37.06666564941406,4.9056854248046875 37.06666564941406,4.9056854248046875 37.06666564941406,4.9056854248046875 M48.5333251953125,4.55255126953125 C48.5333251953125,4.55255126953125 48.5333251953125,10.329757690429688 48.5333251953125,10.329757690429688 C48.5333251953125,10.329757690429688 45.600006103515625,10.325332641601562 45.600006103515625,10.325332641601562 C45.600006103515625,10.325332641601562 45.600006103515625,33.44744873046875 45.600006103515625,33.44744873046875 C45.600006103515625,33.44744873046875 40.66667175292969,33.287139892578125 40.66667175292969,33.287139892578125 C40.66667175292969,33.287139892578125 40.66667175292969,10.405288696289062 40.66667175292969,10.405288696289062 C40.66667175292969,10.405288696289062 37.73333740234375,10.503829956054688 37.73333740234375,10.503829956054688 C37.73333740234375,10.503829956054688 37.73333740234375,4.857421875 37.73333740234375,4.857421875 C37.73333740234375,4.857421875 48.5333251953125,4.55255126953125 48.5333251953125,4.55255126953125 C48.5333251953125,4.55255126953125 48.5333251953125,4.55255126953125 48.5333251953125,4.55255126953125 M62.333343505859375,5.4760284423828125 C62.333343505859375,5.4760284423828125 65.13333129882812,31.978607177734375 65.13333129882812,31.978607177734375 C65.13333129882812,31.978607177734375 60.066650390625,32.66400146484375 60.066650390625,32.66400146484375 C60.066650390625,32.66400146484375 59.79998779296875,27.774932861328125 59.79998779296875,27.774932861328125 C59.79998779296875,27.774932861328125 58.066650390625,27.89794921875 58.066650390625,27.89794921875 C58.066650390625,27.89794921875 57.79998779296875,32.905975341796875 57.79998779296875,32.905975341796875 C57.79998779296875,32.905975341796875 52.66667175292969,33.2943115234375 52.66667175292969,33.2943115234375 C52.66667175292969,33.2943115234375 55.20001220703125,4.8211822509765625 55.20001220703125,4.8211822509765625 C55.20001220703125,4.8211822509765625 62.333343505859375,5.4760284423828125 62.333343505859375,5.4760284423828125 C62.333343505859375,5.4760284423828125 62.333343505859375,5.4760284423828125 62.333343505859375,5.4760284423828125 M59.666656494140625,22.860244750976562 C59.399993896484375,19.773757934570312 59.20001220703125,15.900238037109375 58.933349609375,11.332748413085938 C58.399993896484375,16.570297241210938 58.133331298828125,20.473129272460938 58,22.918441772460938 C58,22.918441772460938 59.666656494140625,22.860244750976562 59.666656494140625,22.860244750976562 C59.666656494140625,22.860244750976562 59.666656494140625,22.860244750976562 59.666656494140625,22.860244750976562 M74.20001220703125,18.272674560546875 C76.73333740234375,19.26727294921875 77,19.799942016601562 76.933349609375,23.964096069335938 C76.933349609375,23.964096069335938 76.933349609375,29.74456787109375 76.933349609375,29.74456787109375 C76.933349609375,29.74456787109375 72.33334350585938,30.704742431640625 72.33334350585938,30.704742431640625 C72.26666259765625,27.5460205078125 72.5333251953125,23.0177001953125 72.13333129882812,20.456024169921875 C72,20.125778198242188 71.5333251953125,20.056381225585938 70.86666870117188,20.076675415039062 C70.86666870117188,20.076675415039062 70.86666870117188,30.989227294921875 70.86666870117188,30.989227294921875 C70.86666870117188,30.989227294921875 65.933349609375,31.85333251953125 65.933349609375,31.85333251953125 C65.933349609375,31.85333251953125 65.933349609375,5.9370574951171875 65.933349609375,5.9370574951171875 C65.933349609375,5.9370574951171875 69.39999389648438,6.453765869140625 69.39999389648438,6.453765869140625 C75,7.25665283203125 76.933349609375,8.164138793945312 76.933349609375,13.79046630859375 C76.933349609375,17.02752685546875 76.60000610351562,17.951980590820312 74.20001220703125,18.272674560546875 C74.20001220703125,18.272674560546875 74.20001220703125,18.272674560546875 74.20001220703125,18.272674560546875 M70.86666870117188,16.240234375 C72.933349609375,16.956436157226562 72.4666748046875,12.954437255859375 72,11.325088500976562 C71.79998779296875,11.052337646484375 71.4666748046875,10.932586669921875 70.86666870117188,10.86920166015625 C70.86666870117188,10.86920166015625 70.86666870117188,16.240234375 70.86666870117188,16.240234375 C70.86666870117188,16.240234375 70.86666870117188,16.240234375 70.86666870117188,16.240234375 M88.73333740234375,10.1861572265625 C88.73333740234375,10.1861572265625 88.73333740234375,13.546554565429688 88.73333740234375,13.546554565429688 C88.73333740234375,13.546554565429688 85.79998779296875,13.194656372070312 85.79998779296875,13.194656372070312 C85.79998779296875,13.194656372070312 85.79998779296875,27.693756103515625 85.79998779296875,27.693756103515625 C85.79998779296875,27.693756103515625 80.86666870117188,28.8585205078125 80.86666870117188,28.8585205078125 C80.86666870117188,28.8585205078125 80.86666870117188,12.613800048828125 80.86666870117188,12.613800048828125 C80.86666870117188,12.613800048828125 77.933349609375,12.2818603515625 77.933349609375,12.2818603515625 C77.933349609375,12.2818603515625 77.933349609375,7.9712982177734375 77.933349609375,7.9712982177734375 C77.933349609375,7.9712982177734375 88.73333740234375,10.1861572265625 88.73333740234375,10.1861572265625 C88.73333740234375,10.1861572265625 88.73333740234375,10.1861572265625 88.73333740234375,10.1861572265625 "></path>
</g>

</svg>