<svg xmlns="http://www.w3.org/2000/svg" xmlns:xlink="http://www.w3.org/1999/xlink" viewBox="0 0 100 50">

<g style="pointer-events:inherit">
<path id="svg_5" x="0" y="0" style="pointer-events: none; vector-effect: non-scaling-stroke;" fill="#666666" d="M16.066673278808594,4.672149658203125 C16.066673278808594,4.672149658203125 16.066673278808594,8.080711364746094 16.066673278808594,8.080711364746094 C16.066673278808594,8.080711364746094 13.133337020874023,8.310859680175781 13.133337020874023,8.310859680175781 C13.133337020874023,8.310859680175781 13.133337020874023,22.834510803222656 13.133337020874023,22.834510803222656 C13.133337020874023,22.834510803222656 8.1999990940094,25.11139678955078 8.1999990940094,25.11139678955078 C8.1999990940094,25.11139678955078 8.1999990940094,8.778938293457031 8.1999990940094,8.778938293457031 C8.1999990940094,8.778938293457031 5.266662836074829,9.083175659179688 5.266662836074829,9.083175659179688 C5.266662836074829,9.083175659179688 5.266662836074829,4.7061309814453125 5.266662836074829,4.7061309814453125 C5.266662836074829,4.7061309814453125 16.066673278808594,4.672149658203125 16.066673278808594,4.672149658203125 C16.066673278808594,4.672149658203125 16.066673278808594,4.672149658203125 16.066673278808594,4.672149658203125 M17.13334083557129,4.669715881347656 C17.13334083557129,4.669715881347656 25.333349227905273,4.659919738769531 25.333349227905273,4.659919738769531 C25.333349227905273,4.659919738769531 25.333349227905273,7.7198028564453125 25.333349227905273,7.7198028564453125 C25.333349227905273,7.7198028564453125 22.066679000854492,7.775260925292969 22.066679000854492,7.775260925292969 C22.066679000854492,7.775260925292969 22.066679000854492,10.724868774414062 22.066679000854492,10.724868774414062 C22.066679000854492,10.724868774414062 25.13334846496582,10.620559692382812 25.13334846496582,10.620559692382812 C25.13334846496582,10.620559692382812 25.13334846496582,13.520317077636719 25.13334846496582,13.520317077636719 C25.13334846496582,13.520317077636719 22.066679000854492,13.674476623535156 22.066679000854492,13.674476623535156 C22.066679000854492,13.674476623535156 22.066679000854492,17.11566925048828 22.066679000854492,17.11566925048828 C22.066679000854492,17.11566925048828 25.66668128967285,16.895721435546875 25.66668128967285,16.895721435546875 C25.66668128967285,16.895721435546875 25.66668128967285,19.954673767089844 25.66668128967285,19.954673767089844 C25.66668128967285,19.954673767089844 17.13334083557129,21.365699768066406 17.13334083557129,21.365699768066406 C17.13334083557129,21.365699768066406 17.13334083557129,4.669715881347656 17.13334083557129,4.669715881347656 C17.13334083557129,4.669715881347656 17.13334083557129,4.669715881347656 17.13334083557129,4.669715881347656 M37.06669235229492,4.675682067871094 C37.06669235229492,4.675682067871094 35.33335876464844,12.156593322753906 35.33335876464844,12.156593322753906 C35.33335876464844,12.156593322753906 37.9333610534668,22.56134796142578 37.9333610534668,22.56134796142578 C37.9333610534668,22.56134796142578 33.333356857299805,20.99597930908203 33.333356857299805,20.99597930908203 C32.80002212524414,19.265159606933594 32.333356857299805,17.187232971191406 31.866687774658203,14.806022644042969 C31.866687774658203,14.806022644042969 30.866687774658203,20.428054809570312 30.866687774658203,20.428054809570312 C30.866687774658203,20.428054809570312 26.066682815551758,19.954673767089844 26.066682815551758,19.954673767089844 C26.066682815551758,19.954673767089844 27.866683959960938,11.455619812011719 27.866683959960938,11.455619812011719 C27.866683959960938,11.455619812011719 26.066682815551758,4.659881591796875 26.066682815551758,4.659881591796875 C26.066682815551758,4.659881591796875 30.866687774658203,4.663177490234375 30.866687774658203,4.663177490234375 C30.9333553314209,5.604377746582031 31.600021362304688,7.902198791503906 31.866687774658203,9.034942626953125 C31.866687774658203,9.034942626953125 32.93335723876953,4.6663970947265625 32.93335723876953,4.6663970947265625 C32.93335723876953,4.6663970947265625 37.06669235229492,4.675682067871094 37.06669235229492,4.675682067871094 C37.06669235229492,4.675682067871094 37.06669235229492,4.675682067871094 37.06669235229492,4.675682067871094 M48.53337097167969,4.7134552001953125 C48.53337097167969,4.7134552001953125 48.53337097167969,9.299224853515625 48.53337097167969,9.299224853515625 C48.53337097167969,9.299224853515625 45.600032806396484,8.992469787597656 45.600032806396484,8.992469787597656 C45.600032806396484,8.992469787597656 45.600032806396484,26.150131225585938 45.600032806396484,26.150131225585938 C45.600032806396484,26.150131225585938 40.66669845581055,23.740394592285156 40.66669845581055,23.740394592285156 C40.66669845581055,23.740394592285156 40.66669845581055,8.497085571289062 40.66669845581055,8.497085571289062 C40.66669845581055,8.497085571289062 37.733360290527344,8.23828125 37.733360290527344,8.23828125 C37.733360290527344,8.23828125 37.733360290527344,4.677490234375 37.733360290527344,4.677490234375 C37.733360290527344,4.677490234375 48.53337097167969,4.7134552001953125 48.53337097167969,4.7134552001953125 C48.53337097167969,4.7134552001953125 48.53337097167969,4.7134552001953125 48.53337097167969,4.7134552001953125 M62.33338165283203,4.750617980957031 C62.33338165283203,4.750617980957031 65.13338851928711,33.384254455566406 65.13338851928711,33.384254455566406 C65.13338851928711,33.384254455566406 60.066715240478516,32.44042205810547 60.066715240478516,32.44042205810547 C60.066715240478516,32.44042205810547 59.800048828125,27.423736572265625 59.800048828125,27.423736572265625 C59.800048828125,27.423736572265625 58.06671142578125,26.98284149169922 58.06671142578125,26.98284149169922 C58.06671142578125,26.98284149169922 57.800045013427734,31.73963165283203 57.800045013427734,31.73963165283203 C57.800045013427734,31.73963165283203 52.666709899902344,29.653038024902344 52.666709899902344,29.653038024902344 C52.666709899902344,29.653038024902344 55.200042724609375,4.73516845703125 55.200042724609375,4.73516845703125 C55.200042724609375,4.73516845703125 62.33338165283203,4.750617980957031 62.33338165283203,4.750617980957031 C62.33338165283203,4.750617980957031 62.33338165283203,4.750617980957031 62.33338165283203,4.750617980957031 M59.666717529296875,22.456771850585938 C59.40005111694336,19.31847381591797 59.20004653930664,15.434608459472656 58.933380126953125,10.88970947265625 C58.400047302246094,16.00383758544922 58.13338088989258,19.771949768066406 58.00004577636719,22.12116241455078 C58.00004577636719,22.12116241455078 59.666717529296875,22.456771850585938 59.666717529296875,22.456771850585938 C59.666717529296875,22.456771850585938 59.666717529296875,22.456771850585938 59.666717529296875,22.456771850585938 M74.2000617980957,18.078094482421875 C76.73339462280273,18.973472595214844 77.00006484985352,19.593910217285156 76.93339920043945,24.750900268554688 C76.93339920043945,24.750900268554688 76.93339920043945,31.89654541015625 76.93339920043945,31.89654541015625 C76.93339920043945,31.89654541015625 72.33339309692383,33.07524108886719 72.33339309692383,33.07524108886719 C72.26672744750977,29.308944702148438 72.53339004516602,23.907424926757812 72.13338851928711,20.87114715576172 C72.00005722045898,20.485641479492188 71.53339004516602,20.426719665527344 70.86672592163086,20.477134704589844 C70.86672592163086,20.477134704589844 70.86672592163086,33.29692840576172 70.86672592163086,33.29692840576172 C70.86672592163086,33.29692840576172 65.93338775634766,33.44745635986328 65.93338775634766,33.44745635986328 C65.93338775634766,33.44745635986328 65.93338775634766,4.75390625 65.93338775634766,4.75390625 C65.93338775634766,4.75390625 69.40005874633789,4.75384521484375 69.40005874633789,4.75384521484375 C75.00006484985352,4.55255126953125 76.93339920043945,5.219474792480469 76.93339920043945,12.174575805664062 C76.93339920043945,16.176132202148438 76.60006332397461,17.36994171142578 74.2000617980957,18.078094482421875 C74.2000617980957,18.078094482421875 74.2000617980957,18.078094482421875 74.2000617980957,18.078094482421875 M70.86672592163086,15.970184326171875 C72.93339157104492,16.629074096679688 72.46672439575195,11.900634765625 72.00005722045898,10.029548645019531 C71.8000602722168,9.736686706542969 71.46672439575195,9.646011352539062 70.86672592163086,9.660430908203125 C70.86672592163086,9.660430908203125 70.86672592163086,15.970184326171875 70.86672592163086,15.970184326171875 C70.86672592163086,15.970184326171875 70.86672592163086,15.970184326171875 70.86672592163086,15.970184326171875 M88.73340225219727,4.7061309814453125 C88.73340225219727,4.7061309814453125 88.73340225219727,9.083175659179688 88.73340225219727,9.083175659179688 C88.73340225219727,9.083175659179688 85.80007553100586,9.388771057128906 85.80007553100586,9.388771057128906 C85.80007553100586,9.388771057128906 85.80007553100586,28.077880859375 85.80007553100586,28.077880859375 C85.80007553100586,28.077880859375 80.86673355102539,30.39446258544922 80.86673355102539,30.39446258544922 C80.86673355102539,30.39446258544922 80.86673355102539,9.864997863769531 80.86673355102539,9.864997863769531 C80.86673355102539,9.864997863769531 77.93339920043945,10.103111267089844 77.93339920043945,10.103111267089844 C77.93339920043945,10.103111267089844 77.93339920043945,4.740699768066406 77.93339920043945,4.740699768066406 C77.93339920043945,4.740699768066406 88.73340225219727,4.7061309814453125 88.73340225219727,4.7061309814453125 C88.73340225219727,4.7061309814453125 88.73340225219727,4.7061309814453125 88.73340225219727,4.7061309814453125 " stroke="null"></path>
</g>

</svg>