<svg xmlns="http://www.w3.org/2000/svg" xmlns:xlink="http://www.w3.org/1999/xlink" viewBox="0 0 100 50">

<g style="pointer-events:inherit">
<path id="svg_5" x="0" y="0" style="pointer-events: none; vector-effect: non-scaling-stroke;" fill="#666666" d="M16.066670417785645,9.600959777832031 C16.066670417785645,9.600959777832031 16.066670417785645,13.187477111816406 16.066670417785645,13.187477111816406 C16.066670417785645,13.187477111816406 13.13333511352539,13.480400085449219 13.13333511352539,13.480400085449219 C13.13333511352539,13.480400085449219 13.13333511352539,26.94615936279297 13.13333511352539,26.94615936279297 C13.13333511352539,26.94615936279297 8.199998378753662,25.958282470703125 8.199998378753662,25.958282470703125 C8.199998378753662,25.958282470703125 8.199998378753662,13.973045349121094 8.199998378753662,13.973045349121094 C8.199998378753662,13.973045349121094 5.266662836074829,14.265975952148438 5.266662836074829,14.265975952148438 C5.266662836074829,14.265975952148438 5.266662836074829,11.489738464355469 5.266662836074829,11.489738464355469 C5.266662836074829,11.489738464355469 16.066670417785645,9.600959777832031 16.066670417785645,9.600959777832031 C16.066670417785645,9.600959777832031 16.066670417785645,9.600959777832031 16.066670417785645,9.600959777832031 M17.13333797454834,9.414405822753906 C17.13333797454834,9.414405822753906 25.333345413208008,7.9803466796875 25.333345413208008,7.9803466796875 C25.333345413208008,7.9803466796875 25.333345413208008,12.262100219726562 25.333345413208008,12.262100219726562 C25.333345413208008,12.262100219726562 22.066675186157227,12.588310241699219 22.066675186157227,12.588310241699219 C22.066675186157227,12.588310241699219 22.066675186157227,16.41252899169922 22.066675186157227,16.41252899169922 C22.066675186157227,16.41252899169922 25.133342742919922,16.324256896972656 25.133342742919922,16.324256896972656 C25.133342742919922,16.324256896972656 25.133342742919922,20.366455078125 25.133342742919922,20.366455078125 C25.133342742919922,20.366455078125 22.066675186157227,20.23675537109375 22.066675186157227,20.23675537109375 C22.066675186157227,20.23675537109375 22.066675186157227,24.698341369628906 22.066675186157227,24.698341369628906 C22.066675186157227,24.698341369628906 25.666677474975586,25.149124145507812 25.666677474975586,25.149124145507812 C25.666677474975586,25.149124145507812 25.666677474975586,29.455902099609375 25.666677474975586,29.455902099609375 C25.666677474975586,29.455902099609375 17.13333797454834,27.74713897705078 17.13333797454834,27.74713897705078 C17.13333797454834,27.74713897705078 17.13333797454834,9.414405822753906 17.13333797454834,9.414405822753906 C17.13333797454834,9.414405822753906 17.13333797454834,9.414405822753906 17.13333797454834,9.414405822753906 M37.06668472290039,5.928337097167969 C37.06668472290039,5.928337097167969 35.333351135253906,17.354896545410156 35.333351135253906,17.354896545410156 C35.333351135253906,17.354896545410156 37.933353424072266,31.91223907470703 37.933353424072266,31.91223907470703 C37.933353424072266,31.91223907470703 33.333351135253906,30.991111755371094 33.333351135253906,30.991111755371094 C32.80001449584961,28.50580596923828 32.33334922790527,25.477920532226562 31.866682052612305,21.99072265625 C31.866682052612305,21.99072265625 30.866682052612305,30.497161865234375 30.866682052612305,30.497161865234375 C30.866682052612305,30.497161865234375 26.066679000854492,29.535995483398438 26.066679000854492,29.535995483398438 C26.066679000854492,29.535995483398438 27.86667823791504,17.422386169433594 27.86667823791504,17.422386169433594 C27.86667823791504,17.422386169433594 26.066679000854492,7.8520965576171875 26.066679000854492,7.8520965576171875 C26.066679000854492,7.8520965576171875 30.866682052612305,7.01263427734375 30.866682052612305,7.01263427734375 C30.933349609375,8.403297424316406 31.60001564025879,11.719673156738281 31.866682052612305,13.367752075195312 C31.866682052612305,13.367752075195312 32.933349609375,6.6511993408203125 32.933349609375,6.6511993408203125 C32.933349609375,6.6511993408203125 37.06668472290039,5.928337097167969 37.06668472290039,5.928337097167969 C37.06668472290039,5.928337097167969 37.06668472290039,5.928337097167969 37.06668472290039,5.928337097167969 M48.53335952758789,4.55255126953125 C48.53335952758789,4.55255126953125 48.53335952758789,10.304832458496094 48.53335952758789,10.304832458496094 C48.53335952758789,10.304832458496094 45.60002517700195,10.238265991210938 45.60002517700195,10.238265991210938 C45.60002517700195,10.238265991210938 45.60002517700195,33.44744873046875 45.60002517700195,33.44744873046875 C45.60002517700195,33.44744873046875 40.666690826416016,32.459571838378906 40.666690826416016,32.459571838378906 C40.666690826416016,32.459571838378906 40.666690826416016,10.730903625488281 40.666690826416016,10.730903625488281 C40.666690826416016,10.730903625488281 37.73335266113281,11.023826599121094 37.73335266113281,11.023826599121094 C37.73335266113281,11.023826599121094 37.73335266113281,5.811737060546875 37.73335266113281,5.811737060546875 C37.73335266113281,5.811737060546875 48.53335952758789,4.55255126953125 48.53335952758789,4.55255126953125 C48.53335952758789,4.55255126953125 48.53335952758789,4.55255126953125 48.53335952758789,4.55255126953125 M62.333370208740234,6.965995788574219 C62.333370208740234,6.965995788574219 65.13337326049805,29.989883422851562 65.13337326049805,29.989883422851562 C65.13337326049805,29.989883422851562 60.06669998168945,31.00445556640625 60.06669998168945,31.00445556640625 C60.06669998168945,31.00445556640625 59.80003356933594,26.667396545410156 59.80003356933594,26.667396545410156 C59.80003356933594,26.667396545410156 58.06669998168945,26.89813232421875 58.06669998168945,26.89813232421875 C58.06669998168945,26.89813232421875 57.80003356933594,31.458351135253906 57.80003356933594,31.458351135253906 C57.80003356933594,31.458351135253906 52.66669845581055,32.48627471923828 52.66669845581055,32.48627471923828 C52.66669845581055,32.48627471923828 55.20003128051758,5.718475341796875 55.20003128051758,5.718475341796875 C55.20003128051758,5.718475341796875 62.333370208740234,6.965995788574219 62.333370208740234,6.965995788574219 C62.333370208740234,6.965995788574219 62.333370208740234,6.965995788574219 62.333370208740234,6.965995788574219 M59.66670227050781,22.285743713378906 C59.4000358581543,19.531692504882812 59.200035095214844,16.061378479003906 58.93336868286133,11.9539794921875 C58.4000358581543,16.65386199951172 58.13336944580078,20.179885864257812 58.00003433227539,22.395721435546875 C58.00003433227539,22.395721435546875 59.66670227050781,22.285743713378906 59.66670227050781,22.285743713378906 C59.66670227050781,22.285743713378906 59.66670227050781,22.285743713378906 59.66670227050781,22.285743713378906 M74.20003890991211,18.17144775390625 C76.73337936401367,18.990394592285156 77.00004959106445,19.428863525390625 76.93338394165039,22.86181640625 C76.93338394165039,22.86181640625 76.93338394165039,27.626991271972656 76.93338394165039,27.626991271972656 C76.93338394165039,27.626991271972656 72.33337783813477,28.548118591308594 72.33337783813477,28.548118591308594 C72.2667121887207,25.91370391845703 72.53337478637695,22.129974365234375 72.13337326049805,19.996170043945312 C72.00004196166992,19.721168518066406 71.53337478637695,19.665969848632812 70.8667106628418,19.68714141845703 C70.8667106628418,19.68714141845703 70.8667106628418,28.84180450439453 70.8667106628418,28.84180450439453 C70.8667106628418,28.84180450439453 65.9333724975586,29.829681396484375 65.9333724975586,29.829681396484375 C65.9333724975586,29.829681396484375 65.9333724975586,7.595588684082031 65.9333724975586,7.595588684082031 C65.9333724975586,7.595588684082031 69.40004348754883,8.201858520507812 69.40004348754883,8.201858520507812 C75.00004959106445,9.049072265625 76.93338394165039,9.837020874023438 76.93338394165039,14.475112915039062 C76.93338394165039,17.14362335205078 76.60004806518555,17.905662536621094 74.20003890991211,18.17144775390625 C74.20003890991211,18.17144775390625 74.20003890991211,18.17144775390625 74.20003890991211,18.17144775390625 M70.8667106628418,16.46869659423828 C72.93337631225586,17.07586669921875 72.46670913696289,13.736045837402344 72.00004196166992,12.368110656738281 C71.80004501342773,12.136215209960938 71.46670913696289,12.029121398925781 70.8667106628418,11.962882995605469 C70.8667106628418,11.962882995605469 70.8667106628418,16.46869659423828 70.8667106628418,16.46869659423828 C70.8667106628418,16.46869659423828 70.8667106628418,16.46869659423828 70.8667106628418,16.46869659423828 M88.7333869934082,11.583015441894531 C88.7333869934082,11.583015441894531 88.7333869934082,14.319229125976562 88.7333869934082,14.319229125976562 C88.7333869934082,14.319229125976562 85.8000602722168,14.02630615234375 85.8000602722168,14.02630615234375 C85.8000602722168,14.02630615234375 85.8000602722168,25.851478576660156 85.8000602722168,25.851478576660156 C85.8000602722168,25.851478576660156 80.86671829223633,26.83935546875 80.86671829223633,26.83935546875 C80.86671829223633,26.83935546875 80.86671829223633,13.533653259277344 80.86671829223633,13.533653259277344 C80.86671829223633,13.533653259277344 77.93338394165039,13.240730285644531 77.93338394165039,13.240730285644531 C77.93338394165039,13.240730285644531 77.93338394165039,9.694229125976562 77.93338394165039,9.694229125976562 C77.93338394165039,9.694229125976562 88.7333869934082,11.583015441894531 88.7333869934082,11.583015441894531 C88.7333869934082,11.583015441894531 88.7333869934082,11.583015441894531 88.7333869934082,11.583015441894531 " stroke="null"></path>
</g>

</svg>