<svg xmlns="http://www.w3.org/2000/svg" xmlns:xlink="http://www.w3.org/1999/xlink" viewBox="0 0 100 50">

<g style="pointer-events:inherit">
<path id="svg_5" x="0" y="0" style="pointer-events:none" fill="#666666" d="M16.066665649414062,7.54217529296875 C16.066665649414062,7.54217529296875 16.066665649414062,12.362380981445312 16.066665649414062,12.362380981445312 C16.066665649414062,12.362380981445312 13.133331298828125,12.864166259765625 13.133331298828125,12.864166259765625 C13.133331298828125,12.864166259765625 13.133331298828125,32.1947021484375 13.133331298828125,32.1947021484375 C13.133331298828125,32.1947021484375 8.199996948242188,33.162872314453125 8.199996948242188,33.162872314453125 C8.199996948242188,33.162872314453125 8.199996948242188,13.745040893554688 8.199996948242188,13.745040893554688 C8.199996948242188,13.745040893554688 5.26666259765625,14.280319213867188 5.26666259765625,14.280319213867188 C5.26666259765625,14.280319213867188 5.26666259765625,9.41259765625 5.26666259765625,9.41259765625 C5.26666259765625,9.41259765625 16.066665649414062,7.54217529296875 16.066665649414062,7.54217529296875 C16.066665649414062,7.54217529296875 16.066665649414062,7.54217529296875 16.066665649414062,7.54217529296875 M17.133331298828125,7.369720458984375 C17.133331298828125,7.369720458984375 25.333328247070312,6.17608642578125 25.333328247070312,6.17608642578125 C25.333328247070312,6.17608642578125 25.333328247070312,10.961593627929688 25.333328247070312,10.961593627929688 C25.333328247070312,10.961593627929688 22.066665649414062,11.41693115234375 22.066665649414062,11.41693115234375 C22.066665649414062,11.41693115234375 22.066665649414062,15.961257934570312 22.066665649414062,15.961257934570312 C22.066665649414062,15.961257934570312 25.133331298828125,15.522323608398438 25.133331298828125,15.522323608398438 C25.133331298828125,15.522323608398438 25.133331298828125,20.05657958984375 25.133331298828125,20.05657958984375 C25.133331298828125,20.05657958984375 22.066665649414062,20.505569458007812 22.066665649414062,20.505569458007812 C22.066665649414062,20.505569458007812 22.066665649414062,25.807281494140625 22.066665649414062,25.807281494140625 C22.066665649414062,25.807281494140625 25.666671752929688,25.2711181640625 25.666671752929688,25.2711181640625 C25.666671752929688,25.2711181640625 25.666671752929688,30.0555419921875 25.666671752929688,30.0555419921875 C25.666671752929688,30.0555419921875 17.133331298828125,31.4488525390625 17.133331298828125,31.4488525390625 C17.133331298828125,31.4488525390625 17.133331298828125,7.369720458984375 17.133331298828125,7.369720458984375 C17.133331298828125,7.369720458984375 17.133331298828125,7.369720458984375 17.133331298828125,7.369720458984375 M37.06666564941406,5.029998779296875 C37.06666564941406,5.029998779296875 35.33332824707031,15.67022705078125 35.33332824707031,15.67022705078125 C35.33332824707031,15.67022705078125 37.93333435058594,28.7525634765625 37.93333435058594,28.7525634765625 C37.93333435058594,28.7525634765625 33.33332824707031,29.12744140625 33.33332824707031,29.12744140625 C32.80000305175781,26.83966064453125 32.33332824707031,23.960479736328125 31.866668701171875,20.579559326171875 C31.866668701171875,20.579559326171875 30.866668701171875,29.386932373046875 30.866668701171875,29.386932373046875 C30.866668701171875,29.386932373046875 26.066665649414062,29.9986572265625 26.066665649414062,29.9986572265625 C26.066665649414062,29.9986572265625 27.866668701171875,16.426559448242188 27.866668701171875,16.426559448242188 C27.866668701171875,16.426559448242188 26.066665649414062,6.0829925537109375 26.066665649414062,6.0829925537109375 C26.066665649414062,6.0829925537109375 30.866668701171875,5.540191650390625 30.866668701171875,5.540191650390625 C30.933334350585938,6.955902099609375 31.600006103515625,10.31927490234375 31.866668701171875,11.965728759765625 C31.866668701171875,11.965728759765625 32.93333435058594,5.3448944091796875 32.93333435058594,5.3448944091796875 C32.93333435058594,5.3448944091796875 37.06666564941406,5.029998779296875 37.06666564941406,5.029998779296875 C37.06666564941406,5.029998779296875 37.06666564941406,5.029998779296875 37.06666564941406,5.029998779296875 M48.5333251953125,4.73052978515625 C48.5333251953125,4.73052978515625 48.5333251953125,9.47930908203125 48.5333251953125,9.47930908203125 C48.5333251953125,9.47930908203125 45.600006103515625,9.472579956054688 45.600006103515625,9.472579956054688 C45.600006103515625,9.472579956054688 45.600006103515625,28.467041015625 45.600006103515625,28.467041015625 C45.600006103515625,28.467041015625 40.66667175292969,28.600860595703125 40.66667175292969,28.600860595703125 C40.66667175292969,28.600860595703125 40.66667175292969,9.594329833984375 40.66667175292969,9.594329833984375 C40.66667175292969,9.594329833984375 37.73333740234375,9.744415283203125 37.73333740234375,9.744415283203125 C37.73333740234375,9.744415283203125 37.73333740234375,4.9890594482421875 37.73333740234375,4.9890594482421875 C37.73333740234375,4.9890594482421875 48.5333251953125,4.73052978515625 48.5333251953125,4.73052978515625 C48.5333251953125,4.73052978515625 48.5333251953125,4.73052978515625 48.5333251953125,4.73052978515625 M62.333343505859375,5.5136260986328125 C62.333343505859375,5.5136260986328125 65.13333129882812,29.693023681640625 65.13333129882812,29.693023681640625 C65.13333129882812,29.693023681640625 60.066650390625,29.1209716796875 60.066650390625,29.1209716796875 C60.066650390625,29.1209716796875 59.79998779296875,24.833969116210938 59.79998779296875,24.833969116210938 C59.79998779296875,24.833969116210938 58.066650390625,24.6826171875 58.066650390625,24.6826171875 C58.066650390625,24.6826171875 57.79998779296875,28.91900634765625 57.79998779296875,28.91900634765625 C57.79998779296875,28.91900634765625 52.66667175292969,28.5948486328125 52.66667175292969,28.5948486328125 C52.66667175292969,28.5948486328125 55.20001220703125,4.958343505859375 55.20001220703125,4.958343505859375 C55.20001220703125,4.958343505859375 62.333343505859375,5.5136260986328125 62.333343505859375,5.5136260986328125 C62.333343505859375,5.5136260986328125 62.333343505859375,5.5136260986328125 62.333343505859375,5.5136260986328125 M59.666656494140625,20.560440063476562 C59.399993896484375,17.863235473632812 59.20001220703125,14.504470825195312 58.933349609375,10.556381225585938 C58.399993896484375,15.023300170898438 58.133331298828125,18.342178344726562 58,20.418991088867188 C58,20.418991088867188 59.666656494140625,20.560440063476562 59.666656494140625,20.560440063476562 C59.666656494140625,20.560440063476562 59.666656494140625,20.560440063476562 59.666656494140625,20.560440063476562 M74.20001220703125,18.505294799804688 C76.73333740234375,20.027023315429688 77,20.664749145507812 76.933349609375,25.2178955078125 C76.933349609375,25.2178955078125 76.933349609375,31.557708740234375 76.933349609375,31.557708740234375 C76.933349609375,31.557708740234375 72.33334350585938,30.75628662109375 72.33334350585938,30.75628662109375 C72.26666259765625,27.5452880859375 72.5333251953125,23.040481567382812 72.13333129882812,20.366592407226562 C72,20.009017944335938 71.5333251953125,19.852752685546875 70.86666870117188,19.751434326171875 C70.86666870117188,19.751434326171875 70.86666870117188,30.51885986328125 70.86666870117188,30.51885986328125 C70.86666870117188,30.51885986328125 65.933349609375,29.797607421875 65.933349609375,29.797607421875 C65.933349609375,29.797607421875 65.933349609375,5.9045867919921875 65.933349609375,5.9045867919921875 C65.933349609375,5.9045867919921875 69.39999389648438,6.342742919921875 69.39999389648438,6.342742919921875 C75,6.990142822265625 76.933349609375,7.8889923095703125 76.933349609375,14.059768676757812 C76.933349609375,17.610076904296875 76.60000610351562,18.567489624023438 74.20001220703125,18.505294799804688 C74.20001220703125,18.505294799804688 74.20001220703125,18.505294799804688 74.20001220703125,18.505294799804688 M70.86666870117188,15.966018676757812 C72.933349609375,16.954269409179688 72.4666748046875,12.838851928710938 72,11.168792724609375 C71.79998779296875,10.8865966796875 71.4666748046875,10.753448486328125 70.86666870117188,10.66644287109375 C70.86666870117188,10.66644287109375 70.86666870117188,15.966018676757812 70.86666870117188,15.966018676757812 C70.86666870117188,15.966018676757812 70.86666870117188,15.966018676757812 70.86666870117188,15.966018676757812 M88.73333740234375,9.507766723632812 C88.73333740234375,9.507766723632812 88.73333740234375,14.377899169921875 88.73333740234375,14.377899169921875 C88.73333740234375,14.377899169921875 85.79998779296875,13.842025756835938 85.79998779296875,13.842025756835938 C85.79998779296875,13.842025756835938 85.79998779296875,33.26947021484375 85.79998779296875,33.26947021484375 C85.79998779296875,33.26947021484375 80.86666870117188,32.297271728515625 80.86666870117188,32.297271728515625 C80.86666870117188,32.297271728515625 80.86666870117188,12.957489013671875 80.86666870117188,12.957489013671875 C80.86666870117188,12.957489013671875 77.933349609375,12.452011108398438 77.933349609375,12.452011108398438 C77.933349609375,12.452011108398438 77.933349609375,7.62957763671875 77.933349609375,7.62957763671875 C77.933349609375,7.62957763671875 88.73333740234375,9.507766723632812 88.73333740234375,9.507766723632812 C88.73333740234375,9.507766723632812 88.73333740234375,9.507766723632812 88.73333740234375,9.507766723632812 "></path>
</g>

</svg>