<?xml version="1.0" encoding="iso-8859-1"?>
<!-- Generator: Adobe Illustrator 16.0.0, SVG Export Plug-In . SVG Version: 6.00 Build 0)  -->
<!DOCTYPE svg PUBLIC "-//W3C//DTD SVG 1.1//EN" "http://www.w3.org/Graphics/SVG/1.1/DTD/svg11.dtd">
<svg version="1.1" id="Layer_1" xmlns="http://www.w3.org/2000/svg" xmlns:xlink="http://www.w3.org/1999/xlink" x="0px" y="0px"
	 width="150px" height="150px" viewBox="0 0 150 150" style="enable-background:new 0 0 150 150;" xml:space="preserve">
<path style="fill-rule:evenodd;clip-rule:evenodd;fill:#010101;" d="M136.844,86.156c-2.013,2.585-4.374,4.054-7.087,4.403
	c-0.031,0.831-0.11,1.644-0.239,2.441c-0.702,3.703-2.617,6.942-5.744,9.72c-3.959,3.574-8.746,5.361-14.363,5.361
	c-5.043,0-9.431-1.437-13.165-4.309c-0.639,2.521-2.218,4.739-4.74,6.654c-3.351,2.585-7.389,3.878-12.111,3.878
	c-0.862,0-1.709-0.031-2.538-0.096c-3.638-0.415-6.83-1.676-9.575-3.782c-0.542-0.415-1.053-0.845-1.532-1.292
	c-0.767,0.895-1.676,1.755-2.729,2.585c-3.798,3-8.394,4.5-13.788,4.5c-5.394,0-10.006-1.5-13.836-4.5
	c-3.51-2.745-5.394-6.032-5.649-9.863c-1.468,0.32-3,0.479-4.596,0.479c-4.691,0-8.697-1.34-12.016-4.021
	c-3.319-2.648-4.979-5.856-4.979-9.623c0-3.096,1.118-5.825,3.351-8.187c-1.882-0.734-3.622-1.755-5.218-3.064
	c-3.702-2.999-5.554-6.638-5.554-10.914c0-4.277,1.852-7.932,5.554-10.964c1.276-1.021,2.649-1.867,4.117-2.537
	c-2.458-2.553-3.687-5.506-3.687-8.857c0-3.958,1.692-7.341,5.075-10.149c3.415-2.808,7.517-4.213,12.304-4.213
	c3.766,0,7.102,0.877,10.005,2.633c0.575-3.033,1.963-5.697,4.166-7.996c3.032-3.127,6.687-4.691,10.963-4.691
	c2.202,0,4.245,0.415,6.128,1.245c0.51-2.33,1.819-4.373,3.925-6.128c2.84-2.362,6.271-3.543,10.293-3.543
	c4.021,0,7.437,1.181,10.245,3.543c2.202,1.851,3.56,3.99,4.069,6.415c2.011-1.5,4.404-2.25,7.182-2.25
	c2.936,0,5.441,0.845,7.516,2.537c1.947,1.628,2.985,3.575,3.111,5.841c1.947-1.149,4.133-1.724,6.559-1.724
	c3.64,0,6.735,1.276,9.288,3.83c2.585,2.554,3.878,5.633,3.878,9.24c0,0.797-0.064,1.564-0.19,2.298
	c3.415,0.191,6.351,1.708,8.808,4.548c2.682,3.063,4.022,6.766,4.022,11.107c0,1.691-0.207,3.287-0.622,4.787
	c1.244,0.734,2.376,1.771,3.399,3.112c2.297,2.968,3.446,6.559,3.446,10.772C140.29,79.597,139.141,83.187,136.844,86.156z"/>
<path style="fill-rule:evenodd;clip-rule:evenodd;fill:#010101;" d="M135.311,120.387c0,2.232-0.909,4.133-2.729,5.696
	c-1.788,1.563-3.957,2.346-6.511,2.346s-4.74-0.782-6.56-2.346c-1.787-1.563-2.681-3.464-2.681-5.696
	c0-2.235,0.894-4.134,2.681-5.698c1.819-1.563,4.006-2.346,6.56-2.346s4.723,0.782,6.511,2.346
	C134.401,116.253,135.311,118.151,135.311,120.387z"/>
<path style="fill-rule:evenodd;clip-rule:evenodd;fill:#010101;" d="M137.656,128.094c1.309-1.244,2.873-1.867,4.692-1.867
	c1.818,0,3.367,0.623,4.644,1.867c1.308,1.244,1.963,2.745,1.963,4.5c0,1.756-0.655,3.255-1.963,4.501
	c-1.276,1.245-2.825,1.866-4.644,1.866c-1.819,0-3.384-0.621-4.692-1.866c-1.276-1.246-1.915-2.745-1.915-4.501
	C135.741,130.839,136.38,129.338,137.656,128.094z"/>
</svg>
