<?xml version="1.0" encoding="iso-8859-1"?>
<!-- Generator: Adobe Illustrator 16.0.0, SVG Export Plug-In . SVG Version: 6.00 Build 0)  -->
<!DOCTYPE svg PUBLIC "-//W3C//DTD SVG 1.1//EN" "http://www.w3.org/Graphics/SVG/1.1/DTD/svg11.dtd">
<svg version="1.1" id="Layer_1" xmlns="http://www.w3.org/2000/svg" xmlns:xlink="http://www.w3.org/1999/xlink" x="0px" y="0px"
	 width="150px" height="150px" viewBox="0 0 150 150" style="enable-background:new 0 0 150 150;" xml:space="preserve">
<path style="fill-rule:evenodd;clip-rule:evenodd;fill:#010101;" d="M126.902,99.911c-7.413,4.879-15.64,8.492-24.681,10.839
	c-1.032,14.265,2.909,24.681,11.825,31.25c-16.799-3.254-28.89-12.575-36.272-27.966c-0.938,0-1.876,0-2.815,0
	c-20.302,0-37.632-4.708-51.99-14.123C8.61,90.525,1.431,79.17,1.431,65.844c0-13.295,7.179-24.666,21.538-34.113
	c14.358-9.384,31.688-14.077,51.99-14.077c20.302,0,37.616,4.692,51.943,14.077c14.391,9.447,21.585,20.818,21.585,34.113
	C148.487,79.17,141.293,90.525,126.902,99.911z"/>
</svg>
