<svg xmlns="http://www.w3.org/2000/svg" xmlns:xlink="http://www.w3.org/1999/xlink" viewBox="0 0 100 50">

<g style="pointer-events:inherit">
<path id="svg_5" x="0" y="0" style="pointer-events: none; vector-effect: non-scaling-stroke;" fill="#666666" d="M16.066673278808594,5.587818145751953 C16.066673278808594,5.587818145751953 16.066673278808594,9.604434967041016 16.066673278808594,9.604434967041016 C16.066673278808594,9.604434967041016 13.133337020874023,10.279590606689453 13.133337020874023,10.279590606689453 C13.133337020874023,10.279590606689453 13.133337020874023,26.412944793701172 13.133337020874023,26.412944793701172 C13.133337020874023,26.412944793701172 8.1999990940094,27.922115325927734 8.1999990940094,27.922115325927734 C8.1999990940094,27.922115325927734 8.1999990940094,11.652698516845703 8.1999990940094,11.652698516845703 C8.1999990940094,11.652698516845703 5.266662836074829,12.54520034790039 5.266662836074829,12.54520034790039 C5.266662836074829,12.54520034790039 5.266662836074829,8.455738067626953 5.266662836074829,8.455738067626953 C5.266662836074829,8.455738067626953 16.066673278808594,5.587818145751953 16.066673278808594,5.587818145751953 C16.066673278808594,5.587818145751953 16.066673278808594,5.587818145751953 16.066673278808594,5.587818145751953 M17.13334083557129,5.382408142089844 C17.13334083557129,5.382408142089844 25.333349227905273,4.555309295654297 25.333349227905273,4.555309295654297 C25.333349227905273,4.555309295654297 25.333349227905273,8.54568862915039 25.333349227905273,8.54568862915039 C25.333349227905273,8.54568862915039 22.066679000854492,8.708385467529297 22.066679000854492,8.708385467529297 C22.066679000854492,8.708385467529297 22.066679000854492,12.492572784423828 22.066679000854492,12.492572784423828 C22.066679000854492,12.492572784423828 25.13334846496582,12.329059600830078 25.13334846496582,12.329059600830078 C25.13334846496582,12.329059600830078 25.13334846496582,16.109493255615234 25.13334846496582,16.109493255615234 C25.13334846496582,16.109493255615234 22.066679000854492,16.276752471923828 22.066679000854492,16.276752471923828 C22.066679000854492,16.276752471923828 22.066679000854492,20.691631317138672 22.066679000854492,20.691631317138672 C22.066679000854492,20.691631317138672 25.66668128967285,20.513805389404297 25.66668128967285,20.513805389404297 C25.66668128967285,20.513805389404297 25.66668128967285,24.50411605834961 25.66668128967285,24.50411605834961 C25.66668128967285,24.50411605834961 17.13334083557129,25.439380645751953 17.13334083557129,25.439380645751953 C17.13334083557129,25.439380645751953 17.13334083557129,5.382408142089844 17.13334083557129,5.382408142089844 C17.13334083557129,5.382408142089844 17.13334083557129,5.382408142089844 17.13334083557129,5.382408142089844 M37.06669235229492,5.886028289794922 C37.06669235229492,5.886028289794922 35.33335876464844,14.39663314819336 35.33335876464844,14.39663314819336 C35.33335876464844,14.39663314819336 37.9333610534668,26.231884002685547 37.9333610534668,26.231884002685547 C37.9333610534668,26.231884002685547 33.333356857299805,25.194324493408203 33.333356857299805,25.194324493408203 C32.80002212524414,23.134578704833984 32.333356857299805,20.601810455322266 31.866687774658203,17.65475845336914 C31.866687774658203,17.65475845336914 30.866687774658203,24.817890167236328 30.866687774658203,24.817890167236328 C30.866687774658203,24.817890167236328 26.066682815551758,24.50411605834961 26.066682815551758,24.50411605834961 C26.066682815551758,24.50411605834961 27.866683959960938,13.420360565185547 27.866683959960938,13.420360565185547 C27.866683959960938,13.420360565185547 26.066682815551758,4.55255126953125 26.066682815551758,4.55255126953125 C26.066682815551758,4.55255126953125 30.866687774658203,4.830959320068359 30.866687774658203,4.830959320068359 C30.9333553314209,6.030612945556641 31.600021362304688,8.987140655517578 31.866687774658203,10.42586898803711 C31.866687774658203,10.42586898803711 32.93335723876953,5.102581024169922 32.93335723876953,5.102581024169922 C32.93335723876953,5.102581024169922 37.06669235229492,5.886028289794922 37.06669235229492,5.886028289794922 C37.06669235229492,5.886028289794922 37.06669235229492,5.886028289794922 37.06669235229492,5.886028289794922 M48.53337097167969,9.07381820678711 C48.53337097167969,9.07381820678711 48.53337097167969,13.17898178100586 48.53337097167969,13.17898178100586 C48.53337097167969,13.17898178100586 45.600032806396484,12.279125213623047 45.600032806396484,12.279125213623047 C45.600032806396484,12.279125213623047 45.600032806396484,28.610614776611328 45.600032806396484,28.610614776611328 C45.600032806396484,28.610614776611328 40.66669845581055,27.013385772705078 40.66669845581055,27.013385772705078 C40.66669845581055,27.013385772705078 40.66669845581055,10.82589340209961 40.66669845581055,10.82589340209961 C40.66669845581055,10.82589340209961 37.733360290527344,10.066654205322266 37.733360290527344,10.066654205322266 C37.733360290527344,10.066654205322266 37.733360290527344,6.038585662841797 37.733360290527344,6.038585662841797 C37.733360290527344,6.038585662841797 48.53337097167969,9.07381820678711 48.53337097167969,9.07381820678711 C48.53337097167969,9.07381820678711 48.53337097167969,9.07381820678711 48.53337097167969,9.07381820678711 M62.33338165283203,12.21029281616211 C62.33338165283203,12.21029281616211 65.13338851928711,33.40555953979492 65.13338851928711,33.40555953979492 C65.13338851928711,33.40555953979492 60.066715240478516,32.779964447021484 60.066715240478516,32.779964447021484 C60.066715240478516,32.779964447021484 59.800048828125,28.99460220336914 59.800048828125,28.99460220336914 C59.800048828125,28.99460220336914 58.06671142578125,28.64638900756836 58.06671142578125,28.64638900756836 C58.06671142578125,28.64638900756836 57.800045013427734,32.31546401977539 57.800045013427734,32.31546401977539 C57.800045013427734,32.31546401977539 52.666709899902344,30.932422637939453 52.666709899902344,30.932422637939453 C52.666709899902344,30.932422637939453 55.200042724609375,10.906208038330078 55.200042724609375,10.906208038330078 C55.200042724609375,10.906208038330078 62.33338165283203,12.21029281616211 62.33338165283203,12.21029281616211 C62.33338165283203,12.21029281616211 62.33338165283203,12.21029281616211 62.33338165283203,12.21029281616211 M59.666717529296875,25.23427963256836 C59.40005111694336,22.841625213623047 59.20004653930664,19.875675201416016 58.933380126953125,16.38540267944336 C58.400047302246094,20.23287582397461 58.13338088989258,23.103443145751953 58.00004577636719,24.90310287475586 C58.00004577636719,24.90310287475586 59.666717529296875,25.23427963256836 59.666717529296875,25.23427963256836 C59.666717529296875,25.23427963256836 59.666717529296875,25.23427963256836 59.666717529296875,25.23427963256836 M74.2000617980957,22.012073516845703 C76.73339462280273,22.51400375366211 77.00006484985352,22.971134185791016 76.93339920043945,26.934307098388672 C76.93339920043945,26.934307098388672 76.93339920043945,32.41946792602539 76.93339920043945,32.41946792602539 C76.93339920043945,32.41946792602539 72.33339309692383,33.200740814208984 72.33339309692383,33.200740814208984 C72.26672744750977,30.417545318603516 72.53339004516602,26.420673370361328 72.13338851928711,24.18905258178711 C72.00005722045898,23.909358978271484 71.53339004516602,23.882091522216797 70.86672592163086,23.939350128173828 C70.86672592163086,23.939350128173828 70.86672592163086,33.34767532348633 70.86672592163086,33.34767532348633 C70.86672592163086,33.34767532348633 65.93338775634766,33.447452545166016 65.93338775634766,33.447452545166016 C65.93338775634766,33.447452545166016 65.93338775634766,12.487979888916016 65.93338775634766,12.487979888916016 C65.93338775634766,12.487979888916016 69.40005874633789,12.482776641845703 69.40005874633789,12.482776641845703 C75.00006484985352,11.770458221435547 76.93339920043945,11.941524505615234 76.93339920043945,17.28042221069336 C76.93339920043945,20.352115631103516 76.60006332397461,21.297107696533203 74.2000617980957,22.012073516845703 C74.2000617980957,22.012073516845703 74.2000617980957,22.012073516845703 74.2000617980957,22.012073516845703 M70.86672592163086,20.63174057006836 C72.93339157104492,21.01230239868164 72.46672439575195,17.542484283447266 72.00005722045898,16.196109771728516 C71.8000602722168,15.995235443115234 71.46672439575195,15.95230484008789 70.86672592163086,16.001079559326172 C70.86672592163086,16.001079559326172 70.86672592163086,20.63174057006836 70.86672592163086,20.63174057006836 C70.86672592163086,20.63174057006836 70.86672592163086,20.63174057006836 70.86672592163086,20.63174057006836 M88.73340225219727,8.455738067626953 C88.73340225219727,8.455738067626953 88.73340225219727,12.54520034790039 88.73340225219727,12.54520034790039 C88.73340225219727,12.54520034790039 85.80007553100586,13.44167709350586 85.80007553100586,13.44167709350586 C85.80007553100586,13.44167709350586 85.80007553100586,29.888370513916016 85.80007553100586,29.888370513916016 C85.80007553100586,29.888370513916016 80.86673355102539,31.42385482788086 80.86673355102539,31.42385482788086 C80.86673355102539,31.42385482788086 80.86673355102539,14.838726043701172 80.86673355102539,14.838726043701172 C80.86673355102539,14.838726043701172 77.93339920043945,15.537235260009766 77.93339920043945,15.537235260009766 C77.93339920043945,15.537235260009766 77.93339920043945,11.373645782470703 77.93339920043945,11.373645782470703 C77.93339920043945,11.373645782470703 88.73340225219727,8.455738067626953 88.73340225219727,8.455738067626953 C88.73340225219727,8.455738067626953 88.73340225219727,8.455738067626953 88.73340225219727,8.455738067626953 " stroke="null"></path>
</g>

</svg>