<svg xmlns="http://www.w3.org/2000/svg" xmlns:xlink="http://www.w3.org/1999/xlink" viewBox="0 0 100 50">

<g style="pointer-events:inherit">
<path id="svg_5" x="0" y="0" style="pointer-events: none; vector-effect: non-scaling-stroke;" fill="#666666" d="M16.066667556762695,8.833709716796875 C16.066667556762695,8.833709716796875 16.066667556762695,13.036727905273438 16.066667556762695,13.036727905273438 C16.066667556762695,13.036727905273438 13.133333206176758,12.428138732910156 13.133333206176758,12.428138732910156 C13.133333206176758,12.428138732910156 13.133333206176758,31.069168090820312 13.133333206176758,31.069168090820312 C13.133333206176758,31.069168090820312 8.199997663497925,33.211570739746094 8.199997663497925,33.211570739746094 C8.199997663497925,33.211570739746094 8.199997663497925,11.359748840332031 8.199997663497925,11.359748840332031 C8.199997663497925,11.359748840332031 5.266662836074829,10.710540771484375 5.266662836074829,10.710540771484375 C5.266662836074829,10.710540771484375 5.266662836074829,4.7598114013671875 5.266662836074829,4.7598114013671875 C5.266662836074829,4.7598114013671875 16.066667556762695,8.833709716796875 16.066667556762695,8.833709716796875 C16.066667556762695,8.833709716796875 16.066667556762695,8.833709716796875 16.066667556762695,8.833709716796875 M17.13333511352539,9.209327697753906 C17.13333511352539,9.209327697753906 25.33333969116211,11.809158325195312 25.33333969116211,11.809158325195312 C25.33333969116211,11.809158325195312 25.33333969116211,14.7357177734375 25.33333969116211,14.7357177734375 C25.33333969116211,14.7357177734375 22.06667137145996,14.183433532714844 22.06667137145996,14.183433532714844 C22.06667137145996,14.183433532714844 22.06667137145996,17.349044799804688 22.06667137145996,17.349044799804688 C22.06667137145996,17.349044799804688 25.133338928222656,17.498977661132812 25.133338928222656,17.498977661132812 C25.133338928222656,17.498977661132812 25.133338928222656,20.29436492919922 25.133338928222656,20.29436492919922 C25.133338928222656,20.29436492919922 22.06667137145996,20.514671325683594 22.06667137145996,20.514671325683594 C22.06667137145996,20.514671325683594 22.06667137145996,24.207901000976562 22.06667137145996,24.207901000976562 C22.06667137145996,24.207901000976562 25.666671752929688,23.448883056640625 25.666671752929688,23.448883056640625 C25.666671752929688,23.448883056640625 25.666671752929688,26.335594177246094 25.666671752929688,26.335594177246094 C25.666671752929688,26.335594177246094 17.13333511352539,29.418716430664062 17.13333511352539,29.418716430664062 C17.13333511352539,29.418716430664062 17.13333511352539,9.209327697753906 17.13333511352539,9.209327697753906 C17.13333511352539,9.209327697753906 17.13333511352539,9.209327697753906 17.13333511352539,9.209327697753906 M37.06667709350586,14.305435180664062 C37.06667709350586,14.305435180664062 35.333343505859375,18.393959045410156 35.333343505859375,18.393959045410156 C35.333343505859375,18.393959045410156 37.933345794677734,23.452354431152344 37.933345794677734,23.452354431152344 C37.933345794677734,23.452354431152344 33.333343505859375,24.281829833984375 33.333343505859375,24.281829833984375 C32.80000877380371,23.337066650390625 32.333343505859375,22.071990966796875 31.866676330566406,20.523544311523438 C31.866676330566406,20.523544311523438 30.866674423217773,24.85607147216797 30.866674423217773,24.85607147216797 C30.866674423217773,24.85607147216797 26.066673278808594,26.209739685058594 26.066673278808594,26.209739685058594 C26.066673278808594,26.209739685058594 27.866674423217773,18.313339233398438 27.866674423217773,18.313339233398438 C27.866674423217773,18.313339233398438 26.066673278808594,12.011940002441406 26.066673278808594,12.011940002441406 C26.066673278808594,12.011940002441406 30.866674423217773,13.194190979003906 30.866674423217773,13.194190979003906 C30.93334197998047,13.902496337890625 31.60000991821289,15.65594482421875 31.866676330566406,16.473587036132812 C31.866676330566406,16.473587036132812 32.9333438873291,13.619560241699219 32.9333438873291,13.619560241699219 C32.9333438873291,13.619560241699219 37.06667709350586,14.305435180664062 37.06667709350586,14.305435180664062 C37.06667709350586,14.305435180664062 37.06667709350586,14.305435180664062 37.06667709350586,14.305435180664062 M48.533348083496094,14.957672119140625 C48.533348083496094,14.957672119140625 48.533348083496094,16.53350830078125 48.533348083496094,16.53350830078125 C48.533348083496094,16.53350830078125 45.600013732910156,16.541671752929688 45.600013732910156,16.541671752929688 C45.600013732910156,16.541671752929688 45.600013732910156,22.820518493652344 45.600013732910156,22.820518493652344 C45.600013732910156,22.820518493652344 40.66667938232422,23.11663055419922 40.66667938232422,23.11663055419922 C40.66667938232422,23.11663055419922 40.66667938232422,16.394004821777344 40.66667938232422,16.394004821777344 C40.66667938232422,16.394004821777344 37.73334503173828,16.211997985839844 37.73334503173828,16.211997985839844 C37.73334503173828,16.211997985839844 37.73334503173828,14.394584655761719 37.73334503173828,14.394584655761719 C37.73334503173828,14.394584655761719 48.533348083496094,14.957672119140625 48.533348083496094,14.957672119140625 C48.533348083496094,14.957672119140625 48.533348083496094,14.957672119140625 48.533348083496094,14.957672119140625 M62.33335494995117,13.252029418945312 C62.33335494995117,13.252029418945312 65.13335800170898,25.533416748046875 65.13335800170898,25.533416748046875 C65.13335800170898,25.533416748046875 60.066688537597656,24.267532348632812 60.066688537597656,24.267532348632812 C60.066688537597656,24.267532348632812 59.80002212524414,22.340362548828125 59.80002212524414,22.340362548828125 C59.80002212524414,22.340362548828125 58.066688537597656,22.1131591796875 58.066688537597656,22.1131591796875 C58.066688537597656,22.1131591796875 57.80002212524414,23.82062530517578 57.80002212524414,23.82062530517578 C57.80002212524414,23.82062530517578 52.66668701171875,23.103347778320312 52.66668701171875,23.103347778320312 C52.66668701171875,23.103347778320312 55.20001983642578,14.461494445800781 55.20001983642578,14.461494445800781 C55.20001983642578,14.461494445800781 62.33335494995117,13.252029418945312 62.33335494995117,13.252029418945312 C62.33335494995117,13.252029418945312 62.33335494995117,13.252029418945312 62.33335494995117,13.252029418945312 M59.666690826416016,20.4605712890625 C59.4000244140625,19.286178588867188 59.20002365112305,17.846649169921875 58.93335723876953,16.18492889404297 C58.4000244140625,18.11298370361328 58.133358001708984,19.498367309570312 58.000022888183594,20.35308837890625 C58.000022888183594,20.35308837890625 59.666690826416016,20.4605712890625 59.666690826416016,20.4605712890625 C59.666690826416016,20.4605712890625 59.666690826416016,20.4605712890625 59.666690826416016,20.4605712890625 M74.20002365112305,18.83592987060547 C76.73335647583008,19.791946411132812 77.00002670288086,20.312049865722656 76.9333610534668,24.222618103027344 C76.9333610534668,24.222618103027344 76.9333610534668,29.659652709960938 76.9333610534668,29.659652709960938 C76.9333610534668,29.659652709960938 72.3333625793457,27.886215209960938 72.3333625793457,27.886215209960938 C72.26669692993164,25.55615997314453 72.53335952758789,22.318199157714844 72.13335800170898,20.38934326171875 C72.00002670288086,20.139930725097656 71.53335952758789,20.053237915039062 70.86669540405273,20.015769958496094 C70.86669540405273,20.015769958496094 70.86669540405273,27.360801696777344 70.86669540405273,27.360801696777344 C70.86669540405273,27.360801696777344 65.9333610534668,25.764801025390625 65.9333610534668,25.764801025390625 C65.9333610534668,25.764801025390625 65.9333610534668,12.400520324707031 65.9333610534668,12.400520324707031 C65.9333610534668,12.400520324707031 69.40002822875977,11.4461669921875 69.40002822875977,11.4461669921875 C75.00002670288086,9.533561706542969 76.9333610534668,9.361373901367188 76.9333610534668,14.653427124023438 C76.9333610534668,17.69817352294922 76.60002517700195,18.568862915039062 74.20002365112305,18.83592987060547 C74.20002365112305,18.83592987060547 74.20002365112305,18.83592987060547 74.20002365112305,18.83592987060547 M70.86669540405273,17.43354034423828 C72.9333610534668,17.82947540283203 72.46669387817383,14.908477783203125 72.00002670288086,13.835777282714844 C71.80002975463867,13.695014953613281 71.46669387817383,13.701347351074219 70.86669540405273,13.818412780761719 C70.86669540405273,13.818412780761719 70.86669540405273,17.43354034423828 70.86669540405273,17.43354034423828 C70.86669540405273,17.43354034423828 70.86669540405273,17.43354034423828 70.86669540405273,17.43354034423828 M88.73336410522461,4.55255126953125 C88.73336410522461,4.55255126953125 88.73336410522461,10.592193603515625 88.73336410522461,10.592193603515625 C88.73336410522461,10.592193603515625 85.8000373840332,11.242118835449219 85.8000373840332,11.242118835449219 C85.8000373840332,11.242118835449219 85.8000373840332,33.44744873046875 85.8000373840332,33.44744873046875 C85.8000373840332,33.44744873046875 80.86670303344727,31.296165466308594 80.86670303344727,31.296165466308594 C80.86670303344727,31.296165466308594 80.86670303344727,12.31494140625 80.86670303344727,12.31494140625 C80.86670303344727,12.31494140625 77.93336868286133,12.928024291992188 77.93336868286133,12.928024291992188 C77.93336868286133,12.928024291992188 77.93336868286133,8.643333435058594 77.93336868286133,8.643333435058594 C77.93336868286133,8.643333435058594 88.73336410522461,4.55255126953125 88.73336410522461,4.55255126953125 C88.73336410522461,4.55255126953125 88.73336410522461,4.55255126953125 88.73336410522461,4.55255126953125 " stroke="null"></path>
</g>

</svg>