<svg width="30px" height="14.1px" viewBox="0 0 30 14.1" xmlns="http://www.w3.org/2000/svg" xmlns:xlink="http://www.w3.org/1999/xlink">
  <defs>
    <linearGradient gradientUnits="userSpaceOnUse" x1="-819.2" x2="819.2" spreadMethod="pad" gradientTransform="matrix(0 0.00970458984375 -0.008575439453125 0 15 7.2)" id="gradient0">
      <stop offset="0" stop-color="#aaa"/>
      <stop offset="1" stop-color="#777"/>
    </linearGradient>
  </defs>
  <g>
    <path stroke="none" fill="#eee" d="M20.45 6.05 Q20.05 6.45 19.5 6.45 18.95 6.45 18.55 6.05 18.15 5.7 18.15 5.15 18.15 4.6 18.55 4.2 18.95 3.8 19.5 3.8 20.05 3.8 20.45 4.2 20.85 4.6 20.85 5.15 20.85 5.7 20.45 6.05 M16.35 5.05 Q16.35 5.6 15.95 5.95 15.55 6.35 15 6.35 14.45 6.35 14.05 5.95 13.65 5.6 13.65 5.05 13.65 4.5 14.05 4.1 14.45 3.7 15 3.7 15.55 3.7 15.95 4.1 16.35 4.5 16.35 5.05 M11.2 4.2 Q11.6 4.6 11.6 5.15 11.6 5.7 11.2 6.05 10.8 6.45 10.25 6.45 9.7 6.45 9.3 6.05 8.9 5.7 8.9 5.15 8.9 4.6 9.3 4.2 9.7 3.8 10.25 3.8 10.8 3.8 11.2 4.2"/>
    <path stroke="none" fill="url(#gradient0)" d="M11.2 4.2 Q10.8 3.8 10.25 3.8 9.7 3.8 9.3 4.2 8.9 4.6 8.9 5.15 8.9 5.7 9.3 6.05 9.7 6.45 10.25 6.45 10.8 6.45 11.2 6.05 11.6 5.7 11.6 5.15 11.6 4.6 11.2 4.2 M20.45 6.05 Q20.85 5.7 20.85 5.15 20.85 4.6 20.45 4.2 20.05 3.8 19.5 3.8 18.95 3.8 18.55 4.2 18.15 4.6 18.15 5.15 18.15 5.7 18.55 6.05 18.95 6.45 19.5 6.45 20.05 6.45 20.45 6.05 M27.75 14.1 Q15 11.9 2.3 14.1 L0 1.35 Q15 -1.3 30 1.35 L27.75 14.1 M16.35 5.05 Q16.35 4.5 15.95 4.1 15.55 3.7 15 3.7 14.45 3.7 14.05 4.1 13.65 4.5 13.65 5.05 13.65 5.6 14.05 5.95 14.45 6.35 15 6.35 15.55 6.35 15.95 5.95 16.35 5.6 16.35 5.05"/>
  </g>
</svg>