<svg width="101.1px" height="107px" viewBox="0 0 101.1 107" xmlns="http://www.w3.org/2000/svg" xmlns:xlink="http://www.w3.org/1999/xlink">
  <defs>
    <linearGradient gradientUnits="userSpaceOnUse" x1="-819.2" x2="819.2" spreadMethod="repeat" color-interpolation="linearRGB" gradientTransform="matrix(0 0.2433319091796875 -0.2433319091796875 0 55.1 504.5)" id="gradient0">
      <stop offset="0"/>
      <stop offset="1" stop-color="#005591"/>
    </linearGradient>
  </defs>
  <g>
    <path stroke="none" fill="url(#gradient0)" d="M95.9 61 Q90.2 64.15 83.45 62.4 75.05 59.7 72.3 51.3 69.3 42 59.9 39.4 52.75 37.8 46.85 41.4 40.95 44.95 39.05 52 37.45 59.15 41.05 65.05 44.6 70.95 51.65 72.85 60.95 74.85 67.9 68.35 L68.15 68.15 Q73.3 63.5 79.85 63.65 86.35 63.75 91.3 68.65 96 73.8 95.8 80.35 95.6 86.85 90.7 91.85 81.25 100.95 68.95 104.35 56.65 107.7 43.85 104.65 23.35 99.05 13.05 82 2.7 64.95 7.25 44.2 12.85 23.7 29.9 13.4 46.95 3.05 67.7 7.6 80.8 10.95 90.25 19.95 99.7 28.95 103.65 41.85 105.05 46.5 103.75 51.25 101.65 57.85 95.9 61"/>
    <path stroke="none" fill="#0072bc" d="M101.2 44.15 Q99.1 50.75 93.35 53.9 87.65 57.05 80.9 55.3 72.5 52.6 69.75 44.2 66.75 34.9 57.35 32.3 50.2 30.7 44.3 34.3 38.4 37.85 36.5 44.9 34.9 52.05 38.5 57.95 42.05 63.85 49.1 65.75 58.45 67.75 65.35 61.25 L65.6 61.05 Q70.75 56.4 77.3 56.55 83.8 56.65 88.75 61.55 93.45 66.7 93.25 73.25 93.05 79.75 88.15 84.75 78.7 93.85 66.4 97.25 54.1 100.6 41.3 97.55 20.8 91.95 10.5 74.9 0.15 57.85 4.7 37.1 10.3 16.6 27.35 6.3 44.4 -4.05 65.15 0.5 78.25 3.85 87.7 12.85 97.15 21.85 101.1 34.75 102.5 39.4 101.2 44.15"/>
    <path stroke="none" fill="#f5eb1e" d="M97.25 47.3 L86.85 53.6 84.1 53.6 98.55 44.85 97.25 47.3 M77.8 8.15 L5.6 51.85 5.55 50.2 76.4 7.3 77.8 8.15 M93.8 23.95 L69.7 38.55 68.85 37.35 93 22.7 93.8 23.95 M36.3 58.75 L12.2 73.35 11.5 72.1 35.65 57.45 36.3 58.75 M33.8 47.55 L7.75 63.3 7.3 61.9 34 45.7 33.8 47.55 M78.25 58.8 L27.8 89.35 26.45 88.5 75.45 58.85 78.25 58.8 M88.75 65.2 L39.9 94.8 38.05 94.2 87.9 64.05 88.75 65.2"/>
    <path stroke="none" fill="#6dcff6" d="M99 43.5 Q97.2 49.2 92.25 51.9 87.3 54.6 81.55 53.1 74.3 50.75 71.95 43.55 68.7 33.25 57.85 30.05 49.75 28.3 43.1 32.3 36.45 36.35 34.25 44.35 32.5 52.45 36.5 59.1 40.55 65.75 48.55 67.95 59.35 70.1 66.95 62.85 L67.15 62.65 Q71.6 58.6 77.2 58.75 82.85 58.9 87.05 63.1 91.15 67.6 90.95 73.2 90.75 78.8 86.55 83.1 77.85 91.55 66.15 94.9 54.45 98.25 41.8 95.3 22.25 90 12.4 73.7 2.55 57.4 6.9 37.6 12.2 18.05 28.5 8.2 44.8 -1.65 64.6 2.7 77.45 6 86.35 14.7 95.25 23.45 98.9 35.35 100.1 39.4 99 43.5"/>
    <path stroke="none" fill="#00aeef" d="M99 43.5 Q98.15 46.2 96.5 48.3 L88.05 53.45 81.55 53.1 79.5 52.35 99.5 40.2 Q99.45 41.85 99 43.5 M87.9 16.3 L62.4 31.8 Q60.25 30.65 57.85 30.05 L55.55 29.65 83.9 12.5 87.9 16.3 M79.35 9.1 L5.75 53.7 Q5.4 50.65 5.5 47.55 L74 6.1 Q76.8 7.45 79.35 9.1 M94.3 24.85 L70.2 39.45 Q68.85 37.1 66.95 35.15 L91.35 20.4 94.3 24.85 M36.85 59.65 L12.75 74.25 Q11.3 71.95 10.15 69.55 L34.55 54.75 Q35.35 57.35 36.85 59.65 M34.25 44.35 Q33.65 46.8 33.7 49.15 L8.15 64.65 Q7.2 62 6.6 59.3 L34.95 42.15 34.25 44.35 M87.05 63.1 Q88.1 64.15 88.8 65.35 L40.1 94.85 Q36.75 93.9 33.65 92.5 L85.05 61.35 87.05 63.1 M67.15 62.65 Q72.4 57.95 79 58.9 L28.25 89.65 23.45 86.3 52.75 68.5 Q61.1 68.55 66.95 62.85 L67.15 62.65"/>
    <path stroke="none" fill="#ffffff" d="M97.5 45.2 Q95 47.3 92.5 45.2 90.45 42.7 92.5 40.2 95 38.1 97.5 40.2 99.6 42.7 97.5 45.2 M59.05 28.5 Q57 26 59.05 23.5 61.55 21.45 64.05 23.5 66.15 26 64.05 28.5 61.55 30.6 59.05 28.5 M64.05 11.75 Q61.55 13.8 59.05 11.75 57 9.25 59.05 6.75 61.55 4.65 64.05 6.75 66.15 9.25 64.05 11.75 M76.05 11.5 Q74.2 9.35 75.7 6.95 L81.65 10.75 81.1 11.5 Q78.55 13.6 76.05 11.5 M80.8 23.45 L81.4 24.3 Q81.8 25.1 81.85 25.95 81.25 29.9 77.35 29.4 75.4 28.75 74.85 26.95 74.35 25.1 75.8 23.45 78.3 21.4 80.8 23.45 M92.8 23.25 L93.15 22.95 Q95.05 25.85 96.5 29.05 94.5 29.75 92.8 28.25 90.75 25.75 92.8 23.25 M30.55 11.8 Q28.05 13.85 25.55 11.8 L24.8 10.75 Q27.65 8.65 30.75 7 32.55 9.45 30.55 11.8 M30.75 28.35 Q28.25 30.45 25.75 28.35 23.7 25.85 25.75 23.35 28.25 21.25 30.75 23.35 32.85 25.85 30.75 28.35 M47.3 23.5 Q49.35 26 47.3 28.5 44.8 30.6 42.3 28.5 40.2 26 42.3 23.5 44.8 21.45 47.3 23.5 M42.35 6.8 Q44.8 4.7 47.35 6.8 49.4 9.3 47.35 11.8 44.85 13.85 42.3 11.8 40.25 9.3 42.35 6.8 M25.7 40.1 Q28.2 38 30.7 40.1 32.8 42.6 30.7 45.1 28.2 47.15 25.7 45.1 23.65 42.6 25.7 40.1 M31.7 76.1 Q31.15 80 27.25 79.5 25.3 78.9 24.75 77.05 24.2 75.2 25.65 73.6 28.2 71.5 30.7 73.6 L31.3 74.45 Q31.7 75.2 31.7 76.1 M30.95 61.6 Q28.45 63.7 25.95 61.6 23.9 59.1 25.95 56.6 28.45 54.55 30.95 56.6 33.05 59.1 30.95 61.6 M47.7 78.35 Q45.2 80.45 42.7 78.35 40.6 75.85 42.7 73.35 45.2 71.25 47.7 73.35 49.75 75.85 47.7 78.35 M75.8 45.25 Q73.7 42.75 75.8 40.25 78.3 38.15 80.8 40.25 82.85 42.75 80.8 45.25 78.3 47.35 75.8 45.25 M64.2 78.55 Q61.65 80.6 59.15 78.55 57.1 76.05 59.15 73.55 61.7 71.45 64.2 73.55 66.25 76.05 64.2 78.55 M80.95 73.55 Q83.05 76.05 80.95 78.55 78.45 80.6 75.95 78.55 73.85 76.05 75.95 73.55 78.45 71.45 80.95 73.55 M75.75 62 Q74.5 60.65 74.75 58.95 78.35 58.4 81.8 59.65 81.7 60.95 80.75 62 78.25 64.05 75.75 62 M14 23.35 Q16.05 25.85 14 28.35 12.1 30 9.9 29.05 11.45 25.75 13.35 22.85 L14 23.35 M13.95 73.65 Q15.4 75.25 14.8 77.25 L11.75 72.6 Q13 72.7 13.95 73.65 M13.95 56.85 Q16 59.35 13.95 61.85 11.45 63.95 8.95 61.85 6.85 59.35 8.95 56.85 11.45 54.8 13.95 56.85 M9.2 39.9 Q11.75 37.8 14.25 39.9 16.3 42.4 14.25 44.9 11.7 46.95 9.2 44.9 7.15 42.4 9.2 39.9 M78.85 89.25 L75.15 91.4 Q75.4 90.75 75.9 90.25 77.2 89.05 78.85 89.25 M61.25 96.05 Q60.2 95.85 59.4 95.1 57.35 92.55 59.4 90.05 61.9 88 64.4 90.05 66.5 92.6 64.4 95.1 L63.9 95.5 61.25 96.05 M47.4 95.3 Q46.8 95.95 46 96.2 L42.65 95.55 42.4 95.3 Q40.3 92.8 42.4 90.3 44.9 88.25 47.4 90.3 49.5 92.8 47.4 95.3 M27.75 89.35 Q29.4 89.15 30.7 90.35 L31.45 91.45 Q29.5 90.5 27.75 89.35"/>
  </g>
</svg>