<svg width="100.9px" height="107.15px" viewBox="0 0 100.9 107.15" xmlns="http://www.w3.org/2000/svg" xmlns:xlink="http://www.w3.org/1999/xlink">
  <defs>
    <linearGradient gradientUnits="userSpaceOnUse" x1="-819.2" x2="819.2" spreadMethod="pad" gradientTransform="matrix(0 0.2433319091796875 -0.2433319091796875 0 51.7 505.45)" id="gradient0">
      <stop offset="0"/>
      <stop offset="1" stop-color="#005591"/>
    </linearGradient>
  </defs>
  <g>
    <path stroke="none" fill="url(#gradient0)" d="M86.3 20.35 Q95.9 29.2 100.1 42 101.55 46.7 100.35 51.4 98.35 58.05 92.65 61.3 87 64.55 80.25 62.9 71.8 60.3 68.9 52 65.75 42.75 56.3 40.25 L50.7 39.9 55.9 41.1 55.95 41.15 Q64.7 43.6 67.55 52.15 69.6 61.05 63.9 68.2 61.1 71.25 56.85 72.55 52.6 73.9 48.55 73.1 L48.55 73.05 43.4 71.9 Q45.8 73.35 48.6 74 58.2 75.9 65.05 68.95 71.25 62.7 80 64.05 86.8 65.5 90.5 70.85 94.2 76.25 93.1 83.1 92.15 87.9 88.8 91.5 79.45 101.2 66.95 105 54.5 108.8 41.3 105.9 20.7 100.65 10.1 83.8 -0.5 66.9 3.7 46.1 L3.75 46 3.75 45.95 Q9 25.35 25.9 14.75 42.75 4.15 63.6 8.35 76.75 11.5 86.3 20.35"/>
    <path stroke="none" fill="#aa4e10" d="M83.8 13.2 Q93.4 22.05 97.6 34.85 99.1 39.55 97.85 44.25 95.85 50.9 90.15 54.15 84.5 57.4 77.75 55.75 69.3 53.15 66.4 44.85 63.25 35.6 53.8 33.1 L48.2 32.75 53.4 33.95 53.45 34 Q62.2 36.45 65.05 45 67.1 53.9 61.4 61.05 58.6 64.1 54.35 65.4 50.1 66.75 46.05 65.95 L46.05 65.9 40.9 64.75 Q43.3 66.2 46.1 66.85 55.7 68.75 62.55 61.8 68.75 55.55 77.5 56.9 84.3 58.35 88 63.7 91.7 69.1 90.6 75.95 89.65 80.75 86.3 84.35 76.95 94.05 64.45 97.85 52 101.65 38.8 98.75 18.2 93.5 7.6 76.65 -3 59.75 1.2 38.95 L1.25 38.85 1.25 38.8 Q6.5 18.2 23.4 7.6 40.25 -3 61.1 1.2 74.25 4.35 83.8 13.2"/>
    <path stroke="none" fill="#f391bc" d="M60.55 3.45 Q73.5 6.55 82.55 15.15 91.55 23.7 95.4 35.55 96.7 39.6 95.6 43.7 93.9 49.45 89 52.25 84.15 55 78.3 53.6 71.05 51.35 68.55 44.2 65.2 33.95 54.3 30.95 46.35 29.3 39.9 33.25 L52.85 36.2 Q60.35 38.3 62.85 45.65 64.6 53.4 59.65 59.55 57.15 62.25 53.45 63.35 L46.5 63.75 33.6 60.8 Q37.75 67.1 45.55 69.1 56.7 71.15 64.2 63.4 69.55 58 77.05 59.15 82.9 60.4 86.1 65 89.3 69.65 88.35 75.55 87.5 79.75 84.6 82.8 76 91.8 64.15 95.6 52.25 99.4 39.3 96.6 19.65 91.55 9.5 75.45 -0.6 59.35 3.4 39.45 L3.4 39.4 3.45 39.35 Q8.45 19.7 24.55 9.55 40.7 -0.55 60.55 3.45"/>
    <path stroke="none" fill="#ffcb05" d="M63.4 4.2 L57.05 31.8 Q55.75 31.25 54.25 30.95 L51.85 30.55 58.15 2.95 60.55 3.45 63.4 4.2 M82.6 15.2 L74.25 51.75 Q71.5 49.9 69.85 47.05 L78 11.4 82.6 15.2 M72.6 59.05 L64.25 95.55 58.4 97 66.55 61.35 Q69.3 59.5 72.6 59.05 M94.7 33.5 L95.4 35.55 Q96.7 39.6 95.6 43.7 94.25 48.35 90.65 51.15 L94.7 33.5 M41.9 2.95 L22.25 88.95 Q19.8 87.2 17.6 85.2 L36.1 4.3 Q38.95 3.45 41.9 2.95 M17.4 15.05 L5.45 67.35 Q3.3 61.9 2.55 55.95 L9.8 24.1 Q13.1 19.1 17.4 15.05 M55.8 37.35 L49.7 63.95 46.5 63.75 44.4 63.25 50.65 35.7 52.8 36.2 55.8 37.35 M38.4 65.85 L31.9 94.25 Q29.35 93.25 26.95 91.9 L33.95 61.3 Q35.8 63.95 38.4 65.85 M47.4 97.7 L53.9 69.2 Q57.15 68.5 59.95 66.8 L52.9 97.7 47.4 97.7"/>
    <path stroke="none" fill="#f9cbdf" d="M69.45 6.4 L51.25 2.25 Q55.9 2.4 60.55 3.45 65.2 4.5 69.45 6.4 M65.45 38.1 Q61.35 32.65 54.25 30.9 47.15 29.45 41.05 32.55 L9.1 25.25 Q10.6 22.75 12.4 20.5 L96.1 39.6 Q96.15 41.65 95.6 43.7 L95.2 44.9 65.45 38.1 M60.35 58.7 L2.4 45.45 3.25 40.15 62.7 53.75 Q61.95 56.45 60.35 58.7 M94.85 33.95 L16.4 16.05 Q18.75 13.65 21.45 11.7 L92.2 27.85 Q93.75 30.8 94.85 33.95 M81.95 85.4 L5.7 67.95 Q4.5 65.05 3.7 62 L86.15 80.85 84.6 82.8 81.95 85.4 M20.45 87.55 L60.15 96.65 Q50 98.9 39.25 96.55 28.55 94 20.45 87.55"/>
    <path stroke="none" fill="#fff9ae" d="M60.85 15.3 L55.6 14.1 56.8 8.9 62.05 10.1 60.85 15.3 M58.45 25.65 L53.25 24.45 54.45 19.2 59.65 20.4 58.45 25.65 M64.75 21.6 L70 22.8 68.8 28 63.6 26.8 64.75 21.6 M72.35 12.45 L71.15 17.65 65.95 16.5 67.15 11.25 72.35 12.45 M80.35 25.15 L79.15 30.35 73.9 29.2 75.1 23.95 80.35 25.15 M87.1 43.05 L81.9 41.85 83.1 36.65 88.3 37.85 87.1 43.05 M84.25 31.55 L85.45 26.3 90.65 27.5 89.5 32.75 84.25 31.55 M85.95 48.15 L84.75 53.4 79.5 52.2 80.7 47 85.95 48.15 M77.95 35.5 L76.8 40.7 71.55 39.5 72.75 34.3 77.95 35.5 M64.45 70.5 L65.65 65.3 70.9 66.5 69.7 71.7 64.45 70.5 M76 67.65 L81.2 68.85 80.05 74.05 74.8 72.9 76 67.65 M60.95 85.95 L66.15 87.15 64.95 92.4 59.75 91.2 60.95 85.95 M62.1 80.85 L63.3 75.6 68.55 76.8 67.35 82.05 62.1 80.85 M72.45 83.2 L73.65 78 78.85 79.2 77.65 84.4 72.45 83.2 M36.65 26.05 L35.45 31.25 30.2 30.05 31.4 24.85 36.65 26.05 M27.45 18.55 L22.25 17.35 23.45 12.15 28.65 13.35 27.45 18.55 M26.3 23.65 L25.1 28.9 19.85 27.7 21.05 22.45 26.3 23.65 M33.75 14.5 L39 15.7 37.8 20.9 32.55 19.75 33.75 14.5 M50.5 12.95 L45.25 11.75 46.45 6.55 51.7 7.7 50.5 12.95 M44.1 16.85 L49.35 18.05 48.15 23.3 42.9 22.1 44.1 16.85 M44.6 38.75 L43.4 43.95 38.2 42.75 39.4 37.55 44.6 38.75 M49.7 39.9 L54.95 41.1 53.75 46.3 48.5 45.1 49.7 39.9 M52.6 51.4 L51.4 56.65 46.15 55.45 47.35 50.25 52.6 51.4 M34.25 36.35 L33.1 41.6 27.85 40.4 29.05 35.15 34.25 36.35 M17.5 38.05 L18.7 32.8 23.95 34 22.75 39.25 17.5 38.05 M20.4 49.55 L15.15 48.35 16.35 43.15 21.6 44.35 20.4 49.55 M26.7 45.5 L31.9 46.7 30.7 51.95 25.5 50.75 26.7 45.5 M34.65 58.2 L39.9 59.4 39.25 62.05 34.05 60.85 34.65 58.2 M28.35 62.25 L23.1 61.05 24.3 55.85 29.55 57.05 28.35 62.25 M18 59.9 L12.8 58.7 14 53.5 19.2 54.65 18 59.9 M20.75 71.4 L21.95 66.15 27.2 67.35 26 72.6 20.75 71.4 M32.3 68.55 L37.5 69.75 36.35 74.95 31.1 73.75 32.3 68.55 M47.85 72.1 L46.65 77.3 41.45 76.15 42.65 70.9 47.85 72.1 M37 47.85 L42.25 49.05 41.05 54.3 35.8 53.1 37 47.85 M12.4 36.85 L7.2 35.7 8.35 30.45 13.6 31.65 12.4 36.85 M6 40.8 L11.25 42 10.05 47.2 4.8 46 6 40.8 M15.65 70.25 L10.45 69.05 11.6 63.8 16.85 65 15.65 70.25 M51.75 78.5 L52.95 73.25 58.2 74.45 57 79.7 51.75 78.5 M55.85 84.8 L54.65 90 49.4 88.8 50.6 83.6 55.85 84.8 M40.25 81.25 L45.5 82.45 44.3 87.65 39.05 86.45 40.25 81.25 M24.85 77.7 L23.65 82.95 18.4 81.75 19.6 76.5 24.85 77.7 M28.75 84.1 L29.95 78.85 35.15 80.05 33.95 85.3 28.75 84.1"/>
  </g>
</svg>