<svg width="83.05px" height="110.25px" viewBox="0 0 83.05 110.25" xmlns="http://www.w3.org/2000/svg" xmlns:xlink="http://www.w3.org/1999/xlink">
  <defs>
    <linearGradient gradientUnits="userSpaceOnUse" x1="-819.2" x2="819.2" spreadMethod="pad" gradientTransform="matrix(0 -0.00177001953125 0.00177001953125 0 41.75 108.35)" id="gradient0">
      <stop offset="0.00392156862745098" stop-color="#dd000e"/>
      <stop offset="1" stop-color="#aa0011"/>
    </linearGradient>
    <linearGradient gradientUnits="userSpaceOnUse" x1="-819.2" x2="819.2" spreadMethod="pad" gradientTransform="matrix(0 -0.0380401611328125 0.0380401611328125 0 41.5 81.1)" id="gradient1">
      <stop offset="0.00392156862745098" stop-color="#dd000e"/>
      <stop offset="1" stop-color="#aa0011"/>
    </linearGradient>
    <linearGradient gradientUnits="userSpaceOnUse" x1="-819.2" x2="819.2" spreadMethod="pad" gradientTransform="matrix(0 -0.00140380859375 0.00140380859375 0 41.5 105.3)" id="gradient2">
      <stop offset="0.00392156862745098" stop-color="#dd000e"/>
      <stop offset="1" stop-color="#aa0011"/>
    </linearGradient>
    <linearGradient gradientUnits="userSpaceOnUse" x1="-819.2" x2="819.2" spreadMethod="pad" gradientTransform="matrix(0 -0.042236328125 0.042236328125 0 49 44.9)" id="gradient3">
      <stop offset="0.00392156862745098" stop-color="#dd000e"/>
      <stop offset="1" stop-color="#aa0011"/>
    </linearGradient>
    <linearGradient gradientUnits="userSpaceOnUse" x1="-819.2" x2="819.2" spreadMethod="pad" gradientTransform="matrix(0 0.0330047607421875 -0.0330047607421875 0 42.05 35.65)" id="gradient4">
      <stop offset="0" stop-color="#f9d4d6"/>
      <stop offset="0.4196078431372549" stop-color="#dd000e"/>
      <stop offset="1" stop-color="#c30010"/>
    </linearGradient>
  </defs>
  <g>
    <path stroke="none" fill="url(#gradient0)" d="M39.85 107.05 L40.9 105.9 Q45.3 108.2 44.65 109 42.25 110.55 40.6 110.2 L38.85 109.7 Q39 108.15 39.85 107.05"/>
    <path stroke="none" fill="url(#gradient1)" d="M62.85 6.2 Q72.2 12.3 77.2 22.35 77.65 22.6 80.45 30.2 83.3 37.8 83 50.1 82.65 62.35 73.65 76.55 64.65 90.75 41.5 104.2 18.35 90.8 9.35 76.55 0.4 62.35 0.05 50.1 -0.25 37.8 2.55 30.2 5.4 22.6 5.85 22.35 10.8 12.3 20.2 6.2 29.6 0.15 41.5 0 53.45 0.15 62.85 6.2"/>
    <path stroke="none" fill="url(#gradient2)" d="M41.5 106.5 Q39.7 106.35 39.55 104.75 39.7 103.1 41.5 102.95 43.25 103.1 43.4 104.75 43.25 106.35 41.5 106.5"/>
    <path stroke="none" fill="url(#gradient3)" d="M76.8 22.3 Q77.6 22.7 81.05 33.5 84.5 44.3 80.75 60.65 76.25 70.6 68.2 76.55 60.15 82.45 50 82.6 35.25 82.2 25.45 70.6 15.6 59 15.25 41.55 15.6 24.7 24.8 13.25 34.05 1.8 48.1 0.55 67.9 4.7 76.8 22.3"/>
    <path stroke="none" fill="url(#gradient4)" d="M59 47.1 Q52.25 54.1 42.05 54.35 31.8 54.1 25.05 47.1 18.25 40.1 18 29.5 18.25 18.95 25.05 11.95 31.8 4.95 42.05 4.7 52.25 4.95 59 11.95 65.8 19 66.05 29.5 65.8 40.05 59 47.1"/>
    <path stroke="none" fill="#aa0011" d="M40.55 57.75 L43.45 56.85 40.55 57.35 40.55 57.75 M66.6 36.5 Q66.6 41.3 62.3 45.25 68.4 50.15 67.8 55.35 67.75 64.65 58.4 70 50.95 74.25 41.75 74.25 L40.3 74.25 39.5 72.75 21.8 72.75 21.8 44.55 17.3 45.5 14.9 26.9 17 26.4 Q31.15 22.85 43.6 22.85 51.2 22.85 57.35 25.25 62.95 27.6 64.85 30.7 66.75 33.8 66.6 36.5"/>
    <path stroke="none" fill="#ffffff" d="M64.2 36.5 Q64.2 41.6 57.7 45.7 65.4 48.5 65.4 55.35 65.4 63.25 57.2 67.9 50.35 71.75 41.8 71.8 L38.15 65 38.15 70.3 24.3 70.3 24.3 41.5 19.4 42.55 17.65 28.75 Q31.5 25.3 43.65 25.3 50.8 25.3 56.45 27.5 64.2 30.55 64.2 36.5 M46.6 40.25 L46.45 39.95 Q45.5 39.2 42.05 39.2 L38.15 39.35 38.15 44.65 Q46.6 43.45 46.6 40.25 M49.1 55.2 L48.9 54.7 Q48.15 54.15 46.25 54.15 43.05 54.2 38.15 55.35 L38.15 60.8 Q41.65 60.15 44.6 59.05 49.1 57.25 49.1 55.2"/>
  </g>
</svg>