<svg width="83.05px" height="106.5px" viewBox="0 0 83.05 106.5" xmlns="http://www.w3.org/2000/svg" xmlns:xlink="http://www.w3.org/1999/xlink">
  <defs>
    <linearGradient gradientUnits="userSpaceOnUse" x1="-819.2" x2="819.2" spreadMethod="pad" gradientTransform="matrix(0 -0.0380401611328125 0.0380401611328125 0 41.5 81.1)" id="gradient0">
      <stop offset="0" stop-color="#69c8e2"/>
      <stop offset="0.21176470588235294" stop-color="#58bad4"/>
      <stop offset="1" stop-color="#1a87a0"/>
    </linearGradient>
    <linearGradient gradientUnits="userSpaceOnUse" x1="-819.2" x2="819.2" spreadMethod="pad" gradientTransform="matrix(0 -0.00140380859375 0.00140380859375 0 41.55 105.3)" id="gradient1">
      <stop offset="0" stop-color="#69c8e2"/>
      <stop offset="0.21176470588235294" stop-color="#58bad4"/>
      <stop offset="1" stop-color="#1a87a0"/>
    </linearGradient>
    <linearGradient gradientUnits="userSpaceOnUse" x1="-819.2" x2="819.2" spreadMethod="pad" gradientTransform="matrix(0 -0.042236328125 0.042236328125 0 49 44.9)" id="gradient2">
      <stop offset="0" stop-color="#69c8e2"/>
      <stop offset="1" stop-color="#1a87a0"/>
    </linearGradient>
    <linearGradient gradientUnits="userSpaceOnUse" x1="-819.2" x2="819.2" spreadMethod="pad" gradientTransform="matrix(0 0.0330047607421875 -0.0330047607421875 0 42.1 35.65)" id="gradient3">
      <stop offset="0" stop-color="#edf8fc"/>
      <stop offset="0.4549019607843137" stop-color="#69c8e2"/>
      <stop offset="1" stop-color="#47acc6"/>
    </linearGradient>
  </defs>
  <g>
    <path stroke="none" fill="url(#gradient0)" d="M77.2 22.35 Q77.65 22.6 80.5 30.2 83.3 37.8 83 50.1 82.65 62.35 73.65 76.55 64.65 90.75 41.5 104.2 18.35 90.8 9.35 76.55 0.4 62.35 0.05 50.1 -0.25 37.8 2.55 30.2 5.4 22.6 5.85 22.35 10.8 12.3 20.2 6.2 29.6 0.15 41.5 0 53.45 0.15 62.85 6.2 72.2 12.3 77.2 22.35"/>
    <path stroke="none" fill="url(#gradient1)" d="M41.55 106.5 Q39.75 106.35 39.6 104.75 39.75 103.1 41.55 102.95 43.3 103.1 43.45 104.75 43.3 106.35 41.55 106.5"/>
    <path stroke="none" fill="url(#gradient2)" d="M76.8 22.3 Q77.6 22.7 81.05 33.5 84.5 44.3 80.75 60.65 76.25 70.6 68.2 76.55 60.15 82.45 50 82.6 35.25 82.2 25.45 70.6 15.6 59 15.25 41.55 15.6 24.7 24.8 13.25 34.05 1.8 48.1 0.55 67.9 4.7 76.8 22.3"/>
    <path stroke="none" fill="url(#gradient3)" d="M59.05 11.95 Q65.85 19 66.1 29.5 65.85 40.05 59.05 47.1 52.3 54.1 42.05 54.35 31.85 54.1 25.1 47.1 18.3 40.1 18.05 29.5 18.3 18.95 25.1 11.95 31.85 4.95 42.05 4.7 52.3 4.95 59.05 11.95"/>
    <path stroke="none" fill="#1a87a0" d="M48 22.75 Q56.05 22.75 61.05 24.7 L62.9 25.4 59.5 44.45 56.95 43.8 Q51.5 42.5 50.3 42.6 45.1 42.6 41.8 44.9 38.4 47.25 38.45 51.7 38.45 53.8 39.7 55 41.05 56.3 43.2 56.25 49.4 56.3 54.35 49.55 L56.9 46.05 64.5 63.8 63.5 64.95 Q55.6 74.1 43.05 74.15 32.75 74.15 25.85 67.6 18.95 61 18.95 50.6 18.95 38.85 27.75 30.7 36.3 22.75 48 22.75"/>
    <path stroke="none" fill="#ffffff" d="M40.4 42.9 Q36 45.95 36 51.7 36 54.8 38 56.75 40.05 58.7 43.2 58.7 50.65 58.7 56.3 51 L61.6 63.35 Q54.5 71.7 43.05 71.7 33.7 71.65 27.55 65.8 21.4 59.95 21.4 50.6 21.4 39.95 29.45 32.5 37.25 25.2 48 25.2 55.55 25.2 60.15 26.95 L57.55 41.4 Q52.7 40.15 50.25 40.15 44.3 40.15 40.4 42.9"/>
  </g>
</svg>