<svg width="83.05px" height="110.25px" viewBox="0 0 83.05 110.25" xmlns="http://www.w3.org/2000/svg" xmlns:xlink="http://www.w3.org/1999/xlink">
  <defs>
    <linearGradient gradientUnits="userSpaceOnUse" x1="-819.2" x2="819.2" spreadMethod="pad" gradientTransform="matrix(0 -0.00177001953125 0.00177001953125 0 41.8 108.35)" id="gradient0">
      <stop offset="0" stop-color="#abf900"/>
      <stop offset="1" stop-color="#517f00"/>
    </linearGradient>
    <linearGradient gradientUnits="userSpaceOnUse" x1="-819.2" x2="819.2" spreadMethod="pad" gradientTransform="matrix(0 -0.0380401611328125 0.0380401611328125 0 41.5 81.1)" id="gradient1">
      <stop offset="0" stop-color="#abf900"/>
      <stop offset="1" stop-color="#517f00"/>
    </linearGradient>
    <linearGradient gradientUnits="userSpaceOnUse" x1="-819.2" x2="819.2" spreadMethod="pad" gradientTransform="matrix(0 -0.00140380859375 0.00140380859375 0 41.55 105.3)" id="gradient2">
      <stop offset="0" stop-color="#abf900"/>
      <stop offset="1" stop-color="#517f00"/>
    </linearGradient>
    <linearGradient gradientUnits="userSpaceOnUse" x1="-819.2" x2="819.2" spreadMethod="pad" gradientTransform="matrix(0 -0.042236328125 0.042236328125 0 49 44.9)" id="gradient3">
      <stop offset="0" stop-color="#abf900"/>
      <stop offset="1" stop-color="#517f00"/>
    </linearGradient>
    <linearGradient gradientUnits="userSpaceOnUse" x1="-819.2" x2="819.2" spreadMethod="pad" gradientTransform="matrix(0 0.0330047607421875 -0.0330047607421875 0 42.1 35.65)" id="gradient4">
      <stop offset="0" stop-color="#ffffff"/>
      <stop offset="0.42745098039215684" stop-color="#abf900"/>
      <stop offset="1" stop-color="#79b500"/>
    </linearGradient>
  </defs>
  <g>
    <path stroke="none" fill="url(#gradient0)" d="M39.9 107.05 L40.95 105.9 Q45.35 108.2 44.7 109 42.3 110.55 40.65 110.2 L38.9 109.7 Q39.05 108.15 39.9 107.05"/>
    <path stroke="none" fill="url(#gradient1)" d="M77.2 22.35 Q77.65 22.6 80.45 30.2 83.3 37.8 83 50.1 82.65 62.35 73.65 76.55 64.65 90.75 41.5 104.2 18.35 90.8 9.35 76.55 0.4 62.35 0.05 50.1 -0.25 37.8 2.55 30.2 5.4 22.6 5.85 22.35 10.8 12.3 20.2 6.2 29.6 0.15 41.5 0 53.45 0.15 62.85 6.2 72.2 12.3 77.2 22.35"/>
    <path stroke="none" fill="url(#gradient2)" d="M41.55 106.5 Q39.75 106.35 39.6 104.75 39.75 103.1 41.55 102.95 43.3 103.1 43.45 104.75 43.3 106.35 41.55 106.5"/>
    <path stroke="none" fill="url(#gradient3)" d="M76.8 22.3 Q77.6 22.7 81.05 33.5 84.5 44.3 80.75 60.65 76.25 70.6 68.2 76.55 60.15 82.45 50 82.6 35.25 82.2 25.45 70.6 15.6 59 15.25 41.55 15.6 24.7 24.8 13.25 34.05 1.8 48.1 0.55 67.9 4.7 76.8 22.3"/>
    <path stroke="none" fill="url(#gradient4)" d="M59.05 11.95 Q65.85 19 66.1 29.5 65.85 40.05 59.05 47.1 52.3 54.1 42.1 54.35 31.85 54.1 25.1 47.1 18.3 40.1 18.05 29.5 18.3 18.95 25.1 11.95 31.85 4.95 42.1 4.7 52.3 4.95 59.05 11.95"/>
    <path stroke="none" fill="#517f00" d="M45.8 42.95 Q44 41.85 41.35 41.75 L41.9 56.6 Q43.5 55.5 45 53.4 47.6 49.65 47.55 45.95 47.6 44 45.8 42.95 M39.1 23.45 Q51.55 23.45 58.8 28.7 67.2 35 67.2 47.4 67.2 56.4 60.1 65.1 52.65 74.1 43.75 75 L42 75.15 40.95 72.75 24.2 73.2 24 70.9 Q23.15 59.9 22.55 45.05 L19 45.95 15.45 28 17.45 27.3 Q28.15 23.45 39.1 23.45"/>
    <path stroke="none" fill="#ffffff" d="M64.8 47.4 Q64.75 55.5 58.2 63.55 51.45 71.8 43.55 72.55 L39.8 64.05 40.2 70.3 26.5 70.7 Q25.5 58.7 24.95 41.9 L20.95 42.9 18.3 29.6 Q28.6 25.9 39.15 25.9 50.8 25.9 57.35 30.7 64.8 36.2 64.8 47.4 M38.85 39.4 L39.6 60.15 Q43.85 59.4 47.05 54.8 50.05 50.4 50.05 45.95 50.05 42.6 47.1 40.85 44.6 39.3 41.05 39.3 L38.85 39.4"/>
  </g>
</svg>