<svg width="83.05px" height="110.3px" viewBox="0 0 83.05 110.3" xmlns="http://www.w3.org/2000/svg" xmlns:xlink="http://www.w3.org/1999/xlink">
  <defs>
    <linearGradient gradientUnits="userSpaceOnUse" x1="-819.2" x2="819.2" spreadMethod="pad" gradientTransform="matrix(0 -0.00177001953125 0.00177001953125 0 41.75 108.4)" id="gradient0">
      <stop offset="0" stop-color="#ffe66d"/>
      <stop offset="0.30196078431372547" stop-color="#ffd400"/>
      <stop offset="1" stop-color="#e28100"/>
    </linearGradient>
    <linearGradient gradientUnits="userSpaceOnUse" x1="-819.2" x2="819.2" spreadMethod="pad" gradientTransform="matrix(0 -0.0380401611328125 0.0380401611328125 0 41.5 81.1)" id="gradient1">
      <stop offset="0" stop-color="#ffe66d"/>
      <stop offset="0.30196078431372547" stop-color="#ffd400"/>
      <stop offset="1" stop-color="#e28100"/>
    </linearGradient>
    <linearGradient gradientUnits="userSpaceOnUse" x1="-819.2" x2="819.2" spreadMethod="pad" gradientTransform="matrix(0 -0.00140380859375 0.00140380859375 0 41.5 105.3)" id="gradient2">
      <stop offset="0" stop-color="#ffe66d"/>
      <stop offset="0.30196078431372547" stop-color="#ffd400"/>
      <stop offset="1" stop-color="#e28100"/>
    </linearGradient>
    <linearGradient gradientUnits="userSpaceOnUse" x1="-819.2" x2="819.2" spreadMethod="pad" gradientTransform="matrix(0 -0.042236328125 0.042236328125 0 49 44.9)" id="gradient3">
      <stop offset="0" stop-color="#ffe66d"/>
      <stop offset="0.30196078431372547" stop-color="#ffd400"/>
      <stop offset="1" stop-color="#e28100"/>
    </linearGradient>
    <linearGradient gradientUnits="userSpaceOnUse" x1="-819.2" x2="819.2" spreadMethod="pad" gradientTransform="matrix(0 0.0330047607421875 -0.0330047607421875 0 42.05 35.7)" id="gradient4">
      <stop offset="0" stop-color="#fffae2"/>
      <stop offset="0.48627450980392156" stop-color="#ffd400"/>
      <stop offset="1" stop-color="#f9c300"/>
    </linearGradient>
  </defs>
  <g>
    <path stroke="none" fill="url(#gradient0)" d="M44.65 109.05 Q42.25 110.6 40.6 110.25 L38.85 109.75 Q39 108.2 39.85 107.1 L40.9 105.95 Q45.3 108.25 44.65 109.05"/>
    <path stroke="none" fill="url(#gradient1)" d="M62.85 6.2 Q72.2 12.3 77.2 22.35 77.65 22.6 80.5 30.2 83.3 37.8 83 50.1 82.65 62.35 73.65 76.55 64.65 90.75 41.5 104.2 18.35 90.8 9.35 76.55 0.4 62.35 0.05 50.1 -0.25 37.8 2.55 30.2 5.4 22.6 5.85 22.35 10.8 12.3 20.2 6.2 29.6 0.15 41.5 0 53.45 0.15 62.85 6.2"/>
    <path stroke="none" fill="url(#gradient2)" d="M41.5 106.5 Q39.7 106.35 39.55 104.75 39.7 103.1 41.5 102.95 43.25 103.1 43.4 104.75 43.25 106.35 41.5 106.5"/>
    <path stroke="none" fill="url(#gradient3)" d="M48.1 0.55 Q67.9 4.7 76.8 22.3 77.6 22.7 81.05 33.5 84.5 44.3 80.75 60.65 76.25 70.6 68.2 76.55 60.15 82.45 50 82.6 35.25 82.2 25.45 70.6 15.6 59 15.25 41.55 15.6 24.7 24.8 13.25 34.05 1.8 48.1 0.55"/>
    <path stroke="none" fill="url(#gradient4)" d="M59 12 Q65.8 19.05 66.05 29.6 65.8 40.15 59 47.15 52.25 54.15 42 54.4 31.8 54.15 25.05 47.15 18.25 40.15 18 29.6 18.25 19.05 25.05 12 31.8 5 42 4.75 52.25 5 59 12"/>
    <path stroke="none" fill="#e28100" d="M38.85 63.9 L38.75 71.95 21.05 72.05 19.75 25.3 39.25 24.6 39.05 48.4 44 48.35 43.75 24.6 63.25 25.3 61.95 72.05 44.2 71.95 44.15 63.7 38.85 63.9"/>
    <path stroke="none" fill="#ffffff" d="M22.25 27.65 L36.75 27.15 36.55 50.85 46.5 50.8 46.2 27.15 60.7 27.65 59.5 69.6 46.65 69.5 46.55 61.2 36.4 61.55 36.3 69.5 23.45 69.6 22.25 27.65"/>
  </g>
</svg>