<svg width="83.05px" height="110.25px" viewBox="0 0 83.05 110.25" xmlns="http://www.w3.org/2000/svg" xmlns:xlink="http://www.w3.org/1999/xlink">
  <defs>
    <linearGradient gradientUnits="userSpaceOnUse" x1="-819.2" x2="819.2" spreadMethod="pad" gradientTransform="matrix(0 -0.00177001953125 0.00177001953125 0 41.75 108.35)" id="gradient0">
      <stop offset="0" stop-color="#69c8e2"/>
      <stop offset="0.21176470588235294" stop-color="#58bad4"/>
      <stop offset="1" stop-color="#1a87a0"/>
    </linearGradient>
    <linearGradient gradientUnits="userSpaceOnUse" x1="-819.2" x2="819.2" spreadMethod="pad" gradientTransform="matrix(0 -0.0380401611328125 0.0380401611328125 0 41.5 81.1)" id="gradient1">
      <stop offset="0" stop-color="#69c8e2"/>
      <stop offset="0.21176470588235294" stop-color="#58bad4"/>
      <stop offset="1" stop-color="#1a87a0"/>
    </linearGradient>
    <linearGradient gradientUnits="userSpaceOnUse" x1="-819.2" x2="819.2" spreadMethod="pad" gradientTransform="matrix(0 -0.00140380859375 0.00140380859375 0 41.5 105.3)" id="gradient2">
      <stop offset="0" stop-color="#69c8e2"/>
      <stop offset="0.21176470588235294" stop-color="#58bad4"/>
      <stop offset="1" stop-color="#1a87a0"/>
    </linearGradient>
    <linearGradient gradientUnits="userSpaceOnUse" x1="-819.2" x2="819.2" spreadMethod="pad" gradientTransform="matrix(0 -0.042236328125 0.042236328125 0 49 44.9)" id="gradient3">
      <stop offset="0" stop-color="#69c8e2"/>
      <stop offset="1" stop-color="#1a87a0"/>
    </linearGradient>
    <linearGradient gradientUnits="userSpaceOnUse" x1="-819.2" x2="819.2" spreadMethod="pad" gradientTransform="matrix(0 0.0330047607421875 -0.0330047607421875 0 42.05 35.7)" id="gradient4">
      <stop offset="0" stop-color="#edf8fc"/>
      <stop offset="0.4549019607843137" stop-color="#69c8e2"/>
      <stop offset="1" stop-color="#47acc6"/>
    </linearGradient>
  </defs>
  <g>
    <path stroke="none" fill="url(#gradient0)" d="M38.85 109.7 Q39 108.15 39.85 107.05 L40.9 105.9 Q45.3 108.2 44.65 109 42.25 110.55 40.6 110.2 L38.85 109.7"/>
    <path stroke="none" fill="url(#gradient1)" d="M5.85 22.35 Q10.8 12.3 20.2 6.2 29.6 0.15 41.5 0 53.45 0.15 62.85 6.2 72.2 12.3 77.2 22.35 77.65 22.6 80.5 30.2 83.3 37.8 83 50.1 82.65 62.35 73.65 76.55 64.65 90.75 41.5 104.2 18.35 90.8 9.35 76.55 0.4 62.35 0.05 50.1 -0.25 37.8 2.55 30.2 5.4 22.6 5.85 22.35"/>
    <path stroke="none" fill="url(#gradient2)" d="M41.5 106.5 Q39.7 106.35 39.55 104.75 39.7 103.1 41.5 102.95 43.25 103.1 43.4 104.75 43.25 106.35 41.5 106.5"/>
    <path stroke="none" fill="url(#gradient3)" d="M15.25 41.55 Q15.6 24.7 24.8 13.25 34.05 1.8 48.1 0.55 67.9 4.7 76.8 22.3 77.6 22.7 81.05 33.5 84.5 44.3 80.75 60.65 76.25 70.6 68.2 76.55 60.15 82.45 50 82.6 35.25 82.2 25.45 70.6 15.6 59 15.25 41.55"/>
    <path stroke="none" fill="url(#gradient4)" d="M25.05 12 Q31.8 5 42 4.75 52.25 5 59 12 65.8 19.05 66.05 29.6 65.8 40.15 59 47.15 52.25 54.15 42 54.4 31.8 54.15 25.05 47.15 18.25 40.15 18 29.6 18.25 19.05 25.05 12"/>
    <path stroke="none" fill="#1a87a0" d="M46 42.25 L45.95 42.2 Q44.2 39.65 41.5 39.65 38.85 39.65 37 42.25 35.1 44.85 35.1 48.1 35.1 51.45 37 54.05 38.85 56.6 41.5 56.55 44.2 56.6 46 54.05 47.9 51.45 47.9 48.1 47.9 44.85 46 42.25 M41.5 22.3 Q52 22.3 59.15 30 66.2 37.65 66.2 48.1 66.2 58.55 59.2 66.1 52 73.95 41.5 74 31 73.95 23.8 66.15 16.8 58.55 16.8 48.1 16.8 37.65 23.85 30 31 22.3 41.5 22.3"/>
    <path stroke="none" fill="#ffffff" d="M41.5 37.2 Q37.6 37.2 35 40.8 32.65 44.05 32.65 48.1 32.65 52.25 35 55.45 37.6 59 41.5 59 45.45 59 48 55.45 50.35 52.25 50.35 48.1 50.35 44.05 48 40.8 45.45 37.2 41.5 37.2 M57.35 31.65 Q63.75 38.6 63.75 48.1 63.75 57.6 57.4 64.45 50.95 71.55 41.5 71.5 32.05 71.55 25.6 64.45 19.25 57.6 19.25 48.1 19.25 38.6 25.65 31.65 32.05 24.75 41.5 24.75 50.9 24.75 57.35 31.65"/>
  </g>
</svg>