<svg width="83.05px" height="110.25px" viewBox="0 0 83.05 110.25" xmlns="http://www.w3.org/2000/svg" xmlns:xlink="http://www.w3.org/1999/xlink">
  <defs>
    <linearGradient gradientUnits="userSpaceOnUse" x1="-819.2" x2="819.2" spreadMethod="pad" gradientTransform="matrix(0 -0.00177001953125 0.00177001953125 0 41.8 108.35)" id="gradient0">
      <stop offset="0" stop-color="#ffe66d"/>
      <stop offset="0.30196078431372547" stop-color="#ffd400"/>
      <stop offset="1" stop-color="#e28100"/>
    </linearGradient>
    <linearGradient gradientUnits="userSpaceOnUse" x1="-819.2" x2="819.2" spreadMethod="pad" gradientTransform="matrix(0 -0.0380401611328125 0.0380401611328125 0 41.5 81.1)" id="gradient1">
      <stop offset="0" stop-color="#ffe66d"/>
      <stop offset="0.30196078431372547" stop-color="#ffd400"/>
      <stop offset="1" stop-color="#e28100"/>
    </linearGradient>
    <linearGradient gradientUnits="userSpaceOnUse" x1="-819.2" x2="819.2" spreadMethod="pad" gradientTransform="matrix(0 -0.00140380859375 0.00140380859375 0 41.55 105.3)" id="gradient2">
      <stop offset="0" stop-color="#ffe66d"/>
      <stop offset="0.30196078431372547" stop-color="#ffd400"/>
      <stop offset="1" stop-color="#e28100"/>
    </linearGradient>
    <linearGradient gradientUnits="userSpaceOnUse" x1="-819.2" x2="819.2" spreadMethod="pad" gradientTransform="matrix(0 -0.042236328125 0.042236328125 0 49 44.9)" id="gradient3">
      <stop offset="0" stop-color="#ffe66d"/>
      <stop offset="0.30196078431372547" stop-color="#ffd400"/>
      <stop offset="1" stop-color="#e28100"/>
    </linearGradient>
    <linearGradient gradientUnits="userSpaceOnUse" x1="-819.2" x2="819.2" spreadMethod="pad" gradientTransform="matrix(0 0.0330047607421875 -0.0330047607421875 0 42.1 35.7)" id="gradient4">
      <stop offset="0" stop-color="#fffae2"/>
      <stop offset="0.48627450980392156" stop-color="#ffd400"/>
      <stop offset="1" stop-color="#f9c300"/>
    </linearGradient>
  </defs>
  <g>
    <path stroke="none" fill="url(#gradient0)" d="M39.9 107.05 L40.95 105.9 Q45.35 108.2 44.7 109 42.3 110.55 40.65 110.2 L38.9 109.7 Q39.05 108.15 39.9 107.05"/>
    <path stroke="none" fill="url(#gradient1)" d="M41.5 0 Q53.45 0.15 62.85 6.2 72.2 12.3 77.2 22.35 77.65 22.6 80.5 30.2 83.3 37.8 83 50.1 82.65 62.35 73.65 76.55 64.65 90.75 41.5 104.2 18.35 90.8 9.35 76.55 0.4 62.35 0.05 50.1 -0.25 37.8 2.55 30.2 5.4 22.6 5.85 22.35 10.8 12.3 20.2 6.2 29.6 0.15 41.5 0"/>
    <path stroke="none" fill="url(#gradient2)" d="M41.55 106.5 Q39.75 106.35 39.6 104.75 39.75 103.1 41.55 102.95 43.3 103.1 43.45 104.75 43.3 106.35 41.55 106.5"/>
    <path stroke="none" fill="url(#gradient3)" d="M24.8 13.25 Q34.05 1.8 48.1 0.55 67.9 4.7 76.8 22.3 77.6 22.7 81.05 33.5 84.5 44.3 80.75 60.65 76.25 70.6 68.2 76.55 60.15 82.45 50 82.6 35.25 82.2 25.45 70.6 15.6 59 15.25 41.55 15.6 24.7 24.8 13.25"/>
    <path stroke="none" fill="url(#gradient4)" d="M59.05 12 Q65.85 19.05 66.1 29.6 65.85 40.15 59.05 47.15 52.3 54.15 42.05 54.4 31.85 54.15 25.1 47.15 18.3 40.15 18.05 29.6 18.3 19.05 25.1 12 31.85 5 42.05 4.75 52.3 5 59.05 12"/>
    <path stroke="none" fill="#e28100" d="M41.5 38.75 Q38.85 38.75 37 41.35 35.1 43.95 35.1 47.2 35.1 48.7 35.5 50.05 L44.45 43.1 46 44.55 47.85 46.35 Q47.65 43.6 46 41.35 L45.95 41.3 Q44.2 38.75 41.5 38.75 M41.5 21.4 Q52 21.4 59.2 29.25 66.2 36.75 66.2 47.2 66.2 56.4 60.85 63.35 L63.15 67.75 64.05 69.65 51.55 78.05 50.4 75.4 48.75 71.95 Q45.25 73.1 41.5 73.1 31 73.05 23.8 65.25 16.8 57.65 16.8 47.2 16.8 36.75 23.8 29.25 31 21.4 41.5 21.4"/>
    <path stroke="none" fill="#ffffff" d="M35 39.9 Q32.65 43.15 32.65 47.2 32.65 51.35 35 54.55 37.6 58.1 41.5 58.1 L43.05 57.95 38.1 51.1 44.3 46.3 49.5 51.75 Q50.35 49.65 50.35 47.2 50.35 43.15 48 39.9 45.45 36.3 41.5 36.3 37.6 36.3 35 39.9 M41.5 23.85 Q50.9 23.85 57.4 30.9 63.75 37.7 63.75 47.2 63.75 56.4 57.85 63.1 L60.95 68.8 52.6 74.4 49.95 68.85 Q45.9 70.65 41.5 70.6 32.05 70.65 25.6 63.55 19.25 56.7 19.25 47.2 19.25 37.7 25.6 30.9 32.05 23.85 41.5 23.85"/>
  </g>
</svg>