<svg width="83.05px" height="110.25px" viewBox="0 0 83.05 110.25" xmlns="http://www.w3.org/2000/svg" xmlns:xlink="http://www.w3.org/1999/xlink">
  <defs>
    <linearGradient gradientUnits="userSpaceOnUse" x1="-819.2" x2="819.2" spreadMethod="pad" gradientTransform="matrix(0 -0.00177001953125 0.00177001953125 0 41.8 108.35)" id="gradient0">
      <stop offset="0" stop-color="#cc0092"/>
      <stop offset="0.21176470588235294" stop-color="#cc0092"/>
      <stop offset="1" stop-color="#930764"/>
    </linearGradient>
    <linearGradient gradientUnits="userSpaceOnUse" x1="-819.2" x2="819.2" spreadMethod="pad" gradientTransform="matrix(0 -0.0380401611328125 0.0380401611328125 0 41.5 81.1)" id="gradient1">
      <stop offset="0" stop-color="#cc0092"/>
      <stop offset="0.21176470588235294" stop-color="#cc0092"/>
      <stop offset="1" stop-color="#930764"/>
    </linearGradient>
    <linearGradient gradientUnits="userSpaceOnUse" x1="-819.2" x2="819.2" spreadMethod="pad" gradientTransform="matrix(0 -0.00140380859375 0.00140380859375 0 41.55 105.3)" id="gradient2">
      <stop offset="0" stop-color="#cc0092"/>
      <stop offset="0.21176470588235294" stop-color="#cc0092"/>
      <stop offset="1" stop-color="#930764"/>
    </linearGradient>
    <linearGradient gradientUnits="userSpaceOnUse" x1="-819.2" x2="819.2" spreadMethod="pad" gradientTransform="matrix(0 -0.042236328125 0.042236328125 0 49 44.9)" id="gradient3">
      <stop offset="0" stop-color="#cc0092"/>
      <stop offset="0.21176470588235294" stop-color="#cc0092"/>
      <stop offset="1" stop-color="#930764"/>
    </linearGradient>
    <linearGradient gradientUnits="userSpaceOnUse" x1="-819.2" x2="819.2" spreadMethod="pad" gradientTransform="matrix(0 0.0330047607421875 -0.0330047607421875 0 42.1 35.7)" id="gradient4">
      <stop offset="0" stop-color="#ffffff"/>
      <stop offset="0.4549019607843137" stop-color="#cc0092"/>
      <stop offset="1" stop-color="#b80282"/>
    </linearGradient>
  </defs>
  <g>
    <path stroke="none" fill="url(#gradient0)" d="M39.9 107.05 L40.95 105.9 Q45.35 108.2 44.7 109 42.3 110.55 40.65 110.2 L38.9 109.7 Q39.05 108.15 39.9 107.05"/>
    <path stroke="none" fill="url(#gradient1)" d="M20.2 6.2 Q29.6 0.15 41.5 0 53.45 0.15 62.85 6.2 72.2 12.3 77.2 22.35 77.65 22.6 80.45 30.2 83.3 37.8 83 50.1 82.65 62.35 73.65 76.55 64.65 90.75 41.5 104.2 18.35 90.8 9.35 76.55 0.4 62.35 0.05 50.1 -0.25 37.8 2.55 30.2 5.4 22.6 5.85 22.35 10.8 12.3 20.2 6.2"/>
    <path stroke="none" fill="url(#gradient2)" d="M41.55 106.5 Q39.75 106.35 39.6 104.75 39.75 103.1 41.55 102.95 43.3 103.1 43.45 104.75 43.3 106.35 41.55 106.5"/>
    <path stroke="none" fill="url(#gradient3)" d="M15.25 41.55 Q15.6 24.7 24.8 13.25 34.05 1.8 48.1 0.55 67.9 4.7 76.8 22.3 77.6 22.7 81.05 33.5 84.5 44.3 80.75 60.65 76.25 70.6 68.2 76.55 60.15 82.45 50 82.6 35.25 82.2 25.45 70.6 15.6 59 15.25 41.55"/>
    <path stroke="none" fill="url(#gradient4)" d="M25.1 12 Q31.85 5 42.05 4.75 52.3 5 59.05 12 65.85 19.05 66.1 29.6 65.85 40.15 59.05 47.15 52.3 54.15 42.05 54.4 31.85 54.15 25.1 47.15 18.3 40.15 18.05 29.6 18.3 19.05 25.1 12"/>
    <path stroke="none" fill="#930764" d="M44.05 40.5 Q47.5 41.9 50 43.15 46.7 40.65 43.2 40.1 L44.05 40.5 M26.9 25.3 Q32.95 21.3 40.4 21.3 46.55 21.3 52.6 23.85 59.05 26.5 62.9 31.2 L64.2 32.7 54.1 45.3 55.25 46.05 Q62.15 50.75 62.15 57 62.15 65.05 55.85 70.15 50.15 74.75 42.25 74.75 31.1 74.7 20.3 63.15 L18.9 61.6 27.8 50.3 27.15 49.9 Q19.6 45.05 19.6 37.9 19.6 30.2 26.9 25.3"/>
    <path stroke="none" fill="#ffffff" d="M43.1 42.75 Q50.85 46 53.85 48.05 59.7 52.05 59.7 56.95 59.7 63.9 54.3 68.25 49.3 72.3 42.25 72.3 32.15 72.3 22.1 61.45 L30.1 51.35 Q32.65 54.25 36.1 56.4 40.15 58.8 43.5 58.8 46.7 58.8 46.75 57.05 46.7 55.55 40.3 53.15 31.7 49.95 28.45 47.85 22.05 43.7 22.05 37.9 22.05 31.5 28.25 27.35 33.7 23.75 40.4 23.75 46.05 23.75 51.65 26.1 57.55 28.55 61 32.75 L53.15 42.55 Q47.55 37.5 41.3 37.5 37.35 37.55 37.35 39.15 37.4 40.4 43.1 42.75"/>
  </g>
</svg>