<svg width="83.05px" height="110.25px" viewBox="0 0 83.05 110.25" xmlns="http://www.w3.org/2000/svg" xmlns:xlink="http://www.w3.org/1999/xlink">
  <defs>
    <linearGradient gradientUnits="userSpaceOnUse" x1="-819.2" x2="819.2" spreadMethod="pad" gradientTransform="matrix(0 -0.00177001953125 0.00177001953125 0 41.8 108.35)" id="gradient0">
      <stop offset="0" stop-color="#f92169"/>
      <stop offset="1" stop-color="#840033"/>
    </linearGradient>
    <linearGradient gradientUnits="userSpaceOnUse" x1="-819.2" x2="819.2" spreadMethod="pad" gradientTransform="matrix(0 -0.0380401611328125 0.0380401611328125 0 41.5 81.1)" id="gradient1">
      <stop offset="0" stop-color="#f92169"/>
      <stop offset="1" stop-color="#840033"/>
    </linearGradient>
    <linearGradient gradientUnits="userSpaceOnUse" x1="-819.2" x2="819.2" spreadMethod="pad" gradientTransform="matrix(0 -0.00140380859375 0.00140380859375 0 41.55 105.3)" id="gradient2">
      <stop offset="0" stop-color="#f92169"/>
      <stop offset="1" stop-color="#840033"/>
    </linearGradient>
    <linearGradient gradientUnits="userSpaceOnUse" x1="-819.2" x2="819.2" spreadMethod="pad" gradientTransform="matrix(0 -0.042236328125 0.042236328125 0 48.95 44.9)" id="gradient3">
      <stop offset="0" stop-color="#f92169"/>
      <stop offset="1" stop-color="#840033"/>
    </linearGradient>
    <linearGradient gradientUnits="userSpaceOnUse" x1="-819.2" x2="819.2" spreadMethod="pad" gradientTransform="matrix(0 0.0330047607421875 -0.0330047607421875 0 42.1 35.7)" id="gradient4">
      <stop offset="0" stop-color="#ffffff"/>
      <stop offset="0.47058823529411764" stop-color="#f92169"/>
      <stop offset="1" stop-color="#b30d48"/>
    </linearGradient>
  </defs>
  <g>
    <path stroke="none" fill="url(#gradient0)" d="M39.9 107.05 L40.95 105.9 Q45.35 108.2 44.7 109 42.3 110.55 40.65 110.2 L38.9 109.7 Q39.05 108.15 39.9 107.05"/>
    <path stroke="none" fill="url(#gradient1)" d="M20.2 6.2 Q29.6 0.15 41.5 0 53.45 0.15 62.85 6.2 72.2 12.3 77.2 22.35 77.65 22.6 80.45 30.2 83.3 37.8 83 50.1 82.65 62.35 73.65 76.55 64.65 90.75 41.5 104.2 18.35 90.8 9.35 76.55 0.4 62.35 0.05 50.1 -0.25 37.8 2.55 30.2 5.4 22.6 5.85 22.35 10.8 12.3 20.2 6.2"/>
    <path stroke="none" fill="url(#gradient2)" d="M41.55 106.5 Q39.75 106.35 39.6 104.75 39.75 103.1 41.55 102.95 43.3 103.1 43.45 104.75 43.3 106.35 41.55 106.5"/>
    <path stroke="none" fill="url(#gradient3)" d="M24.8 13.25 Q34.05 1.8 48.1 0.55 67.9 4.7 76.8 22.3 77.6 22.7 81.05 33.5 84.5 44.3 80.75 60.65 76.25 70.6 68.2 76.55 60.15 82.45 50 82.6 35.25 82.2 25.45 70.6 15.6 59 15.25 41.55 15.6 24.7 24.8 13.25"/>
    <path stroke="none" fill="url(#gradient4)" d="M25.1 12 Q31.85 5 42.1 4.75 52.3 5 59.05 12 65.85 19.05 66.1 29.6 65.85 40.15 59.05 47.15 52.3 54.15 42.1 54.4 31.85 54.15 25.1 47.15 18.3 40.15 18.05 29.6 18.3 19.05 25.1 12"/>
    <path stroke="none" fill="#840033" d="M20.45 43.35 L20.85 26.2 62 25.85 62.65 42.45 51.8 42.65 50.85 74.6 33 74.5 32.6 43.05 20.45 43.35"/>
    <path stroke="none" fill="#ffffff" d="M22.95 40.85 L23.25 28.65 59.65 28.35 60.1 40.05 49.4 40.3 48.45 72.2 35.4 72.1 35.05 40.6 22.95 40.85"/>
  </g>
</svg>