<svg width="102.5px" height="111.7px" viewBox="0 0 102.5 111.7" xmlns="http://www.w3.org/2000/svg" xmlns:xlink="http://www.w3.org/1999/xlink">
  <defs>
    <linearGradient gradientUnits="userSpaceOnUse" x1="-819.2" x2="819.2" spreadMethod="pad" gradientTransform="matrix(0 0.2435760498046875 -0.2435760498046875 0 52.5 505.95)" id="gradient0">
      <stop offset="0"/>
      <stop offset="1" stop-color="#005591"/>
    </linearGradient>
  </defs>
  <g>
    <path stroke="none" fill="url(#gradient0)" d="M69.6 55.2 Q68.85 48.35 63.25 43.65 57.45 39.2 50.6 39.95 43.75 40.65 39.05 46.25 34.6 52.05 35.35 58.9 36.05 65.75 41.65 70.5 47.45 74.95 54.3 74.2 61.15 73.45 65.9 67.85 70.35 62.05 69.6 55.2 M102.05 63.3 L101.6 66.25 96.6 98.45 96.55 98.55 Q94.7 107.35 86.4 110.8 82.35 112.15 78.15 111.5 L78.05 111.5 77.95 111.5 Q73.7 110.8 70.3 108.3 68.4 106.8 67.05 104.85 55 108.45 43 106.15 31.05 103.85 21.15 96 5.25 82.85 2.8 62.45 0.85 41.95 13.55 25.75 26.65 9.85 47.1 7.4 67.55 5.45 83.8 18.15 93.85 26.4 98.85 38.5 103.8 50.65 102.05 63.3"/>
    <path stroke="none" fill="#e49f15" d="M67.05 48.05 Q66.3 41.2 60.7 36.5 54.9 32.05 48.05 32.8 41.2 33.5 36.5 39.1 32.05 44.9 32.8 51.75 33.5 58.6 39.1 63.35 44.9 67.8 51.75 67.05 58.6 66.3 63.35 60.7 67.8 54.9 67.05 48.05 M99.5 56.15 L99.05 59.1 94.05 91.3 94 91.4 Q92.15 100.2 83.85 103.65 79.8 105 75.6 104.35 L75.5 104.35 75.4 104.35 Q71.15 103.65 67.75 101.15 65.85 99.65 64.5 97.7 52.45 101.3 40.5 99 28.5 96.7 18.6 88.85 2.7 75.7 0.25 55.3 -1.7 34.8 11 18.6 24.1 2.7 44.55 0.25 65 -1.7 81.25 11 91.3 19.25 96.3 31.35 101.25 43.5 99.5 56.15"/>
    <path stroke="none" fill="#b0d361" d="M94.05 31.9 Q98.5 42.95 97.35 54.75 L97.4 54.75 97.2 55.85 96.75 58.75 91.8 90.85 91.75 90.9 Q90.3 98.4 83.05 101.5 79.6 102.7 75.9 102.15 L75.8 102.15 75.75 102.1 Q72.05 101.55 69.1 99.35 66.7 97.5 65.5 95 54.05 98.9 42.1 97 30.15 95.1 20 87.1 4.5 74 2.5 55.05 0.45 36.15 12.75 20.05 25.85 4.55 44.75 2.55 63.7 0.5 79.8 12.8 89.6 20.85 94.05 31.9 M65.1 62.15 Q70.1 55.6 69.3 47.85 68.45 40.1 62.1 34.75 55.55 29.7 47.8 30.55 40.05 31.4 34.7 37.7 29.65 44.3 30.5 52.05 31.35 59.8 37.65 65.15 44.25 70.15 52 69.35 59.75 68.5 65.1 62.15"/>
    <path stroke="none" fill="#c7eafb" d="M36.55 64.15 L37.7 65.15 41.2 67.4 17.4 84.8 13.65 80.9 36.55 64.15 M2.75 43 Q3.35 38.9 4.65 34.95 L49.4 2.25 57.65 2.85 2.75 43 M5.5 67.25 Q4.45 64.6 3.75 61.85 L32.75 40.65 Q30.65 44.65 30.45 49 L5.5 67.25 M10.5 76.75 Q8.95 74.5 7.7 72.1 L31.1 55 Q31.8 57.7 33.25 60.1 L10.5 76.75 M93.2 81.9 L69.25 99.45 69.15 99.35 Q66.95 97.65 65.7 95.35 L94.4 74.4 93.2 81.9 M90.45 24.75 L93.05 29.5 69.2 46.95 Q68.75 44.1 67.55 41.5 L90.45 24.75 M83.9 16.45 L87.45 20.45 64.65 37.15 62.15 34.75 60.5 33.55 83.9 16.45 M64.3 4.45 Q67.35 5.4 70.25 6.8 L2.65 56.2 Q2.25 53.05 2.25 49.85 L64.3 4.45"/>
    <path stroke="none" fill="#fdba4d" d="M69.45 50.1 L93.15 82.45 91.95 89.95 68.05 57.25 Q69.4 53.75 69.45 50.1 M65.15 62.15 L89.85 95.95 Q88.45 98.3 86.15 99.95 L61.2 65.85 Q63.4 64.35 65.15 62.15 M94.25 75.15 L41.5 3 47.65 2.3 95.45 67.65 94.25 75.15 M57.7 97 L7.45 28.25 Q8.75 25.7 10.4 23.25 L30.45 50.65 Q30.8 59.2 37.7 65.15 40.35 67.25 43.35 68.3 L63.4 95.7 57.7 97 M17.5 14.95 L34.4 38.1 Q32.55 40.55 31.6 43.3 L13.75 18.9 Q15.5 16.8 17.5 14.95 M5.05 33.85 L51.65 97.6 44.8 97.35 3.2 40.4 Q3.85 37.1 5.05 33.85"/>
    <path stroke="none" fill="#fff200" d="M69.3 13.95 L72.45 18.3 68.1 21.45 64.95 17.15 69.3 13.95 M63.05 5.4 L66.2 9.75 61.85 12.9 58.7 8.6 63.05 5.4 M57.65 16 L53.3 19.15 50.15 14.85 54.45 11.65 57.65 16 M56.4 23.4 L60.75 20.25 63.9 24.55 59.55 27.75 56.4 23.4 M78.7 26.85 L74.4 30.05 71.2 25.7 75.55 22.55 78.7 26.85 M77.45 34.25 L81.8 31.1 84.95 35.4 80.65 38.6 77.45 34.25 M82.65 50.25 L78.35 53.4 75.15 49.05 79.5 45.9 82.65 50.25 M86.9 47.15 L83.75 42.8 88.05 39.65 91.25 43.95 86.9 47.15 M62.65 31.95 L67 28.8 70.15 33.1 65.8 36.3 62.65 31.95 M68.9 40.5 L73.25 37.35 76.4 41.65 72.1 44.85 68.9 40.5 M63.25 77.55 L58.9 80.75 55.75 76.4 60.1 73.25 63.25 77.55 M68.65 66.95 L71.8 71.3 67.5 74.45 64.3 70.15 68.65 66.95 M84.6 61.95 L81.45 57.65 85.75 54.45 88.95 58.8 84.6 61.95 M92 63 L95.2 67.35 90.85 70.5 87.7 66.2 92 63 M80.35 65.05 L76.05 68.2 72.85 63.9 77.2 60.7 80.35 65.05 M79.15 72.45 L83.45 69.25 86.65 73.6 82.3 76.75 79.15 72.45 M74.9 75.55 L78.05 79.85 73.75 83.05 70.55 78.7 74.9 75.55 M90 51.35 L94.3 48.2 97.5 52.55 93.15 55.7 90 51.35 M85.4 81 L89.7 77.85 92.9 82.15 88.55 85.35 85.4 81 M81.15 84.1 L84.3 88.4 80 91.6 76.85 87.25 81.15 84.1 M69.5 86.1 L65.2 89.3 62 84.95 66.35 81.8 69.5 86.1 M57.8 88.05 L60.95 92.4 56.6 95.55 53.45 91.2 57.8 88.05 M68.25 93.5 L72.6 90.35 75.75 94.7 71.45 97.85 68.25 93.5 M25.7 26.2 L21.4 29.4 18.2 25.05 22.55 21.9 25.7 26.2 M26.75 18.8 L31.1 15.65 34.25 19.95 29.95 23.1 26.75 18.8 M43.9 6.3 L48.2 3.1 51.4 7.45 47.05 10.6 43.9 6.3 M38.5 16.85 L35.35 12.55 39.65 9.35 42.8 13.7 38.5 16.85 M40.5 28.5 L36.2 31.7 33.05 27.35 37.35 24.2 40.5 28.5 M49.1 22.25 L44.75 25.4 41.6 21.1 45.9 17.95 49.1 22.25 M5.05 60.95 L9.4 57.75 12.55 62.1 8.2 65.25 5.05 60.95 M11.7 42.95 L14.85 47.3 10.5 50.45 7.35 46.1 11.7 42.95 M28.8 30.45 L31.95 34.75 27.65 37.95 24.45 33.6 28.8 30.45 M20.25 36.7 L23.4 41.05 19.1 44.2 15.9 39.85 20.25 36.7 M12.8 35.65 L9.65 31.3 14 28.15 17.15 32.45 12.8 35.65 M17.95 51.5 L21.1 55.85 16.75 59 13.6 54.7 17.95 51.5 M25.35 52.75 L22.15 48.4 26.5 45.25 29.65 49.6 25.35 52.75 M27.35 64.4 L23.05 67.55 19.85 63.25 24.2 60.05 27.35 64.4 M21.9 74.9 L25.05 79.2 20.75 82.4 17.55 78.05 21.9 74.9 M14.5 73.85 L11.3 69.5 15.65 66.35 18.8 70.65 14.5 73.85 M26.1 71.8 L30.45 68.65 33.6 72.95 29.3 76.15 26.1 71.8 M48.45 75.25 L44.1 78.45 40.95 74.1 45.25 70.95 48.45 75.25 M35.55 84.7 L32.4 80.35 36.7 77.2 39.9 81.5 35.55 84.7 M42.95 85.75 L46.15 90.1 41.8 93.25 38.65 88.9 42.95 85.75 M47.2 82.65 L51.55 79.5 54.7 83.8 50.35 87 47.2 82.65 M31.3 87.8 L27 90.95 23.8 86.6 28.15 83.45 31.3 87.8"/>
  </g>
</svg>