<svg width="90.65px" height="116.15px" viewBox="0 0 90.65 116.15" xmlns="http://www.w3.org/2000/svg" xmlns:xlink="http://www.w3.org/1999/xlink">
  <defs>
    <linearGradient gradientUnits="userSpaceOnUse" x1="-819.2" x2="819.2" spreadMethod="repeat" color-interpolation="linearRGB" gradientTransform="matrix(0 0.2439422607421875 -0.2439422607421875 0 46.6 506.7)" id="gradient0">
      <stop offset="0"/>
      <stop offset="1" stop-color="#005591"/>
    </linearGradient>
  </defs>
  <g>
    <path stroke="none" fill="url(#gradient0)" d="M79 47.25 Q70.5 49.55 63.6 44 56.05 37.9 46.7 40.8 44 41.75 41.8 43.45 L46.85 41.7 46.95 41.65 Q55.65 39.15 62.55 44.9 69 51.25 67.9 60.25 65.95 69.15 57.5 72.5 L57.5 72.55 41.45 78.1 47.3 94.95 47.3 95.05 Q49.8 103.75 44.1 110.65 41.15 113.75 37.15 115.15 L37.05 115.2 36.95 115.25 Q32.9 116.6 28.7 115.95 19.95 114.1 16.5 105.75 L16.5 105.7 16.45 105.6 5.25 73.45 4 69.1 Q-0.4 49.8 8.45 33.3 17.35 16.8 35.95 9.85 48.75 5.55 61.6 7.95 74.4 10.4 84.75 19 88.5 22.2 89.95 26.9 91.8 33.6 88.7 39.35 85.6 45.1 79 47.25"/>
    <path stroke="none" fill="#b11116" d="M76.45 40.15 Q67.95 42.45 61.05 36.9 53.5 30.8 44.15 33.7 41.45 34.65 39.25 36.35 L44.3 34.6 44.4 34.55 Q53.1 32.05 60 37.8 66.45 44.15 65.35 53.15 63.4 62.05 54.95 65.4 L54.95 65.45 38.9 71 44.75 87.85 44.75 87.95 Q47.25 96.6 41.55 103.55 38.65 106.65 34.6 108.05 L34.5 108.1 34.4 108.15 Q30.35 109.5 26.15 108.85 17.4 107 13.95 98.65 L13.95 98.6 13.9 98.5 2.7 66.35 1.45 62 Q-2.95 42.7 5.9 26.2 14.8 9.7 33.4 2.75 46.2 -1.55 59.05 0.85 71.85 3.3 82.2 11.9 85.95 15.1 87.4 19.8 89.25 26.5 86.15 32.25 83.05 38 76.45 40.15"/>
    <path stroke="none" fill="#f37021" d="M75.85 37.95 Q68.5 39.95 62.6 35.15 54.3 28.3 43.45 31.5 35.85 34.35 32.45 41.1 L45 36.75 Q52.35 34.5 58.5 39.45 64.05 45 63.1 52.8 61.25 60.6 54.2 63.25 L36 69.6 42.6 88.5 42.6 88.55 Q44.8 95.85 39.85 102 37.4 104.65 33.85 105.9 L33.8 105.95 33.7 105.95 Q30.15 107.15 26.55 106.6 18.85 104.85 16.1 97.75 L16.05 97.7 4.9 65.55 3.7 61.45 Q-0.5 43.15 7.9 27.35 16.3 11.6 34.2 4.9 46.8 0.7 59 3.15 71.2 5.6 80.75 13.65 84 16.35 85.25 20.4 86.85 26.2 84.2 31.15 81.5 36.1 75.85 37.95"/>
    <path stroke="none" fill="#fff200" d="M46.6 14.4 Q54.1 12.9 52.1 5.25 55.3 12.8 65.5 12.2 55.45 13.95 54.5 23.55 54.25 14.1 46.6 14.4"/>
    <path stroke="none" fill="#ffcb05" d="M10.85 48.75 Q17.7 51.1 13.45 42.9 18.75 51.35 27.85 53 19.35 52.6 22.35 62.15 18.25 52.35 10.85 48.75"/>
    <path stroke="none" fill="#ffcb05" d="M41.35 41.5 Q43.8 49.95 54.25 49.15 43.85 51.15 41.95 60.55 42.5 51.4 32.9 52.7 42.45 50.15 41.35 41.5"/>
    <path stroke="none" fill="#fff9ae" d="M39.5 62.35 Q33.05 66.05 34.5 76.6 32.1 66.15 24.95 63.7 31.85 64.75 30.45 54.55 32.8 64.65 39.5 62.35"/>
    <path stroke="none" fill="#ffcb05" d="M33.2 81.4 Q24.9 79.2 24.15 80.55 23.6 79.05 13.2 79.2 23.55 78.25 22.95 67.9 24.8 78.4 33.2 81.4"/>
    <path stroke="none" fill="#fff200" d="M73.95 28.15 Q67.45 26.5 65.95 37.35 66.35 26.35 57.8 25.75 66.55 24.9 68.8 14.4 67.6 25.05 73.95 28.15"/>
    <path stroke="none" fill="#fff9ae" d="M75.8 38 L72.75 38.55 Q78.75 35.6 77 30.45 78.25 33.3 81.45 34.7 79.15 36.95 75.8 38"/>
    <path stroke="none" fill="#fff200" d="M85.6 27.25 L79.1 27.45 Q83 26.75 85.85 24.65 L85.6 27.25"/>
    <path stroke="none" fill="#ffcb05" d="M80.75 13.65 L81.7 14.55 Q77.2 18.75 76.55 25.55 77.05 13.3 71.4 11.85 73.65 12 75.35 9.7 78.2 11.5 80.75 13.65"/>
    <path stroke="none" fill="#ffcb05" d="M67.65 5.7 Q67.55 7.65 68.3 9.8 67.1 6.55 64.75 4.65 L67.65 5.7"/>
    <path stroke="none" fill="#fff9ae" d="M48.45 2.25 L49.7 2.25 Q40.9 3.55 44.3 11.4 41.75 6.8 36.05 4.3 42.25 2.45 48.45 2.25"/>
    <path stroke="none" fill="#fff200" d="M27.3 7.9 Q31.7 14.25 41.85 14.6 29.9 15.25 28.2 24.8 28.35 16 18.4 14.05 L18.55 13.95 Q26.25 13.5 26.7 8.25 L27.3 7.9"/>
    <path stroke="none" fill="#ffcb05" d="M8.95 33.85 Q11.9 31.25 13.7 26.6 15.5 21.95 15.55 16.8 16.65 27.35 26.8 27.25 16.25 28.65 13.1 37.45 15.15 29.1 8.95 33.85"/>
    <path stroke="none" fill="#fff9ae" d="M3.15 40.65 Q5.75 39.1 6.25 36.35 5.85 41.05 10.45 39.95 5.95 41.65 7.8 45.8 6.35 43.25 2.85 42.2 L3.15 40.65"/>
    <path stroke="none" fill="#ffcb05" d="M2.5 55.15 L2.4 54 6.75 54.55 2.5 55.15"/>
    <path stroke="none" fill="#fff200" d="M4.85 65.55 L4.4 64.1 Q9.5 62.4 10.35 57 10.1 65.4 20.75 66 10.15 66.7 11.05 77.3 9.95 71.2 5.55 67.5 L4.85 65.55"/>
    <path stroke="none" fill="#fff9ae" d="M11.4 84.4 L11.4 82.95 Q12.65 88.55 22.35 84.3 17.6 86.7 13.8 91.2 L11.4 84.4"/>
    <path stroke="none" fill="#ffcb05" d="M26.5 106.6 L23.9 105.9 Q22.45 104.9 20.85 104.2 18.95 102.7 17.6 100.7 25.4 96.45 24.8 86.45 26.6 100.55 32.5 100.05 29.05 101.15 28.9 106.8 L26.5 106.6"/>
    <path stroke="none" fill="#fff200" d="M43.1 91.2 Q36.15 91.85 35.45 97.1 35.4 89.55 27.75 83.5 35.5 88.75 36.75 84.35 36.55 87.85 42.95 90.2 L43.1 91.2"/>
    <path stroke="none" fill="#fff200" d="M54.2 63.3 L51.8 64.1 Q48.85 62.85 44.55 62.8 56.45 62.1 56.85 51.4 57.1 56 60.05 59.2 57.55 62.05 54.2 63.3"/>
    <path stroke="none" fill="#ffcb05" d="M63.1 48.6 L63.25 50.05 Q61.15 49.05 58.9 48.8 L63.1 48.6"/>
    <path stroke="none" fill="#fff200" d="M58.45 39.5 L59.3 40.3 Q55.7 41.6 56.35 46.35 54.3 38.7 43.5 38.7 47.95 38.45 51.2 36.2 55.15 36.6 58.45 39.5"/>
    <path stroke="none" fill="#ffcb05" d="M38.75 38.9 L39.05 38.9 38.7 38.95 38.75 38.9"/>
    <path stroke="none" fill="#fff200" d="M32.45 41.1 L33.7 40.65 Q29.5 43.8 30.65 50.1 29.55 45.35 25.6 42.6 21.65 39.8 16.3 40 27.7 38.85 29.95 29.8 29.2 35.9 34.3 38.15 33.2 39.55 32.45 41.1"/>
    <path stroke="none" fill="#ffcb05" d="M40.35 32.85 Q39 26.9 31.15 27.2 41.7 25.8 44.8 17 43.05 25.75 52.75 26.15 45.7 26.5 42 32.05 L40.35 32.85"/>
  </g>
</svg>