<svg width="111.45px" height="126.75px" viewBox="0 0 111.45 126.75" xmlns="http://www.w3.org/2000/svg" xmlns:xlink="http://www.w3.org/1999/xlink">
  <defs>
    <linearGradient gradientUnits="userSpaceOnUse" x1="-819.2" x2="819.2" spreadMethod="pad" gradientTransform="matrix(0 0.236175537109375 -0.236175537109375 0 57 379.25)" id="gradient0">
      <stop offset="0"/>
      <stop offset="1" stop-color="#005591"/>
    </linearGradient>
  </defs>
  <g>
    <path stroke="none" fill="url(#gradient0)" d="M8.9 10.3 Q12.4 7.9 16.6 7.3 L16.7 7.3 16.8 7.3 Q21.05 6.75 25.05 8.25 33.25 11.85 34.9 20.75 L34.9 20.9 35.85 28.05 Q43.15 24.5 51.25 23.45 72.2 21.3 87.9 33.3 103.55 45.35 107 66.1 L107.05 66.65 109.05 81.95 111.4 100.4 111.4 100.6 Q112.1 109.6 105.05 115.2 101.6 117.65 97.35 118.2 L97.25 118.2 97.15 118.25 Q92.9 118.75 88.95 117.25 80.7 113.65 79.1 104.75 L79.05 104.65 79.05 104.55 77.05 89 76.75 86.75 76.65 86.1 76.35 83.7 74.7 70.7 Q73.55 63.5 68.1 59.35 62.65 55.2 55.4 55.95 44.65 57.7 40.95 67.8 L46.25 108.9 46.25 109 Q46.9 118 39.85 123.6 36.4 126 32.15 126.6 L32.05 126.6 31.95 126.6 Q27.7 127.15 23.75 125.65 15.5 122.05 13.9 113.15 L13.9 113.1 13.85 113 13.85 112.95 2.55 25.15 2.55 24.9 Q1.85 15.9 8.9 10.3"/>
    <path stroke="none" fill="#00845f" d="M6.4 3.15 Q9.9 0.75 14.1 0.15 L14.2 0.15 14.3 0.15 Q18.55 -0.4 22.55 1.1 30.75 4.7 32.4 13.6 L32.4 13.75 33.35 20.9 Q40.65 17.35 48.75 16.35 69.7 14.15 85.4 26.2 101.05 38.2 104.5 58.95 L104.55 59.5 106.55 74.8 108.9 93.25 108.9 93.45 Q109.6 102.45 102.55 108.05 99.1 110.5 94.85 111.05 L94.75 111.05 94.65 111.1 Q90.4 111.6 86.45 110.1 78.2 106.5 76.6 97.6 L76.55 97.5 76.55 97.4 74.55 81.85 74.25 79.6 74.15 78.95 73.85 76.55 72.2 63.55 Q71.05 56.35 65.6 52.2 60.15 48.05 52.9 48.8 42.15 50.55 38.45 60.65 L43.75 101.75 43.75 101.85 Q44.4 110.85 37.35 116.45 33.9 118.85 29.65 119.45 L29.55 119.45 29.45 119.45 Q25.2 120 21.25 118.5 13 114.9 11.4 106 L11.4 105.95 11.35 105.85 11.35 105.8 0.05 18 0.05 17.75 Q-0.65 8.75 6.4 3.15"/>
    <path stroke="none" fill="#0095da" d="M2.3 17.65 Q1.6 10.05 7.7 5.05 10.7 2.95 14.4 2.45 L14.5 2.45 14.55 2.4 Q18.25 1.95 21.7 3.25 28.85 6.5 30.15 14.05 L30.15 14.15 31.45 24.45 Q39.4 19.9 49 18.6 69 16.55 84 28 98.95 39.5 102.2 59.3 L102.3 59.85 104.35 76.1 104.35 76.05 104.4 76.35 106.6 93.55 106.65 93.6 Q107.3 101.25 101.2 106.25 98.2 108.35 94.55 108.85 L94.45 108.85 94.35 108.85 Q90.65 109.3 87.2 108.05 80.05 104.75 78.8 97.2 L78.8 97.15 76.55 79.7 76.35 78.25 74.4 63.3 Q73.1 55.15 66.95 50.45 60.8 45.7 52.6 46.55 45.75 47.6 41.9 51.45 38.05 55.25 36.1 60.35 L41.45 101.95 41.45 102 Q42.15 109.65 36 114.6 33 116.7 29.35 117.2 L29.25 117.2 29.15 117.25 Q25.45 117.7 22.05 116.4 14.85 113.1 13.6 105.6 L13.6 105.5 9.45 73.4 6.45 49.8 2.3 17.7 2.3 17.65"/>
    <path stroke="none" fill="#c7eafb" d="M3.6 27.9 L24.5 4.75 Q26.75 6.35 28.1 8.65 L4.5 34.8 3.6 27.9"/>
    <path stroke="none" fill="#c7eafb" d="M103.1 65.95 L103.95 72.85 79.55 99.9 78.8 97.15 78.8 97.1 78.3 93.4 103.1 65.95"/>
    <path stroke="none" fill="#c7eafb" d="M80.2 25.4 L60.55 47.2 Q57.45 46.25 54.1 46.45 L75.45 22.8 Q77.9 23.95 80.2 25.4 M37.65 72.5 L12.9 99.95 12 93.05 36.8 65.6 37.65 72.5"/>
    <path stroke="none" fill="#6dcff6" d="M49 18.6 Q59.3 17.35 68.65 20.2 L10.8 83.95 5.6 43.5 30.4 16.2 31.45 24.45 Q39.4 19.9 49 18.6 M106.6 93.55 L106.65 93.6 Q107.3 101.25 101.2 106.25 98.2 108.35 94.55 108.85 L94.45 108.85 94.35 108.85 Q90.65 109.3 87.2 108.05 84.9 107.1 83.25 105.6 L105.05 81.5 106.6 93.55"/>
    <path stroke="none" fill="#ffcb05" d="M2.35 14.85 Q2.75 8.95 7.75 5.05 10.3 3.2 13.45 2.6 L2.35 14.85"/>
    <path stroke="none" fill="#ffcb05" d="M49 18.6 Q57.45 17.55 65.25 19.3 L10.3 79.9 6.15 47.55 30.95 20.25 31.5 24.45 Q39.4 19.9 49 18.6"/>
    <path stroke="none" fill="#ffffff" d="M54.55 18.2 Q55.15 21.25 52.65 24.35 48.85 27.7 44.65 26.7 42.6 26.4 41.65 27.1 L41.65 27.05 Q41.1 28.05 41.55 30.1 42.95 34.15 39.95 38.25 36.1 41.7 31.95 40.65 29.85 40.4 28.95 41 L28.95 41.05 Q28.4 42 28.85 44.05 30.35 55.05 19.25 54.6 17.15 54.3 16.25 54.95 15.65 55.95 16.15 57.95 17.55 62.05 14.5 66.15 11.8 68.85 8.85 68.6 L8.05 62.4 Q9.35 62.5 9.95 61.95 10.5 61 10 58.95 8.65 54.9 11.65 50.75 15.45 47.4 19.65 48.4 24 49.3 22.75 45.05 21.35 40.95 24.35 36.85 28.2 33.45 32.35 34.45 34.45 34.75 35.35 34.1 35.9 33.15 35.45 31.1 34.05 27 37.1 22.9 L37.05 22.9 Q40.9 19.5 45.05 20.5 47.15 20.8 48.05 20.15 48.45 19.65 48.35 18.7 L49 18.6 54.55 18.2"/>
    <path stroke="none" fill="#ffcb05" d="M15.6 110.95 L39.25 84.9 41.45 101.9 41.45 102 Q42.1 109.6 36 114.6 33 116.7 29.35 117.2 L29.25 117.2 29.15 117.2 Q25.45 117.7 22 116.4 17.75 114.6 15.6 110.95 M76.65 80.55 L76.35 78.45 76.35 78.4 74.4 63.25 Q73.4 56.6 68.95 52.15 L87.85 31.3 Q97.4 40.35 101.05 53.65 L76.65 80.55"/>
    <path stroke="none" fill="#ffffff" d="M92.85 40.65 L95.4 40.55 98.35 46.1 Q95.45 47.3 92.45 46.85 90.35 46.55 89.45 47.2 88.9 48.2 89.35 50.2 90.75 54.3 87.75 58.4 83.9 61.8 79.75 60.8 77.65 60.5 76.75 61.15 76.15 62.1 76.65 64.15 77.85 67.95 75.5 71.75 L74.4 63.25 Q73.9 59.75 72.3 56.8 76.05 53.65 80.15 54.6 82.2 54.85 83.15 54.2 83.7 53.25 83.25 51.2 81.85 47.15 84.85 43 88.65 39.65 92.85 40.65 M21.3 112.75 Q25.1 109.35 29.3 110.35 31.4 110.65 32.3 110 32.85 109.05 32.4 107 31 102.9 34 98.8 37.2 95.75 40.7 96.35 L41.4 101.95 41.4 102 41.45 102.6 Q39.5 102.35 38.6 103 L38.6 102.95 Q38.05 103.95 38.5 106 39.6 109.55 37.65 113.15 L36 114.6 Q34.1 115.95 31.9 116.6 L28.9 116.55 Q26.8 116.3 25.9 116.95 L25.7 117.25 Q23.8 117.1 22 116.4 20.8 115.9 19.75 115.25 20.2 114 21.3 112.75"/>
    <path stroke="none" fill="#ffcb05" d="M106.6 93.55 L106.6 93.6 Q107.3 101.2 101.2 106.2 98.2 108.3 94.5 108.8 L94.45 108.8 94.35 108.85 Q90.65 109.3 87.2 108 L85.8 107.35 105.6 85.55 106.6 93.55"/>
    <path stroke="none" fill="#fff200" d="M96.5 106.25 L96.5 106.2 Q99.95 103.05 103.75 103.8 L101.2 106.25 Q98.4 108.2 94.95 108.75 95.4 107.5 96.5 106.25"/>
  </g>
</svg>