<svg width="48.65px" height="48.4px" viewBox="0 0 48.65 48.4" xmlns="http://www.w3.org/2000/svg" xmlns:xlink="http://www.w3.org/1999/xlink">
  <defs/>
  <g>
    <path stroke="none" fill="#7f7f73" d="M48.3 24.15 Q48.3 34.05 41.4 41.15 L48.65 48.4 25.4 48.4 25.4 48.3 24.15 48.3 Q14.1 48.3 7.05 41.25 0 34.15 0 24.15 0 14.1 7.05 7.05 11.65 2.45 17.55 0.85 20.65 0 24.15 0 34.15 0 41.25 7.05 43.5 9.3 45.05 11.9 48.3 17.35 48.3 24.15 M41.4 41.15 L25.4 25.15 25.4 48.3 Q34.6 47.85 41.25 41.25 L41.4 41.15"/>
    <path stroke="none" fill="#726368" d="M41.4 41.15 L41.25 41.25 Q34.6 47.85 25.4 48.3 L25.4 25.15 41.4 41.15"/>
  </g>
</svg>