<svg width="83.05px" height="110.25px" viewBox="0 0 83.05 110.25" xmlns="http://www.w3.org/2000/svg" xmlns:xlink="http://www.w3.org/1999/xlink">
  <defs>
    <linearGradient gradientUnits="userSpaceOnUse" x1="-819.2" x2="819.2" spreadMethod="pad" gradientTransform="matrix(0 -0.00177001953125 0.00177001953125 0 41.75 108.35)" id="gradient0">
      <stop offset="0" stop-color="#f92169"/>
      <stop offset="1" stop-color="#840033"/>
    </linearGradient>
    <linearGradient gradientUnits="userSpaceOnUse" x1="-819.2" x2="819.2" spreadMethod="pad" gradientTransform="matrix(0 -0.0380401611328125 0.0380401611328125 0 41.5 81.1)" id="gradient1">
      <stop offset="0" stop-color="#f92169"/>
      <stop offset="1" stop-color="#840033"/>
    </linearGradient>
    <linearGradient gradientUnits="userSpaceOnUse" x1="-819.2" x2="819.2" spreadMethod="pad" gradientTransform="matrix(0 -0.00140380859375 0.00140380859375 0 41.5 105.3)" id="gradient2">
      <stop offset="0" stop-color="#f92169"/>
      <stop offset="1" stop-color="#840033"/>
    </linearGradient>
    <linearGradient gradientUnits="userSpaceOnUse" x1="-819.2" x2="819.2" spreadMethod="pad" gradientTransform="matrix(0 -0.042236328125 0.042236328125 0 49 44.9)" id="gradient3">
      <stop offset="0" stop-color="#f92169"/>
      <stop offset="1" stop-color="#840033"/>
    </linearGradient>
    <linearGradient gradientUnits="userSpaceOnUse" x1="-819.2" x2="819.2" spreadMethod="pad" gradientTransform="matrix(0 0.0330047607421875 -0.0330047607421875 0 42.05 35.65)" id="gradient4">
      <stop offset="0" stop-color="#ffffff"/>
      <stop offset="0.47058823529411764" stop-color="#f92169"/>
      <stop offset="1" stop-color="#b30d48"/>
    </linearGradient>
  </defs>
  <g>
    <path stroke="none" fill="url(#gradient0)" d="M44.65 109 Q42.25 110.55 40.6 110.2 L38.85 109.7 Q39 108.15 39.85 107.05 L40.9 105.9 Q45.3 108.2 44.65 109"/>
    <path stroke="none" fill="url(#gradient1)" d="M62.85 6.2 Q72.2 12.3 77.2 22.35 77.65 22.6 80.5 30.2 83.3 37.8 83 50.1 82.65 62.35 73.65 76.55 64.65 90.75 41.5 104.2 18.35 90.8 9.35 76.55 0.4 62.35 0.05 50.1 -0.25 37.8 2.55 30.2 5.4 22.6 5.85 22.35 10.8 12.3 20.2 6.2 29.6 0.15 41.5 0 53.45 0.15 62.85 6.2"/>
    <path stroke="none" fill="url(#gradient2)" d="M41.5 106.5 Q39.7 106.35 39.55 104.75 39.7 103.1 41.5 102.95 43.25 103.1 43.4 104.75 43.25 106.35 41.5 106.5"/>
    <path stroke="none" fill="url(#gradient3)" d="M48.1 0.55 Q67.9 4.7 76.8 22.3 77.6 22.7 81.05 33.5 84.5 44.3 80.75 60.65 76.25 70.6 68.2 76.55 60.15 82.45 50 82.6 35.25 82.2 25.45 70.6 15.6 59 15.25 41.55 15.6 24.7 24.8 13.25 34.05 1.8 48.1 0.55"/>
    <path stroke="none" fill="url(#gradient4)" d="M59 11.95 Q65.8 19 66.05 29.5 65.8 40.05 59 47.1 52.25 54.1 42 54.35 31.8 54.1 25.05 47.1 18.25 40.1 18 29.5 18.25 18.95 25.05 11.95 31.8 4.95 42 4.7 52.25 4.95 59 11.95"/>
    <path stroke="none" fill="#840033" d="M43.05 43.9 Q42.15 42.7 41.35 42.9 40.4 42.85 39.95 43.6 39.15 44.8 39.15 46.4 39.15 50.2 39.3 53.4 L43.7 53.35 43.85 46.9 Q43.85 45.1 43.05 43.9 M57.4 29.05 Q63.8 35.45 63.85 45.15 63.85 51.55 61.55 71 L61.25 73.45 42.5 70.9 42.85 65.95 40.15 66 40.5 70.75 21.55 73.25 21.3 70.75 Q19.15 51.1 19.15 44.55 19.15 34.75 25.35 28.7 31.5 22.65 41.25 22.65 50.95 22.65 57.4 29.05"/>
    <path stroke="none" fill="#ffffff" d="M41.35 40.45 Q39.15 40.5 37.9 42.3 36.7 44.1 36.7 46.45 36.7 51.75 37 55.95 L46 55.8 46.3 46.95 Q46.25 44.45 45.1 42.6 43.7 40.45 41.35 40.45 M55.65 30.8 Q61.4 36.5 61.4 45.2 61.35 51.5 59.1 70.75 L45.1 68.85 45.45 63.45 37.5 63.65 37.9 68.7 23.75 70.5 Q21.6 51.1 21.6 44.6 21.6 35.85 27.05 30.5 32.5 25.15 41.25 25.15 49.95 25.15 55.65 30.8"/>
  </g>
</svg>