<svg width="83.05px" height="110.25px" viewBox="0 0 83.05 110.25" xmlns="http://www.w3.org/2000/svg" xmlns:xlink="http://www.w3.org/1999/xlink">
  <defs>
    <linearGradient gradientUnits="userSpaceOnUse" x1="-819.2" x2="819.2" spreadMethod="pad" gradientTransform="matrix(0 -0.00177001953125 0.00177001953125 0 41.8 108.35)" id="gradient0">
      <stop offset="0" stop-color="#ffe66d"/>
      <stop offset="0.30196078431372547" stop-color="#ffd400"/>
      <stop offset="1" stop-color="#e28100"/>
    </linearGradient>
    <linearGradient gradientUnits="userSpaceOnUse" x1="-819.2" x2="819.2" spreadMethod="pad" gradientTransform="matrix(0 -0.00140380859375 0.00140380859375 0 41.55 105.3)" id="gradient1">
      <stop offset="0" stop-color="#ffe66d"/>
      <stop offset="0.30196078431372547" stop-color="#ffd400"/>
      <stop offset="1" stop-color="#e28100"/>
    </linearGradient>
    <linearGradient gradientUnits="userSpaceOnUse" x1="-819.2" x2="819.2" spreadMethod="pad" gradientTransform="matrix(0 -0.0380401611328125 0.0380401611328125 0 41.5 81.1)" id="gradient2">
      <stop offset="0" stop-color="#ffe66d"/>
      <stop offset="0.30196078431372547" stop-color="#ffd400"/>
      <stop offset="1" stop-color="#e28100"/>
    </linearGradient>
    <linearGradient gradientUnits="userSpaceOnUse" x1="-819.2" x2="819.2" spreadMethod="pad" gradientTransform="matrix(0 -0.042236328125 0.042236328125 0 49 44.9)" id="gradient3">
      <stop offset="0" stop-color="#ffe66d"/>
      <stop offset="0.30196078431372547" stop-color="#ffd400"/>
      <stop offset="1" stop-color="#e28100"/>
    </linearGradient>
    <linearGradient gradientUnits="userSpaceOnUse" x1="-819.2" x2="819.2" spreadMethod="pad" gradientTransform="matrix(0 0.0330047607421875 -0.0330047607421875 0 42.1 35.65)" id="gradient4">
      <stop offset="0" stop-color="#fffae2"/>
      <stop offset="0.48627450980392156" stop-color="#ffd400"/>
      <stop offset="1" stop-color="#f9c300"/>
    </linearGradient>
  </defs>
  <g>
    <path stroke="none" fill="url(#gradient0)" d="M39.9 107.05 L40.95 105.9 Q45.35 108.2 44.7 109 42.3 110.55 40.65 110.2 L38.9 109.7 Q39.05 108.15 39.9 107.05"/>
    <path stroke="none" fill="url(#gradient1)" d="M41.55 106.5 Q39.75 106.35 39.6 104.75 39.75 103.1 41.55 102.95 43.3 103.1 43.45 104.75 43.3 106.35 41.55 106.5"/>
    <path stroke="none" fill="url(#gradient2)" d="M62.85 6.2 Q72.2 12.3 77.2 22.35 77.65 22.6 80.45 30.2 83.3 37.8 83 50.1 82.65 62.35 73.65 76.55 64.65 90.75 41.5 104.2 18.35 90.8 9.35 76.55 0.4 62.35 0.05 50.1 -0.25 37.8 2.55 30.2 5.4 22.6 5.85 22.35 10.8 12.3 20.2 6.2 29.6 0.15 41.5 0 53.45 0.15 62.85 6.2"/>
    <path stroke="none" fill="url(#gradient3)" d="M48.1 0.55 Q67.9 4.7 76.8 22.3 77.6 22.7 81.05 33.5 84.5 44.3 80.75 60.65 76.25 70.6 68.2 76.55 60.15 82.45 50 82.6 35.25 82.2 25.45 70.6 15.6 59 15.25 41.55 15.6 24.7 24.8 13.25 34.05 1.8 48.1 0.55"/>
    <path stroke="none" fill="url(#gradient4)" d="M59.05 47.1 Q52.3 54.1 42.05 54.35 31.85 54.1 25.1 47.1 18.3 40.1 18.05 29.5 18.3 18.95 25.1 11.95 31.85 4.95 42.05 4.7 52.3 4.95 59.05 11.95 65.85 19 66.1 29.5 65.85 40.05 59.05 47.1"/>
    <path stroke="none" fill="#e28100" d="M60.1 42.3 L60.2 42.3 60.55 54.6 60.8 54.55 61.5 73 59.2 73.2 33.3 74.2 31.15 74.15 22.6 74.05 22.4 71.8 Q21.6 60.55 21.6 51.6 21.6 42.6 22.2 29.6 L22.3 27.3 59.9 26.8 60.1 42.3"/>
    <path stroke="none" fill="#ffffff" d="M57.7 42.05 L37.85 42.75 37.75 44.85 57.85 44.7 58.15 54.95 37.85 55.55 38 58 58.5 57.1 59 70.7 31.25 71.7 24.9 71.6 Q24.1 60.4 24.1 51.55 24.1 42.65 24.7 29.7 L57.55 29.25 57.7 42.05"/>
  </g>
</svg>