<svg width="83.05px" height="110.25px" viewBox="0 0 83.05 110.25" xmlns="http://www.w3.org/2000/svg" xmlns:xlink="http://www.w3.org/1999/xlink">
  <defs>
    <linearGradient gradientUnits="userSpaceOnUse" x1="-819.2" x2="819.2" spreadMethod="pad" gradientTransform="matrix(0 -0.00177001953125 0.00177001953125 0 41.8 108.35)" id="gradient0">
      <stop offset="0.00392156862745098" stop-color="#ffa300"/>
      <stop offset="1" stop-color="#ff6700"/>
    </linearGradient>
    <linearGradient gradientUnits="userSpaceOnUse" x1="-819.2" x2="819.2" spreadMethod="pad" gradientTransform="matrix(0 -0.0380401611328125 0.0380401611328125 0 41.5 81.1)" id="gradient1">
      <stop offset="0.00392156862745098" stop-color="#ffa300"/>
      <stop offset="1" stop-color="#ff6700"/>
    </linearGradient>
    <linearGradient gradientUnits="userSpaceOnUse" x1="-819.2" x2="819.2" spreadMethod="pad" gradientTransform="matrix(0 -0.00140380859375 0.00140380859375 0 41.55 105.3)" id="gradient2">
      <stop offset="0.00392156862745098" stop-color="#ffa300"/>
      <stop offset="1" stop-color="#ff6700"/>
    </linearGradient>
    <linearGradient gradientUnits="userSpaceOnUse" x1="-819.2" x2="819.2" spreadMethod="pad" gradientTransform="matrix(0 -0.042236328125 0.042236328125 0 48.95 44.9)" id="gradient3">
      <stop offset="0.00392156862745098" stop-color="#ffa300"/>
      <stop offset="1" stop-color="#ff6700"/>
    </linearGradient>
    <linearGradient gradientUnits="userSpaceOnUse" x1="-819.2" x2="819.2" spreadMethod="pad" gradientTransform="matrix(0 0.0330047607421875 -0.0330047607421875 0 42.1 35.65)" id="gradient4">
      <stop offset="0" stop-color="#ffffff"/>
      <stop offset="0.4196078431372549" stop-color="#ffa300"/>
      <stop offset="1" stop-color="#ff8a00"/>
    </linearGradient>
  </defs>
  <g>
    <path stroke="none" fill="url(#gradient0)" d="M39.9 107.05 L40.95 105.9 Q45.35 108.2 44.7 109 42.3 110.55 40.65 110.2 L38.9 109.7 Q39.05 108.15 39.9 107.05"/>
    <path stroke="none" fill="url(#gradient1)" d="M62.85 6.2 Q72.2 12.3 77.2 22.35 77.65 22.6 80.45 30.2 83.3 37.8 83 50.1 82.65 62.35 73.65 76.55 64.65 90.75 41.5 104.2 18.35 90.8 9.35 76.55 0.4 62.35 0.05 50.1 -0.25 37.8 2.55 30.2 5.4 22.6 5.85 22.35 10.8 12.3 20.2 6.2 29.6 0.15 41.5 0 53.45 0.15 62.85 6.2"/>
    <path stroke="none" fill="url(#gradient2)" d="M41.55 106.5 Q39.75 106.35 39.6 104.75 39.75 103.1 41.55 102.95 43.3 103.1 43.45 104.75 43.3 106.35 41.55 106.5"/>
    <path stroke="none" fill="url(#gradient3)" d="M76.8 22.3 Q77.6 22.7 81.05 33.5 84.5 44.3 80.75 60.65 76.25 70.6 68.2 76.55 60.15 82.45 50 82.6 35.25 82.2 25.45 70.6 15.6 59 15.25 41.55 15.6 24.7 24.8 13.25 34.05 1.8 48.1 0.55 67.9 4.7 76.8 22.3"/>
    <path stroke="none" fill="url(#gradient4)" d="M59.05 47.1 Q52.3 54.1 42.1 54.35 31.85 54.1 25.1 47.1 18.3 40.1 18.05 29.5 18.3 18.95 25.1 11.95 31.85 4.95 42.1 4.7 52.3 4.95 59.05 11.95 65.85 19 66.1 29.5 65.85 40.05 59.05 47.1"/>
    <path stroke="none" fill="#e55c00" d="M60.9 43.35 L59.5 43.4 59.9 56.95 41 57.55 40.95 72.95 23.2 72.95 21.9 26.15 61.1 25.65 60.9 43.35"/>
    <path stroke="none" fill="#ffffff" d="M58.5 40.95 L38.75 41.65 38.65 44.5 57.1 44.3 57.4 54.6 38.6 55.2 38.5 70.5 25.65 70.5 24.45 28.6 58.65 28.15 58.5 40.95"/>
  </g>
</svg>