<svg width="83.05px" height="110.25px" viewBox="0 0 83.05 110.25" xmlns="http://www.w3.org/2000/svg" xmlns:xlink="http://www.w3.org/1999/xlink">
  <defs>
    <linearGradient gradientUnits="userSpaceOnUse" x1="-819.2" x2="819.2" spreadMethod="pad" gradientTransform="matrix(0 -0.00177001953125 0.00177001953125 0 41.8 108.35)" id="gradient0">
      <stop offset="0.00392156862745098" stop-color="#dd000e"/>
      <stop offset="1" stop-color="#aa0011"/>
    </linearGradient>
    <linearGradient gradientUnits="userSpaceOnUse" x1="-819.2" x2="819.2" spreadMethod="pad" gradientTransform="matrix(0 -0.0380401611328125 0.0380401611328125 0 41.5 81.1)" id="gradient1">
      <stop offset="0.00392156862745098" stop-color="#dd000e"/>
      <stop offset="1" stop-color="#aa0011"/>
    </linearGradient>
    <linearGradient gradientUnits="userSpaceOnUse" x1="-819.2" x2="819.2" spreadMethod="pad" gradientTransform="matrix(0 -0.00140380859375 0.00140380859375 0 41.55 105.3)" id="gradient2">
      <stop offset="0.00392156862745098" stop-color="#dd000e"/>
      <stop offset="1" stop-color="#aa0011"/>
    </linearGradient>
    <linearGradient gradientUnits="userSpaceOnUse" x1="-819.2" x2="819.2" spreadMethod="pad" gradientTransform="matrix(0 -0.042236328125 0.042236328125 0 48.95 44.9)" id="gradient3">
      <stop offset="0.00392156862745098" stop-color="#dd000e"/>
      <stop offset="1" stop-color="#aa0011"/>
    </linearGradient>
    <linearGradient gradientUnits="userSpaceOnUse" x1="-819.2" x2="819.2" spreadMethod="pad" gradientTransform="matrix(0 0.0330047607421875 -0.0330047607421875 0 42.1 35.7)" id="gradient4">
      <stop offset="0" stop-color="#f9d4d6"/>
      <stop offset="0.4196078431372549" stop-color="#dd000e"/>
      <stop offset="1" stop-color="#c30010"/>
    </linearGradient>
  </defs>
  <g>
    <path stroke="none" fill="url(#gradient0)" d="M39.9 107.05 L40.95 105.9 Q45.35 108.2 44.7 109 42.3 110.55 40.65 110.2 L38.9 109.7 Q39.05 108.15 39.9 107.05"/>
    <path stroke="none" fill="url(#gradient1)" d="M77.2 22.35 Q77.65 22.6 80.45 30.2 83.3 37.8 83 50.1 82.65 62.35 73.65 76.55 64.65 90.75 41.5 104.2 18.35 90.8 9.35 76.55 0.4 62.35 0.05 50.1 -0.25 37.8 2.55 30.2 5.4 22.6 5.85 22.35 10.8 12.3 20.2 6.2 29.6 0.15 41.5 0 53.45 0.15 62.85 6.2 72.25 12.3 77.2 22.35"/>
    <path stroke="none" fill="url(#gradient2)" d="M41.55 106.5 Q39.75 106.35 39.6 104.75 39.75 103.1 41.55 102.95 43.3 103.1 43.45 104.75 43.3 106.35 41.55 106.5"/>
    <path stroke="none" fill="url(#gradient3)" d="M76.8 22.3 Q77.6 22.7 81.05 33.5 84.5 44.3 80.75 60.65 76.25 70.6 68.2 76.55 60.15 82.45 50 82.6 35.25 82.2 25.45 70.6 15.6 59 15.25 41.55 15.6 24.7 24.8 13.25 34.05 1.8 48.1 0.55 67.9 4.7 76.8 22.3"/>
    <path stroke="none" fill="url(#gradient4)" d="M59.05 12 Q65.85 19.05 66.1 29.6 65.85 40.15 59.05 47.15 52.3 54.15 42.1 54.4 31.85 54.15 25.1 47.15 18.3 40.15 18.05 29.6 18.3 19.05 25.1 12 31.85 5 42.1 4.75 52.3 5 59.05 12"/>
    <path stroke="none" fill="#aa0011" d="M21.4 28.8 L21.55 26.35 40.3 27.75 40.1 30.2 Q38.5 50.85 38.5 54.7 38.85 59.5 41.75 58.7 44.3 59.35 44.55 55.3 44.55 51.3 42.95 30.4 L42.75 28 61.45 26.5 61.65 28.95 Q63.35 50.6 63.35 55.3 63.3 64.95 57.4 71.2 51.4 77.45 41.75 77.45 32.15 77.45 25.9 70.9 19.75 64.35 19.75 54.7 19.75 50.25 21.4 28.8"/>
    <path stroke="none" fill="#ffffff" d="M59.2 29.1 Q60.85 50.6 60.85 55.25 60.85 63.95 55.6 69.45 50.35 75 41.7 75 33.2 75 27.7 69.15 22.2 63.35 22.2 54.65 22.2 50.25 23.8 28.95 L37.65 30 Q36.05 50.75 36.05 54.65 36.05 61.15 41.7 61.15 47.05 61.15 47 55.25 47.05 51.2 45.4 30.2 L59.2 29.1"/>
  </g>
</svg>