<svg id="svgContent" version="1.1" width="346" height="346" style="position: relative; width: 346px; height: 346px; margin: auto; user-select: none; cursor: default; display: none;" xmlns="http://www.w3.org/2000/svg" xmlns:xlink="http://www.w3.org/1999/xlink" viewBox="0 0 346 346"><g id="svgg"><path id="path0" d="M0.000 173.000 L 0.000 346.000 173.000 346.000 L 346.000 346.000 346.000 173.000 L 346.000 0.000 173.000 0.000 L 0.000 0.000 0.000 173.000 M180.331 11.817 L 185.687 12.562 189.367 13.939 L 193.048 15.316 197.037 17.996 L 201.026 20.676 203.921 24.414 L 206.817 28.151 208.968 32.385 L 211.119 36.618 212.725 43.740 L 214.331 50.862 215.185 57.090 L 216.039 63.318 219.053 82.002 L 222.067 100.686 223.442 110.720 L 224.817 120.754 225.294 125.771 L 225.771 130.788 234.504 130.804 L 243.238 130.820 258.808 131.151 L 274.378 131.481 282.608 132.287 L 290.838 133.093 290.386 140.763 L 289.934 148.434 289.618 153.624 L 289.301 158.814 288.936 165.734 L 288.570 172.654 287.580 186.148 L 286.590 199.642 286.153 207.600 L 285.717 215.558 284.687 230.090 L 283.657 244.622 282.639 256.386 L 281.621 268.150 280.233 280.260 L 278.845 292.370 277.814 299.081 L 276.783 305.792 274.755 314.651 L 272.727 323.510 271.335 327.508 L 269.942 331.505 268.945 332.502 L 267.949 333.498 256.977 333.857 L 246.006 334.215 220.402 334.605 L 194.798 334.994 170.232 334.999 L 145.666 335.004 121.792 334.610 L 97.918 334.217 89.719 333.835 L 81.521 333.453 79.896 332.712 L 78.271 331.972 77.139 329.144 L 76.008 326.315 73.678 316.609 L 71.349 306.902 70.325 300.328 L 69.300 293.754 68.217 284.412 L 67.133 275.070 64.703 248.082 L 62.272 221.094 61.952 217.980 L 61.631 214.866 60.890 206.562 L 60.150 198.258 59.500 191.338 L 58.851 184.418 58.466 178.536 L 58.080 172.654 57.019 157.776 L 55.957 142.898 55.575 137.988 L 55.192 133.079 78.631 132.236 L 102.070 131.393 112.104 131.263 L 122.138 131.134 122.307 127.674 L 122.476 124.214 123.214 118.678 L 123.953 113.142 125.953 104.492 L 127.953 95.842 129.347 87.538 L 130.742 79.234 132.531 66.778 L 134.320 54.322 135.372 49.132 L 136.423 43.942 138.423 38.162 L 140.423 32.381 142.613 28.969 L 144.803 25.556 149.352 21.451 L 153.900 17.346 157.819 15.257 L 161.737 13.168 165.466 12.166 L 169.194 11.163 172.085 11.118 L 174.976 11.072 180.331 11.817 M167.753 13.447 L 163.544 14.398 158.566 16.904 L 153.589 19.411 149.521 23.479 L 145.453 27.547 142.629 33.323 L 139.804 39.098 138.682 44.634 L 137.560 50.170 138.026 57.886 L 138.491 65.602 138.467 84.182 L 138.443 102.762 137.638 116.799 L 136.834 130.837 137.233 131.235 L 137.631 131.634 172.097 131.542 L 206.562 131.451 209.258 130.947 L 211.953 130.442 211.806 88.250 L 211.658 46.058 211.052 42.860 L 210.445 39.662 209.130 36.201 L 207.815 32.740 205.714 29.691 L 203.613 26.642 200.014 22.990 L 196.415 19.339 192.437 17.331 L 188.459 15.323 184.363 14.276 L 180.266 13.229 176.114 12.862 L 171.962 12.496 167.753 13.447 " stroke="none" fill="#daa520" fill-rule="evenodd"></path><path id="path1" d="M165.466 12.166 L 161.737 13.168 157.819 15.257 L 153.900 17.346 149.352 21.451 L 144.803 25.556 142.613 28.969 L 140.423 32.381 138.423 38.162 L 136.423 43.942 135.372 49.132 L 134.320 54.322 132.531 66.778 L 130.742 79.234 129.347 87.538 L 127.953 95.842 125.953 104.492 L 123.953 113.142 123.214 118.678 L 122.476 124.214 122.307 127.674 L 122.138 131.134 112.104 131.263 L 102.070 131.393 78.631 132.236 L 55.192 133.079 55.575 137.988 L 55.957 142.898 57.019 157.776 L 58.080 172.654 58.466 178.536 L 58.851 184.418 59.500 191.338 L 60.150 198.258 60.890 206.562 L 61.631 214.866 61.952 217.980 L 62.272 221.094 64.703 248.082 L 67.133 275.070 68.217 284.412 L 69.300 293.754 70.325 300.328 L 71.349 306.902 73.678 316.609 L 76.008 326.315 77.139 329.144 L 78.271 331.972 79.896 332.712 L 81.521 333.453 89.719 333.835 L 97.918 334.217 121.792 334.610 L 145.666 335.004 170.232 334.999 L 194.798 334.994 220.402 334.605 L 246.006 334.215 256.977 333.857 L 267.949 333.498 268.945 332.502 L 269.942 331.505 271.335 327.508 L 272.727 323.510 274.755 314.651 L 276.783 305.792 277.814 299.081 L 278.845 292.370 280.233 280.260 L 281.621 268.150 282.639 256.386 L 283.657 244.622 284.687 230.090 L 285.717 215.558 286.153 207.600 L 286.590 199.642 287.580 186.148 L 288.570 172.654 288.936 165.734 L 289.301 158.814 289.618 153.624 L 289.934 148.434 290.386 140.763 L 290.838 133.093 282.608 132.287 L 274.378 131.481 258.808 131.151 L 243.238 130.820 234.504 130.804 L 225.771 130.788 225.294 125.771 L 224.817 120.754 223.442 110.720 L 222.067 100.686 219.053 82.002 L 216.039 63.318 215.185 57.090 L 214.331 50.862 212.725 43.740 L 211.119 36.618 208.968 32.385 L 206.817 28.151 203.921 24.414 L 201.026 20.676 197.037 17.996 L 193.048 15.316 189.367 13.939 L 185.687 12.562 180.331 11.817 L 174.976 11.072 172.085 11.118 L 169.194 11.163 165.466 12.166 M184.363 14.276 L 188.459 15.323 192.437 17.331 L 196.415 19.339 200.014 22.990 L 203.613 26.642 205.714 29.691 L 207.815 32.740 209.130 36.201 L 210.445 39.662 211.052 42.860 L 211.658 46.058 211.806 88.250 L 211.953 130.442 209.258 130.947 L 206.562 131.451 172.097 131.542 L 137.631 131.634 137.233 131.235 L 136.834 130.837 137.638 116.799 L 138.443 102.762 138.467 84.182 L 138.491 65.602 138.026 57.886 L 137.560 50.170 138.682 44.634 L 139.804 39.098 142.629 33.323 L 145.453 27.547 149.521 23.479 L 153.589 19.411 158.566 16.904 L 163.544 14.398 167.753 13.447 L 171.962 12.496 176.114 12.862 L 180.266 13.229 184.363 14.276 " stroke="none" fill="#46a510" fill-rule="evenodd"></path></g></svg>