<svg id="svgContent" version="1.1" width="346" height="346" style="position: relative; width: 346px; height: 346px; margin: auto; user-select: none; cursor: default; display: none;" xmlns="http://www.w3.org/2000/svg" xmlns:xlink="http://www.w3.org/1999/xlink" viewBox="0 0 103 112"><g id="svgg"><path id="path0" d="M0.090 14.750 L 0.180 29.500 1.527 22.060 L 2.873 14.620 4.473 10.433 L 6.072 6.245 7.788 4.692 L 9.504 3.138 12.502 1.575 L 15.500 0.012 7.750 0.006 L 0.000 0.000 0.090 14.750 M25.855 1.070 L 28.210 2.013 31.020 4.015 L 33.831 6.016 36.531 13.080 L 39.230 20.144 38.644 25.822 L 38.058 31.500 37.420 37.070 L 36.782 42.639 39.937 45.293 L 43.091 47.947 47.048 49.013 L 51.006 50.079 54.901 48.912 L 58.796 47.745 61.389 45.340 L 63.982 42.936 65.357 40.218 L 66.732 37.500 68.002 32.000 L 69.272 26.500 71.149 22.763 L 73.027 19.027 76.974 17.013 L 80.920 15.000 84.992 15.000 L 89.064 15.000 92.282 16.371 L 95.500 17.742 97.835 20.276 L 100.170 22.810 101.541 26.655 L 102.912 30.500 102.956 15.250 L 103.000 0.000 63.250 0.063 L 23.500 0.127 25.855 1.070 M13.030 4.279 L 10.560 5.529 8.462 8.643 L 6.364 11.756 4.543 20.433 L 2.722 29.111 3.265 37.034 L 3.808 44.957 7.821 53.229 L 11.835 61.500 14.668 64.143 L 17.500 66.786 42.260 72.405 L 67.021 78.023 71.819 75.591 L 76.618 73.160 81.644 69.187 L 86.669 65.215 89.817 60.463 L 92.965 55.711 95.032 50.186 L 97.099 44.661 98.512 37.943 L 99.925 31.225 98.982 27.938 L 98.039 24.651 95.317 21.809 L 92.595 18.968 89.016 18.004 L 85.437 17.041 81.596 18.101 L 77.755 19.162 75.356 21.750 L 72.958 24.338 71.404 29.919 L 69.850 35.500 68.819 38.836 L 67.788 42.172 64.660 45.735 L 61.531 49.298 58.298 50.649 L 55.064 52.000 50.492 52.000 L 45.920 52.000 42.018 50.009 L 38.116 48.018 35.656 44.759 L 33.196 41.500 32.113 37.511 L 31.029 33.521 32.717 24.713 L 34.406 15.906 32.953 11.735 L 31.500 7.565 28.102 5.283 L 24.704 3.000 20.102 3.015 L 15.500 3.029 13.030 4.279 M0.079 74.750 L 0.000 112.000 16.382 112.000 L 32.765 112.000 29.055 108.250 L 25.345 104.500 22.999 97.279 L 20.654 90.057 21.577 85.307 L 22.500 80.557 18.305 76.702 L 14.110 72.847 11.095 68.147 L 8.079 63.448 5.439 56.474 L 2.799 49.500 1.479 43.500 L 0.159 37.500 0.079 74.750 M102.000 52.884 L 102.000 54.768 97.991 62.778 L 93.982 70.787 87.574 76.782 L 81.166 82.776 75.494 85.460 L 69.821 88.143 64.471 89.265 L 59.120 90.388 57.404 97.444 L 55.687 104.500 51.961 108.250 L 48.235 112.000 75.618 112.000 L 103.000 112.000 103.000 81.500 L 103.000 51.000 102.500 51.000 L 102.000 51.000 102.000 52.884 " stroke="none" fill="#daa520" fill-rule="evenodd"></path><path id="path1" d="M0.000 56.000 L 0.000 112.000 51.500 112.000 L 103.000 112.000 103.000 56.000 L 103.000 0.000 51.500 0.000 L 0.000 0.000 0.000 56.000 M28.102 5.283 L 31.500 7.565 32.953 11.735 L 34.406 15.906 32.717 24.713 L 31.029 33.521 32.113 37.511 L 33.196 41.500 35.656 44.759 L 38.116 48.018 42.018 50.009 L 45.920 52.000 50.492 52.000 L 55.064 52.000 58.298 50.649 L 61.531 49.298 64.660 45.735 L 67.788 42.172 68.819 38.836 L 69.850 35.500 71.404 29.919 L 72.958 24.338 75.356 21.750 L 77.755 19.162 81.596 18.101 L 85.437 17.041 89.016 18.004 L 92.595 18.968 95.317 21.809 L 98.039 24.651 98.982 27.938 L 99.925 31.225 98.512 37.943 L 97.099 44.661 95.032 50.186 L 92.965 55.711 89.817 60.463 L 86.669 65.215 81.644 69.187 L 76.618 73.160 71.819 75.591 L 67.021 78.023 42.260 72.405 L 17.500 66.786 14.668 64.143 L 11.835 61.500 7.821 53.229 L 3.808 44.957 3.265 37.034 L 2.722 29.111 4.543 20.433 L 6.364 11.756 8.462 8.643 L 10.560 5.529 13.030 4.279 L 15.500 3.029 20.102 3.015 L 24.704 3.000 28.102 5.283 " stroke="none" fill="#46a510" fill-rule="evenodd"></path></g></svg>