<svg id="svgContent" version="1.1" width="346" height="346" style="position: relative; width: 346px; height: 346px; margin: auto; user-select: none; cursor: default; display: none;" xmlns="http://www.w3.org/2000/svg" xmlns:xlink="http://www.w3.org/1999/xlink" viewBox="0 0 103 112"><g id="svgg"><path id="path0" d="M0.000 56.000 L 0.000 112.000 16.577 112.000 L 33.153 112.000 30.041 109.381 L 26.928 106.762 25.464 103.931 L 24.000 101.099 24.000 99.961 L 24.000 98.822 27.045 101.385 L 30.091 103.947 34.045 105.012 L 38.000 106.077 41.955 105.012 L 45.909 103.947 48.884 101.444 L 51.859 98.941 53.359 94.220 L 54.859 89.500 55.490 86.335 L 56.121 83.170 61.311 81.968 L 66.500 80.765 72.835 77.791 L 79.170 74.817 85.436 68.658 L 91.702 62.500 95.247 55.000 L 98.791 47.500 100.896 37.722 L 103.000 27.944 103.000 13.972 L 103.000 0.000 51.500 0.000 L 0.000 0.000 0.000 56.000 M27.701 4.960 L 30.903 6.912 32.451 9.906 L 34.000 12.901 34.000 15.885 L 34.000 18.869 32.491 26.044 L 30.982 33.218 32.083 37.359 L 33.184 41.500 35.650 44.759 L 38.116 48.018 42.018 50.009 L 45.920 52.000 50.492 52.000 L 55.064 52.000 58.298 50.649 L 61.531 49.298 64.723 45.663 L 67.914 42.028 69.457 36.833 L 71.000 31.637 71.000 30.279 L 71.000 28.920 73.010 24.981 L 75.020 21.041 78.260 19.359 L 81.500 17.677 85.788 17.672 L 90.077 17.667 92.726 19.645 L 95.376 21.624 97.355 24.274 L 99.333 26.923 99.312 31.212 L 99.290 35.500 97.611 42.000 L 95.933 48.500 92.988 54.815 L 90.044 61.130 84.732 66.315 L 79.420 71.500 73.396 74.710 L 67.371 77.920 60.660 79.193 L 53.949 80.466 53.369 84.095 L 52.788 87.724 52.070 88.887 L 51.351 90.050 38.579 87.095 L 25.806 84.140 25.338 83.671 L 24.869 83.202 26.034 78.873 L 27.200 74.545 24.850 73.031 L 22.500 71.518 17.173 66.541 L 11.846 61.565 7.809 53.223 L 3.771 44.881 3.261 36.691 L 2.751 28.500 4.508 20.500 L 6.265 12.500 7.612 9.838 L 8.960 7.177 11.615 5.088 L 14.270 3.000 19.385 3.004 L 24.500 3.007 27.701 4.960 M38.582 25.500 L 37.991 32.500 37.171 37.500 L 36.351 42.500 35.088 39.500 L 33.826 36.500 34.372 31.000 L 34.918 25.500 35.602 20.085 L 36.286 14.671 37.730 16.585 L 39.174 18.500 38.582 25.500 M102.000 52.884 L 102.000 54.768 97.991 62.778 L 93.982 70.787 87.574 76.782 L 81.166 82.776 75.494 85.460 L 69.821 88.143 64.471 89.265 L 59.120 90.388 57.404 97.444 L 55.687 104.500 51.961 108.250 L 48.235 112.000 75.618 112.000 L 103.000 112.000 103.000 81.500 L 103.000 51.000 102.500 51.000 L 102.000 51.000 102.000 52.884 M10.507 62.397 L 14.446 68.294 19.223 71.861 L 24.000 75.427 23.985 76.463 L 23.969 77.500 22.961 79.000 L 21.953 80.500 16.536 74.767 L 11.118 69.034 8.059 62.624 L 5.000 56.214 5.000 55.407 L 5.000 54.600 5.784 55.550 L 6.568 56.500 10.507 62.397 " stroke="none" fill="#46a510" fill-rule="evenodd"></path><path id="path1" d="M0.090 14.750 L 0.180 29.500 1.527 22.060 L 2.873 14.620 4.473 10.433 L 6.072 6.245 7.788 4.692 L 9.504 3.138 12.502 1.575 L 15.500 0.012 7.750 0.006 L 0.000 0.000 0.090 14.750 M28.093 2.288 L 32.500 4.576 34.672 9.038 L 36.843 13.500 35.708 20.000 L 34.573 26.500 34.536 33.323 L 34.500 40.146 38.637 44.004 L 42.775 47.862 46.890 48.970 L 51.006 50.079 54.901 48.912 L 58.796 47.745 61.389 45.340 L 63.982 42.936 65.357 40.218 L 66.732 37.500 68.002 32.000 L 69.272 26.500 71.149 22.763 L 73.027 19.027 77.188 16.904 L 81.349 14.781 86.716 15.226 L 92.083 15.671 94.791 17.678 L 97.500 19.684 99.750 22.990 L 102.000 26.296 102.000 29.525 L 102.000 32.755 100.388 40.127 L 98.776 47.500 95.239 55.000 L 91.702 62.500 85.436 68.658 L 79.170 74.817 72.835 77.791 L 66.500 80.765 61.311 81.968 L 56.121 83.170 55.490 86.335 L 54.859 89.500 53.359 94.220 L 51.859 98.941 48.884 101.444 L 45.909 103.947 41.955 105.012 L 38.000 106.077 33.987 104.996 L 29.974 103.916 26.499 100.865 L 23.025 97.815 21.826 93.813 L 20.627 89.811 21.774 84.655 L 22.921 79.500 23.511 77.500 L 24.101 75.500 19.245 71.875 L 14.388 68.251 9.228 60.645 L 4.067 53.040 2.587 47.770 L 1.107 42.500 0.690 40.000 L 0.272 37.500 0.136 74.750 L 0.000 112.000 51.500 112.000 L 103.000 112.000 103.000 56.000 L 103.000 0.000 63.343 -0.000 L 23.685 -0.000 28.093 2.288 " stroke="none" fill="#721125" fill-rule="evenodd"></path><path id="path2" d="M0.090 14.750 L 0.180 29.500 1.527 22.060 L 2.873 14.620 4.473 10.433 L 6.072 6.245 7.788 4.692 L 9.504 3.138 12.502 1.575 L 15.500 0.012 7.750 0.006 L 0.000 0.000 0.090 14.750 M25.855 1.070 L 28.210 2.013 31.020 4.015 L 33.831 6.016 36.531 13.080 L 39.230 20.144 38.644 25.822 L 38.058 31.500 37.420 37.070 L 36.782 42.639 39.937 45.293 L 43.091 47.947 47.048 49.013 L 51.006 50.079 54.901 48.912 L 58.796 47.745 61.389 45.340 L 63.982 42.936 65.357 40.218 L 66.732 37.500 68.002 32.000 L 69.272 26.500 71.149 22.763 L 73.027 19.027 76.974 17.013 L 80.920 15.000 84.992 15.000 L 89.064 15.000 92.282 16.371 L 95.500 17.742 97.835 20.276 L 100.170 22.810 101.541 26.655 L 102.912 30.500 102.956 15.250 L 103.000 0.000 63.250 0.063 L 23.500 0.127 25.855 1.070 M13.030 4.279 L 10.560 5.529 8.462 8.643 L 6.364 11.756 4.543 20.433 L 2.722 29.111 3.265 37.034 L 3.808 44.957 7.821 53.229 L 11.835 61.500 14.668 64.118 L 17.500 66.737 42.318 72.351 L 67.135 77.965 71.877 75.562 L 76.618 73.160 81.644 69.187 L 86.669 65.215 89.817 60.463 L 92.965 55.711 95.032 50.186 L 97.099 44.661 98.512 37.943 L 99.925 31.225 98.982 27.938 L 98.039 24.651 95.317 21.809 L 92.595 18.968 89.016 18.004 L 85.437 17.041 81.596 18.101 L 77.755 19.162 75.356 21.750 L 72.958 24.338 71.404 29.919 L 69.850 35.500 68.819 38.836 L 67.788 42.172 64.660 45.735 L 61.531 49.298 58.298 50.649 L 55.064 52.000 50.492 52.000 L 45.920 52.000 42.018 50.009 L 38.116 48.018 35.656 44.759 L 33.196 41.500 32.113 37.511 L 31.029 33.521 32.717 24.713 L 34.406 15.906 32.953 11.735 L 31.500 7.565 28.102 5.283 L 24.704 3.000 20.102 3.015 L 15.500 3.029 13.030 4.279 M0.079 74.750 L 0.000 112.000 16.382 112.000 L 32.765 112.000 29.055 108.250 L 25.345 104.500 22.999 97.279 L 20.654 90.057 21.577 85.307 L 22.500 80.557 18.305 76.702 L 14.110 72.847 11.095 68.147 L 8.079 63.448 5.439 56.474 L 2.799 49.500 1.479 43.500 L 0.159 37.500 0.079 74.750 M102.000 52.884 L 102.000 54.768 97.991 62.778 L 93.982 70.787 87.574 76.782 L 81.166 82.776 75.494 85.460 L 69.821 88.143 64.471 89.265 L 59.120 90.388 57.404 97.444 L 55.687 104.500 51.961 108.250 L 48.235 112.000 75.618 112.000 L 103.000 112.000 103.000 81.500 L 103.000 51.000 102.500 51.000 L 102.000 51.000 102.000 52.884 " stroke="none" fill="#daa520" fill-rule="evenodd"></path><path id="path3" d="M0.090 14.750 L 0.180 29.500 1.527 22.060 L 2.873 14.620 4.473 10.433 L 6.072 6.245 7.788 4.692 L 9.504 3.138 12.502 1.575 L 15.500 0.012 7.750 0.006 L 0.000 0.000 0.090 14.750 M25.855 1.070 L 28.210 2.013 31.020 4.015 L 33.831 6.016 36.531 13.080 L 39.230 20.144 38.644 25.822 L 38.058 31.500 37.420 37.070 L 36.782 42.639 39.937 45.293 L 43.091 47.947 47.048 49.013 L 51.006 50.079 54.901 48.912 L 58.796 47.745 61.389 45.340 L 63.982 42.936 65.357 40.218 L 66.732 37.500 68.002 32.000 L 69.272 26.500 71.149 22.763 L 73.027 19.027 76.974 17.013 L 80.920 15.000 84.992 15.000 L 89.064 15.000 92.282 16.371 L 95.500 17.742 97.835 20.276 L 100.170 22.810 101.541 26.655 L 102.912 30.500 102.956 15.250 L 103.000 0.000 63.250 0.063 L 23.500 0.127 25.855 1.070 M0.079 74.750 L 0.000 112.000 16.382 112.000 L 32.765 112.000 29.055 108.250 L 25.345 104.500 22.999 97.279 L 20.654 90.057 21.577 85.307 L 22.500 80.557 18.305 76.702 L 14.110 72.847 11.095 68.147 L 8.079 63.448 5.439 56.474 L 2.799 49.500 1.479 43.500 L 0.159 37.500 0.079 74.750 M102.000 52.884 L 102.000 54.768 97.991 62.778 L 93.982 70.787 87.574 76.782 L 81.166 82.776 75.494 85.460 L 69.821 88.143 64.471 89.265 L 59.120 90.388 57.404 97.444 L 55.687 104.500 51.961 108.250 L 48.235 112.000 75.618 112.000 L 103.000 112.000 103.000 81.500 L 103.000 51.000 102.500 51.000 L 102.000 51.000 102.000 52.884 M20.033 69.177 L 22.565 71.500 24.883 73.022 L 27.200 74.545 26.034 78.873 L 24.869 83.202 25.338 83.671 L 25.806 84.140 38.579 87.095 L 51.351 90.050 52.070 88.887 L 52.788 87.724 53.385 83.992 L 53.982 80.260 58.950 79.601 L 63.918 78.942 64.394 78.171 L 64.871 77.400 43.686 72.625 L 22.500 67.850 20.000 67.352 L 17.500 66.853 20.033 69.177 " stroke="none" fill="#5afffa" fill-rule="evenodd"></path><path id="path4" d="M0.090 14.750 L 0.180 29.500 1.527 22.060 L 2.873 14.620 4.473 10.433 L 6.072 6.245 7.788 4.692 L 9.504 3.138 12.502 1.575 L 15.500 0.012 7.750 0.006 L 0.000 0.000 0.090 14.750 M25.855 1.070 L 28.210 2.013 31.020 4.015 L 33.831 6.016 36.531 13.080 L 39.230 20.144 38.644 25.822 L 38.058 31.500 37.420 37.070 L 36.782 42.639 39.937 45.293 L 43.091 47.947 47.048 49.013 L 51.006 50.079 54.901 48.912 L 58.796 47.745 61.389 45.340 L 63.982 42.936 65.357 40.218 L 66.732 37.500 68.002 32.000 L 69.272 26.500 71.149 22.763 L 73.027 19.027 76.974 17.013 L 80.920 15.000 84.992 15.000 L 89.064 15.000 92.282 16.371 L 95.500 17.742 97.835 20.276 L 100.170 22.810 101.541 26.655 L 102.912 30.500 102.956 15.250 L 103.000 0.000 63.250 0.063 L 23.500 0.127 25.855 1.070 M0.079 74.750 L 0.000 112.000 16.382 112.000 L 32.765 112.000 29.055 108.250 L 25.345 104.500 22.999 97.279 L 20.654 90.057 21.577 85.307 L 22.500 80.557 18.305 76.702 L 14.110 72.847 11.095 68.147 L 8.079 63.448 5.439 56.474 L 2.799 49.500 1.479 43.500 L 0.159 37.500 0.079 74.750 M102.000 52.884 L 102.000 54.768 97.991 62.778 L 93.982 70.787 87.574 76.782 L 81.166 82.776 75.494 85.460 L 69.821 88.143 64.471 89.265 L 59.120 90.388 57.404 97.444 L 55.687 104.500 51.961 108.250 L 48.235 112.000 75.618 112.000 L 103.000 112.000 103.000 81.500 L 103.000 51.000 102.500 51.000 L 102.000 51.000 102.000 52.884 " stroke="none" fill="#ffe5ea" fill-rule="evenodd"></path></g></svg>