<?xml version="1.0" encoding="iso-8859-1"?>
<!-- Generator: Adobe Illustrator 16.0.0, SVG Export Plug-In . SVG Version: 6.00 Build 0)  -->
<!DOCTYPE svg PUBLIC "-//W3C//DTD SVG 1.1//EN" "http://www.w3.org/Graphics/SVG/1.1/DTD/svg11.dtd">
<svg version="1.1" id="Layer_1" xmlns="http://www.w3.org/2000/svg" xmlns:xlink="http://www.w3.org/1999/xlink" x="0px" y="0px"
	 width="150px" height="150px" viewBox="0 0 150 150" style="enable-background:new 0 0 150 150;" xml:space="preserve">
<path style="fill-rule:evenodd;clip-rule:evenodd;fill:#010101;" d="M136.55,85.65c-0.2,0.267-0.384,0.55-0.55,0.85
	c-10.467,15.967-24.967,31.1-43.5,45.4c-0.967,0.699-1.934,1.416-2.9,2.149c-5.166,3.634-9.899,5.367-14.2,5.2
	c-0.066,0-0.117,0-0.15,0h-0.1c-0.066,0-0.117,0-0.15,0c-4.3,0.167-9.033-1.566-14.2-5.2c-0.966-0.733-1.933-1.45-2.9-2.149
	C39.367,117.6,24.867,102.467,14.4,86.5c-0.167-0.3-0.35-0.583-0.55-0.85C6.417,73.184,3.183,61.1,4.15,49.4
	c0.934-11.667,5.917-20.867,14.95-27.6c14.4-10.733,30.583-10.867,48.55-0.4c2.533,1.5,4.983,2.2,7.35,2.1c0.067,0,0.133,0,0.2,0
	c0.066,0,0.133,0,0.2,0c2.367,0.067,4.817-0.633,7.35-2.1c17.967-10.467,34.15-10.333,48.55,0.4
	c9.034,6.733,14.017,15.934,14.95,27.6C147.217,61.1,143.983,73.184,136.55,85.65z"/>
</svg>
