<?xml version="1.0" encoding="utf-8"?>
<!-- Generator: Adobe Illustrator 16.0.0, SVG Export Plug-In . SVG Version: 6.00 Build 0)  -->
<!DOCTYPE svg PUBLIC "-//W3C//DTD SVG 1.1//EN" "http://www.w3.org/Graphics/SVG/1.1/DTD/svg11.dtd">
<svg version="1.1" id="Layer_1" xmlns="http://www.w3.org/2000/svg" xmlns:xlink="http://www.w3.org/1999/xlink" x="0px" y="0px"
	 width="160px" height="160px" viewBox="0 0 160 160" enable-background="new 0 0 160 160" xml:space="preserve">
<path fill="none" stroke="#ED1C24" stroke-width="0.25" stroke-miterlimit="10" d="M158.426,129.984c0,0-33.322,1.453-57.722-23.91
	l-0.561-0.213l-2.614,7.314l-9.29-5.25l-5.06,6.883l-7.318-6.188l-7.317,6.188l-5.061-6.883l-9.292,5.25l-2.613-7.314l-10.906,4.117
	l-0.062-7.464l-12.106,2.825l2.49-7.327l-12.838,1.419l4.948-6.907l-13.077-0.037l7.212-6.228L4.429,84.77l9.202-5.304L1.575,76.58
	l10.838-4.176L1.575,68.227l12.058-2.889L4.43,60.035l12.811-1.493l-7.212-6.224l13.077-0.036l-4.948-6.908l12.838,1.42l-2.49-7.328
	l12.106,2.823l0.062-7.463l10.906,4.117l2.613-7.312l9.292,5.25L68.545,30l7.317,6.187L83.181,30l5.061,6.882l9.288-5.25
	l2.615,7.312l10.904-4.117l0.062,7.463l12.108-2.823l-2.489,7.328l12.836-1.42l-4.946,6.908l13.075,0.036l-7.21,6.224l12.81,1.493
	l-9.202,5.303l12.059,2.889l-10.839,4.176l10.839,4.176l-12.059,2.888l9.202,5.304l-12.81,1.493l7.21,6.224l-13.075,0.037
	l4.946,6.907l-12.281-1.358C124.135,105.102,133.984,124.221,158.426,129.984z"/>
</svg>
