<?xml version="1.0" standalone="no"?>
<!DOCTYPE svg PUBLIC "-//W3C//DTD SVG 1.1//EN" "http://www.w3.org/Graphics/SVG/1.1/DTD/svg11.dtd">
<svg xmlns="http://www.w3.org/2000/svg">
<metadata>Generated by Fontastic.me</metadata>
<defs>
<font id="fontinkxe" horiz-adv-x="512">
<font-face font-family="fontinkxe" units-per-em="512" ascent="480" descent="-32"/>
<missing-glyph horiz-adv-x="512" />

<glyph glyph-name="3d-view-icon" unicode="&#57344;" d="M262 271l151 90-156 90-159-91z m-14-206l0 187-161 87 0-182z m24 186l0-183 154 89 0 184z m-15 226c2 0 5 0 7-1l181-106c1-1 3-2 4-4 1-2 1-4 1-6l0-209c0-2 0-4-1-6-1-2-3-3-4-4l-181-105c-2-1-5-2-7-2-2 0-4 1-6 2l-182 105c-2 1-3 2-4 4-1 2-2 4-2 6l0 209c0 2 1 4 2 6 1 2 2 3 4 4l182 106c2 1 4 1 6 1z"/>
<glyph glyph-name="image-frame-icon" unicode="&#57345;" d="M136 424l-25 0 0-310 225 0 0 89-148 0c-2 0-4 0-5 0-1 0-1 0-2 0-11 2-21 7-30 15-10 10-15 22-15 37l0 169z m253 44c2-2 3-5 3-8l0-202 70 0c3 0 5-1 7-2 2-1 3-3 4-6 1-2 2-4 1-6-2-10-7-19-15-26l0 0c-9-10-22-15-36-15l-2 0c-1 0-2 0-3 0l-59 0 0-100c0-3-1-6-3-9-3-2-6-3-9-3l-38 0 0-39c0-3-1-6-3-8-3-2-6-3-9-3l-248 0c-3 0-5 1-7 3-3 2-4 5-4 8l0 333c0 3 1 5 4 7 2 3 4 4 7 4l39 0 0 39c0 3 1 6 4 8 2 3 4 4 7 4l37 0 0 13c0 3 1 6 4 8 2 2 5 3 8 3l232 0c3 0 6-1 9-3z m-149-123l36-26 36 26-14 43-44 0z m73 64c2-1 3-3 4-6l19-59c1-2 1-4 1-7-1-2-3-4-5-5l-49-36c-2-2-5-3-7-3-3 0-5 1-7 3l-50 36c-2 1-3 3-4 5-1 3-1 5 0 8l19 59c1 2 3 4 5 5 2 2 4 2 6 2l61 0c2 0 5 0 7-2z m-252-36l0-309 225 0 0 27-187 0c-3 0-5 1-7 3-3 3-4 6-4 9l0 270z m357-147c1 0 2 0 3 0l2 0c7 0 14 2 20 8l0 1-205 0c-1-3-3-6-5-9z m-208 8l1 1c4 4 7 9 8 14 0 2 1 4 4 6 2 2 4 3 7 3l139 0 0 190-210 0 0-193c0-8 3-15 9-21 4-5 10-7 17-8 1 0 2 0 3 0l3 0c8 0 14 2 19 8z"/>
<glyph glyph-name="anchor-point-icon" unicode="&#57346;" d="M59 243c0-1-1-1-1-1-4-5-6-10-6-15 0-6 3-11 7-14 3-5 8-7 14-7 5 0 10 2 14 7 0 0 0 0 1 0 3 4 5 9 5 14 0 6-2 11-5 15-4 3-8 5-12 5-1 0-2 0-3 0-5 0-10-1-14-4z m188 20c-7-14-15-25-23-35l23-141 34 0 20 139c-11 13-21 27-30 43l0-63c0-3-1-6-3-9-3-2-6-4-9-4-3 0-6 2-8 4-3 3-4 6-4 9z m-8 154c-6-5-8-11-8-19l0 0c0-1 0-1 0-2l0-1c0-6 3-11 8-16 5-5 11-7 19-7l1 0c7 0 13 3 18 7 4 5 7 10 7 16 0 1 0 2 0 3l0 0c0 8-2 14-7 19-5 6-12 8-19 8-8 0-14-3-19-8z m-194-4c-4-4-6-9-6-15 0-6 2-11 7-14 3-4 8-6 14-6 5 0 10 2 14 6 0 0 0 1 1 1 3 3 5 8 5 13l0 0c0 7-2 11-5 15-4 3-8 5-13 5-1 0-1 0-2 0-5 0-10-1-14-4 0-1-1-1-1-1z m388-167c0 0-1 0-2 0-3 0-7-1-10-3 0-1 0-1-1-1-3-5-5-10-5-15 0-6 2-11 6-14 4-5 9-7 15-7 5 0 9 2 14 7 0 0 0 0 0 0 4 4 6 9 6 14 0 6-2 11-6 15-4 3-9 5-14 5-1 0-2 0-2-1z m3 167c-3-4-5-8-5-15 0-6 2-11 6-14 4-4 9-6 15-6 5 0 10 2 14 6 0 0 0 1 0 1 4 3 6 8 6 13 0 7-2 11-6 15-3 3-7 5-12 5-1 0-2 0-2 0-6 0-11-1-15-4 0-1 0-1-1-1z m20 30c0 0 1 0 1 0 10-2 19-6 26-13 9-9 13-19 13-32 0-12-4-22-13-30 0-1 0-1 0-1-9-9-19-13-31-13-12 0-23 4-32 13-6 5-10 11-11 19l-61 0c15-9 29-19 42-32 24-24 41-52 50-82 11-2 20-6 27-13 9-9 13-20 13-32 0-13-4-23-13-31 0-1 0-1-1-1-8-8-18-12-30-12-13 0-23 4-32 12-8 9-13 19-13 32 0 12 4 23 12 32l1 0c4 4 8 6 12 7-8 27-22 51-42 71-21 20-44 35-69 42-2-6-6-12-11-17-7-6-14-10-23-13l0-1c1-2 1-3 2-5 8-44 25-79 50-105 1-1 2-2 2-4 1-1 1-3 1-5l-22-156c-1-3-2-6-4-8-3-1-6-2-9-2l-55 0c-3 0-5 1-7 2-2 2-4 4-4 7l-27 157c0 3 0 4 1 6 1 2 2 3 3 4 20 20 35 52 45 96l0 14c-10 2-18 6-25 13-6 6-10 12-12 19-29-7-54-22-76-44-21-20-35-44-42-70 4-2 9-5 13-8 8-9 13-20 13-32 0-13-5-23-13-31 0-1-1-1-1-1-8-8-18-12-31-12-13 0-23 4-31 12-9 9-13 19-13 32 0 12 4 23 11 32 0 0 1 0 2 0 7 7 16 11 26 11 8 32 24 60 49 84 13 13 27 23 41 32l-55 0c-2-7-6-13-11-18 0-1-1-1-1-1-8-9-19-13-31-13-12 0-23 4-31 13-9 9-13 19-13 31 0 13 4 23 12 32 0 0 0 1 1 1 8 8 19 12 31 12 1 0 2 0 4 0 1 0 1 0 2 0 10-2 18-6 26-13 5-5 9-12 11-19l105 0c2 9 7 17 14 23 9 10 21 15 36 15 13 0 25-5 36-15 6-6 11-14 13-23l102 0c1 6 5 13 11 19 0 0 0 1 0 1 9 8 20 12 32 12 1 0 2 0 4 0z"/>
<glyph glyph-name="right-arrow-icon-1" unicode="&#57347;" d="M147 466c2 3 5 4 8 4 3 0 6-1 8-4l203-202c2-2 3-5 3-8 0-3-1-6-3-8l-203-203c-2-2-5-3-8-3-3 0-6 1-8 3-3 2-4 5-4 8 0 3 1 6 4 8l194 195-194 194c-3 3-4 6-4 9 0 3 1 5 4 7z"/>
<glyph glyph-name="background-icon" unicode="&#57348;" d="M182 95c-3 0-6 1-8 3l-59 59-49-49 0-42 380 0 0 51-45 46-63-63c-3-2-6-3-9-3-3 0-5 1-7 3l-66 65-66-67c-2-2-5-3-8-3z m156 111c-3-2-6-3-9-3-3 0-5 1-7 3l-66 66-66-67c-2-2-5-3-8-3-3 0-6 1-8 3l-59 59-49-49 0-75 41 41c2 3 5 4 8 4 3 0 6-1 9-4l58-58 67 66c2 2 4 4 7 4 3 0 6-2 9-4l64-65 64 62c2 3 5 4 8 4 3 0 6-1 8-4l37-36 0 74-45 45z m55 87c2 3 5 4 8 4 3 0 6-1 8-4l37-37 0 75-45 45-63-63c-3-2-6-3-9-3-3 0-5 1-7 3l-66 65-66-66c-2-2-5-3-8-3-3 0-6 1-8 3l-59 59-49-49 0-75 41 41c2 2 5 4 8 4 3 0 6-2 9-4l58-59 67 67c2 2 4 3 7 3 3 0 6-1 9-3l64-65z m8 111c3 0 6-1 8-4l37-37 0 83-380 0 0-92 41 41c2 2 5 3 8 3 3 0 6-1 9-3l58-59 67 66c2 3 4 4 7 4 3 0 6-1 9-4l64-64 64 62c2 3 5 4 8 4z m57 65c3 0 6-1 8-4 2-2 3-4 3-7l0-404c0-3-1-6-3-8-2-2-5-3-8-3l-404 0c-3 0-5 1-7 3-3 2-4 5-4 8l0 404c0 3 1 5 4 7 2 3 4 4 7 4z"/>
<glyph glyph-name="template-icon" unicode="&#57350;" d="M278 391c2-2 4-4 4-6 1-2 1-4 1-6l-3-9 7-6c2-1 3-3 4-6 1-2 1-4 1-6-1-3-2-5-4-6-2-2-4-3-7-3l-10 0-2-9c-1-2-3-4-4-6-2-1-4-2-7-2-2 0-5 1-7 2-2 1-3 3-4 6l-3 9-10 0c-2 0-4 1-6 3-2 1-3 3-4 5-1 2-1 5 0 7 0 2 1 4 3 6l8 5-2 10c-1 2-1 4 0 6 1 3 2 5 4 6 2 1 4 2 6 2 3 0 5-1 7-2l7-6 9 6c2 1 4 2 6 2 2 0 4-1 6-2z m138-230l0 14-325 0 0-14 163-93z m19 78c0 2 1 4 2 5l14 25-391 0 15-33c1-1 1-3 1-4 0-2 0-4-1-6l-14-28 391 0-15 37c-1 1-2 3-2 4z m-19 53l0 57-162 94-163-94 0-57z m21 69c1-1 1-3 1-5l0-64 32 0c2 0 5-1 7-3 2-2 3-4 4-6 0-3 0-5-2-8l-20-37 21-47c1-2 1-5 1-7-1-3-2-5-4-6-2-2-5-3-7-3l-32 0 0-20c0-2 0-4-1-6-1-1-3-3-4-4l-173-99c-2-1-4-2-6-2-2 0-4 1-6 2l-174 99c-2 1-3 3-4 4-1 2-2 4-2 6l0 20-26 0c-2 0-5 1-7 3-2 2-3 4-3 6-1 3-1 5 0 7l21 41-21 43c-1 3-1 5 0 8 0 2 1 4 3 6 2 2 5 3 7 3l26 0 0 64c0 2 1 4 2 5 1 2 2 4 4 5l174 100c2 1 4 2 6 2 2 0 4-1 6-2l173-100c1-1 3-3 4-5z"/>
<glyph glyph-name="banner-design-icon" unicode="&#57351;" d="M436 223l0 186-360 0 0-186z m-147-25l0-26 68 0 0 26z m-69-26l0 26-65 0 0-26z m44 0l0 26-19 0 0-26 1 0 0-26-1 0 0-89 19 0 0 89-1 0 0 26z m65 285c-1 0-1 1-2 4 0 3 0 6 0 9 0 3 0 6 0 9 1 2 1 4 2 4l59 0c1 0 1-2 2-4 0-3 0-6 0-9 0-3 0-6 0-9-1-3-1-4-2-4l-18 0 0-23 80 0c3 0 6-1 9-4 2-2 3-5 3-8l0-211c0-4-1-7-3-10-3-2-6-3-9-3l-67 0 0-26 65 0c3 0 6-2 9-4 2-3 3-6 3-9 0-3-1-6-3-9-3-3-6-4-9-4l-159 0 0-91 85 0c3 0 6-2 9-4 2-2 3-5 3-9 0-4-1-7-3-9-3-2-6-4-9-4l-239 0c-3 0-5 2-8 4-3 2-5 5-5 9 0 4 2 6 5 9 3 2 5 4 8 4l85 0 0 91-158 0c-3 0-5 1-8 4-3 3-4 6-4 9 0 3 1 6 4 9 3 2 5 4 8 4l67 0 0 26-67 0c-3 0-5 1-8 3-3 3-4 6-4 10l0 211c0 3 1 6 4 8 3 3 5 4 8 4l75 0 0 23-16 0c-1 0-1 1-2 4 0 3 0 6 0 9 0 3 0 6 0 9 1 2 1 4 2 4l59 0c0 0 1-2 2-4 0-3 0-6 0-9 0-3 0-6 0-9-1-3-2-4-2-4l-18 0 0-23 183 0 0 23z"/>
<glyph glyph-name="text-art-icon" unicode="&#57352;" d="M256 93c-63 0-117-11-162-35-12-6-23-13-32-21-3-2-5-3-8-2-4 0-6 1-8 4-2 2-3 5-3 8 1 3 2 6 5 8 10 8 22 16 36 24 47 24 105 37 172 37 67 0 124-13 173-37l0-1c14-7 26-15 36-23 2-2 3-5 4-8 0-3-1-6-3-8-2-3-4-4-7-4-4-1-6 0-9 2-9 8-19 15-32 22l0-1c-45 24-99 35-162 35z m-12 250l-15 0c-8 0-14 0-18-1-5 0-8-1-11-3-2-2-3-4-4-6-3-2-5-5-7-11-1-5-3-11-5-19l-12 0c1 12 1 23 2 32 0 11 1 21 1 30l8 0c3-4 6-6 8-7 3-1 6-2 11-2l123 0c3 0 6 1 9 3 3 1 5 3 8 6l9 0c0-5 0-10 0-17 0-7 0-14 1-22 0-7 1-15 1-21l-12-2c-1 8-3 15-5 20-2 5-4 9-7 11-1 2-3 4-5 5-2 2-6 4-11 4-3 0-8 0-14 0l-19 0 0-153c0-8 1-14 3-18 1-4 4-7 9-9 4-2 11-2 20-3l0-11-98 0 0 11c9 1 16 1 20 3 4 2 7 5 9 9 1 4 2 10 1 18l0 153z m206 132c3 2 5 3 8 2 3 0 6-1 8-4 2-2 3-5 3-8-1-3-2-6-4-8-11-9-24-17-38-24l0 1c-47-26-104-38-171-39-67 0-125 13-173 38l1 0c-15 7-27 16-37 25-2 2-4 5-4 8 0 3 1 6 3 8 3 2 5 3 8 3 3 0 6-1 9-3 8-8 18-14 30-20l1 0c45-24 99-36 162-36 63 0 116 12 161 35l0 1c13 6 24 13 33 21z"/>
<glyph glyph-name="cap-icon" unicode="&#57353;" d="M251 433c-1-2-2-4-2-8l0-9c3 0 5 0 7 0 2 0 3 0 5 0 3 0 7 0 10-1l0 10c0 4-1 6-3 8-3 2-5 3-8 3-3 0-6-1-8-2z m164-334l0 38c-7 7-16 12-25 18l0 0c-36 21-80 32-129 34-4 0-8 0-12 0-55 0-102-11-141-34-5-2-10-6-14-9l0-47c0-10 2-17 6-21 5-2 12-2 21 0 47 28 94 42 140 41 44 0 87-13 129-39 9-3 15-3 20 0 3 3 5 10 5 19z m14 108c0 52-17 96-52 132-27 30-60 47-96 52-1 0-2 0-3 1-6 1-12 1-17 1-2 0-3 0-5 0-6 0-11 0-17-1l-1 0c-40-4-75-22-104-53l0 0c-34-36-51-80-51-132 0-13 1-26 4-38 3 2 6 4 9 6 43 25 94 37 153 37 4 0 8 0 12 0l0 0c55-2 101-14 141-37 8-5 15-10 22-15 3 15 5 31 5 47z m-35 148c39-41 58-90 58-148 0-25-4-49-12-71 0-2-1-3-2-4l0-33c0-19-5-32-15-38-10-8-23-8-41-2-1 1-2 1-3 1-39 24-78 36-118 36-42 1-85-13-129-39-1-1-2-1-3-2-19-4-34-3-43 5-10 7-15 20-15 39l0 42c-1 2-2 4-2 6-6 19-9 39-9 60 0 58 19 107 57 148 31 33 68 53 109 59l0 11c0 10 3 18 9 24 0 1 1 1 1 1 7 6 15 9 24 9 9 0 17-3 24-10 6-6 10-14 10-24l0-13c38-7 71-26 100-57z"/>
<glyph glyph-name="cart-icon" unicode="&#57354;" d="M419 239l30 129-298-1 47-146z m-59-142c-4-5-6-9-6-15 0-6 2-11 6-15 4-4 9-6 15-6 5 0 10 2 14 6 4 4 6 9 6 15 0 6-2 10-6 15-4 4-9 6-14 6-6 0-11-2-15-6z m-27-15c0 11 4 21 12 29 8 9 18 13 30 13 11 0 21-4 29-13 8-8 13-18 13-29 0-11-5-21-13-30-8-8-18-12-29-12-12 0-22 4-30 12-8 9-12 19-12 30z m-91 0c0 6-2 10-6 15-4 4-9 6-15 6-5 0-10-2-14-6-4-5-6-9-6-15 0-6 2-11 6-15 4-4 9-6 14-6 6 0 11 2 15 6 4 4 6 9 6 15z m9 29c8-8 12-18 12-29 0-11-4-21-12-30-8-8-18-12-30-12-11 0-21 4-29 12-8 9-13 19-13 30 0 11 5 21 13 29 8 9 18 13 29 13 12 0 22-4 30-13z m212 278c2 1 4 0 6-1 2-2 3-3 4-5 0-2 1-4 0-7l-35-150c-1-2-2-4-4-5-1-2-3-3-6-3l-236-19c-1 0-2 0-4 0l-1 0c-6 0-11-2-15-6-1 0-1 0-1 0-4-5-6-10-6-16l0-4c0-6 2-11 6-15 5-5 10-7 16-7l250 0c3 0 6-1 8-3 2-2 3-5 3-8 0-3-1-5-3-7-2-2-5-3-8-3l-250 0c-12 0-22 4-31 13-8 8-12 18-12 30l0 4c0 12 4 22 12 31 0 0 0 0 1 0 5 6 12 9 19 11l-50 156 0 0-17 56-63 20c-3 1-5 3-6 6-1 2-2 5-1 7 1 3 3 5 6 7 2 1 5 1 8 0l68-22c1 0 3-1 4-2 1-2 2-3 3-5l17-53z"/>
<glyph glyph-name="clear-all-icon" unicode="&#57355;" d="M291 239l-34 26-72-38 7-42z m-170 210l-8-4c-2-1-3-3-4-5 0-2 0-4 1-6l93-173 23 12-93 173c-1 2-3 4-5 5-2 0-5-1-7-2z m300-277c1-1 2-3 3-5 1-2 1-4 1-6-1-2-3-4-4-6-19-19-39-35-60-50l-1-1c-27-18-56-32-86-44l0-1c-23-8-46-15-69-20-2 0-4 0-6 1-2 0-4 1-4 3-2 2-3 4-3 5l-19 116 1 1-1 1 0 1c0 0 0 0 0 0l-10 63c0 2 0 5 1 7 0 2 1 4 4 5l16 9-93 173c-4 7-5 14-3 22l0 1c3 8 8 13 15 17l9 5c7 4 15 5 22 2 8-2 14-7 17-14l93-173 8 3c2 1 4 2 7 1 2 0 4 0 6-1l53-40 1 0z m-65-44c14 11 27 22 41 34l-86 63-115-63 16-99c15 4 30 9 45 14l-19 58c-1 3-1 5 0 8 2 3 4 4 7 5 3 1 5 1 8-1 3-1 4-3 5-6l19-57c21 9 41 20 60 32l-40 44c-2 2-3 4-3 7-1 4 1 7 4 9 1 1 3 2 6 3 4-1 7-2 9-5z"/>
<glyph glyph-name="flyer-icon" unicode="&#57357;" d="M339 102l96-23 1 326-97 27z m-244 81c3 1 6 1 9 0l70-18c3-1 6-2 7-5 2-3 2-6 2-9-1-3-3-5-6-7-3-1-6-2-9-1l-71 18c-3 1-5 3-6 5-2 4-2 7-1 10 0 3 2 5 5 7z m145-43c-4 2-5 4-6 7-1 3-1 6 1 9 1 3 4 5 7 5l51 14c3 1 6 1 9-1 2-1 4-4 5-7 1-3 0-6-1-9-2-3-4-4-7-5l-51-14c-3-1-6 0-8 1z m64 78c-2-3-4-4-7-5l-51-14c-3-1-5 0-8 1-3 2-5 4-5 7-1 3-1 6 0 9 2 3 4 5 7 5l51 14c3 1 6 1 9-1 3-1 5-4 6-7 0-3 0-6-2-9z m-111 186l-117 34 0-326 117-38z m123 27l-100-27 0-331 100 30z m-27-40c4 1 7 1 10-1 2-2 4-4 5-7 1-3 0-6-2-9-1-3-3-4-6-6l-51-13c-3-1-6 0-9 1-3 2-4 4-5 7-1 3-1 6 1 9 1 3 4 4 7 5z m-194-112c3 2 6 2 9 1l70-18c3-1 6-3 7-6 2-2 2-5 2-8-1-3-3-5-6-7-3-2-6-2-9-2l-71 19c-3 1-5 3-6 5-2 3-2 6-1 9 0 4 2 6 5 7z m0 96c3 1 6 1 9 0l70-18c3-1 6-2 7-5 2-3 2-6 2-9-1-3-3-5-6-7-3-1-6-2-9-1l-71 18c-3 1-5 3-6 5-2 4-2 7-1 10 0 3 2 5 5 7z m256-89c-2 3-3 6-2 9 1 3 2 5 5 7 3 2 6 2 9 1l54-12c2-1 5-2 7-5 1-2 2-5 1-9-1-2-2-5-5-7-3-1-5-2-8-1l-54 12c-3 1-6 3-7 5z m106 135c1-2 2-4 2-6l-1-351c0-2 0-5-1-7-2-1-3-2-6-3-2-1-4-2-6-1l-119 28-115-34c-1 0-3 0-4 0l-1 0-1 0c-1 0-2 0-3 0l-141 45c-2 1-4 3-6 5-1 2-2 4-2 7l0 350c0 2 1 4 2 6 2 2 4 3 6 4 2 2 5 2 7 0l137-39 121 33c2 1 4 1 6 0l119-33c2 0 4-1 6-4z"/>
<glyph glyph-name="flipflop-icon" unicode="&#57358;" d="M341 474c43 3 81-26 113-89 19-5 28-20 28-44l0-40c0-22-7-36-22-43 18-9 27-21 26-36 1-13-7-25-25-35l0-87c0-17-6-32-18-44-12-12-26-18-43-18l-40 0c-17 0-32 6-44 18-12 12-18 27-18 44l0 87c-1 1-3 2-4 2-15 8-22 22-20 41l0 118c0 11 4 20 11 28 2 2 4 4 6 5l0 43c0 13 5 25 14 35 6 6 12 9 19 11l-1 0c6 3 11 4 17 4z m-9-25l-1-1c-3 0-6-2-9-5-6-5-8-12-8-19l0-36 112 0c-25 43-53 64-84 63l-1 0c-3 0-6-1-9-2z m102-84l-122 0c-1 0-2 0-3 0 0 0-1-1-2-1-2-1-3-2-5-4-4-3-5-7-5-12l0-93c2 2 4 3 7 4l1 0 0 0c11 6 21 11 31 13 10 2 21 3 31 3 2 1 5 1 7 1l49 0c-3 0-5-1-6-1l20 0c15 1 22 9 22 26l0 40c0 5-1 10-3 14-2 3-4 5-7 6-3 2-7 3-13 4-1 0-1 0-2 0z m-290-113l0 0c-35 1-58-3-70-13l0-139c0-11 4-20 11-28 7-7 16-11 27-11l40 0c11 0 20 4 28 11 7 8 10 17 10 28l0 142c-7 4-13 6-20 7-8 2-16 3-26 3z m61 112c-1 0-2 1-2 1-1 0-2 0-3 0l-122 0c-1 0-1 0-2 0-6-1-10-2-13-4-3-1-5-3-7-6-2-4-3-9-3-14l0-40c0-17 7-25 22-26l21 0c-2 0-4 1-7 1l49 0c2 0 5 0 7-1 10 0 21-1 31-3 10-2 20-7 31-13l0 0 1 0c3-1 5-2 7-4l0 93c0 5-1 9-5 12-2 2-3 3-5 4z m-34 87l-1 0c-31 1-59-20-84-63l112 0 0 36c0 7-2 14-8 19-3 3-6 5-9 5l-1 1c-3 1-6 2-9 2z m0 23l1 0c6 0 11-1 17-4l-1 0c7-2 13-5 19-11 9-10 14-22 14-35l0-43c2-1 4-3 6-5 7-8 11-17 11-28l0-118c2-19-5-33-20-41-1 0-3-1-4-2l0-87c0-17-6-32-18-44-12-12-27-18-44-18l-40 0c-17 0-31 6-43 18-12 12-18 27-18 44l0 87c-18 10-26 22-25 35-1 15 8 27 26 36-15 7-22 21-22 43l0 40c0 24 9 39 28 44 32 63 70 92 113 89z m171-225c-7-1-13-3-20-7l0-142c0-11 3-20 10-28 8-7 17-11 28-11l40 0c11 0 20 4 27 11 7 8 11 17 11 28l0 139c-12 10-35 14-70 13l0 0c-10 0-18-1-26-3z"/>
<glyph glyph-name="edit-icon" unicode="&#57361;" d="M274 181l-49 44-4-59z m174 208l20 26-58 46-20-25z m-15-18l-58 46-137-172 55-51z m-35 113c2 3 5 4 8 5 3 0 6-1 8-3l78-60c2-1 4-4 4-7 1-3 0-6-2-9l-35-45-1 0-157-198c-2-2-3-4-6-4l-84-23c-2-1-4-1-7 0-2 1-4 2-5 5-2 2-2 4-2 7l6 83c0 3 1 5 2 7z m-371-461c-3 0-6 1-8 3-2 2-3 5-3 8l0 399c0 4 1 6 3 8 2 3 5 4 8 4l229 0c3 0 6-1 8-4 2-2 3-4 4-8-1-3-2-5-4-8-2-2-5-3-8-3l-217 0 0-376 376 0 0 163c0 3 1 6 3 8 3 2 5 4 8 4 4 0 6-2 9-4 2-2 3-5 3-8l0-175c0-3-1-6-3-8-3-2-5-3-9-3z"/>
<glyph glyph-name="distress-effect-icon" unicode="&#57362;" d="M342 447l-91 0-126-205 99 1c3 0 5-1 8-3 2-1 3-3 4-6 0-2 0-5-1-7l-64-126 209 186-115 0c-3 0-5 0-7 2-2 2-4 4-4 7-1 3 0 6 1 8z m20 23c3 0 5-1 8-3 2-2 3-4 4-7 0-3 0-5-2-8l-87-143 124 1c2 0 5-1 7-2 1-1 2-3 3-6 1-2 2-4 1-6-1-2-2-4-4-5l-275-246c-2-2-4-3-7-3-3 0-5 1-7 2-2 2-3 4-4 7-1 3-1 5 1 8l82 162-101-1c-2 0-5 1-7 2-2 2-4 5-4 7-1 3 0 6 1 8l139 227c1 2 3 3 5 4 1 1 3 2 5 2z"/>
<glyph glyph-name="design-icon" unicode="&#57363;" d="M452 59l0 50-49 0 0-50z m-343 0l0 49-49 0 0-49z m38 228c0 0-1 0-1 0-1 1-1 1-2 1 3-14 8-28 15-41 4-8 10-15 17-23l-1 0c12-12 24-22 38-28 8-4 17-7 27-8 2 0 3-1 4-1-4 23-14 43-30 61l-1 1c-2 2-3 4-4 5-14 13-29 23-46 29l-1 0c-5 2-10 3-15 4z m-87 166l0-49 49 0 0 49z m200-138c-1 1-2 2-3 3-1-1-2-2-2-3l0 1c-12-16-19-35-21-56 10-12 18-24 24-38 5 14 13 26 24 38-3 21-11 40-24 56z m-74 41l-6-23-22 6 14 50 45-24-10-20z m181-69c0 0-1 0-1 0l-1 0c-11-2-21-6-30-12l-1 0c-10-5-20-12-28-21-1-1-2-2-3-3l0-1c-1-1-1-1-1-2l-1 0c-16-18-27-38-31-60l1 0c1 0 1 0 2 0 9 2 18 4 27 8 8 4 15 8 21 13l1 0c5 5 10 10 14 15 7 8 12 15 17 23 7 12 12 26 14 40z m12 25c2 0 4 0 6-1 2-1 4-3 5-5 1-2 1-4 1-6-1-23-8-45-19-64-5-9-11-18-18-27l-1 0c-5-6-11-11-17-16l0-1c-8-6-17-12-26-16l-1 0c-11-5-22-8-33-10-2-1-4-1-5-1 0 0-1 0-2-1l0-42-23 0 0 42c-2 1-5 1-8 1l-1 0c-12 2-23 5-34 11-16 8-31 19-44 33-8 9-14 18-20 27-11 19-17 41-19 65 0 2 1 4 2 6 1 2 2 3 4 4 2 1 4 2 6 2 7-1 13-2 19-3 7-1 13-3 20-6l0 0c15-6 29-14 42-25 4 20 12 37 24 51 1 1 1 1 2 1 2 2 5 5 7 7 1 1 2 2 3 3 2 3 5 4 8 4 3 0 6-1 8-4 1-1 2-2 3-3 3-2 5-5 8-7l0-1c12-14 20-31 25-50 7 6 15 11 23 15 11 6 23 11 36 13l0 0c6 2 12 4 19 4z m24 141l0-49 49 0 0 49z m-52-114l-22-6-7 23-21-11-10 20 45 24z m33 45c-2 3-3 5-3 8l0 27-249 0 0-27c0-3-1-5-3-8-3-2-6-3-9-3l-29 0 0-250 29 0c3 0 6-2 9-4 2-2 3-5 3-8l0-28 249 0 0 29c0 3 1 6 3 8 2 2 5 3 8 3l28 0 0 250-28 0c-3 0-6 1-8 3z m79 92c3 0 6-2 8-4 2-2 3-5 3-8l0-72c0-3-1-5-3-8-2-2-5-3-8-3l-21 0 0-250 21 0c3 0 6-1 8-3 2-2 3-5 3-8l0-72c0-3-1-6-3-8-2-2-5-3-8-3l-71 0c-3 0-6 1-8 3-2 2-3 5-3 8l0 20-249 0 0-21c0-3-1-5-3-8-3-2-6-3-9-3l-71 0c-3 0-5 1-7 3-3 3-4 5-4 8l0 72c0 3 1 6 4 8 2 2 4 4 7 4l20 0 0 250-20 0c-3 0-5 1-7 3-3 3-4 5-4 8l0 72c0 3 1 6 4 8 2 2 4 4 7 4l71 0c3 0 6-2 9-4 2-2 3-5 3-8l0-22 249 0 0 22c0 3 1 6 3 8 2 2 5 4 8 4z"/>
<glyph glyph-name="curve-text-icon" unicode="&#57364;" d="M334 318l9 0c0-5 0-11 0-17 1-7 1-14 2-22 0-7 0-14 1-21l-12-1c-2 8-4 15-6 20-1 4-3 8-6 11-2 2-4 4-6 5-2 1-5 2-9 3-4 0-9 0-16 0l-17 0 0-151c0-9 0-15 1-19 2-4 5-7 9-8 5-2 12-3 21-3l0-12-97 0 0 12c9 1 15 1 20 3 4 2 7 4 8 8 1 4 2 10 2 19l0 151-15 0c-8 0-14 0-18-1-5-1-8-1-11-3-2-1-4-3-5-5-3-2-5-6-6-12-2-5-3-11-5-18l-13 0c1 11 2 22 2 33 1 10 2 20 2 28l9 0c2-3 4-5 6-7 3 0 6-1 10-1l123 0c4 0 7 1 10 1 2 2 5 4 7 7z m82 68c43-44 65-97 65-159 0-62-22-115-65-159-2-2-4-4-5-5-3-2-5-3-8-3-3 0-6 1-8 3-2 2-4 5-4 8 0 3 2 5 4 8 1 1 3 3 5 5 39 39 59 87 59 143 0 56-20 104-59 143-40 40-88 60-144 60-56 0-104-20-143-60-40-39-60-87-60-143 0-56 20-104 60-143 0 0 1-1 1-1 1-2 2-3 3-4 2-3 4-5 4-8 0-3-2-6-4-8-2-2-5-3-8-3-3 0-5 1-7 3-2 2-4 4-6 6-44 44-65 96-65 158 0 62 22 115 66 159 44 44 97 66 159 66 62 0 116-22 160-66z"/>
<glyph glyph-name="cup-icon" unicode="&#57365;" d="M417 322c-16 15-34 25-53 28l0-191c19 3 37 12 53 27 19 19 28 42 28 68 0 27-9 50-28 68z m-350-220c0-13 7-20 21-20l232 0c14 0 20 7 20 20l0 328-273 0z m293 348c2-3 4-5 4-8l0-69c26-3 49-14 69-35 23-23 35-51 35-84 0-32-12-60-35-84-20-20-43-31-69-34l0-34c0-29-15-43-44-43l-232 0c-29 0-44 14-44 43l0 340c0 3 1 5 4 8 2 2 4 3 8 3l296 0c3 0 6-1 8-3z"/>
<glyph glyph-name="word-cloud-icon" unicode="&#57367;" d="M487 173l0-1c0-23-8-42-24-57l0-1c-16-16-35-24-58-24l-298 0c-23 0-42 8-58 25-16 15-24 34-24 57l0 1c0 22 8 42 23 58l1 0c9 9 20 16 32 19 1 29 11 53 31 74 20 20 45 30 74 30 10 0 18-1 26-3 6 13 15 25 26 36 23 23 51 35 83 35 33 0 61-12 84-35 23-23 35-51 35-84 0-19-4-36-12-52 13-3 25-10 35-20 16-16 24-36 24-58z m-88 69c0 3 1 5 2 8 11 15 16 33 16 53 0 27-9 49-28 68-19 19-41 28-68 28-26 0-49-9-68-28-11-11-18-24-23-37-1-2-2-4-3-6-2-1-4-2-6-2-2-1-4 0-6 0-9 4-18 6-29 6-23 0-42-8-58-24l-1 0c-15-16-23-36-23-59 0-2 0-3 0-5 1-2 0-4 0-6-1-2-2-4-4-5-1-1-3-2-5-3-11-2-22-7-30-15l-1 0c-11-12-16-26-17-42l0-1c0-16 6-30 17-42 12-11 26-17 43-17l298 0c17 0 30 6 42 17l0 1c12 11 17 25 18 41l0 1c0 16-6 30-18 42-11 11-23 16-37 17-3 0-5 1-7 3-2 2-3 4-4 7z m-33 65l9 0c-1-4-1-8-2-13-1-1-1-2-1-4-1-6-3-12-4-19 0-7-1-12-2-17l-9 0c0 5-1 10-1 15-1 4-3 8-4 12-1 2-4 3-8 3-4 2-10 3-18 3l-15 0-21-109c-1-6-2-12-2-16 1-3 4-6 7-7 4-1 10-2 18-3l-2-9-84 0 2 9c8 1 14 2 17 3 4 1 7 4 8 8 2 3 3 9 4 15l22 109-13 0c-6 0-12 0-16-1-4-1-7-2-8-3-3-2-5-3-7-4-2-3-4-7-6-11-2-4-5-9-8-14l-11 0c3 8 6 17 8 27 1 4 2 9 3 13 2 5 3 9 3 13l8 0c1-4 3-6 4-7 2 0 5-1 8-1l107 0c3 0 5 1 8 1 1 1 4 3 6 7z"/>
<glyph glyph-name="close-icon" unicode="&#57368;" d="M444 460c2 2 5 3 8 3 3 0 6-1 8-3 2-2 3-5 3-8 0-3-1-6-3-8l-188-188 188-188c2-2 3-5 3-8 0-3-1-6-3-8-2-2-5-3-8-3-3 0-6 1-8 3l-188 188-188-188c-2-2-5-3-8-3-3 0-6 1-8 3-2 2-3 5-3 8 0 3 1 6 3 8l188 188-188 188c-2 2-3 5-3 8 0 3 1 6 3 8 2 2 5 3 8 3 3 0 6-1 8-3l188-188z"/>
<glyph glyph-name="text-f-x-icon" unicode="&#57369;" d="M377 432l-9-28-10 28-29 0 22 17-7 28 24-17 22 17-7-28 22-17z m4-68l32-21 31 21-11-36 30-23-38-1-12-36-13 36-37 1 30 23z m-6-213l60-44-75-2-24-70-24 70-75 2 60 44-22 72 61-42 61 42z m-72 214c-2-7-3-15-4-25-2-10-4-20-5-30-1-10-2-19-4-27l-16 0c0 8 0 15-1 23-1 7-2 13-4 17-3 5-7 7-14 8-6 3-15 4-27 4l-24 0-39-214c-3-10-4-18-3-24 0-6 4-10 10-12 6-2 16-3 29-3l-4-16-131 0 3 16c12 0 21 1 27 3 6 2 10 6 11 12 4 6 6 14 7 24l42 214-20 0c-10 0-19-1-25-2-6-1-11-3-13-5-4-2-7-5-10-7-3-4-7-9-11-16-3-7-7-14-11-22l-17 0c4 13 9 27 12 42 4 13 7 27 10 40l12 0c2-5 4-9 7-10 2-1 6-2 12-2l165 0c6 0 10 1 13 2 3 2 6 5 10 10z"/>
<glyph glyph-name="graduation-hat-icon" unicode="&#57370;" d="M241 231l165 74-162 77-172-75z m-123-45c32-12 69-19 111-19 48 0 88 9 121 26l0 0c1 0 1 0 2 0l0 65-107-48c-1-1-3-1-4-1-1 0-3 0-4 1l-119 53z m126 218c2 0 3-1 4-2l187-88c2-1 3-3 4-5 1-2 1-3 1-5l0-127 36-42c2-2 2-5 2-8-1-3-2-5-3-7-3-2-5-2-8-2-3 1-6 2-7 3l-20 24 0-26c0-3-1-6-3-8-2-2-4-3-8-3-2 0-4 1-6 3-2 2-4 5-4 8l0 24-18-22c-3-2-5-3-8-3-2 0-5 0-7 2-3 2-4 5-4 8 0 3 1 5 3 8l34 41 0 112-46-22c0-1 0-2 0-4l0-76c0-1 0-3-1-5-1-2-2-3-4-4-3-1-5-3-8-5-36-18-80-27-131-27-49 0-90 8-125 24-2 1-4 3-5 5-1 1-2 3-2 5l0 88c0 1 0 3 1 4l-57 26c-3 1-5 3-6 6-1 3-1 5 0 8 1 2 3 4 6 6l198 85c2 1 3 1 5 1z"/>
<glyph glyph-name="greeting-card-icon" unicode="&#57371;" d="M296 58l0 28-46 0z m-133 171c2-2 3-5 3-8 0-3-1-6-3-8-3-2-6-3-9-3l-40 0c-3 0-5 1-7 3-3 2-4 5-4 8 0 3 1 6 4 8 2 2 4 4 7 4l40 0c3 0 6-2 9-4z m279 237l-226 0 0-357 226 0z m-249-63l-123 0 0-357 203 0-69 40c-3 0-5 1-7 3-3 2-4 5-4 8z m65-62l0 1c10 9 22 13 35 13 14 0 25-4 34-14 1 0 2-1 2-2 1 1 1 2 2 2l0 1c10 9 21 13 35 13 14 0 25-4 35-14 10-10 14-21 14-35 0-4 0-9 0-13-1 0-2 0-2-1-1-6-5-12-10-17-15-27-37-53-64-80-3-2-6-2-8-2-3 0-5 0-6 2-27 26-51 53-70 80-3 3-5 7-6 10-4 7-6 14-6 21 0 14 5 25 15 35z m57-12c-6 5-14 8-22 8-8 0-16-3-23-8-6-7-9-14-9-23 0-4 1-9 4-13 1-2 3-5 4-7 0 0 0-1 0-1 17-24 38-47 62-71 24 24 43 47 57 71 1 0 1 1 1 1 3 3 5 7 7 11 1 3 1 6 1 9 0 9-3 16-9 23-6 5-13 8-22 8-9 0-16-3-22-8l0 0c-3-3-4-6-5-10-2-2-4-3-6-4-2-1-5-1-7 0-2 1-4 2-5 4-1 3-3 6-6 10z m-264 93c2 3 4 4 7 4l135 0 0 52c0 3 1 5 4 7 2 3 4 4 7 4l250 0c3 0 6-1 8-4 2-2 3-4 3-7l0-381c0-3-1-6-3-8-2-2-5-3-8-3l-135 0 0-52c0-3-1-5-3-8-2-2-5-3-8-3l-250 0c-3 0-5 1-7 3-3 3-4 5-4 8l0 381c0 3 1 5 4 7z m56-101c2 2 4 4 7 4l40 0c3 0 6-2 9-4 2-2 3-5 3-8 0-3-1-6-3-8-3-2-6-3-9-3l-40 0c-3 0-5 1-7 3-3 2-4 5-4 8 0 3 1 6 4 8z"/>
<glyph glyph-name="hand-drawing-icon" unicode="&#57372;" d="M129 435c15-10 26-22 34-37l0-1c24-45 2-102-66-170l-19-22 0-1c-13-16-20-31-23-44-4-20 2-36 18-47 19-14 51-22 94-25 3-1 6-2 8-5 2-2 3-4 3-7-1-3-2-6-4-8-3-2-5-3-8-3-49 4-85 13-106 29-25 17-33 40-26 70 3 17 11 35 26 54l1 0 18 23c0 0 1 1 1 1 59 60 80 108 63 146-6 11-15 21-27 28l1 0-20 10c-3 1-4 3-5 6-1 3-1 6 1 9 1 3 4 5 7 5 2 1 5 1 8-1l19-9c1 0 1-1 2-1z m290-126l-57 46-145-183-5-63 63 18z m-23 88l-20-24 57-46 21 25z m80-33c3-2 4-5 5-8 0-3-1-6-3-9l-188-238c-1-1-3-2-6-3l-82-23c-2 0-4 0-6 1-3 1-5 2-6 4-1 2-2 5-2 7l6 82c0 3 1 5 2 6l189 237c2 2 4 4 7 4 3 1 6 0 8-2z"/>
<glyph glyph-name="helmet-icon" unicode="&#57373;" d="M266 240c11 0 21-4 29-13 8-7 12-17 12-28 0-11-4-21-12-29-8-8-18-12-29-12-11 0-21 4-29 12-8 8-12 18-12 29 0 11 4 21 12 28 8 9 18 13 29 13z m0-23c-5 0-9-2-12-6-4-3-6-7-6-12 0-5 2-10 6-13 3-3 7-5 12-5 5 0 9 2 13 5 3 3 5 8 5 13 0 5-2 9-5 12-4 4-8 6-13 6z m102 58l1 0c26 6 46 11 61 18-6 35-22 66-49 93-34 34-76 51-124 51-49 0-90-17-125-51-34-35-51-76-51-125 0-49 17-90 51-124 6-6 12-12 19-17 7 15 17 25 30 29 16 6 36 2 60-10 1 0 2 0 3-1l1-1c34-12 60-15 77-7 15 8 23 26 24 53-14 22-18 41-15 55 3 17 15 30 37 37z m86 13c1-3 0-5-1-7-1-2-3-3-5-5-16-8-41-16-75-23-11-4-17-11-19-19-1-11 3-24 13-41 0-1 1-1 1-2 0-11-1-21-1-30l-1 0c-3-21-11-36-24-47 1-3 2-6 4-9l22-36c2-2 2-5 1-8-1-3-2-6-5-8-2-1-5-1-8-1-3 1-6 3-8 6l-26 44c-1 1-1 2-1 2-21-5-50-1-85 13l-1 0c-1 0-2 1-2 1-1 0-1 0-2 0-18 9-32 12-43 9-9-4-16-13-20-28-1-2-2-5-3-6-3-2-5-2-7-2-3 0-5 0-7 1-13 8-24 18-35 29-39 38-58 85-58 140 0 55 19 102 58 141 39 39 86 58 141 58 54 0 101-19 140-58 32-33 51-70 57-114z"/>
<glyph glyph-name="image-color-icon" unicode="&#57375;" d="M274 154l0-49c0-8-4-13-12-13l-49 0c-8 0-12 5-12 13l0 49c0 8 4 12 12 12l49 0c8 0 12-4 12-12z m-182 0c0 8 4 12 12 12l49 0c8 0 12-4 12-12l0-49c0-8-4-13-12-13l-49 0c-8 0-12 5-12 13z m109 54l0 49c0 8 4 12 12 12l20 0c2-13 8-25 18-35 7-6 15-11 23-14l0-12c0-9-4-13-12-13l-49 0c-8 0-12 4-12 13z m-36 49l0-49c0-9-4-13-12-13l-49 0c-8 0-12 4-12 13l0 49c0 8 4 12 12 12l49 0c8 0 12-4 12-12z m0 54c0-9-4-13-12-13l-49 0c-8 0-12 4-12 13l0 49c0 8 4 12 12 12l49 0c8 0 12-4 12-12z m97 61c8 0 12-4 12-12l0-5-24-25c-9-9-15-19-17-32l-20 0c-8 0-12 4-12 13l0 49c0 8 4 12 12 12z m112-206c8 0 13-4 13-12l0-49c0-8-5-13-13-13l-49 0c-8 0-12 5-12 13l0 49c0 8 4 12 12 12z m-49 29c-8 0-12 4-12 13l0 9c13 3 25 9 34 18l33 33c4-1 7-5 7-11l0-49c0-9-5-13-13-13z m-11 103c1-1 3-1 4-1 1 0 1-1 3-1l0 0c3 0 6 1 9 3l73 73-16 15-73-73c-2-2-3-4-3-7 0-2 1-3 1-5 0-1 1-2 2-4z m78 119c0-1 0-3 1-4 1-1 3-2 4-3l28-28 1-2c1 0 2 0 4 0 2 0 3 1 5 2 0 1 1 3 1 4 0 1-1 3-1 4-1 1-1 2-1 3l-29 28c-2 1-3 1-4 2-1 1-2 1-2 1-2 0-4-1-5-2-1-1-2-3-2-5z m41 23l-6-7 19-20 7 7c3 3 4 7 4 11 0 4-1 7-3 9l-1 1c-2 3-5 4-9 4-4-1-8-2-11-5z m-34 7c3 0 6 0 8-1l10 10c7 7 15 11 26 12l0 0c11 0 20-4 27-12 7-7 10-15 10-25 0-11-3-20-10-28l-11-10c0-1 1-3 1-4 0-1 0-1 0-2 0-8-3-15-9-21-6-6-13-9-21-9-3 0-6 1-9 1 0 0-1 0-1-1l-74-74c-7-7-15-10-25-10l0 0-11-11c-5-3-10-5-16-5-5 0-10 2-14 7-5 4-7 9-7 14 0 7 3 12 8 16l7 8c0 1 0 2 0 2 0 1-1 2-1 3 0 9 4 17 11 23l74 74c-2 4-3 9-3 13 0 8 3 15 9 21 6 6 13 9 21 9z m-87-39c-2-2-4-3-8-3l-233 0c-11 0-16-5-16-16l0-306c0-11 5-16 16-16l341 0c11 0 16 5 16 16l0 215c0 3 1 6 3 8 3 3 5 4 9 4 3 0 5-1 8-4 2-2 3-5 3-8l0-215c0-26-13-39-39-39l-341 0c-26 0-39 13-39 39l0 306c0 26 13 39 39 39l233 0c4 0 6-1 8-3 3-3 4-5 4-8 0-4-1-6-4-9z"/>
<glyph glyph-name="image-filter-icon" unicode="&#57376;" d="M467 422l-47-16-1-49-30 39-47-14 28 40-28 41 47-14 30 39 1-49z m-37-105c1 3 3 5 6 6 3 1 6 1 9-1 2-1 4-3 5-6l51-138c1-3 1-6 0-10-2-2-4-4-7-5l-375-138c-4-1-6-1-9 0-3 1-5 4-6 7l-93 252c-1 3-1 6 1 9 1 3 3 5 6 6l279 102c4 1 7 1 10-1 2-1 4-3 5-6 1-3 1-6 0-9-1-3-4-4-7-5l-269-99 86-231 354 131-47 127c-1 3-1 6 1 9z m-1-86c-2-2-4-4-7-5-3 0-6 0-9 2l-89 51-46-75 46-26c2-2 4-4 5-7 0-3 0-6-2-9-1-3-3-5-6-6-4 0-6 0-9 2l-54 31c-1 0-2 0-2 1l-1 0-33 19-71-113c-2-2-5-4-8-5-3-1-6 0-8 1-3 2-4 5-5 8-1 3 0 6 2 9l77 122c2 3 4 5 7 5 3 1 6 1 9-1l33-19 52 85c1 3 4 4 7 5 3 1 6 1 9-1l99-57c3-2 4-4 5-7 1-3 0-7-1-10z m-347 171l17-13-21 0-6-20-8 20-21 0 17 13-6 21 18-13 17 13z m136 41l-19 28 32-9 20 26 0-33 32-12-32-10 0-33-20 26-32-9z m-105-158c10 4 20 4 30-1 10-4 18-12 22-23l0-1c3-10 3-20-1-30-5-10-12-17-23-21l1 0c-11-4-22-4-32 0l-1 0c-10 5-17 13-20 24l0-1c-5 12-4 22 0 32 5 10 13 17 23 21z m30-33c-2 5-5 9-9 11-5 2-9 2-14 1l1 0c-5-2-9-6-11-10-2-4-2-8 0-13l0-1c2-4 4-7 9-9 4-2 9-2 14 0l1 0c4 1 7 4 8 8 2 5 3 9 1 14z"/>
<glyph glyph-name="image-mask-icon" unicode="&#57377;" d="M268 401c-1-2-3-4-5-5-3-1-5-1-7-1-3 1-5 2-7 4-6 7-11 13-17 18-22 21-47 31-76 31-29 0-54-10-74-31-21-20-32-45-32-74 0-3 0-5 0-8 3-72 72-161 206-269 134 107 203 197 207 269 0 3 0 5 0 8 0 29-11 54-31 74-21 21-46 31-75 31-29 0-54-10-75-31-6-5-10-10-14-16z m89 71c35 0 66-13 91-38 25-25 38-56 38-91 0-3 0-5 0-8l0-1c-1-78-75-176-222-292-3-1-5-2-8-2-2 0-4 1-7 2-147 116-221 214-223 292l0 1c0 3 0 5 0 8 0 35 13 66 40 91 24 25 54 38 90 38 35 0 66-13 92-38 3-2 6-5 9-9 2 4 5 7 9 9 25 25 55 38 91 38z m-206-102l-1 0c-5 1-9-1-13-4-4-3-5-7-6-12l-1-1c0-5 2-9 5-12 3-4 7-6 13-6l1-1c4 0 8 2 11 5 4 3 6 6 6 11l0 0c1 6 0 10-3 13-4 5-8 7-12 7z m38-21l0-1c-1-11-6-20-14-28-9-7-19-10-30-8l1-1c-12 1-21 6-29 14l-1 0c-7 9-10 20-8 31l-1-1c2 13 7 22 15 29 9 7 19 10 30 9l1 0c11-1 20-6 27-14 8-8 11-18 9-30z m150-26c3 2 5 2 9 1 3 0 6-1 8-5l65-94c1-3 2-6 2-9-1-3-3-6-6-8-2-1-5-1-8-1-3 0-5 2-8 4l-58 85-75-48 31-43c1-2 2-5 1-9 0-3-2-6-6-7-2-2-4-3-7-3-3 1-6 3-8 6l-35 51c-1 1-2 1-2 2l-1 0-22 32-113-73c-3-1-6-2-9-2-3 2-5 4-7 6-1 3-2 6-1 9 1 3 3 6 5 7l124 79c2 1 4 1 7 1 3 0 6-2 8-4l22-32z"/>
<glyph glyph-name="reduce-color-icon" unicode="&#57378;" d="M427 73c-2 2-3 3-5 3l0 0c0 1-1 1-1 2-3 1-6 1-9 1-6 0-12-2-16-7-5-4-7-9-7-16 0-6 2-11 7-15l0-1c4-4 10-7 16-7 6 0 11 3 15 7l1 1c4 4 7 9 7 15 0 7-3 12-7 16z m-5 200l-1 0c-1-2-1-3-2-4-3-3-4-7-4-11 0-7 2-12 7-16l0-1c4-4 10-6 16-6 5 0 9 1 14 3 0 2 1 3 3 3l0 1c4 4 6 9 6 16 0 6-2 12-6 16l-1 0c-5 5-10 7-16 7-6 0-12-2-16-7z m-49 210c8-8 13-18 13-29 0-11-5-21-13-28-7-8-17-13-28-13-5 0-10 2-16 4-4-9-6-18-7-27-4-40 25-75 88-103 8 8 17 12 28 12 12 0 21-4 29-12 8-8 12-18 12-29 0-12-4-21-12-29-1 0-1 0-1-1 10-35 1-82-28-140 1-1 2-2 3-3 8-8 11-17 11-29 0-11-3-20-11-28-8-8-18-12-29-12-12 0-21 4-29 12-8 7-13 17-13 28 0 12 5 21 13 29 8 8 17 13 29 13 3 0 7-1 10-2 25 50 34 91 28 122-4-1-8-1-12-1-11 0-20 4-29 12-8 8-12 17-12 29 0 5 1 10 3 14-71 32-103 72-96 120l0 1c1 11 5 22 11 34-8 7-12 16-12 27 0 11 4 21 13 29 8 9 18 13 29 13 11 0 21-4 28-13z m-12-13l-1 0c-4 5-10 8-15 8-7 0-12-3-16-8-5-4-8-9-8-16 0-6 3-11 8-15l0-1c0 0 0-1 1-1l1 0c1-1 1-2 2-3 3-1 7-2 12-2 5 0 11 2 15 6l1 1c4 4 6 9 6 15 0 7-2 12-6 16z m-323-73c2 3 4 4 7 4l215 0c3 0 6-1 9-4 2-2 3-4 3-7 0-3-1-6-3-9-3-2-6-3-9-3l-203 0 0-290 265 0c3 0 6-1 8-4 2-2 3-5 3-8 0-3-1-6-3-8-2-2-5-3-8-3l-277 0c-3 0-5 1-7 3-3 2-4 5-4 8l0 314c0 3 1 5 4 7z m128-116c0 5-1 9-3 12-4 4-8 6-12 6l0 0c-5 1-9-1-13-4-3-2-5-6-5-11l-1-1c0-4 2-8 5-12 2-3 6-4 12-5l1-1c4 0 7 2 10 5 4 2 6 6 6 10z m-55 5l0-1c1 12 6 21 13 27 9 7 18 10 29 9l1 0c10-1 18-6 25-13 7-8 10-18 8-29l0-1c-1-10-5-19-13-26-8-6-17-9-28-7l1-1c-11 1-20 5-27 13l-1 0c-7 9-9 18-8 29z m-18-131c1 4 3 6 5 7l116 74c2 1 5 1 7 1 3 0 6-1 8-4l21-30 79 52c2 2 4 2 7 1 3 0 6-1 8-5l62-89c1-2 1-5 1-7-1-3-3-6-5-8-2-1-5-2-8-2-3 1-5 3-7 5l-55 80-70-45 28-41c2-2 2-5 2-9-1-3-2-5-6-6-2-2-4-3-6-3-4 1-6 3-8 6l-33 48c-1 1-2 1-2 2l0 0-21 30-106-69c-3-1-6-1-9-1-3 1-5 3-7 5-1 3-2 6-1 8z"/>
<glyph glyph-name="line-icon" unicode="&#57381;" d="M408 423c2 3 5 4 8 4 3 0 6-1 8-4 2-2 3-4 3-7 0-3-1-6-3-9l-319-319c-3-2-6-3-9-3-3 0-5 1-7 3-3 2-4 5-4 8 0 3 1 6 4 8z"/>
<glyph glyph-name="price-icon" unicode="&#57382;" d="M283 383c16-1 29-3 37-8l0-31c-11 6-23 10-37 12l0-45c17-7 30-14 37-22 7-8 11-17 11-28 0-14-4-24-12-33-9-7-21-12-36-14l0-26-18 0 0 25c-16 0-31 4-44 11l0 33c4-4 11-7 20-10 10-3 18-5 24-6l0 43c-18 7-31 14-37 23-7 8-10 18-10 29 0 12 4 23 13 31 8 9 20 14 34 16l0 22 18 0z m-188 60c-4 0-7-2-10-5-3-3-4-6-4-11l0-47 31 0 0 47c0 5-2 8-4 11-3 3-6 4-9 5l-1 0c-1 0-1 0-2 0z m37 0c2-5 3-10 3-16l0-346c0-3 1-6 3-9 3-2 5-3 9-3l1 0c3 0 6 1 8 3 2 3 3 6 3 10l0 60c0 3 2 6 4 8 2 3 5 4 8 4l212 0 0 273c0 5-1 8-3 11-3 2-5 3-7 4-1 0-2 0-3 1 0 0-1 0-1 0z m-36 23c1 0 1 0 2 0l271 0c2 0 4-1 6-1 8-1 15-4 21-11 7-7 11-16 11-27l0-273 36 0c3 0 6-1 8-4 2-2 3-5 3-8l0-60c0-10-3-19-10-26-7-6-15-10-25-10-3 0-5 1-7 1l-265-1c-10 0-18 4-25 10-7 7-10 16-10 25l0 276-43 0c-3 0-5 1-7 3-3 2-4 5-4 8l0 59c0 11 4 20 11 27 8 8 16 12 26 12z m169-111c-11-2-16-8-16-17 0-8 5-15 16-21z m35-97c0 8-6 14-17 19l0-36c11 2 17 8 17 17z m-118-127l0-49c0-5 0-9-1-13l232 1c1 0 2 0 4-1 0 0 1 0 2 0 3 0 6 1 9 3 2 3 3 6 3 10l0 49z"/>
<glyph glyph-name="plus-icon" unicode="&#57383;" d="M244 456c0 3 2 5 4 7 2 3 5 4 8 4 3 0 6-1 8-4 2-2 4-4 4-7l0-188 188 0c3 0 6-2 8-4 2-2 3-5 3-8 0-3-1-6-3-8-2-2-5-4-8-4l-188 0 0-188c0-3-2-6-4-8-2-2-5-3-8-3-3 0-6 1-8 3-2 2-4 5-4 8l0 188-188 0c-3 0-5 2-7 4-3 2-4 5-4 8 0 3 1 6 4 8 2 2 4 4 7 4l188 0z"/>
<glyph glyph-name="pencile-icon" unicode="&#57384;" d="M170 153l23-23 230 234-21 20z m-68 47l5 3 244 248c2 3 4 4 7 4 4 0 6-1 9-4l81-79c2-2 3-5 3-8 0-3-1-6-3-9l-249-251c-2-2-4-3-6-4l-116-43c-3-1-6-1-8 0-3 1-5 3-6 6-2 3-2 6-1 8l35 122c1 3 2 5 5 7z m27-6l25-25 232 231-28 28z m45-77l-58 58-26-88z"/>
<glyph glyph-name="pen-icon" unicode="&#57385;" d="M197 270c9 10 21 15 35 15 14 0 26-5 36-15 10-10 15-21 15-35 0-14-5-26-15-36-10-10-22-15-36-15-10 0-19 3-27 8l-107-109c70 23 140 44 210 63-1 50 13 100 42 149l-53 53c-48-26-98-39-152-41-19-74-39-143-60-207l104 108c-5 8-8 17-8 27 0 14 6 25 16 35z m35-8c-8 0-14-2-19-8-6-5-9-12-9-19 0-8 3-14 8-19l1-1c5-5 11-8 19-8 8 0 14 3 20 8 5 5 8 12 8 20 0 7-3 14-8 19-6 6-12 8-20 8z m-187-206c0 4 1 7 3 9 27 77 53 163 77 256 1 3 2 5 4 7 2 1 5 2 7 2 51 0 99 12 144 35l-6 7c-3 2-4 5-4 7 0 3 1 6 3 8l63 76c1 2 4 4 7 5 4 0 6-1 9-4 2-1 3-4 4-7 0-3-1-6-3-9l-56-67 83-84 69 48c3 2 6 2 9 2 3-1 6-2 8-5 1-3 2-6 1-9 0-3-2-6-5-8l-76-53c-3-1-5-2-8-1-3 0-5 1-7 3l-4 4c-26-46-38-92-36-140 0-3-1-5-2-8-2-2-4-3-6-4-87-23-174-50-261-80 0 0-1 0-1 0-1-1-2-1-4-1l-1-1c-3 0-5 1-7 3-3 3-4 6-4 9z"/>
<glyph glyph-name="text-on-path-icon" unicode="&#57386;" d="M437 364l-16 0c3 24 2 41-4 52-7 10-18 16-34 16l-4 0-33-163c-2-10-2-16 1-19 3-3 11-6 23-6l-3-15-114 0 3 15c13 0 22 3 26 6 4 3 7 9 9 19l34 163-4 0c-16 0-29-6-40-16-11-11-20-28-27-52l-16 0 21 84 192 0z m-376 8c2 3 4 5 7 6 8 3 16 5 26 7 2 1 5 2 8 2 24 5 45 5 61 0 29-8 42-30 39-66-2-29-17-70-45-122l0-1-22-39c-1 0-1 0-1 0-12-25-18-45-16-59 1-7 5-11 12-12 11-2 26 0 46 7 44 14 108 48 193 100 2 2 5 2 9 1 2 0 5-2 7-4 1-3 2-6 1-9-1-3-3-5-5-7-87-54-152-88-197-103-25-8-45-10-58-7-18 3-28 13-30 30-3 18 3 42 19 73l0 1 22 39c27 48 41 87 43 114 1 22-7 37-24 42-14 4-31 4-52-1 0 0-1 0-2 0-1 0-1 0-2-1-9-1-17-3-24-6-3-1-6-1-9 0-3 1-5 3-6 6-1 3-1 6 0 9z"/>
<glyph glyph-name="background-pattern-icon" unicode="&#57388;" d="M111 245l-45 0 0-179 45 0z m63 0l-40 0 0-179 40 0z m93-69l0-40 179 0 0 40z m0-63l0-47 179 0 0 47z m0 132l0-46 179 0 0 46z m-23-179l0 179-47 0 0-179 47 0z m0 202l0 44-178 0 0-44z m0 67l0 40-178 0 0-40z m0 111l-178 0 0-48 178 0z m65 0l-42 0 0-178 42 0z m137 0l-51 0 0-178 51 0z m-74 0l-40 0 0-178 40 0z m-329 12c0 3 1 5 4 7 2 3 4 4 7 4l404 0c3 0 6-1 8-4 2-2 3-4 3-7l0-404c0-3-1-6-3-8-2-2-5-3-8-3l-404 0c-3 0-5 1-7 3-3 2-4 5-4 8z"/>
<glyph glyph-name="notes-icon" unicode="&#57389;" d="M92 207c-3 0-5 1-7 3-3 2-4 5-4 8 0 3 1 6 4 8 2 2 4 3 7 3l69 0c3 0 6-1 9-3 2-2 3-5 3-8 0-3-1-6-3-8-3-2-6-3-9-3z m283-88c0-3-1-6-3-8-2-2-5-3-8-3l-272 0c-3 0-5 1-7 3-3 2-4 5-4 8 0 3 1 6 4 8 2 2 4 3 7 3l272 0c3 0 6-1 8-3 2-2 3-5 3-8z m68 267l21 26-58 45-20-25z m-14-18l-57 46-145-183-5-62 63 17z m-27 116c3 0 6-1 8-3l76-58c3-2 4-5 5-8 0-3-1-6-3-9l-188-237c-1-2-3-3-6-4l-82-23c-2 0-4 0-6 1-3 1-5 3-6 5-1 2-2 4-2 6l6 82c0 3 1 5 2 6l189 237c2 3 4 4 7 5z m-138-63c-2-2-5-3-8-3l-212 0 0-367 367 0 0 160c0 3 1 5 4 7 2 3 4 4 7 4 3 0 6-1 9-4 2-2 3-4 3-7l0-171c0-3-1-6-3-9-3-2-6-3-9-3l-390 0c-3 0-5 1-7 3-3 3-4 6-4 9l0 390c0 3 1 5 4 7 2 3 4 4 7 4l224 0c3 0 6-1 8-4 2-2 3-4 3-7 0-3-1-6-3-9z"/>
<glyph glyph-name="name-number-icon" unicode="&#57390;" d="M182 125c-2-7-4-13-6-20-2-7-4-13-6-19l0-1c0-1 0-1 1-1l24 0c-1 6-3 13-6 20-2 7-4 14-6 21z m-45-68l1 0c0 0 1 0 1 0 3 8 5 16 9 24 3 9 6 17 10 26 3 10 6 19 9 28 4 8 7 16 9 23 2 0 5 0 9 0 4 0 10 0 16 0 3-7 6-15 8-23 3-10 7-18 10-28 3-9 5-18 8-27 4-8 6-16 9-23l9-1c0-3 0-5 0-8 0-2 0-5 0-7-3 0-7 0-11 0-4 0-7 0-11 0-5 0-10 0-15 0-5 0-10 0-14 0 0 2 0 5 0 7 0 3 0 5 0 8l10 1 0 0c-1 2-1 4-2 6-1 2-2 4-2 5l0 1c-1 0-1 0-2 0l-33 0c0-2-1-4-1-7-1-1-1-4-2-5l10-1c0-3 0-5 0-8 0-2 0-5 0-7-3 0-7 0-12 0-4 0-9 0-14 0-2 0-5 0-9 0-2 0-5 0-8 0 0 2 0 5 0 7 0 3 0 5 0 8z m-20 85l-1 0-1-100c-2 0-5-1-9-2-4-1-8-1-13-1-4 5-9 11-15 18-5 7-11 15-18 24-6 9-13 19-20 29l-1 0c0-9 0-18 0-27 0-8 0-18 0-26l13 0c0-3 0-6 0-9 0-2 0-5-1-7-3 0-7 0-12 0-4 0-9 0-13 0-3 0-6 0-9 0-3 0-5 0-8 0 0 2 0 5 0 7 0 3 0 5 0 8l9 1 0 85-10 1c0 2 0 5 0 7 0 3 0 5 0 8 3 0 7 0 11 0 4 0 8 0 12 0 4 0 8 0 11 0 4-5 8-11 12-18 5-6 9-13 14-20 4-7 9-14 13-21 5-7 9-13 13-19l2 0c-1 10-1 20-1 30 0 11 0 22 0 32l-14 1c0 2 1 5 1 7 0 3 0 5 0 8 4 0 7 0 11 0 4 0 8 0 12 0 3 0 7 0 10 0 3 0 7 0 9 0 0-3 0-5 0-8 0-2 0-5 0-7z m266 16c5 0 9 0 13 0 0-3 0-6 0-8 0-3 0-6 0-9l-9 0c0 0 0 0 0-1 0-8 0-18 0-27 0-9 0-19 0-29 0-9 0-19 0-27l10-1c0-3 0-5 0-8 0-2 0-5 0-7-4 0-7 0-10 0-4 0-8 0-12 0-4 0-9 0-13 0-5 0-9 0-13 0 0 2 0 5 0 7 0 3 0 5 0 8l10 1 0 0c0 10 0 19 0 30 0 9 0 20 0 31l-2 0c-5-16-10-29-15-41-4-11-9-21-13-30-1 0-3 0-6 0-3 0-6 0-9 0-2 7-5 14-8 21-3 7-6 15-9 23-3 9-6 19-10 29l-2 0c0-11 0-22 0-32 0-11-1-21-1-31l13-1c0-3 0-5 0-8 0-2 0-5 0-7-3 0-7 0-12 0-4 0-8 0-12 0-3 0-6 0-9 0-3 0-6 0-9 0 0 2 0 5 0 7 0 3 0 5 0 8l9 1 1 0 0 0c0 9 0 18 0 28 0 9 1 19 1 28 0 11 0 20 0 28l-10 0c0 3 0 6 0 9 0 2 0 5 0 8 5 0 9 0 14 0 6 0 11 0 16 0 5 0 11 0 15 0 1-4 3-8 5-15 2-5 4-11 7-18 3-7 5-14 8-21 2-7 4-14 6-20l2 0c2 8 5 17 9 26 3 8 5 17 8 25 3 8 6 16 8 23 5 0 9 0 15 0 4 0 9 0 14 0z m31-8c0 3 0 5 0 8 4 0 8 0 12 0 4 0 8 0 11 0 3 0 5 0 9 0 4 0 9 0 13 0 5 0 9 0 13 0 4 0 7 0 8 0 4 0 7 0 10 0 3 0 6 0 7 0 1-5 1-11 2-16 0-6 0-11 1-16-3 0-6-1-9-1-3-1-6-1-9-1l-3 13c0 2-1 2-1 3 0 0-1 0-2 0-2 1-4 1-7 1-3 1-7 1-13 1l-1 0 0-35c2 0 5 0 8 0 3 1 5 1 8 1 0 0 0 1 1 1 1 0 1 1 1 2l1 7c3 0 5 0 8 0 4 0 6 0 9 0 0-3 0-6 0-9 0-3 0-7 0-10 0-3 0-7 0-9 0-3 0-6 0-9-3 0-6 0-9 0-3 0-5 0-8 0l-1 7c0 2 0 3-1 3-1 0-1 1-2 1-3 0-5 0-8 0-2 0-5 0-7 0l0-32c-1-1 0-2 1-3 1 0 4 0 8 0 3 0 6 0 9 0 2 0 4 0 5 0 1 1 2 1 2 2 1 0 1 1 2 2l5 14c3 0 6-1 9-1 3-1 6-1 8-2-1-5-2-10-3-15-1-6-2-11-4-16-3 0-7 0-13 0-6 0-13 0-21 0-7 0-15 0-24 0-5 0-9 0-13 0-4 0-8 0-12 0 0 2 0 5 0 7 0 3 0 5 0 8l10 1 0 85-10 0c0 3 0 6 0 8z m-97 323l65 0 34-29 0-183-34-30-66 0-32 30 0 183z m8-23l-19-16 0-163 19-17 49 0 19 17 0 163-19 16z m-212-6l33 29 65 0 34-29 0-183-34-30-66 0-32 30 0 183z m41 6l-19-16 0-163 19-17 49 0 19 17 0 163-19 16z"/>
<glyph glyph-name="my-image-icon" unicode="&#57391;" d="M57 395c2-2 4-5 4-8l0-320 339 0c3 0 5-1 8-3 2-3 3-5 3-8 0-3-1-6-3-8-3-2-5-3-8-4l-351 0c-3 1-5 2-7 4-3 2-4 5-4 8l0 331c0 3 1 6 4 8 2 2 4 3 7 4 3-1 6-2 8-4z m269-24l0 0c-4-4-6-8-6-14 0-5 2-10 6-14 4-3 8-5 14-5 5 0 10 2 14 5l1 1c3 4 5 8 5 13 0 6-2 10-6 14-4 4-9 6-14 6-6 0-10-2-14-6z m70-99l55-53 0 226-329 0 0-226 118 92c2 1 5 2 7 2 3 0 6-1 8-3l78-81 47 43c2 3 5 4 8 3 3 1 5 0 8-3z m55-84l-64 61-47-44c-2-2-4-3-7-3-3 0-6 1-8 3l-79 82-124-96 0-60 329 0z m-81 140l0-1c-9-8-19-12-30-12-12 0-22 4-30 13-8 8-12 18-12 29 0 12 4 21 12 29l0 1c8 9 18 13 30 13 11 0 21-4 30-13 8-8 12-18 12-30 0-11-4-21-12-29z m101 136c2-2 3-5 3-8l0-336c0-4-1-6-3-8-3-3-5-4-8-4l-352 0c-3 0-6 1-8 4-2 2-3 4-3 8l0 336c0 3 1 6 3 8 2 2 5 3 8 3l352 0c3 0 5-1 8-3z"/>
<glyph glyph-name="mobile-case-icon" unicode="&#57392;" d="M140 436c0 30 15 44 44 44l144 0c29 0 44-14 44-44l0-360c0-30-15-44-44-44l-144 0c-29 0-44 14-44 44z m44 21c-14 0-21-7-21-21l0-360c0-14 7-21 21-21l144 0c14 0 21 7 21 21l0 360c0 14-7 21-21 21z m40-172c8 8 19 12 30 12 12 0 22-4 31-13 9-8 13-19 13-30 0-12-4-22-13-30 0-1 0-1-1-1-8-9-18-13-30-13-11 0-22 4-30 13-9 9-13 19-13 31 0 11 4 22 12 30 0 1 0 1 1 1z m16-16c0 0 0-1-1-1-3-4-5-9-5-14 0-6 2-11 6-15 4-4 9-6 14-6 6 0 11 2 14 6 0 1 1 1 1 1 4 3 6 8 6 14 0 5-2 10-6 14-4 4-9 6-15 6-5 0-10-1-14-5z m-8 148c-2-2-5-3-8-3l-36 0c-3 0-5 1-7 3-3 3-4 6-4 9 0 3 1 5 4 7 2 3 4 4 7 4l36 0c3 0 6-1 8-4 2-2 3-4 3-7 0-3-1-6-3-9z"/>
<glyph glyph-name="minus-icon" unicode="&#57393;" d="M464 248c-2-3-5-4-8-4l-400 0c-3 0-5 1-7 4-3 2-4 5-4 8 0 3 1 6 4 8 2 2 4 4 7 4l400 0c3 0 6-2 8-4 2-2 3-5 3-8 0-3-1-6-3-8z"/>
<glyph glyph-name="menu-icon" unicode="&#57394;" d="M67 162c-2 2-4 5-4 8 0 3 2 5 4 7 2 2 4 4 7 4l365 0c1 0 2-1 3-1 1-1 3-2 4-3 3-2 4-4 4-7 0-3-1-6-4-8-1-1-3-1-4-2-1-1-2-1-3-1l-365 0c-3 0-5 1-7 3z m7-89c-3 0-5 1-7 3-2 3-4 5-4 8 0 3 2 6 4 8 2 2 4 3 7 3l365 0c1 0 2-1 3-1 1-1 3-1 4-2 3-2 4-5 4-8 0-3-1-5-4-8-1-1-3-2-4-2-1-1-2-1-3-1z m372 190c3-2 4-4 4-7 0-3-1-6-4-8-1-1-3-1-4-2-1-1-2-1-3-1l-365 0c-3 0-5 1-7 3-2 2-4 5-4 8 0 3 2 5 4 7 2 2 4 4 7 4l365 0c1 0 2-1 3-1 1-1 3-2 4-3z m4 79c0-3-1-6-4-8-1-1-3-1-4-2-1 0-2-1-3-1l-365 0c-3 0-5 1-7 3-2 2-4 5-4 8 0 3 2 5 4 7 2 2 4 4 7 4l365 0c1 0 2 0 3-1 1-1 3-2 4-3 3-2 4-4 4-7z m-11 97c1 0 2 0 3-1 1-1 3-2 4-3 3-2 4-4 4-7 0-3-1-6-4-8-1-1-3-2-4-2-1 0-2-1-3-1l-365 0c-3 0-5 1-7 3-2 2-4 5-4 8 0 3 2 5 4 7 2 3 4 4 7 4z"/>
<glyph glyph-name="product-icon" unicode="&#57396;" d="M277 64c0-6 4-9 10-9l121 0c6 0 9 3 9 9l0 160-140 0z m172 116l-10 0 0-83 10 0c6 0 9 3 9 9l0 64c0 7-3 10-9 10z m-21 67c3 0 6-2 8-4 2-2 3-5 3-8l0-33 10 0c21 0 32-10 32-32l0-64c0-21-11-32-32-32l-10 0 0-10c0-21-10-31-31-31l-121 0c-21 0-32 10-32 31l0 171c0 3 1 6 4 8 2 2 4 4 7 4z m-282 231c2 1 4 1 7 0 2-1 4-2 6-4 1-2 2-4 2-6 2-18 9-33 22-46 14-14 32-22 52-22 21 0 39 8 54 22 13 14 21 29 22 47 0 2 1 4 3 6 2 2 3 3 5 3 3 1 5 1 7 0l110-39c3-1 5-2 6-4 1-3 2-5 2-8l-10-88c0-2-1-4-2-6-2-2-4-3-6-4-2 0-4 0-6 0l-47 14 0-40c0-3-1-6-3-8-3-2-6-3-9-3-3 0-5 1-7 3-3 2-4 5-4 8l0 56c0 3 1 5 2 7 2 2 4 3 6 4 2 1 5 1 7 0l48-15 8 66-90 32c-4-18-13-33-26-47-19-19-43-28-70-28-26 0-49 9-68 28-13 14-22 29-26 46l-86-31 6-66 45 12c3 1 5 1 7 0 2-1 4-2 5-4 2-2 3-4 3-6l0-209c0-4 2-6 6-6l82 0c3 0 6-1 8-3 2-2 3-5 3-8 0-3-1-6-3-8-2-2-5-3-8-3l-82 0c-19 0-29 9-29 28l0 194-43-13c-2 0-4 0-6 0-3 1-5 2-6 4-1 2-2 4-3 6l-9 88c0 3 1 6 3 8 1 2 2 3 5 4z"/>
<glyph glyph-name="qr-code-icon" unicode="&#57397;" d="M385 353l0 32-32 0 0-32z m23 55l0-77-77 0 0 77z m56-226l-51 0 0-75 50 0 0-58-57 0 0 57-70 0 0-57-58 0 0 58 56 0 0 75-56 0 0 58 58 0 0-55 70 0 0 55 58 0z m-230 56l0-186-186 0 0 186z m-23-23l-141 0 0-141 141 0z m23 248l0-187-186 0 0 187z m-23-165l0 142-141 0 0-142z m-108-115l77 0 0-77-77 0z m22-23l0-31 32 0 0 31z m32 193l0 32-32 0 0-32z m-54 55l77 0 0-77-77 0z m336-110l0 142-141 0 0-142z m23 165l0-187-186 0 0 187z"/>
<glyph glyph-name="quotation-icon" unicode="&#57398;" d="M185 350c-3 3-4 6-4 9 0 3 1 5 4 7 2 2 4 4 6 4l133 0c2 0 5-2 7-4 2-2 3-4 3-7 0-3-1-6-3-9-2-1-5-2-7-2l-133 0c-2 0-4 1-6 2z m0 56c2 2 4 4 6 4l133 0c2 0 5-2 7-4 2-2 3-5 3-8 0-2-1-5-3-8-2-2-5-3-7-3l-133 0c-2 0-4 1-6 3-3 3-4 6-4 8 0 3 1 6 4 8z m-100-124c3 1 6 0 8-2l36-27 0 166c0 30 14 44 44 44l167 0c31 0 46-14 46-44l0-163 34 24c2 1 4 2 7 2 3 0 5-2 6-4 2-2 3-4 3-7l0-178c0-13-2-23-7-30l-1 0c-8-9-20-14-36-14l-272 0c-17 0-29 5-35 14-6 7-9 17-9 30l0 178c0 3 1 5 3 7 2 2 4 4 6 4z m143 16c0 6 3 12 7 16 4 4 9 7 16 8l0 10 9 0 0-10c8-1 13-2 17-4l0-15c-5 3-11 5-17 6l0-22c8-3 13-6 17-9 4-5 6-9 6-15 0-6-2-11-7-14-4-3-9-6-16-8l0-12-9 0 0 12c-7 0-14 2-20 6l0 15c2-2 5-4 9-6 3-2 7-2 11-2l0 21c-8 3-14 7-17 10-4 4-6 9-6 13z m32-25l0-19c4 1 7 4 7 8 0 4-3 7-7 11z m-9 36c-5-2-8-5-8-9 0-3 3-6 8-9z m-153-61l0-155c0-1 0-3 1-5l100 82z m294-178c4 0 7 0 9 1l-115 94c-2 0-3 1-4 2l-1 1-26 20-30-25-2-1-111-91c2-1 4-1 8-1z m23 180l-32-22 0 0c-1-1-1-1-2-2l-74-51 108-86c0 1 0 3 0 4z m-51 169c0 15-8 22-24 22l-167 0c-15 0-23-7-23-22l0-183 67-51 32 26c1 2 3 3 6 3 3 0 5-1 7-3l28-23 74 53z"/>
<glyph glyph-name="redo-icon" unicode="&#57399;" d="M363 389l62 63 0-139-138 0 61 62c-24 15-52 23-83 23-44 0-82-15-113-46-31-31-46-69-46-113 0-44 15-81 46-112 31-31 69-47 113-47 44 0 81 16 112 47 13 12 23 25 30 39 1 3 3 4 6 5 2 1 5 1 7-1 3-1 5-3 5-6 1-2 1-4 0-7-9-16-20-31-33-45-35-35-78-52-127-52-50 0-92 17-127 52-34 35-52 78-52 127 0 50 18 92 52 127 35 34 77 52 127 52 36 0 69-10 98-29z"/>
<glyph glyph-name="ruler-icon" unicode="&#57401;" d="M444 263c0 3-1 5-5 5l-192 0c-3 0-5-2-5-5l0-184c0-3 2-5 5-5l192 0c4 0 5 2 5 5z m-5 23c16 0 23-8 23-23l0-184c0-16-7-23-23-23l-192 0c-15 0-23 7-23 23l0 184c0 15 8 23 23 23z m-387 146c0 18 9 27 26 28l355 0c19 0 28-10 28-28l0-64c0-18-9-28-28-28l-264 0 0-261c0-18-9-27-28-27l-62 0c-18 0-27 9-27 27z m99-15l21 0 0-54 29 0 0 37 0 1 21 0 0-38 41 0 0 51 1 3 21 0 0-54 39 0 0 36 1 2 21 0 0-38 37 0 0 51 1 3 21 0 0-54 28 0c4 0 6 2 6 5l0 64c0 3-2 5-6 5l-354 0c-2 0-4-2-4-5l0-3 0 0 0-88-1 0 0-262c0-3 2-5 5-5l62 0c5 0 7 2 7 5l0 27-36 0 0 22 36 0 0 40-51 0 0 21 51 0 0 41-36 0 0 21 36 0 0 46-51 0 0 22 51 0 0 21 0 1z"/>
<glyph glyph-name="sandal-icon" unicode="&#57402;" d="M458 288c-1-3-2-5-2-8-5-20-10-40-13-59 11 13 18 25 20 36 2 11 0 21-5 31z m-135 27c3-14 7-28 11-43l0 0c11-30 16-58 16-84l0-1c0-23-5-45-14-65l-1 0c-2-4-3-8-3-13 0-9 4-17 11-23l1 0c7-7 16-11 26-11 11 0 20 4 28 11 6 5 10 12 11 19 0 1 0 2 0 3l0 1c0 25 3 53 7 81 3 31 9 63 17 96l0 0c2 8 4 16 6 24-16 13-37 25-64 37l1 0c-5 2-9 3-14 5-4-2-7-5-10-7-11-11-21-21-29-30z m-10-50c-3 9-6 17-8 25-9-16-12-30-9-44 3-13 13-26 31-38-2 18-7 37-14 57z m18 162l0-1c-4-4-6-9-7-14-1 0-1-1-1-1-2-3-2-6-2-9 0 0 0-1 0-2-3-18-4-37-2-56 6 6 12 12 18 18 4 4 9 8 15 13l-5 22c-1 3-1 6 0 8 2 3 4 5 8 6 3 1 5 0 9-1 2-2 4-4 5-8l7-27 0-1c0-1 0-1 1-2l0-1c2-1 5-1 7-3 23-9 42-19 57-30-1 43-23 74-66 94-6 3-12 5-18 5-10 0-19-3-26-10z m26 33c9 0 19-2 28-7 58-27 85-72 78-134 20-21 27-43 23-66-4-23-20-46-48-70-4-26-6-51-6-74l0-1c0-1 0-3 0-4 0-1 0-2 0-3-2-12-8-22-18-32-12-11-27-17-44-17-16 0-31 6-43 17-12 11-18 25-18 40 0 9 2 17 6 24l0-1c7 16 11 32 12 49-31 17-49 37-54 60-6 24 3 50 25 80-4 29-5 57-1 83 0 5 2 11 4 15 3 8 7 16 13 23l1 0c11 12 25 18 42 18z m-202 0c17 0 31-6 42-18l1 0c6-7 10-15 13-23 2-4 4-10 4-15 4-26 3-54-1-83 22-30 31-56 25-80-4-23-23-43-54-60 1-17 5-33 12-49l0 1c4-7 6-15 6-24 0-15-6-29-18-40-12-11-27-17-43-17-17 0-32 6-44 17-10 10-16 20-18 32 0 1 0 2 0 3 0 1 0 3 0 4l0 1c0 23-2 48-6 74-28 24-44 47-48 70-4 23 3 45 23 66-6 62 20 107 78 134 9 5 19 7 28 7z m26-33c-7 7-16 10-26 10-6 0-12-2-18-5-43-20-65-51-66-94 15 11 34 21 57 30 2 2 5 2 7 3l0 1c1 1 1 1 1 2l0 1 7 27c1 4 3 6 5 8 4 1 6 2 9 1 4-1 6-3 8-6 1-2 1-5 0-8l-5-22c6-5 11-9 15-13 7-6 12-12 18-18 2 19 1 38-2 56 0 1 0 2 0 2 0 3 0 6-2 9 0 0 0 1-1 1-1 5-3 10-7 14z m-102-141l0 0c8-33 14-65 17-96 4-28 7-56 7-81l0-1c0-1 0-2 0-3 1-7 5-14 11-19 8-7 17-11 28-11 10 0 19 4 26 11l1 0c7 6 11 14 11 23 0 5-1 9-3 13l-1 0c-9 20-14 42-14 65l0 1c0 26 5 54 16 84l0 0c4 15 8 29 11 43-8 9-18 19-29 30-3 2-6 5-10 7-5-2-9-3-14-5l1 0c-27-12-48-24-64-37 2-8 4-16 6-24z m-25 2c-5-10-7-20-5-31 2-11 9-23 20-36-3 19-8 39-13 59 0 3-1 5-2 8z m145-23c-7-20-12-39-14-57 18 12 28 25 31 38 3 14 0 28-9 44-2-8-5-16-8-25z"/>
<glyph glyph-name="save-icon" unicode="&#57403;" d="M126 351l0 96-44 0 0-382 44 0 0 193c0 2 1 4 3 6 2 3 5 4 7 4l238 0c4 0 6-1 8-4 2-2 3-4 3-6l0-193 45 0 0 325-57 57-52 0 0-96c0-3-2-5-4-7-1-2-4-3-7-3l-174 0c-2 0-5 1-7 3-2 2-3 5-3 7z m-61 112c2 3 4 4 7 4l306 0c3 0 5-1 8-4l63-63c1-2 2-4 2-6l0-340c0-3-1-6-2-8-3-2-5-3-8-3l-369 0c-3 0-5 1-7 3-3 2-4 5-4 8l0 402c0 4 1 6 4 7z m82-101l90 0 0 85-90 0z m174-226c3 0 5-1 8-4 1-1 2-3 2-7 0-3-1-6-2-7-2-2-5-3-8-3l-136 0c-2 0-5 1-7 3-2 2-3 5-3 7 0 3 1 5 3 7 2 3 5 4 7 4z m0 66c3 0 5-1 8-4 1-1 2-3 2-6 0-4-1-7-2-8-2-2-5-3-8-3l-136 0c-2 0-5 1-7 3-2 2-3 4-3 8 0 2 1 4 3 6 2 3 5 4 7 4z m43-137l0 182-217 0 0-182z m-106 297l41 0 0 85-41 0z"/>
<glyph glyph-name="setting-icon" unicode="&#57404;" d="M206 306c14 14 31 21 50 21 19 0 36-7 51-21 14-14 21-31 21-50 0-19-7-36-21-51-15-14-32-21-51-21-19 0-36 7-50 21-14 15-21 32-21 51 0 19 7 36 21 50z m50 1c-14 0-26-5-35-16-11-9-16-21-16-35 0-14 5-26 16-36 9-10 21-15 35-15 14 0 26 5 36 15 10 10 15 22 15 36 0 14-5 26-15 35-10 11-22 16-36 16z m36 151l11-55c10-2 19-6 28-11l45 31c2 2 4 3 7 3 2 0 4-1 6-3 6-5 12-11 18-17 5-6 11-12 16-18 1-2 2-4 2-7 0-1-1-3-2-6l-30-44c6-9 10-20 14-31l52-9c2 0 4-1 6-3 1-1 2-3 2-6 1-9 2-17 2-26 0-8-1-15-1-23 0-3-1-5-2-6-2-2-4-4-6-4l-53-10c-3-11-7-22-13-33l29-45c1-2 2-4 2-6 0-2-1-5-2-7-5-5-11-10-16-17-6-5-12-11-17-16-2-1-5-2-7-2-3 0-5 1-7 2l-40 32c-12-7-25-12-37-16l-8-51c0-3-1-5-3-7-2-1-4-2-6-2-9-1-17-2-26-2-8 0-15 1-22 1-2 0-4 1-6 2-2 2-3 4-3 6l-10 54c-11 3-21 8-31 13l-49-30c-2-1-4-2-6-2-2 0-4 1-5 2-6 5-12 11-18 16-5 6-11 12-15 17-2 2-3 4-3 7 0 2 1 4 2 6l32 47c-6 10-10 21-13 32l-55 10c-3 0-5 1-6 3-2 1-3 3-3 6-1 8-2 15-2 23 0 9 1 17 2 26 0 2 1 4 3 5 1 2 3 3 6 4l55 9c3 11 8 21 13 30l-30 48c-2 2-3 4-3 5 0 3 1 5 3 7 4 6 9 11 14 16 6 6 13 13 20 18 2 2 4 2 6 2 3 0 5 0 7-2l45-33c9 6 19 10 30 12l7 55c0 3 1 5 3 6 1 2 4 3 7 3 8 1 16 2 25 2 9 0 18-1 28-2 1 0 3-1 5-2 2-2 3-4 3-7z m-7-70c-1 2-2 3-2 5l-10 54c-6 1-11 1-17 1-5 0-10 0-15-1l-8-53c-1-2-1-4-2-5-2-2-4-3-6-4-13-3-25-8-37-15-2-1-3-2-5-2-3 0-5 1-6 2l-45 33c-4-4-8-8-11-12-3-2-5-5-8-8l30-47c1-2 2-3 2-6 0-2-1-3-2-5-7-12-12-24-14-37-2-2-3-4-4-5-1-1-3-2-5-2l-55-10c-1-5-1-10-1-15 0-4 0-8 1-12l54-10c2-1 4-2 6-3 1-1 2-3 3-6 3-13 8-26 15-38 1-2 2-4 2-6 0-2-1-4-2-6l-31-45c3-4 6-7 9-10 3-4 6-7 11-10l46 30c1 2 3 2 5 2 2 0 3 0 5-2 12-7 25-12 38-16 2-1 4-1 5-2 1-2 2-4 3-7l10-51c3 0 7 0 12 0 5 0 10 0 15 1l7 50c1 2 2 4 3 6 2 1 4 2 6 2 15 4 30 10 44 19 2 1 4 2 6 2 2 0 4-1 6-2l40-31c3 3 6 6 9 9 4 4 7 7 9 10l-27 43c-2 2-3 4-3 5 0 3 1 5 2 6 7 13 13 26 17 40 0 2 0 4 2 5 1 2 3 2 5 2l51 11c0 5 0 9 0 14 0 5 0 10-1 16l-50 9c-2 0-4 1-6 2-1 1-2 3-2 5-4 14-10 27-16 39-2 1-3 3-3 5 0 2 1 4 3 5l29 44c-3 4-6 7-10 10-4 4-7 7-10 11l-44-32c-1-1-3-1-5-1-2 0-4 0-6 1-12 8-23 12-36 15-2 1-4 2-6 3z"/>
<glyph glyph-name="shape-icon" unicode="&#57405;" d="M153 253c-27 0-50-9-69-28-20-19-29-43-29-70 0-27 10-50 29-70 19-19 42-29 69-29 28 0 51 10 70 29 19 20 28 43 28 70 0 27-9 51-28 70-19 19-42 28-70 28z m-85-12c24 23 52 34 85 34 34 0 62-11 85-34 24-24 36-53 36-86 0-33-12-62-36-85-23-24-51-36-85-36-33 0-61 12-85 36-24 23-36 52-36 85 0 33 12 62 36 86z m270 121c2 1 5 1 7 0 3-1 5-3 6-5l127-224c1-3 2-5 1-8 0-3-2-5-4-7-2-1-4-2-7-2l-147 1c-3 0-6 1-8 4-2 2-3 4-3 8 0 3 1 5 3 7 2 3 5 4 8 4l128-1-108 190-44-76c-1-3-4-5-7-6-3 0-5 0-8 2-3 1-5 3-5 6-1 3-1 6 1 9l54 93c1 2 3 4 6 5z m-58 93c0 0 0 0-1 0l-179 0c-1 0-1 0-2 0l0-129c0-3-1-6-3-8-2-2-5-3-8-3-3 0-6 1-8 3-2 2-3 5-3 8l0 129c0 15 8 23 24 23l179 0c16 0 23-8 23-23l0-70c0-3-1-6-3-8-2-2-5-3-8-3-3 0-6 1-8 3-2 2-3 5-3 8z"/>
<glyph glyph-name="share-icon" unicode="&#57406;" d="M152 270c0 5 0 9-1 13l-1 1c-2 5-5 10-9 13-7 8-16 12-27 12-10 0-19-4-27-12-7-7-11-16-11-27 0-10 4-19 11-27 8-7 17-11 27-11 11 0 19 4 26 11l1 0c1 1 2 2 3 3 1 1 1 2 2 3 4 6 6 13 6 21z m209-150c0 11-4 20-11 27-8 8-17 12-27 12-11 0-20-4-27-12-1 0-2-1-2-1 0-1-1-2-1-3l-1 0c0-1 0-1-1-2-4-6-7-13-7-21 0-10 4-19 12-27 7-7 16-11 27-11 10 0 19 4 26 11l1 1c7 7 11 16 11 26z m38 310c-10 0-19-4-27-11-7-8-11-17-11-27 0-6 1-11 3-16 0 0 1-1 1-1 0 0 0-1 0-2 2-3 5-6 7-8 8-8 17-11 27-11 11 0 19 3 26 11l1 1c8 7 11 15 11 26 0 10-3 19-11 27-7 7-16 11-27 11z m-43 5l0 0c12 12 27 18 43 18 17 0 31-6 43-18 12-12 18-27 18-43 0-17-6-31-18-43-12-12-26-18-43-18-16 0-31 6-43 18-2 2-3 4-5 6l-177-73c1-4 1-8 1-12 0-10-2-19-6-27l112-78c12 11 26 16 42 16 16 0 30-6 42-18 12-12 18-26 18-43 0-16-6-30-18-42-12-12-26-18-42-18-17 0-31 6-43 18-12 12-18 26-18 42 0 10 2 18 6 26l-113 79c-12-10-25-15-41-15-16 0-31 6-43 18-12 12-18 26-18 42 0 17 6 31 18 43l0 1c12 11 27 17 43 17 17 0 31-6 43-18 3-3 6-6 9-10l175 72c-2 5-3 11-3 17 0 16 6 31 18 43z"/>
<glyph glyph-name="shoe-icon" unicode="&#57407;" d="M90 315c0 1-1 1-1 1l-2 1c-3 2-6 3-10 3-6 0-11-2-15-6l1 1c-2-3-4-6-5-9-1-1-1-2-2-3 0-1 0-2 0-4l0-56 42 0 0 56c0 5-2 10-6 14-1 1-1 1-2 2z m211-24c0 0 1 1 1 1l-24 13-30-61 35 0c0 2 0 4 1 5z m-43 24l-17 8c-3-3-7-7-11-10-19-14-42-21-68-21-15 0-29 2-41 6l0-55 102 1c0 2 0 3 2 5z m135-70l-70 37-16-38z m55-28c-1 1-1 1-2 1-1 0-2 1-3 1l-6 4-381-3 0-34 383 0c4 0 8 2 12 5 3 4 5 8 5 12 0 5-2 9-5 12-1 1-2 2-3 2z m-208 132c2 0 4-1 5-2l33-17c1 0 1 0 2-1l32-16c1 0 4-2 10-5l124-64c0 0 1 0 1-1l6-3c3-1 6-2 8-4 2-1 4-2 6-5 8-8 12-17 12-28 0-10-4-20-12-28-8-8-17-12-28-12l-394 0c-3 0-6 1-8 3-2 3-4 6-4 9l0 124c0 3 1 8 3 15l0 1c2 5 5 10 10 15 0 1 0 1 0 1 9 8 19 12 31 12 9 0 16-2 23-7 2-1 4-2 6-4 16-12 34-17 56-17 21 0 39 5 54 17 6 4 11 8 15 13 1 1 2 1 3 2 2 1 4 2 5 2z"/>
<glyph glyph-name="visiting-card-icon" unicode="&#57409;" d="M236 186c0 3 1 5 4 7 2 3 4 4 7 4l133 0c3 0 6-1 9-4 2-2 3-4 3-7 0-3-1-6-3-9-3-2-6-3-9-3l-133 0c-3 0-5 1-7 3-3 3-4 6-4 9z m-171 60l0-115 382 0 0 115z m83-49l10 0c3 0 6-1 9-4 2-2 3-4 3-7 0-4-1-7-3-9-2-2-5-3-9-3l-10 0c-3 0-6 1-8 3-2 3-3 6-3 9 0 2 1 5 3 7 3 3 6 4 8 4z m-102 203c2 3 5 4 8 4l404 0c3 0 6-1 9-4 2-2 3-5 3-8l0-272c0-3-1-6-3-9-3-2-6-3-9-3l-404 0c-3 0-6 1-8 3-3 3-4 6-4 9l0 272c0 3 1 6 4 8z m19-19l0-45 382 0 0 45z m0-68l0-44 382 0 0 44z"/>
<glyph glyph-name="image-edit-icon" unicode="&#57411;" d="M387 326c-3 3-4 6-4 9l0 120-326 0 0-195 59 57c2 2 4 3 7 3 3 0 6-1 9-3l46-43 78 80c2 3 5 4 8 4 3 0 5-1 7-2l59-46c3-2 4-5 5-8 0-3 0-5-2-8-2-2-5-4-8-4-3-1-6 0-8 2l-51 40-80-82c-2-2-4-3-7-3-4 0-6 1-8 3l-48 43-65-63c0 0-1-1-1-1l0-88 123 0c3 0 6-1 9-4 2-2 3-4 3-7 0-3-1-6-3-8-3-2-6-3-9-3l-123 0c-15 0-23 7-23 22l0 314c0 15 8 23 23 23l326 0c15 0 22-8 22-23l0-120c0-3-1-6-3-9-2-2-5-3-8-3-3 0-5 1-7 3z m-24-106c2 0 3-1 5-3 0-1 1-1 1-2l42-42c2-2 3-4 3-7 0-3-1-6-3-8-2-2-5-3-8-3-3 0-5 1-7 3l-25 24 0-90c0-3-1-5-3-8-3-2-5-3-8-3-3 0-6 1-8 3-2 3-4 5-4 8l0 90-24-25c-3-2-6-3-9-3-3 0-5 1-8 3-2 2-3 5-3 8 0 3 1 6 4 8l44 45c2 2 5 3 8 3l0 0c1 0 2-1 3-1z m-171 147c4 4 6 8 6 13 0 6-2 10-6 14-4 4-9 7-15 7-5 0-10-2-13-6l0-1c-4-4-6-8-6-14 0-5 2-10 6-14 3-3 8-5 13-5 6 0 11 2 15 5z m16 43c8-8 12-18 12-30 0-11-4-21-12-30l-1 0c-8-8-18-12-30-12-11 0-21 4-29 12-8 9-13 19-13 30 0 12 4 22 12 30l1 0c8 9 18 13 29 13 12 0 22-4 31-13z m235-174c23-23 35-51 35-84 0-32-12-60-35-83-24-23-51-35-83-35-33 0-61 12-84 35-23 23-35 51-35 83 0 33 11 61 34 84l1 1c23 23 51 34 84 34 32 0 59-12 83-35z m-16-15c-19 18-41 27-67 27-27 0-50-9-69-27-18-19-27-42-27-69 0-26 9-49 27-67 19-19 42-29 69-29 26 0 48 10 67 29l0 1c19 18 29 40 29 66 0 27-10 50-29 69z"/>
<glyph glyph-name="undo-icon" unicode="&#57412;" d="M407 239c0 44-16 81-47 112-31 31-68 47-112 47-31 0-59-8-84-23l62-62-139 0 0 139 62-63c29 19 62 28 99 28 49 0 91-17 126-51 35-35 52-78 52-127 0-50-17-92-52-127-35-35-77-52-126-52-50 0-92 17-127 52-14 14-25 29-33 45-1 3-1 5-1 7 1 3 2 5 5 6 3 1 5 2 7 1 3-1 5-2 6-5 8-14 18-27 30-40 31-31 69-46 113-46 44 0 81 15 112 46 31 31 47 69 47 113z"/>
<glyph glyph-name="plain-text-icon" unicode="&#57413;" d="M418 426l-324 0 0-115 32 0c1 24 7 43 18 56 12 16 31 25 55 25l26 0 0-235c0-20-3-31-9-35-5-5-15-7-32-7l-17 0 0-29 180 0 0 29-19 0c-17 0-27 2-32 7l0 0 0 1c-6 5-10 16-10 34l0 235 27 0c24 0 43-8 56-25l0 0c11-13 16-32 18-56l31 0z m-346 22l368 0 0-159-76 0 0 13c0 22-4 39-13 51l0 1c-9 10-22 15-38 15l-4 0 0-212c0-9 1-14 2-18 3-1 8-1 17-2l42 0 0-73-225 0 0 73 39 0c9 1 14 1 17 2 1 3 1 8 1 18l0 212-3 0c-16 0-29-5-37-15-9-13-14-30-14-52l0-13-76 0z"/>
<glyph glyph-name="tshirt-icon" unicode="&#57414;" d="M365 291c0 3 1 6 4 8 2 3 4 4 7 4l59 0 28 80-115 46c-5-10-12-19-21-29-20-20-45-30-74-30-28 0-53 10-73 30-9 10-16 19-21 30l-109-49 27-78 58 0c3 0 6-1 9-4 2-2 3-5 3-8l0-212 218 0z m-199 165c2 0 5-1 7-3 56-18 110-18 162 0 2 2 4 3 7 3 3 0 5-1 7-3l132-53c3-1 5-3 7-6 1-2 1-5 0-8l-34-99c-1-2-3-3-4-5-2-1-4-2-7-2l-55 0 0-213c0-3-1-6-3-8-3-2-6-3-9-3l-241 0c-3 0-6 1-8 3-2 2-3 5-3 8l0 213-55 0c-3 0-5 1-6 2-2 2-4 3-5 5l-34 96c-1 4-1 6 0 9 2 2 4 4 7 5l127 57c2 2 4 2 6 2z m23-30c2-3 4-6 8-9 15-16 34-24 56-24 23 0 42 8 58 24 2 2 4 5 7 7-42-10-85-10-129 2z"/>
<glyph glyph-name="minus-b-icon" unicode="&#57415;" d="M417 275c5 0 10-2 14-6 4-4 5-8 5-13 0-5-1-10-5-14-4-3-9-5-14-5l-322 0c-5 0-10 2-13 5-4 4-6 9-6 14 0 5 2 9 6 13 3 4 8 6 13 6z"/>
<glyph glyph-name="plus-b-icon" unicode="&#57416;" d="M257 437c5 0 9-3 13-7 4-3 6-8 6-13l0-142 142 0c5 0 10-2 14-6 3-3 5-8 5-13 0-5-2-10-5-14-4-3-9-5-14-5l-142 0 0-142c0-5-2-10-6-14-4-4-8-5-13-5-6 0-10 1-14 5-4 4-6 9-6 14l0 142-142 0c-5 0-9 2-13 5-4 4-6 9-6 14 0 5 2 10 6 13 4 4 8 6 13 6l142 0 0 142c0 5 2 10 6 13 4 4 8 7 14 7z"/>
<glyph glyph-name="handle-v-icon" unicode="&#57417;" d="M355 434c0 3 1 6 4 8 2 2 4 4 7 4 3 0 6-2 9-4 2-2 3-5 3-8l0-357c0-3-1-6-3-8-3-2-6-3-9-3-3 0-5 1-7 3-3 2-4 5-4 8z m-199 8c2-2 3-5 3-8l0-357c0-3-1-6-3-8-3-2-5-3-9-3-3 0-5 1-7 3-3 2-4 5-4 8l0 357c0 3 1 6 4 8 2 2 4 4 7 4 4 0 6-2 9-4z m90-8c0 3 1 6 4 8 2 2 4 4 7 4 3 0 6-2 9-4 2-2 3-5 3-8l0-357c0-3-1-6-3-8-3-2-6-3-9-3-3 0-5 1-7 3-3 2-4 5-4 8z"/>
<glyph glyph-name="handle-h-icon" unicode="&#57418;" d="M444 154c2-2 3-5 3-8 0-3-1-6-3-8-3-2-5-3-9-3l-357 0c-3 0-5 1-7 3-3 2-4 5-4 8 0 3 1 6 4 8 2 2 4 4 7 4l357 0c4 0 6-2 9-4z m-9 114c4 0 6-2 9-4 2-2 3-5 3-8 0-3-1-6-3-8-3-2-5-3-9-3l-357 0c-3 0-5 1-7 3-3 2-4 5-4 8 0 3 1 6 4 8 2 2 4 4 7 4z m9 105c2-2 3-5 3-8 0-3-1-6-3-8-3-2-5-3-9-3l-357 0c-3 0-5 1-7 3-3 2-4 5-4 8 0 3 1 6 4 8 2 2 4 4 7 4l357 0c4 0 6-2 9-4z"/>
<glyph glyph-name="handel-dotted-icon" unicode="&#57419;" d="M314 256c0-16-6-29-17-41-12-11-25-17-41-17-16 0-29 6-41 17-11 12-17 25-17 41 0 16 6 29 17 41l0 0c12 11 25 17 41 17 16 0 29-6 41-17 11-12 17-25 17-41z m-154 0c0-16-6-29-17-41-11-11-25-17-41-17-15 0-29 6-40 17-12 12-17 25-17 41 0 16 5 29 16 41l1 0c11 11 25 17 40 17 16 0 30-6 41-17 11-12 17-25 17-41z m307 0c0-16-5-29-17-41-11-11-25-17-40-17-16 0-30 6-41 17-11 12-17 25-17 41 0 16 5 29 16 41l1 0c11 11 25 17 41 17 15 0 29-6 40-17 12-12 17-25 17-41z"/>
<glyph glyph-name="handel-dotted-o-icon" unicode="&#57420;" d="M127 281c-6 6-14 10-24 10-10 0-18-4-25-10-6-7-10-15-10-25 0-10 4-18 10-25 7-6 15-10 25-10 9 0 17 4 24 10l0 1c7 7 10 15 10 24 0 10-3 18-10 25z m34-25c0-16-6-29-17-41-12-11-25-17-41-17-16 0-30 6-41 17-11 12-17 25-17 41 0 16 6 29 16 41l1 1c11 10 25 16 41 16 16 0 29-6 41-17 11-12 17-25 17-41z m130 0c0 10-3 18-10 25-7 6-15 10-24 10-10 0-18-4-25-10-7-7-10-15-10-25 0-10 3-18 10-25 7-6 15-10 25-10 9 0 17 4 23 10l1 1c7 7 10 15 10 24z m154 0c0 10-4 18-10 25-7 6-15 10-25 10-10 0-18-4-24-10-7-7-10-15-10-25 0-10 3-18 10-25 6-6 14-10 24-10 9 0 17 4 24 10l1 1c6 7 10 15 10 24z m-229 42c11 10 25 16 41 16 15 0 29-6 40-17 11-12 17-25 17-41 0-16-6-29-17-41-11-11-25-17-40-17-16 0-30 6-41 17-11 12-17 25-17 41 0 16 5 29 16 41z m153 0c12 10 25 16 41 16 16 0 30-6 41-17 11-12 17-25 17-41 0-16-6-29-17-41-11-11-25-17-41-17-16 0-29 6-41 17-11 12-16 25-16 41 0 16 5 29 16 41z"/>
<glyph glyph-name="angle-double-u-icon" unicode="&#57421;" d="M344 335c-3 0-6 1-8 4l-108 108 0-321c0-3-1-5-4-7-2-3-4-4-7-4-3 0-6 1-9 4-2 2-3 4-3 7l0 321-108-108c-2-3-5-4-8-4-3 0-6 1-8 4-2 2-3 5-3 8 0 3 1 6 3 8l127 128c3 2 6 3 9 3 3 0 5-1 7-3l128-128c2-2 4-5 4-8 0-3-2-6-4-8-2-3-5-4-8-4z m25-75c9-8 13-18 13-30 0-6-1-12-4-18-2-6-6-12-12-19-6-7-16-16-29-27-12-10-19-16-22-19-3-4-6-7-8-11l75 0 0-18-101 0c0 5 0 9 2 13 2 7 7 14 12 21 6 6 14 14 25 23 17 14 28 25 34 33 6 8 9 15 9 22 0 8-3 14-8 19-6 5-13 8-21 8-9 0-17-3-22-8-5-6-8-13-8-23l-20 2c2 15 7 26 15 33 9 8 21 12 35 12 15 0 27-4 35-13z"/>
<glyph glyph-name="angle-u-icon" unicode="&#57422;" d="M264 438l128-127c2-3 4-6 4-9 0-3-2-6-4-8-2-2-5-3-8-3-3 0-6 1-8 3l-108 108 0-320c0-3-1-6-4-8-2-3-4-4-7-4-4 0-6 1-9 4-2 2-3 5-3 8l0 320-108-108c-2-2-5-3-8-3-3 0-6 1-8 3-2 2-3 5-3 8 0 3 1 6 3 9l127 127c3 2 5 3 9 3 3 0 5-1 7-3z"/>
<glyph glyph-name="angle-double-d-icon" unicode="&#57423;" d="M341 412c-5-5-8-13-8-23l-19 2c1 15 6 26 15 33 8 8 20 12 35 12 14 0 26-4 35-12 8-9 13-19 13-31 0-6-2-12-4-18-3-6-7-12-13-19-6-6-15-15-29-27-11-9-18-16-22-19-3-3-6-7-8-10l76 0 0-18-102 0c0 4 1 8 2 13 3 7 7 13 13 20 5 7 14 15 24 23 17 14 28 25 34 33 6 8 9 16 9 23 0 7-3 13-8 19-5 5-12 7-21 7-9 0-16-2-22-8z m17-202c2 3 5 4 8 4 3 0 6-1 8-4 2-2 3-4 3-7 0-3-1-6-3-9l-127-127c-3-2-6-3-9-3-3 0-5 1-7 3l-128 127c-2 3-4 6-4 9 0 3 2 5 4 7 2 3 5 4 8 4 3 0 6-1 8-4l108-107 0 320c0 3 1 6 4 8 2 2 4 4 7 4 3 0 6-2 9-4 2-2 3-5 3-8l0-320z"/>
<glyph glyph-name="angle-d-icon" unicode="&#57424;" d="M376 217c2 2 5 4 8 4 3 0 6-2 8-4 2-2 4-5 4-8 0-3-2-6-4-8l-127-128c-3-2-5-3-8-3-4 0-6 1-8 3l-128 128c-2 2-3 5-3 8 0 3 1 6 3 8 2 2 5 4 8 4 3 0 6-2 8-4l108-108 0 321c0 3 1 5 4 7 2 3 4 4 8 4 3 0 5-1 8-4 2-2 3-4 3-7l0-321z"/>
<glyph glyph-name="rotate-left-icon" unicode="&#57425;" d="M187 308c72-8 134-39 187-92 21-21 39-44 54-69 2-4 5-8 7-14 2-3 2-6 1-9-1-4-4-6-7-8-3-1-6-1-10 0-3 1-6 3-8 6-1 5-3 9-6 12-13 23-30 45-49 64-48 48-105 77-170 84l0-103-109 109 109 109 0-89 1 0z"/>
<glyph glyph-name="rotate-right-icon" unicode="&#57426;" d="M326 308l1 0 0 89 109-109-109-109 0 103c-65-7-122-36-170-84-20-19-36-41-49-64-3-3-5-7-7-12-1-3-4-5-7-6-4-1-7-1-10 0-3 2-6 4-7 8-1 3-1 6 1 9 2 5 5 10 7 14 14 25 32 48 54 69 53 53 115 84 187 92z"/>
<glyph glyph-name="compress-icon" unicode="&#57427;" d="M411 427l0-36-61-60 74-74-155 0 0 155 63-63z m-239-270l-71-72 0 36 53 54-66 66 155 0 0-155z"/>
<glyph glyph-name="expand-icon" unicode="&#57428;" d="M425 273l-63 62-79-78 0 36 61 61-74 74 155 0z m-336-33l70-71 71 72 0-36-53-54 66-66-154 0z"/>
<glyph glyph-name="font-icon" unicode="&#57434;" d="M369 344c10 19 21 33 32 41 12 8 24 12 38 12 9 0 16-1 20-5 4-3 6-7 6-13 0-5-1-9-4-12-2-3-5-4-10-4-4 0-7 1-10 4-2 2-3 4-3 8 0 2 1 4 3 7 1 3 2 4 2 5 0 1 0 2-2 3 0 1-1 1-2 1-5 0-11-3-17-10-10-11-17-29-24-53l21 0-8-31-21 0-12-50c-8-31-15-53-23-67-7-14-16-24-26-31-9-6-21-10-33-10-9 0-15 2-18 5-4 3-5 7-5 11 0 3 1 7 4 10 3 2 7 3 12 3 5 0 8-1 10-3 2-2 3-4 3-8 0-3 0-5-2-7-1-1-2-2-2-2l1-1c0-1 1-1 2-1 3 0 5 1 7 2 5 5 9 10 11 17 2 4 5 16 10 34l25 98-20 0 9 31c7 0 12 1 16 3 3 2 6 6 10 13z m-142-7c-8 3-21 5-38 5l-48 0 0-78 6 0c17 0 27 2 32 7 5 6 8 19 10 39l29 0 0-128-29 0c-2 22-5 36-9 43-6 6-16 9-32 9l-7 0 0-66c0-11 1-17 4-20 3-3 10-4 22-4l18 0 0-29-138 0 0 29 15 0c11 0 18 1 21 4 3 2 4 9 4 20l0 150c0 11-1 18-4 20-3 3-10 4-21 4l-15 0 0 29 239 0 0-106-30 0c0 14-1 25-3 34-1 9-4 17-7 24-4 7-11 12-19 14z"/>
<glyph glyph-name="down-icon" unicode="&#57435;" d="M417 342c3-4 4-8 4-14 0-5-1-9-4-12l-146-145c-4-5-9-7-14-7-5 0-9 2-13 7l-145 145c-4 3-6 7-6 12 0 6 2 10 6 14 3 4 8 5 13 5 5 0 9-1 14-5l131-133 133 133c3 4 8 5 13 5 4 0 9-1 14-5z"/>
<glyph glyph-name="up-icon" unicode="&#57436;" d="M421 183c0-5-2-10-6-14-3-3-7-5-12-5-5 0-10 2-14 5l-132 133-133-133c-3-3-7-5-12-5-5 0-10 2-14 5-3 4-5 9-5 14 0 5 2 9 5 12l145 145c5 5 9 7 14 7 5 0 9-2 13-7l145-145c4-3 6-7 6-12z"/>
<glyph glyph-name="left-arrow-icon" unicode="&#57437;" d="M316 414c4 4 8 6 12 6 5 0 10-2 14-6 4-4 5-8 5-13 0-5-1-10-5-14l-132-132 132-132c4-4 5-8 5-13 0-5-1-9-5-13-4-4-9-6-14-6-4 0-8 2-12 6l-145 145c-4 4-6 8-6 13 0 5 2 10 6 13z"/>
<glyph glyph-name="right-arrow-icon" unicode="&#57438;" d="M196 414l145-146c5-3 7-8 7-13 0-4-2-9-7-13l-145-145c-3-4-7-5-13-5-5 0-10 1-14 5-3 4-5 8-5 13 0 5 2 9 5 13l134 132-134 132c-3 5-5 9-5 14 0 5 2 9 5 13 4 4 9 6 14 6 6 0 10-2 13-6z"/>
<glyph glyph-name="clear-all" unicode="&#57429;" d="M356 182c-2 3-3 7-4 11-2 4-2 8 1 11 3 3 8 5 14 6 3 1 6 0 9-3l42-32c8 12 16 25 23 40l-69 41-106-112 43-69c9 6 18 13 27 20l-27 41c-3 3-4 7-3 11 0 5 2 9 7 11 2 2 6 2 11 1 4-2 8-4 11-7l26-40c9 7 18 15 26 24 4 4 8 8 12 13z m-123 14l16-24 95 99-26 14z m13 57l20 20-171 163c-3 2-7 3-12 3-2 1-5 0-8-3-3-4-5-8-6-13 1-3 3-5 6-7z m230-25c0-4 0-8-1-12-12-27-25-51-40-74l-3-1c-8-8-15-17-23-25-13-13-27-26-42-38l-1 0c-18-13-37-26-57-37-4-1-8-1-11 0-4 0-7 2-9 6l-54 89c-2 1-3 3-3 5l-31 49c-3 3-4 6-3 9 2 3 4 6 6 9l20 22-170 163c-9 8-14 18-14 29-1 1-1 2 0 3 0 11 5 22 14 32 8 8 18 13 29 13 13 1 25-3 34-11l170-163 17 17c2 3 5 5 8 6 3 1 6 1 11-2l52-29c1 0 2-1 3-3l1 0 88-50c4-1 7-4 9-7z"/>
<glyph glyph-name="remove-icon" unicode="&#57430;" d="M396 388l-281 0 0-336 281 0z m-75-52c3 3 7 4 11 5 4-1 8-2 11-5 3-3 4-7 4-11l0-224c0-4-1-8-4-11-3-3-7-4-11-4-4 0-8 1-11 4-3 3-5 7-5 11l0 224c0 4 2 8 5 11z m-66 5c4-1 8-2 11-5 3-3 4-7 4-11l0-224c0-4-1-8-4-11-3-3-7-4-11-4-4 0-8 1-11 4-3 3-4 7-4 11l0 224c0 4 1 8 4 11 3 3 7 4 11 5z m63 118l-124 0 0-40 124 0z m-151-123c3 3 7 4 11 5 4-1 8-2 11-5 3-3 4-7 5-11l0-224c-1-4-2-8-5-11-3-3-7-4-11-4-4 0-8 1-11 4-3 3-4 7-4 11l0 224c0 4 1 8 4 11z m0 149c3 3 7 4 11 5l155 0c5-1 8-2 11-5 3-3 5-7 5-11l0-55 127 0c4 0 8-2 11-5 3-3 4-6 5-10-1-5-2-8-5-11-3-3-7-5-11-5l-49 0 0-352c0-4-2-7-5-10-3-3-6-5-10-5l-312 0c-4 0-8 2-11 5-3 3-4 6-5 10l0 352-46 0c-4 0-7 2-10 5-3 3-5 6-5 11 0 4 2 7 5 10 3 3 6 5 10 5l125 0 0 55c0 4 1 8 4 11z"/>
<glyph glyph-name="layers-icon" unicode="&#57433;" d="M266 244c-3-1-6-2-8-2-2 0-4 1-6 2l-118 63-57-26 181-97 180 89-56 28z m222 113c-2-3-4-5-7-7l-63-33 63-30c3-2 5-5 7-9 1-4 1-7 0-11-2-3-4-6-7-8l-215-106c-3-1-6-1-8-1-2 0-4 0-6 1l-217 115c-4 2-6 5-7 8-2 4-2 8 0 12 1 4 3 7 7 8l65 28-65 35c-4 2-6 5-7 8-2 4-2 8 0 12 1 3 3 6 7 8l217 98c2 1 4 1 6 1 2 0 5 0 8-1l215-108c3-2 5-5 7-9 1-3 1-6 0-11z m-230 97l-181-83 63-34 1 0 0-1 117-62 181 90z m0-430l-217 115 71 33 145-79 3 3 142 69 71-35z"/>
<glyph glyph-name="forward-swap-icon" unicode="&#57439;" d="M95 354c4 0 8-1 11-4 3-3 5-7 5-11 0-4-2-8-5-11-3-3-7-4-11-4l-43 0 0-271 271 0 0 31c0 4 1 8 4 11 3 3 7 4 11 4 4 0 8-1 11-4 3-3 4-7 4-11l0-46c0-4-1-8-4-11-3-3-7-4-11-4l-301 0c-4 0-8 1-11 4-3 3-4 7-4 11l0 301c0 4 1 8 4 11 3 3 7 4 11 4z m392-192c-3-3-7-4-11-4l-301 0c-4 0-8 1-11 4-3 3-4 7-4 11l0 301c0 4 1 8 4 11 3 3 7 5 11 5l301 0c4 0 8-2 11-5 3-3 5-7 5-11l0-301c0-4-2-8-5-11z"/>
<glyph glyph-name="backward-swap-icon" unicode="&#57440;" d="M342 54l0 288-289 0 0-288z m26 314c3-3 5-6 5-10l0-320c0-4-2-7-5-11-3-3-7-4-11-4l-319 0c-4 0-8 1-11 4-3 4-5 7-5 11l0 320c0 4 2 7 5 10 3 4 7 5 11 5l319 0c4 0 8-1 11-5z m117 116c3-3 4-7 4-11l0-301c0-4-1-8-4-11-3-3-7-5-11-5l-45 0 0 266-271 0 0 51c0 4 1 8 4 11 3 3 7 4 11 4l301 0c4 0 8-1 11-4z"/>
<glyph glyph-name="print-preview-icon2" unicode="&#57441;" d="M323 264c0-18-7-32-19-43-11-13-25-19-43-19-17 0-32 6-44 19-12 11-17 25-17 43 0 17 5 32 17 44 6 6 13 11 23 13-8-9-11-18-11-30 0-13 4-24 14-33 10-11 22-16 35-16 13 0 25 5 34 16 4 4 7 8 11 12 0-2 0-4 0-6z m110 46c29-29 49-61 62-95 1-5 0-9-2-13-2-3-5-5-9-7-4-1-8-1-11 1-4 2-7 5-8 8-11 32-29 60-53 84-15 15-31 27-48 37 14-20 22-44 22-70 0-35-13-65-37-90-25-24-55-36-89-36-35 0-65 12-89 36-25 25-37 55-37 90 0 28 8 53 26 75-22-10-41-24-59-42-24-24-42-52-52-84-2-3-4-6-8-8-4-2-8-2-12-1-4 2-7 4-9 7-2 4-2 8 0 13 11 34 31 66 60 95 49 49 108 74 177 74 68 0 127-25 176-74z m-173-151c26 0 49 9 67 28 19 18 28 41 28 68 0 26-9 49-28 67-18 19-41 28-67 28-27 0-50-9-68-28-18-18-28-41-28-67 0-27 10-50 28-68 18-19 41-28 68-28z"/>
<glyph glyph-name="horizontal-align-icon" unicode="&#57442;" d="M37 247c-4 0-8 1-11 4-3 3-4 7-4 11 0 4 1 8 4 11 3 3 7 5 11 5l57 0c4 0 7-2 10-5 3-3 5-7 5-11 0-4-2-8-5-11-3-3-6-4-10-4z m384 0c-4 0-8 1-11 4-3 3-4 7-5 11 1 4 2 8 5 11 3 3 7 5 11 5l57 0c4 0 7-2 10-5 3-3 5-7 5-11 0-4-2-8-5-11-3-3-6-4-10-4z m-97 210l-141 0 0-402 141 0z m-172 16c0 4 2 7 5 10 3 3 6 5 10 5l172 0c5 0 8-2 11-5 3-3 5-6 5-10l0-434c0-4-2-7-5-10-3-3-6-5-11-5l-172 0c-4 0-7 2-10 5-3 3-5 6-5 10z"/>
<glyph glyph-name="paste-icon" unicode="&#57443;" d="M223 447c-8 8-18 12-29 12-12 0-21-4-30-12-8-9-12-18-12-30 0-1 1-2 2-4 0-1 0-2 0-3 1-9 4-16 10-22 9-8 18-12 30-12 11 0 21 4 29 12 6 6 10 13 12 20 0 3 0 6 0 9 0 12-4 21-12 30z m181-351l-91 0c-4 0-7 2-10 5-3 3-5 7-5 11 0 4 2 7 5 10 3 3 6 5 10 5l91 0c4 0 8-2 11-5 3-3 4-6 4-10 0-4-1-8-4-11-3-3-7-5-11-5z m-9 209c4 0 7-1 11-4l79-80c3-3 5-7 5-11l0-174c0-4-2-7-5-10-3-3-6-5-10-5l-237 0c-4 0-8 2-11 5-3 3-4 6-4 10l0 254c0 4 1 8 4 11 3 3 7 4 11 4z m-82-100l91 0c4 0 8-1 11-4 3-3 4-7 4-11 0-4-1-8-4-11-3-3-7-4-11-4l-91 0c-4 0-7 1-10 4-3 3-5 7-5 11 0 4 2 8 5 11 3 3 6 4 10 4z m146-1l-70 70-136 0 0-222 206 0z m-110 219c4 0 7-1 10-4 3-3 5-7 5-11l0-52c0-4-2-8-5-11-3-3-6-4-10-4-4 0-8 1-11 4-3 3-5 7-5 11l0 37-70 0c-5-10-12-19-19-26-14-15-31-22-50-22-20 0-37 7-51 22-8 7-14 16-17 26l-72 0 0-341 110 0c4 0 8-2 11-5 3-3 5-7 5-11 0-4-2-7-5-10-3-3-7-5-11-5l-126 0c-4 0-7 2-10 5-3 3-5 6-5 10l0 372c0 4 2 8 5 11 3 3 6 4 10 4l83 0c1 18 9 33 22 45 14 14 31 22 51 22 19 0 36-8 50-22 14-12 21-27 22-45z"/>
<glyph glyph-name="copy-icon" unicode="&#57444;" d="M402 99c-3-3-6-4-10-4l-119 0c-4 0-7 1-10 4-3 3-5 7-5 11 0 4 2 8 5 11 3 3 6 4 10 4l119 0c4 0 7-1 10-4 4-3 5-7 5-11 0-4-1-8-5-11z m-33 237l-159 0 0-284 249 0 0 193z m-106-172c-3 3-5 7-5 11 0 4 2 7 5 10 3 3 6 5 10 5l119 0c4 0 7-2 10-5 4-3 5-6 5-10 0-4-1-8-5-11-3-3-6-5-10-5l-119 0c-4 0-7 2-10 5z m0 87c3 4 6 5 10 5l119 0c4 0 7-1 10-5 4-3 5-6 5-10 0-4-1-8-5-11-3-3-6-5-10-5l-119 0c-4 0-7 2-10 5-3 3-5 7-5 11 0 4 2 7 5 10z m44 189c3-3 5-6 5-10 0-4-2-8-5-11-3-3-6-5-11-5-4 0-7 2-10 5l-40 40-191 0 0-284 66 0c4 0 8-2 11-5 3-3 5-7 5-11 0-4-2-7-5-10-3-4-7-5-11-5l-81 0c-4 0-8 1-11 5-3 3-4 6-4 10l0 315c0 4 1 8 4 11 3 3 7 5 11 5l212 0c4 0 8-2 11-5z m178-178c3-3 5-6 5-11l0-215c0-4-2-7-5-10-3-3-6-5-10-5l-280 0c-4 0-8 2-11 5-3 3-4 6-4 10l0 315c0 4 1 8 4 11 3 3 7 5 11 5l180 0c4 0 7-2 11-5z"/>
<glyph glyph-name="flip-vertical-icon" unicode="&#57445;" d="M63 57l123 0 0 307z m214 414c0 5 1 10 5 14 3 4 6 6 11 7 5 2 10 1 14-1 4-3 8-7 10-11l174-436c1-5 2-10 0-15-1-5-3-9-7-12-4-3-8-5-12-5l-175 0c-5 0-10 3-14 7-4 4-6 10-6 16z m-89 9c2 4 5 8 9 11 5 2 9 3 14 1 5-1 9-3 12-7 3-4 4-9 4-14l0-436c0-6-2-12-6-16-4-4-9-7-14-7l-174 0c-5 0-9 2-13 5-4 3-6 7-7 13-1 4-1 9 1 14z"/>
<glyph glyph-name="flip-horizontal-icon" unicode="&#57446;" d="M446 63l0 122-307 0z m-413 213c-6 0-10 2-15 5-4 3-6 7-7 11-1 5-1 10 1 14 3 4 7 8 12 10l436 174c4 2 9 2 14 1 5-2 9-4 12-8 3-4 5-8 5-12l0-175c0-5-2-10-7-14-4-4-9-6-16-6z m-9-89c-5 2-9 5-12 9-2 5-2 9-1 14 1 5 3 9 7 12 5 3 9 4 15 5l435 0c7-1 12-3 16-7 5-4 7-8 7-14l0-174c0-5-2-9-5-13-3-3-7-6-12-7-5-1-10-1-14 1z"/>
<glyph glyph-name="zoom-out-icon" unicode="&#57448;" d="M283 312c4 0 8-1 11-4 3-3 4-7 4-11 0-4-1-8-4-11-3-3-7-4-11-4l-135 0c-4 0-8 1-11 4-3 3-5 7-5 11 0 4 2 8 5 11 3 3 7 4 11 4z m157-255l4 2-3 0z m1 33l-3-2 2 0z m-94 100c-4-5-8-9-12-13-3-3-6-6-9-9l81-84c3-4 7-5 11-5 4 0 8 1 11 5l1 1c3 3 5 7 5 11 0 4-2 8-5 11z m-248 224c32 33 72 49 118 49 46 0 85-16 118-49 33-33 49-72 49-118 0-29-6-56-20-80l88-88c9-9 14-20 14-32 0-12-5-23-14-32l-2-2c-9-9-20-14-32-14-12 0-23 5-32 14l-85 88c-24-15-52-22-84-22-46 0-86 16-118 49-33 33-50 72-50 119 0 46 17 85 50 118z m118 18c-38 0-70-13-97-40-27-26-40-59-40-96 0-38 13-71 40-97 27-27 59-40 97-40 26 0 51 6 72 18 1 4 4 6 8 6 6 6 12 11 17 16 7 7 12 14 17 21l1 0c14 23 22 48 22 76 0 37-14 70-40 96-27 27-59 40-97 40z"/>
<glyph glyph-name="zoom-in-icon" unicode="&#57449;" d="M444 59l-3 0-1-2z m-3 31l-3-2 2 0z m-94 100c-4-5-8-9-12-13-3-3-6-6-9-9l81-84c3-4 7-5 11-5 4 0 8 1 11 5l1 1c3 3 5 7 5 11 0 4-2 8-5 11z m-248 224c32 33 72 49 118 49 46 0 85-16 118-49 33-33 49-72 49-118 0-29-6-56-20-80l88-88c9-9 14-20 14-32 0-12-5-23-14-32l-2-2c-9-9-20-14-32-14-12 0-23 5-32 14l-85 88c-24-15-52-22-84-22-46 0-86 16-118 49-33 33-50 72-50 119 0 46 17 85 50 118z m118 18c-38 0-70-13-97-40-27-26-40-59-40-96 0-38 13-71 40-97 27-27 59-40 97-40 26 0 51 6 72 18 1 4 4 6 8 6 6 6 12 11 17 16 7 7 12 14 17 21l1 0c14 23 22 48 22 76 0 37-14 70-40 96-27 27-59 40-97 40z m-15-69c0 4 1 8 4 11 3 3 7 4 11 4 4 0 8-1 11-4 3-3 4-7 4-11l0-52 52 0c5 0 8-2 11-5 3-3 5-6 5-10 0-5-2-8-5-11-3-3-6-5-11-5l-52 0 0-52c0-4-1-8-4-11-3-3-7-4-11-4-4 0-8 1-11 4-3 3-4 7-4 11l0 52-53 0c-4 0-7 2-10 5-4 3-5 6-5 11 0 4 1 7 5 10 3 3 6 5 10 5l53 0z"/>
<glyph glyph-name="zoom-reset-icon" unicode="&#57450;" d="M460 59l-2-2 5 2z m-4 29l2 0 2 2z m-90 102c-4-5-8-9-12-13-3-3-7-6-10-9l82-84c3-4 6-5 11-5 4 0 7 1 10 5l2 1c3 3 4 7 4 11 0 4-1 8-4 11z m-227 202c-9-8-16-17-22-27 2 0 4-1 6-2l57-18-101-49-50 99 59-20c7 14 17 27 29 39 33 33 72 49 118 49 46 0 86-16 119-49 32-33 49-72 49-118 0-29-7-56-20-80l87-88c10-9 14-20 14-32 0-12-4-23-14-32l-1-2c-9-9-20-14-32-14-13 0-23 5-33 14l-84 88c-25-15-53-22-85-22-40 0-74 12-104 37-5 4-10 8-14 12-6 6-12 13-17 20l26 16c4-6 8-10 13-14 6-6 12-12 20-17 22-15 48-23 76-23 27 0 51 6 73 18 1 4 3 6 7 6 6 6 12 11 17 16 7 7 13 14 17 21l2 0c14 23 21 48 21 76 0 37-13 70-40 96-27 27-59 40-97 40-38 0-70-13-96-40z"/>
<glyph glyph-name="zoom-icon" unicode="&#57451;" d="M441 59l-1-2 4 2z m0 31l-3-2 2 0z m-6 6c0 4-2 8-5 11l-83 83c-4-5-8-9-12-13-3-3-6-6-9-9l81-84c3-4 7-5 11-5 4 0 8 1 11 5l1 1c3 3 5 7 5 11z m-100 318c33-33 49-72 49-118 0-29-6-56-20-80l88-88c9-9 14-20 14-32 0-12-5-23-14-32l-2-2c-9-9-20-14-32-14-12 0-23 5-32 14l-85 88c-24-15-52-22-84-22-46 0-86 16-118 49-33 33-50 72-50 119 0 46 17 85 50 118 32 33 72 49 118 49 46 0 85-16 118-49z m19-118c0 37-14 70-40 96-27 27-59 40-97 40-38 0-70-13-97-40-27-26-40-59-40-96 0-38 13-71 40-97 27-27 59-40 97-40 27 0 51 6 72 18 1 4 4 6 8 6 6 6 12 11 17 16 7 7 12 14 17 21l1 0c14 23 22 48 22 76z"/>
<glyph glyph-name="print-preview-icon" unicode="&#57349;" d="M207 308c-14-14-21-31-21-52 0-20 7-38 21-52 15-15 32-22 53-22 20 0 37 7 52 22 14 14 21 32 21 52 0 21-7 38-21 52-15 15-32 22-52 22-21 0-38-7-53-22z m265-52c0-4-1-8-4-11-72-81-144-121-215-120-51-1-101 20-150 62-20 16-38 36-57 58-3 3-5 7-5 11 0 4 2 7 5 9 20 22 38 40 57 56 52 45 104 67 157 66 70 1 140-40 208-122 3-2 4-5 4-9z"/>
<glyph glyph-name="info-icon" unicode="&#57356;" d="M275 278c4-5 6-10 6-16l0-112c0-6-2-12-6-17-5-4-11-6-17-6-6 0-11 2-15 6-5 5-8 11-8 17l0 112c0 6 3 11 8 16 4 5 9 7 15 7 6 0 12-2 17-7z m-40 66l0 9c0 6 3 11 8 15 4 5 9 8 15 8 6 0 12-3 17-8 4-4 6-9 6-15l0-9c0-7-2-12-6-17-5-4-11-6-17-6-6 0-11 2-15 6-5 5-8 10-8 17z m174 64c42-42 63-93 63-152 0-59-21-110-63-152-42-42-93-63-152-63-60 0-111 21-153 63-42 42-63 93-63 152 0 59 21 110 63 152 42 42 93 63 153 63 59 0 110-21 152-63z m-33-272c33 33 49 73 49 120 0 47-16 87-49 120-32 33-72 49-119 49-48 0-88-16-120-49-33-33-49-73-49-120 0-47 16-87 49-120 32-33 72-49 120-49 47 0 87 16 119 49z"/>
<glyph glyph-name="vertical-align-icon" unicode="&#57359;" d="M261 102c3-3 5-6 5-10l0-57c0-4-2-8-5-11-3-3-6-4-11-5-4 1-7 2-10 5-3 3-5 7-5 11l0 57c0 4 2 7 5 10 3 3 6 5 10 5 5 0 8-2 11-5z m197 79l0 141-403 0 0-141z m-197 305c3-3 5-6 5-10l0-57c0-4-2-8-5-11-3-3-6-4-11-4-4 0-7 1-10 4-3 3-5 7-5 11l0 57c0 4 2 7 5 10 3 3 6 5 10 5 5 0 8-2 11-5z m-232-138c3 3 7 5 11 5l433 0c4 0 8-2 11-5 3-3 4-6 4-11l0-172c0-4-1-7-4-10-3-3-7-5-11-5l-433 0c-4 0-8 2-11 5-3 3-4 6-4 10l0 172c0 5 1 8 4 11z"/>
<glyph glyph-name="backward-swap" unicode="&#57366;" d="M68 339l0-275 275 0 0 275z m286 23c3 0 6-1 8-4 2-2 3-4 3-7l0-298c0-3-1-6-3-8-2-2-5-3-8-3l-298 0c-3 0-5 1-7 3-3 2-4 5-4 8l0 298c0 3 1 5 4 7 2 3 4 4 7 4z m104 108c3 0 5-1 8-4 2-2 3-4 3-7l0-262c0-3-1-6-3-8-3-2-5-3-8-3l-48 0c-3 0-5 1-7 3-3 2-4 5-4 8l0 202-203 0c-3 0-6 1-8 3-2 3-3 6-3 9l0 48c0 3 1 5 3 7 2 3 5 4 8 4z"/>
<glyph glyph-name="flip-horizontal" unicode="&#57374;" d="M71 81l132 0 0 306z m134 365c0 2 2 4 4 5 3 2 5 2 8 1 2 0 5-1 7-4 1-2 2-4 2-7l0-371c0-3-1-6-3-8-3-2-5-3-8-3l-162 0c-2 0-4 1-6 2-2 2-4 4-4 6-1 3-1 5 1 8z m83-5c0 3 1 5 3 7 2 3 4 4 6 4 3 1 5 1 8-1 2-1 4-3 5-5l161-371c1-3 1-5 1-8-1-2-3-4-5-6-2-1-4-2-6-2l-162 0c-3 0-5 1-7 3-3 2-4 5-4 8z"/>
<glyph glyph-name="grid-icon" unicode="&#57360;" d="M332 452l0-115 120 0 0 115z m-23-115l0 115-171 0 0-115z m-66-23l0-115 138 0 0 115z m229 157c2-2 3-4 3-8l0-414c0-3-1-6-3-8-2-3-5-4-8-4l-415 0c-3 0-6 1-8 4-2 2-3 5-3 8l0 414c0 4 1 6 3 8 2 3 5 4 8 4l415 0c3 0 6-1 8-4z m-68-157l0-115 48 0 0 115z m-287-254l0 116-56 0 0-116z m-2 392l-54 0 0-115 54 0z m105-253l0 115-159 0 0-115z m92-139l0 116-172 0 0-116z m140 0l0 116-117 0 0-116z"/>
<glyph glyph-name="list-icon" unicode="&#57379;" d="M176 173l-115 0 0-117 115 0z m-115 23l115 0 0 112-115 0z m115 135l0 116-115 0 0-116z m138-275l0 117-115 0 0-117z m0 140l0 112-115 0 0-112z m139-23l-116 0 0-117 116 0z m0 135l-116 0 0-112 116 0z m-139 23l0 116-115 0 0-116z m139 0l0 116-116 0 0-116z m12 139c3 0 5-1 8-3 2-2 3-5 3-8l0-415c0-3-1-6-3-8-3-2-5-3-8-3l-415 0c-3 0-6 1-8 3-2 2-4 5-4 8l0 415c0 3 2 6 4 8 2 2 5 3 8 3z"/>
<glyph glyph-name="height-icon" unicode="&#57380;" d="M164 55c-3 0-6 1-8 3-2 2-3 5-3 8 0 3 1 6 3 8 2 3 5 4 8 4l184 0c3 0 6-1 8-4 2-2 3-5 3-8 0-3-1-6-3-8-2-2-5-3-8-3z m184 402c3 0 6-1 8-3 2-2 3-5 3-8 0-3-1-6-3-8-2-3-5-4-8-4l-184 0c-3 0-6 1-8 4-2 2-3 5-3 8 0 3 1 6 3 8 2 2 5 3 8 3z m-97-36c3 2 5 3 8 3 4 0 6-1 9-3l42-43c2-2 3-4 3-8 0-3-1-5-3-8-2-2-5-3-8-3-3 0-6 1-8 3l-21 21 1-246 19 18c2 2 4 3 8 3 3 1 6 0 8-3 2-2 3-5 3-8 1-3 0-6-3-8l-37-39c-1 0-2-1-2-1l-1-1c-1-2-3-3-5-4-2-1-5-1-7 0-2 0-4 1-6 3l-42 42c-2 2-3 5-3 8 0 3 1 6 3 8 2 2 5 3 8 3 3 0 6-1 8-3l27-26-2 257-24-24c-2-2-5-3-8-3-3 0-6 1-8 3-2 3-3 5-4 8 1 4 2 6 4 8z"/>
<glyph glyph-name="width-icon" unicode="&#57387;" d="M457 164c0-3-1-6-3-8-2-2-5-3-8-3-3 0-6 1-8 3-3 2-4 5-4 8l0 184c0 3 1 6 4 8 2 2 5 3 8 3 3 0 6-1 8-3 2-2 3-5 3-8z m-402 184c0 3 1 6 3 8 2 2 5 3 8 3 3 0 6-1 8-3 3-2 4-5 4-8l0-184c0-3-1-6-4-8-2-2-5-3-8-3-3 0-6 1-8 3-2 2-3 5-3 8z m36-97c-2 3-3 5-3 8 0 4 1 6 3 9l43 42c2 2 4 3 8 3 3 0 5-1 8-3 2-2 3-5 3-8 0-3-1-6-3-8l-21-21 246 1-18 19c-2 2-3 4-3 8-1 3 0 6 3 8 2 2 5 3 8 3 3 1 6 0 8-3l39-37c0-1 1-2 1-2l1-1c2-1 3-3 4-5 1-2 1-5 0-7 0-2-1-4-3-6l-42-42c-2-2-5-3-8-3-3 0-6 1-8 3-2 2-3 5-3 8 0 3 1 6 3 8l26 27-257-2 24-24c2-2 3-5 3-8 0-3-1-6-3-8-3-2-5-3-8-4-4 1-6 2-8 4z"/>
<glyph glyph-name="instagram-icon" unicode="&#57395;" d="M326 326c-20 19-43 29-70 29-27 0-50-10-69-29-19-19-29-42-29-69 0-27 10-50 29-70 19-18 42-28 69-28 27 0 50 10 70 28 19 20 28 43 28 70 0 27-9 50-28 69z m53-69c0-33-12-62-36-87-25-24-54-35-87-35-34 0-63 11-86 35-25 25-37 54-37 87 0 34 12 62 37 86 23 24 52 37 86 37 33 0 62-13 87-37 24-24 36-52 36-86z m9 135c-3 0-5-1-7-3-1-1-2-3-2-6 0-3 1-5 3-7l-1 0c2-2 4-3 7-3 3 0 5 1 7 3l-1 0c2 2 3 4 3 7 0 3-1 5-2 6-2 2-4 3-7 3z m-34-9c0 9 4 17 10 23 7 7 15 11 24 11 9 0 17-4 24-11 6-6 9-14 9-23 0-9-2-17-8-24 0 0-1 0-1-1-7-6-15-9-24-9-9 0-17 3-24 9l-1 1c-6 7-9 15-9 24z m-204 106l212 0c85 0 127-42 127-127l0-213c0-84-42-126-127-126l-212 0c-85 0-127 42-127 126l0 213c0 1 0 2 0 3 1 83 43 124 127 124z m212-24l-212 0c-68 0-102-33-103-100 0-1 0-2 0-3l0-213c0-68 34-102 103-102l212 0c69 0 103 34 103 102l0 213c0 68-34 103-103 103z"/>
<glyph glyph-name="cloud-icon" unicode="&#57400;" d="M195 134c3 3 5 4 9 4 3 0 6-1 9-4l28-29 0 150 25 0 0-151 31 30c2 3 5 4 8 4 3 0 6-1 9-4 2-2 3-5 3-8 0-4-1-7-3-9l-51-50c-3-2-6-4-9-4-4 0-6 2-9 4l-50 50c-2 2-4 5-4 9 0 3 2 6 4 8z m189 184c0 5 1 10 1 13 0 26-9 48-27 66-19 18-41 27-67 27-25 0-47-9-65-27-11-12-19-25-23-39-1-3-3-5-6-7-3-2-7-2-10-2-3 1-6 3-7 6-1 2-2 3-3 4l-1 1c-8 8-17 12-29 12-11 0-21-4-28-12-7-7-11-16-11-28 0-5 1-9 2-14 1-2 1-4 0-6-1-2-2-4-3-6-2-1-4-2-6-3-12-3-23-8-33-17-14-12-21-26-21-43 0-17 7-32 21-44 16-13 34-19 56-19l73 0 0-25-73 0c-28 0-52 8-71 25l-1 0c-20 17-29 38-29 63 0 24 9 45 29 62l1 0c9 8 20 14 31 18-1 3-1 6-1 9 0 18 6 33 19 45 12 13 27 19 45 19 15 0 28-4 39-12 5 11 12 21 22 30l0 0c23 23 51 35 83 35 32 0 60-12 84-35 23-23 34-50 34-83 0-1 0-2 0-3 19-3 35-10 49-23 21-17 31-38 31-62 0-25-10-46-31-63-19-17-42-25-70-25l-75 0 0 25 75 0c21 0 39 6 54 19l1 0c15 12 22 27 22 44 0 17-7 31-22 43l-1 1c-13 11-28 17-47 18-2 0-4 1-5 2-3 1-4 3-5 5-1 2-1 4-1 6z"/>
<glyph glyph-name="facebook-icon" unicode="&#57408;" d="M149 489l213 0c85 0 127-42 127-127l0-214c0-84-42-125-127-125l-213 0c-84 0-126 41-126 125l0 214c0 1 0 2 0 2 1 84 43 125 126 125z m213-24l-213 0c-67 0-101-34-102-101 0 0 0-1 0-2l0-214c0-67 34-101 102-101l59 0 2 166-69 0 0 25 69 0 0 58c0 2 0 4 0 6l0 1c1 44 31 66 89 66 3 0 6 0 9 0l23 0 0-25-23 0c-3 0-6 0-9 0-40 0-62-13-64-41l0-1c0-2 0-4 0-6l0-58 67 0 0-25-67 0-2-166 129 0c69 0 103 34 103 101l0 214c0 68-34 103-103 103z"/>
<glyph glyph-name="history-image-icon" unicode="&#57410;" d="M407 46c3 0 6-2 8-4 2-2 4-5 4-8 0-3-2-6-4-8-2-2-5-3-8-3l-359 0c-3 0-5 1-8 3-2 2-3 5-3 8l0 222c0 3 1 6 3 8 3 2 5 4 8 4 4 0 6-2 8-4 3-2 4-5 4-8l0-210z m52 54l0 59-66 62-48-45c-2-2-5-3-8-3-3 0-6 1-8 4l-66 67-142-74 0-70z m-146 262l1 0c8 9 18 14 30 14 12 0 22-5 31-14 9-8 13-18 13-30 0-12-4-22-13-30l0-1c-9-8-19-12-31-12-12 0-22 4-30 13-9 8-13 18-13 30 0 12 4 22 12 30z m46-16c-4 5-9 7-15 7-5 0-10-2-14-6l0-1c-4-4-6-8-6-14 0-5 2-10 6-14 4-4 9-6 14-6 6 0 11 2 15 6l0 0c4 4 6 9 6 14 0 6-2 10-6 14z m-99 29c0-31-12-58-34-80-22-22-49-34-80-34-31 0-58 12-80 34-23 22-34 49-34 80 0 31 11 58 34 80 22 23 49 34 80 34 31 0 58-11 80-34 22-22 34-49 34-80z m-85 19c2 2 5 3 8 3 3 0 6-2 8-4 2-2 3-5 3-8 0-3-1-6-3-8l-27-26c-2-3-5-4-8-4-3 0-6 1-8 4l-49 46c-2 3-3 6-3 9 0 3 1 6 3 8 3 2 5 3 9 3 3 0 5-1 8-3l40-39z m35 45c-18 18-39 27-64 27-25 0-46-9-64-27-18-18-27-39-27-64 0-25 9-46 27-64 18-18 39-27 64-27 25 0 46 9 64 27 18 18 27 39 27 64 0 25-9 46-27 64z m64-6c0 4 1 6 4 9 2 2 5 3 8 3l184 0c3 0 6-1 8-3 2-3 4-5 4-9l0-344c0-4-2-6-4-8-2-3-5-4-8-4l-360 0c-3 0-6 1-8 4-3 2-4 4-4 8l0 88c0 2 1 4 2 6 1 2 3 3 4 4l156 82c3 1 5 1 8 1 2-1 4-2 6-4l64-65 47 44c2 2 5 3 8 3 3 0 6-1 8-3l58-54 0 231-173 0c-3 0-6 1-8 3-3 3-4 5-4 8z"/>
<glyph glyph-name="multiple-boundary-icon" unicode="&#57431;" d="M452 451l-391 0 0-391 391 0z m-239-56l-89 0 0-89 89 0z m11 23c3 0 6-2 9-4 2-2 3-5 3-8l0-111c0-3-1-6-3-9-3-2-6-3-9-3l-111 0c-3 0-6 1-8 3-2 3-4 6-4 9l0 111c0 3 2 6 4 8 2 2 5 4 8 4z m165-112l0 89-88 0 0-89z m12 112c3 0 6-2 8-4 2-2 3-5 3-8l0-111c0-3-1-6-3-9-2-2-5-3-8-3l-111 0c-4 0-6 1-8 3-3 3-4 6-4 9l0 111c0 3 1 6 4 8 2 2 4 4 8 4z m71 53c2-2 3-5 3-8l0-415c0-3-1-6-3-8-2-2-5-3-8-3l-415 0c-3 0-5 1-8 3-2 2-3 5-3 8l0 415c0 3 1 6 3 8 3 2 5 3 8 3l415 0c3 0 6-1 8-3z"/>
<glyph glyph-name="sock-icon" unicode="&#57432;" d="M326 235c0 0 0 1 0 1-4 6-10 11-18 13-6 3-12 3-19 3l0-4c0-2 0-4 1-6l0 0c0 0 0 0 0 0 0 0 0 0 0 0 1-4 2-8 5-12l0 0c0 0 0 0 0-1 0 0 0 0 0 0 0 0 1 0 1 0l0 0c0 0 0 0 0 0l0 0 0 0c1-1 1-2 2-3l0 0 23-22c3 4 5 8 6 13 2 6 2 13-1 18z m-10 37l0 0c0-1 1-1 1-1 13-5 23-13 29-24 0 0 0 0 0 0 0 0 0 0 0 0 6-11 7-23 4-36 0 0 0-1 0-1-2-8-6-15-12-23l71-70c0 0 0 0 0 0 0 1 0 1 0 1 0 1 1 1 1 2 0 0 0 1 0 1 3 8 7 15 13 21 1 1 1 1 2 1 0 1 0 1 0 1 0 0 1 1 1 1 9 9 20 15 32 17 1 0 1 0 2 0 0 1 0 1 1 1 0 0 0 0 0 0l-68 68c0 0 0 0 0 0-1 1-1 1-1 1-5 5-8 8-9 8 0 1 0 1 0 1l0 0c0 0 0 0 0 0-2 2-4 3-5 5 0 0 0 0 0 0l0 0c0 0 0 0 0 0-1 1-1 1-1 2-3 4-5 10-5 17l0 0c0 0 0 0 0 0 0 0 0 0 0 0 0 1 0 1 0 1 0 0 0 0 0 1l0 0 1 11 0 102-83 0 0-105c9 1 18-1 26-3z m20 126l0 25-9 0 0-25z m-36 0l0 25-9 0 0-25z m24 25l-9 0 0-25 9 0z m-12 0l-8 0 0-25 8 0z m60 0l-9 0 0-25 9 0z m-25 0l-8 0 0-25 8 0z m12 0l-8 0 0-25 8 0z m37 18c0-1 0-1 1-1 1-2 2-4 2-6l0-3c0 0 0 0 0 0l0-153c0 0 0 0 0 0 0-1 0-1 0-1 0-11 5-21 15-30 0 0 0 0 0 0 0 0 0 0 0-1l0 0 75-74c0 0 1 0 1 0 1-1 2-3 3-4l0 0c2-3 4-5 6-8 0 0 0-1 0-1 2-4 4-7 5-11l0 0c0-1 1-2 1-3 0 0 0 0 0-1 2-7 2-15 1-23 0 0 0 0 0-1 0 0 0 0 0 0-2-8-5-16-10-23-1-2-3-5-6-7 0 0 0 0 0 0l0 0c0 0 0-1 0-1 0 0 0 0 0 0 0 0 0 0 0 0-2-1-3-2-4-3 0 0 0 0 0 0 0 0 0 0 0 0 0 0 0 0 0-1-1 0-2-1-3-2-4-4-9-7-14-9l0 0c-6-3-13-5-20-5 0 0 0 0 0 0 0 0 0 0 0 0 0 0 0 0 0 0l-1 0c0 0 0 0 0 0-9-1-19 1-27 4-2 1-4 3-6 4 0 0 0 0 0 0-3 2-5 4-8 6l0 0c-2 2-5 4-7 6-1 1-1 1-2 2l-117 117c-1 0-1 0-1 0 0 0 0 0 0 0 0 0 0 0 0 0l-7 8c0 0 0 1 0 1-1 2-3 5-4 7l0 0c0 0 0 0 0 0l0 0c0 0 0 1 0 1-2 3-3 6-4 10 0 0 0 1 0 1-1 2-1 4-1 6 0 1 0 1 0 2 0 0 0 0 0 1l-1 182c0 0 0 0 1 1-1 0-1 0-1 1l0 5c0 2 1 4 2 5 1 1 1 1 1 1 2 2 4 3 7 3l116 0c3 0 5 0 7-2z m45-312c-5-5-8-10-10-16-2-5-2-10-2-15 6-3 12-5 19-4l0 0c8 0 14 3 20 9l4 3c0 1 0 1 0 1 4 4 7 10 8 16 0 0 0 0 0 0 1 6 1 11-1 16-5 2-12 2-18 1-8-2-14-5-20-11 0 0 0 0 0 0z m-195 311c0 0 0 0 1-1 1-1 2-3 2-5l0-5c0-1 0-1-1-1 1-1 1-1 1-1l-1-182c0-1 0-1 0-1 0-1 0-1 0-2 0-2 0-4-1-6 0 0 0-1 0-1-1-4-2-7-4-10 0-1 0-1 0-1l0 0c0 0 0 0 0 0l0 0c-1-3-3-5-4-7 0 0 0-1 0-1l-7-8c0 0 0 0 0 0 0 0 0 0 0 0 0 0-1 0-1 0l-117-117c-1-1-1-1-2-2-2-2-5-4-7-6-3-2-5-4-8-6 0 0 0 0 0 0-2-1-4-3-6-4-8-3-18-5-27-4 0 0 0 0 0 0l-1 0c0 0 0 0 0 0 0 0 0 0 0 0 0 0 0 0 0 0-7 0-14 2-20 5-5 2-10 5-14 9-1 1-2 2-3 2 0 1 0 1 0 1 0 0 0 0 0 0 0 0 0 0 0 0-1 1-2 2-4 3 0 0 0 0 0 0 0 0 0 0 0 0 0 0 0 1 0 1l0 0c0 0 0 0 0 0-3 2-5 5-6 7-5 7-8 15-10 23 0 0 0 0 0 0 0 1 0 1 0 1-1 8-1 16 1 23 0 1 0 1 0 1 0 1 1 2 1 3 1 4 3 7 5 11 0 0 0 1 0 1 2 3 4 5 6 8 1 1 2 3 3 4 0 0 1 0 1 0l75 74 0 0c0 1 0 1 0 1 0 0 0 0 0 0 10 9 15 19 15 30 0 0 0 0 0 1 0 0 0 0 0 0l0 153c0 0 0 0 0 0l0 3c0 2 1 4 2 6 1 0 1 0 1 0 2 3 4 3 7 3l116 0c3 0 5-1 7-3z m-25-17l-9 0 0-25 9 0z m-21 0l0-25 8 0 0 25z m-12 0l0-25 9 0 0 25z m-35 0l0-25 8 0 0 25z m12 0l0-25 8 0 0 25z m-25 0l0-25 9 0 0 25z m36-25l9 0 0 25-9 0z m-36-133c0 0 0 0 0 0 0 0 0 0 0 0l0 0c0-7-2-13-5-17 0-1 0-1-1-2 0 0 0 0 0 0l0 0c0 0 0 0 0 0-1-2-3-3-5-5 0 0 0 0 0 0l0 0c0 0 0 0 0-1-1 0-4-3-9-8 0 0 0 0-1-1 0 0 0 0 0 0l-68-68c0 0 0 0 0 0 0 0 1 0 1-1 1 0 1 0 2 0 12-2 23-8 32-17 0 0 1-1 1-1 0 0 0 0 0-1 1 0 1 0 2-1 6-6 10-13 13-21 0 0 0-1 0-1 0-1 1-1 1-2 0 0 0 0 0-1 0 0 0 0 0 0l71 70c-6 8-10 15-12 23 0 0 0 1 0 1-3 13-2 25 4 36 0 0 0 0 0 0 0 0 0 0 0 0 6 11 16 19 29 24 0 0 1 0 1 1l0 0c8 2 17 4 26 3l0 105-83 0 0-102 1-11 0 0c0-1 0-1 0-1 0 0 0 0 0-1z m-108-142c0 0 0 0 0 0 1-6 4-12 8-16 0 0 0 0 0-1l4-3c6-6 12-9 20-9l0 0c7-1 13 1 19 4 0 5 0 10-2 15-2 6-5 11-10 16 0 0 0 0 0 0-6 6-12 9-20 11-6 1-13 1-18-1-2-5-2-10-1-16z m191 129c-7 0-13 0-19-3-8-2-14-7-18-13 0 0 0-1 0-1-3-5-3-12-2-18 2-5 4-9 7-13l23 22c0 0 0 0 0 0 1 1 1 2 2 3l0 0 0 0c0 0 0 0 0 0l0 0c0 0 0 0 1 0 0 0 0 0 0 0 0 1 0 1 0 1l0 0c3 4 4 8 5 12 0 0 0 0 0 0 0 0 0 0 0 0l0 0c1 2 1 4 1 6l0 4z"/>
</font>
</defs>
</svg>
